<svg xmlns="http://www.w3.org/2000/svg" viewBox="0 0 128 128"><path fill="#444" d="M10.654 41.7 0 58.673 4.36 86.3h7.494l-.613-6.417h3.846l.49 6.417h15.7l.489-6.417h3.82l-.612 6.417h7.544l4.31-27.627L36.174 41.7zm2.155 8.45h6.784l-.367 3.184h8.425l-.44-3.184h6.906l4.213 8.523-2.082 17.046H10.654L8.498 58.673Zm53.775 5.6a1.63 1.63 0 0 0-1.28.566 1.8 1.8 0 0 0-.347.608c-.081.235-.117.48-.117.735 0 .265.035.51.117.74a1.8 1.8 0 0 0 .347.607q.224.259.546.413c.214.102.459.148.734.148q.331 0 .607-.107c.184-.072.342-.169.48-.301.133-.133.24-.286.322-.47a1.7 1.7 0 0 0 .142-.597h-.622c-.015.133-.046.26-.087.373q-.069.176-.183.306a.9.9 0 0 1-.281.204.9.9 0 0 1-.378.071 1 1 0 0 1-.505-.117.9.9 0 0 1-.341-.311 1.3 1.3 0 0 1-.2-.45 2 2 0 0 1-.06-.51c-.006-.168.02-.34.06-.51a1.4 1.4 0 0 1 .2-.443 1 1 0 0 1 .341-.317c.143-.076.306-.112.505-.117q.193.001.347.056a.9.9 0 0 1 .266.148q.106.1.183.23.068.138.113.29h.637a1.4 1.4 0 0 0-.158-.525 1.3 1.3 0 0 0-.336-.388 1.5 1.5 0 0 0-.475-.245 2 2 0 0 0-.577-.086zm-10.42.087-1.398 3.643h.658l.342-.964h1.454l.341.964h.684l-1.403-3.643zm2.433 0v3.643h.638v-1.398h.969q.381 0 .633-.107c.158-.071.285-.168.377-.28a.9.9 0 0 0 .179-.363c.03-.132.046-.25.05-.367 0-.112-.02-.235-.05-.367a.95.95 0 0 0-.179-.368 1.05 1.05 0 0 0-.377-.28 1.6 1.6 0 0 0-.633-.113zm4.003 0-1.397 3.643h.658l.342-.964h1.453l.342.964h.684l-1.403-3.643zm6.105 0v3.643h.638v-1.643H71v1.643h.637v-3.643H71v1.45h-1.658v-1.45zm3.702 0v3.643h2.658v-.551h-2.02v-1.066h1.836v-.52h-1.837v-.955h1.985v-.55zm-13.172.52h.944q.123.001.24.027a.6.6 0 0 1 .198.096.5.5 0 0 1 .138.184q.045.122.05.296a.545.545 0 0 1-.418.571.8.8 0 0 1-.219.03h-.933zm-2.745.108h.016l.545 1.566H55.94zm6.437 0h.015l.546 1.566h-1.112zm60.38 4.932v.362h.757v2.03h.418v-2.03h.76v-.362zm2.21 0v2.392h.398v-1.846h.007l.664 1.846h.345l.663-1.846h.007v1.846h.4v-2.392h-.584l-.643 1.873h-.007l-.66-1.873zm-66.139.021c-.84.014-1.59.157-2.219.442-.63.285-1.17.684-1.574 1.168a5 5 0 0 0-.945 1.682 6.4 6.4 0 0 0-.315 2.01q0 1.068.315 2.01c.21.64.525 1.196.945 1.68.42.485.944.884 1.574 1.17.63.284 1.38.427 2.22.427.63 0 1.199-.086 1.709-.285q.765-.278 1.35-.813c.374-.342.689-.77.929-1.282.24-.5.39-1.07.464-1.696h-1.019c-.06.456-.18.884-.345 1.283-.195.399-.42.74-.705 1.026-.3.299-.644.541-1.034.698a3.4 3.4 0 0 1-1.35.257c-.72 0-1.32-.129-1.83-.385a3.6 3.6 0 0 1-1.259-1.012 4.1 4.1 0 0 1-.72-1.44 6.1 6.1 0 0 1 0-3.277c.15-.528.39-.998.72-1.425q.495-.642 1.26-1.027c.51-.256 1.11-.384 1.83-.384.39 0 .749.057 1.109.17.36.115.674.271.974.47.3.215.54.471.75.785.21.313.36.655.45 1.04h1.02a3.4 3.4 0 0 0-.51-1.41 4.12 4.12 0 0 0-2.31-1.668 5.2 5.2 0 0 0-1.484-.214m10.483 0c-.84.014-1.59.157-2.219.442-.63.285-1.17.684-1.574 1.168a5 5 0 0 0-.945 1.682 6.4 6.4 0 0 0-.315 2.01q0 1.068.315 2.01a4.8 4.8 0 0 0 .945 1.68c.42.485.944.884 1.574 1.17.63.284 1.38.427 2.22.427q1.259 0 2.204-.428a4.5 4.5 0 0 0 1.574-1.168 4.8 4.8 0 0 0 .945-1.682 6.3 6.3 0 0 0 .314-2.01q0-1.047-.314-2.009a5 5 0 0 0-.945-1.682 4.5 4.5 0 0 0-1.574-1.168c-.63-.285-1.365-.442-2.205-.442m31.395 0c-.84.014-1.59.157-2.219.442-.63.285-1.17.684-1.574 1.168a5 5 0 0 0-.945 1.682 6.4 6.4 0 0 0-.315 2.01q0 1.068.315 2.01a4.8 4.8 0 0 0 .945 1.68c.42.485.944.884 1.574 1.17.63.284 1.38.427 2.22.427q1.259 0 2.204-.428a4.5 4.5 0 0 0 1.574-1.168 4.8 4.8 0 0 0 .945-1.682 6.3 6.3 0 0 0 .315-2.01q0-1.047-.315-2.009a5 5 0 0 0-.945-1.682 4.5 4.5 0 0 0-1.574-1.168c-.63-.285-1.365-.442-2.205-.442m-24.779.214v10.175h1.02V67.29h3.869c.48-.015.855.07 1.124.227.27.186.48.4.63.685s.24.598.285.954c.045.357.075.713.105 1.07 0 .113.015.228.03.37a4.4 4.4 0 0 0 .105.869.9.9 0 0 0 .15.342h1.125q-.18-.171-.27-.513c-.06-.228-.12-.456-.136-.712-.03-.257-.06-.5-.06-.756-.015-.242-.03-.456-.03-.627a7 7 0 0 0-.134-.84 1.9 1.9 0 0 0-.315-.699c-.15-.2-.33-.356-.555-.484a2.8 2.8 0 0 0-.87-.271v-.029c.69-.128 1.2-.427 1.56-.912.344-.47.524-1.026.524-1.681 0-.456-.09-.841-.27-1.183a2.3 2.3 0 0 0-.704-.827c-.3-.214-.645-.37-1.035-.484-.39-.1-.81-.157-1.244-.157zm10.016 0v10.175h3.704c1.62-.028 2.85-.47 3.674-1.297.824-.826 1.244-2.095 1.244-3.79 0-1.682-.42-2.95-1.244-3.777s-2.054-1.268-3.674-1.311zm20.21 0 3.958 10.175h1.185l3.974-10.175h-1.08l-3.449 9.106h-.03l-3.478-9.106zm12.386 0-4.303 10.175h1.08l1.289-3.164h4.873l1.305 3.164h1.094l-4.198-10.175Zm-88.738.55a1.048 3.92 0 0 0-1.048 3.92 1.048 3.92 0 0 0 1.048 3.92 1.048 3.92 0 0 0 1.047-3.92 1.048 3.92 0 0 0-1.047-3.92m39.51.063c.705 0 1.305.128 1.815.384.51.257.914.599 1.244 1.027s.57.897.72 1.425c.15.541.24 1.083.24 1.639a6.8 6.8 0 0 1-.24 1.639 4.1 4.1 0 0 1-.72 1.439c-.33.427-.735.755-1.244 1.012-.51.256-1.11.385-1.815.385-.72 0-1.32-.129-1.829-.385a3.6 3.6 0 0 1-1.26-1.012 4.1 4.1 0 0 1-.72-1.44 6.1 6.1 0 0 1 0-3.277c.15-.528.39-.998.72-1.425q.495-.642 1.26-1.027c.51-.256 1.11-.384 1.83-.384zm31.395 0c.705 0 1.305.128 1.815.384.51.257.914.599 1.244 1.027s.57.897.72 1.425c.15.541.24 1.083.24 1.639a6.8 6.8 0 0 1-.24 1.639 4.1 4.1 0 0 1-.72 1.439c-.33.427-.735.755-1.244 1.012-.51.256-1.11.385-1.815.385-.72 0-1.32-.129-1.829-.385a3.6 3.6 0 0 1-1.26-1.012 4.1 4.1 0 0 1-.72-1.44 6.1 6.1 0 0 1 0-3.277c.15-.528.39-.998.72-1.425q.495-.642 1.26-1.027c.51-.256 1.11-.384 1.83-.384zm-23.759.213h3.809c.78.015 1.35.186 1.739.542.375.37.57.87.57 1.482a2.1 2.1 0 0 1-.195.84c-.12.243-.3.443-.495.614a2.4 2.4 0 0 1-.735.399 3 3 0 0 1-.884.128h-3.809zm10.016 0h2.174c.765 0 1.425.086 1.98.243.554.156 1.02.399 1.38.74.359.343.614.785.794 1.326.165.542.255 1.197.255 1.953-.015.77-.09 1.41-.255 1.952-.18.541-.45.983-.795 1.325-.36.342-.825.599-1.38.756-.554.156-1.214.228-1.979.228h-2.174zm-70.602.036a1.048 3.92 0 0 0-1.047 3.92 1.048 3.92 0 0 0 1.047 3.92 1.048 3.92 0 0 0 1.048-3.92 1.048 3.92 0 0 0-1.048-3.92m102.703.107 2.07 5.216h-4.214z"/></svg>
