<svg viewBox="0 0 128 128" xmlns="http://www.w3.org/2000/svg">
    <path fill="#004482" d="M63.443 0c-1.782 0-3.564.39-4.916 1.172L11.594 28.27C8.89 29.828 6.68 33.66 6.68 36.78v54.197c0 1.562.55 3.298 1.441 4.841l-.002.002c.89 1.543 2.123 2.89 3.475 3.672l46.931 27.094c2.703 1.562 7.13 1.562 9.832 0h.002l46.934-27.094c1.352-.78 2.582-2.129 3.473-3.672.89-1.543 1.441-3.28 1.441-4.843V36.779c0-1.557-.55-3.295-1.441-4.838v-.002c-.891-1.545-2.121-2.893-3.473-3.67L68.359 1.173C67.008.39 65.226 0 63.443 0zm.002 26.033c13.465 0 26.02 7.246 32.77 18.91l-16.38 9.479c-3.372-5.836-9.66-9.467-16.39-9.467-10.432 0-18.922 8.49-18.922 18.924S53.013 82.8 63.445 82.8c6.735 0 13.015-3.625 16.395-9.465l16.375 9.477c-6.746 11.662-19.305 18.91-32.77 18.91-20.867 0-37.843-16.977-37.843-37.844s16.976-37.844 37.843-37.844v-.002zM92.881 57.57h4.201v4.207h4.203v4.203h-4.203v4.207h-4.201V65.98h-4.207v-4.203h4.207V57.57zm15.765 0h4.208v4.207h4.203v4.203h-4.203v4.207h-4.208V65.98h-4.205v-4.203h4.205V57.57z"/>
</svg>
