<svg xmlns="http://www.w3.org/2000/svg" viewBox="0 0 128 128"><path fill="#A80030" d="M71.439 43.961c.464-.362.88-.726 1.254-1.08-1.04.255-2.1.26-3.168.163-1.281.018.242.659 1.914.917zM76.398 41.331c.765-1.055 1.322-2.206 1.518-3.397-.172.848-.632 1.58-1.066 2.355-2.395 1.509-.227-.895-.002-1.811-2.574 3.245-.356 1.946-.45 2.853zM78.939 34.725c.155-2.307-.454-1.575-.659-.697.239.124.428 1.626.659.697zM64.666 3.194c.684.122 1.479.216 1.364.38.75-.166.92-.315-1.364-.38zM65.999 3.632l.031-.058-.48.101zM64.334 50.868l.019-.06-.019.06zM64.255 51.306c-1.844-.862-3.531-2.166-4.92-3.761.738 1.076 1.533 2.124 2.561 2.947-1.74-.587-4.062-4.212-4.739-4.359 2.997 5.365 12.155 9.409 16.954 7.402-2.221.083-5.04.046-7.533-.877-.963-.494-2.234-1.47-2.244-1.79-.047.125-.128.25-.079.438zM91.872 29.822c.021-1.178.328-.617.445-.906-.229-.134-.836-1.035-1.203-2.765.265-.407.713 1.054 1.076 1.112-.234-1.374-.636-2.422-.653-3.479-1.063-2.22-.376.297-1.237-.953-1.132-3.526.938-.818 1.079-2.42 1.712 2.481 2.688 6.331 3.14 7.926-.344-1.943-.896-3.827-1.573-5.65.522.222-.839-3.996.678-1.204-1.619-5.954-6.925-11.518-11.808-14.127.597.546 1.35 1.231 1.081 1.34-2.429-1.445-2.003-1.559-2.351-2.169-1.977-.806-2.108.065-3.416.002-3.729-1.979-4.448-1.77-7.88-3.007l.156.73c-2.47-.822-2.877.31-5.546.001-.163-.126.855-.459 1.694-.579-2.389.314-2.277-.473-4.614.086.575-.404 1.186-.673 1.798-1.016-1.946.118-4.649 1.134-3.815.209-3.176 1.419-8.817 3.408-11.984 6.377l-.1-.665c-1.45 1.741-6.326 5.201-6.715 7.458l-.388.09c-.753 1.278-1.242 2.727-1.841 4.041-.988 1.683-1.448.648-1.307.912-1.942 3.937-2.908 7.244-3.739 9.959.592.887.013 5.342.237 8.907-.974 17.613 12.361 34.713 26.937 38.66 2.137.766 5.313.738 8.015.813-3.188-.912-3.599-.482-6.706-1.565-2.24-1.056-2.731-2.261-4.318-3.639l.629 1.11c-3.111-1.102-1.81-1.363-4.343-2.165l.671-.874c-1.009-.077-2.672-1.7-3.127-2.601l-1.104.044c-1.325-1.635-2.033-2.815-1.98-3.729l-.356.636c-.403-.693-4.879-6.137-2.558-4.87-.431-.393-1.004-.641-1.626-1.771l.473-.539c-1.115-1.438-2.056-3.28-1.983-3.895.595.804 1.008.955 1.418 1.094-2.822-7-2.979-.386-5.116-7.126l.452-.035c-.346-.523-.558-1.089-.836-1.646l.198-1.959c-2.03-2.346-.567-9.983-.273-14.171.201-1.703 1.695-3.517 2.829-6.359l-.691-.119c1.322-2.304 7.546-9.258 10.43-8.901 1.396-1.754-.278-.008-.551-.447 3.068-3.175 4.033-2.243 6.103-2.815 2.232-1.324-1.916.519-.858-.504 3.861-.985 2.735-2.242 7.771-2.742.532.302-1.232.467-1.675.859 3.215-1.574 10.176-1.215 14.7.873 5.244 2.452 11.139 9.699 11.373 16.518l.265.07c-.133 2.711.415 5.847-.538 8.726l.644-1.364c.077 2.071-.604 3.078-1.22 4.857l-1.108.552c-.906 1.761.09 1.118-.559 2.518-1.416 1.258-4.292 3.935-5.213 4.18-.672-.014.456-.793.604-1.098-1.894 1.3-1.52 1.951-4.417 2.742l-.084-.19c-7.142 3.362-17.062-3.297-16.933-12.382-.075.576-.216.433-.374.664-.368-4.673 2.158-9.367 6.422-11.287 4.169-2.063 9.056-1.218 12.041 1.569-1.639-2.149-4.905-4.427-8.773-4.216-3.79.062-7.336 2.469-8.519 5.085-1.942 1.222-2.167 4.712-3.013 5.352-1.14 8.367 2.141 11.981 7.691 16.234.448.303.499.474.459.629l.007-.012c6.546 2.443 13.307 1.85 18.971-2.69 1.441-1.122 3.016-3.032 3.471-3.059-.685 1.032.118.496-.409 1.406 1.435-2.316-.624-.943 1.484-3.999l.779 1.071c-.292-1.924 2.387-4.257 2.115-7.298.614-.929.685 1.002.033 3.14.905-2.372.24-2.753.471-4.712.249.659.581 1.357.75 2.053-.589-2.293.603-3.86.899-5.193-.3-.128-.916 1.014-1.058-1.693zM55.361 45.699c.842 1.145 1.511 2.384 2.585 3.275-.773-1.507-1.347-2.131-2.404-4.173l-.181.898zM57.531 44.725c-.445-.493-.708-1.088-1.005-1.678.284 1.038.862 1.931 1.4 2.84l-.395-1.162zM90.333 44.666c1.262-2.372 2.076-4.968 2.42-7.598l-.188.473c-.343 2.451-1.09 4.876-2.232 7.125zM67.969 2.196c-1.199.101-2.391.16-3.568.312l.519.071c.866-.316 2.128-.174 3.049-.383zM34.518 18.84l-.007-.091.007.091zM34.861 20.095c.891-2.006-.246-.715-.344-1.255.14 1.779-1.367 2.454.344 1.255zM32.463 27.301c.402-1.231.474-1.972.627-2.685-1.108 1.418-.51 1.721-.627 2.685zM33.145 95.852c-1.429.677-2.662 1.113-5.363 1.352 1.072 1.151 1.072 1.748 1.072 6.99-.753-.237-1.708-.516-3.337-.516-7.111 0-8.263 6.197-8.263 10.808 0 11.202 5.959 11.202 6.833 11.202 2.463 0 4.053-1.352 4.728-3.694l.08 3.535c.755-.041 1.509-.12 2.741-.12.437 0 .793 0 1.112.041.318 0 .635.038.994.079-.636-1.271-1.113-4.131-1.113-10.33 0-6.039 0-16.248.516-19.347zm-4.489 22.049c-.078 1.349-.198 4.249-3.058 4.249-2.94 0-3.656-3.377-3.893-4.846-.278-1.628-.278-2.98-.278-3.575 0-1.906.119-7.231 4.608-7.231 1.352 0 2.106.398 2.701.715l.04 2.583c-.041.041-.041 6.435-.12 8.105zM42.732 103.638c-8.104 0-8.104 8.98-8.104 10.886 0 8.063 3.615 11.241 9.693 11.241 2.7 0 4.012-.395 4.728-.595-.04-1.43.158-2.344.398-3.575-.836.518-1.908 1.093-4.292 1.093-6.197 0-6.278-5.688-6.278-7.688h10.569l.077-2.243c.001-4.648-.912-9.119-6.791-9.119zm2.86 9.362h-6.793c.041-3 .717-6.237 3.536-6.237 3.1 0 3.335 3.237 3.257 6.237zM60.544 103.678c-3.814 0-4.926 3.179-5.521 4.808 0-2.026.039-9.098.355-12.713-2.581 1.192-4.196 1.39-5.902 1.549 1.548.634 1.524 3.258 1.524 11.8v9.878h.048c0 3 0 4.555-.476 5.826 1.628.635 3.653.966 6.078.966 1.549 0 6.038-.014 8.461-4.979 1.152-2.305 1.549-5.41 1.549-7.754 0-1.431-.159-4.572-1.311-6.558-1.111-1.866-2.899-2.823-4.805-2.823zm-3.378 19.546c-.636 0-1.43-.12-1.945-.239-.08-1.43-.08-3.894-.08-6.753 0-3.418.357-5.202.636-6.078.833-2.82 2.701-2.858 3.058-2.858 3.02 0 3.615 4.171 3.615 7.269-.001 3.693-.676 8.659-5.284 8.659zM73.541 108.723c0-2.66.042-3.537.358-5.284-1.509.716-2.422.954-5.679 1.271.556.397.913.634 1.111 2.146.278 1.986.237 11.441.079 14.978-.119 2.581-.278 2.94-.675 3.695.913-.119 1.789-.2 3.058-.2 1.152 0 1.709.08 2.505.2-.876-1.631-.837-3.098-.757-16.806zM90.872 117.78l.041-8.104c0-3.021-.796-5.999-6.755-5.999-3.932 0-6.236 1.191-7.388 1.788.478.874.875 1.626 1.232 3.338 1.55-1.351 3.576-2.066 5.64-2.066 3.3 0 3.3 2.185 3.3 5.282-.755-.039-1.392-.118-2.465-.118-5.047.002-8.384 1.945-8.384 7.271 0 2.504.755 5.005 2.981 6.078.993.438 1.985.438 2.304.438 3.655 0 4.886-2.703 5.642-4.371-.04 1.748 0 2.819.119 4.212.715-.041 1.43-.12 2.624-.12.675 0 1.31.079 1.985.12-.437-.675-.675-1.074-.795-2.623-.081-1.51-.081-3.019-.081-5.126zm-4.649 2.003c-.834 1.788-2.225 2.376-3.257 2.376-2.386 0-2.9-2.093-2.9-4.039 0-3.734 3.338-4.121 4.846-4.121h2.107c-.079 3.001-.12 4.394-.796 5.784zM110 121.595v-11.961c0-2.382-.335-5.997-5.302-5.997-3.974 0-4.698 2.74-5.698 3.974v-4.21c-1 .516-1.819 1.032-5.037 1.192.435.396.936.753 1.134 2.304.36 2.541.253 13.268.172 15.453-.079 2.224-.212 2.542-.49 3.179.793-.12 1.441-.158 2.396-.158 1.192 0 2.032.079 2.706.158-.396-1.393-.394-1.867-.432-6.952 0-5.88.001-7.39.318-8.78.278-1.351 1.034-3.019 3.298-3.019 2.307 0 2.62 1.828 2.698 2.501.122.953.237 3.656.237 5.523v4.289c0 1.073-.195 4.134-.315 5.045-.078.677-.218.877-.376 1.393.757-.118 1.244-.199 2.198-.199 1.626 0 2.178.12 3.053.199-.555-1.153-.56-2.583-.56-3.934zM71.342 101.1l-3.289-3.289 3.29-3.289 3.289 3.289z"/></svg>