<?xml version="1.0" encoding="utf-8"?>
<!-- Generator: Adobe Illustrator 16.0.0, SVG Export Plug-In . SVG Version: 6.00 Build 0)  -->
<!DOCTYPE svg PUBLIC "-//W3C//DTD SVG 1.1//EN" "http://www.w3.org/Graphics/SVG/1.1/DTD/svg11.dtd">
<svg version="1.1" id="Layer_1" xmlns="http://www.w3.org/2000/svg" xmlns:xlink="http://www.w3.org/1999/xlink" x="0px" y="0px"
	 width="500px" height="500px" viewBox="0 0 500 500" enable-background="new 0 0 500 500" xml:space="preserve">
<g>
	<path fill="#A80030" d="M279.002,173.423c1.773-1.384,3.365-2.773,4.797-4.132c-3.979,0.975-8.033,0.996-12.119,0.625
		C266.781,169.983,272.604,172.437,279.002,173.423z"/>
	<path fill="#A80030" d="M297.973,163.364c2.926-4.032,5.053-8.439,5.803-12.995c-0.66,3.244-2.416,6.046-4.08,9.012
		c-9.158,5.771-0.865-3.422-0.008-6.925C289.844,164.863,298.33,159.896,297.973,163.364z"/>
	<path fill="#A80030" d="M307.688,138.097c0.596-8.823-1.736-6.026-2.52-2.667C306.08,135.906,306.805,141.652,307.688,138.097z"/>
	<path fill="#A80030" d="M253.094,17.491c2.615,0.468,5.656,0.826,5.217,1.455C261.182,18.312,261.83,17.742,253.094,17.491z"/>
	<polygon fill="#A80030" points="258.191,19.169 258.312,18.946 256.475,19.33 	"/>
	<path fill="#A80030" d="M251.826,199.846c0.027-0.076,0.053-0.152,0.072-0.229C251.846,199.678,251.822,199.755,251.826,199.846z"
		/>
	<path fill="#A80030" d="M251.523,201.518c-7.051-3.299-13.504-8.285-18.816-14.386c2.822,4.119,5.861,8.127,9.793,11.275
		c-6.654-2.245-15.537-16.11-18.125-16.675c11.461,20.521,46.492,35.988,64.848,28.313c-8.496,0.316-19.277,0.175-28.814-3.354
		c-3.686-1.89-8.547-5.624-8.582-6.847C251.645,200.323,251.336,200.8,251.523,201.518z"/>
	<path fill="#A80030" d="M357.156,119.344c0.078-4.503,1.254-2.36,1.703-3.468c-0.877-0.51-3.197-3.958-4.602-10.571
		c1.012-1.56,2.729,4.027,4.117,4.255c-0.896-5.258-2.434-9.267-2.5-13.306c-4.064-8.492-1.439,1.134-4.73-3.647
		c-4.33-13.488,3.586-3.129,4.125-9.255c6.551,9.492,10.285,24.217,12.01,30.314c-1.314-7.433-3.428-14.639-6.016-21.61
		c1.998,0.846-3.211-15.287,2.594-4.605c-6.193-22.775-26.49-44.057-45.166-54.037c2.281,2.089,5.162,4.712,4.135,5.125
		c-9.293-5.527-7.664-5.964-8.992-8.297c-7.562-3.079-8.064,0.252-13.066,0.009c-14.264-7.57-17.012-6.767-30.139-11.502
		l0.596,2.792c-9.447-3.145-11.008,1.187-21.215,0.006c-0.621-0.48,3.271-1.755,6.479-2.216c-9.137,1.204-8.711-1.807-17.648,0.33
		c2.199-1.547,4.535-2.573,6.881-3.885c-7.445,0.454-17.785,4.336-14.596,0.8c-12.146,5.425-33.727,13.034-45.84,24.39l-0.381-2.542
		c-5.547,6.661-24.197,19.894-25.684,28.526l-1.484,0.346c-2.883,4.887-4.752,10.428-7.043,15.455
		c-3.775,6.438-5.537,2.479-4.998,3.488c-7.428,15.057-11.123,27.709-14.305,38.092c2.268,3.392,0.053,20.436,0.908,34.073
		c-3.725,67.368,47.281,132.773,103.033,147.871c8.174,2.929,20.324,2.824,30.66,3.112c-12.193-3.49-13.768-1.845-25.65-5.988
		c-8.57-4.038-10.447-8.646-16.518-13.917l2.404,4.245c-11.902-4.211-6.924-5.214-16.611-8.278l2.568-3.346
		c-3.859-0.295-10.221-6.502-11.961-9.947l-4.223,0.167c-5.07-6.251-7.777-10.767-7.574-14.263l-1.365,2.433
		c-1.543-2.654-18.662-23.474-9.783-18.628c-1.648-1.502-3.842-2.45-6.219-6.773l1.807-2.062
		c-4.266-5.502-7.863-12.547-7.586-14.897c2.277,3.077,3.857,3.654,5.424,4.183c-10.791-26.772-11.396-1.474-19.566-27.253
		l1.727-0.134c-1.322-2.004-2.133-4.166-3.197-6.296l0.756-7.493c-7.766-8.971-2.17-38.186-1.047-54.205
		c0.771-6.513,6.484-13.449,10.822-24.324l-2.643-0.455c5.057-8.812,28.863-35.409,39.895-34.044
		c5.342-6.713-1.062-0.03-2.107-1.714c11.734-12.144,15.424-8.58,23.344-10.767c8.537-5.066-7.328,1.982-3.283-1.931
		c14.768-3.767,10.463-8.573,29.721-10.485c2.035,1.152-4.713,1.784-6.404,3.283c12.297-6.021,38.922-4.646,56.225,3.34
		c20.057,9.383,42.607,37.1,43.502,63.18l1.012,0.271c-0.51,10.37,1.588,22.362-2.057,33.373l2.463-5.217
		c0.295,7.923-2.312,11.772-4.668,18.58l-4.24,2.11c-3.465,6.734,0.346,4.276-2.139,9.629c-5.416,4.812-16.416,15.049-19.939,15.986
		c-2.572-0.053,1.742-3.035,2.307-4.2c-7.244,4.973-5.812,7.465-16.893,10.49l-0.324-0.727
		c-27.316,12.857-65.262-12.611-64.766-47.36c-0.287,2.204-0.828,1.653-1.432,2.539c-1.408-17.875,8.256-35.828,24.562-43.174
		c15.945-7.887,34.641-4.655,46.057,6.002c-6.27-8.218-18.762-16.932-33.555-16.124c-14.496,0.235-28.062,9.445-32.586,19.45
		c-7.428,4.673-8.291,18.023-11.525,20.471c-4.359,32.004,8.188,45.825,29.416,62.094c1.715,1.159,1.908,1.812,1.758,2.407
		c0.012-0.014,0.012-0.034,0.027-0.047c25.039,9.348,50.898,7.077,72.562-10.29c5.514-4.293,11.535-11.596,13.275-11.698
		c-2.619,3.946,0.449,1.896-1.564,5.377c5.486-8.856-2.389-3.608,5.674-15.295l2.979,4.099c-1.115-7.358,9.133-16.282,8.09-27.914
		c2.35-3.555,2.619,3.833,0.127,12.009c3.459-9.072,0.916-10.529,1.801-18.023c0.953,2.521,2.223,5.194,2.869,7.852
		c-2.254-8.77,2.305-14.765,3.439-19.863C360.057,125.329,357.699,129.696,357.156,119.344z"/>
	<path fill="#A80030" d="M217.502,180.074c3.223,4.378,5.781,9.119,9.889,12.527c-2.959-5.765-5.152-8.149-9.197-15.96
		L217.502,180.074z"/>
	<path fill="#A80030" d="M225.803,176.347c-1.703-1.889-2.707-4.161-3.844-6.418c1.084,3.971,3.299,7.385,5.357,10.863
		L225.803,176.347z"/>
	<path fill="#A80030" d="M351.27,176.119c4.826-9.072,7.939-19,9.258-29.058l-0.717,1.809
		C358.494,158.242,355.637,167.518,351.27,176.119z"/>
	<path fill="#A80030" d="M265.73,13.678c-4.586,0.384-9.146,0.611-13.648,1.188l1.984,0.274
		C257.379,13.931,262.207,14.475,265.73,13.678z"/>
	<path fill="#A80030" d="M137.777,77.339c-0.01-0.115-0.016-0.229-0.027-0.348C137.748,77.127,137.76,77.238,137.777,77.339z"/>
	<path fill="#A80030" d="M139.094,82.138c3.408-7.673-0.943-2.736-1.316-4.799C138.311,84.144,132.549,86.724,139.094,82.138z"/>
	<path fill="#A80030" d="M129.92,109.701c1.537-4.711,1.812-7.542,2.398-10.27C128.078,104.856,130.365,106.012,129.92,109.701z"/>
	<path fill="#A80030" d="M132.529,371.903c-5.467,2.588-10.184,4.26-20.514,5.169c4.102,4.406,4.102,6.687,4.102,26.737
		c-2.881-0.906-6.533-1.973-12.764-1.973c-27.199,0.003-31.605,23.706-31.605,41.34c0,42.848,22.795,42.848,26.135,42.848
		c9.422,0,15.504-5.169,18.084-14.129l0.305,13.521c2.889-0.154,5.773-0.458,10.484-0.458c1.672,0,3.035,0,4.256,0.157
		c1.217,0,2.428,0.146,3.799,0.301c-2.432-4.861-4.256-15.801-4.256-39.512C130.555,422.809,130.555,383.759,132.529,371.903z
		 M115.357,456.243c-0.301,5.161-0.758,16.254-11.697,16.254c-11.246,0-13.982-12.918-14.891-18.534
		c-1.064-6.229-1.064-11.401-1.064-13.675c0-7.295,0.455-27.662,17.627-27.662c5.168,0,8.055,1.523,10.33,2.734l0.15,9.883
		C115.662,425.396,115.662,449.856,115.357,456.243z"/>
	<path fill="#A80030" d="M169.197,401.687c-30.996,0-30.996,34.349-30.996,41.637c0,30.843,13.828,42.999,37.076,42.999
		c10.326,0,15.348-1.512,18.082-2.277c-0.15-5.47,0.605-8.966,1.523-13.675c-3.195,1.979-7.297,4.608-16.414,4.608
		c-23.705,0-24.012-21.979-24.012-28.979h40.426l0.295-9.008C195.178,419.212,191.688,401.687,169.197,401.687z M180.137,435
		h-25.982c0.154-12,2.74-23.857,13.525-23.857C179.535,411.143,180.438,425,180.137,435z"/>
	<path fill="#A80030" d="M237.328,401.84c-14.59,0-18.842,12.157-21.119,18.388c0-7.749,0.146-34.797,1.359-48.625
		c-9.873,4.561-15.963,5.315-22.488,5.924c5.924,2.429,5.92,12.465,5.92,45.136V460h0.006c0,11,0,17.646-1.822,22.507
		c6.23,2.431,13.977,3.806,23.25,3.806c5.924,0,23.096,0.005,32.363-18.985c4.406-8.816,5.924-20.666,5.924-29.63
		c0-5.473-0.607-17.471-5.014-25.072C251.457,405.489,244.617,401.84,237.328,401.84z M224.406,476.603
		c-2.434,0-5.471-0.46-7.441-0.915c-0.305-5.47-0.305-14.892-0.305-25.831c0-13.073,1.363-19.899,2.43-23.25
		c3.189-10.785,10.332-10.933,11.695-10.933c11.549,0,13.828,15.955,13.828,27.804C244.613,457.606,242.033,476.603,224.406,476.603
		z"/>
	<path fill="#A80030" d="M287.039,421.134c0-10.174,0.16-13.526,1.369-20.207c-5.771,2.734-9.266,3.646-21.723,4.861
		c2.125,1.518,3.49,2.424,4.252,8.204c1.062,7.6,0.908,43.764,0.301,57.292c-0.455,9.873-1.062,11.243-2.582,14.132
		c3.492-0.455,6.842-0.763,11.695-0.763c4.406,0,6.539,0.305,9.582,0.763C286.584,479.184,286.738,473.567,287.039,421.134z"/>
	<path fill="#A80030" d="M353.332,455.781l0.154-30.996c0-11.554-3.043-22.948-25.838-22.948c-15.039,0-23.852,4.56-28.258,6.84
		c1.826,3.346,3.346,6.222,4.711,12.768c5.93-5.167,13.68-7.903,21.574-7.903c12.621,0,12.621,8.358,12.621,20.207
		c-2.889-0.149-5.322-0.452-9.428-0.452c-19.305,0.005-32.068,7.439-32.068,27.807c0,9.576,2.887,19.145,11.402,23.25
		c3.795,1.672,7.594,1.672,8.812,1.672c13.982,0,18.689-10.337,21.578-16.717c-0.152,6.687,0,10.785,0.455,16.108
		c2.734-0.154,5.471-0.458,10.033-0.458c2.582,0,5.012,0.304,7.594,0.458c-1.672-2.581-2.582-4.106-3.043-10.033
		C353.332,469.612,353.332,463.839,353.332,455.781z M335.549,463.781c-3.193,6.84-8.51,8.916-12.457,8.916
		c-9.127,0-11.096-7.749-11.096-15.191c0-14.283,12.768-15.506,18.535-15.506h8.061C338.291,452,338.137,458.467,335.549,463.781z"
		/>
	<path fill="#A80030" d="M426,470.37v-45.749c0-9.109-0.244-22.94-19.242-22.94c-15.197,0-18.758,10.483-20.758,15.2v-16.102
		c-4,1.97-7.75,3.945-20.061,4.559c1.666,1.518,3.188,2.881,3.944,8.812c1.377,9.72,0.772,50.751,0.462,59.109
		c-0.301,8.506-0.909,9.723-1.974,12.157c3.033-0.458,5.464-0.605,9.114-0.605c4.559,0,7.748,0.305,10.328,0.605
		c-1.518-5.323-1.519-7.142-1.665-26.592c0-22.488,0.001-28.266,1.212-33.581c1.064-5.168,3.951-11.549,12.609-11.549
		c8.822,0,9.42,6.992,9.721,9.568c0.465,3.646,0.309,13.982,0.309,21.124v16.409c0,4.104-0.148,15.81-0.607,19.297
		c-0.301,2.588-0.534,3.351-1.138,5.323c2.891-0.452,4.903-0.76,8.554-0.76c6.223,0,8.161,0.459,11.507,0.76
		C426.192,481.01,426,475.539,426,470.37z"/>
	<polygon fill="#A80030" points="266.051,379.423 278.629,392.003 291.215,379.423 278.629,366.845 	"/>
</g>
</svg>
