<svg xmlns="http://www.w3.org/2000/svg" viewBox="0 0 128 128"><path fill="#A80030" d="M76.77 68.974a27.05 27.05 0 002.008-1.729c-1.667.408-3.363.417-5.073.261-2.049.028.388 1.056 3.065 1.468zm7.94-4.212c1.222-1.685 2.111-3.53 2.425-5.438-.274 1.359-1.011 2.534-1.707 3.773-3.833 2.414-.36-1.433-.002-2.895-4.12 5.188-.566 3.111-.716 4.56zm4.063-10.57c.248-3.693-.727-2.525-1.055-1.117.383.199.685 2.603 1.055 1.117zM65.93 3.722c1.094.196 2.365.347 2.186.608 1.197-.262 1.469-.504-2.186-.608zm2.133.704l.053-.095-.773.159zM65.27 80.73c-2.951-1.381-5.653-3.468-7.874-6.021 1.178 1.726 2.451 3.403 4.096 4.721-2.783-.942-6.499-6.742-7.584-6.978 4.796 8.587 19.457 15.059 27.135 11.848-3.553.13-8.065.073-12.057-1.402-1.536-.791-3.573-2.355-3.589-2.869-.077.201-.206.4-.127.701zm.156-.797l-.03.097.03-.097zm44.049-33.588c.033-1.882.523-.986.713-1.449-.37-.213-1.339-1.656-1.93-4.424.428-.651 1.143 1.686 1.726 1.781-.375-2.201-1.02-3.878-1.045-5.568-1.7-3.553-.602.474-1.981-1.525-1.81-5.646 1.502-1.311 1.725-3.875 2.743 3.974 4.308 10.134 5.026 12.685-.549-3.11-1.433-6.123-2.514-9.04.833.352-1.342-6.399 1.083-1.929-2.591-9.531-11.085-18.436-18.901-22.614.956.875 2.164 1.975 1.73 2.146-3.887-2.314-3.204-2.495-3.76-3.472-3.167-1.288-3.375.103-5.472.002-5.968-3.165-7.118-2.829-12.611-4.813l.251 1.168c-3.955-1.317-4.607.5-8.88.004-.261-.203 1.369-.735 2.71-.93-3.823.504-3.644-.753-7.384.139.921-.646 1.896-1.075 2.879-1.625-3.116.189-7.441 1.814-6.106.336C51.65 5.613 42.619 8.798 37.551 13.55l-.159-1.065C35.07 15.272 27.266 20.81 26.645 24.42l-.621.145c-1.209 2.046-1.991 4.365-2.949 6.47-1.581 2.693-2.317 1.036-2.091 1.459-3.109 6.302-4.653 11.598-5.986 15.94.951 1.421.022 8.553.382 14.26-1.561 28.19 19.784 55.559 43.115 61.879 3.42 1.222 8.506 1.176 12.832 1.302-5.105-1.46-5.765-.773-10.735-2.508-3.587-1.689-4.373-3.617-6.914-5.821l1.006 1.777c-4.982-1.763-2.897-2.182-6.951-3.466l1.074-1.402c-1.615-.123-4.277-2.721-5.004-4.161l-1.767.069c-2.122-2.618-3.253-4.505-3.171-5.967l-.571 1.018c-.647-1.111-7.807-9.822-4.092-7.793-.691-.632-1.608-1.028-2.603-2.835l.756-.865c-1.788-2.299-3.291-5.249-3.177-6.231.954 1.289 1.616 1.529 2.271 1.75-4.515-11.204-4.768-.618-8.188-11.405l.723-.058c-.555-.836-.891-1.743-1.337-2.633l.314-3.138c-3.25-3.759-.91-15.982-.44-22.686.325-2.727 2.713-5.628 4.529-10.178l-1.106-.191c2.115-3.69 12.079-14.82 16.693-14.247 2.235-2.809-.443-.01-.88-.718 4.91-5.082 6.453-3.591 9.767-4.504 3.573-2.121-3.066.827-1.373-.809 6.178-1.578 4.378-3.587 12.438-4.388.851.484-1.973.747-2.682 1.375 5.148-2.518 16.289-1.946 23.525 1.397 8.397 3.925 17.832 15.525 18.204 26.439l.423.113c-.213 4.339.665 9.356-.858 13.965l1.037-2.182c.121 3.316-.971 4.925-1.955 7.773l-1.772.884c-1.45 2.817.14 1.789-.897 4.03-2.265 2.013-6.871 6.298-8.345 6.689-1.077-.024.729-1.269.964-1.759-3.029 2.082-2.431 3.125-7.065 4.39l-.136-.302C71.6 82.675 55.72 72.017 55.93 57.475c-.123.924-.347.692-.601 1.067-.589-7.483 3.456-14.998 10.278-18.065 6.674-3.305 14.497-1.948 19.276 2.507-2.625-3.44-7.851-7.085-14.046-6.744-6.066.096-11.742 3.952-13.636 8.137-3.109 1.957-3.469 7.544-4.824 8.565-1.822 13.394 3.428 19.179 12.309 25.985.718.484.801.757.739 1.005l.011-.02c10.477 3.915 21.301 2.966 30.366-4.302 2.306-1.796 4.825-4.852 5.553-4.895-1.096 1.649.188.793-.655 2.249 2.298-3.707-.999-1.509 2.375-6.401l1.247 1.716c-.463-3.075 3.819-6.812 3.385-11.676.982-1.488 1.097 1.601.053 5.024 1.446-3.798.381-4.408.754-7.542.401 1.053.928 2.173 1.199 3.284-.943-3.67.967-6.181 1.439-8.313-.462-.204-1.451 1.624-1.677-2.711zM51.037 71.758c1.348 1.831 2.417 3.814 4.138 5.245-1.238-2.417-2.157-3.415-3.85-6.683l-.288 1.438zm3.473-1.563c-.713-.789-1.136-1.738-1.608-2.685.453 1.663 1.377 3.091 2.239 4.545l-.631-1.86zm52.5-.093a35.857 35.857 0 003.875-12.16l-.302.756a36.496 36.496 0 01-3.573 11.404zM71.214 2.126c-1.917.161-3.825.257-5.709.499l.83.114c1.387-.509 3.408-.279 4.879-.613zM18.227 30.775c1.424-3.207-.395-1.149-.552-2.007.221 2.846-2.19 3.924.552 2.007zm-2.838 7.237c-1.775 2.269-.817 2.752-1.004 4.296.642-1.972.76-3.156 1.004-4.296z"/></svg>