<?xml version="1.0" encoding="utf-8"?>
<!-- Generator: Adobe Illustrator 16.0.0, SVG Export Plug-In . SVG Version: 6.00 Build 0)  -->
<!DOCTYPE svg PUBLIC "-//W3C//DTD SVG 1.1//EN" "http://www.w3.org/Graphics/SVG/1.1/DTD/svg11.dtd">
<svg version="1.1" id="Layer_1" xmlns="http://www.w3.org/2000/svg" xmlns:xlink="http://www.w3.org/1999/xlink" x="0px" y="0px"
	 width="500px" height="500px" viewBox="0 0 500 500" enable-background="new 0 0 500 500" xml:space="preserve">
<g>
	<path fill="#A80030" d="M295.08,267.56c2.612-2.037,4.979-4.099,7.089-6.104c-5.885,1.439-11.872,1.471-17.906,0.92
		C277.024,262.478,285.632,266.104,295.08,267.56z"/>
	<path fill="#A80030" d="M323.111,252.69c4.312-5.947,7.454-12.462,8.56-19.196c-0.967,4.799-3.571,8.945-6.025,13.319
		c-13.529,8.521-1.271-5.059-0.008-10.22C311.091,254.909,323.639,247.577,323.111,252.69z"/>
	<path fill="#A80030" d="M337.454,215.376c0.873-13.036-2.568-8.914-3.726-3.941C335.077,212.139,336.147,220.623,337.454,215.376z"
		/>
	<path fill="#A80030" d="M256.813,37.213c3.862,0.692,8.347,1.226,7.717,2.147C268.756,38.435,269.716,37.581,256.813,37.213z"/>
	<polygon fill="#A80030" points="264.343,39.699 264.53,39.36 261.801,39.923 	"/>
	<path fill="#A80030" d="M254.484,309.061c-10.417-4.878-19.956-12.242-27.796-21.258c4.158,6.094,8.65,12.014,14.457,16.667
		c-9.822-3.328-22.941-23.799-26.773-24.633c16.932,30.313,68.687,53.16,95.789,41.827c-12.54,0.46-28.471,0.256-42.562-4.952
		c-5.422-2.791-12.612-8.312-12.671-10.125C254.662,307.293,254.204,307.999,254.484,309.061z"/>
	<path fill="#A80030" d="M255.035,306.244c-0.079,0.091-0.112,0.207-0.107,0.342C254.97,306.473,255.007,306.359,255.035,306.244z"
		/>
	<path fill="#A80030" d="M410.53,187.679c0.117-6.645,1.849-3.481,2.518-5.118c-1.307-0.751-4.729-5.845-6.813-15.616
		c1.511-2.298,4.036,5.951,6.093,6.29c-1.321-7.77-3.6-13.693-3.689-19.657c-6.002-12.544-2.124,1.672-6.994-5.385
		c-6.389-19.929,5.303-4.626,6.09-13.678c9.685,14.027,15.207,35.773,17.74,44.777c-1.936-10.979-5.059-21.615-8.874-31.91
		c2.942,1.239-4.736-22.591,3.823-6.81c-9.146-33.645-39.132-65.079-66.723-79.83c3.375,3.088,7.639,6.971,6.109,7.576
		c-13.721-8.17-11.311-8.806-13.273-12.257c-11.18-4.548-11.91,0.365-19.314,0.008c-21.068-11.174-25.128-9.986-44.518-16.988
		l0.886,4.123c-13.961-4.649-16.263,1.764-31.348,0.016c-0.921-0.718,4.835-2.595,9.567-3.283
		c-13.493,1.78-12.863-2.659-26.065,0.49c3.253-2.283,6.691-3.794,10.165-5.735c-11.003,0.669-26.27,6.404-21.557,1.188
		c-17.949,8.01-49.828,19.252-67.719,36.027l-0.562-3.761c-8.197,9.842-35.746,29.389-37.94,42.134l-2.19,0.512
		c-4.269,7.222-7.026,15.408-10.409,22.839c-5.578,9.508-8.179,3.658-7.384,5.149c-10.975,22.248-16.423,40.941-21.131,56.271
		c3.354,5.016,0.078,30.191,1.349,50.34c-5.511,99.511,69.839,196.126,152.202,218.438c12.072,4.315,30.025,4.15,45.297,4.595
		c-18.021-5.153-20.35-2.729-37.897-8.851c-12.663-5.964-15.437-12.769-24.405-20.55l3.553,6.271
		c-17.588-6.223-10.228-7.702-24.539-12.233l3.793-4.949c-5.7-0.433-15.098-9.605-17.666-14.688l-6.235,0.244
		c-7.493-9.244-11.486-15.904-11.195-21.064l-2.015,3.591c-2.285-3.922-27.562-34.671-14.447-27.512
		c-2.439-2.23-5.677-3.627-9.189-10.008l2.671-3.053c-6.313-8.119-11.616-18.531-11.215-21.997c3.367,4.548,5.704,5.397,8.017,6.176
		c-15.939-39.549-16.832-2.179-28.904-40.257l2.553-0.205c-1.959-2.95-3.146-6.152-4.721-9.295l1.109-11.077
		c-11.475-13.269-3.21-56.417-1.554-80.082c1.148-9.626,9.579-19.869,15.99-35.931l-3.905-0.673
		c7.469-13.028,42.641-52.317,58.93-50.296c7.891-9.913-1.565-0.035-3.107-2.533c17.332-17.938,22.78-12.675,34.479-15.9
		c12.615-7.489-10.825,2.919-4.846-2.855c21.809-5.57,15.455-12.662,43.908-15.491c3.001,1.708-6.967,2.636-9.469,4.854
		c18.174-8.89,57.502-6.868,83.048,4.933c29.644,13.854,62.946,54.805,64.261,93.331l1.494,0.401
		c-0.754,15.317,2.346,33.027-3.028,49.297l3.658-7.702c0.429,11.707-3.427,17.387-6.899,27.441l-6.259,3.123
		c-5.118,9.944,0.495,6.313-3.167,14.225c-7.992,7.104-24.254,22.233-29.459,23.614c-3.8-0.083,2.572-4.48,3.406-6.208
		c-10.695,7.349-8.583,11.03-24.943,15.495l-0.479-1.066c-40.356,18.984-96.411-18.638-95.671-69.973
		c-0.434,3.262-1.225,2.443-2.121,3.765c-2.08-26.414,12.199-52.943,36.281-63.772c23.559-11.664,51.173-6.876,68.049,8.851
		c-9.268-12.144-27.717-25.011-49.584-23.807c-21.416,0.338-41.453,13.949-48.137,28.724c-10.976,6.908-12.246,26.631-17.029,30.238
		c-6.432,47.279,12.1,67.703,43.451,91.729c2.533,1.708,2.827,2.672,2.608,3.549c0.018-0.02,0.018-0.05,0.039-0.067
		c36.985,13.819,75.192,10.468,107.193-15.188c8.143-6.342,17.036-17.128,19.605-17.277c-3.87,5.822,0.661,2.801-2.313,7.938
		c8.115-13.083-3.523-5.326,8.387-22.595l4.402,6.058c-1.637-10.857,13.484-24.047,11.95-41.221
		c3.47-5.252,3.871,5.652,0.188,17.736c5.106-13.406,1.346-15.562,2.66-26.623c1.416,3.718,3.276,7.671,4.232,11.593
		c-3.328-12.954,3.414-21.816,5.082-29.346C414.821,196.525,411.329,202.98,410.53,187.679z"/>
	<path fill="#A80030" d="M204.239,277.387c4.756,6.463,8.532,13.465,14.605,18.516c-4.37-8.532-7.615-12.057-13.59-23.591
		L204.239,277.387z"/>
	<path fill="#A80030" d="M216.501,271.871c-2.518-2.785-4.009-6.137-5.677-9.476c1.597,5.868,4.862,10.911,7.903,16.041
		L216.501,271.871z"/>
	<path fill="#A80030" d="M401.829,271.541c7.131-13.406,11.742-28.071,13.677-42.925l-1.065,2.667
		C412.493,245.13,408.284,258.835,401.829,271.541z"/>
	<path fill="#A80030" d="M275.467,31.578c-6.767,0.568-13.501,0.906-20.152,1.764l2.931,0.399
		C263.139,31.947,270.274,32.758,275.467,31.578z"/>
	<path fill="#A80030" d="M88.415,132.713c5.025-11.32-1.392-4.059-1.948-7.084C87.246,135.675,78.737,139.479,88.415,132.713z"/>
	<path fill="#A80030" d="M78.4,158.259c-6.267,8.009-2.884,9.716-3.544,15.168C77.122,166.464,77.535,162.286,78.4,158.259z"/>
</g>
</svg>
