<svg xmlns="http://www.w3.org/2000/svg" fill="none" viewBox="0 0 128 128"><path d="M78.075 69.24c9.505-3.51 14.51-13.887 11.182-23.173C85.93 36.78 75.526 32.098 66.022 35.61c-9.504 3.512-14.51 13.886-11.181 23.173 3.328 9.287 13.732 13.968 23.234 10.457z" fill="#FF7F0E"/><path d="M81.568 78.614c14.675-5.422 22.405-21.443 17.265-35.784-5.139-14.34-21.202-21.568-35.877-16.146C48.28 32.107 40.55 48.129 45.69 62.469c5.139 14.34 21.202 21.569 35.878 16.146z" stroke="#2C7FB8" stroke-width="6.55" stroke-miterlimit="0" stroke-linecap="round"/><path d="M96.067 122.84c7.945-2.935 12.13-11.608 9.346-19.372-2.781-7.763-11.478-11.676-19.422-8.74-7.945 2.935-12.13 11.608-9.347 19.372 2.782 7.763 11.477 11.676 19.423 8.74z" stroke="#2C7FB8" stroke-width="4.682" stroke-miterlimit="0" stroke-linecap="round"/><path d="M25.428 81.36c5.69-2.103 8.687-8.315 6.694-13.875-1.992-5.56-8.22-8.364-13.912-6.261-5.69 2.103-8.687 8.315-6.694 13.875 1.993 5.56 8.222 8.364 13.912 6.261z" stroke="#2C7FB8" stroke-width="3.354" stroke-miterlimit="0" stroke-linecap="round"/><path d="m31.72 67.633 11.75-4.342" stroke="#2C7FB8" stroke-width="5.366"/><path d="m81.556 78.58 5.746 16.031" stroke="#2C7FB8" stroke-width="7.492"/><path d="M117.586 22.827c-4.502 4.062-11.398 3.83-15.4-.518-4.001-4.348-3.596-11.163.908-15.225 4.503-4.06 11.398-3.829 15.4.518 4.002 4.348 3.595 11.164-.908 15.225z" stroke="#2C7FB8" stroke-width="3.354" stroke-miterlimit="0" stroke-linecap="round"/><path d="m102.5 22.004-9.304 8.38" stroke="#2C7FB8" stroke-width="5.366"/><path d="M62.393 96.508c3.842.627 6.365 4.221 5.634 8.026-.731 3.807-4.44 6.384-8.282 5.757-3.843-.627-6.366-4.221-5.635-8.026.731-3.807 4.44-6.384 8.283-5.757z" stroke="#2C7FB8" stroke-width="2.176" stroke-miterlimit="0" stroke-linecap="round"/><path d="m67.757 104.49 7.937 1.293" stroke="#2C7FB8" stroke-width="3.482"/><path d="M19.903 44.56c1.281 3.613-.679 7.638-4.375 8.99-3.698 1.353-7.733-.48-9.014-4.094s.679-7.638 4.377-8.99c3.696-1.353 7.732.481 9.013 4.094z" stroke="#2C7FB8" stroke-width="2.176" stroke-miterlimit="0" stroke-linecap="round"/><path d="m15.437 53.295 2.645 7.46" stroke="#2C7FB8" stroke-width="3.482"/><path d="M111.732 76.297a6.667 6.77 0 0 1-3.332-9.232c1.689-3.52 5.919-5.093 9.449-3.514a6.668 6.77 0 0 1 3.331 9.232c-1.688 3.52-5.918 5.093-9.448 3.514z" stroke="#2C7FB8" stroke-width="2.176" stroke-miterlimit="0" stroke-linecap="round"/><path d="m108.649 67.177-7.289-3.26" stroke="#2C7FB8" stroke-width="3.482"/><path d="M93.914 116.833c4.549-1.681 6.945-6.648 5.351-11.092-1.594-4.446-6.572-6.686-11.121-5.005-4.549 1.68-6.945 6.647-5.353 11.091 1.594 4.446 6.574 6.686 11.121 5.006zM23.918 77.15c3.312-1.224 5.054-4.837 3.895-8.072-1.16-3.234-4.783-4.866-8.092-3.642-3.312 1.224-5.055 4.837-3.896 8.071 1.16 3.236 4.783 4.866 8.093 3.643zM112.44 20.8c3.31-1.223 5.054-4.837 3.894-8.07-1.16-3.236-4.782-4.866-8.092-3.643-3.311 1.223-5.054 4.837-3.896 8.072 1.16 3.235 4.783 4.866 8.094 3.642z" fill="#FF7F0E"/><path d="m111.487 76.979-10.353 18" stroke="#2C7FB8" stroke-width="3.482"/></svg>

