<svg xmlns="http://www.w3.org/2000/svg" viewBox="0 0 128 128"><path d="M32.332 21.426a12.54 12.54 0 0 0-8.855 3.676l20.488 22.515-20.488 22.52a12.3 12.3 0 0 0 8.855 3.75 12.28 12.28 0 0 0 9.156-4.051l11.336-12.461 8.856-9.758-8.856-9.68-11.336-12.46a12.28 12.28 0 0 0-9.156-4.051Zm63.23 0a12.28 12.28 0 0 0-9.156 4.05L75.07 37.939l-8.855 9.68 8.855 9.757 11.336 12.46a12.28 12.28 0 0 0 9.156 4.052 12.3 12.3 0 0 0 8.856-3.75L83.93 47.617l20.488-22.515a12.54 12.54 0 0 0-8.856-3.676Zm0 0" style="fill:#e57000"/><path d="m72.02 36.453-8.082 8.906-8.086-8.91-18.7-20.55a11.444 11.444 0 0 1 8.082-3.356c3.36 0 6.164 1.371 8.29 3.7l10.413 11.37 10.344-11.37a11.212 11.212 0 0 1 8.36-3.7c3.148 0 6.027 1.3 8.082 3.355Zm0 22.328-8.082-8.906-8.083 8.906-18.703 20.555a11.451 11.451 0 0 0 8.082 3.355c3.36 0 6.168-1.37 8.29-3.699l10.413-11.375 10.344 11.375a11.226 11.226 0 0 0 8.36 3.7c3.152 0 6.027-1.305 8.082-3.356Zm-70.594 41.32a1.408 1.408 0 0 0-1 .43A1.443 1.443 0 0 0 0 101.547v13.906c1.082-.027 1.98-.402 2.7-1.121.714-.723 1.09-1.629 1.116-2.719h7.676c1.09-.027 2-.398 2.727-1.12.726-.72 1.105-1.626 1.133-2.716v-3.816c-.028-1.09-.407-2-1.133-2.727-.727-.726-1.637-1.105-2.727-1.132Zm17.562 0a1.407 1.407 0 0 0-1.011.43 1.45 1.45 0 0 0-.415 1.016v13.906c1.083-.027 1.985-.402 2.708-1.121.726-.723 1.101-1.629 1.128-2.719v-.965h4.364l2.215 3.16c.355.508.804.91 1.34 1.2.554.297 1.171.449 1.796.445.32 0 .633-.039.93-.113.3-.074.582-.184.848-.324l-3.09-4.41a3.851 3.851 0 0 0 2.203-1.317c.57-.687.867-1.504.887-2.453v-2.875c-.028-1.09-.403-2-1.121-2.727-.723-.726-1.625-1.105-2.715-1.132Zm19.93 0c-1.09.028-1.996.407-2.715 1.133-.723.727-1.098 1.637-1.121 2.727v7.652c.023 1.09.398 1.996 1.121 2.719.719.719 1.625 1.094 2.715 1.121h7.652c1.09-.027 1.996-.402 2.72-1.121.718-.723 1.093-1.629 1.12-2.719v-7.652c-.027-1.09-.402-2-1.12-2.727-.724-.726-1.63-1.105-2.72-1.132Zm34.488 0c-.8 0-1.445.649-1.445 1.446v13.906c1.078-.027 1.98-.402 2.707-1.121.723-.723 1.102-1.629 1.129-2.719v-7.343c.387-.332.441-.31.496-.274a.306.306 0 0 1 .117.117l4.254 9.387c.164.34.504.563.879.57.18 0 .36-.05.512-.148.152-.102.28-.238.363-.399l4.258-9.41c.582-.027.61.055.613.157v7.343c.027 1.09.402 1.996 1.129 2.719.723.719 1.625 1.094 2.707 1.121v-13.906c0-.379-.148-.746-.418-1.02a1.397 1.397 0 0 0-1.008-.425h-2.41c-.75 0-1.484.222-2.11.64a3.953 3.953 0 0 0-1.398 1.66l.02-.043-2.258 4.957-2.238-4.957v.043a3.835 3.835 0 0 0-3.508-2.3Zm23.766 0c-1.094.028-2 .407-2.719 1.133-.719.727-1.094 1.637-1.121 2.727v7.652c.027 1.09.402 1.996 1.121 2.719.719.719 1.625 1.094 2.719 1.121h7.652c1.09-.027 1.996-.402 2.715-1.121.723-.723 1.094-1.629 1.121-2.719v-7.652c-.027-1.09-.398-2-1.12-2.727-.72-.726-1.626-1.105-2.716-1.132Zm-41.984.024a3.55 3.55 0 0 0-1.426.29 3.72 3.72 0 0 0-1.164.78l5.988 6.582-5.988 6.578a3.63 3.63 0 0 0 2.59 1.098 3.647 3.647 0 0 0 2.675-1.183l3.309-3.641 3.312 3.64a3.612 3.612 0 0 0 5.266.086l-5.988-6.578 5.988-6.578a3.667 3.667 0 0 0-1.164-.785 3.63 3.63 0 0 0-4.102.89l-3.312 3.645-3.332-3.644a3.608 3.608 0 0 0-1.18-.871 3.537 3.537 0 0 0-1.472-.313Zm58.25 0c-.508 0-.981.098-1.426.29a3.66 3.66 0 0 0-1.16.78l5.988 6.582-5.988 6.578c.68.7 1.613 1.094 2.585 1.098a3.64 3.64 0 0 0 2.676-1.183l3.313-3.641 3.308 3.64a3.612 3.612 0 0 0 5.266.086l-5.988-6.578L128 101.2a3.639 3.639 0 0 0-4.082-.754c-.45.203-.852.496-1.18.86l-3.312 3.644-3.332-3.644a3.75 3.75 0 0 0-1.18-.871 3.568 3.568 0 0 0-1.477-.313ZM10.57 103.957c.059 0 .207.035.45.121.277.098.433.375.472.824v2.391c.02.043-.02.203-.117.484-.098.282-.375.442-.824.48H3.816v-4.296h6.754Zm17.54 0c.062 0 .214.035.46.121.282.098.442.375.485.824v1.45c.02.039-.024.195-.121.468-.102.278-.383.434-.844.473h-6.692v-3.332h6.711Zm17.519 0c.059 0 .215.035.46.121.282.098.442.375.481.824v5.746c.02.04-.02.204-.12.485-.098.281-.38.441-.845.48h-5.722c-.04.024-.2-.02-.48-.117-.286-.105-.446-.387-.485-.848v-5.746c-.02-.039.02-.195.121-.468.102-.278.383-.434.844-.473h5.746Zm58.25 0c.062 0 .219.035.46.121.286.098.442.375.485.824v5.746c.02.04-.02.204-.12.485-.102.281-.384.441-.845.48h-5.722c-.043.024-.203-.02-.485-.117-.28-.105-.441-.387-.48-.848v-5.746c-.02-.039.02-.195.117-.468.102-.278.383-.434.848-.473h5.742Zm0 0"/></svg>
