<svg xmlns="http://www.w3.org/2000/svg" viewBox="0 0 128 128"><path fill="#e57000" d="M45.234 12.543a11.451 11.451 0 0 0-8.082 3.355l18.7 20.551 8.086 8.91 8.082-8.906 18.703-20.555a11.448 11.448 0 0 0-8.082-3.355 11.212 11.212 0 0 0-8.36 3.7l-10.344 11.37-10.414-11.37c-2.12-2.329-4.93-3.7-8.289-3.7Zm-12.902 8.879c-3.453 0-6.605 1.43-8.855 3.68l20.488 22.515-20.488 22.52a12.304 12.304 0 0 0 8.855 3.754c3.68 0 6.906-1.579 9.156-4.055l11.336-12.461 8.856-9.754-8.856-9.684-11.336-12.46c-2.25-2.477-5.476-4.055-9.156-4.055Zm63.23.004a12.28 12.28 0 0 0-9.156 4.05L75.07 37.939l-8.855 9.683 8.855 9.754 11.336 12.46c2.25 2.478 5.477 4.056 9.156 4.056 3.454 0 6.606-1.43 8.856-3.754L83.93 47.62l20.488-22.52a12.54 12.54 0 0 0-8.856-3.675ZM63.939 49.875l-8.083 8.906-18.703 20.555a11.451 11.451 0 0 0 8.082 3.355c3.36 0 6.168-1.37 8.29-3.699l10.413-11.375 10.344 11.375a11.226 11.226 0 0 0 8.36 3.7c3.152 0 6.027-1.305 8.082-3.356L72.02 58.78ZM1.425 100.102a1.42 1.42 0 0 0-1 .425 1.452 1.452 0 0 0-.426 1.02v13.906c1.082-.027 1.98-.402 2.7-1.121.714-.723 1.09-1.629 1.116-2.719h7.676c1.09-.027 2-.398 2.727-1.12.726-.72 1.105-1.626 1.133-2.716v-3.816c-.028-1.09-.407-2-1.133-2.727-.727-.726-1.637-1.105-2.727-1.132Zm17.562 0a1.42 1.42 0 0 0-1.011.425c-.266.274-.415.641-.415 1.02v13.906c1.083-.027 1.981-.402 2.708-1.121.722-.723 1.101-1.629 1.128-2.719v-.965h4.364l2.215 3.16c.355.508.804.91 1.34 1.2.554.297 1.171.449 1.796.445.32 0 .633-.039.93-.113.3-.074.582-.184.848-.324l-3.09-4.41a3.872 3.872 0 0 0 2.203-1.317c.57-.687.867-1.504.887-2.453v-2.875c-.028-1.09-.403-2-1.121-2.727-.723-.726-1.625-1.105-2.715-1.132Zm19.93 0c-1.09.027-1.996.406-2.715 1.132-.723.727-1.094 1.637-1.121 2.727v7.652c.027 1.09.398 1.996 1.121 2.719.719.719 1.625 1.094 2.715 1.121h7.652c1.09-.027 1.996-.402 2.72-1.121.718-.723 1.093-1.629 1.12-2.719v-7.652c-.027-1.09-.402-2-1.12-2.727-.724-.726-1.63-1.105-2.72-1.132Zm34.488 0c-.797 0-1.445.648-1.445 1.445v13.906c1.078-.027 1.98-.402 2.707-1.121.723-.723 1.102-1.629 1.129-2.719v-7.343a.346.346 0 0 1 .09-.243.362.362 0 0 1 .238-.09c.059 0 .113.024.168.06a.335.335 0 0 1 .117.116l4.254 9.387c.164.34.504.563.879.57.18 0 .36-.05.512-.148.152-.102.28-.238.363-.399l4.258-9.41a.462.462 0 0 1 .129-.117.35.35 0 0 1 .175-.058.3.3 0 0 1 .22.09c.058.058.085.14.09.242v7.343c.026 1.09.401 1.996 1.128 2.719.723.719 1.625 1.094 2.707 1.121v-13.906c0-.379-.148-.746-.414-1.02a1.412 1.412 0 0 0-1.012-.425h-2.41c-.75 0-1.484.222-2.11.64a3.977 3.977 0 0 0-1.39 1.645l-2.246 4.93-2.238-4.958v.043a3.835 3.835 0 0 0-3.508-2.3Zm10.383 2.285.012-.028-.02.043c.004-.004.004-.011.008-.015Zm13.383-2.285c-1.094.027-2 .406-2.719 1.132-.719.727-1.094 1.637-1.121 2.727v7.652c.027 1.09.402 1.996 1.121 2.719.719.719 1.625 1.094 2.719 1.121h7.652c1.09-.027 1.996-.402 2.715-1.121.723-.723 1.094-1.629 1.121-2.719v-7.652c-.027-1.09-.398-2-1.12-2.727-.72-.726-1.626-1.105-2.716-1.132Zm-41.984.02v.003a3.55 3.55 0 0 0-1.426.29 3.72 3.72 0 0 0-1.164.78l5.988 6.582-5.988 6.578a3.63 3.63 0 0 0 2.59 1.098 3.647 3.647 0 0 0 2.675-1.183l3.309-3.641 3.312 3.64a3.612 3.612 0 0 0 5.266.086l-5.988-6.578 5.988-6.578a3.667 3.667 0 0 0-1.164-.785 3.63 3.63 0 0 0-2.918.031 3.561 3.561 0 0 0-1.184.864l-3.312 3.64-3.332-3.64a3.62 3.62 0 0 0-1.18-.875 3.537 3.537 0 0 0-1.472-.313Zm58.25 0v.003c-.508 0-.981.098-1.426.29a3.66 3.66 0 0 0-1.16.78l5.988 6.582-5.988 6.578c.68.7 1.613 1.094 2.585 1.098a3.64 3.64 0 0 0 2.676-1.183l3.313-3.641 3.308 3.64a3.612 3.612 0 0 0 5.266.086l-5.988-6.578L128 101.2a3.639 3.639 0 0 0-4.082-.754c-.45.203-.852.496-1.18.864l-3.312 3.64-3.332-3.64a3.703 3.703 0 0 0-1.18-.875 3.568 3.568 0 0 0-1.477-.313ZM10.57 103.956c.059 0 .211.035.45.121.277.098.433.375.472.824v2.391c.02.043-.02.203-.117.484-.098.282-.375.442-.824.48H3.816v-4.296h6.754Zm17.54 0c.062 0 .214.035.46.121.282.098.442.375.485.824v1.45c.02.039-.024.195-.121.468-.102.278-.383.434-.844.473h-6.692v-3.332h6.711Zm17.519 0c.059 0 .215.035.46.121.282.098.442.375.481.824v5.746c.02.04-.02.204-.12.485-.098.281-.38.441-.845.48h-5.722c-.04.024-.2-.02-.48-.117-.286-.105-.446-.387-.485-.848v-5.746c-.02-.039.02-.195.121-.468.102-.278.383-.434.844-.473h5.746Zm58.25 0c.062 0 .219.035.46.121.286.098.442.375.485.824v5.746c.02.04-.02.204-.12.485-.102.281-.384.441-.845.48h-5.722c-.043.024-.203-.02-.485-.117-.28-.105-.441-.387-.48-.848v-5.746c-.02-.039.02-.195.117-.468.102-.278.383-.434.848-.473h5.742Zm0 0"/></svg>
