<?xml version="1.0" encoding="UTF-8"?>
<!-- Generator: Adobe Illustrator 22.1.0, SVG Export Plug-In . SVG Version: 6.00 Build 0)  -->
<svg version="1.1" id="Layer_1" xmlns="http://www.w3.org/2000/svg" xmlns:xlink="http://www.w3.org/1999/xlink" x="0px" y="0px" viewBox="0 0 57 57" style="enable-background:new 0 0 57 57;" xml:space="preserve">
<style type="text/css">
	.st0{fill:url(#path3_1_);}
</style>
<title>Rust_programming_language_black_logo.svg</title>
<desc>Created with Sketch.</desc>
<linearGradient id="path3_1_" gradientUnits="userSpaceOnUse" x1="-0.4936" y1="28.5059" x2="56.4936" y2="28.5059">
	<stop offset="0" style="stop-color:#8551CD"/>
	<stop offset="0.4736" style="stop-color:#53A0FD"/>
	<stop offset="1" style="stop-color:#72E5ED"/>
</linearGradient>
<path id="path3" class="st0" d="M56.1,27.8l-2.4-1.5c0-0.2,0-0.5-0.1-0.7l2.1-1.9c0.2-0.2,0.3-0.5,0.2-0.8c-0.1-0.3-0.3-0.5-0.5-0.6  l-2.6-1c-0.1-0.2-0.1-0.5-0.2-0.7l1.6-2.3c0.2-0.2,0.2-0.5,0.1-0.8c-0.1-0.3-0.3-0.5-0.6-0.5l-2.8-0.5c-0.1-0.2-0.2-0.4-0.3-0.6  l1.2-2.6c0.1-0.3,0.1-0.6-0.1-0.8c-0.2-0.2-0.4-0.4-0.7-0.4l-2.8,0.1c-0.1-0.2-0.3-0.4-0.4-0.5l0.6-2.7c0.1-0.3,0-0.6-0.2-0.8  c-0.2-0.2-0.5-0.3-0.8-0.2l-2.7,0.6c-0.2-0.2-0.4-0.3-0.5-0.4l0.1-2.8c0-0.3-0.1-0.6-0.4-0.7c-0.2-0.2-0.5-0.2-0.8-0.1l-2.6,1.2  c-0.2-0.1-0.4-0.2-0.6-0.3l-0.5-2.8c0-0.3-0.2-0.5-0.5-0.6c-0.3-0.1-0.6-0.1-0.8,0.1l-2.3,1.6c-0.2-0.1-0.4-0.1-0.7-0.2l-1-2.6  c-0.1-0.3-0.3-0.5-0.6-0.5c-0.3-0.1-0.6,0-0.8,0.2l-1.9,2.1c-0.2,0-0.5,0-0.7-0.1l-1.5-2.4C28.6,0.2,28.3,0,28,0s-0.6,0.1-0.7,0.4  l-1.5,2.4c-0.2,0-0.5,0-0.7,0.1l-1.9-2.1c-0.2-0.2-0.5-0.3-0.8-0.2c-0.3,0.1-0.5,0.3-0.6,0.5l-1,2.6c-0.2,0.1-0.5,0.1-0.7,0.2  l-2.3-1.6c-0.2-0.2-0.5-0.2-0.8-0.1c-0.3,0.1-0.5,0.3-0.5,0.6l-0.5,2.8c-0.2,0.1-0.4,0.2-0.6,0.3L13,4.7c-0.3-0.1-0.6-0.1-0.8,0.1  c-0.2,0.2-0.4,0.4-0.4,0.7l0.1,2.8c-0.2,0.1-0.4,0.3-0.5,0.4L8.6,8.1c-0.3-0.1-0.6,0-0.8,0.2C7.6,8.6,7.6,8.9,7.6,9.1l0.6,2.7  C8.1,12,8,12.2,7.8,12.4L5,12.3c-0.3,0-0.6,0.1-0.7,0.4c-0.2,0.2-0.2,0.5-0.1,0.8L5.4,16c-0.1,0.2-0.2,0.4-0.3,0.6l-2.8,0.5  c-0.3,0-0.5,0.2-0.6,0.5c-0.1,0.3-0.1,0.6,0.1,0.8l1.6,2.3c-0.1,0.2-0.1,0.5-0.2,0.7l-2.6,1c-0.3,0.1-0.5,0.3-0.5,0.6  c-0.1,0.3,0,0.6,0.2,0.8l2.1,1.9c0,0.2,0,0.5-0.1,0.7l-2.4,1.5c-0.2,0.1-0.4,0.4-0.4,0.7c0,0.3,0.1,0.6,0.4,0.7l2.4,1.5  c0,0.2,0,0.5,0.1,0.7l-2.1,1.9c-0.2,0.2-0.3,0.5-0.2,0.8c0.1,0.3,0.3,0.5,0.5,0.6l2.6,1c0.1,0.2,0.1,0.5,0.2,0.7l-1.6,2.3  c-0.2,0.2-0.2,0.5-0.1,0.8c0.1,0.3,0.3,0.5,0.6,0.5l2.8,0.5c0.1,0.2,0.2,0.4,0.3,0.6l-1.2,2.6c-0.1,0.3-0.1,0.6,0.1,0.8  c0.2,0.2,0.4,0.4,0.7,0.4l2.8-0.1C8,44.8,8.1,45,8.3,45.1l-0.6,2.7c-0.1,0.3,0,0.6,0.2,0.8c0.2,0.2,0.5,0.3,0.8,0.2l2.7-0.6  c0.2,0.2,0.4,0.3,0.5,0.4l-0.1,2.8c0,0.3,0.1,0.6,0.4,0.7c0.2,0.2,0.5,0.2,0.8,0.1l2.6-1.2c0.2,0.1,0.4,0.2,0.6,0.3l0.5,2.8  c0,0.3,0.2,0.5,0.5,0.6c0.3,0.1,0.6,0.1,0.8-0.1l2.3-1.6c0.2,0.1,0.5,0.1,0.7,0.2l1,2.6c0.1,0.3,0.3,0.5,0.6,0.5  c0.3,0.1,0.6,0,0.8-0.2l1.9-2.1c0.2,0,0.5,0,0.7,0.1l1.5,2.4c0.1,0.2,0.4,0.4,0.7,0.4s0.6-0.1,0.7-0.4l1.5-2.4c0.2,0,0.5,0,0.7-0.1  l1.9,2.1c0.2,0.2,0.5,0.3,0.8,0.2c0.3-0.1,0.5-0.3,0.6-0.5l1-2.6c0.2-0.1,0.5-0.1,0.7-0.2l2.3,1.6c0.2,0.2,0.5,0.2,0.8,0.1  c0.3-0.1,0.5-0.3,0.5-0.6l0.5-2.8c0.2-0.1,0.4-0.2,0.6-0.3l2.6,1.2c0.3,0.1,0.6,0.1,0.8-0.1c0.2-0.2,0.4-0.4,0.4-0.7l-0.1-2.8  c0.2-0.1,0.4-0.3,0.5-0.4l2.7,0.6c0.3,0.1,0.6,0,0.8-0.2c0.2-0.2,0.3-0.5,0.2-0.8l-0.6-2.7c0.2-0.2,0.3-0.4,0.4-0.5l2.8,0.1  c0.3,0,0.6-0.1,0.7-0.4c0.2-0.2,0.2-0.5,0.1-0.8L50.6,41c0.1-0.2,0.2-0.4,0.3-0.6l2.8-0.5c0.3,0,0.5-0.2,0.6-0.5  c0.1-0.3,0.1-0.6-0.1-0.8l-1.6-2.3c0.1-0.2,0.1-0.5,0.2-0.7l2.6-1c0.3-0.1,0.5-0.3,0.5-0.6c0.1-0.3,0-0.6-0.2-0.8l-2.1-1.9  c0-0.2,0-0.5,0.1-0.7l2.4-1.5c0.2-0.1,0.4-0.4,0.4-0.7S56.3,28,56.1,27.8L56.1,27.8z M40.1,47.7c-0.9-0.2-1.5-1.1-1.3-2  c0.2-0.9,1.1-1.5,2-1.3c0.9,0.2,1.5,1.1,1.3,2C41.9,47.3,41,47.8,40.1,47.7z M39.3,42.2c-0.8-0.2-1.7,0.4-1.8,1.2l-0.8,4  c-2.6,1.2-5.5,1.9-8.6,1.9c-3.1,0-6.1-0.7-8.8-1.9l-0.8-4c-0.2-0.8-1-1.4-1.8-1.2L13,42.8c-0.6-0.7-1.3-1.4-1.8-2.1h17  c0.2,0,0.3,0,0.3-0.2v-6c0-0.2-0.1-0.2-0.3-0.2h-5v-3.8h5.4c0.5,0,2.6,0.1,3.3,2.9c0.2,0.8,0.7,3.6,1,4.4c0.3,1,1.6,2.9,3,2.9h8.5  c0.1,0,0.2,0,0.3,0c-0.6,0.8-1.2,1.6-1.9,2.3L39.3,42.2L39.3,42.2z M15.7,47.6c-0.9,0.2-1.8-0.4-2-1.3c-0.2-0.9,0.4-1.8,1.3-2  c0.9-0.2,1.8,0.4,2,1.3C17.2,46.5,16.6,47.4,15.7,47.6z M9.3,21.4c0.4,0.9,0,1.9-0.9,2.2c-0.9,0.4-1.9,0-2.2-0.9  c-0.4-0.9,0-1.9,0.9-2.2C7.9,20.1,8.9,20.5,9.3,21.4z M7.3,26.1l3.6-1.6c0.8-0.3,1.1-1.3,0.8-2L11,20.7h3V34H8  c-0.5-1.8-0.8-3.7-0.8-5.7C7.2,27.6,7.2,26.8,7.3,26.1z M23.3,24.8v-3.9h7c0.4,0,2.6,0.4,2.6,2.1c0,1.4-1.7,1.9-3.1,1.9L23.3,24.8  L23.3,24.8z M48.8,28.3c0,0.5,0,1-0.1,1.5h-2.1c-0.2,0-0.3,0.1-0.3,0.4v1c0,2.3-1.3,2.8-2.4,2.9c-1.1,0.1-2.3-0.5-2.4-1.1  c-0.6-3.6-1.7-4.4-3.4-5.7c2.1-1.3,4.3-3.3,4.3-5.9c0-2.8-1.9-4.6-3.3-5.5c-1.9-1.2-3.9-1.5-4.5-1.5H12.5c3-3.3,7.1-5.7,11.7-6.6  l2.6,2.7c0.6,0.6,1.6,0.6,2.2,0.1l2.9-2.8C37.9,9,43.1,12.8,46.1,18l-2,4.5c-0.3,0.8,0,1.7,0.8,2l3.8,1.7  C48.8,26.9,48.8,27.6,48.8,28.3L48.8,28.3z M26.7,5.5c0.7-0.6,1.7-0.6,2.4,0.1c0.6,0.7,0.6,1.7-0.1,2.4c-0.7,0.6-1.7,0.6-2.4-0.1  C26,7.2,26.1,6.2,26.7,5.5z M46.6,21.5c0.4-0.9,1.4-1.2,2.2-0.9c0.9,0.4,1.2,1.4,0.9,2.2c-0.4,0.9-1.4,1.2-2.2,0.9  C46.6,23.3,46.2,22.3,46.6,21.5z"/>
</svg>