<svg xmlns="http://www.w3.org/2000/svg" viewBox="0 0 128 128"><path d="M63.867 0c-.4 0-.795.103-1.147.308h-.002V.31c-.121.071-.167.126-.23.194a3.954 3.954 0 0 0-.206.24 14.56 14.56 0 0 0-.521.711 42.486 42.486 0 0 0-1.359 2.095c-.595.977-1.043 1.706-1.399 2.163-.356.457-.582.59-.72.603-.14.013-.402-.075-.854-.456-.451-.38-1.05-1.007-1.85-1.848-1.044-1.099-1.693-1.754-2.208-2.163-.515-.41-.974-.581-1.409-.578-.547.003-1.095.111-1.52.43-.223.168-.266.297-.383.499-.116.2-.244.453-.383.748a28.807 28.807 0 0 0-.894 2.133c-.667 1.786-1.027 2.715-1.261 3.134-.118.21-.185.273-.227.3-.042.028-.105.05-.28.084l.003-.002c-.003 0-.263-.022-.768-.302-.504-.281-1.242-.776-2.287-1.526h-.002a32.962 32.962 0 0 0-2.191-1.455 11.43 11.43 0 0 0-.822-.457c-.23-.113-.337-.21-.659-.21-.365 0-.723.049-1.046.227-.324.178-.58.475-.774.85-.387.751-.615 1.861-.922 3.704-.194 1.166-.339 2.033-.498 2.61-.16.579-.325.804-.442.869-.117.065-.376.08-.928-.1-.553-.182-1.337-.535-2.388-1.012a50.66 50.66 0 0 0-2.345-1c-.33-.13-.616-.235-.845-.31-.23-.076-.329-.136-.59-.136-.312 0-.536.115-.784.256-.247.14-.493.323-.707.538-.324.324-.617.693-.686 1.308-.07.616-.019 1.498.07 3.28l.16 3.253-.397.214c-.25.133-.331.168-.78.126-.447-.043-1.206-.206-2.526-.518h-.002c-1.735-.41-2.793-.621-3.603-.597a2.226 2.226 0 0 0-1.79.934l-.65.87.739 3.167c.376 1.615.735 3.159.808 3.46.01.046-.07.466-.169.596-.06.078-.076.093-.132.12-.056.028-.178.067-.414.094-.473.052-1.366.053-2.962.029-1.358-.022-2.405-.012-3.217.104-.812.116-1.454.345-1.812.886-.358.54-.315 1.22-.099 2.006.217.785.627 1.74 1.188 2.967.354.769.674 1.503.905 2.062.116.279.21.515.272.684.03.084.053.151.066.194-.004.131-.021.205-.064.267-.047.067-.146.159-.376.264-.46.21-1.388.422-2.903.67a269.252 269.252 0 0 1-2.97.465l-.209.03c-.05.006-.115.005-.04.005-.209 0-.269.056-.35.1-.08.042-.154.092-.232.148-.155.113-.32.255-.48.415-.269.268-.488.571-.591.936-.104.365-.077.765.048 1.18.25.83.869 1.8 1.93 3.299.656.926 1.142 1.618 1.419 2.122.276.504.308.762.265.897-.043.135-.23.342-.755.613-.527.27-1.335.583-2.42.998-1.238.474-2.182.857-2.875 1.25-.693.392-1.194.818-1.328 1.436-.133.617.155 1.21.632 1.831.478.62 1.188 1.324 2.132 2.22.875.829 1.525 1.447 1.924 1.912.4.465.502.737.49.878-.01.14-.142.37-.604.736-.462.366-1.201.829-2.192 1.452-1.5.94-2.262 1.412-2.734 1.858-.473.447-.58.96-.618 1.477-.024.312-.05.588.015.895.066.308.244.605.51.867.532.523 1.43 1.057 3.22 2.15.885.541 1.542.95 1.94 1.274.399.325.487.505.489.645.002.141-.119.436-.523.905-.405.47-1.053 1.088-1.92 1.91-.94.888-1.647 1.592-2.121 2.214-.474.623-.757 1.221-.62 1.84.137.618.641 1.046 1.337 1.44.696.393 1.641.778 2.882 1.246 1.078.406 1.88.712 2.403.978.522.267.706.47.748.603.042.133.008.392-.27.895-.277.504-.764 1.198-1.422 2.124-1.5 2.113-2.056 3.02-2.056 3.911 0 .347.044.69.22 1.004.178.314.473.556.846.739.745.364 1.858.586 3.754.905 1.58.266 2.539.487 3.017.7.24.105.345.198.392.263.046.064.065.122.065.275 0-.111.007-.06-.005-.018a4.039 4.039 0 0 1-.068.2c-.062.171-.154.409-.27.69-.231.563-.554 1.3-.909 2.072-.557 1.213-.964 2.155-1.186 2.926-.221.771-.28 1.435.059 1.975.338.54.963.771 1.748.893.784.122 1.797.144 3.116.144 1.225 0 2.133-.007 2.75.044.617.052.883.174.96.262.076.088.136.307.06.864-.078.557-.281 1.374-.545 2.479-.399 1.668-.61 2.667-.624 3.422-.015.755.256 1.31.668 1.721.392.393.986.548 1.785.5.8-.047 1.883-.262 3.514-.653 1.236-.295 1.959-.448 2.39-.488.43-.04.516-.006.75.118l.377.202-.16 3.253c-.089 1.783-.14 2.666-.07 3.282.068.615.362.984.686 1.308.215.216.464.398.715.538.25.14.48.254.792.254.255 0 .363-.058.593-.133.231-.076.518-.18.847-.309.66-.256 1.49-.609 2.341-.996 1.048-.475 1.827-.829 2.378-1.01.551-.18.808-.163.925-.098.116.064.28.288.44.864.159.576.302 1.441.496 2.603.308 1.851.537 2.96.928 3.711.196.375.456.672.783.847.327.175.684.223 1.054.223.304 0 .427-.093.657-.202.23-.108.503-.255.812-.436a29.536 29.536 0 0 0 2.134-1.397c1.31-.935 2.135-1.467 2.641-1.684.486-.209.564-.167.79-.025.023.038.05.08.086.149.093.171.217.422.355.727.277.608.618 1.43.953 2.308.5 1.308.841 2.137 1.15 2.71.308.571.627.922 1.015 1.108.61.292 1.331.312 2.033-.124s1.485-1.231 2.73-2.588c.748-.813 1.314-1.415 1.743-1.775.429-.36.668-.437.816-.418.148.019.398.172.77.641.37.469.833 1.204 1.443 2.192.68 1.101 1.236 1.936 1.766 2.527.53.59 1.08.982 1.72.973.642-.01 1.185-.41 1.721-1.014.537-.603 1.104-1.453 1.8-2.573.597-.96 1.04-1.672 1.392-2.119.352-.446.571-.57.704-.58.132-.012.393.08.845.462.451.383 1.053 1.01 1.858 1.851v.002c1.073 1.12 1.723 1.772 2.243 2.178.52.406.99.564 1.432.564.292 0 .586-.053.854-.137.268-.085.508-.183.717-.394.171-.17.22-.298.332-.513.113-.217.244-.492.387-.812.288-.64.625-1.461.95-2.318.319-.84.644-1.627.907-2.21.131-.29.247-.532.335-.695.038-.07.067-.116.09-.151a.486.486 0 0 1 .242-.082c.106-.002.271.03.527.14.511.22 1.339.751 2.647 1.68.785.558 1.546 1.05 2.165 1.409.31.18.584.325.816.432.232.107.37.194.659.194.38 0 .753-.07 1.081-.27.328-.199.585-.51.785-.905.4-.787.64-1.938.909-3.746.228-1.526.37-2.364.502-2.785.132-.42.129-.374.381-.501.24-.122.24-.146.683-.02.442.126 1.224.46 2.608 1.09h.002c.852.385 1.682.737 2.341.993.33.129.615.233.845.309.23.075.34.133.595.133.317 0 .545-.115.799-.26.253-.143.507-.333.726-.554l.824-.82-.196-3.64c-.087-1.632-.121-2.498-.081-2.933.04-.434.044-.37.28-.585.132-.118.195-.168.235-.186.041-.019.094-.036.276-.026.362.02 1.136.187 2.633.53 1.82.415 2.902.636 3.692.662.79.027 1.355-.227 1.756-.628.173-.173.346-.349.467-.606.121-.257.16-.559.141-.907-.037-.697-.273-1.684-.728-3.607-.256-1.08-.454-1.879-.527-2.42-.073-.542-.012-.744.064-.828.076-.084.348-.206.969-.256.62-.05 1.531-.042 2.761-.042 1.677 0 2.606-.007 3.23-.086.626-.078 1.03-.312 1.286-.594.432-.478.629-1.145.478-1.946-.15-.801-.566-1.805-1.286-3.341a55.317 55.317 0 0 1-.917-2.049c-.116-.277-.21-.51-.271-.678a3.197 3.197 0 0 1-.062-.186c.007-.133.024-.21.071-.273.052-.07.165-.167.413-.276.497-.216 1.485-.435 3.124-.701a32.206 32.206 0 0 0 2.595-.516c.342-.085.631-.168.866-.252.236-.083.402-.134.591-.306.28-.252.504-.568.595-.942.092-.373.052-.776-.08-1.203-.268-.853-.898-1.868-1.953-3.347h-.002c-.655-.918-1.138-1.606-1.416-2.107-.278-.5-.313-.761-.275-.887.038-.126.208-.318.713-.574.505-.255 1.285-.547 2.333-.934 1.264-.466 2.23-.853 2.942-1.256.712-.402 1.222-.846 1.368-1.473.146-.627-.127-1.244-.6-1.883-.474-.64-1.184-1.357-2.13-2.256-.871-.828-1.52-1.445-1.92-1.911-.401-.466-.507-.744-.499-.88.008-.135.122-.343.562-.69.44-.346 1.15-.784 2.105-1.37 1.16-.712 2.038-1.287 2.66-1.827.623-.54 1.039-1.086 1.047-1.737.008-.651-.397-1.204-1.008-1.744-.61-.54-1.474-1.113-2.616-1.822-.976-.605-1.704-1.057-2.157-1.414-.453-.358-.576-.577-.585-.716-.01-.138.091-.415.492-.881.4-.467 1.054-1.086 1.928-1.917.943-.896 1.65-1.6 2.126-2.22.477-.622.766-1.215.632-1.832-.134-.618-.638-1.046-1.331-1.438-.694-.393-1.637-.776-2.876-1.25-1.088-.417-1.9-.732-2.429-1.004-.529-.273-.72-.485-.763-.618-.043-.134-.012-.385.265-.88.278-.495.767-1.174 1.429-2.082.791-1.086 1.29-1.815 1.608-2.399.317-.584.454-1.058.454-1.515 0-.361-.039-.71-.208-1.033-.169-.324-.462-.58-.835-.766-.746-.373-1.859-.583-3.777-.893-1.586-.257-2.544-.473-3.02-.684-.237-.106-.34-.199-.387-.266-.044-.062-.061-.136-.064-.275.013-.042.035-.107.066-.19.061-.167.155-.4.271-.676a59.44 59.44 0 0 1 .91-2.035c.704-1.51 1.119-2.577 1.259-3.434.14-.857-.063-1.581-.576-2.045-.285-.258-.695-.424-1.32-.484-.624-.06-1.53-.059-3.056-.033-1.589.026-2.486.024-2.982-.03-.497-.053-.517-.085-.69-.259v-.002c-.116-.117-.153-.164-.165-.192-.012-.027-.032-.081-.017-.271.028-.38.213-1.197.589-2.766v-.002c.461-1.924.703-2.9.728-3.602.013-.352-.042-.662-.182-.919-.14-.257-.325-.43-.52-.612h-.001c-.424-.399-.957-.678-1.71-.66-.751.02-1.758.24-3.53.658-1.285.302-2.033.46-2.475.502-.442.04-.527.006-.768-.123l-.387-.207.168-3.24.196-3.773-.822-.822a3.483 3.483 0 0 0-.715-.549c-.249-.143-.47-.261-.788-.261-.263 0-.362.061-.59.137-.228.077-.513.182-.84.312-.656.26-1.484.617-2.334 1.008-1.406.647-2.188.987-2.62 1.11-.432.124-.412.099-.67-.036-.255-.133-.26-.098-.404-.543-.143-.444-.305-1.316-.564-2.897-.3-1.843-.529-2.957-.92-3.711-.196-.378-.454-.674-.781-.853-.327-.179-.688-.229-1.058-.229-.323 0-.43.098-.661.211-.232.114-.51.268-.826.458a33.15 33.15 0 0 0-2.203 1.463c-1.28.919-2.008 1.42-2.429 1.632-.42.212-.409.184-.664.095a.805.805 0 0 1-.433-.32c-.14-.184-.299-.492-.478-.97v-.003c-.278-.735-.81-2.154-1.184-3.151-.385-1.023-.682-1.687-1.117-2.151-.435-.464-1.027-.634-1.658-.634-.435 0-.884.188-1.404.6-.52.414-1.178 1.068-2.207 2.137-.806.837-1.41 1.458-1.864 1.837-.454.379-.716.469-.855.455-.139-.013-.363-.144-.717-.599-.354-.454-.797-1.177-1.39-2.149-.48-.786-.97-1.53-1.377-2.1a12.83 12.83 0 0 0-.543-.718c-.157-.189-.219-.31-.47-.444A2.471 2.471 0 0 0 63.868 0Zm-.897.736.25.429c.387-.227.9-.236 1.349.005l.002.002c-.119-.063.042.043.174.202.133.16.306.386.5.659a35.1 35.1 0 0 1 1.338 2.043c.592.97 1.037 1.707 1.453 2.242.416.535.842.922 1.405.977.564.054 1.056-.241 1.585-.683.53-.44 1.137-1.074 1.942-1.91 1.022-1.061 1.676-1.7 2.113-2.047.436-.347.587-.386.785-.386.5 0 .686.056.934.32.248.265.54.833.912 1.822.375.997.906 2.416 1.185 3.153.195.52.379.912.618 1.225.24.313.553.535.895.655.384.133.887.131 1.438-.148.552-.279 1.276-.788 2.56-1.71a32.574 32.574 0 0 1 2.136-1.42c.3-.18.56-.322.752-.416.19-.094.391-.11.223-.11.28 0 .454.036.581.106.127.07.242.18.376.44.269.518.526 1.594.824 3.415.26 1.586.408 2.456.597 3.04.188.585.536.934.89 1.119.35.183.827.274 1.402.11.576-.164 1.351-.514 2.762-1.163a48.647 48.647 0 0 1 2.285-.986c.317-.126.588-.228.788-.295.2-.067.405-.085.276-.085-.048 0 .123.032.292.13.17.097.362.241.51.39l.51.51-.175 3.332-.2 3.869.942.505h.002c.345.185.766.287 1.328.235.562-.053 1.317-.219 2.609-.523 1.763-.416 2.764-.618 3.329-.632.565-.014.659.063 1.006.39.185.174.283.28.327.362.045.081.071.168.062.41-.017.486-.24 1.483-.701 3.408-.376 1.572-.57 2.363-.613 2.924-.02.28.002.532.101.752.099.22.241.36.366.486.269.27.674.48 1.287.547.613.066 1.51.062 3.105.035 1.518-.025 2.417-.022 2.944.029.526.05.612.104.752.23.277.251.37.484.261 1.152-.109.668-.49 1.694-1.18 3.174-.36.769-.686 1.502-.924 2.07-.12.284-.217.525-.287.715a4.35 4.35 0 0 0-.085.25c-.022.073-.047.102-.047.264 0 .29.064.603.248.866.185.263.458.45.795.6.674.301 1.662.499 3.267.758 1.902.308 2.99.553 3.49.803.25.125.34.223.4.337.06.114.095.287.095.574 0 .283-.061.54-.334 1.04-.272.501-.754 1.213-1.538 2.289-.662.908-1.164 1.596-1.493 2.182-.328.586-.516 1.13-.343 1.669.174.538.637.878 1.252 1.195.616.318 1.44.632 2.53 1.049 1.227.47 2.146.85 2.742 1.188.596.337.81.603.848.783.04.18-.042.491-.447 1.02-.405.527-1.09 1.217-2.024 2.104-.874.83-1.534 1.451-1.996 1.988-.461.537-.77 1.029-.73 1.6.04.57.429 1.002.963 1.424.534.42 1.27.873 2.246 1.478 1.127.7 1.963 1.263 2.483 1.723.52.46.675.772.672.987-.003.214-.17.536-.703 1-.534.463-1.385 1.029-2.531 1.732-.954.585-1.675 1.024-2.198 1.436-.524.412-.907.845-.94 1.411-.033.566.276 1.05.736 1.585.46.535 1.118 1.156 1.989 1.983.934.887 1.615 1.588 2.015 2.128.4.54.482.862.434 1.068-.047.205-.28.487-.891.833s-1.548.728-2.797 1.188c-1.05.387-1.842.68-2.438.98-.595.302-1.053.638-1.215 1.173-.161.535.03 1.07.357 1.657.326.588.823 1.28 1.479 2.2 1.036 1.452 1.616 2.443 1.812 3.067.097.313.101.519.064.67-.038.153-.117.282-.295.443.053-.048-.072.04-.26.106a8.713 8.713 0 0 1-.773.227c-.643.161-1.515.335-2.513.496-1.658.27-2.673.474-3.363.773-.345.15-.622.336-.814.595a1.51 1.51 0 0 0-.273.863c-.005.17.023.198.045.273.021.075.05.158.085.254.07.192.168.435.288.72.24.574.57 1.313.935 2.088.71 1.516 1.095 2.491 1.209 3.1.114.61.04.789-.24 1.098-.17.187-.167.212-.67.275-.506.063-1.438.08-3.11.08-1.224 0-2.138-.012-2.84.044-.703.056-1.253.165-1.628.581-.376.417-.395.984-.309 1.626.087.642.29 1.441.545 2.516.455 1.92.676 2.928.703 3.432.014.252-.012.353-.048.43-.036.078-.112.168-.271.328-.281.28-.396.358-1.022.337-.625-.021-1.695-.225-3.503-.638-1.499-.342-2.25-.521-2.799-.552-.274-.015-.522.014-.736.11-.214.097-.36.231-.496.355a1.836 1.836 0 0 0-.603 1.23c-.054.588-.009 1.442.08 3.076l.17 3.2-.51.51h-.002a2.52 2.52 0 0 1-.511.39c-.173.097-.348.131-.31.131.116 0-.083-.02-.285-.085a16.268 16.268 0 0 1-.797-.29 48.293 48.293 0 0 1-2.29-.972c-1.39-.631-2.172-.977-2.749-1.141-.577-.165-1.05-.09-1.4.089-.35.176-.702.522-.88 1.089-.18.567-.31 1.404-.54 2.936-.264 1.778-.525 2.879-.811 3.444-.144.282-.278.422-.415.506-.138.083-.303.126-.566.126.115 0-.057-.017-.244-.103a9.325 9.325 0 0 1-.733-.39 28.307 28.307 0 0 1-2.087-1.358c-1.322-.939-2.16-1.494-2.83-1.783-.334-.145-.636-.226-.936-.221-.3.005-.579.107-.804.25-.174.11-.184.173-.234.248-.05.075-.099.159-.151.258-.106.197-.23.451-.367.756a41.75 41.75 0 0 0-.93 2.265c-.318.84-.652 1.649-.928 2.266-.139.308-.262.568-.36.757-.1.19-.22.338-.154.272l-.002.002c0-.001-.138.092-.312.147a1.999 1.999 0 0 1-.556.091c-.279 0-.398-.022-.822-.353-.423-.33-1.07-.972-2.137-2.085-.806-.841-1.409-1.476-1.933-1.92-.523-.445-1.008-.743-1.57-.696-.56.047-.984.429-1.399.955-.414.526-.86 1.251-1.455 2.21-.687 1.104-1.243 1.924-1.7 2.437-.457.514-.775.678-.992.68-.216.004-.522-.145-.969-.643-.446-.498-.989-1.3-1.659-2.385-.611-.992-1.079-1.741-1.511-2.287-.433-.546-.859-.938-1.42-1.01-.563-.072-1.07.213-1.582.643-.513.43-1.084 1.048-1.834 1.865-1.233 1.342-2.015 2.1-2.523 2.415-.507.315-.637.286-1.081.073l-.002-.002c-.167-.08-.307-.2-.568-.684-.261-.485-.6-1.296-1.095-2.593a43.02 43.02 0 0 0-.979-2.364 13.284 13.284 0 0 0-.383-.787 3.32 3.32 0 0 0-.16-.268c-.05-.077-.065-.14-.236-.25-.454-.289-1.077-.334-1.746-.046-.669.288-1.502.843-2.825 1.787a28.701 28.701 0 0 1-2.06 1.349 9.849 9.849 0 0 1-.735.395c-.188.088-.374.107-.233.107-.283 0-.458-.037-.585-.105-.126-.068-.239-.174-.372-.43-.267-.512-.525-1.586-.83-3.417-.193-1.161-.334-2.035-.519-2.704-.184-.668-.42-1.194-.916-1.469-.498-.274-1.067-.186-1.714.026-.646.212-1.432.573-2.478 1.048a47.19 47.19 0 0 1-2.291.973c-.318.124-.592.225-.795.29-.202.067-.4.086-.284.086.033 0-.14-.032-.309-.126a2.417 2.417 0 0 1-.498-.376c-.323-.324-.354-.279-.403-.717-.049-.439-.01-1.34.078-3.122l.192-3.88-.935-.5c-.34-.182-.76-.282-1.31-.23-.55.05-1.283.214-2.527.511-1.613.386-2.673.588-3.34.628-.67.04-.868-.05-1.026-.21v-.001c-.307-.306-.389-.427-.378-1 .01-.574.202-1.556.597-3.212.263-1.1.471-1.918.562-2.573.09-.655.076-1.226-.295-1.651-.37-.426-.924-.54-1.626-.6-.7-.058-1.61-.048-2.83-.048-1.307 0-2.294-.027-2.964-.131-.67-.105-.957-.275-1.06-.44-.104-.165-.137-.51.054-1.173.19-.663.584-1.584 1.136-2.787.359-.782.684-1.528.922-2.108.12-.29.217-.538.287-.733.035-.097.063-.179.085-.254.022-.075.047-.107.047-.263 0-.286-.068-.597-.254-.855s-.457-.442-.793-.591c-.67-.298-1.656-.502-3.256-.771-1.878-.316-2.968-.566-3.482-.818-.257-.126-.357-.228-.417-.333-.06-.106-.093-.257-.093-.518 0-.406.393-1.249 1.874-3.337.658-.926 1.156-1.626 1.483-2.219.326-.593.515-1.134.345-1.672-.17-.54-.633-.877-1.243-1.188-.61-.311-1.425-.617-2.503-1.024-1.228-.463-2.147-.842-2.745-1.18-.597-.338-.815-.607-.856-.793-.041-.185.04-.496.442-1.023.401-.527 1.082-1.216 2.011-2.095.87-.822 1.527-1.445 1.989-1.98.462-.536.772-1.01.765-1.566-.006-.557-.365-1.004-.854-1.403-.49-.4-1.162-.81-2.049-1.351-1.79-1.094-2.692-1.666-3.043-2.012-.175-.172-.21-.252-.234-.366-.024-.114-.02-.305.004-.614.038-.505-.01-.527.31-.83.32-.302 1.082-.797 2.581-1.738.99-.622 1.736-1.087 2.277-1.516.542-.428.934-.861.98-1.434.044-.573-.265-1.068-.726-1.604-.46-.537-1.122-1.156-1.996-1.985-.934-.886-1.62-1.577-2.027-2.105-.406-.527-.488-.838-.45-1.017.04-.18.254-.444.85-.781.595-.337 1.512-.718 2.74-1.188 1.084-.415 1.904-.726 2.517-1.04.613-.316 1.076-.656 1.248-1.195.172-.539-.015-1.083-.341-1.676s-.824-1.292-1.48-2.219c-1.047-1.477-1.614-2.43-1.79-3.012-.087-.29-.085-.47-.042-.624.043-.152.139-.305.335-.501v-.002h.002c.125-.125.26-.24.363-.314.045-.033.079-.054.1-.066.015-.003.039-.003.06-.006l.227-.031c.184-.026.435-.065.735-.11.6-.093 1.4-.218 2.256-.357 1.537-.252 2.494-.448 3.153-.748.329-.15.597-.34.779-.6.182-.26.248-.569.248-.858 0-.164-.025-.188-.047-.261a4.626 4.626 0 0 0-.085-.25c-.07-.191-.168-.436-.287-.723a62.335 62.335 0 0 0-.92-2.097c-.556-1.213-.947-2.146-1.132-2.818-.186-.672-.147-1.017-.031-1.192.115-.174.426-.352 1.124-.451.697-.1 1.718-.117 3.064-.095 1.6.024 2.49.031 3.085-.035.298-.033.533-.087.742-.19.21-.103.369-.261.479-.403h.002v-.002c.317-.414.471-.903.349-1.427v-.002l-.002-.002c-.065-.271-.43-1.84-.806-3.457l-.634-2.715.374-.504c.301-.406.432-.517 1.025-.535.593-.018 1.627.166 3.345.572 1.327.314 2.094.485 2.663.539.569.053.993-.053 1.34-.239l.952-.51-.191-3.88c-.089-1.78-.127-2.681-.078-3.12.05-.438.08-.393.403-.716v-.002a2.43 2.43 0 0 1 .496-.376c.167-.095.336-.126.295-.126-.125 0 .078.018.279.085.201.066.474.168.793.293.637.249 1.457.597 2.298.978 1.05.477 1.838.84 2.486 1.053.649.212 1.22.3 1.718.025.498-.276.735-.803.92-1.473.185-.67.326-1.547.52-2.711.303-1.822.559-2.897.825-3.413.133-.258.247-.366.37-.434s.293-.105.568-.105c-.167 0 .03.016.221.109.19.093.45.237.748.416a32.2 32.2 0 0 1 2.126 1.411c1.058.76 1.81 1.266 2.384 1.585.573.32.98.497 1.434.411h.002c.196-.038.418-.083.637-.228.22-.146.389-.363.547-.646.316-.566.657-1.48 1.325-3.267a28.01 28.01 0 0 1 .861-2.058c.131-.278.25-.513.345-.677.095-.164.223-.28.12-.201.05-.038.605-.23.93-.23.235-.003.363.024.787.362.425.337 1.067.978 2.105 2.07.8.841 1.403 1.478 1.93 1.922.527.444 1.022.74 1.587.686.565-.055.99-.445 1.41-.983.418-.537.867-1.276 1.462-2.253.47-.77.945-1.5 1.326-2.045.19-.273.357-.501.484-.66.064-.08.117-.142.153-.181.037-.039.073-.056.006-.017zm.461 10.531a4.307 4.307 0 0 0-2.633 1.204c-1.34 1.283-1.554 3.102-.944 4.562a4.22 4.22 0 0 0 3.924 2.605c3.894 0 5.588-5.337 2.415-7.597l.002-.002h-.002a4.165 4.165 0 0 0-2.762-.772zm.078.975c.722-.059 1.458.14 2.11.605 2.441 1.737 1.151 5.798-1.84 5.798-1.472 0-2.54-.87-3.01-1.994-.47-1.124-.331-2.461.715-3.463.595-.57 1.303-.887 2.025-.946zm-8.266 5.09-2.608.676c-6.817 1.76-13.388 5.05-18.467 9.248-.931.77-2.165 1.902-3.176 2.883-.506.491-.955.94-1.283 1.293a8.319 8.319 0 0 0-.4.456c-.05.063-.095.12-.135.184-.04.063-.11.083-.11.345l.108.31s.095.092.128.112c.064.04.095.048.12.056.05.016.073.018.097.022a9.407 9.407 0 0 0 .54.034c.346.014.849.027 1.495.04 1.29.023 3.154.045 5.453.063 4.599.037 10.94.06 17.915.06 12.287 0 18.645.005 22.166.072 3.522.067 4.143.185 5.12.434 8.194 2.09 13.62 8.494 13.127 15.281h-.002c-.254 3.513-2.6 7.144-6.79 10.302-.59.446-1.127.871-1.522 1.204-.198.166-.36.31-.481.426a2.402 2.402 0 0 0-.159.165.915.915 0 0 0-.076.1c-.028.046-.087.09-.087.291 0 .298.084.295.124.351.04.056.08.104.128.157a6.8 6.8 0 0 0 .366.372c.299.285.7.642 1.144 1.012 2.692 2.25 3.98 4.467 4.988 8.63.18.738.394 1.465.599 2.052.103.294.202.552.298.766.097.213.166.37.314.534.948 1.048 2.451 1.595 4.022 1.708 1.57.112 3.229-.213 4.525-1.058 1.588-1.035 2.306-2.724 2.426-5.43.04-.914.059-1.58.103-2.034.044-.453.126-.656.174-.713.049-.056.135-.107.483-.135.348-.028.893-.014 1.641-.014h2.962l.242-1.21c.126-.63.156-1.773.145-3.013-.01-1.24-.07-2.52-.193-3.32l-.22-1.407-4.72-2.118c-1.228-.55-2.39-1.092-3.274-1.517a43.493 43.493 0 0 1-1.083-.537c-.27-.14-.496-.29-.428-.235h-.002v-.002c-.15-.124-.432-.54-.624-1.003-.193-.465-.318-.991-.318-1.318 0 .07.004-.017.03-.116.028-.1.073-.24.13-.41.117-.34.288-.8.5-1.34.426-1.08 1.014-2.48 1.662-3.938l2.463-5.553-.657-1.153c-2.557-4.472-8.398-10.801-12.89-13.98-4.874-3.45-13.152-7.113-17.54-7.694l-1.574-.21-3.331 3.212c-2.097 2.02-3.337 3.123-4.18 3.59-.844.469-1.229.405-2.097.074.087.034-.145-.092-.38-.282-.235-.191-.544-.46-.9-.783a66.995 66.995 0 0 1-2.515-2.429zm-.304 1.104 3.115 3.157c.917.93 1.825 1.803 2.554 2.465.364.331.682.608.94.818.258.21.386.338.653.44.972.37 1.885.446 2.93-.134 1.045-.58 2.283-1.713 4.39-3.742l2.984-2.88 1.099.147c3.996.53 12.392 4.19 17.099 7.52 4.311 3.052 10.17 9.41 12.6 13.662l.41.717-2.26 5.094a105.336 105.336 0 0 0-1.679 3.978 33.354 33.354 0 0 0-.515 1.382 8.179 8.179 0 0 0-.147.469c-.036.132-.066.214-.066.378 0 .544.162 1.141.393 1.698.23.555.509 1.056.907 1.387h.002v.002c.182.152.32.206.605.353.285.148.663.335 1.11.55.894.43 2.064.974 3.299 1.527l4.228 1.898.136.874c.105.684.172 1.965.182 3.176.01 1.211-.047 2.409-.128 2.812l-.081.41h-2.147c-.734 0-1.274-.018-1.721.018-.448.036-.87.145-1.155.477-.285.332-.36.744-.411 1.264-.05.519-.065 1.181-.105 2.085-.114 2.564-.669 3.79-1.977 4.643-1.063.694-2.532.998-3.912.9-1.381-.1-2.653-.605-3.357-1.384.021.024-.067-.1-.145-.275a9.025 9.025 0 0 1-.268-.688c-.192-.55-.4-1.25-.571-1.956-1.036-4.277-2.492-6.797-5.316-9.159a23.158 23.158 0 0 1-1.093-.967c-.062-.059-.093-.092-.142-.141.085-.076.157-.143.277-.244.376-.317.904-.735 1.483-1.17 4.34-3.272 6.9-7.125 7.182-11.024.536-7.355-5.305-14.13-13.868-16.314-1.009-.257-1.804-.398-5.347-.465-3.543-.068-9.899-.072-22.186-.072-6.973 0-13.312-.023-17.907-.06-2.297-.018-4.16-.04-5.444-.064-.435-.008-.702-.017-.998-.025.3-.317.67-.692 1.112-1.122.996-.966 2.224-2.092 3.119-2.832 4.95-4.092 11.405-7.326 18.081-9.05v-.002zM18.15 45.463a4.315 4.315 0 0 0-2.359 1.25c-1.258 1.289-1.783 3.383-.645 5.223 1.596 2.583 5.59 2.466 7.17-.182.54-.903.603-2.033.343-3.078-.26-1.044-.85-2.027-1.746-2.614a3.826 3.826 0 0 0-2.763-.599zm90.755.159a4.388 4.388 0 0 0-2.052.486c-1.562.797-2.347 2.319-2.312 3.809.035 1.49.892 2.969 2.49 3.676 2.356 1.042 4.523-.11 5.432-1.87.91-1.76.606-4.201-1.595-5.543a3.877 3.877 0 0 0-1.963-.558zm-83.736.496.992 2.192c.716 1.58 1.077 2.622 1.144 3.39.066.767-.112 1.286-.593 2.02.046-.07-.093.087-.322.235-.23.149-.558.34-.971.558-.826.439-1.985.997-3.4 1.63h-.001l-4.8 2.153-.202 2.956c-.264 3.848.175 8.505 1.213 13.013l.61 2.653h14.068V61.52h-.002v-15.4Zm27.74.258v9.849l9.12-.09c4.218-.04 6.377-.063 7.684-.154 1.308-.092 1.824-.286 2.5-.592.987-.445 1.722-.934 2.22-1.564.497-.63.721-1.391.72-2.242a4.2 4.2 0 0 0-1.246-3.02c-.81-.81-1.97-1.398-3.44-1.78-1.28-.334-3.305-.407-9.34-.407zm-34.628.048c.67-.116 1.389.01 2.088.467.63.413 1.118 1.186 1.327 2.026.209.839.133 1.72-.23 2.327-1.209 2.026-4.281 2.106-5.477.17-.893-1.443-.477-2.994.511-4.007.495-.507 1.112-.866 1.781-.983zm90.605.19c.525.008 1.03.149 1.465.413h.002c1.793 1.094 1.937 2.87 1.229 4.24-.709 1.372-2.229 2.269-4.15 1.419-1.256-.556-1.872-1.66-1.899-2.793-.026-1.133.54-2.273 1.772-2.9a3.37 3.37 0 0 1 1.58-.379zm-82.18.496h5.207v14.41h.002v14.406H19.63l-.434-1.884c-1.018-4.421-1.444-9.004-1.19-12.722l.161-2.36 4.258-1.91c1.427-.64 2.601-1.203 3.459-1.659.429-.227.778-.428 1.047-.602.268-.175.446-.275.61-.526.549-.837.838-1.664.752-2.649-.086-.985-.498-2.1-1.229-3.713zm27.195.258h7.225c6.026 0 8.038.1 9.091.374 1.352.352 2.347.879 2.989 1.521.641.643.953 1.393.955 2.322.001.687-.152 1.175-.508 1.624-.355.45-.944.87-1.848 1.277-.662.3-.92.417-2.161.504-1.242.088-3.407.114-7.624.155l-8.119.078zm-.992 20.523v9.287h6.167c2.243 0 3.674.02 4.55.072.438.026.738.062.913.099.135.028.115.028.093.004.014.06.031.156.047.29.032.285.059.716.077 1.291.036 1.15.04 2.882.016 5.293l-.064 6.347-18.756.063c-5.294.018-10.105.052-13.595.093-1.745.021-3.16.043-4.142.066-.49.012-.87.024-1.135.035a7.784 7.784 0 0 0-.314.02c-.04.003-.072.006-.115.013-.021.004-.042.007-.093.023l-.048.018c-.02.008-.073.04-.074.04l-.124.117-.1.3c0 .284.068.276.108.345.04.069.084.137.14.215.11.157.257.348.434.57a50.95 50.95 0 0 0 1.292 1.55c.475.55.957 1.089 1.341 1.497.193.204.36.373.497.502.068.064.126.118.19.166a.882.882 0 0 0 .11.074c.047.026.092.075.277.075.128 0 .132-.01.202-.02l.265-.05c.214-.04.504-.098.85-.17.694-.143 1.616-.342 2.6-.56 2.583-.571 4.156-.815 5.118-.729.962.086 1.33.392 1.849 1.184-.014-.02.087.189.178.46.09.271.2.635.316 1.058.232.845.498 1.93.736 3.043.48 2.244.932 4.326 1.012 4.674.093.402.368.655.705.907.338.252.771.493 1.293.738 1.044.49 2.44.99 4.039 1.458 3.196.936 7.188 1.748 10.653 2.042h.002c4.067.343 8.67.05 12.913-.823 2.6-.536 7.41-2.024 9.058-2.838l1.118-.55 1.052-4.901c.389-1.813.696-3.176 1.027-4.145.332-.97.678-1.515 1.101-1.81.424-.296.998-.406 1.944-.336s2.221.325 3.913.686a783.592 783.592 0 0 0 4.077.86c.117.025.209.042.276.055l.081.016.035.005.085.008s.066-.005.091-.01a.486.486 0 0 0 .142-.046c.039-.02.06-.035.08-.049a.956.956 0 0 0 .09-.073c.054-.048.108-.102.173-.169.13-.133.294-.314.488-.53a81.11 81.11 0 0 0 1.376-1.59 79.11 79.11 0 0 0 1.345-1.626c.183-.229.335-.425.448-.577a4.21 4.21 0 0 0 .141-.202.778.778 0 0 0 .056-.097c.02-.039.064-.047.064-.256l-.081-.273s-.042-.055-.062-.076a.502.502 0 0 0-.054-.048c-.066-.05-.104-.064-.134-.076-.06-.023-.092-.026-.124-.032a2.04 2.04 0 0 0-.2-.028 13.527 13.527 0 0 0-.616-.038 88.473 88.473 0 0 0-2.186-.064 386.35 386.35 0 0 0-7.157-.058c-5.813 0-8.598.014-10.103-.26-.752-.137-1.165-.327-1.564-.63-.398-.303-.789-.753-1.376-1.395-1.832-2.006-2.437-3.427-3.474-8.237-1.237-5.723-1.767-7.522-2.72-8.94-.931-1.387-2.619-2.632-4.178-3.066-.246-.068-.525-.086-.978-.118-.454-.032-1.04-.06-1.721-.083a148.969 148.969 0 0 0-4.913-.08zm.992.993h6.049c1.794 0 3.531.03 4.88.077.674.024 1.25.053 1.686.083.435.03.771.08.783.084 1.24.344 2.857 1.528 3.62 2.664.83 1.236 1.34 2.888 2.573 8.595 1.047 4.853 1.788 6.59 3.712 8.696.576.63.99 1.123 1.507 1.518.519.394 1.13.657 1.987.814 1.712.312 4.47.277 10.28.277 2.782 0 5.31.022 7.138.058.876.017 1.563.038 2.066.06l-.073.095c-.358.446-.84 1.028-1.328 1.605a80.7 80.7 0 0 1-1.358 1.57c-.19.21-.35.386-.462.501l-.007.008-.134-.027-.963-.2c-.806-.168-1.906-.402-3.105-.659-1.696-.362-2.992-.627-4.046-.705-1.055-.078-1.907.038-2.586.511-.678.474-1.11 1.243-1.472 2.303-.363 1.06-.67 2.442-1.059 4.26l-.95 4.43-.687.337c-1.366.675-6.348 2.248-8.822 2.758-4.147.853-8.671 1.14-12.628.806-3.374-.287-7.329-1.09-10.459-2.008-1.565-.459-2.927-.946-3.895-1.401-.484-.228-.87-.45-1.122-.638-.252-.187-.336-.352-.332-.333-.069-.3-.53-2.417-1.01-4.659v-.002a58.4 58.4 0 0 0-.748-3.097c-.119-.434-.231-.81-.331-1.108-.1-.298-.16-.49-.29-.688-.602-.918-1.385-1.523-2.59-1.63-1.205-.108-2.815.172-5.42.748a193.321 193.321 0 0 1-3.423.725l-.153.029-.025-.023a11.39 11.39 0 0 1-.454-.46 49.709 49.709 0 0 1-1.312-1.465 50.26 50.26 0 0 1-1.267-1.517l-.052-.068c.2-.007.35-.013.62-.02a390.66 390.66 0 0 1 4.13-.065c3.486-.042 8.295-.076 13.587-.093l19.734-.068.074-7.326c.025-2.417.022-4.155-.016-5.333a17.814 17.814 0 0 0-.083-1.37 3.597 3.597 0 0 0-.07-.429c-.029-.122-.042-.226-.172-.383-.19-.23-.414-.287-.678-.343a7.407 7.407 0 0 0-1.06-.119c-.926-.055-2.36-.073-4.61-.073h-5.173zm10.754 8.469c-.002-.003.007.002.004 0v.002c-.01-.012.003.006-.004-.002zM35.796 98.748c-.798-.006-1.596.156-2.23.543-1.767 1.077-2.3 3.028-1.834 4.668.466 1.64 1.946 3.023 4.017 3.023 2.032.001 3.503-1.39 3.994-3.025.492-1.635.016-3.59-1.709-4.641l-.515.847c1.335.814 1.655 2.236 1.273 3.51-.383 1.273-1.456 2.319-3.043 2.317-1.64 0-2.704-1.038-3.064-2.302-.359-1.264.001-2.698 1.398-3.55.412-.252 1.057-.402 1.707-.398.65.004 1.3.162 1.727.423l.517-.847c-.64-.391-1.44-.563-2.238-.568zm56.65.105c-1.757-.279-3.662.642-4.51 2.395-.563 1.163-.575 2.312-.202 3.265.372.954 1.107 1.706 1.992 2.167 1.77.922 4.24.64 5.587-1.568 1.085-1.78.521-4.305-1.201-5.568a3.815 3.815 0 0 0-1.665-.691zm-.166.982c.443.067.868.234 1.244.51 1.278.936 1.713 2.983.94 4.252-1.094 1.795-2.895 1.924-4.279 1.203-.691-.36-1.252-.944-1.527-1.647-.275-.703-.286-1.53.17-2.473.655-1.35 2.124-2.046 3.452-1.845z"/></svg>
