<svg width="128" height="128" version="1.0" viewBox="0 0 128 128" xmlns="http://www.w3.org/2000/svg"><g transform="matrix(.025928 0 0 .025928 .14792 38.478)" fill="#390d09"><path d="m110 1680v-230h83c46 0 119-3 163-7l78-6-104-28c-58-15-131-37-162-49l-58-21v-469h93c50 0 123-3 161-7l70-6-123-33c-68-17-140-40-162-49l-39-18v-454l31-7c17-3 59-6 93-6 168 0 567-55 763-105 137-36 232-72 265-102 17-15 18-6 18 215v231l-24 18-24 19 48 42v501l-24 18-24 19 48 42v501l-26 20c-28 22-136 59-259 90-192 48-661 111-821 111h-64z"/><path d="m2550 1477c-122-28-238-124-281-235-17-43-23-78-23-148-1-85 1-95 37-166 43-87 98-142 186-185 51-26 66-28 171-28 109 0 119 2 180 32 36 18 77 45 92 60l26 28-52 59-53 59-41-31c-119-86-280-54-341 67-83 162 37 346 213 328 56-6 107-26 141-58 21-18 22-18 79 40l57 58-46 41c-83 73-226 106-345 79z"/><path d="m3140 1475c-77-22-125-58-155-118-44-90-29-187 40-253 52-50 104-69 247-89 58-8 118-20 133-27 50-23 44-91-11-114-71-30-174-6-236 53l-27 26-37-29c-85-67-78-58-59-87 20-31 65-66 125-97 35-19 66-25 140-28 109-5 156 5 223 48 36 23 54 43 72 83 24 50 25 61 25 253 0 211 1 218 45 226 17 3 20 12 23 63 3 83-4 90-83 90-63 0-68-2-96-33l-30-34-37 24c-52 35-92 46-175 53-49 3-90 0-127-10zm202-157c21-6 52-27 68-45 26-29 30-42 30-93v-59l-35 15c-19 7-44 14-56 14-61 0-152 24-180 47-47 40-31 103 31 126 27 10 102 7 142-5z"/><path d="m3867 1476c-28-8-62-27-82-46-63-61-65-75-65-552v-428h179l6 832 24 19c15 12 39 19 67 19h44v158l-31 6c-45 9-87 6-142-8z"/><path d="m4273 1480c-122-25-197-109-197-221 1-79 34-143 93-180 56-36 89-46 217-64 124-18 151-27 166-59 9-20 8-30-6-51-43-65-168-60-262 11l-46 35-55-47-56-48 56-52c75-70 140-94 256-94 102 0 161 17 215 62 68 56 76 86 76 305 0 211 6 243 45 243 24 0 25 2 25 70 0 79-9 90-80 90-47 0-92-20-113-50-14-21-15-21-63 9-70 43-177 59-271 41zm215-174c45-23 63-56 69-127 6-59 5-61-15-50-11 6-63 17-115 25s-109 22-126 31c-65 33-64 101 2 131 40 18 140 13 185-10z"/><path d="m1723 1470c-45-10-132-55-165-84-35-31-98-114-98-129 0-7 21-25 48-41 26-17 56-36 68-43 18-12 23-9 51 31 48 69 109 99 207 104 97 4 141-14 170-72 43-87-9-148-185-216-127-49-220-107-254-159-49-74-55-192-15-271 24-47 91-107 149-133 36-17 66-21 141-21 83 0 103 3 157 28 58 26 153 110 153 134 0 5-29 29-66 52l-65 43-15-22c-55-78-244-86-284-12-17 33-11 78 14 108 24 29 40 37 216 113 168 72 232 136 250 247 25 155-50 284-193 332-64 22-215 28-284 11z"/></g><g transform="matrix(.025928 0 0 .025928 .14792 38.478)" fill="#de3423"><path d="m110 1682v-229l175-7c182-7 317-22 515-56 225-39 447-109 470-149 6-10 10 67 10 216v232l-26 20c-28 22-136 59-259 90-192 48-661 111-821 111h-64z"/><path d="m110 1102v-229l175-6c194-8 345-25 545-62 224-42 428-110 443-147 3-7 6 90 6 216 1 200-1 232-16 248-35 39-305 109-583 152-169 26-449 56-527 56h-43z"/><path d="m110 526v-224l31-6c17-3 59-6 93-6 168 0 567-55 763-105 137-36 232-72 265-102 17-15 18-6 18 214 0 215-1 231-19 247-27 25-212 82-356 111-233 46-620 95-752 95h-43z"/></g></svg>