<svg xmlns="http://www.w3.org/2000/svg" viewBox="0 0 128 128"><path d="M12.1,102.4H9.8c-2.9,0-5.2-2.3-5.2-5.2v0c0-3,2.4-5.4,5.4-5.4h2.1v-4.2H9.3c-5.1,0-9.3,4.2-9.3,9.3v0    c0,5.7,4.6,10.3,10.3,10.3h1.8V102.4z"/><path d="M115.9,102.4h-2.3c-2.9,0-5.2-2.3-5.2-5.2v0c0-3,2.4-5.4,5.4-5.4h2.1v-4.2H113c-5.1,0-9.3,4.2-9.3,9.3v0    c0,5.7,4.6,10.3,10.3,10.3h1.8V102.4z"/><path d="M22.1,87.6c-4.5,0-8.1,4.4-8.1,9.8s3.6,9.8,8.1,9.8s8.1-4.4,8.1-9.8S26.6,87.6,22.1,87.6z M22.1,103.5c-2,0-3.5-2.7-3.5-6    c0-3.3,1.6-6,3.5-6c2,0,3.5,2.7,3.5,6C25.6,100.8,24,103.5,22.1,103.5z"/><path d="M 30.2,107.2 33.3,87.6 39.8,87.6 41.7,97.4 44.2,87.6 50.2,87.6 53.1,107.2 48.1,107.2 46.5,93.9 43.8,107.2     40.4,107.2 36.7,94.1 35,107.2   z"/><path d="M 54.2,107.2 57.3,87.6 63.8,87.6 65.6,97.4 68.1,87.6 74.2,87.6 77.1,107.2 72.1,107.2 70.4,93.9 67.7,107.2     64.4,107.2 60.6,94.1 59,107.2   z"/><path d="M 77.9,107.2 77.9,87.6 88.1,87.6 88.1,91.4 83,91.4 83,95.6 87.5,95.6 87.5,99.2 82.4,99.2 82.4,103 88.1,103     88.1,107.2   z"/><path d="M 117.8,107.2 117.8,87.6 128,87.6 128,91.4 122.9,91.4 122.9,95.6 127.4,95.6 127.4,99.2 122.3,99.2 122.3,103     128,103 128,107.2   z"/><path d="M100,98.1c1.6,0,3-1.3,3-3v-1.8c0-3.2-2.6-5.7-5.7-5.7h-7.4v19.6h4.6V98l5,9.2h5.1L100,98.1z M96.1,96.4h-1.7v-4.8h1.9    c1.3,0,2.3,1,2.3,2.3C98.5,95.3,97.4,96.4,96.1,96.4z"/><path fill="#7f54b3" d="M104,71.5H24.3c-6.4,0-11.7-5.2-11.7-11.7V32.4c0-6.4,5.2-11.7,11.7-11.7H104c6.4,0,11.7,5.2,11.7,11.7v27.4     C115.7,66.3,110.4,71.5,104,71.5z"/><path fill="#FFFFFF" d="M23.8,61.6c0,0,2.3,9.4,6.9,3.1c4.6-6.3,9-16.2,9-16.2s0.3-2.5,1.6,3c1.3,5.5,6.9,12.8,6.9,12.8     s5.1,6.3,7.2-0.3c-0.8-8.8,2.3-24.8,5.4-32.5c1.3-6.8-5.9-4.9-6.5-3.2S49.1,40,48.8,50.7c0,0-3.8-10.2-4.1-14     c-0.3-3.7-4.2-4.7-6.5-1.1S29,53.1,29,53.1l-4.4-22.7c0,0-4.4-5.8-7,1.3C17.6,31.7,22.2,59.6,23.8,61.6z"/><path fill="#FFFFFF" d="M82.7,36.7c-6.9-11.4-17-2.8-17-2.8s-7.7,8.9-4.2,21c5.6,12,13.3,6.6,15.4,5.7C79,59.6,88.2,49.2,82.7,36.7z      M77.5,46.7c0,4.8-3.9,9.2-7.2,8.2c-1.8-1-2.9-3.9-2.9-8.6c1.6-7.8,5.2-8.8,7-8.6C77.8,39.5,77.6,43.6,77.5,46.7z"/><path fill="#FFFFFF" d="M108.3,36.7c-6.9-11.4-17-2.8-17-2.8s-7.7,8.9-4.2,21c5.6,12,13.3,6.6,15.4,5.7     C104.7,59.6,113.9,49.2,108.3,36.7z M103.1,46.7c0,4.8-3.9,9.2-7.2,8.2c-1.8-1-2.9-3.9-2.9-8.6c1.6-7.8,5.2-8.8,7-8.6     C103.4,39.5,103.3,43.6,103.1,46.7z"/><path fill="#7f54b3" d="M 62,71.5 79.9,82 76.2,71.5 65.9,68.6    z"/></svg>