<svg xmlns="http://www.w3.org/2000/svg" viewBox="0 0 128 128"><path fill="#7E53A4" d="M12.1,102.4H9.8c-2.9,0-5.2-2.3-5.2-5.2v0c0-3,2.4-5.4,5.4-5.4h2.1v-4.2H9.3c-5.1,0-9.3,4.2-9.3,9.3v0    c0,5.7,4.6,10.3,10.3,10.3h1.8V102.4z"/><path fill="#7E53A4" d="M115.9,102.4h-2.3c-2.9,0-5.2-2.3-5.2-5.2v0c0-3,2.4-5.4,5.4-5.4h2.1v-4.2H113c-5.1,0-9.3,4.2-9.3,9.3v0    c0,5.7,4.6,10.3,10.3,10.3h1.8V102.4z"/><path fill="#7E53A4" d="M22.1,87.6c-4.5,0-8.1,4.4-8.1,9.8s3.6,9.8,8.1,9.8s8.1-4.4,8.1-9.8S26.6,87.6,22.1,87.6z M22.1,103.5    c-2,0-3.5-2.7-3.5-6c0-3.3,1.6-6,3.5-6c2,0,3.5,2.7,3.5,6C25.6,100.8,24,103.5,22.1,103.5z"/><path fill="#7E53A4" d="M 30.2,107.2 33.3,87.6 39.8,87.6 41.7,97.4 44.2,87.6 50.2,87.6 53.1,107.2 48.1,107.2 46.5,93.9     43.8,107.2 40.4,107.2 36.7,94.1 35,107.2   z"/><path fill="#7E53A4" d="M 54.2,107.2 57.3,87.6 63.8,87.6 65.6,97.4 68.1,87.6 74.2,87.6 77.1,107.2 72.1,107.2 70.4,93.9     67.7,107.2 64.4,107.2 60.6,94.1 59,107.2   z"/><path fill="#7E53A4" d="M 77.9,107.2 77.9,87.6 88.1,87.6 88.1,91.4 83,91.4 83,95.6 87.5,95.6 87.5,99.2 82.4,99.2 82.4,103     88.1,103 88.1,107.2   z"/><path fill="#7E53A4" d="M 117.8,107.2 117.8,87.6 128,87.6 128,91.4 122.9,91.4 122.9,95.6 127.4,95.6 127.4,99.2 122.3,99.2     122.3,103 128,103 128,107.2   z"/><path fill="#7E53A4" d="M100,98.1c1.6,0,3-1.3,3-3v-1.8c0-3.2-2.6-5.7-5.7-5.7h-7.4v19.6h4.6V98l5,9.2h5.1L100,98.1z M96.1,96.4h-1.7    v-4.8h1.9c1.3,0,2.3,1,2.3,2.3C98.5,95.3,97.4,96.4,96.1,96.4z"/><path fill="#7E53A4" d="M74.4,37.7c-1.9-0.2-5.4,0.8-7,8.6c0,4.8,1.1,7.6,2.9,8.6c3.3,1,7.2-3.4,7.2-8.2      C77.6,43.6,77.8,39.5,74.4,37.7z"/><path fill="#7E53A4" d="M100,37.7c-1.9-0.2-5.4,0.8-7,8.6c0,4.8,1.1,7.6,2.9,8.6c3.3,1,7.2-3.4,7.2-8.2      C103.3,43.6,103.4,39.5,100,37.7z"/><path fill="#7E53A4" d="M104,20.8H24.3c-6.4,0-11.7,5.2-11.7,11.7v27.4c0,6.4,5.2,11.7,11.7,11.7H104c6.4,0,11.7-5.2,11.7-11.7      V32.4C115.7,26,110.4,20.8,104,20.8z M48.1,64.2c0,0-5.5-7.3-6.9-12.8s-1.6-3-1.6-3s-4.4,9.9-9,16.2c-4.6,6.3-6.9-3.1-6.9-3.1      c-1.6-1.9-6.2-29.9-6.2-29.9c2.6-7.1,7-1.3,7-1.3L29,53.1c0,0,6.9-14,9.1-17.5c2.3-3.6,6.2-2.6,6.5,1.1c0.3,3.7,4.1,14,4.1,14      c0.3-10.7,4.7-20.9,5.4-22.6s7.8-3.6,6.5,3.2c-3.1,7.6-6.2,23.7-5.4,32.5C53.2,70.5,48.1,64.2,48.1,64.2z M76.9,60.6      c-2.1,1-9.9,6.3-15.4-5.7c-3.5-12.1,4.2-21,4.2-21s10.1-8.6,17,2.8C88.2,49.2,79,59.6,76.9,60.6z M102.6,60.6      c-2.1,1-9.9,6.3-15.4-5.7c-3.5-12.1,4.2-21,4.2-21s10.1-8.6,17,2.8C113.9,49.2,104.7,59.6,102.6,60.6z"/><path fill="#7E53A4" d="M 62,71.5 79.9,82 76.2,71.5 65.9,68.6    z"/></svg>