<svg xmlns="http://www.w3.org/2000/svg" viewBox="0 0 128 128"><path fill="#7E53A4" d="M12.1 102.4H9.8c-2.9 0-5.2-2.3-5.2-5.2 0-3 2.4-5.4 5.4-5.4h2.1v-4.2H9.3c-5.1 0-9.3 4.2-9.3 9.3 0 5.7 4.6 10.3 10.3 10.3h1.8v-4.8zM115.9 102.4h-2.3c-2.9 0-5.2-2.3-5.2-5.2 0-3 2.4-5.4 5.4-5.4h2.1v-4.2H113c-5.1 0-9.3 4.2-9.3 9.3 0 5.7 4.6 10.3 10.3 10.3h1.8v-4.8zM22.1 87.6c-4.5 0-8.1 4.4-8.1 9.8s3.6 9.8 8.1 9.8 8.1-4.4 8.1-9.8-3.6-9.8-8.1-9.8zm0 15.9c-2 0-3.5-2.7-3.5-6s1.6-6 3.5-6c2 0 3.5 2.7 3.5 6s-1.6 6-3.5 6zM30.2 107.2l3.1-19.6h6.5l1.9 9.8 2.5-9.8h6l2.9 19.6h-5l-1.6-13.3-2.7 13.3h-3.4l-3.7-13.1-1.7 13.1zM54.2 107.2l3.1-19.6h6.5l1.8 9.8 2.5-9.8h6.1l2.9 19.6h-5l-1.7-13.3-2.7 13.3h-3.3l-3.8-13.1-1.6 13.1zM77.9 107.2V87.6h10.2v3.8H83v4.2h4.5v3.6h-5.1v3.8h5.7v4.2zM117.8 107.2V87.6H128v3.8h-5.1v4.2h4.5v3.6h-5.1v3.8h5.7v4.2z"/><path fill="#7E53A4" d="M100 98.1c1.6 0 3-1.3 3-3v-1.8c0-3.2-2.6-5.7-5.7-5.7h-7.4v19.6h4.6V98l5 9.2h5.1l-4.6-9.1zm-3.9-1.7h-1.7v-4.8h1.9c1.3 0 2.3 1 2.3 2.3-.1 1.4-1.2 2.5-2.5 2.5zM74.4 37.7c-1.9-.2-5.4.8-7 8.6 0 4.8 1.1 7.6 2.9 8.6 3.3 1 7.2-3.4 7.2-8.2.1-3.1.3-7.2-3.1-9zM100 37.7c-1.9-.2-5.4.8-7 8.6 0 4.8 1.1 7.6 2.9 8.6 3.3 1 7.2-3.4 7.2-8.2.2-3.1.3-7.2-3.1-9z"/><path fill="#7E53A4" d="M104 20.8H24.3c-6.4 0-11.7 5.2-11.7 11.7v27.4c0 6.4 5.2 11.7 11.7 11.7H104c6.4 0 11.7-5.2 11.7-11.7V32.4c0-6.4-5.3-11.6-11.7-11.6zM48.1 64.2s-5.5-7.3-6.9-12.8-1.6-3-1.6-3-4.4 9.9-9 16.2c-4.6 6.3-6.9-3.1-6.9-3.1-1.6-1.9-6.2-29.9-6.2-29.9 2.6-7.1 7-1.3 7-1.3L29 53.1s6.9-14 9.1-17.5c2.3-3.6 6.2-2.6 6.5 1.1.3 3.7 4.1 14 4.1 14 .3-10.7 4.7-20.9 5.4-22.6s7.8-3.6 6.5 3.2c-3.1 7.6-6.2 23.7-5.4 32.5-2 6.7-7.1.4-7.1.4zm28.8-3.6c-2.1 1-9.9 6.3-15.4-5.7-3.5-12.1 4.2-21 4.2-21s10.1-8.6 17 2.8c5.5 12.5-3.7 22.9-5.8 23.9zm25.7 0c-2.1 1-9.9 6.3-15.4-5.7-3.5-12.1 4.2-21 4.2-21s10.1-8.6 17 2.8c5.5 12.5-3.7 22.9-5.8 23.9z"/><path fill="#7E53A4" d="M62 71.5L79.9 82l-3.7-10.5-10.3-2.9z"/></svg>