<svg version="1.1" xmlns="http://www.w3.org/2000/svg" xmlns:xlink="http://www.w3.org/1999/xlink" viewBox="0 0 128 128">
  <g transform="translate(0.738281, 121.593)">
    <path fill="#00618A" d="M1.263-31.135h4.108v-16.223l6.36,14.143c0.75,1.712,1.777,2.317,3.792,2.317s3.003-0.605,3.753-2.317l6.36-14.143v16.223h4.108v-16.196c0-1.58-0.632-2.345-1.936-2.739c-3.121-0.974-5.215-0.131-6.163,1.976l-6.241,13.958L9.361-48.095c-0.909-2.106-3.042-2.949-6.163-1.976c-1.304,0.395-1.936,1.159-1.936,2.739V-31.135z"
    />
  </g>
  <g transform="translate(100.444, 142.416)">
    <path fill="#00618A" d="M-66.545-65.164h4.107v8.938c-0.038,0.485,0.156,1.625,2.406,1.661c1.148,0.018,8.862,0,8.934,0v-10.643h4.117c0.019,0-0.004,14.514-0.004,14.574c0.022,3.58-4.441,4.357-6.499,4.417h-12.972v-2.764c0.022,0,12.963,0.003,12.995-0.001c2.645-0.279,2.332-1.593,2.331-2.035v-1.078h-8.731c-4.062-0.037-6.65-1.81-6.683-3.85C-66.546-56.132-66.455-65.074-66.545-65.164z"
    />
  </g>
  <g transform="translate(171.496, 124.557)">
    <path fill="#E48E00" d="M-114.866-34.099h11.812c1.383,0,2.727-0.289,3.793-0.789c1.777-0.816,2.646-1.922,2.646-3.372v-3.002c0-1.185-0.987-2.292-2.923-3.028c-1.027-0.396-2.292-0.605-3.517-0.605h-4.978c-1.659,0-2.449-0.5-2.646-1.606c-0.039-0.132-0.039-0.237-0.039-0.369v-1.87c0-0.105,0-0.211,0.039-0.342c0.197-0.843,0.632-1.08,2.094-1.212c0.119,0,0.276-0.026,0.395-0.026h11.733v-2.738h-11.535c-1.659,0-2.528,0.105-3.318,0.342c-2.449,0.764-3.517,1.975-3.517,4.082v2.396c0,1.844,2.095,3.424,5.61,3.793c0.396,0.025,0.79,0.053,1.185,0.053h4.267c0.158,0,0.316,0,0.435,0.025c1.304,0.105,1.856,0.343,2.252,0.816c0.237,0.237,0.315,0.475,0.315,0.737v2.397c0,0.289-0.197,0.658-0.592,0.974c-0.355,0.316-0.948,0.527-1.738,0.58c-0.158,0-0.276,0.026-0.435,0.026h-11.338V-34.099z"
    />
  </g>
  <g transform="translate(308.656, 124.557)">
    <path fill="#E48E00" d="M-208.145-38.865c0,2.817,2.094,4.397,6.32,4.714c0.395,0.026,0.79,0.052,1.185,0.052h10.706v-2.738h-10.784c-2.41,0-3.318-0.606-3.318-2.055V-53.06h-4.108V-38.865z" />
  </g>
  <g transform="translate(236.74, 124.666)">
    <path fill="#E48E00" d="M-159.237-38.832v-9.765c0-2.48,1.742-3.985,5.186-4.46c0.356-0.053,0.753-0.079,1.108-0.079h7.799c0.396,0,0.752,0.026,1.147,0.079c3.444,0.475,5.187,1.979,5.187,4.46v9.765c0,2.014-0.74,3.09-2.445,3.792l4.048,3.653h-4.771l-3.274-2.956l-3.296,0.209h-4.395c-0.752,0-1.543-0.105-2.414-0.343C-157.97-35.189-159.237-36.562-159.237-38.832z M-154.803-39.069c0,0.132,0.039,0.265,0.079,0.423c0.237,1.135,1.307,1.768,2.929,1.768h3.732l-3.428-3.095h4.771l2.989,2.7c0.552-0.295,0.914-0.743,1.041-1.32c0.039-0.132,0.039-0.264,0.039-0.396v-9.368c0-0.105,0-0.238-0.039-0.37c-0.238-1.056-1.307-1.662-2.89-1.662h-6.216c-1.82,0-3.008,0.792-3.008,2.032V-39.069z"
    />
  </g>
  <g transform="translate(241.59, -4.64258)">
    <path fill="#00618A" d="M-119.254,71.595c-2.525-0.069-4.454,0.166-6.104,0.861c-0.469,0.198-1.216,0.203-1.292,0.79c0.257,0.271,0.297,0.674,0.502,1.006c0.394,0.637,1.059,1.491,1.652,1.938c0.647,0.489,1.315,1.013,2.011,1.437c1.235,0.754,2.615,1.184,3.806,1.938c0.701,0.446,1.397,1.006,2.082,1.509c0.339,0.247,0.565,0.634,1.006,0.789c0-0.023,0-0.048,0-0.071c-0.231-0.294-0.291-0.698-0.503-1.006c-0.312-0.311-0.622-0.622-0.934-0.934c-0.913-1.212-2.071-2.275-3.304-3.159c-0.982-0.705-3.18-1.658-3.59-2.801c-0.024-0.023-0.048-0.048-0.072-0.071c0.696-0.079,1.512-0.331,2.154-0.503c1.08-0.29,2.045-0.215,3.16-0.503c0.502-0.144,1.005-0.287,1.508-0.432c0-0.095,0-0.19,0-0.286c-0.563-0.578-0.966-1.344-1.58-1.867c-1.607-1.369-3.363-2.737-5.17-3.879c-1.002-0.632-2.241-1.043-3.304-1.579c-0.356-0.181-0.984-0.274-1.221-0.575c-0.559-0.711-0.862-1.612-1.293-2.441c-0.9-1.735-1.786-3.631-2.585-5.458c-0.544-1.245-0.9-2.473-1.579-3.59c-3.261-5.361-6.771-8.597-12.208-11.777c-1.157-0.677-2.55-0.943-4.021-1.292c-0.789-0.047-1.58-0.095-2.37-0.144c-0.481-0.201-0.983-0.791-1.436-1.077c-1.802-1.138-6.422-3.613-7.756-0.358c-0.842,2.054,1.26,4.058,2.011,5.099c0.527,0.73,1.203,1.548,1.58,2.369c0.248,0.54,0.29,1.081,0.503,1.652c0.521,1.406,0.976,2.937,1.651,4.236c0.341,0.658,0.718,1.351,1.149,1.939c0.264,0.36,0.718,0.52,0.789,1.077c-0.443,0.62-0.469,1.584-0.718,2.369c-1.122,3.539-0.699,7.938,0.934,10.557c0.501,0.805,1.681,2.529,3.303,1.867c1.419-0.578,1.103-2.369,1.509-3.95c0.092-0.357,0.035-0.621,0.215-0.861c0,0.024,0,0.048,0,0.072c0.432,0.861,0.861,1.724,1.293,2.585c0.957,1.541,2.654,3.15,4.093,4.237c0.746,0.563,1.334,1.538,2.298,1.867c0-0.024,0-0.048,0-0.073c-0.024,0-0.048,0-0.071,0c-0.188-0.291-0.479-0.411-0.719-0.646c-0.562-0.551-1.187-1.235-1.651-1.867c-1.309-1.776-2.465-3.721-3.519-5.745c-0.503-0.966-0.94-2.032-1.364-3.016c-0.164-0.379-0.162-0.953-0.502-1.148c-0.466,0.72-1.149,1.303-1.509,2.154c-0.574,1.36-0.648,3.019-0.861,4.739c-0.126,0.045-0.07,0.014-0.144,0.071c-1.001-0.241-1.352-1.271-1.724-2.154c-0.94-2.233-1.115-5.83-0.287-8.401c0.214-0.666,1.181-2.761,0.789-3.376c-0.187-0.613-0.804-0.967-1.148-1.437c-0.427-0.579-0.854-1.341-1.149-2.011c-0.77-1.741-1.129-3.696-1.938-5.457c-0.388-0.842-1.042-1.693-1.58-2.441c-0.595-0.83-1.262-1.44-1.724-2.442c-0.164-0.356-0.387-0.927-0.144-1.293c0.077-0.247,0.188-0.35,0.432-0.431c0.416-0.321,1.576,0.107,2.01,0.287c1.152,0.479,2.113,0.934,3.089,1.58c0.468,0.311,0.941,0.911,1.508,1.077c0.215,0,0.431,0,0.646,0c1.011,0.232,2.144,0.071,3.088,0.358c1.67,0.508,3.166,1.297,4.524,2.155c4.139,2.614,7.522,6.334,9.838,10.772c0.372,0.715,0.534,1.396,0.861,2.154c0.662,1.528,1.496,3.101,2.154,4.596c0.657,1.491,1.298,2.996,2.227,4.237c0.488,0.652,2.374,1.002,3.231,1.364c0.601,0.254,1.585,0.519,2.154,0.861c1.087,0.656,2.141,1.437,3.16,2.155C-120.899,70.159-119.332,70.946-119.254,71.595z"
    />
  </g>
  <g transform="translate(272.504, 24.8027)">
    <path fill="#00618A" d="M-182.267,14.79c-0.526-0.01-0.899,0.058-1.293,0.144c0,0.024,0,0.048,0,0.071c0.024,0,0.049,0,0.072,0c0.251,0.517,0.694,0.849,1.005,1.293c0.239,0.503,0.479,1.006,0.719,1.508c0.023-0.023,0.048-0.047,0.071-0.071c0.445-0.313,0.648-0.814,0.646-1.58c-0.179-0.188-0.205-0.423-0.359-0.646C-181.61,15.209-182.008,15.041-182.267,14.79z"
    />
  </g>
</svg>
