<svg version="1.1" xmlns="http://www.w3.org/2000/svg" xmlns:xlink="http://www.w3.org/1999/xlink" viewBox="0 0 128 128">
  <path fill="#00618A" d="M125.477,122.783c-0.846-0.845-1.769-1.69-2.616-2.537c-2.479-3.292-5.668-6.184-9.015-8.585c-2.669-1.916-8.661-4.504-9.775-7.609c-0.064-0.065-0.139-0.131-0.205-0.195c1.893-0.214,4.103-0.898,5.85-1.367c2.934-0.786,5.356-0.583,8.386-1.365c1.366-0.39,2.899-0.781,3.899-1.171c0-0.26,0-0.52,0-0.78c-1-1.571-2.427-3.651-4.097-5.073c-4.369-3.72-9.041-7.437-13.951-10.537c-2.723-1.718-6.041-2.835-8.926-4.292c-0.971-0.491-2.652-0.746-3.294-1.562c-1.517-1.932-2.328-4.382-3.498-6.633c-2.449-4.717-4.849-9.868-7.019-14.831c-1.48-3.384-2.443-6.72-4.289-9.756c-8.86-14.567-18.395-23.358-33.167-32c-3.145-1.838-6.929-2.563-10.929-3.513c-2.144-0.129-4.291-0.26-6.437-0.391c-1.311-0.546-2.674-2.149-3.902-2.927C17.596,4.567,5.043-2.158,1.418,6.684c-2.289,5.581,3.42,11.025,5.462,13.854c1.435,1.982,3.27,4.207,4.293,6.438c0.675,1.467,0.79,2.938,1.367,4.489c1.418,3.822,2.651,7.98,4.487,11.511c0.927,1.788,1.949,3.67,3.122,5.268c0.718,0.981,1.95,1.413,2.145,2.927c-1.204,1.686-1.273,4.304-1.95,6.44c-3.05,9.615-1.898,21.567,2.537,28.683c1.36,2.186,4.566,6.871,8.975,5.073c3.856-1.57,3.226-6.438,4.329-10.732C36.434,79.663,36,78.947,37,78.294c0,0.064,0,0.131,0,0.195c1,2.341,2.11,4.683,3.282,7.024c2.6,4.187,6.889,8.562,10.798,11.514c2.027,1.531,3.92,4.177,5.92,5.073c0-0.065,0-0.101,0-0.101s0.288,0,0.221,0c-0.507-1-1.302-1.167-1.95-1.804c-1.527-1.496-3.226-3.382-4.487-5.097c-3.556-4.827-6.698-10.122-9.561-15.622c-1.368-2.626-2.557-5.529-3.709-8.201c-0.443-1.03-0.438-2.592-1.364-3.125c-1.263,1.958-3.122,3.54-4.099,5.853c-1.561,3.696-1.762,8.204-2.341,12.877c-0.343,0.122-0.19,0.038-0.391,0.194c-2.718-0.655-3.672-3.452-4.683-5.853c-2.555-6.07-3.029-15.843-0.781-22.829c0.582-1.809,3.211-7.501,2.146-9.172c-0.508-1.665-2.184-2.63-3.121-3.903c-1.161-1.574-2.319-3.646-3.123-5.464c-2.091-4.731-3.066-10.044-5.268-14.828c-1.053-2.287-2.832-4.602-4.293-6.634c-1.617-2.253-3.429-3.912-4.684-6.635c-0.445-0.968-1.051-2.518-0.39-3.513c0.21-0.671,0.507-0.951,1.171-1.17c1.133-0.873,4.283,0.29,5.463,0.779c3.129,1.3,5.741,2.5,8.392,4.256c1.271,0.844,2.559,1.89,4.097,2.89c0.585,0,1.171,0,1.756,0c2.747,0,5.824,0.232,8.391,1.012c4.535,1.379,8.6,3.542,12.292,5.873c11.246,7.102,20.441,17.22,26.732,29.278c1.012,1.942,1.45,3.799,2.341,5.858c1.798,4.153,4.064,8.428,5.853,12.489c1.786,4.053,3.526,8.142,6.05,11.514c1.327,1.772,6.451,2.724,8.78,3.709c1.633,0.689,4.308,1.409,5.854,2.34c2.953,1.782,5.814,3.904,8.586,5.855c1.384,0.974,5.64,3.114,5.853,4.878c-6.863-0.188-12.104,0.452-16.585,2.341c-1.273,0.537-3.305,0.552-3.513,2.147c0.7,0.733,0.809,1.829,1.365,2.731c1.069,1.73,2.876,4.052,4.488,5.268c1.762,1.33,3.576,2.751,5.464,3.902c3.359,2.047,7.107,3.217,10.341,5.268c1.906,1.21,3.958,2.733,5.815,4.097c0.92,0.675,0.891,1.724,2.891,2.147c0-0.064,0-0.13,0-0.194C126,124.716,126.053,123.618,125.477,122.783z"
  />
  <path fill="#00618A" d="M29.514,23.465C28.083,23.438,27,23.622,26,23.854C26,23.92,26,24,26,24s0.133,0,0.198,0c0.683,1,1.888,2.33,2.731,3.538c0.65,1.366,1.301,2.743,1.952,4.108c0.063-0.064,0.13-0.123,0.193-0.187c1.209-0.853,1.763-2.211,1.756-4.291c-0.483-0.509-0.556-1.146-0.974-1.754C31.298,24.605,30.217,24.146,29.514,23.465z"
  />
</svg>
