<?xml version="1.0" encoding="utf-8"?>
<!-- Generator: Adobe Illustrator 16.0.0, SVG Export Plug-In . SVG Version: 6.00 Build 0)  -->
<!DOCTYPE svg PUBLIC "-//W3C//DTD SVG 1.1//EN" "http://www.w3.org/Graphics/SVG/1.1/DTD/svg11.dtd">
<svg version="1.1" id="Layer_1" xmlns="http://www.w3.org/2000/svg" xmlns:xlink="http://www.w3.org/1999/xlink" x="0px" y="0px"
	 width="500px" height="500px" viewBox="0 0 500 500" enable-background="new 0 0 500 500" xml:space="preserve">
<g>
	<g transform="translate(241.59, -4.64258)">
		<path fill="#00618A" d="M215.24,386.703c-26.807-0.73-47.28,1.764-64.786,9.145c-4.974,2.1-12.906,2.156-13.719,8.39
			c2.732,2.865,3.158,7.143,5.333,10.667c4.178,6.761,11.234,15.827,17.531,20.579c6.881,5.193,13.971,10.747,21.346,15.244
			c13.118,7.998,27.762,12.568,40.393,20.58c7.444,4.725,14.839,10.674,22.101,16.003c3.592,2.636,6.005,6.735,10.671,8.386
			c0-0.252,0-0.508,0-0.759c-2.454-3.124-3.084-7.415-5.335-10.674c-3.3-3.3-6.602-6.603-9.908-9.908
			c-9.687-12.86-21.989-24.154-35.061-33.535c-10.426-7.484-33.757-17.595-38.108-29.725c-0.255-0.256-0.504-0.51-0.763-0.763
			c7.391-0.836,16.046-3.509,22.868-5.339c11.46-3.071,21.7-2.275,33.536-5.333c5.335-1.525,10.667-3.05,16.006-4.576
			c0-1.015,0-2.03,0-3.047c-5.982-6.138-10.246-14.263-16.769-19.817c-17.068-14.531-35.697-29.051-54.877-41.162
			c-10.638-6.711-23.786-11.075-35.061-16.765c-3.791-1.917-10.455-2.912-12.962-6.102c-5.923-7.547-9.146-17.117-13.715-25.911
			c-9.567-18.424-18.962-38.546-27.438-57.931c-5.784-13.218-9.561-26.25-16.769-38.109C25.144,129.338-12.109,94.997-69.814,61.24
			c-12.283-7.183-27.066-10.015-42.691-13.722c-8.376-0.504-16.766-1.015-25.149-1.525c-5.12-2.135-10.442-8.396-15.244-11.434
			c-19.116-12.077-68.154-38.347-82.313-3.807c-8.94,21.799,13.363,43.068,21.338,54.118c5.601,7.746,12.771,16.434,16.77,25.148
			c2.633,5.73,3.083,11.474,5.338,17.535c5.538,14.93,10.359,31.171,17.528,44.966c3.622,6.984,7.614,14.338,12.197,20.58
			c2.806,3.833,7.621,5.518,8.376,11.434c-4.701,6.586-4.973,16.813-7.616,25.156c-11.915,37.557-7.418,84.248,9.908,112.042
			c5.315,8.535,17.84,26.84,35.061,19.816c15.062-6.134,11.699-25.146,16.006-41.921c0.972-3.8,0.375-6.599,2.285-9.145
			c0,0.251,0,0.511,0,0.762c4.576,9.146,9.145,18.291,13.722,27.438c10.154,16.354,28.173,33.445,43.443,44.975
			c7.918,5.979,14.153,16.318,24.389,19.817c0-0.255,0-0.508,0-0.766c-0.258,0-0.507,0-0.762,0
			c-1.983-3.091-5.087-4.371-7.621-6.858c-5.965-5.846-12.598-13.118-17.528-19.816c-13.891-18.855-26.164-39.494-37.346-60.976
			c-5.346-10.26-9.988-21.574-14.488-32.013c-1.734-4.025-1.714-10.114-5.329-12.196c-4.934,7.647-12.196,13.834-16.01,22.868
			c-6.098,14.438-6.883,32.046-9.145,50.304c-1.337,0.478-0.743,0.149-1.525,0.759c-10.618-2.56-14.345-13.486-18.292-22.864
			c-9.978-23.71-11.832-61.884-3.051-89.175c2.272-7.063,12.542-29.301,8.383-35.827c-1.983-6.506-8.529-10.273-12.193-15.247
			c-4.533-6.148-9.06-14.239-12.2-21.342c-8.164-18.483-11.978-39.235-20.573-57.924c-4.112-8.933-11.062-17.973-16.772-25.912
			c-6.317-8.8-13.394-15.28-18.292-25.918c-1.741-3.78-4.105-9.836-1.525-13.722c0.822-2.62,1.983-3.714,4.576-4.569
			c4.424-3.409,16.733,1.134,21.339,3.044c12.223,5.08,22.427,9.914,32.779,16.772c4.967,3.296,9.995,9.67,16.003,11.434
			c2.285,0,4.573,0,6.858,0c10.731,2.467,22.752,0.763,32.776,3.808c17.718,5.385,33.595,13.761,48.016,22.867
			c43.931,27.742,79.851,67.229,104.422,114.331c3.953,7.587,5.664,14.823,9.146,22.868c7.023,16.222,15.874,32.915,22.86,48.779
			c6.978,15.83,13.775,31.801,23.63,44.972c5.187,6.924,25.202,10.638,34.301,14.485c6.377,2.693,16.825,5.504,22.867,9.142
			c11.537,6.961,22.715,15.247,33.538,22.871C197.784,371.455,214.41,379.815,215.24,386.703z"/>
	</g>
	<g transform="translate(272.504, 24.8027)">
		<path fill="#00618A" d="M-156.372,66.858c-5.591-0.106-9.543,0.61-13.722,1.519c0,0.259,0,0.511,0,0.763c0.255,0,0.511,0,0.763,0
			c2.666,5.478,7.375,9.006,10.671,13.722c2.541,5.338,5.08,10.671,7.624,16.003c0.249-0.251,0.508-0.504,0.759-0.756
			c4.723-3.329,6.884-8.648,6.858-16.772c-1.891-1.99-2.168-4.483-3.807-6.858C-149.408,71.315-153.626,69.518-156.372,66.858z"/>
	</g>
</g>
</svg>
