<?xml version="1.0" encoding="utf-8"?>
<!-- Generator: Adobe Illustrator 16.0.0, SVG Export Plug-In . SVG Version: 6.00 Build 0)  -->
<!DOCTYPE svg PUBLIC "-//W3C//DTD SVG 1.1//EN" "http://www.w3.org/Graphics/SVG/1.1/DTD/svg11.dtd">
<svg version="1.1" id="Layer_1" xmlns="http://www.w3.org/2000/svg" xmlns:xlink="http://www.w3.org/1999/xlink" x="0px" y="0px"
	 width="500px" height="500px" viewBox="0 0 500 500" enable-background="new 0 0 500 500" xml:space="preserve">
<g>
	<g transform="translate(0.738281, 121.593)">
		<path fill="#00618A" d="M7.079,231.759h16.048v-63.373l24.845,55.248c2.932,6.686,6.944,9.051,14.813,9.051
			c7.87,0,11.729-2.365,14.661-9.051l24.844-55.248v63.373h16.049v-63.268c0-6.174-2.47-9.158-7.562-10.699
			c-12.19-3.807-20.369-0.516-24.073,7.715L62.323,220.03l-23.61-54.523c-3.549-8.23-11.882-11.521-24.072-7.715
			c-5.093,1.541-7.562,4.525-7.562,10.699V231.759z"/>
	</g>
	<g transform="translate(100.444, 142.416)">
		<path fill="#00618A" d="M31.977,159.354h16.044v34.914c-0.15,1.896,0.608,6.348,9.4,6.486c4.484,0.07,34.616,0,34.897,0v-41.57
			H108.4c0.074,0-0.017,56.691-0.016,56.932c0.09,13.982-17.348,17.02-25.385,17.254H32.326v-10.797
			c0.089,0,50.637,0.01,50.765-0.002c10.328-1.092,9.108-6.225,9.106-7.953v-4.209H58.087c-15.87-0.146-25.977-7.07-26.102-15.041
			C31.974,194.629,32.328,159.703,31.977,159.354z"/>
	</g>
	<g transform="translate(171.496, 124.557)">
		<path fill="#E48E00" d="M49.716,228.795h46.139c5.401,0,10.649-1.131,14.815-3.086c6.943-3.189,10.338-7.508,10.338-13.17v-11.727
			c0-4.629-3.857-8.951-11.419-11.83c-4.013-1.545-8.95-2.367-13.734-2.367H76.41c-6.479,0-9.566-1.953-10.337-6.273
			c-0.155-0.516-0.155-0.928-0.155-1.441v-7.303c0-0.414,0-0.826,0.155-1.34c0.771-3.291,2.469-4.219,8.178-4.73
			c0.464,0,1.08-0.105,1.543-0.105h45.832v-10.697H76.566c-6.481,0-9.876,0.412-12.962,1.336
			c-9.567,2.984-13.734,7.717-13.734,15.947v9.361c0,7.203,8.18,13.373,21.912,14.814c1.545,0.102,3.087,0.205,4.629,0.205h16.667
			c0.617,0,1.234,0,1.698,0.104c5.092,0.412,7.252,1.336,8.796,3.188c0.925,0.926,1.233,1.854,1.233,2.881v9.363
			c0,1.131-0.771,2.572-2.313,3.805c-1.389,1.236-3.703,2.059-6.791,2.266c-0.617,0-1.078,0.102-1.696,0.102H49.716V228.795z"/>
	</g>
	<g transform="translate(308.656, 124.557)">
		<path fill="#E48E00" d="M83.964,210.175c0,11.006,8.178,17.18,24.689,18.414c1.542,0.102,3.087,0.205,4.629,0.205h41.82v-10.699
			h-42.129c-9.413,0-12.962-2.367-12.962-8.023v-55.348H83.964V210.175z"/>
	</g>
	<g transform="translate(236.74, 124.666)">
		<path fill="#E48E00" d="M66.007,210.625v-38.143c0-9.689,6.805-15.566,20.256-17.422c1.392-0.205,2.939-0.311,4.33-0.311h30.463
			c1.546,0,2.939,0.105,4.484,0.311c13.454,1.855,20.257,7.732,20.257,17.422v38.143c0,7.863-2.89,12.07-9.549,14.813l15.81,14.27
			h-18.636l-12.789-11.545l-12.876,0.816H90.593c-2.938,0-6.029-0.414-9.433-1.342C70.955,224.854,66.007,219.492,66.007,210.625z
			 M83.329,209.697c0,0.518,0.154,1.033,0.308,1.65c0.928,4.434,5.104,6.908,11.442,6.908h14.58l-13.393-12.09h18.635l11.68,10.545
			c2.152-1.148,3.57-2.902,4.064-5.156c0.153-0.514,0.153-1.031,0.153-1.547v-36.596c0-0.412,0-0.93-0.153-1.445
			c-0.929-4.123-5.104-6.494-11.287-6.494H95.079c-7.112,0-11.75,3.094-11.75,7.939V209.697z"/>
	</g>
	<g transform="translate(241.59, -4.64258)">
		<path fill="#00618A" d="M236.287,266.176c-9.865-0.27-17.4,0.648-23.843,3.365c-1.83,0.773-4.75,0.793-5.049,3.088
			c1.006,1.055,1.162,2.629,1.963,3.926c1.537,2.488,4.135,5.826,6.452,7.574c2.532,1.912,5.142,3.955,7.855,5.609
			c4.828,2.945,10.217,4.627,14.866,7.574c2.739,1.74,5.461,3.93,8.134,5.891c1.321,0.969,2.21,2.479,3.927,3.086
			c0-0.094,0-0.188,0-0.279c-0.903-1.15-1.135-2.729-1.964-3.93c-1.214-1.213-2.43-2.43-3.646-3.646
			c-3.564-4.732-8.092-8.889-12.903-12.342c-3.837-2.754-12.423-6.475-14.024-10.939c-0.094-0.094-0.186-0.188-0.28-0.279
			c2.72-0.309,5.905-1.293,8.415-1.965c4.218-1.131,7.986-0.838,12.343-1.963c1.963-0.563,3.926-1.123,5.891-1.686
			c0-0.373,0-0.746,0-1.121c-2.202-2.258-3.771-5.248-6.172-7.293c-6.281-5.348-13.138-10.691-20.196-15.148
			c-3.915-2.471-8.754-4.076-12.903-6.17c-1.395-0.705-3.848-1.072-4.771-2.246c-2.18-2.777-3.366-6.299-5.048-9.537
			c-3.521-6.779-6.979-14.186-10.098-21.32c-2.128-4.863-3.519-9.66-6.171-14.023c-12.738-20.943-26.448-33.582-47.686-46.006
			c-4.521-2.643-9.961-3.686-15.711-5.049c-3.083-0.186-6.171-0.373-9.256-0.563c-1.884-0.785-3.843-3.09-5.61-4.207
			c-7.035-4.445-25.083-14.113-30.294-1.4c-3.29,8.021,4.918,15.85,7.854,19.916c2.062,2.852,4.699,6.049,6.172,9.256
			c0.969,2.109,1.135,4.223,1.965,6.453c2.038,5.494,3.813,11.473,6.45,16.549c1.333,2.57,2.803,5.277,4.489,7.574
			c1.032,1.41,2.805,2.031,3.083,4.207c-1.731,2.424-1.831,6.188-2.804,9.258c-4.385,13.822-2.73,31.006,3.646,41.236
			c1.956,3.141,6.565,9.877,12.903,7.293c5.543-2.258,4.306-9.254,5.891-15.43c0.358-1.398,0.139-2.428,0.841-3.365
			c0,0.094,0,0.188,0,0.281c1.685,3.365,3.366,6.732,5.051,10.098c3.736,6.02,10.368,12.309,15.988,16.553
			c2.914,2.199,5.209,6.006,8.976,7.293c0-0.094,0-0.188,0-0.283c-0.095,0-0.187,0-0.28,0c-0.729-1.137-1.872-1.607-2.805-2.523
			c-2.195-2.15-4.636-4.828-6.451-7.293c-5.112-6.939-9.629-14.535-13.744-22.441c-1.967-3.775-3.676-7.939-5.332-11.781
			c-0.638-1.48-0.631-3.723-1.961-4.488c-1.816,2.814-4.488,5.092-5.892,8.416c-2.245,5.314-2.534,11.793-3.366,18.514
			c-0.492,0.176-0.273,0.055-0.562,0.279c-3.908-0.941-5.279-4.963-6.731-8.414c-3.673-8.727-4.354-22.775-1.123-32.82
			c0.836-2.6,4.615-10.783,3.085-13.186c-0.729-2.395-3.139-3.779-4.487-5.611c-1.668-2.262-3.334-5.24-4.49-7.854
			c-3.004-6.803-4.407-14.439-7.571-21.318c-1.513-3.287-4.071-6.615-6.173-9.535c-2.324-3.24-4.929-5.625-6.731-9.539
			c-0.641-1.393-1.511-3.621-0.562-5.051c0.303-0.965,0.73-1.367,1.685-1.682c1.628-1.254,6.158,0.418,7.854,1.121
			c4.498,1.869,8.253,3.648,12.063,6.172c1.828,1.213,3.678,3.559,5.89,4.209c0.841,0,1.683,0,2.523,0
			c3.949,0.908,8.373,0.279,12.063,1.4c6.521,1.982,12.364,5.064,17.672,8.416c16.168,10.209,29.387,24.742,38.431,42.076
			c1.454,2.793,2.084,5.455,3.365,8.416c2.585,5.971,5.842,12.113,8.414,17.953c2.567,5.826,5.069,11.703,8.696,16.551
			c1.908,2.549,9.275,3.914,12.624,5.33c2.347,0.992,6.192,2.025,8.416,3.365c4.245,2.563,8.359,5.611,12.343,8.418
			C229.863,260.564,235.982,263.641,236.287,266.176z"/>
	</g>
	<g transform="translate(241.59, -4.64258)">
		<path fill="#00618A" d="M236.287,266.176c-9.865-0.27-17.4,0.648-23.843,3.365c-1.83,0.773-4.75,0.793-5.049,3.088
			c1.006,1.055,1.162,2.629,1.963,3.926c1.537,2.488,4.135,5.826,6.452,7.574c2.532,1.912,5.142,3.955,7.855,5.609
			c4.828,2.945,10.217,4.627,14.866,7.574c2.739,1.74,5.461,3.93,8.134,5.891c1.321,0.969,2.21,2.479,3.927,3.086
			c0-0.094,0-0.188,0-0.279c-0.903-1.15-1.135-2.729-1.964-3.93c-1.214-1.213-2.43-2.43-3.646-3.646
			c-3.564-4.732-8.092-8.889-12.903-12.342c-3.837-2.754-12.423-6.475-14.024-10.939c-0.094-0.094-0.186-0.188-0.28-0.279
			c2.72-0.309,5.905-1.293,8.415-1.965c4.218-1.131,7.986-0.838,12.343-1.963c1.963-0.563,3.926-1.123,5.891-1.686
			c0-0.373,0-0.746,0-1.121c-2.202-2.258-3.771-5.248-6.172-7.293c-6.281-5.348-13.138-10.691-20.196-15.148
			c-3.915-2.471-8.754-4.076-12.903-6.17c-1.395-0.705-3.848-1.072-4.771-2.246c-2.18-2.777-3.366-6.299-5.048-9.537
			c-3.521-6.779-6.979-14.186-10.098-21.32c-2.128-4.863-3.519-9.66-6.171-14.023c-12.738-20.943-26.448-33.582-47.686-46.006
			c-4.521-2.643-9.961-3.686-15.711-5.049c-3.083-0.186-6.171-0.373-9.256-0.563c-1.884-0.785-3.843-3.09-5.61-4.207
			c-7.035-4.445-25.083-14.113-30.294-1.4c-3.29,8.021,4.918,15.85,7.854,19.916c2.062,2.852,4.699,6.049,6.172,9.256
			c0.969,2.109,1.135,4.223,1.965,6.453c2.038,5.494,3.813,11.473,6.45,16.549c1.333,2.57,2.803,5.277,4.489,7.574
			c1.032,1.41,2.805,2.031,3.083,4.207c-1.731,2.424-1.831,6.188-2.804,9.258c-4.385,13.822-2.73,31.006,3.646,41.236
			c1.956,3.141,6.565,9.877,12.903,7.293c5.543-2.258,4.306-9.254,5.891-15.43c0.358-1.398,0.139-2.428,0.841-3.365
			c0,0.094,0,0.188,0,0.281c1.685,3.365,3.366,6.732,5.051,10.098c3.736,6.02,10.368,12.309,15.988,16.553
			c2.914,2.199,5.209,6.006,8.976,7.293c0-0.094,0-0.188,0-0.283c-0.095,0-0.187,0-0.28,0c-0.729-1.137-1.872-1.607-2.805-2.523
			c-2.195-2.15-4.636-4.828-6.451-7.293c-5.112-6.939-9.629-14.535-13.744-22.441c-1.967-3.775-3.676-7.939-5.332-11.781
			c-0.638-1.48-0.631-3.723-1.961-4.488c-1.816,2.814-4.488,5.092-5.892,8.416c-2.245,5.314-2.534,11.793-3.366,18.514
			c-0.492,0.176-0.273,0.055-0.562,0.279c-3.908-0.941-5.279-4.963-6.731-8.414c-3.673-8.727-4.354-22.775-1.123-32.82
			c0.836-2.6,4.615-10.783,3.085-13.186c-0.729-2.395-3.139-3.779-4.487-5.611c-1.668-2.262-3.334-5.24-4.49-7.854
			c-3.004-6.803-4.407-14.439-7.571-21.318c-1.513-3.287-4.071-6.615-6.173-9.535c-2.324-3.24-4.929-5.625-6.731-9.539
			c-0.641-1.393-1.511-3.621-0.562-5.051c0.303-0.965,0.73-1.367,1.685-1.682c1.628-1.254,6.158,0.418,7.854,1.121
			c4.498,1.869,8.253,3.648,12.063,6.172c1.828,1.213,3.678,3.559,5.89,4.209c0.841,0,1.683,0,2.523,0
			c3.949,0.908,8.373,0.279,12.063,1.4c6.521,1.982,12.364,5.064,17.672,8.416c16.168,10.209,29.387,24.742,38.431,42.076
			c1.454,2.793,2.084,5.455,3.365,8.416c2.585,5.971,5.842,12.113,8.414,17.953c2.567,5.826,5.069,11.703,8.696,16.551
			c1.908,2.549,9.275,3.914,12.624,5.33c2.347,0.992,6.192,2.025,8.416,3.365c4.245,2.563,8.359,5.611,12.343,8.418
			C229.863,260.564,235.982,263.641,236.287,266.176z"/>
	</g>
	<g transform="translate(272.504, 24.8027)">
		<path fill="#00618A" d="M79.986,129.856c-2.058-0.039-3.512,0.225-5.05,0.559c0,0.096,0,0.188,0,0.279c0.094,0,0.188,0,0.281,0
			c0.98,2.018,2.714,3.316,3.927,5.051c0.935,1.965,1.87,3.928,2.806,5.891c0.092-0.094,0.187-0.186,0.279-0.279
			c1.738-1.225,2.534-3.182,2.524-6.172c-0.696-0.732-0.799-1.65-1.401-2.525C82.55,131.494,80.997,130.834,79.986,129.856z"/>
	</g>
</g>
</svg>
