<svg xmlns="http://www.w3.org/2000/svg" viewBox="0 0 128 128"><path d="M31.393 97.211c-.375 0-.75.108-1.074.322-.325.215-.621.584-.621 1.057 0 .063-.037.203.084.445l-.03-.076 6.57 21.318c.117.397.395.701.71.875.314.174.662.238.998.238.714 0 1.495-.34 1.734-1.105l.002-.002 6.565-21.396v-.076c0 .103.03.042.03-.188 0-.48-.306-.837-.636-1.06a2 2 0 00-1.12-.352c-.498 0-1.07.3-1.263.875l-.002.008-5.312 17.727-5.332-17.697c-.078-.313-.287-.571-.531-.717s-.514-.195-.772-.195zm52.336 1.1c-1.04 0-1.914.794-1.914 1.789 0 .995.861 1.822 1.914 1.822 1.033 0 1.853-.842 1.853-1.822 0-.98-.834-1.79-1.853-1.79zm-15.406 6.826c-3.57 0-6.508 2.855-6.508 6.287v3.521c0 1.923.765 3.572 2.065 4.71 1.3 1.137 3.115 1.767 5.197 1.767 1.538 0 2.792-.343 3.688-.81.447-.234.805-.497 1.07-.782.265-.285.46-.598.46-.984 0-.356-.138-.664-.36-.942-.223-.277-.57-.533-1.02-.533-.325 0-.577.138-.795.272s-.422.281-.67.424c-.495.285-1.152.562-2.31.562-1.29 0-2.366-.366-3.108-.984-.742-.619-1.174-1.48-1.174-2.604v-.664h6.61c.703 0 1.484.002 2.156-.428.672-.429 1.08-1.284 1.08-2.588 0-3.61-3.011-6.224-6.38-6.224zm24.793 0c-1.898 0-3.294.613-4.19 1.535-.895.922-1.28 2.121-1.28 3.242 0 1.43.577 2.451 1.404 3.108.826.656 1.855.987 2.836 1.283.98.296 1.92.56 2.552.949.633.39.977.814.977 1.705 0 .48-.145.862-.535 1.174-.39.312-1.083.56-2.205.56-1.329 0-2.075-.331-2.616-.666-.27-.167-.486-.34-.709-.494-.223-.154-.475-.318-.826-.318-.422 0-.735.26-.926.531-.19.271-.298.58-.298.912 0 .411.199.771.484 1.086.285.315.672.598 1.146.844.949.491 2.254.834 3.807.834 1.686 0 3.071-.412 4.05-1.21.98-.796 1.515-1.98 1.515-3.347 0-1.544-.56-2.653-1.387-3.386-.827-.734-1.872-1.112-2.867-1.416-.995-.305-1.953-.542-2.596-.877-.644-.34-.952-.65-.952-1.37 0-.388.157-.876.55-1.26.394-.384 1.034-.696 2.096-.696.85 0 1.48.198 1.985.405.252.103.472.209.68.299.207.09.398.177.67.177.49 0 .827-.324 1.029-.627.202-.302.32-.601.32-.941 0-.425-.267-.727-.562-.955-.295-.228-.666-.41-1.096-.568-.86-.316-1.956-.518-3.057-.518zm-44.959.187c-.826 0-1.537.521-1.537 1.287v8.399c0 3.4 2.891 6.412 6.476 6.412 3.525 0 6.475-2.977 6.475-6.412v-8.43c0-.384-.208-.718-.486-.93s-.635-.326-1.02-.326a1.73 1.73 0 00-1.025.32c-.285.208-.512.54-.512.936v8.43c0 1.793-1.56 3.525-3.431 3.525-1.902 0-3.432-1.763-3.432-3.525v-8.399c0-.397-.218-.705-.488-.923s-.625-.364-1.02-.364zm35.572 0c-.387 0-.746.1-1.03.315s-.476.566-.476.941v15.475c0 1.162-.08 2.138-.336 2.73-.256.594-.566.858-1.43.858-.753 0-1.38.657-1.38 1.445 0 .328.107.685.375.965.267.28.682.447 1.164.447 1.63 0 2.876-.722 3.619-1.896.743-1.174 1.033-2.748 1.033-4.549V106.58c0-.399-.228-.746-.518-.951a1.753 1.753 0 00-1.021-.305zm-15.439 2.51c2.048 0 3.432 1.716 3.432 3.463 0 .19-.021.316-.041.375s-.02.054-.051.074c-.061.04-.377.121-.98.121h-5.792v-.695c0-1.829 1.527-3.338 3.432-3.338zm9.75 9.631c-1.109 0-1.945.917-1.945 1.978 0 1.02.824 1.948 1.945 1.948 1.06 0 1.916-.9 1.916-1.948 0-1.087-.87-1.978-1.916-1.978z" fill="#35495e" style="block-progression:tb;isolation:auto;mix-blend-mode:normal;solid-color:#000;text-decoration-color:#000;text-decoration-line:none;text-decoration-style:solid;text-indent:0;text-transform:none;white-space:normal"/><path fill="#35495e" d="M7.941 0L51.61.139l12.523 21.385L76.66.139l43.4-.138-55.914 96.466zm111.23.558L97.827.576 64.127 58.434 30.447.577 8.767.56l55.369 94.5z"/></svg>