<svg xmlns="http://www.w3.org/2000/svg" viewBox="0 0 128 128"><path d="M84.3055 51.2969c-2.044 0-3.736.5823-4.9186 1.6426-1.1828 1.0602-1.8276 2.591-1.8276 4.3535 0 1.6602.507 3.0182 1.5252 3.9785.8999.9028 2.1924 1.3885 3.7695 1.6426h.0059l2.2035.3086h.002c.8908.1156 1.4104.3304 1.7675.666l.0059.0059.0039.0039c.3963.3522.564.8133.564 1.5898 0 .8133-.2671 1.3581-.7985 1.7617-.5314.4037-1.3812.6543-2.5466.6543-1.8159 0-3.1594-.3769-4.438-1.664l-.3508-.3535-2.562 2.584.3565.3535c1.913 1.8942 4.0813 2.6289 6.9652 2.6289 2.0535 0 3.8416-.5441 5.1358-1.588 1.2942-1.0437 2.0659-2.6 2.0659-4.4687 0-1.7608-.5725-3.2149-1.6841-4.2344-.904-.8427-1.9855-1.2563-3.7327-1.539h-.002l-2.2151-.336c-.9595-.1757-1.4136-.3814-1.7868-.7304a1.7648 1.7648 0 0 1-.5194-1.332l.002-.0118v-.0117c0-.726.2403-1.3006.7035-1.7207.463-.42 1.1785-.6973 2.1841-.6973 1.5472 0 2.7188.299 3.7753 1.3067l.3469.332 2.5077-2.4824-.376-.3555c-1.6631-1.578-3.547-2.287-6.1318-2.287zm20.233.123v3.8184l3.8275.043v-3.8614zm-79.7532.0625v19.8164h8.0272c1.754 0 3.2931-.4972 4.3974-1.4941 1.1042-.997 1.7384-2.4842 1.7384-4.3164 0-2.2463-1.2078-3.602-2.5485-4.379.5732-.3696 1.1633-.7352 1.533-1.3183.5024-.7924.7594-1.7195.7403-2.6601-.0021-1.708-.6055-3.1518-1.692-4.1387-1.0881-.9885-2.6277-1.5098-4.4438-1.5098zm59.5202.8145c2.1898 0 3.6284.5708 5.006 1.7265l-1.097 1.086c-1.177-.9316-2.5192-1.3262-4.031-1.3262-1.1895 0-2.167.3383-2.847.955-.677.6142-1.028 1.4936-1.031 2.4513-.016.3838.0439.7684.184 1.127.1413.3624.3576.6893.6319.9608l.0059.004.0039.0038c.5414.5085 1.2434.7942 2.2927.9864l.0077.002 2.2287.3379c1.6673.2698 2.4747.593 3.217 1.2851l.002.002c.8982.8222 1.3625 1.9452 1.3625 3.498 0 1.6002-.6165 2.8222-1.6919 3.6895-1.0753.8673-2.6383 1.3672-4.5175 1.3672-2.5147 0-4.2189-.6228-5.8412-2.0605l1.1609-1.17c1.3736 1.184 2.9211 1.6817 4.7094 1.6817 1.304 0 2.3717-.2712 3.1434-.8574.7718-.5863 1.1938-1.4993 1.1938-2.5586 0-.939-.2588-1.7635-.8934-2.332-.5572-.5223-1.3157-.7962-2.314-.9258l-2.1802-.3047-.0097-.002c-1.463-.237-2.5403-.6755-3.223-1.3633l-.0077-.006-.006-.0058c-.8073-.7585-1.2131-1.7884-1.2131-3.2559 0-1.5222.5275-2.7388 1.4942-3.6054.9667-.8667 2.4016-1.3907 4.2597-1.3907zm21.2252.123h1.843v1.8496l-1.843-.0195Zm-79.7532.0625h6.7598c1.629 0 2.9098.4605 3.781 1.252.8713.7914 1.3644 1.9236 1.3644 3.4043v.0098a3.7824 3.7824 0 0 1-.5872 2.1035 3.7335 3.7335 0 0 1-1.6473 1.418l-1.0795.4765 1.093.4453c1.2827.522 2.4943 1.6945 2.4943 3.8965 0 1.606-.5242 2.7735-1.409 3.5723-.8847.7988-2.1654 1.2383-3.7345 1.2383h-7.035zm84.1583.5957v3.8067h-1.5252v3.0566h1.5252v7.1445c0 1.0677.3205 2.1177 1.0174 2.9121.697.7945 1.771 1.3008 3.1377 1.3008h2.0814V67.998h-1.595c-.4076 0-.6062-.102-.7384-.25-.1321-.148-.2287-.4034-.2287-.8164v-6.959h2.5621V56.916h-2.562v-3.8379zm-82.3152.9824v6.3711h4.7035c.9862 0 1.8684-.2608 2.5175-.8125.6491-.5516 1.0272-1.3938 1.0272-2.3886 0-.995-.3797-1.8337-1.035-2.377-.6552-.5433-1.5435-.793-2.5407-.793zm83.3074.0176h1.69v3.838h2.562v1.0566h-2.562v7.959c0 .5693.1346 1.0967.4826 1.4863.3479.3896.8785.58 1.4767.58h.6027v1.3008h-1.0891c-1.1332 0-1.8879-.3843-2.3954-.9629-.5076-.5785-.7675-1.3837-.7675-2.25v-8.1445h-1.5252v-1.0566h1.5252zm-82.3152.9824h3.6803c.8321 0 1.4837.2103 1.911.5645.427.3542.6724.8506.6724 1.6055 0 .7549-.249 1.2634-.6744 1.625-.4255.3615-1.0654.5761-1.878.5761h-3.7113zm93.2514 1.6407c-1.8267 0-3.3985.6853-4.4768 1.9648s-1.659 3.1156-1.659 5.3809c0 2.6353.6952 4.5068 1.8877 5.7031s2.834 1.6719 4.5834 1.6719c2.4173 0 3.8988-.8034 5.3199-2.2344l.3643-.3672-2.4341-2.2754-.3392.3399c-.8997.906-1.48 1.2343-2.8799 1.2343-.992 0-1.674-.3008-2.1434-.83-.373-.4205-.5045-1.1497-.5911-1.918l8.504-.0625v-1.6309c0-2.0386-.5417-3.782-1.6008-5.0254-1.059-1.2434-2.6328-1.9511-4.535-1.9511zm-52.5279.0293c-1.1238 0-2.1078.4023-3.0097 1.0996v-.914h-3.6144v1.1952c-.4424-.439-.9566-.8016-1.535-1.0312a4.5868 4.5868 0 0 0-1.6821-.3242 4.2644 4.2644 0 0 0-.219.0059c-1.1898 0-2.2104.4538-3.0408 1.084v-.9298H52.621v14.3828h3.6745v-8.6347c0-1.6193.9914-2.5078 2.157-2.5078.8153 0 1.0547.1651 1.6299.744l.3508.3536 2.279-2.295v17.7442h3.6746v-6.2949c.8822.6658 1.865 1.0415 2.971 1.043a4.9747 4.9747 0 0 0 3.5756-1.3282l.0097-.0078.0097-.0098c1.452-1.4969 1.6357-3.8168 1.6357-6.0293s-.1864-4.504-1.6357-5.998l-.002-.002-.002-.002c-.839-.8446-2.102-1.3437-3.6125-1.3437zm-29.733.1855v9.0332c0 1.5722.3432 3.0118 1.4923 4.1348l.0097.0098.0097.0078c1.0548.9204 2.419 1.4041 3.814 1.3476 1.0446-.0422 1.996-.4685 2.845-1.0585v.9082h3.6125V56.916H47.712v8.664c0 .9264-.2685 1.5174-.6608 1.9005-.3923.383-.9415.578-1.5873.578-.6491 0-1.1772-.1873-1.5523-.5624-.3751-.375-.6337-.9679-.6337-1.916v-8.664zm52.0105 0v9.0332c0 1.579.3742 3.0088 1.4864 4.129l.0117.0117.0135.0117c1.0548.9204 2.419 1.404 3.814 1.3476 1.0437-.0422 1.9946-.4675 2.8431-1.0566v.9062h3.6144V56.916h-3.6745v8.664c0 .9264-.2685 1.5174-.6608 1.9005-.3923.383-.9415.578-1.5873.578-.6491 0-1.1752-.1873-1.5504-.5624-.3751-.375-.6356-.9679-.6356-1.916v-8.664zm13.0176 0v14.3828h3.6745V56.916Zm17.2328.7852c1.665 0 2.9122.5814 3.7811 1.6015.869 1.0202 1.3624 2.515 1.3624 4.375v.6387l-8.657.0625v.4961c0 1.252.3224 2.3205.996 3.08.6738.7596 1.6809 1.1641 2.8838 1.1641 1.3878 0 2.3102-.4728 3.1861-1.2402l.9807.916c-1.149 1.0532-2.2172 1.627-4.1978 1.627-1.5737 0-2.9196-.4137-3.8838-1.3809-.9641-.9672-1.595-2.5336-1.595-4.9941 0-2.0938.5347-3.6809 1.4226-4.7344.8878-1.0535 2.1332-1.6113 3.721-1.6113zm-52.5279.0293c1.2937 0 2.2842.4208 2.909 1.0488 1.11 1.1462 1.3508 3.1514 1.3508 5.2969 0 2.1421-.2459 4.1758-1.3489 5.3203-.779.718-1.8044 1.0992-2.8605 1.0566h-.0194c-1.3232 0-2.2358-.2645-3.0892-1.3457l-.8837-1.121v7.7167h-1.6899v-17.787h1.6299v2.3026l.8779-1.0722c.9242-1.1282 1.8083-1.416 3.124-1.416zm-9.8432.0254a3.608 3.608 0 0 1 1.3218.2539c.3246.1289.5871.3631.8605.5781l-1.2946 1.3066c-.5368-.4353-1.1135-.7382-1.9284-.7382-1.6998 0-3.1492 1.4433-3.1492 3.5078v7.6347h-1.69V57.916h1.6299v2.5098l.8992-1.2793c.5466-.7758 1.7817-1.3848 3.1338-1.3848h.0252a3.542 3.542 0 0 1 .1918-.0059zm-18.8975.1601h1.69v7.664c0 1.1394.3339 2.0347.9263 2.627.5924.5924 1.407.8516 2.252.8516.8482 0 1.6708-.2674 2.2771-.8594.6063-.592.9632-1.4886.9632-2.6191v-7.664h1.69v12.3827h-1.628v-2.0722l-.8507.871c-.8018.8217-1.8843 1.3054-3.0272 1.3516-1.1375.046-2.2478-.3482-3.1105-1.0957-.9153-.9009-1.1822-1.9738-1.1822-3.4043zm52.0105 0h1.6899v7.664c0 1.1394.3359 2.0347.9283 2.627.5924.5924 1.4052.8516 2.25.8516.8483 0 1.6728-.2674 2.2791-.8594.6064-.592.9613-1.4887.9613-2.6191v-7.664h1.69v12.3827h-1.63v-2.0722l-.8488.871c-.8012.8216-1.8842 1.3054-3.0271 1.3516-1.1369.046-2.246-.349-3.1086-1.0957-.8878-.903-1.1841-1.983-1.1841-3.4043zm13.0176 0h1.69v12.3828h-1.69zm16.0429 1.088a3.3947 3.3947 0 0 0-1.2927.3222l-.002.002h-.002a3.4896 3.4896 0 0 0-1.6357 1.6465l-.004.0098-.002.0078a4.6574 4.6574 0 0 0-.376 2.0293l.0194.4804h6.942l.004-.496a4.97 4.97 0 0 0-.407-2.0137l-.002-.006-.004-.0077a3.4277 3.4277 0 0 0-.7869-1.0782c-.3293-.3032-.7136-.5412-1.1356-.6953h-.002a3.378 3.378 0 0 0-1.314-.2011zm-53.0008.1523c-1.3579 0-2.2962.6607-2.75 1.6054-.454.9447-.5214 2.1087-.5214 3.3145 0 1.2057.0685 2.3766.5213 3.3281.4528.9515 1.3901 1.623 2.75 1.623 1.36 0 2.2905-.6747 2.7346-1.627.444-.9521.5058-2.1206.5058-3.3241 0-1.2057-.0685-2.3686-.5174-3.3125-.449-.944-1.3786-1.6075-2.723-1.6075zm53.0453.8476a2.3978 2.3978 0 0 1 .9322.1426c.297.1084.571.2756.8062.4922.2335.215.4197.4748.5543.7636.0004.0009.002.0011.002.002.1482.3466.174.725.219 1.0977h-4.7927c.0355-.3737.0555-.7527.2035-1.0996.2456-.5122.6538-.9267 1.1628-1.1719a2.411 2.411 0 0 1 .9128-.2265zm-53.0453.1523c1.0642 0 1.5064.364 1.8275 1.0391.321.6751.4206 1.7229.4206 2.8809 0 1.1602-.0926 2.216-.4109 2.8984-.3183.6825-.7582 1.0527-1.8372 1.0527-1.0791 0-1.5297-.3716-1.8547-1.0546-.325-.6831-.4244-1.7386-.4244-2.8965 0-1.158.0985-2.2046.4224-2.879.324-.6742.7755-1.041 1.8567-1.041zm-41.0452 1.8243v6.7402h4.9477c1.0788 0 1.9875-.3484 2.6163-.9629.6289-.6145.9594-1.4787.9594-2.4219 0-.9431-.3311-1.803-.9613-2.4101-.6302-.607-1.538-.9453-2.6144-.9453zm.9922 1h3.9555c.8749 0 1.5066.2617 1.9283.668.4218.4062.655.973.655 1.6874 0 .7145-.2338 1.2917-.6569 1.7051-.4231.4135-1.054.6797-1.9264.6797h-3.9555zM0 51.3887v19.9726h19.8317V51.3887Zm.9923 1h17.8471v17.9726H.9923Zm7.7268 1.6406v1.9805l-4.1473 5.1289H8.719v2.9765h1.405l-1.405 1.748v2.8888h2.4555v-1.9825l4.1086-5.127h-4.1086v-2.9784H9.7405l1.434-1.7774v-2.8574zm.9923 1h.471v1.502L7.6531 59.664h2.5291v2.9785h3.0233l-3.0233 3.7754v1.334h-.471v-1.5332l2.4943-3.1036H9.7114v-2.9765H6.661l3.0504-3.7735z" style="fill:#00a2b9"/></svg>
