<?xml version="1.0" encoding="utf-8"?>
<!-- Generator: Adobe Illustrator 16.0.0, SVG Export Plug-In . SVG Version: 6.00 Build 0)  -->
<!DOCTYPE svg PUBLIC "-//W3C//DTD SVG 1.1//EN" "http://www.w3.org/Graphics/SVG/1.1/DTD/svg11.dtd">
<svg version="1.1" id="Layer_1" xmlns="http://www.w3.org/2000/svg" xmlns:xlink="http://www.w3.org/1999/xlink" x="0px" y="0px"
	 width="500px" height="500px" viewBox="0 0 500 500" enable-background="new 0 0 500 500" xml:space="preserve">
<g>
	<path fill-rule="evenodd" clip-rule="evenodd" fill="#C4473A" d="M91.852,196.466c-8.555-2.948-17.121-5.867-25.67-8.832
		c-0.84-0.291-1.555-0.305-2.4-0.006c-10.896,3.862-21.806,7.685-32.711,11.524c-4.424,1.558-8.613,3.151-13.044,4.69
		C13.951,205.257,9,206.621,6,208.009c0,0.169,0,0.34,0,0.51c0,0.112,0.187,0.209,0.205,0.339c0.125,0.92,0.073,1.848,0.18,2.77
		c0.279,2.43,0.505,4.859,0.802,7.286c0.386,3.179,0.772,6.352,1.15,9.531c0.379,3.183,0.697,6.371,1.083,9.553
		c0.38,3.136,0.818,6.264,1.192,9.399c0.386,3.224,0.689,6.46,1.084,9.683c0.55,4.473,1.176,8.937,1.719,13.411
		c0.554,4.562,1.021,9.135,1.598,13.693c0.062,0.493,0.481,1.106,0.914,1.359c4.313,2.511,8.658,4.969,13.005,7.42
		c5.591,3.152,11.202,6.269,16.786,9.434c5.979,3.39,11.938,6.818,17.843,10.194c3.403-1.867,6.708-3.697,10.029-5.5
		c6.051-3.288,12.109-6.56,18.164-9.838c7.385-4,14.776-7.986,22.14-12.024c0.466-0.256,0.945-0.872,1.021-1.38
		c0.358-2.377,0.578-4.772,0.846-7.162c0.354-3.143,0.688-6.288,1.065-9.429c0.391-3.261,0.833-6.517,1.233-9.777
		c0.294-2.385,0.544-4.775,0.837-7.16c0.39-3.177,0.823-6.349,1.2-9.528c0.377-3.182,0.688-6.371,1.066-9.554
		c0.392-3.305,0.825-6.604,1.247-9.905c0.315-2.463,0.665-4.923,0.955-7.391c0.245-2.09,0.425-4.187,0.636-6.299
		c-1.449-0.522-2.775-1.016-4.113-1.48C110.544,202.926,101.2,199.688,91.852,196.466z M100.772,279.364
		c-3.704-0.057-7.409-0.139-11.113-0.168c-0.752-0.007-1.103-0.277-1.397-0.971c-2.337-5.486-4.75-10.941-7.068-16.437
		c-0.38-0.901-0.839-1.183-1.783-1.169c-4.471,0.069-8.943,0.102-13.415,0.079c-5.573-0.026-11.146-0.094-16.718-0.202
		c-0.969-0.02-1.414,0.303-1.763,1.197c-2.101,5.379-4.283,10.728-6.387,16.106c-0.311,0.796-0.686,1.108-1.561,1.1
		c-4.127-0.046-8.256-0.021-12.569-0.021c12.126-26.98,24.281-54.025,36.599-81.436c12.851,27.445,25.553,54.574,38.315,81.83
		C101.415,279.315,101.094,279.368,100.772,279.364z"/>
	<path fill-rule="evenodd" clip-rule="evenodd" fill="#C4473A" d="M171,266.411c-1,0.051-0.54,0.1-0.639,0.15
		c-0.664-0.936-1.474-1.889-2.167-2.802c-9.312-12.282-18.715-24.56-28.048-36.827c-0.236-0.309-0.266-0.674-0.604-0.686
		c-1.947-0.065-3.541-0.031-5.541-0.031c0,16.843,0,33.784,0,49.784c2,0,4,0,6,0c0-13,0-26.579,0-40.276
		c0,0.46,0.233,0.705,0.434,0.97c2.588,3.431,4.988,6.863,7.573,10.296c7.198,9.553,14.296,19.108,21.503,28.653
		c0.237,0.314,0.337,0.749,0.65,0.76c2.026,0.068,3.84,0.035,5.84,0.035c0-16.751,0-34.438,0-50.438c-2,0-3,0-5,0
		C171,239,171,253.071,171,266.411z"/>
	<path fill-rule="evenodd" clip-rule="evenodd" fill="#C4473A" d="M405.678,252.197c2.144-1.013,4.451-1.792,6.389-3.113
		c4.41-3.006,6.738-7.128,6.043-12.698c-0.543-4.357-2.603-7.413-6.786-8.975c-2.593-0.968-5.292-1.166-8.003-1.187
		c-6.516-0.047-12.815-0.018-19.331-0.014c-0.408,0.001,0.011,0.044-0.989,0.066c0,16.771,0,33.723,0,49.723c2,0,4,0,6,0
		c0-15,0-29.456,0-44.433c2,0,3.235-0.013,4.804,0.003c3.83,0.038,7.659,0.02,11.485,0.168c1.973,0.077,3.729,0.869,4.932,2.553
		c2.053,2.874,1.247,8.428-1.495,10.66c-2.171,1.767-4.593,3.015-7.304,3.699c-1.501,0.38-3.011,0.734-4.721,1.15
		c0.225,1.58-0.035,3.427,0.738,4.574c4.879,7.228,9.981,14.302,15.034,21.41c0.214,0.302,0.65,0.623,0.99,0.63
		c2.579,0.053,5.16,0.029,7.95,0.029c-5.794-7.945-11.493-15.761-17.241-23.641C404.741,252.577,405.222,252.413,405.678,252.197z"
		/>
	<path fill-rule="evenodd" clip-rule="evenodd" fill="#C4473A" d="M278.441,225c-2.128,0-4.155,0-6.287,0
		c-0.028,1-0.062,1.292-0.062,1.544c0.007,9.883,0.022,20.082,0.017,29.964c0,1.146-0.06,2.459-0.18,3.6
		c-0.601,5.701-3.661,9.401-9.142,10.822c-2.785,0.723-5.629,0.847-8.47,0.411c-4.142-0.635-7.602-2.328-9.514-6.317
		c-1.08-2.254-1.157-4.663-1.165-7.136c-0.033-10.053,0.36-20.096,0.36-30.149c0-0.487,0-0.974,0-1.4
		c0-0.079-0.756-0.117-0.838-0.118c-1.149-0.009-2.486-0.017-3.637-0.017c-2.521-0.001-2.616,0-2.616,2.434
		c0,9.201-0.062,18.402-0.036,27.603c0.005,1.701,0.036,3.414,0.259,5.097c0.945,7.143,4.579,12.181,11.654,14.289
		c5.242,1.562,10.591,1.564,15.92,0.47c2.839-0.584,5.568-1.594,7.842-3.472c4.24-3.503,5.851-8.3,5.93-13.544
		c0.159-10.562,0.051-21.762,0.048-32.326C278.525,226.388,278.472,226,278.441,225z"/>
	<path fill-rule="evenodd" clip-rule="evenodd" fill="#C4473A" d="M492.219,254.658c-2.332-4.107-6.267-5.61-10.654-5.968
		c-3.726-0.303-7.482-0.224-11.227-0.298c-5.014-0.099-7.83-2.7-8.15-7.552c-0.231-3.503,1.461-6.803,4.39-8.107
		c1.453-0.646,3.044-1.127,4.616-1.332c6.017-0.79,12.382-0.21,18.216,1.418c1.041,0.291,1.591,0.678,3.591,1.049
		c0-1.998,0-3.896,0-5.85c-7-1.682-12.96-2.359-19.36-2.029c-3.268,0.169-6.716,0.638-9.776,1.938
		c-2.531,1.076-4.901,2.575-6.202,5.006c-1.439,2.689-1.948,5.667-1.787,8.754c0.31,5.932,3.54,10.06,9.35,11.435
		c1.922,0.453,3.919,0.62,5.899,0.726c3.099,0.164,6.21,0.044,9.302,0.266c2.903,0.207,5.562,1.342,6.497,4.309
		c1.815,5.766,0.312,10.709-6.254,12.453c-5.271,1.399-10.361,0.759-15.615-0.125c-2.476-0.415-5.053-1.162-7.053-1.737
		c0,1.871,0,3.765,0,5.688c7,1.777,15.065,2.705,22.786,1.602c3.223-0.462,6.212-1.478,8.802-3.459
		C494.652,268.962,495.31,260.104,492.219,254.658z"/>
	<path fill-rule="evenodd" clip-rule="evenodd" fill="#C4473A" d="M226.291,253c-2.175,0-4.248,0-6.498,0
		c0.061,1,0.148,1.728,0.148,2.312c0.011,4.684-0.017,9.562,0.022,14.245c0.007,0.859-0.27,1.283-1.108,1.402
		c-3.93,0.556-7.854,0.874-11.788,0.12c-6.332-1.215-11.007-4.467-13.13-10.762c-1.718-5.092-1.934-10.303-0.857-15.555
		c1.222-5.965,4.504-10.32,10.413-12.23c7.129-2.306,14.597-1.708,21.663,0.481c0.487,0.15,1.844,0.394,1.844,0.638
		c0-1.995,0-3.777,0-5.617c-4-1.07-6.867-1.637-10.245-1.948c-4.654-0.429-9.425-0.216-13.955,0.873
		c-7.122,1.711-12.553,5.588-14.986,12.795c-2.052,6.077-2.21,12.278-1.028,18.518c1.772,9.356,7.3,15.195,16.57,17.416
		c7.455,1.785,14.838,1.438,22.168-0.767c0.795-0.239,0.878-0.701,0.876-1.406c-0.021-6.259-0.014-12.908-0.019-19.166
		C226.381,254.024,226.32,253,226.291,253z"/>
	<path fill-rule="evenodd" clip-rule="evenodd" fill="#C4473A" d="M325.745,276.451c2.039,0,3.829-0.074,5.61,0.032
		c0.857,0.051,1.139-0.253,1.435-0.978c5.15-12.64,10.335-25.267,15.503-37.9c0.645-1.577,1.237-3.177,1.854-4.765
		c0.11,0.001,0.222,0.001,0.333,0.002c3.088,7.502,6.176,15.004,9.332,22.673c-0.655,0-1.034,0.002-1.413-0.001
		c-3.446-0.023-6.894-0.068-10.34-0.046c-0.418,0.002-1.092,0.435-1.207,0.741c-0.543,1.463-0.934,2.79-1.421,4.79
		c0.565,0,1.021,0,1.477,0c4.599,0,9.198-0.138,13.796-0.19c0.968-0.012,1.401,0.22,1.756,1.114
		c1.823,4.578,3.711,9.089,5.62,13.633c0.16,0.381,0.641,0.854,0.989,0.868c2.08,0.084,4.165,0.029,6.493,0.029
		c-8.321-18.945-16.587-37.764-24.922-56.739C342.296,238.733,334.053,257.515,325.745,276.451z"/>
	<path fill-rule="evenodd" clip-rule="evenodd" fill="#C4473A" d="M297,225c-2,0-4,0-6,0c0,17,0,35,0,51c10,0,21,0,32,0c0-1,0-4,0-6
		c-9,0-17,0-26,0C297,255,297,240,297,225z"/>
	<path fill-rule="evenodd" clip-rule="evenodd" fill="#C4473A" d="M445.746,226c-2.187,0-4.255,0-6.465,0
		c0.061,0,0.165,1.642,0.165,2.345c0.004,11.451,0.033,22.983-0.033,34.435c-0.023,4.121-1.545,6.703-5.52,7.816
		c-1.453,0.406-2.894,0.569-3.894,0.806c0,1.635,0,3.259,0,5.207c2-0.38,4.269-0.561,6.47-1.103
		c4.789-1.181,7.999-3.924,9.062-8.976c0.365-1.732,0.375-3.539,0.382-5.313c0.045-11.153-0.039-22.474-0.042-33.626
		C445.871,227.138,445.77,226,445.746,226z"/>
	<path fill-rule="evenodd" clip-rule="evenodd" fill="#C4473A" d="M75.807,249c-4.065-9-8.052-16.825-12.178-25.447
		C59.986,232.197,56.469,240,52.905,249C60.582,249,68.089,249,75.807,249z"/>
</g>
</svg>
