<?xml version="1.0" encoding="utf-8"?>
<!-- Generator: Adobe Illustrator 16.0.0, SVG Export Plug-In . SVG Version: 6.00 Build 0)  -->
<!DOCTYPE svg PUBLIC "-//W3C//DTD SVG 1.1//EN" "http://www.w3.org/Graphics/SVG/1.1/DTD/svg11.dtd">
<svg version="1.1" id="Layer_1" xmlns="http://www.w3.org/2000/svg" xmlns:xlink="http://www.w3.org/1999/xlink" x="0px" y="0px"
	 width="500px" height="500px" viewBox="0 0 500 500" enable-background="new 0 0 500 500" xml:space="preserve">
<path fill="#EF5734" d="M452.892,315.05c1.252-5.119,3.733-7.201,8.62-8.39c25.85-6.293,30.812-29.345,25.068-48.977
	c-2.256-7.707-7.412-13.704-14.397-16.781c-11.51-5.071-23.312-10.168-35.52-12.823c-33.944-7.383-68.12-13.731-102.288-20.035
	c-12.832-2.369-25.895-3.489-38.791-5.171c-0.823-12.466,5.375-19.399,17.328-19.331c1.396,0.008,3.499,1.341,4.062,2.604
	c4.051,9.032,10.927,10.658,20.129,9.574c22.538-2.651,42.716-9.999,54.656-30.348c5.85-9.964,9.239-21.724,11.925-33.102
	c4.324-18.321,7.393-36.948,17.737-53.167c3.479-5.457,7.655-10.472,11.854-16.146c-8.118-3.138-16.346-3.451-24.649-2.622
	c-21.352,2.131-39.896,11.169-55.29,25.536c-11.26,10.506-20.637,23.013-31.083,34.417c-1.449,1.581-4.364,2.962-6.373,2.7
	c-11.749-1.551-19.414-8.335-24.037-19.242c-7.204-16.993-17.366-31.856-32.186-43.327c-14.707-11.384-31.418-16.923-49.734-18.635
	c-1.805-0.168-3.578,0.218-5.368-0.782c-4.096,0-8.19,0-12.286,0c-14.691,2-29.816,3.132-44.002,7.28
	C83.596,67.18,42.002,110.067,21.5,173.673C4.998,224.867,9.233,275.291,28.718,324.901c10.508,26.758,23.067,52.363,42.404,74.021
	c11.348,12.711,23.797,24.373,40.177,30.242c15.708,5.629,29.295,1.148,40.07-11.623c2.238-2.654,5.204-4.699,7.837-7.023
	c1.521,2.995,3.261,5.896,4.519,8.997c3.071,7.577,5.648,15.359,8.917,22.845c5.555,12.728,16.668,17.831,30.061,14.951
	c4-0.86,8.557-0.789,12.531,0.188c11.964,2.948,22.898,2.645,32.842-5.962c2.481-2.145,6.708-3.278,10.092-3.195
	c16.116,0.398,27.266-6.499,34.44-20.897c1.806-3.627,5.735-6.171,8.584-9.311c9.786-10.79,7.209-22.215,1.348-33.566
	c-5.625-10.896-11.621-21.6-17.421-32.406c-0.748-1.395-1.297-2.896-2.556-5.74c3.979,1.074,6.777,1.772,9.542,2.586
	c9.651,2.84,19.319,5.693,29.499,2.996c2.733-0.727,5.95-1.333,7.867-3.138c5.13-4.828,9.496-3.268,15.281-0.831
	c17.948,7.559,35.261,7.855,50.689-6.738c2.411-2.278,7.043-3.073,10.644-3.066c11.361,0.021,22.525-0.346,32.729-6.177
	C445.646,328.151,451.018,322.697,452.892,315.05z M194.122,154.816c-9.215,0-16.738-7.661-16.565-16.866
	c0.168-8.984,7.581-16.272,16.548-16.27c9.22,0.002,16.735,7.657,16.562,16.864C210.499,147.531,203.092,154.814,194.122,154.816z
	 M269.591,186.406c-1.396-3.358-3.009-6.008-3.605-8.872c-2.883-13.783-1.799-27.204,4.361-40.056
	c3.021-6.3,7.773-8.904,14.851-8.222c22.344,2.157,41.459,11.828,59.011,25.078c1.982,1.498,2.799,4.541,4.777,7.932
	c-7.002-1.296-12.532-2.596-18.135-3.298c-11.967-1.496-23.56,0.444-35.098,3.815c-6.368,1.861-13.125,2.4-19.709,3.499
	c-1.662,0.276-3.351,0.416-5.024,0.619c0.038,0.721,0.08,1.437,0.119,2.156c11.318-0.585,22.634-1.171,33.951-1.755
	c0.272,0.75,0.545,1.501,0.817,2.252C294.067,175.049,282.227,180.543,269.591,186.406z"/>
</svg>
