<?xml version="1.0" encoding="utf-8"?>
<!-- Generator: Adobe Illustrator 16.0.0, SVG Export Plug-In . SVG Version: 6.00 Build 0)  -->
<!DOCTYPE svg PUBLIC "-//W3C//DTD SVG 1.1//EN" "http://www.w3.org/Graphics/SVG/1.1/DTD/svg11.dtd">
<svg version="1.1" id="Layer_1" xmlns="http://www.w3.org/2000/svg" xmlns:xlink="http://www.w3.org/1999/xlink" x="0px" y="0px"
	 width="500px" height="500px" viewBox="0 0 500 500" enable-background="new 0 0 500 500" xml:space="preserve">
<g>
	<path fill="#008CBA" d="M355.29,404.548c2.154-5.383,5.465-10.293,8.125-15.484c3.678-7.173,7.223-14.413,11.318-22.61
		c-4.534,1.96-7.831,3.383-12.818,5.535c9.858-23.763,29.836-39.927,34.62-64.794c-5.545,2.839-10.295,5.271-16.309,8.351
		c0.752-4.8,1.203-7.687,1.759-11.248c-9.45,4.452-17.928,8.501-26.468,12.412c-1.523,0.698-3.581,1.559-4.932,1.067
		c-6.2-2.248-9.897-11.969-7.274-18.057c10.255-23.778,14.395-47.755,2.305-72.264c-0.312-0.627,0.049-1.585,0.112-2.653
		c2.547,0.798,4.665,1.465,7.69,2.415c-6.729-15.343-15.695-27.409-28.88-35.895c-4.588-2.954-6.014-5.456-1.867-9.886
		c2.978-3.179,5.707-6.699,7.944-10.429c1.26-2.106,1.568-4.924,1.812-7.468c0.269-2.792-1.032-6.127,0.071-8.382
		c8.554-17.476,17.405-34.809,26.524-51.997c0.975-1.836,4.315-3.601,6.435-3.466c20.605,1.302,36.06-10.919,43.604-34.288
		c-9.731,5.673-19.516,8.911-32.127,6.855c6.105-8.406,11.601-15.971,17.388-23.939c-5.406-1.875-10.154-3.521-15.389-5.336
		c2.083-5.357,3.895-10.003,6.077-15.607c-6.012-0.33-10.892-0.65-15.774-0.85c-3.809-0.156-9.717,1.369-11.079-0.494
		c-6.161-8.439-12.172-1.494-18.174-0.964c-1.99,0.177-3.976,0.464-7.234,0.853c2.729-5.308,4.75-9.235,7.835-15.234
		c-13.372,2.855-24.723,5.045-35.939,7.792c-4.479,1.098-8.127,1.871-9.65-3.804c-4.618,1.649-8.817,3.147-14.455,5.157
		c1.096-4.877,1.809-8.054,2.991-13.309c-12.416,4.153-23.973,7.928-35.454,11.921c-3.494,1.214-6.777,3.037-10.153,4.58
		c-1.233-3.411-2.459-6.826-3.71-10.231c-0.067-0.185-0.326-0.301-1.338-1.177c-4.799,3.091-9.886,6.368-15.444,9.95
		c-0.908-2.78-1.729-5.298-2.55-7.816c-0.668-0.118-1.338-0.236-2.005-0.355c-2.675,7.39-5.351,14.78-8.348,23.064
		c-1.193-1.391-2.399-2.796-3.536-4.118c-1.811,7.889-3.624,15.78-5.8,25.263c-4.149-5.038-7.058-8.566-10.507-12.753
		c-2.422,9.371-4.622,17.876-7.01,27.106c-2.574-2.106-4.541-3.711-7.307-5.973c-3.35,13.843-6.53,26.991-9.802,40.523
		c-9.212-2.536-8.828-11.28-11.179-18.165c-0.746,0.078-1.491,0.155-2.237,0.232c-1.757,22.253-3.516,44.508-5.387,68.208
		c-2.757-5.194-4.788-9.102-6.863-13.01c-0.647,0.185-1.902,0.369-1.902,0.554c0,13.839,0,27.678,0,41.518
		c-2,0.134-1.142,0.269-1.691,0.404c-1.422-2.557-2.867-5.114-4.542-8.125c-0.303,1.925-0.693,3.384-0.758,4.86
		c-0.302,6.846-2.807,10.633-10.312,12.928c-12.385,3.785-22.254,11.313-24.31,25.814c-3.512,24.802,6.813,42.382,26.057,62.735
		c-0.476-2.549-0.906-4.831-1.5-8.027c10.611,3.28,8.629,14.15,14.725,19.77c1.487-2.842,3.041-5.803,5.816-11.104
		c1.156,2.635,1.668,3.647,2.051,4.707c3.198,8.862,6.57,17.674,9.403,26.654c0.65,2.06,0.102,5.127-1.056,7.021
		c-8.024,13.108-15.536,27.212-36.221,23.179c10.455,13.52,4.435,29.02,8.893,42.724c2.191-3.134,3.892-5.567,6.751-9.658
		c1.53,6.382,2.111,11.062,3.801,15.3c2.029,5.081,4.447,13.365,7.687,13.868c5.712,0.885,8.406,5.307,13.027,6.673
		c3.544,1.05,7.235,2.339,10.844,2.288c10.769-0.147,21.53-0.957,32.299-1.401c14.809-0.612,29.623-1.123,45.612-1.722
		c-6.431-16.191-19.635-23.432-34.632-30.966c7.972-2.404,13.904-5.847,20.411-2.551c10.459,5.299,20.812,10.878,31.077,16.548
		c5.985,3.308,10.57,7.022,18.57,11.119c0-4.804,0-8.435,0-11.999c1-0.072,1.503-0.271,1.841-0.104
		c1.203,0.59,2.53,1.096,3.46,2.001c15.125,14.713,33.586,17.763,53.61,15.555c1.559-0.17,3.182-0.246,4.713,0.012
		C346.968,415.753,352.152,412.393,355.29,404.548z"/>
	<polygon fill="#008CBA" points="88,492 94,492 94,470 116,470 116,465 94,465 94,450 120,450 120,445 88,445 	"/>
	<path fill="#008CBA" d="M142.263,457.737c-4.257,0-7.866,1.275-10.827,3.826c-3.544,3.068-5.316,7.79-5.316,14.165
		c0,5.813,1.486,10.265,4.457,13.354c2.972,3.091,6.867,4.636,11.686,4.636c3.003,0,5.775-0.702,8.314-2.106
		c2.54-1.405,4.473-3.378,5.802-5.916c1.329-2.539,1.994-6.024,1.994-10.454c0-5.468-1.502-9.751-4.506-12.853
		C150.864,459.289,146.996,457.737,142.263,457.737z M149.492,485.615c-1.923,2.204-4.333,3.306-7.229,3.306
		c-2.917,0-5.338-1.097-7.261-3.289c-1.923-2.194-2.885-5.495-2.885-9.903s0.962-7.704,2.885-9.887
		c1.923-2.183,4.343-3.273,7.261-3.273c2.874,0,5.278,1.097,7.212,3.289c1.934,2.193,2.901,5.42,2.901,9.676
		C152.376,480.051,151.415,483.41,149.492,485.615z"/>
	<path fill="#008CBA" d="M186,476.96c0,2.939,0.261,5.181-0.376,6.727c-0.638,1.545-1.435,2.766-2.968,3.663
		c-1.535,0.896-3.033,1.345-4.783,1.345s-3.147-0.438-4.335-1.312c-1.189-0.875-2.39-2.08-2.757-3.615
		c-0.237-1.058-0.779-3.111-0.779-6.158V458h-6v21.846c0,2.484,0.661,4.3,0.898,5.444c0.347,1.708,1.216,3.15,2.069,4.328
		s2.297,2.155,4.058,2.934s3.338,1.167,5.37,1.167c4.604,0,7.604-1.945,10.604-5.834V492h5v-34h-6V476.96z"/>
	<path fill="#008CBA" d="M227.969,461.79c-0.864-1.21-2.167-2.188-3.906-2.935c-1.74-0.745-3.84-1.118-5.915-1.118
		c-4.776,0-9.148,1.892-11.148,5.673V458h-5v34h5v-17.86c0-4.407,1.388-7.401,3.191-8.979c1.805-1.578,4.191-2.366,6.677-2.366
		c1.556,0,3.033,0.352,4.189,1.053c1.156,0.702,1.885,1.644,2.339,2.82C223.85,467.846,224,469.624,224,472v20h5v-20.227
		c0-2.701,0.447-4.592,0.231-5.672C228.885,464.437,228.833,463,227.969,461.79z"/>
	<path fill="#008CBA" d="M260,462.471c-1-1.405-1.834-2.545-3.455-3.42s-3.218-1.313-5.293-1.313c-2.831,0-5.267,0.746-7.557,2.236
		c-2.291,1.492-3.946,3.637-5.091,6.436c-1.146,2.798-1.687,5.916-1.687,9.352c0,3.522,0.648,6.64,1.912,9.352
		s3.055,4.825,5.356,6.337c2.301,1.513,4.133,2.27,6.877,2.27c4.236,0,6.938-1.707,8.938-5.121V492h6v-47h-6V462.471z
		 M258.812,485.793c-1.783,2.085-3.949,3.128-6.5,3.128c-2.528,0-4.722-1.091-6.58-3.274c-1.859-2.182-2.788-5.478-2.788-9.886
		c0-4.561,0.87-7.898,2.609-10.017c1.74-2.117,3.906-3.176,6.499-3.176c2.658,0,4.896,1.102,6.711,3.306
		c1.814,2.204,2.723,5.661,2.723,10.372C261.486,480.525,260.595,483.708,258.812,485.793z"/>
	<path fill="#008CBA" d="M303,478.516v-7.778c0-2.595,0.329-4.388,0.135-5.383c-0.346-1.598-0.737-2.921-1.603-3.97
		c-0.863-1.048-2.108-1.918-3.946-2.609c-1.836-0.691-4.172-1.038-7.109-1.038c-2.962,0-5.537,0.405-7.784,1.217
		c-2.248,0.81-3.953,1.966-5.143,3.468c-1.188,1.502-2.033,3.475-2.552,5.916l5.707,0.777c0.627-2.441,1.595-4.144,2.901-5.105
		c1.308-0.961,3.335-1.441,6.081-1.441c2.938,0,5.153,0.658,6.645,1.977c1.103,0.973,1.653,2.647,1.653,5.024
		c0,0.216-0.01,0.725-0.031,1.524c-2.227,0.776-5.695,1.446-10.406,2.01c-2.312,0.28-4.042,0.571-5.187,0.875
		c-1.557,0.432-2.955,1.069-4.197,1.911c-1.243,0.844-2.248,1.962-3.015,3.356c-0.768,1.393-1.15,2.933-1.15,4.619
		c0,2.873,1.015,5.234,3.046,7.082c2.032,1.848,4.938,2.771,8.721,2.771c2.29,0,4.435-0.378,6.434-1.135s4.08-2.523,6.24-4.361
		c0.173,1.621,0.562,2.777,1.167,3.777h6.095c-0.735-1-1.653-2.225-1.902-3.662C303.551,486.9,303,483.94,303,478.516z M297,477.803
		c0,2.571,0.162,4.517-0.464,5.834c-0.82,1.708-1.868,3.053-3.619,4.036c-1.75,0.983-3.63,1.475-5.878,1.475
		c-2.268,0-3.932-0.518-5.111-1.555c-1.178-1.038-1.735-2.334-1.735-3.891c0-1.016,0.285-1.939,0.825-2.771s1.315-1.464,2.31-1.896
		c0.993-0.432,2.216-0.821,4.615-1.166c4.236-0.605,8.058-1.34,9.058-2.205V477.803z"/>
	<path fill="#008CBA" d="M323.075,487.949c-0.865,0-1.529-0.141-1.993-0.422c-0.465-0.281-1.185-0.659-1.39-1.135
		c-0.205-0.475-0.692-1.545-0.692-3.209V463h5v-5h-5v-11.511l-5,3.501V458h-4v5h4v19.86c0,3.5,0.221,5.796,0.695,6.888
		c0.477,1.091,1.289,1.972,2.455,2.642c1.168,0.67,2.807,1.005,4.923,1.005c1.297,0,2.766-0.173,4.408-0.519l-0.845-5.154
		C324.577,487.873,323.724,487.949,323.075,487.949z"/>
	<rect x="332" y="445" fill="#008CBA" width="5" height="6"/>
	<rect x="332" y="458" fill="#008CBA" width="5" height="34"/>
	<path fill="#008CBA" d="M360.062,457.737c-4.258,0-7.867,1.275-10.827,3.826c-3.544,3.068-5.317,7.79-5.317,14.165
		c0,5.813,1.486,10.265,4.458,13.354c2.971,3.091,6.867,4.636,11.687,4.636c3.003,0,5.774-0.702,8.313-2.106
		c2.54-1.405,4.473-3.378,5.803-5.916c1.328-2.539,1.993-6.024,1.993-10.454c0-5.468-1.502-9.751-4.506-12.853
		C368.662,459.289,364.794,457.737,360.062,457.737z M367.289,485.615c-1.924,2.204-4.333,3.306-7.228,3.306
		c-2.918,0-5.339-1.097-7.263-3.289c-1.923-2.194-2.884-5.495-2.884-9.903s0.961-7.704,2.884-9.887
		c1.924-2.183,4.345-3.273,7.263-3.273c2.873,0,5.277,1.097,7.212,3.289c1.934,2.193,2.901,5.42,2.901,9.676
		C370.175,480.051,369.213,483.41,367.289,485.615z"/>
	<path fill="#008CBA" d="M410.669,466.102c-0.346-1.665-0.954-3.102-1.819-4.312s-2.168-2.188-3.908-2.935
		c-1.739-0.745-3.779-1.118-5.854-1.118c-4.775,0-9.088,1.892-11.088,5.673V458h-6v34h7v-17.86c0-4.407,0.825-7.401,2.631-8.979
		c1.804-1.578,3.909-2.366,6.396-2.366c1.555,0,2.892,0.352,4.048,1.053c1.156,0.702,1.875,1.644,2.328,2.82
		c0.455,1.178,0.598,2.956,0.598,5.332v20h6v-20.227C411,469.072,410.885,467.182,410.669,466.102z"/>
</g>
</svg>
