<?xml version="1.0" encoding="utf-8"?>
<!-- Generator: Adobe Illustrator 16.0.0, SVG Export Plug-In . SVG Version: 6.00 Build 0)  -->
<!DOCTYPE svg PUBLIC "-//W3C//DTD SVG 1.1//EN" "http://www.w3.org/Graphics/SVG/1.1/DTD/svg11.dtd">
<svg version="1.1" id="Layer_1" xmlns="http://www.w3.org/2000/svg" xmlns:xlink="http://www.w3.org/1999/xlink" x="0px" y="0px"
	 width="500px" height="500px" viewBox="0 0 500 500" enable-background="new 0 0 500 500" xml:space="preserve">
<path fill-rule="evenodd" clip-rule="evenodd" fill="#F34F29" d="M477.527,224.467c-30.007-30.114-60.115-60.121-90.177-90.174
	c-37.834-37.82-75.591-75.716-113.543-113.417c-13.75-13.655-29.768-16.41-42.19-5.248C215.77,29.866,201.63,46.014,185.271,62.87
	c16.524,16.018,32.771,32.106,49.525,47.64c0.209,0.194,0.457,0.361,0.695,0.535c4.651-1.646,9.636-2.59,14.852-2.59
	c24.604,0,44.55,19.947,44.55,44.549c0,5.076-0.891,9.933-2.454,14.479c0.627,1.142,1.341,2.181,2.146,3.056
	c12.584,13.709,25.895,26.78,39.449,39.546c0.342,0.325,0.722,0.635,1.116,0.937c4.718-1.7,9.779-2.675,15.084-2.675
	c24.603,0,44.549,19.947,44.549,44.549c0,24.603-19.946,44.548-44.549,44.548c-24.602,0-44.548-19.945-44.548-44.548
	c0-7.177,1.735-13.933,4.753-19.938c-12.538-12.865-25.571-25.531-40.311-40.084c-0.342,0.17-0.688,0.337-1.034,0.5
	c-0.004,41.811-0.186,80.522,0.302,119.192c15.057,7.146,25.496,22.444,25.496,40.221c0,24.604-19.946,44.548-44.55,44.548
	c-24.602,0-44.548-19.944-44.548-44.548c0-19.302,12.304-35.694,29.478-41.878c0.266-1.095,0.453-2.181,0.47-3.209
	c0.634-36.766,0.585-73.553,0.043-110.322c-0.01-0.768-0.115-1.58-0.261-2.403c-17.308-6.114-29.73-22.57-29.73-41.971
	c0-7.206,1.75-13.988,4.789-20.012c-15.337-16.34-31.277-32.134-47.454-48.542c-4.087,3.459-7.101,5.668-9.721,8.278
	c-43.961,43.852-87.936,87.685-131.761,131.673c-17.501,17.562-17.37,32.974,0.268,50.632
	c67.521,67.577,135.098,135.099,202.705,202.584c18.237,18.211,33.431,18.246,51.678,0.044
	c67.285-67.137,134.517-134.323,201.71-201.555C496.021,258.089,495.848,242.857,477.527,224.467z"/>
</svg>
