<?xml version="1.0" encoding="utf-8"?>
<!-- Generator: Adobe Illustrator 16.0.0, SVG Export Plug-In . SVG Version: 6.00 Build 0)  -->
<!DOCTYPE svg PUBLIC "-//W3C//DTD SVG 1.1//EN" "http://www.w3.org/Graphics/SVG/1.1/DTD/svg11.dtd">
<svg version="1.1" id="Layer_1" xmlns="http://www.w3.org/2000/svg" xmlns:xlink="http://www.w3.org/1999/xlink" x="0px" y="0px"
	 width="500px" height="500px" viewBox="0 0 500 500" enable-background="new 0 0 500 500" xml:space="preserve">
<path fill="#FCAA1A" d="M399.481,308.753c-3.142,7.438-5.648,14.4-8.968,20.95c-3.338,6.585-7.995,12.25-15.764,16.803
	c-0.663-11.201-1.438-20.978-1.768-30.772c-0.326-9.683,0.1-19.395-0.352-29.067c-0.487-10.463,4.355-17.614,12.789-22.87
	c7.648-4.766,15.441-9.309,23.042-14.146c10.279-6.541,19.538-14.8,21.538-27.135c0-2.203,0-4.406,0-6.609
	c-2-10.23-9.155-17.997-17.33-24.948c-3.629-3.087-5.074-9.363-6.344-14.479c-2.945-11.834-1.002-22.807,6.056-33.226
	c10.514-15.52,8.648-32.721-4.399-41.763c-4.318-2.994-9.922-4.559-15.171-5.678c-5.575-1.189-7.776-4.043-8.009-9.448
	c-0.664-15.429,3.681-22.474,18.313-28.225c6.52-2.563,13.273-4.528,21.664-7.35c-4.433-4.414-7.894-8.799-12.226-12.016
	c-21.611-16.058-55.767-16.222-77.444-0.072c-8.586,6.397-16.229,14.058-24.276,21.173c-1.15,1.017-1.965,2.774-3.259,3.196
	c-3.136,1.021-6.884,2.651-9.561,1.701c-1.761-0.626-3.292-5.525-2.821-8.13c1.438-7.972,3.903-15.756,5.944-23.621
	c0.315-1.22,0.503-2.476,0.924-4.589c-11.761,0.696-20.356,6.871-29.739,13.702C266.921,30.474,267.561,20,270.031,8
	c-0.88,0-1.762,0-2.645,0c-4.342,3-8.785,5.15-13.012,7.892c-10.679,6.931-18.251,16.34-20.796,29.37
	c-0.727-0.013-1.454,0.02-2.182,0.008c-1.932-7.94-3.864-15.857-5.996-24.613c-17.729,10.38-23.135,27.5-26.984,47.104
	c-4.219-3.415-7.165-5.243-9.422-7.706c-13.434-14.666-28.376-26.856-48.25-31.822c-22.456-5.611-50.248,2.947-62.826,19.671
	c-0.516,0.685-0.931,1.446-1.715,2.682c8.71,3.554,17.258,6.782,25.581,10.508c10.103,4.522,14.923,14.052,13.259,24.779
	c-0.884,5.706-3.828,9.373-9.646,10.034c-25.887,2.938-30.334,28.917-18.709,45.863c8.613,12.556,8.583,26.109,5.685,39.877
	c-0.906,4.307-4.237,9.095-7.87,11.674c-18.944,13.451-21.319,38.111,3.75,54.187c7.407,4.75,14.689,9.74,22.365,14.015
	c10.762,5.992,16.892,14.312,16.44,27.072c-0.682,19.268-1.071,38.544-2.689,58.073c-13.655-9.461-19.614-23.243-23.856-38.703
	c-16.833,16.88-21.673,36.968-19.937,59.155c2.057,26.283,15.915,44.431,38.932,56.453c3.845,2.008,7.532,5.455,9.805,9.15
	c13.304,21.636,31.694,35.614,57.075,39.859c2.267,0.38,4.443,1.722,6.494,2.906c37.244,21.545,74.62,21.793,112.229,0.933
	c3.222-1.786,6.715-3.446,10.281-4.183c23.54-4.853,40.993-17.901,53.914-37.994c3.157-4.907,8.156-9.49,13.373-12.073
	c42.942-21.261,44.417-78.275,24.438-105.002C404.931,314.244,402.2,311.725,399.481,308.753z M142.777,98.804
	c-4.617,1.309-11.798-3.96-12.853-9.735c-1.521-8.338-2.786-16.724-4.243-25.599c12.41,1.078,23.021,9.506,25.657,20.18
	C152.726,89.266,148.207,97.265,142.777,98.804z M158.535,218.16c-6.895-6.469-9.115-21.035-4.387-31.112
	c13.989,8.34,27.55,16.996,37.771,29.998c2.431,3.091,0.935,4.548-1.916,5.963C180.71,227.623,166.32,225.463,158.535,218.16z
	 M227.942,414.811c-3.212,5.693-6.898,11.197-10.995,16.289c-4.017,4.991-12.976,7.068-17.918,3.116
	c-6.32-5.058-12.293-11.185-16.538-18.018c-4.056-6.529-1.808-10.941,5.908-11.66c5.427-0.504,10.601-0.097,15.601-0.097
	c0,0.053,0,0.106,0,0.157c7,0,12.256-0.498,17.876,0.132C228.491,405.47,231.17,409.085,227.942,414.811z M317.593,414.427
	c-2.66,5.468-5.669,11.053-9.724,15.491c-7.049,7.715-19.322,7.483-26.397-0.337c-4.053-4.48-7.328-9.819-10.199-15.176
	c-2.874-5.371-0.737-9.12,5.378-9.669c5.673-0.512,11.428-0.109,17.147-0.109c0.006-0.286,0.014-0.571,0.02-0.855
	c6.138,0.364,12.316,0.396,18.397,1.187C317.674,405.668,320.016,409.444,317.593,414.427z M340.03,219.317
	c-9.006,7.717-24.046,8.179-34.877,0.657c10.301-14.541,24.765-23.835,39.976-33.126
	C350.364,197.597,347.725,212.722,340.03,219.317z M367.986,93.98c-1.319,5.019-6.456,5.511-11.047,4.506
	c-5.211-1.14-9.442-7.072-9.073-12.13c0.784-10.697,13.771-22.719,26.234-23.134C372.098,73.659,370.617,83.971,367.986,93.98z"/>
</svg>
