<?xml version="1.0" encoding="utf-8"?>
<!-- Generator: Adobe Illustrator 16.0.0, SVG Export Plug-In . SVG Version: 6.00 Build 0)  -->
<!DOCTYPE svg PUBLIC "-//W3C//DTD SVG 1.1//EN" "http://www.w3.org/Graphics/SVG/1.1/DTD/svg11.dtd">
<svg version="1.1" id="Layer_1" xmlns="http://www.w3.org/2000/svg" xmlns:xlink="http://www.w3.org/1999/xlink" x="0px" y="0px"
	 width="500px" height="500px" viewBox="0 0 500 500" enable-background="new 0 0 500 500" xml:space="preserve">
<g>
	<path fill-rule="evenodd" clip-rule="evenodd" fill="#FCAA1A" d="M389.229,263.662c11.32-6.541,23.056-13.023,32.688-21.679
		c16.013-14.392,13.832-35.419-3.19-48.538c-3.161-2.436-7.139-5.578-7.919-9.032c-3.104-13.767-5.811-27.694,3.606-40.702
		c3.044-4.204,4.86-9.534,6.313-14.615c4.48-15.688-2.714-28.904-18.168-33.978c-2.742-0.901-5.645-1.41-8.514-1.815
		c-3.875-0.546-5.804-2.284-6.364-6.468c-2.077-15.45,1.906-23.901,16.31-30.39c7.517-3.388,15.717-5.257,23.637-7.822
		c-11.264-19.163-42.718-30.104-69.001-23.006c-21.163,5.715-36.011,19.559-49.904,35.248c-1.475,1.664-4.687,2.677-7.002,2.533
		c-6.741-0.422-6.519-5.774-5.503-10.245c2.106-9.301,4.924-18.441,7.543-27.996c-12.138,0.358-21.343,6.983-30.447,14.216
		c-0.61-0.966-1.052-1.128-1.309-1.736c-4.534-10.808-3.489-22.101-1.559-32.639c-0.487,0-0.977,0-1.466,0
		c-16.598,7.903-31.945,17.11-35.365,37.929c-0.872-0.11-1.744-0.403-2.615-0.512c-1.753-8.232-3.507-16.554-5.469-25.763
		c-15.02,10.179-23.284,23.316-25.554,40.446c-0.314,2.362-1.658,4.565-2.523,6.854c-2.283-1.261-5.163-2.019-6.76-3.872
		c-15.628-18.152-33.304-32.469-58.127-36.274c-22.038-3.376-49.231,7.373-59.512,24.442c9.073,3.45,18.653,6.159,27.327,10.63
		c10.411,5.368,13.896,14.208,12.782,24.139c-0.804,7.17-3.673,10.02-11.099,10.971c-16.331,2.092-25.853,14.959-23.506,31.161
		c0.816,5.628,2.476,11.996,5.956,16.204c8.078,9.776,7.198,20.808,6.969,31.975c-0.181,8.731-3.289,15.613-10.836,21.054
		c-16.28,11.739-18.236,33.28-3.299,46.77c9.791,8.844,21.638,15.584,33.11,22.34c8.514,5.015,14.187,11.976,14.625,21.276
		c0.722,15.291-0.14,30.667-0.623,46c-0.192,6.153-1.149,12.283-1.892,19.783c-13.196-11.914-20.289-25.364-23.947-41.729
		c-14.015,13.941-19.999,29.961-20.79,48.503c-1.413,33.161,12.784,56.826,42.658,70.673c2.533,1.175,4.785,3.843,6.224,6.358
		c12.502,21.874,30.373,36.44,55.392,41.594c2.818,0.58,6.149,0.661,8.284,2.254c13.703,10.25,29.304,15.216,46.029,16.705
		c25.267,2.248,49.602-0.436,71.289-15.307c2.106-1.447,4.665-2.637,7.167-3.062c26.05-4.422,44.74-18.918,58.059-41.319
		c2.039-3.43,5.56-6.629,9.153-8.374c14.99-7.289,26.887-17.462,33.616-33.023c6.765-15.655,8.537-32.047,5.371-48.635
		c-2.613-13.703-8.287-26.193-19.794-36.054c-3.552,16.367-10.731,29.764-24.064,40.197c-1.573-21.965-2.807-43.827-2.159-65.634
		C375.307,275.315,381.092,268.364,389.229,263.662z M398.553,44.454c-4.497,0.81-9.002,2.368-13.486,2.303
		c-21.163-0.299-36.484,9.798-48.471,26.24c-0.565,0.778-1.068,1.604-1.627,2.389c-0.136,0.19-0.375,0.304-1.224,0.965
		c-3.045-1.462-6.445-3.093-9.863-4.733C340.06,41.965,372.548,29.863,398.553,44.454z M376.421,58.594
		c-1.617,9.333-3.206,18.298-4.714,27.276c-0.707,4.218-1.534,7.982-6.688,9.26c-4.883,1.209-7.894,0.354-11.808-3.517
		c-5.137-5.079-4.661-9.044-1.758-14.505C357.046,66.581,364.815,59.496,376.421,58.594z M101.85,43.789
		c25.402-13.714,56.728-2.571,74.583,27.627c-3.439,1.735-6.854,3.457-10.267,5.178c0.879-1.156,1.758-2.312,2.638-3.468
		c-6.938-5.346-13.846-10.728-20.817-16.028c-9.662-7.346-20.652-10.289-32.715-10.344C110.75,46.733,106.237,45.303,101.85,43.789z
		 M150.852,83.459c0.224,4.098-5.052,10.037-9.312,12.249c-2.429,1.261-9.179-2.314-11.611-5.515
		c-2.494-3.282-2.147-8.753-2.938-13.284c-0.542-3.097-0.679-6.278-1.413-9.32c-0.672-2.794-1.901-5.454-3.047-8.614
		C135.752,59.344,150.164,70.945,150.852,83.459z M100.852,394.408c-11.723-17.455-11.076-36.902-6.065-56.778
		c13.658,31.267,41.001,38.857,72.138,42.263c-10.461,12.013-19.521,23.891-12.291,40.975
		C132.256,419.303,113.225,412.838,100.852,394.408z M168.698,458.54c-8.572-7.354-17.142-14.707-26.287-22.556
		c20.245-5.265,22.362,9.843,28.368,20.315C170.086,457.046,169.391,457.794,168.698,458.54z M269.712,479.92
		c-49.485,9.535-88.292-12.966-102.958-65.842c-3.754-13.535,4.333-22.389,19.786-22.583c21.23-0.269,42.467-0.068,63.699-0.068
		c20.502-0.021,41.003-0.044,61.503,0.011c2.413,0.008,4.893,0.172,7.221,0.74c12.849,3.128,17.9,9.822,14.197,22.381
		C323.529,447.23,305.644,472.995,269.712,479.92z M328.535,458.088c3.691-7.438,6.371-13.556,9.769-19.249
		c0.997-1.675,3.922-2.63,6.132-3.062c3.737-0.732,7.608-0.78,12.005-1.17C349.746,445.165,340.988,452.506,328.535,458.088z
		 M404.769,336.762c13.811,46.309-11.828,82.703-58.872,83.379c6.411-16.154-1.722-28.074-12.93-40.131
		C363.981,376.393,391.491,369.067,404.769,336.762z M360.101,288.085c-0.084,19.505,1.127,39.037,2.433,58.514
		c0.85,12.677,1.155,13.504-11.224,16.174c-7.312,1.58-14.952,2.069-22.446,2.059c-2.015-0.003-4.878-3.27-5.9-5.659
		c-7.934-18.555-15.496-37.27-23.231-55.911c-0.908-2.188-2.168-4.23-3.266-6.339c-0.794,0.245-1.589-0.207-2.387,0.037
		C301.35,324.103,308.621,353,315.705,377c-21.129,0-43.309,0-65.486,0c-21.966,0-43.929,0-65.786,0
		c7.017-24,14.257-52.613,21.496-79.688c-0.956-0.312-1.915-0.276-2.873-0.589c-4.368,9.914-8.909,19.934-13.062,29.935
		c-4.565,11.01-8.873,22.22-13.083,33.37c-1.383,3.658-3.206,5.716-7.456,5.055c-8.378-1.303-16.794-2.351-25.204-3.465
		c-6.584-0.871-7.506-4.751-7.13-10.776c1.294-20.7,2.444-41.426,2.732-62.157c0.226-16.614-7.026-29.402-22.169-37.52
		c-8.561-4.587-17.172-9.43-24.731-15.451c-12.169-9.69-11.228-25.849,1.609-33.071c-0.315,3.417-0.596,6.5-0.879,9.606
		c12.961-15.632,19.495-47.82,10.18-78.562c-0.447,3.816-0.739,6.299-1.029,8.781c-0.775,0.25-1.549,0.5-2.324,0.749
		c-2.884-7.455-6.799-14.703-8.354-22.426c-1.507-7.485,6.878-13.485,17.194-13.873c18.712-0.705,36.379,3.772,52.491,12.766
		c16.519,9.222,32.213,19.929,47.39,29.438c-2.938-10.561-15.874-23.048-49.829-47.118c37.36-38.949,144.41-38.63,181.606,0.399
		c-21.559,11.012-39.068,26.298-50.521,48.186c5.539-4.027,11.026-8.117,16.615-12.067c20.812-14.703,42.554-27.609,68.409-30.845
		c7.565-0.946,15.631-0.513,23.099,1.051c7.978,1.671,11.171,8.602,8.519,16.414c-2.062,6.061-5.162,11.767-7.797,17.629
		c-0.635-0.127-1.27-0.257-1.903-0.387c-0.421-2.366-0.839-4.733-1.517-8.558c-7.281,28.591-5.184,54.435,10.682,78.457
		c-0.425-3.035-0.849-6.069-1.311-9.375c9.995,4.275,13.784,16.807,7.235,26.187c-3.637,5.208-9.151,9.31-14.385,13.136
		c-4.883,3.57-10.402,6.334-15.832,9.072C367.145,258.941,360.173,271.967,360.101,288.085z"/>
	<path fill-rule="evenodd" clip-rule="evenodd" fill="#FCAA1A" d="M347.336,170.937c-18.287,5.021-32.782,15.828-45.248,29.659
		c-5.802,6.441-12.654,10.86-21.4,11.272c-4.186,0.196-8.426-0.851-12.816-1.355c1.65,11.871,10.002,15.757,17.805,17.512
		c4.588,10.682,8.628,20.078,12.669,29.475c0.754-0.345,1.513-0.688,2.27-1.032c-2.27-9.528-4.186-19.035,1.532-28.414
		c14.024,9.95,28.1,7.534,42.249,0.62c15.191-7.426,19.963-21.507,23.787-36.53c0.878,3.4,1.752,6.802,2.8,10.848
		c5.943-9.987,7.023-19.274-0.948-28.619c3.398-1.368,6.289-2.53,10.195-4.103C368.38,167.264,357.853,168.05,347.336,170.937z
		 M343.17,216.448c-9.025,8.957-23.868,10.281-37.387,2.765c11.09-15.332,26.147-25.022,41.565-34.439
		C352.056,193.677,349.76,209.907,343.17,216.448z"/>
	<path fill-rule="evenodd" clip-rule="evenodd" fill="#FCAA1A" d="M196.895,199.538c-10.973-12.442-24.096-22.052-39.976-27.375
		c-11.837-3.967-23.886-5.449-37.258-1.722c3.97,1.433,6.852,2.472,10.347,3.733c-7.574,9.185-6.669,18.453-1.178,29.006
		c1.228-4.244,2.262-7.806,3.295-11.368c3.083,15.654,8.108,29.233,22.998,36.768c14.155,7.16,28.878,9.492,43.878-1.854
		c0,10.917,0,19.993,0,29.068c0,0.213,2.117,0.428,2.959,0.642c3.814-9.145,7.848-18.291,12.042-28.337
		c13.129-4.32,17.289-8.295,17.349-18.025C217.383,214.557,206.361,210.274,196.895,199.538z M158.253,217.611
		c-7.552-6.104-10.512-21.641-5.909-33.094c15.913,9.875,31.083,19.382,41.63,34.635
		C182.428,226.471,168.316,225.747,158.253,217.611z"/>
	<path fill-rule="evenodd" clip-rule="evenodd" fill="#FCAA1A" d="M275.297,167.833c-17.279,9.004-33.315,8.914-50.545,0.016
		C243.541,188.767,256.021,189.486,275.297,167.833z"/>
	<path fill-rule="evenodd" clip-rule="evenodd" fill="#FCAA1A" d="M311.645,406.132c-5.35-0.243-11.645-0.048-15.645-0.048
		c0-0.009,0-0.018,0-0.024c-7,0-10.194-0.001-15.068,0.002c-0.484,0-1.196-0.005-1.681,0.027
		c-7.118,0.504-10.165,4.571-6.854,10.563c3.264,5.917,6.859,11.996,11.727,16.517c3.052,2.839,8.803,4.452,13.054,3.964
		c11.51-1.316,17.076-10.658,21.659-19.877C321.944,411.005,318.875,406.46,311.645,406.132z"/>
	<path fill-rule="evenodd" clip-rule="evenodd" fill="#FCAA1A" d="M221.818,406.181c-5.579-0.361-11.199-0.076-16.799-0.076
		c-5.603,0-11.218-0.242-16.802,0.073c-4.998,0.282-8.283,2.607-7.514,8.39c1.026,7.699,12.469,20.449,20.096,22.457
		c6.485,1.706,12.233,0.55,16.402-4.811c3.861-4.961,7.561-10.142,10.588-15.637C230.983,410.786,228.459,406.606,221.818,406.181z"
		/>
</g>
</svg>
