<?xml version="1.0" encoding="utf-8"?>
<!-- Generator: Adobe Illustrator 16.0.0, SVG Export Plug-In . SVG Version: 6.00 Build 0)  -->
<!DOCTYPE svg PUBLIC "-//W3C//DTD SVG 1.1//EN" "http://www.w3.org/Graphics/SVG/1.1/DTD/svg11.dtd">
<svg version="1.1" id="Layer_1" xmlns="http://www.w3.org/2000/svg" xmlns:xlink="http://www.w3.org/1999/xlink" x="0px" y="0px"
	 width="500px" height="500px" viewBox="0 0 500 500" enable-background="new 0 0 500 500" xml:space="preserve">
<g>
	<polygon fill="#E54D26" points="127,50 147,50 147,71 170,71 170,6 147,6 147,27 127,27 127,6 104,6 104,71 127,71 	"/>
	<polygon fill="#E54D26" points="200,71 222,71 222,27 242,27 242,6 180,6 180,27 200,27 	"/>
	<polygon fill="#E54D26" points="275,38.679 290.792,62 291.17,62 306,38.679 306,71 329,71 329,6 305.684,6 291.17,29.272 
		276.659,6 252,6 252,71 275,71 	"/>
	<polygon fill="#E54D26" points="395,50 362,50 362,6 339,6 339,71 395,71 	"/>
	<path fill="#E54D26" d="M72.192,101l32.378,354.3l145.339,39.255l145.46-39.169L427.808,101H72.192z M357.563,217H250h-62.878
		l4.062,45H250h103.521l-12.217,133.03L250,419.461l-0.069-0.112l-91.245-24.605L152.318,325h44.705l3.313,36.058l49.604,13.001
		l0.07-0.063l49.655-12.84l5.17-56.155H250.01h-99.539l-12.026-132H250h111.534L357.563,217z"/>
</g>
</svg>
