<?xml version="1.0" encoding="utf-8"?>
<!-- Generator: Adobe Illustrator 16.0.0, SVG Export Plug-In . SVG Version: 6.00 Build 0)  -->
<!DOCTYPE svg PUBLIC "-//W3C//DTD SVG 1.1//EN" "http://www.w3.org/Graphics/SVG/1.1/DTD/svg11.dtd">
<svg version="1.1" id="Layer_1" xmlns="http://www.w3.org/2000/svg" xmlns:xlink="http://www.w3.org/1999/xlink" x="0px" y="0px"
	 width="500px" height="500px" viewBox="0 0 500 500" enable-background="new 0 0 500 500" xml:space="preserve">
<g>
	<path fill="#FD4F31" d="M386.031,165.947l-68.99-105.577c-3.072-4.7-1.1-9.418,4.4-10.537l113.24-23.049
		c2.455-0.499,5.889,0.52,7.676,2.276l9.92,9.843C449.625,19.006,432.635,4,412.012,4H90.085c-21.55,0-39.138,16.421-40.531,37.618
		L160.12,223.733L386.031,165.947z"/>
	<polygon fill="#FD4F31" points="174.803,249.675 254.666,385.086 452,319.005 452,254.143 403.771,191.929 	"/>
	<polygon fill="#FD4F31" points="452,214.432 452,177.938 431.666,186.28 	"/>
	<path fill="#FD4F31" d="M426.605,45.432l-75.896,15.636c-5.492,1.153-7.25,5.786-3.975,10.349l66.049,91.141l39.217-9.75V64.934
		l-17.852-17.278C432.344,45.922,429.059,44.927,426.605,45.432z"/>
	<path fill="#FD4F31" d="M412.012,408C434.473,408,452,388.338,452,365.884v-13.996L317.918,408H412.012z"/>
	<polygon fill="#FD4F31" points="48,100.883 48,250.602 125.375,232.448 	"/>
	<path fill="#FD4F31" d="M225.802,408l-83.334-146.723L48,283.318v82.565C48,388.338,67.628,408,90.085,408H225.802z"/>
	<polygon fill="#FD4F31" points="94,432 84,432 84,496 120,496 120,488 94,488 	"/>
	<path fill="#FD4F31" d="M147.078,432l-21.743,64h8.545l6.647-21h22.694l6.837,21h8.828l-21.839-64H147.078z M142.237,467
		l6.265-17.965c1.235-3.893,2.281-7.035,3.136-11.035h0.284c0.948,4,1.899,6.951,3.229,11.129l6.36,17.871H142.237z"/>
	<path fill="#FD4F31" d="M215,463.905v-0.286c7-2.279,12.422-7.88,12.422-16.235c0-5.033-1.716-9.4-4.852-12.152
		c-3.986-3.61-9.33-5.318-18.162-5.318c-5.601,0-12.408,0.57-15.408,1.424V496h5v-30h10.334c7.5,0,11.013,4.746,12.911,13.578
		c1.71,7.975,3.133,12.422,4.178,16.422h8.547c-1.234-4-3.117-9.449-5.205-18.373C223.151,470.98,221,465.615,215,463.905z
		 M204.998,461H194v-23.87c5-0.382,5.453-0.761,9.44-0.761c8.735,0,15.353,3.915,15.353,12.176
		C218.793,455.854,213.828,461,204.998,461z"/>
	<path fill="#FD4F31" d="M256.744,432L235,496h8.548l6.646-21h22.692l6.836,21h8.832l-21.842-64H256.744z M251.902,467l6.264-17.965
		c1.238-3.893,2.281-7.035,3.137-11.035h0.283c0.949,4,1.9,6.951,3.23,11.129L271.178,467H251.902z"/>
	<path fill="#FD4F31" d="M317.799,463.393c-2.943,8.355-5.508,14.607-7.312,23.607h-0.189c-1.803-9-4.18-15.062-6.836-23.703
		L293.492,432h-9.023l20.984,64h9.117l22.883-64h-8.828L317.799,463.393z"/>
	<polygon fill="#FD4F31" points="354,465 377,465 377,458 354,458 354,438 378,438 378,432 344,432 344,496 379,496 379,488 
		354,488 	"/>
	<polygon fill="#FD4F31" points="398,432 392,432 392,496 427,496 427,488 398,488 	"/>
</g>
</svg>
