<?xml version="1.0" encoding="utf-8"?>
<!-- Generator: Adobe Illustrator 16.0.0, SVG Export Plug-In . SVG Version: 6.00 Build 0)  -->
<!DOCTYPE svg PUBLIC "-//W3C//DTD SVG 1.1//EN" "http://www.w3.org/Graphics/SVG/1.1/DTD/svg11.dtd">
<svg version="1.1" id="Layer_1" xmlns="http://www.w3.org/2000/svg" xmlns:xlink="http://www.w3.org/1999/xlink" x="0px" y="0px"
	 width="500px" height="500px" viewBox="0 0 500 500" enable-background="new 0 0 500 500" xml:space="preserve">
<g>
	<path fill-rule="evenodd" clip-rule="evenodd" fill="#2A4D80" d="M476.106,229.17c-2.327-5.043-3.276-11.014-3.521-16.63
		c-0.6-13.828-0.002-27.706-0.626-41.533c-0.558-12.384-4.896-23.543-16.788-29.927c-10.468-5.621-23.172-6.179-34.172-6.308
		c0,7.668,0,14.832,0,22.098c1,0.13,2.895,0.255,3.84,0.301c15.646,0.768,20.872,5.731,21.068,21.251
		c0.146,11.541,0.038,23.088,0.225,34.627c0.227,14,2.313,27.361,15.116,36.196c0.219,0.152,0.194,0.707,0.32,1.352
		c-6.515,4.627-11.675,10.588-13.17,18.723c-1.208,6.581-1.891,13.318-2.095,20.008c-0.374,12.108,0.01,24.239-0.339,36.351
		c-0.271,9.479-4.73,13.935-13.959,16.046c-3.477,0.796-7.007,1.079-11.007,1.575c0,7.455,0,14.483,0,22.043
		c6-0.467,11.68-0.771,16.998-1.346c20.021-2.164,31.279-12.582,33.587-32.007c0.723-6.089,0.633-12.292,0.771-18.445
		c0.257-11.528-0.233-23.113,0.798-34.569c1.05-11.691,9.847-18.154,20.847-17.509c0-7.702,0-15.405,0-23.107
		C486,239.747,479.433,236.387,476.106,229.17z"/>
	<path fill-rule="evenodd" clip-rule="evenodd" fill="#2A4D80" d="M112.367,276.28C112.365,231.437,112,186.593,112,141.75
		c0-2.229,0-4.458,0-7.054c-13,0-25.028-0.111-37.317,0.054c-4.987,0.066-9.814,0.497-14.76,1.17
		c-18.938,2.577-28.28,11.465-31.636,30.33c-0.969,5.447-0.883,11.104-0.963,16.67c-0.153,10.583,0.097,21.172-0.074,31.754
		C27.036,228,20.5,238.33,6.909,239.114C6.43,239.143,8,239.699,5,240.035c0,6.766,0,13.481,0,20.599
		c16,2.44,20.705,8.709,21.734,23.139c0.165,2.299,0.318,4.617,0.343,6.926c0.132,12.892,0.04,25.801,0.625,38.672
		c0.547,12.013,4.069,22.742,15.422,29.045C53.721,364.3,66,364.778,77,365.084c0-7.654,0-14.806,0-21.993
		c-1-0.185-1.644-0.356-2.399-0.403c-16.848-1.029-21.061-5.604-21.158-22.462c-0.064-11.163,0.204-22.328,0.024-33.487
		c-0.227-14.026-2.38-27.33-15.077-36.207c-0.193-0.134-0.055-0.708-0.114-1.486c8.537-5.398,13.05-13.652,14.285-23.664
		c0.681-5.523,0.9-11.123,0.994-16.695c0.194-11.544-0.016-23.098,0.297-34.638c0.219-8.107,3.894-14.018,10.499-15.346
		c6.265-1.259,12.65-1.221,19.65-1.807c0,3.451,0,5.716,0,7.98c0,40.032,0.072,80.065,0.282,120.095
		c0.072,13.711,2.34,27.229,17.037,33.149c7.991,3.22,16.928,4.212,26.11,6.375c1.532-8.976,2.647-16.426,3.905-23.794
		C114.412,295.853,112.367,293.333,112.367,276.28z"/>
	<path fill-rule="evenodd" clip-rule="evenodd" fill="#2A4D80" d="M215.088,199.039c-28.502-13.629-63.088-1.713-76.36,26.876
		c-9.994,21.529-9.639,43.682-0.841,65.51c4.771,11.835,13.396,20.699,25.136,25.91c22.925,10.175,46.128,7.704,69.241,0.558
		c1.247-0.386,2.841-2.789,2.686-4.061c-0.786-6.45-2.095-12.837-3.265-19.496c-5.5,1.389-10.098,2.803-14.795,3.687
		c-12.415,2.332-24.856,2.56-36.935-2.239c-11.93-4.738-19.94-16.783-17.948-29.783c26.846,0,53.855,0,81.044,0
		c0.993-14,0.6-27.901-4.358-41.146C234.261,213.012,226.621,204.555,215.088,199.039z M214.919,246c-18.02,0-35.639,0-53.257,0
		c0.027-18,12.672-29.474,29.264-29.155C205.495,217.125,215.576,228,214.919,246z"/>
	<path fill-rule="evenodd" clip-rule="evenodd" fill="#2A4D80" d="M432.78,293.796c1.911-19.622-4.014-30.668-21.486-39.195
		c-6.197-3.024-12.772-5.266-19.086-8.066c-4.726-2.097-9.482-4.222-13.902-6.876c-4.303-2.581-6.103-6.869-5.468-11.889
		c0.626-4.96,3.814-8.226,8.418-9.162c5.58-1.133,11.429-2.107,17.037-1.647c7.931,0.65,15.748,2.679,23.932,4.176
		c1.525-6.665,3.147-13.749,5.172-22.594c-11.068-1.686-21.39-3.863-31.819-4.684c-11.6-0.914-22.894,1.014-33.511,6.484
		c-22.43,11.559-22.843,47.047-2.229,58.695c6.159,3.481,12.751,6.196,19.153,9.243c6.749,3.211,13.734,6.005,20.19,9.722
		c4.899,2.822,6.649,7.753,5.339,13.493c-1.218,5.337-5.257,7.721-10.006,8.175c-7.224,0.689-14.629,1.347-21.778,0.497
		c-8.61-1.024-17.032-3.638-25.852-5.635c-1.504,7.513-2.988,14.942-4.496,22.48c20.71,7.773,41.2,9.046,61.885,4.464
		C421.586,317.64,431.445,307.51,432.78,293.796z"/>
	<path fill-rule="evenodd" clip-rule="evenodd" fill="#2A4D80" d="M322.449,257.095c-7.609-4.033-15.789-6.98-23.64-10.573
		c-4.874-2.231-10.035-4.168-14.328-7.263c-8.259-5.951-6.72-17.364,2.897-20.418c5.519-1.754,11.757-2.298,17.557-1.862
		c7.899,0.592,15.69,2.636,23.927,4.128c1.53-6.747,3.135-13.815,4.887-21.534c-4.181-1.139-7.969-2.375-11.847-3.191
		c-15.422-3.247-30.92-4.501-46.106,0.837c-13.049,4.589-22.101,13.172-23.892,27.606c-2,16.125,3.346,28.852,18.234,36.508
		c5.961,3.064,12.347,5.292,18.431,8.133c6.072,2.835,12.272,5.543,17.916,9.099c4.315,2.719,6.018,7.318,4.8,12.639
		c-1.207,5.275-5.052,7.932-9.835,8.424c-7.222,0.74-14.635,1.429-21.786,0.594c-8.642-1.01-17.096-3.629-26.069-5.65
		c-1.325,6.264-2.877,12.573-3.844,18.971c-0.209,1.39,1.341,4.061,2.644,4.514c20.906,7.244,42.184,8.284,63.448,2.025
		c12.696-3.736,21.58-11.847,23.366-25.718C341.237,278.611,337.484,265.065,322.449,257.095z"/>
</g>
</svg>
