<?xml version="1.0" encoding="utf-8"?>
<!-- Generator: Adobe Illustrator 16.0.0, SVG Export Plug-In . SVG Version: 6.00 Build 0)  -->
<!DOCTYPE svg PUBLIC "-//W3C//DTD SVG 1.1//EN" "http://www.w3.org/Graphics/SVG/1.1/DTD/svg11.dtd">
<svg version="1.1" id="Layer_1" xmlns="http://www.w3.org/2000/svg" xmlns:xlink="http://www.w3.org/1999/xlink" x="0px" y="0px"
	 width="500px" height="500px" viewBox="0 0 500 500" enable-background="new 0 0 500 500" xml:space="preserve">
<g>
	<path fill-rule="evenodd" clip-rule="evenodd" fill="#00618A" d="M117.687,281.974c-7.608-7.646-22.999-5.241-28.185,4.23
		c-2.191,3.999-3.83,8.303-5.708,12.477c-6.173,13.724-12.336,27.451-19.076,42.441c-1.667-3.838-2.79-6.424-3.917-9.01
		c-6.633-15.257-13.072-30.603-19.986-45.731c-3.65-7.983-10.874-10.306-21.398-7.857c-7.475,1.74-10.524,6.233-10.522,15.124
		C8.901,310.152,9,326.658,9,343.164C9,346.416,9,350,9,353c5,0,12,0,17,0c0-21,0-40.131,0-59.779
		c10,16.659,16.411,33.329,23.621,50.274c3.151,7.411,8.102,10.466,15.892,10.466c7.444-0.002,11.977-3.373,14.872-10.074
		c5.854-13.546,12.055-26.942,18.115-40.397c1.633-3.625,3.521-7.239,5.166-10.857c0.368,0.124,1.334,0.25,1.334,0.374
		c0,19.894,0,38.994,0,59.994c5,0,10.07,0,16.026,0c0-22,0.114-42.352-0.141-63.211
		C120.853,287.143,119.539,283.833,117.687,281.974z"/>
	<path fill-rule="evenodd" clip-rule="evenodd" fill="#00618A" d="M382.879,328.942c-0.18-9.396-0.032-18.8-0.034-28.2
		c-0.005-11.807-4.084-18.263-15.743-19.466c-14.642-1.513-29.699-2.457-44.229-0.728c-18.084,2.153-19.271,9.635-18.792,22.421
		c0.354,9.596,0.053,19.215,0.074,28.824c0.03,12.49,3.793,18.116,15.98,19.811c10.015,1.395,20.332,0.488,30.497,0.965
		c3.481,0.164,8.243,0.257,10.125,2.397c7.341,8.352,16.216,9.781,26.511,7.975c-4.511-4.203-8.996-8.382-14.202-13.229
		C382.885,345.485,383.039,337.357,382.879,328.942z M368.426,333.371c-0.07,2.404-1.926,4.757-2.957,7.131
		c-2.076-0.993-4.918-1.438-6.105-3.077c-6.062-8.372-14.62-6.014-22.635-6.162c-0.583,0.629-1.166,1.26-1.748,1.889
		c4.017,2.816,8.032,5.631,12.049,8.447c-0.484,0.649-0.97,1.299-1.454,1.947c-5.577-0.336-11.181-0.456-16.728-1.064
		c-5.601-0.613-8.481-4.126-8.52-9.724c-0.078-11.26,0.002-22.52-0.044-33.782c-0.021-5.054,2.831-8.294,7.377-8.493
		c11.184-0.493,22.422-0.537,33.607-0.06c4.998,0.212,7.394,3.989,7.35,9.171C368.522,310.854,368.75,322.121,368.426,333.371z"/>
	<path fill-rule="evenodd" clip-rule="evenodd" fill="#00618A" d="M352.648,247.078c-2.254-2.778-4.095-4.345-5.046-6.338
		c-5.452-11.4-6.627-23.427-2.4-35.256c2.85-7.981,4.863-14.942-2.825-21.176c-0.904-0.731-1.442-2.067-1.857-3.227
		c-5.407-15.065-10.775-30.115-21.347-42.639c-1.015-1.2-1.209-4.792-0.34-5.501c1.427-1.161,4.354-1.692,6.091-1.032
		c5.026,1.913,10.34,3.836,14.481,7.097c4.654,3.667,9.69,4.165,15.008,4.847c3.06,0.392,6.236,0.755,9.072,1.867
		c17.357,6.804,32.02,17.819,41.985,33.261c9.28,14.382,16.242,30.307,23.708,45.8c4.106,8.522,8.121,16.445,18.82,17.878
		c2.402,0.323,4.879,1.338,6.955,2.622c7.738,4.787,15.323,9.818,23.609,15.171c-10.748,1.863-19.917,3.453-29.409,5.099
		c1.708,8.454,6.401,12.925,11.868,16.367c10.207,6.425,20.722,12.355,30.876,18.354c-7.047-12.836-20.41-19.706-33.437-29.735
		c10.548-2.199,19.044-3.973,28.263-5.897c-1.402-2.015-1.993-3.115-2.815-4.001c-10.335-11.167-22.474-19.703-36.542-25.631
		c-2.805-1.182-5.771-3.555-7.187-6.175c-4.442-8.227-7.991-16.932-12.241-25.271c-4.606-9.042-8.833-18.426-14.607-26.694
		c-11.296-16.175-26.018-29.28-44.409-36.322c-12.317-4.717-25.809-6.38-37.189-13.859c-1.364-0.897-3.008-1.469-4.604-1.894
		c-4.726-1.256-9.061-0.79-12.471,3.231c-3.203,3.774-3.559,7.923-1.309,12.163c1.547,2.917,3.703,5.505,5.332,8.385
		c3.646,6.446,7.286,12.906,10.642,19.505c4.017,7.896,7.834,15.897,11.498,23.963c0.737,1.623,0.882,3.856,0.465,5.609
		c-2.604,10.953-6.05,21.957-2.743,33.193c1.899,6.45,4.909,12.741,8.479,18.438c1.323,2.112,5.952,3.579,8.564,3.009
		c2.159-0.47,4.127-4.158,5.156-6.815c1.156-2.978,1.161-6.401,1.667-9.631c0.513-0.247,1.03-0.493,1.543-0.74
		c4.751,14.27,16.563,22.086,27.027,31.172c-12.94-13.366-20.924-29.691-27.917-46.807
		C354.177,226.287,354.809,236.415,352.648,247.078z"/>
	<path fill-rule="evenodd" clip-rule="evenodd" fill="#00618A" d="M210,321.149c0-6.595,0-13.149,0-20.149c-5,0-10,0-16,0
		c0,15,0,27.661,0,41.604c-12,0-25.1,0.163-37.321-0.085c-4.62-0.093-6.938-3.074-6.832-8.088
		c0.234-10.971,0.053-22.432,0.053-33.432c-5.518,0-10.256,0-15.893,0c0,11,0.003,21.121,0,31.316
		c-0.002,10.975,3.054,16.359,13.87,18.047c11.216,1.75,22.778,1.384,34.195,1.816c3.843,0.146,7.697,0.057,11.408,0.057
		c0.902,9.171-1.174,11.828-9.051,12.523c-2.278,0.199-4.262,0.064-6.559,0.064c-14.333,0.003-27.871,0.008-42.871,0.008
		c0,3.937,0,7.153,0,10.909c17,0,33.318,0.265,49.958-0.162c5.05-0.128,10.077-1.652,14.863-3.446
		c7.069-2.657,10.6-7.91,10.381-15.925C209.885,344.53,210,332.837,210,321.149z"/>
	<path fill-rule="evenodd" clip-rule="evenodd" fill="#00618A" d="M286.033,315.847c-3.109-1.559-6.556-3.126-9.936-3.403
		c-9.538-0.783-19.147-0.865-28.715-1.297c-6.599-0.298-9.01-2.66-9.49-9.086c-0.75-10.068,1.477-12.209,11.882-12.393
		c9.178-0.162,18.359,0.332,27.542,0.332c5.169,0,10.683,0,15.683,0c0-3,0-6.956,0-10.136c-18,0-34.855-0.197-52.134,0.163
		c-3.558,0.074-7.218,1.829-10.51,3.503c-9.592,4.871-7.168,14.02-7.267,22.133c-0.076,6.144,4.171,9.192,9.187,11.321
		c2.273,0.966,4.694,2.017,7.101,2.178c9.129,0.608,18.284,0.901,27.43,1.251c8.513,0.328,10.604,2.607,10.542,11.681
		c-0.054,8.109-2.185,10.339-10.411,10.399c-12.73,0.097-25.145,0.032-37.876,0.074c-1.787,0.007-4.062,0.229-5.062,0.354
		c0,3.433,0,6.271,0,9.494c15,0,30.038,0.251,45.015-0.063c18.639-0.393,23.833-6.374,23.966-24.987
		C293.021,321.761,290.616,318.143,286.033,315.847z"/>
	<path fill-rule="evenodd" clip-rule="evenodd" fill="#00618A" d="M420.972,342.506c-9.457-0.053-12.192-2.476-12.233-11.868
		c-0.059-14.392-0.132-28.312-0.162-42.706c-0.005-2.422-0.412-4.932-0.562-6.932c-4.957,0-9.252,0-14.335,0
		c0,17,0.014,33.613-0.002,50.285c-0.012,12.965,5.188,19.491,17.986,20.335c17.166,1.132,34.337,0.044,52.337,0.044
		c0-2.904,0-5.851,0-9.137C448,342.527,434.926,342.586,420.972,342.506z"/>
	<path fill-rule="evenodd" clip-rule="evenodd" fill="#00618A" d="M349.875,154.413c-0.356,0.638-0.716,1.276-1.074,1.914
		c2.149,3.29,4.301,6.578,6.45,9.866c0.514-0.078,1.028-0.156,1.541-0.231c0-2.499,0.896-5.566-0.236-7.344
		C355.279,156.611,352.181,155.765,349.875,154.413z"/>
</g>
</svg>
