<?xml version="1.0" encoding="utf-8"?>
<!-- Generator: Adobe Illustrator 16.0.0, SVG Export Plug-In . SVG Version: 6.00 Build 0)  -->
<!DOCTYPE svg PUBLIC "-//W3C//DTD SVG 1.1//EN" "http://www.w3.org/Graphics/SVG/1.1/DTD/svg11.dtd">
<svg version="1.1" id="Layer_1" xmlns="http://www.w3.org/2000/svg" xmlns:xlink="http://www.w3.org/1999/xlink" x="0px" y="0px"
	 width="500px" height="500px" viewBox="0 0 500 500" enable-background="new 0 0 500 500" xml:space="preserve">
<g>
	<path fill-rule="evenodd" clip-rule="evenodd" fill="#80B5E2" d="M487.422,7.858c-138.799-0.043-277.261-0.04-416.06-0.04
		c-19.852,0-39.716-0.017-59.567,0.041C10.535,7.862,9.021,8.448,8,8.763C8,170.09,8,332,8,492c161.363,0,323,0,483,0
		c0-160,0-321.91,0-483.237C490,8.448,488.838,7.858,487.422,7.858z M438.044,444.435c-125.067-0.144-250.136-0.113-375.203-0.116
		c-6.038,0-6.046-0.01-6.046-6.231c-0.001-124.91-0.001-249.821,0-374.73c0-6.155,0.01-6.165,6.114-6.165
		c124.91-0.002,249.819-0.002,374.729-0.002c6.276,0.002,6.282,0.01,6.283,6.472c0.002,62.375,0.001,124.753,0.001,187.129
		c-0.001,62.533-0.055,125.066,0.109,187.599C444.045,443.147,442.896,444.439,438.044,444.435z"/>
	<path fill-rule="evenodd" clip-rule="evenodd" fill="#80B5E2" d="M220.94,156.974c-25.552-5.99-51.27-3.037-76.961-0.41
		c-5.455,0.557-6.66,2.891-6.646,7.731C137.498,222.563,137,280.831,137,339.101c0,1.831,0,2.899,0,3.899c13,0,23,0,34,0
		c0-10,0-21.857,0-33.479c0-11.783,0-23.563,0-35.699c19,1.437,37.101,1.094,54.24-5.019c27.473-9.8,41.403-31.079,39.916-62.145
		C263.956,181.569,248.402,163.412,220.94,156.974z M213.456,242.59c-12.238,5.965-25.25,5.822-38.336,4.054
		c-1.02-0.139-2.586-1.957-2.595-3.003c-0.154-20.425-0.115-40.85-0.115-61.835c11.999-1.867,23.373-2.782,34.724,0.07
		c14.075,3.537,22.24,12.719,23.76,26.506C232.565,223.524,226.115,236.419,213.456,242.59z"/>
	<path fill-rule="evenodd" clip-rule="evenodd" fill="#80B5E2" d="M341.057,269.819c-5.629-3.086-11.802-5.163-17.648-7.869
		c-5.404-2.503-10.856-4.966-15.993-7.953c-3.581-2.083-5.211-5.716-5.211-10.008c0-7.248,4.959-13.092,13.426-13.784
		c6.317-0.515,12.877,0.136,19.136,1.301c5.273,0.98,10.272,3.448,15.64,5.346c2.245-7.965,4.447-15.781,6.771-24.02
		c-12.816-6.225-25.863-8.565-39.411-8.088c-11.517,0.406-22.278,3.339-32,9.958c-18.175,12.376-27.04,45.239,0.196,62.902
		c6.917,4.486,14.916,7.299,22.417,10.886c4.667,2.231,9.537,4.132,13.95,6.791c5.562,3.349,7.455,8.799,6.492,15.096
		c-0.947,6.193-5.097,10.109-10.868,11.015c-6.437,1.011-13.281,1.662-19.611,0.551c-8.964-1.576-17.62-4.909-26.72-7.584
		c-1.634,6.092-3.186,12.831-5.305,19.39c-1.16,3.591-0.479,5.369,3.048,6.771c21.521,8.553,43.43,10.311,65.453,2.749
		c16.459-5.651,26.496-17.337,27.803-35.133C363.894,290.796,356.076,278.057,341.057,269.819z"/>
</g>
</svg>
