<svg xmlns="http://www.w3.org/2000/svg" viewBox="0 0 128 128"><path fill="#ee352c" d="M72.207 12.256c-.235-.032-4.028 1.337-6.474 2.33-3.302 1.347-5.866 2.63-7.448 3.74-.524.372-1.144.983-1.359 1.319l-.01-.026s-.02.064-.03.082c-.01.02-.035.05-.042.067a1 1 0 0 0-.067.363l.036.033c.009.115.037.244.093.385.14.342.545.758 1.004 1.186 0 0 4.755 4.636 5.332 5.298 2.628 3.035 3.773 6.026 3.88 10.15.064 2.65-.439 4.981-1.688 7.684-2.222 4.851-6.913 10.203-14.147 16.143l.104-.035c-.044.035-.116.099-.158.133-.866.684-2.148 1.965-2.8 2.777-.972 1.218-1.74 2.512-2.072 3.506-.587 1.795-.3 3.61.833 5.287 1.453 2.137 4.35 4.318 7.726 5.803 1.72.758 4.615 1.73 6.795 2.275 3.622.92 10.632 1.913 14.488 2.063.78.032 1.827.032 1.87 0 .085-.054.684-1.196 1.378-2.618 2.372-4.84 4.082-9.381 5.012-13.26.555-2.35.993-5.481 1.281-9.189.076-1.036.107-4.508.043-5.683-.097-1.923-.268-3.484-.535-5.012-.031-.164-.026-.244-.023-.318 8.587-2.551 18.06-4.862 24.353-5.825l.97-.15-.148-.234c-.855-1.325-1.442-2.15-2.148-3.026-2.051-2.543-4.541-4.605-7.586-6.314-4.189-2.34-9.606-4.167-16.465-5.524-1.292-.256-4.132-.747-6.44-1.1l-.216-.384c-1.261-2.222-2.65-4.979-3.46-6.838-.631-1.442-1.23-3.11-1.561-4.307-.182-.726-.204-.769-.32-.779Zm-.172.545h.012c.01.01.053.312.096.664a22.273 22.273 0 0 0 1.037 4.498c.395 1.176.395 1.11-.065.97-1.089-.298-5.973-1.14-9.51-1.632-.566-.075-1.046-.15-1.046-.16-.044-.043 2.554-1.4 3.697-1.934 1.464-.673 5.48-2.352 5.78-2.406zm-10.298 4.787.416.139c2.265.77 7.96 1.86 11.101 2.117.352.032.652.063.662.063.011.01-.287.171-.672.353a58.988 58.988 0 0 0-4.34 2.404 5.405 5.405 0 0 1-.632.356 656.176 656.176 0 0 1-1.055-.172l-1.004-.984a447.791 447.791 0 0 0-3.922-3.774zm-.428.332 1.506 1.881c.822 1.036 1.656 2.05 1.838 2.275.163.202.27.336.289.375-1.064-.185-2.203-.378-3.079-.566-.64-.14-1.868-.429-2.83-.76a20.828 20.828 0 0 0-.32-.12v-.114c.01-.716.918-1.786 2.457-2.875zm12.8 2.565c.044 0 .097.096.225.384.363.802 1.496 2.96 1.774 3.377l.035.057a656.176 656.176 0 0 1-6.047-.986 1.08 1.08 0 0 1 .2-.13 20.845 20.845 0 0 0 3.257-2.253c.246-.203.47-.395.514-.428.01-.021.032-.032.043-.021zm-14.435 1.804c.01-.01.182.054.406.13.406.138.93.299 1.55.47a78.807 78.807 0 0 0 1.41.373c.64.16 1.175.31 1.185.31.075.075 1.154 3.525 1.517 4.85.139.503.248.93.237.93-.011.01-.13-.17-.268-.416-1.25-2.201-3.227-4.434-5.514-6.229a4.444 4.444 0 0 1-.523-.418zm5.246 1.444c0 .021-.001.01.01.01.054 0 .29.033.578.097 1.817.406 5.075 1.025 7.158 1.377.353.054.631.117.631.139 0 .021-.128.096-.289.181a38.96 38.96 0 0 0-2.244 1.348c-1.186.79-2.254 1.645-3.024 2.414a43.457 43.457 0 0 1-.576.567s-.063-.183-.117-.407c-.384-1.485-1.187-3.685-1.914-5.234a4.508 4.508 0 0 1-.213-.492zm9.264 1.773c.064.022.171.384.385 1.186a17.492 17.492 0 0 1 .513 4.894c-.021.449-.043.865-.064.918l-.033.108-.555-.182a170.31 170.31 0 0 0-4.596-1.357c-.908-.246-1.644-.47-1.644-.49 0-.065 1.324-1.391 1.89-1.893 1.08-.951 4.007-3.216 4.104-3.184zm.738.108c.035-.032 4.422.726 6.42 1.11 1.485.29 3.643.737 3.771.79.064.022-.16.15-.876.47-2.82 1.272-4.913 2.416-6.997 3.805-.545.363-1.004.662-1.015.662-.011 0-.022-.31-.022-.683 0-2.03-.406-4.081-1.154-5.813-.075-.17-.138-.33-.127-.341zm11.357 2.244c.033.032-.108.895-.236 1.408-.384 1.592-1.42 3.955-2.691 6.178-.225.395-.428.715-.45.726-.021.011-.309-.15-.64-.344-1.24-.726-2.65-1.41-4.19-2.05-.427-.182-.801-.33-.812-.352-.075-.064 3.367-2.34 5.184-3.43 1.442-.876 3.793-2.18 3.835-2.136zm.811.127c.096 0 2.042.535 3.057.834 2.51.748 5.394 1.805 7.275 2.66l.78.353-.544.127c-4.594 1.058-8.527 2.276-12.32 3.815a8.1 8.1 0 0 1-.61.236c-.02 0 .086-.248.225-.547 1.143-2.425 1.881-4.956 2.063-7.115.01-.203.042-.363.074-.363zM67.73 32.43c.033-.032 1.518.32 2.319.545 1.218.342 3.803 1.206 3.803 1.271 0 .011-.288.256-.63.555-1.4 1.165-2.747 2.395-4.36 3.955-.481.46-.886.832-.907.832-.021 0-.032-.065-.021-.15.246-1.795.191-4.102-.15-6.442-.033-.299-.064-.555-.053-.566zm31.21.031c.02.021-.685 1.133-1.133 1.764-.641.919-1.58 2.138-3.707 4.808a711.151 711.151 0 0 0-2.8 3.537c-.428.534-.78.984-.791.984-.01 0-.149-.192-.299-.428-1.196-1.794-2.63-3.365-4.328-4.775a24.957 24.957 0 0 0-.79-.643 1.196 1.196 0 0 1-.214-.181c0-.032 1.817-.812 3.195-1.368a110.204 110.204 0 0 1 8.172-2.918c1.294-.405 2.672-.8 2.694-.779zm.822.215c.042-.01.3.118.61.299 2.596 1.485 5.139 3.398 7.148 5.363.566.556 1.966 2.01 1.945 2.02 0 0-.492.043-1.068.086-4.499.342-10.258 1.291-15.793 2.627a21.367 21.367 0 0 1-.727.162c-.021 0 .396-.418.92-.92 3.248-3.131 4.733-5.107 6.484-8.633.246-.523.46-.971.48-1.004zm-23.795 2.436c.15.032 1.539.683 2.586 1.207.962.48 2.406 1.25 2.48 1.314.011.01-.502.278-1.132.588a74.485 74.485 0 0 0-5.524 3.045c-.513.31-.94.566-.951.566-.043 0-.033-.043.256-.566.962-1.752 1.73-3.846 2.168-5.887.043-.16.085-.267.117-.267zm-1.389.255c.032.033-.33 1.347-.554 2.063a26.327 26.327 0 0 1-1.891 4.338c-.171.3-.427.737-.566.982l-.268.428-.598-.576c-.694-.673-1.262-1.091-1.988-1.465-.288-.15-.512-.278-.512-.299 0-.085 1.827-1.74 3.227-2.937 1.004-.866 3.118-2.565 3.15-2.534zm8.494 3.495.526.341a40.594 40.594 0 0 1 3.685 2.725c.61.502 1.785 1.56 2.02 1.816l.127.14-.865.245c-4.894 1.357-8.675 2.565-13.088 4.19-.492.18-.908.33-.94.33-.064 0-.118.054.983-.961 2.82-2.596 5.32-5.46 7.18-8.248zm-2.232.556c.022.022-1.442 2.084-2.318 3.248a144.465 144.465 0 0 1-4.19 5.235c-.533.63-.992 1.153-1.013 1.164-.033.01-.043-.15-.043-.395 0-1.293-.332-2.67-.909-3.846-.245-.49-.288-.61-.234-.664.203-.18 3.312-1.954 5.277-3.011 1.326-.705 3.398-1.752 3.43-1.73zm-13.506 3.31c.033 0 .28.13.557.28a11.745 11.745 0 0 1 1.838 1.238c.02.022-.256.247-.62.514a99.807 99.807 0 0 0-3.45 2.607c-.941.748-.974.77-.868.61.706-1.08 1.058-1.69 1.432-2.469a19.89 19.89 0 0 0 .898-2.232c.085-.31.192-.547.213-.547zm3.58 2.823h.022c.053-.01.118.084.406.512.609.907 1.08 2.126 1.197 3.11l.022.214-1.465.566c-2.618 1.015-5.033 2.018-6.668 2.766a127.7 127.7 0 0 0-1.783.855c-.524.267-.951.47-.951.46 0-.011.331-.256.738-.555 3.195-2.319 5.96-4.861 8.033-7.405.225-.266.428-.512.45-.523zm-1.635.406c.043.044-1.174 1.42-2.007 2.264-2.062 2.105-4.105 3.75-6.637 5.353-.32.203-.608.385-.64.407-.075.042.021-.064 1.132-1.272a29.102 29.102 0 0 0 1.848-2.191c.406-.524.482-.597 1.07-1.014 1.57-1.133 5.192-3.59 5.234-3.547zm14.307 1.274c.143.355.443 3.272.524 5.22.021.439.011.729-.01.729-.086 0-1.807-1.016-3.035-1.785-1.065-.67-3.076-2.004-3.409-2.268a197.762 197.762 0 0 1 5.93-1.896zm-7.078 2.304c.14.06.35.176.775.438 2.2 1.378 5.193 3.046 6.475 3.601.395.171.438.107-.47.727-1.945 1.325-4.37 2.63-7.34 3.943a22.297 22.297 0 0 1-.973.416c-.021 0 .042-.267.127-.587.716-2.661 1.123-5.353 1.144-7.512.006-.538.008-.803.022-.94l.24-.086zm-1.639.584c.056.197.017 2.396-.066 3.028a27.193 27.193 0 0 1-.982 4.648c-.118.395-.225.727-.247.748-.043.053-1.505-1.378-1.986-1.933-.833-.962-1.486-1.924-1.967-2.864-.231-.453-.563-1.264-.576-1.388 1.515-.616 3.082-1.23 4.733-1.85.339-.127.738-.26 1.091-.389zm-6.943 2.707c.027.042.087.178.146.354.342.93 1.111 2.298 1.774 3.174.726.961 1.678 1.985 2.469 2.658.256.214.49.417.521.45.065.063.088.054-1.654.716-2.019.77-4.22 1.537-6.742 2.35a336.296 336.296 0 0 0-1.807.587c-.096.032-.063-.02.215-.458 1.25-1.955 3.152-5.79 4.22-8.504.182-.471.363-.943.395-1.05.013-.045.034-.07.05-.1.14-.06.272-.118.413-.177zm-2.23.954c-.048.17-.507 1.135-1 2.103-1.037 2.02-2.17 4.006-3.686 6.42-.257.417-.503.803-.535.846-.054.074-.073.054-.244-.278-.363-.716-.664-1.636-.825-2.48-.16-.834-.126-2.286.055-3.184.081-.386.117-.537.192-.633a125.338 125.338 0 0 1 6.043-2.794zm18.478.638v.45c0 2.382-.257 5.652-.63 8.035-.065.416-.118.758-.128.77 0 0-.31-.087-.674-.194a27.572 27.572 0 0 1-4.916-2.106c-1.036-.565-2.542-1.494-2.5-1.537.011-.01.461-.245.985-.523 2.094-1.09 4.101-2.265 5.843-3.43.652-.438 1.634-1.143 1.848-1.336zM57.68 57.602c.028.018.02.105-.037.449a15.142 15.142 0 0 0-.117 1.145c-.086 1.56.172 2.714.941 4.294.214.439.384.8.373.811-.075.065-7.146 2.137-9.37 2.746-.662.181-1.239.343-1.282.354-.074.021-.085.01-.053-.172.246-1.57 1.442-3.621 3.11-5.352 1.11-1.154 1.996-1.828 3.513-2.693a97.18 97.18 0 0 1 2.12-1.164c.261-.14.536-.279.802-.418zm16.664 2.96c.01-.01.267.13.576.311 2.287 1.325 5.472 2.553 8.186 3.184l.246.053-.344.191c-1.42.79-6.09 2.735-10.865 4.52-.695.256-1.377.513-1.506.566-.128.054-.246.086-.246.076 0-.01.192-.384.437-.844 1.336-2.5 2.681-5.546 3.366-7.662.085-.203.139-.383.15-.394zm-1.7.555c.012.011-.074.236-.18.493-.93 2.254-2.149 4.712-3.708 7.468-.396.706-.725 1.272-.736 1.272-.011 0-.332-.193-.717-.428-2.266-1.39-4.274-3.098-5.588-4.754l-.193-.236.972-.268c3.484-.95 6.442-1.976 9.381-3.236.417-.171.76-.31.77-.31zm10.557 3.688c.01.248-.534 2.446-.982 4.037a115.675 115.675 0 0 1-1.283 4.232c-.256.813-.48 1.485-.49 1.485a.65.65 0 0 1-.14-.031c-3.173-.577-6.016-1.38-8.687-2.448-.748-.299-1.816-.78-1.88-.834-.022-.021.62-.32 1.431-.672 4.862-2.126 9.906-4.541 11.637-5.578.202-.128.362-.191.394-.191zm-24.37.832c.02.022-1.337 1.976-3.239 4.637-.662.93-1.43 2.019-1.719 2.425a42.72 42.72 0 0 0-.972 1.432l-.45.695-.48-.406c-.566-.47-1.55-1.474-1.988-2.03-.92-1.143-1.538-2.35-1.784-3.45-.118-.513-.118-.77-.011-.801.16-.043 3.014-.716 5.685-1.336a473.85 473.85 0 0 0 3.824-.898c.62-.15 1.123-.268 1.133-.268zm1.366.523.342.385c1.539 1.72 3.11 2.993 5.012 4.104.341.192.598.362.576.373-.075.054-6.603 2.372-9.627 3.42a257.65 257.65 0 0 1-3.11 1.078c-.01 0-.105-.064-.212-.139l-.193-.139.31-.449c1.004-1.453 2.265-3.045 5.012-6.357zm8.528 6.102c.01-.01.48.16 1.056.373 1.39.524 2.49.855 3.965 1.229 1.817.46 4.445.908 5.994 1.037.235.02.363.044.32.076-.074.043-1.646.566-2.8.93-1.838.576-7.446 2.232-12.02 3.546-.844.246-1.57.45-1.613.46-.106.021-.459-.076-.459-.118 0-.021.257-.353.567-.717a63.41 63.41 0 0 0 4.337-5.834c.353-.534.653-.971.653-.982zm-1.881.053v.002c.01.01-.75 1.228-2.074 3.322-.566.886-1.196 1.891-1.42 2.244-.214.342-.536.875-.717 1.174l-.309.545-.16-.043c-.384-.107-3.089-1.057-3.804-1.346a26.46 26.46 0 0 1-2.489-1.142c-.855-.46-1.923-1.145-1.838-1.166.022-.011 1.484-.407 3.246-.887 4.68-1.272 7.278-2.009 8.977-2.543.31-.096.577-.171.588-.16zm13.303 3.12h.01c.042.107-1.688 4.915-2.319 6.432-.138.342-.193.427-.267.416-.182-.01-2.693-.361-4.221-.585-2.66-.406-7.127-1.188-8.248-1.444l-.256-.055 1.592-.36c3.42-.77 5.063-1.187 6.73-1.7a47.576 47.576 0 0 0 6.293-2.426c.331-.15.61-.267.686-.277zm-42.205 5.17c-.44 0-.8.133-1.096.41-.344.327-.527.75-.527 1.325v.838h-.864v.687h.864v4.405l.005-.002h.819v-4.422h1.195v-.688h-1.195v-.789c0-.718.276-1.076.851-1.076.193 0 .391.049.537.131v-.738c-.146-.066-.343-.08-.59-.08zm-27.705.194a.514.514 0 0 0-.375.149.528.528 0 0 0-.165.376c0 .163.05.277.165.375a.541.541 0 0 0 .375.15h.002a.509.509 0 0 0 .375-.15.521.521 0 0 0 .166-.375.472.472 0 0 0-.163-.376.526.526 0 0 0-.38-.149zm69.986.084v.229h.605v1.836h.229v-1.836h.607v-.229zm1.752 0v2.065h.228V81.57l.016-.004c0-.177 0-.324-.014-.407.015.097.05.164.065.213l.703 1.575h.113l.707-1.59c.02-.048.034-.114.065-.198a4.101 4.101 0 0 0-.016.395v1.39h.244v-2.062h-.293l-.64 1.424c-.015.05-.065.149-.096.262h-.022c-.012-.066-.044-.133-.091-.245l-.64-1.44Zm-81.23.232v7.157h.804v-4.797l.014-.004c0-.64-.02-1.116-.035-1.395h.015c.065.33.147.577.213.74l2.44 5.454h.41l2.441-5.502c.067-.15.132-.376.213-.69h.018a15.8 15.8 0 0 0-.065 1.397v4.81h.836v-7.152H7L4.756 86.11c-.083.197-.197.49-.344.882H4.38a5.771 5.771 0 0 0-.326-.85l-2.195-5.027Zm39.751.536c-.28.097-.556.18-.818.261v1.245h-.88v.687h.88v3.03h.004c0 1 .44 1.51 1.342 1.51.327 0 .572-.053.77-.17v-.702a.855.855 0 0 1-.526.166c-.278 0-.474-.067-.588-.215-.117-.147-.184-.394-.184-.736v-2.883h1.297v-.687h-1.297zm3.377.443c-.413 0-.753.132-1.031.41-.282.278-.41.62-.41 1.014 0 .413.132.755.41 1.014.263.263.604.394 1.014.394v.004c.409 0 .75-.132 1.03-.414a1.37 1.37 0 0 0 .427-1.014c0-.41-.147-.75-.426-1.013a1.41 1.41 0 0 0-1.014-.395zm0 .148c.357 0 .655.115.903.358.244.245.375.542.375.902a1.261 1.261 0 0 1-.375.916 1.23 1.23 0 0 1-.903.36c-.362 0-.657-.112-.9-.36a1.261 1.261 0 0 1-.375-.916c0-.36.11-.657.355-.902.244-.243.541-.358.92-.358zm-.607.327v1.834h.262v-.77l.03.002h.167c.117 0 .232.112.33.326l.197.442h.309l-.244-.493c-.1-.197-.196-.31-.31-.341.144-.034.259-.083.34-.18a.452.452 0 0 0 .112-.33.42.42 0 0 0-.146-.346c-.113-.094-.293-.144-.526-.144zm.29.213h.233c.165 0 .281.033.346.082.061.048.08.112.08.228 0 .213-.133.313-.377.313h-.281zm-20.937.244c-.77 0-1.39.23-1.85.673-.491.488-.751 1.179-.751 2.063 0 .77.21 1.408.654 1.883.458.492 1.065.738 1.834.738l-.002.002c.77 0 1.39-.248 1.85-.74.458-.488.687-1.146.687-1.965 0-.835-.21-1.474-.639-1.95-.425-.474-1.013-.704-1.783-.704zm9.909 0-.004.002c-.77 0-1.39.229-1.85.672-.488.489-.75 1.178-.75 2.062 0 .77.211 1.408.652 1.883.46.492 1.066.738 1.836.738.788 0 1.39-.248 1.85-.74.46-.49.69-1.146.69-1.965 0-.835-.216-1.473-.641-1.95-.442-.474-1.032-.702-1.783-.702zm-17.967.002c-.818 0-1.457.262-1.934.77-.473.506-.717 1.195-.717 2.027 0 .74.213 1.362.655 1.837.46.488 1.047.737 1.767.737.558-.016 1.013-.133 1.408-.362v-.785c-.395.295-.818.442-1.257.442-.525 0-.953-.18-1.264-.526-.31-.342-.477-.816-.477-1.408 0-.62.168-1.113.51-1.488.328-.36.754-.541 1.276-.541.426 0 .834.133 1.212.396v-.838c-.344-.18-.735-.261-1.18-.261zm13.199.021c-.525 0-.969.145-1.295.424a1.31 1.31 0 0 0-.508 1.062c0 .375.112.687.326.916.18.195.49.395.918.573.41.18.686.342.834.474a.625.625 0 0 1 .213.489c0 .477-.327.724-.965.724-.492 0-.933-.161-1.328-.488v.88c.357.216.786.313 1.26.313.606-.032 1.08-.18 1.406-.474l.006-.002c.312-.278.477-.621.477-1.05a1.28 1.28 0 0 0-.377-.933c-.2-.197-.505-.374-.951-.554-.394-.165-.638-.311-.77-.426a.7.7 0 0 1-.213-.528c0-.212.082-.373.244-.505.165-.131.377-.196.659-.196.44 0 .818.117 1.162.364v-.82a2.396 2.396 0 0 0-1.098-.243Zm-8.613.027c-.295 0-.557.1-.79.282-.243.193-.437.488-.552.863h-.02v-1.045h-.816v5.107h.818v-2.62l.018-.003c0-.587.13-1.06.375-1.388.229-.294.508-.444.836-.444.278 0 .475.051.619.166v-.853c-.112-.05-.276-.065-.488-.065zm-9.268.407v4.457h.72v-4.457zm22.613.232c.507 0 .914.163 1.21.49.261.36.41.853.41 1.508h.002c0 .623-.133 1.114-.41 1.442-.279.344-.688.525-1.23.525-.525 0-.931-.181-1.243-.525-.31-.345-.46-.819-.46-1.442 0-.657.164-1.166.493-1.508.31-.327.72-.49 1.228-.49zm-9.923.016c.526 0 .92.163 1.212.492.295.344.442.833.442 1.49 0 .622-.132 1.114-.41 1.442-.277.344-.686.525-1.227.525-.525 0-.934-.181-1.246-.525-.31-.345-.457-.819-.457-1.442-.032-.62.131-1.127.457-1.49.312-.329.722-.492 1.229-.492zM6.88 90.196c-3.24-.048-5.337 1.014-6.318 3.177-1.443 3.193-.165 5.6 4.45 8.285 2.592 1.507 3.735 2.818 3.735 4.245 0 2.948-3.553 3.977-7.22 2.127-.754-.376-1.393-.69-1.428-.69-.132.836-.065 2.836-.065 2.836s1.129.474 2.819.8c4.19.836 8.005-1.131 8.365-4.323.314-2.997-.771-4.569-4.877-7.022v.002c-2.734-1.657-3.946-2.85-3.797-4.26.424-3.896 5.237-3.356 7.904-1.882l.02-2.622s-1.475-.64-3.588-.673zm16.13 0v.002c-.197 0-.394.02-.589.02-3.98.211-6.666 1.964-8.236 5.386-1.343 3.094-1.196 7.138.015 10.252 1.408 3.042 3.684 4.648 7.483 5.254.803.132 1.342.571 2.9 2.388l1.914 2.246h3.475l-2.31-2.33c-1.278-1.276-2.31-2.388-2.31-2.486 0-.097.489-.31 1.08-.49 1.95-.59 3.567-2.096 4.7-4.404.916-1.853 1.048-2.427 1.18-4.733.343-6.863-3.275-11.154-9.301-11.105zm35.581.035c-3.242-.048-5.337 1.014-6.32 3.177-1.441 3.192-.147 5.6 4.453 8.286 2.588 1.506 3.732 2.8 3.732 4.226 0 2.948-3.553 3.994-7.22 2.127-.751-.375-1.39-.685-1.426-.685-.131.835-.065 2.836-.065 2.836s1.115.454 2.8.798c4.194.837 8.008-1.126 8.368-4.318.311-2.982-.769-4.553-4.863-7.01v-.004c-2.734-1.652-3.944-2.85-3.797-4.26.424-3.896 5.238-3.355 7.904-1.882l.02-2.621s-1.474-.64-3.586-.67zm-23.139.213v20.24h10.692v-2.39h-8.15v-17.85zM22.83 92.326c4.226 0 6.63 2.587 6.944 7.45.248 4.06-1.112 7.106-3.715 8.369l-.002.002c-1.69.818-4.144.98-5.746.392-1.656-.608-3.26-2.326-3.98-4.273-.802-2.13-.687-6.06.23-7.828 1.473-2.817 3.422-4.112 6.27-4.112zm85.557 3.57a7.67 7.67 0 0 0-1.559.18c-3.37.883-5.27 4.114-5.14 7.438 0 2.779.54 4.158 1.883 5.615 2.75 2.26 5.24 2.439 8.613 1.227a92.962 92.962 0 0 0 1.193-.52v-2.262l-1.195.624c-2.723 1.18-4.77 1.179-6.404-.215-1.051-1.063-1.506-2.325-1.72-3.8h10.153v-1.933c0-3.924-2.375-6.416-5.83-6.35zm18.16 0c-.413 0-.755.132-1.033.413-.278.276-.41.62-.41 1.014 0 .41.132.751.408 1.015.278.263.62.393 1.033.393.407 0 .75-.131 1.033-.41.276-.28.422-.604.422-1.012-.015-.413-.163-.756-.441-1.018l.002-.002a1.406 1.406 0 0 0-1.014-.392zm-55.299.034a7.32 7.32 0 0 0-1.537.18c-3.374.883-5.276 4.112-5.16 7.435 0 2.783.543 4.176 1.885 5.635 2.75 2.257 5.238 2.436 8.595 1.225.572-.244 1.198-.526 1.198-.526v-2.258l-1.198.621c-2.717 1.183-4.762 1.183-6.402-.21-1.045-1.065-1.508-2.341-1.719-3.8h10.168V102.3c0-3.942-2.372-6.431-5.826-6.37h-.002zm51.955.098c-1.457 0-2.585.59-3.324 1.754l-.59.916v-2.39h-2.521v14.343h2.52v-4.584c0-4.192.05-4.684.638-5.83.808-1.571 2.199-2.357 3.541-1.979l.9.262v-2.492zm3.325.02c.357 0 .654.11.902.355.243.248.375.544.375.9 0 .381-.113.674-.375.922a1.215 1.215 0 0 1-.902.357c-.357 0-.653-.113-.9-.357a1.273 1.273 0 0 1-.376-.92c0-.357.113-.654.36-.902.244-.244.539-.356.916-.356zm-40.461.013c-1.457 0-2.573.59-3.325 1.752l-.59.92V96.34h-2.519v14.346h2.52V106.1c0-4.193.052-4.683.638-5.83.807-1.574 2.196-2.358 3.54-1.983l.9.264v-2.486h-1.162zm1.964.262a445.904 445.904 0 0 0 5.372 14.36c.803.019 1.606 0 2.408 0l2.83-7.107 2.88-7.252h-2.486s-1.1 2.882-2.246 6.108l.004-.002-2.096 5.453-2.015-5.484-2.047-6.077zm37.924.068v1.832h.264v-.772h.164c.112 0 .224.115.326.329l.196.441h.312l-.244-.492c-.084-.211-.182-.307-.28-.34a.704.704 0 0 0 .344-.18.457.457 0 0 0 .114-.33.419.419 0 0 0-.147-.344c-.113-.094-.294-.144-.525-.144zm.276.213h.232c.164 0 .278.03.344.08.066.05.08.113.08.23 0 .212-.132.31-.375.31h-.281zm-17.994 1.44c.752 0 1.506.242 2.128.718 1.277.983 1.493 3.408 1.493 3.408h-7.58c.008-.048.39-2.45 1.767-3.424a3.783 3.783 0 0 1 2.192-.703zm-37.135.048a3.51 3.51 0 0 1 2.129.72c1.277.983 1.49 3.39 1.49 3.39h-7.578c.008-.054.387-2.453 1.765-3.407a3.802 3.802 0 0 1 2.194-.703z"/></svg>
