<?xml version="1.0" encoding="utf-8"?>
<svg version="1.1" xmlns="http://www.w3.org/2000/svg" xmlns:xlink="http://www.w3.org/1999/xlink" 
	 viewBox="0 0 128 128" xml:space="preserve">
<g>
	<path d="M55.25,4.15c-0.33,0.11-2.1,0.68-3.96,1.29C41.29,8.71,34.21,12.5,32.45,15.5c-0.67,1.15-0.8,2.08-0.4,3.01
		c0.44,1.05,1.25,1.84,3.47,3.41c1.04,0.73,2.81,2.26,3.96,3.41c5.5,5.49,8.17,12.22,7.87,19.83C47.01,53.72,43,62.28,35.32,70.85
		c-2.68,2.99-5.43,5.48-10.71,9.71c-4.4,3.52-6.79,5.8-8.42,8.01c-4.99,6.8-3.66,12.86,3.96,17.92c6.72,4.47,18.56,8.19,32.51,10.21
		c4.68,0.68,9.97,1.11,11.24,0.92l0.89-0.13l1.4-2.52c7.08-12.75,10.66-24.77,11.09-37.21c0.19-5.55-0.51-12.12-1.7-15.96
		c-0.22-0.69-0.38-1.28-0.35-1.3c0.02-0.02,2-0.61,4.4-1.33c12.61-3.76,24.81-6.72,34.89-8.47c1.96-0.34,3.64-0.69,3.73-0.78
		c0.54-0.53-1.03-2.98-3.58-5.61c-9.43-9.73-26.09-17.14-45.64-20.29c-3.77-0.61-4.23-0.83-5.63-2.68
		c-2.22-2.94-4.31-7.97-7.16-17.17C56.15,3.89,56.06,3.89,55.25,4.15L55.25,4.15z M56.55,7.61c1.1,2.99,1.77,5.34,1.77,6.17v0.65
		l-0.93-0.11c-5.04-0.58-13.08-1.83-14.79-2.29c-0.44-0.12-0.69-0.29-0.61-0.42c0.13-0.21,1.84-1.03,6.92-3.34
		c4.74-2.15,6.54-2.95,6.68-2.96C55.65,5.31,56.08,6.34,56.55,7.61L56.55,7.61z M45.89,13.92c6.15,1.29,10.63,2.1,11.62,2.1
		c0.96,0,0.85,0.08-3.67,2.84c-3.49,2.12-3.89,2.32-4.77,2.32h-0.96l-2.58-2.62c-3.13-3.17-5.25-5.49-5.25-5.75
		c0-0.11,0.06-0.14,0.15-0.09C40.51,12.76,42.98,13.31,45.89,13.92L45.89,13.92z M41.35,16.83c1.51,1.76,2.68,3.24,2.62,3.31
		c-0.13,0.13-4.44-0.94-7.08-1.75c-2.3-0.71-2.58-0.95-1.97-1.73c0.4-0.52,3.37-3,3.59-3.01C38.57,13.64,39.84,15.06,41.35,16.83
		L41.35,16.83z M60.97,20.48c0.6,1.43,1.06,2.59,1.04,2.61c-0.03,0.02-8.11-1.23-8.82-1.37c-0.15-0.03,1.22-0.96,3.06-2.08
		s3.41-1.97,3.49-1.88C59.82,17.83,60.37,19.05,60.97,20.48L60.97,20.48z M43.35,23.19c0.16,0.16,2.09,6.36,2,6.44
		c-0.03,0.03-0.95-1.03-2.04-2.38c-1.1-1.35-2.75-3.24-3.7-4.23l-1.71-1.79l2.67,0.92C42.03,22.66,43.29,23.13,43.35,23.19
		L43.35,23.19z M51.07,24.02c3.35,0.48,6.13,0.91,6.18,0.96c0.04,0.05-1.98,1.62-4.5,3.5c-2.52,1.87-4.6,3.38-4.63,3.35
		c-0.03-0.03-0.28-0.81-0.56-1.74c-0.28-0.93-1-2.86-1.59-4.31c-0.59-1.45-1.05-2.63-1.03-2.63C44.96,23.15,47.72,23.55,51.07,24.02
		L51.07,24.02z M59.49,26.7c0.74,1.73,1.03,3.39,1.15,6.7c0.06,1.78,0.07,3.23,0.01,3.23c-0.06,0-1.12-0.37-2.35-0.81
		c-2.46-0.89-7.28-2.48-7.85-2.59c-0.25-0.05,0.91-1.16,3.96-3.79c2.38-2.05,4.4-3.72,4.49-3.72C59,25.73,59.26,26.17,59.49,26.7
		L59.49,26.7z M68.13,27.12c3.71,0.76,6.95,1.44,7.21,1.5c0.37,0.09-0.52,0.65-4.44,2.8c-2.7,1.48-5.76,3.16-6.8,3.75
		c-1.05,0.59-1.91,1.04-1.93,1.02c-0.02-0.02,0.09-0.57,0.24-1.23c0.56-2.4,0.21-5.4-0.91-7.79c-0.33-0.69-0.6-1.3-0.6-1.35
		C60.9,25.65,61.57,25.77,68.13,27.12L68.13,27.12z M78.24,31.65c-0.19,0.84-0.6,2.27-0.93,3.2c-0.71,2.04-3.3,7.33-3.65,7.47
		c-0.14,0.06-1.36-0.51-2.69-1.25c-1.33-0.74-3.26-1.72-4.27-2.17l-1.84-0.82l6.79-4.35c5.63-3.61,6.8-4.29,6.86-3.97
		C78.55,29.96,78.43,30.81,78.24,31.65L78.24,31.65z M83.2,30.1c7.04,2.02,14.47,4.75,14.04,5.16c-0.09,0.08-1.01,0.39-2.04,0.68
		c-5.31,1.51-12.7,4.06-16.16,5.58c-1.07,0.47-2,0.82-2.05,0.77c-0.05-0.05,0.37-1.61,0.94-3.45c1.11-3.63,2.4-8.53,2.4-9.16
		c0-0.28,0.1-0.37,0.35-0.3C80.86,29.43,81.99,29.75,83.2,30.1L83.2,30.1z M52.93,37.4c1.61,0.53,3.48,1.24,4.17,1.59
		c1.25,0.63,1.26,0.64,0.9,1.03c-0.64,0.71-7.63,7.22-7.83,7.29c-0.1,0.04-0.18-0.95-0.18-2.38c-0.01-2.48-0.29-6.95-0.5-7.95
		C49.33,36.25,49.46,36.26,52.93,37.4L52.93,37.4z M97.63,38.69c-1.54,2.54-4.07,6.16-5.9,8.44c-1.87,2.34-5.82,6.74-6.05,6.74
		c-0.09,0-0.66-0.71-1.27-1.59c-2.25-3.21-4.86-5.99-7.15-7.61c-0.22-0.15-0.35-0.32-0.3-0.37c0.05-0.05,3.81-1.43,8.33-3.07
		c9.16-3.32,13.19-4.67,13.44-4.49C98.75,36.77,98.26,37.64,97.63,38.69L97.63,38.69z M103.36,38.26
		c6.32,4.41,10.62,7.98,12.18,10.11c0.39,0.54,0.68,1,0.64,1.03c-0.04,0.03-2.07,0.26-4.53,0.5c-9.81,0.97-16.8,1.95-20.5,2.89
		c-0.99,0.25-1.82,0.44-1.83,0.43c-0.02-0.02,0.63-0.82,1.46-1.81c4.28-5.13,8.14-10.47,9.58-13.24c0.38-0.73,0.75-1.33,0.83-1.33
		C101.26,36.83,102.23,37.47,103.36,38.26L103.36,38.26z M67.93,43.73c1.21,0.65,2.14,1.25,2.09,1.35
		c-0.09,0.18-10.76,6.02-10.85,5.94c-0.02-0.02,0.53-1.77,1.23-3.91c0.7-2.14,1.38-4.46,1.51-5.17l0.24-1.3l1.8,0.96
		C64.95,42.13,66.72,43.08,67.93,43.73L67.93,43.73z M59,44.07c-1.03,3.57-3.12,8.17-4.07,8.97c-0.22,0.18-0.65-0.07-2.06-1.21
		c-0.99-0.8-2-1.59-2.27-1.77c-0.26-0.18-0.45-0.37-0.41-0.42c0.73-0.73,9.23-7.58,9.27-7.47C59.49,42.24,59.28,43.1,59,44.07
		L59,44.07z M78.32,50.28c1.61,1.07,5.17,4.26,4.98,4.46c-0.05,0.05-3.67,1.23-8.03,2.6c-4.36,1.38-9.22,2.94-10.8,3.47
		c-1.59,0.53-2.89,0.95-2.9,0.93c-0.02-0.02,1.09-1.28,2.46-2.81c3.57-3.98,7.24-8.25,8.54-9.93l1.12-1.45l1.47,0.79
		C75.95,48.78,77.39,49.66,78.32,50.28L78.32,50.28z M70.06,47.99c-0.1,0.13-1.06,1.35-2.14,2.72c-1.08,1.36-3.66,4.68-5.76,7.37
		l-3.81,4.9l-0.13-0.83c-0.24-1.61-1.1-4.74-1.59-5.81l-0.49-1.07l2.42-1.21c2.5-1.25,7.71-4.08,10.15-5.5
		C70.25,47.66,70.35,47.62,70.06,47.99L70.06,47.99z M49.85,53.91c0.99,0.51,1.92,1.17,1.92,1.38c0,0.32-6.45,5.3-6.62,5.11
		c-0.04-0.04,0.54-1.19,1.29-2.56c0.76-1.37,1.52-2.9,1.7-3.42c0.18-0.52,0.46-0.94,0.6-0.94C48.9,53.48,49.4,53.68,49.85,53.91
		L49.85,53.91z M55.35,60.04c0.45,0.87,0.91,3.32,0.67,3.54c-0.1,0.09-2.76,1.35-5.93,2.8c-3.17,1.45-7.28,3.4-9.17,4.34
		c-1.88,0.94-3.31,1.6-3.17,1.48c0.14-0.13,2.21-1.86,4.61-3.86c4.64-3.86,9.93-8.47,10.9-9.49l0.58-0.61l0.57,0.55
		C54.73,59.09,55.15,59.65,55.35,60.04L55.35,60.04z M50.14,59.99c-0.46,0.41-2.94,2.58-5.5,4.8C42.08,67,39,69.68,37.8,70.73
		c-2.42,2.11-2.42,2.11,0.67-1.92c2.39-3.12,3.64-4.28,7.07-6.58c1.67-1.12,4.99-2.99,5.31-2.99C50.92,59.23,50.6,59.58,50.14,59.99
		L50.14,59.99z M74.17,62.11c0.13,0.65,0.28,2.69,0.35,4.51l0.12,3.32l-0.77-0.36c-2.66-1.23-10.13-5.44-9.85-5.55
		c1.63-0.65,9.7-3.33,9.79-3.24C73.88,60.86,74.04,61.45,74.17,62.11L74.17,62.11z M67.83,68.05c3.11,1.83,5.68,3.35,5.72,3.38
		c0.04,0.03-0.37,0.37-0.88,0.75c-0.99,0.73-11.54,6.18-11.68,6.04c-0.04-0.04,0.1-0.95,0.31-2c0.43-2.12,0.82-8.44,0.63-10.45
		c-0.06-0.71-0.04-1.21,0.06-1.15C62.1,64.68,64.72,66.22,67.83,68.05L67.83,68.05z M59.23,66.71c0.24,1.97-0.05,5.93-0.58,7.99
		c-0.63,2.42-0.99,3.43-1.26,3.52c-0.37,0.13-2.67-1.97-4.08-3.72c-1.42-1.76-3.28-5.08-3-5.35c0.17-0.16,8.39-3.55,8.64-3.56
		C59.03,65.58,59.16,66.09,59.23,66.71L59.23,66.71z M49.15,71.66c0.87,1.8,2.86,4.4,5.04,6.6c1.4,1.41,1.75,1.87,1.53,2.01
		c-0.98,0.66-5.35,2.71-8.11,3.79c-3.35,1.32-7.7,2.82-7.8,2.7c-0.04-0.04,0.96-1.86,2.22-4.04c2.73-4.74,6.18-11.44,6.18-11.99
		C48.21,70.03,48.5,70.31,49.15,71.66L49.15,71.66z M43.99,71.77c-0.05,0.14-0.47,1.18-0.92,2.33c-1.94,4.92-5.71,11.6-6.55,11.6
		c-0.65,0-1.61-3.89-1.88-7.63l-0.14-1.88l4.61-2.33c2.54-1.28,4.69-2.33,4.8-2.33C44,71.52,44.04,71.63,43.99,71.77L43.99,71.77z
		 M74.77,76.32c0.02,2.83-1.17,9.68-1.8,10.37c-0.26,0.29-3.19-0.79-5.82-2.15c-2.36-1.22-6.24-3.63-6.24-3.87
		c0-0.07,0.59-0.37,1.33-0.68c1.4-0.59,7.91-4.07,10.67-5.7l1.59-0.94l0.14,0.72C74.69,74.46,74.76,75.49,74.77,76.32L74.77,76.32z
		 M31.34,79.59c0.27,2.24,0.96,4.98,1.82,7.16c0.35,0.89,0.6,1.66,0.56,1.7c-0.34,0.31-14.19,4.12-16.02,4.41l-0.87,0.14l0.13-0.67
		c0.19-0.95,1.53-3.69,2.53-5.17c1.24-1.84,4.31-4.92,6.34-6.35c1.51-1.07,5.15-3.19,5.26-3.07C31.1,77.75,31.22,78.58,31.34,79.59
		L31.34,79.59z M62.76,84.31c4.28,2.05,5.9,2.76,7.95,3.47l1.57,0.54l-0.99,0.5c-5.61,2.84-15.53,6.89-18.1,7.39
		c-0.57,0.11-0.65,0.08-0.54-0.2c0.44-1.15,6.36-13.38,6.47-13.38C59.19,82.62,60.84,83.39,62.76,84.31L62.76,84.31z M55.23,83.85
		c-0.3,1.44-1.93,6.11-2.88,8.23c-0.82,1.84-2.72,5.43-3.06,5.77c-0.15,0.15-3.53-1.76-5.13-2.9c-1.8-1.28-5.74-5.08-5.63-5.43
		c0.04-0.13,2.44-1.05,5.33-2.05c6.09-2.1,9.5-3.37,10.49-3.88C55.31,83.09,55.39,83.12,55.23,83.85L55.23,83.85z M72.26,90.3
		c-0.06,0.42-0.4,2.26-0.77,4.12c-1.16,5.83-2.57,9.81-3.47,9.81c-1.24,0-9.73-2.06-12.47-3.03c-1.86-0.66-3.47-1.41-4-1.88
		c-0.33-0.29-0.16-0.39,2.28-1.39c7.85-3.2,16.9-7.28,17.88-8.06C72.28,89.42,72.37,89.48,72.26,90.3L72.26,90.3z M32.54,92.08
		c-0.89,1.59-2.72,4.22-6.2,8.92l-2.97,4l-0.89-0.64c-1.25-0.89-3.23-3.05-4.06-4.42c-0.89-1.47-1.5-3.28-1.57-4.66l-0.06-1.07
		l1.47-0.15c1.99-0.2,7.55-1.35,11.52-2.39c1.8-0.47,3.3-0.83,3.34-0.8C33.15,90.91,32.89,91.45,32.54,92.08L32.54,92.08z
		 M41.17,96.19c0.99,0.71,2.35,1.61,3.05,2.02l1.27,0.74l-0.57,0.24c-0.32,0.13-4.93,1.81-10.26,3.74c-9.1,3.29-9.7,3.48-9.95,3.14
		c-0.15-0.2-0.25-0.41-0.23-0.48c0.02-0.07,2.48-3.24,5.47-7.07l5.43-6.95l2,1.67C38.5,94.17,40.18,95.48,41.17,96.19L41.17,96.19z
		 M43.41,106.64c-1.99,2.97-3.67,5.48-3.73,5.56c-0.15,0.2-3.33-0.55-5.71-1.34c-2.5-0.84-5.58-2.4-6.78-3.43l-0.87-0.75l1.96-0.53
		c8.03-2.19,18.65-5,18.7-4.96C47.02,101.2,45.4,103.67,43.41,106.64L43.41,106.64z M52.97,102.14c4.25,1.46,8.13,2.29,13.16,2.83
		l1.39,0.15l-3.75,1.35c-9.36,3.38-16.94,5.75-20.76,6.49c-1.07,0.21-2.05,0.38-2.16,0.38c-0.11,0,0.66-1.05,1.71-2.32
		c2.86-3.49,5.96-7.46,6.78-8.68c0.4-0.59,0.8-1.09,0.89-1.09C50.32,101.26,51.54,101.65,52.97,102.14L52.97,102.14z M66.92,110.02
		c-1.61,4.16-2.79,6.69-3.21,6.85c-0.8,0.31-11.85-1.32-15.22-2.23c-2.24-0.61-3.67-1.2-3.25-1.35c0.16-0.06,1.76-0.43,3.57-0.84
		c5.85-1.32,14.77-4.03,18.46-5.61c0.48-0.2,0.9-0.35,0.93-0.32C68.22,106.55,67.65,108.12,66.92,110.02L66.92,110.02z"/>
</g>
</svg>
