<?xml version="1.0" encoding="UTF-8"?>
<svg xmlns="http://www.w3.org/2000/svg" xmlns:xlink="http://www.w3.org/1999/xlink" width="128px" height="128px" viewBox="0 0 128 128" version="1.1">
<g id="surface1">
<path style=" stroke:none;fill-rule:nonzero;fill:rgb(34.509805%,39.607844%,94.901961%);fill-opacity:1;" d="M 108.429688 22.546875 C 100.140625 18.671875 91.28125 15.855469 82.019531 14.25 C 80.882812 16.304688 79.554688 19.074219 78.636719 21.273438 C 68.792969 19.792969 59.035156 19.792969 49.371094 21.273438 C 48.457031 19.074219 47.097656 16.304688 45.949219 14.25 C 36.675781 15.855469 27.808594 18.683594 19.519531 22.570312 C 2.808594 47.824219 -1.722656 72.449219 0.542969 96.726562 C 11.628906 105.003906 22.371094 110.035156 32.929688 113.324219 C 35.539062 109.734375 37.863281 105.921875 39.867188 101.898438 C 36.050781 100.449219 32.398438 98.660156 28.945312 96.582031 C 29.859375 95.90625 30.757812 95.195312 31.621094 94.464844 C 52.683594 104.316406 75.566406 104.316406 96.378906 94.464844 C 97.253906 95.195312 98.148438 95.90625 99.054688 96.582031 C 95.59375 98.671875 91.925781 100.460938 88.113281 101.910156 C 90.113281 105.921875 92.429688 109.746094 95.046875 113.335938 C 105.621094 110.042969 116.371094 105.015625 127.457031 96.726562 C 130.113281 68.585938 122.914062 44.183594 108.429688 22.546875 Z M 42.738281 81.796875 C 36.414062 81.796875 31.230469 75.894531 31.230469 68.707031 C 31.230469 61.519531 36.304688 55.605469 42.738281 55.605469 C 49.171875 55.605469 54.355469 61.507812 54.246094 68.707031 C 54.253906 75.894531 49.171875 81.796875 42.738281 81.796875 Z M 85.261719 81.796875 C 78.941406 81.796875 73.753906 75.894531 73.753906 68.707031 C 73.753906 61.519531 78.828125 55.605469 85.261719 55.605469 C 91.695312 55.605469 96.878906 61.507812 96.769531 68.707031 C 96.769531 75.894531 91.695312 81.796875 85.261719 81.796875 Z M 85.261719 81.796875 "/>
</g>
</svg>
