<svg viewBox="0 0 128 128" xmlns="http://www.w3.org/2000/svg"><path d="M78.157 29.987v1.827c4.153 0 5.512.156 7.182 2.503L99.925 55.74 86.77 74.957c-3.246 4.7-8.159 4.782-9.604 4.782v1.827c1.19-.1 2.916-.128 4.474-.138-1.504 9.598-3.29 14.783-15.554 14.783H55.592c-3.02 0-3.163-.381-3.163-2.983V72.091h7.133c7.134 0 7.814 2.614 7.814 8.996h1.215v-19.67h-1.215c0 6.274-.682 8.839-7.814 8.839h-7.134v-18.74c0-2.552.144-2.933 3.163-2.933h10.338c11.7 0 13.063 4.65 14.123 14.648h1.362L79.6 46.507H46.657l-1.219-16.412H1.775L.498 46.818h1.36C2.834 34.293 3.907 32.1 15.633 32.1h4.175c1.444.226 1.444 1.145 1.444 2.885v41.162c0 2.733-.23 3.567-6.599 3.567h-2.146v1.826c3.628-.07 7.408-.143 11.117-.143 3.698 0 7.49.073 11.115.143v-1.826h-2.11c-6.275 0-6.5-.834-6.5-3.567v-41.16c0-1.67 0-2.576 1.36-2.885h4.15c11.47 0 12.682 2.149 13.654 14.405h-3.98v2.076c5.355 0 6.213 0 6.213 3.4v40.805c0 3.4-.847 3.4-6.214 3.4v1.826h39.35l2.359-16.592h.562c2.04 0 5.594-.001 7.478.143v-1.827c-2.339-.226-3.016-1.74-3.016-2.959 0-.977.37-1.514.751-2.051l12.095-17.652 13.154 19.334c.595.836.595 1.062.595 1.289 0 .595-.677 1.896-3.325 2.051v1.827c2.421-.144 6.119-.144 8.61-.144 1.958 0 5.737 0 7.572.144V79.75c-4.843 0-5.605-.37-7.108-2.504l-16.625-24.322 11.187-16.174c1.12-1.588 3.4-4.855 9.604-4.938v-1.825c-1.732.144-4.604.144-6.418.144-2.492 0-5.595 0-7.479-.144v1.826c2.422.227 3.017 1.74 3.017 2.96 0 .903-.37 1.513-.906 2.264l-9.983 14.48L91.6 35.14c-.525-.823-.598-1.062-.598-1.289 0-.68.823-1.968 3.327-2.04v-1.825c-2.421.144-6.119.144-8.61.144-1.958 0-5.737 0-7.564-.144z"/></svg>
