<svg xmlns="http://www.w3.org/2000/svg" viewBox="0 0 128 128"><path fill="#ac162c" d="M26.2398 46.9389c-13.34-.2454-24.2711 3.1375-26.0036 9.4352-1.6681 6.066 5.6577 13.1722 16.987 18.0316-5.0894-4.1208-7.5652-8.75-6.1686-12.842 2.7057-7.9252 18.884-10.8325 36.1403-6.492 10.3502 2.6023 18.808 7.6504 24.3323 12.642-2.5067-6.6206-14.6609-16.0585-31.396-19.2935-4.7304-.9145-9.4447-1.3995-13.8914-1.4813Zm-7.5085 10.2324 7.5939 23.472h5.8188l7.7907-23.472h-5.3254l-5.292 16.5028h-.0655l-5.2274-16.5028Zm48.1345 0v2.3262c1.9914 1.7785 3.5709 3.5892 4.6695 5.3343v-7.6605zm-8.191 3.5444v19.9287h4.6683v-17.355a58.2565 58.2565 0 0 0-4.6684-2.5737zm34.593 2.4723a14.285 14.285 0 0 0-2.8104.2795c-.9318.1852-1.7706.4982-2.516.9365-.7456.4383-1.3587 1.018-1.8407 1.7416s-.757 1.6337-.8226 2.7289v.0034h4.6708c.0874-.9215.3946-1.5782.9204-1.9728.5257-.3957 1.2492-.5925 2.1696-.5925.4164 0 .8042.0277 1.1666.0829.3623.0552.6797.1644.9535.329.2738.1645.4925.3945.657.6902.1645.2956.2472.696.2472 1.1998.0219.482-.1207.849-.4278 1.101-.3072.2531-.7226.444-1.2495.5764-.5258.1311-1.1273.23-1.8072.2956-.6799.0656-1.3701.1541-2.0719.2623a19.5833 19.5833 0 0 0-2.0869.444c-.6902.1863-1.3034.466-1.8407.8387-.5383.3727-.9754.8709-1.316 1.4956-.3393.6246-.5096 1.4196-.5096 2.3837 0 .8766.1484 1.6323.444 2.2673.2945.6362.7065 1.162 1.2333 1.5785.5246.4164 1.139.7236 1.8407.9203.6995.1967 1.4563.2957 2.2674.2957 1.0514 0 2.0824-.1541 3.0901-.4602 1.0078-.3071 1.8855-.8434 2.631-1.6119.0218.2865.061.565.115.8388a6.779 6.779 0 0 0 .2139.8053h4.734c-.2198-.3509-.3739-.8767-.4613-1.5785-.0874-.7006-.1312-1.4355-.1312-2.2028v-8.8434c0-1.0308-.2301-1.858-.6903-2.4826-.4613-.6235-1.0537-1.1112-1.7762-1.462-.7236-.351-1.5219-.5868-2.3997-.7076-.8766-.1208-1.7417-.1807-2.5965-.1807zm20.215 0c-.9848 0-1.9498.2243-2.892.674-.9422.4487-1.7095 1.1667-2.3009 2.1526h-.0977v-2.3664h-4.4383v16.9962h4.6684v-8.9087c0-1.7314.2841-2.9763.8548-3.731.5706-.7558 1.4897-1.1342 2.761-1.1342 1.1182 0 1.8957.345 2.3352 1.0353.4371.6903.657 1.7361.657 3.1396v9.599h4.6672v-10.454c0-1.0525-.0931-2.0108-.2795-2.877-.1864-.8652-.5098-1.599-.97-2.2018-.4613-.6028-1.0905-1.0735-1.89-1.414-.8008-.3394-1.8247-.5096-3.0752-.5096zm-62.5664.459v8.9088c0 1.7314-.2841 2.975-.8547 3.7319-.5695.757-1.4898 1.1344-2.761 1.1344-1.1182 0-1.8958-.344-2.334-1.0353-.4384-.6903-.6582-1.7373-.6582-3.1396v-9.599h-4.6684v10.455c0 1.0515.0932 2.011.2784 2.876.1864.8663.5096 1.6001.9709 2.203.4602.6016 1.0905 1.0687 1.89 1.3966.8008.3279 1.8247.4923 3.074.4923.9871 0 1.9512-.2184 2.8934-.6568.9433-.4383 1.7095-1.1504 2.302-2.1374h.0977v2.3664h4.4394V63.6471Zm27.2603.0012-5.8844 6.1133.0115.658 6.4652 10.2238h5.6543l-7.1336-10.7497 6.4113-6.2454zM66.8611 65.727v14.9163h4.6673v-11.083c-1.2057-1.4703-3.1764-3.0027-4.6673-3.8333Zm29.1987 6.6007v1.742c-.001.2623-.0277.6133-.0829 1.0516-.0529.4383-.2024.8708-.4428 1.2976-.2393.428-.613.795-1.117 1.102-.5039.306-1.2171.4591-2.1375.4591-.3727 0-.7339-.0321-1.0848-.0977-.3508-.0656-.6568-.1806-.9203-.3451-.2623-.1645-.4707-.389-.6249-.6743-.153-.2842-.23-.635-.23-1.0514 0-.4383.077-.7995.23-1.0848.1542-.2841.3568-.52.6087-.7064.252-.1864.5489-.3335.8882-.444a8.6337 8.6337 0 0 1 1.0354-.2624 18.7078 18.7078 0 0 1 1.118-.1645 14.674 14.674 0 0 0 1.0678-.1645c.3405-.0655.658-.1473.9536-.2473.2951-.0988.5408-.2343.7385-.4099zm29.392 3.339c-1.4265 0-2.5644 1.1076-2.5644 2.4881 0 1.4104 1.1379 2.5184 2.5644 2.5184 1.4403 0 2.5482-1.108 2.5482-2.5184 0-1.3805-1.1079-2.4882-2.5482-2.4882zm-.001.5003c1.1078 0 1.9119.895 1.9119 2.0029 0 1.0917-.804 1.9716-1.8957 1.9716-1.1228 0-1.942-.8788-1.942-1.9867 0-1.0917.819-1.9867 1.9258-1.9878zm-.0151.7282c-.4095 0-.728.03-.9558.076v2.4882h.5785v-1.002h.2726c.3187 0 .4694.122.5154.3946.076.2876.121.5154.1969.6063h.6224c-.061-.091-.1059-.2428-.1818-.6224-.076-.3337-.213-.5154-.4557-.6062v-.03c.3026-.0908.5154-.3036.5154-.5763 0-.2427-.1057-.4406-.2426-.5464-.183-.1058-.3948-.1818-.8653-.1818zm-.0461.4094c.3647 0 .5316.152.5316.3797 0 .2589-.2577.3647-.5763.3647h-.274v-.7143c.061-.015.1668-.0301.3187-.0301z"/></svg>
