<svg xmlns="http://www.w3.org/2000/svg" viewBox="0 0 128 128"><path fill="#ac162c" d="M26.2441 46.6895c-6.6923-.1232-12.7843.661-17.4414 2.2773C4.1457 50.583.895 53.0412-.0039 56.3086c-.8655 3.1473.6068 6.53 3.6797 9.707 3.0728 3.1771 7.762 6.1798 13.4492 8.6192a.25.25 0 0 0 .2559-.4239c-2.5246-2.044-4.3907-4.2082-5.4493-6.3476-1.0585-2.1395-1.315-4.2428-.6406-6.2188 1.3067-3.8272 5.9273-6.5129 12.4219-7.6797 6.4946-1.1667 14.8245-.8129 23.4219 1.3497 10.3073 2.5914 18.7323 7.6212 24.2246 12.584a.25.25 0 0 0 .4023-.2735c-1.2868-3.3987-4.9868-7.427-10.459-11.0371-5.4722-3.6102-12.722-6.7901-21.123-8.414-4.7447-.9174-9.474-1.4024-13.9356-1.4844Zm-.0098.5c4.4318.0815 9.1334.5647 13.8496 1.4765 8.3342 1.611 15.528 4.7672 20.9434 8.3399 4.8658 3.21 8.1848 6.7376 9.7149 9.7636-5.5544-4.7642-13.6201-9.4589-23.4863-11.9394-8.6589-2.178-17.0459-2.5405-23.6309-1.3574-6.585 1.183-11.4076 3.9118-12.8066 8.0097-.7222 2.116-.4385 4.3732.664 6.6016.8909 1.8005 2.4346 3.5711 4.3008 5.287-4.8858-2.2735-9.0456-4.9089-11.748-7.703-3.0054-3.1074-4.3613-6.3098-3.5586-9.2285.8336-3.0303 3.9136-5.4117 8.4902-7 4.5766-1.5884 10.62-2.3723 17.2676-2.25zm-7.5039 9.7324a.25.25 0 0 0-.2363.3261l7.5938 23.4727a.25.25 0 0 0 .2363.1719h5.8203a.25.25 0 0 0 .2363-.17l7.791-23.4726a.25.25 0 0 0-.2363-.3281h-5.3261a.25.25 0 0 0-.2383.1738l-5.086 15.8555-5.0234-15.8555a.25.25 0 0 0-.2383-.1738zm48.1348 0a.25.25 0 0 0-.25.25v2.3261a.25.25 0 0 0 .084.1856c1.9775 1.7661 3.5424 3.5615 4.625 5.2812a.25.25 0 0 0 .461-.1328v-7.66a.25.25 0 0 0-.25-.25zm-47.791.5h4.7676L29.0137 73.75a.25.25 0 0 0 .2383.1738h.0664a.25.25 0 0 0 .2363-.1738l5.2363-16.3281h4.7969l-7.625 22.9707h-5.455zm48.041 0h4.17v6.75c-1.0688-1.5754-2.4085-3.182-4.17-4.7676Zm-8.33 3.0703a.25.25 0 0 0-.3614.2226v19.9297a.25.25 0 0 0 .25.25h4.67a.25.25 0 0 0 .25-.25V63.2891a.25.25 0 0 0-.1192-.213 58.5206 58.5206 0 0 0-4.6895-2.584zm.1386.6445c1.4309.7184 2.8292 1.4815 4.17 2.2988v16.959h-4.17zm34.3437 1.8008c-.9586 0-1.9127.0956-2.8593.2852-.9565.19-1.8225.5133-2.5938.9668-.7768.4567-1.4198 1.0646-1.9219 1.8183-.5113.7676-.7957 1.723-.8632 2.8516a.25.25 0 0 0-.002.0156v.002a.25.25 0 0 0 .25.25h4.6718a.25.25 0 0 0 .248-.2246c.0833-.8778.3657-1.4542.8223-1.7969.4695-.3534 1.1349-.543 2.0196-.543.4053 0 .7805.027 1.1289.0801.3353.0511.6207.1512.8633.297.236.1417.4208.336.5664.5976.1352.243.2148.6015.2148 1.078a.25.25 0 0 0 0 .0099c.0194.4271-.0915.696-.336.8965a.25.25 0 0 0 0 .002c-.2693.222-.6504.3993-1.1523.5254-.5105.1272-1.1002.2245-1.7695.289-.6852.0661-1.38.1569-2.086.2657a19.8267 19.8267 0 0 0-2.1132.4492c-.715.193-1.3557.4848-1.918.875-.572.396-1.0377.9255-1.3945 1.58-.3651.672-.539 1.5105-.539 2.504 0 .9048.1525 1.6982.4667 2.373.3096.6687.7478 1.2275 1.3047 1.668.5517.438 1.1981.762 1.9277.9668.7237.2035 1.5046.3047 2.336.3047 1.0759 0 2.1313-.1577 3.162-.4707.9033-.2753 1.6622-.8154 2.3634-1.4473.0211.1612.0334.325.0644.4824a.25.25 0 0 0 .002.002c.0572.2836.13.5617.2207.834a.25.25 0 0 0 .2383.1719h4.7324a.25.25 0 0 0 .213-.3828c-.188-.3003-.341-.7954-.4259-1.4766-.086-.6895-.1289-1.414-.1289-2.1719v-8.8437c0-1.068-.2392-1.9534-.7382-2.6309a.25.25 0 0 0-.002-.002c-.485-.6558-1.1111-1.17-1.8672-1.5372-.749-.3632-1.5735-.6065-2.4746-.7305-.8876-.1223-1.7644-.1836-2.6308-.1836Zm20.2149 0c-1.0227 0-2.027.2347-3 .6992-.838.399-1.4715 1.1101-2.041 1.9082v-1.8965a.25.25 0 0 0-.25-.25h-4.4375a.25.25 0 0 0-.25.25v16.9961a.25.25 0 0 0 .25.25h4.668a.25.25 0 0 0 .25-.25v-8.9082c0-1.704.2897-2.899.8046-3.58.517-.6849 1.339-1.0352 2.5606-1.0352 1.0667 0 1.737.3105 2.125.92.3959.6258.6172 1.6273.6172 3.0038v9.5996a.25.25 0 0 0 .25.25h4.668a.25.25 0 0 0 .25-.25v-10.453c0-1.0675-.0945-2.0451-.2852-2.9317-.1928-.895-.5304-1.6651-1.0157-2.3008-.4898-.64-1.1577-1.1377-1.9902-1.4922-.8435-.3575-1.9006-.5293-3.1738-.5293zm-62.5664.459a.25.25 0 0 0-.25.25v8.9101c0 1.704-.2893 2.8964-.8047 3.5801-.5157.6855-1.3388 1.0352-2.5606 1.0352-1.0669 0-1.7362-.3098-2.123-.92-.3973-.6255-.6191-1.6276-.6191-3.0039v-9.5996a.25.25 0 0 0-.25-.25h-4.668a.25.25 0 0 0-.25.25v10.4551c0 1.0663.0936 2.0424.2832 2.9278.1928.896.531 1.6669 1.0176 2.3027.4891.6396 1.1601 1.1346 1.9941 1.4765.8427.3451 1.8967.5098 3.168.5098 1.024 0 2.0255-.2273 2.998-.6797.8193-.3806 1.4821-1.0068 2.045-1.7754v1.7774a.25.25 0 0 0 .25.25h4.4394a.25.25 0 0 0 .25-.25V63.6465a.25.25 0 0 0-.25-.25zm27.2597.002a.25.25 0 0 0-.1796.0762l-5.8848 6.1132a.25.25 0 0 0-.0684.1778l.0118.6582a.25.25 0 0 0 .037.1289l6.4669 10.2246a.25.25 0 0 0 .2109.1152h5.6543a.25.25 0 0 0 .207-.3867l-7.0175-10.5782 6.2617-6.0996a.25.25 0 0 0-.1738-.4297zm15.0918.039c.8431 0 1.6969.0605 2.5625.1797.8545.1176 1.626.345 2.3243.6836.6888.3346 1.248.7954 1.6855 1.3867.4213.572.6406 1.3405.6406 2.334v8.8438c0 .7768.044 1.5207.1328 2.2324.0696.5585.2227.9336.3848 1.2988h-4.2168c-.0604-.1993-.1186-.3993-.1601-.6054a6.8598 6.8598 0 0 1-.1114-.8086.25.25 0 0 0-.4297-.1543c-.7176.7398-1.5545 1.2515-2.5234 1.5468a10.3303 10.3303 0 0 1-3.0176.4493c-.7907 0-1.524-.0972-2.1992-.2871-.6731-.1887-1.2569-.4805-1.7539-.875-.4963-.3923-.8829-.8851-1.1621-1.4883-.2771-.5953-.42-1.3137-.42-2.1621 0-.9347.165-1.6864.4786-2.2637.3242-.5948.7335-1.0607 1.2383-1.4102a.25.25 0 0 0 .002 0c.5121-.3553 1.0962-.623 1.7617-.8027a19.334 19.334 0 0 1 2.0605-.4375c.6977-.1075 1.384-.1967 2.0586-.2617.6898-.0665 1.3032-.166 1.8438-.3008.5512-.1384 1.001-.3433 1.3457-.627.3687-.3024.5407-.766.5176-1.3007-.001-.527-.0827-.9682-.2754-1.3145-.1835-.3297-.4365-.596-.748-.7832-.3051-.1833-.6556-.302-1.045-.3613-.3763-.0574-.7756-.086-1.2031-.086-.956 0-1.7384.2045-2.3203.6426-.5418.4066-.8402 1.0804-.963 1.9219h-4.1503c.0934-.9195.2959-1.7305.7031-2.3418.462-.6935 1.0457-1.2462 1.7598-1.666.7196-.4232 1.5303-.726 2.4375-.9063a14.038 14.038 0 0 1 2.7617-.2754zm20.2149 0c1.227 0 2.2189.1695 2.9765.4903.7667.3265 1.3583.7704 1.791 1.336.4351.5699.744 1.2661.9239 2.1015.182.846.2734 1.7883.2734 2.8261v10.2032h-4.168V71.045c0-1.4296-.2173-2.5188-.6953-3.2735-.4909-.771-1.3772-1.1504-2.5468-1.1504-1.3208 0-2.3348.4056-2.959 1.2325-.6263.8283-.9063 2.124-.9063 3.8828v8.6582h-4.168V63.8984h3.9376v2.1153a.25.25 0 0 0 .25.25h.0977a.25.25 0 0 0 .2148-.1211c.5698-.95 1.299-1.628 2.1953-2.0547.9115-.4351 1.8364-.6504 2.7832-.6504zm-62.3164.459h4.1699v16.4961h-3.9394v-2.1152a.25.25 0 0 0-.25-.25h-.0977a.25.25 0 0 0-.2149.121c-.5708.951-1.297 1.6226-2.1933 2.0391-.9119.4242-1.837.6329-2.7871.6329-1.2274 0-2.2199-.162-2.9785-.4727-.7651-.3137-1.356-.7546-1.7871-1.3184-.4358-.5693-.7458-1.2659-.9258-2.1015v-.002c-.1806-.8445-.2715-1.7863-.2715-2.8223v-10.205h4.168v9.3495c0 1.4285.2179 2.5186.6973 3.2735.4898.7726 1.3754 1.1504 2.5449 1.1504 1.3207 0 2.3377-.406 2.961-1.2344.6257-.8302.9042-2.1221.9042-3.8809zm27.1172.002h4.8027l-5.9707 5.8164a.25.25 0 0 0-.0332.3164l6.875 10.3614h-5.0507l-6.3536-10.047-.0078-.4843zm-11.422 1.582a.25.25 0 0 0-.25.2462v14.916a.25.25 0 0 0 .25.25h4.668a.25.25 0 0 0 .25-.25V69.5605a.25.25 0 0 0-.0566-.1582c-1.2363-1.5076-3.2169-3.0459-4.7402-3.8945l.1289.2188a.25.25 0 0 0-.25-.2461zm.25.7208c1.391.8354 3.0807 2.157 4.168 3.4629v10.7285h-4.168zm28.9728 5.877a.25.25 0 0 0-.1895.0624v.002a.25.25 0 0 0-.002 0c-.1682.1488-.3818.2674-.6503.3573a.25.25 0 0 0-.002 0c-.2833.096-.589.1765-.92.2402-.333.0644-.683.1172-1.0488.1602a18.9645 18.9645 0 0 0-1.1328.168.25.25 0 0 0-.002 0 8.8995 8.8995 0 0 0-1.0664.2695.25.25 0 0 0-.002 0c-.3607.1174-.6821.2757-.959.4805-.2815.2082-.5094.4752-.6797.789a.25.25 0 0 0 0 .002c-.178.332-.2597.7355-.2597 1.2031 0 .4473.0827.8391.2597 1.168a.25.25 0 0 0 0 .002c.173.32.4144.5784.713.7656a.25.25 0 0 0 0 .002c.2927.1829.6288.3085 1.0058.379.3668.0685.7437.1015 1.1309.1015.948 0 1.7058-.155 2.2675-.496.5326-.3247.9414-.7218 1.2051-1.1934.2538-.4506.4152-.9148.4727-1.3887v-.002c.0558-.4437.0848-.8022.086-1.08v-1.7423l-.006.006a.25.25 0 0 0-.2207-.256zm-.2735.6679v1.3242c-.001.246-.0277.5885-.082 1.0195a.25.25 0 0 0 0 .002c-.0485.4021-.1854.8026-.4121 1.2051-.2149.3843-.554.72-1.0293 1.0098-.446.2709-1.1152.4238-2.0078.4238a5.6414 5.6414 0 0 1-1.0391-.0937c-.3239-.0606-.5984-.165-.832-.3106l-.002-.002c-.2249-.1417-.4021-.3304-.537-.5802-.129-.2394-.1993-.546-.1993-.9316 0-.409.0713-.7281.1992-.9668.138-.2544.3148-.4605.5371-.625.2267-.1676.4992-.3028.8165-.4062a8.3882 8.3882 0 0 1 1.0039-.254 18.3756 18.3756 0 0 1 1.1015-.162.25.25 0 0 0 .002 0 14.908 14.908 0 0 0 1.084-.168c.3494-.0673.6789-.1519.9863-.2559.1594-.0533.273-.1527.4102-.2285zm29.6406 2.67c-1.5559 0-2.8144 1.2203-2.8144 2.7382 0 1.5449 1.2585 2.7695 2.8144 2.7695 1.5686 0 2.7989-1.2282 2.7989-2.7695 0-1.5143-1.2304-2.7383-2.7989-2.7383zm0 .5c1.3122 0 2.2989.9914 2.2989 2.2382 0 1.2795-.9867 2.2695-2.2989 2.2695-1.297 0-2.3144-.9936-2.3144-2.2695 0-1.2431 1.0173-2.2383 2.3144-2.2383zm0 .002c-1.2413.0012-2.1757 1.0194-2.1757 2.2362 0 1.2311.9381 2.2364 2.1914 2.2364 1.226 0 2.1464-1.0063 2.1464-2.2207 0-1.2288-.9196-2.252-2.162-2.252zm0 .5c.9732 0 1.6621.765 1.6621 1.7519 0 .3354-.1747.5863-.3222.8476-.0225-.0816-.0301-.0684-.0625-.2305a.25.25 0 0 0 0-.0059c-.0617-.2713-.2566-.4151-.4395-.5644.236-.1518.504-.301.504-.5938 0-.3153-.133-.5841-.3399-.7441a.25.25 0 0 0-.0273-.0176c-.2105-.1218-.4928-.2168-.9902-.2168-.2719 0-.4487.0303-.6485.0528.2183-.1055.3958-.279.664-.2793zm-1.1718.492a.25.25 0 0 0-.0488.0606v2.375c-.2786-.3082-.4551-.7177-.4551-1.1914 0-.465.1778-.8732.455-1.1836.0186-.0206.0295-.0408.0489-.0605zm.6601.2735a.25.25 0 0 0-.1191.1504v.7149a.25.25 0 0 0 .1992.1972.25.25 0 0 0-.211.211v.752h-.078v-2.0079c.0573-.008.1412-.0113.209-.0176zm1.0235.0664c.0449.018.1513.0163.1914.0391.065.0553.1386.1706.1386.334 0 .09-.1233.1464-.2129.2129.0221-.0592.0918-.0872.0918-.1524 0-.1604-.0837-.3195-.209-.4336zm-.5743.3047c.1477 0 .2254.0325.252.0528.0266.0202.0312.0233.0312.0761 0 .0465.003.0364-.043.0625-.0463.0262-.1516.0528-.2832.0528h-.0254v-.2383c.0293-.0017.0325-.006.0684-.006zm.3887.6485v.0273a.25.25 0 0 0 .164.2324c.1693.0634.233.1385.2989.4278.0342.1705.069.2142.0977.3183h-.1348c-.009-.0228-.008-.0156-.0176-.0488-.0257-.0887-.056-.2125-.0918-.3496-.0294-.1745-.107-.3442-.25-.455-.0908-.0705-.2125-.0737-.3261-.0938.0894-.0104.1768-.0249.2597-.0586zm-.4687.5039h.0215c.1274 0 .1835.0247.207.043.0235.0182.0459.0463.0625.1445a.25.25 0 0 0 .006.0215c.0369.1398.0665.2684.0996.3828.0332.1143.0582.2146.1465.3203a.25.25 0 0 0 .123.0586c-.1767.0641-.3021.2129-.5078.2129-.1812 0-.286-.1347-.4453-.1817h.037a.25.25 0 0 0 .25-.25z"/></svg>
