<svg xmlns="http://www.w3.org/2000/svg" viewBox="0 0 128 128"><path d="M48.779 12.762c-3.296 0-9.568 8.587-9.568 8.587s-2.416 0-9.616.373c-7.2.374-13.616 3.574-22.182 10.315C-1.152 38.773.06 45.53.06 45.53s7.99 2.704 7.99 4.166c0 1.466-6.993 3.2-6.993 3.2 4.507 5.765 18.49 11.146 22.027 11.146h2.794c-5.792 1.141-11.392 4.288-18.464 9.85C-1.152 80.635.06 87.387.06 87.387s7.99 2.704 7.99 4.165c0 1.467-6.993 3.2-6.993 3.2 4.507 5.766 18.49 11.147 22.027 11.147 3.386 0 5.754.096 10.037-.704.32.715 3.659 7.792 10.48 9.259 7.184 1.546 11.157.33 11.157.33s.358-3.173-1.28-6.341c6.24.613 13.307.773 20.224-.277 19.216-2.918 28.704-7.536 31.803-8.15 3.104-.613 20.82 7.872 21.898 5.888 1.083-1.989-3.893-6.336-1.573-12.202 2.314-5.867-2.848-9.744.016-14.427 2.864-4.688 2.293-11.835 1.557-12.213-1.573-.8-18.256 7.504-21.898 6.826-8.992-1.658-7.344-2.736-19.451-5.477-4.837-1.099-4.165-.448-5.237-1.259-.715-.544-1.414-.618-2.427-1.632 16.08-2.895 24.277-6.8 27.115-7.36 3.104-.618 20.82 7.872 21.898 5.883 1.077-1.984-3.893-6.33-1.573-12.202 2.314-5.867-2.848-9.74.016-14.427 2.864-4.683 2.293-11.83 1.557-12.208-1.573-.805-18.256 7.504-21.898 6.827-8.992-1.664-7.344-2.736-19.451-5.478-4.837-1.098-4.165-.448-5.237-1.258-1.067-.811-2.08-.566-4.17-3.947-2.092-3.387-26.22-8.587-27.867-8.587M43.147 27.51l.213.01.592.033 2.117.106a1528 1528 0 0 1 8.48.47c1.856.106 3.414.202 4.614.288 4.591.32 11.583 1.386 16.943 2.474 8.299 1.68 15.04 4.15 25.654 8.923l3.61 1.627c.699.314 1.04 1.216.763 2.01-.277.8-1.072 1.184-1.776.87l-3.6-1.627c-10.464-4.699-17.056-7.12-25.125-8.747-5.27-1.066-12.16-2.117-16.64-2.437a409 409 0 0 0-4.581-.288l-2.048-.117c-2.043-.112-4.23-.235-6.416-.347l-.672-.032a36 36 0 0 1 1.808 6.33c.106.587.186 1.153.24 1.707.18 1.792-.15 4.352-.864 7.574a81 81 0 0 1-.816 3.328 114 114 0 0 1-1.547 5.306l-.107.342-.042.122c-.267.8-1.056 1.206-1.76.907-.71-.304-1.067-1.2-.8-2l.037-.107a63 63 0 0 0 .475-1.51c.384-1.258.768-2.596 1.13-3.951q.442-1.666.779-3.195c.64-2.88.933-5.152.8-6.469a18 18 0 0 0-.203-1.435 31 31 0 0 0-1.12-4.245 43 43 0 0 0-1.408-3.653c-.485-1.062.219-2.32 1.27-2.267m-8.816.907c.352.01.693.176.954.485a25.4 25.4 0 0 1 2.224 3.344c1.195 2.155 1.995 4.352 2.214 6.512.122 1.232.042 2.613-.203 4.112-.235 1.44-.613 2.96-1.099 4.507a44 44 0 0 1-1.333 3.669c-.336.768-1.152 1.083-1.83.704-.677-.373-.96-1.307-.623-2.075l.096-.234a41 41 0 0 0 1.12-3.104c.437-1.403.778-2.763.986-4.027a13 13 0 0 0 .17-3.2c-.16-1.632-.815-3.413-1.812-5.216a22 22 0 0 0-1.899-2.87 1.7 1.7 0 0 1 .053-2.186 1.27 1.27 0 0 1 .982-.427zM18.107 33.59c3.306 0 5.984 3.04 5.984 6.784 0 3.755-2.683 6.79-5.984 6.79-2.96 0-5.419-2.438-5.899-5.643.41 2.41 2.283 4.229 4.528 4.229 2.544 0 4.608-2.347 4.608-5.232 0-2.89-2.064-5.232-4.608-5.232-2.528 0-4.587 2.304-4.613 5.163v-.075c0-3.75 2.677-6.79 5.984-6.79zm-2.747 7.06a1.248 1.413 0 0 1 1.243 1.419 1.248 1.413 0 0 1-1.243 1.413 1.248 1.413 0 0 1-1.248-1.413 1.248 1.413 0 0 1 1.248-1.419m17.755 22.683.032.07-.614.026zm10.026 6.026.214.016.592.027 2.117.107a1528 1528 0 0 1 8.48.47 346 346 0 0 1 4.613.292c4.592.32 11.584 1.387 16.944 2.47 8.299 1.68 15.04 4.15 25.653 8.922l3.61 1.627c.7.32 1.04 1.216.764 2.01-.278.8-1.072 1.185-1.776.87l-3.6-1.627c-10.464-4.698-17.056-7.114-25.126-8.746-5.269-1.067-12.16-2.118-16.64-2.432a409 409 0 0 0-6.629-.41l-6.416-.348-.672-.032a36 36 0 0 1 1.808 6.331q.16.881.24 1.707c.182 1.792-.15 4.357-.864 7.573a81 81 0 0 1-.816 3.333 114 114 0 0 1-1.653 5.643l-.043.123c-.266.8-1.056 1.205-1.76.906-.71-.304-1.066-1.194-.8-2l.038-.106a63 63 0 0 0 .474-1.51c.384-1.258.768-2.597 1.13-3.946.294-1.11.556-2.182.78-3.2.64-2.875.933-5.152.8-6.47a18 18 0 0 0-.203-1.429 31 31 0 0 0-1.12-4.245 43 43 0 0 0-1.408-3.659c-.485-1.056.219-2.315 1.27-2.261Zm-8.816.907c.352.01.694.176.955.485a25.4 25.4 0 0 1 2.224 3.344c1.195 2.16 1.995 4.352 2.213 6.518.123 1.226.043 2.608-.202 4.106-.235 1.44-.614 2.96-1.1 4.507a44 44 0 0 1-1.332 3.67c-.336.767-1.152 1.087-1.83.709-.677-.379-.96-1.312-.624-2.08a32 32 0 0 0 .374-.923 41 41 0 0 0 .842-2.416c.438-1.397.779-2.763.987-4.027a13 13 0 0 0 .17-3.2c-.16-1.626-.815-3.413-1.813-5.216a22 22 0 0 0-1.898-2.864 1.7 1.7 0 0 1 .053-2.192 1.27 1.27 0 0 1 .981-.42M18.101 75.44c3.307 0 5.984 3.04 5.984 6.79s-2.682 6.789-5.984 6.789c-2.96 0-5.418-2.443-5.898-5.643.41 2.406 2.282 4.224 4.528 4.224 2.544 0 4.608-2.34 4.608-5.226 0-2.896-2.064-5.238-4.608-5.238-2.528 0-4.587 2.31-4.614 5.168v-.074c0-3.75 2.678-6.79 5.984-6.79m-2.74 7.072a1.248 1.413 0 0 1 1.242 1.414 1.248 1.413 0 0 1-1.243 1.413 1.248 1.413 0 0 1-1.248-1.413 1.248 1.413 0 0 1 1.248-1.414"/></svg>