<?xml version="1.0" encoding="UTF-8" standalone="no"?>
<!-- Created with Inkscape (http://www.inkscape.org/) -->
<svg xmlns:rdf="http://www.w3.org/1999/02/22-rdf-syntax-ns#" xmlns="http://www.w3.org/2000/svg" version="1.0" xmlns:cc="http://creativecommons.org/ns#" xmlns:dc="http://purl.org/dc/elements/1.1/" viewBox="0 0 90 100">
 <path fill="#000" d="M10.588,5c-5.8661,0-10.588,4.7219-10.588,10.588v68.824c0,5.866,4.7219,10.588,10.588,10.588h68.824c5.866,0,10.588-4.722,10.588-10.588v-68.824c0-5.8661-4.722-10.588-10.588-10.588h-68.824zm50.786,9.8444c25.094,16.832,21.444,44.317,9.626,57.011-27.635,29.685-60.196,1.558-61.123-6.509,0,0,23.135,14.187,43.25-4.244,21.449-19.654,8.2474-46.258,8.2474-46.258zm-35.374,3.008,20.258,0c1.5513,0,2.7455,1.2925,2.7455,2.7455v4.9988c0,14.359-13.736,29.129-27.75,29.129h-6.2786c-1.495,0-2.7236-1.7025-2.7236-2.9971v-17.632c0-6.6296,5.3522-16.243,13.749-16.243z"/>
 <metadata>
  <rdf:RDF>
   <cc:Work rdf:about="">
    <dc:title/>
   </cc:Work>
  </rdf:RDF>
 </metadata>
</svg>
