<svg xmlns="http://www.w3.org/2000/svg" width="128" height="128" viewBox="0 0 128 128"><path d="M41.301 28.781v22.723l.043 22.766c.023.023 10.262.035 22.75.023l22.703-.016.016-22.746.016-22.75H69.305l-.043.535c-.18 2.34-1.742 4.219-3.98 4.785a5.99 5.99 0 0 1-2.312.031c-1.637-.375-2.949-1.434-3.652-2.953-.254-.559-.469-1.473-.469-2.027v-.371zm12.098 24.527c.926 0 1.422.023 1.449.066s.484 2.438 1.031 5.332l1.02 5.352c.02.055.055.07.09.035s.594-2.437 1.254-5.344l1.258-5.363c.051-.059.402-.078 1.355-.078.711 0 1.32.023 1.359.047s.563 2.477 1.164 5.445l1.129 5.438c.02.023.051.027.07.008s.535-2.418 1.152-5.34l1.184-5.453c.063-.145.07-.145 1.441-.145 1.184 0 1.387.012 1.418.098.039.098-3.652 15.715-3.766 15.926-.051.102-.187.113-1.449.109-.766 0-1.422-.02-1.461-.047s-.555-2.422-1.141-5.328l-1.098-5.375c-.02-.055-.055-.066-.09-.031s-.578 2.445-1.215 5.363l-1.191 5.363c-.02.031-.695.059-1.508.059-1.465 0-1.469 0-1.523-.145-.129-.355-3.414-15.801-3.379-15.891s.223-.102 1.445-.102zm22.223 0c1.895 0 2.305.016 2.367.09.102.121 4.73 15.863 4.695 15.965-.023.063-.379.082-1.488.082-1.09 0-1.477-.023-1.523-.082-.035-.043-.273-.801-.527-1.68l-.523-1.715c-.051-.102-.25-.109-2.742-.109h-2.684l-.062.238a76.63 76.63 0 0 0-.387 1.707c-.18.805-.355 1.504-.395 1.555-.105.121-2.863.125-2.91.004-.031-.082 3.766-15.859 3.844-15.992.027-.039.883-.062 2.336-.062zm.137 3.984c-.332-.012-.625.004-.652.031-.074.074-1.344 5.785-1.305 5.852.02.031.91.059 1.988.059 1.715 0 1.957-.012 1.988-.102.023-.055-.289-1.387-.687-2.961l-.73-2.863zm0 0" fill="rgb(39.215686%,30.588235%,93.72549%)"/><path d="M52.441 95.148c-1.094-.125-1.945-.344-2.008-.512-.023-.055-.039-.301-.039-.547 0-.324.023-.453.09-.48.051-.02.324.039.613.133 1.5.473 3.207.473 4.012 0 .555-.324.809-.789.813-1.477.004-1.004-.535-1.496-2.359-2.168-1.137-.418-1.68-.723-2.184-1.219-.633-.625-.754-.949-.758-1.988-.004-.742.004-.781.207-1.195.352-.711.988-1.184 1.934-1.441.5-.133 1.914-.148 2.559-.023.453.086 1.324.352 1.477.449.078.055.074.121-.051.496-.211.652-.164.629-.816.414-1.191-.391-2.488-.441-3.168-.125s-.926.688-.926 1.43c0 .598.125.895.535 1.266.328.293.695.48 1.801.91 1.844.719 2.406 1.121 2.832 2.051.125.277.145.418.141 1.055-.004.953-.133 1.309-.684 1.895-.434.465-1.004.785-1.715.953-.406.098-1.859.176-2.305.125zm10.566 0c-1.094-.125-1.945-.344-2.008-.512-.023-.055-.039-.301-.039-.547 0-.324.023-.453.09-.48.051-.02.324.039.613.133 1.5.473 3.203.473 4.012 0 .555-.324.809-.789.813-1.477 0-1.004-.535-1.496-2.359-2.168-1.137-.418-1.68-.723-2.184-1.219-.633-.625-.758-.949-.758-1.988-.004-.742.004-.781.207-1.195.348-.711.988-1.184 1.934-1.441.5-.133 1.914-.148 2.559-.023.453.086 1.324.352 1.473.449.082.055.074.121-.047.496-.211.652-.164.629-.82.414-1.187-.391-2.484-.441-3.168-.125s-.922.688-.922 1.43c0 .598.125.895.535 1.266.328.293.695.48 1.801.91 1.844.719 2.402 1.121 2.828 2.051.129.277.148.418.145 1.055-.008.953-.133 1.309-.684 1.895-.434.465-1.008.785-1.715.953-.406.098-1.859.176-2.305.125zm-60.043-.141c-.043-.027-.367-1.172-.723-2.547L.129 84.449c-.055-.137-.051-.137.793-.145.648-.008.867.012.922.078.086.102 1.605 6.242 1.844 7.441.199 1.016.219 1.082.281 1.016.027-.031.125-.437.219-.902.211-1.055 2.012-7.523 2.109-7.59s1.527-.059 1.629.004c.105.07 1.891 6.316 2.133 7.473l.223.992c.059.152.129-.027.215-.543.109-.66 1.867-7.801 1.941-7.895s1.621-.113 1.676-.023c.051.082-2.711 10.598-2.801 10.652-.133.086-1.75.059-1.82-.031-.086-.109-1.902-6.484-2.125-7.461-.168-.742-.223-.902-.285-.84-.016.012-.105.371-.199.793-.219.992-2.012 7.402-2.094 7.508-.074.09-1.688.117-1.824.031zm14.211-.027c-.121-.121-.113-10.508.008-10.609.063-.051.91-.066 3.027-.055l2.938.016v1.41l-4.258.031v2.941l2 .02 2 .016v1.41l-4 .031v3.328l2.129.016 2.129.02v1.473l-2.949.016c-2.238.012-2.965-.004-3.023-.062zm9.797.004c-.113-.117-.117-10.492 0-10.609.094-.094 3.281-.102 4.234-.012 1.688.164 2.625.695 2.965 1.68.176.512.156 1.438-.039 1.938-.207.531-.684.996-1.207 1.188-.219.078-.398.168-.398.195s.125.086.273.129c1.094.293 1.703 1.012 1.809 2.145.125 1.297-.48 2.422-1.586 2.941-.887.422-.988.434-3.602.461-1.863.023-2.387.012-2.449-.055zm4.801-1.582c.715-.285 1.066-.906.996-1.777-.043-.516-.27-.922-.641-1.141-.492-.289-.93-.359-2.238-.359h-1.203v3.473l1.359-.027c1.23-.02 1.398-.039 1.727-.168zm-.07-4.887a1.24 1.24 0 0 0 .766-.949c.16-.738-.148-1.348-.824-1.609-.324-.129-.512-.145-1.66-.172l-1.297-.027v2.973l1.328-.023c1.273-.023 1.344-.031 1.688-.191zm6.176 6.48c-.047-.074 4.113-10.645 4.215-10.711.125-.082.914-.055.988.031.125.152 4.18 10.57 4.148 10.656-.023.063-.187.086-.578.086-.453 0-.559-.02-.617-.113-.035-.062-.348-.816-.691-1.68l-.621-1.57-2.152-.016c-1.672-.016-2.164 0-2.211.063-.035.047-.332.773-.66 1.617s-.625 1.574-.656 1.617c-.074.098-1.105.113-1.164.02zm6.367-4.59c0-.059-.328-.988-.73-2.066l-.809-2.234c-.047-.148-.113-.262-.148-.25s-.156.309-.27.656-.48 1.367-.816 2.258l-.621 1.68c0 .039.637.063 1.699.063 1.531 0 1.695-.012 1.695-.105zm28.059 4.574c-.109-.109-.109-10.492 0-10.605.059-.055.793-.074 2.91-.074l2.934.039c.148.055.148 1.016 0 1.074-.059.02-1.121.039-2.363.039-2.004 0-2.266.012-2.301.102-.059.148-.043 3.117.016 3.211.035.059.582.082 2.223.098l2.176.016v1.09l-2.176.016c-1.641.012-2.187.035-2.223.094-.059.094-.074 3.574-.016 3.727.035.09.297.102 2.301.102 1.242 0 2.305.016 2.363.039.078.031.102.141.102.535s-.023.508-.102.539c-.059.02-1.375.039-2.934.039-2.117 0-2.852-.02-2.91-.078zm10.695 0c-.109-.109-.109-10.492 0-10.605.09-.086 1.633-.105 1.766-.023.043.031.73 1.738 1.523 3.793l1.668 4.336c.129.324.266.594.313.594s.754-1.742 1.727-4.242l1.738-4.387c.09-.137.133-.145.91-.145.551 0 .844.023.895.074.059.059.078 1.328.078 5.309 0 4.414-.016 5.242-.09 5.305-.059.047-.277.066-.594.055l-.5-.016v-4.66l-.062-4.641c-.031.012-.859 2.094-1.844 4.625l-1.859 4.656c-.043.027-.258.047-.477.047-.344.004-.41-.016-.492-.141-.051-.078-.859-2.148-1.801-4.594l-1.738-4.531c-.02-.043-.051-.082-.074-.082s-.031 2.082-.02 4.621c.016 3.801.004 4.629-.066 4.672-.129.086-.91.07-1-.02zm15.949.004c-.117-.117-.117-10.492-.004-10.609.098-.098 3.078-.105 4.031-.008 1.238.125 1.941.398 2.438.953.355.395.496.77.543 1.453.082 1.223-.527 2.109-1.695 2.461-.148.043-.273.102-.273.129s.168.098.371.156c1.465.422 2.172 1.516 1.938 3.008-.18 1.172-1.031 2.043-2.32 2.379-.543.141-4.902.211-5.027.078zm4.449-1.047c1.055-.25 1.543-.809 1.602-1.832.055-.883-.246-1.496-.895-1.824-.547-.277-1.039-.344-2.559-.344-1.203-.004-1.391.012-1.426.098-.02.059-.035.934-.035 1.949s.016 1.891.035 1.949c.035.086.223.098 1.457.098 1.027 0 1.531-.027 1.82-.094zm.199-5.18c.707-.23 1.098-.809 1.098-1.629 0-.801-.367-1.305-1.133-1.555-.387-.129-.602-.148-1.902-.172-1.18-.02-1.477-.008-1.52.059-.062.102-.078 3.191-.016 3.355.039.094.188.102 1.586.078 1.234-.023 1.609-.051 1.887-.137zm7.449 6.223c-.059-.059-.078-1.324-.078-5.309 0-4.414.016-5.238.09-5.305.059-.047.277-.066.594-.055l.504.02.031 4.77.047 4.789c.008.008 1.035.016 2.285.016s2.313.016 2.367.039c.082.027.102.141.102.535s-.02.508-.102.539c-.055.02-1.375.039-2.934.039-2.113 0-2.848-.02-2.906-.078zm12.23 0c-.059-.055-.078-.605-.078-2.074v-2l-1.758-3.25-1.723-3.305c.051-.086 1.141-.062 1.25.027.055.047.699 1.211 1.43 2.594l1.391 2.555c.035.02.102 0 .145-.051s.664-1.18 1.379-2.52l1.398-2.547c.086-.098.195-.113.723-.105l.625.012-.184.328-1.789 3.266-1.605 2.941v2.023c0 1.492-.02 2.051-.078 2.105-.043.047-.27.078-.562.078s-.516-.031-.562-.078zm0 0" fill="rgb(24.313725%,24.313725%,24.313725%)"/></svg>
