<?xml version="1.0" encoding="UTF-8" standalone="no"?>
<svg
   xmlns:dc="http://purl.org/dc/elements/1.1/"
   xmlns:cc="http://creativecommons.org/ns#"
   xmlns:rdf="http://www.w3.org/1999/02/22-rdf-syntax-ns#"
   xmlns:svg="http://www.w3.org/2000/svg"
   xmlns="http://www.w3.org/2000/svg"
   xmlns:sodipodi="http://sodipodi.sourceforge.net/DTD/sodipodi-0.dtd"
   xmlns:inkscape="http://www.inkscape.org/namespaces/inkscape"
   version="1.1"
   id="svg2"
   xml:space="preserve"
   width="656.47998"
   height="825.76001"
   viewBox="0 0 656.47998 825.76001"
   sodipodi:docname="raspberrypi-original.svg"
   inkscape:version="1.0.1 (1.0.1+r74)"><metadata
     id="metadata8"><rdf:RDF><cc:Work
         rdf:about=""><dc:format>image/svg+xml</dc:format><dc:type
           rdf:resource="http://purl.org/dc/dcmitype/StillImage" /><dc:title></dc:title></cc:Work></rdf:RDF></metadata><defs
     id="defs6" /><sodipodi:namedview
     pagecolor="#ffffff"
     bordercolor="#666666"
     borderopacity="1"
     objecttolerance="10"
     gridtolerance="10"
     guidetolerance="10"
     inkscape:pageopacity="0"
     inkscape:pageshadow="2"
     inkscape:window-width="1252"
     inkscape:window-height="1376"
     id="namedview4"
     showgrid="false"
     inkscape:zoom="1.2206936"
     inkscape:cx="328.23999"
     inkscape:cy="412.88"
     inkscape:window-x="1308"
     inkscape:window-y="27"
     inkscape:window-maximized="0"
     inkscape:current-layer="g10" /><g
     id="g10"
     inkscape:groupmode="layer"
     inkscape:label="ink_ext_XXXXXX"
     transform="matrix(1.3333333,0,0,-1.3333333,0,825.76)"><g
       id="g12"
       transform="scale(0.1)"><path
         d="m 1332.8,6193.06 c -31.79,-0.96 -66.04,-12.52 -104.87,-42.73 -95.16,36.15 -187.4,48.71 -269.879,-24.86 -127.371,16.28 -168.774,-17.31 -200.141,-56.51 -27.953,0.57 -209.25,28.3 -292.375,-93.84 -208.914,24.34 -274.953,-121.05 -200.14,-256.61 -42.661,-65.07 -86.86,-129.35 12.902,-253.37 -35.285,-69.08 -13.41,-144.01 69.746,-234.72 -21.949,-97.11 21.199,-165.62 98.555,-219.02 -14.481,-132.88 123.715,-210.15 164.984,-237.69 15.836,-77.42 48.871,-150.5 206.723,-190.89 26.019,-115.41 120.89,-135.33 212.755,-159.55 C 727.426,4249.43 467.074,4020.7 468.832,3459.5 L 424.34,3381.35 C 76.2109,3172.81 -237.016,2502.55 252.781,1957.78 284.773,1787.23 338.43,1664.75 386.207,1529.2 457.668,982.91 924.004,727.121 1047.01,696.859 1227.25,561.641 1419.2,433.332 1678.97,343.441 1923.85,94.6914 2189.13,-0.121094 2455.89,0.03125 c 3.91,0 7.89,-0.0507813 11.8,0 266.75,-0.160156 532.05,94.64065 776.91,343.40975 259.78,89.891 451.74,218.2 631.98,353.418 123,30.262 589.33,286.051 660.79,832.341 47.77,135.55 101.44,258.03 133.42,428.58 489.81,544.82 176.59,1215.13 -171.57,1423.67 l -44.53,78.13 c 1.76,561.15 -258.63,789.88 -562.24,963.77 91.87,24.21 186.73,44.14 212.76,159.53 157.86,40.42 190.88,113.49 206.71,190.91 41.28,27.52 179.47,104.8 164.99,237.7 77.36,53.39 120.5,121.91 98.57,219.01 83.14,90.7 105.03,165.63 69.73,234.71 99.8,123.99 55.51,188.26 12.91,253.33 74.75,135.56 8.79,280.94 -200.21,256.59 -83.11,122.15 -264.34,94.41 -292.36,93.85 -31.37,39.2 -72.74,72.79 -200.12,56.51 -82.48,73.57 -174.73,61.01 -269.87,24.87 -112.99,87.81 -187.74,17.43 -273.13,-9.18 -136.77,44.02 -168.05,-16.29 -235.24,-40.84 -149.18,31.05 -194.51,-36.54 -266.03,-107.9 l -83.19,1.62 c -224.98,-130.58 -336.74,-396.52 -376.36,-533.23 -39.64,136.74 -151.17,402.67 -376.1,533.23 l -83.18,-1.62 c -71.6,71.36 -116.94,138.95 -266.1,107.9 -67.2,24.55 -98.38,84.86 -235.25,40.84 -56.05,17.46 -107.61,53.77 -168.29,51.92 l 0.11,-0.04"
         style="fill:#050606;fill-opacity:1;fill-rule:nonzero;stroke:none"
         id="path14" /><path
         d="m 889.32,5618.51 c 596.92,-303.11 943.94,-548.33 1134.04,-757.16 -97.35,-384.36 -605.24,-401.9 -790.94,-391.11 38.01,17.43 69.74,38.32 80.99,70.4 -46.59,32.6 -211.83,3.44 -327.176,67.27 44.296,9.05 65.036,17.84 85.746,50.06 -108.968,34.23 -226.367,63.74 -295.402,120.46 37.266,-0.47 72.035,-8.21 120.707,25.03 -97.629,51.82 -201.781,92.87 -282.707,172.08 50.457,1.2 104.875,0.5 120.695,18.77 -89.335,54.51 -164.726,115.15 -227.128,181.47 70.644,-8.4 100.464,-1.17 117.546,10.95 -67.539,68.12 -153.023,125.66 -193.773,209.63 52.445,-17.81 100.422,-24.63 135.016,1.56 -22.957,51.01 -121.286,81.08 -177.903,200.24 55.223,-5.26 113.774,-11.85 125.489,0 -25.637,102.83 -69.598,160.66 -112.727,220.55 118.152,1.72 297.172,-0.46 289.066,9.39 l -73.05,73.53 c 115.406,30.6 233.496,-4.92 319.238,-31.3 38.488,29.92 -0.684,67.76 -47.652,106.4 98.089,-12.92 186.715,-35.13 266.815,-65.73 42.82,38.08 -27.77,76.15 -61.94,114.21 151.54,-28.32 215.75,-68.1 279.54,-107.95 46.3,43.71 2.65,80.85 -28.59,118.89 114.26,-41.68 173.12,-95.49 235.07,-148.61 21.01,27.92 53.37,48.39 14.3,115.77 81.11,-46.06 142.2,-100.33 187.42,-161.13 50.19,31.47 29.9,74.53 30.17,114.2 84.3,-67.56 137.81,-139.44 203.31,-209.63 13.18,9.45 24.74,41.55 34.93,92.3 201.12,-192.2 485.32,-676.3 73.06,-868.24 -350.87,285.03 -769.91,492.21 -1234.281,647.62 l 0.121,0.08"
         style="fill:#63c54d;fill-opacity:1;fill-rule:nonzero;stroke:none"
         id="path16" /><path
         d="m 4050.89,5618.51 c -596.87,-303.16 -943.87,-548.29 -1133.98,-757.16 97.36,-384.36 605.26,-401.9 790.96,-391.11 -38.03,17.43 -69.74,38.32 -80.99,70.4 46.6,32.6 211.83,3.44 327.18,67.27 -44.3,9.05 -65.04,17.84 -85.76,50.06 108.99,34.23 226.38,63.74 295.42,120.46 -37.26,-0.47 -72.06,-8.21 -120.71,25.03 97.61,51.82 201.78,92.87 282.7,172.08 -50.47,1.2 -104.87,0.5 -120.71,18.77 89.37,54.51 164.75,115.15 227.14,181.47 -70.63,-8.4 -100.45,-1.17 -117.54,10.95 67.55,68.12 153.02,125.66 193.78,209.63 -52.44,-17.81 -100.42,-24.63 -135.01,1.56 22.95,51.01 121.27,81.08 177.88,200.24 -55.21,-5.26 -113.75,-11.85 -125.47,0 25.67,102.88 69.65,160.7 112.76,220.6 -118.16,1.72 -297.16,-0.46 -289.08,9.38 l 73.09,73.52 c -115.43,30.61 -233.52,-4.9 -319.26,-31.28 -38.48,29.92 0.68,67.76 47.64,106.37 -98.08,-12.89 -186.71,-35.1 -266.82,-65.7 -42.8,38.06 27.79,76.13 61.94,114.2 -151.53,-28.32 -215.73,-68.11 -279.54,-107.94 -46.29,43.7 -2.63,80.85 28.6,118.88 -114.26,-41.67 -173.12,-95.48 -235.06,-148.6 -21.01,27.92 -53.36,48.38 -14.3,115.77 -81.13,-46.07 -142.21,-100.34 -187.41,-161.14 -50.2,31.48 -29.91,74.53 -30.19,114.19 -84.3,-67.54 -137.82,-139.43 -203.29,-209.62 -13.19,9.46 -24.74,41.56 -34.95,92.3 -201.13,-192.2 -485.34,-676.3 -73.05,-868.24 350.68,285.09 769.69,492.26 1234.1,647.66 h -0.07"
         style="fill:#63c54d;fill-opacity:1;fill-rule:nonzero;stroke:none"
         id="path18" /><path
         d="m 3192,1704.72 c 2.08,-358.64 -316.36,-650.93 -711.23,-652.82 -394.87,-1.89 -716.68,287.32 -718.76,645.98 0,2.28 0,4.56 0,6.84 -2.07,358.66 316.35,650.95 711.24,652.83 394.87,1.89 716.68,-287.31 718.75,-645.98 0.01,-2.29 0.01,-4.56 0,-6.85"
         style="fill:#c51850;fill-opacity:1;fill-rule:nonzero;stroke:none"
         id="path20" /><path
         d="m 2077.17,3559.87 c 296.27,-191.17 349.68,-624.54 119.3,-967.92 -230.38,-343.39 -657.31,-466.8 -953.56,-275.62 v 0 c -296.265,191.19 -349.68,624.56 -119.29,967.96 230.38,343.38 657.3,466.78 953.55,275.58 v 0"
         style="fill:#c51850;fill-opacity:1;fill-rule:nonzero;stroke:none"
         id="path22" /><path
         d="m 2876.82,3594.49 c -296.27,-191.18 -349.67,-624.56 -119.29,-967.93 230.39,-343.39 657.3,-466.8 953.56,-275.61 v 0 c 296.27,191.18 349.68,624.55 119.3,967.95 -230.38,343.39 -657.3,466.78 -953.57,275.59 v 0"
         style="fill:#c51850;fill-opacity:1;fill-rule:nonzero;stroke:none"
         id="path24" /><path
         d="M 614.797,3245.31 C 934.641,3329.76 722.777,1941.9 462.535,2055.77 176.246,2282.58 84.0352,2946.78 614.797,3245.31"
         style="fill:#c51850;fill-opacity:1;fill-rule:nonzero;stroke:none"
         id="path26" /><path
         d="m 4311.21,3262.62 c -319.88,84.42 -107.98,-1303.48 152.29,-1189.61 286.27,226.82 378.47,891.08 -152.29,1189.61 v 0"
         style="fill:#c51850;fill-opacity:1;fill-rule:nonzero;stroke:none"
         id="path28" /><path
         d="m 3238.44,4298.12 c 551.99,91.81 1011.31,-231.21 992.77,-820.8 -18.15,-226.03 -1196.15,787.15 -992.77,820.8"
         style="fill:#c51850;fill-opacity:1;fill-rule:nonzero;stroke:none"
         id="path30" /><path
         d="m 1713.29,4315.43 c -552.04,91.81 -1011.313,-231.29 -992.77,-820.82 18.136,-226.02 1196.14,787.16 992.77,820.82"
         style="fill:#c51850;fill-opacity:1;fill-rule:nonzero;stroke:none"
         id="path32" /><path
         d="m 2473.78,4452.92 c -329.46,8.44 -645.64,-240.85 -646.41,-385.43 -0.92,-175.69 260.48,-355.58 648.65,-360.15 396.41,-2.79 649.34,143.99 650.62,325.31 1.46,205.43 -360.52,423.45 -652.86,420.29 v -0.02"
         style="fill:#c51850;fill-opacity:1;fill-rule:nonzero;stroke:none"
         id="path34" /><path
         d="m 2499.23,850.172 c 287.23,12.359 672.67,-91.121 673.43,-228.391 4.77,-133.301 -349.56,-434.48 -692.48,-428.672 -355.16,-15.078 -703.39,286.551 -698.83,391.11 -5.32,153.301 432.44,272.98 717.88,265.953 v 0"
         style="fill:#c51850;fill-opacity:1;fill-rule:nonzero;stroke:none"
         id="path36" /><path
         d="m 1436.19,1663.74 c 204.49,-242.69 297.72,-669.049 127.07,-794.72 -161.47,-95.961 -553.57,-56.45 -832.276,337.92 -187.925,330.88 -163.722,667.63 -31.746,766.53 197.344,118.42 502.252,-41.52 736.952,-309.73 v 0"
         style="fill:#c51850;fill-opacity:1;fill-rule:nonzero;stroke:none"
         id="path38" /><path
         d="m 3495.16,1740.65 c -221.27,-255.27 -344.49,-720.88 -183.07,-870.83 154.33,-116.488 568.64,-100.199 874.69,318.05 222.21,280.91 147.75,750.07 20.83,874.64 -188.58,143.66 -459.26,-40.19 -712.45,-321.78 v -0.08"
         style="fill:#c51850;fill-opacity:1;fill-rule:nonzero;stroke:none"
         id="path40" /></g></g></svg>
