<svg xmlns="http://www.w3.org/2000/svg" viewBox="0 0 128 128">
	<path d="m41.558 1.52c-0.632 0.02-1.313 0.253-2.085 0.862-1.89-0.729-3.725-0.983-5.363 0.502-2.533-0.329-3.355 0.349-3.979 1.141-0.557-0.012-4.159-0.572-5.813 1.894-4.152-0.491-5.465 2.442-3.978 5.179-0.849 1.313-1.728 2.609 0.257 5.113-0.702 1.394-0.268 2.906 1.386 4.736-0.437 1.96 0.421 3.343 1.959 4.42-0.288 2.682 2.46 4.241 3.28 4.797 0.314 1.563 0.971 3.037 4.108 3.853 0.518 2.329 2.403 2.731 4.229 3.22-6.035 3.509-11.211 8.124-11.176 19.45l-0.883 1.575c-6.92 4.209-13.146 17.735-3.41 28.729 0.637 3.441 1.703 5.914 2.652 8.649 1.42 11.024 10.689 16.187 13.135 16.797 3.583 2.729 7.398 5.318 12.563 7.133 4.867 5.02 10.141 6.934 15.443 6.93 0.078 0 10.811-1.91 15.678-6.93 5.164-1.814 8.979-4.404 12.563-7.133 2.445-0.61 11.715-5.772 13.135-16.797 0.949-2.735 2.017-5.208 2.652-8.649 9.735-10.995 3.51-24.522-3.41-28.73l-0.886-1.577c0.035-11.325-5.141-15.94-11.176-19.45 1.825-0.488 3.712-0.891 4.229-3.22 3.138-0.815 3.795-2.29 4.109-3.853 0.82-0.555 3.567-2.114 3.28-4.796 1.537-1.078 2.395-2.461 1.959-4.421 1.652-1.83 2.088-3.342 1.386-4.736 1.984-2.502 1.104-3.799 0.257-5.112 1.486-2.735 0.175-5.67-3.979-5.179-1.652-2.465-5.255-1.905-5.812-1.894-0.623-0.791-1.446-1.469-3.979-1.141-1.64-1.484-3.473-1.231-5.364-0.502-2.246-1.771-3.731-0.352-5.429 0.186-2.719-0.889-3.341 0.328-4.677 0.824-2.965-0.627-3.866 0.737-5.287 2.178l-1.654-0.033c-4.472 2.636-6.694 8.002-7.481 10.762-0.787-2.76-3.004-8.127-7.476-10.762l-1.653 0.033c-1.424-1.44-2.324-2.805-5.289-2.178-1.341-0.513-1.96-1.729-4.681-0.842-1.114-0.353-2.139-1.085-3.345-1.047"/>
	<path d="m32.654 13.114c11.865 6.117 18.763 11.065 22.542 15.28-1.936 7.757-12.031 8.11-15.723 7.893 0.756-0.352 1.387-0.772 1.61-1.42-0.927-0.658-4.211-0.069-6.504-1.357 0.881-0.184 1.293-0.361 1.705-1.011-2.166-0.691-4.5-1.286-5.873-2.431 0.741 0.009 1.433 0.165 2.4-0.506-1.94-1.045-4.012-1.874-5.62-3.473 1.003-0.024 2.085-0.01 2.399-0.379-1.775-1.1-3.274-2.323-4.515-3.662 1.403 0.17 1.997 0.023 2.337-0.221-1.344-1.375-3.042-2.536-3.852-4.23 1.041 0.359 1.995 0.497 2.683-0.031-0.456-1.029-2.41-1.637-3.536-4.042 1.098 0.107 2.262 0.239 2.494 0-0.509-2.075-1.383-3.241-2.24-4.45 2.349-0.035 5.907 0.009 5.746-0.189l-1.452-1.483c2.294-0.618 4.642 0.099 6.346 0.631 0.765-0.604-0.014-1.367-0.947-2.146 1.95 0.26 3.712 0.708 5.304 1.326 0.852-0.769-0.552-1.537-1.23-2.305 3.012 0.571 4.288 1.374 5.556 2.178 0.921-0.882 0.053-1.632-0.568-2.399 2.271 0.842 3.441 1.928 4.673 3 0.418-0.563 1.061-0.978 0.284-2.337 1.612 0.93 2.827 2.025 3.726 3.252 0.998-0.636 0.595-1.504 0.6-2.305 1.676 1.363 2.74 2.814 4.042 4.23 0.262-0.191 0.491-0.839 0.694-1.862 3.998 3.878 9.646 13.648 1.452 17.521-6.975-5.752-15.304-9.934-24.535-13.069l0.002-0.003m62.957 0c-11.863 6.118-18.761 11.065-22.54 15.28 1.936 7.757 12.031 8.11 15.723 7.893-0.756-0.352-1.387-0.772-1.609-1.42 0.926-0.658 4.21-0.069 6.503-1.357-0.881-0.184-1.293-0.361-1.705-1.011 2.167-0.691 4.501-1.286 5.872-2.431-0.74 0.009-1.432 0.165-2.399-0.506 1.941-1.045 4.012-1.874 5.62-3.473-1.003-0.024-2.085-0.01-2.399-0.379 1.776-1.1 3.274-2.323 4.516-3.662-1.405 0.17-1.997 0.023-2.337-0.221 1.343-1.375 3.042-2.536 3.852-4.23-1.043 0.359-1.996 0.497-2.684-0.031 0.456-1.029 2.411-1.637 3.536-4.042-1.098 0.107-2.262 0.239-2.494 0 0.51-2.075 1.384-3.242 2.241-4.451-2.349-0.035-5.907 0.009-5.746-0.189l1.452-1.484c-2.294-0.617-4.641 0.1-6.346 0.632-0.765-0.604 0.014-1.367 0.947-2.146-1.949 0.26-3.712 0.708-5.304 1.326-0.851-0.769 0.552-1.537 1.231-2.305-3.013 0.571-4.289 1.374-5.557 2.178-0.921-0.882-0.053-1.631 0.568-2.398-2.271 0.841-3.441 1.927-4.673 2.999-0.418-0.563-1.061-0.977-0.284-2.337-1.612 0.93-2.827 2.025-3.726 3.252-0.997-0.635-0.594-1.504-0.6-2.305-1.676 1.363-2.739 2.813-4.041 4.23-0.263-0.19-0.492-0.838-0.695-1.862-3.997 3.878-9.646 13.648-1.451 17.521 6.97-5.753 15.3-9.934 24.53-13.07h-0.018" fill="#75A928"/>
	<path d="m78.501 92.097c0.041 7.238-6.289 13.137-14.138 13.175-7.85 0.038-14.246-5.799-14.287-13.036-0.001-0.047-0.001-0.093 0-0.139-0.042-7.237 6.288-13.137 14.137-13.175 7.85-0.038 14.246 5.799 14.288 13.037v0.14m-22.434-37.439c5.889 3.858 6.95 12.604 2.371 19.533-4.58 6.93-13.066 9.421-18.955 5.563-5.89-3.858-6.95-12.604-2.371-19.534s13.067-9.42 18.955-5.562m15.893-0.696c-5.889 3.858-6.951 12.604-2.371 19.534 4.579 6.93 13.065 9.42 18.954 5.562 5.89-3.858 6.951-12.604 2.372-19.534-4.58-6.93-13.066-9.42-18.955-5.562m-45.326 7.004c6.358-1.704 2.146 26.304-3.026 24.006-5.692-4.577-7.524-17.982 3.026-24.006m73.476-0.348c-6.358-1.704-2.146 26.305 3.027 24.007 5.69-4.577 7.52-17.982-3.03-24.007m-21.601-20.858c10.973-1.854 20.103 4.666 19.733 16.564-0.36 4.562-23.776-15.886-19.733-16.564m-30.319-0.348c-10.974-1.854-20.103 4.667-19.734 16.564 0.36 4.562 23.777-15.885 19.734-16.564m15.76-2.775c-6.549-0.17-12.834 4.86-12.849 7.778-0.019 3.546 5.178 7.176 12.894 7.269 7.879 0.056 12.907-2.906 12.933-6.565 0.029-4.146-7.166-8.546-12.978-8.482m0.402 72.703c5.71-0.249 13.371 1.839 13.387 4.609 0.095 2.69-6.948 8.768-13.765 8.65-7.06 0.305-13.982-5.782-13.892-7.893-0.106-3.09 8.596-5.51 14.27-5.37m-21.089-16.412c4.064 4.897 5.918 13.501 2.525 16.038-3.209 1.937-11.003 1.139-16.543-6.819-3.736-6.679-3.255-13.474-0.632-15.471 3.924-2.392 9.985 0.836 14.65 6.249m41.365-1.553c-4.398 5.152-6.848 14.548-3.64 17.574 3.068 2.352 11.304 2.022 17.387-6.418 4.417-5.67 2.938-15.138 0.414-17.651-3.748-2.898-9.129 0.812-14.161 6.496" fill="#BC1142"/>
</svg>
