<svg xmlns="http://www.w3.org/2000/svg" viewBox="0 0 128 128"><path fill="#050606" d="M7.384 46.845c-.176.005-.366.07-.582.238-.527-.201-1.038-.272-1.495.137-.705-.09-.935.096-1.108.313-.155-.004-1.16-.157-1.62.52-1.157-.135-1.524.67-1.11 1.421-.235.36-.48.716.072 1.404-.195.383-.074.798.388 1.3-.123.539.117.918.545 1.213-.08.738.686 1.165.915 1.317.086.43.27.836 1.144 1.058.144.64.67.75 1.18.884-1.682.963-3.125 2.23-3.116 5.34l-.247.433c-1.928 1.155-3.663 4.868-.95 7.886.177.945.474 1.624.739 2.376.396 3.026 2.98 4.443 3.661 4.61.999.748 2.062 1.46 3.502 1.958 1.355 1.377 2.826 1.903 4.304 1.902h.065c1.478 0 2.948-.524 4.304-1.902 1.44-.498 2.503-1.209 3.502-1.958.68-.167 3.265-1.584 3.66-4.61.265-.752.563-1.431.74-2.376 2.713-3.018.978-6.732-.95-7.886l-.247-.434c.01-3.109-1.433-4.376-3.115-5.339.51-.135 1.034-.245 1.179-.884.874-.224 1.057-.63 1.144-1.058.229-.152.995-.58.914-1.317.429-.296.668-.675.546-1.213.461-.503.583-.917.387-1.3.554-.688.307-1.043.072-1.404.413-.75.048-1.556-1.11-1.42-.46-.678-1.464-.525-1.62-.521-.173-.217-.403-.404-1.108-.314-.458-.407-.969-.337-1.496-.138-.626-.486-1.039-.096-1.513.051-.757-.244-.93.09-1.303.227-.826-.172-1.077.203-1.474.598l-.46-.009c-1.247.724-1.867 2.197-2.086 2.954-.219-.757-.837-2.23-2.082-2.954l-.462.009c-.397-.395-.648-.77-1.475-.598-.372-.137-.544-.47-1.303-.227-.31-.096-.596-.297-.932-.287"/><path fill="#63c54d" d="M4.927 50.029c3.307 1.679 5.23 3.037 6.283 4.194-.54 2.13-3.353 2.226-4.383 2.167.212-.097.387-.212.45-.39-.259-.181-1.174-.02-1.813-.373.245-.05.36-.098.475-.277-.604-.19-1.254-.353-1.637-.668.206.004.4.046.67-.139-.542-.286-1.118-.514-1.567-.952.28-.008.58-.003.668-.104a6.014 6.014 0 0 1-1.258-1.006c.391.047.556.007.65-.06-.373-.378-.846-.697-1.072-1.161.29.098.556.135.748-.01-.128-.282-.672-.449-.987-1.109.307.03.631.066.697 0-.143-.57-.387-.889-.625-1.222.655-.01 1.646.003 1.6-.052l-.404-.407c.64-.17 1.294.027 1.768.174.214-.166-.003-.376-.263-.59a6.508 6.508 0 0 1 1.478.364c.238-.211-.154-.422-.343-.632.84.156 1.196.376 1.55.596.255-.24.014-.447-.16-.657.634.231.96.528 1.303.823.116-.155.296-.268.079-.642.45.256.788.557 1.038.893.279-.174.166-.412.167-.633.467.375.764.773 1.127 1.161.073-.05.137-.229.193-.51 1.114 1.064 2.69 3.746.405 4.81-1.944-1.58-4.265-2.727-6.838-3.588m17.517 0c-3.308 1.679-5.23 3.037-6.283 4.194.54 2.13 3.352 2.226 4.383 2.167-.212-.097-.388-.212-.45-.39.259-.181 1.174-.02 1.812-.373-.245-.05-.36-.098-.474-.277.603-.19 1.254-.353 1.636-.668-.206.004-.4.046-.668-.139.54-.286 1.117-.514 1.566-.952-.28-.008-.581-.003-.67-.104a6.007 6.007 0 0 0 1.26-1.006c-.391.047-.557.007-.652-.06.374-.378.848-.697 1.074-1.161-.29.097-.556.135-.748-.01.127-.282.672-.449.986-1.109-.306.03-.63.066-.696 0 .142-.57.387-.89.625-1.222-.655-.01-1.646.002-1.602-.052l.406-.407c-.64-.17-1.294.027-1.768.174-.214-.166.003-.377.262-.59a6.531 6.531 0 0 0-1.477.364c-.238-.211.154-.423.342-.633-.84.157-1.195.377-1.549.598-.256-.243-.014-.448.159-.658-.633.23-.96.528-1.302.822-.116-.154-.296-.268-.08-.64a3.288 3.288 0 0 0-1.037.892c-.279-.174-.166-.412-.168-.633-.467.375-.763.773-1.126 1.161-.073-.052-.137-.23-.193-.51-1.115 1.063-2.69 3.746-.405 4.81 1.942-1.58 4.263-2.728 6.837-3.588"/><path fill="#c51850" d="M17.684 71.712c.011 1.986-1.753 3.605-3.94 3.616-2.188.011-3.97-1.592-3.981-3.58v-.036c-.012-1.988 1.751-3.607 3.94-3.617 2.186-.01 3.97 1.591 3.98 3.579v.038m-6.175-10.278c1.641 1.058 1.937 3.46.662 5.362-1.278 1.902-3.643 2.586-5.284 1.527s-1.938-3.46-.662-5.363c1.277-1.902 3.643-2.586 5.283-1.526m4.431-.192c-1.641 1.058-1.937 3.46-.662 5.363 1.277 1.901 3.643 2.586 5.283 1.526 1.642-1.059 1.938-3.46.662-5.362-1.277-1.903-3.642-2.586-5.283-1.527M3.406 63.176c1.772-.467.598 7.22-.844 6.59-1.586-1.257-2.097-4.935.844-6.59m20.479-.096c-1.773-.467-.599 7.221.844 6.591 1.586-1.257 2.097-4.936-.844-6.59m-5.944-5.738c3.058-.509 5.603 1.281 5.5 4.547-.1 1.253-6.627-4.36-5.5-4.547m-8.45-.095c-3.059-.51-5.602 1.28-5.5 4.547.102 1.253 6.627-4.36 5.5-4.547m4.213-.762c-1.824-.046-3.576 1.334-3.58 2.135-.006.974 1.442 1.97 3.593 1.996 2.196.015 3.598-.799 3.605-1.803.008-1.138-1.998-2.345-3.618-2.328m.141 19.96c1.592-.069 3.728.505 3.732 1.265.026.738-1.937 2.407-3.837 2.375-1.967.083-3.896-1.588-3.872-2.167-.028-.849 2.397-1.513 3.977-1.474m-5.889-4.507c1.133 1.345 1.65 3.707.706 4.403-.896.532-3.068.313-4.613-1.872-1.041-1.833-.907-3.699-.176-4.247 1.094-.656 2.783.23 4.083 1.716m11.406-.426c-1.225 1.415-1.908 3.994-1.013 4.825.855.645 3.15.555 4.846-1.763 1.231-1.555.819-4.154.116-4.845-1.046-.795-2.545.223-3.949 1.783"/><path fill="#231f20" d="M32.919 62.04h2.01c.655 0 1.143-.138 1.464-.414.322-.277.484-.687.484-1.23 0-.532-.162-.955-.483-1.27-.322-.313-.797-.47-1.425-.47h-2.052zm0 1.796v4.646h-2.332V56.86h4.383c1.325 0 2.361.303 3.109.907.748.604 1.121 1.446 1.121 2.527 0 .6-.156 1.117-.47 1.547-.315.432-.775.781-1.381 1.046.686.203 1.18.54 1.48 1.014.3.474.452 1.06.452 1.757v.853c0 .326.043.664.13 1.019.089.353.24.616.452.786v.167H37.46c-.212-.17-.351-.455-.415-.853a7.185 7.185 0 0 1-.096-1.134v-.822c0-.58-.158-1.03-.475-1.354-.316-.321-.762-.483-1.336-.483h-2.22m11.224 3.09c.41 0 .774-.101 1.094-.304.319-.202.535-.436.646-.702V64.7h-1.301c-.495 0-.87.123-1.125.37a1.204 1.204 0 0 0-.384.899.9.9 0 0 0 .287.694c.192.176.453.264.783.264zm2.13 1.556a4.888 4.888 0 0 1-.218-.622 4.33 4.33 0 0 1-.132-.67 3.216 3.216 0 0 1-.945 1.045c-.392.277-.86.415-1.402.415-.905 0-1.602-.233-2.091-.698-.49-.467-.735-1.101-.735-1.904 0-.846.326-1.502.978-1.968.652-.466 1.603-.698 2.854-.698h1.301v-.687c0-.415-.108-.737-.327-.965-.218-.23-.54-.344-.966-.344-.378 0-.669.092-.874.275-.206.185-.308.438-.308.763l-2.25-.009-.009-.047c-.036-.73.28-1.358.95-1.888.671-.53 1.552-.794 2.642-.794 1.033 0 1.871.262 2.516.785.643.525.965 1.272.965 2.24v3.567c0 .405.03.785.092 1.141.06.358.157.71.29 1.063h-2.33m8.382-2.377c0-.256-.124-.478-.371-.664-.248-.186-.707-.35-1.378-.495-1.02-.207-1.79-.515-2.31-.922-.519-.407-.778-.962-.778-1.664 0-.745.312-1.378.937-1.896.626-.519 1.462-.778 2.511-.778 1.101 0 1.979.258 2.63.774.651.516.965 1.168.938 1.955l-.015.048h-2.252c0-.345-.11-.627-.331-.846-.221-.217-.545-.327-.97-.327-.378 0-.675.092-.89.276a.87.87 0 0 0-.324.69c0 .266.113.485.34.655.227.17.685.321 1.377.455 1.063.212 1.854.525 2.37.938.517.412.775.98.775 1.703 0 .778-.333 1.412-.998 1.905-.665.492-1.543.737-2.634.737-1.15 0-2.058-.29-2.727-.873-.667-.582-.985-1.247-.953-1.991l.016-.048h2.132c.015.462.167.797.455 1.005.287.208.662.312 1.125.312.43 0 .76-.086.985-.256a.823.823 0 0 0 .34-.695m9.22-1.88c0-.815-.136-1.475-.408-1.982-.271-.506-.686-.76-1.245-.76-.35 0-.651.073-.898.217a1.545 1.545 0 0 0-.586.615v3.79c.143.245.34.431.586.56.248.127.553.191.914.191.564 0 .978-.221 1.242-.664.263-.442.395-1.041.395-1.798zm2.331.18c0 1.277-.296 2.305-.886 3.081-.591.778-1.416 1.166-2.476 1.166a2.77 2.77 0 0 1-1.204-.251 2.479 2.479 0 0 1-.902-.738v4.142h-2.325V59.846h2.1l.136 1.021c.255-.378.563-.669.922-.874.358-.205.778-.307 1.257-.307 1.07 0 1.9.418 2.49 1.253.59.835.887 1.934.887 3.298v.167m6.906-.168c0-.847-.124-1.516-.372-2.012-.247-.494-.669-.743-1.264-.743-.363 0-.669.076-.92.23a1.584 1.584 0 0 0-.59.654v3.678c.144.262.342.463.595.602.253.14.563.21.93.21.602 0 1.022-.213 1.261-.64.24-.425.36-1.03.36-1.811zm2.322.168c0 1.287-.287 2.317-.861 3.089-.575.77-1.405 1.157-2.491 1.157-.5 0-.938-.105-1.313-.315a2.716 2.716 0 0 1-.954-.922l-.176 1.07h-1.996V56.028h2.324v4.734a2.64 2.64 0 0 1 .898-.798 2.503 2.503 0 0 1 1.2-.279c1.096 0 1.932.413 2.508 1.241.574.828.862 1.93.862 3.309v.168m5.053-2.923c-.432 0-.772.165-1.022.495-.25.33-.405.765-.463 1.302l.023.04h2.859v-.207c0-.496-.116-.89-.347-1.186-.232-.296-.582-.444-1.05-.444zm.207 7.17c-1.245 0-2.24-.4-2.985-1.198-.746-.798-1.118-1.812-1.118-3.042v-.319c0-1.283.353-2.34 1.058-3.17.705-.83 1.65-1.241 2.838-1.236 1.165 0 2.07.35 2.714 1.052.643.703.965 1.653.965 2.851v1.27H79.01l-.016.047c.043.567.232 1.034.57 1.4.338.365.798.548 1.378.548.515 0 .944-.052 1.285-.156a5.91 5.91 0 0 0 1.117-.49l.631 1.44c-.351.289-.811.527-1.382.717a5.988 5.988 0 0 1-1.898.285m9.371-6.8-.855-.025c-.346 0-.63.072-.853.215a1.367 1.367 0 0 0-.511.607v5.836h-2.324v-8.637h2.164l.103 1.276c.202-.452.464-.805.787-1.057.322-.253.694-.38 1.114-.38.117 0 .224.01.323.028.098.019.198.041.3.069l-.248 2.067m5.723 0-.854-.024c-.347 0-.63.072-.854.215a1.365 1.365 0 0 0-.51.607v5.835h-2.324v-8.636h2.163l.104 1.276c.202-.452.465-.805.786-1.057.322-.253.694-.38 1.114-.38.117 0 .224.01.323.028a4.3 4.3 0 0 1 .3.069l-.248 2.067m4.518 3.01.095.479h.05l1.651-5.492h2.506l-3.504 9.93a4.578 4.578 0 0 1-.998 1.56c-.42.423-1.05.635-1.891.635-.197 0-.379-.016-.547-.048a13.39 13.39 0 0 1-.61-.135l.27-1.701.225.032c.08.011.152.015.215.015.384 0 .679-.094.886-.282.208-.19.367-.425.48-.707l.27-.67-3.065-8.63h2.506l1.461 5.013m11.83-2.387h2.299c.648 0 1.14-.176 1.477-.53.335-.354.502-.806.502-1.353 0-.56-.166-1.02-.499-1.386-.331-.364-.825-.546-1.48-.546h-2.299zm0 1.797v4.214h-2.332V56.86h4.63c1.337 0 2.387.342 3.154 1.022.767.682 1.15 1.578 1.15 2.69 0 1.113-.383 2.007-1.15 2.683-.767.676-1.817 1.014-3.153 1.014h-2.299m10.578 4.214h-2.333v-8.636h2.333zm0-10.704h-2.333V56.03h2.333v1.75"/><path fill="#181818" d="M126.185 58.331a1.513 1.513 0 1 1 0-3.026 1.513 1.513 0 0 1 0 3.026zm0-3.328a1.815 1.815 0 1 0 0 3.631 1.815 1.815 0 0 0 0-3.63"/><path fill="#181818" d="M125.847 56.703h.467c.192 0 .295-.082.295-.278 0-.187-.103-.269-.294-.269h-.467zm-.426-.879h1.047c.348 0 .568.242.568.535 0 .23-.093.4-.308.488v.005c.21.054.27.258.284.454.007.122.004.35.08.459h-.426c-.052-.123-.046-.31-.067-.465-.03-.204-.11-.293-.324-.293h-.428v.76h-.426v-1.943"/></svg>
