<?xml version="1.0" encoding="UTF-8" standalone="no"?>
<svg
   xmlns:dc="http://purl.org/dc/elements/1.1/"
   xmlns:cc="http://creativecommons.org/ns#"
   xmlns:rdf="http://www.w3.org/1999/02/22-rdf-syntax-ns#"
   xmlns:svg="http://www.w3.org/2000/svg"
   xmlns="http://www.w3.org/2000/svg"
   xmlns:sodipodi="http://sodipodi.sourceforge.net/DTD/sodipodi-0.dtd"
   xmlns:inkscape="http://www.inkscape.org/namespaces/inkscape"
   version="1.1"
   id="svg2"
   xml:space="preserve"
   width="128"
   height="128"
   viewBox="0 0 128 128"
   sodipodi:docname="raspberrypi-line-wordmark.svg"
   inkscape:version="1.0.2-2 (e86c870879, 2021-01-15)"><metadata
     id="metadata8"><rdf:RDF><cc:Work
         rdf:about=""><dc:format>image/svg+xml</dc:format><dc:type
           rdf:resource="http://purl.org/dc/dcmitype/StillImage" /><dc:title></dc:title></cc:Work></rdf:RDF></metadata><defs
     id="defs6" /><sodipodi:namedview
     pagecolor="#ffffff"
     bordercolor="#666666"
     borderopacity="1"
     objecttolerance="10"
     gridtolerance="10"
     guidetolerance="10"
     inkscape:pageopacity="0"
     inkscape:pageshadow="2"
     inkscape:window-width="1252"
     inkscape:window-height="775"
     id="namedview4"
     showgrid="false"
     inkscape:zoom="4"
     inkscape:cx="65.081623"
     inkscape:cy="64.354709"
     inkscape:window-x="175"
     inkscape:window-y="0"
     inkscape:window-maximized="0"
     inkscape:current-layer="g10"
     inkscape:document-rotation="0" /><g
     id="g10"
     inkscape:groupmode="layer"
     inkscape:label="ink_ext_XXXXXX"
     transform="matrix(1.3333333,0,0,-1.3333333,0,825.76)"><g
       id="g12"
       transform="matrix(0.00383049,0,0,0.00383049,3.750013,559.45856)"><path
         d="m 4463.5,2073.01 c -260.27,-113.87 -472.17,1274.03 -152.29,1189.61 530.76,-298.53 438.56,-962.79 152.29,-1189.61 z M 4186.78,1187.87 C 3880.73,769.621 3466.42,753.332 3312.09,869.82 c -161.42,149.95 -38.2,615.56 183.07,870.83 v 0.08 c 253.19,281.59 523.87,465.44 712.45,321.78 126.92,-124.57 201.38,-593.73 -20.83,-874.64 z M 3192,1704.72 c 2.08,-358.64 -316.36,-650.93 -711.23,-652.82 -394.87,-1.89 -716.68,287.32 -718.76,645.98 0,2.28 0,4.56 0,6.84 -2.07,358.66 316.35,650.95 711.24,652.83 394.87,1.89 716.68,-287.31 718.75,-645.98 0.01,-2.29 0.01,-4.55 0,-6.85 z M 2480.18,193.109 c -355.16,-15.078 -703.39,286.563 -698.83,391.11 -5.32,153.301 432.44,272.98 717.88,265.953 287.23,12.359 672.67,-91.121 673.43,-228.391 4.77,-133.301 -349.56,-434.48 -692.48,-428.672 z M 1242.91,2316.33 c -296.265,191.19 -349.68,624.56 -119.29,967.96 230.38,343.38 657.3,466.78 953.55,275.58 296.27,-191.17 349.68,-624.54 119.3,-967.92 -230.38,-343.39 -657.32,-466.8 -953.56,-275.62 z M 1563.26,869.02 c -161.47,-95.961 -553.57,-56.45 -832.276,337.92 -187.929,330.88 -163.722,667.63 -31.746,766.53 197.344,118.42 502.252,-41.52 736.952,-309.73 204.49,-242.69 297.72,-669.049 127.07,-794.72 z M 462.527,2055.78 c -286.281,226.8 -378.4957,891 152.27,1189.53 319.84,84.45 107.98,-1303.41 -152.27,-1189.53 z M 1713.29,4315.43 c 203.36,-33.66 -974.634,-1046.84 -992.774,-820.82 -18.539,589.53 440.734,912.63 992.774,820.82 z m -727.06,292.48 c 44.3,9.05 65.04,17.84 85.75,50.06 -108.968,34.23 -226.367,63.74 -295.402,120.46 37.262,-0.47 72.035,-8.21 120.707,25.03 -97.629,51.82 -201.781,92.87 -282.707,172.08 50.461,1.2 104.875,0.5 120.695,18.77 -89.335,54.51 -164.726,115.15 -227.128,181.47 70.644,-8.4 100.464,-1.17 117.546,10.95 -67.539,68.12 -153.023,125.66 -193.773,209.63 52.445,-17.81 100.422,-24.63 135.016,1.56 -22.961,51.01 -121.286,81.08 -177.903,200.24 55.223,-5.26 113.774,-11.85 125.489,0 -25.637,102.83 -69.598,160.65 -112.727,220.55 118.152,1.72 297.172,-0.46 289.066,9.39 l -73.05,73.53 c 115.406,30.6 233.5,-4.92 319.238,-31.3 38.488,29.92 -0.68,67.76 -47.652,106.4 98.089,-12.92 186.715,-35.13 266.815,-65.73 42.82,38.08 -27.77,76.15 -61.94,114.21 151.54,-28.32 215.75,-68.1 279.54,-107.95 46.3,43.71 2.65,80.85 -28.59,118.89 114.26,-41.68 173.12,-95.49 235.07,-148.61 21.01,27.92 53.37,48.39 14.3,115.77 81.11,-46.06 142.2,-100.33 187.42,-161.13 50.19,31.48 29.9,74.53 30.18,114.2 84.29,-67.56 137.8,-139.44 203.3,-209.63 13.18,9.45 24.74,41.55 34.93,92.3 201.12,-192.2 485.32,-676.3 73.06,-868.24 -350.66,284.85 -769.42,491.96 -1233.464,647.34 596.484,-302.94 943.314,-548.06 1133.344,-756.8 -97.35,-384.35 -605.24,-401.9 -790.94,-391.11 38.01,17.43 69.74,38.32 80.99,70.4 -46.59,32.6 -211.83,3.44 -327.18,67.27 z m 1487.55,-154.99 v 0.02 c 292.34,3.16 654.32,-214.86 652.86,-420.29 -1.28,-181.32 -254.21,-328.1 -650.62,-325.31 -388.17,4.57 -649.57,184.46 -648.65,360.15 0.77,144.59 316.96,393.87 646.41,385.43 z m 416.13,1386.17 c 10.21,-50.74 21.75,-82.84 34.95,-92.3 65.47,70.19 118.99,142.08 203.29,209.62 0.29,-39.66 -20.01,-82.71 30.19,-114.19 45.19,60.8 106.28,115.07 187.41,161.14 -39.06,-67.39 -6.71,-87.85 14.3,-115.77 61.94,53.12 120.8,106.93 235.06,148.6 -31.23,-38.03 -74.89,-75.18 -28.6,-118.88 63.81,39.83 128.01,79.62 279.54,107.94 -34.15,-38.07 -104.74,-76.14 -61.94,-114.2 80.11,30.6 168.74,52.81 266.82,65.7 -46.96,-38.61 -86.12,-76.45 -47.64,-106.37 85.74,26.38 203.83,61.89 319.26,31.28 l -73.09,-73.52 c -8.08,-9.84 170.92,-7.66 289.07,-9.38 -43.1,-59.9 -87.08,-117.72 -112.75,-220.6 11.72,-11.85 70.26,-5.26 125.47,0 -56.61,-119.16 -154.93,-149.23 -177.88,-200.24 34.59,-26.19 82.57,-19.37 135.01,-1.56 -40.76,-83.97 -126.23,-141.51 -193.78,-209.63 17.09,-12.12 46.91,-19.35 117.54,-10.95 -62.39,-66.32 -137.78,-126.96 -227.14,-181.47 15.84,-18.27 70.24,-17.57 120.71,-18.77 -80.92,-79.21 -185.1,-120.26 -282.7,-172.08 48.65,-33.24 83.45,-25.5 120.71,-25.03 -69.04,-56.72 -186.44,-86.23 -295.42,-120.46 20.72,-32.22 41.46,-41.01 85.76,-50.06 -115.35,-63.83 -280.58,-34.67 -327.18,-67.27 11.24,-32.08 42.96,-52.97 80.99,-70.4 -185.7,-10.79 -693.6,6.76 -790.96,391.11 190.1,208.86 537.07,453.97 1133.87,757.1 -464.33,-155.4 -883.29,-362.55 -1233.92,-647.6 -412.29,191.94 -128.08,676.04 73.05,868.24 z m 821.18,-3488.14 c -296.26,-191.19 -723.17,-67.78 -953.56,275.61 -230.38,343.37 -176.98,776.75 119.29,967.93 296.27,191.19 723.19,67.8 953.57,-275.59 230.38,-343.4 176.97,-776.77 -119.3,-967.95 z m 520.12,1126.37 c -18.15,-226.03 -1196.15,787.15 -992.77,820.8 551.99,91.81 1011.31,-231.21 992.77,-820.8 z m 268.01,-95.87 -44.53,78.13 c 1.76,561.16 -258.63,789.88 -562.24,963.77 91.87,24.21 186.73,44.14 212.75,159.53 157.87,40.42 190.89,113.49 206.72,190.91 41.28,27.52 179.47,104.8 164.99,237.7 77.36,53.39 120.5,121.91 98.57,219.01 83.14,90.7 105.03,165.63 69.72,234.71 99.81,123.99 55.52,188.26 12.91,253.33 74.76,135.56 8.8,280.94 -200.2,256.59 -83.11,122.15 -264.34,94.41 -292.36,93.85 -31.37,39.2 -72.74,72.79 -200.12,56.5 -82.48,73.58 -174.73,61.02 -269.87,24.88 -112.99,87.81 -187.74,17.43 -273.13,-9.18 -136.77,44.02 -168.06,-16.29 -235.24,-40.83 -149.18,31.03 -194.51,-36.55 -266.03,-107.91 l -83.18,1.62 c -224.99,-130.59 -336.75,-396.52 -376.37,-533.22 -39.65,136.73 -151.17,402.66 -376.1,533.22 l -83.18,-1.62 c -71.6,71.36 -116.94,138.94 -266.1,107.91 -67.2,24.54 -98.38,84.85 -235.25,40.83 -56.05,17.46 -107.61,53.77 -168.29,51.92 l 0.11,-0.04 c -31.79,-0.96 -66.04,-12.52 -104.87,-42.73 -95.16,36.15 -187.4,48.71 -269.879,-24.86 -127.371,16.28 -168.774,-17.31 -200.141,-56.51 -27.953,0.57 -209.25,28.3 -292.375,-93.84 -208.914,24.34 -274.953,-121.05 -200.14,-256.61 -42.661,-65.07 -86.86,-129.35 12.902,-253.37 -35.285,-69.08 -13.41,-144.01 69.746,-234.72 -21.949,-97.11 21.199,-165.62 98.555,-219.02 -14.481,-132.88 123.715,-210.15 164.984,-237.69 15.836,-77.42 48.871,-150.49 206.723,-190.89 26.019,-115.41 120.89,-135.33 212.755,-159.54 C 727.426,4249.43 467.074,4020.71 468.832,3459.5 L 424.34,3381.35 C 76.2109,3172.81 -237.016,2502.55 252.781,1957.78 284.773,1787.23 338.43,1664.75 386.207,1529.19 457.668,982.91 924.004,727.121 1047.01,696.859 1227.25,561.641 1419.2,433.332 1678.97,343.441 1923.85,94.6914 2189.13,-0.109375 2455.89,0.03125 c 3.91,0 7.89,-0.0507813 11.8,0 266.75,-0.160156 532.05,94.64065 776.91,343.40975 259.77,89.891 451.74,218.2 631.98,353.418 123,30.262 589.33,286.051 660.79,832.331 47.77,135.56 101.44,258.04 133.42,428.59 489.81,544.82 176.59,1215.13 -171.57,1423.67"
         style="fill:#050606;fill-opacity:1;fill-rule:nonzero;stroke:none"
         id="path14" /><path
         d="m 5941.83,3450.32 h 363.09 c 118.16,0 206.27,24.96 264.41,74.92 58.1,49.94 87.16,123.92 87.16,221.89 0,96.05 -29.06,172.42 -87.16,229.1 -58.14,56.67 -143.87,85.02 -257.2,85.02 h -370.3 z m 0,-324.2 v -838.58 h -420.74 v 2097.9 h 791.04 c 239.18,0 426.25,-54.53 561.22,-163.54 134.94,-109.03 202.44,-261.04 202.44,-456.03 0,-108.56 -28.35,-201.72 -85.02,-279.53 -56.69,-77.81 -139.75,-140.73 -249.27,-188.76 123.92,-36.51 213.01,-97.5 267.29,-182.98 54.25,-85.51 81.41,-191.17 81.41,-316.99 v -154.18 c 0,-58.6 7.92,-119.84 23.76,-183.71 15.85,-63.89 42.99,-111.19 81.42,-141.92 v -30.26 h -433.7 c -38.43,30.73 -63.4,82.13 -74.93,154.17 -11.53,72.05 -17.29,140.24 -17.29,204.6 v 148.41 c 0,104.7 -28.59,186.1 -85.73,244.23 -57.16,58.11 -137.6,87.17 -241.35,87.17 h -400.55"
         style="fill:#231f20;fill-opacity:1;fill-rule:nonzero;stroke:none"
         id="path16" /><path
         d="m 7967.69,2568.51 c 73.95,0 139.75,18.24 197.39,54.75 57.63,36.49 96.54,78.76 116.71,126.8 v 220.45 h -234.86 c -89.33,0 -157.06,-22.34 -203.16,-67 -46.11,-44.67 -69.16,-98.7 -69.16,-162.1 0,-51.87 17.28,-93.66 51.86,-125.35 34.58,-31.7 81.64,-47.55 141.22,-47.55 z m 384.7,-280.97 c -15.37,35.53 -28.59,72.99 -39.63,112.39 -11.04,39.37 -18.97,79.71 -23.77,121.03 -43.22,-75.9 -100.13,-138.82 -170.74,-188.75 -70.6,-49.94 -154.89,-74.93 -252.87,-74.93 -163.32,0 -289.14,42.01 -377.51,126.08 -88.39,84.04 -132.56,198.59 -132.56,343.64 0,152.74 58.84,271.11 176.51,355.18 117.65,84.04 289.37,126.07 515.11,126.07 h 234.86 v 123.92 c 0,74.92 -19.7,133.03 -59.08,174.34 -39.4,41.29 -97.5,61.96 -174.34,61.96 -68.22,0 -120.81,-16.57 -157.77,-49.71 -36.99,-33.14 -55.48,-79.02 -55.48,-137.6 l -406.32,1.44 -1.45,8.64 c -6.72,131.59 50.43,245.18 171.47,340.77 121.03,95.56 280.01,143.36 476.92,143.36 186.35,0 337.65,-47.32 453.88,-141.92 116.21,-94.63 174.34,-229.35 174.34,-404.17 v -644.06 c 0,-73.01 5.52,-141.7 16.58,-206.04 11.02,-64.37 28.56,-128.24 52.59,-191.64 h -420.74"
         style="fill:#231f20;fill-opacity:1;fill-rule:nonzero;stroke:none"
         id="path18" /><path
         d="m 9865.3,2716.92 c 0,46.1 -22.33,85.96 -67,119.59 -44.67,33.61 -127.52,63.4 -248.55,89.33 -184.43,37.47 -323.47,92.94 -417.13,166.42 -93.66,73.49 -140.48,173.62 -140.48,300.42 0,134.47 56.41,248.55 169.3,342.21 112.86,93.66 263.9,140.48 453.15,140.48 198.84,0 357.09,-46.6 474.81,-139.76 117.6,-93.19 174.1,-210.86 169.3,-353.01 l -2.9,-8.65 h -406.35 c 0,62.43 -19.95,113.34 -59.79,152.74 -39.87,39.37 -98.22,59.07 -175.07,59.07 -68.22,0 -121.76,-16.57 -160.65,-49.71 -38.91,-33.14 -58.36,-74.7 -58.36,-124.64 0,-48.04 20.39,-87.42 61.24,-118.15 40.82,-30.75 123.67,-58.12 248.54,-82.13 192.11,-38.43 334.74,-94.86 427.94,-169.3 93.2,-74.45 139.8,-176.99 139.8,-307.62 0,-140.26 -60.1,-254.81 -180.1,-343.65 -120.14,-88.86 -278.62,-133.28 -475.53,-133.28 -207.48,0 -371.52,52.59 -492.05,157.77 -120.56,105.19 -177.95,225.01 -172.19,359.5 l 2.88,8.65 h 384.71 c 2.89,-83.57 30.26,-144.09 82.14,-181.55 51.86,-37.46 119.59,-56.19 203.15,-56.19 77.82,0 137.11,15.35 177.95,46.1 40.82,30.73 61.24,72.52 61.24,125.36"
         style="fill:#231f20;fill-opacity:1;fill-rule:nonzero;stroke:none"
         id="path20" /><path
         d="m 11529.5,3056.22 c 0,147.19 -24.5,266.47 -73.5,357.87 -49,91.38 -123.9,137.09 -224.8,137.09 -63.4,0 -117.4,-12.99 -162.1,-38.97 -44.6,-25.98 -79.9,-63.02 -105.9,-111.11 v -683.97 c 26,-44.27 61.3,-77.93 105.9,-101.03 44.7,-23.1 99.7,-34.62 165,-34.62 101.8,0 176.5,39.91 224.1,119.77 47.5,79.83 71.3,188.06 71.3,324.67 z m 420.7,-32.4 c 0,-230.54 -53.3,-415.94 -159.9,-556.17 -106.6,-140.26 -255.5,-210.37 -446.7,-210.37 -81.6,0 -154.1,15.13 -217.5,45.39 -63.4,30.26 -117.7,74.67 -162.9,133.28 v -747.81 h -419.3 v 2158.41 h 379 l 24.5,-184.42 c 46.1,68.19 101.6,120.78 166.4,157.77 64.8,36.97 140.5,55.47 226.9,55.47 193.1,0 343,-75.42 449.6,-226.21 106.6,-150.82 159.9,-349.18 159.9,-595.08 v -30.26"
         style="fill:#231f20;fill-opacity:1;fill-rule:nonzero;stroke:none"
         id="path22" /><path
         d="m 13196.6,3054.01 c 0,152.67 -22.4,273.7 -67,363.08 -44.7,89.38 -120.8,134.09 -228.4,134.09 -65.3,0 -120.6,-13.78 -165.7,-41.32 -45.2,-27.55 -80.7,-66.92 -106.6,-118.13 v -663.85 c 25.9,-47.37 61.7,-83.59 107.3,-108.71 45.6,-25.13 101.6,-37.69 167.9,-37.69 108.5,0 184.4,38.41 227.6,115.22 43.3,76.82 64.9,185.79 64.9,326.87 z m 419.3,-30.19 c 0,-232.47 -51.9,-418.34 -155.6,-557.61 -103.8,-139.29 -253.6,-208.93 -449.6,-208.93 -90.3,0 -169.3,18.98 -237,56.92 -67.7,37.93 -125.1,93.4 -172.2,166.42 l -31.7,-193.08 h -360.2 v 2247.75 h 419.3 v -854.43 c 45.1,62.42 99.2,110.45 162.1,144.08 62.9,33.61 135.2,50.43 216.8,50.43 197.9,0 348.7,-74.7 452.5,-224.05 103.7,-149.38 155.6,-348.46 155.6,-597.24 v -30.26"
         style="fill:#231f20;fill-opacity:1;fill-rule:nonzero;stroke:none"
         id="path24" /><path
         d="m 14527.9,3551.18 c -77.8,0 -139.2,-29.79 -184.4,-89.33 -45.2,-59.57 -73,-137.86 -83.6,-234.87 l 4.4,-7.2 h 515.8 v 37.46 c 0,89.33 -20.9,160.66 -62.7,213.97 -41.8,53.31 -104.9,79.97 -189.5,79.97 z m 37.5,-1293.9 c -224.8,0 -404.4,72.05 -538.9,216.13 -134.5,144.09 -201.7,327.08 -201.7,548.97 v 57.64 c 0,231.48 63.6,422.17 190.9,572.02 127.3,149.85 298,224.28 512.2,223.33 210.4,0 373.7,-63.4 489.9,-190.19 116.2,-126.8 174.4,-298.26 174.4,-514.39 v -229.1 h -930.8 l -2.9,-8.6 c 7.7,-102.39 42,-186.59 103,-252.6 61,-66.01 143.9,-99.01 248.6,-99.01 93.1,0 170.5,9.36 231.9,28.09 61.5,18.74 128.8,48.27 201.8,88.61 l 113.8,-259.98 c -63.4,-52.11 -146.5,-95.3 -249.3,-129.54 -102.8,-34.24 -217.1,-51.38 -342.9,-51.38"
         style="fill:#231f20;fill-opacity:1;fill-rule:nonzero;stroke:none"
         id="path26" /><g
         id="g28"
         transform="scale(1.0001)"><path
           d="m 16255.4,3484.56 -154.2,4.32 c -62.5,0 -113.8,-12.97 -154.2,-38.9 -40.3,-25.94 -71.1,-62.44 -92.2,-109.5 V 2287.31 h -419.2 v 1558.86 h 390.4 l 18.7,-230.51 c 36.5,81.63 83.8,145.26 142,190.9 58.1,45.6 125.1,68.43 200.9,68.43 21.2,0 40.6,-1.69 58.4,-5.04 17.8,-3.38 35.8,-7.45 54,-12.25 l -44.6,-373.14"
           style="fill:#231f20;fill-opacity:1;fill-rule:nonzero;stroke:none"
           id="path30" /></g><g
         id="g32"
         transform="scale(1.06348)"><path
           d="m 16258.1,3276.89 -145,4.06 c -58.8,0 -107,-12.2 -145,-36.58 -37.9,-24.39 -66.9,-58.72 -86.7,-102.97 V 2151 h -394.3 v 1465.95 h 367.2 l 17.6,-216.77 c 34.3,76.76 78.8,136.6 133.4,179.52 54.7,42.88 117.7,64.35 189.1,64.35 19.8,0 38.1,-1.59 54.8,-4.74 16.8,-3.18 33.7,-7 50.8,-11.52 l -41.9,-350.9"
           style="fill:#231f20;fill-opacity:1;fill-rule:nonzero;stroke:none"
           id="path34" /></g><g
         id="g36"
         transform="scale(1.15842)"><path
           d="m 15629.6,2539.41 14.9,-74.63 h 7.5 l 257.5,855.74 h 390.5 l -546,-1547.31 c -38.2,-96.18 -90,-177.25 -155.5,-243.17 -65.5,-65.92 -163.7,-98.87 -294.8,-98.87 -30.7,0 -59,2.48 -85.2,7.46 -26.1,4.97 -57.8,12.02 -95.1,21.14 l 42.3,264.94 c 10.7,-1.65 22.4,-3.31 34.8,-4.98 12.4,-1.65 23.6,-2.49 33.6,-2.49 59.7,0 105.7,14.73 138,44.15 32.4,29.45 57.2,66.15 74.7,110.09 l 42.3,104.48 -477.7,1344.56 h 390.6 l 227.6,-781.11"
           style="fill:#231f20;fill-opacity:1;fill-rule:nonzero;stroke:none"
           id="path38" /></g><g
         id="g40"
         transform="scale(1.31488)"><path
           d="m 15393.8,2564.87 h 315.5 c 89.1,0 156.7,24.29 202.8,72.88 46,48.57 69,110.48 69,185.73 0,76.71 -22.9,140.08 -68.5,190.12 -45.6,50.04 -113.4,75.08 -203.3,75.08 h -315.5 z m 0,-246.55 v -578.59 h -320.1 v 1595.5 h 635.6 c 183.4,0 327.6,-46.76 432.9,-140.26 105.2,-93.53 157.8,-216.61 157.8,-369.29 0,-152.7 -52.6,-275.42 -157.8,-368.2 -105.3,-92.78 -249.5,-139.16 -432.9,-139.16 h -315.5"
           style="fill:#231f20;fill-opacity:1;fill-rule:nonzero;stroke:none"
           id="path42" /></g><g
         id="g44"
         transform="scale(1.3589)"><path
           d="m 16300,1683.37 h -309.6 v 1147.26 h 309.6 z m 0,1421.89 h -309.6 v 232.21 h 309.6 v -232.21"
           style="fill:#231f20;fill-opacity:1;fill-rule:nonzero;stroke:none"
           id="path46" /></g><g
         id="g48"
         transform="scale(1.41742)"><path
           d="m 16069,2906.6 c -106.3,0 -192.6,86.2 -192.6,192.61 0,106.47 86.3,192.62 192.6,192.62 106.4,0 192.6,-86.15 192.6,-192.62 0,-106.41 -86.2,-192.61 -192.6,-192.61 z m 0,423.77 c -127.6,0 -231.1,-103.48 -231.1,-231.16 0,-127.61 103.5,-231.09 231.1,-231.09 127.7,0 231.1,103.48 231.1,231.09 0,127.68 -103.4,231.16 -231.1,231.16"
           style="fill:#181818;fill-opacity:1;fill-rule:nonzero;stroke:none"
           id="path50" /></g><g
         id="g52"
         transform="scale(1.40739)"><path
           d="m 16140.3,3136.16 h 59.9 c 24.5,0 37.7,10.51 37.7,35.61 0,23.96 -13.2,34.47 -37.7,34.47 h -59.9 z m -54.7,112.59 h 134.2 c 44.7,0 72.9,-30.99 72.9,-68.54 0,-29.39 -11.9,-51.34 -39.5,-62.52 v -0.67 c 26.9,-6.96 34.6,-33.07 36.4,-58.24 0.9,-15.66 0.6,-44.91 10.4,-58.91 h -54.7 c -6.7,15.74 -6,39.7 -8.7,59.65 -3.9,26.16 -14,37.62 -41.5,37.62 h -54.8 v -97.27 h -54.7 v 248.88"
           style="fill:#181818;fill-opacity:1;fill-rule:nonzero;stroke:none"
           id="path54" /></g></g></g></svg>
