<svg xmlns="http://www.w3.org/2000/svg" viewBox="0 0 128 128"><path d="M42.489 5.002c-.606.018-1.258.239-1.998.814-1.813-.689-3.57-.928-5.142.474-2.427-.31-3.216.33-3.814 1.077-.532-.011-3.986-.54-5.57 1.788-3.98-.464-5.239 2.306-3.814 4.889-.812 1.24-1.655 2.464.246 4.827-.672 1.317-.255 2.744 1.33 4.473-.419 1.85.403 3.155 1.877 4.173-.276 2.531 2.357 4.004 3.143 4.528.302 1.475.932 2.868 3.94 3.637.495 2.2 2.303 2.579 4.053 3.04-5.785 3.313-10.746 7.67-10.712 18.363l-.848 1.49c-6.633 3.973-12.601 16.743-3.269 27.123.61 3.25 1.632 5.583 2.542 8.166 1.362 10.409 10.247 15.282 12.59 15.859 3.435 2.576 7.092 5.02 12.042 6.733 4.665 4.74 9.72 6.546 14.803 6.544h.224c5.083.003 10.138-1.804 14.803-6.544 4.95-1.712 8.607-4.157 12.041-6.733 2.344-.577 11.229-5.45 12.59-15.86.91-2.582 1.933-4.915 2.543-8.165 9.332-10.38 3.364-23.152-3.27-27.126l-.848-1.488c.034-10.692-4.927-15.05-10.712-18.363 1.75-.461 3.558-.841 4.054-3.04 3.007-.77 3.636-2.162 3.938-3.637.787-.525 3.42-1.997 3.144-4.53 1.474-1.016 2.296-2.322 1.878-4.172 1.584-1.728 2-3.156 1.328-4.472 1.902-2.362 1.058-3.587.246-4.827 1.425-2.583.168-5.353-3.814-4.889-1.584-2.327-5.037-1.798-5.57-1.788-.598-.747-1.387-1.387-3.814-1.077-1.571-1.401-3.329-1.162-5.142-.473-2.152-1.673-3.577-.332-5.204.175-2.606-.84-3.202.31-4.482.778-2.842-.592-3.706.696-5.069 2.056l-1.585-.031c-4.286 2.488-6.416 7.555-7.17 10.16-.756-2.606-2.88-7.673-7.166-10.16l-1.585.03c-1.364-1.36-2.228-2.647-5.07-2.055-1.28-.468-1.875-1.617-4.483-.778-1.068-.333-2.05-1.025-3.206-.99l.002.001" fill="#050606"/><path d="M34.04 15.95c11.373 5.774 17.984 10.447 21.606 14.426-1.854 7.323-11.531 7.657-15.07 7.451.725-.332 1.33-.73 1.544-1.34-.888-.622-4.036-.066-6.234-1.283.844-.172 1.239-.34 1.634-.953-2.077-.653-4.313-1.215-5.629-2.296.71.01 1.373.157 2.3-.477-1.86-.987-3.845-1.769-5.386-3.278.96-.023 1.998-.01 2.3-.358-1.703-1.038-3.14-2.194-4.328-3.457 1.346.16 1.914.022 2.24-.21-1.288-1.297-2.916-2.393-3.693-3.993 1 .34 1.914.47 2.573-.03-.438-.972-2.311-1.545-3.39-3.815 1.052.1 2.168.226 2.391 0-.488-1.96-1.326-3.061-2.148-4.202 2.251-.033 5.662.008 5.508-.18l-1.392-1.4c2.199-.583 4.449.094 6.083.596.733-.57-.013-1.29-.908-2.027 1.869.246 3.557.67 5.083 1.252.816-.725-.529-1.45-1.18-2.176 2.888.54 4.111 1.298 5.326 2.057.883-.833.05-1.54-.544-2.265 2.177.794 3.298 1.82 4.479 2.831.4-.532 1.016-.922.272-2.206 1.545.878 2.71 1.912 3.57 3.07.957-.6.57-1.42.576-2.175 1.606 1.287 2.626 2.656 3.874 3.994.25-.18.47-.792.665-1.759 3.832 3.662 9.247 12.886 1.392 16.543-6.685-5.43-14.67-9.378-23.517-12.34h.002m60.239 0c-11.373 5.775-17.984 10.446-21.606 14.426 1.855 7.323 11.532 7.657 15.07 7.451-.725-.332-1.329-.73-1.543-1.34.888-.622 4.036-.066 6.234-1.283-.844-.172-1.24-.34-1.634-.953 2.076-.653 4.313-1.215 5.628-2.296-.71.01-1.373.157-2.3-.477 1.86-.987 3.845-1.769 5.387-3.278-.962-.023-1.998-.01-2.3-.358 1.703-1.038 3.139-2.194 4.328-3.457-1.346.16-1.914.022-2.24-.21 1.287-1.297 2.916-2.393 3.692-3.993-.999.34-1.913.47-2.572-.03.437-.972 2.31-1.545 3.39-3.815-1.053.1-2.168.226-2.392 0 .49-1.96 1.327-3.062 2.149-4.203-2.251-.033-5.662.008-5.508-.179l1.393-1.4c-2.2-.584-4.45.093-6.083.595-.734-.57.013-1.29.907-2.027-1.868.246-3.557.67-5.083 1.252-.816-.725.529-1.45 1.18-2.176-2.887.54-4.11 1.298-5.326 2.057-.882-.833-.05-1.54.544-2.265-2.177.794-3.298 1.82-4.478 2.831-.4-.532-1.017-.922-.273-2.206-1.545.878-2.71 1.912-3.57 3.07-.957-.6-.57-1.42-.576-2.175-1.606 1.287-2.626 2.657-3.873 3.994-.251-.18-.471-.792-.666-1.759-3.832 3.662-9.247 12.886-1.392 16.543 6.682-5.432 14.665-9.379 23.514-12.34h-.001" fill="#63c54d"/><path d="M77.913 90.52c.04 6.833-6.028 12.402-13.551 12.438-7.524.036-13.655-5.474-13.695-12.308v-.13c-.04-6.834 6.027-12.403 13.551-12.439 7.524-.036 13.655 5.474 13.695 12.308v.13M56.672 55.173c5.645 3.642 6.662 11.9 2.273 18.442-4.39 6.543-12.524 8.894-18.169 5.251-5.644-3.642-6.662-11.9-2.273-18.442 4.39-6.543 12.524-8.894 18.169-5.251m15.236-.66c-5.645 3.643-6.663 11.9-2.273 18.443 4.39 6.542 12.524 8.894 18.168 5.25 5.645-3.642 6.663-11.899 2.273-18.442-4.39-6.542-12.523-8.893-18.168-5.25m-43.099 6.652c6.094-1.609 2.057 24.835-2.901 22.665-5.455-4.321-7.212-16.977 2.9-22.665m70.43-.329c-6.095-1.609-2.058 24.835 2.901 22.666 5.455-4.322 7.211-16.978-2.901-22.666m-20.44-19.73c10.517-1.75 19.268 4.405 18.915 15.639-.346 4.306-22.79-14.998-18.915-15.64m-29.059-.329c-10.519-1.75-19.27 4.407-18.916 15.64.346 4.306 22.79-14.999 18.916-15.64m14.489-2.62c-6.277-.16-12.301 4.59-12.316 7.344-.017 3.348 4.963 6.775 12.36 6.862 7.552.053 12.371-2.743 12.396-6.198.027-3.914-6.87-8.068-12.44-8.008m.485 68.645c5.473-.236 12.817 1.736 12.831 4.351.091 2.54-6.66 8.278-13.194 8.168-6.767.287-13.402-5.46-13.315-7.452-.101-2.921 8.24-5.201 13.678-5.067M44.459 91.3c3.896 4.625 5.672 12.748 2.421 15.142-3.076 1.829-10.547 1.076-15.858-6.438-3.58-6.304-3.119-12.72-.604-14.605 3.76-2.256 9.57.791 14.04 5.901m39.232-1.465c-4.217 4.864-6.565 13.735-3.489 16.592 2.94 2.22 10.834 1.91 16.666-6.06 4.234-5.352 2.815-14.29.397-16.664-3.593-2.738-8.75.765-13.575 6.13v.002" fill="#c51850"/></svg>