<svg xmlns="http://www.w3.org/2000/svg" viewBox="0 0 128 128"><path fill="#c51850" d="M40.83.002c-.675.02-1.408.352-2.16.868-.942-.344-1.894-.614-2.854-.582-.967.033-1.928.393-2.808 1.117-1.204-.127-2.14-.084-2.81.166-.602.225-.949.605-1.272.967-.137-.01-.388-.034-.79-.048a9.987 9.987 0 0 0-1.721.08c-1.211.168-2.583.71-3.543 1.926-2.114-.178-3.688.434-4.46 1.599-.756 1.142-.668 2.663.028 4.095-.402.613-.854 1.263-.94 2.135-.09.904.273 1.954 1.192 3.175-.296.732-.379 1.515-.144 2.308.246.83.831 1.672 1.605 2.554-.177.992-.081 1.904.3 2.678.377.765 1.029 1.37 1.77 1.915-.102 2.823 2.62 4.44 3.453 4.983.176.759.41 1.549 1.04 2.242.659.724 1.702 1.307 3.228 1.733.336 1.116.976 1.906 1.777 2.374.575.335 1.215.469 1.84.645-2.809 1.688-5.458 3.634-7.424 6.483-2.15 3.116-3.49 7.246-3.496 12.994l-.812 1.428c-3.662 2.255-7.042 6.787-8.3 12.221-1.265 5.462-.32 11.833 4.711 17.504.669 3.48 1.762 6.012 2.721 8.73.767 5.684 3.573 9.878 6.508 12.712 2.877 2.778 5.766 4.22 7.24 4.62 3.68 2.759 7.647 5.395 12.971 7.256 5.08 5.12 10.643 7.122 16.2 7.12h.24c5.558.003 11.12-2 16.2-7.12 5.327-1.861 9.295-4.5 12.975-7.26 1.476-.402 4.361-1.842 7.236-4.616 2.933-2.831 5.733-7.02 6.504-12.696v-.002c.96-2.723 2.056-5.258 2.725-8.744 5.03-5.67 5.976-12.041 4.711-17.504-1.259-5.434-4.64-9.968-8.302-12.223l-.81-1.424c-.006-5.75-1.346-9.88-3.497-12.998-1.964-2.849-4.614-4.795-7.424-6.483.626-.176 1.264-.31 1.84-.645.8-.468 1.441-1.256 1.778-2.372 1.526-.427 2.57-1.01 3.227-1.733.63-.693.863-1.483 1.039-2.242.835-.544 3.555-2.162 3.455-4.985.742-.545 1.393-1.15 1.77-1.915.381-.774.477-1.686.3-2.678.773-.882 1.357-1.726 1.603-2.556.234-.794.153-1.576-.144-2.308.918-1.22 1.283-2.267 1.194-3.17-.086-.873-.54-1.525-.942-2.138.695-1.432.784-2.951.027-4.093-.771-1.165-2.344-1.777-4.459-1.6-.96-1.215-2.332-1.756-3.543-1.926a9.971 9.971 0 0 0-1.719-.079c-.403.014-.656.037-.792.046-.323-.362-.67-.742-1.272-.967-.67-.25-1.604-.291-2.808-.164C94.112.68 93.152.32 92.184.288c-.949-.032-1.89.238-2.822.574-1.156-.803-2.253-.97-3.184-.758-.963.22-1.762.692-2.533.948-1.349-.393-2.332-.344-3.07-.064-.752.286-1.242.69-1.806.913-1.488-.27-2.604-.099-3.46.384-.834.469-1.42 1.163-2.07 1.827l-1.652-.03-.12.069c-4.344 2.521-6.453 7.12-7.47 10.141-1.019-3.022-3.12-7.621-7.464-10.143l-.12-.068-1.653.031c-.651-.664-1.239-1.358-2.072-1.827-.857-.483-1.975-.656-3.465-.386-.562-.222-1.051-.625-1.803-.91-.735-.28-1.717-.33-3.063.061C43.335.71 42.242-.04 40.83.002Zm.028.99h.002c1.038-.03 2.036.653 3.29 1.043l.148.046.15-.048c1.33-.428 2.033-.34 2.62-.117.586.223 1.093.66 1.882.948l.133.05.138-.029c1.45-.301 2.285-.128 2.98.264.696.392 1.273 1.063 2.026 1.814l.149.15 1.746-.034c4.357 2.59 6.611 7.861 7.397 10.572l.477 1.645.477-1.645c.784-2.71 3.047-7.983 7.407-10.572l1.742.033.15-.15c.75-.75 1.327-1.42 2.023-1.811.695-.392 1.53-.567 2.98-.266l.138.03.134-.049c.788-.289 1.294-.727 1.881-.95.587-.223 1.291-.311 2.62.117l.15.048.149-.046c.955-.298 1.766-.784 2.552-.964.786-.179 1.534-.134 2.6.694l.218.173.262-.101c.944-.359 1.844-.584 2.672-.556.828.028 1.589.289 2.355.973l.168.15.225-.028c1.257-.161 2.038-.069 2.555.124.516.192.802.478 1.1.85l.151.192.245-.005c.215-.005.51-.042.947-.057a9.11 9.11 0 0 1 1.549.072c1.136.159 2.333.594 3.081 1.694l.169.248.298-.035c2.024-.236 3.204.338 3.764 1.182.56.845.551 2.079-.15 3.35l-.143.259.163.25c.439.67.818 1.26.884 1.922.065.662-.145 1.48-1.12 2.69l-.204.25.147.287c.31.606.367 1.185.163 1.874-.203.689-.694 1.484-1.515 2.38l-.175.192.056.252c.204.902.105 1.617-.209 2.254-.314.636-.863 1.204-1.61 1.719l-.245.166.033.295c.258 2.368-2.248 3.8-3.164 4.41l-.17.115-.042.2c-.155.757-.375 1.42-.909 2.007-.533.588-1.412 1.127-2.969 1.526l-.294.075-.066.297c-.24 1.063-.742 1.61-1.44 2.017-.698.407-1.613.632-2.564.882l-1.172.308 1.052.603c3.085 1.767 5.904 3.787 7.952 6.756 2.047 2.968 3.345 6.9 3.327 12.577v.132l1.043 1.83.11.067c3.426 2.052 6.765 6.464 7.977 11.698 1.212 5.234.35 11.268-4.57 16.74l-.093.105-.025.136c-.645 3.44-1.73 5.916-2.717 8.717l-.018.048-.008.052c-.716 5.475-3.404 9.482-6.232 12.212-2.828 2.73-5.858 4.172-6.946 4.44l-.099.025-.081.06c-3.682 2.762-7.564 5.355-12.826 7.174l-.108.037-.082.084c-4.939 5.019-10.226 6.9-15.579 6.897h-.24c-5.353.002-10.64-1.878-15.58-6.898l-.081-.083-.109-.037c-5.26-1.82-9.144-4.412-12.827-7.174l-.082-.06-.099-.025c-1.087-.268-4.116-1.713-6.943-4.442-2.828-2.73-5.517-6.736-6.233-12.21l-.006-.052-.017-.048c-.988-2.802-2.073-5.276-2.72-8.717l-.024-.136-.093-.105c-4.92-5.472-5.782-11.505-4.57-16.738 1.212-5.234 4.55-9.646 7.975-11.698l.112-.068 1.043-1.83v-.13c-.019-5.679 1.28-9.61 3.327-12.578 2.048-2.969 4.867-4.99 7.952-6.756l1.052-.601-1.172-.31c-.95-.25-1.864-.474-2.562-.882-.699-.408-1.203-.955-1.442-2.02l-.066-.296-.295-.075c-1.557-.398-2.434-.938-2.969-1.526-.534-.587-.755-1.25-.91-2.007l-.041-.202-.17-.112c-.915-.61-3.422-2.041-3.164-4.407l.031-.293-.242-.168c-.747-.516-1.298-1.085-1.612-1.722-.314-.636-.412-1.35-.207-2.253l.058-.252-.177-.192c-.821-.897-1.313-1.692-1.517-2.38-.204-.688-.148-1.267.163-1.874l.145-.287-.202-.25c-.974-1.211-1.185-2.028-1.12-2.69.066-.662.445-1.25.884-1.92l.165-.25-.146-.262c-.7-1.27-.708-2.504-.149-3.349.56-.845 1.74-1.42 3.764-1.184l.298.035.169-.248c.748-1.1 1.945-1.536 3.081-1.694a9.028 9.028 0 0 1 1.549-.07c.437.016.731.052.945.056l.245.006.153-.192c.298-.372.584-.657 1.1-.85.517-.193 1.3-.287 2.557-.126l.223.029.168-.151c.767-.685 1.53-.945 2.357-.973.827-.028 1.726.197 2.67.556l.262.1.219-.172c.73-.568 1.312-.754 1.853-.771l.006-.002zm47.917 1.634-1.703.622c-2.173.793-3.404 1.816-4.553 2.8-.078-.103-.206-.243-.236-.331-.068-.199-.086-.46.273-1.082l.919-1.585-1.593.905a12.77 12.77 0 0 0-3.556 2.97c-.069-.115-.231-.22-.24-.373-.02-.297.08-.712.075-1.205l-.01-1.024-.796.64C75.762 6.24 74.732 7.57 73.58 8.85c0-.003 0-.002-.002-.004a8.23 8.23 0 0 1-.314-1.188l-.178-.884-.651.622c-2.128 2.034-4.651 5.535-5.603 9.138-.475 1.8-.553 3.64.072 5.312.625 1.67 1.963 3.137 4.169 4.164l.28.132.241-.196c5.396-4.386 11.6-7.869 18.405-10.68-8.378 4.678-13.826 8.685-17.033 12.21l-.18.195.066.26c1.048 4.139 4.34 6.323 7.763 7.4 3.424 1.075 7.022 1.103 8.967.99l.179-.946c-.484-.221-.664-.495-.915-.756.098-.019.109-.042.225-.056.461-.056 1.048-.084 1.688-.134 1.28-.1 2.786-.273 4.085-.992l1.178-.651-1.32-.27c-.438-.089-.722-.172-.92-.28-.01-.006-.014-.02-.023-.026 1.996-.603 4.074-1.182 5.459-2.32l1.093-.899-1.417.02c-.491.006-.88.011-1.283-.066 1.706-.853 3.484-1.682 4.96-3.126l.84-.822-1.176-.027c-.524-.013-1.053-.018-1.463-.06-.01-.001-.006-.003-.015-.004 1.498-.995 2.906-2.032 4.013-3.208l.935-.992-1.355.161c-.84.1-.927-.023-1.239-.083 1.208-1.091 2.548-2.174 3.305-3.733l.52-1.068-1.125.382c-.512.174-.985.285-1.376.297-.135.004-.21-.07-.324-.088.261-.268.477-.505.973-.918.73-.609 1.593-1.437 2.215-2.744l.376-.791-.87.083c-.57.054-1.149.114-1.593.13-.11.004-.172-.004-.261-.006.512-1.666 1.239-2.753 2.04-3.864l.557-.772-.952-.015c-1.218-.018-2.741-.014-3.934-.033-.385-.006-.644-.02-.936-.031l1.39-1.4-.83-.22c-2.409-.64-4.754.033-6.494.566-.003-.026.003-.09.077-.213.153-.254.563-.642 1.035-1.031l1.335-1.101-1.715.226c-1.89.25-3.58.704-5.159 1.272a.752.752 0 0 1 .17-.277c.278-.319.813-.71 1.222-1.165l.977-1.09-1.436.27c-2.875.537-4.269 1.307-5.49 2.056-.011-.026-.06-.074-.065-.097-.016-.087-.003-.175.06-.312.127-.273.48-.653.822-1.07zm-49.207.002 1.15 1.403c.343.416.698.796.825 1.07.063.136.074.224.058.312-.004.022-.054.07-.064.096-1.221-.748-2.615-1.52-5.49-2.058l-1.437-.267.975 1.087c.409.456.946.846 1.223 1.165.12.138.155.228.17.277A24.613 24.613 0 0 0 31.82 4.44l-1.717-.227 1.337 1.103c.473.39.884.776 1.037 1.03.074.124.08.188.077.214-1.743-.533-4.089-1.204-6.496-.566l-.831.219 1.391 1.401c-.292.011-.551.025-.936.031-1.193.018-2.716.016-3.934.033l-.952.014.557.77c.8 1.114 1.527 2.201 2.038 3.867-.088.002-.15.01-.257.006-.444-.016-1.024-.076-1.593-.13l-.87-.083.375.789c.622 1.307 1.482 2.137 2.212 2.746.495.413.712.65.973.918-.114.018-.188.092-.322.088-.39-.012-.864-.123-1.376-.297l-1.124-.382.517 1.068c.757 1.56 2.1 2.642 3.308 3.733-.31.06-.398.183-1.238.083l-1.355-.16.934.991c1.107 1.176 2.515 2.213 4.014 3.208-.01.001-.006.003-.017.004-.411.042-.942.047-1.466.06l-1.174.027.84.822c1.474 1.444 3.252 2.274 4.957 3.126-.403.077-.793.072-1.283.066l-1.415-.018 1.095.897c1.386 1.138 3.462 1.717 5.46 2.32-.01.005-.015.02-.024.025-.197.109-.48.192-.919.281l-1.32.27 1.179.65c1.298.72 2.806.894 4.085.993.64.05 1.225.079 1.686.134.116.014.127.037.225.056-.25.26-.431.535-.915.756l.177.946c1.946.113 5.545.085 8.969-.99 3.423-1.077 6.714-3.261 7.761-7.4l.066-.26-.178-.197c-3.205-3.521-8.647-7.524-17.014-12.196 6.795 2.81 12.994 6.288 18.386 10.669l.24.195.281-.132c2.206-1.026 3.544-2.493 4.169-4.164.625-1.672.545-3.511.07-5.312-.952-3.603-3.475-7.104-5.603-9.138l-.651-.622-.179.884a8.226 8.226 0 0 1-.315 1.188c-.001.001-.002 0-.002.002-1.15-1.28-2.179-2.61-3.772-3.886l-.798-.64-.008 1.024c-.003.492.095.91.076 1.207-.01.154-.172.258-.24.372a12.775 12.775 0 0 0-3.559-2.969l-1.593-.905.919 1.585c.36.62.345.884.277 1.082-.03.087-.159.227-.236.33-1.15-.984-2.38-2.007-4.553-2.8ZM90.713 4.93c-.16.203-.321.411-.356.707-.043.357.131.746.432 1.014l.227.201.28-.108c1.117-.426 2.439-.66 3.733-.919-.002.004-.007.006-.01.01-.146.243-.253.532-.215.85.039.32.236.613.506.822l.204.157.246-.075c1.483-.457 3.379-.86 5.256-.667l-.721.725-.016.017c-.076.092-.152.328-.087.506.065.179.17.238.23.274.122.071.18.075.249.089.135.027.283.04.472.054.379.026.9.039 1.504.048.927.015 2.009.02 3.022.028-.719 1.025-1.432 2.151-1.872 3.916l-.068.27.195.2c.222.223.43.234.638.259.209.025.436.026.686.017.154-.005.342-.028.51-.04-.428.589-.85 1.226-1.308 1.608-.687.572-1.371.976-1.7 1.708l-.16.36.313.238c.46.349 1.014.472 1.562.456.094-.003.192-.05.287-.06-.864 1.088-2.002 2.076-3.107 3.19l-.41.414.476.34c.284.201.706.308 1.248.35-1.045.968-2.098 1.933-3.467 2.768l-.502.306.386.444c.349.4.808.44 1.295.49.03.003.065.001.096.004-1.391 1.016-2.962 1.802-4.573 2.657l-.725.384.678.463c.393.268.733.327 1.08.415-1.3.631-2.873 1.166-4.531 1.688l-.62.193.352.547c.178.276.41.45.642.628-.796.223-1.58.501-2.388.564-.622.048-1.212.077-1.729.14-.516.061-.962.132-1.343.399l-.308.217.124.354c.11.315.34.533.557.76-1.956.011-4.491-.116-7.068-.926-3.156-.992-5.975-2.885-6.995-6.448 3.867-4.164 10.868-9.108 22.888-15.211l-.382-.913c-9.436 3.158-17.968 7.373-25.159 13.147-1.844-.924-2.927-2.105-3.434-3.46-.531-1.42-.48-3.045-.04-4.71.798-3.023 2.885-5.995 4.757-7.97.035.115.062.276.1.377.133.359.261.646.557.858l.355.254.296-.32c1.078-1.155 2.096-2.262 3.249-3.353a1.9 1.9 0 0 0 .914 1.475l.388.244.273-.368c.69-.929 1.645-1.757 2.768-2.523.002.176-.159.424-.107.576.172.5.505.786.682 1.02l.318.423.401-.343a17.651 17.651 0 0 1 3.116-2.168c-.056.2-.133.398-.09.624.062.331.255.643.546.918l.277.264.326-.204c.97-.606 2.139-1.154 3.794-1.643zm-53.083.002c1.656.49 2.825 1.037 3.796 1.643l.324.204.279-.264c.291-.275.484-.587.547-.918.042-.227-.035-.423-.092-.624a17.648 17.648 0 0 1 3.117 2.166l.4.343.319-.422c.177-.235.51-.521.68-1.022.051-.15-.109-.396-.107-.571 1.122.766 2.076 1.593 2.766 2.521l.273.368.39-.242c.618-.387.877-.974.914-1.479 1.153 1.09 2.17 2.197 3.248 3.353l.299.32.355-.256c.294-.213.42-.497.554-.857.037-.1.066-.261.1-.375 1.873 1.974 3.96 4.946 4.758 7.969.44 1.665.49 3.29-.04 4.71-.507 1.354-1.588 2.536-3.433 3.46-7.193-5.772-15.73-9.988-25.164-13.147l-.382.913c12.02 6.101 19.025 11.047 22.893 15.21-1.018 3.564-3.838 5.456-6.994 6.449-2.577.81-5.112.937-7.068.926.218-.227.446-.445.557-.76l.124-.354-.309-.218c-.38-.266-.828-.337-1.345-.399-.516-.062-1.104-.091-1.726-.14-.808-.062-1.592-.34-2.388-.563.231-.178.464-.353.642-.628l.35-.547-.62-.193c-1.66-.522-3.234-1.056-4.533-1.688.347-.088.688-.147 1.082-.415l.678-.463-.725-.384c-1.61-.854-3.179-1.64-4.57-2.655.03-.003.064-.001.093-.004.488-.05.95-.09 1.299-.492l.384-.444-.5-.306c-1.37-.835-2.422-1.8-3.468-2.768.543-.043.965-.149 1.249-.35l.476-.34-.412-.414c-1.106-1.114-2.243-2.102-3.107-3.19.095.01.193.057.287.06.547.016 1.102-.107 1.562-.456l.314-.238-.163-.36c-.33-.732-1.014-1.136-1.7-1.708-.458-.382-.877-1.02-1.304-1.608.167.012.354.035.508.04.25.01.477.008.686-.017.208-.025.416-.037.637-.262l.196-.197-.068-.27c-.44-1.764-1.154-2.89-1.872-3.916 1.012-.008 2.095-.011 3.022-.026a30.424 30.424 0 0 0 1.503-.05 3.75 3.75 0 0 0 .473-.054c.068-.014.125-.018.246-.09.061-.035.168-.093.233-.27.066-.178-.012-.414-.087-.507l-.014-.017-.723-.727c1.876-.191 3.772.21 5.258.667l.246.075.206-.156c.269-.21.464-.503.502-.822.038-.319-.07-.608-.216-.851-.002-.004-.007-.006-.01-.01 1.295.26 2.616.496 3.733.92l.281.107.225-.2c.301-.266.477-.658.434-1.015-.035-.295-.199-.503-.358-.705Zm26.61 30.754-.49.006v.073c-3.319.043-6.518 1.19-8.932 2.781-1.271.839-2.33 1.778-3.087 2.723-.757.946-1.232 1.897-1.237 2.818-.01 2.049 1.475 3.999 3.901 5.438 2.426 1.44 5.836 2.398 9.892 2.446h.002c4.126.029 7.528-.714 9.944-1.977 2.415-1.262 3.884-3.099 3.899-5.188.016-2.399-1.99-4.652-4.669-6.337-2.674-1.682-6.085-2.81-9.203-2.781h-.004l-.016-.002zm-.007.994h.036c2.869-.027 6.148 1.044 8.667 2.628 2.524 1.587 4.216 3.676 4.204 5.49-.012 1.63-1.15 3.158-3.367 4.316-2.216 1.158-5.473 1.892-9.475 1.865-3.905-.047-7.157-.978-9.397-2.307s-3.423-3.024-3.415-4.58c.003-.56.343-1.36 1.018-2.203.674-.842 1.664-1.726 2.86-2.515 2.394-1.579 5.62-2.777 8.869-2.694zM44.5 38.194c-4.802.087-9.073 1.774-12.097 4.817-3.023 3.044-4.78 7.439-4.61 12.843v.012l.002.012c.032.404.251.8.6.982.35.182.733.177 1.136.103.807-.148 1.783-.606 2.932-1.273 2.299-1.334 5.232-3.53 8.03-5.894 2.797-2.363 5.449-4.888 7.164-6.897.858-1.004 1.484-1.864 1.789-2.591.152-.364.247-.71.145-1.081-.102-.372-.48-.649-.858-.712h-.002a23.215 23.215 0 0 0-4.231-.321Zm39.576.356c-1.224-.02-2.441.102-3.652.275v-.052l-.577.095c-.379.063-.756.34-.859.711-.102.372-.007.718.146 1.082.305.727.93 1.588 1.787 2.593 1.715 2.009 4.365 4.533 7.162 6.897 2.798 2.364 5.731 4.558 8.03 5.891 1.149.667 2.125 1.126 2.932 1.274.403.074.786.08 1.135-.101.35-.182.569-.579.601-.983l.002-.013v-.012c.17-5.405-1.587-9.798-4.61-12.84-3.024-3.044-7.295-4.729-12.095-4.817zm-39.56.636h.001a22.231 22.231 0 0 1 4.05.308h.003c.143.024.062-.01.064-.004.002.006.005.173-.105.434-.22.523-.8 1.363-1.626 2.332-1.653 1.936-4.283 4.444-7.05 6.783-2.767 2.338-5.682 4.512-7.888 5.792-1.103.64-2.043 1.05-2.612 1.155-.285.052-.455.017-.498-.006-.042-.021-.055-.022-.068-.174-.158-5.166 1.5-9.256 4.32-12.095 2.823-2.842 6.828-4.441 11.409-4.525zm39.544.356c4.58.084 8.584 1.682 11.407 4.524 2.82 2.839 4.482 6.927 4.324 12.095-.014.153-.028.15-.07.172-.044.023-.213.058-.498.006-.57-.104-1.51-.515-2.612-1.155-2.206-1.28-5.12-3.453-7.886-5.79-2.767-2.339-5.397-4.85-7.05-6.786-.827-.968-1.407-1.808-1.627-2.331-.105-.251-.102-.398-.1-.417l.064-.011a22.19 22.19 0 0 1 4.048-.307zm-5.279 11.906c-2.302.025-4.556.645-6.537 1.924-6.34 4.092-7.444 13.312-2.59 20.545 4.852 7.23 13.897 9.882 20.236 5.79 6.34-4.09 7.441-13.31 2.589-20.542-3.335-4.972-8.63-7.773-13.696-7.717zm-28.938.71c-5.065-.055-10.362 2.743-13.698 7.716-4.851 7.232-3.751 16.454 2.587 20.544 6.341 4.091 15.386 1.44 20.239-5.792 4.851-7.232 3.75-16.452-2.59-20.543-1.98-1.278-4.236-1.898-6.538-1.924zm28.95.282c4.69-.052 9.702 2.566 12.862 7.277 4.598 6.853 3.508 15.407-2.304 19.157-5.81 3.75-14.277 1.34-18.874-5.512-4.599-6.853-3.508-15.404 2.304-19.155 1.816-1.172 3.88-1.743 6.012-1.767zm-28.962.711c2.132.024 4.195.593 6.012 1.766 5.811 3.75 6.901 12.304 2.304 19.157-4.597 6.852-13.063 9.26-18.876 5.51-5.81-3.75-6.899-12.304-2.302-19.156 3.161-4.711 8.172-7.329 12.862-7.277Zm51.504 6.874c-.906.015-1.64.595-2.112 1.42-.473.826-.758 1.917-.924 3.192-.334 2.552-.171 5.85.33 9.08.503 3.23 1.34 6.38 2.41 8.634.535 1.126 1.122 2.033 1.812 2.622s1.578.834 2.4.475l.057-.026.05-.038c3.101-2.456 5.07-7.155 4.911-12.053-.158-4.897-2.507-10.022-8.096-13.166l-.055-.031-.06-.016a2.648 2.648 0 0 0-.719-.093h-.002zm-74.624.353a2.64 2.64 0 0 0-.719.093l-.06.015-.054.031c-5.59 3.144-7.937 8.268-8.095 13.165-.159 4.897 1.809 9.595 4.909 12.05l.05.041.058.025c.822.36 1.71.114 2.4-.474.689-.59 1.275-1.496 1.81-2.623 1.07-2.252 1.908-5.402 2.41-8.631.503-3.23.665-6.528.332-9.08-.167-1.275-.452-2.366-.925-3.192-.472-.825-1.206-1.405-2.112-1.42h-.002zm74.642.64c.13-.002.259.02.385.05 5.25 2.98 7.39 7.704 7.54 12.294.147 4.565-1.736 8.95-4.466 11.167-.452.183-.823.113-1.318-.31-.51-.436-1.057-1.24-1.558-2.295-1.001-2.109-1.836-5.2-2.327-8.36-.492-3.16-.642-6.397-.328-8.797.157-1.2.435-2.189.802-2.83.367-.64.75-.911 1.27-.92zM26.7 61.37c.519.009.9.282 1.267.922.367.641.645 1.628.802 2.828.314 2.4.162 5.637-.33 8.797-.49 3.159-1.324 6.25-2.325 8.358-.5 1.054-1.048 1.86-1.558 2.295-.495.422-.865.493-1.318.31-2.73-2.216-4.613-6.6-4.465-11.165.149-4.59 2.289-9.315 7.539-12.295.127-.03.257-.05.388-.05zm37.533 17.289c-8.342.04-15.124 6.24-15.08 13.89v.139c.045 7.651 6.896 13.781 15.238 13.74 8.341-.04 15.124-6.234 15.08-13.883V92.4c-.044-7.65-6.894-13.781-15.235-13.742h-.004zm.002.992h.004c7.855-.038 14.199 5.695 14.24 12.756v.141c.042 7.06-6.239 12.85-14.093 12.888-7.855.039-14.197-5.691-14.24-12.752v-.142c-.042-7.059 6.235-12.851 14.089-12.89zM96.6 83.688c-3.733.097-7.849 3.417-11.777 7.785l-.128.141v.058c-2.269 2.683-4.02 6.328-4.808 9.766-.804 3.508-.676 6.838 1.213 8.593l.017.017.022.016c1.761 1.33 4.805 1.821 8.224.934 3.416-.886 7.204-3.184 10.402-7.546 2.378-3.007 3.147-6.967 3.005-10.499-.14-3.531-1.13-6.637-2.62-8.098l-.021-.022-.023-.017a5.398 5.398 0 0 0-3.502-1.128Zm.029.992h.006a4.409 4.409 0 0 1 2.831.903c1.11 1.104 2.179 4.066 2.312 7.411.134 3.357-.612 7.09-2.79 9.843l-.006.006-.006.008c-3.078 4.206-6.671 6.36-9.86 7.188-3.179.825-5.952.292-7.36-.76-1.402-1.33-1.665-4.293-.902-7.62.766-3.343 2.512-6.986 4.713-9.525l.013-.016c3.856-4.282 7.916-7.358 11.049-7.438zm-65.36 1.05c-1.311-.054-2.568.215-3.671.876l-.022.012-.02.016c-1.559 1.167-2.354 3.553-2.334 6.476.02 2.924.883 6.423 2.85 9.886l.012.021.014.02c2.917 4.127 6.45 6.424 9.696 7.424 3.246 1 6.2.735 8.033-.354l.02-.012.02-.016c1-.736 1.587-1.893 1.851-3.236.264-1.343.215-2.887-.076-4.498-.581-3.221-2.131-6.711-4.296-9.281l-.008-.008-.141-.168h-.027c-3.49-3.93-7.669-6.697-11.427-7.059v-.08zm-.051.993h.008c3.45.144 7.812 2.926 11.364 6.986 2.026 2.408 3.528 5.776 4.076 8.812.274 1.52.31 2.953.08 4.13-.23 1.165-.713 2.055-1.45 2.609-1.483.87-4.19 1.184-7.21.254-3.024-.933-6.362-3.081-9.157-7.024-1.88-3.316-2.697-6.657-2.715-9.385-.018-2.718.782-4.784 1.92-5.654.914-.541 1.946-.775 3.084-.728zm33.527 22.85v.003c-2.996-.07-6.718.51-9.732 1.515-1.513.505-2.846 1.113-3.83 1.832-.978.713-1.654 1.583-1.628 2.598-.026.814.493 1.619 1.293 2.53.807.918 1.947 1.906 3.322 2.815 2.748 1.819 6.435 3.33 10.222 3.17h.004c3.655.054 7.296-1.502 10.04-3.414 1.374-.959 2.523-2.007 3.338-3.015.813-1.006 1.328-1.958 1.299-2.865-.008-.932-.645-1.714-1.545-2.35-.902-.638-2.114-1.172-3.504-1.607-2.77-.868-6.237-1.334-9.244-1.21v-.001h-.013v.002l-.022-.002zm.03.386.013.605c2.876-.124 6.29.339 8.94 1.169 1.325.415 2.46.925 3.228 1.469.77.543 1.124 1.08 1.126 1.552v.014c.017.457-.34 1.3-1.08 2.215-.739.915-1.826 1.913-3.135 2.826-2.617 1.824-6.116 3.295-9.484 3.238l-.014-.002-.015.002c-3.495.148-7.018-1.276-9.636-3.008-1.31-.866-2.393-1.809-3.126-2.643-.733-.835-1.063-1.6-1.052-1.851l.002-.02v-.019c-.02-.548.375-1.16 1.226-1.78.852-.622 2.109-1.209 3.559-1.693 2.9-.967 6.577-1.537 9.428-1.467l.004-.35.008.35z"/></svg>
