<?xml version="1.0" encoding="UTF-8" standalone="no"?>
<svg
   xmlns:dc="http://purl.org/dc/elements/1.1/"
   xmlns:cc="http://creativecommons.org/ns#"
   xmlns:rdf="http://www.w3.org/1999/02/22-rdf-syntax-ns#"
   xmlns:svg="http://www.w3.org/2000/svg"
   xmlns="http://www.w3.org/2000/svg"
   xmlns:sodipodi="http://sodipodi.sourceforge.net/DTD/sodipodi-0.dtd"
   xmlns:inkscape="http://www.inkscape.org/namespaces/inkscape"
   width="128px"
   height="128px"
   viewBox="0 0 128 128"
   version="1.1"
   id="svg108"
   sodipodi:docname="raspberrypi-original-wordmark.svg"
   inkscape:version="1.0.1 (1.0.1+r74)">
  <metadata
     id="metadata114">
    <rdf:RDF>
      <cc:Work
         rdf:about="">
        <dc:format>image/svg+xml</dc:format>
        <dc:type
           rdf:resource="http://purl.org/dc/dcmitype/StillImage" />
        <dc:title></dc:title>
      </cc:Work>
    </rdf:RDF>
  </metadata>
  <defs
     id="defs112" />
  <sodipodi:namedview
     pagecolor="#ffffff"
     bordercolor="#666666"
     borderopacity="1"
     objecttolerance="10"
     gridtolerance="10"
     guidetolerance="10"
     inkscape:pageopacity="0"
     inkscape:pageshadow="2"
     inkscape:window-width="2504"
     inkscape:window-height="1376"
     id="namedview110"
     showgrid="false"
     inkscape:zoom="7.875"
     inkscape:cx="64"
     inkscape:cy="64"
     inkscape:window-x="56"
     inkscape:window-y="27"
     inkscape:window-maximized="1"
     inkscape:current-layer="svg108" />
  <path
     fill-rule="evenodd"
     clip-rule="evenodd"
     fill="#040404"
     d="m 74.767,92.903 c -1.246,1.37 -2.756,2.326 -4.509,2.906 -1.843,-0.413 -3.676,-1.412 -5.536,-0.03 -0.269,0.197 -0.611,0.093 -0.87,-0.057 -1.453,-0.841 -2.903,0.28 -4.361,-0.009 -0.292,-0.056 -0.099,0.405 -0.284,0.545 -1.891,-0.377 -3.487,-1.305 -4.883,-2.607 0.166,-0.331 0.765,-0.247 0.753,-0.694 -0.011,-0.548 -0.5,-0.681 -0.912,-0.696 -0.68,-0.03 -1.269,-0.371 -1.917,-0.48 -0.995,-0.449 -1.988,-0.901 -2.982,-1.349 -0.346,-0.809 0.019,-0.975 0.75,-0.857 0.818,0.13 1.641,-0.003 2.22,-0.573 0.731,-0.721 0.627,-1.694 0.291,-2.563 -0.325,-0.837 -1.089,-0.597 -1.739,-0.471 -1.621,0.316 -3.237,0.473 -4.887,0.156 -0.99,-0.191 -1.879,0.434 -2.843,0.533 -0.853,-0.547 -1.92,-0.701 -2.661,-1.456 0.204,-1.866 -0.992,-1.605 -2.145,-1.41 -3.269,-2.399 -4.842,-5.771 -5.948,-9.585 -0.988,-3.41 -1.802,-6.878 -3.839,-9.982 -4.111,-6.273 -2.641,-14.573 3.18,-19.316 1.247,-1.016 1.763,-2.143 1.818,-3.749 0.181,-5.232 2.501,-9.356 6.814,-12.34 0.491,-0.341 1.01,-0.644 1.788,-1.135 -2.582,-0.449 -4.16,-2.339 -5.427,-3.837 -1.326,-1.567 -3.027,-3.03 -3.921,-5.24 -0.656,-1.618 -1.5,-3.412 -2.021,-5.052 C 30.133,11.786 28.851,9.759 30.041,7.698 30.372,7.127 29.943,6.783 29.86,6.337 29.598,4.924 30.127,3.783 31.456,3.421 c 3.076,-0.839 6.131,-1.8 9.184,-2.678 2.049,-0.59 4.029,-0.232 6.021,-0.673 1.523,-0.338 3.236,0.603 4.941,0.596 2.723,-0.012 4.909,1.676 7.256,2.702 2.156,0.939 3.289,3.197 4.348,5.282 0.41,0.808 0.685,1.682 1.128,2.784 0.933,-2.106 1.656,-4.089 3.011,-5.716 1.05,-1.261 1.948,-2.725 3.903,-2.684 0.212,0.005 0.471,-0.166 0.629,-0.329 2.018,-2.034 4.645,-1.935 7.198,-2.038 0.773,-0.031 1.412,-0.789 2.055,-0.615 2.1,0.566 4.238,-0.14 6.401,0.55 1.596,0.507 3.231,1.338 5.04,1.212 0.745,-0.053 1.5,0.195 2.034,0.701 0.573,0.546 1.132,0.773 1.934,0.75 1.084,-0.032 2.23,0.663 2.17,1.589 -0.129,1.925 0.523,3.764 0.142,5.752 -0.37,1.937 -1.394,3.63 -1.603,5.591 -0.152,1.392 -1.188,2.625 -1.895,3.57 -1.319,1.764 -2.328,3.922 -4.418,5.123 -1.629,0.934 -2.572,2.947 -5.264,2.821 1.26,0.936 2.11,1.491 2.875,2.151 3.362,2.899 5.22,6.588 5.464,11.013 0.087,1.524 0.6,2.572 1.815,3.556 6.434,5.202 7.482,13.743 2.7,20.495 -1.438,2.032 -1.924,4.479 -2.055,6.91 -0.373,6.997 -5.504,13.433 -11.9,14.747 -1.91,0.874 -3.726,0.615 -5.662,-0.136 -1.528,-0.596 -1.908,-0.13 -1.967,1.522 -0.034,1.022 0.296,2.053 -0.039,3.07 -0.492,0.39 -0.979,0.776 -1.471,1.163 -0.527,-0.056 -0.846,0.086 -0.664,0.701 z"
     id="path2" />
  <path
     id="path4"
     d="M 6.2382812 107.17188 C 5.4154063 107.17588 4.5910313 107.22711 3.7695312 107.22461 C 2.7485313 107.22461 2.2827344 107.85216 2.3027344 108.91016 C 2.3417344 111.05216 2.3144531 113.18808 2.3144531 115.33008 C 2.3144531 117.53008 2.3427812 119.73164 2.3007812 121.93164 C 2.2827812 122.88164 2.6190781 123.58083 3.5800781 123.54883 C 4.4850781 123.51383 4.9159531 122.85558 4.8769531 121.89258 C 4.8289531 120.67158 4.8582344 119.44761 4.8652344 118.22461 C 4.8682344 117.81161 4.804625 117.4167 5.390625 117.2207 C 7.484625 116.5217 9.58875 117.86447 9.84375 120.10547 C 9.95375 121.07247 10.008766 122.07431 10.759766 122.82031 C 11.404766 123.45931 12.180344 123.5972 12.902344 123.0332 C 13.598344 122.4932 13.639938 121.76925 12.960938 121.15625 C 12.475938 120.71825 12.543234 120.18448 12.490234 119.64648 C 12.400234 118.73548 12.394562 117.73855 11.726562 117.06055 C 10.991563 116.31455 11.211719 115.87833 11.761719 115.11133 C 13.891719 112.14433 12.280172 108.20948 8.7011719 107.39648 C 7.8831719 107.20998 7.0611562 107.16787 6.2382812 107.17188 z M 5.9570312 109.81641 C 6.1665664 109.79693 6.412125 109.8007 6.703125 109.83008 C 8.978125 110.06008 10.036344 110.6272 10.027344 112.2832 C 10.020344 113.9242 9.0155312 114.42516 6.6445312 114.66016 C 4.4515312 114.87416 4.8530469 113.5442 4.8730469 112.2832 C 4.8607969 111.19645 4.4902852 109.95273 5.9570312 109.81641 z " />
  <path
     id="path6"
     d="M 54.662109 107.27539 C 53.822109 107.28039 53.351562 107.86733 53.351562 108.73633 C 53.346562 113.19533 53.317141 117.65433 53.369141 122.11133 C 53.383141 123.39533 54.243891 123.95725 55.337891 123.28125 C 56.052891 122.83825 56.462187 122.99547 57.117188 123.23047 C 59.373188 124.04847 61.765906 123.41923 63.253906 121.61523 C 64.813906 119.72023 65.271109 117.62855 64.162109 115.31055 C 62.702109 112.25955 60.342797 111.42645 55.966797 112.56445 C 55.966797 111.26245 55.969797 109.99452 55.966797 108.72852 C 55.963797 107.85552 55.504109 107.27339 54.662109 107.27539 z M 59.169922 114.54492 C 60.855922 114.60092 62.247844 116.09741 62.214844 117.81641 C 62.181844 119.52641 60.709875 121.009 59.046875 121 C 57.276875 120.991 55.910375 119.47761 55.984375 117.59961 C 56.055375 115.78461 57.411922 114.48492 59.169922 114.54492 z " />
  <path
     id="path8"
     d="M 44.820312 111.95117 C 44.208937 111.96511 43.574531 112.0745 42.925781 112.28125 C 42.376781 112.45325 41.960531 112.72678 41.269531 112.30078 C 40.003531 111.52478 39.256609 112.06472 39.224609 113.63672 C 39.184609 115.71572 39.214844 117.79114 39.214844 119.86914 C 39.217844 121.82614 39.223797 123.77933 39.216797 125.73633 C 39.215797 126.73333 39.143453 127.96586 40.439453 128.00586 C 41.751453 128.04486 41.755422 126.83627 41.732422 125.82227 C 41.719422 125.33627 41.754656 124.84342 41.722656 124.35742 C 41.656656 123.29942 41.586906 122.65214 43.128906 123.24414 C 45.532906 124.16514 48.206406 123.0832 49.566406 121.0332 C 50.876406 119.0592 50.819594 116.20069 49.433594 114.30469 C 48.277844 112.72144 46.654438 111.90936 44.820312 111.95117 z M 44.765625 114.54492 C 46.616625 114.49792 47.909063 115.82053 47.914062 117.76953 C 47.918062 119.65253 46.513203 121.14189 44.783203 121.08789 C 43.197203 121.03889 41.736516 119.45806 41.728516 117.78906 C 41.721516 116.06006 43.104625 114.58692 44.765625 114.54492 z " />
  <path
     fill-rule="evenodd"
     clip-rule="evenodd"
     fill="#09090a"
     d="m 104.149,123.352 c -0.913,0.065 -1.567,0.156 -2.218,0.149 -2.234,-0.023 -4.147,-1.548 -4.544,-3.764 -0.387,-2.174 -0.114,-4.388 -0.128,-6.583 -0.005,-0.685 0.454,-1.169 1.153,-1.19 0.792,-0.025 1.266,0.469 1.284,1.249 0.042,1.647 0.007,3.3 0.027,4.947 0.019,1.811 0.893,2.84 2.368,2.843 1.463,0 2.344,-1.03 2.379,-2.853 0.025,-1.526 0.002,-3.053 0.002,-4.581 0,-0.885 0.235,-1.654 1.291,-1.605 0.883,0.04 1.202,0.671 1.197,1.533 -0.022,2.992 0.077,5.991 -0.046,8.979 -0.151,3.651 -4.125,6.069 -7.466,4.674 -0.741,-0.308 -1.375,-0.711 -1.104,-1.605 0.261,-0.874 0.962,-0.92 1.782,-0.762 2.255,0.433 2.537,0.319 4.023,-1.431 z"
     id="path10"
     style="fill:#000000;fill-opacity:1" />
  <path
     id="path12"
     d="M 115.07031 107.17188 C 114.21669 107.17212 113.36172 107.22466 112.51172 107.22266 C 111.39672 107.21766 110.92622 107.89934 110.94922 109.02734 C 110.99322 111.16934 110.96094 113.31027 110.96094 115.44727 C 110.96094 117.64927 110.98122 119.85273 110.94922 122.05273 C 110.93722 122.94973 111.3415 123.51692 112.1875 123.54492 C 113.0295 123.57492 113.52506 123.03839 113.53906 122.15039 C 113.54606 121.78339 113.53787 121.41683 113.54688 121.04883 C 113.56588 119.89183 113.2077 118.50681 113.7207 117.63281 C 114.3307 116.58981 115.84408 117.35603 116.95508 117.20703 C 119.32208 116.89203 121.19714 115.07625 121.36914 112.78125 C 121.56514 110.18725 120.04514 108.03459 117.61914 107.43359 C 116.77464 107.22259 115.92394 107.17163 115.07031 107.17188 z M 115.01953 109.81055 C 115.22465 109.8054 115.452 109.81517 115.70312 109.8418 C 117.62713 110.0418 118.74506 110.71708 118.78906 112.20508 C 118.83806 113.81508 117.65705 114.44539 115.24805 114.65039 C 112.98105 114.84239 113.59311 113.37916 113.53711 111.91016 C 113.24136 110.64053 113.58372 109.84656 115.01953 109.81055 z " />
  <path
     id="path14"
     d="M 24.628906 111.95703 C 24.316291 111.92078 23.931016 112.04842 23.494141 112.35742 C 22.860141 112.80542 22.539828 112.53156 22.048828 112.35156 C 19.551828 111.44556 17.173156 112.10647 15.660156 114.10547 C 14.051156 116.23447 14.04925 119.33089 15.65625 121.46289 C 17.07825 123.35189 19.699031 124.06216 22.082031 123.16016 C 22.588031 122.97016 22.884859 122.73392 23.505859 123.16992 C 24.625859 123.95692 25.457672 123.43606 25.513672 122.03906 C 25.569672 120.63406 25.524438 119.22727 25.523438 117.82227 C 25.522437 116.35427 25.573719 114.88683 25.511719 113.42383 C 25.472969 112.53445 25.149932 112.01745 24.628906 111.95703 z M 19.957031 114.44531 C 21.674031 114.42931 23.100031 115.96555 23.082031 117.81055 C 23.063031 119.65655 21.590234 121.15698 19.865234 121.08398 C 18.201234 121.01698 16.967234 119.5718 16.990234 117.7168 C 17.012234 115.8608 18.277031 114.46331 19.957031 114.44531 z " />
  <path
     id="path16"
     d="M 72.736328 111.92773 C 70.296328 111.80473 68.019734 113.31442 67.177734 115.60742 C 66.277734 118.05842 67.035906 120.88658 69.003906 122.39258 C 70.984906 123.91158 74.066766 123.96762 76.009766 122.51562 C 76.617766 122.06363 77.261172 121.5567 76.701172 120.7207 C 76.172172 119.9257 75.513828 120.19047 74.798828 120.60547 C 73.349828 121.44747 71.885672 121.37195 70.513672 120.37695 C 70.058672 120.04595 69.576688 119.55211 69.679688 119.03711 C 69.827687 118.27211 70.588313 118.68939 71.070312 118.65039 C 71.857313 118.58439 72.655125 118.63081 73.453125 118.63281 C 74.366125 118.63281 75.282266 118.65181 76.197266 118.63281 C 77.943266 118.58781 78.345828 118.03612 77.923828 116.32812 C 77.285828 113.75613 75.283328 112.05873 72.736328 111.92773 z M 72.400391 114.18945 C 73.484707 114.16979 74.600156 114.65766 75.300781 115.56641 C 75.472781 115.79041 75.696625 116.12275 75.640625 116.34375 C 75.531625 116.80475 75.057703 116.64534 74.720703 116.65234 C 73.990703 116.67134 73.258297 116.65825 72.529297 116.65625 C 72.044297 116.65325 71.554266 116.69153 71.072266 116.64453 C 70.559266 116.59253 69.807797 116.95852 69.591797 116.35352 C 69.327797 115.61752 70.064125 115.16902 70.578125 114.79102 C 71.1095 114.39577 71.749801 114.20125 72.400391 114.18945 z " />
  <path
     fill-rule="evenodd"
     clip-rule="evenodd"
     fill="#08090a"
     d="m 32.633,123.582 c -1.461,-0.042 -2.746,-0.555 -3.887,-1.442 -0.6,-0.468 -0.888,-1.058 -0.442,-1.752 0.485,-0.753 1.134,-0.827 1.878,-0.299 1.02,0.723 2.086,1.298 3.407,0.813 0.475,-0.172 0.981,-0.352 0.981,-0.935 0,-0.505 -0.491,-0.666 -0.891,-0.79 -0.697,-0.221 -1.413,-0.384 -2.121,-0.57 -2.05,-0.545 -3.354,-1.948 -3.214,-3.46 0.155,-1.669 1.688,-2.967 3.744,-3.19 1.413,-0.153 2.655,0.287 3.788,1.086 0.625,0.442 1.196,0.955 0.652,1.811 -0.495,0.775 -1.184,0.785 -1.9,0.328 -0.793,-0.508 -1.607,-0.888 -2.583,-0.671 -0.494,0.107 -1.038,0.275 -1.049,0.837 -0.009,0.478 0.516,0.631 0.926,0.745 0.646,0.18 1.313,0.28 1.953,0.478 2.479,0.756 3.572,2.109 3.234,3.959 -0.319,1.742 -2.31,3.106 -4.476,3.052 z"
     id="path18"
     style="fill:#000000;fill-opacity:1" />
  <path
     fill-rule="evenodd"
     clip-rule="evenodd"
     fill="#0d0d0e"
     d="m 89.053,117.652 c 0,-1.34 -0.049,-2.683 0.014,-4.02 0.072,-1.592 1.074,-2.153 2.239,-1.168 0.585,0.496 0.867,0.354 1.368,0.094 0.424,-0.224 0.891,-0.425 1.358,-0.501 0.913,-0.156 1.99,-0.311 2.212,0.925 0.197,1.111 -0.704,1.314 -1.615,1.523 -1.607,0.366 -2.934,2.254 -3.001,4.146 -0.045,1.156 -0.023,2.314 0.002,3.472 0.021,0.921 -0.471,1.396 -1.312,1.403 -0.778,0.005 -1.224,-0.546 -1.242,-1.305 -0.037,-1.521 -0.012,-3.046 -0.012,-4.569 -10e-4,0 -0.008,0 -0.011,0 z"
     id="path20"
     style="fill:#000000;fill-opacity:1" />
  <path
     fill-rule="evenodd"
     clip-rule="evenodd"
     fill="#0b0b0c"
     d="m 80.052,117.683 c 0,-1.403 -0.059,-2.809 0.017,-4.206 0.074,-1.449 1.157,-2.007 2.178,-1.047 0.551,0.521 0.816,0.485 1.319,0.156 0.685,-0.442 1.459,-0.601 2.263,-0.615 0.669,-0.014 1.228,0.18 1.36,0.93 0.138,0.8 -0.289,1.24 -1.009,1.503 -2.703,0.988 -3.532,2.16 -3.544,4.947 -0.002,0.977 0.023,1.953 -0.028,2.927 -0.039,0.771 -0.486,1.263 -1.286,1.249 -0.778,-0.012 -1.239,-0.462 -1.244,-1.272 -0.009,-1.523 -0.002,-3.048 -0.002,-4.571 -0.008,-10e-4 -0.015,-10e-4 -0.024,-10e-4 z"
     id="path22"
     style="fill:#000000;fill-opacity:1" />
  <path
     fill-rule="evenodd"
     clip-rule="evenodd"
     fill="#020202"
     d="m 43.058,86.656 c 0.683,-1.102 1.95,-1.232 2.872,-1.018 1.926,0.447 3.725,0.137 5.533,-0.315 0.949,-0.237 1.296,0.07 1.591,0.911 0.354,1.005 0.408,2.175 -0.124,2.857 -0.697,0.899 -1.925,1.372 -3.202,0.878 -0.551,-0.212 -0.356,0.264 -0.463,0.462 -2.259,-0.944 -4.371,-2.134 -6.207,-3.775 z"
     id="path24" />
  <path
     fill-rule="evenodd"
     clip-rule="evenodd"
     fill="#0c0c0d"
     d="m 125.689,117.678 c 0,1.4 -0.019,2.798 0.01,4.199 0.021,0.915 -0.296,1.643 -1.254,1.666 -0.93,0.022 -1.347,-0.606 -1.335,-1.573 0.032,-2.796 0.023,-5.595 0.002,-8.394 -0.005,-0.943 0.366,-1.598 1.331,-1.577 0.997,0.021 1.258,0.776 1.251,1.664 -0.011,1.337 -0.005,2.677 -0.005,4.015 z"
     id="path26"
     style="fill:#000000;fill-opacity:1" />
  <path
     fill-rule="evenodd"
     clip-rule="evenodd"
     fill="#020202"
     d="m 76.901,91.039 c -0.634,-1.414 -0.366,-2.915 -0.38,-4.383 -0.007,-0.839 0.452,-0.915 1.308,-0.948 1.16,-0.039 2.141,1.226 3.336,0.363 0.76,2.471 1.901,-0.68 2.789,0.185 0.161,0.156 0.41,0.219 0.615,0.326 -2.231,2.041 -4.804,3.502 -7.668,4.457 z"
     id="path28" />
  <path
     fill-rule="evenodd"
     clip-rule="evenodd"
     fill="#020202"
     d="m 59.207,96.259 c -0.112,-0.249 -0.224,-0.498 -0.337,-0.75 0.851,0.247 1.412,-1.187 2.288,-0.452 0.41,0.348 0.555,0.58 0.783,-0.091 0.066,-0.185 0.462,-0.447 0.554,-0.396 2.393,1.328 5.073,-0.78 7.436,0.632 0.168,0.103 0.219,0.4 0.326,0.608 -3.622,1.668 -7.302,1.894 -11.05,0.449 z"
     id="path30" />
  <path
     fill-rule="evenodd"
     clip-rule="evenodd"
     fill="#1b1c1c"
     d="m 125.699,108.944 c -0.01,0.664 -0.417,1.314 -1.249,1.352 -0.813,0.037 -1.316,-0.482 -1.347,-1.394 -0.033,-0.963 0.417,-1.631 1.313,-1.638 0.789,-0.007 1.29,0.62 1.283,1.68 z"
     id="path32"
     style="fill:#000000;fill-opacity:1" />
  <path
     fill-rule="evenodd"
     clip-rule="evenodd"
     fill="#020202"
     d="m 52.248,91.78 c 1.139,-0.077 2.313,-0.328 3.294,0.541 0.297,0.263 0.323,0.573 0.167,0.962 -0.31,0.781 -0.936,0.21 -1.385,0.368 -0.899,-0.393 -1.519,-1.099 -2.076,-1.871 z"
     id="path34" />
  <path
     fill-rule="evenodd"
     clip-rule="evenodd"
     fill="#020202"
     d="m 38.252,83.79 c 0.705,-1.656 1.792,-0.272 2.538,-0.13 0.52,0.103 0.106,1.081 -0.393,1.54 -0.855,-0.254 -1.532,-0.783 -2.145,-1.41 z"
     id="path36" />
  <path
     fill-rule="evenodd"
     clip-rule="evenodd"
     fill="#020202"
     d="m 74.767,92.903 c -0.333,-0.193 -0.899,-0.34 -0.479,-0.853 0.356,-0.434 0.822,-0.363 1.144,0.151 -0.111,0.344 -0.323,0.584 -0.665,0.702 z"
     id="path38" />
  <path
     fill-rule="evenodd"
     clip-rule="evenodd"
     fill="#67ba48"
     d="m 83.735,10.871 c -4.604,1.747 -8.871,4.12 -12.699,7.201 -1.221,0.982 -1.955,0.735 -2.934,-0.184 -1.501,-1.413 -1.908,-3.131 -1.424,-5.023 0.489,-1.895 1.172,-3.771 2.454,-5.277 0.506,-0.595 0.664,-2.282 2.365,-1.101 0.554,0.385 1.157,-1.184 1.873,-1.729 0.506,-0.386 0.871,-1.223 1.291,0.125 0.254,0.811 0.701,0.13 1.093,-0.105 0.657,-0.397 1.025,-2.324 2.234,-0.4 0.301,0.483 0.853,-0.509 1.34,-0.595 0.597,-0.106 1.328,-2.058 1.885,0.078 0.089,0.345 0.644,0.126 0.975,-0.054 0.799,-0.431 1.61,-0.831 2.685,-0.954 -0.744,1.595 -0.059,1.458 1.097,1.177 0.613,-0.147 1.913,-1.657 2.019,0.594 0.027,0.572 0.72,0.195 1.088,0.1 1.121,-0.293 2.234,-0.587 3.549,-0.268 -0.624,0.917 -0.688,1.535 0.708,1.367 0.83,-0.1 1.681,-0.019 2.563,-0.019 -1.032,3.313 -1.032,3.313 0.461,3.58 -0.249,0.731 -0.792,1.187 -1.288,1.697 -0.385,0.399 -1.244,0.57 -0.995,1.314 0.215,0.637 1.007,0.091 1.498,0.427 -0.37,0.82 -1.142,1.26 -1.693,1.888 -0.396,0.453 -1.582,0.828 -0.019,1.402 0.552,0.205 -0.033,0.585 -0.25,0.772 -0.513,0.437 -1.074,0.811 -1.599,1.228 -0.179,0.142 -0.438,0.331 -0.451,0.514 -0.114,1.577 -0.101,1.577 -1.538,2.363 -1.107,0.605 -1.107,0.605 -0.193,1.677 -0.909,0.289 -1.802,0.509 -2.636,0.863 -0.363,0.155 -1.54,-0.004 -0.632,1.08 0.361,0.432 -0.258,0.574 -0.562,0.624 -0.782,0.126 -1.582,0.149 -2.364,0.278 -0.522,0.087 -1.636,-0.225 -0.832,1.015 0.272,0.418 -0.065,0.452 -0.392,0.521 -2.917,0.609 -8.633,-1.854 -10.229,-4.322 -0.797,-1.234 -0.723,-2.123 0.396,-3.147 3.176,-2.909 6.741,-5.25 10.413,-7.453 0.417,-0.25 0.82,-0.517 1.235,-0.777 0.103,-0.142 0.224,-0.268 0.352,-0.385 0.198,-0.182 0.442,-0.293 0.676,-0.422 -0.23,0.049 -0.434,0.169 -0.655,0.238 -0.282,0.085 -0.582,0 -0.865,0.092 z"
     id="path40" />
  <path
     fill-rule="evenodd"
     clip-rule="evenodd"
     fill="#67ba48"
     d="m 43.029,10.647 c 4.583,2.451 8.921,5.251 12.881,8.648 1.419,1.216 1.506,2.278 0.462,3.72 -0.857,1.184 -1.929,2.026 -3.243,2.598 -1.928,0.841 -3.979,1.181 -6.048,1.372 -0.305,0.028 -1.857,0.746 -0.896,-0.875 0.258,-0.432 -0.341,-0.551 -0.678,-0.594 -0.723,-0.093 -1.475,-0.047 -2.177,-0.218 -0.457,-0.112 -1.785,0.29 -0.89,-1.102 0.27,-0.417 -0.382,-0.505 -0.674,-0.608 -0.976,-0.345 -1.969,-0.641 -3.125,-1.008 0.8,-0.591 1.604,-1.165 0.059,-1.651 -0.629,-0.198 -1.204,-0.596 -1.769,-0.958 -0.44,-0.282 -1.149,-0.6 -0.017,-1.003 0.582,-0.206 0.249,-0.528 -0.075,-0.765 -0.542,-0.397 -1.092,-0.786 -1.612,-1.21 -0.228,-0.186 -0.392,-0.451 -0.585,-0.679 2.252,-1.759 -0.866,-1.695 -0.934,-2.687 -0.016,-0.232 -0.365,-0.441 -0.581,-0.683 0.51,-0.52 1.435,0.094 1.616,-0.622 0.152,-0.607 -0.637,-0.773 -0.976,-1.162 -0.462,-0.532 -0.969,-1.028 -1.53,-1.617 1.999,-0.545 1.999,-0.545 0.367,-3.737 0.993,0 1.869,0.051 2.734,-0.02 0.511,-0.041 1.769,0.475 0.899,-0.999 -0.294,-0.498 0.377,-0.452 0.684,-0.469 0.862,-0.048 1.69,0.137 2.526,0.348 0.56,0.141 1.321,0.859 1.36,-0.746 0.02,-0.88 1.403,-0.093 2.09,0.129 1.264,0.407 1.568,0.1 1,-1.125 0.872,-0.101 1.452,0.492 2.149,0.592 0.531,0.078 1.521,1.689 1.647,-0.446 0.028,-0.505 0.846,0.313 1.331,0.403 0.729,0.134 1.326,2.181 2.286,0.085 0.196,-0.429 0.859,0.561 1.318,0.878 0.56,0.391 0.936,1.507 1.736,0.115 0.545,-0.951 0.752,0.28 1.158,0.41 0.857,0.275 0.874,2.544 2.51,1.062 0.049,-0.043 0.424,0.189 0.573,0.359 2.098,2.412 3.535,5.115 3.567,8.4 0.009,0.951 -0.414,1.771 -0.993,2.51 -1.392,1.776 -2.004,1.822 -3.793,0.475 C 53.119,14.554 48.45,12.07 43.446,10.212 42.9,10.029 42.298,10.207 41.765,9.963 41.578,9.806 41.829,10.005 41.63,9.865 41.481,9.761 41.406,9.548 41.185,9.55 c 0.165,0.051 0.282,0.175 0.41,0.288 0.438,0.353 1.153,0.198 1.434,0.809 z"
     id="path42" />
  <path
     fill-rule="evenodd"
     clip-rule="evenodd"
     fill="#ea2480"
     d="m 41.646,56.472 c -1.34,-5.403 -0.056,-10.056 4.141,-13.754 2.993,-2.64 6.51,-3.706 10.37,-2.324 4.568,1.635 6.654,5.989 5.69,11.335 -1.157,6.426 -7.199,11.206 -13.039,10.353 -3.486,-0.511 -5.616,-2.697 -7.171,-5.635 z"
     id="path44" />
  <path
     fill-rule="evenodd"
     clip-rule="evenodd"
     fill="#ea2480"
     d="m 66.545,49.871 c -0.115,-8.44 6.57,-12.611 13.174,-9.261 5.119,2.595 8.169,8.5 7.16,13.859 -1.128,5.997 -6.872,9.001 -12.422,6.409 -5.075,-2.372 -7.492,-6.574 -7.912,-11.007 z"
     id="path46" />
  <path
     fill-rule="evenodd"
     clip-rule="evenodd"
     fill="#ea2480"
     d="m 66.147,60.225 c 3.062,0.806 5.879,1.986 7.646,4.855 3.188,5.171 1.261,11.654 -4.287,14.181 -4.99,2.274 -9.499,1.314 -13.584,-2.175 l -0.014,-0.011 c -1.423,-2.155 -2.711,-4.356 -2.445,-7.091 0.551,-5.674 5.128,-9.73 11.07,-9.805 0.549,-0.006 1.097,0.028 1.644,0.043 z"
     id="path48" />
  <path
     fill-rule="evenodd"
     clip-rule="evenodd"
     fill="#ea2480"
     d="m 93.303,70.711 c -0.044,7.526 -5.902,13.482 -12.866,13.447 -2.254,-0.012 -3.505,-1.123 -3.878,-3.313 -0.373,-2.204 0.146,-4.246 0.99,-6.235 1.538,-3.621 3.854,-6.666 7.091,-8.906 4.632,-3.207 7.95,-1.662 8.603,3.917 0.053,0.483 0.053,0.973 0.06,1.09 z"
     id="path50" />
  <path
     fill-rule="evenodd"
     clip-rule="evenodd"
     fill="#ea2480"
     d="m 41.175,65.718 c 5.397,2.563 8.875,6.697 10.172,12.562 0.934,4.216 -1.575,6.644 -5.787,5.667 -6.59,-1.523 -10.81,-7.301 -10.256,-14.039 0.271,-3.293 1.574,-4.45 4.813,-4.271 0.366,0.021 0.729,0.061 1.093,0.089 z"
     id="path52" />
  <path
     fill-rule="evenodd"
     clip-rule="evenodd"
     fill="#ea2480"
     d="m 61.078,27.517 c 4.182,-0.789 7.949,0.048 11.209,2.858 2.096,1.806 2.372,3.089 1.242,5.542 l 0.012,-0.016 c -3.395,2.97 -7.506,3.066 -11.679,2.904 l 0.021,0.013 c -1.26,-0.427 -2.565,-0.755 -3.774,-1.295 -4.15,-1.85 -4.695,-3.89 -2.069,-7.423 1.278,-1.638 2.947,-2.526 5.038,-2.583 z"
     id="path54" />
  <path
     fill-rule="evenodd"
     clip-rule="evenodd"
     fill="#ea2480"
     d="m 65.271,94.006 c -5.186,-0.054 -8.338,-1.641 -10.914,-4.532 -1.068,-1.2 -0.867,-2.16 0.283,-3.102 0.721,-0.585 1.527,-1.007 2.405,-1.286 5.152,-1.634 10.312,-1.767 15.419,0.121 2.817,1.044 3.117,2.349 1.093,4.564 -2.553,2.792 -5.721,4.3 -8.286,4.235 z"
     id="path56" />
  <path
     fill-rule="evenodd"
     clip-rule="evenodd"
     fill="#020202"
     d="m 61.078,27.517 c -1.779,0.667 -3.422,1.601 -5.039,2.584 -0.487,-0.016 -0.983,-0.084 -1.466,-0.036 -0.996,0.099 -1.817,-0.166 -1.71,-1.285 0.074,-0.79 -0.228,-2.129 1.54,-1.729 0.927,0.209 1.642,-0.423 1.521,-1.545 -0.115,-1.075 0.41,-1.443 1.403,-1.328 0.818,0.093 1.479,-0.353 1.424,-1.06 -0.107,-1.361 0.731,-1.898 1.64,-2.507 0.347,-0.234 0.75,-0.542 0.89,-0.908 0.681,-1.756 2.028,-1.584 3.567,-1.629 1.882,-0.055 3.104,0.064 2.88,2.396 -0.086,0.907 0.797,0.885 1.347,0.701 1.442,-0.487 1.564,0.337 1.543,1.392 -0.028,1.517 0.708,2.743 1.471,4.095 -2.239,0.895 -4.458,1.124 -6.642,-0.389 -0.72,-0.499 -1.13,0.546 -1.834,0.492 -0.914,-0.073 -1.819,0.081 -2.535,0.756 z"
     id="path58" />
  <path
     fill-rule="evenodd"
     clip-rule="evenodd"
     fill="#e9247f"
     d="m 37.608,52.235 c -0.043,3.326 -0.648,6.546 -1.827,9.657 -0.326,0.861 -0.775,1.649 -1.404,2.333 -0.718,0.777 -1.326,0.829 -2.116,-0.021 -4.642,-4.981 -3.502,-13.873 2.239,-17.537 1.332,-0.849 2.031,-0.405 2.5,0.866 0.56,1.517 0.588,3.11 0.608,4.702 z"
     id="path60" />
  <path
     fill-rule="evenodd"
     clip-rule="evenodd"
     fill="#e9247f"
     d="m 90.139,50.756 c -0.044,-1.304 0.007,-2.765 0.515,-4.174 0.343,-0.95 0.867,-1.159 1.829,-0.674 6.306,3.191 7.822,13.02 2.778,17.996 -0.844,0.832 -1.438,0.725 -2.076,-0.138 -0.96,-1.299 -1.543,-2.797 -1.901,-4.333 -0.656,-2.791 -1.216,-5.614 -1.145,-8.677 z"
     id="path62" />
  <path
     fill-rule="evenodd"
     clip-rule="evenodd"
     fill="#020202"
     d="m 41.209,65.726 c -0.37,-0.6 -0.973,-0.376 -1.495,-0.41 -1.624,-0.104 -2.138,-0.73 -1.748,-2.35 0.35,-1.449 0.508,-2.766 -0.264,-4.215 -0.71,-1.334 0.187,-2.454 1.799,-2.608 0.741,-0.072 1.467,-0.007 2.144,0.33 l -0.009,-0.025 c 0.101,1.352 -0.62,2.625 -0.391,3.986 0.211,1.248 0.537,1.965 2.25,1.836 2.132,-0.161 4.477,-0.614 6.445,0.898 0.651,0.499 0.965,-0.103 1.395,-0.396 0.937,-0.64 1.566,-0.62 1.676,0.744 0.139,1.718 0.36,3.408 0.068,5.15 -0.198,1.188 -0.127,2.447 0.014,3.651 0.09,0.753 0.479,1.5 -0.583,1.748 -0.861,0.201 -2.021,0.192 -2.191,-0.757 -0.199,-1.113 -1.866,-2.005 -0.449,-3.513 0.574,-0.611 -0.357,-1.562 -1.248,-1.449 -1.22,0.152 -1.469,-0.321 -1.542,-1.386 -0.073,-1.073 -0.32,-1.688 -1.864,-1.248 -1.185,0.335 -2.683,-0.03 -4.043,0.006 z"
     id="path64" />
  <path
     fill-rule="evenodd"
     clip-rule="evenodd"
     fill="#e92580"
     d="m 78.586,29.357 c 6.792,0.037 12.313,5.517 12.329,12.25 0.002,1.259 -0.317,1.738 -1.599,1.058 -5.317,-2.821 -9.698,-6.75 -13.506,-11.361 -0.876,-1.06 -0.531,-1.63 0.773,-1.755 0.668,-0.062 1.337,-0.127 2.003,-0.192 z"
     id="path66" />
  <path
     fill-rule="evenodd"
     clip-rule="evenodd"
     fill="#e9257f"
     d="m 36.519,41.257 c 0.251,-7.167 6.854,-12.776 13.914,-11.823 1.823,0.247 2.145,0.706 1.128,1.967 -3.673,4.561 -8.049,8.309 -13.284,10.979 -1.538,0.782 -1.817,0.537 -1.758,-1.123 z"
     id="path68" />
  <path
     fill-rule="evenodd"
     clip-rule="evenodd"
     fill="#020202"
     d="m 76.479,66.693 c -0.272,-1.28 0.252,-2.365 -0.219,-3.454 -0.341,-0.791 0.422,-0.891 0.962,-0.894 1.657,-0.015 3.293,-0.425 4.984,0.112 2.118,0.671 2.775,0.253 3.068,-1.9 0.269,-1.932 1.652,-0.927 2.543,-1.09 1.165,-0.212 1.871,0.7 2.6,1.424 0.763,0.75 0.198,1.044 -0.482,1.198 -1.097,0.247 -2.209,0.595 -3.317,0.607 -1.135,0.012 -2.104,0.688 -2.447,1.329 -0.797,1.507 -2.08,1.495 -3.357,1.635 -0.871,0.096 -1.396,0.381 -1.37,1.315 0.03,1.173 -0.072,2.372 -1.596,2.335 -1.647,-0.04 -1.268,-1.44 -1.356,-2.474 -0.013,-0.12 -0.022,-0.241 -0.013,-0.143 z"
     id="path70" />
  <path
     fill-rule="evenodd"
     clip-rule="evenodd"
     fill="#020202"
     d="m 66.176,60.222 c -0.825,-0.815 -1.85,-0.321 -2.779,-0.402 -1.334,-0.119 -2.362,-0.327 -1.702,-2.089 0.459,-1.238 -0.939,-2.541 0.054,-3.829 0.263,-0.341 2.957,-1.768 3.354,-1.614 0.831,0.326 0.501,0.688 0.111,1.204 -0.734,0.979 -0.536,1.784 0.634,2.323 2.531,1.159 2.631,2.749 0.301,4.409 -0.002,0.001 0.027,-0.002 0.027,-0.002 z"
     id="path72" />
  <path
     fill-rule="evenodd"
     clip-rule="evenodd"
     fill="#020202"
     d="m 55.921,77.086 c -0.057,1.396 -0.178,2.671 1.953,2.629 1.516,-0.032 1.431,1.491 1.457,2.51 0.025,1.053 -0.926,1.113 -1.742,1.079 -1.196,-0.045 -2.393,-0.138 -3.589,-0.198 -0.474,-0.023 -0.893,-0.212 -0.953,-0.674 -0.181,-1.377 -0.315,-2.764 -0.402,-4.149 -0.051,-0.825 0.447,-1.21 1.253,-1.21 0.672,0.003 1.341,0.003 2.01,0.003 z"
     id="path74" />
  <path
     fill-rule="evenodd"
     clip-rule="evenodd"
     fill="#020202"
     d="m 61.862,38.805 c -0.058,1.268 0.45,2.056 1.764,2.344 0.528,0.117 1.415,0.261 1.211,1.074 -0.279,1.116 0.367,2.375 -0.494,3.36 -0.396,0.447 -0.925,0.186 -1.347,-0.075 -0.657,-0.411 -1.517,-0.769 -1.399,-1.713 0.163,-1.311 0.183,-2.299 -1.625,-2.157 -0.193,0.016 -1.687,-0.315 -1.153,-1.33 0.333,-0.63 0.161,-2.221 1.792,-1.482 0.35,0.159 0.843,0.003 1.27,-0.009 0.002,10e-4 -0.019,-0.012 -0.019,-0.012 z"
     id="path76" />
  <path
     fill-rule="evenodd"
     clip-rule="evenodd"
     fill="#020202"
     d="m 73.529,35.917 c 1.692,-0.67 3.426,-0.046 5.136,-0.123 0.692,-0.031 0.83,0.776 0.767,1.425 -0.063,0.614 0.266,1.38 -0.664,1.669 -1.526,0.477 -3.213,0.652 -4.6,0.184 -1.19,-0.4 -0.79,-2.012 -0.627,-3.171 z"
     id="path78" />
  <path
     fill-rule="evenodd"
     clip-rule="evenodd"
     fill="#020202"
     d="m 71.381,79.985 c 1.039,0.081 2.007,-0.268 2.391,0.862 0.247,0.731 0.259,1.424 -0.338,2.029 -0.782,0.795 -1.668,0.725 -2.467,0.161 -0.623,-0.443 -1.17,-0.012 -1.748,-0.089 -0.471,-0.061 -1.076,0.104 -1.266,-0.469 -0.163,-0.496 0.187,-0.95 0.563,-1.26 0.896,-0.733 1.805,-1.476 2.865,-1.234 z"
     id="path80" />
  <path
     fill-rule="evenodd"
     clip-rule="evenodd"
     fill="#020202"
     d="m 79.732,27.608 c 0.479,-0.173 0.692,-0.326 0.787,-0.272 0.644,0.359 1.48,-0.186 2.027,0.458 0.061,0.07 -0.039,0.423 -0.128,0.453 -0.894,0.295 -1.693,0.068 -2.686,-0.639 z"
     id="path82" />
  <path
     fill-rule="evenodd"
     clip-rule="evenodd"
     fill="#020202"
     d="m 73.483,25.197 c 0.046,0.53 -0.147,0.781 -0.497,0.75 -0.604,-0.053 -1.021,-0.419 -1.13,-1.019 -0.061,-0.345 0.224,-0.615 0.533,-0.618 0.661,-0.006 0.87,0.554 1.094,0.887 z"
     id="path84" />
  <path
     fill-rule="evenodd"
     clip-rule="evenodd"
     fill="#253e1e"
     d="m 83.735,10.871 c 0.778,-0.529 1.589,-0.964 2.777,-1.03 -0.619,1.016 -1.473,1.234 -2.285,1.506 -0.163,-0.159 -0.329,-0.319 -0.492,-0.476 z"
     id="path86" />
  <path
     fill-rule="evenodd"
     clip-rule="evenodd"
     fill="#284421"
     d="m 41.608,9.88 c 0.64,-0.043 1.317,-0.283 1.839,0.333 -0.141,0.145 -0.28,0.29 -0.419,0.434 -0.476,-0.244 -1.099,-0.231 -1.397,-0.791 z"
     id="path88" />
  <path
     fill-rule="evenodd"
     clip-rule="evenodd"
     fill="#579f45"
     d="M 88.703,9.025 C 88.64,9.31 88.424,9.425 88.17,9.431 87.928,9.437 87.632,9.396 87.723,9.048 c 0.03,-0.121 0.261,-0.234 0.414,-0.267 0.221,-0.047 0.482,-0.072 0.566,0.244 z"
     id="path102" />
  <path
     fill-rule="evenodd"
     clip-rule="evenodd"
     fill="#407d3b"
     d="M 41.631,9.857 C 41.129,9.745 40.598,9.691 40.194,9.043 40.943,9.035 41.527,8.992 41.608,9.88 Z"
     id="path104" />
</svg>
