<svg xmlns="http://www.w3.org/2000/svg" width="128px" height="128px" viewBox="0 0 128 128" enable-background="new 0 0 128 128"> <g> <path fill-rule="evenodd" clip-rule="evenodd" fill="#040404" d="M74.767,92.903c-1.246,1.37-2.756,2.326-4.509,2.906 c-1.843-0.413-3.676-1.412-5.536-0.03c-0.269,0.197-0.611,0.093-0.87-0.057c-1.453-0.841-2.903,0.28-4.361-0.009 c-0.292-0.056-0.099,0.405-0.284,0.545c-1.891-0.377-3.487-1.305-4.883-2.607c0.166-0.331,0.765-0.247,0.753-0.694 c-0.011-0.548-0.5-0.681-0.912-0.696c-0.68-0.03-1.269-0.371-1.917-0.48c-0.995-0.449-1.988-0.901-2.982-1.349 c-0.346-0.809,0.019-0.975,0.75-0.857c0.818,0.13,1.641-0.003,2.22-0.573c0.731-0.721,0.627-1.694,0.291-2.563 c-0.325-0.837-1.089-0.597-1.739-0.471c-1.621,0.316-3.237,0.473-4.887,0.156c-0.99-0.191-1.879,0.434-2.843,0.533 c-0.853-0.547-1.92-0.701-2.661-1.456c0.204-1.866-0.992-1.605-2.145-1.41c-3.269-2.399-4.842-5.771-5.948-9.585 c-0.988-3.41-1.802-6.878-3.839-9.982c-4.111-6.273-2.641-14.573,3.18-19.316c1.247-1.016,1.763-2.143,1.818-3.749 c0.181-5.232,2.501-9.356,6.814-12.34c0.491-0.341,1.01-0.644,1.788-1.135c-2.582-0.449-4.16-2.339-5.427-3.837 c-1.326-1.567-3.027-3.03-3.921-5.24c-0.656-1.618-1.5-3.412-2.021-5.052c-0.563-1.769-1.845-3.796-0.655-5.857 c0.331-0.571-0.098-0.915-0.181-1.361c-0.262-1.413,0.267-2.554,1.596-2.916c3.076-0.839,6.131-1.8,9.184-2.678 c2.049-0.59,4.029-0.232,6.021-0.673c1.523-0.338,3.236,0.603,4.941,0.596c2.723-0.012,4.909,1.676,7.256,2.702 c2.156,0.939,3.289,3.197,4.348,5.282c0.41,0.808,0.685,1.682,1.128,2.784c0.933-2.106,1.656-4.089,3.011-5.716 c1.05-1.261,1.948-2.725,3.903-2.684c0.212,0.005,0.471-0.166,0.629-0.329c2.018-2.034,4.645-1.935,7.198-2.038 c0.773-0.031,1.412-0.789,2.055-0.615c2.1,0.566,4.238-0.14,6.401,0.55c1.596,0.507,3.231,1.338,5.04,1.212 c0.745-0.053,1.5,0.195,2.034,0.701c0.573,0.546,1.132,0.773,1.934,0.75c1.084-0.032,2.23,0.663,2.17,1.589 c-0.129,1.925,0.523,3.764,0.142,5.752c-0.37,1.937-1.394,3.63-1.603,5.591c-0.152,1.392-1.188,2.625-1.895,3.57 c-1.319,1.764-2.328,3.922-4.418,5.123c-1.629,0.934-2.572,2.947-5.264,2.821c1.26,0.936,2.11,1.491,2.875,2.151 c3.362,2.899,5.22,6.588,5.464,11.013c0.087,1.524,0.6,2.572,1.815,3.556c6.434,5.202,7.482,13.743,2.7,20.495 c-1.438,2.032-1.924,4.479-2.055,6.91c-0.373,6.997-5.504,13.433-11.9,14.747c-1.91,0.874-3.726,0.615-5.662-0.136 c-1.528-0.596-1.908-0.13-1.967,1.522c-0.034,1.022,0.296,2.053-0.039,3.07c-0.492,0.39-0.979,0.776-1.471,1.163 C74.904,92.146,74.585,92.288,74.767,92.903z"/> <path fill-rule="evenodd" clip-rule="evenodd" fill="#060607" d="M2.315,115.331c0-2.142,0.027-4.278-0.012-6.42 c-0.02-1.058,0.446-1.687,1.467-1.687c1.643,0.005,3.295-0.2,4.931,0.173c3.579,0.813,5.19,4.748,3.06,7.715 c-0.55,0.767-0.769,1.202-0.034,1.948c0.668,0.678,0.674,1.675,0.764,2.586c0.053,0.538-0.016,1.072,0.469,1.51 c0.679,0.613,0.638,1.338-0.058,1.878c-0.722,0.564-1.497,0.425-2.142-0.214c-0.751-0.746-0.806-1.748-0.916-2.715 c-0.255-2.241-2.359-3.584-4.453-2.885c-0.586,0.196-0.522,0.592-0.525,1.005c-0.007,1.223-0.037,2.446,0.011,3.667 c0.039,0.963-0.391,1.622-1.296,1.657c-0.961,0.032-1.298-0.667-1.28-1.617C2.343,119.732,2.315,117.531,2.315,115.331z"/> <path fill-rule="evenodd" clip-rule="evenodd" fill="#060607" d="M55.967,112.565c4.376-1.138,6.735-0.306,8.195,2.745 c1.109,2.318,0.652,4.41-0.908,6.305c-1.488,1.804-3.881,2.433-6.137,1.615c-0.655-0.235-1.064-0.392-1.779,0.051 c-1.094,0.676-1.954,0.114-1.968-1.17c-0.052-4.457-0.023-8.915-0.018-13.374c0-0.869,0.47-1.457,1.31-1.462 c0.842-0.002,1.301,0.581,1.304,1.454C55.969,109.995,55.967,111.263,55.967,112.565z"/> <path fill-rule="evenodd" clip-rule="evenodd" fill="#080809" d="M39.215,119.87c0-2.078-0.031-4.154,0.009-6.233 c0.032-1.572,0.78-2.113,2.046-1.337c0.691,0.426,1.107,0.153,1.656-0.019c2.595-0.827,4.967-0.087,6.508,2.024 c1.386,1.896,1.442,4.754,0.132,6.728c-1.36,2.05-4.034,3.132-6.438,2.211c-1.542-0.592-1.471,0.056-1.405,1.114 c0.032,0.486-0.004,0.979,0.009,1.465c0.023,1.014,0.02,2.221-1.292,2.182c-1.296-0.04-1.225-1.271-1.224-2.268 C39.223,123.78,39.218,121.827,39.215,119.87z"/> <path fill-rule="evenodd" clip-rule="evenodd" fill="#09090A" d="M104.149,123.352c-0.913,0.065-1.567,0.156-2.218,0.149 c-2.234-0.023-4.147-1.548-4.544-3.764c-0.387-2.174-0.114-4.388-0.128-6.583c-0.005-0.685,0.454-1.169,1.153-1.19 c0.792-0.025,1.266,0.469,1.284,1.249c0.042,1.647,0.007,3.3,0.027,4.947c0.019,1.811,0.893,2.84,2.368,2.843 c1.463,0,2.344-1.03,2.379-2.853c0.025-1.526,0.002-3.053,0.002-4.581c0-0.885,0.235-1.654,1.291-1.605 c0.883,0.04,1.202,0.671,1.197,1.533c-0.022,2.992,0.077,5.991-0.046,8.979c-0.151,3.651-4.125,6.069-7.466,4.674 c-0.741-0.308-1.375-0.711-1.104-1.605c0.261-0.874,0.962-0.92,1.782-0.762C102.381,125.216,102.663,125.102,104.149,123.352z"/> <path fill-rule="evenodd" clip-rule="evenodd" fill="#070708" d="M110.961,115.447c0-2.137,0.032-4.277-0.012-6.419 c-0.023-1.128,0.447-1.811,1.562-1.806c1.7,0.004,3.42-0.21,5.109,0.212c2.426,0.601,3.945,2.754,3.749,5.348 c-0.172,2.295-2.046,4.11-4.413,4.425c-1.111,0.149-2.626-0.617-3.236,0.426c-0.513,0.874-0.154,2.259-0.173,3.416 c-0.009,0.368,0,0.734-0.007,1.101c-0.014,0.888-0.51,1.424-1.352,1.394c-0.846-0.028-1.251-0.595-1.239-1.492 C110.981,119.852,110.961,117.649,110.961,115.447z"/> <path fill-rule="evenodd" clip-rule="evenodd" fill="#060708" d="M25.524,117.822c0.001,1.405,0.046,2.813-0.01,4.218 c-0.056,1.397-0.888,1.917-2.008,1.13c-0.621-0.436-0.917-0.2-1.423-0.01c-2.383,0.902-5.004,0.191-6.426-1.698 c-1.607-2.132-1.605-5.227,0.004-7.356c1.513-1.999,3.89-2.661,6.387-1.755c0.491,0.18,0.813,0.455,1.447,0.007 c1.165-0.824,1.954-0.358,2.016,1.065C25.573,114.886,25.523,116.354,25.524,117.822z"/> <path fill-rule="evenodd" clip-rule="evenodd" fill="#070708" d="M73.453,118.633c-0.798-0.002-1.595-0.049-2.382,0.017 c-0.482,0.039-1.244-0.378-1.392,0.387c-0.103,0.515,0.38,1.009,0.835,1.34c1.372,0.995,2.836,1.071,4.285,0.229 c0.715-0.415,1.374-0.681,1.903,0.114c0.56,0.836-0.084,1.344-0.692,1.796c-1.943,1.452-5.025,1.396-7.006-0.123 c-1.968-1.506-2.727-4.334-1.827-6.785c0.842-2.293,3.12-3.803,5.56-3.68c2.547,0.131,4.549,1.829,5.187,4.401 c0.422,1.708,0.019,2.258-1.727,2.303C75.282,118.651,74.366,118.633,73.453,118.633z"/> <path fill-rule="evenodd" clip-rule="evenodd" fill="#08090A" d="M32.633,123.582c-1.461-0.042-2.746-0.555-3.887-1.442 c-0.6-0.468-0.888-1.058-0.442-1.752c0.485-0.753,1.134-0.827,1.878-0.299c1.02,0.723,2.086,1.298,3.407,0.813 c0.475-0.172,0.981-0.352,0.981-0.935c0-0.505-0.491-0.666-0.891-0.79c-0.697-0.221-1.413-0.384-2.121-0.57 c-2.05-0.545-3.354-1.948-3.214-3.46c0.155-1.669,1.688-2.967,3.744-3.19c1.413-0.153,2.655,0.287,3.788,1.086 c0.625,0.442,1.196,0.955,0.652,1.811c-0.495,0.775-1.184,0.785-1.9,0.328c-0.793-0.508-1.607-0.888-2.583-0.671 c-0.494,0.107-1.038,0.275-1.049,0.837c-0.009,0.478,0.516,0.631,0.926,0.745c0.646,0.18,1.313,0.28,1.953,0.478 c2.479,0.756,3.572,2.109,3.234,3.959C36.79,122.272,34.799,123.636,32.633,123.582z"/> <path fill-rule="evenodd" clip-rule="evenodd" fill="#0D0D0E" d="M89.053,117.652c0-1.34-0.049-2.683,0.014-4.02 c0.072-1.592,1.074-2.153,2.239-1.168c0.585,0.496,0.867,0.354,1.368,0.094c0.424-0.224,0.891-0.425,1.358-0.501 c0.913-0.156,1.99-0.311,2.212,0.925c0.197,1.111-0.704,1.314-1.615,1.523c-1.607,0.366-2.934,2.254-3.001,4.146 c-0.045,1.156-0.023,2.314,0.002,3.472c0.021,0.921-0.471,1.396-1.312,1.403c-0.778,0.005-1.224-0.546-1.242-1.305 c-0.037-1.521-0.012-3.046-0.012-4.569C89.063,117.652,89.056,117.652,89.053,117.652z"/> <path fill-rule="evenodd" clip-rule="evenodd" fill="#0B0B0C" d="M80.052,117.683c0-1.403-0.059-2.809,0.017-4.206 c0.074-1.449,1.157-2.007,2.178-1.047c0.551,0.521,0.816,0.485,1.319,0.156c0.685-0.442,1.459-0.601,2.263-0.615 c0.669-0.014,1.228,0.18,1.36,0.93c0.138,0.8-0.289,1.24-1.009,1.503c-2.703,0.988-3.532,2.16-3.544,4.947 c-0.002,0.977,0.023,1.953-0.028,2.927c-0.039,0.771-0.486,1.263-1.286,1.249c-0.778-0.012-1.239-0.462-1.244-1.272 c-0.009-1.523-0.002-3.048-0.002-4.571C80.068,117.683,80.061,117.683,80.052,117.683z"/> <path fill-rule="evenodd" clip-rule="evenodd" fill="#020202" d="M43.058,86.656c0.683-1.102,1.95-1.232,2.872-1.018 c1.926,0.447,3.725,0.137,5.533-0.315c0.949-0.237,1.296,0.07,1.591,0.911c0.354,1.005,0.408,2.175-0.124,2.857 c-0.697,0.899-1.925,1.372-3.202,0.878c-0.551-0.212-0.356,0.264-0.463,0.462C47.006,89.487,44.894,88.297,43.058,86.656z"/> <path fill-rule="evenodd" clip-rule="evenodd" fill="#0C0C0D" d="M125.689,117.678c0,1.4-0.019,2.798,0.01,4.199 c0.021,0.915-0.296,1.643-1.254,1.666c-0.93,0.022-1.347-0.606-1.335-1.573c0.032-2.796,0.023-5.595,0.002-8.394 c-0.005-0.943,0.366-1.598,1.331-1.577c0.997,0.021,1.258,0.776,1.251,1.664C125.683,115,125.689,116.34,125.689,117.678z"/> <path fill-rule="evenodd" clip-rule="evenodd" fill="#020202" d="M76.901,91.039c-0.634-1.414-0.366-2.915-0.38-4.383 c-0.007-0.839,0.452-0.915,1.308-0.948c1.16-0.039,2.141,1.226,3.336,0.363c0.76,2.471,1.901-0.68,2.789,0.185 c0.161,0.156,0.41,0.219,0.615,0.326C82.338,88.623,79.765,90.084,76.901,91.039z"/> <path fill-rule="evenodd" clip-rule="evenodd" fill="#020202" d="M59.207,96.259c-0.112-0.249-0.224-0.498-0.337-0.75 c0.851,0.247,1.412-1.187,2.288-0.452c0.41,0.348,0.555,0.58,0.783-0.091c0.066-0.185,0.462-0.447,0.554-0.396 c2.393,1.328,5.073-0.78,7.436,0.632c0.168,0.103,0.219,0.4,0.326,0.608C66.635,97.478,62.955,97.704,59.207,96.259z"/> <path fill-rule="evenodd" clip-rule="evenodd" fill="#1B1C1C" d="M125.699,108.944c-0.01,0.664-0.417,1.314-1.249,1.352 c-0.813,0.037-1.316-0.482-1.347-1.394c-0.033-0.963,0.417-1.631,1.313-1.638C125.205,107.257,125.706,107.884,125.699,108.944z"/> <path fill-rule="evenodd" clip-rule="evenodd" fill="#020202" d="M52.248,91.78c1.139-0.077,2.313-0.328,3.294,0.541 c0.297,0.263,0.323,0.573,0.167,0.962c-0.31,0.781-0.936,0.21-1.385,0.368C53.425,93.258,52.805,92.552,52.248,91.78z"/> <path fill-rule="evenodd" clip-rule="evenodd" fill="#020202" d="M38.252,83.79c0.705-1.656,1.792-0.272,2.538-0.13 c0.52,0.103,0.106,1.081-0.393,1.54C39.542,84.946,38.865,84.417,38.252,83.79z"/> <path fill-rule="evenodd" clip-rule="evenodd" fill="#020202" d="M74.767,92.903c-0.333-0.193-0.899-0.34-0.479-0.853 c0.356-0.434,0.822-0.363,1.144,0.151C75.321,92.545,75.109,92.785,74.767,92.903z"/> <path fill-rule="evenodd" clip-rule="evenodd" fill="#67BA48" d="M83.735,10.871c-4.604,1.747-8.871,4.12-12.699,7.201 c-1.221,0.982-1.955,0.735-2.934-0.184c-1.501-1.413-1.908-3.131-1.424-5.023c0.489-1.895,1.172-3.771,2.454-5.277 c0.506-0.595,0.664-2.282,2.365-1.101c0.554,0.385,1.157-1.184,1.873-1.729c0.506-0.386,0.871-1.223,1.291,0.125 c0.254,0.811,0.701,0.13,1.093-0.105c0.657-0.397,1.025-2.324,2.234-0.4c0.301,0.483,0.853-0.509,1.34-0.595 c0.597-0.106,1.328-2.058,1.885,0.078c0.089,0.345,0.644,0.126,0.975-0.054c0.799-0.431,1.61-0.831,2.685-0.954 c-0.744,1.595-0.059,1.458,1.097,1.177c0.613-0.147,1.913-1.657,2.019,0.594c0.027,0.572,0.72,0.195,1.088,0.1 c1.121-0.293,2.234-0.587,3.549-0.268c-0.624,0.917-0.688,1.535,0.708,1.367c0.83-0.1,1.681-0.019,2.563-0.019 c-1.032,3.313-1.032,3.313,0.461,3.58c-0.249,0.731-0.792,1.187-1.288,1.697c-0.385,0.399-1.244,0.57-0.995,1.314 c0.215,0.637,1.007,0.091,1.498,0.427c-0.37,0.82-1.142,1.26-1.693,1.888c-0.396,0.453-1.582,0.828-0.019,1.402 c0.552,0.205-0.033,0.585-0.25,0.772c-0.513,0.437-1.074,0.811-1.599,1.228c-0.179,0.142-0.438,0.331-0.451,0.514 c-0.114,1.577-0.101,1.577-1.538,2.363c-1.107,0.605-1.107,0.605-0.193,1.677c-0.909,0.289-1.802,0.509-2.636,0.863 c-0.363,0.155-1.54-0.004-0.632,1.08c0.361,0.432-0.258,0.574-0.562,0.624c-0.782,0.126-1.582,0.149-2.364,0.278 c-0.522,0.087-1.636-0.225-0.832,1.015c0.272,0.418-0.065,0.452-0.392,0.521c-2.917,0.609-8.633-1.854-10.229-4.322 c-0.797-1.234-0.723-2.123,0.396-3.147c3.176-2.909,6.741-5.25,10.413-7.453c0.417-0.25,0.82-0.517,1.235-0.777 c0.103-0.142,0.224-0.268,0.352-0.385c0.198-0.182,0.442-0.293,0.676-0.422c-0.23,0.049-0.434,0.169-0.655,0.238 C84.318,10.864,84.018,10.779,83.735,10.871z"/> <path fill-rule="evenodd" clip-rule="evenodd" fill="#67BA48" d="M43.029,10.647c4.583,2.451,8.921,5.251,12.881,8.648 c1.419,1.216,1.506,2.278,0.462,3.72c-0.857,1.184-1.929,2.026-3.243,2.598c-1.928,0.841-3.979,1.181-6.048,1.372 c-0.305,0.028-1.857,0.746-0.896-0.875c0.258-0.432-0.341-0.551-0.678-0.594c-0.723-0.093-1.475-0.047-2.177-0.218 c-0.457-0.112-1.785,0.29-0.89-1.102c0.27-0.417-0.382-0.505-0.674-0.608c-0.976-0.345-1.969-0.641-3.125-1.008 c0.8-0.591,1.604-1.165,0.059-1.651c-0.629-0.198-1.204-0.596-1.769-0.958c-0.44-0.282-1.149-0.6-0.017-1.003 c0.582-0.206,0.249-0.528-0.075-0.765c-0.542-0.397-1.092-0.786-1.612-1.21c-0.228-0.186-0.392-0.451-0.585-0.679 c2.252-1.759-0.866-1.695-0.934-2.687c-0.016-0.232-0.365-0.441-0.581-0.683c0.51-0.52,1.435,0.094,1.616-0.622 c0.152-0.607-0.637-0.773-0.976-1.162c-0.462-0.532-0.969-1.028-1.53-1.617c1.999-0.545,1.999-0.545,0.367-3.737 c0.993,0,1.869,0.051,2.734-0.02c0.511-0.041,1.769,0.475,0.899-0.999c-0.294-0.498,0.377-0.452,0.684-0.469 c0.862-0.048,1.69,0.137,2.526,0.348c0.56,0.141,1.321,0.859,1.36-0.746c0.02-0.88,1.403-0.093,2.09,0.129 c1.264,0.407,1.568,0.1,1-1.125c0.872-0.101,1.452,0.492,2.149,0.592c0.531,0.078,1.521,1.689,1.647-0.446 c0.028-0.505,0.846,0.313,1.331,0.403c0.729,0.134,1.326,2.181,2.286,0.085c0.196-0.429,0.859,0.561,1.318,0.878 c0.56,0.391,0.936,1.507,1.736,0.115c0.545-0.951,0.752,0.28,1.158,0.41c0.857,0.275,0.874,2.544,2.51,1.062 c0.049-0.043,0.424,0.189,0.573,0.359c2.098,2.412,3.535,5.115,3.567,8.4c0.009,0.951-0.414,1.771-0.993,2.51 c-1.392,1.776-2.004,1.822-3.793,0.475c-4.267-3.213-8.936-5.697-13.94-7.555c-0.546-0.183-1.148-0.005-1.681-0.249 c-0.187-0.157,0.064,0.042-0.135-0.098c-0.149-0.104-0.224-0.317-0.445-0.315c0.165,0.051,0.282,0.175,0.41,0.288 C42.033,10.191,42.748,10.036,43.029,10.647z"/> <path fill-rule="evenodd" clip-rule="evenodd" fill="#EA2480" d="M41.646,56.472c-1.34-5.403-0.056-10.056,4.141-13.754 c2.993-2.64,6.51-3.706,10.37-2.324c4.568,1.635,6.654,5.989,5.69,11.335c-1.157,6.426-7.199,11.206-13.039,10.353 c-3.486-0.511-5.616-2.697-7.171-5.635L41.646,56.472z"/> <path fill-rule="evenodd" clip-rule="evenodd" fill="#EA2480" d="M66.545,49.871c-0.115-8.44,6.57-12.611,13.174-9.261 c5.119,2.595,8.169,8.5,7.16,13.859c-1.128,5.997-6.872,9.001-12.422,6.409C69.382,58.506,66.965,54.304,66.545,49.871z"/> <path fill-rule="evenodd" clip-rule="evenodd" fill="#EA2480" d="M66.147,60.225c3.062,0.806,5.879,1.986,7.646,4.855 c3.188,5.171,1.261,11.654-4.287,14.181c-4.99,2.274-9.499,1.314-13.584-2.175l-0.014-0.011c-1.423-2.155-2.711-4.356-2.445-7.091 c0.551-5.674,5.128-9.73,11.07-9.805c0.549-0.006,1.097,0.028,1.644,0.043L66.147,60.225z"/> <path fill-rule="evenodd" clip-rule="evenodd" fill="#EA2480" d="M93.303,70.711c-0.044,7.526-5.902,13.482-12.866,13.447 c-2.254-0.012-3.505-1.123-3.878-3.313c-0.373-2.204,0.146-4.246,0.99-6.235c1.538-3.621,3.854-6.666,7.091-8.906 c4.632-3.207,7.95-1.662,8.603,3.917C93.296,70.104,93.296,70.594,93.303,70.711z"/> <path fill-rule="evenodd" clip-rule="evenodd" fill="#EA2480" d="M41.175,65.718c5.397,2.563,8.875,6.697,10.172,12.562 c0.934,4.216-1.575,6.644-5.787,5.667c-6.59-1.523-10.81-7.301-10.256-14.039c0.271-3.293,1.574-4.45,4.813-4.271 c0.366,0.021,0.729,0.061,1.093,0.089L41.175,65.718z"/> <path fill-rule="evenodd" clip-rule="evenodd" fill="#EA2480" d="M61.078,27.517c4.182-0.789,7.949,0.048,11.209,2.858 c2.096,1.806,2.372,3.089,1.242,5.542l0.012-0.016c-3.395,2.97-7.506,3.066-11.679,2.904l0.021,0.013 c-1.26-0.427-2.565-0.755-3.774-1.295c-4.15-1.85-4.695-3.89-2.069-7.423C57.318,28.462,58.987,27.574,61.078,27.517z"/> <path fill-rule="evenodd" clip-rule="evenodd" fill="#EA2480" d="M65.271,94.006c-5.186-0.054-8.338-1.641-10.914-4.532 c-1.068-1.2-0.867-2.16,0.283-3.102c0.721-0.585,1.527-1.007,2.405-1.286c5.152-1.634,10.312-1.767,15.419,0.121 c2.817,1.044,3.117,2.349,1.093,4.564C71.004,92.563,67.836,94.071,65.271,94.006z"/> <path fill-rule="evenodd" clip-rule="evenodd" fill="#020202" d="M61.078,27.517c-1.779,0.667-3.422,1.601-5.039,2.584 c-0.487-0.016-0.983-0.084-1.466-0.036c-0.996,0.099-1.817-0.166-1.71-1.285c0.074-0.79-0.228-2.129,1.54-1.729 c0.927,0.209,1.642-0.423,1.521-1.545c-0.115-1.075,0.41-1.443,1.403-1.328c0.818,0.093,1.479-0.353,1.424-1.06 c-0.107-1.361,0.731-1.898,1.64-2.507c0.347-0.234,0.75-0.542,0.89-0.908c0.681-1.756,2.028-1.584,3.567-1.629 c1.882-0.055,3.104,0.064,2.88,2.396c-0.086,0.907,0.797,0.885,1.347,0.701c1.442-0.487,1.564,0.337,1.543,1.392 c-0.028,1.517,0.708,2.743,1.471,4.095c-2.239,0.895-4.458,1.124-6.642-0.389c-0.72-0.499-1.13,0.546-1.834,0.492 C62.699,26.688,61.794,26.842,61.078,27.517z"/> <path fill-rule="evenodd" clip-rule="evenodd" fill="#E9247F" d="M37.608,52.235c-0.043,3.326-0.648,6.546-1.827,9.657 c-0.326,0.861-0.775,1.649-1.404,2.333c-0.718,0.777-1.326,0.829-2.116-0.021c-4.642-4.981-3.502-13.873,2.239-17.537 c1.332-0.849,2.031-0.405,2.5,0.866C37.56,49.05,37.588,50.643,37.608,52.235z"/> <path fill-rule="evenodd" clip-rule="evenodd" fill="#E9247F" d="M90.139,50.756c-0.044-1.304,0.007-2.765,0.515-4.174 c0.343-0.95,0.867-1.159,1.829-0.674c6.306,3.191,7.822,13.02,2.778,17.996c-0.844,0.832-1.438,0.725-2.076-0.138 c-0.96-1.299-1.543-2.797-1.901-4.333C90.628,56.642,90.068,53.819,90.139,50.756z"/> <path fill-rule="evenodd" clip-rule="evenodd" fill="#020202" d="M41.209,65.726c-0.37-0.6-0.973-0.376-1.495-0.41 c-1.624-0.104-2.138-0.73-1.748-2.35c0.35-1.449,0.508-2.766-0.264-4.215c-0.71-1.334,0.187-2.454,1.799-2.608 c0.741-0.072,1.467-0.007,2.144,0.33l-0.009-0.025c0.101,1.352-0.62,2.625-0.391,3.986c0.211,1.248,0.537,1.965,2.25,1.836 c2.132-0.161,4.477-0.614,6.445,0.898c0.651,0.499,0.965-0.103,1.395-0.396c0.937-0.64,1.566-0.62,1.676,0.744 c0.139,1.718,0.36,3.408,0.068,5.15c-0.198,1.188-0.127,2.447,0.014,3.651c0.09,0.753,0.479,1.5-0.583,1.748 c-0.861,0.201-2.021,0.192-2.191-0.757c-0.199-1.113-1.866-2.005-0.449-3.513c0.574-0.611-0.357-1.562-1.248-1.449 c-1.22,0.152-1.469-0.321-1.542-1.386c-0.073-1.073-0.32-1.688-1.864-1.248c-1.185,0.335-2.683-0.03-4.043,0.006L41.209,65.726z"/> <path fill-rule="evenodd" clip-rule="evenodd" fill="#E92580" d="M78.586,29.357c6.792,0.037,12.313,5.517,12.329,12.25 c0.002,1.259-0.317,1.738-1.599,1.058c-5.317-2.821-9.698-6.75-13.506-11.361c-0.876-1.06-0.531-1.63,0.773-1.755 C77.251,29.487,77.92,29.422,78.586,29.357z"/> <path fill-rule="evenodd" clip-rule="evenodd" fill="#E9257F" d="M36.519,41.257c0.251-7.167,6.854-12.776,13.914-11.823 c1.823,0.247,2.145,0.706,1.128,1.967c-3.673,4.561-8.049,8.309-13.284,10.979C36.739,43.162,36.46,42.917,36.519,41.257z"/> <path fill-rule="evenodd" clip-rule="evenodd" fill="#020202" d="M76.479,66.693c-0.272-1.28,0.252-2.365-0.219-3.454 c-0.341-0.791,0.422-0.891,0.962-0.894c1.657-0.015,3.293-0.425,4.984,0.112c2.118,0.671,2.775,0.253,3.068-1.9 c0.269-1.932,1.652-0.927,2.543-1.09c1.165-0.212,1.871,0.7,2.6,1.424c0.763,0.75,0.198,1.044-0.482,1.198 c-1.097,0.247-2.209,0.595-3.317,0.607c-1.135,0.012-2.104,0.688-2.447,1.329c-0.797,1.507-2.08,1.495-3.357,1.635 c-0.871,0.096-1.396,0.381-1.37,1.315c0.03,1.173-0.072,2.372-1.596,2.335c-1.647-0.04-1.268-1.44-1.356-2.474 C76.479,66.716,76.47,66.595,76.479,66.693z"/> <path fill-rule="evenodd" clip-rule="evenodd" fill="#020202" d="M66.176,60.222c-0.825-0.815-1.85-0.321-2.779-0.402 c-1.334-0.119-2.362-0.327-1.702-2.089c0.459-1.238-0.939-2.541,0.054-3.829c0.263-0.341,2.957-1.768,3.354-1.614 c0.831,0.326,0.501,0.688,0.111,1.204c-0.734,0.979-0.536,1.784,0.634,2.323c2.531,1.159,2.631,2.749,0.301,4.409 C66.147,60.225,66.176,60.222,66.176,60.222z"/> <path fill-rule="evenodd" clip-rule="evenodd" fill="#020202" d="M55.921,77.086c-0.057,1.396-0.178,2.671,1.953,2.629 c1.516-0.032,1.431,1.491,1.457,2.51c0.025,1.053-0.926,1.113-1.742,1.079c-1.196-0.045-2.393-0.138-3.589-0.198 c-0.474-0.023-0.893-0.212-0.953-0.674c-0.181-1.377-0.315-2.764-0.402-4.149c-0.051-0.825,0.447-1.21,1.253-1.21 c0.672,0.003,1.341,0.003,2.01,0.003L55.921,77.086z"/> <path fill-rule="evenodd" clip-rule="evenodd" fill="#020202" d="M61.862,38.805c-0.058,1.268,0.45,2.056,1.764,2.344 c0.528,0.117,1.415,0.261,1.211,1.074c-0.279,1.116,0.367,2.375-0.494,3.36c-0.396,0.447-0.925,0.186-1.347-0.075 c-0.657-0.411-1.517-0.769-1.399-1.713c0.163-1.311,0.183-2.299-1.625-2.157c-0.193,0.016-1.687-0.315-1.153-1.33 c0.333-0.63,0.161-2.221,1.792-1.482c0.35,0.159,0.843,0.003,1.27-0.009C61.883,38.818,61.862,38.805,61.862,38.805z"/> <path fill-rule="evenodd" clip-rule="evenodd" fill="#020202" d="M73.529,35.917c1.692-0.67,3.426-0.046,5.136-0.123 c0.692-0.031,0.83,0.776,0.767,1.425c-0.063,0.614,0.266,1.38-0.664,1.669c-1.526,0.477-3.213,0.652-4.6,0.184 c-1.19-0.4-0.79-2.012-0.627-3.171L73.529,35.917z"/> <path fill-rule="evenodd" clip-rule="evenodd" fill="#020202" d="M71.381,79.985c1.039,0.081,2.007-0.268,2.391,0.862 c0.247,0.731,0.259,1.424-0.338,2.029c-0.782,0.795-1.668,0.725-2.467,0.161c-0.623-0.443-1.17-0.012-1.748-0.089 c-0.471-0.061-1.076,0.104-1.266-0.469c-0.163-0.496,0.187-0.95,0.563-1.26C69.412,80.486,70.321,79.743,71.381,79.985z"/> <path fill-rule="evenodd" clip-rule="evenodd" fill="#020202" d="M79.732,27.608c0.479-0.173,0.692-0.326,0.787-0.272 c0.644,0.359,1.48-0.186,2.027,0.458c0.061,0.07-0.039,0.423-0.128,0.453C81.524,28.542,80.725,28.315,79.732,27.608z"/> <path fill-rule="evenodd" clip-rule="evenodd" fill="#020202" d="M73.483,25.197c0.046,0.53-0.147,0.781-0.497,0.75 c-0.604-0.053-1.021-0.419-1.13-1.019c-0.061-0.345,0.224-0.615,0.533-0.618C73.05,24.304,73.259,24.864,73.483,25.197z"/> <path fill-rule="evenodd" clip-rule="evenodd" fill="#253E1E" d="M83.735,10.871c0.778-0.529,1.589-0.964,2.777-1.03 c-0.619,1.016-1.473,1.234-2.285,1.506C84.064,11.188,83.898,11.028,83.735,10.871z"/> <path fill-rule="evenodd" clip-rule="evenodd" fill="#284421" d="M41.608,9.88c0.64-0.043,1.317-0.283,1.839,0.333 c-0.141,0.145-0.28,0.29-0.419,0.434c-0.476-0.244-1.099-0.231-1.397-0.791L41.608,9.88z"/> <path fill-rule="evenodd" clip-rule="evenodd" fill="#F7F6F6" d="M4.874,112.283c-0.014-1.242-0.498-2.688,1.83-2.453 c2.275,0.23,3.333,0.797,3.324,2.453c-0.007,1.641-1.012,2.142-3.383,2.377C4.452,114.874,4.854,113.544,4.874,112.283z"/> <path fill-rule="evenodd" clip-rule="evenodd" fill="#F9F8F8" d="M62.214,117.817c-0.033,1.71-1.505,3.192-3.168,3.183 c-1.77-0.009-3.135-1.523-3.061-3.401c0.071-1.815,1.426-3.115,3.184-3.055C60.855,114.6,62.247,116.098,62.214,117.817z"/> <path fill-rule="evenodd" clip-rule="evenodd" fill="#FAF9F9" d="M47.915,117.769c0.004,1.883-1.402,3.372-3.132,3.318 c-1.586-0.049-3.047-1.629-3.055-3.298c-0.007-1.729,1.376-3.203,3.037-3.245C46.616,114.497,47.91,115.82,47.915,117.769z"/> <path fill-rule="evenodd" clip-rule="evenodd" fill="#F8F7F7" d="M113.538,111.91c-0.338-1.451,0.156-2.281,2.165-2.068 c1.924,0.2,3.043,0.876,3.087,2.364c0.049,1.61-1.133,2.239-3.542,2.444C112.981,114.842,113.594,113.379,113.538,111.91z"/> <path fill-rule="evenodd" clip-rule="evenodd" fill="#FAFAFA" d="M16.99,117.717c0.022-1.856,1.287-3.253,2.967-3.271 c1.717-0.016,3.144,1.52,3.126,3.365c-0.019,1.846-1.492,3.346-3.217,3.273C18.202,121.017,16.967,119.572,16.99,117.717z"/> <path fill-rule="evenodd" clip-rule="evenodd" fill="#EAE8E8" d="M72.53,116.657c-0.485-0.003-0.975,0.035-1.457-0.012 c-0.513-0.052-1.265,0.314-1.481-0.291c-0.264-0.736,0.473-1.185,0.987-1.563c1.417-1.054,3.601-0.679,4.722,0.775 c0.172,0.224,0.396,0.557,0.34,0.778c-0.109,0.461-0.583,0.301-0.92,0.308C73.991,116.671,73.259,116.659,72.53,116.657z"/> <path fill-rule="evenodd" clip-rule="evenodd" fill="#579F45" d="M88.703,9.025c-0.063,0.285-0.279,0.4-0.533,0.406 c-0.242,0.006-0.538-0.035-0.447-0.383c0.03-0.121,0.261-0.234,0.414-0.267C88.358,8.734,88.619,8.709,88.703,9.025z"/> <path fill-rule="evenodd" clip-rule="evenodd" fill="#407D3B" d="M41.631,9.857c-0.502-0.112-1.033-0.166-1.437-0.814 c0.749-0.008,1.333-0.051,1.414,0.837L41.631,9.857z"/> </g> </svg>