<svg xmlns="http://www.w3.org/2000/svg" viewBox="0 0 128 128">
    <path fill="#2c2255" d="M75.91 50.043v3.445h2.719v-3.445Zm-6.14.129v22.996h2.722V50.172Zm-54.747.953c-7.55 0-13.671 6.102-13.671 13.629 0 7.527 6.12 13.629 13.671 13.629.168 0 .336-.008.504-.012-6.726-1.008-11.902-6.73-11.902-13.617 0-6.887 5.176-12.61 11.902-13.613a10.85 10.85 0 0 0-.504-.016Zm2.415.574c-3.602 0-6.68 1.274-9.243 3.817-1.605 1.617-2.703 3.441-3.293 5.476H29.97c-.594-2.035-1.7-3.86-3.317-5.476-2.03-2.032-4.398-3.246-7.101-3.657-.7-.105-1.406-.16-2.113-.16Zm72.535 4.52c-1.215 0-2.254.238-3.13.715-.87.48-1.593 1.21-2.163 2.195v-2.512h-2.735v22.848h2.735v-8.778c.57.985 1.293 1.715 2.164 2.192.875.48 1.914.719 3.129.719 2.007 0 3.64-.797 4.898-2.395 1.254-1.594 1.883-3.695 1.883-6.297 0-2.597-.629-4.699-1.883-6.293-1.258-1.597-2.89-2.394-4.898-2.394Zm14.277 0c-2.027 0-3.594.422-4.7 1.27-1.1.847-1.652 2.05-1.652 3.605 0 1.281.372 2.289 1.122 3.023.75.735 1.964 1.278 3.652 1.633l.945.223c1.684.363 2.774.742 3.274 1.136.496.395.746.961.746 1.7 0 .796-.344 1.418-1.035 1.855-.692.438-1.676.656-2.957.656-.954 0-1.922-.129-2.895-.39a14.721 14.721 0 0 1-2.973-1.176v2.808c1.067.344 2.078.606 3.04.778.96.172 1.882.258 2.769.258 2.129 0 3.8-.45 5.02-1.344 1.214-.899 1.824-2.113 1.824-3.652 0-1.348-.407-2.403-1.22-3.157-.812-.754-2.187-1.336-4.116-1.75l-.93-.207c-1.46-.324-2.43-.668-2.91-1.027-.484-.36-.727-.856-.727-1.484 0-.829.336-1.45 1.012-1.864.676-.414 1.688-.617 3.04-.617.886 0 1.741.098 2.57.293.831.2 1.636.496 2.394.887v-2.57c-.75-.297-1.566-.52-2.453-.669a17.642 17.642 0 0 0-2.84-.218Zm-41.71 0c-2.583 0-4.614.773-6.099 2.32-1.48 1.547-2.222 3.668-2.222 6.367 0 2.66.734 4.774 2.203 6.34 1.465 1.567 3.445 2.352 5.941 2.352.914 0 1.778-.09 2.594-.266.813-.18 1.602-.445 2.356-.797V70.02c-.77.425-1.54.742-2.313.953-.762.21-1.55.32-2.344.32-1.761 0-3.133-.559-4.105-1.68-.977-1.117-1.465-2.687-1.465-4.707s.488-3.586 1.465-4.707c.972-1.117 2.344-1.676 4.105-1.676.793 0 1.582.106 2.344.317.773.215 1.543.531 2.313.953v-2.54a11.026 11.026 0 0 0-2.32-.776 11.757 11.757 0 0 0-2.454-.258Zm-16.56 0c-2.48 0-4.457.797-5.917 2.386-1.465 1.59-2.196 3.743-2.196 6.454 0 2.62.774 4.695 2.313 6.234 1.543 1.539 3.633 2.305 6.273 2.305 1.047 0 2.094-.11 3.117-.325a16.456 16.456 0 0 0 3.004-.945v-2.574a13.51 13.51 0 0 1-2.922 1.152c-.992.258-2.011.387-3.035.387-1.804 0-3.21-.492-4.219-1.473-1.011-.98-1.574-2.406-1.691-4.277h12.5v-1.328c0-2.465-.648-4.414-1.941-5.844-1.297-1.434-3.059-2.152-5.286-2.152Zm73.442 0c-2.48 0-4.457.797-5.918 2.386-1.465 1.59-2.195 3.743-2.195 6.454 0 2.62.77 4.695 2.312 6.234 1.543 1.539 3.633 2.305 6.274 2.305 1.046 0 2.093-.11 3.117-.325a16.417 16.417 0 0 0 3-.945v-2.574c-.965.512-1.938.898-2.918 1.152-.992.258-2.012.387-3.04.387-1.8 0-3.206-.492-4.218-1.473-1.008-.98-1.574-2.406-1.691-4.277h12.503v-1.328c0-2.465-.648-4.414-1.941-5.844-1.297-1.434-3.059-2.152-5.285-2.152Zm-43.512.398v16.551h2.719v-16.55Zm13.395 1.88c1.441 0 2.57.566 3.39 1.702.825 1.14 1.235 2.707 1.235 4.707s-.41 3.57-1.235 4.707c-.82 1.14-1.949 1.707-3.39 1.707-1.438 0-2.57-.566-3.39-1.707-.825-1.136-1.235-2.707-1.235-4.707s.41-3.566 1.234-4.707c.82-1.136 1.953-1.703 3.39-1.703Zm-43.293.026c1.34 0 2.414.446 3.226 1.332.813.887 1.23 2.07 1.25 3.56l-9.695.015c.14-1.555.664-2.762 1.574-3.621.91-.856 2.125-1.286 3.645-1.286Zm73.437 0c1.34 0 2.418.446 3.23 1.332.813.887 1.231 2.07 1.25 3.56l-9.695.015c.137-1.555.664-2.762 1.575-3.621.91-.856 2.125-1.286 3.64-1.286ZM4.57 62.453a14.08 14.08 0 0 0-.168 1.57H30.47a13.213 13.213 0 0 0-.168-1.57Zm-.168 3.031c.028.536.086 1.059.168 1.57H30.3c.087-.519.145-1.042.173-1.57Zm.5 3.032c.59 2.027 1.688 3.847 3.293 5.453 2.563 2.562 5.64 3.84 9.242 3.84.7 0 1.399-.051 2.094-.157 2.711-.41 5.086-1.636 7.121-3.683 1.614-1.606 2.72-3.426 3.317-5.453Zm0 0"/>
</svg>
