<?xml version="1.0" encoding="UTF-8" standalone="no"?>
<!-- Generator: Adobe Illustrator 16.0.0, SVG Export Plug-In . SVG Version: 6.00 Build 0)  -->

<svg
   xmlns:dc="http://purl.org/dc/elements/1.1/"
   xmlns:cc="http://creativecommons.org/ns#"
   xmlns:rdf="http://www.w3.org/1999/02/22-rdf-syntax-ns#"
   xmlns:svg="http://www.w3.org/2000/svg"
   xmlns="http://www.w3.org/2000/svg"
   xmlns:xlink="http://www.w3.org/1999/xlink"
   xmlns:sodipodi="http://sodipodi.sourceforge.net/DTD/sodipodi-0.dtd"
   xmlns:inkscape="http://www.inkscape.org/namespaces/inkscape"
   version="1.1"
   id="Layer_1"
   x="0px"
   y="0px"
   width="223.35612"
   height="209.05273"
   viewBox="71.07 323.663 223.35613 209.05273"
   enable-background="new 71.07 323.663 469.86 110.329"
   xml:space="preserve"
   inkscape:version="0.48.4 r9939"
   sodipodi:docname="eclipse-original.svg"
   inkscape:export-filename="C:\Users\Thibault Paris-33\Desktop\Devicon\icons\eclipse\eclipse-original.png"
   inkscape:export-xdpi="90"
   inkscape:export-ydpi="90"><metadata
   id="metadata3119"><rdf:RDF><cc:Work
       rdf:about=""><dc:format>image/svg+xml</dc:format><dc:type
         rdf:resource="http://purl.org/dc/dcmitype/StillImage" /><dc:title></dc:title></cc:Work></rdf:RDF></metadata><defs
   id="defs3117"><linearGradient
     inkscape:collect="always"
     xlink:href="#SVGID_1_"
     id="linearGradient4178"
     gradientUnits="userSpaceOnUse"
     gradientTransform="translate(-371,474.5)"
     x1="502.3848"
     y1="-40.075699"
     x2="502.3848"
     y2="-113.7106" /><linearGradient
     inkscape:collect="always"
     xlink:href="#SVGID_2_"
     id="linearGradient4180"
     gradientUnits="userSpaceOnUse"
     gradientTransform="translate(-371,474.5)"
     x1="502.38571"
     y1="-40.074699"
     x2="502.38571"
     y2="-113.7096" /><linearGradient
     inkscape:collect="always"
     xlink:href="#SVGID_3_"
     id="linearGradient4182"
     gradientUnits="userSpaceOnUse"
     gradientTransform="translate(-371,474.5)"
     x1="502.38571"
     y1="-40.077599"
     x2="502.38571"
     y2="-113.7071" /></defs><sodipodi:namedview
   pagecolor="#ffffff"
   bordercolor="#666666"
   borderopacity="1"
   objecttolerance="10"
   gridtolerance="10"
   guidetolerance="10"
   inkscape:pageopacity="0"
   inkscape:pageshadow="2"
   inkscape:window-width="1920"
   inkscape:window-height="1017"
   id="namedview3115"
   showgrid="false"
   fit-margin-top="0"
   fit-margin-left="0"
   fit-margin-right="0"
   fit-margin-bottom="0"
   inkscape:zoom="2.6486783"
   inkscape:cx="196.44186"
   inkscape:cy="79.490369"
   inkscape:window-x="-8"
   inkscape:window-y="-8"
   inkscape:window-maximized="1"
   inkscape:current-layer="Layer_1" />
<path
   d="M 132.54203,457.04467 H 98.294086 c 4.534624,15.55516 12.949334,29.49855 25.268694,41.81791 19.6398,19.64389 43.25582,29.44947 70.87262,29.44947 5.5205,0 10.86918,-0.41113 16.06446,-1.19451 20.80157,-3.13967 39.01369,-12.54435 54.61794,-28.25496 12.39913,-12.31527 20.87316,-26.26275 25.44255,-41.81791 H 276.66195 256.339 132.54203 z"
   id="path3054"
   inkscape:connector-curvature="0"
   style="fill:#2c2255"
   inkscape:export-filename="C:\Users\Thibault Paris-33\Desktop\Devicon\icons\eclipse\g3107.png"
   inkscape:export-xdpi="90"
   inkscape:export-ydpi="90" />
<g
   id="g3056"
   transform="matrix(2.0453858,0,0,2.0453858,-74.295569,-346.66106)"
   inkscape:export-filename="C:\Users\Thibault Paris-33\Desktop\Devicon\icons\eclipse\g3107.png"
   inkscape:export-xdpi="90"
   inkscape:export-ydpi="90">
	<path
   d="m 91.891,370.194 h -8.747 c -0.32,1.922 -0.538,3.884 -0.637,5.896 h 10.396 5.215 75.275 6.871 c -0.1,-2.012 -0.318,-3.974 -0.641,-5.896"
   id="path3058"
   inkscape:connector-curvature="0"
   style="fill:#2c2255" />
	<path
   d="m 82.507,381.565 c 0.099,2.013 0.316,3.975 0.637,5.896 h 9.094 6.893 73.648 6.846 c 0.322,-1.921 0.542,-3.883 0.642,-5.896"
   id="path3060"
   inkscape:connector-curvature="0"
   style="fill:#2c2255" />
</g>
<path
   d="m 290.56444,399.32797 c -4.5653,-15.59811 -13.04138,-29.60491 -25.44664,-42.01222 -15.56334,-15.5613 -33.72432,-24.90053 -54.4584,-28.04224 -5.24437,-0.79566 -10.64623,-1.21292 -16.224,-1.21292 -27.6168,0 -51.23487,9.75445 -70.87262,29.25516 -12.32345,12.40731 -20.74226,26.41411 -25.27483,42.01222"
   id="path3062"
   inkscape:connector-curvature="0"
   style="fill:#2c2255"
   inkscape:export-filename="C:\Users\Thibault Paris-33\Desktop\Devicon\icons\eclipse\g3107.png"
   inkscape:export-xdpi="90"
   inkscape:export-ydpi="90" />
<g
   id="g3064"
   transform="matrix(2.0453858,0,0,2.0453858,-74.295569,-346.66106)"
   inkscape:export-filename="C:\Users\Thibault Paris-33\Desktop\Devicon\icons\eclipse\g3107.png"
   inkscape:export-xdpi="90"
   inkscape:export-ydpi="90">
	<path
   d="m 79.6,378.829 c 0,-25.824 19.395,-47.281 44.626,-51.055 -0.626,-0.023 -1.255,-0.049 -1.887,-0.049 -28.314,0 -51.269,22.881 -51.269,51.104 0,28.224 22.954,51.103 51.269,51.103 0.634,0 1.263,-0.023 1.891,-0.047 C 98.995,426.111 79.6,404.654 79.6,378.829 z"
   id="path3066"
   inkscape:connector-curvature="0"
   style="fill:#f7941e" />
</g>








<g
   id="g3084"
   transform="matrix(2.0453858,0,0,2.0453858,-74.295569,-346.66106)"
   inkscape:export-filename="C:\Users\Thibault Paris-33\Desktop\Devicon\icons\eclipse\g3107.png"
   inkscape:export-xdpi="90"
   inkscape:export-ydpi="90">
	
		<linearGradient
   id="SVGID_1_"
   gradientUnits="userSpaceOnUse"
   x1="502.3848"
   y1="-40.075699"
   x2="502.3848"
   y2="-113.7106"
   gradientTransform="translate(-371,474.5)">
		<stop
   offset="0.3033"
   style="stop-color:#473788"
   id="stop3087" />
		<stop
   offset="0.872"
   style="stop-color:#2C2255"
   id="stop3089" />
	</linearGradient>
	<path
   d="m 164.653,376.089 c -0.164,-2.021 -0.504,-3.992 -1.012,-5.896 h -64.51 c -0.508,1.902 -0.849,3.874 -1.013,5.896 h 66.535 z"
   id="path3091"
   inkscape:connector-curvature="0"
   style="fill:url(#linearGradient4178)" />
	
		<linearGradient
   id="SVGID_2_"
   gradientUnits="userSpaceOnUse"
   x1="502.38571"
   y1="-40.074699"
   x2="502.38571"
   y2="-113.7096"
   gradientTransform="translate(-371,474.5)">
		<stop
   offset="0.3033"
   style="stop-color:#473788"
   id="stop3094" />
		<stop
   offset="0.872"
   style="stop-color:#2C2255"
   id="stop3096" />
	</linearGradient>
	<path
   d="M 164.653,381.565 H 98.119 c 0.164,2.021 0.503,3.991 1.012,5.896 h 64.511 c 0.508,-1.904 0.847,-3.875 1.011,-5.896 z"
   id="path3098"
   inkscape:connector-curvature="0"
   style="fill:url(#linearGradient4180)" />
	
		<linearGradient
   id="SVGID_3_"
   gradientUnits="userSpaceOnUse"
   x1="502.38571"
   y1="-40.077599"
   x2="502.38571"
   y2="-113.7071"
   gradientTransform="translate(-371,474.5)">
		<stop
   offset="0.3033"
   style="stop-color:#473788"
   id="stop3101" />
		<stop
   offset="0.8631"
   style="stop-color:#2C2255"
   id="stop3103" />
	</linearGradient>
	<path
   d="m 131.386,412.217 c 13.397,0 24.945,-7.893 30.263,-19.281 h -60.526 c 5.318,11.388 16.866,19.281 30.263,19.281 z"
   id="path3105"
   inkscape:connector-curvature="0"
   style="fill:url(#linearGradient4182)" />
</g>
<g
   id="g3107"
   transform="matrix(2.0453858,0,0,2.0453858,-74.295569,-346.66106)"
   inkscape:export-xdpi="90"
   inkscape:export-ydpi="90">
	<path
   d="m 93.188,381.565 h 4.884 66.706 8.763 6.657 c 0.046,-0.871 0.072,-1.748 0.072,-2.632 0,-0.955 -0.035,-1.901 -0.089,-2.845 H 173.54 164.777 98.071 92.842 82.507 c -0.054,0.942 -0.089,1.89 -0.089,2.845 0,0.884 0.026,1.761 0.072,2.632 h 10.698 z"
   id="path3109"
   inkscape:connector-curvature="0"
   style="fill:#ffffff" />
	<path
   d="M 100.928,364.718 H 84.376 c -0.544,1.783 -0.895,3.612 -1.232,5.477 h 8.525 7.259 64.679 9.16 6.547 c -0.338,-1.863 -0.773,-3.692 -1.316,-5.477"
   id="path3111"
   inkscape:connector-curvature="0"
   style="fill:#ffffff" />
	<path
   d="m 173.026,387.46 h -9.16 -64.678 -6.912 -9.133 c 0.328,1.863 0.701,3.691 1.236,5.476 h 16.807 60.682 9.962 6.488 c 0.534,-1.783 0.965,-3.611 1.294,-5.476 h -6.586 z"
   id="path3113"
   inkscape:connector-curvature="0"
   style="fill:#ffffff" />
</g>
</svg>