<?xml version="1.0" encoding="utf-8"?>
<!-- Generator: Adobe Illustrator 16.0.0, SVG Export Plug-In . SVG Version: 6.00 Build 0)  -->
<!DOCTYPE svg PUBLIC "-//W3C//DTD SVG 1.1//EN" "http://www.w3.org/Graphics/SVG/1.1/DTD/svg11.dtd">
<svg version="1.1" id="Layer_1" xmlns="http://www.w3.org/2000/svg" xmlns:xlink="http://www.w3.org/1999/xlink" x="0px" y="0px"
	 width="500px" height="500px" viewBox="0 0 500 500" enable-background="new 0 0 500 500" xml:space="preserve">
<path fill="#EE4323" d="M350.423,190.891c-1.025-0.536-1.917-1.083-2.962-1.617c1.562,3.768,2.069,6.979,2.01,9.848
	c0.554-2.326,0.923-4.722,0.971-7.215c0.035,3.097-0.34,6.009-1.069,8.718c0.054-0.489,0.087-0.989,0.099-1.503
	c-0.854,3.599-2.282,6.938-4.194,9.991c0.323-0.314,0.63-0.64,0.919-0.978c-11.249,18.825-41.941,22.936-57.081,3.496
	c-24.293-31.214,0.501-64.864,3.973-97.914c4.343-41.424-21.632-81.637-53.842-105.7c17.738,28.695-5.634,66.664-24.33,87.883
	c-18.131,20.581-40.179,37.76-60.195,56.451c-21.494,20.085-42.174,41.228-59.84,64.796
	C59.533,264.31,37.889,323.628,53.795,382.479c15.894,58.811,66.831,96.242,124.35,109.479
	c-29.019-12.544-56.173-44.424-56.239-77.041c-0.071-35.57,22.46-65.763,50.494-85.603c-3.371,12.731-5.21,24.378,3.139,35.764
	c7.766,10.59,21.356,15.73,34.191,12.938c29.992-6.561,31.368-39.532,13.59-58.743c-17.582-19.018-34.591-40.512-27.898-68.098
	c3.353-13.826,11.844-26.776,22.603-36.037c-8.273,21.729,15.228,43.159,30.704,53.827c26.856,18.521,56.312,32.518,81.009,54.22
	c25.969,22.812,45.149,53.659,41.276,89.435c-4.202,38.777-35.014,65.75-69.571,79.365
	c73.032-16.122,148.505-72.806,150.044-153.813C452.765,271.535,407.056,220.249,350.423,190.891z"/>
</svg>
