<svg xmlns="http://www.w3.org/2000/svg" viewBox="0 0 128 128"><path fill="#121212" d="M0 47.8176v7.0474h13.8158c1.7327 0 2.998.378 3.8106 1.0196.818.6458 1.2134 1.543 1.2134 2.7426 0 1.382-.3903 2.2344-1.2017 2.8124v.002c-.7987.5697-2.0794.847-3.8223.847H0v7.189h13.4204c1.3739 0 2.3802.1994 3.0586.7714.6807.5752 1.1026 1.5698 1.223 3.3163v.004c.1864 2.4456.1624 3.634.1396 4.803-.006.3214-.0126.6404-.0136.9827l-.002.4981h8.978v-.4962c0-1.7898-.0082-3.5162-.281-7.0359v-.0078c-.178-1.8706-.7624-3.322-1.7328-4.3785-.7592-.8264-1.8095-1.3454-2.9985-1.7192 3.411-.9015 5.9213-3.809 5.9213-8.0922 0-3.1377-1.0444-5.7483-3.1283-7.5378-2.088-1.7927-5.1913-2.7678-9.2823-2.7678zm92.2936.3508v7.72h8.755v-7.72Zm-91.3012.6415h14.31c3.9335 0 6.7813.9361 8.635 2.5275 1.8498 1.5886 2.7833 3.8641 2.7833 6.7858 0 4.3066-2.554 6.9652-6.057 7.4235l-.4168.0543-.0407 1.1765.411.0834c1.5145.3051 2.6422.8735 3.4423 1.7444.8.8708 1.3116 2.083 1.475 3.8009.2508 3.2395.2556 4.8025.2578 6.4543H18.828c.0023-.1552.003-.313.006-.469.0227-1.1681.0448-2.4213-.1435-4.894v-.004c-.1302-1.8792-.614-3.195-1.572-4.0044-.955-.8054-2.2318-1.004-3.6981-1.004H.9924v-5.2042h12.8234c1.8428 0 3.327-.2698 4.398-1.033 1.086-.7737 1.6184-2.0335 1.6184-3.6207 0-1.4322-.5297-2.685-1.5894-3.5218-1.053-.8312-2.5513-1.2327-4.427-1.2327H.9924Zm92.2936.3509h6.7703v5.7352H93.286zm-53.3716 6.7218c-7.0168 0-12.3331 5.2062-12.3331 12.3719 0 3.61 1.3014 6.552 3.5101 8.567 2.2112 2.0163 5.3226 3.109 8.9218 3.109 2.9683 0 5.5098-.7227 7.4584-2.1127 1.8971-1.3544 3.226-3.3475 3.8319-5.8594l.1337-.5582-7.028-.6532-.1474.3237c-.3449.7638-.8069 1.2824-1.4284 1.636v.002c-.6466.368-1.4745.5465-2.5236.5465-1.1524 0-2.1744-.3069-2.9268-.9168-.675-.5474-1.0976-1.3754-1.256-2.4635h15.378v-2.5662c0-3.0823-1.0012-5.9422-2.9596-8.0322-1.9575-2.088-4.8781-3.3938-8.631-3.3938zm27.901.6997c-2.9479 0-5.1806 1.2346-6.5415 3.202v-2.603h-8.6563V80.035h8.6563V68.807c0-1.6308.2408-2.972.752-3.8494.5192-.8916 1.2504-1.351 2.479-1.351.5685 0 1.006.0927 1.3471.2617.3408.1688.5869.409.785.752h.002v.002c.3931.6773.5543 1.8017.5543 3.2892v12.1238h8.6562V68.8069c0-1.6335.2299-2.976.7346-3.8513.2532-.4398.5715-.768.977-.9963.4043-.2277.8968-.3528 1.5195-.3528.569 0 1.0062.094 1.3393.2617v-.002c.3245.1642.5905.4245.7637.7443l.002.0039.002.0039c.3814.6768.533 1.8041.533 3.293v12.1238h8.6562V65.7696c0-2.3611-.4471-4.6394-1.7134-6.3594-1.2578-1.7107-3.3608-2.828-6.4698-2.828-3.5504 0-6.1302 1.741-7.474 4.0743-.492-1.1063-1.1654-2.096-2.1727-2.795-1.1721-.8134-2.7298-1.2792-4.7313-1.2792zm-27.901.2927c3.5252 0 6.1421 1.1983 7.906 3.0799 1.765 1.8835 2.6923 4.4857 2.6923 7.3537v1.5738H34.997l.0523.7153c.1105 1.5235.7408 2.7264 1.7096 3.512.9664.7835 2.2223 1.1378 3.5509 1.1378 1.1619 0 2.1738-.199 3.0159-.6784.6884-.3917 1.1637-1.0505 1.568-1.7793l5.212.4846c-.6088 2.0114-1.6617 3.6286-3.2117 4.7351-1.749 1.2477-4.0734 1.9286-6.8808 1.9286-3.399 0-6.2525-1.025-8.253-2.8492-1.999-1.8236-3.1865-4.46-3.1865-7.8344 0-6.682 4.8074-11.3795 11.3407-11.3795zm61.5956.409.5756.7888 7.6135 10.4356-8.7008 11.3736V57.3285H92.344v22.8539h8.6543v-.0426h8.8771l4.2332-5.7973 4.2312 5.7973H128l-8.9353-11.9726-.1512.1939.1492-.1958v-.002l8.2512-10.8794h-9.075l-3.5837 5.0375-3.4889-5.0375zm-33.6946.2907c1.849 0 3.184.4218 4.1653 1.1029.981.6808 1.6439 1.6443 2.0778 2.8395l.5428 1.4963.6842-1.4362c1.0773-2.2609 3.4346-4.0025 6.9079-4.0025 2.879 0 4.597.9638 5.6713 2.4248 1.0817 1.4694 1.5196 3.5365 1.5196 5.7701v13.2731h-6.6715V67.9114c0-1.545-.1179-2.8117-.659-3.7757a2.775 2.775 0 0 0-1.1862-1.1533l-.002-.002c-.5104-.257-1.1076-.3663-1.7851-.3663-.7587 0-1.4359.1586-2.008.4807-.571.3215-1.0207.794-1.349 1.3645-.6524 1.1313-.8664 2.6267-.8664 4.3475v10.236h-6.6715V67.9113c0-1.5511-.1304-2.8252-.69-3.7893-.2821-.4875-.686-.8861-1.2017-1.1416-.5123-.2538-1.111-.3663-1.789-.3663-1.5083 0-2.668.6965-3.3357 1.8432-.6578 1.1291-.8877 2.626-.8877 4.3495v10.2358H53.61v-20.869h6.6715v3.0643l1.0931.25.1725-.3547c1.0756-2.213 3.1642-3.5586 6.2683-3.5586zm35.6483.7017h7.1832l3.4578 4.991.535.7791.5543-.7714 3.5567-4.9987h6.5648l-7.1909 9.4838-.3082.4012.3063.4032 7.9003 10.5828h-7.1793l-4.1963-5.7508-.535-.7365-.5427.7365-4.1982 5.7508h-6.563l7.8287-10.23.3004-.3974-.2927-.4012zm-10.1273.0445h6.6695v20.8692h-6.6695zm-53.5209 2.9946c-1.4263 0-2.5535.463-3.33 1.2599-.7717.7933-1.1707 1.8593-1.3315 2.9965v.002l-.1047.7598h9.2261l-.0387-.7016v-.002c-.056-1.1284-.452-2.2037-1.2056-3.0082-.6548-.6978-1.6118-1.0975-2.7194-1.2114v-.095zm0 .9924c1.111 0 1.9184.3825 2.4907.9924.4882.5211.6977 1.2683.8043 2.041h-6.813c.1713-.8049.4064-1.5665.8975-2.072l.002-.002c.583-.5974 1.4005-.9595 2.6186-.9595zM0 74.327v5.526h11.2438v-3.4442c0-.3866-.0854-.8811-.409-1.318-.3121-.4208-.8956-.7637-1.7056-.7637zm.9924.9925h8.1368c.5634 0 .7646.1679.909.3624.1468.1982.2132.5041.2132.7269v2.4519H.9924Z"/></svg>
