<?xml version="1.0" encoding="UTF-8" standalone="no"?>
<svg
   width="128"
   height="128"
   viewBox="0 0 128 128"
   fill="none"
   version="1.1"
   id="svg6"
   sodipodi:docname="remix-plain-wordmark.svg"
   inkscape:version="1.3.2 (091e20e, 2023-11-25, custom)"
   xmlns:inkscape="http://www.inkscape.org/namespaces/inkscape"
   xmlns:sodipodi="http://sodipodi.sourceforge.net/DTD/sodipodi-0.dtd"
   xmlns="http://www.w3.org/2000/svg"
   xmlns:svg="http://www.w3.org/2000/svg">
  <defs
     id="defs6" />
  <sodipodi:namedview
     id="namedview6"
     pagecolor="#505050"
     bordercolor="#eeeeee"
     borderopacity="1"
     inkscape:showpageshadow="0"
     inkscape:pageopacity="0"
     inkscape:pagecheckerboard="0"
     inkscape:deskcolor="#505050"
     showgrid="false"
     inkscape:zoom="4.5133333"
     inkscape:cx="61.262925"
     inkscape:cy="62.149188"
     inkscape:window-width="1920"
     inkscape:window-height="991"
     inkscape:window-x="-9"
     inkscape:window-y="-9"
     inkscape:window-maximized="1"
     inkscape:current-layer="svg6" />
  <path
     fill-rule="evenodd"
     clip-rule="evenodd"
     d="m 26.071452,72.409686 c 0.282288,3.653927 0.282288,5.366722 0.282288,7.236381 h -8.389412 c 0,-0.407366 0.0072,-0.779855 0.01443,-1.15767 0.02268,-1.174335 0.04639,-2.39884 -0.142432,-4.871903 -0.249472,-3.620424 -1.796639,-4.42502 -4.641504,-4.42502 H 10.674341 1.6e-7 V 62.604199 H 13.594116 c 3.593449,0 5.390088,-1.101659 5.390088,-4.018169 0,-2.564468 -1.796639,-4.11868 -5.390088,-4.11868 H 1.6e-7 V 48.021477 H 15.091286 c 8.135302,0 12.17804,3.871957 12.17804,10.05702 0,4.626212 -2.844864,7.643232 -6.687957,8.146126 3.244156,0.653745 5.140618,2.514298 5.490083,6.185063 z"
     fill="#121212"
     id="path1"
     style="stroke-width:0.171812" />
  <path
     d="M 1.6e-7,79.646067 V 74.735334 H 8.8706579 c 1.4817071,0 1.8033391,1.107501 1.8033391,1.767775 v 3.142958 z"
     fill="#121212"
     id="path2"
     style="stroke-width:0.171812" />
  <path
     d="m 127.30296,57.561171 h -8.31485 l -3.78416,5.317583 -3.68434,-5.317583 h -8.9124 l 8.01606,10.986179 -8.71328,11.387361 h 8.31502 l 4.43138,-6.069949 4.4312,6.069949 H 128 l -8.7631,-11.738545 z"
     fill="#121212"
     id="path3"
     style="stroke-width:0.171812" />
  <path
     d="m 74.929138,61.269047 c -0.946169,-2.608623 -2.987468,-4.41454 -6.920934,-4.41454 -3.335903,0 -5.725809,1.505074 -6.920762,3.963018 v -3.360988 h -8.06589 v 22.373369 h 8.06589 V 68.843898 c 0,-3.360988 0.945997,-5.568258 3.584859,-5.568258 2.439731,0 3.037294,1.605241 3.037294,4.665386 v 11.88888 h 8.065889 V 68.843898 c 0,-3.360988 0.896172,-5.568258 3.58486,-5.568258 2.439731,0 2.987468,1.605241 2.987468,4.665386 v 11.88888 h 8.06589 V 65.783925 c 0,-4.665385 -1.792344,-8.929418 -7.916585,-8.929418 -3.734164,0 -6.373026,1.906255 -7.567979,4.41454 z"
     fill="#121212"
     id="path4"
     style="stroke-width:0.171812" />
  <path
     d="m 44.622346,71.147211 c -0.746867,1.755747 -2.14095,2.508112 -4.331726,2.508112 -2.439731,0 -4.431377,-1.304225 -4.630507,-4.063355 h 15.584215 v -2.257267 c 0,-6.069949 -3.933294,-11.186857 -11.35214,-11.186857 -6.920762,0 -12.098835,5.066739 -12.098835,12.139898 0,7.123329 5.078593,11.43753 12.198486,11.43753 5.875286,0 9.958056,-2.859296 11.103184,-7.976204 z m -8.862582,-5.468092 c 0.298609,-2.106931 1.443909,-3.712171 4.032945,-3.712171 2.389906,0 3.684338,1.705578 3.783989,3.712171 z"
     fill="#121212"
     id="path5"
     style="stroke-width:0.171812" />
  <path
     d="m 93.052048,57.605154 v 22.373369 h 8.065892 V 57.605154 Z m -0.04982,-2.106931 h 8.165542 v -7.123501 h -8.165542 z"
     fill="#121212"
     id="path6"
     style="stroke-width:0.171812" />
</svg>
