<svg version="1.1" xmlns="http://www.w3.org/2000/svg" xmlns:xlink="http://www.w3.org/1999/xlink" viewBox="0 0 128 128">
			<ellipse fill="#110070" cx="63.833" cy="63.79" rx="59.102" ry="59.14"/>

				<radialGradient id="SVGID_1_" cx="-407.8569" cy="945.1533" r="103.8096" gradientTransform="matrix(1 0 0 -1 472.5 957)" gradientUnits="userSpaceOnUse">
				<stop  offset="0" style="stop-color:#67C5D5"/>
				<stop  offset="0.1604" style="stop-color:#66C2D3"/>
				<stop  offset="0.2795" style="stop-color:#62B9CE"/>
				<stop  offset="0.3852" style="stop-color:#5CA8C6"/>
				<stop  offset="0.4832" style="stop-color:#5392BA"/>
				<stop  offset="0.5759" style="stop-color:#4874AA"/>
				<stop  offset="0.6646" style="stop-color:#3A5097"/>
				<stop  offset="0.7485" style="stop-color:#2A2781"/>
				<stop  offset="0.8146" style="stop-color:#1B006D"/>
				<stop  offset="1" style="stop-color:#596AAD"/>
			</radialGradient>
			<ellipse fill="url(#SVGID_1_)" cx="63.833" cy="63.79" rx="57.985" ry="58.024"/>

				<radialGradient id="SVGID_2_" cx="-407.874" cy="938.2295" r="52.0237" gradientTransform="matrix(1 0 0 -1 472.5 957)" gradientUnits="userSpaceOnUse">
				<stop  offset="0" style="stop-color:#0F80BC"/>
				<stop  offset="0.3376" style="stop-color:#0A5F9E"/>
				<stop  offset="1" style="stop-color:#00145A"/>
			</radialGradient>
			<path fill="url(#SVGID_2_)" d="M55.516,93.741c-0.072-0.314-0.854-1.227-1.452-1.432c-0.598-0.204-1.184,0.881-1.568-0.92
				c-1.261,0.724-1.805-0.199-1.805-0.199s-1.359,0.08-1.623,1.744c-0.647,0.767-2.306,3.552-1.425,0.655
				c0.887-2.915-0.936-0.229-1.105,1.236c-0.316,0.65-0.851,0.715-0.515-2.209c-1.168-0.404-1.766-3.115-1.125-3.167
				c-0.744-1.037-0.16-2.622,0.46-2.538c0.62,0.08,1.683-1.354,1.651-1.688c-0.033-0.331,0.479-0.094,0.448-2.327
				c-0.033-2.237,0.843-2.792,0.915-0.92c0.075,1.864,1.189-0.611,1.075-1.561c-0.116-0.944,0.11-3.082,0.79-1.818
				c-0.79-3.125-0.167-3.247,0.307-1.168c1.189,0.094,1.23,0.727,1.23,0.727c1.315-0.324,1.945,0.667,2.048,1.223
				c1.218-1.438,2.45,0.113,2.45,0.113s0.849-0.282,0.443,1.195c-0.409,1.472,1.765,0.676,1.246-0.382
				c1.068-0.541,2.655,1.097,3.155,2.216c0.5,1.123-0.857,2.712,0.201,3.096c1.063,0.382,0.597,2.232,0.597,2.232
				s2.224,1.234,0.68,2.293l-0.525,1.26c0,0,1.006,1.122,1.349,0.454c0.342-0.669,0.463,0.68,0.463,0.68
				c-0.128-0.238,0.247,1.391,1.634,1.733c1.392,0.34,2.273,2.541,0.728,2.567c-1.54,0.026-1.659-0.016-2.076,0.883
				c-0.416,0.895-2.381,0.927-3.4-0.232c-1.083,0.367-3.009-0.106-2.442-0.972c-0.934,0.545-1.816-0.918-1.087-1.572
				c0.73-0.649-0.41-1.491-0.793-0.56c-0.379,0.932-2.395,1.391-2.254-0.194c0.042-0.47,1.116-0.745,1.129-0.352
				C55.517,94.29,55.597,93.8,55.516,93.741z"/>

					<radialGradient id="SVGID_3_" cx="-407.8726" cy="938.2295" r="52.0229" gradientTransform="matrix(1 0 0 -1 472.5 957)" gradientUnits="userSpaceOnUse">
					<stop  offset="0" style="stop-color:#0F80BC"/>
					<stop  offset="0.3376" style="stop-color:#0A5F9E"/>
					<stop  offset="1" style="stop-color:#00145A"/>
				</radialGradient>
				<path fill="url(#SVGID_3_)" d="M103.462,48.392c0.307,0.306,0.914,0.237,1.249,0.144c0.337-0.097,0.29-0.336,0.581-0.43
					c0.286-0.097,1.392,0.43,1.103,1.578c-0.67,0.093-0.914,0.908-0.914,0.908s-0.671,0.286-1.01,0.144
					c-0.336-0.144-0.336-0.097-0.817-0.051c-0.481,0.051-1.637-0.618-0.386-0.618c1.252,0-0.142-0.576-0.672-0.576
					c-0.528,0-0.096-0.526,0.531-0.381C102.691,48.392,102.932,47.863,103.462,48.392z"/>

					<radialGradient id="SVGID_4_" cx="-407.877" cy="938.2334" r="52.0308" gradientTransform="matrix(1 0 0 -1 472.5 957)" gradientUnits="userSpaceOnUse">
					<stop  offset="0" style="stop-color:#0F80BC"/>
					<stop  offset="0.3376" style="stop-color:#0A5F9E"/>
					<stop  offset="1" style="stop-color:#00145A"/>
				</radialGradient>
				<path fill="url(#SVGID_4_)" d="M99.125,50.989c-0.335,0.333,0.05,1.339,0.482,1.29c0.43-0.047,1.105-0.238,1.105-0.238
					s0.335,0.669,0,0.862c-0.335,0.19-1.314,0.106-0.046,0.574c1.298,0.477,1.633,0.333,1.729,0.093
					c0.098-0.237,0.528-1.05,0.771-1.001c0.192-0.43-0.673-0.813-0.192-1.102c0.478-0.287,0.097-1.337,0.097-1.337
					s-0.675,0.047-0.963,0.526c-0.289,0.478-0.671-0.047-0.96-0.047c-0.049,0.286-0.242,0.524-0.242,0.524l-0.191-0.433
					C100.713,50.701,99.365,50.654,99.125,50.989z"/>

				<radialGradient id="SVGID_5_" cx="-407.0234" cy="933.3057" r="57.157" gradientTransform="matrix(1 0 0 -1 472.5 957)" gradientUnits="userSpaceOnUse">
				<stop  offset="0" style="stop-color:#0F80BC"/>
				<stop  offset="0.2643" style="stop-color:#0B629B"/>
				<stop  offset="0.8439" style="stop-color:#031747"/>
				<stop  offset="1" style="stop-color:#00022F"/>
			</radialGradient>
			<path fill="url(#SVGID_5_)" d="M90.139,51.777c-0.042-0.123,0.382-0.619,0.269,0.023c-0.261,0.457,1.054,0.867,1.423,0.359
				c1.235-1.693-1.166-2.513-2.208-1.726c-1.051,0.794-1.631-0.908-0.423-1.151c1.204-0.243,1.306-2.42-0.021-2.428
				c1.171-0.578-0.451-2.31-1.792-2.605c-0.217-1.862-2.181-3.046-3.214-2.371c-1.043,0.678-1.132,0.56-2.661-0.369
				c-1.522-0.923-2.255,1.92-1.135,3.164c1.126,1.251,0.309,3.267,0.355,2.923c0,0-0.424,0.763-0.396,1.048
				c-1.289,0.437-1.665-1.377-2.465-1.779c-0.583,0.76-1.523,1.166-1.523,1.166l0.07-1.547c0,0-4.001-2.179-5.23-1.569
				c-1.515,0.467-1.873,3.975-0.498,4.489c1.378,0.519-1.728,1.811,1.388,5.095c3.2,3.373,4.438,3.469,5.09,2.92
				c0.162-0.138,0.441-0.345,0.781-0.576c0.031,0.13,0.083,0.254,0.163,0.372c0.801,1.204-1.862,2.154-2.233,3.879
				c-0.377,1.744-0.029,4.987,1.55,5.098c0.301-1.729,3.257-1.118,1.648,0.448c-1.637,1.596-0.488,1.878-0.488,1.878
				s0.077,2.991,2.582,2.035c-0.073,0.171-0.131,0.39-0.167,0.629c-0.7-0.141-2.411-0.356-2.83,0.838
				c-0.528,1.506-2.763-0.511-4.328,0.166c-1.556,0.671-3.829,2.875-3.063,4.425c1.47-0.697,2.595,2.447,0.542,1.802
				c-2.061-0.647-1.661,0.58-1.661,0.58s-2.146,1.693-0.137,3.494c-0.771,0.119-2.143,0.978-1.681,2.864c0,0-0.881,0.031-1,1.719
				c-2.877,0.58-2.701,1.472,1.626,0.494c-1.746,0.905,1.221,1.333,2.536,1.212c1.317-0.12,4.773,1.584,2.176,1.602
				c-2.601,0.016-1.827,1.289,1.29,1.349c3.111,0.064,2.784,0.785,3.246,0.754c0.462-0.033,2.473,1.554,2.365,2.434
				c-0.113,0.88,2.107,1.794,3.551,0.785c0.074,0.916,3.871,0.202,4.433-1.449c4.112,0.628,4.017-0.139,3.102-0.626
				c-2.059-0.314-5.837-3.052-1.74-1.643c4.077,1.405,0.149-1.107-0.925-2.072c-2.341-0.455-2.46-2.406-2.46-2.406
				s1.293-0.736,0.273-2.576c2.528-0.469,1.001-1.358,1.285-2.207c0.284-0.85,1.568-1.934,2.008-2.021
				c0.083-0.114,0.772,0.023,0.133,0.283c-0.552,0.005-0.16,1.559,0.5,1.639c2.232,0.271,1.58-2.644,0.268-3.23
				c-1.315-0.591-0.134-2.195,0.789-1.115c0.923,1.078,2.982-0.133,2.209-1.498c1.228,0.851,1.89-1.902,1.367-3.481
				c1.642-1.423,1.588-4.26,0.319-4.896c-0.625-0.312-0.926-0.513-1.078-0.901c0.754-0.356,1.754-0.619,2.147-0.268
				c0.638,0.577,2.415-1.014,2.302-2.874c0.748,0.41,1.939-3.381,0.927-4.708c2.317-3.239,1.693-3.533,0.918-2.99
				c-1.166,1.616-4.994,3.548-2.026,0.685c2.88-2.779-0.767-0.671-1.986-0.219c-1.436,1.797-2.958,0.933-2.958,0.933
				s0.064-1.472-1.79-1.503c0.857-2.363-0.523-1.51-1.007-2.154C90.165,53.755,89.99,52.179,90.139,51.777z"/>

				<radialGradient id="SVGID_6_" cx="-407.875" cy="938.2334" r="52.03" gradientTransform="matrix(1 0 0 -1 472.5 957)" gradientUnits="userSpaceOnUse">
				<stop  offset="0" style="stop-color:#0F80BC"/>
				<stop  offset="0.3376" style="stop-color:#0A5F9E"/>
				<stop  offset="1" style="stop-color:#00145A"/>
			</radialGradient>
			<path fill="url(#SVGID_6_)" d="M60.1,28.097c-0.359,0.938,1.173,2.461,1.943,1.971c0.772-0.495,1.877-1.477,1.877-1.477
				s1.172,0.942,0.699,1.613c-0.477,0.669-2.376,1.421,0.372,1.116c2.82-0.311,3.334-0.893,3.32-1.431
				c-0.015-0.536,0.14-2.458,0.628-2.592c0.015-0.986-1.917-0.895-1.248-1.881c0.669-0.982-0.901-2.596-0.901-2.596
				s-1.223,0.716-1.376,1.88c-0.154,1.163-1.298,0.536-1.84,0.803c0.141,0.582-0.026,1.207-0.026,1.207l-0.708-0.626
				C62.84,26.084,60.278,27.248,60.1,28.097z"/>

				<radialGradient id="SVGID_7_" cx="-407.8735" cy="938.2324" r="52.0267" gradientTransform="matrix(1 0 0 -1 472.5 957)" gradientUnits="userSpaceOnUse">
				<stop  offset="0" style="stop-color:#0F80BC"/>
				<stop  offset="0.3376" style="stop-color:#0A5F9E"/>
				<stop  offset="1" style="stop-color:#00145A"/>
			</radialGradient>
			<path fill="url(#SVGID_7_)" d="M64.685,77.327c-0.335,0.333,0.049,1.337,0.48,1.291c0.433-0.049,1.106-0.239,1.106-0.239
				s0.336,0.669,0,0.861c-0.337,0.19-1.314,0.108-0.048,0.573c1.297,0.478,1.635,0.335,1.731,0.097
				c0.096-0.239,0.528-1.053,0.769-1.006c0.194-0.429-0.673-0.812-0.193-1.097c0.482-0.29,0.1-1.34,0.1-1.34
				s-0.674,0.047-0.963,0.526c-0.288,0.478-0.673-0.049-0.962-0.049c-0.048,0.287-0.238,0.526-0.238,0.526l-0.193-0.43
				C66.272,77.04,64.924,76.992,64.685,77.327z"/>
					<defs>
						<ellipse id="SVGID_8_" cx="63.833" cy="63.79" rx="57.985" ry="58.024"/>
					</defs>
					<clipPath id="SVGID_9_">
						<use xlink:href="#SVGID_8_"  overflow="visible"/>
					</clipPath>

						<linearGradient id="SVGID_10_" gradientUnits="userSpaceOnUse" x1="-396.1006" y1="935.8232" x2="-379.3067" y2="934.3914" gradientTransform="matrix(1 0 0 -1 472.5 957)">
						<stop  offset="0" style="stop-color:#0F80BC"/>
						<stop  offset="0.3376" style="stop-color:#0A5F9E"/>
						<stop  offset="1" style="stop-color:#00145A"/>
					</linearGradient>
					<path clip-path="url(#SVGID_9_)" fill="url(#SVGID_10_)" d="M65.133,5.647c-0.907,0.203,0.611,3.49,0.611,3.49
						s-0.054,2.207,0.32,2.319c0.373,0.113,2.84,0.729,4.13,2.337c1.297,1.606,0.623,2.453-0.456,1.988
						c-1.08-0.462-0.794,0.956-0.794,0.956s3.258,1.059,0.798,0.991c-2.466-0.065,1.66,1.735,1.387,1.923
						c-0.273,0.19-0.427,1.226-0.427,1.226s-2.175,0.181-0.332,0.955c6.235,2.626-0.666,1.917-0.666,1.917l-0.881,1.083l1.743,2.186
						l1.34,0.958c0,0,2.821-0.941,3.701-1.088c0.88-0.145,3.102-1.808,3.102-1.808s0.666,0.477,0.168-0.495
						c-0.499-0.972,1.834-0.539,2.415,0.185l4.118,1.86c0.054,0.143,0.145,0.273,0.291,0.374c0.803,0.563-0.726,1.529-0.571,2.552
						c0.155,1.012,1.088,2.693,2.113,2.516c-0.179-0.965,1.844-1.082,1.14-0.005c-0.703,1.071,0.077,1.051,0.077,1.051
						s0.65,1.515,2.025,0.673c-0.055,0.462,0.227,1.392,1.408,1.453c0,0-0.125,0.505,0.845,0.862
						c-0.132,1.73,0.422,1.785,0.559-0.843c0.244,1.154,0.988-0.469,1.136-1.245c0.15-0.78,1.75-2.494,1.317-0.979
						c-0.429,1.502,4.716,2.051,5.288,0.258c0.575-1.808,2.626-2.751,2.687-3.025c0.063-0.28-4.564-0.71-4.053-0.492
						c0.512,0.217,1.464-0.943,1.11-1.978c0.574,0.116,0.827-2.292-0.083-2.915c1.139-2.396,0.649-2.471,0.182-1.994
						c-0.568,1.2-2.911,3.011-1.322,0.78c1.603-2.254-0.651-0.282-1.433,0.208c-0.686,1.334-1.891,1.075-1.891,1.075
						s-0.221-0.908-1.511-0.604c0.15-1.606-0.65-0.834-1.115-1.149c-0.284-0.193-0.556-0.625-0.724-0.996
						c1.111,0.45,2.602,0.929,2.345,0.104c-0.167-0.541,2.103,0.64,2.182,0.394l2.838-0.394l2.757-1.743
						C85.38,4.813,65.133,5.647,65.133,5.647z"/>
					<defs>
						<ellipse id="SVGID_11_" cx="63.833" cy="63.79" rx="57.985" ry="58.024"/>
					</defs>
					<clipPath id="SVGID_12_">
						<use xlink:href="#SVGID_11_"  overflow="visible"/>
					</clipPath>

						<linearGradient id="SVGID_13_" gradientUnits="userSpaceOnUse" x1="-433.8306" y1="933.2803" x2="-443.1117" y2="919.6487" gradientTransform="matrix(1 0 0 -1 472.5 957)">
						<stop  offset="0" style="stop-color:#0F80BC"/>
						<stop  offset="0.3376" style="stop-color:#0A5F9E"/>
						<stop  offset="1" style="stop-color:#00145A"/>
					</linearGradient>
					<path clip-path="url(#SVGID_12_)" fill="url(#SVGID_13_)" d="M38.929,10.721c-10.531,4.728-18.477,14.473-18.477,14.473
						s0.934,2.137,1.259,1.979c0.329-0.155-2.351,5.606-0.384,5.93c1.978,0.325,7.666-3.564,6.611-3.206
						c-1.052,0.354,0.593-2.105,0.593-2.105s2.96-1.313,1.209,0.202c-1.736,1.505,2.309,0.186,2.246,0.494
						c-0.064,0.31,0.522,1.142,0.522,1.142s-1.387,1.488,0.404,0.889c6.147-2.068,0.81,1.771,0.81,1.771l0.105,1.307l2.659,0.463
						l1.572-0.15c0,0,1.375-2.426,1.907-3.085c0.533-0.661,1.024-3.271,1.024-3.271s0.799-0.083-0.212-0.466
						c-1.013-0.383,0.967-1.577,1.878-1.429l4.285-1.331c0.137,0.068,0.291,0.103,0.468,0.082c0.981-0.114,0.487,1.596,1.289,2.241
						c0.794,0.641,2.618,1.26,3.27,0.468c-0.781-0.592,0.671-2.003,0.857-0.749c0.186,1.245,0.764,0.719,0.764,0.719
						s1.537-2.643,2.028-4.159c0.269,0.375,2.777-3.296,2.017-5.047c-0.768-1.773,0.477-3.442,0.338-3.701
						c-0.142-0.254-0.893,0.528-0.338,0.34c0.559-0.191-1.583,0.769-1.866-2.053c-0.287-2.878-0.705,0.242-0.982,1.165
						c0.376,1.502,4.273-6.069,4.273-6.069l5.024-2.049C64.083,5.519,52.648,4.562,38.929,10.721z"/>

				<linearGradient id="SVGID_14_" gradientUnits="userSpaceOnUse" x1="-409.7656" y1="917.9404" x2="-409.7656" y2="940.502" gradientTransform="matrix(1 0 0 -1 472.5 957)">
				<stop  offset="0.0137" style="stop-color:#000000;stop-opacity:0"/>
				<stop  offset="0.65" style="stop-color:#C4E0E3;stop-opacity:0.2"/>
				<stop  offset="0.8224" style="stop-color:#C4E0E3"/>
				<stop  offset="0.8498" style="stop-color:#CDE5E8"/>
				<stop  offset="0.9443" style="stop-color:#E8F4F7"/>
				<stop  offset="1" style="stop-color:#F2FAFC"/>
			</linearGradient>
			<ellipse opacity="0.5" fill="url(#SVGID_14_)" enable-background="new    " cx="62.734" cy="27.828" rx="30.703" ry="19.892"/>

					<linearGradient id="SVGID_15_" gradientUnits="userSpaceOnUse" x1="-407.9463" y1="896.2715" x2="-394.0131" y2="904.4543" gradientTransform="matrix(1 0 0 -1 472.5 957)">
					<stop  offset="0" style="stop-color:#DF731B"/>
					<stop  offset="0.5449" style="stop-color:#DF731B"/>
					<stop  offset="0.7014" style="stop-color:#EC8811"/>
					<stop  offset="0.8593" style="stop-color:#F4950B"/>
					<stop  offset="1" style="stop-color:#F79A09"/>
				</linearGradient>
				<path fill="url(#SVGID_15_)" d="M125.156,47.563l-1.421,9.114c0,0-2.03-16.873-4.519-23.182
					c-3.815-9.666-5.513-9.588-5.523-9.573c2.554,6.493,2.091,9.981,2.091,9.981s-4.527-12.338-16.498-16.264
					c-14.175-4.646-21.396-2.968-21.343-2.902c0.054,0.065,14.651,2.551,17.24,6.109c0,0-6.201,0-12.372,1.777
					c-0.278,0.08,22.703,2.871,27.402,25.836c0,0-2.519-5.257-5.635-6.149c2.048,6.233,1.523,18.061-0.428,23.94
					c-0.25,0.757-0.508-3.269-4.352-5c1.23,8.821-0.074,22.815-6.195,26.668c-0.477,0.3,3.837-13.812,0.868-8.356
					c-17.727,27.18-38.802,10.997-47.351,5.229c6.862,1.681,14.149,0.471,18.369-2.414c4.258-2.912,6.776-5.038,9.039-4.536
					c2.261,0.506,3.767-1.763,2.01-3.776c-1.758-2.018-6.027-4.79-11.802-3.278c-4.072,1.066-9.12,5.573-16.825,1.01
					c-6.572-3.895-6.528-7.057-6.528-9.071c0-2.016,1.793-5.08,5.056-4.578c2.922,0.452,1.382-1.264,4.527,0
					c0.857,0.345-0.086-4.112-1.305-6.968c2.348-4.9,9.964-6.356,10.532-6.786c1.03-0.778,0.464-1.167,0.815-2.34
					c0.329-1.093,0.539-4.046-7.985-3.229c-3.923,0.375-6.418-4.708-7.236-5.941c0.265-1.572,0.69-3.007,1.267-4.322
					c0.584-1.197,1.222-2.295,1.86-3.126c0.2-0.26,0.373-0.488,0.53-0.701c1.27-1.482,2.831-2.75,4.703-3.802
					c0.977-0.552-10.926-0.035-16.282,6.945c-1.437,0.188-3.409-0.227-5.614-0.227c-2.762,0-4.933,0.302-6.942,0.806
					c-0.322,0.082-0.84,0.037-1.476-0.113c-1.767-1.832-6.77-6.234-6.999-12.206c0,0-7.273,5.59-6.185,20.828
					c-0.096,8.429-2.583,6.02-3.863,10.593c-0.596,2.167,0.895,3.799,0.895,3.863c-0.002,0.033,1.788-1.938,1.788-1.938
					s-11.277,19.539,3.289,44.483c12.553,21.503,33.621,31.006,55.481,29.157c3.825-0.249,7.675-0.819,11.519-1.747
					C130.693,109.063,125.156,47.563,125.156,47.563z"/>

				<linearGradient id="SVGID_16_" gradientUnits="userSpaceOnUse" x1="-430.4961" y1="915.5352" x2="-419.6814" y2="914.6086" gradientTransform="matrix(1 0 0 -1 472.5 957)">
				<stop  offset="0.0112" style="stop-color:#941403"/>
				<stop  offset="0.8972" style="stop-color:#E85C0A"/>
			</linearGradient>
			<path fill="url(#SVGID_16_)" d="M45.619,32.149c0,0,2.201,6.015,7.138,5.996c9.42-0.038,9.609,0.094,9.669,1.238
				c0.188,3.487-1.534,4.629-2.192,5.125c-0.661,0.494-9.629,5.694-9.959,7.182c-0.329,1.487-10.349-14.143-10.349-14.143
				L45.619,32.149z"/>

				<linearGradient id="SVGID_17_" gradientUnits="userSpaceOnUse" x1="-447.8203" y1="918.5322" x2="-408.7775" y2="913.6519" gradientTransform="matrix(1 0 0 -1 472.5 957)">
				<stop  offset="0.0112" style="stop-color:#941403"/>
				<stop  offset="0.1357" style="stop-color:#A32104"/>
				<stop  offset="0.4978" style="stop-color:#C84107"/>
				<stop  offset="0.7893" style="stop-color:#DF5509"/>
				<stop  offset="0.972" style="stop-color:#E85C0A"/>
			</linearGradient>
			<path fill="url(#SVGID_17_)" d="M50.634,38.634c0,0,3.06,3.907,0.746,5.47c-2.826,1.909,3.996,2.325,6.468,0.938
				c2.472-1.387,3.991-3.426,4.077-3.729c0.086-0.304,0.898-3.043-4.262-2.088C54.401,39.828,53.205,39.967,50.634,38.634z"/>

				<linearGradient id="SVGID_18_" gradientUnits="userSpaceOnUse" x1="-423.6304" y1="908.2061" x2="-420.5175" y2="909.5757" gradientTransform="matrix(1 0 0 -1 472.5 957)">
				<stop  offset="0" style="stop-color:#F2C8A9"/>
				<stop  offset="1" style="stop-color:#FFFFCC"/>
			</linearGradient>
			<path fill="url(#SVGID_18_)" d="M60.235,44.509c0.5-0.378,1.61-1.133,2.034-3c-0.309,0.125-0.338-0.23-0.703-0.076
				c-6.927,7.227-7.193,2.194-10.974,3.208c-3.446,0.943-4.221,2.237-4.366,2.337c0.051,0.073,0.103,0.147,0.155,0.22
				c0.993,0.505,1.944,2.113,2.66,3.55c0.699,0.833,1.168,1.242,1.235,0.94C50.605,50.203,59.576,45.003,60.235,44.509z"/>

				<linearGradient id="SVGID_19_" gradientUnits="userSpaceOnUse" x1="-433.5552" y1="870.0928" x2="-381.1914" y2="867.9366" gradientTransform="matrix(1 0 0 -1 472.5 957)">
				<stop  offset="0" style="stop-color:#B30000"/>
				<stop  offset="1" style="stop-color:#DF731B"/>
			</linearGradient>
			<path fill="url(#SVGID_19_)" d="M8.478,50.25c-1.414,2.968-10.49,18.305,4.322,43.831c14.495,24.985,39.58,33.144,65.191,27.601
				c7.311-1.582,15.74-7.302,21.113-11.5c-3.452-8.706-1.409-8.379-3.259-7.234c-20.631,12.773-37.032,0.173-49.726-1.437
				C-0.58,95.593,8.642,50.158,8.642,50.158L8.478,50.25z"/>

				<linearGradient id="SVGID_20_" gradientUnits="userSpaceOnUse" x1="-421.0947" y1="878.2197" x2="-393.7918" y2="868.4711" gradientTransform="matrix(1 0 0 -1 472.5 957)">
				<stop  offset="0" style="stop-color:#941403"/>
				<stop  offset="1" style="stop-color:#DF731B"/>
			</linearGradient>
			<path fill="url(#SVGID_20_)" d="M47.362,85.263c4.401,1.319,14.005,0.182,18.129-2.886c2.779-2.066,4.878-3.624,6.645-4.275
				c-3.122-2.121-3.171,0.885-9.735,2.405c-13.674,3.172-20.313-3.68-20.313-3.68c0.969,5.422,4.354,8.062,5.879,9
				C47.563,85.469,47.351,85.259,47.362,85.263z"/>

				<linearGradient id="SVGID_21_" gradientUnits="userSpaceOnUse" x1="-483.8647" y1="813.4121" x2="-457.2485" y2="813.4121" gradientTransform="matrix(0.9988 0.049 0.049 -0.9988 450.28 926.4673)">
				<stop  offset="0.0562" style="stop-color:#B30000"/>
				<stop  offset="1" style="stop-color:#DE5C01"/>
			</linearGradient>
			<path fill="url(#SVGID_21_)" d="M32.535,110.025c0,0-11.383-12.845-14.561-27.23c-4.685-4.425-8.01-8.167-10.218-10.873
				C9.031,82.158,14.25,98.05,32.535,110.025z"/>

				<linearGradient id="SVGID_22_" gradientUnits="userSpaceOnUse" x1="-301.1982" y1="955.3066" x2="-286.7168" y2="910.4426" gradientTransform="matrix(0.9929 0.1186 0.1186 -0.9929 202.4875 1065.0266)">
				<stop  offset="0.0562" style="stop-color:#DE7210"/>
				<stop  offset="1" style="stop-color:#F6C08F"/>
			</linearGradient>
			<path fill="url(#SVGID_22_)" d="M23.039,98.359c0,0-7.855-11.184-4.91-20.679c2.65-8.538-0.563-3.459-2.432-1.634
				c-1.887,1.844-2.858-5.442-2.809-6.282c0.003-0.018,0.001-0.025-0.001-0.027C12.768,69.711,9.147,87.194,23.039,98.359z"/>

				<linearGradient id="SVGID_23_" gradientUnits="userSpaceOnUse" x1="-476.0952" y1="843.7734" x2="-476.0952" y2="793.6265" gradientTransform="matrix(0.999 0.0448 0.0448 -0.999 451.05 929.5758)">
				<stop  offset="0.0562" style="stop-color:#DE7210"/>
				<stop  offset="1" style="stop-color:#F6C08F"/>
			</linearGradient>
			<path fill="url(#SVGID_23_)" d="M11.401,88.61c0,0-1.791-22.698,3.87-25.906c8.99-5.094,0.75-3.903-1.857-2.489
				c-2.634,1.427-2.39-7.968-2.018-8.86C11.761,50.474,2.118,60.237,11.401,88.61z"/>
			<path fill="#A40000" d="M50.73,21.819c0,0-7.116,7.229-7.063,7.255c0.054,0.025,0.204,9.277,0.437,11.9
				c0.853,1.008,3.51,7.558,1.476,6.104c-2.078-1.484-0.58-1.516-0.398-0.763c0.005,0.025,0.005,0.037,0,0.037
				C45.043,46.417,40.017,35.473,50.73,21.819z"/>

				<linearGradient id="SVGID_24_" gradientUnits="userSpaceOnUse" x1="-453.8945" y1="921.626" x2="-459.3354" y2="935.5685" gradientTransform="matrix(1 0 0 -1 472.5 957)">
				<stop  offset="0.0112" style="stop-color:#941403"/>
				<stop  offset="0.4719" style="stop-color:#E85C0A"/>
				<stop  offset="1" style="stop-color:#F9BD5F"/>
			</linearGradient>
			<path fill="url(#SVGID_24_)" d="M16.877,16.25c0,0-7.564,5.804-6.119,21.72c5.855-5.256,14.134-9.185,14.134-9.185
				C23.503,27.909,17.13,22.81,16.877,16.25z"/>

				<linearGradient id="SVGID_25_" gradientUnits="userSpaceOnUse" x1="-430.6309" y1="918.4277" x2="-417.5934" y2="935.5646" gradientTransform="matrix(1 0 0 -1 472.5 957)">
				<stop  offset="0.1966" style="stop-color:#DE7210"/>
				<stop  offset="0.8427" style="stop-color:#F9BD5F"/>
				<stop  offset="1" style="stop-color:#FFFCCF"/>
			</linearGradient>
			<path fill="url(#SVGID_25_)" d="M35.519,33.656l11.361,14.129c-3.277-13.875-0.758-22.199,7.311-26.741
				C55.385,20.371,37.333,21.287,35.519,33.656z"/>

				<linearGradient id="SVGID_26_" gradientUnits="userSpaceOnUse" x1="-437.5234" y1="895.0361" x2="-424.3073" y2="868.6038" gradientTransform="matrix(1 0 0 -1 472.5 957)">
				<stop  offset="0.0169" style="stop-color:#941403"/>
				<stop  offset="0.5" style="stop-color:#E35100"/>
				<stop  offset="1" style="stop-color:#DF731B"/>
			</linearGradient>
			<path fill="url(#SVGID_26_)" d="M27.514,68.56c1.938-12.208,18.927-10.413,18.927-10.413c-0.757,0.563-3.668,0.899-4.501,3.229
				c-2.752,7.688-0.127,24.483,17.01,31.527C60.757,93.648,24.651,86.6,27.514,68.56z"/>

				<linearGradient id="SVGID_27_" gradientUnits="userSpaceOnUse" x1="-417.561" y1="911.2461" x2="-414.2606" y2="908.255" gradientTransform="matrix(1 0 0 -1 472.5 957)">
				<stop  offset="0" style="stop-color:#EEA272"/>
				<stop  offset="0.1865" style="stop-color:#EFA777"/>
				<stop  offset="0.4064" style="stop-color:#F2B585"/>
				<stop  offset="0.643" style="stop-color:#F6CD9C"/>
				<stop  offset="0.8898" style="stop-color:#FCEEBB"/>
				<stop  offset="1" style="stop-color:#FFFFCC"/>
			</linearGradient>
			<path fill="url(#SVGID_27_)" d="M62.171,41.84c-0.083-0.015-0.157-0.013-0.194,0.037c-0.209,0.28-1.017,1.233-2.938,2.8
				c-3.568,2.902-5.074,2.167-7.732,2.762c-1.21,0.271-2.361,1.083-3.135,1.734c0.313,0.506,0.606,1.053,0.868,1.576
				c0.699,0.833,1.168,1.242,1.235,0.94c0.33-1.486,9.3-6.686,9.959-7.182C60.704,44.156,61.698,43.458,62.171,41.84z"/>

				<linearGradient id="SVGID_28_" gradientUnits="userSpaceOnUse" x1="-436.8101" y1="904.1807" x2="-421.6491" y2="888.7103" gradientTransform="matrix(1 0 0 -1 472.5 957)">
				<stop  offset="0.1966" style="stop-color:#DF731B"/>
				<stop  offset="0.8427" style="stop-color:#F9BD5F"/>
				<stop  offset="1" style="stop-color:#FFFCCF"/>
			</linearGradient>
			<path fill="url(#SVGID_28_)" d="M51.218,60.294c0.101-2.58-0.081-8.846-2.762-11.565c-2.05-2.077-2.53-4.458-2.805-7.173
				c-22.275,8.321-25.455,19.197-23.228,18.844C40.238,57.574,45.246,57.229,51.218,60.294z"/>

				<linearGradient id="SVGID_29_" gradientUnits="userSpaceOnUse" x1="311.2593" y1="1736.8584" x2="311.2593" y2="1680.0208" gradientTransform="matrix(0.9673 0.2537 0.2537 -0.9673 -728.1548 1645.6289)">
				<stop  offset="0.0562" style="stop-color:#DE7210"/>
				<stop  offset="1" style="stop-color:#F6C08F"/>
			</linearGradient>
			<path fill="url(#SVGID_29_)" d="M3.728,75.539c0,0,1.548-20.113,11.615-27.473c7.903-5.782,1.765-3.682-1.286-3.442
				c-3.218,0.254-4.934,2.212-4.313,1.492c0.026-0.029,0.036-0.047,0.031-0.055C9.668,45.937,2.22,52.188,3.728,75.539z"/>

				<linearGradient id="SVGID_30_" gradientUnits="userSpaceOnUse" x1="-428.8613" y1="929.1357" x2="-448.0768" y2="897.842" gradientTransform="matrix(0.9897 -0.0801 -0.0949 -1.1727 528.2181 1096.2355)">
				<stop  offset="0.0562" style="stop-color:#DE7210"/>
				<stop  offset="1" style="stop-color:#F2C06E"/>
			</linearGradient>
			<path fill="url(#SVGID_30_)" d="M2.667,60.087c0,0,5.395-17.125,16.297-16.979c7.23,0.096,1.495-6.111-0.692-7.054
				c-2.282-0.977-2.827-0.939-3.36-0.467C14.113,36.295,6.94,36.022,2.667,60.087z"/>

				<linearGradient id="SVGID_31_" gradientUnits="userSpaceOnUse" x1="-391.562" y1="884.7754" x2="-411.9763" y2="880.876" gradientTransform="matrix(1 0 0 -1 472.5 957)">
				<stop  offset="0.0047" style="stop-color:#FFFAEE"/>
				<stop  offset="0.2757" style="stop-color:#F5F89B"/>
				<stop  offset="0.3102" style="stop-color:#F3ED91"/>
				<stop  offset="0.4668" style="stop-color:#ECC267"/>
				<stop  offset="0.6182" style="stop-color:#E6A046"/>
				<stop  offset="0.7611" style="stop-color:#E2872E"/>
				<stop  offset="0.8921" style="stop-color:#E07820"/>
				<stop  offset="1" style="stop-color:#DF731B"/>
			</linearGradient>
			<path fill="url(#SVGID_31_)" d="M76.213,76.849c0.82-0.803,0.249-3.888-4.904-5.757c-4.675-1.699-11.973,2.619-14.138,3.471
				c0,0,8.266-1.548,11.365-1.033C72.738,74.23,74.213,78.811,76.213,76.849z"/>

				<linearGradient id="SVGID_32_" gradientUnits="userSpaceOnUse" x1="-924.0815" y1="388.5903" x2="-924.0815" y2="341.086" gradientTransform="matrix(0.992 0.1261 0.1261 -0.992 883.114 546.4531)">
				<stop  offset="0.0562" style="stop-color:#DE7210"/>
				<stop  offset="1" style="stop-color:#F2C06E"/>
			</linearGradient>
			<path fill="url(#SVGID_32_)" d="M10.631,71.208c0,0-0.895-16.836,6.649-24.026c5.924-5.647,1.065-3.243-1.438-2.713
				c-2.64,0.56-3.85,2.367-3.413,1.704c0.019-0.028,0.023-0.043,0.019-0.049C12.347,46.032,6.853,52.018,10.631,71.208z"/>

				<linearGradient id="SVGID_33_" gradientUnits="userSpaceOnUse" x1="-955.6064" y1="121.6172" x2="-955.6064" y2="74.1201" gradientTransform="matrix(0.9324 0.3616 0.3616 -0.9324 862.9554 499.9859)">
				<stop  offset="0.0562" style="stop-color:#DE7210"/>
				<stop  offset="1" style="stop-color:#F2C06E"/>
			</linearGradient>
			<path fill="url(#SVGID_33_)" d="M4.82,65.859c0,0,3.188-16.555,12.244-21.714c7.111-4.053,1.816-2.89-0.742-2.979
				c-2.697-0.092-4.306,1.37-3.723,0.831c0.025-0.023,0.032-0.037,0.029-0.042C12.554,41.84,5.778,46.326,4.82,65.859z"/>

				<linearGradient id="SVGID_34_" gradientUnits="userSpaceOnUse" x1="-30.4375" y1="1441.9277" x2="-43.6655" y2="1422.0857" gradientTransform="matrix(0.8104 -0.5859 -0.5859 -0.8104 885.1371 1212.5624)">
				<stop  offset="0.0562" style="stop-color:#DE7210"/>
				<stop  offset="1" style="stop-color:#F2C072"/>
			</linearGradient>
			<path fill="url(#SVGID_34_)" d="M15.572,72.655c0,0-1.743-10.035,2.014-14.974c2.998-3.941,0.366-2.014-1.026-1.445
				c-1.452,0.593-2.002,1.764-1.804,1.334C14.947,57.151,8.292,62.308,15.572,72.655z"/>

				<linearGradient id="SVGID_35_" gradientUnits="userSpaceOnUse" x1="-23.2793" y1="1448.4287" x2="-36.5062" y2="1428.5884" gradientTransform="matrix(0.8104 -0.5859 -0.5859 -0.8104 885.1371 1212.5624)">
				<stop  offset="0.0562" style="stop-color:#DE7210"/>
				<stop  offset="1" style="stop-color:#F2C072"/>
			</linearGradient>
			<path fill="url(#SVGID_35_)" d="M17.564,63.193c0,0-1.743-10.035,2.013-14.975c2.998-3.941,0.366-2.013-1.026-1.445
				c-1.452,0.593-2.003,1.765-1.804,1.335C16.939,47.688,10.285,52.845,17.564,63.193z"/>

				<linearGradient id="SVGID_36_" gradientUnits="userSpaceOnUse" x1="-459.9053" y1="914.6357" x2="-465.6919" y2="903.8344" gradientTransform="matrix(1 0 0 -1 472.5 957)">
				<stop  offset="0.0562" style="stop-color:#DE7210"/>
				<stop  offset="1" style="stop-color:#EED8A5"/>
			</linearGradient>
			<path fill="url(#SVGID_36_)" d="M7.028,49.475c0,0,4.072-8.342,9.483-9.985c4.318-1.31,1.344-1.29,0.014-1.615
				c-1.39-0.337-2.421,0.232-2.046,0.021C14.846,37.69,7.178,37.945,7.028,49.475z"/>

				<linearGradient id="SVGID_37_" gradientUnits="userSpaceOnUse" x1="-460.4863" y1="908.0342" x2="-466.2725" y2="897.2338" gradientTransform="matrix(1 0 0 -1 472.5 957)">
				<stop  offset="0.0562" style="stop-color:#DE7210"/>
				<stop  offset="1" style="stop-color:#EED8A5"/>
			</linearGradient>
			<path fill="url(#SVGID_37_)" d="M6.447,56.076c0,0,4.071-8.342,9.483-9.984c4.318-1.31,1.344-1.292,0.013-1.617
				c-1.39-0.336-2.421,0.234-2.045,0.022C14.264,44.291,6.596,44.547,6.447,56.076z"/>

				<linearGradient id="SVGID_38_" gradientUnits="userSpaceOnUse" x1="-453.9302" y1="912.6182" x2="-459.5233" y2="898.7312" gradientTransform="matrix(1 0 0 -1 472.5 957)">
				<stop  offset="0.0562" style="stop-color:#DE7210"/>
				<stop  offset="1" style="stop-color:#F2C072"/>
			</linearGradient>
			<path fill="url(#SVGID_38_)" d="M9.403,54.255c0,0,7.181-14.715,16.728-17.614c7.619-2.311,2.373-2.278,0.024-2.849
				c-2.453-0.594-4.271,0.413-3.61,0.039C23.192,33.467,9.666,33.916,9.403,54.255z"/>

				<linearGradient id="SVGID_39_" gradientUnits="userSpaceOnUse" x1="-451.8027" y1="919.3789" x2="-465.0289" y2="899.5397" gradientTransform="matrix(1 0 0 -1 472.5 957)">
				<stop  offset="0.0562" style="stop-color:#DE7210"/>
				<stop  offset="1" style="stop-color:#F2C072"/>
			</linearGradient>
			<path fill="url(#SVGID_39_)" d="M14.312,46.33c0,0,4.466-9.152,10.404-10.955c4.739-1.438,1.475-1.417,0.015-1.772
				c-1.526-0.369-2.656,0.256-2.245,0.023C22.888,33.398,14.475,33.678,14.312,46.33z"/>

				<linearGradient id="SVGID_40_" gradientUnits="userSpaceOnUse" x1="-450.9126" y1="915.373" x2="-462.9685" y2="897.2891" gradientTransform="matrix(1 0 0 -1 472.5 957)">
				<stop  offset="0.0562" style="stop-color:#DE7210"/>
				<stop  offset="1" style="stop-color:#F2C072"/>
			</linearGradient>
			<path fill="url(#SVGID_40_)" d="M15.768,49.563c0,0,4.071-8.342,9.482-9.983c4.319-1.311,1.345-1.292,0.014-1.617
				c-1.391-0.337-2.422,0.233-2.046,0.022C23.583,37.777,15.917,38.035,15.768,49.563z"/>

				<linearGradient id="SVGID_41_" gradientUnits="userSpaceOnUse" x1="-412.1221" y1="918.1895" x2="-411.1668" y2="916.4873" gradientTransform="matrix(1 0 0 -1 472.5 957)">
				<stop  offset="0" style="stop-color:#8B8B89"/>
				<stop  offset="1" style="stop-color:#120500"/>
			</linearGradient>
			<path fill="url(#SVGID_41_)" d="M62.428,39.383c-0.047-0.87-0.176-1.153-4.339-1.225c0.477,0.216,1.3,0.65,2.206,1.393
				c1.196,0.98,1.39,2.073,1.514,3.204C62.213,41.986,62.51,40.922,62.428,39.383z"/>

				<linearGradient id="SVGID_42_" gradientUnits="userSpaceOnUse" x1="-449.7007" y1="923.9707" x2="-449.7007" y2="929.1969" gradientTransform="matrix(1 0 0 -1 472.5 957)">
				<stop  offset="0.0562" style="stop-color:#DE7210"/>
				<stop  offset="1" style="stop-color:#F6C08F"/>
			</linearGradient>
			<path fill="url(#SVGID_42_)" d="M37.982,27.764l-3.611,5.81c0,0-14.438-2.265-26.679,9.577
				C6.681,44.129,15.699,22.211,37.982,27.764z"/>

				<linearGradient id="SVGID_43_" gradientUnits="userSpaceOnUse" x1="-463.8804" y1="875.3896" x2="-452.9423" y2="888.1721" gradientTransform="matrix(0.9992 0.0398 0.0398 -0.9992 451.516 931.973)">
				<stop  offset="0.0562" style="stop-color:#DE7210"/>
				<stop  offset="1" style="stop-color:#F6C08F"/>
			</linearGradient>
			<path fill="url(#SVGID_43_)" d="M25.016,38.163c0,0,3.848-7.144,8.837-9.303C31.274,28.941,25.483,30.958,25.016,38.163z"/>

				<linearGradient id="SVGID_44_" gradientUnits="userSpaceOnUse" x1="-456.7231" y1="918.9756" x2="-462.5096" y2="908.1746" gradientTransform="matrix(1 0 0 -1 472.5 957)">
				<stop  offset="0.0562" style="stop-color:#DE7210"/>
				<stop  offset="1" style="stop-color:#EED8A5"/>
			</linearGradient>
			<path fill="url(#SVGID_44_)" d="M10.211,45.135c0,0,4.071-8.342,9.483-9.985c4.318-1.31,1.344-1.291,0.014-1.616
				c-1.391-0.336-2.421,0.234-2.046,0.021C18.027,33.35,10.359,33.605,10.211,45.135z"/>

				<linearGradient id="SVGID_45_" gradientUnits="userSpaceOnUse" x1="-490.5278" y1="804.8369" x2="-479.8436" y2="817.3227" gradientTransform="matrix(0.9946 0.1039 0.1039 -0.9946 420.8399 891.2198)">
				<stop  offset="0.0562" style="stop-color:#DE7210"/>
				<stop  offset="1" style="stop-color:#F6C08F"/>
			</linearGradient>
			<path fill="url(#SVGID_45_)" d="M18.739,39.257c0,0,4.201-6.724,9.198-8.514C25.421,30.66,19.647,32.262,18.739,39.257z"/>

				<linearGradient id="SVGID_46_" gradientUnits="userSpaceOnUse" x1="-489.6294" y1="832.5986" x2="-476.7912" y2="830.8404" gradientTransform="matrix(0.9959 0.0903 0.0903 -0.9959 426.3108 899.6055)">
				<stop  offset="0.0562" style="stop-color:#DE7210"/>
				<stop  offset="1" style="stop-color:#F6C08F"/>
			</linearGradient>
			<path fill="url(#SVGID_46_)" d="M25.94,27.771c0,0-3.167,1.384-8.752-0.938l4.979,2.504L25.94,27.771z"/>

				<linearGradient id="SVGID_47_" gradientUnits="userSpaceOnUse" x1="-465.2139" y1="929.332" x2="-447.0921" y2="926.8503" gradientTransform="matrix(1 0 0 -1 472.5 957)">
				<stop  offset="0.0562" style="stop-color:#DE7210"/>
				<stop  offset="1" style="stop-color:#F6C08F"/>
			</linearGradient>
			<path fill="url(#SVGID_47_)" d="M24.409,28.66c0,0-4.22,1.635-12.345-0.799l6.949,2.765C19.874,29.831,24.409,28.66,24.409,28.66
				z"/>

				<linearGradient id="SVGID_48_" gradientUnits="userSpaceOnUse" x1="-487.1294" y1="833.2441" x2="-475.3318" y2="831.6284" gradientTransform="matrix(0.9959 0.0903 0.0903 -0.9959 426.3108 899.6055)">
				<stop  offset="0.0562" style="stop-color:#DE7210"/>
				<stop  offset="1" style="stop-color:#F6C08F"/>
			</linearGradient>
			<path fill="url(#SVGID_48_)" d="M27.49,27.318c0,0-2.801,0.853-7.977-1.149l4.979,2.502C25.018,28.207,27.49,27.318,27.49,27.318
				z"/>

				<linearGradient id="SVGID_49_" gradientUnits="userSpaceOnUse" x1="-457.0293" y1="925.5176" x2="-467.6657" y2="926.6093" gradientTransform="matrix(1 0 0 -1 472.5 957)">
				<stop  offset="0.0562" style="stop-color:#DE7210"/>
				<stop  offset="1" style="stop-color:#F6C08F"/>
			</linearGradient>
			<path fill="url(#SVGID_49_)" d="M18.753,30.54c0,0-2.082,1.728-7.414,1.798l4.611,0.151L18.753,30.54z"/>

				<linearGradient id="SVGID_50_" gradientUnits="userSpaceOnUse" x1="-495.9019" y1="803.5479" x2="-481.1876" y2="820.7432" gradientTransform="matrix(0.9946 0.1039 0.1039 -0.9946 420.8399 891.2198)">
				<stop  offset="0.0562" style="stop-color:#DE7210"/>
				<stop  offset="1" style="stop-color:#F6C08F"/>
			</linearGradient>
			<path fill="url(#SVGID_50_)" d="M13.688,39.382c0,0,7.125-9.281,12.992-11.382C23.725,27.903,14.753,31.173,13.688,39.382z"/>

				<linearGradient id="SVGID_51_" gradientUnits="userSpaceOnUse" x1="-384.1885" y1="835.4473" x2="-355.369" y2="879.8979" gradientTransform="matrix(1 0 0 -1 472.5 957)">
				<stop  offset="0" style="stop-color:#DE5C01"/>
				<stop  offset="0.736" style="stop-color:#FEFD00"/>
				<stop  offset="0.7783" style="stop-color:#FEFE26"/>
				<stop  offset="0.8369" style="stop-color:#FFFE54"/>
				<stop  offset="0.889" style="stop-color:#FFFF76"/>
				<stop  offset="0.932" style="stop-color:#FFFF8B"/>
				<stop  offset="0.9607" style="stop-color:#FFFF92"/>
			</linearGradient>
			<path fill="url(#SVGID_51_)" d="M124.039,55.208c0,0,0.768,17.22-23.152,41.141c-2.659,2.658-17.093,16.18-16.585,20.236
				C84.48,118.02,122.172,110.804,124.039,55.208z"/>

				<linearGradient id="SVGID_52_" gradientUnits="userSpaceOnUse" x1="-367.4302" y1="929.7031" x2="-386.3006" y2="937.9909" gradientTransform="matrix(1 0 0 -1 472.5 957)">
				<stop  offset="0" style="stop-color:#F79A09"/>
				<stop  offset="0.736" style="stop-color:#FEFD00"/>
				<stop  offset="0.7783" style="stop-color:#FEFE26"/>
				<stop  offset="0.8369" style="stop-color:#FFFE54"/>
				<stop  offset="0.889" style="stop-color:#FFFF76"/>
				<stop  offset="0.932" style="stop-color:#FFFF8B"/>
				<stop  offset="0.9607" style="stop-color:#FFFF92"/>
			</linearGradient>
			<path fill="url(#SVGID_52_)" d="M77.663,14.705c28.813,2.214,34.391,22.931,34.393,21.662
				C112.13,16.228,84.721,14.698,77.663,14.705z"/>

				<linearGradient id="SVGID_53_" gradientUnits="userSpaceOnUse" x1="-354.7539" y1="910.7861" x2="-381.1725" y2="935.3121" gradientTransform="matrix(1 0 0 -1 472.5 957)">
				<stop  offset="0" style="stop-color:#DE5C01"/>
				<stop  offset="0.736" style="stop-color:#FEFD00"/>
				<stop  offset="0.7783" style="stop-color:#FEFE26"/>
				<stop  offset="0.8369" style="stop-color:#FFFE54"/>
				<stop  offset="0.889" style="stop-color:#FFFF76"/>
				<stop  offset="0.932" style="stop-color:#FFFF8B"/>
				<stop  offset="0.9607" style="stop-color:#FFFF92"/>
			</linearGradient>
			<path fill="url(#SVGID_53_)" d="M86.438,22.581c0,0,19.974,4.083,25.607,25.254c0.747,2.804-2.407-17.199-1.434-15.3
				C111.583,34.443,102.573,23.214,86.438,22.581z"/>

				<linearGradient id="SVGID_54_" gradientUnits="userSpaceOnUse" x1="-460.0913" y1="836.71" x2="-471.1531" y2="848.1505" gradientTransform="matrix(0.9996 -0.0282 -0.0282 -0.9996 593.4155 868.6195)">
				<stop  offset="0" style="stop-color:#F79A09"/>
				<stop  offset="0.736" style="stop-color:#FEFD00"/>
				<stop  offset="0.7783" style="stop-color:#FEFE26"/>
				<stop  offset="0.8369" style="stop-color:#FFFE54"/>
				<stop  offset="0.889" style="stop-color:#FFFF76"/>
				<stop  offset="0.932" style="stop-color:#FFFF8B"/>
				<stop  offset="0.9607" style="stop-color:#FFFF92"/>
			</linearGradient>
			<path fill="url(#SVGID_54_)" d="M94.42,22.063c0,0,18.039,3.761,18.218,32.381c0.126,20.258,3.128,7.605,6.106,3.053
				c2.568-3.934,0.813-8.726,0.751-8.713c-0.009,0.002-1.299-3.729-0.43-2.148c0.039,0.07-1.211-1.03-1.203-1.031
				C118.064,45.574,117.169,25.033,94.42,22.063z"/>

				<linearGradient id="SVGID_55_" gradientUnits="userSpaceOnUse" x1="-359.1831" y1="896.7373" x2="-352.9574" y2="918.1537" gradientTransform="matrix(1 0 0 -1 472.5 957)">
				<stop  offset="0" style="stop-color:#F79A09"/>
				<stop  offset="0.736" style="stop-color:#FEFD00"/>
				<stop  offset="0.7783" style="stop-color:#FEFE26"/>
				<stop  offset="0.8369" style="stop-color:#FFFE54"/>
				<stop  offset="0.889" style="stop-color:#FFFF76"/>
				<stop  offset="0.932" style="stop-color:#FFFF8B"/>
				<stop  offset="0.9607" style="stop-color:#FFFF92"/>
			</linearGradient>
			<path fill="url(#SVGID_55_)" d="M114.733,25.94c0,0,6.479,16.878-0.388,25.271c-2.241,2.739-2.492,16.772,0.246,15.483
				c2.745-1.291,2.149,7.452,1.789,8.446c-0.008,0.02-0.01,0.028-0.006,0.031C116.553,75.283,129.912,53.598,114.733,25.94z"/>

				<linearGradient id="SVGID_56_" gradientUnits="userSpaceOnUse" x1="-507.6099" y1="782.9824" x2="-507.8369" y2="799.2718" gradientTransform="matrix(0.9992 -0.0412 -0.0412 -0.9992 648.1 826.7029)">
				<stop  offset="0" style="stop-color:#F79A09"/>
				<stop  offset="0.736" style="stop-color:#FEFD00"/>
				<stop  offset="0.7783" style="stop-color:#FEFE26"/>
				<stop  offset="0.8369" style="stop-color:#FFFE54"/>
				<stop  offset="0.889" style="stop-color:#FFFF76"/>
				<stop  offset="0.932" style="stop-color:#FFFF8B"/>
				<stop  offset="0.9607" style="stop-color:#FFFF92"/>
			</linearGradient>
			<path fill="url(#SVGID_56_)" d="M105.726,43.709c0,0,4.079,11.942-0.192,20.479l3.231,7.215
				C111.134,65.583,114.152,53.272,105.726,43.709z"/>

				<linearGradient id="SVGID_57_" gradientUnits="userSpaceOnUse" x1="-615.186" y1="694.292" x2="-603.9653" y2="716.3932" gradientTransform="matrix(0.9975 -0.0707 -0.0707 -0.9975 768.4352 728.4093)">
				<stop  offset="0" style="stop-color:#F79A09"/>
				<stop  offset="0.736" style="stop-color:#FEFD00"/>
				<stop  offset="0.7783" style="stop-color:#FEFE26"/>
				<stop  offset="0.8369" style="stop-color:#FFFE54"/>
				<stop  offset="0.889" style="stop-color:#FFFF76"/>
				<stop  offset="0.932" style="stop-color:#FFFF8B"/>
				<stop  offset="0.9607" style="stop-color:#FFFF92"/>
			</linearGradient>
			<path fill="url(#SVGID_57_)" d="M112.899,42.289c0,0,2.821,18.954-7.357,36.065c0.158,3.958-0.537,7.54-1.49,10.491
				c0.444,0.583,1.037,0.982,1.82,1.052c-0.345,0.319-0.689,0.618-1.022,0.901c-0.61,0.271-1.237,0.555-1.844,0.849
				c-0.129,0.302-0.26,0.594-0.387,0.876c0.677-0.475,1.432-1.052,2.23-1.724c2.079-0.919,3.95-1.631,3.946-1.636
				c0,0-0.381,0.143-1.298,0.476c-0.617,0.224-1.156,0.3-1.625,0.258C113.731,82.734,124.502,66.713,112.899,42.289z M101.04,92.679
				c-0.898,0.527-1.552,1.021-1.691,1.403c-0.104,0.278,0.509,0.117,1.568-0.477C100.972,93.286,101.017,92.975,101.04,92.679z"/>

				<linearGradient id="SVGID_58_" gradientUnits="userSpaceOnUse" x1="-343.2065" y1="938.7012" x2="-341.6975" y2="963.1813" gradientTransform="matrix(0.9975 -0.0707 -0.0707 -0.9975 502.8678 1010.5304)">
				<stop  offset="0" style="stop-color:#DE5C01"/>
				<stop  offset="0.736" style="stop-color:#FEFD00"/>
				<stop  offset="0.7783" style="stop-color:#FEFE26"/>
				<stop  offset="0.8369" style="stop-color:#FFFE54"/>
				<stop  offset="0.889" style="stop-color:#FFFF76"/>
				<stop  offset="0.932" style="stop-color:#FFFF8B"/>
				<stop  offset="0.9607" style="stop-color:#FFFF92"/>
			</linearGradient>
			<path fill="url(#SVGID_58_)" d="M100.345,62.484c0,0,8.025,22.841-17.623,44.257c-1.513,1.263,10.411,0.722,11.454,0.249
				c3.074-1.396,6.707-10.714,6.278-9.6C100.029,98.505,112.364,80.921,100.345,62.484z"/>

				<linearGradient id="SVGID_59_" gradientUnits="userSpaceOnUse" x1="-414.0317" y1="838.9414" x2="-366.7135" y2="867.2236" gradientTransform="matrix(1 0 0 -1 472.5 957)">
				<stop  offset="0" style="stop-color:#B9120D"/>
				<stop  offset="0.078" style="stop-color:#BB180D"/>
				<stop  offset="0.1822" style="stop-color:#C0290C"/>
				<stop  offset="0.3013" style="stop-color:#C8450A"/>
				<stop  offset="0.4314" style="stop-color:#D36C08"/>
				<stop  offset="0.5706" style="stop-color:#E29E05"/>
				<stop  offset="0.7151" style="stop-color:#F4DA02"/>
				<stop  offset="0.7921" style="stop-color:#FEFD00"/>
				<stop  offset="0.8136" style="stop-color:#FEFD07"/>
				<stop  offset="0.8455" style="stop-color:#FEFD1B"/>
				<stop  offset="0.8837" style="stop-color:#FEFE3C"/>
				<stop  offset="0.9268" style="stop-color:#FFFE69"/>
				<stop  offset="0.9736" style="stop-color:#FFFFA3"/>
				<stop  offset="1" style="stop-color:#FFFFC7"/>
			</linearGradient>
			<path fill="url(#SVGID_59_)" d="M111.568,76.972c0,0-4.84,29.626-38.309,32.011c-13.104,0.935-31.921-2.133-30.254,2.866
				c0.517,1.549,2.98,8.011,8.602,9.509C66.821,125.417,107.3,124.088,111.568,76.972z"/>

				<linearGradient id="SVGID_60_" gradientUnits="userSpaceOnUse" x1="-451.4097" y1="752.749" x2="-402.9358" y2="746.1816" gradientTransform="matrix(0.9951 0.0989 0.0989 -0.9951 429.9665 890.4037)">
				<stop  offset="0.0562" style="stop-color:#DE7210"/>
				<stop  offset="1" style="stop-color:#F6C08F"/>
			</linearGradient>
			<path fill="url(#SVGID_60_)" d="M83.656,99.393c0,0-20.478,4.678-33.744-6.615c-12.139-10.335-6.117-1.637-4.47,2.654
				c1.691,4.401-7.823,1.039-9.252,0.331C34.765,95.064,58.724,110.09,83.656,99.393z"/>

				<linearGradient id="SVGID_61_" gradientUnits="userSpaceOnUse" x1="-478.4219" y1="705.7568" x2="-422.136" y2="688.067" gradientTransform="matrix(0.9895 0.1448 0.1448 -0.9895 411.2481 860.6799)">
				<stop  offset="0.0562" style="stop-color:#DE7210"/>
				<stop  offset="1" style="stop-color:#F6C08F"/>
			</linearGradient>
			<path fill="url(#SVGID_61_)" d="M70.46,110.554c0,0-24.428-4.801-32.162-21.354c-6.609-14.141-4.86-3.764-5.158,0.959
				c-0.313,4.858-7.163-1.776-8.078-2.93c-0.026-0.028-0.044-0.048-0.046-0.042C24.88,87.276,37.615,107.241,70.46,110.554z"/>

				<linearGradient id="SVGID_62_" gradientUnits="userSpaceOnUse" x1="-986.5562" y1="507.3882" x2="-959.7928" y2="456.1489" gradientTransform="matrix(0.9837 -0.1799 -0.1799 -0.9837 1084.4341 409.1422)">
				<stop  offset="0.0562" style="stop-color:#DE7210"/>
				<stop  offset="1" style="stop-color:#F6C08F"/>
			</linearGradient>
			<path fill="url(#SVGID_62_)" d="M43.775,108.414c0,0-11.667-9.037-16.928-21.429c-4.421-1.536-10.298-5.046-10.414-5.648
				C18.3,90.966,28.132,102.208,43.775,108.414z"/>
</svg>
