<?xml version="1.0" encoding="utf-8"?>
<!-- Generator: Adobe Illustrator 16.0.0, SVG Export Plug-In . SVG Version: 6.00 Build 0)  -->
<!DOCTYPE svg PUBLIC "-//W3C//DTD SVG 1.1//EN" "http://www.w3.org/Graphics/SVG/1.1/DTD/svg11.dtd">
<svg version="1.1" id="Layer_1" xmlns="http://www.w3.org/2000/svg" xmlns:xlink="http://www.w3.org/1999/xlink" x="0px" y="0px"
	 width="500px" height="500px" viewBox="0 0 500 500" enable-background="new 0 0 500 500" xml:space="preserve">
<g>
	<g id="Firefox">
		<g id="Globe">
			<ellipse fill="#110070" cx="255.604" cy="251.343" rx="224.382" ry="224.53"/>
			
				<radialGradient id="SVGID_1_" cx="-213.8193" cy="774.8594" r="394.1173" gradientTransform="matrix(1 0 0 -1 472.5 829)" gradientUnits="userSpaceOnUse">
				<stop  offset="0" style="stop-color:#67C5D5"/>
				<stop  offset="0.1604" style="stop-color:#66C2D3"/>
				<stop  offset="0.2795" style="stop-color:#62B9CE"/>
				<stop  offset="0.3852" style="stop-color:#5CA8C6"/>
				<stop  offset="0.4832" style="stop-color:#5392BA"/>
				<stop  offset="0.5759" style="stop-color:#4874AA"/>
				<stop  offset="0.6646" style="stop-color:#3A5097"/>
				<stop  offset="0.7485" style="stop-color:#2A2781"/>
				<stop  offset="0.8146" style="stop-color:#1B006D"/>
				<stop  offset="1" style="stop-color:#596AAD"/>
			</radialGradient>
			<ellipse fill="url(#SVGID_1_)" cx="255.604" cy="251.343" rx="220.143" ry="220.291"/>
			
				<radialGradient id="SVGID_2_" cx="-213.8838" cy="748.5791" r="197.5143" gradientTransform="matrix(1 0 0 -1 472.5 829)" gradientUnits="userSpaceOnUse">
				<stop  offset="0" style="stop-color:#0F80BC"/>
				<stop  offset="0.3376" style="stop-color:#0A5F9E"/>
				<stop  offset="1" style="stop-color:#00145A"/>
			</radialGradient>
			<path fill="url(#SVGID_2_)" d="M224.03,365.055c-0.273-1.193-3.242-4.661-5.513-5.436c-2.268-0.775-4.494,3.346-5.953-3.493
				c-4.786,2.748-6.854-0.757-6.854-0.757s-5.16,0.302-6.16,6.621c-2.456,2.91-8.756,13.486-5.41,2.485
				c3.368-11.068-3.556-0.868-4.199,4.69c-1.2,2.471-3.231,2.718-1.954-8.386c-4.435-1.533-6.703-11.825-4.269-12.025
				c-2.825-3.936-0.605-9.956,1.747-9.634c2.352,0.303,6.389-5.145,6.267-6.408c-0.125-1.255,1.821-0.358,1.702-8.833
				c-0.125-8.494,3.202-10.599,3.476-3.494c0.284,7.079,4.513-2.319,4.081-5.923c-0.44-3.586,0.421-11.699,2.998-6.902
				c-2.998-11.865-0.635-12.33,1.167-4.435c4.513,0.354,4.668,2.759,4.668,2.759c4.993-1.23,7.386,2.533,7.773,4.642
				c4.627-5.462,9.302,0.429,9.302,0.429s3.224-1.071,1.684,4.539c-1.551,5.587,6.699,2.566,4.731-1.452
				c4.054-2.053,10.081,4.166,11.979,8.413c1.898,4.262-3.253,10.296,0.764,11.755c4.037,1.451,2.268,8.475,2.268,8.475
				s8.442,4.684,2.582,8.705l-1.995,4.783c0,0,3.818,4.261,5.118,1.724c1.3-2.541,1.762,2.582,1.762,2.582
				c-0.488-0.904,0.938,5.281,6.204,6.581c5.285,1.292,8.631,9.646,2.763,9.75c-5.846,0.096-6.3-0.062-7.885,3.353
				c-1.577,3.397-9.04,3.52-12.907-0.882c-4.11,1.393-11.422-0.402-9.272-3.689c-3.546,2.068-6.895-3.486-4.125-5.968
				c2.773-2.467-1.559-5.665-3.014-2.127c-1.44,3.538-9.092,5.281-8.556-0.738c0.159-1.784,4.236-2.829,4.288-1.337
				C224.034,367.138,224.337,365.28,224.03,365.055z"/>
			<g>
				
					<radialGradient id="SVGID_3_" cx="-213.8696" cy="748.5811" r="197.5031" gradientTransform="matrix(1 0 0 -1 472.5 829)" gradientUnits="userSpaceOnUse">
					<stop  offset="0" style="stop-color:#0F80BC"/>
					<stop  offset="0.3376" style="stop-color:#0A5F9E"/>
					<stop  offset="1" style="stop-color:#00145A"/>
				</radialGradient>
				<path fill="url(#SVGID_3_)" d="M406.059,192.884c1.167,1.16,3.467,0.901,4.741,0.546c1.282-0.369,1.101-1.277,2.205-1.632
					c1.085-0.366,5.284,1.632,4.188,5.99c-2.544,0.354-3.468,3.449-3.468,3.449s-2.548,1.086-3.833,0.547
					c-1.278-0.547-1.278-0.369-3.102-0.192c-1.828,0.192-6.215-2.349-1.466-2.349c4.753,0-0.539-2.186-2.552-2.186
					c-2.005,0-0.366-1.995,2.013-1.448C403.133,192.884,404.045,190.875,406.059,192.884z"/>
				
					<radialGradient id="SVGID_4_" cx="-213.8945" cy="748.5967" r="197.5422" gradientTransform="matrix(1 0 0 -1 472.5 829)" gradientUnits="userSpaceOnUse">
					<stop  offset="0" style="stop-color:#0F80BC"/>
					<stop  offset="0.3376" style="stop-color:#0A5F9E"/>
					<stop  offset="1" style="stop-color:#00145A"/>
				</radialGradient>
				<path fill="url(#SVGID_4_)" d="M389.595,202.744c-1.274,1.263,0.188,5.085,1.828,4.896c1.636-0.177,4.199-0.901,4.199-0.901
					s1.274,2.541,0,3.272c-1.274,0.724-4.989,0.402-0.178,2.179c4.93,1.809,6.201,1.263,6.566,0.354
					c0.37-0.9,2.005-3.988,2.925-3.803c0.731-1.633-2.555-3.084-0.728-4.181c1.813-1.09,0.365-5.078,0.365-5.078
					s-2.562,0.177-3.655,1.998c-1.097,1.813-2.548-0.177-3.646-0.177c-0.185,1.086-0.919,1.99-0.919,1.99l-0.728-1.643
					C395.622,201.651,390.503,201.473,389.595,202.744z"/>
			</g>
			
				<radialGradient id="SVGID_5_" cx="-210.6543" cy="729.8818" r="216.9981" gradientTransform="matrix(1 0 0 -1 472.5 829)" gradientUnits="userSpaceOnUse">
				<stop  offset="0" style="stop-color:#0F80BC"/>
				<stop  offset="0.2643" style="stop-color:#0B629B"/>
				<stop  offset="0.8439" style="stop-color:#031747"/>
				<stop  offset="1" style="stop-color:#00022F"/>
			</radialGradient>
			<path fill="url(#SVGID_5_)" d="M355.476,205.735c-0.159-0.466,1.451-2.349,1.02,0.088c-0.99,1.732,4.003,3.29,5.402,1.363
				c4.69-6.43-4.424-9.539-8.382-6.551c-3.993,3.017-6.193-3.446-1.607-4.369c4.572-0.923,4.96-9.188-0.078-9.218
				c4.446-2.193-1.713-8.767-6.802-9.89c-0.824-7.068-8.28-11.566-12.202-9c-3.958,2.574-4.299,2.124-10.101-1.4
				c-5.779-3.504-8.56,7.29-4.31,12.01c4.276,4.749,1.174,12.404,1.352,11.097c0,0-1.611,2.896-1.503,3.981
				c-4.894,1.658-6.323-5.229-9.362-6.754c-2.212,2.888-5.782,4.424-5.782,4.424l0.266-5.872c0,0-15.189-8.272-19.857-5.957
				c-5.75,1.776-7.112,15.093-1.891,17.043c5.233,1.968-6.559,6.873,5.27,19.343c12.15,12.807,16.847,13.173,19.325,11.086
				c0.613-0.524,1.673-1.311,2.966-2.186c0.118,0.495,0.313,0.967,0.617,1.411c3.04,4.572-7.068,8.176-8.479,14.728
				c-1.433,6.621-0.111,18.933,5.887,19.354c1.141-6.562,12.364-4.243,6.255,1.703c-6.215,6.06-1.854,7.13-1.854,7.13
				s0.292,11.356,9.801,7.726c-0.277,0.65-0.499,1.481-0.632,2.39c-2.659-0.536-9.155-1.352-10.743,3.183
				c-2.005,5.717-10.491-1.939-16.43,0.628c-5.909,2.548-14.536,10.917-11.629,16.803c5.58-2.648,9.853,9.288,2.057,6.839
				c-7.825-2.46-6.304,2.201-6.304,2.201s-8.146,6.426-0.521,13.265c-2.928,0.451-8.135,3.711-6.381,10.872
				c0,0-3.346,0.118-3.796,6.525c-10.92,2.201-10.251,5.587,6.175,1.876c-6.629,3.438,4.635,5.06,9.627,4.602
				c5-0.455,18.122,6.016,8.261,6.083c-9.875,0.059-6.936,4.893,4.897,5.122c11.81,0.244,10.569,2.98,12.323,2.862
				c1.754-0.126,9.391,5.901,8.978,9.24c-0.429,3.342,7.999,6.81,13.483,2.98c0.28,3.475,14.697,0.765,16.829-5.502
				c15.609,2.386,15.251-0.528,11.776-2.378c-7.817-1.193-22.162-11.585-6.603-6.238c15.478,5.333,0.565-4.203-3.512-7.866
				c-8.889-1.728-9.342-9.136-9.342-9.136s4.911-2.792,1.038-9.779c9.601-1.78,3.804-5.156,4.882-8.376
				c1.078-3.228,5.953-7.341,7.623-7.674c0.317-0.436,2.932,0.085,0.505,1.071c-2.094,0.022-0.605,5.92,1.902,6.223
				c8.475,1.031,5.998-10.037,1.016-12.264c-4.993-2.246-0.51-8.335,2.995-4.236c3.504,4.091,11.319-0.502,8.386-5.688
				c4.661,3.231,7.172-7.22,5.189-13.217c6.234-5.402,6.031-16.174,1.211-18.586c-2.371-1.185-3.516-1.949-4.092-3.423
				c2.862-1.352,6.658-2.349,8.15-1.016c2.422,2.19,9.17-3.852,8.741-10.913c2.84,1.559,7.364-12.836,3.52-17.874
				c8.796-12.297,6.426-13.413,3.486-11.352c-4.424,6.134-18.959,13.472-7.693,2.6c10.935-10.551-2.91-2.548-7.541-0.834
				c-5.451,6.825-11.23,3.545-11.23,3.545s0.244-5.591-6.795-5.709c3.253-8.97-1.987-5.731-3.822-8.179
				C355.576,213.247,354.911,207.264,355.476,205.735z"/>
			
				<radialGradient id="SVGID_6_" cx="-213.8872" cy="748.5889" r="197.5338" gradientTransform="matrix(1 0 0 -1 472.5 829)" gradientUnits="userSpaceOnUse">
				<stop  offset="0" style="stop-color:#0F80BC"/>
				<stop  offset="0.3376" style="stop-color:#0A5F9E"/>
				<stop  offset="1" style="stop-color:#00145A"/>
			</radialGradient>
			<path fill="url(#SVGID_6_)" d="M241.431,115.834c-1.362,3.56,4.454,9.343,7.378,7.482c2.933-1.875,7.127-5.606,7.127-5.606
				s4.45,3.575,2.651,6.123c-1.81,2.541-9.021,5.399,1.415,4.24c10.706-1.182,12.656-3.391,12.604-5.433
				c-0.056-2.035,0.531-9.335,2.385-9.842c0.055-3.745-7.279-3.397-4.738-7.142c2.541-3.73-3.423-9.856-3.423-9.856
				s-4.643,2.718-5.226,7.138c-0.584,4.414-4.93,2.035-6.987,3.051c0.532,2.208-0.1,4.58-0.1,4.58l-2.688-2.379
				C251.834,108.19,242.107,112.607,241.431,115.834z"/>
			
				<radialGradient id="SVGID_7_" cx="-213.8823" cy="748.5898" r="197.5258" gradientTransform="matrix(1 0 0 -1 472.5 829)" gradientUnits="userSpaceOnUse">
				<stop  offset="0" style="stop-color:#0F80BC"/>
				<stop  offset="0.3376" style="stop-color:#0A5F9E"/>
				<stop  offset="1" style="stop-color:#00145A"/>
			</radialGradient>
			<path fill="url(#SVGID_7_)" d="M258.84,302.737c-1.274,1.263,0.188,5.078,1.824,4.901c1.643-0.185,4.199-0.909,4.199-0.909
				s1.274,2.541,0,3.272c-1.281,0.72-4.989,0.41-0.185,2.175c4.926,1.813,6.208,1.271,6.573,0.366
				c0.362-0.908,2.002-3.996,2.917-3.818c0.739-1.629-2.556-3.08-0.731-4.166c1.828-1.101,0.376-5.089,0.376-5.089
				s-2.559,0.177-3.656,1.998c-1.093,1.813-2.555-0.185-3.652-0.185c-0.185,1.089-0.905,1.998-0.905,1.998l-0.731-1.632
				C264.867,301.648,259.749,301.467,258.84,302.737z"/>
			<g>
				<g>
					<defs>
						<ellipse id="SVGID_8_" cx="255.604" cy="251.343" rx="220.143" ry="220.291"/>
					</defs>
					<clipPath id="SVGID_9_">
						<use xlink:href="#SVGID_8_"  overflow="visible"/>
					</clipPath>
					
						<linearGradient id="SVGID_10_" gradientUnits="userSpaceOnUse" x1="-169.1826" y1="739.4385" x2="-105.4233" y2="734.0024" gradientTransform="matrix(1 0 0 -1 472.5 829)">
						<stop  offset="0" style="stop-color:#0F80BC"/>
						<stop  offset="0.3376" style="stop-color:#0A5F9E"/>
						<stop  offset="1" style="stop-color:#00145A"/>
					</linearGradient>
					<path clip-path="url(#SVGID_9_)" fill="url(#SVGID_10_)" d="M260.542,30.602c-3.445,0.769,2.319,13.247,2.319,13.247
						s-0.207,8.379,1.215,8.808c1.414,0.428,10.783,2.77,15.68,8.87c4.922,6.101,2.363,9.314-1.732,7.548
						c-4.1-1.758-3.014,3.627-3.014,3.627s12.368,4.021,3.028,3.762c-9.361-0.247,6.3,6.585,5.267,7.301
						c-1.035,0.72-1.622,4.653-1.622,4.653s-8.257,0.687-1.259,3.626c23.671,9.971-2.529,7.279-2.529,7.279l-3.346,4.11l6.614,8.298
						l5.089,3.638c0,0,10.713-3.575,14.051-4.133c3.342-0.55,11.777-6.865,11.777-6.865s2.53,1.81,0.639-1.876
						c-1.894-3.692,6.961-2.046,9.169,0.702l15.632,7.061c0.203,0.543,0.55,1.034,1.104,1.418c3.047,2.134-2.755,5.806-2.167,9.687
						c0.59,3.844,4.132,10.226,8.021,9.553c-0.679-3.663,7.002-4.106,4.328-0.022c-2.67,4.069,0.292,3.992,0.292,3.992
						s2.467,5.75,7.688,2.556c-0.21,1.754,0.86,5.285,5.344,5.517c0,0-0.477,1.917,3.209,3.272c-0.502,6.57,1.603,6.777,2.12-3.202
						c0.927,4.38,3.752-1.78,4.313-4.727c0.569-2.961,6.644-9.468,5-3.719c-1.628,5.702,17.907,7.789,20.075,0.979
						c2.182-6.861,9.971-10.447,10.204-11.485c0.236-1.063-17.331-2.696-15.389-1.868c1.943,0.827,5.558-3.583,4.213-7.508
						c2.179,0.44,3.139-8.704-0.314-11.067c4.325-9.096,2.463-9.38,0.691-7.57c-2.156,4.557-11.049,11.433-5.019,2.961
						c6.086-8.557-2.471-1.071-5.439,0.791c-2.604,5.066-7.179,4.081-7.179,4.081s-0.839-3.446-5.735-2.293
						c0.572-6.098-2.467-3.169-4.232-4.365c-1.079-0.731-2.112-2.371-2.748-3.778c4.217,1.71,9.878,3.527,8.904,0.395
						c-0.632-2.053,7.984,2.43,8.287,1.496l10.772-1.496l10.47-6.617C337.41,27.434,260.542,30.602,260.542,30.602z"/>
				</g>
				<g>
					<defs>
						<ellipse id="SVGID_11_" cx="255.604" cy="251.343" rx="220.143" ry="220.291"/>
					</defs>
					<clipPath id="SVGID_12_">
						<use xlink:href="#SVGID_11_"  overflow="visible"/>
					</clipPath>
					
						<linearGradient id="SVGID_13_" gradientUnits="userSpaceOnUse" x1="-312.4316" y1="729.7852" x2="-347.6679" y2="678.0324" gradientTransform="matrix(1 0 0 -1 472.5 829)">
						<stop  offset="0" style="stop-color:#0F80BC"/>
						<stop  offset="0.3376" style="stop-color:#0A5F9E"/>
						<stop  offset="1" style="stop-color:#00145A"/>
					</linearGradient>
					<path clip-path="url(#SVGID_12_)" fill="url(#SVGID_13_)" d="M161.055,49.864c-39.983,17.948-70.151,54.947-70.151,54.947
						s3.545,8.113,4.782,7.515c1.249-0.59-8.925,21.283-1.458,22.512c7.507,1.234,29.104-13.531,25.097-12.172
						c-3.992,1.344,2.252-7.992,2.252-7.992s11.238-4.981,4.591,0.769c-6.592,5.713,8.763,0.706,8.527,1.876
						c-0.244,1.174,1.983,4.335,1.983,4.335s-5.266,5.651,1.536,3.376c23.339-7.852,3.073,6.724,3.073,6.724l0.399,4.96
						l10.096,1.758l5.968-0.569c0,0,5.222-9.21,7.238-11.714c2.024-2.507,3.889-12.419,3.889-12.419s3.036-0.317-0.805-1.769
						c-3.844-1.455,3.674-5.99,7.131-5.425l16.271-5.052c0.521,0.259,1.104,0.388,1.776,0.311c3.727-0.433,1.85,6.06,4.893,8.508
						c3.013,2.434,9.938,4.782,12.416,1.776c-2.966-2.249,2.548-7.607,3.253-2.843c0.706,4.727,2.899,2.732,2.899,2.732
						s5.834-10.034,7.7-15.791c1.023,1.425,10.543-12.516,7.659-19.163c-2.917-6.732,1.81-13.069,1.285-14.051
						c-0.54-0.968-3.39,2.001-1.285,1.289c2.12-0.728-6.009,2.921-7.087-7.795c-1.089-10.928-2.674,0.919-3.726,4.424
						c1.426,5.702,16.223-23.044,16.223-23.044l19.074-7.777C256.554,30.114,213.14,26.48,161.055,49.864z"/>
				</g>
			</g>
			
				<linearGradient id="SVGID_14_" gradientUnits="userSpaceOnUse" x1="-221.0669" y1="671.5479" x2="-221.0669" y2="757.2053" gradientTransform="matrix(1 0 0 -1 472.5 829)">
				<stop  offset="0.0137" style="stop-color:#000000;stop-opacity:0"/>
				<stop  offset="0.65" style="stop-color:#C4E0E3;stop-opacity:0.2"/>
				<stop  offset="0.8224" style="stop-color:#C4E0E3"/>
				<stop  offset="0.8498" style="stop-color:#CDE5E8"/>
				<stop  offset="0.9443" style="stop-color:#E8F4F7"/>
				<stop  offset="1" style="stop-color:#F2FAFC"/>
			</linearGradient>
			
				<ellipse opacity="0.5" fill="url(#SVGID_14_)" enable-background="new    " cx="251.435" cy="114.813" rx="116.563" ry="75.522"/>
		</g>
		<g id="Fox">
			<g>
				
					<linearGradient id="SVGID_15_" gradientUnits="userSpaceOnUse" x1="-214.1597" y1="589.2783" x2="-161.2612" y2="620.3452" gradientTransform="matrix(1 0 0 -1 472.5 829)">
					<stop  offset="0" style="stop-color:#DF731B"/>
					<stop  offset="0.5449" style="stop-color:#DF731B"/>
					<stop  offset="0.7014" style="stop-color:#EC8811"/>
					<stop  offset="0.8593" style="stop-color:#F4950B"/>
					<stop  offset="1" style="stop-color:#F79A09"/>
				</linearGradient>
				<path fill="url(#SVGID_15_)" d="M488.421,189.738l-5.396,34.603c0,0-7.707-64.061-17.157-88.01
					C451.385,99.634,444.94,99.929,444.9,99.985c9.698,24.65,7.94,37.893,7.94,37.893s-17.187-46.845-62.632-61.746
					c-53.817-17.642-81.233-11.268-81.03-11.02c0.203,0.247,55.623,9.687,65.453,23.195c0,0-23.542,0-46.971,6.748
					c-1.056,0.303,86.193,10.898,104.034,98.088c0,0-9.564-19.957-21.393-23.347c7.777,23.665,5.782,68.571-1.625,90.89
					c-0.953,2.874-1.932-12.408-16.522-18.985c4.671,33.491-0.28,86.618-23.52,101.249c-1.81,1.137,14.568-52.44,3.294-31.726
					c-67.3,103.188-147.314,41.749-179.768,19.85c26.05,6.381,53.717,1.788,69.737-9.163c16.168-11.053,25.729-19.125,34.318-17.22
					c8.583,1.921,14.299-6.695,7.63-14.335c-6.673-7.659-22.881-18.184-44.807-12.445c-15.462,4.047-34.625,21.157-63.876,3.833
					c-24.953-14.786-24.783-26.792-24.783-34.44c0-7.655,6.806-19.288,19.196-17.379c11.093,1.714,5.248-4.8,17.187,0
					c3.253,1.308-0.325-15.613-4.953-26.456c8.912-18.602,37.831-24.13,39.987-25.762c3.911-2.954,1.761-4.431,3.095-8.885
					c1.248-4.147,2.046-15.359-30.315-12.26c-14.894,1.425-24.366-17.874-27.472-22.557c1.008-5.968,2.622-11.415,4.808-16.408
					c2.22-4.546,4.642-8.715,7.064-11.869c0.758-0.986,1.415-1.854,2.013-2.659c4.823-5.627,10.747-10.439,17.855-14.436
					c3.708-2.098-41.479-0.133-61.816,26.368c-5.455,0.712-12.943-0.86-21.312-0.86c-10.488,0-18.73,1.148-26.356,3.062
					c-1.223,0.31-3.19,0.14-5.603-0.432c-6.71-6.954-25.703-23.668-26.57-46.339c0,0-27.612,21.223-23.479,79.076
					c-0.366,32-9.809,22.853-14.668,40.216c-2.264,8.228,3.398,14.424,3.398,14.668c-0.008,0.126,6.791-7.356,6.791-7.356
					s-42.816,74.18,12.482,168.881c47.661,81.64,127.646,117.719,210.641,110.695c14.521-0.946,29.141-3.109,43.732-6.632
					C509.445,423.227,488.421,189.738,488.421,189.738z"/>
			</g>
			
				<linearGradient id="SVGID_16_" gradientUnits="userSpaceOnUse" x1="-299.7734" y1="662.4102" x2="-258.7137" y2="658.8922" gradientTransform="matrix(1 0 0 -1 472.5 829)">
				<stop  offset="0.0112" style="stop-color:#941403"/>
				<stop  offset="0.8972" style="stop-color:#E85C0A"/>
			</linearGradient>
			<path fill="url(#SVGID_16_)" d="M186.455,131.22c0,0,8.357,22.837,27.103,22.763c35.762-0.144,36.479,0.355,36.708,4.701
				c0.713,13.236-5.824,17.575-8.324,19.458c-2.508,1.876-36.56,21.619-37.812,27.269c-1.248,5.643-39.292-53.695-39.292-53.695
				L186.455,131.22z"/>
			
				<linearGradient id="SVGID_17_" gradientUnits="userSpaceOnUse" x1="-365.5405" y1="673.7969" x2="-217.3151" y2="655.2687" gradientTransform="matrix(1 0 0 -1 472.5 829)">
				<stop  offset="0.0112" style="stop-color:#941403"/>
				<stop  offset="0.1357" style="stop-color:#A32104"/>
				<stop  offset="0.4978" style="stop-color:#C84107"/>
				<stop  offset="0.7893" style="stop-color:#DF5509"/>
				<stop  offset="0.972" style="stop-color:#E85C0A"/>
			</linearGradient>
			<path fill="url(#SVGID_17_)" d="M205.495,155.84c0,0,11.619,14.831,2.833,20.766c-10.731,7.245,15.17,8.826,24.558,3.56
				c9.384-5.266,15.149-13.007,15.477-14.159c0.329-1.156,3.413-11.551-16.182-7.929
				C219.794,160.371,215.256,160.899,205.495,155.84z"/>
			
				<linearGradient id="SVGID_18_" gradientUnits="userSpaceOnUse" x1="-273.7046" y1="634.5879" x2="-261.8861" y2="639.788" gradientTransform="matrix(1 0 0 -1 472.5 829)">
				<stop  offset="0" style="stop-color:#F2C8A9"/>
				<stop  offset="1" style="stop-color:#FFFFCC"/>
			</linearGradient>
			<path fill="url(#SVGID_18_)" d="M241.944,178.142c1.898-1.433,6.112-4.302,7.722-11.389c-1.174,0.476-1.285-0.872-2.67-0.288
				c-26.301,27.438-27.309,8.331-41.664,12.179c-13.084,3.583-16.023,8.494-16.574,8.875c0.192,0.277,0.392,0.558,0.588,0.834
				c3.77,1.917,7.382,8.024,10.1,13.479c2.655,3.161,4.436,4.716,4.69,3.571C205.385,199.76,239.44,180.018,241.944,178.142z"/>
			
				<linearGradient id="SVGID_19_" gradientUnits="userSpaceOnUse" x1="-311.3853" y1="489.894" x2="-112.5834" y2="481.7081" gradientTransform="matrix(1 0 0 -1 472.5 829)">
				<stop  offset="0" style="stop-color:#B30000"/>
				<stop  offset="1" style="stop-color:#DF731B"/>
			</linearGradient>
			<path fill="url(#SVGID_19_)" d="M45.444,199.941c-5.369,11.268-39.824,69.494,16.408,166.407
				c55.032,94.856,150.269,125.832,247.503,104.786c27.756-6.004,59.759-27.723,80.155-43.658
				c-13.103-33.051-5.348-31.811-12.372-27.464c-78.331,48.495-140.597,0.657-188.79-5.455
				C11.059,372.087,46.068,199.59,46.068,199.59L45.444,199.941z"/>
			
				<linearGradient id="SVGID_20_" gradientUnits="userSpaceOnUse" x1="-264.0796" y1="520.7471" x2="-160.421" y2="483.7354" gradientTransform="matrix(1 0 0 -1 472.5 829)">
				<stop  offset="0" style="stop-color:#941403"/>
				<stop  offset="1" style="stop-color:#DF731B"/>
			</linearGradient>
			<path fill="url(#SVGID_20_)" d="M193.073,332.868c16.71,5.007,53.17,0.69,68.828-10.957c10.551-7.843,18.524-13.756,25.227-16.23
				c-11.85-8.051-12.039,3.36-36.958,9.132c-51.916,12.042-77.12-13.974-77.12-13.974c3.678,20.587,16.533,30.61,22.32,34.17
				C193.833,333.651,193.028,332.853,193.073,332.868z"/>
			
				<linearGradient id="SVGID_21_" gradientUnits="userSpaceOnUse" x1="-435.5947" y1="428.7788" x2="-334.5464" y2="428.7788" gradientTransform="matrix(0.9988 0.049 0.049 -0.9988 453.3394 801.6802)">
				<stop  offset="0.0562" style="stop-color:#B30000"/>
				<stop  offset="1" style="stop-color:#DE5C01"/>
			</linearGradient>
			<path fill="url(#SVGID_21_)" d="M136.777,426.878c0,0-43.214-48.765-55.279-103.38c-17.789-16.799-30.411-31.009-38.794-41.283
				C47.545,321.08,67.358,381.415,136.777,426.878z"/>
			
				<linearGradient id="SVGID_22_" gradientUnits="userSpaceOnUse" x1="-206.5596" y1="609.0459" x2="-151.5791" y2="438.7141" gradientTransform="matrix(0.9929 0.1186 0.1186 -0.9929 209.624 945.0713)">
				<stop  offset="0.0562" style="stop-color:#DE7210"/>
				<stop  offset="1" style="stop-color:#F6C08F"/>
			</linearGradient>
			<path fill="url(#SVGID_22_)" d="M100.727,382.589c0,0-29.824-42.461-18.642-78.511c10.06-32.413-2.138-13.132-9.232-6.205
				c-7.165,7.002-10.85-20.662-10.665-23.849c0.011-0.066,0.003-0.096-0.004-0.103C61.733,273.825,47.984,340.198,100.727,382.589z"
				/>
			
				<linearGradient id="SVGID_23_" gradientUnits="userSpaceOnUse" x1="-414.4873" y1="529.3262" x2="-414.4873" y2="338.94" gradientTransform="matrix(0.999 0.0448 0.0448 -0.999 453.853 804.5073)">
				<stop  offset="0.0562" style="stop-color:#DE7210"/>
				<stop  offset="1" style="stop-color:#F6C08F"/>
			</linearGradient>
			<path fill="url(#SVGID_23_)" d="M56.545,345.575c0,0-6.799-86.174,14.69-98.354c34.13-19.343,2.848-14.819-7.049-9.45
				c-10.001,5.417-9.074-30.252-7.66-33.638C57.912,200.79,21.3,237.856,56.545,345.575z"/>
			<path fill="#A40000" d="M205.861,92c0,0-27.017,27.446-26.818,27.542c0.203,0.096,0.775,35.223,1.658,45.179
				c3.235,3.826,13.324,28.694,5.602,23.176c-7.888-5.635-2.201-5.757-1.511-2.895c0.019,0.096,0.019,0.14,0,0.14
				C184.269,185.387,165.184,143.834,205.861,92z"/>
			
				<linearGradient id="SVGID_24_" gradientUnits="userSpaceOnUse" x1="-388.606" y1="685.5391" x2="-409.2626" y2="738.4726" gradientTransform="matrix(1 0 0 -1 472.5 829)">
				<stop  offset="0.0112" style="stop-color:#941403"/>
				<stop  offset="0.4719" style="stop-color:#E85C0A"/>
				<stop  offset="1" style="stop-color:#F9BD5F"/>
			</linearGradient>
			<path fill="url(#SVGID_24_)" d="M77.336,70.854c0,0-28.72,22.032-23.232,82.459c22.228-19.956,53.662-34.872,53.662-34.872
				C102.489,115.118,78.292,95.76,77.336,70.854z"/>
			
				<linearGradient id="SVGID_25_" gradientUnits="userSpaceOnUse" x1="-300.2803" y1="673.3965" x2="-250.784" y2="738.4558" gradientTransform="matrix(1 0 0 -1 472.5 829)">
				<stop  offset="0.1966" style="stop-color:#DE7210"/>
				<stop  offset="0.8427" style="stop-color:#F9BD5F"/>
				<stop  offset="1" style="stop-color:#FFFCCF"/>
			</linearGradient>
			<path fill="url(#SVGID_25_)" d="M148.107,136.939l43.133,53.64c-12.445-52.676-2.88-84.28,27.756-101.522
				C223.532,86.501,154.995,89.977,148.107,136.939z"/>
			
				<linearGradient id="SVGID_26_" gradientUnits="userSpaceOnUse" x1="-326.4512" y1="584.5898" x2="-276.2753" y2="484.2381" gradientTransform="matrix(1 0 0 -1 472.5 829)">
				<stop  offset="0.0169" style="stop-color:#941403"/>
				<stop  offset="0.5" style="stop-color:#E35100"/>
				<stop  offset="1" style="stop-color:#DF731B"/>
			</linearGradient>
			<path fill="url(#SVGID_26_)" d="M117.718,269.453c7.356-46.346,71.857-39.532,71.857-39.532
				c-2.877,2.138-13.926,3.416-17.091,12.256c-10.447,29.189-0.484,92.955,64.578,119.695
				C243.928,364.701,106.85,337.942,117.718,269.453z"/>
			
				<linearGradient id="SVGID_27_" gradientUnits="userSpaceOnUse" x1="-250.6631" y1="646.1328" x2="-238.1332" y2="634.7774" gradientTransform="matrix(1 0 0 -1 472.5 829)">
				<stop  offset="0" style="stop-color:#EEA272"/>
				<stop  offset="0.1865" style="stop-color:#EFA777"/>
				<stop  offset="0.4064" style="stop-color:#F2B585"/>
				<stop  offset="0.643" style="stop-color:#F6CD9C"/>
				<stop  offset="0.8898" style="stop-color:#FCEEBB"/>
				<stop  offset="1" style="stop-color:#FFFFCC"/>
			</linearGradient>
			<path fill="url(#SVGID_27_)" d="M249.297,168.008c-0.317-0.055-0.598-0.047-0.738,0.141c-0.794,1.064-3.859,4.683-11.152,10.628
				c-13.549,11.02-19.263,8.228-29.355,10.488c-4.594,1.027-8.962,4.11-11.902,6.585c1.189,1.924,2.301,3.996,3.294,5.982
				c2.655,3.161,4.435,4.716,4.69,3.571c1.252-5.643,35.308-25.385,37.812-27.269C243.725,176.801,247.499,174.149,249.297,168.008z
				"/>
			
				<linearGradient id="SVGID_28_" gradientUnits="userSpaceOnUse" x1="-323.7412" y1="619.3086" x2="-266.182" y2="560.5749" gradientTransform="matrix(1 0 0 -1 472.5 829)">
				<stop  offset="0.1966" style="stop-color:#DF731B"/>
				<stop  offset="0.8427" style="stop-color:#F9BD5F"/>
				<stop  offset="1" style="stop-color:#FFFCCF"/>
			</linearGradient>
			<path fill="url(#SVGID_28_)" d="M207.711,238.07c0.381-9.793-0.306-33.583-10.487-43.909
				c-7.782-7.885-9.606-16.921-10.651-27.232c-84.568,31.59-96.64,72.88-88.187,71.54
				C166.025,227.745,185.037,226.434,207.711,238.07z"/>
			
				<linearGradient id="SVGID_29_" gradientUnits="userSpaceOnUse" x1="408.8428" y1="1510.8574" x2="408.8428" y2="1295.0709" gradientTransform="matrix(0.9673 0.2537 0.2537 -0.9673 -714.0107 1535.9585)">
				<stop  offset="0.0562" style="stop-color:#DE7210"/>
				<stop  offset="1" style="stop-color:#F6C08F"/>
			</linearGradient>
			<path fill="url(#SVGID_29_)" d="M27.411,295.95c0,0,5.876-76.359,44.098-104.303c30.005-21.951,6.702-13.978-4.882-13.069
				c-12.22,0.967-18.734,8.397-16.378,5.665c0.1-0.111,0.137-0.178,0.118-0.207C49.964,183.563,21.688,207.293,27.411,295.95z"/>
			
				<linearGradient id="SVGID_30_" gradientUnits="userSpaceOnUse" x1="-386.7734" y1="697.752" x2="-459.7282" y2="578.9398" gradientTransform="matrix(0.9897 -0.0801 -0.0949 -1.1727 521.4858 952.0557)">
				<stop  offset="0.0562" style="stop-color:#DE7210"/>
				<stop  offset="1" style="stop-color:#F2C06E"/>
			</linearGradient>
			<path fill="url(#SVGID_30_)" d="M23.386,237.288c0,0,20.481-65.014,61.875-64.464c27.45,0.366,5.676-23.199-2.629-26.781
				c-8.664-3.708-10.735-3.564-12.759-1.773C66.841,146.958,39.606,145.921,23.386,237.288z"/>
			
				<linearGradient id="SVGID_31_" gradientUnits="userSpaceOnUse" x1="-151.9507" y1="545.6289" x2="-229.4542" y2="530.8248" gradientTransform="matrix(1 0 0 -1 472.5 829)">
				<stop  offset="0.0047" style="stop-color:#FFFAEE"/>
				<stop  offset="0.2757" style="stop-color:#F5F89B"/>
				<stop  offset="0.3102" style="stop-color:#F3ED91"/>
				<stop  offset="0.4668" style="stop-color:#ECC267"/>
				<stop  offset="0.6182" style="stop-color:#E6A046"/>
				<stop  offset="0.7611" style="stop-color:#E2872E"/>
				<stop  offset="0.8921" style="stop-color:#E07820"/>
				<stop  offset="1" style="stop-color:#DF731B"/>
			</linearGradient>
			<path fill="url(#SVGID_31_)" d="M302.608,300.924c3.113-3.051,0.942-14.761-18.619-21.858
				c-17.749-6.448-45.456,9.944-53.677,13.18c0,0,31.382-5.879,43.148-3.921C289.414,290.983,295.016,308.373,302.608,300.924z"/>
			
				<linearGradient id="SVGID_32_" gradientUnits="userSpaceOnUse" x1="-843.7417" y1="143.895" x2="-843.7417" y2="-36.4573" gradientTransform="matrix(0.992 0.1261 0.1261 -0.992 890.6719 427.0361)">
				<stop  offset="0.0562" style="stop-color:#DE7210"/>
				<stop  offset="1" style="stop-color:#F2C06E"/>
			</linearGradient>
			<path fill="url(#SVGID_32_)" d="M53.62,279.505c0,0-3.397-63.917,25.245-91.215c22.49-21.441,4.044-12.312-5.458-10.303
				c-10.022,2.127-14.616,8.988-12.955,6.47c0.07-0.107,0.085-0.163,0.07-0.185C60.135,183.925,39.273,206.651,53.62,279.505z"/>
			
				<linearGradient id="SVGID_33_" gradientUnits="userSpaceOnUse" x1="-838.1099" y1="-73.5586" x2="-838.1099" y2="-253.884" gradientTransform="matrix(0.9324 0.3616 0.3616 -0.9324 881.7715 399.4551)">
				<stop  offset="0.0562" style="stop-color:#DE7210"/>
				<stop  offset="1" style="stop-color:#F2C06E"/>
			</linearGradient>
			<path fill="url(#SVGID_33_)" d="M31.559,259.201c0,0,12.105-62.854,46.487-82.44c26.995-15.389,6.895-10.972-2.818-11.312
				c-10.24-0.351-16.349,5.199-14.133,3.154c0.092-0.085,0.122-0.141,0.111-0.159C60.921,168.008,35.196,185.04,31.559,259.201z"/>
			
				<linearGradient id="SVGID_34_" gradientUnits="userSpaceOnUse" x1="-140.5884" y1="1107.5547" x2="-190.8066" y2="1032.2275" gradientTransform="matrix(0.8104 -0.5859 -0.5859 -0.8104 835.5054 1059.1992)">
				<stop  offset="0.0562" style="stop-color:#DE7210"/>
				<stop  offset="1" style="stop-color:#F2C072"/>
			</linearGradient>
			<path fill="url(#SVGID_34_)" d="M72.38,285c0,0-6.618-38.097,7.645-56.85c11.381-14.963,1.388-7.644-3.896-5.487
				c-5.514,2.252-7.604,6.699-6.851,5.067C70.006,226.139,44.743,245.715,72.38,285z"/>
			
				<linearGradient id="SVGID_35_" gradientUnits="userSpaceOnUse" x1="-113.4131" y1="1132.2344" x2="-163.6302" y2="1056.9092" gradientTransform="matrix(0.8104 -0.5859 -0.5859 -0.8104 835.5054 1059.1992)">
				<stop  offset="0.0562" style="stop-color:#DE7210"/>
				<stop  offset="1" style="stop-color:#F2C072"/>
			</linearGradient>
			<path fill="url(#SVGID_35_)" d="M79.943,249.076c0,0-6.618-38.097,7.644-56.849c11.382-14.964,1.389-7.645-3.896-5.488
				c-5.514,2.252-7.604,6.699-6.851,5.067C77.569,190.214,52.305,209.79,79.943,249.076z"/>
			
				<linearGradient id="SVGID_36_" gradientUnits="userSpaceOnUse" x1="-411.4248" y1="659.001" x2="-433.394" y2="617.993" gradientTransform="matrix(1 0 0 -1 472.5 829)">
				<stop  offset="0.0562" style="stop-color:#DE7210"/>
				<stop  offset="1" style="stop-color:#EED8A5"/>
			</linearGradient>
			<path fill="url(#SVGID_36_)" d="M39.941,196.994c0,0,15.459-31.67,36.003-37.908c16.396-4.971,5.103-4.897,0.051-6.13
				c-5.277-1.278-9.191,0.882-7.767,0.081C69.622,152.254,40.51,153.222,39.941,196.994z"/>
			
				<linearGradient id="SVGID_37_" gradientUnits="userSpaceOnUse" x1="-413.6289" y1="633.9395" x2="-435.5966" y2="592.935" gradientTransform="matrix(1 0 0 -1 472.5 829)">
				<stop  offset="0.0562" style="stop-color:#DE7210"/>
				<stop  offset="1" style="stop-color:#EED8A5"/>
			</linearGradient>
			<path fill="url(#SVGID_37_)" d="M37.737,222.058c0,0,15.455-31.67,36.002-37.904c16.396-4.975,5.104-4.904,0.052-6.138
				c-5.277-1.278-9.192,0.886-7.766,0.085C67.414,177.314,38.302,178.29,37.737,222.058z"/>
			
				<linearGradient id="SVGID_38_" gradientUnits="userSpaceOnUse" x1="-388.7393" y1="651.3398" x2="-409.9738" y2="598.6179" gradientTransform="matrix(1 0 0 -1 472.5 829)">
				<stop  offset="0.0562" style="stop-color:#DE7210"/>
				<stop  offset="1" style="stop-color:#F2C072"/>
			</linearGradient>
			<path fill="url(#SVGID_38_)" d="M48.959,215.145c0,0,27.262-55.867,63.507-66.871c28.927-8.774,9.007-8.649,0.089-10.817
				c-9.31-2.256-16.216,1.566-13.705,0.148C101.311,136.22,49.957,137.926,48.959,215.145z"/>
			
				<linearGradient id="SVGID_39_" gradientUnits="userSpaceOnUse" x1="-380.666" y1="677.0029" x2="-430.8807" y2="601.6812" gradientTransform="matrix(1 0 0 -1 472.5 829)">
				<stop  offset="0.0562" style="stop-color:#DE7210"/>
				<stop  offset="1" style="stop-color:#F2C072"/>
			</linearGradient>
			<path fill="url(#SVGID_39_)" d="M67.594,185.055c0,0,16.958-34.747,39.5-41.59c17.992-5.458,5.598-5.381,0.055-6.729
				c-5.794-1.403-10.085,0.971-8.523,0.089C100.155,135.961,68.215,137.024,67.594,185.055z"/>
			
				<linearGradient id="SVGID_40_" gradientUnits="userSpaceOnUse" x1="-377.2847" y1="661.8008" x2="-423.0553" y2="593.1447" gradientTransform="matrix(1 0 0 -1 472.5 829)">
				<stop  offset="0.0562" style="stop-color:#DE7210"/>
				<stop  offset="1" style="stop-color:#F2C072"/>
			</linearGradient>
			<path fill="url(#SVGID_40_)" d="M73.123,197.33c0,0,15.455-31.67,35.999-37.904c16.4-4.975,5.107-4.905,0.055-6.138
				c-5.281-1.278-9.195,0.886-7.77,0.085C102.795,152.586,73.688,153.562,73.123,197.33z"/>
			
				<linearGradient id="SVGID_41_" gradientUnits="userSpaceOnUse" x1="-230.0132" y1="672.4912" x2="-226.3869" y2="666.0294" gradientTransform="matrix(1 0 0 -1 472.5 829)">
				<stop  offset="0" style="stop-color:#8B8B89"/>
				<stop  offset="1" style="stop-color:#120500"/>
			</linearGradient>
			<path fill="url(#SVGID_41_)" d="M250.268,158.684c-0.177-3.301-0.664-4.379-16.47-4.649c1.81,0.82,4.934,2.467,8.372,5.288
				c4.542,3.723,5.277,7.87,5.747,12.165C249.456,168.562,250.583,164.526,250.268,158.684z"/>
			
				<linearGradient id="SVGID_42_" gradientUnits="userSpaceOnUse" x1="-372.6821" y1="694.4424" x2="-372.6821" y2="714.2831" gradientTransform="matrix(1 0 0 -1 472.5 829)">
				<stop  offset="0.0562" style="stop-color:#DE7210"/>
				<stop  offset="1" style="stop-color:#F6C08F"/>
			</linearGradient>
			<path fill="url(#SVGID_42_)" d="M157.462,114.568l-13.708,22.058c0,0-54.818-8.597-101.29,36.36
				C38.623,176.701,72.86,93.489,157.462,114.568z"/>
			
				<linearGradient id="SVGID_43_" gradientUnits="userSpaceOnUse" x1="-379.606" y1="635.4248" x2="-338.0781" y2="683.9548" gradientTransform="matrix(0.9992 0.0398 0.0398 -0.9992 454.0117 806.5713)">
				<stop  offset="0.0562" style="stop-color:#DE7210"/>
				<stop  offset="1" style="stop-color:#F6C08F"/>
			</linearGradient>
			<path fill="url(#SVGID_43_)" d="M108.235,154.049c0,0,14.609-27.121,33.55-35.319
				C131.995,119.04,110.008,126.696,108.235,154.049z"/>
			
				<linearGradient id="SVGID_44_" gradientUnits="userSpaceOnUse" x1="-399.3442" y1="675.4756" x2="-421.3141" y2="634.4664" gradientTransform="matrix(1 0 0 -1 472.5 829)">
				<stop  offset="0.0562" style="stop-color:#DE7210"/>
				<stop  offset="1" style="stop-color:#EED8A5"/>
			</linearGradient>
			<path fill="url(#SVGID_44_)" d="M52.024,180.52c0,0,15.456-31.671,36.003-37.908c16.396-4.975,5.104-4.901,0.051-6.134
				c-5.281-1.278-9.191,0.886-7.766,0.081C81.701,135.776,52.59,136.744,52.024,180.52z"/>
			
				<linearGradient id="SVGID_45_" gradientUnits="userSpaceOnUse" x1="-412.4097" y1="570.3232" x2="-371.8454" y2="617.7271" gradientTransform="matrix(0.9946 0.1039 0.1039 -0.9946 427.1436 770.2148)">
				<stop  offset="0.0562" style="stop-color:#DE7210"/>
				<stop  offset="1" style="stop-color:#F6C08F"/>
			</linearGradient>
			<path fill="url(#SVGID_45_)" d="M84.404,158.204c0,0,15.946-25.529,34.92-32.324C109.771,125.562,87.85,131.647,84.404,158.204z"
				/>
			
				<linearGradient id="SVGID_46_" gradientUnits="userSpaceOnUse" x1="-424.8228" y1="633.2227" x2="-376.0822" y2="626.5475" gradientTransform="matrix(0.9959 0.0903 0.0903 -0.9959 431.8281 777.647)">
				<stop  offset="0.0562" style="stop-color:#DE7210"/>
				<stop  offset="1" style="stop-color:#F6C08F"/>
			</linearGradient>
			<path fill="url(#SVGID_46_)" d="M111.743,114.598c0,0-12.024,5.255-33.229-3.564l18.904,9.506L111.743,114.598z"/>
			
				<linearGradient id="SVGID_47_" gradientUnits="userSpaceOnUse" x1="-431.5776" y1="714.7998" x2="-362.7766" y2="705.3775" gradientTransform="matrix(1 0 0 -1 472.5 829)">
				<stop  offset="0.0562" style="stop-color:#DE7210"/>
				<stop  offset="1" style="stop-color:#F6C08F"/>
			</linearGradient>
			<path fill="url(#SVGID_47_)" d="M105.931,117.969c0,0-16.024,6.208-46.867-3.036l26.382,10.499
				C88.71,122.416,105.931,117.969,105.931,117.969z"/>
			
				<linearGradient id="SVGID_48_" gradientUnits="userSpaceOnUse" x1="-415.335" y1="635.6768" x2="-370.5431" y2="629.5424" gradientTransform="matrix(0.9959 0.0903 0.0903 -0.9959 431.8281 777.647)">
				<stop  offset="0.0562" style="stop-color:#DE7210"/>
				<stop  offset="1" style="stop-color:#F6C08F"/>
			</linearGradient>
			<path fill="url(#SVGID_48_)" d="M117.626,112.877c0,0-10.636,3.238-30.286-4.362l18.904,9.502
				C108.242,116.248,117.626,112.877,117.626,112.877z"/>
			
				<linearGradient id="SVGID_49_" gradientUnits="userSpaceOnUse" x1="-400.5049" y1="700.3125" x2="-440.8867" y2="704.4574" gradientTransform="matrix(1 0 0 -1 472.5 829)">
				<stop  offset="0.0562" style="stop-color:#DE7210"/>
				<stop  offset="1" style="stop-color:#F6C08F"/>
			</linearGradient>
			<path fill="url(#SVGID_49_)" d="M84.456,125.107c0,0-7.903,6.562-28.147,6.829l17.508,0.572L84.456,125.107z"/>
			
				<linearGradient id="SVGID_50_" gradientUnits="userSpaceOnUse" x1="-432.8135" y1="565.4277" x2="-376.947" y2="630.7141" gradientTransform="matrix(0.9946 0.1039 0.1039 -0.9946 427.1436 770.2148)">
				<stop  offset="0.0562" style="stop-color:#DE7210"/>
				<stop  offset="1" style="stop-color:#F6C08F"/>
			</linearGradient>
			<path fill="url(#SVGID_50_)" d="M65.227,158.68c0,0,27.05-35.238,49.326-43.215C103.331,115.096,69.271,127.511,65.227,158.68z"
				/>
		</g>
		<g id="Fire">
			
				<linearGradient id="SVGID_51_" gradientUnits="userSpaceOnUse" x1="-123.9609" y1="358.354" x2="-14.5447" y2="527.1154" gradientTransform="matrix(1 0 0 -1 472.5 829)">
				<stop  offset="0" style="stop-color:#DE5C01"/>
				<stop  offset="0.736" style="stop-color:#FEFD00"/>
				<stop  offset="0.7783" style="stop-color:#FEFE26"/>
				<stop  offset="0.8369" style="stop-color:#FFFE54"/>
				<stop  offset="0.889" style="stop-color:#FFFF76"/>
				<stop  offset="0.932" style="stop-color:#FFFF8B"/>
				<stop  offset="0.9607" style="stop-color:#FFFF92"/>
			</linearGradient>
			<path fill="url(#SVGID_51_)" d="M484.178,218.764c0,0,2.914,65.375-87.899,156.196c-10.093,10.089-64.892,61.428-62.964,76.828
				C333.995,457.23,477.095,429.836,484.178,218.764z"/>
			
				<linearGradient id="SVGID_52_" gradientUnits="userSpaceOnUse" x1="-60.3345" y1="716.2051" x2="-131.9781" y2="747.6703" gradientTransform="matrix(1 0 0 -1 472.5 829)">
				<stop  offset="0" style="stop-color:#F79A09"/>
				<stop  offset="0.736" style="stop-color:#FEFD00"/>
				<stop  offset="0.7783" style="stop-color:#FEFE26"/>
				<stop  offset="0.8369" style="stop-color:#FFFE54"/>
				<stop  offset="0.889" style="stop-color:#FFFF76"/>
				<stop  offset="0.932" style="stop-color:#FFFF8B"/>
				<stop  offset="0.9607" style="stop-color:#FFFF92"/>
			</linearGradient>
			<path fill="url(#SVGID_52_)" d="M308.111,64.99c109.388,8.405,130.57,87.057,130.578,82.241
				C438.966,70.77,334.907,64.964,308.111,64.99z"/>
			
				<linearGradient id="SVGID_53_" gradientUnits="userSpaceOnUse" x1="-12.208" y1="644.3867" x2="-112.5077" y2="737.5013" gradientTransform="matrix(1 0 0 -1 472.5 829)">
				<stop  offset="0" style="stop-color:#DE5C01"/>
				<stop  offset="0.736" style="stop-color:#FEFD00"/>
				<stop  offset="0.7783" style="stop-color:#FEFE26"/>
				<stop  offset="0.8369" style="stop-color:#FFFE54"/>
				<stop  offset="0.889" style="stop-color:#FFFF76"/>
				<stop  offset="0.932" style="stop-color:#FFFF8B"/>
				<stop  offset="0.9607" style="stop-color:#FFFF92"/>
			</linearGradient>
			<path fill="url(#SVGID_53_)" d="M341.425,94.892c0,0,75.83,15.499,97.22,95.879c2.836,10.643-9.137-65.298-5.443-58.09
				C436.891,139.927,402.683,97.296,341.425,94.892z"/>
			
				<linearGradient id="SVGID_54_" gradientUnits="userSpaceOnUse" x1="-145.2334" y1="562.3242" x2="-187.2302" y2="605.7591" gradientTransform="matrix(0.9996 -0.0282 -0.0282 -0.9996 591.5854 738.8403)">
				<stop  offset="0" style="stop-color:#F79A09"/>
				<stop  offset="0.736" style="stop-color:#FEFD00"/>
				<stop  offset="0.7783" style="stop-color:#FEFE26"/>
				<stop  offset="0.8369" style="stop-color:#FFFE54"/>
				<stop  offset="0.889" style="stop-color:#FFFF76"/>
				<stop  offset="0.932" style="stop-color:#FFFF8B"/>
				<stop  offset="0.9607" style="stop-color:#FFFF92"/>
			</linearGradient>
			<path fill="url(#SVGID_54_)" d="M371.732,92.924c0,0,68.485,14.277,69.165,122.937c0.48,76.91,11.876,28.872,23.184,11.589
				c9.75-14.935,3.087-33.129,2.851-33.082c-0.037,0.007-4.933-14.158-1.632-8.154c0.147,0.266-4.598-3.911-4.564-3.915
				C461.497,182.186,458.099,104.202,371.732,92.924z"/>
			
				<linearGradient id="SVGID_55_" gradientUnits="userSpaceOnUse" x1="-29.0259" y1="591.0469" x2="-5.3897" y2="672.3554" gradientTransform="matrix(1 0 0 -1 472.5 829)">
				<stop  offset="0" style="stop-color:#F79A09"/>
				<stop  offset="0.736" style="stop-color:#FEFD00"/>
				<stop  offset="0.7783" style="stop-color:#FEFE26"/>
				<stop  offset="0.8369" style="stop-color:#FFFE54"/>
				<stop  offset="0.889" style="stop-color:#FFFF76"/>
				<stop  offset="0.932" style="stop-color:#FFFF8B"/>
				<stop  offset="0.9607" style="stop-color:#FFFF92"/>
			</linearGradient>
			<path fill="url(#SVGID_55_)" d="M448.852,107.647c0,0,24.598,64.076-1.474,95.942c-8.508,10.399-9.461,63.677,0.935,58.785
				c10.421-4.901,8.158,28.292,6.792,32.065c-0.03,0.074-0.037,0.107-0.022,0.118C455.761,294.979,506.48,212.648,448.852,107.647z"
				/>
			
				<linearGradient id="SVGID_56_" gradientUnits="userSpaceOnUse" x1="-201.4131" y1="447.8477" x2="-202.2753" y2="509.6904" gradientTransform="matrix(0.9992 -0.0412 -0.0412 -0.9992 645.4121 696.1177)">
				<stop  offset="0" style="stop-color:#F79A09"/>
				<stop  offset="0.736" style="stop-color:#FEFD00"/>
				<stop  offset="0.7783" style="stop-color:#FEFE26"/>
				<stop  offset="0.8369" style="stop-color:#FFFE54"/>
				<stop  offset="0.889" style="stop-color:#FFFF76"/>
				<stop  offset="0.932" style="stop-color:#FFFF8B"/>
				<stop  offset="0.9607" style="stop-color:#FFFF92"/>
			</linearGradient>
			<path fill="url(#SVGID_56_)" d="M414.655,175.106c0,0,15.484,45.338-0.731,77.751l12.268,27.394
				C435.188,258.152,446.643,211.415,414.655,175.106z"/>
			
				<linearGradient id="SVGID_57_" gradientUnits="userSpaceOnUse" x1="-328.1221" y1="309.6113" x2="-285.5219" y2="393.5202" gradientTransform="matrix(0.9975 -0.0707 -0.0707 -0.9975 763.75 596.0449)">
				<stop  offset="0" style="stop-color:#F79A09"/>
				<stop  offset="0.736" style="stop-color:#FEFD00"/>
				<stop  offset="0.7783" style="stop-color:#FEFE26"/>
				<stop  offset="0.8369" style="stop-color:#FFFE54"/>
				<stop  offset="0.889" style="stop-color:#FFFF76"/>
				<stop  offset="0.932" style="stop-color:#FFFF8B"/>
				<stop  offset="0.9607" style="stop-color:#FFFF92"/>
			</linearGradient>
			<path fill="url(#SVGID_57_)" d="M441.887,169.714c0,0,10.709,71.96-27.933,136.922c0.599,15.027-2.038,28.624-5.658,39.829
				c1.685,2.215,3.937,3.73,6.91,3.996c-1.311,1.211-2.618,2.345-3.881,3.419c-2.319,1.027-4.697,2.109-7.002,3.224
				c-0.491,1.148-0.986,2.256-1.47,3.327c2.57-1.806,5.436-3.996,8.468-6.547c7.892-3.49,14.997-6.193,14.979-6.208
				c0,0-1.448,0.54-4.926,1.806c-2.341,0.85-4.388,1.138-6.171,0.979C445.044,323.266,485.94,262.444,441.887,169.714z
				 M396.863,361.023c-3.412,2.001-5.894,3.877-6.422,5.325c-0.392,1.056,1.935,0.443,5.957-1.81
				C396.604,363.327,396.774,362.146,396.863,361.023z"/>
			
				<linearGradient id="SVGID_58_" gradientUnits="userSpaceOnUse" x1="-92.1328" y1="503.0376" x2="-86.4038" y2="595.9779" gradientTransform="matrix(0.9975 -0.0707 -0.0707 -0.9975 498.1826 878.166)">
				<stop  offset="0" style="stop-color:#DE5C01"/>
				<stop  offset="0.736" style="stop-color:#FEFD00"/>
				<stop  offset="0.7783" style="stop-color:#FEFE26"/>
				<stop  offset="0.8369" style="stop-color:#FFFE54"/>
				<stop  offset="0.889" style="stop-color:#FFFF76"/>
				<stop  offset="0.932" style="stop-color:#FFFF8B"/>
				<stop  offset="0.9607" style="stop-color:#FFFF92"/>
			</linearGradient>
			<path fill="url(#SVGID_58_)" d="M394.226,246.387c0,0,30.467,86.721-66.908,168.025c-5.743,4.797,39.525,2.744,43.488,0.945
				c11.669-5.299,25.463-40.677,23.834-36.445C393.026,383.143,439.855,316.382,394.226,246.387z"/>
			
				<linearGradient id="SVGID_59_" gradientUnits="userSpaceOnUse" x1="-237.2637" y1="371.6226" x2="-57.6159" y2="478.9982" gradientTransform="matrix(1 0 0 -1 472.5 829)">
				<stop  offset="0" style="stop-color:#B9120D"/>
				<stop  offset="0.078" style="stop-color:#BB180D"/>
				<stop  offset="0.1822" style="stop-color:#C0290C"/>
				<stop  offset="0.3013" style="stop-color:#C8450A"/>
				<stop  offset="0.4314" style="stop-color:#D36C08"/>
				<stop  offset="0.5706" style="stop-color:#E29E05"/>
				<stop  offset="0.7151" style="stop-color:#F4DA02"/>
				<stop  offset="0.7921" style="stop-color:#FEFD00"/>
				<stop  offset="0.8136" style="stop-color:#FEFD07"/>
				<stop  offset="0.8455" style="stop-color:#FEFD1B"/>
				<stop  offset="0.8837" style="stop-color:#FEFE3C"/>
				<stop  offset="0.9268" style="stop-color:#FFFE69"/>
				<stop  offset="0.9736" style="stop-color:#FFFFA3"/>
				<stop  offset="1" style="stop-color:#FFFFC7"/>
			</linearGradient>
			<path fill="url(#SVGID_59_)" d="M436.835,301.389c0,0-18.376,112.479-145.442,121.53c-49.751,3.549-121.191-8.098-114.865,10.88
				c1.964,5.882,11.315,30.415,32.66,36.105C266.95,485.315,420.63,480.271,436.835,301.389z"/>
		</g>
		<g id="Layer_6">
			
				<linearGradient id="SVGID_60_" gradientUnits="userSpaceOnUse" x1="-250.8906" y1="369.7681" x2="-66.8538" y2="344.8341" gradientTransform="matrix(0.9951 0.0989 0.0989 -0.9951 435.9824 769.0464)">
				<stop  offset="0.0562" style="stop-color:#DE7210"/>
				<stop  offset="1" style="stop-color:#F6C08F"/>
			</linearGradient>
			<path fill="url(#SVGID_60_)" d="M330.867,386.511c0,0-77.747,17.763-128.111-25.112c-46.088-39.241-23.225-6.215-16.973,10.075
				c6.422,16.707-29.698,3.944-35.127,1.255C145.246,370.078,236.206,427.126,330.867,386.511z"/>
			
				<linearGradient id="SVGID_61_" gradientUnits="userSpaceOnUse" x1="-306.9062" y1="339.2769" x2="-93.216" y2="272.1169" gradientTransform="matrix(0.9895 0.1448 0.1448 -0.9895 419.8438 742.6191)">
				<stop  offset="0.0562" style="stop-color:#DE7210"/>
				<stop  offset="1" style="stop-color:#F6C08F"/>
			</linearGradient>
			<path fill="url(#SVGID_61_)" d="M280.765,428.888c0,0-92.745-18.228-122.106-81.071c-25.09-53.688-18.45-14.292-19.58,3.642
				c-1.189,18.442-27.195-6.744-30.67-11.126c-0.099-0.107-0.166-0.181-0.173-0.159C107.718,340.512,156.065,416.31,280.765,428.888
				z"/>
			
				<linearGradient id="SVGID_62_" gradientUnits="userSpaceOnUse" x1="-969.3564" y1="105.3896" x2="-867.7466" y2="-89.1459" gradientTransform="matrix(0.9837 -0.1799 -0.1799 -0.9837 1071.877 270.6719)">
				<stop  offset="0.0562" style="stop-color:#DE7210"/>
				<stop  offset="1" style="stop-color:#F6C08F"/>
			</linearGradient>
			<path fill="url(#SVGID_62_)" d="M179.453,420.76c0,0-44.296-34.307-64.268-81.355c-16.784-5.831-39.097-19.159-39.54-21.441
				C82.735,354.52,120.063,397.199,179.453,420.76z"/>
		</g>
	</g>
</g>
</svg>
