<?xml version="1.0" encoding="utf-8"?>
<!-- Generator: Adobe Illustrator 16.0.0, SVG Export Plug-In . SVG Version: 6.00 Build 0)  -->
<!DOCTYPE svg PUBLIC "-//W3C//DTD SVG 1.1//EN" "http://www.w3.org/Graphics/SVG/1.1/DTD/svg11.dtd">
<svg version="1.1" id="Layer_1" xmlns="http://www.w3.org/2000/svg" xmlns:xlink="http://www.w3.org/1999/xlink" x="0px" y="0px"
	 width="500px" height="500px" viewBox="0 0 500 500" enable-background="new 0 0 500 500" xml:space="preserve">
<g>
	<path fill="#DD732A" d="M425.024,171.521c-0.435-3.995-1.204-7.953-1.82-11.928c-1.875,5.469-1.85,11.188-5.31,16.02
		c-1.582-30.284-7.424-59.142-25.954-85.145c1.652,9.912,3.138,18.813,4.622,27.718c-0.355,0.062-0.711,0.122-1.068,0.185
		c-1.184-2.967-2.23-5.998-3.577-8.89c-8.037-17.277-20.865-29.841-37.862-38.281c-3.697-1.838-7.59-3.417-10.979-5.726
		c-35.892-24.441-75.428-33.63-118.266-27.523c-34.152,4.867-63.78,19.655-88.945,43.322c-4.193,3.944-8.601,7.661-13.005,11.569
		c-6.108-8.048-8.179-18.776-10.465-29.94c-5.793,5.609-9.185,12.066-11.694,19.009c-4.92,13.611-6.438,27.788-6.192,42.143
		c0.068,4.056-1.497,7.034-3.694,10.046c-6.061,8.304-11.385,17.043-14.403,26.938c-1.462,4.789-2.718,9.733-1.328,15.397
		c3.267-2.612,6.185-4.949,9.4-7.524c0.104,0.757,0.215,1.003,0.152,1.194c-0.355,1.092-0.763,2.168-1.134,3.256
		c-7.246,21.234-8.319,42.943-3.87,64.771c5.879,28.836,19.013,54.159,38.87,75.92c41.387,45.358,92.627,64.958,153.625,57.669
		c42.033-5.023,75.64-26.189,102.544-57.892c23.628-27.842,39.307-59.879,46.131-96.078
		C423.691,202.43,426.735,187.21,425.024,171.521z M361.78,138.968c-0.387,0.333-0.773,0.666-1.159,0.999
		c5.421,23.181,8.896,46.408,1.87,70.802c-3.443-7.855-5.264-15.692-11.263-22.379c2.932,30.763,2.271,59.938-18.59,85.46
		c1.36-9.291,2.6-17.75,3.839-26.209c-0.362-0.079-0.726-0.157-1.087-0.235c-4.351,5.423-8.508,11.018-13.09,16.238
		c-11.37,12.953-24.659,23.206-41.578,27.876c-15.098,4.171-29.972,2.203-44.524-2.592c-13.216-4.356-24.665-11.8-34.65-21.485
		c-0.312-0.301-0.566-0.661-1.279-1.503c1.926,0,3.35-0.045,4.77,0.008c13.827,0.515,27.219-1.647,39.505-8.07
		c7.627-3.986,14.692-9.068,21.887-13.844c2.724-1.806,5.513-2.328,8.529-1.571c2.904,0.728,5.433,0.143,6.938-2.327
		c1.565-2.573,0.459-5.058-1.386-7.249c-10.321-12.267-27.149-14.926-42.064-7.044c-4.921,2.601-10.221,4.917-15.624,6.071
		c-7.769,1.66-15.066-0.832-21.559-5.312c-7.843-5.41-14.49-12.113-20.354-19.586c-2.881-3.67-2.837-8.147-0.145-12.429
		c2.322-3.692,6.187-5.28,10.714-4.448c3.621,0.666,7.265,1.227,10.877,1.943c3.599,0.714,7.171,1.563,11.07,2.425
		c1.226-4.994,0.771-9.877-0.571-14.597c-1.062-3.733-2.642-7.35-4.299-10.873c-0.897-1.909-0.829-3.081,0.897-4.373
		c6.906-5.168,13.533-10.748,20.695-15.528c3.786-2.526,5.584-5.996,7.235-9.734c1.11-2.513-0.899-4.704-3.998-4.923
		c-5.046-0.354-10.13-0.504-15.109-1.294c-2.578-0.41-5.38-1.519-7.364-3.171c-5.748-4.784-11.162-9.974-16.613-15.104
		c-0.527-0.497-0.654-1.737-0.527-2.563c2.312-15.066,10.612-26.195,22.929-34.658c0.632-0.436,1.203-0.959,1.519-2.247
		c-3.804,0.943-7.663,1.709-11.402,2.861c-11.878,3.659-22.129,10.123-31.346,18.378c-0.924,0.828-2.707,1.539-3.779,1.229
		c-9.835-2.854-19.59-2.193-29.358,0.203c-0.541,0.133-1.085,0.266-1.749,0.427c6.002-12.73,44.866-36.328,70.753-42.952
		c27.825-7.119,55.444-6.438,83.309,2.266c-0.859,0.453-1.204,0.636-1.713,0.905c13.751,3.738,27.318,7.375,35.216,20.405
		c-7.316,0.433-14.345,0.849-21.372,1.266c-0.061,0.508-0.121,1.016-0.182,1.524c1.473,0.657,2.933,1.349,4.422,1.966
		c15.162,6.283,29.794,13.526,42.543,24.054c10.171,8.399,18.354,18.191,20.675,31.693c0.531,3.097,0.4,6.307,0.569,9.359
		C370.288,145.538,366.034,142.254,361.78,138.968z"/>
	<polygon fill="#DD732A" points="106,462 122,462 122,436 140,436 140,426 122,426 122,409 142.901,409 144.472,398 106,398 	"/>
	<path fill="#DD732A" d="M161.005,387.398c-2.525,0-4.588,0.784-6.189,2.354s-2.401,3.556-2.401,5.958
		c0,2.401,0.8,4.387,2.401,5.958c1.602,1.569,3.664,2.355,6.189,2.355c2.524,0,4.602-0.786,6.234-2.355
		c1.631-1.571,2.448-3.557,2.448-5.958c0-2.402-0.817-4.388-2.448-5.958C165.606,388.183,163.529,387.398,161.005,387.398z"/>
	<rect x="154" y="413" fill="#DD732A" width="15" height="49"/>
	<path fill="#DD732A" d="M198.829,414.784c-2.248,1.939-3.926,4.475-5.034,7.859l-1.2-9.644H180v49h15v-23.984
		c0-4.003,1.766-7.005,3.275-9.007c1.51-2.001,3.571-3.002,6.466-3.002c1.108,0,2.517,0.217,4.364,0.646l2.274-14.131
		c-1.479-0.432-3.127-0.646-4.912-0.646C203.634,411.876,201.076,412.845,198.829,414.784z"/>
	<path fill="#DD732A" d="M236.099,411.69c-4.803,0-8.93,1.154-12.377,3.464c-3.449,2.309-6.066,5.449-7.852,9.421
		c-1.787,3.972-2.679,8.451-2.679,13.44c0,7.882,2.124,14.163,6.373,18.842c4.249,4.681,10.345,7.02,18.288,7.02
		c7.021,0,13.394-2.276,19.121-6.834l-6.004-8.13c-2.156,1.479-4.156,2.572-6.004,3.28s-3.758,1.062-5.727,1.062
		c-3.265,0-5.82-0.872-7.667-2.534s-3.018-4.722-3.51-8.722h30.389c0.185-2,0.276-3.194,0.276-5.226
		c0-7.881-2.001-14.021-6.003-18.454C248.721,413.887,243.179,411.69,236.099,411.69z M245,433h-16.938
		c0.308-4,1.154-7.146,2.54-8.993c1.386-1.846,3.634-2.694,6.159-2.694c5.172,0,7.238,3.833,8.238,11.345V433z"/>
	<path fill="#DD732A" d="M284,409.474c0-2.34,0.295-4.002,1.219-4.988c0.924-0.983,2.349-1.478,4.442-1.478
		c2.646,0,5.16,0.616,7.623,1.847l3.952-9.514c-4.064-2.092-8.539-3.141-13.404-3.141c-6.035,0-10.709,1.556-13.941,4.665
		c-3.232,3.11-4.891,7.128-4.891,12.054V413h-7v10h7v39h15v-39h9.642l1.57-10H284V409.474z"/>
	<path fill="#DD732A" d="M320.335,411.69c-4.928,0-9.191,1.078-12.793,3.233c-3.602,2.156-6.373,5.188-8.313,9.098
		c-1.938,3.911-2.909,8.482-2.909,13.716c0,8.252,2.139,14.673,6.42,19.26c4.279,4.587,10.145,6.88,17.596,6.88
		c4.926,0,9.19-1.077,12.793-3.232c3.602-2.154,6.373-5.187,8.312-9.098c1.939-3.91,2.91-8.482,2.91-13.717
		c0-8.251-2.125-14.671-6.374-19.259C333.728,413.985,327.847,411.69,320.335,411.69z M326.985,449.422
		c-1.478,2.495-3.695,3.741-6.65,3.741c-3.018,0-5.25-1.231-6.696-3.694c-1.448-2.463-2.171-6.373-2.171-11.731
		c0-5.233,0.738-9.098,2.217-11.592s3.695-3.74,6.65-3.74c3.017,0,5.249,1.231,6.697,3.694c1.445,2.463,2.17,6.373,2.17,11.73
		C329.202,443.064,328.463,446.928,326.985,449.422z"/>
	<polygon fill="#DD732A" points="391.273,413 375.757,413 369.198,428.703 362.362,413 346.015,413 360.239,436.254 344.444,462 
		360.331,462 368.644,443.618 377.142,462 393.675,462 377.88,435.791 	"/>
</g>
</svg>
