<svg xmlns="http://www.w3.org/2000/svg" viewBox="0 0 128 128"><path fill="#113b6a" d="M115.225 0c-7.059 0-12.778 5.722-12.778 12.777 0 2.481.718 4.788 1.942 6.748l-8.135 8.135c-10.22-9.249-23.77-14.883-38.64-14.883C25.795 12.777 0 38.572 0 70.39S25.796 128 57.613 128c31.818 0 57.612-25.793 57.612-57.611 0-14.87-5.636-28.422-14.885-38.643l8.137-8.135a12.7 12.7 0 0 0 6.748 1.944c7.054 0 12.775-5.722 12.775-12.778C128 5.722 122.28 0 115.225 0M42.637 61.084q2.678 0 4.304.498 1.627.497 2.49 1.416.861.918 1.13 2.258c.178.892.267 1.916.267 3.064v6.043q-.002.614.057.957.055.346.209.52a.84.84 0 0 0 .422.246q.269.078.728.113.496.04.649.174.153.135.152.479v2.45q0 .764-1.11.993a9.8 9.8 0 0 1-2.37.271q-1.417 0-2.489-.478-1.07-.48-1.453-2.01l-.08-.037a9.3 9.3 0 0 1-1.645 1.186q-.881.496-1.8.822a10 10 0 0 1-1.797.457q-.881.132-1.608.133-1.685 0-2.738-.477-1.051-.477-1.623-1.242a4.4 4.4 0 0 1-.785-1.781 10.3 10.3 0 0 1-.211-2.125q-.04-1.76.478-2.987.517-1.224 1.473-1.97.956-.745 2.334-1.069 1.379-.327 3.065-.328h4.398v-.611q0-.613-.133-1.033a1.36 1.36 0 0 0-.498-.692q-.363-.266-1.012-.4-.652-.134-1.724-.133-.422 0-1.051.04-.63.038-1.32.077-.69.038-1.38.113-.688.076-1.263.114-.804.075-1.053 0-.248-.078-.4-.653l-.422-1.986q-.076-.496.135-.822.21-.326 1.092-.672.649-.23 1.51-.4a25 25 0 0 1 1.761-.288q.899-.115 1.78-.173a24 24 0 0 1 1.53-.057zm19.597.004q.651 0 1.438.057.783.057 1.586.152.804.098 1.55.252a9 9 0 0 1 1.356.387c.51.179.89.367 1.13.56q.365.29.173 1.024l-.42 1.966q-.152.537-.324.653t-.825.039q-.649-.078-1.414-.174a31 31 0 0 0-1.513-.152 83 83 0 0 0-1.397-.094 20 20 0 0 0-1.11-.041q-1.455-.038-1.82.324c-.242.24-.359.57-.359.977 0 .483.22.791.67.931q.674.211 1.711.4a35 35 0 0 1 2.844.48q1.344.284 2.361.933a4.9 4.9 0 0 1 1.633 1.738q.612 1.088.611 2.883c-.001 1.795-.235 2.195-.707 2.996a5.5 5.5 0 0 1-1.894 1.928q-1.187.724-2.696 1.048a15 15 0 0 1-3.16.325q-.687 0-1.49-.057a25 25 0 0 1-3.197-.437 11 11 0 0 1-1.32-.342q-.958-.34-1.223-.701-.269-.36-.076-1.12l.418-1.824q.115-.533.347-.646.228-.115.877 0 1.34.23 2.91.363 1.57.134 2.563.133 1.453 0 2.068-.326.612-.326.611-1.094 0-.844-.459-1.131t-1.683-.441a40 40 0 0 1-2.93-.536c-.905-.204-1.702-.515-2.39-.925a4.5 4.5 0 0 1-1.627-1.647q-.593-1.036-.592-2.724-.002-1.535.588-2.688a5.46 5.46 0 0 1 1.617-1.916q1.027-.766 2.455-1.15 1.425-.384 3.11-.383zm-37.093.035q2.028.002 3.193.672 1.168.671 1.744 1.762a6.6 6.6 0 0 1 .71 2.427q.134 1.34.132 2.68v10.87q.002.305-.133.554c-.09.166-.31.248-.668.248H25.91q-.842-.001-.842-.805-.002-2.525.016-5.011.02-2.488.021-5.014-.002-1.608-.558-2.276-.555-.67-1.777-.671-.92 0-1.99.441a28 28 0 0 1-1.762.668v11.865q0 .305-.133.555-.136.249-.672.248h-4.17q-.496 0-.668-.211-.173-.209-.174-.592V62.311q0-.383.174-.612.172-.23.668-.23h4.17q.537.002.672.27.134.267.133.572v.918q.038 0 .056.019.02.02.057.02 1.264-.956 2.947-1.55c1.122-.394 2.144-.595 3.063-.595m58.832 0q1.72 0 3.023.633a3.95 3.95 0 0 1 1.914 1.97 12.8 12.8 0 0 1 3.04-1.857c1.134-.497 2.28-.746 3.427-.746q2.029 0 3.158.668 1.128.672 1.684 1.744.555 1.07.67 2.408.114 1.34.115 2.68v10.908a1.13 1.13 0 0 1-.135.557q-.135.248-.63.248h-4.21q-.499 0-.672-.211c-.114-.139-.17-.34-.17-.594V69.465q-.001-1.76-.539-2.334-.533-.573-1.605-.572-.688.001-1.684.365a14 14 0 0 0-1.72.744v11.863q0 .306-.135.557-.134.25-.67.248h-4.211c-.308 0-.515-.07-.63-.211-.115-.139-.175-.34-.175-.594v-10.18q.002-1.607-.517-2.2-.522-.594-1.56-.592-.695-.001-1.677.343a14 14 0 0 0-1.794.766v11.863q0 .305-.153.555-.15.25-.681.25h-4.184c-.306 0-.512-.07-.627-.211-.115-.139-.17-.34-.17-.594v-17.22q-.001-.383.17-.612c.115-.153.321-.23.627-.23h4.184q.53 0 .681.265.153.27.153.577v.877l.078.04a9.7 9.7 0 0 1 2.677-1.55 8.2 8.2 0 0 1 2.948-.555M41.527 72.375q-1.072 0-1.683.498-.615.498-.615 1.838 0 .88.363 1.223.365.344 1.361.345.879.001 2.047-.42 1.168-.418 1.97-.918v-2.566z"/></svg>
