<svg viewBox="0 0 128 128" xmlns="http://www.w3.org/2000/svg"><path d="m 23.817342,74.771443 c -0.03476,0.137885 -0.172648,0.20683 -0.41308,0.20683 h -4.598335 c -0.276352,0 -0.521419,-0.120505 -0.723034,-0.362098 L 10.489876,64.95718 8.3723353,66.971595 v 7.491051 c 0,0.344716 -0.1726485,0.516784 -0.5167846,0.516784 H 4.2913638 c -0.3447172,0 -0.5167846,-0.172068 -0.5167846,-0.516784 V 40.318399 c 0,-0.343556 0.1720674,-0.521419 0.5167846,-0.521419 h 3.5647669 c 0.344136,0 0.5167846,0.172648 0.5167846,0.521419 V 61.34201 l 9.0912277,-9.194354 c 0.241011,-0.240433 0.482023,-0.361517 0.723034,-0.361517 h 4.753021 c 0.206252,0 0.343559,0.0869 0.413082,0.257813 0.06952,0.20683 0.05793,0.361517 -0.05793,0.465221 l -9.602798,9.29632 10.021092,12.449166 c 0.137299,0.137885 0.172068,0.309954 0.104285,0.516784 m 18.622766,0.206249 h -3.564186 c -0.378899,0 -0.567768,-0.171489 -0.567768,-0.521418 v -0.724193 c -1.515591,1.135535 -3.461063,1.70446 -5.836996,1.70446 -2.169102,0 -4.04679,-0.672052 -5.631324,-2.013837 -1.549772,-1.377124 -2.32437,-3.128512 -2.32437,-5.268647 0,-3.374739 2.10016,-5.664926 6.301638,-6.869983 1.652897,-0.482604 4.149335,-0.895103 7.489892,-1.239818 0.104287,-1.273421 -0.23174,-2.357973 -1.006917,-3.254234 -0.775176,-0.896262 -1.903179,-1.342943 -3.383429,-1.342943 -1.929251,0 -3.891523,0.695225 -5.888557,2.065979 -0.309956,0.172647 -0.534165,0.137883 -0.672052,-0.103132 L 25.50269,54.775602 c -0.172648,-0.206829 -0.120504,-0.447261 0.154687,-0.723034 2.651704,-1.824968 5.406536,-2.738028 8.26507,-2.738028 2.203862,0 4.08097,0.516783 5.631323,1.549771 2.272808,1.515591 3.408921,3.943087 3.408921,7.282485 V 74.45511 c 0,0.344715 -0.172649,0.521419 -0.52142,0.521419 M 38.308162,64.187793 c -3.37532,0.344715 -5.681729,0.792556 -6.921547,1.342943 -1.687659,0.723034 -2.446034,1.755443 -2.273386,3.099545 0.103119,0.757796 0.482602,1.369015 1.136692,1.833656 0.654092,0.464642 1.411888,0.732304 2.272808,0.800668 2.410113,0.172067 4.345158,-0.465223 5.785433,-1.91187 z m 25.75983,19.751926 c -1.877108,1.944892 -4.537504,2.918787 -7.980607,2.918787 -1.997613,0 -3.891522,-0.499405 -5.681727,-1.49763 C 50.026182,85.119285 49.57892,84.80064 49.062715,84.40494 48.546511,84.009241 47.942823,83.518529 47.25513,82.93338 47.01354,82.72713 46.996738,82.468739 47.197204,82.158204 l 2.433287,-2.433287 c 0.10312,-0.104287 0.241013,-0.155268 0.41308,-0.155268 0.137299,0 0.258392,0.05793 0.361517,0.155268 1.928091,1.928091 3.805198,2.892716 5.630166,2.892716 4.171351,0 6.250074,-2.169683 6.250074,-6.508466 v -2.685889 c -1.618716,1.342945 -3.770439,2.014417 -6.456905,2.014417 -3.340557,0 -5.958078,-1.256041 -7.85141,-3.770438 -1.652897,-2.203286 -2.479635,-4.982447 -2.479635,-8.316054 0,-3.167909 0.791975,-5.853794 2.376511,-8.053025 1.853933,-2.651124 4.494051,-3.977266 7.903551,-3.977266 2.582763,0 4.752445,0.672052 6.507888,2.014994 v -1.032989 c 0,-0.344136 0.172067,-0.516784 0.516783,-0.516784 h 3.564767 c 0.343558,0 0.521419,0.172648 0.521419,0.516784 v 23.089587 c 0,3.751899 -0.938552,6.601743 -2.815662,8.547215 M 62.289948,59.120186 c -0.86092,-2.203285 -2.858535,-3.305797 -5.991683,-3.305797 -4.028829,0 -6.042664,2.514397 -6.042664,7.541456 0,2.789012 0.67205,4.821966 2.014415,6.094807 0.998226,0.999386 2.289608,1.49821 3.874142,1.49821 3.236273,0 5.285449,-1.101931 6.141157,-3.305795 z m 26.074421,24.825333 c -1.877112,1.944891 -4.537505,2.918785 -7.980608,2.918785 -1.998774,0 -3.892103,-0.499402 -5.682309,-1.49763 -0.379477,-0.24159 -0.826738,-0.560236 -1.342942,-0.955934 -0.516205,-0.3957 -1.119313,-0.886413 -1.807585,-1.47156 -0.241013,-0.206249 -0.258393,-0.464642 -0.05793,-0.775178 l 2.433287,-2.433287 c 0.103132,-0.104287 0.241012,-0.155266 0.41308,-0.155266 0.137313,0 0.258392,0.05793 0.361518,0.155266 1.928091,1.928091 3.804619,2.892717 5.630164,2.892717 4.171351,0 6.257027,-2.169683 6.257027,-6.508468 v -2.685886 c -1.619295,1.342943 -3.765803,2.014415 -6.456904,2.014415 -3.340557,0 -5.95808,-1.256041 -7.85141,-3.770438 -1.653476,-2.203284 -2.479635,-4.982447 -2.479635,-8.316051 0,-3.16791 0.791975,-5.853796 2.375352,-8.053025 1.853934,-2.651126 4.494052,-3.977267 7.903552,-3.977267 2.582762,0 4.751864,0.67205 6.508466,2.014994 v -1.032989 c 0,-0.344137 0.171489,-0.516784 0.516784,-0.516784 h 3.564188 c 0.343557,0 0.521418,0.172647 0.521418,0.516784 v 23.089586 c 0,3.751899 -0.938553,6.601743 -2.814504,8.547216 M 86.593285,59.12598 c -0.861499,-2.203285 -2.859114,-3.305797 -5.992261,-3.305797 -4.02941,0 -6.043824,2.514399 -6.043824,7.541455 0,2.789012 0.67205,4.821967 2.014414,6.094809 0.998808,0.999386 2.290188,1.498211 3.874143,1.498211 3.236272,0 5.286029,-1.101933 6.141155,-3.305797 v -8.516509 z m 12.499569,15.851134 h -3.564766 c -0.344136,0 -0.521419,-0.17149 -0.521419,-0.521419 V 40.318399 c 0,-0.343556 0.172068,-0.521419 0.521419,-0.521419 h 3.564766 c 0.343556,0 0.521419,0.172071 0.521419,0.521419 v 34.144247 c 0,0.344137 -0.172648,0.521419 -0.521419,0.521419 M 125.07285,64.497753 c 0,0.344715 -0.17381,0.516783 -0.51679,0.516783 h -16.78795 c 0.20625,1.687659 0.92985,3.099546 2.16967,4.229286 1.41187,1.206216 3.18531,1.807586 5.32079,1.807586 1.89335,0 3.592,-0.533006 5.11339,-1.601336 0.31054,-0.206828 0.56778,-0.206828 0.77518,0 l 2.43329,2.479637 c 0.27577,0.276351 0.27577,0.521419 0,0.723035 -2.47964,1.853934 -5.35555,2.789013 -8.63237,2.789013 -3.51264,0 -6.44012,-1.170297 -8.78187,-3.512048 -2.27223,-2.306989 -3.40893,-5.251267 -3.40893,-8.832836 0,-3.374738 1.11816,-6.232694 3.35736,-8.574444 2.06655,-2.134919 4.75246,-3.202091 8.05304,-3.202091 3.13315,0 5.76747,1.119313 7.90356,3.357358 2.20327,2.30757 3.21946,5.200284 3.0474,8.678729 z m -6.76685,-7.59302 c -1.1703,-1.067169 -2.58277,-1.601332 -4.2293,-1.601332 -1.54976,0 -2.91067,0.516782 -4.08039,1.549192 -1.16973,1.032409 -1.91187,2.37651 -2.22125,4.02941 h 12.44859 c -0.0348,-1.583376 -0.67204,-2.910098 -1.91187,-3.97727" clip-path="url(#b)" fill="#20beff" id="path125" style="stroke-width:0.579354" /></svg>
