<svg viewBox="0 0 128 128" xmlns="http://www.w3.org/2000/svg"><path transform="matrix(.52703 0 0 .52703 -30.632 -22.456)" d="m105.75 102.97c-0.06 0.238-0.298 0.357-0.713 0.357h-7.937c-0.477 0-0.89-0.208-1.248-0.625l-13.106-16.672-3.655 3.477v12.93c0 0.595-0.298 0.892-0.892 0.892h-6.152c-0.595 0-0.892-0.297-0.892-0.892v-58.935c0-0.593 0.297-0.89 0.892-0.89h6.153c0.594 0 0.892 0.298 0.892 0.89v36.288l15.692-15.87c0.416-0.415 0.832-0.624 1.248-0.624h8.204c0.356 0 0.593 0.15 0.713 0.445 0.12 0.357 0.09 0.624-0.09 0.803l-16.585 16.046 17.297 21.488c0.237 0.238 0.297 0.535 0.18 0.892" fill="#20beff"/></svg>