<svg viewBox="0 0 128 128" xmlns="http://www.w3.org/2000/svg"><path d="M23.817 74.771c-.034.138-.172.207-.413.207h-4.598c-.276 0-.521-.12-.723-.362l-7.593-9.659-2.118 2.015v7.49c0 .345-.172.517-.516.517H4.29c-.344 0-.516-.172-.516-.516V40.318c0-.343.172-.521.516-.521h3.565c.344 0 .517.173.517.521v21.024l9.091-9.194c.241-.24.482-.362.723-.362h4.753c.206 0 .344.087.413.258.07.207.058.361-.058.465l-9.602 9.296 10.02 12.45c.138.138.173.31.105.516m18.623.207h-3.564c-.38 0-.568-.172-.568-.522v-.724c-1.516 1.136-3.461 1.705-5.837 1.705-2.17 0-4.047-.673-5.632-2.014-1.55-1.377-2.324-3.129-2.324-5.269 0-3.375 2.1-5.665 6.302-6.87 1.653-.483 4.149-.895 7.49-1.24.104-1.273-.232-2.358-1.007-3.254-.776-.896-1.904-1.343-3.384-1.343-1.929 0-3.891.695-5.888 2.066-.31.173-.534.138-.672-.103l-1.854-2.634c-.173-.207-.12-.448.154-.723 2.652-1.825 5.407-2.738 8.265-2.738 2.204 0 4.081.516 5.632 1.55 2.273 1.515 3.409 3.942 3.409 7.282v14.308c0 .345-.173.522-.522.522m-4.133-10.79c-3.375.346-5.682.793-6.921 1.344-1.688.723-2.446 1.755-2.274 3.1.103.757.483 1.368 1.137 1.833.654.465 1.412.732 2.273.8 2.41.173 4.345-.465 5.785-1.911zm25.76 19.753c-1.877 1.945-4.538 2.919-7.98 2.919-1.998 0-3.892-.5-5.682-1.498-.38-.242-.827-.56-1.343-.956a46.551 46.551 0 01-1.808-1.472c-.241-.206-.258-.464-.058-.775l2.433-2.433a.554.554 0 01.414-.155.52.52 0 01.361.155c1.928 1.928 3.805 2.893 5.63 2.893 4.172 0 6.25-2.17 6.25-6.509v-2.686c-1.618 1.343-3.77 2.015-6.457 2.015-3.34 0-5.958-1.256-7.851-3.77-1.653-2.204-2.48-4.983-2.48-8.317 0-3.168.792-5.854 2.377-8.053 1.854-2.65 4.494-3.977 7.903-3.977 2.583 0 4.753.672 6.508 2.015v-1.033c0-.344.172-.517.517-.517h3.565c.343 0 .521.173.521.517v23.09c0 3.751-.938 6.601-2.815 8.547M62.29 59.12c-.861-2.203-2.859-3.306-5.992-3.306-4.029 0-6.042 2.515-6.042 7.542 0 2.789.672 4.822 2.014 6.095.998.999 2.29 1.498 3.874 1.498 3.236 0 5.286-1.102 6.141-3.306zm26.074 24.826c-1.877 1.944-4.537 2.918-7.98 2.918-1.999 0-3.892-.5-5.683-1.497-.379-.242-.826-.56-1.342-.956a46.997 46.997 0 01-1.808-1.472c-.241-.206-.258-.464-.058-.775l2.433-2.433a.554.554 0 01.413-.156.52.52 0 01.362.156c1.928 1.928 3.804 2.892 5.63 2.892 4.171 0 6.257-2.17 6.257-6.508v-2.686c-1.62 1.343-3.766 2.014-6.457 2.014-3.34 0-5.958-1.256-7.851-3.77-1.654-2.203-2.48-4.982-2.48-8.316 0-3.168.792-5.854 2.375-8.053 1.854-2.651 4.495-3.977 7.904-3.977 2.583 0 4.752.672 6.508 2.015v-1.033c0-.344.172-.517.517-.517h3.564c.344 0 .522.173.522.517v23.09c0 3.751-.939 6.601-2.815 8.547m-1.782-24.82c-.861-2.203-2.859-3.306-5.992-3.306-4.03 0-6.044 2.515-6.044 7.542 0 2.789.672 4.822 2.015 6.094.998 1 2.29 1.499 3.874 1.499 3.236 0 5.286-1.102 6.14-3.306v-8.517zm12.5 15.851h-3.565c-.344 0-.521-.171-.521-.521V40.318c0-.343.172-.521.521-.521h3.565c.343 0 .521.172.521.521v34.145c0 .344-.172.521-.521.521m25.98-10.486c0 .344-.174.517-.517.517h-16.788c.206 1.687.93 3.1 2.17 4.229 1.412 1.206 3.185 1.807 5.32 1.807 1.894 0 3.593-.533 5.114-1.6.31-.208.568-.208.775 0l2.433 2.479c.276.276.276.521 0 .723-2.48 1.854-5.355 2.789-8.632 2.789-3.513 0-6.44-1.17-8.782-3.512-2.272-2.307-3.409-5.252-3.409-8.833 0-3.375 1.118-6.233 3.358-8.575 2.066-2.134 4.752-3.202 8.053-3.202 3.133 0 5.767 1.12 7.903 3.358 2.203 2.307 3.22 5.2 3.048 8.678zm-6.767-7.593c-1.17-1.067-2.583-1.602-4.23-1.602-1.55 0-2.91.517-4.08 1.55-1.17 1.032-1.912 2.376-2.22 4.029h12.448c-.035-1.583-.672-2.91-1.912-3.977" clip-path="url(#kaggle-original-wordmark-b)" fill="#20beff"/></svg>
