<svg xmlns="http://www.w3.org/2000/svg" xml:space="preserve" viewBox="0 0 128 128"><defs><linearGradient id="a" x1="63.341" x2="63.341" y1="50.91" y2="76.05" gradientTransform="matrix(1.03409 0 0 1.03409 22.771 1.616)" gradientUnits="userSpaceOnUse"><stop offset=".136" stop-color="#1b2aa3"/><stop offset=".407" stop-color="#005dd1"/><stop offset=".72" stop-color="#0a37b2"/></linearGradient><linearGradient id="b" x1="126.608" x2="126.608" y1="20.815" y2="99.84" gradientTransform="matrix(1.03409 0 0 1.03409 -2.923 1.616)" gradientUnits="userSpaceOnUse"><stop offset=".25" stop-color="#fff" stop-opacity="0"/><stop offset=".5" stop-color="#fff" stop-opacity=".8"/><stop offset=".75" stop-color="#fff" stop-opacity="0"/></linearGradient></defs><path fill="#1b27a0" d="M122.041 64c0-22.566-28.308-40.86-63.229-40.86C97.024 23.14 128 41.435 128 64s-30.976 40.86-69.188 40.86c34.92 0 63.23-18.294 63.23-40.86z"/><path fill="url(#a)" d="M4.756 60.133 1.994 71.1a2.305 2.305 0 0 1-1.227 1.534c-.268.133-.773.168-.767.468.004.205.333.3.538.3h12.194c.242 0 .66-.061.667-.291.005-.203-.281-.327-.478-.377-.993-.254-.974-1.177-.769-1.996l2.782-11.065c.157-.627.364-1.332 1.408-1.332h3.283c.84 0 1.328.456.991 1.792L17.855 71.1a2.305 2.305 0 0 1-1.228 1.534c-.268.133-.772.168-.767.468.004.205.333.3.539.3h12.193c.243 0 .66-.061.667-.291.006-.203-.281-.327-.477-.377-.994-.254-.867-1.565-.673-2.357l2.39-9.779c.868-3.551-.193-6.25-4.417-6.25h-9.354l-1.185 1.147c.06-.373.082-1.147-.84-1.147h-9.57c-.121 0-.265.113-.102.348.835 1.202.168 3.677-.275 5.437zM33.627 54.348c-.12 0-.265.113-.102.347.836 1.203.167 3.677-.054 4.557L28.936 77.25c-.382 1.515-.686 3.033 1.537 3.033h8.588c.433 0 .871.041.875-.17.004-.325-.235-.4-.678-.705-.798-.548-.444-1.625-.256-2.412l.877-3.594h11.02c3.755 0 5.678-2.914 6.947-8.105l1.148-4.7c.868-3.55-.193-6.25-4.416-6.25h-9.355l-1.184 1.15c.06-.374.081-1.15-.84-1.15h-9.572zm11.209 3.994h3.285c.84 0 1.32.454.988 1.79l-1.994 8.054c-.155.626-.365 1.33-1.408 1.33h-3.283c-.84 0-1.324-.454-.992-1.791l1.998-8.053c.155-.627.363-1.33 1.406-1.33zM82.88 67.279c-.987 3.43-3.079 6.122-6.887 6.122H57.768l.135-3.93c.024-.68.35-1.233 1.106-1.092.781.145.882 1.039 2.18 1.039h10.084c.392 0 .894-.139.894-.767s-.502-.768-.894-.767l-7.752.025c-4.718.015-3.757-4.902-3.09-7.437.908-3.452 3.08-6.124 6.888-6.124h17.263l-.135 3.932c-.023.68-.35 1.233-1.106 1.092-.78-.145-.881-1.039-2.18-1.039h-9.853c-.393 0-.894.139-.894.767s.501.767.894.767h8.523c4.584 0 3.916 4.404 3.05 7.412zM108.575 67.279c-.988 3.43-3.08 6.122-6.887 6.122H83.463l.135-3.93c.023-.68.35-1.233 1.106-1.092.781.145.882 1.039 2.18 1.039h10.084c.392 0 .893-.139.893-.767s-.501-.768-.893-.767l-7.752.025c-4.719.015-3.757-4.902-3.09-7.437.907-3.452 3.08-6.124 6.887-6.124h17.264l-.135 3.932c-.023.68-.35 1.233-1.106 1.092-.781-.145-.881-1.039-2.18-1.039h-9.854c-.392 0-.893.139-.893.767s.5.767.893.767h8.524c4.584 0 3.916 4.404 3.05 7.412z"/><path fill="#fff" fill-opacity=".4" d="M68.336 56.629c-2.328.23.02 2.903-1.626 3.758-1.707.887-2.353-.574-2.414-1.524-.088-1.385 1.64-2.973 3.702-2.93.687.014.844.645.338.696zM94.03 56.629c-2.327.23.02 2.903-1.626 3.758-1.707.887-2.353-.574-2.413-1.524-.088-1.385 1.64-2.973 3.702-2.93.687.014.844.645.337.696zM11.652 56.783c-.901.658-1.747 1.466-2.073 2.434-.499 1.482-1.294.811-1.53-1.211-.14-1.193.45-1.687 1.57-1.89 1.427-.258 2.86.12 2.033.667zM40.606 56.783c-.901.658-1.747 1.466-2.072 2.434-.5 1.482-1.294.811-1.531-1.211-.14-1.193.45-1.687 1.57-1.89 1.427-.258 2.86.12 2.033.667zM23.079 56.756c.738.634 1.393 1.413 1.516 2.346.187 1.429 1.086.782 1.715-1.167.37-1.15-.1-1.626-1.14-1.822-1.324-.249-2.78.115-2.091.643zM51.727 56.756c.738.634 1.393 1.413 1.516 2.346.187 1.429 1.086.782 1.715-1.167.37-1.15-.1-1.626-1.14-1.822-1.324-.249-2.78.115-2.091.643z"/><path fill="url(#b)" d="M126.024 64c0-23.388-32.291-40.86-67.212-40.86C97.024 23.14 128 41.435 128 64s-30.976 40.86-69.188 40.86c34.92 0 67.212-17.472 67.212-40.86z"/></svg>
