<svg xmlns="http://www.w3.org/2000/svg" xml:space="preserve" viewBox="0 0 128 128"><path fill="#0a37b2" d="M108.575 67.279c-.988 3.43-3.08 6.122-6.887 6.122H83.463l.135-3.93c.023-.68.35-1.233 1.106-1.092.781.145.882 1.039 2.18 1.039h10.084c.392 0 .893-.139.893-.767s-.501-.768-.893-.767l-7.752.025c-4.719.015-3.757-4.902-3.09-7.437.907-3.452 3.08-6.124 6.887-6.124h17.264l-.135 3.932c-.023.68-.35 1.233-1.106 1.092-.781-.145-.881-1.039-2.18-1.039h-9.854c-.392 0-.893.139-.893.767s.5.767.893.767h8.524c4.584 0 3.916 4.404 3.05 7.412zm-25.694 0c-.988 3.43-3.08 6.122-6.888 6.122H57.768l.135-3.93c.024-.68.35-1.233 1.106-1.092.781.145.882 1.039 2.18 1.039h10.084c.392 0 .894-.139.894-.767s-.502-.768-.894-.767l-7.752.025c-4.718.015-3.757-4.902-3.09-7.437.908-3.452 3.08-6.124 6.888-6.124h17.263l-.135 3.932c-.023.68-.35 1.233-1.106 1.092-.78-.145-.881-1.039-2.18-1.039h-9.853c-.393 0-.894.139-.894.767s.501.767.894.767h8.523c4.584 0 3.916 4.404 3.05 7.412zM33.627 54.348c-.12 0-.265.113-.102.347.836 1.203.167 3.677-.054 4.557L28.936 77.25c-.382 1.515-.686 3.033 1.537 3.033h8.588c.433 0 .871.041.875-.17.004-.325-.235-.4-.678-.705-.798-.548-.444-1.625-.256-2.412l.877-3.594h11.02c3.755 0 5.678-2.914 6.947-8.105l1.148-4.7c.868-3.55-.193-6.25-4.416-6.25h-9.355l-1.184 1.15c.06-.374.081-1.15-.84-1.15zm11.209 3.994h3.285c.84 0 1.32.454.988 1.79l-1.994 8.054c-.155.626-.365 1.33-1.408 1.33h-3.283c-.84 0-1.324-.454-.992-1.791l1.998-8.053c.155-.627.363-1.33 1.406-1.33zm-40.08 1.79L1.994 71.1a2.305 2.305 0 0 1-1.227 1.534c-.268.133-.773.168-.767.468.004.205.333.3.538.3h12.194c.242 0 .66-.061.667-.291.005-.203-.281-.327-.478-.377-.993-.254-.974-1.177-.769-1.996l2.782-11.065c.157-.627.364-1.332 1.408-1.332h3.283c.84 0 1.327.456.991 1.792L17.855 71.1a2.305 2.305 0 0 1-1.228 1.534c-.268.133-.772.168-.767.468.004.205.333.3.539.3h12.193c.243 0 .66-.061.667-.291.006-.203-.281-.327-.477-.377-.994-.254-.867-1.565-.673-2.357l2.39-9.779c.868-3.551-.193-6.25-4.417-6.25h-9.354l-1.185 1.147c.06-.373.082-1.147-.84-1.147h-9.57c-.121 0-.265.113-.102.348.835 1.202.168 3.677-.275 5.437zM122.04 64c0-22.566-28.308-40.86-63.229-40.86C97.024 23.14 128 41.435 128 64s-30.976 40.86-69.188 40.86c34.92 0 63.23-18.294 63.23-40.86z"/></svg>
