<svg   viewBox="0 0 128 128"   xmlns="http://www.w3.org/2000/svg"   xmlns:svg="http://www.w3.org/2000/svg">  <path     d="M 63.992579,72.521325 41.553732,60.660321 2.6034211,40.074058 c -0.035557,-0.03555 -0.1066637,-0.03555 -0.1422174,-0.03555 -1.4221913,-0.675528 -2.87993927,0.746641 -2.3466152,2.168863 l 19.8466965,50.619383 0.0035,0.0109 c 0.02134,0.04994 0.03912,0.09944 0.06046,0.149334 0.814189,1.887956 2.591938,3.054 4.526143,3.512657 0.163538,0.03587 0.280527,0.06782 0.476917,0.107073 0.195451,0.04351 0.46881,0.10282 0.703471,0.120745 0.03912,0.0033 0.07467,0.0033 0.113789,0.0065 h 0.02846 c 0.02841,0.0044 0.05687,0.0044 0.08533,0.0076 h 0.03908 c 0.02491,0.0033 0.05333,0.0033 0.07824,0.0033 h 0.04621 c 0.02846,0.0044 0.05687,0.0044 0.08533,0.0044 v 0 c 25.135232,2.740415 50.493562,2.740415 75.628755,0 v 0 c 0.30207,0 0.59732,-0.0145 0.88147,-0.04263 0.0926,-0.0109 0.18133,-0.02137 0.27051,-0.03195 0.0107,-0.0044 0.0247,-0.0044 0.0354,-0.0076 0.0606,-0.0076 0.12074,-0.01788 0.18133,-0.02857 0.0887,-0.0109 0.17791,-0.02813 0.26666,-0.04612 0.17791,-0.03925 0.25855,-0.06738 0.50004,-0.1506 0.24106,-0.08276 0.64169,-0.22784 0.89214,-0.348585 0.25087,-0.120746 0.42452,-0.236792 0.63444,-0.368201 0.2594,-0.163837 0.50644,-0.331086 0.75689,-0.518812 0.10794,-0.08276 0.18175,-0.135683 0.25983,-0.210351 l -0.0427,-0.02475 z"     fill="#ff4b4b"     id="path14"     style="stroke-width:0.426657" />  <path     d="m 125.44606,40.07457 h -0.0354 L 86.445785,60.660834 108.10586,92.919776 127.90272,42.207855 v -0.07109 c 0.49791,-1.493346 -1.0308,-2.844391 -2.45668,-2.062205"     fill="#ff4b4b"     id="path16"     style="stroke-width:0.426657" />  <path     d="m 66.069117,30.286053 c -0.995816,-1.454191 -3.164512,-1.454191 -4.124488,0 L 41.553817,60.660572 63.992579,72.521761 106.51616,94.995458 c 0.26709,-0.261532 0.48127,-0.516249 0.7074,-0.785468 0.31999,-0.394664 0.61865,-0.817481 0.8819,-1.290639 L 86.445379,60.660572 Z"     fill="#ff4b4b"     id="path18"     style="stroke-width:0.426657" /></svg>