<svg viewBox="0 0 128 128" xmlns="http://www.w3.org/2000/svg"><path d="M63.993 72.521l-22.44-11.86-38.95-20.587c-.035-.035-.106-.035-.142-.035-1.422-.676-2.88.746-2.346 2.168l19.846 50.62.004.01.06.15c.814 1.888 2.592 3.054 4.526 3.513.164.036.28.067.477.107.196.043.47.103.704.12.039.004.074.004.114.007h.028c.028.004.057.004.085.008H26c.024.003.053.003.078.003h.046a.555.555 0 00.085.004 348.89 348.89 0 0075.629 0 8.967 8.967 0 001.152-.074c.01-.005.025-.005.035-.008.06-.008.121-.018.182-.028a3.5 3.5 0 00.266-.047c.178-.039.259-.067.5-.15a9.57 9.57 0 00.893-.349c.25-.12.424-.237.634-.368.26-.164.506-.331.757-.519.108-.083.182-.135.26-.21l-.043-.025z" fill="#ff4b4b"/><path d="M125.446 40.075h-.035L86.446 60.66l21.66 32.259 19.797-50.712v-.071c.498-1.494-1.031-2.845-2.457-2.062" fill="#7d353b"/><path d="M66.07 30.286c-.997-1.454-3.165-1.454-4.125 0L41.554 60.661l22.439 11.86 42.523 22.474c.267-.261.481-.516.708-.785.32-.395.618-.817.881-1.29l-21.66-32.26z" fill="#bd4043"/></svg>
