<?xml version="1.0" encoding="UTF-8" standalone="no"?>
<svg
   width="128"
   height="128"
   viewBox="0 0 128 128"
   version="1.1"
   id="svg2"
   sodipodi:docname="reStructuredText.svg"
   inkscape:version="1.3.2 (091e20e, 2023-11-25, custom)"
   xmlns:inkscape="http://www.inkscape.org/namespaces/inkscape"
   xmlns:sodipodi="http://sodipodi.sourceforge.net/DTD/sodipodi-0.dtd"
   xmlns="http://www.w3.org/2000/svg"
   xmlns:svg="http://www.w3.org/2000/svg"
   xmlns:rdf="http://www.w3.org/1999/02/22-rdf-syntax-ns#"
   xmlns:cc="http://creativecommons.org/ns#"
   xmlns:dc="http://purl.org/dc/elements/1.1/">
  <defs
     id="defs2" />
  <sodipodi:namedview
     id="namedview2"
     pagecolor="#ffffff"
     bordercolor="#111111"
     borderopacity="1"
     inkscape:showpageshadow="0"
     inkscape:pageopacity="0"
     inkscape:pagecheckerboard="1"
     inkscape:deskcolor="#d1d1d1"
     inkscape:zoom="6.0234375"
     inkscape:cx="65.494163"
     inkscape:cy="67.984436"
     inkscape:window-width="1920"
     inkscape:window-height="1009"
     inkscape:window-x="-8"
     inkscape:window-y="-8"
     inkscape:window-maximized="1"
     inkscape:current-layer="svg2" />
  <title
     id="title1">file_type_rest</title>
  <path
     d="M 64.000001,128 A 63.348148,63.348148 0 0 1 1.3146343,64.007358 64.67371,64.67371 0 0 1 19.66224,18.755416 a 61.784899,61.784899 0 0 1 88.67553,0 64.67371,64.67371 0 0 1 18.3476,45.251942 A 63.348148,63.348148 0 0 1 64.000001,128 Z"
     style="fill:#ce3f31;stroke-width:4.5709"
     id="path1" />
  <path
     d="M 45.1176,96.072244 H 43.289239 A 19.48576,19.48576 0 0 1 38.498932,95.555732 6.3398428,6.3398428 0 0 1 34.99305,93.050877 10.055987,10.055987 0 0 1 33.12355,88.36113 60.701595,60.701595 0 0 1 32.730453,80.462609 58.416143,58.416143 0 0 0 32.36478,72.751496 8.1042114,8.1042114 0 0 0 30.513564,68.527981 6.0564468,6.0564468 0 0 0 25.823818,66.740758 v -5.475942 a 6.0564468,6.0564468 0 0 0 4.689746,-1.787223 8.1042114,8.1042114 0 0 0 1.851216,-4.223515 58.416143,58.416143 0 0 0 0.365673,-7.711114 60.701595,60.701595 0 0 1 0.383955,-7.912233 10.055987,10.055987 0 0 1 1.8695,-4.689747 6.3398428,6.3398428 0 0 1 3.505883,-2.504855 19.48576,19.48576 0 0 1 4.790306,-0.516512 h 1.828361 v 5.21083 h -1.033024 q -3.473886,0 -4.255511,1.828361 a 35.287373,35.287373 0 0 0 -0.786195,9.91886 22.287724,22.287724 0 0 1 -1.901496,10.586212 9.6766021,9.6766021 0 0 1 -5.77305,4.543478 9.5486168,9.5486168 0 0 1 5.777621,4.50691 22.287724,22.287724 0 0 1 1.906067,10.57707 35.287373,35.287373 0 0 0 0.786195,9.91886 q 0.786196,1.828362 4.255511,1.828362 H 45.1176 Z m 7.313445,-14.357207 h 4.730885 v -15.7879 h 6.668948 l 9.004679,15.7879 h 5.41195 L 68.753741,65.415196 a 10.252536,10.252536 0 0 0 8.378465,-10.599925 c 0,-7.770535 -5.485083,-10.485652 -13.049928,-10.485652 H 52.4539 Z M 57.16193,62.060153 V 48.146324 h 6.211858 c 5.814189,0 9.004679,1.764368 9.004679,6.668947 0,4.90458 -3.199632,7.23574 -9.004679,7.23574 z M 82.562439,31.93333 h 1.828362 a 19.48576,19.48576 0 0 1 4.790306,0.516512 6.3398428,6.3398428 0 0 1 3.505883,2.504855 10.055987,10.055987 0 0 1 1.8695,4.689747 60.701595,60.701595 0 0 1 0.383955,7.912233 58.416143,58.416143 0 0 0 0.365673,7.711114 8.1042114,8.1042114 0 0 0 1.851215,4.223514 6.0564468,6.0564468 0 0 0 4.689747,1.787224 v 5.443945 a 6.0564468,6.0564468 0 0 0 -4.689747,1.787223 8.1042114,8.1042114 0 0 0 -1.851215,4.223515 58.416143,58.416143 0 0 0 -0.365673,7.711114 60.701595,60.701595 0 0 1 -0.383955,7.912233 10.055987,10.055987 0 0 1 -1.8695,4.689747 6.3398428,6.3398428 0 0 1 -3.505883,2.504855 19.48576,19.48576 0 0 1 -4.790306,0.516512 h -1.828362 v -5.21083 h 1.033025 q 3.473886,0 4.25551,-1.828361 a 35.287373,35.287373 0 0 0 0.831905,-9.937144 22.287724,22.287724 0 0 1 1.901496,-10.586211 9.5486168,9.5486168 0 0 1 5.754767,-4.497769 9.6766021,9.6766021 0 0 1 -5.777622,-4.543478 22.287724,22.287724 0 0 1 -1.901496,-10.586212 35.287373,35.287373 0 0 0 -0.786195,-9.91886 q -0.786195,-1.828361 -4.255511,-1.828361 h -1.033024 z"
     style="fill:#ffffff;stroke-width:4.5709"
     id="path2" />
  <metadata
     id="metadata2">
    <rdf:RDF>
      <cc:Work
         rdf:about="">
        <dc:title>file_type_rest</dc:title>
      </cc:Work>
    </rdf:RDF>
  </metadata>
</svg>
