<svg xmlns="http://www.w3.org/2000/svg" viewBox="0 0 128 128"><path d="M51.8 81.2c0 1-1.1 1.9-2.9 3.2-1.2.8-2.1 1.3-2.9 1.3-.7 0-1.4-.1-2.1-.4-.6-.3-1.2-.6-1.7-1.1-.5-.5-.9-1-1.1-1.6-.3-.6-.4-1.3-.4-2V55h-11v25.6c0 1.6.3 3.1 1 4.4.7 1.4 1.6 2.6 2.7 3.6 1.2 1 2.5 1.8 4.1 2.4 1.5.6 3.2.9 5 .9 1.5 0 3.1-.4 4.8-1.1 1.6-.7 3.2-1.7 4.6-2.9v3.4h11V55h-11c-.1 0-.1 25.9-.1 26.2zM13.7 96.7c0 2.1-.2 3.5-.5 4.2-.3.7-.8 1.1-1.4 1.1-.3 0-.6-.1-1-.3s-.8-.7-1.3-1.4c-.5-.6-1-1.2-1.7-1.9-.7-.6-1.6-.9-2.8-.9-1.5 0-2.8.4-3.7 1.2-.9.8-1.4 1.7-1.4 2.9 0 1.4.8 2.5 2.5 3.5 1.6 1 4 1.5 7.1 1.5 2.3 0 4.4-.2 6.2-.6 1.9-.4 3.5-1.1 4.8-2.2 1.3-1.1 2.4-2.6 3.1-4.6.7-2 1.1-4.6 1.1-7.8V53.9l-11.1 3v39.8zm53.6-5.4h11v-54l-11 3.1zM127.1 60c-.6-1.2-1.5-2.3-2.7-3.1-1.2-.9-2.8-1.5-4.7-2-1.9-.5-4.1-.7-6.7-.7-2.1 0-4.1.2-6 .7-1.9.5-3.6 1.1-5 1.8-1.5.8-2.6 1.7-3.5 2.8-.9 1.1-1.3 2.2-1.3 3.5 0 1.4.5 2.5 1.5 3.4 1 .9 2.2 1.3 3.8 1.3 1 0 1.8-.1 2.5-.4.7-.3 1.2-.7 1.5-1.2.4-.5.6-1 .7-1.7.1-.6.2-1.3.2-2 0-1.2.3-2.2 1-3 .7-.8 1.9-1.3 3.6-1.3 1.5 0 2.7.5 3.6 1.5.9 1 1.3 2.6 1.3 4.9V68l-1.2.3c-1.5.5-3 .9-4.5 1.4-1.5.5-3 1-4.4 1.6-1.4.6-2.7 1.2-3.9 2-1.2.7-2.3 1.5-3.2 2.4-.9.9-1.6 1.9-2.2 3-.5 1.1-.8 2.4-.8 3.8s.3 2.6.8 3.7 1.2 2.1 2.2 3c.9.8 2.1 1.5 3.4 2 1.3.5 2.8.7 4.5.7 1.2 0 2.3-.1 3.2-.3.9-.2 1.7-.4 2.4-.8s1.4-.7 2-1.1 1.2-.9 1.8-1.4v2.9h11V64.1c0-1.5-.3-2.9-.9-4.1zm-10.2 23c-1.1.8-2.2 1.5-3.1 2.1-.9.5-1.8.8-2.7.8-.5 0-.9-.1-1.3-.4-.4-.3-.7-.6-1.1-1.1-.3-.5-.6-1-.8-1.6s-.3-1.3-.3-2c0-.9.3-1.7.8-2.5s1.3-1.6 2.2-2.3c.9-.7 1.9-1.4 2.9-2 1.1-.6 2.2-1.1 3.2-1.6V83zm-34 8.3h11V53.9l-11 3.1z"/><circle cx="88.9" cy="44.6" r="7.5"/><circle cx="19.5" cy="44.6" r="7.5"/><circle cx="106.9" cy="44.6" r="7.5"/><circle cx="97.9" cy="29" r="7.5"/></svg>