<?xml version="1.0" encoding="UTF-8" standalone="no"?>
<svg
   width="128"
   height="128"
   viewBox="0 0 128 128"
   version="1.1"
   id="svg10"
   sodipodi:docname="Cloud Firestore Security Rules.svg"
   inkscape:version="1.3.2 (091e20e, 2023-11-25, custom)"
   xmlns:inkscape="http://www.inkscape.org/namespaces/inkscape"
   xmlns:sodipodi="http://sodipodi.sourceforge.net/DTD/sodipodi-0.dtd"
   xmlns="http://www.w3.org/2000/svg"
   xmlns:svg="http://www.w3.org/2000/svg"
   xmlns:rdf="http://www.w3.org/1999/02/22-rdf-syntax-ns#"
   xmlns:cc="http://creativecommons.org/ns#"
   xmlns:dc="http://purl.org/dc/elements/1.1/">
  <defs
     id="defs10" />
  <sodipodi:namedview
     id="namedview10"
     pagecolor="#ffffff"
     bordercolor="#111111"
     borderopacity="1"
     inkscape:showpageshadow="0"
     inkscape:pageopacity="0"
     inkscape:pagecheckerboard="1"
     inkscape:deskcolor="#d1d1d1"
     inkscape:zoom="4.2592135"
     inkscape:cx="91.683594"
     inkscape:cy="68.909436"
     inkscape:window-width="1920"
     inkscape:window-height="1009"
     inkscape:window-x="-8"
     inkscape:window-y="-8"
     inkscape:window-maximized="1"
     inkscape:current-layer="svg10" />
  <title
     id="title1">file_type_firestore</title>
  <path
     d="M 8.3851547,99.751191 9.1355137,98.705101 44.534804,31.552382 44.609844,30.841748 29.006786,1.5336076 A 2.895503,2.895503 0 0 0 23.59096,2.44728 Z"
     style="fill:#ffc24a;stroke-width:4.41388"
     id="path1" />
  <path
     d="M 8.8265424,98.956691 9.3915186,97.853222 44.424457,31.397897 28.861128,1.9749952 a 2.6483259,2.6483259 0 0 0 -5.000922,0.9092586 z"
     style="fill:#ffa712;stroke-width:4.41388"
     id="path2" />
  <path
     d="M 55.9844,53.008236 67.601723,41.09077 55.979986,18.928695 a 2.9926083,2.9926083 0 0 0 -5.274582,0 l -6.210325,11.838017 v 1.010778 z"
     style="fill:#f4bd62;stroke-width:4.41388"
     id="path3" />
  <path
     d="M 55.776948,52.52271 67.089713,40.958353 55.776948,19.418636 a 2.5997733,2.5997733 0 0 0 -4.740504,-0.207453 l -6.241221,12.04547 -0.185383,0.613528 z"
     style="fill:#ffa50e;stroke-width:4.41388"
     id="path4" />
  <polygon
     points="16.418,14.188 16.548,13.834 13.989,8.956 5.802,24.601 5.879,24.523 6.158,24.41 "
     style="fill:#f6820c"
     id="polygon4"
     transform="matrix(4.4138766,0,0,4.4138766,-17.215329,-8.8301746)" />
  <path
     d="M 57.432152,122.50914 98.428237,99.649671 86.713809,27.566652 A 2.8028116,2.8028116 0 0 0 81.968891,26.039451 L 8.3851547,99.751191 49.138477,122.50472 a 8.5055402,8.5055402 0 0 0 8.289261,0"
     style="fill:#fde068;stroke-width:4.41388"
     id="path5" />
  <path
     d="M 98.053058,99.459871 86.435734,27.919762 A 2.4585293,2.4585293 0 0 0 82.167516,26.361664 L 8.8265424,99.614361 49.12965,122.12513 a 8.439332,8.439332 0 0 0 8.223052,0 z"
     style="fill:#fcca3f;stroke-width:4.41388"
     id="path6" />
  <path
     d="m 57.432152,121.82057 a 8.5055402,8.5055402 0 0 1 -8.289261,0 L 8.7206093,99.406911 8.3851547,99.751191 49.138477,122.50472 a 8.5055402,8.5055402 0 0 0 8.289261,0 l 41.000499,-22.855049 -0.101519,-0.61794 z"
     style="fill:#eeab37;stroke-width:4.41388"
     id="path7" />
  <polygon
     points="15.405,27.603 21.625,24.785 21.625,31 31,26.743 31,16.534 23.201,13 15.405,16.534 "
     style="fill:#252525"
     id="polygon7"
     transform="matrix(4.4138766,0,0,4.4138766,-17.215329,-8.8301746)" />
  <polygon
     points="23.201,17.507 29.421,20.327 29.421,17.549 23.201,14.73 16.985,17.549 16.985,20.327 "
     style="fill:#ffffff"
     id="polygon8"
     transform="matrix(4.4138766,0,0,4.4138766,-17.215329,-8.8301746)" />
  <polygon
     points="23.201,22.337 29.421,25.158 29.421,22.381 23.201,19.564 16.985,22.381 16.985,25.158 "
     style="fill:#ffffff"
     id="polygon9"
     transform="matrix(4.4138766,0,0,4.4138766,-17.215329,-8.8301746)" />
  <polygon
     points="25.551,24.712 23.201,25.778 23.201,28.548 28.606,26.098 "
     style="fill:#ffffff"
     id="polygon10"
     transform="matrix(4.4138766,0,0,4.4138766,-17.215329,-8.8301746)" />
  <metadata
     id="metadata10">
    <rdf:RDF>
      <cc:Work
         rdf:about="">
        <dc:title>file_type_firestore</dc:title>
      </cc:Work>
    </rdf:RDF>
  </metadata>
</svg>
