<?xml version="1.0" encoding="utf-8"?>
<!-- Generator: Adobe Illustrator 24.0.1, SVG Export Plug-In . SVG Version: 6.00 Build 0)  -->
<svg version="1.1" id="Layer_1" xmlns="http://www.w3.org/2000/svg" xmlns:xlink="http://www.w3.org/1999/xlink" x="0px" y="0px"
	 viewBox="0 0 128 128" style="enable-background:new 0 0 128 128;" xml:space="preserve">
<style type="text/css">
	.st0{fill:#5ECF7B;}
	.st1{fill:#53C074;}
</style>
<path class="st0" d="M122,113.73c0,1.4,0,2.8,0,4.2c-0.82,1.36-2.06,1.64-3.58,1.64c-36.49-0.03-72.99-0.02-109.48-0.03
	c-0.27,0-0.54,0.01-0.81,0c-1.8-0.08-2.78-1.07-2.73-2.87c0.04-1.29,0.2-2.57,0.3-3.86C6.61,101.43,7.5,90.07,8.4,78.7
	c0.93-11.69,1.87-23.38,2.81-35.07c0.73-9.12,1.46-18.23,2.21-27.35c0.15-1.87,1.05-2.64,2.94-2.67c1.08-0.02,2.15-0.01,3.23-0.02
	c29.2,0,58.4-0.01,87.6-0.01c1.18,0.01,2.37,0,3.55,0.02c1.74,0.03,2.69,0.85,2.89,2.58c0.09,0.79-0.07,1.61,0,2.4
	c0.31,3.16,0.7,6.31,0.99,9.47c0.37,4.07,0.68,8.14,1.02,12.21c0.64,7.77,1.28,15.53,1.92,23.3c1.17,14.2,2.33,28.39,3.53,42.59
	C121.3,108.69,121.69,111.21,122,113.73z M61.49,87.58c3.98-0.03,7.84-0.96,11.29-3.11c10.46-6.51,14.67-16.42,15.12-28.29
	c0.04-1.1-0.5-1.83-1.74-1.88c-1.38-0.06-1.51,0.85-1.6,1.9c-0.19,2.16-0.26,4.36-0.71,6.47c-1.45,6.77-4.44,12.71-10.05,17.04
	c-4.86,3.75-10.21,5.59-16.42,4.12c-7.83-1.85-12.62-7.11-15.94-14.02c-2-4.18-2.87-8.65-2.96-13.28c-0.03-1.64-0.87-2.5-2.05-2.19
	c-1.17,0.31-1.36,1.24-1.32,2.28c0.22,6.92,1.98,13.39,5.88,19.16C45.89,82.99,52.45,87.36,61.49,87.58z M86,47.34
	c2.71,2.72,5.02,5.03,7.31,7.35c0.81,0.82,1.7,1.02,2.53,0.17c0.76-0.78,0.6-1.69-0.15-2.44c-2.69-2.71-5.38-5.41-8.1-8.08
	c-0.82-0.81-1.85-1.01-2.72-0.17c-2.81,2.73-5.59,5.5-8.31,8.32c-0.74,0.77-1,1.83-0.02,2.63c0.9,0.74,1.77,0.45,2.54-0.38
	C81.34,52.31,83.61,49.89,86,47.34z"/>
<path class="st1" d="M105.85,8.76c1.41,1.34,1.18,3.14,1.34,4.83c-29.2,0-58.4,0.01-87.6,0.01c0.38-1.67-0.31-3.69,1.62-4.84
	C49.42,8.76,77.64,8.76,105.85,8.76z"/>
</svg>
