<svg xmlns="http://www.w3.org/2000/svg" viewBox="0 0 128 128"><path fill="#67595D" d="M49.66 53.23h1.14l8.19 21.57h-.99l-2.79-7.35h-10.05l-2.82 7.35h-.99l8.31-21.57zm5.19 13.32l-4.62-12.15-4.71 12.15h9.33zM67.84 54.16h-6.72v-.93h14.46v.93h-6.721v20.64h-1.02v-20.64zM82.719 56.11c1.681-2.24 4.11-3.36 7.29-3.36 3.2 0 5.641 1.11 7.32 3.33 1.5 2.021 2.25 4.67 2.25 7.951 0 3.299-.75 5.939-2.25 7.92-1.68 2.199-4.12 3.3-7.32 3.3s-5.63-1.101-7.29-3.3c-1.5-1.98-2.25-4.621-2.25-7.92 0-3.261.75-5.901 2.25-7.921zm.75 15.15c1.48 2.081 3.66 3.12 6.54 3.12 2.9 0 5.09-1.039 6.57-3.12 1.3-1.819 1.95-4.229 1.95-7.229 0-2.98-.66-5.39-1.98-7.23-1.5-2.1-3.68-3.15-6.54-3.15s-5.04 1.05-6.54 3.15c-1.3 1.84-1.949 4.25-1.949 7.23s.649 5.389 1.949 7.229zM106.6 53.23h1.44l7.859 15.179 7.561-15.179h1.41v21.57h-.9v-20.31l-7.8 15.15h-.601l-8.069-15.15v20.31h-.9v-21.57z"/><path fill-rule="evenodd" clip-rule="evenodd" fill="#67595D" d="M13.217 64.784l-.572 1.191c-.88 1.89-1.607 3.833-1.984 5.891-.208 1.144-.322 2.297-.023 3.446.257.987.79 1.494 1.704 1.536.4.019.82-.066 1.209-.176 1.03-.292 1.929-.856 2.796-1.467.21-.149.427-.242.689-.144.465.173.634.79.241 1.083-1.418 1.057-2.917 1.967-4.754 2.022-1.504.047-2.592-.76-3.071-2.193-.359-1.07-.38-2.171-.249-3.274.391-3.286 1.66-6.271 3.183-9.166.131-.249.138-.446.046-.711-.381-1.092-.735-2.194-1.081-3.297-.067-.21-.135-.269-.361-.219-1.491.328-2.961.729-4.286 1.512-.511.303-1.001.679-1.409 1.108-.68.714-.693 1.503-.138 2.319.484.711 1.168 1.197 1.888 1.638l.69.391c.33.196.443.58.274.897-.171.318-.552.445-.896.267-1.014-.52-1.958-1.138-2.715-2.005-.463-.53-.804-1.128-.917-1.835-.14-.882.113-1.66.643-2.357.547-.721 1.265-1.234 2.048-1.66 1.39-.757 2.888-1.208 4.425-1.542l.353-.087c-.072-.411-.15-.809-.213-1.21-.251-1.63-.367-3.263.032-4.889.159-.644.408-1.251.841-1.764.884-1.044 2.021-1.277 3.295-.966 1.261.309 2.318 1.006 3.306 1.818.278.23.286.645.059.912-.233.272-.595.308-.912.092-.496-.338-.98-.7-1.497-1.005-.592-.35-1.228-.599-1.935-.602-.586-.002-1.042.235-1.374.709-.423.601-.573 1.295-.653 2.006-.168 1.505.031 2.984.324 4.456.031.156.092.212.257.195 1.187-.119 2.376-.236 3.564-.335.259-.022.428-.115.588-.319 1.546-1.953 3.241-3.761 5.234-5.27 1.111-.84 2.283-1.573 3.635-1.974.846-.25 1.702-.343 2.554-.043 1.063.374 1.658 1.183 1.965 2.227.325 1.107.274 2.237.143 3.366-.034.289-.085.577-.139.863-.074.389-.364.595-.752.55-.354-.041-.584-.325-.546-.72.051-.543.175-1.084.18-1.627.007-.644-.007-1.302-.141-1.926-.278-1.298-1.177-1.807-2.505-1.515-.996.22-1.88.688-2.721 1.243-1.728 1.139-3.203 2.563-4.572 4.103-.255.286-.5.581-.747.874l-.034.123h.359c3.527.035 7.002.455 10.397 1.432 1.616.466 3.178 1.073 4.613 1.966.765.475 1.466 1.025 2.021 1.744 1.131 1.463 1.036 3.108-.266 4.418-.879.886-1.961 1.445-3.115 1.88-.325.123-.686-.058-.811-.37-.137-.344.012-.698.361-.868.533-.258 1.086-.48 1.59-.788.415-.253.812-.567 1.145-.922.705-.75.731-1.57.133-2.409-.447-.628-1.048-1.089-1.695-1.491-1.596-.992-3.348-1.606-5.15-2.085-1.88-.5-3.789-.849-5.729-.987-1.546-.11-3.098-.142-4.646-.215-.224-.01-.376.056-.5.247-.908 1.4-1.826 2.794-2.729 4.197-.066.103-.095.285-.05.395 1.529 3.638 3.466 7.033 6.031 10.047 1.08 1.27 2.256 2.442 3.683 3.33.669.417 1.367.765 2.178.817.734.051 1.27-.257 1.634-.88.345-.587.481-1.236.544-1.904.198-2.152-.228-4.23-.792-6.286-.579-2.105-1.396-4.123-2.334-6.093-.075-.158-.139-.347-.13-.518.015-.311.26-.531.566-.58.27-.042.552.105.687.395.336.718.677 1.436.983 2.167.949 2.257 1.713 4.573 2.116 6.995.281 1.69.416 3.388.025 5.081-.088.379-.217.756-.379 1.108-.666 1.455-2.016 2.112-3.579 1.771-1.271-.278-2.344-.943-3.345-1.736-1.841-1.459-3.335-3.238-4.686-5.145-1.541-2.171-2.841-4.48-3.931-6.909l-.168-.344zm-.666-5.781l.843 2.677 1.951-2.979-2.794.302zM20.023 65.913c-1.058-.001-1.919-.857-1.916-1.908.002-1.067.861-1.918 1.937-1.917 1.057.001 1.916.857 1.917 1.912.001 1.064-.86 1.915-1.938 1.913z"/></svg>