<?xml version="1.0" encoding="UTF-8"?><svg xmlns="http://www.w3.org/2000/svg" xmlns:xlink="http://www.w3.org/1999/xlink" width="128px" height="128px" viewBox="0 0 128 128" version="1.1"><path style="stroke:none;fill-rule:nonzero;fill:rgb(40.000001%,20%,60.000002%);fill-opacity:1;" d="M0 0H107.5195C118.832 0 128 9.168 128 20.4805v87.0391C128 118.832 118.832 128 107.5195 128H20.4805C9.168 128 0 118.832 0 107.5195Z"/><path style="stroke:none;fill-rule:nonzero;fill:white;fill-opacity:1;" d="M45.8359 117.7617c-8.2188-.0078-13.293-4.6406-13.1953-13.1602 0 0 0-21.5508 0-21.5508 0-4.3203 1.2656-7.6055 3.793-9.8516 4.543-4.3789 15.082-4.6445 19.5313.0664 2.7422 2.418 3.7773 7.3555 3.5313 11.9648H50.0586c.0742-1.8086-.0234-4.5547-1.0898-5.5859-1.3828-1.8711-5.0352-1.6523-6.0039.2969-.5938 1.0586-.8906 2.6211-.8906 4.6953v18.7109c0 3.9219 1.3633 5.9063 4.0898 5.9492 1.2773 0 2.2461-.4648 2.9063-1.3906.918-1.0977 1.0625-3.5273.9883-5.2891h9.4375c.6445 8.9688-4.6523 15.2539-13.6602 15.1445Zm29.957 0c-9.1094.125-13.1836-6.3594-12.9336-15.1445h8.9102c-.25 3.832 1.0664 7.3203 4.2227 7.0781 1.4063 0 2.3945-.4414 2.9688-1.3242 1.0859-1.6133 1.293-6.2656-.2656-8.0664-1.0859-1.7344-4.9961-3.2656-7.0586-4.2969-2.9492-1.4102-5.0703-3.0859-6.3672-5.0273-2.9297-4.3047-2.6563-13.7539 1.4492-17.5859 3.9922-4.7266 14.4141-4.9414 18.4102-.0977 2.4648 2.4961 3.5391 7.4102 3.332 11.9336H79.8828c.0742-1.8594-.1016-4.8594-.8242-5.9492-.5078-.9258-1.4648-1.3906-2.8711-1.3906-2.5078 0-3.7617 1.5-3.7617 4.4961.0273 3.1797 1.2695 4.4883 4.1602 5.8164 3.7422 1.4531 8.5 3.9375 10.2266 6.9414 5.1445 9.1602 1.6133 23.1484-11.0195 22.6133Zm28.7695 0c-9.1094.125-13.1836-6.3594-12.9336-15.1445h8.9102c-.25 3.832 1.0664 7.3203 4.2227 7.0781 1.4063 0 2.3945-.4414 2.9688-1.3242 1.0859-1.6133 1.2891-6.2656-.2656-8.0664-1.0859-1.7344-4.9961-3.2656-7.0586-4.2969-2.9492-1.4102-5.0703-3.0859-6.3672-5.0273-2.9297-4.3047-2.6563-13.7539 1.4492-17.5859 3.9922-4.7266 14.4141-4.9414 18.4102-.0977 2.4648 2.4961 3.5391 7.4102 3.332 11.9336h-8.5781c.0703-1.8594-.1016-4.8594-.8242-5.9492-.5078-.9258-1.4648-1.3906-2.8711-1.3906-2.5078 0-3.7617 1.5-3.7617 4.4961.0273 3.1797 1.2695 4.4883 4.1602 5.8164 3.7422 1.4531 8.5 3.9375 10.2266 6.9414 5.1445 9.1602 1.6133 23.1484-11.0195 22.6133Z"/></svg>
