<?xml version="1.0" encoding="utf-8"?>
<!-- Generator: Adobe Illustrator 16.0.0, SVG Export Plug-In . SVG Version: 6.00 Build 0)  -->
<!DOCTYPE svg PUBLIC "-//W3C//DTD SVG 1.1//EN" "http://www.w3.org/Graphics/SVG/1.1/DTD/svg11.dtd">
<svg version="1.1" id="Layer_1" xmlns="http://www.w3.org/2000/svg" xmlns:xlink="http://www.w3.org/1999/xlink" x="0px" y="0px"
	 width="500px" height="500px" viewBox="0 0 500 500" enable-background="new 0 0 500 500" xml:space="preserve">
<g>
	<polygon fill="#BB2031" points="76,196 110,196 110,305 97,305 97,324 148,324 148,303 132,303 132,194 168,194 168,210 185,210 
		185,177 57,177 57,210 76,210 	"/>
	<path fill="#BB2031" d="M224.937,140H17.938c-3.61,0-6.938,2.676-6.938,6.238v206.975c0,3.562,3.327,6.787,6.938,6.787h206.999
		c3.609,0,6.063-3.225,6.063-6.787V146.238C231,142.676,228.546,140,224.937,140z M196,220h-38v-16h-15v88h16v42H87v-40h13v-88H87
		v14H47v-54h149V220z"/>
	<path fill="#BB2031" d="M271.322,216.762c-1.411,0-2.833,0.203-4.266,0.609c-1.433,0.406-2.802,0.994-4.106,1.764
		c-1.305,0.77-2.513,1.69-3.625,2.759c-1.113,1.069-2.053,2.342-2.823,3.667L255.284,218H245v65h12v-38.974
		c0-2.01,0.382-3.945,1.002-5.806c0.62-1.86,1.554-3.496,2.73-4.908c1.176-1.411,2.648-2.544,4.381-3.399
		c1.732-0.855,3.638-1.283,5.863-1.283c0.898,0,3.023,0.6,6.023,1.796v-12.51c-1-0.427-1.92-0.727-2.967-0.898
		C272.984,216.848,272.134,216.762,271.322,216.762z"/>
	<path fill="#BB2031" d="M338.875,273.665c-0.428,0-0.824-0.117-1.187-0.353c-0.364-0.234-0.685-0.545-0.962-0.93
		c-0.278-0.386-0.422-0.823-0.571-1.315c-0.15-0.491-0.154-0.994-0.154-1.508v-32.911c0-3.592-0.787-6.64-2.22-9.142
		s-3.381-4.555-5.776-6.158c-2.396-1.604-5.15-2.769-8.229-3.497c-3.08-0.727-6.296-1.09-9.632-1.09
		c-2.951,0-5.917,0.406-8.89,1.219c-2.973,0.812-5.691,2.063-8.15,3.753c-2.46,1.689-4.514,3.651-6.16,6.237
		c-1.646,2.588-2.578,6.029-2.792,9.029h12.638c0.257-1,0.791-3.072,1.604-4.312c0.812-1.24,1.838-2.158,3.08-2.928
		c1.24-0.77,2.662-1.291,4.266-1.655c1.604-0.363,3.325-0.523,5.164-0.523c3.892,0,6.961,0.717,9.206,2.129
		c2.246,1.411,3.368,3.726,3.368,6.933c0,1.37-0.439,2.537-1.315,3.5c-0.877,0.962-2.064,1.83-3.561,2.6
		c-1.498,0.771-3.23,1.466-5.197,2.085c-1.967,0.621-4.021,1.252-6.159,1.894c-2.866,0.856-5.764,1.765-8.693,2.727
		c-2.93,0.963-5.581,2.149-7.955,3.561c-2.374,1.411-4.31,3.111-5.806,5.101c-1.498,1.988-2.245,4.438-2.245,7.346
		c0,2.865,0.523,5.464,1.571,7.794c1.048,2.332,2.47,4.32,4.267,5.967s3.913,2.919,6.351,3.817c2.438,0.897,5.046,1.347,7.827,1.347
		c1.925,0,3.817-0.128,5.678-0.385s3.71-0.737,5.549-1.443c1.838-0.706,3.667-1.689,5.485-2.951
		c1.817-1.261,3.646-2.896,5.485-4.908c0.727,3.038,2.053,5.411,3.978,7.121c1.924,1.711,4.17,2.566,6.736,2.566
		c1.197,0,2.169-0.107,3.346-0.32c1.176-0.215,3.18-0.6,4.18-1.155v-10.457c-1,0.343-1.924,0.632-2.736,0.866
		C339.451,273.548,339.131,273.665,338.875,273.665z M323,260.321c-2,4.449-5.321,7.785-8.742,10.008
		c-3.423,2.225-6.81,3.336-10.402,3.336c-1.155,0-2.218-0.16-3.308-0.48c-1.091-0.321-2.034-0.834-2.889-1.54
		c-0.856-0.706-1.536-1.614-2.07-2.727c-0.536-1.111-0.794-2.438-0.794-3.978c0-1.668,0.57-3.089,1.704-4.266
		c1.133-1.177,2.589-2.182,4.364-3.016c1.774-0.834,3.754-1.55,5.936-2.149c2.181-0.599,4.331-1.187,6.448-1.764
		c2.117-0.578,3.845-1.176,5.663-1.797c1.817-0.619,3.092-1.379,4.092-2.277V260.321z"/>
	<polygon fill="#BB2031" points="376.34,266.244 359.532,218 346.252,218 370.374,283 382.884,283 406.813,218 393.662,218 	"/>
	<rect x="412" y="193" fill="#BB2031" width="12" height="13"/>
	<rect x="412" y="218" fill="#BB2031" width="12" height="65"/>
	<path fill="#BB2031" d="M484.951,258.269c-1.069-1.668-2.481-3.153-4.234-4.459c-1.754-1.304-3.753-2.47-5.999-3.496
		c-2.246-1.026-4.534-1.999-6.864-2.919c-2.332-0.919-4.619-1.817-6.865-2.694c-2.245-0.876-4.245-1.817-5.998-2.823
		c-1.754-1.004-3.166-2.105-4.234-3.304c-1.069-1.196-1.604-2.566-1.604-4.105c0-2.095,0.931-3.763,2.791-5.004
		c1.86-1.24,4.565-1.86,8.115-1.86c1.582,0,3.068,0.139,4.459,0.417c1.389,0.278,2.63,0.76,3.721,1.443
		c1.091,0.685,1.989,1.366,2.694,2.499s1.165,3.037,1.379,4.037h6.8c0.085,0,0.182,0.479,0.289,0.5c0.106,0.022,0.225,0.5,0.353,0.5
		h0.642c0.213,0,0.523-0.021,0.93,0c0.406,0.021,0.834,0,1.283,0c0.449,0,0.876,0,1.283,0c0.406,0,0.716,0,0.93,0
		c-0.128-4-0.845-6.592-2.149-9.094c-1.305-2.502-3.059-4.668-5.261-6.294c-2.203-1.625-4.779-2.875-7.73-3.645
		s-6.159-1.18-9.623-1.18c-3.037,0-5.956,0.339-8.757,1.044c-2.802,0.706-5.283,1.781-7.442,3.234
		c-2.16,1.454-3.892,3.279-5.196,5.481c-1.305,2.203-1.957,4.8-1.957,7.793c0,2.396,0.535,4.48,1.604,6.255
		c1.069,1.774,2.48,3.356,4.234,4.746c1.753,1.391,3.753,2.62,5.998,3.688c2.246,1.069,4.533,2.075,6.865,3.016
		c2.331,0.941,4.619,1.839,6.864,2.694s4.244,1.786,5.999,2.791c1.753,1.005,3.165,2.116,4.234,3.336
		c1.069,1.219,1.604,2.62,1.604,4.202c0,1.668-0.449,3.058-1.347,4.17c-0.898,1.112-2.032,1.999-3.4,2.662
		c-1.369,0.663-2.877,1.122-4.523,1.379c-1.646,0.257-3.24,0.385-4.779,0.385c-1.839,0-3.528-0.225-5.068-0.673
		c-1.54-0.449-2.877-1.176-4.01-2.182c-1.134-1.004-2.043-2.323-2.727-3.927c-0.685-1.604-1.048-3.884-1.091-5.884h-12.702
		c0.128,4,0.898,7.381,2.31,10.311c1.411,2.93,3.272,5.363,5.582,7.288c2.309,1.925,4.981,3.372,8.019,4.333
		c3.036,0.963,6.265,1.445,9.687,1.445c3.55,0,6.929-0.374,10.136-1.121c3.208-0.748,6.02-1.945,8.437-3.592
		c2.416-1.646,4.34-3.753,5.773-6.319c1.433-2.566,2.149-5.667,2.149-9.303C486.555,261.861,486.02,259.937,484.951,258.269z"/>
</g>
</svg>
