<svg xmlns="http://www.w3.org/2000/svg" viewBox="0 0 128 128"><path fill="#cb3349" d="M68.56 55.275c-2.17.003-4.342.027-6.519.07l-4.014 1.901-.054.031c-.603.294-5.872 2.953-10.828 7.694 4.442-2.336 10.97-5.387 18.656-7.754a92.315 92.315 0 0 1 7.201-1.9 345.343 345.343 0 0 0-4.437-.042zm-14.658.295a558.82 558.82 0 0 0-11.13.518c-2.154.119-4.298.266-6.442.428a99.32 99.32 0 0 0-3.205.283 25.224 25.224 0 0 0-.908.103c-2.796 1.673-13.52 8.406-20.883 17.21 7.155-4.972 19.618-12.446 35.008-16.753a96.086 96.086 0 0 1 7.56-1.789zm31.71.09c-.17.252-.514.749-1.008 1.424-1.588 2.148-4.734 6.088-8.77 9.428 5.713-1.024 15.62-3.558 24.193-9.54.214-.151.429-.312.641-.46a.043.043 0 0 0-.022-.008 344.877 344.877 0 0 0-6.287-.416 581.907 581.907 0 0 0-8.748-.428zm-3.403 40.723c-1.15 0-4.493 1.037-11.815 3.306l-.45.143-.442-.166c-.05-.017-4.854-1.799-10.611-1.799a27.169 27.169 0 0 0-1.399.035c-.576.03-3.812 1.568-7.951 8.116l-.27.421-.472.153a510.288 510.288 0 0 1-14.748 4.48l-.49.14-.463-.214c-.05-.02-3.007-1.392-5.819-2.684 1.533 2.265 3.495 5.094 5.221 7.311 3.015 3.883 6.815 7.47 14.102 7.47.913 0 1.885-.055 2.882-.17 7.412-.836 9.321-1.175 10.348-1.355.348-.059.623-.109.975-.152.056-.007 6.125-.791 7.828-4.611 1.756-3.926 2.109-4.86 2.123-4.897l.62-1.652s.076-.43.202-.563c0 .004.001.004.004.004l.012.01c.195.14.484.578.484.578l1.022 1.215a90.881 90.881 0 0 0 5.058 5.473c1.842 1.826 4.071 2.75 6.621 2.75a11.588 11.588 0 0 0 2.71-.334 629.93 629.93 0 0 1 2.743-.66c3.445-.824 7.349-1.76 9.24-2.29.375-.105.793-.2 1.233-.3 2.519-.582 5.969-1.385 7.799-5.049a541.946 541.946 0 0 1 4.607-8.935 77.702 77.702 0 0 0-3.33 1.613c-1.368.718-3.162 1.066-5.478 1.066-1.377 0-2.73-.117-4.227-.25-2.992-.275-8.055-.87-8.107-.877l-.387-.043-.307-.246c-.045-.033-4.482-3.566-8.068-6.386-.145-.118-.277-.229-.397-.329-.376-.322-.378-.322-.603-.322z"/><path fill="#f4edae" d="M68.908 2.928c-2.53 0-5.033.205-7.492.605a47.256 47.256 0 0 0-7.225 1.772c-5.88 1.941-11.372 5.022-16.199 9.054a51.646 51.646 0 0 0-2.814 2.534 52.876 52.876 0 0 0-7.352 8.877 54.162 54.162 0 0 0-2.043 3.355v.002a54.796 54.796 0 0 0-1.816 3.537v.002a55.605 55.605 0 0 0-1.574 3.713 70.15 70.15 0 0 1 3.285-.945c.848-.217 1.7-.425 2.554-.614a49.699 49.699 0 0 1 2.577-.502l-.014.006c.005 0 .01-.003.016-.004a128.13 128.13 0 0 0-2.46.91c-.811.302-1.622.62-2.431.946-.017.007-.032.015-.049.021a91.745 91.745 0 0 0-4.676 2.01l-.05.022c-.362.165-.715.344-1.073.515-.415.199-.836.388-1.246.598l-.006.004c-.204.104-.4.22-.603.328-.554.293-1.108.585-1.65.898-.68.39-1.344.8-1.983 1.233-.64.433-1.253.89-1.828 1.375-.05.29-.095.608-.135.91-.007.059-.01.119-.018.178-.053.451-.094.904-.129 1.357a35.861 35.861 0 0 0-.103 2.35 38.236 38.236 0 0 0 .322 5.191c.21 1.519.498 3.023.88 4.492.05.197.085.4.14.596v.002c.031.115.078.225.111.34.205.706.424 1.407.686 2.094.22.584.47 1.157.75 1.715l.002.002.11.209a12.61 12.61 0 0 0 .386.19l.771.368c.431.2 1.026.48 1.516.7a.97.97 0 0 0 .078-.073l-1.43-5.45c.303-.083 3.019-.782 7.7-1.673l-.03-.008a22.067 22.067 0 0 1-1.103-.234c-.252-.063-.5-.141-.75-.211-.156-.044-.312-.086-.467-.133a22.086 22.086 0 0 1-1.918-.658l-.002-.002a14.346 14.346 0 0 1-1.475-.713h-.002c-.475-.272-.942-.58-1.304-.99h.004c.641.21 1.368.381 2.168.52h.004c.8.137 1.673.241 2.605.316.935.075 1.927.12 2.969.14 2.08.04 4.346-.019 6.695-.144 3.523-.188 7.23-.525 10.772-.89 6.479-.668 12.97-1.16 19.482-1.372.038-.001.077 0 .115-.002 2.133-.068 4.268-.108 6.406-.113 2.176.005 4.349.044 6.52.115a241.382 241.382 0 0 1 6.506.3h.002c.144.01.289.023.433.032 4.188.256 8.369.609 12.541 1.039 3.4.351 6.946.67 10.34.861.144.008.293.022.436.03h.004c1.173.062 2.326.109 3.445.134 1.121.026 2.21.03 3.25.01 2.084-.04 3.982-.181 5.586-.459.79-.136 1.51-.306 2.146-.513l.012-.004c-.36.41-.824.718-1.299.99a14.703 14.703 0 0 1-1.478.715 23.689 23.689 0 0 1-1.553.555 23.702 23.702 0 0 1-1.586.447c-.154.034-.312.07-.47.103 5.13.952 8.115 1.727 8.435 1.813v.002l-1.367 5.187.57-.254c.085-.038.17-.074.254-.113l.772-.367c.128-.062.256-.128.386-.193l.108-.207v-.002a19.729 19.729 0 0 0 .757-1.715 27.03 27.03 0 0 0 .794-2.434v-.004c.233-.826.43-1.667.597-2.515v-.004c.167-.85.306-1.707.424-2.567v-.004a39.931 39.931 0 0 0 .25-2.586v-.002a36.124 36.124 0 0 0 .07-2.6v-.001c0-.038-.006-.076-.006-.113a32.712 32.712 0 0 0-.244-3.77 16.976 16.976 0 0 0-.137-.912 22.037 22.037 0 0 0-1.824-1.371s0-.002-.002-.002a31.756 31.756 0 0 0-1.982-1.233 51.549 51.549 0 0 0-4.582-2.343c-1.56-.736-3.165-1.404-4.776-2.053a87.478 87.478 0 0 0-2.43-.945h-.001c-.811-.314-1.633-.61-2.455-.91l.015.001-.013-.004c.863.143 1.72.314 2.576.502a75.24 75.24 0 0 1 2.55.614h.004c1.101.285 2.197.605 3.286.945-2.907-7.597-7.328-14.2-12.787-19.486a51.649 51.649 0 0 0-2.815-2.533c-4.827-4.033-10.32-7.114-16.201-9.055a47.262 47.262 0 0 0-7.225-1.772 46.587 46.587 0 0 0-7.49-.605ZM53.572 9.69a55.98 55.98 0 0 0-.998 3.516l.309-.912s.55 29.102 7.35 29.102h2.171v-6.315h2.617V20.377h-1.734v3.183h-7.719V12.662l27.18.002V23.56h-7.725v-3.184h-1.74v14.707h2.631v6.314h2c6.578 0 7.145-26.997 7.176-28.785a52.132 52.132 0 0 0-.848-2.92C87.823 15.93 89.013 23 89.382 28.09l.14.512-.085.238c.119 1.992.125 3.66.092 4.73a41.1 41.1 0 0 0 .807-.773c.01-.01.026-.017.035-.027.008-.008.012-.015.022-.022.01-.01.02-.014.03-.021.039-.027.076-.05.114-.075.017-.006.034-.017.05-.027a1.259 1.259 0 0 1 .153-.053c.01 0 .021-.006.031-.006a.73.73 0 0 1 .19-.017c.017 0 .03.004.045.004a1.046 1.046 0 0 1 .146.02l.028.007 11.603 3.295c.093-2.367.14-12.537-5.187-21.11.185.21 6.15 7.02 6.55 21.5l1.871.53a.864.864 0 0 1 .616.69 48.61 48.61 0 0 1 .574 5.415c.723 2.987 2.059 6.984 4.2 8.246.424.201.84.417 1.247.655-.86-.341-1.746-.587-2.64-.807a44.574 44.574 0 0 0-2.688-.59 83.5 83.5 0 0 0-5.44-.85 121.954 121.954 0 0 0-5.468-.59c-1.83-.153-3.653-.308-5.486-.415-7.326-.451-14.673-.565-22.024-.572-7.349.004-14.695.14-22.021.574-1.832.106-3.658.262-5.487.416-1.828.155-3.653.35-5.468.59a84.052 84.052 0 0 0-5.44.85 46.3 46.3 0 0 0-2.691.587c-.89.22-1.781.467-2.64.807a16.075 16.075 0 0 1 1.253-.658c2.136-1.265 3.47-5.251 4.193-8.235.086-1.61.239-3.385.575-5.424a.857.857 0 0 1 .615-.69l1.867-.528c.406-14.48 6.37-21.29 6.557-21.5-5.328 8.574-5.28 18.743-5.188 21.111l11.602-3.299.027-.006a.919.919 0 0 1 .145-.02c.013 0 .03-.003.047-.003a.757.757 0 0 1 .189.015c.01 0 .021.007.035.01a.801.801 0 0 1 .143.05c.02.01.034.021.054.032.04.022.077.045.114.07.01.008.024.01.033.02.008.007.012.017.02.024.01.01.024.016.035.027.263.263.532.52.806.773-.116-3.822.068-14.789 5.29-23.879zm7.393 8.37v3.183h.002V18.06zm10.002 0v19.343h2.625v-.002h-2.623v-19.34Zm19.232 17.234c-.866.787-2.045 1.798-3.23 2.64v.003c1.185-.842 2.364-1.854 3.23-2.641zm-42.58.002c-.001.045 0 .114-.002.16l.004-.158zm39.455.295-.05.145.04-.032.01-.113zm-22.355 1.81v.002h2.623v-.002zm-22.09.657c-1.18-.056-2.54.318-3.59.568-2.099.5-4.847 1.199-5.297 2.299-.872 2.132-1.3 7.693-1.3 7.693l-.061.037c.01.11.026.331.033.395a88.461 88.461 0 0 1 3.283-.822c1.815-.402 3.645-.74 5.477-1.05 1.836-.305 3.68-.54 5.521-.763.132-.017.259-.027.389-.045a1.04 1.04 0 0 1-.062-.156 27.86 27.86 0 0 1-.42-1.764 20.709 20.709 0 0 1-1.47-4.375c-.324-1.474-1.323-1.961-2.503-2.017zm52.691 0c-1.18.056-2.179.543-2.504 2.017-.461 2.101-1.126 3.77-1.724 4.914-.092.409-.181.818-.293 1.225a1.05 1.05 0 0 1-.065.164c.13.013.26.024.387.041a109.451 109.451 0 0 1 11.002 1.813 93.664 93.664 0 0 1 3.28.82c.015-.133.043-.496.07-.822-.083-.976-.486-5.403-1.264-7.305-.45-1.1-3.199-1.799-5.297-2.299-1.05-.25-2.411-.624-3.592-.568zm-8.777 3.068c-.287 1.417-.758 3.085-1.53 4.701h.003c.77-1.616 1.24-3.284 1.527-4.701zm-37.877 4.578.012.053a.847.847 0 0 1 0 .443h.002a.854.854 0 0 0 0-.445l-.014-.05z"/><path fill="#e6ccad" d="m117.469 72.953-1.78 12.455v.004a.89.89 0 0 1-.37.6v.002l-2.544 1.781-.152.78c2.51.617 4.917-1.182 6.275-2.483.634-2.464 1.192-5.357 1.38-7.455.145-1.617.155-2.598.087-3.21a2.402 2.402 0 0 0-.154-.671.772.772 0 0 0-.225-.313c-.118-.099-.42-.28-.703-.453-.11-.066-.147-.101-.273-.175h-.002c-.454-.265-1-.57-1.54-.862zm-96.557 1.729c-.596.319-1.239.673-1.777.988l-.002.002c-.193.113-.257.167-.416.265-.286.177-.624.378-.743.477-.237.197-.435.624-.373 2.14.021.506.072 1.133.159 1.913l.01.068c.113.993.32 2.188.591 3.451l.008.04a62.622 62.622 0 0 0 .965 3.87c1.081 1.244 2.879 2.58 5.222 1.655l-1.66-1.162a.888.888 0 0 1-.375-.62zm48.219 1.781a13.44 13.44 0 0 0-1.799.14L63.37 89.655c-.001.005-.006.008-.008.012a.885.885 0 0 1-.236.377l-.002.002-.002.002a.884.884 0 0 1-.408.213l-.002.002-1.895.422c-.161.669-.707 1.65-2.465 2.187-2.834.867-20.79 6.22-22.837 5.93-1.21-.17-3.433-1.412-5.12-2.432a60.981 60.981 0 0 0 2.538 5.278c.367.68.779 1.387 1.209 2.105.163.273.32.542.492.819.594.953 1.23 1.924 1.937 2.906a559.204 559.204 0 0 0 10.916-3.35 40.025 40.025 0 0 1 2.346-3.246v-.002a29.76 29.76 0 0 1 2.574-2.838c.872-.834 1.746-1.537 2.582-2.039L54.99 96l.016-.008a7.094 7.094 0 0 1 1.187-.578l.018-.008.02-.006a3.966 3.966 0 0 1 1.12-.242 32.004 32.004 0 0 1 1.538-.039h.002c.675.003 1.35.025 2.023.067h.002a36.465 36.465 0 0 1 2.012.183 4.322 4.322 0 0 1-.652-.746l-.003-.002a4.485 4.485 0 0 1-.408-.732l-.002-.002c-.207-.47-.301-.88-.379-1.131h.002s.231.18.653.443c.21.131.467.282.767.442h.002c.097.051.225.105.33.158a12.208 12.208 0 0 0 3.418 1.154 11.146 11.146 0 0 0 1.489.166l.1.004a10.373 10.373 0 0 0 1.575-.068c.032-.004.062-.004.094-.008a15.279 15.279 0 0 0 5.596-1.89l.031-.02a14.24 14.24 0 0 0 1.47-.967c.298-.224.405-.322.46-.371l.095-.078.002-.002s-.004.497-.265 1.187a4.904 4.904 0 0 1-.613 1.137v.002c-.29.402-.678.814-1.192 1.197 1.978-.598 3.376-1 4.42-1.252s1.733-.355 2.293-.355c1.237 0 1.845.515 2.38.97.1.083.201.171.321.268l.002.002c.633.498.959.76 1.615 1.28a3777.68 3777.68 0 0 1 6.153 4.872h.002c.12.014.573.061.74.08 1.556.18 4.669.536 6.904.74.714.066 1.393.125 2.051.169.659.043 1.297.07 1.928.07.408 0 .789-.013 1.15-.039a56.938 56.938 0 0 0 1.729-3.643c.079-.18.158-.358.236-.54a67.857 67.857 0 0 0 1.602-4.124c-1.426 1.003-4.766 3.264-6.352 3.559-2.032.378-20.202-4.187-23.072-4.93-1.325-.343-1.975-.96-2.307-1.527l-1.53-.174h-.001a.886.886 0 0 1-.465-.2.886.886 0 0 1-.285-.427l-4.078-13.437a13.898 13.898 0 0 0-1.793-.141h-.01zm3.33 38.492a253.499 253.499 0 0 1-1.228 2.776h.076l.078-.002c.419 0 .882-.044 1.318-.065.073-.006.145-.019.217-.025a29.196 29.196 0 0 0 1.82-.217 94.872 94.872 0 0 1-2.281-2.467zm3.441 3.653a28.128 28.128 0 0 1-3.12.449h-.003c-.017 0-.034 0-.05.002-.428.017-.837.054-1.287.054l-.694.006-.265-.006c-.19.282-.396.546-.614.797-.058.068-.121.128-.181.194a9.378 9.378 0 0 1-.518.529c-.068.063-.14.12-.209.182-.18.157-.361.31-.549.453-.072.055-.145.107-.219.16a12.3 12.3 0 0 1-.63.43l-.09.056a13.76 13.76 0 0 1-1.543.81c-.125.057-.242.107-.365.159-.492.21-.96.391-1.413.539 6.209 1.072 12.982-.56 16.538-1.646-.037-.013-.071-.032-.108-.045a11.676 11.676 0 0 1-.984-.416c-.118-.056-.232-.12-.348-.18a11.873 11.873 0 0 1-.72-.402 12.107 12.107 0 0 1-.38-.24 12.322 12.322 0 0 1-.65-.465c-.119-.09-.24-.177-.355-.272a13.009 13.009 0 0 1-.817-.728c-.034-.033-.07-.061-.103-.094v-.002c-.11-.11-.216-.214-.323-.324z"/><path fill="#656c67" d="M82.215 56.248a71.84 71.84 0 0 0-3.106.383c-.005 0-.011 0-.017.002a71.755 71.755 0 0 0-3.067.515 87.27 87.27 0 0 0-9.879 2.477l-.084.025c-1.485.465-2.92.957-4.306 1.461a106.266 106.266 0 0 0-4.354 1.694 251.908 251.908 0 0 1 5.787-.213c1.979-.05 4.003-.078 6.07-.078h.005c2.416 0 4.763.039 7.052.107l.243.004a55.567 55.567 0 0 0 2.586-2.676 55.612 55.612 0 0 0 2.402-2.844c.24-.302.466-.592.668-.857zm21.88 1.215a49.678 49.678 0 0 1-2.708 1.814c-2.761 1.722-5.654 3.17-8.51 4.387 2.912.284 5.63.6 8.13.932 2.502.33 4.786.674 6.827 1.01 2.04.335 3.84.662 5.371.958 1.531.297 2.796.563 3.77.778l1.906-7.225c-2.073-.47-5.453-1.176-9.938-1.914h-.002a218.654 218.654 0 0 0-4.845-.74zm-53.013 1.166a96.126 96.126 0 0 0-5.365 1.412c-1.75.515-3.46 1.071-5.125 1.658a107.769 107.769 0 0 0-4.86 1.846 112.947 112.947 0 0 0-4.568 1.982 230.054 230.054 0 0 1 6.885-1.004 230.92 230.92 0 0 1 6.912-.795l.047-.04a47.386 47.386 0 0 1 6.074-5.06zm-26.926.547c-1.865.36-3.386.686-4.512.941l.53 2a66.471 66.471 0 0 1 3.982-2.941zm88.322 9.697-1.956 13.709a.905.905 0 0 1-.124.338v.002a.902.902 0 0 1-.246.264v.002l-2.718 1.9-4.621 3.234a.896.896 0 0 1-.588.153l-.02.002-22.127-2.514a.891.891 0 0 1-.752-.623l-.002-.002-1.386-4.567-2.598-8.55c-.801-.207-2.543-.62-4.375-.813a17.664 17.664 0 0 0-1.832-.103c-1.204 0-2.49.16-3.608.353-1.118.194-2.07.423-2.603.56l-3.986 13.12v.002c-.001.002-.004.003-.004.006a.885.885 0 0 1-.242.385.887.887 0 0 1-.41.216L36.153 90.87a.852.852 0 0 1-.506-.055c-.066-.025-.137-.04-.197-.082l-4.316-3.023-3.024-2.117a.89.89 0 0 1-.37-.617l-.003-.002-1.543-12.524-.435-3.521c-.822.158-1.565.307-2.225.449-.47.258-.935.515-1.392.773l2.101 17.008 10.664 7.469 26.91-5.988 3.973-13.086v-.002a.893.893 0 0 1 .266-.412.892.892 0 0 1 .443-.21c1.007-.161 1.887-.244 2.633-.244.738 0 1.626.083 2.629.245a.883.883 0 0 1 .44.205l.003.004.008.007a.883.883 0 0 1 .258.405v.002l4.074 13.412 27.06 3.078 10.376-7.27 2.166-15.152a158.3 158.3 0 0 0-3.668-.748z"/><path fill="#c7b39a" d="M69.26 64.92c-1.605 0-3.184.016-4.735.047h-.047a238.71 238.71 0 0 0-4.613.137 240.704 240.704 0 0 0-8.644.494h-.002a106.508 106.508 0 0 0-3.647 1.87l-.064.034-.002.002a95.142 95.142 0 0 0-2.803 1.566c-1.541.898-2.402 1.466-2.441 1.494h-.002l-2.645 1.764-2.643 1.762-.003.002 2.142-3.074 1.492-2.141v-.002a36.339 36.339 0 0 1 1.891-2.467 225.57 225.57 0 0 0-8.117 1.059c-.251.037-.501.079-.752.117-2.272.346-4.36.693-6.112 1.016l.909 7.363 1.037 8.4 6.69 4.686 21.236-4.723 1.988-6.549 1.986-6.547a.895.895 0 0 1 .156-.29.906.906 0 0 1 .248-.217.72.72 0 0 1 .202-.09c.073-.02.909-.247 2.058-.488a30.253 30.253 0 0 1 2.606-.443l.03-.007 3.9-2.355a30.352 30.352 0 0 0 3.357-2.375c-.76-.014-1.545-.015-2.316-.024-.78-.007-1.56-.02-2.34-.021zm18.496.709a88.579 88.579 0 0 1-6.233 1.89 91.51 91.51 0 0 1-5.123 1.198c-2.975.605-4.914.838-5.134.853l-.254.016-.246.02c1.388.12 2.737.366 3.755.587 1.021.223 1.71.42 1.776.44a.9.9 0 0 1 .377.223.905.905 0 0 1 .228.375l3.96 13.033 21.208 2.41 6.744-4.723 1.917-13.404a210.375 210.375 0 0 0-10.147-1.582 231.476 231.476 0 0 0-5.916-.705 240.712 240.712 0 0 0-6.912-.631zm.998 3.459c.342-.012.68.033 1.012.125h.006l.007.004c.329.093.65.232.96.418l.001.002c.313.187.614.418.9.69l.003.001a6.848 6.848 0 0 1 .834.961c.244.337.47.705.675 1.102.205.395.386.82.545 1.265l.034.096c.155.448.288.917.39 1.404a12.3 12.3 0 0 1 .225 1.569 7.473 7.473 0 0 1-.022 1.55 4.542 4.542 0 0 1-.123.618 3.454 3.454 0 0 1-.19.525c.64-.076 1.155-.024 1.57.098h.001c.414.121.725.313.96.517.233.205.388.422.485.594.098.172.14.3.147.326a3.28 3.28 0 0 0-.705-.246 3.968 3.968 0 0 0-.738-.092c-.508-.018-1.05.041-1.649.131-.602.09-1.262.21-2.004.313a20.7 20.7 0 0 1-2.469.203h-.005c-.686.024-1.345.043-1.95-.008h-.002a5.307 5.307 0 0 1-.86-.137h-.003a3.178 3.178 0 0 1-.76-.295 2.528 2.528 0 0 1-.64-.502 2.93 2.93 0 0 1-.498-.757 4.741 4.741 0 0 1-.336-1.067 8.804 8.804 0 0 1-.155-1.422 14.235 14.235 0 0 1 .032-1.578 12.577 12.577 0 0 1 .199-1.476v-.002c.56-2.831 2.063-4.857 4.123-4.93zM48.723 70.15c.007 0 .014.004.021.004.336 0 .658.048.967.147h.002c.312.1.61.251.89.443l.008.004.004.004c.845.583 1.537 1.562 2.024 2.797l.007.015.006.018c.158.405.295.836.407 1.291l.004.016a12.553 12.553 0 0 1 .264 1.457l.001.01v.005a14.198 14.198 0 0 1 .102 1.567v.004a8.628 8.628 0 0 1-.09 1.412v.002a4.321 4.321 0 0 1-.287 1.039v.002a2.56 2.56 0 0 1-.461.726c-.901.982-2.437.886-4.156.903-.28.007-.545.01-.807.013-.309.007-.603.011-.889.004-1.314-.002-2.393-.031-3.332.036-.014 0-.03 0-.045.002a7.87 7.87 0 0 0-1.324.199h-.002c-.413.103-.803.25-1.18.453.01-.023.058-.134.163-.295.1-.156.259-.36.48-.58l.022-.024.013-.011a4.54 4.54 0 0 1 .897-.664c.209-.12.436-.236.699-.34a6.519 6.519 0 0 1 .82-.262c-.003-.007-.004-.02-.007-.027a4.724 4.724 0 0 1-.303-.998l-.016-.08a9.841 9.841 0 0 1-.142-1.36c-.001-.02-.005-.033-.006-.054-.001-.017.002-.033.002-.05a9.871 9.871 0 0 1 .064-1.527 9.543 9.543 0 0 1 .287-1.423l.026-.09c.132-.454.294-.886.484-1.291.196-.419.42-.81.668-1.166a6.822 6.822 0 0 1 .768-.924 5.435 5.435 0 0 1 .922-.752l.046-.031c.299-.187.609-.335.924-.44.022-.007.043-.015.065-.021.316-.099.639-.153.962-.158.01 0 .019-.004.028-.004z"/><path fill="#ebd599" d="M90.2 35.297c-.867.787-2.046 1.799-3.231 2.64a21.66 21.66 0 0 1-.12 1.29v.002a24.611 24.611 0 0 1-.306 1.894v.004c-.286 1.417-.756 3.085-1.527 4.701.09.007.18.018.27.026 1.284.104 2.57.218 3.855.353a.85.85 0 0 1 0-.45v-.001c.27-.983.476-1.984.632-2.967v-.002a35.6 35.6 0 0 0 .332-2.865v-.002c.07-.916.103-1.781.114-2.563v-.002a42.587 42.587 0 0 0-.02-2.056v-.002zm-42.579.002-.004.158a44.69 44.69 0 0 0-.013 1.713c0 .106.002.21.004.318.012.708.042 1.48.101 2.295l.018.25a35.65 35.65 0 0 0 .338 2.842c.15.94.346 1.892.601 2.83l.014.05a.854.854 0 0 1 0 .446c.009 0 .018 0 .027-.002a167.19 167.19 0 0 1 4.094-.38 17.47 17.47 0 0 1-.524-1.217c-.166-.43-.309-.855-.44-1.276a22.738 22.738 0 0 1-.562-2.207 24.456 24.456 0 0 1-.306-1.894 20.997 20.997 0 0 1-.117-1.29 28.886 28.886 0 0 1-1.63-1.255 42.552 42.552 0 0 1-1.437-1.24c-.049-.045-.117-.098-.164-.141z"/><path fill="#2d3136" d="M88.756 69.09c-2.747.097-4.507 3.666-4.356 7.984.151 4.314 2.46 4.284 5.205 4.188 3.693-.07 5.72-1.202 7.569-.309-.027-.103-.605-1.838-3.162-1.533.295-.642.427-1.51.334-2.695-.338-4.308-2.843-7.731-5.59-7.635zm-40.033 1.06c-2.75.024-5.41 3.563-5.246 7.877.044 1.124.21 1.935.474 2.52-2.397.6-3.056 2.083-3.094 2.176 1.51-.815 3.216-.695 5.883-.692.286.007.58.005.889-.002.262-.004.526-.008.805-.015 2.75-.027 5.036.234 4.996-4.084-.042-4.317-1.96-7.806-4.707-7.78zm39.767 1.666c.021 0 .038.012.059.012a1.388 1.388 0 0 1 .535.117 1.404 1.404 0 0 1 .377.244l.043.04a1.4 1.4 0 0 1 .281.398l.02.041c.069.16.109.336.113.521l.002.006v.006a1.399 1.399 0 0 1-.098.535c0 .003 0 .006-.002.008l-.002.004a1.41 1.41 0 0 1-.29.447 1.4 1.4 0 0 1-.985.436 1.517 1.517 0 0 1-.55-.106 1.265 1.265 0 0 1-.433-.28l-.029-.026a1.322 1.322 0 0 1-.215-.305c-.116-.2-.2-.42-.205-.668-.005-.26.08-.492.2-.703a1.23 1.23 0 0 1 .162-.25l.002-.002c.029-.032.06-.06.091-.09a1.27 1.27 0 0 1 .346-.242c.038-.018.078-.026.117-.041a1.522 1.522 0 0 1 .387-.086c.026-.002.048-.015.074-.016zm-39.38 1.047c1.938-.13 2.02 2.804.1 2.805-.009 0-.017.006-.026.006-.02 0-.036-.01-.055-.01a1.54 1.54 0 0 1-.377-.064 1.35 1.35 0 0 1-.22-.088 1.268 1.268 0 0 1-.22-.139 1.38 1.38 0 0 1-.57-1.066c-.011-.433.186-.81.486-1.077.09-.084.188-.158.305-.216.034-.017.07-.026.106-.04a1.5 1.5 0 0 1 .47-.11z"/><path fill="#edf6fa" d="M88.49 71.816a1.404 1.404 0 1 0 .05 2.808 1.404 1.404 0 0 0-.05-2.808zm-39.379 1.05a1.405 1.405 0 1 0 .071 2.808 1.405 1.405 0 0 0-.07-2.809z"/><path fill="#ebd599" d="m52.883 12.295-.309.912c-1.164 4.588-2.811 13.146-1.828 22.498.463.371.95.735 1.426 1.055a.866.866 0 0 1 .375.699c.004.045.102 4.373 2.014 8.055.026.055.048.113.066.171 4.755-.324 9.521-.454 14.28-.457 4.758.003 9.523.14 14.277.467a.88.88 0 0 1 .068-.181c1.911-3.682 2.012-8.01 2.012-8.055a.876.876 0 0 1 .379-.7c.46-.31.926-.663 1.38-1.023l.051-.144c1.001-9.713-.825-18.585-1.984-22.98-.03 1.787-.598 28.784-7.176 28.784h-2v1.912h-13.51v-1.912h-2.172c-6.8 0-7.35-29.101-7.35-29.101zm36.5 15.795c.018.25.04.51.055.75l.083-.238zm-43.457 6.476L32.796 38.3c-.81 5.275-.535 9.135-.415 10.357l.06-.037s.43-5.561 1.301-7.693c.45-1.1 3.198-1.8 5.297-2.299 2.098-.5 5.444-1.5 6.094 1.45a20.703 20.703 0 0 0 1.469 4.374c-.828-4.023-.775-7.943-.676-9.885zm45.965 0c.107 2.028.148 6.215-.8 10.424.599-1.144 1.264-2.813 1.725-4.914.65-2.948 3.997-1.948 6.096-1.449 2.098.5 4.847 1.2 5.297 2.299.778 1.902 1.181 6.329 1.264 7.305.127-1.575.283-5.163-.45-9.93zm15.316 8.334c.205 3.85-.101 6.375-.121 6.518-.007.042-.017.078-.027.115a26 26 0 0 1 .453.137c1.316.432 2.64.884 3.894 1.477-2.14-1.263-3.476-5.26-4.199-8.247zm-76.6.008c-.723 2.984-2.057 6.97-4.193 8.235 1.253-.592 2.576-1.044 3.893-1.475.15-.048.298-.09.449-.139-.01-.038-.02-.071-.027-.111-.022-.143-.326-2.666-.121-6.51z" opacity=".8"/><path fill="#cb3349" d="M57.883 14.979v6.265h3.082V18.06h6.379v19.342h-.002v.002h-2.623v3.586h8.873v-3.586h-2.625V18.061h6.379v3.181h3.082V14.98z"/><path fill="#c7b39a" d="M118.898 86.092c-1.36 1.303-3.774 3.108-6.289 2.48-.104.54-.189 1.031-.359 1.717 1.455.337 3.84.6 4.977.38.485-.526 1.108-2.387 1.671-4.577zm-99.564 1.805c.646 2.273 1.35 4.215 1.848 4.716 1.259.222 4.047-.164 5.416-.566a46.34 46.34 0 0 1-.397-1.346l-1.644-1.15c-2.344.925-4.141-.411-5.223-1.654zm90.955 1.634-.898.63-2.418 1.696-2.621 1.836a.91.91 0 0 1-.612.157l-26.078-2.967-.369-.041c.332.567.981 1.184 2.307 1.527 2.87.743 21.04 5.308 23.072 4.93 1.585-.295 4.926-2.556 6.351-3.559.27-.77.537-1.545.79-2.351.17-.617.328-1.236.476-1.858zm-49.473 1.15-25.9 5.77a1.006 1.006 0 0 1-.195.018.883.883 0 0 1-.512-.162l-1.01-.701-3.025-2.118v-.007l-1.22-.854c.085.275.183.543.28.81l-.004.005a64.11 64.11 0 0 0 1.164 2.927c1.687 1.02 3.91 2.261 5.12 2.432 2.048.29 20.004-5.063 22.838-5.93 1.759-.537 2.303-1.52 2.464-2.19zm19.873 31.094c-3.555 1.088-10.328 2.72-16.537 1.647-1.612.527-2.891.713-3.015.728a10.8 10.8 0 0 0-.764.12c3.483.954 7.039 1.368 10.545 1.132a42.064 42.064 0 0 0 12.924-2.962 11.926 11.926 0 0 1-3.153-.665z"/><path fill="#2d3136" d="M68.91.52c-10.884 0-21.335 3.566-30.22 10.308-8.595 6.524-15.135 15.884-18.938 26.44a50.473 50.473 0 0 0-4.04 1.673c-1.61.772-3.193 1.642-4.661 2.795l-.26.203-.098.362a20.42 20.42 0 0 0-.332 1.422c-.092.46-.162.924-.228 1.388a33.11 33.11 0 0 0-.27 2.787 34.97 34.97 0 0 0 .166 5.588 35.045 35.045 0 0 0 1.037 5.508c.256.905.55 1.8.899 2.688a18.312 18.312 0 0 0 .9 1.98l.186.328c.07.12.116.208.222.367l.19.293.295.15c.314.164.572.286.857.419l.832.375c.153.062.297.125.453.187-3.77 3.49-7.87 8.02-11.418 13.623L0 86.474l6.293-5.523c.106-.093 5.382-4.663 14.182-9.834l.12 1.012c-.572.298-3.342 1.752-4.163 2.437-1.362 1.134-1.428 2.89-1.063 6.166.185 1.68.818 4.94 1.666 7.928 1.461 5.146 2.533 6.055 3.475 6.27.423.1.975.146 1.59.146 1.683 0 3.847-.328 5.252-.752 1.653 5.14 3.993 9.777 6.845 13.846l-.412.12c-1.716-.797-7.713-3.573-9.73-4.481l-4.215-1.895 2.494 3.889c.182.28 4.483 6.99 7.998 11.51 3.284 4.22 7.782 8.533 16.271 8.533a28.9 28.9 0 0 0 3.192-.188 417.47 417.47 0 0 0 5.883-.701c8.91 3.274 18.737 3.473 28.06-.059a40.98 40.98 0 0 0 7.01-3.462c.043-.006.086-.018.127-.028 3.468-.834 7.4-1.772 9.344-2.318.315-.086.7-.177 1.11-.274 2.705-.622 7.228-1.67 9.64-6.496 2.429-4.87 6.394-12.329 6.437-12.404l1.85-3.479-3.611 1.569c-.193.086-4.764 2.079-7.143 3.328-.086.046-.182.086-.28.133 1.93-3.936 2.904-7.09 3.245-8.297 1.328.32 3.303.281 4.754.281a8.26 8.26 0 0 0 1.926-.244c.94-.24 1.668-.865 3.04-6.176.795-3.085 1.37-6.446 1.526-8.172.305-3.362.207-5.16-1.168-6.297-.683-.563-2.687-1.645-3.707-2.18l.049-.366c.52.124.799.197.822.203l.924-3.512a39.62 39.62 0 0 1 1.064-.432 55.505 55.505 0 0 0 1.676-.681l.832-.375c.286-.133.543-.256.858-.418l.294-.153.19-.29c.103-.16.155-.249.222-.368l.182-.328c.123-.222.231-.438.334-.656.206-.44.394-.883.57-1.326.35-.888.643-1.78.899-2.686a35.5 35.5 0 0 0 1.035-5.508c.209-1.856.26-3.725.166-5.59a30.765 30.765 0 0 0-.268-2.785 21.03 21.03 0 0 0-.228-1.388 17.3 17.3 0 0 0-.332-1.422l-.1-.36-.257-.203c-1.468-1.153-3.053-2.025-4.663-2.797a50.068 50.068 0 0 0-4.04-1.675c-3.803-10.553-10.343-19.914-18.938-26.438C90.243 4.085 79.795.52 68.91.52Zm-.002 2.408c20.234 0 38.77 13.192 46.52 33.453a67.075 67.075 0 0 0-3.291-.947c-1.692-.435-3.403-.829-5.13-1.114.823.3 1.645.597 2.456.91.815.303 1.627.62 2.432.946 1.61.649 3.215 1.317 4.775 2.053a51.549 51.549 0 0 1 4.582 2.343c1.359.783 2.66 1.64 3.81 2.608.05.29.1.61.137.912.053.427.098.854.135 1.285.073.861.107 1.73.113 2.598a37.84 37.84 0 0 1-.32 5.191c-.235 1.723-.554 3.437-1.022 5.09a26.912 26.912 0 0 1-.79 2.434 20.47 20.47 0 0 1-.49 1.164 14.204 14.204 0 0 1-.27.552l-.106.21c-.13.065-.263.13-.388.19l-.772.368c-.271.126-.55.246-.824.369l1.367-5.19c-.318-.085-3.307-.86-8.44-1.812.16-.033.32-.07.475-.105a23.675 23.675 0 0 0 3.139-1.002 14.702 14.702 0 0 0 1.478-.715c.475-.272.94-.58 1.301-.99-5.14 1.68-15.769.917-25.22-.057-8.636-.892-17.299-1.47-26.003-1.488-8.704.02-17.36.596-26.002 1.488-9.448.973-20.072 1.736-25.214.057.36.41.828.718 1.302.99.474.269.973.5 1.477.715 1.017.41 2.07.737 3.135 1.002.373.09.76.172 1.136.242-4.68.89-7.4 1.593-7.7 1.676l1.427 5.447a.97.97 0 0 1-.078.072c-.49-.219-1.085-.5-1.516-.7l-.771-.366a12.6 12.6 0 0 1-.387-.192l-.11-.209a17.801 17.801 0 0 1-.751-1.716 26.841 26.841 0 0 1-.797-2.434c-.467-1.653-.782-3.367-1.02-5.09a38.235 38.235 0 0 1-.322-5.191c.01-.868.04-1.737.115-2.598.034-.43.085-.86.135-1.287.04-.302.086-.62.135-.91 1.15-.97 2.453-1.828 3.81-2.61a52.11 52.11 0 0 1 4.578-2.341c1.564-.736 3.166-1.404 4.776-2.053.809-.325 1.62-.644 2.432-.945a128.13 128.13 0 0 1 2.459-.91c-1.727.284-3.437.679-5.133 1.113-1.1.285-2.198.606-3.287.947C30.14 16.12 48.67 2.928 68.908 2.928ZM53.572 9.69c-5.22 9.09-5.405 20.056-5.289 23.88a29.167 29.167 0 0 1-.806-.774c-.011-.011-.025-.017-.036-.027-.007-.008-.011-.017-.02-.024-.008-.01-.022-.012-.032-.02a1.211 1.211 0 0 0-.114-.07c-.02-.01-.033-.023-.054-.033a.801.801 0 0 0-.143-.049c-.014-.003-.025-.01-.035-.01a.756.756 0 0 0-.19-.015c-.016 0-.033.004-.046.004a.918.918 0 0 0-.145.02l-.027.005-11.602 3.299c-.092-2.368-.14-12.537 5.188-21.111-.187.21-6.15 7.02-6.557 21.5l-1.867.529a.857.857 0 0 0-.615.69c-1.138 6.902-.484 11.73-.453 11.933.007.04.017.073.027.111-.151.048-.3.091-.45.139-1.765.578-3.54 1.194-5.146 2.133.86-.34 1.75-.587 2.64-.807a46.3 46.3 0 0 1 2.692-.588 84.019 84.019 0 0 1 5.44-.85c1.815-.24 3.64-.434 5.468-.59 1.83-.153 3.655-.31 5.487-.415 7.326-.433 14.672-.57 22.021-.574 7.351.007 14.698.12 22.024.572 1.833.107 3.657.262 5.486.416 1.83.155 3.65.353 5.469.59a83.5 83.5 0 0 1 5.44.85c.9.17 1.796.362 2.687.59.894.22 1.78.465 2.64.806-1.606-.94-3.38-1.553-5.142-2.131a23.617 23.617 0 0 0-.453-.137c.01-.037.02-.073.027-.115.028-.203.684-5.03-.453-11.934a.864.864 0 0 0-.616-.69l-1.87-.528c-.402-14.48-6.366-21.29-6.551-21.5 5.328 8.573 5.28 18.742 5.187 21.109L91.18 32.58c-.01-.003-.02-.004-.028-.008a1.044 1.044 0 0 0-.146-.02c-.014 0-.028-.003-.045-.003a.73.73 0 0 0-.19.017c-.01 0-.02.006-.03.006a1.26 1.26 0 0 0-.153.053c-.017.01-.034.021-.05.027-.039.025-.076.048-.114.075-.01.007-.021.01-.031.021-.01.007-.014.015-.022.021-.009.01-.025.018-.035.028a41.1 41.1 0 0 1-.807.773c.117-3.823-.069-14.79-5.287-23.879.11.32 4.252 12.435 2.822 26.014-.466.371-.947.735-1.421 1.055a.876.876 0 0 0-.38.699c0 .045-.1 4.373-2.011 8.055a.88.88 0 0 0-.068.181c-4.754-.327-9.519-.463-14.278-.466-4.758.003-9.524.133-14.279.457a1.192 1.192 0 0 0-.067-.172c-1.911-3.682-2.01-8.01-2.013-8.055a.866.866 0 0 0-.375-.7c-.476-.32-.963-.683-1.426-1.054-1.428-13.579 2.716-25.695 2.826-26.014zm1.996 2.971V23.56h7.72v-3.183h1.734v14.705h-2.618v8.227h13.51v-8.227h-2.63V20.375h1.74v3.184h7.724V12.664Zm2.315 2.316h22.545v6.264h-3.082V18.06h-6.377v19.342h2.623v3.588h-8.873v-3.588h2.625V18.061h-6.377v3.183h-3.084zM45.926 34.566c-.113 2.225-.168 7.05 1.096 11.649.018.055.037.108.062.156-.13.018-.257.028-.389.045-1.842.223-3.685.458-5.521.764-1.832.31-3.662.646-5.477 1.048a88.459 88.459 0 0 0-3.283.823c-.089-.777-.5-5.004.383-10.752zm45.965 0 13.132 3.735c.884 5.755.468 9.98.38 10.752a93.664 93.664 0 0 0-3.28-.82 109.45 109.45 0 0 0-11.002-1.813c-.127-.017-.257-.028-.387-.041a1.05 1.05 0 0 0 .065-.164c1.262-4.6 1.21-9.425 1.092-11.649zm-1.692.729c.08 2.32.022 6.526-1.058 10.46a.856.856 0 0 0 0 .452 172.45 172.45 0 0 0-4.127-.379c1.543-3.234 1.882-6.68 1.955-7.893 1.185-.843 2.364-1.853 3.23-2.64zm-42.58.002c.866.787 2.043 1.796 3.233 2.639.07 1.212.408 4.65 1.949 7.882-1.376.11-2.75.238-4.123.383a.847.847 0 0 0 0-.443c-1.08-3.93-1.135-8.137-1.059-10.461Zm20.942 19.978h.003c1.48.004 2.96.018 4.438.041a92.314 92.314 0 0 0-7.201 1.9c-7.685 2.368-14.213 5.419-18.656 7.755 4.956-4.741 10.225-7.4 10.828-7.694l.054-.03 4.014-1.901c2.177-.044 4.35-.068 6.52-.07zm-14.659.295a96.085 96.085 0 0 0-7.56 1.79c-15.39 4.306-27.853 11.78-35.008 16.751 7.363-8.803 18.087-15.536 20.883-17.209.304-.04.603-.074.908-.103 1.064-.117 2.131-.2 3.205-.283 2.144-.162 4.288-.31 6.442-.428 3.708-.21 7.42-.382 11.13-.518zm31.71.09c2.914.122 5.832.262 8.747.428 2.101.118 4.194.26 6.288.416.006 0 .015.004.021.008-.212.148-.427.309-.64.46-8.574 5.982-18.481 8.516-24.194 9.54 4.036-3.34 7.183-7.28 8.77-9.428a47.32 47.32 0 0 0 1.007-1.424zm-3.397.588c-.202.265-.427.556-.668.858a55.59 55.59 0 0 1-4.988 5.519 246.38 246.38 0 0 0-7.297-.111c-4.136 0-8.1.109-11.868.29 5.317-2.205 11.711-4.36 18.631-5.656a71.798 71.798 0 0 1 6.19-.9zm21.88 1.215c6.933.98 12.022 2.028 14.786 2.654l-1.906 7.225c-3.894-.858-12.45-2.544-24.098-3.678 3.807-1.623 7.68-3.656 11.219-6.201zm-53.011 1.166a47.573 47.573 0 0 0-6.123 5.1 230.85 230.85 0 0 0-13.799 1.798c5.891-2.71 12.616-5.201 19.922-6.898zm-26.928.547a66.47 66.47 0 0 0-3.982 2.941l-.53-2a147.89 147.89 0 0 1 4.512-.941zm45.106 5.742c1.58 0 3.128.02 4.656.047a30.352 30.352 0 0 1-3.36 2.375l-3.898 2.355c-2.448.3-4.572.905-4.695.938a.72.72 0 0 0-.201.09.895.895 0 0 0-.403.508l-3.976 13.095-21.237 4.723-6.691-4.686L27.514 68.6c3.797-.7 8.88-1.51 14.982-2.192a33.581 33.581 0 0 0-1.892 2.47l-3.635 5.214 5.293-3.527c.078-.056 3.448-2.274 8.959-4.967a240.52 240.52 0 0 1 18.04-.68zm18.494.711c9.675.743 17.573 1.933 22.974 2.916l-1.916 13.406-6.744 4.723-21.209-2.41-3.959-13.033a.9.9 0 0 0-.605-.598c-.132-.04-2.755-.787-5.541-1.027l.51-.038c.44-.03 7.756-.926 16.49-3.939zm24.722 3.244a158.3 158.3 0 0 1 3.669.748l-2.167 15.153-10.374 7.27-27.061-3.08-4.074-13.411a.879.879 0 0 0-.71-.623c-1.002-.162-1.89-.244-2.628-.244-.746 0-1.626.082-2.633.244a.888.888 0 0 0-.709.623L61.818 88.64l-26.91 5.986-10.666-7.47-2.101-17.007a155.2 155.2 0 0 1 1.392-.777c.663-.138 1.405-.29 2.227-.45l1.978 16.05a.891.891 0 0 0 .373.619l7.34 5.137a.868.868 0 0 0 .703.14l22.125-4.925a.886.886 0 0 0 .656-.604l3.987-13.121c1.067-.275 3.804-.914 6.213-.914 2.398 0 5.137.64 6.205.916l3.986 13.119a.89.89 0 0 0 .752.623l22.127 2.514a.886.886 0 0 0 .605-.157l7.342-5.132a.907.907 0 0 0 .37-.606zm4.99 4.078c1.08.587 2.19 1.217 2.518 1.492.33.266.583.96.291 4.194-.354 3.963-2.02 10.914-3.05 12.033-1.137.22-3.522-.044-4.977-.38.248-.999.322-1.48.523-2.499l2.545-1.78a.89.89 0 0 0 .371-.603zm-96.556 1.73 1.61 13.089a.888.888 0 0 0 .374.619l3.305 2.312c.126.45.257.902.397 1.346-1.37.402-4.157.788-5.416.566-1.047-1.053-2.997-8.3-3.424-12.146-.345-3.118-.103-3.79.215-4.053.368-.308 1.745-1.093 2.939-1.732zm48.223 1.782c.51 0 1.115.049 1.798.14l4.082 13.44c.103.34.396.585.748.625l1.899.215 26.078 2.967a.91.91 0 0 0 .611-.157l2.621-1.836 2.418-1.697.899-.629a52.65 52.65 0 0 1-.477 1.858c-1.248 3.995-2.718 7.535-4.355 10.658-.36.024-.744.039-1.15.039-1.263 0-2.552-.108-3.979-.236-2.475-.23-6.406-.677-7.645-.823-1.07-.85-4.727-3.757-7.769-6.152-.118-.097-.221-.186-.324-.27-.534-.454-1.142-.97-2.38-.97-1.12 0-2.755.411-6.712 1.607 2.058-1.536 2.07-3.523 2.07-3.523s-2.932 2.722-7.654 3.332c-4.721.605-8.428-2.295-8.428-2.295.156.504.374 1.644 1.444 2.615a34.338 34.338 0 0 0-4.04-.252c-.515 0-1.038.015-1.537.04-2.907.15-6.994 4.541-9.867 8.968a559.225 559.225 0 0 1-10.916 3.35c-4.76-6.597-7.104-13.337-7.34-14.036l.004-.003c-.097-.268-.195-.536-.281-.811l1.22.854v.007l3.026 2.118 1.01.7a.883.883 0 0 0 .512.163c.063 0 .13-.005.195-.018l27.797-6.191a.886.886 0 0 0 .656-.606l3.963-13.05a13.42 13.42 0 0 1 1.803-.141zm13.074 19.92c.225 0 .226 0 .603.322.12.1.252.21.397.328 3.586 2.82 8.023 6.354 8.068 6.387l.307.246.387.043c.052.007 5.115.602 8.107.877 1.497.133 2.85.25 4.227.25 2.316 0 4.11-.348 5.478-1.066a77.695 77.695 0 0 1 3.33-1.614 541.942 541.942 0 0 0-4.607 8.936c-1.83 3.664-5.28 4.467-7.8 5.049-.44.1-.857.194-1.231.3-1.892.53-5.796 1.466-9.24 2.29-.956.228-1.887.45-2.745.66a11.61 11.61 0 0 1-2.709.334c-2.55 0-4.779-.924-6.62-2.75a90.88 90.88 0 0 1-5.06-5.473l-1.021-1.215s-.29-.438-.484-.578l-.012-.01c-.003 0-.004 0-.004-.004-.126.133-.201.562-.201.562l-.621 1.653c-.014.036-.367.97-2.123 4.896-1.703 3.82-7.773 4.605-7.829 4.612-.352.043-.626.093-.974.152-1.027.18-2.936.518-10.348 1.355-.997.114-1.97.17-2.883.17-7.287 0-11.086-3.587-14.101-7.47-1.726-2.217-3.688-5.046-5.22-7.31 2.811 1.291 5.768 2.663 5.818 2.683l.462.215.49-.141a510.28 510.28 0 0 0 14.749-4.48l.472-.153.27-.422c4.139-6.548 7.375-8.086 7.951-8.115a27.17 27.17 0 0 1 1.398-.035c5.757 0 10.562 1.782 10.612 1.799l.441.166.451-.143c7.322-2.27 10.665-3.307 11.815-3.307zm-9.748 18.57a88.84 88.84 0 0 0 2.283 2.469 29.17 29.17 0 0 1-2.037.242c-.437.021-.9.068-1.32.067h-.155a253.5 253.5 0 0 0 1.229-2.778zm3.441 3.654.322.327c2.115 2.094 4.736 3.294 7.618 3.506a42.064 42.064 0 0 1-12.924 2.962c-3.506.236-7.062-.178-10.545-1.132.293-.054.506-.09.764-.12.285-.036 6.532-.852 9.345-5.037l.266.006.693-.006c.468 0 .892-.04 1.338-.056 1.064-.093 2.1-.243 3.123-.45z"/></svg>
