<svg xmlns="http://www.w3.org/2000/svg" viewBox="0 0 128 128"><path fill="#8c6432" d="M64.008.008a45.11 45.11 0 0 0-2.723.111C56.417.5 51.248 1.55 47.107 3c-3.064 1.073-6.47 2.647-7.847 3.625-.418.297-1.14.759-1.604 1.025-.868.5-2.165 1.4-4.115 2.86-1.596 1.195-5.438 4.684-6.195 5.625a84.743 84.743 0 0 1-1.672 1.978c-1.356 1.557-2.445 2.96-2.445 3.15 0 .085-.742 1.27-1.647 2.635-2.163 3.264-4.992 8.928-6.088 12.188-3.09 9.193-4.35 15.05-4.935 22.953-.3 4.035-.385 11.861-.168 15.273.106 1.671.263 4.265.35 5.764.219 3.803.616 4.615 2.257 4.615 1.37 0 1.959-.677 1.959-2.252 0-1.01.111-1.123 1.1-1.123.621 0 1.095.363 1.095.838 0 .675.871 3.25 1.62 4.787 1.68 3.453 4.593 5.646 8.12 6.114.928.123 1.773-.185 1.98-.721.115-.3.587-20.54.595-25.541.005-3.244-.016-3.292-1.557-3.26-2.36.049-4.446 1.124-6.803 3.504-1.05 1.06-1.508 1.68-2.005 2.72-.905 1.891-1.54 3.676-1.862 5.233-.151.734-.355 1.433-.455 1.553-.211.254-1.542.291-1.984.055-.259-.139-.324-.49-.424-2.323-.292-5.345-.036-14.699.516-18.865.84-6.344 2.833-14.119 5.04-19.66 2.1-5.27 6.083-11.82 9.788-16.092 4.418-5.096 10.725-9.488 17.219-11.992 1.113-.43 2.252-.891 2.53-1.025 1.218-.588 5.217-1.512 8.862-2.047 2.438-.358 10.022-.504 12.76-.246 3.949.371 9.445 1.46 10.765 2.134.288.147 1.157.494 1.93.77 5.563 1.985 10.84 5.36 14.918 9.539 2.125 2.178 3.51 3.804 3.928 4.613.168.325.702 1.16 1.187 1.856 1.866 2.677 3.484 5.793 5.172 9.957.635 1.565 1.994 5.82 1.994 6.242 0 .17.188 1.02.416 1.887 1.853 7.02 2.722 16.608 2.3 25.373-.323 6.67-1.353 15.405-1.893 16.056-.264.318-1.577.293-1.907-.037-.15-.15-.265-.55-.265-.922 0-1.19-.65-4.04-1.225-5.369-.804-1.859-2.062-3.803-2.973-4.592-1.136-.984-3.28-2.009-4.457-2.13-1.616-.167-1.431-.66-2.902 7.71-.236 1.346-1.188 6.317-2.115 11.047-.945 4.823-1.686 9.027-1.686 9.573 0 .908.032.991.502 1.234.277.143.904.372 1.393.51 1.255.353 3.292.226 4.71-.295 1.436-.527 3.019-1.66 4.384-3.137 1.264-1.368 2.589-3.883 3.384-6.426.694-2.219.823-2.455 1.38-2.52.716-.082.954.229.954 1.243 0 .79.06.942.52 1.328.798.672 1.815.615 2.662-.15.628-.568.666-.667 1.094-2.826 1.038-5.246 1.93-12.01 2.3-17.485.225-3.312.225-11.4 0-14.459-.483-6.597-1.683-13.344-3.406-19.154-1.311-4.424-3.522-9.436-5.695-12.91a80.226 80.226 0 0 1-1.52-2.531c-.704-1.252-1.122-1.8-3.463-4.538-2.218-2.594-5.423-5.474-8.12-7.298-1.08-.73-2.17-1.498-2.425-1.704-.678-.55-4.108-2.317-6.02-3.103C83.11 2.272 77.84.939 73.265.387c-2.33-.282-6.187-.425-9.258-.38zm-4.1 37.615c-2.275-.005-4.899.338-7.137.99-4.308 1.256-6.66 2.61-9.394 5.406-2.174 2.224-2.942 3.16-3.924 4.786-.384.636-.7 1.174-.7 1.197 0 .023-.445.811-.99 1.754-1.211 2.098-1.761 3.4-2.863 6.777-1.314 4.03-1.762 6.192-2.298 11.055-1.388 12.581-.233 27.512 2.681 34.685.238.587.434 1.162.434 1.278 0 .592 1.568 4.032 2.955 6.48.394.696.956 1.711 1.25 2.254 1.387 2.564 5.026 6.852 7.607 8.967 2.804 2.296 7.017 4.125 10.705 4.646.564.08 2.28.122 3.81.092 2.867-.055 3.31-.141 5.401-1.056 3.921-1.716 5.82-3.135 10.559-7.881 2.24-2.243 3.412-3.571 4.41-4.996 1.916-2.736 2.89-4.275 3.29-5.196.189-.437.837-1.82 1.44-3.074 1.271-2.64 2.915-6.531 2.915-6.9 0-.14.336-1.246.746-2.457 1.445-4.269 2.985-11.23 3.472-15.703.684-6.27.854-8.154 1.02-11.268.372-7-.35-12.69-2.025-15.988-.525-1.032-1.225-2.19-3.018-4.98-1.165-1.815-5.297-5.86-7.367-7.212-2.985-1.95-4.99-2.61-8.608-2.834-5.207-.321-6.834-.183-6.834.574 0 .117.34.865.758 1.663.882 1.684 1.433 4.098 1.8 7.894.293 3.015.294 17.383.003 19.998-1.204 10.813-2.023 14.654-4.418 20.695-.371.937-.676 1.777-.676 1.868 0 .09-.486 1.276-1.08 2.638-.748 1.713-1.141 2.867-1.277 3.743-.274 1.76-.476 7.971-.405 12.404.077 4.777-.178 4.137-.455-1.145-.214-4.083-.136-8.531.188-10.832.24-1.702 1.148-4.721 2.11-7.01.409-.974.853-2.113.985-2.53.134-.418.509-1.486.835-2.374.92-2.511 2.145-8.455 2.935-14.25.259-1.895.297-3.447.28-11.392-.02-9.172-.157-12.319-.663-15.233-.77-4.437-2.093-6.367-4.894-7.138-.957-.264-2.198-.392-3.563-.395z"/></svg>
