<svg xmlns="http://www.w3.org/2000/svg" viewBox="0 0 128 128"><path fill="#8c6432" d="M12.703 49.309c-2.595-.003-4.738.62-6.766 1.966C3.551 52.86 1.89 55.22.891 58.432.177 60.729.006 61.993 0 65.035c-.005 2.725.07 3.496.353 3.682.237.154.669-.151.669-.473 0-.577.448-.207.716.59.177.526.439.941.785 1.242.497.431 1.437.748 1.635.551.051-.051.114-1.573.139-3.383l.045-3.29h-.485c-.918 0-1.803.908-2.203 2.26-.176.596-.286.755-.521.755-.293 0-.295-.041-.217-2.621.104-3.454.543-5.45 1.713-7.79 1.253-2.504 2.763-4.045 5.068-5.173 1.776-.87 2.903-1.114 5.098-1.106 2.153.008 3.482.313 5.148 1.18 2.705 1.407 4.47 3.921 5.358 7.625.29 1.207.323 1.705.316 4.654-.008 3.509-.125 4.563-.511 4.637-.176.034-.259-.11-.334-.574-.169-1.032-.744-1.935-1.452-2.278-.341-.165-.683-.262-.76-.214-.076.047-.182.392-.236.765-.053.374-.317 1.772-.584 3.108-.561 2.809-.57 2.912-.234 3 1.255.328 2.452-.49 3.008-2.053.257-.724.619-.973.619-.428 0 .377.391.527.664.254.269-.269.57-1.994.785-4.482.273-3.162-.191-6.703-1.195-9.117-1.937-4.657-5.555-7.043-10.684-7.047zm51.238 1.47c-.241.007-.413.156-.873.633-.758.786-1.718 2.383-4.015 6.674-2.124 3.968-3.546 6.334-6.03 10.027-1.143 1.7-2.204 3.374-2.359 3.719-.279.622-.278.633-.002 1.006.424.572 1.186 1.04 1.533.941.502-.142.984-.779 2.225-2.941 1.422-2.478 2.029-3.411 2.281-3.508.103-.04.345.032.537.158.429.281.711.245 3.225-.416 2.274-.597 5.379-1.145 6.14-1.082l.538.045 1.363 2.729c.75 1.5 1.548 3.014 1.775 3.363.591.91 1.672 2.03 2.174 2.254.542.242 1.042.136 1.53-.328.784-.746.638-1.428-.579-2.703-1.032-1.083-1.527-1.804-2.517-3.682-.98-1.857-1.837-3.94-3.213-7.807-2.267-6.37-2.227-6.241-2.242-7.379-.014-.958-.049-1.084-.373-1.316a2.617 2.617 0 0 0-.84-.354 1.242 1.242 0 0 0-.278-.033zm62.948.055c-.594-.004-1.426.613-1.631 1.28-.182.59-.768 4.051-1.13 6.67-1.327 9.636-1.418 10.57-1.224 12.423.157 1.493.355 2.016.87 2.3.428.238.908.16 1.466-.238.575-.409.706-1.056.53-2.615-.39-3.444.264-9.602 1.597-15.04.47-1.92.68-3.043.623-3.343-.136-.72-.46-1.242-.865-1.396a.673.673 0 0 0-.236-.041zm-93.45.127c-.39.077-.84.388-1.033.762-.434.838-1.067 5.486-1.883 13.81-.205 2.093-.525 4.695-.713 5.785-.392 2.28-.331 2.73.413 3.053.246.107.46.198.476.201a2.94 2.94 0 0 0 .393-.16c.756-.345 1.138-1.656 1.37-4.725.222-2.904.597-4.117 1.39-4.478.318-.145.488-.104 1.295.314.51.265 1.91 1.225 3.109 2.131 6.65 5.031 7.67 5.696 9.17 5.975.99.184 1.9-.433 2.133-1.445.209-.908.118-.999-1.102-1.102-1.825-.154-2.779-.719-8.057-4.771-1.798-1.382-3.389-2.593-3.535-2.69-.24-.16-.134-.287 1.15-1.389 5.482-4.701 7.677-6.868 8.258-8.15.263-.578.263-.636.036-1.115a2.315 2.315 0 0 0-1.229-1.112c-.398-.143-.8.277-1.72 1.801-.784 1.297-1.242 1.818-3.965 4.518-3.436 3.405-5.965 5.473-6.044 4.941-.145-.988.64-6.873 1.26-9.445.388-1.607.148-2.41-.81-2.701a.753.753 0 0 0-.361-.008zm47.887 0c-.159.004-.331.035-.517.094-.945.299-1.036.612-1.463 5.072-.585 6.107-1.485 13.462-1.873 15.312-.28 1.33.023 2.225.867 2.575.36.15.8.069 2.512-.453 3.264-.996 5.955-1.349 9.513-1.247 2.404.07 2.597.057 3.164-.23.82-.413 1.2-1.167.96-1.895-.244-.736-.638-.872-1.907-.66-.568.096-1.937.236-3.043.31-2.734.187-3.441.262-5.553.593-1 .157-2.163.266-2.584.242l-.765-.045-.043-.94c-.064-1.435.846-9.029 2-16.705.107-.71.085-.918-.133-1.293-.294-.505-.657-.742-1.135-.73zm27.172.176c-.728.019-1.575.063-2.586.127-1.977.124-4.254.194-5.059.156-1.83-.088-2.346.13-2.78 1.174-.2.48.135.938.98 1.342.639.305.683.363.724.943.025.34-.086 1.438-.248 2.441-.434 2.699-.98 7.466-1.226 10.725-.222 2.934-.347 3.636-.8 4.525-.22.434-.23.57-.073.942.1.239.394.613.652.83.596.502.918.441 2.66-.494 1.002-.539 1.854-.844 3.738-1.34 2.72-.716 4.24-1.244 5.989-2.08 4.045-1.934 7.041-5.137 7.937-8.488.322-1.205.332-3.361.02-4.551-.705-2.688-2.668-4.777-5.371-5.717-1.255-.436-2.372-.593-4.557-.535zm-.1 2.197c1.17.013 2.189.086 2.737.215 1.944.458 3.652 1.75 4.4 3.326.322.679.409 1.094.465 2.246.082 1.685-.102 2.655-.766 4.043-.933 1.953-2.924 3.864-5.343 5.129-1.527.798-2.69 1.22-5.444 1.975-2.265.62-3.404.732-3.55.35-.164-.427-.089-3.786.134-5.981.218-2.147 1.278-9.864 1.447-10.54.1-.397.173-.416 2.28-.619 1.15-.11 2.471-.157 3.64-.144zm-45.048 1.43c.105 0 2.854 8.086 2.9 8.529.025.244-.246.326-2.484.756-1.382.265-3.127.575-3.877.69-.75.113-1.516.252-1.702.306l-.337.098.25-.487c.137-.268 1.139-2.167 2.226-4.22 1.087-2.054 2.19-4.17 2.451-4.704.262-.533.52-.968.573-.968zm-52.202 3.25c-3.096.058-5.375 2.63-5.959 6.728-.217 1.53-.18 5.163.067 6.584.662 3.798 2.853 6.729 5.435 7.274 1.46.308 2.86-.165 4.305-1.453 1.516-1.352 2.565-3.078 3.389-5.577.542-1.645.82-3.153 1.011-5.463.269-3.24-.097-4.61-1.695-6.341-1.03-1.117-1.907-1.524-3.398-1.582-.715-.028-1.137.008-1.118.097.018.08.14.434.27.79.367.995.441 4.62.14 6.964-.222 1.735-.534 2.863-1.427 5.168-.163.42-.23 1.194-.25 2.873l-.025 2.297-.131-1.652c-.159-2.007-.001-3.281.588-4.752.8-1.998 1.05-3.708 1.033-7.022-.024-4.46-.256-4.97-2.235-4.933z"/></svg>
