<svg xmlns="http://www.w3.org/2000/svg" viewBox="0 0 128 128"><path fill="#8c6432" d="M58.2349 127.8993c-3.688-.5217-7.9022-2.351-10.7057-4.647-2.5818-2.1145-6.2208-6.404-7.6075-8.9677-.2937-.5428-.8564-1.5565-1.2506-2.2526-1.3865-2.4486-2.9548-5.8885-2.9548-6.4812 0-.1162-.195-.6912-.4333-1.2777-2.9147-7.1732-4.0692-22.1049-2.682-34.686.5363-4.8631.986-7.0242 2.3002-11.0543 1.1014-3.3774 1.651-4.6783 2.863-6.776.5445-.9424.99-1.7321.99-1.755 0-.0229.3144-.562.6987-1.198.9824-1.6258 1.7497-2.5615 3.9238-4.785 2.7345-2.7966 5.087-4.15 9.3957-5.4058 3.5808-1.0435 8.1467-1.2976 10.6982-.5952 2.8012.771 4.1247 2.7014 4.8946 7.1386.5056 2.9142.6425 6.061.6625 15.2328.0174 7.9452-.0206 9.4966-.2791 11.3918-.7905 5.7948-2.015 11.7385-2.9357 14.2497-.3256.888-.7007 1.9562-.8336 2.3739-.133.4177-.5768 1.5568-.9863 2.5315-.9615 2.288-1.8705 5.3072-2.1104 7.0094-.3242 2.3002-.401 6.7476-.187 10.831.2767 5.2818.5307 5.923.4539 1.1459-.0713-4.4329.1318-10.6442.4055-12.4044.1362-.8757.5299-2.029 1.2774-3.742.5944-1.362 1.0806-2.55 1.0806-2.6402 0-.0901.3036-.9298.6747-1.866 2.3947-6.0412 3.2149-9.8825 4.4186-20.6954.2911-2.6151.2887-16.984-.0033-19.9989-.3678-3.7964-.9176-6.2087-1.7992-7.8935-.4176-.798-.7592-1.5466-.7592-1.6634 0-.758 1.6273-.8943 6.835-.5727 3.6175.2234 5.6223.8835 8.607 2.8339 2.07 1.3525 6.2026 5.3975 7.3678 7.2114 1.7929 2.791 2.4934 3.9469 3.0177 4.9786 1.6763 3.299 2.3972 8.9904 2.0252 15.9897-.1655 3.1145-.3358 4.9964-1.0193 11.2662-.4876 4.4731-2.0273 11.436-3.4727 15.7042-.4103 1.2116-.746 2.317-.746 2.4564 0 .3688-1.6439 4.2612-2.9147 6.9013-.6032 1.253-1.2518 2.6362-1.4414 3.0736-.399.9206-1.3738 2.46-3.2901 5.196-.9982 1.425-2.1697 2.7525-4.4089 4.9953-4.738 4.7458-6.6387 6.1642-10.5596 7.8803-2.0916.9154-2.5341 1.002-5.4006 1.0575-1.5316.0297-3.2457-.0113-3.8091-.091z"/><path fill="#505050" d="M96.1738 99.7987c-.4892-.1377-1.1157-.3673-1.3924-.5104-.4698-.243-.5029-.3241-.5029-1.2327 0-.5454.7405-4.7507 1.6856-9.5732.9271-4.7303 1.8792-9.7018 2.1157-11.0477 1.4708-8.3698 1.2856-7.8777 2.9017-7.711 1.1768.1215 3.3216 1.1471 4.458 2.1317.91.7885 2.1681 2.7321 2.9718 4.5912.5746 1.3288 1.225 4.1803 1.225 5.37 0 .3723.115.772.2652.9222.3293.3293 1.644.3552 1.9077.0375.5402-.651 1.5693-9.3886 1.8911-16.0583.423-8.7646-.4453-18.3513-2.298-25.3723-.2287-.8669-.4159-1.7157-.4159-1.8864 0-.4211-1.359-4.676-1.9937-6.2416-1.6879-4.1639-3.307-7.2804-5.1728-9.9572-.4853-.6962-1.0195-1.5316-1.1872-1.8565-.4175-.8087-1.802-2.435-3.9271-4.613-4.0778-4.1793-9.3568-7.5547-14.9194-9.5397-.7732-.2759-1.6414-.622-1.9294-.769-1.3203-.6739-6.8152-1.7638-10.7644-2.1351-2.7376-.2574-10.3236-.1103-12.7613.2474-3.6447.535-7.6429 1.458-8.8603 2.0458-.2784.1345-1.4176.596-2.5315 1.0256-6.4932 2.5045-12.8001 6.8974-17.2188 11.9931-3.7046 4.2722-7.6874 10.8202-9.787 16.0901-2.2074 5.541-4.2014 13.3172-5.0416 19.6614-.5517 4.166-.8067 13.5203-.5143 18.8656.1002 1.8325.1639 2.1821.4225 2.3205.4419.2365 1.7736.1998 1.9848-.0547.0994-.1197.3046-.8176.456-1.5508.3216-1.5567.9569-3.3425 1.8616-5.2329.4977-1.0399.9556-1.6614 2.0053-2.7218 2.356-2.38 4.442-3.4543 6.8017-3.5028 1.541-.0317 1.5634.0153 1.5582 3.2588-.0081 5.001-.4801 25.2419-.5957 25.5422-.2063.536-1.051.8437-1.9788.7206-3.5277-.468-6.4412-2.6612-8.1217-6.114-.7484-1.5378-1.6196-4.113-1.6196-4.788 0-.475-.4735-.837-1.0952-.837-.9883 0-1.0987.113-1.0987 1.1235 0 1.5742-.59 2.2519-1.9602 2.2519-1.641 0-2.0387-.813-2.2583-4.6156-.0865-1.4992-.244-4.0928-.3498-5.7636-.2161-3.4124-.1292-11.2387.1698-15.2734.5856-7.9036 1.8443-13.7588 4.9343-22.9523 1.0957-3.26 3.925-8.924 6.0879-12.1876.9052-1.3659 1.6459-2.552 1.6459-2.636 0-.1898 1.0897-1.5935 2.4457-3.1501.566-.6498 1.3182-1.5404 1.6717-1.9793.7575-.9406 4.6005-4.428 6.1966-5.6232 1.9502-1.4604 3.247-2.3618 4.1155-2.8608.4642-.2666 1.1856-.7276 1.6033-1.0246 1.3764-.9785 4.783-2.5525 7.8477-3.626 4.1405-1.4504 9.308-2.5 14.1764-2.8793 3.0533-.2378 8.8752-.108 11.9803.2672 4.574.5527 9.8462 1.8842 13.6472 3.4466 1.9133.7864 5.3417 2.554 6.0206 3.104.2542.2058 1.3457.972 2.4257 1.7024 2.698 1.825 5.9022 4.705 8.1206 7.2991 2.341 2.7374 2.7587 3.2846 3.4628 4.5366.3132.557.9968 1.6961 1.5192 2.5315 2.1728 3.4747 4.3839 8.4869 5.6955 12.9107 1.7227 5.8101 2.9226 12.558 3.4062 19.155.2241 3.058.2236 11.1467-.0009 14.4584-.3711 5.4747-1.2606 12.238-2.2993 17.4833-.4277 2.1596-.4664 2.2595-1.0944 2.8269-.8467.765-1.8643.8228-2.6623.1513-.4593-.3865-.5193-.54-.5193-1.3295 0-1.0144-.2385-1.3245-.9548-1.2414-.5565.0645-.686.3011-1.3802 2.5203-.7953 2.5428-2.1195 5.0569-3.3842 6.4253-1.3648 1.477-2.9464 2.6086-4.382 3.1357-1.4191.521-3.4562.6487-4.7114.2954z"/></svg>
