<svg xmlns="http://www.w3.org/2000/svg" viewBox="0 0 128 128"><path fill="#8c6432" d="M63.9992.0086c-1.023.0154-1.9595.0522-2.7325.1124-4.8744.3798-10.0343 1.4267-14.1936 2.8837-3.0753 1.0772-6.4327 2.6114-7.9088 3.6608-.3925.279-1.1138.7403-1.5523.9922-.9004.5173-2.1905 1.4164-4.1317 2.8701-.8244.6174-2.1708 1.7781-3.4224 2.9147-1.2517 1.1366-2.3691 2.1996-2.814 2.7519-.3404.4227-1.09 1.3098-1.6472 1.9496-.678.7783-1.2898 1.5175-1.7364 2.093-.2233.2877-.4039.5337-.5368.7306-.0665.0984-.1218.183-.1667.2655-.045.0825-.1085.1016-.1085.3624 0-.1774.0262-.156.029-.1628.003-.0068-.0003.003-.0077.0174a3.8189 3.8189 0 0 1-.0833.1493 21.465 21.465 0 0 1-.343.5639c-.2927.4683-.6983 1.0987-1.1453 1.7732-2.1821 3.2925-4.9847 8.8925-6.0988 12.2072-3.0732 9.1438-4.3369 15.0204-4.9204 22.897-.2996 4.0435-.3847 11.7807-.1667 15.2225.105 1.6565.2592 4.2311.345 5.717.1097 1.9018.2412 3.0752.6414 3.8934.2001.409.4964.7318.8663.9166.37.1848.7806.2364 1.2286.2364.7617 0 1.425-.2053 1.8566-.7015.4315-.4962.5833-1.1862.5833-2.029 0-.2416.0088-.4168.0252-.5136.0164-.0967.0311-.0915.0116-.0717-.0194.0198-.0313.0083.0601-.0077.0915-.0161.2623-.0252.498-.0252.212 0 .3786.0655.473.1376.0942.0721.1182.127.1182.1977 0 .274.0658.5599.1627.934.097.3742.2303.8139.3876 1.2791.3147.9305.7207 1.961 1.1066 2.7539 1.73 3.5544 4.7725 5.8547 8.4379 6.341.5331.0707 1.0466.0225 1.4864-.1377.4397-.1601.8334-.4434 1.0058-.8914.0411-.107.0292-.1125.033-.1395a1.6173 1.6173 0 0 0 .0096-.0795 6.5872 6.5872 0 0 0 .0155-.2093c.01-.1704.021-.4062.033-.7015.0239-.5907.0512-1.4185.0813-2.4206.0603-2.004.1295-4.6987.1958-7.5386.1324-5.6797.2517-11.9363.2558-14.432.0026-1.6101.0585-2.4115-.2461-3.0503-.1524-.3194-.4794-.5547-.7946-.6279-.3152-.0731-.6248-.0602-1.0097-.0523-2.486.0511-4.7046 1.2114-7.0929 3.624-1.0588 1.0696-1.5733 1.7637-2.0852 2.8333-.9112 1.9038-1.5556 3.7083-1.8856 5.306-.0726.3512-.1576.6965-.2345.9594a4.5797 4.5797 0 0 1-.1047.3178c-.0282.0748-.0814.1373-.0077.0484.1075-.1294.0562-.0469-.06-.0213-.1164.0256-.2901.0454-.471.0504-.348.0096-.7357-.0736-.7907-.093-.0092-.0226-.0254-.061-.0465-.1763-.0505-.2765-.0939-.8159-.1434-1.721-.2876-5.2563-.0296-14.568.5077-18.6256.8272-6.246 2.8016-13.9442 4.9709-19.3893 2.0556-5.1599 5.9972-11.643 9.6238-15.8253 4.3238-4.9862 10.5276-9.3077 16.8893-11.7615 1.1105-.4283 2.1953-.8624 2.5484-1.0329.5041-.2434 1.809-.6348 3.3895-1 1.5805-.3651 3.4663-.7252 5.2596-.9883 2.2916-.3363 9.9285-.4861 12.5424-.2403 1.9356.182 4.2682.543 6.2693.9399 2.0011.3967 3.7313.8691 4.2345 1.126.3642.1858 1.1925.5102 1.9728.7887 5.4453 1.943 10.6242 5.2556 14.6141 9.3448 2.0977 2.1499 3.4786 3.8114 3.812 4.4573.2046.3965.721 1.1941 1.2112 1.8972 1.825 2.6182 3.4137 5.6737 5.0794 9.7828.3023.746.7976 2.1936 1.2112 3.4883.2068.6474.395 1.2579.529 1.7287.067.2354.1216.4379.157.5853.0354.1473.0446.2866.0446.2054 0 .133.018.2053.0407.3314.0227.126.0547.2776.093.4515.0767.3478.1794.7787.2946 1.2151 1.8196 6.8957 2.6827 16.3803 2.2655 25.0267-.159 3.294-.4936 7.1075-.8547 10.1704-.1805 1.5315-.3671 2.8765-.5407 3.8682-.0868.4958-.1716.905-.246 1.1957-.0746.2907-.2045.5043-.1222.405.066-.0794.024-.0191-.0872.006-.1112.025-.2753.04-.4418.0367-.1665-.0033-.338-.0246-.4632-.0562-.1251-.0315-.1993-.0907-.1667-.058.036.0359-.0285-.0447-.062-.161a1.559 1.559 0 0 1-.0562-.403c0-1.3612-.6372-4.0945-1.2558-5.5251-.8223-1.9022-2.0425-3.8341-3.0794-4.7325-1.2321-1.0676-3.3076-2.091-4.6976-2.2345-.3751-.0387-.6877-.1346-1.0968-.0271-.2046.0537-.413.1838-.562.3585-.149.1747-.2527.3822-.3489.6376-.3846 1.0215-.6815 2.9404-1.4108 7.091-.2315 1.317-1.1773 6.2593-2.0969 10.9514-.4694 2.3952-.8882 4.6356-1.1899 6.3487-.1508.8565-.2721 1.582-.3566 2.1298-.0844.5478-.1356.8668-.1356 1.1143 0 .4566-.0157.7353.1104 1.0465.1262.3112.4057.4892.655.6182.3542.1832.9597.3971 1.4768.5427 1.41.3968 3.451.2565 4.9786-.3043 1.5297-.5616 3.1444-1.7274 4.5426-3.2403 1.3432-1.4534 2.6588-3.9819 3.467-6.5658.3432-1.0974.5568-1.7038.6976-1.9612.0704-.1286.107-.1555.1182-.1627.0112-.0072.0298-.0188.1357-.031.1394-.0162.2277-.0054.2616.0038.034.0091.0187 0 .0291.0136.0207.027.1047.2585.1047.7229 0 .4043.005.6953.1201.9903.1155.2949.3275.5018.5717.7073.9614.809 2.3168.7225 3.2945-.1608.3186-.2878.5768-.5604.7461-.998.1694-.4378.2799-1.0048.4923-2.0776 1.036-5.2313 1.9206-11.9544 2.2906-17.4125.2265-3.3404.2271-11.3187 0-14.4164-.4823-6.581-1.678-13.305-3.3991-19.1102-1.3156-4.4372-3.516-9.4307-5.7054-12.932-.514-.822-1.195-1.9547-1.496-2.4902-.7095-1.2615-1.1653-1.8626-3.4903-4.5814-2.2368-2.6155-5.4322-5.487-8.1588-7.3313-1.0666-.7214-2.189-1.5179-2.3703-1.6648-.4523-.3664-1.4303-.8985-2.6123-1.5077-1.182-.6091-2.5127-1.245-3.4864-1.6453C83.0923 2.268 77.8405.9428 73.2529.3885c-2.3555-.2847-6.1848-.4261-9.2537-.3799Zm.0155.9922c3.0255-.0455 6.8522.0983 9.118.3721 4.4892.5425 9.6986 1.861 13.4126 3.3876.9248.3801 2.2446 1.0095 3.407 1.6085 1.1623.599 2.2224 1.218 2.4437 1.3972.323.2617 1.3632.9868 2.44 1.7151 2.6273 1.7772 5.7914 4.6206 7.9571 7.153 2.3205 2.7134 2.694 3.1994 3.3818 4.4224.3203.5697.9967 1.6972 1.5193 2.533 2.1224 3.3941 4.3096 8.346 5.5968 12.6877 1.6974 5.7248 2.8832 12.3901 3.3605 18.9009.2177 2.9705.219 11.0453 0 14.2769-.3665 5.4062-1.2498 12.1067-2.2752 17.2846-.212 1.07-.3324 1.6248-.4438 1.9128-.1114.288-.1837.3449-.4884.6201-.7025.6347-1.366.6613-1.9883.1376-.2115-.178-.2585-.2378-.2868-.31-.0283-.0724-.0523-.249-.0523-.628 0-.5422-.0347-.9693-.3101-1.3275-.1377-.179-.3458-.3113-.5562-.3682-.2104-.0569-.4177-.0541-.6337-.029-.1702.0197-.3744.0606-.564.184-.1894.1235-.331.3044-.4476.5175-.2331.4261-.4278 1.0389-.7733 2.1434-.77 2.4621-2.0835 4.9237-3.25 6.186-1.3103 1.4178-2.8355 2.5-4.1549 2.9844-1.2883.473-3.2892.5852-4.37.281-.4537-.1277-1.092-.3683-1.2869-.469-.2167-.1121-.1855-.095-.1918-.1105s-.0388-.2295-.0388-.6744c0-.023.0414-.427.124-.9632.0827-.536.2027-1.2563.3528-2.1084.3-1.7043.7176-3.9415 1.186-6.3313.9202-4.695 1.8628-9.617 2.1007-10.9708.73-4.1542 1.0728-6.1435 1.3624-6.9127.0724-.1923.139-.2991.1764-.343.0374-.0439.0315-.0357.0581-.0426.053-.014.3175.0121.7442.0562.9453.0975 3.1243 1.1078 4.1472 1.9941.769.6664 2.047 2.5927 2.8197 4.3798.5216 1.2064 1.1744 4.13 1.1744 5.1298 0 .2359.034.4668.095.6782.061.2115.129.4022.314.5872.196.196.4066.2626.626.3179.2192.0552.4532.0826.686.0872.2328.0046.4614-.0133.6783-.062.2168-.0488.437-.104.6337-.3411.2163-.2607.2344-.458.3197-.7907.0852-.3328.1722-.7603.2616-1.2713.179-1.022.3684-2.3789.5504-3.9224.364-3.0871.7-6.9162.8605-10.2402.422-8.7466-.4396-18.288-2.2965-25.3251a30.8787 30.8787 0 0 1-.2868-1.1764 11.4103 11.4103 0 0 1-.0852-.4147c-.0192-.1065-.0252-.2034-.0252-.155 0-.1857-.0328-.2684-.0736-.438a16.1772 16.1772 0 0 0-.1667-.624c-.1386-.487-.3276-1.105-.5368-1.7597-.4183-1.3093-.911-2.7507-1.2383-3.558-1.6839-4.154-3.3063-7.2829-5.184-9.9767-.473-.6784-1.0173-1.5367-1.1454-1.7848-.4951-.959-1.863-2.5253-3.9826-4.6976-4.1024-4.2044-9.3967-7.5892-14.9901-9.5851-.7541-.2691-1.6493-.6326-1.8566-.7384-.8069-.4119-2.4575-.814-4.4902-1.217-2.0328-.403-4.3872-.767-6.3701-.9535-2.8187-.265-10.233-.1256-12.7789.248-1.823.2676-3.7294.63-5.339 1.002-1.6097.3718-2.893.7319-3.5969 1.0717-.1995.0963-1.3748.5776-2.4747 1.0019-6.5238 2.5163-12.8357 6.9105-17.2808 12.0366-3.7248 4.2956-7.6876 10.8101-9.7983 16.1083-2.2113 5.5508-4.1927 13.2818-5.0328 19.6256-.5575 4.2097-.8083 13.4608-.5155 18.8118.05.9132.0882 1.4582.1589 1.8449.0353.1933.0792.352.1628.5058.0835.1538.227.2929.3604.3643.4114.2202.857.2259 1.3178.2132.2304-.0063.453-.0287.657-.0736.204-.045.3982-.0602.6105-.316.123-.1481.1303-.2178.1724-.3294a5.432 5.432 0 0 0 .128-.3895c.0866-.296.178-.6604.2558-1.0368.308-1.4915.9239-3.23 1.808-5.0774.4758-.9942.8711-1.5312 1.8954-2.5659 2.2873-2.3106 4.21-3.2842 6.4069-3.3294.3796-.0078.6469-.0004.7654.0271.1186.0275.0807-.0017.124.0892.0867.1817.1519 1.014.1493 2.622-.004 2.4666-.1234 8.7321-.2558 14.4087-.0662 2.8383-.1356 5.5306-.1957 7.5309-.03 1.0001-.0578 1.8287-.0814 2.4127a44.165 44.165 0 0 1-.031.6822c-.0038.063-.0086.104-.0117.1415-.0383.0844-.153.2131-.403.3042-.2606.095-.6262.1367-1.0136.0853-3.3354-.4425-6.0733-2.4932-7.6782-5.7906-.3568-.733-.7552-1.742-1.0581-2.6376-.1515-.4478-.28-.8684-.3682-1.2092-.0883-.3408-.1299-.6253-.1299-.686 0-.4008-.2126-.7608-.5077-.9865-.295-.2257-.6706-.341-1.0756-.341-.2545 0-.4655.0045-.6705.0406-.205.0362-.4273.1157-.5969.2888-.1696.173-.246.3946-.281.6007-.035.2062-.0388.4205-.0388.6803 0 .7191-.1406 1.1474-.341 1.3779-.2005.2304-.5086.3604-1.1066.3604-.3661 0-.6162-.0475-.7849-.1318-.1687-.0843-.2894-.201-.4186-.465-.2584-.5283-.4326-1.6441-.5407-3.5155-.086-1.4892-.2437-4.0617-.3488-5.7209-.211-3.33-.127-11.1238.1667-15.087.5785-7.8078 1.8153-13.5523 4.874-22.6527 1.0602-3.1547 3.8722-8.7945 5.9824-11.9785.4511-.6807.8612-1.3153 1.1608-1.7945.1498-.2396.2725-.4395.3605-.591a4.332 4.332 0 0 0 .1085-.1958 1.1265 1.1265 0 0 0 .0407-.0872c.014-.034.0465-.0313.0465-.219 0 .2137-.031.1481-.0116.1124a2.5807 2.5807 0 0 1 .1163-.186c.1117-.1656.2848-.3993.5-.6764.4301-.5543 1.0321-1.2842 1.6995-2.0504.566-.6496 1.3096-1.5285 1.6705-1.9767.3069-.381 1.4712-1.5171 2.7093-2.6414 1.2381-1.1243 2.5895-2.286 3.3488-2.8546 1.929-1.4445 3.2115-2.3313 4.0348-2.8042.4825-.2772 1.1934-.7324 1.6298-1.0427 1.2553-.8923 4.6583-2.4797 7.6646-3.5328 4.0573-1.4213 9.1547-2.4604 13.9417-2.8333.7417-.0578 1.662-.0934 2.6705-.1086zM59.941 37.3317c-2.3084-.0054-4.947.3387-7.2228 1.0019-4.3206 1.2591-6.78 2.6748-9.5366 5.494-2.165 2.2143-2.9728 3.2003-3.9631 4.8392-.1917.3172-.3666.609-.4942.8275a15.371 15.371 0 0 0-.1531.2674 3.0957 3.0957 0 0 0-.0485.0891c-.0069.0136-.0143.0265-.0232.0466-.0022.005-.005.0146-.0077.0213-.0011.0022-.0013.0007-.004.0059a5.8314 5.8314 0 0 1-.0522.0969c-.048.0876-.119.2174-.2074.374-.1769.3132-.4224.741-.6919 1.2073-1.2145 2.1022-1.7854 3.458-2.8817 6.8197-1.31 4.0169-1.7687 6.2283-2.3023 11.0676-1.3845 12.5558-.2715 27.359 2.6938 34.6565.1147.2824.2187.5651.2926.783.037.1088.0674.2008.0853.2654.0179.0646.0155.143.0155.033 0 .1828.0382.3108.0891.4844.051.1736.1207.3745.2074.6027.1734.4563.414 1.0214.6976 1.6434.5673 1.2439 1.3045 2.712 2.002 3.9437.3889.6869.948 1.6955 1.2364 2.2287 1.4386 2.6594 5.031 6.8828 7.6704 9.0444 2.8703 2.3508 7.0995 4.1841 10.8661 4.717.6735.0953 2.3245.1267 3.8604.0969 2.8531-.0553 3.46-.1751 5.5484-1.0891 3.9286-1.7195 5.9146-3.2035 10.6277-7.9243 2.2298-2.2335 3.42-3.5783 4.4321-5.0232 1.9063-2.7216 2.8791-4.2436 3.312-5.2422.1757-.4054.8255-1.7929 1.4224-3.0329.6356-1.3203 1.3599-2.9446 1.9283-4.2906.2842-.673.5293-1.2765.7054-1.7403.088-.2319.1579-.428.2093-.5872.0514-.1593.0969-.2138.0969-.4438 0 .0823-.0034.043.0039.0097a3.9173 3.9173 0 0 1 .0388-.153c.0351-.132.087-.3155.153-.533.1322-.435.3155-1.0061.5175-1.6027 1.4524-4.289 2.979-11.1907 3.469-15.6858.6783-6.2229.8508-8.1094 1.0154-11.2072.3717-6.993-.3222-12.6885-2.064-16.116-.533-1.0492-1.2383-2.212-3.0192-4.9845-1.2632-1.9664-5.2755-5.8777-7.4554-7.3022-3.0038-1.9628-5.1427-2.6686-8.7808-2.8933-2.5912-.16-4.293-.2076-5.4011-.1144-.554.0467-.961.1187-1.2965.283-.3355.1642-.6104.5318-.6104.8972 0 .135.021.1655.0368.2171.0157.0516.0343.1006.0562.157.0438.1127.1018.2481.1724.403.1413.31.3317.6995.5427 1.1028.8239 1.5745 1.3702 3.9113 1.7325 7.651.1448 1.4953.0098 5.8986.002 10.3894-.0336-7.82-.1689-11.1702-.6454-13.9165-.388-2.2366-.917-3.8829-1.7519-5.1007-.835-1.2178-1.9886-1.9706-3.4612-2.376-1.0155-.2795-2.2798-.4056-3.6647-.4088zm-.0039.9922c1.3243.0031 2.5218.1309 3.405.374 1.3068.3598 2.1995.9468 2.907 1.9787.7074 1.0318 1.217 2.545 1.593 4.7111.4939 2.8472.6292 5.935.6491 15.0308.0173 7.8818-.0207 9.3833-.2732 11.2343-.7812 5.7268-2.0102 11.649-2.8856 14.0366-.3248.886-.6956 1.935-.8353 2.374-.1142.3587-.5607 1.513-.9632 2.471-.971 2.311-1.875 5.2974-2.1259 7.0773-.3325 2.3592-.4055 6.7662-.1918 10.8429.0688 1.3136.1377 2.3405.1996 3.0716.031.3656.0588.6564.0872.878.0284.2215.0305.3283.1066.5193.019.0477.0156.112.1686.2325a.4945.4945 0 0 0 .0678.0465c.0266.0148.0924.0386.093.0388.0013.0004.2352.0177.2364.0175.0007 0 .1118-.0326.1124-.0329.0007-.0002.0623-.0297.0873-.0465a.4956.4956 0 0 0 .1065-.0988c.0978-.1176.0977-.1675.1105-.2131a.9677.9677 0 0 0 .0252-.1202c.0236-.1513.0337-.3357.0426-.6066.0179-.5417.0192-1.394 0-2.5833-.0352-2.1879-.0033-4.8227.0717-7.1239.075-2.3012.1986-4.2966.3237-5.1007.123-.7907.4979-1.9076 1.2325-3.591.2962-.6787.5654-1.3131.7616-1.7926a24.146 24.146 0 0 0 .2345-.591 5.0085 5.0085 0 0 0 .0698-.1939c.009-.0275.0174-.0519.0252-.0814.0078-.0294.0213-.04.0213-.157 0 .1286-.0093.0822-.004.062a2.9135 2.9135 0 0 1 .033-.1065c.0311-.096.078-.2326.1376-.3973.1193-.3293.2865-.7683.469-1.2286 2.3884-6.0252 3.219-9.922 4.4147-20.6625.311-2.7936.3043-16.8035 0-19.9454-.3676-3.7943-.9155-6.2466-1.841-8.0154-.2034-.3886-.3883-.7646-.5195-1.0523-.0655-.1439-.1186-.2672-.1511-.3508-.0032-.008-.0031-.01-.006-.0174-.0111.012-.0477.0366.035-.004.1285-.0629.4485-.1443.9438-.186.9906-.0834 2.6796-.0409 5.2557.1182 3.5406.2187 5.381.823 8.3002 2.7306 1.9279 1.2597 6.1156 5.3745 7.1647 7.0077 1.777 2.7664 2.4617 3.9009 2.9689 4.8991 1.585 3.1192 2.322 8.7154 1.9554 15.6122-.1639 3.0828-.3298 4.9336-1.0077 11.1529-.4777 4.3817-2.0066 11.2952-3.4225 15.4765-.205.6056-.3927 1.183-.529 1.6317a17.4805 17.4805 0 0 0-.1628.5679 4.4098 4.4098 0 0 0-.0485.1976c-.0125.0579-.027.0828-.027.1996 0-.1384-.0059.0073-.0485.1396-.0427.1322-.1093.3182-.1938.5407-.169.445-.4108 1.0398-.6919 1.7054-.562 1.331-1.2835 2.9468-1.9089 4.246-.6 1.2467-1.2375 2.6053-1.438 3.0678-.359.8283-1.3184 2.36-3.215 5.0677-.9687 1.3831-2.106 2.674-4.3197 4.8914-4.6892 4.697-6.473 6.029-10.3254 7.715-2.0622.9026-2.3332.9529-5.1685 1.0078-1.5035.0292-3.257-.0223-3.7015-.0852-3.552-.5025-7.6847-2.2982-10.3778-4.5038-2.4841-2.0345-6.1129-6.322-7.4262-8.7499-.2943-.544-.8508-1.5495-1.2442-2.2441-.6783-1.198-1.4083-2.6514-1.9631-3.8682-.2775-.6084-.511-1.1585-.6725-1.5833-.0807-.2124-.1426-.394-.1822-.529-.0396-.1351-.0503-.2414-.0503-.2055 0-.1677-.0266-.2055-.0524-.2984a6.0571 6.0571 0 0 0-.1007-.3198c-.082-.2416-.1923-.5357-.314-.8353-2.8189-6.9373-3.9964-21.7646-2.6279-34.1758.5306-4.8112.9615-6.8892 2.2597-10.87 1.0894-3.3406 1.6098-4.569 2.8003-6.6297.2708-.4686.5164-.8995.6958-1.217.0896-.1588.1632-.289.215-.3837a5.5454 5.5454 0 0 0 .062-.1163c.0083-.016.0148-.0302.0234-.0485a1.1568 1.1568 0 0 0 .0116-.0271c.0007-.0015.0047-.0075.0059-.0097.0001-.0004-.0002-.0015 0-.002.006-.0112.014-.025.0271-.0484.0324-.058.0815-.146.1434-.252.124-.212.2968-.502.4864-.8159.9593-1.5874 1.6743-2.4587 3.8236-4.6569 2.6699-2.7304 4.8767-4.0017 9.1065-5.2344 2.1655-.631 4.733-.9683 6.9398-.9631zm-20.492 11.7866-.0058.0776a.2325.2325 0 0 0-.004.0155l.0098-.093zm30.019 11.0677c-.0262 2.9986.1007 6.4192.002 7.306-.0752.6758-.1464.8892-.219 1.5117.151-1.5273.224-3.338.217-8.8177zm-1.6976 19.0307c-.057.2717-.1559.5668-.2152.8294.073-.3327.1427-.4796.2152-.8294z"/></svg>
