<svg xmlns="http://www.w3.org/2000/svg" viewBox="0 0 128 128"><path fill="#8c6432" d="M64 .009c-1.024.015-1.96.052-2.733.112-4.875.38-10.035 1.427-14.194 2.884-3.075 1.077-6.433 2.611-7.909 3.66a23.77 23.77 0 0 1-1.552.993c-.9.517-2.19 1.416-4.132 2.87-.824.617-2.17 1.778-3.422 2.914-1.252 1.137-2.37 2.2-2.814 2.752-.34.423-1.09 1.31-1.647 1.95a50.374 50.374 0 0 0-1.737 2.093 14.2 14.2 0 0 0-.537.73 3.32 3.32 0 0 0-.166.266c-.045.083-.109.102-.109.362 0-.177.026-.156.03-.162.002-.007-.001.003-.008.017a3.819 3.819 0 0 1-.084.15 21.465 21.465 0 0 1-.343.563 83.04 83.04 0 0 1-1.145 1.773c-2.182 3.293-4.985 8.893-6.099 12.208-3.073 9.143-4.337 15.02-4.92 22.897-.3 4.043-.385 11.78-.167 15.222.105 1.657.26 4.231.345 5.717.11 1.902.241 3.075.641 3.894.2.409.497.731.867.916.37.185.78.237 1.228.237.762 0 1.425-.206 1.857-.702.431-.496.583-1.186.583-2.029 0-.241.01-.417.025-.513.017-.097.032-.092.012-.072-.02.02-.031.008.06-.008.092-.016.262-.025.498-.025.212 0 .379.065.473.138.094.072.118.127.118.197 0 .274.066.56.163.934s.23.814.388 1.28c.314.93.72 1.96 1.106 2.753 1.73 3.555 4.773 5.855 8.438 6.341.533.07 1.047.023 1.487-.137.44-.16.833-.444 1.005-.892.041-.107.03-.112.033-.14a1.617 1.617 0 0 0 .01-.079 6.587 6.587 0 0 0 .015-.21c.01-.17.021-.405.033-.7.024-.591.052-1.42.082-2.421.06-2.004.13-4.699.196-7.539.132-5.68.251-11.936.255-14.432.003-1.61.059-2.411-.246-3.05a1.217 1.217 0 0 0-.794-.628c-.316-.073-.625-.06-1.01-.052-2.486.05-4.705 1.211-7.093 3.624-1.059 1.07-1.573 1.763-2.085 2.833-.911 1.904-1.556 3.708-1.886 5.306-.072.351-.157.696-.234.96a4.58 4.58 0 0 1-.105.317c-.028.075-.081.137-.008.049.108-.13.057-.047-.06-.022-.116.026-.29.046-.47.05a3.12 3.12 0 0 1-.791-.092c-.01-.023-.026-.061-.047-.177-.05-.276-.094-.816-.143-1.72-.288-5.257-.03-14.569.508-18.626.827-6.246 2.801-13.944 4.97-19.39 2.056-5.16 5.998-11.643 9.624-15.825 4.324-4.986 10.528-9.308 16.89-11.761 1.11-.429 2.195-.863 2.548-1.033.504-.244 1.809-.635 3.39-1a68.391 68.391 0 0 1 5.259-.989c2.292-.336 9.928-.486 12.542-.24 1.936.182 4.269.543 6.27.94 2 .397 3.731.87 4.234 1.126.364.186 1.193.51 1.973.789 5.445 1.943 10.624 5.255 14.614 9.345 2.098 2.15 3.479 3.81 3.812 4.457.205.396.721 1.194 1.211 1.897 1.825 2.618 3.414 5.674 5.08 9.783.302.746.797 2.193 1.21 3.488.208.648.396 1.258.53 1.729.067.235.121.438.157.585.035.147.044.287.044.206 0 .133.018.205.041.33.023.127.055.279.093.452.077.348.18.78.295 1.216 1.82 6.895 2.682 16.38 2.265 25.026a157.301 157.301 0 0 1-.854 10.17 74.12 74.12 0 0 1-.541 3.869 16.76 16.76 0 0 1-.246 1.196c-.075.29-.205.504-.122.405.066-.08.024-.02-.088.006-.11.025-.275.04-.441.036a2.193 2.193 0 0 1-.463-.056c-.126-.031-.2-.09-.167-.058.036.036-.029-.045-.062-.161a1.559 1.559 0 0 1-.056-.403c0-1.361-.638-4.094-1.256-5.525-.823-1.902-2.043-3.834-3.08-4.733-1.232-1.067-3.307-2.09-4.697-2.234-.375-.039-.688-.135-1.097-.027a1.147 1.147 0 0 0-.562.358c-.149.175-.253.383-.349.638-.384 1.021-.681 2.94-1.41 7.09-.232 1.318-1.178 6.26-2.098 10.952a352.65 352.65 0 0 0-1.19 6.349c-.15.857-.272 1.582-.356 2.13-.085.548-.136.867-.136 1.114 0 .457-.015.735.11 1.047.127.31.406.489.656.618.354.183.96.397 1.477.543 1.41.396 3.45.256 4.978-.305 1.53-.561 3.145-1.727 4.543-3.24 1.343-1.454 2.658-3.982 3.467-6.566.343-1.097.556-1.704.697-1.961.07-.129.107-.156.118-.163.012-.007.03-.019.136-.03a.776.776 0 0 1 .262.003c.034.01.018 0 .029.014.02.027.105.258.105.722 0 .405.005.696.12.99.115.296.327.503.571.708.962.81 2.317.723 3.295-.16.318-.289.577-.561.746-.999.17-.438.28-1.005.492-2.077 1.036-5.232 1.92-11.955 2.29-17.413.227-3.34.228-11.319 0-14.416-.481-6.581-1.677-13.305-3.398-19.11-1.316-4.438-3.516-9.431-5.706-12.932a79.599 79.599 0 0 1-1.496-2.49c-.71-1.262-1.165-1.863-3.49-4.582-2.237-2.616-5.432-5.487-8.159-7.331-1.066-.722-2.189-1.518-2.37-1.665-.452-.367-1.43-.899-2.612-1.508-1.182-.609-2.513-1.245-3.487-1.645-3.829-1.574-9.08-2.9-13.668-3.454-2.356-.284-6.185-.426-9.254-.38Zm.015.992c3.025-.046 6.852.098 9.118.372 4.489.542 9.698 1.86 13.412 3.388.925.38 2.245 1.009 3.407 1.608 1.163.599 2.223 1.218 2.444 1.397.323.262 1.363.987 2.44 1.715 2.627 1.778 5.791 4.62 7.957 7.153 2.32 2.714 2.694 3.2 3.382 4.423.32.57.997 1.697 1.52 2.533 2.122 3.394 4.309 8.346 5.596 12.687 1.697 5.725 2.883 12.39 3.36 18.901.218 2.97.22 11.046 0 14.277-.366 5.406-1.25 12.107-2.275 17.285-.212 1.07-.332 1.625-.444 1.913-.11.288-.183.345-.488.62-.702.634-1.366.661-1.988.137-.212-.178-.259-.237-.287-.31-.028-.072-.052-.249-.052-.628 0-.542-.035-.969-.31-1.327a1.071 1.071 0 0 0-.557-.368 1.648 1.648 0 0 0-.633-.03c-.17.02-.375.061-.564.185-.19.123-.331.304-.448.517-.233.426-.428 1.039-.773 2.144-.77 2.462-2.084 4.923-3.25 6.185-1.31 1.418-2.836 2.5-4.155 2.985-1.288.473-3.29.585-4.37.28-.454-.127-1.092-.367-1.287-.468-.217-.112-.185-.095-.192-.11s-.039-.23-.039-.675c0-.023.042-.427.124-.963a105.1 105.1 0 0 1 .353-2.109c.3-1.704.718-3.941 1.186-6.33.92-4.696 1.863-9.618 2.1-10.972.73-4.154 1.074-6.143 1.363-6.912.073-.193.14-.3.177-.343.037-.044.031-.036.058-.043.053-.014.317.012.744.056.945.098 3.124 1.108 4.147 1.994.77.667 2.047 2.593 2.82 4.38.521 1.207 1.174 4.13 1.174 5.13 0 .236.034.467.095.678.061.212.13.402.314.587.196.196.407.263.626.318.22.055.454.083.686.087.233.005.462-.013.679-.062.216-.048.437-.104.633-.34.217-.261.235-.459.32-.791.085-.333.172-.76.262-1.272.179-1.022.368-2.379.55-3.922.364-3.087.7-6.916.86-10.24.423-8.747-.44-18.288-2.296-25.325a30.879 30.879 0 0 1-.287-1.177 11.41 11.41 0 0 1-.085-.414c-.02-.107-.025-.204-.025-.155 0-.186-.033-.269-.074-.438a16.177 16.177 0 0 0-.166-.624 60.341 60.341 0 0 0-.537-1.76c-.419-1.31-.911-2.75-1.239-3.558-1.683-4.154-3.306-7.283-5.184-9.977-.473-.678-1.017-1.537-1.145-1.785-.495-.959-1.863-2.525-3.983-4.697-4.102-4.205-9.396-7.59-14.99-9.585-.754-.27-1.649-.633-1.856-.739-.807-.412-2.458-.814-4.49-1.217-2.033-.403-4.388-.767-6.37-.953-2.82-.265-10.234-.126-12.78.248-1.822.267-3.729.63-5.338 1.002-1.61.372-2.893.732-3.597 1.071-.2.097-1.375.578-2.475 1.002-6.524 2.517-12.836 6.91-17.28 12.037-3.726 4.296-7.688 10.81-9.8 16.108-2.21 5.551-4.192 13.282-5.032 19.626-.557 4.21-.808 13.46-.515 18.812.05.913.088 1.458.158 1.845.036.193.08.351.163.505a.953.953 0 0 0 .36.365c.412.22.858.225 1.318.213.23-.007.453-.029.657-.074.204-.045.399-.06.61-.316.124-.148.131-.218.173-.33a5.432 5.432 0 0 0 .128-.389c.087-.296.178-.66.256-1.037.308-1.491.924-3.23 1.808-5.077.476-.994.871-1.531 1.896-2.566 2.287-2.31 4.21-3.284 6.406-3.33.38-.007.647 0 .766.028.118.027.08-.002.124.09.087.18.152 1.013.15 2.621-.005 2.467-.124 8.732-.257 14.409-.066 2.838-.135 5.53-.195 7.53-.03 1-.058 1.83-.082 2.413a44.165 44.165 0 0 1-.03.683c-.005.063-.01.104-.012.141-.039.084-.153.213-.403.304-.261.095-.627.137-1.014.086-3.335-.443-6.073-2.494-7.678-5.791a24.341 24.341 0 0 1-1.427-3.847 4.238 4.238 0 0 1-.13-.686c0-.4-.212-.76-.507-.986a1.754 1.754 0 0 0-1.076-.341 3.85 3.85 0 0 0-.67.04 1.082 1.082 0 0 0-.597.29c-.17.172-.246.394-.281.6-.035.206-.039.42-.039.68 0 .72-.14 1.147-.341 1.378-.2.23-.509.36-1.107.36-.366 0-.616-.047-.784-.131-.17-.085-.29-.201-.42-.465-.257-.529-.432-1.645-.54-3.516-.086-1.49-.243-4.062-.349-5.72-.21-3.33-.127-11.125.167-15.088.579-7.808 1.815-13.552 4.874-22.653 1.06-3.154 3.872-8.794 5.983-11.978.45-.68.86-1.315 1.16-1.795.15-.24.273-.439.36-.59a4.332 4.332 0 0 0 .11-.196 1.127 1.127 0 0 0 .04-.088c.014-.034.047-.03.047-.219 0 .214-.031.149-.012.113a2.58 2.58 0 0 1 .116-.186c.112-.166.285-.4.5-.677a49.415 49.415 0 0 1 1.7-2.05c.566-.65 1.31-1.528 1.67-1.977.307-.38 1.471-1.517 2.71-2.641 1.238-1.124 2.589-2.286 3.348-2.855 1.93-1.444 3.212-2.33 4.035-2.804a23.674 23.674 0 0 0 1.63-1.043c1.255-.892 4.658-2.48 7.665-3.532 4.057-1.422 9.154-2.46 13.941-2.834a44.35 44.35 0 0 1 2.67-.108zM59.94 37.33c-2.308-.005-4.947.34-7.223 1.003-4.32 1.259-6.78 2.674-9.536 5.494-2.165 2.214-2.973 3.2-3.963 4.839-.192.317-.367.609-.495.827a15.371 15.371 0 0 0-.153.268 3.096 3.096 0 0 0-.048.089c-.007.013-.015.026-.023.046-.003.005-.005.015-.008.022l-.004.006a5.831 5.831 0 0 1-.052.096c-.048.088-.12.218-.208.374-.177.314-.422.741-.692 1.208-1.214 2.102-1.785 3.458-2.881 6.82-1.31 4.016-1.77 6.228-2.303 11.067-1.384 12.556-.271 27.36 2.694 34.657.115.282.219.565.293.783.037.108.067.2.085.265.018.065.016.143.016.033 0 .183.038.31.089.484.05.174.12.375.207.603.173.456.414 1.021.698 1.643a53.631 53.631 0 0 0 2.002 3.944c.389.687.948 1.696 1.236 2.229 1.439 2.66 5.031 6.883 7.67 9.044 2.87 2.351 7.1 4.184 10.867 4.717.673.096 2.324.127 3.86.097 2.853-.055 3.46-.175 5.548-1.089 3.929-1.72 5.915-3.203 10.628-7.924 2.23-2.234 3.42-3.579 4.432-5.023 1.906-2.722 2.88-4.244 3.312-5.243.176-.405.826-1.793 1.423-3.033a102.7 102.7 0 0 0 1.928-4.29c.284-.673.53-1.277.705-1.74.088-.232.158-.428.21-.588.05-.159.096-.213.096-.443 0 .082-.003.043.004.01a3.917 3.917 0 0 1 .04-.154c.034-.132.086-.315.152-.533.132-.435.316-1.006.518-1.602 1.452-4.29 2.979-11.191 3.469-15.686.678-6.223.85-8.11 1.015-11.207.372-6.993-.322-12.689-2.064-16.116-.533-1.05-1.238-2.212-3.02-4.985-1.262-1.966-5.275-5.878-7.455-7.302-3.003-1.963-5.142-2.669-8.78-2.893-2.592-.16-4.293-.208-5.401-.115-.554.047-.961.119-1.297.283-.335.164-.61.532-.61.897 0 .135.02.166.036.217.016.052.035.101.057.157.043.113.101.249.172.403.141.31.332.7.543 1.103.824 1.575 1.37 3.912 1.732 7.651.145 1.496.01 5.899.002 10.39-.033-7.82-.169-11.17-.645-13.917-.388-2.236-.917-3.883-1.752-5.1-.835-1.218-1.989-1.971-3.461-2.377-1.016-.279-2.28-.405-3.665-.408zm-.004.993c1.324.003 2.522.13 3.405.374 1.307.36 2.2.947 2.907 1.979.708 1.031 1.217 2.545 1.593 4.71.494 2.848.63 5.936.65 15.031.017 7.882-.021 9.384-.274 11.235-.781 5.727-2.01 11.649-2.886 14.036a78.782 78.782 0 0 0-.835 2.374c-.114.36-.56 1.513-.963 2.471-.971 2.311-1.875 5.298-2.126 7.078-.333 2.359-.406 6.766-.192 10.843.069 1.313.138 2.34.2 3.071.03.366.059.657.087.878.028.222.03.329.107.52.019.047.015.111.168.232a.494.494 0 0 0 .068.046.93.93 0 0 0 .093.04l.236.017.113-.033s.062-.03.087-.047a.496.496 0 0 0 .107-.098c.097-.118.097-.168.11-.213a.968.968 0 0 0 .025-.12 5.24 5.24 0 0 0 .043-.607c.018-.542.02-1.394 0-2.584-.035-2.187-.003-4.822.072-7.123.075-2.302.198-4.297.323-5.101.123-.79.498-1.908 1.233-3.591.296-.679.565-1.313.761-1.793a24.146 24.146 0 0 0 .235-.59 5.008 5.008 0 0 0 .07-.195l.025-.081c.008-.03.021-.04.021-.157 0 .129-.01.082-.004.062a2.913 2.913 0 0 1 .033-.107c.031-.096.078-.232.138-.397.12-.33.286-.768.469-1.228 2.388-6.026 3.219-9.922 4.414-20.663.311-2.794.305-16.803 0-19.945-.367-3.795-.915-6.247-1.84-8.016a22.732 22.732 0 0 1-.52-1.052 7.4 7.4 0 0 1-.151-.35l-.006-.018c-.011.012-.048.036.035-.004.128-.063.448-.145.944-.186.99-.084 2.68-.041 5.255.118 3.541.219 5.381.823 8.3 2.73 1.929 1.26 6.116 5.375 7.165 7.008 1.777 2.767 2.462 3.901 2.97 4.9 1.584 3.119 2.321 8.715 1.955 15.612-.164 3.082-.33 4.933-1.008 11.152-.478 4.382-2.007 11.296-3.423 15.477a57.498 57.498 0 0 0-.529 1.632 17.48 17.48 0 0 0-.162.568 4.41 4.41 0 0 0-.049.197c-.012.058-.027.083-.027.2 0-.139-.006.007-.048.14-.043.132-.11.318-.194.54-.17.445-.411 1.04-.692 1.705a101.956 101.956 0 0 1-1.909 4.246 127.4 127.4 0 0 0-1.438 3.068c-.359.829-1.318 2.36-3.215 5.068-.969 1.383-2.106 2.674-4.32 4.891-4.689 4.697-6.473 6.03-10.325 7.715-2.062.903-2.333.953-5.169 1.008-1.503.03-3.257-.022-3.701-.085-3.552-.503-7.685-2.298-10.378-4.504-2.484-2.034-6.113-6.322-7.426-8.75-.294-.544-.85-1.55-1.244-2.244a52.889 52.889 0 0 1-1.963-3.868 27.95 27.95 0 0 1-.673-1.583 7.542 7.542 0 0 1-.182-.53c-.04-.134-.05-.24-.05-.205 0-.168-.027-.205-.053-.298a6.057 6.057 0 0 0-.1-.32 15.796 15.796 0 0 0-.315-.835c-2.818-6.938-3.996-21.765-2.627-34.176.53-4.811.961-6.89 2.26-10.87 1.089-3.34 1.61-4.57 2.8-6.63.27-.468.516-.9.695-1.217.09-.159.164-.289.215-.384a5.545 5.545 0 0 0 .062-.116l.024-.048a1.157 1.157 0 0 0 .011-.027l.006-.01v-.002l.027-.049c.033-.058.082-.146.144-.252.124-.212.297-.502.486-.815.96-1.588 1.674-2.46 3.824-4.657 2.67-2.73 4.876-4.002 9.106-5.235 2.166-.63 4.733-.968 6.94-.963zM39.445 50.11l-.006.078a.233.233 0 0 0-.004.016l.01-.093zm30.02 11.068c-.027 2.999.1 6.42.001 7.306-.075.676-.146.89-.219 1.512.151-1.527.224-3.338.217-8.818zm-1.699 19.03c-.056.273-.155.568-.215.83.073-.332.143-.48.216-.83z"/></svg>
