<?xml version="1.0" encoding="UTF-8"?>
<svg xmlns="http://www.w3.org/2000/svg" xmlns:xlink="http://www.w3.org/1999/xlink" width="128px" height="128px" viewBox="0 0 128 128" version="1.1">
<g id="surface1">
<path style="fill-rule:evenodd;fill:rgb(29.019608%,29.019608%,30.196078%);fill-opacity:1;stroke-width:1;stroke-linecap:butt;stroke-linejoin:miter;stroke:rgb(100%,100%,100%);stroke-opacity:1;stroke-miterlimit:10;" d="M 35.499023 9 C 50.699707 9 63 21.300293 63 36.500977 C 63 51.699463 50.699707 63.999756 35.499023 63.999756 C 20.300537 63.999756 8.000244 51.699463 8.000244 36.500977 C 8.000244 21.300293 20.300537 9 35.499023 9 Z M 35.499023 9 " transform="matrix(1.777778,0,0,1.777778,0,0)"/>
<path style=" stroke:none;fill-rule:evenodd;fill:rgb(100%,100%,100%);fill-opacity:1;" d="M 89.066406 86.398438 C 87.289062 91.910156 84.621094 96 80.890625 99.023438 C 77.15625 102.042969 72.179688 103.644531 65.957031 104.179688 L 64.710938 96 C 68.800781 95.464844 71.820312 94.578125 73.777344 93.15625 C 74.488281 92.621094 75.910156 91.023438 75.910156 91.023438 L 61.15625 43.734375 L 73.421875 43.734375 L 81.957031 79.109375 L 91.023438 43.734375 L 102.933594 43.734375 Z M 89.066406 86.398438 "/>
<path style=" stroke:none;fill-rule:evenodd;fill:rgb(100%,100%,100%);fill-opacity:1;" d="M 46.222656 42.132812 C 49.066406 42.132812 51.734375 42.488281 53.867188 43.378906 C 56.179688 44.265625 58.3125 45.511719 60.445312 47.289062 L 55.464844 54.042969 C 54.042969 52.976562 52.621094 52.265625 51.378906 51.734375 C 50.132812 51.199219 48.535156 51.023438 47.109375 51.023438 C 41.066406 51.023438 38.042969 55.644531 38.042969 65.066406 C 38.042969 69.867188 38.753906 73.246094 40.355469 75.199219 C 41.957031 77.332031 44.089844 78.222656 47.109375 78.222656 C 48.535156 78.222656 49.957031 78.042969 51.199219 77.511719 C 52.445312 76.976562 53.867188 76.265625 55.644531 75.199219 L 60.621094 82.3125 C 56.535156 85.6875 51.910156 87.289062 46.578125 87.289062 C 42.3125 87.289062 38.753906 86.398438 35.554688 84.621094 C 32.535156 82.84375 30.042969 80.179688 28.445312 76.800781 C 26.84375 73.421875 25.957031 69.511719 25.957031 64.890625 C 25.957031 60.445312 26.84375 56.355469 28.445312 52.976562 C 30.042969 49.421875 32.535156 46.753906 35.554688 44.800781 C 38.578125 43.199219 42.132812 42.132812 46.222656 42.132812 Z M 46.222656 42.132812 "/>
</g>
</svg>
