<svg xmlns="http://www.w3.org/2000/svg" viewBox="0 0 128 128"><defs><linearGradient id="a" x1="434.707" x2="796.936" y1="-3615.323" y2="-4002.476" gradientTransform="matrix(.05424 0 0 -.05424 -.38 -159.587)" gradientUnits="userSpaceOnUse"><stop offset=".094" stop-color="#58d09e"/><stop offset=".988" stop-color="#58d09e" stop-opacity="0"/></linearGradient><linearGradient id="b" x1="1.925" x2="693.949" y1="-4338.691" y2="-4522.885" gradientTransform="matrix(.05424 0 0 -.05424 -.38 -159.587)" gradientUnits="userSpaceOnUse"><stop offset=".077" stop-color="#58d09e"/><stop offset=".762" stop-color="#1b1e2e"/></linearGradient></defs><path fill="#69d3a7" d="M.917 70.837A25.852 25.852 0 0 1 0 64.003c0-10.588 6.65-20.27 16.543-24.088l1.302 3.357C9.324 46.56 3.602 54.891 3.602 64.002c0 1.997.265 3.977.786 5.886z"/><path fill="url(#a)" d="M45.664 53.773c-3.85-7.393-11.433-11.987-19.78-11.987-2.957 0-5.832.57-8.538 1.687l-1.383-3.325a25.807 25.807 0 0 1 9.92-1.963c9.698 0 18.501 5.331 22.976 13.923z"/><path fill="#1b1e2e" d="M104.318 55.14c-1.914 0-3.53.493-4.81 1.47-1.307.97-1.969 2.234-1.969 3.769 0 2.218 1.404 3.884 3.764 4.453.613.141 1.259.261 1.883.375 2.348.429 4.566.836 4.566 2.414 0 1.22-1.415 2.067-3.443 2.067-2.061 0-3.2-.826-3.477-2.524l-.033-.19-3.785.794.03.173c.554 3.054 3.267 4.875 7.265 4.875 2.028 0 3.77-.504 5.164-1.502 1.394-.981 2.097-2.25 2.097-3.77.011-3.964-3.513-4.632-6.355-5.163-2.067-.385-3.852-.727-3.852-2.164 0-1.14 1.216-1.936 2.951-1.936 1.92 0 2.966.824 3.215 2.516l.028.19 3.79-.792-.025-.173c-.51-3.01-3.196-4.881-7.004-4.881zm16.424 0c-1.915 0-3.53.493-4.81 1.47-1.307.97-1.97 2.234-1.97 3.769 0 2.218 1.405 3.884 3.765 4.453a42.8 42.8 0 0 0 1.882.375c2.349.429 4.567.836 4.567 2.414 0 1.22-1.415 2.067-3.444 2.067-2.06 0-3.2-.826-3.476-2.524l-.033-.19-3.785.794.03.173c.554 3.054 3.267 4.875 7.264 4.875 2.029 0 3.769-.504 5.168-1.502 1.394-.981 2.1-2.25 2.1-3.77.005-3.964-3.527-4.632-6.363-5.163-2.067-.385-3.85-.727-3.85-2.164 0-1.14 1.216-1.936 2.951-1.936 1.92 0 2.966.824 3.215 2.516l.028.19 3.79-.792-.027-.173c-.51-3.01-3.194-4.881-7.002-4.881zm-34.42.005c-2.5 0-4.616.851-6.303 2.533-1.703 1.703-2.564 3.83-2.564 6.33 0 2.484.873 4.606 2.604 6.293 1.735 1.703 3.838 2.531 6.425 2.531 3.504 0 6.521-1.778 8.067-4.762l.086-.174-3.205-1.42-.077.151c-.927 1.795-2.712 2.871-4.767 2.871-2.669 0-4.709-1.628-5.262-4.172h13.75l.018-.162c.298-2.75-.413-5.131-2.1-7.084-1.687-1.947-3.933-2.936-6.672-2.936zm-68.168.005c-2.587 0-4.692.83-6.427 2.534-1.725 1.692-2.604 3.818-2.604 6.33 0 2.484.873 4.604 2.604 6.29 1.735 1.704 3.84 2.534 6.427 2.534 3.678 0 6.807-2.055 8.168-5.363l.076-.18-3.515-1.193-.065.158c-.78 1.909-2.527 3.052-4.664 3.052-1.453 0-2.685-.51-3.656-1.507-.987-1.015-1.48-2.289-1.48-3.786 0-1.507.487-2.76 1.48-3.818.971-1.02 2.203-1.525 3.656-1.525 2.088 0 3.791 1.113 4.664 3.06l.07.15 3.51-1.193-.076-.177c-1.356-3.309-4.485-5.366-8.168-5.366zm37.225 0c-2.354 0-4.29.836-5.76 2.49v-2.17h-3.793v23.557h3.793v-8.683c1.47 1.649 3.406 2.488 5.76 2.488 2.37 0 4.393-.85 6.01-2.537 1.594-1.692 2.396-3.808 2.396-6.287 0-2.511-.802-4.638-2.396-6.324-1.617-1.682-3.64-2.534-6.01-2.534zm19.625.024c-1.926-.05-3.754.784-5.045 2.326v-2.03h-3.793v17.032h3.793v-9.605c0-1.54.618-2.718 1.844-3.499 1.215-.775 2.674-.923 4.459-.435l.226.066v-3.644l-.14-.033a6.48 6.48 0 0 0-1.344-.178zm-49.024.297 7.057 17.27-5.021 12.177 3.601.715L44.021 55.47h-3.894l-5.002 12.654-5.027-12.654H25.98zm60.342 3.006c2.381 0 4.28 1.485 4.893 3.812h-9.78c.673-2.327 2.571-3.812 4.887-3.812zm-31.562.199c1.453 0 2.685.51 3.656 1.508.976 1.008 1.447 2.256 1.447 3.818 0 1.54-.476 2.784-1.447 3.787-.97 1.004-2.203 1.508-3.656 1.508-1.476 0-2.667-.494-3.655-1.508-.987-1.014-1.482-2.29-1.482-3.787 0-1.54.484-2.793 1.482-3.818.988-1.02 2.18-1.508 3.655-1.508z"/><path fill="url(#b)" d="m28.66 83.35-.879 2.12a1.179 1.179 0 0 1-1.02.727 24.19 24.19 0 0 1-.894.022c-10.322-.005-19.456-7.284-21.723-17.313l-3.515.792c1.27 5.625 4.459 10.729 8.977 14.379a25.984 25.984 0 0 0 16.218 5.738h.054c.347 0 .689-.01 1.03-.021a4.775 4.775 0 0 0 4.204-2.951l1.144-2.777z"/></svg>
