<svg xmlns="http://www.w3.org/2000/svg" viewBox="0 0 128 128"><path fill="#D91404" d="M82.518 54.655c-12.92 8.326-25.722 16.577-38.862 25.043l58.715 8.016-19.853-33.059zm25.409-36.843c-1.735 2.604-3.473 5.207-5.205 7.813A46257.18 46257.18 0 0084.881 52.48c-.331.5-.76.896-.294 1.664 5.744 9.483 11.441 18.996 17.152 28.498.901 1.501 1.813 2.996 2.979 4.436l3.463-69.191-.254-.075zM29.529 47.38c.269.255.94.402 1.251.249 5.509-2.708 11.053-5.355 16.442-8.286 1.756-.954 3.106-2.667 4.621-4.055a9782.293 9782.293 0 0015.021-13.812c.307-.283.668-.556.852-.913 1.797-3.513 3.562-7.042 5.391-10.675-2.181-.817-4.248-1.62-6.34-2.35-.284-.099-.73.098-1.04.27-4.843 2.706-9.777 5.267-14.467 8.218-2.347 1.476-4.259 3.651-6.337 5.547-3.347 3.056-6.692 6.119-9.992 9.229a17.14 17.14 0 00-2.355 2.76c-2.258 3.286-4.446 6.619-6.737 10.048 1.282 1.326 2.445 2.592 3.69 3.77zm20.133-4.493c-2.739 11.577-5.465 23.088-8.279 34.978L80.284 52.8l-30.622-9.913zm21.837-19.441l11.22 27.292c7.324-11.001 14.502-21.785 21.843-32.815l-33.063 5.523zM50.122 40.519l30.012 9.743c-3.761-9.163-7.393-18.005-11.101-27.035L50.122 40.519zM29.944 54.131L19.44 79.24l20.005-.591-9.501-24.518zm9.739 18.695l.248-.054c2.401-9.988 4.838-19.907 7.291-30.284l-16.05 8.341c2.735 7.112 5.653 14.612 8.511 21.997zm60.842-56.522c-3.195-.846-6.387-1.696-9.585-2.536-4.593-1.207-9.19-2.401-13.781-3.62-.573-.152-.989-.251-1.326.44-1.622 3.324-3.296 6.624-4.944 9.935-.051.103-.041.237-.08.492l29.71-4.502.006-.209zM81.993 8.742l26.037 7.203-4.302-12.258-21.696 4.811-.039.244zM89.875 88.1l-21.361-2.916c-8.873-1.211-17.73-2.544-26.623-3.569-3.225-.371-6.536-.029-9.806.026-2.687.046-5.374.148-8.06.233-.277.008-.553.064-.828.361 22.21 2.054 44.422 4.107 66.631 6.162l.047-.297zM19.878 71.576c2.864-6.641 5.712-13.287 8.586-19.922.288-.667.267-1.118-.296-1.653-1.203-1.145-2.319-2.378-3.634-3.744l-5.241 25.871.193.092c.133-.214.294-.414.392-.644zM76.29 6.989c4.827-1.246 9.724-2.218 14.592-3.305.314-.071.622-.175.932-.264l-.047-.238-20.916 2.813c1.965.859 3.478 1.5 5.439.994zM30.975 109.422v8.547h-4.724V95.692h6.491c3.026 0 5.266.551 6.719 1.653s2.18 2.776 2.18 5.02c0 1.311-.361 2.477-1.083 3.497-.721 1.021-1.741 1.822-3.063 2.401l6.553 9.705h-5.242l-5.317-8.547h-2.514zm0-3.84h1.524c1.492 0 2.595-.25 3.306-.747.71-.498 1.066-1.28 1.066-2.346 0-1.057-.363-1.808-1.09-2.255-.726-.447-1.851-.671-3.374-.671h-1.433v6.019zm27.578 12.387l-.624-2.179h-.244c-.498.793-1.204 1.404-2.117 1.836-.915.432-1.957.647-3.124.647-2.002 0-3.51-.535-4.526-1.607s-1.523-2.613-1.523-4.624v-11.108h4.647v9.95c0 1.229.219 2.151.656 2.766.436.615 1.131.921 2.086.921 1.301 0 2.24-.435 2.819-1.302.579-.869.869-2.308.869-4.319v-8.015h4.647v17.035h-3.566zm17.919-17.356c2.011 0 3.586.786 4.725 2.355 1.137 1.569 1.705 3.72 1.705 6.453 0 2.813-.587 4.992-1.759 6.535-1.174 1.545-2.771 2.316-4.793 2.316-2.001 0-3.57-.727-4.708-2.18h-.32l-.776 1.875h-3.551V94.26h4.647v5.516c0 .701-.062 1.823-.184 3.368h.184c1.086-1.686 2.697-2.531 4.83-2.531zm-1.494 3.719c-1.147 0-1.985.353-2.513 1.059-.528.707-.804 1.872-.823 3.498v.502c0 1.829.271 3.139.814 3.932.544.792 1.405 1.188 2.584 1.188.954 0 1.713-.44 2.277-1.318s.846-2.156.846-3.832c0-1.676-.285-2.934-.854-3.772-.568-.838-1.345-1.257-2.331-1.257zm9.021-3.398h5.089l3.215 9.584c.274.833.463 1.818.563 2.956h.092c.111-1.046.329-2.032.654-2.956l3.154-9.584h4.982l-7.207 19.214c-.66 1.777-1.602 3.108-2.825 3.992-1.225.884-2.654 1.325-4.29 1.325-.803 0-1.59-.086-2.361-.259v-3.687a8.004 8.004 0 001.828.197c.822 0 1.541-.251 2.156-.754.615-.502 1.095-1.261 1.439-2.277l.274-.839-6.763-16.912z"/></svg>