<svg xmlns="http://www.w3.org/2000/svg" width="128" height="128" viewBox="0 0 128 128">
  <circle cx="64" cy="64" r="60" fill="#1F0740" />
  <path d="M47.3 33.4c-12 0-13.2 16.5-13.2 16.5v3.5c0 6.5 2.1 10.7 6.4 14.2 3.5 3 8.2 6.2 8.2 6.2 0 0 4.7-3.2 8.2-6.2 4.3-3.5 6.4-7.7 6.4-14.2v-3.5s-1.2-16.5-13.2-16.5H47.3zm12.8 21.5c-.7 1.4-2 2.3-3.5 2.3s-2.8-.9-3.5-2.3c-.3-.6-.7-2.5-.7-5.7v-2.6h8.5v2.6c0 3.2-.4 5.1-.7 5.7zm1.6 8.3h-6.1l-2.4 8.8h10.8l-2.4-8.8zm6.4-8.3c-.7 1.4-2 2.3-3.5 2.3s-2.8-.9-3.5-2.3c-.3-.6-.7-2.5-.7-5.7v-2.6h8.5v2.6c0 3.2-.4 5.1-.7 5.7zm2.2-15.1c-1.6-3-5.1-5-9.2-5-4.1 0-7.7 2-9.2 5-.4.7-.8 2.6-.8 5.1v2.9h19.1v-2.9c0-2.5-.4-4.4-.8-5.1zm-7.5 19.9c-.8 0-1.5.4-1.9 1-.2.3-.3.7-.3 1.1v3.6h3.9v-3.6c0-.4-.1-.8-.3-1.1-.4-.6-1.1-1-1.9-1zm-4.7-14.2c-.8 0-1.5.4-1.9 1-.2.3-.3.7-.3 1.1v3.6h3.9v-3.6c0-.4-.1-.8-.3-1.1-.4-.6-1.1-1-1.9-1z" fill="#D490C5" />
</svg>
