<svg xmlns="http://www.w3.org/2000/svg" viewBox="0 0 128 128"><defs><linearGradient id="a" x1="10.561" x2="10.561" y1="30.514" y2="6.186" gradientTransform="translate(-2.326 11.158) scale(2.56617)" gradientUnits="userSpaceOnUse"><stop stop-color="#EDCF00"/><stop offset=".33" stop-color="#F0D500"/><stop offset=".77" stop-color="#F9E500"/><stop offset="1" stop-color="#FFF100"/></linearGradient><linearGradient id="b" x1="46.089" x2="46.089" y1="30.692" y2="13.092" gradientTransform="translate(-2.326 11.158) scale(2.56617)" gradientUnits="userSpaceOnUse"><stop stop-color="#EDCF00"/><stop offset=".59" stop-color="#F7E100"/><stop offset="1" stop-color="#FFF100"/></linearGradient><radialGradient id="c" cx="0" cy="0" r="1" gradientTransform="matrix(47.57621 0 0 47.25236 7.172 132.114)" gradientUnits="userSpaceOnUse"><stop stop-color="#FFF100"/><stop offset=".23" stop-color="#F9E500"/><stop offset=".67" stop-color="#F0D500"/><stop offset="1" stop-color="#EDCF00"/></radialGradient></defs><path fill="#fff100" d="M127.99 98.893V92.68c0-1.155-1.943-2.256-5.43-3.249l.084-7.732a57.71 57.71 0 0 0-10.588-33.296A58.573 58.573 0 0 0 84.121 27.13l-.25-1.55a4.419 4.419 0 0 0-1.046-2.238 4.483 4.483 0 0 0-2.092-1.337 59.402 59.402 0 0 0-33.167 0c-.814.239-1.54.7-2.1 1.335a4.398 4.398 0 0 0-1.051 2.237l-.24 1.445a58.588 58.588 0 0 0-28.13 21.256A57.734 57.734 0 0 0 5.374 81.697v7.765c-3.439.99-5.356 2.079-5.356 3.226V98.9a1.514 1.514 0 0 0 .224 1.047 15.017 15.017 0 0 1 5.766-2.604 113.37 113.37 0 0 1 16.174-2.684 10.906 10.906 0 0 1 8.487 2.712 22.967 22.967 0 0 0 15.42 5.933h35.834a22.95 22.95 0 0 0 15.417-5.938 10.914 10.914 0 0 1 8.489-2.743A114.1 114.1 0 0 1 122 97.297a13.498 13.498 0 0 1 5.466 2.373c.09.09.2.17.277.254a1.54 1.54 0 0 0 .246-1.031z"/><path fill="url(#a)" d="M30.752 85.818a136.171 136.171 0 0 1-.077-4.293c.018-21.597 5.112-40.966 13.503-54.493a58.588 58.588 0 0 0-28.13 21.253A57.734 57.734 0 0 0 5.373 81.697v7.765a143.449 143.449 0 0 1 25.38-3.644Z"/><path fill="url(#b)" d="M122.639 81.697a57.546 57.546 0 0 0-13.383-36.943 119.455 119.455 0 0 1 5.548 36.76c0 2.105-.056 4.183-.153 6.25a73.11 73.11 0 0 1 7.888 1.662l.097-7.73z"/><path fill="url(#c)" d="M122 97.32a113.49 113.49 0 0 0-16.175-2.685 10.911 10.911 0 0 0-8.488 2.726 22.95 22.95 0 0 1-15.42 5.935h-35.82a22.962 22.962 0 0 1-15.411-5.933 10.904 10.904 0 0 0-8.49-2.748 113.787 113.787 0 0 0-16.174 2.682A15.215 15.215 0 0 0 .26 99.9c2.72 4.127 30.234 8.456 63.758 8.456 33.527 0 61.029-4.345 63.754-8.453-.095-.082-.2-.162-.28-.252A14.019 14.019 0 0 0 122 97.32Z"/><path fill="#0a0a0a" d="M64 37.882 50.28 61.034 64 69.477V37.88Z"/><path fill="#4b4d4d" d="M64.005 37.89v31.579l13.716-8.427zm0 36.165v11.011c.256-.364 13.716-19.451 13.716-19.46l-13.716 8.451z"/><path fill="#0a0a0a" d="m64.005 74.06-13.72-8.438 13.72 19.452v-11.02Z"/></svg>
