<svg xmlns="http://www.w3.org/2000/svg" viewBox="0 0 128 128"><path d="M19.512 50.51a18.067 18.067 0 0 0-5.045.717 1.363 1.363 0 0 0-.639.406c-.17.192-.281.429-.32.681l-.072.44a17.82 17.82 0 0 0-8.555 6.465 17.56 17.56 0 0 0-3.246 10.164v2.361c-1.046.301-1.63.632-1.63.98v1.891a.46.46 0 0 0 .067.319 4.567 4.567 0 0 1 .012-.008c.851 1.253 9.208 2.564 19.387 2.564 10.197 0 18.561-1.32 19.39-2.57l-.004-.004a.468.468 0 0 0 .07-.303v-1.89c0-.352-.59-.687-1.652-.989l.026-2.351c0-3.623-1.123-7.158-3.219-10.127a17.815 17.815 0 0 0-8.496-6.47l-.076-.472a1.344 1.344 0 0 0-.319-.68 1.364 1.364 0 0 0-.636-.407 18.067 18.067 0 0 0-5.043-.717zm72.209 5.478v5.559c-.479-.733-1.586-1.508-3.784-1.508-3.695 0-4.74 2.648-4.74 5.664 0 3.017 1.09 5.668 4.764 5.668 2.635 0 3.873-.972 4.264-1.726l.523 1.574h1.258v-15.23H91.72zm5.203 0v15.23h2.283l.043-6.183c0-2.09.5-3.058 2.848-3.058 2.37 0 2.72.99 2.72 3.058v6.184l2.305-.004v-5.967c0-3.166-.74-5.213-4.371-5.213-2.132 0-3.111.736-3.545 1.528v-5.575h-2.283zm-77.46.069v9.609l-4.171-2.568 4.172-7.041zm.003.002 4.172 7.04-4.172 2.565V56.06zm29.574 1.373v13.787h2.39v-6.074h6.825v6.074h2.414V57.432h-2.414v5.795h-6.824v-5.795H49.04zm73.738 0v2.757l-1.586.473v1.379h1.588v6.006c0 2.607 1.544 3.47 5.219 3.254v-1.848c-2.414.107-2.85-.367-2.85-1.402v-6.01l2.848-.004V60.19h-2.914v-2.757h-2.305zm-54.152 2.603c-3.914 0-4.871 1.766-4.871 4.05l2.265-.022c0-1.379.565-2.198 2.631-2.198 2.243 0 2.83.928 2.895 2.531l-3.502.344c-3.174.3-4.63 1.228-4.63 3.252 0 2.328 1.912 3.385 4.304 3.385 2.304 0 3.848-.952 4.37-1.814l.48 1.658 1.257-.004v-6.27c0-2.97-.655-4.912-5.199-4.912zm45.986 0c-3.913 0-4.87 1.766-4.87 4.05l2.265-.022c0-1.379.566-2.198 2.63-2.198 2.248 0 2.836.928 2.897 2.531l-3.5.344c-3.175.3-4.633 1.228-4.633 3.252 0 2.328 1.914 3.385 4.307 3.385 2.308 0 3.852-.952 4.375-1.814l.478 1.658 1.25-.004v-6.27c0-2.97-.654-4.912-5.199-4.912zm-32.775.002c-2.175 0-3.24.95-3.588 1.682l-.549-1.532h-1.24V71.22h2.322V65.1c0-1.781.46-3.058 2.787-3.058.196 0 .412.043.637.043v-2.047h-.37zm6.799 1.938.002.002c2.654 0 3.109 1.593 3.109 3.724 0 2.262-.543 3.77-3.13 3.77-2.523 0-3.046-1.552-3.046-3.77 0-2.219.522-3.726 3.065-3.726zm-64.998 2.513c0 .003-4.094 5.807-4.172 5.918v.004l-4.172-5.916 4.172 2.567v-.002l4.172-2.57zm47.908 1.649.004.345c0 1.918-1.197 3.08-3.24 3.08-1.63 0-2.502-.581-2.502-1.593 0-.863.653-1.272 2.587-1.489l3.15-.343zm45.992 0 .004.345c0 1.918-1.197 3.08-3.24 3.08-1.63 0-2.502-.581-2.502-1.593 0-.863.654-1.272 2.588-1.489l3.15-.343z"/></svg>
