<svg xmlns="http://www.w3.org/2000/svg" xmlns:xlink="http://www.w3.org/1999/xlink" viewBox="0 0 128 128"><defs><clipPath id="b"><path d="M0 0h128v180H0z"/></clipPath><clipPath id="c"><path d="M0 0h128v180H0z"/></clipPath><clipPath id="d"><path d="M0 0h128v180H0z"/></clipPath><clipPath id="e"><path d="M0 0h128v180H0z"/></clipPath><clipPath id="f"><path d="M0 0h128v180H0z"/></clipPath><clipPath id="g"><path d="M0 0h128v180H0z"/></clipPath><clipPath id="h"><path d="M0 0h128v180H0z"/></clipPath><mask id="j"><g filter="url(#a)"><path fill-opacity=".102" d="M0 0h128v180H0z"/></g></mask><mask id="n"><g filter="url(#a)"><path fill-opacity=".302" d="M0 0h128v180H0z"/></g></mask><mask id="p"><g filter="url(#a)"><path fill-opacity=".502" d="M0 0h128v180H0z"/></g></mask><mask id="r"><g filter="url(#a)"><path fill-opacity=".502" d="M0 0h128v180H0z"/></g></mask><mask id="t"><g filter="url(#a)"><path fill-opacity=".502" d="M0 0h128v180H0z"/></g></mask><mask id="v"><g filter="url(#a)"><path fill-opacity=".502" d="M0 0h128v180H0z"/></g></mask><mask id="x"><g filter="url(#a)"><path fill-opacity=".502" d="M0 0h128v180H0z"/></g></mask><g id="i" clip-path="url(#b)"><path d="M69.578 9.598a2.231 2.231 0 0 0-.012.953s1.016 6.722-.14 9.715l-49.14 127.078h.003c-3.508 9.336 1.195 19.754 10.566 23.34 9.372 3.586 19.88-1.02 23.567-10.286l.004.004 49.14-127.078c.961-2.488 6.442-7.304 6.442-7.304.273-.207.488-.446.633-.715l.023-.051c.027-.055.059-.106.078-.16 1.27-3.278-6.906-9.453-18.254-13.793C81.137 6.96 70.91 6.098 69.645 9.375c-.024.055-.036.113-.051.168Zm0 0"/></g><g id="m" clip-path="url(#c)"><path fill="#fff" d="M68.145 9.473s1.003 6.757-.137 9.71l-49.145 127.08.008.004c-3.508 9.332 1.192 19.754 10.563 23.34a18.46 18.46 0 0 0 4.941 1.136c-6.316-4.726-9.027-13.18-6.129-20.89l-.008-.004L76.406 25.293s-6.554-6.125-8.261-15.82Zm0 0"/></g><g id="o" clip-path="url(#d)"><path fill="#fff" d="M53.746 91.45c0 .78-.637 1.413-1.422 1.413a1.42 1.42 0 0 1-1.426-1.414 1.42 1.42 0 0 1 1.426-1.418c.785 0 1.422.633 1.422 1.418Zm0 0"/></g><g id="q" clip-path="url(#e)"><path fill="#fff" d="M63.805 101.715c0 1.18-.961 2.137-2.149 2.137a2.141 2.141 0 0 1-2.144-2.137c0-1.18.96-2.133 2.144-2.133a2.14 2.14 0 0 1 2.149 2.133Zm0 0"/></g><g id="s" clip-path="url(#f)"><path fill="#fff" d="M51.434 113.926c0 2.21-1.801 4.004-4.024 4.004-2.226 0-4.027-1.793-4.027-4.004 0-2.211 1.8-4.004 4.027-4.004 2.223 0 4.024 1.793 4.024 4.004Zm0 0"/></g><g id="u" clip-path="url(#g)"><path fill="#fff" d="M43.035 121.332c0 1.18-.96 2.133-2.144 2.133a2.139 2.139 0 0 1-2.149-2.133c0-1.18.961-2.137 2.149-2.137 1.183 0 2.144.957 2.144 2.137Zm0 0"/></g><g id="w" clip-path="url(#h)"><path fill="#fff" d="M50.863 137.168c0 .785-.636 1.418-1.422 1.418a1.42 1.42 0 0 1-1.425-1.418c0-.781.636-1.414 1.425-1.414.786 0 1.422.633 1.422 1.414Zm0 0"/></g><linearGradient id="k" x1="206.458" x2="283.129" y1="215.263" y2="291.934" gradientTransform="matrix(.28685 -.12681 .1275 .28528 -41.676 23.322)" gradientUnits="userSpaceOnUse"><stop offset="0" stop-color="#919191"/><stop offset="1" stop-color="#fff"/></linearGradient><linearGradient id="l" x1="177.629" x2="224.046" y1="273.752" y2="320.169" gradientTransform="matrix(.28685 -.12681 .1275 .28528 -41.676 23.322)" gradientUnits="userSpaceOnUse"><stop offset="0" stop-color="#900"/><stop offset="1" stop-color="#e80000"/></linearGradient><filter id="a" width="1" height="1" x="0" y="0" filterUnits="objectBoundingBox"><feColorMatrix in="SourceGraphic" values="0 0 0 0 1 0 0 0 0 1 0 0 0 0 1 0 0 0 1 0"/></filter></defs><use xlink:href="#i" width="100%" height="100%" mask="url(#j)" transform="translate(14.306 -4.873) scale(.77296)"/><path fill="url(#k)" d="M66.99 1.71a1.69 1.69 0 0 0-.011.74s.788 5.195-.106 7.505l-37.987 98.227.006.003c-2.711 7.213.921 15.269 8.165 18.04 7.243 2.77 15.368-.787 18.216-7.95h.003L93.263 20.05c.74-1.92 4.975-5.643 4.975-5.643a1.74 1.74 0 0 0 .493-.556l.018-.039c.018-.04.042-.078.06-.12.978-2.534-5.338-7.308-14.112-10.665-8.772-3.357-16.68-4.023-17.658-1.49a1.701 1.701 0 0 0-.04.133zm0 0"/><path fill="url(#l)" d="m78.905 46.146-27.392 70.837.019.006c-2.023 5.076-7.902 7.718-13.117 5.722-5.217-1.993-8.04-7.962-6.117-13.08l17.504-45.26s2.186-3.509 6.476-6.003c4.294-2.494 7.832-1.969 12.597-4.076 4.768-2.105 10.03-8.146 10.03-8.146zm0 0"/><path fill="#333" d="M92.689 11.643c.55-1.422-3.418-4.266-8.862-6.35C78.383 3.21 73.522 2.68 72.969 4.101c-.55 1.425 3.418 4.27 8.862 6.35 5.447 2.083 10.305 2.617 10.858 1.192zm0 0"/><use xlink:href="#m" width="100%" height="100%" mask="url(#n)" transform="translate(14.306 -4.873) scale(.77296)"/><use xlink:href="#o" width="100%" height="100%" mask="url(#p)" transform="translate(14.306 -4.873) scale(.77296)"/><use xlink:href="#q" width="100%" height="100%" mask="url(#r)" transform="translate(14.306 -4.873) scale(.77296)"/><use xlink:href="#s" width="100%" height="100%" mask="url(#t)" transform="translate(14.306 -4.873) scale(.77296)"/><use xlink:href="#u" width="100%" height="100%" mask="url(#v)" transform="translate(14.306 -4.873) scale(.77296)"/><use xlink:href="#w" width="100%" height="100%" mask="url(#x)" transform="translate(14.306 -4.873) scale(.77296)"/></svg>
