<svg xmlns="http://www.w3.org/2000/svg" viewBox="0 0 128 128"><path fill="#000000" d="M43.303 128h-.007c-8.273 0-14.985-6.798-14.985-15.171a15.4 15.4 0 0 1 .542-4.088l-.026.104-.076-.05.476-1.203 36.88-96.887c.194-1.002.303-2.163.303-3.346 0-1.197-.116-2.38-.33-3.514l.015.119a2.289 2.301 0 0 1-.057-.514c0-.276.05-.545.132-.802l-.007.022.076-.195V2.44l.04-.095C66.85.782 68.654 0 71.598 0A40.319 40.54 0 0 1 85.33 3.162l-.268-.106c4.092 1.55 7.62 3.48 10.846 5.83l-.137-.096c3.163 2.4 4.436 4.556 3.727 6.396l-.166.242-.08.083a4.05 4.072 0 0 1-.786.871l-.007.007a20.6 20.713 0 0 0-4.38 4.957l-.048.085-37.236 98.245-.083-.035c-2.558 4.965-7.592 8.299-13.397 8.325h-.035zm-11.52-19.833-.11.27a12.325 12.392 0 0 0-.763 4.342 12.536 12.605 0 0 0 7.868 11.721l.083.036a11.796 11.861 0 0 0 4.366.814h.05-.007.026c5.22 0 9.684-3.29 11.472-7.931l.029-.089.144-.325 36.664-96.482a23.417 23.545 0 0 1 5.116-6.044l.036-.035.088-.082c.063-.083.103-.083.103-.159 0-.319-.323-1.446-2.936-3.445a41.728 41.956 0 0 0-9.72-5.235l-.288-.095C80.334 3.87 76.076 2.84 71.618 2.55h-.11c-2.056 0-2.758.435-2.874.67v.208a20.7 20.7 0 0 1 .302 3.581 21 21 0 0 1-.51 4.64l.028-.138-36.678 96.641zm47.154-61.373a37.15 37.353 0 0 1-9.532 7.953l-.18.097c-4.986 1.349-9.05 2.724-13.011 4.314l.79-.283a19.72 19.827 0 0 0-6.218 5.808l-.04.064-16.94 44.582a10.036 10.09 0 0 0-.537 3.312 10.256 10.312 0 0 0 6.397 9.572l.068.026a9.7 9.7 0 0 0 3.507.65 9.93 9.985 0 0 0 9.175-6.208l.021-.076zM52.932 100.05a1.056 1.062 0 0 1 .433-.089c.426 0 .793.248.956.62l.007.009c.055.124.097.269.097.421a1.063 1.07 0 0 1-2.042.436l-.007-.007a1.056 1.062 0 0 1-.076-.408c0-.442.254-.816.625-.982zm-5.342-9.6a1.585 1.593 0 0 1-2.208-1.473 1.585 1.593 0 0 1 1.588-1.597c.634 0 1.183.381 1.431.926l.007.014c.088.186.152.422.152.664a1.497 1.505 0 0 1-.963 1.411h-.007zm1.505-5.863a3.092 3.109 0 0 1 1.493-4.033l.021-.007c.35-.16.77-.255 1.203-.255a3.028 3.045 0 0 1 2.737 1.756l.007.014c.138.346.22.733.22 1.155a3.034 3.05 0 0 1-5.75 1.382l-.007-.012zm12.793-12.054a1.585 1.593 0 0 1 2.222 1.459 1.585 1.593 0 0 1-1.583 1.598 1.567 1.576 0 0 1-1.444-.956l-.007-.005a1.597 1.606 0 0 1 .798-2.103l.014-.007zm-6.796-7.33a.95.956 0 0 1 .427-.097 1.063 1.07 0 0 1 0 2.137 1.074 1.08 0 0 1-.956-.609l-.007-.007a1.056 1.062 0 0 1-.096-.45c0-.428.246-.801.612-.968l.007-.007zM72.85 6.077c.528-1.388 5.232-.862 10.507 1.203 5.282 2.075 9.113 4.85 8.592 6.246-.525 1.39-5.27.871-10.538-1.182-5.267-2.054-9.134-4.855-8.597-6.273Zm0 0"/></svg>
