<svg width="128" height="128" viewBox="0 0 128 128" xmlns="http://www.w3.org/2000/svg">
  <path style="fill:#000;fill-opacity:1;fill-rule:nonzero;stroke:none" d="M62.648 55.242a3.59 3.59 0 0 1-1.273-.234c-1.715-.653-2.617-2.512-2.148-4.235l-.016-.003.11-.297 8.718-22.586c.129-.332.07-1.133.008-1.574a.688.688 0 0 1 .012-.297l.004-.016c.011-.02.011-.035.023-.05.137-.368.562-.552 1.262-.552.836 0 1.992.262 3.175.715.993.38 1.899.86 2.536 1.34.75.559 1.043 1.067.882 1.5l-.027.05-.012.02a.596.596 0 0 1-.18.215c-.386.34-.949.914-1.046 1.172l-8.824 22.902-.016-.007a3.582 3.582 0 0 1-3.188 1.937zm-2.722-4.62-.028.058a2.935 2.935 0 0 0 1.696 3.754c.34.132.691.191 1.047.191a2.908 2.908 0 0 0 2.726-1.852l.035-.078 8.672-22.492c.184-.484 1.047-1.258 1.219-1.414l.016-.016c.023-.011.027-.023.027-.027l.012-.012c.007-.058-.07-.328-.68-.797-.586-.445-1.43-.886-2.379-1.25-1.094-.43-2.21-.68-2.96-.68-.497 0-.661.106-.688.157v.051c.02.133.183 1.289-.043 1.887zm0 0" transform="matrix(1.64037 0 0 1.64939 .002 .002)"/>
  <path style="fill:#000;fill-opacity:1;fill-rule:nonzero;stroke:none" d="M71.078 36.313s-1.2 1.378-2.3 1.874c-1.094.497-1.903.364-2.891.938a4.597 4.597 0 0 0-1.48 1.375l-4.005 10.398c-.433 1.172.207 2.547 1.403 3.008a2.348 2.348 0 0 0 3.004-1.316Zm-4.031 6.003a.37.37 0 0 1 .496.188.37.37 0 0 1-.191.496.37.37 0 0 1-.497-.191.359.359 0 0 1 .192-.493zm-1.613-1.714c.132-.051.28 0 .336.132.05.13 0 .278-.133.328-.13.055-.282 0-.332-.128a.263.263 0 0 1 .129-.332zm-1.766 5.882a.368.368 0 0 1-.496-.191.372.372 0 0 1 .191-.496.37.37 0 0 1 .496.191c.094.192.012.407-.191.496zm.36-1.363a.722.722 0 0 1 .355-.941c.36-.153.773 0 .941.355.156.36 0 .778-.36.942a.71.71 0 0 1-.937-.356zm.902 3.606c.132-.051.28 0 .332.128a.25.25 0 0 1-.13.333c-.132.05-.28 0-.335-.133a.253.253 0 0 1 .133-.328zm7.191-21.629c-1.246-.485-2.36-.606-2.484-.278-.13.328.781.98 2.031 1.457 1.242.48 2.36.602 2.484.278.13-.328-.78-.98-2.03-1.457zM18.836 39.195c.383.305 1.078.13 1.55-.383.489-.539.567-1.226.184-1.535-.383-.304-1.078-.132-1.55.41-.497.543-.582 1.204-.184 1.508Zm-1.14 1c-.102 0-.278.184-.13.25.207.078.305.254.305.516-.184 1.05-1.488 2.258-2.016 2.664-.128.133.055.41.184.305.281-.227.871-.688 1.36-1.305-.794 1.773-2.34 4.05-2.934 4.852-2.317 3.203-5.836 6.148-8.254 6.148-1.938 0-3.574-1.3-3.93-3.234-.023-.203-.304-.25-.254.027.438 2.644 2.477 3.66 4.942 3.66 2.695 0 5.867-1.957 7.61-3.945 2.82-3.23 4.66-6.942 4.163-9.043-.195-.79-.742-.922-1.047-.895Zm17.347 7.028c.742-.184 1.36-.59 1.36-1.235 0-.058-.133-.058-.133 0 0 .383-.434.696-.922.774-1.149.183-3.442-1.172-4.52-2.563 1.149.438 3.52-.199 4.633-.988 1.027-.738 1.437-1.566 1.523-2.234.13-1.094-1.082-1.747-2.75-1.094-1.082.433-2.367 1.379-3.703 3.152 1.414-2.336 4.188-6.125 6.918-8.555 3.317-2.949 5.242-2.382 2.262.739-1.227 1.273-3.547 2.945-5.148 3.664-.485.207-.25.484.105.332 1.7-.738 3.953-2.29 5.32-3.567 4.032-3.863.672-6.78-3.804-2.691-3.032 2.797-5.016 5.719-6.735 9.504-.59.715-1.027 1.305-1.574 1.773-.063.051-.113.114-.156.164-1.48 1.27-3.813 2.98-5.27 3.008-1.027.028-1.46-.738-1.277-1.75.277-1.558 1.906-3.402 3.293-4.047 1.797-.816 2.851.766.484 2.051-.898.461-1.984.715-2.422.715-.511 0-.457.207-.023.223.71.027 1.883-.278 2.648-.641 2.418-1.148 2.567-3.3-.054-3.379-2.856-.105-6.27 2.336-6.243 5.383.028 1.383 1.133 2.133 2.645 2.133 2.527-.028 4.785-1.95 6.621-3.625.262-.215.52-.461.774-.711-.645 1.64-.977 3.152-.817 4.273.106.817.563 1.2.922 1.512.078.05.227 0 .133-.156-.543-.645-.387-2.547.355-4.38.617 1.216 3.032 2.782 5.555 2.216zm-3.031-5.34c2.953-2.645 4.11-.281 2.238 1.144-.977.739-2.906 1.305-3.516.95l-.132-.079c-.079-.132-.157-.253-.207-.382.484-.594 1.054-1.121 1.617-1.633zm16.402-2.992c1.172.132.684-1.305-.516-.95-.539.16-1.054 1.176-1.437 2.082-1.176 1.77-3.16 4.168-4.555 5.43-1.23 1.047-2.37 1.324-.972-.644.562-.79 1.277-1.645 1.695-2.489.973-2.125-1.106-3.074-2.777-1.797-.977.739-2.29 2.286-3.317 3.13-.281.226-.21.566.078.327.817-.66 2.262-2.18 3.489-3.074 1.027-.789 1.437-.277.847.383-.82.95-2.265 2.59-2.625 3.64-.511 1.567.106 2.258 1.125 2.258 1.41 0 3.52-2.207 4.938-3.945a29.23 29.23 0 0 0 1.414-1.941c-1.23 2.379-2.52 4.793-4.113 6.965-2.262 3.074-5.094 5.382-7.766 5.382-1.938 0-3.602-1.296-3.957-3.23-.024-.203-.277-.25-.254.027.437 2.645 2.477 3.66 4.941 3.66 2.7 0 5.293-1.566 7.114-3.484 3.675-3.875 4.117-8.226 5.242-10.66.535-1.07 1.02-1.121 1.406-1.07zm14.941-3.746c.54-.918.516-1.637-.742-1.637-.949.023-2.672.683-3.465 1.3-.183.18-.105.282.13.18.16-.05.331-.152.515-.222.895-.489.539.539.332.922-1.082 1.874-2.98 4.507-3.98 5.82a19.35 19.35 0 0 1-1.551 1.832c-.965.914-2.875 2.539-4.309 3.078-4.687 1.742 1.278-6.207 1.774-6.84 1.105-1.383 3.574-3.789 4.308-4.996.543-.918.516-1.64-.734-1.64-.95.027-2.676.687-3.469 1.304-.184.184-.105.277.129.184.156-.055.336-.16.516-.23.898-.485.539.538.332.921-1.082 1.879-2.98 4.508-3.98 5.82-.821 1.098-1.829 2.207-2.595 2.817-.308.25-.132.484.184.277.277-.183.688-.594 1.148-1.078-.847 1.695-1.55 4.074.688 4.356 1.906.257 4.172-1.688 5.633-3.122.156-.156.34-.332.523-.52.043-.046.086-.089.13-.132-.845 1.695-1.54 4.066.698 4.344 2.446.332 5.477-2.946 6.653-4.145.226-.222.156-.617-.227-.222-.687.71-3.031 2.84-4.734 3.48-4.688 1.746 1.277-6.203 1.773-6.836 1.106-1.39 3.578-3.797 4.32-5.015zm0 0" transform="matrix(1.64037 0 0 1.64939 .002 .002)"/>
</svg>
