<svg xmlns="http://www.w3.org/2000/svg" viewBox="0 0 128 128"><path fill="#000000" d="M116.515 38.034c-1.212 0-1.947.32-2.185.96-.02.027-.02.054-.039.089l-.006.027a1.211 1.218 0 0 0-.02.517c.107.767.209 2.16-.015 2.738l-10.434 27.18c-.01.01-.013.008-.023.017-1.189 1.236-5.245 4.943-8.193 6.056-8.112 3.039 2.21-10.794 3.069-11.895 1.914-2.419 6.191-6.607 7.475-8.726.935-1.598.894-2.85-1.284-2.85-1.642.04-4.623 1.189-5.996 2.262-.316.313-.182.491.225.313.277-.087.572-.265.89-.387 1.549-.85.933.939.575 1.605-1.873 3.261-5.158 7.843-6.888 10.128a32.881 33.062 0 0 1-2.683 3.187c-1.67 1.59-4.976 4.418-7.457 5.356-8.111 3.031 2.212-10.8 3.07-11.902 1.912-2.406 6.185-6.593 7.455-8.693.94-1.598.892-2.854-1.271-2.854-1.644.047-4.63 1.195-6.003 2.269-.318.32-.182.483.223.321.27-.096.583-.278.894-.4 1.554-.844.933.935.575 1.601-1.873 3.27-5.158 7.845-6.888 10.128-1.421 1.91-3.167 3.84-4.492 4.902-.533.435-.228.842.319.482.48-.319 1.19-1.033 1.986-1.875-1.465 2.95-2.682 7.088 1.191 7.578 3.299.448 7.22-2.936 9.749-5.431.27-.272.588-.578.904-.905q.111-.119.225-.23c-1.462 2.949-2.664 7.076 1.21 7.56 3.794.518 8.277-3.902 10.657-6.349l-4.167 10.855-.19.517.027.004c-.811 2.999.75 6.235 3.718 7.37a6.23 6.264 0 0 0 2.202.407 6.195 6.23 0 0 0 5.518-3.371l.027.012 15.27-39.85c.169-.45 1.144-1.449 1.812-2.04a1.038 1.044 0 0 0 .311-.373l.02-.035.048-.09c.279-.753-.229-1.635-1.527-2.608-1.102-.835-2.67-1.671-4.389-2.332-2.047-.788-4.048-1.245-5.495-1.245m-.033 1.061c1.298 0 3.229.435 5.122 1.183 1.642.634 3.103 1.4 4.117 2.174 1.056.816 1.19 1.288 1.179 1.389l-.023.02c0 .007-.006.027-.045.046l-.03.029c-.297.271-1.789 1.618-2.107 2.46l-15.009 39.138-.06.136a5.036 5.064 0 0 1-4.718 3.222 4.9 4.9 0 0 1-1.812-.331 5.08 5.107 0 0 1-2.934-6.532l.048-.101 15.006-39.188c.392-1.04.111-3.053.077-3.284v-.089c.046-.088.329-.272 1.189-.272m1.42 1.095c-.485.002-.806.105-.887.319-.225.57 1.352 1.706 3.516 2.536 2.149.836 4.083 1.046 4.298.483.225-.571-1.35-1.705-3.513-2.535h-.002c-1.348-.527-2.606-.807-3.413-.803m-52.414 7.578c-1.712.164-3.945 1.197-6.365 3.42-5.247 4.868-8.682 9.952-11.657 16.538-1.02 1.245-1.777 2.27-2.724 3.085-.109.089-.195.2-.27.287-2.561 2.21-6.598 5.185-9.12 5.233-1.777.049-2.525-1.284-2.209-3.045.48-2.711 3.298-5.92 5.698-7.043 3.11-1.42 4.935 1.333.838 3.569-1.554.802-3.433 1.244-4.19 1.244-.885 0-.793.36-.042.388 1.229.047 3.259-.483 4.583-1.115 4.184-1.998 4.443-5.741-.093-5.879-4.942-.182-10.85 4.065-10.803 9.367.048 2.407 1.96 3.711 4.576 3.711 4.373-.048 8.281-3.392 11.459-6.307.453-.374.9-.803 1.34-1.238-1.117 2.854-1.691 5.486-1.414 7.436.183 1.422.973 2.087 1.594 2.63.135.086.394.001.231-.27-.94-1.123-.67-4.433.614-7.622 1.068 2.116 5.248 4.84 9.615 3.855 1.284-.32 2.353-1.027 2.353-2.15 0-.1-.231-.1-.231 0 0 .667-.75 1.213-1.595 1.348-1.988.319-5.956-2.038-7.822-4.459 1.989.763 6.092-.347 8.018-1.72 1.777-1.284 2.486-2.724 2.635-3.886.225-1.904-1.873-3.04-4.76-1.904-1.872.753-4.096 2.4-6.408 5.485 2.447-4.065 7.247-10.66 11.972-14.887 5.74-5.132 9.072-4.146 3.915 1.285-2.123 2.215-6.14 5.124-8.91 6.376-.84.36-.43.843.184.579 2.942-1.285 6.84-3.987 9.206-6.209 4.797-4.621 3.548-8.463-.218-8.102m54.02 9.26s-2.075 2.397-3.978 3.26c-1.894.865-3.293.635-5.003 1.634a7.96 8.004 0 0 0-2.564 2.392l-6.93 18.094c-.749 2.04.358 4.431 2.428 5.234a4.067 4.09 0 0 0 5.199-2.29zm-88.33 1.422c-.586.041-1.247.379-1.758.968-.86.945-1.006 2.097-.317 2.626.663.53 1.866.225 2.683-.668.846-.938.98-2.133.317-2.67-.249-.199-.574-.28-.925-.256m48.935 1.315a2.2 2.2 0 0 0-.717.096c-.933.279-1.824 2.046-2.487 3.623-2.035 3.08-5.467 7.253-7.881 9.45-2.13 1.821-4.103 2.303-1.684-1.121.973-1.375 2.21-2.863 2.934-4.332 1.684-3.697-1.913-5.35-4.805-3.128-1.69 1.286-3.963 3.978-5.74 5.446-.487.394-.365.987.133.571 1.414-1.148 3.914-3.793 6.038-5.349 1.777-1.373 2.488-.483 1.467.666-1.42 1.653-3.92 4.507-4.544 6.334-.884 2.726.184 3.93 1.948 3.93 2.44 0 6.09-3.842 8.545-6.867a50.187 50.463 0 0 0 2.448-3.377c-2.13 4.14-4.36 8.34-7.118 12.12-3.914 5.35-8.816 9.365-13.44 9.365-3.354 0-6.233-2.255-6.848-5.62-.041-.354-.48-.435-.44.047.756 4.602 4.287 6.369 8.55 6.369 4.673 0 9.161-2.725 12.312-6.062 6.36-6.743 7.126-14.314 9.073-18.55.926-1.861 1.763-1.95 2.431-1.862 1.775.201 1.35-1.688-.175-1.75m-52.984 4.018c-.177 0-.481.32-.225.434.358.136.528.443.528.899-.319 1.827-2.575 3.93-3.489 4.636-.221.231.096.712.32.53.486-.395 1.506-1.198 2.353-2.271-1.374 3.085-4.05 7.048-5.078 8.444-4.01 5.573-10.1 10.698-14.285 10.698-3.354 0-6.184-2.262-6.8-5.627-.04-.353-.527-.437-.44.045.757 4.601 4.287 6.37 8.552 6.37 4.664 0 10.153-3.405 13.17-6.864 4.88-5.62 8.065-12.08 7.205-15.737-.338-1.374-1.283-1.604-1.811-1.557m82.955.704a.42.42 0 0 1 .24.233c.087.226.002.484-.228.57-.225.097-.488.001-.575-.222a.455.458 0 0 1 .223-.577.47.47 0 0 1 .34-.004m-54.363.157c2.034-.114 2.285 2.363.057 4.067-1.69 1.286-5.029 2.27-6.084 1.653l-.23-.138c-.136-.23-.271-.44-.358-.664.838-1.033 1.824-1.95 2.799-2.841 1.597-1.438 2.89-2.025 3.816-2.077m57.311 2.81a.64.644 0 0 1 .36.347.64.644 0 0 1-.329.863.64.644 0 0 1-.861-.332.623.626 0 0 1 .334-.859.64.644 0 0 1 .496-.018m-4.63 3.161c.478-.008.934.256 1.152.72a1.253 1.253 0 0 1-.624 1.64 1.229 1.235 0 0 1-1.62-.62 1.246 1.253 0 0 1 .614-1.639c.156-.066.32-.098.478-.1m-1.743 2.9a.64.644 0 0 1 .359.348c.162.334.021.708-.33.863a.64.644 0 0 1-.86-.332.64.644 0 0 1 .332-.863.64.644 0 0 1 .499-.016m2.551 5.11a.4.4 0 0 1 .237.226.433.435 0 0 1-.227.581c-.228.087-.484-.001-.579-.232a.438.44 0 0 1 .231-.571.47.47 0 0 1 .338-.004"/></svg>
