<svg version="1.1" xmlns="http://www.w3.org/2000/svg" xmlns:xlink="http://www.w3.org/1999/xlink" viewBox="0 0 128 128">
<path fill="#EA1B22" d="M55.387,66.469h8.333l-4.407-7.09l-8.088,12.819h-3.681L57.382,56.8
	c0.428-0.622,1.14-0.998,1.931-0.998c0.765,0,1.478,0.363,1.892,0.972l9.876,15.424h-3.681l-1.736-2.865h-8.438L55.387,66.469z
	 M93.622,69.333V55.958h-3.123v14.685c0,0.402,0.156,0.791,0.454,1.089c0.298,0.298,0.7,0.466,1.141,0.466h14.244l1.841-2.865
	H93.622z M41.945,66.936c3.033,0,5.496-2.449,5.496-5.482s-2.462-5.496-5.496-5.496H28.28v16.241h3.123V58.822h10.335
	c1.452,0,2.618,1.18,2.618,2.631s-1.167,2.631-2.618,2.631l-8.806-0.013l9.324,8.127h4.538l-6.274-5.263H41.945z M9.059,72.198
	c-4.483,0-8.122-3.629-8.122-8.114s3.638-8.127,8.122-8.127h9.439c4.485,0,8.121,3.643,8.121,8.127s-3.636,8.114-8.121,8.114H9.059z
	 M18.288,69.333c2.905,0,5.258-2.346,5.258-5.249c0-2.903-2.353-5.263-5.258-5.263H9.267c-2.902,0-5.256,2.359-5.256,5.263
	c0,2.903,2.354,5.249,5.256,5.249H18.288z M77.602,72.198c-4.484,0-8.126-3.629-8.126-8.114s3.642-8.127,8.126-8.127h11.212
	l-1.829,2.864H77.81c-2.904,0-5.264,2.359-5.264,5.263c0,2.903,2.36,5.249,5.264,5.249h11.263l-1.84,2.865H77.602z M115.799,69.333
	c-2.397,0-4.433-1.607-5.055-3.824h13.35l1.84-2.864h-15.19c0.622-2.203,2.658-3.824,5.055-3.824h9.163l1.854-2.864h-11.225
	c-4.484,0-8.126,3.643-8.126,8.127s3.642,8.114,8.126,8.114h9.631l1.841-2.865H115.799"/>
</svg>
