<svg xmlns="http://www.w3.org/2000/svg" viewBox="0 0 128 128"><path fill="#EA1B22" d="M55.387 66.469h8.333l-4.407-7.09-8.088 12.819h-3.681l9.838-15.398c.428-.622 1.14-.998 1.931-.998.765 0 1.478.363 1.892.972l9.876 15.424h-3.681l-1.736-2.865h-8.438l-1.839-2.864zm38.235 2.864v-13.375h-3.123v14.685c0 .402.156.791.454 1.089.298.298.7.466 1.141.466h14.244l1.841-2.865h-14.557zm-51.677-2.397c3.033 0 5.496-2.449 5.496-5.482s-2.462-5.496-5.496-5.496h-13.665v16.241h3.123v-13.377h10.335c1.452 0 2.618 1.18 2.618 2.631s-1.167 2.631-2.618 2.631l-8.806-.013 9.324 8.127h4.538l-6.274-5.263h1.425zm-32.886 5.262c-4.483 0-8.122-3.629-8.122-8.114s3.638-8.127 8.122-8.127h9.439c4.485 0 8.121 3.643 8.121 8.127s-3.636 8.114-8.121 8.114h-9.439zm9.229-2.865c2.905 0 5.258-2.346 5.258-5.249 0-2.903-2.353-5.263-5.258-5.263h-9.021c-2.902 0-5.256 2.359-5.256 5.263 0 2.903 2.354 5.249 5.256 5.249h9.021zm59.314 2.865c-4.484 0-8.126-3.629-8.126-8.114s3.642-8.127 8.126-8.127h11.212l-1.829 2.864h-9.175c-2.904 0-5.264 2.359-5.264 5.263 0 2.903 2.36 5.249 5.264 5.249h11.263l-1.84 2.865h-9.631zm38.197-2.865c-2.397 0-4.433-1.607-5.055-3.824h13.35l1.84-2.864h-15.19c.622-2.203 2.658-3.824 5.055-3.824h9.163l1.854-2.864h-11.225c-4.484 0-8.126 3.643-8.126 8.127s3.642 8.114 8.126 8.114h9.631l1.841-2.865h-11.264"/></svg>