<svg xmlns="http://www.w3.org/2000/svg" viewBox="0 0 128 128"><path fill="#444876" d="M16.547 49.654c-4.521-.424-9.004 1.1-12.217 4.152-4.935 4.79-5.743 12.182-1.95 17.834l.74 1.023c.395.465.819.906 1.27 1.32.4.45.856.883 1.243 1.315l.23.172c.558.435.537.414.558.435.236.141.834.461 1.078.59l1.382.706.068.041.151.084 1.058.297c.348.11.712.21 1.068.295l.837.219c.218.029.17.015.218.029l.13.035 1.704.15c.284.024.678.034.945.065.207-.005.284-.017.442-.026l.117.008.102-.014 3.092-.418.218-.049.44-.165c.287-.098.571-.205.852-.32 0 0 1.51-.602 1.754-.723.433-.214.82-.457 1.214-.71.44-.282.866-.576 1.282-.9.064-.029.095-.091.143-.137 3.45-2.703 5.468-6.714 5.517-10.962 0-7.414-5.92-13.62-13.686-14.346Zm-1.487.193c8.226.001 14.894 6.337 14.895 14.153h.002c-.052 3.764-1.68 7.353-4.525 9.974v-1.146h-3.09v3.347l-.219.125v-4.173h-3.091v5.36a15.54 15.54 0 0 1-.22.052v-7.073h-3.09v7.582a16.144 16.144 0 0 1-.22-.01v-10h-3.091v9.856a16.144 16.144 0 0 1-.22-.01V66.28H9.1v10.564a15.432 15.432 0 0 1-.22-.074V66.675H5.79v8.223c-.073-.05-.146-.102-.219-.154v-5.877H2.48v2.498l-.006.013c-6.032-9.386 1.013-21.436 12.587-21.53ZM8.879 66.675v-.218h.002v-.395l3.53.002c0 1.118.007 1.45.007 1.75.953 0 1.38.003 1.982.006h-1.99l3.311.004v2.424l.002-2.424c0 1.395.006 2.418.006 2.418h3.3l.01 1.662 3.305.01v.693h3.317l-.01.85s2.305-2.274 3.203-5.381l-.552-.112-.552-.12-.552-.133-.551-.143-.552-.154-.552-.166-.552-.176-.551-.186-.552-.197-.552-.205-.552-.215-.551-.22-.552-.23-.552-.232-.552-.236-.551-.238-.552-.238-.552-.237-.552-.232-.551-.227-.552-.218-.552-.208-.552-.195-.551-.181-.552-.166-.552-.147-.552-.127-.551-.105-.552-.084-.552-.06-.552-.038-.551-.014-.552.014-.552.035-.552.063-.552.084-.551.105-.552.127-.552.147-.552.166-.551.181-.552.195-.552.208-.552.218-.551.227-.552.232-.552.237-.552.238-.551.238-.552.236-.552.233c.04 1.019.728 3.189 1.54 4.732 0-1.13.008-.964.008-1.91.982 0 3.071.006 3.304.006 0-1.428.006-1.822.006-2.191v-.008c.63 0 1.437.005 2.644.008H5.572l3.305.002c0-.195.002.066.002.216zm8.497-16.035c-.58.006-.724.77-.182.967-.61.207-.46 1.065.188 1.072.67.013.828-.885.188-1.078.518-.212.37-.945-.194-.959zm-1.058.194c-.632 0-.632.9 0 .9s.632-.9 0-.9zm-2.16.043a.287.287 0 0 0 0 .574c.438.035.438-.609 0-.574zm1.105.091c-.547 0-.547.78 0 .78s.547-.78 0-.78zm-4.801.356c-.568.026-.568.825 0 .851.568-.026.568-.825 0-.851zm9.223.056c-.536 0-.536.764 0 .764s.536-.764 0-.764zm-7.724.067c-.701.03-.701 1.014 0 1.043.765.032.765-1.075 0-1.043zm1.154.148c-.363 0-.363.516 0 .516s.363-.516 0-.516zm5.312.032a.298.298 0 0 0 0 .595.298.298 0 0 0 0-.595zm-8.942.074c-.515.025-.515.748 0 .773.515-.025.515-.748 0-.773zm6.768.027c-.703 0-.703 1.002 0 1.002s.703-1.002 0-1.002zm4.319.295c-.678 0-.678.965 0 .965.103 0 .203-.03.287-.086-.147.362.132.752.54.756.827.047.827-1.157 0-1.11a.606.606 0 0 0-.344.108c.108-.312-.137-.634-.483-.633zm-6.29.22c-.554.026-.554.803 0 .829a.414.414 0 0 0 0-.828zm5.02.094c-.596 0-.596.85 0 .85s.596-.85 0-.85zm-6.361.159c-.47 0-.47.668 0 .668s.47-.668 0-.668zm2.69.058c-.724 0-.724 1.032 0 1.032s.724-1.032 0-1.032zm-4.999.037c-.724 0-.724 1.032 0 1.032s.724-1.032 0-1.032zm11.808.079c-.413.022-.413.6 0 .623.462.025.462-.648 0-.623zm-4.12.13c-.547 0-.547.78 0 .78s.547-.78 0-.78zm-10.003.147c-.53.025-.53.77 0 .795.53-.025.53-.77 0-.795zm1.04.043c-.626.028-.626.905 0 .933.686.03.686-.963 0-.933zm7.342.035c-.358.02-.358.522 0 .543.404.023.404-.566 0-.543zm3.63.12c-.748 0-.748 1.066 0 1.066.749 0 .749-1.067 0-1.067zm-8.756.138c-.397 0-.397.566 0 .566s.397-.566 0-.566zm-4.788.05c-.43 0-.43.614 0 .614.406-.022.406-.59 0-.613zm16.336.018a.42.42 0 0 0 0 .838.42.42 0 0 0 0-.838zm-4.119.192c-.6.035-.654.855-.062.959-.581.21-.441 1.026.18 1.05.683-.035.737-.973.062-1.078.508-.2.37-.916-.18-.931zm-4.81.07a.496.496 0 0 0 0 .992c.742.045.742-1.037 0-.992zm-3.758.037c-.756.03-.756 1.093 0 1.123.756-.03.756-1.093 0-1.123zm2.644.006c-.579.026-.579.839 0 .865.637.03.637-.894 0-.865zm-5.305.129c-.592 0-.592.842 0 .842s.592-.842 0-.842zm13.78.047c-.48 0-.48.681 0 .681s.48-.681 0-.681zm-9.397.324c-.572 0-.572.814 0 .814s.572-.814 0-.814zm5.455.008c-.619 0-.619.88 0 .88s.619-.88 0-.88zm-8.29.021a.55.55 0 0 0-.557.504.537.537 0 0 0-.406-.187c-.703 0-.703 1.002 0 1.002a.516.516 0 0 0 .52-.458c.106.13.27.207.443.208.75 0 .75-1.069 0-1.069zm7.032.002zm-9.493.01c-.515.025-.515.748 0 .773.515-.025.515-.748 0-.773zm17.57.004c-.768 0-.768 1.094 0 1.094s.768-1.094 0-1.094zm-1.882.031c-.592.027-.592.858 0 .885.65.03.65-.914 0-.885zm-7.271.012c-.36 0-.36.512 0 .512s.36-.512 0-.512zm-1.653.24c-.693.029-.693 1.004 0 1.033.693-.029.693-1.004 0-1.033zm-7.8.076c-.47 0-.47.67 0 .67s.47-.67 0-.67zm15.064.184c-.51 0-.51.728 0 .728s.51-.728 0-.728zm2.54.13c-.747 0-.747 1.063 0 1.063s.747-1.062 0-1.062zm-12.763.13v.001c-.483.024-.483.7 0 .725.51 0 .51-.726 0-.726zm2.043.044c-.7 0-.7.997 0 .997s.7-.997 0-.997zm-1.053.051c-.617 0-.617.88 0 .88s.617-.88 0-.88zm13.788.043c-.512 0-.512.73 0 .73s.512-.73 0-.73zm-3.097.026a.488.488 0 0 0 0 .976c.75.065.75-1.04 0-.976zm52.636.02V74.67h1.789v-2.01h.056c.289.41.63.763 1.03 1.056.398.292.813.533 1.246.723.429.187.88.325 1.342.412.435.084.876.127 1.319.13.995 0 1.904-.159 2.725-.476.79-.3 1.512-.751 2.127-1.33a6.003 6.003 0 0 0 1.401-2.01c.334-.772.499-1.616.499-2.529 0-.91-.166-1.751-.5-2.525a6.006 6.006 0 0 0-1.4-2.01 6.378 6.378 0 0 0-2.127-1.324c-.821-.32-1.73-.479-2.725-.479a7.16 7.16 0 0 0-1.319.13 6.146 6.146 0 0 0-1.342.413 6.44 6.44 0 0 0-1.246.721c-.4.29-.741.642-1.03 1.055h-.056v-9.43zm-55.113.124c-.463 0-.463.66 0 .66s.463-.66 0-.66zm-1.647.014a.566.566 0 0 0-.54.42.507.507 0 0 0-.501-.405c-.686 0-.686.977 0 .977a.51.51 0 0 0 .495-.363.563.563 0 0 0 .546.457c.763 0 .763-1.086 0-1.086zm-2.07.047c-.571.026-.571.829 0 .855.629.029.629-.884 0-.855zm-8.081.101c-.757 0-.757 1.08 0 1.08s.757-1.08 0-1.08zm6.9.014zm-8.358.033c-.65 0-.65.926 0 .926s.65-.926 0-.926zm17.895.084a.328.328 0 0 0 0 .656v.002c.499.037.499-.695 0-.658zm-10.544.104c-.395 0-.395.562 0 .562s.395-.562 0-.562zm-4.199.082c-.501 0-.501.714 0 .714s.501-.714 0-.714zm-4.999.13c-.512 0-.512.73 0 .73s.512-.73 0-.73zm6.134.104c-.636 0-.636.906 0 .906s.636-.906 0-.906zm1.91.072c-.756.03-.756 1.093 0 1.123.756-.03.756-1.093 0-1.123zm12.428.057c-.571.026-.571.827 0 .853.629.029.629-.882 0-.853zm-5.212.193-.552.012-.552.037-.552.06-.551.085-.552.105-.552.127-.552.148-.551.165-.552.181-.552.195-.552.21-.551.216-.552.227-.552.232-.552.237-.551.238-.552.238-.552.236-.552.233-.552.228-.551.221-.552.215-.552.205-.552.197-.551.186-.552.176-.552.166-.552.154-.551.143-.552.132-.552.121-.552.114-.551.101-.552.092-.552.082C.504 63 .44 64.715.63 65.593l.636-.27.552-.236.551-.238.552-.236.552-.236.552-.233.551-.226.552-.22.552-.206.552-.196.551-.181.552-.166.552-.147.552-.127.551-.107.552-.084.552-.06.552-.036.552-.013.551.013.552.035.552.061.552.084.551.107.552.127.552.147.552.166.551.18.552.197.552.207.552.219.551.226.552.233.552.236.552.238.551.236.552.237.552.234.552.227.551.222.552.215.552.205.552.196.551.187.55.176.554.164.552.154.55.145.553.133.55.12.661.124c1.104-3.814.412-6.775-.63-9.227l-.58-.252-.553-.232-.551-.227-.552-.217-.552-.209-.552-.195-.551-.181-.552-.165-.552-.148-.552-.127-.551-.105-.552-.084-.552-.06-.552-.038zm-5.504.065c-.548 0-.548.78 0 .78s.548-.78 0-.78zm11.616.14c-.71 0-.71 1.01 0 1.01s.71-1.01 0-1.01zm-20.585.032c-.623.027-.623.904 0 .931.623-.027.623-.904 0-.931zm4.052.146a.417.417 0 0 0 0 .834c.627.041.627-.875 0-.834zm2.162.049c-.765 0-.765 1.09 0 1.09s.765-1.09 0-1.09zm-4.285.045c-.341 0-.341.486 0 .486s.341-.486 0-.486zm-.912.107c-.76 0-.76 1.082 0 1.082s.76-1.082 0-1.082zm-3.168.088c-.493 0-.493.701 0 .701.492 0 .492-.7 0-.7zm5.048.264c-.53 0-.53.754 0 .754s.53-.754 0-.754zm-2.95.25a.539.539 0 0 0-.53.426.481.481 0 0 0-.476-.387c-.623.027-.623.904 0 .931a.482.482 0 0 0 .474-.375c.04.251.265.438.532.442.696-.03.696-1.008 0-1.037zm5.032.103c-.71.03-.71 1.026 0 1.055.774.032.774-1.087 0-1.055zm-3.093.29v.001a.351.351 0 0 0 0 .702c.493 0 .493-.704 0-.704zm-4.606.119c-.516.025-.516.75 0 .775.572.028.572-.803 0-.775zm6.51.175c-.697 0-.697.994 0 .994s.697-.994 0-.994zm-2.935.094c-.416 0-.416.592 0 .592s.416-.592 0-.592zm-1.52.229c-.376.002-.646.343-.546.687a.559.559 0 0 0-.41-.182c-.731 0-.731 1.041 0 1.041.36 0 .621-.326.527-.656.107.12.263.19.429.192.714-.041.714-1.04 0-1.082zm3.382.078a.46.46 0 0 0 0 .918c.688.043.688-.961 0-.918zm-5.591.418c-.63 0-.63.896 0 .896s.63-.896 0-.896zm4.793.166c-.63 0-.63.896 0 .896s.63-.896 0-.896zm-1.61.283a.357.357 0 0 0 0 .713c.528.027.528-.74 0-.713zm-1.066.547c-.443 0-.443.63 0 .63s.443-.63 0-.63zm-.969.32c-.35 0-.35.5 0 .5s.35-.5 0-.5zm-2.15.133c-.643.028-.643.931 0 .959.673 0 .673-.96 0-.96zm36.682 1.81a6.8 6.8 0 0 0-1.738.221 4.98 4.98 0 0 0-1.504.658c-.441.29-.791.666-1.055 1.131-.262.464-.395 1.006-.395 1.623 0 .57.126 1.047.378 1.434.254.386.558.7.911.941.353.24.714.42 1.084.541.371.118.665.203.883.256l1.737.387c.667.153 1.236.365 1.704.633.473.266.709.7.709 1.3 0 .344-.086.645-.259.903a1.97 1.97 0 0 1-.679.63c-.28.163-.6.281-.962.36-.356.077-.72.116-1.084.117-.761 0-1.416-.163-1.968-.488a4.176 4.176 0 0 1-1.368-1.317l-1.548 1.004c.596.86 1.316 1.465 2.158 1.819.842.352 1.75.53 2.724.53.617 0 1.222-.072 1.82-.212a4.867 4.867 0 0 0 1.584-.656c.464-.3.836-.687 1.116-1.16.28-.472.42-1.034.42-1.686 0-.859-.295-1.576-.882-2.15-.588-.578-1.325-.96-2.213-1.149l-1.814-.41c-.833-.192-1.458-.416-1.874-.674-.415-.257-.622-.67-.622-1.236 0-.327.075-.602.229-.824.16-.227.368-.416.61-.553.254-.148.54-.255.855-.322a4.34 4.34 0 0 1 .937-.104c.65 0 1.2.145 1.654.438.451.293.814.688 1.085 1.185l1.603-1.004c-.419-.792-1.009-1.35-1.769-1.675a6.15 6.15 0 0 0-2.467-.49zm13.213 0c-.904 0-1.745.159-2.524.479a6.252 6.252 0 0 0-2.035 1.326 6.15 6.15 0 0 0-1.356 2.01 6.45 6.45 0 0 0-.49 2.523c0 .913.167 1.758.502 2.532a6.278 6.278 0 0 0 1.373 2.007 6.21 6.21 0 0 0 2.074 1.33 7.092 7.092 0 0 0 2.618.475 7.332 7.332 0 0 0 2.94-.592c.916-.397 1.755-1.05 2.511-1.96l-1.383-1.085c-.36.55-.892 1.036-1.589 1.457-.695.422-1.521.633-2.479.633a4.594 4.594 0 0 1-1.763-.334 4.784 4.784 0 0 1-1.436-.918 4.534 4.534 0 0 1-1.006-1.377 4.916 4.916 0 0 1-.461-1.7h10.579v-.774c0-.827-.136-1.604-.407-2.334a5.474 5.474 0 0 0-1.182-1.905c-.515-.543-1.153-.977-1.913-1.302-.758-.328-1.615-.49-2.573-.49zm14.621 0c-2.388 0-4.177.584-5.37 1.752l1.085 1.211c1.102-.944 2.394-1.416 3.878-1.416 2.17 0 3.256 1.04 3.256 3.117v.31h-.894c-.76 0-1.599.035-2.514.105-.912.067-1.772.24-2.577.515-.803.274-1.47.69-2.004 1.248s-.802 1.327-.802 2.307c0 .586.12 1.097.364 1.535.24.43.574.808.98 1.107.407.3.87.523 1.393.668a6.01 6.01 0 0 0 1.634.223c1.028 0 1.899-.176 2.614-.527.714-.355 1.335-.936 1.86-1.74h.052c0 .324.015.658.043 1.001.029.344.07.663.123.956h1.732a17.774 17.774 0 0 1-.147-1.249c-.044-.484-.066-.97-.067-1.457v-5.39c0-.738-.127-1.372-.381-1.904a3.875 3.875 0 0 0-1.002-1.329 4.073 4.073 0 0 0-1.48-.785 6.126 6.126 0 0 0-1.774-.258zm31.439 0c-.975 0-1.877.159-2.702.479a6.378 6.378 0 0 0-2.127 1.326 6.09 6.09 0 0 0-1.399 2.01 6.306 6.306 0 0 0-.5 2.523c0 .913.166 1.758.5 2.532.326.757.801 1.44 1.399 2.007a6.428 6.428 0 0 0 2.127 1.33c.825.317 1.727.475 2.702.475.995 0 1.902-.158 2.723-.475a6.418 6.418 0 0 0 2.133-1.33 6.037 6.037 0 0 0 1.395-2.01c.342-.8.514-1.66.505-2.529a6.268 6.268 0 0 0-.505-2.525 6.04 6.04 0 0 0-1.395-2.01 6.368 6.368 0 0 0-2.133-1.324c-.821-.32-1.728-.479-2.723-.479zm15.98 0c-.563 0-1.065.073-1.51.221a4.26 4.26 0 0 0-1.165.58c-.322.228-.61.5-.853.81-.235.3-.415.614-.542.942h-.055V62.61h-1.763c.017.875.04 1.587.066 2.137.028.55.043 1.09.043 1.623v8.3h1.789v-6.806c0-.41.076-.84.229-1.285.162-.458.406-.883.722-1.252.324-.387.73-.705 1.219-.955.488-.25 1.076-.373 1.762-.373.453 0 .796.043 1.032.129l.352-1.676a5.129 5.129 0 0 0-1.327-.153zm9.616 0c-.416 0-.837.057-1.264.17-.42.109-.825.264-1.207.463a4.917 4.917 0 0 0-1.031.71c-.309.273-.56.574-.758.902h-.056c0-.328-.004-.652-.012-.97a11.182 11.182 0 0 0-.069-.964h-1.843c.036.445.068.917.094 1.416.028.497.041.91.041 1.236v9.409h1.79v-6.186c0-1.1.18-1.961.543-2.578.361-.618.771-1.079 1.232-1.389.463-.31.903-.501 1.319-.568.416-.07.669-.104.76-.104 1.318 0 2.222.357 2.71 1.07.49.713.735 1.737.735 3.077v6.678H128v-7.657c0-1.51-.388-2.674-1.164-3.49-.778-.816-1.98-1.225-3.608-1.225zm-71.656 1.547c1.3 0 2.312.357 3.036 1.07.724.713 1.084 1.644 1.084 2.796h-8.57c0-.5.12-.98.364-1.442.246-.464.578-.883.98-1.236.407-.363.881-.65 1.423-.865a4.53 4.53 0 0 1 1.683-.323zm30.192 0c.741 0 1.406.125 1.994.375.587.25 1.089.589 1.504 1.018.418.43.74.937.965 1.523.226.582.34 1.207.34 1.875 0 .671-.114 1.3-.34 1.885a4.464 4.464 0 0 1-2.469 2.539c-.588.25-1.254.373-1.994.373a5.372 5.372 0 0 1-2.039-.375 5.068 5.068 0 0 1-1.596-1.02 4.62 4.62 0 0 1-1.061-1.517 4.723 4.723 0 0 1-.378-1.885c0-.668.127-1.293.378-1.875a4.609 4.609 0 0 1 1.06-1.523c.452-.43.984-.769 1.597-1.018a5.378 5.378 0 0 1 2.039-.375zm15.868 0c.742 0 1.408.125 1.996.375.588.25 1.09.589 1.504 1.018.416.43.735.937.96 1.523.23.598.345 1.234.341 1.875 0 .671-.114 1.3-.34 1.885a4.496 4.496 0 0 1-.96 1.518c-.427.438-.94.786-1.505 1.021-.588.25-1.253.373-1.996.373-.742 0-1.406-.125-1.994-.375a4.39 4.39 0 0 1-1.493-1.02 4.6 4.6 0 0 1-.947-1.517 5.184 5.184 0 0 1-.338-1.885c0-.668.112-1.293.338-1.875a4.59 4.59 0 0 1 .95-1.523 4.35 4.35 0 0 1 1.492-1.018c.587-.25 1.251-.375 1.992-.375zm-29.513 4.819h.923v.875a4.803 4.803 0 0 1-.233 1.51c-.146.46-.39.882-.718 1.236-.338.361-.75.647-1.207.838-.48.206-1.044.31-1.694.31-.361 0-.721-.04-1.073-.117a3.043 3.043 0 0 1-.962-.387 2.1 2.1 0 0 1-.693-.691c-.172-.285-.258-.627-.258-1.024 0-.602.223-1.074.667-1.418a4.362 4.362 0 0 1 1.597-.757 10.24 10.24 0 0 1 1.954-.309c.565-.039 1.13-.06 1.697-.064z"/></svg>
