<svg xmlns="http://www.w3.org/2000/svg" viewBox="0 0 128 128"><defs><linearGradient id="a" x1="4.154" x2="4.154" y1="108.707" y2="23.639" gradientTransform="translate(-4.294 -1.099) scale(1.03354)" gradientUnits="userSpaceOnUse"><stop offset="0" stop-color="#a51415"/><stop offset=".5" stop-color="#d81511"/><stop offset="1" stop-color="#bf100d"/></linearGradient></defs><path fill="url(#a)" d="m128 16.744-24.67 42.729-6.715-11.642H84.682L95.35 66.324l-4.715 8.17L96.602 84.8l6.773-11.702 20.732 35.91 3.893 2.249v-16.18l-16.646-28.831L128 37.415zM0 23.334v61.465h10.336V33.668h3.209l5.37 9.303-7.522 4.34v14.65l13.185 22.838h11.938L19.172 54.757l13.861-8.003-13.521-23.42zm33.283 24.498-12.666 7.313 17.12 29.654h19.497l4.133-7.159V65.29l-10.336 5.966v3.589H43.17v-.826l22.549-12.986-7.614-13.203zm25.922 0 10.293 17.842-11.043 19.124h11.938l6.517-11.29 6.518 11.29h11.935L84.32 65.673l4.717-8.168-5.576-9.674-6.28 10.895-6.28-10.895zm-25.19 10.336H49.99L38.004 65.07z" color="#000" style="-inkscape-stroke:none"/><path d="M60.777 87.098v.775h1.057v3.584c0 .554.817 1 1.83 1h3.645c1.013 0 1.83-.446 1.83-1v-3.584h1.056v-.775h-3.074v4.088c0 .277-.446.5-1 .5h-1.27c-.553 0-1-.223-1-.5v-4.088zm13.032 0-2.233 4.605h-.974v.754h2.71l.713-1.68h2.643l.799 1.68h2.578v-.754h-.93l-2.365-4.605zm1.462.738 1.04 2.187h-1.967zm-32.835-.738v.754h1.007v3.851h-1.007v.754h2.832v-3.775l4.468 3.775h1.596v-4.605h.938v-.754h-2.754v3.457l-4.092-3.457zm-7.002 0L33.2 91.703h-.974v.754h2.71l.713-1.68h2.643l.799 1.68h2.578v-.754h-.93l-2.365-4.605zm1.462.738 1.04 2.187h-1.967zM24.4 87.098v.754h.9v3.851h-.9v.754h7.29v-1.88h-1.917v1.126h-2.421v-3.851h.9v-.754zm30.498 0c-1.108 0-2 .446-2 1v3.359c0 .554.892 1 2 1h5.385v-3.102H56.5v.807h1.922v1.514h-2.637c-.554 0-1-.223-1-.5V88.38c0-.277.446-.5 1-.5h2.553v.898h1.834v-1.681zm27.75 0c-1.108 0-2 .446-2 1v3.359c0 .554.892 1 2 1h5.385v-3.102H84.25v.807h1.922v1.514h-2.637c-.554 0-1-.223-1-.5V88.38c0-.277.446-.5 1-.5h2.553v.898h1.834v-1.681zm5.95 0v.705h1.051v3.95H88.6v.705h8.005v-1.643h-1.816v.938H91.58v-1.7h3.426v-.742H91.58v-1.508h3.023v.938h1.817v-1.643zM18.563 16.561v.705h1.05v3.949h-1.05v.705h8.005v-1.643h-1.816v.938h-3.207v-1.7h3.426v-.742h-3.426v-1.507h3.023v.937h1.817v-1.642zm-9.672 0v.705h1.033v3.949H8.89v.705h2.96v-2.281h3.223v2.28l2.961.001v-.705h-1.033v-3.95h1.033v-.704h-2.96v2.28h-3.223v-2.28zM0 16.56v1.492h1.73v-.746h1.58v3.84H2.308v.773h3.896v-.774H5.2v-3.84h1.58v.747h1.73V16.56z"/><path d="m32.744 46.254.29.5h77.64l.289-.5H32.744z" /></svg>
