<?xml version="1.0" encoding="UTF-8" standalone="no"?>
<svg
   width="128"
   height="128"
   viewBox="0 0 128 128"
   version="1.1"
   id="svg4"
   sodipodi:docname="REXX.svg"
   inkscape:version="1.3.2 (091e20e, 2023-11-25, custom)"
   xmlns:inkscape="http://www.inkscape.org/namespaces/inkscape"
   xmlns:sodipodi="http://sodipodi.sourceforge.net/DTD/sodipodi-0.dtd"
   xmlns="http://www.w3.org/2000/svg"
   xmlns:svg="http://www.w3.org/2000/svg"
   xmlns:rdf="http://www.w3.org/1999/02/22-rdf-syntax-ns#"
   xmlns:cc="http://creativecommons.org/ns#"
   xmlns:dc="http://purl.org/dc/elements/1.1/">
  <defs
     id="defs4" />
  <sodipodi:namedview
     id="namedview4"
     pagecolor="#ffffff"
     bordercolor="#111111"
     borderopacity="1"
     inkscape:showpageshadow="0"
     inkscape:pageopacity="0"
     inkscape:pagecheckerboard="1"
     inkscape:deskcolor="#d1d1d1"
     inkscape:zoom="4.2592135"
     inkscape:cx="79.709552"
     inkscape:cy="48.483129"
     inkscape:window-width="1920"
     inkscape:window-height="1009"
     inkscape:window-x="-8"
     inkscape:window-y="-8"
     inkscape:window-maximized="1"
     inkscape:current-layer="svg4" />
  <title
     id="title1">file_type_rexx</title>
  <path
     d="m 35.798986,83.446331 c 0,0.795425 -0.603426,0.635426 -1.087995,0.635426 -2.943987,0 -5.892545,0 -8.841104,0.032 A 1.490279,1.490279 0 0 1 24.397894,83.263475 Q 17.828781,72.314953 11.227668,61.393859 A 3.2319854,3.2319854 0 0 1 10.84367,59.601867 c 0,-3.451413 0.02743,-6.898255 -0.02743,-10.349668 a 2.0297052,2.0297052 0 0 1 1.179424,-2.084562 c 1.828563,-0.996566 3.501698,-2.203419 5.316547,-3.199985 1.119995,-0.603427 1.161138,-1.129138 0.507427,-2.153134 -1.618279,-2.527988 -3.199986,-5.078834 -4.60798,-7.739393 -0.804568,-1.545136 -2.04799,-1.289137 -3.199985,-1.13371 -1.151995,0.155429 -0.612569,1.33028 -0.612569,2.015991 q -0.05486,23.149611 -0.02743,46.290078 c 0,2.605702 0,2.610274 -2.6971314,2.605702 -1.6914209,0 -3.3919847,-0.08228 -5.0788342,0 C 0.4071453,83.944615 2.9e-4,83.656616 2.9e-4,82.362908 q 0.0594287,-28.703871 0,-57.3986 c 0,-1.142852 0.2925701,-1.49485 1.4719934,-1.476564 q 7.8033936,0.08686 15.6159296,0 a 2.084562,2.084562 0 0 1 2.066277,1.197709 c 4.201124,7.035397 8.457105,14.038793 12.69937,21.051334 0.05486,0.914282 -0.767996,1.060566 -1.311994,1.371421 -3.547412,2.093706 -7.067396,4.242267 -10.701665,6.180545 -1.430851,0.763424 -1.206852,1.407993 -0.553141,2.495988 2.866273,4.758836 5.673118,9.554243 8.521105,14.326793 q 3.977125,6.68797 7.990821,13.334797 z"
     style="fill:#f70000;stroke-width:4.57141"
     id="path1" />
  <path
     d="m 60.219448,79.281779 a 4.8091212,4.8091212 0 0 0 -0.726855,1.078852 c -1.005709,2.994272 -3.039986,3.76684 -6.111972,3.579412 -4.722264,-0.287999 -9.476529,-0.06857 -14.217078,-0.07314 -0.671997,0 -1.371423,0.159999 -1.919992,-0.457141 A 3.5382698,3.5382698 0 0 0 36.996694,82.719477 C 31.72129,73.914946 26.482457,65.096699 21.133909,56.324167 c -0.740568,-1.215995 -0.71314,-1.782849 0.635426,-2.486846 3.433127,-1.796563 6.779397,-3.748554 10.13024,-5.691402 a 5.1016913,5.1016913 0 0 1 2.669702,-0.703997 c 7.154254,0.02743 14.303936,0.04571 21.45819,0 a 2.084562,2.084562 0 0 1 2.107418,1.13828 c 1.929134,3.291414 3.835412,6.610256 5.94283,9.778242 1.087995,1.618279 0.667426,2.226276 -0.868567,3.0857 -6.445685,3.588556 -12.799942,7.314253 -19.199913,10.998808 -0.457141,0.251427 -1.234281,0.333713 -1.042282,1.097137 0.192,0.763426 0.873139,0.767997 1.531423,0.763426 1.435421,0 2.875415,-0.08229 4.301694,0.04114 1.316565,0.114285 1.631993,-0.434284 1.522279,-1.613707 -0.07771,-0.845711 -0.164571,-1.677707 0.863996,-2.249133 3.588555,-1.997706 7.122253,-4.114267 11.044522,-6.3634 -0.740568,5.275405 1.243423,10.518809 -2.011419,15.163361 z M 50.13035,57.549304 50.075493,57.247592 H 33.033284 c 1.444565,2.399989 2.797702,4.571408 4.054839,6.774826 0.457141,0.799997 0.914282,0.457141 1.371423,0.196571 q 5.84683,-3.318843 11.670804,-6.669685 z"
     style="fill:#f70000;stroke-width:4.57141"
     id="path2" />
  <path
     d="m 88.685604,56.685308 c -1.371421,2.591989 -2.715415,5.202263 -4.114266,7.771394 -0.594283,1.078852 -0.146285,1.869706 0.402283,2.742845 3.337128,5.417119 6.642256,10.857094 10.16224,16.617068 -3.894839,0 -7.483395,0 -11.067379,0 -0.649139,0 -0.713139,-0.607997 -0.964566,-1.014852 -2.153134,-3.5017 -4.310838,-7.003398 -6.610257,-10.733667 -2.020562,3.515413 -4.004553,6.834255 -5.837687,10.230812 a 2.633131,2.633131 0 0 1 -2.797702,1.572564 c -2.870844,-0.109714 -5.741689,-0.032 -8.754246,-0.032 0.525711,-1.791992 1.956562,-2.934844 2.331418,-4.598836 2.482274,-4.242267 4.927978,-8.507391 7.469681,-12.717657 a 2.285704,2.285704 0 0 0 0,-2.811416 C 65.604565,58.449872 62.43658,53.096754 59.209166,47.752778 c 0.978282,-0.585141 1.974848,-0.05029 2.834273,-0.457141 2.313132,0.04114 4.630837,0.19657 6.930254,0.08229 a 2.6834165,2.6834165 0 0 1 2.69256,1.513136 c 1.522278,2.43656 3.108557,4.831979 4.649122,7.254825 0.55314,0.863996 0.94171,1.215994 1.613707,0 1.549707,-2.779417 3.222842,-5.485691 4.850264,-8.228535 a 0.71313965,0.71313965 0 0 1 0.795424,-0.02743 v 0.05029 c 0.137143,0.269714 0.255999,0.543997 0.402285,0.809139 a 72.488816,72.488816 0 0 1 4.708549,7.935964 z"
     style="fill:#f70000;stroke-width:4.57141"
     id="path3" />
  <path
     d="m 126.04772,40.872809 a 31.044431,31.044431 0 0 1 1.95199,-2.646845 V 18.63748 c -0.88228,-0.265142 -1.11999,0.507426 -1.4217,0.991996 -1.08343,1.75542 -2.07999,3.570269 -3.13142,5.348547 Q 117.2889,35.377976 111.10379,45.7825 l -0.56229,0.740569 c -1.3257,3.31427 -3.56569,6.116544 -5.19311,9.261672 -0.48914,0.94171 -1.07428,1.828563 -1.67771,2.857131 a 9.6502422,9.6502422 0 0 1 -2.13942,-2.998844 c -1.57713,-2.413704 -3.10398,-4.854836 -4.617121,-7.314253 -0.347427,-0.557711 -0.626283,-0.996568 -1.412565,-0.987425 -3.323413,0.04114 -6.651398,0 -9.974812,0 -0.457141,0 -0.914282,-0.032 -0.836568,0.64457 a 51.771196,51.771196 0 0 1 5.229691,8.292533 c 1.782849,2.793131 3.542841,5.595404 5.353119,8.370248 a 1.7554207,1.7554207 0 0 1 -0.105143,2.079991 c -1.23428,2.107419 -2.43656,4.228552 -3.657126,6.354257 -0.22857,0.406856 -0.749711,0.749711 -0.379427,1.334851 l 5.769116,9.142816 6.724536,-11.158806 9.06511,15.145074 4.53483,7.437681 a 5.8788306,5.8788306 0 0 1 0.34286,0.498284 c 1.6457,2.811415 3.3737,5.577121 5.05598,8.365681 v 0.0274 -0.0274 c 0.544,0.91428 1.08342,1.82856 1.6137,2.74284 a 5.7416884,5.7416884 0 0 0 3.73027,2.82513 V 92.840574 c -3.07198,-5.00112 -6.15768,-9.993098 -9.21596,-15.007932 -2.18056,-3.579413 -4.29712,-7.204539 -6.50511,-10.770237 a 2.2125614,2.2125614 0 0 1 -0.0869,-2.587417 c 4.66284,-7.85825 9.25253,-15.743929 13.88794,-23.602179 z"
     style="fill:#f70000;stroke-width:4.57141"
     id="path4" />
  <metadata
     id="metadata4">
    <rdf:RDF>
      <cc:Work
         rdf:about="">
        <dc:title>file_type_rexx</dc:title>
      </cc:Work>
    </rdf:RDF>
  </metadata>
</svg>
