<svg xmlns="http://www.w3.org/2000/svg" viewBox="0 0 128 128"><path fill="#d81511" d="m128 16.743-17.037 29.51H32.744l-13.232-22.92H0v61.465h10.336V33.667h3.209l5.37 9.303-7.522 4.342V61.96l13.185 22.838h11.938L19.172 54.757l13.861-8.004h77.64l-7.343 12.719-6.715-11.641H84.682L95.35 66.323l-4.715 8.17L96.602 84.8l6.773-11.701 20.732 35.91 3.893 2.248v-16.18l-16.646-28.832L128 37.415zM58.105 47.83l-24.822.002-12.666 7.313 17.12 29.654h19.497l4.133-7.158V65.288l-10.336 5.969v3.588H43.17v-.826l22.549-12.987zm1.1.002 10.293 17.842-11.043 19.125h11.938l6.517-11.29 6.518 11.29h11.935L84.32 65.673l4.717-8.168-5.576-9.674-6.28 10.895-6.28-10.895zm-25.19 10.336H49.99L38.004 65.07z"/></svg>
