<?xml version="1.0" encoding="UTF-8" standalone="no"?>
<svg
   width="128"
   height="128"
   viewBox="0 0 128 128"
   version="1.1"
   id="svg3"
   sodipodi:docname="Nunjucks.svg"
   inkscape:version="1.3.2 (091e20e, 2023-11-25, custom)"
   xmlns:inkscape="http://www.inkscape.org/namespaces/inkscape"
   xmlns:sodipodi="http://sodipodi.sourceforge.net/DTD/sodipodi-0.dtd"
   xmlns="http://www.w3.org/2000/svg"
   xmlns:svg="http://www.w3.org/2000/svg"
   xmlns:rdf="http://www.w3.org/1999/02/22-rdf-syntax-ns#"
   xmlns:cc="http://creativecommons.org/ns#"
   xmlns:dc="http://purl.org/dc/elements/1.1/">
  <defs
     id="defs3" />
  <sodipodi:namedview
     id="namedview3"
     pagecolor="#ffffff"
     bordercolor="#111111"
     borderopacity="1"
     inkscape:showpageshadow="0"
     inkscape:pageopacity="0"
     inkscape:pagecheckerboard="1"
     inkscape:deskcolor="#d1d1d1"
     inkscape:zoom="4.2592135"
     inkscape:cx="61.161527"
     inkscape:cy="67.26594"
     inkscape:window-width="1920"
     inkscape:window-height="1009"
     inkscape:window-x="-8"
     inkscape:window-y="-8"
     inkscape:window-maximized="1"
     inkscape:current-layer="svg3" />
  <title
     id="title1">file_type_nunjucks</title>
  <path
     d="M 0,0 H 128 V 128 H 0 V 0 m 16.498286,15.698286 q 0,46.290285 0,92.585144 h 15.904 q 0,-20.146287 0,-40.297144 5.796571,20.150857 11.593143,40.297144 7.940571,0 15.881142,0 0,-46.290287 0,-92.585144 c -5.339428,0 -10.678857,0 -16,0 0,12.612571 0,25.225143 0,37.842285 Q 38.089143,34.614857 32.269714,15.698286 q -7.885714,0 -15.771428,0 m 78.88,21.942857 q 0,27.291428 0,54.582857 H 83.821714 c 0,-5.6 0,-11.2 0,-16.8 -5.348571,1.252571 -10.706285,2.477714 -16.059428,3.721143 q 0,8.429714 0,16.859428 a 19.154286,19.154286 0 0 0 0.352,5.028569 9.9977143,9.9977143 0 0 0 3.945143,5.57257 9.4948571,9.4948571 0 0 0 5.453714,1.696 q 10.884571,0 21.773717,0 a 18.550857,18.550857 0 0 0 4.93714,-0.36571 10.130286,10.130286 0 0 0 5.70057,-4.256 9.7645714,9.7645714 0 0 0 1.536,-5.52686 q 0,-30.24914 0,-60.498283 z"
     style="fill:#1c4913;stroke-width:4.57143"
     id="path1" />
  <path
     d="m 16.498286,15.698286 q 7.885714,0 15.771428,0 Q 38.08,34.619429 43.872,53.545143 c -0.032,-12.612572 0,-25.225143 0,-37.842286 5.339429,0 10.678857,0 16,0 q 0,46.290286 0,92.585143 -7.940571,0 -15.881143,0 -5.805714,-20.146286 -11.593143,-40.297143 0,20.150857 0,40.297143 H 16.498286 q 0,-46.294857 0,-92.589714 z"
     style="fill:#fefffc;stroke-width:4.57143"
     id="path2" />
  <path
     d="m 95.382857,37.636571 h 16.064003 q 0,30.249143 0,60.498289 a 9.7645714,9.7645714 0 0 1 -1.536,5.52685 10.130286,10.130286 0 0 1 -5.70057,4.256 18.550857,18.550857 0 0 1 -4.93715,0.36572 q -10.88914,0 -21.773711,0 a 9.4948571,9.4948571 0 0 1 -5.453715,-1.696 9.9977143,9.9977143 0 0 1 -3.931428,-5.55886 A 19.154286,19.154286 0 0 1 67.762286,96 q 0,-8.429714 0,-16.859429 c 5.353143,-1.248 10.710857,-2.473142 16.059428,-3.721142 0,5.6 0,11.2 0,16.8 h 11.561143 q 0,-27.305143 0,-54.582858 z"
     style="fill:#fefffc;stroke-width:4.57143"
     id="path3" />
  <metadata
     id="metadata3">
    <rdf:RDF>
      <cc:Work
         rdf:about="">
        <dc:title>file_type_nunjucks</dc:title>
      </cc:Work>
    </rdf:RDF>
  </metadata>
</svg>
