<svg xmlns="http://www.w3.org/2000/svg" viewBox="0 0 128 128"><path fill="#abd038" d="M54.809 43.161a3427.622 3427.622 0 0 0 4.862-7.618c-8.308.625-15.991 2.782-22.491 6.07 1.001 1.873 2.3 4.226 3.302 6.046a43.678 43.678 0 0 1 11.141-2.548 4.304 4.304 0 0 0 3.186-1.95z"/><path fill="#ee332d" d="M85.139 55.148c1.807.858 3.562 1.118 6.019 1.118 4.497 0 12.987.013 17.654.026-4.108-6.826-11.154-12.506-19.981-16.224-3.133 2.093-12.103 8.099-13.533 9.047 5.667 2.769 8.059 5.187 9.84 6.033z"/><path fill="#f2ba1a" d="M61.387 35.439c-.246.728-2.456 7.358-3.158 9.503 3.562.156 6.994.702 10.205 1.599a7.907 7.907 0 0 0 5.733-.572l12.948-6.604c-6.695-2.561-14.313-4.018-22.412-4.018a71.487 71.487 0 0 0-3.316.092z"/><path fill="#3dae2b" d="m19.41 58.06 4.199.013a4.042 4.042 0 0 0 2.977-1.3c2.275-2.482 5.07-4.666 8.28-6.474a3.124 3.124 0 0 0 1.574-3.211 611.324 611.324 0 0 0-.741-4.68c-7.32 3.965-13.014 9.373-16.29 15.652z"/><path fill="#010101" d="M121.11 61.518h-.962v2.508h-.845v-2.508h-.975v-.729h2.782zm3.991-.729v3.237h-.793V61.57h-.013l-.676 2.456h-.65l-.676-2.456h-.013v2.456h-.794V60.79h1.248l.56 2.159.56-2.159M20.852 64.221a10.97 10.97 0 0 0-3.784-2.833c-1.482-.702-3.172-1.053-5.043-1.053-1.873 0-3.55.35-5.044 1.053A11.58 11.58 0 0 0 3.2 64.22a12.675 12.675 0 0 0-2.366 4.174A15.432 15.432 0 0 0 0 73.439c0 1.794.273 3.497.832 5.082.546 1.586 1.339 2.977 2.366 4.174 1.027 1.196 2.288 2.131 3.783 2.82 1.482.69 3.172 1.041 5.044 1.041 1.872 0 3.549-.35 5.043-1.04a11.185 11.185 0 0 0 3.784-2.821 12.67 12.67 0 0 0 2.366-4.174 15.546 15.546 0 0 0 .832-5.082c0-1.781-.273-3.459-.832-5.044a12.65 12.65 0 0 0-2.365-4.174zM19.214 76.95c-.299 1.144-.74 2.171-1.352 3.068a6.864 6.864 0 0 1-2.366 2.159c-.975.532-2.131.806-3.458.806-1.339 0-2.482-.273-3.458-.806a6.625 6.625 0 0 1-2.366-2.159 9.507 9.507 0 0 1-1.352-3.068 13.805 13.805 0 0 1-.442-3.51c0-1.195.144-2.365.442-3.51.3-1.144.741-2.171 1.352-3.068a6.988 6.988 0 0 1 2.366-2.158c.976-.533 2.132-.807 3.458-.807 1.339 0 2.483.273 3.458.807a6.625 6.625 0 0 1 2.366 2.158 9.507 9.507 0 0 1 1.352 3.068 13.8 13.8 0 0 1 .442 3.51 14.44 14.44 0 0 1-.442 3.51zm23.452-6.786a7.463 7.463 0 0 0-2.652-2.066c-1.066-.507-2.314-.754-3.744-.754a7.824 7.824 0 0 0-3.263.689c-1.013.455-1.794 1.208-2.353 2.261h-.065v-2.47h-3.796v24.83h4.004v-9.048h.065c.3.495.689.923 1.144 1.274a6.43 6.43 0 0 0 1.495.897 7.45 7.45 0 0 0 1.69.507 9.982 9.982 0 0 0 1.754.156c1.34 0 2.496-.26 3.484-.793a7.094 7.094 0 0 0 2.445-2.106c.65-.871 1.131-1.885 1.443-3.029.312-1.143.467-2.326.467-3.549a13 13 0 0 0-.532-3.757 9.014 9.014 0 0 0-1.586-3.042zm-2.157 9.074c-.182.753-.468 1.443-.884 2.04a5.079 5.079 0 0 1-1.56 1.457c-.636.377-1.403.56-2.314.56-.818 0-1.547-.17-2.158-.495a4.788 4.788 0 0 1-1.6-1.339 5.748 5.748 0 0 1-1-2.015 9.296 9.296 0 0 1-.338-2.547c0-1.937.43-3.498 1.287-4.667.858-1.17 2.132-1.755 3.81-1.755.818 0 1.547.182 2.183.546a4.957 4.957 0 0 1 1.586 1.443 6.19 6.19 0 0 1 .949 2.054c.208.767.311 1.573.311 2.38a10.646 10.646 0 0 1-.272 2.338zm21.307-8.645a8.367 8.367 0 0 0-2.834-2.367c-1.131-.597-2.417-.896-3.848-.896-1.365 0-2.575.26-3.653.766-1.079.52-2.002 1.21-2.756 2.094a9.113 9.113 0 0 0-1.755 3.055c-.416 1.157-.611 2.38-.611 3.666 0 1.404.195 2.691.585 3.86.39 1.17.962 2.171 1.716 3.017a7.827 7.827 0 0 0 2.795 1.963c1.104.468 2.366.702 3.796.702a9.77 9.77 0 0 0 2.833-.403 8.059 8.059 0 0 0 2.444-1.196 7.192 7.192 0 0 0 1.86-1.95c.52-.767.883-1.65 1.092-2.626h-3.796c-.35 1.001-.884 1.755-1.599 2.262-.715.507-1.664.753-2.833.753-.846 0-1.574-.143-2.185-.441a4.246 4.246 0 0 1-1.508-1.17 4.934 4.934 0 0 1-.897-1.716 7.11 7.11 0 0 1-.3-2.04h13.352c.17-1.353.079-2.666-.26-3.953a10.085 10.085 0 0 0-1.638-3.38zm-11.467 4.705a5.386 5.386 0 0 1 .403-1.898 4.86 4.86 0 0 1 .988-1.52 4.408 4.408 0 0 1 1.482-1.014c.572-.247 1.209-.364 1.91-.364.677 0 1.3.13 1.847.402a4.743 4.743 0 0 1 1.403 1.053c.39.43.689.936.91 1.52.223.585.352 1.197.403 1.82zm29.863-6.421c-1.144-1.027-2.717-1.548-4.706-1.548-1.197 0-2.289.287-3.263.858-.988.572-1.781 1.365-2.392 2.366l-.065-.065v-2.665H65.99v18.136h4.004v-10.7c0-.65.105-1.273.312-1.859a4.617 4.617 0 0 1 .884-1.52 4.065 4.065 0 0 1 1.364-1.014c.533-.247 1.144-.364 1.834-.364 1.196 0 2.08.325 2.64.962.559.637.87 1.677.91 3.107V85.97h4.004V73.517c-.001-2.068-.587-3.614-1.73-4.641zm21.762 7.28c-.195 1.56-.754 2.846-1.639 3.822-.87.949-2.105 1.443-3.665 1.443-1.17 0-2.159-.221-2.964-.676a5.667 5.667 0 0 1-1.975-1.78 7.809 7.809 0 0 1-1.118-2.549 12.258 12.258 0 0 1-.351-2.937c0-1.053.116-2.08.35-3.068a8.153 8.153 0 0 1 1.119-2.613 5.632 5.632 0 0 1 1.975-1.807c.806-.442 1.808-.676 2.964-.676a5.38 5.38 0 0 1 1.82.311 5.26 5.26 0 0 1 2.703 2.159 4.232 4.232 0 0 1 .586 1.599l.039.247h5.824l-.04-.326c-.169-1.456-.571-2.77-1.208-3.9a9.466 9.466 0 0 0-2.445-2.86 10.728 10.728 0 0 0-3.328-1.755c-1.234-.402-2.56-.597-3.939-.597-1.937 0-3.705.337-5.226 1.027a11.402 11.402 0 0 0-3.9 2.833c-1.053 1.197-1.872 2.613-2.444 4.225-.56 1.613-.846 3.354-.846 5.187 0 1.794.286 3.51.846 5.096.56 1.586 1.378 2.991 2.444 4.16a11.39 11.39 0 0 0 3.9 2.796c1.52.676 3.289 1.027 5.226 1.027 1.548 0 2.99-.247 4.277-.728a10.099 10.099 0 0 0 3.406-2.08 10.319 10.319 0 0 0 2.34-3.263c.586-1.261.95-2.704 1.093-4.264l.026-.312h-5.812zM116 80.835V60.789h-6.007v25.169H128v-5.122z"/></svg>
