<svg viewBox="0 0 128 128" xmlns="http://www.w3.org/2000/svg"><path fill="#000" d="M11.059 51.213q-1.226 0-2.352.295a5.8 5.8 0 0 0-2.053.992q-.927.698-1.613 1.89-.687 1.195-1.05 2.977l-.452 2.186H.795L0 63.336h2.748l-.041.193-.217 1.037-.105.51q-.265 1.27-.48 2.313l-.348 1.68q-.431 2.085-.787 3.775a452 452 0 0 0-.721 3.488h4.933q.381-1.8.729-3.48.29-1.402.648-3.106l.147-.693 1.181-5.717h4.53l.795-3.783H8.277l.149-.748.166-.832q.265-1.294.96-1.942.696-.646 1.92-.648a5.7 5.7 0 0 1 1.374.168q.68.168 1.293.47l1.191-4.035a7.6 7.6 0 0 0-1.234-.412 13 13 0 0 0-3.037-.361m20.609.035-5.033.436q-.414 2.017-.828 4.02-.42 2.028-.86 4.05l-1.92 9.314q-.447 2.086-.795 3.776-.36 1.745-.728 3.488h4.95q.737-3.644 1.505-7.28l1.937-9.314q.48-2.32.918-4.414.44-2.092.854-4.076m-10.91.117q-1.345 0-2.278.588-.93.588-1.207 1.934-.291 1.479.381 2.277.673.798 2.002.799 1.362 0 2.278-.512t1.207-1.976q.26-1.278-.389-2.194-.648-.915-1.994-.916m103.633 1.85-5.065.89-.672 3.229-.42 2.004-.045.215h-2.671l-.795 3.783h2.68l-.02.102-.06.292q-.265 1.305-.507 2.438-.24 1.136-.453 2.187-.216 1.05-.449 2.143-.445 2.136.102 3.531a3.82 3.82 0 0 0 1.879 2.076q1.332.68 3.251.682a8 8 0 0 0 1.291-.11 11 11 0 0 0 1.301-.286q.605-.177.951-.412l.53-4.12q-.645.456-1.283.641a4.2 4.2 0 0 1-1.166.184q-1.21 0-1.649-.84-.436-.84-.09-2.455l1.25-6.053h4.924l.795-3.783h-4.932l.034-.158.207-.983.064-.314q.257-1.236.504-2.405.248-1.168.514-2.478M40.22 59.1q-.845 0-1.73.1a21 21 0 0 0-1.731.269 32 32 0 0 0-1.606.361q-.761.193-1.357.395l-.78 4.406a20 20 0 0 1 1.583-.613q.77-.261 1.498-.438a14 14 0 0 1 1.398-.27q.631-.09 1.268-.091 1.157 0 1.902.31.745.312 1.035.875t.125 1.319l-5.181.824q-1.027.15-1.979.445a7 7 0 0 0-1.738.799 4.8 4.8 0 0 0-1.342 1.295q-.555.79-.803 1.967-.33 1.529.084 2.824a4.04 4.04 0 0 0 1.473 2.078q1.06.78 2.633.781.993 0 1.853-.295a5.4 5.4 0 0 0 1.598-.873 6.6 6.6 0 0 0 1.35-1.472h.38l-.217 2.236h4.272q.348-1.614.639-3.01l.554-2.656.297-1.412.381-1.807q.181-.866.348-1.707.448-2.05-.149-3.539-.596-1.488-2.136-2.295T40.22 59.1m21.11 0a6.1 6.1 0 0 0-2.194.402 7.4 7.4 0 0 0-1.938 1.102q-.886.697-1.498 1.554h-.414l.348-2.857-4.172.252a667 667 0 0 1-.844 4.06 377 377 0 0 0-.777 3.776l-.348 1.68q-.447 2.085-.795 3.775-.36 1.745-.728 3.488h4.949q.365-1.8.713-3.463l.744-3.547.713-3.48q.53-.623 1.066-1.112a4.8 4.8 0 0 1 1.127-.773 2.8 2.8 0 0 1 1.25-.285q1.16 0 1.48.916.324.915.008 2.43l-.478 2.32a668 668 0 0 0-.729 3.531l-.712 3.463h4.933l.736-3.488s.79-3.77 1.176-5.658l.317-1.504.035-.04q.354-.39.717-.728l.181-.166a5.2 5.2 0 0 1 1.135-.781 2.76 2.76 0 0 1 1.25-.295q1.158 0 1.48.916.323.915.008 2.43l-.478 2.32q-.354 1.77-.72 3.539-.34 1.639-.722 3.455h4.95q.363-1.8.713-3.48.347-1.682.794-3.784.2-.975.39-1.882l.339-1.614q.63-2.94-.398-4.707-1.025-1.765-3.56-1.765a6 6 0 0 0-2.2.412 7.94 7.94 0 0 0-3.51 2.715h-.363l-.026-.133q-.26-1.266-1.06-2.02-1.035-.974-2.889-.974m25.349 0q-2.318 0-4.123 1t-2.996 2.816-1.688 4.254q-.597 2.959.223 5.111a6.37 6.37 0 0 0 2.814 3.32q1.995 1.17 4.975 1.169 1.174 0 2.193-.15a13 13 0 0 0 1.797-.388q.778-.236 1.225-.505l.662-4.27a8 8 0 0 1-1.557.664 11.4 11.4 0 0 1-1.697.387q-.852.126-1.547.125-1.59 0-2.682-.53-1.093-.53-1.564-1.597-.315-.713-.28-1.674l.002-.066H92.57l.082-.229q.12-.347.225-.713.141-.486.273-1.04.563-2.304-.017-4.036-.578-1.733-2.217-2.691-1.64-.96-4.236-.957m21.097 0a6.4 6.4 0 0 0-2.26.402 7.4 7.4 0 0 0-1.978 1.102 7.5 7.5 0 0 0-1.508 1.554h-.412l.348-2.857-4.172.252q-.431 2.1-.846 4.068a503 503 0 0 0-.777 3.768l-.348 1.68c-.505 2.422-1.523 7.263-1.523 7.263h4.949l.713-3.455.746-3.555.71-3.48q.53-.623 1.085-1.112.554-.487 1.158-.773.605-.285 1.317-.285 1.308 0 1.656.916.347.915.015 2.43l-.48 2.32c-.238 1.177-.72 3.531-.72 3.531l-.72 3.463h4.95l.736-3.488s.495-2.385.772-3.776q.214-.975.404-1.882l.34-1.614q.612-2.94-.43-4.707-1.043-1.765-3.725-1.765m-88.7.42-2.415.093-.303 1.082-.007.047a.43.43 0 0 0 .164.397l1.672 1.164-1.956.13c-.153.01-.282.136-.32.307l-.148.682-.008.047a.43.43 0 0 0 .166.396l1.67 1.164-1.953.131c-.154.01-.285.135-.323.307l-.148.681-.008.047a.43.43 0 0 0 .166.397l1.67 1.164-1.953.13c-.153.011-.283.136-.32.307l-.15.682-.009.047a.43.43 0 0 0 .166.396l1.67 1.164-1.953.131c-.153.01-.283.135-.32.307l-.148.682-.008.046a.43.43 0 0 0 .164.397l1.672 1.164-1.953.13c-.154.011-.285.136-.323.307l-.676 2.686h2.188l.342-1.46 2.74-.243c.153-.01.283-.135.32-.307l.149-.681.008-.047a.42.42 0 0 0-.166-.395l-1.67-1.166 1.953-.13c.153-.011.285-.136.322-.307l.148-.682.008-.047a.42.42 0 0 0-.166-.394l-1.67-1.166 1.953-.131c.154-.01.283-.135.32-.307l.151-.681.006-.047a.42.42 0 0 0-.164-.395l-1.672-1.166 1.955-.13c.154-.011.283-.136.32-.307l.149-.682.008-.047a.42.42 0 0 0-.166-.394l-1.67-1.166 1.953-.131c.153-.01.285-.135.322-.307l.149-.682.007-.047a.42.42 0 0 0-.166-.394l-2.212-1.557zm67.702 3.126q1.34 0 1.903 1.11.444.876.322 1.982l-.02.145-5.982.127.05-.147q.27-.774.647-1.35.63-.959 1.432-1.413a3.3 3.3 0 0 1 1.648-.454m-45.566 5.346-.563 2.692a6.3 6.3 0 0 1-1.017 1.16q-.555.487-1.16.748-.604.26-1.2.26-.827 0-1.308-.512-.48-.513-.315-1.438.117-.588.465-.959a2.3 2.3 0 0 1 .877-.572q.53-.2 1.176-.351a32 32 0 0 0 1.572-.38q.58-.16.91-.32t.563-.328"/></svg>
