<svg xmlns="http://www.w3.org/2000/svg" viewBox="0 0 128 128"><path fill="#2185d0" d="M65.143 3.117a66.59 66.59 0 0 0-2.767 0c-19.193.367-37.887 9.99-49.4 25.343C.144 45.102-3.499 68.248 3.52 88.053a62.288 62.288 0 0 0 4.724 10.481c17.87-23.048 35.642-46.187 53.573-69.182 1.787-1.686 4.637-.556 5.586 1.504l52.355 67.678c8.002-14.007 10.322-31.273 6.323-47.071-5.106-20.871-21.487-38.507-41.934-45.106a63.808 63.808 0 0 0-19.004-3.24Zm3.492 36.085 22.867 85.695a64.768 64.768 0 0 0 8.768-5.053 64.348 64.348 0 0 0 15.882-15.64c.465-.613.862-1.267 1.29-1.902z" /></svg>
