<svg xmlns="http://www.w3.org/2000/svg" viewBox="0 0 128 128"><path fill="#2185d0" d="M66.523 3.004a40 40 0 0 0-1.433.01c-12.527.238-24.734 6.503-32.246 16.525C24.319 30.547 22 45.935 26.807 58.991a43.477 43.477 0 0 0 2.45 5.521c11.675-15.051 23.274-30.167 34.995-45.178 1.41-1.383 3.843-.655 4.643 1.055l34.132 44.123c6.563-12.08 6.552-27.413-.04-39.478C96.66 13.107 84.256 4.65 70.81 3.268a43.532 43.532 0 0 0-4.288-.264Zm4.112 26.17 14.156 53.06a42.03 42.03 0 0 0 6.461-3.995 42.037 42.037 0 0 0 5.324-4.756 41.86 41.86 0 0 0 4.23-5.305C90.75 55.176 80.693 42.176 70.636 29.174ZM9.925 96.576c-3.104 0-5.528 1.044-7.273 3.13C.884 101.79 0 104.542 0 107.965c0 2.628.646 4.919 1.937 6.868 1.791 2.72 4.511 4.078 8.16 4.078 2.538 0 4.748-.94 6.63-2.822l-1.735-2.684c-1.676 1.066-3.127 1.598-4.351 1.598-1.86 0-3.343-.715-4.454-2.142-1.042-1.36-1.564-2.993-1.564-4.897 0-2.153.442-3.897 1.326-5.234 1.02-1.564 2.46-2.346 4.317-2.346 1.337 0 2.822.589 4.455 1.768l1.734-2.823c-2.176-1.836-4.354-2.754-6.53-2.754zm61.616 0L67.26 98.99v19.514h3.467l.34-1.53c1.042 1.293 2.514 1.938 4.417 1.938 1.928 0 3.55-.578 4.864-1.734 1.676-1.519 2.515-3.75 2.515-6.697 0-2.29-.567-4.124-1.699-5.506-1.292-1.564-3.083-2.348-5.371-2.348-.817 0-1.566.16-2.246.477-.861.408-1.53.976-2.006 1.7zm-23.053.069-4.285 2.38v4.928c-1.065-.86-2.38-1.29-3.943-1.29-1.814 0-3.365.6-4.656 1.802-1.723 1.61-2.584 3.898-2.584 6.867 0 2.108.532 3.831 1.597 5.168 1.27 1.61 3.114 2.412 5.54 2.412.862 0 1.702-.192 2.517-.578.815-.385 1.406-.871 1.77-1.46l.61 1.63h3.434zm-24.119 6.017c-2.222 0-4.023.703-5.404 2.108-1.52 1.541-2.281 3.558-2.281 6.05 0 2.2.68 4.058 2.04 5.577 1.52 1.677 3.402 2.515 5.645 2.515 1.926 0 3.615-.656 5.065-1.97 1.745-1.564 2.619-3.606 2.619-6.121 0-2.153-.589-3.977-1.768-5.473-1.405-1.79-3.378-2.686-5.916-2.686zm33.707 0c-2.198 0-4.01.726-5.44 2.176-1.586 1.587-2.38 3.593-2.38 6.018 0 2.47.704 4.407 2.11 5.812 1.473 1.496 3.525 2.244 6.154 2.244 2.447 0 4.486-.725 6.119-2.175l-1.088-2.278c-1.61.907-3.15 1.36-4.623 1.36-1.044 0-1.951-.34-2.721-1.02-.75-.703-1.17-1.575-1.258-2.617h10.608v-1.565c0-2.243-.589-4.067-1.768-5.472-1.36-1.655-3.265-2.483-5.713-2.483zm34.006 0c-2.198 0-4.011.726-5.44 2.176-1.586 1.587-2.38 3.593-2.38 6.018 0 2.47.704 4.407 2.11 5.812 1.472 1.496 3.523 2.244 6.153 2.244 2.448 0 4.487-.725 6.118-2.175l-1.086-2.278c-1.61.907-3.151 1.36-4.625 1.36-1.043 0-1.95-.34-2.721-1.02-.75-.703-1.17-1.575-1.258-2.617h10.61v-1.565c0-2.243-.59-4.067-1.768-5.472-1.36-1.655-3.266-2.483-5.713-2.483zm16.594 0c-.68 0-1.349.18-2.006.543-.636.34-1.066.749-1.293 1.225l-.408-1.36h-3.639v15.434h4.217v-11.082c.362-.793.93-1.19 1.701-1.19.838 0 1.63.43 2.379 1.292l3.603-1.971c-.998-1.927-2.515-2.89-4.554-2.89zm11.064 0c-1.79 0-3.344.602-4.66 1.803-1.722 1.61-2.584 3.898-2.584 6.867 0 2.085.533 3.808 1.598 5.168 1.247 1.61 3.005 2.412 5.271 2.412 1.858 0 3.296-.758 4.317-2.277 0 3.4-1.223 5.1-3.67 5.1-1.724 0-3.277-.453-4.658-1.36l-1.088 2.176c1.79 1.632 3.91 2.447 6.357 2.447 2.357 0 4.17-.691 5.44-2.074 1.291-1.405 1.937-3.411 1.937-6.017V103.07h-3.297l-.34 1.666c0-.227-.329-.567-.986-1.02-.998-.702-2.21-1.055-3.637-1.055zm-61.699 3.026c2.04 0 3.118 1.11 3.232 3.332h-6.562c.25-2.221 1.358-3.332 3.33-3.332zm34.006 0c2.039 0 3.116 1.11 3.23 3.332h-6.56c.25-2.221 1.358-3.332 3.33-3.332zm-67.678.033c2.199 0 3.299 1.7 3.299 5.1 0 3.263-1.1 4.896-3.299 4.896s-3.299-1.633-3.299-4.896c0-3.4 1.1-5.1 3.3-5.1zm16.809 0c.748 0 1.395.25 1.94.748a3.192 3.192 0 0 1 1.085 1.836v4.318c-.112.839-.52 1.587-1.223 2.245-.703.634-1.461.95-2.277.95-2.198 0-3.299-1.689-3.299-5.066 0-1.54.342-2.763 1.022-3.67.68-.906 1.597-1.36 2.752-1.36zm79.478 0c.726 0 1.384.262 1.973.783.614.499.964 1.098 1.053 1.801v3.91c0 .975-.34 1.824-1.02 2.549-.68.703-1.483 1.055-2.412 1.055-2.221 0-3.334-1.69-3.334-5.067 0-1.54.342-2.763 1.022-3.67.68-.906 1.585-1.36 2.718-1.36zm-45.68.035c1.042 0 1.858.453 2.448 1.36.588.906.883 2.14.883 3.705 0 1.586-.317 2.833-.952 3.74-.634.906-1.494 1.36-2.582 1.36-.839 0-1.578-.284-2.212-.85a3.079 3.079 0 0 1-1.02-2.108v-3.705c0-.974.329-1.802.986-2.482.68-.68 1.497-1.02 2.45-1.02z" /></svg>
