<svg xmlns="http://www.w3.org/2000/svg" viewBox="0 0 128 128"><path d="m49.828 72.925.269 2.108c-1.256.404-2.826.583-4.754.583-2.333 0-3.947-.583-4.889-1.794-.942-1.211-1.435-3.274-1.435-6.19 0-2.914.448-5.022 1.435-6.188.942-1.211 2.556-1.794 4.889-1.794 1.704 0 3.184.179 4.44.493l-.27 2.153c-1.3-.09-2.69-.135-4.17-.135-1.301 0-2.153.404-2.646 1.166-.449.808-.718 2.243-.718 4.35 0 2.109.224 3.589.718 4.351.493.807 1.345 1.166 2.646 1.166 1.883-.045 3.408-.134 4.485-.269zm12.871-2.422 1.39 4.844h-3.004l-1.256-4.799c-.269-.942-.897-1.39-1.794-1.39h-2.78v6.189h-2.781V59.874c1.345-.135 3.229-.18 5.65-.18 1.974 0 3.364.315 4.172.987.807.673 1.21 1.839 1.21 3.543 0 1.211-.224 2.108-.672 2.736-.449.628-1.211 1.032-2.243 1.166v.135c.449.09.852.359 1.256.717.449.314.718.852.852 1.525zm-2.556-4.216c.359-.359.538-.986.538-1.928s-.18-1.57-.538-1.929c-.359-.314-1.032-.493-2.063-.493H55.3v4.888h2.78c1.032 0 1.704-.179 2.063-.538zm43.145-6.413H90.954v2.377h4.71v13.096h2.825V62.25h4.8zm8.7.717 4.665 14.711h-2.915l-1.256-4.395h-5.74l-1.256 4.395h-2.87l4.619-14.71c.134-.494.493-.763 1.031-.763h2.736c.493.045.852.27.987.762zm-.179 8.073-1.57-5.337c-.224-.807-.313-1.256-.358-1.3h-.583l-.359 1.3-1.525 5.337zm16.101 4.35h-5.382c-.493 0-.852-.089-1.031-.268-.18-.18-.314-.539-.314-.987V59.874h-2.826v12.289c0 2.152 1.166 3.229 3.499 3.229 2.646 0 4.664-.09 6.144-.18zm-55.972-7.13c-.09.224-.314.852-.628 1.883h-.179c-.314-.986-.538-1.614-.628-1.883l-2.825-6.01h-2.96l5.068 10.225v5.293h2.825v-5.293l5.068-10.225h-2.915zm14.352.897-2.96-.942c-.673-.224-1.121-.449-1.345-.718-.27-.269-.36-.717-.36-1.345 0-.763.18-1.256.539-1.48.359-.18 1.032-.314 2.063-.314 1.345 0 2.915.045 4.62.09l.179-1.974c-1.345-.359-2.96-.538-4.844-.538-1.973 0-3.363.269-4.126.807-.807.538-1.166 1.66-1.166 3.364 0 1.166.224 2.153.718 2.87.493.718 1.255 1.256 2.377 1.615l3.139.986c.628.18 1.076.404 1.3.673.225.27.36.718.36 1.39 0 .763-.18 1.301-.494 1.525-.359.225-1.031.36-2.063.36-.673 0-2.287-.046-4.888-.09l-.18 2.063c1.66.314 3.319.493 5.023.493 2.063 0 3.499-.314 4.26-.897.808-.583 1.212-1.75 1.212-3.453 0-1.166-.224-2.153-.718-2.87-.628-.718-1.435-1.257-2.646-1.615zm-55.344 1.255-4.081-15.248c0-.045-.045-.09-.135-.135l-15.293-4.081c-.045 0-.135 0-.18.045L.045 59.784c-.045.045-.045.09-.045.18l4.081 15.248c0 .045.045.09.135.135l15.293 4.081c.045 0 .135 0 .18-.045L30.9 68.216c.045-.09.09-.135.045-.18zm-14.98-11.974-4.036 14.98c0 .044-.045.044-.09 0L.897 60.097c-.045-.045 0-.045 0-.09l15.024-4.036c0 .045.045.045.045.09z"/></svg>
