<svg xmlns="http://www.w3.org/2000/svg" viewBox="0 0 128 128"><defs><clipPath id="crystal-original-wordmark-a"><path d="M.578.578H122v36.899H.578zm0 0"/></clipPath></defs><path d="M100.781 98.7l-28.797 28.585c-.117.117-.289.172-.406.117l-39.336-10.484c-.172-.059-.289-.172-.289-.29l-10.598-39.07c-.058-.171 0-.285.118-.402L50.27 48.57c.113-.117.289-.172.402-.117l39.34 10.484c.172.06.285.172.285.29l10.543 39.07c.113.172.055.289-.059.402zm-38.59-31.11L23.543 77.844c-.055 0-.113.117-.055.172l28.278 28.074c.058.055.172.055.172-.059l10.367-38.383c.058 0-.055-.117-.114-.058zm0 0" fill-rule="evenodd"/><g clip-path="url(#crystal-original-wordmark-a)"><path d="M16.996 28.934l.36 2.793c-1.68.535-3.782.773-6.36.773-3.121 0-5.277-.773-6.539-2.379-1.258-1.601-1.918-4.336-1.918-8.2 0-3.862.598-6.651 1.918-8.198 1.262-1.606 3.418-2.375 6.54-2.375 2.28 0 4.257.234 5.937.652l-.36 2.852a83.05 83.05 0 00-5.578-.18c-1.738 0-2.879.535-3.539 1.547-.602 1.07-.96 2.968-.96 5.761s.3 4.754.96 5.766c.66 1.07 1.8 1.543 3.54 1.543 2.519-.059 4.558-.176 6-.355zm17.215-3.207l1.86 6.414h-4.02l-1.68-6.356c-.36-1.25-1.2-1.844-2.398-1.844h-3.72v8.2h-3.718V11.645c1.8-.18 4.32-.239 7.559-.239 2.64 0 4.5.414 5.578 1.305 1.078.894 1.621 2.437 1.621 4.695 0 1.606-.3 2.793-.902 3.625-.598.832-1.618 1.367-3 1.543v.18c.601.121 1.14.476 1.683.95.598.417.957 1.128 1.137 2.023zm-3.418-5.586c.48-.477.719-1.309.719-2.555 0-1.25-.239-2.082-.719-2.555-.48-.418-1.379-.656-2.762-.656h-3.718v6.477h3.718c1.383 0 2.282-.235 2.762-.711zm57.71-8.496h-16.5v3.148h6.302v17.348h3.777V14.793h6.422zm11.638.949l6.238 19.488h-3.899l-1.68-5.82h-7.679l-1.68 5.82h-3.84l6.18-19.488c.18-.653.66-1.012 1.38-1.012h3.66c.66.063 1.14.36 1.32 1.012zm-.243 10.695l-2.097-7.07c-.301-1.07-.422-1.664-.48-1.723h-.782l-.48 1.723-2.04 7.07zm21.54 5.762h-7.2c-.66 0-1.14-.117-1.379-.356-.242-.238-.421-.71-.421-1.304V11.645h-3.782v16.277c0 2.855 1.563 4.281 4.68 4.281 3.543 0 6.242-.121 8.219-.238zM46.57 19.605c-.12.297-.422 1.13-.84 2.497h-.242c-.418-1.309-.718-2.141-.84-2.497l-3.777-7.96h-3.96l6.78 13.546v7.012h3.778v-7.012l6.781-13.546h-3.902zm19.196 1.188l-3.957-1.246c-.903-.297-1.5-.594-1.801-.953-.36-.356-.48-.95-.48-1.782 0-1.011.238-1.664.718-1.96.48-.239 1.383-.415 2.762-.415 1.797 0 3.898.06 6.176.118l.242-2.614c-1.801-.476-3.961-.714-6.48-.714-2.637 0-4.497.355-5.52 1.07-1.078.715-1.559 2.2-1.559 4.457 0 1.543.301 2.851.961 3.8.66.954 1.68 1.665 3.18 2.141l4.199 1.309c.84.234 1.438.531 1.738.89.301.356.48.95.48 1.84 0 1.012-.237 1.723-.66 2.02-.48.297-1.378.476-2.757.476-.903 0-3.063-.058-6.54-.117l-.241 2.73c2.222.419 4.441.657 6.718.657 2.762 0 4.68-.418 5.7-1.191 1.082-.77 1.62-2.317 1.62-4.575 0-1.543-.3-2.851-.96-3.8-.84-.954-1.918-1.664-3.54-2.141zm-74.028 1.664l-5.457-20.203c0-.059-.058-.117-.18-.176l-20.456-5.41c-.06 0-.18 0-.239.062l-15 14.793c-.058.059-.058.122-.058.239l5.457 20.203c0 .058.062.117.183.176l20.453 5.41c.063 0 .18 0 .243-.063L-8.32 22.695c.058-.12.12-.18.058-.238zM-28.297 6.594l-5.398 19.843c0 .06-.059.06-.121 0l-14.637-14.496c-.059-.058 0-.058 0-.12l20.098-5.348c0 .062.058.062.058.12zm0 0"/></g></svg>