<svg xmlns="http://www.w3.org/2000/svg" viewBox="0 0 128 128"><path fill="#8d6748" d="m116.904 98.49-49.469 28.582a6.826 6.826 0 0 1-6.87 0L11.096 98.491c-2.13-1.237-3.435-3.504-3.435-5.91V35.419c0-2.473 1.305-4.672 3.435-5.909L60.565.928a6.825 6.825 0 0 1 6.87 0l49.469 28.581c2.13 1.237 3.435 3.504 3.435 5.91v57.163c-.068 2.405-1.374 4.672-3.435 5.909z"/><path fill="#fff" d="M63.931 8.69c-1.03 0-2.061.277-2.955.826L18.241 34.182c-1.855 1.03-2.953 3.022-2.953 5.084v49.33c0 2.13 1.098 4.055 2.953 5.086l42.735 24.665c.894.55 1.924.824 2.955.824 1.03 0 2.062-.274 2.955-.824l42.735-24.665c1.855-1.03 2.955-3.024 2.955-5.085V39.266c0-2.13-1.1-4.054-2.955-5.084L66.886 9.516a5.645 5.645 0 0 0-2.955-.825Zm0 2.062c.687 0 1.306.207 1.924.55l42.735 24.666a3.953 3.953 0 0 1 1.924 3.367v49.33c0 1.375-.756 2.68-1.924 3.367l-42.735 24.666c-.618.343-1.237.55-1.924.55a3.694 3.694 0 0 1-1.924-.55L19.272 92.032a3.953 3.953 0 0 1-1.924-3.366V39.335c0-1.375.756-2.68 1.924-3.367l42.735-24.666c.619-.343 1.306-.55 1.924-.55zm.24 19.375c-.893 1.1-2.404 2.268-.755 4.741.55.618.824 1.924.756 2.336 0 0 2.473-1.442.961-4.053-.893-1.374-1.305-2.543-.961-3.024zm-2.747 2.543c-.619.756-1.58 1.511-.481 3.229.343.343.48 1.237.48 1.512 0 0 1.65-.962.62-2.748-.619-.893-.894-1.718-.62-1.993zm-5.017 5.91a.687.687 0 0 0-.686.686c0 2.336.343 10.374 3.779 14.29a.624.624 0 0 0 .48.207h5.772a.625.625 0 0 0 .481-.206c3.436-3.848 3.779-11.887 3.779-14.291a.688.688 0 0 0-.688-.687zm1.993 2.128h9.07a.69.69 0 0 1 .687.688c0 1.924-.344 7.35-2.68 10.168-.206.137-.343.207-.549.207h-4.054a.624.624 0 0 1-.481-.207c-2.336-2.748-2.61-8.244-2.68-10.168a.69.69 0 0 1 .687-.688zm8.657 4.672s-.068.62-1.717 1.238c-2.267.824-6.252.274-6.252.274.343 1.443.892 2.817 1.717 3.848.069.137.274.205.412.205h3.436c.137 0 .274-.068.412-.205 1.168-1.374 1.718-3.505 1.992-5.36zM20.2 48.747v.757h35.11c0-.275-.069-.482-.069-.757zm50.362 0c0 .275-.069.482-.069.757H107.8v-.757Zm-22.674 7.489c-1.03 0-1.993.137-2.886.55-.893.343-1.649.893-2.267 1.511a6.9 6.9 0 0 0-1.512 2.267c-.343.894-.548 1.786-.548 2.748v.07c0 .961.205 1.924.548 2.749.344.893.825 1.648 1.443 2.267.618.618 1.375 1.168 2.268 1.511a7.986 7.986 0 0 0 2.886.549c1.03 0 1.991-.136 2.885-.549.893-.343 1.65-.893 2.268-1.511a6.9 6.9 0 0 0 1.512-2.267c.343-.894.548-1.788.548-2.75v-.069a7.26 7.26 0 0 0-.548-2.748c-.344-.893-.825-1.648-1.443-2.267-.618-.618-1.375-1.168-2.268-1.511a7.986 7.986 0 0 0-2.886-.55Zm18.963 0c-1.1 0-1.992.206-2.885.55-.893.343-1.65.893-2.268 1.511a7.932 7.932 0 0 0-1.443 2.267 7.26 7.26 0 0 0-.549 2.748v.07c0 .961.205 1.855.549 2.749.343.893.824 1.648 1.443 2.267.618.618 1.375 1.168 2.2 1.511a7 7 0 0 0 2.747.549c.619 0 1.237 0 1.855-.137.481-.068 1.03-.274 1.443-.48.412-.207.824-.414 1.236-.757.413-.344.756-.619 1.1-1.031l-1.58-1.58c-.619.55-1.237.962-1.787 1.306-.55.343-1.304.48-2.129.48-.618 0-1.238-.205-1.787-.411-.55-.206-1.031-.619-1.443-1.031-.412-.481-.756-.962-.962-1.58-.206-.62-.343-1.238-.343-1.925v-.067c0-.619.137-1.238.343-1.857.275-.55.55-1.098.962-1.51a5.503 5.503 0 0 1 1.443-1.03c.55-.276 1.1-.413 1.787-.413.825 0 1.51.138 2.13.481a9.877 9.877 0 0 1 1.718 1.236l1.58-1.786c-.344-.343-.688-.618-1.032-.893-.343-.275-.755-.481-1.167-.687-.48-.138-.893-.275-1.443-.412-.55-.07-1.1-.138-1.718-.138zm32.293.206-6.047 13.81h2.474l1.442-3.297h6.458l1.376 3.298h2.54l-6.045-13.81zm-77.227.07v13.81h2.405v-9.827l4.26 6.39h.069l4.328-6.457v9.825h2.405V56.51h-2.542l-4.192 6.46-4.191-6.458zm55.172 0v13.74h2.404v-5.771h6.596v5.772h2.405V56.51h-2.405v5.703h-6.596V56.51ZM47.82 58.434c.687 0 1.306.137 1.855.412a5.52 5.52 0 0 1 1.443 1.031c.412.481.756.961.962 1.58.206.618.343 1.236.343 1.923v.07c0 .617-.137 1.236-.343 1.854-.275.55-.55 1.1-.962 1.512a5.503 5.503 0 0 1-1.443 1.03c-.55.276-1.168.413-1.855.413-.618 0-1.306-.137-1.856-.412a5.496 5.496 0 0 1-1.442-1.031c-.412-.481-.755-.962-.961-1.58-.207-.62-.345-1.238-.345-1.925v-.067c0-.619.138-1.238.345-1.857.274-.55.55-1.098.961-1.51a5.496 5.496 0 0 1 1.442-1.03c.55-.276 1.17-.413 1.856-.413zm52.422.893 2.336 5.496h-4.672ZM20.2 74.581v.755h87.6v-.755z"/></svg>
