<svg xmlns="http://www.w3.org/2000/svg" viewBox="0 0 128 128"><path fill="#8d6748" d="M64 0c-1.185 0-2.37.31-3.436.928L11.096 29.51c-2.13 1.237-3.436 3.435-3.436 5.908v57.164c0 2.405 1.306 4.672 3.436 5.908l49.468 28.582a6.826 6.826 0 0 0 6.872 0l49.468-28.582c2.061-1.236 3.367-3.503 3.436-5.908V35.418c0-2.405-1.306-4.671-3.436-5.908L67.436.928A6.835 6.835 0 0 0 64 0Zm-.068 8.692c1.03 0 2.062.274 2.955.824l42.734 24.666c1.855 1.03 2.955 2.954 2.955 5.084v49.33c0 2.061-1.1 4.055-2.955 5.086l-42.734 24.666a5.646 5.646 0 0 1-2.955.824 5.646 5.646 0 0 1-2.955-.824L18.24 93.682c-1.855-1.03-2.953-2.956-2.953-5.086v-49.33c0-2.061 1.098-4.054 2.953-5.084L60.977 9.516a5.645 5.645 0 0 1 2.955-.824zm0 2.06c-.619 0-1.306.207-1.924.55L19.27 35.97a3.95 3.95 0 0 0-1.923 3.365v49.332c0 1.374.755 2.68 1.923 3.367l42.737 24.664c.55.344 1.237.551 1.924.551.687 0 1.305-.207 1.923-.55l42.735-24.665a3.954 3.954 0 0 0 1.924-3.367V39.334a3.95 3.95 0 0 0-1.924-3.365L65.855 11.303c-.618-.344-1.236-.55-1.923-.55zm.24 19.375c-.344.481.068 1.65.96 3.023 1.512 2.611-.96 4.053-.96 4.053.069-.412-.206-1.717-.756-2.336-1.649-2.473-.137-3.64.756-4.74zm-2.748 2.543c-.275.275 0 1.099.619 1.992 1.03 1.787-.62 2.748-.62 2.748 0-.275-.136-1.168-.48-1.511-1.099-1.718-.138-2.473.48-3.229zm-5.016 5.91h12.916c.412 0 .688.342.688.686 0 2.404-.344 10.443-3.78 14.29a.624.624 0 0 1-.48.208H59.98a.624.624 0 0 1-.48-.207c-3.435-3.917-3.78-11.955-3.78-14.291 0-.413.345-.686.688-.686zm1.992 2.13a.69.69 0 0 0-.687.687c.069 1.923.344 7.42 2.68 10.168a.624.624 0 0 0 .48.207h4.055c.206 0 .342-.07.549-.207 2.336-2.817 2.68-8.245 2.68-10.168a.69.69 0 0 0-.688-.688zm8.657 4.671c-.275 1.855-.825 3.985-1.993 5.36-.137.137-.274.204-.412.204h-3.435c-.138 0-.344-.067-.412-.205-.825-1.03-1.374-2.404-1.717-3.847 0 0 3.985.549 6.252-.276 1.649-.618 1.717-1.236 1.717-1.236zm-46.858 3.365H55.24c0 .275.069.483.069.758h-35.11Zm50.364 0H107.8v.758H70.492c0-.275.07-.483.07-.758zm-22.674 7.49a7.98 7.98 0 0 1 2.884.55c.894.343 1.65.893 2.268 1.511.618.618 1.1 1.374 1.443 2.268a7.25 7.25 0 0 1 .55 2.748v.068c0 .962-.206 1.857-.55 2.75a6.903 6.903 0 0 1-1.511 2.268c-.619.618-1.375 1.168-2.268 1.511-.893.413-1.854.547-2.885.547a7.99 7.99 0 0 1-2.886-.547c-.894-.343-1.65-.893-2.268-1.511-.618-.619-1.1-1.375-1.443-2.268a7.271 7.271 0 0 1-.55-2.75v-.068c0-.962.206-1.855.55-2.748a6.903 6.903 0 0 1 1.511-2.268c.619-.618 1.375-1.168 2.268-1.512.893-.412 1.856-.549 2.887-.549zm18.963 0c.618 0 1.167.068 1.716.137.55.138.963.275 1.444.412.412.206.824.413 1.168.688.343.275.687.55 1.03.894l-1.58 1.785a9.88 9.88 0 0 0-1.718-1.236c-.618-.343-1.304-.48-2.129-.48-.687 0-1.237.137-1.787.412a5.507 5.507 0 0 0-1.443 1.031c-.413.412-.686.96-.961 1.51-.206.618-.344 1.237-.344 1.855v.069c0 .687.138 1.305.344 1.923.206.619.548 1.1.96 1.58.413.413.894.826 1.444 1.032.55.206 1.169.412 1.787.412.825 0 1.58-.137 2.13-.48a13.044 13.044 0 0 0 1.786-1.305l1.58 1.578c-.343.412-.687.688-1.1 1.031-.412.344-.823.55-1.236.756-.412.206-.962.414-1.443.482-.618.137-1.237.135-1.855.135a7 7 0 0 1-2.749-.547c-.824-.343-1.58-.893-2.199-1.511-.618-.619-1.098-1.375-1.441-2.268-.344-.893-.549-1.788-.549-2.75v-.068c0-.962.205-1.924.549-2.748a7.93 7.93 0 0 1 1.441-2.268c.619-.618 1.377-1.168 2.27-1.512a7.706 7.706 0 0 1 2.885-.549zm32.293.207h2.197l6.047 13.81h-2.543l-1.375-3.298h-6.457l-1.444 3.297h-2.472zm-77.227.069h2.541l4.191 6.457 4.192-6.457h2.543v13.74h-2.406v-9.824l-4.329 6.459h-.068l-4.26-6.39v9.825h-2.404Zm55.17 0h2.406v5.703h6.596v-5.703h2.404v13.74H86.09v-5.771h-6.596v5.771h-2.406zM47.82 58.436c-.687 0-1.306.137-1.855.412a5.507 5.507 0 0 0-1.444 1.031c-.412.412-.686.96-.96 1.51-.207.618-.344 1.237-.344 1.855v.069c0 .687.137 1.305.344 1.923.206.619.548 1.1.96 1.58.413.413.894.757 1.444 1.032.55.275 1.237.412 1.855.412.687 0 1.306-.137 1.856-.412a5.496 5.496 0 0 0 1.441-1.031c.412-.413.688-.963.963-1.512.206-.619.344-1.237.344-1.856v-.068c0-.687-.138-1.306-.344-1.924-.206-.618-.55-1.097-.963-1.578a5.497 5.497 0 0 0-1.441-1.031c-.55-.275-1.169-.412-1.856-.412zm52.422.892-2.336 5.496h4.672zM20.2 74.582h87.602v.754H20.199Z"/></svg>
