<?xml version="1.0" encoding="UTF-8"?>
<svg xmlns="http://www.w3.org/2000/svg" xmlns:xlink="http://www.w3.org/1999/xlink" width="128px" height="128px" viewBox="0 0 128 128" version="1.1">
<g id="surface1">
<path style=" stroke:none;fill-rule:nonzero;fill:rgb(30.588235%,30.588235%,30.588235%);fill-opacity:1;" d="M 6.648438 67.351562 C 6.648438 71.261719 6.285156 72.535156 5.351562 73.472656 C 4.316406 74.28125 2.96875 74.726562 1.570312 74.726562 L 1.933594 76.960938 C 4.097656 76.984375 6.199219 76.324219 7.839844 75.105469 C 8.722656 74.175781 9.378906 73.105469 9.769531 71.953125 C 10.160156 70.800781 10.277344 69.59375 10.117188 68.402344 L 10.117188 53.609375 L 6.648438 53.609375 Z M 6.648438 67.351562 "/>
<path style=" stroke:none;fill-rule:nonzero;fill:rgb(30.588235%,30.588235%,30.588235%);fill-opacity:1;" d="M 32.53125 65.589844 C 32.53125 67.265625 32.53125 68.761719 32.683594 70.058594 L 29.601562 70.058594 L 29.394531 67.398438 C 28.75 68.339844 27.828125 69.117188 26.722656 69.648438 C 25.617188 70.183594 24.367188 70.457031 23.101562 70.4375 C 20.097656 70.4375 16.523438 69.03125 16.523438 63.289062 L 16.523438 53.746094 L 19.996094 53.746094 L 19.996094 62.683594 C 19.996094 65.789062 21.109375 67.867188 24.242188 67.867188 C 24.886719 67.875 25.527344 67.769531 26.125 67.558594 C 26.71875 67.347656 27.261719 67.039062 27.71875 66.644531 C 28.175781 66.25 28.535156 65.78125 28.777344 65.269531 C 29.023438 64.753906 29.144531 64.203125 29.136719 63.644531 L 29.136719 53.632812 L 32.605469 53.632812 L 32.605469 65.5 Z M 32.53125 65.589844 "/>
<path style=" stroke:none;fill-rule:nonzero;fill:rgb(30.588235%,30.588235%,30.588235%);fill-opacity:1;" d="M 39.109375 59.0625 C 39.109375 56.984375 39.109375 55.285156 38.953125 53.746094 L 42.0625 53.746094 L 42.214844 56.539062 C 42.910156 55.527344 43.90625 54.699219 45.101562 54.140625 C 46.296875 53.582031 47.644531 53.3125 49 53.363281 C 53.613281 53.363281 57.082031 56.695312 57.082031 61.652344 C 57.082031 67.507812 52.914062 70.414062 48.40625 70.414062 C 47.253906 70.457031 46.105469 70.246094 45.074219 69.792969 C 44.046875 69.34375 43.167969 68.671875 42.527344 67.84375 L 42.527344 76.78125 L 39.109375 76.78125 Z M 42.527344 63.417969 C 42.535156 63.824219 42.589844 64.230469 42.683594 64.625 C 42.976562 65.617188 43.644531 66.496094 44.582031 67.125 C 45.519531 67.753906 46.675781 68.089844 47.863281 68.089844 C 51.515625 68.089844 53.664062 65.519531 53.664062 61.789062 C 53.664062 58.527344 51.644531 55.734375 47.992188 55.734375 C 46.546875 55.835938 45.195312 56.386719 44.1875 57.289062 C 43.183594 58.191406 42.589844 59.375 42.527344 60.625 Z M 42.527344 63.417969 "/>
<path style=" stroke:none;fill-rule:nonzero;fill:rgb(30.588235%,30.588235%,30.588235%);fill-opacity:1;" d="M 63.265625 53.730469 L 67.4375 63.359375 C 67.875 64.433594 68.34375 65.726562 68.652344 66.6875 C 69.015625 65.707031 69.402344 64.453125 69.871094 63.292969 L 73.652344 53.730469 L 77.304688 53.730469 L 72.125 65.347656 C 69.535156 70.933594 67.953125 73.816406 65.570312 75.558594 C 64.371094 76.507812 62.90625 77.167969 61.324219 77.480469 L 60.46875 74.980469 C 61.578125 74.664062 62.605469 74.171875 63.5 73.527344 C 64.761719 72.636719 65.765625 71.503906 66.425781 70.21875 C 66.566406 69.996094 66.664062 69.753906 66.710938 69.503906 C 66.679688 69.234375 66.601562 68.972656 66.476562 68.722656 L 59.433594 53.683594 L 63.214844 53.683594 Z M 63.265625 53.730469 "/>
<path style=" stroke:none;fill-rule:nonzero;fill:rgb(30.588235%,30.588235%,30.588235%);fill-opacity:1;" d="M 86.515625 49.042969 L 86.515625 53.734375 L 91.488281 53.734375 L 91.488281 55.96875 L 86.515625 55.96875 L 86.515625 64.773438 C 86.515625 66.785156 87.191406 67.945312 89.105469 67.945312 C 89.789062 67.953125 90.464844 67.886719 91.125 67.742188 L 91.28125 69.980469 C 90.292969 70.273438 89.246094 70.410156 88.199219 70.378906 C 87.507812 70.417969 86.8125 70.324219 86.164062 70.109375 C 85.515625 69.894531 84.929688 69.558594 84.445312 69.128906 C 83.390625 67.910156 82.910156 66.394531 83.097656 64.882812 L 83.097656 55.945312 L 80.144531 55.945312 L 80.144531 53.710938 L 83.148438 53.710938 L 83.148438 49.734375 Z M 86.515625 49.042969 "/>
<path style=" stroke:none;fill-rule:nonzero;fill:rgb(30.588235%,30.588235%,30.588235%);fill-opacity:1;" d="M 97.882812 62.417969 C 97.8125 63.175781 97.933594 63.9375 98.238281 64.648438 C 98.542969 65.363281 99.023438 66.011719 99.644531 66.546875 C 100.269531 67.085938 101.019531 67.5 101.847656 67.761719 C 102.671875 68.027344 103.558594 68.128906 104.433594 68.070312 C 106.210938 68.105469 107.976562 67.816406 109.613281 67.21875 L 110.210938 69.453125 C 108.199219 70.167969 106.039062 70.511719 103.867188 70.460938 C 102.597656 70.535156 101.328125 70.371094 100.140625 69.984375 C 98.953125 69.59375 97.878906 68.988281 96.988281 68.207031 C 96.097656 67.425781 95.410156 66.488281 94.980469 65.457031 C 94.550781 64.429688 94.382812 63.328125 94.488281 62.238281 C 94.488281 57.320312 97.882812 53.433594 103.425781 53.433594 C 109.640625 53.433594 111.195312 58.125 111.195312 61.121094 C 111.226562 61.582031 111.226562 62.042969 111.195312 62.503906 L 97.804688 62.503906 Z M 108.035156 60.183594 C 108.136719 59.585938 108.085938 58.976562 107.890625 58.394531 C 107.695312 57.816406 107.355469 57.28125 106.898438 56.824219 C 106.441406 56.367188 105.878906 55.996094 105.242188 55.746094 C 104.609375 55.492188 103.917969 55.359375 103.21875 55.355469 C 101.796875 55.445312 100.460938 55.988281 99.480469 56.882812 C 98.496094 57.773438 97.9375 58.949219 97.910156 60.183594 Z M 108.035156 60.183594 "/>
<path style=" stroke:none;fill-rule:nonzero;fill:rgb(30.588235%,30.588235%,30.588235%);fill-opacity:1;" d="M 116.460938 58.808594 C 116.460938 56.890625 116.460938 55.234375 116.304688 53.714844 L 119.414062 53.714844 L 119.414062 56.910156 L 119.570312 56.910156 C 119.894531 55.925781 120.570312 55.050781 121.496094 54.410156 C 122.425781 53.769531 123.5625 53.394531 124.75 53.335938 C 125.074219 53.300781 125.40625 53.300781 125.734375 53.335938 L 125.734375 56.128906 C 125.335938 56.089844 124.9375 56.089844 124.542969 56.128906 C 123.367188 56.167969 122.246094 56.574219 121.394531 57.273438 C 120.539062 57.972656 120.011719 58.917969 119.90625 59.925781 C 119.808594 60.386719 119.757812 60.847656 119.75 61.3125 L 119.75 70.003906 L 116.332031 70.003906 L 116.332031 58.832031 Z M 116.460938 58.808594 "/>
<path style=" stroke:none;fill-rule:nonzero;fill:rgb(46.27451%,46.27451%,46.666667%);fill-opacity:1;" d="M 114.941406 8.847656 C 115.046875 10.351562 114.632812 11.84375 113.75 13.140625 C 112.867188 14.4375 111.558594 15.480469 109.988281 16.132812 C 108.417969 16.789062 106.660156 17.023438 104.933594 16.808594 C 103.207031 16.597656 101.59375 15.945312 100.300781 14.9375 C 99.003906 13.933594 98.085938 12.617188 97.660156 11.15625 C 97.234375 9.699219 97.324219 8.164062 97.914062 6.75 C 98.503906 5.332031 99.566406 4.101562 100.972656 3.210938 C 102.375 2.320312 104.054688 1.808594 105.796875 1.742188 C 106.9375 1.6875 108.082031 1.828125 109.160156 2.15625 C 110.238281 2.488281 111.230469 2.996094 112.082031 3.65625 C 112.929688 4.316406 113.621094 5.113281 114.113281 6.007812 C 114.601562 6.898438 114.882812 7.863281 114.941406 8.847656 Z M 114.941406 8.847656 "/>
<path style=" stroke:none;fill-rule:nonzero;fill:rgb(95.294118%,46.666667%,14.901961%);fill-opacity:1;" d="M 63.726562 96.355469 C 40.417969 96.355469 19.929688 89.140625 9.339844 78.480469 C 13.449219 88.070312 20.863281 96.34375 30.589844 102.183594 C 40.3125 108.027344 51.878906 111.160156 63.726562 111.160156 C 75.578125 111.160156 87.140625 108.027344 96.867188 102.183594 C 106.589844 96.34375 114.007812 88.070312 118.117188 78.480469 C 107.550781 89.140625 87.140625 96.355469 63.726562 96.355469 Z M 63.726562 96.355469 "/>
<path style=" stroke:none;fill-rule:nonzero;fill:rgb(95.294118%,46.666667%,14.901961%);fill-opacity:1;" d="M 63.726562 27.046875 C 87.035156 27.046875 107.523438 34.265625 118.117188 44.925781 C 114.007812 35.335938 106.589844 27.0625 96.867188 21.222656 C 87.140625 15.378906 75.578125 12.246094 63.726562 12.246094 C 51.878906 12.246094 40.3125 15.378906 30.589844 21.222656 C 20.863281 27.0625 13.449219 35.335938 9.339844 44.925781 C 19.929688 34.242188 40.3125 27.046875 63.726562 27.046875 Z M 63.726562 27.046875 "/>
<path style=" stroke:none;fill-rule:nonzero;fill:rgb(61.960784%,61.960784%,61.960784%);fill-opacity:1;" d="M 31.636719 117.097656 C 31.773438 118.988281 31.257812 120.871094 30.148438 122.507812 C 29.039062 124.144531 27.390625 125.457031 25.414062 126.28125 C 23.4375 127.105469 21.222656 127.40625 19.046875 127.140625 C 16.875 126.875 14.839844 126.054688 13.207031 124.789062 C 11.574219 123.523438 10.414062 121.863281 9.878906 120.027344 C 9.339844 118.191406 9.449219 116.257812 10.191406 114.476562 C 10.929688 112.691406 12.269531 111.136719 14.035156 110.015625 C 15.804688 108.890625 17.917969 108.246094 20.113281 108.160156 C 21.550781 108.09375 22.988281 108.273438 24.34375 108.6875 C 25.703125 109.101562 26.953125 109.738281 28.023438 110.570312 C 29.09375 111.398438 29.960938 112.402344 30.582031 113.523438 C 31.203125 114.644531 31.5625 115.859375 31.636719 117.097656 Z M 31.636719 117.097656 "/>
<path style=" stroke:none;fill-rule:nonzero;fill:rgb(38.039216%,38.431373%,38.431373%);fill-opacity:1;" d="M 11.988281 24.621094 C 10.730469 24.648438 9.492188 24.359375 8.429688 23.78125 C 7.363281 23.207031 6.519531 22.371094 6.003906 21.386719 C 5.488281 20.398438 5.320312 19.296875 5.523438 18.230469 C 5.730469 17.160156 6.296875 16.167969 7.152344 15.375 C 8.011719 14.582031 9.121094 14.027344 10.34375 13.777344 C 11.566406 13.527344 12.847656 13.59375 14.027344 13.972656 C 15.203125 14.347656 16.226562 15.015625 16.964844 15.894531 C 17.703125 16.769531 18.125 17.816406 18.175781 18.898438 C 18.226562 20.363281 17.605469 21.785156 16.445312 22.855469 C 15.285156 23.929688 13.683594 24.5625 11.988281 24.621094 Z M 11.988281 24.621094 "/>
</g>
</svg>
