<svg xmlns="http://www.w3.org/2000/svg" viewBox="0 0 128 128"><g fill-rule="evenodd"><path d="M109.766 7.281a7.691 7.691 0 01-1.09 4.282 7.583 7.583 0 01-3.262 2.949 7.49 7.49 0 01-4.34.62 7.525 7.525 0 01-3.953-1.913A7.642 7.642 0 0195.137 5a7.606 7.606 0 012.629-3.531 7.509 7.509 0 014.136-1.461 7.51 7.51 0 015.422 1.996 7.627 7.627 0 012.438 5.273zm0 0M65.758 96.79c-20.098 0-37.649-7.364-46.766-18.267a49.95 49.95 0 0018.102 24.254 49.251 49.251 0 0028.676 9.215 49.279 49.279 0 0028.675-9.215 49.917 49.917 0 0018.094-24.254C103.406 89.426 85.855 96.79 65.758 96.79zm0 0M65.75 25.883c20.098 0 37.652 7.367 46.766 18.265a49.95 49.95 0 00-18.102-24.253 49.27 49.27 0 00-28.672-9.22 49.27 49.27 0 00-28.672 9.22A49.909 49.909 0 0018.97 44.148C28.102 33.27 45.652 25.883 65.75 25.883zm0 0M38.164 117.984a9.671 9.671 0 01-1.371 5.399 9.5 9.5 0 01-9.59 4.504 9.405 9.405 0 01-4.98-2.418 9.671 9.671 0 01-2.809-4.797 9.73 9.73 0 01.313-5.567 9.624 9.624 0 013.328-4.453 9.466 9.466 0 0112.043.688 9.63 9.63 0 013.066 6.648zm0 0M21.285 23.418a5.53 5.53 0 01-3.14-.816 5.627 5.627 0 01-2.618-5.672 5.612 5.612 0 011.407-2.95 5.593 5.593 0 012.789-1.664 5.46 5.46 0 013.238.184 5.539 5.539 0 012.586 1.969 5.66 5.66 0 01-.399 7.129 5.557 5.557 0 01-3.867 1.82zm0 0"/></g></svg>