<?xml version="1.0" encoding="UTF-8"?>
<svg xmlns="http://www.w3.org/2000/svg" xmlns:xlink="http://www.w3.org/1999/xlink" width="128px" height="128px" viewBox="0 0 128 128" version="1.1">
<g id="surface1">
<path style=" stroke:none;fill-rule:evenodd;fill:rgb(0%,0%,0%);fill-opacity:1;" d="M 5.429688 67.058594 C 5.429688 70.941406 5.042969 72.207031 4.042969 73.136719 C 2.9375 73.9375 1.496094 74.378906 0 74.378906 L 0.386719 76.597656 C 2.703125 76.621094 4.949219 75.964844 6.707031 74.757812 C 7.648438 73.832031 8.351562 72.769531 8.769531 71.625 C 9.1875 70.484375 9.3125 69.285156 9.140625 68.101562 L 9.140625 53.417969 L 5.429688 53.417969 Z M 5.429688 67.058594 "/>
<path style=" stroke:none;fill-rule:evenodd;fill:rgb(0%,0%,0%);fill-opacity:1;" d="M 31.589844 64.890625 C 31.589844 66.5 31.589844 67.933594 31.742188 69.179688 L 28.621094 69.179688 L 28.410156 66.625 C 27.753906 67.53125 26.820312 68.277344 25.699219 68.785156 C 24.582031 69.296875 23.3125 69.5625 22.03125 69.542969 C 18.984375 69.542969 15.359375 68.191406 15.359375 62.683594 L 15.359375 53.527344 L 18.878906 53.527344 L 18.878906 62.101562 C 18.878906 65.082031 20.011719 67.074219 23.183594 67.074219 C 23.839844 67.082031 24.488281 66.980469 25.09375 66.78125 C 25.695312 66.578125 26.246094 66.28125 26.710938 65.902344 C 27.175781 65.523438 27.539062 65.074219 27.78125 64.582031 C 28.03125 64.089844 28.15625 63.5625 28.148438 63.023438 L 28.148438 53.417969 L 31.664062 53.417969 L 31.664062 64.804688 Z M 31.589844 64.890625 "/>
<path style=" stroke:none;fill-rule:evenodd;fill:rgb(0%,0%,0%);fill-opacity:1;" d="M 39.070312 58.300781 C 39.070312 56.15625 39.070312 54.398438 38.910156 52.8125 L 42.074219 52.8125 L 42.230469 55.695312 C 42.933594 54.648438 43.949219 53.796875 45.164062 53.21875 C 46.378906 52.640625 47.75 52.363281 49.128906 52.414062 C 53.816406 52.414062 57.34375 55.855469 57.34375 60.976562 C 57.34375 67.023438 53.105469 70.023438 48.523438 70.023438 C 47.351562 70.066406 46.183594 69.851562 45.136719 69.382812 C 44.089844 68.917969 43.199219 68.222656 42.546875 67.371094 L 42.546875 76.597656 L 39.070312 76.597656 Z M 42.546875 62.796875 C 42.554688 63.21875 42.609375 63.636719 42.703125 64.046875 C 43.003906 65.070312 43.683594 65.976562 44.636719 66.625 C 45.589844 67.277344 46.765625 67.625 47.972656 67.625 C 51.683594 67.625 53.867188 64.96875 53.867188 61.117188 C 53.867188 57.75 51.816406 54.863281 48.101562 54.863281 C 46.632812 54.96875 45.257812 55.539062 44.234375 56.46875 C 43.214844 57.402344 42.609375 58.625 42.546875 59.914062 Z M 42.546875 62.796875 "/>
<path style=" stroke:none;fill-rule:evenodd;fill:rgb(0%,0%,0%);fill-opacity:1;" d="M 63.34375 53.460938 L 67.648438 62.84375 C 68.097656 63.890625 68.582031 65.148438 68.898438 66.085938 C 69.273438 65.128906 69.675781 63.910156 70.15625 62.777344 L 74.058594 53.460938 L 77.824219 53.460938 L 72.480469 64.78125 C 69.808594 70.21875 68.179688 73.03125 65.722656 74.726562 C 64.484375 75.652344 62.972656 76.292969 61.339844 76.597656 L 60.460938 74.164062 C 61.605469 73.855469 62.664062 73.375 63.585938 72.746094 C 64.886719 71.878906 65.921875 70.777344 66.605469 69.523438 C 66.75 69.308594 66.851562 69.070312 66.898438 68.828125 C 66.863281 68.566406 66.785156 68.3125 66.65625 68.066406 L 59.390625 53.417969 L 63.292969 53.417969 Z M 63.34375 53.460938 "/>
<path style=" stroke:none;fill-rule:evenodd;fill:rgb(0%,0%,0%);fill-opacity:1;" d="M 87.222656 48.378906 L 87.222656 53.03125 L 92.160156 53.03125 L 92.160156 55.246094 L 87.222656 55.246094 L 87.222656 63.976562 C 87.222656 65.972656 87.894531 67.121094 89.792969 67.121094 C 90.472656 67.128906 91.144531 67.0625 91.800781 66.917969 L 91.953125 69.140625 C 90.972656 69.429688 89.933594 69.566406 88.894531 69.535156 C 88.207031 69.574219 87.515625 69.480469 86.875 69.265625 C 86.230469 69.054688 85.648438 68.722656 85.167969 68.296875 C 84.121094 67.085938 83.640625 65.582031 83.828125 64.085938 L 83.828125 55.222656 L 80.894531 55.222656 L 80.894531 53.007812 L 83.878906 53.007812 L 83.878906 49.0625 Z M 87.222656 48.378906 "/>
<path style=" stroke:none;fill-rule:evenodd;fill:rgb(0%,0%,0%);fill-opacity:1;" d="M 98.789062 61.441406 C 98.714844 62.203125 98.839844 62.96875 99.15625 63.683594 C 99.476562 64.402344 99.972656 65.054688 100.621094 65.589844 C 101.269531 66.132812 102.046875 66.550781 102.90625 66.8125 C 103.761719 67.078125 104.683594 67.183594 105.59375 67.121094 C 107.4375 67.15625 109.273438 66.867188 110.972656 66.265625 L 111.59375 68.511719 C 109.503906 69.230469 107.261719 69.578125 105.003906 69.527344 C 103.6875 69.601562 102.367188 69.433594 101.132812 69.046875 C 99.902344 68.65625 98.785156 68.046875 97.859375 67.261719 C 96.933594 66.476562 96.222656 65.53125 95.773438 64.496094 C 95.328125 63.460938 95.152344 62.355469 95.265625 61.261719 C 95.265625 56.316406 98.789062 52.410156 104.546875 52.410156 C 111 52.410156 112.617188 57.125 112.617188 60.136719 C 112.648438 60.601562 112.648438 61.0625 112.617188 61.527344 L 98.707031 61.527344 Z M 109.332031 59.195312 C 109.4375 58.59375 109.386719 57.980469 109.183594 57.394531 C 108.980469 56.816406 108.625 56.277344 108.152344 55.816406 C 107.675781 55.359375 107.09375 54.984375 106.433594 54.734375 C 105.773438 54.480469 105.058594 54.34375 104.332031 54.339844 C 102.855469 54.429688 101.46875 54.976562 100.449219 55.875 C 99.425781 56.773438 98.84375 57.953125 98.816406 59.195312 Z M 109.332031 59.195312 "/>
<path style=" stroke:none;fill-rule:evenodd;fill:rgb(0%,0%,0%);fill-opacity:1;" d="M 117.914062 58.054688 C 117.914062 56.085938 117.914062 54.386719 117.761719 52.824219 L 120.800781 52.824219 L 120.800781 56.105469 L 120.949219 56.105469 C 121.269531 55.09375 121.929688 54.195312 122.832031 53.539062 C 123.742188 52.882812 124.851562 52.496094 126.015625 52.4375 C 126.332031 52.398438 126.65625 52.398438 126.976562 52.4375 L 126.976562 55.304688 C 126.585938 55.261719 126.199219 55.261719 125.8125 55.304688 C 124.664062 55.34375 123.566406 55.757812 122.734375 56.476562 C 121.898438 57.195312 121.382812 58.164062 121.28125 59.199219 C 121.183594 59.671875 121.136719 60.144531 121.125 60.621094 L 121.125 69.542969 L 117.785156 69.542969 L 117.785156 58.078125 Z M 117.914062 58.054688 "/>
<path style=" stroke:none;fill-rule:evenodd;fill:rgb(0%,0%,0%);fill-opacity:1;" d="M 109.765625 7.28125 C 109.828125 8.785156 109.449219 10.277344 108.675781 11.5625 C 107.902344 12.847656 106.765625 13.875 105.414062 14.511719 C 104.058594 15.148438 102.542969 15.363281 101.074219 15.132812 C 99.59375 14.902344 98.21875 14.234375 97.121094 13.21875 C 96.019531 12.199219 95.246094 10.875 94.890625 9.414062 C 94.539062 7.953125 94.625 6.417969 95.136719 5 C 95.644531 3.589844 96.5625 2.359375 97.765625 1.46875 C 98.96875 0.582031 100.410156 0.0703125 101.902344 0.0078125 C 103.898438 -0.078125 105.851562 0.640625 107.324219 2.003906 C 108.800781 3.371094 109.675781 5.265625 109.761719 7.277344 Z M 109.765625 7.28125 "/>
<path style=" stroke:none;fill-rule:evenodd;fill:rgb(0%,0%,0%);fill-opacity:1;" d="M 65.757812 96.789062 C 45.660156 96.789062 28.109375 89.425781 18.992188 78.523438 C 22.386719 88.304688 28.710938 96.777344 37.09375 102.777344 C 45.476562 108.777344 55.496094 111.992188 65.769531 111.992188 C 76.042969 111.992188 86.0625 108.773438 94.445312 102.777344 C 102.824219 96.78125 109.148438 88.304688 112.539062 78.523438 C 103.40625 89.425781 85.855469 96.789062 65.757812 96.789062 Z M 65.757812 96.789062 "/>
<path style=" stroke:none;fill-rule:evenodd;fill:rgb(0%,0%,0%);fill-opacity:1;" d="M 65.75 25.882812 C 85.847656 25.882812 103.402344 33.25 112.515625 44.148438 C 109.121094 34.367188 102.796875 25.894531 94.414062 19.894531 C 86.03125 13.898438 76.015625 10.675781 65.742188 10.675781 C 55.472656 10.675781 45.449219 13.898438 37.070312 19.894531 C 28.6875 25.890625 22.359375 34.367188 18.96875 44.148438 C 28.101562 33.269531 45.652344 25.882812 65.75 25.882812 Z M 65.75 25.882812 "/>
<path style=" stroke:none;fill-rule:evenodd;fill:rgb(0%,0%,0%);fill-opacity:1;" d="M 38.164062 117.984375 C 38.246094 119.878906 37.769531 121.757812 36.792969 123.382812 C 35.8125 125.007812 34.386719 126.304688 32.675781 127.101562 C 30.964844 127.902344 29.089844 128.175781 27.203125 127.886719 C 25.316406 127.59375 23.609375 126.753906 22.222656 125.46875 C 20.839844 124.183594 19.863281 122.515625 19.414062 120.671875 C 18.972656 118.824219 19.082031 116.890625 19.726562 115.105469 C 20.375 113.324219 21.53125 111.777344 23.054688 110.652344 C 24.578125 109.527344 26.390625 108.894531 28.269531 108.820312 C 30.789062 108.714844 33.238281 109.621094 35.097656 111.339844 C 36.953125 113.066406 38.058594 115.453125 38.164062 117.988281 Z M 38.164062 117.984375 "/>
<path style=" stroke:none;fill-rule:evenodd;fill:rgb(0%,0%,0%);fill-opacity:1;" d="M 21.285156 23.417969 C 20.183594 23.46875 19.085938 23.179688 18.144531 22.601562 C 17.199219 22.023438 16.445312 21.171875 15.980469 20.167969 C 15.511719 19.160156 15.359375 18.03125 15.527344 16.929688 C 15.695312 15.828125 16.183594 14.796875 16.933594 13.980469 C 17.679688 13.160156 18.652344 12.582031 19.722656 12.316406 C 20.792969 12.046875 21.925781 12.113281 22.960938 12.5 C 24 12.882812 24.898438 13.566406 25.546875 14.46875 C 27.117188 16.640625 26.953125 19.617188 25.148438 21.597656 C 24.148438 22.699219 22.757812 23.351562 21.28125 23.417969 Z M 21.285156 23.417969 "/>
</g>
</svg>
