<?xml version="1.0" encoding="UTF-8" standalone="no"?>
<svg
   width="128"
   height="128"
   viewBox="0 0 128 128"
   version="1.1"
   id="svg1"
   sodipodi:docname="Blade.svg"
   inkscape:version="1.3.2 (091e20e, 2023-11-25, custom)"
   xmlns:inkscape="http://www.inkscape.org/namespaces/inkscape"
   xmlns:sodipodi="http://sodipodi.sourceforge.net/DTD/sodipodi-0.dtd"
   xmlns="http://www.w3.org/2000/svg"
   xmlns:svg="http://www.w3.org/2000/svg"
   xmlns:rdf="http://www.w3.org/1999/02/22-rdf-syntax-ns#"
   xmlns:cc="http://creativecommons.org/ns#"
   xmlns:dc="http://purl.org/dc/elements/1.1/">
  <defs
     id="defs1" />
  <sodipodi:namedview
     id="namedview1"
     pagecolor="#ffffff"
     bordercolor="#111111"
     borderopacity="1"
     inkscape:showpageshadow="0"
     inkscape:pageopacity="0"
     inkscape:pagecheckerboard="1"
     inkscape:deskcolor="#d1d1d1"
     inkscape:zoom="4.2592135"
     inkscape:cx="97.553222"
     inkscape:cy="29.700319"
     inkscape:window-width="1920"
     inkscape:window-height="1009"
     inkscape:window-x="-8"
     inkscape:window-y="-8"
     inkscape:window-maximized="1"
     inkscape:current-layer="svg1" />
  <title
     id="title1">file_type_blade</title>
  <path
     d="m 127.90843,28.941768 a 2.2857107,2.2857107 0 0 1 0.0914,0.548571 v 27.478814 a 1.9519969,1.9519969 0 0 1 -1.024,1.73714 l -23.73939,13.257122 v 26.322241 a 1.9519969,1.9519969 0 0 1 -1.024,1.737144 l -49.567917,27.72567 a 3.3599947,3.3599947 0 0 1 -0.374856,0.13715 c -0.04571,0 -0.09143,0.0457 -0.137143,0.0457 a 2.1348538,2.1348538 0 0 1 -1.074284,0 c -0.04571,0 -0.09143,-0.0457 -0.137142,-0.0457 -0.04571,0 -0.233143,-0.0914 -0.324571,-0.13715 L 1.0697775,100.04109 A 2.0022826,2.0022826 0 0 1 6.4852233e-5,98.285656 V 15.867503 A 2.2857107,2.2857107 0 0 1 0.09149285,15.318933 c 0,-0.04571 0.050286,-0.09143 0.096,-0.182857 0.045714,-0.09143 0.091428,-0.228571 0.1371426,-0.32 0.045714,-0.09143 0.096,-0.137142 0.1417141,-0.182857 a 0.45714214,0.45714214 0 0 1 0.1874283,-0.228571 c 0.045714,-0.04571 0.1371426,-0.09143 0.1828568,-0.137142 0.045714,-0.04571 0.1417141,-0.09143 0.18742835,-0.137143 L 25.787453,0.27438486 a 2.0479968,2.0479968 0 0 1 2.047997,0 L 52.594268,14.130363 a 0.75885595,0.75885595 0 0 1 0.233142,0.182857 c 0.05029,0.04571 0.141714,0.09143 0.187429,0.137143 a 0.82742727,0.82742727 0 0 1 0.187428,0.228571 0.63085615,0.63085615 0 0 1 0.137143,0.182857 1.7919972,1.7919972 0 0 1 0.141714,0.319999 c 0,0.04571 0.04571,0.09143 0.09143,0.182857 a 2.3954248,2.3954248 0 0 1 0.096,0.502856 V 67.350851 L 74.285662,55.77144 V 29.490339 a 1.5131405,1.5131405 0 0 1 0.096,-0.502856 c 0,-0.04571 0.04571,-0.09143 0.09143,-0.182857 0.04571,-0.09143 0.09143,-0.228571 0.137143,-0.32 0.04571,-0.09143 0.096,-0.137142 0.141714,-0.182857 a 0.45714214,0.45714214 0 0 1 0.187428,-0.228571 c 0.04571,-0.04571 0.137143,-0.09143 0.182857,-0.137142 0.04572,-0.04571 0.141714,-0.137143 0.233143,-0.182857 L 100.11419,13.901792 a 2.0479968,2.0479968 0 0 1 2.04799,0 l 24.76339,13.851407 a 0.88228432,0.88228432 0 0 1 0.23315,0.182857 c 0.0457,0.04571 0.13714,0.09143 0.18285,0.137142 a 0.7497131,0.7497131 0 0 1 0.18743,0.228571 0.63542757,0.63542757 0 0 1 0.14172,0.182857 2.2308536,2.2308536 0 0 1 0.13714,0.32 c 0.0503,0.04571 0.10057,0.09143 0.10057,0.137142 z m -4.05028,26.884529 V 32.969191 l -8.65827,4.841135 -11.96341,6.724561 V 67.391993 Z M 99.094765,97.161089 V 74.303983 L 87.314213,80.836544 53.668552,99.492516 v 23.090254 c 0,-0.0457 45.426213,-25.421681 45.426213,-25.421681 z M 4.1417727,19.341783 V 97.161089 L 49.572558,122.58277 V 99.492516 L 25.833167,86.459392 c -0.09143,-0.09143 -0.187428,-0.137143 -0.233142,-0.228571 -0.04571,-0.09143 -0.141714,-0.09143 -0.187429,-0.137143 -0.04571,-0.04571 -0.09143,-0.137142 -0.182856,-0.228571 -0.09143,-0.09143 -0.096,-0.137142 -0.141715,-0.182857 a 0.77257021,0.77257021 0 0 1 -0.09143,-0.228571 c -0.05029,-0.09143 -0.096,-0.137142 -0.096,-0.228571 a 0.58057051,0.58057051 0 0 1 -0.04571,-0.274285 c 0,-0.09143 -0.04571,-0.137143 -0.04571,-0.228571 V 30.861765 L 12.800045,24.18749 Z M 26.857166,4.2972357 6.1897694,15.867503 26.811451,27.387485 47.428562,15.821789 Z M 37.563434,76.342836 49.522273,69.668561 V 19.341783 l -8.653701,4.845707 -11.96341,6.674275 V 81.202257 Z M 101.14276,17.924643 80.525652,29.490339 101.14276,41.014892 121.76444,29.444625 c 0.0457,0.04571 -20.62168,-11.519982 -20.62168,-11.519982 z m -2.047995,26.564529 -11.963409,-6.72456 -8.6537,-4.850279 V 55.77144 l 11.958838,6.674276 8.658271,4.850278 z M 51.620555,95.999948 81.874222,79.218261 97.001055,70.806845 76.379373,59.282292 52.644553,72.539414 30.998873,84.653681 Z"
     style="fill:#ef382c;stroke-width:4.57142"
     id="path1" />
  <metadata
     id="metadata1">
    <rdf:RDF>
      <cc:Work
         rdf:about="">
        <dc:title>file_type_blade</dc:title>
      </cc:Work>
    </rdf:RDF>
  </metadata>
</svg>
