<?xml version="1.0" encoding="utf-8"?>
<svg version="1.1" xmlns="http://www.w3.org/2000/svg" xmlns:xlink="http://www.w3.org/1999/xlink"
	 viewBox="0 0 128 128">
<g>
	<rect/>
	<g transform="translate(-18.43636,-431.96218)">
		<path fill="#bad05e" d="M27.32,512.6c-2.2-0.6-3.6-2.2-4.4-5.1c-0.3-1.2-0.4-1.7-0.4-10.2l-0.1-8.9h2.8h2.8v7.2
			c0,4.2,0.1,7.8,0.2,8.5c0.4,2.7,1.5,4.1,3.3,4.1c1.7,0,2.9-1.3,3.7-4.1c0.2-0.9,0.3-2,0.4-8.4l0.1-7.4h2.8h2.8v11.3
			c0,6.2,0,11.6,0.1,11.9l0.1,1.2h-5.5l-0.1-1.4c0-0.5-0.1-1.5-0.1-2.3v-1.4l-0.7,1.4c-0.4,0.8-1,1.7-1.3,2
			C32.32,512.6,29.62,513.2,27.32,512.6L27.32,512.6z"/>
		<path fill="#bad05e" d="M118.12,512.7c-4.1-0.6-7.2-3.3-8.8-7.7c-1.6-4.2-2-10.5-0.8-15.8c1.1-5.3,4.1-8.8,8.4-9.9
			c1.5-0.4,4.5-0.4,5.8,0c3,0.8,5.4,2.8,6.8,5.9c1,2,1.1,1.8-1.7,2.8c-1.4,0.5-2.6,0.9-2.7,0.9s-0.3-0.3-0.4-0.6
			c-0.6-1.8-1.8-3.3-3.2-3.9c-1.1-0.5-2.9-0.4-3.9,0.1c-2.6,1.3-3.8,5-3.8,11.2c0,4.5,0.6,7.4,2,9.6c1.2,1.9,2.5,2.5,4.7,2.4
			c1.7-0.1,3-0.7,4.2-1.8l0.8-0.8v-2.7v-2.7h-2.8h-2.8v-2.2v-2.2h5.6h5.6v5.9v5.9l-0.7,0.8c-1.6,2.1-4.3,3.8-6.9,4.4
			C122.02,512.7,119.42,512.9,118.12,512.7L118.12,512.7z"/>
		<path fill="#bad05e" d="M47.92,496.4c-1.8-8.8-3.5-16.2-3.5-16.4l-0.1-0.9h5.9c0.1,0,0.8,4.9,1.8,10.2
			c1,5.3,2.1,11.4,2.4,13.5c0.3,2.1,0.6,3.9,0.6,3.9l6.5-23.2h2.6l6.7,23.1c0,0.1,0.3-1.3,0.5-2.9s1.3-7.7,2.4-13.5l2-11.1h6
			l-0.1,0.9c0,0.3-1.6,7.6-3.5,16.3c-1.9,8.7-3.3,16.6-3.4,16.6h-7.2l-4.7-17.8l-4.5,17.8h-7.1L47.92,496.4z"/>
		<path fill="#bad05e" d="M136.52,495.9v-16.8h5.9v16.8v16.9h-5.9V495.9z"/>
		<g>
			<circle fill="#bad05e"/>
			<path fill="#bad05e" d="M103.82,500.6c-0.2-1.5-1.2-3.3-2.3-4.4c-1.3-1.3-2.7-2-6.4-3.2c-1.7-0.5-3.5-1.2-4-1.5
				c-1.6-0.9-2.3-2.7-1.9-4.8c0.5-2.1,1.7-3,4.1-3c1.2,0,1.6,0,2.2,0.4c1,0.5,1.6,1.4,2,2.8c0.2,0.5,0.4,1,0.4,1
				c0.6,0,5.4-0.8,5.5-0.9c0.1-0.2-0.5-2.4-1.2-3.7c-1.1-2.1-2.7-3.3-5.3-3.9c-1.5-0.4-5.1-0.4-6.8,0c-4.1,0.9-6.4,3.6-6.7,8
				c-0.2,2.9,0.6,5.4,2.4,7.2c1.4,1.3,2.4,1.9,6.2,3.1c4.2,1.4,5.2,2,5.9,3.6c0.4,0.9,0.5,2.6,0.2,3.8c-0.3,1-1.3,2.1-2.3,2.5
				c-1.2,0.4-3.8,0.4-4.8-0.1c-1.5-0.7-2.4-1.8-2.9-3.8c-0.2-0.5-0.4-0.8-0.5-0.8c-0.1,0.1-1.3,0.3-2.7,0.5
				c-1.4,0.2-2.6,0.4-2.6,0.4c-0.2,0-0.1,0.8,0.2,1.8c1.3,4.1,3.9,6.3,8.4,7c1.3,0.3,4.6,0.1,6-0.1c3.6-0.8,6.1-3.2,6.8-6.7
				C104.02,504.4,104.02,501.9,103.82,500.6z M99.76,482.6c1.12-0.04,2.08,0.92,2.08,2.08c0,1.17-0.96,2.08-2.08,2.08
				c-1.17,0-2.08-0.96-2.08-2.08C97.67,483.52,98.63,482.6,99.76,482.6z"/>
		</g>
	</g>
</g>
</svg>
