<?xml version="1.0" encoding="utf-8"?>
<!-- Generator: Adobe Illustrator 16.0.4, SVG Export Plug-In . SVG Version: 6.00 Build 0)  -->
<!DOCTYPE svg PUBLIC "-//W3C//DTD SVG 1.1//EN" "http://www.w3.org/Graphics/SVG/1.1/DTD/svg11.dtd">
<svg version="1.1" id="Layer_1" xmlns="http://www.w3.org/2000/svg" xmlns:xlink="http://www.w3.org/1999/xlink" x="0px" y="0px"
	 width="2560px" height="1440px" viewBox="0 0 2560 1440" enable-background="new 0 0 2560 1440" xml:space="preserve">
<g>
	<g>
		<path fill="#2788B5" d="M990.51,832.615l-44.477-175.307h23.935l20.809,88.687c5.19,21.854,9.879,43.702,13,60.602h0.522
			c2.854-17.422,8.316-38.23,14.296-60.858l23.411-88.435h23.668l21.331,88.952c4.94,20.809,9.623,41.607,12.226,60.079h0.523
			c3.633-19.251,8.582-38.753,14.045-60.602l23.145-88.435h23.146l-49.683,175.307h-23.667l-22.105-91.289
			c-5.457-22.371-9.105-39.537-11.442-57.225h-0.522c-3.125,17.427-7.02,34.597-13.522,57.225l-24.974,91.289H990.51V832.615z"/>
		<path fill="#2788B5" d="M1185.271,773.828c0.521,30.954,20.29,43.702,43.18,43.702c16.376,0,26.256-2.869,34.838-6.502
			l3.91,16.377c-8.061,3.643-21.854,7.809-41.874,7.809c-38.753,0-61.907-25.497-61.907-63.471
			c0-37.965,22.371-67.883,59.038-67.883c41.1,0,52.019,36.154,52.019,59.3c0,4.684-0.521,8.331-0.773,10.663h-88.43V773.828z
			 M1252.37,757.451c0.266-14.562-5.979-37.199-31.728-37.199c-23.146,0-33.291,21.33-35.105,37.199H1252.37z"/>
		<path fill="#2788B5" d="M1301.762,832.615c0.522-8.582,1.04-21.331,1.04-32.517V647.946h22.628v79.069h0.522
			c8.06-14.05,22.638-23.155,42.913-23.155c31.221,0,53.325,26.009,53.059,64.254c0,44.984-28.351,67.355-56.436,67.355
			c-18.205,0-32.768-7.02-42.129-23.668h-0.789l-1.04,20.809h-19.769V832.615z M1325.43,782.159c0,2.854,0.522,5.714,1.04,8.316
			c4.432,15.869,17.688,26.789,34.331,26.789c23.934,0,38.244-19.503,38.244-48.376c0-25.23-13.014-46.813-37.456-46.813
			c-15.603,0-30.165,10.663-34.853,28.085c-0.523,2.604-1.307,5.729-1.307,9.371V782.159L1325.43,782.159z"/>
		<path fill="#2788B5" d="M1450.228,791.782c10.663,5.457,27.06,10.92,43.958,10.92c18.206,0,27.834-7.543,27.834-18.98
			c0-10.934-8.316-17.165-29.392-24.708c-29.125-10.145-48.109-26.271-48.109-51.767c0-29.909,24.964-52.798,66.315-52.798
			c19.768,0,34.33,4.165,44.742,8.844l-8.85,31.994c-7.02-3.382-19.502-8.331-36.667-8.331s-25.497,7.809-25.497,16.904
			c0,11.19,9.889,16.13,32.517,24.713c30.954,11.442,45.517,27.562,45.517,52.275c0,29.391-22.637,54.37-70.747,54.37
			c-20.024,0-39.793-5.206-49.682-10.663L1450.228,791.782z"/>
		<path fill="#2788B5" d="M1630.967,669.017v36.406h28.352v29.135h-28.352v46.039c0,15.337,3.644,22.371,15.604,22.371
			c4.939,0,8.839-0.522,11.708-1.04l0.251,29.899c-5.19,2.08-14.562,3.392-25.748,3.392c-12.733,0-23.401-4.432-29.646-10.935
			c-7.287-7.542-10.92-19.769-10.92-37.708v-52.019h-16.914v-29.135h16.914v-27.567L1630.967,669.017z"/>
		<path fill="#2788B5" d="M1806.512,767.597c0,46.547-33.039,67.878-67.104,67.878c-37.2,0-65.808-24.441-65.808-65.541
			s27.044-67.365,67.878-67.365C1780.497,702.568,1806.512,729.352,1806.512,767.597z M1714.434,768.889
			c0,21.854,9.105,38.23,26.005,38.23c15.351,0,25.23-15.337,25.23-38.23c0-18.979-7.276-38.23-25.23-38.23
			C1721.453,730.658,1714.434,750.16,1714.434,768.889z"/>
		<path fill="#2788B5" d="M1830.93,747.306c0-18.728-0.523-30.953-1.041-41.878h34.064l1.297,23.406h1.041
			c6.512-18.462,22.119-26.261,34.33-26.261c3.644,0,5.473,0,8.332,0.522v37.195c-2.855-0.522-6.246-1.04-10.664-1.04
			c-14.562,0-24.456,7.794-27.045,20.024c-0.521,2.603-0.788,5.729-0.788,8.849v64.501h-39.526V747.306z"/>
		<path fill="#2788B5" d="M1929.736,745.995c0-15.859-0.521-29.382-1.039-40.572h33.29l1.814,17.17h0.774
			c5.472-8.06,16.647-20.029,38.496-20.029c16.392,0,29.391,8.321,34.854,21.593h0.522c4.683-6.503,10.397-11.714,16.392-15.352
			c7.02-4.166,14.818-6.241,24.186-6.241c24.441,0,42.903,17.17,42.903,55.135v74.912h-38.481v-69.185
			c0-18.462-5.98-29.125-18.729-29.125c-9.105,0-15.603,6.236-18.205,13.774c-1.041,2.869-1.562,7.02-1.562,10.146v74.39h-38.497
			v-71.27c0-16.125-5.714-27.045-18.196-27.045c-10.145,0-16.125,7.795-18.471,14.297c-1.297,3.125-1.563,6.769-1.563,9.889v74.124
			h-38.481v-86.61H1929.736z"/>
	</g>
	<g>
		<g>
			<path fill="#2788B5" d="M653.408,865.359c3.74-4.697,8.162-9.826,13.396-15.864l2.608-3.009c3.261-3.764,5.97-6.672,8.573-9.492
				c5.176-5.583,9.656-10.402,17.838-21.539c8.025-10.935,13.213-19.164,12.365-33.271c-0.411-7.262-0.701-12.245-5.438-18.095
				c-2.845-3.507-8.128-8.606-13.73-14.001c-6.062-5.85-11.336-11.413-18.481-18.858c-7.15-7.417-16.396-26.387-16.396-26.387
				c-2.754-6.28-7.896-19.318-9.328-31.443L623.81,565.671h-59.861l-29.285,135.862l-25.932-135.862h-70.66l63.746,308.658h59.519
				l29.754-133.607l26.314,133.607h27.63L653.408,865.359z"/>
		</g>
		<path fill="#2788B5" d="M777.983,584.143c6.251-7.248,11.403-13.121,15.632-18.452h-94.937
			c-5.651,7.213-17.117,21.118-23.668,33.45c-8.65,16.328-15.768,28.578-16.474,58.637l0.319,9.682
			c0,14.33,10.247,35.371,10.247,35.371c1.602,3.729,7.024,11.625,10.493,16.43h-0.087c1.142,1.52,1.896,2.496,1.896,2.496
			c10.232,11.723,25.715,24.824,32.551,33.238c7.992,9.859,8.205,19.119,8.636,26.318c1.156,19.459-6.715,31.187-15.134,42.677
			c-12.733,17.364-17.32,20.581-27.122,31.932c-6.251,7.237-11.398,13.101-15.632,18.408h98.092
			c5.753-7.383,13.943-21.017,20.519-33.426c8.65-16.329,15.776-28.579,16.474-58.608l-0.319-9.69c0-14.354-10.247-35.4-10.247-35.4
			c-1.602-3.73-7.029-11.577-10.504-16.43h0.088c-1.113-1.49-1.887-2.487-1.887-2.487c-10.233-11.732-25.725-24.814-32.551-33.237
			c-7.992-9.884-8.205-19.13-8.636-26.324c-1.157-19.438,6.715-31.186,15.143-42.676
			C763.605,598.729,768.187,595.478,777.983,584.143z"/>
	</g>
</g>
</svg>
