<svg xmlns="http://www.w3.org/2000/svg" viewBox="0 0 128 128"><defs><linearGradient id="a" x1="-.102" x2="64.053" y1="32" y2="32" gradientTransform="matrix(.4913 0 0 .4913 0 44.056)" gradientUnits="userSpaceOnUse"><stop stop-color="#FB43FF"/><stop offset=".97" stop-color="#FB406D"/></linearGradient></defs><path fill="#000" fill-rule="evenodd" d="m47.412 58.416 3.385-6.003v-.005h2.786l-5.33 9.128v5.596h-2.556v-5.571l-5.414-9.148h2.845l3.468 6.023.408.83zm10.587-2.304c1.057 0 2.02.246 2.88.737h-.005a5.4 5.4 0 0 1 2.034 2.024c.496.855.741 1.818.741 2.874 0 1.057-.25 2.015-.741 2.874a5.365 5.365 0 0 1-2.034 2.025c-.86.491-1.833.737-2.89.737-1.056 0-2.019-.246-2.878-.737a5.435 5.435 0 0 1-2.034-2.025c-.497-.854-.742-1.817-.742-2.874 0-1.056.245-2.014.737-2.874A5.33 5.33 0 0 1 55.1 56.85c.87-.491 1.842-.737 2.898-.737zm1.602 8.622c.467-.284.83-.687 1.086-1.208.255-.52.383-1.106.383-1.779 0-.673-.128-1.267-.388-1.783a2.912 2.912 0 0 0-1.086-1.209 2.978 2.978 0 0 0-1.601-.437c-.6 0-1.135.147-1.602.432a2.875 2.875 0 0 0-1.081 1.209c-.255.52-.383 1.12-.383 1.788 0 .669.128 1.263.383 1.779s.614.924 1.08 1.208c.463.29 1.003.433 1.603.433.599 0 1.134-.148 1.606-.432zm12.582-.78c.207-.399.31-.846.31-1.352l-.005-.01v-6.234h2.481v10.77h-2.407V65.54c-.31.521-.708.948-1.204 1.258-.614.388-1.336.58-2.162.58-.771 0-1.45-.172-2.029-.506-.58-.334-1.032-.82-1.356-1.46-.32-.633-.481-1.395-.481-2.28v-6.77H67.8v6.393c0 .52.088.963.265 1.326.177.364.423.644.752.835.33.192.722.29 1.184.29a2.54 2.54 0 0 0 1.302-.329c.378-.221.673-.526.88-.924zm2.511-11.541h11.718v2.368h-4.545v12.356h-2.609V54.781h-4.564zm13.87 5.586c.28-.457.623-.83 1.031-1.11l-.005.004c.575-.398 1.243-.594 2.01-.594h.398v2.5h-.693c-.55 0-1.037.104-1.444.305a2.212 2.212 0 0 0-.949.875c-.22.378-.329.825-.329 1.346v5.812h-2.48v-10.77h2.46zm11.442-1.297c.545.324.992.756 1.341 1.292v-1.626h2.442v10.769h-2.442v-1.626a4.014 4.014 0 0 1-1.341 1.292c-.668.393-1.45.59-2.339.59-.953 0-1.808-.241-2.564-.723-.757-.481-1.351-1.15-1.779-2.01-.427-.859-.643-1.827-.643-2.908 0-1.08.216-2.048.643-2.908.428-.86 1.022-1.528 1.774-2.01.752-.481 1.606-.722 2.57-.722.889 0 1.67.197 2.338.59zm-.147 8.037c.466-.29.825-.692 1.085-1.208s.389-1.11.389-1.784c0-.673-.128-1.267-.389-1.783a2.98 2.98 0 0 0-1.085-1.209 2.973 2.973 0 0 0-1.597-.437c-.59 0-1.115.147-1.577.437-.462.29-.82.693-1.076 1.209-.256.516-.383 1.11-.383 1.783 0 .673.127 1.268.383 1.789.255.516.614.918 1.076 1.208.462.29.977.433 1.577.433s1.135-.148 1.597-.438zm11.408-6.426a2.81 2.81 0 0 0-1.553.442v-.005a3.035 3.035 0 0 0-1.076 1.224c-.26.525-.388 1.125-.388 1.773 0 .649.128 1.238.388 1.76.256.52.614.928 1.076 1.228.462.3.978.447 1.553.447a2.776 2.776 0 0 0 2.004-.836c.256-.265.457-.58.605-.943h2.638a5.163 5.163 0 0 1-1.027 2.078 5.075 5.075 0 0 1-1.833 1.4 5.679 5.679 0 0 1-2.397.502c-1.052 0-2.005-.246-2.855-.737a5.301 5.301 0 0 1-2.01-2.024c-.485-.855-.731-1.818-.731-2.875 0-1.056.246-2.014.732-2.874a5.336 5.336 0 0 1 2.01-2.024c.85-.491 1.802-.737 2.854-.737.87 0 1.67.167 2.397.501.728.334 1.337.801 1.833 1.4a5.1 5.1 0 0 1 1.027 2.079h-2.638a2.879 2.879 0 0 0-.605-.944 2.786 2.786 0 0 0-2.004-.835zm12.181 3.078 4.36-5.023h-2.878l-4.206 4.795v-8.75h-2.48v14.72h2.48v-5.341l4.26 5.34H128zM44.326 77.226c.427 0 .815.118 1.159.344.343.23.613.544.81.942.196.398.294.849.294 1.35 0 .5-.098.952-.295 1.35a2.31 2.31 0 0 1-.81.941c-.343.23-.73.344-1.163.344-.402 0-.755-.089-1.055-.265-.235-.133-.412-.329-.564-.555v.702H41.27V75.5h1.438v2.547a1.79 1.79 0 0 1 .564-.555c.3-.176.653-.265 1.055-.265zm.221 3.823c.182-.113.324-.275.427-.48.103-.207.152-.438.152-.707 0-.27-.049-.506-.152-.712a1.165 1.165 0 0 0-.427-.481 1.158 1.158 0 0 0-.628-.172c-.24 0-.451.06-.633.172a1.165 1.165 0 0 0-.427.481 1.544 1.544 0 0 0-.152.707c0 .27.049.505.152.711.103.206.245.368.427.481.182.113.398.172.633.172.236 0 .447-.059.628-.172zm3.514-3.705 1.158 3.126h.005l1.065-3.126h1.443l-2.091 5.34a2.17 2.17 0 0 1-.643.917c-.28.23-.623.344-1.025.344h-.898v-1.272h.804a.494.494 0 0 0 .28-.073.592.592 0 0 0 .191-.226l.148-.3-1.92-4.73zm8.117 3.16c.083-.152.123-.323.123-.515V75.5h1.52v4.598c0 .432-.097.82-.299 1.168-.2.348-.476.618-.824.815a2.376 2.376 0 0 1-1.183.294h-1.163v-1.399h.962c.197 0 .368-.039.515-.122a.85.85 0 0 0 .349-.349zm7.489-.932h-3.19v1.482h3.622v1.325h-5.104V75.5H64v1.33h-3.523v1.457h3.19zm3.023-2.709h-2.042V75.5h5.59v1.364H68.21v5.511H66.69zm8.44 1.914c.143.04.275.088.398.152h.005c.28.152.5.358.657.628.157.27.236.574.236.913 0 .368-.098.697-.3.986a1.98 1.98 0 0 1-.843.678 3.009 3.009 0 0 1-1.237.245H70.93V75.5h3.057c.437 0 .83.078 1.173.23.343.153.608.369.8.643a1.6 1.6 0 0 1 .284.938c0 .304-.073.574-.216.81a1.459 1.459 0 0 1-.594.549c-.088.046-.189.075-.287.103zm-1.374-2.125h-1.35v1.693h1.35c.187 0 .353-.04.496-.108a.772.772 0 0 0 .338-.3.848.848 0 0 0 .123-.456.799.799 0 0 0-.123-.436.811.811 0 0 0-.338-.29 1.132 1.132 0 0 0-.496-.103zm.609 4.466a.87.87 0 0 0 .368-.304v.01a.792.792 0 0 0 .132-.457.851.851 0 0 0-.132-.471.881.881 0 0 0-.373-.32 1.303 1.303 0 0 0-.545-.112h-1.409v1.762h1.409c.206 0 .393-.035.55-.108zm8.126-2.292a2.102 2.102 0 0 1-.888.77h-.005c-.068.035-.147.064-.226.094l1.571 2.69h-1.737l-1.394-2.509h-.992v2.508H77.3V75.5h3.013c.495 0 .932.088 1.31.27.378.181.667.437.873.765.206.33.31.702.31 1.139 0 .437-.104.824-.315 1.153zm-1.747-.3a.858.858 0 0 0 .363-.333v.005a.978.978 0 0 0 .128-.506.977.977 0 0 0-.128-.505.847.847 0 0 0-.363-.329 1.3 1.3 0 0 0-.554-.113h-1.37v1.9h1.37c.211 0 .397-.04.554-.118zm2.7 3.853 2.458-6.88h1.654l2.507 6.88h-1.516l-.52-1.516h-2.552l-.486 1.516zm3.17-5.099-.79 2.43h1.82l-.844-2.43-.093-.441zm5.614 5.1h-1.57v-6.881h1.57zm2.67-6.881 2.954 4.652h.005V75.5h1.388v6.88h-1.497l-2.944-4.652v4.652h-1.389V75.5zm9.642 3.16c.27.197.481.437.629.722v-.01c.151.29.225.603.225.942 0 .417-.112.79-.333 1.119-.221.329-.53.589-.923.775-.398.187-.854.28-1.36.28-.505 0-.956-.093-1.349-.275a2.267 2.267 0 0 1-.927-.765 1.985 1.985 0 0 1-.349-1.134h1.521c0 .177.05.334.143.471a.88.88 0 0 0 .397.314c.172.074.368.113.58.113.21 0 .392-.034.549-.098a.806.806 0 0 0 .363-.28.688.688 0 0 0 .133-.412.672.672 0 0 0-.177-.476.938.938 0 0 0-.48-.265l-1.238-.255a2.24 2.24 0 0 1-.854-.368 1.816 1.816 0 0 1-.569-.668 2.01 2.01 0 0 1-.201-.898c0-.412.108-.775.314-1.094.211-.319.5-.57.873-.75.374-.182.796-.27 1.276-.27.481 0 .913.088 1.286.26.373.171.668.411.879.72.21.305.324.663.334 1.06h-1.522a.704.704 0 0 0-.123-.397.802.802 0 0 0-.338-.27 1.154 1.154 0 0 0-.5-.098 1.29 1.29 0 0 0-.496.093.771.771 0 0 0-.334.256.661.661 0 0 0-.118.387c0 .167.054.3.162.412a.872.872 0 0 0 .437.231l1.168.24c.348.064.652.197.922.388z" clip-rule="evenodd"/><path fill="url(#a)" d="M.641 69.232a.123.123 0 0 1-.037-.152l3.751-7.726-4.327-5.168a.122.122 0 0 1 .016-.173l12.62-10.517a6.222 6.222 0 0 1 7.805-.128 6.187 6.187 0 0 1 1.767 7.584l-1.376 2.833c.537-.18 1.068-.343 1.593-.49l6.226-1.79a.123.123 0 0 1 .154.092l2.607 11.587a.124.124 0 0 1-.106.151c-.826.104-5.334.752-10.947 3.11-6.359 2.67-10.555 6.467-11.15 7.022a.121.121 0 0 1-.156.007z"/><path fill="#000" d="M25.547 49.951H5.895v19.652h19.652z"/><path fill="#fff" d="m7.85 52.404 2.696 4.608v2.764h1.406v-2.775l2.654-4.597h-1.522l-1.626 2.938-.196.427-.195-.421-1.67-2.944zm7.03 0v1.295h2.243v6.077h1.438V53.7h2.233v-1.295ZM8.352 65.672v1.474h7.86v-1.474z"/></svg>
