<svg xmlns="http://www.w3.org/2000/svg" viewBox="0 0 128 128"><path fill="#000000" d="M67.209.009a26.464 26.464 0 0 0-16.538 6.134L27.759 25.24h-2.535v2.111L.88 47.643c-1.031.855-1.18 2.44-.316 3.468l16.253 19.405L2.575 99.854a2.475 2.475 0 0 0 .755 3.052l33.292 24.63c.886.655 2.278.62 3.137-.177 2.048-1.913 15.957-14.486 37.26-24.576h25.748v-9.75c12.216-3.623 20.96-4.864 23.08-5.132 1.412-.177 2.404-1.604 2.097-2.982v-.008l-10.288-45.722c-.308-1.353-1.743-2.205-3.075-1.82l-11.814 3.392V25.24h-8.67A26.417 26.417 0 0 0 83.94 5.596 26.48 26.48 0 0 0 67.209.01Zm.07 3.938A22.536 22.536 0 0 1 81.52 8.709a22.425 22.425 0 0 1 8.631 16.53H33.925L53.199 9.18a22.536 22.536 0 0 1 14.08-5.232ZM25.223 32.492v70.29H68.22c-16.789 8.96-27.462 18.424-30.156 20.9L6.66 100.472l14.827-30.526L4.548 49.723Zm7.714 2.427h6.112l6.58 11.614.772 1.665.77-1.688 6.42-11.59h6.003L49.122 53.06v10.944H43.58V53.099Zm27.736 0h23.335v5.11h-8.808v23.975h-5.672V40.029h-8.855zm53.483 6.682 9.602 42.694c-2.94.401-10.502 1.57-20.992 4.608V44.868ZM34.919 87.269h31.018v5.819H34.92Z" /></svg>
