<svg xmlns="http://www.w3.org/2000/svg" viewBox="0 0 128 128"><defs><linearGradient id="a" x1="-.102" x2="64.053" y1="32" y2="32" gradientTransform="scale(1.99998)" gradientUnits="userSpaceOnUse"><stop stop-color="#FB43FF"/><stop offset=".97" stop-color="#FB406D"/></linearGradient></defs><path fill="url(#a)" d="M2.613 102.488a.5.5 0 0 1-.152-.62l15.27-31.45L.118 49.38a.498.498 0 0 1 .064-.703L51.558 5.864c9.141-7.62 22.376-7.835 31.767-.521 9.387 7.314 12.387 20.176 7.194 30.872L84.92 47.75a134.31 134.31 0 0 1 6.482-1.998l25.348-7.28a.5.5 0 0 1 .626.37l10.611 47.17a.506.506 0 0 1-.43.614c-3.364.423-21.715 3.06-44.562 12.658-25.886 10.873-42.968 26.325-45.388 28.585a.493.493 0 0 1-.638.029z"/><path fill="#000" d="M104 24H24v80h80z"/><path fill="#fff" d="m31.957 33.984 10.977 18.758v11.254h5.722V52.699l10.805-18.715h-6.195l-6.621 11.96-.797 1.74-.793-1.716-6.797-11.984zm28.617 0v5.273h9.133v24.739h5.851V39.257h9.09v-5.273ZM34 87.995v6h32v-6z"/></svg>
