<svg xmlns="http://www.w3.org/2000/svg" viewBox="0 0 128 128"><path fill="#A90533" d="M20.7 88.6C11 78.2 5.2 63.9 5.3 46.8c0-15.1 4.7-28.1 12.9-38H1v79.7l19.7.1zm90.4 0c4.2-4.5 8-9.8 11.4-15.9l-19-9.5C96.8 74 87.1 84 73.6 84.1 54 84 46.3 67.2 46.3 45.6h73.3c.1-2.4.1-3.6 0-4.7.5-12.9-2.9-23.7-9.1-32.1H127v79.7l-15.9.1zM47.5 27.1c.8-9.8 8.5-16.4 17.6-16.4 9.1 0 15.7 6.6 15.9 16.4H47.5z"/><path d="M11.4 102.1v-3.3H1.2v19.7h10.2v-3.3H5v-5.3h6.2v-3.3H5v-4.5zm17.4 8.1c2.5-.4 3.9-2.9 4-5.5-.1-4.2-2.8-5.9-6.6-5.9H21v19.7h3.8v-7.8l4.7 7.8h4.7l-5.4-8.3zm-4.1-8.3h.5c2.1.1 3.6.6 3.6 3.1.1 2.3-1.4 3-3.6 2.8h-.5v-5.9zm21.4-3.1h-3.8v19.7h9.2v-3.3h-5.4zM71 114.4l1.7 4h4l-7.4-20.2h-3.1l-7.8 20.2h4l1.7-4H71zm-.9-3h-4.7l2.1-7.4 2.6 7.4zm13.7 7.1h4.1v-13.3L98.3 119h2.8V98.8h-4v13.3L86.7 98.3h-2.9zm34-10.5v3.1h4.3c-.1 2.5-2.1 4.6-4.5 4.5-3.8.1-5.6-3.6-5.7-6.9 0-3.3 1.9-7.1 5.7-7.1 2 .1 3.7 1.4 4.5 3.1l3.3-1.7c-1.5-3.1-4.4-4.8-7.8-4.7-5.9 0-9.7 4.8-9.7 10.4.1 5.5 3.7 10.4 9.5 10.4 6.2-.1 9.1-5 9-10.7v-.4h-8.6z"/></svg>