<svg version="1.2" xmlns="http://www.w3.org/2000/svg" viewBox="0 0 2048 2048" width="2048" height="2048"><style>.a{fill:#83161a}.b{fill:#aa1e22}.c{fill:#fefefe}</style><path class="a" d="m766.4 37.3q-0.7 0.6-1.4 1.3 0.7-0.7 1.4-1.3z"/><path class="b" d="m0 1024c0 565.5 458.5 1024 1024 1024 565.5 0 1024-458.5 1024-1024 0-565.5-458.5-1024-1024-1024-565.5 0-1024 458.5-1024 1024z"/><path class="c" d="m489.1 767.2c18-23.7 37.4-46.3 59.4-66.3 12.3-11.1 24.5-22.3 37.1-32.9 8.5-7.1 17.6-13.6 26.7-19.8 14.5-9.9 28.8-20.2 44-28.9 15.8-9.2 32.3-17.3 48.9-25 14.7-6.9 29.7-13.2 45-18.6 22.1-7.9 44.5-15.1 67.7-19.2 17.6-3.2 35.2-6.3 52.9-9 22.4-3.4 44.9-4.8 67.6-4 16.2 0.6 32.5 1.1 48.7 2.2 38.6 2.6 76.5 9.6 113.4 20.9 53.4 16.4 103.6 39.5 149.9 70.8 17 11.5 36.2 14 54.8-0.3 10.8-8.4 22-16.4 33-24.5 9.3-6.9 18.5-14 27.9-20.8 12.7-9.2 25.6-18.2 38.3-27.4 11-7.9 22-15.9 33-23.8 8.9-6.3 17.9-12.4 26.8-18.7 14.3-10 28.4-20.2 42.7-30 13.4-9.2 27-17.9 41-27.2-1.8-1.6-2.9-2.8-4.2-3.8-15.6-12.1-30.8-24.7-46.9-36.1-16-11.5-32.8-21.9-49.4-32.5-8.7-5.5-17.4-11-26.6-15.6-21.6-11-43.3-22-65.4-31.9-20.2-9-40.7-17.7-61.7-24.6-24.1-7.9-48.8-14-73.3-20.4-15.3-3.9-30.6-7.8-46.1-10-29-4.1-58-8-87.2-10.1-26.5-1.9-53.2-1.8-79.9-1.6-16.6 0.2-33.3 1.8-49.9 3.8-23.9 2.9-47.9 5.9-71.7 10.3-19.3 3.5-38.4 8.6-57.4 13.8-18.3 5-36.5 10.7-54.5 16.8-14 4.8-27.9 10.2-41.4 16.2-22.2 9.7-44.4 19.6-65.9 30.6-16.8 8.5-33 18.4-48.7 28.6-20.2 13.2-40.1 26.9-59.5 41.2-15.5 11.4-30.3 24-45.1 36.4-8 6.7-15.5 13.9-23 21.2-10.7 10.5-21.2 21.3-31.7 32.1-7.3 7.7-14.5 15.4-21.4 23.4-6.4 7.3-12.4 14.9-18.5 22.5-6.7 8.3-13.6 16.4-19.9 25.1-7.7 10.7-15.1 21.6-22.2 32.8-11.1 17.4-22.3 34.8-32.6 52.7-9.1 15.9-17.4 32.2-25.1 48.8-7.3 15.7-13.3 31.9-20 47.8-9.5 22.3-17.4 45.2-23.3 68.6-6.3 24.5-12.4 49.1-17.7 73.9-3.2 14.9-5.3 30-7.1 45.1-2.2 18.5-3.9 37.1-5.1 55.7-1 16.7-1.3 33.5-1.4 50.3-0.1 10.1 0.5 20.2 1.1 30.3 1.1 17.6 1.6 35.3 3.7 52.8 2.5 21.3 6.3 42.5 9.7 63.7 0.3 1.4 2.2 3.3 3.6 3.5 6.3 1.1 12.6 1.8 18.8 2.5 18.5 2.3 36.9 5 55.4 6.6 6.4 0.5 13.6-0.4 19.4-3 19.6-8.9 28.1-26.2 25.3-47.7-1.7-12.6-3.9-25.3-4.4-38-0.7-21.6-0.5-43.2-0.3-64.8 0.2-25.9 3.9-51.6 8.3-77.2 6.5-37.3 17.3-73.3 31.4-108.4 11.5-28.6 25-56.4 41.7-82.4 10.1-15.8 20.1-31.6 31.3-46.5z"/><path class="c" d="m1494 1403.1c-5-14.1-10.1-28.2-15.1-42.4-5.3-15.1-10.4-30.3-15.8-45.5-5.9-16.9-12-33.8-18-50.7-4.7-13.4-9.5-26.8-14.3-40.1-3.4-9.7-7.1-19.2-9.9-29.1-3.7-12.6-9.5-23.9-18.5-33.4-11.4-12.2-23.2-24.2-35.3-35.8-13.4-13-27.3-25.6-41.2-38.1-3.9-3.5-8.7-6.1-13.3-8.6-9.6-5-20.1-7-30.9-8.6-16.6-2.6-33.1-5.9-49.7-8.8-19.1-3.2-38.2-6.2-57.3-9.4-16.4-2.8-32.8-5.8-49.3-8.6-22.8-3.7-45.7-7.2-68.5-11-19.4-3.3-38.7-6.9-58.1-10.3-27.5-4.8-55.1-9.2-82.5-14.4-12.2-2.2-24-1.2-35 3.5-15.8 6.8-28.5 17.4-37.6 32.6-8.7 14.6-11.9 30.2-10.2 46.6 1.8 17.8 7.5 34.4 17.2 49.7 11.7 18.3 26.6 31.5 48.6 36.3 18.9 4.2 37.4 10 56.1 15.2 23.4 6.5 46.9 13.1 70.3 19.6 54.6 15.1 109.2 30.1 163.7 45.5 18.5 5.2 37.7 8.5 54.6 18.7 18 10.8 32 25.1 41.2 43.8 3.9 7.9 7 16.1 10.2 24.2 6 15.7 12 31.5 17.7 47.3 4.8 13.2 9 26.6 13.6 39.9 5.6 16 11.3 31.9 16.8 47.9 8 23.5 15.7 47 23.6 70.5 7.5 22.3 15 44.7 22.6 67.1 7.9 23.1 16 46.1 23.6 69.3 2.7 8.3 7.1 16.1 6.6 25.3-0.6 10.4-7.8 20.1-17.8 21.6-17.7 2.6-35.5 4.8-53.3 6.8-22.9 2.6-45.9 4.8-68.9 7.3-19.9 2.1-39.8 4.5-59.7 6.8-16.3 1.9-32.5 4-48.8 5.9-12.1 1.4-23.6-2.6-29.1-15.6-3.3-7.9-7.2-15.6-11.2-23.2-16.3-30.3-33.5-60.1-53-88.4-11.6-16.9-22.9-34.2-35.7-50.1-18-22.5-37.1-44.1-56.3-65.6-15.7-17.6-33.1-33.4-51.4-48.4-27.6-22.7-56.6-43.2-89.6-57.4-19.7-8.4-39.6-16.8-60-23.3-22.7-7.1-45.8-13-69.1-17.7-22-4.5-44.3-8-66.6-9.7-23.9-1.8-48-1.6-72-1-16.6 0.4-33.2 3-49.8 4.9-6.5 0.8-13 2.1-19.4 3.6-6.2 1.4-12.3 3.3-18.3 5 1.3 3.5 2.2 6.5 3.7 9.3 3.5 6.7 6.2 13.8 12.4 19 11.3 9.4 24 10.5 37.6 7.6 19.1-4.1 38.3-5.6 57.8-6 38.8-0.6 76.5 6.4 113.7 16 53.9 13.8 103.6 37.3 149.6 68.4 18.9 12.8 36.9 27.1 54.7 41.6 23.2 19.1 44.4 40.5 64.5 62.8 6.7 7.4 13.3 14.9 19.5 22.7 12.2 15.2 24.7 30.4 36.1 46.3 11.9 16.7 22.9 34 33.9 51.4 7.1 11.2 13.4 22.8 20.1 34.3 7.9 13.5 14.6 27.7 26.9 38.5 16.9 14.9 36.6 21.9 58.7 22.2 10.1 0.2 20.2-1.4 30.3-2.4 23.7-2.5 47.5-5.2 71.2-7.7 18.8-2 37.6-3.9 56.4-5.9 15.5-1.7 31-3.5 46.5-5.3 23.4-2.9 46.7-5.7 70.1-8.9 11.4-1.6 19.8-13.7 17-24.5-5.5-20.8-11.5-41.5-17.4-62.2-3.9-14-8.2-27.9-12.2-41.9-5.3-18.1-10.4-36.3-15.8-54.3-4.1-14-8.3-28-12.5-41.9-6.2-20.2-12.4-40.5-18.7-60.7-4.4-14-9-28-13.6-42-7.6-22.9-15.2-45.9-23.1-68.7-5.4-15.3-11.1-30.4-17.2-45.5-5.9-14.5-11.6-29.2-18.9-43.1-10.9-20.9-26.3-38.4-45.1-52.9-15.4-12-32.2-21.5-50.9-26.7-56.2-15.4-112.7-30-169.1-45-47.7-12.6-95.3-25.6-143.1-37.6-17.7-4.5-33.9-22.4-31.9-43.4 2-20.8 22.2-39.2 44.2-34.6 32.9 6.9 66.2 12.5 99.3 18.6 38.9 7 77.8 13.9 116.7 21 38.3 6.9 76.4 14.1 114.7 21 13.6 2.5 27 5 39 12.6 15.6 10.1 29.7 21.8 42.4 35.3 8.6 9.2 16.9 18.7 24.6 28.7 11.9 15.3 16.4 34.3 23.9 51.7 6.4 14.9 12 30.2 18.1 45.2 5.9 14.6 12 29.1 17.9 43.7 6 15 11.9 30.2 18 45.2 6.2 15.7 12.6 31.4 18.9 47 3 7.6 6.3 15.3 13.1 20.2 14.8 10.6 30 20.8 45 31.2q0.5-0.4 1-0.8-4-11.4-7.9-22.8c-5.4-15.5-10.6-30.9-16-46.4z"/><path class="c" d="m1579.6 385c-14-12.7-28.8-24.6-43.9-36.1-16.6-12.6-33.5-25-51.2-36.2-23.1-14.6-46.8-28.3-70.6-41.8-34.4-19.3-70.9-34-107.8-47.7-65.5-24.2-133.4-38.1-202.7-45.3-18.3-2-36.8-3.6-55.2-3.8-27.7-0.4-55.5-0.1-83.2 1.2-21.2 1.1-42.4 3.5-63.4 6.7-25.7 4-51.2 9.2-76.7 14.4-12 2.5-23.8 6-35.5 9.6-21.3 6.5-42.5 13.3-63.6 20.5-10.2 3.4-20 7.8-29.9 12.1-12.8 5.4-25.6 10.7-38.2 16.7-13.1 6.3-25.9 13.1-38.7 20.1-14.9 8.1-29.8 16.3-44.4 25.1-11.4 6.9-22.3 14.6-33.3 22.2-13 8.9-26.1 17.6-38.5 27.3-15.8 12.5-31.1 25.7-46.4 38.9-9.3 8-18.1 16.6-26.9 25.1-7.6 7.4-15 15-22.4 22.7-9.4 9.9-19 19.7-28 30.1-9.4 10.9-18.3 22.2-27 33.7-13.2 17.6-26.4 35.2-38.8 53.5-10.5 15.5-20.5 31.4-29.5 47.8-12.4 22.7-24.2 45.8-35.3 69.1-7.7 16.4-14 33.4-20.6 50.2-12.6 32.1-23.1 64.8-30.9 98.3-7.8 33.5-13.7 67.3-18 101.5-3.9 30.9-5.5 61.9-6.1 93-0.5 20.5 0.5 41.2 1.8 61.7 1.3 20 3.5 39.9 5.9 59.8 1.9 15.2 4.3 30.2 7.2 45.2 1.4 7.1 3.1 14.5 6.7 20.6 9.6 16.4 25.4 21.9 43.7 21.8-3.2-23.1-7-45.8-9.4-68.6-2-19.2-2.8-38.5-3.3-57.8-0.5-20.6-0.8-41.3 0.3-61.9 1.5-26.3 3.2-52.7 7.1-78.8 4.3-28.9 10.7-57.6 17-86.1 3.4-15.8 8.3-31.3 13.1-46.8 4-12.6 8.7-25 13.4-37.3 5.9-15.5 11.7-31 18.4-46 6.6-14.8 14.1-29.1 21.6-43.5 7.5-14.4 15.2-28.9 23.5-42.9 8.7-14.6 17.9-29 27.5-43 9-13.2 18.4-26 28.2-38.5 8.9-11.3 18.4-22.1 27.8-33 9.1-10.5 18-21.1 27.8-31 13.2-13.3 26.9-26.2 40.9-38.8 13.4-12 27.2-23.6 41.1-34.9 10.9-8.8 22.2-17.2 33.6-25.2 14.7-10.4 29.4-21.1 44.8-30.3 19.6-11.7 39.6-22.6 60-32.8 20.5-10.2 41.6-19.3 62.6-28.4 11.8-5.1 23.8-9.6 36-13.6 19.9-6.5 39.9-12.6 60-18.5 23.8-7 48.1-12.2 72.7-15.6 17.7-2.5 35.3-5.3 53.1-6.8 23.8-2 47.8-3.2 71.7-4 15-0.5 30 0.5 45 0.7 25.8 0.4 51.4 3.4 77 6.9 31.3 4.4 62.5 9.7 92.9 18.4 24.4 6.9 48.5 14.6 72.4 22.7 14.5 5 28.7 10.9 42.7 17.2 21.7 9.7 43.5 19.3 64.4 30.5 20.7 11.1 40.7 23.5 60.3 36.5 20.8 13.9 40.8 28.9 61 43.6 6.7 4.9 12.8 10.6 19.3 15.7 1.1 0.8 3.4 1.1 4.6 0.5 14.3-7.2 21.6-19.3 23.3-34.8 1.3-12.2-2.1-23.6-11-31.8z"/><path class="c" d="m1580.5 1487.8c-7.9-24.6-15.7-49.1-23.4-73.7-8.4-26.4-16.6-52.8-24.9-79.2-3.2-10.1-6.5-20.2-9.6-30.3-3.5-11-6.6-22.2-10-33.2-4.3-13.9-8.8-27.8-13.1-41.7-4.7-15.2-9.3-30.4-14-45.5-4.3-13.6-8.7-27.1-12.8-40.7-6.1-19.8-11.9-39.6-18.1-59.4-5.5-17.7-11.3-35.2-16.8-52.9-7.3-23.4-14.2-47-21.5-70.3-5.7-18.4-11.6-36.7-17.8-54.9-2.6-7.8-4.7-16.3-9.5-22.7-15.6-20.6-31.9-40.6-48.6-60.3-14.9-17.7-32-33.2-49.8-48-24.6-20.7-50.7-39-78.5-55.3-24.5-14.2-50.1-25.8-76.5-35.8-37.2-14.3-75.8-23.6-115.4-27.6-22.9-2.2-46.1-3.6-69.1-3.6-18.1 0-36.2 1.8-54.1 4.4-21.3 3.1-42.4 7.4-63.4 12.1-11.1 2.4-22 6.2-32.7 10.2-18.4 6.8-36.8 13.9-54.8 21.8-12 5.4-23.5 12.2-35 18.8-12.9 7.5-25.8 15.2-38.3 23.4-9.4 6.2-18.4 13-27.4 19.8-8.4 6.4-16.8 12.8-24.6 20-11.4 10.5-22.4 21.6-33.4 32.6-6.6 6.7-13 13.6-19 20.8-6.7 8.1-13 16.7-19.1 25.3-8 11-16.3 21.9-23.2 33.5-9.1 15.4-17.2 31.4-25.4 47.3-12.3 24-21.2 49.4-29.3 75-12.4 39.2-19.2 79.5-22 120.3-2.1 29.2-1.9 58.5 1.8 87.6 2.1 15.8 4.1 31.5 7.1 47.1 2.6 13.7 6.2 27.1 10 40.5 3.9 13.8 8.7 27.4 13.1 41 14.7-2.9 28.3-5.7 41.8-8.3 7-1.3 14-2.6 21.1-3.3 12.1-1.2 24.3-2 36.5-2.6 10.7-0.6 21.5-1.5 32.1-0.9 23.9 1.4 47.9 1.3 71.5 6.1 24.9 5.2 50.4 8.6 74.9 15.2 24.8 6.7 48.7 16.8 73.3 24.6 21.4 6.9 41 17.9 60 29.5 18.7 11.4 36.6 24.5 53.5 38.5 17.8 14.6 34.7 30.5 50.7 47.1 16.9 17.5 32.7 36 48.1 54.8 12.8 15.4 24.8 31.4 36.3 47.8 12 17.1 23.2 34.7 34.1 52.5 10 16.2 19.2 32.8 28.4 49.5 6 10.7 11.2 21.8 17 32.6 0.8 1.5 3.1 3 4.9 3.2 3.3 0.3 6.9-0.1 10.3-0.5 20.6-2.2 41.3-4.5 61.9-7 16.1-1.8 32.2-3.9 48.3-5.8 15.1-1.7 30.2-3.2 45.3-4.9 7.2-0.8 14.4-2 21.6-2.8 14.3-1.5 28.6-2.9 42.9-4.6 3.2-0.3 5.3-2.4 4.5-5.9-0.6-2.5-1.6-5-2.5-7.5-7.9-23.2-15.9-46.4-23.7-69.6-5.5-15.9-10.7-32-16.2-47.9-4.6-13.6-9.5-27.1-14.2-40.7-4.7-13.9-9.2-27.8-13.9-41.7-5.4-16.1-11-32.2-16.5-48.3-6.6-19.2-13.2-38.4-19.9-57.6-4.8-13.5-9.7-27.1-14.9-40.4-4.4-11-8.3-22.5-14.4-32.6-12-20.1-30.3-32.9-52.9-39.2-23.9-6.7-47.8-13.3-71.7-20-24-6.6-47.9-13.3-71.8-19.9q-56.4-15.5-112.8-30.9c-20.9-5.7-41.8-11.8-63-16.7-17.6-4.1-31.7-13.3-43.8-26-12.3-13-20.9-28.3-26.9-45.1-9.3-25.8-10.9-51.4-0.6-77.5 5.2-13.2 13-24.6 23.1-34.2 9.6-9.2 20.8-16.6 33.7-20.1 9.3-2.6 19.2-5.4 28.5-4.8 16.9 1.2 33.7 4.8 50.4 7.6 23.8 4 47.5 8.3 71.3 12.4 29.2 4.9 58.3 9.8 87.5 14.7q28.3 4.8 56.7 9.6c21 3.5 42 7.2 63 10.7 17.1 2.8 34.3 5.6 51.4 8.3 16 2.5 31.9 6.2 44.5 16.8 17.6 14.7 34.7 30.2 51.6 45.8 9 8.3 17.5 17.2 26 26 9.9 10.5 19.8 21.1 25.2 34.8 3.4 8.6 6.5 17.3 9.6 25.9 5.7 16 11.5 32.1 17.1 48.1 7.9 22.8 15.8 45.5 23.7 68.3 6.5 18.6 13.1 37.1 19.6 55.6 6.6 18.9 13.1 37.8 19.7 56.7 5.8 16.8 11.6 33.6 17.6 50.5 1.2 3.5 1.9 8.6 4.5 10 10.2 5.5 20.8 10.2 31.6 14.3 5.2 2 8.3-2.1 6.5-7.7-1-3-2.1-5.9-3-8.9z"/></svg>