<svg xmlns="http://www.w3.org/2000/svg" viewBox="0 0 128 128"><path fill="#000000" d="M81.548 0c-.46 0-.917.032-1.361.094V.1L8.283 10.374C3.543 11.052 0 15.133 0 19.92V55.942c0 1.906.566 3.767 1.623 5.352l11.402 17.082.617-.724a9.654 9.654 0 0 0-2.314 6.264v23.118c0 5.306 4.34 9.638 9.644 9.638h17.612l4.695 7.036A9.648 9.648 0 0 0 51.301 128h67.055c5.305 0 9.644-4.339 9.644-9.644v-66.11a9.652 9.652 0 0 0-5.848-8.86l-8.43-3.614.63-.731a9.658 9.658 0 0 0 2.32-6.285V9.644a9.643 9.643 0 0 0-2.83-6.82 9.648 9.648 0 0 0-3.95-2.388 9.508 9.508 0 0 0-.913-.242h-.013l-.161-.033h-.054a9.286 9.286 0 0 0-.737-.114 9.709 9.709 0 0 0-.986-.047zm0 3.434h25.48a6.366 6.366 0 0 1 1.254.127c.196.04.393.086.59.148.967.3 1.838.84 2.542 1.542a6.18 6.18 0 0 1 1.824 4.393V32.756a6.207 6.207 0 0 1-1.489 4.044l-3.675 4.286 12.723 5.453a6.207 6.207 0 0 1 3.77 5.707v66.11c0 3.45-2.762 6.21-6.211 6.21H51.3a6.204 6.204 0 0 1-5.165-2.763l-5.714-8.565h-19.45a6.179 6.179 0 0 1-6.21-6.204V83.916c0-1.485.525-2.912 1.489-4.038l.006-.007 1.06-1.254L4.48 59.39a6.21 6.21 0 0 1-1.046-3.447V19.919a6.194 6.194 0 0 1 5.332-6.15L80.67 3.494v.007c.3-.042.59-.067.878-.067zM25.077 25.077v77.846h77.846V25.077Zm23.219 9.182c2.352 0 4.507.435 6.472 1.307 1.965.872 3.601 2.097 4.903 3.676 1.314 1.565 2.192 3.365 2.636 5.399H56.37a7.713 7.713 0 0 0-1.744-2.764 7.654 7.654 0 0 0-2.763-1.85c-1.08-.429-2.256-.644-3.528-.644-1.716 0-3.27.429-4.654 1.287-1.384.859-2.47 2.047-3.26 3.555-.775 1.495-1.16 3.182-1.16 5.064 0 1.881.385 3.576 1.16 5.083.789 1.495 1.875 2.67 3.26 3.528 1.383.859 2.938 1.288 4.654 1.288 1.274 0 2.45-.216 3.528-.644 1.08-.428 2.001-1.035 2.763-1.824a7.9 7.9 0 0 0 1.744-2.784h5.936a12.49 12.49 0 0 1-2.636 5.42c-1.302 1.564-2.938 2.783-4.903 3.655-1.965.872-4.12 1.308-6.472 1.308-2.781 0-5.302-.652-7.559-1.952a14.248 14.248 0 0 1-5.318-5.4c-1.287-2.296-1.925-4.855-1.925-7.678 0-2.824.638-5.376 1.925-7.66 1.287-2.296 3.062-4.099 5.318-5.399 2.256-1.315 4.776-1.971 7.559-1.971zm18.088.496h5.647v23.957h13.783v5.11h-19.43ZM34.795 87.35h31.14v5.842h-31.14Z"/></svg>
