<svg xmlns="http://www.w3.org/2000/svg" viewBox="0 0 128 128"><defs><linearGradient id="a" x1="4.067" x2="62.664" y1="4.327" y2="62.923" gradientTransform="scale(1.9999)" gradientUnits="userSpaceOnUse"><stop offset=".29" stop-color="#009AE5"/><stop offset=".7" stop-color="#00D980"/></linearGradient><linearGradient id="b" x1="56.329" x2="2.874" y1="-.391" y2="24.393" gradientTransform="scale(1.9999)" gradientUnits="userSpaceOnUse"><stop offset=".3" stop-color="#FF2D90"/><stop offset=".54" stop-color="#009AE5"/></linearGradient></defs><path fill="url(#a)" d="M127.994 119.75039v-68.2528a8.24961 8.24961 0 0 0-5.03976-7.59965l-74.8425-31.59252a8.23561 8.23561 0 0 0-3.27584-.64997l-36.65628.29999A8.24761 8.24761 0 0 0 0 20.20505V55.5334c0 1.61192.47198 3.18585 1.35594 4.53379l42.21602 64.21499A8.24761 8.24761 0 0 0 50.46564 128h69.27875a8.24961 8.24961 0 0 0 8.24961-8.24961z"/><path fill="url(#b)" d="M115.99457 29.9746V8.2496A8.24961 8.24961 0 0 0 107.74495 0H82.61413c-.39998 0-.79996.028-1.19595.088L7.05367 10.98349A8.24961 8.24961 0 0 0 0 19.1451v30.79456a8.24961 8.24961 0 0 0 8.25161 8.24961l37.00827-.01a8.25961 8.25961 0 0 0 2.50588-.38998l62.48907-19.95906a8.25161 8.25161 0 0 0 5.73974-7.85563z"/><path fill="#ff2d90" d="M115.99457 32.90446V8.3876a8.24961 8.24961 0 0 0-8.37961-8.24762L86.00197.016c-2.35989.038-5.06976 1.56194-6.60769 3.35585L13.98535 79.68427a8.25961 8.25961 0 0 0-1.98591 5.36775v22.69893a8.24961 8.24961 0 0 0 8.24961 8.24962h22.00497c2.37989 0 4.64178-1.02796 6.2077-2.81787l65.49294-74.8445a8.24761 8.24761 0 0 0 2.03991-5.43374z"/><path fill="#000" d="M103.99513 23.99888H23.99888v79.99625h79.99625z"/><path fill="#fff" d="M65.9969 87.99588H33.9984v5.99972h31.9985Zm-24.50484-25.5148a14.57332 14.57332 0 0 1-5.48775-5.57175c-1.32994-2.36588-1.9939-5.00576-1.9939-7.92162 0-2.91587.66396-5.55575 1.9939-7.91963a14.57932 14.57932 0 0 1 5.48775-5.57374c2.32789-1.34994 4.92976-2.0279 7.80163-2.0279 2.42989 0 4.65978.44997 6.68969 1.34993a13.72336 13.72336 0 0 1 5.06976 3.78382 12.8854 12.8854 0 0 1 2.70987 5.58574H57.6333a8.10762 8.10762 0 0 0-1.78992-2.86187 8.07562 8.07562 0 0 0-2.86186-1.8999 9.78954 9.78954 0 0 0-3.64383-.66398c-1.77392 0-3.37384.44398-4.80378 1.32994a9.21957 9.21957 0 0 0-3.35384 3.65383c-.80796 1.55193-1.21194 3.29785-1.21194 5.23975 0 1.94591.40398 3.69183 1.21194 5.24176a9.20957 9.20957 0 0 0 3.35384 3.65583c1.42994.88596 3.02986 1.32794 4.80378 1.32794a9.75954 9.75954 0 0 0 3.64383-.66397 8.04362 8.04362 0 0 0 4.65178-4.75978h6.12971a12.8874 12.8874 0 0 1-2.70987 5.58374 13.72536 13.72536 0 0 1-5.06976 3.78382c-2.0299.89996-4.2598 1.34994-6.68969 1.34994-2.87187 0-5.47174-.67397-7.80163-2.0259v.006zM74.6565 33.9824v24.73884h14.23334V63.993H68.82477V33.9824Z"/></svg>
