<svg xmlns="http://www.w3.org/2000/svg" viewBox="0 0 128 128"><path fill="#000000" d="M23.655 41.656c-.133 0-.266.009-.395.027v.002l-20.858 2.98A2.803 2.803 0 0 0 0 47.434V57.883c0 .553.164 1.093.47 1.553l3.308 4.955.179-.21a2.8 2.8 0 0 0-.671 1.817v6.706A2.804 2.804 0 0 0 6.083 75.5h5.11l1.361 2.04a2.799 2.799 0 0 0 2.327 1.246h19.451a2.805 2.805 0 0 0 2.798-2.798V56.811a2.8 2.8 0 0 0-1.696-2.57l-2.446-1.048.183-.213a2.802 2.802 0 0 0 .673-1.822v-6.705a2.797 2.797 0 0 0-1.967-2.671 2.758 2.758 0 0 0-.264-.07h-.004l-.047-.01h-.016a2.693 2.693 0 0 0-.214-.033 2.816 2.816 0 0 0-.286-.013zm0 .996h7.391a1.846 1.846 0 0 1 .536.08 1.806 1.806 0 0 1 1.266 1.721v6.704a1.8 1.8 0 0 1-.432 1.174l-1.066 1.243 3.69 1.582a1.8 1.8 0 0 1 1.094 1.655v19.177c0 1.001-.8 1.802-1.802 1.802H14.881a1.8 1.8 0 0 1-1.498-.802l-1.658-2.484H6.083a1.792 1.792 0 0 1-1.801-1.8v-6.706c0-.43.152-.845.432-1.171l.002-.002.307-.364-3.724-5.578a1.801 1.801 0 0 1-.303-1V47.434c0-.9.655-1.657 1.546-1.784l20.859-2.98v.001c.086-.012.17-.02.254-.02zM7.274 48.93v22.582h22.582V48.93Zm48.64 2.539c-1.609 0-3.065.38-4.37 1.142a8.242 8.242 0 0 0-3.071 3.138c-.746 1.332-1.117 2.824-1.117 4.467 0 1.643.371 3.133 1.117 4.465a8.163 8.163 0 0 0 3.072 3.138c1.298.762 2.755 1.142 4.37 1.142 1.343 0 2.578-.248 3.708-.745a7.66 7.66 0 0 0 2.823-2.09 7.35 7.35 0 0 0 1.542-3.087h-3.167a4.712 4.712 0 0 1-1.056 1.693 4.712 4.712 0 0 1-1.695 1.112c-.66.26-1.364.384-2.132.384-1.04 0-1.982-.26-2.823-.779a5.394 5.394 0 0 1-1.977-2.151c-.474-.915-.712-1.942-.712-3.088 0-1.146.238-2.175.712-3.09a5.388 5.388 0 0 1 1.977-2.15v.007c.84-.52 1.784-.78 2.823-.78.768 0 1.471.129 2.132.389.66.26 1.22.627 1.695 1.112a4.597 4.597 0 0 1 1.056 1.695h3.167a7.325 7.325 0 0 0-1.542-3.09 7.595 7.595 0 0 0-2.823-2.087c-1.13-.497-2.365-.747-3.709-.747zm-41.905.124c.683 0 1.308.127 1.878.38a3.82 3.82 0 0 1 1.422 1.066c.381.454.636.976.765 1.566h-1.722a2.237 2.237 0 0 0-.506-.802 2.22 2.22 0 0 0-.802-.537 2.752 2.752 0 0 0-1.023-.186 2.51 2.51 0 0 0-1.35.373 2.613 2.613 0 0 0-.946 1.031 3.142 3.142 0 0 0-.336 1.47c0 .545.111 1.037.336 1.474.23.434.544.774.946 1.023.401.25.852.374 1.35.374.37 0 .71-.063 1.023-.187a2.249 2.249 0 0 0 1.308-1.336h1.722a3.623 3.623 0 0 1-.765 1.572 3.848 3.848 0 0 1-1.422 1.06c-.57.253-1.195.38-1.878.38a4.314 4.314 0 0 1-2.192-.567 4.133 4.133 0 0 1-1.543-1.566c-.373-.666-.558-1.409-.558-2.228 0-.819.185-1.56.558-2.222a4.07 4.07 0 0 1 1.543-1.566c.654-.381 1.385-.572 2.192-.572zm5.248.144h1.638v6.95h3.998v1.482h-5.636zm50.066.01v.006h.006zm0 .006h-2.992v16.914h11.15v-2.722h-8.158zm9.654.41v2.83h3.253v-2.83zm11.591 3.847c-1.214 0-2.331.281-3.33.846a6.131 6.131 0 0 0-2.339 2.327c-.565.988-.846 2.088-.846 3.301 0 1.214.282 2.322.852 3.304.57.988 1.35 1.76 2.338 2.325.988.564 2.094.848 3.308.848s2.331-.284 3.325-.848a6.165 6.165 0 0 0 2.338-2.325c.57-.988.852-2.09.852-3.304 0-1.213-.282-2.319-.852-3.301a6.21 6.21 0 0 0-2.338-2.327c-.988-.565-2.094-.846-3.308-.846Zm15.193 0c-.949 0-1.779.219-2.484.665a4.227 4.227 0 0 0-1.384 1.44v-1.812h-2.766V68.68h2.852v-7.165c0-.582.117-1.096.354-1.553a2.585 2.585 0 0 1 1.012-1.062c.434-.254.931-.378 1.496-.378.525 0 .977.113 1.356.333.378.22.664.543.867.961.204.418.306.925.306 1.524v7.344h2.84v-7.778c0-1.017-.187-1.893-.554-2.621l-.006-.018c-.373-.733-.892-1.29-1.558-1.675-.667-.39-1.445-.581-2.331-.581zm-26.58.288v12.375h2.85V56.298Zm11.381 2.247c.69 0 1.305.168 1.84.502.537.333.954.796 1.248 1.389.3.593.447 1.275.447 2.048 0 .774-.148 1.447-.441 2.045a3.279 3.279 0 0 1-1.247 1.39c-.537.327-1.158.495-1.847.495-.688 0-1.31-.163-1.84-.496-.536-.327-.948-.796-1.241-1.389-.294-.598-.442-1.277-.442-2.045 0-.767.148-1.456.442-2.054a3.266 3.266 0 0 1 1.24-1.39 3.468 3.468 0 0 1 1.841-.495zm-80.469 8.45h9.033v1.694h-9.033zm93.545 11.169c-.553 0-1.04.1-1.468.309-.43.209-.762.497-1.004.864a2.274 2.274 0 0 0-.362 1.26c0 .379.079.723.231 1.033.153.305.374.564.656.767.282.203.61.345.982.424l1.423.294c.231.056.417.157.552.303a.777.777 0 0 1 .204.55.795.795 0 0 1-.153.474.922.922 0 0 1-.417.32c-.18.074-.39.114-.632.114-.243 0-.47-.046-.667-.13a1.014 1.014 0 0 1-.457-.36.947.947 0 0 1-.164-.543h-1.75c.005.49.14.93.4 1.303.26.373.616.672 1.068.881.452.21.971.317 1.553.317.581 0 1.106-.108 1.564-.322a2.578 2.578 0 0 0 1.06-.892c.254-.378.385-.808.385-1.287 0-.39-.085-.751-.26-1.084a2.371 2.371 0 0 0-.722-.83v.01a2.628 2.628 0 0 0-1.062-.445l-1.343-.276a1.008 1.008 0 0 1-.504-.267.648.648 0 0 1-.187-.472c0-.17.046-.318.137-.448a.884.884 0 0 1 .383-.294c.164-.067.357-.107.572-.107.214 0 .412.034.576.113a.928.928 0 0 1 .389.312.81.81 0 0 1 .14.457h1.75a2.2 2.2 0 0 0-.382-1.22 2.416 2.416 0 0 0-1.012-.829 3.51 3.51 0 0 0-1.479-.3zm-53.477.134v5.167h-.005c0 .22-.046.417-.142.592a.979.979 0 0 1-.401.4c-.17.096-.366.142-.592.142h-1.1v1.61h1.338c.502 0 .959-.113 1.36-.34.4-.225.716-.536.947-.937.232-.4.344-.846.344-1.342v-5.292zm3.094 0v7.916h5.871V84.69H54.96v-1.704h3.671v-1.48h-3.67V79.83h4.054v-1.531zm6.504 0v1.57h2.348v6.34h1.751v-6.34h2.33v-1.57zm7.227 0v7.916h3.584c.53 0 1.006-.096 1.424-.282.418-.186.74-.447.971-.78.232-.333.344-.71.344-1.134 0-.39-.091-.74-.272-1.051a1.897 1.897 0 0 0-.755-.722h-.006a2.325 2.325 0 0 0-.457-.175l.02-.006c.112-.032.23-.065.33-.118.288-.147.52-.362.683-.633.164-.27.247-.581.247-.932 0-.4-.106-.761-.327-1.077a2.154 2.154 0 0 0-.92-.74 3.311 3.311 0 0 0-1.35-.266zm7.327 0v7.916h1.751V83.33h1.14l1.603 2.885h1.999L79 83.121c.09-.034.18-.068.259-.107h.006c.44-.21.778-.51 1.021-.887.243-.379.362-.825.362-1.327 0-.503-.119-.931-.356-1.31a2.356 2.356 0 0 0-1.004-.881c-.435-.209-.938-.311-1.508-.311zm9.903 0-2.829 7.916h1.778l.56-1.745h2.937l.597 1.745h1.745l-2.891-7.916zm5.465 0v7.916h1.808v-7.916zm3.173 0v7.916h1.598v-5.352l3.389 5.352h1.721v-7.916h-1.599v5.352h-.004l-3.399-5.352zm18.057 0v7.916h1.805v-7.916zm3.165 0v7.916h3.09c.75 0 1.423-.17 2.027-.513a3.662 3.662 0 0 0 1.41-1.419c.34-.604.514-1.28.514-2.025 0-.745-.17-1.429-.514-2.027a3.695 3.695 0 0 0-1.41-1.417 4.053 4.053 0 0 0-2.027-.515zm8.053 0v7.916H128V84.69h-4.167v-1.704h3.67v-1.48h-3.67V79.83h4.055v-1.531zm-53.444 1.327h1.552c.215 0 .407.04.57.118a.937.937 0 0 1 .39.335c.09.141.142.31.142.502a.978.978 0 0 1-.142.525.888.888 0 0 1-.39.345 1.303 1.303 0 0 1-.57.124h-1.552zm7.38.109h1.573c.243 0 .458.043.638.128.181.09.323.216.419.38.096.163.148.355.148.581 0 .226-.052.418-.148.582v-.006a.984.984 0 0 1-.419.383c-.18.09-.395.136-.638.136h-1.574zm39.768.05h1.31c.445 0 .83.096 1.157.294.327.198.582.48.757.846.175.367.264.813.264 1.327s-.09.96-.264 1.327v.006c-.175.367-.43.648-.757.846-.328.198-.712.294-1.158.294h-1.309zm-30.69.057.106.507.971 2.794h-2.093l.908-2.794zM68.684 82.86h1.62c.232 0 .44.046.627.13.18.085.328.21.43.368a.976.976 0 0 1 .152.541c0 .203-.05.373-.152.525v-.011a1.002 1.002 0 0 1-.424.35c-.18.084-.395.124-.633.124h-1.62z"/></svg>
