<?xml version="1.0" encoding="UTF-8" standalone="no"?>
<svg
   width="128"
   height="128"
   viewBox="0 0 128 128"
   version="1.1"
   id="svg7"
   sodipodi:docname="Ninja.svg"
   inkscape:version="1.3.2 (091e20e, 2023-11-25, custom)"
   xmlns:inkscape="http://www.inkscape.org/namespaces/inkscape"
   xmlns:sodipodi="http://sodipodi.sourceforge.net/DTD/sodipodi-0.dtd"
   xmlns="http://www.w3.org/2000/svg"
   xmlns:svg="http://www.w3.org/2000/svg"
   xmlns:rdf="http://www.w3.org/1999/02/22-rdf-syntax-ns#"
   xmlns:cc="http://creativecommons.org/ns#"
   xmlns:dc="http://purl.org/dc/elements/1.1/">
  <defs
     id="defs7" />
  <sodipodi:namedview
     id="namedview7"
     pagecolor="#ffffff"
     bordercolor="#111111"
     borderopacity="1"
     inkscape:showpageshadow="0"
     inkscape:pageopacity="0"
     inkscape:pagecheckerboard="1"
     inkscape:deskcolor="#d1d1d1"
     inkscape:zoom="4.2592135"
     inkscape:cx="50.361411"
     inkscape:cy="70.552932"
     inkscape:window-width="1920"
     inkscape:window-height="1009"
     inkscape:window-x="-8"
     inkscape:window-y="-8"
     inkscape:window-maximized="1"
     inkscape:current-layer="svg7" />
  <title
     id="title1">file_type_ninja</title>
  <ellipse
     cx="57.813625"
     cy="64.767807"
     rx="47.743771"
     ry="58.363148"
     style="fill:#f1c27d;stroke-width:4.57141"
     id="ellipse1" />
  <path
     d="m 25.470923,62.171248 a 31.579277,31.579277 0 0 1 10.002238,0.521141 18.879909,18.879909 0 0 1 8.735958,4.94169 0.2057133,0.2057133 0 0 1 0,0.283427 0.17828486,0.17828486 0 0 1 -0.128,0.05486 h -0.205713 a 52.94146,52.94146 0 0 1 -5.39426,0 21.398754,21.398754 0 0 1 -4.137123,-0.557711 20.114189,20.114189 0 0 1 -4.114266,-1.554279 19.794191,19.794191 0 0 1 -4.685692,-3.199984 l -0.159999,-0.141714 a 0.20114189,0.20114189 0 0 1 0,-0.274284 0.2057133,0.2057133 0 0 1 0.08686,-0.07314 z"
     style="fill:#ededed;stroke-width:4.57141"
     id="path1" />
  <path
     d="m 25.507494,54.820426 a 59.039717,59.039717 0 0 1 12.246798,1.316565 21.540468,21.540468 0 0 1 5.988543,1.828563 12.799939,12.799939 0 0 1 4.831977,4.205694 0.13257079,0.13257079 0 0 1 -0.04114,0.178285 0.14171361,0.14171361 0 0 1 -0.114285,0 l -11.149661,-4.35655 a 85.617875,85.617875 0 0 0 -11.762229,-2.953129 0.11885657,0.11885657 0 0 1 -0.100571,-0.137142 0.13257079,0.13257079 0 0 1 0.100571,-0.08229 z"
     style="fill:#1e1e1e;stroke-width:4.57141"
     id="path2" />
  <path
     d="m 88.062622,62.628389 a 19.780476,19.780476 0 0 1 -4.68112,3.199985 20.319902,20.319902 0 0 1 -4.114266,1.554278 21.485611,21.485611 0 0 1 -4.141694,0.557711 52.94146,52.94146 0 0 1 -5.39426,0 h -0.205714 a 0.19657048,0.19657048 0 0 1 -0.187427,-0.205713 0.22857033,0.22857033 0 0 1 0.05486,-0.132571 18.870767,18.870767 0 0 1 8.740529,-4.94169 31.542706,31.542706 0 0 1 9.983952,-0.489141 0.19199908,0.19199908 0 0 1 0.169142,0.214856 0.18285626,0.18285626 0 0 1 -0.064,0.123428 z"
     style="fill:#ededed;stroke-width:4.57141"
     id="path3" />
  <path
     d="m 88.099194,55.062711 a 85.787017,85.787017 0 0 0 -11.76223,2.953129 l -11.14966,4.35655 a 0.12799939,0.12799939 0 0 1 -0.164571,-0.06857 0.15542783,0.15542783 0 0 1 0,-0.118857 12.827367,12.827367 0 0 1 4.813691,-4.201122 21.567896,21.567896 0 0 1 5.993114,-1.828563 58.971145,58.971145 0 0 1 12.242227,-1.316565 0.11885657,0.11885657 0 0 1 0.118857,0.123428 0.12342798,0.12342798 0 0 1 -0.09143,0.100571 z"
     style="fill:#1e1e1e;stroke-width:4.57141"
     id="path4" />
  <path
     d="M 10.074425,64.767807 A 58.056864,58.056864 0 0 1 8.0081492,56.22842 22.825033,22.825033 0 0 1 8.7212886,43.35991 C 10.092711,40.425067 12.62527,38.399934 13.85955,35.241092 16.497252,28.493696 15.596685,20.562305 19.957806,14.482334 A 28.950718,28.950718 0 0 1 44.039977,1.0515421 c 15.364497,1.0148522 33.906122,-7.419393 45.82378,11.1313749 11.917653,18.550768 11.067373,14.17136 14.971353,27.65701 3.90398,13.485649 3.24113,20.452473 2.90742,21.522182 a 17.343917,17.343917 0 0 1 -2.18514,3.405698 c 0,0 -3.44226,-11.099375 -20.32904,-12.109656 a 35.140403,35.140403 0 0 1 -12.749653,-2.8617 c -5.828543,-2.770273 -9.796524,-5.485688 -16.457064,-4.607978 -4.521121,0.603425 -9.051385,1.188565 -13.558792,1.906276 -6.582825,1.051424 -19.917618,2.084562 -23.455887,9.142813 -3.958838,7.871963 -8.918815,8.525674 -8.932529,8.530245 z"
     style="fill:#400000;stroke-width:4.57141"
     id="path5" />
  <path
     d="m 19.011525,56.22842 a 24.01817,24.01817 0 0 0 1.325708,18.358769 c 4.635407,11.469659 33.106127,-3.035414 34.765548,-3.035414 1.65942,0 6.290255,-2.285704 17.215917,4.411407 10.925662,6.697111 24.498168,-8.347388 24.498168,-8.347388 0,0 1.577135,-11.606802 -1.371422,-12.662797 -2.948557,-1.055995 10.107376,3.657125 10.107376,3.657125 a 206.97958,206.97958 0 0 1 0,27.099299 c -1.12456,8.095961 -12.713078,22.934749 -12.713078,26.308449 0,3.3737 -23.606744,17.5222 -34.980403,15.84449 C 46.485679,126.18466 28.94062,124.49324 20.995516,111.67958 13.050411,98.865927 7.0892965,73.503765 10.069854,64.767807 13.050411,56.031849 19.011525,56.22842 19.011525,56.22842 Z"
     style="fill:#400000;stroke-width:4.57141"
     id="path6" />
  <path
     d="m 120.34589,10.477782 h -0.0731 a 125.41654,125.41654 0 0 1 -13.51308,3.757696 26.774729,26.774729 0 0 1 -6.08911,0.498284 15.455926,15.455926 0 0 1 -2.555414,-0.457141 4.114266,4.114266 0 0 1 -1.101709,-0.434284 l -1.595421,-0.722282 a 19.437621,19.437621 0 0 0 -7.698249,-1.46285 c 0.310855,-0.219427 0.580568,-0.493712 0.914281,-0.690282 a 9.9473808,9.9473808 0 0 1 6.450255,-1.3668506 11.428517,11.428517 0 0 0 6.998827,-1.567992 18.372483,18.372483 0 0 0 5.29825,-4.7542633 0.19199908,0.19199908 0 0 0 0.032,-0.1782849 0.20114189,0.20114189 0 0 0 -0.24685,-0.1371422 l -0.15543,0.045714 c -2.66056,0.7954248 -4.80455,1.4765643 -6.66968,1.8788481 a 13.156508,13.156508 0 0 1 -4.630834,0.1874277 13.023937,13.023937 0 0 0 -4.987405,0.4571407 11.574802,11.574802 0 0 0 -3.999981,2.3862742 11.314231,11.314231 0 0 0 -2.793129,4.0914083 36.511825,36.511825 0 0 0 -4.863977,1.17028 35.711829,35.711829 0 0 0 -12.991938,7.455965 l -0.04114,0.03657 a 0.21485611,0.21485611 0 0 0 0.233142,0.351998 63.542552,63.542552 0 0 1 13.503935,-4.479978 23.314174,23.314174 0 0 1 13.842219,0.571426 15.734782,15.734782 0 0 0 7.053678,1.732563 25.526735,25.526735 0 0 0 7.12225,-1.334851 49.215764,49.215764 0 0 0 12.72222,-6.669682 0.21942752,0.21942752 0 0 0 0.0777,-0.237713 0.2102847,0.2102847 0 0 0 -0.24229,-0.128 z"
     style="fill:#400000;stroke-width:4.57141"
     id="path7" />
  <metadata
     id="metadata7">
    <rdf:RDF>
      <cc:Work
         rdf:about="">
        <dc:title>file_type_ninja</dc:title>
      </cc:Work>
    </rdf:RDF>
  </metadata>
</svg>
