<svg xmlns="http://www.w3.org/2000/svg" viewBox="0 0 128 128"><path fill="#bb0001" d="M.836 51.504c0 .22-.089.436-.244.592a.845.845 0 0 1-.592.246v1.103a.836.836 0 0 1 0 1.672v1.104a.838.838 0 0 1 0 1.674v1.103a.836.836 0 0 1 0 1.674v1.103a.836.836 0 0 1 0 1.674v1.104a.836.836 0 0 1 0 1.672v1.103a.838.838 0 0 1 0 1.674v1.103a.836.836 0 0 1 0 1.674v1.102a.838.838 0 0 1 0 1.674v1.103c.22 0 .436.09.592.246a.842.842 0 0 1 .244.592h1.103a.838.838 0 0 1 1.674 0h1.104a.838.838 0 0 1 1.674 0h1.103c0-.461.375-.838.836-.838.461 0 .836.377.836.838h1.104a.838.838 0 0 1 1.674 0h1.103a.838.838 0 0 1 1.674 0h1.103c0-.461.375-.838.836-.838.461 0 .836.377.836.838H18.6a.838.838 0 0 1 1.674 0h1.103a.838.838 0 0 1 1.674 0h1.103a.841.841 0 0 1 .836-.838v-1.103a.836.836 0 0 1 0-1.672v-1.104a.838.838 0 0 1 0-1.674v-1.103a.836.836 0 0 1 0-1.674v-1.101a.838.838 0 0 1 0-1.674v-1.104a.836.836 0 0 1 0-1.674v-1.103a.836.836 0 0 1 0-1.674v-1.103a.836.836 0 0 1 0-1.672v-1.104a.838.838 0 0 1 0-1.674v-1.103a.844.844 0 0 1-.592-.246.841.841 0 0 1-.244-.592h-1.103a.838.838 0 0 1-1.674 0h-1.104a.838.838 0 0 1-.835.838.838.838 0 0 1-.836-.838h-1.104a.838.838 0 0 1-1.674 0h-1.103a.838.838 0 0 1-1.674 0h-1.104a.838.838 0 0 1-.836.838.838.838 0 0 1-.836-.838H9.168a.838.838 0 0 1-1.674 0H6.391a.838.838 0 0 1-1.674 0H3.613a.838.838 0 0 1-.836.838.838.838 0 0 1-.836-.838H.836zm51.225.603a.425.425 0 0 0-.424.426V74.98a.425.425 0 0 0 .424.425h2.457a.425.425 0 0 0 .425-.425V52.533a.425.425 0 0 0-.425-.426H52.06zm49.166 0a.425.425 0 0 0-.426.426V74.98a.425.425 0 0 0 .426.425h2.457a.425.425 0 0 0 .423-.425V52.533a.425.425 0 0 0-.423-.426h-2.457zm7.793 0a.425.425 0 0 0-.426.426V74.98a.425.425 0 0 0 .426.425h2.455a.425.425 0 0 0 .425-.425V52.533a.425.425 0 0 0-.425-.426h-2.455zm-79.551 1.15a.425.425 0 0 0-.426.425v2.347a.425.425 0 0 0 .12.12v18.703a.425.425 0 0 0 .425.425h2.478a.425.425 0 0 0 .426-.425V65.68h7.735a.425.425 0 0 0 .425-.426v-2.207a.425.425 0 0 0-.425-.426h-7.735v-6.166h8.506a.425.425 0 0 0 .426-.426v-2.347a.425.425 0 0 0-.426-.424h-11.53zm60.06.03-.328.053H75.348a.425.425 0 0 0-.424.424v2.234a.425.425 0 0 0 .424.424h10.101L73.871 73.154a.425.425 0 0 0-.074.244l.008 1.674a.425.425 0 0 0 .37.381.425.425 0 0 0 .126.094h15.498a.425.425 0 0 0 .426-.426v-2.398a.425.425 0 0 0-.426-.426h-11.33l11.572-16.85a.425.425 0 0 0 .074-.267l-.094-1.5a.425.425 0 0 0-.492-.393zm-43.984.04a2.01 2.01 0 0 0-2.002 2.003c0 1.1.901 2.002 2.002 2.002a2.01 2.01 0 0 0 2.004-2.002 2.01 2.01 0 0 0-2.004-2.004zm49.166 0a2.01 2.01 0 0 0-2.004 2.003 2.01 2.01 0 0 0 2.004 2.002 2.01 2.01 0 0 0 2.004-2.002 2.01 2.01 0 0 0-2.004-2.004zM6.84 55.181h10.927l-.698 3.277H9.47l-.65 3.045h12.47l-.535 2.185-6.668 6.485c.604.093 1.185.232 1.812.232 1.526 0 3.282-.465 4.467-.953l-.61 2.86c-1.743.836-2.813.906-3.857.906-1.138 0-2.23-.373-3.345-.373-.628 0-1.534.048-2.092.42l-1.209-2.139 6.879-6.81H8.213l-1.51 7.09h-3.3l3.439-16.225zm59.026 3.441c-1.46 0-3.143.424-4.576 1.404-1.433.98-2.606 2.537-2.96 4.721-.154.942-.429 3.543.048 5.527.368 1.532 1.486 3.387 3.56 4.514 2.074 1.127 5.08 1.49 9.123.094a.425.425 0 0 0 .284-.44l-.176-2.005a.425.425 0 0 0-.541-.37c-3.818 1.106-6.042.717-7.332-.23-1.165-.855-1.634-2.234-1.78-3.631h10.24c.243 0 .418-.168.499-.299.08-.13.12-.26.154-.408.067-.295.09-.662.078-1.096a10.393 10.393 0 0 0-.613-3.134c-.41-1.14-1.056-2.294-2.035-3.174-.98-.881-2.301-1.473-3.973-1.473zm55.889.063c-2.277-.034-4.452.804-5.36 1.355a.425.425 0 0 0-.158.166c-.217.418-.13.847-.021 1.27.108.422.28.844.43 1.177a.425.425 0 0 0 .626.178c1.474-1 3.252-1.481 4.559-1.205.653.138 1.186.445 1.574.97.356.483.574 1.2.608 2.147-1.74.071-3.856.31-5.664 1.125-1.955.882-3.527 2.5-3.502 5.092a.425.425 0 0 0 0 .006c.066 2.565 2.009 4.56 4.521 4.81 1.397.14 3.4-.274 5.067-1.93l.251 1.073a.425.425 0 0 0 .13.22c.428.385 1 .397 1.556.383a4.62 4.62 0 0 0 .791-.085c.242-.05.449-.103.643-.229a.425.425 0 0 0 .138-.566c-.108-.192-.254-.798-.332-1.575-.078-.776-.115-1.744-.13-2.771-.032-2.054.027-4.35.027-5.942a.425.425 0 0 0-.002-.046c-.229-2.107-.999-3.532-2.067-4.41-1.067-.879-2.395-1.194-3.685-1.213zm-77.504.546a.425.425 0 0 0-.424.426v15.385a.425.425 0 0 0 .424.426h2.588a.425.425 0 0 0 .426-.426V59.658a.425.425 0 0 0-.426-.426h-2.588zm49.166 0a.425.425 0 0 0-.426.426v15.385a.425.425 0 0 0 .426.426h2.588a.425.425 0 0 0 .424-.426V59.658a.425.425 0 0 0-.424-.426h-2.588zM65.51 61.625c1.27 0 2.114.684 2.642 1.566.462.771.58 1.648.508 2.239h-6.986c.593-2.844 2.475-3.805 3.836-3.805zm57.054 5.996c.521-.01 1.054.076 1.577.186l.046 1.355c-.044.696-.145 1.533-.6 2.2-.456.67-1.261 1.232-2.948 1.337-.9.057-1.417-.214-1.746-.576a1.845 1.845 0 0 1-.457-1.228c.021-1.103.488-1.868 1.232-2.413.744-.544 1.786-.84 2.896-.86z"/></svg>
