<svg xmlns="http://www.w3.org/2000/svg" viewBox="0 0 128 128" fill-rule="evenodd"><defs><clipPath id="filezilla-plain-wordmark-a"><ellipse cx="18.615" cy="65.43" rx="120.94" ry="20.175" fill="red"/></clipPath></defs><path d="M2.609 51.034c0 .156-.504.614-.74.672-.135.033-.18.111-.2.351-.026.319-.008.344.705.945.394.332.054 1.359-.471 1.42-.433.05-.344.684.158 1.123.629.55.512 1.479-.199 1.58-.377.054-.277.665.187 1.133.596.604.519 1.307-.168 1.546-.197.069-.226.119-.226.394 0 .447.059.553.405.73.666.34.66 1.294-.01 1.572-.35.146-.421.29-.381.777.021.251.06.315.202.336.761.108.721 1.684-.043 1.684-.252 0-.246 1.001.006 1.075.571.168.817.984.402 1.33-.542.451-.581.513-.581.929 0 .36.02.405.199.45.69.173.794.977.199 1.536-.439.412-.601 1.117-.258 1.123.743.012.916 1.061.272 1.649-.489.446-.601.987-.223 1.082.103.026.336.209.518.406.362.393.751.494.839.218.273-.86 1.581-.902 2.029-.066.143.267.6.298.68.048.028-.087.083-.159.122-.159s.181-.107.316-.238c.412-.403.877-.349 1.366.159.425.441.743.523.921.238.055-.087.138-.159.186-.159s.191-.112.319-.248c.415-.444 1.148-.252 1.493.392.116.216.496.235.724.035l.308-.268a.71.71 0 00.18-.224c.121-.362 1.142-.136 1.419.313.182.295.714.487.716.259 0-.033.108-.121.238-.195s.238-.189.238-.256c0-.436 1.229-.385 1.494.062.323.546.981.518 1.27-.055.211-.418 1.212-.347 1.466.104.288.509.931.473 1.211-.068.189-.367 1.248-.443 1.379-.1.086.227.549.567.773.567.069 0 .279-.158.467-.352.526-.541 1.275-.6 1.524-.119.066.128.168.232.227.232s.152.054.206.119c.206.248.875-.06.875-.404 0-.048.125-.155.278-.238.392-.211.387-.545-.012-.963-.591-.619-.581-1.421.021-1.746.202-.109.269-.198.269-.355 0-.255-.212-.787-.313-.787-.558 0-.424-1.262.174-1.63.264-.163-.005-1.055-.353-1.171-.337-.113-.197-1.26.178-1.454s.352-.895-.034-1.19c-.475-.362-.455-1.26.034-1.513.376-.194.358-.984-.027-1.168-.508-.242-.556-1.28-.07-1.515.401-.193.468-1.055.092-1.197-.23-.087-.395-.41-.395-.77 0-.262.172-.715.271-.715.41 0 .496-1.019.106-1.25-.446-.263-.503-1.236-.089-1.507.443-.29.479-1.139.049-1.139s-.491-1.195-.08-1.62c.227-.235.458-.66.458-.844 0-.046-.121-.141-.268-.211a.94.94 0 01-.392-.386c-.138-.289-.491-.414-.692-.245a1.05 1.05 0 01-.266.153.34.34 0 00-.188.212c-.099.377-1.356.33-1.527-.057-.076-.173-.185-.271-.338-.304-.124-.027-.226-.091-.227-.143-.001-.066-.018-.068-.06-.006-.032.048-.166.138-.297.199s-.275.194-.318.294c-.168.385-1.18.358-1.43-.039-.091-.144-.254-.276-.379-.304s-.219-.093-.22-.144c-.001-.071-.015-.071-.06 0-.033.051-.156.117-.274.147s-.236.122-.263.205c-.162.511-1.548.567-1.548.062 0-.043-.125-.13-.278-.194s-.278-.158-.278-.21c0-.072-.022-.072-.095.001a.385.385 0 01-.238.095c-.087 0-.197.117-.283.298l-.14.298-.662.023c-.606.021-.666.01-.704-.136-.023-.088-.163-.231-.311-.319s-.27-.194-.27-.237c0-.183-.498.109-.682.4l-.195.308h-.55c-.52 0-.559-.013-.72-.238-.093-.131-.221-.238-.283-.238s-.158-.071-.212-.159c-.111-.178-.538-.224-.538-.058 0 .596-1.201.953-1.666.496l-.424-.398c-.256-.229-.613-.27-.613-.07 0 .515-1.385.941-1.685.519a.944.944 0 00-.277-.238.52.52 0 01-.224-.251c-.054-.17-.517-.237-.517-.075 0 .713-1.395.995-1.939.392-.158-.175-.288-.354-.288-.398s-.107-.079-.238-.079c-.165 0-.238.039-.238.126m119.377.352c-.061.098.158.193.276.12.047-.029.064-.086.039-.126-.061-.098-.253-.095-.315.006m1.749 0c-.06.098.158.193.276.12.047-.029.064-.086.039-.126-.061-.098-.253-.095-.315.006m-2.132.369c-.079.079-.067.346.017.346.104 0 .184-.254.105-.333-.037-.037-.092-.043-.122-.013m-69.276.085c-.745.025-.823.043-1.014.234l-.207.207v20.734l.218.084c.521.202 2.072.207 2.163.007s.105-20.617.014-21.045c-.057-.27-.002-.26-1.175-.221m45.894.15c-.079.205-.058 21.015.021 21.156.049.088.14.114.299.084.126-.023.527-.019.893.01.606.048.674.038.775-.106.15-.214.168-20.742.019-21.069-.118-.258-1.911-.324-2.007-.074m7.155.135c-.06.299-.06 20.71 0 20.933.042.156.102.168.92.178.481.006.903.028.937.049s.122-.027.194-.107c.169-.186.203-20.748.035-21.116l-.093-.204-.973.016-.974.017-.047.233m17.121.556c-.018.298-.012.602.014.676.097.272.149-.168.084-.7l-.064-.517-.034.541m2.213-.17c-.053.335.014.794.107.736s.09-.754.001-.895c-.047-.073-.08-.024-.109.159m-94.732.596c-.137.055-.147 19.713-.01 20.013.078.172.115.187.298.118.115-.044.538-.068.941-.055.448.015.765-.009.818-.061.059-.059.084-1.436.081-4.417l-.004-4.331.18-.163c.304-.275.47-.336.693-.25.445.172 7.002.047 7.047-.134.022-.087.029-.517.016-.954l-.023-.795-3.811-.021c-3.433-.018-3.825-.034-3.958-.154-.139-.126-.146-.308-.125-3.424l.022-3.291.269-.241.269-.24 3.792.058c2.829.044 3.835.035 3.965-.034.227-.122.268-1.544.047-1.629-.15-.058-10.365-.053-10.508.005m14.283.182c-.135.129-.284.247-.332.263-.312.104-.137 1.763.207 1.966.139.082.318.214.398.294.201.201 1.112.208 1.263.009a.796.796 0 01.309-.212c.205-.076.528-.883.481-1.203-.14-.969-.549-1.351-1.444-1.351-.596 0-.652.015-.882.234m29.261-.135c-.02.35-.008 1.504.016 1.528.016.015 2.265.045 4.998.066l5.106.095c.258.107.246.996-.014.996-.044 0-.154.145-.244.322s-.215.341-.276.365-.151.163-.2.31-.154.289-.235.314-.167.128-.192.229-.154.319-.286.485-.24.352-.24.413-.055.132-.123.158-.194.187-.282.359a2.27 2.27 0 01-.315.467c-.086.085-.156.209-.156.273s-.087.175-.194.245a.66.66 0 00-.245.359.63.63 0 01-.192.332 1.157 1.157 0 00-.266.338 1.47 1.47 0 01-.29.377c-.091.076-.165.205-.165.286s-.075.216-.167.299a1.9 1.9 0 00-.32.45c-.084.164-.187.298-.229.298s-.131.116-.198.258a4.81 4.81 0 01-.717 1.035c-.109.121-.198.267-.198.324s-.089.181-.199.276-.199.225-.199.29-.099.235-.219.378a5.18 5.18 0 00-.319.42l-.252.397a9.171 9.171 0 01-.781 1.044c-.098.107-.179.245-.179.305s-.084.211-.187.334a3.1 3.1 0 00-.315.473c-.07.137-.178.268-.24.292s-.137.142-.167.263c-.057.225-.313.585-.701.984-.12.123-.218.277-.218.34s-.106.25-.236.413-.256.363-.282.444a.34.34 0 01-.196.195c-.082.026-.173.153-.201.282a.67.67 0 01-.22.353c-.355.249-.291 1.766.069 1.629.19-.072 13.028-.035 13.879.04.477.042.561-.129.528-1.076l-.023-.671-5.662-.04c-5.325-.037-5.67-.048-5.804-.183s-.132-.149-.009-.219c.073-.042.157-.182.185-.313a.77.77 0 01.231-.378.79.79 0 00.237-.371c.032-.127.165-.34.295-.476.474-.493.532-.569.655-.862.068-.164.16-.298.203-.298s.124-.126.18-.28.183-.333.283-.399.182-.182.182-.259.107-.257.238-.401.238-.289.238-.324.107-.175.238-.312.238-.301.238-.365.064-.162.143-.219.189-.216.245-.353a1.3 1.3 0 01.294-.417c.106-.092.193-.216.193-.274s.089-.183.199-.278.199-.219.199-.276.106-.227.235-.378.237-.318.239-.37.11-.212.242-.356.238-.29.238-.325.174-.289.388-.564.447-.605.52-.733c.198-.348.498-.769.68-.952.089-.089.161-.216.161-.281s.106-.243.235-.395.237-.319.238-.373.091-.155.199-.226.22-.205.249-.3.136-.27.236-.39.208-.297.238-.394.141-.243.244-.324.188-.199.188-.262.075-.176.165-.253.219-.27.285-.43.168-.311.229-.334.164-.169.228-.324.154-.282.198-.282.151-.161.238-.358.189-.358.228-.358.148-.139.243-.31.229-.331.296-.356c.1-.038.118-.18.099-.784l-.023-.736-6.818-.02c-5.426-.016-6.819 0-6.823.079m17.895-.044c-.698.297-1.162 1.566-.73 1.997.089.089.201.236.25.326s.141.165.205.165.195.078.29.173c.251.251.953.305 1.108.085a.66.66 0 01.289-.213.54.54 0 00.271-.23.99.99 0 01.246-.283c.323-.229.172-1.246-.249-1.679-.35-.36-1.22-.538-1.679-.342m30.132.501c0 .155.084.207.18.112.064-.064-.02-.27-.109-.27-.039 0-.071.071-.071.159m.415.489c.041.124.219.146.225.027.002-.044-.055-.092-.128-.107-.083-.017-.119.013-.097.079m-102.9.301c.155.289.049 1.389-.145 1.509-.15.092-.249.492-.249.999 0 .427-.032.543-.205.749l-.205.244-3.589.021-3.59.02-.069.239a3.62 3.62 0 01-.217.526c-.197.384-.311 1.739-.147 1.741l5.922.02c4.789.015 5.835.037 5.943.127.178.147.166.532-.026.842-.087.14-.193.501-.235.802-.054.378-.125.584-.231.669a1.12 1.12 0 00-.245.301c-.051.098-.123.179-.163.179-.058 0-2.696 2.543-3.553 3.425-.037.038-.543.53-1.124 1.093-1.343 1.3-1.382 1.245.852 1.188 1.514-.039 1.678-.057 1.886-.208.125-.091.442-.199.704-.24a2.94 2.94 0 00.716-.201c.45-.237.596-.142.596.387 0 .144-.051.304-.114.356s-.135.318-.165.626c-.121 1.264-.286 1.685-.657 1.685-.063 0-.217.086-.342.191-.158.133-.374.208-.718.247-.27.032-.615.13-.765.219-.548.323-3.275.275-3.796-.066-.318-.209-2.427-.181-2.731.035-.395.281-1.048.095-1.048-.298 0-.076-.102-.279-.227-.451s-.251-.411-.279-.53a.52.52 0 00-.21-.301c-.459-.246-.343-.395 2.617-3.35 1.527-1.524 2.814-2.771 2.862-2.771s.087-.055.087-.121.09-.162.199-.211c.129-.059.199-.155.199-.277v-.229c0-.046-6.769-.052-6.815-.006-.015.015-.064.256-.109.534s-.13.561-.19.627c-.14.156-.183.356-.272 1.278-.045.469-.134.88-.231 1.073s-.176.563-.209.989-.108.785-.204.97a2.572 2.572 0 00-.205.715c-.099.802-.045.779-1.83.779-1.966 0-2.195-.147-1.71-1.098.095-.186.184-.619.238-1.163.057-.571.129-.913.211-1.004s.153-.425.208-.96c.055-.543.135-.908.234-1.072s.167-.473.197-.875c.055-.724.165-1.223.27-1.223.09 0 .143-.296.23-1.294.049-.57.106-.819.212-.937.112-.124.157-.358.203-1.043.047-.716.09-.926.227-1.112.118-.159.181-.39.209-.764.071-.943.119-1.207.242-1.33s.263-.872.266-1.439c.001-.235.069-.419.241-.656l.239-.33h5.363c5.221 0 5.366.004 5.446.154m103.826.156c.099.062.408.032.408-.04 0-.017-.116-.03-.258-.029-.176.001-.224.023-.15.07m-60.137 4.064a3.497 3.497 0 01-.809.246c-.326.057-.565.151-.701.277-.114.105-.289.191-.389.191-.203 0-.415.171-1.236.994-.907.91-.958.97-.958 1.113 0 .076-.107.26-.238.409-.168.192-.238.354-.238.551a.577.577 0 01-.188.454c-.154.144-.203.305-.274.906-.047.402-.15.849-.229.994-.21.384-.198 2.691.015 2.926.121.134.253.869.275 1.527.002.074.094.231.203.349s.199.31.199.439c0 .142.088.314.238.468.131.134.238.275.238.314 0 .06.222.326.667.799a6.48 6.48 0 00.397.358l.535.455c.137.119.367.239.51.266a.85.85 0 01.417.229c.118.136.282.194.664.237.296.033.623.129.786.23.428.266 3.532.263 4.254-.004a5.91 5.91 0 011.061-.253c.321-.042.643-.13.716-.196a1.36 1.36 0 01.356-.205c.24-.091.249-.435.018-.721-.053-.065-.144-.271-.202-.457-.119-.377-.135-.387-.374-.22-.093.065-.415.153-.715.196s-.67.141-.823.219c-.463.238-3.157.257-3.551.025a2.55 2.55 0 00-.687-.245c-.22-.041-.463-.133-.539-.202s-.244-.185-.373-.258c-.535-.302-.975-.692-1.067-.944a.9.9 0 00-.278-.384c-.1-.066-.182-.187-.182-.27s-.085-.252-.189-.376c-.14-.167-.211-.393-.277-.883-.049-.362-.125-.727-.169-.81-.128-.24-.098-.764.051-.887.109-.09 1.031-.109 5.261-.109h5.129l.07-.238c.126-.429-.008-2.428-.182-2.71-.083-.135-.185-.484-.226-.775-.045-.319-.14-.611-.238-.736a1.31 1.31 0 01-.214-.479c-.028-.15-.113-.316-.189-.37s-.202-.221-.28-.373-.226-.342-.33-.423-.188-.19-.188-.241-.099-.157-.219-.233a16.09 16.09 0 01-.982-.687c-.114-.088-.418-.195-.676-.238a3.22 3.22 0 01-.784-.242c-.463-.241-2.397-.244-2.867-.004m53.151-.109c-.065.021-.262.104-.437.183s-.586.167-.914.194c-.46.038-.626.086-.729.209-.073.088-.296.19-.494.227-.639.119-.968.632-.605.942a.8.8 0 01.208.398c.075.399.488.445.818.092.086-.092.328-.184.604-.229.253-.041.53-.139.616-.216.134-.121.345-.145 1.496-.167l1.34-.025.499.244c.275.134.536.245.58.245.127.002.836.697.836.82 0 .06.087.204.194.319.222.24.305.661.316 1.61.01.911.076.873-1.639.939-1.241.048-1.485.078-1.702.213-.171.106-.49.179-.98.224-.572.053-.765.103-.907.237-.1.093-.239.17-.311.17a1.34 1.34 0 00-.717.334.498.498 0 01-.288.143c-.185 0-1.561 1.328-1.636 1.578a2.126 2.126 0 01-.234.45c-.355.523-.341 3.492.018 3.762.099.074.216.267.26.428s.144.312.225.338.185.135.234.243.142.197.205.197.224.092.358.205.378.241.543.286a1.38 1.38 0 01.485.252c.28.259 3.054.264 3.406.006.124-.091.402-.209.619-.264s.442-.167.501-.252.157-.154.218-.154c.112 0 .214-.085.967-.802.59-.561.692-.49.8.562.075.726.132.765 1.185.812.597.026.738.01.795-.091.141-.252.006-10.35-.142-10.619-.072-.132-.176-.472-.23-.755s-.161-.587-.237-.675a1.74 1.74 0 01-.246-.465c-.059-.168-.171-.339-.248-.38s-.141-.115-.141-.164c0-.142-.627-.682-.902-.777a.943.943 0 01-.37-.24c-.082-.105-.294-.18-.676-.24a6.146 6.146 0 01-.977-.242c-.404-.15-2.195-.223-2.561-.105m-71.714.416l-.199.056-.02 7.044-.02 7.044.219.058c.255.067 2.029.183 2.088.137.022-.017.04-3.257.04-7.2v-7.169l-.954-.013c-.525-.007-1.043.012-1.153.043m46.845.025c-.101.101-.147 13.829-.047 14.09.038.099.177.126.656.129.334.002.761.033.948.069.286.055.353.044.415-.074.082-.154.12-14.099.039-14.231-.072-.117-1.892-.102-2.011.017m-25.69 1.301a7.53 7.53 0 00.474.246c.318.15 1.229 1.074 1.403 1.425a15.35 15.35 0 00.273.517 1.42 1.42 0 01.155.578c0 .164.072.504.159.753.354 1.007.539.963-4.062.978-4.507.015-4.184.079-4-.8a5.81 5.81 0 00.11-.663c.001-.081.091-.254.2-.384s.199-.322.199-.428c0-.191.206-.471.696-.948.142-.138.258-.291.258-.34s.073-.112.161-.14a.64.64 0 00.279-.231c.065-.099.27-.226.455-.281s.401-.168.479-.251c.189-.2 2.427-.226 2.76-.033m54.92 5.66l.218.162.022 1.244c.019 1.084.002 1.287-.13 1.582a3.31 3.31 0 00-.209.679c-.038.233-.117.381-.247.466-.105.069-.191.188-.191.266 0 .186-1.022 1.193-1.211 1.193-.051 0-.233.098-.405.217-.308.213-.335.217-1.529.219l-1.216.002-.229-.219c-.126-.12-.269-.219-.318-.219-.117 0-.655-.567-.656-.692 0-.052-.09-.192-.199-.31-.248-.267-.311-2.146-.079-2.339.066-.055.188-.253.271-.44s.223-.379.311-.427a.49.49 0 00.209-.237c.026-.083.163-.197.304-.254s.299-.164.353-.238.256-.157.449-.187.434-.124.533-.21c.224-.194.242-.198 1.663-.34 1.482-.149 2.004-.13 2.287.081" fill="#a7171b" clip-path="url(#filezilla-plain-wordmark-a)" transform="matrix(1.02893 0 0 1.07315 -.047 -5.507)"/></svg>
