<svg xmlns="http://www.w3.org/2000/svg" xmlns:xlink="http://www.w3.org/1999/xlink" viewBox="0 0 128 128"><defs><linearGradient id="a" x1="187.947" x2="187.947" y1="123.859" y2="258.865" gradientUnits="userSpaceOnUse"><stop offset="0" stop-color="#bf0000"/><stop offset="1" stop-color="#8f0000"/></linearGradient><linearGradient xlink:href="#a" id="b" x1="187.947" x2="187.947" y1="123.859" y2="258.865" gradientTransform="matrix(.143 0 0 .143 -14.382 36.828)" gradientUnits="userSpaceOnUse"/></defs><path fill="#bb0001" d="M52.061 52.107a.425.425 0 0 0-.425.426v22.446a.425.425 0 0 0 .425.425h2.456a.425.425 0 0 0 .426-.425V52.533a.425.425 0 0 0-.426-.426zm49.165 0a.425.425 0 0 0-.425.426v22.446a.425.425 0 0 0 .425.425h2.457a.425.425 0 0 0 .425-.425V52.533a.425.425 0 0 0-.425-.426zm7.794 0a.425.425 0 0 0-.426.426v22.446a.425.425 0 0 0 .426.425h2.455a.425.425 0 0 0 .426-.425V52.533a.425.425 0 0 0-.426-.426zm-79.552 1.15a.425.425 0 0 0-.425.425v2.348a.425.425 0 0 0 .119.119v18.703a.425.425 0 0 0 .425.425h2.48a.425.425 0 0 0 .425-.425V65.68h7.735a.425.425 0 0 0 .425-.425v-2.209a.425.425 0 0 0-.425-.425h-7.735v-6.166h8.506a.425.425 0 0 0 .426-.425v-2.348a.425.425 0 0 0-.426-.425Zm60.062.03-.33.052H75.35a.425.425 0 0 0-.426.425v2.234a.425.425 0 0 0 .426.425h10.1l-11.578 16.73a.425.425 0 0 0-.075.245l.008 1.673a.425.425 0 0 0 .37.382.425.425 0 0 0 .125.094h15.5a.425.425 0 0 0 .424-.425v-2.399a.425.425 0 0 0-.425-.425H78.47l11.572-16.851a.425.425 0 0 0 .074-.267l-.093-1.5a.425.425 0 0 0-.492-.394zm-43.984.04a2.01 2.01 0 0 0-2.003 2.002c0 1.1.902 2.002 2.003 2.002a2.01 2.01 0 0 0 2.003-2.002 2.009 2.009 0 0 0-2.003-2.003zm49.165 0a2.009 2.009 0 0 0-2.003 2.002 2.01 2.01 0 0 0 2.003 2.002 2.01 2.01 0 0 0 2.003-2.002 2.009 2.009 0 0 0-2.003-2.003zm-28.843 5.295c-1.46 0-3.145.424-4.578 1.405-1.433.98-2.604 2.536-2.96 4.72-.152.942-.427 3.545.05 5.53.367 1.531 1.485 3.386 3.559 4.513 2.074 1.127 5.08 1.488 9.123.093a.425.425 0 0 0 .284-.44l-.176-2.005a.425.425 0 0 0-.542-.37c-3.818 1.105-6.042.718-7.332-.23-1.164-.854-1.632-2.235-1.778-3.632h10.24c.243 0 .417-.168.498-.298.08-.13.12-.26.154-.408.067-.296.09-.662.078-1.096a10.39 10.39 0 0 0-.613-3.134c-.41-1.14-1.055-2.293-2.034-3.174-.98-.88-2.302-1.474-3.973-1.474zm55.888.063c-2.278-.034-4.453.804-5.36 1.356a.425.425 0 0 0-.157.167c-.217.417-.13.846-.021 1.268.108.422.279.844.43 1.178a.425.425 0 0 0 .626.177c1.473-1 3.252-1.48 4.558-1.204.654.138 1.186.446 1.574.972.356.482.573 1.197.607 2.145-1.74.07-3.854.31-5.663 1.126-1.954.881-3.527 2.5-3.503 5.09a.425.425 0 0 0 0 .008c.066 2.565 2.01 4.56 4.523 4.81 1.396.139 3.399-.274 5.065-1.93l.252 1.072a.425.425 0 0 0 .13.22c.429.384 1 .398 1.556.384a4.64 4.64 0 0 0 .792-.086c.242-.049.447-.103.641-.23a.425.425 0 0 0 .14-.565c-.109-.191-.254-.798-.332-1.575-.078-.776-.117-1.743-.132-2.77-.031-2.054.028-4.35.028-5.943a.425.425 0 0 0-.002-.046c-.229-2.106-.998-3.533-2.066-4.411-1.068-.878-2.396-1.194-3.686-1.213zm-77.503.548a.425.425 0 0 0-.426.425v15.386a.425.425 0 0 0 .426.425h2.587a.425.425 0 0 0 .425-.425V59.658a.425.425 0 0 0-.425-.425Zm49.164 0a.425.425 0 0 0-.425.425v15.386a.425.425 0 0 0 .425.425h2.588a.425.425 0 0 0 .425-.425V59.658a.425.425 0 0 0-.425-.425Zm-27.908 2.392c1.27 0 2.115.684 2.643 1.566.462.77.58 1.649.508 2.239h-6.986c.594-2.844 2.474-3.805 3.835-3.805zm57.056 5.996c.52-.01 1.052.076 1.575.185l.048 1.357c-.044.695-.146 1.533-.6 2.2-.457.67-1.263 1.23-2.95 1.336-.9.057-1.416-.215-1.745-.576a1.845 1.845 0 0 1-.458-1.228c.021-1.103.488-1.869 1.232-2.413.745-.544 1.787-.841 2.898-.861z"/><path fill="url(#b)" d="M0 52.341v1.104a.838.838 0 0 1 0 1.673v1.103a.838.838 0 0 1 0 1.674v1.103a.838.838 0 0 1 0 1.674v1.103a.837.837 0 0 1 0 1.674v1.103a.837.837 0 0 1 0 1.673v1.104a.837.837 0 0 1 0 1.673v1.103a.837.837 0 0 1 0 1.673v1.104a.837.837 0 0 1 0 1.673v1.104c.22 0 .436.089.592.245a.842.842 0 0 1 .245.591H1.94a.837.837 0 0 1 1.673 0h1.104a.837.837 0 0 1 1.673 0h1.103a.837.837 0 0 1 1.674 0h1.103a.837.837 0 0 1 1.673 0h1.104a.837.837 0 0 1 1.673 0h1.103a.837.837 0 0 1 1.674 0H18.6a.837.837 0 0 1 1.674 0h1.103a.837.837 0 0 1 1.673 0h1.104c0-.22.09-.436.245-.591a.841.841 0 0 1 .592-.245v-1.103a.838.838 0 0 1 0-1.674V71.78a.838.838 0 0 1 0-1.673v-1.104a.838.838 0 0 1 0-1.673v-1.103a.838.838 0 0 1 0-1.674V63.45a.838.838 0 0 1 0-1.673v-1.103a.838.838 0 0 1 0-1.675v-1.103a.838.838 0 0 1 0-1.673V55.12a.838.838 0 0 1 0-1.674v-1.104a.843.843 0 0 1-.592-.245.843.843 0 0 1-.245-.591h-1.103a.838.838 0 0 1-1.674 0h-1.103a.838.838 0 0 1-1.673 0h-1.104a.838.838 0 0 1-1.673 0h-1.103a.838.838 0 0 1-1.674 0h-1.103a.838.838 0 0 1-1.673 0H9.167a.838.838 0 0 1-1.673 0H6.39a.838.838 0 0 1-1.674 0H3.614a.838.838 0 0 1-1.673 0H.837c0 .22-.09.436-.245.591a.844.844 0 0 1-.592.245Z"/><path fill="#fff" d="M21.29 61.504H8.818l.65-3.045h7.601l.697-3.277H6.843l-3.44 16.224h3.3l1.51-7.09h7.918l-6.88 6.81 1.21 2.14c.557-.373 1.463-.42 2.091-.42 1.116 0 2.208.373 3.347.373 1.044 0 2.113-.07 3.856-.907l.61-2.859c-1.186.488-2.94.953-4.466.953-.627 0-1.209-.14-1.813-.232l6.668-6.485z"/></svg>
