<svg xmlns="http://www.w3.org/2000/svg" width="128" height="128" viewBox="0 0 128 128" xmlns:v="https://vecta.io/nano"><defs><linearGradient id="A" gradientUnits="userSpaceOnUse" x1="63.997" y1="15.543" x2="63.997" y2="114.424"><stop offset="0" stop-color="rgb(74.901961%,0%,0%)"/><stop offset="1" stop-color="rgb(56.078431%,0%,0%)"/></linearGradient></defs><path d="M4.285 0c0 1.129-.457 2.234-1.254 3.031S1.129 4.285 0 4.285v5.652a4.29 4.29 0 0 1 4.285 4.285A4.29 4.29 0 0 1 0 18.508v5.648c2.363 0 4.285 1.926 4.285 4.285S2.363 32.73 0 32.73v5.648a4.29 4.29 0 0 1 4.285 4.289A4.29 4.29 0 0 1 0 46.953v5.652a4.29 4.29 0 0 1 4.285 4.285A4.29 4.29 0 0 1 0 61.176v5.652c2.363 0 4.285 1.918 4.285 4.281A4.29 4.29 0 0 1 0 75.398v5.648a4.29 4.29 0 0 1 4.285 4.283A4.29 4.29 0 0 1 0 89.617v5.652a4.29 4.29 0 0 1 4.285 4.285A4.29 4.29 0 0 1 0 103.84v5.652a4.29 4.29 0 0 1 4.285 4.285A4.29 4.29 0 0 1 0 118.063v5.652c1.129 0 2.234.457 3.031 1.254s1.254 1.902 1.254 3.031h5.652a4.29 4.29 0 0 1 4.285-4.285A4.29 4.29 0 0 1 18.508 128h5.648c0-2.363 1.926-4.285 4.289-4.285A4.29 4.29 0 0 1 32.73 128h5.648a4.29 4.29 0 0 1 4.283-4.285A4.29 4.29 0 0 1 46.949 128h5.652a4.29 4.29 0 0 1 4.285-4.285A4.29 4.29 0 0 1 61.172 128h5.652a4.29 4.29 0 0 1 4.285-4.285A4.29 4.29 0 0 1 75.395 128h5.652a4.29 4.29 0 0 1 4.285-4.285A4.29 4.29 0 0 1 89.617 128h5.648c0-2.363 1.926-4.285 4.289-4.285A4.29 4.29 0 0 1 103.84 128h5.646a4.29 4.29 0 0 1 4.285-4.285 4.29 4.29 0 0 1 4.285 4.285h5.656c0-1.129.457-2.234 1.254-3.031s1.902-1.254 3.031-1.254v-5.648c-2.363 0-4.285-1.926-4.285-4.289a4.29 4.29 0 0 1 4.285-4.285v-5.646a4.29 4.29 0 0 1-4.285-4.285A4.29 4.29 0 0 1 128 95.273v-5.652a4.29 4.29 0 0 1-4.285-4.285A4.29 4.29 0 0 1 128 81.051v-5.652a4.29 4.29 0 0 1-4.285-4.285A4.29 4.29 0 0 1 128 66.828V61.18a4.29 4.29 0 0 1-4.285-4.285A4.29 4.29 0 0 1 128 52.609v-5.652a4.29 4.29 0 0 1-4.285-4.285A4.29 4.29 0 0 1 128 38.383V32.73a4.29 4.29 0 0 1-4.285-4.285A4.29 4.29 0 0 1 128 24.16v-5.648c-2.363 0-4.285-1.926-4.285-4.289A4.29 4.29 0 0 1 128 9.941V4.285c-1.129 0-2.234-.457-3.031-1.254S123.715 1.129 123.715 0h-5.652a4.29 4.29 0 0 1-4.285 4.285A4.29 4.29 0 0 1 109.492 0h-5.652a4.29 4.29 0 0 1-4.285 4.285A4.29 4.29 0 0 1 95.27 0h-5.648a4.29 4.29 0 0 1-4.283 4.285A4.3 4.3 0 0 1 81.047 0h-5.648a4.29 4.29 0 0 1-4.285 4.285A4.29 4.29 0 0 1 66.828 0h-5.652a4.29 4.29 0 0 1-4.285 4.285A4.29 4.29 0 0 1 52.605 0h-5.652a4.29 4.29 0 0 1-4.285 4.285A4.29 4.29 0 0 1 38.383 0H32.73a4.29 4.29 0 0 1-4.285 4.285A4.29 4.29 0 0 1 24.16 0h-5.648c0 2.363-1.926 4.285-4.285 4.285S9.938 2.363 9.938 0H4.285zm30.762 18.836H91l-3.57 16.785H48.5l-3.332 15.594h63.871l-2.738 11.189-34.152 33.215c3.094.476 6.07 1.191 9.281 1.191 7.816 0 16.801-2.383 22.875-4.883l-3.121 14.645c-8.93 4.286-14.406 4.646-19.754 4.646-5.828 0-11.426-1.906-17.141-1.906-3.215 0-7.856.239-10.715 2.141l-6.191-10.949 35.234-34.883H42.07l-7.738 36.309H17.43l17.617-83.094z" fill="url(#A)"/></svg>