<svg viewBox="0 0 128 128" xmlns="http://www.w3.org/2000/svg"><path fill="#333" opacity=".937" d="M47.1 52.5v18.7H42v-7.3h-6.3v7.3h-5.1V52.5h5.1v6.9H42v-6.9h5.1zm6.7 19c-.7 0-1.3-.1-1.9-.3s-1.1-.5-1.6-.9c-.4-.4-.8-.9-1-1.4-.2-.6-.3-1.2-.3-1.9s.1-1.3.4-1.9.7-1.1 1.2-1.5 1.2-.7 1.9-1c.7-.2 1.5-.3 2.4-.3 1.1 0 2.1.2 2.8.5v-.4c0-.6-.2-1.1-.6-1.4s-1-.5-1.8-.5-1.5.1-2.2.4c-.7.2-1.4.6-2.1 1.1l-1.4-3.1c1.8-1.2 3.9-1.8 6.2-1.8 2.2 0 3.9.5 5.1 1.5s1.8 2.5 1.8 4.4v2.7c0 .5.1.8.3 1s.5.3.9.3v4.2c-.5.1-.9.1-1.3.2s-.8.1-1.1.1c-.9 0-1.6-.2-2.1-.5s-.8-.8-.9-1.4l-.1-.5c-.6.8-1.3 1.4-2.1 1.8-.7.4-1.6.6-2.5.6zm1.5-3.6c.3 0 .6 0 .9-.1s.6-.2.8-.4c.2-.1.4-.3.5-.4.1-.2.2-.4.2-.5v-1c-.3-.1-.6-.2-1-.3s-.7-.1-.9-.1c-.6 0-1.1.1-1.5.4s-.6.7-.6 1.1.1.7.4.9c.3.3.7.4 1.2.4zm16.5 3.6c-.6 0-1.2 0-1.9-.1s-1.3-.2-2-.3c-.6-.1-1.2-.3-1.8-.5s-1.1-.4-1.6-.7l1.9-3.4c1 .5 1.9.9 2.8 1.2s1.7.4 2.5.4c.9 0 1.3-.2 1.3-.7 0-.2-.2-.4-.5-.6-.4-.2-1-.4-2-.6-1-.3-1.8-.5-2.5-.8s-1.2-.6-1.6-.9-.7-.7-.9-1.1-.3-.9-.3-1.4c0-.7.1-1.4.4-1.9.3-.6.7-1.1 1.2-1.6.5-.4 1.1-.8 1.9-1 .7-.2 1.5-.4 2.4-.4s1.9.1 3 .4 2.2.6 3.3 1.2l-1.9 3.2c-1-.5-1.8-.8-2.4-1s-1.3-.3-1.9-.3c-.4 0-.7.1-.9.2s-.3.3-.3.5c0 .1 0 .3.1.4s.2.2.4.3.4.2.7.3.7.2 1.2.3c1.1.3 1.9.5 2.7.8.7.3 1.3.6 1.7.9s.7.7.9 1.2c.2.4.3.9.3 1.5 0 1.4-.5 2.5-1.6 3.4-1.3.7-2.7 1.1-4.6 1.1zm16.9-.3l-3.1-5.1-1 1.1v3.9h-5V52h5v10.5l3.7-5.1h5.3l-4.8 6.1 5.2 7.8h-5.3v-.1z"/><path fill="#333" opacity=".937" d="M101 71.5c-1.2 0-2.3-.2-3.2-.6s-1.7-.9-2.4-1.6c-.6-.6-1.1-1.4-1.4-2.2s-.5-1.7-.5-2.7.2-1.9.5-2.8.8-1.7 1.4-2.3c.6-.7 1.4-1.2 2.4-1.6.9-.4 2-.6 3.3-.6 1.2 0 2.3.2 3.3.6.9.4 1.7.9 2.4 1.6.6.6 1.1 1.4 1.4 2.3s.5 1.8.5 2.7c0 .3 0 .5-.1.8 0 .3 0 .5-.1.7h-9.7c.1.7.3 1.3.8 1.6s1 .5 1.6.5c.5 0 1.1-.1 1.5-.4.5-.2.8-.6 1-1l4.2 1.2c-.6 1.1-1.4 2-2.6 2.7s-2.6 1.1-4.3 1.1zm2.2-8.7c-.1-.7-.3-1.2-.7-1.6s-.9-.6-1.6-.6c-.6 0-1.2.2-1.6.6s-.6.9-.7 1.6h4.6zm6.9-10.8h5v13.4c0 1.1.4 1.6 1.3 1.6.2 0 .4 0 .7-.1.2-.1.5-.2.7-.3l.6 4c-.6.3-1.3.5-2 .7s-1.4.2-2.1.2c-1.3 0-2.4-.3-3.1-1s-1.1-1.7-1.1-3V52zm9.6 0h5v13.4c0 1.1.4 1.6 1.3 1.6.2 0 .4 0 .7-.1.2-.1.5-.2.7-.3l.6 4c-.6.3-1.3.5-2 .7s-1.4.2-2.1.2c-1.3 0-2.4-.3-3.1-1s-1.1-1.7-1.1-3V52z"/><path fill="#463B63" d="M0 71.3L6.2 62 0 52.6h4.7l6.2 9.3-6.2 9.3H0z"/><path fill="#463B63" d="M6.2 71.3l6.2-9.3-6.2-9.3h4.7l12.5 18.7h-4.7l-3.9-5.8-3.9 5.8H6.2z"/><path fill="#904F8C" d="M21.3 65.8l-2.1-3.1h7.3v3.1h-5.2zm-3.1-4.7L16.1 58h10.4v3.1h-8.3z"/></svg>