<?xml version="1.0" encoding="UTF-8"?>
<svg enable-background="new 0 0 128 128" version="1.1" viewBox="0 0 128 128" xml:space="preserve" xmlns="http://www.w3.org/2000/svg">
	<path fill="#333333" opacity="0.937" d="m47.1 52.5v18.7h-5.1v-7.3h-6.3v7.3h-5.1v-18.7h5.1v6.9h6.3v-6.9h5.1zm6.7 19c-0.7 0-1.3-0.1-1.9-0.3s-1.1-0.5-1.6-0.9c-0.4-0.4-0.8-0.9-1-1.4-0.2-0.6-0.3-1.2-0.3-1.9s0.1-1.3 0.4-1.9 0.7-1.1 1.2-1.5 1.2-0.7 1.9-1c0.7-0.2 1.5-0.3 2.4-0.3 1.1 0 2.1 0.2 2.8 0.5v-0.4c0-0.6-0.2-1.1-0.6-1.4s-1-0.5-1.8-0.5-1.5 0.1-2.2 0.4c-0.7 0.2-1.4 0.6-2.1 1.1l-1.4-3.1c1.8-1.2 3.9-1.8 6.2-1.8 2.2 0 3.9 0.5 5.1 1.5s1.8 2.5 1.8 4.4v2.7c0 0.5 0.1 0.8 0.3 1s0.5 0.3 0.9 0.3v4.2c-0.5 0.1-0.9 0.1-1.3 0.2s-0.8 0.1-1.1 0.1c-0.9 0-1.6-0.2-2.1-0.5s-0.8-0.8-0.9-1.4l-0.1-0.5c-0.6 0.8-1.3 1.4-2.1 1.8-0.7 0.4-1.6 0.6-2.5 0.6zm1.5-3.6c0.3 0 0.6 0 0.9-0.1s0.6-0.2 0.8-0.4c0.2-0.1 0.4-0.3 0.5-0.4 0.1-0.2 0.2-0.4 0.2-0.5v-1c-0.3-0.1-0.6-0.2-1-0.3s-0.7-0.1-0.9-0.1c-0.6 0-1.1 0.1-1.5 0.4s-0.6 0.7-0.6 1.1 0.1 0.7 0.4 0.9c0.3 0.3 0.7 0.4 1.2 0.4zm16.5 3.6c-0.6 0-1.2 0-1.9-0.1s-1.3-0.2-2-0.3c-0.6-0.1-1.2-0.3-1.8-0.5s-1.1-0.4-1.6-0.7l1.9-3.4c1 0.5 1.9 0.9 2.8 1.2s1.7 0.4 2.5 0.4c0.9 0 1.3-0.2 1.3-0.7 0-0.2-0.2-0.4-0.5-0.6-0.4-0.2-1-0.4-2-0.6-1-0.3-1.8-0.5-2.5-0.8s-1.2-0.6-1.6-0.9-0.7-0.7-0.9-1.1-0.3-0.9-0.3-1.4c0-0.7 0.1-1.4 0.4-1.9 0.3-0.6 0.7-1.1 1.2-1.6 0.5-0.4 1.1-0.8 1.9-1 0.7-0.2 1.5-0.4 2.4-0.4s1.9 0.1 3 0.4 2.2 0.6 3.3 1.2l-1.9 3.2c-1-0.5-1.8-0.8-2.4-1s-1.3-0.3-1.9-0.3c-0.4 0-0.7 0.1-0.9 0.2s-0.3 0.3-0.3 0.5c0 0.1 0 0.3 0.1 0.4s0.2 0.2 0.4 0.3 0.4 0.2 0.7 0.3 0.7 0.2 1.2 0.3c1.1 0.3 1.9 0.5 2.7 0.8 0.7 0.3 1.3 0.6 1.7 0.9s0.7 0.7 0.9 1.2c0.2 0.4 0.3 0.9 0.3 1.5 0 1.4-0.5 2.5-1.6 3.4-1.3 0.7-2.7 1.1-4.6 1.1zm16.9-0.3-3.1-5.1-1 1.1v3.9h-5v-19.1h5v10.5l3.7-5.1h5.3l-4.8 6.1 5.2 7.8h-5.3v-0.1z"/>
	<path fill="#333333" opacity="0.937" d="m101 71.5c-1.2 0-2.3-0.2-3.2-0.6s-1.7-0.9-2.4-1.6c-0.6-0.6-1.1-1.4-1.4-2.2s-0.5-1.7-0.5-2.7 0.2-1.9 0.5-2.8 0.8-1.7 1.4-2.3c0.6-0.7 1.4-1.2 2.4-1.6 0.9-0.4 2-0.6 3.3-0.6 1.2 0 2.3 0.2 3.3 0.6 0.9 0.4 1.7 0.9 2.4 1.6 0.6 0.6 1.1 1.4 1.4 2.3s0.5 1.8 0.5 2.7c0 0.3 0 0.5-0.1 0.8 0 0.3 0 0.5-0.1 0.7h-9.7c0.1 0.7 0.3 1.3 0.8 1.6s1 0.5 1.6 0.5c0.5 0 1.1-0.1 1.5-0.4 0.5-0.2 0.8-0.6 1-1l4.2 1.2c-0.6 1.1-1.4 2-2.6 2.7s-2.6 1.1-4.3 1.1zm2.2-8.7c-0.1-0.7-0.3-1.2-0.7-1.6s-0.9-0.6-1.6-0.6c-0.6 0-1.2 0.2-1.6 0.6s-0.6 0.9-0.7 1.6h4.6zm6.9-10.8h5v13.4c0 1.1 0.4 1.6 1.3 1.6 0.2 0 0.4 0 0.7-0.1 0.2-0.1 0.5-0.2 0.7-0.3l0.6 4c-0.6 0.3-1.3 0.5-2 0.7s-1.4 0.2-2.1 0.2c-1.3 0-2.4-0.3-3.1-1s-1.1-1.7-1.1-3v-15.5zm9.6 0h5v13.4c0 1.1 0.4 1.6 1.3 1.6 0.2 0 0.4 0 0.7-0.1 0.2-0.1 0.5-0.2 0.7-0.3l0.6 4c-0.6 0.3-1.3 0.5-2 0.7s-1.4 0.2-2.1 0.2c-1.3 0-2.4-0.3-3.1-1s-1.1-1.7-1.1-3v-15.5z"/>
	<path fill="#463B63" d="M0,71.3l6.2-9.3L0,52.6h4.7l6.2,9.3l-6.2,9.3H0z"/>
	<path fill="#463B63" d="m6.2 71.3 6.2-9.3-6.2-9.3h4.7l12.5 18.7h-4.7l-3.9-5.8-3.9 5.8h-4.7z"/>
	<path fill="#904F8C" d="m21.3 65.8-2.1-3.1h7.3v3.1h-5.2zm-3.1-4.7-2.1-3.1h10.4v3.1h-8.3z"/>
</svg>