<svg xmlns="http://www.w3.org/2000/svg" viewBox="0 0 128 128"><path d="M112.871 66.602c9.004 5.277 15.055 15.027 15.074 26.191.032 16.805-13.617 30.453-30.48 30.48-16.863.032-30.559-13.57-30.59-30.375-.02-11.164 5.996-20.933 14.984-26.246l8.774 14.778c.219.37.094.847-.262 1.09-3.32 2.25-5.496 6.046-5.488 10.347.012 6.895 5.633 12.477 12.55 12.461 6.919-.012 12.516-5.61 12.504-12.504-.007-4.3-2.195-8.09-5.523-10.328-.355-.242-.484-.719-.266-1.09zm0 0" fill="#128dff"/><path d="M45.477 66.422a30.495 30.495 0 00-14.907-3.867C13.703 62.555.035 76.18.035 92.985c0 16.804 13.668 30.43 30.535 30.43 16.946 0 30.95-14.337 30.524-31.212H43.906c-.453 0-.808.383-.812.832-.043 6.723-5.672 12.434-12.524 12.434-6.922 0-12.527-5.59-12.527-12.485 0-6.894 5.605-12.484 12.527-12.484 1.809 0 3.532.383 5.086 1.074.383.168.836.04 1.047-.316zm0 0" fill="#8bda67"/><path d="M47.945 61.648c-8.992-5.293-15.027-15.054-15.027-26.218C32.918 18.625 46.59 5 63.453 5s30.535 13.625 30.535 30.43c0 11.164-6.035 20.925-15.027 26.218L70.21 46.86c-.219-.37-.094-.847.266-1.09 3.32-2.246 5.503-6.039 5.503-10.34 0-6.894-5.609-12.484-12.527-12.484-6.918 0-12.527 5.59-12.527 12.485 0 4.3 2.183 8.093 5.504 10.34.36.242.484.718.265 1.09zm0 0" fill="#ff2a44"/></svg>
