<svg xmlns="http://www.w3.org/2000/svg" viewBox="0 0 128 128"><path d="M101.653 47.26c6.753 3.964 11.291 11.288 11.306 19.672.024 12.622-10.213 22.87-22.86 22.89-12.648.023-22.92-10.189-22.943-22.81-.015-8.385 4.497-15.724 11.238-19.712l6.58 11.098a.616.616 0 01-.196.818 9.356 9.356 0 00-4.116 7.772c.01 5.177 4.225 9.367 9.413 9.358 5.189-.01 9.387-4.213 9.378-9.39a9.354 9.354 0 00-4.143-7.758.619.619 0 01-.199-.817zm-50.545-.132a22.841 22.841 0 00-11.18-2.903c-12.65 0-22.902 10.23-22.902 22.852 0 12.62 10.251 22.85 22.902 22.85 12.709 0 23.212-10.766 22.893-23.437H49.93a.62.62 0 00-.61.624c-.032 5.048-4.253 9.337-9.392 9.337-5.192 0-9.396-4.198-9.396-9.374 0-5.18 4.204-9.375 9.396-9.375 1.356 0 2.649.286 3.814.805a.62.62 0 00.785-.238zm1.85-3.586c-6.743-3.975-11.27-11.306-11.27-19.69C41.689 11.23 51.944 1 64.59 1S87.49 11.23 87.49 23.852c0 8.385-4.526 15.715-11.27 19.69l-6.563-11.106a.614.614 0 01.2-.818 9.366 9.366 0 004.127-7.766c0-5.177-4.207-9.375-9.395-9.375-5.189 0-9.395 4.198-9.395 9.375a9.365 9.365 0 004.128 7.766c.27.182.363.54.198.818zm-26.767 58.872c2.952 0 5 .709 6.143 2.127 1.163 1.418 1.743 4.005 1.743 7.76 0 3.757-.58 6.343-1.743 7.762-1.143 1.417-3.19 2.126-6.144 2.126-2.935 0-4.983-.708-6.143-2.126-1.146-1.418-1.717-4.006-1.717-7.762 0-3.755.571-6.342 1.717-7.76 1.16-1.417 3.208-2.127 6.143-2.127zm0 2.956c-1.605 0-2.713.498-3.323 1.491-.589.976-.885 2.79-.885 5.44 0 2.653.296 4.474.885 5.47.61.976 1.718 1.463 3.323 1.463 1.623 0 2.73-.487 3.322-1.463.606-.996.91-2.817.91-5.47 0-2.65-.304-4.464-.91-5.44-.593-.993-1.7-1.491-3.323-1.491zm12.846 2.927l.22 2.018c.63-.7 1.459-1.27 2.493-1.713 1.051-.443 2.075-.663 3.07-.663 3.083 0 4.624 2.412 4.624 7.237 0 2.557-.426 4.362-1.273 5.41-.831 1.053-2.14 1.577-3.931 1.577-1.828 0-3.395-.442-4.705-1.327.074.94.103 1.878.083 2.818v3.563h-3.35v-18.92zm.58 4.087v6.463c1.735.387 2.945.58 3.627.58 1.035 0 1.743-.276 2.13-.826.407-.572.61-1.723.61-3.455 0-1.693-.186-2.853-.555-3.48-.348-.645-.966-.967-1.854-.967-.61 0-1.207.14-1.799.416-.571.258-1.291.68-2.159 1.269zm20.733 4.09h-5.537c.13 1.177.463 1.968.996 2.373.537.387 1.413.58 2.631.58 1.383 0 3.01-.109 4.872-.331l.305 2.156c-1.274.607-3.137.911-5.593.911-2.452 0-4.198-.545-5.229-1.629-1.035-1.087-1.55-2.921-1.55-5.499 0-2.63.507-4.473 1.521-5.522 1.016-1.067 2.695-1.603 5.038-1.603 2.16 0 3.727.396 4.706 1.19.978.773 1.465 1.942 1.465 3.507 0 2.578-1.208 3.867-3.624 3.867zm-5.592-2.35h4.652c.812 0 1.216-.525 1.216-1.573 0-.736-.194-1.252-.58-1.547-.387-.292-1.09-.443-2.103-.443-1.181 0-2.001.25-2.464.748-.443.477-.683 1.417-.721 2.815zm13.927-5.827l.223 1.99c2.104-1.583 4.06-2.377 5.868-2.377 1.199 0 2.121.323 2.766.967.648.645.97 1.576.97 2.79v10.165h-3.375v-9.144c0-.753-.103-1.26-.305-1.517-.205-.279-.583-.416-1.136-.416-.627 0-1.272.129-1.937.386-.645.258-1.485.683-2.52 1.272v9.419h-3.375v-13.536zm25.278 10.55l.302 2.598c-1.53.477-3.487.718-5.865.718-2.863 0-4.873-.739-6.036-2.21-1.163-1.472-1.743-4.025-1.743-7.652s.58-6.175 1.743-7.649c1.163-1.474 3.173-2.209 6.035-2.209 2.121 0 3.947.203 5.479.606l-.331 2.625a64.492 64.492 0 00-5.148-.192c-1.587 0-2.677.486-3.266 1.461-.574.958-.859 2.745-.859 5.358 0 2.617.285 4.41.859 5.388.589.955 1.679 1.436 3.266 1.436 2.341 0 4.196-.094 5.564-.278zm17.719-16.072l-5.397 18.09c-.184.642-.61.967-1.275.967h-3.262c-.297 0-.567-.085-.804-.25a1.343 1.343 0 01-.445-.717l-5.423-18.09h3.568l3.903 14.305c.056.222.14.58.252 1.078.108.478.193.829.248 1.049h.692c.109-.589.285-1.298.525-2.127l3.846-14.306zm0 0"/></svg>
