<svg xmlns="http://www.w3.org/2000/svg" viewBox="0 0 128 128"><path fill="#3498DB" d="M51.7,72l-3.2-6.2L45.2,72h-3.5l5-7.9l-4.5-7.9h3.6l2.9,6l3.2-6h3.3L50.5,64l4.7,8H51.7z M63.1,72 v-1.7h0c-0.9,1.4-2.1,2-3.7,2c-1.2,0-2.2-0.3-2.9-1c-0.7-0.7-1.1-1.6-1.1-2.7c0-2.4,1.4-3.8,4.1-4.1l3.6-0.5 c0-1.7-0.8-2.6-2.4-2.6c-1.5,0-2.9,0.5-4.1,1.4v-2.5c0.5-0.3,1.1-0.5,2-0.8c0.9-0.2,1.7-0.3,2.4-0.3c3.2,0,4.8,1.6,4.8,4.9V72 H63.1L63.1,72z M60.5,66.3c-0.8,0.1-1.4,0.3-1.8,0.6c-0.3,0.3-0.5,0.8-0.5,1.4c0,0.5,0.2,0.9,0.6,1.3c0.4,0.3,0.9,0.5,1.5,0.5 c0.8,0,1.5-0.3,2.1-0.9c0.5-0.6,0.8-1.3,0.8-2.2v-1.1L60.5,66.3L60.5,66.3z M83.9,72v-7.1c0-1.2-0.2-2-0.5-2.6 c-0.4-0.6-1-0.9-1.9-0.9c-0.7,0-1.4,0.3-1.9,1c-0.5,0.7-0.8,1.5-0.8,2.5v7H76v-7.3c0-2.1-0.8-3.2-2.5-3.2c-0.8,0-1.4,0.3-1.9,1 c-0.5,0.6-0.7,1.5-0.7,2.5v7h-2.8V59.5h2.8v1.9h0c0.9-1.5,2.2-2.2,4-2.2c0.8,0,1.6,0.2,2.2,0.7c0.6,0.4,1.1,1,1.4,1.8 c1-1.6,2.4-2.5,4.2-2.5c2.7,0,4.1,1.7,4.1,5.1V72H83.9L83.9,72z M96.1,72v-1.7h0c-0.9,1.4-2.1,2-3.7,2c-1.2,0-2.2-0.3-2.9-1 c-0.7-0.7-1.1-1.6-1.1-2.7c0-2.4,1.4-3.8,4.1-4.1l3.6-0.5c0-1.7-0.8-2.6-2.4-2.6c-1.5,0-2.9,0.5-4.1,1.4v-2.5 c0.5-0.3,1.1-0.5,2-0.8c0.9-0.2,1.7-0.3,2.4-0.3c3.2,0,4.8,1.6,4.8,4.9V72H96.1L96.1,72z M93.4,66.3c-0.8,0.1-1.4,0.3-1.8,0.6 c-0.3,0.3-0.5,0.8-0.5,1.4c0,0.5,0.2,0.9,0.6,1.3c0.4,0.3,0.9,0.5,1.5,0.5c0.8,0,1.5-0.3,2.1-0.9c0.5-0.6,0.8-1.3,0.8-2.2v-1.1 L93.4,66.3L93.4,66.3z M108.3,62.2c-0.5-0.3-1-0.4-1.6-0.4c-0.8,0-1.5,0.4-2,1.1c-0.5,0.7-0.8,1.6-0.8,2.7V72h-2.8V59.5h2.8v2.4h0 c0.6-1.8,1.7-2.7,3.2-2.7c0.5,0,0.9,0.1,1.1,0.2L108.3,62.2L108.3,62.2z M111.1,56.7c-0.5,0-0.9-0.2-1.2-0.5 c-0.3-0.3-0.5-0.7-0.5-1.2c0-0.5,0.2-0.9,0.5-1.2c0.3-0.3,0.7-0.5,1.2-0.5c0.5,0,0.9,0.2,1.2,0.5c0.3,0.3,0.5,0.7,0.5,1.2 c0,0.5-0.2,0.8-0.5,1.2C112,56.5,111.6,56.7,111.1,56.7z M109.7,72V59.5h2.8V72H109.7z M123.2,72v-7c0-2.3-0.8-3.5-2.5-3.5 c-0.8,0-1.5,0.3-2.1,1c-0.6,0.6-0.8,1.4-0.8,2.4V72h-2.8V59.5h2.8v2h0c0.9-1.5,2.3-2.3,4.1-2.3c2.8,0,4.2,1.7,4.2,5.1V72H123.2 L123.2,72z M11.1,49.9c-0.9,0-1.7,0.5-2.1,1.2L2.3,62.8c-0.4,0.7-0.4,1.7,0,2.5L9,76.9c0.4,0.7,1.3,1.2,2.1,1.2h13.4 c0.9,0,1.7-0.5,2.1-1.2l6.7-11.7c0.4-0.7,0.4-1.7,0-2.5l-6.7-11.7c-0.4-0.7-1.3-1.2-2.1-1.2H11.1z M11.3,56.7 C11.3,56.7,11.3,56.7,11.3,56.7h2.4c0.1,0,0.2,0.1,0.3,0.2l3.9,7c0,0,0,0.1,0,0.1c0,0,0-0.1,0-0.1l3.9-7c0.1-0.1,0.2-0.2,0.3-0.2 h2.3c0.2,0,0.4,0.3,0.3,0.4L20.8,64l3.8,6.9c0.1,0.2-0.1,0.5-0.3,0.5h-2.3c-0.1,0-0.2-0.1-0.3-0.2l-3.9-7c0,0,0-0.1,0-0.1 c0,0,0,0.1,0,0.1l-3.9,7c0,0.1-0.1,0.2-0.3,0.2h-2.3c-0.2,0-0.4-0.3-0.3-0.5l3.8-6.9l-3.8-6.9C11,57,11.1,56.7,11.3,56.7 L11.3,56.7z"/></svg>
