<svg xmlns="http://www.w3.org/2000/svg" viewBox="0 0 128 128"><path fill="#3498DB" d="M51.7 72l-3.2-6.2-3.3 6.2h-3.5l5-7.9-4.5-7.9h3.6l2.9 6 3.2-6h3.3L50.5 64l4.7 8h-3.5zm11.4 0v-1.7c-.9 1.4-2.1 2-3.7 2-1.2 0-2.2-.3-2.9-1-.7-.7-1.1-1.6-1.1-2.7 0-2.4 1.4-3.8 4.1-4.1l3.6-.5c0-1.7-.8-2.6-2.4-2.6-1.5 0-2.9.5-4.1 1.4v-2.5c.5-.3 1.1-.5 2-.8.9-.2 1.7-.3 2.4-.3 3.2 0 4.8 1.6 4.8 4.9V72h-2.7zm-2.6-5.7c-.8.1-1.4.3-1.8.6-.3.3-.5.8-.5 1.4 0 .5.2.9.6 1.3.4.3.9.5 1.5.5.8 0 1.5-.3 2.1-.9.5-.6.8-1.3.8-2.2v-1.1l-2.7.4zM83.9 72v-7.1c0-1.2-.2-2-.5-2.6-.4-.6-1-.9-1.9-.9-.7 0-1.4.3-1.9 1s-.8 1.5-.8 2.5v7H76v-7.3c0-2.1-.8-3.2-2.5-3.2-.8 0-1.4.3-1.9 1-.5.6-.7 1.5-.7 2.5v7h-2.8V59.5h2.8v1.9c.9-1.5 2.2-2.2 4-2.2.8 0 1.6.2 2.2.7.6.4 1.1 1 1.4 1.8 1-1.6 2.4-2.5 4.2-2.5 2.7 0 4.1 1.7 4.1 5.1V72h-2.9zm12.2 0v-1.7c-.9 1.4-2.1 2-3.7 2-1.2 0-2.2-.3-2.9-1-.7-.7-1.1-1.6-1.1-2.7 0-2.4 1.4-3.8 4.1-4.1l3.6-.5c0-1.7-.8-2.6-2.4-2.6-1.5 0-2.9.5-4.1 1.4v-2.5c.5-.3 1.1-.5 2-.8.9-.2 1.7-.3 2.4-.3 3.2 0 4.8 1.6 4.8 4.9V72h-2.7zm-2.7-5.7c-.8.1-1.4.3-1.8.6-.3.3-.5.8-.5 1.4 0 .5.2.9.6 1.3.4.3.9.5 1.5.5.8 0 1.5-.3 2.1-.9.5-.6.8-1.3.8-2.2v-1.1l-2.7.4zm14.9-4.1c-.5-.3-1-.4-1.6-.4-.8 0-1.5.4-2 1.1-.5.7-.8 1.6-.8 2.7V72h-2.8V59.5h2.8v2.4c.6-1.8 1.7-2.7 3.2-2.7.5 0 .9.1 1.1.2l.1 2.8zm2.8-5.5c-.5 0-.9-.2-1.2-.5-.3-.3-.5-.7-.5-1.2s.2-.9.5-1.2c.3-.3.7-.5 1.2-.5s.9.2 1.2.5c.3.3.5.7.5 1.2s-.2.8-.5 1.2c-.3.3-.7.5-1.2.5zM109.7 72V59.5h2.8V72h-2.8zm13.5 0v-7c0-2.3-.8-3.5-2.5-3.5-.8 0-1.5.3-2.1 1-.6.6-.8 1.4-.8 2.4V72H115V59.5h2.8v2c.9-1.5 2.3-2.3 4.1-2.3 2.8 0 4.2 1.7 4.2 5.1V72h-2.9zM11.1 49.9c-.9 0-1.7.5-2.1 1.2L2.3 62.8c-.4.7-.4 1.7 0 2.5L9 76.9c.4.7 1.3 1.2 2.1 1.2h13.4c.9 0 1.7-.5 2.1-1.2l6.7-11.7c.4-.7.4-1.7 0-2.5L26.6 51c-.4-.7-1.3-1.2-2.1-1.2H11.1zm.2 6.8h2.4c.1 0 .2.1.3.2l3.9 7v0l3.9-7c.1-.1.2-.2.3-.2h2.3c.2 0 .4.3.3.4L20.8 64l3.8 6.9c.1.2-.1.5-.3.5H22c-.1 0-.2-.1-.3-.2l-3.9-7v-.1.1l-3.9 7c0 .1-.1.2-.3.2h-2.3c-.2 0-.4-.3-.3-.5l3.8-6.9-3.8-6.9c0-.1.1-.4.3-.4z"/></svg>
