<svg xmlns="http://www.w3.org/2000/svg" viewBox="0 0 128 128"><path fill="#e03875" d="M116.407 42.787a5.255 5.255 0 0 1-3.723-8.964 5.249 5.249 0 0 1 5.73-1.136 5.253 5.253 0 0 1-2.007 10.1zm-9.874 18.237a5.24 5.24 0 0 1-5.14-5.243 5.24 5.24 0 0 1 5.14-5.242 5.24 5.24 0 0 1 5.137 5.242 5.24 5.24 0 0 1-5.137 5.243zm15.642-.607a5.246 5.246 0 0 1-5.246-5.242 5.244 5.244 0 1 1 10.489 0 5.267 5.267 0 0 1-5.243 5.242zm-15.642 17.044a5.252 5.252 0 0 1-4.86-3.24 5.249 5.249 0 0 1 6.862-6.862 5.252 5.252 0 0 1-2.002 10.1zm15.642.594a5.242 5.242 0 0 1-5.282-5.198 5.24 5.24 0 1 1 10.48-.084 5.26 5.26 0 0 1-5.198 5.282zM64.2 77.851c-7.656 0-13.863-6.207-13.859-13.863 0-7.656 6.212-13.864 13.867-13.86 7.656.005 13.86 6.216 13.852 13.872-.012 7.648-6.211 13.844-13.859 13.852zm51.912 18.132a5.242 5.242 0 0 1-5.235-5.245 5.242 5.242 0 0 1 10.485.004 5.25 5.25 0 0 1-5.25 5.242zM64.603 128c-28.641.008-53.8-19.01-61.599-46.566C-4.799 53.879 6.658 24.49 31.05 9.487 55.442-5.517 86.837-2.49 107.912 16.9L92.777 32.787C75.952 17.602 50.12 18.484 34.37 34.78c-15.747 16.297-15.747 42.14 0 58.438 15.75 16.297 41.582 17.178 58.407 1.995l15.135 15.886a63.863 63.863 0 0 1-43.31 16.9zm0 0"/></svg>
