<svg xmlns="http://www.w3.org/2000/svg" viewBox="0 0 128 128"><path d="M94.271 25.72a3.16 3.16 0 0 1-2.924-1.946 3.156 3.156 0 0 1 .687-3.44 3.147 3.147 0 0 1 3.44-.683 3.151 3.151 0 0 1 1.946 2.92 3.151 3.151 0 0 1-3.149 3.149zm-5.939 10.964a3.154 3.154 0 0 1-3.151-3.152 3.154 3.154 0 0 1 3.151-3.153 3.154 3.154 0 0 1 3.154 3.152 3.154 3.154 0 0 1-3.153 3.153zm9.404-.367a3.151 3.151 0 1 1 0-6.3 3.151 3.151 0 0 1 3.152 3.151 3.162 3.162 0 0 1-3.152 3.15zm-9.404 10.247a3.16 3.16 0 0 1-2.92-1.95 3.155 3.155 0 0 1 4.124-4.122 3.155 3.155 0 0 1 1.95 2.92 3.159 3.159 0 0 1-3.153 3.152zm9.404.36a3.157 3.157 0 0 1-3.177-3.13 3.151 3.151 0 1 1 6.301-.047 3.166 3.166 0 0 1-3.125 3.176zm-34.848-.127a8.33 8.33 0 0 1-8.333-8.333 8.33 8.33 0 0 1 8.336-8.33c4.6 0 8.33 3.737 8.326 8.338a8.331 8.331 0 0 1-8.333 8.325zM94.09 57.7a3.151 3.151 0 0 1-3.145-3.156 3.151 3.151 0 1 1 6.301.004 3.155 3.155 0 0 1-3.156 3.151zM63.128 76.941c-17.215.008-32.339-11.426-37.03-27.99-4.688-16.564 2.197-34.224 16.86-43.248 14.662-9.02 33.535-7.201 46.203 4.454l-9.099 9.553c-10.112-9.127-25.642-8.597-35.107 1.2-9.467 9.792-9.467 25.33 0 35.127 9.464 9.794 24.995 10.327 35.107 1.196l9.1 9.553a38.372 38.372 0 0 1-26.034 10.156Zm-35.342 24.2v-2.99h-2.71v2.99h-1.394v-7.174h1.394v3.015h2.71v-3.01h1.394v7.176zm6.515 0h-1.086l-.098-.351a3.05 3.05 0 0 1-1.61.457c-.982 0-1.404-.619-1.404-1.542 0-1.054.477-1.457 1.57-1.457h1.294v-.544c0-.568-.162-.773-1.025-.773a7.57 7.57 0 0 0-1.492.162l-.17-.99a7.398 7.398 0 0 1 1.859-.25c1.697 0 2.198.576 2.198 1.859zm-1.357-1.957h-.971c-.442 0-.565.118-.565.517 0 .394.123.516.546.516a2.169 2.169 0 0 0 1.013-.264zm4.186 2.06a6.465 6.465 0 0 1-1.859-.297l.194-.99c.521.15 1.06.225 1.602.229.62 0 .687-.13.687-.526 0-.394-.068-.476-.94-.677-1.322-.305-1.475-.62-1.475-1.627 0-1.002.477-1.503 2.02-1.503a7.655 7.655 0 0 1 1.614.186l-.134 1.03a9.795 9.795 0 0 0-1.48-.151c-.62 0-.687.131-.687.446 0 .415 0 .447.762.62 1.504.382 1.653.568 1.653 1.634 0 1.065-.303 1.63-1.933 1.63zm6.191-.103v-3.616c0-.28-.127-.414-.434-.414-.494.051-.97.202-1.405.438v3.591h-1.313v-7.256l1.348.205v2.272a4.96 4.96 0 0 1 1.97-.5c.895 0 1.238.619 1.238 1.535v3.751zm2.474-5.911v-1.24h1.35v1.24zm0 5.911v-5.177h1.35v5.177zm2.426-5.137c0-1.295.785-2.049 2.625-2.049a8.838 8.838 0 0 1 2.008.233l-.158 1.156a11.538 11.538 0 0 0-1.808-.178c-.959 0-1.274.317-1.274 1.071v2.725c0 .754.315 1.07 1.275 1.07.607-.012 1.211-.07 1.807-.178l.158 1.164a8.834 8.834 0 0 1-2.008.23c-1.855 0-2.625-.758-2.625-2.052zm7.615 5.24c-1.858 0-2.347-.976-2.347-2.033v-1.313c0-1.066.497-2.045 2.347-2.045s2.344.979 2.344 2.045v1.313c.032 1.057-.465 2.036-2.316 2.036zm0-4.282c-.718 0-.998.308-.998.892v1.393c0 .62.28.895.998.895s.994-.307.994-.895v-1.394c.052-.584-.248-.871-.966-.871zm6.152.087a11.03 11.03 0 0 0-1.394.754v3.338h-1.357v-5.177h1.142l.086.572a6.333 6.333 0 0 1 1.416-.683zm5.417 2.37c0 1.145-.532 1.828-1.784 1.828a7.648 7.648 0 0 1-1.435-.15v2.119l-1.354.202v-7.426h1.073l.131.43a2.951 2.951 0 0 1 1.707-.546c1.086 0 1.662.62 1.662 1.805zm-3.22.582c.395.087.794.133 1.196.141.49 0 .675-.221.675-.69v-1.858c0-.427-.17-.663-.663-.663a1.927 1.927 0 0 0-1.24.469zm36.458 27.678v-21.926l3.903-.545v22.467zm-12.558-15.57v10.871c0 .837.354 1.239 1.238 1.239a10.804 10.804 0 0 0 4.08-1.302v-10.808h3.899v15.566H94.33l-.383-1.306a15.586 15.586 0 0 1-6.233 1.63c-2.589 0-3.515-1.819-3.515-4.605V112.11zM76.003 128a18.283 18.283 0 0 1-5.374-.896l.545-2.971c1.51.43 3.07.66 4.636.675 1.727 0 1.98-.387 1.98-1.566 0-.96-.19-1.445-2.714-2.053-3.804-.927-4.254-1.885-4.254-4.888 0-3.133 1.381-4.505 5.816-4.505 1.574 0 3.142.184 4.672.543l-.387 3.098a26.445 26.445 0 0 0-4.28-.455c-1.694 0-1.981.384-1.981 1.343 0 1.238.098 1.345 2.209 1.889 4.333 1.152 4.758 1.729 4.758 4.92.012 3.015-.927 4.865-5.626 4.865zm-11.924-.324V116.79c0-.836-.352-1.239-1.236-1.239a10.707 10.707 0 0 0-4.06 1.313v10.8h-3.901v-15.552h2.97l.383 1.313a15.603 15.603 0 0 1 6.235-1.63c2.588 0 3.515 1.82 3.515 4.602v11.28zm-18.631.323c-5.344 0-6.806-2.939-6.806-6.135v-3.933c0-3.196 1.43-6.136 6.806-6.136 5.373 0 6.774 2.939 6.774 6.136v3.933c0 3.196-1.44 6.135-6.774 6.135zm0-12.882c-2.08 0-2.877.931-2.877 2.687v4.186c0 1.756.798 2.687 2.877 2.687 2.078 0 2.872-.931 2.872-2.687v-4.185c0-1.757-.798-2.687-2.872-2.687zm-21.994-2.876c0-3.899 2.266-6.192 7.576-6.192 1.95 0 3.89.237 5.784.707l-.445 3.485a31.27 31.27 0 0 0-5.212-.545c-2.783 0-3.678.96-3.678 3.232v8.195c0 2.264.895 3.223 3.677 3.223a31.598 31.598 0 0 0 5.212-.536l.446 3.48a24.03 24.03 0 0 1-5.784.706c-5.31 0-7.576-2.272-7.576-6.191zm0 0"/></svg>
