<svg xmlns="http://www.w3.org/2000/svg" viewBox="0 0 128 128"><path d="M28.148 100.77v-2.961h-2.683v2.96h-1.38v-7.101h1.38v2.984h2.683v-2.98h1.38v7.105Zm6.45 0h-1.075l-.097-.348a3.019 3.019 0 0 1-1.594.453c-.973 0-1.39-.613-1.39-1.527 0-1.043.472-1.442 1.554-1.442h1.281v-.539c0-.562-.16-.765-1.015-.765a7.495 7.495 0 0 0-1.477.16l-.168-.98a7.324 7.324 0 0 1 1.84-.247c1.68 0 2.176.57 2.176 1.84Zm-1.344-1.938h-.961c-.438 0-.559.117-.559.512 0 .39.121.511.54.511a2.147 2.147 0 0 0 1.003-.261Zm4.144 2.04a6.4 6.4 0 0 1-1.84-.294l.192-.98c.516.148 1.05.222 1.586.226.613 0 .68-.129.68-.52 0-.39-.067-.472-.93-.671-1.309-.301-1.461-.613-1.461-1.61 0-.992.473-1.488 2-1.488.54.004 1.074.067 1.598.184l-.133 1.02a9.697 9.697 0 0 0-1.465-.15c-.613 0-.68.13-.68.442 0 .41 0 .442.754.614 1.489.378 1.637.562 1.637 1.617 0 1.054-.3 1.613-1.914 1.613Zm6.13-.102v-3.58c0-.277-.126-.41-.43-.41-.489.051-.961.2-1.391.434v3.555h-1.3v-7.184l1.335.203v2.25a4.91 4.91 0 0 1 1.95-.496c.886 0 1.226.613 1.226 1.52v3.714Zm2.449-5.852v-1.227h1.336v1.227Zm0 5.852v-5.125h1.336v5.125Zm2.402-5.086c0-1.282.777-2.028 2.598-2.028a8.75 8.75 0 0 1 1.988.23l-.156 1.145a11.423 11.423 0 0 0-1.79-.176c-.949 0-1.261.313-1.261 1.06v2.698c0 .746.312 1.059 1.262 1.059.601-.012 1.199-.07 1.789-.176l.156 1.152a8.746 8.746 0 0 1-1.988.227c-1.836 0-2.598-.75-2.598-2.031Zm7.539 5.187c-1.84 0-2.324-.965-2.324-2.012v-1.3c0-1.055.492-2.024 2.324-2.024 1.832 0 2.32.969 2.32 2.024v1.3c.032 1.047-.46 2.016-2.293 2.016Zm0-4.238c-.711 0-.988.305-.988.883v1.379c0 .613.277.886.988.886.71 0 .984-.304.984-.886v-1.38c.051-.578-.246-.863-.957-.863Zm6.09.086a10.92 10.92 0 0 0-1.38.746v3.305h-1.343v-5.125h1.13l.085.566a6.27 6.27 0 0 1 1.402-.676Zm5.363 2.347c0 1.133-.527 1.809-1.766 1.809a7.572 7.572 0 0 1-1.421-.148v2.097l-1.34.2v-7.352h1.062l.13.426a2.922 2.922 0 0 1 1.69-.54c1.075 0 1.645.614 1.645 1.786Zm-3.187.575c.39.086.785.132 1.183.14.485 0 .668-.219.668-.683v-1.84c0-.422-.168-.656-.656-.656-.45.003-.887.171-1.227.464Zm36.093 27.402v-21.707l3.864-.54v22.243Zm-12.433-15.414v10.762c0 .828.351 1.226 1.226 1.226a10.696 10.696 0 0 0 4.04-1.289v-10.7h3.859v15.411h-2.942l-.379-1.293a15.43 15.43 0 0 1-6.171 1.613c-2.563 0-3.48-1.8-3.48-4.558v-11.172Zm-11.961 15.73a18.1 18.1 0 0 1-5.32-.886l.539-2.942c1.496.426 3.039.653 4.59.668 1.71 0 1.96-.383 1.96-1.55 0-.95-.187-1.43-2.687-2.032-3.766-.918-4.211-1.867-4.211-4.84 0-3.101 1.367-4.46 5.758-4.46 1.558 0 3.11.183 4.625.538l-.383 3.067a26.181 26.181 0 0 0-4.238-.45c-1.676 0-1.961.38-1.961 1.329 0 1.226.097 1.332 2.187 1.87 4.29 1.141 4.711 1.712 4.711 4.872.012 2.984-.918 4.816-5.57 4.816Zm-11.805-.32v-10.777c0-.828-.348-1.227-1.223-1.227a10.6 10.6 0 0 0-4.02 1.3v10.692h-3.862V111.63h2.941l.379 1.3a15.447 15.447 0 0 1 6.172-1.613c2.562 0 3.48 1.801 3.48 4.555v11.168Zm-18.445.32c-5.29 0-6.738-2.91-6.738-6.074v-3.894c0-3.164 1.417-6.075 6.738-6.075 5.32 0 6.707 2.91 6.707 6.075v3.894c0 3.164-1.426 6.074-6.707 6.074Zm0-12.754c-2.059 0-2.848.922-2.848 2.66v4.145c0 1.738.79 2.66 2.848 2.66s2.844-.922 2.844-2.66v-4.144c0-1.739-.79-2.66-2.844-2.66Zm-21.774-2.847c0-3.86 2.243-6.13 7.5-6.13 1.93 0 3.852.235 5.727.7l-.441 3.45a30.958 30.958 0 0 0-5.16-.54c-2.755 0-3.641.95-3.641 3.2v8.113c0 2.242.886 3.191 3.64 3.191 1.73-.035 3.457-.21 5.16-.531l.442 3.445a23.79 23.79 0 0 1-5.727.7c-5.257 0-7.5-2.25-7.5-6.13Zm0 0"/><path fill="#e03875" d="M93.969 26.102a3.129 3.129 0 0 1-2.895-1.926 3.124 3.124 0 0 1 .68-3.406 3.116 3.116 0 0 1 3.406-.676 3.12 3.12 0 0 1 1.926 2.89 3.12 3.12 0 0 1-3.117 3.118Zm-5.88 10.855a3.122 3.122 0 0 1-3.12-3.121 3.122 3.122 0 0 1 3.12-3.121 3.122 3.122 0 0 1 3.122 3.12 3.122 3.122 0 0 1-3.121 3.122Zm9.31-.363a3.12 3.12 0 1 1 0-6.238 3.12 3.12 0 0 1 3.12 3.12 3.13 3.13 0 0 1-3.12 3.118Zm-9.31 10.144a3.129 3.129 0 0 1-2.89-1.93 3.123 3.123 0 0 1 4.082-4.081 3.123 3.123 0 0 1 1.93 2.89 3.127 3.127 0 0 1-3.121 3.121Zm9.31.356a3.125 3.125 0 0 1-3.145-3.098 3.12 3.12 0 1 1 6.238-.047 3.134 3.134 0 0 1-3.094 3.145Zm-34.5-.125a8.247 8.247 0 0 1-8.25-8.25 8.247 8.247 0 0 1 8.253-8.246c4.555 0 8.246 3.699 8.243 8.254a8.248 8.248 0 0 1-8.25 8.242Zm30.89 10.793a3.12 3.12 0 0 1-3.113-3.125 3.12 3.12 0 1 1 6.238.004 3.123 3.123 0 0 1-3.125 3.12Zm-30.652 19.05c-17.043.008-32.016-11.312-36.66-27.71-4.641-16.399 2.175-33.883 16.691-42.817 14.516-8.93 33.2-7.129 45.742 4.41l-9.008 9.457c-10.011-9.035-25.386-8.511-34.757 1.188-9.372 9.695-9.372 25.078 0 34.777 9.37 9.696 24.746 10.223 34.757 1.184l9.008 9.457a37.989 37.989 0 0 1-25.773 10.055Zm0 0"/></svg>