<svg xmlns="http://www.w3.org/2000/svg" viewBox="0 0 128 128"><path fill="#009f76" d="M64 1.267c-.577 0-1.155.128-1.688.386L14.105 24.96a3.9 3.9 0 0 0-2.102 2.644L.097 79.97v.002a3.9 3.9 0 0 0 .75 3.297l33.358 41.994a3.89 3.89 0 0 0 3.043 1.471h53.504a3.89 3.89 0 0 0 3.043-1.47l33.358-41.995a3.9 3.9 0 0 0 .75-3.297l-11.906-52.366v-.002a3.9 3.9 0 0 0-2.102-2.644L65.689 1.653A3.9 3.9 0 0 0 64 1.267m0 1.969c.285 0 .567.063.83.19l48.207 23.306c.528.255.91.733 1.04 1.308l11.906 52.368a1.94 1.94 0 0 1-.373 1.636L92.252 124.04c-.365.46-.916.725-1.5.725H37.248a1.91 1.91 0 0 1-1.5-.725L2.39 82.044a1.94 1.94 0 0 1-.373-1.636v-.002l11.905-52.364a1.93 1.93 0 0 1 1.04-1.31L63.17 3.426a1.9 1.9 0 0 1 .831-.19zm17.835 31.942-.994.597-19.806 11.898-17.078-11.081-.444 1.115a5.4 5.4 0 0 0-.38 1.987v16.16l-9.172-5.116-.456.939a5.4 5.4 0 0 0-.538 2.344v29.94c0 .688.328 1.273.573 1.887l-.294.148.613.927c.07.107.11.152.106.145v.002q.08.113.18.242.134.164.255.292.062.07.178.187c.122.119.239.217.34.302.014.01.065.058.162.132.17.13.353.258.556.375l25.827 14.97a5.33 5.33 0 0 0 5.345 0L92.637 88.6c.27-.156.5-.33.706-.498.083-.068.147-.129.198-.175a5 5 0 0 0 .438-.448c.024-.027.08-.085.158-.183.17-.213.331-.445.475-.7.065-.115.077-.153.052-.105q.178-.332.306-.68c-.038.103-.017.071.042-.101l.28-.816-.136-.069c.05-.288.148-.56.148-.863V54.02c0-.678-.126-1.342-.367-1.958l-.415-1.061-11.878 6.796V38.24c0-.69-.133-1.363-.38-1.985zm-1.171 3.002c0 .021.011.04.011.06v20.264q-.001.421-.104.827l-.561 2.242 13.313-7.617c0 .022.012.042.012.065v29.94c0 .373-.068.74-.192 1.103l-.023.067v.002a4 4 0 0 1-.19.43q-.084.157-.033.068a3.4 3.4 0 0 1-.302.442l-.1.114a3.4 3.4 0 0 1-.402.392 3.4 3.4 0 0 1-.445.318L65.82 101.866a3.35 3.35 0 0 1-3.367 0l-25.827-14.97a3 3 0 0 1-.352-.236 1 1 0 0 0-.1-.087 4 4 0 0 1-.216-.188l-.002-.002-.11-.117a4 4 0 0 1-.16-.185l-.093-.123-.083-.125a3.4 3.4 0 0 1-.573-1.871V54.02c0-.152.079-.283.098-.43l10.068 5.615V39.694l.002-.012 15.892 10.314z"/></svg>
