<svg viewBox="0 0 128 128" xmlns="http://www.w3.org/2000/svg"><path d="M67.132 57.89v-2.53h4.127v12.113c0 1.472.352 2.032 1.265 2.032.249 0 .56-.041.85-.062v3.34c-.456.165-1.14.269-2.032.269-.996 0-1.784-.166-2.406-.56-.767-.519-1.244-1.203-1.41-2.095-1.203 1.825-3.194 2.717-5.953 2.717-2.447 0-4.5-.85-6.201-2.613-1.66-1.763-2.489-3.9-2.489-6.471 0-2.572.83-4.708 2.489-6.43 1.68-1.762 3.754-2.613 6.201-2.613 2.82 0 4.916 1.245 5.559 2.904zm-1.224 9.935c1.037-.995 1.555-2.281 1.555-3.795 0-1.514-.518-2.78-1.555-3.795-.996-.996-2.282-1.515-3.754-1.515-1.473 0-2.676.519-3.692 1.515-.954.995-1.452 2.28-1.452 3.795 0 1.514.477 2.78 1.452 3.795.996.996 2.199 1.514 3.692 1.514 1.472 0 2.758-.518 3.754-1.514zm9.291 4.895V48.724h4.107v14.02l6.409-7.363h4.729l-6.783 7.757 7.508 9.603h-4.687l-5.475-6.99-1.722 1.93v5.04Zm17.07 0V48.724h4.106v14.02l6.409-7.363h4.75l-6.783 7.757 7.508 9.603h-4.687l-5.475-6.99-1.722 1.93v5.04Zm28.434-14.83v-2.53h4.128v12.113c0 1.472.352 2.032 1.265 2.032.249 0 .56-.041.85-.062v3.34c-.456.165-1.14.269-2.032.269-.996 0-1.784-.166-2.406-.56-.768-.519-1.245-1.203-1.41-2.095-1.203 1.825-3.194 2.717-5.953 2.717-2.447 0-4.5-.85-6.201-2.613-1.66-1.763-2.489-3.9-2.489-6.471 0-2.572.83-4.708 2.489-6.43 1.68-1.762 3.754-2.613 6.201-2.613 2.8 0 4.895 1.245 5.558 2.904zm-1.244 9.935c1.037-.995 1.556-2.281 1.556-3.795 0-1.514-.519-2.78-1.556-3.795-.995-.996-2.281-1.515-3.754-1.515-1.472 0-2.675.519-3.692 1.515-.954.995-1.451 2.28-1.451 3.795 0 1.514.477 2.78 1.451 3.795.996.996 2.199 1.514 3.692 1.514 1.473 0 2.759-.518 3.754-1.514zm-77.07 12.32c7.445 5.953 12.215-11.822.352-15.099-9.955-2.758-19.973 1.97-30.011 13.004 0 0 18.542-6.782 29.658 2.095zm-29.493-2.24c7.135-7.404 18.998-15.659 30.052-12.61 2.572.726 4.397 2.22 5.58 4.003L38.075 48.205c-1.494-2.385-5.31-1.887-7.467-.062L2.982 71.289c-2.51 2.157-2.655 5.994-.332 8.317a5.661 5.661 0 0 0 7.57.415z"/></svg>
