<svg viewBox="0 0 128 128" xmlns="http://www.w3.org/2000/svg"><path d="M113.067 51.2v10.667H102.4v4.266h10.667V76.8h4.266V66.133H128v-4.266h-10.667V51.2zm-51.2 51.2v10.667H51.2v4.266h10.667V128h4.266v-10.667H76.8v-4.266H66.133V102.4z" fill="#5c6bc0" fill-rule="evenodd"/><path d="M61.867 0v10.667H51.2v4.266h10.667V25.6h4.266V14.933H76.8v-4.266H66.133V0zm-51.2 51.2v10.667H0v4.266h10.667V76.8h4.266V66.133H25.6v-4.266H14.933V51.2z" fill="#78909c"/><path d="M28.442 14.22v17.067H11.375v5.688h17.067v17.067h5.69V36.975h17.066v-5.688H34.13V14.221z" fill="#ffa000"/><path d="M93.867 14.22v17.067H76.8v5.688h17.067v17.067h5.687V36.975h17.067v-5.688H99.554V14.221z" fill="#607d8b"/><path d="M28.442 73.954v17.067H11.375v5.687h17.067v17.067h5.69V96.708h17.066v-5.687H34.13V73.954z" fill="#c62828"/><path d="M93.867 73.954v17.067H76.8v5.687h17.067v17.067h5.687V96.708h17.067v-5.687H99.554V73.954z" fill="#0d47a1"/><path d="M59.733 39.82v19.913H39.821v8.534h19.912v19.908h8.534V68.267h19.908v-8.534H68.267V39.821z" fill="#e8762d"/></svg>
