<svg xmlns="http://www.w3.org/2000/svg" viewBox="0 0 128 128"><path d="M60.16 0v11.52H49.92v5.12h10.24v11.52h5.12V16.64h10.24v-5.12H65.28V0h-5.12Zm-32 12.8v15.36H12.8v5.12h15.36v15.36h5.12V33.28h15.36v-5.12H33.28V12.8h-5.12Zm64 0v15.36H76.8v5.12h15.36v15.36h5.12V33.28h15.36v-5.12H97.28V12.8h-5.12ZM58.88 40.96v17.92H40.96v7.68h17.92v17.92h7.68V66.56h17.92v-7.68H66.56V40.96h-7.68ZM12.8 48.64v11.52H2.56v5.12H12.8V76.8h5.12V65.28h10.24v-5.12H17.92V48.64H12.8Zm97.28 0v11.52H99.84v5.12h10.24V76.8h5.12V65.28h10.24v-5.12H115.2V48.64h-5.12Zm-81.92 25.6V89.6H12.8v5.12h15.36v15.36h5.12V94.72h15.36V89.6H33.28V74.24h-5.12Zm64 0V89.6H76.8v5.12h15.36v15.36h5.12V94.72h15.36V89.6H97.28V74.24h-5.12Zm-32 23.04v11.52H49.92v5.12h10.24v11.52h5.12v-11.52h10.24v-5.12H65.28V97.28h-5.12Z"/></svg>