<svg viewBox="0 0 128 128" xmlns="http://www.w3.org/2000/svg"><path d="M13.41 50.498V53h-2.254v.815h2.254v2.496h.879v-2.496h2.31V53h-2.31v-2.502zM2.25 61.038v2.446H0v.868h2.25v2.445h.881v-2.445l2.31-.082v-.786H3.13V61.04z" fill="#7099a6"/><path fill="#eb912c" d="M6.045 54.926v1.819h-3.41v1.14h3.41v3.695H7.31v-3.694h3.462v-1.141H7.31v-3.638H6.044v1.819z"/><path fill="#59879b" d="M20.338 54.926v1.819h-3.41v1.197h3.41v3.638h1.315v-3.638h3.41v-1.197h-3.41v-3.638h-1.316v1.819z"/><path d="M82.56 55.929v15.49h1.756v-15.49zm-14.543 1.63l.02 5.886c.01 3.235.036 5.895.056 5.915.02.021.246.102.502.172a21.095 21.095 0 00.938.236c.378.081.691.101 1.649.096 1.014-.005 1.238-.02 1.592-.117.225-.06.599-.194.824-.3a4.538 4.538 0 00.762-.454 3.644 3.644 0 00.601-.59c.138-.18.333-.5.43-.71a4.746 4.746 0 00.266-.732c.05-.194.108-.657.123-1.03.02-.498.004-.816-.057-1.183a5.624 5.624 0 00-.246-.896 4.557 4.557 0 00-.424-.8 4.035 4.035 0 00-.574-.667 4.338 4.338 0 00-.8-.504 4.055 4.055 0 00-.962-.333c-.348-.066-.624-.08-1.096-.06a5.83 5.83 0 00-1.127.168c-.271.076-.538.148-.594.168-.087.025-.096-.095-.096-2.114v-2.15zm-29.102.546v4.942h-4.727v1.63h4.727v5.326h1.756v-5.325H45.4v-1.631H40.67v-4.942zm18.855 3.313v.273c0 .148-.011.272-.016.272-.005.005-.173-.073-.367-.159a4.3 4.3 0 00-.745-.25 5.63 5.63 0 00-.896-.082c-.276 0-.685.037-.905.078a4.81 4.81 0 00-.728.208 4.46 4.46 0 00-.66.347 4.65 4.65 0 00-.651.57 4.29 4.29 0 00-.527.755 5.49 5.49 0 00-.338.814c-.087.305-.122.607-.147 1.223-.02.642-.006.912.067 1.28a5.595 5.595 0 00.23.783 4.709 4.709 0 00.367.678 4.082 4.082 0 00.559.642 4.507 4.507 0 00.824.536 6.363 6.363 0 00.938.355c.343.087.655.119 1.428.139.834.02 1.096.01 1.674-.086.379-.067.886-.18 1.127-.25l.44-.133c.062-1.203.082-3 .082-4.774v-3.22zm54.362 0v.273c0 .148-.007.272-.017.272-.005.005-.173-.072-.367-.159a4.581 4.581 0 00-.774-.254c-.303-.062-.583-.082-1.07-.062a6.31 6.31 0 00-.989.117c-.184.05-.511.184-.736.291a3.74 3.74 0 00-.795.555c-.21.194-.486.525-.614.734a4.12 4.12 0 00-.375.79 6.12 6.12 0 00-.205.785c-.04.239-.056.677-.04 1.172.025.616.056.88.163 1.22a4.933 4.933 0 00.328.786 4.359 4.359 0 00.493.672 4.288 4.288 0 00.71.586 4.252 4.252 0 00.907.424 8.571 8.571 0 00.85.219c.195.03.734.056 1.2.056a8.027 8.027 0 001.478-.113c.359-.056.845-.168 1.086-.238l.442-.133c.066-1.961.082-3.761.082-5.264v-2.73zm-16.49.082a4.67 4.67 0 00-1.002.056 4.93 4.93 0 00-.826.244c-.22.092-.574.29-.784.448-.21.157-.5.434-.65.611a4.99 4.99 0 00-.48.76 5.389 5.389 0 00-.329.871 5.799 5.799 0 00-.143.954 5.138 5.138 0 00.03.978 5.779 5.779 0 00.205.864 4.437 4.437 0 00.375.79 4.51 4.51 0 00.65.76 4.646 4.646 0 00.79.58 5.067 5.067 0 00.869.343 8.093 8.093 0 001.127.203 5.59 5.59 0 001.238 0 8.598 8.598 0 001.086-.198 7.063 7.063 0 00.784-.275l.303-.139c0-1.32-.022-1.629-.06-1.629-.03 0-.147.05-.259.106a4.946 4.946 0 01-.562.215 7.716 7.716 0 01-.85.197 8.561 8.561 0 01-1.159.082c-.368 0-.778-.036-.931-.076a3.462 3.462 0 01-.524-.194 3.82 3.82 0 01-.414-.25 2.405 2.405 0 01-.68-1.027 5.37 5.37 0 01-.133-.532l-.037-.203h6.075c-.057-.989-.13-1.473-.191-1.713a5.243 5.243 0 00-.297-.814 5.014 5.014 0 00-.424-.698 3.54 3.54 0 00-.574-.566 3.91 3.91 0 00-1.315-.637 5.888 5.888 0 00-.908-.111zm25.056.136l.022 2.952c.015 2.776.019 2.965.127 3.27a3.53 3.53 0 00.28.596 3.4 3.4 0 00.386.474 3.702 3.702 0 00.537.397 4.536 4.536 0 00.773.332 4.337 4.337 0 00.989.172c.302.02.793.02 1.1.006a4.67 4.67 0 00.988-.178 4.44 4.44 0 00.768-.332 3.4 3.4 0 00.539-.397 2.962 2.962 0 00.383-.474 3.22 3.22 0 00.287-.596c.102-.31.108-.479.113-3.27l.01-2.952h-1.797c0 5.304-.005 5.483-.107 5.814a1.857 1.857 0 01-.291.566 1.636 1.636 0 01-.458.336 2.558 2.558 0 01-.629.178c-.21.03-.506.03-.716 0a2.619 2.619 0 01-.631-.178 1.64 1.64 0 01-.456-.336 1.95 1.95 0 01-.29-.566c-.104-.331-.108-.51-.108-3.083l.004-2.73zm-10.33 1.471a3.01 3.01 0 01.688.078c.185.046.492.164 1.045.444l-.015 2.225c-.016 1.574-.042 2.233-.088 2.258-.031.02-.241.066-.461.096-.215.03-.65.056-.957.056-.364 0-.677-.03-.866-.086a3.226 3.226 0 01-.553-.215 2.172 2.172 0 01-.498-.386 2.636 2.636 0 01-.373-.495 3.042 3.042 0 01-.2-.57 4.059 4.059 0 01-.081-.799 4.058 4.058 0 01.082-.8 3.278 3.278 0 01.22-.612 2.65 2.65 0 01.348-.504 2.27 2.27 0 01.483-.377 3.115 3.115 0 01.572-.23 3.3 3.3 0 01.655-.083zm-38.886.002a2.897 2.897 0 01.713.08 2.485 2.485 0 01.579.23 2.496 2.496 0 01.455.347 2.554 2.554 0 01.394.601 2.774 2.774 0 01.256.856c.052.346.052.57.006.896a3.75 3.75 0 01-.186.76 2.394 2.394 0 01-.29.54 2.57 2.57 0 01-.39.382c-.116.096-.367.23-.546.301-.272.102-.457.127-1.02.143-.574.015-.76 0-1.62-.225v-4.518l.41-.145a6.506 6.506 0 01.636-.193 4.29 4.29 0 01.603-.055zm-15.336.014c.271.01.62.061.77.117.153.051.403.163.854.408l-.036 2.212c-.026 1.518-.057 2.227-.097 2.252-.036.02-.262.066-.502.102a7.191 7.191 0 01-1.096.04c-.528-.025-.733-.056-.989-.158-.21-.082-.45-.24-.654-.427a2.139 2.139 0 01-.477-.628 3.263 3.263 0 01-.216-.652 5.388 5.388 0 01-.055-.732c0-.225.036-.562.082-.745a3.3 3.3 0 01.219-.611 2.398 2.398 0 01.35-.504 2.29 2.29 0 01.48-.377c.148-.082.404-.185.568-.23.21-.062.461-.083.8-.067zm39.578.002a3.406 3.406 0 01.686.133 1.323 1.323 0 01.517.346 2.014 2.014 0 01.297.421c.041.108.093.308.149.71h-1.965c-1.277 0-1.968-.021-1.968-.057 0-.03.061-.169.133-.31a3.07 3.07 0 01.35-.505 2.764 2.764 0 01.516-.418c.164-.096.43-.212.593-.26.195-.05.446-.07.692-.06zM20.337 66.2v1.82h.002v1.819h-3.411v1.14h3.41v3.696h1.315V70.98h3.41v-1.138h-3.41V66.2z" fill="#1f447e"/><path fill="#e8762c" d="M13.08 61.122v2.038H9.287v1.518h3.795v4.076h1.536v-4.076h3.795V63.16h-3.795v-4.077h-1.536z"/><path d="M24.24 60.877v2.553h-2.311v1.035h2.31v2.551h1.153v-2.551h2.309V63.43h-2.31v-2.553zM13.302 71.36V73.915h-2.31v1.034h2.31v2.553h1.151v-2.553h2.31v-1.034h-2.31V71.36z" fill="#5b6591"/><path fill="#c72035" d="M6.045 68.02v1.819h-3.41v1.197h3.41v3.638H7.36v-3.638h3.41v-1.197h-3.41V66.2H6.045z"/></svg>
