<?xml version="1.0" encoding="UTF-8"?><svg xmlns="http://www.w3.org/2000/svg" version="1.1" viewBox="0 0 63.9 63.9"><defs><style type="text/css"> .st0{fill:#5F5C5C;} .st1{fill:#76D275;} .st2{fill:#43A047;} .st3{fill:#00701A;} .st4{fill:#004300;} </style></defs><g><g id="Layer_1"><path class="st0" d="M0.1,63.5v-21h7.5c1.6,0,3.1,0.5,4.2,1.6c1.1,1.1,1.9,2.5,1.9,4.1c0,1.6-0.2,1.9-0.7,2.7 c-0.5,0.8-1.2,1.3-2.1,1.7l0,0c1,0.4,1.9,1.1,2.6,2c0.6,0.8,1,1.9,1,3c0,1.7-0.6,3.2-1.9,4.3s-2.8,1.7-4.4,1.6H0.1V63.5z M2.8,51.5 h4.9c1,0,1.9-0.3,2.5-1c0.6-0.7,0.9-1.4,0.9-2.3s-0.3-1.5-0.9-2.2c-0.6-0.6-1.3-1-2.4-1h-5v6.4l0,0V51.5z M2.8,60.9h5.4 c1,0,1.9-0.3,2.5-1c0.6-0.7,0.9-1.5,0.9-2.4c0-0.8-0.3-1.6-1-2.4c-0.7-0.7-1.6-1.1-2.6-1H2.6V61h0.2L2.8,60.9z M21.6,63.9 c-1.5,0-2.8-0.4-3.8-1.3c-1-0.9-1.5-2.1-1.5-3.5s0.6-2.8,1.9-3.7c1.2-0.9,2.7-1.3,4.5-1.3c1.9,0,2.9,0.3,3.9,0.9v-0.4 c0-1-0.3-2-1.1-2.6c-0.8-0.6-1.6-0.9-2.7-0.9s-1.4,0.2-2.2,0.6c-0.6,0.4-1.1,0.9-1.3,1.5l-2.5-1c0.3-0.8,1-1.6,2-2.4 c0.9-0.7,2.3-1.1,3.9-1.1s3.4,0.5,4.5,1.6c1.1,1.1,1.9,2.6,1.9,4.5v8.6h-2.6v-2l0,0c-1.1,1.6-2.7,2.5-4.7,2.5l0,0L21.6,63.9z M22,61.5c1.1,0,2.2-0.4,3-1.2c0.9-0.8,1.3-1.9,1.3-3c-0.7-0.6-2-0.9-3.4-0.9s-2.3,0.3-3,0.8s-1,1.2-1,2c0,0.7,0.3,1.2,0.9,1.6 c0.6,0.4,1.3,0.6,2.1,0.6l0,0L22,61.5z M31.6,63.5v-2.4l8.1-9.6h-7.9v-2.5h11.2v2.4L34.9,61h8.3v2.5H31.6L31.6,63.5z M51.9,63.9 c-2.2,0-3.9-0.7-5.2-2.2c-1.3-1.4-2.1-3.3-2.1-5.5c0-2.2,0.6-3.9,2-5.4c1.3-1.5,3-2.3,5-2.3c2.1,0,3.8,0.7,5.1,2.1 c1.2,1.4,2,3.2,2,5.6v0.5H47.4c0,1.4,0.6,2.6,1.4,3.4c0.9,0.8,2,1.2,3.1,1.2c2,0,3.3-0.8,3.9-2.5l2.4,1c-0.5,1.1-1.2,2.1-2.4,2.8 C54.8,63.5,53.5,63.9,51.9,63.9L51.9,63.9L51.9,63.9z M55.8,54.5c0-0.8-0.4-1.5-1.1-2.4C54,51.4,52.9,51,51.6,51S49.8,51.3,49,52 c-0.7,0.6-1.2,1.4-1.4,2.5h8.3l0,0L55.8,54.5z M63.9,63.5h-2.7v-21h2.7V63.5z"/><path class="st1" d="M21,0l10.6,10.6L21,21.2L10.4,10.6L21,0z"/><path class="st2" d="M10.4,10.6v10.6L21,31.9V21.2C21,21.2,10.4,10.6,10.4,10.6z"/><path class="st1" d="M42.3,0l10.6,10.6L42.3,21.2L31.6,10.6C31.6,10.6,42.3,0,42.3,0z"/><g><path class="st2" d="M52.9,10.6v10.6L42.3,31.9V21.2C42.3,21.2,52.9,10.6,52.9,10.6z"/><path class="st2" d="M31.6,10.6l10.6,10.6L31.6,31.9L21,21.2C21,21.2,31.6,10.6,31.6,10.6z"/></g><path class="st3" d="M31.6,31.9v10.6L21,31.9V21.2L31.6,31.9z"/><path class="st4" d="M31.6,31.9l10.6-10.6v10.6L31.6,42.5V31.9z"/></g></g></svg>
