<?xml version="1.0" encoding="UTF-8"?>
<svg xmlns="http://www.w3.org/2000/svg" xmlns:xlink="http://www.w3.org/1999/xlink" width="128px" height="128px" viewBox="0 0 128 128" version="1.1">
<defs>
<clipPath id="clip1">
  <path d="M 14 40 L 114 40 L 114 47 L 14 47 Z M 14 40 "/>
</clipPath>
<clipPath id="clip2">
  <path d="M 124.234375 21.835938 L 113.285156 41 L 110.203125 46.476562 L 102.8125 46.476562 L 93.363281 64.34375 C 96.777344 79.289062 88.449219 94.417969 73.992188 99.523438 L 64 117.664062 L 54.074219 99.523438 L 53.046875 99.183594 C 39.121094 93.703125 31.292969 78.863281 34.636719 64.273438 L 25.257812 46.476562 L 17.867188 46.476562 L 14.714844 41 L 3.765625 21.835938 L 35.25 21.835938 L 40.386719 32.035156 L 40.660156 32.171875 L 40.726562 32.035156 C 41.660156 19.910156 51.769531 10.546875 63.929688 10.546875 C 76.09375 10.546875 86.203125 19.910156 87.136719 32.035156 L 87 32.171875 L 86.929688 32.035156 L 92.75 21.835938 Z M 124.234375 21.835938 "/>
</clipPath>
<clipPath id="clip3">
  <path d="M 3 21 L 125 21 L 125 118 L 3 118 Z M 3 21 "/>
</clipPath>
<clipPath id="clip4">
  <path d="M 124.234375 21.835938 L 113.285156 41 L 110.203125 46.476562 L 102.8125 46.476562 L 93.363281 64.34375 C 96.777344 79.289062 88.449219 94.417969 73.992188 99.523438 L 64 117.664062 L 54.074219 99.523438 L 53.046875 99.183594 C 39.121094 93.703125 31.292969 78.863281 34.636719 64.273438 L 25.257812 46.476562 L 17.867188 46.476562 L 14.714844 41 L 3.765625 21.835938 L 35.25 21.835938 L 40.386719 32.035156 L 40.660156 32.171875 L 40.726562 32.035156 C 41.660156 19.910156 51.769531 10.546875 63.929688 10.546875 C 76.09375 10.546875 86.203125 19.910156 87.136719 32.035156 L 87 32.171875 L 86.929688 32.035156 L 92.75 21.835938 Z M 124.234375 21.835938 "/>
</clipPath>
<clipPath id="clip5">
  <path d="M 3 21 L 125 21 L 125 23 L 3 23 Z M 3 21 "/>
</clipPath>
<clipPath id="clip6">
  <path d="M 124.234375 21.835938 L 113.285156 41 L 110.203125 46.476562 L 102.8125 46.476562 L 93.363281 64.34375 C 96.777344 79.289062 88.449219 94.417969 73.992188 99.523438 L 64 117.664062 L 54.074219 99.523438 L 53.046875 99.183594 C 39.121094 93.703125 31.292969 78.863281 34.636719 64.273438 L 25.257812 46.476562 L 17.867188 46.476562 L 14.714844 41 L 3.765625 21.835938 L 35.25 21.835938 L 40.386719 32.035156 L 40.660156 32.171875 L 40.726562 32.035156 C 41.660156 19.910156 51.769531 10.546875 63.929688 10.546875 C 76.09375 10.546875 86.203125 19.910156 87.136719 32.035156 L 87 32.171875 L 86.929688 32.035156 L 92.75 21.835938 Z M 124.234375 21.835938 "/>
</clipPath>
<clipPath id="clip7">
  <path d="M 17 45 L 111 45 L 111 118 L 17 118 Z M 17 45 "/>
</clipPath>
<clipPath id="clip8">
  <path d="M 124.234375 21.835938 L 113.285156 41 L 110.203125 46.476562 L 102.8125 46.476562 L 93.363281 64.34375 C 96.777344 79.289062 88.449219 94.417969 73.992188 99.523438 L 64 117.664062 L 54.074219 99.523438 L 53.046875 99.183594 C 39.121094 93.703125 31.292969 78.863281 34.636719 64.273438 L 25.257812 46.476562 L 17.867188 46.476562 L 14.714844 41 L 3.765625 21.835938 L 35.25 21.835938 L 40.386719 32.035156 L 40.660156 32.171875 L 40.726562 32.035156 C 41.660156 19.910156 51.769531 10.546875 63.929688 10.546875 C 76.09375 10.546875 86.203125 19.910156 87.136719 32.035156 L 87 32.171875 L 86.929688 32.035156 L 92.75 21.835938 Z M 124.234375 21.835938 "/>
</clipPath>
<clipPath id="clip9">
  <path d="M 52 25 L 76 25 L 76 83 L 52 83 Z M 52 25 "/>
</clipPath>
<clipPath id="clip10">
  <path d="M 124.234375 21.835938 L 113.285156 41 L 110.203125 46.476562 L 102.8125 46.476562 L 93.363281 64.34375 C 96.777344 79.289062 88.449219 94.417969 73.992188 99.523438 L 64 117.664062 L 54.074219 99.523438 L 53.046875 99.183594 C 39.121094 93.703125 31.292969 78.863281 34.636719 64.273438 L 25.257812 46.476562 L 17.867188 46.476562 L 14.714844 41 L 3.765625 21.835938 L 35.25 21.835938 L 40.386719 32.035156 L 40.660156 32.171875 L 40.726562 32.035156 C 41.660156 19.910156 51.769531 10.546875 63.929688 10.546875 C 76.09375 10.546875 86.203125 19.910156 87.136719 32.035156 L 87 32.171875 L 86.929688 32.035156 L 92.75 21.835938 Z M 124.234375 21.835938 "/>
</clipPath>
<clipPath id="clip11">
  <path d="M 33 10 L 95 10 L 95 102 L 33 102 Z M 33 10 "/>
</clipPath>
<clipPath id="clip12">
  <path d="M 124.234375 21.835938 L 113.285156 41 L 110.203125 46.476562 L 102.8125 46.476562 L 93.363281 64.34375 C 96.777344 79.289062 88.449219 94.417969 73.992188 99.523438 L 64 117.664062 L 54.074219 99.523438 L 53.046875 99.183594 C 39.121094 93.703125 31.292969 78.863281 34.636719 64.273438 L 25.257812 46.476562 L 17.867188 46.476562 L 14.714844 41 L 3.765625 21.835938 L 35.25 21.835938 L 40.386719 32.035156 L 40.660156 32.171875 L 40.726562 32.035156 C 41.660156 19.910156 51.769531 10.546875 63.929688 10.546875 C 76.09375 10.546875 86.203125 19.910156 87.136719 32.035156 L 87 32.171875 L 86.929688 32.035156 L 92.75 21.835938 Z M 124.234375 21.835938 "/>
</clipPath>
<clipPath id="clip13">
  <path d="M 33 10 L 95 10 L 95 72 L 33 72 Z M 33 10 "/>
</clipPath>
<clipPath id="clip14">
  <path d="M 124.234375 21.835938 L 113.285156 41 L 110.203125 46.476562 L 102.8125 46.476562 L 93.363281 64.34375 C 96.777344 79.289062 88.449219 94.417969 73.992188 99.523438 L 64 117.664062 L 54.074219 99.523438 L 53.046875 99.183594 C 39.121094 93.703125 31.292969 78.863281 34.636719 64.273438 L 25.257812 46.476562 L 17.867188 46.476562 L 14.714844 41 L 3.765625 21.835938 L 35.25 21.835938 L 40.386719 32.035156 L 40.660156 32.171875 L 40.726562 32.035156 C 41.660156 19.910156 51.769531 10.546875 63.929688 10.546875 C 76.09375 10.546875 86.203125 19.910156 87.136719 32.035156 L 87 32.171875 L 86.929688 32.035156 L 92.75 21.835938 Z M 124.234375 21.835938 "/>
</clipPath>
<clipPath id="clip15">
  <path d="M 33 33 L 95 33 L 95 102 L 33 102 Z M 33 33 "/>
</clipPath>
<clipPath id="clip16">
  <path d="M 124.234375 21.835938 L 113.285156 41 L 110.203125 46.476562 L 102.8125 46.476562 L 93.363281 64.34375 C 96.777344 79.289062 88.449219 94.417969 73.992188 99.523438 L 64 117.664062 L 54.074219 99.523438 L 53.046875 99.183594 C 39.121094 93.703125 31.292969 78.863281 34.636719 64.273438 L 25.257812 46.476562 L 17.867188 46.476562 L 14.714844 41 L 3.765625 21.835938 L 35.25 21.835938 L 40.386719 32.035156 L 40.660156 32.171875 L 40.726562 32.035156 C 41.660156 19.910156 51.769531 10.546875 63.929688 10.546875 C 76.09375 10.546875 86.203125 19.910156 87.136719 32.035156 L 87 32.171875 L 86.929688 32.035156 L 92.75 21.835938 Z M 124.234375 21.835938 "/>
</clipPath>
<radialGradient id="radial0" gradientUnits="userSpaceOnUse" cx="78" cy="337" fx="78" fy="337" r="1854" gradientTransform="matrix(0.0684492,0,0,0.0684492,0,0)">
<stop offset="0" style="stop-color:rgb(100%,100%,100%);stop-opacity:0.101961;"/>
<stop offset="1" style="stop-color:rgb(100%,100%,100%);stop-opacity:0;"/>
</radialGradient>
</defs>
<g id="surface1">
<g clip-path="url(#clip1)" clip-rule="nonzero">
<g clip-path="url(#clip2)" clip-rule="nonzero">
<path style=" stroke:none;fill-rule:nonzero;fill:rgb(61.960784%,61.960784%,61.960784%);fill-opacity:1;" d="M 104.726562 40.316406 L 101.785156 46.476562 L 110.132812 46.476562 L 110.546875 45.792969 L 113.625 40.316406 L 104.660156 40.316406 Z M 23.136719 40.316406 L 14.375 40.316406 L 17.867188 46.476562 L 26.148438 46.476562 Z M 23.136719 40.316406 "/>
</g>
</g>
<g clip-path="url(#clip3)" clip-rule="nonzero">
<g clip-path="url(#clip4)" clip-rule="nonzero">
<path style=" stroke:none;fill-rule:nonzero;fill:rgb(25.882353%,25.882353%,25.882353%);fill-opacity:1;" d="M 124.234375 21.835938 L 113.285156 41 L 105.617188 41 L 93.363281 64.34375 L 64 117.664062 L 34.636719 64.273438 L 22.382812 41 L 14.714844 41 L 3.765625 21.835938 L 35.25 21.835938 L 40.386719 32.035156 L 57.085938 62.492188 L 63.929688 75.019531 L 70.503906 62.492188 L 86.929688 32.035156 L 92.75 21.835938 "/>
</g>
</g>
<g clip-path="url(#clip5)" clip-rule="nonzero">
<g clip-path="url(#clip6)" clip-rule="nonzero">
<path style=" stroke:none;fill-rule:nonzero;fill:rgb(100%,100%,100%);fill-opacity:0.2;" d="M 35.632812 22.519531 L 4.148438 22.519531 L 3.765625 21.835938 L 35.25 21.835938 Z M 92.75 21.835938 L 92.371094 22.519531 L 123.84375 22.519531 L 124.234375 21.835938 Z M 92.75 21.835938 "/>
</g>
</g>
<g clip-path="url(#clip7)" clip-rule="nonzero">
<g clip-path="url(#clip8)" clip-rule="nonzero">
<path style=" stroke:none;fill-rule:nonzero;fill:rgb(14.901961%,19.607843%,21.960784%);fill-opacity:0.2;" d="M 110.574219 45.777344 L 110.175781 46.476562 L 102.742188 46.476562 L 93.34375 64.308594 L 64 117.664062 L 34.65625 64.292969 L 25.277344 46.476562 L 17.835938 46.476562 L 17.453125 45.792969 L 25.277344 45.792969 L 25.640625 46.476562 L 34.65625 63.609375 L 64 116.980469 L 93.34375 63.625 L 102.75 45.777344 "/>
</g>
</g>
<g clip-path="url(#clip9)" clip-rule="nonzero">
<g clip-path="url(#clip10)" clip-rule="nonzero">
<path style=" stroke:none;fill-rule:nonzero;fill:rgb(100%,100%,100%);fill-opacity:1;" d="M 75.636719 71.117188 C 75.636719 77.546875 70.425781 82.753906 64 82.753906 C 57.574219 82.753906 52.363281 77.546875 52.363281 71.117188 C 52.363281 64.691406 57.574219 59.480469 64 59.480469 C 70.425781 59.480469 75.636719 64.691406 75.636719 71.117188 Z M 74.265625 35.523438 C 74.265625 41.195312 69.671875 45.792969 64 45.792969 C 58.328125 45.792969 53.734375 41.195312 53.734375 35.523438 C 53.734375 29.855469 58.328125 25.257812 64 25.257812 C 69.671875 25.257812 74.265625 29.855469 74.265625 35.523438 Z M 74.265625 35.523438 "/>
</g>
</g>
<g clip-path="url(#clip11)" clip-rule="nonzero">
<g clip-path="url(#clip12)" clip-rule="nonzero">
<path style=" stroke:none;fill-rule:nonzero;fill:rgb(25.882353%,52.156863%,95.686275%);fill-opacity:1;" d="M 93.363281 64.34375 C 91.789062 57.632812 88.09375 51.882812 82.960938 47.710938 C 88.667969 39.738281 88.769531 29.046875 83.214844 20.972656 C 77.660156 12.894531 67.640625 9.164062 58.15625 11.640625 C 48.675781 14.117188 41.757812 22.273438 40.863281 32.035156 C 40.324219 37.589844 41.808594 43.15625 45.039062 47.710938 C 39.820312 51.914062 36.160156 57.746094 34.636719 64.273438 C 34.121094 66.519531 33.867188 68.816406 33.882812 71.117188 C 33.882812 83.851562 41.824219 94.800781 53.046875 99.183594 C 56.539062 100.542969 60.253906 101.238281 64 101.238281 C 73.191406 101.269531 81.894531 97.09375 87.617188 89.898438 C 93.339844 82.707031 95.457031 73.292969 93.363281 64.34375 Z M 64 25.941406 C 69.292969 25.941406 73.582031 30.234375 73.582031 35.523438 C 73.582031 40.816406 69.292969 45.109375 64 45.109375 C 58.707031 45.109375 54.417969 40.816406 54.417969 35.523438 C 54.417969 30.234375 58.707031 25.941406 64 25.941406 Z M 64 82.070312 C 57.976562 82.070312 53.046875 77.140625 53.046875 71.117188 C 53.058594 66.945312 55.445312 63.140625 59.195312 61.308594 C 62.945312 59.480469 67.410156 59.9375 70.707031 62.492188 C 73.382812 64.554688 74.953125 67.742188 74.953125 71.117188 C 74.953125 77.167969 70.046875 82.070312 64 82.070312 Z M 64 82.070312 "/>
</g>
</g>
<g clip-path="url(#clip13)" clip-rule="nonzero">
<g clip-path="url(#clip14)" clip-rule="nonzero">
<path style=" stroke:none;fill-rule:nonzero;fill:rgb(100%,100%,100%);fill-opacity:0.2;" d="M 87.273438 34.15625 L 87.273438 34.5 C 87.082031 21.800781 76.730469 11.566406 64 11.566406 C 51.269531 11.566406 40.910156 21.800781 40.726562 34.5 L 40.726562 34.15625 C 40.726562 21.300781 51.144531 10.882812 64 10.882812 C 76.855469 10.882812 87.273438 21.300781 87.273438 34.15625 Z M 44.765625 47.949219 C 38.125 53.457031 33.882812 61.796875 33.882812 71.117188 L 33.882812 71.460938 C 33.984375 62.136719 38.332031 53.835938 45.066406 48.378906 L 45.382812 48.125 L 45.066406 47.714844 L 44.765625 47.988281 Z M 83.234375 47.949219 L 82.933594 47.695312 L 82.617188 48.125 L 82.933594 48.402344 C 89.675781 53.875 94.023438 62.160156 94.117188 71.46875 L 94.117188 71.125 C 94.117188 61.816406 89.875 53.464844 83.234375 47.988281 Z M 83.234375 47.949219 "/>
</g>
</g>
<g clip-path="url(#clip15)" clip-rule="nonzero">
<g clip-path="url(#clip16)" clip-rule="nonzero">
<path style=" stroke:none;fill-rule:nonzero;fill:rgb(14.901961%,19.607843%,21.960784%);fill-opacity:0.2;" d="M 94.117188 70.777344 L 94.117188 71.117188 C 94.117188 87.75 80.632812 101.238281 64 101.238281 C 47.367188 101.238281 33.882812 87.75 33.882812 71.117188 L 33.882812 70.777344 C 34.066406 87.253906 47.484375 100.550781 64 100.550781 C 80.515625 100.550781 93.933594 87.253906 94.117188 70.777344 Z M 40.726562 33.8125 L 40.726562 34.15625 C 40.71875 39.191406 42.351562 44.097656 45.382812 48.121094 C 45.492188 48.050781 45.601562 47.957031 45.722656 47.875 C 42.554688 43.867188 40.796875 38.921875 40.726562 33.8125 Z M 87.273438 33.8125 C 87.203125 38.921875 85.445312 43.867188 82.277344 47.875 C 82.398438 47.957031 82.507812 48.042969 82.617188 48.125 C 85.539062 44.292969 87.273438 39.433594 87.273438 34.164062 Z M 87.273438 33.8125 "/>
</g>
</g>
<path style=" stroke:none;fill-rule:nonzero;fill:url(#radial0);" d="M 124.234375 21.835938 L 113.285156 41 L 110.203125 46.476562 L 102.742188 46.476562 L 93.363281 64.34375 C 96.777344 79.289062 88.449219 94.417969 73.992188 99.523438 L 64 117.664062 L 54.074219 99.523438 L 53.046875 99.183594 C 39.121094 93.703125 31.292969 78.863281 34.636719 64.273438 L 25.257812 46.476562 L 17.867188 46.476562 L 14.714844 41 L 3.765625 21.835938 L 35.25 21.835938 L 40.386719 32.035156 L 40.660156 32.171875 L 40.726562 32.035156 C 41.660156 19.910156 51.769531 10.546875 63.929688 10.546875 C 76.09375 10.546875 86.203125 19.910156 87.136719 32.035156 L 87 32.171875 L 86.929688 32.035156 L 92.75 21.835938 Z M 124.234375 21.835938 "/>
</g>
</svg>
