<svg xmlns="http://www.w3.org/2000/svg" viewBox="0 0 128 128"><path fill="#2d3441" d="m43.342 68.821.734-2.373h4.655l.734 2.373h3.388L48.56 55.329h-4.092L39.924 68.82h3.418zm4.655-4.756H44.89l1.578-4.936 1.529 4.936zm10.133 4.756V54.947h-3.217v13.874h3.217zm6.636 4.805v-5.222l.01.009c.101.093.209.177.324.251l.058.036c.489.295 1.099.442 1.83.442.838 0 1.624-.208 2.357-.623.734-.416 1.327-1.015 1.779-1.8.452-.784.679-1.733.679-2.845 0-1.119-.223-2.071-.669-2.855-.446-.784-1.024-1.384-1.734-1.8s-1.461-.623-2.252-.623c-.596 0-1.159.152-1.689.457-.381.22-.709.536-.985.948l-.04.061-.262-1.144h-2.624v14.708h3.218zm1.709-7.419a2.12 2.12 0 0 1-.855-.171 1.544 1.544 0 0 1-.623-.472 1.125 1.125 0 0 1-.231-.704v-1.629l.001-.069a1.77 1.77 0 0 1 .196-.789l.029-.052c.151-.258.36-.457.628-.598.268-.141.573-.211.915-.211.422 0 .786.097 1.091.292.305.194.541.469.709.824.168.355.251.771.251 1.247 0 .563-.112 1.015-.337 1.357-.225.342-.499.59-.824.744a2.212 2.212 0 0 1-.95.231zm9.802-8.566c.59 0 1.056-.156 1.397-.467.342-.312.513-.752.513-1.322 0-.556-.171-1-.513-1.332-.342-.332-.808-.498-1.397-.498-.61 0-1.081.166-1.412.498-.332.332-.498.776-.498 1.332 0 .57.166 1.01.498 1.322.331.311.802.467 1.412.467zm1.608 11.18v-9.963h-3.217v9.963h3.217zm6.917 0v-4.172l.001-.102c.008-.676.091-1.229.251-1.659l.025-.064c.184-.459.431-.793.739-1a1.777 1.777 0 0 1 1.015-.312c.362 0 .67.126.925.377s.382.638.382 1.161v5.771h3.237V63.05c0-.865-.127-1.632-.382-2.302-.255-.67-.652-1.196-1.191-1.578-.54-.382-1.235-.573-2.086-.573-.744 0-1.409.208-1.996.623-.364.258-.68.607-.949 1.049l-.028.046-.326-1.397h-2.835v9.902h3.218zm13.682.321c.818 0 1.54-.147 2.166-.442.627-.295 1.136-.694 1.528-1.196s.638-1.062.739-1.679H99.72a.975.975 0 0 1-.462.573 1.586 1.586 0 0 1-.774.181c-.362 0-.662-.085-.9-.256a1.56 1.56 0 0 1-.538-.719c-.121-.308-.181-.674-.181-1.096v.02h5.951c.159-.711.19-1.403.093-2.075l-.017-.112a4.758 4.758 0 0 0-.744-1.905 4.121 4.121 0 0 0-1.493-1.342c-.617-.332-1.34-.498-2.172-.498-.838 0-1.622.208-2.352.623-.731.416-1.32 1.014-1.769 1.795-.449.781-.674 1.717-.674 2.81s.226 2.037.679 2.835c.452.798 1.044 1.411 1.774 1.84a4.553 4.553 0 0 0 2.343.643zm1.528-6.243H96.88v-.003c.024-.275.079-.519.165-.733l.027-.063a1.59 1.59 0 0 1 .583-.714c.251-.164.548-.246.89-.246.308 0 .561.062.759.186.198.124.35.288.457.493.107.204.179.427.216.669.018.121.03.24.034.359l.001.052zm6.324 6.102c.637 0 1.163-.193 1.578-.578.416-.385.623-.876.623-1.473 0-.596-.208-1.092-.623-1.488-.416-.395-.942-.593-1.578-.593-.637 0-1.154.198-1.553.593-.399.395-.598.891-.598 1.488 0 .59.199 1.079.598 1.468.398.389.916.583 1.553.583zm6.142-11.36c.59 0 1.056-.156 1.397-.467.342-.312.513-.752.513-1.322 0-.556-.171-1-.513-1.332-.342-.332-.808-.498-1.397-.498s-1.059.166-1.407.498c-.349.332-.523.776-.523 1.332 0 .57.174 1.01.523 1.322.348.311.818.467 1.407.467zm-1.92 16.337c1.173 0 2.061-.32 2.664-.96.603-.64.905-1.721.905-3.242V58.878h-3.237v10.837c0 .576-.102.962-.307 1.156-.204.194-.514.292-.93.292-.322 0-.67-.047-1.046-.141a8.018 8.018 0 0 1-.995-.312v2.765c.462.127.922.243 1.377.347.457.104.979.156 1.569.156zm11.089-4.836c.831 0 1.575-.154 2.232-.462.657-.308 1.175-.709 1.553-1.201.379-.493.568-1.014.568-1.563 0-.603-.194-1.106-.583-1.508-.389-.402-.922-.737-1.598-1.005l-2.734-1.096c-.422-.147-.633-.349-.633-.603 0-.188.101-.338.302-.452.201-.114.476-.171.824-.171.422 0 .724.079.905.236a.718.718 0 0 1 .271.558h2.946c-.007-.952-.365-1.736-1.076-2.352-.71-.617-1.726-.925-3.046-.925-1.407 0-2.517.271-3.328.814-.811.543-1.216 1.253-1.216 2.131 0 .623.193 1.161.578 1.614s.933.826 1.644 1.121l2.403.935c.255.101.442.201.563.302a.497.497 0 0 1 .181.402.569.569 0 0 1-.131.357.889.889 0 0 1-.392.266 1.866 1.866 0 0 1-.664.101c-.442 0-.793-.067-1.051-.201-.258-.134-.394-.375-.407-.724h-2.905c-.007.771.193 1.409.598 1.915s.97.885 1.694 1.136c.723.25 1.557.375 2.502.375z"/><path fill="#77c1d2" fill-rule="evenodd" d="m27.508 54.436 7.288 7.256-7.288 7.256-7.288-7.256z" clip-rule="evenodd"/><path fill="#2d3441" fill-rule="evenodd" d="m9.288 54.436 15.109 15.043H9.821L2 61.692z" clip-rule="evenodd"/></svg>
