<svg xmlns="http://www.w3.org/2000/svg" xmlns:xlink="http://www.w3.org/1999/xlink" viewBox="0 0 128 128">
    <defs>
        <linearGradient id="c" gradientUnits="userSpaceOnUse" x1="27.5" y1="3" x2="152" y2="63.5" gradientTransform="translate(0 3.855) scale(.77108)">
            <stop offset=".1" style="stop-color:#76b3e1;stop-opacity:1"/>
            <stop offset=".3" style="stop-color:#dcf2fd;stop-opacity:1"/>
            <stop offset="1" style="stop-color:#76b3e1;stop-opacity:1"/>
        </linearGradient>
        <linearGradient id="e" gradientUnits="userSpaceOnUse" x1="95.8" y1="32.6" x2="74" y2="105.2" gradientTransform="translate(0 3.855) scale(.77108)">
            <stop offset="0" style="stop-color:#76b3e1;stop-opacity:1"/>
            <stop offset=".5" style="stop-color:#4377bb;stop-opacity:1"/>
            <stop offset="1" style="stop-color:#1f3b77;stop-opacity:1"/>
        </linearGradient>
        <linearGradient id="j" gradientUnits="userSpaceOnUse" x1="18.4" y1="64.2" x2="144.3" y2="149.8" gradientTransform="translate(0 3.855) scale(.77108)">
            <stop offset="0" style="stop-color:#315aa9;stop-opacity:1"/>
            <stop offset=".5" style="stop-color:#518ac8;stop-opacity:1"/>
            <stop offset="1" style="stop-color:#315aa9;stop-opacity:1"/>
        </linearGradient>
        <linearGradient id="k" gradientUnits="userSpaceOnUse" x1="75.2" y1="74.5" x2="24.4" y2="260.8" gradientTransform="translate(0 3.855) scale(.77108)">
            <stop offset="0" style="stop-color:#4377bb;stop-opacity:1"/>
            <stop offset=".5" style="stop-color:#1a336b;stop-opacity:1"/>
            <stop offset="1" style="stop-color:#1a336b;stop-opacity:1"/>
        </linearGradient>
        <clipPath id="b">
            <path d="M0 0h128v128H0z"/>
        </clipPath>
        <clipPath id="d">
            <path d="M0 0h128v128H0z"/>
        </clipPath>
        <mask id="g">
            <g filter="url(#a)">
                <path style="fill:#000;fill-opacity:.301961;stroke:none" d="M0 0h128v128H0z"/>
            </g>
        </mask>
        <mask id="i">
            <g filter="url(#a)">
                <path style="fill:#000;fill-opacity:.301961;stroke:none" d="M0 0h128v128H0z"/>
            </g>
        </mask>
        <g id="f" clip-path="url(#b)">
            <path style="stroke:none;fill-rule:nonzero;fill:url(#c)" d="M125.688 30.844S84.82.77 53.203 7.71l-2.312.77c-4.625 1.542-8.48 3.855-10.793 6.94l-1.543 2.313L26.988 37.78l20.047 3.856c8.485 5.398 19.278 7.71 29.3 5.398l35.474 6.942Zm0 0"/>
        </g>
        <g id="h" clip-path="url(#d)">
            <path style="stroke:none;fill-rule:nonzero;fill:url(#e)" d="m40.098 30.844-3.086.77c-13.11 3.855-16.965 16.195-10.024 26.988C34.7 68.625 50.891 74.023 64 70.168l47.809-16.191S70.94 23.902 40.098 30.844Zm0 0"/>
        </g>
        <filter id="a" filterUnits="objectBoundingBox" x="0%" y="0%" width="100%" height="100%">
            <feColorMatrix in="SourceGraphic" values="0 0 0 0 1 0 0 0 0 1 0 0 0 0 1 0 0 0 1 0"/>
        </filter>
    </defs>
    <path style="stroke:none;fill-rule:nonzero;fill:#76b3e1;fill-opacity:1" d="M125.688 30.844S84.82.77 53.203 7.71l-2.312.77c-4.625 1.542-8.48 3.855-10.793 6.94l-1.543 2.313L26.988 37.78l20.047 3.856c8.485 5.398 19.278 7.71 29.3 5.398l35.474 6.942Zm0 0"/>
    <use xlink:href="#f" mask="url(#g)"/>
    <path style="stroke:none;fill-rule:nonzero;fill:#518ac8;fill-opacity:1" d="m40.098 30.844-3.086.77c-13.11 3.855-16.965 16.195-10.024 26.988C34.7 68.625 50.891 74.023 64 70.168l47.809-16.191S70.94 23.902 40.098 30.844Zm0 0"/>
    <use xlink:href="#h" mask="url(#i)"/>
    <path style="stroke:none;fill-rule:nonzero;fill:url(#j)" d="M103.324 65.543a34.689 34.689 0 0 0-37.011-11.566L18.508 69.398 3.086 96.387l86.36 14.648 15.421-27.758c3.086-5.398 2.313-11.566-1.543-17.734Zm0 0"/>
    <path style="stroke:none;fill-rule:nonzero;fill:url(#k)" d="M87.902 92.531a34.689 34.689 0 0 0-37.011-11.566L3.086 96.387s40.867 30.843 72.48 23.133l2.313-.774c13.11-3.855 17.734-16.191 10.023-26.215Zm0 0"/>
</svg>
