<svg xmlns="http://www.w3.org/2000/svg" viewBox="0 0 128 128"><defs><linearGradient id="a" x1="11.67" x2="70.61" y1="73.36" y2="44.72" gradientTransform="matrix(.36627 0 0 -.36627 -.198 77.937)" gradientUnits="userSpaceOnUse"><stop offset=".1" stop-color="#76b3e1"/><stop offset=".3" stop-color="#dcf2fd"/><stop offset="1" stop-color="#76b3e1"/></linearGradient><linearGradient id="b" x1="44" x2="33.68" y1="59.33" y2="24.96" gradientTransform="matrix(.36627 0 0 -.36627 -.198 77.937)" gradientUnits="userSpaceOnUse"><stop offset="0" stop-color="#76b3e1"/><stop offset=".5" stop-color="#4377bb"/><stop offset="1" stop-color="#1f3b77"/></linearGradient><linearGradient id="c" x1="7.34" x2="66.94" y1="44.34" y2="3.82" gradientTransform="matrix(.36627 0 0 -.36627 -.198 77.937)" gradientUnits="userSpaceOnUse"><stop offset="0" stop-color="#315aa9"/><stop offset=".5" stop-color="#518ac8"/><stop offset="1" stop-color="#315aa9"/></linearGradient><linearGradient id="d" x1="34.25" x2="10.2" y1="39.49" y2="-48.7" gradientTransform="matrix(.36627 0 0 -.36627 -.198 77.937)" gradientUnits="userSpaceOnUse"><stop offset="0" stop-color="#4377bb"/><stop offset=".5" stop-color="#1a336b"/><stop offset="1" stop-color="#1a336b"/></linearGradient></defs><path fill="#76b3e1" d="M27.57 56.675s-9.14-6.901-16.23-5.29l-.623.173a4.523 4.523 0 0 0-2.41 1.692 4.095 4.095 0 0 0-.26.432l-2.619 4.45 4.524.883a8.058 8.058 0 0 0 6.45 1.267l8.058 1.575z"/><path fill="url(#a)" d="M27.57 56.675s-9.14-6.901-16.23-5.29l-.623.173a4.523 4.523 0 0 0-2.41 1.692 4.095 4.095 0 0 0-.26.432l-2.619 4.45 4.524.883a8.058 8.058 0 0 0 6.45 1.267l8.058 1.575z" opacity=".3"/><path fill="#518ac8" d="m8.226 56.587-.626.175c-2.893.934-3.882 3.641-2.22 6.015a7.736 7.736 0 0 0 8.256 2.6l10.813-3.52s-9.12-6.882-16.223-5.27z"/><path fill="url(#b)" d="m8.226 56.587-.626.175c-2.893.934-3.882 3.641-2.22 6.015a7.736 7.736 0 0 0 8.256 2.6l10.813-3.52s-9.12-6.882-16.223-5.27z" opacity=".3"/><path fill="url(#c)" d="M22.47 64.392a7.732 7.732 0 0 0-8.27-2.619L3.4 65.275 0 71.325l19.35 3.297 3.469-6.172c.692-1.183.622-2.674-.348-4.058z"/><path fill="url(#d)" d="M19.072 70.443a7.743 7.743 0 0 0-8.252-2.62L0 71.326s9.157 6.901 16.23 5.29l.622-.173c2.897-.919 3.886-3.626 2.22-6z"/><path fill="#58595b" d="M43.1 58.086c-2.087 0-3.553 1.391-3.553 3.039 0 3.516 5.676 2.82 5.676 5.678 0 1.245-1.025 1.976-2.27 1.976a4.395 4.395 0 0 1-2.967-1.244l-.664.842a4.893 4.893 0 0 0 3.59 1.465c2.123 0 3.443-1.391 3.443-3.076 0-3.736-5.677-2.968-5.677-5.678.037-.99.953-1.942 2.418-1.942a3.802 3.802 0 0 1 2.49.99l.553-.952a4.395 4.395 0 0 0-3.04-1.098zm14.87.072a5.761 5.761 0 0 0-5.824 5.787v.037a5.86 5.86 0 0 0 5.788 5.932h.037a5.86 5.86 0 0 0 5.787-5.932 5.761 5.761 0 0 0-5.787-5.824zm12.38.22-.073 11.354h6.41v-.99h-5.275l.037-10.363h-1.1zm53.568 0a4.07 4.07 0 0 0-2.729.952 2.97 2.97 0 0 0-1.132 2.4 2.747 2.747 0 0 0 .85 2.053c.507.514 1.408.964 2.7 1.352a6.047 6.047 0 0 1 1.655.668.853.853 0 0 1 .435.765 1.004 1.004 0 0 1-.472.846 2.066 2.066 0 0 1-1.21.332 2.564 2.564 0 0 1-2.415-1.549l-1.979 1.024a3.974 3.974 0 0 0 1.645 1.914 5.033 5.033 0 0 0 2.68.695h.001c1.27 0 2.267-.313 2.98-.947a3.154 3.154 0 0 0 1.071-2.488 2.597 2.597 0 0 0-.916-2.077c-.615-.528-1.599-.98-2.955-1.369a4.307 4.307 0 0 1-1.379-.576.941.941 0 0 1-.402-.787.989.989 0 0 1 .402-.824 1.685 1.685 0 0 1 1.066-.31 2.077 2.077 0 0 1 2.092 1.36l1.895-1.035a3.681 3.681 0 0 0-1.49-1.773 4.458 4.458 0 0 0-2.393-.625zm-41.15.036-.038 11.39h1.098l.037-11.39h-1.097zm8.496 0v11.39h3.664c3.406 0 5.713-2.05 5.713-5.675 0-3.626-2.307-5.715-5.713-5.715h-3.664zm20.306.137v7.562a1.538 1.538 0 0 1-.367 1.1 1.322 1.322 0 0 1-1.014.39c-.718 0-1.242-.42-1.572-1.263l-1.935 1.082c.632 1.59 1.813 2.383 3.545 2.383a3.762 3.762 0 0 0 2.585-.922 3.296 3.296 0 0 0 1.047-2.602v-7.73h-2.289zm-53.6.633c2.565 0 4.616 2.088 4.616 4.798v.04a4.762 4.762 0 0 1-4.652 4.869c-2.564-.037-4.616-2.162-4.616-4.946a4.659 4.659 0 0 1 4.653-4.761zm34.393.255h2.453c2.784 0 4.689 1.65 4.653 4.69-.037 3.04-1.906 4.687-4.69 4.687h-2.453l.037-9.377z"/></svg>
