<svg xmlns="http://www.w3.org/2000/svg" viewBox="0 0 128 128"><defs><linearGradient id="a" x1="11.67" x2="70.61" y1="73.36" y2="44.72" gradientTransform="matrix(.36 0 0 -.36 .2627 77.36822)" gradientUnits="userSpaceOnUse"><stop offset=".1" stop-color="#76b3e1"/><stop offset=".3" stop-color="#dcf2fd"/><stop offset="1" stop-color="#76b3e1"/></linearGradient><linearGradient id="b" x1="44" x2="33.68" y1="59.33" y2="24.96" gradientTransform="matrix(.36 0 0 -.36 .2627 77.36822)" gradientUnits="userSpaceOnUse"><stop offset="0" stop-color="#76b3e1"/><stop offset=".5" stop-color="#4377bb"/><stop offset="1" stop-color="#1f3b77"/></linearGradient><linearGradient id="c" x1="7.34" x2="66.94" y1="44.34" y2="3.82" gradientTransform="matrix(.36 0 0 -.36 .2627 77.36822)" gradientUnits="userSpaceOnUse"><stop offset="0" stop-color="#315aa9"/><stop offset=".5" stop-color="#518ac8"/><stop offset="1" stop-color="#315aa9"/></linearGradient><linearGradient id="d" x1="34.25" x2="10.2" y1="39.49" y2="-48.7" gradientTransform="matrix(.36 0 0 -.36 .2627 77.36822)" gradientUnits="userSpaceOnUse"><stop offset="0" stop-color="#4377bb"/><stop offset=".5" stop-color="#1a336b"/><stop offset="1" stop-color="#1a336b"/></linearGradient></defs><path fill="url(#a)" d="M27.8936 56.21041s-9.09366-6.86672-16.14991-5.26303l-.61961.1713a4.50127 4.50127 0 0 0-2.39825 1.68389 4.07484 4.07484 0 0 0-.25878.43008l-2.606 4.42837 4.50128.87839a8.01846 8.01846 0 0 0 6.41841 1.26109l8.01847 1.56724z" opacity=".3" style="isolation:isolate"/><path fill="url(#b)" d="m8.64565 56.12294-.62326.17494c-2.87935.92942-3.86344 3.6229-2.20872 5.9847a7.69772 7.69772 0 0 0 8.21528 2.58778l10.75932-3.50262s-9.07544-6.8485-16.14262-5.2448z" opacity=".3" style="isolation:isolate"/><path fill="url(#c)" d="M22.8201 63.88991a7.69408 7.69408 0 0 0-8.22986-2.606L3.84186 64.7683.45952 70.78944l19.25525 3.28028 3.45158-6.14141c.68886-1.17726.61961-2.66068-.34625-4.0384z"/><path fill="url(#d)" d="M19.43777 69.91105a7.70501 7.70501 0 0 0-8.21164-2.606L.45953 70.78944s9.11188 6.86672 16.1499 5.26302l.61962-.1713c2.883-.91483 3.86708-3.6083 2.20872-5.9701z"/><path d="M40.24932 67.01712a4.3737 4.3737 0 0 0 2.95226 1.23921c1.23921 0 2.25975-.72895 2.25975-1.96817 0-2.8429-5.64937-2.1504-5.64937-5.64937 0-1.64013 1.4579-3.02515 3.5354-3.02515a4.3737 4.3737 0 0 1 3.02515 1.09343l-.55035.94764a3.78326 3.78326 0 0 0-2.47844-.98409c-1.4579 0-2.36909.94764-2.40554 1.93173 0 2.69711 5.64938 1.93171 5.64938 5.64936 0 1.6766-1.31212 3.0616-3.42607 3.0616a4.8694 4.8694 0 0 1-3.57187-1.4579zm17.89576-9.33058a5.7332 5.7332 0 0 1 5.75871 5.79516 5.8316 5.8316 0 0 1-5.75871 5.9045h-.03644a5.8316 5.8316 0 0 1-5.75872-5.9045v-.03648a5.7332 5.7332 0 0 1 5.79516-5.7587zm-.03644 10.67913a4.73818 4.73818 0 0 0 4.62884-4.84387v-.04007c0-2.69713-2.04107-4.77463-4.5924-4.77463a4.63613 4.63613 0 0 0-4.62883 4.73817c0 2.77002 2.04106 4.88398 4.59239 4.92042zm12.35572-10.46045h1.09343l-.03645 10.31466h5.24844v.98408h-6.37833zm12.35572.03648h1.09343L83.877 69.2769h-1.0934zm8.45584 0h3.64475c3.38963 0 5.68582 2.07751 5.68582 5.68582 0 3.6083-2.2962 5.64937-5.68582 5.64937h-3.64475zm3.49896 10.3511c2.77002 0 4.62884-1.64013 4.6653-4.66528.0364-3.02514-1.85884-4.66529-4.62885-4.66529h-2.44199l-.03648 9.33057zm15.36994.98409a3.74316 3.74316 0 0 0 2.5732-.91848 3.28028 3.28028 0 0 0 1.04239-2.58777v-7.69408h-2.27797v7.52642a1.5308 1.5308 0 0 1-.36447 1.09342 1.31576 1.31576 0 0 1-1.00961.39q-1.07155 0-1.5636-1.25745l-1.92807 1.0752q.94399 2.37274 3.52813 2.37274zm13.65324.02549c1.26474 0 2.25613-.31345 2.96684-.944a3.13813 3.13813 0 0 0 1.06427-2.47478 2.58413 2.58413 0 0 0-.91119-2.06658c-.61231-.52484-1.59276-.9768-2.94131-1.36314a4.28623 4.28623 0 0 1-1.37043-.57222.9367.9367 0 0 1-.40092-.78363.98408.98408 0 0 1 .40092-.82007 1.67659 1.67659 0 0 1 1.06062-.3098 2.06658 2.06658 0 0 1 2.08116 1.35585l1.88435-1.03147a3.66298 3.66298 0 0 0-1.48343-1.76406 4.43567 4.43567 0 0 0-2.38002-.62325 4.04932 4.04932 0 0 0-2.71535.94764 2.9559 2.9559 0 0 0-1.12623 2.38731 2.73357 2.73357 0 0 0 .84558 2.0447q.75811.7654 2.68619 1.34492a6.0175 6.0175 0 0 1 1.64742.66335.84923.84923 0 0 1 .43373.76175.99866.99866 0 0 1-.47017.84194 2.05564 2.05564 0 0 1-1.20277.33167 2.55133 2.55133 0 0 1-2.40554-1.54173l-1.96817 1.01689a3.95456 3.95456 0 0 0 1.6365 1.9062 5.0079 5.0079 0 0 0 2.66795.6925z" class="g"/></svg>
