<svg viewBox="0 0 128 128" xmlns="http://www.w3.org/2000/svg">
    <path fill="#85bce5" d="M26.123 44.15a15.71 15.71 0 0 0-3.088.35l-.783.262a10.856 10.856 0 0 0-1.643.699c-.167.09-.329.183-.484.281a6.1 6.1 0 0 0-1.219.994c-.114.123-.22.25-.318.381l-.524.785-3.925 6.805.056.012c-1.565 1.902-1.643 4.594-.058 7.054.589.768 1.33 1.45 2.166 2.04l-5.05 1.628-5.233 9.16s13.875 10.47 24.605 7.852l.785-.262c1.738-.51 3.03-1.465 3.81-2.636l.116.02 5.238-9.423c1.047-1.832.785-3.924-.523-6.02a11.807 11.807 0 0 0-2.338-2.161l5.217-1.768h.002l4.709-7.851s-.489-.359-1.352-.926a57.562 57.562 0 0 0-5.19-3.028 51.705 51.705 0 0 0-3.599-1.683 42.511 42.511 0 0 0-1.963-.766 33.88 33.88 0 0 0-4.129-1.217 27.352 27.352 0 0 0-2.117-.382 20.587 20.587 0 0 0-3.168-.2zm34.318 16.342c-1.493 0-2.539.996-2.539 2.172 0 2.516 4.055 2.016 4.055 4.059 0 .89-.73 1.414-1.621 1.414a3.236 3.236 0 0 1-2.121-.89l-.473.6c.684.68 1.597 1.075 2.567 1.048 1.519 0 2.46-.997 2.46-2.2 0-2.668-4.058-2.12-4.058-4.054.027-.706.684-1.391 1.73-1.391a2.675 2.675 0 0 1 1.778.707l.394-.68a3.172 3.172 0 0 0-2.172-.785zm10.575.051c-2.278 0-4.11 1.859-4.11 4.137v.027c-.027 2.305 1.832 4.215 4.137 4.238h.023c2.305-.023 4.164-1.933 4.137-4.238v-.05c0-2.278-1.859-4.114-4.137-4.114-.023-.023-.05-.023-.05 0zm47.14.133a2.858 2.858 0 0 0-1.933.68 2.184 2.184 0 0 0-.813 1.726c-.027.55.207 1.102.602 1.469.367.367 1.02.68 1.937.969a4.54 4.54 0 0 1 1.176.468c.21.106.316.317.316.551a.729.729 0 0 1-.34.602c-.26.156-.55.261-.863.234a1.806 1.806 0 0 1-1.73-1.098l-1.414.735a2.863 2.863 0 0 0 1.18 1.36c.6.338 1.28.523 1.937.495.914 0 1.621-.235 2.121-.68a2.28 2.28 0 0 0 .758-1.78 1.8 1.8 0 0 0-.656-1.489c-.446-.367-1.149-.707-2.118-.969a3.039 3.039 0 0 1-.996-.422.691.691 0 0 1-.289-.574c0-.234.105-.445.29-.601a1.14 1.14 0 0 1 .757-.211 1.469 1.469 0 0 1 1.492.968l1.364-.73a2.54 2.54 0 0 0-1.075-1.258 2.99 2.99 0 0 0-1.703-.445zm-38.242.027-.05 8.113h4.577v-.707h-3.765l.023-7.406h-.785zm8.875.024-.027 8.14h.785l.027-8.14h-.785zm6.074 0v8.14h2.617c2.434 0 4.082-1.465 4.082-4.055 0-2.593-1.648-4.085-4.082-4.085h-2.617zm14.528.078v5.422c.023.285-.082.574-.262.785a1.027 1.027 0 0 1-.734.285c-.524 0-.891-.314-1.125-.89l-1.387.761c.445 1.125 1.308 1.7 2.539 1.7a2.684 2.684 0 0 0 1.855-.653c.524-.473.785-1.153.762-1.86v-5.55h-1.648zm-38.325.472c1.831 0 3.301 1.493 3.301 3.43v.027c.051 1.882-1.441 3.426-3.324 3.48-1.832-.027-3.3-1.542-3.3-3.534v-.078a3.33 3.33 0 0 1 3.323-3.325zm24.582.184h1.754c1.99 0 3.348 1.18 3.325 3.352-.028 2.17-1.364 3.347-3.352 3.347h-1.754l.027-6.7z"/>
</svg>

