<svg xmlns="http://www.w3.org/2000/svg" viewBox="0 0 128 128"><defs><linearGradient id="a" x1="11.67" x2="70.61" y1="73.36" y2="44.72" gradientTransform="matrix(1 0 0 -1 0 73.4)" gradientUnits="userSpaceOnUse"><stop offset=".1" stop-color="#76b3e1"/><stop offset=".3" stop-color="#dcf2fd"/><stop offset="1" stop-color="#76b3e1"/></linearGradient><linearGradient id="b" x1="44" x2="33.68" y1="59.33" y2="24.96" gradientTransform="matrix(1 0 0 -1 0 73.4)" gradientUnits="userSpaceOnUse"><stop offset="0" stop-color="#76b3e1"/><stop offset=".5" stop-color="#4377bb"/><stop offset="1" stop-color="#1f3b77"/></linearGradient><linearGradient id="c" x1="7.34" x2="66.94" y1="44.34" y2="3.82" gradientTransform="matrix(1 0 0 -1 0 73.4)" gradientUnits="userSpaceOnUse"><stop offset="0" stop-color="#315aa9"/><stop offset=".5" stop-color="#518ac8"/><stop offset="1" stop-color="#315aa9"/></linearGradient><linearGradient id="d" x1="34.25" x2="10.2" y1="39.49" y2="-48.7" gradientTransform="matrix(1 0 0 -1 0 73.4)" gradientUnits="userSpaceOnUse"><stop offset="0" stop-color="#4377bb"/><stop offset=".5" stop-color="#1a336b"/><stop offset="1" stop-color="#1a336b"/></linearGradient></defs><path fill="url(#a)" d="M75.81 15.35S50.86-3.49 31.5.91l-1.7.47A12.35 12.35 0 0 0 23.22 6a11.18 11.18 0 0 0-.71 1.18l-7.15 12.15 12.35 2.41a22 22 0 0 0 17.61 3.46l22 4.3z" opacity=".3" style="isolation:isolate" transform="matrix(1.8 0 0 1.8 -258.93092 1.39705)"/><path fill="url(#b)" d="m23 15.11-1.71.48c-7.9 2.55-10.6 9.94-6.06 16.42a21.12 21.12 0 0 0 22.54 7.1l29.52-9.61S42.39 10.71 23 15.11z" opacity=".3" style="isolation:isolate" transform="matrix(1.8 0 0 1.8 -258.93092 1.39705)"/><path fill="url(#c)" d="M61.89 36.42a21.11 21.11 0 0 0-22.58-7.15L9.82 38.83.54 55.35l52.83 9 9.47-16.85c1.89-3.23 1.7-7.3-.95-11.08z" transform="matrix(1.8 0 0 1.8 -258.93092 1.39705)"/><path fill="url(#d)" d="M52.61 52.94a21.14 21.14 0 0 0-22.53-7.15L.54 55.35s25 18.84 44.31 14.44l1.7-.47c7.91-2.51 10.61-9.9 6.06-16.38z" transform="matrix(1.8 0 0 1.8 -258.93092 1.39705)"/><path d="M-61.45292 82.39705a21.6 21.6 0 0 0 14.58 6.12c6.12 0 11.16-3.6 11.16-9.72 0-14.04-27.9-10.62-27.9-27.9 0-8.1 7.2-14.94 17.46-14.94a21.6 21.6 0 0 1 14.94 5.4l-2.718 4.68a18.684 18.684 0 0 0-12.24-4.86c-7.2 0-11.7 4.68-11.88 9.54 0 13.32 27.9 9.54 27.9 27.9 0 8.28-6.48 15.12-16.92 15.12a24.048 24.048 0 0 1-17.64-7.2zm88.38-46.08a28.314 28.314 0 0 1 28.44 28.62 28.8 28.8 0 0 1-28.44 29.16h-.18a28.8 28.8 0 0 1-28.44-29.16v-.18a28.314 28.314 0 0 1 28.62-28.44zm-.18 52.74a23.4 23.4 0 0 0 22.86-23.922v-.198c0-13.32-10.08-23.58-22.68-23.58a22.896 22.896 0 0 0-22.86 23.4c0 13.68 10.08 24.12 22.68 24.3zm61.02-51.66h5.4l-.18 50.94h25.92v4.86h-31.5zm61.02.18h5.4l-.18 55.98h-5.4zm41.76 0h18c16.74 0 28.08 10.26 28.08 28.08s-11.34 27.9-28.08 27.9h-18zm17.28 51.12c13.68 0 22.86-8.1 23.04-23.04.18-14.94-9.18-23.04-22.86-23.04h-12.06l-.18 46.08zm75.906 4.86a18.486 18.486 0 0 0 12.708-4.536 16.2 16.2 0 0 0 5.148-12.78v-37.998h-11.25v37.17a7.56 7.56 0 0 1-1.8 5.4 6.498 6.498 0 0 1-4.986 1.926q-5.292 0-7.722-6.21l-9.522 5.31q4.662 11.718 17.424 11.718zm67.428.126c6.246 0 11.142-1.548 14.652-4.662a15.498 15.498 0 0 0 5.256-12.222 12.762 12.762 0 0 0-4.5-10.206c-3.024-2.592-7.866-4.824-14.526-6.732a21.168 21.168 0 0 1-6.768-2.826 4.626 4.626 0 0 1-1.98-3.87 4.86 4.86 0 0 1 1.98-4.05 8.28 8.28 0 0 1 5.238-1.53 10.206 10.206 0 0 1 10.278 6.696l9.306-5.094a18.09 18.09 0 0 0-7.326-8.712 21.906 21.906 0 0 0-11.754-3.078 19.998 19.998 0 0 0-13.41 4.68 14.598 14.598 0 0 0-5.562 11.79 13.5 13.5 0 0 0 4.176 10.098q3.744 3.78 13.266 6.642a29.718 29.718 0 0 1 8.136 3.276 4.194 4.194 0 0 1 2.142 3.762 4.932 4.932 0 0 1-2.322 4.158 10.152 10.152 0 0 1-5.94 1.638 12.6 12.6 0 0 1-11.88-7.614l-9.72 5.022a19.53 19.53 0 0 0 8.082 9.414 24.732 24.732 0 0 0 13.176 3.42z" class="g"/></svg>
