<svg xmlns="http://www.w3.org/2000/svg" viewBox="0 0 128 128"><defs><linearGradient id="a" x1="27.5" x2="152" y1="3" y2="63.5" gradientTransform="matrix(.8 0 0 .8 -3.16485 5.81808)" gradientUnits="userSpaceOnUse"><stop offset=".1" stop-color="#76b3e1"/><stop offset=".3" stop-color="#dcf2fd"/><stop offset="1" stop-color="#76b3e1"/></linearGradient><linearGradient id="b" x1="95.8" x2="74" y1="32.6" y2="105.2" gradientTransform="matrix(.8 0 0 .8 -3.16485 5.81808)" gradientUnits="userSpaceOnUse"><stop offset="0" stop-color="#76b3e1"/><stop offset=".5" stop-color="#4377bb"/><stop offset="1" stop-color="#1f3b77"/></linearGradient><linearGradient id="c" x1="18.4" x2="144.3" y1="64.2" y2="149.8" gradientTransform="matrix(.8 0 0 .8 -3.16485 5.81808)" gradientUnits="userSpaceOnUse"><stop offset="0" stop-color="#315aa9"/><stop offset=".5" stop-color="#518ac8"/><stop offset="1" stop-color="#315aa9"/></linearGradient><linearGradient id="d" x1="75.2" x2="24.4" y1="74.5" y2="260.8" gradientTransform="matrix(.8 0 0 .8 -3.16485 5.81808)" gradientUnits="userSpaceOnUse"><stop offset="0" stop-color="#4377bb"/><stop offset=".5" stop-color="#1a336b"/><stop offset="1" stop-color="#1a336b"/></linearGradient></defs><path fill="#76b3e1" d="M127.11625 33.79255S84.75491 2.621 51.98482 9.81444l-2.39781.79927c-4.79563 1.59854-8.79198 3.99635-11.1898 7.19343l-1.59853 2.39781L24.80962 40.986l20.78103 3.99635c8.79198 5.5949 19.98177 7.9927 30.37229 5.5949l36.76644 7.19343z"/><path fill="url(#a)" d="M127.11625 33.79255S84.75491 2.621 51.98482 9.81444l-2.39781.79927c-4.79563 1.59854-8.79198 3.99635-11.1898 7.19343l-1.59853 2.39781L24.80962 40.986l20.78103 3.99635c8.79198 5.5949 19.98177 7.9927 30.37229 5.5949l36.76644 7.19343z" opacity=".3"/><path fill="#518ac8" d="m38.39722 33.79255-3.19708.79927C21.61254 38.58818 17.61619 51.3765 24.80962 62.5663c7.9927 10.39052 24.77739 15.98541 38.36499 11.98906l49.55477-16.78468S70.36804 26.59912 38.39722 33.79255z"/><path fill="url(#b)" d="m38.39722 33.79255-3.19708.79927C21.61254 38.58818 17.61619 51.3765 24.80962 62.5663c7.9927 10.39052 24.77739 15.98541 38.36499 11.98906l49.55477-16.78468S70.36804 26.59912 38.39722 33.79255z" opacity=".3"/><path fill="url(#c)" d="M103.93741 69.75973a35.96717 35.96717 0 0 0-38.365-11.98906L16.01765 73.75608.03224 101.73055l89.5183 15.18614 15.9854-28.77374c3.19709-5.5949 2.39782-11.98906-1.59853-18.38322z"/><path fill="url(#d)" d="M87.952 97.7342a35.96717 35.96717 0 0 0-38.365-11.98906L.03224 101.73055s42.36134 31.97082 75.13143 23.97812l2.39782-.79927c13.5876-3.99636 18.38322-16.78469 10.39051-27.1752Z"/></svg>
