<svg viewBox="0 0 128 128" fill="none" xmlns="http://www.w3.org/2000/svg"><path d="M107.346 2.012l-6.914.431.539 14.377c.028.795-.889 1.259-1.514.766l-4.63-3.65-5.485 4.162a.934.934 0 01-1.498-.784l.617-14.123L19.873 7.48a6.264 6.264 0 00-5.87 6.488l3.86 102.838a6.264 6.264 0 005.98 6.023l83.612 3.754a6.273 6.273 0 004.609-1.73 6.27 6.27 0 001.936-4.526V8.264a6.258 6.258 0 00-1.975-4.566 6.257 6.257 0 00-4.679-1.686zm-41.46 21.187c16.308 0 25.214 8.723 25.214 25.319-2.204 1.713-18.62 2.88-18.62.443.346-9.3-3.817-9.707-6.13-9.707-2.198 0-5.899.662-5.899 5.644 0 12.288 31.69 11.625 31.69 36.424 0 13.95-11.335 21.655-25.791 21.655-14.92 0-27.957-6.036-26.485-26.963.578-2.457 19.545-1.873 19.545 0-.23 8.635 1.735 11.175 6.707 11.175 3.817 0 5.553-2.103 5.553-5.646 0-12.621-31.227-13.063-31.227-36.201 0-13.285 9.138-22.143 25.444-22.143z" fill="#000"/></svg>
