<svg viewBox="0 0 128 128" xmlns="http://www.w3.org/2000/svg"><path d="M34.1 71.264c-1.093 0-2.144-.146-3.155-.44-1.01-.294-1.85-.7-2.519-1.219l1.024-2.273c1.393.97 2.956 1.454 4.69 1.454.901 0 1.594-.147 2.079-.44.485-.294.727-.7.727-1.219 0-.464-.222-.826-.666-1.085-.443-.26-1.232-.512-2.365-.758-1.27-.26-2.284-.573-3.041-.942-.758-.369-1.311-.822-1.66-1.362-.348-.54-.521-1.205-.521-1.997 0-.873.242-1.652.726-2.334.485-.683 1.164-1.219 2.038-1.608.874-.39 1.884-.584 3.031-.584 1.024 0 2.01.15 2.96.45.949.301 1.703.704 2.263 1.21l-1.024 2.272c-1.325-.969-2.717-1.454-4.178-1.454-.833 0-1.488.16-1.966.482-.478.32-.717.76-.717 1.32 0 .328.092.598.276.81.185.211.492.399.922.563.43.164 1.041.334 1.833.512 1.857.41 3.191.935 4.004 1.577.812.641 1.218 1.529 1.218 2.662 0 1.365-.525 2.44-1.577 3.226-1.05.785-2.519 1.177-4.403 1.177zm13.393-2.293c.314 0 .642-.02.983-.062l-.164 2.253a8.685 8.685 0 01-1.188.082c-1.529 0-2.645-.335-3.348-1.004-.703-.669-1.055-1.686-1.055-3.051v-3.85h-1.904v-2.315h1.904v-2.949h3.093v2.95h2.519v2.314h-2.52v3.83c0 1.2.56 1.802 1.68 1.802zm7.189 2.273c-1.065 0-2-.215-2.806-.645a4.525 4.525 0 01-1.864-1.823c-.437-.785-.655-1.71-.655-2.775s.218-1.99.655-2.775a4.46 4.46 0 011.864-1.813c.805-.423 1.74-.634 2.806-.634 1.065 0 2 .211 2.805.634a4.46 4.46 0 011.864 1.813c.437.785.655 1.71.655 2.775s-.218 1.99-.655 2.775a4.524 4.524 0 01-1.864 1.823c-.805.43-1.74.645-2.805.645zm0-2.355c1.502 0 2.252-.963 2.252-2.888 0-.97-.194-1.693-.583-2.17-.39-.479-.946-.718-1.67-.718-1.501 0-2.252.963-2.252 2.888 0 1.925.75 2.888 2.253 2.888zm13.885-5.57l-1.74.183c-.86.082-1.468.325-1.823.727-.356.403-.533.94-.533 1.608v5.243h-3.093V61.024h2.97v1.7c.505-1.16 1.55-1.795 3.134-1.904l.9-.062.185 2.56zm8.986-2.274h3.03l-6.061 13.721h-3.134l1.925-4.239-4.137-9.482h3.216l2.54 6.39 2.62-6.39zm10.199-.267c.874 0 1.645.212 2.314.635.669.424 1.191 1.028 1.567 1.813.375.785.563 1.696.563 2.734s-.188 1.956-.563 2.755c-.376.798-.901 1.42-1.577 1.863-.676.444-1.444.666-2.304.666-.697 0-1.325-.147-1.884-.44-.56-.294-.99-.7-1.29-1.22v1.496h-3.052V56.642h3.092v5.734c.3-.505.727-.898 1.28-1.178.553-.28 1.171-.42 1.854-.42zm-.901 8.11c.723 0 1.283-.255 1.679-.767.396-.512.594-1.233.594-2.161 0-.915-.198-1.614-.594-2.1-.396-.484-.956-.726-1.68-.726-.723 0-1.283.249-1.679.747-.396.499-.594 1.205-.594 2.12 0 .928.198 1.642.594 2.14.396.498.956.748 1.68.748zm12.062 2.356c-1.065 0-2-.215-2.805-.645a4.525 4.525 0 01-1.864-1.823c-.437-.785-.656-1.71-.656-2.775s.219-1.99.656-2.775a4.46 4.46 0 011.864-1.813c.805-.423 1.74-.634 2.805-.634 1.065 0 2 .211 2.806.634a4.458 4.458 0 011.864 1.813c.437.785.655 1.71.655 2.775s-.218 1.99-.655 2.775a4.523 4.523 0 01-1.864 1.823c-.806.43-1.74.645-2.806.645zm0-2.355c1.502 0 2.253-.963 2.253-2.888 0-.97-.194-1.693-.584-2.17-.389-.479-.945-.718-1.669-.718-1.502 0-2.252.963-2.252 2.888 0 1.925.75 2.888 2.252 2.888zm11.531 2.355c-1.065 0-2.001-.215-2.806-.645a4.523 4.523 0 01-1.864-1.823c-.437-.785-.655-1.71-.655-2.775s.218-1.99.655-2.775a4.458 4.458 0 011.864-1.813c.805-.423 1.741-.634 2.806-.634 1.064 0 2 .211 2.805.634a4.458 4.458 0 011.864 1.813c.437.785.655 1.71.655 2.775s-.218 1.99-.655 2.775a4.523 4.523 0 01-1.864 1.823c-.805.43-1.741.645-2.805.645zm0-2.355c1.501 0 2.252-.963 2.252-2.888 0-.97-.194-1.693-.583-2.17-.389-.479-.946-.718-1.669-.718-1.502 0-2.253.963-2.253 2.888 0 1.925.751 2.888 2.253 2.888zM128 71.08h-3.789l-3.85-4.485v4.485h-3.093V56.642h3.093v8.683l3.707-4.28h3.686l-4.219 4.792L128 71.08z"/><path d="M.794 74.59L.001 53.459a1.287 1.287 0 011.206-1.333l17.973-1.123a1.287 1.287 0 011.367 1.284v23.026a1.287 1.287 0 01-1.344 1.286l-17.18-.772A1.287 1.287 0 01.793 74.59z" fill="#fff"/><path d="M.794 74.59L.001 53.459a1.287 1.287 0 011.206-1.333l17.973-1.123a1.287 1.287 0 011.367 1.284v23.026a1.287 1.287 0 01-1.344 1.286l-17.18-.772A1.287 1.287 0 01.793 74.59z"/><path d="M15.173 54.147l.123-2.953L17.764 51l.106 3.045a.192.192 0 01-.31.158l-.952-.75-1.127.855a.192.192 0 01-.308-.161zM12.016 60.649c0 .5 3.373.26 3.826-.091 0-3.41-1.83-5.202-5.18-5.202-3.351 0-5.228 1.82-5.228 4.55 0 4.754 6.416 4.845 6.416 7.438 0 .728-.357 1.16-1.14 1.16-1.023 0-1.427-.522-1.38-2.296 0-.385-3.896-.505-4.015 0-.303 4.3 2.376 5.54 5.442 5.54 2.97 0 5.299-1.583 5.299-4.45 0-5.095-6.511-4.959-6.511-7.483 0-1.024.76-1.16 1.212-1.16.475 0 1.33.083 1.26 1.994z" fill="#fff"/></svg>
