<svg xmlns="http://www.w3.org/2000/svg" viewBox="0 0 128 128"><path fill="#FF4785" d="m19.184 51.002-1.422.09.11 2.955a.192.192 0 0 1-.31.156l-.953-.75-1.127.856a.192.192 0 0 1-.306-.16l.127-2.905-14.096.881a1.29 1.29 0 0 0-1.205 1.336l.793 21.133a1.287 1.287 0 0 0 1.228 1.236l17.182.774a1.29 1.29 0 0 0 1.346-1.288V52.287a1.287 1.287 0 0 0-1.367-1.285m-8.522 4.353c3.35 0 5.182 1.794 5.182 5.204-.453.352-3.826.591-3.826.091.07-1.91-.785-1.994-1.26-1.994-.452 0-1.211.136-1.211 1.16 0 2.525 6.512 2.389 6.512 7.485 0 2.866-2.331 4.451-5.301 4.451-3.066 0-5.746-1.24-5.444-5.541.12-.505 4.018-.385 4.018 0-.048 1.774.357 2.295 1.379 2.295.784 0 1.14-.432 1.14-1.16 0-2.594-6.417-2.684-6.417-7.44 0-2.73 1.877-4.55 5.228-4.55m23.826 1.102q-1.72 0-3.031.584-1.31.584-2.037 1.607t-.727 2.334q0 1.188.522 1.998t1.658 1.362 3.041.941q1.7.37 2.365.76.666.389.666 1.084 0 .779-.726 1.219-.727.44-2.078.44-2.601 0-4.692-1.454l-1.023 2.273q1.003.78 2.52 1.22 1.514.44 3.154.439 2.826 0 4.402-1.176 1.576-1.18 1.576-3.227 0-1.7-1.217-2.662-1.218-.964-4.004-1.578-1.188-.266-1.834-.512-.645-.245-.921-.562-.276-.319-.276-.81 0-.84.717-1.319.716-.482 1.967-.482 2.19-.001 4.178 1.453l1.023-2.272q-.84-.76-2.264-1.21t-2.959-.45m47.037.186V71.08h3.053v-1.496q.45.78 1.29 1.22.838.44 1.884.44 1.29 0 2.305-.666 1.013-.665 1.576-1.863c.375-.8.562-1.197.562-2.754q0-1.558-.562-2.734-.564-1.178-1.567-1.815-1.003-.635-2.314-.635a4.05 4.05 0 0 0-1.854.42 3.06 3.06 0 0 0-1.28 1.18v-5.734zm35.743 0V71.08h3.093v-4.484l3.85 4.484H128l-4.465-5.242 4.219-4.793h-3.686l-3.707 4.28v-8.682zm-74.548 1.43v2.95h-1.905v2.316h1.905v3.85q0 2.045 1.054 3.05 1.056 1.005 3.348 1.004a9 9 0 0 0 1.19-.082l.164-2.254a8 8 0 0 1-.985.063q-1.68 0-1.68-1.801v-3.83h2.52v-2.315h-2.518v-2.95zm25.662 2.684-.9.062q-2.377.165-3.135 1.905v-1.702h-2.97V71.08h3.093v-5.242q0-1.004.533-1.61.532-.603 1.822-.726l1.74-.184zm-13.701.021q-1.598 0-2.805.633a4.46 4.46 0 0 0-1.865 1.815c-.437.785-.655 1.177-.655 2.775q0 1.597.655 2.773a4.53 4.53 0 0 0 1.865 1.825q1.208.645 2.805.644 1.596 0 2.804-.644a4.5 4.5 0 0 0 1.866-1.825c.437-.785.654-1.176.654-2.773q0-1.598-.654-2.775a4.46 4.46 0 0 0-1.866-1.815q-1.208-.634-2.804-.633m44.23 0q-1.597 0-2.805.633a4.46 4.46 0 0 0-1.863 1.815c-.437.785-.656 1.177-.656 2.775q0 1.597.656 2.773a4.53 4.53 0 0 0 1.863 1.825q1.208.645 2.805.644 1.598 0 2.807-.644a4.5 4.5 0 0 0 1.863-1.825c.437-.785.656-1.176.656-2.773q-.001-1.598-.656-2.775a4.46 4.46 0 0 0-1.863-1.815q-1.21-.634-2.807-.633m11.531 0q-1.597 0-2.804.633a4.46 4.46 0 0 0-1.866 1.815c-.437.785-.654 1.177-.654 2.775q0 1.597.654 2.773a4.5 4.5 0 0 0 1.866 1.825q1.207.645 2.804.644 1.598 0 2.805-.644a4.5 4.5 0 0 0 1.865-1.825c.437-.785.655-1.176.655-2.773q0-1.598-.655-2.775a4.46 4.46 0 0 0-1.865-1.815q-1.207-.634-2.805-.633m-41.267.266 4.136 9.482-1.923 4.239h3.132l6.061-13.721h-3.03l-2.62 6.39-2.54-6.39zm-14.494 2.068q1.085 0 1.67.717.582.716.582 2.172 0 2.887-2.252 2.887-2.253 0-2.252-2.887 0-2.888 2.252-2.889m44.23 0q1.086 0 1.67.717.585.716.584 2.172 0 2.887-2.254 2.887-2.252 0-2.252-2.887t2.252-2.889m11.531 0q1.086 0 1.67.717.583.716.582 2.172 0 2.887-2.252 2.887-2.253 0-2.252-2.887 0-2.888 2.252-2.889m-23.593.022q1.085-.001 1.68.724.593.73.593 2.102 0 1.391-.594 2.16-.593.767-1.677.768-1.086 0-1.68-.748-.595-.748-.596-2.139.001-1.373.596-2.121.592-.746 1.678-.746"/></svg>
