<svg xmlns="http://www.w3.org/2000/svg" viewBox="0 0 128 128"><path fill="#282828" d="M99.984 33.352a16.706 16.706 0 0 0-4.062.433c-.098.02-.18.05-.27.07a72.854 72.854 0 0 1-5.117 4.563 29.881 29.881 0 0 0 3.04 8.16c2.706 4.86 4.94 7.457 6.25 10.828 1.312 3.371 1.542 7.34.32 14.559-1.504 8.96-6.957 18.45-15.602 25.453 6.71-1.957 12.426-5.57 16.215-9.95 4.09-4.718 5.457-7.39 5.93-10.077.48-2.696.03-5.645.218-10.653.125-2.91.696-5.785 1.688-8.527l.21-.598.626-.078c5.593-.726 10.648-2.156 13.261-3.84-.84-3.773-4.402-6.707-9.129-8.93l-.449-.214-.11-.477c-1.5-6.433-6.523-10.582-13.019-10.722Zm3.254 7.949c.332-.004.664.047.98.148 1.727.551 2.669 2.422 2.106 4.18-.558 1.758-2.41 2.738-4.136 2.187-1.727-.55-2.672-2.425-2.11-4.18.445-1.39 1.723-2.335 3.16-2.335ZM72.965 16.777c-4.059-.027-8.223 1.598-11.8 5.067-4.7 4.566-6.161 8.672-5.337 13.797l.227 1.406-1.403-.227c-10.328-1.675-23.105-.828-37.644 5.051 4.277 1.832 12.117 4.89 20.82 9.066l2.766 1.333-3.004.609C26.098 55.203 12.457 61.934 0 76.62c5.574-.43 16.96-1.777 28.844-1.754 6.601.012 13.11.469 18.41 1.84 5.3 1.375 10.121 4.523 10.8 6.828.676 2.3.294 3.52-.374 5.32-.672 1.805-2.727 4.54-5.575 6.348-2.84 1.813-6.453 3.39-10.207 4.734-7.5 2.684-15.484 4.403-19.007 4.731-.746.07-1.047.336-1.332.86a5.161 5.161 0 0 0-.477 2.214c-.031 1.145.148 1.75.477 2.203.32.457.832.64 1.351.676 22.152 1.492 38.711-4.074 50.738-8.848 13.836-6.34 22.575-18.867 24.473-30.144 1.192-7.067.934-10.527-.21-13.477-1.15-2.949-3.345-5.566-6.134-10.57a32.605 32.605 0 0 1-3.414-9.309l-.129-.617.493-.394c5.125-4.106 9.3-8.594 10.816-11.864-3.11-3.304-8.48-4.003-14.496-3.359l-.492.055-.352-.36c-3.2-3.261-7.18-4.937-11.238-4.957Zm1.797 7.633a3.815 3.815 0 0 1 3.746 2.938 3.79 3.79 0 0 1-2.754 4.601 3.789 3.789 0 0 1-4.547-2.836 3.783 3.783 0 0 1 3.555-4.703Zm35.511 35.465h-.035a25.714 25.714 0 0 0-1.277 6.934c-.184 4.843.309 7.793-.25 10.933-.555 3.137-2.203 6.223-6.402 11.067-4.985 5.765-12.895 10.23-22.036 11.734a47.475 47.475 0 0 1-5.382 2.969c7.109 2.68 14.55 2.828 20.441.886 10.39-3.41 9.586-5.855 14.242-12.988 1.465-2.246 3.156-3.96 4.852-5.37 4.847 2.112 9.617 3.468 12.586 3.132 1.601-3.703-.032-8-2.75-12.067 2.23-6.933-1.157-13.863-8.657-16.32a16.304 16.304 0 0 0-5.332-.91Zm5.625 10.18a2.83 2.83 0 0 1 2.176.949c1.031 1.176.899 2.98-.297 4.035-1.199 1.05-3.007.95-4.039-.227-1.035-1.171-.902-2.976.293-4.03a2.952 2.952 0 0 1 1.867-.727Zm-46.48 30.843.266.149.27-.106c-.184-.011-.36-.02-.536-.043Zm0 0" /></svg>
