<svg xmlns="http://www.w3.org/2000/svg" viewBox="0 0 128 128"><path fill="#282828" d="M73.381 17.11c-4.153-.028-8.409 1.643-12.033 5.153-4.721 4.586-6.263 8.888-5.424 14.094l.112.71-.71-.111c-10.31-1.67-23.05-.816-37.521 5.03l-1.114.445 1.106.475c4.249 1.822 11.994 4.844 20.589 8.97v-.01l1.403.68-1.527.309C26.779 55.178 13.174 61.898.773 76.517L0 77.434l1.195-.093c5.545-.43 16.788-1.752 28.511-1.732 6.511.011 12.917.468 18.095 1.805 2.567.67 5.034 1.767 6.917 2.97 1.883 1.202 3.163 2.551 3.421 3.444.647 2.185.298 3.175-.359 4.949-.607 1.628-2.602 4.316-5.32 6.04-2.765 1.763-6.306 3.318-10.002 4.64-7.378 2.64-15.293 4.334-18.69 4.651-.422.039-.775.139-1.065.34-.289.202-.49.472-.65.763l-.01.023v.007a5.7 5.7 0 0 0-.515 2.393v.024c-.03 1.17.17 1.91.558 2.45.425.612 1.101.844 1.712.89 22.023 1.481 38.51-4.064 50.438-8.796h.011l.008-.012c13.85-6.349 22.6-18.86 24.509-30.209 1.184-7.033.936-10.581-.236-13.601-1.178-3.024-3.352-5.606-6.093-10.525a31.8 31.8 0 0 1-3.333-9.062l-.062-.322.248-.197c5.11-4.09 9.275-8.522 10.849-11.916l.142-.31-.235-.247c-3.252-3.457-8.742-4.121-14.766-3.476l-.248.02-.174-.174c-3.255-3.318-7.322-5.042-11.475-5.062Zm-.012.997c3.883.023 7.691 1.62 10.777 4.764l.514.524.73-.08c5.68-.607 10.567.147 13.518 2.97-1.536 3.062-5.363 7.291-10.247 11.208l-.723.588.186.905a32.9 32.9 0 0 0 3.433 9.353c2.78 4.983 4.95 7.593 6.043 10.403 1.095 2.82 1.354 6.117.186 13.074-1.848 10.965-10.393 23.248-23.922 29.458-.004 0-.008-.004-.011 0-.004 0-.004.007-.011.007-11.878 4.718-28.16 10.185-49.975 8.716-.425-.031-.757-.155-.97-.456v-.009c-.247-.351-.41-.788-.379-1.867v-.02a4.6 4.6 0 0 1 .414-1.948v-.011c.12-.22.217-.337.328-.414.116-.077.283-.143.6-.174 3.576-.337 11.475-2.03 18.937-4.702 3.74-1.338 7.335-2.915 10.2-4.744 2.92-1.852 4.999-4.586 5.722-6.527.662-1.793 1.08-3.2.38-5.575-.406-1.388-1.864-2.745-3.844-4.013-1.984-1.265-4.531-2.397-7.207-3.093-5.316-1.373-11.784-1.825-18.342-1.833-11.19-.02-21.347 1.152-27.108 1.639C14.577 62.63 27.51 56.048 38.46 53.833l4.424-.897-4.064-1.969c-8.088-3.878-14.96-6.572-19.32-8.413 13.725-5.282 25.878-6.21 35.672-4.62l2.064.34-.333-2.073c-.796-4.937.557-8.764 5.135-13.215 3.46-3.352 7.45-4.902 11.332-4.88zm1.775 6.557c-2.695.09-4.64 2.653-3.99 5.27a4.243 4.243 0 0 0 5.092 3.174h.012a4.26 4.26 0 0 0 3.093-5.154 4.28 4.28 0 0 0-4.199-3.29zm.03 1.002a3.266 3.266 0 0 1 3.207 2.517v.008a3.244 3.244 0 0 1-2.363 3.951 3.25 3.25 0 0 1-3.898-2.436v-.008a3.24 3.24 0 0 1 3.055-4.032zm24.951 7.845a17 17 0 0 0-4.144.445c-.132.03-.213.058-.237.06l-.154.033-.104.111c-1.516 1.505-3.217 3.008-5.03 4.485l-.24.186.061.301a30.4 30.4 0 0 0 3.063 8.217c2.702 4.845 4.902 7.411 6.155 10.652 1.26 3.229 1.492 7.048.29 14.154-1.465 8.731-6.794 18.023-15.26 24.881l.455.866c.062-.02.109-.065.174-.085 6.643-1.972 12.32-5.528 16.104-9.905 4.075-4.702 5.502-7.451 5.993-10.22.495-2.78.031-5.687.217-10.609a27.7 27.7 0 0 1 1.638-8.29l.113-.309.31-.043c5.582-.722 10.617-2.118 13.342-3.874l.287-.185-.07-.34c-.89-3.971-4.57-6.945-9.31-9.18l-.228-.112-.063-.235c-1.527-6.562-6.727-10.861-13.362-11.004m-.02 1h.01c6.22.14 10.968 4.061 12.401 10.227l.168.713.66.309c4.42 2.08 7.563 4.81 8.514 8.104-2.532 1.512-7.156 2.904-12.453 3.588l-.917.123-.32.878a28.9 28.9 0 0 0-1.69 8.588c-.185 4.995.236 7.925-.217 10.478-.452 2.556-1.732 5.088-5.753 9.732-3.271 3.78-8.196 6.816-13.827 8.827 7.586-6.817 12.69-15.405 14.094-23.756 1.214-7.188.99-11.244-.352-14.684-1.33-3.435-3.553-6.002-6.217-10.772-1.322-2.41-2.255-5.004-2.854-7.683a70 70 0 0 0 4.71-4.219c.046-.01.119-.023.146-.03v-.008a16 16 0 0 1 3.898-.414zm3.237 6.868c-1.64 0-3.093 1.083-3.6 2.66-.638 1.991.433 4.133 2.406 4.764 1.967.626 4.086-.491 4.72-2.487.638-1.991-.433-4.133-2.4-4.763a3.8 3.8 0 0 0-1.126-.174m0 1.002c.278 0 .55.038.815.123 1.447.46 2.24 2.03 1.764 3.514-.475 1.489-2.019 2.297-3.464 1.837-1.45-.464-2.243-2.019-1.764-3.506.376-1.172 1.446-1.968 2.649-1.968m6.57 17.39-.117.341a25.8 25.8 0 0 0-1.287 6.99v.012c-.182 4.837.29 7.748-.248 10.752-.53 2.994-2.088 5.951-6.217 10.714-4.849 5.606-12.581 9.976-21.517 11.445l-.104.02-.081.053a47 47 0 0 1-5.27 2.908l-1.071.502 1.102.414c7.136 2.687 14.611 2.85 20.569.886 5.177-1.698 7.66-3.194 9.392-5.185 1.735-1.991 2.686-4.369 4.972-7.869 1.373-2.103 2.957-3.696 4.555-5.04 4.69 2.006 9.286 3.386 12.341 3.042l.29-.03.113-.26c1.678-3.882-.028-8.29-2.73-12.35 2.037-6.967-1.357-13.957-8.859-16.417h-.01a16.5 16.5 0 0 0-5.434-.927zm.761 1.052c1.612.042 3.217.283 4.744.816h.008v.011c7.203 2.356 10.382 8.886 8.25 15.517l-.073.235.136.198c2.56 3.824 3.913 7.729 2.69 11.073-2.767.201-7.206-.95-11.815-2.957l-.278-.124-.24.193c-1.705 1.42-3.41 3.155-4.895 5.424-2.327 3.561-3.298 5.928-4.887 7.753-1.59 1.828-3.847 3.224-8.95 4.899-5.368 1.77-12.111 1.562-18.665-.619 1.408-.712 2.807-1.43 4.138-2.277 9.09-1.532 16.965-5.958 21.96-11.735 4.18-4.821 5.886-7.973 6.454-11.185.572-3.213.081-6.148.26-10.9l-.012.012c.097-2.154.53-4.276 1.175-6.33zm5.185 9.025a3.4 3.4 0 0 0-2.166.842c-1.38 1.218-1.534 3.326-.328 4.694 1.202 1.369 3.306 1.485 4.69.267 1.384-1.214 1.554-3.322.352-4.69h-.012a3.27 3.27 0 0 0-2.536-1.113m.023.997a2.3 2.3 0 0 1 1.772.766c.84.955.737 2.42-.248 3.286-.987.871-2.46.785-3.299-.174-.842-.954-.738-2.42.247-3.29a2.4 2.4 0 0 1 1.528-.588"/></svg>
