<svg viewBox="0 0 128 128" xmlns="http://www.w3.org/2000/svg"><defs><linearGradient id="vala-original-wordmark-a" x1="-18.592" x2="-18.592" y1="-81.414" y2="204.37" gradientTransform="translate(8.263 36.184) scale(.44444)" gradientUnits="userSpaceOnUse"><stop stop-color="#a56de2" offset="0"/><stop stop-color="#7239b3" offset="1"/></linearGradient><linearGradient id="vala-original-wordmark-b" x1="106.16" x2="105.9" y1="33.609" y2="106.44" gradientTransform="translate(-22.748 13.091) scale(.72823)" gradientUnits="userSpaceOnUse"><stop stop-color="#8b58c9" offset="0"/><stop stop-color="#743fb3" offset="1"/></linearGradient><linearGradient id="vala-original-wordmark-c" x1="69.487" x2="69.487" y1="33.614" y2="104.68" gradientTransform="translate(-22.748 13.091) scale(.72823)" gradientUnits="userSpaceOnUse"><stop stop-color="#7548b2" offset="0"/><stop stop-color="#6639a4" offset="1"/></linearGradient></defs><path fill="url(#vala-original-wordmark-a)" d="M0 0h128v128H0z"/><path d="M23.908 37.437v.004C12.315 40.421 2.347 43.51.648 54.692c-.276 1.896-.189 3.78.458 5.586.728 1.865 2.355 2.961 4.884 3.29.992.134 4.613.805 4.526-.798-.093-.54-.425-1.138-.688-1.761-.42-.92-.388-1.912-.384-2.836.144-3.246.997-5.994 2.563-8.245 1.233-1.75 2.806-3.172 4.716-4.267l1.017 43.08c0 .633.417.97 1.239.97h9.67c.698 0 .97-.243 1.2-.86 6.206-16.564 12.32-33.165 18.55-49.72.082-.839-.782-1.155-1.396-1.368h-4.544c-.8-.027-1.269.435-1.431.915L29.853 71.192l-.704-31.035v-2.003l-1.295-.587H26.56a26.52 26.52 0 00-2.651-.13zm69.772 3.552l-9.8 1.322c-.628.173-.944.484-1.244.894l-.003-.009-7.02 32.887-.018.09c-.805 2.69-1.85 4.492-3.132 5.419-.671.42-1.259.514-1.672.1-.512-.472-.777-1.204-.777-2.212 0-.185.026-.382.041-.574l4.906-23.598c.126-.471-.744-.941-1.195-1.062h-9.541c-.628.173-.945.483-1.245.893a4.82 4.82 0 00-.83-.314c-.848-.6-2.18-.902-4.007-.902-2.4 0-4.562.555-6.497 1.643a13.134 13.134 0 00-3.969 2.662c-2.566 2.48-4.54 5.618-5.92 9.413a30.52 30.52 0 00-1.389 5.209c-.444 3.902-1.014 8.34.185 11.855a7.65 7.65 0 00.73 1.465h-.012c2.605 4.512 10.295 6.501 16.576 1.299.396-.315.773-.653 1.12-1.019 1.03 2.933 3.71 4.049 6.365 4.102 2.019-.058 4.164-.416 5.853-1.038 1.638-.614 3.341-1.564 4.564-2.849.078.178.164.35.257.515l.005.007c.32.54.661.945 1.055 1.334 3.135 2.943 9.629 2.606 14.441-.594.82-.518 1.579-1.116 2.205-1.795.953 1.513 2.124 2.45 3.509 3.221 3.292 1.706 7.92 1.786 12.124-1.09.81-.523 1.58-1.134 2.228-1.851.533 1.138 1.209 2.09 2.006 2.764 1.981 1.479 4.805 1.64 7.086 1.089 1.291-.298 2.48-.91 3.34-1.77.648-.734 1.435-2.34 2.362-4.82l-.946-2.608v-.003c-.388.194-.874.292-1.456.292a4.88 4.88 0 01-.83-.073c-.39-.375-.593-.904-.593-1.603 0-.241.012-.48.03-.718l4.919-23.653-.003.003c.126-.471-.742-.94-1.194-1.061h-9.542v-.002h-.001c-.628.173-.944.484-1.243.893a4.826 4.826 0 00-.83-.312c-.847-.6-2.18-.902-4.006-.902-2.396 0-4.556.555-6.49 1.64-1.44.618-2.769 1.5-3.976 2.667-2.566 2.48-4.54 5.616-5.92 9.411a30.527 30.527 0 00-1.39 5.209c-.332 1.948-.387 3.661-.497 5.415a8.952 8.952 0 01-1.49 1.988 6.585 6.585 0 01-1.053.875 4.31 4.31 0 01-1.352.219c-.298 0-.562-.029-.81-.07-.38-.37-.58-.889-.58-1.574 0-.342.023-.686.056-1.032l7.705-36.63c.118-.47-.745-.937-1.195-1.057zM59.914 60.92c.938.09 1.151.72 1.53 1.503l-2.898 13.659c-.41 1.811-1.154 3.245-2.232 4.301a6.383 6.383 0 01-.892.716c-.961.555-1.301.824-2 .126-.819-.776-1.228-2.145-1.228-4.108 0-1.013.052-1.973.16-2.878.043-.36.102-.697.153-1.046.892-4.447 2.476-7.984 4.771-10.58.834-.812 1.984-1.582 2.636-1.692zm52.528.002c.36.003.71.17 1.024.568.03.042.065.08.091.125.183.295.318.564.415.81l-2.898 13.66c-.41 1.812-1.154 3.245-2.232 4.302a6.384 6.384 0 01-.892.715c-.818.412-1.327.638-2 .127-.819-.776-1.227-2.146-1.227-4.108 0-1.013.053-1.973.16-2.879.044-.358.102-.696.153-1.045.893-4.447 2.476-7.984 4.772-10.58l.028-.03c.666-.635 1.67-1.672 2.606-1.664z" fill="url(#vala-original-wordmark-b)"/><path d="M25.202 38.733v.002c-5.498 0-10.76 1.767-15.784 5.303-2.2 1.596-4 3.429-5.402 5.499-1.38 2.049-2.07 4.184-2.07 6.405 0 1.207.15 2.22.453 3.04.884 2.263 3.094 3.396 6.63 3.396 0-.13-.052-.28-.16-.453-.496-.905-.744-2.254-.744-4.043 0-3.687.862-6.771 2.587-9.25 1.747-2.48 4.172-4.303 7.277-5.467l1.068 45.25h9.541L47.001 39.06h-4.625L28.435 79.62l-.582-40.755a26.545 26.545 0 00-2.652-.13zm68.479 3.55l-9.8 1.326-7.084 33.184-.017.09c-1.229 4.1-3.01 6.154-5.343 6.154-1.81 0-2.716-.95-2.716-2.848 0-.668.097-1.379.291-2.133l4.755-22.513h-9.541l-.713 3.524v-.485c0-.97-.42-1.767-1.261-2.392-.841-.647-2.21-.97-4.108-.97-3.623 0-6.716 1.238-9.282 3.718s-4.54 5.618-5.92 9.413a30.52 30.52 0 00-1.39 5.208 30.149 30.149 0 00-.453 5.207c0 1.725.248 3.266.744 4.624 1.38 3.774 3.989 5.661 7.827 5.661 3.86 0 7.235-2.026 10.124-6.08.431 4.054 2.597 6.08 6.5 6.08 4.145 0 7.53-1.914 10.15-5.74.277 1.68.899 2.968 1.871 3.863 1.38 1.25 2.944 1.877 4.69 1.877 4.688 0 8.429-2.024 11.227-6.067.044.139.088.276.138.412 1.38 3.774 4.033 5.66 7.958 5.66 3.924 0 7.255-2.049 9.993-6.145.26 1.962.949 3.483 2.07 4.561 1.121 1.057 2.555 1.585 4.301 1.585 1.768 0 3.225-.627 4.368-1.878.647-.733 1.434-2.339 2.361-4.818-.388.194-.874.291-1.456.291-1.812 0-2.717-.753-2.717-2.263 0-.798.097-1.575.291-2.33l4.755-22.512h-9.542l-.712 3.525v-.485c0-.97-.42-1.768-1.261-2.393-.841-.647-2.21-.97-4.108-.97-3.622 0-6.716 1.24-9.282 3.719-2.566 2.48-4.54 5.617-5.92 9.412a30.526 30.526 0 00-1.843 10.415l.002.131a8.976 8.976 0 01-1.535 2.065c-1.1 1.122-2.295 1.681-3.589 1.681-1.79 0-2.685-.743-2.685-2.231 0-.777.085-1.565.258-2.363zM59.925 59.326c1.23 0 2.026.325 2.392.972.389.625.584 1.142.584 1.551l-3.17 14.943c-.41 1.812-1.154 3.245-2.232 4.301-1.078 1.035-2.275 1.554-3.59 1.554-.712 0-1.305-.237-1.78-.711-.82-.777-1.229-2.146-1.229-4.108 0-1.014.053-1.973.161-2.879.712-5.93 2.47-10.48 5.273-13.65 1.164-1.315 2.362-1.973 3.59-1.973zm52.528.004c1.23 0 2.027.325 2.394.972.388.625.583 1.142.583 1.552l-3.172 14.943c-.41 1.811-1.153 3.244-2.231 4.3-1.079 1.036-2.275 1.554-3.59 1.554-.712 0-1.305-.237-1.78-.711-.82-.776-1.227-2.146-1.227-4.108 0-1.013.053-1.973.16-2.879.712-5.93 2.47-10.48 5.273-13.65 1.164-1.315 2.361-1.972 3.59-1.972z" fill="url(#vala-original-wordmark-c)"/><path d="M25.202 37.439v.002c-5.498 0-10.76 1.767-15.784 5.303-2.2 1.596-4 3.429-5.402 5.499-1.38 2.049-2.07 4.184-2.07 6.405 0 1.207.15 2.22.453 3.04.884 2.263 3.094 3.396 6.63 3.396 0-.13-.052-.28-.16-.453-.496-.905-.744-2.254-.744-4.043 0-3.687.862-6.771 2.587-9.25 1.747-2.48 4.172-4.303 7.277-5.467l1.068 45.25h9.541l18.403-49.356h-4.625l-13.941 40.56-.582-40.755a26.545 26.545 0 00-2.652-.13zm68.479 3.55l-9.8 1.326-7.084 33.184-.017.09c-1.229 4.1-3.01 6.154-5.343 6.154-1.81 0-2.716-.95-2.716-2.848 0-.668.097-1.379.291-2.133l4.755-22.513h-9.541l-.713 3.524v-.485c0-.97-.42-1.767-1.261-2.392-.841-.647-2.21-.97-4.108-.97-3.623 0-6.716 1.238-9.282 3.718s-4.54 5.618-5.92 9.413a30.52 30.52 0 00-1.39 5.208 30.149 30.149 0 00-.453 5.207c0 1.725.248 3.266.744 4.624 1.38 3.774 3.989 5.661 7.827 5.661 3.86 0 7.235-2.026 10.124-6.08.431 4.054 2.597 6.08 6.5 6.08 4.145 0 7.53-1.914 10.15-5.74.277 1.68.899 2.968 1.871 3.863 1.38 1.25 2.944 1.877 4.69 1.877 4.688 0 8.429-2.024 11.227-6.067.044.139.088.276.138.412 1.38 3.774 4.033 5.66 7.958 5.66 3.924 0 7.255-2.049 9.993-6.145.26 1.962.949 3.483 2.07 4.561 1.121 1.057 2.555 1.585 4.301 1.585 1.768 0 3.225-.627 4.368-1.878.647-.733 1.434-2.339 2.361-4.818-.388.194-.874.291-1.456.291-1.812 0-2.717-.753-2.717-2.263 0-.798.097-1.575.291-2.33l4.755-22.512h-9.542l-.712 3.525v-.485c0-.97-.42-1.768-1.261-2.393-.841-.647-2.21-.97-4.108-.97-3.622 0-6.716 1.24-9.282 3.719-2.566 2.48-4.54 5.617-5.92 9.412a30.526 30.526 0 00-1.843 10.415l.002.131a8.976 8.976 0 01-1.535 2.065c-1.1 1.122-2.295 1.681-3.589 1.681-1.79 0-2.685-.743-2.685-2.231 0-.777.085-1.565.258-2.363zM59.925 58.032c1.23 0 2.026.325 2.392.972.389.625.584 1.142.584 1.551l-3.17 14.943c-.41 1.812-1.154 3.245-2.232 4.301-1.078 1.035-2.275 1.554-3.59 1.554-.712 0-1.305-.237-1.78-.711-.82-.777-1.229-2.146-1.229-4.108 0-1.014.053-1.973.161-2.879.712-5.93 2.47-10.48 5.273-13.65 1.164-1.315 2.362-1.973 3.59-1.973zm52.528.004c1.23 0 2.027.325 2.394.972.388.625.583 1.142.583 1.552l-3.172 14.943c-.41 1.811-1.153 3.244-2.231 4.3-1.079 1.036-2.275 1.554-3.59 1.554-.712 0-1.305-.237-1.78-.711-.82-.776-1.227-2.146-1.227-4.108 0-1.013.053-1.973.16-2.879.712-5.93 2.47-10.48 5.273-13.65 1.164-1.315 2.361-1.972 3.59-1.972z" fill="#fff"/></svg>
