<svg xmlns="http://www.w3.org/2000/svg" viewBox="0 0 128 128"><path d="M119.32 28.299c-.376 0-.74.049-1.09.137-.35.089-.685.217-1.007.38-.323.164-.63.362-.923.587-.292.225-.57.476-.831.748a6.846 6.846 0 0 0-1.151-.538 4.22 4.22 0 0 0-.613-.163 3.53 3.53 0 0 0-.641-.06 4.701 4.701 0 0 0-1.463.232 5.353 5.353 0 0 0-1.32.647 6.25 6.25 0 0 0-.597.454 7.031 7.031 0 0 0-.552.53 8.56 8.56 0 0 0-.953 1.244c-.085.134-.155.282-.233.422-.098-.077-.157-.178-.272-.242a2.275 2.275 0 0 0-.59-.23 2.531 2.531 0 0 0-1.045-.026c-.267.047-.524.13-.778.24-.253.11-.502.246-.751.405l-.004.002-.109.072-.093.089c-.35.34-.67.656-.963.963a12.15 12.15 0 0 0-.8.919c-.242.31-.459.63-.654.978a7.83 7.83 0 0 0-.523 1.146c-.15.41-.285.863-.415 1.374-.129.51-.253 1.08-.38 1.732-.253 1.304-.52 2.928-.872 5.033a16.27 16.27 0 0 1-.631 1.53c-.233.486-.49.948-.768 1.381a9.89 9.89 0 0 1-.907 1.208c-.327.37-.678.703-1.056 1a6.263 6.263 0 0 1-.874.575c-.31.169-.639.314-.987.438a8.27 8.27 0 0 1-1.1.304c-.386.08-.792.138-1.217.175.042-.158.127-.29.145-.46a2.81 2.81 0 0 0-.002-.616 3.003 3.003 0 0 0-.136-.612 3.173 3.173 0 0 0-.263-.585 3.36 3.36 0 0 0-.388-.541 4.441 4.441 0 0 0-.484-.47 5.5 5.5 0 0 0-.576-.42 7.475 7.475 0 0 0-.674-.38 10.58 10.58 0 0 0-.772-.346h-.001l-.107-.043-.116-.025h-.002a6.124 6.124 0 0 0-1-.122 5.56 5.56 0 0 0-.967.048c-.16.022-.31.065-.456.114-.146.05-.289.106-.434.157-.048-.157-.079-.32-.143-.472a6.04 6.04 0 0 0-.442-.842 7.203 7.203 0 0 0-.552-.761 9.16 9.16 0 0 0-.636-.692c-.224-.22-.457-.433-.696-.636a19.936 19.936 0 0 0-1.496-1.141 39.655 39.655 0 0 0-1.525-1.006c-.497-.314-.974-.607-1.405-.882-.432-.274-.817-.53-1.132-.77l-.008-.005-.002-.002-.056-.046-.074-.043-.001-.002a68.61 68.61 0 0 0-3.855-2.077 50.17 50.17 0 0 0-1.752-.828 41.935 41.935 0 0 0-1.655-.702 36.063 36.063 0 0 0-1.574-.585 32.226 32.226 0 0 0-2.97-.864 29.72 29.72 0 0 0-1.425-.302 32.728 32.728 0 0 0-2.81-.394 47.782 47.782 0 0 0-2.86-.188c-1.951-.074-4.017-.066-6.363-.091h-.082l-.077.01a58.859 58.859 0 0 0-3.51.49 48.638 48.638 0 0 0-3.244.669 40.86 40.86 0 0 0-2.99.843 34.89 34.89 0 0 0-2.758 1.021c-.881.37-1.725.769-2.535 1.198-.81.428-1.587.886-2.331 1.374a28.04 28.04 0 0 0-4.109 3.277l-.122-.039-.558.587c-.48.503-.969 1.047-1.458 1.622a45.217 45.217 0 0 0-4.225 5.903 38.96 38.96 0 0 0-1.213 2.185c-.378.737-.73 1.482-1.044 2.228a26.336 26.336 0 0 0-.83 2.235c-.236.741-.43 1.478-.573 2.201L6.955 55.29c-.05-.02-.603-.247-1.37-.494a17.543 17.543 0 0 0-1.28-.362c-.457-.11-.933-.2-1.393-.249a5.366 5.366 0 0 0-.713-.034 3.12 3.12 0 0 0-.758.11 2.12 2.12 0 0 0-.866.487 1.75 1.75 0 0 0-.535.955c-.035.177-.046.35-.037.517.01.168.038.33.081.489.087.316.23.613.392.895a8 8 0 0 0 .614.909c.248.321.54.664.882 1.039l.062.068.074.062h.002s.438.357 1.226.97a157.964 157.964 0 0 0 8.24 5.975c.922.623 1.888 1.26 2.886 1.9.999.64 2.03 1.282 3.084 1.914l.008.022a35.837 35.837 0 0 0-2.349 2.527 29.5 29.5 0 0 0-.95 1.186c-.313.413-.62.844-.913 1.289-.292.444-.57.902-.825 1.372-.256.47-.487.95-.69 1.436-.203.486-.38.98-.525 1.484a12.69 12.69 0 0 0-.502 3.136c-.019.542-.004 1.095.048 1.659.052.564.14 1.138.268 1.725.127.587.293 1.188.5 1.8.206.612.455 1.236.746 1.874a8.18 8.18 0 0 0 1.547 2.547 8.634 8.634 0 0 0 1.404 1.27c.255.185.518.36.79.524.542.328 1.115.61 1.708.859.594.249 1.21.47 1.845.676a47.93 47.93 0 0 0 1.962.582c1.34.37 2.743.722 4.18 1.149l.287.085.292-.05c.183-.03.371-.043.568-.049.446.06.876.103 1.289.13.404.026.79.036 1.159.027 0 0 .038.006.12.008h.002a5.111 5.111 0 0 0 1.465-.18 6.2 6.2 0 0 0 1.124-.334 4.52 4.52 0 0 0 .971-.538c.248-.176.48-.355.696-.539.215-.184.415-.37.599-.562a5.988 5.988 0 0 0 .864-1.12c0-.002 0-.003.002-.004a3.451 3.451 0 0 0 .632-.752 2.5 2.5 0 0 0 .219-.454c.057-.158.1-.323.128-.494.027-.17.04-.345.038-.523a3.567 3.567 0 0 0-.044-.54 6.534 6.534 0 0 0-.28-1.078 16.136 16.136 0 0 0-.51-1.277l-.005-.014c-.002-.006-.005-.02-.025-.068a16.939 16.939 0 0 0-.61-1.289 36.478 36.478 0 0 0-.661-1.203c-.22-.385-.431-.752-.622-1.099a12.34 12.34 0 0 1-.495-.975 11.57 11.57 0 0 1-.366-1.122 7.284 7.284 0 0 1-.198-1.006 5.145 5.145 0 0 1-.029-.994c.024-.313.08-.608.17-.895.091-.287.216-.565.375-.841s.354-.551.583-.83c.299.189.589.384.925.54l.002.001.112.05.122.03c.448.11.88.24 1.304.38.425.138.842.287 1.256.441l.169.122c-.176.256-.362.51-.518.78a3.102 3.102 0 0 0-.203.418 2.2 2.2 0 0 0-.126.455 4.706 4.706 0 0 0-.056.717c-.002.239.013.48.038.733.052.506.147 1.06.245 1.738l.023.165.066.157V85.7c.247.586.411 1.148.626 1.684.107.269.227.53.376.787s.328.507.552.752c.228.25.485.465.781.651.296.187.63.345 1.008.48.377.137.798.25 1.271.348.473.097.998.177 1.582.248l.27.03.26-.077c.425-.128.797-.28 1.146-.442.348-.162.673-.336.996-.51.036.567.065 1.14.163 1.656l-.004.002c.022.155.026.16.006.02l.002.005v.006c-.018-.105-.027-.073.01.087l.147.748.157.048a6.066 6.066 0 0 0 .577 1.363 6.998 6.998 0 0 0 .893 1.207 7.957 7.957 0 0 0 1.183 1.045c.44.32.925.613 1.45.876.515.258 1.068.5 1.654.723.587.223 1.208.43 1.863.624.654.193 1.343.372 2.062.54.719.169 1.468.325 2.248.473.036.021.083.053.196.095.345.13.677.195 1.029.237.352.041.724.058 1.149.087l.07.006.08-.002.001-.002a27.653 27.653 0 0 1 1.95-.018c.661.014 1.333.041 2.006.068.579.047 1.159.094 1.74.124.587.03 1.176.043 1.765.022.48-.018.961-.063 1.44-.144.48-.081.955-.2 1.427-.358a8.993 8.993 0 0 0 1.46-.502l.007-.002.087-.043.08-.05.003-.002a7.15 7.15 0 0 0 .8-.609c.246-.216.47-.446.677-.684a10.22 10.22 0 0 0 1.543-1.839h.002l.157-.236.042-.276v-.001a17.62 17.62 0 0 0 .194-1.795 21.183 21.183 0 0 0-.145-3.86 20.35 20.35 0 0 0-.351-1.954 15.17 15.17 0 0 0-.688-2.198 13.824 13.824 0 0 0-1-2.021 8.05 8.05 0 0 0 .8-.153c.262-.064.52-.142.772-.235.001.57.028 1.15.083 1.733.055.583.139 1.171.254 1.754.115.582.262 1.16.444 1.727.181.566.398 1.122.653 1.658.165.348.348.688.548 1.018.2.33.417.649.651.953.235.305.488.595.756.867.269.272.555.525.857.757.302.233.62.444.955.63a7.172 7.172 0 0 0 2.204.787c.4.071.815.11 1.246.113l-.047-.002c.269.027.531.05.79.07-.018-.005-.032-.006-.05-.01l.078.011c-.01 0-.02 0-.029-.002.615.146 1.198.256 1.746.326a11.65 11.65 0 0 0 1.601.1 8.814 8.814 0 0 0 1.446-.13c.46-.08.898-.196 1.323-.348.276-.098.543-.21.803-.333.259-.124.51-.26.76-.4l.07-.032a9.572 9.572 0 0 0 2.746-1.605c.415-.347.78-.717 1.118-1.093l.007-.006.004-.004c.125-.091.231-.173.35-.258l.003-.001.083-.06.078-.076a5.811 5.811 0 0 0 .818-1.027c.212-.339.381-.698.525-1.068l.106-.16.055-.202v-.002c.048-.175.084-.344.118-.508a7.95 7.95 0 0 0 .188-1.14c.036-.387.045-.781.03-1.178a10.635 10.635 0 0 0-.111-1.198c-.06-.4-.143-.803-.245-1.201-.16-.628-.37-1.254-.626-1.87a15.112 15.112 0 0 0-2.729-4.306 14.481 14.481 0 0 0-.726-.747 33.17 33.17 0 0 0-1.913-2.102 78.042 78.042 0 0 0-1.942-1.888 15.433 15.433 0 0 0 1.886-.17c.294-.047.577-.104.849-.171.272-.067.532-.145.779-.235a10.097 10.097 0 0 0 1.682-.788 12.12 12.12 0 0 0 1.35-.92c.805-.623 1.429-1.237 1.952-1.646l.002-.002.047-.037.039-.037h.001c.323-.302.612-.615.878-.928.267-.314.512-.627.745-.934.232-.307.453-.607.674-.89.221-.283.442-.55.674-.79a7.15 7.15 0 0 1 .74-.679c.264-.206.55-.393.877-.554a5.665 5.665 0 0 1 1.12-.405 9.101 9.101 0 0 1 1.465-.237h.002a101.12 101.12 0 0 0 2.641-.07 45.736 45.736 0 0 0 2.22-.137c.676-.06 1.293-.137 1.858-.236.565-.1 1.079-.221 1.552-.369.404-.125.77-.283 1.103-.47.333-.188.632-.405.901-.644s.507-.5.72-.781c.211-.28.395-.58.557-.891.45-.134.864-.225 1.256-.29a15.15 15.15 0 0 1 1.124-.135c.362-.032.714-.055 1.072-.091.358-.036.721-.083 1.103-.159a5.418 5.418 0 0 0 1.924-.789c.213-.14.424-.3.632-.48.204-.178.405-.373.606-.591.202-.218.403-.459.605-.721.405-.525.816-1.143 1.25-1.872l.002-.004a3.39 3.39 0 0 0 .558-1.653c.02-.3.001-.61-.06-.917a3.648 3.648 0 0 0-.318-.919 6.283 6.283 0 0 0-.523-.856 10.582 10.582 0 0 0-.72-.884c-.274-.303-.58-.616-.921-.946-.341-.33-.717-.675-1.126-1.042a2.24 2.24 0 0 0-.566-.458c-.204-.12-.417-.219-.626-.325.19-.198.383-.394.566-.601.182-.208.354-.427.505-.669.282-.448.534-.932.752-1.445.22-.514.406-1.057.557-1.625.15-.567.267-1.158.345-1.769.078-.611.118-1.242.118-1.886 0-.644-.04-1.272-.118-1.883a13.584 13.584 0 0 0-.345-1.772 12 12 0 0 0-.557-1.622 10.36 10.36 0 0 0-.752-1.445 7.189 7.189 0 0 0-.862-1.119 6.354 6.354 0 0 0-1.033-.883 5.59 5.59 0 0 0-2.47-.94l.01-.165zm-.008.994h.008a3.726 3.726 0 0 1 1.17.188 4.447 4.447 0 0 1 1.08.533c.17.115.337.243.498.382.16.139.317.288.467.45.3.322.578.686.83 1.086.251.402.479.839.678 1.307.199.467.37.966.51 1.49.139.523.246 1.073.32 1.641a14.003 14.003 0 0 1 0 3.518 12.879 12.879 0 0 1-.32 1.641 11.14 11.14 0 0 1-.51 1.49 9.285 9.285 0 0 1-.679 1.307 7.39 7.39 0 0 1-.6.827 6.255 6.255 0 0 1-.683.696l-.633.549.786.29c.267.099.516.213.743.355.226.142.43.31.608.517l.02.024.025.023c.41.367.78.71 1.11 1.03.331.322.623.624.878.908.256.284.475.55.66.804.183.255.332.496.449.729.112.225.189.451.234.674a2.394 2.394 0 0 1-.357 1.826l-.005.012-.006.01c-.423.71-.817 1.3-1.192 1.786-.188.243-.37.462-.55.657-.18.195-.358.367-.534.52a5.025 5.025 0 0 1-.527.403 4.41 4.41 0 0 1-1.048.507c-.174.057-.347.1-.52.134a9.34 9.34 0 0 1-1.036.138c-.352.03-.715.05-1.1.083-.383.033-.786.076-1.224.153-.438.077-.908.185-1.422.347l-.21.066-.093.2a5.295 5.295 0 0 1-.465.821 4.188 4.188 0 0 1-.608.698c-.23.21-.49.398-.785.562a5.21 5.21 0 0 1-.995.418c-.426.133-.902.245-1.436.338-.533.092-1.125.165-1.783.224-.657.06-1.381.105-2.18.138-.798.034-1.671.055-2.628.07h-.017l-.017.002a10.56 10.56 0 0 0-.863.11 8.659 8.659 0 0 0-.771.167 6.991 6.991 0 0 0-1.304.482 6.232 6.232 0 0 0-1.043.65 7.478 7.478 0 0 0-.853.765 11.91 11.91 0 0 0-.742.86c-.235.296-.461.598-.69.9-.229.302-.46.604-.707.897a9.795 9.795 0 0 1-.797.849l-.008.012-.015.011c-.593.464-1.21 1.061-1.96 1.644-.374.29-.78.577-1.234.843a9.4 9.4 0 0 1-1.516.713 9.044 9.044 0 0 1-.905.273 9.979 9.979 0 0 1-1.005.194c-.354.05-.728.086-1.12.103-.393.017-.805.016-1.24-.004l-1.36-.062 1 .922c.744.686 1.525 1.43 2.303 2.225.389.397.777.806 1.159 1.227.382.42.757.853 1.122 1.294l.02.024.02.019c.467.446.901.927 1.3 1.434a14.21 14.21 0 0 1 1.924 3.283 12.8 12.8 0 0 1 .583 1.737c.094.367.168.735.223 1.1.054.366.09.73.102 1.088.013.357.005.71-.027 1.052a6.907 6.907 0 0 1-.162.998l-.002.008-.002.008a7.85 7.85 0 0 1-.109.465l-.002.002-.011.046-.058.085-.02.057a5.243 5.243 0 0 1-.479.974 4.786 4.786 0 0 1-.678.853l-.017.016-.02.013v.002c-.143.102-.256.19-.38.28l-.044.03-.035.04a9.917 9.917 0 0 1-1.081 1.055 8.734 8.734 0 0 1-1.332.917c-.37.206-.766.393-1.2.558l-.036.014-.033.017a11.04 11.04 0 0 1-.729.382 7.972 7.972 0 0 1-.746.312c-.374.133-.76.236-1.167.308-.406.071-.835.11-1.29.114-.456.005-.94-.025-1.462-.093a16.097 16.097 0 0 1-1.682-.318l-.037-.01-.04-.001c-.26-.02-.525-.045-.795-.072l-.023-.002h-.023a6.535 6.535 0 0 1-1.088-.099 6.118 6.118 0 0 1-1.918-.68 6.552 6.552 0 0 1-.832-.552 7.302 7.302 0 0 1-.748-.67 8.304 8.304 0 0 1-.664-.772c-.208-.273-.4-.56-.58-.859-.18-.298-.344-.607-.496-.926a13.354 13.354 0 0 1-.663-1.692 15.445 15.445 0 0 1-.447-1.78 16.46 16.46 0 0 1-.24-1.805 15.84 15.84 0 0 1-.04-1.762l.03-.818-.739.353a6.27 6.27 0 0 1-1.225.436 7.23 7.23 0 0 1-1.335.192l-.888.046.506.731c.218.315.418.648.603.998s.356.717.51 1.095c.154.378.292.77.416 1.169.124.4.234.807.33 1.22.141.612.25 1.233.331 1.857a20.403 20.403 0 0 1 .14 3.679 16.495 16.495 0 0 1-.18 1.693l-.01.064-.037.057c-.226.338-.458.645-.696.926a9.153 9.153 0 0 1-.728.77l-.018.017-.017.021a6.278 6.278 0 0 1-1.281 1.118l-.022.014-.017.008h-.002l-.012.005a8.072 8.072 0 0 1-1.316.45l-.019.004-.017.006a8.335 8.335 0 0 1-1.28.32c-.432.073-.87.115-1.311.131-.55.02-1.11.008-1.679-.021a59.541 59.541 0 0 1-1.73-.122l-.012-.002h-.01c-.67-.027-1.346-.056-2.021-.07a28.918 28.918 0 0 0-2.02.022h-.035l-.003-.002c-.436-.03-.783-.049-1.085-.084a3.374 3.374 0 0 1-.814-.18c-.002 0-.052-.03-.16-.081l-.058-.03-.063-.011a52.693 52.693 0 0 1-2.231-.467 36.626 36.626 0 0 1-2.027-.533 25.15 25.15 0 0 1-1.81-.605 16.97 16.97 0 0 1-1.578-.686 10.243 10.243 0 0 1-1.4-.839 7.874 7.874 0 0 1-.59-.469 6.61 6.61 0 0 1-.512-.5 5.74 5.74 0 0 1-.434-.533 4.76 4.76 0 0 1-.808-1.79l-.062-.283-.039-.012-.037-.188-.002-.006c.024.101.015.05.002-.025-.004-.023-.016-.097-.004-.012l-.474.182v-.005l.474-.196a13.092 13.092 0 0 1-.219-2.229l-.01-.89-.751.476c-.346.218-.73.425-1.161.618-.43.192-.906.37-1.43.529l-.062.017-.062-.006h-.002a18.93 18.93 0 0 1-1.487-.234c-.43-.088-.8-.187-1.12-.3a4.205 4.205 0 0 1-.825-.388 2.818 2.818 0 0 1-.595-.49 3.177 3.177 0 0 1-.429-.595 5.4 5.4 0 0 1-.312-.675c-.189-.48-.36-1.027-.631-1.669l-.014-.034-.006-.035v-.004c-.1-.691-.187-1.226-.234-1.682a6.253 6.253 0 0 1-.039-.634c0-.199.013-.387.043-.576.017-.109.056-.229.11-.356a3.9 3.9 0 0 1 .207-.405c.165-.285.376-.597.597-.927l.27-.4-.295-.21.27-.151-1.006-.376c-.44-.165-.888-.328-1.35-.479-.46-.15-.936-.29-1.431-.413h-.002l-.03-.006-.02-.011h-.002a8.408 8.408 0 0 1-1.218-.711l-.354-.243-.291.314a6.848 6.848 0 0 0-.82 1.074 5.227 5.227 0 0 0-.77 2.324c-.034.411-.025.838.028 1.28.044.37.12.75.225 1.146.105.395.238.805.399 1.229l.006.011.004.012c.15.344.332.697.53 1.062.2.364.416.74.634 1.122.218.382.44.772.648 1.169a15.25 15.25 0 0 1 .604 1.285l.002.005.002.006c.203.46.363.855.483 1.204.12.348.199.65.242.92.042.264.04.516.004.742-.037.227-.11.428-.21.59a2.7 2.7 0 0 1-.505.593l-.056.05-.037.064c-.1.17-.213.338-.341.506a5.93 5.93 0 0 1-.432.502 7.18 7.18 0 0 1-.528.494 8.71 8.71 0 0 1-.626.484l-.003.002-.004.004a3.577 3.577 0 0 1-.768.425c-.286.117-.604.21-.953.28l-.018.005-.015.003a4.167 4.167 0 0 1-1.2.148s-.038-.006-.12-.008h-.025c-.357.009-.735 0-1.134-.025-.4-.026-.82-.068-1.262-.128l-.04-.006-.041.002a5.056 5.056 0 0 0-.703.062l-.068.012-.066-.02c-1.462-.434-2.872-.792-4.198-1.159a48.061 48.061 0 0 1-1.92-.568 22.178 22.178 0 0 1-1.768-.643 12.506 12.506 0 0 1-1.581-.789 9.445 9.445 0 0 1-.713-.47 8.222 8.222 0 0 1-.657-.532 7.452 7.452 0 0 1-1.124-1.267 7.218 7.218 0 0 1-.456-.752 7.74 7.74 0 0 1-.38-.84l-.006-.013-.007-.015a19.582 19.582 0 0 1-.717-1.785 15.718 15.718 0 0 1-.48-1.692 13.263 13.263 0 0 1-.257-1.61 11.839 11.839 0 0 1-.048-1.537 11.378 11.378 0 0 1 .475-2.898c.138-.466.304-.925.496-1.38.192-.454.41-.902.65-1.346.24-.442.504-.877.784-1.3.28-.424.574-.837.876-1.235a31.472 31.472 0 0 1 1.823-2.179c.6-.658 1.16-1.224 1.605-1.66l.229-.225-.343-.927-.15-.089c-1.053-.63-2.086-1.27-3.085-1.909a141.511 141.511 0 0 1-2.887-1.9 154.955 154.955 0 0 1-8.264-5.995 86.827 86.827 0 0 1-1.234-.977l-.004-.002-.014-.011-.015-.018a15.546 15.546 0 0 1-.828-.977 7.053 7.053 0 0 1-.54-.794 3.02 3.02 0 0 1-.297-.647 1.167 1.167 0 0 1-.027-.568.644.644 0 0 1 .097-.225 1.12 1.12 0 0 1 .174-.204c.133-.123.292-.216.42-.252.17-.047.342-.068.522-.073.18-.005.372.007.581.029a9.7 9.7 0 0 1 1.254.229 19.563 19.563 0 0 1 2.514.808l.013.004 14.962 5.25.095-.584c.112-.692.28-1.406.498-2.132.217-.725.482-1.461.787-2.203a30.67 30.67 0 0 1 1.023-2.23c.375-.743.781-1.481 1.211-2.208a45.64 45.64 0 0 1 4.264-6.004c.492-.583.984-1.13 1.465-1.634l.132-.137.067.021.214-.21a26.895 26.895 0 0 1 3.994-3.25 27.733 27.733 0 0 1 2.273-1.36c.792-.424 1.62-.82 2.485-1.186a33.954 33.954 0 0 1 2.709-1.011 39.872 39.872 0 0 1 2.957-.838c1.029-.25 2.1-.469 3.22-.66a58.873 58.873 0 0 1 3.501-.489h.002l.021-.002h.018c2.354.025 4.4.012 6.316.08.957.033 1.882.087 2.796.174.914.087 1.818.209 2.733.378a28.237 28.237 0 0 1 2.798.667c.48.14.968.295 1.467.469.5.173 1.01.364 1.533.573.524.21 1.062.44 1.617.69.554.25 1.125.52 1.715.814a69.703 69.703 0 0 1 3.794 2.053l.01.005.016.014.005.004c.352.266.761.54 1.206.825.445.286.925.582 1.416.892.492.31.995.633 1.487.975.492.34.971.7 1.417 1.08.222.188.437.383.64.582.201.2.39.404.565.617.175.212.336.432.479.659.142.227.266.462.37.705.107.251.185.516.24.795l.122.62.574-.266c.187-.086.375-.162.566-.223.19-.06.384-.104.581-.131.258-.036.522-.049.793-.039.271.01.55.044.837.103l-.004-.002.031.006.027.011a7.93 7.93 0 0 1 1.28.64c.175.112.335.228.476.347.142.118.266.239.376.364a2.351 2.351 0 0 1 .456.783c.045.137.075.275.09.41.016.137.017.27.003.4a2.373 2.373 0 0 1-.105.483 3.04 3.04 0 0 1-.198.463l-.383.736.829-.01a10.58 10.58 0 0 0 1.618-.139c.51-.085.993-.206 1.448-.362a8.271 8.271 0 0 0 3.04-1.851c.199-.188.39-.386.572-.591.365-.411.698-.856 1.002-1.33.305-.473.58-.974.83-1.498.25-.523.472-1.068.672-1.63l.014-.04.008-.043c.358-2.14.629-3.776.88-5.062.125-.643.247-1.198.37-1.686.123-.489.247-.91.383-1.283a6.534 6.534 0 0 1 1.035-1.876c.216-.276.458-.545.733-.831.275-.287.584-.589.932-.927v-.002l.023-.023.026-.016.004-.001c.214-.137.414-.247.606-.33a2.5 2.5 0 0 1 .556-.172 1.664 1.664 0 0 1 .642.013c.121.029.235.074.335.13.102.057.192.123.273.198.082.075.155.159.225.254l.49.657.355-.739c.15-.313.313-.61.487-.887.251-.4.528-.767.83-1.09.15-.16.307-.312.468-.451a5.07 5.07 0 0 1 .498-.382c.171-.115.347-.217.527-.306a3.836 3.836 0 0 1 1.128-.366 3.72 3.72 0 0 1 1.748.137c.185.06.367.135.545.223.178.088.35.19.521.302l.324.324.349-.401c.233-.268.481-.51.74-.721a4.85 4.85 0 0 1 .81-.54 4.07 4.07 0 0 1 .876-.342c.301-.078.612-.117.93-.118zm.006 1.09c-.906 0-1.788.47-2.55 1.36.274.31.529.652.759 1.019 1.067 1.7 1.694 3.966 1.694 6.46 0 2.34-.553 4.483-1.504 6.143.511.333 1.051.507 1.6.507 1.14 0 2.247-.736 3.12-2.128.875-1.39 1.45-3.393 1.45-5.616s-.575-4.223-1.45-5.614c-.873-1.391-1.98-2.13-3.12-2.13zm-6.256 1.094c-1.14 0-2.245.739-3.118 2.13-.874 1.39-1.45 3.391-1.45 5.614s.576 4.225 1.45 5.617c.873 1.39 1.979 2.127 3.118 2.127 1.14 0 2.246-.736 3.12-2.127.874-1.392 1.45-3.394 1.45-5.617s-.576-4.223-1.45-5.614-1.98-2.13-3.12-2.13zm-6.494 2.986a.557.557 0 0 0-.165.012c-.147.026-.404.134-.717.326-1.322 1.284-1.889 1.848-2.365 3.15-.486 1.334-.868 3.553-1.604 7.956l-.054.314-.11.082c-.845 2.275-2.069 4.371-3.933 5.833-1.848 1.45-4.335 2.177-7.382 1.954a13.7 13.7 0 0 1-.581.51c-1.486 1.467-2.375 3.665-3.138 6.387-.438 1.563-.843 3.299-1.308 5.126a35.996 35.996 0 0 1-.785 3.089 31.066 31.066 0 0 0 1.688.45c3.342.792 5.64.664 7.235.087 1.95-.706 3.075-1.982 4.366-3 .978-.921 1.71-2.235 2.886-3.456 1.178-1.223 2.857-2.278 5.525-2.507l.029-.002.027-.002c3.835-.059 6.291-.26 7.775-.721 1.25-.39 1.81-.853 2.204-1.706-4.62-.583-7.122-2.82-8.87-5.924l1.383-.78c1.801 3.198 3.91 5.065 9.266 5.255l-.004.134c1.828-.444 3.134-.308 4.073-.495.558-.11 1.015-.296 1.59-.796.575-.5 1.25-1.34 2.07-2.721l.011-.02.012-.017c.34-.508.398-.725.054-1.413-.344-.688-1.252-1.741-2.901-3.211l-.043-.037-.035-.042c-.345-.408-1.36-.72-2.48-.93a4.225 4.225 0 0 1-.97.114c-.889 0-1.718-.282-2.459-.766l-.178.103c-.986 1.074-2.23 1.756-3.618 1.756-1.823 0-3.398-1.173-4.465-2.872-1.068-1.7-1.692-3.969-1.692-6.462 0-1.126.128-2.206.366-3.21-.029-.15-.057-.299-.091-.431-.174-.686-.425-1.027-.53-1.086a.21.21 0 0 0-.082-.03zm14.942 1.033a2.086 3.375 0 0 1 2.085 3.376 2.086 3.375 0 0 1-2.085 3.374 2.086 3.375 0 0 1-2.088-3.374 2.086 3.375 0 0 1 2.088-3.376zm-68.972.944c-9.794 1.082-16.123 3.979-20.845 8.799l-.134.135c-3.922 4.164-8.517 11.6-8.938 16.665 3.883.998 6.55 1.895 9.053 3.157 1.121.42 1.897.903 2.58 1.458 1.654 1.02 3.413 2.243 5.62 3.858 4.617 2.487 8.22 2.358 11.72 1.549 3.51-.811 6.886-2.387 10.758-2.648l.047-.004.046.002c.96.048 1.446.032 1.816.02.37-.013.698-.018 1.115.073.833.182 2.001.647 6.12 2.033l.08.027.07.043c.999.59 1.677.57 2.388.211.712-.359 1.46-1.183 2.13-2.356 1.341-2.347 2.36-5.974 3.041-9.25l.006-.037.011-.035c1.16-3.766 2.196-6.93 3.584-9.15a8.91 8.91 0 0 1 1.279-1.621 2.782 2.782 0 0 0-.223-1.338c-.312-.733-.942-1.467-1.758-2.16-1.607-1.367-3.85-2.522-5.395-3.679l-.006-.004c-10.695-6.18-14.757-5.653-24.165-5.748Zm62.398.396a2.285 3.525 0 0 1 2.285 3.525 2.285 3.525 0 0 1-2.285 3.525 2.285 3.525 0 0 1-2.285-3.525 2.285 3.525 0 0 1 2.285-3.525zm-67.295 8.05c1.03 0 2.08.125 3.15.376 1.078.243 2.238.662 3.478 1.254v2.856h-.22c-.25-.194-.616-.449-1.094-.765a10.42 10.42 0 0 0-1.411-.79 10.143 10.143 0 0 0-1.907-.62c-.706-.171-1.51-.257-2.409-.257-2.026 0-3.63.653-4.814 1.958-1.175 1.297-1.763 3.056-1.763 5.279 0 2.342.614 4.168 1.846 5.475 1.233 1.297 2.911 1.943 5.035 1.943a11.8 11.8 0 0 0 2.322-.23c.778-.154 1.46-.352 2.043-.595v-4.438h-4.851v-2.117h7.234v7.768c-.989.454-2.07.851-3.246 1.192a12.36 12.36 0 0 1-3.391.498c-1.41 0-2.705-.194-3.88-.583-1.175-.39-2.177-.972-3.004-1.75-.835-.787-1.478-1.769-1.932-2.944-.454-1.184-.682-2.565-.682-4.146 0-2.894.843-5.176 2.529-6.847 1.694-1.678 4.016-2.517 6.967-2.517zm10.564.203h2.577v2.373h-2.577zm6.952.745h2.284v3.903h4.72v1.922h-4.72v6.19c0 .714.016 1.273.049 1.679.032.397.146.77.341 1.12.178.324.42.563.729.717.316.146.795.219 1.436.219.372 0 .761-.054 1.166-.16.406-.113.698-.205.876-.278h.122V63.2h-.001c-.43.114-.899.206-1.41.28a9.488 9.488 0 0 1-1.35.108c-1.386 0-2.44-.373-3.161-1.119-.721-.745-1.081-1.941-1.081-3.587V51.66h-1.545v-1.922h1.545zm22.209 3.628a2.853 2.853 0 0 0-1.312.368c-.663.37-1.296 1.034-1.901 2.002-1.21 1.935-2.257 5.028-3.411 8.775-.695 3.333-1.695 7.014-3.198 9.643-.756 1.324-1.643 2.408-2.794 2.989-1.126.567-2.502.529-3.82-.215-4.064-1.368-5.358-1.85-5.894-1.967-.27-.059-.356-.051-.723-.04-.35.012-.934.024-1.858-.018-3.493.236-6.784 1.751-10.502 2.61-3.72.86-7.897.974-12.864-1.711l-.049-.027-.043-.031c-7.096-5.199-9.268-6.409-17.715-8.51l-.006-.002-.005-.002c-.274-.072-1.105-.128-1.9-.01-.794.12-1.574.414-1.953.774-.38.36-.543.675-.167 1.585.348.84 1.361 2.123 3.229 3.738 2.567-.149 4.593.466 6.15 1.037l.065.023.062.037c2.421 1.42 3.928 2.432 4.985 3.436a7.918 7.918 0 0 1 1.783 2.49c.596.488 1.187.902 1.808 1.189 4.934 1.26 7.947 3.672 13.213 3.887.144-.066.298-.119.444-.182.59-.6 1.285-1.14 2.1-1.585l.047-.027.05-.018c2.686-1.03 6.793-1.435 10.747-1.242 3.785.185 7.379.849 9.45 2.46.4.1.802.192 1.201.302 2.054.036 3.393-.583 4.886-2.341.7-.827 1.414-1.926 2.178-3.297l.077-.18c.511-1.194 1.026-2.426 1.657-3.479.147-.245.302-.482.466-.707.22-.468.43-.89.662-1.396.549-1.697.982-3.363 1.382-4.969.289-1.54.522-3.05.857-4.506.653-2.837 1.765-5.511 4.492-7.513.569-.575.945-1.15.986-1.53.028-.252-.012-.446-.282-.753-.258-.293-.808-.656-1.642-1.008a4.144 4.144 0 0 0-.938-.08zM70.93 73.024l.06.02-.151-.069c.03.018.06.032.09.049zM58.35 49.73h2.287v13.583H58.35ZM2.375 56.248c-.087.004-.157.014-.22.022.013.059-.005.063.131.3.203.356.602.881 1.198 1.539.072.059 5.695 4.498 12.694 8.948a6.204 6.204 0 0 1-.396-.774c-.551-1.333-.236-2.61.54-3.347.763-.723 1.79-1.03 2.757-1.18L6.222 57.245l-.015-.006s-2.19-.84-3.512-.979a2.148 2.148 0 0 0-.32-.012zm19.33 14.768a12.45 12.45 0 0 0-1.81.076c-.413.4-1.18 1.105-2.22 2.244-1.143 1.254-2.437 2.857-3.327 4.496l-.002.002c-1.819 3.354-2.222 6.628-.073 11.304l.011.023.01.026c.495 1.3 1.25 2.216 2.263 2.936 1.246-4.815 3.16-7.396 5.708-8.53 1.345-.598 2.798-.792 4.347-.773 1.206.015 2.488.17 3.808.351a8.701 8.701 0 0 1-.054-.386c-.235-1.975.441-3.76 1.8-5.339-.376-.897-.727-1.595-1.52-2.349-.878-.835-2.305-1.806-4.63-3.172-1.21-.443-2.608-.854-4.311-.91zm62.642.1c-.378.159-.765.477-1.144.958-.763 1.613-1.48 3.067-2.159 4.283-.467 1.09-.95 2.18-1.54 3.113a5.314 5.314 0 0 1-1.911 1.83c-.232 2.298.124 5.16 1.192 7.406.799 1.682 1.91 2.979 3.428 3.576-1.36-3.557-.324-7.008 1.603-9.739l-.006-.027.04-.023c.18-.253.365-.5.559-.74 2.149-2.657 4.98-4.608 7.209-5.502-1.272-1.387-2.618-2.668-3.831-3.772-.64-.57-1.029-.874-1.35-1.046a27.358 27.358 0 0 1-1.123-.262 33.776 33.776 0 0 0-.967-.054zm8.358 6.505c-.948.312-2.228.966-3.542 1.89 1.66 1.413 5.031 3.945 6.581 9.35.247-.34.485-.692.725-1.05a4.8 4.8 0 0 0 .068-.215c.59-2.575-.398-5.292-2.161-7.91a25.185 25.185 0 0 0-1.175-1.585 12.707 12.707 0 0 0-.496-.48zM60.44 80.004c-3.313-.026-6.615.407-8.626 1.167-1.931 1.074-3.026 2.7-3.585 4.498-.52 1.676-.52 3.462-.279 4.954l.047.467c.147 1.526 1.186 2.71 3.283 3.761 1.416.71 3.292 1.307 5.523 1.812l.015-.04c1.848-4.66 4.29-7.641 7.109-9.467 2.603-1.686 5.49-2.367 8.442-2.597-.482-.902-1.063-1.667-1.735-2.212l-.011-.01-.012-.009c-1.376-1.208-4.97-2.098-8.754-2.283a34.92 34.92 0 0 0-1.417-.04zm27.437.495a16.775 16.775 0 0 0-2.128 2.131l.037.026c.52.373 1.22.95 1.963 1.767 1.44 1.586 3.036 4.092 3.77 7.738l.12-.042c.836-.492 1.743-1.162 2.804-1.944-1.351-5.855-4.716-8.039-6.566-9.676zm-48.324.395c-.521.721-.854 1.225-.917 1.626-.071.453.039 1.18.225 2.473.524 1.267.741 2.101 1.126 2.521.384.42 1.19.768 3.167 1.03 1.543-.492 2.535-1.095 3.188-1.749.085-.533.205-1.068.37-1.599a10 10 0 0 1 .924-2.099c-2.512-.203-4.521-.781-5.915-1.337-.78-.311-1.403-.597-1.833-.754-.306-.111-.307-.098-.335-.112zm45.25 3.014c-1.636 2.493-2.307 5.376-.827 8.451.518.157.989.279 1.44.386 1.843.12 3.337.04 4.562-.184-.666-3.397-2.119-5.653-3.406-7.07a11.085 11.085 0 0 0-1.713-1.545c-.02-.015-.036-.024-.056-.038zm-58.184.52c-.486-.005-.944.019-1.39.06.614.961 1.248 2.024 1.655 3.453.51 1.791.637 4.123.052 7.502.045.006.094.017.138.023.118.016.225.025.34.039.639.008 1.215.061 1.718.094a9.56 9.56 0 0 0 .58-.023c.783-5.213-.615-8.042-2.258-11.11a17.564 17.564 0 0 0-.835-.037zm2.726.224c1.397 2.737 2.578 5.814 2.037 10.455a5 5 0 0 0 .74-.701l.004-.002.002-.004c.631-.7 1.166-1.126 1.53-1.419.068-.16.124-.32.16-.476.173-.74.027-1.524-.321-2.384l-.01-.022c-1.207-1.934-2.108-3.656-2.638-5.255-.518-.073-1.01-.132-1.504-.192zm-5.796.157a6.104 6.104 0 0 0-.636.236c-2.02.9-3.646 3.015-4.818 7.61 2.788 1.204 5.242 2.027 7.28 2.491.551-3.2.411-5.256-.02-6.77-.409-1.435-1.09-2.444-1.806-3.567zm49.407 1.316c-1.515.093-2.979.299-4.376.688 1.931 1.834 3.884 4.042 4.343 8.645.993-1.444 1.193-3.31 1.02-5.08a12.496 12.496 0 0 0-.725-3.135 5.64 5.64 0 0 0-.43-.91 1.293 1.293 0 0 0-.119-.162c-.008-.008.02.072.264.109zm-6.064 1.27c-.723.3-1.426.656-2.103 1.094-.233.15-.46.321-.688.492 2.006 1.335 3.97 4.053 4.723 8.401.763-.06 1.48-.163 2.115-.356a5.56 5.56 0 0 0 .482-.242c-.195-5.605-2.24-7.289-4.529-9.388zm31.493 1.294a.242.242 0 0 1-.01.023l-.006.01-.012.023-.001.006s-.002 0-.002.002l-.002.001-.008.018-.014.021.022-.039zm-35.551 1.383c-1.604 1.566-3.048 3.726-4.283 6.669.12.112.257.257.38.36.425.079.858.156 1.304.23 1.263-.073 2.471-.016 3.62.065 1.171.026 2.303.062 3.37.054-.78-4.19-2.779-6.467-4.391-7.378zm33.71 1.138-.047.046-.008.008-.017.014-.004.002.002-.002h.002zM35.28 94.365a.508.508 0 0 1-.02.033l-.009.01-.04.05a.468.468 0 0 1-.024.023z"/></svg>
