<svg xmlns="http://www.w3.org/2000/svg" viewBox="0 0 128 128" stroke="#000"><g fill-rule="evenodd"><path d="M2.387 53.923c-.442-.046-.864-.059-1.296.06s-.946.512-1.056 1.061.079 1.031.384 1.56.768 1.127 1.442 1.861l.039.042.044.037a144.82 144.82 0 0015.908 11.014l1.941 1.145-.782-2.105-1.437-3.868 4.119-1.772.355-2.478-15.699-5.475-.029-.011h0c-.051-.021-2.185-.89-3.933-1.073zm-.167 1.583c1.333.139 3.54.98 3.54.98l.015.006 14.505 5.059-.044.303-4.686 2.017 1.141 3.07c-7.552-4.674-13.595-9.519-13.673-9.583-.602-.66-1.002-1.186-1.207-1.543-.137-.238-.118-.243-.132-.301a2.12 2.12 0 01.542-.008z"/><path d="M52.347 34.067l-.048.006c-9.871 1.075-16.596 4.028-21.6 8.915l-.052-.021-.375.39c-4.31 4.491-9.412 12.312-9.627 18.325l-.003.099.021.096c.164.763.39 1.371.847 1.827s1.053.649 1.692.766c1.279.234 3.021.265 6.06.994 3 .719 3.477 1.377 5 2.802s3.9 3.481 10.068 6.494l.124.061.136.016 2.447.272c.467.037.83.008 1.103-.11s.285-.164.639-.283 1.01-.287 2.234-.482l.114-.018.105-.05c7.492-3.57 7.082-3.305 13.085-2.812 3.487.494 2.103-.045 8.376 2.529l.314.129.312-.135c1.047-.455 1.709-.789 2.201-1.13s.81-.73 1.016-1.094c.412-.729.508-1.302 2.049-2.932l.036-.038.031-.042c.935-1.29 1.188-2.05 1.307-2.959s.179-2.014.916-4.652v-.001c1.499-5.348 1.534-4.801 4.548-10.688l.013-.026.011-.026c.549-1.295.496-2.571.034-3.648s-1.278-1.967-2.207-2.752c-1.859-1.57-4.247-2.781-5.589-3.793l-.039-.03-.044-.025c-11.003-6.325-15.736-5.877-25.209-5.974zm.086 1.593c9.49.095 13.583-.441 24.369 5.76 1.558 1.158 3.818 2.316 5.437 3.683.822.694 1.456 1.427 1.771 2.162s.361 1.458-.034 2.398c-2.962 5.781-3.138 5.575-4.642 10.941v.001c-.763 2.732-.854 4.065-.961 4.872s-.158 1.043-1.012 2.223c-1.601 1.711-1.96 2.717-2.219 3.175-.131.232-.207.339-.537.569-.283.196-.888.493-1.649.837-5.667-2.321-5.103-2.026-8.448-2.504l-.024-.004-.024-.002c-5.955-.488-6.418-.608-13.836 2.924-1.152.19-1.901.363-2.356.515-.481.161-.75.325-.765.331s.054.014-.338-.017c-.368-.029-1.107-.118-2.243-.25-5.956-2.922-8.089-4.787-9.563-6.165-1.484-1.388-2.511-2.421-5.722-3.19-3.165-.759-5.124-.824-6.145-1.011-.511-.093-.716-.192-.847-.324-.122-.122-.259-.397-.387-.937.231-5.016 4.905-12.611 8.916-16.901l.269-.274c4.756-4.828 11.126-7.731 20.99-8.811z"/><path d="M87.053 47.143c-.575.08-1.118.26-1.615.536-.994.551-1.794 1.44-2.492 2.552-1.398 2.223-2.44 5.391-3.609 9.16l-.011.036-.007.037c-.685 3.281-1.712 6.913-3.064 9.263-.676 1.175-1.429 2.002-2.147 2.362s-1.402.378-2.408-.212l-.072-.042-.079-.026-6.165-2.035c-.419-.091-.75-.088-1.123-.076s-.862.029-1.829-.019l-.047-.002-.047.003c-3.903.263-7.306 1.842-10.842 2.653-3.529.81-7.158.941-11.812-1.554-7.126-5.181-9.781-6.616-18.332-8.73-.672-.177-1.571-.193-2.562-.046s-2.052.455-2.835 1.193-1.101 2.014-.546 3.35 1.82 2.84 4.125 4.739l.294.243.277-.055c4.016.161 6.44 1.558 8.459 3.202 2.031 1.655 3.599 3.629 5.875 4.673l.069.032.074.018c4.743 1.167 7.982 3.788 13.87 3.999l.197.007.178-.084c5.945-2.839 15.061-2.6 23.552-.248l.097.027.101.002c2.477.051 4.486-.892 6.213-2.912s3.29-5.071 5.34-9.488l.019-.043.015-.045c1.11-3.405 1.752-6.635 2.524-9.371s1.673-4.943 3.178-6.412l-.055.049c1.038-.841 2.06-1.828 2.206-3.165.073-.668-.158-1.396-.674-1.978s-1.278-1.056-2.339-1.481l-.067-.027-.071-.014a5.355 5.355 0 00-1.811-.07zm.223 1.566c.361-.049.759-.025 1.204.06.861.356 1.397.723 1.661 1.02.273.308.311.502.284.755-.055.506-.711 1.362-1.626 2.102l-.029.023-.026.025c-1.842 1.797-2.801 4.293-3.598 7.119-.793 2.813-1.427 5.988-2.492 9.266-2.024 4.359-3.577 7.315-5.084 9.079-1.497 1.752-2.842 2.376-4.897 2.347-8.607-2.361-17.812-2.706-24.307.289-5.281-.233-8.302-2.647-13.273-3.901-1.796-.831-3.338-2.675-5.515-4.449-2.128-1.734-4.944-3.306-9.18-3.533-2.066-1.732-3.145-3.09-3.512-3.973-.379-.911-.214-1.228.168-1.588s1.169-.655 1.969-.774 1.64-.063 1.915.01l.006.001.006.002c8.509 2.103 10.698 3.316 17.849 8.518l.044.032.048.025c5.005 2.692 9.214 2.578 12.962 1.718 3.743-.859 7.059-2.374 10.576-2.614a22.85 22.85 0 001.88.02c.369-.012.458-.019.729.04.543.118 1.835.598 5.998 1.989l-.151-.069c1.357.795 2.782.843 3.942.261s2.054-1.667 2.816-2.993c1.514-2.633 2.521-6.319 3.222-9.656v-.002c1.163-3.749 2.218-6.847 3.436-8.784.609-.969 1.247-1.634 1.915-2.005a2.98 2.98 0 011.057-.36z"/><path d="M21.285 68.661a13.77 13.77 0 00-2.184.117l.106.789-.566-.555-2.508 2.524c-1.204 1.311-2.582 2.992-3.579 4.82-2.004 3.665-2.441 7.697-.139 12.7.967 2.519 2.905 3.976 5.229 4.943s5.075 1.53 7.995 2.389l.176.052.182-.03c1.07-.176 2.068.086 3.257.109s2.567-.351 3.817-1.758l-.006.006c.824-.907 1.594-1.149 2.153-2.046.28-.448.376-1.046.275-1.673s-.358-1.338-.791-2.305l-.023-.052-.03-.047c-1.733-2.752-2.745-4.976-2.959-6.761s.263-3.15 1.726-4.586l.374-.368-.191-.488c-.471-1.2-1.048-2.215-2.112-3.222s-2.582-2.023-5.022-3.445l-.062-.036-.068-.025c-1.329-.482-2.998-.998-5.052-1.053zm-.039 1.588c1.78.044 3.217.485 4.475.938 2.354 1.375 3.776 2.344 4.664 3.185.77.729 1.161 1.396 1.53 2.247-1.425 1.6-2.053 3.44-1.812 5.453.261 2.182 1.389 4.54 3.148 7.344.396.89.603 1.511.664 1.885s.021.46-.055.583c-.153.245-.973.709-1.981 1.818l-.002.003-.003.004c-1 1.125-1.665 1.238-2.586 1.22-.862-.017-1.972-.255-3.295-.095-2.954-.864-5.646-1.436-7.728-2.303-2.108-.878-3.562-1.977-4.354-4.048l-.01-.025-.011-.024c-2.166-4.679-1.76-7.964.074-11.319h.001v-.001c.897-1.645 2.202-3.25 3.355-4.506 1.054-1.148 1.837-1.861 2.254-2.267a12.79 12.79 0 011.676-.093zm18.173 8.309a1.53 1.53 0 00-.892.14l-1.011.486.331.33c-.516.73-.884 1.358-.992 2.041-.137.865.033 1.675.232 3.047l.014.101.04.094c.522 1.228.677 2.218 1.476 3.084s2.057 1.294 4.369 1.571l.167.021.162-.049c2.737-.827 4.279-2.142 5.055-3.601s.789-2.963.812-4.109l.016-.784-.789-.027c-2.77-.096-4.786-.752-6.274-1.342l-1.892-.77c-.271-.098-.543-.197-.826-.234zm-.087 1.608c.004.018.031.001.366.122l1.847.753a20.236 20.236 0 005.991 1.382c-.042.911-.136 1.825-.579 2.658-.549 1.031-1.616 2.023-3.944 2.761-2.014-.26-2.824-.61-3.214-1.034s-.602-1.237-1.139-2.52c-.192-1.321-.296-2.027-.223-2.484.066-.416.325-.866.895-1.637z"/><path d="M58.923 77.706c-2.972.08-5.809.502-7.839 1.278l-.05.019-.046.025c-2.367 1.286-3.747 3.333-4.412 5.458s-.652 4.334-.294 6.133l.128.642h.056c.466 1.828 1.897 3.273 3.995 4.319 2.375 1.183 5.595 1.996 9.488 2.632l.092.015.092-.006c2.77-.188 5.439.379 8.035.284s5.163-1.007 7.185-4.019l.097-.144.027-.171c.363-2.229.287-4.917-.299-7.43s-1.668-4.865-3.484-6.33c-2.036-1.767-5.806-2.478-9.78-2.671a39.863 39.863 0 00-2.993-.032zm.04 1.598a36.27 36.27 0 012.875.024c3.813.185 7.432 1.078 8.817 2.289l.013.011.013.011c1.394 1.122 2.404 3.163 2.939 5.46.519 2.228.59 4.667.298 6.629-1.746 2.519-3.548 3.105-5.807 3.187-2.27.082-4.961-.465-7.953-.284-3.788-.621-6.877-1.426-8.98-2.473-2.113-1.053-3.163-2.241-3.31-3.768l-.049-.506c-.236-1.489-.235-3.259.286-4.924.564-1.8 1.662-3.43 3.608-4.504 1.733-.652 4.418-1.063 7.251-1.15zm25.212-10.54l-.149.053c-1.111.397-1.877 1.321-2.513 2.376s-1.155 2.287-1.669 3.483l-1.578 3.22c-.553.866-1.119 1.388-1.684 1.538l.205.76-.687-.084c-.33 2.662.068 5.896 1.347 8.572s3.576 4.836 6.84 4.852c4.516.454 7.47-.112 9.566-1.273 2.109-1.168 3.276-2.89 4.322-4.453l.071-.107.034-.124c.906-3.292-.375-6.588-2.348-9.497s-4.676-5.505-6.893-7.508l-.003-.002-.003-.002c-.896-.796-1.49-1.256-2.212-1.504s-1.405-.244-2.489-.292zm.296 1.618c.89.04 1.476.064 1.83.185.395.135.808.423 1.666 1.186 2.184 1.973 4.8 4.505 6.638 7.215 1.816 2.677 2.82 5.457 2.142 8.084-1.007 1.502-1.978 2.879-3.674 3.818-1.746.967-4.337 1.524-8.693 1.076l-.04-.004h-.04c-2.58-.01-4.292-1.611-5.407-3.943-1.057-2.211-1.432-5.023-1.222-7.306.805-.42 1.429-1.132 1.947-1.944.656-1.028 1.182-2.247 1.698-3.447s1.022-2.381 1.57-3.29c.516-.856 1.058-1.4 1.584-1.629z"/><path d="M93.317 75.051l-.401.105c-2.342.615-5.822 2.768-8.357 5.881-2.493 3.062-3.968 7.219-1.844 11.453v.43l.557.177c3.468 1.101 5.759 1.178 7.737.478s3.519-2.063 5.781-3.671l.053-.038.047-.047c1.797-1.785 2.056-4.542 1.366-7.22s-2.328-5.374-4.621-7.284zm-.39 1.801c1.836 1.658 3.212 3.942 3.778 6.142.597 2.32.311 4.424-.929 5.676-2.265 1.616-3.738 2.851-5.305 3.406-1.528.541-3.305.529-6.372-.403-1.74-3.575-.531-6.888 1.706-9.635 2.155-2.647 5.27-4.566 7.123-5.186zm14.199-44.74a2.14 2.14 0 00-.682.011c-.452.08-.891.28-1.359.578l-.068.043-.058.057c-1.408 1.359-2.255 2.224-2.844 3.825-.584 1.588-.948 3.828-1.679 8.17-.785 2.174-1.929 4.066-3.549 5.329-1.633 1.273-3.752 1.96-6.701 1.651l-.298-.031-.246.171c-2.906 2.024-4.062 4.77-4.737 7.686s-.939 6.046-2.059 9.21l-.271.766.777.253c5.048 1.647 8.377 1.53 10.763.672s3.76-2.409 4.887-3.286l.027-.022.026-.024c1.233-1.146 1.977-2.492 2.978-3.526s2.2-1.827 4.547-2.03c3.871-.06 6.416-.23 8.234-.791 1.651-.51 2.685-1.493 3.269-2.808 1.938-.59 3.218-.383 4.68-.671a4.99 4.99 0 002.342-1.158c.767-.664 1.525-1.636 2.392-3.086.556-.83.685-1.947.152-3.005s-1.572-2.17-3.292-3.693l.079.081c-.956-1.123-2.49-1.322-3.783-1.536-.647-.107-1.249-.199-1.676-.314s-.599-.282-.567-.227l-.421-.703-.696.438c-1.636 1.031-2.909 1.534-3.835 1.673s-1.478-.035-1.938-.398c-.92-.724-1.464-2.612-1.727-4.782s-.296-4.513-.734-6.229c-.219-.858-.529-1.652-1.301-2.083a1.85 1.85 0 00-.633-.211zm-.401 1.578c.159-.028.197-.009.249.02.105.059.359.4.534 1.086.35 1.373.419 3.75.696 6.029s.708 4.567 2.323 5.838c.807.636 1.912.914 3.172.724 1.121-.169 2.422-.732 3.92-1.617a3.46 3.46 0 00.941.399c.571.153 1.202.243 1.831.347 1.258.208 2.443.547 2.823.994l.037.043.042.037c1.663 1.473 2.578 2.528 2.925 3.217s.289.905-.054 1.414l-.012.018-.011.019c-.825 1.384-1.507 2.226-2.087 2.727s-1.041.687-1.602.798c-1.123.222-2.758-.019-5.185.804l-.37.125-.128.368c-.418 1.201-.933 1.761-2.429 2.223s-3.97.663-7.835.722h-.029l-.028.002c-2.688.231-4.381 1.287-5.568 2.513s-1.927 2.545-2.916 3.465c-1.297 1.02-2.432 2.294-4.393 2.999-1.873.674-4.619.813-8.969-.488.971-3.091 1.279-6.032 1.865-8.561.621-2.681 1.549-4.856 3.926-6.591 3.103.243 5.607-.527 7.483-1.989 1.954-1.523 3.239-3.716 4.09-6.098l.046-.129v-.07c.734-4.359 1.12-6.58 1.607-7.907.479-1.304 1.051-1.869 2.381-3.153.317-.193.576-.302.725-.328z"/></g><path d="M109.014 50.88l-1.396.779c1.968 3.481 4.884 5.867 10.673 6.073l.057-1.591c-5.399-.192-7.522-2.056-9.335-5.262z"/><g fill-rule="evenodd"><path d="M119.738 27.998c-1.707 0-3.197 1.019-4.262 2.529a5.44 5.44 0 011.201 1.074c.867-1.314 1.948-2.012 3.061-2.012 1.147 0 2.264.74 3.145 2.135s1.461 3.399 1.461 5.623-.58 4.233-1.461 5.625-1.997 2.131-3.145 2.131c-.787 0-1.557-.347-2.248-1.014a7.43 7.43 0 01-.922 1.314c.906.803 1.985 1.291 3.17 1.291 1.837 0 3.424-1.174 4.5-2.875s1.707-3.973 1.707-6.471-.631-4.766-1.707-6.469-2.662-2.881-4.5-2.881v-.002z"/><path d="M113.434 29.099c-1.837 0-3.423 1.175-4.499 2.876s-1.705 3.972-1.705 6.466.63 4.768 1.705 6.47 2.662 2.877 4.499 2.877 3.426-1.175 4.502-2.877 1.705-3.973 1.705-6.47-.63-4.765-1.706-6.466-2.663-2.876-4.501-2.876zm0 1.591c1.15 0 2.265.739 3.145 2.132s1.46 3.396 1.46 5.62-.58 4.23-1.46 5.623-1.995 2.132-3.145 2.132-2.262-.739-3.142-2.132-1.46-3.397-1.46-5.623.58-4.227 1.46-5.62 1.995-2.132 3.142-2.132z"/></g><path d="M60.606 62.574h-2.301V48.969h2.301zm.148-15.879h-2.598V44.32h2.598zm-6.551 14.543c-.996.457-2.09.852-3.273 1.191a12.424 12.424 0 01-3.418.504c-1.422 0-2.723-.195-3.91-.586s-2.191-.973-3.023-1.758c-.844-.785-1.492-1.766-1.949-2.941-.457-1.191-.687-2.574-.687-4.152 0-2.898.852-5.187 2.551-6.855 1.707-1.684 4.047-2.527 7.02-2.527 1.039 0 2.094.129 3.172.379 1.086.246 2.258.668 3.504 1.254v2.863h-.219l-1.102-.766a10.7 10.7 0 00-1.422-.793 9.928 9.928 0 00-1.926-.617c-.707-.172-1.516-.258-2.426-.258-2.039 0-3.656.648-4.852 1.957-1.184 1.305-1.777 3.063-1.777 5.293 0 2.344.621 4.172 1.863 5.48 1.242 1.297 2.934 1.941 5.074 1.941a11.82 11.82 0 002.34-.23 10.324 10.324 0 002.059-.594v-4.445H46.91v-2.117h7.293v7.781zm18.016 1.219c-.434.113-.906.207-1.422.281a9.48 9.48 0 01-1.359.109c-1.398 0-2.461-.375-3.187-1.117-.727-.754-1.09-1.949-1.09-3.598v-7.238h-1.555v-1.918h1.555V45.07h2.305v3.906h4.754v1.918h-4.754v6.207l.047 1.68a2.78 2.78 0 00.344 1.121 1.67 1.67 0 00.734.715c.32.145.801.219 1.445.219.379 0 .77-.055 1.18-.16l.883-.273h.121z"/></svg>
