<svg xmlns="http://www.w3.org/2000/svg" viewBox="0 0 128 128"><path fill="#090" d="M23.982 50.478c-1.53 0-2.55 1.225-2.55 2.755v14.39L5.204 51.294c-.817-.816-2.245-1.02-3.266-.612C.919 51.09 0 52.111 0 53.233v21.125c0 1.531 1.53 2.756 3.062 2.756 1.53 0 3.061-1.225 3.061-2.756v-14.39l16.43 16.33c.511.51 1.225.816 1.94.816.306 0 .408-.102.714-.204 1.02-.409 1.327-1.429 1.327-2.552V53.335c0-1.53-1.02-2.857-2.552-2.857zM44.087 62.52c-1.429 0-2.756 1.429-2.756 2.858 0 1.428 1.327 2.857 2.756 2.857l6.735.408-1.53 3.776h-8.675l-4.286-8.062 4.388-8.266h9.287l2.143 4.082h5.613l-3.674-8.062-.816-1.123h-15.92l-.715 1.225-6.021 10.511-.714 1.327.714 1.327 5.919 10.511.816 1.633h15.41l.715-1.735 4.388-9.185 1.94-4.388h-4.491Zm21.227-12.042c-1.429 0-3.062 1.327-3.062 2.755v6.94h6.124v-6.838c0-1.53-1.633-2.857-3.062-2.857zm31.024.306c-1.02-.408-2.45-.204-3.164.612L76.54 67.725v-14.39c0-1.53-1.02-2.755-2.552-2.755-1.53 0-2.55 1.225-2.55 2.755V74.46a2.78 2.78 0 0 0 1.734 2.552c.306.102.714.204 1.02.204.715 0 1.633-.306 2.144-.817l16.532-16.328v14.39c0 1.53 1.02 2.755 2.552 2.755 1.53 0 2.55-1.225 2.55-2.756V53.335c0-1.122-.611-2.143-1.632-2.55zm22.248 13.063 8.572-8.573c1.123-1.122 1.123-2.857 0-3.878-1.123-1.122-2.857-1.122-3.878 0l-8.572 8.573-8.573-8.573c-1.122-1.122-2.857-1.122-3.878 0-1.122 1.123-1.122 2.858 0 3.878l8.573 8.573-8.573 8.572c-1.122 1.123-1.122 2.858 0 3.878a2.79 2.79 0 0 0 1.94.817c.714 0 1.428-.306 1.938-.817l8.573-8.572 8.572 8.572a2.79 2.79 0 0 0 1.94.817c.713 0 1.428-.306 1.938-.817 1.123-1.122 1.123-2.857 0-3.878zM62.252 74.358c0 1.43 1.531 2.756 3.062 2.756 1.429 0 3.062-1.327 3.062-2.756V62.214h-6.124z"/></svg>
