<svg xmlns="http://www.w3.org/2000/svg" viewBox="0 0 128 128"><path fill="#019639" d="M63.754 0h.298a47.63 47.63 0 0 1 4.443 2.414q24.821 14.273 49.642 28.556a3.62 3.62 0 0 1 1.893 3.603c-.037 20.066 0 40.127-.023 60.184a3.717 3.717 0 0 1-1.628 2.318q-26.393 15.197-52.791 30.376a2.684 2.684 0 0 1-3.004.169q-26.426-15.151-52.8-30.358a3.2 3.2 0 0 1-1.83-3.044v-60.18a3.168 3.168 0 0 1 1.77-3.063Q34.513 16.719 59.3 2.446C60.774 1.605 62.218.713 63.754 0"/><path fill="#fff" d="M31.522 39.143v49.646a6.899 6.899 0 0 0 1.952 4.97 7.53 7.53 0 0 0 9.419.941 7.15 7.15 0 0 0 3.131-5.911c0-11.978-.023-23.957 0-35.935q16.381 19.613 32.831 39.172A12.952 12.952 0 0 0 90.742 95.6a7.137 7.137 0 0 0 5.72-6.268q.036-25.333 0-50.661a7.233 7.233 0 0 0-14.411 0c0 12.17-.073 24.327 0 36.493-10.726-12.646-21.319-25.402-32.003-38.093a12.879 12.879 0 0 0-12.111-4.81 7.219 7.219 0 0 0-6.415 6.88z"/></svg>
