<?xml version="1.0" encoding="UTF-8" standalone="no"?>
<!-- Generator: Adobe Illustrator 24.2.3, SVG Export Plug-In . SVG Version: 6.00 Build 0)  -->

<svg
   version="1.1"
   x="0px"
   y="0px"
   viewBox="0 0 48.000001 47.999998"
   xml:space="preserve"
   id="svg7"
   sodipodi:docname="nginx-original_.svg"
   width="48"
   height="48"
   inkscape:version="1.4 (e7c3feb100, 2024-10-09)"
   xmlns:inkscape="http://www.inkscape.org/namespaces/inkscape"
   xmlns:sodipodi="http://sodipodi.sourceforge.net/DTD/sodipodi-0.dtd"
   xmlns="http://www.w3.org/2000/svg"
   xmlns:svg="http://www.w3.org/2000/svg"><defs
   id="defs7" /><sodipodi:namedview
   id="namedview7"
   pagecolor="#505050"
   bordercolor="#ffffff"
   borderopacity="1"
   inkscape:showpageshadow="0"
   inkscape:pageopacity="0"
   inkscape:pagecheckerboard="1"
   inkscape:deskcolor="#505050"
   inkscape:zoom="8"
   inkscape:cx="22.3125"
   inkscape:cy="29.8125"
   inkscape:window-width="1894"
   inkscape:window-height="999"
   inkscape:window-x="0"
   inkscape:window-y="0"
   inkscape:window-maximized="1"
   inkscape:current-layer="svg7" />
<style
   type="text/css"
   id="style1">
	.st0{fill:#009639;}
	.st1{fill:#FFFFFF;}
</style>


<g
   id="g3"
   style="display:inline"
   transform="matrix(0.66666667,0,0,0.66666667,2.86762,-0.48)">
			<g
   id="g2">
				<path
   class="st0"
   d="m 0.52023,54.72109 c 0.33856,0.58723 0.81586,1.04531 1.36645,1.35594 l 27.95375,16.13864 8.7e-4,-8.7e-4 c 0.54536,0.32109 1.17972,0.5052 1.85771,0.5052 0.67799,0 1.31322,-0.18411 1.85771,-0.5052 L 61.51134,56.07616 c 0.55059,-0.31063 1.02614,-0.76784 1.36557,-1.35507 0.33943,-0.58722 0.49737,-1.22855 0.49126,-1.86114 V 20.58267 L 63.3673,20.5818 C 63.3725,19.95008 63.2146,19.30788 62.87604,18.72066 62.53661,18.13344 62.05932,17.67622 61.5096,17.36472 L 33.55497,1.22608 V 1.22521 C 33.01049,0.90411 32.37613,0.72 31.69814,0.72 c -0.67711,0 -1.31148,0.18411 -1.85596,0.50521 v 8.7e-4 L 1.88842,17.36472 C 1.33783,17.67622 0.86053,18.13343 0.5211,18.72066 0.18254,19.30788 0.02461,19.95008 0.02984,20.5818 l -8.7e-4,8.7e-4 v 32.27728 c -0.00611,0.6326 0.15183,1.27392 0.49039,1.86114"
   id="path1" />
				<path
   class="st1"
   d="m 22.74842,49.00808 c 0,1.98505 -1.60903,3.5949 -3.595,3.5949 -1.9851,0 -3.595,-1.60985 -3.595,-3.5949 l 8.7e-4,8.7e-4 0.0035,-24.67739 c 0,-1.91175 1.6893,-3.49281 4.0819,-3.49281 1.71286,0 3.69011,0.69106 4.90037,2.19097 l 1.08635,1.3001 15.01873,17.97273 V 24.43191 h -0.0017 c 0,-1.98505 1.60989,-3.59489 3.59587,-3.59489 1.98511,0 3.59413,1.60985 3.59413,3.59489 h -8.7e-4 l -0.0035,24.67564 c 0,1.91175 -1.69017,3.49281 -4.0819,3.49281 -1.71373,0 -3.69011,-0.69019 -4.90037,-2.19097 L 22.74667,31.13657 v 17.87239 z"
   id="path2" />
			</g>
		</g>
</svg>
