<svg xmlns="http://www.w3.org/2000/svg" viewBox="0 0 128 128"><path d="M9.313 2.508c-3.356.43-6.32 2.418-7.958 5.344C.457 9.457.043 11.07.04 12.969c0 1.789.297 3.117 1.063 4.687 1.421 2.938 4.117 5.008 7.468 5.73.86.184 2.95.2 3.848.032 3.844-.723 6.926-3.375 8.168-7.02.422-1.222.508-1.824.508-3.398 0-1.531-.043-1.883-.418-3.094-1.063-3.492-3.887-6.21-7.406-7.125-1.176-.304-2.825-.418-3.957-.273zM56.5 25.531C42.586 26.72 30.95 36.625 27.602 50.125c-.422 1.688-.579 2.617-.864 5.031-.101.864-.152 38.29-.05 39.969.148 2.613.523 4.844 1.218 7.25 3.106 10.77 11.625 19.27 22.367 22.313 1.829.511 3.766.882 5.82 1.105 1.009.105 2.071.113 20.72.113 20.835 0 20.07.012 22.25-.289a32.469 32.469 0 0014.96-6.148c1.747-1.305 3.922-3.332 5.239-4.875 1.261-1.489 2.699-3.524 3.644-5.188 1.914-3.355 3.324-7.457 3.867-11.25.332-2.273.309-.824.332-21.781.02-13.656.008-19.71-.043-20.438-.468-7.023-3.007-13.374-7.55-18.874-.762-.926-3.082-3.243-4.012-4.012-4.656-3.856-9.867-6.25-15.688-7.2-2.48-.406-.769-.374-22.562-.39-15.938-.004-19.969.008-20.75.07zm-2.875 14.895c4.8.855 8.73 4.21 10.281 8.773.977 2.883.95 5.926-.07 8.77-.68 1.894-2 3.894-3.43 5.187-2.554 2.332-5.601 3.532-8.968 3.532-3.633 0-6.833-1.32-9.383-3.868-2.149-2.152-3.438-4.78-3.805-7.789-.102-.812-.086-2.5.031-3.343.824-6.008 5.57-10.633 11.657-11.376.792-.093 2.867-.03 3.687.114zM96.188 73.03c4.695.602 8.8 2.582 12.18 5.875 2.53 2.469 4.257 5.227 5.35 8.563.708 2.133.97 3.738 1.012 6.125.043 2.43-.16 4.125-.77 6.27-1.315 4.679-4.397 8.937-8.46 11.69-5.25 3.563-11.648 4.571-17.836 2.813-2.344-.66-5.14-2.097-7.102-3.64-5.164-4.079-8.132-10.172-8.124-16.715.007-7.282 3.773-14.051 10-17.942 2.8-1.757 5.968-2.808 9.437-3.132.855-.083 3.395-.024 4.313.093zm0 0" fill="#004880"/></svg>
