<?xml version="1.0" encoding="UTF-8" standalone="no"?>

<svg 
    version="1.0"
    xmlns="http://www.w3.org/2000/svg" 
    width="2048.000000pt" 
    height="2048.000000pt" 
    viewBox="0 0 2048.000000 2048.000000" 
    preserveAspectRatio="xMidYMid meet">

    <g 
    transform="translate(0.000000,2048.000000) scale(0.100000,-0.100000)" 
    fill="#000000" 
    stroke="none">
        <path d="M1490 20079 c-537 -69 -1011 -387 -1273 -855 -144 -257 -210 -515
-211 -819 0 -286 48 -499 170 -750 228 -470 659 -801 1195 -917 138 -29 472
-32 616 -5 615 116 1108 540 1307 1123 67 196 81 292 81 544 0 245 -7 301 -67
495 -170 559 -622 994 -1185 1140 -188 49 -452 67 -633 44z"/>
        <path d="M9040 16395 c-2226 -190 -4088 -1775 -4624 -3935 -67 -270 -92 -419
-138 -805 -16 -138 -24 -6126 -8 -6395 24 -418 84 -775 195 -1160 497 -1723
1860 -3083 3579 -3570 292 -82 602 -141 931 -177 161 -17 331 -18 3315 -18
3334 0 3211 -2 3560 46 860 118 1700 463 2394 984 279 209 627 533 838 780
202 238 432 564 583 830 306 537 532 1193 619 1800 53 364 49 132 53 3485 3
2185 1 3154 -7 3270 -75 1124 -481 2140 -1208 3020 -122 148 -493 519 -642
642 -745 617 -1579 1000 -2510 1152 -397 65 -123 60 -3610 62 -2550 1 -3195
-1 -3320 -11z m-460 -2383 c768 -137 1397 -674 1645 -1404 156 -461 152 -948
-11 -1403 -109 -303 -320 -623 -549 -830 -409 -373 -896 -565 -1435 -565 -581
0 -1093 211 -1501 619 -344 344 -550 765 -609 1246 -16 130 -14 400 5 535 132
961 891 1701 1865 1820 127 15 459 5 590 -18z m6810 -5217 c751 -96 1408 -413
1949 -940 405 -395 681 -836 856 -1370 113 -341 155 -598 162 -980 7 -389 -26
-660 -123 -1003 -211 -749 -704 -1430 -1354 -1871 -840 -570 -1864 -731 -2854
-450 -375 106 -822 336 -1136 583 -826 652 -1301 1627 -1300 2674 1 1165 604
2248 1600 2871 448 281 955 449 1510 501 137 13 543 4 690 -15z"/>
    </g>
</svg>
