<svg xmlns="http://www.w3.org/2000/svg" viewBox="0 0 128 128"><defs><linearGradient id="a" x1="4.217" x2="62.921" y1="60.019" y2="1.313" gradientTransform="matrix(.45597 0 0 .45597 .002 46.163)" gradientUnits="userSpaceOnUse"><stop offset=".29" stop-color="#FF2358"/><stop offset=".75" stop-color="#7256FF"/></linearGradient><linearGradient id="b" x1="-.723" x2="24.14" y1="7.624" y2="61.249" gradientTransform="matrix(.45597 0 0 .45597 .002 46.163)" gradientUnits="userSpaceOnUse"><stop offset=".29" stop-color="#FF8100"/><stop offset=".56" stop-color="#FF2358"/></linearGradient></defs><path fill="#000" fill-rule="evenodd" d="M48.197 60.284c-.392.634-.949 1.126-1.67 1.477h.006c-.242.119-.502.21-.767.287l3.325 5.531H46.3L43.23 62.29h-2.503v5.29h-2.43V53.918h5.79c.94 0 1.76.168 2.472.515.711.346 1.258.834 1.646 1.463.387.63.579 1.35.579 2.185 0 .834-.196 1.568-.588 2.202zm-4.25-.046c.474 0 .89-.086 1.236-.264v.004c.351-.177.62-.424.811-.747.192-.32.288-.707.288-1.136 0-.428-.096-.802-.288-1.121a1.958 1.958 0 0 0-.811-.74c-.351-.172-.762-.259-1.236-.259h-3.219v4.263zm12.936 4.387c.191-.37.287-.785.287-1.254l-.004-.01v-5.786h2.302v9.995h-2.234v-1.473c-.287.484-.657.88-1.117 1.168-.57.36-1.24.538-2.006.538-.716 0-1.345-.155-1.884-.47a3.18 3.18 0 0 1-1.258-1.354c-.296-.588-.447-1.295-.447-2.116V57.58h2.294v5.932c0 .483.082.894.246 1.231.164.338.397.598.698.775.305.178.67.27 1.098.27.452 0 .858-.1 1.209-.306.35-.205.624-.488.816-.857zm10.556-7.278c.884 0 1.678.224 2.375.67v-.004c.702.447 1.25 1.067 1.646 1.865.397.798.593 1.696.593 2.7 0 1.002-.196 1.9-.593 2.699-.396.798-.948 1.418-1.646 1.865-.697.446-1.495.67-2.384.67-.821 0-1.542-.183-2.166-.547a3.728 3.728 0 0 1-1.24-1.19v1.5H61.72V53.914h2.302v5.17a3.728 3.728 0 0 1 1.24-1.19c.625-.364 1.35-.547 2.176-.547zm.898 8.007c.429-.269.761-.643.998-1.121.238-.48.356-1.03.356-1.656 0-.624-.118-1.176-.356-1.655a2.714 2.714 0 0 0-.998-1.121 2.675 2.675 0 0 0-1.464-.406c-.556 0-1.053.137-1.482.406a2.755 2.755 0 0 0-1.003 1.121c-.241.479-.36 1.03-.36 1.655s.119 1.177.36 1.66c.237.483.575.857 1.003 1.122.429.269.935.401 1.482.401.547 0 1.035-.137 1.464-.406zm11.673-1.568c.191-.37.287-.785.287-1.254l-.01-.014v-4.947h2.303v9.338c0 .77-.168 1.436-.515 2.002-.342.565-.834 1.003-1.473 1.313-.638.31-1.386.465-2.243.465H74.62v-2.002h3.593c.438 0 .807-.077 1.117-.223.31-.146.547-.365.712-.652.168-.287.25-.634.25-1.044l.019-1.437a3.313 3.313 0 0 1-1.067 1.067c-.57.351-1.24.53-2.007.53-.715 0-1.345-.156-1.883-.461a3.144 3.144 0 0 1-1.258-1.34c-.297-.589-.447-1.291-.447-2.112V57.58h2.293v5.093c0 .483.083.894.247 1.231.164.338.396.598.702.775.305.178.67.27 1.094.27.452 0 .857-.1 1.209-.306.35-.205.624-.488.816-.857zm12.758.738.223-.761.01-.005 4.09-9.844h3.15v13.66h-2.398v-9.698l.018-.515-4.227 10.218h-1.796L87.62 57.43l.027.452v9.698h-2.403V53.92h3.115l4.185 9.844zm12.398-7.993h-2.627v-2.284h2.627zm-.16 11.044h-2.303V57.58h2.303zm7.587-10.228c.716 0 1.345.16 1.883.47l.005.014c.538.31.958.761 1.259 1.354.296.588.447 1.295.447 2.116v6.283h-2.294v-5.932c0-.484-.082-.894-.246-1.231a1.76 1.76 0 0 0-.702-.776c-.306-.177-.67-.269-1.095-.269-.456 0-.857.1-1.208.306a2.084 2.084 0 0 0-.816.857c-.192.37-.287.784-.287 1.254v5.786h-2.303v-9.994h2.234v1.463a3.413 3.413 0 0 1 1.117-1.163c.57-.36 1.24-.538 2.007-.538zm14.77 2.517c.423.79.637 1.692.637 2.709l-.009-.005v.556h-7.883c.045.461.16.885.355 1.264.247.478.584.852 1.017 1.117a2.72 2.72 0 0 0 1.468.4c.484 0 .917-.095 1.3-.282a2.6 2.6 0 0 0 .957-.789h2.508a4.433 4.433 0 0 1-1.026 1.592c-.446.442-.99.784-1.627 1.026-.634.241-1.341.36-2.116.36-.98 0-1.865-.224-2.65-.675a4.917 4.917 0 0 1-1.855-1.874c-.452-.803-.68-1.724-.68-2.704 0-.98.228-1.87.684-2.663a4.972 4.972 0 0 1 1.87-1.87c.793-.45 1.646-.679 2.63-.679.986 0 1.861.224 2.627.666a4.636 4.636 0 0 1 1.792 1.851zm-7.204 1.715a3.13 3.13 0 0 1 .304-.917 2.77 2.77 0 0 1 1.017-1.094 2.757 2.757 0 0 1 1.468-.397c.547 0 1.03.137 1.45.41.42.274.744.653.971 1.136.128.269.215.556.27.862zM39.989 79.99a.978.978 0 0 0 .114-.479h.005V75.34h1.414v4.272c0 .402-.092.762-.279 1.086a2.002 2.002 0 0 1-.766.756 2.208 2.208 0 0 1-1.098.274h-1.081v-1.3h.889a.954.954 0 0 0 .479-.113.79.79 0 0 0 .324-.324zm6.958-.867h-2.963v1.378h3.365v1.23h-4.742V75.34h4.65v1.236h-3.273v1.354h2.963zm2.81-2.516h-1.898V75.34h5.194v1.268H51.17v5.12h-1.414zm7.842 1.778c.132.036.255.082.37.141h.004c.26.142.465.333.61.584.147.25.22.533.22.848 0 .342-.092.647-.278.916a1.839 1.839 0 0 1-.785.63c-.337.15-.72.228-1.149.228h-2.895V75.34h2.84c.406 0 .771.073 1.09.214.32.142.566.342.743.598.178.255.265.547.265.87 0 .283-.068.534-.2.753-.133.219-.32.392-.552.51-.082.044-.176.07-.267.096zm-1.277-1.975h-1.254v1.574h1.254c.173 0 .328-.037.46-.1a.718.718 0 0 0 .315-.279.788.788 0 0 0 .114-.424.743.743 0 0 0-.114-.406.755.755 0 0 0-.314-.269 1.052 1.052 0 0 0-.46-.096zm.566 4.15a.807.807 0 0 0 .342-.283v.01a.736.736 0 0 0 .123-.425.792.792 0 0 0-.123-.438.817.817 0 0 0-.347-.296 1.21 1.21 0 0 0-.506-.105h-1.309v1.637h1.309c.191 0 .365-.032.51-.1zm7.55-2.13c-.196.306-.47.548-.825.716h-.005c-.063.032-.136.06-.21.087l1.46 2.499h-1.614l-1.295-2.33h-.921v2.33h-1.414V75.34h2.8c.46 0 .866.082 1.217.25.351.17.62.407.812.712.191.306.287.652.287 1.058s-.096.766-.292 1.071zm-1.623-.278a.795.795 0 0 0 .338-.31v.005a.909.909 0 0 0 .118-.47.91.91 0 0 0-.118-.47.785.785 0 0 0-.338-.305 1.208 1.208 0 0 0-.515-.105h-1.272v1.765H62.3c.196 0 .37-.037.515-.11zm2.513 3.58 2.284-6.393h1.532l2.335 6.393h-1.41l-.483-1.41h-2.37l-.452 1.41zm2.945-4.738-.734 2.257h1.692l-.785-2.257-.086-.41zm5.212 4.738h-1.46V75.34h1.46zm2.48-6.393 2.745 4.323h.005V75.34h1.29v6.393h-1.39l-2.736-4.323v4.323h-1.29V75.34zm8.107 2.58c.324.06.607.183.858.36v-.008c.25.182.442.401.583.67.142.27.21.561.21.876 0 .387-.105.734-.31 1.04a2.087 2.087 0 0 1-.857.72 2.95 2.95 0 0 1-1.263.26c-.47 0-.89-.087-1.254-.256a2.11 2.11 0 0 1-.862-.711c-.21-.301-.32-.657-.324-1.053h1.414c0 .164.045.31.132.437.087.128.21.224.37.292.159.069.341.105.537.105s.365-.032.511-.091a.75.75 0 0 0 .337-.26.64.64 0 0 0 .124-.383.625.625 0 0 0-.165-.442.874.874 0 0 0-.446-.247l-1.15-.237a2.078 2.078 0 0 1-.793-.342 1.69 1.69 0 0 1-.529-.62 1.869 1.869 0 0 1-.187-.834c0-.383.1-.72.292-1.017.196-.296.465-.529.812-.698.346-.168.738-.25 1.185-.25.447 0 .848.082 1.195.241.346.16.62.383.816.67.196.283.301.616.31.985h-1.413a.655.655 0 0 0-.114-.369.75.75 0 0 0-.315-.25 1.073 1.073 0 0 0-.465-.092c-.173 0-.328.032-.46.087a.716.716 0 0 0-.31.237.612.612 0 0 0-.11.36c0 .155.05.278.15.383.1.105.237.173.406.214zm6.557 3.813H89.17V75.34h1.46zm3.593-6.393c.607 0 1.154.141 1.637.415.484.278.867.656 1.14 1.144.278.484.415 1.035.415 1.637 0 .602-.141 1.15-.415 1.637a2.957 2.957 0 0 1-1.14 1.145 3.237 3.237 0 0 1-1.637.415h-2.494V75.34zm.917 4.952c.264-.16.47-.388.61-.684v-.005c.142-.296.215-.656.215-1.071 0-.415-.073-.775-.214-1.072a1.566 1.566 0 0 0-.611-.684 1.77 1.77 0 0 0-.935-.237h-1.058v3.99h1.058c.36 0 .67-.078.935-.237zm4.468-1.168v1.378h3.365v1.23H98.23V75.34h4.651v1.236h-3.274v1.354h2.964v1.194z" clip-rule="evenodd"/><path fill="url(#a)" d="M27.325 46.163H11.836c-.743 0-1.414.442-1.707 1.125L2.803 64.382a1.86 1.86 0 0 0-.15.732v8.373c0 1.026.831 1.858 1.857 1.858h8.192c.366 0 .725-.11 1.03-.313l14.623-9.76c.516-.344.826-.923.826-1.544V48.02a1.857 1.857 0 0 0-1.856-1.858z"/><path fill="url(#b)" d="M6.62 48.816H1.857A1.857 1.857 0 0 0 0 50.673v5.97c0 .088.006.176.018.263L2.424 73.75c.131.915.915 1.594 1.839 1.594h7.146a1.857 1.857 0 0 0 1.857-1.857l-.002-8.453c0-.2-.032-.398-.095-.587L8.382 50.086a1.857 1.857 0 0 0-1.762-1.27Z"/><path fill="#ff8100" d="m7.271 48.816-5.415.001A1.857 1.857 0 0 0 0 50.674v5.247c0 .542.236 1.057.648 1.41l17.4 14.915c.337.288.765.447 1.209.447h5.415a1.857 1.857 0 0 0 1.857-1.857v-5.248c0-.542-.237-1.057-.649-1.41L8.48 49.264a1.857 1.857 0 0 0-1.209-.447Z"/><path fill="#000" d="M23.71 51.634H5.47v18.239H23.71Z"/><path fill="#fff" fill-rule="evenodd" d="m19.102 53.914-1.358 4.49-.102.586-.117-.586-1.407-4.49H14.26v6.84h1.314v-4.88l-.02-.323 1.574 5.203h.967l1.593-5.238-.02.357v4.88h1.32v-6.839Zm-7.126 3.991c.372-.179.656-.43.855-.752.202-.326.303-.7.303-1.124 0-.423-.1-.79-.298-1.109a1.95 1.95 0 0 0-.84-.742c-.365-.176-.787-.264-1.266-.264H7.794v6.84h1.334v-2.585h1.149l1.474 2.584h1.53l-1.63-2.74.098-.03c.079-.022.157-.044.227-.078zm-2.848-2.882h1.515c.225 0 .42.042.586.127.17.08.3.198.39.352.092.149.138.329.138.537 0 .208-.046.386-.137.542a.923.923 0 0 1-.391.357 1.322 1.322 0 0 1-.586.122H9.128Zm-1.38 11.202h7.296v1.368H7.748Z" clip-rule="evenodd"/></svg>
