<svg id="ruby_mine" data-name="ruby mine" xmlns="http://www.w3.org/2000/svg" viewBox="0 0 128 128"><defs><style>.cls-1{fill:#c12c4c;}</style></defs><title>Artboard 13</title><g id="plain-wordmark"><path class="cls-1" d="M40.64,60.2a29.74,29.74,0,0,1,4-.25,7.46,7.46,0,0,1,4.32.93,2.89,2.89,0,0,1,1.23,2.48,3.22,3.22,0,0,1-2.36,2.93v.05a3,3,0,0,1,1.78,2.22,32.35,32.35,0,0,0,1.09,3.35H47.63a13.72,13.72,0,0,1-.93-2.77c-.36-1.48-.93-1.89-2.16-1.9h-.91v4.67h-3V60.2h0Zm3,5.11h1.19c1.51,0,2.4-.67,2.4-1.71S46.38,62,45,61.94a8.42,8.42,0,0,0-1.37.09v3.28Z"/><path class="cls-1" d="M61.41,69.15c0,1.13,0,2,.08,2.77H58.88l-.14-1.22h-.06a3.56,3.56,0,0,1-3,1.41c-2,0-3.41-1.09-3.41-3.75V63.3h3v4.63c0,1.25.46,2,1.51,2a1.62,1.62,0,0,0,1.5-.93,1.35,1.35,0,0,0,.1-.58V63.3h3v5.85Z"/><path class="cls-1" d="M63.75,71.91c0-.56.08-1.6.08-2.57V59.4h3v4.92h0a3.58,3.58,0,0,1,2.93-1.22c2.32,0,4,1.71,4,4.35a4.36,4.36,0,0,1-4.44,4.65,3.34,3.34,0,0,1-2.91-1.39h0l-.12,1.2H63.75Zm3.09-3.67a1.75,1.75,0,0,0,.06.48A1.78,1.78,0,0,0,68.66,70c1.29,0,2.08-.88,2.08-2.43,0-1.34-.67-2.4-2.08-2.4a1.82,1.82,0,0,0-1.76,1.32,2,2,0,0,0-.06.49Z"/><path class="cls-1" d="M77.74,63.3l1.45,4.23c.16.51.36,1.15.48,1.6h.06c.14-.46.3-1.11.44-1.6l1.19-4.23h3.23L82.32,69c-1.39,3.42-2.32,4.79-3.41,5.66A5.9,5.9,0,0,1,76,75.81l-.63-2.27a4.11,4.11,0,0,0,1.31-.46A3.31,3.31,0,0,0,77.92,72a.65.65,0,0,0,.16-.39.89.89,0,0,0-.14-.44L74.4,63.3h3.35Z"/><path class="cls-1" d="M97.39,66.7c-.1-1.66-.22-3.65-.2-5.13h-.06c-.46,1.39-1,2.87-1.68,4.51l-2.36,5.76H91.78l-2.16-5.66C89,64.51,88.45,63,88.08,61.57h0c0,1.48-.14,3.47-.26,5.25l-.36,5.09H85.78L86.71,60h2.2l2.28,5.75c.55,1.46,1,2.77,1.35,4h.06a41.54,41.54,0,0,1,1.41-4L96.38,60h2.2l.83,11.88H97.72Z"/><path class="cls-1" d="M104.17,61c0,.53-.42,1-1.11,1a1,1,0,0,1-1-1,1,1,0,0,1,1.09-1A1,1,0,0,1,104.17,61Zm-1.94,10.93V63.39H104v8.53h-1.74Z"/><path class="cls-1" d="M106.87,65.69c0-.88,0-1.6-.08-2.31h1.54l.1,1.41h0a3.61,3.61,0,0,1,3.17-1.6A3.26,3.26,0,0,1,115,66.82v5.09h-1.74V67c0-1.37-.57-2.52-2.22-2.52a2.45,2.45,0,0,0-2.34,1.59,2,2,0,0,0-.12.72v5.13h-1.74V65.69Z"/><path class="cls-1" d="M118.82,67.93c0,2.1,1.54,3,3.29,3a7,7,0,0,0,2.65-.44l.3,1.11a8.6,8.6,0,0,1-3.19.53c-3,0-4.71-1.73-4.71-4.3a4.34,4.34,0,0,1,4.5-4.6,3.77,3.77,0,0,1,4,4,5.35,5.35,0,0,1-.06.72h-6.73Zm5.11-1.11a2.29,2.29,0,0,0-2.42-2.52,2.71,2.71,0,0,0-2.67,2.52Z"/><path class="cls-1" d="M29.43,69.93c-.29-.4-3-3.66-3.19-4l-.08-.14.14-.09A7.51,7.51,0,0,0,30,59.36v-.21a6.37,6.37,0,0,0-1.88-4.57,8.92,8.92,0,0,0-5.71-2.3v5a2.62,2.62,0,0,1,2,2.62c0,1.48-1.29,2.27-2.38,2.85l-.43.23a2.67,2.67,0,0,0-1.46,2.38,3.79,3.79,0,0,0,.42,1.66l.38.59,3.93,5,.06.09.53.69a2.39,2.39,0,0,0,1.36.78,3.22,3.22,0,0,0,2.26-.36,2.18,2.18,0,0,0,1.11-1.48l0-.42A3.49,3.49,0,0,0,29.43,69.93Z"/><path class="cls-1" d="M21.14,52.23a9.3,9.3,0,0,0-2.05.37h0l-.17.06-.59.21-.22.1c-.19.08-.39.16-.57.26h0a8.36,8.36,0,0,0-1.3.83,8.91,8.91,0,0,0-5.5-1.85c-4.61,0-8.35,3.33-8.35,7.43a.11.11,0,0,0,0,0h0V73.83H8.06V69h0v-2.5h0V59.64h0v0a2.53,2.53,0,0,1,2.66-2.37,2.53,2.53,0,0,1,2.66,2.35v0a.11.11,0,0,0,0,0h0v5.69h0v8.5h5.68V65.2h0V59.65h0v0a1.58,1.58,0,0,1,0-.18v-.12a2.49,2.49,0,0,1,2-2V52.23h0Z"/></g></svg>