<svg xmlns="http://www.w3.org/2000/svg" viewBox="0 0 128 128">
  <path d="M5.648 50.703h15.059v15.059H5.648Zm0 0"/>
  <path fill="#fff" d="M7.523 62.918h5.649v.941H7.523Zm5.582-10.34h1.34l1.489 2.395 1.488-2.395h1.344v5.66h-1.239v-3.695l-1.593 2.418h-.032l-1.578-2.395v3.672h-1.219Zm-5.574.008h2.582c.719 0 1.266.191 1.649.574.332.344.508.813.484 1.29v.019c.016.398-.101.793-.336 1.117a1.923 1.923 0 0 1-.879.633l1.383 2.008h-1.453l-1.172-1.73H8.762v1.737h-1.23Zm2.508 2.738c.254.012.5-.07.695-.23a.741.741 0 0 0 .25-.578v-.02a.707.707 0 0 0-.25-.601 1.122 1.122 0 0 0-.718-.204h-1.25v1.621Zm0 0"/>
  <path d="M26.402 50.738h6.871c1.91 0 3.391.535 4.38 1.528.84.836 1.288 2.007 1.288 3.433v.043c0 2.426-1.312 3.95-3.222 4.66l3.683 5.364H35.54l-3.234-4.809h-2.598v4.809h-3.305Zm6.653 7.301c1.613 0 2.535-.86 2.535-2.125v-.043c0-1.418-.988-2.148-2.598-2.148h-3.285v4.316Zm7.183 3.668v-7.45H43.5v6.423c0 1.547.727 2.34 1.977 2.34 1.246 0 2.035-.793 2.035-2.34v-6.422h3.265v11.508h-3.265v-1.637c-.75.969-1.715 1.848-3.371 1.848-2.465.007-3.903-1.625-3.903-4.27Zm15.586 2.555v1.508h-3.261V50.094h3.261v5.82c.797-1.074 1.89-1.867 3.586-1.867 2.684 0 5.238 2.101 5.238 5.945v.043c0 3.844-2.507 5.95-5.238 5.95a4.424 4.424 0 0 1-3.586-1.723Zm5.563-4.227v-.043c0-1.91-1.285-3.18-2.813-3.18-1.527 0-2.793 1.258-2.793 3.18v.043c0 1.91 1.27 3.176 2.793 3.176 1.524 0 2.813-1.242 2.813-3.176Zm0 0"/>
  <path d="M72.898 54.258h3.399l-4.422 11.797c-.879 2.343-1.824 3.222-3.777 3.222a5.466 5.466 0 0 1-2.903-.793l1.098-2.363c.422.266.902.422 1.394.453.56 0 .86-.176 1.141-.754l-4.52-11.547h3.458l2.617 7.836Zm4.418-3.52h3.563l3.953 6.364 3.95-6.352h3.566v15.016h-3.29v-9.809l-4.226 6.418h-.086l-4.18-6.355v9.746h-3.25Zm16.672-.644h3.434v2.902h-3.434Zm.086 4.164h3.262v11.508h-3.262Zm4.969 0h3.266v1.633c.75-.965 1.714-1.844 3.37-1.844 2.466 0 3.903 1.629 3.903 4.266v7.453h-3.262v-6.403c0-1.547-.73-2.343-1.976-2.343-1.242 0-2.035.796-2.035 2.343v6.403h-3.266Zm11.727 5.82v-.043c0-3.285 2.34-5.988 5.687-5.988 3.844 0 5.606 2.984 5.606 6.246 0 .25-.024.559-.043.86h-8.008c.324 1.48 1.351 2.257 2.812 2.257 1.094 0 1.89-.344 2.79-1.18l1.859 1.649c-1.075 1.332-2.618 2.148-4.7 2.148-3.449 0-6.003-2.43-6.003-5.949Zm8.113-.969c-.192-1.457-1.051-2.445-2.426-2.445-1.375 0-2.23.965-2.488 2.445Zm-91.89 17.18v.77h-.602v-5.68h.601v2.469a1.8 1.8 0 0 1 1.54-.899c.964 0 1.921.754 1.921 2.086v.016c0 1.316-.95 2.094-1.922 2.094-.625 0-1.21-.325-1.539-.856Zm2.847-1.23v-.016c0-.95-.656-1.555-1.418-1.555a1.507 1.507 0 0 0-1.457 1.547v.016a1.506 1.506 0 0 0 1.457 1.554c.777 0 1.418-.574 1.418-1.546Zm4.43-2.024h.64l-1.687 4.145c-.344.836-.735 1.136-1.34 1.136a1.805 1.805 0 0 1-.856-.203l.203-.472c.192.105.41.156.63.148.359 0 .581-.187.824-.754l-1.829-4.015h.66l1.465 3.355Zm3.496 3.14.441-.378c.336.5.676.777 1.254.777.617 0 1.066-.445 1.066-1.308v-3.653h.621v3.64a1.95 1.95 0 0 1-.503 1.43c-.32.305-.754.47-1.2.454a1.86 1.86 0 0 1-1.68-.961Zm4.488-1.116v-.016c0-1.16.812-2.094 1.93-2.094 1.187 0 1.875.95 1.875 2.125.004.063.004.13 0 .196h-3.2a1.41 1.41 0 0 0 1.418 1.363 1.66 1.66 0 0 0 1.266-.57l.375.335a2.09 2.09 0 0 1-1.656.754 2.007 2.007 0 0 1-1.453-.617 2.014 2.014 0 0 1-.555-1.476Zm3.195-.235c-.062-.73-.48-1.367-1.281-1.367-.703 0-1.23.582-1.309 1.367Zm1.719 1.168v-2.426h-.559v-.53h.559V71.82h.602v1.215h1.273v.531H47.77v2.36a.59.59 0 0 0 .171.504.587.587 0 0 0 .504.168c.203 0 .403-.047.582-.141v.5a1.494 1.494 0 0 1-.722.172c-.645 0-1.137-.32-1.137-1.137Zm2.86-4.379h2.32a2 2 0 0 1 1.425.48c.227.231.356.548.348.872v.015a1.317 1.317 0 0 1-.863 1.254c.644.196 1.168.567 1.168 1.317v.015c0 .934-.785 1.485-1.977 1.485h-2.422Zm3.472 1.438c0-.54-.426-.887-1.207-.887h-1.656v1.875h1.61c.737 0 1.253-.332 1.253-.973Zm-1.145 1.531h-1.718v1.926h1.816c.824 0 1.34-.367 1.34-.977v-.015c.008-.594-.488-.934-1.438-.934Zm3.208-1.547h.597v1.05a1.734 1.734 0 0 1 1.645-1.12v.648h-.051c-.875 0-1.594.63-1.594 1.84v1.606h-.597Zm2.718 2.856v-.016c0-.848.703-1.297 1.719-1.297.422-.004.836.05 1.238.168v-.14c0-.723-.441-1.098-1.199-1.098-.422.008-.84.11-1.219.297l-.18-.5c.454-.223.954-.34 1.462-.336.476-.035.945.125 1.3.441.29.32.438.746.41 1.176v2.46h-.574v-.609a1.762 1.762 0 0 1-1.453.696c-.75.012-1.504-.414-1.504-1.242Zm2.957-.309v-.39a4.164 4.164 0 0 0-1.18-.172c-.753 0-1.18.328-1.18.835v.012c0 .504.47.801 1.005.801.758.012 1.355-.45 1.355-1.086Zm1.785-4.086h.684v.664h-.684Zm.04 1.54h.597v4.015h-.597Zm1.894 0h.598v.698c.277-.496.808-.8 1.379-.785.972 0 1.543.653 1.543 1.614v2.507h-.602v-2.347c0-.754-.402-1.215-1.113-1.215a1.174 1.174 0 0 0-.875.363c-.23.238-.352.563-.332.89v2.305h-.598Zm4.383 3.507.305-.426c.398.313.886.488 1.394.504.484 0 .832-.254.832-.64v-.016c0-.406-.476-.559-1.004-.707-.629-.18-1.332-.399-1.332-1.137v-.016c0-.695.578-1.152 1.371-1.152a2.714 2.714 0 0 1 1.446.445l-.27.45a2.272 2.272 0 0 0-1.191-.387c-.477 0-.778.25-.778.582v.016c0 .379.5.527 1.035.691.622.188 1.293.43 1.293 1.152v.024c0 .754-.632 1.207-1.433 1.207a2.754 2.754 0 0 1-1.668-.59Zm0 0"/>
</svg>
