<svg xmlns="http://www.w3.org/2000/svg" fill="none" viewBox="0 0 128 128"><path fill="#000" fill-rule="evenodd" d="M12.289 45.983a2.35 2.35 0 0 0-2.158 1.422l-.792 1.846-.068-.058a2.351 2.351 0 0 0-1.529-.566H2.347a2.35 2.35 0 0 0-1.945 1.035v.002l-.086.124v.055c-.078.14-.16.278-.208.434l-.004.01L.1 50.3l-.015.049v.011c-.013.046-.026.089-.037.143v.002l-.01.046V50.604c-.02.122-.037.245-.037.371v5.946c0 .107.005.22.021.332h.002l2.397 16.78a2.354 2.354 0 0 0 2.325 2.016h7.118c.046 0 .045-.002.037-.002h1.25c.463 0 .917-.138 1.303-.395l3.926-2.619-.224-.189a2.35 2.35 0 0 0 1.524.563h5.394a2.356 2.356 0 0 0 2.349-2.349v-4.06l1.597-1.066a2.35 2.35 0 0 0 1.045-1.953V48.33a2.356 2.356 0 0 0-2.349-2.348zm0 .996h15.427c.753 0 1.352.6 1.352 1.352V63.98c0 .452-.225.874-.6 1.124l-2.042 1.362v4.593c0 .753-.6 1.353-1.352 1.353H19.68c-.323 0-.632-.115-.878-.325l-.002-.002-.35-.296-4.549 3.035a1.354 1.354 0 0 1-.75.228h-1.259c-.052 0-.06.002-.028.002H4.746c-.677 0-1.245-.49-1.34-1.16l-2.397-16.78h.002a1.393 1.393 0 0 1-.014-.192v-5.946c0-.094.01-.186.027-.272V50.7l.002-.006c.007-.034.018-.072.033-.12l.004-.016c.04-.121.094-.235.164-.339v-.002l.007-.008a1.346 1.346 0 0 1 1.113-.588h5.395c.323 0 .634.116.88.326l1.099.941 1.324-3.091a1.35 1.35 0 0 1 1.244-.82zm-6.34 4.953V70.1h18.166V51.932Zm2.314 2.27h2.924c.477 0 .898.088 1.261.263.364.176.642.422.837.74.198.318.297.683.297 1.105 0 .421-.1.794-.301 1.118a1.988 1.988 0 0 1-.852.751c-.07.034-.148.056-.226.078-.033.01-.067.019-.1.03l1.625 2.729h-1.523l-1.469-2.576H9.59v2.576H8.263Zm6.442 0h1.848l1.403 4.473.117.584.1-.584 1.353-4.472h1.88v6.813h-1.314v-4.862l.02-.356-1.588 5.218h-.963l-1.566-5.183.02.321v4.862h-1.31zm-5.113 1.106v2.029H11.1c.224 0 .418-.042.584-.123a.917.917 0 0 0 .389-.354c.09-.155.136-.333.136-.54a1.01 1.01 0 0 0-.136-.536.886.886 0 0 0-.39-.35 1.267 1.267 0 0 0-.583-.126zM8.217 66.465h7.266v1.364H8.217Zm40.29-5.917c-.39.63-.944 1.121-1.662 1.471h.005c-.241.118-.5.21-.763.286l3.31 5.51h-2.78l-3.056-5.269h-2.493v5.269h-2.42V54.207h5.767c.936 0 1.753.168 2.462.513.708.346 1.253.832 1.64 1.458.385.627.576 1.345.576 2.176 0 .831-.195 1.562-.586 2.194zm-4.233-.046c.473 0 .886-.086 1.231-.263v.004c.35-.177.618-.422.809-.745.19-.317.286-.704.286-1.13 0-.427-.096-.8-.286-1.118a1.95 1.95 0 0 0-.809-.736c-.35-.172-.758-.258-1.23-.258h-3.207v4.246zm12.886 4.37c.19-.368.286-.782.286-1.25l-.005-.009V57.85h2.294v9.956h-2.226v-1.467a3.373 3.373 0 0 1-1.112 1.162c-.568.359-1.236.536-1.999.536-.713 0-1.34-.154-1.876-.468a3.167 3.167 0 0 1-1.253-1.349c-.295-.585-.445-1.29-.445-2.107v-6.259h2.284v5.91c0 .48.082.89.245 1.226.164.336.396.595.695.772.305.177.668.268 1.095.268.45 0 .854-.1 1.204-.305.35-.204.622-.486.813-.854zm10.514-7.25c.881 0 1.671.223 2.366.668v-.004c.7.445 1.245 1.062 1.64 1.857.395.795.59 1.69.59 2.69 0 .998-.195 1.893-.59 2.688-.395.795-.945 1.412-1.64 1.858-.695.445-1.49.667-2.375.667-.818 0-1.535-.182-2.157-.545a3.714 3.714 0 0 1-1.236-1.185v1.494H61.98V54.203h2.293v5.15c.323-.49.731-.89 1.236-1.185.622-.364 1.344-.545 2.166-.545zm.895 7.976c.427-.268.758-.64.994-1.117.237-.477.355-1.027.355-1.649 0-.622-.118-1.172-.355-1.649a2.703 2.703 0 0 0-.994-1.117 2.664 2.664 0 0 0-1.458-.404c-.554 0-1.05.136-1.476.404-.427.268-.759.64-1 1.117-.24.477-.358 1.027-.358 1.65 0 .621.118 1.171.359 1.652.236.482.572.854.999 1.118.427.268.93.4 1.476.4.545 0 1.03-.137 1.458-.405zm11.627-1.562c.19-.368.286-.781.286-1.25l-.009-.013v-4.928h2.294v9.302c0 .768-.168 1.43-.514 1.994-.34.563-.83.999-1.467 1.308-.635.309-1.38.463-2.234.463h-3.725v-1.994h3.58c.435 0 .803-.077 1.112-.222.31-.146.545-.364.709-.65.168-.286.25-.631.25-1.04l.018-1.43a3.3 3.3 0 0 1-1.063 1.062c-.568.35-1.235.527-1.998.527-.714 0-1.34-.154-1.876-.459a3.132 3.132 0 0 1-1.254-1.335c-.295-.586-.445-1.285-.445-2.103v-5.414h2.285v5.074c0 .481.081.89.245 1.226.163.336.395.595.7.772.304.177.667.268 1.09.268.449 0 .853-.1 1.203-.304.35-.205.622-.486.813-.854zm12.708.736.223-.759.009-.005 4.074-9.805h3.138V67.81H97.96v-9.66l.018-.514-4.21 10.179h-1.79l-4.2-10.11.027.449v9.66H85.41V54.208h3.102l4.17 9.806zm12.35-7.962h-2.617v-2.276h2.616zm-.16 11h-2.293v-9.956h2.293zm7.558-10.187c.713 0 1.34.159 1.876.467l.005.014c.536.309.954.759 1.254 1.349.295.586.445 1.29.445 2.107v6.26h-2.285v-5.91c0-.481-.082-.89-.245-1.226a1.753 1.753 0 0 0-.7-.772c-.304-.177-.667-.268-1.09-.268-.454 0-.854.1-1.203.304-.35.204-.623.486-.813.854-.191.368-.286.781-.286 1.249v5.764h-2.294v-9.956h2.225v1.458a3.4 3.4 0 0 1 1.113-1.158c.568-.36 1.236-.536 1.999-.536zm14.711 2.507c.423.785.636 1.685.636 2.698l-.009-.005v.554h-7.853c.046.459.16.881.355 1.258.245.477.58.85 1.012 1.113.432.268.918.4 1.463.4.481 0 .913-.096 1.294-.282.386-.186.7-.45.954-.786h2.498a4.416 4.416 0 0 1-1.022 1.585 4.57 4.57 0 0 1-1.621 1.022c-.632.241-1.336.36-2.108.36-.976 0-1.857-.223-2.639-.673a4.898 4.898 0 0 1-1.848-1.867c-.45-.8-.677-1.717-.677-2.693 0-.977.227-1.862.681-2.653a4.953 4.953 0 0 1 1.863-1.862c.79-.45 1.64-.676 2.62-.676.981 0 1.853.222 2.616.663a4.618 4.618 0 0 1 1.785 1.844zm-7.175 1.707c.06-.325.154-.632.303-.912a2.76 2.76 0 0 1 1.013-1.09 2.747 2.747 0 0 1 1.463-.396c.545 0 1.026.137 1.444.41.418.272.74.649.967 1.13.128.268.214.554.268.858zm-79.856 18.34c.077-.14.114-.3.114-.476h.004v-4.156h1.408V79.8c0 .4-.09.758-.277 1.08-.186.323-.44.573-.763.754-.322.182-.69.273-1.094.273h-1.077v-1.294h.886a.95.95 0 0 0 .477-.114.788.788 0 0 0 .322-.322zm6.93-.862h-2.951v1.371h3.352v1.227h-4.724v-6.368h4.633v1.23H44.31v1.35h2.952zm2.799-2.508h-1.89v-1.262h5.173v1.262H51.47v5.101H50.06zm7.812 1.772c.131.036.254.082.368.14h.004c.26.141.463.332.609.582.145.25.218.531.218.845 0 .34-.091.645-.277.913a1.832 1.832 0 0 1-.781.626c-.337.15-.718.228-1.145.228h-2.884v-6.368h2.83c.404 0 .767.073 1.085.213.318.141.563.341.74.595.177.255.264.545.264.868 0 .281-.068.531-.2.75a1.35 1.35 0 0 1-.55.508c-.081.043-.175.07-.265.095zM56.6 76.612h-1.25v1.567h1.25c.173 0 .327-.036.459-.1a.715.715 0 0 0 .313-.277.785.785 0 0 0 .114-.422.74.74 0 0 0-.114-.404.752.752 0 0 0-.313-.268 1.048 1.048 0 0 0-.46-.096zm.563 4.133a.804.804 0 0 0 .34-.281v.009a.733.733 0 0 0 .123-.423.789.789 0 0 0-.122-.436.814.814 0 0 0-.345-.295 1.205 1.205 0 0 0-.505-.104h-1.303v1.63h1.303c.191 0 .364-.032.51-.1zm7.521-2.12a1.944 1.944 0 0 1-.822.712h-.004c-.064.032-.136.06-.21.087l1.454 2.489h-1.608l-1.29-2.321h-.917v2.32H59.88v-6.367h2.789c.459 0 .863.082 1.213.25.35.168.617.404.808.708.19.304.286.65.286 1.054s-.095.763-.29 1.067zm-1.616-.278a.792.792 0 0 0 .336-.309v.005a.905.905 0 0 0 .118-.468.906.906 0 0 0-.118-.468.782.782 0 0 0-.336-.304 1.203 1.203 0 0 0-.514-.104h-1.267v1.757h1.267c.196 0 .368-.036.514-.109zm2.502 3.566 2.276-6.368h1.526l2.325 6.368h-1.403l-.482-1.404h-2.362l-.45 1.404zm2.934-4.72-.731 2.249h1.685l-.781-2.248-.087-.41zm5.192 4.72h-1.454v-6.368h1.454zm2.47-6.368 2.735 4.306h.004v-4.306h1.285v6.368h-1.385l-2.725-4.306v4.306h-1.285v-6.368zm8.076 2.57c.322.06.604.182.854.36v-.01c.25.182.44.4.581.668.14.268.209.559.209.872 0 .386-.105.731-.309 1.035-.204.305-.49.546-.854.718-.368.173-.79.259-1.258.259a2.95 2.95 0 0 1-1.249-.254 2.102 2.102 0 0 1-.858-.709 1.839 1.839 0 0 1-.323-1.049h1.408a.76.76 0 0 0 .132.436.818.818 0 0 0 .368.29c.159.069.34.105.536.105.195 0 .363-.032.508-.09a.747.747 0 0 0 .337-.26.637.637 0 0 0 .122-.381.622.622 0 0 0-.163-.44.87.87 0 0 0-.445-.246l-1.145-.236a2.07 2.07 0 0 1-.79-.34 1.683 1.683 0 0 1-.527-.618 1.862 1.862 0 0 1-.186-.832c0-.381.1-.717.29-1.012.196-.296.464-.527.809-.695.345-.168.736-.25 1.18-.25.446 0 .845.082 1.19.24.346.16.618.382.814.668.195.282.3.613.308.981h-1.408a.652.652 0 0 0-.113-.368.746.746 0 0 0-.313-.25 1.069 1.069 0 0 0-.464-.09c-.172 0-.327.032-.458.086a.713.713 0 0 0-.31.236.61.61 0 0 0-.108.359c0 .154.05.277.15.382.1.104.236.172.404.213zm6.531 3.798h-1.453v-6.368h1.453zm3.579-6.368c.604 0 1.15.14 1.63.413.482.277.863.654 1.136 1.14.277.482.413 1.031.413 1.63 0 .6-.14 1.145-.413 1.631-.273.486-.65.863-1.136 1.14a3.224 3.224 0 0 1-1.63.414h-2.484v-6.368zm.913 4.932a1.56 1.56 0 0 0 .608-.681v-.005c.141-.295.214-.654.214-1.067 0-.413-.073-.772-.214-1.067a1.56 1.56 0 0 0-.608-.682 1.763 1.763 0 0 0-.931-.236H93.28v3.974h1.054c.359 0 .667-.077.93-.236zm4.45-1.162v1.371h3.353v1.227h-4.724v-6.368h4.633v1.23h-3.261v1.35h2.952v1.19z"/></svg>
