<svg xmlns="http://www.w3.org/2000/svg" viewBox="0 0 128 128"><path fill="#000" fill-rule="evenodd" d="M52.317 0a10.003 10.003 0 0 0-9.185 6.055l-3.371 7.86-.29-.249a10.01 10.01 0 0 0-6.51-2.41H9.993a10.008 10.008 0 0 0-8.283 4.406v.009l-.364.53v.232c-.332.596-.68 1.184-.886 1.847l-.017.042-.016.058-.067.207v.05c-.055.192-.11.375-.157.604v.009l-.041.198v.224c-.083.52-.158 1.044-.158 1.581v25.312c0 .459.024.936.091 1.416h.009l10.204 71.438c.702 4.911 4.94 8.581 9.898 8.581h30.306c.194 0 .187-.006.157-.009h5.318a9.996 9.996 0 0 0 5.549-1.681L78.25 115.16l-.952-.803a10.006 10.006 0 0 0 6.485 2.393h22.968c5.496 0 9.997-4.5 9.997-9.997V89.468l6.8-4.538a10.003 10.003 0 0 0 4.448-8.316V9.997c0-5.496-4.502-9.997-9.997-9.997Zm0 4.24H118a5.726 5.726 0 0 1 5.756 5.757v66.617a5.75 5.75 0 0 1-2.56 4.788l-8.688 5.798v19.555a5.726 5.726 0 0 1-5.756 5.756H83.783a5.721 5.721 0 0 1-3.735-1.383l-.009-.009-1.49-1.259-19.366 12.921c-.946.632-2.06.97-3.197.97h-5.359c-.218.003-.254.008-.116.008H20.206a5.737 5.737 0 0 1-5.707-4.936L4.295 47.385h.008a5.93 5.93 0 0 1-.058-.82V21.253c0-.4.04-.791.116-1.16v-.008c.001-.007.007-.018.008-.025.03-.142.077-.307.14-.513l.017-.067c.167-.515.4-1 .696-1.44v-.01c.009-.012.025-.02.033-.033a5.73 5.73 0 0 1 4.738-2.501h22.968c1.375 0 2.7.488 3.744 1.383l4.68 4.009 5.64-13.161a5.748 5.748 0 0 1 5.292-3.487ZM25.324 25.329v77.344h77.344V25.328Zm9.857 9.666h12.448c2.031 0 3.82.373 5.367 1.118 1.548.746 2.733 1.794 3.562 3.148.842 1.354 1.267 2.909 1.267 4.704 0 1.796-.428 3.382-1.284 4.763-.843 1.367-2.052 2.438-3.627 3.197-.299.143-.63.236-.961.331-.14.04-.284.08-.423.124L58.446 64h-6.485l-6.253-10.966h-4.879V64h-5.648zm27.423 0h7.869l5.972 19.042.497 2.485.43-2.485 5.757-19.042h8V64h-5.59V43.302l.083-1.516L78.863 64h-4.1l-6.667-22.065.083 1.367V64h-5.575zM40.838 39.7v8.639h6.419c.953 0 1.78-.178 2.484-.522.718-.36 1.27-.857 1.657-1.508.387-.662.58-1.419.58-2.302 0-.884-.194-1.644-.58-2.278a3.772 3.772 0 0 0-1.657-1.49c-.704-.36-1.531-.54-2.484-.54zm-5.856 47.5h30.935v5.807H34.982Z"/></svg>
