<svg xmlns="http://www.w3.org/2000/svg" viewBox="0 0 128 128"><path fill="#632ca6" d="M104.375 90.884 93.726 83.86 84.843 98.7 74.51 95.677l-9.098 13.885.467 4.371 49.463-9.114-2.873-30.905zM58.247 77.56l7.936-1.092c1.284.577 2.178.797 3.718 1.189 2.397.625 5.173 1.224 9.284-.848.957-.474 2.95-2.296 3.755-3.335l32.515-5.898 3.317 40.144-55.704 10.04zm60.4-14.466-3.21.612L109.271 0 4.207 12.183 17.151 117.22l12.297-1.785c-.982-1.402-2.511-3.099-5.122-5.27-3.622-3.01-2.341-8.12-.205-11.348 2.826-5.453 17.39-12.383 16.565-21.099-.296-3.169-.8-7.295-3.741-10.121a9.8 9.8 0 0 0 .088 2.303s-1.208-1.541-1.81-3.643c-.598-.805-1.068-1.063-1.703-2.139-.453 1.245-.393 2.69-.393 2.69s-.988-2.336-1.148-4.306c-.586.882-.734 2.558-.734 2.558s-1.284-3.68-.991-5.662c-.586-1.725-2.323-5.148-1.831-12.929 3.206 2.247 10.265 1.713 13.015-2.34.913-1.343 1.538-5.008-.456-12.23-1.28-4.63-4.453-11.526-5.689-14.142l-.148.106c.652 2.108 1.996 6.526 2.511 8.668 1.56 6.498 1.98 8.76 1.247 11.755-.623 2.604-2.118 4.309-5.908 6.213-3.789 1.91-8.817-2.739-9.136-2.996-3.681-2.933-6.53-7.717-6.847-10.042-.33-2.544 1.466-4.072 2.372-6.152-1.296.37-2.742 1.028-2.742 1.028s1.725-1.785 3.852-3.329c.88-.583 1.398-.954 2.326-1.725-1.344-.022-2.435.016-2.435.016s2.241-1.21 4.564-2.092c-1.7-.075-3.326-.012-3.326-.012s5-2.236 8.95-3.878c2.715-1.113 5.369-.784 6.86 1.371 1.956 2.824 4.011 4.357 8.367 5.308 2.674-1.185 3.487-1.795 6.848-2.71 2.958-3.253 5.28-3.674 5.28-3.674s-1.152 1.057-1.46 2.717a39 39 0 0 1 3.516-2.424s-.711.879-1.375 2.275l.154.229c1.957-1.174 4.257-2.1 4.257-2.1s-.658.832-1.429 1.908c1.475-.012 4.468.063 5.63.195 6.856.15 8.28-7.324 10.91-8.26 3.295-1.177 4.767-1.889 10.382 3.626 4.817 4.734 8.581 13.208 6.713 15.106-1.567 1.576-4.658-.614-8.084-4.885-1.81-2.262-3.18-4.934-3.82-8.332-.542-2.867-2.648-4.53-2.648-4.53s1.223 2.717 1.223 5.118c0 1.31.164 6.212 2.266 8.962-.208.402-.305 1.99-.535 2.293-2.446-2.955-7.697-5.07-8.554-5.693 2.899 2.375 9.561 7.831 12.12 13.06 2.42 4.945.994 9.477 2.218 10.65.349.337 5.205 6.388 6.14 9.428 1.629 5.3.097 10.867-2.036 14.322l-5.957.928c-.872-.242-1.459-.363-2.24-.816.43-.762 1.286-2.664 1.295-3.055l-.336-.59c-1.854 2.625-4.96 5.176-7.54 6.64-3.377 1.914-7.27 1.62-9.803.835C61.744 71 54.944 66.14 53.304 64.864c0 0-.05 1.02.259 1.248 1.813 2.045 5.967 5.745 9.982 8.323l-8.56.942 4.047 31.508c-1.794.257-2.073.382-4.037.662-1.731-6.115-5.042-10.108-8.661-12.434-3.192-2.05-7.594-2.513-11.808-1.679l-.27.314c2.93-.305 6.388.12 9.942 2.37 3.487 2.204 6.297 7.9 7.332 11.329 1.324 4.382 2.24 9.07-1.325 14.039-2.537 3.532-9.942 5.484-15.924 1.261 1.598 2.57 3.758 4.672 6.665 5.068 4.317.586 8.415-.163 11.235-3.058 2.408-2.476 3.685-7.652 3.349-13.104l3.81-.553 1.375 9.785 63.078-7.595zM80.27 36.521c-.176.402-.453.665-.037 1.973l.025.075.066.169.173.392c.75 1.53 1.571 2.974 2.945 3.711q.534-.09 1.105-.12c1.29-.056 2.105.149 2.622.427.046-.258.057-.634.028-1.189-.1-1.939.384-5.236-3.342-6.972-1.407-.653-3.38-.451-4.038.364.12.015.227.04.311.068.994.349.32.691.142 1.102m10.444 18.09c-.488-.269-2.772-.163-4.378.029-3.058.36-6.36 1.421-7.084 1.986-1.315 1.017-.717 2.79.254 3.518 2.725 2.035 5.114 3.4 7.636 3.068 1.548-.203 2.913-2.654 3.88-4.879.663-1.532.663-3.185-.308-3.722m-27.076-15.69c.862-.818-4.297-1.895-8.3.835-2.952 2.013-3.046 6.33-.22 8.777.283.243.516.414.735.555a24 24 0 0 1 2.847-1.133c1.828-.594 3.349-.9 4.598-1.063.598-.668 1.293-1.845 1.12-3.975-.236-2.89-2.426-2.43-.78-3.995"/></svg>
