<svg xmlns="http://www.w3.org/2000/svg" viewBox="0 0 128 128"><path fill="#e75225" d="M64.072 8.914c-22.529 0-41.01 18.03-41.072 40.049 0 22.509 18.153 40.745 40.58 40.766 22.959 0 41.339-17.95 41.36-40.46.04-22.14-18.4-40.355-40.868-40.355zm-.185 4.846c-1.227 3.169.102 5.887 1.308 8.545 2.024 4.497 3.006 9.24 3.272 14.168.04.306.062.632.123.94 0 .101.081.163.142.245.45-3.026.758-6.01 1.33-8.974.573-3.026 1.47-5.93 3.801-8.22-1.104 4.846.94 8.852 3.149 12.88 2.76 5.008 3.538 10.324 1.636 15.824-.552 1.595-1.554 3.086-2.392 4.742 4.232-.818 8.484-1.634 12.96-2.514-1.246 3.926-3.23 7.033-5.866 9.752-.246.246-.735.307-1.123.307-12.205.02-24.391.02-36.596 0-.43 0-.96-.164-1.205-.43-2.29-2.719-4.355-5.54-5.5-8.933-.02-.123-.001-.287-.022-.676 4.007.859 7.933 1.677 12.246 2.576-2.657-3.455-4.21-6.93-3.78-10.855.306-2.72 1.123-5.397 1.839-8.096.43-1.615 1.186-3.169 1.697-4.764.757-2.33 1.267-4.68.756-7.195 3.803 2.699 3.863 6.889 4.395 11.223 1.451-2.004 2.086-4.11 2.515-6.256.348-2.065.572-4.17.715-6.256.164-2.433.818-4.64 2.453-6.522.552-.633 1.308-1.062 2.147-1.511zM44.875 65.176h38.25v6.623h-38.25v-6.623zm7.564 9.996h23.02c.43 4.538-4.682 9.057-10.447 9.303-6.951.306-12.593-3.804-12.572-9.303zm28.58 26.312v17.377h1.125v-8.914a6.463 6.463 0 0 1 1.778-1.656 4.044 4.044 0 0 1 2.168-.613c1.022 0 1.819.307 2.33.941.511.634.758 1.512.758 2.637v7.586h1.144v-7.586c0-.695-.062-1.329-.246-1.881a3.411 3.411 0 0 0-.715-1.41c-.347-.389-.778-.676-1.248-.9-.47-.225-1.042-.307-1.717-.307a4.74 4.74 0 0 0-2.351.613 7.476 7.476 0 0 0-1.88 1.637v-7.524h-1.146zM0 101.934v16.908h1.207v-6.809h3.127c.94 0 1.8-.122 2.516-.367.736-.286 1.37-.615 1.88-1.064.511-.45.9-.96 1.186-1.594.286-.634.428-1.33.428-2.045 0-1.615-.51-2.842-1.512-3.72-1.002-.88-2.473-1.31-4.477-1.31H0zm72.822.879a.264.264 0 0 0-.205.081.25.25 0 0 0-.082.184l-.265 4.254-2.024.143v.449c0 .082.02.144.082.205a.34.34 0 0 0 .203.06h1.698v8.137c0 .9.226 1.595.675 2.045.47.47 1.063.674 1.881.674.511 0 .98-.122 1.47-.244a3.638 3.638 0 0 0 1.145-.819l-.306-.511c-.062-.103-.123-.121-.184-.121a.39.39 0 0 0-.244.12c-.102.082-.226.184-.37.266-.163.082-.347.184-.552.266-.204.102-.49.123-.756.123-.204 0-.428-.062-.633-.123a1.225 1.225 0 0 1-.511-.326 1.687 1.687 0 0 1-.326-.573c-.103-.224-.123-.51-.123-.837v-8.077h3.72v-.837h-3.742v-4.54h-.55zm-71.595.122h3.148c1.554 0 2.78.368 3.557 1.063.817.695 1.207 1.678 1.207 2.986 0 .614-.124 1.144-.328 1.635-.225.532-.51.94-.94 1.309-.43.347-.941.633-1.514.838-.592.224-1.245.306-2.002.306H1.207s0-8.136.02-8.136zm18.113 3.823c-.94 0-1.718.266-2.352.818-.654.552-1.144 1.309-1.533 2.27l-.082-2.514c0-.123-.019-.206-.08-.268-.061-.06-.184-.08-.307-.08h-.613v11.877s1.164-.04 1.123-.082v-7.726c.327-1.043.818-1.862 1.39-2.414.573-.573 1.308-.838 2.208-.838.245 0 .492.042.676.062.184.062.367.103.49.123.122.062.246.101.328.121a.455.455 0 0 0 .203.063c.164 0 .226-.063.246-.186l.143-.775a3.762 3.762 0 0 0-.838-.328c-.307-.102-.634-.123-1.002-.123zm10.305.021c-.86 0-1.637.144-2.291.43-.675.307-1.246.694-1.696 1.246s-.819 1.187-1.064 1.943c-.246.757-.367 1.595-.367 2.536 0 .92.121 1.757.367 2.513.245.757.614 1.39 1.064 1.942s1.02.982 1.696 1.248c.695.286 1.452.43 2.29.43.88 0 1.615-.165 2.29-.43.674-.307 1.247-.696 1.697-1.248a5.934 5.934 0 0 0 1.062-1.942c.246-.736.368-1.573.368-2.513s-.122-1.78-.368-2.536a5.944 5.944 0 0 0-1.062-1.943c-.45-.552-1.023-.94-1.697-1.246a5.935 5.935 0 0 0-2.29-.43zm33.732 0c-.838 0-1.595.143-2.31.327a4.439 4.439 0 0 0-1.698 1.207 6.068 6.068 0 0 0-1.062 1.88 7.27 7.27 0 0 0-.37 2.352c0 1.002.123 1.92.39 2.697.285.797.634 1.452 1.124 2.004.47.552 1.042.982 1.717 1.248.675.286 1.391.43 2.209.43.45 0 .878-.041 1.328-.123.47-.102.86-.226 1.248-.37a6.458 6.458 0 0 0 1.063-.55c.306-.225.572-.43.756-.676l-.307-.389c-.062-.102-.163-.12-.244-.12-.082 0-.205.08-.389.202a3.11 3.11 0 0 1-.717.452c-.266.184-.653.326-1.082.449-.409.143-.92.203-1.533.203-.675 0-1.268-.08-1.82-.326-.552-.205-1.003-.572-1.39-1.022a4.934 4.934 0 0 1-.88-1.697c-.225-.695-.307-1.472-.307-2.351v-.206h8.586c.123 0 .185-.018.247-.08.06-.061.081-.185.081-.369 0-.818-.123-1.573-.369-2.207a4.237 4.237 0 0 0-.96-1.637 4.37 4.37 0 0 0-1.471-1.002 5.177 5.177 0 0 0-1.84-.326zm36.002 0a8.31 8.31 0 0 0-2.27.327 4.438 4.438 0 0 0-1.697 1.207 6.064 6.064 0 0 0-1.062 1.88 7.27 7.27 0 0 0-.37 2.352c0 1.002.123 1.92.39 2.697.285.797.654 1.452 1.124 2.004.47.552 1.042.982 1.717 1.248.675.286 1.391.43 2.209.43.45 0 .878-.041 1.328-.123.47-.102.86-.226 1.248-.37a6.466 6.466 0 0 0 1.063-.55c.306-.225.571-.43.755-.676l-.306-.389c-.061-.102-.162-.12-.244-.12-.082 0-.205.08-.389.202-.164.144-.41.308-.717.452-.266.184-.652.326-1.082.449-.409.143-.922.203-1.535.203-.675 0-1.266-.08-1.818-.326-.552-.205-1.002-.572-1.391-1.022a4.934 4.934 0 0 1-.879-1.697c-.225-.695-.306-1.472-.306-2.351v-.206h8.545c.122 0 .184-.018.246-.08.06-.061.082-.185.082-.369 0-.818-.124-1.573-.37-2.207a4.235 4.235 0 0 0-.96-1.637 4.369 4.369 0 0 0-1.471-1.002 5.177 5.177 0 0 0-1.84-.326zm-55.67.041c-.368 0-.735.02-1.062.143a5.156 5.156 0 0 0-.961.45 5.166 5.166 0 0 0-.838.694 8.389 8.389 0 0 0-.758.9l-.121-1.716c-.041-.225-.165-.307-.37-.307h-.632v11.877l1.185.063v-8.977c.45-.695.92-1.205 1.471-1.594a2.979 2.979 0 0 1 1.78-.572c.878 0 1.573.285 2.023.899.45.633.695 1.513.695 2.658v7.605h1.145v-7.584c0-.572.062-1.083.246-1.533.184-.45.388-.818.695-1.125.286-.306.634-.492 1.002-.676.368-.184.756-.244 1.186-.244.94 0 1.635.285 2.146.899.511.613.756 1.513.756 2.658v7.586h1.146v-7.586c0-.716-.083-1.349-.267-1.9-.184-.573-.429-1.024-.756-1.413-.327-.388-.714-.695-1.205-.879-.45-.224-1.002-.306-1.574-.306-.43 0-.819.104-1.207.185a2.78 2.78 0 0 0-1.084.51c-.327.205-.613.511-.88.88-.285.367-.47.776-.613 1.267-.184-.9-.551-1.595-1.062-2.106-.511-.51-1.207-.756-2.086-.756zm80.59.02c-.613 0-1.144.081-1.635.265a3.1 3.1 0 0 0-1.246.696c-.327.306-.593.635-.777 1.023a2.729 2.729 0 0 0-.266 1.205c0 .491.082.921.266 1.248.184.327.449.593.756.838.306.246.674.409 1.062.572.388.164.778.307 1.207.43.43.143.817.266 1.205.389.389.122.758.265 1.065.45.306.183.571.407.755.673.184.286.266.613.266 1.002 0 .347-.082.696-.205 1.023-.123.327-.327.593-.572.838-.266.245-.573.43-.961.572-.389.144-.817.205-1.328.205-.511 0-.96-.062-1.328-.185-.348-.164-.655-.285-.9-.428a3.779 3.779 0 0 1-.614-.43c-.143-.122-.307-.183-.389-.183-.082 0-.142.04-.203.06a.287.287 0 0 0-.123.143l-.266.389c.491.45 1.022.796 1.635 1.062s1.308.389 2.147.389c.633 0 1.226-.061 1.757-.266.532-.204.941-.47 1.309-.777.368-.307.634-.695.818-1.145.184-.45.266-.94.266-1.45 0-.45-.082-.88-.266-1.208-.184-.327-.449-.592-.756-.838-.306-.204-.675-.429-1.064-.572a10.455 10.455 0 0 0-1.205-.43c-.43-.143-.819-.264-1.207-.386a5.037 5.037 0 0 1-1.063-.451c-.306-.185-.571-.388-.755-.633-.184-.246-.266-.574-.266-.942 0-.306.06-.613.203-.879a2.11 2.11 0 0 1 .572-.715 2.89 2.89 0 0 1 .9-.49 3.694 3.694 0 0 1 1.186-.185c.491 0 .88.063 1.207.144.327.082.634.204.838.326.225.123.408.247.551.329.123.081.246.142.328.142.123 0 .204-.06.266-.183 0 0 .327-.43.306-.37-.45-.409-.96-.756-1.533-.96-.572-.225-1.228-.307-1.943-.307zm-15.904.144-1.145.02v7.584c0 .695.06 1.329.244 1.88.184.573.41 1.024.758 1.413.348.388.776.673 1.246.898.47.225 1.042.307 1.717.307.9 0 1.696-.204 2.412-.633a6.618 6.618 0 0 0 1.902-1.656l.123 1.758c0 .225.122.306.327.306h.634v-11.877h-1.144v8.912c-.552.695-1.146 1.249-1.82 1.637a4.044 4.044 0 0 1-2.169.613c-1.022 0-1.819-.307-2.33-.94-.51-.635-.755-1.513-.755-2.638v-7.584zm-45.018.633c.552 0 1.063.103 1.533.287.45.205.838.49 1.145.817.286.327.53.756.715 1.267.184.511.265 1.085.265 1.719h-7.83a6.073 6.073 0 0 1 .43-1.697c.204-.532.47-.94.838-1.309s.776-.634 1.267-.818c.49-.184 1.023-.266 1.637-.266zm36.002 0c.531 0 1.022.103 1.492.287.45.205.838.49 1.145.817.286.327.53.756.715 1.267.184.511.265 1.085.265 1.719h-7.789a6.076 6.076 0 0 1 .43-1.697c.204-.532.47-.94.838-1.309a3.472 3.472 0 0 1 1.267-.818c.49-.184 1.024-.266 1.637-.266zm-69.734.041c.695 0 1.287.122 1.84.367.551.246.96.615 1.328 1.065.327.45.593 1.022.777 1.656.184.634.266 1.37.266 2.147 0 .776-.103 1.512-.266 2.146-.164.634-.41 1.185-.777 1.635-.368.45-.777.817-1.329 1.062-.51.246-1.144.37-1.84.37-.735 0-1.328-.124-1.84-.37-.551-.245-.961-.612-1.33-1.062a5.272 5.272 0 0 1-.777-1.635c-.184-.634-.265-1.37-.265-2.146 0-.777.081-1.513.265-2.147a3.89 3.89 0 0 1 .778-1.656c.368-.45.778-.82 1.33-1.065.51-.245 1.144-.367 1.84-.367z"/></svg>
