<svg xmlns="http://www.w3.org/2000/svg" viewBox="0 0 128 128"><path fill="#e75225" d="M64.124.506C28.904.498.023 28.83 0 63.438c-.025 35.374 28.33 64.032 63.395 64.056 35.848.025 64.56-28.207 64.605-63.543C128.045 29.13 99.226.513 64.124.506Zm0 .992c34.563.007 62.928 28.18 62.884 62.454-.045 34.799-28.284 62.575-63.61 62.55C28.871 126.478.967 98.284.991 63.44 1.015 29.384 29.436 1.49 64.124 1.498Zm.764 5.876-1.175.624c-1.306.692-2.54 1.393-3.455 2.45-2.592 2.995-3.66 6.599-3.932 10.478-.229 3.249-.54 6.502-1.14 9.675-.54 2.866-1.498 5.615-3.118 8.256-.347-2.775-.646-5.54-1.403-8.12-.896-3.054-2.463-5.861-5.506-8.028l-1.025-.73.25 1.232c.772 3.81.028 7.377-1.144 10.948-.804 2.457-1.939 4.871-2.63 7.461-1.11 4.16-2.378 8.378-2.848 12.702-.64 5.892 1.564 11.123 5.26 16.22l-18.39-3.868.035.646c.03.573-.028.796.09 1.147 1.827 5.367 5.032 9.866 8.594 14.081.56.663 1.487.847 2.24.847 18.903.038 37.807.033 56.711.008.648 0 1.514-.035 2.087-.641 4.096-4.305 7.24-9.23 9.202-15.413l.254-.799-19.859 3.888c1.184-2.199 2.445-4.263 3.233-6.531l.002-.002c3.017-8.71 1.755-17.17-2.56-25.085-3.417-6.267-6.49-12.362-4.824-19.74l.374-1.656-1.207 1.194c-3.718 3.676-5.135 8.34-6.023 13.058-.69 3.677-1.13 7.388-1.626 11.093-.495-7.316-1.93-14.41-4.965-21.186-1.863-4.158-3.823-8.214-1.983-12.969Zm-1.68 2.178c-1.198 4.598.583 8.657 2.276 12.438 3.132 6.991 4.618 14.313 5.026 21.93v.005a14.357 14.357 0 0 0 .18 1.533c.067.388.267.487.32.563l.719 1.055.18-1.264c.673-4.693 1.185-9.363 2.046-13.951.781-4.15 2.041-8.078 4.781-11.351-.96 6.998 1.88 12.965 5.055 18.785 4.212 7.726 5.416 15.844 2.492 24.287-.843 2.428-2.337 4.693-3.678 7.321l-.464.91 20.194-3.956c-1.927 5.642-4.843 10.204-8.665 14.22l-.002.003c-.14.148-.842.331-1.366.331-18.903.025-37.807.03-56.709-.008-.517 0-1.296-.27-1.485-.494-3.526-4.173-6.643-8.568-8.41-13.76-.003-.008-.008-.198-.01-.24l19.645 4.136-.818-1.064c-4.083-5.32-6.416-10.578-5.767-16.553.457-4.201 1.706-8.372 2.822-12.552.66-2.474 1.785-4.872 2.614-7.407v-.002c1.047-3.191 1.722-6.492 1.335-9.984 2.115 1.866 3.46 4.03 4.194 6.533.855 2.914 1.11 6.178 1.568 9.5l.167 1.215.724-.99c2.322-3.173 3.347-6.556 3.989-9.956.611-3.233.925-6.524 1.155-9.789.262-3.743 1.268-7.099 3.692-9.9.532-.613 1.39-1.064 2.2-1.544zm-29.384 78.64v11.29h60.283v-11.29h-.497zm.992.992h58.298v9.306H34.816Zm10.767 14.63-.002.494c-.025 4.457 2.246 8.353 5.876 11.04 3.631 2.689 8.622 4.196 14.122 3.96 4.599-.198 8.916-2.098 12.016-4.868 3.1-2.77 5.005-6.44 4.647-10.176l-.044-.45zm1.05.992h34.598c.133 3.193-1.502 6.396-4.297 8.894-2.926 2.615-7.045 4.428-11.397 4.616-5.294.227-10.067-1.23-13.49-3.764-3.282-2.43-5.27-5.84-5.413-9.746z"/></svg>
