<?xml version="1.0" encoding="UTF-8"?>
<svg xmlns="http://www.w3.org/2000/svg" xmlns:xlink="http://www.w3.org/1999/xlink" width="128px" height="128px" viewBox="0 0 128 128" version="1.1">
<g id="surface1">
<path style=" stroke:none;fill-rule:nonzero;fill:rgb(100%,40%,0%);fill-opacity:1;" d="M 119.515625 51.191406 L 79.289062 51.191406 C 77.28125 51.191406 75.648438 49.5625 75.648438 47.550781 L 75.648438 5.625 C 75.648438 2.507812 73.144531 0.00390625 70.027344 0.00390625 L 55.65625 0.00390625 C 52.535156 0.00390625 50.03125 2.507812 50.03125 5.625 L 50.03125 47.269531 C 50.03125 49.445312 48.285156 51.195312 46.109375 51.195312 L 32.921875 51.242188 C 30.746094 51.242188 28.949219 49.492188 28.996094 47.316406 L 29.089844 5.628906 C 29.089844 2.507812 26.585938 0.00390625 23.464844 0.00390625 L 9.097656 0.00390625 C 5.976562 0.00390625 3.472656 2.511719 3.472656 5.628906 L 3.472656 122.992188 C 3.472656 125.730469 5.691406 128.003906 8.480469 128.003906 L 119.515625 128.003906 C 122.253906 128.003906 124.523438 125.78125 124.523438 122.992188 L 124.523438 56.199219 C 124.53125 54.867188 124.007812 53.589844 123.066406 52.648438 C 122.125 51.707031 120.84375 51.183594 119.515625 51.191406 Z M 100.65625 95.246094 C 100.644531 98.84375 97.730469 101.757812 94.132812 101.769531 L 82.789062 101.769531 C 79.191406 101.757812 76.277344 98.84375 76.265625 95.246094 L 76.265625 83.902344 C 76.277344 80.304688 79.191406 77.390625 82.789062 77.378906 L 94.132812 77.378906 C 97.730469 77.390625 100.644531 80.304688 100.65625 83.902344 Z M 100.65625 95.246094 "/>
</g>
</svg>
