<?xml version="1.0" encoding="UTF-8"?>
<svg xmlns="http://www.w3.org/2000/svg" xmlns:xlink="http://www.w3.org/1999/xlink" width="128px" height="128px" viewBox="0 0 128 128" version="1.1">
<g id="surface1">
<path style=" stroke:none;fill-rule:nonzero;fill:rgb(65.882353%,70.196078%,68.235294%);fill-opacity:1;" d="M 126.570312 70.921875 L 125.683594 73.707031 L 125.410156 73.707031 L 124.515625 70.921875 L 124.515625 73.707031 L 124.277344 73.707031 L 124.277344 70.683594 L 124.710938 70.683594 L 125.558594 73.335938 L 126.402344 70.683594 L 126.828125 70.683594 L 126.828125 73.707031 L 126.585938 73.707031 L 126.585938 70.921875 Z M 126.570312 70.921875 "/>
<path style=" stroke:none;fill-rule:nonzero;fill:rgb(65.882353%,70.196078%,68.235294%);fill-opacity:1;" d="M 123.988281 70.683594 L 121.273438 70.683594 L 121.273438 70.921875 L 122.507812 70.921875 L 122.507812 73.707031 L 122.746094 73.707031 L 122.746094 70.921875 L 123.988281 70.921875 Z M 123.988281 70.683594 "/>
<path style=" stroke:none;fill-rule:nonzero;fill:rgb(65.882353%,70.196078%,68.235294%);fill-opacity:1;" d="M 95.296875 73.664062 L 93.53125 73.664062 L 87.714844 55.785156 L 87.714844 73.664062 L 86.164062 73.664062 L 86.164062 54.230469 L 88.949219 54.230469 L 94.363281 71.242188 L 94.421875 71.242188 L 99.855469 54.230469 L 102.570312 54.230469 L 102.570312 73.664062 L 101.039062 73.664062 L 101.039062 55.785156 Z M 95.296875 73.664062 "/>
<path style=" stroke:none;fill-rule:nonzero;fill:rgb(100%,40%,0%);fill-opacity:1;" d="M 23.859375 54.226562 L 23.859375 73.664062 L 25.539062 73.664062 L 25.539062 64.875 L 27.867188 64.875 C 28.480469 64.863281 29.09375 64.960938 29.675781 65.171875 C 31.390625 65.824219 31.582031 67.816406 31.894531 69.089844 L 32.867188 73.6875 L 34.558594 73.6875 L 33.460938 68.445312 C 33.140625 66.863281 32.921875 66.1875 32.484375 65.503906 C 31.902344 64.597656 30.242188 64.105469 30.242188 64.105469 C 32.964844 63.574219 34.148438 61.738281 34.148438 59.242188 C 34.148438 56.945312 33.042969 54.265625 27.949219 54.265625 L 23.859375 54.265625 Z M 25.539062 55.773438 L 27.757812 55.773438 C 32.191406 55.773438 32.453125 58.136719 32.453125 59.207031 C 32.453125 60.089844 32.285156 63.328125 27.074219 63.328125 L 25.539062 63.328125 Z M 25.539062 55.773438 "/>
<path style=" stroke:none;fill-rule:nonzero;fill:rgb(100%,40%,0%);fill-opacity:1;" d="M 36.558594 63.46875 L 38.277344 63.46875 C 38.433594 62.6875 38.769531 61.292969 41.0625 61.292969 C 44.0625 61.292969 43.960938 63.902344 43.960938 64.910156 L 43.960938 66.085938 C 43.960938 66.085938 42.984375 66.085938 42.378906 66.144531 C 40.085938 66.324219 36.34375 66.921875 36.34375 70.382812 C 36.34375 73.851562 39.210938 73.96875 39.765625 73.96875 C 40.589844 73.980469 41.398438 73.789062 42.128906 73.402344 C 42.851562 73.011719 43.464844 72.453125 43.917969 71.765625 L 43.976562 71.765625 L 43.976562 73.664062 L 45.371094 73.664062 L 45.371094 64.511719 C 45.371094 63.140625 45.496094 59.949219 41.191406 59.949219 C 36.886719 59.949219 36.558594 62.832031 36.558594 63.46875 Z M 43.957031 67.429688 C 43.957031 67.945312 43.921875 68.464844 43.859375 68.980469 C 43.570312 70.878906 41.9375 72.28125 40.019531 72.273438 C 39.507812 72.324219 39 72.15625 38.625 71.804688 C 38.246094 71.460938 38.035156 70.972656 38.035156 70.457031 C 38.035156 69.746094 38.308594 68.085938 41.03125 67.5625 C 41.605469 67.453125 43.957031 67.429688 43.957031 67.429688 Z M 43.957031 67.429688 "/>
<path style=" stroke:none;fill-rule:nonzero;fill:rgb(100%,40%,0%);fill-opacity:1;" d="M 47.675781 54.226562 L 47.675781 68.175781 C 47.675781 68.929688 47.699219 73.972656 52.332031 73.972656 C 53.449219 73.972656 57.515625 73.578125 57.515625 67.113281 C 57.515625 60.640625 53.945312 59.960938 52.871094 59.960938 C 51.128906 59.953125 49.605469 61.113281 49.136719 62.792969 L 49.089844 62.792969 L 49.089844 54.226562 L 47.667969 54.226562 Z M 55.824219 67.074219 C 55.824219 72.5 52.800781 72.609375 52.332031 72.609375 C 51.863281 72.609375 49.140625 72.609375 49.140625 67.292969 C 49.140625 62.882812 51.257812 61.289062 52.714844 61.289062 C 54.167969 61.289062 55.824219 62.792969 55.824219 67.078125 Z M 55.824219 67.074219 "/>
<path style=" stroke:none;fill-rule:nonzero;fill:rgb(100%,40%,0%);fill-opacity:1;" d="M 59.691406 54.226562 L 59.691406 68.175781 C 59.691406 68.929688 59.714844 73.972656 64.351562 73.972656 C 65.464844 73.972656 69.527344 73.578125 69.527344 67.113281 C 69.527344 60.640625 65.960938 59.960938 64.886719 59.960938 C 63.148438 59.953125 61.617188 61.113281 61.152344 62.792969 L 61.09375 62.792969 L 61.09375 54.226562 L 59.675781 54.226562 Z M 67.835938 67.074219 C 67.835938 72.5 64.816406 72.609375 64.351562 72.609375 C 63.878906 72.609375 61.15625 72.609375 61.15625 67.292969 C 61.15625 62.882812 63.273438 61.289062 64.726562 61.289062 C 66.1875 61.289062 67.832031 62.792969 67.832031 67.078125 Z M 67.835938 67.074219 "/>
<path style=" stroke:none;fill-rule:nonzero;fill:rgb(100%,40%,0%);fill-opacity:1;" d="M 73.308594 60.257812 L 73.308594 73.664062 L 71.90625 73.664062 L 71.90625 60.257812 Z M 73.308594 60.257812 "/>
<path style=" stroke:none;fill-rule:nonzero;fill:rgb(100%,40%,0%);fill-opacity:1;" d="M 73.632812 54.230469 L 73.632812 56.507812 L 71.558594 56.507812 L 71.558594 54.230469 Z M 73.632812 54.230469 "/>
<path style=" stroke:none;fill-rule:nonzero;fill:rgb(100%,40%,0%);fill-opacity:1;" d="M 83.082031 73.851562 C 82.613281 73.914062 82.136719 73.957031 81.65625 73.972656 C 80.707031 74.027344 79.765625 73.757812 78.996094 73.203125 C 78.410156 72.710938 78.117188 71.851562 78.117188 70.671875 L 78.117188 61.597656 L 75.980469 61.597656 L 75.980469 60.257812 L 78.117188 60.257812 L 78.117188 57.160156 L 79.507812 56.222656 L 79.507812 60.25 L 83.082031 60.25 L 83.082031 61.59375 L 79.515625 61.59375 L 79.515625 70.21875 C 79.515625 70.605469 79.421875 72.605469 81.539062 72.605469 C 82.0625 72.601562 82.582031 72.519531 83.082031 72.363281 Z M 83.082031 73.851562 "/>
<path style=" stroke:none;fill-rule:nonzero;fill:rgb(100%,40%,0%);fill-opacity:1;" d="M 19.765625 61.929688 L 13.527344 61.929688 C 13.316406 61.929688 13.117188 61.847656 12.972656 61.703125 C 12.820312 61.554688 12.738281 61.351562 12.742188 61.144531 L 12.742188 54.890625 C 12.742188 54.683594 12.660156 54.480469 12.511719 54.335938 C 12.367188 54.191406 12.164062 54.109375 11.960938 54.109375 L 9.625 54.109375 C 9.417969 54.109375 9.21875 54.191406 9.070312 54.335938 C 8.925781 54.480469 8.84375 54.683594 8.84375 54.890625 L 8.84375 61.144531 C 8.84375 61.351562 8.761719 61.554688 8.617188 61.703125 C 8.46875 61.847656 8.269531 61.929688 8.0625 61.929688 L 5.726562 61.929688 C 5.519531 61.929688 5.316406 61.847656 5.171875 61.703125 C 5.023438 61.554688 4.945312 61.351562 4.945312 61.144531 L 4.945312 54.890625 C 4.945312 54.683594 4.859375 54.480469 4.714844 54.332031 C 4.570312 54.1875 4.371094 54.105469 4.160156 54.105469 L 1.824219 54.105469 C 1.613281 54.105469 1.417969 54.1875 1.269531 54.335938 C 1.121094 54.480469 1.042969 54.683594 1.042969 54.890625 L 1.042969 72.882812 C 1.042969 73.09375 1.125 73.292969 1.273438 73.4375 C 1.417969 73.585938 1.617188 73.671875 1.828125 73.667969 L 19.765625 73.667969 C 19.972656 73.671875 20.171875 73.585938 20.320312 73.4375 C 20.464844 73.292969 20.546875 73.09375 20.546875 72.882812 L 20.546875 62.730469 C 20.550781 62.515625 20.472656 62.316406 20.324219 62.164062 C 20.179688 62.011719 19.972656 61.929688 19.765625 61.929688 Z M 16.628906 68.574219 C 16.628906 68.890625 16.507812 69.1875 16.285156 69.410156 C 16.066406 69.628906 15.769531 69.75 15.460938 69.75 L 13.894531 69.75 C 13.585938 69.75 13.285156 69.628906 13.066406 69.410156 C 12.851562 69.1875 12.726562 68.890625 12.726562 68.574219 L 12.726562 67.015625 C 12.726562 66.699219 12.851562 66.402344 13.066406 66.179688 C 13.285156 65.960938 13.585938 65.835938 13.894531 65.835938 L 15.460938 65.835938 C 15.769531 65.835938 16.066406 65.960938 16.285156 66.179688 C 16.507812 66.402344 16.628906 66.699219 16.628906 67.015625 Z M 16.628906 68.574219 "/>
<path style=" stroke:none;fill-rule:nonzero;fill:rgb(65.882353%,70.196078%,68.235294%);fill-opacity:1;" d="M 115.460938 72.34375 C 117.253906 70.804688 118.214844 67.933594 118.214844 63.792969 C 118.214844 57.761719 115.941406 53.890625 111.699219 53.890625 C 107.722656 53.890625 104.949219 57.132812 104.949219 63.792969 C 104.949219 70.453125 107.304688 73.675781 111.582031 73.675781 L 119.582031 73.675781 L 119.582031 72.042969 Z M 106.792969 63.796875 C 106.792969 58.257812 108.371094 55.570312 111.679688 55.570312 C 114.984375 55.570312 116.351562 58.785156 116.351562 63.796875 C 116.351562 68.8125 115.148438 72.042969 111.597656 72.042969 C 108.042969 72.042969 106.792969 69.335938 106.792969 63.796875 Z M 106.792969 63.796875 "/>
</g>
</svg>
