<svg width="128mm" height="128mm" version="1.1" viewBox="0 0 128 128" xmlns="http://www.w3.org/2000/svg"><path d="m64 0a50.912 50.912 0 0 0-50.912 50.912 50.912 50.912 0 0 0 50.912 50.912 50.912 50.912 0 0 0 50.912-50.912 50.912 50.912 0 0 0-50.912-50.912zm7.8813 17.676c5.6237-0.01122 11.595 1.9308 12.595 8.3039 0.5674 3.6162 0.95363 9.6234-7.9234 14.186 6.8731 1.8571 9.1709 6.2791 9.2507 10.631 0.18751 10.217-9.731 16.465-18.659 15.467l0.06619-5.1558c7.9051 0.90709 11.744-4.2453 11.915-9.0854 0.17528-4.9601-4.1695-8.382-11.915-8.2301l-0.11964-4.8496c9.6967-0.71903 12.428-7.4328 11.221-11.162-1.6529-5.1057-6.9291-6.0487-11.593-4.2527l-0.79709 5.6873-3.7109-0.11963 0.319-9.4481c1.8183-1.0429 5.5033-1.9651 9.351-1.9728zm-10.666 21.475v38.244c2.0357-0.14683 4.7835 0.56065 7.273 0.95824v4.1906l-22.073-0.01367v-4.2523c2.3784-0.32632 4.5751-0.87007 7.1756-0.92988v-32.822c-2.9281-0.04948-5.6835-0.69222-7.0695-1.1691v-4.0805l14.694-0.12414z" stroke-width=".21048"/><g transform="matrix(.66639 0 0 .66639 5.136 104.76)"><path d="m10.358 17.278c-0.432 0-0.972 0-1.548-0.072v5.219c1.08 0.072 2.196 0.252 3.132 0.433v2.916h-10.942v-2.916c0.936-0.181 2.052-0.36 3.131-0.433v-17.601c-1.079-0.073-2.195-0.252-3.131-0.432v-2.916h2.808c1.152 0 4.319-0.144 6.839-0.144 5.939 0 9.215 2.771 9.215 7.523-1e-3 4.715-3.6 8.423-9.504 8.423zm0.073-12.131c-0.576 0-1.08 0-1.62 0.036v8.099c0.468 0.072 0.936 0.108 1.368 0.108 2.844-0.036 4.823-1.62 4.823-4.248 0-2.447-1.368-3.995-4.571-3.995z"/><path d="m34.406 12.022c-3.671-0.684-5.328 1.476-5.328 6.443v3.959c1.08 0.072 2.196 0.252 3.132 0.432v2.916h-10.835v-2.916c0.936-0.18 2.052-0.359 3.131-0.432v-11.013c-0.864-0.144-2.087-0.288-3.131-0.36v-2.88c2.268-0.288 5.039-0.396 7.451-0.324 0 0.936-0.108 2.375-0.324 3.636h0.072c0.864-2.268 2.592-4.248 6.047-3.996z"/><path d="m44.738 26.133c-5.075 0-8.351-2.627-8.351-8.999 0-5.579 3.708-9.61 9.143-9.61 5.076 0 8.351 2.808 8.351 8.963 0 5.615-3.779 9.646-9.143 9.646zm0.468-14.722c-2.052 0-4.067 1.584-4.067 5.255s1.332 5.543 3.995 5.543c2.268 0 3.996-1.836 3.996-5.471-1e-3 -3.455-1.224-5.327-3.924-5.327z"/><path d="m64.897 26.098c-5.219 0-8.567-2.592-8.567-8.676 0-5.579 2.88-9.863 9.431-9.863 1.368 0 2.879 0.216 4.175 0.612v5.759h-2.952c-0.144-0.864-0.288-1.656-0.36-2.376-0.432-0.144-0.972-0.18-1.476-0.18-2.484 0-4.032 2.051-4.032 5.435 0 3.275 1.224 5.292 4.823 5.292 1.26 0 2.7-0.289 3.78-0.793l0.324 3.959c-1.474 0.469-3.094 0.831-5.146 0.831z"/><path d="m88.188 17.566h-11.086c-0.036 3.348 1.62 4.967 4.931 4.967 1.764 0 3.672-0.396 5.22-1.116l0.432 3.563c-1.908 0.756-4.175 1.151-6.407 1.151-5.687 0-8.855-2.844-8.855-9.143 0-5.472 3.024-9.503 8.387-9.503 5.219 0 7.523 3.563 7.523 7.991 0 0.614-0.037 1.334-0.145 2.09zm-7.522-6.695c-1.908 0-3.24 1.404-3.492 3.564h6.587c0.072-2.232-1.152-3.564-3.095-3.564z"/><path d="m96.11 26.133c-1.368 0-3.204-0.18-4.679-0.504v-5.363h2.916c0.18 0.721 0.288 1.549 0.36 2.34 0.504 0.108 1.224 0.181 1.8 0.181 1.836 0 3.096-0.792 3.096-2.124 0-3.132-8.639-1.476-8.639-7.415 0-3.24 2.628-5.723 7.703-5.723 1.332 0 3.023 0.18 4.644 0.54v5.147h-2.916c-0.18-0.72-0.288-1.548-0.36-2.304-0.504-0.108-1.152-0.18-1.62-0.18-1.944 0-2.844 0.792-2.844 1.979 0 3.167 8.639 1.692 8.639 7.308-1e-3 3.49-3.133 6.118-8.1 6.118z"/><path d="m111.91 26.133c-1.368 0-3.204-0.18-4.68-0.504v-5.363h2.916c0.181 0.721 0.289 1.549 0.361 2.34 0.504 0.108 1.223 0.181 1.799 0.181 1.836 0 3.097-0.792 3.097-2.124 0-3.132-8.64-1.476-8.64-7.415 0-3.24 2.629-5.723 7.703-5.723 1.332 0 3.023 0.18 4.645 0.54v5.147h-2.916c-0.18-0.72-0.288-1.548-0.36-2.304-0.504-0.108-1.151-0.18-1.62-0.18-1.943 0-2.844 0.792-2.844 1.979 0 3.167 8.639 1.692 8.639 7.308 0 3.49-3.133 6.118-8.1 6.118z"/><path d="m122.25 25.773v-2.916c0.936-0.181 2.052-0.36 3.131-0.433v-11.013c-0.863-0.144-2.087-0.288-3.131-0.36v-2.88c2.268-0.288 5.039-0.396 7.703-0.324v14.578c1.008 0.072 2.051 0.252 2.916 0.433v2.916h-10.619zm5.4-20.193c-1.584 0-2.845-1.26-2.845-2.808 0-1.512 1.261-2.772 2.845-2.772 1.582 0 2.879 1.224 2.879 2.772s-1.296 2.808-2.879 2.808z"/><path d="m148.56 14.326c0-1.872-0.504-2.987-2.197-2.987-2.34 0-4.176 2.664-4.176 5.795v5.292c0.864 0.072 1.836 0.18 2.629 0.396v2.951h-10.332v-2.916c0.937-0.18 2.053-0.359 3.132-0.432v-11.014c-0.864-0.144-2.087-0.288-3.132-0.36v-2.88c2.269-0.288 5.039-0.396 7.451-0.324 0 0.828-0.071 2.268-0.252 3.204l0.037 0.036c1.079-2.124 3.166-3.6 6.082-3.6 4.031 0 5.327 2.592 5.327 5.723v9.215c1.044 0.072 2.088 0.252 2.952 0.433v2.916h-7.523v-11.448z"/><path d="m165.62 34.88c-4.751 0-7.667-1.8-7.667-5.292 0-1.872 1.26-3.6 2.736-4.318-1.08-0.541-1.764-1.477-1.764-2.736 0-1.368 0.863-2.627 2.086-3.167-1.619-0.9-2.627-2.664-2.627-5.003 0-3.744 2.7-6.875 8.1-6.875 1.15 0 2.16 0.144 3.131 0.396h6.047v3.6h-2.412c0.54 0.54 0.9 1.368 0.9 2.375 0 3.888-2.7 6.551-7.883 6.551-0.541 0-1.152-0.036-1.656-0.145-0.576 0.252-0.828 0.721-0.828 1.152 0 0.828 0.684 1.116 2.771 1.116h2.771c3.888 0 6.155 1.8 6.155 5.184 2e-3 3.886-3.884 7.162-9.86 7.162zm2.448-8.711h-3.131-0.864c-1.009 0.576-1.583 1.548-1.583 2.556 0 1.656 1.512 2.627 3.814 2.627 2.988 0 4.607-1.26 4.607-3.022 1e-3 -1.225-0.863-2.161-2.843-2.161zm-1.763-15.334c-2.197 0-3.529 1.332-3.529 3.239 0 2.016 1.261 3.204 3.529 3.204 2.088 0 3.455-1.152 3.455-3.167s-1.224-3.276-3.455-3.276z"/></g></svg>
