<svg width="128mm" height="128mm" version="1.1" viewBox="0 0 128 128" xmlns="http://www.w3.org/2000/svg"><defs><linearGradient id="a" x1="64" x2="64" y1="169" y2="297" gradientTransform="matrix(1.0087 0 0 1.0087 -.55478 -2.0197)" gradientUnits="userSpaceOnUse"><stop stop-color="#fff" stop-opacity=".91765" offset="0"/><stop stop-color="#fff" stop-opacity=".55882" offset="1"/></linearGradient></defs><g transform="translate(0,-169)"><circle cx="64" cy="233" r="64"/><path d="m55.017 180.15 23.042 11.422" fill="#6e8375" stroke="#123859"/><path d="m67.823 186.63 9.13 4.5848" fill="#6e8375" stroke="#fff" stroke-width=".5"/><path d="m7.2099 220.26 31.684 20.902" fill="none" stroke="#152e44" stroke-width=".65"/><path d="m4.0993 211.87c2.0059 2.7857 8.3383 10.643 10.64 12.985" fill="none" stroke="#e5b828" stroke-width=".5"/><path d="m126.79 222.99-19.683 5.1381" fill="#0f212e" stroke="#1b344c" stroke-width=".3"/><path d="m124.68 212.54-20.638 28.575-12.435-29.633" fill="none" stop-color="#000000" stroke="#326a9c" style="font-variation-settings:normal"/><path d="m89.88 208.57 12.521 30.631" fill="none" stroke="#e5b828" stroke-width=".514"/><path d="m73.966 274.73 29.334-33.297" fill="#1b344b" stroke="#326a9c" stroke-width=".6"/><path d="m83.873 249.96 15.214 25.532" fill="#326a9c" stop-color="#000000" stroke="#326a9c" stroke-width=".8" style="font-variation-settings:normal"/><path d="m85.53 293.66-11.383-18.655" fill="none" stroke="#19344e" stroke-width=".6"/><g fill="#0a2035"><g stroke="#0a2035"><path d="m99.086 275.49-24.672 10.385" stop-color="#000000" stroke-width=".8" style="font-variation-settings:normal"/><path d="m62.045 291.24 12.369-5.3578" stop-color="#000000" stroke-width=".4" style="font-variation-settings:normal"/><path d="m106.89 280.52-7.9375-4.3656" stop-color="#000000" stroke-width=".8" style="-inkscape-stroke:none;font-variation-settings:normal"/></g><path d="m99.219 275.63 22.357-51.197" stop-color="#000000" stroke="#10273c" stroke-width=".8" style="-inkscape-stroke:none;font-variation-settings:normal"/></g><g fill="none"><path d="m38.633 242.29-19.785 27.853" stroke="#152e44" stroke-width=".63972"/><path d="m18.785 236.27 19.645 4.7625" stroke="#152e44" stroke-width=".8"/><g stroke-width=".5"><path d="m21.799 235.57 13.135 37.394" stroke="#6e8475"/><path d="m11.462 269.19 10.355-34.267" stroke="#d0d0d0"/><path d="m35.438 273.13-3.745-36.947" stroke="#33526d"/></g><path d="m18.19 214.77 20.968 26.26" stroke="#152e44" stroke-width=".65"/><path d="m6.5484 224.36 12.568 11.245" stroke="#0c2135" stroke-width=".61"/><path d="m0.35572 230.58 25.335-8.6953" stroke="#e5b828" stroke-width=".5"/><path d="m0.27667 230.18 29.065-10.038" stroke="#d0d0d0" stroke-width=".5"/><path d="m22.414 234.23 6.6078-13.51-6.6078 13.51" stroke="#e5b828" stroke-width=".6"/><path d="m3.8566 212.07 17.943 22.38" stroke="#d0d0d0" stroke-width=".5"/><path d="m29.292 220.23 6.0336 50.333" stroke="#d9d9d9" stroke-width=".5"/></g><path d="m35.885 273.97-1e-6 0.44716-12.912-36.947" fill="#6e8375" stroke="#3c5b75" stroke-width=".5"/><g fill="none"><g stroke="#152e44"><path d="m38.894 241.5 3.4396 15.081" stroke-width=".65"/><path d="m42.598 256.84 2.249 9.4588 5.5642 29.052" stroke-width=".55"/><path d="m39.291 241.89 32.676-8.0698" stroke-width=".55"/></g><path d="m43.903 236.08 29.998 38.439" stroke="#19344e" stroke-width=".748"/></g><path id="p" d="m41.894 272.75v-5.3454c2.9897-0.41021 5.7514-1.0941 9.0203-1.1693v-41.26c-3.681-0.0622-7.1445-0.87046-8.8867-1.47v-5.1294l18.472-0.15587v48.074c2.559-0.18457 6.013 0.70498 9.1423 1.2048v5.268z" fill="#fff"/><path d="m61.78 183.95 7.9375 33.734" fill="none" stroke="#081a26" stroke-width=".714"/><path d="m114.95 204.66-28.507-9.3066" fill="#6e8375" stroke="#0f2c48" stroke-width=".5"/><path d="m61.752 205.58 0.40091-11.877c5.6264-3.2271 25.471-5.5342 27.588 7.9588 0.71327 4.5458 1.1984 12.097-9.9605 17.833 8.64 2.3345 11.529 7.8934 11.629 13.363 0.23571 12.844-12.233 20.698-23.456 19.444l0.08352-6.4813c9.9373 1.1403 14.763-5.3365 14.978-11.421 0.22034-6.2352-5.2412-10.536-14.978-10.345l-0.15034-6.0966c12.189-0.90388 15.623-9.3434 14.105-14.031-2.0778-6.4184-8.7104-7.6034-14.573-5.3459l-1.0023 7.1495z" fill="#fff"/><g fill="none"><path d="m93.511 289.92-17.575-13.9" stroke="#19344e" stroke-width=".95"/><g stroke="#0b1620"><path d="m61.453 233.83 8.8237-0.18871" stroke-width=".50007"/><path d="m61.946 229.52 8.2352 2.712" stroke-width=".748"/><path d="m71.206 224.74 1.178 6.098" stroke-width=".71321"/><path d="m77.314 227.18-2.8999 3.8353" stroke-width=".348"/><path d="m74.04 232.84 4.0224-4.9111" stroke-width=".248"/><path d="m75.911 232.42 5.6594-1.2161" stroke-width=".348"/></g><path d="m9.0265 252.87 9.7613-16.54" stroke="#0c2135" stroke-width=".82466"/><path d="m18.661 237.78-2.9259 16.75" stroke="#0c2135" stroke-width=".41"/><path d="m-0.010471 236.01 21.698-1.4409" stroke="#e5b828" stroke-width=".4"/><path d="m0.29894 236.4 19.181-1.2313" stroke="#78a657" stroke-width=".5"/><path d="m4.5293 210.06 10.42 3.1213" stroke="#0c2135" stroke-width=".31"/><path d="m17.132 215.1 1.3229 11.642" stroke="#081725" stroke-width=".31"/><path d="m84.961 218.08 19.899-26.271" stroke="#0f2c48" stroke-width=".714"/><g stroke="#123859"><path d="m84.205 193.41 7.6037-11.64" stroke-width=".814"/><path d="m65.484 181.96 29.567 1.8521" stroke-dasharray="6.51200814,0.81400102" stroke-width=".814"/><path d="m62.437 182.2 4.7156 0.26777" stroke-dasharray="2.08783, 2.08783" stroke-width=".34797"/><path d="m61.383 181.7-33.999 23.945" stroke-width=".714"/></g><path d="m53.715 179.4 14.086 7.2105" stroke="#e5b828" stroke-width=".714"/><path d="m53.38 179.17-22.246 37.729" stroke="#e5b828" stroke-width=".314"/><path d="m29.289 220.57 19.03-31.926" stroke="#d0d0d0" stroke-width=".514"/><path d="m55.959 175.48 6.2177 6.0854" stroke="#081a26" stroke-width=".714"/><path d="m68.6 174.94-6.6921 7.201" stroke="#173149" stroke-width=".714"/></g><path d="m115.06 204.05-28.479-9.1389" fill="#6e8375" stroke="#fff" stroke-width=".7"/><path d="m27.153 278.09 9.2091-3.4386" fill="#6e8375" stroke="#11385e" stroke-width=".6"/><g fill="none"><g stroke-width=".714"><path d="m36.332 274.98 7.5608-38.65" stroke="#d9d9d9"/><path d="m36.113 275.19 36.551-0.3286" stroke="#d9d9d9"/><path d="m46.754 171.64 7.0869 7.6075" stroke="#e5b828"/></g><path d="m52.455 181.45-4.248 7.3782" stroke="#123859" stroke-width=".514"/></g><path d="m54.386 179.56 29.857-6.6658" fill="#06111b" stroke="#e5b828" stroke-width=".514"/><g fill="none"><path d="m6.6273 205 19.379 13.084" stroke="#e5b828" stroke-width=".4"/><path d="m6.6501 204.61 22.598 15.217" stroke="#d0d0d0" stroke-width=".4"/><g stroke-width=".5"><path d="m11.857 269.27 8.8534-29.445" stroke="#79a6cc"/><path d="m21.778 234.65 21.857 1.2648" stroke="#fff"/><path d="m21.975 235.09 20.296 1.2549" stroke="#32556e"/><path d="m15.162 225.42 6.5814 8.5886" stroke="#e5b828"/><path d="m14.7 225.62 7.2105 8.9432" stroke="#fff"/></g></g><g fill="#6e8375"><path d="m29.609 220.46 14.03 14.756" stroke="#405c74" stroke-width=".5"/><path d="m43.518 235.97-14.174-15.013" stroke="#fff" stroke-width=".6"/><path d="m21.274 280.9 13.309-4.9526" stroke="#c4c32d" stroke-width=".6"/></g><path d="m78.811 241.49-4.1105-6.561" fill="#0f212e" stroke="#11385e" stroke-width=".3"/><circle cx="64" cy="233" r="61.336" fill="none" stroke="url(#a)" stroke-width="5.328"/></g></svg>
