<svg viewBox="0 0 128 128" xmlns="http://www.w3.org/2000/svg"><defs><linearGradient id="processing-original-wordmark-a" x1="64" x2="64" y1="169" y2="297" gradientTransform="translate(-.555 -2.02) scale(1.0087)" gradientUnits="userSpaceOnUse"><stop stop-color="#fff" stop-opacity=".918" offset="0"/><stop stop-color="#fff" stop-opacity=".559" offset="1"/></linearGradient></defs><g transform="translate(13.105 -134.42) scale(.79538)"><circle cx="64" cy="233" r="64"/><path d="M55.017 180.15l23.042 11.422" fill="#6e8375" stroke="#123859"/><path d="M67.823 186.63l9.13 4.585" fill="#6e8375" stroke="#fff" stroke-width=".5"/><path d="M7.21 220.26l31.684 20.902" fill="none" stroke="#152e44" stroke-width=".65"/><path d="M4.1 211.87c2.005 2.786 8.338 10.643 10.64 12.985" fill="none" stroke="#e5b828" stroke-width=".5"/><path d="M126.79 222.99l-19.683 5.138" fill="#0f212e" stroke="#1b344c" stroke-width=".3"/><path d="M124.68 212.54l-20.638 28.575-12.435-29.633" fill="none" stroke="#326a9c" style="font-variation-settings:normal"/><path d="M89.88 208.57l12.521 30.631" fill="none" stroke="#e5b828" stroke-width=".514"/><path d="M73.966 274.73l29.334-33.297" fill="#1b344b" stroke="#326a9c" stroke-width=".6"/><path d="M83.873 249.96l15.214 25.532" fill="#326a9c" stroke="#326a9c" stroke-width=".8" style="font-variation-settings:normal"/><path d="M85.53 293.66l-11.383-18.655" fill="none" stroke="#19344e" stroke-width=".6"/><g fill="#0a2035"><g stroke="#0a2035"><path d="M99.086 275.49l-24.672 10.385" stroke-width=".8" style="font-variation-settings:normal"/><path d="M62.045 291.24l12.369-5.358" stroke-width=".4" style="font-variation-settings:normal"/><path d="M106.89 280.52l-7.938-4.366" stroke-width=".8" style="-inkscape-stroke:none;font-variation-settings:normal"/></g><path d="M99.219 275.63l22.357-51.197" stroke="#10273c" stroke-width=".8" style="-inkscape-stroke:none;font-variation-settings:normal"/></g><g fill="none"><path d="M38.633 242.29l-19.785 27.853" stroke="#152e44" stroke-width=".64"/><path d="M18.785 236.27l19.645 4.763" stroke="#152e44" stroke-width=".8"/><g stroke-width=".5"><path d="M21.799 235.57l13.135 37.394" stroke="#6e8475"/><path d="M11.462 269.19l10.355-34.267" stroke="#d0d0d0"/><path d="M35.438 273.13l-3.745-36.947" stroke="#33526d"/></g><path d="M18.19 214.77l20.968 26.26" stroke="#152e44" stroke-width=".65"/><path d="M6.548 224.36l12.568 11.245" stroke="#0c2135" stroke-width=".61"/><path d="M.356 230.58l25.335-8.695" stroke="#e5b828" stroke-width=".5"/><path d="M.277 230.18l29.065-10.038" stroke="#d0d0d0" stroke-width=".5"/><path d="M22.414 234.23l6.608-13.51-6.608 13.51" stroke="#e5b828" stroke-width=".6"/><path d="M3.857 212.07L21.8 234.45" stroke="#d0d0d0" stroke-width=".5"/><path d="M29.292 220.23l6.034 50.333" stroke="#d9d9d9" stroke-width=".5"/></g><path d="M35.885 273.97v.447L22.973 237.47" fill="#6e8375" stroke="#3c5b75" stroke-width=".5"/><g fill="none"><g stroke="#152e44"><path d="M38.894 241.5l3.44 15.081" stroke-width=".65"/><path d="M42.598 256.84l2.249 9.459 5.564 29.052m-11.12-53.461l32.676-8.07" stroke-width=".55"/></g><path d="M43.903 236.08l29.998 38.439" stroke="#19344e" stroke-width=".748"/></g><path d="M41.894 272.75v-5.345c2.99-.41 5.751-1.094 9.02-1.17v-41.26c-3.68-.062-7.144-.87-8.886-1.47v-5.13l18.472-.155v48.074c2.559-.185 6.013.705 9.142 1.205v5.268z" fill="#fff"/><path d="M61.78 183.95l7.938 33.734" fill="none" stroke="#081a26" stroke-width=".714"/><path d="M114.95 204.66l-28.507-9.307" fill="#6e8375" stroke="#0f2c48" stroke-width=".5"/><path d="M61.752 205.58l.4-11.877c5.627-3.227 25.472-5.534 27.589 7.959.713 4.546 1.198 12.097-9.96 17.833 8.64 2.334 11.528 7.893 11.628 13.363.236 12.844-12.233 20.698-23.456 19.444l.084-6.482c9.937 1.14 14.763-5.336 14.978-11.42.22-6.236-5.241-10.537-14.978-10.346l-.15-6.096c12.189-.904 15.623-9.344 14.105-14.031-2.078-6.419-8.71-7.604-14.573-5.346l-1.003 7.15z" fill="#fff"/><g fill="none"><path d="M93.511 289.92l-17.575-13.9" stroke="#19344e" stroke-width=".95"/><g stroke="#0b1620"><path d="M61.453 233.83l8.824-.189" stroke-width=".5"/><path d="M61.946 229.52l8.235 2.712" stroke-width=".748"/><path d="M71.206 224.74l1.178 6.098" stroke-width=".713"/><path d="M77.314 227.18l-2.9 3.835" stroke-width=".348"/><path d="M74.04 232.84l4.022-4.911" stroke-width=".248"/><path d="M75.911 232.42l5.66-1.216" stroke-width=".348"/></g><path d="M9.027 252.87l9.76-16.54" stroke="#0c2135" stroke-width=".825"/><path d="M18.661 237.78l-2.926 16.75" stroke="#0c2135" stroke-width=".41"/><path d="M-.01 236.01l21.698-1.44" stroke="#e5b828" stroke-width=".4"/><path d="M.299 236.4l19.18-1.231" stroke="#78a657" stroke-width=".5"/><path d="M4.53 210.06l10.42 3.121" stroke="#0c2135" stroke-width=".31"/><path d="M17.132 215.1l1.323 11.642" stroke="#081725" stroke-width=".31"/><path d="M84.961 218.08l19.899-26.271" stroke="#0f2c48" stroke-width=".714"/><g stroke="#123859"><path d="M84.205 193.41l7.604-11.64" stroke-width=".814"/><path d="M65.484 181.96l29.567 1.852" stroke-dasharray="6.51201, 0.814001" stroke-width=".814"/><path d="M62.437 182.2l4.716.268" stroke-dasharray="2.08783, 2.08783" stroke-width=".348"/><path d="M61.383 181.7l-33.999 23.945" stroke-width=".714"/></g><path d="M53.715 179.4l14.086 7.21" stroke="#e5b828" stroke-width=".714"/><path d="M53.38 179.17l-22.246 37.729" stroke="#e5b828" stroke-width=".314"/><path d="M29.289 220.57l19.03-31.926" stroke="#d0d0d0" stroke-width=".514"/><path d="M55.959 175.48l6.218 6.085" stroke="#081a26" stroke-width=".714"/><path d="M68.6 174.94l-6.692 7.201" stroke="#173149" stroke-width=".714"/></g><path d="M115.06 204.05l-28.479-9.139" fill="#6e8375" stroke="#fff" stroke-width=".7"/><path d="M27.153 278.09l9.21-3.439" fill="#6e8375" stroke="#11385e" stroke-width=".6"/><g fill="none"><g stroke-width=".714"><path d="M36.332 274.98l7.56-38.65m-7.779 38.86l36.551-.329" stroke="#d9d9d9"/><path d="M46.754 171.64l7.087 7.607" stroke="#e5b828"/></g><path d="M52.455 181.45l-4.248 7.378" stroke="#123859" stroke-width=".514"/></g><path d="M54.386 179.56l29.857-6.666" fill="#06111b" stroke="#e5b828" stroke-width=".514"/><g fill="none"><path d="M6.627 205l19.38 13.084" stroke="#e5b828" stroke-width=".4"/><path d="M6.65 204.61l22.598 15.217" stroke="#d0d0d0" stroke-width=".4"/><g stroke-width=".5"><path d="M11.857 269.27l8.853-29.445" stroke="#79a6cc"/><path d="M21.778 234.65l21.857 1.265" stroke="#fff"/><path d="M21.975 235.09l20.296 1.255" stroke="#32556e"/><path d="M15.162 225.42l6.581 8.589" stroke="#e5b828"/><path d="M14.7 225.62l7.21 8.943" stroke="#fff"/></g></g><g fill="#6e8375"><path d="M29.609 220.46l14.03 14.756" stroke="#405c74" stroke-width=".5"/><path d="M43.518 235.97l-14.174-15.013" stroke="#fff" stroke-width=".6"/><path d="M21.274 280.9l13.309-4.953" stroke="#c4c32d" stroke-width=".6"/></g><path d="M78.811 241.49l-4.11-6.561" fill="#0f212e" stroke="#11385e" stroke-width=".3"/><circle cx="64" cy="233" r="61.336" fill="none" stroke="url(#processing-original-wordmark-a)" stroke-width="5.328"/></g><path d="M12.038 116.274c-.287 0-.647 0-1.031-.048v3.478c.72.048 1.463.168 2.087.288v1.944H5.802v-1.944c.624-.12 1.368-.24 2.087-.288v-11.73a17.675 17.675 0 01-2.087-.287v-1.943h1.872c.767 0 2.878-.096 4.557-.096 3.958 0 6.14 1.846 6.14 5.013 0 3.142-2.398 5.613-6.333 5.613zm.05-8.084c-.385 0-.72 0-1.08.024v5.397c.311.048.623.072.911.072 1.895-.024 3.214-1.08 3.214-2.83 0-1.632-.911-2.663-3.046-2.663zm15.976 4.581c-2.447-.455-3.55.984-3.55 4.294v2.638c.719.048 1.463.168 2.086.288v1.943h-7.22v-1.943c.624-.12 1.368-.24 2.087-.288v-7.339a23.931 23.931 0 00-2.087-.24v-1.919c1.511-.192 3.358-.264 4.965-.216 0 .624-.072 1.583-.216 2.423h.048c.576-1.511 1.728-2.83 4.03-2.663zm6.885 9.404c-3.382 0-5.565-1.75-5.565-5.997 0-3.718 2.47-6.404 6.093-6.404 3.382 0 5.565 1.871 5.565 5.973 0 3.742-2.519 6.428-6.093 6.428zm.312-9.81c-1.368 0-2.71 1.055-2.71 3.501s.887 3.694 2.662 3.694c1.511 0 2.663-1.224 2.663-3.646 0-2.302-.816-3.55-2.615-3.55zm13.122 9.786c-3.478 0-5.71-1.727-5.71-5.781 0-3.718 1.92-6.573 6.285-6.573.912 0 1.919.144 2.783.408v3.838h-1.968c-.095-.576-.191-1.104-.24-1.584-.287-.095-.647-.12-.983-.12-1.655 0-2.687 1.367-2.687 3.622 0 2.183.816 3.527 3.214 3.527.84 0 1.8-.193 2.519-.529l.216 2.639c-.982.312-2.062.553-3.43.553zm15.521-5.685h-7.388c-.024 2.23 1.08 3.31 3.286 3.31 1.175 0 2.447-.264 3.479-.744l.287 2.374c-1.271.504-2.782.767-4.27.767-3.789 0-5.9-1.895-5.9-6.092 0-3.647 2.015-6.333 5.589-6.333 3.478 0 5.013 2.374 5.013 5.325 0 .41-.024.889-.096 1.393zm-5.013-4.462c-1.271 0-2.16.936-2.327 2.375h4.39c.047-1.487-.768-2.375-2.063-2.375zm10.292 10.171c-.912 0-2.135-.12-3.118-.336v-3.574h1.943c.12.48.192 1.032.24 1.56.336.071.815.12 1.2.12 1.223 0 2.062-.528 2.062-1.415 0-2.088-5.757-.984-5.757-4.942 0-2.159 1.752-3.813 5.134-3.813.887 0 2.014.12 3.094.36v3.43h-1.943c-.12-.48-.192-1.032-.24-1.536a5.72 5.72 0 00-1.08-.12c-1.295 0-1.894.528-1.894 1.319 0 2.11 5.757 1.127 5.757 4.87-.001 2.325-2.088 4.077-5.398 4.077zm10.529 0c-.912 0-2.135-.12-3.119-.336v-3.574h1.943c.12.48.193 1.032.24 1.56.337.071.816.12 1.2.12 1.223 0 2.063-.528 2.063-1.415 0-2.088-5.757-.984-5.757-4.942 0-2.159 1.752-3.813 5.133-3.813.888 0 2.014.12 3.095.36v3.43h-1.943c-.12-.48-.192-1.032-.24-1.536a5.714 5.714 0 00-1.08-.12c-1.294 0-1.894.528-1.894 1.319 0 2.11 5.756 1.127 5.756 4.87 0 2.325-2.087 4.077-5.397 4.077zm6.89-.24v-1.943a17.75 17.75 0 012.087-.289v-7.339a23.9 23.9 0 00-2.087-.24v-1.919c1.512-.192 3.358-.264 5.133-.216v9.715a15.12 15.12 0 011.944.288v1.944h-7.077zm3.599-13.457a1.88 1.88 0 01-1.896-1.87c0-1.008.84-1.848 1.896-1.848 1.054 0 1.918.816 1.918 1.847s-.863 1.871-1.918 1.871zm13.934 5.829c0-1.248-.336-1.99-1.464-1.99-1.56 0-2.783 1.774-2.783 3.86v3.527c.576.048 1.223.12 1.752.264v1.967h-6.885v-1.943c.624-.12 1.368-.24 2.087-.288v-7.34a23.918 23.918 0 00-2.087-.24v-1.919c1.512-.192 3.358-.264 4.965-.216 0 .552-.047 1.512-.168 2.135l.025.024c.719-1.415 2.11-2.399 4.053-2.399 2.686 0 3.55 1.728 3.55 3.814v6.14c.695.049 1.391.169 1.967.29v1.943h-5.013v-7.63zm11.369 13.697c-3.167 0-5.11-1.2-5.11-3.527 0-1.247.84-2.399 1.824-2.877-.72-.36-1.176-.985-1.176-1.824 0-.911.575-1.75 1.39-2.11-1.079-.6-1.75-1.775-1.75-3.334 0-2.495 1.799-4.581 5.397-4.581.767 0 1.44.096 2.087.263h4.03v2.4h-1.608c.36.36.6.911.6 1.582 0 2.591-1.8 4.366-5.253 4.366-.36 0-.768-.024-1.104-.097-.384.168-.552.48-.552.768 0 .552.456.743 1.847.743h1.846c2.591 0 4.102 1.2 4.102 3.455.001 2.59-2.588 4.773-6.57 4.773zm1.63-5.805h-2.66c-.673.384-1.055 1.031-1.055 1.703 0 1.104 1.007 1.75 2.541 1.75 1.991 0 3.07-.839 3.07-2.013.001-.816-.575-1.44-1.894-1.44zm-1.174-10.219c-1.464 0-2.352.888-2.352 2.159 0 1.343.84 2.135 2.352 2.135 1.391 0 2.302-.768 2.302-2.11s-.815-2.184-2.302-2.184z"/></svg>
