<?xml version="1.0" encoding="UTF-8" standalone="no"?>
<!-- Created with Inkscape (http://www.inkscape.org/) -->

<svg
   width="128mm"
   height="128mm"
   viewBox="0 0 128 128"
   version="1.1"
   id="svg723363"
   sodipodi:docname="processing-plain-text.svg"
   inkscape:version="1.1 (c68e22c387, 2021-05-23)"
   xmlns:inkscape="http://www.inkscape.org/namespaces/inkscape"
   xmlns:sodipodi="http://sodipodi.sourceforge.net/DTD/sodipodi-0.dtd"
   xmlns="http://www.w3.org/2000/svg"
   xmlns:svg="http://www.w3.org/2000/svg">
  <sodipodi:namedview
     id="namedview723365"
     pagecolor="#505050"
     bordercolor="#ffffff"
     borderopacity="1"
     inkscape:pageshadow="0"
     inkscape:pageopacity="0"
     inkscape:pagecheckerboard="1"
     inkscape:document-units="mm"
     showgrid="false"
     width="128mm"
     inkscape:zoom="2.3667806"
     inkscape:cx="241.88977"
     inkscape:cy="241.88977"
     inkscape:window-width="3440"
     inkscape:window-height="1377"
     inkscape:window-x="-8"
     inkscape:window-y="-8"
     inkscape:window-maximized="1"
     inkscape:current-layer="g723224" />
  <defs
     id="defs723360" />
  <g
     inkscape:label="Layer 1"
     inkscape:groupmode="layer"
     id="layer1">
    <path
       d="M 63.999999,0 A 50.912156,50.912156 0 0 0 13.087843,50.912156 50.912156,50.912156 0 0 0 63.999999,101.82431 50.912156,50.912156 0 0 0 114.91216,50.912156 50.912156,50.912156 0 0 0 63.999999,0 Z m 7.88129,17.676237 c 5.623723,-0.01122 11.594941,1.930827 12.594912,8.303927 0.567404,3.616195 0.953627,9.623405 -7.923386,14.186115 6.87311,1.857117 9.170883,6.279144 9.250654,10.630746 0.187506,10.216949 -9.730962,16.465154 -18.658741,15.467495 l 0.06619,-5.15583 c 7.905075,0.90709 11.743956,-4.245311 11.914863,-9.085428 0.175278,-4.960089 -4.16954,-8.382017 -11.914866,-8.230053 L 67.09128,38.943622 C 76.787932,38.224591 79.519496,31.510856 78.312201,27.781843 76.65933,22.676104 71.383105,21.73317 66.719158,23.529165 l -0.797094,5.687285 -3.710911,-0.119629 0.318997,-9.448079 c 1.818285,-1.04291 5.503328,-1.965113 9.351049,-1.972796 z M 61.215183,39.151151 v 38.243576 c 2.035666,-0.146827 4.783499,0.560647 7.273014,0.958237 V 82.54355 L 46.415531,82.52988 v -4.252261 c 2.378383,-0.326321 4.575127,-0.870067 7.175564,-0.929883 V 44.526131 c -2.928149,-0.04948 -5.683496,-0.692215 -7.069484,-1.169133 v -4.080507 l 14.694204,-0.124143 z"
       id="path723424"
       style="stroke-width:0.210478" />
    <g
       id="g723224"
       transform="matrix(0.66638738,0,0,0.66638738,5.1360036,104.75641)">
      <path
         fill="#000"
         d="m 10.358,17.278 c -0.432,0 -0.972,0 -1.548,-0.072 v 5.219 c 1.08,0.072 2.196,0.252 3.132,0.433 v 2.916 H 1 v -2.916 c 0.936,-0.181 2.052,-0.36 3.131,-0.433 V 4.824 C 3.052,4.751 1.936,4.572 1,4.392 V 1.476 h 2.808 c 1.152,0 4.319,-0.144 6.839,-0.144 5.939,0 9.215,2.771 9.215,7.523 -10e-4,4.715 -3.6,8.423 -9.504,8.423 z M 10.431,5.147 c -0.576,0 -1.08,0 -1.62,0.036 v 8.099 c 0.468,0.072 0.936,0.108 1.368,0.108 2.844,-0.036 4.823,-1.62 4.823,-4.248 0,-2.447 -1.368,-3.995 -4.571,-3.995 z"
         id="path723204" />
      <path
         fill="#000"
         d="m 34.406,12.022 c -3.671,-0.684 -5.328,1.476 -5.328,6.443 v 3.959 c 1.08,0.072 2.196,0.252 3.132,0.432 v 2.916 H 21.375 v -2.916 c 0.936,-0.18 2.052,-0.359 3.131,-0.432 V 11.411 c -0.864,-0.144 -2.087,-0.288 -3.131,-0.36 v -2.88 c 2.268,-0.288 5.039,-0.396 7.451,-0.324 0,0.936 -0.108,2.375 -0.324,3.636 h 0.072 c 0.864,-2.268 2.592,-4.248 6.047,-3.996 z"
         id="path723206" />
      <path
         fill="#000"
         d="m 44.738,26.133 c -5.075,0 -8.351,-2.627 -8.351,-8.999 0,-5.579 3.708,-9.61 9.143,-9.61 5.076,0 8.351,2.808 8.351,8.963 0,5.615 -3.779,9.646 -9.143,9.646 z m 0.468,-14.722 c -2.052,0 -4.067,1.584 -4.067,5.255 0,3.671 1.332,5.543 3.995,5.543 2.268,0 3.996,-1.836 3.996,-5.471 -0.001,-3.455 -1.224,-5.327 -3.924,-5.327 z"
         id="path723208" />
      <path
         fill="#000"
         d="m 64.897,26.098 c -5.219,0 -8.567,-2.592 -8.567,-8.676 0,-5.579 2.88,-9.863 9.431,-9.863 1.368,0 2.879,0.216 4.175,0.612 v 5.759 h -2.952 c -0.144,-0.864 -0.288,-1.656 -0.36,-2.376 -0.432,-0.144 -0.972,-0.18 -1.476,-0.18 -2.484,0 -4.032,2.051 -4.032,5.435 0,3.275 1.224,5.292 4.823,5.292 1.26,0 2.7,-0.289 3.78,-0.793 l 0.324,3.959 c -1.474,0.469 -3.094,0.831 -5.146,0.831 z"
         id="path723210" />
      <path
         fill="#000"
         d="M 88.188,17.566 H 77.102 c -0.036,3.348 1.62,4.967 4.931,4.967 1.764,0 3.672,-0.396 5.22,-1.116 l 0.432,3.563 c -1.908,0.756 -4.175,1.151 -6.407,1.151 -5.687,0 -8.855,-2.844 -8.855,-9.143 0,-5.472 3.024,-9.503 8.387,-9.503 5.219,0 7.523,3.563 7.523,7.991 0,0.614 -0.037,1.334 -0.145,2.09 z m -7.522,-6.695 c -1.908,0 -3.24,1.404 -3.492,3.564 h 6.587 c 0.072,-2.232 -1.152,-3.564 -3.095,-3.564 z"
         id="path723212" />
      <path
         fill="#000"
         d="m 96.11,26.133 c -1.368,0 -3.204,-0.18 -4.679,-0.504 v -5.363 h 2.916 c 0.18,0.721 0.288,1.549 0.36,2.34 0.504,0.108 1.224,0.181 1.8,0.181 1.836,0 3.096,-0.792 3.096,-2.124 0,-3.132 -8.639,-1.476 -8.639,-7.415 0,-3.24 2.628,-5.723 7.703,-5.723 1.332,0 3.023,0.18 4.644,0.54 v 5.147 h -2.916 c -0.18,-0.72 -0.288,-1.548 -0.36,-2.304 -0.504,-0.108 -1.152,-0.18 -1.62,-0.18 -1.944,0 -2.844,0.792 -2.844,1.979 0,3.167 8.639,1.692 8.639,7.308 -10e-4,3.49 -3.133,6.118 -8.1,6.118 z"
         id="path723214" />
      <path
         fill="#000"
         d="m 111.914,26.133 c -1.368,0 -3.204,-0.18 -4.68,-0.504 v -5.363 h 2.916 c 0.181,0.721 0.289,1.549 0.361,2.34 0.504,0.108 1.223,0.181 1.799,0.181 1.836,0 3.097,-0.792 3.097,-2.124 0,-3.132 -8.64,-1.476 -8.64,-7.415 0,-3.24 2.629,-5.723 7.703,-5.723 1.332,0 3.023,0.18 4.645,0.54 v 5.147 h -2.916 c -0.18,-0.72 -0.288,-1.548 -0.36,-2.304 -0.504,-0.108 -1.151,-0.18 -1.62,-0.18 -1.943,0 -2.844,0.792 -2.844,1.979 0,3.167 8.639,1.692 8.639,7.308 0,3.49 -3.133,6.118 -8.1,6.118 z"
         id="path723216" />
      <path
         fill="#000"
         d="m 122.246,25.773 v -2.916 c 0.936,-0.181 2.052,-0.36 3.131,-0.433 V 11.411 c -0.863,-0.144 -2.087,-0.288 -3.131,-0.36 v -2.88 c 2.268,-0.288 5.039,-0.396 7.703,-0.324 v 14.578 c 1.008,0.072 2.051,0.252 2.916,0.433 v 2.916 h -10.619 z m 5.4,-20.193 c -1.584,0 -2.845,-1.26 -2.845,-2.808 0,-1.512 1.261,-2.772 2.845,-2.772 1.582,0 2.879,1.224 2.879,2.772 0,1.548 -1.296,2.808 -2.879,2.808 z"
         id="path723218" />
      <path
         fill="#000"
         d="m 148.561,14.326 c 0,-1.872 -0.504,-2.987 -2.197,-2.987 -2.34,0 -4.176,2.664 -4.176,5.795 v 5.292 c 0.864,0.072 1.836,0.18 2.629,0.396 v 2.951 h -10.332 v -2.916 c 0.937,-0.18 2.053,-0.359 3.132,-0.432 V 11.411 c -0.864,-0.144 -2.087,-0.288 -3.132,-0.36 v -2.88 c 2.269,-0.288 5.039,-0.396 7.451,-0.324 0,0.828 -0.071,2.268 -0.252,3.204 l 0.037,0.036 c 1.079,-2.124 3.166,-3.6 6.082,-3.6 4.031,0 5.327,2.592 5.327,5.723 v 9.215 c 1.044,0.072 2.088,0.252 2.952,0.433 v 2.916 h -7.523 V 14.326 Z"
         id="path723220" />
      <path
         fill="#000"
         d="m 165.624,34.88 c -4.751,0 -7.667,-1.8 -7.667,-5.292 0,-1.872 1.26,-3.6 2.736,-4.318 -1.08,-0.541 -1.764,-1.477 -1.764,-2.736 0,-1.368 0.863,-2.627 2.086,-3.167 -1.619,-0.9 -2.627,-2.664 -2.627,-5.003 0,-3.744 2.7,-6.875 8.1,-6.875 1.15,0 2.16,0.144 3.131,0.396 h 6.047 v 3.6 h -2.412 c 0.54,0.54 0.9,1.368 0.9,2.375 0,3.888 -2.7,6.551 -7.883,6.551 -0.541,0 -1.152,-0.036 -1.656,-0.145 -0.576,0.252 -0.828,0.721 -0.828,1.152 0,0.828 0.684,1.116 2.771,1.116 h 2.771 c 3.888,0 6.155,1.8 6.155,5.184 0.002,3.886 -3.884,7.162 -9.86,7.162 z m 2.448,-8.711 h -3.131 c -0.252,0 -0.648,0 -0.864,0 -1.009,0.576 -1.583,1.548 -1.583,2.556 0,1.656 1.512,2.627 3.814,2.627 2.988,0 4.607,-1.26 4.607,-3.022 0.001,-1.225 -0.863,-2.161 -2.843,-2.161 z m -1.763,-15.334 c -2.197,0 -3.529,1.332 -3.529,3.239 0,2.016 1.261,3.204 3.529,3.204 2.088,0 3.455,-1.152 3.455,-3.167 0,-2.015 -1.224,-3.276 -3.455,-3.276 z"
         id="path723222" />
    </g>
  </g>
</svg>
