<svg width="128mm" height="128mm" version="1.1" viewBox="0 0 128 128" xmlns="http://www.w3.org/2000/svg"><g transform="translate(0,-169)"><path transform="matrix(.26458 0 0 .26458 0 169)" d="m241.89 0a241.89 241.89 0 0 0-241.89 241.89 241.89 241.89 0 0 0 241.89 241.89 241.89 241.89 0 0 0 241.89-241.89 241.89 241.89 0 0 0-241.89-241.89zm37.445 83.982c26.719-0.053414 55.089 9.1736 59.84 39.453 2.6958 17.181 4.5308 45.722-37.645 67.4 32.655 8.8234 43.572 29.833 43.951 50.508 0.89087 48.542-46.233 78.228-88.65 73.488l0.31445-24.496c37.558 4.3097 55.797-20.17 56.609-43.166 0.83278-23.566-19.81-39.824-56.609-39.102l-0.56836-23.041c46.07-3.4162 59.048-35.314 53.312-53.031-7.853-24.258-32.921-28.738-55.08-20.205l-3.7871 27.021-17.631-0.56836 1.5156-44.889c8.6389-4.955 26.147-9.3365 44.428-9.373zm-50.676 102.03v181.7c9.6717-0.69758 22.727 2.6637 34.555 4.5527v19.91l-104.87-0.06446v-20.203c11.3-1.5504 21.737-4.1338 34.092-4.418v-155.94c-13.912-0.23509-27.003-3.2888-33.588-5.5547v-19.387l69.814-0.58984z"/></g></svg>
