<?xml version="1.0" encoding="UTF-8" standalone="no"?>
<svg
   width="128"
   height="128"
   viewBox="0 0 128 128"
   version="1.1"
   id="svg1"
   sodipodi:docname="Reason.svg"
   inkscape:version="1.3.2 (091e20e, 2023-11-25, custom)"
   xmlns:inkscape="http://www.inkscape.org/namespaces/inkscape"
   xmlns:sodipodi="http://sodipodi.sourceforge.net/DTD/sodipodi-0.dtd"
   xmlns="http://www.w3.org/2000/svg"
   xmlns:svg="http://www.w3.org/2000/svg"
   xmlns:rdf="http://www.w3.org/1999/02/22-rdf-syntax-ns#"
   xmlns:cc="http://creativecommons.org/ns#"
   xmlns:dc="http://purl.org/dc/elements/1.1/">
  <defs
     id="defs1" />
  <sodipodi:namedview
     id="namedview1"
     pagecolor="#ffffff"
     bordercolor="#111111"
     borderopacity="1"
     inkscape:showpageshadow="0"
     inkscape:pageopacity="0"
     inkscape:pagecheckerboard="1"
     inkscape:deskcolor="#d1d1d1"
     inkscape:zoom="4.2592135"
     inkscape:cx="67.73551"
     inkscape:cy="59.752816"
     inkscape:window-width="1920"
     inkscape:window-height="1009"
     inkscape:window-x="-8"
     inkscape:window-y="-8"
     inkscape:window-maximized="1"
     inkscape:current-layer="svg1" />
  <title
     id="title1">file_type_reason</title>
  <polyline
     points="2 2 30 2 30 30 2 30 2 2"
     style="fill:#dd4b39"
     id="polyline1"
     transform="matrix(4.5714286,0,0,4.5714286,-9.1428576,-9.1428576)" />
  <path
     d="m 32.233142,70.98057 q 11.597714,0 23.186286,0 A 22.614857,22.614857 0 0 1 69.02857,75.428571 15.04,15.04 0 0 1 74.185142,85.792 18.820571,18.820571 0 0 1 70.62857,99.606859 16.457143,16.457143 0 0 1 65.430856,103.744 l 10.272,16.224 H 61.709713 l -7.314284,-13.91086 h -9.846858 v 13.86057 H 32.233142 V 70.98057 m 12.297143,9.728 v 15.716572 h 9.092571 a 9.984,9.984 0 0 0 6.710857,-2.066286 8.2925714,8.2925714 0 0 0 2.203429,-7.058286 6.7154286,6.7154286 0 0 0 -3.222857,-5.394285 12.653714,12.653714 0 0 0 -6.569143,-1.229715 c -2.733714,0.02743 -8.214857,0.032 -8.214857,0.032 z M 82.857142,70.971428 H 121.02857 V 80.70857 H 95.154285 v 9.805715 h 23.360005 v 9.686855 H 95.177143 v 9.97029 h 26.623997 v 9.792 H 82.857142 Z"
     style="fill:#ffffff;stroke-width:4.57143"
     id="path1" />
  <metadata
     id="metadata1">
    <rdf:RDF>
      <cc:Work
         rdf:about="">
        <dc:title>file_type_reason</dc:title>
      </cc:Work>
    </rdf:RDF>
  </metadata>
</svg>
