<svg xmlns="http://www.w3.org/2000/svg" viewBox="0 0 128 128"><path fill="#c21417" d="M52.262 58.375c.82 0 1.566.148 2.242.441.672.297 1.25.7 1.734 1.207a5.367 5.367 0 0 1 1.117 1.758c.262.672.399 1.387.395 2.11.008.011.008.02 0 .03 0 .724-.137 1.442-.402 2.114a5.45 5.45 0 0 1-1.125 1.77 5.487 5.487 0 0 1-1.743 1.21c-.675.301-1.425.454-2.253.454-.82 0-1.57-.149-2.239-.446a5.31 5.31 0 0 1-1.734-1.203 5.349 5.349 0 0 1-1.117-1.761 5.647 5.647 0 0 1-.395-2.106v-.031c0-.734.13-1.442.399-2.113a5.48 5.48 0 0 1 1.125-1.774 5.523 5.523 0 0 1 1.746-1.21c.675-.302 1.425-.45 2.25-.45m14.949.031c.793 0 1.484.106 2.074.328a6.3 6.3 0 0 1 1.719.989l-.707.933c-.504-.406-1.012-.703-1.52-.886a4.725 4.725 0 0 0-1.597-.278c-.707 0-1.266.168-1.68.5-.41.332-.613.742-.613 1.235v.027c0 .258.043.484.12.68.083.203.231.386.45.554.215.172.512.32.895.461.378.137.867.27 1.46.39 1.204.255 2.09.622 2.66 1.095.571.476.856 1.12.856 1.937v.031a2.784 2.784 0 0 1-1.027 2.207c-.324.266-.711.47-1.164.614a4.8 4.8 0 0 1-1.477.215c-.863 0-1.652-.141-2.367-.422-.715-.282-1.395-.711-2.043-1.293l.758-.891c.562.512 1.133.89 1.707 1.14.578.255 1.238.376 1.992.376.73 0 1.313-.168 1.746-.512.438-.34.656-.777.656-1.309v-.03c0-.247-.039-.47-.125-.669a1.379 1.379 0 0 0-.43-.543c-.206-.164-.492-.312-.859-.445a10.873 10.873 0 0 0-1.398-.383 11.113 11.113 0 0 1-1.613-.46 4.109 4.109 0 0 1-1.137-.626 2.357 2.357 0 0 1-.664-.863c-.145-.324-.215-.707-.215-1.145v-.031c0-.418.086-.805.258-1.164.18-.36.433-.676.742-.93.32-.261.695-.465 1.129-.613.43-.145.902-.219 1.414-.219m-55.063.024v1.3l-2.851 1.258v5.84l2.851 1.27v1.242L1.281 64.45 0 63.901l1.281-.586Zm14 .129v1.117h-6.582v3.629h5.887v1.12h-5.887v3.743h6.66v1.117h-7.874V58.56Zm74.762 0v6.406l6.192-6.406h1.574l-4.625 4.687 4.828 6.04h-1.527l-4.149-5.196-2.293 2.312v2.883h-1.222V58.56Zm21.36 0v1.117h-6.582v3.629H128v1.12h-12.313v3.743h6.66v1.117h-7.874V58.56Zm-29.438 0v10.726h-1.223V58.56Zm-11.281 0c.605 0 1.156.078 1.656.238.496.156.922.379 1.277.672.352.285.63.652.813 1.066.191.418.293.895.293 1.426v.031c0 .578-.117 1.09-.34 1.524-.223.43-.535.8-.918 1.093-.387.297-.836.52-1.348.668a5.883 5.883 0 0 1-1.64.223h-2.617v3.785h-1.22V58.56Zm-44.535 0c.668 0 1.261.093 1.78.28.52.192.946.454 1.286.794.266.265.477.582.617.933.145.356.215.75.215 1.18v.027c0 .442-.07.836-.215 1.192-.14.344-.344.656-.605.918a3.225 3.225 0 0 1-.938.644 5.065 5.065 0 0 1-1.172.375l3.317 4.383h-1.492l-3.133-4.168h-3.078v4.168h-1.223V58.56Zm15.21.933c-.613 0-1.18.113-1.699.344a4.1 4.1 0 0 0-1.336.945 4.48 4.48 0 0 0-.87 1.395 4.677 4.677 0 0 0-.313 1.715v.03c0 .614.105 1.188.312 1.724.211.535.508 1.003.887 1.402a4.34 4.34 0 0 0 1.348.95c.52.237 1.09.35 1.707.35a4.085 4.085 0 0 0 3.035-1.284c.371-.399.66-.864.871-1.395.21-.531.312-1.102.312-1.715v-.031c0-.613-.101-1.188-.312-1.723-.2-.52-.5-.996-.883-1.402a4.312 4.312 0 0 0-1.351-.953 4.107 4.107 0 0 0-1.707-.352M8.203 61.461 2.7 63.898l5.504 2.454Zm73.258-1.785h-2.734v4.707h2.675c.45 0 .86-.059 1.22-.168a2.94 2.94 0 0 0 .937-.48 2.165 2.165 0 0 0 .813-1.707v-.032c0-.762-.27-1.34-.802-1.73-.527-.395-1.234-.59-2.11-.59m-44.53 0h-3.332v4.351h3.32c.398 0 .77-.05 1.113-.152a2.73 2.73 0 0 0 .88-.438 1.96 1.96 0 0 0 .785-1.617v-.03c0-.661-.243-1.18-.723-1.552-.485-.375-1.164-.562-2.043-.562"/></svg>
