
<svg xmlns="http://www.w3.org/2000/svg" xmlns:xlink="http://www.w3.org/1999/xlink" viewBox="0 0 128 128" version="1.1">
<g id="surface1">
<path style=" stroke:none;fill-rule:nonzero;fill:rgb(76.470588%,8.627451%,9.411765%);fill-opacity:1;" d="M 52.261719 58.375 C 53.082031 58.375 53.828125 58.523438 54.503906 58.816406 C 55.175781 59.113281 55.753906 59.515625 56.238281 60.023438 C 56.722656 60.53125 57.101562 61.128906 57.355469 61.78125 C 57.617188 62.453125 57.753906 63.167969 57.75 63.890625 C 57.757812 63.902344 57.757812 63.910156 57.75 63.921875 C 57.75 64.644531 57.613281 65.363281 57.347656 66.035156 C 57.078125 66.710938 56.707031 67.296875 56.222656 67.804688 C 55.738281 68.308594 55.15625 68.714844 54.480469 69.015625 C 53.804688 69.316406 53.054688 69.46875 52.226562 69.46875 C 51.40625 69.46875 50.65625 69.320312 49.988281 69.023438 C 49.3125 68.726562 48.738281 68.328125 48.253906 67.820312 C 47.769531 67.3125 47.398438 66.726562 47.136719 66.058594 C 46.871094 65.390625 46.742188 64.6875 46.742188 63.953125 L 46.742188 63.921875 C 46.742188 63.1875 46.871094 62.480469 47.140625 61.808594 C 47.398438 61.148438 47.78125 60.546875 48.265625 60.035156 C 48.753906 59.53125 49.328125 59.128906 50.011719 58.824219 C 50.6875 58.523438 51.4375 58.375 52.261719 58.375 M 67.210938 58.40625 C 68.003906 58.40625 68.695312 58.511719 69.285156 58.734375 C 69.878906 58.953125 70.449219 59.285156 71.003906 59.722656 L 70.296875 60.65625 C 69.792969 60.25 69.285156 59.953125 68.777344 59.769531 C 68.265625 59.585938 67.726562 59.492188 67.179688 59.492188 C 66.472656 59.492188 65.914062 59.660156 65.5 59.992188 C 65.089844 60.324219 64.886719 60.734375 64.886719 61.226562 L 64.886719 61.253906 C 64.886719 61.511719 64.929688 61.738281 65.007812 61.933594 C 65.089844 62.136719 65.238281 62.320312 65.457031 62.488281 C 65.671875 62.660156 65.96875 62.808594 66.351562 62.949219 C 66.730469 63.085938 67.21875 63.21875 67.8125 63.339844 C 69.015625 63.59375 69.902344 63.960938 70.472656 64.433594 C 71.042969 64.910156 71.328125 65.554688 71.328125 66.371094 L 71.328125 66.402344 C 71.328125 66.863281 71.238281 67.28125 71.054688 67.652344 C 70.875 68.023438 70.617188 68.347656 70.300781 68.609375 C 69.976562 68.875 69.589844 69.078125 69.136719 69.222656 C 68.6875 69.367188 68.195312 69.4375 67.660156 69.4375 C 66.796875 69.4375 66.007812 69.296875 65.292969 69.015625 C 64.578125 68.734375 63.898438 68.304688 63.25 67.722656 L 64.007812 66.832031 C 64.570312 67.34375 65.140625 67.722656 65.714844 67.972656 C 66.292969 68.226562 66.953125 68.347656 67.707031 68.347656 C 68.4375 68.347656 69.019531 68.179688 69.453125 67.835938 C 69.890625 67.496094 70.109375 67.058594 70.109375 66.527344 L 70.109375 66.496094 C 70.109375 66.25 70.070312 66.027344 69.984375 65.828125 C 69.902344 65.632812 69.761719 65.449219 69.554688 65.285156 C 69.347656 65.121094 69.0625 64.972656 68.695312 64.839844 C 68.328125 64.707031 67.863281 64.578125 67.296875 64.457031 C 66.683594 64.324219 66.140625 64.171875 65.683594 63.996094 C 65.226562 63.824219 64.847656 63.613281 64.546875 63.371094 C 64.25 63.125 64.03125 62.839844 63.882812 62.507812 C 63.738281 62.183594 63.667969 61.800781 63.667969 61.363281 L 63.667969 61.332031 C 63.667969 60.914062 63.753906 60.527344 63.925781 60.167969 C 64.105469 59.808594 64.359375 59.492188 64.667969 59.238281 C 64.988281 58.976562 65.363281 58.773438 65.796875 58.625 C 66.226562 58.480469 66.699219 58.40625 67.210938 58.40625 M 12.148438 58.429688 L 12.148438 59.730469 L 9.296875 60.988281 L 9.296875 66.828125 L 12.148438 68.097656 L 12.148438 69.339844 L 1.28125 64.449219 L 0 63.902344 L 1.28125 63.316406 Z M 26.148438 58.558594 L 26.148438 59.675781 L 19.566406 59.675781 L 19.566406 63.304688 L 25.453125 63.304688 L 25.453125 64.425781 L 19.566406 64.425781 L 19.566406 68.167969 L 26.226562 68.167969 L 26.226562 69.285156 L 18.351562 69.285156 L 18.351562 58.558594 Z M 100.910156 58.558594 L 100.910156 64.964844 L 107.101562 58.558594 L 108.675781 58.558594 L 104.050781 63.246094 L 108.878906 69.285156 L 107.351562 69.285156 L 103.203125 64.089844 L 100.910156 66.402344 L 100.910156 69.285156 L 99.6875 69.285156 L 99.6875 58.558594 Z M 122.269531 58.558594 L 122.269531 59.675781 L 115.6875 59.675781 L 115.6875 63.304688 L 128 63.304688 L 128 64.425781 L 115.6875 64.425781 L 115.6875 68.167969 L 122.347656 68.167969 L 122.347656 69.285156 L 114.472656 69.285156 L 114.472656 58.558594 Z M 92.832031 58.558594 L 92.832031 69.285156 L 91.609375 69.285156 L 91.609375 58.558594 Z M 81.550781 58.558594 C 82.15625 58.558594 82.707031 58.636719 83.207031 58.796875 C 83.703125 58.953125 84.128906 59.175781 84.484375 59.46875 C 84.835938 59.753906 85.113281 60.121094 85.296875 60.535156 C 85.488281 60.953125 85.589844 61.429688 85.589844 61.960938 L 85.589844 61.992188 C 85.589844 62.570312 85.472656 63.082031 85.25 63.515625 C 85.027344 63.945312 84.714844 64.316406 84.332031 64.609375 C 83.945312 64.90625 83.496094 65.128906 82.984375 65.277344 C 82.46875 65.425781 81.925781 65.5 81.34375 65.5 L 78.726562 65.5 L 78.726562 69.285156 L 77.507812 69.285156 L 77.507812 58.558594 Z M 37.015625 58.558594 C 37.683594 58.558594 38.277344 58.652344 38.796875 58.839844 C 39.316406 59.03125 39.742188 59.292969 40.082031 59.632812 C 40.347656 59.898438 40.558594 60.214844 40.699219 60.566406 C 40.84375 60.921875 40.914062 61.316406 40.914062 61.746094 L 40.914062 61.773438 C 40.914062 62.214844 40.84375 62.609375 40.699219 62.964844 C 40.558594 63.308594 40.355469 63.621094 40.09375 63.882812 C 39.832031 64.144531 39.519531 64.359375 39.15625 64.527344 C 38.785156 64.699219 38.390625 64.824219 37.984375 64.902344 L 41.300781 69.285156 L 39.808594 69.285156 L 36.675781 65.117188 L 33.597656 65.117188 L 33.597656 69.285156 L 32.375 69.285156 L 32.375 58.558594 Z M 52.226562 59.492188 C 51.613281 59.492188 51.046875 59.605469 50.527344 59.835938 C 50.007812 60.070312 49.5625 60.382812 49.191406 60.78125 C 48.824219 61.179688 48.53125 61.644531 48.320312 62.175781 C 48.113281 62.707031 48.007812 63.277344 48.007812 63.890625 L 48.007812 63.921875 C 48.007812 64.535156 48.113281 65.109375 48.320312 65.644531 C 48.53125 66.179688 48.828125 66.648438 49.207031 67.046875 C 49.589844 67.445312 50.039062 67.761719 50.554688 67.996094 C 51.074219 68.234375 51.644531 68.347656 52.261719 68.347656 C 52.878906 68.347656 53.445312 68.238281 53.964844 68.003906 C 54.46875 67.785156 54.921875 67.464844 55.296875 67.0625 C 55.667969 66.664062 55.957031 66.199219 56.167969 65.667969 C 56.378906 65.136719 56.480469 64.566406 56.480469 63.953125 L 56.480469 63.921875 C 56.480469 63.308594 56.378906 62.734375 56.167969 62.199219 C 55.96875 61.679688 55.667969 61.203125 55.285156 60.796875 C 54.898438 60.394531 54.441406 60.070312 53.933594 59.84375 C 53.414062 59.609375 52.84375 59.492188 52.226562 59.492188 M 8.203125 61.460938 L 2.699219 63.898438 L 8.203125 66.351562 Z M 81.460938 59.675781 L 78.726562 59.675781 L 78.726562 64.382812 L 81.402344 64.382812 C 81.851562 64.382812 82.261719 64.324219 82.621094 64.214844 C 82.984375 64.101562 83.292969 63.941406 83.558594 63.734375 C 83.8125 63.53125 84.019531 63.277344 84.15625 62.984375 C 84.296875 62.695312 84.371094 62.375 84.371094 62.027344 L 84.371094 61.996094 C 84.371094 61.234375 84.101562 60.65625 83.570312 60.265625 C 83.042969 59.871094 82.335938 59.675781 81.460938 59.675781 M 36.929688 59.675781 L 33.597656 59.675781 L 33.597656 64.027344 L 36.917969 64.027344 C 37.316406 64.027344 37.6875 63.976562 38.03125 63.875 C 38.367188 63.773438 38.660156 63.628906 38.910156 63.4375 C 39.152344 63.253906 39.351562 63.019531 39.488281 62.746094 C 39.628906 62.476562 39.695312 62.171875 39.695312 61.820312 L 39.695312 61.789062 C 39.695312 61.128906 39.453125 60.609375 38.972656 60.238281 C 38.488281 59.863281 37.808594 59.675781 36.929688 59.675781 "/>
</g>
</svg>
