<svg xmlns="http://www.w3.org/2000/svg" viewBox="0 0 128 128"><path fill="#1f65b7" d="M64 14.6465v.002c-35.346 0-64 19.1902-64 42.8632 0 20.764 22.0464 38.0766 51.3164 42.0176v-12.83c-15.55-4.89-26.166-14.6943-26.166-25.9923 0-16.183 21.7795-29.3027 48.6465-29.3027 26.866 0 46.6914 8.9748 46.6914 29.3027 0 10.486-5.2715 17.9507-14.0645 22.7207 1.204.908 2.2184 2.073 2.9024 3.42l.3886.6543C121.0248 79.772 128 69.1888 128 57.5098c0-23.672-28.654-42.8633-64-42.8633zM52.7363 41.2637v72.084l21.834-.0098-.0039-28.2188h5.8613c1.199 0 1.7167.3481 2.9297 1.3301 1.454 1.177 3.8164 5.2383 3.8164 5.2383l11.5371 21.666 24.6739-.0097-15.2657-25.7403a8.388 8.388 0 0 0-1.4199-2.041c-.974-1.036-2.3255-1.8227-3.1055-2.2188-2.249-1.1375-6.12-2.3076-6.123-2.3085 0 0 19.08-1.4151 19.08-20.4141 0-18.999-19.9706-19.3574-19.9706-19.3574H52.7363zm22.0176 15.627 13.2188.0077s6.123-.3302 6.123 6.0098c0 6.216-6.123 6.2344-6.123 6.2344l-13.2247.0039.006-12.2559zm9.3457 32.6366c-2.612.257-5.3213.411-8.1133.463l.002 9.6288a88.362 88.362 0 0 0 12.4746-2.4902l-.502-.9414c-.68-1.268-1.3472-2.5426-2.0332-3.8066a41.01 41.01 0 0 0-1.828-2.8516v-.002z"/></svg>
