<?xml version="1.0" encoding="UTF-8"?>
<svg xmlns="http://www.w3.org/2000/svg" xmlns:xlink="http://www.w3.org/1999/xlink" width="128px" height="128px" viewBox="0 0 128 104" version="1.1">
<g id="surface1">
<path style=" stroke:none;fill-rule:nonzero;fill:rgb(100%,100%,100%);fill-opacity:1;" d="M 48.296875 58.265625 C 48.753906 50.207031 52.71875 43.082031 58.726562 38.050781 C 64.609375 33.101562 72.507812 30.074219 81.175781 30.074219 C 89.804688 30.074219 97.703125 33.097656 103.582031 38.050781 C 109.59375 43.082031 113.539062 50.207031 114.011719 58.265625 C 114.46875 66.542969 111.117188 74.261719 105.257812 79.976562 C 99.246094 85.777344 90.75 89.445312 81.175781 89.445312 C 71.605469 89.445312 63.0625 85.804688 57.097656 79.976562 C 51.214844 74.261719 47.867188 66.585938 48.339844 58.308594 Z M 48.296875 58.265625 "/>
<path style=" stroke:none;fill-rule:nonzero;fill:rgb(14.901961%,34.117647%,52.941176%);fill-opacity:1;" d="M 66.28125 57.28125 C 66.515625 53.136719 68.554688 49.476562 71.640625 46.890625 C 74.664062 44.347656 78.722656 42.792969 83.179688 42.792969 C 87.613281 42.792969 91.671875 44.347656 94.691406 46.890625 C 97.78125 49.476562 99.808594 53.136719 100.050781 57.28125 C 100.285156 61.53125 98.5625 65.5 95.550781 68.4375 C 92.464844 71.417969 88.097656 73.300781 83.179688 73.300781 C 78.257812 73.300781 73.871094 71.429688 70.804688 68.4375 C 67.78125 65.5 66.0625 61.554688 66.304688 57.300781 Z M 66.28125 57.28125 "/>
<path style=" stroke:none;fill-rule:nonzero;fill:rgb(91.764706%,46.27451%,0%);fill-opacity:1;" d="M 39.8125 66.046875 C 39.839844 67.667969 40.363281 70.824219 41.140625 73.28125 C 42.785156 78.496094 45.574219 83.320312 49.4375 87.546875 C 53.40625 91.910156 58.304688 95.417969 63.949219 97.914062 C 69.882812 100.523438 76.324219 101.859375 83.007812 101.859375 C 89.691406 101.851562 96.132812 100.492188 102.066406 97.851562 C 107.710938 95.328125 112.609375 91.824219 116.578125 87.4375 C 120.460938 83.164062 123.242188 78.34375 124.875 73.125 C 125.699219 70.496094 126.222656 67.824219 126.433594 65.148438 C 126.636719 62.519531 126.550781 59.867188 126.175781 57.214844 C 125.4375 52.0625 123.636719 47.21875 120.882812 42.835938 C 118.367188 38.78125 115.101562 35.253906 111.21875 32.269531 L 111.230469 32.265625 L 72.1875 2.457031 C 72.152344 2.429688 72.121094 2.402344 72.085938 2.378906 C 69.527344 0.421875 65.203125 0.429688 62.402344 2.386719 C 59.554688 4.371094 59.226562 7.648438 61.761719 9.710938 L 61.75 9.71875 L 78.050781 22.894531 L 28.421875 22.945312 L 28.355469 22.945312 C 24.253906 22.949219 20.304688 25.621094 19.53125 29.015625 C 18.730469 32.457031 21.519531 35.328125 25.796875 35.328125 L 25.789062 35.34375 L 50.9375 35.296875 L 5.9375 69.488281 C 5.882812 69.53125 5.820312 69.574219 5.765625 69.617188 C 1.53125 72.835938 0.164062 78.207031 2.832031 81.582031 C 5.546875 85.023438 11.300781 85.046875 15.582031 81.601562 L 40.066406 61.65625 C 40.066406 61.65625 39.707031 64.351562 39.738281 65.953125 Z M 102.898438 75.054688 C 97.847656 80.164062 90.765625 83.078125 83.132812 83.078125 C 75.480469 83.089844 68.398438 80.226562 63.347656 75.121094 C 60.878906 72.621094 59.070312 69.773438 57.945312 66.726562 C 56.847656 63.722656 56.421875 60.546875 56.703125 57.34375 C 56.972656 54.210938 57.910156 51.207031 59.417969 48.511719 C 60.890625 45.859375 62.925781 43.449219 65.417969 41.410156 C 70.335938 37.445312 76.578125 35.273438 83.105469 35.273438 C 89.660156 35.265625 95.902344 37.398438 100.820312 41.367188 C 103.3125 43.394531 105.339844 45.792969 106.820312 48.445312 C 108.324219 51.144531 109.269531 54.125 109.53125 57.28125 C 109.808594 60.480469 109.382812 63.65625 108.289062 66.660156 C 107.167969 69.730469 105.355469 72.578125 102.882812 75.078125 Z M 102.898438 75.054688 "/>
</g>
</svg>
