<svg xmlns="http://www.w3.org/2000/svg" viewBox="0 0 128 128"><path fill="#d51c2f" d="M12.8 49.727c-7.07 0-12.8 5.73-12.8 12.8 0 6.977 5.581 12.646 12.523 12.793l.004.004a12.914 12.914 0 0 0 3.816-.496c.087-.025.175-.047.26-.074l.004-.002c.2-.062.396-.128.59-.2l.004-.001c.195-.072.388-.146.578-.227l.004-.002c.19-.08.377-.164.563-.254l.004-.002c.184-.089.367-.183.546-.28l.006-.003c.18-.097.356-.199.53-.304l.006-.004.037-.024c.336-.206.663-.427.978-.662l.006-.004c.162-.12.32-.247.477-.375l.007-.006c.156-.128.308-.26.457-.396l.006-.006a12.902 12.902 0 0 0 .864-.861l.005-.006c.136-.15.267-.302.395-.457l.008-.008c.128-.155.252-.315.373-.477.084-.112.164-.227.244-.341.037-.054.077-.105.113-.159l.006-.01c.014-.02.025-.041.04-.062.211-.318.411-.645.595-.982l.006-.01c.096-.178.189-.359.277-.541l.006-.012c.088-.183.172-.367.252-.555l.004-.011c.03-.07.055-.14.084-.211.048-.119.096-.237.14-.358a12.733 12.733 0 0 0 .375-1.2l.004-.014c.016-.06.027-.122.041-.182.035-.146.072-.29.102-.438.041-.203.08-.408.111-.615l.002-.015c.032-.207.059-.414.08-.623l.002-.018a12.917 12.917 0 0 0 .06-1.137c.001-.05.005-.101.005-.152v-.02c0-7.07-5.73-12.8-12.8-12.8zm-.29 4.04v1.825h.58l.002-1.824a9.656 9.656 0 0 1 6.357 2.632l-1.361 1.364.41.412 1.363-1.364a9.663 9.663 0 0 1 2.633 6.36H20.67v.582h1.832v2.135H3.098v-2.135H4.93v-.582H3.105a9.665 9.665 0 0 1 2.633-6.36l1.364 1.364.412-.412L6.15 56.4a9.663 9.663 0 0 1 6.36-2.632zm16.726 1.292v14.736h2.409V64.28h1.53c1.862 0 3.296-.41 4.304-1.23 1.008-.82 1.511-1.999 1.511-3.537 0-1.465-.458-2.572-1.375-3.325-.917-.752-2.296-1.13-4.136-1.13h-4.243zm34.23 1.109-.806 2.36-1.633.865v1.048h1.524v6.006c0 2.365 1.121 3.55 3.365 3.55.443 0 .872-.041 1.285-.118.413-.078.75-.173 1.012-.287v-1.783a5.747 5.747 0 0 1-1.733.271c-.463 0-.837-.136-1.123-.408-.285-.273-.43-.693-.43-1.264v-5.967h3.175v-1.793h-3.174v-2.48h-1.461zm38.12 0-.807 2.36-1.63.865v1.048h1.52v6.006c0 2.365 1.122 3.55 3.366 3.55.443 0 .872-.041 1.285-.118a4.815 4.815 0 0 0 1.014-.287v-1.783a5.76 5.76 0 0 1-1.734.271c-.464 0-.838-.136-1.123-.408-.286-.273-.428-.693-.428-1.264v-5.967h3.174v-1.793h-3.174v-2.48h-1.463zm-69.941.908h1.671c1.095 0 1.902.207 2.42.623.517.417.776 1.049.776 1.895 0 .914-.29 1.587-.867 2.017-.578.43-1.485.645-2.721.645h-1.28v-5.18zm-18.844.08a6.306 6.306 0 0 0-6.307 6.307h12.611a6.305 6.305 0 0 0-6.304-6.307zm34.101 1.29c-.685 0-1.325.195-1.92.585a4.412 4.412 0 0 0-1.445 1.582h-.123l-.31-1.965h-1.856v11.147h2.37v-5.826c0-.988.292-1.79.88-2.408.588-.618 1.356-.928 2.303-.928.362 0 .712.04 1.049.12l.232-2.206a5.68 5.68 0 0 0-1.18-.102zm7.465 0c-1.686 0-2.995.508-3.922 1.523-.926 1.014-1.388 2.425-1.388 4.232 0 1.163.214 2.183.644 3.063.43.88 1.044 1.555 1.844 2.025s1.72.707 2.762.707c1.666 0 2.964-.511 3.898-1.533.934-1.021 1.402-2.441 1.402-4.262 0-1.76-.47-3.16-1.412-4.197-.94-1.038-2.215-1.559-3.828-1.559zm21.727 0c-.686 0-1.326.195-1.92.585a4.408 4.408 0 0 0-1.445 1.582h-.122l-.312-1.965h-1.856v11.147h2.37v-5.826c0-.988.294-1.79.882-2.408.588-.618 1.356-.928 2.303-.928.363 0 .71.04 1.047.12l.232-2.206a5.68 5.68 0 0 0-1.18-.102zm6.969 0c-.638 0-1.317.082-2.036.247a8.226 8.226 0 0 0-1.984.721l.766 1.691c.484-.227.987-.425 1.511-.593a5.342 5.342 0 0 1 1.643-.25c.698 0 1.214.175 1.547.527.333.353.498.885.498 1.598v.593l-1.924.061c-1.748.054-3.047.373-3.9.957-.854.584-1.28 1.452-1.28 2.602 0 1.081.307 1.917.922 2.507.615.592 1.47.89 2.565.89.853 0 1.552-.125 2.095-.37.544-.245 1.085-.706 1.623-1.385h.08l.475 1.553h1.691v-7.51c0-1.323-.359-2.294-1.082-2.912-.721-.618-1.793-.928-3.21-.928zm11.851 0c-1.733 0-3.057.503-3.975 1.511-.916 1.008-1.375 2.45-1.375 4.324 0 1.841.438 3.254 1.315 4.239.877.984 2.157 1.476 3.844 1.476.685 0 1.27-.054 1.75-.162.48-.108.93-.286 1.353-.535v-2.065a6.051 6.051 0 0 1-2.992.786c-.927 0-1.63-.314-2.111-.942-.48-.628-.721-1.566-.721-2.816 0-2.56.964-3.84 2.893-3.84.651 0 1.477.194 2.478.584l.717-1.904c-.941-.437-2-.657-3.176-.657zm18.293 0c-1.687 0-2.994.508-3.922 1.523-.927 1.014-1.39 2.425-1.39 4.232 0 1.163.216 2.183.646 3.063.43.88 1.044 1.555 1.844 2.025s1.72.707 2.761.707c1.666 0 2.965-.511 3.899-1.533.934-1.021 1.402-2.441 1.402-4.262 0-1.76-.471-3.16-1.412-4.197-.94-1.038-2.216-1.559-3.828-1.559zm13.613 0c-.685 0-1.325.195-1.92.585a4.416 4.416 0 0 0-1.445 1.582h-.121l-.313-1.965h-1.853v11.147h2.37v-5.826c0-.988.292-1.79.88-2.408.587-.618 1.355-.928 2.303-.928.363 0 .713.04 1.049.12l.23-2.206a5.68 5.68 0 0 0-1.18-.102zM54.326 60.38c1.895 0 2.842 1.273 2.842 3.82 0 2.573-.942 3.86-2.822 3.86-1.902 0-2.852-1.287-2.852-3.86 0-1.23.223-2.174.67-2.832.447-.659 1.168-.988 2.162-.988zm58.84 0c1.894 0 2.842 1.273 2.842 3.82 0 2.573-.941 3.86-2.822 3.86-1.902 0-2.852-1.287-2.852-3.86 0-1.23.223-2.174.67-2.832.447-.659 1.167-.988 2.162-.988zm-28.178 4.092v.966c0 .866-.26 1.542-.781 2.022-.52.48-1.21.72-2.07.72-.592 0-1.036-.135-1.33-.408-.296-.272-.444-.656-.444-1.154 0-.685.253-1.195.76-1.527.507-.333 1.319-.519 2.434-.559l1.431-.06zm12.242 8.279c-.63 0-.945.36-.945 1.082v.164l-.525.16v.203h.525v2.594h.445V74.36h.749v-.345h-.749v-.192c0-.246.04-.425.122-.537.08-.112.203-.168.37-.168.122 0 .27.029.442.084l.113-.357a1.944 1.944 0 0 0-.547-.094zm-39.662.03v1.195l.012.207.018.21h-.035c-.213-.29-.518-.433-.917-.433-.382 0-.681.134-.896.402-.215.269-.32.645-.32 1.13 0 .483.105.858.318 1.12.214.264.514.395.898.395.41 0 .716-.15.922-.45h.024l.06.397h.362V72.78h-.446zm17.543 0v1.195l.012.207.018.21h-.036c-.212-.29-.517-.433-.916-.433-.383 0-.682.134-.896.402-.215.269-.322.645-.322 1.13 0 .483.109.858.322 1.12.214.264.512.395.896.395.41 0 .717-.15.922-.45h.026l.058.397h.362V72.78h-.446zm42.676 0v4.173h.445V72.78h-.445zm-30.385.14a.263.263 0 0 0-.187.072c-.05.048-.076.123-.076.225 0 .1.026.173.076.222.05.05.112.075.187.075a.26.26 0 0 0 .186-.075c.052-.049.076-.122.076-.222s-.024-.175-.076-.223a.266.266 0 0 0-.186-.074zm39.424.055c-.374 0-.675.088-.902.267a.874.874 0 0 0-.34.723c0 .287.078.52.234.699.157.178.417.334.782.465.26.093.456.175.584.248a.766.766 0 0 1 .273.24.616.616 0 0 1 .082.334.57.57 0 0 1-.23.483c-.154.115-.384.171-.688.171a2.827 2.827 0 0 1-1.088-.219v.44c.25.12.607.18 1.072.18.43 0 .77-.096 1.02-.29.25-.192.375-.463.375-.808 0-.268-.076-.486-.23-.654-.155-.168-.44-.325-.85-.47a3.171 3.171 0 0 1-.545-.241.715.715 0 0 1-.256-.24.663.663 0 0 1-.074-.334c0-.184.069-.328.205-.432.136-.104.323-.154.564-.154.306 0 .622.067.946.203l.14-.397a2.65 2.65 0 0 0-1.074-.214zm-20.967.04-1.55 3.938h.46l.483-1.248h1.572l.489 1.248h.47l-1.54-3.937h-.384zm18.487.016v3.922c0 .202-.045.356-.137.463-.092.107-.228.16-.404.16-.138 0-.27-.017-.397-.053v.39a.898.898 0 0 0 .397.071c.321 0 .568-.094.74-.28.172-.188.258-.45.258-.79v-3.883h-.457zm-63.852.299-.187.629-.42.184v.216h.42v1.748c0 .6.283.899.851.899.076 0 .161-.009.254-.024a.821.821 0 0 0 .215-.058v-.34a1.499 1.499 0 0 1-.402.055.44.44 0 0 1-.346-.143c-.085-.095-.127-.231-.127-.408V74.36h.853v-.345h-.853v-.684h-.258zm17.543 0-.187.629-.42.184v.216h.42v1.748c0 .6.284.899.853.899.075 0 .16-.009.254-.024a.794.794 0 0 0 .213-.058v-.34a1.491 1.491 0 0 1-.402.055.441.441 0 0 1-.346-.143c-.084-.095-.127-.231-.127-.408V74.36h.853v-.345h-.853v-.684h-.258zm7.477 0-.188.629-.422.184v.216h.422v1.748c0 .6.285.899.854.899.074 0 .159-.009.252-.024a.799.799 0 0 0 .213-.058v-.34a1.453 1.453 0 0 1-.403.055.441.441 0 0 1-.346-.143c-.084-.095-.126-.231-.126-.408V74.36h.853v-.345h-.853v-.684h-.256zm20.53.184c.064.223.123.413.183.566l.455 1.215h-1.268l.461-1.215c.073-.206.13-.395.17-.566zm-55.669.445c-.393 0-.707.14-.94.418-.233.28-.35.655-.35 1.129 0 .47.127.838.378 1.103s.594.397 1.03.397c.198 0 .365-.016.505-.045.14-.03.292-.078.45-.147v-.396c-.31.132-.624.2-.94.2-.3 0-.533-.092-.7-.27-.164-.18-.252-.44-.261-.786h2.025v-.28c0-.398-.107-.718-.322-.96-.214-.242-.507-.363-.875-.363zm3.291 0c-.202 0-.387.04-.55.12a.91.91 0 0 0-.384.335h-.021l-.074-.4h-.36v2.94h.444v-1.544c0-.382.072-.658.215-.824.142-.166.368-.248.675-.248.233 0 .405.06.514.178.108.117.162.296.162.535v1.902h.445v-1.92c0-.375-.088-.648-.267-.818-.179-.171-.445-.256-.799-.256zm9.686 0c-.426 0-.757.133-.997.4-.239.268-.359.642-.359 1.121 0 .31.054.579.164.809.111.231.269.408.473.531.204.124.438.186.701.186.425 0 .758-.135 1-.404.241-.27.361-.642.361-1.122 0-.466-.12-.837-.363-1.11-.242-.274-.57-.411-.98-.411zm4.568 0c-.394 0-.709.14-.941.418-.233.28-.35.655-.35 1.129 0 .47.126.838.377 1.103s.594.397 1.03.397c.197 0 .366-.016.507-.045.14-.03.288-.078.445-.147v-.396c-.309.132-.62.2-.937.2-.3 0-.534-.092-.7-.27-.165-.18-.252-.44-.261-.786h2.025v-.28c0-.398-.107-.718-.322-.96-.215-.242-.505-.363-.873-.363zm3.289 0c-.202 0-.387.04-.55.12a.91.91 0 0 0-.384.335h-.021l-.072-.4h-.362v2.94h.446v-1.544c0-.382.07-.658.213-.824.142-.166.368-.248.675-.248.233 0 .403.06.512.178.11.117.164.296.164.535v1.902h.445v-1.92c0-.375-.088-.648-.267-.818-.18-.171-.445-.256-.799-.256zm9.62 0c-.394 0-.707.14-.94.418-.234.28-.352.655-.352 1.129 0 .47.127.838.379 1.103.25.265.593.397 1.027.397.199 0 .368-.016.508-.045.141-.03.29-.078.447-.147v-.396c-.309.132-.622.2-.939.2-.3 0-.532-.092-.697-.27-.165-.18-.253-.44-.262-.786h2.023v-.28c0-.398-.105-.718-.32-.96-.214-.242-.507-.363-.875-.363zm2.806 0c-.34 0-.606.07-.801.209a.659.659 0 0 0-.293.566c0 .135.028.25.084.346a.793.793 0 0 0 .258.258c.115.076.308.166.582.267.288.112.483.206.582.288.1.081.148.18.148.294a.368.368 0 0 1-.187.34c-.125.074-.304.112-.537.112a2.197 2.197 0 0 1-.922-.232v.413c.218.124.522.186.912.186.369 0 .654-.075.857-.223.204-.148.307-.358.307-.633a.68.68 0 0 0-.186-.486c-.122-.129-.356-.256-.705-.383a4.141 4.141 0 0 1-.515-.219.593.593 0 0 1-.196-.156.333.333 0 0 1-.06-.201c0-.116.054-.208.162-.273.107-.067.266-.1.477-.1.24 0 .508.062.802.184l.159-.364a2.346 2.346 0 0 0-.928-.193zm6.265 0c-.201 0-.384.04-.548.12a.917.917 0 0 0-.385.335h-.022l-.072-.4h-.361v2.94h.445v-1.544c0-.382.072-.658.215-.824.143-.166.368-.248.676-.248.232 0 .403.06.511.178.11.117.164.296.164.535v1.902h.446v-1.92c0-.375-.091-.648-.27-.818-.179-.171-.444-.256-.799-.256zm2.9 0c-.353 0-.627.087-.82.262-.193.174-.289.422-.289.744 0 .193.048.365.143.515.096.15.22.256.371.319a.89.89 0 0 0-.27.232.47.47 0 0 0-.085.281c0 .095.025.179.076.25a.466.466 0 0 0 .19.159.876.876 0 0 0-.483.265.685.685 0 0 0-.172.465c0 .262.104.463.312.606.208.142.505.214.89.214.5 0 .88-.085 1.142-.255.26-.171.39-.42.39-.745 0-.255-.085-.451-.256-.585-.17-.134-.414-.202-.732-.202h-.521c-.16 0-.275-.018-.34-.056a.19.19 0 0 1-.1-.178c0-.152.095-.278.285-.379.077.015.159.022.246.022.344 0 .614-.087.81-.258.198-.172.296-.402.296-.69a.946.946 0 0 0-.194-.586l.543-.066v-.28h-1.015a1.49 1.49 0 0 0-.416-.054zm6.354 0c-.426 0-.759.133-.998.4-.24.268-.361.642-.361 1.121 0 .31.057.579.168.809.11.231.267.408.47.531.205.124.44.186.702.186.426 0 .758-.135 1-.404.24-.27.361-.642.361-1.122 0-.466-.12-.837-.363-1.11-.243-.274-.568-.411-.979-.411zm3.409 0a.887.887 0 0 0-.506.156 1.29 1.29 0 0 0-.395.442h-.021l-.051-.543h-.367v2.94h.445v-1.579c0-.288.085-.527.254-.72a.784.784 0 0 1 .61-.292c.092 0 .2.014.322.041l.06-.414a1.71 1.71 0 0 0-.35-.031h-.001zm7.027 0c-.202 0-.385.04-.549.12a.915.915 0 0 0-.385.335h-.021l-.073-.4h-.36v2.94h.444v-1.544c0-.382.072-.658.215-.824.143-.166.368-.248.676-.248.233 0 .403.06.512.178.11.117.164.296.164.535v1.902h.445v-1.92c0-.375-.089-.648-.267-.818-.18-.171-.447-.256-.801-.256zm2.9 0c-.353 0-.625.087-.818.262-.194.174-.291.422-.291.744 0 .193.047.365.142.515.096.15.222.256.373.319a.905.905 0 0 0-.271.232.47.47 0 0 0-.086.281c0 .095.025.179.076.25a.466.466 0 0 0 .19.159.88.88 0 0 0-.483.265.687.687 0 0 0-.172.465c0 .262.105.463.313.606.208.142.505.214.889.214.5 0 .881-.085 1.142-.255.26-.171.39-.42.39-.745 0-.255-.084-.451-.255-.585-.17-.134-.414-.202-.733-.202h-.52c-.16 0-.275-.018-.34-.056a.191.191 0 0 1-.1-.178c0-.152.094-.278.285-.379.076.015.158.022.246.022.343 0 .614-.087.81-.258.197-.172.295-.402.295-.69a.938.938 0 0 0-.193-.586l.545-.066v-.28h-1.018a1.486 1.486 0 0 0-.416-.054zm10.97 0a.888.888 0 0 0-.505.156c-.154.104-.285.25-.394.442h-.022l-.05-.543h-.368v2.94h.445v-1.579c0-.288.085-.527.254-.72a.785.785 0 0 1 .61-.292c.093 0 .2.014.322.041l.062-.414a1.758 1.758 0 0 0-.353-.031zm-3.233.006a2.087 2.087 0 0 0-.994.252l.136.34c.31-.15.585-.225.83-.225.219 0 .378.055.477.164.1.11.15.28.15.512v.181l-.5.016c-.95.029-1.424.34-1.424.934 0 .277.083.492.248.642.166.15.393.225.684.225.218 0 .4-.033.547-.098.145-.066.29-.191.437-.375h.024l.088.42h.33v-2.008c0-.343-.085-.592-.254-.748-.17-.155-.428-.232-.78-.232zm-33.05.049v2.94h.444v-2.94h-.443zm27.262 0v1.921c0 .374.09.646.268.815.178.17.446.256.803.256.207 0 .392-.038.554-.115a.881.881 0 0 0 .377-.334h.026l.064.396h.367v-2.94h-.445v1.544c0 .38-.07.655-.213.824-.142.168-.366.252-.674.252-.232 0-.404-.06-.513-.178-.11-.118-.162-.296-.162-.535v-1.906h-.452zm-21.658.27c.44 0 .66.22.66.661 0 .422-.215.633-.65.633-.207 0-.37-.052-.486-.158-.117-.105-.174-.262-.174-.467 0-.222.056-.389.168-.502.112-.113.273-.168.482-.168zm19.692 0c.44 0 .658.22.658.661 0 .422-.215.633-.65.633-.207 0-.37-.052-.487-.158-.116-.105-.174-.262-.174-.467 0-.222.058-.389.17-.502.113-.113.273-.168.483-.168zm-62.102.048c.233 0 .41.073.535.223.125.15.19.365.19.646h-1.537c.025-.272.107-.484.248-.639a.729.729 0 0 1 .564-.23zm6.326 0c.304 0 .526.087.664.266.139.178.207.476.207.892v.094c0 .368-.067.635-.205.8-.137.166-.357.249-.66.249-.267 0-.47-.096-.607-.287-.138-.192-.205-.475-.205-.85 0-.37.068-.657.207-.86a.683.683 0 0 1 .6-.304zm11.217 0c.232 0 .412.073.537.223.125.15.188.365.188.646h-1.537c.024-.272.107-.484.248-.639a.728.728 0 0 1 .564-.23zm6.326 0c.304 0 .526.087.664.266.139.178.207.476.207.892v.094c0 .368-.068.635-.205.8-.137.166-.356.249-.66.249-.267 0-.47-.096-.607-.287-.137-.192-.207-.475-.207-.85 0-.37.07-.657.209-.86a.683.683 0 0 1 .6-.304zm6.582 0c.233 0 .412.073.537.223.125.15.188.365.188.646H80.01c.025-.272.107-.484.248-.639a.728.728 0 0 1 .564-.23zm-17.484.006c.295 0 .518.097.67.29.15.195.226.48.226.852 0 .378-.076.663-.226.86-.152.195-.372.293-.664.293-.292 0-.512-.098-.662-.295-.15-.197-.225-.482-.225-.858 0-.379.073-.666.22-.857.15-.191.37-.285.66-.285zm35.8 0c.296 0 .52.097.67.29.152.195.227.48.227.852 0 .378-.075.663-.226.86-.152.195-.373.293-.664.293-.291 0-.512-.098-.663-.295-.15-.197-.224-.482-.224-.858 0-.379.074-.666.222-.857.149-.191.367-.285.659-.285zm21.676 1.168v.265c0 .274-.08.487-.238.64-.158.15-.375.228-.652.228-.176 0-.313-.043-.41-.127-.098-.084-.145-.206-.145-.368 0-.205.078-.358.235-.455.156-.097.411-.151.765-.164l.445-.02zm-28.283 1.379h.533c.272 0 .457.031.555.093.098.062.147.172.147.33 0 .192-.09.344-.27.456-.18.111-.455.166-.828.166-.25 0-.444-.04-.578-.121a.402.402 0 0 1-.201-.364c0-.18.057-.32.17-.416.112-.096.27-.144.472-.144zm19.69 0h.533c.271 0 .456.031.555.093.098.062.146.172.146.33a.512.512 0 0 1-.267.456c-.18.111-.457.166-.83.166-.251 0-.442-.04-.577-.121a.402.402 0 0 1-.2-.364c0-.18.055-.32.167-.416.113-.096.27-.144.473-.144z"/></svg>
