<svg xmlns="http://www.w3.org/2000/svg" viewBox="0 0 128 128"><style type="text/css">    .st0{fill:#2088FF;}    .st1{fill:#79B8FF;}    .st2{fill:#636C76;}    .st3{font-family:'Consolas';}    .st4{font-size:16.8321px;}  </style><path class="st0" d="M31.1-0.2C18.3-0.2,7.9,10.2,7.9,23.1c0,11.2,8,20.6,18.6,22.8v33.1c0,10.3,8.4,18.6,18.6,18.6h0.2 c1.1,7.9,8,14,16.1,14c9,0,16.3-7.3,16.3-16.3s-7.3-16.3-16.3-16.3c-8.2,0-15,6.1-16.1,14h-0.2c-7.6,0-14-6.2-14-14V55.4 c3,3.1,7.2,4.9,11.6,4.8h2.6c1.1,7.9,8,14,16.1,14c8.2,0,15-6.1,16.1-14h9.7c1.1,7.9,8,14,16.1,14c9,0,16.3-7.3,16.3-16.3 c0-9-7.3-16.3-16.3-16.3c-8.2,0-15,6.1-16.1,14h-9.7c-1.1-7.9-8-14-16.1-14s-15,6.1-16.1,14h-2.6c-5.6,0-10.3-4-11.3-9.3 C44.1,46.2,54.4,35.8,54.4,23C54.4,10.2,44-0.3,31.1-0.2L31.1-0.2z M31.1,4.4c10.3,0,18.6,8.3,18.6,18.6c0,0,0,0.1,0,0.1 c0,10.3-8.3,18.6-18.6,18.6c0,0,0,0-0.1,0c-10.3,0-18.6-8.3-18.6-18.5c0,0,0-0.1,0-0.1C12.5,12.8,20.8,4.5,31.1,4.4 C31.1,4.4,31.1,4.4,31.1,4.4z M26.6,11c-2.4,0-4.8,2-4.8,4.6v14.9c0,3.5,4.1,5.8,7.1,4l11.9-7.4c2.8-1.8,2.9-6.1,0-7.9L29,11.7 C28.3,11.2,27.4,11,26.6,11z M26.5,15.6l11.9,7.5l-11.9,7.4L26.5,15.6L26.5,15.6z M61.4,46.3c6.4,0,11.6,5.2,11.7,11.6 c0,0,0,0.1,0,0.1c0,6.4-5.2,11.6-11.6,11.6c0,0-0.1,0-0.1,0c-6.4,0-11.6-5.2-11.6-11.6c0,0,0,0,0-0.1C49.7,51.6,54.9,46.4,61.4,46.3 C61.3,46.3,61.4,46.3,61.4,46.3z M103.3,46.3c6.4,0,11.6,5.2,11.7,11.6c0,0,0,0.1,0,0.1c0,6.4-5.2,11.6-11.6,11.6c0,0-0.1,0-0.1,0 c-6.4,0-11.6-5.2-11.6-11.6c0,0,0,0,0-0.1C91.7,51.6,96.8,46.4,103.3,46.3C103.3,46.3,103.3,46.3,103.3,46.3z M66.2,52.4 c-0.6,0-1.2,0.2-1.7,0.7L59,58.6l-1.8-1.8c-0.9-0.9-2.4-0.9-3.3,0c-0.9,0.9-0.9,2.4,0,3.3l3.5,3.5c0.9,0.9,2.4,0.9,3.3,0l7.2-7.1 c0.9-0.9,0.9-2.4,0-3.3C67.4,52.7,66.8,52.4,66.2,52.4L66.2,52.4z M108.1,52.4c-0.6,0-1.2,0.2-1.7,0.7l-5.5,5.5l-1.8-1.8 c-0.9-0.9-2.4-0.9-3.3,0c-0.9,0.9-0.9,2.4,0,3.3l3.5,3.5c0.9,0.9,2.4,0.9,3.3,0l7.2-7.1c0.9-0.9,0.9-2.4,0-3.3 C109.3,52.7,108.7,52.4,108.1,52.4L108.1,52.4z M61.4,83.6c6.4,0,11.6,5.2,11.7,11.6c0,0,0,0.1,0,0.1c0,6.4-5.2,11.6-11.6,11.7 c0,0-0.1,0-0.1,0c-6.4,0-11.6-5.2-11.6-11.6c0,0,0-0.1,0-0.1C49.8,88.8,54.9,83.6,61.4,83.6C61.4,83.6,61.4,83.6,61.4,83.6z M56.8,91.7c-1.9,0-3.5,1.6-3.5,3.5c0,1.9,1.6,3.5,3.5,3.5c1.9,0,3.5-1.6,3.5-3.5C60.3,93.3,58.7,91.7,56.8,91.7z M66.1,91.7 c-1.9,0-3.5,1.6-3.5,3.5c0,1.9,1.6,3.5,3.5,3.5c1.9,0,3.5-1.6,3.5-3.5C69.6,93.3,68,91.7,66.1,91.7z M56.8,94.1 c0.7,0,1.2,0.5,1.2,1.2c0,0.7-0.5,1.2-1.2,1.2c-0.7,0-1.2-0.5-1.2-1.2S56.1,94.1,56.8,94.1z M66.1,94.1c0.7,0,1.2,0.5,1.2,1.2 c0,0.7-0.5,1.2-1.2,1.2c-0.7,0-1.2-0.5-1.2-1.2S65.4,94.1,66.1,94.1z"/><path class="st1" d="M103.3,78.6c-8.2,0-15,6.1-16.1,14c-0.1,0-0.2,0-0.2,0l-2.4,0.1c-1.3,0-2.3,1.1-2.3,2.4c0,0,0,0,0,0 c0,1.3,1.1,2.3,2.4,2.3c0,0,0,0,0,0l2.4-0.1c0,0,0.1,0,0.1,0c1.1,7.9,8,14,16.1,14c9,0,16.3-7.3,16.3-16.3S112.3,78.6,103.3,78.6 L103.3,78.6z M103.3,83.2c6.4,0,11.6,5.2,11.7,11.6c0,0,0,0.1,0,0.1c0,6.4-5.2,11.6-11.6,11.7c0,0-0.1,0-0.1,0 c-6.4,0-11.6-5.2-11.6-11.6c0,0,0-0.1,0-0.1C91.7,88.5,96.8,83.3,103.3,83.2C103.3,83.2,103.3,83.2,103.3,83.2z"/><text font-size="22" font-weight="bold" transform="matrix(1 0 0 1 0 127.4795)" class="st2 st3 st4">Github Actions</text></svg>
