<?xml version="1.0" encoding="UTF-8" standalone="no"?>
<svg
   width="128"
   height="128"
   viewBox="0 0 128 128"
   fill="none"
   version="1.1"
   id="svg30"
   sodipodi:docname="githubactions-plain.svg"
   inkscape:version="1.2.1 (9c6d41e410, 2022-07-14)"
   xmlns:inkscape="http://www.inkscape.org/namespaces/inkscape"
   xmlns:sodipodi="http://sodipodi.sourceforge.net/DTD/sodipodi-0.dtd"
   xmlns="http://www.w3.org/2000/svg"
   xmlns:svg="http://www.w3.org/2000/svg">
  <defs
     id="defs34" />
  <sodipodi:namedview
     id="namedview32"
     pagecolor="#ffffff"
     bordercolor="#666666"
     borderopacity="1.0"
     inkscape:showpageshadow="2"
     inkscape:pageopacity="0.0"
     inkscape:pagecheckerboard="0"
     inkscape:deskcolor="#d1d1d1"
     showgrid="false"
     inkscape:zoom="2.8763042"
     inkscape:cx="81.702068"
     inkscape:cy="18.426424"
     inkscape:window-width="1920"
     inkscape:window-height="947"
     inkscape:window-x="0"
     inkscape:window-y="27"
     inkscape:window-maximized="1"
     inkscape:current-layer="svg30" />
  <path
     id="path2"
     style="color:#000000;clip-rule:evenodd;fill:#2088ff;fill-rule:evenodd;stroke-linecap:round;stroke-linejoin:round"
     d="M 26.666016 0 C 11.969815 0 0 11.969815 0 26.666016 C 0 39.536862 9.1812421 50.317241 21.333984 52.796875 L 21.333984 90.666016 C 21.333984 102.43635 31.014464 112 42.666016 112 L 42.861328 112 C 44.162797 121.02334 51.961267 128 61.333984 128 C 71.611668 128 80 119.61167 80 109.33398 C 80 99.056313 71.611669 90.666016 61.333984 90.666016 C 51.961929 90.666016 44.163624 97.643317 42.861328 106.66602 L 42.666016 106.66602 C 33.92936 106.66602 26.666016 99.514288 26.666016 90.666016 L 26.666016 63.779297 C 30.035362 67.205419 34.721432 69.333984 39.90625 69.333984 L 42.861328 69.333984 C 44.163623 78.356684 51.961928 85.333984 61.333984 85.333984 C 70.706043 85.333984 78.502678 78.356683 79.804688 69.333984 L 90.861328 69.333984 C 92.163624 78.356683 99.961938 85.333984 109.33398 85.333984 C 119.61167 85.333984 128 76.943696 128 66.666016 C 128 56.388332 119.61167 48 109.33398 48 C 99.961276 48 92.162797 54.976659 90.861328 64 L 79.804688 64 C 78.503505 54.976659 70.706705 48 61.333984 48 C 51.961265 48 44.162796 54.976659 42.861328 64 L 39.90625 64 C 33.472728 64 28.113418 59.411245 26.917969 53.328125 C 41.498241 53.191538 53.333984 41.277746 53.333984 26.666016 C 53.333984 11.969822 41.362262 7.1054203e-15 26.666016 0 z M 26.666016 5.3339844 C 38.480089 5.3339844 48 14.851992 48 26.666016 C 48 38.480096 38.480096 48 26.666016 48 C 14.851992 48 5.3339844 38.480089 5.3339844 26.666016 C 5.3339844 14.851999 14.851999 5.3339844 26.666016 5.3339844 z M 21.451172 12.875 C 18.668913 12.889104 16 15.123 16 18.166016 L 16 35.208984 C 16 39.25153 20.70877 41.872228 24.144531 39.742188 L 37.779297 31.287109 C 41.036411 29.267492 41.05338 24.284968 37.810547 22.242188 L 24.175781 13.652344 C 23.31754 13.111693 22.378591 12.870299 21.451172 12.875 z M 21.333984 18.166016 L 34.96875 26.753906 L 21.333984 35.208984 L 21.333984 18.166016 z M 61.333984 53.333984 C 68.729316 53.333984 74.666016 59.270684 74.666016 66.666016 C 74.666016 74.061344 68.729316 80 61.333984 80 C 53.938656 80 48 74.061344 48 66.666016 C 48 59.270684 53.938656 53.333984 61.333984 53.333984 z M 109.33398 53.333984 C 116.72934 53.333984 122.66602 59.270683 122.66602 66.666016 C 122.66602 74.061345 116.72934 80 109.33398 80 C 101.93866 80 96 74.061344 96 66.666016 C 96 59.270684 101.93866 53.333984 109.33398 53.333984 z M 66.765625 60.285156 A 2.6666651 2.6666651 0 0 0 64.878906 61.064453 L 58.578125 67.359375 L 56.486328 65.275391 A 2.6666651 2.6666651 0 0 0 52.714844 65.28125 A 2.6666651 2.6666651 0 0 0 52.722656 69.052734 L 56.697266 73.013672 A 2.6669317 2.6669317 0 0 0 60.462891 73.011719 L 68.648438 64.837891 A 2.6666651 2.6666651 0 0 0 68.650391 61.066406 A 2.6666651 2.6666651 0 0 0 66.765625 60.285156 z M 114.76562 60.285156 A 2.6666651 2.6666651 0 0 0 112.87891 61.064453 L 106.57812 67.359375 L 104.48633 65.275391 A 2.6666651 2.6666651 0 0 0 100.71484 65.28125 A 2.6666651 2.6666651 0 0 0 100.72266 69.052734 L 104.69727 73.013672 A 2.6669317 2.6669317 0 0 0 108.46289 73.011719 L 116.64844 64.837891 A 2.6666651 2.6666651 0 0 0 116.65039 61.066406 A 2.6666651 2.6666651 0 0 0 114.76562 60.285156 z M 109.33398 90.666016 C 99.951169 90.666016 92.146252 97.659498 90.857422 106.69727 A 2.6666651 2.6666651 0 0 0 90.591797 106.68555 L 87.892578 106.77539 A 2.6666651 2.6666651 0 0 0 85.314453 109.52734 A 2.6666651 2.6666651 0 0 0 88.066406 112.10547 L 90.765625 112.01758 A 2.6666651 2.6666651 0 0 0 90.863281 112.01172 C 92.169815 121.02938 99.965336 128 109.33398 128 C 119.61167 128 128 119.61167 128 109.33398 C 128 99.056314 119.61167 90.666016 109.33398 90.666016 z M 61.333984 96 C 68.729316 96 74.666016 101.93866 74.666016 109.33398 C 74.666016 116.72934 68.729317 122.66602 61.333984 122.66602 C 53.938655 122.66602 48 116.72934 48 109.33398 C 48 101.93866 53.938656 96 61.333984 96 z M 109.33398 96 C 116.72934 96 122.66602 101.93866 122.66602 109.33398 C 122.66602 116.72934 116.72934 122.66602 109.33398 122.66602 C 101.93866 122.66602 96 116.72934 96 109.33398 C 96 101.93866 101.93866 96 109.33398 96 z M 56 105.33398 C 53.806538 105.33398 52 107.14054 52 109.33398 C 52 111.52854 53.807824 113.33398 56 113.33398 C 58.192175 113.33398 60 111.52854 60 109.33398 C 60 107.14054 58.193462 105.33398 56 105.33398 z M 66.666016 105.33398 C 64.472553 105.33398 62.666016 107.14054 62.666016 109.33398 C 62.666016 111.52854 64.47384 113.33398 66.666016 113.33398 C 68.858189 113.33398 70.666016 111.52854 70.666016 109.33398 C 70.666016 107.14054 68.859475 105.33398 66.666016 105.33398 z M 56 108 C 56.749461 108 57.333984 108.58455 57.333984 109.33398 C 57.333984 110.08663 56.750748 110.66602 56 110.66602 C 55.249251 110.66602 54.666016 110.08663 54.666016 109.33398 C 54.666016 108.58455 55.250537 108 56 108 z M 66.666016 108 C 67.415477 108 68 108.58455 68 109.33398 C 68 110.08663 67.416764 110.66602 66.666016 110.66602 C 65.915264 110.66602 65.333984 110.08663 65.333984 109.33398 C 65.333984 108.58455 65.916551 108 66.666016 108 z " />
</svg>
