<?xml version="1.0" encoding="UTF-8" standalone="no"?>
<svg
   width="128"
   height="128"
   viewBox="0 0 128 128"
   fill="none"
   version="1.1"
   id="svg30"
   sodipodi:docname="githubactions-plain.svg"
   inkscape:version="1.2.1 (0f2f062aeb, 2022-09-21, custom)"
   xmlns:inkscape="http://www.inkscape.org/namespaces/inkscape"
   xmlns:sodipodi="http://sodipodi.sourceforge.net/DTD/sodipodi-0.dtd"
   xmlns="http://www.w3.org/2000/svg"
   xmlns:svg="http://www.w3.org/2000/svg">
  <defs
     id="defs34" />
  <sodipodi:namedview
     id="namedview32"
     pagecolor="#ffffff"
     bordercolor="#666666"
     borderopacity="1.0"
     inkscape:showpageshadow="2"
     inkscape:pageopacity="0.0"
     inkscape:pagecheckerboard="0"
     inkscape:deskcolor="#d1d1d1"
     showgrid="false"
     inkscape:zoom="2.8763042"
     inkscape:cx="99.433156"
     inkscape:cy="73.705696"
     inkscape:window-width="1920"
     inkscape:window-height="947"
     inkscape:window-x="0"
     inkscape:window-y="27"
     inkscape:window-maximized="1"
     inkscape:current-layer="svg30" />
  <g
     id="g5851">
    <path
       fill-rule="evenodd"
       clip-rule="evenodd"
       d="m 26.666667,2.6666667 c 13.2552,0 24,10.7448533 24,24.0000003 0,13.2552 -10.7448,24 -24,24 -13.255147,0 -24.0000003,-10.7448 -24.0000003,-24 0,-13.255147 10.7448533,-24.0000003 24.0000003,-24.0000003 z"
       stroke="var(--color-marketing-icon-primary, #2088FF)"
       stroke-width="5.33333"
       stroke-linecap="round"
       stroke-linejoin="round"
       id="path2"
       style="stroke:#2088ff;stroke-opacity:1" />
    <path
       fill-rule="evenodd"
       clip-rule="evenodd"
       d="m 61.333334,50.666667 c 8.836534,0 16,7.163467 16,16.000001 0,8.836533 -7.163466,16 -16,16 -8.836533,0 -16,-7.163467 -16,-16 0,-8.836534 7.163467,-16.000001 16,-16.000001 z"
       stroke="var(--color-marketing-icon-primary, #2088FF)"
       stroke-width="5.33333"
       stroke-linecap="round"
       stroke-linejoin="round"
       id="path4"
       style="stroke:#2088ff;stroke-opacity:1" />
    <path
       fill-rule="evenodd"
       clip-rule="evenodd"
       d="m 61.333334,93.333334 c 8.836534,0 16,7.163466 16,15.999996 0,8.83654 -7.163466,16 -16,16 -8.836533,0 -16,-7.16346 -16,-16 0,-8.83653 7.163467,-15.999996 16,-15.999996 z"
       stroke="var(--color-marketing-icon-primary, #2088FF)"
       stroke-width="5.33333"
       stroke-linecap="round"
       stroke-linejoin="round"
       id="path6"
       style="stroke:#2088ff;stroke-opacity:1" />
    <path
       fill-rule="evenodd"
       clip-rule="evenodd"
       d="m 109.33333,93.333334 c 8.83654,0 16,7.163466 16,15.999996 0,8.83654 -7.16346,16 -16,16 -8.83653,0 -15.999996,-7.16346 -15.999996,-16 0,-8.83653 7.163466,-15.999996 15.999996,-15.999996 z"
       stroke="var(--color-marketing-icon-secondary, #79B8FF)"
       stroke-width="5.33333"
       stroke-linecap="round"
       stroke-linejoin="round"
       id="path8"
       style="stroke:#2088ff;stroke-opacity:1" />
    <path
       d="m 66.764001,62.951734 -8.184534,8.1736 -3.9752,-3.961066"
       stroke="var(--color-marketing-icon-primary, #2088FF)"
       stroke-width="5.33333"
       stroke-linecap="round"
       stroke-linejoin="round"
       id="path10"
       style="stroke:#2088ff;stroke-opacity:1" />
    <path
       fill-rule="evenodd"
       clip-rule="evenodd"
       d="m 109.33333,50.666667 c 8.83654,0 16,7.163467 16,16.000001 0,8.836533 -7.16346,16 -16,16 -8.83653,0 -15.999996,-7.163467 -15.999996,-16 0,-8.836534 7.163466,-16.000001 15.999996,-16.000001 z"
       stroke="var(--color-marketing-icon-primary, #2088FF)"
       stroke-width="5.33333"
       stroke-linecap="round"
       stroke-linejoin="round"
       id="path12"
       style="stroke:#2088ff;stroke-opacity:1" />
    <path
       d="m 114.764,62.951734 -8.18453,8.1736 -3.9752,-3.961066"
       stroke="var(--color-marketing-icon-primary, #2088FF)"
       stroke-width="5.33333"
       stroke-linecap="round"
       stroke-linejoin="round"
       id="path14"
       style="stroke:#2088ff;stroke-opacity:1" />
    <path
       d="m 18.666667,18.16536 c 0,-2.098746 2.31224,-3.374933 4.088,-2.256293 l 13.6352,8.589387 c 1.667467,1.0504 1.658667,3.484213 -0.016,4.522613 l -13.63528,8.454667 c -1.776453,1.101333 -4.07192,-0.176267 -4.07192,-2.2664 z"
       stroke="var(--color-marketing-icon-primary, #2088FF)"
       stroke-width="5.33333"
       stroke-linecap="round"
       stroke-linejoin="round"
       id="path16"
       style="stroke:#2088ff;stroke-opacity:1" />
    <path
       d="m 24,50.666667 v 40.000001 c 0,10.309332 8.472534,18.666662 18.666667,18.666662 h 2.666667"
       stroke="var(--color-marketing-icon-primary, #2088FF)"
       stroke-width="5.33333"
       stroke-linecap="round"
       stroke-linejoin="round"
       id="path18"
       style="stroke:#2088ff;stroke-opacity:1" />
    <path
       d="m 45.197334,69.333334 c 1.4728,0 2.666667,-1.193866 2.666667,-2.666666 0,-1.472801 -1.193867,-2.666667 -2.666667,-2.666667 z m -23.864,-18.5728 c 0,10.257333 8.315466,18.5728 18.5728,18.5728 v -5.333333 c -7.312,0 -13.239467,-5.927467 -13.239467,-13.239467 z m 18.5728,18.5728 h 5.2912 v -5.333333 h -5.2912 z"
       fill="var(--color-marketing-icon-primary, #2088FF)"
       id="path20"
       style="fill:#2088ff;fill-opacity:1;stroke:none;stroke-width:2.66667;stroke-opacity:1" />
    <path
       d="M 77.479201,66.666668 H 93.331468"
       stroke="var(--color-marketing-icon-primary, #2088FF)"
       stroke-width="5.33333"
       stroke-linecap="round"
       stroke-linejoin="round"
       id="path22"
       style="stroke:#2088ff;stroke-opacity:1" />
    <path
       fill-rule="evenodd"
       clip-rule="evenodd"
       d="m 56.000001,106.66667 c 1.471466,0 2.666666,1.1952 2.666666,2.66666 0,1.4736 -1.1952,2.66667 -2.666666,2.66667 -1.471467,0 -2.666667,-1.19307 -2.666667,-2.66667 0,-1.47146 1.1952,-2.66666 2.666667,-2.66666 z"
       fill="var(--color-marketing-icon-secondary, #79B8FF)"
       id="path24"
       style="stroke:#2088ff;stroke-width:2.66667;stroke-opacity:1" />
    <path
       fill-rule="evenodd"
       clip-rule="evenodd"
       d="m 66.666668,106.66667 c 1.471466,0 2.666666,1.1952 2.666666,2.66666 0,1.4736 -1.1952,2.66667 -2.666666,2.66667 -1.471467,0 -2.666667,-1.19307 -2.666667,-2.66667 0,-1.47146 1.1952,-2.66666 2.666667,-2.66666 z"
       fill="var(--color-marketing-icon-secondary, #79B8FF)"
       id="path26"
       style="stroke:#2088ff;stroke-width:2.66667;stroke-opacity:1" />
    <path
       d="m 90.679468,109.35173 -2.700267,0.088"
       stroke="var(--color-marketing-icon-secondary, #79B8FF)"
       stroke-width="5.33333"
       stroke-linecap="round"
       id="path28"
       style="stroke:#2088ff;stroke-opacity:1" />
  </g>
</svg>
