<svg xmlns="http://www.w3.org/2000/svg" viewBox="0 0 128 128"><path fill="#2088ff" d="M30.96.142c-13.011 0-23.502 10.59-23.502 23.5 0 11.296 8.069 20.88 18.76 22.997v33.386c0 10.389 8.576 18.76 18.763 18.76h.2c1.11 7.968 8.07 14.12 16.24 14.12 9.077 0 16.44-7.36 16.44-16.439 0-9.077-7.363-16.441-16.44-16.441-8.272 0-15.13 6.153-16.24 14.12h-.2c-7.666 0-14.121-6.354-14.121-14.12V56.422a16.32 16.32 0 0 0 11.7 4.943h2.622c1.11 7.968 8.068 14.121 16.238 14.121 8.271 0 15.13-6.153 16.239-14.12h9.785c1.11 7.967 8.069 14.12 16.238 14.12 9.078 0 16.442-7.362 16.442-16.44 0-9.077-7.364-16.441-16.442-16.441-8.27 0-15.129 6.153-16.238 14.12h-9.785c-1.11-7.967-8.069-14.12-16.239-14.12s-15.129 6.153-16.238 14.12H42.56c-5.649 0-10.39-4.035-11.5-9.38 12.911-.303 23.4-10.793 23.4-23.703S43.87.142 30.96.142zm0 4.74c10.288 0 18.76 8.37 18.76 18.76v.102a18.725 18.725 0 0 1-18.76 18.76h-.1a18.726 18.726 0 0 1-18.762-18.76v-.102c0-10.288 8.373-18.76 18.862-18.76zm-4.639 6.656c-2.42 0-4.842 2.019-4.842 4.641v15.028c0 3.53 4.135 5.85 7.16 4.034l12.004-7.462c2.824-1.816 2.925-6.153 0-7.969L28.64 12.245c-.606-.504-1.512-.707-2.319-.707Zm-.102 4.641 12.003 7.565-12.003 7.463zM61.42 47.144c6.456 0 11.702 5.244 11.802 11.7v.1c0 6.455-5.246 11.701-11.701 11.802h-.1c-6.456 0-11.7-5.244-11.801-11.7v-.102c.1-6.455 5.345-11.7 11.8-11.8Zm42.363 0c6.455 0 11.701 5.244 11.802 11.7v.1c0 6.455-5.246 11.701-11.702 11.802h-.1c-6.455 0-11.7-5.244-11.8-11.7v-.102c0-6.455 5.244-11.7 11.8-11.8zm-37.52 6.152c-.606 0-1.212.203-1.716.707l-5.548 5.548-1.814-1.817a2.375 2.375 0 0 0-3.33 0 2.375 2.375 0 0 0 0 3.33l3.53 3.53a2.375 2.375 0 0 0 3.33 0l7.261-7.163a2.373 2.373 0 0 0 0-3.327c-.504-.505-1.108-.808-1.713-.808zm42.362 0c-.605 0-1.211.203-1.716.707l-5.547 5.548-1.815-1.817a2.375 2.375 0 0 0-3.329 0 2.375 2.375 0 0 0 0 3.33l3.53 3.53a2.375 2.375 0 0 0 3.33 0l7.261-7.163a2.373 2.373 0 0 0 0-3.327c-.504-.505-1.109-.808-1.714-.808zm-4.842 25.419c-8.27 0-15.13 6.152-16.239 14.12h-.2l-2.422.101c-1.311 0-2.32 1.11-2.32 2.421 0 1.311 1.11 2.319 2.42 2.319l2.422-.1h.1c1.11 7.968 8.069 14.12 16.239 14.12 9.078 0 16.441-7.363 16.441-16.441s-7.363-16.54-16.441-16.54zm0 4.74c6.455 0 11.701 5.244 11.802 11.7v.1c0 6.455-5.246 11.701-11.702 11.802h-.1c-6.455 0-11.7-5.244-11.8-11.7v-.102a11.75 11.75 0 0 1 11.8-11.8zM61.52 84.767c6.455 0 11.701 5.244 11.802 11.7v.1c0 6.455-5.245 11.7-11.7 11.8h-.102c-6.456 0-11.7-5.244-11.8-11.7v-.1c0-6.455 5.244-11.8 11.8-11.8zm-4.74 8.27c-1.916 0-3.53 1.613-3.53 3.53 0 1.916 1.614 3.53 3.53 3.53 1.916 0 3.53-1.614 3.53-3.53 0-1.917-1.614-3.53-3.53-3.53zm9.381 0c-1.916 0-3.53 1.613-3.53 3.53 0 1.916 1.614 3.53 3.53 3.53 1.916 0 3.53-1.614 3.53-3.53 0-1.917-1.614-3.53-3.53-3.53zm-9.381 2.32c.706 0 1.21.504 1.21 1.21s-.504 1.21-1.21 1.21-1.21-.504-1.21-1.21.605-1.21 1.21-1.21zm9.381 0c.706 0 1.21.504 1.21 1.21s-.504 1.21-1.21 1.21-1.212-.504-1.212-1.21c.101-.706.607-1.21 1.212-1.21zm-52.54 20.356c-.186 0-.361.035-.526.107a1.28 1.28 0 0 0-.42.28 1.345 1.345 0 0 0-.368.93 1.322 1.322 0 0 0 .369.927c.12.115.26.208.42.28.164.066.34.098.525.098.187 0 .36-.032.519-.098.159-.072.296-.165.411-.28a1.28 1.28 0 0 0 .379-.928c0-.18-.033-.351-.099-.51a1.28 1.28 0 0 0-.28-.42 1.193 1.193 0 0 0-.411-.28 1.251 1.251 0 0 0-.519-.106zm83.323 0c-.186 0-.361.035-.526.107a1.28 1.28 0 0 0-.42.28 1.35 1.35 0 0 0-.271 1.44c.065.158.156.296.271.417.121.115.261.208.42.28.165.066.34.098.526.098s.36-.032.518-.098a1.36 1.36 0 0 0 .41-.28 1.28 1.28 0 0 0 .378-.928 1.28 1.28 0 0 0-.378-.93 1.185 1.185 0 0 0-.41-.28 1.251 1.251 0 0 0-.518-.106zm-68.416.337v11.619h2.008v-5.287c.345-.472.67-.845.977-1.12.312-.273.64-.41.979-.41.68 0 1.018.459 1.018 1.374v5.443h2.008v-5.609c0-.444-.056-.843-.166-1.2a2.456 2.456 0 0 0-.476-.921 2.098 2.098 0 0 0-.798-.591 2.707 2.707 0 0 0-1.117-.215c-.285 0-.547.03-.782.09a2.628 2.628 0 0 0-1.226.659c-.175.159-.348.34-.518.543l.1-1.513v-2.862Zm18.516 0v11.264c.477.154.977.275 1.497.363a9.8 9.8 0 0 0 1.703.14c.619 0 1.191-.089 1.717-.264a3.665 3.665 0 0 0 1.366-.822c.389-.372.69-.84.904-1.398.219-.56.329-1.223.329-1.99a6.79 6.79 0 0 0-.207-1.744c-.137-.52-.336-.962-.599-1.323a2.63 2.63 0 0 0-.961-.845 2.838 2.838 0 0 0-1.316-.298c-.565 0-1.05.119-1.456.355-.4.235-.75.548-1.052.937l.083-1.645v-2.73zm-24.13.593-2.057.534v2.137h-2.244v1.562h2.244v4.078c0 .505.06.941.181 1.308.127.362.318.661.576.897.263.235.592.41.987.526.4.115.874.173 1.422.173.329 0 .677-.025 1.044-.075.367-.05.732-.115 1.093-.197v-1.603a9.133 9.133 0 0 1-.855.189 5.551 5.551 0 0 1-.96.082c-.516 0-.883-.12-1.102-.362-.22-.247-.33-.609-.33-1.085v-3.93h3.247v-1.563h-3.246zm64.805 0-2.055.534v2.137h-2.246v1.562h2.246v4.078c0 .505.059.941.18 1.308.125.362.319.661.576.897.264.235.59.41.985.526.4.115.877.173 1.425.173.329 0 .677-.025 1.044-.075.367-.05.731-.115 1.093-.197v-1.603a9.133 9.133 0 0 1-.855.189 5.574 5.574 0 0 1-.963.082c-.515 0-.882-.12-1.101-.362-.22-.247-.33-.609-.33-1.085v-3.93h3.25v-1.563h-3.25zm-82.484.098c-.833 0-1.576.129-2.228.387a4.388 4.388 0 0 0-1.645 1.126c-.444.488-.783 1.086-1.018 1.793-.23.707-.345 1.506-.345 2.4 0 .888.11 1.67.329 2.344.225.674.545 1.24.961 1.694a3.97 3.97 0 0 0 1.513 1.026c.598.23 1.268.347 2.014.347.63 0 1.214-.056 1.75-.165a6.916 6.916 0 0 0 1.547-.51v-5.731H4.291v1.67h1.826v2.744a5.93 5.93 0 0 1-.239.075c-.07.022-.148.041-.23.057-.082.017-.17.03-.264.042a6.192 6.192 0 0 1-.329.008c-.526 0-.972-.084-1.34-.254a2.32 2.32 0 0 1-.904-.733 3.228 3.228 0 0 1-.502-1.166 7.032 7.032 0 0 1-.156-1.547c0-.592.066-1.122.197-1.593.137-.472.336-.87.593-1.194a2.65 2.65 0 0 1 .97-.747 3.24 3.24 0 0 1 1.34-.264c.5 0 .993.063 1.48.19.494.12.942.276 1.348.468v-1.997a11.618 11.618 0 0 0-1.405-.337 7.775 7.775 0 0 0-1.44-.132zm62.398.182-3.182 10.746h2.006l.608-2.122h3.75l.592 2.122h2.236l-3.181-10.746zm1.331 1.972 1.399 5H67.55Zm37.198.238c-.642 0-1.218.107-1.728.321-.51.208-.942.505-1.298.889a4.008 4.008 0 0 0-.816 1.388 5.54 5.54 0 0 0-.278 1.809c0 .718.09 1.348.27 1.891.181.537.443.988.782 1.35.34.356.754.624 1.241.805.488.181 1.042.272 1.661.272.652 0 1.234-.107 1.744-.321a3.56 3.56 0 0 0 1.29-.904c.35-.39.62-.856.806-1.399.186-.548.28-1.15.28-1.808 0-.702-.092-1.318-.272-1.85a3.545 3.545 0 0 0-.773-1.35 3.201 3.201 0 0 0-1.24-.813c-.489-.187-1.044-.28-1.67-.28zm10.12 0c-.307 0-.583.033-.83.099a3.1 3.1 0 0 0-1.292.733 5.997 5.997 0 0 0-.526.583l-.05-1.234h-1.733v8.355h2.005v-5.287c.346-.472.673-.845.98-1.12.312-.273.637-.41.977-.41.68 0 1.02.459 1.02 1.374v5.443h2.005v-5.609c0-.444-.053-.843-.163-1.2a2.456 2.456 0 0 0-.477-.921 2.098 2.098 0 0 0-.798-.591 2.717 2.717 0 0 0-1.119-.215zm8.616 0c-.608 0-1.139.065-1.594.197a3.526 3.526 0 0 0-1.144.544 2.266 2.266 0 0 0-.682.79 2.09 2.09 0 0 0-.23.961c0 .35.049.657.148.92.104.258.258.486.46.684.203.197.458.37.765.518.312.142.674.27 1.085.386.444.126.804.24 1.078.345.274.098.484.196.632.295a.824.824 0 0 1 .314.298c.054.104.08.218.08.344 0 .269-.13.488-.394.658-.257.165-.65.247-1.176.247-.455 0-.938-.047-1.454-.14a7.967 7.967 0 0 1-1.538-.47v1.81c.438.109.905.193 1.399.248.493.06 1.046.09 1.66.09a6.1 6.1 0 0 0 1.348-.15 3.774 3.774 0 0 0 1.184-.45c.35-.215.63-.49.839-.824.214-.34.321-.747.321-1.224a2.63 2.63 0 0 0-.132-.864 1.72 1.72 0 0 0-.435-.674 2.753 2.753 0 0 0-.79-.526 7.62 7.62 0 0 0-1.218-.443c-.427-.12-.773-.23-1.036-.33a3.92 3.92 0 0 1-.607-.297.794.794 0 0 1-.287-.287.742.742 0 0 1-.075-.337c0-.263.123-.469.37-.617.252-.148.584-.22.995-.22.411 0 .824.032 1.241.098.422.06.87.166 1.348.32v-1.636a15.05 15.05 0 0 0-1.076-.181 10.555 10.555 0 0 0-1.399-.083zm-45.73.05a5.02 5.02 0 0 0-1.81.313 3.941 3.941 0 0 0-1.38.888 4.02 4.02 0 0 0-.897 1.389c-.208.543-.311 1.147-.311 1.816 0 .69.096 1.3.288 1.826.197.527.48.968.847 1.324a3.55 3.55 0 0 0 1.34.806c.525.18 1.12.272 1.784.272.46 0 .902-.04 1.324-.116a6.253 6.253 0 0 0 1.223-.353v-1.785a5.449 5.449 0 0 1-.534.197c-.186.06-.378.116-.575.166a6.837 6.837 0 0 1-.583.106 4.88 4.88 0 0 1-.552.034c-.361 0-.69-.059-.987-.174a2.228 2.228 0 0 1-.764-.51 2.363 2.363 0 0 1-.485-.814 3.152 3.152 0 0 1-.173-1.077c0-.384.052-.734.156-1.052.11-.324.266-.597.469-.822.202-.224.452-.4.748-.526s.63-.189 1.003-.189c.356 0 .732.047 1.127.14.4.093.771.224 1.11.394v-1.948a7.29 7.29 0 0 0-1.004-.215 8.64 8.64 0 0 0-1.363-.09zm-68.819.131v1.563h2.36v5.23h-2.647v1.562h7.111v-1.562h-2.409v-6.793zm27.42 0v5.609c0 .444.054.846.158 1.208.11.356.271.662.485.92.214.257.48.458.798.6a2.86 2.86 0 0 0 1.124.207c.302 0 .577-.037.824-.108a2.803 2.803 0 0 0 1.282-.731c.181-.175.359-.371.534-.585l.05 1.235h1.735v-8.355h-2.005v5.288a7.326 7.326 0 0 1-.987 1.127c-.307.274-.63.41-.964.41-.345 0-.602-.115-.772-.345-.17-.236-.254-.582-.254-1.037v-5.443zm55.903 0v1.563h2.36v5.23h-2.648v1.562h7.112v-1.562h-2.41v-6.793zm-42.664 1.539c.23 0 .433.049.609.148.18.093.33.242.45.45.127.21.223.475.288.799.066.323.099.715.099 1.176 0 .433-.05.825-.148 1.176a2.576 2.576 0 0 1-.427.878 1.868 1.868 0 0 1-1.53.757 4.45 4.45 0 0 1-.714-.057 3.106 3.106 0 0 1-.583-.148v-3.65c.345-.472.67-.845.977-1.12.312-.273.639-.41.979-.41zm55.087.016c.635 0 1.116.22 1.44.658.329.433.492 1.082.492 1.948 0 .373-.04.72-.116 1.044a2.746 2.746 0 0 1-.345.847 1.675 1.675 0 0 1-.599.56 1.831 1.831 0 0 1-.872.197c-.609 0-1.088-.22-1.438-.658-.351-.444-.526-1.103-.526-1.974 0-.362.035-.7.106-1.019.077-.318.194-.595.353-.831.159-.241.362-.43.608-.567.247-.137.546-.205.897-.205z"/></svg>
