<svg xmlns="http://www.w3.org/2000/svg" width="128" height="128" viewBox="0 0 128 128">
    <path d="M11.781 70.02c.594.363 1.82.789 2.778.789.976 0 1.379-.34 1.379-.868 0-.523-.317-.78-1.528-1.187-2.144-.723-2.965-1.887-2.941-3.117 0-1.93 1.652-3.39 4.21-3.39 1.208 0 2.286.273 2.926.589l-.574 2.227c-.465-.258-1.351-.59-2.242-.59-.781 0-1.23.316-1.23.847 0 .489.406.739 1.675 1.188 1.97.68 2.801 1.672 2.82 3.203 0 1.926-1.523 3.348-4.495 3.348-1.356 0-2.559-.297-3.348-.723Zm18.606-2.477c0 3.789-2.692 5.535-5.469 5.535-3.031 0-5.36-1.996-5.36-5.344 0-3.351 2.204-5.488 5.536-5.488 3.18-.008 5.293 2.176 5.293 5.297Zm-7.496.102c0 1.777.738 3.117 2.117 3.117 1.254 0 2.055-1.254 2.055-3.117 0-1.547-.59-3.122-2.055-3.122-1.543 0-2.117 1.598-2.117 3.122Zm8.648-1.868c0-1.289-.043-2.39-.082-3.304h2.797l.148 1.418h.067c.422-.657 1.48-1.653 3.199-1.653 2.117 0 3.71 1.399 3.71 4.45v6.152h-3.222v-5.75c0-1.34-.465-2.246-1.629-2.246-.89 0-1.418.613-1.629 1.203-.082.191-.132.508-.132.808v5.977H31.55v-7.055Zm17.457 7.063-.191-1.04h-.059c-.676.829-1.738 1.27-2.96 1.27-2.102 0-3.349-1.527-3.349-3.18 0-2.695 2.418-3.992 6.083-3.968v-.149c0-.55-.301-1.34-1.887-1.34-1.055 0-2.18.36-2.86.786l-.597-2.078c.722-.407 2.144-.914 4.027-.914 3.457 0 4.555 2.035 4.555 4.472v3.61c0 .996.043 1.945.152 2.52h-2.914Zm-.375-4.899c-1.695-.023-3.008.383-3.008 1.63 0 .831.547 1.23 1.27 1.23a1.753 1.753 0 0 0 1.672-1.188c.043-.18.062-.363.066-.547Zm4.832-2.054a65.4 65.4 0 0 0-.082-3.41h2.774l.109 1.906h.082c.531-1.508 1.805-2.137 2.8-2.137a3.61 3.61 0 0 1 .68.04v3.034a4.944 4.944 0 0 0-.867-.086c-1.187 0-1.992.641-2.207 1.637-.039.238-.058.48-.058.723v5.258H53.46Zm27.61 4.152c0 1.055.027 1.996.085 2.8h-1.656l-.105-1.679h-.043c-.489.824-1.567 1.91-3.39 1.91-1.61 0-3.54-.886-3.54-4.496v-5.996h1.863v5.68c0 1.949.59 3.265 2.285 3.265 1.25 0 2.122-.87 2.461-1.695.114-.305.168-.629.168-.953v-6.297h1.86v7.461Zm2.167 2.8c.043-.698.082-1.737.082-2.651V57.78h1.844v6.453h.043c.656-1.148 1.844-1.89 3.5-1.89 2.54 0 4.344 2.12 4.32 5.238 0 3.668-2.312 5.496-4.597 5.496-1.484 0-2.668-.574-3.43-1.93h-.066l-.082 1.696Zm1.926-4.116c.008.226.04.457.086.683.36 1.29 1.438 2.18 2.793 2.18 1.953 0 3.113-1.59 3.113-3.941 0-2.06-1.054-3.817-3.046-3.817-1.274 0-2.461.863-2.844 2.285-.04.215-.106.465-.106.766v1.844Zm10.403-.672c.043 2.52 1.656 3.558 3.52 3.558 1.335 0 2.14-.234 2.839-.53l.316 1.335c-.656.3-1.78.633-3.414.633-3.156 0-5.043-2.078-5.043-5.172s1.82-5.535 4.809-5.535c3.348 0 4.238 2.95 4.238 4.84 0 .289-.023.574-.058.863Zm5.468-1.34c.024-1.188-.484-3.035-2.582-3.035-1.886 0-2.71 1.738-2.867 3.035Zm-30.82-2.29a5.535 5.535 0 0 0-7.695-1.464 5.542 5.542 0 0 0-1.465 7.695 5.529 5.529 0 0 0 6.785 1.965l2.145 3.485 1.699-1.16-2.145-3.481a5.542 5.542 0 0 0 .676-7.04m-2.398 6.329a3.875 3.875 0 0 1-2.91.602 3.882 3.882 0 0 1 1.453-7.629 3.875 3.875 0 0 1 2.48 1.632 3.895 3.895 0 0 1-1.023 5.395"/>
    <path fill="#4e9bcd" d="M115.574 72.879h-1.316c0-10.582-8.723-19.188-19.45-19.188V52.38c11.446 0 20.766 9.195 20.766 20.5Zm0 0"/>
    <path fill="#4e9bcd" d="M116.48 65.828c-1.578-6.64-6.953-12.183-13.69-14.117l.296-1.055c7.117 2.043 12.793 7.899 14.457 14.922Zm1.008-6.23c-1.62-3.543-4.39-6.633-7.793-8.7l.453-.746c3.551 2.153 6.438 5.383 8.133 9.09Zm0 0"/>
</svg>
