<?xml version="1.0" encoding="UTF-8" standalone="no"?>
<svg
   width="128"
   height="128"
   viewBox="0 0 128 128"
   version="1.1"
   id="svg2"
   sodipodi:docname="SPARQL.svg"
   inkscape:version="1.3.2 (091e20e, 2023-11-25, custom)"
   xmlns:inkscape="http://www.inkscape.org/namespaces/inkscape"
   xmlns:sodipodi="http://sodipodi.sourceforge.net/DTD/sodipodi-0.dtd"
   xmlns="http://www.w3.org/2000/svg"
   xmlns:svg="http://www.w3.org/2000/svg"
   xmlns:rdf="http://www.w3.org/1999/02/22-rdf-syntax-ns#"
   xmlns:cc="http://creativecommons.org/ns#"
   xmlns:dc="http://purl.org/dc/elements/1.1/">
  <defs
     id="defs2" />
  <sodipodi:namedview
     id="namedview2"
     pagecolor="#ffffff"
     bordercolor="#111111"
     borderopacity="1"
     inkscape:showpageshadow="0"
     inkscape:pageopacity="0"
     inkscape:pagecheckerboard="1"
     inkscape:deskcolor="#d1d1d1"
     inkscape:zoom="4.2592135"
     inkscape:cx="84.405254"
     inkscape:cy="64.683303"
     inkscape:window-width="1920"
     inkscape:window-height="1009"
     inkscape:window-x="-8"
     inkscape:window-y="-8"
     inkscape:window-maximized="1"
     inkscape:current-layer="svg2" />
  <title
     id="title1">file_type_sparql</title>
  <path
     d="m 110.86037,83.93568 c -0.75323,-0.38346 -1.63884,-0.74866 -2.3875,-1.13212 h 0.63454 c 0,0 -5.28627,-2.282498 -5.6606,-19.063423 -0.50671,-16.685061 5.0215,-19.579269 5.0215,-19.579269 a 22.642381,22.642381 0 0 0 9.93343,-9.782786 23.38191,23.38191 0 0 0 -9.68692,-31.6217288 24.386209,24.386209 0 0 0 -32.584944,9.7964818 23.130835,23.130835 0 0 0 -2.387493,14.671898 l -0.241945,-0.378895 c 0,0 1.369499,6.02123 -12.960024,14.936667 -14.219963,8.901743 -20.766167,4.391527 -20.766167,4.391527 l 0.37433,0.629969 a 9.7280067,9.7280067 0 0 0 -1.246244,-0.762354 23.359085,23.359085 0 1 0 3.766121,38.893767 l -0.114124,0.251074 c 0,0 5.15388,-4.259141 20.117937,3.775252 11.83247,6.272305 13.599124,12.54461 13.845634,14.79059 A 23.28148,23.28148 0 0 0 88.84339,125.20781 23.39104,23.39104 0 1 0 110.8695,83.93568 Z M 84.429039,87.062702 C 82.548261,87.692671 77.125045,88.432201 65.81755,82.420101 53.49206,75.782596 51.597587,70.258951 51.351077,68.629248 a 24.678369,24.678369 0 0 0 -0.260205,-6.02123 l 0.132385,0.11869 c 0,0 -1.004299,-5.391261 13.074149,-14.041928 C 76.8831,40.901461 82.67608,42.412475 83.675815,42.78224 a 12.918939,12.918939 0 0 0 2.145548,1.264503 18.634314,18.634314 0 0 0 4.400656,1.748394 c 1.766654,1.629704 4.911936,6.272305 5.286266,18.716484 0.374329,12.444179 -3.273103,17.182645 -5.286266,18.812349 a 23.00758,23.00758 0 0 0 -5.79298,3.743297 z"
     style="fill:#0c479c;stroke-width:4.565"
     id="path1" />
  <path
     d="m 82.790205,10.293162 a 17.62545,17.62545 0 0 0 -0.374329,24.587069 c -3.273103,-3.127022 -3.140718,-9.664097 0.132385,-15.804016 a 3.0722424,3.0722424 0 0 1 3.405487,-1.264504 c 0.114125,0 0.246509,0.132385 0.374329,0.132385 a 4.5330411,4.5330411 0 0 0 1.259939,0.11869 A 4.8206359,4.8206359 0 0 0 92.216922,12.9226 4.2637064,4.2637064 0 0 0 90.847423,9.7955776 C 97.147118,5.6551257 104.31416,5.1529761 107.32706,7.9147988 h 0.13238 A 17.465675,17.465675 0 0 0 82.790205,10.293162 Z M 14.360914,54.19473 a 17.61632,17.61632 0 0 0 -0.37433,24.600764 c -3.273102,-3.145282 -3.158977,-9.664097 0.114125,-15.817712 a 3.0494174,3.0494174 0 0 1 3.405487,-1.246244 c 0.114125,0 0.24651,0.132385 0.37433,0.132385 a 4.5649961,4.5649961 0 0 0 1.259938,0.11869 4.8206359,4.8206359 0 0 0 4.647167,-5.14475 4.3139213,4.3139213 0 0 0 -1.369499,-3.145283 c 6.285999,-4.140451 13.453043,-4.642601 16.479636,-1.880778 h 0.114125 A 17.584365,17.584365 0 0 0 14.360914,54.19473 Z m 72.455618,37.264063 a 17.64371,17.64371 0 0 0 -0.37433,24.600767 c -3.273102,-3.14528 -3.140717,-9.6641 0.132385,-15.81771 a 3.0494174,3.0494174 0 0 1 3.405487,-1.246253 c 0.114125,0 0.24651,0.11869 0.37433,0.11869 a 4.0491516,4.0491516 0 0 0 1.259939,0.13239 4.8252009,4.8252009 0 0 0 4.647166,-5.140186 4.2728364,4.2728364 0 0 0 -1.369499,-3.145282 c 6.2997,-4.140452 13.46674,-4.642602 16.47964,-1.880779 h 0.13238 a 17.47937,17.47937 0 0 0 -24.687498,2.378363 z"
     style="fill:#ffffff;stroke-width:4.565"
     id="path2" />
  <metadata
     id="metadata2">
    <rdf:RDF>
      <cc:Work
         rdf:about="">
        <dc:title>file_type_sparql</dc:title>
      </cc:Work>
    </rdf:RDF>
  </metadata>
</svg>
