<svg xmlns="http://www.w3.org/2000/svg" viewBox="0 0 128 128"><defs><linearGradient id="a" x1="16.181" x2="16.181" y1="28.39" y2="5.61" gradientTransform="translate(0 45.903) scale(1.06453)" gradientUnits="userSpaceOnUse"><stop stop-color="#7400E1"/><stop offset="1" stop-color="#4000BF"/></linearGradient></defs><path fill="#fff" d="M17.033 80.167c8.928 0 16.166-7.238 16.166-16.167 0-8.928-7.238-16.166-16.166-16.166C8.104 47.834.866 55.072.866 64c0 8.929 7.238 16.167 16.167 16.167z"/><path fill="#4000bf" d="M17.033 46.967C7.626 46.967 0 54.593 0 64s7.626 17.033 17.033 17.033S34.065 73.407 34.065 64 26.44 46.967 17.033 46.967zm0 1.733c8.45 0 15.3 6.85 15.3 15.3 0 8.45-6.85 15.3-15.3 15.3-8.45 0-15.3-6.85-15.3-15.3 0-8.45 6.85-15.3 15.3-15.3z"/><path fill="url(#a)" d="M17.225 51.875c6.697 0 12.125 5.429 12.125 12.125s-5.428 12.125-12.125 12.125C10.53 76.125 5.1 70.696 5.1 64c0-1.637.325-3.197.912-4.622a4.715 4.715 0 1 0 6.591-6.591 12.09 12.09 0 0 1 4.622-.912z"/><path fill="#fff" d="M50.473 56.451h-2.102v13.936h2.102zm4.934 7.73c0-1.667 1.02-2.62 2.436-2.62 1.38 0 2.218.906 2.218 2.423v6.403h2.034V63.74c0-2.586-1.422-3.94-3.558-3.94-1.572 0-2.6.728-3.083 1.838h-.13v-1.702h-1.952v10.452h2.035zm17.249-1.694c-.422-1.626-1.694-2.688-3.953-2.688-2.362 0-4.035 1.246-4.035 3.096 0 1.484.898 2.47 2.857 2.906l1.77.388c1.007.224 1.476.673 1.476 1.327 0 .81-.864 1.442-2.198 1.442-1.218 0-2-.524-2.245-1.551l-1.967.3c.34 1.85 1.878 2.891 4.226 2.891 2.524 0 4.273-1.34 4.273-3.232 0-1.477-.939-2.388-2.858-2.83l-1.66-.382c-1.15-.272-1.647-.66-1.64-1.367-.006-.803.864-1.375 2.021-1.375 1.266 0 1.85.7 2.089 1.402zm6.844 8.111c2.946 0 4.872-2.157 4.872-5.389 0-3.253-1.926-5.41-4.872-5.41-2.947 0-4.872 2.157-4.872 5.41 0 3.232 1.925 5.39 4.872 5.39zm.006-1.708c-1.926 0-2.824-1.68-2.824-3.688 0-2 .898-3.702 2.824-3.702 1.912 0 2.81 1.702 2.81 3.702 0 2.007-.898 3.688-2.81 3.688zm7.136 1.497h2.035v-6.444c0-1.408.986-2.388 2.143-2.388 1.13 0 1.912.748 1.912 1.885v6.947h2.028v-6.661c0-1.26.769-2.171 2.096-2.171 1.075 0 1.96.599 1.96 2.014v6.818h2.034V63.38c0-2.389-1.334-3.58-3.226-3.58-1.503 0-2.633.722-3.136 1.838h-.11c-.455-1.144-1.415-1.838-2.81-1.838-1.38 0-2.408.688-2.844 1.838h-.13v-1.702h-1.952zm18.97-6.205c0-1.668 1.02-2.62 2.435-2.62 1.382 0 2.219.905 2.219 2.422v6.403h2.034V63.74c0-2.586-1.422-3.94-3.559-3.94-1.572 0-2.599.728-3.082 1.838h-.13v-1.702h-1.952v10.452h2.034zm9.416 6.205h2.036V59.935h-2.036zm1.028-12.064c.701 0 1.287-.545 1.287-1.211 0-.667-.586-1.218-1.287-1.218-.707 0-1.286.55-1.286 1.218 0 .666.579 1.21 1.286 1.21zm6.786 12.296c1.729 0 2.702-.878 3.09-1.66h.081v1.428H128v-6.94c0-3.042-2.395-3.648-4.056-3.648-1.892 0-3.633.762-4.314 2.668l1.912.435c.3-.742 1.062-1.456 2.43-1.456 1.313 0 1.987.687 1.987 1.871v.048c0 .742-.762.728-2.641.946-1.98.231-4.008.748-4.008 3.123 0 2.055 1.545 3.185 3.532 3.185zm.442-1.634c-1.15 0-1.98-.517-1.98-1.524 0-1.088.966-1.476 2.144-1.633.66-.088 2.225-.265 2.517-.558v1.347c0 1.239-.986 2.368-2.681 2.368z"/></svg>
