<svg xmlns="http://www.w3.org/2000/svg" viewBox="0 0 128 128"><path fill="#fff" fill-rule="evenodd" d="M128 64c0 35.348-28.652 64-64 64S0 99.348 0 64 28.652 0 64 0s64 28.652 64 64Zm0 0"/><path fill="#5849be" fill-rule="evenodd" d="M50.375 15.066A50.743 50.743 0 0 1 64 13.215c28.031 0 50.785 22.754 50.785 50.785 0 28.031-22.754 50.785-50.785 50.785-28.031 0-50.785-22.754-50.785-50.785 0-4.719.644-9.29 1.851-13.625 4.582 6.656 12.25 11.02 20.93 11.02 14.02 0 25.399-11.38 25.399-25.395 0-8.684-4.364-16.352-11.02-20.934Zm0 0"/></svg>
