<?xml version="1.0" encoding="UTF-8"?>
<svg xmlns="http://www.w3.org/2000/svg" xmlns:xlink="http://www.w3.org/1999/xlink" width="128px" height="36px" viewBox="0 0 128 36" version="1.1">
 
<path style=" stroke:none;fill-rule:nonzero;fill:rgb(100%,100%,100%);fill-opacity:1;" d="M 16.917969 34.078125 C 25.785156 34.078125 32.976562 26.878906 32.976562 18 C 32.976562 9.121094 25.785156 1.921875 16.917969 1.921875 C 8.050781 1.921875 0.859375 9.121094 0.859375 18 C 0.859375 26.878906 8.050781 34.078125 16.917969 34.078125 Z M 16.917969 34.078125 "/>
<path style=" stroke:none;fill-rule:nonzero;fill:rgb(0%,0%,0%);fill-opacity:1;" d="M 17.109375 5.941406 C 23.761719 5.941406 29.152344 11.339844 29.152344 18 C 29.152344 24.660156 23.761719 30.058594 17.109375 30.058594 C 10.457031 30.058594 5.066406 24.660156 5.066406 18 C 5.066406 16.371094 5.386719 14.820312 5.972656 13.402344 C 6.824219 14.566406 8.199219 15.320312 9.75 15.320312 C 12.335938 15.320312 14.433594 13.21875 14.433594 10.628906 C 14.433594 9.078125 13.679688 7.699219 12.519531 6.847656 C 13.933594 6.261719 15.484375 5.941406 17.109375 5.941406 Z M 17.109375 5.941406 "/>
<path style=" stroke:none;fill-rule:nonzero;fill:rgb(0%,0%,0%);fill-opacity:1;" d="M 16.917969 1.058594 C 7.574219 1.058594 0 8.644531 0 18 C 0 27.355469 7.574219 34.941406 16.917969 34.941406 C 26.261719 34.941406 33.835938 27.355469 33.835938 18 C 33.835938 8.644531 26.261719 1.058594 16.917969 1.058594 Z M 16.917969 2.78125 C 25.3125 2.78125 32.117188 9.59375 32.117188 18 C 32.117188 26.40625 25.3125 33.21875 16.917969 33.21875 C 8.523438 33.21875 1.71875 26.40625 1.71875 18 C 1.71875 9.59375 8.523438 2.78125 16.917969 2.78125 Z M 16.917969 2.78125 "/>
<path style=" stroke:none;fill-rule:nonzero;fill:rgb(0%,0%,0%);fill-opacity:1;" d="M 50.132812 10.492188 L 48.046875 10.492188 L 48.046875 24.351562 L 50.132812 24.351562 Z M 55.035156 18.179688 C 55.035156 16.523438 56.046875 15.574219 57.453125 15.574219 C 58.824219 15.574219 59.65625 16.476562 59.65625 17.984375 L 59.65625 24.351562 L 61.679688 24.351562 L 61.679688 17.742188 C 61.679688 15.167969 60.265625 13.820312 58.144531 13.820312 C 56.582031 13.820312 55.5625 14.546875 55.082031 15.648438 L 54.953125 15.648438 L 54.953125 13.957031 L 53.011719 13.957031 L 53.011719 24.351562 L 55.035156 24.351562 Z M 72.164062 16.496094 C 71.746094 14.878906 70.480469 13.820312 68.238281 13.820312 C 65.890625 13.820312 64.230469 15.058594 64.230469 16.902344 C 64.230469 18.375 65.121094 19.359375 67.066406 19.792969 L 68.824219 20.175781 C 69.824219 20.398438 70.292969 20.847656 70.292969 21.496094 C 70.292969 22.300781 69.433594 22.933594 68.109375 22.933594 C 66.898438 22.933594 66.121094 22.410156 65.878906 21.386719 L 63.929688 21.6875 C 64.265625 23.527344 65.789062 24.5625 68.121094 24.5625 C 70.628906 24.5625 72.367188 23.230469 72.367188 21.347656 C 72.367188 19.878906 71.433594 18.972656 69.527344 18.53125 L 67.878906 18.152344 C 66.734375 17.882812 66.242188 17.496094 66.25 16.792969 C 66.242188 15.996094 67.109375 15.425781 68.257812 15.425781 C 69.515625 15.425781 70.09375 16.121094 70.332031 16.820312 Z M 78.960938 24.5625 C 81.886719 24.5625 83.800781 22.417969 83.800781 19.203125 C 83.800781 15.96875 81.886719 13.820312 78.960938 13.820312 C 76.035156 13.820312 74.121094 15.96875 74.121094 19.203125 C 74.121094 22.417969 76.035156 24.5625 78.960938 24.5625 Z M 78.96875 22.863281 C 77.054688 22.863281 76.164062 21.191406 76.164062 19.195312 C 76.164062 17.207031 77.054688 15.515625 78.96875 15.515625 C 80.867188 15.515625 81.757812 17.207031 81.757812 19.195312 C 81.757812 21.191406 80.867188 22.863281 78.96875 22.863281 Z M 86.054688 24.351562 L 88.078125 24.351562 L 88.078125 17.945312 C 88.078125 16.542969 89.058594 15.566406 90.207031 15.566406 C 91.328125 15.566406 92.105469 16.3125 92.105469 17.441406 L 92.105469 24.351562 L 94.121094 24.351562 L 94.121094 17.726562 C 94.121094 16.476562 94.882812 15.566406 96.203125 15.566406 C 97.269531 15.566406 98.148438 16.164062 98.148438 17.570312 L 98.148438 24.351562 L 100.167969 24.351562 L 100.167969 17.382812 C 100.167969 15.007812 98.84375 13.820312 96.964844 13.820312 C 95.472656 13.820312 94.347656 14.539062 93.847656 15.648438 L 93.742188 15.648438 C 93.289062 14.511719 92.335938 13.820312 90.949219 13.820312 C 89.578125 13.820312 88.558594 14.503906 88.125 15.648438 L 87.996094 15.648438 L 87.996094 13.957031 L 86.054688 13.957031 Z M 104.898438 18.179688 C 104.898438 16.523438 105.914062 15.574219 107.316406 15.574219 C 108.691406 15.574219 109.519531 16.476562 109.519531 17.984375 L 109.519531 24.351562 L 111.542969 24.351562 L 111.542969 17.742188 C 111.542969 15.167969 110.128906 13.820312 108.007812 13.820312 C 106.445312 13.820312 105.425781 14.546875 104.945312 15.648438 L 104.816406 15.648438 L 104.816406 13.957031 L 102.878906 13.957031 L 102.878906 24.351562 L 104.898438 24.351562 Z M 114.253906 24.351562 L 116.273438 24.351562 L 116.273438 13.957031 L 114.253906 13.957031 Z M 115.273438 12.351562 C 115.96875 12.351562 116.550781 11.8125 116.550781 11.148438 C 116.550781 10.484375 115.96875 9.9375 115.273438 9.9375 C 114.570312 9.9375 113.996094 10.484375 113.996094 11.148438 C 113.996094 11.8125 114.570312 12.351562 115.273438 12.351562 Z M 122.011719 24.582031 C 123.730469 24.582031 124.695312 23.710938 125.082031 22.933594 L 125.164062 22.933594 L 125.164062 24.351562 L 127.136719 24.351562 L 127.136719 17.449219 C 127.136719 14.425781 124.757812 13.820312 123.109375 13.820312 C 121.230469 13.820312 119.5 14.578125 118.824219 16.476562 L 120.722656 16.90625 C 121.019531 16.171875 121.777344 15.460938 123.136719 15.460938 C 124.441406 15.460938 125.109375 16.144531 125.109375 17.320312 L 125.109375 17.367188 C 125.109375 18.105469 124.351562 18.09375 122.484375 18.308594 C 120.519531 18.539062 118.503906 19.054688 118.503906 21.414062 C 118.503906 23.460938 120.039062 24.582031 122.011719 24.582031 Z M 122.453125 22.957031 C 121.308594 22.957031 120.484375 22.445312 120.484375 21.441406 C 120.484375 20.359375 121.445312 19.972656 122.613281 19.816406 C 123.269531 19.730469 124.824219 19.554688 125.117188 19.261719 L 125.117188 20.601562 C 125.117188 21.835938 124.136719 22.957031 122.453125 22.957031 Z M 122.453125 22.957031 "/>
 
</svg>
