<svg width="122" height="34" viewBox="0 0 122 34" fill="none" xmlns="http://www.w3.org/2000/svg">
<path d="M15.9999 32.1865C24.3872 32.1865 31.1864 25.3873 31.1864 17C31.1864 8.6128 24.3872 1.8136 15.9999 1.8136C7.61268 1.8136 0.813477 8.6128 0.813477 17C0.813477 25.3873 7.61268 32.1865 15.9999 32.1865Z" fill="white"/>
<path d="M16 1C7.16344 1 0 8.16344 0 17C0 25.8366 7.16344 33 16 33C24.8366 33 32 25.8366 32 17C32 8.16344 24.8366 1 16 1ZM16 2.62712C23.9379 2.62712 30.3729 9.06208 30.3729 17C30.3729 24.9379 23.9379 31.3729 16 31.3729C8.06208 31.3729 1.62712 24.9379 1.62712 17C1.62712 9.06208 8.06208 2.62712 16 2.62712Z" fill="#4000BF"/>
<path fill-rule="evenodd" clip-rule="evenodd" d="M16.1808 5.61023C22.4713 5.61023 27.5707 10.7096 27.5707 17.0001C27.5707 23.2905 22.4713 28.3899 16.1808 28.3899C9.89042 28.3899 4.79102 23.2905 4.79102 17.0001C4.79102 15.4627 5.09559 13.9965 5.6477 12.6585C6.45385 13.7563 7.7539 14.469 9.22039 14.469C11.6667 14.469 13.6498 12.4859 13.6498 10.0396C13.6498 8.57311 12.9371 7.27307 11.8392 6.46693C13.1773 5.91481 14.6435 5.61023 16.1808 5.61023Z" fill="url(#paint0_linear)"/>
<path d="M47.4134 9.90909H45.4382V23H47.4134V9.90909ZM52.0476 17.1705C52.0476 15.6044 53.0064 14.7095 54.3359 14.7095C55.6335 14.7095 56.4197 15.5597 56.4197 16.9851V23H58.331V16.755C58.331 14.326 56.995 13.054 54.9879 13.054C53.5114 13.054 52.5462 13.7379 52.0923 14.7798H51.9709V13.1818H50.1364V23H52.0476V17.1705ZM68.2514 15.5788C67.8551 14.0511 66.6598 13.054 64.5376 13.054C62.3196 13.054 60.7472 14.2237 60.7472 15.9624C60.7472 17.3558 61.5909 18.2827 63.4318 18.6918L65.0938 19.0561C66.0398 19.267 66.4808 19.6889 66.4808 20.3026C66.4808 21.0632 65.669 21.6577 64.4162 21.6577C63.272 21.6577 62.5369 21.1655 62.3068 20.2003L60.4595 20.4815C60.7791 22.2202 62.2237 23.1982 64.429 23.1982C66.8004 23.1982 68.4432 21.9389 68.4432 20.1619C68.4432 18.7749 67.5611 17.9183 65.7585 17.5028L64.1989 17.1449C63.1186 16.8892 62.652 16.5249 62.6584 15.8601C62.652 15.1058 63.4702 14.5689 64.5568 14.5689C65.7457 14.5689 66.2955 15.2273 66.5192 15.8857L68.2514 15.5788ZM74.6802 23.1982C77.448 23.1982 79.2569 21.1719 79.2569 18.1357C79.2569 15.0803 77.448 13.054 74.6802 13.054C71.9125 13.054 70.1035 15.0803 70.1035 18.1357C70.1035 21.1719 71.9125 23.1982 74.6802 23.1982ZM74.6866 21.5938C72.8777 21.5938 72.0339 20.0149 72.0339 18.1293C72.0339 16.25 72.8777 14.652 74.6866 14.652C76.4828 14.652 77.3265 16.25 77.3265 18.1293C77.3265 20.0149 76.4828 21.5938 74.6866 21.5938ZM81.3903 23H83.3015V16.9467C83.3015 15.6236 84.2283 14.7031 85.315 14.7031C86.3761 14.7031 87.1112 15.4062 87.1112 16.4737V23H89.016V16.7422C89.016 15.5597 89.7383 14.7031 90.9847 14.7031C91.9947 14.7031 92.8256 15.2656 92.8256 16.5952V23H94.7369V16.4162C94.7369 14.1726 93.484 13.054 91.707 13.054C90.2944 13.054 89.2333 13.7315 88.7603 14.7798H88.658C88.2298 13.706 87.3285 13.054 86.0181 13.054C84.7205 13.054 83.7553 13.6996 83.3462 14.7798H83.2248V13.1818H81.3903V23ZM99.2097 17.1705C99.2097 15.6044 100.169 14.7095 101.498 14.7095C102.796 14.7095 103.582 15.5597 103.582 16.9851V23H105.493V16.755C105.493 14.326 104.157 13.054 102.15 13.054C100.673 13.054 99.7083 13.7379 99.2544 14.7798H99.133V13.1818H97.2985V23H99.2097V17.1705ZM108.056 23H109.968V13.1818H108.056V23ZM109.021 11.6669C109.68 11.6669 110.23 11.1555 110.23 10.5291C110.23 9.9027 109.68 9.38494 109.021 9.38494C108.357 9.38494 107.813 9.9027 107.813 10.5291C107.813 11.1555 108.357 11.6669 109.021 11.6669ZM115.396 23.2173C117.02 23.2173 117.934 22.3928 118.298 21.6577H118.375V23H120.241V16.4801C120.241 13.6229 117.991 13.054 116.431 13.054C114.654 13.054 113.018 13.7699 112.379 15.5597L114.175 15.9688C114.456 15.272 115.172 14.6009 116.457 14.6009C117.691 14.6009 118.324 15.2464 118.324 16.3587V16.4034C118.324 17.1001 117.608 17.0874 115.843 17.2919C113.983 17.5092 112.078 17.995 112.078 20.2259C112.078 22.1562 113.529 23.2173 115.396 23.2173ZM115.811 21.6832C114.731 21.6832 113.951 21.1974 113.951 20.2514C113.951 19.2287 114.859 18.8643 115.965 18.7173C116.585 18.6342 118.055 18.468 118.33 18.1932V19.4588C118.33 20.6222 117.403 21.6832 115.811 21.6832Z" fill="white"/>
<defs>
<linearGradient id="paint0_linear" x1="16.1808" y1="28.3899" x2="16.1808" y2="5.61023" gradientUnits="userSpaceOnUse">
<stop stop-color="#7400E1"/>
<stop offset="1" stop-color="#4000BF"/>
</linearGradient>
</defs>
</svg>
