<?xml version="1.0" standalone="no"?>
<!DOCTYPE svg PUBLIC "-//W3C//DTD SVG 20010904//EN"
 "http://www.w3.org/TR/2001/REC-SVG-20010904/DTD/svg10.dtd">
<svg version="1.0" xmlns="http://www.w3.org/2000/svg"
 width="300.000000pt" height="300.000000pt" viewBox="0 0 300.000000 300.000000"
 preserveAspectRatio="xMidYMid meet">

<g transform="translate(0.000000,300.000000) scale(0.100000,-0.100000)"
fill="#000000" stroke="none">
<path d="M1321 2990 c-493 -62 -924 -362 -1150 -800 -68 -132 -110 -249 -142
-400 -32 -151 -32 -429 0 -580 98 -459 376 -830 781 -1039 132 -68 249 -110
400 -142 151 -32 429 -32 580 0 151 32 268 74 400 142 405 209 683 580 781
1039 32 151 32 429 0 580 -98 459 -376 830 -781 1039 -212 110 -409 160 -650
166 -80 2 -178 0 -219 -5z m441 -171 c263 -52 496 -177 688 -369 193 -193 314
-419 371 -693 30 -143 30 -371 0 -514 -57 -273 -178 -500 -371 -693 -190 -191
-421 -314 -693 -371 -143 -30 -371 -30 -514 0 -272 57 -503 180 -693 371 -193
193 -314 420 -371 693 -30 143 -30 371 0 514 57 274 178 500 371 693 320 321
769 457 1212 369z"/>
<path d="M1383 2559 c-73 -9 -170 -33 -231 -56 l-44 -16 33 -25 c47 -37 104
-132 124 -207 40 -145 -8 -300 -125 -408 -86 -80 -147 -102 -280 -102 -92 1
-112 4 -163 27 -31 15 -82 50 -112 79 -30 29 -57 50 -59 48 -3 -3 -16 -43 -30
-90 -78 -270 -55 -536 68 -784 164 -331 466 -540 845 -586 296 -36 614 73 842
288 123 116 214 257 272 420 76 210 77 484 3 699 -161 474 -648 778 -1143 713z"/>
</g>
</svg>
