<?xml version="1.0" standalone="no"?>
<!DOCTYPE svg PUBLIC "-//W3C//DTD SVG 20010904//EN"
 "http://www.w3.org/TR/2001/REC-SVG-20010904/DTD/svg10.dtd">
<svg version="1.0" xmlns="http://www.w3.org/2000/svg"
 width="500.000000pt" height="146.000000pt" viewBox="0 0 500.000000 146.000000"
 preserveAspectRatio="xMidYMid meet">

<g transform="translate(0.000000,146.000000) scale(0.100000,-0.100000)"
fill="#000000" stroke="none">
<path d="M0 730 l0 -730 2500 0 2500 0 0 730 0 730 -2500 0 -2500 0 0 -730z
m866 516 c114 -30 228 -115 296 -220 211 -327 -31 -766 -422 -766 -222 0 -429
159 -486 374 -18 66 -18 186 0 252 42 159 197 316 355 360 62 17 194 17 257 0z
m3412 -235 c32 -20 16 -81 -21 -81 -44 0 -62 43 -31 74 17 18 32 20 52 7z
m-2508 -271 l0 -260 -35 0 -35 0 0 260 0 260 35 0 35 0 0 -260z m387 123 c54
-25 63 -58 63 -233 l0 -150 -35 0 -35 0 0 145 c0 142 -1 147 -25 170 -41 42
-122 29 -150 -24 -11 -23 -15 -62 -15 -161 l0 -130 -35 0 -35 0 0 195 0 195
30 0 c23 0 30 -4 30 -20 0 -18 2 -18 36 5 44 30 118 34 171 8z m386 6 c39 -11
45 -24 24 -53 -11 -16 -18 -17 -53 -7 -57 16 -99 13 -125 -7 -35 -29 -18 -48
83 -96 70 -32 96 -50 106 -70 28 -62 2 -126 -60 -151 -45 -18 -132 -20 -177
-4 -27 9 -31 16 -31 46 0 30 3 34 18 28 74 -32 163 -29 186 8 18 28 -3 49 -98
94 -74 37 -89 48 -102 79 -43 103 80 175 229 133z m395 -18 c51 -36 76 -94 77
-176 0 -56 -5 -79 -25 -115 -58 -105 -216 -122 -292 -32 -37 44 -51 94 -46
166 8 126 76 191 193 184 43 -3 70 -10 93 -27z m430 9 c17 -11 32 -25 32 -32
0 -6 10 -2 23 9 35 33 62 43 112 43 110 0 135 -48 135 -255 l0 -145 -34 0 -35
0 -3 151 c-3 145 -4 152 -27 170 -48 39 -123 13 -140 -49 -6 -20 -11 -90 -11
-154 l0 -118 -34 0 -35 0 -3 155 c-3 140 -5 156 -23 169 -30 23 -80 20 -112
-8 -28 -24 -28 -24 -31 -170 l-3 -146 -35 0 -34 0 0 195 0 195 30 0 c24 0 30
-4 30 -22 l0 -21 23 20 c29 27 43 31 97 32 28 1 57 -6 78 -19z m679 3 c54 -25
63 -58 63 -233 l0 -150 -35 0 -35 0 0 145 c0 142 -1 147 -25 170 -41 42 -122
29 -150 -24 -11 -23 -15 -62 -15 -161 l0 -130 -35 0 -35 0 0 195 0 195 30 0
c23 0 30 -4 30 -20 0 -18 2 -18 36 5 44 30 118 34 171 8z m613 -20 c33 -37 43
-102 38 -258 l-3 -100 -28 -3 c-22 -3 -30 1 -34 17 -5 20 -5 20 -34 -1 -42
-31 -133 -36 -175 -9 -62 38 -69 138 -14 185 31 26 105 46 170 46 39 0 40 1
40 34 0 62 -55 81 -141 51 -34 -12 -44 -13 -51 -3 -30 47 29 79 136 75 62 -3
71 -5 96 -34z m-370 -168 l0 -195 -35 0 -35 0 0 195 0 195 35 0 35 0 0 -195z"/>
<path d="M673 1174 c-8 -4 -4 -22 14 -60 52 -114 13 -244 -91 -309 -44 -26
-58 -30 -125 -30 -53 0 -86 5 -110 18 -19 9 -36 17 -39 17 -3 0 -2 -34 1 -76
11 -153 99 -279 242 -350 75 -37 84 -39 175 -39 91 0 100 2 175 39 99 49 152
102 201 201 37 75 39 84 39 175 0 91 -2 100 -38 172 -47 95 -109 158 -203 204
-59 30 -85 36 -150 40 -44 2 -84 1 -91 -2z"/>
<path d="M2774 802 c-53 -34 -67 -147 -28 -223 32 -63 129 -62 172 1 21 30 23
44 20 107 -3 62 -7 77 -29 99 -35 35 -94 42 -135 16z"/>
<path d="M4570 662 c-90 -5 -120 -23 -120 -71 0 -58 66 -79 127 -41 33 20 47
50 41 91 -3 22 -7 24 -48 21z"/>
</g>
</svg>
