<?xml version="1.0" encoding="UTF-8"?>
<svg xmlns="http://www.w3.org/2000/svg" xmlns:xlink="http://www.w3.org/1999/xlink" width="128px" height="36px" viewBox="0 0 129 36" version="1.1">
<defs>
<linearGradient id="linear0" gradientUnits="userSpaceOnUse" x1="16.1808" y1="28.3899" x2="16.1808" y2="5.61023" gradientTransform="matrix(1.057377,0,0,1.058824,0,0)">
<stop offset="0" style="stop-color:rgb(45.490196%,0%,88.235294%);stop-opacity:1;"/>
<stop offset="1" style="stop-color:rgb(25.098039%,0%,74.901961%);stop-opacity:1;"/>
</linearGradient>
</defs>
<g id="surface1">
<path style=" stroke:none;fill-rule:nonzero;fill:rgb(100%,100%,100%);fill-opacity:1;" d="M 16.917969 34.078125 C 25.785156 34.078125 32.976562 26.878906 32.976562 18 C 32.976562 9.121094 25.785156 1.921875 16.917969 1.921875 C 8.050781 1.921875 0.859375 9.121094 0.859375 18 C 0.859375 26.878906 8.050781 34.078125 16.917969 34.078125 Z M 16.917969 34.078125 "/>
<path style=" stroke:none;fill-rule:nonzero;fill:rgb(25.098039%,0%,74.901961%);fill-opacity:1;" d="M 16.917969 1.058594 C 7.574219 1.058594 0 8.644531 0 18 C 0 27.355469 7.574219 34.941406 16.917969 34.941406 C 26.261719 34.941406 33.835938 27.355469 33.835938 18 C 33.835938 8.644531 26.261719 1.058594 16.917969 1.058594 Z M 16.917969 2.78125 C 25.3125 2.78125 32.117188 9.59375 32.117188 18 C 32.117188 26.40625 25.3125 33.21875 16.917969 33.21875 C 8.523438 33.21875 1.71875 26.40625 1.71875 18 C 1.71875 9.59375 8.523438 2.78125 16.917969 2.78125 Z M 16.917969 2.78125 "/>
<path style=" stroke:none;fill-rule:evenodd;fill:url(#linear0);" d="M 17.109375 5.941406 C 23.761719 5.941406 29.152344 11.339844 29.152344 18 C 29.152344 24.660156 23.761719 30.058594 17.109375 30.058594 C 10.457031 30.058594 5.066406 24.660156 5.066406 18 C 5.066406 16.371094 5.386719 14.820312 5.972656 13.402344 C 6.824219 14.566406 8.199219 15.320312 9.75 15.320312 C 12.335938 15.320312 14.433594 13.21875 14.433594 10.628906 C 14.433594 9.078125 13.679688 7.699219 12.519531 6.847656 C 13.933594 6.261719 15.484375 5.941406 17.109375 5.941406 Z M 17.109375 5.941406 "/>
<path style=" stroke:none;fill-rule:nonzero;fill:rgb(100%,100%,100%);fill-opacity:1;" d="M 50.132812 10.492188 L 48.046875 10.492188 L 48.046875 24.351562 L 50.132812 24.351562 Z M 55.035156 18.179688 C 55.035156 16.523438 56.046875 15.574219 57.453125 15.574219 C 58.824219 15.574219 59.65625 16.476562 59.65625 17.984375 L 59.65625 24.351562 L 61.679688 24.351562 L 61.679688 17.742188 C 61.679688 15.167969 60.265625 13.820312 58.144531 13.820312 C 56.582031 13.820312 55.5625 14.546875 55.082031 15.648438 L 54.953125 15.648438 L 54.953125 13.957031 L 53.011719 13.957031 L 53.011719 24.351562 L 55.035156 24.351562 Z M 72.167969 16.496094 C 71.75 14.878906 70.484375 13.820312 68.242188 13.820312 C 65.894531 13.820312 64.234375 15.058594 64.234375 16.902344 C 64.234375 18.375 65.125 19.359375 67.070312 19.792969 L 68.828125 20.175781 C 69.828125 20.398438 70.296875 20.847656 70.296875 21.496094 C 70.296875 22.300781 69.4375 22.933594 68.113281 22.933594 C 66.902344 22.933594 66.125 22.410156 65.882812 21.386719 L 63.929688 21.6875 C 64.265625 23.527344 65.792969 24.5625 68.125 24.5625 C 70.632812 24.5625 72.371094 23.230469 72.371094 21.347656 C 72.371094 19.878906 71.4375 18.972656 69.53125 18.53125 L 67.882812 18.152344 C 66.738281 17.882812 66.246094 17.496094 66.253906 16.792969 C 66.246094 15.996094 67.113281 15.425781 68.261719 15.425781 C 69.519531 15.425781 70.097656 16.121094 70.335938 16.820312 Z M 78.964844 24.5625 C 81.890625 24.5625 83.804688 22.417969 83.804688 19.203125 C 83.804688 15.96875 81.890625 13.820312 78.964844 13.820312 C 76.039062 13.820312 74.125 15.96875 74.125 19.203125 C 74.125 22.417969 76.039062 24.5625 78.964844 24.5625 Z M 78.972656 22.863281 C 77.058594 22.863281 76.167969 21.191406 76.167969 19.195312 C 76.167969 17.207031 77.058594 15.515625 78.972656 15.515625 C 80.871094 15.515625 81.761719 17.207031 81.761719 19.195312 C 81.761719 21.191406 80.871094 22.863281 78.972656 22.863281 Z M 86.058594 24.351562 L 88.082031 24.351562 L 88.082031 17.945312 C 88.082031 16.542969 89.0625 15.566406 90.210938 15.566406 C 91.332031 15.566406 92.109375 16.3125 92.109375 17.441406 L 92.109375 24.351562 L 94.125 24.351562 L 94.125 17.726562 C 94.125 16.476562 94.886719 15.566406 96.207031 15.566406 C 97.273438 15.566406 98.152344 16.164062 98.152344 17.570312 L 98.152344 24.351562 L 100.171875 24.351562 L 100.171875 17.382812 C 100.171875 15.007812 98.847656 13.820312 96.96875 13.820312 C 95.476562 13.820312 94.351562 14.539062 93.851562 15.648438 L 93.746094 15.648438 C 93.292969 14.511719 92.339844 13.820312 90.953125 13.820312 C 89.582031 13.820312 88.5625 14.503906 88.128906 15.648438 L 88 15.648438 L 88 13.957031 L 86.058594 13.957031 Z M 104.902344 18.179688 C 104.902344 16.523438 105.917969 15.574219 107.320312 15.574219 C 108.695312 15.574219 109.523438 16.476562 109.523438 17.984375 L 109.523438 24.351562 L 111.546875 24.351562 L 111.546875 17.742188 C 111.546875 15.167969 110.132812 13.820312 108.011719 13.820312 C 106.449219 13.820312 105.429688 14.546875 104.949219 15.648438 L 104.820312 15.648438 L 104.820312 13.957031 L 102.882812 13.957031 L 102.882812 24.351562 L 104.902344 24.351562 Z M 114.257812 24.351562 L 116.277344 24.351562 L 116.277344 13.957031 L 114.257812 13.957031 Z M 115.277344 12.351562 C 115.972656 12.351562 116.554688 11.8125 116.554688 11.148438 C 116.554688 10.484375 115.972656 9.9375 115.277344 9.9375 C 114.574219 9.9375 114 10.484375 114 11.148438 C 114 11.8125 114.574219 12.351562 115.277344 12.351562 Z M 122.015625 24.582031 C 123.734375 24.582031 124.699219 23.710938 125.085938 22.933594 L 125.167969 22.933594 L 125.167969 24.351562 L 127.140625 24.351562 L 127.140625 17.449219 C 127.140625 14.425781 124.761719 13.820312 123.113281 13.820312 C 121.234375 13.820312 119.503906 14.578125 118.828125 16.476562 L 120.726562 16.90625 C 121.023438 16.171875 121.78125 15.460938 123.140625 15.460938 C 124.445312 15.460938 125.113281 16.144531 125.113281 17.320312 L 125.113281 17.367188 C 125.113281 18.105469 124.355469 18.09375 122.488281 18.308594 C 120.523438 18.539062 118.507812 19.054688 118.507812 21.414062 C 118.507812 23.460938 120.042969 24.582031 122.015625 24.582031 Z M 122.457031 22.957031 C 121.3125 22.957031 120.488281 22.445312 120.488281 21.441406 C 120.488281 20.359375 121.449219 19.972656 122.617188 19.816406 C 123.273438 19.730469 124.828125 19.554688 125.121094 19.261719 L 125.121094 20.601562 C 125.121094 21.835938 124.140625 22.957031 122.457031 22.957031 Z M 122.457031 22.957031 "/>
</g>
</svg>
