<svg xmlns="http://www.w3.org/2000/svg" viewBox="0 0 128 128"> <path fill="#2c8ebb" d="M64 0a64 64 0 1 0 64 64A64 64 0 0 0 64 0Zm4.685 21.948a5.037 5.037 0 0 1 2.21.802c.671.444 1.528 1.032 4.026 6.194a4.841 4.841 0 0 1 2.942-.103 3.933 3.933 0 0 1 2.468 2.004c2.55 4.893 2.889 13.614 1.774 19.22a34.89 34.89 0 0 1-6.028 13.74 26.56 26.56 0 0 1 5.957 9.733 26.24 26.24 0 0 1 1.456 10.746 29.626 29.626 0 0 0 3.22-1.796c3.158-1.951 7.927-4.894 13.615-4.966a6.834 6.834 0 0 1 7.225 5.885 6.555 6.555 0 0 1-5.046 7.256c-3.458.836-5.069 1.486-9.714 4.5a69.161 69.161 0 0 1-16.062 7.412 8.991 8.991 0 0 1-3.758 1.828c-3.933.96-17.425 1.682-18.488 1.682h-.248c-4.13 0-6.47-1.28-7.73-2.621-3.51 1.755-8.052 1.03-11.355-.714a5.729 5.729 0 0 1-3.097-4.024 6.194 6.194 0 0 1 0-2.127 6.875 6.875 0 0 1-.816-1.032 16.908 16.908 0 0 1-2.333-10.386c.3-3.85 2.964-7.287 4.698-9.114A29.481 29.481 0 0 1 35.726 64a27.685 27.685 0 0 1 7.04-9.29c-1.703-2.87-3.436-7.288-1.754-11.789 1.208-3.21 2.199-4.996 4.377-5.76a7.06 7.06 0 0 0 2.59-1.383 18.22 18.22 0 0 1 12.243-5.843c.196-.495.423-1.033.671-1.508 1.652-3.51 3.406-5.48 5.46-6.193a5.037 5.037 0 0 1 2.332-.286zm-.558 3.697c-2.703.089-5.355 8.099-5.355 8.099a14.452 14.452 0 0 0-12.089 4.645 9.951 9.951 0 0 1-3.973 2.345c-.424.144-.94.122-2.22 3.58-1.961 5.234 3.345 11.16 3.345 11.16s-6.328 4.47-8.672 10.034a25.58 25.58 0 0 0-1.806 12.057s-4.5 3.901-4.788 7.927a13.285 13.285 0 0 0 1.826 8.083 2.003 2.003 0 0 0 2.714.94s-2.993 3.487-.196 4.963c2.55 1.331 6.844 2.065 9.115-.196 1.652-1.651 1.982-5.335 2.591-6.842.144-.351.64.588 1.115 1.032a10.323 10.323 0 0 0 1.403 1.032s-4.024 1.734-2.373 5.688c.547 1.31 2.498 2.145 5.688 2.125 1.187 0 14.203-.743 17.671-1.58a4.47 4.47 0 0 0 2.696-1.505 65.032 65.032 0 0 0 15.99-7.226c4.892-3.19 6.895-4.059 10.848-4.998 3.262-.774 3.045-5.83-1.28-5.758-4.48.052-8.402 2.363-11.716 4.427-6.193 3.83-9.29 3.583-9.29 3.583l-.105-.175c-.423-.692 1.983-6.896-.712-14.287-2.91-8.082-7.534-10.033-7.163-10.653 1.58-2.673 5.534-6.917 7.113-14.824.94-4.79.691-12.676-1.435-16.805-.393-.764-3.902 1.28-3.902 1.28s-3.283-7.319-4.201-7.907a1.442 1.442 0 0 0-.839-.244z" /> </svg>
