<svg xmlns="http://www.w3.org/2000/svg" viewBox="0 0 128 128"><g fill-rule="evenodd"><path fill="#d10" d="M89.2,51.4l10.3-11.5l-15.1-3.3l1.5-15.3l-14.1,6.2L64,14.1l-7.8,13.3l-14.1-6.2l1.5,15.3l-15.1,3.3l10.3,11.5L28.6,62.9l15.1,3.3l-1.5,15.3l14.1-6.2L64,88.6l7.8-13.3l14.1,6.2l-1.5-15.3l15.1-3.3L89.2,51.4z M94.1,60l-8.9-3l-5.9-7.7l7.8,2.9L94.1,60z M70.3,73.7L65,82.8v-9.6l5.5-8.1L70.3,73.7z M61,36l-9.1-3.3l-5.5-7.4l9.6,4.2L61,36z M72,29.6l9.6-4.2l-5.5,7.4L67,36L72,29.6z M82.3,37l-4.8,6.8l0.3-9.8l5.6-7.5L82.3,37z M64,71l-6.4-9.3L64,53l6.4,8.7L64,71z M52.6,46.4l-0.3-11.3L63,38.8v11L52.6,46.4z M65,38.8l10.7-3.8l-0.3,11.3L65,49.9L65,38.8z M45.7,37l-1.1-10.6l5.5,7.5l0.3,9.8L45.7,37z M62.3,51.8l-6.4,8.7l-10.9-3.2l6.9-9L62.3,51.8z M57.5,65.1l5.5,8.1v9.7l-5.3-9.1L57.5,65.1z M65.7,51.8L76,48.3l6.9,9L72,60.5L65.7,51.8z M95.6,41.1l-8.1,9.1L78,46.6l5.7-8.1L95.6,41.1z M64,18.2l6.1,10.5L64,36.5l-6.1-7.8L64,18.2z M32.4,41.1l11.9-2.6l5.7,8.1l-9.5,3.5L32.4,41.1z M40.8,52.2l7.8-2.9L42.7,57l-8.9,3L40.8,52.2z M34.3,62l9.1-3.1l9.5,2.8l-8.2,2.6L34.3,62z M45.7,66.1l9.7-3.1l0.2,10.3l-11.1,4.9L45.7,66.1z M72.4,73.3l0.3-10.3l9.7,3.1l1.2,12.1L72.4,73.3z M83.3,64.3l-8.2-2.6l9.5-2.8l9.1,3.1L83.3,64.3z"/><path fill="#333" d="M0,96.4h4.4l2.1,11.5l3.1-11.5h3.9l3.6,11.7l2.1-11.7h4.2l-3.6,17.2H15l-3.2-10.7l-3.3,10.7H3.4L0,96.4zM128,113.6h-4.4l-2.1-11.5l-3.1,11.5h-3.9l-3.6-11.7l-2.1,11.7h-4.2l3.6-17.2h4.8l3.2,10.7l3.3-10.7h5.1L128,113.6z M32.6,96.1c5.6,0,8.5,3.4,8.5,8.9c0,5.5-3,8.9-8.5,8.9c-5.5,0-8.5-3.4-8.5-8.9C24.1,99.5,27,96.1,32.6,96.1L32.6,96.1z M32.6,110.5c2.7,0,3.8-2.7,3.8-5.5c0-3-1.1-5.5-3.8-5.5s-3.8,2.5-3.8,5.5C28.8,107.8,29.9,110.5,32.6,110.5L32.6,110.5z M43.6,96.4h4.5v13.8h7v3.4H43.6V96.4z M57,96.4h11.3v3.2h-6.8v3.8H68v3.2h-6.5v6.9H57V96.4z M70.7,96.4h8.1c3,0,5.5,1.4,5.5,4.3c0,2.3-1.1,3.8-3.3,4.3v0.1c1.5,0.4,1.6,1.7,2.4,3.8l1.6,4.7h-4.7l-1-3.1c-0.9-2.9-1.5-3.7-3.2-3.7h-0.9v6.8h-4.5V96.4z M75.2,103.6h1.2c1.5,0,3.3,0,3.3-2c0-1.6-1.6-1.9-3.3-1.9h-1.2L75.2,103.6z M91.9,96.4h5.5l6.5,17.1h-5l-1.3-3.7h-6.4l-1.3,3.7h-4.6L91.9,96.4zM94.6,100L94.6,100l-2.2,6.7h4.2L94.6,100z"/></g></svg>
