<svg xmlns="http://www.w3.org/2000/svg" viewBox="0 0 128 128"><path d="M84.094 7.713a18.176 18.176 0 0 0-1.606.057L57.824 9.594l-25.789 1.902-16.187 1.262c-3.27.3-5.297 2.3-5.883 5.508a14.19 14.19 0 0 0-.207 2.48L9.69 86.988c-.023 4.34 1.305 7.95 3.903 11.27l12.293 15.86c.59.757 1.183 1.413 1.648 2.148 2.254 3.527 5.485 4.808 9.59 4.535l27.809-1.656 31.296-1.891c5.196-.316 10.396-.586 15.582-1.004 4.618-.371 6.848-2.867 6.938-7.496v-1l.035-75.867c.004-2.285-.785-3.883-2.613-5.16-7.364-5.137-14.762-10.235-22.024-15.52-3.1-2.256-6.368-3.46-10.054-3.494zm-.899 6.392c2.188-.12 4.313.231 6.27 1.293a697.555 697.555 0 0 1 7.722 5.364 233.798 233.798 0 0 1 4.958 3.562c.464.344.82.832 1.433 1.469-.67.125-.976.22-1.281.234l-33.41 2.004-31.035 1.946c-3.942.285-7.383-.364-10.34-3.172-1.56-1.481-3.368-2.703-5.067-4.043-.716-.567-1.472-1.095-2.129-1.723-.355-.34-.84-.961-.73-1.27.148-.437.754-.921 1.234-1.007 1.43-.26 2.887-.364 4.336-.469l47.95-3.484c3.363-.243 6.726-.52 10.09-.704zm24.207 19.418c2.55-.136 3.653.911 3.82 3.477.024.375.012.75.012 1.125l-.004 64.477c0 .5.016 1.003-.035 1.5-.26 2.765-1.55 3.988-4.34 4.144l-44.765 2.559-23.442 1.382a18.32 18.32 0 0 1-2.12.028c-2.8-.16-4.173-1.555-4.227-4.356l-.008-6.246V68.125l.004-25.742a10.64 10.64 0 0 1 .098-1.617c.312-2.02 1.246-2.911 3.312-3.043l16.207-.973a43791.29 43791.29 0 0 1 32.418-1.898l23.07-1.329zm-7.297 12.075-15.55.945c-1.69.121-2.973 1.535-3.23 3.18-.126.793.038 1.23.987 1.285l4.708.52v30.179l-8.907-13.566-12.922-19.68c-.448-.684-.89-.91-1.718-.82-1.821.199-3.657.246-5.485.37-3.363.235-6.734.426-10.09.739-2.48.227-3.98 2.559-3.293 4.977l5.344.457v43.293l-3.64 1.027c-1.614.476-2.305 1.836-1.762 3.574l12.308-.707c1.618-.098 3.254-.137 4.848-.398 2.09-.345 3.215-1.625 3.496-3.715l-6.73-1.535V63.16c.266.367.39.527.5.7l15.468 24.152a366.671 366.671 0 0 0 7.004 10.46c1.706 2.45 4.223 3.197 7.051 2.59l5.203-1.656c.903-.293 1.211-.832 1.207-1.844l-.03-44.5c0-2.604 0-2.605 2.573-3.12 2.602-.524 3.254-1.564 2.66-4.344z"/></svg>
