<svg xmlns="http://www.w3.org/2000/svg" version="1.1" viewBox="0 0 128 128"><path d="m21.005 32.694c0.17405 0.13136 0.47617 0.21674 0.17405 0.47617-0.21674 0.30212-0.47617 0.56156-0.64858 0.90802-0.17241 0.30376-0.30212 0.38915-0.56156 0.17405 0.34482-0.5632 0.68963-1.0837 1.0344-1.5599zm86.852 45.347c0 0.12807 0.0427 0.21346 0.0427 0.34481 0.087-0.17241 0.087-0.25943 0.13136-0.34481zm0 0.38751v-0.04269zm-8.8141 16.875-7.5203-41.71c-0.12807-0.04105-0.30048-0.12643-0.60425-0.21346 0.08702 0.17241 0.13136 0.30212 0.17405 0.43184 0.21346-0.04269 0.30212-0.04269 0.38751-0.08538 0-0.04269 0-0.08538 0.04434-0.13136l7.5203 41.713zm-7.7781-51.098c-0.04269 0.12807-0.04269 0.25943-0.04269 0.38915 0-0.13136 0-0.26272 0.04597-0.39079zm0.0427 0.86368c-0.0427 0-0.0427 0-0.08538-0.04597v0.0427c0.04597 0.0427 0.04597 0.0427 0.08867 0zm-0.08538 0.34482v-0.30377c-0.12643 0.0427-0.25615 0.0427-0.4302 0.08702 0.21674 0.0821 0.43348 0.12807 0.43348 0.21346z" fill="#dd3735" stroke-width="1.642"/><path d="m127.73 55.678c-0.0854-1.688-0.12806-3.3759-0.30211-5.0622-0.30212-2.2938-0.60425-4.6304-1.1231-6.8799-0.38916-1.8604-1.0344-3.6353-1.6847-5.4087-0.82099-2.0771-1.642-4.1969-2.6797-6.187-1.6847-3.2019-3.8882-6.0589-5.9193-9.044-1.3431-1.9047-3.0705-3.4613-4.3677-5.4087-0.73396-1.1248-1.8144-2.0755-2.8948-2.9391-1.729-1.3875-3.5434-2.6436-5.3578-3.8537-1.3825-0.95235-2.7651-1.8604-4.2363-2.683-1.1658-0.65187-2.4186-1.1707-3.6288-1.7339-1.3825-0.64858-2.7224-1.4285-4.2774-1.7306-0.39079-0.082099-0.73561-0.21346-1.1248-0.34482-0.9934-0.34482-1.9441-0.73396-2.9391-1.0377-1.5106-0.47617-2.9802-1.0377-4.5368-1.4285-1.5073-0.38915-3.0639-0.64694-4.6205-0.86532-1.7274-0.25451-3.4974-0.34482-5.2281-0.51394-1.1231-0.13136-2.2462-0.25943-3.3266-0.30212-1.642-0.085383-3.3266-0.085383-4.9686-0.12807-0.82099-0.044333-1.6847-0.13136-2.5057-0.087025-1.2528 0.042691-2.5057 0.17241-3.7601 0.34482-1.2085 0.13136-2.4186 0.34482-3.5844 0.52051-1.4236 0.17241-2.8488 0.25943-4.2757 0.43348-1.3399 0.17405-2.7224 0.43348-4.0606 0.65022-0.47617 0.087025-0.95235 0.25943-1.4285 0.34482-1.0344 0.21674-2.1149 0.30377-3.1526 0.65022-1.8554 0.56484-3.7158 1.2151-5.5302 1.9047-1.6863 0.69291-3.3283 1.4285-4.9259 2.2938-1.642 0.90637-3.1986 1.9868-4.7535 3.0278-1.4712 0.99504-2.9391 2.0328-4.3677 3.1575-1.3793 1.0837-2.6764 2.2938-3.9309 3.5056-0.68963 0.68963-1.2528 1.5139-1.9014 2.2922-1.0788 1.2561-2.1592 2.4662-3.1969 3.7651-0.8604 1.0837-1.642 2.2068-2.463 3.3332-1.4663 1.9868-2.7191 4.1082-3.8849 6.2297-0.47617 0.86532-0.90801 1.7306-1.3399 2.5943-0.64858 1.2972-1.3399 2.5533-1.9441 3.8948-0.43348 0.90965-0.7783 1.9047-1.0377 2.8997-0.60261 2.1214-1.2085 4.2856-1.7701 6.4037-0.51887 1.9047-0.64858 3.8948-0.68963 5.8422-0.044333 1.7306 0.12807 3.4186 0.30048 5.1492 0.044333 0.43348-0.21346 0.95235 0.30212 1.2972-0.17241 0.47617-0.04269 0.73889 0.21346 0.82099-0.29884 0.47617 0.13136 0.78158-0.039408 1.2151-0.044333 0.08538 0.13136 0.25779 0.21346 0.38751 0 0.13136-0.041049 0.30377 0 0.43348 0.045976 0.38915 0.21838 0.7783 0.21838 1.2118 0 0.30212 0.25779 0.64858 0.34482 0.95235 0.04269 0.12807 0 0.34482-0.087025 0.43184-0.25943 0.30212-0.21674 0.56156 0.17241 0.73561 0.21838 0.56156 0.13136 0.82099 0.088668 1.0837 0.085384 0.38751-0.044334 0.51722 0 0.60425 0.34482 0.69292 0.47617 1.4712 0.51722 2.2495 0 0.17405 0.087025 0.3481 0.17405 0.5632 0.042691 0 0 0.82099 0 0.82099 0.21346-0.12807 0.38915-0.17077 0.60425-0.25779 0.13136 0.56156 0.25943 1.0837 0.43184 1.5599 0.21674 0.34482 0.21674 0.51558 0.13136 0.55827 0.17241 0.7783 0.25779 1.5139 0.55827 2.2495 0-0.82099-0.082098-1.642-0.21346-2.4219 0.60425 0.21674 1.1231 0.43184 1.4696 0.43184 0.044334-0.13136 0.087025-0.30212 0.13136-0.38915-0.25943-0.25779-0.47617-0.64694-0.73561-0.90637 0.087025 0.34482 0 0.47617 0 0.60753-0.17241-0.08867-0.38915-0.17569-0.60425-0.26272 0.17241-0.21346 0.34482-0.43184 0.60425-0.68963 0-0.39079-0.21346-0.73889-0.82099-0.69456 0.25943-0.08538 0.51887-0.21346 0.82099-0.30212 0.47617-0.25779-0.042692-0.73396-0.042692-1.3399 0.042692-0.73396-0.38915-1.4696-0.51886-2.2495-0.21674-1.2101-0.17241-3.0278-0.30212-4.2396-0.25943-0.21674-0.47617 0.34482-0.51887 0.38915 0.13136 1.0377 0.25943 2.0755 0.34482 3.1148-0.25779-0.86532-0.43184-1.8177-0.64694-2.857-0.044333 0.30376-0.087025 0.43348-0.087025 0.60753-0.21346 0.21346-0.04269 0.47618 0.087025 0.7783-0.30212-0.13136-0.64858-0.08538-0.64858-0.08538v1.2118c-0.4302-0.43348-0.55827-0.7783-0.77666-1.0837-0.085383-0.34481-0.13136-0.68963-0.21346-1.0344 0.082098-0.21838 0-0.3481 0-0.47617-0.045976-0.30541-0.088667-0.65022-0.13136-1.041 0.04269-0.04269-0.04269-0.68963-0.04269-0.68963 0.34482 0.04104 0.5632 0.0821 0.7783 0.0821-0.43184-0.55827-0.13136-0.90637 0.044333-1.2528 0.087025-0.17405 0.38915-0.21346 0.47617-0.39079 0.34482-0.64858 0.90801-1.1658 0.90801-1.9901 0-0.38915 0.13136-0.82099 0.17241-1.2118 0.087025-0.73561 0.17241-1.4712 0.21346-2.2068 0.088668-0.95235 0-1.9047 0.21838-2.8127 0.3481-1.5106 0.77994-3.0262 1.2545-4.5417 0.34482-1.0837 0.73561-2.1182 1.1658-3.2019 0.64858-1.688 1.2545-3.3759 2.0755-4.9752 1.1658-2.3382 2.5057-4.5877 3.8028-6.8799 0.82099-1.4285 1.6847-2.77 2.5943-4.1542 0.86204-1.3415 1.7241-2.7257 2.7208-3.9818 1.3842-1.7733 2.8964-3.4186 4.5811-4.8898 1.729-1.5566 3.371-3.1575 5.2281-4.586 2.417-1.8653 4.9686-3.5073 7.6877-4.9358 2.2052-1.1658 4.4941-2.0787 6.7847-2.9441 1.4696-0.56156 3.0672-0.82099 4.5811-1.2972 1.7274-0.5632 3.4564-0.82099 5.2708-0.86532 1.1658-0.044334 2.2906-0.17405 3.4564-0.30377 1.0377-0.082098 2.0738-0.17077 3.1986-0.30048-0.13136 0.17241-0.17405 0.25943-0.21674 0.34482-0.47289 0.69291-0.99176 1.3858-1.4679 2.0771-0.38915 0.5632-0.82099 1.1691-1.2101 1.7306-0.69291 0.9113-1.4285 1.8193-2.0755 2.7717-0.9934 1.4285-1.9014 2.8997-2.9391 4.3266-1.0344 1.3842-2.1592 2.683-3.2396 4.0228-1.4252 1.862-2.7651 3.7651-4.1903 5.6254-1.2972 1.7733-2.6764 3.4646-3.9309 5.2379-1.1231 1.555-2.1182 3.2019-3.1986 4.7995-1.5976 2.3809-3.1969 4.7158-4.7946 7.0966-1.2545 1.816-2.5073 3.591-3.8028 5.4087-0.08702 0.13136-0.21674 0.17077-0.34482 0.25779-0.34482 0.56156-0.34482 0.86532-0.47617 1.1248-0.34481 0.64858-0.68963 1.2972-1.0804 1.9047-0.21674 0.34481-0.51886 0.64694-0.7783 0.9934-0.04269-0.51886 0.68963-0.7783 0.34482-1.4285-0.21346 0.3481-0.43184 0.65022-0.64694 0.99668l-0.51886 1.0344c0.17241 0.13136 0.47617 0.21838 0.17241 0.47618-0.13136 0.21838-0.25943 0.47617-0.38915 0.69456 0.21674-0.13136 0.34482-0.25943 0.47617-0.43348 0 0.47617-0.25943 0.86368-0.47617 1.2528-0.17241 0.34482-0.60425 0.60753-0.90637 0.86532 0.04269 0.04433 0.34482 0.17405 0.38915 0.21674 0.38915-0.13136 0.51886-0.34482 0.5632-0.21674 0.13136-0.17241 0.25943-0.30212 0.30212-0.43184 0.17077-0.43348 0.4302-0.7783 0.86204-0.95235 0.17405-0.08702 0.30212-0.21674 0.43184-0.34482 1.2972-1.3431 2.637-2.6403 3.8028-4.0688 1.816-2.2085 3.458-4.499 5.1887-6.7485 0.73232-0.95235 1.5976-1.9047 2.3743-2.8143 0.12807 0.99504 0.04269 1.9457 0 2.857-0.13136 1.5993-0.21674 3.2019-0.34481 4.8438-0.04434 0.64858 0 1.2972-0.04434 1.9474 0 0.17241-0.13136 0.30212-0.13136 0.47617 0 0.43184 0.13136 0.90801 0.13136 1.3415-0.13136 1.6009-0.30541 3.1575-0.43512 4.7584-0.04434 0.34482 0.12807 0.69292 0.21346 0.99668-0.21346 2.3349 0.26272 4.8028-0.12807 7.269 0.30212-0.47617 0.38915-0.7783 0.38915-1.0804 0.04104-0.25943 0-0.51886 0-0.82099v-0.43349c0.04104-0.77994 0.21346-1.6009 0.12807-2.3809-0.08701-0.86532-0.08701-1.6863 0.08703-2.5089 0.08702-0.34482-0.04269-0.7783 0.17405-1.2118v0.64858c-0.0427 2.463 0.04434 4.9309-0.30048 7.3971-0.04434 0.21674 0.13136 0.60753-0.34481 0.5632-0.39079 0.7783 0.08538 1.3415-0.34482 1.7733-0.08867 0.08702 0.0821 0.47618 0.12643 0.73561-0.17405 0.52051-0.17405 0.52051 0.08538 0.5632 0.04269 0.95235 0.13136 1.816 0.17241 2.7257 0.68963-1.642 0.34481-3.3332 0.65022-5.0212 0.04269 0.69291 0.08702 1.3858 0.04269 2.1182 0 1.128-0.04269 2.2085-0.08538 3.3332 0 0.21674-0.04434 0.43348-0.08702 0.65022-0.13136 0.60753-0.17241 1.2118-0.38915 1.7733-0.17241 0.43348-0.08538 1.0837-0.08538 1.6009v1.6469c0.17241 0.73561-0.04434 1.1248 0.08538 1.5566-0.13136 0.43512-0.17241 0.56484-0.13136 0.69456l0.13136 0.64858c0.86532-0.08702 0.47617 0.5632 0.82099 0.90801-0.25943 0.3481-0.17241 0.47618-0.17241 0.65187 0 0.38915-0.04105 0.73561-0.08538 1.1248 0 0.99504-0.04269 1.9901-0.04269 2.9424 0 0.13136 0.04269 0.25779 0.04269 0.38751 0 0.08867-0.04269 1.2151-0.04269 1.2151 0.08702 0.12807 0 0.25779-0.13136 0.38751-0.04104 0-0.17076-5.4957-0.17076-5.4957h-0.64859c-0.08538 2.5943 0.13136 4.9309-0.34482 7.3561-0.51886 0.04104-0.68963 0.12808-1.2545 0.12808-1.3399 0-2.6797 0-4.0196 0.04269-1.5993 0-3.1526 0.0427-4.7535 0.0427-0.77501 0-1.596 0.08867-2.3743 0.08867-1.0377 0-2.1182-0.13136-3.1526-0.13136-1.6009 0-3.1559 0.13136-4.7552 0.17405-1.1658 0.0427-2.3316 0.0427-3.4974 0.08702-0.77994 0.04104-1.5599 0.0821-2.3349 0.17077-0.34482 0.0427-0.64858 0.17241-1.0804 0.30212-0.13136 0-0.43184-0.04269-0.68963 0-0.43512 0.08701-0.82099 0.34482-1.2561 0.43348-0.64858 0.13136-0.82099 0.30212-0.73561 0.95235v0.43184c-0.04269 0.08538 0.95235-0.13136 0.95235-0.13136-0.088667 0-0.13136 0.25943-0.26272 0.47618 0.3481-0.13136 0.5632-0.21674 0.77994-0.30212 0.64858 0.30376 1.2101 0.13136 1.7274 0.26272 1.6847 0.4302 3.412 0.60753 5.1394 0.77666 1.1248 0.08702 2.2052 0.13136 3.3283 0.17241 1.5976 0.08704 3.1969 0.17405 4.7946 0.17405 1.3399 0 2.637-0.13136 3.9736-0.13136 1.8554 0 3.7174 0.08538 5.5745 0.13136 0.38915 0 0.82099-0.04597 1.2528-0.04597h3.1526c2.8111-0.08538 5.6188-0.13136 8.4283-0.21346 1.6009-0.04597 3.2429-0.13136 4.8406-0.17569l4.9259-0.13136c1.9014-0.04269 3.8028-0.04269 5.6615-0.0821 1.4252 0 2.8078-0.04925 4.2363-0.09031 1.596-0.0427 3.238-0.17241 4.8373-0.25779 0.86532-0.04434 1.7306-0.13136 2.5943-0.21674 1.0377-0.08538 2.1182-0.21346 3.1526-0.25779 1.5566-0.08867 3.1559-0.13136 4.7125-0.21838 1.9441-0.12808 3.8882-0.30048 5.875-0.34482 1.816-0.08538 3.6731-0.0427 5.4891-0.08538 1.5993-0.04434 3.1986-0.13136 4.8406-0.17405l2.7257-0.13136s1.8127-0.04269 2.7208-0.13136c1.555-0.08538 3.1099-0.25779 4.6665-0.30048 0.99175-0.04434 1.9868 0 2.9802-0.04434 1.5976-0.0427 3.2396-0.13136 4.8389-0.13136 0.6026 0 1.2512 0.08867 2.0295 0.13136-0.3448 0.30377-0.56154 0.47617-0.82099 0.69292 0.17241 0.04269 0.34483 0.13136 0.51888 0.21674-0.25943 0.17241-0.47618 0.21346-0.68964 0.21346-0.0886 0.21838-0.17568 0.30541-0.26271 0.73889h0.7783c-0.30213 0-0.56156 0.38915-0.86368 0.64858-0.34482-0.08867-0.64859 0-0.82098 0.47617 0.30212 0.17077 0.25942 0.30048 0.21673 0.47617-0.51887 0.17077-0.90802 0.34482-0.68963 0.90637-0.17569 0.08538-0.39079 0.17241-0.60753 0.30212-0.21346 0.34481-0.60426 0.43184-0.51886 0.90801 0.17404 0.04104 0.34481 0.13136 0.47616 0.17077-0.21673 0.08702-0.43183 0.21674-0.64858 0.30212-0.77666 0.47617-0.4302 0.69292-0.25778 0.90966-0.13136 0.08702-0.25944 0.17241-0.38915 0.21674 0.0853 0.38915 0.21346 0.47617 0.25779 0.47617-0.17241 0.12807-0.38915 0.30212-0.64858 0.51886-0.13136 0.38915-0.30377 0.56156-0.47618 0.82099-0.17241 0.25943-0.25943 0.60753-0.47618 0.86532-0.90637 0.99669-1.5549 2.1674-2.7208 2.9441-0.43348 0.30378-0.82099 0.69291-1.2101 1.0837-0.77831 0.73396-1.4696 1.5566-2.2906 2.2495-1.0788 0.90802-2.2003 1.729-3.3693 2.5516-1.4236 0.99504-2.8488 1.9901-4.2757 2.9424-0.7783 0.51721-1.642 0.90638-2.463 1.3826-0.82099 0.47616-1.5993 0.90966-2.4203 1.3842-0.51886 0.34482-0.99504 0.82099-1.5566 1.0837-1.4252 0.60753-2.9391 1.1248-4.4071 1.688-1.4285 0.60754-2.463 1.1248-3.5434 1.5139-0.9934 0.34481-2.0311 0.60753-3.0672 0.82098-0.34482 0.0886-0.73561 0-1.1248 0.0443-0.73561 0.13135-1.4696 0.30541-2.2052 0.3908-1.9014 0.25942-3.8028 0.43347-5.7026 0.6929-1.1248 0.13136-2.2052 0.34482-3.3283 0.47618-0.77666 0.0427-1.5976-0.0427-2.3759-0.0427-0.56156 0-1.1658 0.13136-1.729 0.0443-0.90637-0.13135-1.8144-0.34481-2.7224-0.51886-0.21346-0.0427-0.51887-0.13137-0.68963-0.0427-0.34482 0.17405-0.65022-0.0854-0.99668 0-0.21346 0.0443-0.4302-0.13137-0.64694-0.13137-0.17405-0.041-0.39079 0.0459-0.60753 0-0.47617-0.12807-0.90637-0.30048-1.4285-0.25778-0.51394 0.0427-1.0344-0.21674-1.5927-0.34482-0.77994-0.17406-1.5106-0.34483-2.2922-0.52051-0.30048-0.087-0.55827-0.21673-0.86204-0.38915-1.1248 0-1.8604-0.0427-2.5516-0.30377-0.60425-0.21344-1.1658-0.51722-1.8144-0.4302-0.17077 0.0427-0.30048-0.0427-0.47617-0.0427-0.13136-0.17405-0.25779-0.52049-0.38587-0.52049-0.86368 0.0443-1.3825-0.68964-2.1182-0.90802-0.38751-0.13136-0.68963-0.56319-1.0788-0.69292-0.95235-0.38915-1.7274-1.2101-2.8078-1.3398-0.34482-0.0443-0.68963-0.21674-1.0804-0.34481 0.13136 0.17076 0.21346 0.30048 0.34482 0.43019-1.2528-0.60754-2.4186-1.2972-3.5861-1.9474-0.17076-0.0427-0.30048-0.21345-0.4302-0.30212l-1.1658-0.7783c-0.64858 0.13135-0.90801-0.13136-1.0837-0.21674-1.1658-0.82099-2.504-1.3415-3.6288-2.2495-0.47617-0.3908-1.0344-0.65023-1.3793-1.1264-0.60753-0.73561-1.3415-1.2545-2.1625-1.6863-0.64694-0.3448-1.2512-0.7356-1.8554-1.1247-0.30377-0.21675-0.60753-0.47618-0.60753-0.95236 0-0.30376-0.12807-0.60752-0.51722-0.43347-0.17241-0.25943-0.34482-0.56156-0.56156-0.64859-0.51886-0.21345-0.86368-0.60753-1.2528-0.95234-0.38915-0.34482-0.68963-0.82099-1.1658-0.99338-0.86532-0.34483-1.3842-1.0804-1.9014-1.6863-1.2118-1.4285-2.2922-2.9884-3.4153-4.499-0.08703-0.13136-0.25943-0.21838-0.38915-0.3481 0.17241 0.47618 0.38915 0.86532 0.60425 1.2972-0.4302-0.17241-0.73232-0.47617-0.99175-0.7783-0.04434 0.04434 2.9802 5.0195 2.9802 5.0195 0.26272 0.38915 0.47617 0.77994 0.73561 1.1691-0.64858 0.0427-1.0804-0.30378-1.2972-0.69292-0.38751-0.68963-0.82099-1.1231-1.6847-1.0344-0.08538-0.30543-0.17241-0.65188-0.21346-0.95237-0.17569 0-0.30377 0-0.60753-0.04434 0.60753 0.95235 1.1248 1.7733 1.6863 2.7257-0.21838-0.13137-0.34481-0.21675-0.43512-0.25944 0.77666 0.821 1.3382 1.8604 2.3316 2.3809 0.21674 0.99338 1.3399 1.4696 1.5993 2.4219-0.21346-0.0443-0.39079-0.087-0.60753-0.13135-0.34482-0.43185-0.73396-0.86369-1.1215-1.3398 0.08538 0.30211 0.21346 0.56155 0.38751 0.7783 0.51886 0.64858 0.99504 1.2972 1.5993 1.8604 0.21674 0.22003 0.51886 0.30706 0.51886 0.6962 0.34482 0.1724 0.47617 0.21346 0.60425 0.21346 0.08867 0.26272-0.04105 0.65187 0.47617 0.56483 0.34482 0.64859 0.68963 0.64859 1.1658 0.43349 0.5632 0.56321 0.86696 0.60754 1.2545 0.26272 0 0.21345 0.04269 0.43021 0.04269 0.60425 0.17241-0.087 0.13136-0.21674 0.13136-0.43349 0.21346 0.17241 0.34482 0.25945 0.4302 0.34482 0.43184 0.60753 0.82099 1.1691 1.4252 1.6453 0.82099 0.69292 1.5566 1.4285 2.3316 2.0771 1.5139 1.2561 3.2019 2.2955 4.8849 3.2462 2.0755 1.1691 4.0639 2.4236 6.1804 3.5467 2.5484 1.3431 5.2708 2.2528 8.0785 2.9014 1.0377 0.21674 2.0311 0.43184 3.0705 0.68963 0.90309 0.26272 1.8127 0.65186 2.7208 0.86696 1.3825 0.30377 2.8078 0.56321 4.1903 0.82099 0.30048 0.0443 0.60753 0.0886 0.95235 0.13137 0.38587 0.087 0.8604-0.087 0.94742 0.0443 0.21674 0.3448 0.38915 0.17075 0.64858 0.12806 0.30212-0.087 0.64858-0.087 0.9934-0.087 1.2101 0.0427 2.3759 0.30212 3.5861 0.21674 0.26272 0 0.65022-0.21839 0.86696 0.21345 0.38751-0.17241 0.60425-0.17241 0.77666-0.21345 0.04597 0.38751 0 0.38751-0.0821 0.4302-0.08867 0.0427-0.21838 0.087-0.39079 0.21673 1.555 0.30213 3.0245 0.34482 4.3184 0 2.2495 0.17242 4.1936-0.087 6.0523-0.7356 0.17241 0.21675 0.30212 0.51887 0.56156 0.087 0.08538-0.13137 0.30212-0.17569 0.47617-0.21838 0.38751-0.087 0.86368-0.25944 1.2085-0.13136 0.39079 0.13136 0.52051-0.21347 0.82099-0.21347 0.52051 0 0.99504-0.0443 1.4712-0.13135 0.25943-0.0427 0.51886-0.17241 0.82099-0.25943-0.34481-0.17569-0.68963-0.21839-0.95235-0.21839 0.52051-0.25943 0.99504-0.47617 1.4712-0.68963-0.08701 0.12808-0.17405 0.30049-0.34481 0.30049h0.6026c-0.13136 0-0.30377 0.38914-0.51886 0.64858 1.5533-0.38916 2.9785-0.73561 4.3627-1.0837-0.47617-0.90636 0.51722-0.60259 0.86368-1.1231-0.43184 0.13135-0.86368 0.25943-1.2972 0.34481 1.4696-0.73396 2.9818-1.3825 4.4498-2.0311-0.21346 0.25944-0.47617 0.38915-0.86204 0.60753 0.25943 0.041 0.43184 0.041 0.56156 0.0821 0.68963 0.21838 0.51886-0.43019 0.73396-0.821 0.82099 0 1.1658-0.12807 1.555-0.25942 0.43184-0.13137 0.86368-0.25943 1.2972-0.43184 0.68963-0.30213 1.3382-0.68963 2.0295-1.0344 0.13136-0.0459 0.34482 0 0.51886 0 0.47617-0.30541 0.64694-0.56483 0.77666-0.52215 0.60753 0.087 1.0344-0.13136 1.2085-0.68963 0.30212-0.21839 0.51886-0.39079 0.73396-0.52215 0.94906-0.51887 1.8554-1.0377 2.8078-1.5566 0.34482 0 0.51886 0 0.60426-0.0443 0.56484-0.26272 1.0837-0.56155 1.6009-0.86531-0.13136-0.0427-0.43184-0.21346-0.43184-0.21346 0.4302-0.0886 0.55828-0.13137 0.821-0.2184 1.0344-1.215 2.463-2.036 3.5417-2.9884 0.47618-0.0427 0.47618-0.1724 0.47618-0.25779 0.17077-0.21673 0.34483-0.47617 0.55827-0.65021 0.95236-0.86533 1.9868-1.6009 2.8521-2.509 1.2528-1.2578 2.463-2.5566 3.5861-3.898 1.0344-1.2118 2.0755-2.4219 2.9391-3.7634 1.2101-1.8604 2.2462-3.765 3.3266-5.7141 0.7783-1.3825 1.4696-2.7667 2.2495-4.1509 0.0821-0.13136 0.25778-0.30377 0.3875-0.30377 1.1658-0.13136 2.3349-0.21346 3.458-0.34482 0.25943-0.04269 0.56156-0.21346 0.82099-0.34482-0.13136-0.21674-0.21674-0.47617-0.34481-0.69291-0.17405-0.26272-0.43349-0.47617-0.60754-0.73889-0.17077-0.21346-0.30048-0.47617-0.43019-0.73396-0.13136-0.21346-0.25944-0.3875-0.38917-0.60753-0.2627-0.47617-0.52049-0.95235-0.73887-1.4679-0.0427-0.13136-0.13136-0.34482-0.0854-0.47618 0.77828-1.6863 1.0804-3.504 1.8144-5.1919 0.73397-1.7306 0.95235-3.678 1.2972-5.5384 0.30213-1.7733 0.47618-3.5467 0.68962-5.32 0.13137-1.2545 0.30378-2.4663 0.34483-3.7207 0.26272-1.9901 0.17405-3.8521 0.13136-5.7141-0.0427-1.642-0.13136-3.3299-0.21346-4.9752zm-108.41 53.262c-0.30212-0.34482-0.56156-0.7356-0.86368-1.0804l0.13136-0.13136c0.47125 0.52049 0.94742 1.0394 1.422 1.6026-0.25943-0.13137-0.56156-0.21675-0.68963-0.39079zm0.68963 0.39079c0.13136-0.0443 0.26272-0.0443 0.39079-0.087 0.13136 0.21674 0.21674 0.47618 0.34481 0.73561-0.60425-0.0443-0.90637-0.30376-0.73396-0.64858zm44.941 17.87v-0.13137c0.82099-0.0854 1.5976-0.17239 2.4186-0.25779v0.12644c-0.82099 0.13135-1.5976 0.21346-2.4186 0.25943zm10.886-1.1248c-0.6026 0.13137-1.2512 0.21839-1.8554 0.30542-0.21674 0.0427-0.47617 0.25943-0.56156-0.13137-0.08701 0.0443-0.17405 0.0443-0.25943 0.0886 0.21346 0.64695 0.73396 0.12808 1.1658 0.38751-0.95235 0.13136-1.8554 0.21675-2.7651 0.34483v-0.0854c0.26272-0.0427 0.5632-0.087 0.82099-0.13137v-0.12807c-0.4302-0.0443-0.86204-0.087-1.2972-0.087-0.12643 0-0.30048 0.17405-0.4302 0.21675-0.17241 0.0427-0.34482 0.087-0.56156 0.087-0.73396 0.0427-1.4679 0.0427-2.1608 0.0854-0.04433 0-0.13136-0.0427-0.17405-0.0427v-0.13137c2.8948-0.3875 5.7469-0.77665 8.6417-1.1658 0.04434 0.0854 0.04434 0.17241 0.08702 0.25779-0.25943 0-0.43184 0.0902-0.64858 0.13136zm0.65022-0.43019c0.99504-0.13136 1.9047-0.21674 2.8538-0.34481-1.9868 0.56155-2.6354 0.64692-2.8521 0.34481zm-37.636-87.361c1.3793-1.9047 2.8078-3.8094 4.1903-5.7551 0.43184-0.56648 0.77666-1.1724 1.2085-1.7339 0.13136-0.17405 0.30376-0.25943 0.51886-0.43348l-0.04269-0.0821c0.17241-0.21838 0.34481-0.39408 0.43184-0.56484 0.22003-0.34482 0.34974-0.73561 0.52215-1.1248 0.04269-0.0821 0.17241-0.16912 0.17241-0.16912 0.60753 0.30212 0.60753-0.34482 0.82099-0.5632 0.38915-0.43348 0.7783-0.90801 1.1231-1.3415 0.25943-0.34481 0.51886-0.64858 0.73561-1.0377 0.04269-0.13136-0.08701-0.34482-0.13136-0.52051h-0.12807c0.13136-0.08538 0.25943-0.21346 0.38915-0.30212 0.04269 0 0.04269 0 0.08538-0.04269 0.25943-0.39079 0.51886-0.77994 0.7783-1.1264 0.51722-0.68963 1.0788-1.3825 1.683-1.9868-0.08538 0.21346-0.17241 0.43184-0.25943 0.60425 0.04434 0 0.04434 0.04434 0.08701 0.04434 0.51886-0.69292 1.0804-1.3415 1.5993-2.0361-0.04434-0.04105-0.08703-0.08538-0.13136-0.08538-0.21346 0.21674-0.38751 0.43348-0.60425 0.65022-0.04269-0.04434-0.08538-0.08703-0.13136-0.08703 0.43512-0.5632 0.86697-1.1248 1.2972-1.7733 0.08702 0.13136 0.17405 0.30212 0.34482 0.64858 0.17569-0.43184 0.3481-0.73396 0.47617-1.0377-0.12807 0.13136-0.30048 0.25943-0.4302 0.39079l-0.13136-0.13136 0.7783-1.1658c0.82099-1.1691 1.642-2.3809 2.463-3.55 0.30377-0.43184 0.68963-0.7783 0.95235-1.2118 0.82099-1.642 2.1182-2.9424 3.1099-4.4563 0.21674-0.30212 0.51886-0.56156 0.7783-0.82099 0.21346-0.26272 0.38915-0.17405 0.56156 0.04269 1.1658 1.4712 2.3316 2.9851 3.4974 4.4563 0.86696 1.0837 1.7306 2.1182 2.5516 3.2445 0.9934 1.3858 1.9441 2.77 2.9391 4.1542 1.1231 1.6009 2.2462 3.2019 3.3266 4.8438 1.642 2.4252 3.1969 4.8488 4.8389 7.2707 1.2101 1.7733 2.4203 3.5056 3.5861 5.279h-2.2068c-2.0295-0.04104-4.1049-0.21346-6.1344-0.12808-2.7651 0.13136-5.5729 0.43348-8.338 0.65022-3.5007 0.30377-7.0441 0.34482-10.542 0.34482-1.2561 0-2.5089 0.17569-3.7601 0.26272-1.5139 0.08538-2.9835 0.17241-4.4957 0.21346-1.7733 0.08867-3.4974 0.13136-5.2707 0.17569-0.99504 0.0427-2.0311 0-3.1115 0zm49.56 19.901v0.39079c-0.0427 0-0.08538 0.04434-0.17241 0.04434-0.17241-0.60754-0.34482-1.2578-0.56156-1.8636-0.43184-1.2561-0.90801-2.5122-1.6863-3.6353-0.86696-1.2101-1.642-2.463-2.5089-3.7191-0.21346-0.30377-0.51886-0.5632-0.7783-0.82099-0.90802-0.99668-1.816-2.0361-2.9818-2.77-1.729-1.0837-3.5007-1.9917-5.4021-2.7717-0.51886-0.21346-0.9934-0.47617-1.5106-0.7783h1.0344l7.3889-0.13136c1.5993-0.04104 3.1559-0.04104 4.7535-0.12807 0.38751 0 0.60425 0.13136 0.82099 0.47617 0.38751 0.64858 0.77666 1.2972 1.2085 1.9474 0.04433 0.08538 0.13136 0.21346 0.13136 0.34481 0 0.95235 0 1.9474 0.0427 2.8997 0.04104 0.99504 0.13136 1.9474 0.17077 2.9424 0 0.99504-0.08701 2.0328-0.0427 3.0705 0.04434 1.4729 0.08703 2.9884 0.08703 4.499zm-46.494-14.489c2.0311-0.08702 3.9736-0.21674 5.9637-0.30376 1.5517-0.08701 3.1526-0.13136 4.7059-0.21674 0.64858-0.04104 1.2545-0.0821 1.9014 0-0.68963 0.3481-1.3825 0.69456-1.9868 1.1264-0.7783 0.51886-1.5106 1.2101-2.2906 1.7733-0.77994 0.56156-1.4712 1.2545-2.1182 1.9901-0.82099 0.9934-1.729 1.8587-2.5943 2.8111-0.60753 0.69291-1.2972 1.3415-1.8144 2.0771-0.73396 0.95235-1.3825 1.9868-2.0738 3.0705 0.21674-4.1115 0.47617-8.177 0.30212-12.331zm28.217 41.624c-1.3842 0.34482-2.8078 0.73561-4.2363 0.90801-1.2085 0.17405-2.463 0.13136-3.7158 0.13136-1.1264 0-2.2068-0.04269-3.3299-0.13136-1.2528-0.12807-2.5057-0.25779-3.7158-0.82099-1.0394-0.47617-2.1182-0.90801-3.1526-1.4285-1.041-0.51886-2.0771-1.1231-2.857-2.0755-0.55827-0.69456-1.3382-1.2561-2.0295-1.862 0.13136 0.51886 0.43184 0.95235 0.90801 1.2545-0.21674 0.25943-0.51886 0.13136-0.95235-0.5632-0.12807 0.08701-0.25779 0.13136-0.34482 0.17405 0.13136-0.30377 0.25943-0.60753 0.38915-0.86532-0.17241-0.34482-0.38915-0.73561-0.56156-1.0837-0.34482-0.56156-0.68963-1.1658-0.9934-1.729-0.08702-0.13136-0.08702-0.25943-0.17241-0.38915-0.21674-0.25943-0.43348-0.52051-0.60753-0.77994-0.34482-0.51722-0.64694-1.0788-1.0788-1.5993 0 0.13136 0.04434 0.25943 0.04434 0.43348-0.04434 0-0.08702 0.04269-0.08702 0.04269l-0.90966-2.2068c-0.04269 0-0.04269 0-0.08538 0.0427l0.77666 2.857c-0.04269 0-0.08538 0.04104-0.13136 0.04104-0.12643-0.17076-0.25615-0.34482-0.34482-0.55827-0.08538-0.3481-0.34482-0.3481-0.55827-0.21838-0.13136 0.08703-0.21838 0.38915-0.17405 0.51886 0.30377 0.73561 0.64858 1.4712 0.99504 2.2068 0.08538 0.25943 0.17241 0.47617 0.30212 0.73561 0.04434 0.08701 0.17405 0.17241 0.17405 0.30212 0.17405 0.34482 0.30377 0.68963 0.51886 0.99504 0.38915 0.51886 0.82099 1.0377 1.2101 1.5566 0.38586 0.51887 0.73068 1.0837 1.0771 1.6009 0.04269 0.08703 0.17241 0.08703 0.21346 0.13136 0.21838 0.64858 0.95235 1.1231 1.4712 0.86368 0.13136 0.99504 1.2101 1.3415 1.642 2.2938-0.51887-0.21674-0.90637-0.38915-1.2528-0.5632-0.04434 0.04269-0.04434 0.08538-0.08867 0.17241 0.51886 0.25943 1.0377 0.51887 1.5106 0.82099 0.43512 0.26272 0.86696 0.52051 1.2561 0.82099 0.51886 0.47617 1.1248 0.73889 1.8554 0.90966-0.03941-0.13136-0.0821-0.17569-0.0821-0.17569 1.2085 0.5632 2.463 1.1691 3.412 1.642-4.4941 0.08867-9.2903 0.17569-14.261 0.26272 0-0.82099-0.0427-1.6009-0.0427-2.4236 0-0.34481 0.08538-0.64858 0.04105-0.99504-0.13136-1.9868-0.13136-3.9802-0.38915-5.9275-0.25779-2.0755-0.25779-4.1099-0.21346-6.1903 0.04104-1.1215-0.04433-2.2889-0.08867-3.4153 0-1.5139 0-2.9884 0.04597-4.499 0-0.21674 0.08702-0.38915 0.17405-0.60753h0.13136c0.04105 0.08867 0 0.21838 0.0821 0.26272 0.13136 0.13136 0.3481 0.34482 0.43512 0.30212 0.25779-0.17405 0.64694-0.34481 0.73396-0.60753 0.21346-0.51722 0.30212-1.0804 0.30212-1.5993 0-0.38751 0.17405-0.64694 0.34482-0.90801 0.08867-0.13136 0.13136-0.25943 0.21838-0.43184-0.17241-0.13136-0.34482-0.21674-0.56156-0.38915 0.17405-0.47617 0.13136-1.0394 0.77994-1.2972 0.08538-0.04434 0.08538-0.26272 0.13136-0.39079 0.04104-0.34974 0.0821-0.73889 0.12807-1.0837 0.08538 0.13136 0.13136 0.17241 0.21346 0.25779 0.04597-0.08538 0.08867-0.13136 0.08867-0.13136 0-0.17076-0.04269-0.51722 0-0.51722 0.51887-0.08702 0.30212-0.64858 0.56156-0.90801 0.04104-0.04597-0.04434-0.17569-0.04434-0.26272 0-0.08538 0-0.21346 0.0427-0.21346 0.6026-0.13136 0.51722-0.77994 0.90637-1.0837 0.13136-0.08703 0.17241-0.21346 0.34482-0.43184 0.34482 0.60425-0.25943 0.90801-0.30212 1.3399 0.73232-0.43184 0.94906-1.4696 0.51722-1.7733 0.17241-0.13136 0.34482-0.30212 0.47617-0.47617 0.47617-0.51886 0.99176-0.99504 1.4252-1.5139 0.30377-0.38751 0.47617-0.86368 0.7783-1.2528 0.17405-0.21674 0.51887-0.38915 0.7783-0.52051 0.7783-0.4302 1.5106-0.90637 1.9868-1.642 0.08702-0.08702 0.21674-0.17241 0.34482-0.25943 0.13136-0.08703 0.39079-0.08703 0.43348-0.21674 0.04433-0.08538-0.08538-0.30212-0.17241-0.43184 0.17077-0.08703 0.34482-0.25943 0.68963-0.43348-0.13136 0.25943-0.17241 0.43348-0.25943 0.60753l0.21346 0.21346c0.39079-0.30212 0.99504-0.64694 1.3842-0.90637 0-0.04104-0.21674-0.21346-0.21674-0.21346-0.25779 0.13136-0.64694 0.34482-1.0344 0.51886 0.0821-0.13136 0.0821-0.21674 0.13136-0.25943 0.60261-0.38915 1.2069-0.7783 1.8554-1.0837 1.5106-0.68963 3.0245-1.3825 4.5368-2.0311 0.25943-0.13136 0.60753-0.04269 0.90801-0.04269 0.12808 0 0.21346 0 0.34482-0.04269 0.68963-0.21674 1.3825-0.43348 2.0738-0.60753 0.30048-0.08538 0.6453-0.12807 0.95235-0.12807 1.2922 0.04104 2.5894 0.04104 3.8849 0.12807 0.56156 0.04269 1.0804 0.17241 1.5993 0.34481 0.64694 0.21838 1.3382 0.52051 1.9441 0.82099 0.73396 0.39408 1.4252 0.82427 2.1182 1.3004 1.2528 0.82099 2.4186 1.7306 3.6715 2.4663 1.2101 0.73561 2.1608 1.7306 2.9391 2.857 0.95235 1.3399 2.0311 2.5516 2.463 4.1953l0.64694 2.857c0.13136 0.51886 0.43348 1.0377 0.30377 1.642-0.21838 1.0837-0.39079 2.2085-0.5632 3.2905-0.08538 0.43512-0.17241 0.87025-0.12807 1.2972 0.0821 1.3464-0.43512 2.5122-0.95235 3.724-0.17405 0.38915-0.43348 0.77994-0.64858 1.2118 0.0427 0.0427 0.30212 0.17405 0.34481 0.17405l0.38915-0.7783c0.04433 0 0.04433 0 0.08701 0.04434-0.21674 0.60425-0.38915 1.2545-0.60753 1.8604-0.51558 1.3415-1.0344 2.7257-1.683 4.0228-0.34482 0.73561-0.95235 1.3415-1.3825 2.0361-0.4302 0.60425-0.77666 1.2528-1.2085 1.816-0.38915 0.47617-0.77666 0.95235-1.2972 1.2972-1.1658 0.86532-2.3759 1.7306-3.6288 2.4236-0.77666 0.47617-1.6847 0.73561-2.5484 0.95235zm-23.032-2.2988-0.0427 0.04433c-0.09031-0.0427-0.22002-0.08538-0.30541-0.17241l-1.0377-1.5599c-0.08538-0.12808-0.13136-0.25779-0.08538-0.4302 0.47617 0.73561 0.95235 1.4285 1.4696 2.1182zm26.879 5.9275c1.9425-0.82099 3.5417-1.9868 5.008-3.3299 0.21838-0.21674 0.43348-0.43184 0.69291-0.60753 1.816-1.1231 3.1526-2.6814 4.3644-4.412 1.3825-1.9901 2.2906-4.2396 3.4153-6.3594 0.08538-0.17405 0.17076-0.34482 0.25779-0.47617-0.08702 4.9325 0.47618 9.778 1.1231 14.668-4.8816 0.17241-9.8519 0.34482-14.863 0.51887zm43.813-1.2972c-0.0427 0.08702-0.13136 0.17405-0.1724 0.26272-0.0443-0.08867-0.0443-0.21838-0.087-0.39407-0.25944 0.69456-0.82101 0.3481-1.2101 0.3481-2.3316 0.04434-4.7092 0.04434-7.0441 0.04434-2.2462 0-4.5351 0-6.7814 0.03941-0.7356 0-1.5139 0.17241-2.2495 0.21674-1.7701 0.08538-3.5417 0.13136-5.3134 0.17241-0.13136 0-0.25943-0.21346-0.47617-0.38751-0.04269 0.08704-0.13136 0.21674-0.25943 0.38915-0.04597-0.08538-0.13136-0.17076-0.21838-0.30048-0.0427 0.13136-0.08701 0.25943-0.13136 0.34482h-0.12479c-0.08701-0.60425-0.25943-1.1658-0.25943-1.7733 0-1.2972 0.13136-2.5943 0.17241-3.8948 0.04433-0.60425 0-1.1658 0-1.7306 0.17405 0.13136 0.30377 0.21838 0.47617 0.34482 0.08538-0.16912 0.17241-0.29884 0.25943-0.42691 0 0-0.08702-0.04597-0.17405-0.13136 0.0821-0.04433 0.17077-0.13136 0.17077-0.17405 0.0427-0.13136 0.13136-0.25943 0.13136-0.34482 0-0.30377-0.08867-0.5632-0.13136-0.82099 0.0427 0 0.08538 0 0.13136-0.04597l0.25779 1.2972h0.13136c-0.17405-0.30048 0.38751-0.56156-0.08704-0.90637-0.04269-0.04433 0.0427-0.30377 0.0427-0.43348-0.13136-0.25779-0.21346-0.51722-0.34482-0.86368 0.0427-0.04269 0.17241-0.08702 0.30212-0.13136-0.17241-0.08538-0.30212-0.17077-0.43184-0.21346 0.43184-0.39079 0.43184-0.60753 0.0427-1.0394 0.08867-0.04104 0.17405-0.04104 0.17405-0.0821 0-0.39079 0-0.77994-0.08538-1.1658-0.08702-0.43677 0.13136-0.95235-0.51886-1.2151 0.04269 0.13136 0.08702 0.21674 0.17241 0.34482 0 0-0.13136 0.04433-0.25943 0.13136-0.56156-0.52051-0.21346-1.2151-0.34482-1.9917 0.30212 0.08701 0.51886 0.17405 0.73396 0.26272-0.08702-0.30541-0.30212-0.65186-0.43184-1.041h-0.17569v-2.857c0 0.04434 0.30212 0.04434 0.47617 0.08867 0-0.04433 0.04104-0.08702 0.04104-0.13136-0.13136-0.17241-0.30377-0.34481-0.47617-0.56156l0.08703-0.08702c-0.3448-0.43021-0.1724-1.0345-0.1724-1.1658v-3.0295c0.43348 0.43348-0.21346 0.99504 0.43348 1.2545v-0.43184h-0.04434c-0.0427-0.64858-0.0427-1.2972-0.08538-1.9474h-0.08538c-0.04433 0.08867-0.04433 0.13136-0.08867 0.21838h-0.08538l0.25946-10.341c0.43184 0.56156 0.90637 1.0837 1.2085 1.642 0.99504 1.8193 2.2906 3.3776 3.5007 5.0212 1.0377 1.4285 1.9868 2.9851 2.9391 4.4563 1.1658 1.7733 2.2889 3.5467 3.4564 5.32 0.86367 1.3431 1.7733 2.6846 2.6764 3.9834 0.82099 1.1658 1.688 2.2922 2.5516 3.4186 0.73231 0.99504 1.5106 1.9901 2.2446 2.9851 0.86532 1.2118 1.729 2.4219 2.5943 3.591 0.43021 0.60425 0.90637 1.2101 1.3793 1.816 0.2627 0.34482 0.65021 0.60753 0.90965 0.82099-0.0411 0-0.0854 0-0.17077-0.04269 0.13136 0.17241 0.21345 0.30212 0.30212 0.38915 0.47618 0.25943 0.51887 0.51886 0.25944 0.90966zm2.2035-10.814v-0.30376c0 0.08538 0.0427 0.21346 0 0.30212zm1.4696-19.08c-0.0443 0-0.30213-0.26272-0.34482-0.30541-0.0443 0.13136 0 0.25943-0.087 0.43348-0.0443-0.12807-0.34481-0.08538-0.34481-0.21346-0.0443 0.60425 0.25779 1.2101 0.21346 1.816 0.13135-0.08702 0.64859-0.13136 0.7783-0.25943 0.0443 0.04269 0.13135 0.08538 0.17404 0.08538-0.86532 0.65022-0.64858 1.2972-0.25942 2.0361 0.0854 0.17077 0.34481 0.51722 0.0854 0.86368-0.0854 0.08702 0.0443 0.34482 0.087 0.5632h0.12643v0.0821l-0.38915 0.13136c-0.0854-0.13136-0.6026-0.38751-0.6026-0.60753v2.2101c0.43183 0.13136 0.43183 0.73561 0.60425 1.0394 0.0903-0.13136 0.13135-0.21838 0.17569-0.34482l0.0443 0.03941c-0.0443 0.25943-0.087 0.51886-0.17405 0.77994-0.0853 0.38751-0.17241 0.73396-0.21345 1.1231 0 0.0427 0.0821 0.13136 0.0821 0.17241-0.47289 1.0837-0.21346 2.2922-0.38586 3.4153-0.13137 0.82099 0 1.6912-0.087 2.5549-0.0886 0.7356-0.26271 1.5139-0.43348 2.2495-0.0443 0.13136-0.13136 0.17241-0.34481 0.25943 0.0854-0.51887 0.0427-0.86532-0.0443-1.3415-0.0459 0-0.60755-0.30212-0.65187-0.30212 0 0.60753 0.3448 1.4285 0.47617 2.1182-0.13137-0.04269-0.64858-0.34482-0.68963-0.34482-0.0886 0.51886-0.0886 1.2118-0.13136 1.7733-0.0443 0.43348-0.43184 0.82099-0.47618 1.2972 0 0.26272 0.30213 0.43348 0.25944 0.86696h0.34482c0-0.86368 0.39079-1.642 0.39079-2.5516h0.12807c0.0443 0.08701 0.17405 0.17405 0.13136 0.21674-0.087 0.47617-0.26272 0.99504-0.21674 1.4712 0 0.25943 0.21344 0.51886 0.13136 0.82099-0.0886 0.26272-0.13136 0.52051-0.1757 0.90966-0.0443-0.21674-0.087-0.30212-0.087-0.43184-0.0427 0-0.43185-0.04434-0.47618-0.04434-0.0427 0.25943 0.30377 0.51886 0.25944 0.73561-0.0427 0.0427-0.0854 0.0427-0.17241 0.08702l-1.4252-2.0787c-1.1264-1.642-2.2495-3.2889-3.3726-4.9752-0.30376-0.43348-0.56319-0.86532-0.77994-1.2972-1.3382-2.2955-2.8078-4.5023-4.4498-6.6221-1.2512-1.5993-2.2495-3.3332-3.4153-5.0162-1.0771-1.6009-2.1576-3.1592-3.238-4.7617-0.38914-0.51722-0.86368-0.9934-1.2101-1.5566-1.1215-1.7733-2.1182-3.591-3.238-5.3643-0.95235-1.4729-1.9868-2.9014-2.9818-4.3283-0.34482-0.47617-0.68963-0.99668-1.0377-1.5155-0.04269-0.0821-0.08538-0.16912-0.08538-0.29884-0.08702-0.95235-0.17405-1.9047-0.21674-2.8127 0-0.86532 0.08702-1.7306 0.08702-2.6403v-0.7783c0-0.21674 0.04104-0.38915 0.04104-0.60753 0.04105-0.04104 0.08538-0.12807 0.12808-0.17077-1.2528 0-2.55-0.04597-3.8028 0-0.82099 0.04104-1.2528-0.30541-1.8144-0.9113-1.642-1.8604-2.8522-3.9802-4.2774-5.9702-1.3399-1.9047-2.7224-3.7667-4.1049-5.6271-1.1248-1.5139-2.2495-2.9851-3.371-4.499-1.2545-1.7306-2.463-3.4613-3.7601-5.1919-1.5566-2.0755-3.1559-4.1542-4.7535-6.2297-0.73889-0.95235-1.5599-1.8604-2.3809-2.857 0.5632 0.088668 1.0837 0.17405 1.6009 0.21838l2.0755 0.13136c1.555 0.12643 3.1099 0.21346 4.6632 0.42691 1.2972 0.17569 2.5943 0.43512 3.9342 0.65022 2.8538 0.47617 5.6615 1.2561 8.3839 2.1641 1.5993 0.51887 3.1526 1.2118 4.7125 1.8604 3.4974 1.4285 6.8257 3.1592 10.11 4.9752 1.0344 0.5632 1.642 1.4712 2.417 2.2938 1.1248 1.1691 2.2495 2.3365 3.3283 3.5467 1.2512 1.4285 2.417 2.8997 3.6288 4.3709 1.0788 1.2972 2.2002 2.5943 3.284 3.8948 0.34481 0.38915 0.60751 0.86532 0.90637 1.2972 0.68963 1.0394 1.4696 2.0361 2.0738 3.1592 0.43019 0.82427 0.68963 1.7766 0.99177 2.6846 0.43018 1.3415 0.86367 2.6387 1.2972 3.9802 0.30049 0.99504 0.55827 2.0361 0.77501 3.0705 0.17405 0.69456 0.13136 1.4285 0.34483 2.1182 0.2627 0.91294 0 1.9047 0.2627 2.816 0.041 0.08703 0.0821 0.21674 0.12807 0.30377 0.17241 0.17076 0.30212 0.34482 0.0427 0.60425-0.041 0.0427-0.041 0.21346 0 0.34481 0.0886-0.08538 0.13136-0.17241 0.21839-0.30212 0 0.08702 0.041 0.13136 0.041 0.17241 0 0.17077-0.0443 0.34482 0 0.51722 0 0.08538 0.0854 0.21346 0.12809 0.30212 0.087-0.08867 0.1724-0.13136 0.34482-0.26272 0.38915 1.4729 0.43347 2.9441 0.43347 4.458 0 1.4285 0.2578 2.857-0.34481 4.2412 0.12807-0.47617-0.17405-0.9113-0.0443-1.3431z" fill="#dd3a0a" stroke-width="1.642"/><path d="m104.34 50.427c0.0411 0 0.0854 0.04433 0.0854 0.04433l-0.0443-0.04925c0-0.04104 0-0.04104-0.0427 0zm6.8257 42.751c-0.47617 0.34483-0.95235 0.64859-1.5566 0.7783-0.0459-0.04271-0.0459-0.08702-0.0886-0.13136 0.47617-0.30211 0.9934-0.60424 1.4696-0.90801 0.0443 0.08209 0.13135 0.17077 0.17405 0.25779zm-81.018-58.632c0.47617-0.6026 0.95235-1.2085 1.4679-1.8144 0.04104 0.04269 0.38586 0.13136 0.4302 0.17241-0.47617 0.60753-1.1248 1.4285-1.5993 2.0771-0.08867-0.08702-0.21838-0.38915-0.30377-0.43348zm-12.274 21.206c-0.34482-0.73561-0.68963-1.5155-1.0344-2.2495 0.04269-0.04434 0.34482-0.17405 0.38751-0.17405 0.47617 0.68963 0.68963 1.5106 1.0377 2.2495 0 0-0.34482 0.17241-0.38915 0.17241zm11.021-20.771c-0.25943 0.39079-0.51886 0.82427-0.7783 1.2151-0.04269-0.04597-0.51886 0.17077-0.56156 0.12807 0.25943-0.38915 0.90637-1.0837 1.1658-1.4712 0.04434 0.04269 0.08703 0.08703 0.17405 0.13136zm77.649 59.973c0.0411 0 0.0411-0.04271 0.0854-0.04271 0.30212 0.04271 0.64693 0.08541 0.99339 0.08541-0.56484 0.38914-0.9113 0.34481-1.0837-0.04271zm-77.567-58.156c0.04597-0.13136 0.13136-0.25943 0.21838-0.38915 0.08538 0 0.21346-0.04434 0.21346-0.04434 0.17569-0.30212 0.17569-0.51886 0.3481-0.7783-0.04269-0.0427-0.08703-0.0427-0.13136-0.08703-0.25779 0.17733-0.51722 0.39408-0.77666 0.56648 0.08702 0.08538 0.08702 0.13136 0.08702 0.21674-0.34482-0.04434-0.47617 0.13136-0.64858 0.60425-0.04269 0.13136-0.25943 0.17405-0.47617 0.34481-0.04269 0.08867-0.08538 0.30541-0.17241 0.52051l0.04434 0.04597c-0.08702 0.08702-0.21674 0.13136-0.21674 0.13136-0.25943 0.25779-0.56156 0.47618-0.82099 0.73396-0.0427 0.13136-0.08538 0.25943-0.08538 0.38915 0.30377-0.30212 0.82099-0.86532 1.2101-1.2118l0.04433 0.04434c0.17241-0.25943 0.30212-0.51886 0.47617-0.7783 0.04105 0.0427 0.04105 0.08538 0.08538 0.13136-0.13136 0.34482-0.25943 0.73232-0.38915 1.0788-0.09031 0.0427-0.22002 0.13136-0.22002 0.08703-0.17241 0.13136-0.30212 0.30212-0.47617 0.43184l-0.77666 0.51886c-0.43184 0.38915-0.86368 0.73396-1.3399 1.1248-0.30212 0.47617-0.60425 0.90801-0.95235 1.4712 0.52051-0.13136 0.65022 0.08704 0.60753 0.52051 0.60425 0.08538 0.64858-0.38915 0.82099-0.7356 0.0427-0.08867 0.08702-0.26272 0.17241-0.30541 0.38915-0.34482 0.82099-0.64694 1.2528-0.9934 0.08703-0.08702 0.08703-0.26272 0.08703-0.39079 0-0.04269-0.21838-0.04269-0.3481-0.08702 0.38915-0.43348 0.95235-1.1658 1.3399-1.642 0.21674-0.13136 0.43184-0.30541 0.43184-0.43512-0.0427-0.47617 0.25943-0.60425 0.60753-0.7783-0.17405-0.13136-0.21838-0.25779-0.21838-0.30048z" fill="#dd3735" stroke-width="1.642"/><path d="m29.864 54.068c-0.17241 0.30212-0.34481 0.56156-0.51722 0.86532l-0.25943-0.13136c-0.17241 0.9934-0.7783 1.8587-1.3825 2.0311 0.17241 0.08703 0.34482 0.17405 0.47617 0.13136 0.12807-0.04433 0.21346-0.26272 0.30048-0.39079l1.1658-1.688 0.39079-0.65022-0.17241-0.17241zm-14.387 18.994c0.21674 0 0.43348 0.04269 0.68963 0.04269 0-0.17241 0.21838-0.13136 0.21838-0.30212h0.13136c0 0.21674 0.04269 0.38915 0.04269 0.60753h-0.90637c-0.04433-0.04433-0.21674-0.30541-0.17405-0.3481zm-0.34482-1.9901c-0.13136-0.13136-0.34481-0.25943-0.34481-0.38915-0.04433-0.17076 0.08538-0.38586 0.21346-0.6026 0.08867 0.30212 0.13136 0.56156 0.21674 0.86532-0.04433 0.04104-0.08702 0.08538-0.08702 0.12807zm1.0804-2.77c0.17241 0.43677 0.34482 0.91294 0.51886 1.3464-0.04269 0-0.30212 0.13136-0.34482 0.17241-0.17241-0.43348-0.38915-0.90966-0.56156-1.3415 0.04269-0.0427 0.30212-0.17405 0.38915-0.17405zm96.187 41.368c0.21345-0.0854 0.47288-0.13137 0.82099-0.21346-0.39081 0.30049-0.69292 0.51722-0.95237 0.77666-0.0443-0.0427-0.087-0.087-0.13135-0.087 0.087-0.17241 0.17406-0.30212 0.26273-0.47617zm-53.111-91.427c0.25779-0.17405 0.47617-0.30376 0.73396-0.47617l0.08538 0.08538c-0.26272 0.34482-0.47617 0.68963-0.77994 1.1248-0.0427-0.30048-0.0427-0.47618-0.08701-0.68963-0.04269 0 0 0 0.04433-0.04269zm12.66 21.892c0.38915-0.17405 0.7783-0.34482 1.2528-0.5632-0.0427 0.25943-0.0427 0.43348-0.0427 0.60753-0.13136-0.04434-0.30376-0.08867-0.43348-0.08867-0.25943 0.04433-0.7356 0.39079-0.95235 0.43348-0.04104 0 0.17405-0.34482 0.17405-0.38915zm32.413 36.692c0.0854 0.43184 0.90637 0.64858 0.0854 1.0804 0.13135 0.09031 0.25779 0.13136 0.3875 0.22002 0 0.04434-0.0427 0.13136-0.0854 0.17405-0.087 0.04105-0.25943 0.12807-0.34481 0.0821-0.0443 0-0.13135-0.17076-0.13135-0.25779 0-0.38915 0.0443-0.7783 0.087-1.2972z" fill="#dd3735" stroke-width="1.642"/></svg>
