<svg xmlns="http://www.w3.org/2000/svg" viewBox="0 0 128 128"><path d="M21.005 32.694c.174.131.476.217.174.476-.217.302-.476.562-.649.908-.172.304-.302.39-.561.174.345-.563.69-1.083 1.034-1.56zm86.852 45.347c0 .128.043.213.043.345.087-.173.087-.26.131-.345zm0 .388v-.043zm-8.814 16.875l-7.52-41.71c-.128-.042-.3-.127-.605-.214.087.172.132.302.174.432.214-.043.303-.043.388-.085 0-.043 0-.086.044-.132l7.52 41.713zm-7.778-51.098c-.043.128-.043.259-.043.389 0-.132 0-.263.046-.391zm.043.863c-.043 0-.043 0-.086-.046v.043c.046.043.046.043.089 0zm-.086.345v-.304c-.126.043-.256.043-.43.087.217.082.433.128.433.214z" fill="#dd3735"/><path d="M127.73 55.678c-.085-1.688-.128-3.376-.302-5.062-.302-2.294-.604-4.63-1.123-6.88-.39-1.86-1.035-3.635-1.685-5.409-.82-2.077-1.642-4.197-2.68-6.187-1.684-3.202-3.888-6.059-5.919-9.044-1.343-1.904-3.07-3.461-4.368-5.408-.734-1.125-1.814-2.076-2.894-2.94-1.73-1.387-3.544-2.643-5.358-3.853-1.383-.953-2.765-1.86-4.237-2.683C98 7.56 96.746 7.04 95.536 6.478c-1.383-.649-2.723-1.429-4.278-1.73-.39-.083-.735-.214-1.125-.346-.993-.344-1.944-.734-2.939-1.037-1.51-.476-2.98-1.038-4.536-1.429-1.508-.389-3.064-.647-4.62-.865C76.31.816 74.54.726 72.808.557c-1.123-.131-2.246-.26-3.327-.302C67.84.169 66.156.169 64.514.127c-.821-.045-1.685-.132-2.506-.087a36.856 36.856 0 00-3.76.345c-1.209.13-2.419.344-3.584.52-1.424.172-2.85.26-4.276.434-1.34.174-2.723.433-4.06.65-.477.087-.953.26-1.43.345-1.034.216-2.114.303-3.152.65a86.87 86.87 0 00-5.53 1.904c-1.686.693-3.328 1.429-4.926 2.294-1.642.907-3.199 1.987-4.753 3.028a74.48 74.48 0 00-4.368 3.158c-1.38 1.083-2.677 2.293-3.931 3.505-.69.69-1.253 1.514-1.901 2.292-1.08 1.256-2.16 2.467-3.197 3.765-.86 1.084-1.642 2.207-2.463 3.334-1.467 1.986-2.72 4.108-3.885 6.23-.476.865-.908 1.73-1.34 2.594-.649 1.297-1.34 2.553-1.944 3.894-.434.91-.779 1.905-1.038 2.9A380.708 380.708 0 00.7 48.286C.181 50.19.051 52.18.01 54.128c-.044 1.73.128 3.419.3 5.15.045.433-.213.952.303 1.296-.172.477-.043.74.213.821-.298.477.132.782-.039 1.216-.044.085.131.257.213.387 0 .131-.04.304 0 .434.046.389.219.778.219 1.211 0 .302.258.649.345.953.042.128 0 .345-.087.432-.26.302-.217.561.172.735.218.562.131.821.089 1.084.085.387-.045.517 0 .604.345.693.476 1.471.517 2.25 0 .174.087.348.174.563.043 0 0 .82 0 .82.213-.127.39-.17.604-.257.132.562.26 1.084.432 1.56.217.345.217.515.131.558.173.778.258 1.514.559 2.25 0-.821-.082-1.642-.214-2.422.605.217 1.123.432 1.47.432.044-.132.087-.303.131-.39-.26-.257-.476-.646-.735-.906.087.345 0 .476 0 .608-.173-.089-.39-.176-.605-.263.173-.214.345-.432.605-.69 0-.39-.214-.739-.821-.694.259-.086.518-.214.82-.302.477-.258-.042-.734-.042-1.34.043-.734-.39-1.47-.519-2.25-.217-1.21-.172-3.028-.302-4.24-.26-.216-.476.345-.519.39a71.38 71.38 0 01.345 3.115c-.258-.866-.432-1.818-.647-2.857-.044.303-.087.433-.087.607-.214.214-.043.476.087.778-.302-.131-.649-.085-.649-.085v1.212c-.43-.434-.558-.779-.776-1.084-.086-.345-.132-.69-.214-1.034.082-.219 0-.348 0-.476-.046-.306-.088-.65-.131-1.041.043-.043-.043-.69-.043-.69.345.04.563.082.778.082-.431-.558-.13-.906.045-1.253.087-.174.389-.213.476-.39.345-.65.908-1.166.908-1.99 0-.39.131-.822.172-1.212.087-.736.173-1.472.214-2.207.089-.953 0-1.905.218-2.813.348-1.51.78-3.026 1.255-4.542a48.262 48.262 0 011.166-3.202c.648-1.688 1.254-3.375 2.075-4.975 1.166-2.338 2.506-4.587 3.803-6.88.82-1.428 1.685-2.77 2.594-4.154.862-1.341 1.724-2.726 2.721-3.982 1.384-1.773 2.896-3.418 4.581-4.89 1.73-1.556 3.371-3.157 5.228-4.585a52.515 52.515 0 017.688-4.936c2.205-1.166 4.494-2.079 6.785-2.944 1.47-.562 3.067-.821 4.58-1.298 1.728-.563 3.457-.82 5.271-.865 1.166-.044 2.291-.174 3.457-.304a87.607 87.607 0 003.198-.3c-.13.172-.174.26-.216.345-.473.693-.992 1.385-1.468 2.077-.39.563-.821 1.169-1.21 1.73-.693.912-1.429 1.82-2.076 2.772-.993 1.429-1.901 2.9-2.939 4.327-1.034 1.384-2.16 2.683-3.24 4.022-1.425 1.862-2.765 3.766-4.19 5.626-1.297 1.773-2.676 3.464-3.93 5.238-1.124 1.555-2.119 3.202-3.2 4.8-1.597 2.38-3.196 4.715-4.794 7.096a447.511 447.511 0 01-3.803 5.409c-.087.13-.216.17-.345.257-.344.562-.344.866-.476 1.125-.344.649-.69 1.297-1.08 1.905-.217.345-.519.647-.778.993-.043-.519.69-.778.344-1.428-.213.348-.431.65-.646.996l-.52 1.035c.173.131.477.218.173.476-.131.218-.26.476-.39.695.218-.132.346-.26.477-.434 0 .476-.26.864-.476 1.253-.173.345-.604.607-.906.865.042.045.344.174.389.217.389-.131.519-.345.563-.217.131-.172.26-.302.302-.432.17-.433.43-.778.862-.952.174-.087.302-.217.432-.345 1.297-1.343 2.637-2.64 3.803-4.069 1.816-2.208 3.458-4.499 5.188-6.748.733-.952 1.598-1.905 2.375-2.814.128.995.042 1.945 0 2.857-.132 1.599-.217 3.201-.345 4.843-.044.649 0 1.298-.044 1.948 0 .172-.132.302-.132.476 0 .432.132.908.132 1.341-.132 1.601-.306 3.158-.436 4.759-.044.345.128.693.214.997-.214 2.334.263 4.802-.128 7.269.302-.477.389-.779.389-1.08.041-.26 0-.52 0-.822v-.433c.041-.78.213-1.601.128-2.381-.087-.866-.087-1.687.087-2.51.087-.344-.043-.777.174-1.21v.648c-.043 2.463.044 4.93-.3 7.397-.045.216.131.607-.345.563-.391.778.085 1.341-.345 1.773-.089.087.082.476.126.736-.174.52-.174.52.086.563.042.952.131 1.816.172 2.726.69-1.642.345-3.333.65-5.021.043.692.087 1.385.043 2.118 0 1.128-.043 2.208-.085 3.333 0 .217-.045.433-.087.65-.132.608-.173 1.212-.39 1.773-.172.434-.085 1.084-.085 1.601v1.647c.173.736-.044 1.125.086 1.557-.132.435-.173.565-.132.694l.132.649c.865-.087.476.563.82.908-.259.348-.172.476-.172.652 0 .389-.04.736-.085 1.125 0 .995-.043 1.99-.043 2.942 0 .131.043.258.043.388 0 .088-.043 1.215-.043 1.215.087.128 0 .257-.131.387-.041 0-.171-5.495-.171-5.495h-.649c-.085 2.594.132 4.93-.344 7.356-.52.04-.69.128-1.255.128-1.34 0-2.68 0-4.02.042-1.599 0-3.152.043-4.753.043-.775 0-1.596.089-2.374.089-1.038 0-2.119-.132-3.153-.132-1.6 0-3.156.132-4.755.174-1.166.043-2.332.043-3.498.087-.78.042-1.56.083-2.334.171-.345.043-.649.173-1.08.302-.132 0-.433-.042-.69 0-.436.087-.821.345-1.257.434-.648.131-.82.302-.735.952v.432c-.043.085.952-.131.952-.131-.089 0-.131.26-.263.476.349-.132.564-.217.78-.302.649.303 1.21.131 1.728.262 1.684.43 3.412.608 5.14.777 1.124.087 2.204.131 3.327.173 1.598.087 3.197.174 4.795.174 1.34 0 2.637-.132 3.974-.132 1.855 0 3.717.086 5.574.132.39 0 .821-.046 1.253-.046h3.153c2.81-.086 5.618-.132 8.428-.214 1.6-.046 3.243-.131 4.84-.176l4.926-.13c1.902-.044 3.803-.044 5.662-.083 1.425 0 2.808-.05 4.236-.09 1.596-.043 3.238-.173 4.837-.258.866-.044 1.731-.131 2.595-.217 1.037-.085 2.118-.213 3.152-.258 1.557-.088 3.156-.131 4.713-.218 1.944-.128 3.888-.3 5.875-.345 1.816-.085 3.673-.043 5.489-.085 1.6-.045 3.199-.132 4.84-.174l2.726-.132s1.813-.042 2.721-.131c1.555-.085 3.11-.258 4.667-.3.991-.045 1.986 0 2.98-.045 1.597-.043 3.24-.131 4.839-.131.602 0 1.25.088 2.03.131-.346.304-.562.476-.822.693.173.043.345.131.52.217-.26.172-.477.213-.69.213-.09.219-.176.306-.263.74h.778c-.302 0-.562.388-.864.648-.344-.089-.648 0-.82.476.301.17.259.3.216.476-.519.17-.908.345-.69.906-.175.086-.39.173-.607.303-.214.344-.604.431-.519.908.174.04.345.131.476.17-.216.087-.432.217-.648.303-.777.476-.43.692-.258.91-.131.086-.26.172-.39.216.086.39.214.476.259.476-.173.128-.39.302-.65.519-.13.39-.303.561-.475.82-.173.26-.26.608-.476.866-.907.997-1.555 2.168-2.721 2.944-.434.304-.821.693-1.21 1.084-.779.734-1.47 1.557-2.29 2.25-1.08.908-2.201 1.729-3.37 2.551-1.424.995-2.849 1.99-4.276 2.943-.778.517-1.642.906-2.463 1.382-.82.476-1.6.91-2.42 1.384-.52.345-.995.821-1.557 1.084-1.425.608-2.939 1.125-4.407 1.688-1.428.608-2.463 1.125-3.543 1.514a24.39 24.39 0 01-3.068.82c-.344.09-.735 0-1.124.045-.736.132-1.47.306-2.206.391-1.9.26-3.802.433-5.702.693-1.125.131-2.205.345-3.328.476-.777.043-1.598-.043-2.376-.043-.562 0-1.166.132-1.73.045-.906-.132-1.814-.345-2.722-.52-.213-.042-.519-.13-.69-.042-.344.174-.65-.085-.996 0-.213.044-.43-.131-.647-.131-.174-.041-.39.046-.608 0-.476-.128-.906-.3-1.428-.258-.514.043-1.034-.217-1.593-.345-.78-.174-1.51-.345-2.292-.52-.3-.087-.558-.217-.862-.39-1.125 0-1.86-.042-2.552-.303-.604-.214-1.165-.517-1.814-.43-.17.042-.3-.043-.476-.043-.131-.174-.258-.52-.386-.52-.864.044-1.382-.69-2.118-.909-.388-.131-.69-.563-1.079-.693-.952-.389-1.727-1.21-2.808-1.34-.345-.044-.69-.216-1.08-.344.131.17.213.3.345.43-1.253-.608-2.419-1.297-3.586-1.947-.171-.043-.3-.214-.43-.303l-1.166-.778c-.649.132-.908-.131-1.084-.217-1.166-.82-2.504-1.341-3.629-2.25-.476-.39-1.034-.65-1.38-1.125-.607-.736-1.34-1.255-2.162-1.687-.647-.345-1.251-.735-1.855-1.124-.304-.217-.608-.477-.608-.953 0-.304-.128-.607-.517-.433-.172-.26-.345-.562-.561-.649-.52-.213-.864-.607-1.253-.952-.39-.345-.69-.821-1.166-.994-.865-.344-1.384-1.08-1.901-1.686-1.212-1.428-2.293-2.988-3.416-4.499-.087-.131-.26-.218-.389-.348.172.476.39.865.604 1.297-.43-.172-.732-.476-.991-.778-.045.044 2.98 5.02 2.98 5.02.262.389.476.78.735 1.168a1.335 1.335 0 01-1.297-.692c-.387-.69-.82-1.124-1.685-1.035a7.535 7.535 0 01-.213-.952c-.176 0-.304 0-.608-.045a87.426 87.426 0 011.687 2.726c-.219-.131-.345-.217-.435-.26.776.822 1.338 1.861 2.331 2.382.217.993 1.34 1.47 1.6 2.422-.214-.045-.391-.087-.608-.132-.345-.432-.734-.864-1.121-1.34.085.302.213.562.387.779.519.648.995 1.297 1.6 1.86.216.22.518.307.518.696.345.173.476.214.604.214.09.262-.04.652.477.565.344.648.69.648 1.165.433.564.563.867.608 1.255.263 0 .213.043.43.043.604.172-.087.131-.217.131-.433.213.172.345.259.43.344.432.608.821 1.17 1.425 1.646.821.693 1.557 1.428 2.332 2.077 1.514 1.256 3.202 2.295 4.885 3.246 2.075 1.17 4.064 2.424 6.18 3.547 2.549 1.343 5.271 2.252 8.079 2.901 1.037.217 2.03.432 3.07.69.903.262 1.813.652 2.721.867 1.383.303 2.808.563 4.19.82.3.045.608.09.953.132.386.087.86-.087.947.044.217.345.39.171.649.128.302-.087.648-.087.993-.087 1.21.043 2.376.302 3.586.217.263 0 .65-.218.867.214.388-.173.604-.173.777-.214.046.388 0 .388-.082.43-.089.043-.219.087-.391.217 1.555.302 3.024.345 4.318 0 2.25.172 4.194-.087 6.053-.736.172.217.302.52.561.087.086-.13.302-.175.476-.218.388-.087.864-.26 1.209-.131.39.131.52-.214.82-.214.521 0 .996-.044 1.472-.131.26-.043.519-.173.821-.26a2.093 2.093 0 00-.952-.218c.52-.26.995-.476 1.47-.69-.086.129-.173.3-.344.3h.603c-.132 0-.304.39-.52.65 1.554-.39 2.98-.736 4.364-1.084-.477-.907.517-.603.863-1.123-.432.131-.863.26-1.297.345 1.47-.734 2.982-1.383 4.45-2.032-.214.26-.476.39-.862.608.26.04.432.04.561.082.69.218.52-.43.734-.821.821 0 1.166-.128 1.555-.26.432-.13.864-.259 1.298-.431.69-.302 1.338-.69 2.029-1.035.131-.046.345 0 .519 0 .476-.305.647-.564.777-.522.607.087 1.034-.131 1.208-.69.302-.218.519-.39.734-.522.95-.518 1.855-1.037 2.808-1.556.345 0 .519 0 .604-.044a18.797 18.797 0 001.601-.866 3.71 3.71 0 01-.432-.213c.43-.089.558-.132.821-.219 1.035-1.215 2.463-2.036 3.542-2.988.476-.043.476-.172.476-.258.17-.217.345-.476.558-.65.953-.865 1.987-1.6 2.852-2.509a61.53 61.53 0 003.586-3.898c1.035-1.212 2.076-2.422 2.94-3.763 1.21-1.86 2.246-3.765 3.326-5.715.778-1.382 1.47-2.766 2.25-4.15.082-.132.257-.304.387-.304 1.166-.132 2.335-.214 3.458-.345.26-.043.562-.213.821-.345-.131-.217-.217-.476-.345-.693-.174-.262-.433-.476-.607-.739-.171-.213-.3-.476-.43-.734-.132-.213-.26-.387-.39-.607-.262-.476-.52-.952-.738-1.468-.043-.131-.132-.345-.086-.476.778-1.687 1.08-3.504 1.815-5.192.734-1.73.952-3.678 1.297-5.539.302-1.773.476-3.546.69-5.32.13-1.254.303-2.466.344-3.72.263-1.99.174-3.852.132-5.714-.043-1.642-.132-3.33-.214-4.976zM19.32 108.94c-.302-.345-.562-.736-.864-1.08l.132-.132c.47.52.947 1.04 1.422 1.603-.26-.132-.562-.217-.69-.391zm.69.39c.131-.044.262-.044.39-.086.132.217.217.476.345.735-.604-.044-.906-.303-.734-.648zm44.94 17.87v-.13c.822-.086 1.598-.173 2.42-.258v.126c-.822.131-1.598.214-2.42.26zm10.887-1.124c-.603.131-1.252.218-1.856.305-.217.043-.476.26-.561-.131-.087.044-.174.044-.26.089.214.647.734.128 1.166.387-.952.132-1.855.217-2.765.345v-.085c.263-.043.563-.087.82-.132v-.128a12.66 12.66 0 00-1.296-.087c-.127 0-.3.174-.43.217-.173.043-.345.087-.562.087-.734.043-1.468.043-2.16.085-.045 0-.132-.042-.175-.042v-.132c2.895-.387 5.747-.776 8.642-1.166.044.086.044.173.087.258-.26 0-.432.09-.649.132zm.65-.43c.995-.132 1.905-.217 2.854-.345-1.987.562-2.636.647-2.852.345zM38.85 38.285c1.38-1.905 2.808-3.81 4.19-5.755.432-.567.777-1.173 1.209-1.734.131-.174.303-.26.519-.434l-.043-.082c.172-.218.345-.394.432-.565.22-.344.35-.735.522-1.124.043-.083.172-.17.172-.17.608.303.608-.344.821-.563a30 30 0 001.123-1.341c.26-.345.52-.649.736-1.038.043-.131-.087-.345-.131-.52h-.129c.132-.086.26-.214.39-.303.042 0 .042 0 .085-.042.26-.391.519-.78.778-1.127.518-.69 1.08-1.382 1.683-1.986-.085.213-.172.431-.26.604.045 0 .045.044.088.044.519-.693 1.08-1.341 1.6-2.036-.045-.041-.088-.085-.132-.085-.214.216-.388.433-.604.65-.043-.044-.086-.087-.132-.087.435-.563.867-1.125 1.297-1.773.087.13.174.302.345.648.176-.432.348-.734.476-1.038-.128.132-.3.26-.43.391l-.131-.131.778-1.166c.821-1.169 1.642-2.38 2.463-3.55.304-.432.69-.778.953-1.212.82-1.642 2.118-2.942 3.11-4.456.216-.302.518-.562.778-.821.213-.263.389-.174.561.043 1.166 1.47 2.332 2.985 3.498 4.456.867 1.084 1.73 2.118 2.551 3.244.994 1.386 1.944 2.77 2.94 4.155 1.122 1.6 2.246 3.202 3.326 4.843 1.642 2.426 3.197 4.85 4.839 7.271 1.21 1.773 2.42 3.506 3.586 5.28h-2.207c-2.03-.042-4.105-.214-6.134-.129-2.765.131-5.573.434-8.338.65-3.5.304-7.044.345-10.542.345-1.256 0-2.51.176-3.76.263-1.514.085-2.984.172-4.496.213-1.773.089-3.497.132-5.27.176-.996.043-2.032 0-3.112 0zm49.56 19.9v.392c-.043 0-.086.044-.173.044-.172-.608-.344-1.258-.561-1.864-.432-1.256-.908-2.512-1.686-3.635-.867-1.21-1.642-2.463-2.51-3.72-.213-.303-.518-.562-.778-.82-.908-.997-1.816-2.036-2.981-2.77a35.285 35.285 0 00-5.403-2.772c-.518-.213-.993-.476-1.51-.778h1.034l7.39-.131c1.598-.041 3.155-.041 4.753-.128.387 0 .604.13.82.476.388.648.777 1.297 1.21 1.947.044.085.13.214.13.345 0 .952 0 1.947.043 2.9.041.995.132 1.947.171 2.942 0 .995-.087 2.033-.043 3.07.045 1.473.087 2.989.087 4.5zM41.917 43.698c2.031-.087 3.973-.217 5.964-.304 1.551-.087 3.152-.131 4.705-.217.649-.04 1.255-.082 1.902 0-.69.348-1.383.695-1.987 1.127-.778.519-1.51 1.21-2.29 1.773-.78.562-1.472 1.254-2.119 1.99-.82.993-1.729 1.859-2.594 2.811-.608.693-1.297 1.342-1.814 2.077-.734.953-1.383 1.987-2.074 3.07.216-4.11.476-8.176.302-12.33zM70.134 85.32c-1.384.345-2.808.735-4.236.908-1.209.174-2.463.131-3.716.131-1.127 0-2.207-.043-3.33-.131-1.253-.128-2.506-.258-3.716-.821-1.04-.476-2.118-.908-3.153-1.429-1.04-.519-2.077-1.123-2.857-2.075-.558-.695-1.338-1.256-2.029-1.862.131.519.432.952.908 1.254-.217.26-.519.132-.952-.563-.128.087-.258.131-.345.174.131-.304.26-.607.389-.865-.172-.345-.39-.736-.562-1.084a36.407 36.407 0 01-.993-1.729c-.087-.131-.087-.26-.172-.389a9.676 9.676 0 01-.608-.78c-.345-.517-.647-1.079-1.079-1.6 0 .132.045.26.045.434-.045 0-.087.043-.087.043l-.91-2.207c-.043 0-.043 0-.085.043l.776 2.857c-.043 0-.085.04-.131.04-.127-.17-.256-.344-.345-.557-.085-.348-.345-.348-.558-.219-.132.087-.219.39-.174.52.303.735.648 1.47.995 2.206.085.26.172.476.302.735.044.087.174.173.174.303.174.344.304.69.519.995.389.519.82 1.037 1.21 1.556.386.52.73 1.084 1.077 1.601.043.087.172.087.213.132.219.648.953 1.123 1.472.863.131.995 1.21 1.342 1.642 2.294-.52-.217-.907-.39-1.253-.563-.045.042-.045.085-.089.172.519.26 1.038.52 1.51.821.436.263.868.52 1.257.821.519.476 1.125.74 1.855.91-.04-.132-.082-.176-.082-.176 1.209.563 2.463 1.17 3.412 1.642-4.494.089-9.29.176-14.26.263 0-.821-.044-1.601-.044-2.424 0-.345.086-.648.041-.995-.13-1.987-.13-3.98-.389-5.927-.257-2.076-.257-4.11-.213-6.19.04-1.122-.044-2.29-.089-3.416 0-1.514 0-2.988.046-4.499 0-.217.087-.389.174-.607h.132c.04.088 0 .218.082.262.131.132.348.345.435.302.258-.174.647-.344.734-.607.213-.517.302-1.08.302-1.6 0-.387.174-.646.345-.907.088-.132.131-.26.218-.432-.172-.132-.345-.217-.561-.39.174-.476.13-1.039.78-1.297.085-.044.085-.262.13-.39.042-.35.083-.74.129-1.084.085.131.131.172.213.258.046-.086.089-.132.089-.132 0-.17-.043-.517 0-.517.519-.087.302-.648.562-.908.04-.046-.045-.176-.045-.263 0-.085 0-.213.043-.213.603-.131.517-.78.906-1.084.132-.087.173-.213.345-.432.345.605-.26.908-.302 1.34.732-.432.95-1.47.517-1.773.173-.131.345-.302.476-.476.477-.519.992-.995 1.426-1.514.303-.388.476-.864.778-1.253.174-.217.519-.389.778-.52.779-.43 1.51-.907 1.987-1.642.087-.087.217-.173.345-.26.131-.087.39-.087.433-.217.045-.085-.085-.302-.172-.431.17-.087.345-.26.69-.434-.132.26-.173.434-.26.608l.214.213c.39-.302.995-.647 1.384-.906 0-.041-.217-.214-.217-.214-.258.132-.647.345-1.034.52.082-.132.082-.218.131-.26.603-.39 1.207-.779 1.855-1.084 1.511-.69 3.025-1.382 4.537-2.031.26-.131.608-.043.908-.043.128 0 .214 0 .345-.042.69-.217 1.383-.434 2.074-.608.3-.085.645-.128.952-.128 1.292.041 2.59.041 3.885.128.562.043 1.08.172 1.6.345.646.218 1.338.52 1.943.82.734.395 1.426.825 2.119 1.301 1.252.821 2.418 1.73 3.671 2.467 1.21.735 2.161 1.73 2.94 2.857.952 1.34 2.03 2.551 2.462 4.195l.647 2.857c.132.519.434 1.038.304 1.642-.218 1.084-.39 2.208-.563 3.29-.086.435-.173.87-.128 1.298.082 1.346-.435 2.512-.953 3.724-.174.389-.433.78-.648 1.211.042.043.302.174.345.174l.389-.778c.044 0 .044 0 .087.044-.217.605-.39 1.255-.608 1.86-.515 1.342-1.034 2.727-1.683 4.024-.345.735-.952 1.341-1.382 2.036-.43.604-.777 1.253-1.209 1.816-.389.476-.776.952-1.297 1.297-1.166.865-2.376 1.73-3.629 2.424-.776.476-1.684.735-2.548.952zm-23.032-2.299l-.043.044c-.09-.042-.22-.085-.305-.172l-1.038-1.56c-.085-.128-.131-.258-.085-.43.476.735.952 1.428 1.47 2.118zm26.879 5.927c1.942-.82 3.542-1.986 5.008-3.33.218-.216.433-.431.693-.607 1.816-1.123 3.152-2.681 4.364-4.412 1.383-1.99 2.29-4.24 3.415-6.36a4.48 4.48 0 01.258-.476c-.087 4.933.476 9.779 1.123 14.669-4.881.172-9.852.344-14.863.518zm43.813-1.297c-.043.087-.132.174-.173.263-.044-.089-.044-.218-.087-.394-.259.695-.82.348-1.21.348-2.331.044-4.709.044-7.044.044-2.246 0-4.535 0-6.781.04-.736 0-1.514.172-2.25.217-1.77.085-3.541.13-5.313.172-.131 0-.26-.214-.476-.388a2.972 2.972 0 01-.26.39c-.046-.086-.131-.171-.218-.3a2.52 2.52 0 01-.131.344h-.125c-.087-.604-.26-1.166-.26-1.773 0-1.298.132-2.595.173-3.895.044-.604 0-1.166 0-1.73.174.13.304.218.476.344.085-.17.172-.299.26-.427 0 0-.088-.046-.175-.131.082-.045.171-.132.171-.174.043-.132.131-.26.131-.345 0-.304-.088-.563-.13-.821.042 0 .085 0 .13-.046l.258 1.297h.132c-.174-.3.387-.561-.087-.906-.043-.045.042-.304.042-.434-.131-.257-.213-.517-.345-.863.043-.043.173-.087.303-.132-.173-.085-.303-.17-.432-.213.432-.391.432-.608.042-1.04.09-.04.175-.04.175-.082 0-.39 0-.78-.086-1.165-.087-.437.131-.953-.519-1.216.043.132.087.217.173.345 0 0-.132.045-.26.132-.561-.52-.213-1.216-.345-1.992.303.087.52.174.734.263-.087-.306-.302-.652-.431-1.041h-.176v-2.857c0 .044.302.044.476.088 0-.044.041-.087.041-.131-.131-.173-.304-.345-.476-.562l.087-.087c-.345-.43-.172-1.034-.172-1.165v-3.03c.433.434-.214.995.433 1.255v-.432h-.044c-.043-.649-.043-1.298-.086-1.948h-.085c-.044.089-.044.132-.089.219h-.085l.26-10.341c.431.561.906 1.083 1.208 1.642.995 1.819 2.29 3.377 3.5 5.02 1.038 1.43 1.987 2.986 2.94 4.457 1.165 1.773 2.289 3.547 3.456 5.32a133.673 133.673 0 002.676 3.984c.821 1.165 1.688 2.292 2.552 3.418.732.995 1.51 1.99 2.245 2.985.865 1.212 1.729 2.422 2.594 3.591.43.605.906 1.21 1.38 1.816.262.345.65.608.909.821-.041 0-.086 0-.17-.042.13.172.213.302.301.389.476.26.52.519.26.91zm2.203-10.814v-.303c0 .085.043.213 0 .302zm1.47-19.08c-.044 0-.302-.262-.345-.305-.044.131 0 .26-.087.433-.044-.128-.345-.085-.345-.213-.044.604.258 1.21.214 1.816.131-.087.648-.131.778-.26a.338.338 0 00.174.086c-.865.65-.648 1.297-.26 2.036.086.17.346.517.086.864-.085.087.044.344.087.563h.127v.082l-.39.131c-.085-.131-.602-.387-.602-.607v2.21c.432.131.432.735.604 1.04.09-.132.131-.22.176-.346l.044.04c-.044.26-.087.519-.174.78-.085.387-.172.734-.213 1.123 0 .043.082.131.082.172-.473 1.084-.214 2.293-.386 3.416-.132.82 0 1.69-.087 2.555-.089.735-.263 1.513-.434 2.249-.044.131-.131.172-.345.26.086-.52.043-.866-.044-1.342-.046 0-.607-.302-.652-.302 0 .607.345 1.428.476 2.118-.13-.043-.648-.345-.69-.345-.088.52-.088 1.212-.13 1.773-.045.434-.432.821-.477 1.298 0 .262.302.433.26.867h.345c0-.864.39-1.642.39-2.552h.128c.045.087.174.174.132.217-.087.476-.263.995-.217 1.471 0 .26.213.519.131.821-.088.263-.131.52-.175.91-.045-.217-.087-.302-.087-.432-.043 0-.432-.045-.476-.045-.043.26.303.52.259.736-.043.043-.085.043-.172.087l-1.426-2.079a436.492 436.492 0 01-3.372-4.975 10.364 10.364 0 01-.78-1.297 60.66 60.66 0 00-4.45-6.622c-1.251-1.6-2.25-3.333-3.415-5.016-1.077-1.601-2.158-3.16-3.238-4.762-.39-.517-.864-.993-1.21-1.557-1.122-1.773-2.119-3.59-3.238-5.364-.953-1.473-1.987-2.901-2.982-4.328-.345-.476-.69-.997-1.038-1.516a.601.601 0 01-.085-.299c-.087-.952-.174-1.904-.217-2.812 0-.866.087-1.73.087-2.64v-.779c0-.217.041-.389.041-.607.041-.041.085-.128.128-.171-1.253 0-2.55-.046-3.803 0-.82.04-1.252-.306-1.814-.911-1.642-1.86-2.852-3.98-4.277-5.97-1.34-1.905-2.723-3.767-4.105-5.628-1.125-1.514-2.25-2.985-3.371-4.499-1.255-1.73-2.463-3.461-3.76-5.192a627.963 627.963 0 00-4.754-6.23c-.739-.952-1.56-1.86-2.38-2.856.562.088 1.083.174 1.6.218l2.076.131c1.555.127 3.11.214 4.663.427 1.297.176 2.594.435 3.934.65 2.854.477 5.661 1.257 8.384 2.165 1.6.518 3.152 1.211 4.712 1.86 3.498 1.429 6.826 3.16 10.11 4.975 1.035.563 1.642 1.471 2.417 2.294 1.125 1.17 2.25 2.337 3.329 3.547 1.25 1.428 2.417 2.9 3.628 4.37 1.08 1.298 2.2 2.595 3.284 3.895.345.39.608.866.907 1.298.69 1.039 1.47 2.036 2.074 3.159.43.824.69 1.776.991 2.684.43 1.342.864 2.64 1.298 3.98.3.996.558 2.037.775 3.071.174.695.13 1.429.344 2.118.263.913 0 1.905.263 2.816.041.087.082.217.128.304.173.17.302.345.043.604-.041.043-.041.214 0 .345.088-.085.131-.172.218-.302 0 .087.041.131.041.172 0 .171-.044.345 0 .518 0 .085.086.213.128.302.087-.089.173-.132.345-.263.39 1.473.434 2.944.434 4.458 0 1.429.257 2.857-.345 4.241.128-.476-.174-.911-.044-1.343z" fill="#dd3a0a"/><path d="M104.34 50.427c.041 0 .085.044.085.044l-.044-.049c0-.041 0-.041-.043 0zm6.826 42.751c-.476.345-.953.649-1.557.778-.046-.042-.046-.087-.088-.131.476-.302.993-.604 1.47-.908.043.082.13.17.173.258zM30.148 34.546c.476-.603.952-1.208 1.468-1.814.04.042.385.131.43.172-.476.608-1.125 1.429-1.6 2.077-.088-.087-.218-.389-.303-.433zM17.874 55.752c-.345-.736-.69-1.516-1.035-2.25.043-.044.345-.174.388-.174.476.69.69 1.511 1.038 2.25 0 0-.345.172-.39.172zm11.02-20.771c-.259.39-.518.824-.778 1.215-.042-.046-.518.17-.561.128.26-.389.906-1.084 1.166-1.471.044.043.087.087.174.131zm77.65 59.973c.04 0 .04-.043.085-.043.302.043.647.086.993.086-.564.389-.91.345-1.083-.043zM28.977 36.798c.046-.131.131-.26.218-.39.085 0 .214-.043.214-.043.175-.303.175-.52.348-.779-.043-.042-.087-.042-.132-.087-.258.178-.517.394-.776.567.087.085.087.131.087.216-.345-.044-.477.132-.649.605-.043.131-.26.174-.476.344-.043.09-.085.306-.173.521l.045.046a.646.646 0 01-.217.131c-.26.258-.561.476-.82.734-.044.132-.086.26-.086.39.303-.303.82-.866 1.21-1.212l.044.044c.173-.26.302-.519.476-.778.041.042.041.085.086.131-.132.345-.26.732-.39 1.079-.09.043-.22.131-.22.087-.172.131-.302.302-.476.432l-.776.519c-.432.389-.864.734-1.34 1.124-.302.477-.604.908-.953 1.472.521-.132.65.087.608.52.604.085.649-.39.821-.736.043-.088.087-.262.172-.305.39-.345.821-.647 1.253-.993.087-.087.087-.263.087-.391 0-.043-.218-.043-.348-.087.39-.434.952-1.166 1.34-1.642.217-.132.432-.306.432-.435-.043-.476.26-.605.607-.779-.174-.131-.218-.257-.218-.3zM29.864 54.068c-.172.302-.345.562-.517.865l-.26-.131c-.172.993-.778 1.859-1.382 2.031.172.087.345.174.476.131.128-.044.213-.262.3-.39l1.166-1.688.391-.65-.172-.173zM15.477 73.062c.217 0 .433.043.69.043 0-.173.218-.132.218-.302h.131c0 .216.043.389.043.607h-.906c-.045-.044-.217-.305-.174-.348zm-.345-1.99c-.131-.131-.345-.26-.345-.39-.044-.17.086-.385.214-.602.088.302.131.562.217.865-.045.042-.087.086-.087.129zm1.08-2.77c.173.437.345.913.52 1.346-.043 0-.303.132-.345.173-.173-.434-.39-.91-.562-1.342.043-.042.302-.174.39-.174zM112.4 109.67c.213-.085.472-.131.82-.214-.39.3-.692.518-.952.777-.044-.043-.087-.087-.131-.087.087-.172.174-.302.263-.476zM59.289 18.243c.257-.174.476-.304.734-.476l.085.085c-.263.345-.476.69-.78 1.125-.043-.3-.043-.476-.087-.69-.043 0 0 0 .044-.042zm12.66 21.892c.389-.174.778-.345 1.252-.563-.042.26-.042.433-.042.607a1.521 1.521 0 00-.434-.088c-.26.044-.735.39-.952.433-.041 0 .174-.345.174-.39zm32.413 36.692c.085.432.906.648.085 1.08.131.09.258.132.387.22a.327.327 0 01-.085.174c-.087.041-.26.128-.345.082-.044 0-.131-.17-.131-.257 0-.39.044-.779.087-1.298z" fill="#dd3735"/></svg>
