<svg xmlns="http://www.w3.org/2000/svg" version="1.1" viewBox="0 0 128 128"><g stroke-width="1.6302"><path d="m24.141 53.547c0.1728 0.13042 0.47276 0.21519 0.1728 0.47276-0.21519 0.29996-0.47276 0.55753-0.64393 0.9015-0.17117 0.30159-0.29996 0.38636-0.55753 0.1728 0.34234-0.55916 0.68468-1.0759 1.027-1.5487zm86.229 45.021c0 0.12716 0.0424 0.21192 0.0424 0.34234 0.0864-0.17117 0.0864-0.25757 0.13042-0.34234zm0 0.38473v-0.04239zm-8.7509 16.754-7.4663-41.41c-0.12716-0.04076-0.29833-0.12552-0.59991-0.21193 0.0864 0.17117 0.13042 0.29996 0.1728 0.42874 0.21193-0.04238 0.29996-0.04238 0.38473-0.08477 0-0.04238 0-0.08477 0.04402-0.13042l7.4663 41.414zm-7.7223-50.732c-0.04238 0.12716-0.04238 0.25757-0.04238 0.38636 0-0.13042 0-0.26083 0.04565-0.38799zm0.04239 0.85748c-0.04239 0-0.04239 0-0.08477-0.04565v0.04238c0.04565 0.04238 0.04565 0.04238 0.08803 0zm-0.08477 0.34234v-0.30159c-0.12552 0.04238-0.25431 0.04238-0.42711 0.0864 0.21519 0.08151 0.43037 0.12716 0.43037 0.21193z"/><path d="m127.27 55.738c-0.0848-1.6758-0.12715-3.3517-0.29996-5.0259-0.29995-2.2774-0.59991-4.5972-1.115-6.8305-0.38636-1.847-1.027-3.6093-1.6726-5.3699-0.8151-2.0622-1.6302-4.1668-2.6605-6.1426-1.6726-3.1789-3.8603-6.0154-5.8769-8.9791-1.3335-1.891-3.0485-3.4365-4.3363-5.3699-0.7287-1.1167-1.8014-2.0606-2.874-2.9181-1.7166-1.3775-3.518-2.6246-5.3193-3.8261-1.3726-0.94552-2.7453-1.847-4.2059-2.6637-1.1574-0.64719-2.4013-1.1623-3.6027-1.7215-1.3726-0.64393-2.7029-1.4183-4.2467-1.7182-0.38799-0.08151-0.73033-0.21193-1.1167-0.34234-0.98627-0.34234-1.9302-0.7287-2.9181-1.0303-1.4998-0.47276-2.9588-1.0303-4.5042-1.4183-1.4965-0.38636-3.0419-0.6423-4.5874-0.85911-1.715-0.25268-3.4723-0.34234-5.1905-0.51025-1.1151-0.13042-2.2301-0.25757-3.3028-0.29996-1.6302-0.08477-3.3028-0.08477-4.933-0.12716-0.8151-0.044015-1.6726-0.13042-2.4877-0.0864-1.2438 0.042385-2.4877 0.17117-3.7332 0.34234-1.1998 0.13042-2.4013 0.34234-3.5587 0.51677-1.4134 0.17117-2.8284 0.25757-4.245 0.43037-1.3302 0.1728-2.7029 0.43037-4.0315 0.64556-0.47276 0.0864-0.94551 0.25757-1.4183 0.34234-1.027 0.21519-2.0997 0.30159-3.13 0.64556-1.8421 0.56079-3.6891 1.2063-5.4905 1.891-1.6742 0.68794-3.3044 1.4183-4.8906 2.2774-1.6302 0.89987-3.1756 1.9725-4.7194 3.0061-1.4607 0.9879-2.9181 2.0182-4.3363 3.1349-1.3694 1.0759-2.6572 2.2774-3.9027 3.4805-0.68468 0.68468-1.2438 1.503-1.8878 2.2758-1.071 1.2471-2.1437 2.4486-3.174 3.738-0.85422 1.0759-1.6302 2.191-2.4453 3.3093-1.4558 1.9725-2.6996 4.0788-3.857 6.185-0.47276 0.85911-0.9015 1.7182-1.3302 2.5757-0.64393 1.2879-1.3302 2.535-1.9302 3.8668-0.43037 0.90313-0.77271 1.891-1.0303 2.8789-0.59828 2.1062-1.1998 4.2548-1.7574 6.3578-0.51514 1.891-0.64393 3.8668-0.68468 5.8002-0.044015 1.7182 0.12716 3.3941 0.29833 5.1123 0.044015 0.43037-0.21193 0.94551 0.29996 1.2879-0.17117 0.47276-0.042385 0.73359 0.21193 0.8151-0.2967 0.47276 0.13042 0.77597-0.039125 1.2063-0.044015 0.08477 0.13042 0.25594 0.21193 0.38473 0 0.13042-0.040755 0.30159 0 0.43037 0.045646 0.38636 0.21682 0.77271 0.21682 1.2031 0 0.29996 0.25594 0.64393 0.34234 0.94552 0.042385 0.12716 0 0.34234-0.0864 0.42874-0.25757 0.29996-0.21519 0.55753 0.17117 0.73033 0.21682 0.55753 0.13042 0.8151 0.088031 1.0759 0.08477 0.38473-0.044015 0.51351 0 0.59991 0.34234 0.68794 0.47276 1.4607 0.51351 2.2334 0 0.1728 0.086401 0.3456 0.1728 0.55916 0.042385 0 0 0.8151 0 0.8151 0.21193-0.12716 0.38636-0.16954 0.59991-0.25594 0.13042 0.55753 0.25757 1.0759 0.42874 1.5487 0.21519 0.34234 0.21519 0.51188 0.13042 0.55427 0.17117 0.77271 0.25594 1.503 0.55427 2.2334 0-0.8151-0.08151-1.6302-0.21193-2.4045 0.59991 0.21519 1.1151 0.42874 1.459 0.42874 0.044015-0.13042 0.0864-0.29996 0.13042-0.38636-0.25757-0.25594-0.47276-0.6423-0.73033-0.89987 0.0864 0.34234 0 0.47276 0 0.60317-0.17117-0.08803-0.38636-0.17443-0.59991-0.26083 0.17117-0.21193 0.34234-0.42874 0.59991-0.68468 0-0.38799-0.21193-0.73359-0.8151-0.68957 0.25757-0.084771 0.51514-0.21193 0.8151-0.29996 0.47276-0.25594-0.042385-0.7287-0.042385-1.3302 0.042385-0.7287-0.38636-1.459-0.51514-2.2334-0.21519-1.2015-0.17117-3.0061-0.29996-4.2092-0.25757-0.21519-0.47276 0.34234-0.51514 0.38636 0.13042 1.0303 0.25757 2.0606 0.34234 3.0925-0.25594-0.85911-0.42874-1.8046-0.6423-2.8365-0.044015 0.30159-0.0864 0.43037-0.0864 0.60317-0.21193 0.21193-0.042385 0.47276 0.0864 0.77271-0.29996-0.13042-0.64393-0.08477-0.64393-0.08477v1.2031c-0.42711-0.43037-0.55427-0.77271-0.77108-1.0759-0.08477-0.34234-0.13042-0.68468-0.21193-1.027 0.08151-0.21682 0-0.3456 0-0.47276-0.045646-0.30322-0.088031-0.64556-0.13042-1.0335 0.042385-0.04239-0.042385-0.68468-0.042385-0.68468 0.34234 0.04075 0.55916 0.08151 0.77271 0.08151-0.42874-0.55427-0.13042-0.89987 0.044015-1.2438 0.086401-0.1728 0.38636-0.21193 0.47276-0.38799 0.34234-0.64393 0.9015-1.1574 0.9015-1.9758 0-0.38636 0.13042-0.8151 0.17117-1.2031 0.0864-0.73033 0.17117-1.4607 0.21193-2.191 0.088031-0.94551 0-1.891 0.21682-2.7925 0.3456-1.4998 0.77434-3.0045 1.2455-4.5091 0.34234-1.0759 0.73033-2.103 1.1574-3.1789 0.64393-1.6758 1.2455-3.3517 2.0606-4.9395 1.1574-2.3214 2.4877-4.5548 3.7755-6.8305 0.8151-1.4183 1.6726-2.7501 2.5757-4.1244 0.85585-1.3319 1.7117-2.7061 2.7012-3.9532 1.3743-1.7606 2.8757-3.3941 4.5483-4.8547 1.7166-1.5454 3.3468-3.1349 5.1905-4.5531 2.3996-1.8519 4.933-3.4821 7.6326-4.9004 2.1894-1.1574 4.4618-2.0638 6.736-2.9229 1.459-0.55753 3.0452-0.8151 4.5482-1.2879 1.715-0.55916 3.4316-0.8151 5.2329-0.85911 1.1574-0.044015 2.2741-0.1728 3.4316-0.30159 1.0303-0.08151 2.0589-0.16954 3.1756-0.29833-0.13042 0.17117-0.1728 0.25757-0.21519 0.34234-0.4695 0.68794-0.98464 1.3759-1.4574 2.0622-0.38636 0.55916-0.8151 1.1607-1.2015 1.7182-0.68794 0.90476-1.4183 1.8063-2.0606 2.7518-0.98627 1.4183-1.8878 2.8789-2.9181 4.2956-1.027 1.3743-2.1437 2.6637-3.2164 3.994-1.415 1.8486-2.7453 3.738-4.1603 5.5851-1.2879 1.7606-2.6572 3.4397-3.9027 5.2003-1.1151 1.5438-2.103 3.1789-3.1756 4.7651-1.5862 2.3638-3.174 4.6819-4.7602 7.0457-1.2455 1.803-2.4893 3.5652-3.7755 5.3699-0.0864 0.13042-0.21519 0.16954-0.34234 0.25594-0.34234 0.55753-0.34234 0.85911-0.47276 1.1167-0.34234 0.64393-0.68468 1.2879-1.0727 1.891-0.21519 0.34234-0.51514 0.6423-0.77271 0.98627-0.04239-0.51514 0.68468-0.77271 0.34234-1.4183-0.21193 0.3456-0.42874 0.64556-0.6423 0.98953l-0.51514 1.027c0.17117 0.13042 0.47276 0.21682 0.17117 0.47276-0.13042 0.21682-0.25757 0.47276-0.38636 0.68957 0.21519-0.13042 0.34234-0.25757 0.47276-0.43037 0 0.47276-0.25757 0.85748-0.47276 1.2438-0.17117 0.34234-0.59991 0.60317-0.89987 0.85911 0.04238 0.04402 0.34234 0.1728 0.38636 0.21519 0.38636-0.13042 0.51514-0.34234 0.55916-0.21519 0.13042-0.17117 0.25757-0.29996 0.29996-0.42874 0.16954-0.43037 0.42711-0.77271 0.85585-0.94551 0.1728-0.0864 0.29996-0.21519 0.42874-0.34234 1.2879-1.3335 2.6181-2.6214 3.7755-4.0396 1.803-2.1926 3.4332-4.4667 5.1514-6.7001 0.72707-0.94552 1.5862-1.891 2.3573-2.7942 0.12716 0.9879 0.04239 1.9318 0 2.8365-0.13042 1.5878-0.21519 3.1789-0.34234 4.8091-0.04401 0.64393 0 1.2879-0.04401 1.9334 0 0.17117-0.13042 0.29996-0.13042 0.47276 0 0.42874 0.13042 0.9015 0.13042 1.3319-0.13042 1.5894-0.30322 3.1349-0.432 4.7243-0.04401 0.34234 0.12716 0.68794 0.21192 0.98953-0.21192 2.3181 0.26083 4.7683-0.12716 7.2169 0.29996-0.47276 0.38636-0.77271 0.38636-1.0727 0.04075-0.25757 0-0.51514 0-0.8151v-0.43037c0.04075-0.77434 0.21193-1.5894 0.12716-2.3638-0.0864-0.85911-0.0864-1.6742 0.0864-2.4909 0.0864-0.34234-0.04238-0.77271 0.1728-1.2031v0.64393c-0.04239 2.4453 0.04402 4.8955-0.29833 7.344-0.04402 0.21519 0.13042 0.60317-0.34234 0.55916-0.38799 0.77271 0.08477 1.3319-0.34234 1.7606-0.08803 0.0864 0.08151 0.47276 0.12552 0.73033-0.1728 0.51677-0.1728 0.51677 0.08477 0.55916 0.04239 0.94552 0.13042 1.803 0.17117 2.7061 0.68468-1.6302 0.34234-3.3093 0.64556-4.9851 0.04239 0.68794 0.0864 1.3759 0.04239 2.103 0 1.1199-0.04239 2.1926-0.08477 3.3093 0 0.21519-0.04402 0.43037-0.0864 0.64556-0.13042 0.60317-0.17117 1.2031-0.38636 1.7606-0.17117 0.43037-0.08477 1.0759-0.08477 1.5894v1.6351c0.17117 0.73033-0.04401 1.1167 0.08477 1.5454-0.13042 0.432-0.17117 0.56079-0.13042 0.68957l0.13042 0.64393c0.85911-0.0864 0.47276 0.55916 0.8151 0.9015-0.25757 0.3456-0.17117 0.47276-0.17117 0.64719 0 0.38636-0.04075 0.73033-0.08477 1.1167 0 0.9879-0.04239 1.9758-0.04239 2.9213 0 0.13042 0.04239 0.25594 0.04239 0.38473 0 0.08803-0.04239 1.2063-0.04239 1.2063 0.0864 0.12716 0 0.25594-0.13042 0.38473-0.04075 0-0.16954-5.4563-0.16954-5.4563h-0.64393c-0.08477 2.5757 0.13042 4.8955-0.34234 7.3033-0.51514 0.04075-0.68468 0.12716-1.2455 0.12716-1.3302 0-2.6605 0-3.9907 0.04238-1.5878 0-3.13 0.04238-4.7194 0.04238-0.76945 0-1.5846 0.08803-2.3573 0.08803-1.0303 0-2.103-0.13042-3.13-0.13042-1.5894 0-3.1332 0.13042-4.7211 0.1728-1.1574 0.04239-2.3149 0.04239-3.4723 0.0864-0.77434 0.04075-1.5487 0.08151-2.3181 0.16954-0.34234 0.04238-0.64393 0.17117-1.0727 0.29996-0.13042 0-0.42874-0.04238-0.68468 0-0.432 0.0864-0.8151 0.34234-1.2471 0.43037-0.64393 0.13042-0.8151 0.29996-0.73033 0.94551v0.42874c-0.042385 0.08477 0.94551-0.13042 0.94551-0.13042-0.088031 0-0.13042 0.25757-0.26083 0.47276 0.3456-0.13042 0.55916-0.21519 0.77434-0.29996 0.64393 0.30159 1.2015 0.13042 1.715 0.26083 1.6726 0.42711 3.3876 0.60317 5.1025 0.77108 1.1167 0.0864 2.1894 0.13042 3.3044 0.17117 1.5862 0.0864 3.174 0.1728 4.7602 0.1728 1.3302 0 2.6181-0.13042 3.9451-0.13042 1.8421 0 3.6908 0.08477 5.5345 0.13042 0.38636 0 0.8151-0.04565 1.2438-0.04565h3.13c2.7909-0.08477 5.5785-0.13042 8.3678-0.21192 1.5894-0.04565 3.2196-0.13042 4.8058-0.17443l4.8906-0.13042c1.8878-0.04238 3.7755-0.04238 5.6209-0.08151 1.415 0 2.7876-0.04891 4.2059-0.08966 1.5846-0.04238 3.2147-0.17117 4.8026-0.25594 0.85911-0.04402 1.7182-0.13042 2.5757-0.21519 1.0303-0.08477 2.103-0.21193 3.13-0.25594 1.5454-0.08803 3.1332-0.13042 4.6787-0.21682 1.9302-0.12716 3.8603-0.29833 5.8328-0.34234 1.803-0.08477 3.6468-0.04238 5.4498-0.08477 1.5878-0.04402 3.1756-0.13042 4.8058-0.1728l2.7061-0.13042s1.7997-0.04239 2.7012-0.13042c1.5438-0.08477 3.0876-0.25594 4.633-0.29833 0.98464-0.04402 1.9725 0 2.9588-0.04402 1.5862-0.04238 3.2164-0.13042 4.8042-0.13042 0.59828 0 1.2422 0.08803 2.0149 0.13042-0.34234 0.30159-0.55752 0.47276-0.8151 0.68794 0.17118 0.04238 0.34235 0.13042 0.51515 0.21519-0.25757 0.17117-0.47276 0.21192-0.68469 0.21192-0.088 0.21682-0.17443 0.30322-0.26083 0.73359h0.77272c-0.29996 0-0.55753 0.38636-0.85749 0.64393-0.34234-0.08803-0.64393 0-0.8151 0.47276 0.29996 0.16954 0.25757 0.29833 0.21519 0.47276-0.51514 0.16954-0.9015 0.34234-0.68468 0.89987-0.17443 0.08477-0.38799 0.17117-0.60318 0.29996-0.21192 0.34234-0.59991 0.42874-0.51514 0.9015 0.1728 0.04076 0.34234 0.13042 0.47276 0.16954-0.21519 0.0864-0.42874 0.21519-0.64393 0.29996-0.77108 0.47276-0.42711 0.68794-0.25594 0.90313-0.13042 0.0864-0.25757 0.17117-0.38636 0.21519 0.0848 0.38636 0.21193 0.47276 0.25594 0.47276-0.17117 0.12716-0.38635 0.29996-0.64392 0.51514-0.13042 0.38636-0.30159 0.55753-0.47276 0.8151s-0.25757 0.60316-0.47276 0.8591c-0.89987 0.98953-1.5438 2.1519-2.7012 2.9229-0.43037 0.30159-0.81509 0.68795-1.2014 1.0759-0.77271 0.72869-1.459 1.5454-2.2741 2.2334-1.071 0.90149-2.1845 1.7166-3.3452 2.5333-1.4134 0.9879-2.8284 1.9758-4.245 2.9213-0.77271 0.51351-1.6302 0.89986-2.4453 1.3726-0.8151 0.47276-1.5878 0.90313-2.4029 1.3743-0.51514 0.34234-0.9879 0.8151-1.5454 1.0759-1.415 0.60317-2.9181 1.1167-4.3754 1.6758-1.4183 0.60317-2.4453 1.1167-3.518 1.503-0.98627 0.34234-2.0166 0.60318-3.0452 0.8151-0.34234 0.088-0.73033 0-1.1167 0.044-0.73033 0.13041-1.459 0.30321-2.1894 0.38798-1.8878 0.25758-3.7755 0.43038-5.6617 0.68795-1.1167 0.13041-2.1894 0.34234-3.3044 0.47275-0.77108 0.0424-1.5862-0.0424-2.3589-0.0424-0.55753 0-1.1574 0.13041-1.7166 0.044-0.89987-0.13041-1.8014-0.34234-2.7029-0.51514-0.21193-0.0424-0.51514-0.13041-0.68468-0.0424-0.34234 0.1728-0.64556-0.0848-0.98953 0-0.21192 0.044-0.42711-0.13042-0.6423-0.13042-0.1728-0.0408-0.38799 0.0456-0.60317 0-0.47276-0.12715-0.89987-0.29832-1.4183-0.25594-0.51025 0.0424-1.027-0.21519-1.5813-0.34234-0.77434-0.1728-1.4998-0.34234-2.2758-0.51677-0.29833-0.0864-0.55427-0.21519-0.85585-0.38636-1.1167 0-1.847-0.0424-2.5333-0.30159-0.59991-0.21192-1.1574-0.51351-1.8014-0.42711-0.16954 0.0424-0.29833-0.0424-0.47276-0.0424-0.13042-0.1728-0.25594-0.51678-0.3831-0.51678-0.85748 0.044-1.3726-0.68468-2.103-0.9015-0.38473-0.13041-0.68468-0.55915-1.071-0.68794-0.94551-0.38636-1.715-1.2014-2.7876-1.3302-0.34234-0.044-0.68468-0.21519-1.0727-0.34234 0.13042 0.16954 0.21193 0.29833 0.34234 0.42711-1.2438-0.60317-2.4013-1.2879-3.5604-1.9334-0.16954-0.0424-0.29833-0.21193-0.42711-0.29996l-1.1574-0.77271c-0.64393 0.13041-0.9015-0.13042-1.0759-0.21519-1.1574-0.8151-2.486-1.3319-3.6027-2.2334-0.47276-0.38799-1.027-0.64556-1.3694-1.1183-0.60317-0.73033-1.3319-1.2455-2.147-1.6742-0.6423-0.34234-1.2422-0.73033-1.8421-1.1167-0.30159-0.21519-0.60317-0.47276-0.60317-0.94552 0-0.30158-0.12716-0.60317-0.51351-0.43037-0.17117-0.25757-0.34234-0.55753-0.55753-0.64393-0.51514-0.21192-0.85748-0.60317-1.2438-0.94551-0.38636-0.34234-0.68468-0.8151-1.1574-0.98627-0.85911-0.34234-1.3743-1.0727-1.8878-1.6742-1.2031-1.4183-2.2758-2.967-3.3908-4.4667-0.0864-0.13042-0.25757-0.21682-0.38636-0.3456 0.17117 0.47276 0.38636 0.85911 0.59991 1.2879-0.42711-0.17117-0.72707-0.47276-0.98464-0.77271-0.04401 0.04402 2.9588 4.9835 2.9588 4.9835 0.26083 0.38636 0.47276 0.77434 0.73033 1.1607-0.64393 0.0424-1.0727-0.30159-1.2879-0.68794-0.38473-0.68469-0.8151-1.1151-1.6726-1.027-0.08477-0.30321-0.17117-0.64718-0.21193-0.9455-0.17443 0-0.30159 0-0.60317-0.04402 0.60317 0.94551 1.1167 1.7606 1.6742 2.7061-0.21682-0.13042-0.34234-0.21519-0.432-0.25757 0.77108 0.8151 1.3286 1.847 2.3149 2.3638 0.21519 0.98626 1.3302 1.459 1.5878 2.4045-0.21193-0.044-0.38799-0.0864-0.60317-0.13042-0.34234-0.42874-0.7287-0.85748-1.1134-1.3302 0.08477 0.29996 0.21193 0.55753 0.38473 0.77271 0.51514 0.64393 0.9879 1.2879 1.5878 1.847 0.21519 0.21844 0.51514 0.30484 0.51514 0.6912 0.34234 0.17117 0.47276 0.21193 0.59991 0.21193 0.08803 0.26083-0.04076 0.64718 0.47276 0.56078 0.34234 0.64393 0.68468 0.64393 1.1574 0.43038 0.55916 0.55915 0.86074 0.60317 1.2455 0.26083 0 0.21192 0.04238 0.42711 0.04238 0.59991 0.17117-0.0864 0.13042-0.21519 0.13042-0.43037 0.21192 0.17117 0.34234 0.25757 0.42711 0.34234 0.42874 0.60317 0.8151 1.1607 1.415 1.6335 0.8151 0.68794 1.5454 1.4183 2.3149 2.0622 1.503 1.2471 3.1789 2.279 4.8498 3.2229 2.0606 1.1607 4.0347 2.4062 6.1361 3.5212 2.5301 1.3335 5.2329 2.2366 8.0206 2.8806 1.0303 0.21519 2.0166 0.42874 3.0485 0.68468 0.89661 0.26084 1.7997 0.64719 2.7012 0.86075 1.3726 0.30158 2.7876 0.55916 4.1603 0.8151 0.29833 0.044 0.60317 0.088 0.94552 0.13041 0.3831 0.0864 0.85422-0.0864 0.94062 0.044 0.21519 0.34234 0.38636 0.16954 0.64393 0.12715 0.29996-0.0864 0.64393-0.0864 0.98627-0.0864 1.2015 0.0424 2.3589 0.29996 3.5604 0.21519 0.26083 0 0.64556-0.21682 0.86074 0.21192 0.38473-0.17117 0.59991-0.17117 0.77108-0.21192 0.04565 0.38473 0 0.38473-0.08151 0.42711-0.08803 0.0424-0.21682 0.0864-0.38799 0.21519 1.5438 0.29995 3.0028 0.34234 4.2874 0 2.2334 0.17117 4.1635-0.0864 6.0089-0.73033 0.17117 0.21518 0.29996 0.51514 0.55753 0.0864 0.08477-0.13042 0.29996-0.17443 0.47276-0.21682 0.38473-0.0864 0.85748-0.25757 1.1998-0.13041 0.38799 0.13041 0.51677-0.21193 0.8151-0.21193 0.51677 0 0.9879-0.044 1.4607-0.13041 0.25757-0.0424 0.51514-0.17118 0.8151-0.25758-0.34234-0.17443-0.68468-0.21681-0.94552-0.21681 0.51677-0.25757 0.9879-0.47276 1.4607-0.68468-0.0864 0.12715-0.1728 0.29832-0.34234 0.29832h0.59828c-0.13042 0-0.30159 0.38636-0.51514 0.64393 1.5422-0.38636 2.9572-0.73033 4.3314-1.0759-0.47276-0.89987 0.51351-0.59828 0.85748-1.1151-0.42874 0.13042-0.85748 0.25758-1.2879 0.34235 1.459-0.7287 2.9604-1.3726 4.4178-2.0166-0.21192 0.25757-0.47276 0.38636-0.85585 0.60317 0.25757 0.0408 0.42874 0.0408 0.55753 0.0815 0.68468 0.21682 0.51514-0.42711 0.7287-0.81509 0.8151 0 1.1574-0.12716 1.5438-0.25758 0.42874-0.13041 0.85748-0.25757 1.2879-0.42874 0.68468-0.29995 1.3286-0.68468 2.0149-1.027 0.13042-0.0456 0.34234 0 0.51514 0 0.47276-0.30322 0.6423-0.56079 0.77108-0.5184 0.60317 0.0864 1.027-0.13042 1.1998-0.68469 0.29996-0.21681 0.51514-0.38798 0.7287-0.5184 0.94225-0.51514 1.8421-1.0303 2.7876-1.5454 0.34234 0 0.51514 0 0.59991-0.044 0.5608-0.26083 1.0759-0.55753 1.5894-0.85912-0.13042-0.0424-0.42874-0.21192-0.42874-0.21192 0.42711-0.088 0.55427-0.13042 0.8151-0.21682 1.027-1.2063 2.4453-2.0214 3.5163-2.967 0.47276-0.0424 0.47276-0.17117 0.47276-0.25594 0.16954-0.21518 0.34234-0.47276 0.55427-0.64556 0.94551-0.85911 1.9725-1.5894 2.8316-2.4909 1.2438-1.2487 2.4453-2.5382 3.5604-3.8701 1.027-1.2031 2.0606-2.4045 2.918-3.7364 1.2015-1.847 2.2301-3.738 3.3028-5.6731 0.77272-1.3726 1.459-2.7469 2.2334-4.1211 0.0815-0.13042 0.25594-0.30159 0.38473-0.30159 1.1574-0.13042 2.3181-0.21192 3.4332-0.34234 0.25757-0.04238 0.55752-0.21193 0.81509-0.34234-0.13041-0.21519-0.21518-0.47276-0.34234-0.68794-0.1728-0.26083-0.43037-0.47276-0.60317-0.73359-0.16954-0.21193-0.29833-0.47276-0.42711-0.7287-0.13042-0.21192-0.25757-0.38473-0.38636-0.60317-0.26083-0.47276-0.51677-0.94551-0.73359-1.4574-0.0424-0.13042-0.13041-0.34234-0.0848-0.47276 0.77272-1.6742 1.0727-3.4788 1.8014-5.1547 0.7287-1.7182 0.94552-3.6516 1.2879-5.4987 0.29995-1.7606 0.47275-3.5212 0.68468-5.2818 0.13042-1.2455 0.30159-2.4486 0.34234-3.694 0.26083-1.9758 0.1728-3.8244 0.13042-5.6731-0.0424-1.6302-0.13042-3.306-0.21193-4.9395zm-107.63 52.88c-0.29996-0.34234-0.55753-0.73033-0.85748-1.0727l0.13042-0.13042c0.46787 0.51678 0.94062 1.0319 1.4118 1.5911-0.25757-0.13042-0.55753-0.21519-0.68468-0.38799zm0.68468 0.38799c0.13042-0.044 0.26083-0.044 0.38799-0.0864 0.13042 0.21518 0.21519 0.47275 0.34234 0.73032-0.59991-0.044-0.89987-0.30158-0.7287-0.64392zm44.618 17.741v-0.13041c0.8151-0.0848 1.5862-0.17117 2.4013-0.25594v0.12552c-0.8151 0.13042-1.5862 0.21193-2.4013 0.25757zm10.808-1.1167c-0.59828 0.13041-1.2422 0.21681-1.8421 0.30321-0.21519 0.0424-0.47276 0.25758-0.55753-0.13041-0.0864 0.044-0.1728 0.044-0.25757 0.088 0.21193 0.6423 0.7287 0.12716 1.1574 0.38473-0.94551 0.13041-1.8421 0.21518-2.7453 0.34234v-0.0848c0.26083-0.0424 0.55916-0.0864 0.8151-0.13042v-0.12715c-0.42711-0.044-0.85585-0.0864-1.2879-0.0864-0.12552 0-0.29833 0.1728-0.42711 0.21518-0.17117 0.0424-0.34234 0.0864-0.55753 0.0864-0.7287 0.0424-1.4574 0.0424-2.1453 0.0848-0.04402 0-0.13042-0.0424-0.1728-0.0424v-0.13042c2.874-0.38472 5.7057-0.77108 8.5797-1.1574 0.04402 0.0848 0.04402 0.17117 0.0864 0.25594-0.25757 0-0.42874 0.0897-0.64393 0.13042zm0.64556-0.42711c0.9879-0.13042 1.891-0.21519 2.8333-0.34235-1.9725 0.55753-2.6165 0.6423-2.8317 0.34235zm-37.366-86.735c1.3694-1.891 2.7876-3.7821 4.1603-5.7138 0.42874-0.56242 0.77108-1.164 1.1998-1.7215 0.13042-0.1728 0.30159-0.25757 0.51514-0.43037l-0.04239-0.08151c0.17117-0.21682 0.34234-0.39125 0.42874-0.56079 0.21845-0.34234 0.34723-0.73033 0.5184-1.1167 0.04238-0.08151 0.17117-0.16791 0.17117-0.16791 0.60317 0.29996 0.60317-0.34234 0.8151-0.55916 0.38636-0.43037 0.77271-0.9015 1.1151-1.3319 0.25757-0.34234 0.51514-0.64393 0.73033-1.0303 0.04238-0.13042-0.0864-0.34234-0.13042-0.51677h-0.12716c0.13042-0.08477 0.25757-0.21193 0.38636-0.29996 0.04238 0 0.04238 0 0.08477-0.04238 0.25757-0.38799 0.51514-0.77434 0.77271-1.1183 0.51351-0.68468 1.071-1.3726 1.671-1.9725-0.08477 0.21193-0.17117 0.42874-0.25757 0.59991 0.04402 0 0.04402 0.04401 0.0864 0.04401 0.51514-0.68794 1.0727-1.3319 1.5878-2.0214-0.04402-0.04076-0.0864-0.08477-0.13042-0.08477-0.21192 0.21519-0.38473 0.43037-0.59991 0.64556-0.04239-0.04402-0.08477-0.0864-0.13042-0.0864 0.432-0.55916 0.86074-1.1167 1.2879-1.7606 0.0864 0.13042 0.1728 0.29996 0.34234 0.64393 0.17443-0.42874 0.3456-0.7287 0.47276-1.0303-0.12716 0.13042-0.29833 0.25757-0.42711 0.38799l-0.13042-0.13042 0.77271-1.1574c0.8151-1.1607 1.6302-2.3638 2.4453-3.5245 0.30159-0.42874 0.68468-0.77271 0.94552-1.2031 0.8151-1.6302 2.103-2.9213 3.0876-4.4244 0.21519-0.29996 0.51514-0.55753 0.77271-0.8151 0.21193-0.26083 0.38636-0.1728 0.55753 0.042385 1.1574 1.4607 2.3149 2.9637 3.4723 4.4244 0.86074 1.0759 1.7182 2.103 2.5333 3.2213 0.98627 1.3759 1.9302 2.7501 2.9181 4.1244 1.1151 1.5894 2.2301 3.1789 3.3028 4.8091 1.6302 2.4078 3.174 4.814 4.8042 7.2185 1.2015 1.7606 2.4029 3.4805 3.5604 5.2411h-2.191c-2.0149-0.04075-4.0755-0.21193-6.0904-0.12716-2.7453 0.13042-5.5329 0.43037-8.2781 0.64556-3.4756 0.30159-6.9935 0.34234-10.466 0.34234-1.2471 0-2.4909 0.17443-3.7332 0.26083-1.503 0.08477-2.9621 0.17117-4.4635 0.21193-1.7606 0.08803-3.4723 0.13042-5.2329 0.17443-0.9879 0.04238-2.0166 0-3.0892 0zm49.204 19.758v0.38799c-0.04238 0-0.08477 0.04402-0.17117 0.04402-0.17117-0.60317-0.34234-1.2487-0.55753-1.8503-0.42874-1.2471-0.9015-2.4942-1.6742-3.6093-0.86074-1.2015-1.6302-2.4453-2.4909-3.6924-0.21192-0.30159-0.51514-0.55916-0.77271-0.8151-0.9015-0.98953-1.803-2.0214-2.9604-2.7501-1.7166-1.0759-3.4756-1.9774-5.3633-2.7518-0.51514-0.21192-0.98627-0.47276-1.4998-0.77271h1.027l7.3359-0.13042c1.5878-0.04075 3.1332-0.04075 4.7194-0.12716 0.38473 0 0.59991 0.13042 0.8151 0.47276 0.38473 0.64393 0.77108 1.2879 1.1998 1.9334 0.04402 0.08477 0.13042 0.21193 0.13042 0.34234 0 0.94552 0 1.9334 0.04238 2.8789 0.04076 0.9879 0.13042 1.9334 0.16954 2.9213 0 0.9879-0.0864 2.0182-0.04239 3.0485 0.04402 1.4623 0.0864 2.967 0.0864 4.4667zm-46.161-14.385c2.0166-0.0864 3.9451-0.21519 5.9209-0.30159 1.5405-0.0864 3.13-0.13042 4.6721-0.21519 0.64393-0.04076 1.2455-0.08151 1.8878 0-0.68468 0.3456-1.3726 0.68957-1.9725 1.1183-0.77271 0.51514-1.4998 1.2015-2.2741 1.7606-0.77434 0.55753-1.4607 1.2455-2.103 1.9758-0.8151 0.98627-1.7166 1.8454-2.5757 2.7909-0.60317 0.68794-1.2879 1.3319-1.8014 2.0622-0.7287 0.94551-1.3726 1.9725-2.0589 3.0485 0.21519-4.082 0.47276-8.1184 0.29996-12.243zm28.015 41.326c-1.3743 0.34234-2.7876 0.73033-4.2059 0.9015-1.1998 0.1728-2.4453 0.13042-3.6891 0.13042-1.1183 0-2.191-0.04239-3.306-0.13042-1.2438-0.12716-2.4877-0.25594-3.6891-0.8151-1.0319-0.47276-2.103-0.9015-3.13-1.4183-1.0335-0.51514-2.0622-1.1151-2.8365-2.0606-0.55427-0.68957-1.3286-1.2471-2.0149-1.8486 0.13042 0.51514 0.42874 0.94551 0.9015 1.2455-0.21519 0.25757-0.51514 0.13042-0.94552-0.55916-0.12716 0.0864-0.25594 0.13042-0.34234 0.1728 0.13042-0.30159 0.25757-0.60317 0.38636-0.85911-0.17117-0.34234-0.38636-0.73033-0.55753-1.0759-0.34234-0.55753-0.68468-1.1574-0.98627-1.7166-0.0864-0.13042-0.0864-0.25757-0.17117-0.38636-0.21519-0.25757-0.43037-0.51677-0.60317-0.77434-0.34234-0.51351-0.6423-1.071-1.071-1.5878 0 0.13042 0.04402 0.25757 0.04402 0.43037-0.04402 0-0.0864 0.04238-0.0864 0.04238l-0.90313-2.191c-0.04239 0-0.04239 0-0.08477 0.04238l0.77108 2.8365c-0.04239 0-0.08477 0.04075-0.13042 0.04075-0.12552-0.16954-0.25431-0.34234-0.34234-0.55427-0.08477-0.3456-0.34234-0.3456-0.55427-0.21682-0.13042 0.0864-0.21682 0.38636-0.1728 0.51514 0.30159 0.73033 0.64393 1.4607 0.9879 2.191 0.08477 0.25757 0.17117 0.47276 0.29996 0.73033 0.04401 0.0864 0.1728 0.17117 0.1728 0.29996 0.1728 0.34234 0.30159 0.68468 0.51514 0.9879 0.38636 0.51514 0.8151 1.0303 1.2015 1.5454 0.3831 0.51514 0.72544 1.0759 1.0694 1.5894 0.04239 0.0864 0.17117 0.0864 0.21192 0.13042 0.21682 0.64393 0.94552 1.1151 1.4607 0.85748 0.13042 0.9879 1.2015 1.3319 1.6302 2.2774-0.51514-0.21519-0.89987-0.38636-1.2438-0.55916-0.04402 0.04238-0.04402 0.08477-0.08803 0.17117 0.51514 0.25757 1.0303 0.51514 1.4998 0.8151 0.432 0.26083 0.86074 0.51677 1.2471 0.8151 0.51514 0.47276 1.1167 0.73359 1.8421 0.90313-0.03912-0.13042-0.08151-0.17443-0.08151-0.17443 1.1998 0.55916 2.4453 1.1607 3.3876 1.6302-4.4618 0.08803-9.2237 0.17443-14.158 0.26083 0-0.8151-0.04239-1.5894-0.04239-2.4062 0-0.34234 0.08477-0.64393 0.04076-0.9879-0.13042-1.9725-0.13042-3.9516-0.38636-5.885-0.25594-2.0606-0.25594-4.0804-0.21192-6.1458 0.04076-1.1134-0.04402-2.2725-0.08803-3.3908 0-1.503 0-2.967 0.04565-4.4667 0-0.21519 0.0864-0.38636 0.1728-0.60317h0.13042c0.04075 0.08803 0 0.21682 0.08151 0.26083 0.13042 0.13042 0.3456 0.34234 0.432 0.29996 0.25594-0.1728 0.6423-0.34234 0.7287-0.60317 0.21193-0.51351 0.29996-1.0727 0.29996-1.5878 0-0.38473 0.1728-0.6423 0.34234-0.9015 0.08803-0.13042 0.13042-0.25757 0.21682-0.42874-0.17117-0.13042-0.34234-0.21519-0.55753-0.38636 0.1728-0.47276 0.13042-1.0319 0.77434-1.2879 0.08477-0.04401 0.08477-0.26083 0.13042-0.38799 0.04075-0.34723 0.08151-0.73359 0.12716-1.0759 0.08477 0.13042 0.13042 0.17117 0.21193 0.25594 0.04565-0.08477 0.08803-0.13042 0.08803-0.13042 0-0.16954-0.04238-0.51351 0-0.51351 0.51514-0.0864 0.29996-0.64393 0.55753-0.9015 0.04075-0.04565-0.04402-0.17443-0.04402-0.26083 0-0.08477 0-0.21192 0.04238-0.21192 0.59828-0.13042 0.51351-0.77434 0.89987-1.0759 0.13042-0.0864 0.17117-0.21192 0.34234-0.42874 0.34234 0.59991-0.25757 0.9015-0.29996 1.3302 0.72707-0.42874 0.94226-1.459 0.51351-1.7606 0.17117-0.13042 0.34234-0.29996 0.47276-0.47276 0.47276-0.51514 0.98464-0.9879 1.415-1.503 0.30159-0.38473 0.47276-0.85748 0.77271-1.2438 0.1728-0.21519 0.51514-0.38636 0.77271-0.51677 0.77271-0.42711 1.4998-0.89987 1.9725-1.6302 0.0864-0.0864 0.21519-0.17117 0.34234-0.25757 0.13042-0.0864 0.38799-0.0864 0.43037-0.21519 0.04402-0.08477-0.08477-0.29996-0.17117-0.42874 0.16954-0.0864 0.34234-0.25757 0.68468-0.43037-0.13042 0.25757-0.17117 0.43037-0.25757 0.60317l0.21193 0.21192c0.38799-0.29996 0.9879-0.6423 1.3743-0.89987 0-0.04075-0.21519-0.21192-0.21519-0.21192-0.25594 0.13042-0.6423 0.34234-1.027 0.51514 0.08151-0.13042 0.08151-0.21519 0.13042-0.25757 0.59828-0.38636 1.1982-0.77271 1.8421-1.0759 1.4998-0.68468 3.0028-1.3726 4.5042-2.0166 0.25757-0.13042 0.60317-0.04239 0.9015-0.04239 0.12716 0 0.21193 0 0.34234-0.04239 0.68468-0.21519 1.3726-0.43037 2.0589-0.60317 0.29833-0.08477 0.64067-0.12716 0.94551-0.12716 1.283 0.04076 2.5708 0.04076 3.857 0.12716 0.55753 0.04239 1.0727 0.17117 1.5878 0.34234 0.6423 0.21682 1.3286 0.51677 1.9302 0.8151 0.7287 0.39125 1.415 0.81836 2.103 1.2911 1.2438 0.8151 2.4013 1.7182 3.6451 2.4486 1.2015 0.73033 2.1453 1.7182 2.9181 2.8365 0.94552 1.3302 2.0166 2.5333 2.4453 4.1652l0.6423 2.8365c0.13042 0.51514 0.43037 1.0303 0.30159 1.6302-0.21682 1.0759-0.38799 2.1926-0.55916 3.2669-0.08477 0.432-0.17117 0.864-0.12716 1.2879 0.08151 1.3368-0.432 2.4942-0.94552 3.6973-0.1728 0.38636-0.43037 0.77434-0.64393 1.2031 0.04239 0.04239 0.29996 0.1728 0.34234 0.1728l0.38636-0.77271c0.04402 0 0.04402 0 0.0864 0.04402-0.21519 0.59991-0.38636 1.2455-0.60317 1.847-0.51188 1.3319-1.027 2.7061-1.671 3.994-0.34234 0.73033-0.94552 1.3319-1.3726 2.0214-0.42711 0.59991-0.77108 1.2438-1.1998 1.803-0.38636 0.47276-0.77108 0.94551-1.2879 1.2879-1.1574 0.85911-2.3589 1.7182-3.6027 2.4062-0.77108 0.47276-1.6726 0.73033-2.5301 0.94552zm-22.867-2.2823-0.04239 0.04402c-0.08966-0.04238-0.21845-0.08477-0.30322-0.17117l-1.0303-1.5487c-0.08477-0.12716-0.13042-0.25594-0.08477-0.42711 0.47276 0.73033 0.94552 1.4183 1.459 2.103zm26.686 5.885c1.9285-0.8151 3.5163-1.9725 4.9721-3.306 0.21682-0.21519 0.43037-0.42874 0.68794-0.60317 1.803-1.1151 3.13-2.6621 4.3331-4.3803 1.3726-1.9758 2.2741-4.2092 3.3908-6.3138 0.08477-0.1728 0.16954-0.34234 0.25594-0.47276-0.0864 4.8971 0.47276 9.7078 1.1151 14.563-4.8466 0.17117-9.7812 0.34234-14.757 0.51514zm43.499-1.2879c-0.0424 0.0864-0.13042 0.1728-0.17117 0.26083-0.044-0.08803-0.044-0.21682-0.0864-0.39125-0.25758 0.68957-0.8151 0.3456-1.2015 0.3456-2.3149 0.04402-4.6754 0.04402-6.9936 0.04402-2.2301 0-4.5026 0-6.7327 0.03912-0.73033 0-1.503 0.17117-2.2334 0.21519-1.7574 0.08477-3.5163 0.13042-5.2753 0.17117-0.13042 0-0.25757-0.21193-0.47276-0.38473-0.04239 0.0864-0.13042 0.21519-0.25757 0.38636-0.04565-0.08477-0.13042-0.16954-0.21682-0.29833-0.04238 0.13042-0.0864 0.25757-0.13042 0.34234h-0.1239c-0.0864-0.59991-0.25757-1.1574-0.25757-1.7606 0-1.2879 0.13042-2.5757 0.17117-3.8668 0.04402-0.59991 0-1.1574 0-1.7182 0.1728 0.13042 0.30159 0.21682 0.47276 0.34234 0.08477-0.16791 0.17117-0.2967 0.25757-0.42385 0 0-0.0864-0.04565-0.1728-0.13042 0.08151-0.04402 0.16954-0.13042 0.16954-0.1728 0.04238-0.13042 0.13042-0.25757 0.13042-0.34234 0-0.30159-0.08803-0.55916-0.13042-0.8151 0.04238 0 0.08477 0 0.13042-0.04565l0.25594 1.2879h0.13042c-0.1728-0.29833 0.38473-0.55753-0.0864-0.89987-0.04239-0.04402 0.04238-0.30159 0.04238-0.43037-0.13042-0.25594-0.21192-0.51351-0.34234-0.85748 0.04239-0.04238 0.17117-0.0864 0.29996-0.13042-0.17117-0.08477-0.29996-0.16954-0.42874-0.21193 0.42874-0.38799 0.42874-0.60317 0.04238-1.0319 0.08803-0.04075 0.1728-0.04075 0.1728-0.08151 0-0.38799 0-0.77434-0.08477-1.1574-0.0864-0.43363 0.13042-0.94551-0.51514-1.2063 0.04238 0.13042 0.0864 0.21519 0.17117 0.34234 0 0-0.13042 0.04402-0.25757 0.13042-0.55753-0.51677-0.21193-1.2063-0.34234-1.9774 0.29996 0.0864 0.51514 0.1728 0.7287 0.26083-0.0864-0.30322-0.29996-0.64719-0.42874-1.0335h-0.17443v-2.8365c0 0.04402 0.29996 0.04402 0.47276 0.08803 0-0.04402 0.04076-0.0864 0.04076-0.13042-0.13042-0.17117-0.30159-0.34234-0.47276-0.55753l0.0864-0.0864c-0.34234-0.42711-0.17117-1.027-0.17117-1.1574v-3.0077c0.43037 0.43037-0.21193 0.9879 0.43037 1.2455v-0.42874h-0.04401c-0.04239-0.64393-0.04239-1.2879-0.08477-1.9334h-0.08477c-0.04402 0.08803-0.04402 0.13042-0.08803 0.21682h-0.08477l0.25757-10.267c0.42874 0.55753 0.89987 1.0759 1.1998 1.6302 0.9879 1.8063 2.2741 3.3533 3.4756 4.9851 1.0303 1.4183 1.9725 2.9637 2.9181 4.4244 1.1574 1.7606 2.2725 3.5212 3.4316 5.2818 0.85749 1.3335 1.7606 2.6654 2.6572 3.9549 0.81509 1.1574 1.6758 2.2758 2.5333 3.3941 0.72707 0.9879 1.4998 1.9758 2.2285 2.9637 0.85912 1.2031 1.7166 2.4045 2.5757 3.5652 0.42712 0.59991 0.89987 1.2015 1.3694 1.803 0.26083 0.34234 0.64556 0.60317 0.90313 0.8151-0.0408 0-0.0848 0-0.16954-0.04238 0.13041 0.17117 0.21192 0.29996 0.29995 0.38636 0.47276 0.25757 0.51515 0.51514 0.25758 0.90313zm2.1877-10.736v-0.30159c0 0.08477 0.0424 0.21193 0 0.29996zm1.459-18.943c-0.044 0-0.29996-0.26083-0.34234-0.30322-0.044 0.13042 0 0.25757-0.0864 0.43037-0.044-0.12716-0.34235-0.08477-0.34235-0.21192-0.044 0.59991 0.25595 1.2015 0.21193 1.803 0.13042-0.0864 0.64393-0.13042 0.77271-0.25757 0.044 0.04239 0.13042 0.08477 0.1728 0.08477-0.85911 0.64556-0.64392 1.2879-0.25757 2.0214 0.0848 0.16954 0.34234 0.51351 0.0848 0.85748-0.0848 0.0864 0.044 0.34234 0.0864 0.55916h0.12553v0.08151l-0.38636 0.13042c-0.0848-0.13042-0.59828-0.38473-0.59828-0.60317v2.1942c0.42874 0.13042 0.42874 0.73033 0.59991 1.0319 0.0897-0.13042 0.13042-0.21682 0.17443-0.34234l0.044 0.03912c-0.044 0.25757-0.0864 0.51514-0.1728 0.77434-0.0848 0.38473-0.17117 0.7287-0.21193 1.1151 0 0.04238 0.0815 0.13042 0.0815 0.17117-0.46949 1.0759-0.21192 2.2758-0.38309 3.3908-0.13042 0.8151 0 1.6791-0.0864 2.5366-0.088 0.73033-0.26084 1.503-0.43038 2.2334-0.044 0.13042-0.13041 0.17117-0.34234 0.25757 0.0848-0.51514 0.0424-0.85911-0.044-1.3319-0.0457 0-0.60318-0.29996-0.64719-0.29996 0 0.60317 0.34234 1.4183 0.47276 2.103-0.13042-0.04239-0.64393-0.34234-0.68469-0.34234-0.088 0.51514-0.088 1.2031-0.13041 1.7606-0.044 0.43037-0.42874 0.8151-0.47276 1.2879 0 0.26083 0.29996 0.43037 0.25757 0.86074h0.34234c0-0.85748 0.38799-1.6302 0.38799-2.5333h0.12715c0.044 0.0864 0.17281 0.1728 0.13042 0.21519-0.0864 0.47276-0.26083 0.9879-0.21519 1.4607 0 0.25757 0.21193 0.51514 0.13042 0.8151-0.088 0.26083-0.13042 0.51677-0.17443 0.90313-0.044-0.21519-0.0864-0.29996-0.0864-0.42874-0.0424 0-0.42874-0.04402-0.47276-0.04402-0.0424 0.25757 0.30159 0.51514 0.25757 0.73033-0.0424 0.04238-0.0848 0.04238-0.17117 0.0864l-1.415-2.0638c-1.1183-1.6302-2.2334-3.2653-3.3484-4.9395-0.30159-0.43037-0.55916-0.85911-0.77435-1.2879-1.3286-2.279-2.7876-4.47-4.4178-6.5746-1.2422-1.5878-2.2334-3.3093-3.3908-4.9803-1.0694-1.5894-2.1421-3.1365-3.2148-4.7276-0.38636-0.51351-0.85749-0.98627-1.2015-1.5454-1.1134-1.7606-2.103-3.5652-3.2148-5.3259-0.94551-1.4623-1.9725-2.8806-2.9604-4.2972-0.34234-0.47276-0.68468-0.98953-1.0303-1.5047-0.04238-0.08151-0.08477-0.16791-0.08477-0.2967-0.0864-0.94552-0.1728-1.891-0.21519-2.7925 0-0.85911 0.0864-1.7182 0.0864-2.6214v-0.77271c0-0.21519 0.04076-0.38636 0.04076-0.60317 0.04075-0.04075 0.08477-0.12716 0.12716-0.16954-1.2438 0-2.5317-0.04565-3.7755 0-0.8151 0.04075-1.2438-0.30322-1.8014-0.90476-1.6302-1.847-2.8317-3.9516-4.2467-5.9274-1.3302-1.891-2.7029-3.7397-4.0755-5.5867-1.1167-1.503-2.2334-2.9637-3.3468-4.4667-1.2455-1.7182-2.4453-3.4365-3.7332-5.1547-1.5454-2.0606-3.1332-4.1244-4.7194-6.185-0.73359-0.94551-1.5487-1.847-2.3638-2.8365 0.55916 0.088031 1.0759 0.1728 1.5894 0.21682l2.0606 0.13043c1.5438 0.12553 3.0876 0.21193 4.6298 0.42385 1.2879 0.17443 2.5757 0.432 3.906 0.64556 2.8333 0.47276 5.6209 1.2471 8.3238 2.1486 1.5878 0.51514 3.13 1.2031 4.6787 1.847 3.4723 1.4183 6.7767 3.1365 10.037 4.9395 1.027 0.55916 1.6302 1.4607 2.3996 2.2774 1.1167 1.1607 2.2334 2.3198 3.3044 3.5212 1.2422 1.4183 2.3996 2.8789 3.6027 4.3396 1.071 1.2879 2.1845 2.5757 3.2604 3.8668 0.34234 0.38636 0.60318 0.85911 0.89987 1.2879 0.68468 1.0319 1.459 2.0214 2.0589 3.1365 0.42711 0.81836 0.68468 1.7639 0.98464 2.6654 0.42711 1.3319 0.85748 2.6197 1.2879 3.9516 0.29832 0.9879 0.55426 2.0214 0.76945 3.0485 0.1728 0.68957 0.13041 1.4183 0.34234 2.103 0.26083 0.90639 0 1.891 0.26083 2.7958 0.0408 0.0864 0.0815 0.21519 0.12716 0.30159 0.17117 0.16954 0.29995 0.34234 0.0424 0.59991-0.0408 0.04239-0.0408 0.21193 0 0.34234 0.088-0.08477 0.13042-0.17117 0.21682-0.29996 0 0.0864 0.0408 0.13042 0.0408 0.17117 0 0.16954-0.044 0.34234 0 0.51351 0 0.08477 0.0848 0.21193 0.12716 0.29996 0.0864-0.08803 0.17117-0.13042 0.34234-0.26083 0.38636 1.4623 0.43037 2.9229 0.43037 4.426 0 1.4183 0.25594 2.8365-0.34234 4.2108 0.12716-0.47276-0.1728-0.90476-0.044-1.3335z"/><path d="m93.641 74.51c0.04075 0 0.08477 0.04402 0.08477 0.04402l-0.04402-0.04891c0-0.04076 0-0.04076-0.04238 0zm6.7767 42.444c-0.47276 0.34234-0.94552 0.64393-1.5454 0.77271-0.04565-0.0424-0.04565-0.0864-0.08803-0.13041 0.47276-0.29996 0.98627-0.59992 1.459-0.9015 0.044 0.0815 0.13042 0.16954 0.1728 0.25594zm-80.437-58.211c0.47276-0.59828 0.94552-1.1998 1.4574-1.8014 0.04076 0.04239 0.3831 0.13042 0.42711 0.17117-0.47276 0.60317-1.1167 1.4183-1.5878 2.0622-0.08803-0.0864-0.21682-0.38636-0.30159-0.43037zm-12.186 21.054c-0.34234-0.73033-0.68468-1.5047-1.027-2.2334 0.042385-0.04402 0.34234-0.1728 0.38473-0.1728 0.47276 0.68468 0.68468 1.4998 1.0303 2.2334 0 0-0.34234 0.17117-0.38636 0.17117zm10.942-20.622c-0.25757 0.38799-0.51514 0.81836-0.77271 1.2063-0.04238-0.04565-0.51514 0.16954-0.55753 0.12716 0.25757-0.38636 0.89987-1.0759 1.1574-1.4607 0.04402 0.04239 0.0864 0.0864 0.1728 0.13042zm77.092 59.543c0.04075 0 0.04075-0.0424 0.08477-0.0424 0.29996 0.0424 0.6423 0.0848 0.98627 0.0848-0.56079 0.38635-0.90476 0.34234-1.0759-0.0424zm-77.011-57.738c0.04565-0.13042 0.13042-0.25757 0.21682-0.38636 0.08477 0 0.21192-0.04402 0.21192-0.04402 0.17443-0.29996 0.17443-0.51514 0.3456-0.77271-0.04238-0.04238-0.0864-0.04238-0.13042-0.0864-0.25594 0.17606-0.51351 0.39125-0.77108 0.56242 0.0864 0.08477 0.0864 0.13042 0.0864 0.21519-0.34234-0.04402-0.47276 0.13042-0.64393 0.59991-0.04239 0.13042-0.25757 0.1728-0.47276 0.34234-0.04238 0.08803-0.08477 0.30322-0.17117 0.51677l0.04402 0.04565c-0.0864 0.0864-0.21519 0.13042-0.21519 0.13042-0.25757 0.25594-0.55753 0.47276-0.8151 0.7287-0.04239 0.13042-0.08477 0.25757-0.08477 0.38636 0.30159-0.29996 0.8151-0.85911 1.2015-1.2031l0.04402 0.04402c0.17117-0.25757 0.29996-0.51514 0.47276-0.77271 0.04076 0.04239 0.04076 0.08477 0.08477 0.13042-0.13042 0.34234-0.25757 0.72707-0.38636 1.071-0.08966 0.04238-0.21845 0.13042-0.21845 0.0864-0.17117 0.13042-0.29996 0.29996-0.47276 0.42874l-0.77108 0.51514c-0.42874 0.38636-0.85748 0.7287-1.3302 1.1167-0.29996 0.47276-0.59991 0.9015-0.94552 1.4607 0.51677-0.13042 0.64556 0.0864 0.60317 0.51677 0.59991 0.08477 0.64393-0.38636 0.8151-0.73033 0.04239-0.08803 0.0864-0.26083 0.17117-0.30322 0.38636-0.34234 0.8151-0.6423 1.2438-0.98627 0.0864-0.0864 0.0864-0.26083 0.0864-0.38799 0-0.04239-0.21682-0.04239-0.3456-0.0864 0.38636-0.43037 0.94551-1.1574 1.3302-1.6302 0.21519-0.13042 0.42874-0.30322 0.42874-0.432-0.04239-0.47276 0.25757-0.59991 0.60317-0.77271-0.1728-0.13042-0.21682-0.25594-0.21682-0.29833z"/><path d="m19.679 60.506c-0.17117 0.29996-0.34234 0.55753-0.51351 0.85911l-0.25757-0.13042c-0.17117 0.98627-0.77271 1.8454-1.3726 2.0166 0.17117 0.0864 0.34234 0.1728 0.47276 0.13042 0.12716-0.04402 0.21193-0.26083 0.29833-0.38799l1.1574-1.6758 0.38799-0.64556-0.17117-0.17117zm-14.284 18.858c0.21519 0 0.43037 0.04238 0.68468 0.04238 0-0.17117 0.21682-0.13042 0.21682-0.29996h0.13042c0 0.21519 0.042385 0.38636 0.042385 0.60317h-0.89987c-0.044015-0.04401-0.21519-0.30321-0.1728-0.3456zm-0.34234-1.9758c-0.13042-0.13042-0.34234-0.25757-0.34234-0.38636-0.044015-0.16954 0.08477-0.3831 0.21193-0.59828 0.088031 0.29996 0.13042 0.55753 0.21519 0.85911-0.044015 0.04076-0.0864 0.08477-0.0864 0.12716zm1.0727-2.7501c0.17117 0.43363 0.34234 0.90639 0.51514 1.3368-0.042385 0-0.29996 0.13042-0.34234 0.17117-0.17117-0.43037-0.38636-0.90313-0.55753-1.3319 0.042385-0.042385 0.29996-0.1728 0.38636-0.1728zm95.497 41.071c0.21192-0.0848 0.46949-0.13042 0.81509-0.21193-0.38798 0.29833-0.68794 0.51351-0.94551 0.77109-0.044-0.0424-0.0864-0.0864-0.13042-0.0864 0.0864-0.17117 0.17281-0.29995 0.26084-0.47275zm-52.73-90.771c0.25594-0.1728 0.47276-0.30159 0.7287-0.47276l0.08477 0.08477c-0.26083 0.34234-0.47276 0.68468-0.77434 1.1167-0.04239-0.29833-0.04239-0.47276-0.0864-0.68468-0.04239 0 0 0 0.04402-0.04238zm12.569 21.735c0.38636-0.1728 0.77271-0.34234 1.2438-0.55916-0.04238 0.25757-0.04238 0.43037-0.04238 0.60317-0.13042-0.04401-0.30159-0.08803-0.43037-0.08803-0.25757 0.04402-0.73033 0.38799-0.94552 0.43037-0.04075 0 0.1728-0.34234 0.1728-0.38636zm32.18 36.428c0.08477 0.42874 0.89987 0.64393 0.08477 1.0727 0.13042 0.08966 0.25594 0.13042 0.38473 0.21845 0 0.04402-0.04238 0.13042-0.08477 0.1728-0.0864 0.04076-0.25757 0.12716-0.34234 0.08151-0.04402 0-0.13042-0.16954-0.13042-0.25594 0-0.38636 0.04402-0.77271 0.0864-1.2879z"/></g></svg>
