<svg xmlns="http://www.w3.org/2000/svg" viewBox="0 0 128 128"><path fill="#9f1d20" d="M64 .499A64.306 64.306 0 0 0 42.11 4.31l-.27.098.253.132c12.935 6.735 27.99 21.104 41.285 38.933 13.293 17.83 24.828 39.12 30.76 59.679l.069.233.153-.19C122.906 92.4 128 78.79 128 64 128 28.929 99.343.499 64 .499Zm0 .25c35.208 0 63.75 28.317 63.75 63.25 0 14.647-5.023 28.123-13.445 38.844-5.962-20.522-17.467-41.735-30.726-59.518C70.357 25.593 55.406 11.28 42.471 4.463A64.014 64.014 0 0 1 64 .748ZM21.89 16.18l-.062.054C8.45 27.876 0 44.96 0 64c0 16.01 5.974 30.635 15.826 41.806l.149.163.066-.206c8.664-25.823 24.962-50.727 38.898-64.624l.085-.086-.081-.09C44.97 30.305 33.8 21.836 21.965 16.22Zm.04.3c11.74 5.59 22.832 13.992 32.748 24.569-13.92 13.912-30.122 38.68-38.8 64.42C6.151 94.363.248 79.87.248 64c0-18.937 8.391-35.924 21.68-47.518Zm44.704 38.743-.104.113C52.679 70.147 38.894 96.039 33.9 119.949l-.02.093.087.042c8.955 4.731 19.179 7.417 30.032 7.417 11.162 0 21.65-2.837 30.784-7.818l.086-.047-.024-.09C89.588 95.44 79.663 73.362 66.724 55.35Zm-.027.401c12.857 17.938 22.729 39.9 27.97 63.883-9.076 4.933-19.494 7.744-30.578 7.744-10.778 0-20.927-2.662-29.828-7.346 4.984-23.765 18.683-49.518 32.436-64.281zm0 0"/></svg>
