<svg xmlns="http://www.w3.org/2000/svg" viewBox="0 0 128 128"><path fill="#9f1d20" d="M64.023-.125a64.455 64.455 0 0 0-21.941 3.82l-.27.098.254.133c12.965 6.75 28.055 21.152 41.38 39.023 13.324 17.871 24.886 39.211 30.831 59.817l.07.234.153-.191c8.566-10.82 13.672-24.461 13.672-39.286 0-35.152-28.723-63.648-64.149-63.648Zm0 .25c35.29 0 63.899 28.383 63.899 63.398 0 14.68-5.035 28.188-13.477 38.934-5.976-20.57-17.507-41.832-30.797-59.656C70.395 25.027 55.41 10.68 42.445 3.848A64.163 64.163 0 0 1 64.023.125ZM21.816 15.594l-.062.054C8.344 27.316-.125 44.438-.125 63.523c0 16.047 5.988 30.707 15.863 41.903l.149.164.066-.207c8.684-25.883 25.02-50.844 38.988-64.774l.086-.086-.082-.09c-9.996-10.683-21.191-19.171-33.054-24.8Zm.04.3C33.624 21.497 44.741 29.919 54.68 40.52c-13.953 13.945-30.192 38.77-38.89 64.57C6.04 93.957.124 79.43.124 63.523c0-18.98 8.41-36.007 21.73-47.628Zm44.808 38.833-.105.113c-13.883 14.844-27.7 40.797-32.704 64.762l-.02.093.087.043c8.976 4.742 19.223 7.434 30.101 7.434 11.188 0 21.7-2.844 30.856-7.836l.086-.047-.024-.09c-5.27-24.164-15.218-46.293-28.187-64.347Zm-.027.402c12.886 17.98 22.781 39.992 28.035 64.031-9.098 4.945-19.54 7.762-30.649 7.762-10.804 0-20.976-2.668-29.898-7.363 4.996-23.82 18.727-49.633 32.512-64.43Zm0 0"/></svg>
