<svg xmlns="http://www.w3.org/2000/svg" viewBox="0 0 128 128"><path d="M128.047 63.523c0 35.082-28.664 63.524-64.024 63.524C28.664 127.047 0 98.605 0 63.523S28.664 0 64.023 0c35.36 0 64.024 28.441 64.024 63.523Zm0 0" style="stroke:none;fill-rule:nonzero;fill:#fff;fill-opacity:1"/><path d="M114.398 102.73c8.551-10.796 13.649-24.41 13.649-39.207C128.047 28.441 99.383 0 64.023 0a64.41 64.41 0 0 0-21.898 3.813c25.992 13.53 60.375 57.667 72.273 98.917Zm0 0" style="stroke:none;fill-rule:nonzero;fill:#3e5ba9;fill-opacity:1"/><path d="M54.855 40.52c-9.988-10.676-21.171-19.153-33.02-24.774C8.454 27.386 0 44.476 0 63.523c0 16.016 5.977 30.649 15.836 41.82 8.691-25.906 25.027-50.874 39.02-64.823ZM66.652 54.926C52.79 69.746 38.98 95.69 33.98 119.629c8.961 4.73 19.184 7.418 30.043 7.418 11.165 0 21.66-2.836 30.797-7.82-5.27-24.149-15.21-46.262-28.168-64.301Zm0 0" style="stroke:none;fill-rule:nonzero;fill:#9f1d20;fill-opacity:1"/></svg>
