<svg xmlns="http://www.w3.org/2000/svg" viewBox="0 0 128 128"><path fill="#005fad" d="M23.25 37.459c-2.661.114-2.363 3.885-2.875 5.797-.837 3.125-1.608 7.1-1.853 10.324-.246 3.138-.044 6.046.353 9.219.309 2.467 1.02 4.104.373 4.767-.52.623-17.199 15.92-18.543 16.786-1.392.903-.428 3.13.37 4.379.841 1.317 1.24 1.999 2.99 1.765 1.645-.222 2.167-2.182 3.127-3.248 1.146-1.353 12.917-12.824 13.957-12.824l-.026-.147c.421 2.923 1.972 5.705 3.598 8.112.798 1.19 1.68 2.352 2.699 3.37.936.937 2.145 1.702 3.145 2.409 2.352.123 4.246-1.618 1.875-3.59-.905-.757-3.935-5.212-4.961-7.676-.957-2.303-3.074-5.762-.782-7.654 7.921-6.6 19.887-12.132 22.711-12.406-1.377 5.422-7.257 16.32-9.408 21.48-.741 1.785-1.233 3.92-.982 5.864.297 2.324 2.046 4.152 3.144 4.326 2.229-.127 3.74-2.086 5.06-3.463 1.832-1.908 3.396-3.672 5.221-5.588 1.812-1.907 3.593-3.918 5.2-5.734.988-1.12 3.6-3.829 5.152-3.829-.584 3.732-3.832 8.33-4.486 12.094-.667 3.85 2.844 8.563 6.52 5.131 3.336-3.117 6.72-6.056 10-9.22 1.162-1.112.935.2 1.196 1.296.263 1.114.945 4.875 1.473 5.89.968 1.857 2.653 3.176 4.799 3.212 1.951.032 3.897-.862 5.258-2.219 1.015-1.011 2.757-3.749.83-4.463-1.23-.456-1.159-.943-2.65-.693-.925.158-1.94.395-2.717.959-1.967-.008-2.042-4.756-1.737-6.215.36-1.741 1.107-3.522.992-5.34-.135-2.24-2.554-3.707-3.115-3.865-.832-.41-1.343.117-2.447 1.133-.928.857-1.947 1.778-2.863 2.646-1.829 1.733-4.11 4.36-5.041 4.36 1.634-3.73 3.8-14.16-3.442-13.24-3.01.384-5.085 2.02-7.457 3.806a252.59 252.59 0 0 1-5.014 4.674c-1.269 1.146-1.99 2.152-2.654 2.152.707-3.962 9.02-16.976 4.74-20.644-.858-.722-1.678-1.742-2.761-1.864-1.511.186-3.002.552-4.457 1.016-3.023 1.043-14.846 6.9-22.399 12.306-.701.508-1.15-.451-1.236-1.558-.472-5.732 1.06-11.749 2.654-17.1 1.103-3.732-2.992-6.563-3.531-6.693zm96.842 4.877c-.889 1.952-1.067 4.788-1.332 7.06v.008c-2.02-.238-4.646-.495-6.668-.617 1.273 1.586 3.698 3.149 5.658 3.88-.261 1.958-2.326 3.584-3.207 5.476 2.448-.679 3.62-2.514 5.291-4.403 1.935 1.178 4.227 3.363 6.742 3.41-.952-2.022-1.792-3.723-3.525-5.183 1.44-.94 3.842-1.927 4.949-3.387-1.844-.396-3.832-.5-5.629-.08-1.38-1.523-1.605-4.141-2.28-6.164zm-14.733.387c-1.233.113-3.28 2.633-4.453 4.144-4.323 5.564-8.265 16.89-8.9 18.977-1.935 6.398-2.686 14.285 1.502 19.916 2.436 3.284 6.728 3.532 10.935 2.324 2.17-.624 4.344-2.181 5.086-3.875.615-1.411.932-4.037-2.166-2.035-1.198.773-3.395 1.627-7.334 1.564-1.32-.024-3.49-1.92-4.072-3.88-1.024-3.194-.588-7.458-.588-7.458.892-5.505 3.447-11.47 5.688-16.474.869-1.932 3.517-6.748 4.51-8.283 0 .004 1.27-1.997.7-4.123l-.01.017c-.167-.624-.487-.852-.898-.814zm16.45 15.935c-.647 1.417-.774 3.483-.965 5.133h-.01c-1.464-.17-3.38-.358-4.836-.45.924 1.152 2.686 2.285 4.106 2.817-.18 1.416-1.682 2.606-2.325 3.975 1.781-.493 2.639-1.829 3.844-3.194 1.404.845 3.074 2.436 4.899 2.471-.679-1.471-1.294-2.709-2.555-3.764 1.039-.678 2.78-1.408 3.582-2.459-1.333-.289-2.789-.36-4.082-.056-1.003-1.107-1.167-3-1.658-4.473zm-6.55 12.95c-.443.98-.533 2.4-.665 3.546l-.012-.004a62.34 62.34 0 0 0-3.344-.308c.635.8 1.853 1.58 2.836 1.949-.127.98-1.16 1.794-1.605 2.742 1.23-.345 1.82-1.264 2.658-2.213.979.595 2.125 1.689 3.387 1.713-.472-1.015-.894-1.863-1.762-2.598.717-.472 1.92-.972 2.479-1.7-.927-.2-1.927-.252-2.823-.042-.694-.761-.811-2.07-1.148-3.086z"/></svg>
