<svg xmlns="http://www.w3.org/2000/svg" viewBox="0 0 128 128"><path fill="#1e6abf" d="M16.963 45.209 0 54.605v18.92l16.963 9.266 16.965-9.266v-18.92L16.963 45.21zm0 7.047 9.935 5.713-9.935 5.588-9.934-5.588 9.934-5.713zm50.766 6.115v10.397h4.439c1.178 0 2.1-.25 2.764-.745.663-.504.994-1.197.994-2.078 0-.713-.207-1.302-.623-1.767-.416-.466-1.002-.753-1.754-.862.604-.128 1.075-.4 1.412-.816.346-.416.52-.925.52-1.53 0-.811-.303-1.444-.907-1.9-.594-.465-1.415-.699-2.465-.699h-4.38zm-28.026.016v10.38h2.317v-6.505l4.945 6.506h2.316V58.387h-2.316v6.681l-5.094-6.681h-2.168zm21.395 0v2.39h-.936v1.604h.936v3.683c0 .872.262 1.56.787 2.065.534.505 1.183.756 1.945.756.772 0 1.506-.316 2.2-.95l-.833-1.56c-.287.376-.639.564-1.054.564a.75.75 0 0 1-.565-.251c-.158-.179-.236-.42-.236-.727v-3.58h1.93v-1.604h-1.93v-2.39h-2.244zm-54.073.726 9.438 5.31v10.214l-9.438-5.192V59.113zm19.877 0v10.332l-9.44 5.194V64.424l9.44-5.31zm42.014.358h3.135c.703 0 1.246.148 1.633.445.386.287.578.698.578 1.232 0 .545-.192.97-.578 1.278-.387.297-.93.445-1.633.445h-3.135v-3.4zm-13.687 1.174a4.11 4.11 0 0 0-2.868 1.113c-.802.742-1.203 1.742-1.203 3 0 1.257.398 2.261 1.19 3.013.792.743 1.79 1.114 2.998 1.114 1.217 0 2.278-.424 3.18-1.276l-1.249-1.351c-.505.525-1.15.787-1.931.787-.485 0-.92-.139-1.307-.416-.386-.277-.612-.635-.682-1.07h5.82V64.37c0-1.158-.385-2.069-1.157-2.732-.763-.664-1.693-.994-2.791-.994zm52.091.251c-.782 0-1.43.183-1.945.55-.515.356-.771.886-.771 1.59 0 .464.114.841.341 1.128.238.287.52.51.846.668.327.149.753.3 1.277.459.624.178 1.09.363 1.397.55.307.189.46.47.46.847 0 .386-.159.678-.476.876-.307.198-.708.297-1.203.297-.465 0-.935-.09-1.41-.267a3.583 3.583 0 0 1-1.188-.729l-.445.848c.366.346.817.618 1.352.816a4.93 4.93 0 0 0 1.648.282c.812 0 1.489-.189 2.033-.565.555-.376.832-.926.832-1.648 0-.485-.117-.875-.355-1.172a2.371 2.371 0 0 0-.877-.684 10.419 10.419 0 0 0-1.322-.49 18.734 18.734 0 0 1-.98-.326 1.815 1.815 0 0 1-.595-.387.825.825 0 0 1-.236-.61c0-.356.139-.618.416-.786.287-.179.662-.266 1.127-.266.357 0 .723.053 1.1.162a3.86 3.86 0 0 1 1.025.461l.445-.89a4.428 4.428 0 0 0-1.158-.52 4.702 4.702 0 0 0-1.338-.194zM81.3 60.91c-.753 0-1.426.17-2.02.506a3.537 3.537 0 0 0-1.367 1.41c-.327.594-.49 1.273-.49 2.035 0 .773.163 1.46.49 2.065a3.56 3.56 0 0 0 1.367 1.394c.594.327 1.271.49 2.034.49.643 0 1.232-.108 1.767-.326a3.821 3.821 0 0 0 1.38-.964l-.638-.668a3.304 3.304 0 0 1-1.084.742c-.416.168-.86.252-1.336.252-.762 0-1.4-.232-1.916-.698-.514-.465-.82-1.085-.92-1.857h6.385c.06-1.346-.228-2.41-.861-3.191-.624-.792-1.554-1.19-2.791-1.19zm8.596 0c-.634 0-1.187.086-1.663.254-.465.168-.974.435-1.529.8l.49.817c.852-.604 1.677-.904 2.479-.904.683 0 1.204.163 1.56.49.357.317.534.766.534 1.35v.49h-2.569c-.92.01-1.637.22-2.152.625-.515.396-.774.934-.774 1.617 0 .446.109.847.327 1.203.217.357.53.64.935.848.406.208.872.31 1.397.31 1.287 0 2.243-.42 2.867-1.261v1.219h1.129L92.91 63.6c-.01-.842-.278-1.502-.803-1.977-.514-.475-1.252-.713-2.212-.713zm9.789 0c-1.485.02-2.495.61-3.03 1.768v-1.723h-1.158v7.813h1.158v-4.19c.07-.772.332-1.384.787-1.84.466-.465 1.08-.703 1.842-.713.693 0 1.233.198 1.62.594.395.396.593.94.593 1.633v4.516h1.158v-4.813c0-.95-.262-1.692-.787-2.226-.525-.545-1.253-.819-2.183-.819zm-18.385.967c.762 0 1.376.226 1.842.682.475.445.732 1.05.771 1.812h-5.346c.08-.762.367-1.367.862-1.812.495-.456 1.118-.682 1.87-.682zm-26.041.607c.445 0 .822.13 1.129.387.307.257.483.624.533 1.1h-3.504c.06-.456.272-.817.639-1.084a1.999 1.999 0 0 1 1.203-.403zm59.178.235v6.049h.689v-6.05h-.69zm2.53 0v6.049h2.419c.587 0 1.121-.134 1.6-.399a2.913 2.913 0 0 0 1.122-1.088c.277-.46.414-.974.414-1.539 0-.564-.137-1.076-.414-1.537a2.937 2.937 0 0 0-1.115-1.09c-.472-.265-1-.396-1.582-.396h-2.443zm6.817 0v6.049H128v-.641h-3.525V66.02h3.05v-.631h-3.05v-2.032h3.412v-.638h-4.104zm-6.127.638h1.739c.449 0 .857.108 1.226.32.369.208.66.493.873.856.219.363.328.77.328 1.219 0 .443-.107.846-.32 1.209a2.392 2.392 0 0 1-2.082 1.166h-1.764v-4.77zm-48.74.614h3.135c.841-.01 1.493.148 1.959.474.475.317.713.768.713 1.352 0 .604-.232 1.07-.698 1.396-.465.327-1.123.485-1.974.475h-3.135v-3.697zm20.43 1.158h2.435v.95c-.148.554-.46.989-.935 1.306-.466.307-1.03.46-1.694.46-.544 0-.98-.129-1.306-.386a1.293 1.293 0 0 1-.49-1.053c0-.851.663-1.277 1.99-1.277zm22.66 2.242a.676.676 0 0 0-.48.223.724.724 0 0 0-.208.535c0 .218.069.4.207.549a.704.704 0 0 0 .52.207.689.689 0 0 0 .506-.207.773.773 0 0 0 .207-.55.724.724 0 0 0-.207-.534.667.667 0 0 0-.506-.223h-.04z"/></svg>
