<svg xmlns="http://www.w3.org/2000/svg" viewBox="0 0 128 128"><path d="M56.083.004c-2.82.049-5.596.495-8.266 1.574v-.002c-4.776 1.92-8.956 5.072-12.764 8.445-6.366 5.643-11.623 12.448-15.366 19.964-3.517 7.06-6.075 14.694-7.855 22.392v.002c-2.874 12.476-1.346 25.337 2.23 37.357 1.965 6.602 4.562 13.252 8.734 18.869 4.273 5.756 9.75 11.04 16.465 14.116 4.152 1.904 8.665 3.377 13.164 4.252 5.437 1.06 10.78 1.36 16.231.615 5.303-.726 9.006-2.311 12.74-4.513 10.88-6.42 22.35-17.674 25.562-36.798v-.002c.99-5.87 1.443-12.245.062-22.955-.73-5.665-2.394-15.252-4.825-20.754v-.002l-.008-.02-.073-.158-.042-.046-.051-.087c.112-.138.21-.233.583-.186.437.056 1.121.325 1.992.864l.006.002.004.002c1.616.954 3.63 1.12 5.72 1.265.865.06 1.503.075 1.987.03a2.37 2.37 0 0 0 .636-.13c.191-.073.392-.197.508-.418a.87.87 0 0 0 .04-.662 1.778 1.778 0 0 0-.273-.502c-.233-.319-.562-.658-.967-1.065l-.01-.01-1.13-1.016c.333-.13.685-.285 1.083-.652.955-.882 2.049-2.913 3.081-5.406 1.033-2.494 1.935-5.403 2.212-7.893.153-1.235.223-2.222.145-3.038-.08-.817-.324-1.494-.83-1.962-.507-.468-1.206-.678-2.068-.744-.862-.065-1.914.007-3.234.159h-.006c-2.19.275-4.743.856-6.003 1.642-.037.019-.383.19-.757.45a2.73 2.73 0 0 0-.557.485c-.082.099-.16.21-.21.368a.774.774 0 0 0 .048.567l.002.002v.002c.197.36.462.422.727.518.265.096.56.166.844.223.554.11 1.044.162 1.068.164 1.862.293 3.003.75 3.635 1.236.631.485.8.958.8 1.537 0 .51-.456 1.81-1.044 2.856-.293.524-.616 1.002-.899 1.325-.241.276-.436.365-.445.391.041.015.055.026-.027.026-.014 0 .026-.021.027-.026l-.124-.043-.028-.018-.172-.115h-.002c-.49-.318-1.27-.954-2.03-1.668l-.006-.004c-1.16-1.125-2.092-1.808-3.077-2.111-.938-.289-1.885-.184-2.96.117-1.3-.343-2.963-.537-4.249-1.275a3.359 3.359 0 0 1-.063-.166c-.082-.226-.244-.603-.63-1.087-.678-.853-1.347-1.313-2.05-1.465-.692-.15-1.342-.006-2.012.16-.227.041-.29.032-.469.057.131-.076.202-.132.356-.215h.002l.296-.166.267-.123.052-.154c.149-.113.316-.202.393-.409.117-.316.027-.64-.113-.915-.274-.54-.826-1.19-1.704-2.315l-.007-.013c-.05-.085-.098-.17-.16-.261l.007.008a1.57 1.57 0 0 0-.102-.133l-.002-.002-.002-.004a1.024 1.024 0 0 0-.076-.075h-.002c.017.015-.016-.02-.059-.053l-.004-.002c-.006-.005-.004-.002-.01-.006-.083-.108-.143-.183-.243-.314l-.004-.006-1.56-2.117 1.463.733c1.745.889 3.372 1.46 4.697 1.672.662.107 1.25.126 1.759.03.5-.094.946-.326 1.213-.733a.77.77 0 0 0 .147-.457.94.94 0 0 0-.117-.4c-.118-.228-.29-.418-.506-.614-.43-.39-1.044-.788-1.78-1.138-1.208-.606-2.812-2.16-3.331-3.137l-.002-.004-.002-.004c-.678-1.224-1.537-2.616-1.977-3.208l-.014-.016-.013-.018c-.668-.753-1.864-1.158-3.167-1.376-1.303-.217-2.706-.21-3.79.198l-.005.002-.004.002c-.224.089-.429.214-.638.332-3.439-3.455-7.73-5.983-12.289-7.604C66.194.74 62.602.32 58.916.077a34.23 34.23 0 0 0-2.833-.073zm.016 1.012c.917-.014 1.835.008 2.75.07 3.652.24 7.14.654 10.618 1.891 4.56 1.622 8.858 4.133 12.209 7.6l.293.302.35-.23c.244-.163.505-.3.778-.408.802-.302 2.097-.344 3.27-.148 1.168.195 2.217.66 2.563 1.045.363.494 1.232 1.88 1.884 3.056.69 1.3 2.297 2.83 3.769 3.568l.006.002.004.002c.666.316 1.222.684 1.546.978.112.103.152.166.201.231-.088.088-.18.18-.447.23-.338.063-.826.058-1.41-.036-1.171-.188-2.727-.722-4.4-1.575l-.003-.002-3.348-1.676-.634.753 2.816 3.82.002.004c.135.178.191.243.305.392l.063.083.08.043v.002h.003l.002.004c0-.002-.005-.008.008.012l.004.004.004.004c.017.024.067.116.128.22l.018.027.02.025c.92 1.18 1.475 1.882 1.638 2.204.082.161.048.157.066.11.017-.049.007 0-.157.094l-.077.045-.035.02-.054.032v-.002l-.225.124c-.464.252-.848.48-1.138.692a2.43 2.43 0 0 0-.374.32c-.106.116-.233.25-.24.526a.652.652 0 0 0 .145.41.69.69 0 0 0 .283.197c.178.07.335.08.524.081.376.004.877-.057 1.579-.184l.016-.004.015-.004c.66-.164 1.154-.251 1.588-.158.433.093.882.36 1.472 1.103v.002c.321.402.4.612.469.802.034.096.063.2.14.334.076.134.215.277.368.364 1.58.909 3.445 1.083 4.607 1.402l.14.037.139-.041c1.058-.313 1.786-.38 2.532-.15s1.564.794 2.678 1.875l.002.002.004.002c.793.747 1.587 1.403 2.178 1.787l.212.138.013.008c.182.103.28.218.623.218.56 0 .88-.36 1.233-.763.353-.404.701-.926 1.02-1.495.639-1.136 1.174-2.388 1.174-3.352 0-.829-.35-1.691-1.195-2.34-.845-.65-2.137-1.125-4.094-1.433l-.014-.002-.012-.002s-.492-.05-1.002-.152a5.252 5.252 0 0 1-.668-.176c.066-.057.108-.105.194-.164.314-.219.674-.402.674-.402l.02-.01.02-.013c.881-.55 3.5-1.233 5.595-1.497 1.29-.147 2.297-.21 3.036-.154.74.057 1.186.226 1.459.479.273.252.442.638.508 1.316.065.678.009 1.616-.14 2.825v.006c-.26 2.333-1.137 5.188-2.143 7.615-1.006 2.428-2.211 4.475-2.835 5.05-.787.728-1.184.63-1.284.605l-.21-.053-.798.5 2.322 2.085c.396.398.702.725.864.947.025.034.022.039.04.067-.068.015-.113.03-.228.042-.374.035-.98.026-1.82-.032-2.071-.144-3.935-.34-5.268-1.123l-.01-.004c-.934-.577-1.708-.915-2.388-1.002-.682-.087-1.34.157-1.67.684l-.316.423.221.3a.253.253 0 0 0 .014.02l-.045-.079.174.22-.1-.097-.023-.034c.003.008-.026-.022.022.038l.249.41.002.003.002.008.008.016c2.322 5.257 4.022 14.862 4.746 20.475 1.37 10.633.924 16.855-.054 22.657v.002c-3.157 18.801-14.376 29.78-25.08 36.096-3.665 2.162-7.193 3.67-12.364 4.378-5.328.729-10.549.44-15.9-.603-4.414-.858-8.855-2.31-12.934-4.18-6.504-2.98-11.871-8.139-16.073-13.8-4.064-5.471-6.632-12.006-8.58-18.552-3.543-11.907-5.036-24.591-2.214-36.842v-.002c1.764-7.633 4.301-15.195 7.775-22.169 3.683-7.395 8.863-14.097 15.133-19.655 3.767-3.336 7.862-6.41 12.472-8.264v-.002c2.534-1.024 5.177-1.451 7.902-1.498zm.01.514c-2.677.047-5.256.462-7.722 1.459-4.526 1.82-8.578 4.857-12.324 8.175v-.002C29.84 16.677 24.704 23.331 21.05 30.667c-3.453 6.93-5.98 14.454-7.736 22.054-2.797 12.138-1.32 24.73 2.205 36.58 1.941 6.518 4.491 12.996 8.5 18.394 4.167 5.614 9.478 10.708 15.875 13.64 4.043 1.855 8.45 3.293 12.822 4.144 5.305 1.034 10.466 1.317 15.732.598 5.106-.698 8.542-2.171 12.172-4.312 10.617-6.266 21.705-17.103 24.835-35.74.972-5.771 1.42-11.913.053-22.508-.717-5.567-2.431-15.141-4.688-20.281l-.014-.016c-.115.302-.251.76-.409 1.405l-.235.955-.109-.127c.015 1.325.43 3.725.923 4.956.96 2.28.89 4.825-.144 6.967l-.231 1.139-.672.08c-.282.164-.658.277-1.218.317-.484.034-.583.01-.872-.061l-.608.075c-.272.244-.359.439-.757.583l-.495.383-1.403.25c-1.027.337-1.84.663-1.945 1.096l-.142 2.127-.305.184c-.312.7-.776 1.13-1.328 1.13-.532 0-.937-.268-.937-.531 0-.807-2.29-3.892-2.965-3.892-.333 0 .083 1.142.89 2.012 1.07 1.139 1.475 2.21 1.273 3.819-.268 2.748-2.01 3.352-3.084 1.14l-.735-1.54v1.471c-.067 1.945-1.198 1.819-4.155 0-.857-.577-1.447-.803-1.905-1.289-.261-1.221-.29-2.392.296-4.27.163-.538.118-.961-.085-1.272l-2.146-.593c-.56.069-1.19.243-1.852.51l-1.985 1.042c-1.482 1.007-4.466 2.666-6.665 3.797-2.21 1.071-3.874 2.24-4.221 2.411-.379.19-.687.272-1.072.087l-.358.188-.948-1.463c-.52-.659-1.162-1.57-2.042-2.9l-2.752-4.123-.52-.52-3.832-.448c-2.211-.27-4.154-.735-4.356-1.071-.028-.037-.037-.113-.036-.212L46.503 57l.328-.844c.217-.868.638-2.115 1.21-3.47l1.676-4.02-2.747-4.823c-.062-.108-.12-.22-.18-.329l-.008.006-.028-.069c-1.46-2.583-2.816-5.419-3.133-6.374-.47-1.744-.336-2.014 1.273-2.613 1.004-.405 3.012-.809 4.487-.943 1.473-.13 2.883-.265 3.083-.265.203-.067 2.074-2.414 4.088-5.293 2.074-2.814 4.492-5.83 5.36-6.699 1.542-1.408 1.878-1.475 4.756-.674 1.295.332 2.067.488 2.668.453l1.856-.975c.058-.051.107-.09.168-.146.87-.805 3.017-1.72 4.27-1.423.609-1.035 1.33-2.325 2.636-4.028 1.035-1.356 1.916-2.674 2.961-3.621-3.275-3.355-7.465-5.806-11.93-7.393-3.41-1.214-6.847-1.622-10.482-1.862a32.678 32.678 0 0 0-2.706-.065zm29.166 8.831c-3.187.04-5.888 3.125-9.424 10.364-3.953 7.906-4.088 9.381-1.34 10.788s4.757 1.273 8.238-.672c1.945-1.139 4.558-1.874 7.44-2.141 2.412-.202 4.424-.603 4.424-.872 0-.806-1.431-1.922-2.546-1.743-1.134.18-6.501 1.421-9.792 1.915l-.192.036-.03.002c-1.094.158-1.929.224-2.249.122-.928-.317-1.352-1.165-1.298-2.39l-.176-.47.348-.713c.186-.8.548-1.718 1.025-2.702l.127-.364.174-.286.105-.172a25.994 25.994 0 0 1 1.035-1.746c1.476-2.277 3.014-4.221 3.55-4.356.47-.202 2.413.536 4.29 1.609 2.45 1.364 6.324 2.58 6.581 2.336.124-.114-2.008-.949-2.83-1.534-.803-.534-2.076-2.143-2.815-3.55-.668-1.407-1.743-2.746-2.344-3.014-.803-.301-1.565-.457-2.3-.447zm-.514 6.074c-.803 0-1.984 2.44-2.462 3.495.451.3 2.084 1.26 4.265 2.08l1.48.503c.023.006.043.016.066.022.827.22 1.307.376 1.393.19-1.427-2.054-3.065-4.133-4.516-6.224a.548.548 0 0 0-.226-.066zM74.464 19.89l-1.094.237a9.18 9.18 0 0 0-1.472 1.002c-1.744 1.474-4.155 1.74-6.301.6-.019-.01-.033-.013-.052-.023l-1.458-.204c-.585.257-1.284.97-2.51 2.376-.035.037-.077.088-.111.127l-3.28 4.036c-.487.65-.945 1.276-1.298 1.797-1.655 2.408-2.543 3.585-3.595 4.225l-.178.22-.3.043c-.805.352-1.765.476-3.232.603-1.081.095-1.911.2-2.56.342l-1.556.775c-.165.244-.22.547-.176.923l1.714 4.344.233.518 7.312-5.999a159.4 159.4 0 0 0 2.204-2.109c3.389-3.335 5.046-4.668 6.4-5.07l.006-.003h.01c.325-.096.64-.153.952-.153 1.139 0 3.15-.2 4.49-.397 2.278-.405 2.682-.807 4.223-4.09.938-2.078 1.676-3.822 1.676-3.956a.268.268 0 0 0-.047-.165zm7.044 1.148c-.288.47-.632.817-1.117 1.96l-.492 1.41-.11.23c-.132.467-.197.867-.177 1.19l.281.748c.418.446 1.285.527 2.659.313.744-.11 1.708-.372 2.632-.682l-.007-.014 3.783-2.074-2.455-.78c-.206-.068-.479-.192-.724-.29l-.233-.072-.158-.087c-1.615-.697-3.6-1.747-3.882-1.852zm32.534.96c-1.94-.066-7.748 1.165-8.349 1.768-.023.018-.026.035-.016.049a5.49 5.49 0 0 1 .7.12c.61.052 1.463.095 2.034.206 3.42.74 4.173 1.878 4.07 3.898-.106 2.052-.716 3.676-1.787 4.815-1.408 1.474-1.676 1.541-3.285.668-.937-.467-2.277-1.538-2.882-2.277-.668-.803-1.874-1.405-2.68-1.405-1.475.065-1.51.74-.376 2.255.218.166.45-.166 1.297.031.577.131.838.4 1.044.57 2.7 2.214 4.316 4.657 5.012 5.874 1.21 2.146 3.278.115 5.353-5.111 1.34-3.285 2.308-6.345 2.174-8.69-.063-2.798-.767-2.635-2.309-2.769zm-18.293 7.49c-1.041-.02-2.628.14-5.091.417-2.06.239-4.404.899-6.395 1.672l-2.97 1.427c-.858.534-1.422 1.05-1.422 1.46 0 .269-1.007 1.474-2.146 2.679l-2.21 2.277 4.49-.336c4.021-.201 5.025-.6 8.575-3.08 4.289-3.016 5.495-2.882 1.878.265-2.748 2.281-7.037 4.223-9.314 4.29-1.272 0-1.877.402-2.146 1.474-.534 1.877.538 3.752 3.352 6.1 2.68 2.277 4.02 4.688 4.356 7.839.103 1.105.582 2.328 1.3 3.29l.367.443c.09.099.18.198.274.287.944.88 1.805 1.976 2.074 2.556l.259.308c.131-.046.176-.607.079-1.524-.066-1.944.068-2.281 1.138-2.146.252.047.708.1 1.21.128l2.148-.38.453-.351c-.964-.034-4.024-.603-4.68-.603-1.475 0-3.416-2.009-3.416-3.55 0-.604.87-1.541 2.008-2.143 2.412-1.277 2.68-1.275 2.68.066v3.014c0 1.609.336 1.81 3.084 2.214 1.044.123 2.047.186 2.75.176l.861-.107c.001-.002.005-.002.006-.002.276-.18.496-.566.658-1.075l.237-1.177c.086-.687.1-1.451.042-2.221l-.872-3.605a30.692 30.692 0 0 1-.77-3.18l-.443-1.831v-1.23l-.394-3.304 2.212-.47c1.74-.404 2.077-.735 1.741-1.878-.197-.803-.399-2.277-.399-3.214 0-.941-.471-2.28-1.075-3.017-1.005-1.206-1.005-1.206-.735.605.402 2.545-1.073 1.942-1.542-.605-.253-1.38-.476-1.923-2.212-1.956zm-28.589.28-4.13.48.222 1.669c.202 1.34-.001 1.94-.604 1.94-.469 0-.87-.666-.87-1.54-.033-.624-.134-.889-.494-.693l-.279.23-.006.004-.01.008-.34.292c-.377.375-.87.918-1.551 1.7-1.945 2.213-2.68 3.623-2.68 5.159 0 1.206-.27 2.214-.605 2.214-.802 0-1.471-1.945-1.004-2.882.269-.47-.4 0-1.475 1.006-1.004 1.004-1.94 2.612-1.94 3.548-.136 2.146-1.206 2.282-1.744.203-.175-.699-.295-1.045-.437-1.08l-.251.215a3.58 3.58 0 0 0-.25.464c-.234.639.016 1.695.65 2.925l1.63 2.653-.01.024.142.225-1.676 3.886-1.146 2.771-.404 1.036 5.513 1.014c.017 0 .041.006.057.006.501.019.913.089 1.3.245l.349.063.356.358a5.758 5.758 0 0 1 .871.87l.534.535 3.073 4.736c.808 1.159 1.431 1.969 1.558 1.969.404 0 8.51-4.086 8.982-4.485.197-.202-.27-.742-1.009-1.275-3.818-2.748-5.627-5.163-6.902-9.116-.802-2.346-1.273-4.284-1.138-4.42.672-.67 1.678.87 2.613 4.088 1.275 4.02 1.743 4.755 5.495 7.637l2.68 2.143 1.945-1.273c.665-.428 1.52-.696 2.405-.82l.022-.012.016.004c1.596-.216 3.29.057 4.19.828.177.22.741.254 1.421.146l2.305-.686.577-.197-3.441-3.078.014-.027c-.59-.274-1.199-.497-1.746-.578-4.759-.873-5.36-1.81-4.356-6.9.668-3.352 1.677-2.417 1.475 1.406l-.202 3.484 3.016.536c1.524.275 2.468.29 3.131.057l.318-.14a1.965 1.965 0 0 0 .437-.32c.803-.734.465-1.272-2.146-3.416-3.283-2.813-4.756-5.494-4.088-7.64.336-1.138 0-1.409-2.68-1.745-1.672-.265-3.012-.735-3.012-1.004s1.137-1.003 2.543-1.609c2.817-1.272 4.893-3.751 3.15-3.751-.534 0-2.009-.466-3.282-1.071-.508-.24-1-.55-1.449-.868l-.713-.338-.423-.637c-.115-.128-.236-.26-.297-.367-.175-.353-.48-.584-1.01-.728Zm35.147 2.999c-.138.018-.232.098-.263.253-.233 1.146.61 3.652 1.546 3.318 1.072-.4 4.689 3.082 3.953 3.754-.201.265-1.272-.269-2.21-1.21-1.743-1.673-1.88-1.672-2.213-.399-.401 1.61-.052 2.38 5.293 3.886 2.328.656 3.406.605 3.406.605s-.738-.576-1.386-1.214c-.653-.635-1.214-1.336-1.214-1.336-.874-1.205-2.146-3.012-2.881-3.953-.161-.2-.303-.37-.455-.557l-2.113-2.349c-.343-.312-.664-.567-.935-.684-.207-.09-.389-.133-.528-.114zm-8.3 3.103c1.272 0 3.685 2.48 3.017 3.149-.202.268-1.273-.334-2.277-1.342-1.277-1.34-1.476-1.807-.74-1.807zm-.379 2.83c1.048-.1 1.92.22 2.19.99.331 1.071-3.422 4.889-4.828 4.889-.534 0-1.34-.602-1.74-1.34-.537-1.004-.335-1.61 1.14-3.017.97-.903 2.192-1.42 3.238-1.522zm.518.572c-.505-.024-1.405.482-2.619 1.488-1.205 1.004-1.54 1.743-1.07 2.08.4.197 1.07-.203 1.475-.941.4-.735 1.137-1.34 1.67-1.34.538 0 1.009-.337 1.009-.669 0-.401-.161-.605-.465-.618zm6.023 1.31v.144l-.318.054.324.334a.803.803 0 0 0 .263-.085c.169-.225.044-.394-.27-.447zm-3.33 11.531c.401.016.752.07.988.174.806.332.806.601-.135 1.605-1.574 1.775-3.555 2.196-4.244.951-.146-.27-.277-.725-.227-1.073.052-.346.15-.79.42-1.064.331-.34 1.99-.64 3.197-.593zm-.398 1.02c-.246-.02-.592.018-.976.054-.732.067-1.327.267-1.038 1.077.282.786 2.407-.48 2.407-.852 0-.183-.147-.258-.393-.279zm-5.849.158c-.94 0-1.609 1.738-1.008 2.679.74 1.206 1.678.736 1.678-1.004h-.002c0-.94-.336-1.675-.668-1.675zm-5.969.588-1.142.506-.145.254c.039.383.534.79 1.293 1.33.427.307.676.426.828.44l-.186-.431ZM41.698 78.02h.002a17.342 17.342 0 0 1 4.088.49c1.36.328 2.751.862 4.17 1.605l-.704 3.534h-.284c-1.154-1.086-2.415-1.87-3.775-2.356-1.36-.482-2.824-.727-4.388-.727-1.72 0-3.225.34-4.519 1.02a10.002 10.002 0 0 0-3.27 2.704c-.865 1.103-1.517 2.392-1.96 3.862a15.325 15.325 0 0 0-.664 4.443c0 2.244.613 3.97 1.834 5.19 1.227 1.222 3.04 1.831 5.436 1.831a14.704 14.704 0 0 0 2.965-.288 18.297 18.297 0 0 0 2.6-.744l1.317-5.96h-6.21l.597-2.61h9.317l-2.312 9.994-1.862.759a22.377 22.377 0 0 1-2.08.697 21.697 21.697 0 0 1-2.23.512 14.22 14.22 0 0 1-2.462.206c-3.21 0-5.716-.795-7.523-2.38-1.801-1.586-2.704-3.835-2.704-6.756 0-2.146.333-4.13.993-5.957.663-1.822 1.624-3.415 2.885-4.77 1.253-1.345 2.788-2.397 4.606-3.16 1.818-.759 3.864-1.139 6.137-1.139zm24.254 0a14.36 14.36 0 0 1 3.815.49c1.201.33 2.431.85 3.692 1.558l-.703 3.502h-.233a17.801 17.801 0 0 0-1.04-.96c-.352-.297-.875-.624-1.573-.977-.574-.303-1.257-.556-2.048-.759-.795-.204-1.669-.304-2.629-.304-1.46 0-2.799.304-4.016.913a9.64 9.64 0 0 0-3.179 2.558c-.875 1.062-1.561 2.356-2.063 3.878a15.54 15.54 0 0 0-.751 4.862c0 2.147.557 3.819 1.676 5.013 1.116 1.194 2.723 1.79 4.829 1.79a11.5 11.5 0 0 0 2.824-.335 13.275 13.275 0 0 0 2.431-.854 14.864 14.864 0 0 0 1.83-1.016c.54-.351 1.007-.681 1.39-.985h.223l-.735 3.598c-1.095.553-2.356 1.052-3.78 1.494-1.424.442-2.937.664-4.541.664-2.95 0-5.266-.765-6.942-2.293-1.68-1.526-2.518-3.692-2.518-6.495 0-2.15.32-4.15.968-6.008.644-1.854 1.573-3.479 2.783-4.879 1.198-1.376 2.676-2.461 4.428-3.26 1.75-.795 3.704-1.195 5.862-1.195zm22.395 0a14.406 14.406 0 0 1 3.819.49c1.198.33 2.426.85 3.688 1.558l-.704 3.502h-.233a17.801 17.801 0 0 0-1.04-.96c-.35-.297-.875-.624-1.573-.977-.574-.303-1.256-.556-2.048-.759-.79-.204-1.668-.304-2.629-.304-1.459 0-2.797.304-4.016.913a9.587 9.587 0 0 0-3.174 2.558c-.878 1.062-1.566 2.356-2.068 3.878-.498 1.522-.747 3.143-.747 4.862 0 2.147.557 3.819 1.672 5.013 1.116 1.194 2.723 1.79 4.829 1.79.992 0 1.934-.11 2.825-.335a13.275 13.275 0 0 0 2.43-.854 14.864 14.864 0 0 0 1.831-1.016 18.337 18.337 0 0 0 1.391-.985h.222l-.735 3.598c-1.095.553-2.357 1.052-3.78 1.494a15.243 15.243 0 0 1-4.542.664c-2.95 0-5.265-.765-6.941-2.293-1.68-1.526-2.519-3.692-2.519-6.495 0-2.15.324-4.15.969-6.008.648-1.854 1.573-3.479 2.783-4.879 1.201-1.376 2.676-2.461 4.427-3.26 1.751-.795 3.704-1.195 5.863-1.195z"/></svg>
