<svg xmlns="http://www.w3.org/2000/svg" viewBox="0 0 128 128"><path d="M55.936 1.264c-2.74.047-5.419.478-7.99 1.517-4.638 1.865-8.724 4.941-12.467 8.256-6.243 5.534-11.4 12.207-15.069 19.574-3.454 6.934-5.972 14.443-7.723 22.018-2.814 12.217-1.321 24.838 2.196 36.66 1.934 6.496 4.486 13.01 8.555 18.488 4.187 5.641 9.545 10.8 16.076 13.793 4.067 1.865 8.49 3.31 12.894 4.166 5.33 1.039 10.549 1.33 15.875.602 5.175-.708 8.748-2.237 12.403-4.393 10.665-6.293 21.874-17.277 25.021-36.015.972-5.767 1.417-11.991.057-22.537-.718-5.572-2.381-15.056-4.73-20.372l-.007-.017-.037-.082-.021-.024-.246-.41c-.003-.004-.01-.003-.012-.008-.012-.015-.019-.033-.03-.048l.116-.155c.45-.718 1.543-.628 3.332.48 1.457.86 3.375 1.037 5.433 1.18 3.368.232 3.102-.273 1.52-1.863l-1.82-1.635.047-.029c.253.063.862.087 1.73-.715 1.56-1.44 4.543-8.062 5.074-12.828.598-4.836-.199-5.562-5.363-4.969-2.117.266-4.672.891-5.73 1.551 0 0-1.512.758-1.282 1.188.235.43 2.246.64 2.246.64 3.774.594 4.805 1.844 4.805 3.235 0 1.457-1.96 5.043-2.887 5.043-.077 0-.211-.06-.37-.15l-.196-.13c-.535-.347-1.314-.986-2.082-1.709-2.25-2.183-3.462-2.468-5.64-1.824-1.224-.336-3-.512-4.434-1.336-.352-.199-.125-.483-.825-1.36-1.253-1.576-2.21-1.438-3.535-1.108-2.713.49-2.237-.115-.437-1.088l.306-.17.084-.04.004-.01c.795-.46.427-.795-1.384-3.12-.056-.095-.106-.184-.147-.244-.013-.02-.021-.034-.057-.075a.54.54 0 0 0-.039-.039c-.01-.009-.02-.02-.037-.033-.01-.008-.027-.017-.045-.027-.117-.153-.17-.216-.298-.385l-2.782-3.773 3.309 1.656c3.379 1.722 6.289 2.183 6.953 1.125.266-.332-.664-1.192-2.055-1.852-1.324-.664-2.91-2.187-3.507-3.312-.66-1.192-1.524-2.583-1.918-3.114-.997-1.125-4.46-1.73-6.325-1.027a4.75 4.75 0 0 0-.869.453C78.2 7.37 73.886 4.854 69.32 3.23c-3.503-1.246-7.001-1.657-10.627-1.896a33.317 33.317 0 0 0-2.757-.07zm.017 1.006a32.29 32.29 0 0 1 2.674.066c3.592.237 6.987.64 10.357 1.84 4.412 1.568 8.554 3.989 11.79 7.304-1.033.936-1.904 2.239-2.926 3.579-1.29 1.683-2.004 2.957-2.606 3.98-1.238-.293-3.36.61-4.219 1.406-.06.055-.109.094-.166.145l-1.834.963c-.594.035-1.356-.12-2.636-.448-2.844-.792-3.176-.726-4.7.665-.858.859-3.246 3.84-5.296 6.62-1.99 2.845-3.84 5.165-4.04 5.231-.198 0-1.59.133-3.046.262-1.457.133-3.442.53-4.434.93-1.59.592-1.723.859-1.258 2.582.313.944 1.653 3.748 3.096 6.3l.027.069.008-.006c.06.107.117.218.178.324l2.715 4.766-1.657 3.972c-.565 1.339-.981 2.572-1.195 3.43l-.324.834.16.03c-.001.098.008.174.035.21.2.332 2.12.793 4.305 1.059l3.787.443.514.514 2.718 4.074c.87 1.313 1.504 2.214 2.018 2.865l.938 1.446.353-.186c.38.183.685.101 1.059-.086.343-.169 1.988-1.324 4.172-2.383 2.172-1.117 5.12-2.757 6.585-3.752l1.961-1.03c.655-.264 1.277-.435 1.83-.503l2.122.586c.2.307.245.725.084 1.258-.58 1.855-.551 3.012-.293 4.219.453.48 1.035.703 1.882 1.273 2.922 1.797 4.04 1.922 4.106 0v-1.453l.726 1.52c1.06 2.186 2.782 1.59 3.047-1.126.2-1.59-.2-2.648-1.257-3.773-.797-.86-1.21-1.988-.88-1.988.666 0 2.93 3.047 2.93 3.844 0 .26.4.527.926.527.545 0 1.004-.426 1.313-1.117l.3-.182.141-2.103c.104-.428.907-.75 1.922-1.084l1.387-.245.488-.379c.394-.142.48-.335.748-.576l.601-.074c.285.071.384.094.862.06.553-.039.925-.15 1.203-.312l.664-.08.228-1.125c1.022-2.117 1.091-4.632.143-6.885-.488-1.216-.897-3.587-.912-4.896l.107.125.233-.945c.156-.638.29-1.088.404-1.387l.014.015c2.23 5.079 3.924 14.539 4.633 20.04 1.35 10.469.907 16.54-.053 22.242-3.093 18.417-14.048 29.125-24.54 35.316-3.587 2.116-6.983 3.572-12.029 4.262-5.203.71-10.302.43-15.544-.592-4.32-.84-8.675-2.262-12.67-4.094-6.322-2.898-11.57-7.931-15.688-13.478-3.961-5.334-6.48-11.736-8.398-18.176-3.483-11.71-4.943-24.153-2.18-36.147 1.736-7.51 4.233-14.946 7.645-21.794 3.61-7.249 8.686-13.822 14.834-19.272v.002c3.702-3.279 7.705-6.28 12.177-8.078 2.437-.985 4.986-1.397 7.631-1.443zm28.82 8.728c.727-.01 1.48.142 2.274.44.594.265 1.656 1.589 2.316 2.98.73 1.39 1.989 2.98 2.782 3.508.812.578 2.918 1.402 2.796 1.515-.254.24-4.082-.96-6.504-2.308-1.854-1.06-3.773-1.79-4.238-1.59-.53.133-2.05 2.055-3.508 4.305a25.686 25.686 0 0 0-1.023 1.724l-.104.17-.171.283-.125.36c-.472.972-.83 1.88-1.014 2.67l-.344.705.174.465c-.053 1.21.366 2.046 1.283 2.36.316.1 1.141.036 2.223-.12l.03-.002.189-.035c3.252-.488 8.555-1.716 9.675-1.893 1.102-.177 2.516.926 2.516 1.723 0 .265-1.988.66-4.371.86-2.848.264-5.43.991-7.352 2.116-3.44 1.922-5.425 2.055-8.14.664-2.715-1.39-2.582-2.847 1.324-10.66 3.494-7.153 6.162-10.2 9.312-10.24zM84.266 17c.063 0 .14.023.222.063 1.434 2.067 3.053 4.122 4.463 6.152-.085.184-.56.03-1.377-.188-.022-.006-.042-.015-.064-.021l-1.463-.498c-2.155-.809-3.769-1.758-4.215-2.055.473-1.043 1.64-3.453 2.434-3.453zM74.09 20.412c.03.041.047.093.047.162 0 .133-.73 1.856-1.657 3.91-1.523 3.243-1.921 3.64-4.171 4.04-1.325.194-3.313.394-4.438.394-.308 0-.619.056-.941.15h-.01l-.006.004c-1.338.397-2.975 1.714-6.324 5.01-.715.698-1.454 1.404-2.178 2.084l-7.224 5.928-.231-.512-1.693-4.293c-.043-.372.01-.671.173-.912l1.538-.766c.641-.14 1.461-.244 2.529-.338 1.45-.126 2.398-.248 3.193-.595l.297-.043.176-.217c1.04-.633 1.918-1.796 3.553-4.176.349-.514.801-1.132 1.283-1.775l3.24-3.99c.034-.038.076-.089.11-.125 1.212-1.39 1.902-2.092 2.48-2.346l1.441.2c.018.01.033.014.051.024 2.121 1.125 4.504.864 6.227-.593a9.072 9.072 0 0 1 1.455-.992l1.08-.233zm6.96 1.135c.277.103 2.24 1.141 3.837 1.83l.156.086.23.07c.242.098.512.22.715.287l2.426.772-3.738 2.049.008.013c-.913.307-1.866.566-2.602.674-1.357.212-2.214.13-2.627-.31l-.277-.74c-.02-.318.044-.714.174-1.176l.109-.225.486-1.393c.479-1.13.819-1.473 1.104-1.937zm32.15.95c1.523.132 2.218-.028 2.28 2.737.133 2.317-.824 5.34-2.148 8.586-2.05 5.164-4.094 7.172-5.289 5.051-.688-1.203-2.285-3.617-4.953-5.805-.203-.168-.461-.433-1.031-.562-.836-.195-1.067.133-1.282-.031-1.12-1.496-1.086-2.165.371-2.23.797 0 1.989.597 2.649 1.39.598.73 1.922 1.789 2.848 2.25 1.59.863 1.855.797 3.246-.66 1.058-1.125 1.66-2.73 1.765-4.758.102-1.996-.64-3.12-4.02-3.852-.564-.11-1.408-.152-2.011-.203a5.425 5.425 0 0 0-.691-.119c-.01-.014-.008-.031.015-.049.594-.595 6.332-1.812 8.25-1.746zm-18.077 7.4c1.715.033 1.936.57 2.186 1.935.464 2.516 1.921 3.113 1.523.598-.266-1.79-.266-1.79.727-.598.597.727 1.062 2.05 1.062 2.98 0 .926.2 2.383.395 3.176.332 1.13 0 1.457-1.72 1.856l-2.187.465.389 3.265v1.215l.438 1.809c.22 1.156.489 2.258.761 3.142l.862 3.563c.058.761.044 1.516-.041 2.195l-.235 1.162c-.16.503-.377.885-.65 1.063-.001 0-.005 0-.006.002l-.852.105c-.694.01-1.684-.052-2.716-.174-2.715-.398-3.047-.597-3.047-2.187v-2.98c0-1.325-.266-1.325-2.649-.063-1.125.594-1.984 1.52-1.984 2.117 0 1.523 1.918 3.508 3.375 3.508.649 0 3.672.562 4.625.595l-.447.348-2.123.375c-.496-.027-.947-.08-1.196-.127-1.058-.133-1.19.2-1.125 2.121.096.906.052 1.46-.078 1.506l-.256-.306c-.266-.573-1.117-1.655-2.049-2.524-.093-.088-.18-.186-.27-.283l-.362-.438c-.71-.951-1.184-2.16-1.285-3.252-.332-3.113-1.657-5.496-4.305-7.746-2.781-2.32-3.84-4.172-3.313-6.027.266-1.059.864-1.457 2.121-1.457 2.25-.066 6.489-1.984 9.204-4.238 3.574-3.11 2.382-3.243-1.856-.262-3.508 2.45-4.5 2.844-8.473 3.043l-4.437.332 2.183-2.25c1.126-1.191 2.122-2.383 2.122-2.648 0-.406.557-.914 1.404-1.442l2.935-1.41c1.967-.764 4.284-1.416 6.32-1.652 2.434-.273 4.001-.433 5.03-.413zm-28.25.277 3.152.08c.523.142.825.37.998.719.06.106.18.236.293.363l.418.629.705.334c.444.314.93.62 1.432.857 1.258.598 2.715 1.059 3.242 1.059 1.723 0-.327 2.45-3.11 3.707-1.39.598-2.515 1.324-2.515 1.59 0 .265 1.325.73 2.977.992 2.648.332 2.98.598 2.648 1.723-.66 2.12.796 4.77 4.04 7.55 2.58 2.118 2.913 2.65 2.12 3.375a1.942 1.942 0 0 1-.431.317l-.315.138c-.655.23-1.587.216-3.093-.056l-2.98-.531.198-3.442c.2-3.777-.797-4.703-1.457-1.39-.992 5.03-.398 5.957 4.305 6.82.54.08 1.142.3 1.725.57l-.014.026 3.4 3.042-.57.196-2.277.676c-.672.106-1.23.075-1.405-.143-.889-.762-2.563-1.031-4.14-.818l-.016-.004-.021.011c-.875.123-1.72.388-2.377.811l-1.922 1.258-2.649-2.117c-3.707-2.848-4.17-3.575-5.43-7.547-.924-3.18-1.917-4.702-2.581-4.04-.133.134.332 2.05 1.125 4.368 1.26 3.906 3.047 6.293 6.82 9.008.73.527 1.191 1.059.996 1.258-.465.395-8.476 4.433-8.875 4.433-.125 0-.741-.8-1.539-1.945l-3.037-4.68-.527-.53a5.69 5.69 0 0 0-.862-.86l-.351-.352-.344-.063c-.383-.154-.79-.223-1.285-.242-.016 0-.04-.005-.057-.006l-5.447-1.002.398-1.023 1.133-2.738 1.656-3.84-.14-.223.01-.023-1.612-2.621c-.626-1.216-.872-2.26-.64-2.891.096-.21.173-.345.246-.459l.248-.213c.14.035.258.376.431 1.067.532 2.054 1.59 1.921 1.723-.2 0-.925.926-2.515 1.918-3.507 1.062-.993 1.723-1.458 1.457-.993-.461.926.2 2.848.992 2.848.332 0 .598-.996.598-2.188 0-1.518.726-2.91 2.648-5.097.674-.773 1.16-1.31 1.533-1.68l.336-.289.01-.008.006-.004.275-.226c.356-.194.456.067.489.683 0 .864.397 1.524.86 1.524.596 0 .796-.594.597-1.918l-.221-1.649 4.082-.474zm34.73 2.963c.137-.019.317.023.522.113.268.115.585.367.924.676l2.088 2.32c.15.186.29.352.449.55.727.93 1.984 2.716 2.848 3.907 0 0 .554.692 1.199 1.32.64.63 1.37 1.2 1.37 1.2s-1.066.05-3.366-.598c-5.282-1.488-5.626-2.25-5.23-3.84.33-1.258.464-1.258 2.187.395.926.93 1.984 1.457 2.183 1.195.727-.664-2.847-4.106-3.906-3.71-.926.33-1.758-2.145-1.527-3.278.03-.153.123-.232.26-.25zm-8.2 3.066c-.728 0-.532.461.73 1.785.992.996 2.05 1.59 2.25 1.325.66-.66-1.724-3.11-2.98-3.11zM93.028 39c-1.034.1-2.242.611-3.2 1.504-1.458 1.39-1.657 1.988-1.126 2.98.395.73 1.192 1.325 1.719 1.325 1.39 0 5.097-3.774 4.77-4.832-.267-.762-1.128-1.076-2.163-.977zm.512.563c.3.013.459.216.459.613 0 .328-.465.66-.996.66-.527 0-1.258.598-1.652 1.324-.4.73-1.063 1.125-1.457.93-.465-.332-.133-1.063 1.058-2.055 1.199-.994 2.089-1.495 2.588-1.472zm5.951 1.296c.31.052.433.22.266.442a.793.793 0 0 1-.26.084l-.32-.33.314-.053v-.143zM96.2 52.254c-1.192-.047-2.832.25-3.16.586-.266.27-.363.708-.414 1.05-.05.344.078.794.223 1.06.68 1.23 2.64.816 4.195-.938.93-.992.93-1.258.133-1.586-.233-.103-.58-.157-.977-.172zm-.394 1.008c.243.02.39.094.39.275 0 .367-2.1 1.619-2.379.842-.285-.8.303-1 1.026-1.066.38-.035.72-.071.963-.051zm-5.778.156c.328 0 .66.725.66 1.654h.002c0 1.72-.927 2.184-1.658.992-.594-.93.067-2.646.996-2.646zm-5.898.58.639 2.074.185.426c-.15-.013-.396-.131-.818-.434-.75-.535-1.24-.936-1.278-1.314l.143-.252 1.129-.5zM41.715 77.855c-2.247 0-4.27.375-6.067 1.125-1.796.754-3.312 1.793-4.55 3.122-1.246 1.339-2.196 2.914-2.852 4.714-.652 1.805-.98 3.766-.98 5.887 0 2.886.892 5.109 2.672 6.676 1.785 1.566 4.261 2.351 7.433 2.351.867 0 1.676-.07 2.434-.203a21.44 21.44 0 0 0 2.203-.507 22.112 22.112 0 0 0 2.054-.688l1.84-.75 2.285-9.875H38.98l-.59 2.578h6.137l-1.3 5.89a18.08 18.08 0 0 1-2.57.735 14.53 14.53 0 0 1-2.93.285c-2.368 0-4.16-.601-5.372-1.808-1.207-1.207-1.812-2.913-1.812-5.13a15.143 15.143 0 0 1 .656-4.39c.438-1.453 1.082-2.726 1.938-3.816a9.883 9.883 0 0 1 3.23-2.672c1.278-.672 2.765-1.008 4.465-1.008 1.546 0 2.992.242 4.336.719 1.344.48 2.59 1.254 3.73 2.328h.282l.695-3.492c-1.402-.735-2.777-1.262-4.121-1.586a17.136 17.136 0 0 0-4.04-.485zm23.965 0c-2.133 0-4.063.395-5.793 1.18-1.731.79-3.192 1.863-4.375 3.223-1.196 1.383-2.114 2.988-2.75 4.82-.641 1.836-.957 3.813-.957 5.938 0 2.769.828 4.91 2.488 6.418 1.656 1.51 3.945 2.265 6.86 2.265 1.585 0 3.08-.219 4.488-.656 1.406-.437 2.652-.93 3.734-1.477l.727-3.554h-.22c-.378.3-.84.625-1.374.972a14.688 14.688 0 0 1-1.809 1.004 13.118 13.118 0 0 1-2.402.844c-.88.223-1.81.332-2.79.332-2.081 0-3.67-.59-4.773-1.77-1.106-1.18-1.656-2.832-1.656-4.953a15.356 15.356 0 0 1 .742-4.804c.496-1.504 1.175-2.782 2.04-3.832A9.526 9.526 0 0 1 61 81.277c1.203-.602 2.527-.902 3.969-.902.949 0 1.812.098 2.597.3.782.2 1.457.45 2.024.75.69.348 1.207.673 1.555.966a17.59 17.59 0 0 1 1.027.949h.23l.696-3.461c-1.246-.7-2.462-1.215-3.649-1.54a14.19 14.19 0 0 0-3.77-.484zm22.129 0c-2.133 0-4.063.395-5.793 1.18-1.731.79-3.188 1.863-4.375 3.223-1.196 1.383-2.11 2.988-2.75 4.82-.637 1.836-.957 3.813-.957 5.938 0 2.769.828 4.91 2.488 6.418 1.657 1.51 3.945 2.265 6.86 2.265 1.585 0 3.08-.219 4.488-.656 1.406-.437 2.652-.93 3.734-1.477l.726-3.554h-.218a18.12 18.12 0 0 1-1.375.972 14.688 14.688 0 0 1-1.809 1.004 13.118 13.118 0 0 1-2.402.844c-.88.223-1.81.332-2.79.332-2.081 0-3.67-.59-4.773-1.77-1.102-1.18-1.652-2.832-1.652-4.953 0-1.699.246-3.3.738-4.804.496-1.504 1.176-2.782 2.043-3.832a9.473 9.473 0 0 1 3.137-2.528c1.204-.602 2.527-.902 3.969-.902.949 0 1.817.098 2.597.3.782.2 1.457.45 2.024.75.69.348 1.207.673 1.554.966a17.59 17.59 0 0 1 1.028.949h.23l.696-3.461c-1.247-.7-2.461-1.215-3.645-1.54a14.235 14.235 0 0 0-3.773-.484z"/></svg>
