<svg xmlns="http://www.w3.org/2000/svg" viewBox="0 0 128 128"><path d="M81.602 11.602l-4.711 7.207c7.445 8.64 14.89 17.28 22.336 25.925 1.05-4.289 1.816.387 2.671 2.204 2.297 5.187 2.653 10.968 3.368 16.52 1.355 10.507.91 16.655-.055 22.39-3.121 18.578-14.203 29.422-24.781 35.664-3.621 2.136-7.106 3.629-12.215 4.328-5.266.719-10.426.433-15.711-.598-4.363-.847-8.75-2.281-12.781-4.129-6.426-2.945-11.73-8.043-15.883-13.636-4.016-5.407-6.55-11.864-8.477-18.332-3.5-11.766-4.976-24.297-2.187-36.403 1.742-7.543 4.25-15.015 7.683-21.906 3.641-7.309 8.758-13.93 14.954-19.422 3.722-3.297 7.765-6.336 12.32-8.168 3.34-1.348 6.875-1.648 10.527-1.41 3.61.238 7.055.644 10.492 1.867 4.68 1.664 9.086 4.266 12.45 7.899zm0 0" fill-rule="evenodd" fill="#ffcfab" stroke-width="1.005" stroke="#000"/><path d="M46.95 42.938l-2.595-6.583 2.793-1.394 5.582-.797 10.372-12.766 5.78.797 3.79-1.992 2.793-.598-4.387 9.57-8.574 1zm0 0" fill-rule="evenodd" fill="#f39105" stroke-width=".242" stroke="#000"/><path d="M84.238 16.215l4.59 5.781 1.195 1.996L81.25 21l.996-2.793zm0 0" fill-rule="evenodd" fill="#ffcfab" stroke-width=".242" stroke="#000"/><path d="M80.852 20.602l4.386 2.394 4.586 1.395-6.183 3.39-4.586-.398-.399-3.192zm0 0" fill-rule="evenodd" fill="#f39a05" stroke-width=".242" stroke="#000"/><path d="M47.148 43.336l3.188 5.184-3.188 8.18 7.579 1.394 1.593 1.594 4.785 7.378 15.157-7.976 4.511 1.246 4.864-1.445-3.39-3.59.597-.996 1.597-.996.797 2.59 1.395 3.19 3.789 4.587.996-.598.2-2.988 3.523-.621 1.242-.965 3.113-.379.797-3.922L98 44.73v-3.988l3.59-.597 3.191 2.394 4.586 1.195 1.797-.398-5.387-6.781-3.308-3.387-1.875-1.2-3.59-2.394-7.379.399-5.785 1.398-4.984 2.395-2.993-.403-3.789-1.793-1.195-1.797-7.777-.199zm0 0" fill-rule="evenodd" fill="#ab9a7e" stroke-width=".242" stroke="#000"/><path d="M84.441 53.11l.997 2.59-.598 1.597-2.992-1.797.797-1.395zm4.586-10.77l3.192-2.793 1.793-.2.597.997-2.789 2.992-1.597.598zm5.77-13.832l-9.758 2.465-6.383 2.59-5.582-1.594-1.996-2.395 5.184-11.765 4.86-6.016 3.183-1.262 3.523.696 3.656 5.363 3.829 2.562-.442.778-5.644-1.922-4.989-2.192-4.785 7.38-.996 2.59.797 2.394 12.965-2.196 1.383 1.153zm3.801 1.465l2.285 2.925 1.441.043 5.332 5.926 1.325 1.61 2.382-1.528 2.79-6.183 1.55-4.914.211-4.118-1.277-1.539h-4.473l-3.39.801s-2.79 1.395-1.993 1.395c.797 0 4.586 1.195 4.586 1.195l1.598 1.2.398 1.792-2.195 4.387-.996 1-4.586-2.992-1.398-1-1.395-.2zm0 0" fill-rule="evenodd" fill="#fff" stroke-width=".242" stroke="#000"/><path d="M96.734 53.29c-.058-.458-3.136 0-3.136 0s-.535 1.835.246 1.835c.785 0 2.953-1.375 2.89-1.836zm0 0" fill-rule="evenodd" fill="#fff" stroke-width=".242" stroke="#9e0000"/><path d="M100.797 42.277c.45-.718 1.543-.629 3.332.48 1.457.86 3.375 1.036 5.433 1.18 3.368.231 3.102-.273 1.52-1.863l-1.906-1.71s.699.406 1.863-.669c1.559-1.441 4.543-8.062 5.074-12.828.598-4.836-.199-5.562-5.363-4.969-2.117.266-4.672.891-5.73 1.551 0 0-1.512.758-1.282 1.188.235.43 2.246.64 2.246.64 3.774.594 4.805 1.844 4.805 3.235 0 1.457-1.96 5.043-2.887 5.043-.332 0-1.523-.93-2.648-1.989-2.25-2.183-3.461-2.468-5.64-1.824-1.223-.336-3-.512-4.434-1.336-.352-.199-.125-.484-.825-1.36-1.253-1.577-2.21-1.437-3.535-1.108-1.656.398-1.722.398-.465-.528 1.258-.926 1.192-1.058-1.585-4.703l-2.782-3.773 3.309 1.656c3.379 1.723 6.289 2.183 6.953 1.125.266-.332-.664-1.192-2.055-1.852-1.324-.664-2.91-2.187-3.507-3.312-.66-1.192-1.524-2.582-1.918-3.114-.997-1.124-4.461-1.73-6.325-1.027-1.898.719-3.074 2.652-4.597 4.649-1.29 1.683-2.004 2.957-2.606 3.98-1.238-.293-3.36.61-4.219 1.406-1.457 1.325-1.789 1.39-4.636.66-2.844-.793-3.176-.726-4.7.665-.859.859-3.246 3.84-5.296 6.62-1.989 2.844-3.84 5.165-4.04 5.231-.199 0-1.59.133-3.046.262-1.457.133-3.442.531-4.434.93-1.59.593-1.723.859-1.258 2.582.328.992 1.785 4.039 3.309 6.687l2.715 4.766-1.657 3.972c-.925 2.188-1.523 4.239-1.324 4.504.2.332 2.121.793 4.305 1.059l3.973.465 3.046 4.566c2.848 4.305 3.356 4.547 4.368 4.04.343-.169 1.988-1.325 4.172-2.384 2.187-1.125 5.164-2.78 6.62-3.773 2.063-1.36 4.15-1.824 5.255-1.402.671.253.98.832.707 1.734-.579 1.855-.551 3.012-.293 4.219.453.48 1.035.703 1.882 1.273 2.922 1.797 4.04 1.922 4.106 0v-1.453l.726 1.52c1.059 2.187 2.782 1.59 3.047-1.126.2-1.59-.199-2.648-1.257-3.773-.797-.86-1.211-1.988-.88-1.988.665 0 2.93 3.047 2.93 3.844 0 .261.399.527.926.527.996 0 1.723-1.39 1.723-3.309 0-.734 1.976-1.144 3.82-1.797.492-.175.488-.421.957-.746.89.188.598.2 1.262.153.988-.07 1.43-.348 1.707-.79 1.39-2.25 1.59-5.097.531-7.613-.531-1.324-.992-4.074-.926-5.265 0 0 .063-.785.352-1.567m-7.703 8.75c0-1.324-.266-1.324-2.649-.062-1.125.594-1.984 1.52-1.984 2.117 0 1.523 1.918 3.508 3.375 3.508.664 0 3.848.597 4.719.605-.02.254-.387.477-.63.551-1.003.32-2.64.145-3.23.035-1.058-.133-1.191.2-1.125 2.121.133 1.258 0 1.852-.265 1.325-.196-.532-1.125-1.723-2.118-2.649-1.058-.992-1.789-2.582-1.918-3.973-.332-3.113-1.656-5.496-4.304-7.746-2.781-2.32-3.84-4.172-3.313-6.027.266-1.059.864-1.457 2.121-1.457 2.25-.066 6.489-1.984 9.204-4.238 3.574-3.11 2.382-3.243-1.856-.262-3.508 2.45-4.5 2.844-8.473 3.043l-4.437.332 2.183-2.25c1.126-1.191 2.122-2.383 2.122-2.648 0-1.391 6.09-3.973 10.66-4.504 6.488-.727 6.816-.66 7.215 1.523.464 2.516 1.921 3.113 1.523.598-.266-1.79-.266-1.79.727-.598.597.727 1.062 2.05 1.062 2.98 0 .926.2 2.383.395 3.176.332 1.13 0 1.457-1.72 1.856l-2.187.465.465 3.906c.2 2.117.86 4.965 1.39 6.355.993 2.317.794 6.422-.331 7.153-.266.195-1.918.129-3.574-.067-2.715-.398-3.047-.597-3.047-2.187m-4.965-44.032c.594.266 1.656 1.59 2.316 2.981.73 1.39 1.989 2.98 2.782 3.508.812.578 2.918 1.402 2.796 1.515-.254.239-4.082-.96-6.504-2.308-1.855-1.059-3.773-1.79-4.238-1.59-.531.133-2.05 2.055-3.508 4.305-2.914 4.504-3.445 8.011-1.324 8.738 1.258.398 10.59-1.809 12.117-2.05 1.102-.177 2.516.925 2.516 1.722 0 .265-1.988.66-4.371.86-2.848.265-5.43.991-7.352 2.116-3.441 1.922-5.425 2.055-8.14.664-2.715-1.39-2.582-2.847 1.324-10.66 4.3-8.804 7.348-11.386 11.586-9.8zm-.332 8.012c2.847 4.305 2.847 4.106.86 3.578-2.91-.863-5.196-2.21-5.743-2.574.473-1.043 1.64-3.453 2.434-3.453.464 0 1.523 1.125 2.449 2.45zm-12.578 1.125c0 .133-.73 1.856-1.657 3.91-1.523 3.243-1.921 3.641-4.171 4.04-1.325.195-3.313.394-4.438.394-1.586 0-3.11 1.059-7.281 5.164-2.914 2.848-6.227 5.828-7.352 6.621l-2.05 1.39-1.192-2.648c-1.457-3.242-1.059-3.773 3.508-4.172 3.773-.328 4.172-.593 7.219-5.03 1.125-1.657 3.175-4.305 4.632-5.891 2.254-2.582 2.715-2.848 3.973-2.122 2.121 1.125 4.504.864 6.227-.593 1.453-1.192 2.582-1.657 2.582-1.063zm11.851 3.246l2.91.926-2.25 1.125c-1.191.598-3.242 1.262-4.566 1.457-2.98.465-3.578-.46-2.254-3.574.547-1.387.914-1.703 1.223-2.207.344.129 3.347 1.742 4.937 2.273zm29.492 1.414c.133 2.317-.824 5.34-2.148 8.586-2.05 5.164-4.094 7.172-5.289 5.051-.688-1.203-2.285-3.617-4.953-5.805-.203-.168-.461-.433-1.031-.562-.836-.195-1.067.133-1.282-.031-1.12-1.496-1.086-2.164.371-2.23.797 0 1.989.597 2.649 1.39.598.73 1.922 1.789 2.848 2.25 1.59.863 1.855.797 3.246-.66 1.058-1.125 1.66-2.73 1.765-4.758.102-1.996-.64-3.121-4.02-3.852-.991-.195-2.952-.172-2.687-.37.594-.595 6.332-1.813 8.25-1.747 1.524.133 2.219-.027 2.281 2.738zm-41.609 7.922c1.258.598 2.715 1.059 3.242 1.059 1.723 0-.328 2.45-3.11 3.707-1.39.598-2.515 1.324-2.515 1.59 0 .265 1.325.73 2.977.992 2.648.332 2.98.598 2.648 1.723-.66 2.12.797 4.77 4.04 7.55 2.581 2.118 2.913 2.649 2.12 3.375-.664.66-1.656.793-3.84.399l-2.98-.531.2-3.442c.199-3.777-.798-4.703-1.458-1.39-.992 5.03-.398 5.957 4.305 6.82 1.324.195 3.043 1.125 3.84 1.984l1.457 1.59-1.922.66c-1.125.399-2.25.465-2.516.133-1.39-1.191-4.703-1.191-6.554 0l-1.922 1.258-2.649-2.117c-3.707-2.848-4.171-3.575-5.43-7.547-.925-3.18-1.917-4.703-2.581-4.04-.133.133.332 2.051 1.125 4.368 1.261 3.906 3.047 6.293 6.82 9.008.73.527 1.191 1.058.996 1.258-.465.394-8.477 4.433-8.875 4.433-.2 0-1.59-1.918-3.11-4.3-2.386-3.712-3.046-4.305-4.835-4.372-1.125-.066-2.848-.265-3.84-.531l-1.723-.395 1.59-3.843 1.656-3.84-1.457-2.317c-.86-1.457-1.191-2.714-.925-3.441.46-.996.593-.93.925.395.532 2.054 1.59 1.921 1.723-.2 0-.925.926-2.515 1.918-3.507 1.062-.993 1.723-1.458 1.457-.993-.461.926.2 2.848.992 2.848.332 0 .598-.996.598-2.188 0-1.519.726-2.91 2.648-5.097 2.25-2.582 2.582-2.781 2.649-1.524 0 .864.398 1.524.86 1.524.597 0 .796-.594.597-1.918l-.266-1.988 3.84-.2c3.047-.132 4.039.067 4.437.864.332.593 1.59 1.586 2.848 2.183zm18.754 20.735c-.05.343.078.793.223 1.058.68 1.23 2.64.817 4.195-.937.93-.992.93-1.258.133-1.586-.93-.41-3.7-.035-4.137.414-.266.27-.363.707-.414 1.05zm12.96-17.094c.728.93 1.985 2.715 2.849 3.906 0 0 .554.692 1.199 1.32.64.63 1.37 1.2 1.37 1.2s-1.066.05-3.366-.598c-5.282-1.488-5.625-2.25-5.23-3.84.331-1.258.464-1.258 2.187.395.926.93 1.984 1.457 2.183 1.195.727-.664-2.847-4.105-3.906-3.71-.926.331-1.758-2.145-1.527-3.278.062-.305.37-.317.781-.137.82.352 1.965 1.68 3.46 3.547zM99.759 41.3a.793.793 0 01-.926 0c-.2-.266 0-.465.465-.465.46 0 .66.2.46.465zm-9.07 13.773c0 1.719-.926 2.184-1.657.992-.594-.93.067-2.648.996-2.648.328 0 .66.727.66 1.656zm5.507-1.535c0 .367-2.101 1.617-2.379.84-.285-.8.301-1 1.024-1.066.762-.07 1.355-.137 1.355.226zM84.73 55.074c0 .528-.265.992-.597.992-.86 0-1.457-1.058-.926-1.59.727-.726 1.523-.398 1.523.598zm0 0"/><path d="M94.133 37.988c.992.996 2.05 1.59 2.25 1.325.66-.66-1.723-3.11-2.98-3.11-.727 0-.532.461.73 1.785zm-4.305 2.516c-1.457 1.39-1.656 1.988-1.125 2.98.395.73 1.192 1.325 1.719 1.325 1.39 0 5.098-3.774 4.77-4.832-.532-1.524-3.446-1.258-5.364.527zM94 40.176c0 .328-.465.66-.996.66-.527 0-1.258.598-1.652 1.324-.399.73-1.063 1.125-1.457.93-.465-.332-.133-1.063 1.058-2.055 1.918-1.59 3.047-1.918 3.047-.86zm0 0"/><path d="M84.582 53.262s-.441.472-.95.828c-.503.355-1.144.594-1.144.594s2.383 3.082 2.73 2.683c.352-.398.098-1.086-.05-1.984-.152-.906-.586-2.121-.586-2.121zm0 0" fill-rule="evenodd" fill="#ffcfab" stroke-width=".082" stroke="#000"/><path d="M37.371 101.73c-3.172 0-5.648-.785-7.434-2.351-1.78-1.567-2.671-3.79-2.671-6.676 0-2.121.328-4.082.98-5.887.656-1.8 1.606-3.375 2.852-4.714 1.238-1.329 2.754-2.368 4.55-3.122 1.797-.75 3.82-1.125 6.067-1.125 1.347 0 2.695.16 4.039.485 1.344.324 2.719.851 4.121 1.586l-.695 3.492h-.282c-1.14-1.074-2.386-1.848-3.73-2.328-1.344-.477-2.79-.719-4.336-.719-1.7 0-3.187.336-4.465 1.008a9.883 9.883 0 00-3.23 2.672c-.856 1.09-1.5 2.363-1.938 3.816a15.143 15.143 0 00-.656 4.39c0 2.216.605 3.923 1.812 5.13 1.211 1.207 3.004 1.808 5.372 1.808 1.039 0 2.015-.097 2.93-.285.91-.191 1.769-.437 2.57-.734l1.3-5.89h-6.136l.59-2.579h9.206l-2.285 9.875-1.84.75c-.546.219-1.23.45-2.054.688-.711.203-1.446.375-2.203.507-.758.133-1.567.203-2.434.203zm23.781-.03c-2.914 0-5.203-.755-6.859-2.266-1.66-1.508-2.488-3.649-2.488-6.418 0-2.125.316-4.102.957-5.938.636-1.832 1.554-3.437 2.75-4.82 1.183-1.36 2.644-2.434 4.375-3.223 1.73-.785 3.66-1.18 5.793-1.18 1.328 0 2.586.16 3.77.485 1.187.324 2.402.84 3.648 1.539l-.696 3.46h-.23a17.59 17.59 0 00-1.027-.948c-.348-.293-.864-.618-1.555-.965-.567-.301-1.242-.551-2.024-.75-.785-.203-1.648-.301-2.597-.301-1.442 0-2.766.3-3.969.902a9.526 9.526 0 00-3.14 2.528c-.864 1.05-1.544 2.328-2.04 3.832a15.356 15.356 0 00-.742 4.804c0 2.121.55 3.774 1.656 4.954 1.102 1.18 2.692 1.77 4.774 1.77.98 0 1.91-.11 2.789-.333a13.118 13.118 0 002.402-.844 14.688 14.688 0 001.809-1.004c.535-.347.996-.671 1.375-.972h.219l-.727 3.554c-1.082.547-2.328 1.04-3.734 1.477-1.407.437-2.903.656-4.489.656zm22.129 0c-2.914 0-5.203-.755-6.86-2.266-1.66-1.508-2.487-3.649-2.487-6.418 0-2.125.32-4.102.957-5.938.64-1.832 1.554-3.437 2.75-4.82 1.187-1.36 2.644-2.434 4.375-3.223 1.73-.785 3.66-1.18 5.793-1.18 1.328 0 2.586.16 3.773.485 1.184.324 2.398.84 3.645 1.539l-.696 3.46h-.23a17.59 17.59 0 00-1.028-.948c-.347-.293-.863-.618-1.554-.965-.567-.301-1.242-.551-2.024-.75-.78-.203-1.648-.301-2.597-.301-1.442 0-2.766.3-3.97.902a9.473 9.473 0 00-3.136 2.528c-.867 1.05-1.547 2.328-2.043 3.832-.492 1.504-.738 3.105-.738 4.804 0 2.121.55 3.774 1.652 4.954 1.102 1.18 2.692 1.77 4.774 1.77.98 0 1.91-.11 2.789-.333a13.118 13.118 0 002.402-.844 14.688 14.688 0 001.809-1.004 18.12 18.12 0 001.375-.972h.218l-.726 3.554c-1.082.547-2.328 1.04-3.734 1.477-1.407.437-2.903.656-4.489.656zm0 0"/><path d="M91.008 53.043c-.211-.941-2.77.812-2.805 1.832-.035 1.023 2.485 3.012 2.68 2.117.195-.89.336-3.012.125-3.949zm0 0" fill-rule="evenodd" fill="#fff" stroke-width=".242" stroke="#000"/></svg>
