<?xml version="1.0" encoding="UTF-8" standalone="no"?>
<svg
   xmlns:dc="http://purl.org/dc/elements/1.1/"
   xmlns:cc="http://creativecommons.org/ns#"
   xmlns:rdf="http://www.w3.org/1999/02/22-rdf-syntax-ns#"
   xmlns:svg="http://www.w3.org/2000/svg"
   xmlns="http://www.w3.org/2000/svg"
   xmlns:sodipodi="http://sodipodi.sourceforge.net/DTD/sodipodi-0.dtd"
   xmlns:inkscape="http://www.inkscape.org/namespaces/inkscape"
   version="1.0"
   width="1200"
   height="500"
   overflow="scroll"
   id="svg3007"
   inkscape:version="0.48.4 r9939"
   sodipodi:docname="latex-original.svg"
   inkscape:export-filename="C:\Users\Thibault Paris-33\Desktop\Devicon\icons\latex\latex-original.png"
   inkscape:export-xdpi="90"
   inkscape:export-ydpi="90">
  <metadata
     id="metadata3027">
    <rdf:RDF>
      <cc:Work
         rdf:about="">
        <dc:format>image/svg+xml</dc:format>
        <dc:type
           rdf:resource="http://purl.org/dc/dcmitype/StillImage" />
        <dc:title>LaTeX logo</dc:title>
      </cc:Work>
    </rdf:RDF>
  </metadata>
  <defs
     id="defs3025" />
  <sodipodi:namedview
     pagecolor="#ffffff"
     bordercolor="#666666"
     borderopacity="1"
     objecttolerance="10"
     gridtolerance="10"
     guidetolerance="10"
     inkscape:pageopacity="0"
     inkscape:pageshadow="2"
     inkscape:window-width="1920"
     inkscape:window-height="1017"
     id="namedview3023"
     showgrid="false"
     inkscape:zoom="1.4666667"
     inkscape:cx="600"
     inkscape:cy="250"
     inkscape:window-x="-8"
     inkscape:window-y="-8"
     inkscape:window-maximized="1"
     inkscape:current-layer="svg3007" />
  <title
     id="title3009">LaTeX logo</title>
  <g
     transform="matrix(45,0,0,45,40,40)"
     fill="black"
     id="g3011">
    <path
       transform="translate(0,0.17)"
       d="M5.46,4.23 C5.46,4.23 5.21,4.23 5.21,4.23 C5.11,5.25 4.97,6.49 3.21,6.49 C3.21,6.49 2.4,6.49 2.4,6.49 C1.93,6.49 1.91,6.42 1.91,6.09 C1.91,6.09 1.91,0.78 1.91,0.78 C1.91,0.44 1.91,0.3 2.85,0.3 C2.85,0.3 3.18,0.3 3.18,0.3 C3.18,0.3 3.18,0 3.18,0 C2.82,0.03 1.92,0.03 1.51,0.03 C1.12,0.03 0.34,0.03 0,0 C0,0 0,0.3 0,0.3 C0,0.3 0.23,0.3 0.23,0.3 C1,0.3 1.02,0.41 1.02,0.77 C1.02,0.77 1.02,6.02 1.02,6.02 C1.02,6.38 1,6.49 0.23,6.49 C0.23,6.49 0,6.49 0,6.49 C0,6.49 0,6.8 0,6.8 C0,6.8 5.19,6.8 5.19,6.8 C5.19,6.8 5.46,4.23 5.46,4.23 z"
       id="path3013" />
    <path
       transform="translate(2.48)"
       d="M2.81,0.16 C2.77,0.04 2.75,0 2.62,0 C2.49,0 2.46,0.04 2.42,0.16 C2.42,0.16 0.81,4.24 0.81,4.24 C0.74,4.41 0.62,4.72 0,4.72 C0,4.72 0,4.97 0,4.97 C0,4.97 1.55,4.97 1.55,4.97 C1.55,4.97 1.55,4.72 1.55,4.72 C1.24,4.72 1.05,4.58 1.05,4.38 C1.05,4.33 1.06,4.31 1.08,4.24 C1.08,4.24 1.42,3.38 1.42,3.38 C1.42,3.38 3.4,3.38 3.4,3.38 C3.4,3.38 3.8,4.4 3.8,4.4 C3.82,4.44 3.84,4.49 3.84,4.52 C3.84,4.72 3.46,4.72 3.27,4.72 C3.27,4.72 3.27,4.97 3.27,4.97 C3.27,4.97 5.24,4.97 5.24,4.97 C5.24,4.97 5.24,4.72 5.24,4.72 C5.24,4.72 5.1,4.72 5.1,4.72 C4.63,4.72 4.58,4.65 4.51,4.45 C4.51,4.45 2.81,0.16 2.81,0.16 z M2.41,0.87 C2.41,0.87 3.3,3.13 3.3,3.13 C3.3,3.13 1.52,3.13 1.52,3.13 C1.52,3.13 2.41,0.87 2.41,0.87 z"
       id="path3015" />
    <path
       transform="translate(7.03,0.23)"
       d="M6.27,0 C6.27,0 0.18,0 0.18,0 C0.18,0 0,2.24 0,2.24 C0,2.24 0.24,2.24 0.24,2.24 C0.38,0.63 0.53,0.3 2.04,0.3 C2.22,0.3 2.48,0.3 2.58,0.32 C2.79,0.36 2.79,0.47 2.79,0.7 C2.79,0.7 2.79,5.95 2.79,5.95 C2.79,6.29 2.79,6.43 1.74,6.43 C1.74,6.43 1.34,6.43 1.34,6.43 C1.34,6.43 1.34,6.74 1.34,6.74 C1.75,6.71 2.76,6.71 3.22,6.71 C3.68,6.71 4.71,6.71 5.12,6.74 C5.12,6.74 5.12,6.43 5.12,6.43 C5.12,6.43 4.72,6.43 4.72,6.43 C3.67,6.43 3.67,6.29 3.67,5.95 C3.67,5.95 3.67,0.7 3.67,0.7 C3.67,0.5 3.67,0.36 3.85,0.32 C3.96,0.3 4.23,0.3 4.42,0.3 C5.92,0.3 6.07,0.63 6.21,2.24 C6.21,2.24 6.46,2.24 6.46,2.24 C6.46,2.24 6.27,0 6.27,0 z"
       id="path3017" />
    <path
       transform="translate(12.5,2.45)"
       d="M6.16,4.2 C6.16,4.2 5.91,4.2 5.91,4.2 C5.66,5.73 5.43,6.46 3.72,6.46 C3.72,6.46 2.4,6.46 2.4,6.46 C1.93,6.46 1.91,6.39 1.91,6.06 C1.91,6.06 1.91,3.4 1.91,3.4 C1.91,3.4 2.8,3.4 2.8,3.4 C3.77,3.4 3.88,3.72 3.88,4.57 C3.88,4.57 4.13,4.57 4.13,4.57 C4.13,4.57 4.13,1.93 4.13,1.93 C4.13,1.93 3.88,1.93 3.88,1.93 C3.88,2.78 3.77,3.09 2.8,3.09 C2.8,3.09 1.91,3.09 1.91,3.09 C1.91,3.09 1.91,0.7 1.91,0.7 C1.91,0.37 1.93,0.3 2.4,0.3 C2.4,0.3 3.68,0.3 3.68,0.3 C5.21,0.3 5.47,0.85 5.63,2.24 C5.63,2.24 5.88,2.24 5.88,2.24 C5.88,2.24 5.6,0 5.6,0 C5.6,0 0,0 0,0 C0,0 0,0.3 0,0.3 C0,0.3 0.23,0.3 0.23,0.3 C1,0.3 1.02,0.41 1.02,0.77 C1.02,0.77 1.02,5.99 1.02,5.99 C1.02,6.35 1,6.46 0.23,6.46 C0.23,6.46 0,6.46 0,6.46 C0,6.46 0,6.77 0,6.77 C0,6.77 5.74,6.77 5.74,6.77 C5.74,6.77 6.16,4.2 6.16,4.2 z"
       id="path3019" />
    <path
       transform="translate(17.91,0.17)"
       d="M3.76,2.95 C3.76,2.95 5.13,0.95 5.13,0.95 C5.34,0.63 5.68,0.31 6.57,0.3 C6.57,0.3 6.57,0 6.57,0 C6.57,0 4.19,0 4.19,0 C4.19,0 4.19,0.3 4.19,0.3 C4.59,0.31 4.81,0.53 4.81,0.76 C4.81,0.86 4.79,0.88 4.72,0.99 C4.72,0.99 3.58,2.67 3.58,2.67 C3.58,2.67 2.3,0.75 2.3,0.75 C2.28,0.72 2.23,0.64 2.23,0.6 C2.23,0.48 2.45,0.31 2.87,0.3 C2.87,0.3 2.87,0 2.87,0 C2.53,0.03 1.8,0.03 1.42,0.03 C1.11,0.03 0.49,0.02 0.12,0 C0.12,0 0.12,0.3 0.12,0.3 C0.12,0.3 0.31,0.3 0.31,0.3 C0.86,0.3 1.05,0.37 1.24,0.65 C1.24,0.65 3.07,3.42 3.07,3.42 C3.07,3.42 1.44,5.83 1.44,5.83 C1.3,6.03 1,6.49 0,6.49 C0,6.49 0,6.8 0,6.8 C0,6.8 2.38,6.8 2.38,6.8 C2.38,6.8 2.38,6.49 2.38,6.49 C1.92,6.48 1.75,6.21 1.75,6.03 C1.75,5.94 1.78,5.9 1.85,5.79 C1.85,5.79 3.26,3.7 3.26,3.7 C3.26,3.7 4.84,6.08 4.84,6.08 C4.86,6.12 4.89,6.16 4.89,6.19 C4.89,6.31 4.67,6.48 4.24,6.49 C4.24,6.49 4.24,6.8 4.24,6.8 C4.59,6.77 5.32,6.77 5.69,6.77 C6.11,6.77 6.57,6.78 6.99,6.8 C6.99,6.8 6.99,6.49 6.99,6.49 C6.99,6.49 6.8,6.49 6.8,6.49 C6.28,6.49 6.07,6.44 5.86,6.13 C5.86,6.13 3.76,2.95 3.76,2.95 z"
       id="path3021" />
  </g>
</svg>
