<svg xmlns="http://www.w3.org/2000/svg" width="128px" height="128px" viewBox="0 0 128 128" enable-background="new 0 0 128 128"> <g> <path fill-rule="evenodd" clip-rule="evenodd" fill="#69686C" d="M2.345,15.672c1.258,0.4,2.306,1.199,3.431,1.846 c7.611,4.367,15.206,8.767,22.806,13.155c0.179,0.105,0.346,0.227,0.657,0.432c-9.033,5.208-17.964,10.356-26.894,15.504 C2.345,36.297,2.345,25.984,2.345,15.672z"/> <path fill-rule="evenodd" clip-rule="evenodd" fill="#C3C5C8" d="M2.345,81.391c2.285,1.318,4.57,2.635,6.854,3.953 c5.632,3.247,11.263,6.498,16.897,9.741c0.817,0.468,1.658,0.895,2.478,1.359c0.48,0.271,0.618,0.515,0.001,0.865 c-3.487,1.968-6.963,3.959-10.432,5.959c-4.581,2.64-9.156,5.289-13.725,7.955c-0.679,0.395-1.283,0.919-2.073,1.104 C2.345,102.016,2.345,91.703,2.345,81.391z"/> <path fill-rule="evenodd" clip-rule="evenodd" fill="#98C03D" d="M58.319,64.022c0,4.879,0.002,9.755,0,14.632 c0,0.946-0.009,0.96-0.854,0.472c-7.14-4.128-14.275-8.259-21.412-12.387c-1.37-0.792-2.743-1.578-4.125-2.35 c-0.498-0.277-0.652-0.44-0.024-0.798c4.017-2.293,8.013-4.619,12.019-6.932c4.506-2.602,9.015-5.198,13.519-7.799 c0.234-0.135,0.482-0.413,0.72-0.304c0.338,0.155,0.154,0.548,0.154,0.833c0.008,4.877,0.006,9.755,0.006,14.632 C58.321,64.022,58.321,64.022,58.319,64.022z"/> <path fill-rule="evenodd" clip-rule="evenodd" fill="#524F53" d="M57.721,47.563c-8.982,5.188-17.884,10.326-26.787,15.466 c-0.256-0.27-0.141-0.555-0.141-0.807c-0.007-9.787-0.003-19.574-0.014-29.361c-0.001-0.619,0.002-0.935,0.749-0.501 c8.637,5.009,17.289,9.995,25.935,14.989C57.514,47.378,57.555,47.426,57.721,47.563z"/> <path fill-rule="evenodd" clip-rule="evenodd" fill="#C3C5C8" d="M57.68,80.441c-1.269,0.759-2.424,1.467-3.597,2.146 c-2.681,1.554-5.369,3.095-8.056,4.64c-2.766,1.59-5.537,3.169-8.301,4.765c-1.998,1.151-3.986,2.317-5.977,3.482 c-0.259,0.149-0.514,0.435-0.815,0.311c-0.358-0.146-0.193-0.539-0.194-0.82c-0.009-9.729-0.001-19.46-0.019-29.189 c-0.001-0.747,0.095-0.905,0.809-0.485c4.534,2.657,9.083,5.289,13.64,7.908c2.21,1.271,4.451,2.483,6.659,3.758 C53.764,78.076,55.671,79.243,57.68,80.441z"/> <path fill-rule="evenodd" clip-rule="evenodd" fill="#AFB0B3" d="M2.822,80.437c1.995-1.157,3.857-2.242,5.724-3.321 c6.194-3.576,12.391-7.15,18.587-10.726c0.711-0.412,1.432-0.81,2.129-1.242c0.38-0.233,0.555-0.196,0.54,0.277 c-0.005,0.153,0,0.306,0,0.459c0,9.666,0.001,19.333,0,29.001c0,1.127-0.007,1.139-0.992,0.571 c-6.57-3.779-13.14-7.559-19.706-11.347C7.056,82.929,5.019,81.723,2.822,80.437z"/> <path fill-rule="evenodd" clip-rule="evenodd" fill="#818084" d="M29.756,31.971c0,10.434,0,20.7,0,31.121 c-9-5.195-17.903-10.335-26.955-15.562C11.828,42.319,20.728,37.183,29.756,31.971z"/> <path fill-rule="evenodd" clip-rule="evenodd" fill="#281713" d="M74.918,64.015c1.428-2.26,2.856-4.488,4.242-6.744 c0.347-0.564,0.748-0.816,1.407-0.771c0.671,0.046,1.344,0.019,2.015,0.009c0.681-0.011,1.014,0.308,1.013,0.991 c-0.002,3.111-0.015,6.223,0.014,9.335c0.008,0.809-0.539,0.541-0.939,0.586c-0.485,0.059-0.788-0.008-0.779-0.649 c0.034-2.563,0.021-5.126,0.002-7.688c-0.002-0.31,0.238-0.809-0.353-0.869c-0.468-0.048-0.917-0.105-1.257,0.449 c-1.396,2.287-2.852,4.537-4.279,6.801c-1.014,1.607-1.298,1.612-2.299,0.047c-1.426-2.231-2.859-4.458-4.288-6.689 c-0.213-0.333-0.385-0.635-0.891-0.643c-0.617-0.008-0.842,0.136-0.831,0.805c0.041,2.562-0.014,5.125,0.033,7.687 c0.014,0.716-0.279,0.768-0.852,0.77c-0.584,0.004-0.863-0.069-0.853-0.774c0.042-2.991,0.035-5.98,0.005-8.97 c-0.009-0.864,0.341-1.101,1.181-1.217c2.001-0.278,3.275,0.389,4.211,2.241c0.927,1.838,2.199,3.5,3.321,5.241 C74.754,63.978,74.795,63.978,74.918,64.015z"/> <path fill-rule="evenodd" clip-rule="evenodd" fill="#291814" d="M103.239,61.803c0,1.525-0.024,3.049,0.009,4.571 c0.019,0.759-0.321,1.002-1.028,1.061c-1.494,0.121-2.684-0.181-3.791-1.397c-2.293-2.521-4.793-4.857-7.209-7.27 c-0.172-0.173-0.332-0.375-0.54-0.488c-0.563-0.307-0.991-0.046-0.993,0.597c-0.007,2.562-0.024,5.122,0.011,7.682 c0.01,0.645-0.093,0.92-0.827,0.894c-0.645-0.024-0.891-0.124-0.879-0.851c0.045-2.954,0.015-5.912,0.019-8.867 c0.002-1.041,0.19-1.135,1.224-1.241c1.513-0.158,2.612,0.324,3.668,1.47c2.25,2.442,4.663,4.73,7.01,7.081 c0.151,0.151,0.311,0.294,0.454,0.451c0.298,0.32,0.692,0.265,1.022,0.171c0.353-0.1,0.163-0.475,0.164-0.714 c0.016-2.561,0.034-5.122-0.009-7.681c-0.011-0.689,0.247-0.8,0.843-0.776c0.534,0.019,0.904-0.015,0.872,0.738 C103.192,58.754,103.238,60.279,103.239,61.803z"/> <path fill-rule="evenodd" clip-rule="evenodd" fill="#291814" d="M121.446,57.418c-0.058,0.481-0.258,0.587-0.406,0.726 c-1.151,1.085-2.294,2.177-3.468,3.236c-0.355,0.321-0.385,0.496-0.016,0.84c1.27,1.179,2.472,2.434,3.766,3.587 c0.59,0.526,0.146,0.74-0.142,1.047c-0.28,0.3-0.483,0.663-0.985,0.157c-1.521-1.531-3.09-3.019-4.665-4.491 c-0.598-0.561-0.518-1.006,0.038-1.516c1.435-1.317,2.846-2.658,4.283-3.97c0.174-0.159,0.319-0.547,0.636-0.361 C120.876,56.902,121.209,57.229,121.446,57.418z"/> <path fill-rule="evenodd" clip-rule="evenodd" fill="#291814" d="M112.377,61.617c-0.107-0.081-0.295-0.192-0.446-0.337 c-1.106-1.046-2.18-2.128-3.318-3.137c-0.515-0.455-0.228-0.693,0.101-0.979c0.299-0.26,0.48-0.808,1.049-0.232 c1.389,1.407,2.834,2.763,4.271,4.122c0.536,0.508,0.545,0.938-0.005,1.45c-1.583,1.469-3.173,2.938-4.695,4.469 c-0.596,0.599-0.782,0.094-1.121-0.208c-0.363-0.326-0.536-0.558-0.052-0.984c1.279-1.128,2.503-2.315,3.741-3.483 C112.071,62.136,112.313,62.024,112.377,61.617z"/> <path fill-rule="evenodd" clip-rule="evenodd" fill="#2E1E1B" d="M86.7,62.078c0,1.555-0.044,3.11,0.017,4.665 c0.031,0.818-0.459,0.661-0.936,0.689c-0.533,0.031-0.831-0.036-0.823-0.714c0.036-3.17,0.039-6.342,0-9.513 c-0.007-0.709,0.347-0.697,0.845-0.693c0.508,0.006,0.944-0.068,0.915,0.718C86.658,58.844,86.7,60.463,86.7,62.078z"/> <path fill-rule="evenodd" clip-rule="evenodd" fill="#2A1915" d="M106.364,61.979c0,1.58-0.036,3.162,0.016,4.743 c0.022,0.676-0.285,0.727-0.813,0.713c-0.516-0.013-0.909,0.045-0.899-0.725c0.046-3.162,0.046-6.326,0-9.486 c-0.01-0.794,0.417-0.684,0.913-0.71c0.545-0.029,0.82,0.063,0.799,0.721C106.33,58.815,106.364,60.398,106.364,61.979z"/> <path fill-rule="evenodd" clip-rule="evenodd" fill="#2E211F" d="M68.143,70.157c0.227-0.513-0.078-1,0.302-1.467 c0.374,0.644,0.248,1.293,0.156,1.86c-0.061,0.386-0.516,0.284-0.764,0.012c-0.264-0.289-0.486-0.612-0.72-0.91 c-0.227,0.024-0.138,0.182-0.163,0.278c-0.069,0.269,0.177,0.773-0.191,0.768c-0.451-0.009-0.232-0.533-0.226-0.815 c0.008-0.363-0.24-0.888,0.189-1.069c0.543-0.233,0.633,0.425,0.918,0.692C67.816,69.669,67.938,69.886,68.143,70.157z"/> <path fill-rule="evenodd" clip-rule="evenodd" fill="#554C4B" d="M125.654,58.033c-0.01,0.811-0.721,1.525-1.518,1.523 c-0.832-0.001-1.568-0.771-1.53-1.602c0.036-0.799,0.773-1.49,1.565-1.468C124.986,56.511,125.665,57.218,125.654,58.033z"/> <path fill-rule="evenodd" clip-rule="evenodd" fill="#3B3230" d="M77.502,69.665c0.485,0,0.728,0.01,0.969-0.002 c0.251-0.011,0.434,0.059,0.396,0.347c-0.031,0.253,0.159,0.668-0.173,0.721c-0.527,0.084-1.109,0.178-1.617-0.056 c-0.454-0.208-0.278-0.701-0.274-1.073c0.013-0.865,0.319-0.989,2.014-0.696c-0.919,0.05-1.688-0.026-1.51,1.021 c0.062,0.355,0.084,0.68,0.559,0.655c0.205-0.008,0.419,0.049,0.477-0.27C78.446,69.746,77.942,69.924,77.502,69.665z"/> <path fill-rule="evenodd" clip-rule="evenodd" fill="#3C3230" d="M103.277,70.765c-0.606,0.027-1.147,0.088-1.157-0.773 c-0.012-0.927,0.607-0.824,1.179-0.832c0.587-0.005,1.191-0.058,1.167,0.849C104.44,70.942,103.797,70.763,103.277,70.765z"/> <path fill-rule="evenodd" clip-rule="evenodd" fill="#352B29" d="M93.992,70.773c-0.472,0.047-0.938,0.026-0.938-0.811 c-0.003-0.949,0.629-0.79,1.175-0.792c0.53-0.002,1.104-0.094,1.122,0.775C95.369,70.961,94.691,70.747,93.992,70.773z"/> <path fill-rule="evenodd" clip-rule="evenodd" fill="#4B4240" d="M112.646,70.777c-1.085,0-1.355-0.296-1.154-1.251 c0.038-0.19,0.082-0.367,0.314-0.357c0.257,0.011,0.243,0.223,0.251,0.398c0.011,0.182,0.003,0.363,0.007,0.543 c0.009,0.418,0.279,0.455,0.617,0.471c0.405,0.019,0.439-0.199,0.427-0.506c-0.011-0.21-0.016-0.425,0.011-0.633 c0.039-0.273,0.315-0.398,0.442-0.227c0.283,0.384,0.13,0.876,0.108,1.318c-0.018,0.37-0.356,0.217-0.571,0.241 C112.95,70.792,112.798,70.777,112.646,70.777z"/> <path fill-rule="evenodd" clip-rule="evenodd" fill="#574E4B" d="M115.142,70.745c-0.47,0.028-0.905,0.195-1.028-0.288 c-0.131-0.521-0.259-1.186,0.047-1.578c0.406-0.521,0.598,0.569,1.105,0.298C114.514,69.68,114.469,70.063,115.142,70.745z"/> <path fill-rule="evenodd" clip-rule="evenodd" fill="#574F4D" d="M74.609,70.727c-0.364,0.055-0.798,0.232-0.934-0.251 c-0.146-0.522-0.273-1.198,0.04-1.595c0.408-0.521,0.596,0.584,1.11,0.301C74.073,69.663,74.016,70.043,74.609,70.727z"/> <path fill-rule="evenodd" clip-rule="evenodd" fill="#382A29" d="M107.802,69.675c-0.251-0.363-0.563-0.403-0.928-0.178 c-0.226,0.046-0.412-0.032-0.578-0.179c-0.61-0.024-0.991,0.157-0.868,0.882c0.031,0.191,0.154,0.538-0.242,0.559 c-0.387,0.022-0.285-0.294-0.315-0.521c-0.1-0.757,0.075-1.264,0.989-1.075c0.797,0.165,1.689-0.361,2.412,0.339 C108.187,69.755,108.046,69.858,107.802,69.675z"/> <path fill-rule="evenodd" clip-rule="evenodd" fill="#3C3332" d="M73.192,69.141c-0.58,0.59-0.598,1.081,0.014,1.651 c-0.627-0.492-1.204-0.366-1.828-0.013c0.658-0.541,0.531-1.039,0.04-1.629C72.03,69.645,72.574,69.749,73.192,69.141z"/> <path fill-rule="evenodd" clip-rule="evenodd" fill="#392C2B" d="M116.631,69.312c0.472-0.298,0.993-0.145,1.484-0.128 c0.555,0.021,0.937,1.049,0.574,1.474c-0.063,0.073-0.212,0.105-0.318,0.098c-0.141-0.008-0.171-0.143-0.174-0.266 c-0.004-0.212-0.009-0.426-0.003-0.637c0.013-0.423-0.271-0.483-0.597-0.5c-0.425-0.022-0.471,0.23-0.483,0.58 c-0.031,0.788-0.049,0.788-0.508,0.657C116.845,70.167,116.814,69.74,116.631,69.312z"/> <path fill-rule="evenodd" clip-rule="evenodd" fill="#3A2F2D" d="M90.042,69.296c0.334,0.459,0.367,1.157,0.042,1.373 c-0.423,0.282-1.106,0.168-1.666,0.017c-0.18-0.049-0.257-0.243-0.23-0.449c0.026-0.202,0.14-0.354,0.334-0.375 c0.266-0.029,0.536-0.007,0.834-0.007c-0.127,0.32-0.689,0-0.606,0.482c0.051,0.289,0.308,0.227,0.513,0.248 c0.428,0.045,0.416-0.238,0.405-0.524c-0.008-0.18-0.021-0.361-0.032-0.543C89.626,69.18,89.812,69.197,90.042,69.296z"/> <path fill-rule="evenodd" clip-rule="evenodd" fill="#3D3330" d="M101.659,68.824c-0.572,0.165-1.267-0.021-1.23,1.028 c0.035,0.998,0.718,0.653,1.189,0.843c-0.549-0.016-1.182,0.376-1.587-0.206c-0.274-0.394-0.256-0.987-0.012-1.388 C100.412,68.449,101.092,68.901,101.659,68.824z"/> <path fill-rule="evenodd" clip-rule="evenodd" fill="#403835" d="M95.736,69.312c0.468-0.294,0.983-0.128,1.479-0.139 c0.284-0.008,0.564,0.086,0.608,0.423c0.045,0.354,0.105,0.725-0.055,1.063c-0.032,0.069-0.209,0.104-0.313,0.094 c-0.138-0.011-0.176-0.143-0.179-0.27c-0.006-0.241,0.005-0.485-0.017-0.727c-0.035-0.374-0.334-0.373-0.607-0.392 c-0.313-0.022-0.398,0.148-0.43,0.44c-0.031,0.307,0.187,0.665-0.155,0.919C95.683,70.318,96.082,69.725,95.736,69.312z"/> <path fill-rule="evenodd" clip-rule="evenodd" fill="#413837" d="M85.812,69.508c-0.396-0.12-0.888-0.357-1.029,0.255 c-0.274,1.2,0.844,0.627,1.448,1.013c-0.53,0-0.891-0.017-1.248,0.004c-0.514,0.028-0.792-0.146-0.81-0.712 c-0.018-0.541,0.122-0.911,0.723-0.904c0.384,0.004,0.788-0.121,1.147,0.126C86.012,69.41,85.935,69.481,85.812,69.508z"/> <path fill-rule="evenodd" clip-rule="evenodd" fill="#433A39" d="M70.621,69.504c-0.403-0.127-0.889-0.363-1.018,0.281 c-0.228,1.144,0.795,0.644,1.255,0.99c-0.372,0-0.745-0.01-1.117,0.004c-0.554,0.021-0.734-0.259-0.751-0.786 c-0.017-0.541,0.198-0.822,0.721-0.826c0.385-0.002,0.791-0.129,1.153,0.112C70.829,69.403,70.747,69.478,70.621,69.504z"/> <path fill-rule="evenodd" clip-rule="evenodd" fill="#362B29" d="M108.979,69.283c0.346-0.157,0.714-0.104,1.074-0.104 c0.56,0,1.069-0.023,1.068,0.832c-0.003,0.898-0.55,0.77-1.093,0.756c-0.086-0.002-0.173-0.033-0.298-0.093 c0.598-0.016,0.965-0.242,0.801-0.865c-0.18-0.68-0.688-0.341-1.093-0.308C109.242,69.521,109.084,69.459,108.979,69.283z"/> <path fill-rule="evenodd" clip-rule="evenodd" fill="#403735" d="M120.594,69.504c-0.407-0.161-0.875-0.311-1.035,0.245 c-0.146,0.512-0.047,1.014,0.771,0.926c-0.589,0.022-1.272,0.4-1.372-0.551c-0.068-0.639,0.162-1.01,0.84-0.965 c0.433,0.03,0.899-0.183,1.293,0.156C120.963,69.475,120.79,69.52,120.594,69.504z"/> <path fill-rule="evenodd" clip-rule="evenodd" fill="#524946" d="M91.614,70.743c-0.358,0.026-0.832,0.203-0.956-0.239 c-0.151-0.535-0.282-1.239,0.063-1.653c0.377-0.454,0.545,0.649,1.092,0.318C91.009,69.632,90.954,70.085,91.614,70.743z"/> <path fill-rule="evenodd" clip-rule="evenodd" fill="#2C1F1B" d="M120.594,69.504c0.111-0.206,0.315-0.17,0.497-0.188 c0.02,0.327,0.05,0.653,0.053,0.982c0.004,1.112-0.026,1.137-1.412,1.075C121.079,71.049,120.421,70.141,120.594,69.504z"/> <path fill-rule="evenodd" clip-rule="evenodd" fill="#312523" d="M108.979,69.283c0.174,0.03,0.355,0.043,0.46,0.219 c0.002,0.51,0.004,1.019,0.003,1.53c-0.001,0.215-0.006,0.447-0.313,0.423c-0.245-0.019-0.257-0.223-0.242-0.402 C108.937,70.465,108.771,69.865,108.979,69.283z"/> <path fill-rule="evenodd" clip-rule="evenodd" fill="#887C7B" d="M83.236,69.512c-0.672-0.171-1.041,0.004-0.919,0.78 c0.025,0.163,0.049,0.367-0.183,0.446c-0.164-0.169-0.16-0.384-0.159-0.422c0.002,0.04,0.005,0.253-0.16,0.426 c-0.369-0.481-0.385-1.21-0.056-1.455c0.505-0.375,1.254-0.29,1.89-0.006C83.568,69.459,83.417,69.51,83.236,69.512z"/> <path fill-rule="evenodd" clip-rule="evenodd" fill="#3A302E" d="M79.795,69.53c-0.215,0.998,0.373,1.172,1.202,1.133 c-0.608,0.026-1.296,0.431-1.69-0.214c-0.171-0.284-0.354-0.887,0.244-1.162C79.787,69.214,79.834,69.328,79.795,69.53z"/> <path fill-rule="evenodd" clip-rule="evenodd" fill="#231313" d="M116.243,69.763c0,0.275,0.005,0.427-0.002,0.574 c-0.011,0.167,0.051,0.39-0.211,0.414c-0.297,0.024-0.333-0.186-0.332-0.414c0-0.149-0.009-0.301,0-0.449 c0.021-0.395,0.027-1.088,0.31-1.05C116.425,68.892,116.059,69.538,116.243,69.763z"/> <path fill-rule="evenodd" clip-rule="evenodd" fill="#3A2E2C" d="M87.974,69.24c-0.599,0.062-0.729,0.41-0.681,0.927 c0.021,0.214,0.171,0.606-0.289,0.59c-0.379-0.012-0.248-0.339-0.258-0.553C86.702,69.281,86.885,69.134,87.974,69.24z"/> <path fill-rule="evenodd" clip-rule="evenodd" fill="#382C2A" d="M92.77,70.019c-0.086,0.246,0.178,0.718-0.278,0.722 c-0.536,0.002-0.241-0.5-0.286-0.775c-0.048-0.286-0.075-0.766,0.258-0.761C92.903,69.214,92.718,69.708,92.77,70.019z"/> <path fill-rule="evenodd" clip-rule="evenodd" fill="#3B2E2D" d="M83.236,69.512c0.04-0.253,0.262-0.18,0.413-0.23 c0.025,0.017,0.064,0.028,0.074,0.051c0.206,0.457,0.303,1.06,0.001,1.352c-0.337,0.324-0.435-0.133-0.443-0.451 C83.274,69.993,83.253,69.753,83.236,69.512z"/> <path fill-rule="evenodd" clip-rule="evenodd" fill="#30221F" d="M106.296,69.318c0.208,0.008,0.435-0.041,0.578,0.179 c-0.126,0.415,0.323,1.192-0.272,1.2c-0.58,0.007-0.125-0.794-0.298-1.2C106.28,69.446,106.298,69.377,106.296,69.318z"/> <path fill-rule="evenodd" clip-rule="evenodd" fill="#443B39" d="M79.795,69.53c-0.081-0.082-0.162-0.163-0.244-0.243 c0.269-0.214,0.585-0.124,0.882-0.13c0.392-0.005,0.932-0.056,0.913,0.485c-0.025,0.693-0.608,0.313-0.976,0.437 c0.02-0.363,0.627-0.15,0.409-0.502C80.539,69.191,80.135,69.377,79.795,69.53z"/> <path fill-rule="evenodd" clip-rule="evenodd" fill="#382A29" d="M107.802,69.675c0.156-0.057,0.312-0.114,0.47-0.173 c0.019,0.057,0.063,0.12,0.05,0.171c-0.089,0.365,0.255,1.043-0.28,1.035C107.532,70.702,107.848,70.045,107.802,69.675z"/> <path fill-rule="evenodd" clip-rule="evenodd" fill="#221212" d="M81.815,70.742c-0.005-0.465-0.103-0.937,0.114-1.528 c0.365,0.563,0.148,1.063,0.205,1.524C82.028,70.74,81.922,70.74,81.815,70.742z"/> <path fill-rule="evenodd" clip-rule="evenodd" fill="#382E2D" d="M95.734,69.312c0.657,0.341,0.19,0.949,0.335,1.413 c-0.352,0.126-0.419-0.076-0.405-0.355C95.682,70.016,95.712,69.663,95.734,69.312z"/> <path fill-rule="evenodd" clip-rule="evenodd" fill="#342624" d="M116.631,69.312c0.483,0.435,0.526,0.863-0.024,1.278 C116.561,70.161,116.518,69.734,116.631,69.312z"/> <path fill-rule="evenodd" clip-rule="evenodd" fill="#8D827F" d="M90.042,69.296c-0.159,0.03-0.374-0.041-0.407,0.222 c-0.301-0.092-0.653,0.037-0.924-0.277C89.156,69.128,89.596,68.955,90.042,69.296z"/> <path fill-rule="evenodd" clip-rule="evenodd" fill="#2E2320" d="M70.621,69.504c0.081-0.074,0.162-0.149,0.243-0.225 c0.265,0.106,0.39,0.314,0.243,0.557c-0.237,0.391-0.621,0.159-0.978,0.172C70.268,69.783,70.731,69.918,70.621,69.504z"/> <path fill-rule="evenodd" clip-rule="evenodd" fill="#2E2322" d="M85.812,69.508c0.077-0.073,0.154-0.146,0.231-0.219 c0.269,0.099,0.391,0.296,0.245,0.547c-0.227,0.387-0.594,0.273-0.957,0.2C85.469,69.822,85.904,69.897,85.812,69.508z"/> <path fill-rule="evenodd" clip-rule="evenodd" fill="#F3EFEE" d="M125.36,58.05c-0.017,0.735-0.561,1.231-1.304,1.193 c-0.652-0.033-1.212-0.624-1.19-1.258c0.021-0.628,0.621-1.214,1.255-1.226C124.804,56.749,125.377,57.345,125.36,58.05z"/> <path fill-rule="evenodd" clip-rule="evenodd" fill="#E8E4E2" d="M103.885,69.965c0.021,0.39-0.089,0.643-0.553,0.633 c-0.468-0.008-0.644-0.227-0.646-0.678c-0.001-0.438,0.23-0.592,0.623-0.588C103.73,69.334,103.919,69.549,103.885,69.965z"/> <path fill-rule="evenodd" clip-rule="evenodd" fill="#F3F0EE" d="M94.768,69.933c0.027,0.365-0.013,0.653-0.495,0.661 c-0.456,0.006-0.652-0.157-0.647-0.629c0.004-0.406,0.153-0.62,0.567-0.622C94.591,69.339,94.821,69.5,94.768,69.933z"/> <path fill-rule="evenodd" clip-rule="evenodd" fill="#372E2D" d="M124.92,58.897c-0.545-0.129-0.507-0.688-0.912-0.643 c-0.079,0.009-0.121,0.344-0.335,0.543c0-0.392,0.021-0.783-0.005-1.174c-0.029-0.418,0.217-0.425,0.516-0.408 c0.332,0.02,0.612,0.224,0.457,0.503C124.398,58.152,124.634,58.436,124.92,58.897z"/> </g> </svg>