<svg xmlns="http://www.w3.org/2000/svg" viewBox="0 0 128 128"><path fill="#333" d="M92.145 61.05a.152.152 0 0 0-.133.153v11.875c0 .14-.07.215-.211.215h-4.145c-.136 0-.207-.074-.207-.211v-14.96c0-.079.04-.126.117-.145 3.356-.864 8.047-1.707 10.942.484.09.074.219.078.312.012 1.946-1.22 4.012-1.63 6.192-1.23 3.785.698 4.648 3.589 4.652 7.05.004 2.941 0 5.879-.012 8.832 0 .09-.07.168-.16.168h-4.183c-.133 0-.2-.07-.2-.203-.004-2.543.004-5.078.028-7.61a14.26 14.26 0 0 0-.219-2.671c-.383-2.133-2.652-2.246-4.254-1.282-.094.055-.129.137-.105.243.183.863.273 1.738.277 2.617.008 2.906.008 5.816.004 8.742 0 .09-.07.164-.164.164h-4.18a.211.211 0 0 1-.207-.207c-.008-2.75-.012-5.504-.02-8.242-.007-3.29-.773-4.153-4.124-3.793Zm-61.45-.612 1.125-3.442a.138.138 0 0 1 .063-.07.1.1 0 0 1 .094 0l12.937 5.406a.114.114 0 0 1 .074.105l-.004 3.602a.12.12 0 0 1-.074.106L31.973 71.55a.112.112 0 0 1-.094-.004.097.097 0 0 1-.059-.07l-1.125-3.442c-.015-.058.016-.125.07-.144l9.208-3.547a.12.12 0 0 0 .074-.11.118.118 0 0 0-.074-.109l-9.203-3.543a.117.117 0 0 1-.07-.145ZM4.992 64.34l9.223 3.555c.055.02.082.078.066.132l-1.129 3.453a.13.13 0 0 1-.062.067.11.11 0 0 1-.086 0L.066 66.145A.108.108 0 0 1 0 66.043V62.43c0-.043.027-.082.066-.102l12.942-5.402a.11.11 0 0 1 .086 0c.027.011.05.035.058.062l1.133 3.457a.112.112 0 0 1-.066.133l-9.227 3.555a.11.11 0 0 0-.07.101c0 .047.027.086.07.106Zm73.356-3.13a77.336 77.336 0 0 0 .015 5.712c.032.93.164 1.582.399 1.957.918 1.492 3.574.95 4.941.469.059-.024.09-.004.102.05l.605 3.344a.123.123 0 0 1-.074.133c-4.395 1.684-10.297 1.098-10.516-4.867-.082-2.332-.09-7.168-.02-14.5.005-.121.063-.192.184-.211l4.125-.66c.145-.02.215.043.215.183v4.387c0 .055.04.098.094.098h5.18c.125 0 .183.058.183.183l-.004 3.367c0 .13-.062.192-.191.192l-5.066.004c-.11 0-.168.054-.172.16Zm-17.684-3.769c1.832-.316 3.242-.527 5.05.004 3.333.985 4.071 3.86 4.079 6.942.008 2.906.004 5.808-.008 8.718-.004.122-.07.188-.191.188h-4.16c-.121 0-.184-.063-.184-.188a970.736 970.736 0 0 1 0-8.261c.012-3.219-1.234-4.68-4.578-3.617-.125.043-.184.125-.184.25V73.12a.172.172 0 0 1-.164.172h-4.238a.162.162 0 0 1-.16-.164l-.004-22.442c0-.042.035-.082.078-.09l4.25-.679c.156-.023.234.043.234.207v7.168c0 .121.059.168.18.148Zm0 0"/><path fill="#3465a4" d="M120.074 67.984a.155.155 0 0 0-.125-.054.133.133 0 0 0-.117.066l-3.242 5.18a.224.224 0 0 1-.2.117l-4.18-.008a.169.169 0 0 1-.14-.082.159.159 0 0 1 0-.156 58.951 58.951 0 0 1 5.387-7.828.217.217 0 0 0 .008-.258l-5.238-7.402a.12.12 0 0 1-.016-.13.137.137 0 0 1 .117-.066l4.5.012a.342.342 0 0 1 .297.16l2.95 4.504a.142.142 0 0 0 .112.059.14.14 0 0 0 .11-.059l2.945-4.504a.363.363 0 0 1 .305-.164h4.277c.047 0 .086.024.106.066.023.04.02.086-.008.122l-5.242 7.304c-.086.121-.082.239.015.356a59.59 59.59 0 0 1 5.512 7.89.113.113 0 0 1 .004.121.13.13 0 0 1-.106.063h-4.539a.324.324 0 0 1-.293-.184 34.195 34.195 0 0 0-3.199-5.125ZM15.11 78.586l10.176-29.023a.117.117 0 0 1 .113-.075h4.368a.11.11 0 0 1 .093.051c.024.027.028.07.016.106l-10.121 29.02a.12.12 0 0 1-.113.073h-4.418a.109.109 0 0 1-.098-.047.124.124 0 0 1-.016-.105Zm0 0"/></svg>
