<svg xmlns="http://www.w3.org/2000/svg" viewBox="0 0 128 128"><path fill="#333" d="M72.148 21.828a.85.85 0 0 0-.82.555v.004l-28.894 82.437.004-.004c-.196.535.222 1.133.792 1.137h12.563a.855.855 0 0 0 .797-.555v-.004l28.746-82.433c.195-.54-.223-1.137-.793-1.137Zm.11 1.031h12.02L55.66 104.922H43.492ZM36.746 42.99-.016 58.338H-.02a.823.823 0 0 0-.496.77v10.254a.829.829 0 0 0 .496.774h.004l36.75 15.34a.835.835 0 0 0 1.102-.497l3.21-9.812.005-.004a.835.835 0 0 0-.496-1.02l-25.696-9.91 25.707-9.902v-.004a.836.836 0 0 0 .496-1.016l-.003-.003-3.211-9.825v-.004a.833.833 0 0 0-1.102-.492Zm54.281 0a.855.855 0 0 0-1.136.527l-3.188 9.77.004-.005a.851.851 0 0 0 .5 1.059l25.7 9.89-25.7 9.907a.845.845 0 0 0-.5 1.054l-.004-.004 3.18 9.77a.857.857 0 0 0 1.137.531l36.742-15.347a.848.848 0 0 0 .527-.77v-.004l.012-10.25-.004-.004a.85.85 0 0 0-.527-.77Zm-.21 1.03 36.453 15.235-.012 9.98-36.453 15.223-3.067-9.422 25.98-10.008a.868.868 0 0 0 .552-.797.857.857 0 0 0-.551-.789l-25.98-10Zm-53.88.008 3.079 9.407L13.988 63.46a.846.846 0 0 0-.531.77c0 .312.203.644.531.773l26.016 10.035-3.078 9.402L.516 69.238V59.234Zm0 0"/></svg>
