<svg version="1.1" xmlns="http://www.w3.org/2000/svg" xmlns:xlink="http://www.w3.org/1999/xlink" viewBox="0 0 128 128" xml:space="preserve">	<path fill="#CC0000" d="M122,72.3c-1.4,0-5.3,0-5.3,0v-2.7h10.5v-5.9c0,0-7.2,0-10,0c-2.6,0-6.1,2.1-6.1,6.1c0,0.4,0,1.7,0,2		c0,4,3.4,6,6.1,6c1.1,0,1.9,0,2.3,0c0.6,0,0.7,0,0.7,0c0.4,0,1,0,2,0c0,2.8,0,2.8,0,2.8l-10.8,0.1v5.9c0,0,7.6,0,10.6,0		c2.2,0,5.9-1.6,6-6c0-0.2,0-2.1,0-2.3C128,74.5,124.9,72.3,122,72.3z" />	<path fill="#CC0000" d="M60.4,71.4c0-7.3-6.9-8-6.9-8H41.2v23.1h6.2V81l5.4,5.6H62l-7.3-7.4C54.7,79.2,60.4,78.7,60.4,71.4z		 M52.3,74.5h-5v-5.3h5c0,0,1.4,0.5,1.4,2.6C53.7,74,52.3,74.5,52.3,74.5z" />	<path fill="#CC0000" d="M75.7,63.6c-1.6,0-1.8,0-6.3,0s-6,4.1-6,6c0,4.2,0,16.9,0,16.9h6.3v-4h5.9v4h6.1c0,0,0-12.5,0-16.9		C81.7,64.7,77.3,63.6,75.7,63.6z M75.6,75.9h-6v-5.6c0,0,0-1.3,2-1.3c1.8,0,0.3,0,2.2,0c1.7,0,1.8,1.3,1.8,1.3V75.9z" />	<rect x="84.6" y="63.6" fill="#CC0000" width="6.6" height="22.9" />	<polygon fill="#CC0000" points="100.4,63.6 93.9,63.6 93.9,80.6 93.9,86.5 100.4,86.5 109.2,86.5 109.2,80.6 100.4,80.6 	" />	<path fill="#CC0000" d="M72.2,60.7c0.6-0.5,1.1-0.9,1.1-0.9S56.5,43,37.7,44.9c-9.4,0.8-21,9.4-27.8,20.7C3.1,76.9,2.2,86.5,2.2,86.5		h25.6c0,0-4.9-22.3,11.3-31.3C42.6,53.5,53.9,47.1,72.2,60.7z" />	<path fill="#CC0000" d="M55.5,44.5c-0.3-0.2-1.1-0.6-3.1-1.1l-0.1,2.1c1.1,0.4,2.1,0.8,3.1,1.2L55.5,44.5z" />	<path fill="#CC0000" d="M55.5,55.9l0.1-2c-1.1-0.2-2.2-0.3-3.2-0.4l-0.1,2C53.4,55.5,54.4,55.7,55.5,55.9z" />	<path fill="#CC0000" d="M40.4,43.5c0.1,0,0.2,0,0.3,0l-0.6-2c-1,0-2,0.1-3.1,0.2l0.6,1.9C38.5,43.5,39.4,43.5,40.4,43.5z" />	<path fill="#CC0000" d="M42.6,57.6c0.9-0.5,1.9-0.8,2.8-1.1l-0.7-2.1c-1,0.2-2,0.6-2.8,1L42.6,57.6z" />	<path fill="#CC0000" d="M27.2,46.9l-1.5-2.2C25,45,24.1,45.5,23.3,46l1.5,2.3C25.6,47.8,26.4,47.3,27.2,46.9z" />	<path fill="#CC0000" d="M33.9,61.4l1.6,2.3c0.6-0.8,1.2-1.6,1.9-2.3l-1.5-2.2C35.1,59.9,34.5,60.7,33.9,61.4z" />	<path fill="#CC0000" d="M30.2,68.3c-0.5,1.2-0.8,2.4-1,3.5l2.6,2.1c0.1-1.3,0.4-2.5,0.7-3.8L30.2,68.3z" />	<path fill="#CC0000" d="M15,56.5l-2.3-2c-0.8,0.8-1.7,1.6-2.4,2.4l2.5,2.1C13.5,58.1,14.2,57.3,15,56.5z" />	<path fill="#CC0000" d="M5.2,70.9l-3.7-1.4c-0.6,1.4-1.3,3-1.6,3.9l3.7,1.4C4,73.7,4.7,72.1,5.2,70.9z" />	<path fill="#CC0000" d="M28.7,80c0.1,1.7,0.2,3.1,0.4,4.1l3.9,1.4c-0.3-1.3-0.6-2.7-0.8-4.2L28.7,80z" /></svg>
