<svg version="1.1" xmlns="http://www.w3.org/2000/svg" xmlns:xlink="http://www.w3.org/1999/xlink" viewBox="0 0 128 128">
	<g id="layer1" transform="translate(-273.27313,-435.95455)">
		<path id="path3907" fill="#A62C39" d="M290.717,561.009
			c0,0,0.188-29.538,0.188-59.564c0-58.159-4.901-62.491,21.194-62.491c26.096,0,72.635,0,72.635,0s0,56.273,0,83.889
			c0,27.615,5.162,38.433-23.859,38.433C331.854,561.277,290.717,561.009,290.717,561.009L290.717,561.009z"/>
	</g>
	<g id="layer4" transform="translate(-273.27313,-435.95455)">

			<linearGradient id="path3947_1_" gradientUnits="userSpaceOnUse" x1="681.4367" y1="2170.4263" x2="703.949" y2="2182.2175" gradientTransform="matrix(1 0 0 -1 -320.7729 2656.9561)">
			<stop  offset="0" style="stop-color:#FFFFFF"/>
			<stop  offset="1" style="stop-color:#C0815E"/>
		</linearGradient>
		<path id="path3947" fill="url(#path3947_1_)" d="M350.603,449.926c0,0,4.655,0.932,8.688,7.757
			c4.034,6.826,25.444,59.886,25.444,59.886v-43.131l-19.858-32.27l5.585,6.827l10.55-8.689l-13.653-0.93L350.603,449.926z"/>
	</g>
	<g id="layer3" transform="translate(-273.27313,-435.95455)">

			<radialGradient id="path3934_1_" cx="668.1179" cy="1679.3003" r="38.4063" gradientTransform="matrix(1 0 0 -1.5817 -320.7729 3155.8772)" gradientUnits="userSpaceOnUse">
			<stop  offset="0" style="stop-color:#FFFFFF"/>
			<stop  offset="1" style="stop-color:#A94436"/>
		</radialGradient>
		<path id="path3934" opacity="0.6682" fill="url(#path3934_1_)" enable-background="new    " d="
			M309.335,439.686c0,0,30.719,20.479,45.613,24.513c14.894,4.035,30.408,8.378,30.408,8.378l-35.373,86.88l15.204,0.621
			l19.86-49.026l-0.622-71.676L309.335,439.686z"/>
		<path id="path3960" fill="#FFFFFF" fill-opacity="0.4396" d="
			M337.881,531.221l31.956,30.733l-59.571-1.256c0,0-1.861-18.927-1.241-28.856s3.723-9.929,3.723-9.929L337.881,531.221z"/>
	</g>
	<g id="layer5" transform="translate(-273.27313,-435.95455)">
		<path id="path3958" fill-opacity="0.3623" d="M367.358,561.32
			l-28.856-29.788l-26.375-9.929l-20.479-45.612l21.721-36.304l-14.584-0.621l-5.896,5.586l-2.172,4.344l-1.552,112.945
			L367.358,561.32z"/>
		<path id="path3962" opacity="0.5" fill="#83222D" enable-background="new    " d="
			M385.046,513.845c0,0-29.167,9.309-46.543,17.997c-17.376,8.688-26.685,29.787-26.685,29.787s37.234-1.861,51.197-1.241
			c13.963,0.621,20.479,0.621,21.72-18.927C385.976,521.913,385.046,513.845,385.046,513.845L385.046,513.845z"/>
	</g>
	<g id="layer7" transform="translate(-273.27313,-435.95455)">
		<path id="path3993" fill="#FFFFFF" d="M299.708,532.377v18.326h4.674v-4.773l4.254,4.254h7.172
			l-5.688-5.688c0,0,4.093-0.067,4.402-5.984c0-5.43-4.097-6.134-8.83-6.134H299.708z M304.605,537.348h4.031v3.265h-4.031V537.348z
			"/>
		<path id="path3997" fill="#FFFFFF" d="M324.835,532.451c-2.559-0.015-6.108,0.223-6.108,5.045
			v12.737h4.797v-3.116h4.65v3.042h4.822v-13.354c0-4.189-4.654-4.353-7.147-4.353C325.537,532.451,325.201,532.453,324.835,532.451
			z M323.598,537.051h4.501v5.021h-4.501V537.051z"/>
		<rect id="rect4001" x="337.804" y="532.462" fill="#FFFFFF" width="4.964" height="17.531"/>
		<path id="path4003" fill="#FFFFFF" d="M347.965,532.696v17.531h11.947v-4.654h-7.059v-12.955
			L347.965,532.696z"/>
		<path id="path4005" fill="#FFFFFF" d="M375.736,532.54
			v4.732h-7.99v1.707c0,0,1.629,0,3.413,0c1.785,0,5.508-0.077,5.508,5.508c0,5.585-2.561,5.896-7.758,5.896
			c-5.197,0-6.283,0-6.283,0v-4.267c0,0,5.042,0,7.214,0c2.172,0,2.292-0.708,2.292-1.324c0-0.615-1.11-0.902-3.369-0.902
			s-6.447-1.11-6.447-5.454s2.172-5.973,6.516-5.973C373.177,532.462,375.736,532.54,375.736,532.54L375.736,532.54z"/>
	</g>
	<g id="layer6" transform="translate(-273.27313,-435.95455)">
		<path id="path3966" fill="#FFFFFF" d="M304.06,527.188h41.269
			c0,0-9.154-20.789-6.826-39.873c2.326-19.082,17.376-27.771,25.909-28.702c8.533-0.931,13.187,4.344,13.187,4.344l1.861-2.792
			c0,0-12.256-12.412-27.771-11.015c-15.514,1.395-26.219,11.635-32.89,24.046c-6.671,12.412-10.55,21.101-13.188,34.132
			C302.974,520.361,304.06,527.188,304.06,527.188z"/>
		<path id="path3968" fill="#FFFFFF" d="M295.838,506.399l8.066,0.62l-1.396,8.068l-7.602-0.931
			L295.838,506.399z"/>
		<path id="path3970" fill="#FFFFFF" d="M308.559,489.332l2.172-6.05l-7.137-2.793l-2.327,6.516
			L308.559,489.332z"/>
		<path id="path3972" fill="#FFFFFF" d="M318.643,468.543l4.189-4.965l-5.43-3.568l-4.343,4.81
			L318.643,468.543z"/>
		<path id="path3974" fill="#FFFFFF" d="M329.658,449.306l3.724,4.499l5.12-2.947l-3.724-4.189
			L329.658,449.306z"/>
		<path id="path3976" fill="#FFFFFF" d="M347.811,444.186l0.93,4.499l6.361-0.155l-0.62-4.034
			L347.811,444.186z"/>
		<path id="path3978" fill="#FFFFFF" d="M369.375,448.995l-0.155,2.792l4.343,2.328l0.931-1.396
			L369.375,448.995z"/>
		<path id="path3980" fill="#FFFFFF" d="M368.445,460.941v2.327l4.189,0.465v-1.861
			L368.445,460.941z"/>
		<path id="path3982" fill="#FFFFFF" d="M355.102,462.957l2.017,3.724l2.948-2.327l-0.621-2.482
			L355.102,462.957z"/>
		<path id="path3984" fill="#FFFFFF" d="M348.741,467.767l3.103,4.655l-1.862,3.257l-4.499-4.965
			L348.741,467.767z"/>
		<path id="path3986" fill="#FFFFFF" d="M342.535,480.645l-2.017,4.033l5.275,4.5l1.241-5.121
			L342.535,480.645z"/>
		<path id="path3988" fill="#FFFFFF" d="M340.363,494.762l-0.31,5.43l6.516,2.792l-0.311-5.119
			L340.363,494.762z"/>
		<path id="path3990" fill="#FFFFFF" d="M342.225,514l1.552,5.586l8.223,0.465L349.051,514
			H342.225z"/>
	</g>
	<g id="g3911" transform="translate(-273.27313,-435.95455)">

			<path id="path3913" fill="none" stroke="#5E000E" stroke-width="3" d="
			M290.717,561.009c0,0,0.188-29.538,0.188-59.564c0-58.159-4.901-62.491,21.194-62.491c26.096,0,72.635,0,72.635,0
			s0,56.273,0,83.889c0,27.615,3.921,38.433-23.859,38.433C333.095,561.277,290.717,561.009,290.717,561.009L290.717,561.009z"/>
	</g>
</svg>
