<svg xmlns="http://www.w3.org/2000/svg" viewBox="0 0 128 128"><path d="M3.219 99.523v-2.355H1.102v2.348H0v-5.641h1.102v2.371h2.117v-2.371H4.32v5.648zm5.082 0h-.86l-.078-.296a2.383 2.383 0 01-1.258.355c-.77 0-1.101-.512-1.101-1.215 0-.699.375-1.11 1.223-1.11h1.015v-.421c0-.457-.133-.613-.804-.613-.391.004-.786.043-1.168.12l-.133-.777c.48-.132.976-.199 1.476-.199 1.324 0 1.711.457 1.711 1.469zm-1.102-1.53h-.73c-.34 0-.438.085-.438.398 0 .312.098.41.418.41a1.66 1.66 0 00.793-.211zm3.305 1.62a5.092 5.092 0 01-1.453-.234l.14-.777c.41.113.832.175 1.258.18.465 0 .54-.102.54-.415 0-.308 0-.375-.739-.531-1.023-.246-1.102-.492-1.102-1.281 0-.79.375-1.176 1.579-1.176.421 0 .843.047 1.253.144l-.097.809a8.232 8.232 0 00-1.156-.121c-.465 0-.543.102-.543.355 0 .258 0 .356.597.489 1.18.3 1.29.457 1.29 1.293 0 .832-.286 1.254-1.555 1.254zm4.828-.09V96.68c0-.223-.098-.325-.34-.325-.387.043-.762.16-1.101.344v2.824h-1.106v-5.726l1.106.156v1.8a3.846 3.846 0 011.543-.386c.691 0 .945.477.945 1.2v2.956zm1.941-4.644v-1.004h1.102v1.004zm0 4.644v-4.078h1.102v4.078zm1.895-4.035c0-1.023.617-1.613 2.05-1.613a6.822 6.822 0 011.567.191l-.12.91a8.633 8.633 0 00-1.411-.199c-.75 0-.992.254-.992.844v2.149c0 .59.242.843.992.843a8.99 8.99 0 001.41-.144l.121.91a6.822 6.822 0 01-1.566.191c-1.434 0-2.051-.59-2.051-1.613zm5.941 4.125c-1.441 0-1.828-.765-1.828-1.601V97c0-.832.387-1.602 1.828-1.602 1.446 0 1.832.77 1.832 1.602v1.035c0 .8-.386 1.567-1.832 1.567zm0-3.336c-.562 0-.78.246-.78.703v1.11c0 .457.218.703.78.703.563 0 .786-.246.786-.703v-1.11c0-.503-.223-.746-.786-.746zm4.797.067c-.383.168-.75.367-1.101.59v2.625h-1.106v-4.114h.961v.446a4.71 4.71 0 011.102-.536zm4.266 1.77a1.26 1.26 0 01-.34 1.066c-.273.28-.66.418-1.05.367a6.174 6.174 0 01-1.102-.121v1.668l-1.102.156v-5.805h.836l.102.344c.39-.277.855-.426 1.332-.422.851 0 1.3.488 1.3 1.41zm-2.512.456c.305.067.621.102.934.11.375 0 .531-.176.531-.543v-1.38c0-.335-.133-.523-.52-.523-.343.012-.675.141-.937.368zm0 0M6.426 108.043H0v-3.871h17.207v3.871h-6.426v19.348H6.426zm0 0"/><path d="M21.176 124.242a17.45 17.45 0 005.148-.8l.66 3.203a17.97 17.97 0 01-6.183 1.113c-5.293 0-7.121-2.48-7.121-6.551v-4.45c0-3.589 1.586-6.667 6.976-6.667s6.614 3.168 6.614 6.824v3.625h-9.368v.867c0 2.035.715 2.836 3.274 2.836zm-3.309-7.148h5.36v-.836c0-1.602-.485-2.711-2.559-2.711-2.07 0-2.8 1.11-2.8 2.71zm0 0M38.527 113.969a32.367 32.367 0 00-4.41 2.48v10.942h-4.265v-16.98h3.558l.278 1.878a18.697 18.697 0 014.41-2.223zm0 0M48.82 113.969a32.603 32.603 0 00-4.41 2.48v10.942h-4.265v-16.98h3.562l.273 1.878a18.772 18.772 0 014.41-2.223zm0 0M62.91 127.379h-3.453l-.309-1.113a9.123 9.123 0 01-5.003 1.5c-3.075 0-4.41-2.121-4.41-5.047 0-3.446 1.488-4.77 4.906-4.77h4.047v-1.777c0-1.883-.52-2.547-3.208-2.547-1.57.016-3.132.191-4.664.52l-.52-3.235a21.801 21.801 0 015.767-.8c5.292 0 6.847 1.878 6.847 6.136zm-4.21-6.418h-3.11c-1.38 0-1.766.379-1.766 1.668 0 1.293.375 1.715 1.7 1.715a6.62 6.62 0 003.175-.867zm0 0M75.871 106.543a12.234 12.234 0 00-2.414-.281c-1.652 0-1.894.734-1.894 2.023v2.125h4.277l-.242 3.336H71.55v13.586H67.34v-13.543h-2.7v-3.336h2.688v-2.41c0-3.527 1.621-5.262 5.36-5.262 1.222-.004 2.445.16 3.624.492zm0 0M84.094 127.734c-5.766 0-7.317-3.203-7.317-6.671v-4.293c0-3.48 1.551-6.672 7.317-6.672 5.765 0 7.332 3.203 7.332 6.672v4.293c-.012 3.457-1.567 6.671-7.332 6.671zm0-14.043c-2.203 0-3.106 1.012-3.106 2.922v4.57c0 1.915.86 2.926 3.106 2.926 2.25 0 3.11-1.011 3.11-2.925v-4.57c0-1.923-.872-2.934-3.11-2.934zm0 0M102.262 113.969a32.603 32.603 0 00-4.41 2.48v10.942h-4.254v-16.98h3.558l.278 1.878a18.697 18.697 0 014.41-2.223zm0 0M113.836 127.379v-11.844c0-.898-.375-1.355-1.344-1.355-1.55.175-3.05.664-4.41 1.433v11.778h-4.191v-16.98h3.21l.419 1.433a16.737 16.737 0 016.734-1.778 3.19 3.19 0 013.176 1.813 16.396 16.396 0 016.765-1.813c2.801 0 3.805 1.989 3.805 5.016v12.297h-4.21v-11.844c0-.898-.376-1.355-1.345-1.355a11.05 11.05 0 00-4.41 1.433v11.778zm0 0"/><path d="M52.336 15.434L75.664 29.02v27.175l-23.328-13.59zm0 0M78.219 29.02v27.175l23.336-13.59V15.434zm0 0M26.457.266V27.44l23.324 13.586V13.855zm0 0M52.336 72.75l23.328 13.59V59.176l-23.328-13.59zm0 0" fill-rule="evenodd"/></svg>
