<?xml version="1.0" encoding="UTF-8"?>
<svg xmlns="http://www.w3.org/2000/svg" xmlns:xlink="http://www.w3.org/1999/xlink" width="128px" height="128px" viewBox="0 0 128 128" version="1.1">
<g id="surface1">
<path style=" stroke:none;fill-rule:nonzero;fill:rgb(0%,0%,0%);fill-opacity:1;" d="M 3.21875 99.523438 L 3.21875 97.167969 L 1.101562 97.167969 L 1.101562 99.515625 L 0 99.515625 L 0 93.875 L 1.101562 93.875 L 1.101562 96.246094 L 3.21875 96.246094 L 3.21875 93.875 L 4.320312 93.875 L 4.320312 99.523438 Z M 8.300781 99.523438 L 7.441406 99.523438 L 7.363281 99.226562 C 6.984375 99.460938 6.550781 99.582031 6.105469 99.582031 C 5.335938 99.582031 5.003906 99.070312 5.003906 98.367188 C 5.003906 97.667969 5.378906 97.257812 6.226562 97.257812 L 7.242188 97.257812 L 7.242188 96.835938 C 7.242188 96.378906 7.109375 96.222656 6.4375 96.222656 C 6.046875 96.226562 5.652344 96.265625 5.269531 96.34375 L 5.136719 95.566406 C 5.617188 95.433594 6.113281 95.367188 6.613281 95.367188 C 7.9375 95.367188 8.324219 95.824219 8.324219 96.835938 Z M 7.199219 97.992188 L 6.46875 97.992188 C 6.128906 97.992188 6.03125 98.078125 6.03125 98.390625 C 6.03125 98.703125 6.128906 98.800781 6.449219 98.800781 C 6.726562 98.796875 7 98.726562 7.242188 98.589844 Z M 10.503906 99.613281 C 10.011719 99.605469 9.519531 99.527344 9.050781 99.378906 L 9.191406 98.601562 C 9.601562 98.714844 10.023438 98.777344 10.449219 98.78125 C 10.914062 98.78125 10.988281 98.679688 10.988281 98.367188 C 10.988281 98.058594 10.988281 97.992188 10.25 97.835938 C 9.226562 97.589844 9.148438 97.34375 9.148438 96.554688 C 9.148438 95.765625 9.523438 95.378906 10.726562 95.378906 C 11.148438 95.378906 11.570312 95.425781 11.980469 95.523438 L 11.882812 96.332031 C 11.5 96.265625 11.113281 96.222656 10.726562 96.210938 C 10.261719 96.210938 10.183594 96.3125 10.183594 96.566406 C 10.183594 96.824219 10.183594 96.921875 10.78125 97.054688 C 11.960938 97.355469 12.070312 97.511719 12.070312 98.347656 C 12.070312 99.179688 11.785156 99.601562 10.515625 99.601562 Z M 15.332031 99.523438 L 15.332031 96.679688 C 15.332031 96.457031 15.234375 96.355469 14.992188 96.355469 C 14.605469 96.398438 14.230469 96.515625 13.890625 96.699219 L 13.890625 99.523438 L 12.785156 99.523438 L 12.785156 93.796875 L 13.890625 93.953125 L 13.890625 95.753906 C 14.371094 95.519531 14.898438 95.386719 15.433594 95.367188 C 16.125 95.367188 16.378906 95.84375 16.378906 96.566406 L 16.378906 99.523438 Z M 17.273438 94.878906 L 17.273438 93.875 L 18.375 93.875 L 18.375 94.878906 Z M 17.273438 99.523438 L 17.273438 95.445312 L 18.375 95.445312 L 18.375 99.523438 Z M 19.167969 95.488281 C 19.167969 94.464844 19.785156 93.875 21.21875 93.875 C 21.746094 93.878906 22.273438 93.941406 22.785156 94.066406 L 22.664062 94.976562 C 22.199219 94.871094 21.726562 94.804688 21.253906 94.777344 C 20.503906 94.777344 20.261719 95.03125 20.261719 95.621094 L 20.261719 97.769531 C 20.261719 98.359375 20.503906 98.613281 21.253906 98.613281 C 21.726562 98.601562 22.199219 98.554688 22.664062 98.46875 L 22.785156 99.378906 C 22.273438 99.503906 21.746094 99.566406 21.21875 99.570312 C 19.785156 99.570312 19.167969 98.980469 19.167969 97.957031 Z M 25.109375 99.613281 C 23.667969 99.613281 23.28125 98.847656 23.28125 98.011719 L 23.28125 97 C 23.28125 96.167969 23.667969 95.398438 25.109375 95.398438 C 26.554688 95.398438 26.941406 96.167969 26.941406 97 L 26.941406 98.035156 C 26.941406 98.835938 26.554688 99.601562 25.109375 99.601562 Z M 25.109375 96.277344 C 24.546875 96.277344 24.328125 96.523438 24.328125 96.980469 L 24.328125 98.089844 C 24.328125 98.546875 24.546875 98.792969 25.109375 98.792969 C 25.671875 98.792969 25.894531 98.546875 25.894531 98.089844 L 25.894531 96.980469 C 25.894531 96.476562 25.671875 96.234375 25.109375 96.234375 Z M 29.90625 96.34375 C 29.523438 96.511719 29.15625 96.710938 28.804688 96.933594 L 28.804688 99.558594 L 27.699219 99.558594 L 27.699219 95.445312 L 28.660156 95.445312 L 28.660156 95.890625 C 29.003906 95.664062 29.375 95.484375 29.761719 95.355469 Z M 34.171875 98.113281 C 34.230469 98.503906 34.105469 98.898438 33.832031 99.179688 C 33.558594 99.460938 33.171875 99.597656 32.78125 99.546875 C 32.414062 99.539062 32.042969 99.5 31.679688 99.425781 L 31.679688 101.09375 L 30.578125 101.25 L 30.578125 95.445312 L 31.414062 95.445312 L 31.515625 95.789062 C 31.90625 95.511719 32.371094 95.363281 32.847656 95.367188 C 33.699219 95.367188 34.148438 95.855469 34.148438 96.777344 Z M 31.660156 98.570312 C 31.964844 98.636719 32.28125 98.671875 32.59375 98.679688 C 32.96875 98.679688 33.125 98.503906 33.125 98.136719 L 33.125 96.757812 C 33.125 96.421875 32.992188 96.234375 32.605469 96.234375 C 32.261719 96.246094 31.929688 96.375 31.667969 96.601562 Z M 31.660156 98.570312 "/>
<path style=" stroke:none;fill-rule:nonzero;fill:rgb(0%,0%,0%);fill-opacity:1;" d="M 6.425781 108.042969 L 0 108.042969 L 0 104.171875 L 17.207031 104.171875 L 17.207031 108.042969 L 10.78125 108.042969 L 10.78125 127.390625 L 6.425781 127.390625 Z M 6.425781 108.042969 "/>
<path style=" stroke:none;fill-rule:nonzero;fill:rgb(0%,0%,0%);fill-opacity:1;" d="M 21.175781 124.242188 C 22.921875 124.234375 24.65625 123.964844 26.324219 123.441406 L 26.984375 126.644531 C 25.003906 127.375 22.910156 127.753906 20.800781 127.757812 C 15.507812 127.757812 13.679688 125.277344 13.679688 121.207031 L 13.679688 116.757812 C 13.679688 113.167969 15.265625 110.089844 20.65625 110.089844 C 26.046875 110.089844 27.269531 113.257812 27.269531 116.914062 L 27.269531 120.539062 L 17.902344 120.539062 L 17.902344 121.40625 C 17.902344 123.441406 18.617188 124.242188 21.175781 124.242188 Z M 17.867188 117.09375 L 23.226562 117.09375 L 23.226562 116.257812 C 23.226562 114.65625 22.742188 113.546875 20.667969 113.546875 C 18.597656 113.546875 17.867188 114.65625 17.867188 116.257812 Z M 17.867188 117.09375 "/>
<path style=" stroke:none;fill-rule:nonzero;fill:rgb(0%,0%,0%);fill-opacity:1;" d="M 38.527344 113.96875 C 36.996094 114.679688 35.519531 115.507812 34.117188 116.449219 L 34.117188 127.390625 L 29.851562 127.390625 L 29.851562 110.410156 L 33.410156 110.410156 L 33.6875 112.289062 C 35.054688 111.355469 36.535156 110.609375 38.097656 110.066406 Z M 38.527344 113.96875 "/>
<path style=" stroke:none;fill-rule:nonzero;fill:rgb(0%,0%,0%);fill-opacity:1;" d="M 48.820312 113.96875 C 47.289062 114.679688 45.816406 115.507812 44.410156 116.449219 L 44.410156 127.390625 L 40.144531 127.390625 L 40.144531 110.410156 L 43.707031 110.410156 L 43.980469 112.289062 C 45.347656 111.355469 46.832031 110.609375 48.390625 110.066406 Z M 48.820312 113.96875 "/>
<path style=" stroke:none;fill-rule:nonzero;fill:rgb(0%,0%,0%);fill-opacity:1;" d="M 62.910156 127.378906 L 59.457031 127.378906 L 59.148438 126.265625 C 57.660156 127.242188 55.921875 127.765625 54.144531 127.765625 C 51.070312 127.765625 49.734375 125.644531 49.734375 122.71875 C 49.734375 119.273438 51.222656 117.949219 54.640625 117.949219 L 58.6875 117.949219 L 58.6875 116.171875 C 58.6875 114.289062 58.167969 113.625 55.480469 113.625 C 53.910156 113.640625 52.347656 113.816406 50.816406 114.144531 L 50.296875 110.910156 C 52.175781 110.386719 54.113281 110.117188 56.0625 110.109375 C 61.355469 110.109375 62.910156 111.988281 62.910156 116.246094 Z M 58.699219 120.960938 L 55.589844 120.960938 C 54.210938 120.960938 53.824219 121.339844 53.824219 122.628906 C 53.824219 123.921875 54.199219 124.34375 55.523438 124.34375 C 56.636719 124.328125 57.730469 124.027344 58.699219 123.476562 Z M 58.699219 120.960938 "/>
<path style=" stroke:none;fill-rule:nonzero;fill:rgb(0%,0%,0%);fill-opacity:1;" d="M 75.871094 106.542969 C 75.078125 106.367188 74.269531 106.277344 73.457031 106.261719 C 71.804688 106.261719 71.5625 106.996094 71.5625 108.285156 L 71.5625 110.410156 L 75.839844 110.410156 L 75.597656 113.746094 L 71.550781 113.746094 L 71.550781 127.332031 L 67.339844 127.332031 L 67.339844 113.789062 L 64.640625 113.789062 L 64.640625 110.453125 L 67.328125 110.453125 L 67.328125 108.042969 C 67.328125 104.515625 68.949219 102.78125 72.6875 102.78125 C 73.910156 102.777344 75.132812 102.941406 76.3125 103.273438 Z M 75.871094 106.542969 "/>
<path style=" stroke:none;fill-rule:nonzero;fill:rgb(0%,0%,0%);fill-opacity:1;" d="M 84.09375 127.734375 C 78.328125 127.734375 76.777344 124.53125 76.777344 121.0625 L 76.777344 116.769531 C 76.777344 113.289062 78.328125 110.097656 84.09375 110.097656 C 89.859375 110.097656 91.425781 113.300781 91.425781 116.769531 L 91.425781 121.0625 C 91.414062 124.519531 89.859375 127.734375 84.09375 127.734375 Z M 84.09375 113.691406 C 81.890625 113.691406 80.988281 114.703125 80.988281 116.613281 L 80.988281 121.183594 C 80.988281 123.097656 81.847656 124.109375 84.09375 124.109375 C 86.34375 124.109375 87.203125 123.097656 87.203125 121.183594 L 87.203125 116.613281 C 87.203125 114.691406 86.332031 113.679688 84.09375 113.679688 Z M 84.09375 113.691406 "/>
<path style=" stroke:none;fill-rule:nonzero;fill:rgb(0%,0%,0%);fill-opacity:1;" d="M 102.261719 113.96875 C 100.730469 114.679688 99.257812 115.507812 97.851562 116.449219 L 97.851562 127.390625 L 93.597656 127.390625 L 93.597656 110.410156 L 97.15625 110.410156 L 97.433594 112.289062 C 98.800781 111.355469 100.28125 110.609375 101.84375 110.066406 Z M 102.261719 113.96875 "/>
<path style=" stroke:none;fill-rule:nonzero;fill:rgb(0%,0%,0%);fill-opacity:1;" d="M 113.835938 127.378906 L 113.835938 115.535156 C 113.835938 114.636719 113.460938 114.179688 112.492188 114.179688 C 110.941406 114.355469 109.441406 114.84375 108.082031 115.613281 L 108.082031 127.390625 L 103.890625 127.390625 L 103.890625 110.410156 L 107.101562 110.410156 L 107.519531 111.84375 C 109.617188 110.785156 111.910156 110.179688 114.253906 110.066406 C 115.582031 109.941406 116.851562 110.664062 117.429688 111.878906 C 119.53125 110.792969 121.839844 110.175781 124.195312 110.066406 C 126.996094 110.066406 128 112.054688 128 115.082031 L 128 127.378906 L 123.789062 127.378906 L 123.789062 115.535156 C 123.789062 114.636719 123.414062 114.179688 122.445312 114.179688 C 120.890625 114.339844 119.390625 114.828125 118.035156 115.613281 L 118.035156 127.390625 Z M 113.835938 127.378906 "/>
<path style=" stroke:none;fill-rule:evenodd;fill:rgb(36.078431%,30.588235%,89.803922%);fill-opacity:1;" d="M 52.335938 15.433594 L 75.664062 29.019531 L 75.664062 56.195312 L 52.335938 42.605469 Z M 52.335938 15.433594 "/>
<path style=" stroke:none;fill-rule:evenodd;fill:rgb(25.098039%,25.098039%,69.803922%);fill-opacity:1;" d="M 78.21875 29.019531 L 78.21875 56.195312 L 101.554688 42.605469 L 101.554688 15.433594 Z M 78.21875 29.019531 "/>
<path style=" stroke:none;fill-rule:evenodd;fill:rgb(36.078431%,30.588235%,89.803922%);fill-opacity:1;" d="M 26.457031 0.265625 L 26.457031 27.441406 L 49.78125 41.027344 L 49.78125 13.855469 Z M 26.457031 0.265625 "/>
<path style=" stroke:none;fill-rule:evenodd;fill:rgb(36.078431%,30.588235%,89.803922%);fill-opacity:1;" d="M 52.335938 72.75 L 75.664062 86.339844 L 75.664062 59.175781 L 52.335938 45.585938 Z M 52.335938 72.75 "/>
</g>
</svg>
