<svg xmlns="http://www.w3.org/2000/svg" viewBox="0 0 128 128"><path fill="#5C4EE5" d="M26.457.266v27.173l23.324 13.586v-27.17zm25.879 15.168v27.171l23.328 13.59V29.02zm49.219 0L78.219 29.02v27.175l23.336-13.59zm-49.22 30.152V72.75l23.33 13.59V59.176zm-39.55 48.21v5.727h1.106V96.7c.339-.184.714-.3 1.101-.344.242 0 .34.102.34.325v2.843h1.047v-2.957c0-.723-.254-1.199-.945-1.199a3.85 3.85 0 0 0-1.543.387v-1.8zM0 93.876v5.64h1.102v-2.347h2.117v2.355H4.32v-5.648h-1.1v2.371H1.102v-2.371zm17.273 0v1.004h1.102v-1.004zm3.946 0c-1.433 0-2.051.59-2.051 1.613v2.469c0 1.023.617 1.613 2.05 1.613a6.8 6.8 0 0 0 1.567-.191l-.12-.91a9 9 0 0 1-1.411.144c-.75 0-.992-.253-.992-.843V95.62c0-.59.242-.844.992-.844a8.6 8.6 0 0 1 1.41.2l.121-.91a6.8 6.8 0 0 0-1.566-.192m8.543 1.48a4.7 4.7 0 0 0-1.102.536v-.446h-.96v4.114h1.105v-2.625a8 8 0 0 1 1.101-.59zm-23.149.012c-.5 0-.996.067-1.476.2l.133.777a6.3 6.3 0 0 1 1.168-.121c.67 0 .804.156.804.613v.422H6.227c-.848 0-1.223.41-1.223 1.11 0 .702.331 1.214 1.101 1.214a2.4 2.4 0 0 0 1.258-.355l.078.296h.86l.023-2.687c0-1.012-.387-1.469-1.71-1.469m26.235 0a2.27 2.27 0 0 0-1.332.422l-.102-.344h-.836v5.805l1.102-.156v-1.668a6 6 0 0 0 1.101.12 1.24 1.24 0 0 0 1.051-.366 1.26 1.26 0 0 0 .34-1.067l-.024-1.336c0-.922-.45-1.41-1.3-1.41m-22.121.012c-1.204 0-1.579.386-1.579 1.176s.079 1.035 1.102 1.28c.739.157.738.224.738.532 0 .313-.074.414-.539.414a5 5 0 0 1-1.258-.18l-.14.778a5 5 0 0 0 1.453.234l.012-.011c1.269 0 1.554-.422 1.554-1.254 0-.836-.109-.993-1.289-1.293-.597-.133-.597-.23-.597-.489 0-.253.078-.355.543-.355a8 8 0 0 1 1.156.121l.097-.809a5.5 5.5 0 0 0-1.253-.144m14.382.02c-1.44 0-1.828.769-1.828 1.601v1.012c0 .836.387 1.601 1.828 1.601v-.011c1.446 0 1.832-.767 1.832-1.567V97c0-.832-.386-1.602-1.832-1.602m-7.836.046v4.078h1.102v-4.078zm7.836.79c.563 0 .786.242.786.745v1.11c0 .457-.224.703-.786.703s-.78-.246-.78-.703v-1.11c0-.457.218-.703.78-.703zm7.496 0c.387 0 .52.188.52.523v1.379c0 .367-.156.543-.531.543a5 5 0 0 1-.934-.11l.008-1.968a1.5 1.5 0 0 1 .937-.368M6.47 97.991h.73l.043.598a1.66 1.66 0 0 1-.793.21c-.32 0-.418-.097-.418-.41s.098-.398.438-.398m66.219 4.79c-3.74 0-5.36 1.734-5.36 5.261v2.41h-2.687v3.336h2.699v13.543h4.21v-13.586h4.048l.242-3.336h-4.278v-2.125c0-1.289.243-2.023 1.895-2.023a12.2 12.2 0 0 1 2.414.281l.442-3.27a13.2 13.2 0 0 0-3.626-.492M0 104.171v3.871h6.426v19.348h4.355v-19.348h6.426v-3.871zm38.098 5.894a18.7 18.7 0 0 0-4.41 2.223l-.278-1.879h-3.558v16.98h4.265v-10.94a32.4 32.4 0 0 1 4.41-2.481zm10.293 0a18.8 18.8 0 0 0-4.41 2.223l-.274-1.879h-3.562v16.98h4.265v-10.94a32.6 32.6 0 0 1 4.41-2.481zm53.453 0a18.7 18.7 0 0 0-4.41 2.223l-.278-1.879h-3.558v16.98h4.254v-10.94a32.6 32.6 0 0 1 4.41-2.481zm12.41 0a16.7 16.7 0 0 0-6.734 1.778l-.418-1.434h-3.211v16.98h4.191v-11.777a11.6 11.6 0 0 1 4.41-1.433c.97 0 1.344.457 1.344 1.355v11.844l4.2.012v-11.778a11.05 11.05 0 0 1 4.41-1.433c.968 0 1.343.457 1.343 1.355v11.844H128v-12.297c0-3.027-1.004-5.016-3.805-5.016a16.4 16.4 0 0 0-6.765 1.813 3.19 3.19 0 0 0-3.176-1.813m-93.598.024c-5.39 0-6.976 3.079-6.976 6.668v4.449c0 4.071 1.828 6.55 7.12 6.55a18 18 0 0 0 6.184-1.112l-.66-3.204a17.5 17.5 0 0 1-5.148.801c-2.56 0-3.274-.8-3.274-2.836v-.867h9.368v-3.625c0-3.656-1.224-6.824-6.614-6.824m63.438.008c-5.766 0-7.317 3.192-7.317 6.672v4.293c0 3.468 1.55 6.671 7.317 6.671 5.765 0 7.32-3.215 7.332-6.671v-4.293c0-3.47-1.567-6.672-7.332-6.672m-28.031.011a21.8 21.8 0 0 0-5.766.801l.52 3.235a23.3 23.3 0 0 1 4.663-.52c2.688 0 3.208.664 3.208 2.547v1.777H54.64c-3.418 0-4.907 1.324-4.907 4.77 0 2.926 1.336 5.047 4.41 5.047a9.1 9.1 0 0 0 5.004-1.5l.309 1.113h3.453v-11.133c0-4.258-1.556-6.137-6.847-6.137m-35.395 3.438c2.074 0 2.559 1.109 2.559 2.71v.837h-5.36v-.836c0-1.6.731-2.711 2.801-2.711m63.426.133c2.238 0 3.11 1.01 3.11 2.933v4.57c0 1.915-.86 2.926-3.11 2.926-2.246 0-3.106-1.01-3.106-2.925v-4.57c0-1.91.903-2.923 3.106-2.923zm-28.504 7.28h3.11v2.517a6.6 6.6 0 0 1-3.177.867c-1.325 0-1.699-.422-1.699-1.715 0-1.29.386-1.668 1.766-1.668"/></svg>
