<svg xmlns="http://www.w3.org/2000/svg" viewBox="0 0 128 128"><path fill="#fff" d="M13.699 108.645h8.047v17.421h-3.492V112.04l-3.116.012h-.749c-1.74 0-2.707.073-2.9.218-1.039.282-1.917.882-2.634 1.8-.772 1.104-1.159 2.203-1.159 3.298 0 1.353.523 2.598 1.57 3.733.701.668 1.305 1.071 1.813 1.208.507.258 1.381.387 2.621.387h2.429v3.371h-2.911c-2.159 0-3.983-.568-5.474-1.704-1.079-.854-1.8-1.627-2.162-2.319-.902-1.434-1.354-2.9-1.354-4.398v-.507c0-2.094.785-4.015 2.356-5.763.95-.926 1.728-1.51 2.331-1.752.436-.242 1.035-.471 1.801-.688.684-.195 1.679-.291 2.983-.291zm25.625 3.479c.346.467.596.866.749 1.196.226.395.438.926.641 1.595.241.806.362 1.901.362 3.286v7.865h-3.492v-8.24c0-2.771-1.252-4.623-3.757-5.557-.572-.161-1.075-.246-1.511-.254-.435.008-.934.093-1.498.254-2.505.934-3.757 2.787-3.757 5.557v8.24h-3.504v-7.865c0-1.385.121-2.48.362-3.286.201-.668.415-1.2.641-1.595.153-.338.406-.737.761-1.196 1.877-2.304 4.209-3.456 6.995-3.456 2.788 0 5.123 1.152 7.008 3.456zm9.798-3.467c2.345 0 3.689.052 4.036.157.95.113 2.021.512 3.213 1.196.652.403 1.346 1.019 2.078 1.848 1.305 1.619 1.957 3.459 1.957 5.521a8.461 8.461 0 01-.7 3.419c-.918 2.086-2.429 3.592-4.53 4.519-.975.5-2.473.749-4.494.749h-7.406l-.387-.073v-3.31h8.167c.87 0 1.542-.077 2.018-.229 1.265-.427 2.19-1.063 2.778-1.909.717-1.071 1.075-2.114 1.075-3.129 0-1.023-.31-2.03-.93-3.021-.387-.572-.813-1.006-1.28-1.305-.854-.701-2.074-1.051-3.661-1.051h-8.167v-3.383h6.233zm13.097 0h11.188c1.973 0 3.52.592 4.639 1.776.5.467.846.918 1.039 1.353.436.87.652 1.72.652 2.549v.495c0 1.273-.552 2.517-1.654 3.733-.709.676-1.354 1.111-1.934 1.305 1.466 1.563 2.199 3.628 2.199 6.198h-3.516v-.266c0-1.901-.77-3.411-2.308-4.531-.878-.62-2.026-.93-3.443-.93h-6.862v-3.359h11.405c1.248 0 2.094-.616 2.537-1.848.048-.25.08-.459.096-.628 0-.685-.285-1.305-.857-1.86-.491-.387-1.015-.58-1.57-.58 0-.032-.169-.048-.508-.048H62.219v-3.359zm28.041.011h.12c2.675 0 4.958 1.096 6.851 3.286 1.225 1.643 1.836 3.431 1.836 5.364v.121c0 2.674-1.119 4.945-3.358 6.813-1.627 1.208-3.411 1.813-5.352 1.813h-.121c-2.658 0-4.934-1.087-6.826-3.262-.66-.926-1.123-1.776-1.39-2.549a9.19 9.19 0 01-.471-2.839v-.121c0-2.626 1.083-4.873 3.25-6.742 1.466-1.047 2.803-1.635 4.011-1.764.37-.079.853-.12 1.45-.12zm-5.232 8.675c0 1.514.592 2.843 1.776 3.987 1.055.902 2.162 1.353 3.322 1.353h.338c.935 0 1.885-.318 2.852-.955.998-.733 1.675-1.667 2.029-2.803.112-.298.193-.81.241-1.534 0-1.482-.575-2.791-1.728-3.927-1.079-.958-2.263-1.438-3.552-1.438-1.506 0-2.843.628-4.011 1.885-.491.645-.802 1.192-.931 1.643-.223.629-.336 1.225-.336 1.789zm15.851-8.675h3.491v17.397h-3.491v-17.397zm11.61-.011c2.344 0 3.688.052 4.035.157.95.113 2.021.512 3.213 1.196.652.403 1.346 1.019 2.078 1.848 1.305 1.619 1.957 3.459 1.957 5.521a8.461 8.461 0 01-.7 3.419c-.918 2.086-2.429 3.592-4.53 4.519-.975.5-2.473.749-4.494.749h-7.406l-.387-.073v-3.31h8.167c.87 0 1.542-.077 2.018-.229 1.265-.427 2.19-1.063 2.778-1.909.717-1.071 1.075-2.114 1.075-3.129 0-1.023-.31-2.03-.93-3.021-.387-.572-.813-1.006-1.28-1.305-.854-.701-2.074-1.051-3.661-1.051h-8.167v-3.383h6.234zM29.19 76.835c-4.484.002-8.128-3.646-8.129-8.13l-.001-24.891c-.001-4.479 3.642-8.127 8.121-8.128a8.072 8.072 0 015.753 2.377 8.078 8.078 0 012.384 5.749l-.002 24.892a8.037 8.037 0 01-2.373 5.744 8.065 8.065 0 01-5.753 2.387m-.006-38.964a5.945 5.945 0 00-5.943 5.944l.004 24.889a5.943 5.943 0 1011.887.001V43.812a5.947 5.947 0 00-5.948-5.941"/><path fill="#fff" d="M92.942 39.104l-2.186-.001-53.54.007-2.186.001-.001-2.186c-.005-8.972 4.883-17.316 12.889-22.246l-3.112-5.682a2.995 2.995 0 011.214-4.093 2.92 2.92 0 011.424-.362c1.103 0 2.113.599 2.645 1.565l3.258 5.935a30.63 30.63 0 0110.607-1.866c3.729-.001 7.307.629 10.691 1.871l3.253-5.944a3.003 3.003 0 012.642-1.564c.496-.001.99.12 1.426.354a3.007 3.007 0 011.467 1.819 2.977 2.977 0 01-.258 2.293l-3.11 5.678c7.993 4.94 12.875 13.279 12.874 22.235l.003 2.186zM77.115 15.52l4.148-7.576a.825.825 0 10-1.444-.794l-4.191 7.652a28.588 28.588 0 00-11.646-2.442 28.521 28.521 0 00-11.619 2.434l-4.194-7.635a.818.818 0 00-1.117-.328.816.816 0 00-.327 1.117l4.149 7.569c-8.154 4.206-13.663 12.214-13.658 21.409l53.539-.006c.002-9.193-5.497-17.184-13.64-21.4M51.806 27.227a2.245 2.245 0 01.003-4.49 2.251 2.251 0 012.246 2.247 2.248 2.248 0 01-2.249 2.243m24.379-.005a2.24 2.24 0 01-2.245-2.244 2.259 2.259 0 012.245-2.25 2.258 2.258 0 012.24 2.25 2.241 2.241 0 01-2.24 2.244m-22.136 77.983c-4.48-.001-8.126-3.645-8.127-8.128L45.92 86.09l-2.136.002a8.457 8.457 0 01-6.031-2.496 8.45 8.45 0 01-2.497-6.034l-.008-38.566v-2.188h2.186l53.138-.008 2.187-.001v2.186l.006 38.571c0 4.704-3.826 8.532-8.529 8.531l-2.148.001.002 10.981c0 4.481-3.646 8.129-8.124 8.129a8.048 8.048 0 01-5.748-2.378 8.06 8.06 0 01-2.386-5.746V86.088h-3.653v10.985c-.002 4.482-3.648 8.133-8.13 8.132"/><path fill="#fff" d="M37.444 77.563a6.332 6.332 0 006.341 6.346h4.318l.005 13.169a5.948 5.948 0 005.94 5.945 5.945 5.945 0 005.941-5.95V83.908l8.024-.002-.001 13.168a5.946 5.946 0 0011.891-.004l-.004-13.166 4.334-.001a6.346 6.346 0 006.343-6.346l-.007-38.573-53.136.009.011 38.57zm61.372-.738c-4.483.001-8.13-3.642-8.129-8.126l-.006-24.89c.001-4.484 3.642-8.131 8.122-8.131 4.486-.001 8.135 3.646 8.135 8.128l.002 24.889c.001 4.481-3.642 8.131-8.124 8.13m-.007-38.962a5.94 5.94 0 00-5.941 5.945l.002 24.889a5.94 5.94 0 005.945 5.943 5.94 5.94 0 005.941-5.946l-.006-24.889a5.94 5.94 0 00-5.941-5.942"/><path fill="#A4C439" d="M29.184 37.871a5.945 5.945 0 00-5.943 5.944l.004 24.889a5.942 5.942 0 005.945 5.946 5.936 5.936 0 005.942-5.945V43.812a5.947 5.947 0 00-5.948-5.941M77.115 15.52l4.148-7.576a.829.829 0 00-.325-1.124.827.827 0 00-1.119.33l-4.19 7.655a28.504 28.504 0 00-11.646-2.444 28.51 28.51 0 00-11.619 2.434L48.17 7.16a.82.82 0 00-1.116-.329.816.816 0 00-.328 1.117l4.149 7.57c-8.154 4.206-13.663 12.214-13.658 21.409l53.539-.006c.001-9.194-5.498-17.185-13.641-21.401M51.806 27.227a2.245 2.245 0 01.003-4.49 2.251 2.251 0 012.246 2.247 2.248 2.248 0 01-2.249 2.243m24.379-.005a2.243 2.243 0 01-2.245-2.244 2.263 2.263 0 012.245-2.25 2.258 2.258 0 012.24 2.25 2.24 2.24 0 01-2.24 2.244m-38.75 11.771l.008 38.572a6.334 6.334 0 006.342 6.341l4.318.001.005 13.169a5.948 5.948 0 005.94 5.945 5.95 5.95 0 005.945-5.949l-.003-13.164 8.024-.002.003 13.168c0 3.277 2.667 5.948 5.942 5.942a5.946 5.946 0 005.945-5.946L79.9 83.904l4.334-.003a6.345 6.345 0 006.345-6.344l-.007-38.572-53.137.008zm67.317 4.813a5.941 5.941 0 00-5.943-5.943 5.94 5.94 0 00-5.941 5.945l.005 24.89a5.937 5.937 0 005.942 5.942 5.94 5.94 0 005.941-5.946l-.004-24.888z"/></svg>