<svg xmlns="http://www.w3.org/2000/svg" viewBox="0 0 128 128"><path fill="#fff" d="M21.012 91.125c-5.538.003-10.038-4.503-10.039-10.04l-.002-30.739c-.002-5.532 4.497-10.037 10.028-10.038 2.689-.002 5.207 1.041 7.105 2.937s2.942 4.418 2.944 7.099l-.003 30.74a9.924 9.924 0 01-2.931 7.094 9.962 9.962 0 01-7.102 2.947m-.008-48.12c-4.053-.002-7.338 3.291-7.339 7.341l.005 30.736a7.347 7.347 0 007.341 7.348 7.338 7.338 0 007.339-7.347V50.342a7.345 7.345 0 00-7.346-7.337"/><path fill="#fff" d="M99.742 44.527l-2.698-.001-66.119.009-2.699.001-.002-2.699c-.006-11.08 6.03-21.385 15.917-27.473l-3.844-7.017c-.47-.822-.588-1.863-.314-2.815a3.732 3.732 0 011.814-2.239 3.605 3.605 0 011.759-.447c1.362 0 2.609.739 3.267 1.933l4.023 7.329a37.842 37.842 0 0113.099-2.305c4.606-.002 9.023.777 13.204 2.311l4.017-7.341a3.711 3.711 0 013.263-1.932 3.712 3.712 0 011.761.438A3.706 3.706 0 0188 4.524a3.69 3.69 0 01-.318 2.832l-3.842 7.013c9.871 6.101 15.9 16.398 15.899 27.459l.003 2.699zM80.196 15.403l5.123-9.355a1.019 1.019 0 10-1.783-.981l-5.176 9.45c-4.354-1.934-9.229-3.021-14.382-3.016-5.142-.005-10.008 1.078-14.349 3.005l-5.181-9.429a1.009 1.009 0 00-1.379-.405c-.497.266-.68.891-.403 1.379l5.125 9.348c-10.07 5.194-16.874 15.084-16.868 26.439l66.118-.008c.003-11.351-6.789-21.221-16.845-26.427M48.94 29.86a2.772 2.772 0 01.003-5.545 2.78 2.78 0 012.775 2.774 2.775 2.775 0 01-2.778 2.771m30.107-.006a2.767 2.767 0 01-2.772-2.771 2.788 2.788 0 012.773-2.778 2.79 2.79 0 012.767 2.779 2.769 2.769 0 01-2.768 2.77m-27.336 96.305c-5.533-.001-10.036-4.501-10.037-10.038l-.002-13.567-2.638.003a10.453 10.453 0 01-7.448-3.082 10.437 10.437 0 01-3.083-7.452l-.01-47.627v-2.701h2.699l65.623-.01 2.7-.002v2.699l.007 47.633c.001 5.809-4.725 10.536-10.532 10.535l-2.654.002.003 13.562c0 5.534-4.502 10.039-10.033 10.039a9.933 9.933 0 01-7.098-2.937 9.952 9.952 0 01-2.947-7.096v-13.568H61.75v13.565c-.002 5.535-4.503 10.043-10.039 10.042"/><path fill="#fff" d="M31.205 92.022a7.82 7.82 0 007.831 7.837h5.333l.006 16.264c-.001 4.05 3.289 7.341 7.335 7.342a7.342 7.342 0 007.338-7.348l.001-16.259 9.909-.003-.001 16.263c.004 4.051 3.298 7.346 7.343 7.338 4.056.003 7.344-3.292 7.343-7.344l-.005-16.259 5.353-.001c4.319.001 7.832-3.508 7.832-7.837l-.009-47.635-65.621.012.012 47.63zm75.791-.91c-5.536.001-10.039-4.498-10.038-10.036l-.008-30.738c.002-5.537 4.498-10.041 10.031-10.041 5.54-.001 10.046 4.502 10.045 10.038l.003 30.736c.001 5.534-4.498 10.042-10.033 10.041m-.01-48.116c-4.053-.004-7.337 3.287-7.337 7.342l.003 30.737a7.336 7.336 0 007.342 7.34 7.338 7.338 0 007.338-7.343l-.008-30.736a7.335 7.335 0 00-7.338-7.34"/><path fill="#A4C439" d="M21.004 43.005c-4.053-.002-7.338 3.291-7.339 7.341l.005 30.736a7.338 7.338 0 007.342 7.343 7.33 7.33 0 007.338-7.342V50.342a7.345 7.345 0 00-7.346-7.337m59.192-27.602l5.123-9.355a1.023 1.023 0 00-.401-1.388 1.022 1.022 0 00-1.382.407l-5.175 9.453c-4.354-1.938-9.227-3.024-14.383-3.019-5.142-.005-10.013 1.078-14.349 3.005l-5.181-9.429a1.01 1.01 0 00-1.378-.406 1.007 1.007 0 00-.404 1.38l5.125 9.349c-10.07 5.193-16.874 15.083-16.868 26.438l66.118-.008c.003-11.351-6.789-21.221-16.845-26.427M48.94 29.86a2.772 2.772 0 01.003-5.545 2.78 2.78 0 012.775 2.774 2.775 2.775 0 01-2.778 2.771m30.107-.006a2.77 2.77 0 01-2.772-2.771 2.793 2.793 0 012.773-2.778 2.79 2.79 0 012.767 2.779 2.767 2.767 0 01-2.768 2.77M31.193 44.392l.011 47.635a7.822 7.822 0 007.832 7.831l5.333.002.006 16.264c-.001 4.05 3.291 7.342 7.335 7.342 4.056 0 7.342-3.295 7.343-7.347l-.004-16.26 9.909-.003.004 16.263c0 4.047 3.293 7.346 7.338 7.338 4.056.003 7.344-3.292 7.343-7.344l-.005-16.259 5.352-.004a7.835 7.835 0 007.836-7.834l-.009-47.635-65.624.011zm83.134 5.943a7.338 7.338 0 00-7.341-7.339c-4.053-.004-7.337 3.287-7.337 7.342l.006 30.738a7.334 7.334 0 007.339 7.339 7.337 7.337 0 007.338-7.343l-.005-30.737z"/></svg>