<svg xmlns="http://www.w3.org/2000/svg" viewBox="0 0 128 128"><path fill="#fff" d="M13.699 108.645h8.047v17.421h-3.492v-14.026l-3.116.012h-.749c-1.74 0-2.707.073-2.9.218-1.039.282-1.917.882-2.634 1.8-.772 1.104-1.159 2.203-1.159 3.298 0 1.353.523 2.598 1.57 3.733.701.668 1.305 1.071 1.813 1.208.507.258 1.381.387 2.621.387h2.429v3.371h-2.911c-2.159 0-3.983-.568-5.474-1.704-1.079-.854-1.8-1.627-2.162-2.319-.902-1.434-1.354-2.9-1.354-4.398v-.507c0-2.094.785-4.015 2.356-5.763.95-.926 1.728-1.51 2.331-1.752.436-.242 1.035-.471 1.801-.688.684-.195 1.679-.291 2.983-.291zM39.324 112.124c.346.467.596.866.749 1.196.226.395.438.926.641 1.595.241.806.362 1.901.362 3.286v7.865h-3.492v-8.24c0-2.771-1.252-4.623-3.757-5.557-.572-.161-1.075-.246-1.511-.254-.435.008-.934.093-1.498.254-2.505.934-3.757 2.787-3.757 5.557v8.24h-3.504v-7.865c0-1.385.121-2.48.362-3.286.201-.668.415-1.2.641-1.595.153-.338.406-.737.761-1.196 1.877-2.304 4.209-3.456 6.995-3.456 2.788 0 5.123 1.152 7.008 3.456zM49.122 108.657c2.345 0 3.689.052 4.036.157.95.113 2.021.512 3.213 1.196.652.403 1.346 1.019 2.078 1.848 1.305 1.619 1.957 3.459 1.957 5.521 0 1.208-.233 2.348-.7 3.419-.918 2.086-2.429 3.592-4.53 4.519-.975.5-2.473.749-4.494.749h-7.406l-.387-.073v-3.31h8.167c.87 0 1.542-.077 2.018-.229 1.265-.427 2.19-1.063 2.778-1.909.717-1.071 1.075-2.114 1.075-3.129 0-1.023-.31-2.03-.93-3.021-.387-.572-.813-1.006-1.28-1.305-.854-.701-2.074-1.051-3.661-1.051h-8.167v-3.383h6.233zM62.219 108.657h11.188c1.973 0 3.52.592 4.639 1.776.5.467.846.918 1.039 1.353.436.87.652 1.72.652 2.549v.495c0 1.273-.552 2.517-1.654 3.733-.709.676-1.354 1.111-1.934 1.305 1.466 1.563 2.199 3.628 2.199 6.198h-3.516v-.266c0-1.901-.77-3.411-2.308-4.531-.878-.62-2.026-.93-3.443-.93h-6.862v-3.359h11.405c1.248 0 2.094-.616 2.537-1.848.048-.25.08-.459.096-.628 0-.685-.285-1.305-.857-1.86-.491-.387-1.015-.58-1.57-.58 0-.032-.169-.048-.508-.048h-11.103v-3.359zM90.26 108.668h.12c2.675 0 4.958 1.096 6.851 3.286 1.225 1.643 1.836 3.431 1.836 5.364v.121c0 2.674-1.119 4.945-3.358 6.813-1.627 1.208-3.411 1.813-5.352 1.813h-.121c-2.658 0-4.934-1.087-6.826-3.262-.66-.926-1.123-1.776-1.39-2.549-.313-.967-.471-1.913-.471-2.839v-.121c0-2.626 1.083-4.873 3.25-6.742 1.466-1.047 2.803-1.635 4.011-1.764.37-.079.853-.12 1.45-.12zm-5.232 8.675c0 1.514.592 2.843 1.776 3.987 1.055.902 2.162 1.353 3.322 1.353h.338c.935 0 1.885-.318 2.852-.955.998-.733 1.675-1.667 2.029-2.803.112-.298.193-.81.241-1.534 0-1.482-.575-2.791-1.728-3.927-1.079-.958-2.263-1.438-3.552-1.438-1.506 0-2.843.628-4.011 1.885-.491.645-.802 1.192-.931 1.643-.223.629-.336 1.225-.336 1.789zM100.879 108.668h3.491v17.397h-3.491v-17.397zM112.489 108.657c2.344 0 3.688.052 4.035.157.95.113 2.021.512 3.213 1.196.652.403 1.346 1.019 2.078 1.848 1.305 1.619 1.957 3.459 1.957 5.521 0 1.208-.233 2.348-.7 3.419-.918 2.086-2.429 3.592-4.53 4.519-.975.5-2.473.749-4.494.749h-7.406l-.387-.073v-3.31h8.167c.87 0 1.542-.077 2.018-.229 1.265-.427 2.19-1.063 2.778-1.909.717-1.071 1.075-2.114 1.075-3.129 0-1.023-.31-2.03-.93-3.021-.387-.572-.813-1.006-1.28-1.305-.854-.701-2.074-1.051-3.661-1.051h-8.167v-3.383h6.234zM29.19 76.835c-4.484.002-8.128-3.646-8.129-8.13l-.001-24.891c-.001-4.479 3.642-8.127 8.121-8.128 2.178-.002 4.216.843 5.753 2.377 1.537 1.535 2.383 3.578 2.384 5.749l-.002 24.892c.005 2.169-.837 4.21-2.373 5.744-1.534 1.54-3.578 2.387-5.753 2.387M29.184 37.871c-3.282-.002-5.942 2.665-5.943 5.944l.004 24.889c.001 3.291 2.666 5.946 5.944 5.95 3.285-.004 5.946-2.66 5.943-5.949v-24.893c-.002-3.279-2.665-5.943-5.948-5.941"/><path fill="#fff" d="M92.942 39.104l-2.186-.001-53.54.007-2.186.001-.001-2.186c-.005-8.972 4.883-17.316 12.889-22.246l-3.112-5.682c-.38-.666-.476-1.509-.255-2.28.226-.771.757-1.434 1.469-1.813.412-.233.916-.363 1.424-.362 1.103 0 2.113.599 2.645 1.565l3.258 5.935c3.371-1.237 6.931-1.867 10.607-1.866 3.729-.001 7.307.629 10.691 1.871l3.253-5.944c.524-.965 1.541-1.565 2.642-1.564.496-.001.99.12 1.426.354.732.402 1.242 1.042 1.467 1.819.225.772.134 1.586-.258 2.293l-3.11 5.678c7.993 4.94 12.875 13.279 12.874 22.235l.003 2.186zM77.115 15.52l4.148-7.576c.221-.396.076-.903-.324-1.122-.405-.219-.906-.069-1.12.328l-4.191 7.652c-3.525-1.565-7.473-2.446-11.646-2.442-4.163-.004-8.104.873-11.619 2.434l-4.194-7.635c-.216-.402-.721-.549-1.117-.328-.402.215-.55.721-.327 1.117l4.149 7.569c-8.154 4.206-13.663 12.214-13.658 21.409l53.539-.006c.002-9.193-5.497-17.184-13.64-21.4m-25.309 11.707c-1.231-.002-2.237-1.005-2.237-2.243 0-1.234 1.004-2.247 2.24-2.247 1.24-.001 2.245 1.013 2.246 2.247 0 1.236-1.006 2.242-2.249 2.243m24.379-.005c-1.238.001-2.248-1-2.245-2.244 0-1.231 1.006-2.245 2.245-2.25 1.231.004 2.241 1.018 2.24 2.25.001 1.24-1.004 2.245-2.24 2.244M54.049 105.205c-4.48-.001-8.126-3.645-8.127-8.128l-.002-10.987-2.136.002c-2.282.001-4.422-.885-6.031-2.496-1.612-1.608-2.5-3.751-2.497-6.034l-.008-38.566v-2.188h2.186l53.138-.008 2.187-.001v2.186l.006 38.571c0 4.704-3.826 8.532-8.529 8.531l-2.148.001.002 10.981c0 4.481-3.646 8.129-8.124 8.129-2.171.004-4.209-.839-5.748-2.378-1.539-1.536-2.387-3.576-2.386-5.746v-10.986h-3.653v10.985c-.002 4.482-3.648 8.133-8.13 8.132"/><path fill="#fff" d="M37.444 77.563c-.003 3.512 2.832 6.347 6.341 6.346h4.318l.005 13.169c-.001 3.279 2.663 5.944 5.94 5.945 3.283 0 5.944-2.668 5.941-5.95v-13.165l8.024-.002-.001 13.168c.004 3.28 2.671 5.948 5.946 5.942 3.284.002 5.946-2.666 5.945-5.946l-.004-13.166 4.334-.001c3.498.001 6.343-2.84 6.343-6.346l-.007-38.573-53.136.009.011 38.57zM98.816 76.825c-4.483.001-8.13-3.642-8.129-8.126l-.006-24.89c.001-4.484 3.642-8.131 8.122-8.131 4.486-.001 8.135 3.646 8.135 8.128l.002 24.889c.001 4.481-3.642 8.131-8.124 8.13M98.809 37.863c-3.282-.003-5.941 2.662-5.941 5.945l.002 24.889c.002 3.287 2.661 5.946 5.945 5.943 3.282 0 5.939-2.657 5.941-5.946l-.006-24.889c-.001-3.282-2.658-5.943-5.941-5.942"/><path fill="#A4C439" d="M29.184 37.871c-3.282-.002-5.942 2.665-5.943 5.944l.004 24.889c.001 3.291 2.663 5.946 5.945 5.946 3.284 0 5.945-2.656 5.942-5.945v-24.893c-.002-3.279-2.665-5.943-5.948-5.941m47.931-22.351l4.148-7.576c.221-.396.075-.9-.325-1.124-.405-.214-.905-.069-1.119.33l-4.19 7.655c-3.526-1.569-7.471-2.449-11.646-2.444-4.163-.004-8.107.873-11.619 2.434l-4.194-7.635c-.218-.402-.72-.548-1.116-.329-.403.217-.551.722-.328 1.117l4.149 7.57c-8.154 4.206-13.663 12.214-13.658 21.409l53.539-.006c.001-9.194-5.498-17.185-13.641-21.401m-25.309 11.707c-1.231-.002-2.237-1.005-2.237-2.243 0-1.234 1.003-2.248 2.24-2.247 1.24-.001 2.245 1.013 2.246 2.247 0 1.236-1.006 2.242-2.249 2.243m24.379-.005c-1.238.001-2.245-1.002-2.245-2.244.005-1.23 1.006-2.245 2.245-2.25 1.231.004 2.241 1.018 2.24 2.25.003 1.24-1.004 2.245-2.24 2.244m-38.75 11.771l.008 38.572c-.002 3.509 2.836 6.341 6.342 6.341l4.318.001.005 13.169c-.001 3.279 2.665 5.945 5.94 5.945 3.283 0 5.944-2.668 5.945-5.949l-.003-13.164 8.024-.002.003 13.168c0 3.277 2.667 5.948 5.942 5.942 3.284.002 5.946-2.666 5.945-5.946l-.004-13.166 4.334-.003c3.498.001 6.343-2.834 6.345-6.344l-.007-38.572-53.137.008zm67.317 4.813c0-3.283-2.66-5.944-5.943-5.943-3.282-.003-5.941 2.662-5.941 5.945l.005 24.89c-.001 3.286 2.658 5.942 5.942 5.942 3.282 0 5.941-2.657 5.941-5.946l-.004-24.888z"/></svg>