<svg xmlns="http://www.w3.org/2000/svg" viewBox="0 0 128 128"><path fill="#127EFF" d="M55.3 47v4.47h.85v-2.2a2.4 2.4 0 0 1 .86-.27c.19 0 .26.08.26.25v2.21l.8-.02v-2.29c0-.57-.19-.94-.74-.94a3 3 0 0 0-1.2.31v-1.4zm-49.82.02L1 49.63v3.21l10.08 24.49 6.35 3.66 6.4-3.69 10.03-24.56v-3.11l-7.47 4.35v-.01l7.47-4.34-4.48-2.61-7.47 4.37v2.98l-4.48 10.46-4.48-10.46v-2.95l-.024-.016.023-.013zm39.76.05v4.39h.85v-1.83h1.67v1.83h.85v-4.39h-.85v1.84h-1.67v-1.84zm16.64 0c-1.12 0-1.6.46-1.6 1.25v1.96c0 .79.48 1.25 1.6 1.25a5.3 5.3 0 0 0 1.23-.14l-.09-.71a7 7 0 0 1-1.1.11c-.59 0-.78-.2-.78-.66v-1.66c0-.47.19-.66.78-.66a7 7 0 0 1 1.1.11l.09-.71a5.3 5.3 0 0 0-1.23-.14m-3.09.01v.77h.83v-.77zm-5.15 1.14c-.94 0-1.23.3-1.23.92s.09.81.9 1c.58.13.58.18.58.42s-.05.32-.42.32a3.8 3.8 0 0 1-1-.14l-.12.6a4 4 0 0 0 1.132.178c.978-.004 1.217-.352 1.217-.998 0-.65-.08-.77-1-1-.47-.11-.469-.19-.469-.38s.06-.27.42-.27a6 6 0 0 1 .91.09l.08-.63a4.5 4.5 0 0 0-1-.11m-.158 3.298-.011.002h.02zM64.93 48.22c-1.14 0-1.44.6-1.44 1.25v.799c0 .647.308 1.244 1.426 1.25 1.085-.003 1.423-.592 1.443-1.25v-.8c0-.65-.29-1.25-1.43-1.25m3.69 0a3.8 3.8 0 0 0-.87.42l-.05-.352H67v3.121h.82v-2a6.6 6.6 0 0 1 .87-.46zm2.32.01a1.8 1.8 0 0 0-1 .33l-.08-.272h-.66v4.56l.83-.119v-1.29a4.7 4.7 0 0 0 .88.09A1 1 0 0 0 72 50.41l-.06-1.08c0-.72-.34-1.1-1-1.1m-20.52.019a4.5 4.5 0 0 0-1.13.15l.1.6a5 5 0 0 1 .91-.1c.53 0 .63.12.63.47v.33h-.79c-.71 0-1 .35-1 .89s.26.94.86.94a1.86 1.86 0 0 0 1-.28l.08.21h.68v-2.07c0-.79-.34-1.14-1.34-1.14m8.37.04v3.17h.83v-3.17zm6.14.61-.02.01c.44 0 .61.18.63.54v.85c0 .36-.17.55-.61.55s-.61-.19-.61-.55v-.85c0-.36.17-.55.61-.55m5.8.01c.31 0 .41.14.41.4v1.12c0 .28-.11.42-.41.42a4 4 0 0 1-.73-.08l-.01-1.57a1.2 1.2 0 0 1 .74-.29M50.3 50.26h.63l-.03.47a1.34 1.34 0 0 1-.62.16c-.26 0-.33-.08-.33-.32s.08-.31.35-.31m-39.255 2.228L8.47 53.98v-.01zM45.23 55l5.42 18.11h5.06L61.12 55h-3.56l-4.38 15.1L48.8 55zm78.38 1.11-3.32.46v3.29h-2v2.64h2v7.38c0 2.37 1.22 3.51 3.64 3.51a9.2 9.2 0 0 0 2.91-.52l-.38-2.53a6.4 6.4 0 0 1-1.66.27 1 1 0 0 1-1.2-1.17V62.5h3.18l.22-2.64h-3.39zm-57.98 3.46a17.3 17.3 0 0 0-4.54.63l.41 2.53a18.5 18.5 0 0 1 3.67-.41c2.12 0 2.53.53 2.53 2v1.39h-3.17c-2.69 0-3.86 1.04-3.86 3.73 0 2.28 1.03 3.94 3.45 3.94a7.25 7.25 0 0 0 3.94-1.17l.24.9H71l.02-8.75c0-3.32-1.23-4.79-5.39-4.79m12.48.02c-3.83 0-5.28 1.66-5.33 4.41v1.24a3.85 3.85 0 0 0 1.8 3.56 2.81 2.81 0 0 0-1.39 2.26c0 1.69.73 2.31 2.61 2.53l3.84.44c1.01.06 1.25.19 1.25 1.06s-.52 1.06-3.16 1.06a18.4 18.4 0 0 1-4.46-.57l-.41 2.48a19.3 19.3 0 0 0 5.11.68c5 0 6-1.11 6-3.94 0-1.9-.68-2.97-2.83-3.21l-3.84-.41c-.51-.05-.73-.22-.73-.57a1.43 1.43 0 0 1 .79-1.06 7 7 0 0 0 .76.03c3.7 0 5.33-1.64 5.33-4.33V64a4.54 4.54 0 0 0-.45-2.07l1.45-.41v-1.66h-4.08a9 9 0 0 0-2.26-.27m14.37 0A14.8 14.8 0 0 0 89 61.33l-.2-1.47H86v13.25h3.27v-8.54a26 26 0 0 1 3.51-1.93zm6.06 0a17.3 17.3 0 0 0-4.54.63l.39 2.51a18.5 18.5 0 0 1 3.67-.41c2.12 0 2.53.53 2.53 2v1.39h-3.18c-2.69 0-3.86 1.04-3.86 3.73 0 2.28 1.03 3.94 3.45 3.94a7.25 7.25 0 0 0 3.92-1.17l.24.9h2.72l.05-8.73c0-3.32-1.23-4.79-5.39-4.79m15.54 0a13.3 13.3 0 0 0-5.3 1.39l-.33-1.12h-2.53v13.25h3.32v-9.19a9.15 9.15 0 0 1 3.45-1.12c.76 0 1.06.35 1.06 1.06v9.25h3.33v-9.6c0-2.37-.8-3.92-3-3.92m-35.96 2.67c1.66 0 2.23.6 2.23 1.85v1c0 1.28-.68 1.8-2.23 1.8s-2.2-.49-2.2-1.8v-1c0-1.25.57-1.85 2.2-1.85m-12.87 5.85h2.43l.01 1.96a5.2 5.2 0 0 1-2.5.68c-1.03 0-1.33-.32-1.33-1.33s.3-1.31 1.39-1.31m32.86 0h2.45l-.01 1.96a5.2 5.2 0 0 1-2.5.68c-1.03 0-1.33-.32-1.33-1.33s.3-1.31 1.39-1.31"/></svg>
