<svg viewBox="0 0 128 128" xmlns="http://www.w3.org/2000/svg"><g clip-path="url(#a)" fill-rule="evenodd" clip-rule="evenodd"><path d="M112.017 119.44c8.837 0 16-7.163 16-16s-7.163-16-16-16-16 7.163-16 16 7.163 16 16 16Zm0-7a9 9 0 1 0 0-18 9 9 0 0 0 0 18Zm-49.757 6.501-7.084-1.69V88.733l7.083-1.349v31.557Zm-25.515-1.673 6.963 1.451v-19.2c0-9.216-7.185-12.459-12.135-12.459-3.26 0-5.956.785-8.311 3.14-2.475-2.355-5.393-3.26-7.748-3.26-3.482 0-6.4 1.451-8.431 3.926v-3.26L0 88.955v28.296l7.083 1.451V99.297c0-3.14 2.252-5.273 5.717-5.273 3.26 0 5.615 2.133 5.615 5.273v17.971l6.963 1.451V99.297c0-3.14 2.355-5.273 5.735-5.273 3.26 0 5.614 2.133 5.614 5.273l.018 17.971Zm53.708-30.31-4.164.563c-7.748 1.792-12.8 4.267-12.8 12.8v16.947l7.083 1.349v-17.289c0-3.925 2.252-5.734 5.734-6.4l4.164-.666-.017-7.304Zm-34.935-11.69a4.399 4.399 0 0 0 0 6.177c1.724 1.775 4.574 1.792 6.332.069l.068-.069a4.399 4.399 0 0 0 0-6.178c-1.81-1.69-4.608-1.69-6.4 0ZM40.843 8.704c-6.628 0-12 5.373-12 12v33.685c0 6.628 5.372 12 12 12h33.856c6.627 0 12-5.372 12-12V20.704c0-6.627-5.373-12-12-12H40.843Zm21.91 7.134h6.332l11.606 7.202-11.606 36.062h-6.331l5.273-32.956-11.605 32.956H50.09l5.803-30.908-12.135 30.908h-6.331l6.331-28.843-6.331-14.421h6.331L55.893 27.17 50.09 15.838h6.332l11.605 9.267-5.273-9.267Z"/></g></svg>