<svg xmlns="http://www.w3.org/2000/svg" viewBox="0 0 128 128"><path fill="#69b53f" d="M15.473 48.527C6.942 48.527 0 55.47 0 64s6.942 15.473 15.473 15.473c8.53 0 15.472-6.942 15.472-15.473 0-8.53-6.942-15.473-15.472-15.473m22.324 5.682-2.1.361v14.08q0 1.67.813 2.46.812.788 2.754.833l.293-1.76a7 7 0 0 1-.836-.158 1.35 1.35 0 0 1-.541-.314 1.2 1.2 0 0 1-.293-.543 3.4 3.4 0 0 1-.09-.857zm4.902.902q-.565.001-.97.385-.384.36-.383.992 0 .632.383 1.016.406.36.97.361c.564.001.692-.12.947-.361q.407-.384.407-1.016 0-.63-.407-.992a1.3 1.3 0 0 0-.947-.385m61.18 0q-.564.001-.97.385-.386.36-.386.992.001.632.385 1.016.407.36.97.361.565 0 .948-.361.405-.384.406-1.016 0-.63-.406-.992a1.3 1.3 0 0 0-.947-.385M7.012 56.143h2.416V67.02a2.4 2.4 0 0 0 2.418 2.418H19.1a2.4 2.4 0 0 0 2.416-2.418v-6.04c0-.682-.527-1.21-1.21-1.21a1.19 1.19 0 0 0-1.206 1.21v6.042h-2.418V60.98c0-.682-.527-1.21-1.21-1.21-.681 0-1.208.528-1.208 1.21v6.042h-2.418V60.98a3.646 3.646 0 0 1 3.627-3.627 3.6 3.6 0 0 1 2.418.95 3.6 3.6 0 0 1 2.416-.95 3.646 3.646 0 0 1 3.627 3.627v6.042c0 2.657-2.178 4.836-4.834 4.836h-7.254c-2.656 0-4.834-2.18-4.834-4.836zm115.908.209-2.1.36v10.472q.001 1.173.182 2.076.202.879.676 1.488.474.61 1.242.926.789.293 1.984.293 1.016 0 1.807-.248.79-.226 1.105-.385l-.406-1.736q-.225.09-.812.316-.564.203-1.512.203a3 3 0 0 1-.947-.137 1.5 1.5 0 0 1-.678-.45q-.27-.339-.406-.903-.135-.587-.135-1.467v-5.414h4.445v-1.762h-4.445zm-71.121 3.384q-1.558 0-2.754.203t-1.918.385V71.72h2.1v-9.906q.112-.023.36-.067.271-.045.587-.068a10 10 0 0 1 1.398-.09q.837 0 1.4.224.565.204.903.678t.473 1.24q.158.768.158 1.852v6.137h2.1v-6.59a10 10 0 0 0-.227-2.19q-.225-.993-.79-1.693-.541-.722-1.466-1.105-.926-.407-2.324-.407zm36.504 0q-1.557 0-2.752.203-1.174.204-1.897.385V71.72h2.098v-9.906q.09-.023.361-.067.272-.045.588-.068a10 10 0 0 1 1.375-.09q.745 0 1.219.248.496.225.767.72.294.498.407 1.243.113.744.113 1.783v6.137h2.098v-6.59q0-.767-.09-1.467a8 8 0 0 0-.272-1.287q.25-.226.926-.496.7-.293 1.76-.293.767 0 1.242.248.495.225.766.72.293.498.384 1.243.113.744.112 1.783v6.137h2.1V65.13q-.001-1.174-.182-2.168-.159-.993-.655-1.715-.472-.722-1.33-1.105-.857-.407-2.21-.407a5.2 5.2 0 0 0-1.31.159q-.608.135-1.105.34-.496.18-.836.382-.337.204-.496.317a3.2 3.2 0 0 0-1.287-.881q-.766-.316-1.894-.317zm24.676 0q-1.558 0-2.754.203a27 27 0 0 0-1.918.385V71.72h2.1v-9.906q.11-.023.359-.067.27-.045.588-.068a10 10 0 0 1 1.398-.09q.835 0 1.398.224.564.204.903.678.338.474.474 1.24.159.768.159 1.852v6.137h2.097v-6.59q0-1.196-.224-2.19-.225-.993-.79-1.693-.541-.722-1.466-1.105-.926-.407-2.324-.407zm-71.319.248V71.72h2.1V59.984zm17.922 0v6.59q0 1.195.248 2.188.249.971.813 1.693.563.722 1.488 1.129.926.383 2.28.383 1.556 0 2.73-.203a27 27 0 0 0 1.918-.383V59.984h-2.1v9.907a2 2 0 0 1-.383.09q-.248.023-.564.068-.315.023-.676.045-.362.023-.701.023-1.601 0-2.278-.926-.676-.924-.677-3.068v-6.139zm11.522 0 3.88 5.575a95 95 0 0 0-2.19 3.046 29 29 0 0 0-1.872 3.114h2.166q.248-.474.61-1.084.36-.61.767-1.24.428-.655.879-1.288.451-.653.88-1.216.429.564.88 1.195t.88 1.285q.429.632.79 1.242.36.61.609 1.106h2.303a25.5 25.5 0 0 0-1.942-3.182 108 108 0 0 0-2.21-3.113l3.79-5.44H79.09l-2.82 4.108-2.797-4.108zm31.736 0V71.72h2.1V59.984z"/></svg>
