<?xml version="1.0" encoding="UTF-8" standalone="no"?>
<svg
   width="128"
   height="128"
   viewBox="0 0 128 128"
   version="1.1"
   id="svg9"
   sodipodi:docname="Less.svg"
   inkscape:version="1.3.2 (091e20e, 2023-11-25, custom)"
   xmlns:inkscape="http://www.inkscape.org/namespaces/inkscape"
   xmlns:sodipodi="http://sodipodi.sourceforge.net/DTD/sodipodi-0.dtd"
   xmlns="http://www.w3.org/2000/svg"
   xmlns:svg="http://www.w3.org/2000/svg"
   xmlns:rdf="http://www.w3.org/1999/02/22-rdf-syntax-ns#"
   xmlns:cc="http://creativecommons.org/ns#"
   xmlns:dc="http://purl.org/dc/elements/1.1/">
  <sodipodi:namedview
     id="namedview9"
     pagecolor="#ffffff"
     bordercolor="#111111"
     borderopacity="1"
     inkscape:showpageshadow="0"
     inkscape:pageopacity="0"
     inkscape:pagecheckerboard="1"
     inkscape:deskcolor="#d1d1d1"
     inkscape:zoom="4.2592135"
     inkscape:cx="46.135278"
     inkscape:cy="53.413617"
     inkscape:window-width="1920"
     inkscape:window-height="1009"
     inkscape:window-x="-8"
     inkscape:window-y="-8"
     inkscape:window-maximized="1"
     inkscape:current-layer="svg9" />
  <defs
     id="defs3">
    <linearGradient
       id="a"
       x1="-3.609"
       y1="-492.685"
       x2="-3.609"
       y2="-480.271"
       gradientTransform="matrix(4.5306704,0,0,4.5306704,80.813315,2268.0692)"
       gradientUnits="userSpaceOnUse">
      <stop
         offset="0.15"
         stop-color="#2a4f84"
         id="stop1" />
      <stop
         offset="0.388"
         stop-color="#294e82"
         id="stop2" />
      <stop
         offset="1"
         stop-color="#172e4e"
         id="stop3" />
    </linearGradient>
  </defs>
  <title
     id="title3">file_type_less</title>
  <path
     d="M 120.89617,81.273181 A 10.873609,10.873609 0 0 1 110.04973,92.119607 H 18.86999 A 10.873609,10.873609 0 0 1 8.0235656,81.273181 V 46.722288 A 10.873609,10.873609 0 0 1 18.86999,35.875862 h 91.17974 a 10.873609,10.873609 0 0 1 10.84644,10.846426 z"
     style="fill:url(#a);stroke-width:4.53067"
     id="path3" />
  <path
     d="m 101.82204,63.259235 a 8.9344823,8.9344823 0 0 1 7.1494,8.567498 7.6568332,7.6568332 0 0 1 -2.95853,6.342939 13.292987,13.292987 0 0 1 -8.436111,2.532645 20.650796,20.650796 0 0 1 -10.153233,-2.799954 8.9979117,8.9979117 0 0 1 0.724908,-3.031019 8.291127,8.291127 0 0 1 1.585734,-2.609666 16.763481,16.763481 0 0 0 7.471077,2.23362 4.3720971,4.3720971 0 0 0 2.310643,-0.507435 1.5358973,1.5358973 0 0 0 0.806462,-1.359201 q 0,-1.599326 -2.473751,-2.396724 L 94.890112,69.112861 Q 88.175658,66.666299 88.175658,61.12982 a 7.9422655,7.9422655 0 0 1 2.822607,-6.41543 11.720845,11.720845 0 0 1 7.602463,-2.935874 23.079236,23.079236 0 0 1 5.210282,0.666008 20.637204,20.637204 0 0 1 4.67565,2.138477 7.5571585,7.5571585 0 0 1 -0.589,3.271144 5.5274181,5.5274181 0 0 1 -1.72164,2.528115 19.305187,19.305187 0 0 0 -7.520922,-2.020679 2.4646848,2.4646848 0 0 0 -1.640102,0.480251 1.5313666,1.5313666 0 0 0 -0.561803,1.22328 q 0,1.27765 2.043335,2.020679 l 3.334572,1.173444 z"
     style="fill:#f6f6f6;stroke-width:4.53067"
     id="path4" />
  <path
     d="m 78.040548,63.259235 a 8.9344823,8.9344823 0 0 1 7.144867,8.567498 7.6613639,7.6613639 0 0 1 -2.953997,6.342939 13.306579,13.306579 0 0 1 -8.436108,2.532645 20.659857,20.659857 0 0 1 -10.153233,-2.799954 8.9752583,8.9752583 0 0 1 0.724907,-3.031019 8.2503511,8.2503511 0 0 1 1.585735,-2.609666 16.763481,16.763481 0 0 0 7.471076,2.23362 4.3630357,4.3630357 0 0 0 2.310641,-0.507435 1.540428,1.540428 0 0 0 0.80646,-1.359201 q 0,-1.599326 -2.473746,-2.396724 L 71.108622,69.112861 Q 64.394169,66.666299 64.394169,61.12982 a 7.9377348,7.9377348 0 0 1 2.822607,-6.41543 11.711783,11.711783 0 0 1 7.597935,-2.935874 23.052052,23.052052 0 0 1 5.210271,0.666008 20.623612,20.623612 0 0 1 4.675652,2.138477 7.5571585,7.5571585 0 0 1 -0.588988,3.271144 5.5274181,5.5274181 0 0 1 -1.721655,2.528115 19.314248,19.314248 0 0 0 -7.525443,-2.020679 2.4601541,2.4601541 0 0 0 -1.640103,0.480251 1.5358973,1.5358973 0 0 0 -0.561803,1.22328 q 0,1.27765 2.043332,2.020679 z"
     style="fill:#f6f6f6;stroke-width:4.53067"
     id="path5" />
  <path
     d="m 60.660896,63.635281 a 12.785552,12.785552 0 0 0 -0.779275,-4.53067 10.144171,10.144171 0 0 0 -2.22909,-3.565638 10.329929,10.329929 0 0 0 -3.520332,-2.342357 12.400445,12.400445 0 0 0 -4.648467,-1.42263 12.685878,12.685878 0 0 0 -5.346191,1.635571 10.221192,10.221192 0 0 0 -3.760457,2.926814 12.527304,12.527304 0 0 0 -2.206437,4.390219 19.93495,19.93495 0 0 0 -0.724907,5.509296 25.738739,25.738739 0 0 0 0.588987,5.695052 11.906602,11.906602 0 0 0 2.016149,4.530671 9.5461228,9.5461228 0 0 0 3.706088,2.976651 13.297518,13.297518 0 0 0 5.667869,1.254996 17.90521,17.90521 0 0 0 10.529278,-3.225838 8.4497006,8.4497006 0 0 0 -2.192845,-4.897655 28.035789,28.035789 0 0 1 -3.882784,1.187035 14.534391,14.534391 0 0 1 -2.97212,0.357924 4.6076919,4.6076919 0 0 1 -3.692496,-1.313894 5.377906,5.377906 0 0 1 -1.227812,-3.488617 h 13.968057 a 20.147892,20.147892 0 0 0 0.706785,-5.67693 z m -14.715618,0.366984 a 11.023121,11.023121 0 0 1 0.987686,-4.530671 2.8633838,2.8633838 0 0 1 2.532645,-1.196097 2.9902426,2.9902426 0 0 1 2.63685,1.277649 7.9241428,7.9241428 0 0 1 0.878951,3.878255 v 0.588987 h -7.036132 z"
     style="fill:#f6f6f6;stroke-width:4.53067"
     id="path6" />
  <path
     d="m 123.70971,67.563372 a 7.2717262,7.2717262 0 0 0 -2.40125,5.731299 v 9.292405 a 8.2005137,8.2005137 0 0 1 -3.09445,7.054254 12.685878,12.685878 0 0 1 -7.49373,2.487338 h -1.68994 v -4.65753 a 5.6225621,5.6225621 0 0 0 2.69575,-1.513244 6.2024879,6.2024879 0 0 0 1.89835,-4.743611 v -7.507322 a 11.530556,11.530556 0 0 1 1.16438,-5.994076 11.326677,11.326677 0 0 1 5.4368,-3.796702 11.453535,11.453535 0 0 1 -5.9986,-5.341661 13.392662,13.392662 0 0 1 -0.61164,-5.278231 v -6.877558 a 6.6057176,6.6057176 0 0 0 -1.65823,-4.775327 5.2193325,5.2193325 0 0 0 -2.93587,-1.422631 v -4.349443 c 2.01615,0 3.03101,0 4.20446,0 a 7.5934038,7.5934038 0 0 1 4.63487,2.002556 9.0613411,9.0613411 0 0 1 3.04915,4.571447 10.556463,10.556463 0 0 1 0.38963,3.17147 v 7.960387 a 8.3636178,8.3636178 0 0 0 2.26534,6.265918 9.5733068,9.5733068 0 0 0 3.86919,2.170191 v 3.597352 a 8.8030929,8.8030929 0 0 0 -3.71515,1.930066 z"
     style="fill:#f6f6f6;stroke:#404040;stroke-width:1.13266px;stroke-miterlimit:10"
     id="path7" />
  <path
     d="m 16.849311,35.875862 h -1.513244 a 7.5798118,7.5798118 0 0 0 -4.634875,2.002557 7.7474466,7.7474466 0 0 0 -3.0491414,4.571446 15.997798,15.997798 0 0 0 -0.1721654,3.17147 v 7.960388 a 8.4587619,8.4587619 0 0 1 -2.4692155,6.27951 12.898819,12.898819 0 0 1 -4.4445878,2.161129 v 3.592822 a 11.562272,11.562272 0 0 1 4.290545,1.930066 7.4212383,7.4212383 0 0 1 2.6141969,5.731298 v 9.292405 a 8.0691243,8.0691243 0 0 0 2.8815062,7.058785 12.685878,12.685878 0 0 0 7.493729,2.491869 h 1.907413 V 87.471138 A 6.6600857,6.6600857 0 0 1 16.84025,85.957894 6.1390586,6.1390586 0 0 1 15.159372,81.214283 V 73.711492 A 11.399167,11.399167 0 0 0 13.777517,67.717415 11.326677,11.326677 0 0 0 8.3407131,63.920713 11.458066,11.458066 0 0 0 14.33932,58.583584 12.944126,12.944126 0 0 0 15.168433,53.305352 v -6.882088 a 6.6238403,6.6238403 0 0 1 1.436222,-4.775327 5.9487704,5.9487704 0 0 1 2.605136,-1.227812 h 1.939127 v -4.544263 z"
     style="fill:#f6f6f6;stroke:#404040;stroke-width:1.13266px;stroke-miterlimit:10"
     id="path8" />
  <path
     d="m 34.713746,73.584634 h -1.449815 c -1.576673,0 -2.170192,-0.829114 -2.170192,-2.4964 V 40.465431 a 5.6905222,5.6905222 0 0 0 -1.214218,-3.878253 c -0.679601,-0.74303 -1.862107,-0.733969 -3.547516,-0.733969 h -3.275674 -0.385108 v 36.725616 a 8.4950072,8.4950072 0 0 0 1.594797,5.618031 6.5286962,6.5286962 0 0 0 5.187617,1.780554 35.60654,35.60654 0 0 0 5.749421,-0.534619 10.103396,10.103396 0 0 0 0.163104,-2.306112 10.320868,10.320868 0 0 0 -0.643355,-3.542984 z"
     style="fill:#f6f6f6;stroke-width:4.53067"
     id="path9" />
  <metadata
     id="metadata9">
    <rdf:RDF>
      <cc:Work
         rdf:about="">
        <dc:title>file_type_less</dc:title>
      </cc:Work>
    </rdf:RDF>
  </metadata>
</svg>
