<?xml version="1.0" encoding="UTF-8" standalone="no"?>
<svg
   xmlns:dc="http://purl.org/dc/elements/1.1/"
   xmlns:cc="http://creativecommons.org/ns#"
   xmlns:rdf="http://www.w3.org/1999/02/22-rdf-syntax-ns#"
   xmlns:svg="http://www.w3.org/2000/svg"
   xmlns="http://www.w3.org/2000/svg"
   version="1.1"
   viewBox="0 0 128 128"
   id="svg10">
  <metadata
     id="metadata16">
    <rdf:RDF>
      <cc:Work
         rdf:about="">
        <dc:format>image/svg+xml</dc:format>
        <dc:type
           rdf:resource="http://purl.org/dc/dcmitype/StillImage" />
        <dc:title></dc:title>
      </cc:Work>
    </rdf:RDF>
  </metadata>
  <defs
     id="defs14" />
  <g
     transform="matrix(3.0509 0 0 3.0509 -2.2333 -1.8458)"
     fill="none"
     fill-rule="evenodd"
     id="g8">
    <path
       style="color:#000000;font-style:normal;font-variant:normal;font-weight:normal;font-stretch:normal;font-size:medium;line-height:normal;font-family:sans-serif;font-variant-ligatures:normal;font-variant-position:normal;font-variant-caps:normal;font-variant-numeric:normal;font-variant-alternates:normal;font-variant-east-asian:normal;font-feature-settings:normal;font-variation-settings:normal;text-indent:0;text-align:start;text-decoration:none;text-decoration-line:none;text-decoration-style:solid;text-decoration-color:#000000;letter-spacing:normal;word-spacing:normal;text-transform:none;writing-mode:lr-tb;direction:ltr;text-orientation:mixed;dominant-baseline:auto;baseline-shift:baseline;text-anchor:start;white-space:normal;shape-padding:0;shape-margin:0;inline-size:0;clip-rule:nonzero;display:inline;overflow:visible;visibility:visible;isolation:auto;mix-blend-mode:normal;color-interpolation:sRGB;color-interpolation-filters:linearRGB;solid-color:#000000;solid-opacity:1;vector-effect:none;fill:#010101;fill-opacity:1;fill-rule:nonzero;stroke:none;stroke-linecap:butt;stroke-linejoin:miter;stroke-miterlimit:4;stroke-dasharray:none;stroke-dashoffset:0;stroke-opacity:1;color-rendering:auto;image-rendering:auto;shape-rendering:auto;text-rendering:auto;enable-background:accumulate;stop-color:#000000;stop-opacity:1;opacity:1"
       d="M 21.693359 0.60546875 C 10.137647 0.60546875 0.73242188 10.010693 0.73242188 21.566406 C 0.73242188 33.122119 10.137647 42.527344 21.693359 42.527344 C 33.249072 42.527344 42.654297 33.122119 42.654297 21.566406 C 42.654297 10.010693 33.249072 0.60546875 21.693359 0.60546875 z M 21.693359 4.1054688 C 31.357532 4.1054688 39.154297 11.902234 39.154297 21.566406 C 39.154297 31.230579 31.357532 39.027344 21.693359 39.027344 C 12.029187 39.027344 4.2324219 31.230579 4.2324219 21.566406 C 4.2324219 11.902234 12.029187 4.1054688 21.693359 4.1054688 z "
       id="circle2" />
    <path
       d="m16.593 20.506c4.59-3.75 9.08-7.63 13.77-11.27-2.46 3.78-4.99 7.51-7.45 11.29-2.11 0.01-4.22 0.01-6.32-0.02z"
       fill="#010101"
       id="path4" />
    <path
       d="m20.473 22.596c2.12 0 4.23 0 6.34 0.03-4.62 3.73-9.09 7.64-13.79 11.27 2.46-3.78 4.99-7.52 7.45-11.3z"
       fill="#010101"
       id="path6" />
  </g>
</svg>
