<svg version="1.1" xmlns="http://www.w3.org/2000/svg" xmlns:xlink="http://www.w3.org/1999/xlink" viewBox="0 0 128 128">
<path fill-rule="evenodd" clip-rule="evenodd" fill="#CB6699" d="M1.219,56.156c0,0.703,0.207,1.167,0.323,1.618
	c0.756,2.933,2.381,5.45,4.309,7.746c2.746,3.272,6.109,5.906,9.554,8.383c2.988,2.148,6.037,4.248,9.037,6.38
	c0.515,0.366,1.002,0.787,1.561,1.236c-0.481,0.26-0.881,0.489-1.297,0.7c-3.959,2.008-7.768,4.259-11.279,6.986
	c-2.116,1.644-4.162,3.391-5.607,5.674c-2.325,3.672-3.148,7.584-1.415,11.761c0.506,1.22,1.278,2.274,2.367,3.053
	c0.353,0.252,0.749,0.502,1.162,0.6c1.058,0.249,2.136,0.412,3.207,0.609c1.011-0.001,2.022-0.002,3.033-0.002
	c3.354-0.299,6.407-1.448,9.166-3.352c4.312-2.976,7.217-6.966,8.466-12.087c0.908-3.722,0.945-7.448-0.125-11.153
	c-0.099-0.344-0.224-0.681-0.354-1.014c-0.13-0.333-0.283-0.657-0.463-1.072c2.29-1.317,4.583-2.636,6.876-3.954
	c0.034,0.029,0.068,0.058,0.103,0.088c-0.125,0.409-0.258,0.817-0.371,1.23c-0.817,2.984-1.36,6.02-1.165,9.117
	c0.208,3.3,1.129,6.389,3.061,9.146c1.562,2.23,5.284,2.313,6.944,0.075c0.589-0.795,1.16-1.626,1.589-2.513
	c1.121-2.315,2.159-4.671,3.23-7.011c0.046-0.101,0.088-0.202,0.187-0.428c-0.077,1.108-0.167,2.081-0.208,3.055
	c-0.064,1.521,0.025,3.033,0.545,4.48c0.445,1.238,1.202,2.163,2.62,2.326c0.97,0.111,1.743-0.333,2.456-0.896
	c1.114-0.879,2.019-1.965,2.691-3.199c1.901-3.491,3.853-6.961,5.576-10.54c1.864-3.871,3.494-7.855,5.225-11.792
	c0.096-0.216,0.18-0.438,0.286-0.698c0.409,1.607,0.694,3.181,1.219,4.671c0.61,1.729,1.365,3.417,2.187,5.058
	c0.389,0.775,0.344,1.278-0.195,1.928c-2.256,2.72-4.473,5.473-6.692,8.223c-0.491,0.607-0.98,1.225-1.389,1.888
	c-0.247,0.403-0.411,0.894-0.48,1.364c-0.133,0.898,0.422,1.764,1.383,1.971c0.878,0.189,1.813,0.259,2.708,0.193
	c3.097-0.228,5.909-1.315,8.395-3.157c3.221-2.386,4.255-5.642,3.475-9.501c-0.211-1.047-0.584-2.065-0.947-3.074
	c-0.163-0.455-0.174-0.774,0.123-1.198c2.575-3.677,4.775-7.578,6.821-11.569c0.081-0.157,0.164-0.314,0.306-0.482
	c0.663,3.45,1.661,6.775,3.449,9.792c-0.912,0.879-1.815,1.676-2.632,2.554c-1.799,1.934-3.359,4.034-4.173,6.595
	c-0.35,1.104-0.619,2.226-0.463,3.405c0.242,1.831,1.742,3.021,3.543,2.604c3.854-0.892,7.181-2.708,9.612-5.925
	c1.636-2.166,1.785-4.582,1.1-7.113c-0.188-0.688-0.411-1.365-0.651-2.154c0.951-0.295,1.878-0.649,2.837-0.868
	c4.979-1.136,9.904-0.938,14.702,0.86c2.801,1.05,5.064,2.807,6.406,5.571c1.639,3.379,0.733,6.585-2.452,8.721
	c-0.297,0.199-0.637,0.356-0.883,0.605c-0.151,0.153-0.242,0.459-0.205,0.67c0.021,0.123,0.346,0.277,0.533,0.275
	c1.047-0.008,1.896-0.557,2.711-1.121c2.042-1.413,3.532-3.314,3.853-5.817c0.008-0.071,0.008-0.071,0.063-0.188
	c0-0.555-0.077-1.076-0.077-1.63c-0.031-0.094,0.023-0.187,0.016-0.258c-0.434-3.645-2.381-6.472-5.213-8.688
	c-3.28-2.565-7.153-3.621-11.249-3.788c-3.338-0.136-6.619,0.36-9.765,1.503c-0.897,0.325-1.786,0.71-2.688,1.073
	c-0.121-0.219-0.251-0.429-0.358-0.646c-0.926-1.896-2.048-3.708-2.296-5.882c-0.176-1.544-0.392-3.086-0.025-4.613
	c0.353-1.469,0.813-2.913,1.246-4.362c0.223-0.746,0.066-1.164-0.646-1.5c-0.248-0.117-0.518-0.219-0.786-0.258
	c-1.75-0.254-3.476-0.109-5.171,0.384c-0.6,0.175-1.036,0.511-1.169,1.175c-0.076,0.381-0.231,0.746-0.339,1.122
	c-0.443,1.563-0.757,3.156-1.473,4.645c-1.794,3.735-3.842,7.329-5.938,10.897c-0.227,0.385-0.466,0.763-0.752,1.23
	c-0.736-1.54-1.521-2.922-1.759-4.542c-0.269-1.832-0.481-3.661-0.025-5.479c0.339-1.356,0.782-2.687,1.19-4.025
	c0.193-0.636,0.104-0.97-0.472-1.305c-0.291-0.169-0.62-0.319-0.948-0.368c-1.815-0.269-3.603-0.128-5.354,0.438
	c-0.543,0.176-0.828,0.527-0.994,1.087c-0.488,1.652-0.904,3.344-1.589,4.915c-2.774,6.36-5.628,12.687-8.479,19.013
	c-0.595,1.321-1.292,2.596-1.963,3.882c-0.17,0.326-0.418,0.613-0.63,0.919c-0.17-0.201-0.236-0.339-0.235-0.477
	c0.005-0.813-0.092-1.65,0.063-2.436c0.469-2.378,1.009-4.743,1.578-7.099c0.47-1.946,1.017-3.874,1.538-5.807
	c0.175-0.647,0.178-1.252-0.287-1.796c-0.781-0.911-2.413-1.111-3.381-0.409c-0.105,0.075-0.227,0.129-0.428,0.242
	c0.037-0.309,0.056-0.5,0.083-0.69c0.204-1.479,0.245-2.953-0.161-4.41c-0.506-1.816-1.802-2.861-3.686-2.803
	c-0.878,0.027-1.8,0.177-2.613,0.497c-3.419,1.34-6.048,3.713-8.286,6.568c-0.203,0.259-0.471,0.495-0.757,0.654
	c-2.893,1.604-5.795,3.188-8.696,4.778c-1.083,0.594-2.167,1.187-3.229,1.769c-0.866-0.826-1.653-1.683-2.546-2.41
	c-2.727-2.224-5.498-4.393-8.244-6.592c-2.434-1.949-4.792-3.979-6.596-6.56c-1.342-1.92-2.207-4.021-2.29-6.395
	c-0.105-3.025,0.753-5.789,2.293-8.362c1.97-3.292,4.657-5.934,7.611-8.327c3.125-2.53,6.505-4.678,10.008-6.639
	c4.901-2.743,9.942-5.171,15.347-6.774c5.542-1.644,11.165-2.585,16.965-1.929c2.28,0.258,4.494,0.78,6.527,1.895
	c1.557,0.853,2.834,1.97,3.428,3.716c0.586,1.718,0.568,3.459,0.162,5.204c-0.825,3.534-2.76,6.447-5.195,9.05
	c-3.994,4.267-8.866,7.172-14.351,9.091c-3.165,1.107-6.421,1.802-9.765,2.083c-2.729,0.229-5.401-0.013-7.985-0.962
	c-1.711-0.629-3.201-1.591-4.399-2.987c-0.214-0.25-0.488-0.521-0.887-0.287c-0.391,0.23-0.46,0.602-0.329,0.979
	c0.219,0.626,0.421,1.278,0.762,1.838c0.857,1.405,2.107,2.424,3.483,3.298c2.643,1.681,5.597,2.246,8.66,2.377
	c4.648,0.201,9.183-0.493,13.654-1.74c6.383-1.78,11.933-4.924,16.384-9.884c3.706-4.13,6.353-8.791,6.92-14.419
	c0.277-2.747-0.018-5.438-1.304-7.944c-1.395-2.715-3.613-4.734-6.265-6.125C68.756,18.179,64.588,17,60.286,17
	c-1.437,0-2.873,0-4.31,0c-5.21,0-10.247,1.493-15.143,3.274c-3.706,1.349-7.34,2.941-10.868,4.703
	C22.282,28.816,15.127,33.445,9.25,39.81c-2.928,3.171-5.407,6.67-6.833,10.79C2,51.806,1.604,53.099,1.306,54.346 M29.145,90.359
	c-0.333,4.459-2.354,8.074-5.657,11.002c-1.858,1.646-3.989,2.818-6.471,3.23c-0.9,0.149-1.821,0.185-2.694-0.188
	c-1.245-0.532-1.524-1.637-1.548-2.814c-0.037-1.876,0.62-3.572,1.521-5.186c1.176-2.104,2.9-3.708,4.741-5.206
	c2.9-2.361,6.046-4.359,9.268-6.245c0.053-0.031,0.115-0.048,0.243-0.1C29.046,86.692,29.283,88.509,29.145,90.359z M54.303,70.98
	c-0.235,1.424-0.529,2.849-0.945,4.229c-1.438,4.777-3.285,9.406-5.282,13.973c-0.369,0.845-0.906,1.616-1.373,2.417
	c-0.072,0.124-0.179,0.231-0.283,0.334c-0.578,0.571-1.126,0.541-1.418-0.206c-0.34-0.868-0.549-1.797-0.729-2.716
	c-0.121-0.617-0.092-1.265-0.13-1.897c0.039-4.494,1.41-8.578,3.736-12.38c0.959-1.568,2.003-3.062,3.598-4.054
	c0.49-0.305,1.04-0.55,1.595-0.706C53.922,69.735,54.444,70.128,54.303,70.98z M71.467,92.848c2.057-2.401,4.108-4.797,6.169-7.203
	C77.893,88.32,73.346,93.66,71.467,92.848z M91.17,88.001c-0.436,0.25-0.911,0.43-1.358,0.661c-0.409,0.212-0.544-0.002-0.556-0.354
	c-0.008-0.239,0.027-0.489,0.093-0.721c0.833-2.938,2.366-5.446,4.647-7.486c0.033-0.029,0.082-0.043,0.16-0.082
	C95.241,83.054,93.987,86.387,91.17,88.001z"/>
</svg>
