<?xml version="1.0" encoding="utf-8"?>
<!-- Generator: Adobe Illustrator 16.0.0, SVG Export Plug-In . SVG Version: 6.00 Build 0)  -->
<!DOCTYPE svg PUBLIC "-//W3C//DTD SVG 1.1//EN" "http://www.w3.org/Graphics/SVG/1.1/DTD/svg11.dtd">
<svg version="1.1" id="Layer_1" xmlns="http://www.w3.org/2000/svg" xmlns:xlink="http://www.w3.org/1999/xlink" x="0px" y="0px"
	 width="500px" height="500px" viewBox="0 0 500 500" enable-background="new 0 0 500 500" xml:space="preserve">
<path fill-rule="evenodd" clip-rule="evenodd" fill="#CB6699" d="M494.387,326.183c-1.697-14.234-9.026-25.281-20.091-33.938
	c-12.814-10.021-27.806-14.146-43.804-14.799c-13.039-0.531-25.788,1.406-38.075,5.869c-3.506,1.273-6.943,2.773-10.469,4.195
	c-0.471-0.857-0.964-1.676-1.38-2.527c-3.621-7.406-7.992-14.482-8.961-22.975c-0.688-6.031-1.525-12.058-0.096-18.021
	c1.377-5.739,3.181-11.379,4.868-17.041c0.869-2.915,0.265-4.548-2.519-5.861c-0.969-0.458-2.02-0.855-3.07-1.008
	c-6.836-0.992-13.574-0.425-20.197,1.501c-2.342,0.682-4.049,1.995-4.568,4.589c-0.297,1.489-0.904,2.913-1.32,4.381
	c-1.734,6.104-2.959,12.327-5.754,18.144c-7.01,14.59-15.008,28.629-23.199,42.566c-0.885,1.504-1.816,2.979-2.936,4.807
	c-2.875-6.016-5.943-11.412-6.871-17.742c-1.049-7.154-1.881-14.301-0.1-21.404c1.326-5.297,3.057-10.495,4.65-15.725
	c0.758-2.484,0.406-3.789-1.842-5.097c-1.137-0.661-2.424-1.248-3.705-1.438c-7.09-1.049-14.072-0.502-20.91,1.712
	c-2.123,0.687-3.236,2.059-3.885,4.247c-1.906,6.453-3.531,13.062-6.207,19.2c-10.836,24.846-21.982,49.555-33.118,74.27
	c-2.324,5.158-5.049,10.139-7.668,15.16c-0.666,1.277-1.632,2.398-2.459,3.59c-0.667-0.785-0.921-1.324-0.918-1.859
	c0.02-3.178-0.36-6.447,0.246-9.516c1.833-9.287,3.94-18.525,6.164-27.729c1.835-7.602,3.971-15.131,6.009-22.684
	c0.683-2.529,0.696-4.891-1.122-7.012c-3.05-3.563-9.425-4.344-13.209-1.602c-0.411,0.297-0.887,0.506-1.671,0.947
	c0.143-1.205,0.219-1.953,0.321-2.697c0.796-5.779,0.958-11.537-0.628-17.229c-1.976-7.092-7.039-11.174-14.396-10.947
	c-3.431,0.105-7.03,0.693-10.209,1.941c-13.356,5.236-23.626,14.506-32.365,25.658c-0.792,1.01-1.839,1.936-2.958,2.555
	c-11.3,6.264-22.639,12.455-33.968,18.666c-4.232,2.32-8.465,4.637-12.615,6.91c-3.382-3.229-6.46-6.574-9.947-9.416
	c-10.651-8.686-21.476-17.158-32.204-25.748c-9.507-7.615-18.72-15.543-25.767-25.625c-5.243-7.502-8.619-15.707-8.943-24.979
	c-0.413-11.816,2.943-22.615,8.958-32.666c7.696-12.86,18.19-23.18,29.733-32.525c12.207-9.883,25.409-18.275,39.093-25.933
	c19.146-10.715,38.836-20.2,59.95-26.464c21.649-6.422,43.612-10.099,66.271-7.534c8.908,1.008,17.552,3.048,25.498,7.399
	c6.08,3.331,11.068,7.696,13.389,14.515c2.287,6.713,2.221,13.515,0.631,20.327c-3.221,13.804-10.777,25.185-20.293,35.352
	c-15.6,16.666-34.631,28.016-56.058,35.51c-12.363,4.324-25.083,7.041-38.144,8.136c-10.66,0.893-21.097-0.051-31.19-3.76
	c-6.687-2.457-12.503-6.216-17.186-11.667c-0.838-0.977-1.907-2.035-3.465-1.119c-1.525,0.897-1.797,2.352-1.284,3.822
	c0.854,2.446,1.643,4.99,2.977,7.178c3.347,5.487,8.232,9.469,13.604,12.884c10.325,6.563,21.862,8.771,33.828,9.286
	c18.158,0.783,35.87-1.926,53.335-6.797c24.932-6.953,46.611-19.233,63.998-38.61c14.477-16.132,24.816-34.34,27.031-56.324
	c1.082-10.729-0.068-21.244-5.094-31.031c-5.447-10.607-14.113-17.915-24.469-23.348c-15.057-7.9-31.336-11.018-48.143-11.928
	c-5.611-0.001-11.223-0.002-16.834-0.003c-20.353,0.991-40.026,5.259-59.149,12.217c-14.476,5.268-28.672,11.198-42.452,18.082
	c-30.017,14.992-57.965,32.93-80.922,57.793c-11.438,12.387-21.119,25.984-26.688,42.079c-1.63,4.711-2.63,9.724-3.798,14.595
	C5.55,212.349,6,212.738,5,213.137c0,2.292,0,4.584,0,6.877c1,1.761,1.116,3.523,1.569,5.281
	c2.952,11.459,9.028,21.291,16.559,30.261c10.727,12.779,23.726,23.068,37.182,32.742c11.674,8.393,23.515,16.594,35.234,24.924
	c2.01,1.428,3.878,3.074,6.063,4.828c-1.881,1.014-3.46,1.912-5.085,2.734c-15.467,7.846-30.35,16.639-44.069,27.293
	c-8.267,6.42-16.261,13.244-21.908,22.162c-9.083,14.344-12.301,29.625-5.531,45.939c1.977,4.764,4.995,8.885,9.248,11.924
	c1.377,0.984,2.924,1.963,4.535,2.344c4.133,0.973,8.346,1.609,12.526,2.379c3.949-0.002,7.897-0.006,11.846-0.008
	c13.103-1.166,25.028-5.656,35.802-13.092c16.844-11.623,28.193-27.209,33.073-47.215c3.546-14.537,3.692-29.092-0.49-43.566
	c-0.388-1.342-0.875-2.658-1.385-3.961c-0.509-1.299-1.104-2.564-1.81-4.186c8.945-5.146,17.902-10.297,26.858-15.447
	c0.134,0.113,0.267,0.227,0.4,0.342c-0.485,1.602-1.006,3.193-1.448,4.807c-3.192,11.658-5.313,23.516-4.549,35.617
	c0.812,12.887,4.411,24.953,11.955,35.727c6.1,8.713,20.641,9.039,27.126,0.293c2.302-3.104,4.53-6.35,6.207-9.814
	c4.378-9.045,8.434-18.246,12.616-27.387c0.18-0.391,0.346-0.789,0.729-1.668c-0.302,4.328-0.651,8.127-0.813,11.932
	c-0.253,5.941,0.096,11.85,2.128,17.502c1.739,4.838,4.693,8.447,10.233,9.084c3.788,0.436,6.808-1.301,9.593-3.498
	c4.352-3.432,7.885-7.674,10.51-12.494c7.426-13.637,15.05-27.191,21.782-41.172c7.283-15.123,13.648-30.688,20.41-46.063
	c0.371-0.846,0.701-1.709,1.117-2.729c1.598,6.279,2.711,12.426,4.762,18.244c2.381,6.756,5.33,13.348,8.541,19.756
	c1.518,3.029,1.34,4.996-0.764,7.531c-8.814,10.623-17.473,21.377-26.145,32.119c-1.916,2.373-3.83,4.783-5.422,7.375
	c-0.967,1.576-1.607,3.49-1.879,5.328c-0.518,3.51,1.648,6.889,5.404,7.699c3.428,0.738,7.078,1.012,10.576,0.756
	c12.098-0.889,23.084-5.139,32.793-12.332c12.58-9.322,16.619-22.039,13.572-37.113c-0.826-4.09-2.283-8.07-3.701-12.01
	c-0.639-1.777-0.678-3.025,0.48-4.68c10.059-14.365,18.654-29.604,26.646-45.193c0.316-0.615,0.639-1.229,1.193-1.887
	c2.592,13.479,6.49,26.467,13.473,38.25c-3.563,3.436-7.092,6.547-10.279,9.977c-7.025,7.555-13.125,15.76-16.301,25.76
	c-1.367,4.311-2.42,8.693-1.809,13.305c0.947,7.15,6.807,11.799,13.842,10.172c15.055-3.48,28.049-10.576,37.547-23.145
	c6.391-8.459,6.975-17.896,4.293-27.785c-0.73-2.686-1.605-5.332-2.541-8.416c3.713-1.15,7.336-2.535,11.08-3.391
	c19.451-4.436,38.688-3.662,57.43,3.361c10.941,4.102,19.783,10.963,25.023,21.764c6.404,13.197,2.867,25.723-9.576,34.063
	c-1.162,0.779-2.488,1.393-3.449,2.367c-0.592,0.598-0.945,1.793-0.803,2.615c0.084,0.482,1.352,1.084,2.084,1.078
	c4.088-0.033,7.404-2.174,10.592-4.381c7.977-5.518,13.25-12.947,14.496-22.723c0.035-0.281-0.375-0.541,0.625-0.809
	c0-2.166,0-4.33,0-6.496C494,326.722,494.42,326.462,494.387,326.183z M113.845,352.579c-1.303,17.42-9.195,31.543-22.096,42.977
	c-7.259,6.434-15.582,11.01-25.276,12.619c-3.518,0.584-7.115,0.723-10.525-0.734c-4.862-2.078-5.954-6.393-6.045-10.996
	c-0.146-7.328,2.42-13.951,5.943-20.256c4.594-8.219,11.33-14.482,18.518-20.334c11.331-9.225,23.62-17.031,36.204-24.396
	c0.209-0.123,0.451-0.188,0.949-0.389C113.461,338.257,114.386,345.356,113.845,352.579z M212.122,276.882
	c-0.919,5.563-2.067,11.129-3.692,16.521c-5.619,18.662-12.83,36.742-20.631,54.582c-1.442,3.299-3.538,6.313-5.362,9.439
	c-0.284,0.486-0.701,0.906-1.106,1.307c-2.257,2.229-4.401,2.111-5.542-0.805c-1.327-3.393-2.145-7.02-2.847-10.609
	c-0.472-2.412-0.358-4.939-0.507-7.414c0.151-17.553,5.508-33.508,14.594-48.357c3.748-6.125,7.827-11.961,14.053-15.836
	c1.916-1.189,4.063-2.148,6.232-2.758C210.634,272.019,212.672,273.556,212.122,276.882z M279.166,362.306
	c8.033-9.381,16.049-18.74,24.098-28.139C304.266,344.616,286.508,365.474,279.166,362.306z M356.133,343.372
	c-1.703,0.975-3.561,1.68-5.307,2.584c-1.6,0.828-2.127-0.008-2.172-1.383c-0.029-0.936,0.109-1.912,0.365-2.816
	c3.252-11.479,9.24-21.271,18.152-29.24c0.131-0.117,0.322-0.168,0.627-0.322C372.035,324.046,367.139,337.065,356.133,343.372z"/>
</svg>
