<svg version="1.1" xmlns="http://www.w3.org/2000/svg" viewBox="0 0 128 128" width="128px" height="128px" fill="#00A580">
	<polygon points="76.4,60.9 79.7,55.1 76.1,48.9 69.2,60.9 	" />
	<polygon points="95.1,64 91.8,58.2 85.1,58.2 81.8,64 85.1,69.8 91.8,69.8 	" />
	<polygon points="76.4,67.1 69.2,67.1 76.1,79.1 79.7,72.8 	" />
	<polygon points="85,51.9 91.7,51.9 95.2,45.8 81.6,45.8 	" />
	<polygon points="100.5,67.1 97.1,72.9 100.7,79.2 107.7,67.1 	" />
	<polygon points="91.8,76 85.2,76 81.6,82.2 95.4,82.2 	" />
	<path d="M113.9,12.6H14.1C7.2,12.6,1.6,18.1,1.6,25v78c0,6.9,5.6,12.5,12.5,12.5h99.8c6.9,0,12.5-5.6,12.5-12.5V25.1
		C126.4,18.2,120.8,12.6,113.9,12.6z M115.8,65.6l-12.3,21.3c-0.3,0.5-0.7,0.9-1.2,1.2c0,0,0,0,0,0c-0.1,0-0.2,0.1-0.2,0.1
		c-0.2,0.1-0.5,0.2-0.7,0.2c-0.2,0-0.4,0.1-0.5,0.1H76.1c-0.3,0-0.5,0-0.7-0.1c-0.1,0-0.1,0-0.2,0c-0.2-0.1-0.4-0.2-0.6-0.3
		c0,0,0,0,0,0c-0.5-0.3-0.8-0.7-1.1-1.1c0,0,0,0,0,0L62,67.1h-9.1l8.7,15.1h4.1c1.7,0,3.1,1.4,3.1,3.1c0,1.8-1.4,3.2-3.2,3.2h-5.9
		c-1.1,0-2.1-0.6-2.7-1.6L45.7,67.1h-9.1l8.7,15.1h4.1c1.7,0,3.1,1.4,3.1,3.1c0,1.8-1.4,3.2-3.2,3.2h-5.9c-1.1,0-2.1-0.6-2.7-1.6
		L29.4,67.1h-9.1L29,82.2h4c1.7,0,3.1,1.4,3.1,3.1c0.1,1.8-1.3,3.2-3.1,3.2h-5.9c-1.1,0-2.1-0.6-2.7-1.6L12.2,65.6
		c-0.5-0.9-0.6-1.9-0.2-2.7c0-0.1,0.1-0.2,0.1-0.3c0,0,0-0.1,0-0.1l12.3-21.3c0.6-1,1.6-1.6,2.7-1.6H33c1.7,0,3.1,1.4,3.1,3.1
		s-1.4,3.1-3.1,3.1h-4l-8.7,15.1h9.1l11.4-19.7c0.6-1,1.6-1.6,2.7-1.6h5.9c1.7,0,3.1,1.4,3.1,3.1s-1.4,3.1-3.1,3.1h-4.1l-8.7,15.1
		h9.1l11.4-19.7c0.6-1,1.6-1.6,2.7-1.6h5.9c1.7,0,3.1,1.4,3.1,3.1s-1.4,3.1-3.1,3.1h-4.1l-8.7,15.1H62l11-19.1
		c0.2-0.8,0.7-1.6,1.5-2c0.9-0.5,1.9-0.6,2.8-0.2h22.5c0.8-0.3,1.7-0.2,2.5,0.2c0.7,0.4,1.1,1,1.4,1.7l12.1,21c0,0,0,0,0,0.1
		c0.1,0.1,0.1,0.3,0.2,0.4C116.4,63.9,116.3,64.8,115.8,65.6z" />
	<polygon points="97.2,55.1 100.5,60.9 107.7,60.9 100.8,48.9 	" />
</svg>
