<?xml version="1.0" encoding="UTF-8"?>
<svg xmlns="http://www.w3.org/2000/svg" xmlns:xlink="http://www.w3.org/1999/xlink" width="128px" height="128px" viewBox="0 0 128 180" version="1.1">
<g id="surface1">
<path style=" stroke:none;fill-rule:evenodd;fill:rgb(0%,0%,0%);fill-opacity:1;" d="M 61.113281 25.859375 C 55.820312 38.761719 52.628906 47.203125 46.738281 59.722656 C 50.351562 63.527344 54.785156 67.964844 61.984375 72.972656 C 54.242188 69.804688 48.964844 66.625 45.015625 63.324219 C 37.476562 78.96875 25.664062 101.257812 1.691406 144.09375 C 20.535156 133.277344 35.140625 126.609375 48.75 124.0625 C 48.164062 121.5625 47.832031 118.859375 47.855469 116.039062 L 47.878906 115.4375 C 48.175781 103.433594 54.457031 94.199219 61.894531 94.828125 C 69.332031 95.453125 75.117188 105.699219 74.816406 117.703125 C 74.761719 119.964844 74.503906 122.136719 74.054688 124.152344 C 87.519531 126.773438 101.96875 133.425781 120.554688 144.09375 C 116.890625 137.386719 113.621094 131.335938 110.496094 125.574219 C 105.574219 121.78125 100.441406 116.847656 89.972656 111.5 C 97.167969 113.363281 102.320312 115.507812 106.335938 117.90625 C 74.578125 59.09375 72.003906 51.28125 61.113281 25.859375 Z M 61.113281 25.859375 "/>
<path style=" stroke:none;fill-rule:nonzero;fill:rgb(0%,0%,0%);fill-opacity:1;" d="M 121.140625 133.542969 L 121.140625 130.300781 L 119.925781 130.300781 L 119.925781 129.867188 L 122.855469 129.867188 L 122.855469 130.300781 L 121.632812 130.300781 L 121.632812 133.542969 L 121.140625 133.542969 "/>
<path style=" stroke:none;fill-rule:nonzero;fill:rgb(0%,0%,0%);fill-opacity:1;" d="M 123.363281 133.542969 L 123.363281 129.867188 L 124.097656 129.867188 L 124.972656 132.46875 C 125.054688 132.710938 125.113281 132.894531 125.148438 133.011719 C 125.191406 132.878906 125.257812 132.683594 125.347656 132.425781 L 126.230469 129.867188 L 126.890625 129.867188 L 126.890625 133.542969 L 126.417969 133.542969 L 126.417969 130.464844 L 125.34375 133.542969 L 124.902344 133.542969 L 123.835938 130.414062 L 123.835938 133.542969 L 123.363281 133.542969 "/>
</g>
</svg>
