<svg xmlns="http://www.w3.org/2000/svg" viewBox="0 0 128 128"><path fill="#13171A" d="M41.014 0C18.438 0 .135 18.341.135 40.965v46.072C.135 109.661 18.438 128 41.014 128h45.973c22.577 0 40.879-18.339 40.879-40.963V40.965C127.866 18.341 109.564 0 86.987 0zm8.92 27.094q.9-.042 1.803.006v6.07a11.16 11.16 0 0 0-8.573 3.317 15.98 15.98 0 0 0-2.912 10.38v34.134a15.98 15.98 0 0 0 2.912 10.38 11.09 11.09 0 0 0 8.772 3.616v5.937a18.3 18.3 0 0 1-13.24-4.742 19.55 19.55 0 0 1-4.865-14.629V46.438a19.6 19.6 0 0 1 4.668-14.629 18.3 18.3 0 0 1 11.435-4.715m21.203.002a18 18 0 0 1 1.816.004v6.07a11.25 11.25 0 0 0-8.605 3.316 15.98 15.98 0 0 0-2.879 10.382V81c-.27 3.69.747 7.36 2.879 10.38a11.13 11.13 0 0 0 8.772 3.615v5.938a18.35 18.35 0 0 1-13.407-4.742 19.54 19.54 0 0 1-4.832-14.629V46.438a19.6 19.6 0 0 1 .916-7.812 19.55 19.55 0 0 1 3.916-6.817 18.35 18.35 0 0 1 11.424-4.713m21.283.002q.904-.045 1.816.002v6.07a11.26 11.26 0 0 0-8.638 3.317A15.98 15.98 0 0 0 82.883 47v34c-.27 3.69.749 7.36 2.88 10.38a11.17 11.17 0 0 0 8.77 3.615v5.938a18.4 18.4 0 0 1-13.238-4.742 19.68 19.68 0 0 1-5.031-14.629V46.438a19.7 19.7 0 0 1 4.732-14.629A18.38 18.38 0 0 1 92.42 27.1z"/></svg>
