<svg viewBox="0 0 128 128" xmlns="http://www.w3.org/2000/svg"><path d="M86.987 0H41.013C18.437 0 .136 18.34.136 40.964v46.072C.136 109.659 18.438 128 41.013 128h45.974c22.576 0 40.877-18.34 40.877-40.964V40.964C127.864 18.34 109.563 0 86.987 0z" fill="#13171a"/><path d="M38.497 31.809a18.27 18.27 0 0113.24-4.71v6.07a11.165 11.165 0 00-8.573 3.317 15.979 15.979 0 00-2.913 10.382v34.13a15.98 15.98 0 002.913 10.383 11.078 11.078 0 008.771 3.616v5.937a18.27 18.27 0 01-13.24-4.744 19.514 19.514 0 01-4.865-14.627V46.437a19.61 19.61 0 014.667-14.628z" fill="#7e858b"/><path d="M59.714 31.809a18.346 18.346 0 0113.239-4.71v6.07a11.233 11.233 0 00-8.606 3.317 15.98 15.98 0 00-2.88 10.382v34.13a15.98 15.98 0 002.88 10.383 11.149 11.149 0 008.772 3.615v5.938a18.344 18.344 0 01-13.406-4.744 19.51 19.51 0 01-3.918-6.815 19.544 19.544 0 01-.914-7.812V46.437a19.571 19.571 0 014.832-14.628z" fill="#f7f8f9"/><path d="M80.997 31.809a18.38 18.38 0 0113.239-4.71v6.07a11.266 11.266 0 00-8.638 3.317A15.978 15.978 0 0082.883 47v33.998c-.27 3.69.748 7.36 2.88 10.382a11.188 11.188 0 008.77 3.615v5.938a18.412 18.412 0 01-13.238-4.744 19.673 19.673 0 01-5.03-14.627V46.434a19.708 19.708 0 014.732-14.627z" fill="#7e858b"/></svg>
