<svg viewBox="0 0 128 128" xmlns="http://www.w3.org/2000/svg">
<path d="m24.365 46.046h-12.897c-6.3334 0-11.468 5.145-11.468 11.492v12.925c0 6.3467 5.1342 11.492 11.468 11.492h12.897c6.3335 0 11.468-5.1451 11.468-11.492v-12.925c0-6.3468-5.134-11.492-11.468-11.492z" fill="#13171a"/>
<path d="m10.762 54.969c0.50174-0.45452 1.0882-0.80524 1.7256-1.032 0.6374-0.22674 1.3132-0.32508 1.9886-0.28934v1.7028c-0.44375-0.02438-0.88761 0.04597-1.3022 0.20639-0.41459 0.16042-0.79046 0.40724-1.1027 0.72414-0.60146 0.84634-0.89036 1.876-0.81711 2.9125v9.575c-0.07325 1.0364 0.21564 2.066 0.81711 2.9125 0.30976 0.34091 0.69115 0.60871 1.1166 0.78414 0.42551 0.17522 0.88454 0.25395 1.344 0.23016v1.6656c-0.67607 0.0344-1.3523-0.06533-1.9897-0.29376-0.63744-0.22843-1.2235-0.58081-1.7245-1.037-0.49389-0.55507-0.86963-1.2053-1.1043-1.9107-0.23468-0.70562-0.32337-1.4517-0.26064-2.1928v-9.8541c-0.069156-0.73714 0.011184-1.4807 0.23617-2.1859 0.22501-0.70519 0.59002-1.3575 1.0731-1.9177z" fill="#7e858b"/>
<path d="m16.714 54.969c1.0145-0.91623 2.3503-1.3914 3.7142-1.3213v1.7028c-0.44516-0.02451-0.89046 0.04573-1.3066 0.20611-0.41613 0.1604-0.79362 0.40728-1.1076 0.72442-0.5982 0.84757-0.88378 1.8771-0.80785 2.9125v9.575c-0.07593 1.0353 0.20965 2.0649 0.80785 2.9125 0.31056 0.33983 0.69208 0.60698 1.1174 0.7822 0.4253 0.17543 0.88393 0.2546 1.3433 0.23211v1.6656c-0.68362 0.03959-1.3683-0.05754-2.014-0.28597-0.64568-0.22864-1.2395-0.58362-1.7466-1.0448-0.49223-0.55572-0.8663-1.2064-1.0994-1.9118-0.23308-0.70562-0.3203-1.4513-0.25631-2.1917v-9.8541c-0.06344-0.74038 0.02403-1.4859 0.25709-2.1914 0.23304-0.70543 0.60681-1.356 1.0986-1.9122z" fill="#f7f8f9"/>
<path d="m22.684 54.969c1.015-0.91534 2.3505-1.3904 3.7141-1.3213v1.7028c-0.44669-0.02524-0.8936 0.04461-1.3113 0.205-0.4177 0.1604-0.79669 0.40765-1.1121 0.72552-0.59032 0.86375-0.85964 1.9075-0.76143 2.9497v9.5378c-0.07593 1.0353 0.20961 2.0649 0.80772 2.9125 0.31106 0.3394 0.69264 0.60612 1.1177 0.78133 0.42528 0.17522 0.88365 0.25482 1.3429 0.23297v1.6656c-1.3647 0.06554-2.7001-0.41295-3.7141-1.3308-0.50034-0.55247-0.88343-1.2012-1.1259-1.9066-0.24264-0.7054-0.33972-1.4528-0.28541-2.1969v-9.8541c-0.06502-0.73831 0.01904-1.4822 0.24716-2.1872 0.22817-0.70504 0.59569-1.3568 1.0807-1.9163z" fill="#7e858b"/>
<path d="m55.156 60.441c-0.82827-0.60774-1.845-0.90119-2.8692-0.82816-0.86007-0.02496-1.705 0.23323-2.4048 0.7351-0.67317 0.49731-1.2021 1.1654-1.5322 1.9355-0.35476 0.81579-0.53495 1.697-0.52932 2.5868-0.04499 1.3441 0.38223 2.6613 1.2073 3.7221 0.40559 0.51094 0.92756 0.91696 1.522 1.1841 0.59465 0.26715 1.2445 0.38742 1.8949 0.35108 0.89533 0.02726 1.7775-0.22302 2.5257-0.71644 0.68961-0.48952 1.1781-1.214 1.3743-2.0378h2.5906c-0.13888 0.96446-0.51548 1.8793-1.0956 2.6612-0.60806 0.79972-1.4017 1.4385-2.3122 1.861-1.0271 0.47352-2.1474 0.70887-3.2776 0.68875-1.2546 0.0017-2.4807-0.37444-3.5192-1.0794-1.0844-0.72055-1.9665-1.7072-2.5627-2.866-0.6072-1.1465-0.92605-2.4242-0.92864-3.7221-0.0074-1.3347 0.31149-2.6509 0.92864-3.8337 0.58946-1.1347 1.4629-2.0967 2.5348-2.7915 1.0457-0.70383 2.2782-1.0766 3.5378-1.0701 1.7543-0.12635 3.4872 0.44916 4.8191 1.6005 1.0853 1.0355 1.7472 2.4385 1.8571 3.9361h-2.6092c-0.06554-0.89379-0.47914-1.726-1.1514-2.317z" fill="#13171a"/>
<path d="m61.925 50.01h2.5906v16.824c-0.09367 0.85499 0.07485 1.7183 0.48282 2.4752 0.22021 0.2533 0.49796 0.44972 0.80988 0.5728 0.31193 0.12308 0.64895 0.16916 0.98229 0.13433 0.50142-0.01817 1.0009-0.07095 1.495-0.15813v2.3728c-0.6868 0.14688-1.387 0.22172-2.0892 0.22324-0.57562 0.03785-1.153-0.04153-1.6972-0.2334-0.54425-0.19209-1.0439-0.49234-1.4692-0.88322-0.83-1.0113-1.2391-2.3044-1.1421-3.6103z" fill="#13171a"/>
<path d="m81.712 72.221v-2.503c-0.42614 0.8657-1.0887 1.5925-1.9103 2.0965-0.82178 0.50402-1.769 0.76424-2.7323 0.75083-1.3182 0.0225-2.6127-0.35368-3.7144-1.0794-1.0894-0.71752-1.9752-1.7048-2.572-2.866-0.61931-1.1653-0.93859-2.4671-0.92843-3.7873-0.01774-1.3448 0.30154-2.6725 0.92843-3.8616 0.5886-1.157 1.477-2.1341 2.572-2.8288 1.0926-0.68756 2.3591-1.0461 3.6492-1.0329 0.97926-0.02183 1.944 0.2395 2.7788 0.75271 0.83498 0.51321 1.5047 1.2566 1.9289 2.1412v-2.4845h2.5629v14.702zm-1.1977-3.5824c0.8339-1.0555 1.2594-2.3773 1.1977-3.7221 0.06381-1.368-0.36082-2.7139-1.1977-3.7965-0.41965-0.49839-0.94962-0.89167-1.5477-1.1485-0.5979-0.25688-1.2477-0.3702-1.8971-0.33098-0.64267-0.03076-1.284 0.08471-1.8759 0.33771-0.59162 0.253-1.1186 0.63701-1.5412 1.1232-0.87392 1.0375-1.3277 2.3656-1.2722 3.7221-0.04088 1.3511 0.40408 2.672 1.2535 3.7219 0.43717 0.46897 0.96477 0.84406 1.5506 1.1032 0.58578 0.25915 1.2176 0.39672 1.8579 0.40451 0.64029 0.0078 1.2756-0.11422 1.8675-0.35908 0.59184-0.24465 1.1283-0.60676 1.5767-1.0647z" fill="#13171a"/>
<path d="m87.682 72.221v-14.702h2.5908v2.624c0.40213-0.85464 1.0238-1.5868 1.8013-2.1216 0.86764-0.52011 1.8688-0.77255 2.8785-0.7258 0.39132 8.87e-4 0.77982 0.06371 1.1514 0.18612v2.5682c-0.40689-0.10232-0.82481-0.15542-1.2442-0.15819-3.0643 0-4.587 1.9355-4.587 5.7878v6.5136z" fill="#13171a"/>
<path d="m98.426 53.322c-0.18387-0.17809-0.32923-0.39233-0.42657-0.62933-0.09756-0.23697-0.14515-0.49158-0.13974-0.74782-0.0041-0.25471 0.04413-0.50754 0.14147-0.74283 0.09756-0.23529 0.24206-0.44801 0.42484-0.62502 0.17781-0.18436 0.39153-0.32992 0.62796-0.42761 0.23643-0.09767 0.4906-0.14534 0.74629-0.14 0.25331-0.0068 0.50488 0.04034 0.7385 0.13818 0.23384 0.09784 0.4441 0.24418 0.61715 0.42943 0.17954 0.17859 0.32058 0.39203 0.41489 0.62725 0.0941 0.2352 0.13953 0.48723 0.13304 0.7406 8e-3 0.25491-0.037 0.50869-0.13109 0.7456-0.0943 0.23691-0.23622 0.45186-0.41684 0.63156-0.17305 0.18523-0.38331 0.33159-0.61715 0.42943-0.23362 0.09784-0.48519 0.14493-0.7385 0.13818-0.25568 0.0053-0.50986-0.04236-0.74629-0.14002-0.23643-0.09767-0.45015-0.24325-0.62796-0.42759zm0.06511 4.1594h2.5906v14.739h-2.5906z" fill="#13171a"/>
<path d="m103.44 57.519h0.65933c0.29722 0.03608 0.59898 0.0074 0.88409-0.08419 0.28532-0.09155 0.54749-0.24374 0.76856-0.44619 0.3182-0.44591 0.47244-0.98841 0.43653-1.5353v-2.7264h2.3678v4.7921h3.6213v2.3449h-3.6213v6.9695c-0.0774 0.85088 0.10729 1.7049 0.52932 2.4473 0.2373 0.24811 0.52781 0.43912 0.84948 0.55831 0.32166 0.11919 0.66625 0.16375 1.0076 0.13022 0.5754-0.01514 1.1493-0.06814 1.7178-0.15813v2.41c-0.72142 0.11854-1.451 0.18062-2.1822 0.18603-0.61931 0.05213-1.243-0.02531-1.8311-0.22713-0.58816-0.20161-1.1281-0.5237-1.5858-0.9453-0.84082-1.0805-1.2393-2.4413-1.1142-3.8057v-7.5651h-2.5071z" fill="#13171a"/>
<path d="m113.8 57.482h2.6555l4.4293 11.51 4.4663-11.51h2.6836l-8.6727 22.239h-2.6185l2.8692-7.4999z" fill="#13171a"/>
</svg>