<svg xmlns="http://www.w3.org/2000/svg" viewBox="0 0 128 128"><path fill="#380A4D" d="M25.4 25.2c-1 .5-2 1.2-3.1 1.9-.6 11.1 5.8 18.2 12.7 24.6-6.1-8.1-9.6-12.9-9.6-26.5M21.1 28c-.2.2-.5.3-.6.5-1.3 1.1-2.5 2.3-3.7 3.6-2.6 3.6-4.6 8.3-6.2 13.4-.9 6.6 5.5 19.6 14 29.5 4.1-.2 8.4-1.4 12.6-3.7-.2-1.7-.5-3.4-.8-5.1-.6-4.3-1.3-8.6-1.3-12.7-7.2-6.7-14.3-13.9-14-25.5m-8.3 9.1c-2.4 3.1-4.4 6.4-6.2 10l-.1.8c-.8 4.5-.8 8.6-.2 12.1.6-4.2 1.5-8.6 2.7-12.7.2-.6.3-1.3.6-2h.1c.9-2.9 1.9-5.6 3.1-8.2M9.6 49.3c-1.3 5.1-1.8 8.2-2.5 13.5v.1a43 43 0 0 0 2.1 4.6c1.2 2 2.7 3.6 4.6 4.8 2.7 1.7 5.9 2.6 9.3 2.7-7-8.3-12.4-18.5-13.5-25.7m-4.7 2.3q-.9 1.95-1.8 4.2C.5 63.2-.7 71 .4 77.8c1.2 1.8 3 3.3 5.5 4.3-.8-4.3-.9-11.3 0-18.9-1-3.4-1.4-7.2-1-11.6m74.6 2.3v24.4h3V53.9zm9.7 1.1c-1.1 0-1.9.8-1.9 1.9s.7 1.9 1.8 1.9c1.2 0 1.9-.9 1.9-1.9s-.8-1.8-1.8-1.9m23.9 0c-1.1 0-1.9.8-1.9 1.9s.7 1.9 1.8 1.9c1.2 0 1.9-.9 1.9-1.9s-.8-1.8-1.8-1.9m-76.8.1c.1 3.5.7 7.1 1.3 10.9.2 1.5.4 3.1.7 4.7l1.4-.9c3.2-2.7 2.1-7.7-3.4-14.7m4.3 4.3c2.7 5 2.7 8.7-.2 11.2l-.1.1c-.6.4-1.3.8-1.9 1.2.5 3.9.7 7.8.2 11.5 3.2-.9 6-2.1 8-3.8.9-3.9.6-8.2-1.3-12.8-1.7-2.8-3.2-5.2-4.7-7.4m86.3 1.9c-2 0-3.8 1.4-4.6 3.6h-.1l-.1-3.3h-2.6l.1 5.2h-.1v11.4h3v-8.9c0-.5 0-1 .1-1.4.5-2.2 2-3.8 4.1-3.8.4 0 .7 0 1 .1v-2.8c-.3-.1-.5-.1-.8-.1m-58.1.1c-4.8 0-7.8 3.9-7.8 8.9s3.1 8.4 8.2 8.4c2.7 0 4.5-.6 5.6-1.1l-.5-2.2c-1.1.5-2.4.9-4.6.9-3.075 0-5.555-1.675-5.694-5.7H75.6c.1-.3.1-.8.1-1.4 0-3.1-1.4-7.8-6.9-7.8m18.8.2v16.6h3V61.6zm9.4 0v.1h-3.4l5.6 8.1-5.9 8.5h3.3l2.4-3.7c.7-1 1.3-1.9 1.8-2.9h.1c.6 1 1.1 1.9 1.8 2.9l2.5 3.7h3.4l-5.8-8.6 5.7-8h-3.3l-2.3 3.5c-.6.9-1.2 1.7-1.7 2.7h-.1c-.5-.9-1-1.8-1.7-2.7zm14.5 0v16.6h3V61.6zm-42.9 1.8c3.4 0 4.2 3 4.2 4.9H64c.2-2.1 1.5-4.9 4.6-4.9M6.7 65.5c-.6 7-.4 13.2.4 17 1.8.7 3.9 1.1 6.3 1.4 2 .3 4.2.6 6.4.7-4.6-5.1-8.8-11.2-11.5-16.2-.6-.9-1.1-1.9-1.6-2.9m5.2 6.8c2.6 4.2 6 8.7 9.6 12.5 3.7.2 7.7.1 11.5-.3-1.1-.8-2.2-1.7-3.1-2.5a79 79 0 0 1-5.8-5.8c-4 .1-7.8-.9-10.9-2.9a6.4 6.4 0 0 1-1.3-1m25.4.2c-3.9 2.1-7.9 3.3-11.8 3.6 1.7 1.8 3.3 3.5 5 5 1.2 1.1 2.6 2.2 4 3.1 1-.2 1.9-.3 2.8-.5.7-3.6.5-7.3 0-11.2M1 80.2c.9 3.7 2.6 7 5.2 9.8a21 21 0 0 0 6.8 5.6C9.8 93 7.3 89 6.2 83.4 4 82.7 2.3 81.6 1 80.2m45.1 1.2c-2 1.3-4.7 2.4-7.7 3.2-.1.6-.2 1.1-.4 1.7 1.6.8 3.2 1.4 4.9 1.5 1.4-1.9 2.6-4.1 3.2-6.4M7.4 83.9c1.8 7.8 6.4 12 11.7 13.8 2.9.5 5.8.4 8.7-.2.5-.2.9-.5 1.3-.8 1.1-.7 2.1-1.6 3-2.5-3.7-1.6-7.5-4.7-11-8.3-2.7-.2-5.4-.5-7.8-.8-2.2-.2-4.2-.6-5.9-1.2m26.9 1.5c-3 .5-6.2.6-9.2.6-.8 0-1.7 0-2.5-.1 3.3 3.3 6.8 6 10.3 7.4 1.8-2 3-4.2 3.8-6.6-.8-.4-1.6-.8-2.4-1.3m3.4 1.9c-.7 2.3-1.9 4.5-3.6 6.5.6.2 1.2.3 1.8.4 2.3-1.4 4.5-3.3 6.2-5.4a17.6 17.6 0 0 1-4.4-1.5"/></svg>
