<svg xmlns="http://www.w3.org/2000/svg" xmlns:xlink="http://www.w3.org/1999/xlink" viewBox="0 0 128 128"><path d="M64 70.5c.1 4.1 2.6 5.8 5.7 5.8 2.2 0 3.5-.4 4.6-.9l.5 2.2c-1.1.5-2.9 1.1-5.6 1.1-5.1 0-8.2-3.4-8.2-8.4s3-8.9 7.8-8.9c5.5 0 6.9 4.7 6.9 7.8 0 .6 0 1.1-.1 1.4H64zm8.8-2.2c0-1.9-.8-4.9-4.2-4.9-3.1 0-4.4 2.8-4.6 4.9h8.8zm6.7-14.4h3v24.4h-3V53.9z"/><use xlink:href="#elixir-plain-wordmark-B"/><path d="M97 61.6l2.4 3.6c.7.9 1.2 1.8 1.7 2.7h.1c.5-1 1.1-1.8 1.7-2.7l2.3-3.5h3.3l-5.7 8 5.8 8.6h-3.4l-2.5-3.7c-.7-1-1.2-1.9-1.8-2.9h-.1c-.5 1-1.1 1.9-1.8 2.9l-2.4 3.7h-3.3l5.9-8.5-5.6-8.1H97z"/><use xlink:href="#elixir-plain-wordmark-B" x="23.9"/><path d="M119.6 66.8l-.1-5.2h2.6l.1 3.3h.1c.8-2.2 2.6-3.6 4.6-3.6.3 0 .5 0 .8.1v2.8c-.3-.1-.6-.1-1-.1-2.1 0-3.6 1.6-4.1 3.8-.1.4-.1.9-.1 1.4v8.9h-3V66.8zM38.3 70.7l1.4-.9c3.2-2.7 2.1-7.7-3.4-14.7.1 3.5.7 7.1 1.3 10.9.2 1.5.4 3.1.7 4.7zM7.4 83.9c1.8 7.8 6.4 12 11.7 13.8 2.9.5 5.8.4 8.7-.2.5-.2.9-.5 1.3-.8 1.1-.7 2.1-1.6 3-2.5-3.7-1.6-7.5-4.7-11-8.3-2.7-.2-5.4-.5-7.8-.8-2.2-.2-4.2-.6-5.9-1.2zm-.8-36.8l-.1.8c-.8 4.5-.8 8.6-.2 12.1.6-4.2 1.5-8.6 2.7-12.7.2-.6.3-1.3.6-2h.1c.9-2.9 1.9-5.6 3.1-8.2-2.4 3.1-4.4 6.4-6.2 10zM6.2 90a21 21 0 006.8 5.6C9.8 93 7.3 89 6.2 83.4 4 82.7 2.3 81.6 1 80.2c.9 3.7 2.6 7 5.2 9.8zm-.3-26.8c-1-3.4-1.4-7.2-1-11.6-.6 1.3-1.2 2.7-1.8 4.2C.5 63.2-.7 71 .4 77.8c1.2 1.8 3 3.3 5.5 4.3-.8-4.3-.9-11.3 0-18.9zm1.2 19.3c0 .1 0 .1 0 0 1.8.7 3.9 1.1 6.3 1.4 2 .3 4.2.6 6.4.7-4.6-5.1-8.8-11.2-11.5-16.2-.6-.9-1.1-1.9-1.6-2.9-.6 7-.4 13.2.4 17zm29.3-16.3c-.6-4.3-1.3-8.6-1.3-12.7-7.2-6.7-14.3-13.9-14-25.5-.2.2-.5.3-.6.5-1.3 1.1-2.5 2.3-3.7 3.6-2.6 3.6-4.6 8.3-6.2 13.4-.9 6.6 5.5 19.6 14 29.5 4.1-.2 8.4-1.4 12.6-3.7-.2-1.7-.5-3.4-.8-5.1zm5.7 22.6a17.61 17.61 0 01-4.4-1.5c-.7 2.3-1.9 4.5-3.6 6.5.6.2 1.2.3 1.8.4 2.3-1.4 4.5-3.3 6.2-5.4zM22.3 27.1c-.6 11.1 5.8 18.2 12.7 24.6-6.1-8.1-9.6-12.9-9.6-26.5-1 .5-2 1.2-3.1 1.9zm12 58.3c-3 .5-6.2.6-9.2.6-.8 0-1.7 0-2.5-.1 3.3 3.3 6.8 6 10.3 7.4 1.8-2 3-4.2 3.8-6.6-.8-.4-1.6-.8-2.4-1.3zm-1.3-.9c-1.1-.8-2.2-1.7-3.1-2.5a79.33 79.33 0 01-5.8-5.8c-4 .1-7.8-.9-10.9-2.9a6.42 6.42 0 01-1.3-1c2.6 4.2 6 8.7 9.6 12.5 3.7.2 7.7.1 11.5-.3zm5.4.1c-.1.6-.2 1.1-.4 1.7 1.6.8 3.2 1.4 4.9 1.5 1.4-1.9 2.6-4.1 3.2-6.4-2 1.3-4.7 2.4-7.7 3.2zM13.8 72.3c2.7 1.7 5.9 2.6 9.3 2.7-7-8.3-12.4-18.5-13.5-25.7-1.3 5.1-1.8 8.2-2.5 13.5v.1a42.87 42.87 0 002.1 4.6c1.2 2 2.7 3.6 4.6 4.8zm23.5.2c-3.9 2.1-7.9 3.3-11.8 3.6 1.7 1.8 3.3 3.5 5 5 1.2 1.1 2.6 2.2 4 3.1 1-.2 1.9-.3 2.8-.5.7-3.6.5-7.3 0-11.2zm1.3 10.9c3.2-.9 6-2.1 8-3.8.9-3.9.6-8.2-1.3-12.8-1.7-2.8-3.2-5.2-4.7-7.4 2.7 5 2.7 8.7-.2 11.2l-.1.1c-.6.4-1.3.8-1.9 1.2.5 3.9.7 7.8.2 11.5z"/><defs><path id="elixir-plain-wordmark-B" d="M91 56.9c0 1-.7 1.9-1.9 1.9-1.1 0-1.8-.8-1.8-1.9s.8-1.9 1.9-1.9c1 .1 1.8.9 1.8 1.9zm-3.4 21.3V61.6h3v16.6h-3z"/></defs></svg>