<svg xmlns="http://www.w3.org/2000/svg" viewBox="0 0 128 128"><path d="M90.1 80c.8-.5 1.7-1 2.5-1.5 5.6-4.8 3.6-13.5-5.9-25.7.2 6.1 1.2 12.4 2.2 19.1.4 2.6.8 5.3 1.2 8.1zM36 103.2c3.2 13.7 11.3 21.1 20.5 24.2 5.1.9 10.2.7 15.3-.4.8-.4 1.5-.9 2.2-1.4 2-1.3 3.7-2.8 5.3-4.3-6.5-2.8-13.1-8.2-19.3-14.6-4.8-.3-9.5-.8-13.6-1.4-4-.4-7.4-1.1-10.4-2.1zM34.6 38.7l-.2 1.4c-1.4 7.9-1.5 15-.4 21.2 1.1-7.4 2.6-15 4.7-22.3.3-1.1.6-2.3 1-3.5h.1c1.6-5 3.4-9.8 5.5-14.3-4 5.3-7.5 11.2-10.7 17.5z"/><path d="M33.9 114c3.5 4.4 7.5 7.6 11.9 9.9-5.6-4.6-10-11.5-12-21.4-3.8-1.4-6.8-3.3-9.1-5.7 1.6 6.4 4.6 12.3 9.2 17.2zM33.3 67c-1.8-5.9-2.4-12.7-1.8-20.4-1.1 2.3-2.1 4.8-3.2 7.3-4.5 13.1-6.5 26.7-4.6 38.7 2.1 3.2 5.2 5.8 9.6 7.6-1.4-7.7-1.5-19.9 0-33.2zM35.5 100.8c0 .1 0 .1 0 0 3.2 1.2 6.8 2 11.1 2.5 3.5.6 7.3 1 11.3 1.3-8.3-9.1-15.6-19.8-20.3-28.6-1.1-1.6-2-3.3-2.8-5-1.1 12.2-.8 23.1.7 29.8zM86.9 72.1c-1.1-7.5-2.3-15.1-2.3-22.3C71.9 38 59.6 25.4 60.1 5.1c-.4.3-.8.6-1.1.9-2.2 1.9-4.4 4-6.5 6.3-4.5 6.4-8.1 14.6-10.9 23.5-1.6 11.6 9.6 34.3 24.5 51.7 7.2-.3 14.8-2.5 22.1-6.5-.4-2.9-.8-5.9-1.3-8.9zM96.9 111.8c-2.6-.5-5.2-1.4-7.8-2.6-1.3 4.1-3.4 7.9-6.4 11.4 1.1.3 2.1.6 3.1.7 4.2-2.5 8-5.8 11.1-9.5z"/><path d="M62.1 3.6C61 23.1 72.2 35.5 84.4 46.8 73.7 32.6 67.5 24.1 67.5.3c-1.7.9-3.5 2-5.4 3.3zM83.2 105.8c-5.3.8-10.8 1.1-16.2 1.1-1.4 0-2.9 0-4.3-.1 5.8 5.8 12 10.6 18 13 3.2-3.5 5.3-7.4 6.6-11.6-1.4-.7-2.8-1.5-4.1-2.4zM80.8 104.2c-2-1.4-3.8-2.9-5.5-4.4-3.5-3.1-6.9-6.5-10.1-10.2-7.1.1-13.7-1.6-19.1-5.1-.8-.5-1.6-1.1-2.3-1.7 4.6 7.3 10.5 15.3 16.9 22 6.5.3 13.5.2 20.1-.6zM90.4 104.4c-.2 1-.4 1.9-.7 2.9 2.8 1.4 5.7 2.4 8.6 2.7 2.5-3.4 4.5-7.2 5.7-11.3-3.7 2.5-8.4 4.4-13.6 5.7z"/><path d="M47.2 82.8c4.7 3 10.3 4.6 16.3 4.8-12.3-14.6-21.8-32.4-23.7-45-2.3 8.9-3.1 14.4-4.4 23.6v.2c.9 2.3 2.1 5.1 3.7 8.1 2.1 3.4 4.8 6.2 8.1 8.3zM88.5 83.2c-6.8 3.7-13.9 5.8-20.7 6.3 2.9 3.2 5.8 6.2 8.8 8.8 2.1 1.9 4.5 3.8 7.1 5.5 1.7-.3 3.3-.6 4.9-.9 1-6.3.7-12.9-.1-19.7zM90.7 102.3c5.6-1.5 10.5-3.6 14.1-6.6 1.5-6.9 1-14.4-2.3-22.4-2.9-4.9-5.7-9.2-8.3-13 4.8 8.8 4.7 15.2-.4 19.6l-.1.1c-1.1.7-2.2 1.4-3.4 2.1.9 6.9 1.3 13.8.4 20.2z"/></svg>