<svg xmlns="http://www.w3.org/2000/svg" viewBox="0 0 128 128"><path fill="#782a90" d="M71.342 46.463v4.676h9.592v26.425h3.386v-.232c0-1.408.397-2.735 1.05-3.88V51.138h9.122v-4.676h-23.15zm-21.512.002v31.1h4.443V51.14h6.805c3.764 0 5.611 2.598 5.611 5.238 0 2.689-1.847 5.285-5.61 5.285H55.91v2.246l11.225 13.654h5.773l-9.752-11.691c5.29-.936 7.975-5.146 7.975-9.516v-.002c0-4.91-3.367-9.89-10.074-9.89H49.83zM0 46.695l12.416 30.87h3.252l12.412-30.87h-4.767L14.05 69.801 4.863 46.695H0zm96.29 0c2.83 3.746 7.86 10.949 11.18 15.506l-8.656 11.903a7.44 7.44 0 0 1 .729 3.228v.232h6.172l22.262-30.869h-9.354l-6.43 8.844-6.455-8.844H96.29zm-67.27.002v30.867h18.705v-4.677H33.46v-8.655h14.031v-4.437h-14.03V51.14h14.264v-4.444H29.02zm90.421 19.059-4.699 6.525 3.858 5.283h9.4c-2.243-3.205-5.614-7.784-8.559-11.808zM91.92 73.12a4.224 4.224 0 0 0-4.211 4.211 4.223 4.223 0 0 0 4.21 4.205 4.223 4.223 0 0 0 4.212-4.205 4.224 4.224 0 0 0-4.211-4.21z"/></svg>
