<svg width="128" height="128" viewBox="0 0 128 128" xmlns="http://www.w3.org/2000/svg">
  <path style="fill:#002835;fill-opacity:1;fill-rule:nonzero;stroke:none" d="M21.398 34.16 13.54 14.398H9.38L20 40.801h2.781l10.617-26.403H29.32zM34.2 40.8h16v-4H38v-7.402h12v-3.796H38v-7.403h12.2v-3.8h-16zm36.019-18.14c0-4.2-2.88-8.46-8.617-8.46H52v26.6h3.8V18.2h5.821c3.219 0 4.8 2.222 4.8 4.48 0 2.3-1.581 4.52-4.8 4.52H57.2v1.921l9.602 11.68h4.937l-8.34-10c4.524-.801 6.82-4.403 6.82-8.14M81.5 40.8v-.198c0-1.204.34-2.34.898-3.32V18.198H90.2v-4H70.4v4h8.203V40.8zm0 0" transform="translate(-8.394 26.094) scale(1.13425)"/>
  <path style="fill:#613a94;fill-opacity:1;fill-rule:nonzero;stroke:none" d="M91.602 40.602A3.613 3.613 0 0 0 88 37a3.613 3.613 0 0 0-3.602 3.602A3.612 3.612 0 0 0 88 44.199a3.612 3.612 0 0 0 3.602-3.597m23.878-26.204h-4.64l-5.5 7.563-5.52-7.563h-8.082c2.422 3.204 6.723 9.364 9.563 13.262l-7.403 10.18c.403.84.622 1.781.622 2.762v.199h5.28l19.04-26.403ZM111.54 30.7l-4.02 5.581 3.3 4.52h8.04c-1.919-2.742-4.801-6.66-7.32-10.102zm0 0" transform="translate(-8.394 26.094) scale(1.13425)"/>
</svg>
