<svg viewBox="0 0 128 128" xmlns="http://www.w3.org/2000/svg"><path d="M11.347 1.493c-4.16 1.28-8.963 5.92-10.322 9.92-.479 1.521-.878 5.361-.878 8.56v5.922h16.879l1.441 3.359c.801 1.918 4.239 9.758 7.68 17.437 3.36 7.68 7.04 16.32 8.16 19.122l2.078 5.12 4.082-8.718c2.32-4.8 6.801-14.723 10.078-22.082l6-13.36 12.082-.082h12.08l7.043 10.403c3.918 5.758 7.359 10.16 7.597 9.84.32-.403 3.52-5.04 7.2-10.48l6.64-9.763h18.96v-5.84c0-3.117-.398-7.199-.879-8.956-1.2-4.403-6.64-9.524-11.36-10.641-5.761-1.521-99.761-1.201-104.561.238zm0 0" fill="#613a94"/><path d="M.147 74.133c0 34.879.16 41.039 1.2 43.601 1.6 3.758 4 6.239 8 8.399 3.198 1.762 3.519 1.762 54.402 1.762h51.198l4-2c2.48-1.282 4.879-3.282 6.398-5.442 2.16-3.12 2.403-4.16 2.64-11.36l.321-8-10.64-.081h-10.719l-4.081-6.16-4.078-6.16 5.28-7.758c2.88-4.243 5.52-7.68 5.84-7.602.317.082 1.759 1.84 3.2 3.922 1.437 2 5.36 7.437 8.64 11.918l6 8.242.239-16.16c.082-8.961.082-23.281 0-31.922l-.238-15.598-6.082 8.637c-3.282 4.8-14.08 20.082-23.84 33.922l-17.84 25.2h-3.68c-3.601 0-3.762-.079-4.238-2.802-.723-3.918-1.844-6.476-3.922-8.636-2-2.082-2.559-.883 7.36-14.801 5.359-7.36 7.68-11.281 7.28-12.082-2.8-4.719-14.242-19.598-14.718-19.117-.242.316-4.64 9.758-9.762 20.879-7.68 17.039-9.52 20.48-11.441 21.52-4.719 2.398-7.598 6.558-8.64 12.398-.56 2.96-.638 3.043-4 3.043-3.438 0-3.52-.082-5.278-4.243-.961-2.238-2.64-6-3.602-8.16-3.68-8-20.238-45.758-22-50-1.039-2.398-2.159-4.719-2.558-5.199-.321-.398-.641 17.52-.641 39.84zm60.879 18.398c1.441.962 3.121 2.723 3.68 3.762 1.601 3.2 1.28 8.238-.72 10.879-2.237 2.96-2.878 3.36-6.16 4.242-3.84 1.117-7.038.238-10.077-2.8-4.48-4.481-4.16-11.04.878-15.442 3.52-3.117 8.32-3.36 12.399-.64zm0 0" fill="#613a94"/></svg>
