<svg xmlns="http://www.w3.org/2000/svg" viewBox="0 0 128 128"><path fill="#2453FF" d="M79.04 33.662c-.428 0-.743.256-1.006.558s-.493.694-.713 1.161c-.44.934-.825 2.17-1.083 3.514l-.002.006-1.411 8.263v.004c-.443 2.88 1.631 5.402 4.618 5.402h8.152c.492 0 .95-.115 1.424-.186-.416.75-1.052 1.306-2.027 1.306H75.517c-1.5 0-2.681-1.43-2.429-2.944l-.002.002 1.208-6.944v-.002c.351-2.108-1.281-4.1-3.405-4.1H14.023c-1.4 0-2.597.84-3.17 2.102l.034-.066L.222 58.14v.002l-.002.002c-.141.214-.24.48-.217.765.024.288.173.552.382.762l1.998 2.399.016.016c.457.457 1.16.48 1.632.164l.017-.011 6.46-5.113v33.696a3.487 3.487 0 0 0 3.515 3.516h16.103a3.487 3.487 0 0 0 3.516-3.516V78.744c0-1.457 1.065-2.523 2.523-2.523h40.156c1.458 0 2.523 1.065 2.523 2.523v12.078a3.487 3.487 0 0 0 3.516 3.516h16.103a3.487 3.487 0 0 0 3.516-3.516v-13.48h-9.051c-2.337 0-4.434-1.999-4.434-4.435v-8.353c0-.973.397-1.806.918-2.538v8.575c0 2.897 2.43 5.429 5.429 5.429h13.184c2.897 0 5.429-2.43 5.429-5.429V45.314c-.11-3.069-2.543-5.512-5.53-5.512H81.046v-.713c0-1.353-.178-2.622-.475-3.591-.148-.485-.322-.895-.548-1.22-.226-.324-.544-.616-.983-.616Zm44.687.1c-.429 0-.75.278-.979.596-.228.318-.403.722-.552 1.201-.297.96-.475 2.23-.475 3.632v2.214c0 2.337-2 4.436-4.436 4.436h-3.112v6.93h9.087c3.05-.218 5.123-2.626 4.68-5.504v-.004l-1.408-8.25-.003-.006c-.208-1.352-.593-2.595-1.048-3.531-.227-.469-.47-.86-.74-1.16-.27-.302-.585-.553-1.014-.553zm-44.687.892c-.036 0 .036 0 .169.19.132.191.284.524.412.944.258.841.433 2.037.433 3.3v2.508l.8-.8c.019 0 .03-.002.099-.002h26.971c2.448 0 4.446 1.986 4.537 4.554v25.243c0 2.436-2.099 4.436-4.436 4.436H94.841c-2.436 0-4.436-2.099-4.436-4.436v-11.01l-.81.663c-1.212.991-2.093 2.535-2.093 4.31v8.353c0 3 2.53 5.427 5.426 5.427h8.058v12.488c0 1.458-1.065 2.524-2.523 2.524H82.36c-1.458 0-2.523-1.066-2.523-2.524V78.744a3.487 3.487 0 0 0-3.516-3.515H36.165a3.487 3.487 0 0 0-3.516 3.515v12.078c0 1.458-1.065 2.524-2.523 2.524H14.023c-1.458 0-2.523-1.066-2.523-2.524V55.073l-8.024 6.351c-.129.085-.23.102-.374-.04H3.1l-1.998-2.398-.015-.017c-.093-.093-.094-.127-.095-.142-.002-.014-.002-.05.056-.137l.002-.002 10.69-16.44.016-.035c.432-.952 1.252-1.52 2.267-1.52H70.89c1.499 0 2.679 1.431 2.426 2.946l.002-.004-1.207 6.944v.002c-.352 2.109 1.283 4.1 3.407 4.1h11.475c1.73 0 3.057-1.2 3.401-2.805l.175-.808-.795.226a8.118 8.118 0 0 1-2.178.283h-8.152c-2.448 0-4-1.904-3.637-4.258l1.405-8.236v-.002l.002-.008c.245-1.27.617-2.445 1.006-3.27.195-.413.397-.737.566-.932.168-.194.281-.217.255-.217zm44.687.101c-.026 0 .1.027.275.223.176.196.388.52.588.932.4.823.767 1.993.96 3.254v.004l1.41 8.25c.362 2.354-1.182 4.173-3.764 4.36h-8.031v-4.945h2.12c3 0 5.429-2.532 5.429-5.428V39.19c0-1.315.174-2.512.43-3.339.128-.413.28-.733.41-.915.131-.182.2-.182.173-.182z" /></svg>
