<svg xmlns="http://www.w3.org/2000/svg" viewBox="0 0 128 128"><path fill="#2453FF" d="M79.156 33.926c-.811 0-1.826 2.23-2.334 4.868l-1.42 8.319c-.406 2.637 1.422 4.867 4.16 4.867h8.216c.811 0 1.621-.1 2.331-.303-.304 1.42-1.418 2.433-2.94 2.433H75.607c-1.826 0-3.246-1.725-2.942-3.55l1.217-6.998c.304-1.825-1.115-3.55-2.94-3.55H13.633c-1.218 0-2.233.71-2.74 1.825L.142 58.37c-.203.304-.204.609.1.913l2.03 2.433a.78.78 0 0 0 1.014.103l7.304-5.783V91.03c0 1.724 1.318 3.042 3.043 3.042H29.86c1.725 0 3.043-1.318 3.043-3.042V78.858c0-1.724 1.319-3.043 3.043-3.043h40.47c1.724 0 3.042 1.319 3.042 3.043V91.03c0 1.724 1.319 3.043 3.043 3.043H98.73c1.724 0 3.043-1.319 3.043-3.043V77.946h-8.622c-2.637 0-4.968-2.23-4.968-4.969v-8.42c0-1.622.81-3.043 1.925-3.955v10.042c0 2.637 2.232 4.97 4.97 4.97h13.288c2.637 0 4.97-2.232 4.97-4.97v-25.46c-.101-2.84-2.333-5.07-5.071-5.07H81.084c-.203 0-.305-.001-.406.1v-1.319c0-2.637-.71-4.968-1.522-4.968zm45.036.101c-.812 0-1.522 2.232-1.522 4.971v2.23c0 2.638-2.232 4.971-4.97 4.971h-2.637v5.985h8.621c2.84-.203 4.665-2.333 4.26-4.97l-1.42-8.319c-.406-2.637-1.52-4.867-2.332-4.867z"/></svg>
