<svg xmlns="http://www.w3.org/2000/svg" viewBox="0 0 128 128"><path d="M1.1 75H10c4.2 0 7 2 7 6 0 3.2-2.2 5.2-4.3 5.8.6.5 1.1 1.3 1.5 2 .9 1.8 1.5 3.8 3.4 3.8.5 0 .9-.2.9-.2l-.5 3.9s-1.1.3-2.1.3c-2.5 0-4-1-5.5-4.4-.7-1.5-1.6-4.2-2.7-4.2H6.4v8.5H1.1V75zm5.3 3.9v5.3h1.9c1.5 0 3.3-.5 3.3-2.8 0-1.9-1.2-2.5-2.7-2.5H6.4zM24.2 75h5.4l7.3 21.5h-5.4l-1.3-4.1H23l-1.3 4.1H17L24.2 75zm0 13.5h4.6L27.4 84c-.5-1.5-.7-3.7-.7-3.7h-.1s-.3 2.2-.8 3.7l-1.6 4.5zm12.9 8h4.4V86.2c0-1.2-.2-2.6-.3-3.8h.1c.4 1.1 1 2.5 1.6 3.5l5.9 10.6h5.6V75H50v10.3c0 1.2.2 3 .2 4.2h-.1c-.5-1.3-1.1-2.9-1.6-3.8L42.8 75h-5.7v21.5zm18.4-10.9c0 7.8 3.8 11.3 9.6 11.3 5.7 0 8.9-3.2 8.5-7.6l-4.7-.5c.4 2.8-1.4 4.2-3.6 4.2-2.3 0-4.3-1.5-4.3-7.3 0-5.5 1.9-7.3 4.2-7.3 2.4 0 3.8 1.4 3.2 4.8l5-.4c.7-4.7-1.8-8.1-8.1-8.1-6-.1-9.8 3.2-9.8 10.9m19.2 10.9H80v-9.1h6.5v9.1h5.3V75h-5.3v8.1H80V75h-5.3v21.5zm19.3 0h14.6v-4h-9.2v-5h7.5v-4h-7.5V79h8.9v-4H94v21.5zM109.6 75h8.9c4.2 0 7 2 7 6 0 3.2-2.2 5.2-4.3 5.8.6.5 1.1 1.3 1.5 2 .9 1.8 1.5 3.8 3.4 3.8.5 0 .9-.2.9-.2l-.4 3.8s-1.1.3-2.1.3c-2.5 0-4-1-5.5-4.4-.6-1.5-1.5-4.2-2.7-4.2h-1.2v8.5h-5.3l-.2-21.4zm5.3 3.9v5.3h1.9c1.5 0 3.3-.5 3.3-2.8 0-1.9-1.2-2.5-2.7-2.5h-2.5z"/><g fill="#2453FF"><path d="M102.6 39.1l-.8-5c-.3-1.6-.9-2.9-1.4-2.9-.5 0-.9 1.3-.9 3v1.3c0 1.6-1.3 3-3 3h-1.6V42h5.2c1.6 0 2.7-1.3 2.5-2.9M90.7 34.8H74V34c0-1.6-.4-3-.9-3s-1.1 1.3-1.4 2.9l-.8 5c-.3 1.6.9 2.9 2.5 2.9h4.9c.5 0 1-.1 1.4-.2-.2.9-.9 1.5-1.8 1.5H71c-1.1 0-2-1-1.8-2.1l.7-4.2c.2-1.1-.7-2.1-1.8-2.1H33.6c-.7 0-1.4.4-1.7 1.1l-6.5 9.9c-.1.2-.1.4 0 .5l1.3 1.5c.2.2.4.2.6.1l4.4-3.5v21.1c0 1 .8 1.8 1.8 1.8h9.8c1 0 1.8-.8 1.8-1.8V58c0-1 .8-1.8 1.8-1.8h24.4c1 0 1.8.8 1.8 1.8v7.4c0 1 .8 1.8 1.8 1.8h9.8c1 0 1.8-.8 1.8-1.8v-7.9h-5.2c-1.6 0-3-1.3-3-3v-5.1c0-1 .5-1.8 1.2-2.4v6.1c0 1.6 1.3 3 3 3h8c1.6 0 3-1.3 3-3V37.8c.2-1.6-1.2-3-2.8-3"/></g></svg>
