<?xml version="1.0" encoding="UTF-8"?>
<svg xmlns="http://www.w3.org/2000/svg" xmlns:xlink="http://www.w3.org/1999/xlink" width="128px" height="128px" viewBox="0 0 128 128" version="1.1">
<g id="surface1">
<path style=" stroke:none;fill-rule:evenodd;fill:rgb(100%,100%,100%);fill-opacity:1;" d="M 64.640625 68.667969 C 64.542969 67.90625 64.746094 67.140625 64.523438 66.425781 C 64.34375 65.800781 63.914062 65.742188 63.636719 65.234375 C 62.90625 63.902344 62.152344 62.171875 62.082031 60.542969 C 62.019531 59.070312 61.507812 57.746094 61.4375 56.292969 C 61.410156 55.589844 61.484375 54.867188 61.464844 54.175781 C 61.445312 53.835938 61.429688 53.539062 61.367188 53.171875 L 61.269531 52.5625 L 61.4375 52.105469 C 61.367188 51.953125 62.90625 52.003906 63.363281 52.003906 L 65.644531 52.101562 C 67.226562 52.179688 68.664062 52.160156 70.214844 51.910156 C 73.648438 51.339844 75.230469 49.84375 76.039062 49.226562 C 79.195312 46.796875 80.644531 42.828125 80.644531 42.828125 C 81.164062 41.59375 81.15625 39.382812 82.273438 38.390625 C 83.589844 37.21875 85.796875 37.304688 87.308594 36.585938 C 88.195312 36.171875 88.828125 35.941406 89.734375 36.144531 C 90.402344 36.289062 91.613281 37.113281 91.890625 35.957031 C 91.664062 35.800781 91.574219 35.515625 91.460938 35.363281 C 92.703125 35.230469 91.480469 32.148438 90.984375 31.535156 C 90.226562 30.585938 88.953125 30.152344 87.605469 29.769531 C 86.003906 29.316406 84.546875 28.792969 83.035156 29.113281 C 80.402344 29.660156 80.601562 28.054688 79.042969 28.054688 C 77.171875 28.054688 73.863281 28.148438 73.28125 30.082031 C 73.023438 30.988281 72.746094 31.023438 72.28125 31.71875 C 71.886719 32.308594 72.351562 32.832031 72.15625 33.511719 C 71.949219 34.207031 71.644531 36.65625 71.332031 37.511719 C 70.792969 38.957031 70.160156 40.761719 68.996094 40.761719 C 67.351562 40.976562 66.0625 41.039062 64.730469 40.527344 C 63.933594 40.214844 62.59375 39.726562 61.921875 39.433594 C 58.863281 38.054688 58.359375 36.550781 58.359375 36.550781 C 58.03125 35.976562 57.160156 35.039062 56.839844 33.820312 C 56.480469 32.480469 55.882812 31.359375 55.640625 30.664062 C 55.390625 29.9375 54.78125 28.785156 54.308594 27.523438 C 53.707031 25.921875 52.847656 24.726562 52.230469 24.128906 C 51.273438 23.21875 50.390625 21.820312 48.457031 22.226562 C 48.109375 22.300781 46.855469 22.359375 45.890625 23.222656 C 45.238281 23.8125 45.03125 25.015625 44.421875 26.03125 C 44.074219 26.617188 43.457031 28.304688 42.894531 29.714844 C 42.507812 30.6875 42.320312 31.421875 41.898438 31.777344 C 41.570312 32.058594 41.15625 32.421875 40.664062 32.226562 C 40.363281 32.101562 40.03125 31.894531 39.699219 31.617188 C 39.242188 31.246094 38.230469 29.398438 37.605469 28.035156 C 37.058594 26.851562 35.90625 25.082031 35.234375 24.125 C 34.277344 22.746094 33.714844 22.398438 32.28125 22.398438 C 29.230469 22.398438 29 24.21875 27.65625 26.871094 C 27.066406 28.035156 26.851562 29.878906 25.671875 31.332031 C 24.992188 32.160156 22.835938 35.566406 21.332031 36.144531 L 21.332031 36.128906 L 21.332031 60.304688 C 21.433594 59.980469 21.539062 59.683594 21.65625 59.410156 C 22.238281 58.089844 23.578125 56.867188 24.332031 55.511719 C 24.734375 54.773438 25.199219 54.050781 25.464844 53.277344 C 25.699219 52.609375 25.816406 51.613281 26.15625 51.035156 C 26.566406 50.324219 27.203125 50.082031 27.863281 49.96875 C 28.902344 49.785156 29.777344 51.550781 31.101562 52.203125 C 31.664062 52.480469 34.261719 53.457031 35.039062 53.660156 C 36.328125 53.984375 37.75 54.257812 39.046875 54.542969 C 39.742188 54.695312 40.414062 54.78125 41.128906 54.855469 C 41.773438 54.929688 44.191406 55.015625 44.339844 55.199219 C 43.117188 55.863281 42.390625 57.738281 41.9375 59.0625 C 41.453125 60.445312 41.121094 61.980469 40.539062 63.335938 C 39.894531 64.828125 38.546875 65.449219 38.707031 67.1875 C 38.769531 67.878906 38.886719 68.609375 38.777344 69.375 C 38.660156 70.179688 38.355469 70.804688 38.132812 71.589844 C 37.847656 72.621094 37.507812 75.9375 37.070312 76.914062 L 39.761719 76.550781 C 40.058594 75.808594 40.324219 72.667969 40.425781 72.371094 C 40.925781 70.800781 41.585938 69.503906 42.617188 68.285156 C 43.617188 67.097656 43.5625 65.574219 44.144531 64.191406 C 44.78125 62.6875 45.628906 61.484375 46.425781 60.074219 C 47.875 57.523438 48.832031 54.296875 51.917969 53.640625 C 52.25 53.570312 54.128906 55.023438 54.96875 55.882812 C 55.925781 56.863281 56.972656 58.003906 57.609375 59.359375 C 58.824219 61.988281 59.863281 65.792969 60.246094 67.890625 C 60.480469 69.089844 60.660156 69.164062 61.421875 70.121094 C 61.769531 70.554688 62.476562 71.925781 62.707031 72.449219 C 62.949219 73.007812 63.316406 74.28125 63.613281 74.933594 C 63.78125 75.320312 64.226562 76.511719 64.558594 77.539062 L 67.0625 77.453125 C 67.074219 77.476562 67.117188 77.449219 67.136719 77.472656 C 67.125 77.449219 67.117188 77.425781 67.109375 77.402344 C 65.855469 74.730469 65.0625 71.632812 64.640625 68.667969 Z M 64.640625 68.667969 "/>
<path style=" stroke:none;fill-rule:evenodd;fill:rgb(28.235294%,26.666667%,26.666667%);fill-opacity:1;" d="M 62.894531 52.925781 L 64.015625 52.503906 C 62.894531 51.472656 62.320312 51.234375 62.894531 52.925781 Z M 62.894531 52.925781 "/>
<path style=" stroke:none;fill-rule:evenodd;fill:rgb(94.901961%,56.862745%,0%);fill-opacity:1;" d="M 62.894531 52.925781 L 64.015625 52.503906 C 62.894531 51.472656 62.320312 51.234375 62.894531 52.925781 Z M 62.894531 52.925781 "/>
<path style=" stroke:none;fill-rule:evenodd;fill:rgb(94.901961%,56.862745%,0%);fill-opacity:1;" d="M 64.3125 74.492188 C 63.996094 73.832031 63.601562 72.542969 63.34375 71.976562 C 63.09375 71.445312 62.332031 70.058594 61.957031 69.617188 C 61.136719 68.648438 60.945312 68.574219 60.699219 67.359375 C 60.28125 65.230469 59.167969 61.375 57.859375 58.714844 C 57.175781 57.339844 56.050781 56.1875 55.019531 55.191406 C 54.117188 54.324219 52.097656 52.847656 51.738281 52.925781 C 48.421875 53.585938 47.390625 56.855469 45.832031 59.4375 C 44.976562 60.867188 44.0625 62.085938 43.378906 63.609375 C 42.753906 65.007812 42.8125 66.554688 41.734375 67.757812 C 40.628906 68.992188 39.917969 70.304688 39.378906 71.898438 C 39.273438 72.199219 38.984375 75.378906 38.667969 76.132812 L 43.59375 75.789062 C 48.179688 76.101562 46.851562 77.867188 54.019531 77.484375 L 65.332031 77.132812 C 64.976562 76.089844 64.496094 74.886719 64.3125 74.492188 Z M 64.3125 74.492188 "/>
<path style=" stroke:none;fill-rule:evenodd;fill:rgb(94.901961%,56.862745%,0%);fill-opacity:1;" d="M 93.585938 0 L 31.738281 0 C 25.996094 0 21.332031 5.097656 21.332031 11.390625 L 21.332031 36.238281 C 22.816406 35.652344 24.964844 32.183594 25.628906 31.339844 C 26.8125 29.867188 27.023438 27.984375 27.609375 26.800781 C 28.941406 24.105469 29.171875 22.246094 32.203125 22.246094 C 33.613281 22.246094 34.171875 22.605469 35.132812 24.007812 C 35.789062 24.976562 36.941406 26.78125 37.476562 27.984375 C 38.097656 29.371094 39.109375 31.257812 39.554688 31.636719 C 39.882812 31.917969 40.210938 32.125 40.511719 32.253906 C 41 32.457031 41.410156 32.082031 41.738281 31.796875 C 42.15625 31.429688 42.339844 30.6875 42.730469 29.695312 C 43.292969 28.261719 43.894531 26.546875 44.242188 25.945312 C 44.84375 24.910156 45.050781 23.683594 45.699219 23.085938 C 46.65625 22.210938 47.910156 22.148438 48.246094 22.078125 C 50.171875 21.65625 51.042969 23.085938 51.992188 24.011719 C 52.613281 24.617188 53.457031 25.832031 54.0625 27.46875 C 54.523438 28.742188 55.128906 29.921875 55.375 30.660156 C 55.617188 31.375 56.21875 32.507812 56.566406 33.878906 C 56.894531 35.117188 57.746094 36.066406 58.074219 36.660156 C 58.074219 36.660156 58.574219 38.191406 61.617188 39.585938 C 62.277344 39.894531 63.609375 40.382812 64.40625 40.703125 C 65.722656 41.226562 67 41.160156 68.632812 40.949219 C 69.796875 40.949219 70.425781 39.109375 70.949219 37.636719 C 71.261719 36.761719 71.5625 34.265625 71.769531 33.558594 C 71.960938 32.867188 71.5 32.339844 71.890625 31.734375 C 72.355469 31.027344 72.628906 30.988281 72.894531 30.070312 C 73.464844 28.105469 76.757812 28.003906 78.605469 28.003906 C 80.160156 28.003906 79.953125 29.640625 82.574219 29.082031 C 84.074219 28.761719 85.511719 29.292969 87.113281 29.75 C 88.445312 30.144531 89.703125 30.585938 90.457031 31.554688 C 90.957031 32.179688 92.164062 35.316406 90.929688 35.445312 C 91.046875 35.605469 91.132812 35.894531 91.355469 36.046875 C 91.082031 37.234375 89.882812 36.386719 89.214844 36.238281 C 88.320312 36.035156 87.6875 36.265625 86.808594 36.695312 C 85.316406 37.421875 83.125 37.335938 81.820312 38.527344 C 80.710938 39.535156 80.710938 41.785156 80.195312 43.050781 C 80.195312 43.050781 78.757812 47.085938 75.621094 49.554688 C 74.824219 50.191406 73.25 51.710938 69.839844 52.289062 C 68.3125 52.546875 66.875 52.570312 65.304688 52.484375 L 63.039062 52.390625 C 62.585938 52.386719 61.058594 52.332031 61.140625 52.492188 L 60.96875 52.953125 C 60.996094 53.109375 61.050781 53.488281 61.066406 53.582031 C 61.128906 53.953125 61.148438 54.25 61.15625 54.59375 C 61.183594 55.304688 61.105469 56.042969 61.140625 56.753906 C 61.203125 58.230469 61.707031 59.582031 61.769531 61.074219 C 61.839844 62.742188 62.597656 64.5 63.324219 65.859375 C 63.597656 66.371094 64.015625 66.429688 64.203125 67.066406 C 64.414062 67.800781 64.210938 68.574219 64.320312 69.347656 C 64.726562 72.363281 65.515625 75.515625 66.761719 78.238281 C 66.769531 78.261719 66.777344 78.28125 66.785156 78.304688 C 68.324219 78.023438 69.859375 77.421875 71.847656 77.097656 C 75.507812 76.503906 80.585938 76.8125 83.84375 76.476562 C 92.101562 75.632812 96.585938 80.179688 104 78.316406 L 104 11.390625 C 104 5.097656 99.339844 0 93.585938 0 Z M 62.730469 53.464844 C 62.71875 53.328125 62.730469 53.34375 62.746094 53.429688 Z M 62.730469 53.464844 "/>
<path style=" stroke:none;fill-rule:evenodd;fill:rgb(94.901961%,56.862745%,0%);fill-opacity:1;" d="M 40.253906 63.667969 C 40.828125 62.332031 41.152344 60.8125 41.628906 59.453125 C 42.085938 58.144531 42.792969 56.292969 44 55.632812 C 43.851562 55.449219 41.480469 55.367188 40.84375 55.300781 L 38.789062 54.988281 L 34.832031 54.117188 C 34.0625 53.921875 31.507812 52.953125 30.953125 52.679688 C 29.648438 52.035156 28.78125 50.296875 27.761719 50.472656 C 27.117188 50.585938 26.472656 50.820312 26.074219 51.523438 C 25.742188 52.097656 25.636719 53.078125 25.40625 53.738281 C 25.140625 54.503906 24.683594 55.214844 24.277344 55.945312 C 23.546875 57.28125 22.214844 58.492188 21.640625 59.792969 C 21.527344 60.058594 21.421875 60.363281 21.332031 60.671875 L 21.332031 75.558594 L 23.476562 76.054688 C 29.242188 77.695312 30.652344 77.839844 36.304688 77.144531 L 36.839844 77.070312 C 37.273438 76.109375 37.609375 72.832031 37.882812 71.820312 C 38.101562 71.039062 38.402344 70.421875 38.515625 69.628906 C 38.621094 68.875 38.507812 68.152344 38.445312 67.472656 C 38.285156 65.753906 39.617188 65.140625 40.253906 63.667969 Z M 40.253906 63.667969 "/>
<path style=" stroke:none;fill-rule:evenodd;fill:rgb(28.235294%,26.666667%,26.666667%);fill-opacity:1;" d="M 14.851562 126.765625 C 12.839844 126.765625 11.011719 126.238281 9.351562 125.1875 C 7.691406 124.128906 6.269531 122.617188 5.082031 120.640625 C 3.894531 118.664062 2.976562 116.265625 2.320312 113.429688 C 1.664062 110.601562 1.332031 107.394531 1.332031 103.804688 C 1.332031 100.214844 1.664062 97.019531 2.320312 94.214844 C 2.980469 91.410156 3.894531 89.054688 5.082031 87.148438 C 6.269531 85.238281 7.691406 83.78125 9.351562 82.773438 C 11.011719 81.761719 12.839844 81.253906 14.851562 81.253906 C 16.863281 81.253906 18.691406 81.761719 20.351562 82.773438 C 22.011719 83.78125 23.433594 85.246094 24.621094 87.179688 C 25.808594 89.113281 26.730469 91.480469 27.386719 94.28125 C 28.039062 97.082031 28.371094 100.261719 28.371094 103.804688 C 28.371094 107.394531 28.046875 110.605469 27.386719 113.429688 C 26.730469 116.261719 25.808594 118.664062 24.621094 120.644531 C 23.433594 122.621094 22.011719 124.128906 20.351562 125.1875 C 18.699219 126.238281 16.863281 126.765625 14.851562 126.765625 Z M 14.851562 118.21875 C 16.890625 118.21875 18.503906 116.925781 19.691406 114.34375 C 20.878906 111.765625 21.476562 108.253906 21.476562 103.808594 C 21.476562 99.414062 20.878906 95.980469 19.691406 93.511719 C 18.503906 91.046875 16.890625 89.808594 14.851562 89.808594 C 12.816406 89.808594 11.199219 91.046875 10.011719 93.511719 C 8.824219 95.980469 8.234375 99.414062 8.234375 103.808594 C 8.234375 108.253906 8.824219 111.765625 10.011719 114.34375 C 11.199219 116.925781 12.816406 118.214844 14.851562 118.214844 Z M 30.738281 104.28125 C 30.738281 100.648438 31.121094 97.40625 31.878906 94.554688 C 32.644531 91.707031 33.671875 89.292969 34.960938 87.320312 C 36.238281 85.359375 37.785156 83.824219 39.488281 82.808594 C 41.207031 81.777344 43.023438 81.261719 44.945312 81.261719 C 46.800781 81.261719 48.480469 81.832031 49.984375 82.980469 C 51.496094 84.128906 52.75 85.453125 53.753906 86.984375 L 50.058594 93.117188 C 49.289062 92.089844 48.523438 91.28125 47.746094 90.695312 C 46.976562 90.113281 46.074219 89.820312 45.035156 89.820312 C 43.996094 89.820312 43.03125 90.144531 42.136719 90.796875 C 41.234375 91.441406 40.457031 92.375 39.78125 93.589844 C 39.113281 94.800781 38.589844 96.28125 38.210938 98.03125 C 37.828125 99.78125 37.640625 101.757812 37.640625 103.953125 C 37.640625 108.484375 38.296875 112 39.601562 114.488281 C 40.910156 116.980469 42.660156 118.226562 44.855469 118.226562 C 46.074219 118.226562 47.136719 117.871094 48.050781 117.148438 C 48.964844 116.429688 49.785156 115.488281 50.515625 114.320312 L 54.214844 120.3125 C 52.96875 122.464844 51.542969 124.082031 49.945312 125.152344 C 48.351562 126.222656 46.617188 126.769531 44.765625 126.769531 C 42.847656 126.769531 41.035156 126.285156 39.328125 125.320312 C 37.648438 124.378906 36.121094 122.917969 34.851562 121.046875 C 33.574219 119.15625 32.566406 116.8125 31.839844 114.011719 C 31.109375 111.203125 30.746094 107.960938 30.746094 104.28125 Z M 56.445312 116.667969 C 56.445312 113.167969 57.445312 110.429688 59.457031 108.457031 C 61.464844 106.484375 64.710938 105.15625 69.179688 104.484375 C 69.121094 103 68.816406 101.824219 68.265625 100.949219 C 67.71875 100.074219 66.839844 99.640625 65.617188 99.640625 C 64.644531 99.640625 63.671875 99.90625 62.699219 100.449219 C 61.726562 100.984375 60.6875 101.722656 59.597656 102.664062 L 57.222656 96.140625 C 58.683594 94.832031 60.214844 93.78125 61.8125 92.972656 C 63.40625 92.164062 65.105469 91.761719 66.902344 91.761719 C 69.824219 91.761719 72.054688 92.988281 73.589844 95.429688 C 75.128906 97.875 75.894531 101.679688 75.894531 106.84375 L 75.894531 125.957031 L 70.417969 125.957031 L 69.914062 122.527344 L 69.777344 122.527344 C 68.804688 123.78125 67.777344 124.804688 66.695312 125.585938 C 65.617188 126.371094 64.4375 126.769531 63.160156 126.769531 C 62.121094 126.769531 61.195312 126.511719 60.371094 125.996094 C 59.554688 125.476562 58.851562 124.761719 58.277344 123.84375 C 57.699219 122.917969 57.242188 121.855469 56.925781 120.644531 C 56.609375 119.4375 56.445312 118.109375 56.445312 116.675781 Z M 62.835938 115.925781 C 62.835938 117.003906 63.070312 117.804688 63.542969 118.320312 C 64.015625 118.832031 64.644531 119.09375 65.4375 119.09375 C 66.226562 119.09375 66.898438 118.84375 67.449219 118.351562 C 67.992188 117.855469 68.570312 117.167969 69.179688 116.261719 L 69.179688 110.398438 C 66.78125 110.898438 65.117188 111.613281 64.207031 112.554688 C 63.289062 113.5 62.835938 114.621094 62.835938 115.921875 Z M 79.820312 92.566406 L 85.300781 92.566406 L 85.753906 96.871094 L 85.9375 96.871094 C 86.882812 95.484375 87.882812 94.277344 88.953125 93.269531 C 90.015625 92.257812 91.292969 91.757812 92.785156 91.757812 C 94.402344 91.757812 95.699219 92.234375 96.691406 93.207031 C 97.675781 94.179688 98.460938 95.554688 99.039062 97.347656 C 100.046875 95.824219 101.101562 94.511719 102.210938 93.40625 C 103.328125 92.308594 104.636719 91.761719 106.164062 91.761719 C 108.597656 91.761719 110.386719 92.964844 111.527344 95.363281 C 112.667969 97.765625 113.238281 101.050781 113.238281 105.226562 L 113.238281 125.957031 L 106.523438 125.957031 L 106.523438 106.503906 C 106.523438 104.078125 106.304688 102.414062 105.863281 101.523438 C 105.421875 100.628906 104.714844 100.175781 103.742188 100.175781 C 102.613281 100.175781 101.324219 101.25 99.863281 103.40625 L 99.863281 125.957031 L 93.148438 125.957031 L 93.148438 106.503906 C 93.148438 104.078125 92.929688 102.414062 92.488281 101.523438 C 92.046875 100.628906 91.339844 100.175781 90.367188 100.175781 C 89.207031 100.175781 87.925781 101.25 86.527344 103.40625 L 86.527344 125.957031 L 79.820312 125.957031 Z M 117.117188 78.769531 L 123.832031 78.769531 L 123.832031 115.996094 C 123.832031 117.027344 123.960938 117.746094 124.222656 118.144531 C 124.476562 118.554688 124.738281 118.753906 125.019531 118.753906 L 125.410156 118.753906 C 125.519531 118.753906 125.664062 118.710938 125.84375 118.621094 L 126.667969 125.957031 C 126.304688 126.179688 125.835938 126.371094 125.273438 126.53125 C 124.714844 126.6875 124.054688 126.765625 123.285156 126.765625 C 122.132812 126.765625 121.160156 126.496094 120.367188 125.957031 C 119.585938 125.421875 118.949219 124.667969 118.476562 123.703125 C 118.007812 122.738281 117.664062 121.570312 117.449219 120.203125 C 117.234375 118.832031 117.128906 117.300781 117.128906 115.59375 Z M 117.117188 78.769531 "/>
</g>
</svg>
