<svg xmlns="http://www.w3.org/2000/svg" viewBox="0 0 128 128"><path fill="#F18803" d="M30.965.969c-6.144 0-11.121 5.21-11.121 11.636v25.391c1.59-.597 3.886-4.14 4.597-5.004 1.258-1.508 1.48-3.424 2.106-4.638 1.426-2.755 1.676-4.65 4.902-4.65 1.516 0 2.117.36 3.13 1.802.71.988 1.94 2.83 2.519 4.06.664 1.418 1.742 3.338 2.207 3.729.363.285.7.504 1.027.629.531.207.964-.17 1.316-.467.45-.371.641-1.133 1.055-2.145.594-1.463 1.246-3.218 1.621-3.832.641-1.054.868-2.311 1.555-2.921 1.02-.894 2.352-.957 2.719-1.03 2.055-.427 2.992 1.03 4 1.98.66.614 1.566 1.86 2.207 3.526.504 1.305 1.144 2.514 1.41 3.268.258.722.898 1.889 1.27 3.279.342 1.27 1.265 2.24 1.62 2.846 0 0 .532 1.566 3.778 2.996.7.312 2.124.81 2.976 1.135 1.406.536 2.774.47 4.516.248 1.242 0 1.918-1.875 2.48-3.383.337-.887.65-3.438.872-4.164.203-.7-.293-1.248.14-1.862.49-.726.774-.762 1.059-1.703.613-2.012 4.125-2.113 6.113-2.113 1.637 0 1.435 1.677 4.23 1.102 1.6-.328 3.14.22 4.844.687 1.425.398 2.777.853 3.582 1.842.523.64 1.824 3.842.496 3.978.13.16.223.454.461.614-.292 1.21-1.575.351-2.28.191-.962-.207-1.637.033-2.575.467-1.597.746-3.94.66-5.344 1.875-1.175 1.03-1.176 3.326-1.723 4.615 0 0-1.538 4.13-4.878 6.652-.866.65-2.543 2.203-6.184 2.793-1.633.262-3.165.287-4.848.202a61 61 0 0 0-2.418-.098c-.489-.004-2.12-.065-2.035.103l-.18.473c.029.152.087.545.106.639.07.382.082.687.094 1.035.023.726-.05 1.475-.02 2.209.07 1.512.61 2.892.676 4.416.078 1.7.883 3.5 1.656 4.887.293.53.746.585.946 1.238.218.746.004 1.533.117 2.326.437 3.082 1.293 6.305 2.617 9.086.004.02.016.047.027.07 1.637-.289 3.282-.906 5.406-1.238 3.898-.606 9.325-.293 12.813-.633 8.824-.867 13.608 3.785 21.53 1.88V12.604c0-6.426-4.98-11.636-11.128-11.636zm-4.074 51.41c-.707.114-1.406.36-1.848 1.09-.37.59-.492 1.614-.738 2.297-.29.793-.797 1.536-1.227 2.293-.808 1.39-2.262 2.644-2.883 3.996a7 7 0 0 0-.351.914v15.46c.73.13 1.496.286 2.355.516 6.313 1.707 7.844 1.852 14.035 1.133l.582-.078c.465-1 .836-4.406 1.137-5.457.246-.805.573-1.45.695-2.27.12-.785-.01-1.535-.074-2.242-.18-1.785 1.285-2.422 1.977-3.953.629-1.383.984-2.96 1.504-4.379.496-1.36 1.27-3.278 2.597-3.96-.164-.193-2.77-.278-3.457-.352a24 24 0 0 1-2.254-.32c-1.406-.287-2.937-.57-4.316-.907-.84-.207-3.64-1.21-4.246-1.492-1.43-.668-2.375-2.476-3.488-2.29m37.177 3.115c.004-.001.01.026.018.069l-.016.035a.4.4 0 0 1-.002-.104m-12.244.752c-3.329.676-4.367 4.024-5.922 6.672-.87 1.465-1.785 2.711-2.476 4.273-.625 1.434-.574 3.016-1.653 4.246-1.105 1.265-1.825 2.61-2.37 4.243-.107.308-.39 3.566-.704 4.34v.003l4.95-.359c4.604.324 3.269 2.128 10.476 1.734l11.363-.355c-.355-1.07-.843-2.3-1.027-2.703-.32-.676-.715-2-.977-2.578-.25-.55-1.007-1.965-1.39-2.418-.828-.992-1.02-1.067-1.262-2.317-.418-2.175-1.542-6.125-2.86-8.851-.678-1.406-1.812-2.586-2.847-3.61-.906-.886-2.946-2.398-3.3-2.32m65.268 25.207v34.965c0 1.622.117 3.082.336 4.379q.33 1.952 1.068 3.324.729 1.376 1.967 2.145c.82.508 1.836.765 3.039.765q1.183 0 2.066-.222a6.3 6.3 0 0 0 1.446-.543l-.858-6.97c-.19.087-.339.126-.453.126h-.396c-.285 0-.562-.187-.832-.574-.266-.383-.405-1.063-.405-2.043V81.453zM13.89 83.393c-2.062 0-3.95.485-5.653 1.453Q5.68 86.3 3.852 89.043c-1.223 1.827-2.168 4.087-2.844 6.775C.336 98.505 0 101.577 0 105.018q0 5.166 1.008 9.226c.676 2.715 1.62 5.02 2.844 6.91q1.828 2.841 4.386 4.356c1.702 1.012 3.59 1.52 5.653 1.52v.001q3.1-.001 5.66-1.52 2.553-1.512 4.387-4.357 1.829-2.835 2.832-6.91 1.013-4.059 1.011-9.226.002-5.099-1.011-9.131c-.668-2.688-1.614-4.962-2.832-6.81q-1.834-2.775-4.387-4.231-2.56-1.453-5.66-1.453m30.68.003c-1.865 0-3.637.493-5.305 1.489q-2.51 1.483-4.399 4.318-1.883 2.844-2.992 6.94c-.742 2.738-1.117 5.84-1.117 9.328 0 3.532.36 6.64 1.07 9.324q1.065 4.037 2.934 6.75 1.857 2.713 4.347 4.098c1.66.925 3.415 1.39 5.282 1.39 1.808 0 3.492-.52 5.043-1.55 1.55-1.032 2.938-2.583 4.148-4.649l-3.594-5.746q-1.064 1.68-2.394 2.71c-.887.688-1.93 1.032-3.114 1.032q-3.193.002-5.105-3.582c-1.269-2.383-1.906-5.755-1.906-10.102 0-2.106.183-4 .558-5.68.368-1.675.872-3.097 1.528-4.257.648-1.165 1.414-2.055 2.285-2.68.875-.622 1.811-.937 2.82-.937 1.003 0 1.887.28 2.64.84.759.558 1.501 1.336 2.24 2.328l3.597-5.875a15.6 15.6 0 0 0-3.66-3.84q-2.2-1.649-4.907-1.649m-30.68 8.196q3.141 0 4.976 3.547c1.218 2.37 1.832 5.664 1.832 9.879 0 4.262-.614 7.628-1.832 10.101q-1.835 3.712-4.976 3.711-3.137.001-4.977-3.71-1.822-3.71-1.824-10.102 0-6.324 1.824-9.88 1.84-3.545 4.977-3.546m52.8 1.496a10.8 10.8 0 0 0-4.93 1.176c-1.557.786-3.04 1.804-4.45 3.066l2.298 6.336c1.062-.918 2.066-1.633 3.012-2.156q1.406-.786 2.836-.785 1.763-.003 2.563 1.273c.53.847.827 1.992.882 3.426q-6.498.979-9.425 3.851-2.918 2.874-2.918 7.965c0 1.391.148 2.676.464 3.852.31 1.172.738 2.206 1.301 3.096.558.89 1.242 1.59 2.043 2.09.79.496 1.692.75 2.696.75 1.241 0 2.378-.381 3.43-1.143q1.57-1.14 2.991-2.97h.13l.488 3.327h5.308v-18.53c0-5.006-.742-8.69-2.23-11.066-1.492-2.37-3.66-3.558-6.489-3.558m25.778.002q-2.256.001-3.87 1.508c-1.074 1-2.085 2.195-3.038 3.574h-.194l-.457-4.277h-5.53l-.001 33.136h6.777v-22.379q2.12-3.21 3.871-3.21c.988 0 1.7.445 2.145 1.335.445.895.668 2.54.668 4.946v19.308h6.777v-22.379q2.21-3.21 3.92-3.21c.976 0 1.696.445 2.14 1.335.442.895.669 2.54.669 4.946v19.308h6.771v-20.578c0-4.14-.569-7.406-1.72-9.789-1.158-2.378-2.962-3.574-5.415-3.574-1.543 0-2.876.55-3.994 1.637q-1.679 1.642-3.207 3.912-.87-2.673-2.37-4.112-1.493-1.437-3.942-1.437m-23.567 18.076v5.68q-.88 1.306-1.68 2.027-.796.715-1.945.715c-.774 0-1.383-.25-1.843-.75-.45-.5-.684-1.274-.684-2.317 0-1.266.445-2.351 1.332-3.27.882-.91 2.496-1.609 4.82-2.085"/></svg>
