<svg xmlns="http://www.w3.org/2000/svg" viewBox="0 0 128 128"><g fill-rule="evenodd"><path d="M64.64 68.668c-.097-.762.106-1.527-.117-2.242-.18-.625-.609-.684-.886-1.192-.73-1.332-1.485-3.062-1.555-4.691-.062-1.473-.574-2.797-.645-4.25-.027-.703.047-1.426.028-2.117-.02-.34-.035-.637-.098-1.004l-.097-.61.167-.457c-.07-.152 1.47-.101 1.926-.101l2.282.098c1.582.078 3.02.058 4.57-.192 3.433-.57 5.015-2.066 5.824-2.683 3.156-2.43 4.606-6.399 4.606-6.399.52-1.234.511-3.445 1.628-4.437 1.317-1.172 3.524-1.086 5.036-1.805.886-.414 1.52-.645 2.425-.441.668.144 1.88.968 2.157-.188-.227-.156-.317-.441-.43-.594 1.242-.133.02-3.215-.477-3.828-.757-.95-2.03-1.383-3.379-1.765-1.601-.454-3.058-.977-4.57-.657-2.633.547-2.433-1.058-3.992-1.058-1.871 0-5.18.093-5.762 2.027-.258.906-.535.941-1 1.637-.394.59.07 1.113-.125 1.793-.207.695-.511 3.144-.824 4-.539 1.445-1.172 3.25-2.336 3.25-1.644.215-2.933.277-4.266-.235-.796-.312-2.136-.8-2.808-1.093-3.059-1.38-3.563-2.883-3.563-2.883-.328-.574-1.199-1.512-1.52-2.73-.359-1.34-.956-2.462-1.198-3.157-.25-.727-.86-1.879-1.332-3.14-.602-1.602-1.461-2.797-2.079-3.395-.957-.91-1.84-2.309-3.773-1.902-.348.074-1.602.132-2.566.996-.653.59-.86 1.793-1.47 2.808-.347.586-.964 2.274-1.526 3.684-.387.973-.575 1.707-.997 2.062-.328.282-.742.645-1.234.45a3.874 3.874 0 01-.965-.61c-.457-.37-1.469-2.219-2.094-3.582-.546-1.183-1.699-2.953-2.37-3.91-.958-1.379-1.52-1.727-2.954-1.727-3.05 0-3.281 1.82-4.625 4.473-.59 1.164-.804 3.008-1.984 4.461-.68.828-2.836 4.234-4.34 4.813v-.016 24.176c.102-.325.207-.621.324-.895.582-1.32 1.922-2.543 2.676-3.898.402-.739.867-1.461 1.133-2.235.234-.668.351-1.664.691-2.242.41-.71 1.047-.953 1.707-1.066 1.04-.184 1.914 1.582 3.239 2.234.562.277 3.16 1.254 3.937 1.457 1.29.324 2.711.598 4.008.883.695.152 1.367.238 2.082.312.644.075 3.062.16 3.21.344-1.222.664-1.948 2.54-2.401 3.864-.485 1.382-.817 2.917-1.399 4.273-.644 1.492-1.992 2.113-1.832 3.852.063.69.18 1.421.07 2.187-.117.805-.422 1.43-.644 2.215-.285 1.031-.625 4.347-1.063 5.324l2.692-.363c.297-.742.562-3.883.664-4.18.5-1.57 1.16-2.867 2.191-4.086 1-1.187.946-2.71 1.528-4.094.636-1.504 1.484-2.707 2.28-4.117 1.45-2.55 2.407-5.777 5.493-6.433.332-.07 2.21 1.382 3.05 2.242.958.98 2.005 2.12 2.641 3.476 1.215 2.63 2.254 6.434 2.637 8.532.234 1.199.414 1.273 1.176 2.23.348.434 1.055 1.805 1.285 2.328.242.559.61 1.832.906 2.485.168.386.614 1.578.946 2.605l2.504-.086c.011.024.054-.004.074.02-.012-.024-.02-.047-.028-.07-1.254-2.673-2.046-5.77-2.468-8.735zm0 0" fill="#FFF"/><path d="M62.895 52.926l1.12-.422c-1.12-1.031-1.695-1.27-1.12.422zm0 0" fill="#484444"/><path d="M62.895 52.926l1.12-.422c-1.12-1.031-1.695-1.27-1.12.422zm2.834 43.132c62.58 52.266 62.185 50.977 61.927 50.41-.25-.53-1.012-1.917-1.387-2.359-.82-.969-1.012-1.043-1.258-2.258-.418-2.129-1.531-5.984-2.84-8.644-.683-1.375-1.808-2.528-2.84-3.524-.902-.867-2.921-2.343-3.28-2.265-3.317.66-4.348 3.93-5.907 6.511-.855 1.43-1.77 2.649-2.453 4.172-.625 1.399-.566 2.946-1.645 4.149-1.105 1.234-1.816 2.547-2.355 4.14-.106.301-.395 3.48-.711 4.235l4.926-.344c4.586.313 3.258 2.078 10.426 1.695l11.312-.351c-.355-1.043-.836-2.246-1.02-2.64zm62.895 52.926" fill="#F29100"/><path d="M93.586 0H31.738c-5.742 0-10.406 5.098-10.406 11.39v24.848c1.484-.586 3.633-4.054 4.297-4.898 1.183-1.473 1.394-3.356 1.98-4.54 1.332-2.695 1.563-4.554 4.594-4.554 1.41 0 1.969.36 2.93 1.762.656.969 1.808 2.773 2.344 3.976.62 1.387 1.632 3.274 2.078 3.653.328.281.656.488.957.617.488.203.898-.172 1.226-.457.418-.367.602-1.11.992-2.102.563-1.433 1.165-3.148 1.512-3.75.602-1.035.809-2.261 1.457-2.86.957-.874 2.211-.937 2.547-1.007 1.926-.422 2.797 1.008 3.746 1.934.621.605 1.465 1.82 2.07 3.457.461 1.273 1.067 2.453 1.313 3.191.242.715.844 1.848 1.191 3.219.329 1.238 1.18 2.187 1.508 2.781 0 0 .5 1.531 3.543 2.926.66.309 1.992.797 2.79 1.117 1.316.524 2.593.457 4.226.246 1.164 0 1.793-1.84 2.316-3.312.313-.875.614-3.371.82-4.078.192-.692-.269-1.22.122-1.825.464-.707.738-.746 1.004-1.664.57-1.965 3.863-2.066 5.71-2.066 1.555 0 1.348 1.637 3.97 1.078 1.5-.32 2.937.211 4.538.668 1.332.395 2.59.836 3.344 1.805.5.625 1.707 3.761.473 3.89.117.16.203.45.425.602-.273 1.187-1.472.34-2.14.191-.895-.203-1.528.028-2.406.457-1.493.727-3.684.64-4.989 1.832-1.11 1.008-1.11 3.258-1.625 4.524 0 0-1.437 4.035-4.574 6.504-.797.636-2.371 2.156-5.781 2.734-1.528.258-2.965.281-4.535.195l-2.266-.093c-.453-.004-1.98-.059-1.898.101l-.172.461c.027.156.082.535.097.629.063.371.082.668.09 1.012.028.71-.05 1.449-.015 2.16.062 1.476.566 2.828.629 4.32.07 1.668.828 3.426 1.554 4.785.274.512.692.57.88 1.207.21.735.007 1.508.116 2.282.407 3.015 1.196 6.168 2.442 8.89l.023.067c1.54-.282 3.074-.883 5.063-1.207 3.66-.594 8.738-.285 11.996-.621 8.258-.844 12.742 3.703 20.156 1.84V11.39C104 5.098 99.34 0 93.586 0zM62.73 53.465c-.011-.137 0-.121.016-.035zm0 0" fill="#F29100"/><path d="M40.254 63.668c.574-1.336.898-2.855 1.375-4.215.457-1.308 1.164-3.16 2.371-3.82-.148-.184-2.52-.266-3.156-.332l-2.055-.313-3.957-.87c-.77-.196-3.324-1.165-3.879-1.438-1.305-.645-2.172-2.383-3.191-2.207-.645.113-1.29.347-1.688 1.05-.332.575-.437 1.555-.668 2.215-.265.766-.722 1.477-1.129 2.207-.73 1.336-2.062 2.547-2.636 3.848-.114.266-.22.57-.309.879v14.887l2.145.496c5.765 1.64 7.175 1.785 12.828 1.09l.535-.075c.433-.96.77-4.238 1.043-5.25.219-.78.52-1.398.633-2.191.105-.754-.008-1.477-.07-2.156-.16-1.72 1.171-2.332 1.808-3.805zm0 0" fill="#F29100"/><path d="M14.852 126.766c-2.012 0-3.84-.528-5.5-1.579-1.66-1.058-3.082-2.57-4.27-4.546-1.187-1.977-2.105-4.375-2.762-7.211-.656-2.828-.988-6.035-.988-9.625s.332-6.785.988-9.59c.66-2.805 1.575-5.16 2.762-7.067 1.188-1.91 2.61-3.367 4.27-4.375 1.66-1.011 3.488-1.52 5.5-1.52 2.011 0 3.84.509 5.5 1.52 1.66 1.008 3.082 2.473 4.27 4.407 1.187 1.933 2.108 4.3 2.765 7.101.652 2.801.984 5.98.984 9.524 0 3.59-.324 6.8-.984 9.625-.657 2.832-1.578 5.234-2.766 7.215-1.187 1.976-2.61 3.484-4.27 4.543-1.652 1.05-3.488 1.578-5.5 1.578zm0-8.547c2.039 0 3.652-1.293 4.84-3.875 1.187-2.578 1.785-6.09 1.785-10.535 0-4.395-.598-7.829-1.786-10.297-1.187-2.465-2.8-3.703-4.84-3.703-2.035 0-3.652 1.238-4.84 3.703-1.187 2.468-1.777 5.902-1.777 10.297 0 4.445.59 7.957 1.778 10.535 1.187 2.582 2.804 3.87 4.84 3.87zm15.886-13.938c0-3.633.383-6.875 1.14-9.726.767-2.848 1.794-5.262 3.083-7.235 1.277-1.96 2.824-3.496 4.527-4.511 1.719-1.032 3.535-1.547 5.457-1.547 1.856 0 3.535.57 5.04 1.718 1.511 1.149 2.765 2.473 3.769 4.004l-3.695 6.133c-.77-1.027-1.536-1.836-2.313-2.422-.77-.582-1.672-.875-2.71-.875-1.04 0-2.005.325-2.9.977-.902.644-1.679 1.578-2.355 2.793-.668 1.21-1.191 2.691-1.57 4.441-.383 1.75-.57 3.727-.57 5.922 0 4.531.656 8.047 1.96 10.535 1.31 2.492 3.06 3.739 5.254 3.739 1.22 0 2.282-.356 3.196-1.079.914-.718 1.734-1.66 2.465-2.828l3.699 5.993c-1.246 2.152-2.672 3.769-4.27 4.84-1.593 1.07-3.328 1.617-5.18 1.617-1.917 0-3.73-.485-5.437-1.45-1.68-.941-3.207-2.402-4.476-4.273-1.278-1.89-2.286-4.234-3.012-7.035-.73-2.809-1.094-6.051-1.094-9.73zm25.707 12.387c0-3.5 1-6.238 3.012-8.211 2.008-1.973 5.254-3.3 9.723-3.973-.059-1.484-.364-2.66-.914-3.535-.547-.875-1.426-1.308-2.649-1.308-.972 0-1.945.265-2.918.808-.972.535-2.011 1.274-3.101 2.215l-2.375-6.523c1.46-1.309 2.992-2.36 4.59-3.168a11.101 11.101 0 015.09-1.211c2.921 0 5.152 1.226 6.687 3.668 1.539 2.445 2.305 6.25 2.305 11.414v19.113h-5.477l-.504-3.43h-.137c-.972 1.254-2 2.278-3.082 3.059-1.078.785-2.257 1.184-3.535 1.184-1.039 0-1.965-.258-2.789-.774-.816-.52-1.52-1.234-2.094-2.152-.578-.926-1.035-1.989-1.351-3.2-.317-1.207-.48-2.535-.48-3.968zm6.39-.742c0 1.078.235 1.879.708 2.394.473.512 1.102.774 1.895.774.789 0 1.46-.25 2.011-.742.543-.497 1.121-1.184 1.73-2.09v-5.864c-2.398.5-4.062 1.215-4.972 2.157-.918.945-1.371 2.066-1.371 3.367zm16.985-23.36h5.48l.454 4.305h.183c.946-1.387 1.946-2.594 3.016-3.601 1.063-1.012 2.34-1.512 3.832-1.512 1.617 0 2.914.476 3.906 1.449.985.973 1.77 2.348 2.348 4.14 1.008-1.523 2.063-2.835 3.172-3.94 1.117-1.098 2.426-1.645 3.953-1.645 2.434 0 4.223 1.203 5.363 3.601 1.141 2.403 1.711 5.688 1.711 9.864v20.73h-6.715v-19.453c0-2.426-.218-4.09-.66-4.98-.441-.895-1.148-1.348-2.12-1.348-1.13 0-2.419 1.074-3.88 3.23v22.551h-6.715v-19.453c0-2.426-.218-4.09-.66-4.98-.441-.895-1.148-1.348-2.12-1.348-1.161 0-2.442 1.074-3.84 3.23v22.551H79.82zm37.297-13.796h6.715v37.226c0 1.031.129 1.75.39 2.149.255.41.516.609.798.609h.39c.11 0 .254-.043.434-.133l.824 7.336c-.363.223-.832.414-1.395.574-.558.156-1.218.235-1.988.235-1.152 0-2.125-.27-2.918-.809-.781-.535-1.418-1.289-1.89-2.254-.47-.965-.813-2.133-1.028-3.5-.215-1.371-.32-2.902-.32-4.61zm0 0" fill="#484444"/></g></svg>
