<svg xmlns="http://www.w3.org/2000/svg" viewBox="0 0 128 128"><path fill="#EF7B4D" d="M62.41 2.133c-2.402.269-4.808.492-7.168 1.047-9.394 2.215-17.79 6.297-24.566 13.308-5.633 5.824-9.176 12.82-11.223 20.614-.324 1.23-.387 1.304-1.601 1.257-1.7-.066-2.016.133-2.758 1.7v18.043c.69 1.44 1.18 1.69 2.765 1.41 1.172-.207 1.629.074 1.977 1.347a42.2 42.2 0 0 0 5.812 12.653c4.54 6.656 10.2 12.067 17.528 15.597.867.42 1.039 1.009.582 2.059a6.2 6.2 0 0 1-3.594 3.367 30 30 0 0 1-3.898 1.074 5 5 0 0 0-1.47.47c.23.41.614.366.923.452 2.492.688 5 1.188 7.613.719.848-.156 1.403.359 1.523 1.332a28 28 0 0 1 .184 2.473c.113 3.708.25 7.41.54 11.11.03.398.026.794.019 1.194-.024 1.331-.567 2.13-1.84 2.551-1.86.618-3.742 1.184-5.61 1.778-.28.088-.605.109-.828.445.544.394 1.192.306 1.754.332 2.293.114 4.578.371 6.887.11 2.62-.298 3.886-1.512 4.152-4.165.452-4.512.805-9.032.961-13.562.035-.668.122-1.336.262-1.993 0 .95.019 1.898-.004 2.848-.113 4.817.235 9.62.352 14.434.055 2.265-.473 2.96-2.641 3.55a29.4 29.4 0 0 1-4.855.997 7.3 7.3 0 0 0-3.008.972c.199.434.511.332.761.332 2.887.02 5.77.043 8.653.028a8.7 8.7 0 0 0 1.91-.239c2.102-.48 3.312-1.95 3.512-4.183.132-1.528.25-3.054.386-4.582a2.1 2.1 0 0 1 .368-1.07 7.8 7.8 0 0 1 .402 1.628c.078 2.231.371 4.454.07 6.7a3.13 3.13 0 0 1-2.05 2.699c-2.368.957-4.872 1.453-7.329 2.105-.722.192-1.543.262-1.84 1.149h9.575c.566-.11 1.136-.215 1.703-.325 2.523-.488 4.234-1.886 4.82-4.433.473-2.055.824-4.137 1.254-6.203a6.4 6.4 0 0 1 .75-1.996q.585 2.853 1.168 5.707c.117.567.223 1.137.344 1.707.734 3.46 2.28 4.87 5.91 5.39.269.04.535.102.805.153h9.574c-.09-.75-.684-.848-1.254-.993-2.555-.644-5.113-1.297-7.598-2.187-1.922-.684-2.554-1.651-2.554-3.66q-.007-7.41.003-14.82a1.46 1.46 0 0 1 .165-.997 1.17 1.17 0 0 1 .312.883c.195 3.24.363 6.485.602 9.723.117 1.613.214 3.238.703 4.808.508 1.633 1.597 2.618 3.265 2.852 3.387.48 6.797.043 10.2.148.175.008.41-.01.433-.238.02-.207-.195-.289-.355-.375-.657-.348-1.352-.726-2.082-.668-2.083.172-3.902-.652-5.762-1.355-1.288-.49-1.73-1.098-1.73-2.492-.004-2.731-.088-5.466.038-8.188.094-2.177.024-4.363.434-6.719a6 6 0 0 1 .133.625c.32 3.937.652 7.875.941 11.817.2 2.695 1.657 4.13 4.368 4.152 2.545.02 5.093.008 7.64-.004.25 0 .55.11.758-.183-.22-.402-.636-.477-.996-.602a208 208 0 0 0-4.352-1.477c-2.98-.988-3.101-1.269-2.886-4.355.218-3.175.503-6.348.582-9.535a27.3 27.3 0 0 1 .433-4.754c.121-.602.32-.8.91-.567a6.6 6.6 0 0 0 2.262.329c1.934.074 3.757-.5 5.617-.875.391-.077.856 0 1.2-.43a3.6 3.6 0 0 0-1.227-.48c-1.418-.396-2.883-.586-4.274-1.086a5.42 5.42 0 0 1-3.433-3.235c-.531-1.39-.5-1.434.8-2.144q.61-.333 1.204-.676c8.297-4.824 14.844-11.312 19.07-20.012a49 49 0 0 0 2.852-7.371c.265-.887.69-1.523 1.785-1.508 1.804.028 2.398-.61 2.406-2.445q.007-3.129.008-6.258c0-3.344.008-6.687-.008-10.031-.004-.961-.176-2.043-1.238-2.227-1.914-.328-2.57-1.565-3.028-3.222-2.164-7.804-6.07-14.59-12.074-20.07C89.676 9.367 82.227 5.077 73.547 3.097a59 59 0 0 0-6.719-.965zm3.201 2.13c5.32.098 10.549 1.206 15.569 3.518 13.996 6.453 23.023 17.087 26.113 32.407a44 44 0 0 1 .516 3.359 38 38 0 0 1 .25 4.851h.002c.074 11.06-3.827 20.337-10.65 28.497a38.7 38.7 0 0 1-12.376 9.835c-1.008.508-.993.493-1.033-.656-.105-3.047.469-6.047.602-9.074l.32-7.437c.012-.248.019-.493.008-.739-.067-1.51.345-2.605 1.724-3.605 4.633-3.371 6.198-8.051 5.06-13.617-.628-3.086-2.48-5.461-4.874-7.375a3.32 3.32 0 0 1-1.389-2.922c.008-8.41-6.39-16.7-14.707-19.117-2.383-.692-4.815-1.293-7.312-1.262-4.363.054-8.297 1.503-11.82 4.043-5.039 3.633-7.987 8.551-8.897 14.687a9 9 0 0 0-.164 2.285c.1.94-.323 1.421-1.026 1.93-6.129 4.41-6.652 11.61-4.207 16.621 1.078 2.203 2.78 3.883 4.768 5.27a2.03 2.03 0 0 1 .951 1.82c.132 5.297.223 10.598.873 15.871.062.825.082 1.656.05 2.484.005 1.292-.056 1.325-1.27.758a27.5 27.5 0 0 1-5.794-3.722c-5.343-4.403-9.783-9.539-12.81-15.813a41.2 41.2 0 0 1-3.85-13.93c-.644-6.429-.343-12.804 1.914-18.867C28.06 18.493 39.166 8.41 55.961 5.141c3.233-.63 6.458-.935 9.65-.877m-15.654 7.99a1.95 1.95 0 0 0-1.398.575A1.95 1.95 0 0 0 48 14.234c0 1.43.672 2.438 1.645 2.461.863.028 2.476-1.281 2.46-1.988-.035-1.281-1.054-2.445-2.148-2.453m-5.078 4.026a2 2 0 0 0-.816.248c-6.91 4.243-12.133 9.985-15.403 17.446-2.055 4.683-2.859 9.613-2.793 15.308.164 1.063-.002 2.75.188 4.434.712 6.296 3.156 11.867 6.879 16.926a2.6 2.6 0 0 0 1.21.957 1.62 1.62 0 0 0 1.493-.215c.46-.31.211-.762.156-1.18a4.1 4.1 0 0 0-.895-1.887c-4-5.535-5.983-11.785-6.273-18.55a32.6 32.6 0 0 1 3.203-15.434c2.727-5.782 6.602-10.598 12.184-13.902a5.63 5.63 0 0 0 2.48-2.633c.133-.313.258-.613-.054-.926a1.97 1.97 0 0 0-1.56-.592M49 44.7a10.01 10.01 0 0 1 8.727 5.012 10.02 10.02 0 0 1-.043 10.062 10.01 10.01 0 0 1-8.766 4.934c-5.836-.023-10.063-4.352-10.04-10.285.024-5.477 4.466-9.746 10.122-9.723m29.953.031c5.555-.01 9.922 4.422 9.922 10.067.004 5.648-4.309 9.922-10.004 9.91-5.672-.008-9.98-4.368-9.965-10.078.016-5.426 4.543-9.89 10.047-9.899m.102 4.887a3.27 3.27 0 0 0-3.078 3.172c-.024 2.02 1.234 3.324 3.21 3.336 1.903.012 3.334-1.355 3.329-3.18a3.4 3.4 0 0 0-3.461-3.328m-30.426.024a3.163 3.163 0 0 0-3.035 3.27c.009 1.968 1.249 3.21 3.218 3.214 1.906.008 3.325-1.371 3.305-3.207-.019-1.875-1.523-3.284-3.488-3.277m8.25 24.896c.204.025.38.27.562.381.81.5 1.582 1.055 2.399 1.539 2.668 1.578 5.394 1.578 8.168.25 1.153-.554 2.177-1.324 3.254-1.984a.68.68 0 0 1 .125.754c-.54 1.339-.34 2.773-.563 4.148-.512 3.121-2.89 5.688-5.812 6.297a5.07 5.07 0 0 1-4.086-.961c-2.328-1.645-3.703-3.852-3.84-6.77a26 26 0 0 0-.426-2.812c-.043-.27-.223-.625.004-.781a.3.3 0 0 1 .215-.06"/></svg>
