<svg xmlns="http://www.w3.org/2000/svg" xmlns:xlink="http://www.w3.org/1999/xlink" width="128" height="128" viewBox="0 0 128 128"><defs><clipPath id="e"><path d="M42 41h44v51H42Zm0 0"/></clipPath><clipPath id="d"><path d="M0 0h128v128H0z"/></clipPath><clipPath id="b"><path d="M0 0h128v128H0z"/></clipPath><clipPath id="f"><path d="m85.695 41.133-2.55 58.238H44.887l-2.125-58.238"/></clipPath><clipPath id="c"><path d="M0 0h128v128H0z"/></clipPath><mask id="l"><g filter="url(#a)"><path style="fill:#000;fill-opacity:.25098;stroke:none" d="M0 0h128v128H0z"/></g></mask><mask id="h"><g filter="url(#a)"><path style="fill:#000;fill-opacity:.219608;stroke:none" d="M0 0h128v128H0z"/></g></mask><mask id="j"><g filter="url(#a)"><path style="fill:#000;fill-opacity:.501961;stroke:none" d="M0 0h128v128H0z"/></g></mask><g id="i" clip-path="url(#c)"><path style="stroke:none;fill-rule:nonzero;fill:#fbdfc3;fill-opacity:1" d="M58.488 30.508a2.974 2.974 0 1 1-5.948-.003 2.974 2.974 0 0 1 5.948.003Zm0 0"/></g><g id="g" clip-path="url(#b)"><path style="stroke:none;fill-rule:nonzero;fill:#e34e3b;fill-opacity:1" d="M84.422 65.363s2.55-22.531-.852-31.031C77.195 19.453 62.316 20.73 62.316 20.73s8.5 3.399 8.926 16.153c.426 8.926 0 22.105 0 22.105Zm0 0"/></g><g id="k" clip-path="url(#d)"><path style="stroke:none;fill-rule:nonzero;fill:#e9654b;fill-opacity:1" d="M83.145 90.867V87.47c-5.95 3.398-12.329 6.8-19.977 6.8-8.504 0-14.031-3.824-19.555-6.8l.422 3.398s6.38 6.805 19.555 6.805c12.328-.426 19.555-6.805 19.555-6.805Zm0 0"/></g><filter id="a" filterUnits="objectBoundingBox" x="0%" y="0%" width="100%" height="100%"><feColorMatrix in="SourceGraphic" values="0 0 0 0 1 0 0 0 0 1 0 0 0 0 1 0 0 0 1 0"/></filter></defs><path style="stroke:none;fill-rule:nonzero;fill:#e9654b;fill-opacity:1" d="M44.035 89.594s-.847 2.55-2.125 3.824a3.844 3.844 0 0 1-2.972 1.277 49.946 49.946 0 0 1-6.38 1.274s2.977.426 6.38.851c1.273 0 1.273 0 2.124.426 2.126 0 2.973-1.277 2.973-1.277ZM83.145 89.594s.851 2.55 2.125 3.824a3.858 3.858 0 0 0 2.976 1.277c2.094.563 4.227.989 6.375 1.274 0 0-2.973.426-6.8.851-1.274 0-1.274 0-2.126.426-2.55 0-2.976-1.277-2.976-1.277Zm0 0"/><path style="stroke:none;fill-rule:nonzero;fill:#b6cfea;fill-opacity:1" d="M109.926 47.508c0 25.355-20.555 45.91-45.91 45.91-25.356 0-45.91-20.555-45.91-45.91 0-25.352 20.554-45.906 45.91-45.906 25.355 0 45.91 20.554 45.91 45.906Zm0 0"/><path style="stroke:none;fill-rule:nonzero;fill:#e6f5f8;fill-opacity:1" d="M108.227 47.508c0 24.418-19.793 44.21-44.211 44.21-24.414 0-44.207-19.792-44.207-44.21C19.809 23.094 39.602 3.3 64.016 3.3c24.418 0 44.21 19.793 44.21 44.207Zm0 0"/><path style="stroke:none;fill-rule:nonzero;fill:#d0e8f0;fill-opacity:1" d="M100.148 48.36c0 19.956-16.175 36.132-36.132 36.132-19.954 0-36.133-16.176-36.133-36.133 0-19.953 16.18-36.132 36.133-36.132 19.957 0 36.132 16.18 36.132 36.132Zm0 0"/><path style="stroke:none;fill-rule:nonzero;fill:#ee794b;fill-opacity:1" d="M42.762 65.363s2.976 48.035 2.976 48.887c0 .422.426 1.273-1.703 2.125-2.125.848-8.926 2.55-8.926 2.55h10.203c4.676 0 4.676-3.827 4.676-4.675 0-.852 1.274-19.129 1.274-19.129s.425 21.68.425 22.527c0 .852-.425 2.125-3.398 2.977-2.125.426-8.504 1.7-8.504 1.7h9.778c5.953 0 5.953-3.825 5.953-3.825l1.273-19.129s.426 19.129.426 21.254c0 1.7-1.274 2.977-5.953 3.824-2.973.852-6.801 1.703-6.801 1.703h11.055c5.523-.425 6.375-4.254 6.375-4.254l9.351-47.609Zm0 0"/><path style="stroke:none;fill-rule:nonzero;fill:#ee794b;fill-opacity:1" d="M85.27 65.363s-2.973 48.035-2.973 48.887c0 .422-.426 1.273 1.7 2.125 2.124.848 8.925 2.55 8.925 2.55H82.719c-4.676 0-4.676-3.827-4.676-4.675 0-.852-1.273-19.129-1.273-19.129s-.426 21.68-.426 22.527c0 .852.426 2.125 3.402 2.977l8.5 1.7H78.47c-5.95 0-5.95-3.825-5.95-3.825l-1.277-19.129s-.426 19.129-.426 21.254c0 1.7 1.278 2.977 5.954 3.824 2.976.852 6.8 1.703 6.8 1.703H72.52c-5.528-.425-6.38-4.254-6.38-4.254L56.79 74.29ZM85.695 41.984c0 11.903-9.777 21.254-21.254 21.254-11.476 0-21.254-9.777-21.254-21.254 0-11.476 9.778-21.254 21.254-21.254 11.477 0 21.254 9.352 21.254 21.254Zm0 0"/><g clip-path="url(#e)"><g clip-path="url(#f)"><path style="stroke:none;fill-rule:nonzero;fill:#ee794b;fill-opacity:1" d="M102.273 53.46c0 20.895-16.937 37.833-37.832 37.833-20.894 0-37.832-16.938-37.832-37.832 0-20.895 16.938-37.832 37.832-37.832 20.895 0 37.832 16.937 37.832 37.832Zm0 0"/></g></g><use xlink:href="#g" mask="url(#h)"/><use xlink:href="#i" mask="url(#j)"/><path style="stroke:none;fill-rule:nonzero;fill:#010101;fill-opacity:1" d="M71.668 73.863c0 7.227-3.402 11.907-7.652 11.907s-7.653-5.528-7.653-12.754c0 0 3.403 6.8 8.078 6.8 4.676 0 7.227-5.953 7.227-5.953Zm0 0"/><path style="stroke:none;fill-rule:nonzero;fill:#fff;fill-opacity:1" d="M71.668 73.863c0 4.68-3.402 7.227-7.652 7.227s-7.227-3.399-7.227-7.649c0 0 3.402 4.25 8.078 4.25 4.676 0 6.801-3.828 6.801-3.828Zm0 0"/><path style="stroke:none;fill-rule:nonzero;fill:#e9654b;fill-opacity:1" d="M92.07 53.887c0 7.277-5.898 13.175-13.175 13.175-7.278 0-13.18-5.898-13.18-13.175 0-7.278 5.902-13.18 13.18-13.18 7.277 0 13.175 5.902 13.175 13.18ZM62.316 53.887c0 7.277-5.902 13.175-13.18 13.175-7.277 0-13.175-5.898-13.175-13.175 0-7.278 5.898-13.18 13.176-13.18 7.277 0 13.18 5.902 13.18 13.18Zm0 0"/><path style="stroke:none;fill-rule:nonzero;fill:#fff;fill-opacity:1" d="M89.098 53.887c0 5.633-4.57 10.203-10.203 10.203-5.633 0-10.204-4.57-10.204-10.203 0-5.637 4.57-10.203 10.204-10.203 5.632 0 10.203 4.566 10.203 10.203ZM58.488 53.887c0 5.633-4.566 10.203-10.199 10.203-5.637 0-10.203-4.57-10.203-10.203a10.201 10.201 0 0 1 10.203-10.203c5.633 0 10.2 4.566 10.2 10.203Zm0 0"/><path style="stroke:none;fill-rule:nonzero;fill:#010101;fill-opacity:1" d="M51.262 52.61a2.975 2.975 0 1 1-5.95.003 2.975 2.975 0 0 1 5.95-.004ZM81.871 52.61a2.976 2.976 0 1 1-5.951.001 2.976 2.976 0 0 1 5.951-.002Zm0 0"/><path style="stroke:none;fill-rule:nonzero;fill:#b6cfea;fill-opacity:1" d="M17.258 58.988a2.005 2.005 0 0 1-2.125-2.125V39.86a2.008 2.008 0 0 1 .582-1.543 2.008 2.008 0 0 1 1.543-.582 2.005 2.005 0 0 1 2.125 2.125v17.004c.035.57-.18 1.133-.586 1.54a2.008 2.008 0 0 1-1.54.585ZM109.926 58.988a2.003 2.003 0 0 1-1.54-.586 2.008 2.008 0 0 1-.585-1.539V39.86a2.011 2.011 0 0 1 .586-1.543 2 2 0 0 1 1.539-.582 2 2 0 0 1 1.539.582c.41.407.62.97.586 1.543v17.004a1.994 1.994 0 0 1-.586 1.54 2.003 2.003 0 0 1-1.54.585Zm0 0"/><path style="stroke:none;fill-rule:nonzero;fill:#fff;fill-opacity:1" d="M51.688 13.504a2.125 2.125 0 1 1-4.25 0 2.125 2.125 0 0 1 4.25 0ZM34.262 70.89a1.559 1.559 0 0 1-1.278-.425c-5.101-6.375-7.652-14.453-7.652-22.531a37.933 37.933 0 0 1 5.102-19.13 41.641 41.641 0 0 1 13.601-13.6 1.873 1.873 0 0 1 2.13.425 1.874 1.874 0 0 1-.427 2.125 34.305 34.305 0 0 0-17.43 29.754 33.487 33.487 0 0 0 7.227 20.832c.426.426.426 1.7-.426 2.125-.425.426-.425.426-.847.426Zm0 0"/><use xlink:href="#k" mask="url(#l)"/></svg>
