<svg xmlns="http://www.w3.org/2000/svg" viewBox="0 0 128 128"><path d="M73.281 94.387c-4.875-1.207-9.836.789-12.402 4.984a11.12 11.12 0 001.184 13.145c3.417 3.8 8.585 4.847 13.222 2.68.445-.208.824-.669 1.406-.47.125 2.391-.191 3.704-1.214 5.04-2.786 3.648-7.93 3.273-10.551-.774-1.028-1.59-2.2-2.02-3.516-1.293-1.39.778-1.652 2.145-.691 3.809a11.23 11.23 0 005.965 5.008c.453.168.394.168 1.086.43.789.308 3.222.386 4.351.179a10.29 10.29 0 001.438-.41c4.699-1.403 7.996-5.543 8.109-10.45.086-3.831.102-7.663-.008-11.495a11.13 11.13 0 00-8.379-10.383zm-9.136 10.789a6.301 6.301 0 116.363 6.226 6.272 6.272 0 01-4.473-1.793 6.277 6.277 0 01-1.89-4.433zm41.382-3.309c-1.687-5.222-6.886-8.543-12.21-7.758-5.536.813-9.614 5.391-9.715 10.899-.09 5.398 3.796 10.082 9.238 11.125 5.277 1.015 10.676-2.094 12.55-7.203.184-.512.63-1.598.684-2.387a12.25 12.25 0 00-.14-3.25 14.09 14.09 0 00-.407-1.426zm-10.757 9.535a6.233 6.233 0 01.164-12.465 6.238 6.238 0 016.195 6.231 6.282 6.282 0 01-1.887 4.437 6.27 6.27 0 01-4.472 1.797zm-50.715-8.617c-1.47-6.48-7.809-10.137-14.094-8.168-6.313 1.98-9.582 8.832-7.094 14.875 2.403 5.852 9.684 8.531 15.418 5.668.676-.34 1.184-.832 1.836.184.578.89 1.582 1.183 2.672.742 1.062-.43 1.523-1.234 1.516-2.348-.008-1.59 0-3.18 0-5.175-.102-1.66.207-3.743-.254-5.778zm-10.852 8.617c-3.578-.047-6.39-2.832-6.289-6.234.094-3.379 3.04-6.215 6.441-6.2 3.426.016 6.145 2.891 6.098 6.438-.039 3.492-2.695 6.043-6.25 5.996zm0 0"/><path d="M59.98 96.297c-.12-1.606-1.472-2.426-3.57-2.195a11.2 11.2 0 00-9.906 9.136c-.367 1.922-.086 3.88-.168 5.492 0 1.735-.008 3.149 0 4.563.016 1.941.875 3.016 2.41 3.031 1.535.024 2.473-1.066 2.496-2.976.024-2.703-.023-5.414.016-8.118.047-3.378 2.387-6.066 5.726-6.207 1.985-.082 3.098-1.398 2.996-2.726zm0 0" fill="#010101"/><path d="M58.523 71.27c.008 0 .012.02.012.066l.024.934c.046-.243.09-.48.14-.727-.035-.453-.394-.223-.176-.273zm19.571-25.512c-.008.008-.02.008-.028.015.008.008.02.016.028.02-.008-.004 0-.02 0-.035zM65.766 14.445v.004h.023c-.008 0-.016-.004-.023-.004zm0 0" fill="#fefefe"/><path d="M76.246 77.332c.098-1.082.043-2.176.18-3.25.297-2.367.011-4.781.633-7.117.304-1.211-.672-2.625.582-3.688l-.313-1.027c-.351-.582-.172-1.148.035-1.715-.023-2.074 0-4.148.375-6.2.11-2.85.23-5.698.344-8.554-.008-.008-.023-.015-.031-.023-6.094 2.797-11.84-1.121-12.817-5.82-.64-3.086-.296-6.004 2.114-8.36.402-.394.746-.851 1.117-1.285.984-5.898.297-11.313-4.742-15.535.75-.434 1.43-.188 2.043-.301v-.008c-6.184-1.55-13.688 2.68-16.172 9.14a14.22 14.22 0 00-1.024 6.02c6.133-2.843 11.63.551 13.145 5.72 1.574 5.378-2.617 11.07-8.192 11.151a15.636 15.636 0 01-4.707-.699c.114 2.969.227 5.938.344 8.907.215 1.945.45 3.886.352 5.847.015.461.027.926.043 1.387-.016.305-.028.613-.043.926.453 1.863.55 3.78.691 5.691a1.09 1.09 0 01-.027-.148c.008.05.023.093.027.148.152 3.242.242 6.496.473 9.742.097 1.34-.39 2.012-1.63 2.356-1.46.41-2.898.902-4.347 1.367 1.91.238 3.836.324 5.758.25 2.066-.043 3.008-.961 3.207-3.012.129-1.305.242-2.61.36-3.918.136-2.363.269-4.734.402-7.097h.293v6.75c.035 1.02.05 2.05.117 3.07.3 4.77.441 4.738-4.309 5.7a1.761 1.761 0 00-.316.136c.285.183.566.37.852.566a.305.305 0 01.21.14c1.133.009 2.274.106 3.391 0 2.04-.19 3-1.28 3.148-3.304.09-1.297.223-2.594.336-3.894-.18-1.723.082-3.414.403-5.11-.008-.312-.016-.617-.02-.93 0-.046-.015-.074-.015-.07-.22.055.14-.176.18.278.034-.2.081-.403.117-.606v7.82c.023.918.05 1.829.066 2.743.039 3.32-.172 3.62-3.332 4.566-.875.262-1.785.418-2.649.707-.628.219-1.425.098-2.015.836 2.574-.094 4.984.195 7.379-.191 2.476-.403 3.46-1.403 3.968-3.82.372-1.774.528-3.602 1.208-5.403.078.125.14.254.195.39.344 1.676.683 3.364 1.012 5.044.464 2.347 1.418 3.347 3.804 3.765 2.469.426 4.969.133 7.528.195-.368-.628-.942-.523-1.403-.656-1.59-.465-3.207-.86-4.765-1.398-1.133-.395-1.95-1.117-1.934-2.512.04-3.82.016-7.637.016-11.457h.46c.165 2.395.36 4.781.489 7.176.289 5.535.945 6.137 6.504 5.832.312-.524 1.082-.11 1.37-.672-1.335-.008-2.5-.648-3.722-1.059a1.579 1.579 0 01-1.058-1.609c.058-3.926-.09-7.863.441-11.773.32 3.285.574 6.574.828 9.855.117 1.535.813 2.738 2.422 2.84 2.18.152 4.363.039 6.55.039a23.037 23.037 0 00-3.519-1.297c-2.672-.86-2.656-.867-2.41-3.582zm-16.8-55.965a2.002 2.002 0 01-1.985 1.985c-1.168.02-2.05-.653-2.07-2.172.125-1.106.746-1.86 2.058-1.887 1.395-.023 2.02.918 1.996 2.074zm8.968 32.625c.008 3.02-2.305 5.656-4.945 5.649-2.492-.008-5.035-2.95-4.946-5.723-.136-.82-.277-1.648-.464-2.797 1.785 1.215 3.28 2.461 5.289 2.508 2.05.035 3.664-1.016 5.34-2.246.359.984-.543 1.75-.274 2.61zm0 0" fill="#fe733e"/><path d="M49.52 60.527c-.149-.054-.293-.12-.434-.172-2.043-.835-3.813-2.117-5.453-3.542-5.922-5.118-9.832-11.524-10.778-19.297-1.074-8.832.903-16.985 6.793-23.989 5.38-6.386 12.235-10.109 20.418-10.964 9.094-.95 17.262 1.593 24.137 7.874 5.738 5.239 9.086 11.727 9.945 19.356.73 6.5-.441 12.781-3.78 18.484-3.04 5.184-7.083 9.391-12.548 12.055-.152.074-.3.148-.449.219-.207.566-.394 1.133-.035 1.715.113-.125.246-.239.387-.336 8.257-4.371 13.984-10.867 16.664-19.91.23-.766.59-1.149 1.445-1.06 1.164.122 1.477-.655 1.477-1.624.007-3.723.011-7.441.007-11.16 0-.797-.191-1.68-1.02-1.77-1.523-.176-1.71-1.289-2.015-2.37-1.789-6.294-5.234-11.532-10.351-15.552C73.41.227 61.863-1.266 49.75 4.313c-9.004 4.14-14.738 11.324-17.336 20.937-.164.598-.09 1.309-1.105 1.098-1.446-.297-1.989.554-1.997 1.836-.023 3.722-.007 7.437-.007 11.16 0 1.238.625 1.894 1.82 1.601 1.094-.27 1.355.278 1.582 1.114a29.418 29.418 0 004.781 9.8c3.207 4.348 7.114 7.84 12.082 10.063-.015-.461-.03-.934-.05-1.395zm0 0" fill="#b5d2f3"/><path d="M49.527 62.84c-1.105 3.094-4.043 3.02-6.543 3.797 1.88.484 3.79 1.043 5.668.722 1.121-.195 1.336.207 1.5.871.016.055.024.106.04.16.007.044.019.094.027.15-.14-1.919-.239-3.83-.692-5.7zm0 0" fill="#fe684b"/><path d="M77.059 66.973c2.386 1.082 4.64-.008 6.945-.32-2.254-.958-5.172-.466-6.356-3.368-1.261 1.063-.285 2.477-.59 3.688zm0 0" fill="#fe6446"/><path d="M47.43 84.574h3.847c-.066-.043-.14-.09-.207-.14-.285-.188-.566-.371-.851-.567-.844-.047-1.633.14-2.79.707zm27.914 0h3.742c-.758-.437-1.504-.812-2.371-.672-.29.57-1.067.153-1.371.672zm0 0" fill="#fe733e"/><path d="M77.828 60.324c5.465-2.656 9.5-6.863 12.543-12.054 3.344-5.704 4.516-11.985 3.785-18.48-.86-7.642-4.199-14.13-9.945-19.36-6.875-6.274-15.043-8.825-24.137-7.867-8.176.847-15.039 4.578-20.418 10.964-5.898 7.004-7.867 15.157-6.793 23.989.946 7.78 4.856 14.18 10.778 19.297 1.648 1.425 3.418 2.714 5.453 3.542.14.06.281.118.433.172.094-1.96-.136-3.902-.351-5.847l-.45-.32c-1.511-1.098-2.812-2.45-4.117-3.778-.394-.402-.886-.746-.886-1.402-.88.636-1.516.195-2.028-.504-2.867-3.91-4.597-8.246-4.828-13.121-.207-4.313.18-8.504 1.992-12.54 2.305-5.124 5.848-9.042 10.606-11.953.808-.492 1.27-.05 1.828.317a1.902 1.902 0 001.383-.688l-.07-.156c-.477-1.008-.5-2.148.648-2.418 1.156-.273 1.812.664 1.82 1.88 8.633-2.833 16.656-1.684 23.903 3.843 5.414 4.133 8.515 9.676 9.464 16.433 1.223 8.688-1.714 15.895-7.773 21.989a10.479 10.479 0 01-2.43 1.851 11.36 11.36 0 01-.472.23c-.371 2.052-.395 4.126-.371 6.2.132-.07.273-.145.433-.219zm0 0" fill="#e2f5fc"/><path d="M80.652 52.27c6.051-6.094 8.989-13.301 7.774-21.989-.946-6.765-4.051-12.308-9.465-16.433-7.242-5.528-15.277-6.668-23.898-3.844-.016.008-.032.023-.047.031-.68.434-1.207 1.363-2.184.781a1.594 1.594 0 01-.172-.109c-.34.414-.844.668-1.383.684-.02.09-.05.171-.082.261-.617 1.739-2.476 2.196-3.718 3.239-3.38 2.828-5.887 6.214-7.364 10.316-2.37 6.61-1.886 13.082 1.29 19.336a20.865 20.865 0 001.827 2.895c.375.496.547 1.117.477 1.734v.023c0 .649.492 1 .887 1.403 1.316 1.328 2.605 2.68 4.12 3.773.15.106.298.219.446.324-.113-2.968-.226-5.937-.344-8.906-.007 0-.007-.008-.015-.008-2.578-1.695-4.473-3.86-4.801-7.082-.41-3.972 1.258-6.914 4.512-9.054.015-.008.031-.024.043-.028a14.22 14.22 0 011.023-6.02c2.484-6.452 9.988-10.69 16.172-9.14.008 0 .016.004.023.008 4.102.664 7.473 2.535 9.891 5.976 1.93 2.75 2.93 5.79 2.723 9.176 2.328 1.766 4.207 3.84 4.511 6.906.41 4.125-1.351 7.137-4.816 9.243v.035c-.113 2.851-.234 5.699-.344 8.558a6.61 6.61 0 00.469-.234 9.937 9.937 0 002.445-1.855zm0 0" fill="#cdecf6"/><path d="M70.605 29.281c2.56-1.261 5.043-.582 7.512.23.09.028.188.06.278.09.207-3.394-.793-6.43-2.723-9.175-2.418-3.438-5.79-5.313-9.89-5.977h-.024c-.613.121-1.29-.133-2.043.301 5.043 4.223 5.734 9.637 4.742 15.535.156-.074.305-.14.465-.215.574-.261 1.133-.515 1.683-.789zm0 0" fill="#fe6b3c"/><path d="M82.914 36.516c-.305-3.067-2.187-5.141-4.512-6.907a7.625 7.625 0 00-.277-.09c-2.477-.812-4.953-1.492-7.512-.23-.55.273-1.117.535-1.68.797-.156.074-.304.14-.46.215-.371.426-.715.89-1.118 1.285-2.418 2.355-2.753 5.273-2.113 8.36.977 4.706 6.723 8.624 12.824 5.835.008-.008.02-.008.028-.015 3.469-2.114 5.238-5.133 4.82-9.25zm-9.121 8.242a7.076 7.076 0 01-6.106-3.602 7.078 7.078 0 01.086-7.086 7.08 7.08 0 016.188-3.457c3.969.032 7.008 3.157 6.977 7.172-.032 3.98-3.133 7.012-7.145 6.973zm0 0" fill="#fe6142"/><path d="M48.52 29.629c-3.254 2.14-4.922 5.082-4.512 9.058.328 3.223 2.222 5.383 4.8 7.079.008 0 .008.007.016.007 1.524.473 3.114.707 4.707.7 5.567-.082 9.766-5.766 8.192-11.153-1.516-5.168-7.02-8.562-13.145-5.718a.276.276 0 00-.058.027zm4.445 15.129c-4.067.015-7.215-3.102-7.2-7.145.008-3.968 3.106-7.043 7.094-7.066a7.11 7.11 0 016.305 10.637 7.105 7.105 0 01-6.2 3.574zm0 0" fill="#fe6143"/><path d="M59.46 54.574c-.273-.277-.476-.648-.937-.656-.09 2.773 2.446 5.715 4.946 5.723 2.648.007 4.953-2.63 4.945-5.649-1 .516-1.633 1.574-2.785 1.887-2.29.629-4.39.469-6.168-1.305zm0 0" fill="#070909"/><path d="M68.688 51.383c-1.676 1.23-3.282 2.281-5.34 2.246-2.012-.04-3.504-1.293-5.29-2.508.196 1.149.329 1.969.465 2.797.461.016.664.379.938.656 1.77 1.774 3.879 1.934 6.168 1.305 1.152-.313 1.785-1.363 2.785-1.887-.27-.86.633-1.625.273-2.61zm0 0" fill="#fdfcfb"/><path d="M57.45 19.3c-1.321.02-1.942.774-2.06 1.887.02 1.52.903 2.184 2.07 2.168a1.997 1.997 0 001.985-1.98c.024-1.164-.601-2.105-1.996-2.074zm0 0" fill="#fea777"/><path d="M43.707 49.168a2.428 2.428 0 00-.477-1.738 21.238 21.238 0 01-1.828-2.895c-3.175-6.25-3.668-12.726-1.289-19.336 1.477-4.101 3.985-7.488 7.364-10.316 1.242-1.043 3.101-1.492 3.718-3.238a1.52 1.52 0 00.082-.258c-.558-.367-1.02-.809-1.824-.317-4.762 2.91-8.305 6.828-10.61 11.953-1.812 4.036-2.198 8.227-1.991 12.54.238 4.867 1.964 9.21 4.828 13.117.515.703 1.156 1.144 2.027.508zm0 0" fill="#fdfefe"/><path d="M55.008 10.035c.015-.008.031-.023.047-.031-.016-1.215-.664-2.156-1.82-1.879-1.15.277-1.13 1.418-.65 2.418l.067.156c.055.04.11.078.172.114.977.585 1.504-.352 2.184-.778zm0 0" fill="#fbfdfe"/><path d="M80.938 37.79c.03-4.005-3.008-7.13-6.977-7.169a7.071 7.071 0 00-6.188 3.457 7.078 7.078 0 00-.085 7.086 7.076 7.076 0 006.105 3.602c4.012.03 7.113-3 7.144-6.977zm-6.797.776c-1.34.024-2.125-.738-2.246-2.058-.036-.606.183-1.2.605-1.637a2.151 2.151 0 011.613-.66c1.313.098 2.051.863 2.207 2.238-.18 1.223-.804 2.094-2.18 2.117zM52.86 30.555a7.015 7.015 0 00-7.094 7.066c-.008 4.043 3.132 7.16 7.199 7.145a7.105 7.105 0 10-.106-14.211zm.007 8.011c-1.328.016-2.125-.746-2.23-2.082a2.16 2.16 0 01.62-1.629 2.15 2.15 0 011.626-.636c1.297.11 2.058.863 2.18 2.238-.165 1.258-.852 2.094-2.196 2.11zm0 0" fill="#fefefe"/><path d="M74.113 34.21a2.162 2.162 0 00-1.617.657 2.167 2.167 0 00-.601 1.64c.12 1.329.906 2.083 2.246 2.06 1.367-.024 2-.895 2.18-2.118-.157-1.375-.895-2.14-2.208-2.238zm0 0" fill="#090b0b"/><path d="M52.883 34.219a2.15 2.15 0 00-1.625.636 2.16 2.16 0 00-.621 1.63c.105 1.335.902 2.097 2.23 2.081 1.344-.015 2.031-.851 2.196-2.109-.13-1.383-.891-2.133-2.18-2.238zm0 0" fill="#090c0c"/></svg>
