<svg xmlns="http://www.w3.org/2000/svg" viewBox="0 0 128 128"><path d="M73.281 94.387c-4.875-1.207-9.836.789-12.402 4.984a11.12 11.12 0 001.184 13.145c3.417 3.8 8.585 4.847 13.222 2.68.445-.208.824-.669 1.406-.47.125 2.391-.191 3.704-1.214 5.04-2.786 3.648-7.93 3.273-10.551-.774-1.028-1.59-2.2-2.02-3.516-1.293-1.39.778-1.652 2.145-.691 3.809a11.23 11.23 0 005.965 5.008c.453.168.394.168 1.086.43.789.308 3.222.386 4.351.179a10.29 10.29 0 001.438-.41c4.699-1.403 7.996-5.543 8.109-10.45.086-3.831.102-7.663-.008-11.495a11.13 11.13 0 00-8.379-10.383zm-9.136 10.789a6.301 6.301 0 116.363 6.226 6.272 6.272 0 01-4.473-1.793 6.277 6.277 0 01-1.89-4.433zm41.382-3.309c-1.687-5.222-6.886-8.543-12.21-7.758-5.536.813-9.614 5.391-9.715 10.899-.09 5.398 3.796 10.082 9.238 11.125 5.277 1.015 10.676-2.094 12.55-7.203.184-.512.63-1.598.684-2.387a12.25 12.25 0 00-.14-3.25 14.09 14.09 0 00-.407-1.426zm-10.757 9.535a6.233 6.233 0 01.164-12.465 6.238 6.238 0 016.195 6.231 6.282 6.282 0 01-1.887 4.437 6.27 6.27 0 01-4.472 1.797zm-50.715-8.617c-1.47-6.48-7.809-10.137-14.094-8.168-6.313 1.98-9.582 8.832-7.094 14.875 2.403 5.852 9.684 8.531 15.418 5.668.676-.34 1.184-.832 1.836.184.578.89 1.582 1.183 2.672.742 1.062-.43 1.523-1.234 1.516-2.348-.008-1.59 0-3.18 0-5.175-.102-1.66.207-3.743-.254-5.778zm-10.852 8.617c-3.578-.047-6.39-2.832-6.289-6.234.094-3.379 3.04-6.215 6.441-6.2 3.426.016 6.145 2.891 6.098 6.438-.039 3.492-2.695 6.043-6.25 5.996zm0 0"/><path d="M59.98 96.297c-.12-1.606-1.472-2.426-3.57-2.195a11.2 11.2 0 00-9.906 9.136c-.367 1.922-.086 3.88-.168 5.492 0 1.735-.008 3.149 0 4.563.016 1.941.875 3.016 2.41 3.031 1.535.024 2.473-1.066 2.496-2.976.024-2.703-.023-5.414.016-8.118.047-3.378 2.387-6.066 5.726-6.207 1.985-.082 3.098-1.398 2.996-2.726zm0 0" fill="#010101"/><path d="M65.527 1.313a41.26 41.26 0 014.653.664c6.007 1.375 11.164 4.343 15.68 8.464 4.156 3.797 6.863 8.493 8.359 13.895.32 1.148.773 2.004 2.097 2.234.735.125.852.875.856 1.54.012 2.312.008 4.628.008 6.94 0 1.446-.004 2.891-.008 4.337-.004 1.27-.414 1.71-1.664 1.691-.758-.012-1.051.43-1.238 1.047a34.082 34.082 0 01-1.973 5.102c-2.926 6.02-7.457 10.511-13.2 13.851-.277.16-.554.317-.835.469-.903.492-.922.523-.555 1.484a3.752 3.752 0 002.379 2.239c.96.347 1.977.48 2.957.753.3.059.59.172.848.332-.235.297-.559.243-.829.297-1.289.258-2.55.657-3.89.606a4.511 4.511 0 01-1.563-.227c-.41-.164-.546-.023-.632.39a18.98 18.98 0 00-.301 3.294c-.055 2.207-.25 4.402-.403 6.601-.148 2.137-.062 2.332 2 3.016 1.008.332 2.012.668 3.012 1.02.25.09.54.14.688.418-.141.203-.348.128-.524.128-1.761.008-3.523.016-5.289 0-1.875-.015-2.887-1.007-3.023-2.87-.2-2.731-.43-5.458-.649-8.184a5.267 5.267 0 00-.097-.43c-.282 1.629-.23 3.145-.297 4.648-.086 1.887-.031 3.782-.028 5.668 0 .965.309 1.387 1.2 1.727 1.285.488 2.546 1.059 3.988.938.504-.04.984.222 1.441.464.11.059.258.118.246.258-.015.156-.18.168-.3.168-2.356-.074-4.715.227-7.063-.105-1.152-.16-1.906-.844-2.258-1.973-.34-1.086-.406-2.21-.488-3.332-.164-2.242-.281-4.484-.418-6.73a.786.786 0 00-.215-.61c-.117.211-.16.453-.113.692-.004 3.418-.008 6.835-.004 10.257 0 1.391.441 2.059 1.77 2.536 1.718.613 3.492 1.066 5.261 1.515.395.098.805.168.867.684h-6.628c-.188-.035-.372-.078-.559-.106-2.512-.36-3.582-1.332-4.09-3.73-.082-.395-.16-.79-.238-1.184l-.809-3.949a4.39 4.39 0 00-.52 1.383c-.296 1.43-.538 2.87-.866 4.293-.407 1.765-1.594 2.734-3.336 3.07l-1.18.223h-6.629c.207-.614.773-.66 1.273-.793 1.7-.453 3.434-.797 5.075-1.461a2.165 2.165 0 001.418-1.867c.207-1.555.007-3.094-.047-4.637a5.553 5.553 0 00-.282-1.129 1.483 1.483 0 00-.253.742c-.094 1.059-.176 2.114-.27 3.172-.133 1.547-.977 2.563-2.43 2.899a6.263 6.263 0 01-1.32.164c-1.996.007-3.992-.008-5.988-.02-.176 0-.395.07-.531-.23a5.046 5.046 0 012.082-.672 20.555 20.555 0 003.363-.692c1.5-.406 1.867-.89 1.828-2.457-.082-3.332-.324-6.66-.242-9.992.015-.656 0-1.316 0-1.973a9.061 9.061 0 00-.18 1.38c-.11 3.136-.351 6.265-.664 9.39-.187 1.836-1.059 2.676-2.879 2.883-1.594.18-3.18.004-4.766-.078-.386-.02-.84.047-1.21-.227.152-.234.375-.246.57-.308 1.293-.415 2.594-.805 3.883-1.231.883-.293 1.258-.844 1.273-1.766a8.35 8.35 0 00-.012-.828c-.199-2.562-.293-5.125-.375-7.691a19.358 19.358 0 00-.125-1.715c-.086-.672-.468-1.027-1.054-.922-1.809.328-3.547-.02-5.274-.496-.21-.059-.476-.027-.636-.312a3.46 3.46 0 011.02-.329c.913-.183 1.816-.43 2.694-.742a4.267 4.267 0 002.489-2.332c.32-.726.199-1.133-.403-1.422-5.074-2.445-8.992-6.191-12.136-10.8a29.134 29.134 0 01-4.02-8.758c-.242-.883-.559-1.074-1.371-.934-1.098.195-1.434.024-1.914-.976V27.57c.512-1.09.734-1.222 1.91-1.18.84.032.883-.019 1.106-.87 1.418-5.395 3.87-10.239 7.773-14.27 4.691-4.855 10.504-7.68 17.004-9.21 1.637-.388 3.3-.54 4.965-.728zM94.07 33.34a26.024 26.024 0 00-.172-3.356 29.116 29.116 0 00-.359-2.328C91.402 17.051 85.152 9.688 75.461 5.223 69.902 2.66 63.973 2.23 58.004 3.395c-11.629 2.261-19.316 9.242-23.406 20.23-1.563 4.2-1.774 8.61-1.325 13.063a28.507 28.507 0 002.664 9.64c2.094 4.348 5.168 7.902 8.872 10.95a18.887 18.887 0 004.007 2.574c.84.398.883.375.88-.524.023-.574.011-1.144-.036-1.719-.445-3.648-.508-7.32-.601-10.988a1.408 1.408 0 00-.66-1.262c-1.376-.957-2.555-2.12-3.297-3.644-1.696-3.473-1.332-8.453 2.91-11.508.488-.352.777-.684.707-1.336a6.315 6.315 0 01.113-1.582c.633-4.25 2.676-7.652 6.16-10.168 2.442-1.758 5.164-2.762 8.184-2.8 1.73-.02 3.414.394 5.066.874 5.754 1.676 10.188 7.414 10.18 13.235-.05.797.308 1.562.957 2.023 1.66 1.328 2.941 2.973 3.379 5.106.785 3.855-.297 7.093-3.504 9.43-.953.69-1.242 1.449-1.195 2.495.007.168.004.34-.004.508l-.223 5.153c-.09 2.093-.492 4.171-.418 6.277.027.797.02.808.719.457a26.73 26.73 0 008.566-6.813C91.426 47.422 94.125 41 94.07 33.34zM53.125 44.633a6.927 6.927 0 006.102-10.383 6.93 6.93 0 00-6.04-3.469c-3.917-.015-6.996 2.938-7.007 6.73-.016 4.11 2.906 7.106 6.945 7.122zm20.738 0c3.946.008 6.93-2.95 6.93-6.863 0-3.907-3.027-6.977-6.871-6.97-3.809.009-6.945 3.098-6.957 6.856-.008 3.953 2.972 6.973 6.898 6.977zm-5.265 6.933c-.746.457-1.457.989-2.254 1.371-1.918.922-3.805.922-5.656-.171-.563-.336-1.102-.72-1.66-1.063-.169-.105-.329-.371-.54-.226-.156.113-.031.355 0 .543.133.644.23 1.292.293 1.945.098 2.023 1.051 3.55 2.66 4.691.801.617 1.832.86 2.829.664 2.023-.422 3.668-2.199 4.023-4.36.156-.952.016-1.944.39-2.874a.472.472 0 00-.085-.52zm0 0"/><path d="M37.168 33.953c-.043-3.945.512-7.355 1.934-10.598 2.265-5.164 5.878-9.14 10.668-12.078a1.352 1.352 0 011.64.239c.219.214.13.421.04.64a3.866 3.866 0 01-1.72 1.82c-3.863 2.29-6.546 5.626-8.433 9.626a22.553 22.553 0 00-2.215 10.687c.2 4.684 1.57 9.008 4.34 12.844.316.375.531.824.621 1.304.035.29.207.602-.11.817-.3.219-.687.273-1.035.148a1.79 1.79 0 01-.836-.664c-2.578-3.5-4.273-7.355-4.761-11.715-.133-1.168-.02-2.336-.133-3.07zM52.492 9.688a1.338 1.338 0 011.356-1.368c.757.004 1.465.809 1.488 1.696.012.492-1.106 1.394-1.707 1.379-.672-.02-1.137-.715-1.137-1.707zm-1.664 26.777a2.188 2.188 0 012.102-2.262c1.36-.008 2.398.969 2.414 2.266.011 1.273-.969 2.226-2.29 2.222-1.363-.004-2.222-.863-2.226-2.226zm23.254 2.226c-1.367-.007-2.238-.91-2.223-2.308a2.264 2.264 0 012.133-2.196 2.345 2.345 0 012.395 2.301c.004 1.266-.989 2.211-2.305 2.203zm0 0"/></svg>
