<?xml version="1.0" encoding="UTF-8"?>
<svg xmlns="http://www.w3.org/2000/svg" xmlns:xlink="http://www.w3.org/1999/xlink" width="128px" height="128px" viewBox="0 0 128 128" version="1.1">
<g id="surface1">
<path style=" stroke:none;fill-rule:nonzero;fill:rgb(20%,20%,20%);fill-opacity:1;" d="M 62.550781 47.980469 C 60.558594 47.980469 58.71875 49.492188 58.429688 51.355469 C 58.15625 53.207031 59.617188 54.742188 61.613281 54.742188 C 63.613281 54.742188 65.464844 53.21875 65.714844 51.355469 C 65.960938 49.492188 64.542969 47.980469 62.550781 47.980469 Z M 36.996094 49.933594 L 32.074219 79.59375 L 39.238281 79.59375 L 41.210938 67.679688 L 52.996094 67.679688 L 53.980469 61.839844 L 42.195312 61.839844 L 43.179688 55.757812 L 56.253906 55.757812 L 57.238281 49.933594 Z M 68.324219 49.933594 L 63.40625 79.59375 L 70.414062 79.59375 L 70.992188 75.984375 L 71.269531 75.984375 C 71.789062 78.039062 73.46875 79.90625 76.828125 79.90625 C 81.753906 79.90625 86.386719 76.058594 87.632812 68.484375 C 88.941406 60.636719 85.34375 57.0625 80.695312 57.0625 C 77.175781 57.0625 74.875 59.113281 73.71875 61.15625 L 73.566406 61.15625 L 75.402344 49.933594 Z M 126.058594 57.050781 C 123.625 57.050781 121.441406 58.464844 120.121094 61.402344 L 119.894531 61.402344 L 120.578125 57.347656 L 113.707031 57.347656 L 110.003906 79.589844 L 117.082031 79.589844 L 119.078125 67.515625 C 119.542969 64.863281 121.714844 63.082031 124.21875 63.082031 C 125.105469 63.082031 126.304688 63.214844 126.957031 63.460938 L 128 57.289062 C 127.363281 57.136719 126.714844 57.054688 126.058594 57.050781 Z M 101.398438 57.0625 C 94.695312 57.0625 89.59375 61.667969 88.453125 68.558594 C 87.25 75.664062 90.8125 80.007812 97.796875 80.019531 C 103.65625 80.019531 107.898438 77.195312 109.476562 72.820312 L 103.019531 72.636719 C 102.210938 74.125 100.613281 74.90625 98.773438 74.90625 C 96.011719 74.90625 94.679688 73.265625 95.128906 70.441406 L 95.171875 70.179688 L 109.980469 70.179688 L 110.261719 68.414062 C 111.476562 61.101562 107.710938 57.0625 101.398438 57.0625 Z M 57.570312 57.347656 L 53.867188 79.589844 L 60.949219 79.589844 L 64.648438 57.347656 L 57.566406 57.347656 Z M 100.746094 62.175781 C 103.0625 62.175781 104.425781 63.796875 104.0625 66.066406 L 95.921875 66.066406 C 96.429688 63.867188 98.457031 62.175781 100.746094 62.175781 Z M 77.265625 62.597656 C 79.890625 62.597656 80.929688 64.886719 80.355469 68.476562 C 79.785156 72.066406 77.921875 74.398438 75.316406 74.398438 C 72.722656 74.398438 71.609375 72.074219 72.195312 68.476562 C 72.773438 64.84375 74.671875 62.597656 77.265625 62.597656 Z M 77.265625 62.597656 "/>
<path style=" stroke:none;fill-rule:nonzero;fill:rgb(0%,67.45098%,84.313725%);fill-opacity:1;" d="M 9.515625 57.808594 L 7.664062 60.429688 L 32.195312 60.414062 L 32.621094 57.804688 L 9.515625 57.804688 Z M 1.902344 63.242188 L 0 65.855469 L 31.378906 65.835938 L 31.804688 63.242188 Z M 18.210938 68.679688 L 16.492188 71.304688 L 30.558594 71.292969 L 30.988281 68.679688 Z M 18.210938 68.679688 "/>
</g>
</svg>
