<svg xmlns="http://www.w3.org/2000/svg" viewBox="0 0 128 128"><path fill="#00acd7" d="M62.772 47.678c-2.217 0-4.23 1.637-4.562 3.752v.006c-.31 2.12 1.41 3.911 3.637 3.911 2.225 0 4.257-1.649 4.54-3.774.28-2.12-1.398-3.894-3.615-3.894zm0 .989c1.717 0 2.841 1.211 2.634 2.774-.207 1.558-1.836 2.918-3.559 2.918-1.718 0-2.882-1.238-2.66-2.775.245-1.568 1.868-2.918 3.585-2.918zm-25.665.941-.07.413-4.96 29.88h8.082l1.947-11.773H53.75l1.14-6.758H43.242l.812-5.021h12.914l1.142-6.74zm30.95 0-.07.413-4.95 29.878h7.925l.443-2.76c.87 1.7 2.617 3.072 5.473 3.072 4.986 0 9.591-3.903 10.995-11.163-.427 3.302.096 6.105 1.69 8.059 1.705 2.087 4.479 3.21 8.03 3.215 5.95 0 10.376-2.914 12.007-7.438l.232-.642-7.366-.213-.145.267c-.702 1.297-2.081 1.987-3.759 1.987-1.268 0-2.109-.362-2.61-.978-.479-.587-.668-1.492-.508-2.703h14.613l.34-2.16v-.004c.616-3.706-.026-6.673-1.694-8.707-1.67-2.034-4.325-3.08-7.55-3.08-6.659 0-11.748 4.548-13.098 11.237.485-3.61-.004-6.42-1.318-8.292-1.398-1.99-3.615-2.946-6.038-2.946-2.815 0-4.894 1.275-6.264 2.832l1.615-9.874zm-30.113.988H56.94l-.806 4.765H43.212l-1.133 6.997h11.644l-.806 4.782H41.269l-1.947 11.773h-6.079zm30.953 0h5.99l-1.814 11.088h1.019l.142-.25c1.076-1.898 3.181-3.796 6.465-3.796 2.17 0 4.025.811 5.23 2.526 1.203 1.714 1.767 4.393 1.134 8.186-1.203 7.314-5.578 10.874-10.185 10.874-3.135 0-4.544-1.65-5.013-3.505l-.095-.372h-1.077l-.573 3.564h-5.918zm56.621 6.042c-2.02 0-3.883.974-5.258 2.827l.428-2.532h-7.792l-3.825 22.964h7.997l2.044-12.344c.42-2.394 2.352-3.966 4.59-3.966.824 0 2.02.15 2.53.342l.562.21L128 57l-.446-.11a8.81 8.81 0 0 0-2.032-.253h-.002zm-68.088.295-.07.413-3.75 22.551h7.998l3.82-22.964zm-47.316.454-.147.208-2.377 3.371 25.607-.013.585-3.566zm115.4.24h.005c.454.003.9.087 1.347.169l-.869 5.125c-.728-.177-1.56-.322-2.294-.322-2.71 0-5.07 1.949-5.566 4.788v.002l-1.906 11.52h-5.992l3.495-20.988h5.785l-.677 4.006h1.133l.13-.29c1.243-2.771 3.2-4.01 5.41-4.01zm-24.36.013c3.013 0 5.335.95 6.785 2.717 1.45 1.767 2.067 4.406 1.482 7.923v.002l-.209 1.332H94.585l-.116.67v.003c-.235 1.485-.012 2.748.716 3.641.728.894 1.913 1.344 3.377 1.344 1.82 0 3.415-.812 4.357-2.24l5.394.156c-1.664 3.723-5.409 6.146-10.72 6.146-3.347-.005-5.782-1.034-7.265-2.85-1.483-1.817-2.056-4.482-1.478-7.897v-.002h.002c1.096-6.61 5.904-10.945 12.302-10.945zm-42.886.281h5.992L60.77 78.91h-5.993zm-47.641.454H32.62l-.26 1.59-22.864.013zm89.882 3.327c-2.504 0-4.692 1.83-5.245 4.232l-.14.604h9.083l.067-.417c.197-1.236-.077-2.36-.758-3.163-.682-.803-1.747-1.256-3.007-1.256zm-23.2.418c-1.424 0-2.686.637-3.625 1.731-.938 1.095-1.575 2.634-1.871 4.497-.3 1.84-.183 3.4.413 4.56.595 1.16 1.73 1.862 3.158 1.862 1.435 0 2.694-.662 3.622-1.772.928-1.11 1.552-2.657 1.845-4.496.293-1.836.193-3.382-.39-4.535-.582-1.153-1.71-1.847-3.153-1.847zm23.2.57c1.029 0 1.78.347 2.254.907.402.473.564 1.154.525 1.953H96.48c.656-1.635 2.236-2.86 4.03-2.86zm-97.91.07-.148.202L0 66.329l32.39-.023.587-3.547Zm74.71.348c1.154 0 1.833.44 2.27 1.305.438.865.569 2.223.296 3.935-.272 1.707-.85 3.087-1.627 4.015-.776.929-1.724 1.419-2.864 1.419-1.132 0-1.828-.449-2.279-1.326-.45-.877-.595-2.242-.316-3.952v-.002c.275-1.729.862-3.095 1.644-4.008.782-.913 1.737-1.386 2.875-1.386zm-74.206.64h28.708l-.258 1.57-29.61.023zm15.596 4.382-.147.223-2.2 3.356 15.234-.01.582-3.57zm.533.988h11.773l-.26 1.594-12.563.01z"/></svg>
