<?xml version="1.0" encoding="UTF-8" standalone="no"?>
<svg
   width="128"
   height="128"
   viewBox="0 0 128 128"
   version="1.1"
   id="svg3"
   sodipodi:docname="Liquid.svg"
   inkscape:version="1.3.2 (091e20e, 2023-11-25, custom)"
   xmlns:inkscape="http://www.inkscape.org/namespaces/inkscape"
   xmlns:sodipodi="http://sodipodi.sourceforge.net/DTD/sodipodi-0.dtd"
   xmlns="http://www.w3.org/2000/svg"
   xmlns:svg="http://www.w3.org/2000/svg"
   xmlns:rdf="http://www.w3.org/1999/02/22-rdf-syntax-ns#"
   xmlns:cc="http://creativecommons.org/ns#"
   xmlns:dc="http://purl.org/dc/elements/1.1/">
  <defs
     id="defs3" />
  <sodipodi:namedview
     id="namedview3"
     pagecolor="#ffffff"
     bordercolor="#111111"
     borderopacity="1"
     inkscape:showpageshadow="0"
     inkscape:pageopacity="0"
     inkscape:pagecheckerboard="1"
     inkscape:deskcolor="#d1d1d1"
     inkscape:zoom="4.2592135"
     inkscape:cx="87.222676"
     inkscape:cy="58.344105"
     inkscape:window-width="1920"
     inkscape:window-height="1009"
     inkscape:window-x="-8"
     inkscape:window-y="-8"
     inkscape:window-maximized="1"
     inkscape:current-layer="svg3" />
  <title
     id="title1">file_type_liquid</title>
  <path
     d="m 127.94486,92.204586 -3.41941,0.219428 a 23.812468,23.812468 0 0 1 -13.66851,-3.067416 35.656988,35.656988 0 0 0 -35.656987,0 24.114181,24.114181 0 0 1 -24.228465,0.04571 A 33.19757,33.19757 0 0 0 33.202422,84.561186 33.046713,33.046713 0 0 0 15.191071,89.40688 21.718763,21.718763 0 0 1 3.8996917,92.606866 H 0.06885105 c 0,4.063983 -0.041143,7.949684 -0.068571,11.497094 H 3.936263 a 33.083285,33.083285 0 0 0 17.142782,-4.809123 21.773619,21.773619 0 0 1 12.155377,-3.199986 22.102761,22.102761 0 0 1 12.04109,3.282271 35.629559,35.629559 0 0 0 35.656987,0 24.169038,24.169038 0 0 1 24.315321,0 35.24099,35.24099 0 0 0 20.11421,4.521128 l 2.63769,-0.192 c -0.0229,-3.60227 -0.0411,-7.492538 -0.0549,-11.501664 z"
     style="fill:#004999;stroke-width:4.57141"
     id="path1" />
  <path
     d="m 127.92201,61.16015 -3.39656,0.214856 a 23.890182,23.890182 0 0 1 -13.66851,-3.067416 35.656988,35.656988 0 0 0 -35.656987,0 A 24.127895,24.127895 0 0 1 50.971488,58.3533 33.426141,33.426141 0 0 0 33.202422,53.521321 33.371284,33.371284 0 0 0 15.1865,58.367015 21.67762,21.67762 0 0 1 3.8996917,61.567001 H 0.11456515 c 0,3.881126 0,7.739395 0,11.497093 H 3.9545485 a 33.083285,33.083285 0 0 0 17.1427825,-4.809122 21.485621,21.485621 0 0 1 12.155376,-3.199986 21.942762,21.942762 0 0 1 12.04109,3.282271 35.629559,35.629559 0 0 0 35.656988,0 24.169038,24.169038 0 0 1 24.315325,0 35.24099,35.24099 0 0 0 20.1142,4.521123 l 2.59655,-0.169142 c -0.0548,-3.812555 -0.0548,-7.675395 -0.0548,-11.529092 z"
     style="fill:#004999;stroke-width:4.57141"
     id="path2" />
  <path
     d="m 124.52545,31.701992 a 24.018182,24.018182 0 0 1 -13.66851,-3.067416 35.656988,35.656988 0 0 0 -35.656987,0 24.114181,24.114181 0 0 1 -24.228465,0.04114 A 32.731287,32.731287 0 0 0 33.202422,23.85288 32.726715,32.726715 0 0 0 15.191071,28.694002 21.659335,21.659335 0 0 1 3.904263,31.893988 H 0.09170815 c 0,3.748555 0,7.606824 0,11.506236 H 3.9134059 a 33.083285,33.083285 0 0 0 17.1427831,-4.809119 21.659335,21.659335 0 0 1 12.155376,-3.227415 22.006761,22.006761 0 0 1 12.041089,3.286843 35.615845,35.615845 0 0 0 35.656989,0 24.196466,24.196466 0 0 1 24.315317,0 35.346132,35.346132 0 0 0 20.11421,4.516552 l 2.59655,-0.169142 c 0,-3.92684 0,-7.771395 0.032,-11.501664 z"
     style="fill:#004999;stroke-width:4.57141"
     id="path3" />
  <metadata
     id="metadata3">
    <rdf:RDF>
      <cc:Work
         rdf:about="">
        <dc:title>file_type_liquid</dc:title>
      </cc:Work>
    </rdf:RDF>
  </metadata>
</svg>
