<svg xmlns="http://www.w3.org/2000/svg" viewBox="0 0 128 128">
  <path d="m55.54 5.486-42.874 17.97-7.18 75.665 40.131 23.393 8.094-9.543 33.11 9.324 35.693-12.117-10.192-38.633 9.412-19.15-20.662-17.184v65.861H26.93V26.93h68.754L92.525 5.486 76.871 19.473 55.54 5.486zM27.93 27.93v72.142h72.142V27.93H27.93zm47.894 8.19a14.129 14.129 0 0 1 10.803 4.218l-3.828 4.426a10.155 10.155 0 0 0-7.012-3.096c-4.62 0-7.947 3.838-7.947 8.531v.086c0 4.693 3.254 8.606 7.947 8.606 3.133 0 5.047-1.218 7.205-3.205l3.828 3.863a13.97 13.97 0 0 1-11.226 4.877A13.836 13.836 0 0 1 61.55 50.359v-.074A13.909 13.909 0 0 1 75.824 36.12zm-39.254.45h11.215c6.534 0 10.496 3.878 10.496 9.473v.072c0 6.34-4.936 9.631-11.08 9.631h-4.533v8.217h-6.096L36.57 36.57zm6.098 5.438v8.375h4.703c3.011 0 4.78-1.792 4.78-4.145v-.074c0-2.706-1.877-4.156-4.876-4.156h-4.607zm-6.121 44.738h27.43v4.572h-27.43v-4.572z"/>
</svg>
