<svg xmlns="http://www.w3.org/2000/svg" viewBox="0 0 128 128"><path fill="#000000" d="M9.905 0c-5.444 0-9.9 4.457-9.9 9.901v65.796A9.908 9.908 0 0 0 6 84.797l8.015 3.433-.361.425a9.92 9.92 0 0 0-2.381 6.443v2.562c-.002.096 0 .182 0 .204V118.1c0 1.277.256 2.497.691 3.606v.008c.005.02.029.1.086.236.071.168.12.26.134.283h.008a9.906 9.906 0 0 0 1.98 2.86c.166.166.352.33.542.495l.165.158a9.932 9.932 0 0 0 1.572 1.053c.244.132.396.195.448.22-.007-.003.125.08.416.204l.032.008c.294.123.59.224.88.314.313.098.633.185.959.252.636.13 1.303.204 1.996.204h22.285c.088 0 .143-.006.165-.008h2.899c.47 0 .939-.03 1.4-.094v-.008l71.562-10.216c4.863-.695 8.503-4.886 8.503-9.799V72.02c0-1.957-.58-3.868-1.666-5.494L115.109 49.71l-.676.802a9.907 9.907 0 0 0 2.294-6.334V21.17c0-5.445-4.456-9.902-9.9-9.902H89.451l-4.581-6.86A9.91 9.91 0 0 0 76.636 0Zm0 4.023h66.73c1.966 0 3.796.98 4.888 2.617l5.776 8.652h19.527a5.848 5.848 0 0 1 5.878 5.878v23.008c0 1.401-.499 2.75-1.414 3.819l-.008.008-1.203 1.422 12.903 19.33c.647.97.99 2.101.99 3.262V107.875a5.857 5.857 0 0 1-5.044 5.823l-71.564 10.215v-.008c-.279.04-.555.063-.833.063h-2.939a2.62 2.62 0 0 0-.172.008H21.182c-.397 0-.804-.045-1.195-.126a5.776 5.776 0 0 1-.566-.141 5.626 5.626 0 0 1-.526-.196h-.008l-.008-.008c.051.02-.017-.013-.236-.118a4.476 4.476 0 0 0-.275-.126 5.86 5.86 0 0 1-.927-.629h-.008a6.047 6.047 0 0 1-.417-.385 5.879 5.879 0 0 1-1.178-1.697h.007c-.051-.112-.076-.155-.086-.173l-.008-.023c-.01-.028-.028-.07-.047-.118a5.773 5.773 0 0 1-.409-2.138V95.098c0-1.404.501-2.761 1.415-3.827l3.921-4.581-13.044-5.587a5.871 5.871 0 0 1-3.56-5.406V9.9a5.848 5.848 0 0 1 5.878-5.878zM25.26 25.256v77.48h77.48v-77.48Zm48.971 9.123c2.353 0 4.518.44 6.483 1.312 1.965.872 3.594 2.092 4.896 3.67a12.363 12.363 0 0 1 2.64 5.398h-5.94a7.694 7.694 0 0 0-1.745-2.758 7.622 7.622 0 0 0-2.758-1.846c-1.08-.429-2.264-.645-3.536-.645-1.717 0-3.261.423-4.645 1.281-1.384.859-2.471 2.044-3.26 3.552-.776 1.495-1.164 3.187-1.164 5.068 0 1.882.388 3.577 1.163 5.085.789 1.494 1.877 2.67 3.261 3.528 1.384.859 2.928 1.289 4.645 1.289 1.273 0 2.457-.217 3.536-.645 1.078-.428 1.996-1.033 2.758-1.823a7.895 7.895 0 0 0 1.744-2.782h5.941a12.482 12.482 0 0 1-2.64 5.415c-1.302 1.565-2.93 2.782-4.896 3.654-1.965.872-4.13 1.312-6.483 1.312-2.782 0-5.302-.656-7.56-1.957a14.22 14.22 0 0 1-5.311-5.398c-1.287-2.297-1.933-4.854-1.933-7.678 0-2.823.646-5.378 1.933-7.661 1.287-2.297 3.055-4.099 5.312-5.399 2.255-1.315 4.776-1.972 7.56-1.972zm-39.101.495H47.6c2.035 0 3.832.376 5.383 1.124 1.55.747 2.737 1.802 3.568 3.159.844 1.357 1.273 2.921 1.273 4.707 0 1.785-.432 3.407-1.29 4.777-.843 1.37-2.06 2.438-3.637 3.199-1.564.747-3.386 1.123-5.462 1.123h-6.64v10.978H35.13zm5.665 4.715v8.66h6.436c.955 0 1.785-.173 2.491-.52.72-.36 1.271-.864 1.658-1.516.387-.664.581-1.43.581-2.302 0-.872-.193-1.652-.581-2.287a3.772 3.772 0 0 0-1.658-1.493c-.706-.36-1.536-.542-2.491-.542zM34.933 87.24h30.992v5.815H34.933Z"/></svg>
