<svg xmlns="http://www.w3.org/2000/svg" viewBox="0 0 128 128"><g fill="#4d8548"><path d="M43.35 59.71a21.85 21.85 0 013.65-.29 6 6 0 014.11 1.22 3.94 3.94 0 011.28 3.07 4.32 4.32 0 01-1.13 3.13 6.08 6.08 0 01-4.48 1.61 6.47 6.47 0 01-1.52-.13v5.87h-1.91V59.71zm1.89 7.07a6.33 6.33 0 001.57.15c2.28 0 3.68-1.11 3.68-3.13s-1.37-2.87-3.49-2.87a8 8 0 00-1.78.15v5.7zM55.64 63.67l2.31 6.22c.24.7.5 1.52.67 2.15.2-.63.41-1.44.67-2.2l2.09-6.18h2l-2.87 7.5c-1.37 3.61-2.31 5.46-3.61 6.59A5.19 5.19 0 0154.62 79l-.48-1.61a5.06 5.06 0 001.68-.93 5.82 5.82 0 001.61-2.13 1.37 1.37 0 00.15-.46 1.67 1.67 0 00-.13-.5l-3.89-9.7h2.09zM75.8 73.78a9.45 9.45 0 01-3.76.63c-5.07 0-7.68-3.15-7.68-7.33 0-5 3.57-7.79 8-7.79a8.64 8.64 0 013.61.65l-.67 2.63a7.14 7.14 0 00-2.78-.57c-2.63 0-4.68 1.59-4.68 4.85 0 2.94 1.74 4.78 4.7 4.78a8.28 8.28 0 002.76-.48zM77.8 58.75h3.31v6.07a4 4 0 011.3-1.09 3.71 3.71 0 011.72-.41c2.11 0 3.72 1.46 3.72 4.66v6.22h-3.26v-5.86c0-1.39-.48-2.35-1.72-2.35a1.76 1.76 0 00-1.65 1.15 2.11 2.11 0 00-.11.74v6.31H77.8V58.75zM96.59 74.19l-.2-1.06h-.07a3.83 3.83 0 01-3 1.3 3.26 3.26 0 01-3.44-3.26c0-2.76 2.48-4.09 6.24-4.07v-.15c0-.57-.3-1.37-1.94-1.37a6 6 0 00-2.94.8l-.61-2.13a8.78 8.78 0 014.13-.94c3.55 0 4.68 2.09 4.68 4.59v3.7a16.41 16.41 0 00.15 2.59h-3zm-.39-5c-1.74 0-3.09.39-3.09 1.68a1.19 1.19 0 001.3 1.26 1.81 1.81 0 001.72-1.22 2.37 2.37 0 00.06-.57v-1.17zM102 67.06c0-1.57 0-2.59-.09-3.5h2.85l.11 2h.13a3.13 3.13 0 012.87-2.2 3.4 3.4 0 01.7 0v3.11a4.72 4.72 0 00-.89-.09 2.13 2.13 0 00-2.26 1.68 3.88 3.88 0 00-.07.74v5.39H102v-7.13zM110.29 67c0-1.33 0-2.46-.09-3.39h2.8l.15 1.44h.06a3.69 3.69 0 013.22-1.67 3 3 0 012.91 1.81 4.73 4.73 0 011.37-1.28 3.83 3.83 0 012-.52c2 0 3.59 1.44 3.59 4.61v6.26h-3.22v-5.85c0-1.54-.5-2.44-1.57-2.44a1.62 1.62 0 00-1.52 1.15 2.76 2.76 0 00-.13.85v6.22h-3.22v-6c0-1.35-.48-2.26-1.52-2.26a1.68 1.68 0 00-1.54 1.2 2.2 2.2 0 00-.13.83v6.2h-3.22V67zM24.36 57.68h-.13A5.78 5.78 0 0018.61 62a5 5 0 01-9.82-.93 3.92 3.92 0 010-.55v-.11-.21a15.68 15.68 0 018.31-10.71A12.06 12.06 0 001.69 60l-.05.13V77.8h7.14v-5.7A12.06 12.06 0 0025.3 57.68h-.94z"/><path d="M17.38 61.78a7 7 0 016.75-5.28h3.41a3.7 3.7 0 001.52-.37l-.33-.13a4.88 4.88 0 01-3.7-3.3 4.85 4.85 0 005.85 1.49A3.73 3.73 0 0027.47 49h-3.32a14.42 14.42 0 00-14.08 11.35 3.68 3.68 0 00-.1.73 3.74 3.74 0 007.41.7zm8.93-10.62a1.16 1.16 0 11.91 1.36 1.16 1.16 0 01-.91-1.36zm4.89 23a3.73 3.73 0 01-3.73 3.73h-3.32a14.35 14.35 0 01-9.44-3.53 13.24 13.24 0 008.53-4 7.19 7.19 0 00.91.06h3.31a3.73 3.73 0 013.74 3.7z"/></g></svg>