<svg xmlns="http://www.w3.org/2000/svg" viewBox="0 0 128 128"><path d="M34.04 65.56c-9.07-9.06-22.27-10.57-29.48-3.37-7.21 7.21-5.7 20.4 3.37 29.46 9.07 9.07 26.4 6.44 29.48 3.37 2.49-2.49 5.71-20.4-3.37-29.46Zm69.95-28.2c-12.43-12.42-35.17-9.82-50.8 5.8-15.63 15.62-11.11 45.48-5.8 50.78 4.29 4.29 35.17 9.82 50.8-5.8 1.11-1.11 2.14-2.25 3.12-3.43.23-1.56 1.09-3.52 2.6-5.9-.87.45-1.83.76-2.86.94-.77 1.41-1.97 2.93-3.61 4.56-1.89 1.79-3.24 2.96-4.05 3.5-.81.54-1.59.81-2.33.81-1.86 0-2.74-1.64-2.63-4.93-1.18 1.68-2.27 2.93-3.26 3.73-1 .8-2.02 1.2-3.09 1.2s-1.92-.48-2.64-1.46c-.57-.76-.91-1.67-1.03-2.71-1.43 1.4-2.73 2.44-3.88 3.11-1.19.7-2.5 1.05-3.94 1.05-1.6 0-2.9-.51-3.88-1.54-.73-.76-1.18-1.69-1.37-2.8v.02c-1.6 1.47-3.01 2.56-4.22 3.26-1.21.7-2.36 1.05-3.46 1.05-1.26 0-2.28-.49-3.05-1.47s-1.16-2.29-1.16-3.94c0-2.47.54-5.44 1.61-8.9s2.37-6.66 3.91-9.58l4.49-1.66c.14-.05.25-.07.32-.07.34 0 .62.25.84.75.22.5.33 1.18.33 2.02 0 2.4-.55 4.73-1.66 6.98-1.11 2.25-2.84 4.65-5.2 7.21-.09 1.23-.14 2.07-.14 2.53 0 1.03.19 1.84.57 2.44.38.6.88.9 1.5.9s1.31-.23 2.03-.69c.71-.45 1.78-1.38 3.21-2.79.15-2.22 1-4.26 2.57-6.09 1.73-2.02 3.65-3.03 5.76-3.03 1.1 0 1.97.28 2.63.85.66.57.99 1.31.99 2.23 0 2.44-2.59 4.42-7.78 5.94.47 2.3 1.7 3.45 3.69 3.45.78 0 1.52-.21 2.23-.63.69-.41 1.71-1.29 3.06-2.65.17-1.34.63-2.64 1.38-3.88.97-1.6 2.22-2.9 3.74-3.89 1.52-.99 2.86-1.49 4.03-1.49 1.47 0 2.51.68 3.09 2.03l3.61-2h.99l-1.56 5.18c-.8 2.6-1.2 4.39-1.2 5.35s.36 1.52 1.08 1.52c.46 0 .96-.24 1.52-.73.53-.47 1.28-1.18 2.23-2.13.8-.86 1.54-1.77 2.2-2.74-1.02-.45-1.52-1.11-1.52-2s.31-1.88.93-2.91c.62-1.03 1.47-1.54 2.55-1.54.92 0 1.38.47 1.38 1.41 0 .74-.26 1.8-.8 3.18 1.96-.21 3.67-1.71 5.13-4.49l1.21-.05c5.65-13 4.42-27.05-4.42-35.89ZM75.42 66.57c-.18.28-.44.49-.79.64-.34.15-.73.23-1.16.23-.72 0-1.26-.15-1.64-.45s-.62-.74-.72-1.33l.93-.15c.05.37.2.66.43.85.24.2.57.3 1 .3s.75-.09.96-.26c.21-.17.31-.38.31-.62 0-.21-.09-.38-.28-.5-.13-.08-.45-.19-.96-.32-.69-.17-1.16-.32-1.43-.45s-.47-.3-.6-.53c-.14-.22-.21-.47-.21-.74 0-.25.06-.47.17-.68.11-.21.27-.38.46-.52.15-.11.34-.2.59-.27.25-.07.52-.11.81-.11.43 0 .81.06 1.14.19.33.12.57.29.73.51.16.21.26.5.32.86l-.92.12c-.04-.28-.16-.51-.36-.67-.2-.16-.48-.24-.85-.24-.43 0-.74.07-.92.21-.18.14-.28.31-.28.5 0 .12.04.23.11.33.08.1.2.18.36.25.09.03.37.11.83.24.66.18 1.12.32 1.39.43.26.11.47.28.62.49.15.21.22.48.22.8s-.09.61-.27.88Zm5.14.33c-.41.36-.92.54-1.53.54-.76 0-1.36-.25-1.82-.74-.46-.49-.69-1.2-.69-2.12 0-.6.1-1.12.3-1.57.2-.45.5-.78.9-1.01.4-.22.84-.34 1.32-.34.6 0 1.09.15 1.47.45.38.3.63.73.73 1.29l-.91.14c-.09-.37-.24-.65-.46-.84-.22-.19-.49-.28-.8-.28-.47 0-.85.17-1.15.51-.3.34-.44.87-.44 1.6s.14 1.28.43 1.62c.28.34.66.5 1.11.5.37 0 .67-.11.92-.34.25-.22.4-.57.47-1.04l.92.12c-.1.63-.36 1.13-.77 1.49Zm2.52.41h-.94v-5.52h.94v5.52Zm0-6.55h-.94v-1.08h.94v1.08Zm4.85 6.55-1.83-2.82-.66.63v2.19h-.94v-7.62h.94v4.35l2.22-2.25h1.21l-2.11 2.05 2.33 3.47h-1.16Zm2.84 0h-.94v-5.52h.94v5.52Zm0-6.55h-.94v-1.08h.94v1.08Zm2.9 6.62c-.34 0-.6-.05-.79-.16a.873.873 0 0 1-.39-.42c-.08-.18-.11-.54-.11-1.1v-3.18h-.69v-.73h.69v-1.37l.93-.56v1.93h.94v.73h-.94v3.23c0 .27.02.44.05.51.03.08.09.14.16.18.07.05.18.07.32.07.1 0 .24-.01.41-.04l.14.83c-.26.06-.5.08-.71.08Zm-4.71 7.78c.29.37.44.89.44 1.55 0 1.7-.52 3.55-1.56 5.56s-2.16 3.01-3.33 3.01c-.48 0-.88-.2-1.19-.59-.31-.39-.47-.91-.47-1.55 0-1.68.53-3.53 1.58-5.53 1.05-2 2.17-3 3.35-3 .49 0 .89.18 1.18.56Zm-15.13 1.18c0 2.29-1.51 3.85-4.53 4.7 0-1.9.35-3.44 1.06-4.62.71-1.19 1.45-1.78 2.23-1.78.82 0 1.24.57 1.24 1.7Zm-10.22-9.86c0 1.49-.46 3.26-1.4 5.33-.93 2.06-2.15 3.93-3.64 5.59.8-3.91 1.62-6.94 2.45-9.11.83-2.17 1.47-3.26 1.9-3.26.2 0 .37.13.5.4.13.26.19.62.19 1.05Zm64.41 15.8v2.03c-2.72 2.88-5.06 4.31-7 4.31-.79 0-1.43-.28-1.91-.83-.48-.55-.73-1.3-.73-2.23 0-1.26.52-3.19 1.56-5.78.55-1.39.83-2.28.83-2.65s-.15-.57-.44-.57c-.16 0-.38.08-.65.25-.25.16-.54.4-.87.69-.29.27-.62.6-.99.99-.32.33-.66.71-1.02 1.13l-.99 1.15c-.44.53-.71 1.09-.81 1.68-.18 1-.29 1.92-.35 2.76-.04.62-.05 1.46-.05 2.53l-3.91.92c-.13-1.59-.19-2.77-.19-3.55 0-.22.01-.43.02-.65-2.88 2.79-5.11 4.2-6.68 4.2-.72 0-1.33-.3-1.82-.91-.49-.61-.74-1.36-.74-2.25 0-.25.03-.51.07-.78 3-3.6 5.38-7.48 7.11-11.47l.4-.02-1.64 4.52c-.68 1.91-1.13 3.21-1.33 3.9-.2.69-.3 1.3-.3 1.83 0 .5.12.89.34 1.18.23.3.54.44.93.44.42 0 .83-.14 1.22-.43s1.26-1.09 2.61-2.39c.11-.88.27-1.73.49-2.56.44-1.7 1.15-3.6 2.13-5.73l4.31-.83c-.91 2.44-1.5 4.36-1.78 5.76 1.93-2.16 3.47-3.65 4.6-4.48 1.13-.83 2.14-1.24 3.03-1.24.6 0 1.1.23 1.5.68.4.45.6 1.02.6 1.7 0 1.13-.51 2.99-1.52 5.58-.7 1.78-1.04 2.93-1.04 3.46 0 .71.29 1.06.87 1.06.86 0 2.26-1.14 4.18-3.41Z"/></svg>
