<?xml version="1.0" encoding="UTF-8"?>
<svg id="line" xmlns="http://www.w3.org/2000/svg" viewBox="0 0 128 128">
  <defs>
    <style>
      .cls-1 {
        fill: #010101;
      }
    </style>
  </defs>
  <path class="cls-1" d="m78.09,104c-11.54,0-21.44-2.77-23.99-5.34-6.31-6.36-11.21-40.58,6.55-58.48,9.89-9.96,22.63-15.68,34.97-15.68,9.19,0,17.17,3.14,23.06,9.08,14.19,14.3,11.25,40.54-6.55,58.48h0c-10.31,10.39-25.75,11.94-34.04,11.94h0Zm17.53-78.5c-12.07,0-24.56,5.61-34.26,15.38-10.14,10.22-11.86,25.03-11.99,32.94-.18,11.48,2.62,21.28,5.44,24.12,2.1,2.12,11.36,5.05,23.28,5.05h0c8.13,0,23.28-1.51,33.33-11.65h0c17.42-17.55,20.36-43.15,6.55-57.07-5.7-5.75-13.43-8.78-22.36-8.78Z"/>
  <path class="cls-1" d="m29.72,103.31c-4.84,0-13.88-.94-20.13-7.25-10.41-10.49-12.12-25.84-3.8-34.23,3.46-3.49,8.14-5.33,13.53-5.33h0c7.21,0,14.66,3.34,20.44,9.16,10.41,10.49,6.76,31.25,3.8,34.23-1.96,1.98-7.78,3.42-13.83,3.42h0Zm-10.4-45.81c-5.12,0-9.55,1.74-12.82,5.04-7.93,7.99-6.23,22.72,3.8,32.82,6,6.05,14.74,6.95,19.42,6.95h0c6.27,0,11.6-1.59,13.12-3.12,2.73-2.75,6-22.94-3.8-32.82h0c-5.59-5.63-12.78-8.86-19.73-8.86Z"/>
</svg>