<svg xmlns="http://www.w3.org/2000/svg" viewBox="0 0 128 128"><path fill="#087CFA" d="M51.4961 0a8.25 8.25 0 0 0-7.59962 5.03906l-4.27539 10.1289-1.2871-1.125A8.246 8.246 0 0 0 32.90038 12H8.25a8.25 8.25 0 0 0-2.4082.40625 8.25 8.25 0 0 0-.07227.0254A8.25 8.25 0 0 0 0 20.25v25.13281c0 .4.0279.79931.0879 1.19532l10.89648 74.36914A8.25 8.25 0 0 0 19.14648 128h36.38673c1.612 0 3.1872-.47147 4.5332-1.35547l19.4414-12.78125.17578.15039c1.494 1.28 3.40114 1.98633 5.36914 1.98633h22.69922A8.25 8.25 0 0 0 116 107.75V89.87305l8.28516-5.44727A8.246 8.246 0 0 0 128 77.53125V8.25A8.25 8.25 0 0 0 119.75195 0H51.49609zM22.5 22.5h83v83h-83v-83z"/><path fill="#087cfa" d="M24 24v80h80V24H24zm10 9.98438h17.68555v5.23242h-5.95899v19.54883h5.95899V64H34V58.76562h5.96094V39.2168H34v-5.23242zm30.05469 0h5.85156v20.56054c0 1.8-.41414 3.41752-1.24414 4.85352a8.9 8.9 0 0 1-3.42969 3.375c-1.456.816-3.0922 1.22265-4.9082 1.22265h-5.03906V58.5957h4.30859a4.76 4.76 0 0 0 2.32617-.5586c.68-.372 1.20417-.8942 1.57617-1.5742.372-.68.5586-1.45418.5586-2.32618V33.98438zM34 88h32v6H34v-6z"/></svg>
