<svg xmlns="http://www.w3.org/2000/svg" viewBox="0 0 128 128"><defs><linearGradient id="a" x1="-.391" x2="24.392" y1="7.671" y2="61.126" gradientUnits="userSpaceOnUse"><stop offset=".1" stop-color="#FC801D"/><stop offset=".59" stop-color="#FE2857"/></linearGradient><linearGradient id="b" x1="4.325" x2="62.921" y1="59.932" y2="1.336" gradientUnits="userSpaceOnUse"><stop offset=".21" stop-color="#FE2857"/><stop offset=".7" stop-color="#007EFF"/></linearGradient></defs><path fill="#ff8100" d="M32.9 12H8.382a8.25 8.25 0 0 0-8.248 8.38l.352 22.088a8.25 8.25 0 0 0 2.88 6.132l76.318 65.414c1.494 1.28 3.4 1.986 5.368 1.986h22.7a8.25 8.25 0 0 0 8.248-8.25V85.744c0-2.38-1.028-4.642-2.82-6.21L38.334 14.042A8.246 8.246 0 0 0 32.9 12Z"/><path fill="url(#a)" d="M14.988 6H4.125A4.125 4.125 0 0 0 0 10.125v12.566c0 .2.014.4.044.598l5.448 37.185A4.125 4.125 0 0 0 9.573 64h15.398a4.125 4.125 0 0 0 4.125-4.127L29.09 41.37c0-.426-.066-.849-.195-1.254l-9.98-31.245A4.126 4.126 0 0 0 14.988 6Z" transform="scale(2)"/><path fill="url(#b)" d="M59.876 0H25.748a4.125 4.125 0 0 0-3.8 2.52L6.151 39.943a4.118 4.118 0 0 0-.325 1.638l.15 18.329A4.125 4.125 0 0 0 10.101 64h17.666c.806 0 1.593-.236 2.266-.678l32.11-21.109A4.123 4.123 0 0 0 64 38.766V4.125A4.125 4.125 0 0 0 59.876 0Z" transform="scale(2)"/><path fill="#000" d="M104 24H24v80h80z"/><path fill="#fff" d="M66 88H34v6h32ZM34 58.766h5.96v-19.55H34v-5.232h17.686v5.232h-5.96v19.55h5.96V64H34v-5.232zm21.286-.17h4.308a4.76 4.76 0 0 0 2.326-.558c.68-.372 1.204-.896 1.576-1.576.372-.68.558-1.454.558-2.326V33.984h5.852v20.56c0 1.8-.414 3.418-1.244 4.854a8.9 8.9 0 0 1-3.43 3.376c-1.456.816-3.092 1.222-4.908 1.222h-5.038z"/></svg>
