<svg viewBox="0 0 128 128" xmlns="http://www.w3.org/2000/svg">
  <defs>
    <linearGradient id="linear0" gradientUnits="userSpaceOnUse" x1="0" y1="0.5" x2="0.99799" y2="0.5" gradientTransform="matrix(59.601562,0,0,53,1.398438,46.800781)">
      <stop offset="0.26" style="stop-color:rgb(97.647059%,47.843137%,7.058824%);stop-opacity:1;"></stop>
      <stop offset="0.46" style="stop-color:rgb(69.019608%,48.235294%,34.509804%);stop-opacity:1;"></stop>
      <stop offset="0.72" style="stop-color:rgb(34.117647%,48.235294%,68.235294%);stop-opacity:1;"></stop>
      <stop offset="0.91" style="stop-color:rgb(11.764706%,48.627451%,89.803922%);stop-opacity:1;"></stop>
      <stop offset="1" style="stop-color:rgb(3.137255%,48.627451%,98.039216%);stop-opacity:1;"></stop>
    </linearGradient>
    <linearGradient id="linear1" gradientUnits="userSpaceOnUse" x1="0.00345" y1="0.3454" x2="1.21182" y2="0.77619" gradientTransform="matrix(81.199219,0,0,126,46.800781,2)">
      <stop offset="0" style="stop-color:rgb(97.647059%,47.843137%,7.058824%);stop-opacity:1;"></stop>
      <stop offset="0.07" style="stop-color:rgb(79.607843%,47.843137%,24.313725%);stop-opacity:1;"></stop>
      <stop offset="0.15" style="stop-color:rgb(61.960784%,48.235294%,41.568627%);stop-opacity:1;"></stop>
      <stop offset="0.24" style="stop-color:rgb(45.882353%,48.235294%,56.862745%);stop-opacity:1;"></stop>
      <stop offset="0.33" style="stop-color:rgb(32.54902%,48.235294%,69.411765%);stop-opacity:1;"></stop>
      <stop offset="0.43" style="stop-color:rgb(21.960784%,48.627451%,80%);stop-opacity:1;"></stop>
      <stop offset="0.54" style="stop-color:rgb(13.72549%,48.627451%,87.843137%);stop-opacity:1;"></stop>
      <stop offset="0.66" style="stop-color:rgb(7.843137%,48.627451%,93.72549%);stop-opacity:1;"></stop>
      <stop offset="0.79" style="stop-color:rgb(4.313725%,48.627451%,96.862745%);stop-opacity:1;"></stop>
      <stop offset="1" style="stop-color:rgb(3.137255%,48.627451%,98.039216%);stop-opacity:1;"></stop>
    </linearGradient>
    <linearGradient id="linear2" gradientUnits="userSpaceOnUse" x1="0.78169" y1="0.97749" x2="0.30106" y2="-0.06624" gradientTransform="matrix(56.800781,0,0,78.199219,71.199219,2)">
      <stop offset="0" style="stop-color:rgb(99.607843%,19.215686%,36.470588%);stop-opacity:1;"></stop>
      <stop offset="0.08" style="stop-color:rgb(79.607843%,25.490196%,49.411765%);stop-opacity:1;"></stop>
      <stop offset="0.16" style="stop-color:rgb(61.960784%,30.588235%,60.784314%);stop-opacity:1;"></stop>
      <stop offset="0.25" style="stop-color:rgb(45.882353%,35.686275%,70.588235%);stop-opacity:1;"></stop>
      <stop offset="0.34" style="stop-color:rgb(32.54902%,39.607843%,79.215686%);stop-opacity:1;"></stop>
      <stop offset="0.44" style="stop-color:rgb(21.960784%,42.745098%,85.882353%);stop-opacity:1;"></stop>
      <stop offset="0.54" style="stop-color:rgb(13.72549%,45.490196%,91.372549%);stop-opacity:1;"></stop>
      <stop offset="0.66" style="stop-color:rgb(7.843137%,47.058824%,95.294118%);stop-opacity:1;"></stop>
      <stop offset="0.79" style="stop-color:rgb(4.313725%,48.235294%,97.254902%);stop-opacity:1;"></stop>
      <stop offset="1" style="stop-color:rgb(3.137255%,48.627451%,98.039216%);stop-opacity:1;"></stop>
    </linearGradient>
    <linearGradient id="linear3" gradientUnits="userSpaceOnUse" x1="0.2" y1="0.24087" x2="1.03422" y2="1.32676" gradientTransform="matrix(98.199219,0,0,124.800781,0,0)">
      <stop offset="0" style="stop-color:rgb(99.607843%,19.215686%,36.470588%);stop-opacity:1;"></stop>
      <stop offset="0.04" style="stop-color:rgb(96.470588%,20.392157%,38.431373%);stop-opacity:1;"></stop>
      <stop offset="0.1" style="stop-color:rgb(87.45098%,22.745098%,44.313725%);stop-opacity:1;"></stop>
      <stop offset="0.17" style="stop-color:rgb(76.078431%,26.27451%,51.372549%);stop-opacity:1;"></stop>
      <stop offset="0.29" style="stop-color:rgb(67.843137%,29.019608%,56.862745%);stop-opacity:1;"></stop>
      <stop offset="0.55" style="stop-color:rgb(45.882353%,35.686275%,70.588235%);stop-opacity:1;"></stop>
      <stop offset="0.92" style="stop-color:rgb(11.372549%,46.27451%,92.941176%);stop-opacity:1;"></stop>
      <stop offset="1" style="stop-color:rgb(3.137255%,48.627451%,98.039216%);stop-opacity:1;"></stop>
    </linearGradient>
  </defs>
  <g id="surface1">
    <path style=" stroke:none;fill-rule:nonzero;fill:url(#linear0);" d="M 32.398438 99.800781 L 1.398438 75.398438 L 16.800781 46.800781 L 61 64 Z M 32.398438 99.800781 "></path>
    <path style=" stroke:none;fill-rule:nonzero;fill:url(#linear1);" d="M 128 34.199219 L 125.601562 108.199219 L 76.398438 128 L 46.800781 108.800781 L 90 64 L 71.199219 22.398438 L 88.199219 2 Z M 128 34.199219 "></path>
    <path style=" stroke:none;fill-rule:nonzero;fill:url(#linear2);" d="M 128 34.199219 L 89 80.199219 L 71.199219 22.398438 L 88.199219 2 Z M 128 34.199219 "></path>
    <path style=" stroke:none;fill-rule:nonzero;fill:url(#linear3);" d="M 61.601562 106.199219 L 10.398438 124.800781 L 18.601562 96 L 29.199219 60.398438 L 0 50.601562 L 18.601562 0 L 58.601562 4.800781 L 98.199219 50 Z M 61.601562 106.199219 "></path>
    <path style=" stroke:none;fill-rule:nonzero;fill:rgb(0%,0%,0%);fill-opacity:1;" d="M 24 24 L 104 24 L 104 104 L 24 104 Z M 24 24 "></path>
    <path style=" stroke:none;fill-rule:nonzero;fill:rgb(100%,100%,100%);fill-opacity:1;" d="M 31.601562 89 L 61.601562 89 L 61.601562 94 L 31.601562 94 Z M 53 40.398438 L 53 34.398438 L 36.601562 34.398438 L 36.601562 40.398438 L 41.199219 40.398438 L 41.199219 61.398438 L 36.601562 61.398438 L 36.601562 67.601562 L 53 67.601562 L 53 61.398438 L 48.398438 61.398438 L 48.398438 40.398438 Z M 69 68 C 66.714844 68.101562 64.445312 67.621094 62.398438 66.601562 C 60.726562 65.675781 59.234375 64.457031 58 63 L 62.601562 57.800781 C 63.429688 58.710938 64.371094 59.519531 65.398438 60.199219 C 66.367188 60.765625 67.480469 61.046875 68.601562 61 C 69.832031 61.09375 71.03125 60.570312 71.800781 59.601562 C 72.726562 58.40625 73.15625 56.902344 73 55.398438 L 73 34 L 80.398438 34 L 80.398438 55.601562 C 80.476562 57.367188 80.203125 59.136719 79.601562 60.800781 C 79.074219 62.488281 78.105469 64.007812 76.800781 65.199219 C 74.535156 66.882812 71.820312 67.855469 69 68 Z M 69 68 "></path>
  </g>
</svg>