<svg xmlns="http://www.w3.org/2000/svg" viewBox="0 0 128 128"><g fill="#136ba2"><path d="M38.51 61.26V72.9h-1.6V61.26zM41.45 66.81c0-.86 0-1.57-.07-2.26h1.44l.09 1.38a3.33 3.33 0 013-1.57c1.24 0 3.16.69 3.16 3.56v5h-1.64v-4.84c0-1.35-.54-2.47-2.07-2.47a2.29 2.29 0 00-2.18 1.55 2.06 2.06 0 00-.11.71v5h-1.62zM53.58 62.14v2.4h2.33v1.16h-2.33v4.51c0 1 .31 1.62 1.22 1.62a3.84 3.84 0 00.94-.1l.07 1.14a4.22 4.22 0 01-1.44.21 2.34 2.34 0 01-1.75-.64 3 3 0 01-.62-2.18V65.7h-1.39v-1.16H52v-2zM58.53 69a2.78 2.78 0 003.07 2.9 6.23 6.23 0 002.47-.43l.28 1.09a7.68 7.68 0 01-3 .52c-2.75 0-4.4-1.69-4.4-4.22s1.59-4.51 4.19-4.51c2.92 0 3.69 2.4 3.69 3.94a5.49 5.49 0 01-.05.71zm4.76-1.09A2.21 2.21 0 0061 65.44a2.59 2.59 0 00-2.49 2.47zM66.87 60.64h1.63V72.9h-1.63zM71.23 60.64h1.63V72.9h-1.63zM77.4 62.19a1 1 0 01-2 0 1 1 0 011-1 .93.93 0 011 1zM75.59 72.9v-8.36h1.63v8.36h-1.63zM82.51 61.26h1.61v7.79c0 3.09-1.63 4-3.77 4a5.52 5.52 0 01-1.72-.28l.24-1.23a4.07 4.07 0 001.35.22c1.44 0 2.29-.6 2.29-2.89v-7.61zM91.4 61.26V72.9h-2.83V61.26zM93.83 61.41a26.81 26.81 0 013.8-.24 8.42 8.42 0 015.1 1.24 5 5 0 012.11 4.39 5.74 5.74 0 01-2.07 4.72A9.38 9.38 0 0197 73a26 26 0 01-3.2-.17V61.41zm2.83 9.5a5.58 5.58 0 001 .05c2.55 0 4.21-1.3 4.21-4.08 0-2.42-1.5-3.7-3.92-3.7a6.25 6.25 0 00-1.27.1zM114.09 68h-4.58v2.76h5.12v2.14h-7.94V61.26h7.68v2.16h-4.86v2.42h4.58V68zM119.44 69.91l-.89 3h-2.92l3.8-11.64h3.69L127 72.9h-3l-1-3zm3.16-2l-.78-2.47c-.22-.69-.44-1.55-.63-2.25-.18.69-.37 1.57-.57 2.25l-.74 2.47zM1 64.13a3.28 3.28 0 003.38 3.16 3.16 3.16 0 100-6.32A3.28 3.28 0 001 64.13zM21.14 53c-1.85 0-3 1.4-3 3.74v14.42c0 2.34 1.1 3.74 3 3.74s3-1.4 3-3.74V56.78C24.1 54.44 23 53 21.14 53z"/><path d="M16 53.35H3.83a2.76 2.76 0 100 5.51H10V64.1a5.5 5.5 0 01-5.67 5.3H4A2.77 2.77 0 104 75h.42C10.76 75 16 70.1 16 64.14v-.1-1.77-8.92z"/></g></svg>