<svg id="intelij" xmlns="http://www.w3.org/2000/svg" viewBox="0 0 128 128"><defs><style>.cls-1{fill:#136ba2;}</style></defs><title>Artboard 13</title><g id="plain-wordmark"><path class="cls-1" d="M38.51,61.26V72.9H36.91V61.26Z"/><path class="cls-1" d="M41.45,66.81c0-.86,0-1.57-.07-2.26h1.44l.09,1.38h0a3.33,3.33,0,0,1,3-1.57c1.24,0,3.16.69,3.16,3.56v5H47.43V68.08c0-1.35-.54-2.47-2.07-2.47a2.29,2.29,0,0,0-2.18,1.55,2.06,2.06,0,0,0-.11.71v5H41.45Z"/><path class="cls-1" d="M53.58,62.14v2.4h2.33V65.7H53.58v4.51c0,1,.31,1.62,1.22,1.62a3.84,3.84,0,0,0,.94-.1l.07,1.14a4.22,4.22,0,0,1-1.44.21,2.34,2.34,0,0,1-1.75-.64A3,3,0,0,1,52,70.26V65.7H50.61V64.54H52v-2Z"/><path class="cls-1" d="M58.53,69a2.78,2.78,0,0,0,3.07,2.9,6.23,6.23,0,0,0,2.47-.43l.28,1.09a7.68,7.68,0,0,1-3,.52c-2.75,0-4.4-1.69-4.4-4.22s1.59-4.51,4.19-4.51c2.92,0,3.69,2.4,3.69,3.94a5.49,5.49,0,0,1-.05.71Zm4.76-1.09A2.21,2.21,0,0,0,61,65.44a2.59,2.59,0,0,0-2.49,2.47Z"/><path class="cls-1" d="M66.87,60.64H68.5V72.9H66.87Z"/><path class="cls-1" d="M71.23,60.64h1.63V72.9H71.23Z"/><path class="cls-1" d="M77.4,62.19a1,1,0,0,1-2,0,1,1,0,0,1,1-1A.93.93,0,0,1,77.4,62.19ZM75.59,72.9V64.54h1.63V72.9H75.59Z"/><path class="cls-1" d="M82.51,61.26h1.61v7.79c0,3.09-1.63,4-3.77,4a5.52,5.52,0,0,1-1.72-.28l.24-1.23a4.07,4.07,0,0,0,1.35.22c1.44,0,2.29-.6,2.29-2.89V61.26Z"/><path class="cls-1" d="M91.4,61.26V72.9H88.57V61.26Z"/><path class="cls-1" d="M93.83,61.41a26.81,26.81,0,0,1,3.8-.24,8.42,8.42,0,0,1,5.1,1.24,5,5,0,0,1,2.11,4.39,5.74,5.74,0,0,1-2.07,4.72A9.38,9.38,0,0,1,97,73a26,26,0,0,1-3.2-.17V61.41Zm2.83,9.5a5.58,5.58,0,0,0,1,.05c2.55,0,4.21-1.3,4.21-4.08,0-2.42-1.5-3.7-3.92-3.7a6.25,6.25,0,0,0-1.27.1Z"/><path class="cls-1" d="M114.09,68h-4.58v2.76h5.12V72.9h-7.94V61.26h7.68v2.16h-4.86v2.42h4.58V68Z"/><path class="cls-1" d="M119.44,69.91l-.89,3h-2.92l3.8-11.64h3.69L127,72.9h-3l-1-3Zm3.16-2-.78-2.47c-.22-.69-.44-1.55-.63-2.25h0c-.18.69-.37,1.57-.57,2.25l-.74,2.47Z"/><path class="cls-1" d="M1,64.13a3.28,3.28,0,0,0,3.38,3.16,3.16,3.16,0,1,0,0-6.32A3.28,3.28,0,0,0,1,64.13Z"/><path class="cls-1" d="M21.14,53c-1.85,0-3,1.4-3,3.74V71.16c0,2.34,1.1,3.74,3,3.74s3-1.4,3-3.74V66.35h0V56.78C24.1,54.44,23,53,21.14,53Z"/><path class="cls-1" d="M16,53.35H3.83a2.76,2.76,0,1,0,0,5.51v0H10v5S10,64,10,64h0s0,.07,0,.1a5.5,5.5,0,0,1-5.67,5.3H4.23l0,0H4A2.77,2.77,0,1,0,4,75h.42C10.76,75,16,70.1,16,64.14c0,0,0-.06,0-.1h0c0-.23,0-.89,0-1.77v0S16,53.6,16,53.35Z"/></g></svg>