<svg xmlns="http://www.w3.org/2000/svg" viewBox="0 0 128 128"><path fill="#136ba2" d="M38.71 61.21V73h-1.59V61.21zM41.63 66.85c0-.88 0-1.6-.07-2.3H43l.09 1.4A3.28 3.28 0 0146 64.36c1.23 0 3.13.7 3.13 3.62V73h-1.57v-4.9c0-1.37-.53-2.51-2.05-2.51a2.28 2.28 0 00-2.16 1.58 2.14 2.14 0 00-.11.72V73h-1.61v-6.2zM53.66 62.11v2.44H56v1.18h-2.34v4.58c0 1.05.31 1.65 1.21 1.65a3.72 3.72 0 00.93-.11l.08 1.15a4.09 4.09 0 01-1.43.21 2.29 2.29 0 01-1.74-.65 3.05 3.05 0 01-.62-2.21v-4.62h-1.38v-1.18h1.37v-2zM58.57 69.08a2.79 2.79 0 003 2.95 6.05 6.05 0 002.45-.44l.28 1.11a7.46 7.46 0 01-2.95.53A4 4 0 0157 68.94c0-2.56 1.58-4.58 4.16-4.58 2.9 0 3.66 2.44 3.66 4a5.72 5.72 0 01-.05.72zM63.3 68a2.23 2.23 0 00-2.24-2.51A2.61 2.61 0 0058.59 68zM66.85 60.58h1.61V73h-1.61zM71.17 60.58h1.61V73h-1.61zM77.29 62.16a1 1 0 01-2 0 1 1 0 011-1 .94.94 0 011 1zM75.5 73v-8.5h1.61V73zM82.37 61.21H84v7.92c0 3.14-1.61 4.11-3.74 4.11a5.36 5.36 0 01-1.7-.28l.24-1.25a4 4 0 001.34.23c1.43 0 2.27-.61 2.27-2.93v-7.8zM91.18 61.21V73h-2.8V61.21zM93.6 61.37a26 26 0 013.77-.25 8.2 8.2 0 015.06 1.26 5.15 5.15 0 012.09 4.46 5.89 5.89 0 01-2.05 4.79 9.14 9.14 0 01-5.7 1.53A25.2 25.2 0 0193.6 73V61.37zM96.4 71a5.4 5.4 0 001 .05c2.53 0 4.18-1.32 4.18-4.14 0-2.46-1.48-3.76-3.88-3.76a6.06 6.06 0 00-1.26.1zM113.69 68h-4.54v2.81h5.08V73h-7.88V61.21H114v2.19h-4.82v2.46h4.54V68zM119 70l-.88 3h-2.9L119 61.21h3.66L126.5 73h-3l-1-3zm3.13-2l-.77-2.51c-.22-.7-.44-1.58-.62-2.28-.18.7-.37 1.6-.57 2.28l-.76 2.51z"/><path fill="#fa930d" d="M1.5 64.14a3.29 3.29 0 003.35 3.21 3.21 3.21 0 100-6.42 3.28 3.28 0 00-3.35 3.21z"/><path fill="#136ba2" d="M21.48 52.87c-1.84 0-2.94 1.42-2.94 3.8v14.61c0 2.38 1.1 3.8 2.93 3.8s2.94-1.42 2.94-3.8V56.67c.01-2.38-1.09-3.8-2.93-3.8zM16.34 53.18h-12a2.8 2.8 0 100 5.6h6.16v5.33a5.51 5.51 0 01-5.62 5.39h-.45a2.81 2.81 0 100 5.61h.42a11.26 11.26 0 0011.48-11v-.1-1.8l.01-9.03z"/></svg>