<svg xmlns="http://www.w3.org/2000/svg" viewBox="0 0 128 128"><defs><linearGradient id="a" x1="-.72" x2="24.144" y1="7.628" y2="61.252" gradientTransform="matrix(.4155 0 0 .4155 0 47.745)" gradientUnits="userSpaceOnUse"><stop offset=".1" stop-color="#FC801D"/><stop offset=".59" stop-color="#FE2857"/></linearGradient><linearGradient id="b" x1="4.22" x2="62.921" y1="60.02" y2="1.311" gradientTransform="matrix(.4155 0 0 .4155 0 47.745)" gradientUnits="userSpaceOnUse"><stop offset=".21" stop-color="#FE2857"/><stop offset=".7" stop-color="#007EFF"/></linearGradient></defs><path fill="#000" fill-rule="evenodd" d="M37.17 67.258H34.9V54.81h2.269zm7.125-9.32c.653 0 1.226.142 1.716.428l.004.013c.49.282.877.698 1.147 1.234s.407 1.18.407 1.928v5.725h-2.09v-5.405c0-.44-.074-.815-.224-1.122a1.604 1.604 0 0 0-.64-.706c-.278-.163-.61-.246-.997-.246-.415 0-.781.092-1.101.279a1.9 1.9 0 0 0-.744.78 2.437 2.437 0 0 0-.261 1.143v5.273h-2.099v-9.108h2.036v1.334c.262-.44.599-.798 1.018-1.06.52-.328 1.13-.49 1.828-.49zm5.93-2.006h1.952v2.222h2.418l-.008 1.824h-2.418l.008 4.596c0 .25.083.457.245.619.162.162.37.245.62.245h1.545v1.824h-1.965c-.486 0-.927-.104-1.313-.312a2.297 2.297 0 0 1-.906-.864 2.425 2.425 0 0 1-.324-1.246l-.008-4.866h-1.6l.008-1.824h.997c.229 0 .408-.066.545-.207a.724.724 0 0 0 .203-.536zm9.651 2.006c.898 0 1.695.204 2.393.607l-.008-.004a4.225 4.225 0 0 1 1.633 1.687c.386.719.582 1.541.582 2.468v.507h-7.184c.041.42.145.806.324 1.15.224.437.532.773.927 1.019.394.245.839.365 1.337.365.44 0 .836-.087 1.185-.257.349-.17.64-.412.872-.72h2.285a4.04 4.04 0 0 1-.935 1.45 4.181 4.181 0 0 1-1.483.936c-.577.22-1.221.328-1.928.328-.893 0-1.7-.208-2.414-.615a4.451 4.451 0 0 1-1.69-1.708c-.412-.73-.62-1.57-.62-2.463 0-.894.208-1.704.623-2.427a4.53 4.53 0 0 1 1.704-1.703c.723-.412 1.5-.62 2.397-.62zm-2.542 3.856h4.994a3.088 3.088 0 0 0-.245-.785 2.453 2.453 0 0 0-.885-1.035 2.364 2.364 0 0 0-1.322-.374c-.498 0-.943.12-1.338.362a2.525 2.525 0 0 0-.926.997 2.852 2.852 0 0 0-.278.835zm10.769 5.464h-2.098V54.81h2.098zm4.126 0H70.13V54.81h2.098zm4.121-9.361v5.796h-2.135v-5.796zm2.427 6.274c.191-.337.287-.723.287-1.164l-.005-.004v-8.197h2.215v8.393c0 .81-.187 1.516-.557 2.127a3.793 3.793 0 0 1-1.558 1.42c-.669.337-1.442.508-2.318.508h-2.63v-2.02h2.588c.445 0 .84-.091 1.18-.278.34-.187.607-.449.798-.785zm-4.641-9.004h2.393v2.082h-2.393zM91.3 67.257H89.03V54.81H91.3zm7.13-12.447c1.176 0 2.227.27 3.153.802v-.009a5.709 5.709 0 0 1 2.173 2.215c.52.943.781 2.01.781 3.212 0 1.2-.257 2.268-.78 3.211a5.653 5.653 0 0 1-2.174 2.215c-.93.536-1.977.802-3.153.802h-4.67V54.81Zm2.015 9.997a3.5 3.5 0 0 0 1.35-1.496v.004c.32-.648.478-1.404.478-2.277 0-.872-.162-1.629-.478-2.277a3.45 3.45 0 0 0-1.35-1.496c-.586-.349-1.263-.523-2.032-.523h-2.435v8.588h2.435c.769 0 1.45-.17 2.032-.523zm14.16-2.847h-6.066v3.337h6.847v1.965h-9.008V54.814h8.83v1.965h-6.67v3.262h6.067zm6.344-7.15h2.394L128 67.258h-2.24l-1.059-2.987h-4.998l-.976 2.987h-2.294Zm.985 2.73-1.678 4.99h3.847l-1.787-4.99-.195-.773zM36.443 78.572a.891.891 0 0 0 .103-.437h.005v-3.801h1.288v3.893c0 .366-.084.694-.254.989-.17.295-.403.523-.698.69-.295.166-.631.249-1.001.249H34.9V78.97h.81a.87.87 0 0 0 .436-.104.72.72 0 0 0 .296-.295zm6.34-.79h-2.7v1.255h3.066v1.122h-4.322v-5.825h4.238v1.126h-2.983v1.234h2.7zm2.56-2.293h-1.73v-1.155h4.733v1.155H46.63v4.666h-1.288zm7.146 1.62c.12.033.232.075.336.129h.005a1.4 1.4 0 0 1 .556.532c.133.228.2.486.2.773 0 .311-.083.59-.254.835-.17.245-.407.436-.714.573a2.546 2.546 0 0 1-1.047.208h-2.639v-5.825h2.589c.37 0 .702.066.993.195.29.129.515.312.677.544.162.233.241.499.241.794a1.3 1.3 0 0 1-.183.685c-.12.2-.29.358-.503.466-.074.04-.16.063-.243.087zm-1.164-1.799h-1.142v1.434h1.142a.96.96 0 0 0 .42-.092.654.654 0 0 0 .287-.253.718.718 0 0 0 .104-.387.677.677 0 0 0-.104-.37.688.688 0 0 0-.287-.245.959.959 0 0 0-.42-.087zm.516 3.781a.736.736 0 0 0 .311-.257v.008a.671.671 0 0 0 .112-.387.721.721 0 0 0-.112-.398.744.744 0 0 0-.316-.27 1.103 1.103 0 0 0-.46-.096h-1.193v1.492h1.192c.175 0 .333-.03.466-.092zm6.88-1.94a1.779 1.779 0 0 1-.752.652h-.004c-.058.03-.125.054-.191.079l1.33 2.277h-1.471l-1.18-2.123h-.84v2.123h-1.288v-5.825h2.551c.42 0 .79.075 1.11.228.32.154.565.37.74.648.174.279.261.595.261.964 0 .37-.087.698-.266.977zm-1.479-.254a.724.724 0 0 0 .307-.282v.004a.828.828 0 0 0 .109-.428.828.828 0 0 0-.109-.428.716.716 0 0 0-.307-.278 1.1 1.1 0 0 0-.47-.096h-1.159v1.608h1.16c.178 0 .336-.033.469-.1zm2.29 3.262 2.081-5.825h1.396l2.127 5.825h-1.283l-.44-1.284h-2.161l-.412 1.284zm2.683-4.317-.668 2.057h1.541l-.715-2.057-.079-.374zm4.75 4.317h-1.33v-5.825h1.33zm2.26-5.825 2.501 3.939h.004v-3.94h1.176v5.826H71.64l-2.493-3.939v3.939H67.97v-5.825zm7.387 2.351c.295.054.553.167.781.329v-.009c.229.167.403.366.532.611s.191.511.191.798c0 .353-.095.669-.282.947a1.901 1.901 0 0 1-.781.657 2.688 2.688 0 0 1-1.151.237c-.428 0-.81-.08-1.143-.233a1.923 1.923 0 0 1-.785-.648 1.682 1.682 0 0 1-.295-.96h1.288c0 .15.041.282.12.399a.749.749 0 0 0 .337.266c.145.062.312.095.49.095.179 0 .333-.029.466-.083a.683.683 0 0 0 .307-.237.583.583 0 0 0 .112-.349.57.57 0 0 0-.15-.403.796.796 0 0 0-.407-.224l-1.047-.216a1.893 1.893 0 0 1-.723-.312 1.54 1.54 0 0 1-.481-.565 1.703 1.703 0 0 1-.17-.76c0-.35.09-.657.265-.927.179-.27.424-.482.74-.635a2.428 2.428 0 0 1 1.08-.229c.407 0 .773.075 1.089.22.315.146.565.35.743.611.179.258.274.56.283.897h-1.288a.597.597 0 0 0-.104-.336.683.683 0 0 0-.287-.229.977.977 0 0 0-.424-.083c-.158 0-.299.03-.42.08a.652.652 0 0 0-.282.215.558.558 0 0 0-.1.329.48.48 0 0 0 .138.349.737.737 0 0 0 .37.195zm5.975 3.474h-1.33v-5.825h1.33zm3.274-5.825a2.98 2.98 0 0 1 1.492.378c.44.253.79.598 1.038 1.043.254.44.379.943.379 1.491 0 .549-.13 1.047-.379 1.492-.249.445-.594.79-1.038 1.043a2.95 2.95 0 0 1-1.492.378h-2.273v-5.825zm.835 4.512c.241-.145.428-.353.557-.623v-.004c.129-.27.195-.599.195-.977s-.066-.706-.195-.976a1.427 1.427 0 0 0-.557-.624 1.613 1.613 0 0 0-.852-.216h-.963v3.636h.963c.329 0 .611-.07.852-.216zm4.072-1.064v1.255h3.066v1.122h-4.32v-5.825h4.237v1.126h-2.983v1.234h2.7v1.088z" clip-rule="evenodd"/><path fill="#ff8100" d="M6.627 50.167H1.69c-.935 0-1.691.76-1.691 1.69v4.782c0 .495.216.964.59 1.284l15.855 13.589c.307.261.698.407 1.1.407h4.937a1.69 1.69 0 0 0 1.691-1.691v-4.782a1.69 1.69 0 0 0-.59-1.283L7.728 50.574a1.7 1.7 0 0 0-1.101-.407Z"/><path fill="url(#a)" d="M6.033 50.167H1.69A1.69 1.69 0 0 0 0 51.857v5.439c0 .079.004.162.016.24L2.21 72.884c.12.835.831 1.454 1.675 1.454h6.51a1.69 1.69 0 0 0 1.691-1.691v-7.702c0-.183-.033-.362-.087-.536L7.636 51.322a1.69 1.69 0 0 0-1.603-1.155Z"/><path fill="url(#b)" d="M24.9 47.75H10.786c-.677 0-1.288.403-1.554 1.026L2.555 64.35a1.67 1.67 0 0 0-.137.665v7.627c0 .935.756 1.69 1.691 1.69h7.466c.333 0 .661-.099.94-.286l13.324-8.89c.47-.316.752-.843.752-1.408V49.436a1.69 1.69 0 0 0-1.69-1.69z"/><path fill="#000" d="M21.605 52.731H4.985v16.62h16.62z"/><path fill="#fff" d="M10.736 59.96H9.498V55.9h1.238v-1.084H7.063v1.085h1.238v4.059H7.063v1.084h3.673zm2.443-5.148v4.184c0 .183-.037.34-.116.482a.831.831 0 0 1-.328.328.974.974 0 0 1-.482.117h-.894v1.121h1.047c.378 0 .715-.083 1.018-.253.304-.17.54-.403.71-.702.171-.3.258-.636.258-1.01v-4.267ZM7.063 67.277h6.648V66.03H7.063Z"/></svg>
