<svg viewBox="0 0 128 128" xmlns="http://www.w3.org/2000/svg"><defs><filter id="renpy-original-l" color-interpolation-filters="sRGB"><feGaussianBlur result="blur" stdDeviation=".23"/><feComposite in="SourceGraphic" in2="blur" operator="atop" result="composite1"/><feComposite in2="composite1" operator="in" result="composite2"/><feComposite in2="composite2" operator="in" result="composite3"/></filter><filter id="renpy-original-r" color-interpolation-filters="sRGB"><feGaussianBlur result="blur" stdDeviation=".31"/><feComposite in="SourceGraphic" in2="blur" operator="atop" result="composite1"/><feComposite in2="composite1" operator="in" result="composite2"/><feComposite in2="composite2" operator="in" result="composite3"/></filter><filter id="renpy-original-v" color-interpolation-filters="sRGB"><feGaussianBlur result="blur" stdDeviation=".21"/><feComposite in="SourceGraphic" in2="blur" operator="atop" result="composite1"/><feComposite in2="composite1" operator="in" result="composite2"/><feComposite in2="composite2" operator="in" result="composite3"/></filter><filter id="renpy-original-f" color-interpolation-filters="sRGB"><feGaussianBlur result="blur" stdDeviation=".11"/><feComposite in="SourceGraphic" in2="blur" operator="atop" result="composite1"/><feComposite in2="composite1" operator="in" result="composite2"/><feComposite in2="composite2" operator="in" result="composite3"/></filter><filter id="renpy-original-g" color-interpolation-filters="sRGB"><feGaussianBlur result="blur" stdDeviation=".11"/><feComposite in="SourceGraphic" in2="blur" operator="atop" result="composite1"/><feComposite in2="composite1" operator="in" result="composite2"/><feComposite in2="composite2" operator="in" result="composite3"/></filter><filter id="renpy-original-q" color-interpolation-filters="sRGB"><feGaussianBlur result="blur" stdDeviation=".11"/><feComposite in="SourceGraphic" in2="blur" operator="atop" result="composite1"/><feComposite in2="composite1" operator="in" result="composite2"/><feComposite in2="composite2" operator="in" result="composite3"/></filter><filter id="renpy-original-a" color-interpolation-filters="sRGB"><feGaussianBlur result="blur" stdDeviation=".11"/><feComposite in="SourceGraphic" in2="blur" operator="atop" result="composite1"/><feComposite in2="composite1" operator="in" result="composite2"/><feComposite in2="composite2" operator="in" result="composite3"/></filter><filter id="renpy-original-m" color-interpolation-filters="sRGB"><feGaussianBlur result="blur" stdDeviation=".1"/><feComposite in="SourceGraphic" in2="blur" operator="atop" result="composite1"/><feComposite in2="composite1" operator="in" result="composite2"/><feComposite in2="composite2" operator="in" result="composite3"/></filter><filter id="renpy-original-A" x="-.015" y="-.059" width="1.03" height="1.117" color-interpolation-filters="sRGB"><feGaussianBlur stdDeviation=".186"/></filter><filter id="renpy-original-z" x="-.008" y="-.028" width="1.015" height="1.056" color-interpolation-filters="sRGB"><feGaussianBlur stdDeviation=".098"/></filter><filter id="renpy-original-y" x="-.014" y="-.095" width="1.028" height="1.191" color-interpolation-filters="sRGB"><feGaussianBlur stdDeviation=".163"/></filter><filter id="renpy-original-D" x="-.059" y="-.05" width="1.119" height="1.099" color-interpolation-filters="sRGB"><feGaussianBlur result="blur" stdDeviation="1.084"/><feComposite in="SourceGraphic" in2="blur" operator="atop" result="composite1"/><feComposite in2="composite1" operator="in" result="composite2"/><feComposite in2="composite2" operator="in" result="composite3"/></filter><filter id="renpy-original-E" x="-.026" y="-.022" width="1.053" height="1.044" color-interpolation-filters="sRGB"><feGaussianBlur result="fbSourceGraphic" stdDeviation=".424"/><feColorMatrix in="fbSourceGraphic" result="fbSourceGraphicAlpha" values="0 0 0 -1 0 0 0 0 -1 0 0 0 0 -1 0 0 0 0 1 0"/><feGaussianBlur in="fbSourceGraphic" result="blur" stdDeviation=".81"/><feComposite in="fbSourceGraphic" in2="blur" operator="atop" result="composite1"/><feComposite in2="composite1" operator="in" result="composite2"/><feComposite in2="composite2" operator="in" result="composite3"/></filter><filter id="renpy-original-t" color-interpolation-filters="sRGB"><feGaussianBlur result="blur" stdDeviation=".21"/><feComposite in="SourceGraphic" in2="blur" operator="atop" result="composite1"/><feComposite in2="composite1" operator="in" result="composite2"/><feComposite in2="composite2" operator="in" result="composite3"/></filter><linearGradient id="renpy-original-s" x1="97.988" x2="84.177" y1="119.56" y2="116.33" gradientUnits="userSpaceOnUse"><stop stop-color="#fde859" offset="0"/><stop stop-color="#fde859" stop-opacity="0" offset="1"/></linearGradient><linearGradient id="renpy-original-k" x1="48.706" x2="59.061" y1="81.451" y2="78.814" gradientUnits="userSpaceOnUse"><stop stop-color="#d9b862" offset="0"/><stop stop-color="#d9b862" stop-opacity="0" offset="1"/></linearGradient><linearGradient id="renpy-original-j" x1="49.354" x2="49.426" y1="75.243" y2="76.417" gradientUnits="userSpaceOnUse"><stop stop-color="#e8ca63" offset="0"/><stop stop-color="#e8ca63" stop-opacity="0" offset="1"/></linearGradient><linearGradient id="renpy-original-h" x1="38.639" x2="37.754" y1="75.171" y2="69.842" gradientUnits="userSpaceOnUse"><stop stop-color="#d3aa6d" offset="0"/><stop stop-color="#d3aa6d" stop-opacity="0" offset="1"/></linearGradient><linearGradient id="renpy-original-p" x1="63.864" x2="64.746" y1="67.797" y2="69.831" gradientUnits="userSpaceOnUse"><stop stop-color="#ecb8a9" offset="0"/><stop stop-color="#ecb8a9" stop-opacity="0" offset="1"/></linearGradient><linearGradient id="renpy-original-e" x1="48.407" x2="49.492" y1="59.797" y2="58.712" gradientUnits="userSpaceOnUse"><stop stop-color="#e9ac9c" offset="0"/><stop stop-color="#e9ac9c" stop-opacity="0" offset="1"/></linearGradient><linearGradient id="renpy-original-i" x1="48.136" x2="47.988" y1="70.034" y2="68.899" gradientUnits="userSpaceOnUse"><stop stop-color="#e3c959" offset="0"/><stop stop-color="#e3c959" stop-opacity="0" offset="1"/></linearGradient><linearGradient id="renpy-original-n" x1="48.983" x2="49.186" y1="97.661" y2="97.22" gradientUnits="userSpaceOnUse"><stop stop-color="#dcb668" offset="0"/><stop stop-color="#dcb668" stop-opacity="0" offset="1"/></linearGradient><linearGradient id="renpy-original-o" x1="66.313" x2="66.397" y1="59.868" y2="62.354" gradientUnits="userSpaceOnUse"><stop stop-color="#fffdfd" offset="0"/><stop stop-color="#fffdfd" stop-opacity="0" offset="1"/></linearGradient><linearGradient id="renpy-original-d" x1="47.186" x2="50.305" y1="37.017" y2="38.508" gradientUnits="userSpaceOnUse"><stop stop-color="#eec1b2" offset="0"/><stop stop-color="#eec1b2" stop-opacity="0" offset="1"/></linearGradient><linearGradient id="renpy-original-c" x1="45.831" x2="48.407" y1="83.119" y2="89.22" gradientUnits="userSpaceOnUse"><stop stop-color="#9f9f9f" offset="0"/><stop stop-color="#9f9f9f" stop-opacity="0" offset="1"/></linearGradient><radialGradient id="renpy-original-x" cx="55.64" cy="50.886" r="5.056" gradientTransform="matrix(1.0136 -.1997 .16353 .83005 -8.919 19.595)" gradientUnits="userSpaceOnUse"><stop stop-color="#212848" offset="0"/><stop stop-color="#2c3665" offset="1"/></radialGradient><radialGradient id="renpy-original-w" cx="76.881" cy="50.965" r="3.778" gradientTransform="matrix(1.2128 .28116 -.26736 1.1532 -2.732 -29.137)" gradientUnits="userSpaceOnUse"><stop stop-color="#212848" offset="0"/><stop stop-color="#2c3665" offset="1"/></radialGradient><radialGradient id="renpy-original-b" cx="46.738" cy="46.196" r="24.536" gradientTransform="matrix(-.03564 .52836 -1.2339 -.08324 126.37 13.065)" gradientUnits="userSpaceOnUse"><stop stop-color="#eec0b2" offset="0"/><stop stop-color="#eec0b2" stop-opacity="0" offset="1"/></radialGradient><radialGradient id="renpy-original-u" cx="94.478" cy="30.526" r="32.374" gradientTransform="matrix(.10003 -.24267 .32605 .1344 52.096 48.694)" gradientUnits="userSpaceOnUse"><stop stop-color="#ff7f7f" offset="0"/><stop stop-color="#a66067" offset="1"/></radialGradient><radialGradient id="renpy-original-B" cx="80.344" cy="98.345" r="23.782" gradientTransform="matrix(1.3342 .45378 -.51484 1.5137 21.296 -85.17)" gradientUnits="userSpaceOnUse"><stop stop-color="#fde859" offset="0"/><stop stop-color="#d3aa6d" offset="1"/></radialGradient><radialGradient id="renpy-original-C" cx="79.278" cy="95.485" r="26.347" gradientTransform="matrix(.88807 .43199 -.53935 1.1088 60.345 -43.368)" gradientUnits="userSpaceOnUse"><stop stop-color="#fde859" offset="0"/><stop stop-color="#eacd61" offset="1"/></radialGradient></defs><path d="M99.964 22.789c-6.517-5.069-10.209-4.707-14.98-6.418C73.531 3.827 63.902 2.683 54.189 1.013 41.487 7.336 35.805 15.999 33.826 25.896c-3.805 3.16-7.691 6.278-10.63 9.87 2.723 1.344 6.644 2.088 10.846 2.692l59.73-10.232c2.53-1.48 4.388-3.44 6.193-5.437z" fill="#eadbcc"/><path d="M89.703 97.754c.007-.397.161-.527.352-.591 1.339-.508 3.853-1.011 4.883-.717.538.208 2.64 1.235 2.771 3.503l-1.94 2.553z" fill="#faeee3"/><path d="M87.816 96.008l2.561 1.288-.154.895-3.597-.028z" fill="#c8c6c0"/><path d="M91.959 96.61c-.255.143-.394.295-.453.481-.06.186.012.281.366.409 1.077.393 2.118 1.314 3.143 2.453.515.39.686.456.778-.278l-1.33-2.24c1.062.9 1.953 2.312 3.246 2.514l-.852 2.469-7.144-4.199c-.073-.676.043-.958.329-1.07z" fill="#ddb1a3" filter="url(#renpy-original-a)"/><path d="M42.166 34.404l3.807 29.444 14.548 2.06.09 4.433 6.186 2.324 1.176-3.868.02-2.464c1.86-.307 4.147-1.214 6.363-2.019l11.26-3.77 5.621-32.22-23.987-3.958z" fill="#fbefe3"/><path d="M42.166 34.404l3.807 29.444 14.548 2.06.09 4.433 6.186 2.324 1.176-3.868.02-2.464c1.86-.307 4.147-1.214 6.363-2.019l11.26-3.77 5.621-32.22-23.987-3.958z" fill="url(#renpy-original-b)"/><path d="M54.593 86.576l-2.855 12.035-8.534-.443-6.432 3.879c-3.45-.853-6.186-2.848-8.906-4.869l-.04-6.313 3.147-4.493 2.177-10.43-1.01-1.405c.23-1.735 1.182-3.125 4.671-3.305z" fill="#fff"/><path d="M59.453 73.884c-7.134 3.337-6.249 7.424-7.055 14.745l-.603 2.272c.139 1.865-.924 2.426-2.1 4.437-.437.717.328.909.683 1.03-.272.784-.198 1.154-.123 1.957.742 1.742.694 3.748.945 5.38-1.532.846-.454 1.985.882 2.198l14.378 10.81c1.738.396 3.342-.326 5.056-.742l10.535-3.225c2.473-1.237 5.395-2.044 4.79-4.882l3.526-2.393-10.135-22.366c1.325-7.562-.012-8.668-5.579-13.179z" fill="#b5a396"/><path d="M59.453 73.884l9.223 9.757 4.027-9.744.587.448 1.358-2.45-6.284-4.072-2.043 4.03-.392.225-4.604-3.051-2.673 4.002z" fill="#fff"/><path d="M41.819 78.258c-.516.1-.84.523-1.217.86-1.446 1.574-1.905 3.756-1.544 5.404 1.11 2.561 3.031 3.072 5.67 3.216.973-.287 1.708-.544 2.702-.544.113-.802.256-1.173.95-1.514 1.939-.255 2.687.106 4.987-.723.675-.128 1.204-.311 1.88-.247.312.096.412.286.584.544 1.983.556 3.712.811 5.057 0 2.208-2.353 2.772-4.43.99-7.085a9.248 9.248 0 00-1.317-1.237l-2.307-1.306-.26.38c-1.49 2.366-3.143 3.207-5.577 4.34-3.616.855-6.128.806-9.163-.505-.728-.542-1.003-.845-1.435-1.583z" fill="#c8c8c8"/><path d="M40.012 83.793c.045-.039.094-.07.208 0 .477.293 1.074.768 1.665 1.163 1.45 1.07 3.358.634 4.765.25 3.066-.85 6.713-2.91 8.41-6.057-2.552 1.458-4.68 1.721-7.522 1.781-2.505-.319-4.26-.472-5.66-2.494l-.194-.172c-3.29 2.208-3.655 6.47-.588 8.762 2.242.9 3.855.948 5.982.068-1.888.248-7.259.852-7.066-3.301z" fill="url(#renpy-original-c)"/><path d="M45.512 48.757l-1.331-14.129 8.956-5.262c-2.224 6.615-6.02 13.44-7.625 19.391z" fill="url(#renpy-original-d)"/><path d="M46.865 56.586c1.2 1.498 2.468 2.761 3.88 3.523l-3.167 1.662z" fill="url(#renpy-original-e)"/><path d="M33.703 32.178l-.125.93c-1.123 9.11-1.623 18.358-3.836 27.226.512-.618.908-1.7 1.29-2.837-.12 1.67.008 3.488-.594 4.869l4.236.04c.396-.764.791-2.33 1.187-3.563.391 1.098.477 2.064.594 3.72.342-.279.634-.762.87-1.464.074.58.107 1.161.278 1.742l1.236.283c.867-1.615 1.878-2.111 2.291-2.298 2.064-.457 3.766.366 5.615.269.384-.034.755-.174 1.126-.366-2.407-11.294-2.286-17.487-1.407-21.851 1.327-2.16 3.155-4.084 4.658-5.649-1.641 3.623-2.721 7.054-3.127 10.676.447-.571.715-1.322 1.028-2.027.157 1.416.115 3.102.756 3.862 1.899-6.107 5.991-10.963 8.662-14.54-1.708 4.205-3.98 9.015-3.675 12.105 2.15-4.796 5.324-8.448 8.727-11.956-2.13 3.43-3.853 9.486-3.615 10.552 1.322-3.963 3.986-8.713 6.05-11.835-1.204 3.906-3.665 7.996-3.507 11.717.226-.904.62-1.525 1.069-2.058.01 2.07-.32 4.476.277 6.808.938-3.064 2.21-5.347 3.443-7.6.197-.375.378-.76.65-1.086-.122 1.456-.346 3.134-.252 4.227.594-2.233 1.228-4.505 2.178-6.382-.665 4.845-1.526 9.609 1.04 13.603.965-.43 3.034-3.714 3.272-6.265.38.588.55 1.016.475 2.455 1.812-2.307 2.852-8.683 2.296-13.874 1.278 4.371 2.103 8.518 2.703 13.146.613.128 1.176.43 1.657.916 1.531-4.266 1.63-8.923 1.538-13.587 1.393 5.28 1.502 11.04 1.243 16.188.675-.505 1.368-1.856 1.693-3.233.03 1.325.142 2.055.504 3.242-1.509 3.836-3.113 7.666-4.632 11.498-.096.215-.328.55-.487.672-2.238 1.504-4.278 2.823-6.55 3.832l1.34.208c2.864-1.15 5.343-1.312 8.15-.823l.002-.003c-.005-.002-.005-.003 0 0 1.866-1.64 2.782-3.455 3.833-5.901-.272 2.361-.38 4.04-.807 6.452.688-.653 1.288-1.155 2.048-2.383-.207.755-.41 1.511-.252 2.267.976-.778 2.55-3.687 2.504-6.564.424 1.44.65 4.685.475 6.966 2.351-3.41 2.508-5.831 3.59-10.314.133 3.154-.025 1.816.434 4.199.723-9.843 1.064-26.727-5.259-36.675-18.146-2.093-38.932 2.707-56.893 10.465zm24.556-.709v-.003c-.4.43-.405.436 0 .003z" fill="#ff7f7f"/><path d="M73.906 70.118l-.304.836 1.046.941-1.358 2.45-.588-.449-.447 1.036c3.336 1.643 6.182 4.021 6.857 9.656-1.014 1.098-1.997 8.313-2.58 4.456l-3.536 1.058c-.15-.772.04-1.446-.573-2.35-.407-1.151-.668-.968-1.038-.608-.257 2.909-.47 6.012-.586 8.78a15.364 15.364 0 01-2.127 1.819c-.145-4.124-.534-8.247-.812-12.371-.055 4.496-.057 9.283-.252 13.015-2.95 1.976-6.386 3.673-13.447 5.144-.955.348-1.712.292-.473-.27.541-.316.52-.16.375-.732-.415-1.75-.638-3.579-.8-5.43-.067-.753-.08-.842-.885-.58-.5.094-.823-.038-.5-.607.336-.803.862-1.542 1.393-2.28.611-.85.455-.704-.358-.04-.893.718-1.771 1.418-2.45 1.89-.644.446-.42.033-.404-.678l-.587 1.092.906.472-.22 1.347.265.658.406 2.155.37 3.177-.692.49-.14.825 1.714.882c27.058 3.17 35.072-28.105 21.824-35.784zM55.769 88.675l-1.026 2.4c-.485 1.133-.343 1.28.593 2.204l.208 6.256c.025.772-.118 1.012.727.826l6.309-.748.91-.198-7.243-.08c.319-1.914.158-3.84.014-5.78-.041-.552-.292-.775.39-.808 3.071-.401 6.143-.599 9.214-.794.032-.402.162-.682.606-1.04-2.474-.035-7.303.307-10.344.209-.503-.018-.775.07-.6-.585z" fill="#887c74" filter="url(#renpy-original-f)"/><path d="M82.49 103.59l-.297.257c.951.38 2.326.964 2.434 1.683.154-.39.146-.826-2.137-1.94zm-.752.732l-.792.91.673 4.157zm.53.413c-.13.002-.141.156-.12.592l-.095 6.158c-.003.68.082.614-.51.95-.67.366-1.392.483-2.125.543-.44.036-.961.13-.255-.256l.595-.406c.778-.532.595-.41-.128-.109-1.435.597-2.911 1.1-4.501 1.348-.603.093-1.118.263-.798-.544.458-1.696 1.5-3.218 2.43-4.772l-11.028 8.033 1.875.671 14.442-4.198 3.387-1.637 1.287-1.4.112-1.091c-.385 1.14-1.719 2.039-3.108 2.754-.487.25-1.26.69-.423-.076l.92-1c.766-.831-.162-.19-.733-.041.063-1.308.335-1.642.545-2.267l.15.865c.15.567.307.467.854.127.558-.36 1.064-.859 1.571-1.356l-.098-.259-2.085 1.323-.206-3.146-1.398-.595c-.285-.122-.458-.213-.559-.211z" fill="#887c74" filter="url(#renpy-original-g)"/><path d="M47.796 97.099c.305-.259 1.272-1.358 1.702-1.346.356.344.428.474.88.615l-.247 1.78-2.569 1.633z" fill="#e7c763"/><path d="M51.615 59.238c-1.687.332-2.94 1.204-4.434 1.94-1.802.043-3.48-.075-5.283-.317-1.883.434-2.914 2.34-3.623 4.295l-.553 3.879c-.643 1.304-1.262 2.512-1.535 3.98l.086.075c-.155.446-.343.879-.07 1.302.477.7 1.396 1.258 2.096 1.705.008-.028 2.905 1.716 3.5 1.903v.002c.228.793.68 1.404 1.683 1.978 2.876 1.284 8.13 1.222 9.4.178.003-.019-.002-.033-.001-.05.128-.043.274-.08.377-.128 1.526-.763 2.545-1.244 3.76-2.513l.693-1.05 1.78-2.77c.76-1.246 1.477-2.277 1.86-3.702-1.214-2.478-4.91-5.276-6.193-7.7-1.086-1.243-1.927-2.458-3.543-3.007zM55.133 84.666c-.872.047-1.64.294-2.504.51-1.037.41-1.723.335-2.814.355-.346.007-.56.026-.739.069.01-.014.015-.025.026-.04-1.35.27-1.536.448-1.588 1.739.643 1.708 2.549 1.743 4.101 1.469l1.407-.358c.002-.011-.013-.018-.014-.03.484-.16.948-.366 1.412-.577.722-.42 1.065-.945 1.426-1.649.15-.809-.034-1.192-.713-1.488z" fill="#fde759"/><path d="M38.36 70.734c-.659.477-1.706 1.447-2.013 2.124-.152.532-.465 1.036-.145 1.534.477.7 1.399 1.258 2.098 1.706.008-.028 2.905 1.716 3.5 1.902-.24-1.339-.067-2.318.27-3.388-1.279-1.107-1.607-2.304-2.213-3.587-.132.83.786 2.919 1.157 3.473-1.743-.312-2.419-2.086-2.662-3.697-.004-.01.019-.068.008-.067z" fill="url(#renpy-original-h)"/><path d="M47.701 70.887c-.054-.258-.117-1.825.312-1.872.43-.047.827 1.179.957 1.672a12.46 12.46 0 00-1.269.2z" fill="url(#renpy-original-i)"/><path d="M52.439 74.461c-.094.005-.193.02-.293.053-.804.256-.762 1.162-.762 1.162.794-.54 1.234-.654 2.205-.69 0 0-.49-.557-1.15-.525zm-6.012 1.033c-.094.005-.19.023-.29.055-.804.256-.764 1.162-.764 1.162.793-.54 1.234-.654 2.205-.69 0 0-.49-.559-1.15-.527z" fill="url(#renpy-original-j)"/><path d="M41.799 78.001c-.177-.14-.215-2.156.004-2.324.779 7.125 11.324 2.554 11.08 4.481-1.272 1.044-6.526 1.106-9.402-.178-1.003-.574-1.454-1.186-1.682-1.979z" fill="url(#renpy-original-k)" filter="url(#renpy-original-l)"/><path d="M49.102 85.561c-2.396 3.193 4.052 2.158 3.919 2.85l-1.406.356c-1.552.275-3.46.239-4.102-1.469.052-1.29.24-1.467 1.589-1.737z" fill="#e3c265" filter="url(#renpy-original-m)"/><path d="M48.172 96.733c.421.405 1.122.956 2.058.742.12.73.19.936.396 1.583.073.722.278 1.216.307 2.138-1.95-.103-4.222-1.588-5.106-3.058 1.151.013 1.619-.7 2.345-1.405z" fill="url(#renpy-original-n)"/><path d="M51.643 61.535c-2.663.193-2.555 3.175-2.522 5.68l.557 3.382c1.844-.075 3.184-.073 5.315.635.412-3.182.817-8.024-2.032-9.6a5.106 5.106 0 00-1.318-.097zm-8.973 1.068c-2.33.815-2.566 2.414-2.672 4.69.312 2.647 1.257 4.832 2.45 6.705 1.4-1.837 3.325-2.565 4.255-2.86.039-1.95-.375-4.035-.744-5.708-1.06-2.557-2.075-2.762-3.289-2.827zm13.883 15.414l-1.21.862c.51.048 1.006.646 1.105 1.65l.14-.418c.144-.877.003-1.31-.035-2.094zm-11.95 2.352c.21.506.597 2.002 1.314 2.428-.194-.543-.623-1.516.097-2.016z" fill="#fff"/><path d="M63.985 61c.463.892 4.314.748 4.75-.06.582-1.304.553-1.568.633-2.018-2.257-.652-4.455-.245-5.917 0-.163.624.18 1.35.534 2.078z" fill="url(#renpy-original-o)"/><path d="M68.042 67.076c-1.66 2.87-4.704 3.807-7.593 1.135l-.096-2.243a79.13 79.13 0 007.788.376z" fill="url(#renpy-original-p)"/><path d="M68.398 69.767l-2.037 2.28c2.607-.06 4.117.63 6.15 2.032zm-7.164 1.21l-1.425 1.838 6.12-.738zm4.845 2.055a20.921 20.921 0 00-2.55.14c1.894.564 2.88 1.034 4.671-.04a25.68 25.68 0 00-2.121-.1zm4.892 4.928c-2.641 4.583-2.46 3.706-5.858 1.86 1.456 1.797 2.948 3.118 3.469 3.547z" fill="#dfd9c9"/><path d="M54.799.762l-.611.25c-8.275 4.686-16.938 8.52-19.69 25.275-4.66 2.904-8.103 6.156-11.302 9.478 1.26 1.175 4.942 1.534 9.697 2.297l.803-5.96 3.472-2.036c.485-1.488.896-2.976 1.668-4.465.424-.813.886-1.353 1.84-1.681 8.238-4.013 14.334-4.933 21.111-6.836-5.17.638-10.364 1.477-19.248 4.56-1.274.443-1.584.82-1.098-.906.8-4.135 2.654-7.943 4.858-11.184-1.27 2.516-1.896 5.105-2.285 7.72 2.658-5.356 5.475-10.61 9.937-14.806.492-.607.89-.566 1.549-.414 4.445 1.031 10.417 4.893 15.016 10.85-1.83-2.907-4.619-7.88-12.061-10.688L54.799.76zm15.717 12.143c.462.734.865 1.338 1.264 1.74a35.586 35.586 0 00-1.264-1.74zm20.146 8.814c1.652 2.302 2.352 4.258 3.223 6.276 2.443-1.41 4.297-3.28 6.078-5.205-3.942-.723-7.075-1.094-9.301-1.07z" fill="#bcad9d" filter="url(#renpy-original-q)"/><path d="M51.82 61.51c-4.016.018-2.63 5.748-2.138 9.087.353-3.99.158-6.626 3.28-8.963a5.645 5.645 0 00-1.142-.124zm-9.14 1.266c-4.097.061-2.877 7.595-.233 11.222-1.168-5.017-1.71-7.988 1.678-10.99-.542-.165-1.022-.239-1.446-.232z" fill="#e5dfd1" filter="url(#renpy-original-r)"/><path d="M88.971 97.781c-.559.014-1.104.05-1.658.096l-.28.412-1.925 2.299c1.069.186 2.227.581 2.877 1.144.108.37.196.766.275 1.168.047.326.102.67.168 1.069.003.004.008.006.012.01.085.624.142 1.236.168 1.763-.688.558-1.471 1.141-2.094 1.623.084.435.21.627.576.62 1.117-.076 2.23-.035 3.346.019 2.347.323 4.148 1.787 5.373 3.246l.008-.025c.061.083.131.161.191.246-1.893 4.965-7.43 4.485-11.678 2.968-4.82-1.746-9.176-1.05-12.814 1.534-.912 1.06-1.47 1.804-1.977 2.964-.02.02-.11.102-.11.102-.039.135-.089.316-.136.488-.021.057-.043.098-.064.157l.023-.004c-.512 1.93-1.208 5.615 2.22 6.552-3.64-4.876.702-6.844 5.3-6.666a55.04 55.04 0 012.727.41c4.23 1.425 9.95 3.801 14.516 2.948l.033.006.062-.024c.844-.166 1.65-.433 2.393-.853-.093.005-.195-.006-.29-.004 3.853-1.722 7.173-4.316 8.483-8.975-.003-3.882-.12-6.045-4.773-11.004l-2.317-1.896c-.918-.099-1.687-.819-2.162-1.301.295.561.54 1.271.51 1.965-.242.17-.44.077-.719-.047-.892-.614-1.655-1.468-2.367-2.158-.848-.688-1.368-.718-2.162-.819a19.857 19.857 0 00-1.734-.033z" fill="#e6c764"/><path d="M88.971 97.781c-.559.014-1.104.05-1.658.096l-.28.412-1.925 2.299c1.069.186 2.227.581 2.877 1.144.108.37.196.766.275 1.168.047.326.102.67.168 1.069.003.004.008.006.012.01.085.624.142 1.236.168 1.763-.688.558-1.471 1.141-2.094 1.623.084.435.21.627.576.62 1.117-.076 2.23-.035 3.346.019 2.347.323 4.148 1.787 5.373 3.246l.008-.025c.061.083.131.161.191.246-1.893 4.965-7.43 4.485-11.678 2.968-4.82-1.746-9.176-1.05-12.814 1.534-.912 1.06-1.47 1.804-1.977 2.964-.02.02-.11.102-.11.102-.039.135-.089.316-.136.488-.021.057-.043.098-.064.157l.023-.004c-.512 1.93-1.208 5.615 2.22 6.552-3.64-4.876.702-6.844 5.3-6.666a55.04 55.04 0 012.727.41c4.23 1.425 9.95 3.801 14.516 2.948l.033.006.062-.024c.844-.166 1.65-.433 2.393-.853-.093.005-.195-.006-.29-.004 3.853-1.722 7.173-4.316 8.483-8.975-.003-3.882-.12-6.045-4.773-11.004l-2.317-1.896c-.918-.099-1.687-.819-2.162-1.301.295.561.49 1.15.46 1.843-.242.17-.534.083-.669.075-.892-.614-1.655-1.468-2.367-2.158-.848-.688-1.368-.718-2.162-.819a19.857 19.857 0 00-1.734-.033z" fill="url(#renpy-original-s)"/><path d="M95.443 98.873c.295.561.49 1.15.46 1.843-1.657.944-2.56-.353-3.929-1.439-.598-.431-1.025-.101-1.025-.101-1.494 1.122-2.598 2.658-2.451 3.886.078.628.178.462.797.604 1.618.346 5.678 1.333 6.613 2.715 1.16 1.714-.062 4.77-.092 4.844.062.083.131.161.191.246-1.893 4.965-7.43 4.485-11.678 2.968-4.82-1.746-9.175-1.05-12.814 1.534-.912 1.06-1.468 1.804-1.976 2.964.283-.281 2.413-2.305 5.709-2.584 3.486-.294 14.198 5.843 20.967 5.696 3.852-1.722 7.17-4.316 8.48-8.975-.003-3.882-.119-6.045-4.773-11.004l-2.316-1.896c-.918-.099-1.687-.819-2.163-1.301zm-7.184 4.027c.047.326.102.67.168 1.069.004.004.009.006.012.01a18.51 18.51 0 00-.18-1.078zm-18.967 16.627c-.02.057-.043.098-.064.157l.023-.004.041-.153zm24.816 3.38c-.031.005-.063.01-.095.017l.033.006.062-.024z" fill="#fde859" filter="url(#renpy-original-t)"/><path d="M80.696 21.103c-17.484-.039-33.147 5.325-47.001 10.999a364.111 364.111 0 00-.752 6.666c.627-.413 1.252-.83 1.876-1.25-1.092 7.17-2.401 13.69-3.787 19.979l-.118-3.669-1.465 7.191 1.267-1.78-.574 3.443 4.63-.08 1.09-2.968.415 2.573.119.594.772-.871.277 1.069 1.484.475c1.209-2.243 2.259-2.85 4.75-2.554.844.011 3.832.813 4.271-.113-2.615-6.94-3.05-15.167-3.489-23.269-.845 6.543-1.466 13.22-1.567 20.208-1.15-4.797-1.91-9.926-2.016-15.618-.452 2.868-.912 5.651-1.511 7.054-.254-4.161-.636-9.09-1.024-14.053C50.814 26.675 64 18.457 90.218 24.408c.719.161 1.469.342 2.083.495.271-.405-1.122-2.262-1.705-3.19a83.212 83.212 0 00-9.9-.61zm4.91 4.289c1.244 2.98 2.726 6.039 3.286 9.494.017-.221.03-.44.05-.664.087.204.179.42.272.654 1.061 2.82 1.05 5.88.995 8.846.64.208.957-1.017 1.004-1.443 1.049-6.933-.9-12.527-5.607-16.888zM56.72 26.86c-1.54 1.902-3.032 3.828-4.156 5.937.033-.497.195-.544.04-1.702a20.109 20.109 0 00-4.354 3.563c.59-1.39.731-2.782.8-4.172-.955 3.075-2.067 5.707-2.425 8.293a42.634 42.634 0 014.497-5.55c-.095.563-.46 1.042-.7 1.511-1.114 2.974-1.931 5.534-2.31 8.223-.043.302-.082.615-.118.942.468-.625.74-1.373 1.028-2.028.106 1.911-.069 2.88.756 3.863.067-.313.138-.58.216-.856.177-6.593 4.217-12.54 6.727-18.024zm34.146.659c.93 2.264 1.416 3.856 1.681 5.113l-.001-.02c.864 2.172.964 4.039 1.343 6.107.318-1.741.452-3.876.088-4.971-.688-2.038-1.425-4.08-3.11-6.23zm-23.679.392c-2.779 4.28-5.392 7.361-6.516 11.897 1.621-3.658 3.293-6.774 5.257-9.742-1.441 4.28-3.322 7.72-3.508 11.717.326-.504.44-1.234.784-1.69.633-3.752 2.474-8.04 3.984-12.182zm-6.558.704c-.784.722-1.516 1.619-2.194 2.6-.058.085-.119.165-.176.25l-.112.49-.799 1.929c-1.22 2.983-2.835 6.289-2.583 9.42.464-.703.894-1.626 1.143-2.269.726-4.569 2.457-8.34 4.721-12.42zM71.5 29.87c-5.626 7.786-5.992 10.569-6.58 13.564-.072.368-.147.738-.236 1.122.923-2.27 1.776-4.32 2.824-6.185.107-.189.224-.369.353-.524-.252 1.475-.366 2.876-.252 4.226.194-.328 1.293-4.663 2.178-6.381-.101.636-.193 1.24-.275 1.814-.95 5.317-.43 9.018 1.316 11.789 1.145-.038 3.55-5.434 3.217-5.864-.753 1.42-2 3.49-2.822 3.835-1.166-5.778-.585-11.472.276-17.396zm10.971.224l.31 3.347c0-.425-.005-.951-.013-1.356.25 2.037.864 4.088 1.08 5.956l.133.42a1.27 1.27 0 00-.089-.008c.034 1.29.206 2.559.237 3.796.053 2.08-.228 4.208-.118 6.024.887-.497 1.514-2.208 1.693-3.233.015.395.019.78.07 1.148.11.649.212 1.38.437 1.611.78-1.613 1.452-3.275 1.637-4.713-.465 1.42-.933 2.814-1.458 3.69.361-1.815.72-3.632.644-5.738-.539.802-.795 1.033-1.008 1.763-.035-.53-.032-.986-.156-1.695-.02-.064-.042-.127-.063-.19l.02-.06c-.59-3.94-1.798-7.467-3.356-10.762zm-6.101.448c.444.948.487 3.065.62 5.308.309-1.254.185-2.859-.12-4.24 1.103 4.149 2.267 8.827 2.703 13.146.643.135 1.114.57 1.657.916.99-2.396 1.093-4.394 1.292-6.496-.425 2.4-.89 4.517-1.506 5.584-.406-4.815-1.069-10.923-4.646-14.218zM37.637 35.61c-.724 7.911-2.234 14.25-3.699 20.682.593-5.773 1.172-11.57.899-18.785.934-.628 1.866-1.263 2.8-1.897zm50.514 6.632c-.314 1.41-.765 2.785-1.173 4.17l-2.687 6.577c-.939 2.323-1.934 4.622-2.928 6.922-1.91 2.045-4.895 3.32-7.006 4.404l.88.317.763.089c2.582-1.373 5.395-1.569 8.114-.89 1.43-1.46 2.521-3.362 3.368-4.866.098 1.984-.232 3.734-.63 5.653.67-.457 1.17-1.082 1.708-1.679a7.225 7.225 0 00.14 1.568c1.573-1.961 2.381-3.663 2.77-5.836.268 1.529.29 2.717.265 4.223 3.003-7.273-.069-12.396-1.09-16.639.53 3.347 1.047 8.272.475 9.975-.469-4.68-1.924-9.756-2.97-13.988z" fill="url(#renpy-original-u)"/><path d="M49.191 95.924l-.386.205-2.021 1.964-3.373.028-6.465 3.779c-3.597-.41-6.95-3.113-8.915-4.493-.155-2.569-.389-5.05.168-7.557a188.418 188.418 0 012.967-3.946l2.071-9.46c-2.358-2.824-.077-4.936 2.1-5.094l2.113-2.59.294.49-1.176 2.463s-2.35.616-2.351 1.456c-.002.84 1.931 1.203 1.931 1.203.532.935 1.543 1.35 2.435 1.931l-2.716.835c-1.095.196-.783.568-.61 1.544l1.14 6.41c.48 1.808.372 1.886-1.172 2.716l-4.06 2.181c-1.235.635-1.298.575.04.944l1.812.499c2.177.26 2.034 1.67 2.601 3.587l1.38 4.66c.169.622.444.624.928.28l4.436-2.748 2.211-3.33.532-1.372.252-3.135-.139-1.59c.896 2.162 2.135 4.468 2.182 6.74 1.481-.409 3.003-1.465 4.52-2.449l-2.423 3.678z" fill="#dfd9c9" filter="url(#renpy-original-v)"/><path d="M80.018 45.02l-3.434 8.89c1.53-.077 3.367-.553 4.88-1.593 2.183-3.022 1.19-5.67-1.446-7.297zm-29.393 2.154c-.658 1.317-.677 2.825.133 4.678 1.512 1.568 3.032 2.01 3.869 2.201z" fill="#fff"/><path d="M78.336 44.928c-3.507.148-4.206 2.7-4.54 4.564-.365 3.317.762 4.366 2.849 4.374 2.79-.043 4.142-3.13 4.47-5.02.251-2.442.437-2.92-1.097-3.826a9.408 9.408 0 00-1.682-.092z" fill="url(#renpy-original-w)"/><path d="M56.205 44.242c-1.34-.014-2.477.36-3.223.639-1.204.705-3.602 2.547-1.795 6.28 1.16 2.566 4.126 3.518 6.541 2.331 3.445-1.809 2.742-5.47 2.92-7.565-1.559-1.27-3.103-1.671-4.443-1.685z" fill="url(#renpy-original-x)"/><path d="M59.625 49.496c-.076.04-.213.211-.44.545-2.517 3.176-4.498 2.861-6.61 1.412-.552-.403-.975-.803-.64.166.524 1.373 2.297 2.153 4.24 1.947 1.845-.194 3.1-1.86 3.468-3.316.069-.518.11-.82-.018-.754zm20.725.416c-.032-.004-.132.147-.3.393-2.58 3.586-4.705 2.541-5.51.78-.199-.581-.33-1.075-.471-.12-.074.896.344 2.231 2.203 2.426 2.08.217 3.467-1.584 3.974-2.942.101-.374.136-.533.104-.537z" fill="#a6aed6" filter="url(#renpy-original-y)"/><path d="M55.424 44.055c-3.182.069-6.37 2.651-4.236 7.107-.212-3.289.414-6.44 7.218-6.314-.862-.56-1.921-.816-2.982-.793zm23.01.729c-4.099-.11-5.345 4.713-4.39 7.736.208-4.763 1.614-5.98 4.786-6.742.807-.055.889.277 1.247.6.528.642.834 1.543 1.039 2.468.139-.956.175-1.985.19-2.727-.45-.771-1.26-.963-2.015-1.246a5.777 5.777 0 00-.857-.09z" fill="#212848" filter="url(#renpy-original-z)"/><path d="M58.656 45.178a.533.533 0 00-.283.145c-.332.322-.15 1.261.22 1.558s1.021.245 1.272-.101-.003-.97-.307-1.254c-.228-.213-.593-.403-.902-.348zm21.803.418c-.258-.04-.516.015-.713.201-.393.373-.263 1.404.12 1.813s1.121.603 1.525.205.167-1.46-.221-1.848a1.323 1.323 0 00-.711-.371zm-27.725 5.627a.664.664 0 00-.6.234c-.168.22-.14.621.069.832.21.212.72.336.949.084.228-.252.06-.888-.203-1.068a.512.512 0 00-.215-.082zm22.037.144a.481.481 0 00-.416.126c-.223.222-.12.827.102 1.05s.608.307.832.084c.223-.222.118-.827-.104-1.05a.74.74 0 00-.414-.21z" fill="#fff" filter="url(#renpy-original-A)"/><path d="M58.232 76.947c-.262 0-.518.026-.766.074-.124.219-.569.687-.906 1.055.061.504.137 1.108.096 1.644l1.619-1.445a.873.873 0 011.234.068.874.874 0 01-.07 1.237l-2.43 2.17a.872.872 0 01-1.234-.07.871.871 0 01.068-1.235l.483-.432c-.086-.476-.306-.858-.82-1.107-.216.162-.814.522-1.055.674a4.032 4.032 0 003.781 5.43 4.03 4.03 0 004.03-4.032 4.03 4.03 0 00-4.03-4.031zm1.92 1.184h.135l.109.162.11-.162h.134l-.166.246.172.256h-.133l-.117-.172-.117.172h-.135l.174-.256zm1.23 1.814h.155l.185.5h-.13l-.032-.09h-.201l-.031.09h-.131zm.079.117l-.07.2h.138zm-1.303.242a.875.875 0 01.576 1.53l-2.43 2.17a.874.874 0 01-1.236-.07.874.874 0 01.07-1.237l2.43-2.17a.87.87 0 01.59-.223zm-5.276 1.35h.141l.113.178.114-.178h.142l-.191.29v.21h-.13v-.21zm1.448 1.973h.193c.07 0 .121.01.152.031.032.021.047.055.047.102a.104.104 0 01-.066.1.111.111 0 01.062.044.13.13 0 01.024.078c0 .049-.016.086-.049.11-.033.023-.082.035-.148.035h-.215zm.129.088v.105h.072c.02 0 .036-.005.047-.014.01-.008.015-.021.015-.039 0-.017-.005-.03-.015-.039-.01-.009-.027-.013-.047-.013zm0 .193v.13h.076c.026 0 .045-.004.058-.015.014-.01.02-.028.02-.05 0-.022-.007-.039-.02-.05-.012-.01-.032-.015-.058-.015z" fill="#475f66"/><path d="M58.874 78.146a.757.757 0 00-.54.226.752.752 0 00-.22.648c.051.348.33.617.678.656a.776.776 0 00.56-.164.773.773 0 00.265-.794.771.771 0 00-.743-.572zm-2.482 2.2l-.042.002a.773.773 0 00-.664.516.608.608 0 00-.037.247c0 .113.004.144.033.235.09.286.343.492.647.53a.767.767 0 00.208-1.519c-.003 0-.036.066-.074.148-.009.02-.016.03-.017.024a1.206 1.206 0 01-.018-.068 1.099 1.099 0 00-.025-.088zm3.775.053a.765.765 0 00-.09 1.528.76.76 0 00.634-.22.76.76 0 00.098-.963.752.752 0 00-.303-.266.72.72 0 00-.339-.078zm-2.438 2.2a.768.768 0 00-.636 1.228.786.786 0 00.552.305.77.77 0 00.699-1.192.77.77 0 00-.615-.341z" fill="#b42320"/><path d="M44.232 80.676c-.03-.015-.082-.009-.596.064-.366.053-.572.085-.592.096-.035.021-.066.07-.066.106 0 .014.042.326.094.693.052.367.094.668.092.67-.002.002-.305.047-.672.1a11.72 11.72 0 00-.705.113c-.044.02-.069.063-.069.12 0 .024.035.282.076.575.054.37.084.541.096.56.01.016.035.037.057.048.038.018.054.016.719-.079.374-.053.685-.092.689-.087s.048.295.098.644c.05.35.095.658.101.688.016.069.064.107.133.107.027 0 .285-.034.576-.076.573-.083.57-.082.608-.156.018-.038.017-.052-.078-.721-.064-.45-.094-.685-.086-.688.006-.002.297-.044.646-.093s.654-.095.678-.1c.05-.01.104-.057.113-.1a17.46 17.46 0 00-.164-1.158.137.137 0 00-.11-.072c-.07.004-.127.01-.199.016.035.263.178.773.178.773-.22-.123-.478-.481-.613-.711l-.727.102c-.003-.004-.05-.312-.103-.684-.106-.727-.103-.715-.174-.75zm8.336 1.492a.277.277 0 00-.133.03.286.286 0 00-.137.136c-.025.052-.368.988-.375 1.024a.307.307 0 00.244.348.304.304 0 00.313-.143.94.94 0 00.047-.11c.252-.683.327-.889.334-.912a.34.34 0 000-.148.305.305 0 00-.293-.225zm-2.52.625a.296.296 0 00-.261.153c-.014.024-.354.943-.371 1.003a.298.298 0 00.08.3c.05.048.107.073.185.083a.329.329 0 00.184-.045.337.337 0 00.113-.129c.017-.037.358-.968.365-.998a.307.307 0 00-.084-.287.296.296 0 00-.21-.08z" fill="#2f2f2f"/><path d="M72.297 70.287l1.022.74c1.296.256 1.871.338 2.898 1.274 2.04 2.48 3.166 4.715 3.463 8.213-.403 3.103-1.486 5.526-3.147 8.53-2.829 4.415-5.189 7.43-9.322 11.302-2.373 2.268-5.534 3.948-9.162 4.75-2.117.333-5.589.553-6.393.83-3.544 1.652-6.39 4.013-5.74 8.332 2.377 6.712 12.698 5.749 20.266 2.178 3.517-2.06 6.322-3.636 9.461-6.215 4.413-3.932 7.601-7.358 10.914-11.297 4.222-5.047 6.8-11.525 6.83-17.326-1.187-6.81-3.432-15.311-9.937-17.885-4.817-.975-10.84 1.485-11.152 6.574z" fill="url(#renpy-original-B)"/><path d="M80.625 69.875c1.502 3.388 2.638 13.047-.625 18.25s-9.956 15.274-15.985 17.539c-5.037 1.892-11.582 1.317-13.515 3.336s-.872 5.485 4.75 6.75 13.422-1.819 25.696-10.517C91.654 93.48 101.25 81.037 84.273 63.77c-2.469-.33-4.862-.33-7.123.238 0 0 1.972 2.48 3.475 5.867z" fill="url(#renpy-original-C)" filter="url(#renpy-original-D)"/><path d="M59.003 111.46c5.162.084 12.811-1.57 23.19-7.613 10.416-10.411 14.631-29.585 3.884-36.96-5.348-3.34-3.239-.858-2.115 2.624 2.463 7.714 3.425 20.516-8.462 30.613-7.182 6.1-15.374 8.013-17.464 8.538-8.319 1.987-3.057 2.706.967 2.798z" fill="#fde759" filter="url(#renpy-original-E)"/><path d="M54.797.762c-.505-.002-.96.115-1.457.363-13.129 6.54-18.129 16.323-19.514 24.771-3.95 2.8-7.186 5.686-10.395 9.088-.557.643-.606 1.115-.197 1.414 1.037.75 6.112 1.551 9.42 1.822-.646 8.368-2.118 16.46-3.8 24.383l1.466-1.861-.475 2.217 4.986-.078c.454-.87.812-1.72.95-2.694.274 1.002.438 1.949.515 2.852l.752-.555.356.713 1.171.461c-.497 1.113-.915 2.659-1.093 4.813l-2.303 2.755c-1.084.053-2.187.485-3.375 2.61-.11.22.074.866.18 1.037.397.482.788.957.75 1.307-.305 3.084-1.3 6.688-1.979 10.055-1.323 1.401-2.667 2.787-3.168 4.908v5.426c-.122.804.235 1.054.8 1.464 2.625 1.9 6.089 3.884 8.067 4.272.871.041 3.882-1.94 6.928-3.84l2.375.04c1.39 1.673 3.104 2.76 4.992 2.845.117 1.148.187 2.225.291 2.398l.006.004c-.375.168-.748.453-.838.889-.1.482.424.859.848 1.09-1.157.457-2.324 1.233-3.305 2.22-1.24 1.249-2.185 2.841-2.37 4.573v.004c-.129 1.355.462 2.886 1.251 3.922l.002.002c1.91 2.47 5.347 3.321 9.059 3.16 3.48-.152 7.231-1.194 10.312-2.71.804.421 2.44.163 4.66-.474-.827 1.05-1.811 2.615-2.031 5.549-.217 2.56 1.498 4.443 2.89 5.186.882.305.788-.363.045-1.233-.893-1.03-1.358-1.945-1.369-2.828-.021-1.8 2.038-3.21 5.664-3.387 4.45-.256 11.154 4.221 16.863 3.762.75-.062 1.46-.261 2.207-.578 5.554-2.106 9.717-5.302 10.094-11.188.158-4.882-3.528-8.53-7.213-12.18 0-.07-.007-.147-.021-.234-.5-1.568-1.504-2.383-2.633-3.008-.695-.211-1.047-.246-1.584-.18-1.283.166-3.008.625-3.75.72-.298-.28-.59-.538-.9-.695 2.596-3.889 4.395-8.018 4.664-12.369.285-3.015-.661-8.348-2.846-12.867-1.093-2.26-2.497-4.314-4.238-5.748-.756-.568-1.48-1.051-2.235-1.38 1.09-.981 1.88-2.13 3.18-4.426-.139 2.016-.375 3.855-.807 5.578.59-.417 1.26-.835 1.704-1.52-.028.646.082 1.108.279 1.455 2-2.322 2.737-4.258 2.855-5.728.17 2.473.161 4.693-.168 6.205 2.066-2.023 2.542-3.869 3.918-9.855l.278 6.966c.37-1.34.496-2.081.732-3.642 1.034-14.777-.234-24.338-2.217-30.38 2.215-1.624 3.733-2.827 6.075-5.302.217-.214.26-.459.107-.658-2.425-2.031-7.355-4.496-14.633-6.031C78.451 9.466 72.397 3.004 55.784.89a4.49 4.49 0 00-.986-.13zm.268.756c.244.002.492.02.746.046 8.785.95 18.602 3.665 29.225 15.295 5.138 1.487 10.682 2.193 14.576 5.891-17.272-3.813-37.86-2.793-65.863 9.025.006-.041.01-.083.015-.125l-.017.125a212.696 212.696 0 00-8.598 3.86c2.848-1.15 5.686-2.314 8.543-3.453l-.799 5.88c-3.26-.581-9.09-1.616-8.945-2.454-.013-.913 4.012-4.723 10.549-9.32 1.77-12.788 11.07-21.399 19.33-24.61.428-.122.83-.164 1.238-.16zm2.021.812c6.844 2.053 11.74 8.911 15.152 12.854C68.57 10.042 65.621 4.712 57.086 2.33zm-3.69.346c-8.388 6.264-8.981 12.522-10.528 18.129 2.185-7.073 4.845-13.438 10.529-18.13zm19.366 13.436c-11.754.02-23.81 2.773-36.305 9.449 11.68-5.684 24.734-10.416 47.02-8.734a80.19 80.19 0 00-10.714-.715zm8.92 5.24h.001c2.138-.001 4.33.062 6.579.197 5.229 7.195 6.373 11.438 5.628 17.17-.158-1.862-.32-4.436-1.343-6.105.183 1.67-.032 3.12-.123 4.656.122-.924.301-2.639.357-3.563.9 2.104.845 5.343.438 9.877 1.587-7.577 2.56-12.76-4.948-22.035.768.047 1.543.101 2.324.165 6.324 9.947 5.983 26.83 5.26 36.674-.142-2.502-.426-4.544-.185-8.291-.832 5.264-1.489 10.996-3.84 14.406.175-2.282-.05-5.524-.475-6.965.045 2.877-1.527 5.787-2.504 6.564-.157-.755.045-1.512.252-2.267-.76 1.228-1.36 1.73-2.048 2.382.624-2.332.773-3.973.808-6.453-1.05 2.446-2.323 4.382-3.832 5.903l-.004.002c-1.243-.22-2.555-.397-3.72-.274-1.234.106-2.276.32-3.157.613l-.023-1.002a41.625 41.625 0 003.96-2.474c.16-.123.472-.537.567-.752l4.2-10.596-4.508 10.436c-.13.29-.424.776-.707.955-3.561 2.528-7.14 4.32-12.03 5.63-2.686.345-9.16-.396-10.997-.874-.685-.656-1.146-1.608-1.62-2.35-1.562-2.144-2.3-3.137-3.728-3.644-.348-.103-.646-.237-.963-.227-1.257.15-2.236.947-3.185 1.487-2.282-11.11-2.423-16.645-1.536-21.387 1.319-2.253 2.72-3.973 4.18-5.31-.144.41-.225.565-.336.84.267-.524.7-1.154.7-1.51-1.518 1.582-3.062 3.073-4.399 5.257.432-2.039 1.048-3.975 1.758-6.201-1.84 5.358-4.465 10.369-.612 28.443-.37.191-.74.331-1.125.365-1.85.097-3.551-.725-5.615-.268-.413.187-1.424.683-2.29 2.297l-1.237-.283c-.17-.58-.204-1.16-.277-1.74-.237.702-.53 1.183-.872 1.463-.117-1.658-.202-2.623-.593-3.721-.396 1.234-.792 2.8-1.188 3.563l-4.234-.04c.601-1.38.474-3.199.594-4.869-.383 1.137-.78 2.22-1.291 2.838 2.288-9.168 2.745-18.744 3.953-28.152 14.295-5.702 29.07-10.815 47.986-10.83zM92.422 37.27c-.449 2.821-.686 4.85-2.214 6.453.449-5.396-.574-7.873-1.268-9.5-.348 4.066-.177 7.707-2.73 13.576-.07-.022-.115-.34-.159-.672-.046.49-.106.985 0 1.424 1.794-3.024 2.516-7.216 3.127-13.457 1.21 3.337 1.057 6.946.594 10.172 1.54-1.956 2.42-4.529 2.65-7.996zm-1.761-15.551c2.882.235 5.86.585 8.943 1.066-1.584 2.21-3.958 3.891-5.72 5.21-.976-2.843-2.11-4.871-3.223-6.276zm-24.734 8.348c-1.762 4.829-4.496 9.657-3.705 14.486.208-1.247.038-2.272 1.07-3.998-.178 4.199.148 5.103.514 7.007.695-3.015 1.888-5.837 3.404-8.628-1.233 2.253-2.505 4.536-3.443 7.6-.596-2.333-.268-4.74-.278-6.81-.448.534-.842 1.155-1.068 2.06.167-3.906 2.3-7.812 3.506-11.718zm0 0c-1.88 2.84-2.932 4.418-4.248 7.351-.202-.21-.405-.407-.612-.593.723-2.044 1.602-3.647 2.426-5.475-1.067 1.786-1.94 3.566-2.58 5.34a8.072 8.072 0 00-1.314-.938c1.188-1.5 2.477-2.923 3.894-4.402-1.449 1.492-2.762 2.87-3.98 4.353-.82-.445-1.69-.691-2.627-.681.15-.376.305-.753.463-1.137-.163.36-.338.74-.516 1.139-.45.009-.913.077-1.395.209l.33-.457-.34.459c-1.95.537-4.186 2.131-6.83 5.168.491-2.016 1.141-3.597 1.823-5.662-.96 2.273-1.528 4.116-1.914 5.767-.254.294-.51.598-.772.918.254-.284.503-.555.748-.816-.334 1.45-.53 2.757-.73 4.082.43-.774.889-1.508 1.213-2.422-.034 1.533.139 2.962.7 4.197 1.046-4.137 3.13-7.538 5.442-10.777a6.02 6.02 0 011.557-.283c-.953 2.18-1.968 4.934-2.137 8.412-2.309.313-4.532 1.994-5.347 6.582l1.576 1.451c-.03-.105-.043-.203-.069-.306-.668-6.502 3.932-7.889 8.223-6.409a13.31 13.31 0 011.486.907c-.031 1.776.109 3.159-.875 5.33-.611 1.51-2.38 2.294-3.81 2.4-2.143.135-4.067-1.448-4.526-2.611.699 1.774 2.589 3.049 4.553 2.89 1.973-.159 5.087-.896 4.926-7.082l-.018-1.043.334.157c-.638-.947-3.51-2.583-6.3-2.278 1.415-3.083 2.956-5.54 4.718-7.8.487.234.967.53 1.446.88-.78 2.217-1.198 4.421-1.186 6.614.459-2.024 1.202-4.013 2.074-5.906.176.15.353.306.53.468-.163-.19-.327-.373-.493-.548 1.28-2.76 2.826-5.308 4.157-7.448zm-8.578 3.818c.323-.714.607-1.357.799-1.93-.27.651-.538 1.295-.8 1.93zm.799-1.93l.292-.755-.544.658.363-.393zm9.062 6.979c.139-.17.272-.371.436-.416-.21 1.94-.345 4.277-.178 6.355.364-1.883.486-4.906 2.07-8.117-.45 3.131-.963 6.186-.203 9.238.284 1.142.748 2.6 1.459 3.745 1.962-1.767 2.969-4.226 3.371-6.123.3.55.24 1.611.356 2.377 1.656-2.667 2.652-6.736 2.742-12.162.485 1.454.904 3.094 1.246 4.728-.35.233-.697.472-1.047.691.352-.215.703-.442 1.055-.66a52.17 52.17 0 01.89 5.899c-2.412-.555-4.223.85-6.086 3.545.388-.318.708-.567 1.077-.866-.741 1.569-.974 3.928-.58 5.047.569 1.24 1.84 1.819 3.05 1.703 2.2-.197 3.866-2.219 4.246-5.072-.522 2.01-1.753 4.914-4.941 4.844a2.777 2.777 0 01-1.203-.385c-1.678-1.177-1.266-3.727-.697-5.502.136-.352.281-.645.464-.908.48-.387.997-.812 1.428-1.15 3.481-1.88 6.633.704 6.082 4.81-.09.674-.494.993-.785 1.762l1.584-1.381c.159-2.796-.611-4.531-1.57-5.483.664-2.246 1.038-4.93 1.326-7.74.29.133.585.318.885.565.394 3.226.526 7.713-.041 11.018.86-.87 1.51-2.084 1.959-3.625.056.263.112.348.168.517-.051-.355-.058-.753-.07-1.146-.326 1.377-1.02 2.728-1.694 3.232.163-3.162.237-6.354-.12-9.82.848.77 1.735 2.037 2.677 4.002-.947-2.244-1.848-3.626-2.72-4.414a44.694 44.694 0 00-1.081-5.957c.035 1.62.01 3.427-.098 5.224-1.392-.491-2.72.297-4.04 1.176-.451-2.254-1.043-4.678-1.759-6.873.557 5.192-.485 11.57-2.297 13.875.075-1.438-.093-1.868-.474-2.455-.239 2.551-2.307 5.836-3.272 6.266-.518-.779-.952-2.198-1.236-3.051-.813-2.447-.616-5.467.197-10.555-.95 1.876-1.585 4.15-2.18 6.383-.093-1.093.131-2.771.253-4.227-.272.325-.453.71-.649 1.086zm15.854-3.94c.21.652.408 1.656.57 2.866a3.449 3.449 0 00-.797-.487c.08-.787.154-1.583.227-2.379zm-26.137.409c.828.005 1.612.202 2.377.556-1.652 2.047-3.132 4.311-4.54 7.346-.151-2.102.758-4.856 1.968-7.9.065-.002.13-.002.195-.002zm-1.84.294c-2.334 3.167-4.514 6.382-5.308 10.043-.641-.76-.6-2.446-.756-3.863-.313.706-.582 1.456-1.03 2.027.144-1.307.343-2.4.579-3.388 2.573-2.731 4.673-4.232 6.515-4.819zm5.918 1.307c.21.16.422.33.633.508a87.169 87.169 0 00-1.76 4.31c.267-1.923.662-3.469 1.127-4.818zm20.506.43v.002h.096c.34.006.687.07 1.039.209-.19 2.875-.596 5.693-1.299 7.685-.528-.473-1.153-.72-1.804-.818-.139-1.517-.44-3.642-.909-5.994.943-.576 1.89-1.07 2.877-1.084zM66.426 58.397c-.925.005-1.852.104-2.806.271-.24.056-.333.078-.356.324-.05.695.454 1.46.723 2.008l-.059-.138c-.254-.659-.463-1.173-.457-1.56.013-.313.132-.307.322-.339 1.446-.216 2.885-.509 5.198-.035.104.032.172.094.18.24.031.653-.197 1.19-.434 1.774.287-.57.619-1.207.719-1.854h.002c.022-.077.173-.27.271-.342-1.208-.272-2.192-.31-3.303-.35zM51.35 59.412c.512-.006 1.01.243 1.397.518 1.183.859 2.574 2.617 3.97 4.793.357.636.778 1.294 1.229 1.736 1.07 1.044 2.595 2.055 3.027 3.17.36.943-1.668 4.395-2.959 6.32.324-.992.167-2.057-.754-3.127-.535-.691-1.322-1.218-2.265-1.59-1.169-.44-2.597-.644-3.684-.679-.535-.015-1.08.001-1.627.045-1.411-7.973.44-9.059 2.46-9.05 1.138.134 2.218 1.038 2.733 2.9.519 1.873.31 3.172.118 6.785.309-2.16.786-4.503.006-7.115-.816-2.324-1.992-2.786-3.096-2.786-.31 0-.612.037-.9.078-1.806.344-2.8 2.948-1.325 9.188-.57.046-1.141.121-1.705.228-.441.084-.865.19-1.267.313.074-6.238-1.866-8.755-3.7-8.615-1.322.16-2.858.506-3.144 3.984-.072 2.73 1.427 5.787 2.492 7.361-1.929-3.285-2.263-5.304-2.252-7.25.011-1.931.778-3.238 1.842-3.666 1.948-.535 4.397-.28 4.76 8.186-.413.127-.803.273-1.172.437.289-.26.323-.844.197-1.28a.573.573 0 11-.525-.805c-.232-.221-.497-.254-.72-.16-.488.226-.478 1.044-.302 1.515.168.449.595.935 1.07.86-.947.458-1.737 1.04-2.341 1.702-.634.696-1.066 1.482-1.268 2.317-.254.847-.262 1.573-.084 2.191-1.999-1.293-5.082-2.586-5.27-3.879-.174-1.18.792-2.765 1.464-4.195.226-.38.211-.628.222-1.023.112-3.887 1.606-6.854 3.213-7.63.785-.288 2.85-.03 4.234.16 2.546.458 3.561-1.121 5.413-1.837a1.43 1.43 0 01.513-.1zm25.432 3.782l-.062.97c-.297.124-.557.241-.84.328l-1.338-.207c.75-.331 1.494-.695 2.24-1.091zm3.758.36c1.175-.008 2.446.292 3.492.75.74.33 1.443.764 2.1 1.306 1.646 1.356 3.015 3.34 4.082 5.547 2.134 4.414 3.057 9.736 2.789 12.559v.01c-.26 4.211-2.023 8.251-4.584 12.083a70.148 70.148 0 01-1.037 1.86c-3.159 4.27-7.193 8.25-11.076 11.9-2.43 2.122-5.215 3.99-7.774 5.46-.901.475-1.914.911-2.748 1.323-3.013 1.487-6.72 2.518-10.113 2.666-3.604.157-6.823-.683-8.562-2.93-.7-.919-1.24-2.37-1.133-3.504.168-1.555 1.034-3.04 2.201-4.214 1.048-1.056 2.338-1.855 3.532-2.24.897-.247 2.47-.484 3.582-.585 2.062-.189 4.21-.417 8.61-2.634h.003c1.43-.765 4.208-3.114 6.496-5.61 2.288-2.496 4.55-5.373 5.867-7.664 1.71-2.975 3.104-5.684 3.416-8.814.126-.876-.134-2.547-.81-4.323-.614-1.612-1.573-3.305-2.913-4.533a2.403 2.403 0 00-.714-.506c-.554-.25-1.11-.382-1.64-.506l-1.09-.691c.418-1.538.856-2.998 1.679-3.963.432-.49.982-.95 1.695-1.342.742-.352 1.566-.921 3.857-1.348.257-.036.522-.054.793-.056zm-6.037.96l.629.209a6.61 6.61 0 00-1.385 1.185c-1.144 1.3-1.535 2.814-1.77 4.014l-3.412-2.166c-.119-.07-.186-.099-.23-.096-.045.004-.067.04-.102.102l-.052.113a4.943 4.943 0 01.14-1.295c2.195-.433 4.152-1.192 6.176-2.056zm-16.277 1.375l2.05.236c.16.562.088 1.039.057 1.53-.869-.55-1.596-1.154-2.107-1.766zm2.422.139c2.713.273 5.136.421 7.209.375-.093.764.018 1.393.039 2.082l-1.572 3.369 1.894-3.6c.067-.177.12-.09.256-.006l5.71 3.522c.163.08.127.1.052.248l-.998 1.959c-.054.115-.047.12-.137.035l-4.53-4.266c-.18-.152-.21-.184-.298-.074l-1.908 2.375c-.077.07-.069.126-.069.225v.644l.045-.601c-.006-.1.02-.136.084-.205l1.77-1.946c.176-.21.135-.167.32.014l4 3.902-3.93 9.287-9.129-9.484 9.024 9.734-.518 1.221c-.167.322-.151.603-.146.953l.187 13.748c-1.455 1.407-3.257 2.74-4.176 3.23-4.385 2.21-6.501 2.43-8.552 2.618-1.146.021-2.297.276-3.264.328-.623-.169-1.323-.491-1.461-.938-.148-.475.344-1.018 1.107-1.207-.072.011-.154.03-.242.053-.46-.559-.219-3.955-.959-5.38a1.726 1.726 0 01-.146-.368c-.099-.627.021-1.035.146-1.44.027-.1-.048-.203-.16-.25-.165-.046-.313-.08-.44-.214-.05-.058-.228-.15-.091-.373.877-1.286 1.544-2.633 2.681-3.844l-.464.055c-.385-.413.279-2.206.42-3.18a14.498 14.498 0 001.583-.574c.83-.364 1.558-.914 1.913-1.998.063-.248.063-.47.017-.664.061.007 1.013.115 1.615.328 1.034.35 1.906.325 2.866-.106 1.511-.682 2.337-2.471 2.648-3.863.216-1.66-.524-3.432-2.48-4.82 2.097 1.712 2.517 3.443 2.22 4.879-.286 1.327-1.102 2.944-2.642 3.597-.647.282-1.386.406-2.05.186-.788-.23-2.224-.55-2.349-.578a.949.949 0 00-.89-.377c-1.61.237-2.767.671-3.518.832-.656.086-2.284-.075-3.28.285a.848.848 0 00-.599.588c-.047.206-.065.41-.059.607-.35-.006-.864.218-1.402.375a6.36 6.36 0 01-2.988.172c-.513-.106-1.144-.318-1.647-.627-1.396-.86-2.192-2.077-2.242-3.738-.152-2.133 1.494-4.27 2.59-4.82.49 1.084 1.6 1.793 2.926 2.23.189.501.331 1.002.603 1.465.136.23.394.588.614.71 0 0-.144-.51-.178-.773a1.873 1.873 0 01-.024-.39c.02-.287.116-.51.276-.68 1.739.337 3.609.308 4.863.094 1.047-.179 2.402-.673 3.664-1.387v-.002h.002c.243-.152.838-.512 1.053-.674.681.33.771.863.941 1.625.038-.068.07-.143.096-.22.071-.173.095-.33.113-.59.042-.537-.034-1.141-.095-1.645.337-.367.781-.836.906-1.054l.002-.002c.226-.327.405-.666.525-1.014l.22-.32c.013.005.948.45 1.759.9-.75-.43-1.69-.946-1.717-.961a90.022 90.022 0 002.98-4.648l4.696 1.101-4.582-1.299c.197-.41.23-1.039.129-1.476l4.453 2.775c-1.59-1.362-3.776-2.341-5.281-3.887.015-.81.038-1.544-.004-2.164zm-9.39 2.01c-.703.08-.785 1.003-.74 1.415.067.5.401 1.104.925 1.08.492-.022.737-.723.709-1.269a.574.574 0 11-.332-.9c-.12-.146-.328-.32-.563-.327zm-13.813 1.011c-.267.772-.697 1.552-.967 2.211-.326-.014-.858-.038-.943-.04zm13.438 1.52c.141-.001.285 0 .432.003 1.872.104 3.822.447 5.232 1.555 4.39 4.212-2.48 7.954-5.875 8.526-3.353.564-10.966.239-8.535-6.053.18-.475.486-.841.795-1.18 1.473-1.464 3.113-2.194 5.049-2.574 1.045-.157 1.913-.27 2.902-.277zm23.14.648c.363.092.73.203 1.095.361.304.109.548.33.764.53 1.3 1.203 2.24 2.864 2.843 4.449.67 1.757.921 3.427.803 4.242v.004c-.129 1.297-.446 2.522-.896 3.727l-.102-.225c-.029-.088-.076-.055-.135-.033l-6.957 2.521c-.227.056-.203.103-.2.32l.095 8.909c-.347.397-.696.789-1.047 1.172a55.498 55.498 0 01-2.12 2.191l-.036-13.521c-.007-.285-.024-.602.074-.84l4.451-10.81.51.497c.131.147.125.116.209-.045l1.389-2.648c.123-.242.09-.272-.028-.348zm-37.558.084c-.26.647-.48 1.313-.603 2.021-.092.608-.195.874.17 1.344.938 1.2 3.55 2.201 5.54 3.276.034.11.073.218.118.322-.682.17-2.623 2.025-2.932 4.842-.055 1.68.735 2.997 2.264 3.994.937.61 2.01.662 3.25.777.358-.003.655-.029.951-.092.014 1.367.092 3.447-.309 4.95-.181.765-1.69 2.983-2.546 4.476.956-1.474 2.278-2.948 2.771-4.422.193-.573.277-1.346.29-2.154.001-.163.053-.588.116-.78l.137.173c.209.291.347.635.443.937.53 1.662.933 3.216.694 3.186-.17-.02-.354-.28-.56-.522.18.421.473.839.644.897.863.123-1.334-5.54-1.678-6.74.301-.065.6-.167.959-.32.3-.086.68-.205 1.256-.167.107.53.418.978.904 1.234.493.27 1.043.402 1.594.444.79.046 1.643-.108 2.451-.344-.327 1.2-.9 2.436-.756 3.568-.966 1.215-1.683 2.472-2.435 3.723.255.163.53.35.898.467.074.022.109.123.09.225a5.717 5.717 0 00-.107 1.5c.023.276.15.455.232.666.196.513.322 1.415.418 2.312-1.846-.155-4.13-1.677-4.59-2.889l.813-.017 1.86-2.059-2.06 1.703-3.443.078c-2.036 1.355-5.578 3.744-6.926 3.682-2.74-.562-5.601-2.748-7.56-4.03-.59-.292-.676-.526-.684-1.105-.023-1.676-.045-3.322-.068-5.275.528-1.826 1.85-3.354 3.205-4.87.73-3.357 2.038-7.482 2.178-10.052.02-.432-.209-.816-.906-1.59-.29-.31-.165-.754-.165-.754.918-2.204 1.983-2.409 4.082-2.615zm29.99 1.861a.463.463 0 00-.222.053c-.382.186-.197 1.096.068 1.59.264.493.896 1.23 1.055 2.36.159 1.129-.012 1.884.136 2.077.223.31.48.747.85 1.905.04-.669-.47-1.52-.709-1.993-.17-.278.05-.742-.086-1.916-.136-1.173-1.312-2.627-1.322-3.263-.01-.637.578-.582.578-.582s-.116-.222-.348-.23zM52.516 74.42c-.595.014-1.181.408-1.125 1.256-.05-1.118 1.341-1.694 2.205-.69-.193-.377-.639-.576-1.08-.566zm-6.011 1.035c-.595.014-1.182.409-1.125 1.256-.05-1.117 1.34-1.694 2.205-.69-.194-.377-.64-.576-1.08-.566zm27.035 1.823c-.348-.02-.613.684-.288.86l4.04 2.02-3.94-2.197c-.212-.112.023-.54.258-.435l4.275 2.394-4.236-2.611a.274.274 0 00-.11-.031zm-17.023.828c.187 1.16.146 1.849-.057 2.351-.063-.46-.174-.813-.328-1.07a1.1 1.1 0 00-.584-.498c.344-.246.67-.507.969-.783zm-.122 2.236l-.003.002h.003zm-11.719.217c.388.125.794.227 1.207.308-.156.175-.253.4-.273.686-.02.299.044.665.197 1.103-.413-.358-.767-.96-1.13-2.097zm33.664 3.994c.04 0 .064.03.082.078l.09.205c-.522 1.326-1.2 2.634-1.963 3.988l-3.394 1.229c-.168-1.67-.466-2.495-.83-2.488a.313.313 0 00-.16.054c.471.237.747 1.306.687 2.524-.006.138.028.202.194.14l3.25-1.011-.165.287c-.671 1.169-1.595 2.497-2.644 3.85a10.602 10.602 0 00-.332-2.247c.078.922.219 1.914.072 2.578-.601.763-1.239 1.53-1.89 2.278l.132-8.715c-.016-.17.026-.167.174-.223l6.655-2.517a.11.11 0 01.042-.01zm-23.332.156c.569-.008.997.588.827 1.25a2.782 2.782 0 01-.584 1.113c-.508.59-1.318 1.047-2.508 1.319-1.153.298-2.252.47-3.14.375-1.211-.246-2.16-.936-2.005-2.156.053-.375.267-.68.71-.84.834-.316 2.267-.025 3.302-.281.875-.217 1.743-.531 2.654-.69.264-.039.503-.086.744-.09zm4.932 3.313c-1.828.008-3.38.084-4.217.336-.102.015-.133.068-.174.148-.486.954-.636 1.738-.502 2.861.015.183.016.183.182.18 4.393-.083 7.513-.216 11.266-.478.177-.008.196.008.215-.159.096-.837.01-1.723-.576-2.742a.17.17 0 00-.13-.074c-1.742-.014-3.63-.066-5.341-.072-.244-.001-.486-.002-.723 0zm2.063.19c2.087 0 3.916.068 4.027.14.276.625.634 1.133.51 2.338-.004.117-.018.135-.123.14-3.643.169-5.903.539-10.957.424-.198.01-.199-.017-.229-.193-.165-.977.31-1.826.545-2.385.432-.355 3.542-.466 6.227-.465zm3.869 3.345c-.195 1.5-.33 4.279.117 5.703.13.418.201.81.119 1.244-.303.732-5.931.795-9.78.639-.107-.003-.12.023-.158-.069-.255-.734.187-4.382-.195-6.033.187 2.204-.287 5.87-.033 6.41.031.07.086.065.148.069 3.272.203 6.552.383 10.215-.54.102-.039.168-.111.174-.208.035-.827-.366-1.672-.433-2.286-.227-2.073-.085-3.222-.174-4.93zm-6.15 1.428a140.67 140.67 0 00-.14 5.29c.195-1.566.383-3.14.14-5.29zm2.378.224c-.136 1.7-.222 3.415.084 5.262.194-1.754.092-3.508-.084-5.262zm31.717 3.194c.373-.004.684.036.89.136 1.185.728 2.35 1.483 2.907 2.889.074.216-.015.609-.246.62a1.048 1.048 0 01-.533-.128c-1.043-.528-1.308-1.497-2.366-2.484.778 1.214 1.314 1.642 1.395 3.241 0 .066-.056.096-.125.102-1.207.007-2.478-2.492-4.094-2.843-.423-.107-.969-.159-1.562-.176-.123-.003-.248-.004-.373-.006.04-.356.114-.429.267-.506 1.046-.42 2.72-.834 3.84-.846zm-5.308.314h.058c.438.007.897.152 1.377.434l-.066.027c-.126.08-.193.367-.172.576h-.319c-.659.007-1.332.044-1.931.088.24-.324.477-.65.707-.977.1-.121.214-.146.346-.148zm.937 1.076a21.675 21.675 0 01.635.006c.842.024 1.59.121 2.011.338l.018.008c.02.01.037.02.055.031 1.059.616 2.009 1.997 3.08 2.66.524.233.77.07.73-.346-.077-.795-.142-1.047-.449-1.539.551.527.966 1.034 1.688 1.182 4.278 3.58 7.327 7.445 7.197 11.686-.322 5.787-5.833 9.734-10.932 10.949-6.343 1.03-13.774-4.523-18.2-3.44-1.4.276-5.113 1.084-5.43 3.56-.115.905.402 1.895.638 2.306.236.41.938 1.036.238.634-.962-.505-1.502-1.333-1.765-2.386-.33-2.72 1.21-6.611 3.838-8.194.951-.517 4.25-2.147 8.076-1.545 2.97.705 6.082 1.882 8.906 2.098 1.955.234 6.151-1.661 6.332-4.115.081-1.497-3.345-3.85-6.61-3.879-.991.043-2.27.032-2.656.057a3.595 3.595 0 00-.205-.428l1.94-1.502c.15-.11.212-.196.168-.473-.24-1.515-.399-3.542-.815-3.912-.72-.642-1.663-.754-2.607-1.027a55.77 55.77 0 002.098-2.639 31.176 31.176 0 012.021-.09zm-4.223 2.854c.368.075 1.745.449 2.096.668.677.356.625.582.707.822.185.739.392 2.36.541 3.234.024.173-.02.246-.105.317l-3.706 2.898c-.222.155-.233.119-.24-.012-.047-1.054-.08-2.208-.224-2.863a.412.412 0 00-.063-.17c-.237-.317-1.22-.584-1.724-.771l.056.138c.493.239 1.412.442 1.54.84.208.702.198 1.783.202 2.81.005.355.156.427.336.298l1.825-1.407c.252.85.46 1.796-.088 2.555-1.024 1.13-3.7 2.412-6.149 3.207-2.806-.053-5.829.599-8.142 2.307-2.049.635-3.873 1.176-4.91 1.078-.919-.173.294-.787.55-.928 2.8-1.54 5.962-3.6 8.688-5.98l.002-.002h.002c2.999-2.819 6.093-5.839 8.806-9.04zm-2.826 5.656c-.168 1.6-.08 2.976-.08 4.431.04-1.453.158-2.765.08-4.431zm6.85 1.7c2.155-.025 6.625 2.188 6.47 3.84-.182 1.38-2.88 3.497-5.859 3.563-1.671.075-5.912-1.3-8.805-2.095 2.052-.737 4.17-1.587 5.6-2.99.49-.425.565-1.352.271-2.243.8-.045 1.6-.062 2.323-.076z"/></svg>
