<svg xmlns="http://www.w3.org/2000/svg" viewBox="0 0 128 128"><style type="text/css">.st0{fill:#F6B214;}.st1{fill:#F17321;}.st2{fill:#EF5E21;}.st3{fill:#EA8220;}.st4{fill:#F8EF23;}.st5{fill:#F8C713;}.st6{fill:#EC4822;}</style><path class="st0" d="M 15.7,64 64.1,15.6 0,0  z"/><path class="st1" d="M 64,15.7 112.4,64.1 128,0  z"/><path class="st2" d="M 112.3,64 63.9,112.4 128,128  z"/><path class="st0" d="M 64,112.3 15.6,63.9 0,128  z"/><path class="st3" d="M 15.6,63.9 64,15.7 112.3,64 64,112.3  z"/><path class="st4" d="M 15.6,63.9 0,32 0,0  z"/><path class="st4" d="M 0,128 0,96 15.6,63.9  z"/><path class="st5" d="M 0,0 32,0 64,15.7  z"/><path class="st5" d="M 128,0 64,15.7 96,0  z"/><path class="st6" d="M 112.3,64 128,0 128,32  z"/><path class="st6" d="M 128,128 128,96 112.3,64  z"/><path class="st2" d="M 0,128 64,112.3 32,128  z"/><path class="st3" d="M 128,128 96,128 64,112.3  z"/></svg>
