<svg xmlns="http://www.w3.org/2000/svg" viewBox="0 0 128 128"><linearGradient id="grafana-original-a" gradientUnits="userSpaceOnUse" x1="45.842" y1="89.57" x2="45.842" y2="8.802" gradientTransform="translate(-.23 28.462) scale(1.4011)"><stop offset="0" stop-color="#fcee1f"/><stop offset="1" stop-color="#f15b2a"/></linearGradient><path fill="url(#grafana-original-a)" d="M120.8 56.9c-.2-2.1-.6-4.5-1.2-7.2s-1.8-5.5-3.2-8.6c-1.5-3-3.4-6.2-5.9-9.1-1-1.2-2.1-2.3-3.2-3.5 1.8-6.9-2.1-13-2.1-13-6.7-.4-10.9 2.1-12.4 3.2-.2-.1-.6-.2-.8-.3-1.1-.4-2.3-.9-3.5-1.3-1.2-.3-2.4-.8-3.6-1-1.2-.3-2.5-.6-3.9-.8-.2 0-.4-.1-.7-.1C77.5 6 69.1 2 69.1 2c-9.6 6.2-11.4 14.4-11.4 14.4s0 .2-.1.4c-.6.1-1 .3-1.5.4-.7.2-1.4.4-2.1.8l-2.1.9c-1.4.7-2.8 1.3-4.2 2.1-1.3.8-2.6 1.5-3.9 2.4-.2-.1-.3-.2-.3-.2-12.9-5-24.3 1-24.3 1-1 13.8 5.2 22.3 6.4 23.9-.3.9-.6 1.7-.9 2.5-1 3.1-1.7 6.3-2.1 9.6-.1.4-.1 1-.2 1.4C10.5 67.5 7 79.6 7 79.6 16.9 91 28.5 91.7 28.5 91.7c1.4 2.6 3.2 5.2 5.1 7.5.8 1 1.7 1.9 2.5 2.9-3.6 10.3.6 19 .6 19 11.1.4 18.4-4.8 19.9-6.1 1.1.3 2.2.7 3.3 1 3.4.9 6.9 1.4 10.3 1.5h4.5c5.2 7.5 14.4 8.5 14.4 8.5 6.5-6.9 6.9-13.6 6.9-15.2v-.6c1.3-1 2.6-2 4-3.1 2.6-2.3 4.8-5.1 6.8-7.9.2-.2.3-.6.6-.8 7.4.4 12.5-4.6 12.5-4.6-1.2-7.7-5.6-11.4-6.5-12.1l-.1-.1-.1-.1-.1-.1c0-.4.1-.9.1-1.4.1-.9.1-1.7.1-2.5v-3.3c0-.2 0-.4-.1-.7l-.1-.7-.1-.7c-.1-.9-.3-1.7-.4-2.5-.8-3.3-2.1-6.5-3.7-9.2-1.8-2.9-3.9-5.3-6.3-7.5-2.4-2.1-5.1-3.9-7.9-5.1-2.9-1.3-5.7-2.1-8.7-2.4-1.4-.2-3-.2-4.4-.2h-2.3c-.8.1-1.5.2-2.2.3-3 .6-5.7 1.7-8.1 3.1-2.4 1.4-4.5 3.3-6.3 5.4-1.8 2.1-3.1 4.3-4 6.7-.9 2.3-1.4 4.8-1.5 7.2v2.6c0 .3 0 .6.1.9.1 1.2.3 2.3.7 3.4.7 2.2 1.7 4.2 3 5.9s2.8 3.1 4.4 4.2c1.7 1.1 3.3 1.9 5.1 2.4s3.4.8 5 .7h2.3c.2 0 .4-.1.6-.1.2 0 .3-.1.6-.1.3-.1.8-.2 1.1-.3.7-.2 1.3-.6 2-.8.7-.3 1.2-.7 1.7-1 .1-.1.3-.2.4-.3.6-.4.7-1.2.2-1.8-.4-.4-1.1-.6-1.7-.3-.1.1-.2.1-.4.2-.4.2-1 .4-1.4.6-.6.1-1.1.3-1.7.4-.3 0-.6.1-.9.1h-1.8s-.1 0 0 0h-.7c-.1 0-.3 0-.4-.1-1.2-.2-2.5-.6-3.7-1.1-1.2-.6-2.4-1.3-3.4-2.3-1.1-1-2-2.1-2.8-3.4-.8-1.3-1.2-2.8-1.4-4.2-.1-.8-.2-1.5-.1-2.3v-.7c0 .1 0 0 0 0V70c0-.4.1-.8.2-1.2.6-3.3 2.2-6.5 4.7-8.9.7-.7 1.3-1.2 2.1-1.7.8-.6 1.5-1 2.3-1.3.8-.3 1.7-.7 2.5-.9.9-.2 1.8-.4 2.6-.4.4 0 .9-.1 1.3-.1h.8c.1 0 0 0 0 0h.4c1 .1 2 .2 2.9.4 1.9.4 3.7 1.1 5.5 2.1 3.5 2 6.5 5 8.3 8.6.9 1.8 1.5 3.7 1.9 5.8.1.6.1 1 .2 1.5v2.7c0 .6-.1 1.1-.1 1.7-.1.6-.1 1.1-.2 1.7s-.2 1.1-.3 1.7c-.2 1.1-.7 2.1-1 3.2-.8 2.1-1.9 4.1-3.2 5.8-2.6 3.6-6.3 6.6-10.3 8.5-2.1.9-4.2 1.7-6.4 2-1.1.2-2.2.3-3.3.3h-1.6c.1 0 0 0 0 0h-.1c-.6 0-1.2 0-1.8-.1-2.4-.2-4.7-.7-7-1.3-2.3-.7-4.5-1.5-6.6-2.6-4.2-2.2-7.9-5.4-10.9-9-1.4-1.9-2.8-3.9-3.9-5.9s-1.9-4.3-2.5-6.5c-.7-2.2-1-4.5-1.1-6.8v-3.5c0-1.1.1-2.3.3-3.5.1-1.2.3-2.3.6-3.5.2-1.2.6-2.3.9-3.5.7-2.3 1.4-4.5 2.4-6.6 2-4.2 4.5-7.9 7.5-10.9.8-.8 1.5-1.4 2.4-2.1.3-.3 1.1-1 2-1.5s1.8-1.1 2.8-1.5c.4-.2.9-.4 1.4-.7.2-.1.4-.2.8-.3.2-.1.4-.2.8-.3 1-.4 2-.8 3-1.1.2-.1.6-.1.8-.2.2-.1.6-.1.8-.2.6-.1 1-.2 1.5-.4.2-.1.6-.1.8-.2.2 0 .6-.1.8-.1.2 0 .6-.1.8-.1l.4-.1.4-.1c.2 0 .6-.1.8-.1.3 0 .6-.1.9-.1.2 0 .7-.1.9-.1.2 0 .3 0 .6-.1h.7c.3 0 .6 0 .9-.1h.4s.1 0 0 0h4.1c2 .1 4 .3 5.8.7 3.7.7 7.4 1.9 10.6 3.5 3.2 1.5 6.2 3.5 8.6 5.6.1.1.3.2.4.4.1.1.3.2.4.4.3.2.6.6.9.8.3.2.6.6.9.8.2.3.6.6.8.9 1.1 1.1 2.1 2.3 3 3.4 1.8 2.3 3.2 4.6 4.3 6.8.1.1.1.2.2.4.1.1.1.2.2.4s.2.6.4.8c.1.2.2.6.3.8.1.2.2.6.3.8.4 1 .8 2 1.1 3 .6 1.5.9 2.9 1.2 4 .1.4.6.8 1 .8.6 0 .9-.4.9-1-.3-1.7-.3-3.1-.4-4.8z"/></svg>
