<svg xmlns="http://www.w3.org/2000/svg" viewBox="0 0 128 128"><linearGradient id="a" x1="45.842" x2="45.842" y1="65.063" y2="2.545" gradientTransform="translate(-2.353 27.316) scale(1.4463)" gradientUnits="userSpaceOnUse"><stop offset="0" stop-color="#fcee1f"/><stop offset="1" stop-color="#f15b2a"/></linearGradient><path fill="#565656" d="M26.632 115.613c-.31 6.916-5.78 12.387-12.697 12.387-7.225 0-12.593-5.78-12.593-12.903s5.78-12.903 12.903-12.903c3.2 0 6.297 1.445 8.98 3.819l-2.064 2.58c-2.064-1.754-4.438-2.993-6.916-2.993-5.161 0-9.497 4.232-9.497 9.497 0 5.368 4.026 9.497 9.187 9.497 4.542 0 8.155-3.304 8.981-7.742H12.49v-3.097h14.142zm11.871-1.755h-1.961c-2.065 0-3.82 1.755-3.82 3.82v10.012h-3.406v-17.238h2.787v1.445c.93-.93 2.374-1.445 4.026-1.445h3.716zm18.89 13.832H54.4v-2.167c-2.271 2.167-5.78 3.303-9.393 1.651-2.684-1.135-4.646-3.613-5.162-6.503-1.032-5.574 3.303-10.426 8.671-10.426 2.271 0 4.439.93 5.884 2.478v-2.168h2.994zm-3.51-7.226c.827-3.51-1.857-6.71-5.264-6.71-2.993 0-5.367 2.478-5.367 5.369 0 3.303 2.89 5.883 6.296 5.367 1.962-.31 3.82-2.064 4.336-4.026zm10.324-10.838v.929h5.47v2.993h-5.47v14.142h-3.304v-18.064c0-3.82 2.684-5.987 6.194-5.987h4.129l-1.445 3.303h-2.684c-1.652 0-2.89 1.239-2.89 2.684zm23.741 18.064h-2.89v-2.167c-2.271 2.167-5.78 3.303-9.394 1.651-2.684-1.135-4.645-3.613-5.16-6.503-1.033-5.574 3.302-10.426 8.67-10.426 2.271 0 4.439.93 5.884 2.478v-2.168h2.994zm-3.51-7.226c.827-3.51-1.857-6.71-5.264-6.71-2.993 0-5.367 2.478-5.367 5.369 0 3.303 2.89 5.883 6.296 5.367 2.168-.31 3.82-2.064 4.336-4.026zm21.885-2.787v10.116h-3.407v-10.219c0-2.064-1.755-3.82-3.82-3.82a3.81 3.81 0 0 0-3.819 3.82v10.22h-3.406v-17.24h2.787V112a6.769 6.769 0 0 1 4.542-1.755c3.923.103 7.123 3.303 7.123 7.432zm20.232 10.013h-2.89v-2.167c-2.272 2.167-5.781 3.303-9.394 1.651-2.684-1.135-4.645-3.613-5.161-6.503-1.033-5.574 3.303-10.426 8.67-10.426 2.272 0 4.44.93 5.884 2.478v-2.168h2.994zm-3.51-7.226c.826-3.51-1.858-6.71-5.264-6.71-2.994 0-5.368 2.478-5.368 5.369 0 3.303 2.89 5.883 6.297 5.367 2.167-.31 3.819-2.064 4.335-4.026z"/><path fill="url(#a)" d="M109.368 43.871c-.207-1.652-.413-3.613-.93-5.678-.515-2.064-1.444-4.438-2.58-6.812-1.239-2.374-2.684-4.955-4.748-7.33-.826-.928-1.652-1.857-2.581-2.786 1.445-5.575-1.652-10.323-1.652-10.323-5.367-.31-8.67 1.652-9.91 2.58l-.619-.31c-.929-.309-1.858-.722-2.787-1.031a30.4 30.4 0 0 0-2.89-.826c-.929-.31-2.065-.413-3.097-.62-.206 0-.31-.103-.516-.103C74.684 3.2 68.078 0 68.078 0c-7.64 4.955-9.188 11.561-9.188 11.561s0 .207-.103.31c-.413.103-.826.31-1.239.31-.516.206-1.135.31-1.651.619-.516.31-1.136.413-1.652.723a49.22 49.22 0 0 0-3.303 1.651c-1.032.62-2.065 1.239-3.097 1.961a1.275 1.275 0 0 1-.31-.206c-10.322-3.922-19.406.826-19.406.826-.826 10.942 4.129 17.858 5.058 19.097-.31.722-.413 1.342-.723 2.064-.825 2.478-1.341 5.058-1.651 7.639-.103.31-.103.826-.207 1.135-9.393 4.646-12.283 14.246-12.283 14.246 7.948 9.187 17.238 9.703 17.238 9.703 1.136 2.064 2.58 4.129 4.026 5.987.62.826 1.342 1.445 2.065 2.27-2.89 8.259.413 15.175.413 15.175 8.877.31 14.658-3.82 15.896-4.852.93.31 1.755.516 2.684.826a38.07 38.07 0 0 0 8.258 1.239h3.51c4.129 5.987 11.561 6.813 11.561 6.813 5.162-5.574 5.574-10.942 5.574-12.18v-.62c1.033-.826 2.065-1.549 3.2-2.478 2.065-1.858 3.82-4.026 5.471-6.296.207-.207.31-.413.413-.62 5.884.31 10.013-3.716 10.013-3.716-.929-6.194-4.438-9.187-5.161-9.703l-.103-.103-.104-.104-.103-.103c0-.31.103-.722.103-1.135.104-.723.104-1.342.104-2.065v-2.58c0-.207 0-.31-.104-.517l-.103-.516-.103-.516c-.103-.722-.31-1.342-.31-2.064a26.107 26.107 0 0 0-2.993-7.433 28.283 28.283 0 0 0-5.058-5.987c-1.962-1.651-4.026-3.097-6.297-4.026a23.949 23.949 0 0 0-6.916-1.96c-1.136-.207-2.374-.207-3.51-.207h-1.755c-.62.103-1.239.206-1.755.31-2.374.412-4.542 1.341-6.503 2.477-1.961 1.135-3.613 2.684-5.058 4.335a16.847 16.847 0 0 0-3.2 5.368 18.704 18.704 0 0 0-1.239 5.677V54.4c0 .31 0 .413.104.723.103.929.31 1.858.516 2.684.516 1.754 1.342 3.303 2.374 4.748 1.032 1.445 2.168 2.477 3.51 3.303 1.342.93 2.684 1.445 4.026 1.961 1.341.516 2.683.62 3.922.516h1.961c.207 0 .31-.103.413-.103.207 0 .31-.103.413-.103l.93-.31 1.547-.619c.517-.31.93-.516 1.342-.826.104-.103.31-.206.31-.31.413-.31.516-.928.207-1.445-.31-.31-.93-.413-1.342-.31 0 .723-.103.723-.31.826-.31.207-.826.31-1.136.413-.412.104-.928.31-1.341.31-.31 0-.413.103-.723.103h-1.342s-.103 0 0 0h-.413c-.103 0-.31 0-.31-.103-.929-.206-2.064-.413-2.993-.929-.93-.413-1.961-1.032-2.684-1.858-.929-.826-1.548-1.652-2.168-2.684-.619-1.032-.929-2.168-1.135-3.303-.103-.62-.207-1.239-.103-1.858v-.516c0 .103 0 0 0 0v-.413c0-.31.103-.62.206-.93.413-2.683 1.755-5.16 3.82-7.122a10.425 10.425 0 0 1 1.651-1.342c.62-.413 1.239-.826 1.858-1.032.62-.31 1.342-.516 2.065-.723a7.709 7.709 0 0 1 2.064-.31c.31 0 .723-.103 1.032-.103h.826c.103 0 0 0 0 0h-.206.31c.825.104 1.548.207 2.27.31 1.446.31 2.994.93 4.44 1.652 2.786 1.548 5.16 3.922 6.605 6.813.723 1.445 1.24 2.993 1.446 4.645.103.413.103.826.206 1.238v2.478c0 .413-.103.929-.103 1.342-.103.413-.103.929-.207 1.342-.103.413-.206.929-.31 1.342-.206.929-.515 1.651-.825 2.58-.62 1.652-1.445 3.304-2.58 4.646-2.065 2.89-5.059 5.264-8.259 6.813-1.651.722-3.303 1.341-5.058 1.548-.929.206-1.755.31-2.684.31h-1.445c.103 0 0 0 0 0h-.103c-.413 0-.929 0-1.445-.104-1.962-.206-3.82-.516-5.678-1.032s-3.613-1.239-5.264-2.064c-3.303-1.755-6.297-4.336-8.671-7.226-1.136-1.445-2.168-3.097-3.097-4.749-.929-1.651-1.445-3.406-2.064-5.16a24.27 24.27 0 0 1-.93-5.472V50.89c0-.929.104-1.858.31-2.787.103-.929.31-1.858.413-2.787.103-.929.413-1.858.723-2.787.516-1.858 1.135-3.613 1.961-5.264 1.548-3.304 3.613-6.297 5.987-8.671.62-.62 1.239-1.136 1.961-1.652.31-.31.93-.826 1.549-1.239.722-.413 1.445-.929 2.167-1.238.31-.207.723-.31 1.136-.517.206-.103.31-.206.62-.31.206-.102.31-.206.619-.309.825-.31 1.548-.62 2.374-.929.206-.103.413-.103.62-.206.206-.104.412-.104.619-.207l1.238-.31c.207-.103.413-.103.62-.206.206 0 .413-.103.62-.103.205 0 .412-.103.618-.103l.31-.104.31-.103c.206 0 .413-.103.62-.103.309 0 .412-.103.722-.103.206 0 .516-.104.722-.104.207 0 .31 0 .413-.103h1.032c.31 0 .413 0 .723-.103h.31s.103 0 0 0h3.303c1.548.103 3.2.31 4.645.516 2.994.516 5.884 1.445 8.465 2.787 2.58 1.239 4.954 2.787 6.813 4.439.103.103.31.206.31.31.102.103.309.206.309.31.31.206.413.412.722.619.31.206.413.413.723.619.206.31.413.413.62.723.928.929 1.651 1.858 2.374 2.683 1.445 1.858 2.58 3.717 3.406 5.471.103.104.103.207.206.31.104.103.104.207.207.31l.31.62.31.618.309.62c.31.826.62 1.548.929 2.374.413 1.239.723 2.271.929 3.2.103.31.413.62.826.62s.722-.31.722-.826c-.206-.517-.206-1.652-.31-2.994z"/></svg>
