<svg xmlns="http://www.w3.org/2000/svg" viewBox="0 0 128 128"><path d="M73.5 15c-6.7 1.398-12.8 4.602-17 8.898C54.398 26.2 52 28 51.3 28c-.698 0-2.8 1.398-4.698 3.102-2.301 2-5.704 3.597-9.602 4.5C26.5 38 18.3 43.398 13.398 51.199c-1.296 2-3.199 4.2-4.296 4.7-1.602.902-1.801.8-1.403-1 .403-1.2 1.102-1.797 2-1.5 1.102.402 1.301-.5 1.102-4.399-.301-5.7-1.301-6.102-5.7-2.398-4.902 4.097-5.5 5.796-3.5 11 1.297 3.398 2.297 4.597 4.297 5 2.5.5 2.602.898 2.801 8C9 77.898 8.9 78.102 5.4 82c-3.098 3.5-3.5 4.398-3 7.398.8 4 7.402 10.602 10.703 10.602 1.796 0 2.097.398 1.597 3-.8 3.602.903 5.5 6.102 7 11 3.102 15.199 2.2 15.199-3.3 0-1.802.7-4.098 1.5-5.098.8-1.102 1.5-3 1.5-4.301 0-2.301 1.398-2.903 4.2-1.801 1 .398 1.3 1.602 1 3.5-.5 3.602 4.6 12.102 8.3 13.8 3.3 1.5 5.102.7 10.3-4.198l4.2-4 7.602.296c10.097.403 10.699-.199 9.796-9.296-.398-3.903-1.296-8.801-2-11-1.898-5.204-1.898-5.204 2.102-1.704 2 1.704 4.602 3.102 5.8 3.102 3.4 0 8.7-3.7 9.802-6.8.898-2.5 1.296-2.7 6.699-2.802C122 76.301 130.199 63.5 127.199 44.5c-1.398-9.2-3.398-13.3-6.8-14.102-2.098-.5-3.2 0-6 3.102L111 37.3l-3-4.1c-1.602-2.302-3.8-4.598-4.898-5.2C102 27.5 99 25.2 96.5 23c-8.3-7.102-15.2-9.5-23-8Zm12.898 4c2.301 1.102 6 3.8 8.403 5.898 2.398 2.204 5.199 4.301 6.3 4.602C102.7 30 107 34.898 107 36.3c0 .302-1 .7-2.2.9-2.5.402-3.698 2.8-1.3 2.8.898 0 1.398.398 1.102.898-.301.5.398 1.204 1.699 1.602 2 .7 1.898.8-1 1.2-1.7.198-3.7 1.1-4.5 2-1.2 1.5-1.102 1.5 1 .402C104 44.898 104.1 45 103.5 47.199c-1.602 4.801-1.5 5.2.102 2 2.398-4.398 4.398-4.199 4.5.5l.097 3.801.903-3c.5-1.7.699-4.7.296-6.7-.5-3.1-.199-3.8 1.801-4.8 1.301-.7 3.5-2.398 5-3.8 1.5-1.4 3.301-2.2 4.2-1.9 2.203.9 4.601 10.098 4.601 18.2 0 5.8-.5 8.102-2.7 12.5-1.6 3-4 6.3-5.6 7.398-4 3-13.598 3.301-21.2.704-3.3-1.102-6.102-1.801-6.2-1.704-.198.204-.402 2.704-.6 5.704-.2 4.699 0 5.398 1.8 5.597l2 .301-2-.898c-1.7-.704-1.5-.903 1.5-1.204 2.5-.296 3.8-1.097 4.5-2.699 1.3-2.898 2.8-2.898 2 0-1.8 6.102-8.5 7.5-13.7 2.903-1.8-1.5-5.3-3.801-7.8-5l-4.5-2.204 2.898 2.5c2.5 2.102 2.801 2.903 2.301 6.204-1.199 7.5-6.3 15.699-13.398 22.097-8.2 7.2-8.7 7.5-10.7 6.7-2-.7-6.601-8.399-6.601-10.797 0-.903 1.602-2.403 3.5-3.301C53.102 95.1 54 94 54 92.199c0-2.097-.102-2.199-1.602-.8-2.296 2.402-14.097 2.3-14.699-.2-.3-.898-.5 0-.597 2.102 0 2.097-1 5.5-2.102 7.699-1.102 2.2-2 4.8-2 6 0 1.5-.7 2-2.602 2-4.199 0-11.5-2.2-12.097-3.7-.301-.698 0-3.402.597-5.902 1.102-4.199 1-4.898-1.296-8.796C11.898 80.8 9.699 69.199 12 60.8c1.5-5.301 6.8-12.7 11.8-16.5 4.2-3.2 14.7-7.102 15.9-5.903.3.301-1.098 2.403-3.2 4.704-2 2.296-4.8 6.597-6.2 9.5L27.899 58l3.403 5.602c2.8 4.398 3.398 6.296 3 8.796-.403 2.704 0 3.704 2.699 5.903 4 3.398 7.602 3.398 14.3 0 2.9-1.403 7-3.2 9.2-3.801 2.8-.898 4.2-1.898 4.602-3.602C66.199 67 66 59 64.5 51l-1.398-7.5.5 12.2c.597 12.198-.204 16.3-2.903 16.3-.699 0-4.5 1.602-8.398 3.5-8.301 4.102-10.102 4.3-13.7 1.398-3.3-2.597-3.3-4.097.399-10.898l3-5.5-2.8 3.102-2.802 3-2.699-3.704c-1.5-2-2.699-4.5-2.699-5.296 0-3.204 3.898-9.204 11.398-17.801C50 31.199 53 29.199 59.5 28.898c1.7-.097 1.7-.199-.3-.699l-2.302-.699L59 25.3c3.8-4.1 13.398-8.1 19.898-8.198 1.903-.102 5.301.796 7.5 1.898ZM6 53.5c-1.398 4.2-.602 5.898 2.602 5.102 1.796-.5 2.199-.301 1.796.898C9.301 62.398 5.5 61.2 3.7 57.398c-1.8-3.597-1.597-4.5 1.2-7.699 2-2.398 2.601-.597 1.101 3.801Zm11 42.102c0 2.699-5.102 1.5-8.602-2-4.097-4.102-4.199-5.903-.597-10l2.699-3.204 3.3 6.903c1.7 3.898 3.2 7.597 3.2 8.3Zm64.3-.102.2 7-3.398.3c-1.903.2-4.403.098-5.704-.198L70.102 102l2.796-4.3c1.5-2.302 3.602-6.4 4.602-9.098 1.7-4.5 1.898-4.704 2.8-2.5.5 1.296 1 5.5 1 9.398ZM55.398 34.102c-2.199.597-3.597 2-4.898 4.898-1 2.2-1.5 4.3-1.2 4.7.4.3.7-.098.7-.9 0-.902.898-2.6 2-3.902 1.8-2.296 1.898-2.296 2-.398.102 1.8.2 1.7 1.5-.5.7-1.398 2.602-3 4.2-3.7 2.1-.902 2.3-1.198.8-1.198-1.102.097-3.398.5-5.102 1ZM77 35c-1.7 1.7-2.7 4-1.7 4 .2 0 1.302-1.398 2.5-3 2.598-3.398 2.098-3.898-.8-1Zm40 2.5c-1.3 1.398-3.102 2.5-3.898 2.602-1 0-1.102.296-.403.5 1.7.699 5-1.301 6.301-3.602 1.398-2.7.8-2.5-2 .5Zm-34.398 5.602c-2.903 2.296-2.102 4.097 1.5 3.199 2.199-.602 2.5.699.699 2.597-.7.704.3.204 2.398-1.097 3.301-2.102 3.5-2.5 2.301-4.301-1.8-2.8-3.7-2.898-6.898-.398ZM86.5 68c-.3.602.102.7.898.398C89.2 67.7 89.5 67 88.102 67c-.602 0-1.301.398-1.602 1Zm0 0"/></svg>

