<svg xmlns="http://www.w3.org/2000/svg" viewBox="0 0 128 128"><path d="M18.283 48.844c-1.712.42-2.216.719-2.785 2.703.723-1.453 1.272-1.99 2.785-2.703zm4.4.105c-1.12.022-2.311.36-3.687.94a6.004 6.004 0 0 0-1.812 1.15c-.47.434-.868.937-1.305 1.52a2.284 2.284 0 0 0-.711.144c-.254.102-.51.267-.816.537a18.45 18.45 0 0 0-.625.578c-.19.183-.373.367-.553.555-1.43.23-2.597.485-3.64.889-1.069.413-2.01.982-2.977 1.84a7.814 7.814 0 0 0-1.797 2.324 8.513 8.513 0 0 1-.604.625 2.15 2.15 0 0 1-.666.433c-.143.055-.2.087-.207.084a.347.347 0 0 1-.021-.068c.347-.334.405-.824.437-1.31.043.05.083.11.125.175.047.072.096.145.153.217l.236.3.084-.374c.07-.314.123-.731.04-1.094a1.01 1.01 0 0 0-.353-.592l.055-.136c.06-.153.12-.311.172-.46l.103-.292-.306.052c-.409.071-1.288.554-1.906 1.196-.23.238-.427.502-.557.779-.135.288-.195.59-.143.89.046.263.179.52.416.762a8.5 8.5 0 0 0 .127.469c.05.157.104.298.17.436.18.374.467.602.8.709.269.086.566.09.858.025-.057.33-.099.67-.113 1.045a13.47 13.47 0 0 0 .053 1.654 8.551 8.551 0 0 0 .123.87l-.164.44-.254.69-.555.551-.52.514-.124.12c-.35.338-.42.405-.32.999.06.364.18.732.367 1.088.172.327.402.648.699.945.37.37.975.831 1.61 1.072.36.137.734.204 1.083.149-.018.054-.03.107-.05.162a6.135 6.135 0 0 1-.186.455c-.43.944.011 1.436.7 1.75.342.156.75.262 1.13.361.077.02.156.04.254.067.45.121 1.226.345 1.935.39.775.05 1.473-.111 1.66-.806a3.79 3.79 0 0 0 .135-.694c.016-.19.008-.383-.013-.619.218-.484.316-.634.476-.87l.08-.118c.173-.257.256-.44.285-.645.029-.198.003-.394-.033-.695h.002l-.017-.13a11.4 11.4 0 0 0 1.345.097c.224.001.447-.006.67-.018-.061.032-.103.056-.17.09l-.084.043c-.597.307-.622.89-.435 1.49.169.54.516 1.092.734 1.428.458.706.894 1.302 1.424 1.627.556.34 1.19.38 2.01-.063.417-.225.547-.455.724-.765.056-.098.117-.204.186-.309.162-.103.584-.45 1.016-.806.14-.117.29-.239.449-.368.11.082.244.14.406.178.21.05.463.072.764.094.225.016.96.018 1.433.017h.342c.489.003.883-.024 1.182-.193.318-.18.507-.5.549-1.072.018-.255.021-.412-.014-.572-.033-.149-.1-.287-.21-.483l-.019-.746c-.007-.263-.012-.524-.02-.787a3.596 3.596 0 0 0-.105-.81 5.372 5.372 0 0 0-.271-.766c-.08-.192-.147-.368-.211-.541v-.002a8.576 8.576 0 0 0-.346-.83c.01-.057.018-.117.028-.182l.275.264.402.388c.307.296.587.564.916.758.341.201.725.319 1.221.295.52-.024 1.077-.244 1.535-.582.443-.327.797-.766.945-1.254l.13-.424.103-.34a8.44 8.44 0 0 0 2.266.086c.729-.076 1.433-.261 2.04-.585.116-.062.227-.127.335-.196l-2.17 9.7 7.492.001 2.254-9.894h2.535c.302 0 .242.171.191.398l-2.13 9.496h49.665c.843 0 1.504-.173 2.262-.56.748.5 1.41.666 2.322.658l11.502-.098-.923 4.297h7.498c.31-1.408.618-2.818.927-4.226 2.14 0 4.35.013 6.49.013 1.046 0 1.972-.323 2.794-.879a4.791 4.791 0 0 0 2.01-2.964c.47-2.144.944-4.287 1.417-6.43.27-1.224.622-2.606-.256-3.711-.807-1.017-1.878-1.096-3.054-1.096-8.467.01-16.934 0-25.4 0-.855 0-1.57.277-2.317.662-.7-.495-1.334-.662-2.193-.662H82.855l.952-4.283h-7.51l-.928 4.178h-6.605c-.913 0-1.79.288-2.555.78-.742-.462-1.313-.663-2.191-.663H42.215l.998-4.342-7.422-.012c-.149-.554-.329-1.069-.547-1.486a1.12 1.12 0 0 0-.207-.27 2.13 2.13 0 0 0-.77-.468c-.31-.107-.638-.13-.898.006a.754.754 0 0 0-.187.138 4.165 4.165 0 0 0-.453.586c-.159.232-.318.465-.508.627-.222.19-.5.305-.762.41a5.16 5.16 0 0 0-.39-.77 7.294 7.294 0 0 0-.604-.815 3.344 3.344 0 0 0-.553-.526 8.01 8.01 0 0 0-.619-.414c-.616-.385-1.14-.845-1.674-1.314-.243-.213-.488-.43-.728-.627-1.273-1.05-2.461-1.56-3.73-1.639a5.788 5.788 0 0 0-.477-.01zm-5.761.018c-.863.208-1.028.369-1.287 1.215.413-.62.651-.823 1.287-1.215zm5.746.705c1.341-.059 2.547.393 3.898 1.53.623.523 1.168 1.032 1.8 1.484-.23.02-.427.06-.688.162.317-.06.684 0 1.013.06.093.06.188.119.286.176.445.263.698.408 1 .828.318.444.584.886.818 1.375a8.697 8.697 0 0 0-.397-.135.851.851 0 0 0-.804.051l-.018.008c-.246.12-.629.257-.885.299.13.045.42.061.555.008a.413.413 0 0 1 .057-.018.856.856 0 0 0-.116.352.845.845 0 0 0 .073.418.347.347 0 0 1 .361-.45c.193.019.335.19.317.383a.354.354 0 0 1-.034.115 3.01 3.01 0 0 0-.533.149 6.782 6.782 0 0 0-.36.146 5.642 5.642 0 0 1 1.641-.029c.037.175.074.362.108.55l-.207.016-.016.002c-.263-.21-.556-.175-.957-.084-1.218.278-.933.962-1.494 1.993.582-.712.54-1.456 1.488-1.68.221-.052.372-.118.522-.096-.27.136-.504.36-.596.621-.26.735-.099 1.355-.385 2.041.355-.614.377-1.213.694-1.86.113-.231.535-.603.795-.608l.212-.004c.063.408.1.813.077 1.15a12.889 12.889 0 0 1-.3 1.875c.322-.412.467-1.287.608-1.902.147-.64.111-1.408-.017-2.096-.177-.944.795-.792 1.359-1.236.415-.327.702-.85 1.082-1.22.377-.366.97.173 1.12.532.643 1.557.935 4.005.765 5.574-.191 1.761-1.04 3.684-2.594 4.551-1.98 1.105-4.314.43-6.281-.232-.42-.142-.713-.348-1.082-.58.1.452.147.93.013 1.382-.212.717-.555 1.891.418 2.108.37.082.54.07 1.063-.2a1.958 1.958 0 0 1-.928.018.606.606 0 0 1-.478-.414c.092.067.243.104.5.166.721.174 1.408-.173 1.543-.674.078-.292.066-.447.232-.845.15.046.303.088.461.127l-.268.875c-.232.756-1.135 1.365-1.933 1.351-.738-.013-1.206-.475-1.715-.928-.35-.312-.689-.61-1.023-.906-.919-.29-1.654-.629-2.506-1.26.606.713 1.017 1.109 1.863 1.463-.123 1.255-.558 2.169-.93 3.37-.168.542-1.497 2.717-1.865 2.93-.262.15-1.906 1.535-2.215 1.718-.23.306-.433.729-.78.912-1.054.558-1.732-.512-2.3-1.414-.258-.411-.975-1.594-.35-1.926.592-.313.922-.537 1.526-.933.089.161.242.317.342.478l-.067-.53c-.04-.32-.039-.58-.013-.902l.074-.933c-.091.317-.273.632-.363.949a3.35 3.35 0 0 0-.084.324 10.66 10.66 0 0 1-4.053.053 25.155 25.155 0 0 0-.281-1.398c-.027.42-.01 1.579-.012 2.228-.002.503-.022.675-.281 1.104-.243.4-.348.492-.688 1.17.028.427.03.71-.084 1.115-.189.674-2.093.151-2.596.013-.618-.169-1.897-.42-1.576-1.246.283-.726.463-1.49.602-2.506-1.134-1.633-2.189-3.872-2.39-5.855-.158-1.54-.064-2.486.269-3.428.528-1.492 1.266-2.784 2.45-3.824 1.6-1.403 3.095-1.966 5.434-2.322-.562.63-1.12 1.295-1.726 2.01-.614.723-.98 1.453-1.37 2.244-.538 1.092-.526 1.508.188 2.466.616.827.948 1.198 1.217 2.006-.222.458-.302.844-.377 1.47.754.823 1.313 1.388 2.045 1.562.718.17 1.317.138 1.959-.19 1.426-.729 2.745-1.672 4.354-1.71.744-1.83.67-3.36.312-5.13-.244-1.209-.342-2.353-.418-3.586-.302 1.27-.359 2.386-.135 3.65.27 1.525.48 3.208-.271 4.548-1.455.111-2.7.994-4.012 1.673-.527.273-1.075.301-1.658.141-.542-.149-.907-.507-1.49-1.18-.01-.675.143-.988.453-1.6.498-.982 1.049-1.896 1.652-2.862-.739.892-1.44 1.638-2.021 2.535-.223-.634-.54-.955-1.067-1.668-.514-.697-.57-1.003-.185-1.809.386-.81.714-1.522 1.373-2.232 1.137-1.229 2.18-2.597 3.424-3.807.675-.657.95-.634 1.845-.77.81-.122 1.6-.276 2.426-.468-.799.074-1.57.102-2.348.12h-.023c.765-.976 1.209-1.52 2.451-2.06 1.338-.58 2.463-.936 3.506-.982zm1.064 4.215c-1.664.416-1.977 1.117-1.763 2.191.182-.808.508-1.589 1.763-2.191zm-4.931.092c-.674.076-1.346.145-2.02.209-.566.053-.657.044-1.058.44-.61.604-1.204 2.675-1.393 3.503.298-.688 1.045-2.612 1.617-3.102.159-.135.27-.219.389-.279-.41.687-.38.859-.236 1.78.122-.937.445-1.299.976-1.997a14.035 14.035 0 0 0 1.725-.554zm15.453.078c-.386.781-.98 1.435-1.79 1.836-.433.214-.71.14-1.194.093.492.142.805.32 1.289.147.985-.352 1.459-1.144 1.695-2.076zm-3.445 1.261.101.217a.952.952 0 0 0-.078.063.865.865 0 0 0-.187-.276l.164-.004zm-4.928.604c-.543.25-1.173.19-1.639.504-.41.277-.978 1.155-1.394 1.527.301-.117.593-.32.861-.533a1.118 1.118 0 0 0 .408.851.467.467 0 1 1 .79-.455c-.223.166-.427.36-.598.586-.15.198-.275.42-.364.664a6.383 6.383 0 0 1 3.026-1.955 3.214 3.214 0 0 0-1.024.172 1.118 1.118 0 0 0-.73-.928c.242-.129.479-.265.664-.433zm12.478.601h3.627l-.98 4.424h7.683c1.47 0 2.408 1.208 2.082 2.678l-1.224 5.535h-.006l-1.025 4.61h-3.627l1.02-4.61.831-3.752c.172-.778-.328-1.418-1.105-1.418h-5.287l-.317 1.399v.02l-.82 3.7h-.006l-1.037 4.66h-3.623l1.037-4.66h-.012l1.22-5.484c.016-.077.036-.155.06-.23l.062-.26h-.017l1.464-6.612zm40.604 0h3.621l-.957 4.33-2.863 12.917H67.457c-1.47 0-2.406-1.203-2.08-2.672l1.684-7.578c.325-1.47 1.792-2.673 3.261-2.672l7.678.006.963-4.33zM1.996 56.9C.556 57.916.194 58.377.39 60.432c.142-1.617.458-2.315 1.607-3.532zm-1.223.612c-.727.508-.823.717-.755 1.6.158-.728.307-1.003.755-1.6zm2.69.293a4.031 4.031 0 0 0-.233.576c-.222.768.102 1.453-.595 2.01.327.66.312.924 1.074.619a2.49 2.49 0 0 0 .752-.479 14.153 14.153 0 0 0-.332.967c-.545.231-1.261.38-1.535-.193-.133-.278-.208-.551-.305-.903-.897-.93.443-2.157 1.174-2.597zm.185.416c.186.108.236.304.256.568-.11-.11-.198-.184-.341-.168a2.17 2.17 0 0 1 .085-.4zm48.463 2.629 12.145.004c1.44.028 2.35 1.217 2.03 2.67l-.23 1.033h.003l-.28 1.252h.004l-1.426 6.43h-.002l-.34 1.529h-12.08c-1.47 0-2.406-1.203-2.08-2.672l.486-2.198h.002l.094-.423c.325-1.47 1.794-2.673 3.263-2.672l8.455.004.125-.563c.133-.732-.328-1.326-1.054-1.355h-9.788l.674-3.04zm61.354.097h11.3c1.47 0 2.406 1.209 2.08 2.678l-1.677 7.572c-.326 1.47-1.79 2.673-3.26 2.672l-7.68-.008-.962 4.33h-3.621l.957-4.33.502-2.279 2.36-10.635zm-28.39.002h9.417c1.47 0 2.406 1.204 2.08 2.674l-1.677 7.574c-.326 1.47-1.794 2.672-3.264 2.672h-9.42c-1.47 0-2.406-1.202-2.08-2.672l1.678-7.574c.325-1.47 1.795-2.674 3.265-2.674zm15.525 0h9.42c1.47 0 2.405 1.204 2.08 2.674l-1.678 7.574c-.326 1.47-1.794 2.672-3.264 2.672h-9.42c-1.47 0-2.405-1.202-2.08-2.672l1.678-7.574c.326-1.47 1.794-2.674 3.264-2.674zM26.117 63.16c-.197.033-.55.106-.746.139-.526.089-.586.215-.668.732-.038.244-.092.546-.13.79.102-.276.227-.597.347-.86.127-.278.199-.302.469-.45.191-.103.537-.247.728-.35zm45.912.733c-.777 0-1.554.633-1.726 1.41l-.889 4.011c-.172.778.322 1.41 1.1 1.41h5.293l1.521-6.831H72.03zm14.752.097c-.778 0-1.556.636-1.728 1.414l-.887 4.01c-.172.778.322 1.414 1.1 1.414h4.658c.778 0 1.554-.636 1.726-1.414l.89-4.01c.171-.777-.324-1.414-1.103-1.414h-4.656zm15.528 0c-.779 0-1.557.636-1.729 1.414l-.889 4.01c-.172.778.324 1.414 1.102 1.414h4.656c.778 0 1.556-.636 1.729-1.414l.888-4.01c.173-.777-.323-1.414-1.101-1.414h-4.656zm14.107 0-1.516 6.84h5.3c.777 0 1.554-.639 1.726-1.416l.888-4.006c.173-.777-.321-1.418-1.1-1.418h-5.298zm-44.506.989h2.211l-1.045 4.664h-2.152c-.312 0-.493-.06-.414-.416l.83-3.725c.077-.348.182-.523.57-.523zm14.893.09h2.361c.455 0 .43.237.348.605l-.81 3.648c-.095.425-.36.418-.725.418h-2.403c-.353 0-.356-.208-.293-.494l.807-3.648c.1-.45.277-.53.715-.53zm15.545 0h2.361c.454 0 .43.237.348.605l-.81 3.648c-.095.425-.36.418-.726.418h-2.402c-.353 0-.356-.208-.293-.494l.807-3.648c.1-.45.277-.53.715-.53zm14.908.042h2.152c.312 0 .491.058.412.414l-.83 3.725c-.077.348-.18.525-.568.525h-2.211l1.045-4.664zM4.252 66.787c.413 1.429 1.117 2.834 1.896 4.014v.02c-.048.202-.106.4-.224.558-.558.746-1.975-.349-2.385-.768-.449-.458-.749-1-.82-1.51-.052-.37-.004-.38.256-.642.349-.353.698-.705 1.046-1.059l.231-.613zM23 67.723c.085.276.151.55.275.843.208.492.31.795.325 1.323l.046 1.67c.179.311.206.378.174.734-.064.727-.307.775-.945.764-.29-.005-1.444-.012-1.736-.037-.414-.036-.647-.072-.774-.166.65-.478 1.756-2.449 1.97-3.127.229-.717.48-1.342.665-2.004zm32.059 1.115c-.519 0-1.037.425-1.15.943-.114.512.208.932.716.942l-.002.004h6.438l.42-1.883h-6.329a.921.921 0 0 0-.093-.006z"/></svg>
