<?xml version="1.0" encoding="UTF-8"?>
<svg xmlns="http://www.w3.org/2000/svg" xmlns:xlink="http://www.w3.org/1999/xlink" width="128px" height="128px" viewBox="0 0 128 128" version="1.1">
<g id="surface1">
<path style=" stroke:none;fill-rule:nonzero;fill:rgb(0%,0%,0%);fill-opacity:1;" d="M 14.804688 76.246094 L 14.175781 77.96875 L 12.960938 77.523438 L 13.59375 75.804688 Z M 14.175781 77.96875 L 13.234375 80.527344 L 12 80.089844 L 12.941406 77.527344 Z M 13.234375 80.527344 L 13.082031 80.761719 L 12.628906 80.304688 Z M 13.082031 80.761719 L 11.015625 82.808594 L 10.109375 81.894531 L 12.175781 79.847656 Z M 11.015625 82.808594 L 9.183594 84.621094 L 8.277344 83.707031 L 10.109375 81.894531 Z M 9.183594 84.621094 L 8.722656 85.070312 L 7.828125 84.136719 L 8.269531 83.707031 Z M 8.722656 85.070312 C 7.898438 85.867188 7.734375 86.023438 7.972656 87.445312 L 6.699219 87.65625 C 6.351562 85.5625 6.59375 85.324219 7.832031 84.136719 Z M 7.972656 87.445312 C 8.175781 88.652344 8.570312 89.816406 9.140625 90.894531 L 7.996094 91.496094 C 7.363281 90.292969 6.925781 88.996094 6.699219 87.65625 Z M 9.140625 90.894531 C 9.695312 91.953125 10.4375 92.976562 11.378906 93.921875 L 10.464844 94.828125 C 9.480469 93.847656 8.648438 92.722656 7.996094 91.496094 Z M 11.398438 93.921875 C 12.605469 95.128906 14.574219 96.628906 16.625 97.40625 L 16.171875 98.613281 C 13.929688 97.765625 11.769531 96.136719 10.484375 94.828125 Z M 16.601562 97.40625 C 18.027344 97.945312 19.480469 98.132812 20.691406 97.597656 L 21.210938 98.796875 C 19.644531 99.488281 17.859375 99.28125 16.144531 98.628906 Z M 20.691406 97.597656 L 21.941406 97.042969 L 21.574219 98.359375 L 20.953125 98.1875 Z M 21.574219 98.355469 L 21.007812 100.144531 L 19.804688 99.707031 L 20.347656 98.011719 Z M 21.007812 100.144531 L 20.3125 101.847656 L 19.136719 101.308594 L 19.789062 99.707031 Z M 20.3125 101.847656 C 19.21875 104.238281 20.363281 105.503906 22.136719 106.308594 L 21.601562 107.484375 C 19.203125 106.390625 17.601562 104.652344 19.140625 101.320312 Z M 22.136719 106.308594 C 23.273438 106.824219 24.644531 107.183594 25.9375 107.515625 L 25.613281 108.765625 C 24.273438 108.414062 22.8125 108.039062 21.621094 107.488281 Z M 25.9375 107.515625 L 26.839844 107.753906 L 26.511719 109 L 25.617188 108.765625 Z M 26.839844 107.753906 C 28.378906 108.167969 31.03125 108.953125 33.421875 109.082031 L 33.34375 110.375 C 30.839844 110.214844 28.097656 109.429688 26.511719 109 Z M 33.421875 109.082031 C 35.582031 109.21875 37.507812 108.855469 37.953125 107.203125 L 39.199219 107.53125 C 38.539062 109.984375 36.074219 110.53125 33.339844 110.375 Z M 37.953125 107.203125 C 38.160156 106.484375 38.304688 105.746094 38.382812 105.003906 L 39.675781 105.109375 C 39.613281 105.835938 39.460938 106.582031 39.199219 107.554688 Z M 38.382812 105.003906 C 38.441406 104.328125 38.414062 103.675781 38.332031 102.84375 L 39.613281 102.722656 C 39.707031 103.515625 39.726562 104.3125 39.671875 105.109375 Z M 38.332031 102.84375 L 38.382812 102.519531 L 38.972656 102.777344 Z M 38.382812 102.519531 C 39.253906 100.578125 39.609375 100.050781 40.242188 99.125 L 41.308594 99.855469 C 40.722656 100.710938 40.390625 101.195312 39.5625 103.042969 Z M 40.242188 99.125 L 40.523438 98.710938 L 41.59375 99.429688 L 41.304688 99.828125 Z M 40.523438 98.710938 C 41.015625 97.976562 41.242188 97.511719 41.316406 96.984375 L 42.597656 97.160156 C 42.492188 97.882812 42.207031 98.527344 41.597656 99.433594 Z M 41.316406 96.984375 C 41.390625 96.453125 41.316406 95.820312 41.199219 94.851562 L 42.480469 94.703125 C 42.605469 95.769531 42.691406 96.464844 42.589844 97.164062 Z M 41.199219 94.851562 L 41.125 94.238281 L 42.402344 94.078125 L 42.484375 94.707031 Z M 41.125 94.238281 L 41.03125 93.601562 L 42.3125 93.414062 L 42.402344 94.074219 Z M 41.03125 93.601562 L 40.90625 92.738281 L 41.765625 92.871094 L 41.671875 93.511719 Z M 41.765625 92.867188 C 43.554688 93.136719 45.363281 93.277344 47.175781 93.289062 L 47.167969 94.582031 C 45.296875 94.570312 43.425781 94.421875 41.574219 94.144531 Z M 47.175781 93.269531 C 48.96875 93.277344 50.761719 93.167969 52.539062 92.945312 L 52.691406 94.222656 C 50.84375 94.453125 49.007812 94.570312 47.167969 94.558594 Z M 52.539062 92.945312 L 52.941406 94.144531 L 52.617188 93.585938 Z M 52.941406 94.144531 L 49.527344 95.96875 L 48.9375 94.816406 L 52.296875 93.023438 Z M 49.527344 95.96875 L 49.230469 96.121094 L 48.640625 94.96875 L 48.9375 94.816406 Z M 49.230469 96.121094 C 47.863281 96.820312 47.828125 98.296875 48.335938 99.84375 L 47.101562 100.226562 C 46.441406 98.113281 46.53125 96.054688 48.636719 94.96875 Z M 48.335938 99.84375 C 48.882812 101.59375 50.042969 103.4375 50.773438 104.5625 L 49.695312 105.261719 C 48.925781 104.078125 47.699219 102.132812 47.105469 100.222656 Z M 50.773438 104.5625 C 52.300781 106.914062 53.738281 108.894531 55.375 109.910156 L 54.703125 111.011719 C 52.832031 109.863281 51.289062 107.757812 49.671875 105.265625 Z M 55.375 109.910156 C 56.933594 110.871094 58.761719 110.957031 61.183594 109.648438 L 61.792969 110.789062 C 58.902344 112.355469 56.664062 112.214844 54.703125 110.988281 Z M 61.183594 109.648438 C 62.324219 109.050781 62.710938 108.359375 63.226562 107.453125 L 64.351562 108.089844 C 63.726562 109.183594 63.265625 109.996094 61.792969 110.789062 Z M 63.226562 107.453125 L 63.984375 106.207031 L 65.054688 106.921875 L 64.351562 108.089844 Z M 63.984375 106.207031 L 64.210938 105.996094 L 64.519531 106.5625 Z M 64.210938 105.996094 C 64.609375 105.789062 66.199219 104.457031 67.769531 103.160156 L 68.59375 104.15625 L 64.835938 107.132812 Z M 67.769531 103.160156 L 69.785156 101.503906 L 70.597656 102.511719 L 68.59375 104.15625 Z M 69.785156 101.503906 L 70.28125 101.101562 L 70.691406 101.59375 L 70.191406 102.007812 Z M 70.691406 101.59375 C 70.949219 101.902344 71.355469 102.09375 71.890625 102.226562 L 71.589844 103.484375 C 70.765625 103.285156 70.128906 102.96875 69.675781 102.425781 Z M 71.890625 102.226562 C 72.527344 102.378906 73.363281 102.453125 74.375 102.527344 L 74.28125 103.816406 C 73.222656 103.742188 72.335938 103.660156 71.589844 103.484375 Z M 74.375 102.527344 C 75.167969 102.585938 77.703125 102.582031 79.34375 102.582031 L 79.34375 103.875 C 77.667969 103.875 75.078125 103.875 74.28125 103.816406 Z M 79.34375 102.582031 L 80.550781 102.585938 L 80.546875 103.875 L 79.34375 103.875 Z M 80.550781 102.585938 C 82.078125 102.59375 83.289062 102.523438 84.089844 102.070312 L 84.722656 103.199219 C 83.671875 103.796875 82.273438 103.886719 80.546875 103.878906 L 80.554688 102.585938 Z M 84.089844 102.070312 C 84.816406 101.65625 85.257812 100.84375 85.367188 99.320312 L 86.660156 99.410156 C 86.515625 101.410156 85.851562 102.5625 84.726562 103.199219 Z M 85.367188 99.320312 C 85.425781 98.519531 85.4375 98.070312 85.347656 97.671875 L 86.609375 97.390625 C 86.730469 97.957031 86.722656 98.511719 86.65625 99.390625 Z M 85.347656 97.671875 C 85.261719 97.269531 85.050781 96.855469 84.667969 96.171875 L 85.800781 95.539062 C 86.238281 96.324219 86.484375 96.824219 86.609375 97.390625 Z M 84.667969 96.171875 L 84.589844 95.871094 L 85.234375 95.855469 Z M 84.589844 95.871094 L 84.515625 93.085938 L 85.804688 93.054688 L 85.878906 95.839844 Z M 84.515625 93.085938 L 84.441406 90.285156 L 85.730469 90.257812 L 85.804688 93.054688 Z M 84.441406 90.285156 C 84.429688 89.417969 84.316406 88.554688 84.109375 87.714844 L 85.359375 87.398438 C 85.59375 88.335938 85.71875 89.292969 85.730469 90.257812 Z M 84.109375 87.714844 C 83.90625 86.914062 83.613281 86.148438 83.214844 85.195312 L 84.40625 84.695312 L 85.359375 87.398438 Z M 83.214844 85.195312 L 82.453125 83.226562 L 83.664062 82.785156 L 84.40625 84.695312 Z M 83.664062 82.78125 L 83.058594 82.980469 Z M 82.453125 83.230469 L 81.199219 80.230469 L 82.355469 79.628906 C 82.90625 80.71875 83.28125 81.726562 83.664062 82.761719 Z M 81.199219 80.230469 L 81.136719 79.828125 L 81.773438 79.941406 Z M 81.136719 79.828125 L 81.296875 78.828125 L 82.578125 78.988281 L 82.417969 80.050781 Z M 81.296875 78.828125 L 81.410156 77.789062 L 82.703125 77.894531 L 82.574219 78.992188 Z M 81.410156 77.789062 L 81.53125 76.4375 L 82.503906 77.378906 L 82.054688 77.847656 Z M 82.503906 77.375 L 84.402344 79.207031 L 83.507812 80.140625 L 81.609375 78.308594 Z M 84.402344 79.207031 L 85.800781 80.574219 L 84.90625 81.507812 L 83.507812 80.140625 Z M 85.800781 80.574219 C 86.824219 81.5625 87.761719 82.457031 88.800781 83.074219 L 88.144531 84.191406 C 86.980469 83.503906 85.992188 82.554688 84.90625 81.511719 Z M 88.800781 83.074219 C 89.882812 83.722656 91.136719 84.019531 92.390625 83.933594 L 92.453125 85.226562 C 90.945312 85.328125 89.441406 84.964844 88.144531 84.1875 Z M 92.390625 83.933594 C 93.992188 83.859375 95.679688 83.183594 97.097656 82.132812 L 97.867188 83.175781 C 96.25 84.367188 94.265625 85.140625 92.453125 85.226562 Z M 97.097656 82.132812 C 98.453125 81.132812 99.53125 79.808594 99.96875 78.367188 L 101.210938 78.742188 C 100.6875 80.460938 99.410156 82.023438 97.871094 83.175781 Z M 99.96875 78.367188 L 100.425781 76.875 L 101.664062 77.246094 L 101.210938 78.742188 Z M 100.425781 76.875 L 100.953125 75.132812 L 102.191406 75.507812 L 101.664062 77.246094 Z M 100.953125 75.132812 L 101.121094 74.578125 L 101.6875 74.6875 L 101.566406 75.320312 Z M 101.691406 74.6875 C 104.292969 75.183594 107.160156 75.355469 109.898438 75.089844 L 110.023438 76.367188 C 107.160156 76.667969 104.183594 76.488281 101.453125 75.972656 Z M 109.898438 75.089844 C 112.304688 74.835938 114.625 74.222656 116.617188 73.160156 L 117.222656 74.300781 C 115.078125 75.445312 112.59375 76.101562 110.023438 76.371094 Z M 116.617188 73.160156 C 119.539062 71.601562 121.738281 69.296875 123.316406 66.558594 L 124.4375 67.199219 C 122.738281 70.140625 120.378906 72.601562 117.226562 74.300781 Z M 123.316406 66.558594 L 123.878906 66.878906 Z M 123.316406 66.558594 C 125.125 63.429688 126.117188 59.757812 126.519531 55.957031 L 127.796875 56.078125 C 127.394531 60.0625 126.332031 63.9375 124.433594 67.222656 Z M 126.519531 55.957031 C 126.832031 52.859375 126.65625 48.632812 126.011719 44.546875 L 127.28125 44.347656 C 127.949219 48.539062 128.121094 52.882812 127.800781 56.082031 Z M 126.011719 44.546875 C 125.4375 40.945312 124.496094 37.457031 123.199219 34.972656 L 124.34375 34.375 C 125.703125 36.984375 126.6875 40.609375 127.285156 44.347656 Z M 123.199219 34.992188 C 123.070312 34.761719 122.90625 34.550781 122.710938 34.371094 L 123.617188 33.449219 C 123.90625 33.726562 124.152344 34.046875 124.347656 34.398438 Z M 122.710938 34.390625 C 122.074219 33.785156 121.3125 33.324219 120.480469 33.035156 L 120.882812 31.835938 C 121.894531 32.1875 122.820312 32.75 123.597656 33.488281 Z M 120.480469 33.03125 C 119.691406 32.761719 118.894531 32.683594 118.320312 32.980469 L 117.726562 31.835938 C 118.644531 31.355469 119.800781 31.433594 120.898438 31.808594 Z M 118.320312 32.980469 C 118.199219 33.046875 118.089844 33.128906 117.992188 33.226562 L 117.066406 32.320312 C 117.269531 32.121094 117.46875 31.960938 117.726562 31.835938 Z M 117.992188 33.226562 C 117.464844 33.761719 117 34.441406 116.53125 35.117188 L 115.464844 34.390625 C 115.964844 33.65625 116.46875 32.925781 117.066406 32.320312 Z M 116.53125 35.117188 C 115.921875 36.011719 115.304688 36.90625 114.53125 37.589844 L 113.691406 36.605469 C 114.363281 36.03125 114.925781 35.207031 115.484375 34.390625 Z M 114.53125 37.589844 C 113.558594 38.421875 112.433594 38.871094 111.382812 39.292969 L 110.902344 38.09375 C 111.855469 37.691406 112.902344 37.296875 113.695312 36.605469 Z M 111.382812 39.292969 L 110.90625 39.484375 L 110.414062 38.289062 L 110.902344 38.09375 Z M 110.90625 39.484375 L 110.304688 39.738281 L 110.070312 39.109375 L 110.679688 38.90625 Z M 110.054688 39.109375 C 109.65625 38.03125 109.144531 36.996094 108.53125 36.023438 L 109.628906 35.339844 C 110.289062 36.386719 110.835938 37.5 111.269531 38.664062 Z M 108.53125 36.023438 C 107.921875 35.066406 107.246094 34.148438 106.507812 33.285156 L 107.496094 32.457031 C 108.273438 33.367188 108.984375 34.328125 109.628906 35.339844 Z M 106.507812 33.285156 C 105.992188 32.664062 105.40625 32.109375 104.765625 31.625 L 105.566406 30.597656 C 106.246094 31.113281 106.871094 31.691406 107.515625 32.457031 Z M 104.765625 31.625 C 104.160156 31.164062 103.476562 30.734375 102.679688 30.230469 L 103.363281 29.136719 L 105.546875 30.597656 Z M 102.679688 30.230469 C 100.425781 28.820312 98.539062 27.164062 96.609375 25.472656 L 97.457031 24.496094 C 99.34375 26.152344 101.191406 27.777344 103.363281 29.136719 Z M 96.609375 25.472656 L 94.0625 23.289062 L 94.886719 22.289062 L 97.457031 24.496094 Z M 94.0625 23.289062 C 89.792969 19.769531 85.863281 18.0625 81.660156 17.796875 L 81.742188 16.507812 C 86.222656 16.785156 90.414062 18.585938 94.90625 22.304688 Z M 81.660156 17.800781 C 77.429688 17.535156 72.90625 18.71875 67.539062 21 L 67.039062 19.808594 C 72.589844 17.472656 77.289062 16.246094 81.738281 16.527344 Z M 67.539062 21 C 65.011719 22.0625 63.140625 23.316406 61.515625 24.800781 L 60.640625 23.851562 C 62.371094 22.25 64.359375 20.914062 67.039062 19.789062 Z M 61.515625 24.800781 C 59.878906 26.3125 58.46875 28.101562 56.914062 30.210938 L 55.878906 29.441406 C 57.492188 27.28125 58.941406 25.441406 60.679688 23.851562 Z M 56.914062 30.210938 L 56.714844 30.457031 L 56.414062 30.472656 L 56.382812 29.824219 Z M 56.429688 30.472656 C 55.53125 30.519531 54.777344 30.628906 54.03125 30.925781 L 53.550781 29.726562 C 54.457031 29.367188 55.351562 29.234375 56.363281 29.179688 Z M 54.03125 30.925781 C 53.269531 31.230469 52.484375 31.738281 51.53125 32.585938 L 50.675781 31.617188 C 51.757812 30.660156 52.675781 30.082031 53.550781 29.722656 Z M 51.53125 32.585938 L 49.398438 34.5625 L 48.496094 33.632812 L 50.710938 31.589844 Z M 49.398438 34.5625 L 48.949219 34.09375 L 49.398438 34.558594 Z M 49.394531 34.5625 L 47.339844 36.632812 L 46.40625 35.738281 L 48.507812 33.628906 Z M 47.339844 36.632812 L 46.972656 36.824219 L 46.875 36.1875 Z M 46.972656 36.824219 C 41.921875 37.628906 37.828125 38.511719 34.171875 39.929688 L 33.707031 38.722656 C 37.445312 37.273438 41.621094 36.371094 46.773438 35.550781 Z M 34.171875 39.929688 C 30.542969 41.335938 27.34375 43.269531 24.054688 46.191406 L 23.199219 45.199219 C 26.613281 42.175781 29.9375 40.164062 33.707031 38.703125 Z M 24 46.160156 C 22.71875 47.289062 21.550781 48.542969 20.515625 49.898438 L 19.488281 49.101562 C 20.578125 47.675781 21.800781 46.359375 23.144531 45.175781 Z M 20.515625 49.898438 C 19.511719 51.214844 18.648438 52.605469 17.890625 54.101562 L 16.738281 53.515625 C 17.527344 51.972656 18.445312 50.5 19.488281 49.113281 Z M 17.890625 54.101562 L 17.792969 54.238281 L 17.3125 53.808594 Z M 17.792969 54.238281 L 15.539062 56.585938 L 14.675781 55.621094 C 15.4375 54.9375 16.136719 54.152344 16.835938 53.378906 Z M 15.539062 56.585938 C 14.714844 57.324219 13.820312 57.957031 12.789062 58.355469 L 12.324219 57.148438 C 13.183594 56.816406 13.957031 56.269531 14.679688 55.617188 Z M 12.789062 58.355469 L 12.800781 58.355469 L 12.570312 57.753906 Z M 12.785156 58.355469 C 11.957031 58.675781 11.550781 58.835938 11.09375 58.640625 L 11.59375 57.449219 C 11.613281 57.457031 11.820312 57.34375 12.324219 57.148438 Z M 11.09375 58.640625 L 11.089844 58.640625 L 11.34375 58.046875 Z M 11.089844 58.636719 C 10.605469 58.433594 10.488281 58.035156 10.171875 57.234375 L 11.382812 56.785156 C 11.550781 57.238281 11.546875 57.433594 11.59375 57.449219 Z M 10.171875 57.234375 L 10 56.785156 L 10.386719 56.492188 L 10.773438 57.011719 Z M 10.371094 56.492188 C 11.558594 55.601562 11.671875 53.824219 11.777344 52.09375 L 13.070312 52.175781 C 12.945312 54.175781 12.808594 56.253906 11.140625 57.511719 Z M 11.777344 52.09375 L 11.816406 51.476562 L 13.109375 51.570312 L 13.070312 52.175781 Z M 11.816406 51.476562 L 11.863281 50.847656 L 12.492188 50.878906 L 12.464844 51.523438 Z M 12.492188 50.878906 C 13.558594 50.929688 14.046875 51.679688 14.570312 52.492188 L 13.484375 53.191406 C 13.148438 52.671875 12.839844 52.191406 12.433594 52.191406 Z M 14.570312 52.492188 L 15.027344 53.152344 L 14.015625 53.953125 C 13.828125 53.707031 13.648438 53.449219 13.484375 53.1875 Z M 15.171875 53.691406 L 14.875 55.011719 L 14.035156 53.953125 L 14.539062 53.550781 Z M 13.910156 53.410156 C 14.109375 52.4375 14.296875 51.15625 14.058594 50.109375 L 15.320312 49.828125 C 15.609375 51.109375 15.425781 52.585938 15.175781 53.691406 Z M 14.058594 50.109375 C 13.910156 49.441406 13.589844 48.867188 12.988281 48.558594 L 13.578125 47.40625 C 14.566406 47.921875 15.089844 48.808594 15.316406 49.808594 Z M 12.988281 48.558594 L 12.476562 48.296875 L 12.679688 47.761719 L 13.285156 47.984375 Z M 12.679688 47.761719 L 13.078125 46.785156 L 14.28125 47.257812 L 13.914062 48.210938 Z M 13.078125 46.785156 L 13.671875 45.214844 L 14.871094 45.640625 L 14.261719 47.257812 Z M 14.175781 44.792969 L 15.257812 44.605469 L 14.894531 45.640625 L 14.28125 45.429688 Z M 14.375 46.0625 C 13.121094 46.265625 10.367188 47.828125 8.367188 49.902344 L 7.433594 49.011719 C 9.632812 46.742188 12.714844 45.039062 14.15625 44.808594 Z M 8.367188 49.902344 C 7.640625 50.65625 7.027344 51.46875 6.636719 52.296875 L 5.464844 51.757812 C 5.925781 50.78125 6.621094 49.851562 7.433594 49.011719 Z M 6.640625 52.300781 C 6.269531 53.089844 6.101562 53.898438 6.234375 54.683594 L 4.964844 54.882812 C 4.78125 53.820312 4.992188 52.757812 5.46875 51.742188 Z M 6.234375 54.683594 C 6.359375 55.398438 6.742188 56.113281 7.464844 56.808594 L 6.570312 57.742188 C 5.632812 56.84375 5.132812 55.882812 4.964844 54.902344 Z M 7.464844 56.808594 L 7.664062 57.121094 L 7.039062 57.277344 Z M 7.664062 57.121094 L 8.136719 58.863281 L 6.902344 59.246094 L 6.410156 57.445312 Z M 8.136719 58.863281 C 8.277344 59.328125 8.457031 59.785156 8.664062 60.222656 L 7.5 60.78125 C 7.265625 60.285156 7.066406 59.769531 6.902344 59.246094 Z M 8.664062 60.222656 C 9.128906 61.1875 9.867188 61.777344 10.714844 62.050781 L 10.320312 63.28125 C 9.148438 62.90625 8.132812 62.097656 7.519531 60.777344 Z M 10.714844 62.050781 C 11.703125 62.371094 12.855469 62.25 13.929688 61.851562 L 14.398438 63.050781 C 13.054688 63.574219 11.597656 63.691406 10.316406 63.28125 Z M 13.929688 61.851562 L 15.046875 61.410156 L 14.792969 62.585938 L 14.160156 62.449219 Z M 14.792969 62.589844 C 14.488281 63.984375 14.304688 65.449219 14.242188 67.105469 L 12.953125 67.058594 C 13.003906 65.464844 13.195312 63.875 13.53125 62.316406 Z M 14.199219 67.121094 C 14.140625 68.773438 14.203125 70.628906 14.386719 72.808594 L 13.097656 72.914062 C 12.90625 70.707031 12.84375 68.800781 12.90625 67.074219 Z M 14.386719 72.808594 L 14.558594 74.34375 L 13.277344 74.515625 L 13.09375 72.914062 Z M 14.558594 74.34375 L 14.820312 75.945312 L 13.554688 76.183594 L 13.28125 74.535156 Z M 14.820312 75.945312 L 14.792969 76.289062 L 14.1875 76.089844 "/>
<path style="fill-rule:evenodd;fill:rgb(99.607843%,92.156863%,31.372549%);fill-opacity:1;stroke-width:0.095;stroke-linecap:butt;stroke-linejoin:miter;stroke:rgb(12.156863%,9.803922%,9.019608%);stroke-opacity:1;stroke-miterlimit:10;" d="M 23.585938 18.59375 L 19.330078 19.294922 L 15.447266 20.996094 L 12.150391 23.070312 L 9.011719 26.900391 L 7.238281 28.777344 L 5.525391 29.410156 L 5.072266 28.302734 L 5.865234 27.158203 L 6.042969 25.544922 L 6.572266 25.564453 L 7.152344 26.09375 L 6.996094 24.449219 L 6.353516 24.019531 L 6.373047 23.394531 L 4.851562 24.255859 L 3.470703 25.884766 L 3.183594 27.339844 L 3.783203 28.503906 L 4.332031 30.484375 L 5.453125 31.013672 L 6.630859 30.955078 L 7.746094 30.306641 L 7 34.072266 L 7.744141 38.273438 L 6.925781 40.214844 L 4.240234 43.105469 L 4.716797 44.833984 L 6 46.837891 L 8.398438 48.525391 L 9.669922 48.699219 L 11.083984 48.746094 L 10.201172 52.369141 L 13.445312 53.699219 L 17.488281 54.230469 L 18.871094 53.326172 L 18.976562 50.880859 L 20.519531 48.326172 L 20.626953 46.306641 L 24.349609 46.572266 L 27.806641 46.253906 L 24.349609 48.326172 L 24.933594 50.826172 L 27.113281 54.230469 L 29.242188 55.134766 L 30.943359 54.435547 L 31.644531 53.052734 L 35.207031 50.339844 L 35.908203 50.923828 L 41.492188 51.136719 L 42.609375 50.232422 L 42.716797 48.636719 L 42.34375 47.9375 L 42.078125 43.628906 L 40.216797 39.90625 L 40.535156 38.255859 L 41.652344 38.841797 L 44.791016 41.765625 L 46.332031 41.871094 L 48.035156 41.171875 L 49.736328 39.896484 L 50.587891 37.130859 L 55.587891 37.449219 L 58.619141 36.279297 L 61.066406 33.992188 L 62.820312 30.695312 L 63.246094 26.8125 L 62.875 22.292969 L 61.917969 18.25 L 60.960938 16.972656 L 59.630859 16.546875 L 57.291016 19.099609 L 55.164062 19.845703 L 53.302734 16.759766 L 51.439453 15.058594 L 50.439453 14.419922 L 46.398438 11.070312 L 43.154297 9.314453 L 39.910156 9.048828 L 36.134766 9.6875 L 32.835938 10.910156 L 30.548828 12.771484 L 28.740234 14.951172 L 26.878906 15.484375 Z M 23.585938 18.59375 " transform="matrix(2,0,0,2,0,0)"/>
<path style=" stroke:none;fill-rule:evenodd;fill:rgb(99.215686%,96.862745%,72.941176%);fill-opacity:1;" d="M 22.488281 56.390625 C 15.199219 64.894531 16.800781 75.207031 18.839844 85.308594 L 15.605469 77.140625 L 14.414062 69.648438 L 14.753906 61.988281 L 17.816406 54.667969 L 22.417969 47.859375 L 29.566406 41.898438 L 37.398438 38.660156 L 46.59375 37.46875 L 38.082031 47.171875 C 31.246094 49.386719 27.214844 50.882812 22.492188 56.371094 "/>
<path style=" stroke:none;fill-rule:evenodd;fill:rgb(99.215686%,96.862745%,72.941176%);fill-opacity:1;" d="M 56.804688 30.484375 C 51.734375 35.429688 48.96875 39.160156 45.742188 44.945312 L 38.425781 57.15625 C 37.199219 59.222656 37.085938 60.957031 36.714844 63.34375 L 33.136719 59.085938 L 34.839844 53.976562 L 40.625 43.59375 L 52.886719 31.503906 L 56.800781 30.503906 M 81.832031 18.242188 C 77.773438 19.765625 71.03125 20.269531 70.5625 24.925781 C 70.230469 28.230469 70.8125 29.894531 72.808594 33.394531 C 67.882812 28.296875 66.664062 29.085938 57.148438 30.671875 L 61.234375 24.882812 L 68.382812 20.457031 L 77.578125 18.410156 L 81.835938 18.242188 "/>
<path style=" stroke:none;fill-rule:evenodd;fill:rgb(92.941176%,84.313725%,28.627451%);fill-opacity:1;" d="M 93.03125 81.238281 C 94.382812 82.074219 94.351562 82.679688 94.125 83.25 L 97.324219 81.96875 L 99.398438 79.171875 L 100.9375 75.207031 L 98.972656 73.726562 L 90.386719 74.820312 L 89.746094 76.558594 L 89.945312 79.023438 L 90.746094 80.484375 L 92.027344 81.125 L 93.03125 81.214844 M 92.230469 66.535156 C 87.929688 67.777344 87.960938 68.121094 86.691406 72.390625 C 88.371094 69.699219 89.613281 68.339844 92.230469 66.535156 M 120.859375 34.601562 C 120.09375 34.953125 119.351562 35.125 118.871094 35.824219 C 117.84375 37.328125 116.960938 38.597656 115.257812 39.65625 C 114.394531 40.1875 113.511719 40.535156 112.601562 40.816406 C 111.847656 41.050781 111.394531 40.84375 110.753906 41.300781 L 111.890625 41.503906 L 114.410156 41.503906 L 117.519531 39.582031 L 119.347656 37.660156 L 120.859375 34.597656 M 52.285156 44.148438 C 50.59375 48.785156 49.113281 52.757812 46.546875 56.949219 C 49.507812 53.855469 51.929688 50.285156 53.710938 46.390625 C 54.441406 44.835938 54.578125 42.988281 56.617188 43.691406 C 56.707031 45.242188 57.015625 46.796875 57.128906 48.351562 C 58.226562 40.460938 61.332031 37.160156 68.527344 34.097656 L 62.40625 34.828125 L 56.652344 36.109375 L 53.800781 40.199219 L 52.246094 44.128906 M 66.246094 43.96875 C 67.800781 51.292969 70.042969 58.320312 71.015625 65.761719 C 71.648438 70.59375 71.714844 72.914062 69.285156 77.089844 C 66.625 76.914062 64.976562 77.214844 62.402344 78.058594 C 52.167969 81.414062 46.296875 86.347656 39.398438 76.40625 L 46.007812 79.519531 L 50.714844 78.59375 L 59.027344 73.753906 L 65.515625 72.472656 L 67.613281 63.703125 L 66.058594 52.097656 L 65.859375 46.617188 L 66.226562 43.96875 M 83.851562 89.28125 C 82.992188 95.230469 85.851562 98.429688 84.65625 100.074219 C 84.320312 100.539062 83.871094 101.351562 83.367188 101.574219 C 81.566406 102.367188 79.097656 101.425781 78.917969 101.890625 L 73 101.890625 L 70.625 100.882812 L 74.277344 96.589844 L 77.84375 88.824219 L 80.125 80.96875 L 81.3125 80.96875 L 83.875 89.28125 "/>
<path style=" stroke:none;fill-rule:evenodd;fill:rgb(92.941176%,84.313725%,28.627451%);fill-opacity:1;" d="M 73.910156 71.984375 C 74.390625 74.6875 75.230469 75.328125 76.503906 77.945312 C 75.65625 82.210938 74.296875 87.285156 72.660156 91.050781 C 71.972656 92.636719 71.414062 93.511719 70.203125 94.738281 C 68.148438 96.8125 66.074219 98.621094 63.746094 100.414062 C 62.070312 101.707031 60.898438 101.058594 58.835938 100.769531 C 57.953125 102.363281 57.714844 103.246094 56.09375 104.054688 C 53.605469 105.300781 51.378906 102.617188 49.425781 101.042969 L 53.652344 107.648438 L 56.578125 110.390625 L 59.042969 110.757812 L 62.332031 108.746094 L 64.066406 105.457031 L 67.722656 102.71875 L 72.199219 98.878906 L 75.03125 94.878906 L 77.589844 90.128906 L 80.878906 80.261719 L 81.152344 76.515625 L 77.042969 74.6875 L 73.910156 72.007812 M 41.140625 91.015625 C 45.753906 91.015625 50.621094 90.761719 54.84375 88.824219 C 56.039062 87.03125 57.21875 85.5625 58.683594 83.984375 C 57.355469 86.496094 56.9375 87.917969 56.585938 90.742188 L 55.214844 92.753906 L 44.800781 93.027344 L 41.398438 92.660156 L 41.035156 92.296875 L 41.125 91.015625 M 40.5 87.800781 L 40.140625 84.554688 C 39.351562 89.296875 39.539062 92.476562 37.339844 96.722656 C 35.710938 98.613281 33.699219 100.332031 31.402344 101.253906 C 31.597656 102.414062 31.65625 103.144531 31.542969 103.996094 C 31.140625 107.070312 24.992188 105.710938 22.46875 105.589844 L 34.632812 108.722656 L 37.371094 107.625 L 38.285156 102.324219 L 40.847656 97.574219 L 41.300781 94.652344 L 40.503906 87.800781 M 33.667969 61.050781 C 33.539062 63.355469 33.390625 64.316406 34.40625 66.355469 C 35.699219 68.941406 37.289062 71.355469 38.691406 73.953125 L 39.148438 68.839844 L 33.667969 61.070312 M 14.894531 78.46875 L 13.707031 80.992188 C 14.796875 84.660156 15.765625 86.984375 17.835938 90.1875 C 17.476562 91.484375 17.203125 92.050781 16.375 93.109375 C 14.550781 92.828125 12.933594 92.75 11.085938 92.753906 L 17.203125 97.503906 L 20.21875 96.957031 L 23.230469 93.941406 L 18.9375 87.273438 L 14.890625 78.46875 M 120.867188 33.398438 C 122.105469 38.992188 123.710938 44.148438 123.5625 49.875 C 123.363281 56.898438 122.011719 65.777344 115.503906 70.011719 C 108.210938 74.757812 99.65625 72.511719 91.65625 70.480469 L 101.433594 74.480469 L 110.570312 74.9375 L 116.78125 73.109375 L 121.621094 69.109375 L 125.277344 61.433594 L 126.644531 52.574219 L 125.550781 43.894531 L 123.539062 35.304688 L 120.859375 33.402344 M 12.089844 50.039062 C 8.800781 52.199219 7.480469 53.140625 7.84375 57.132812 L 8.835938 60.71875 L 10.234375 61.667969 L 11.964844 62.242188 L 15.101562 61.503906 L 16.707031 56.515625 L 12.257812 58.703125 L 11.226562 58.703125 L 10.070312 56.929688 L 11.472656 54.871094 L 12.210938 50.953125 L 13.160156 51.242188 L 14.3125 52.148438 L 14.148438 50.089844 L 13.363281 48.769531 L 12.578125 48.109375 L 12.085938 50.050781 M 86.328125 18.597656 C 89.265625 21.324219 92.871094 23.695312 95.21875 27.027344 C 96.128906 28.316406 97.140625 28.976562 95.203125 30.796875 C 97.246094 30.214844 98.007812 30.277344 99.644531 30.476562 C 102.621094 30.839844 105.410156 35.070312 105.589844 38.101562 C 105.550781 38.386719 104.761719 39.03125 102.460938 39.660156 C 102.414062 39.75 101.160156 39.488281 101.191406 39.574219 C 101.433594 40.230469 101.753906 40.328125 102.238281 40.636719 C 102.34375 41.363281 102.410156 42.484375 102.90625 43.28125 C 104.34375 43.265625 105.78125 43.402344 107.1875 43.695312 C 107.667969 44.488281 107.59375 45.28125 107.554688 46.070312 L 109.199219 45.796875 L 108.742188 42.050781 L 110.203125 39.585938 L 108.101562 34.835938 L 104.101562 30.996094 L 103.714844 30.976562 L 99.195312 28.203125 L 91.820312 22.171875 L 86.347656 18.597656 M 91.277344 41.101562 C 91.121094 41.371094 90.886719 41.804688 90.589844 42.105469 C 91.8125 43.265625 92.414062 44.035156 92.847656 45.671875 L 88.699219 47.730469 L 85.191406 51.097656 C 83.648438 50.269531 83.265625 49.632812 82.519531 48.050781 C 81.652344 48.28125 80.828125 48.503906 80.113281 48.238281 C 80.566406 48.242188 80.847656 48.128906 81.300781 47.847656 L 83.535156 45.527344 L 87.480469 42.539062 L 90.082031 41.699219 C 90.410156 41.5625 90.960938 41.238281 91.292969 41.101562 "/>
<path style=" stroke:none;fill-rule:evenodd;fill:rgb(92.941176%,84.313725%,28.627451%);fill-opacity:1;" d="M 95.101562 45.226562 C 90.699219 47.601562 86.488281 50 84.238281 54.480469 C 84.238281 48.769531 89.972656 46.257812 95.105469 45.230469 M 83.359375 33.992188 C 80.09375 36.222656 77.785156 40.714844 78.074219 45.097656 C 77.011719 41.304688 77.386719 37.699219 80.675781 35.097656 L 82.328125 34.292969 L 83.378906 33.992188 "/>
<path style=" stroke:none;fill-rule:evenodd;fill:rgb(0%,0%,0%);fill-opacity:1;" d="M 89.601562 67.808594 L 92.175781 66.570312 L 89.542969 67.058594 C 87.6875 67.375 87.46875 67.820312 87.183594 69.644531 L 86.722656 72.433594 L 87.949219 69.402344 C 88.394531 68.402344 88.648438 68.328125 89.601562 67.808594 Z M 55.199219 20.769531 C 56.660156 18.585938 57.5 17.871094 59.738281 16.484375 C 56.695312 17.21875 56.113281 17.785156 55.199219 20.769531 Z M 54.71875 25.570312 C 57.273438 20.441406 59.203125 18.570312 64.542969 16.035156 C 58.503906 17.515625 56.742188 18.566406 54.71875 25.570312 Z M 0.0625 52.28125 C 0.625 49.710938 1.144531 48.738281 2.730469 46.632812 C 0.160156 48.429688 -0.175781 49.167969 0.0625 52.28125 Z M 57.25 95.265625 L 57.019531 93.394531 C 56.878906 92.265625 56.882812 91.347656 56.972656 90.210938 L 57.234375 86.910156 C 56.914062 88.03125 56.273438 89.144531 55.953125 90.265625 L 55.660156 91.40625 C 50.859375 92.382812 46.132812 92.449219 41.351562 91.59375 L 40.363281 86.652344 C 40.269531 88.132812 40.328125 92.226562 40.324219 94.519531 C 40.316406 96.296875 40.242188 96.902344 39.328125 98.414062 C 38.46875 99.828125 38.128906 100.152344 36.929688 102.542969 C 37.027344 104.050781 37.027344 105.046875 36.628906 106.476562 C 35.960938 108.878906 29.238281 107.015625 27.46875 106.527344 C 25.285156 105.929688 20.769531 105.042969 21.902344 102.128906 C 22.902344 99.566406 23.535156 96.863281 24.023438 93.28125 C 20.023438 87.515625 16.304688 79.621094 15.589844 72.621094 C 15.035156 67.1875 15.386719 63.820312 16.542969 60.519531 C 18.40625 55.253906 21.011719 50.695312 25.195312 47.023438 C 30.835938 42.074219 36.109375 40.085938 44.367188 38.828125 C 42.378906 41.027344 40.414062 43.402344 38.273438 45.921875 C 36.105469 48.472656 34.816406 51.050781 33.441406 53.84375 C 31.542969 57.695312 31.582031 59.160156 34.101562 62.546875 C 36.273438 65.464844 37.445312 66.777344 38.394531 69.628906 C 37.613281 71.242188 37.328125 72.628906 37.0625 74.8125 C 39.722656 77.71875 41.699219 79.710938 44.265625 80.324219 C 46.796875 80.925781 48.910156 80.8125 51.179688 79.652344 C 56.210938 77.078125 60.867188 73.757812 66.546875 73.621094 C 69.171875 67.160156 68.90625 61.765625 67.644531 55.519531 C 66.785156 51.253906 66.441406 47.214844 66.171875 42.859375 C 65.109375 47.339844 64.90625 51.261719 65.699219 55.738281 C 66.648438 61.140625 67.390625 67.058594 64.742188 71.785156 C 59.609375 72.179688 55.207031 75.300781 50.582031 77.699219 C 48.722656 78.660156 46.785156 78.757812 44.726562 78.191406 C 42.816406 77.664062 41.527344 76.402344 39.46875 74.027344 C 39.4375 71.640625 39.972656 70.542969 41.066406 68.386719 C 42.828125 64.921875 44.769531 61.691406 46.898438 58.28125 C 44.289062 61.429688 41.816406 64.078125 39.765625 67.226562 C 38.980469 64.988281 37.859375 63.855469 35.996094 61.339844 C 34.183594 58.878906 33.992188 57.800781 35.351562 54.9375 C 36.707031 52.074219 37.871094 49.5625 40.195312 47.058594 C 44.210938 42.722656 47.886719 37.898438 52.277344 33.628906 C 54.660156 31.308594 55.628906 31.386719 58.789062 30.90625 C 61.648438 30.472656 64.4375 29.90625 67.351562 29.246094 C 64.550781 29.507812 61.804688 29.609375 59.0625 29.675781 L 58.976562 29.679688 C 61.675781 26.230469 63.242188 24.308594 67.628906 22.402344 C 78.425781 17.714844 85.285156 17.207031 93.765625 24.335938 C 95.964844 26.183594 97.882812 27.976562 100.109375 29.570312 C 99.277344 29.636719 98.457031 29.832031 97.683594 30.148438 C 98.804688 29.933594 100.101562 30.144531 101.285156 30.359375 C 101.613281 30.574219 101.949219 30.78125 102.289062 30.980469 C 103.863281 31.90625 104.757812 32.421875 105.820312 33.898438 C 106.945312 35.464844 107.878906 37.03125 108.707031 38.761719 L 107.308594 38.28125 C 106.390625 37.859375 105.324219 37.921875 104.46875 38.457031 L 104.402344 38.484375 C 103.53125 38.910156 102.203125 39.390625 101.28125 39.539062 C 101.742188 39.699219 102.761719 39.738281 103.242188 39.566406 C 103.304688 39.542969 103.371094 39.523438 103.4375 39.507812 C 102.910156 40.398438 102.878906 41.5 103.355469 42.417969 L 103.359375 42.425781 C 103.4375 42.617188 103.550781 42.792969 103.679688 42.921875 C 103.25 43.078125 102.828125 43.25 102.410156 43.433594 C 104.421875 43.128906 106.234375 43.074219 108.199219 43.335938 L 108.601562 45.273438 L 107.871094 45.328125 L 107.808594 45.335938 C 106.882812 44.597656 105.847656 44.734375 104.410156 45.039062 C 100.109375 46.039062 101.121094 48.433594 99.140625 52.070312 C 101.195312 49.558594 101.042969 46.929688 104.390625 46.140625 C 105.191406 45.957031 105.703125 45.722656 106.230469 45.804688 C 105.28125 46.285156 104.460938 47.074219 104.132812 47.992188 C 103.210938 50.589844 103.785156 52.792969 102.773438 55.199219 C 104.023438 53.03125 104.097656 50.917969 105.214844 48.636719 C 105.617188 47.839844 107.109375 46.507812 108.023438 46.488281 L 108.773438 46.472656 C 108.972656 47.910156 109.128906 49.347656 109.042969 50.53125 C 108.886719 52.699219 108.320312 55.914062 107.984375 57.144531 C 109.117188 55.691406 109.632812 52.605469 110.132812 50.4375 C 110.652344 48.175781 110.519531 45.464844 110.066406 43.035156 C 109.464844 39.703125 112.875 40.246094 114.867188 38.675781 C 116.328125 37.523438 117.339844 35.675781 118.679688 34.371094 C 120.011719 33.078125 122.109375 34.980469 122.632812 36.246094 C 124.902344 41.738281 125.9375 50.386719 125.339844 55.925781 C 124.664062 62.140625 121.660156 68.925781 116.179688 71.984375 C 109.191406 75.886719 100.949219 73.507812 94.007812 71.1875 C 92.527344 70.6875 91.496094 69.960938 90.195312 69.136719 C 90.546875 70.734375 90.710938 72.425781 90.238281 74.019531 C 89.488281 76.546875 88.277344 80.6875 91.71875 81.453125 C 93.027344 81.742188 93.617188 81.699219 95.464844 80.746094 C 94.394531 81.03125 93.269531 81.054688 92.191406 80.8125 C 91.261719 80.640625 90.765625 80.054688 90.507812 79.355469 C 90.832031 79.589844 91.363281 79.714844 92.265625 79.953125 C 94.8125 80.566406 97.238281 79.34375 97.714844 77.554688 C 97.988281 76.523438 97.945312 75.980469 98.53125 74.554688 C 99.054688 74.714844 99.601562 74.863281 100.160156 75 L 99.214844 78.085938 C 98.414062 80.757812 95.207031 82.910156 92.390625 82.859375 C 89.785156 82.8125 88.136719 81.183594 86.339844 79.585938 L 82.730469 76.382812 C 79.535156 75.453125 76.539062 73.945312 73.886719 71.941406 C 76.027344 74.453125 77.476562 75.847656 80.460938 77.101562 C 80.027344 81.527344 78.488281 84.757812 77.179688 88.992188 C 76.585938 90.90625 71.898438 98.585938 70.578125 99.332031 C 69.652344 99.867188 63.851562 104.730469 62.777344 105.394531 C 61.964844 106.476562 61.253906 107.964844 60.03125 108.613281 C 56.304688 110.578125 53.914062 106.8125 51.910156 103.625 C 50.996094 102.175781 48.464844 97.996094 50.671875 96.824219 C 52.757812 95.71875 53.929688 94.929688 56.058594 93.53125 C 56.371094 94.101562 56.90625 94.652344 57.257812 95.222656 Z M 70.195312 102.015625 C 68.308594 103.535156 65.136719 106.214844 64.523438 106.570312 C 63.410156 108.230469 63.273438 109.261719 61.488281 110.226562 C 56.175781 113.101562 53.359375 109.765625 50.214844 104.921875 C 48.714844 102.613281 45.441406 97.320312 48.914062 95.554688 C 50.378906 94.804688 51.488281 94.234375 52.59375 93.597656 C 48.949219 94.046875 45.367188 94.054688 41.648438 93.496094 L 41.816406 94.765625 C 42.058594 96.796875 42.136719 97.421875 41.035156 99.058594 C 40.226562 100.253906 39.917969 100.597656 38.945312 102.769531 C 39.148438 104.316406 39.011719 105.886719 38.546875 107.375 C 37.441406 111.480469 29.773438 109.230469 26.648438 108.386719 C 22.886719 107.371094 17.515625 106.421875 19.71875 101.585938 C 20.234375 100.453125 20.640625 99.292969 20.949219 98.191406 C 17.660156 99.644531 13.09375 96.558594 10.914062 94.375 C 8.84375 92.300781 7.71875 89.890625 7.328125 87.550781 C 6.992188 85.5625 7.300781 85.550781 8.71875 84.164062 L 12.621094 80.304688 L 14.195312 76.023438 C 13.988281 74.957031 13.839844 73.894531 13.746094 72.824219 C 13.347656 68.433594 13.496094 65.308594 14.125 62.433594 C 11.835938 63.324219 9.210938 62.90625 8.042969 60.476562 C 7.601562 59.554688 7.335938 58.613281 7 57.25 C 1.894531 52.328125 11.460938 45.890625 14.25 45.402344 C 13.929688 46.308594 13.582031 47.136719 13.273438 47.960938 C 15.164062 48.960938 14.933594 51.730469 14.535156 53.53125 C 13.855469 52.671875 13.476562 51.53125 12.472656 51.5 C 12.328125 53.53125 12.355469 55.78125 10.765625 56.96875 C 11.234375 58.226562 11.210938 58.226562 12.566406 57.714844 C 14.460938 56.984375 15.890625 55.359375 17.324219 53.769531 C 18.871094 50.757812 20.855469 48.074219 23.585938 45.65625 C 30.289062 39.714844 36.625 37.769531 46.828125 36.144531 C 48.195312 34.714844 49.617188 33.339844 51.097656 32.03125 C 53.136719 30.230469 54.464844 29.855469 56.394531 29.753906 C 59.589844 25.480469 62.101562 22.507812 67.308594 20.3125 C 78.222656 15.71875 85.746094 15.496094 94.507812 22.722656 C 97.402344 25.109375 99.871094 27.621094 103.054688 29.617188 C 104.664062 30.625 105.8125 31.351562 107.054688 32.804688 C 108.589844 34.636719 109.84375 36.464844 110.714844 38.820312 C 111.84375 38.355469 113.128906 37.921875 114.164062 37.03125 C 115.507812 35.886719 116.359375 33.972656 117.601562 32.710938 C 119.25 31.042969 123.011719 33.058594 123.84375 34.652344 C 126.675781 40.050781 127.832031 50.058594 127.230469 55.996094 C 126.484375 63.335938 123.460938 70.277344 116.988281 73.730469 C 112.589844 76.074219 106.691406 76.292969 101.636719 75.339844 L 100.636719 78.570312 C 99.636719 81.800781 95.820312 84.4375 92.472656 84.597656 C 89.257812 84.746094 87.511719 83.089844 85.402344 81.054688 L 82.085938 77.855469 C 82.023438 78.558594 81.929688 79.257812 81.804688 79.953125 C 82.679688 81.671875 83.097656 83.183594 83.84375 84.957031 C 84.640625 86.910156 85.042969 88.191406 85.117188 90.28125 L 85.265625 95.847656 C 86.09375 97.316406 86.164062 97.675781 86.066406 99.359375 C 85.8125 102.902344 83.859375 103.242188 80.605469 103.222656 C 79.523438 103.214844 75.40625 103.242188 74.40625 103.164062 C 72.332031 103.015625 70.964844 102.859375 70.25 102.003906 Z M 81.167969 82.671875 C 80.515625 85.011719 79.632812 87.214844 78.828125 89.746094 C 78.066406 92.140625 74.167969 99.097656 71.875 100.78125 C 72.320312 101.113281 73.140625 101.238281 74.601562 101.367188 C 75.636719 101.457031 79.710938 101.476562 80.730469 101.492188 C 82.984375 101.535156 83.839844 101.363281 84.066406 98.800781 C 84.179688 97.542969 84.078125 97.308594 83.453125 96.210938 L 83.285156 90.320312 C 83.234375 88.460938 82.875 87.386719 82.144531 85.652344 C 81.707031 84.613281 81.46875 83.644531 81.171875 82.667969 Z M 12.566406 50.550781 C 13.074219 50.488281 13.367188 50.757812 13.777344 51.148438 C 13.707031 50.214844 13.535156 49.523438 12.878906 49.140625 C 12.832031 49.292969 12.789062 49.449219 12.746094 49.601562 C 12.667969 49.917969 12.601562 50.234375 12.546875 50.554688 Z M 15.742188 57.296875 C 15.375 58.257812 15.035156 59.226562 14.722656 60.210938 L 14.570312 60.710938 C 12.648438 61.527344 10.121094 62.042969 9.171875 60.023438 C 8.703125 59.023438 8.4375 58.078125 8.09375 56.839844 C 4.925781 53.558594 9.660156 49.226562 12.238281 47.671875 C 11.863281 48.472656 11.597656 49.082031 11.4375 49.707031 C 10.652344 52.414062 11.792969 54.835938 9.335938 56.796875 C 10.488281 59.128906 10.433594 60.058594 13.125 58.980469 C 14.164062 58.566406 15.019531 57.980469 15.78125 57.292969 Z M 15.003906 79.375 C 16.464844 84.414062 18.945312 89.371094 21.695312 93.535156 L 21.695312 93.609375 C 21.523438 94.324219 21.324219 95.023438 20.90625 95.582031 C 18.9375 98.214844 13.9375 94.351562 12.507812 92.871094 C 10.921875 91.257812 9.863281 89.339844 9.609375 87.546875 C 9.425781 86.234375 9.605469 86.207031 10.519531 85.277344 L 14.214844 81.539062 L 15.023438 79.378906 Z M 108.15625 38.910156 C 108.4375 39.191406 108.664062 39.519531 108.820312 39.886719 C 108.90625 39.804688 108.996094 39.734375 109.09375 39.664062 L 108.738281 38.898438 L 108.140625 38.914062 Z M 84.058594 48 C 83.804688 47.460938 83.660156 46.894531 83.675781 46.335938 C 82.730469 47.089844 81.707031 47.804688 80.640625 48.214844 C 82.109375 46.898438 84.109375 43.804688 85.554688 42.824219 C 87.195312 41.714844 89.429688 41.933594 91.34375 41.027344 C 90.691406 41.621094 89.851562 42.097656 88.996094 42.554688 C 89.9375 42.898438 90.75 43.59375 91.214844 44.566406 C 91.402344 44.964844 91.527344 45.394531 91.574219 45.832031 C 92.859375 45.433594 94.125 45.230469 95.175781 45.222656 C 91.375 46.296875 87.292969 48.824219 84.492188 52.121094 C 84.800781 51.277344 85.234375 50.488281 85.777344 49.777344 C 85.019531 49.378906 84.410156 48.75 84.042969 47.976562 Z M 66.355469 34.191406 C 64.371094 34.972656 62.339844 35.625 60.269531 36.144531 C 58.394531 38.609375 57.269531 39.886719 56.820312 43.191406 C 56.3125 39.941406 56.207031 39.339844 57.65625 36.910156 C 57.257812 37.121094 56.847656 37.414062 56.289062 37.894531 C 54.289062 39.621094 51.632812 46.414062 50.578125 48.839844 C 51.246094 45.917969 53.339844 38.613281 55.492188 36.484375 C 56.90625 35.085938 57.230469 35.117188 59.226562 34.929688 L 66.355469 34.1875 Z M 110.355469 41.273438 C 112.066406 41.433594 113.042969 41.699219 114.554688 40.941406 C 117.410156 39.53125 119.511719 37.222656 120.871094 34.464844 C 120.039062 37.757812 118.363281 40.550781 114.882812 41.792969 C 113.175781 42.398438 112.074219 41.773438 110.335938 41.273438 Z M 77.554688 41.59375 C 78.199219 38.738281 79.34375 35.992188 83.757812 33.863281 C 77.882812 35.335938 76.78125 37.804688 77.554688 41.59375 Z M 1.398438 56.941406 C 1.902344 51.234375 3.015625 48.769531 7.066406 44.476562 C 1.960938 48.058594 0.691406 49.691406 1.398438 56.941406 "/>
<path style=" stroke:none;fill-rule:evenodd;fill:rgb(92.941176%,84.313725%,28.627451%);fill-opacity:1;" d="M 84.800781 48.902344 C 84.414062 48.082031 84.761719 47.101562 85.578125 46.703125 C 86.40625 46.3125 87.390625 46.660156 87.785156 47.484375 C 87.824219 47.5625 87.855469 47.640625 87.878906 47.722656 C 87.09375 48.320312 86.371094 48.992188 85.769531 49.789062 C 85.347656 49.625 85 49.3125 84.800781 48.90625 M 103.191406 41.792969 C 103.21875 41.46875 103.375 41.167969 103.621094 40.957031 C 103.871094 40.746094 104.195312 40.648438 104.519531 40.675781 C 104.84375 40.707031 105.148438 40.867188 105.355469 41.121094 C 105.566406 41.375 105.664062 41.703125 105.632812 42.03125 C 105.621094 42.171875 105.582031 42.308594 105.523438 42.4375 C 104.878906 42.554688 104.246094 42.726562 103.636719 42.960938 C 103.339844 42.644531 103.183594 42.222656 103.191406 41.792969 "/>
</g>
</svg>
