<svg xmlns="http://www.w3.org/2000/svg" viewBox="0 0 128 128"><path d="M21.91.007c-1.485.068-3.021.634-3.785 2.433a43.472 43.472 0 0 0-1.826 12.138l6.522 3.156a82.741 82.741 0 0 1 .455-11.615 73.289 73.289 0 0 0-.013 11.46 126.329 126.329 0 0 0 9.665-9.144A13.913 13.913 0 0 0 25.647.66S23.821-.08 21.91.007zm1.353 17.571c.103 1.83.262 3.879.46 6.147.004.116.017.238.04.353.188 1.983.43 4.116.741 6.442.263 2.009.559 4.116.915 6.402.294 1.972.66 4.04 1.034 6.234l-.034.029c.067.057.076.103.072.134.053.295.107.554.156.852.17.867.322 1.746.5 2.63.183.964.384 1.946.576 2.955.094.509.193 1.017.299 1.536.318 1.554.661 3.148 1.013 4.785.456 2.019.911 4.09 1.42 6.246.46 2.04.995 4.166 1.536 6.326.526 2.062 1.057 4.174 1.642 6.361.514 1.933 1.063 3.92 1.62 5.942 0 .094.067.2.086.299a722.705 722.705 0 0 0 1.763 6.183.349.349 0 0 0 .04.134l2.643-2.433c-.066 0-.115.058-.205.094a25.348 25.348 0 0 0 .975-1.257 27.826 27.826 0 0 1 .237.594 13.977 13.977 0 0 1-1.007.591l-2.643 2.433c.099.303.178.606.295.924.393 1.397.838 2.849 1.29 4.306a12.762 12.762 0 0 1-1.603-.759 856.995 856.995 0 0 1-.995-3.453c-.111-.411-.227-.795-.34-1.21l-.022-.011a652.583 652.583 0 0 1-1.366-4.888c-.129-.478-.245-.944-.38-1.422-.553-2.066-1.108-4.165-1.669-6.281a412.986 412.986 0 0 1-1.544-6.154c-.509-2.077-.996-4.167-1.483-6.252-.482-2.088-.96-4.27-1.406-6.4-.451-2.13-.87-4.256-1.29-6.372-.15-.768-.287-1.513-.424-2.286-.241-1.303-.46-2.62-.696-3.942a.706.706 0 0 0-.045-.214l-8.665-4.422c.023.137.032.275.036.417.174 1.96.339 3.953.576 5.945.232 1.986.481 4.066.785 6.129.255 1.737.531 3.458.817 5.198.057.344.13.708.188 1.047a125.375 125.375 0 0 0 2.92 12.375c.374 1.258.745 2.477 1.124 3.63.33.967.687 1.941 1.031 2.901a84.105 84.105 0 0 0 2.741 6.576l.025.013c.026.087.055.169.096.253a67.87 67.87 0 0 0 4.027 7.437c.048.07.098.173.151.245a17.72 17.72 0 0 0-6.673-.513 24.508 24.508 0 0 1 10.754 6.268 11.274 11.274 0 0 1-5.085 2.549 11.243 11.243 0 0 0 5.58-.496 13.73 13.73 0 0 0-3.393 6.616 14.106 14.106 0 0 1 5.51-5.834c.413 1.37.861 2.79 1.3 4.196-3.883 7.568-7.835 15.71-11.863 24.294a2.97 2.97 0 0 0 2.286-1.665c.704-1.5 4.447-9.484 10.183-20.683 2.205 6.956 4.691 14.3 7.392 21.928a2.65 2.65 0 0 0 .41-2.473c-.525-1.445-3.383-9.532-6.979-21.05a756.775 756.775 0 0 1 2.572-4.945 8.793 8.793 0 0 1 1.96.752 9.966 9.966 0 0 1 2.698 4.538 8.091 8.091 0 0 0-1.772-5.861c7.12 1.375 13.588.46 17.535-4.317a21.27 21.27 0 0 0 1.009-1.375 6.958 6.958 0 0 1-7.004 1.455 19.477 19.477 0 0 0 10.861-6.53 40.678 40.678 0 0 0 1.973-2.554 15.792 15.792 0 0 1-15.464 2.625l-.049-.003c-.06-.023-.121-.037-.2-.069a28.706 28.706 0 0 0 16.49-6.352 38.673 38.673 0 0 0 6.254-6.447 63.286 63.286 0 0 0 4.37-6.477 99.2 99.2 0 0 0 3.724-6.906 14.79 14.79 0 0 1-3.933.74l-.772.04h-.786a17.463 17.463 0 0 0 10.634-7.713 16.39 16.39 0 0 1-5.706 1.571c-.308.032-.638.032-.968.036h-.25a18.171 18.171 0 0 0 4.316-1.643c.268-.138.531-.29.782-.46.392-.245.759-.517 1.125-.794.236-.192.459-.366.692-.558a12.67 12.67 0 0 0 1.49-1.532c.157-.178.305-.335.43-.522.191-.272.378-.523.544-.781a46.685 46.685 0 0 0 2.009-3.125c.267-.455.508-.888.719-1.29.075-.165.17-.304.25-.456.219-.46.428-.852.58-1.21.183-.41.348-.833.486-1.267a2.67 2.67 0 0 1-.571.268 19.337 19.337 0 0 1-5.781 1.08c-.026-.014-.054-.014-.076 0a6.486 6.486 0 0 0-.406 0 15.49 15.49 0 0 0 7.656-4.393 51.908 51.908 0 0 0 1.544-1.723 75.627 75.627 0 0 0 4.603-5.857 64.303 64.303 0 0 0 3.656-5.719 33.874 33.874 0 0 0 1.603-3.16 37.78 37.78 0 0 0 .915-2.398c-4.999.13-10.001.005-14.986-.37a184.48 184.48 0 0 0-4.51 5.321 2.192 2.192 0 0 0-.25.317 204.008 204.008 0 0 0-4.521 5.777c-1.37 1.826-2.835 3.768-4.362 5.897-1.326 1.815-2.666 3.766-4.089 5.815l-.09-.003c.024.085-.009.13-.035.152-.192.272-.358.532-.55.804-.553.834-1.13 1.66-1.687 2.513a238.212 238.212 0 0 1-1.888 2.84c-.321.486-.647.968-.978 1.477-.982 1.505-1.969 3.057-2.99 4.656a397.668 397.668 0 0 0-3.818 6.152 574.693 574.693 0 0 0-3.79 6.312c-1.213 2.076-2.46 4.2-3.727 6.402-1.126 1.963-2.26 4-3.429 6.085-.063.089-.106.21-.17.303a605.526 605.526 0 0 0-3.495 6.402.34.34 0 0 0-.067.125h-.004c-.174.348-.354.656-.518.986a415.342 415.342 0 0 0-2.768 5.219c0 .023-.031.044-.036.067-.138.263-.276.495-.388.754-.625 1.184-1.174 2.292-2.408 4.67a7.136 7.136 0 0 0-1.257-.967c.612-1.164 1.205-2.303 1.848-3.51.25-.457.518-.938.768-1.434l.21-.397c.941-1.737 1.91-3.522 2.915-5.348.236-.423.455-.825.687-1.246v-.022l-.977-2.917a18.168 18.168 0 0 0-.016-.103l1.002 2.989c.915-1.67 1.858-3.33 2.795-5.031.25-.45.535-.915.799-1.41 1.196-2.108 2.418-4.232 3.656-6.403a338.51 338.51 0 0 1 3.66-6.178c1.254-2.066 2.51-4.143 3.773-6.214a322.68 322.68 0 0 1 3.964-6.286c1.343-2.085 2.683-4.111 4.018-6.151a99.312 99.312 0 0 1 1.487-2.188c.844-1.246 1.71-2.49 2.575-3.727.037-.068.093-.138.13-.21l.004.013c1.397-1.888 2.764-3.8 4.13-5.67a364.242 364.242 0 0 1 4.424-5.812 158.423 158.423 0 0 1 4.634-5.656c.089-.115.187-.223.272-.317a154.46 154.46 0 0 1 4.571-5.102l-2.74-7.706c-.328.309-.674.612-1.028.938a156.351 156.351 0 0 0-4.04 3.888 253.893 253.893 0 0 0-4.866 4.991 251.966 251.966 0 0 0-4.674 5.112 297.728 297.728 0 0 0-4.03 4.683l-.157.178.016.047a3.422 3.422 0 0 1-.28.333c-1.419 1.718-2.86 3.455-4.272 5.254a211.171 211.171 0 0 0-4.236 5.562 303.164 303.164 0 0 0-3.473 4.835c-.228.322-.46.669-.679.991-1.371 2.054-2.701 4.066-3.87 6a129.467 129.467 0 0 0-3.607 6.286 153.528 153.528 0 0 0-1.983 3.816c-.504 1.04-.99 2.108-1.473 3.152a97.516 97.516 0 0 0-3.022 7.469l.458 1.364a13.977 13.977 0 0 1-.012.024l-.455-1.357c-.054.103-.098.21-.134.317a77.264 77.264 0 0 0-1.536 4.79 13.977 13.977 0 0 1-2.676 2.652 20.048 20.048 0 0 0-.71-.994 25.348 25.348 0 0 0 4.498-11.73 33.998 33.998 0 0 0-.085-7.941 54.022 54.022 0 0 0-1.268-6.795 89.685 89.685 0 0 0-1.941-6.656 13.274 13.274 0 0 1-2.018 2.915l-.456.5c-.152.17-.322.318-.49.496a15.428 15.428 0 0 0 1.901-11.46 14.512 14.512 0 0 1-2.616 4.531c-.174.21-.38.415-.585.621-.054.04-.094.094-.165.152a15.931 15.931 0 0 0 1.696-3.723c.08-.255.149-.514.197-.777.094-.398.156-.801.214-1.201.023-.269.067-.514.09-.781a11.114 11.114 0 0 0 0-1.889c0-.209 0-.396-.05-.593-.053-.294-.089-.567-.143-.835a46.89 46.89 0 0 0-.683-3.2 23.717 23.717 0 0 0-.348-1.255c-.053-.152-.08-.3-.134-.46-.143-.415-.258-.8-.384-1.116a11.676 11.676 0 0 0-.482-1.107 2.446 2.446 0 0 1-.192.522 17.159 17.159 0 0 1-2.877 4.16l-.11.099a.091.091 0 0 0-.04.058 5.131 5.131 0 0 0-.357.397c0-.023.022-.042.036-.062l.05-.045a13.684 13.684 0 0 0 2.088-7.531c0-.652-.048-1.34-.102-2.045a64.467 64.467 0 0 0-.723-6.544 56.211 56.211 0 0 0-1.237-5.884 32.244 32.244 0 0 0-.955-2.987 37.099 37.099 0 0 0-.915-2.071 131.952 131.952 0 0 1-9.67 9.09zm81.784-13.861a4.499 4.499 0 0 0-1.66.357 49.325 49.325 0 0 0-11.094 8.33l2.74 7.728a91.8 91.8 0 0 1 9.603-8.982 81.998 81.998 0 0 0-9.142 9.2 144 144 0 0 0 15.03.33 15.748 15.748 0 0 0 .322-12.066s-2.139-4.948-5.799-4.897zM16.294 14.592c0 .392-.044.799-.062 1.227-.063 1.558-.111 3.2-.125 4.96 0 1.963 0 4.013.036 6.156.044 1.977.129 4.036.232 6.13.107 1.79.223 3.598.37 5.446v.21l8.714 4.41c-.29-2.058-.606-4.106-.915-6.138a264.993 264.993 0 0 1-.821-6.397 128.192 128.192 0 0 1-.598-6.438c0-.13-.023-.258 0-.37a102.286 102.286 0 0 1-.317-6.058Zm74.03 29.38.043.003a6.486 6.486 0 0 0-.047 0l.004-.002zM48.115 80.5l.748 2.236a6.156 6.156 0 0 1-.007.036l-.747-2.232a17.208 17.208 0 0 0 .006-.04zM37.328 92.766a12.672 12.672 0 0 0 1.879 1.692c.112.37.33 1.055.455 1.456a15.547 15.547 0 0 0-1.352.196c-.059-.195-.114-.373-.172-.57-.134-.46-.256-.915-.406-1.374-.042-.13-.072-.246-.112-.384a856.995 856.995 0 0 1-.292-1.016zm1.91 4.775a15.917 15.917 0 0 1 .978.156c.136.437.168.533.346 1.107a8.793 8.793 0 0 1 1.27.047c-.563 1.067-1.13 2.174-1.696 3.268-.453-1.466-.92-3-1.389-4.56a15.917 15.917 0 0 1 .491-.018z" /></svg>
