<svg xmlns="http://www.w3.org/2000/svg" viewBox="0 0 128 128"><path d="M6.433 47.839a.702.702 0 0 1-.196.042c-.024-.03-.075-.03-.154 0-.308.075-.541.204-.695.383a4.975 4.975 0 0 0-.196.462 33.354 33.354 0 0 0-.154.578c-.049.204-.103.42-.154.654a9.49 9.49 0 0 1-.079.537l-1.082 5.39-2.901 14.32-.658 3.388c-.054.283-.105.566-.158.849-.026.254.03.445.158.574.13.13.308.209.541.233H3.49a5.176 5.176 0 0 1 .62.038 2.023 2.023 0 0 0 .583-.08c.308-.048.53-.167.658-.345a.823.823 0 0 0 .229-.5c.054-.203.103-.413.158-.615l.387-1.886 2.048-10.24c.079-.282.142-.566.196-.845a10.368 10.368 0 0 0 .191-.849l.08-.579a1.562 1.562 0 0 1 .19-.574 2.272 2.272 0 0 0 .159-.541.578.578 0 0 1 .308-.383c.079-.053.13-.053.154 0a.54.54 0 0 1 .154.112 3.322 3.322 0 0 1 .233.887 9.113 9.113 0 0 1 .35 1.927 46.37 46.37 0 0 0 .27 1.96 17.63 17.63 0 0 1 .233 1.657c.075.562.166 1.104.27 1.615.075.258.117.517.117.77a7.022 7.022 0 0 0 .117.77.437.437 0 0 1 .037.192v.196a7.992 7.992 0 0 1 .117.77 3.19 3.19 0 0 0 .154.728.758.758 0 0 1 .037.233v.192a5.972 5.972 0 0 1 .159.999 5.503 5.503 0 0 0 .154.965l.037.346a5.519 5.519 0 0 1 .154.962 11.894 11.894 0 0 0 .117.924 3.4 3.4 0 0 1 .154.616c.053.153.17.295.35.424.078.075.22.13.424.154a5.403 5.403 0 0 0 .658.038h.736a7.001 7.001 0 0 1 .658-.038h.89c.209-.053.377-.079.504-.079a1.172 1.172 0 0 0 .425-.191c.129-.105.245-.234.35-.383a8.914 8.914 0 0 0 .308-.504 6.558 6.558 0 0 0 .466-.845 9.208 9.208 0 0 1 .504-.887c.074-.075.116-.154.116-.228a.58.58 0 0 1 .154-.234 97.205 97.205 0 0 0 1.199-2.23c.387-.771.812-1.528 1.278-2.273a5.333 5.333 0 0 0 .387-.77c.129-.254.271-.5.425-.733.183-.254.324-.512.424-.766a6.628 6.628 0 0 1 .429-.733 1.22 1.22 0 0 0 .116-.233.774.774 0 0 1 .117-.266 10.318 10.318 0 0 0 .541-1.003c.18-.334.375-.666.579-1a1.854 1.854 0 0 0 .233-.461c.079-.154.154-.308.233-.462.258-.413.491-.823.695-1.233.233-.41.465-.807.7-1.194.074-.13.154-.253.228-.383a1.78 1.78 0 0 1 .35-.387c.025-.026.067-.064.116-.117.052-.05.117-.063.192-.037.13.053.17.18.116.387a2.209 2.209 0 0 0 0 .574c0 .208-.025.425-.074.658-.055.205-.104.408-.154.616-.055.334-.117.666-.196.999-.05.308-.104.641-.154 1l-2.015 9.893-.387 1.965c-.05.23-.1.451-.154.654-.025.204.001.371.08.5.075.153.178.245.307.27a3.914 3.914 0 0 1 .504.116h3.675a1.279 1.279 0 0 0 .62-.233 1.03 1.03 0 0 0 .388-.574c.079-.284.141-.567.195-.85l.658-3.35 2.901-14.32 1.162-5.773c.08-.437.154-.857.233-1.27.104-.436.025-.732-.233-.886-.105-.1-.283-.154-.541-.154h-6.656a1.038 1.038 0 0 0-.62.196 1.396 1.396 0 0 0-.542.5c-.13.204-.245.407-.35.615-.207.408-.424.82-.657 1.232-.208.383-.412.783-.62 1.19a403.75 403.75 0 0 1-2.514 4.775c-.83 1.566-1.652 3.131-2.481 4.696-.333.59-.64 1.181-.929 1.773-.283.561-.578 1.14-.89 1.731a8.514 8.514 0 0 0-.387.691c-.13.26-.296.413-.5.462-.079.055-.145.067-.196.042a.335.335 0 0 0-.116-.08.476.476 0 0 1-.192-.307c-.025-.13-.054-.258-.079-.383-.104-.517-.18-1.04-.233-1.582a16.152 16.152 0 0 0-.229-1.577 97.206 97.206 0 0 1-.736-4.966 74.944 74.944 0 0 0-.7-4.925c-.05-.436-.112-.862-.191-1.273-.05-.434-.105-.858-.154-1.27a5.376 5.376 0 0 1-.117-.69c-.025-.26-.116-.452-.27-.58-.183-.178-.492-.27-.929-.27zm53.466 5.96c-.308.014-.627.13-.785.5-.176.413-.312 1.307-.375 2.502l1.353.65a16.304 16.304 0 0 1 .067-2.007c-.022.393-.035 1.029.02 1.973.022.38.055.799.1 1.265 0 .03 0 .05.009.075.037.408.088.845.15 1.328.058.413.117.85.191 1.32.062.404.136.828.214 1.278l-.01.008c.013.013.016.02.013.029.011.058.025.112.033.175.038.179.067.358.104.541.038.2.08.4.12.608.022.107.039.214.063.32.067.318.138.645.208.983a95.967 95.967 0 0 0 .612 2.589c.108.424.221.861.341 1.31.105.395.22.808.338 1.229 0 .017.012.037.016.058.117.416.238.841.362 1.274.005.013.004.021.009.029l.058.191c.085.285.171.583.262.883a4.644 4.644 0 0 1-.32-.148c-.07-.237-.138-.472-.208-.718-.02-.083-.046-.162-.071-.25l-.004-.002c-.1-.327-.188-.665-.288-1.005-.024-.096-.045-.192-.075-.291-.116-.426-.228-.858-.345-1.295-.108-.416-.217-.836-.32-1.265-.105-.429-.204-.858-.309-1.29-.099-.438-.2-.88-.291-1.32-.092-.437-.179-.879-.266-1.311a8.684 8.684 0 0 1-.088-.475 56.49 56.49 0 0 1-.145-.812c-.005-.012-.004-.03-.009-.045l-1.763-.891 1.767.89c-.061-.425-.127-.848-.191-1.265a54.729 54.729 0 0 1-.17-1.32 25.85 25.85 0 0 1-.126-1.323c-.004-.03-.004-.054-.004-.08-.029-.423-.054-.84-.062-1.244l-1.349-.65-.012.255c-.012.32-.025.662-.025 1.024a43.657 43.657 0 0 0 .054 2.526c.025.371.046.746.079 1.124v.042l.008.004a43.566 43.566 0 0 0 .125 1.311c.05.417.1.838.162 1.262.055.358.113.711.171 1.074.013.066.029.14.042.212.078.444.17.875.266 1.274.103.454.22.878.337 1.273.079.262.153.512.233.75.066.199.141.4.213.599.17.462.362.912.566 1.353l.008.004c.006.02.01.036.02.054a14 14 0 0 0 .833 1.532c.012.017.023.037.034.05-.503-.2-1.39-.108-1.387-.104.92.316 1.723.703 2.232 1.29-.204.22-.58.387-1.054.525.654.071 1.02-.047 1.154-.104-.341.287-.533.808-.704 1.365.387-.628.77-1.045 1.14-1.203a134.213 134.213 0 0 0 .28.87 147.9 147.9 0 0 0-2.465 5 .607.607 0 0 0 .475-.346 145.978 145.978 0 0 1 2.116-4.257 134.213 134.213 0 0 0 1.522 4.515.538.538 0 0 0 .087-.508 121.298 121.298 0 0 1-1.438-4.333 145.978 145.978 0 0 1 .533-1.022c.145.046.294.107.447.177.214.206.369.542.508.911a1.648 1.648 0 0 0-.37-1.207c1.477.283 2.817.1 3.634-.886.07-.092.142-.183.208-.284-.358.333-.753.442-1.449.3 1.099-.312 1.685-.678 2.248-1.344a7.46 7.46 0 0 0 .408-.525c-1.041.795-2.127.904-3.201.541-.013-.008-.029-.008-.05-.016 1.012.021 2.435-.525 3.417-1.307a8.045 8.045 0 0 0 1.29-1.332c.313-.391.608-.837.908-1.337.258-.428.517-.903.77-1.419-.245.083-.52.134-.816.15-.054.004-.103.008-.158.008-.053.004-.103.004-.162.004.978-.216 1.657-.81 2.202-1.59-.267.13-.691.288-1.182.325-.063.008-.133.008-.2.008-.016-.004-.033 0-.05-.004.337-.087.629-.195.895-.337.053-.029.108-.062.158-.1a2.323 2.323 0 0 0 .233-.162c.05-.042.097-.074.146-.117.109-.09.212-.196.308-.312a.997.997 0 0 0 .087-.108c.043-.058.08-.108.117-.163a8.384 8.384 0 0 0 .562-.907c.017-.032.037-.062.05-.096.046-.096.092-.175.12-.25.05-.107.083-.195.105-.262a.46.46 0 0 1-.121.054c-.3.126-.8.208-1.195.225-.008 0-.012-.004-.016 0l-.073.002c.794-.235 1.175-.496 1.567-.897.109-.113.213-.233.32-.358a15.512 15.512 0 0 0 1.72-2.39c.133-.237.244-.452.333-.649.07-.174.133-.337.187-.495-.516.01-1.089.011-1.634 0 .547.01 1.12.008 1.638-.004.549-1.633.067-2.485.067-2.485s-.578-1.331-1.545-.937c-.47.192-1.294.803-2.301 1.715l.566 1.586.004.009a19.153 19.153 0 0 1 1.677-1.582c-.328.297-.853.806-1.577 1.627-.284.317-.595.682-.937 1.095-.016.021-.037.042-.05.062a45.43 45.43 0 0 0-.936 1.191 61.488 61.488 0 0 0-1.749 2.41h-.016c0 .021-.008.03-.013.033l-.112.167c-.116.17-.237.341-.35.52-.128.188-.258.384-.391.583l-.204.304c-.2.312-.408.629-.616.961-.262.405-.525.825-.791 1.266-.258.415-.52.853-.787 1.298-.249.43-.512.866-.77 1.324-.234.404-.47.825-.712 1.253-.012.021-.02.045-.033.063-.236.424-.482.865-.724 1.315-.008.008-.017.02-.017.029a8.643 8.643 0 0 0-.108.2c-.186.345-.383.703-.574 1.074 0 .004-.005.008-.005.012-.028.054-.057.104-.083.158-.126.242-.242.473-.495.96a1.474 1.474 0 0 0-.254-.198 145.978 145.978 0 0 1 .379-.724l.158-.296c.01-.028.029-.053.041-.083.197-.354.395-.725.604-1.099l.146-.258v-.004l-.002-.004c.182-.345.38-.684.572-1.033l.17-.295.758-1.316a109.708 109.708 0 0 1 1.536-2.551c.267-.437.541-.866.82-1.295a66.328 66.328 0 0 1 1.674-2.485c.008-.017.021-.029.025-.041l-.537-1.617.545 1.617c.288-.391.57-.783.853-1.17.308-.412.611-.808.916-1.199a34.104 34.104 0 0 1 1.965-2.28l-.57-1.587c-.068.063-.138.124-.213.196-.266.245-.545.511-.837.799-.324.324-.657.666-1.007 1.028-.316.333-.64.691-.97 1.053-.275.317-.554.634-.832.966a.303.303 0 0 0-.034.037l.003.007a.497.497 0 0 1-.06.073c-.293.353-.592.711-.883 1.082-.3.375-.59.753-.879 1.145a84.46 84.46 0 0 0-.72.994c-.046.066-.091.138-.141.204a30.462 30.462 0 0 0-1.549 2.531c-.141.27-.283.532-.408.787-.104.212-.204.433-.304.65a20.172 20.172 0 0 0-.628 1.535l.002.007a.507.507 0 0 0-.027.064c-.121.338-.23.677-.329 1.018a2.84 2.84 0 0 1-.524.493 3.85 3.85 0 0 0-.146-.168 5.638 5.638 0 0 0 .912-2.43 6.974 6.974 0 0 0-.017-1.635c-.05-.437-.142-.9-.266-1.399a17.936 17.936 0 0 0-.4-1.373 2.664 2.664 0 0 1-.42.6c-.03.036-.062.07-.092.103l-.104.104c.478-.74.538-1.536.395-2.36a2.976 2.976 0 0 1-.661 1.062c-.013.007-.02.021-.038.029a3.29 3.29 0 0 0 .354-.766 2.65 2.65 0 0 0 .042-.158c.016-.083.028-.166.041-.25.008-.053.016-.104.021-.162a2.419 2.419 0 0 0-.004-.388c-.005-.042-.004-.082-.009-.12a8.734 8.734 0 0 0-.17-.833 5.413 5.413 0 0 0-.075-.262 1.407 1.407 0 0 1-.025-.092c-.03-.087-.054-.166-.08-.229-.037-.099-.075-.175-.1-.229a.441.441 0 0 1-.04.109c-.113.262-.375.624-.617.878l-.008.012-.04.042c.348-.637.427-1.039.423-1.532a16.477 16.477 0 0 0-.021-.42 14.023 14.023 0 0 0-.154-1.353 11.733 11.733 0 0 0-.258-1.211 6.824 6.824 0 0 0-.196-.616c-.062-.155-.128-.292-.191-.43a32.8 32.8 0 0 1-.504.505c.174-.172.344-.344.504-.508-.674-1.364-1.511-1.607-1.511-1.607s-.377-.15-.772-.133zm61.661 1.054c-.016.008-.029.008-.037.008-.004-.004-.017-.004-.033 0l-.075.038a.156.156 0 0 0-.063.054.453.453 0 0 0-.037.079c-.01.024-.013.054-.017.083a1.684 1.684 0 0 0-.029.2c-.009.058.017.1.067.125a.213.213 0 0 0 .045.008.066.066 0 0 1 .057.008c.016.005.03.005.052.005.028-.005.054-.005.079-.005.067 0 .145-.004.233-.008a.416.416 0 0 1 .208.03c.057.02.083.07.08.153l-.018.108a.11.11 0 0 1-.009.071.597.597 0 0 1-.016.075l-.362 1.82c-.012.05-.02.094-.033.136a.185.185 0 0 0 .016.109c.033.041.092.062.18.062h.349a.3.3 0 0 0 .091-.017.181.181 0 0 0 .1-.083c.017-.013.025-.024.025-.041l.013-.046.016-.063a.096.096 0 0 0 .017-.058c0-.021.004-.045.009-.07l.37-1.816c.004-.037.013-.076.017-.108a.234.234 0 0 1 .029-.095.29.29 0 0 1 .15-.146.092.092 0 0 1 .058-.008c.02.008.046.004.07-.005h.117c.059 0 .124 0 .208.005a1.177 1.177 0 0 0 .196-.013.23.23 0 0 0 .1-.062.508.508 0 0 0 .07-.117l.01-.062a.436.436 0 0 0 .037-.184c0-.066-.012-.107-.037-.129a.174.174 0 0 0-.104-.033 1.203 1.203 0 0 0-.13-.008zm3.014 0c-.017.008-.029.008-.042.008-.004-.004-.013-.004-.029 0-.058.012-.1.034-.125.07a.37.37 0 0 0-.054.11c-.009.04-.02.082-.029.128l-.512 2.543c-.013.055-.016.104-.025.154 0 .046.012.08.042.1a.234.234 0 0 0 .154.046h.308c.037-.008.067-.013.096-.025a.222.222 0 0 0 .037-.02.394.394 0 0 1 .046-.042.52.52 0 0 0 .07-.2c.021-.096.034-.18.047-.246l.187-.895c0-.012 0-.032.004-.05.009-.02.012-.04.025-.062l.025-.133a.186.186 0 0 0 .012-.067c.01-.025.015-.054.033-.079a.139.139 0 0 1 .055-.066h.012c.007-.009.016-.009.025-.009a.419.419 0 0 1 .083.22l.05.263a7.659 7.659 0 0 1 .075.462 5.158 5.158 0 0 0 .08.454c.008.054.016.105.02.154a.987.987 0 0 0 .033.141c.004.025.01.05.017.075a.11.11 0 0 0 .029.063.159.159 0 0 0 .054.037.29.29 0 0 1 .07.025h.246a.28.28 0 0 0 .109-.041.472.472 0 0 0 .162-.192c.05-.09.09-.174.133-.245.092-.154.183-.312.27-.47.088-.163.18-.324.271-.484.046-.074.092-.146.133-.224a1.503 1.503 0 0 1 .138-.209.314.314 0 0 0 .054-.029c.013 0 .022 0 .025.009.017.008.02.024.02.045 0 .013.004.033.01.059a.867.867 0 0 1-.021.17c-.013.063-.02.125-.033.183l-.2.979c-.004.02-.013.045-.017.07a.256.256 0 0 0-.009.055l-.02.129c0 .05 0 .087.008.116.01.034.038.054.084.07a.202.202 0 0 0 .079.018c.033-.009.067-.009.1-.009h.216c.079 0 .132-.02.17-.062a.33.33 0 0 0 .055-.108.767.767 0 0 0 .037-.154l.504-2.502c.012-.058.016-.108.025-.154a.183.183 0 0 0-.017-.125c-.003-.013-.02-.025-.046-.03a.178.178 0 0 1-.062-.024h-.038a.307.307 0 0 0-.087 0h-.558a.511.511 0 0 0-.108.017.362.362 0 0 0-.183.17l-.125.22c-.109.171-.213.346-.312.525a7.021 7.021 0 0 1-.3.517c-.037.062-.075.124-.108.191a.993.993 0 0 1-.125.179c-.007.016-.03.033-.054.054-.021.02-.041.025-.07.013a.096.096 0 0 1-.063-.059 4.055 4.055 0 0 1-.067-.341 24.233 24.233 0 0 1-.125-.674 13.883 13.883 0 0 0-.116-.625c-.004-.067-.03-.117-.071-.145-.026-.03-.063-.042-.117-.042zm-34.961.033a4.76 4.76 0 0 1-.583.038 4.806 4.806 0 0 0-.578.037c-.443.105-.853.192-1.24.27a4.802 4.802 0 0 0-1.162.309c-2.888 1.104-5.162 2.988-6.81 5.657a6.099 6.099 0 0 0-.583 1.157 36.3 36.3 0 0 1-.504 1.27l-.308.923-.116.462a2.11 2.11 0 0 0-.117.425c0 .153-.013.291-.037.42-.055.363-.105.72-.154 1.079a5.76 5.76 0 0 0 0 1.003c0 .1-.013.204-.042.308v.266c.079.308.117.616.117.924a5.06 5.06 0 0 0 .154.85 7.186 7.186 0 0 0 1.086 2.385 8.86 8.86 0 0 0 1.857 1.773 3.96 3.96 0 0 0 .62.345 13 13 0 0 1 .737.267 2.004 2.004 0 0 0 .695.27 8.702 8.702 0 0 0 .853.192.81.81 0 0 0 .387.079 1.166 1.166 0 0 1 .425.075 1.121 1.121 0 0 0 .503.041 1.955 1.955 0 0 1 .542 0c.129.026.27.038.424.038a.991.991 0 0 0 .466-.038h.425a1.332 1.332 0 0 1 .308-.041.71.71 0 0 0 .35 0 8.1 8.1 0 0 1 .928-.154 3.847 3.847 0 0 0 .89-.192c1.162-.359 2.157-.795 2.981-1.307.828-.516 1.602-1.194 2.323-2.04a9.59 9.59 0 0 0 .695-.849 7.209 7.209 0 0 0 .662-.961.905.905 0 0 0 .112-.462c.03-.18 0-.297-.075-.346-.103-.08-.271-.142-.503-.191h-.388a.884.884 0 0 0-.466-.042h-1.586c-.388-.024-.72.025-1.007.154a1.684 1.684 0 0 0-.579.387c-.179.155-.349.32-.503.5a4.081 4.081 0 0 1-.854.616c-.358.203-.683.372-.965.5-.234.08-.466.153-.695.232l-.737.154h-.35c-.283.05-.603.062-.966.038a4.923 4.923 0 0 1-.815-.117 2.824 2.824 0 0 0-.658-.154 1.65 1.65 0 0 1-.579-.27c-.437-.308-.773-.653-1.007-1.037-.204-.411-.35-.923-.425-1.54a2.719 2.719 0 0 1-.037-.424 1.46 1.46 0 0 0 0-.462.74.74 0 0 1 .112-.383 2.408 2.408 0 0 1 .233-.308c.08-.105.232-.208.467-.308a1.087 1.087 0 0 1 .424-.08h9.986a8.87 8.87 0 0 1 .774.038h.891c.308-.026.596-.05.853-.075.26-.05.451-.129.579-.233.153-.075.283-.242.387-.5.103-.253.154-.487.154-.69l.08-.425a1.959 1.959 0 0 1 .037-.654 2.35 2.35 0 0 0 .116-.695c-.025-.358-.049-.716-.079-1.078 0-.358-.025-.703-.075-1.036a27.248 27.248 0 0 0-.154-.77c-.03-.26-.078-.5-.158-.733a27.943 27.943 0 0 1-.425-.887 5.665 5.665 0 0 0-.387-.882.645.645 0 0 1-.27-.308 2.516 2.516 0 0 0-.504-.579 3.848 3.848 0 0 0-.578-.537c-.645-.515-1.408-.924-2.286-1.232-.879-.338-1.973-.49-3.288-.462Zm-42.724.038c-.075.05-.216.063-.425.037-.208-.024-.362-.024-.462 0a7.513 7.513 0 0 1-1.049.154c-.332.026-.67.08-1.003.154a38.5 38.5 0 0 0-1.628.5 7.102 7.102 0 0 0-1.51.657 6.92 6.92 0 0 0-.425.23c-.104.078-.233.165-.387.27a.777.777 0 0 1-.27.191c-.363.258-.671.524-.93.808a25.042 25.042 0 0 0-.307.387c-.105.126-.208.255-.312.383a7.946 7.946 0 0 0-.462.695c-.13.228-.26.488-.388.77-.055.1-.103.218-.158.346a1.044 1.044 0 0 0-.075.383c.026.283.13.449.308.499a.26.26 0 0 0 .196.08.437.437 0 0 1 .191.037h.35a1.016 1.016 0 0 0 .308.037 2.717 2.717 0 0 1 .429-.037h2.164a2.77 2.77 0 0 0 .658-.075c.312-.08.529-.233.658-.462a8.738 8.738 0 0 1 .466-.733c.079-.154.208-.32.387-.5a3.5 3.5 0 0 1 .966-.695 1.897 1.897 0 0 1 .503-.229 5.03 5.03 0 0 1 .816-.191c.333-.054.67-.08 1.004-.08a4.155 4.155 0 0 1 .97.038 3.271 3.271 0 0 1 .811.154c.775.284 1.211.812 1.315 1.582v.575c-.025.055-.05.128-.074.233a.318.318 0 0 1-.08.229.362.362 0 0 0-.037.154.532.532 0 0 1-.042.191 2.824 2.824 0 0 1-.616.77 3.24 3.24 0 0 1-1.394.695 24.683 24.683 0 0 0-1.549.308c-.207.05-.4.075-.578.075a2.057 2.057 0 0 0-.546.08c-.229.05-.437.074-.616.074a1.279 1.279 0 0 0-.545.042 6.191 6.191 0 0 1-.732.112c-.234 0-.455.03-.658.08-.387.074-.762.14-1.124.19a5.35 5.35 0 0 0-1.082.271c-.958.284-1.757.617-2.402 1-.646.387-1.253.949-1.82 1.694-.178.233-.348.5-.503.807-.129.284-.259.566-.387.85a3.103 3.103 0 0 1-.191.653c-.055.104-.105.283-.154.54a4.19 4.19 0 0 0-.042.459 1.066 1.066 0 0 1-.075.387.85.85 0 0 0 0 .383c.026.233.038.449.038.657a3.42 3.42 0 0 0 .116.575c.154.746.45 1.348.89 1.81.438.438 1.004.796 1.703 1.079a1.55 1.55 0 0 0 .62.191 33.306 33.306 0 0 0 .696.154.89.89 0 0 0 .466.038 2.05 2.05 0 0 1 .541.079h.346a2.014 2.014 0 0 0 .774 0h.429a.733.733 0 0 0 .228-.038h.234c.183-.025.35-.054.503-.079.184 0 .374-.026.583-.075.387-.104.773-.196 1.161-.27a8.46 8.46 0 0 0 1.12-.387 8.56 8.56 0 0 0 .504-.23c.183-.074.35-.167.503-.27a2.387 2.387 0 0 0 .388-.191 2.195 2.195 0 0 1 .424-.192c.129-.024.22-.011.27.038a.465.465 0 0 1 .196.116 1.041 1.041 0 0 1 .27.5.74.74 0 0 0 .309.424c.104.1.258.166.466.192h3.405a1.463 1.463 0 0 0 .583-.117.725.725 0 0 0 .503-.574c.05-.283.075-.566.075-.85v-.228c.026-.104.038-.196.038-.27a5.19 5.19 0 0 1 .116-1.35c.104-.511.196-1.012.271-1.502l1.744-8.583a21.088 21.088 0 0 0 .308-1.732c.08-.566.08-1.066 0-1.503-.153-.74-.474-1.345-.966-1.806-.465-.487-1.07-.875-1.819-1.157-.724-.28-1.561-.476-2.518-.575a22.122 22.122 0 0 0-2.98-.116zm67.387 0c-.051.025-.154.037-.308.037a.802.802 0 0 0-.35 0c-.307.05-.595.091-.853.117-.23.025-.475.075-.733.154a11.56 11.56 0 0 0-2.556 1.232c-.233.13-.466.309-.695.537-.233.208-.477.295-.736.27a1.651 1.651 0 0 0-.196-.116c-.026-.026-.05-.101-.075-.23a.373.373 0 0 1 0-.232.869.869 0 0 0 .038-.267c0-.208-.025-.387-.075-.54a.459.459 0 0 0-.275-.346 1.655 1.655 0 0 0-.541-.08 4.304 4.304 0 0 0-.579-.037h-2.054c-.129 0-.257.013-.385.038h-.196c-.13.025-.255.067-.383.116a.424.424 0 0 0-.276.154 1.028 1.028 0 0 0-.344.579c-.054.229-.106.487-.156.77l-.427 1.96-1.704 8.471-1.043 5.237a39.78 39.78 0 0 1-.27 1.232c-.105.433-.081.766.077.999.074.154.26.246.543.27.283.026.565.038.849.038h1.936a5.686 5.686 0 0 0 1.044-.08 1.037 1.037 0 0 0 .737-.499 1.737 1.737 0 0 0 .233-.574c.05-.234.104-.462.154-.695l.466-2.348.966-4.812a36.492 36.492 0 0 1 .966-3.813c.387-1.127 1.06-1.985 2.014-2.576.413-.258.929-.462 1.549-.617a.758.758 0 0 1 .233-.037c.076 0 .18-.013.308-.042a1.93 1.93 0 0 1 .425-.037 1.68 1.68 0 0 1 .503 0c.13.05.26.079.387.079a1.19 1.19 0 0 1 .43.075c.645.205 1.094.567 1.352 1.078.283.566.375 1.257.27 2.077-.074.8-.203 1.67-.387 2.618L113 70.82l-.542 2.698c-.05.279-.105.55-.154.807a1.043 1.043 0 0 0 .075.575c.104.183.27.296.504.35.232.025.502.037.815.037h2.706a1.673 1.673 0 0 0 .545-.08c.387-.124.634-.407.733-.844.104-.462.209-.937.312-1.424l1.278-6.235.658-3.426c.074-.362.154-.732.229-1.12a9.05 9.05 0 0 0 .158-1.115c-.029-.05-.014-.154.037-.308a1.936 1.936 0 0 1 0-.537 2.284 2.284 0 0 0 0-.579 11.49 11.49 0 0 0-.116-.962 2.72 2.72 0 0 0-.233-.924c-.387-.95-1.057-1.669-2.01-2.156-.929-.487-2.17-.703-3.718-.653zM77.104 56.03c-.02.025-.05.042-.074.062zm-15.952.524zm27.687 2.373c1.057.026 1.844.228 2.36.616.516.357.891.882 1.124 1.578l.116.845c.076.36 0 .67-.233.924-.153.203-.44.32-.853.345h-6.465c-.358 0-.632-.063-.811-.191a.469.469 0 0 1-.192-.383c0-.154.026-.308.075-.462a1.85 1.85 0 0 1 .233-.504 3.771 3.771 0 0 1 .27-.42c.75-1.053 1.729-1.761 2.944-2.12.129-.05.27-.074.424-.074a4.017 4.017 0 0 0 .467-.117.494.494 0 0 1 .27 0 .337.337 0 0 0 .27-.037zm-41.097 7.118c.258 0 .438.055.541.154a.29.29 0 0 1 .117.308 2.238 2.238 0 0 0-.038.425c0 .128-.013.283-.041.462a2.11 2.11 0 0 1-.113.424l-.079.346a3.095 3.095 0 0 0-.233.616c-.05.179-.117.358-.192.54a6.02 6.02 0 0 1-1.24 1.69c-.461.438-1.057.759-1.782.967a8.063 8.063 0 0 1-1.39.266c-.467.03-.903 0-1.32-.075a4.855 4.855 0 0 1-1.12-.345c-.337-.18-.553-.412-.657-.696-.183-.282-.258-.64-.233-1.078.079-.82.35-1.46.812-1.923a4.663 4.663 0 0 1 1.586-1.04c.183-.075.362-.13.545-.154.204-.05.412-.101.616-.154a4.825 4.825 0 0 1 1.007-.192 8.322 8.322 0 0 0 1.045-.154 1.233 1.233 0 0 0 .35-.037 6.11 6.11 0 0 1 .658-.117 3.538 3.538 0 0 0 .578-.117 1.77 1.77 0 0 1 .312-.037c.075-.026.167-.05.27-.08zm16.022 5.09.035.094c-.065.037-.13.073-.198.106-.016.005-.024.013-.041.017a2.7 2.7 0 0 0 .204-.216zm-.669 1.782c.146.153.28.27.396.358l.075.248c-.09.013-.18.03-.273.056a121.298 121.298 0 0 1-.033-.104c-.029-.096-.054-.191-.083-.287a1.844 1.844 0 0 1-.025-.08l-.057-.19zm.29.962c.104-.002.202.001.295.01.03.098.04.123.08.256a.858.858 0 0 1 .274-.006 147.9 147.9 0 0 0-.354.687 121.298 121.298 0 0 1-.295-.947z" /></svg>
