<svg xmlns="http://www.w3.org/2000/svg" viewBox="0 0 128 128"><path fill="#E97826" d="M6.433 47.839a.7.7 0 0 1-.196.042q-.036-.045-.154 0-.463.113-.695.383a5 5 0 0 0-.196.462 33 33 0 0 0-.154.578q-.075.304-.154.654a10 10 0 0 1-.079.537l-1.082 5.39-2.901 14.32-.658 3.388q-.08.424-.158.849c-.026.254.03.445.158.574q.193.196.541.233H3.49a5 5 0 0 1 .62.038 2 2 0 0 0 .583-.08c.308-.048.53-.167.658-.345a.82.82 0 0 0 .229-.5c.054-.203.103-.413.158-.615l.387-1.886 2.048-10.24q.117-.425.196-.845a10 10 0 0 0 .191-.849l.08-.579a1.6 1.6 0 0 1 .19-.574 2.3 2.3 0 0 0 .159-.541.58.58 0 0 1 .308-.383q.118-.08.154 0a.5.5 0 0 1 .154.112 3.3 3.3 0 0 1 .233.887 9 9 0 0 1 .35 1.927 46 46 0 0 0 .27 1.96 18 18 0 0 1 .233 1.657c.075.562.166 1.104.27 1.615.075.258.117.517.117.77a7 7 0 0 0 .117.77.44.44 0 0 1 .037.192v.196a8 8 0 0 1 .117.77 3.2 3.2 0 0 0 .154.728.8.8 0 0 1 .037.233v.192a6 6 0 0 1 .159.999 5.5 5.5 0 0 0 .154.965l.037.346a5.5 5.5 0 0 1 .154.962 12 12 0 0 0 .117.924 3.4 3.4 0 0 1 .154.616q.08.23.35.424c.078.075.22.13.424.154a5 5 0 0 0 .658.038h.736a7 7 0 0 1 .658-.038h.89q.313-.08.504-.079a1.2 1.2 0 0 0 .425-.191 2 2 0 0 0 .35-.383 9 9 0 0 0 .308-.504 6.6 6.6 0 0 0 .466-.845 9 9 0 0 1 .504-.887c.074-.075.116-.154.116-.228a.6.6 0 0 1 .154-.234 97 97 0 0 0 1.199-2.23 28 28 0 0 1 1.278-2.273 5.3 5.3 0 0 0 .387-.77q.194-.382.425-.733.274-.383.424-.766a7 7 0 0 1 .429-.733 1.2 1.2 0 0 0 .116-.233.8.8 0 0 1 .117-.266 10 10 0 0 0 .541-1.003q.271-.5.579-1a2 2 0 0 0 .233-.461l.233-.462q.388-.619.695-1.233a48 48 0 0 1 .7-1.194c.074-.13.154-.253.228-.383a1.8 1.8 0 0 1 .35-.387c.025-.026.067-.064.116-.117q.079-.075.192-.037.196.078.116.387a2.2 2.2 0 0 0 0 .574q0 .31-.074.658-.08.306-.154.616c-.055.334-.117.666-.196.999a44 44 0 0 0-.154 1l-2.015 9.893-.387 1.965c-.05.23-.1.451-.154.654q-.038.306.08.5.113.231.307.27a4 4 0 0 1 .504.116h3.675a1.3 1.3 0 0 0 .62-.233 1.03 1.03 0 0 0 .388-.574c.079-.284.141-.567.195-.85l.658-3.35 2.901-14.32 1.162-5.773c.08-.437.154-.857.233-1.27q.155-.654-.233-.886c-.105-.1-.283-.154-.541-.154h-6.656a1.04 1.04 0 0 0-.62.196 1.4 1.4 0 0 0-.542.5q-.194.304-.35.615-.309.613-.657 1.232c-.208.383-.412.783-.62 1.19a404 404 0 0 1-2.514 4.775c-.83 1.566-1.652 3.131-2.481 4.696q-.497.885-.929 1.773-.423.843-.89 1.731a9 9 0 0 0-.387.691q-.194.39-.5.462-.119.081-.196.042a.3.3 0 0 0-.116-.08.48.48 0 0 1-.192-.307c-.025-.13-.054-.258-.079-.383-.104-.517-.18-1.04-.233-1.582a16 16 0 0 0-.229-1.577 97 97 0 0 1-.736-4.966 75 75 0 0 0-.7-4.925q-.074-.655-.191-1.273c-.05-.434-.105-.858-.154-1.27a5 5 0 0 1-.117-.69q-.038-.389-.27-.58-.274-.269-.929-.27zm53.466 5.96c-.308.014-.627.13-.785.5-.176.413-.312 1.307-.375 2.502l1.353.65a16 16 0 0 1 .067-2.007c-.022.393-.035 1.029.02 1.973.022.38.055.799.1 1.265 0 .03 0 .05.009.075.037.408.088.845.15 1.328.058.413.117.85.191 1.32.062.404.136.828.214 1.278l-.01.008q.019.018.013.029c.011.058.025.112.033.175.038.179.067.358.104.541.038.2.08.4.12.608.022.107.039.214.063.32q.102.476.208.983a96 96 0 0 0 .612 2.589q.161.636.341 1.31c.105.395.22.808.338 1.229 0 .017.012.037.016.058q.176.624.362 1.274c.005.013.004.021.009.029l.058.191c.085.285.171.583.262.883a5 5 0 0 1-.32-.148c-.07-.237-.138-.472-.208-.718-.02-.083-.046-.162-.071-.25l-.004-.002c-.1-.327-.188-.665-.288-1.005-.024-.096-.045-.192-.075-.291-.116-.426-.228-.858-.345-1.295a71 71 0 0 1-.32-1.265c-.105-.429-.204-.858-.309-1.29-.099-.438-.2-.88-.291-1.32-.092-.437-.179-.879-.266-1.311a9 9 0 0 1-.088-.475 57 57 0 0 1-.145-.812c-.005-.012-.004-.03-.009-.045l-1.763-.891 1.767.89q-.093-.638-.191-1.265a55 55 0 0 1-.17-1.32 26 26 0 0 1-.126-1.323q-.005-.043-.004-.08a26 26 0 0 1-.062-1.244l-1.349-.65-.012.255c-.012.32-.025.662-.025 1.024a44 44 0 0 0 .054 2.526c.025.371.046.746.079 1.124v.042l.008.004a44 44 0 0 0 .125 1.311c.05.417.1.838.162 1.262.055.358.113.711.171 1.074.013.066.029.14.042.212.078.444.17.875.266 1.274.103.454.22.878.337 1.273.079.262.153.512.233.75.066.199.141.4.213.599.17.462.362.912.566 1.353l.008.004c.006.02.01.036.02.054a14 14 0 0 0 .833 1.532c.012.017.023.037.034.05-.503-.2-1.39-.108-1.387-.104.92.316 1.723.703 2.232 1.29-.204.22-.58.387-1.054.525.654.071 1.02-.047 1.154-.104-.341.287-.533.808-.704 1.365.387-.628.77-1.045 1.14-1.203l.28.87a148 148 0 0 0-2.465 5 .61.61 0 0 0 .475-.346 146 146 0 0 1 2.116-4.257 134 134 0 0 0 1.522 4.515.54.54 0 0 0 .087-.508 121 121 0 0 1-1.438-4.333 146 146 0 0 1 .533-1.022q.217.07.447.177c.214.206.369.542.508.911a1.65 1.65 0 0 0-.37-1.207c1.477.283 2.817.1 3.634-.886.07-.092.142-.183.208-.284-.358.333-.753.442-1.449.3 1.099-.312 1.685-.678 2.248-1.344a8 8 0 0 0 .408-.525c-1.041.795-2.127.904-3.201.541-.013-.008-.029-.008-.05-.016 1.012.021 2.435-.525 3.417-1.307a8 8 0 0 0 1.29-1.332c.313-.391.608-.837.908-1.337q.389-.644.77-1.419c-.245.083-.52.134-.816.15-.054.004-.103.008-.158.008-.053.004-.103.004-.162.004.978-.216 1.657-.81 2.202-1.59-.267.13-.691.288-1.182.325-.063.008-.133.008-.2.008-.016-.004-.033 0-.05-.004.337-.087.629-.195.895-.337q.081-.043.158-.1a2 2 0 0 0 .233-.162c.05-.042.097-.074.146-.117q.164-.137.308-.312a1 1 0 0 0 .087-.108c.043-.058.08-.108.117-.163a8 8 0 0 0 .562-.907c.017-.032.037-.062.05-.096.046-.096.092-.175.12-.25q.073-.161.105-.262a.5.5 0 0 1-.121.054c-.3.126-.8.208-1.195.225-.008 0-.012-.004-.016 0l-.073.002c.794-.235 1.175-.496 1.567-.897a8 8 0 0 0 .32-.358 15.5 15.5 0 0 0 1.72-2.39q.2-.354.333-.649.105-.26.187-.495c-.516.01-1.089.011-1.634 0 .547.01 1.12.008 1.638-.004.549-1.633.067-2.485.067-2.485s-.578-1.331-1.545-.937c-.47.192-1.294.803-2.301 1.715l.566 1.586.004.009a19 19 0 0 1 1.677-1.582c-.328.297-.853.806-1.577 1.627q-.425.475-.937 1.095c-.016.021-.037.042-.05.062a45 45 0 0 0-.936 1.191 62 62 0 0 0-1.749 2.41h-.016c0 .021-.008.03-.013.033l-.112.167c-.116.17-.237.341-.35.52q-.192.283-.391.583l-.204.304c-.2.312-.408.629-.616.961q-.393.606-.791 1.266c-.258.415-.52.853-.787 1.298-.249.43-.512.866-.77 1.324-.234.404-.47.825-.712 1.253-.012.021-.02.045-.033.063-.236.424-.482.865-.724 1.315-.008.008-.017.02-.017.029l-.108.2c-.186.345-.383.703-.574 1.074 0 .004-.005.008-.005.012-.028.054-.057.104-.083.158-.126.242-.242.473-.495.96a1.5 1.5 0 0 0-.254-.198l.379-.724.158-.296c.01-.028.029-.053.041-.083.197-.354.395-.725.604-1.099l.146-.258v-.004l-.002-.004c.182-.345.38-.684.572-1.033l.17-.295.758-1.316a110 110 0 0 1 1.536-2.551c.267-.437.541-.866.82-1.295a66 66 0 0 1 1.674-2.485c.008-.017.021-.029.025-.041l-.537-1.617.545 1.617q.43-.588.853-1.17c.308-.412.611-.808.916-1.199a34 34 0 0 1 1.965-2.28l-.57-1.587c-.068.063-.138.124-.213.196q-.399.367-.837.799c-.324.324-.657.666-1.007 1.028-.316.333-.64.691-.97 1.053-.275.317-.554.634-.832.966a.3.3 0 0 0-.034.037l.003.007a.5.5 0 0 1-.06.073c-.293.353-.592.711-.883 1.082-.3.375-.59.753-.879 1.145a85 85 0 0 0-.72.994c-.046.066-.091.138-.141.204a31 31 0 0 0-1.549 2.531c-.141.27-.283.532-.408.787-.104.212-.204.433-.304.65a20 20 0 0 0-.628 1.535l.002.007-.027.064q-.181.507-.329 1.018a2.8 2.8 0 0 1-.524.493 4 4 0 0 0-.146-.168 5.64 5.64 0 0 0 .912-2.43 7 7 0 0 0-.017-1.635c-.05-.437-.142-.9-.266-1.399a18 18 0 0 0-.4-1.373 2.7 2.7 0 0 1-.42.6q-.046.054-.092.103l-.104.104c.478-.74.538-1.536.395-2.36a3 3 0 0 1-.661 1.062c-.013.007-.02.021-.038.029a3.3 3.3 0 0 0 .354-.766 3 3 0 0 0 .042-.158q.023-.124.041-.25c.008-.053.016-.104.021-.162a2.4 2.4 0 0 0-.004-.388c-.005-.042-.004-.082-.009-.12a9 9 0 0 0-.17-.833 5 5 0 0 0-.075-.262l-.025-.092q-.043-.133-.08-.229c-.037-.099-.075-.175-.1-.229a.4.4 0 0 1-.04.109c-.113.262-.375.624-.617.878l-.008.012-.04.042c.348-.637.427-1.039.423-1.532a17 17 0 0 0-.021-.42 14 14 0 0 0-.154-1.353 12 12 0 0 0-.258-1.211 7 7 0 0 0-.196-.616c-.062-.155-.128-.292-.191-.43a33 33 0 0 1-.504.505c.174-.172.344-.344.504-.508-.674-1.364-1.511-1.607-1.511-1.607s-.377-.15-.772-.133zm61.661 1.054q-.024.01-.037.008-.007-.006-.033 0l-.075.038a.16.16 0 0 0-.063.054l-.037.079q-.013.038-.017.083a2 2 0 0 0-.029.2c-.009.058.017.1.067.125a.2.2 0 0 0 .045.008.07.07 0 0 1 .057.008c.016.005.03.005.052.005q.042-.006.079-.005.1-.001.233-.008a.4.4 0 0 1 .208.03q.085.03.08.153l-.018.108a.1.1 0 0 1-.009.071l-.016.075-.362 1.82c-.012.05-.02.094-.033.136a.2.2 0 0 0 .016.109q.049.062.18.062h.349a.3.3 0 0 0 .091-.017.18.18 0 0 0 .1-.083q.025-.017.025-.041l.013-.046.016-.063a.1.1 0 0 0 .017-.058q0-.032.009-.07l.37-1.816c.004-.037.013-.076.017-.108a.2.2 0 0 1 .029-.095.3.3 0 0 1 .15-.146.1.1 0 0 1 .058-.008c.02.008.046.004.07-.005h.117c.059 0 .124 0 .208.005a1 1 0 0 0 .196-.013.23.23 0 0 0 .1-.062.5.5 0 0 0 .07-.117l.01-.062a.4.4 0 0 0 .037-.184q0-.098-.037-.129a.17.17 0 0 0-.104-.033 1 1 0 0 0-.13-.008zm3.014 0q-.024.01-.042.008-.006-.006-.029 0-.087.017-.125.07a.4.4 0 0 0-.054.11l-.029.128-.512 2.543c-.013.055-.016.104-.025.154q-.001.07.042.1a.23.23 0 0 0 .154.046h.308c.037-.008.067-.013.096-.025l.037-.02a.4.4 0 0 1 .046-.042.5.5 0 0 0 .07-.2q.03-.146.047-.246l.187-.895c0-.012 0-.032.004-.05.009-.02.012-.04.025-.062l.025-.133a.2.2 0 0 0 .012-.067c.01-.025.015-.054.033-.079a.14.14 0 0 1 .055-.066h.012c.007-.009.016-.009.025-.009a.4.4 0 0 1 .083.22l.05.263a8 8 0 0 1 .075.462 5 5 0 0 0 .08.454q.013.08.02.154a1 1 0 0 0 .033.141q.006.037.017.075a.1.1 0 0 0 .029.063.2.2 0 0 0 .054.037.3.3 0 0 1 .07.025h.246a.3.3 0 0 0 .109-.041.5.5 0 0 0 .162-.192c.05-.09.09-.174.133-.245q.139-.232.27-.47.133-.244.271-.484.07-.109.133-.224a1.5 1.5 0 0 1 .138-.209.3.3 0 0 0 .054-.029c.013 0 .022 0 .025.009.017.008.02.024.02.045a.3.3 0 0 0 .01.059 1 1 0 0 1-.021.17c-.013.063-.02.125-.033.183l-.2.979c-.004.02-.013.045-.017.07a.3.3 0 0 0-.009.055l-.02.129q-.002.074.008.116c.01.034.038.054.084.07a.2.2 0 0 0 .079.018c.033-.009.067-.009.1-.009h.216c.079 0 .132-.02.17-.062a.3.3 0 0 0 .055-.108 1 1 0 0 0 .037-.154l.504-2.502c.012-.058.016-.108.025-.154a.18.18 0 0 0-.017-.125q-.006-.021-.046-.03a.2.2 0 0 1-.062-.024h-.038a.3.3 0 0 0-.087 0h-.558a.5.5 0 0 0-.108.017.36.36 0 0 0-.183.17l-.125.22a10 10 0 0 0-.312.525 7 7 0 0 1-.3.517q-.057.092-.108.191a1 1 0 0 1-.125.179c-.007.016-.03.033-.054.054-.021.02-.041.025-.07.013a.1.1 0 0 1-.063-.059 4 4 0 0 1-.067-.341 24 24 0 0 1-.125-.674 14 14 0 0 0-.116-.625q-.008-.102-.071-.145-.037-.044-.117-.042zm-34.961.033a5 5 0 0 1-.583.038 5 5 0 0 0-.578.037c-.443.105-.853.192-1.24.27a4.8 4.8 0 0 0-1.162.309c-2.888 1.104-5.162 2.988-6.81 5.657a6 6 0 0 0-.583 1.157 36 36 0 0 1-.504 1.27l-.308.923-.116.462a2 2 0 0 0-.117.425q0 .228-.037.42c-.055.363-.105.72-.154 1.079a6 6 0 0 0 0 1.003q0 .151-.042.308v.266q.118.462.117.924a5 5 0 0 0 .154.85 7.2 7.2 0 0 0 1.086 2.385 8.9 8.9 0 0 0 1.857 1.773 4 4 0 0 0 .62.345 13 13 0 0 1 .737.267 2 2 0 0 0 .695.27 9 9 0 0 0 .853.192.8.8 0 0 0 .387.079 1.2 1.2 0 0 1 .425.075 1.1 1.1 0 0 0 .503.041 2 2 0 0 1 .542 0q.193.038.424.038a1 1 0 0 0 .466-.038h.425a1.3 1.3 0 0 1 .308-.041.7.7 0 0 0 .35 0 8 8 0 0 1 .928-.154 4 4 0 0 0 .89-.192q1.744-.539 2.981-1.307 1.242-.772 2.323-2.04a10 10 0 0 0 .695-.849 7 7 0 0 0 .662-.961.9.9 0 0 0 .112-.462c.03-.18 0-.297-.075-.346q-.155-.119-.503-.191h-.388a.9.9 0 0 0-.466-.042h-1.586c-.388-.024-.72.025-1.007.154a1.7 1.7 0 0 0-.579.387 5 5 0 0 0-.503.5 4 4 0 0 1-.854.616c-.358.203-.683.372-.965.5-.234.08-.466.153-.695.232l-.737.154h-.35q-.423.075-.966.038a5 5 0 0 1-.815-.117 2.8 2.8 0 0 0-.658-.154 1.7 1.7 0 0 1-.579-.27q-.656-.462-1.007-1.037c-.204-.411-.35-.923-.425-1.54a3 3 0 0 1-.037-.424 1.5 1.5 0 0 0 0-.462.74.74 0 0 1 .112-.383 2.4 2.4 0 0 1 .233-.308c.08-.105.232-.208.467-.308a1.1 1.1 0 0 1 .424-.08h9.986a9 9 0 0 1 .774.038h.891c.308-.026.596-.05.853-.075q.388-.076.579-.233.23-.113.387-.5c.103-.253.154-.487.154-.69l.08-.425a2 2 0 0 1 .037-.654 2.4 2.4 0 0 0 .116-.695q-.036-.536-.079-1.078 0-.537-.075-1.036a27 27 0 0 0-.154-.77c-.03-.26-.078-.5-.158-.733a28 28 0 0 1-.425-.887 5.7 5.7 0 0 0-.387-.882.65.65 0 0 1-.27-.308 2.5 2.5 0 0 0-.504-.579 4 4 0 0 0-.578-.537q-.968-.771-2.286-1.232-1.317-.506-3.288-.462m-42.724.038q-.112.075-.425.037-.312-.036-.462 0a7.5 7.5 0 0 1-1.049.154c-.332.026-.67.08-1.003.154a39 39 0 0 0-1.628.5 7 7 0 0 0-1.51.657 7 7 0 0 0-.425.23c-.104.078-.233.165-.387.27a.8.8 0 0 1-.27.191 5.8 5.8 0 0 0-.93.808 25 25 0 0 0-.307.387q-.157.19-.312.383a8 8 0 0 0-.462.695c-.13.228-.26.488-.388.77-.055.1-.103.218-.158.346a1 1 0 0 0-.075.383q.04.424.308.499a.26.26 0 0 0 .196.08.44.44 0 0 1 .191.037h.35a1 1 0 0 0 .308.037 3 3 0 0 1 .429-.037h2.164a2.8 2.8 0 0 0 .658-.075q.466-.12.658-.462a9 9 0 0 1 .466-.733q.119-.23.387-.5a3.5 3.5 0 0 1 .966-.695 1.9 1.9 0 0 1 .503-.229 5 5 0 0 1 .816-.191q.501-.08 1.004-.08a4.2 4.2 0 0 1 .97.038 3.3 3.3 0 0 1 .811.154q1.16.426 1.315 1.582v.575c-.025.055-.05.128-.074.233a.32.32 0 0 1-.08.229.4.4 0 0 0-.037.154.5.5 0 0 1-.042.191 2.8 2.8 0 0 1-.616.77 3.24 3.24 0 0 1-1.394.695 25 25 0 0 0-1.549.308q-.31.075-.578.075a2 2 0 0 0-.546.08q-.345.075-.616.074a1.3 1.3 0 0 0-.545.042 6 6 0 0 1-.732.112c-.234 0-.455.03-.658.08q-.58.113-1.124.19a5.4 5.4 0 0 0-1.082.271q-1.436.426-2.402 1-.97.578-1.82 1.694-.269.348-.503.807l-.387.85a3 3 0 0 1-.191.653q-.081.155-.154.54a4 4 0 0 0-.042.459 1.1 1.1 0 0 1-.075.387.85.85 0 0 0 0 .383c.026.233.038.449.038.657a3.4 3.4 0 0 0 .116.575q.23 1.118.89 1.81.656.656 1.703 1.079a1.55 1.55 0 0 0 .62.191 33 33 0 0 0 .696.154.9.9 0 0 0 .466.038 2 2 0 0 1 .541.079h.346a2 2 0 0 0 .774 0h.429a.7.7 0 0 0 .228-.038h.234q.274-.04.503-.079c.184 0 .374-.026.583-.075q.58-.157 1.161-.27a8.5 8.5 0 0 0 1.12-.387 9 9 0 0 0 .504-.23 2.7 2.7 0 0 0 .503-.27 2.4 2.4 0 0 0 .388-.191 2.2 2.2 0 0 1 .424-.192q.194-.036.27.038a.5.5 0 0 1 .196.116 1.04 1.04 0 0 1 .27.5.74.74 0 0 0 .309.424q.155.151.466.192h3.405a1.5 1.5 0 0 0 .583-.117.73.73 0 0 0 .503-.574q.075-.424.075-.85v-.228q.038-.157.038-.27a5.2 5.2 0 0 1 .116-1.35q.157-.767.271-1.502l1.744-8.583a21 21 0 0 0 .308-1.732q.12-.848 0-1.503c-.153-.74-.474-1.345-.966-1.806q-.697-.732-1.819-1.157c-.724-.28-1.561-.476-2.518-.575a22 22 0 0 0-2.98-.116m67.387 0q-.077.037-.308.037a.8.8 0 0 0-.35 0c-.307.05-.595.091-.853.117q-.346.036-.733.154a11.6 11.6 0 0 0-2.556 1.232q-.35.195-.695.537c-.233.208-.477.295-.736.27a2 2 0 0 0-.196-.116q-.038-.038-.075-.23a.37.37 0 0 1 0-.232.9.9 0 0 0 .038-.267q0-.311-.075-.54a.46.46 0 0 0-.275-.346 1.7 1.7 0 0 0-.541-.08 4 4 0 0 0-.579-.037h-2.054q-.193 0-.385.038h-.196c-.13.025-.255.067-.383.116a.42.42 0 0 0-.276.154 1.03 1.03 0 0 0-.344.579q-.081.344-.156.77l-.427 1.96-1.704 8.471-1.043 5.237a40 40 0 0 1-.27 1.232q-.159.65.077.999c.074.154.26.246.543.27q.424.038.849.038h1.936a5.7 5.7 0 0 0 1.044-.08 1.04 1.04 0 0 0 .737-.499 1.7 1.7 0 0 0 .233-.574c.05-.234.104-.462.154-.695l.466-2.348.966-4.812a37 37 0 0 1 .966-3.813q.582-1.69 2.014-2.576.62-.386 1.549-.617a.8.8 0 0 1 .233-.037q.115 0 .308-.042a2 2 0 0 1 .425-.037 1.7 1.7 0 0 1 .503 0q.196.077.387.079a1.2 1.2 0 0 1 .43.075c.645.205 1.094.567 1.352 1.078q.426.848.27 2.077c-.074.8-.203 1.67-.387 2.618L113 70.82l-.542 2.698c-.05.279-.105.55-.154.807a1.04 1.04 0 0 0 .075.575c.104.183.27.296.504.35q.347.037.815.037h2.706a1.7 1.7 0 0 0 .545-.08q.582-.187.733-.844.157-.693.312-1.424l1.278-6.235.658-3.426c.074-.362.154-.732.229-1.12a9 9 0 0 0 .158-1.115q-.041-.076.037-.308a2 2 0 0 1 0-.537 2.3 2.3 0 0 0 0-.579 12 12 0 0 0-.116-.962 2.7 2.7 0 0 0-.233-.924q-.58-1.425-2.01-2.156-1.395-.73-3.718-.653zM77.104 56.03c-.02.025-.05.042-.074.062zm11.735 2.897c1.057.026 1.844.228 2.36.616q.774.535 1.124 1.578l.116.845q.115.542-.233.924-.232.306-.853.345h-6.465c-.358 0-.632-.063-.811-.191a.47.47 0 0 1-.192-.383q0-.231.075-.462a1.9 1.9 0 0 1 .233-.504 4 4 0 0 1 .27-.42q1.123-1.58 2.944-2.12.193-.074.424-.074a4 4 0 0 0 .467-.117.5.5 0 0 1 .27 0 .34.34 0 0 0 .27-.037zm-41.097 7.118c.258 0 .438.055.541.154a.29.29 0 0 1 .117.308 2.2 2.2 0 0 0-.038.425q0 .193-.041.462a2 2 0 0 1-.113.424l-.079.346a3 3 0 0 0-.233.616c-.05.179-.117.358-.192.54a6 6 0 0 1-1.24 1.69q-.693.656-1.782.967a8 8 0 0 1-1.39.266c-.467.03-.903 0-1.32-.075a5 5 0 0 1-1.12-.345c-.337-.18-.553-.412-.657-.696q-.273-.422-.233-1.078.119-1.23.812-1.923a4.7 4.7 0 0 1 1.586-1.04c.183-.075.362-.13.545-.154q.308-.075.616-.154a5 5 0 0 1 1.007-.192 8 8 0 0 0 1.045-.154 1.2 1.2 0 0 0 .35-.037 6 6 0 0 1 .658-.117 3.5 3.5 0 0 0 .578-.117 2 2 0 0 1 .312-.037c.075-.026.167-.05.27-.08zm16.022 5.09.035.094q-.097.056-.198.106c-.016.005-.024.013-.041.017a3 3 0 0 0 .204-.216zm-.669 1.782q.22.228.396.358l.075.248q-.134.018-.273.056l-.033-.104c-.029-.096-.054-.191-.083-.287l-.025-.08-.057-.19zm.29.962q.156-.003.295.01c.03.098.04.123.08.256a.9.9 0 0 1 .274-.006l-.354.687a121 121 0 0 1-.295-.947"/></svg>
