<svg xmlns="http://www.w3.org/2000/svg" viewBox="0 0 128 128"><path fill="#FFC131" d="M73.949.496a46.4 46.4 0 0 0-13.68 2.086 46.28 46.28 0 0 0-30.496 30.441 54.2 54.2 0 0 1 17.773-5.164q.7-.973 1.469-1.895a32.57 32.57 0 0 1 15.336-10.227 32.6 32.6 0 0 1 18.43-.262 32.6 32.6 0 0 1 15.621 9.785 32.55 32.55 0 0 1 7.805 16.695 32.6 32.6 0 0 1-2.504 18.262A32.6 32.6 0 0 1 91.687 74.19a32.6 32.6 0 0 1-6.965 3.402q.241 1.97.242 4.004a32.5 32.5 0 0 1-1.789 10.672 46.2 46.2 0 0 0 15.988-6.504 46.4 46.4 0 0 0 17.105-19.891 46.4 46.4 0 0 0 3.563-25.984c-1.34-8.824-5.199-17.074-11.113-23.758S95.09 4.613 86.492 2.211A46.3 46.3 0 0 0 73.949.496m.063 34.207c-6.703 0-12.141 5.434-12.141 12.137s5.438 12.14 12.141 12.14 12.137-5.437 12.137-12.141a12.14 12.14 0 0 0-12.137-12.137zm-29.535 1.441q-.668.149-1.336.32l.012-.031-.699.195a46 46 0 0 0-2.582.73 45 45 0 0 0-2.223.742q-1.062.388-2.102.828-1.079.451-2.133.961c-1.054.51-1.395.695-2.082 1.066l-1.004.52.09.012q-1.044.567-2.059 1.188a46.33 46.33 0 0 0-17.098 19.887C7.597 70.703 6.359 79.726 7.695 88.55s5.199 17.074 11.113 23.758 13.629 11.52 22.227 13.922a46.3 46.3 0 0 0 26.227-.371 46.3 46.3 0 0 0 21.82-14.547 46.3 46.3 0 0 0 8.688-15.941 54 54 0 0 1-17.781 5.199 35 35 0 0 1-1.477 1.91 32.6 32.6 0 0 1-15.34 10.223 32.54 32.54 0 0 1-18.426.258A32.55 32.55 0 0 1 21.32 86.485a32.6 32.6 0 0 1 2.504-18.262A32.55 32.55 0 0 1 35.84 54.25a32.5 32.5 0 0 1 6.828-3.355 34 34 0 0 1-.184-3.5c0-3.957.703-7.746 1.992-11.25zm-14.148 5.332h-.004v.004zm23.27 27.984c-6.703 0-12.141 5.434-12.141 12.137a12.14 12.14 0 0 0 12.141 12.141c6.703 0 12.137-5.437 12.137-12.141A12.14 12.14 0 0 0 53.599 69.46m43.539 17.496"/></svg>
