<svg xmlns="http://www.w3.org/2000/svg" viewBox="0 0 128 128"><path d="M20.668 44.172a14.45 14.45 0 0 0-4.09.648c-2.66.828-5.027 2.406-6.812 4.543-1.227 1.469-2.141 3.156-2.703 4.965 1.734-.848 3.609-1.398 5.547-1.613l.457-.594c2.57-3.066 6.691-4.344 10.543-3.273a10.17 10.17 0 0 1 4.875 3.055c1.301 1.469 2.145 3.277 2.438 5.215s.027 3.918-.781 5.703a10.14 10.14 0 0 1-3.75 4.363 10.27 10.27 0 0 1-2.172 1.063 10.14 10.14 0 0 1 .07 1.25 10.08 10.08 0 0 1-.559 3.332c1.77-.359 3.465-1.043 4.996-2.031h.004c2.336-1.516 4.188-3.672 5.332-6.211a14.44 14.44 0 0 0 1.113-8.113 14.43 14.43 0 0 0-3.469-7.418 14.41 14.41 0 0 0-6.937-4.348c-1.34-.375-2.723-.555-4.102-.535zm.313 10.68c-1.023-.031-2.016.355-2.754 1.07s-1.148 1.695-1.148 2.719c0 2.094 1.699 3.793 3.793 3.793a3.79 3.79 0 0 0 3.789-3.793 3.79 3.79 0 0 0-3.68-3.789zm-9.332.449c-.141.031-.277.063-.418.102a1.1 1.1 0 0 0-.211.051c-.277.066-.551.145-.82.234-.227.066-.445.141-.668.219l-.703.281a16.07 16.07 0 0 0-.645.285c-.207.102-.414.211-.617.32a9.03 9.03 0 0 0-.336.172l.031.004a13.12 13.12 0 0 0-.645.371c-2.34 1.516-4.195 3.668-5.34 6.211a14.47 14.47 0 0 0-1.113 8.113 14.5 14.5 0 0 0 3.469 7.426c1.852 2.082 4.262 3.594 6.945 4.344s5.527.711 8.188-.117 5.023-2.402 6.813-4.539c1.223-1.469 2.141-3.156 2.711-4.98-1.742.855-3.621 1.406-5.551 1.625l-.465.594a10.13 10.13 0 0 1-4.789 3.191c-1.867.582-3.871.609-5.754.082s-3.578-1.586-4.875-3.055a10.19 10.19 0 0 1-2.437-5.215c-.293-1.934-.023-3.914.781-5.699a10.21 10.21 0 0 1 3.754-4.367 10.36 10.36 0 0 1 2.129-1.047c-.035-.359-.055-.723-.055-1.094 0-1.199.207-2.387.621-3.512zm83.613.391c-.187 0-.355.066-.504.199-.133.133-.207.316-.199.504v11.434c0 1.195-.285 2.105-.867 2.723s-1.406.926-2.473.926c-1.086 0-1.918-.297-2.5-.898-.562-.617-.844-1.535-.844-2.75v-11.43c0-.207-.074-.375-.223-.504-.133-.133-.301-.199-.504-.199h-3.625c-.187 0-.355.066-.504.199-.133.133-.207.316-.199.504v11.457c0 2.602.742 4.547 2.219 5.84 1.5 1.293 3.566 1.938 6.207 1.938 2.602 0 4.645-.645 6.121-1.941 1.5-1.293 2.246-3.234 2.246-5.836V56.395c0-.203-.062-.367-.195-.504s-.301-.199-.504-.199zm-48.293.004c-.187 0-.355.066-.504.199-.133.133-.207.316-.199.504v3.004a.75.75 0 0 0 .703.703h5v14.547a.73.73 0 0 0 .699.699h3.707c.207 0 .375-.062.508-.195.125-.137.195-.316.195-.504V60.105h5c.188.008.371-.062.504-.195s.195-.301.195-.508v-3.004c0-.207-.062-.371-.195-.504s-.301-.199-.504-.199zm22.371 0c-.301 0-.543.082-.73.227s-.309.336-.367.563l-6.598 18.027c-.02.055-.027.141-.027.25 0 .152.055.293.168.422.129.113.27.168.422.168l3.449.004c.473 0 .781-.195.93-.59l1.066-2.863h7.5l1.094 2.863c.145.395.449.59.895.59h3.453c.16.004.313-.059.422-.168.137-.133.199-.273.199-.422l-.059-.25-6.566-18.031c-.059-.223-.187-.418-.371-.562-.184-.152-.426-.227-.73-.227zm34.699 0c-.187 0-.355.066-.504.199-.133.133-.203.316-.195.504v18.254a.73.73 0 0 0 .699.699h3.625c.203 0 .375-.062.504-.195.148-.125.23-.312.227-.504v-6.234h2.867l3.195 6.176c.227.508.609.758 1.152.758h3.734c.148 0 .293-.059.395-.168a.59.59 0 0 0 .195-.422.7.7 0 0 0-.082-.309l-3.848-6.906c1.086-.488 1.938-1.187 2.555-2.105s.926-2.031.926-3.344c0-2.039-.691-3.613-2.078-4.715-1.367-1.125-3.277-1.687-5.727-1.687zm19.387 0a.74.74 0 0 0-.477.199c-.129.129-.195.297-.195.504v18.254a.75.75 0 0 0 .703.699h3.762c.207 0 .375-.062.504-.195.152-.133.227-.301.227-.504V56.398c.008-.195-.078-.379-.227-.504-.133-.133-.316-.207-.504-.199h-3.762-.031zm-15.031 3.902h3.227c.883 0 1.535.227 1.965.676.449.43.676 1.02.676 1.77s-.227 1.34-.676 1.77c-.449.41-1.102.617-1.965.617h-3.227zm-36.98.844l2.613 7.414h-5.223zm-56.918 5.266a3.79 3.79 0 0 0-3.789 3.789 3.79 3.79 0 0 0 3.789 3.789 3.79 3.79 0 0 0 3.789-3.789 3.79 3.79 0 0 0-3.789-3.789zm0 0"/></svg>
