<svg xmlns="http://www.w3.org/2000/svg" viewBox="0 0 128 128"><path d="M73.949.496a46.42 46.42 0 0 0-13.68 2.086 46.28 46.28 0 0 0-30.496 30.441c5.586-2.727 11.598-4.477 17.773-5.164.465-.648.957-1.281 1.469-1.895 4.023-4.816 9.348-8.367 15.336-10.227a32.59 32.59 0 0 1 18.43-.262 32.61 32.61 0 0 1 15.621 9.785c4.156 4.699 6.867 10.496 7.805 16.695a32.58 32.58 0 0 1-2.504 18.262c-2.578 5.715-6.75 10.57-12.016 13.973a32.59 32.59 0 0 1-6.965 3.402c.16 1.313.242 2.648.242 4.004 0 3.738-.629 7.328-1.789 10.672 5.691-1.145 11.113-3.352 15.988-6.504a46.4 46.4 0 0 0 17.105-19.891 46.41 46.41 0 0 0 3.563-25.984c-1.34-8.824-5.199-17.074-11.113-23.758S95.09 4.613 86.492 2.211A46.31 46.31 0 0 0 73.949.496zm.063 34.207c-6.703 0-12.141 5.434-12.141 12.137S67.309 58.98 74.012 58.98s12.137-5.437 12.137-12.141a12.14 12.14 0 0 0-12.137-12.137zm-29.535 1.441c-.445.098-.891.207-1.336.32a.27.27 0 0 1 .012-.031l-.699.195a46.12 46.12 0 0 0-2.582.73 44.91 44.91 0 0 0-2.223.742c-.707.258-1.41.535-2.102.828-.719.301-1.43.621-2.133.961s-1.395.695-2.082 1.066l-1.004.52.09.012c-.695.379-1.383.773-2.059 1.188a46.33 46.33 0 0 0-17.098 19.887c-3.664 8.141-4.902 17.164-3.566 25.988s5.199 17.074 11.113 23.758 13.629 11.52 22.227 13.922a46.31 46.31 0 0 0 26.227-.371c8.523-2.645 16.098-7.695 21.82-14.547 3.918-4.687 6.871-10.105 8.688-15.941-5.582 2.742-11.598 4.504-17.781 5.199-.469.652-.961 1.289-1.477 1.91a32.58 32.58 0 0 1-15.34 10.223 32.54 32.54 0 0 1-18.426.258c-6.039-1.687-11.465-5.082-15.621-9.781s-6.867-10.496-7.805-16.695a32.58 32.58 0 0 1 2.504-18.262c2.574-5.719 6.75-10.57 12.016-13.973a32.5 32.5 0 0 1 6.828-3.355c-.121-1.152-.184-2.32-.184-3.5 0-3.957.703-7.746 1.992-11.25zm-14.148 5.332h-.004v.004zm23.27 27.984c-6.703 0-12.141 5.434-12.141 12.137a12.14 12.14 0 0 0 12.141 12.141c6.703 0 12.137-5.437 12.137-12.141a12.14 12.14 0 0 0-12.137-12.137zm43.539 17.496c-.059.035-.121.07-.184.102.063-.031.125-.066.184-.102zm0 0"/></svg>
