<svg xmlns="http://www.w3.org/2000/svg" viewBox="0 0 128 128"><path fill="#FFC131" d="M20.668 44.172a14.5 14.5 0 0 0-4.09.648 14.5 14.5 0 0 0-6.812 4.543 14.4 14.4 0 0 0-2.703 4.965 16.9 16.9 0 0 1 5.547-1.613l.457-.594a10.19 10.19 0 0 1 10.543-3.273 10.17 10.17 0 0 1 4.875 3.055c1.301 1.469 2.145 3.277 2.438 5.215s.027 3.918-.781 5.703a10.14 10.14 0 0 1-3.75 4.363 10.3 10.3 0 0 1-2.172 1.063 10 10 0 0 1 .07 1.25 10.1 10.1 0 0 1-.559 3.332 14.5 14.5 0 0 0 4.996-2.031h.004a14.5 14.5 0 0 0 5.332-6.211 14.44 14.44 0 0 0 1.113-8.113 14.43 14.43 0 0 0-3.469-7.418 14.4 14.4 0 0 0-6.937-4.348 14.5 14.5 0 0 0-4.102-.535zm.313 10.68c-1.023-.031-2.016.355-2.754 1.07s-1.148 1.695-1.148 2.719a3.794 3.794 0 0 0 3.793 3.793 3.79 3.79 0 0 0 3.789-3.793 3.79 3.79 0 0 0-3.68-3.789m-9.332.449a8 8 0 0 0-.418.102 1 1 0 0 0-.211.051 10 10 0 0 0-.82.234c-.227.066-.445.141-.668.219l-.703.281a16 16 0 0 0-.645.285q-.312.155-.617.32a9 9 0 0 0-.336.172l.031.004a13 13 0 0 0-.645.371 14.5 14.5 0 0 0-5.34 6.211 14.47 14.47 0 0 0-1.113 8.113 14.5 14.5 0 0 0 3.469 7.426c1.852 2.082 4.262 3.594 6.945 4.344s5.527.711 8.188-.117 5.023-2.402 6.813-4.539a14.6 14.6 0 0 0 2.711-4.98 17 17 0 0 1-5.551 1.625l-.465.594a10.13 10.13 0 0 1-4.789 3.191 10.16 10.16 0 0 1-10.629-2.973 10.2 10.2 0 0 1-2.437-5.215 10.17 10.17 0 0 1 .781-5.699 10.2 10.2 0 0 1 3.754-4.367 10.4 10.4 0 0 1 2.129-1.047 11 11 0 0 1-.055-1.094c0-1.199.207-2.387.621-3.512m83.613.391a.74.74 0 0 0-.504.199.68.68 0 0 0-.199.504v11.434c0 1.195-.285 2.105-.867 2.723s-1.406.926-2.473.926q-1.628.002-2.5-.898-.843-.927-.844-2.75V56.4a.64.64 0 0 0-.223-.504.68.68 0 0 0-.504-.199h-3.625a.74.74 0 0 0-.504.199.68.68 0 0 0-.199.504v11.457q.002 3.902 2.219 5.84c1.5 1.293 3.566 1.938 6.207 1.938q3.905.002 6.121-1.941c1.5-1.293 2.246-3.234 2.246-5.836V56.395c0-.203-.062-.367-.195-.504s-.301-.199-.504-.199zm-48.293.004a.74.74 0 0 0-.504.199.68.68 0 0 0-.199.504v3.004a.75.75 0 0 0 .703.703h5v14.547a.73.73 0 0 0 .699.699h3.707a.68.68 0 0 0 .508-.195.75.75 0 0 0 .195-.504V60.105h5c.188.008.371-.062.504-.195s.195-.301.195-.508v-3.004a.674.674 0 0 0-.699-.703zm22.371 0c-.301 0-.543.082-.73.227s-.309.336-.367.563l-6.598 18.027a.8.8 0 0 0-.027.25q0 .228.168.422.194.169.422.168l3.449.004q.708.001.93-.59l1.066-2.863h7.5l1.094 2.863c.145.395.449.59.895.59h3.453a.58.58 0 0 0 .422-.168c.137-.133.199-.273.199-.422l-.059-.25-6.566-18.031a1.05 1.05 0 0 0-.371-.562q-.275-.227-.73-.227zm34.699 0a.74.74 0 0 0-.504.199.67.67 0 0 0-.195.504v18.254a.73.73 0 0 0 .699.699h3.625a.67.67 0 0 0 .504-.195.65.65 0 0 0 .227-.504v-6.234h2.867l3.195 6.176q.339.76 1.152.758h3.734a.54.54 0 0 0 .395-.168.6.6 0 0 0 .195-.422.7.7 0 0 0-.082-.309l-3.848-6.906q1.63-.73 2.555-2.105c.925-1.375.926-2.031.926-3.344q.001-3.06-2.078-4.715-2.051-1.687-5.727-1.687zm19.387 0a.74.74 0 0 0-.477.199.68.68 0 0 0-.195.504v18.254a.75.75 0 0 0 .703.699h3.762a.67.67 0 0 0 .504-.195.64.64 0 0 0 .227-.504V56.398a.63.63 0 0 0-.227-.504.68.68 0 0 0-.504-.199zm-15.031 3.902h3.227c.883 0 1.535.227 1.965.676q.675.645.676 1.77c.001 1.125-.227 1.34-.676 1.77q-.672.616-1.965.617h-3.227zm-36.98.844 2.613 7.414h-5.223zm-56.918 5.266a3.79 3.79 0 0 0-3.789 3.789 3.79 3.79 0 0 0 3.789 3.789 3.79 3.79 0 0 0 3.789-3.789 3.79 3.79 0 0 0-3.789-3.789m0 0"/></svg>
