<svg xmlns="http://www.w3.org/2000/svg" width="128" height="128" viewBox="0 0 128 128"><style><![CDATA[.B{fill:rgb(100%,75.686275%,19.215686%)}.C{fill:rgb(14.117647%,78.431373%,85.882353%)}]]></style><path d="M52.668 75.285c-.187 0-.355-.066-.504-.199a.73.73 0 0 1-.195-.504V60.035h-5a.75.75 0 0 1-.504-.195.74.74 0 0 1-.199-.504v-3.008c0-.203.066-.375.199-.504a.73.73 0 0 1 .504-.195h15.109a.68.68 0 0 1 .504.195c.133.129.195.301.195.504v3.008a.68.68 0 0 1-.195.504c-.133.129-.301.195-.504.195h-5v14.547a.75.75 0 0 1-.195.504c-.133.133-.301.199-.508.199zm9.539 0c-.152 0-.293-.059-.422-.168a.64.64 0 0 1-.168-.422.85.85 0 0 1 .027-.254l6.598-18.027c.059-.227.18-.414.367-.562s.43-.223.73-.223h4.152c.301 0 .543.074.73.223s.309.336.367.563l6.57 18.027.055.254c0 .148-.062.289-.195.422a.59.59 0 0 1-.422.168h-3.453c-.449 0-.75-.199-.898-.59l-1.094-2.867h-7.5l-1.066 2.867c-.148.391-.457.59-.926.59zm11.82-7.5l-2.613-7.41-2.609 7.41zm17.219 7.781c-2.641 0-4.707-.648-6.207-1.937-1.477-1.293-2.219-3.242-2.219-5.844V56.328c0-.203.066-.375.199-.504a.73.73 0 0 1 .504-.195h3.625a.68.68 0 0 1 .504.195.64.64 0 0 1 .223.504v11.43c0 1.219.281 2.133.844 2.754.582.598 1.414.898 2.5.898 1.066 0 1.891-.309 2.473-.93s.867-1.523.867-2.723v-11.43c0-.203.066-.375.199-.504a.73.73 0 0 1 .504-.195h3.652a.68.68 0 0 1 .504.195c.133.129.195.301.195.504v11.457c0 2.602-.746 4.551-2.246 5.844-1.477 1.289-3.52 1.938-6.121 1.938zm12.793-.281c-.187 0-.355-.066-.504-.199a.73.73 0 0 1-.195-.504V56.328c0-.203.063-.375.195-.504a.73.73 0 0 1 .504-.195h7.641c2.449 0 4.359.559 5.727 1.684 1.387 1.105 2.078 2.676 2.078 4.719 0 1.309-.309 2.422-.926 3.34s-1.469 1.621-2.555 2.105l3.848 6.91c.055.109.082.215.082.309 0 .148-.066.289-.195.422-.113.109-.246.168-.395.168h-3.734c-.543 0-.926-.254-1.152-.758l-3.199-6.18h-2.863v6.234a.64.64 0 0 1-.227.504c-.129.133-.301.199-.504.199zm7.582-10.926c.863 0 1.516-.203 1.965-.617.449-.43.676-1.02.676-1.77s-.227-1.336-.676-1.77c-.43-.449-1.082-.672-1.965-.672h-3.227v4.828zm11.836 10.926c-.187 0-.355-.066-.508-.199a.75.75 0 0 1-.195-.504V56.328a.69.69 0 0 1 .195-.504c.152-.133.32-.195.508-.195h3.762a.67.67 0 0 1 .504.195c.152.129.227.301.227.504v18.254c0 .207-.074.375-.227.504a.67.67 0 0 1-.504.199zm0 0" fill="rgb(96.862745%,96.862745%,96.862745%)"/><path d="M24.66 58.574a3.79 3.79 0 1 1-7.582 0 3.79 3.79 0 1 1 7.582 0zm0 0" class="B"/><path d="M10.707 69.426a3.79 3.79 0 0 1 3.789-3.789 3.79 3.79 0 0 1 3.789 3.789 3.79 3.79 0 0 1-3.789 3.789 3.79 3.79 0 0 1-3.789-3.789zm0 0" class="C"/><g fill-rule="evenodd"><path d="M28.727 70.727a14.47 14.47 0 0 1-4.996 2.031 10.11 10.11 0 0 0 .559-3.332 10.18 10.18 0 0 0-.074-1.25 10.2 10.2 0 0 0 2.176-1.062c1.645-1.062 2.945-2.578 3.75-4.363a10.14 10.14 0 0 0 .781-5.703c-.293-1.934-1.137-3.746-2.437-5.211a10.14 10.14 0 0 0-4.875-3.055c-1.887-.527-3.883-.5-5.754.082a10.13 10.13 0 0 0-4.789 3.191l-.461.594a16.86 16.86 0 0 0-5.547 1.609 14.38 14.38 0 0 1 2.707-4.961c1.785-2.141 4.152-3.719 6.813-4.543a14.47 14.47 0 0 1 8.191-.117c2.684.75 5.094 2.262 6.938 4.348a14.46 14.46 0 0 1 3.469 7.418c.418 2.758.031 5.574-1.113 8.113s-2.996 4.699-5.336 6.211zM7.23 56.898l3.547.434a10.08 10.08 0 0 1 .457-2.012 14.46 14.46 0 0 0-4.004 1.578zm0 0" class="B"/><path d="M6.617 57.273c1.539-.996 3.25-1.684 5.031-2.039-.402 1.094-.621 2.277-.621 3.512 0 .367.02.734.055 1.094a10.07 10.07 0 0 0-2.129 1.047c-1.645 1.063-2.949 2.578-3.754 4.363s-1.074 3.766-.781 5.703 1.141 3.746 2.438 5.211 2.992 2.527 4.875 3.055 3.887.5 5.754-.082a10.13 10.13 0 0 0 4.789-3.191l.465-.594c1.938-.219 3.816-.773 5.551-1.625-.566 1.813-1.484 3.508-2.711 4.977-1.789 2.141-4.156 3.719-6.816 4.543s-5.504.867-8.187.117-5.094-2.262-6.941-4.348a14.46 14.46 0 0 1-3.469-7.418c-.418-2.758-.031-5.574 1.113-8.113a14.46 14.46 0 0 1 5.34-6.211zM28.09 71.098c-.016.012-.035.023-.055.035l.055-.035zm0 0" class="C"/></g></svg>
