<svg xmlns="http://www.w3.org/2000/svg" viewBox="0 0 128 128">
   <path
      d="M110.37.436c0 .443-1.027.72-1.054.283-.008-.106-.056-.02-.111.194-.079.322-.161.377-.558.35-.367-.024-.48.03-.536.267-.04.184-.22.339-.468.397-.221.051-.468.19-.547.303-.19.264-.725.276-.858.02-.067-.126-.126-.063-.177.193-.048.248-.209.425-.46.516a6.458 6.458 0 0 0-.812.377c-.33.192-.452.205-.578.055-.224-.26-.373-.232-.279.06.11.333-.196.524-.578.353-.457-.203-.555-.171-.555.161 0 .413-.445.678-.783.465-.225-.138-.264-.117-.264.15 0 .247-.083.31-.425.31-.268 0-.516.116-.653.303-.252.348-.744.402-.992.119-.13-.154-.145-.138-.07.09.117.37-.17.583-.634.468-.268-.066-.36-.027-.36.15 0 .453-.946.767-1.09.363-.034-.108-.07-.036-.074.156-.01.425-.35.602-.68.363-.331-.24-.326-.24-.273.322.04.405.406.933 1.867 2.688 2.372 2.853 5.174 6.86 6.39 9.13.107.2.35.624.539.944.626 1.068 1.572 2.82 1.901 3.542.177.393.472 1.022.65 1.4 1.098 2.322 2.545 5.944 3.27 8.185.11.339.252.753.314.917.242.643.907 3.059 1.433 5.203.14.59.315 1.28.377 1.532 1.24 4.85 1.904 11.806 1.79 18.738-.105 6.56-.546 10.346-1.974 16.968-.222 1.028-1.672 6.187-1.96 6.974-.095.252-.275.772-.405 1.148-.567 1.642-2.079 5.325-2.727 6.655a85.853 85.853 0 0 0-.796 1.67c-.645 1.392-2.203 4.183-3.675 6.578-4.187 6.81-10.822 13.766-17.57 18.421-2.511 1.733-4.211 2.71-8.17 4.707-.235.118-.542.216-.686.216-.14 0-.259.064-.259.137 0 .226-.786.375-.952.182-.212-.248-.35-.205-.35.114 0 .346-.54.665-.799.473-.28-.21-.508-.171-.508.09 0 .353-.558.602-.89.394-.388-.242-.546-.204-.546.12 0 .162-.094.332-.209.383-.33.15-1.098.111-1.098-.059 0-.083-.054-.153-.118-.153-.066 0-.09.134-.054.291.086.382-.323.535-1.063.405-.492-.083-.567-.058-.63.217-.047.216-.184.318-.44.33-.464.024-.39.027-1.122-.099-.562-.097-.622-.078-.622.198 0 .443-1.42.74-1.633.342-.157-.299-.83-.185-.76.13.091.413-.487.507-2.332.385-1.508-.1-1.54-.099-1.54.222 0 .64.363.69 3.845.57l3.4-.09c.952.184 1.893.16 1.893-.044 0-.146.177-.26.492-.315 1.437-.252 1.704-.267 1.786-.106.154.29.95.2 1.02-.118.094-.413 1.538-.69 1.731-.327.158.299.702.177.625-.146-.077-.362.594-.559 1.405-.409.406.079.516.047.516-.125 0-.3 1.02-.638 1.216-.402.232.272.61.193.61-.126 0-.17.121-.327.296-.378.456-.145 1.011-.114 1.011.055 0 .083.055.153.118.153.067 0 .09-.138.054-.299-.082-.357.398-.554 1.008-.413.288.068.386.035.386-.13 0-.275.539-.448.98-.318.264.074.326.04.326-.202 0-.352.724-.61.957-.337.212.256.35.204.35-.126 0-.37.153-.489.649-.504.208-.008.418-.115.457-.236.054-.174.2-.205.594-.13.459.086.52.063.52-.209 0-.318.495-.566.837-.413.111.05.209-.043.252-.236.06-.268.141-.302.535-.228.406.078.465.05.465-.224 0-.276.055-.3.456-.213.41.091.457.067.457-.228 0-.295.05-.319.449-.232.397.087.453.058.491-.252.027-.237.146-.367.366-.402.181-.027.378-.153.437-.275.075-.158.225-.197.488-.126.332.083.383.05.383-.24 0-.296.05-.323.436-.24.39.086.433.063.42-.248-.007-.282.056-.343.34-.318.243.015.365-.064.412-.268.04-.193.178-.296.39-.296.177 0 .354-.1.393-.211.083-.252.814-.71 1.139-.71.123 0 .254-.134.294-.302.04-.17.177-.307.311-.307s.314-.138.405-.307c.09-.17.244-.307.342-.307.1 0 .256-.106.347-.24.094-.131.28-.205.409-.165.161.05.236-.012.236-.194 0-.149.134-.35.295-.448.161-.099.468-.314.685-.48.217-.169.477-.35.578-.41a2.287 2.287 0 0 0 .413-.345c.54-.567.673-.651.914-.574.196.057.252-.005.252-.293 0-.204.046-.37.11-.37.098 0 .29-.165.893-.759a.611.611 0 0 1 .363-.157c.108 0 .2-.103.2-.229 0-.13.114-.231.26-.231.145 0 .263-.079.263-.182 0-.244.657-1.042.858-1.042.086 0 .194-.103.231-.23.046-.125.158-.227.261-.227.1 0 .22-.104.263-.231.04-.128.165-.23.276-.23.11 0 .2-.102.2-.228s.087-.228.197-.228c.11 0 .237-.107.276-.231.043-.128.217-.229.386-.229.204 0 .282-.07.24-.205-.087-.271.279-.618.53-.507.194.086.256-.064.205-.497-.05-.417 1.559-2.128 2.102-2.238.307-.06.503-.186.503-.316 0-.117.087-.216.198-.216.133 0 .192-.157.192-.508 0-.365.114-.64.39-.956.212-.248.389-.5.393-.562 0-.064.107-.24.229-.398.125-.153.449-.566.715-.917.269-.35.576-.637.685-.637.128 0 .201-.138.201-.382 0-.209.059-.382.13-.382.07 0 .133-.087.137-.192.008-.343.575-.988.972-1.107.217-.062.32-.145.23-.184-.194-.087-.222-.504-.032-.504.07 0 .129-.138.129-.307 0-.17.06-.307.134-.307.074 0 .19-.173.26-.382.074-.24.224-.38.398-.38.204 0 .252-.071.196-.289a.507.507 0 0 1 .118-.475c.11-.107.202-.28.202-.386 0-.111.081-.232.18-.28.103-.043.318-.392.48-.78.192-.447.385-.7.54-.7.176 0 .235-.117.235-.456 0-.255.055-.46.122-.46s.141-.154.161-.346c.028-.213.151-.363.323-.39.21-.036.263-.126.213-.35a.797.797 0 0 1 .121-.564c.104-.144.332-.625.504-1.066.175-.44.36-.803.413-.803.057 0 .102-.102.102-.232 0-.125.111-.362.248-.52.14-.165.272-.456.295-.652.033-.24.147-.374.36-.41.22-.034.263-.086.144-.172-.232-.17-.058-.921.209-.921.15 0 .19-.095.138-.32-.044-.196.028-.428.181-.61.141-.16.252-.455.252-.656s.083-.445.181-.54c.098-.098.216-.382.26-.63.055-.33.15-.456.346-.456.24 0 .26-.062.185-.547-.075-.468-.052-.554.181-.624.223-.073.26-.167.197-.532-.052-.287-.008-.54.118-.713.11-.14.235-.52.287-.834.067-.437.15-.574.346-.574.217 0 .236-.05.126-.296-.177-.382.04-1.082.327-1.082.165 0 .192-.098.126-.456-.118-.615.027-1.074.334-1.074.283 0 .322-.159.107-.413-.217-.257-.008-1.139.291-1.23.188-.057.216-.124.11-.279-.22-.31-.012-1.313.295-1.408.212-.066.24-.165.17-.606-.132-.806.03-1.464.338-1.37.282.087.357-.472.098-.771-.224-.262-.02-1.283.28-1.373.211-.067.235-.182.169-.811-.099-.983.043-1.838.307-1.838.153 0 .181-.082.11-.342-.256-.925-.004-2.928.353-2.817.242.074.252.027.17-.713-.205-1.838-.055-4.234.268-4.234.16 0 .189-.847.189-5.737 0-4.876-.028-5.738-.185-5.738-.323 0-.65-2.908-.355-3.125.284-.204.185-1.75-.106-1.664-.334.1-.463-.673-.35-2.093.07-.925.055-1.043-.162-1.11-.279-.087-.503-1.444-.279-1.704.224-.264.15-.705-.117-.705-.304 0-.532-1.137-.289-1.42.242-.283.174-.721-.113-.721-.315 0-.457-.55-.339-1.302.068-.418.044-.535-.11-.535-.259 0-.547-1.192-.346-1.429.212-.248.17-.405-.111-.405-.297 0-.515-.85-.286-1.118.236-.274.165-.541-.15-.595-.252-.04-.292-.137-.283-.688.008-.476-.044-.655-.209-.705-.252-.076-.433-.872-.248-1.097.192-.228.141-.39-.126-.39-.26 0-.406-.28-.406-.786a.98.98 0 0 0-.208-.548c-.126-.145-.184-.413-.153-.668.04-.31-.012-.44-.186-.496-.129-.04-.235-.202-.24-.355 0-.153-.117-.487-.26-.74-.14-.251-.258-.606-.258-.786a.833.833 0 0 0-.209-.524c-.13-.126-.185-.362-.154-.633.035-.28-.004-.429-.114-.429-.244 0-.446-.507-.302-.771.085-.166.042-.244-.174-.308-.182-.05-.306-.22-.335-.456-.023-.208-.126-.433-.227-.5-.103-.066-.186-.292-.186-.495 0-.209-.055-.378-.13-.378-.07 0-.31-.446-.53-.987-.217-.55-.45-1.028-.508-1.075-.064-.044-.083-.204-.048-.363.044-.195-.02-.31-.208-.37-.186-.054-.272-.204-.272-.48 0-.216-.075-.397-.161-.401-.256-.01-.74-1.007-.661-1.361zm-60.334.95a42.285 42.285 0 0 0-4.16.219C26.396 3.66 9.223 18.665 1.727 40.138c-2.31 6.678-2.31 7.399.043 2.263 5.187-11.357 12.203-19.423 21.664-25.024 7.535-4.47 14.86-6.268 23.748-5.855 7.193.306 12.553 1.85 18.654 5.241l4.23 2.362 5.796-2.673c3.137-1.487 5.753-2.876 5.753-3.08 0-.205-1.613-1.595-3.577-3.031-7.968-5.757-18.207-8.992-28-8.955Zm45.541 6.85c-.263 0-2.735 1.175-5.47 2.557-2.735 1.327-5.168 2.554-5.426 2.657-.221.1.996 1.739 2.734 3.679 16.887 18.507 21.75 48.615 11.807 73.206-7.162 17.74-19.405 29.393-36.464 34.863-2.65.818-.177.614 4.253-.406 24.05-5.52 42.284-27.605 46.322-56.234.909-6.34.692-18.507-.437-24.59-2.255-12.062-6.858-22.542-14.195-32.36-1.43-1.889-2.82-3.424-3.124-3.373Zm-13.03 6.118c-.302 0-2.958 1.224-5.875 2.653-2.958 1.428-5.35 2.754-5.35 2.908 0 .205 1.046 1.173 2.305 2.192 7.618 6.17 14.797 17.748 17.841 28.92 3.133 11.27 2.96 25.347-.432 36.36-5.485 18.004-17.929 31.42-33.637 36.366-4.267 1.377-3.047 1.582 2.219.46C76.109 120.64 90.206 108.3 97.561 91.06c3.919-9.178 5.529-17.338 5.572-27.795 0-13.513-3.266-25.5-9.92-36.263-2.613-4.331-9.748-12.75-10.665-12.648zm-43.372 5.392v7.847c0 7.488.043 7.842.869 7.842.787 0 .873-.354.873-3.238 0-1.822.217-3.444.48-3.644.74-.508 2.66 1.365 4.274 4.25 1.09 1.975 1.747 2.632 2.531 2.632h1.09l-1.003-1.924c-.524-1.011-1.484-2.68-2.138-3.643l-1.22-1.823 1.048-1.365c1.392-1.924 1.306-3.645-.222-5.466-1.131-1.315-1.57-1.468-3.923-1.468zm17.357 1.148c-.767 0-1.508.154-2.231.458-3.199 1.369-4.69 3.852-4.69 7.807 0 4.463 2.629 7.457 7.06 8.063 1.883.257 2.365.154 2.848-.606.964-1.523.744-1.826-1.098-1.472-2.455.457-5.524-1.216-6.441-3.498-.968-2.334-.528-5.124 1.137-7.048 1.972-2.282 5.611-1.98 8.196.708.921 1.015.921 1.015 1.228-.05.351-1.37.044-1.878-1.928-3.043-1.45-.887-2.801-1.32-4.08-1.32zm-14.174.879c.783 0 1.655.252 1.964.605.303.355.523 1.063.523 1.669 0 1.519-.83 2.278-2.488 2.278-1.395 0-1.44-.05-1.44-2.278 0-2.224.044-2.274 1.441-2.274zm-14.537.269c-.249-.005-.411.196-.519.573-.086.362-.393 3.372-.654 6.646a367.625 367.625 0 0 1-.739 8.15c-.217 1.972-.173 2.231.61 2.231.912 0 1.432-1.66 1.432-4.412 0-.935.437-1.247 2.74-2.025l2.695-.934 1.346 1.87c.783 1.09 1.739 1.869 2.306 1.869.562 0 .913-.209.826-.468-.09-.312-2.133-3.428-4.608-7.01-3.164-4.594-4.688-6.473-5.435-6.49zm39.16 2.293c-.174 0-1.607 3.155-3.168 6.976-2.645 6.518-2.818 7.075-2.082 7.687.693.56.914.306 1.994-2.291.698-1.63 1.347-3.002 1.39-3.105.087-.103 1.605.61 3.428 1.629l3.34 1.783-1.345 3.053c-1.259 3.008-1.259 3.106-.433 3.616.779.459.995.154 2.515-3.41 3.47-8.198 4.21-10.39 3.513-10.898-.995-.712-1.124-.61-2.125 2.342-.518 1.578-1.128 2.955-1.345 3.105-.477.358-6.462-3.259-6.462-3.868 0-.308.52-1.732 1.126-3.157.912-2.09.999-2.65.52-3.006-.304-.252-.694-.456-.867-.456zM29.1 26.35c.22.09.589.598 1.33 1.612.782 1.09 1.432 2.18 1.432 2.388 0 .204-.477.52-1.043.673-.564.157-1.346.468-1.74.626-.562.256-.692-.055-.692-1.405 0-.984.131-2.334.302-3.01.131-.65.195-.975.412-.884zm-15.954 2.953c-.26 0-.567.312-.701.72-.22.721 1.055 16.826 1.405 17.237.087.105.48-.102.878-.511.524-.516.657-1.236.437-3.09l-.264-2.416 2.498-1.598 2.504-1.593 1.928 1.593c1.622 1.39 2.015 1.491 2.542.93.483-.62-.263-1.497-5.088-6.022-3.156-2.881-5.918-5.249-6.139-5.249zm1.228 3.6c.09 0 .92.721 1.888 1.65.922.873 1.709 1.798 1.709 2.007 0 .669-2.72 2.11-3.07 1.645-.35-.41-.834-5.301-.528-5.301Zm13.332 18.937c-.043 0-1.259 1.024-2.648 2.247-9.693 8.569-15.993 21.368-16.517 33.714-.475 10.66 3 18.208 9.823 21.218 3.608 1.577 8.909 1.224 12.125-.818 8.255-5.254 10.297-18.21 4.127-26.268-1.999-2.602-4.04-4.128-6.43-4.793-2.35-.714-6.564-.358-8.865.665-1.216.508-2.217.917-2.217.814 0-.715 1.783-4.742 3.345-7.65 2.216-3.977 5.954-8.468 9.127-11.018 1.128-.917 2.129-1.685 2.215-1.783.13-.101-3.868-6.327-4.085-6.327zm39.725 0c-1.305 0-2.132 1.067-13.666 17.56-10.708 15.276-12.318 17.763-12.318 19.285v1.724l10.359.103 10.317.153.174 18.267 3.309.153 3.262.154.087-9.287.13-9.287 2.526-.153 2.478-.153v-7.002l-2.478-.153-2.526-.153-.13-15.631-.087-15.58Zm-5.485 15.733c.134 0 .264 3.451.35 7.61.087 6.093 0 7.667-.48 7.868-.345.153-2.915.204-5.702.153l-5.092-.153 5.313-7.714c2.959-4.261 5.481-7.764 5.611-7.764zM23.65 84.457c1.157.042 2.249.285 3.144.745 5.391 2.651 5.999 11.474 1.13 15.708-2.519 2.244-6.95 1.783-9.516-.917-2.215-2.4-3.128-5.202-2.955-9.385l.13-3.317 2.35-1.429c1.682-.987 3.79-1.475 5.717-1.405z" />
</svg>