<?xml version="1.0" encoding="UTF-8"?>
<svg xmlns="http://www.w3.org/2000/svg" xmlns:xlink="http://www.w3.org/1999/xlink" width="128px" height="128px" viewBox="0 0 128 128" version="1.1">
<defs>
<clipPath id="clip1">
  <path d="M 60 1 L 127.675781 1 L 127.675781 127.621094 L 60 127.621094 Z M 60 1 "/>
</clipPath>
</defs>
<g id="surface1">
<path style=" stroke:none;fill-rule:evenodd;fill:rgb(8.627451%,20.784314%,54.901961%);fill-opacity:1;" d="M 45.832031 2.207031 C 26.496094 4.246094 9.449219 19.140625 2.007812 40.457031 C -0.285156 47.085938 -0.285156 47.800781 2.050781 42.703125 C 7.199219 31.429688 14.164062 23.421875 23.554688 17.863281 C 31.035156 13.425781 38.304688 11.640625 47.128906 12.050781 C 54.269531 12.355469 59.589844 13.886719 65.644531 17.253906 L 69.84375 19.597656 L 75.597656 16.945312 C 78.710938 15.46875 81.308594 14.089844 81.308594 13.886719 C 81.308594 13.683594 79.707031 12.304688 77.757812 10.878906 C 68.71875 4.347656 56.734375 1.085938 45.832031 2.207031 Z M 45.832031 2.207031 "/>
<path style=" stroke:none;fill-rule:evenodd;fill:rgb(0%,50.588235%,68.235294%);fill-opacity:1;" d="M 89.738281 11.328125 C 87.023438 12.644531 84.609375 13.863281 84.351562 13.964844 C 84.132812 14.066406 85.339844 15.691406 87.066406 17.617188 C 103.828125 35.988281 108.65625 65.875 98.785156 90.285156 C 91.675781 107.894531 79.523438 119.460938 62.589844 124.890625 C 59.960938 125.703125 62.414062 125.5 66.8125 124.488281 C 90.683594 119.007812 108.785156 97.085938 112.792969 68.667969 C 113.695312 62.375 113.480469 50.296875 112.359375 44.257812 C 110.121094 32.285156 105.550781 21.882812 98.269531 12.136719 C 96.847656 10.261719 95.46875 8.738281 95.167969 8.789062 C 94.90625 8.789062 92.453125 9.957031 89.738281 11.328125 Z M 89.738281 11.328125 "/>
<path style=" stroke:none;fill-rule:evenodd;fill:rgb(8.627451%,20.784314%,54.901961%);fill-opacity:1;" d="M 76.402344 17.496094 C 73.464844 18.914062 71.089844 20.230469 71.089844 20.382812 C 71.089844 20.585938 72.128906 21.546875 73.378906 22.558594 C 80.941406 28.683594 88.066406 40.175781 91.089844 51.265625 C 94.199219 62.453125 94.027344 76.425781 90.660156 87.359375 C 85.214844 105.230469 72.863281 118.546875 57.269531 123.457031 C 53.035156 124.824219 54.246094 125.027344 59.472656 123.914062 C 75.84375 120.367188 89.835938 108.117188 97.136719 91.003906 C 101.027344 81.894531 102.625 73.792969 102.667969 63.414062 C 102.667969 50 99.425781 38.101562 92.820312 27.417969 C 90.226562 23.117188 83.144531 14.761719 82.234375 14.863281 C 81.933594 14.863281 79.296875 16.078125 76.402344 17.496094 Z M 76.402344 17.496094 "/>
<path style=" stroke:none;fill-rule:evenodd;fill:rgb(10.196078%,8.235294%,8.627451%);fill-opacity:1;" d="M 39.179688 28.003906 C 39.179688 35.4375 39.222656 35.789062 40.042969 35.789062 C 40.824219 35.789062 40.910156 35.4375 40.910156 32.574219 C 40.910156 30.765625 41.125 29.15625 41.386719 28.957031 C 42.121094 28.453125 44.027344 30.3125 45.628906 33.175781 C 46.710938 35.136719 47.363281 35.789062 48.140625 35.789062 L 49.222656 35.789062 L 48.226562 33.878906 C 47.707031 32.875 46.753906 31.21875 46.105469 30.261719 L 44.894531 28.453125 L 45.933594 27.097656 C 47.316406 25.1875 47.230469 23.480469 45.714844 21.671875 C 44.589844 20.367188 44.15625 20.214844 41.820312 20.214844 L 39.179688 20.214844 Z M 44.289062 22.828125 C 44.589844 23.179688 44.808594 23.882812 44.808594 24.484375 C 44.808594 25.992188 43.984375 26.746094 42.339844 26.746094 C 40.953125 26.746094 40.910156 26.695312 40.910156 24.484375 C 40.910156 22.277344 40.953125 22.226562 42.339844 22.226562 C 43.117188 22.226562 43.984375 22.476562 44.289062 22.828125 Z M 44.289062 22.828125 "/>
<path style=" stroke:none;fill-rule:evenodd;fill:rgb(10.196078%,8.235294%,8.627451%);fill-opacity:1;" d="M 54.195312 21.808594 C 51.019531 23.167969 49.539062 25.632812 49.539062 29.558594 C 49.539062 33.988281 52.148438 36.960938 56.546875 37.5625 C 58.417969 37.816406 58.894531 37.714844 59.375 36.960938 C 60.332031 35.449219 60.113281 35.148438 58.285156 35.5 C 55.847656 35.953125 52.800781 34.292969 51.890625 32.027344 C 50.929688 29.710938 51.367188 26.941406 53.019531 25.03125 C 54.976562 22.765625 58.589844 23.066406 61.15625 25.734375 C 62.070312 26.742188 62.070312 26.742188 62.375 25.683594 C 62.722656 24.324219 62.417969 23.820312 60.460938 22.664062 C 58.15625 21.253906 56.109375 21.003906 54.195312 21.808594 Z M 54.195312 21.808594 "/>
<path style=" stroke:none;fill-rule:evenodd;fill:rgb(10.196078%,8.235294%,8.627451%);fill-opacity:1;" d="M 27.394531 23.0625 C 27.308594 23.421875 27.003906 26.410156 26.746094 29.660156 C 26.488281 32.90625 26.140625 36.566406 26.011719 37.75 C 25.796875 39.707031 25.839844 39.964844 26.617188 39.964844 C 27.523438 39.964844 28.039062 38.316406 28.039062 35.585938 C 28.039062 34.65625 28.472656 34.347656 30.757812 33.574219 L 33.433594 32.648438 L 34.769531 34.503906 C 35.546875 35.585938 36.496094 36.359375 37.058594 36.359375 C 37.617188 36.359375 37.964844 36.152344 37.878906 35.894531 C 37.789062 35.585938 35.761719 32.492188 33.304688 28.9375 C 29.117188 22.855469 27.824219 21.566406 27.394531 23.0625 Z M 31.921875 30.742188 C 31.921875 30.945312 31.449219 31.257812 30.886719 31.410156 C 30.328125 31.566406 29.550781 31.875 29.160156 32.03125 C 28.601562 32.285156 28.472656 31.976562 28.472656 30.636719 C 28.472656 29.660156 28.601562 28.320312 28.773438 27.648438 C 29.03125 26.359375 29.03125 26.359375 30.5 28.371094 C 31.277344 29.453125 31.921875 30.535156 31.921875 30.742188 Z M 31.921875 30.742188 "/>
<path style=" stroke:none;fill-rule:evenodd;fill:rgb(10.196078%,8.235294%,8.627451%);fill-opacity:1;" d="M 63.636719 31.695312 C 61.011719 38.164062 60.839844 38.71875 61.570312 39.324219 C 62.257812 39.882812 62.476562 39.628906 63.550781 37.050781 C 64.242188 35.433594 64.886719 34.070312 64.929688 33.96875 C 65.015625 33.867188 66.523438 34.574219 68.332031 35.585938 L 71.648438 37.355469 L 70.3125 40.386719 C 69.0625 43.371094 69.0625 43.46875 69.882812 43.976562 C 70.65625 44.429688 70.871094 44.128906 72.378906 40.589844 C 75.824219 32.453125 76.558594 30.277344 75.867188 29.773438 C 74.878906 29.066406 74.75 29.167969 73.757812 32.097656 C 73.242188 33.664062 72.636719 35.03125 72.421875 35.179688 C 71.949219 35.535156 66.007812 31.945312 66.007812 31.339844 C 66.007812 31.035156 66.523438 29.621094 67.125 28.207031 C 68.03125 26.132812 68.117188 25.578125 67.640625 25.222656 C 67.339844 24.972656 66.953125 24.769531 66.78125 24.769531 C 66.609375 24.769531 65.1875 27.902344 63.636719 31.695312 Z M 63.636719 31.695312 "/>
<path style=" stroke:none;fill-rule:evenodd;fill:rgb(10.196078%,8.235294%,8.627451%);fill-opacity:1;" d="M 12.648438 30.417969 C 12.429688 31.132812 13.695312 47.121094 14.042969 47.527344 C 14.128906 47.632812 14.519531 47.425781 14.914062 47.019531 C 15.433594 46.507812 15.566406 45.792969 15.347656 43.953125 L 15.085938 41.554688 L 17.566406 39.96875 L 20.050781 38.386719 L 21.964844 39.96875 C 23.574219 41.347656 23.964844 41.449219 24.488281 40.890625 C 24.96875 40.277344 24.226562 39.40625 19.4375 34.914062 C 16.304688 32.054688 13.5625 29.703125 13.34375 29.703125 C 13.085938 29.703125 12.78125 30.011719 12.648438 30.417969 Z M 16.4375 34.914062 C 17.351562 35.78125 18.132812 36.699219 18.132812 36.90625 C 18.132812 37.570312 15.433594 39 15.085938 38.539062 C 14.738281 38.132812 14.257812 33.277344 14.5625 33.277344 C 14.652344 33.277344 15.476562 33.992188 16.4375 34.914062 Z M 16.4375 34.914062 "/>
<path style=" stroke:none;fill-rule:evenodd;fill:rgb(10.196078%,8.235294%,8.627451%);fill-opacity:1;" d="M 25.167969 54.304688 C 15.546875 62.808594 9.292969 75.515625 8.773438 87.769531 C 8.300781 98.351562 11.75 105.84375 18.523438 108.832031 C 22.105469 110.398438 27.367188 110.046875 30.558594 108.019531 C 38.753906 102.804688 40.78125 89.945312 34.65625 81.945312 C 32.671875 79.363281 30.644531 77.847656 28.273438 77.1875 C 25.941406 76.480469 21.757812 76.832031 19.472656 77.847656 C 18.265625 78.351562 17.273438 78.757812 17.273438 78.65625 C 17.273438 77.945312 19.042969 73.949219 20.59375 71.0625 C 22.792969 67.113281 26.503906 62.65625 29.652344 60.125 C 30.773438 59.214844 31.765625 58.453125 31.851562 58.355469 C 31.980469 58.253906 28.011719 52.074219 27.796875 52.074219 C 27.753906 52.074219 26.546875 53.089844 25.167969 54.304688 Z M 26.890625 85.1875 C 32.242188 87.820312 32.84375 96.578125 28.011719 100.78125 C 25.511719 103.007812 21.113281 102.550781 18.566406 99.871094 C 16.367188 97.488281 15.460938 94.707031 15.632812 90.554688 L 15.761719 87.261719 L 18.09375 85.84375 C 20.765625 84.277344 24.519531 83.972656 26.890625 85.1875 Z M 26.890625 85.1875 "/>
<path style=" stroke:none;fill-rule:evenodd;fill:rgb(10.196078%,8.235294%,8.627451%);fill-opacity:1;" d="M 53.664062 69.503906 C 43.035156 84.667969 41.4375 87.136719 41.4375 88.648438 L 41.4375 90.359375 L 51.71875 90.460938 L 61.960938 90.613281 L 62.132812 108.746094 L 65.417969 108.898438 L 68.65625 109.050781 L 68.742188 99.832031 L 68.871094 90.613281 L 71.378906 90.460938 L 73.839844 90.308594 L 73.839844 83.359375 L 71.378906 83.207031 L 68.871094 83.054688 L 68.742188 67.539062 L 68.65625 52.074219 L 67.230469 52.074219 C 65.933594 52.074219 65.113281 53.132812 53.664062 69.503906 Z M 62.132812 75.246094 C 62.21875 81.292969 62.132812 82.855469 61.65625 83.054688 C 61.3125 83.207031 58.761719 83.257812 55.996094 83.207031 L 50.941406 83.054688 L 56.214844 75.398438 C 59.152344 71.167969 61.65625 67.691406 61.785156 67.691406 C 61.917969 67.691406 62.046875 71.117188 62.132812 75.246094 Z M 62.132812 75.246094 "/>
<g clip-path="url(#clip1)" clip-rule="nonzero">
<path style=" stroke:none;fill-rule:evenodd;fill:rgb(26.666667%,67.45098%,23.529412%);fill-opacity:1;" d="M 109.851562 1.046875 C 109.851562 1.488281 108.832031 1.761719 108.804688 1.328125 C 108.796875 1.222656 108.75 1.308594 108.695312 1.519531 C 108.617188 1.839844 108.535156 1.894531 108.140625 1.867188 C 107.777344 1.84375 107.664062 1.898438 107.609375 2.132812 C 107.570312 2.316406 107.390625 2.46875 107.144531 2.527344 C 106.925781 2.578125 106.679688 2.714844 106.601562 2.828125 C 106.414062 3.089844 105.882812 3.101562 105.75 2.847656 C 105.683594 2.722656 105.625 2.785156 105.574219 3.039062 C 105.527344 3.285156 105.367188 3.460938 105.117188 3.550781 C 104.90625 3.625 104.542969 3.796875 104.3125 3.925781 C 103.984375 4.117188 103.863281 4.128906 103.738281 3.980469 C 103.515625 3.722656 103.367188 3.75 103.460938 4.039062 C 103.570312 4.371094 103.265625 4.558594 102.886719 4.390625 C 102.433594 4.1875 102.335938 4.21875 102.335938 4.550781 C 102.335938 4.960938 101.894531 5.222656 101.558594 5.011719 C 101.335938 4.875 101.296875 4.894531 101.296875 5.160156 C 101.296875 5.40625 101.214844 5.46875 100.875 5.46875 C 100.609375 5.46875 100.363281 5.582031 100.226562 5.769531 C 99.976562 6.113281 99.488281 6.167969 99.242188 5.886719 C 99.113281 5.734375 99.097656 5.75 99.171875 5.976562 C 99.289062 6.34375 99.003906 6.554688 98.542969 6.441406 C 98.277344 6.375 98.1875 6.414062 98.1875 6.589844 C 98.1875 7.039062 97.246094 7.351562 97.105469 6.949219 C 97.070312 6.84375 97.035156 6.914062 97.03125 7.105469 C 97.019531 7.527344 96.683594 7.703125 96.355469 7.464844 C 96.027344 7.226562 96.03125 7.226562 96.085938 7.785156 C 96.125 8.1875 96.488281 8.710938 97.9375 10.453125 C 100.292969 13.285156 103.074219 17.261719 104.28125 19.515625 C 104.386719 19.714844 104.628906 20.136719 104.816406 20.453125 C 105.4375 21.511719 106.375 23.253906 106.703125 23.96875 C 106.878906 24.359375 107.171875 24.984375 107.347656 25.359375 C 108.4375 27.664062 109.875 31.257812 110.59375 33.484375 C 110.703125 33.820312 110.84375 34.230469 110.90625 34.394531 C 111.144531 35.03125 111.804688 37.429688 112.328125 39.558594 C 112.46875 40.144531 112.640625 40.828125 112.703125 41.078125 C 113.933594 45.894531 114.59375 52.796875 114.480469 59.679688 C 114.375 66.191406 113.9375 69.949219 112.519531 76.523438 C 112.300781 77.542969 110.859375 82.664062 110.574219 83.445312 C 110.480469 83.695312 110.300781 84.210938 110.171875 84.585938 C 109.609375 86.214844 108.109375 89.871094 107.464844 91.191406 C 107.21875 91.691406 106.863281 92.4375 106.675781 92.847656 C 106.035156 94.230469 104.488281 97 103.027344 99.378906 C 98.871094 106.136719 92.285156 113.042969 85.585938 117.664062 C 83.09375 119.382812 81.40625 120.355469 77.476562 122.335938 C 77.242188 122.453125 76.9375 122.550781 76.796875 122.550781 C 76.65625 122.550781 76.539062 122.613281 76.539062 122.6875 C 76.539062 122.910156 75.757812 123.058594 75.59375 122.867188 C 75.382812 122.621094 75.246094 122.664062 75.246094 122.980469 C 75.246094 123.324219 74.710938 123.640625 74.453125 123.449219 C 74.175781 123.242188 73.949219 123.28125 73.949219 123.539062 C 73.949219 123.890625 73.394531 124.136719 73.066406 123.929688 C 72.679688 123.691406 72.523438 123.726562 72.523438 124.050781 C 72.523438 124.210938 72.429688 124.378906 72.316406 124.429688 C 71.988281 124.578125 71.226562 124.539062 71.226562 124.371094 C 71.226562 124.289062 71.171875 124.21875 71.109375 124.21875 C 71.042969 124.21875 71.019531 124.351562 71.054688 124.507812 C 71.140625 124.886719 70.734375 125.039062 70 124.910156 C 69.511719 124.828125 69.4375 124.851562 69.375 125.125 C 69.328125 125.339844 69.191406 125.441406 68.9375 125.453125 C 68.476562 125.476562 68.550781 125.480469 67.824219 125.355469 C 67.265625 125.257812 67.207031 125.277344 67.207031 125.550781 C 67.207031 125.992188 65.796875 126.285156 65.585938 125.890625 C 65.429688 125.59375 64.761719 125.707031 64.832031 126.019531 C 64.921875 126.429688 64.347656 126.523438 62.515625 126.402344 C 61.019531 126.300781 60.988281 126.304688 60.988281 126.621094 C 60.988281 127.257812 61.347656 127.308594 64.804688 127.1875 L 68.179688 127.097656 C 69.125 127.28125 70.058594 127.257812 70.058594 127.054688 C 70.058594 126.910156 70.234375 126.796875 70.546875 126.742188 C 71.972656 126.492188 72.238281 126.476562 72.320312 126.636719 C 72.472656 126.925781 73.261719 126.835938 73.332031 126.519531 C 73.425781 126.109375 74.859375 125.835938 75.050781 126.195312 C 75.207031 126.492188 75.746094 126.371094 75.671875 126.050781 C 75.59375 125.691406 76.261719 125.496094 77.066406 125.644531 C 77.46875 125.722656 77.578125 125.691406 77.578125 125.519531 C 77.578125 125.222656 78.589844 124.886719 78.785156 125.121094 C 79.015625 125.390625 79.390625 125.3125 79.390625 124.996094 C 79.390625 124.828125 79.511719 124.671875 79.683594 124.621094 C 80.136719 124.476562 80.6875 124.507812 80.6875 124.675781 C 80.6875 124.757812 80.742188 124.828125 80.804688 124.828125 C 80.871094 124.828125 80.894531 124.691406 80.859375 124.53125 C 80.777344 124.175781 81.253906 123.980469 81.859375 124.121094 C 82.144531 124.1875 82.242188 124.15625 82.242188 123.992188 C 82.242188 123.71875 82.777344 123.546875 83.214844 123.675781 C 83.476562 123.75 83.539062 123.714844 83.539062 123.476562 C 83.539062 123.125 84.257812 122.871094 84.488281 123.140625 C 84.699219 123.394531 84.835938 123.34375 84.835938 123.015625 C 84.835938 122.648438 84.988281 122.53125 85.480469 122.515625 C 85.6875 122.507812 85.894531 122.402344 85.933594 122.28125 C 85.988281 122.109375 86.132812 122.078125 86.523438 122.152344 C 86.980469 122.238281 87.039062 122.214844 87.039062 121.945312 C 87.039062 121.628906 87.53125 121.382812 87.871094 121.535156 C 87.980469 121.585938 88.078125 121.492188 88.121094 121.300781 C 88.179688 121.035156 88.261719 121 88.652344 121.074219 C 89.054688 121.152344 89.113281 121.125 89.113281 120.851562 C 89.113281 120.578125 89.167969 120.554688 89.566406 120.640625 C 89.972656 120.730469 90.019531 120.707031 90.019531 120.414062 C 90.019531 120.121094 90.070312 120.097656 90.464844 120.183594 C 90.859375 120.269531 90.914062 120.242188 90.953125 119.933594 C 90.980469 119.699219 91.097656 119.570312 91.316406 119.535156 C 91.496094 119.507812 91.691406 119.382812 91.75 119.261719 C 91.824219 119.105469 91.972656 119.066406 92.234375 119.136719 C 92.5625 119.21875 92.613281 119.1875 92.613281 118.898438 C 92.613281 118.605469 92.664062 118.578125 93.046875 118.660156 C 93.433594 118.746094 93.476562 118.722656 93.464844 118.414062 C 93.457031 118.132812 93.519531 118.074219 93.800781 118.097656 C 94.042969 118.113281 94.164062 118.035156 94.210938 117.832031 C 94.25 117.640625 94.386719 117.539062 94.597656 117.539062 C 94.773438 117.539062 94.949219 117.441406 94.988281 117.328125 C 95.070312 117.078125 95.796875 116.625 96.117188 116.625 C 96.242188 116.625 96.371094 116.492188 96.410156 116.324219 C 96.449219 116.15625 96.585938 116.019531 96.71875 116.019531 C 96.851562 116.019531 97.03125 115.882812 97.121094 115.714844 C 97.210938 115.546875 97.363281 115.410156 97.460938 115.410156 C 97.558594 115.410156 97.714844 115.304688 97.804688 115.171875 C 97.898438 115.042969 98.082031 114.96875 98.210938 115.007812 C 98.371094 115.058594 98.445312 114.996094 98.445312 114.816406 C 98.445312 114.667969 98.578125 114.46875 98.738281 114.371094 C 98.898438 114.273438 99.203125 114.058594 99.417969 113.894531 C 99.632812 113.726562 99.890625 113.546875 99.992188 113.488281 C 100.09375 113.429688 100.277344 113.277344 100.402344 113.144531 C 100.9375 112.582031 101.070312 112.5 101.308594 112.574219 C 101.503906 112.632812 101.558594 112.570312 101.558594 112.285156 C 101.558594 112.082031 101.605469 111.917969 101.667969 111.917969 C 101.765625 111.917969 101.957031 111.753906 102.554688 111.164062 C 102.644531 111.078125 102.804688 111.007812 102.914062 111.007812 C 103.023438 111.007812 103.113281 110.90625 103.113281 110.78125 C 103.113281 110.652344 103.226562 110.550781 103.371094 110.550781 C 103.515625 110.550781 103.632812 110.472656 103.632812 110.371094 C 103.632812 110.128906 104.285156 109.335938 104.484375 109.335938 C 104.570312 109.335938 104.675781 109.234375 104.714844 109.109375 C 104.757812 108.984375 104.871094 108.882812 104.972656 108.882812 C 105.074219 108.882812 105.191406 108.78125 105.234375 108.652344 C 105.273438 108.527344 105.398438 108.425781 105.507812 108.425781 C 105.617188 108.425781 105.707031 108.324219 105.707031 108.199219 C 105.707031 108.074219 105.792969 107.972656 105.902344 107.972656 C 106.011719 107.972656 106.136719 107.867188 106.175781 107.742188 C 106.21875 107.617188 106.390625 107.515625 106.558594 107.515625 C 106.761719 107.515625 106.839844 107.445312 106.796875 107.3125 C 106.710938 107.042969 107.074219 106.699219 107.324219 106.808594 C 107.515625 106.894531 107.578125 106.746094 107.527344 106.316406 C 107.476562 105.902344 109.074219 104.203125 109.613281 104.09375 C 109.917969 104.035156 110.113281 103.910156 110.113281 103.78125 C 110.113281 103.664062 110.199219 103.566406 110.308594 103.566406 C 110.441406 103.566406 110.5 103.410156 110.5 103.0625 C 110.5 102.699219 110.613281 102.425781 110.886719 102.113281 C 111.097656 101.867188 111.273438 101.617188 111.277344 101.554688 C 111.277344 101.492188 111.382812 101.316406 111.503906 101.160156 C 111.628906 101.007812 111.949219 100.597656 112.214844 100.25 C 112.480469 99.902344 112.785156 99.617188 112.894531 99.617188 C 113.019531 99.617188 113.09375 99.480469 113.09375 99.238281 C 113.09375 99.03125 113.152344 98.859375 113.222656 98.859375 C 113.292969 98.859375 113.355469 98.773438 113.359375 98.667969 C 113.367188 98.328125 113.929688 97.6875 114.324219 97.570312 C 114.539062 97.507812 114.640625 97.425781 114.550781 97.386719 C 114.359375 97.300781 114.332031 96.886719 114.519531 96.886719 C 114.589844 96.886719 114.648438 96.75 114.648438 96.582031 C 114.648438 96.414062 114.707031 96.277344 114.78125 96.277344 C 114.855469 96.277344 114.96875 96.105469 115.039062 95.898438 C 115.113281 95.660156 115.261719 95.519531 115.433594 95.519531 C 115.636719 95.519531 115.683594 95.449219 115.628906 95.234375 C 115.582031 95.074219 115.632812 94.871094 115.746094 94.761719 C 115.855469 94.65625 115.945312 94.484375 115.945312 94.378906 C 115.945312 94.269531 116.027344 94.148438 116.125 94.101562 C 116.226562 94.058594 116.441406 93.710938 116.601562 93.328125 C 116.792969 92.882812 116.984375 92.632812 117.136719 92.632812 C 117.3125 92.632812 117.371094 92.515625 117.371094 92.179688 C 117.371094 91.925781 117.425781 91.722656 117.492188 91.722656 C 117.558594 91.722656 117.632812 91.570312 117.652344 91.378906 C 117.679688 91.167969 117.800781 91.019531 117.972656 90.992188 C 118.179688 90.957031 118.234375 90.867188 118.183594 90.644531 C 118.148438 90.480469 118.199219 90.226562 118.304688 90.085938 C 118.40625 89.941406 118.632812 89.464844 118.804688 89.027344 C 118.976562 88.589844 119.160156 88.230469 119.214844 88.230469 C 119.269531 88.230469 119.316406 88.128906 119.316406 88 C 119.316406 87.875 119.425781 87.640625 119.5625 87.484375 C 119.699219 87.320312 119.832031 87.03125 119.855469 86.835938 C 119.886719 86.597656 120 86.464844 120.210938 86.429688 C 120.429688 86.394531 120.472656 86.34375 120.355469 86.257812 C 120.125 86.089844 120.296875 85.34375 120.5625 85.34375 C 120.710938 85.34375 120.75 85.25 120.699219 85.027344 C 120.65625 84.832031 120.726562 84.601562 120.878906 84.421875 C 121.019531 84.261719 121.128906 83.96875 121.128906 83.769531 C 121.128906 83.570312 121.210938 83.328125 121.308594 83.234375 C 121.40625 83.136719 121.523438 82.855469 121.566406 82.609375 C 121.621094 82.28125 121.714844 82.15625 121.910156 82.15625 C 122.148438 82.15625 122.167969 82.09375 122.09375 81.613281 C 122.019531 81.148438 122.042969 81.0625 122.273438 80.992188 C 122.496094 80.921875 122.53125 80.828125 122.46875 80.464844 C 122.417969 80.179688 122.460938 79.929688 122.585938 79.757812 C 122.695312 79.617188 122.820312 79.242188 122.871094 78.929688 C 122.9375 78.496094 123.019531 78.359375 123.214844 78.359375 C 123.429688 78.359375 123.449219 78.308594 123.339844 78.066406 C 123.164062 77.6875 123.378906 76.992188 123.664062 76.992188 C 123.828125 76.992188 123.855469 76.894531 123.789062 76.539062 C 123.671875 75.929688 123.816406 75.472656 124.121094 75.472656 C 124.402344 75.472656 124.441406 75.316406 124.226562 75.0625 C 124.011719 74.808594 124.21875 73.933594 124.515625 73.84375 C 124.703125 73.785156 124.730469 73.71875 124.625 73.566406 C 124.40625 73.257812 124.613281 72.261719 124.917969 72.167969 C 125.128906 72.101562 125.15625 72.003906 125.085938 71.566406 C 124.957031 70.765625 125.117188 70.113281 125.421875 70.207031 C 125.703125 70.292969 125.777344 69.738281 125.519531 69.441406 C 125.296875 69.179688 125.5 68.167969 125.796875 68.078125 C 126.007812 68.011719 126.03125 67.898438 125.964844 67.273438 C 125.867188 66.296875 126.007812 65.449219 126.269531 65.449219 C 126.421875 65.449219 126.449219 65.367188 126.378906 65.109375 C 126.125 64.191406 126.375 62.203125 126.730469 62.3125 C 126.96875 62.386719 126.980469 62.339844 126.898438 61.605469 C 126.695312 59.78125 126.84375 57.402344 127.164062 57.402344 C 127.324219 57.402344 127.351562 56.5625 127.351562 51.707031 C 127.351562 46.867188 127.324219 46.011719 127.167969 46.011719 C 126.847656 46.011719 126.523438 43.125 126.816406 42.910156 C 127.097656 42.707031 127 41.171875 126.710938 41.257812 C 126.378906 41.359375 126.25 40.589844 126.363281 39.179688 C 126.433594 38.261719 126.417969 38.144531 126.203125 38.078125 C 125.925781 37.992188 125.703125 36.644531 125.925781 36.386719 C 126.148438 36.125 126.074219 35.6875 125.808594 35.6875 C 125.507812 35.6875 125.28125 34.558594 125.523438 34.277344 C 125.761719 33.996094 125.695312 33.5625 125.410156 33.5625 C 125.097656 33.5625 124.957031 33.015625 125.074219 32.269531 C 125.140625 31.855469 125.117188 31.738281 124.964844 31.738281 C 124.707031 31.738281 124.421875 30.554688 124.621094 30.320312 C 124.832031 30.074219 124.789062 29.917969 124.511719 29.917969 C 124.214844 29.917969 124 29.074219 124.226562 28.808594 C 124.460938 28.535156 124.390625 28.269531 124.078125 28.21875 C 123.828125 28.175781 123.789062 28.082031 123.796875 27.535156 C 123.804688 27.0625 123.753906 26.882812 123.589844 26.835938 C 123.339844 26.757812 123.160156 25.96875 123.34375 25.746094 C 123.535156 25.519531 123.484375 25.359375 123.21875 25.359375 C 122.960938 25.359375 122.816406 25.082031 122.816406 24.578125 C 122.816406 24.410156 122.722656 24.167969 122.609375 24.035156 C 122.484375 23.890625 122.425781 23.625 122.457031 23.371094 C 122.496094 23.0625 122.445312 22.933594 122.273438 22.878906 C 122.144531 22.839844 122.039062 22.679688 122.035156 22.527344 C 122.035156 22.375 121.917969 22.042969 121.777344 21.792969 C 121.636719 21.542969 121.519531 21.191406 121.519531 21.011719 C 121.519531 20.835938 121.425781 20.601562 121.3125 20.492188 C 121.183594 20.367188 121.128906 20.132812 121.160156 19.863281 C 121.195312 19.585938 121.15625 19.4375 121.046875 19.4375 C 120.804688 19.4375 120.605469 18.933594 120.746094 18.671875 C 120.832031 18.507812 120.789062 18.429688 120.574219 18.367188 C 120.394531 18.316406 120.269531 18.148438 120.242188 17.914062 C 120.21875 17.707031 120.117188 17.484375 120.015625 17.417969 C 119.914062 17.351562 119.832031 17.128906 119.832031 16.925781 C 119.832031 16.71875 119.777344 16.550781 119.703125 16.550781 C 119.632812 16.550781 119.394531 16.109375 119.175781 15.570312 C 118.960938 15.027344 118.730469 14.550781 118.671875 14.503906 C 118.609375 14.460938 118.589844 14.300781 118.625 14.144531 C 118.667969 13.949219 118.605469 13.835938 118.417969 13.777344 C 118.234375 13.722656 118.148438 13.574219 118.148438 13.300781 C 118.148438 13.085938 118.074219 12.90625 117.988281 12.902344 C 117.734375 12.890625 117.253906 11.902344 117.332031 11.550781 "/>
</g>
</g>
</svg>
