<svg xmlns="http://www.w3.org/2000/svg" viewBox="0 0 128 128">
   <path
      d="M110.454 9.03a.584.584 0 0 0-.182.01 1.09 1.09 0 0 0-.23.075 2.93 2.93 0 0 0-.449.246h-.002c.03-.02-.057.033-.17.086-.112.053-.267.124-.458.209-.382.17-.906.395-1.532.661a353.223 353.223 0 0 1-4.682 1.94c-1.771.72-3.404 1.398-4.61 1.909-.602.255-1.1.468-1.455.626-.178.08-.318.145-.426.197-.053.026-.098.047-.138.068-.04.022-.046-.002-.168.118v.002a.566.566 0 0 0-.142.556c.028.113.07.187.115.267.09.16.212.326.374.527.324.403.802.928 1.41 1.544 2.672 2.71 4.43 4.871 6.627 8.15 3.063 4.568 5.111 8.664 6.83 13.65 2.397 6.95 3.343 13.255 3.123 20.827-.262 9.018-2.175 16.742-6.07 24.528-9.2 18.4-27.02 30.587-47.722 32.634l-.451.043v.015c-.045.007-.086.008-.156.031-.029.01-.061.018-.133.065a.505.505 0 0 0-.062.049c-.024.022-.08.093-.08.093l-.072.17v.227l.082.18s.064.073.091.095c.054.044.092.06.121.072a.507.507 0 0 0 .113.037c.105.022.16.021.258.025.39.018 1.195.014 2.492-.008 17.571-.29 33.786-7.081 45.98-19.265 10.026-10.018 16.381-22.693 18.487-36.864.749-5.04.835-6.02.833-9.412-.002-3.245-.099-4.42-.732-8.977-1.395-10.047-5.42-20.258-11.26-28.563-.887-1.261-4.409-5.788-5.199-6.668a.515.515 0 0 0-.355-.176zm-.19 1.098c.816.953 4.146 5.21 4.926 6.319 5.743 8.166 9.717 18.247 11.089 28.125.632 4.549.72 5.615.722 8.84.002 3.378-.074 4.231-.822 9.264-2.075 13.968-8.328 26.437-18.206 36.307-10.692 10.683-24.514 17.12-39.639 18.615 17.69-4.022 32.596-15.56 40.78-31.925 3.954-7.906 5.908-15.805 6.174-24.948.223-7.672-.746-14.13-3.177-21.18-1.744-5.058-3.844-9.254-6.946-13.881-2.22-3.314-4.04-5.55-6.744-8.294v-.002c-.592-.6-1.056-1.11-1.343-1.468-.052-.064-.063-.088-.103-.142l.117-.053c.345-.154.837-.366 1.436-.62a354.223 354.223 0 0 1 4.596-1.903c1.771-.72 3.438-1.411 4.697-1.946.63-.267 1.157-.493 1.548-.667.195-.087.355-.162.48-.22.124-.06.192-.088.29-.153v.002c.05-.032.08-.045.126-.07zm-62.226.427-.491.008v.045c-2.77.068-5.53.335-8.246.886C22.821 14.794 8.93 25.44 1.717 40.31c-.402.83-.782 1.633-1.071 2.26a48.3 48.3 0 0 0-.36.792c-.091.21-.144.325-.185.459v.002l-.002.002c-.03.103-.054.18-.072.254-.009.036-.017.067-.023.132-.003.033-.01.071.01.164a.48.48 0 0 0 .023.082c.012.032.06.109.06.11l.123.12.178.079.166.01s.086-.019.117-.03a.474.474 0 0 0 .123-.064c.053-.038.073-.062.091-.082a.955.955 0 0 0 .08-.098c.045-.062.092-.134.155-.23.16-.242.697-1.099 1.221-1.944 2.7-4.341 7.32-9.483 11.364-12.646 8.766-6.858 19.095-10.434 30.13-10.436 7.96-.003 14.834 1.57 21.83 4.995l3.432 1.683 5.63-2.288a140.767 140.767 0 0 0 3.847-1.621c.495-.22.895-.403 1.182-.545.144-.07.257-.131.35-.185.046-.027.085-.05.134-.088.025-.019.052-.039.092-.084a.502.502 0 0 0 .11-.197c.011-.04.02-.145.02-.146 0-.254-.096-.342-.163-.428a1.843 1.843 0 0 0-.229-.234 7.444 7.444 0 0 0-.671-.519 34.67 34.67 0 0 0-2.168-1.374c-1.726-1.022-3.881-2.178-5.648-2.984-6.364-2.9-12.969-4.406-20.368-4.646a64.347 64.347 0 0 0-3.187-.03zm.014 1h.002a63.204 63.204 0 0 1 3.136.029h.002c7.283.237 13.742 1.71 19.988 4.557 1.716.782 3.855 1.93 5.552 2.935.848.502 1.587.969 2.101 1.33.142.1.217.166.32.246a33.95 33.95 0 0 1-.975.45c-.976.432-2.328 1.005-3.815 1.61l-5.217 2.119-3.033-1.487c-7.119-3.486-14.175-5.1-22.268-5.098-11.251.003-21.811 3.659-30.745 10.648C9.71 31.546 6.23 35.45 3.468 39.23c7.27-13.77 20.431-23.635 36.03-26.757h.002a46.232 46.232 0 0 1 8.552-.92zm46.961 4.543c-.123 0-.145.015-.193.027-.048.012-.097.029-.154.047-.113.036-.255.086-.425.148-.342.125-.797.3-1.333.511-1.072.423-2.458.987-3.833 1.558-1.375.57-2.737 1.148-3.765 1.596a54.66 54.66 0 0 0-1.252.56 8.463 8.463 0 0 0-.373.185 1.742 1.742 0 0 0-.133.077c-.022.014-.045.028-.078.056a.53.53 0 0 0-.16.232c-.07.204-.014.304.01.367a.68.68 0 0 0 .068.135c.044.07.09.125.145.19.108.128.252.28.43.458.358.355.846.808 1.394 1.284 2.304 2.004 5.208 5.175 7.32 8.005 5.372 7.193 8.834 15.525 10.236 24.638.454 2.959.513 11.29.102 14.236-1.424 10.175-5.327 19.304-11.548 27.021-1.954 2.422-6.271 6.665-8.692 8.54-5.68 4.404-12.493 7.816-19.251 9.643v-.002c-.595.16-1.145.316-1.556.439a17.86 17.86 0 0 0-.503.156c-.065.021-.118.04-.166.058l-.074.033c-.028.014-.045 0-.153.102l-.002.002-.002.002c-.05.05-.131.12-.163.302-.033.182.092.427.2.51.219.166.298.121.395.127.194.01.416-.006.741-.043.651-.073 1.673-.232 3.142-.482 9.43-1.606 18.892-5.84 26.594-11.9 2.794-2.199 8.15-7.742 10.41-10.77 5.802-7.776 9.58-16.784 11.037-26.316.581-3.805.795-10.425.447-13.978-1.335-13.653-6.86-25.692-16.34-35.61a33.741 33.741 0 0 0-1.442-1.428 9.714 9.714 0 0 0-.518-.451 2.326 2.326 0 0 0-.203-.148c-.067-.043-.076-.117-.359-.117zm-.076 1.036.016.012c.11.087.272.228.462.404.381.35.88.842 1.398 1.383 9.336 9.766 14.752 21.572 16.067 35.016.331 3.39.119 10.062-.441 13.73-1.432 9.368-5.143 18.222-10.849 25.869-2.153 2.884-7.593 8.51-10.228 10.583-6.716 5.285-14.825 9.05-23.032 10.958 5.343-1.982 10.545-4.83 15.06-8.33 2.54-1.967 6.815-6.17 8.86-8.703 6.335-7.858 10.311-17.167 11.758-27.509.447-3.202.39-11.317-.103-14.527-1.426-9.268-4.954-17.758-10.424-25.083-2.16-2.895-5.081-6.089-7.464-8.161a28.407 28.407 0 0 1-1.345-1.24c-.05-.05-.07-.074-.113-.119.29-.135.672-.308 1.15-.517 1.018-.444 2.378-1.02 3.748-1.588 1.371-.57 2.755-1.132 3.818-1.552.531-.21.982-.384 1.31-.503.148-.055.263-.094.352-.123zm-13.032 4.785c-1.128-.061-2.308.58-5.144 1.725-3.33 1.344-4.813 1.883-5.513 2.344-.175.115-.339.226-.433.482-.095.255.032.573.158.71.25.275.505.367.8.566 1.95 1.317 4.9 3.782 6.894 5.765 7.616 7.572 12.487 17.393 14.053 28.344.403 2.813.342 10.376-.109 13.27-1.692 10.848-6.296 19.962-13.957 27.634-5.06 5.065-10.886 8.79-17.792 11.37-.726.27-1.266.48-1.632.636-.182.077-.32.139-.433.203-.057.031-.105.056-.18.124-.037.035-.088.077-.138.198-.05.12-.038.388.078.526.116.139.219.158.281.174a.602.602 0 0 0 .139.02c.073.003.133-.001.2-.008.136-.014.3-.043.512-.082.423-.08 1.028-.21 1.827-.393 9.895-2.26 18.37-7 25.79-14.421C93.6 94.813 97.67 88.162 100.37 79.754c1.676-5.214 2.404-10.112 2.405-16.145 0-4.347-.228-6.808-.976-10.51-2.224-11.009-8.31-21.64-16.569-28.934-.778-.687-1.306-1.203-1.791-1.583-.485-.379-.97-.632-1.534-.663Zm-.055 1c.32.016.56.128.972.45.412.322.952.843 1.747 1.546 8.08 7.136 14.072 17.597 16.25 28.38.74 3.658.956 6.001.956 10.314 0 5.953-.711 10.72-2.357 15.84-2.659 8.277-6.62 14.754-12.818 20.95-6.35 6.351-13.507 10.565-21.642 13.046 5.418-2.502 10.196-5.769 14.402-9.98 7.8-7.81 12.517-17.15 14.239-28.188.488-3.129.55-10.5.11-13.563-1.595-11.155-6.566-21.184-14.337-28.911-2.049-2.038-5.002-4.507-7.041-5.884l-.295-.197c.487-.285 1.915-.866 5.1-2.15 2.855-1.154 4.076-1.689 4.714-1.654zm-43.805 2.944-.06 6.99-.063 6.997h2.299v-3.058c0-.697.014-1.369.037-1.884.011-.257.026-.476.04-.634.012-.126.025-.172.016-.16.007-.002 0 .002.012-.002.087-.028.294-.059.6-.059.517 0 .911.146 1.467.656.555.51 1.222 1.396 2.097 2.775v.002h.002c.668 1.052.993 1.587 1.359 1.944.182.178.402.31.624.367.222.057.417.053.625.053.205 0 .362 0 .505-.01.143-.01.297.027.523-.195a.65.65 0 0 0 .17-.447.65.65 0 0 0-.078-.275c-.063-.127-.13-.217-.21-.332L48 38.58a59.913 59.913 0 0 1-1.243-1.953v-.002c-.52-.843-1.29-1.97-1.76-2.565-.213-.269-.41-.538-.545-.743-.035-.054-.052-.086-.078-.13.085-.084.2-.187.334-.282 1.569-1.116 1.894-3.565.826-5.324a3.135 3.135 0 0 0-1.71-1.372c-.764-.262-1.719-.347-3.03-.347zm.991 1h1.624c-.286.028-.595.127-.795.36-.428.499-.429 1.133-.51 2.221-.094 1.237-.154 1.957.122 2.557.138.3.413.54.708.645.296.106.596.12.945.12.617 0 1.369-.127 1.889-.344 1.519-.635 2.12-2.51 1.343-4.014a2.301 2.301 0 0 0-.994-.972c-.402-.212-.918-.345-1.516-.459.59.047 1.297.059 1.65.18.578.198.886.465 1.178.944.794 1.307.469 3.267-.55 3.991a3.59 3.59 0 0 0-.508.433c-.07.074-.132.145-.187.229-.056.083-.135.158-.135.392 0 .147.031.192.053.246.021.054.044.101.07.15.052.098.117.205.195.324.157.239.365.525.595.816.416.527 1.199 1.663 1.694 2.467.349.572.71 1.135 1.078 1.696-.106-.004-.221-.006-.26-.016-.056-.015-.083-.023-.178-.115-.189-.185-.545-.714-1.212-1.764-.893-1.409-1.587-2.352-2.267-2.976-.68-.625-1.395-.92-2.143-.92-.356 0-.64.021-.902.104-.26.082-.53.277-.638.556-.08.208-.065.285-.082.468a15.33 15.33 0 0 0-.043.681 44.929 44.929 0 0 0-.039 1.929v2.058h-.29l.052-5.989zm16.24.103a7.781 7.781 0 0 0-.876.072 6.806 6.806 0 0 0-2.183.683c-1.297.67-2.687 2.183-3.33 3.587-.81 1.77-.775 4.338.1 6.03h-.002c.992 1.92 2.579 3.182 4.861 3.907.616.195 1.66.269 2.664.3.502.016.978.015 1.356-.01.19-.011.35-.027.498-.056.073-.015.143-.031.224-.064.081-.033.2-.066.31-.264.08-.141.1-.227.143-.365.043-.139.089-.3.127-.46l.273-1.152h-2.824c-.974 0-1.53-.017-1.92-.086-.39-.068-.643-.179-1.109-.427-1.97-1.048-2.853-2.416-2.837-4.29.028-3.43 2.848-5.719 6.085-4.966 1.182.275 2.694 1.102 3.21 1.672h.002v.002c.317.35.628.645 1.114.586a.883.883 0 0 0 .582-.361c.123-.172.19-.36.244-.572.071-.287.096-.625-.049-.923-.145-.298-.371-.495-.685-.753-1.715-1.41-3.909-2.146-5.977-2.09zm-14.503.868c.141-.008.402.02.76.082.625.108 1.07.246 1.369.404.299.157.454.318.572.546.529 1.023.116 2.235-.84 2.635-.282.118-1.058.265-1.504.265-.306 0-.515-.026-.61-.06-.097-.034-.094-.03-.136-.121-.082-.18-.126-.854-.035-2.067.081-1.07.227-1.591.274-1.645.023-.027.008-.031.15-.039zm14.537.146c1.815-.04 3.789.599 5.31 1.848.284.234.401.377.421.418.02.041.03.043-.021.244-.017.067-.027.074-.043.113 0-.015-.013 0-.19-.195-.788-.872-2.329-1.652-3.725-1.977-3.811-.886-7.278 1.942-7.31 5.933-.019 2.215 1.17 4.01 3.366 5.18.495.263.896.438 1.407.528.512.09 1.107.102 2.092.102h1.556a6.22 6.22 0 0 1-.086.314l-.008.021c-.075.011-.153.022-.275.03-.327.02-.783.024-1.263.01-.959-.03-2.075-.158-2.392-.258v.002c-2.099-.667-3.396-1.714-4.276-3.416-.671-1.297-.716-3.758-.078-5.152v-.002c.516-1.125 1.905-2.61 2.88-3.114a5.702 5.702 0 0 1 1.868-.57c.25-.033.507-.053.767-.059zm-28.559.137a.818.818 0 0 0-.296.094.996.996 0 0 0-.363.365c-.058.093-.053.114-.061.14a1.014 1.014 0 0 0-.018.068c-.01.044-.017.09-.027.147-.02.112-.043.26-.07.445-.053.369-.121.879-.2 1.489-.155 1.22-.35 2.833-.542 4.47-.191 1.639-.38 3.302-.52 4.618a50.573 50.573 0 0 0-.194 2.08h-.043l-.004.496c0 .12.002.227.03.355a.712.712 0 0 0 .263.43.708.708 0 0 0 .482.122c.13-.01.234-.039.35-.074.186-.056.363-.104.55-.222.187-.118.35-.319.443-.537.185-.436.231-.964.355-1.996v-.002c.062-.515.142-1.007.216-1.372a5.84 5.84 0 0 1 .102-.435l.002-.008.076-.031a13 13 0 0 1 .566-.21c.467-.161 1.082-.358 1.706-.55a56.07 56.07 0 0 1 1.762-.51c.252-.069.472-.124.638-.16.113-.026.14-.03.18-.036l.01.008c.081.062.206.171.349.308.285.275.65.667 1.009 1.097.694.832 1.084 1.303 1.537 1.573.227.135.514.207.771.158.257-.049.446-.175.625-.308v-.002a.743.743 0 0 0 .267-.418.837.837 0 0 0-.049-.465c-.098-.269-.27-.53-.568-.94-.596-.819-1.71-2.179-3.708-4.584-2.176-2.621-3.431-4.094-4.248-4.87-.408-.387-.69-.627-1.071-.717a.884.884 0 0 0-.307-.016zm.203 1.085c.079.044.2.099.488.373.726.69 1.994 2.166 4.166 4.783 1.996 2.403 3.113 3.77 3.67 4.533.224.309.297.452.353.56l-.008.004c-.008.002.014.017-.072-.035-.173-.103-.597-.533-1.283-1.354-.38-.455-.762-.868-1.083-1.177a5.099 5.099 0 0 0-.435-.382 1.598 1.598 0 0 0-.203-.135c-.073-.04-.144-.094-.334-.094h-.004c-.177.002-.288.032-.476.074-.188.043-.417.102-.677.172a56.522 56.522 0 0 0-3.536 1.083c-.243.084-.45.16-.613.225-.081.032-.15.062-.214.093s-.105.032-.225.15c-.117.117-.127.178-.154.243a1.874 1.874 0 0 0-.068.199 6.441 6.441 0 0 0-.123.517c-.082.401-.163.912-.229 1.452-.123 1.031-.214 1.563-.283 1.725-.034.08-.027.063-.056.082-.012.007-.087.031-.121.045a61.73 61.73 0 0 1 .213-2.28c.14-1.31.327-2.97.519-4.605.191-1.636.387-3.248.542-4.461.078-.607.145-1.115.197-1.474.02-.136.035-.227.049-.316zm38.947.689a.521.521 0 0 0-.266.16 1.797 1.797 0 0 0-.06.072l-.022.031-.027.047a27.59 27.59 0 0 0-.244.474c-.154.308-.37.742-.63 1.275a664.689 664.689 0 0 0-1.99 4.104h-.003v.002c-1.254 2.607-1.937 4.05-2.281 4.91-.172.43-.267.707-.291.981-.024.274.13.62.31.756h.002v.002c.14.104.29.186.441.25.153.064.29.117.498.117.318 0 .36-.124.427-.188a1.65 1.65 0 0 0 .176-.203c.115-.15.242-.34.384-.573.285-.466.63-1.092.972-1.782v-.002c.333-.668.665-1.276.925-1.706.11-.18.196-.304.27-.408.01.005.015.005.027.01.186.074.45.184.763.322.627.276 1.459.658 2.342 1.077 1.228.586 2.028.993 2.494 1.273.22.132.354.233.421.294-.012.018-.037.16-.125.39-.104.277-.251.618-.413.94-.66 1.311-1.072 2.19-1.29 2.815-.11.313-.176.559-.182.808-.005.25.104.579.354.736.223.141.547.314.925.213.377-.101.613-.377.882-.773.538-.791 1.255-2.267 2.615-5.095a286.393 286.393 0 0 0 1.922-4.07c.247-.535.449-.979.59-1.301a12.694 12.694 0 0 0 .214-.527c.014-.042.041-.019.041-.215 0-.302-.143-.451-.263-.58a1.874 1.874 0 0 0-.404-.317c-.147-.088-.301-.16-.47-.205-.17-.046-.38-.106-.65.062l-.003.002c-.114.072-.12.102-.144.131a1.09 1.09 0 0 0-.059.08 3.514 3.514 0 0 0-.115.183c-.084.143-.188.33-.31.559a58.963 58.963 0 0 0-.88 1.72h-.002a29.947 29.947 0 0 1-.886 1.677 8.877 8.877 0 0 1-.281.46c-.173-.06-.424-.157-.718-.28a58.653 58.653 0 0 1-2.147-.966 64.376 64.376 0 0 1-2.184-1.076 19.47 19.47 0 0 1-.769-.417c-.168-.098-.256-.168-.265-.17.002-.026.003-.08.049-.224.108-.346.39-.992.9-2.075.33-.702.623-1.344.83-1.819.105-.237.187-.433.245-.577.028-.073.05-.131.068-.188.01-.028.018-.051.027-.097.005-.023.012-.05.012-.11 0-.03-.017-.131-.018-.132l-.046-.12-.125-.146c-.232-.188-.507-.312-.783-.423a2.95 2.95 0 0 0-.398-.133 1.029 1.029 0 0 0-.21-.033c-.043-.002-.1-.016-.172-.002zm-38.274 1.075a.827.827 0 0 0-.503.357 1.724 1.724 0 0 0-.21.527c-.106.408-.186.983-.286 1.868-.132 1.168-.192 1.925-.156 2.46.018.269.052.49.182.71a.87.87 0 0 0 .675.387c.186 0 .218-.026.347-.056.13-.03.291-.07.478-.121.375-.1.85-.238 1.345-.388h.002c.507-.156.966-.324 1.317-.482.176-.08.322-.156.449-.239.064-.041.122-.081.187-.148.066-.066.18-.164.18-.414v-.004c-.002-.32-.103-.396-.201-.564a7.066 7.066 0 0 0-.379-.562 23.45 23.45 0 0 0-1.114-1.39 21.955 21.955 0 0 0-1.185-1.283 5.713 5.713 0 0 0-.478-.431 1.517 1.517 0 0 0-.224-.15c-.084-.045-.175-.125-.426-.077zm38.627 0c.022.009.033.01.056.02.092.036.134.07.223.117-.045.107-.082.2-.146.347-.203.463-.493 1.1-.82 1.796-.512 1.09-.804 1.733-.95 2.199-.074.233-.118.428-.102.642a.96.96 0 0 0 .258.562c.156.157.292.226.51.353.22.128.494.276.81.441.634.33 1.429.72 2.22 1.093.79.373 1.575.729 2.187.986.307.128.57.232.777.304a3 3 0 0 0 .281.086c.044.01.085.02.14.025.056.006.117.028.274-.033.223-.086.225-.15.277-.21.051-.061.097-.125.148-.2.103-.15.222-.342.355-.573.267-.462.592-1.074.918-1.735v-.002c.319-.648.628-1.248.864-1.688.107-.199.192-.352.262-.473.034.016.058.022.093.043.055.033.09.067.13.1-.033.078-.067.161-.12.283-.135.31-.334.75-.58 1.282a283.844 283.844 0 0 1-1.914 4.055c-1.359 2.826-2.103 4.323-2.54 4.967-.22.322-.351.378-.317.369.002 0-.01-.006-.008-.006.007-.073.032-.216.115-.455.184-.527.584-1.398 1.238-2.697.178-.354.337-.72.456-1.034.12-.315.215-.503.215-.822 0-.282-.155-.48-.312-.63a3.497 3.497 0 0 0-.619-.443c-.53-.319-1.342-.728-2.58-1.317-.89-.424-1.73-.808-2.369-1.09-.32-.14-.589-.255-.794-.337a5.636 5.636 0 0 0-.264-.1c-.074-.025-.068-.056-.28-.056-.334 0-.363.13-.428.193a1.678 1.678 0 0 0-.172.201c-.112.149-.236.34-.377.572a25.69 25.69 0 0 0-.967 1.778v.002a23.397 23.397 0 0 1-.93 1.705 6.096 6.096 0 0 1-.282.426c-.03-.014-.055-.03-.084-.047.015-.09.056-.272.199-.628.317-.792 1.004-2.245 2.256-4.848v-.002a672.37 672.37 0 0 1 1.986-4.098c.26-.531.475-.964.627-1.267l.08-.156zM27.87 32.168c.064.058.108.094.184.168.32.315.73.76 1.128 1.222.397.462.783.943 1.063 1.327.11.151.187.27.256.38-.038.02-.05.03-.096.051-.294.133-.726.295-1.198.44-.485.147-.953.281-1.313.378-.165.044-.299.078-.406.103-.01-.045-.013-.035-.02-.127-.026-.385.022-1.13.153-2.28.094-.837.175-1.355.25-1.662zM12.023 34.13c-.17-.002-.214.034-.273.058-.06.025-.113.053-.168.084-.11.062-.226.14-.342.226a1.11 1.11 0 0 0-.368.607c-.053.254-.055.545-.036 1.003.04.917.194 2.501.492 5.441.177 1.743.35 3.404.486 4.68.137 1.276.23 2.114.273 2.38.034.206.065.375.123.54.059.164.16.377.408.49.248.112.488.044.648-.028.16-.072.299-.165.465-.281.231-.162.492-.464.548-.824.055-.359.01-.741-.064-1.412-.083-.747-.154-1.284-.172-1.657-.018-.374.015-.551.082-.675.066-.125.206-.263.536-.469.33-.206.828-.464 1.509-.835.653-.356 1.282-.68 1.764-.911.241-.116.448-.21.593-.27.052-.021.085-.033.118-.045-.002.003-.001.007.025.02.097.05.237.13.4.232.326.204.747.493 1.167.81.838.63 1.306.984 1.786 1.151.24.084.508.103.741.037.234-.066.41-.187.58-.316.092-.07.225-.2.271-.4a.748.748 0 0 0-.086-.519c-.143-.265-.355-.468-.728-.802-.745-.668-2.145-1.776-4.71-3.786a528.157 528.157 0 0 0-4.027-3.126c-.523-.402-.952-.727-1.256-.955a20.953 20.953 0 0 0-.362-.265c-.044-.032-.08-.058-.115-.08a.905.905 0 0 0-.113-.06c-.014-.006-.03-.014-.058-.022a1.9 1.9 0 0 0-.053-.014l-.082-.007zm-.047 1.077a124.82 124.82 0 0 1 1.481 1.118c1.043.8 2.466 1.905 4.017 3.12 2.563 2.01 3.97 3.125 4.66 3.744.212.19.237.235.318.327-.02.004-.027.012-.1-.013-.204-.071-.685-.386-1.514-1.01v.003a18.052 18.052 0 0 0-1.237-.859 6.48 6.48 0 0 0-.478-.277c-.14-.07-.179-.146-.475-.146-.16 0-.197.027-.269.05a3.453 3.453 0 0 0-.234.09c-.174.072-.39.172-.642.293-.503.242-1.145.57-1.811.933-.673.366-1.17.623-1.56.866-.39.244-.698.49-.887.843-.19.354-.22.746-.2 1.195.022.448.094.985.176 1.72.074.662.09 1.026.07 1.15-.019.124.03.043-.134.158-.03.022-.035.021-.063.04-.008-.044-.013-.052-.021-.104-.02-.117-.129-1.053-.265-2.326-.137-1.273-.31-2.933-.486-4.674-.298-2.939-.452-4.53-.488-5.382-.019-.426-.001-.669.017-.758.004-.019 0-.012 0-.017.043-.032.083-.057.125-.084zm1.216 1.713c-.174 0-.418.034-.613.21-.195.174-.262.408-.29.63-.057.443.002 1.007.115 1.996.095.84.162 1.471.253 1.955.091.485.175.872.533 1.148.179.138.42.196.625.187.204-.009.386-.065.58-.14.386-.15.825-.393 1.412-.705.432-.23.83-.476 1.138-.7.154-.113.285-.218.396-.324.11-.107.23-.159.287-.463.045-.245-.035-.342-.08-.425a1.447 1.447 0 0 0-.152-.22 5.244 5.244 0 0 0-.428-.456c-.344-.333-.8-.729-1.274-1.114a21.872 21.872 0 0 0-1.382-1.042 6.774 6.774 0 0 0-.564-.353c-.168-.092-.26-.184-.556-.184zm.096 1.072c.119.065.278.165.462.29.382.261.856.623 1.313.994.457.37.898.753 1.208 1.054.104.1.165.168.233.244-.05.04-.081.071-.147.119a9.052 9.052 0 0 1-1.018.626c-.592.314-1.03.549-1.306.656a.959.959 0 0 1-.24.066c.018.008-.08-.121-.154-.515-.078-.414-.146-1.04-.242-1.883-.105-.918-.127-1.416-.11-1.651zm53.31 15.458c-.574 0-.954.006-1.324.142-.37.136-.633.386-.94.714-.15.16-.522.61-1.19 1.415-.67.806-1.595 1.925-2.708 3.277a4250.388 4250.388 0 0 0-8.403 10.243l-11.736 14.35v3.694l10.745.059 9.76.054.052 7.395.059 8.385h7.429l.004-8.175c0-2.107.02-4.052.05-5.485.016-.717.036-1.305.055-1.718.008-.167.016-.283.024-.386.087-.02.183-.04.343-.06.408-.05 1.027-.088 1.837-.108l2.948-.072v-6.557l-2.835-.072a21.252 21.252 0 0 1-1.7-.11 6.724 6.724 0 0 1-.543-.08c-.013-.083-.029-.174-.043-.337a37.481 37.481 0 0 1-.083-2.102c-.042-2.01-.055-5.342-.055-10.685V53.45Zm-40.095.226c-.178-.007-.256.034-.345.07-.09.036-.174.08-.27.133a8.92 8.92 0 0 0-.675.43 37.09 37.09 0 0 0-1.877 1.408c-1.418 1.123-3.055 2.521-4.22 3.656-3.925 3.821-6.559 7.407-8.705 11.855-1.79 3.71-2.726 6.733-3.277 10.607-.802 5.645-.018 10.622 2.126 14.43 2.144 3.806 5.662 6.424 10.202 7.315h.002l.047.008h.02c1.708.32 4.928.273 6.549-.109 4.909-1.157 8.964-4.98 10.622-9.982.504-1.519.594-2.21.59-4.559-.006-2.323-.104-3.052-.598-4.555-1.25-3.792-3.728-6.703-7.11-8.317-2.187-1.044-3.637-1.364-6.135-1.36-2.138.004-4.05.388-6.176 1.24a6.94 6.94 0 0 1-.886.294c.045-.202.106-.44.21-.746.25-.728.645-1.669 1.097-2.56 2.17-4.282 7.928-10.477 12.049-12.962.267-.161.492-.333.665-.521.087-.094.163-.19.223-.318a.67.67 0 0 0 .031-.539c-.067-.174-.144-.284-.261-.459-.118-.174-.267-.38-.44-.612a51.44 51.44 0 0 0-1.221-1.57 45.528 45.528 0 0 0-1.23-1.465 10.88 10.88 0 0 0-.454-.49 2.322 2.322 0 0 0-.18-.164.85.85 0 0 0-.107-.076c-.046-.027-.093-.075-.266-.082zm40.094.773h.748V67.23c0 5.344.012 8.677.054 10.706.022 1.015.05 1.702.088 2.165.02.231.042.405.072.552.031.147.002.276.248.48.123.102.193.114.27.139.077.024.155.042.244.06.176.036.39.066.638.094.495.055 1.125.099 1.783.117l1.862.047v4.607l-1.975.049c-.827.02-1.466.058-1.934.115a3.897 3.897 0 0 0-.59.11c-.165.047-.334.052-.51.33-.127.199-.08.2-.088.255-.009.054-.016.11-.022.175-.012.133-.023.305-.033.52-.02.428-.037 1.023-.053 1.744a275.79 275.79 0 0 0-.052 5.507l-.002 7.176h-5.441l-.05-7.394-.061-8.382-10.745-.058-9.752-.053v-2.344l11.51-14.074c3.196-3.908 6.176-7.54 8.401-10.242 1.113-1.35 2.037-2.468 2.705-3.273.668-.804 1.122-1.338 1.151-1.37.285-.304.407-.405.557-.46.15-.055.423-.08.977-.08zm-40.209.297c.097.098.22.23.373.403.335.38.77.898 1.202 1.433.432.535.863 1.087 1.196 1.536.167.224.31.422.412.575.042.063.037.059.064.106a2.123 2.123 0 0 1-.407.316c-4.388 2.646-10.114 8.805-12.426 13.366a21.87 21.87 0 0 0-1.15 2.691 7.781 7.781 0 0 0-.288 1.023 2.018 2.018 0 0 0-.043.408c.002.134-.015.305.19.509.193.193.38.196.528.197.148.001.289-.022.447-.057.317-.07.7-.197 1.157-.38 2.034-.814 3.786-1.163 5.808-1.167 2.418-.004 3.593.255 5.704 1.262 3.134 1.496 5.416 4.163 6.59 7.729.48 1.455.542 1.945.547 4.246.005 2.328-.05 2.766-.538 4.24-1.553 4.685-5.355 8.252-9.904 9.325-1.333.314-4.79.367-6.195.092-4.276-.84-7.513-3.254-9.525-6.827C8.118 92.2 7.346 87.45 8.124 81.975c.539-3.79 1.429-6.67 3.187-10.314 2.098-4.349 4.642-7.812 8.504-11.572 1.124-1.094 2.746-2.486 4.14-3.59a36.173 36.173 0 0 1 1.826-1.367c.244-.168.45-.3.595-.38l.012-.007zm34.726 11.65a.967.967 0 0 0-.293.025c-.18.04-.346.121-.496.244h-.002v.002c-.128.107-.129.13-.216.23-.088.102-.204.238-.346.407-.284.338-.672.805-1.13 1.362a802.365 802.365 0 0 0-3.337 4.09c-2.439 3.008-4.918 6.093-5.425 6.79l-.002.001c-.162.224-.289.45-.375.67-.043.11-.077.216-.094.337-.016.121-.037.273.088.475.167.268.258.22.318.238.061.019.112.028.166.037.11.018.235.031.393.045.314.027.738.05 1.245.07 1.012.04 2.346.068 3.696.08 1.35.012 2.713.01 3.784-.012.535-.01.997-.026 1.352-.047.178-.01.328-.02.453-.035.125-.014.2-.015.35-.072a.769.769 0 0 0 .339-.275 1.09 1.09 0 0 0 .146-.36c.062-.253.093-.57.117-1.069.049-.997.059-2.71.059-5.727 0-2.26-.019-3.983-.057-5.16a24.632 24.632 0 0 0-.072-1.364 3.947 3.947 0 0 0-.053-.402 1.047 1.047 0 0 0-.047-.174c-.024-.065-.025-.166-.232-.295a.727.727 0 0 0-.33-.11zm-.326 1.24c.022.283.044.632.06 1.137.037 1.157.057 2.874.057 5.129 0 3.016-.01 4.731-.057 5.679a5.47 5.47 0 0 1-.086.833c-.095.01-.221.02-.38.03-.333.019-.786.033-1.314.044-1.055.021-2.413.024-3.754.012-1.342-.012-2.67-.039-3.665-.078-.457-.019-.82-.04-1.101-.063.044-.078.07-.144.129-.224h-.002c.414-.568 2.96-3.744 5.396-6.749a806.731 806.731 0 0 1 3.331-4.084c.457-.556.844-1.023 1.124-1.356.11-.131.187-.224.262-.31zM21.365 80.762c-1.66.077-3.35.509-4.918 1.282-1.13.558-1.77.883-2.219 1.263-.45.38-.646.848-.767 1.37-.304 1.314-.285 4.286.028 5.638.8 3.474 3.597 6.42 6.926 7.256.649.163 1.558.179 2.5.12.941-.058 1.88-.195 2.548-.43 3.33-1.175 5.351-4.256 5.382-8.103.014-1.581-.104-2.202-.634-3.37-.769-1.699-2.488-3.471-4.098-4.183-1.456-.644-3.087-.92-4.748-.843zm.043 1.003c1.52-.07 3.003.181 4.301.756 1.257.555 2.957 2.279 3.59 3.678.506 1.115.56 1.408.547 2.95-.028 3.511-1.777 6.131-4.717 7.169-.491.173-1.395.322-2.275.376-.88.055-1.772.014-2.197-.093-2.911-.73-5.482-3.418-6.195-6.51-.225-.975-.236-4.287-.027-5.188.107-.461.147-.587.437-.833.291-.246.897-.577 2.018-1.13a11.465 11.465 0 0 1 4.518-1.175z" />
</svg>
