<svg xmlns="http://www.w3.org/2000/svg" viewBox="0 0 128 128">
    <g fill="#1b3888">
        <path
            d="M70.089 26.264c-11.411-6.789-25.108-8.22-37.713-4.746C17.432 25.636 5.38 37.116.079 51.603q-.024.066-.051.002-.009-.025-.021-.048-.011-.024-.005-.05 5.007-19.766 21.5-31.155c18.216-12.576 42.79-12.044 60.643.992a.114.114 0 0 1-.023.2l-11.654 4.748a.428.426-40.7 0 1-.38-.028zM71.325 26.978a.03.03 0 0 1 .004-.053l11.754-4.79a.159.157 53.2 0 1 .157.022q15.7 12.43 19.523 31.957c1.583 8.085.993 16.763-1.342 24.58-6.383 21.37-26.086 36.61-48.391 37.292q-1.702.053-.017-.197 15.939-2.362 27.578-14.218c9.91-10.092 14.767-24.64 13.257-38.754q-1.105-10.342-6.506-19.415-5.976-10.043-16.017-16.424z" />
    </g>
    <path fill="#45a945"
        d="M110.985 10.209h.22Q126.873 27.613 128 51.114v4.793q-1.1 23.145-16.098 40.192c-12.77 14.514-31.675 22.415-51.067 21.64q-1.181-.049-2.343-.21-.007-.002 0-.002 21.11-.9 36.825-14.431c12.675-10.914 20.095-27.247 20.07-44.035-.026-16.352-6.81-31.694-18.68-42.812a.131.131 0 0 1 .04-.218z" />
    <g fill="#221e1f">
        <path
            d="M45.531 33.66q1.107.914 1.543 1.642 1.4 2.34 2.937 4.6.078.112-.06.112l-2.089-.01a.21.207-14.8 0 1-.176-.102c-.965-1.602-1.962-3.38-3.182-4.79q-1.033-1.195-2.644-.953-.076.012-.076.089V39.9q0 .108-.106.108H40.01q-.19 0-.188-.188l.074-13.263q0-.098.097-.098c1.672-.01 3.817-.203 5.233.324 2.958 1.1 3.256 5.371.322 6.743q-.114.053-.017.133zm-3.715-5.45-.009 4.065a.049.049 0 0 0 .049.048l1.573.005a2.117 1.86.1 0 0 2.121-1.857v-.44a2.117 1.86.1 0 0-2.113-1.866l-1.573-.002a.049.049 0 0 0-.048.047z" />
        <path
            d="M53.476 31.047c-2.095 2.364-1.983 5.86.756 7.693 1.848 1.239 4.272 1.321 6.35.68a.095.097-.3 0 1 .12.12l-.557 1.84q-.034.112-.15.133-3.504.635-6.42-.959c-4.02-2.197-4.642-7.314-1.737-10.665 3.148-3.631 8.288-2.59 11.455.394q.091.086.053.205l-.548 1.795q-.049.157-.155.032c-2.314-2.695-6.533-4.238-9.167-1.268ZM34.074 37.32l-5.242 1.522a.08.08 0 0 0-.057.067l-.47 4.19a.08.08 0 0 1-.06.068l-1.756.495a.08.08 0 0 1-.102-.087l1.636-14.542a.08.08 0 0 1 .06-.067l1.225-.343a.08.08 0 0 1 .085.025l9.391 11.337a.08.08 0 0 1-.038.127l-1.76.527a.08.08 0 0 1-.084-.025l-2.743-3.27a.08.08 0 0 0-.085-.024zm-5.068-.492a.064.064 0 0 0 .082.068l3.652-1.09a.064.064 0 0 0 .032-.1l-3.125-3.808a.064.064 0 0 0-.112.034zM73.059 39.509l2.456-5.12a.102.102 0 0 1 .135-.048l1.596.747a.102.102 0 0 1 .05.138L71.51 47.308a.102.102 0 0 1-.135.048l-1.594-.755a.102.102 0 0 1-.049-.136l2.454-5.134a.102.102 0 0 0-.047-.135l-6.425-3.064a.102.102 0 0 0-.136.047l-2.443 5.132a.102.102 0 0 1-.135.048l-1.6-.755a.102.102 0 0 1-.05-.138l5.787-12.084a.102.102 0 0 1 .135-.047l1.598.765a.102.102 0 0 1 .047.135l-2.466 5.126a.102.102 0 0 0 .048.135l6.423 3.06a.102.102 0 0 0 .136-.047zM20.64 42.112l-4.792 2.596a.083.083 0 0 0-.042.08l.428 4.196a.083.083 0 0 1-.043.08l-1.602.85a.083.083 0 0 1-.121-.066L12.965 35.29a.083.083 0 0 1 .044-.08l1.122-.584a.083.083 0 0 1 .09.006l11.6 9.084a.083.083 0 0 1-.01.138l-1.611.872a.083.083 0 0 1-.089-.006l-3.383-2.6a.083.083 0 0 0-.089-.007zm-5.048.564a.066.066 0 0 0 .095.048l3.339-1.806a.066.066 0 0 0 .01-.11l-3.903-3.048a.066.066 0 0 0-.104.06zM18.078 76.495c9.624-5.043 20.785.733 20.857 11.991.042 6.849-4.88 13.113-11.718 14.364q-1.96.36-4.217.142c-6.02-.578-10.621-4.243-12.677-9.895Q9.28 90.233 9.17 87.425c-.548-13.953 7.825-26.289 19.223-33.656q.082-.055.142.023l4.054 5.147a.097.097 0 0 1-.026.144c-6.402 3.844-12.28 10.102-14.6 17.315q-.062.188.114.097zm13.851 11.79c-.216-5-4.854-7.583-9.467-6.993q-3.28.422-5.976 2.481-.08.064-.104.161c-1.209 5 .559 11.005 6.15 12.343q1.725.415 3.431.055c4.012-.85 6.134-4.129 5.966-8.047zM69.464 86.773v15.599a.087.087 0 0 1-.087.086h-6.76a.087.087 0 0 1-.086-.086V86.773a.087.087 0 0 0-.087-.087H42.188a.087.087 0 0 1-.086-.086l-.003-3.112a.087.087 0 0 1 .02-.055l24.318-29.687a.087.087 0 0 1 .065-.032h2.875a.087.087 0 0 1 .087.087v26.5a.087.087 0 0 0 .087.087h5.015a.087.087 0 0 1 .087.087l-.002 6.125a.087.087 0 0 1-.087.086h-5.013a.087.087 0 0 0-.087.087zm-6.933-19.93a.064.064 0 0 0-.112-.04L51.554 80.285a.064.064 0 0 0 .05.103h10.863a.064.064 0 0 0 .064-.063z" />
    </g>
    <path fill="#0581ab"
        d="M114.095 52.37c3.836 33.88-22.178 63.495-56.162 64.247q-.049 0-.01-.03l.044-.036q.02-.02.05-.025 18.857-2.672 31.817-16.14c16.212-16.85 19.282-42.72 7.753-63.007q-5.162-9.086-13.329-15.573a.093.093 0 0 1 .023-.159l11.593-4.72a.246.246 0 0 1 .26.048c9.92 9.368 16.418 21.78 17.961 35.394z" />
</svg>
