<svg xmlns="http://www.w3.org/2000/svg" viewBox="0 0 128 128">
    <path fill="#0581ab"
        d="M61.867 116.803c.05-.048 1.056-.348 2.238-.667 6.833-1.847 13.703-5.287 19.443-9.736 2.482-1.923 6.782-6.15 8.783-8.63 6.283-7.794 10.226-17.019 11.662-27.286.43-3.077.371-11.307-.103-14.394-1.415-9.198-4.912-17.616-10.337-24.881-2.138-2.865-5.053-6.05-7.398-8.09-1.082-.94-1.94-1.794-1.905-1.897.067-.203 10.814-4.664 11.237-4.664.141 0 1.114.897 2.162 1.993 9.416 9.85 14.89 21.782 16.216 35.342.34 3.475.127 10.126-.444 13.865-1.445 9.458-5.193 18.396-10.952 26.114-2.208 2.958-7.61 8.548-10.327 10.685-7.64 6.012-17.041 10.218-26.39 11.81-2.934.5-4.082.628-3.885.436z" />
    <path fill="#45a945"
        d="M60.99 118.401c20.885-2.065 38.877-14.368 48.161-32.934 3.928-7.853 5.862-15.67 6.126-24.758.222-7.628-.736-14.015-3.152-21.021-1.733-5.026-3.809-9.174-6.894-13.776-2.211-3.299-4-5.5-6.691-8.23-1.2-1.218-1.885-2.069-1.763-2.19.11-.108 3.097-1.374 6.639-2.814 3.541-1.44 6.662-2.764 6.935-2.943.273-.178.53-.287.57-.242.703.783 4.318 5.419 5.168 6.628 5.796 8.242 9.799 18.396 11.184 28.367.633 4.557.725 5.678.727 8.916.002 3.388-.079 4.305-.828 9.346-2.092 14.081-8.402 26.663-18.362 36.615-12.113 12.103-28.21 18.847-45.672 19.135-2.592.042-3.26.012-2.148-.098z" />
    <path fill="#1b3888"
        d="M48.48 11.012a46.78 46.78 0 0 0-8.652.93C23.483 15.214 9.714 25.77 2.564 40.51c-.803 1.656-1.518 3.205-1.59 3.441-.122.409-.116.41.133.03.145-.22.693-1.09 1.217-1.934 2.743-4.411 7.38-9.574 11.489-12.787 8.857-6.929 19.31-10.548 30.462-10.551 8.034-.003 15.004 1.592 22.067 5.05l3.236 1.587 5.428-2.205c2.985-1.213 5.428-2.296 5.428-2.407 0-.475-5.108-3.498-8.594-5.088-6.31-2.875-12.848-4.366-20.195-4.605a63.902 63.902 0 0 0-3.165-.03zm33.86 11.373c-.884-.048-2.086.54-4.934 1.69-6.67 2.692-6.177 2.365-4.9 3.228 1.996 1.348 4.95 3.816 6.973 5.828 7.7 7.656 12.626 17.59 14.208 28.652.421 2.94.36 10.414-.11 13.428-1.708 10.951-6.373 20.186-14.11 27.934-5.113 5.119-11.012 8.889-17.985 11.494-2.896 1.082-2.82 1.171.368.443 9.816-2.242 18.203-6.931 25.57-14.299 6.25-6.25 10.269-12.819 12.951-21.168 1.662-5.172 2.382-10.008 2.383-16.006 0-4.334-.223-6.737-.967-10.42-2.203-10.905-8.246-21.46-16.422-28.681-1.575-1.391-2.14-2.075-3.025-2.123z" />
    <path fill="#221e1f"
        d="M19.97 103.122C11.146 101.39 6.449 93.049 8.03 81.92c.545-3.835 1.458-6.789 3.234-10.469 2.124-4.402 4.716-7.93 8.613-11.724 2.29-2.23 6.523-5.581 7.022-5.56.245.01 3.503 4.043 3.717 4.601.062.16-.241.488-.712.772-4.258 2.568-10.004 8.75-12.247 13.175-.926 1.827-1.61 3.83-1.385 4.055.13.13.712.002 1.595-.351 2.082-.833 3.916-1.201 5.998-1.205 2.46-.004 3.773.287 5.924 1.314 3.26 1.556 5.643 4.347 6.856 8.029.487 1.48.567 2.09.572 4.404.005 2.34-.067 2.906-.564 4.404-1.607 4.847-5.539 8.544-10.272 9.66-1.487.35-4.86.401-6.41.097zm5.742-6.304c3.137-1.107 5.023-3.96 5.053-7.642.013-1.563-.072-2.02-.59-3.163-.702-1.55-2.413-3.3-3.848-3.934-2.756-1.219-6.237-1.057-9.25.43-2.253 1.112-2.494 1.315-2.722 2.3-.257 1.108-.242 4.253.027 5.417.757 3.286 3.443 6.105 6.565 6.888 1.076.27 3.604.114 4.765-.296zm36.086-2.003-.056-7.895-10.26-.056-10.258-.056v-3.022l11.634-14.224c6.399-7.823 11.928-14.538 12.288-14.922.593-.633.772-.699 1.901-.699h1.247v13.294c0 10.695.055 13.34.282 13.528.154.128 1.339.26 2.632.295l2.35.061v5.586l-2.463.061c-1.638.04-2.518.149-2.628.322-.091.144-.168 3.718-.17 7.942l-.003 7.68h-6.44Zm-.289-13.934c.3-.115.34-.931.34-6.97 0-4.519-.076-6.886-.224-6.977-.124-.077-.365-.022-.538.12-.319.266-9.457 11.535-10.379 12.8-.278.383-.442.8-.363.926.153.249 10.535.342 11.164.101zM12.985 48.516c-.063-.384-.403-3.55-.756-7.036-.596-5.884-.616-6.357-.284-6.606.196-.148.411-.269.477-.268.066 0 2.663 1.992 5.77 4.426 5.133 4.022 5.615 4.454 5.264 4.72-.608.461-.838.38-2.507-.875-.863-.65-1.714-1.182-1.89-1.182-.176 0-1.4.588-2.72 1.307-2.71 1.475-2.545 1.167-2.215 4.134.148 1.333.123 1.495-.274 1.773-.627.44-.737.39-.865-.393zm2.995-6.774c.827-.44 1.531-.951 1.566-1.138.066-.358-3.441-3.206-3.949-3.206-.475 0-.515.316-.291 2.282.384 3.37.314 3.316 2.674 2.062zm53.622 4.696c-.329-.208-.017-1.103 1.297-3.716.34-.676.618-1.41.618-1.633 0-.308-.76-.764-3.228-1.94-1.775-.844-3.348-1.536-3.496-1.536-.147 0-.82 1.112-1.497 2.47-.676 1.36-1.357 2.472-1.512 2.472-.155 0-.444-.121-.642-.269-.326-.243-.094-.821 2.415-6.037 1.527-3.173 2.822-5.816 2.879-5.872.082-.082.887.24 1.166.468.033.026-.477 1.191-1.134 2.589-1.022 2.174-1.15 2.583-.894 2.84.47.47 6.382 3.256 6.672 3.144.143-.055.787-1.169 1.43-2.476.644-1.306 1.242-2.42 1.328-2.474.233-.145 1.025.33 1.025.616 0 .136-1.224 2.791-2.72 5.9-2.721 5.658-2.921 5.951-3.707 5.454zM25.33 42.515c.009-.988 1.472-13.493 1.604-13.706.431-.697 1.127-.037 5.48 5.205 3.997 4.813 4.464 5.456 4.146 5.694-.62.463-.872.312-2.253-1.343-.74-.886-1.492-1.61-1.672-1.61-.513.004-5.176 1.432-5.398 1.654-.11.109-.302 1.062-.43 2.118-.248 2.067-.27 2.12-.998 2.34-.405.122-.483.065-.48-.352zm4.443-6.305c.98-.3 1.782-.662 1.782-.806-.003-.488-3.058-4.043-3.416-3.974-.267.051-.399.562-.597 2.319-.263 2.321-.216 3.005.204 3.005.134 0 1.046-.245 2.027-.544zm24.664 4.54c-2.192-.696-3.635-1.852-4.572-3.664-.774-1.496-.814-4.013-.089-5.596.58-1.266 1.97-2.766 3.107-3.354 2.484-1.284 6.03-.75 8.498 1.278.599.492.69.681.568 1.17-.176.7-.533.743-1.087.132-.653-.722-2.182-1.526-3.472-1.826-3.527-.82-6.673 1.74-6.703 5.454-.017 2.046 1.02 3.629 3.105 4.738.961.512 1.306.572 3.267.572h2.193l-.128.537c-.07.296-.168.61-.218.698-.147.262-3.536.156-4.47-.14zM38.91 32.832l.057-6.5h2.256c2.579 0 3.637.364 4.316 1.48.932 1.534.607 3.74-.688 4.661-.341.243-.62.535-.62.648 0 .114.362.666.806 1.226.443.561 1.22 1.694 1.728 2.518a60.461 60.461 0 0 0 1.261 1.982c.334.477.327.484-.493.484-.82 0-.853-.032-2.188-2.135-1.77-2.79-2.725-3.666-3.992-3.666-.662 0-.982.101-1.074.34-.072.187-.13 1.492-.13 2.9v2.56h-1.296zm4.347-.896c1.238-.518 1.745-2.063 1.091-3.328-.328-.635-.994-.986-2.3-1.213-1.474-.255-1.606-.101-1.769 2.058-.185 2.452-.03 2.788 1.28 2.788.532 0 1.296-.137 1.698-.305z" />
</svg>
