<?xml version="1.0" encoding="UTF-8"?>
<svg xmlns="http://www.w3.org/2000/svg" xmlns:xlink="http://www.w3.org/1999/xlink" width="1545px" height="1663px" viewBox="0 0 1159 1247" version="1.1">
<g id="surface1">
<path style=" stroke:none;fill-rule:nonzero;fill:rgb(93.333333%,23.921569%,17.254902%);fill-opacity:1;" d="M 1096.210938 514.171875 L 579.726562 804.8125 L 26.628906 494.300781 L 0 508.621094 L 0 734.101562 L 579.726562 1059.085938 L 1096.210938 769.496094 L 1096.210938 888.871094 L 579.726562 1179.511719 L 26.628906 868.925781 L 0 883.324219 L 0 922.015625 L 579.726562 1246.925781 L 1158.25 922.015625 L 1158.25 696.535156 L 1131.695312 682.136719 L 579.726562 991.601562 L 62.039062 702.085938 L 62.039062 582.707031 L 579.726562 872.300781 L 1158.25 547.316406 L 1158.25 325.210938 L 1129.445312 308.636719 L 579.726562 616.976562 L 88.667969 342.832031 L 579.726562 67.636719 L 983.160156 294.242188 L 1018.644531 274.371094 L 1018.644531 246.699219 L 579.726562 0.226562 L 0 325.210938 L 0 360.527344 L 579.726562 685.511719 L 1096.210938 394.796875 Z M 1096.210938 514.171875 "/>
</g>
</svg>
