<svg version="1.2" xmlns="http://www.w3.org/2000/svg" viewBox="0 0 1545 1663" width="1545" height="1663">
	<title>download (2)-svg</title>
	<style>
		.s0 { fill: #ee3d2c } 
	</style>
	<path id="Layer" class="s0" d="m1461.3 685.7l-688.5 387.6-737.3-414.1-35.5 19.1v300.7l772.8 433.4 688.5-386.2v159.2l-688.5 387.6-737.3-414.2-35.5 19.2v51.6l772.8 433.3 771.2-433.3v-300.7l-35.4-19.2-735.8 412.7-690.1-386.1v-159.2l690.1 386.2 771.2-433.4v-296.2l-38.4-22.1-732.8 411.2-654.6-365.6 654.6-367 537.8 302.2 47.3-26.5v-36.9l-585.1-328.7-772.8 433.4v47.1l772.8 433.4 688.5-387.7z"/>
</svg>