<?xml version="1.0" encoding="utf-8"?>
<!-- Generator: Adobe Illustrator 24.0.1, SVG Export Plug-In . SVG Version: 6.00 Build 0)  -->
<svg version="1.1" id="Layer_1" xmlns="http://www.w3.org/2000/svg" xmlns:xlink="http://www.w3.org/1999/xlink"
	 viewBox="0 0 128 128" style="enable-background:new 0 0 128 128;" xml:space="preserve">
<g id="shopware">
	<g>
		<g id="_Groupe__8_">
			<path id="_Tracé__8_" fill="#189EFF" d="M38.91,63.74c-1.13-0.48-2.05-0.94-2.05-1.66c0-0.5,0.58-1.01,1.57-1.01
				c0.84,0.01,1.67,0.2,2.43,0.56c0.26,0.14,0.59,0.04,0.74-0.22l0.37-0.79c0.13-0.3,0.03-0.66-0.24-0.84
				c-1.01-0.58-2.15-0.87-3.31-0.84c-2.74,0-3.88,1.66-3.88,3.08c0,1.84,1.45,2.79,3.18,3.59c1.57,0.69,2.43,1.2,2.43,1.95
				c0,0.65-0.53,1.1-1.47,1.1c-1,0-1.98-0.29-2.82-0.84c-0.24-0.16-0.57-0.1-0.74,0.14c0,0,0,0,0,0l-0.5,1.06
				c-0.09,0.21-0.01,0.46,0.19,0.58c1.1,0.75,2.4,1.16,3.73,1.16c2.53,0,4.05-1.54,4.05-3.31C42.55,65.4,40.98,64.63,38.91,63.74z"
				/>
		</g>
		<g id="_Groupe_2_8_">
			<path id="_Tracé_2_8_" fill="#189EFF" d="M23.9,73.97c-1.16-0.87-2.84-1.52-4.65-2.21c-2.14-0.82-4.58-1.76-6.38-3.23
				c-1.99-1.48-3.13-3.85-3.06-6.33c-0.05-2.27,1-4.43,2.82-5.8c2.07-1.64,5.2-2.48,9.05-2.48c1.01,0,2.03,0.06,3.03,0.19
				c0.09,0.01,0.17-0.04,0.19-0.12c0.05-0.07,0.02-0.17-0.05-0.22c-5.44-4.9-13.81-4.46-18.7,0.98S1.7,68.57,7.14,73.46
				c2.43,2.19,5.58,3.4,8.85,3.4c2.84,0.01,5.6-0.9,7.87-2.6c0.04-0.04,0.07-0.09,0.07-0.15C23.96,74.07,23.94,74.02,23.9,73.97z"/>
			<path id="_Tracé_3_8_" fill="#189EFF" d="M29.19,62.42c0-0.05-0.03-0.1-0.07-0.12c-2.77-2.29-5.01-3.23-7.73-3.23
				c-1.44,0-2.55,0.29-3.31,0.87c-0.63,0.47-1,1.21-0.99,2c0,2.26,2.8,3.31,6,4.53c1.7,0.59,3.36,1.31,4.96,2.14
				c0.03,0.02,0.06,0.02,0.1,0.02c0.03,0,0.05,0,0.07-0.02c0.06-0.02,0.1-0.07,0.12-0.12c0.6-1.54,0.91-3.18,0.91-4.84
				C29.25,63.24,29.23,62.83,29.19,62.42z"/>
		</g>
		<path id="_Tracé_transparent__8_" fill="#189EFF" d="M105.34,70.67c0.32-0.02,0.57-0.28,0.58-0.6v-5.75c0-2.94-0.37-5.22-4.14-5.22
			c-1.38-0.01-2.76,0.22-4.07,0.67c-0.29,0.07-0.47,0.36-0.4,0.64c0,0.02,0.01,0.04,0.02,0.05l0.24,0.96c0.03,0.3,0.3,0.52,0.6,0.49
			c0.02,0,0.04-0.01,0.06-0.01c1.07-0.33,2.19-0.51,3.31-0.55c1.49,0,1.95,0.84,1.9,2.72c-0.78-0.23-1.58-0.35-2.38-0.37
			c-3.03,0-4.72,1.64-4.72,3.8c0,2.46,1.57,3.31,3.78,3.31c1.81,0,3.68-0.03,4.46-0.07L105.34,70.67z M103.39,68.58
			c-0.37,0.58-1.64,0.43-2.74,0.41c-1.23-0.02-1.84-0.46-1.84-1.52c0-1.23,1.06-1.95,2.43-1.95c0.73-0.01,1.46,0.13,2.14,0.41v2.65
			L103.39,68.58L103.39,68.58z"/>
		<path id="_Tracé_transparent_2_8_" fill="#189EFF" d="M124.65,58.97c0.75,0,1.35-0.6,1.35-1.35c0-0.75-0.6-1.35-1.35-1.35
			c-0.75,0-1.35,0.6-1.35,1.35C123.3,58.37,123.9,58.97,124.65,58.97C124.64,58.97,124.65,58.97,124.65,58.97z M124.65,56.49
			c0.64-0.01,1.16,0.5,1.18,1.13c0.01,0.64-0.5,1.17-1.13,1.18c-0.64,0.01-1.16-0.49-1.18-1.13c0-0.01,0-0.01,0-0.02
			c-0.01-0.63,0.49-1.14,1.11-1.16C124.63,56.49,124.64,56.49,124.65,56.49L124.65,56.49z"/>
		<path id="_Tracé_transparent_3_8_" fill="#189EFF" d="M124.19,58.32h0.12c0.03,0,0.05-0.02,0.05-0.05v-0.48h0.29l0.24,0.51
			c0,0.02,0.03,0.02,0.05,0.02h0.14c0.03,0,0.05-0.02,0.03-0.05l-0.26-0.48c0.16-0.06,0.27-0.2,0.29-0.37
			c0.01-0.23-0.17-0.42-0.4-0.43c-0.01,0-0.01,0-0.02,0h-0.53c-0.03,0-0.05,0.02-0.05,0.05v1.28
			C124.17,58.3,124.17,58.32,124.19,58.32z M124.36,57.15h0.35c0.13,0,0.24,0.11,0.24,0.24s-0.11,0.24-0.24,0.24l0,0h-0.34
			L124.36,57.15z"/>
		<path id="_Tracé_4_8_" fill="#189EFF" d="M50.08,58.97c-1.19,0.02-2.34,0.44-3.27,1.18V55.1c-0.02-0.28-0.25-0.51-0.53-0.53h-1.37
			c-0.29,0.01-0.52,0.24-0.53,0.53v15.17c0,0.29,0.24,0.53,0.53,0.53h1.35c0.28,0.02,0.53-0.18,0.55-0.46c0-0.02,0-0.04,0-0.07
			v-7.32c0.62-1.04,1.75-1.66,2.96-1.64c1.47,0,2.26,1.1,2.26,2.94v5.99c0,0.29,0.24,0.53,0.53,0.53h1.37
			c0.29-0.01,0.52-0.24,0.53-0.53v-5.93C54.46,61.24,53.28,58.97,50.08,58.97z"/>
		<path id="_Tracé_transparent_4_8_" fill="#189EFF" d="M78.78,64.44c-0.15-3.86-1.76-5.47-5.47-5.47c-1.43,0.03-2.85,0.25-4.21,0.67
			c-0.39,0.17-0.67,0.37-0.67,0.63v14.42c0,0.29,0.24,0.53,0.53,0.53h1.13c0.28,0.03,0.54-0.17,0.57-0.46c0-0.02,0-0.05,0-0.07
			v-4.08c1.18,0.18,2.37,0.24,3.57,0.19c2.62-0.07,4.38-1.98,4.53-5.2c0.03-0.48,0.03-0.96,0-1.44v0.27L78.78,64.44z M76.42,65.62
			c-0.05,2.21-0.67,3.15-2.53,3.25c-1.02-0.01-2.04-0.07-3.06-0.2c-0.1-0.02-0.14-0.07-0.14-0.14v-6.96c0-0.06,0.04-0.12,0.11-0.12
			c0.01,0,0.01,0,0.02,0c0.82-0.19,1.66-0.3,2.5-0.31c2.24,0,3.01,0.34,3.11,3.15L76.42,65.62L76.42,65.62z"/>
		<path id="_Tracé_5_8_" fill="#189EFF" d="M95.01,59.21h-1.04c-0.29,0-0.74,0-0.86,0.34l-1.81,6.53h-0.05l-3.04-6.84
			c-0.09-0.18-0.28-0.29-0.48-0.27h-0.17c-0.19,0-0.37,0.1-0.46,0.27l-3.06,6.81h-0.05l-1.84-6.5c-0.07-0.22-0.28-0.35-0.5-0.34
			h-1.51c-0.39,0-0.56,0.29-0.39,0.65l3.31,10.67c0.07,0.19,0.26,0.31,0.46,0.29h0.14c0.19,0.02,0.37-0.09,0.43-0.27l3.49-7.7h0.05
			l3.47,7.68c0.1,0.17,0.28,0.27,0.48,0.27h0.1c0.21,0.02,0.41-0.09,0.51-0.29l3.23-10.67C95.61,59.5,95.39,59.21,95.01,59.21z"/>
		<path id="_Tracé_6_8_" fill="#189EFF" d="M113.07,59.12h-0.46c-0.58,0-1.16,0.03-1.69,0.05l0,0c-1.01,0.05-1.61,0.12-2.05,0.17
			c0,0-0.26,0.03-0.6,0.07c-0.18,0.01-0.34,0.1-0.46,0.24c-0.07,0.07-0.1,0.17-0.1,0.26v10.35c0,0.29,0.24,0.53,0.53,0.53h1.13
			c0.46,0,0.79-0.05,0.79-0.53v-7.01l0,0v-1.61c0-0.07,0.1-0.14,0.17-0.19c0.26-0.17,0.94-0.29,2.29-0.29h0.3
			c0.32,0.02,0.64,0.09,0.94,0.22c0.25,0.12,0.56,0.02,0.68-0.23c0.01-0.01,0.01-0.02,0.01-0.03l0.58-0.96
			C115.51,59.41,114.15,59.12,113.07,59.12z"/>
		<path id="_Tracé_transparent_5_8_" fill="#189EFF" d="M120.84,58.97c-3.4,0-5.64,2.72-5.64,5.89c0,3.17,2.24,5.92,5.66,5.92
			c1.52,0.05,3.01-0.44,4.21-1.38c0.33-0.29,0.24-0.51,0.05-0.77l-0.67-1.03c-0.19-0.29-0.41-0.22-0.68-0.05
			c-0.79,0.63-1.76,0.96-2.77,0.96c-1.76,0.04-3.25-1.32-3.37-3.08h7.81c0.27-0.01,0.49-0.22,0.51-0.48
			c0.02-0.19,0.05-0.58,0.05-0.79c0.08-2.78-2.1-5.09-4.88-5.18C121.03,58.97,120.94,58.97,120.84,58.97z M117.73,63.62
			c0.17-1.42,1.25-2.58,3.03-2.58c1.48-0.06,2.73,1.08,2.79,2.56c0,0.01,0,0.01,0,0.02H117.73L117.73,63.62z"/>
		<path id="_Tracé_transparent_6_8_" fill="#189EFF" d="M66.45,62.47c-0.24-0.69-0.6-1.33-1.08-1.88c-0.46-0.51-1.03-0.93-1.66-1.2
			c-0.73-0.29-1.5-0.44-2.28-0.43c-0.78-0.01-1.56,0.14-2.28,0.43c-0.63,0.28-1.2,0.69-1.66,1.2c-0.47,0.56-0.84,1.19-1.08,1.88
			c-0.51,1.57-0.51,3.27,0,4.84c0.24,0.68,0.61,1.3,1.08,1.84c0.46,0.52,1.02,0.93,1.66,1.2c0.72,0.3,1.5,0.45,2.28,0.45
			c0.78,0.01,1.56-0.14,2.29-0.43c0.63-0.28,1.2-0.69,1.66-1.2c0.47-0.54,0.84-1.17,1.08-1.84c0.52-1.57,0.52-3.27,0-4.84
			L66.45,62.47z M61.37,68.87c-2.05,0-3.08-1.74-3.08-3.88c0-2.14,1.03-3.88,3.08-3.88c2.05,0,3.08,1.74,3.08,3.88
			C64.46,67.13,63.42,68.87,61.37,68.87L61.37,68.87z"/>
	</g>
</g>
</svg>
