<?xml version="1.0" encoding="UTF-8" standalone="no"?>
<svg
   width="128"
   height="128"
   viewBox="0 0 128 128"
   version="1.1"
   id="svg15"
   sodipodi:docname="Verilog.svg"
   inkscape:version="1.3.2 (091e20e, 2023-11-25, custom)"
   xmlns:inkscape="http://www.inkscape.org/namespaces/inkscape"
   xmlns:sodipodi="http://sodipodi.sourceforge.net/DTD/sodipodi-0.dtd"
   xmlns="http://www.w3.org/2000/svg"
   xmlns:svg="http://www.w3.org/2000/svg"
   xmlns:rdf="http://www.w3.org/1999/02/22-rdf-syntax-ns#"
   xmlns:cc="http://creativecommons.org/ns#"
   xmlns:dc="http://purl.org/dc/elements/1.1/">
  <defs
     id="defs15" />
  <sodipodi:namedview
     id="namedview15"
     pagecolor="#ffffff"
     bordercolor="#111111"
     borderopacity="1"
     inkscape:showpageshadow="0"
     inkscape:pageopacity="0"
     inkscape:pagecheckerboard="1"
     inkscape:deskcolor="#d1d1d1"
     inkscape:zoom="3.0117188"
     inkscape:cx="99.11284"
     inkscape:cy="18.760052"
     inkscape:window-width="1920"
     inkscape:window-height="1009"
     inkscape:window-x="-8"
     inkscape:window-y="-8"
     inkscape:window-maximized="1"
     inkscape:current-layer="svg15" />
  <title
     id="title1">file_type_verilog</title>
  <path
     d="m 121.40602,70.179095 h 0.16331 a 6.3953657,6.3953657 0 0 0 4.13999,-1.39471 A 6.5012931,6.5012931 0 0 0 128,64.233921 v -0.675287 a 6.2364746,6.2364746 0 0 0 -6.07317,-5.737733 h -0.0397 c -3.03217,0 -6.06435,0 -9.10093,0 h -6.8588 V 46.151234 h 15.50512 0.15007 a 6.2276473,6.2276473 0 0 0 6.41302,-5.984897 V 39.76911 39.627873 A 6.232061,6.232061 0 0 0 125.14439,34.772868 6.4218475,6.4218475 0 0 0 121.459,33.779799 H 105.7332 A 13.064377,13.064377 0 0 0 104.50619,29.216094 12.839281,12.839281 0 0 0 97.003,22.767765 11.846212,11.846212 0 0 0 94.22682,22.193991 v -6.977966 c 0,-3.045412 0,-6.090824 0,-9.105341 A 6.2408882,6.2408882 0 0 0 88.188959,0.002205 h -0.511982 a 6.1790973,6.1790973 0 0 0 -5.821593,6.1261336 q 0,5.0933414 0,10.1778564 V 22.07041 H 70.17689 v -6.704321 c 0,-3.089549 0,-6.179097 0,-9.2112686 A 6.2232337,6.2232337 0 0 0 64.231716,0.002205 h -0.675287 a 6.2144064,6.2144064 0 0 0 -5.737733,6.1040654 c 0,3.0365846 0,6.0731696 0,9.1097546 v 6.889694 q -5.821592,0 -11.647598,0 V 14.95562 c 0,-2.939484 0,-5.878969 0,-8.7787314 A 6.0290335,6.0290335 0 0 0 44.405641,1.8735887 6.1790973,6.1790973 0 0 0 40.062619,0.002205 h -0.339851 a 6.2232337,6.2232337 0 0 0 -5.918692,6.0952381 c 0,3.0145169 0,6.0290339 0,9.0435499 v 7.061826 a 12.945209,12.945209 0 0 0 -10.884039,8.385917 12.702459,12.702459 0 0 0 -0.710596,3.204304 h -6.951484 c -3.058654,0 -6.117307,0 -9.149478,0 H 6.0731699 A 6.2364746,6.2364746 0 0 0 0,39.724973 v 0.419296 a 6.2541292,6.2541292 0 0 0 2.5378435,4.815282 6.4571566,6.4571566 0 0 0 3.9148995,1.204924 h 0.075032 15.544843 v 11.656426 h -6.854384 c -3.027758,0 -6.068756,0 -9.0788594,0 A 6.3026792,6.3026792 0 0 0 0,63.616011 v 0.825351 a 6.1790973,6.1790973 0 0 0 6.1173063,5.737733 c 3.1380987,0 6.2806107,0 9.4231237,0 h 6.527775 v 11.696149 h -1.288784 c -2.705561,-0.0309 -5.411123,0 -8.112272,0 H 7.0044481 A 7.2074756,7.2074756 0 0 0 2.9527258,82.806522 6.342402,6.342402 0 0 0 0,87.833659 v 0.441364 a 6.2541292,6.2541292 0 0 0 6.0687562,5.901038 h 0.022068 q 2.8467988,0 5.6935968,0 h 10.486811 a 12.499431,12.499431 0 0 0 8.730182,11.034099 11.969794,11.969794 0 0 0 2.785007,0.56494 v 7.1501 c 0,2.99245 0,5.97607 0,8.93763 a 6.1824321,6.1824321 0 1 0 12.358195,-0.40606 v -15.56691 h 11.67408 v 15.51836 a 6.2408882,6.2408882 0 0 0 5.945174,6.58957 h 0.675287 a 6.2276473,6.2276473 0 0 0 5.737733,-6.11289 q 0.02648,-4.70494 0,-9.40547 v -6.54984 h 11.669667 v 15.88911 a 6.280611,6.280611 0 0 0 5.984897,6.17909 h 0.525223 a 6.2144064,6.2144064 0 0 0 5.119824,-3.27051 7.251612,7.251612 0 0 0 0.737078,-3.67655 v -15.23589 a 11.788835,11.788835 0 0 0 2.736457,-0.56495 12.923141,12.923141 0 0 0 8.324124,-8.332958 12.508258,12.508258 0 0 0 0.54288,-2.705562 h 6.97797 c 3.03217,0 6.06875,0 9.07886,0 h 0.0353 a 6.2761974,6.2761974 0 0 0 6.08641,-6.020206 v -0.52081 a 6.21882,6.21882 0 0 0 -6.09966,-5.817178 v 0 c -3.16899,0 -6.33798,0 -9.50698,0 h -6.46157 V 70.179095 Z"
     style="opacity:0.3;fill:#c5c5c5;stroke-width:4.41364"
     id="path1" />
  <path
     d="m 39.788973,2.2090255 h 0.247164 a 4.0164132,4.0164132 0 0 1 3.910486,3.9413813 c 0.02648,4.8903142 0,9.7806282 0,14.6709422 -2.648185,0 -5.29637,0 -7.944554,0 0,-4.903555 0,-9.80711 0,-14.710665 a 4.0031723,4.0031723 0 0 1 3.786904,-3.9016585 z"
     style="fill:#1a348f;stroke-width:4.41364"
     id="path2" />
  <path
     d="m 63.719734,2.2090255 h 0.511982 a 4.0252405,4.0252405 0 0 1 3.73394,3.9237267 c 0.02648,4.8947278 0,9.7938688 0,14.6930108 h -7.94014 c 0,-4.899142 0,-9.798283 0,-14.6974244 a 4.0208269,4.0208269 0 0 1 3.694218,-3.9193131 z"
     style="fill:#1a348f;stroke-width:4.41364"
     id="path3" />
  <path
     d="m 87.796145,2.2090255 h 0.392814 a 4.0031723,4.0031723 0 0 1 3.791318,3.8884176 c 0.0309,4.9079689 0,9.8203509 0,14.7283199 h -7.944554 c 0,-4.894728 0,-9.785042 0,-14.6797699 a 4.0252405,4.0252405 0 0 1 3.760422,-3.9369676 z"
     style="fill:#1a348f;stroke-width:4.41364"
     id="path4" />
  <path
     d="m 2.2068205,39.804419 a 4.0075859,4.0075859 0 0 1 3.8928312,-3.791318 c 4.9079683,-0.0309 9.8115233,0 14.7150793,0 q 0,3.972277 0,7.944554 c -4.762319,0 -9.524638,0 -14.2869561,0 A 4.338609,4.338609 0 0 1 3.8795904,43.194095 4.0782042,4.0782042 0 0 1 2.2068205,40.038342 Z"
     style="fill:#1a348f;stroke-width:4.41364"
     id="path5" />
  <path
     d="m 107.18968,35.995447 h 14.2693 a 4.4136409,4.4136409 0 0 1 2.47606,0.63115 4.0782042,4.0782042 0 0 1 1.85373,3.160167 v 0.255991 a 4.117927,4.117927 0 0 1 -1.3241,2.873281 4.2238543,4.2238543 0 0 1 -2.98803,1.032792 c -4.76232,0 -9.52464,0 -14.28696,0 q 0,-3.976691 0,-7.953381 z"
     style="fill:#1a348f;stroke-width:4.41364"
     id="path6" />
  <path
     d="m 2.2068205,63.752834 a 4.0296541,4.0296541 0 0 1 3.9193131,-3.716285 c 4.8947274,-0.0309 9.7938694,0 14.6885974,0 q 0,3.972276 0,7.944553 c -4.894728,0 -9.785042,0 -14.6797701,0 A 4.0384814,4.0384814 0 0 1 2.2068205,64.278058 Z"
     style="fill:#1a348f;stroke-width:4.41364"
     id="path7" />
  <path
     d="m 107.18968,60.027721 c 4.89473,0 9.78946,0 14.67977,0 a 4.0340678,4.0340678 0 0 1 3.92373,3.685391 v 0.516396 a 4.1753043,4.1753043 0 0 1 -1.46092,2.829143 4.2944726,4.2944726 0 0 1 -2.87328,0.913624 h -14.2693 q -0.004,-3.972277 0,-7.944554 z"
     style="fill:#1a348f;stroke-width:4.41364"
     id="path8" />
  <path
     d="m 4.117927,84.64701 a 4.9476915,4.9476915 0 0 1 2.8379711,-0.600255 c 4.6034279,0.02648 9.2068549,-0.02648 13.8102819,0.02648 0.123582,2.648185 0,5.296369 0.05296,7.944554 -4.899141,0 -9.802696,0 -14.7018377,0 a 4.0208269,4.0208269 0 0 1 -3.9104858,-3.8178 v -0.36633 A 4.0826178,4.0826178 0 0 1 4.117927,84.64701 Z"
     style="fill:#1a348f;stroke-width:4.41364"
     id="path9" />
  <path
     d="m 107.18968,84.051169 c 4.89032,0 9.78063,0 14.67095,0 a 4.0340678,4.0340678 0 0 1 3.92814,3.738354 v 0.397227 a 4.0208269,4.0208269 0 0 1 -3.91932,3.791318 c -4.89472,0.0309 -9.78945,0 -14.67977,0 0,-2.63053 -0.004,-5.278715 0,-7.926899 z"
     style="fill:#1a348f;stroke-width:4.41364"
     id="path10" />
  <path
     d="m 35.997655,107.16982 h 7.944554 c 0,4.77115 0,9.54229 0,14.31344 a 4.2238543,4.2238543 0 0 1 -1.037206,2.98803 4.1090997,4.1090997 0 0 1 -2.882107,1.32409 h -0.22951 a 4.0031723,4.0031723 0 0 1 -3.795731,-3.89283 c -0.02207,-4.91238 0.0088,-9.82035 0,-14.73273 z"
     style="fill:#1a348f;stroke-width:4.41364"
     id="path11" />
  <path
     d="m 60.025516,107.16982 h 7.944554 c 0,4.89915 0,9.79828 0,14.69742 a 4.0340678,4.0340678 0 0 1 -3.689804,3.92374 h -0.511982 a 4.1488225,4.1488225 0 0 1 -2.732044,-1.35058 4.2459226,4.2459226 0 0 1 -1.00631,-2.97038 q -0.0044,-7.15451 -0.0044,-14.3002 z"
     style="fill:#1a348f;stroke-width:4.41364"
     id="path12" />
  <path
     d="m 84.066618,121.84517 c 0,-4.89031 0,-9.78503 0,-14.67535 h 7.944554 c 0,4.6255 0,9.26864 0,13.87649 a 5.199269,5.199269 0 0 1 -0.463432,2.60405 4.0605496,4.0605496 0 0 1 -3.336713,2.1362 h -0.379573 a 4.0208269,4.0208269 0 0 1 -3.764836,-3.94139 z"
     style="fill:#1a348f;stroke-width:4.41364"
     id="path13" />
  <path
     d="M 102.53771,30.231232 A 10.720734,10.720734 0 0 0 96.261508,24.855417 14.322265,14.322265 0 0 0 91.600703,24.27723 C 72.622048,24.31254 53.643392,24.22868 34.642667,24.32137 a 10.751629,10.751629 0 0 0 -9.6747,7.044171 15.937657,15.937657 0 0 0 -0.692942,5.861315 q 0,27.585256 0,55.170512 a 11.797662,11.797662 0 0 0 1.182856,5.380228 10.729561,10.729561 0 0 0 6.26737,5.371404 16.577635,16.577635 0 0 0 5.468501,0.57376 h 53.594841 a 16.604117,16.604117 0 0 0 5.486156,-0.56053 10.720734,10.720734 0 0 0 6.894111,-6.942649 16.771835,16.771835 0 0 0 0.5517,-5.424365 q 0,-27.585256 0,-55.170511 a 11.855039,11.855039 0 0 0 -1.18285,-5.393469 z"
     style="fill:#1a348f;stroke-width:4.41364"
     id="path14" />
  <path
     d="m 26.481845,30.045859 0.370746,-0.882729 q 4.272405,0 8.540395,0.105928 h 1.738975 q 0.790042,0 1.738974,-0.05296 3.424986,-0.158891 12.389091,-0.158891 1.791938,0 3.477949,0.02648 1.68601,0.02648 3.270507,0.07944 a 1.032792,1.032792 0 0 1 0.476674,0.476674 l -0.105928,0.843005 q -0.317782,0.525223 -1.580083,0.525223 h -0.441364 a 45.460501,45.460501 0 0 0 -4.855005,0.238337 9.6173235,9.6173235 0 0 0 -4.413641,1.081342 1.9066929,1.9066929 0 0 0 -0.684114,1.52712 17.875246,17.875246 0 0 0 1.738974,6.179097 l 8.023999,18.612324 2.798249,6.179097 q 4.064963,9.80711 8.028412,20.033516 0.441364,1.107824 0.790042,2.003793 l 3.530913,-8.646322 q 2.736457,-6.536603 5.525878,-13.920624 l 3.632427,-9.913037 q 0.105927,-0.317783 0.578187,-2.109721 a 75.14665,75.14665 0 0 0 5.106582,-17.65456 2.4760525,2.4760525 0 0 0 -0.710596,-1.606566 5.1418917,5.1418917 0 0 0 -2.295093,-1.324092 34.086549,34.086549 0 0 0 -4.113514,-0.631151 L 75.137823,30.579909 A 1.487397,1.487397 0 0 1 74.66115,29.697181 l 0.158891,-0.441364 17.08079,-0.158891 h 5.640633 a 13.682287,13.682287 0 0 1 3.906076,0.370746 l 0.053,0.441364 a 2.8291438,2.8291438 0 0 1 -0.31778,1.107824 10.809007,10.809007 0 0 1 -2.32158,0.525223 15.889107,15.889107 0 0 0 -5.490567,1.240233 8.0107582,8.0107582 0 0 0 -2.20682,3.032171 L 77.331402,70.086409 q -6.470397,15.447743 -9.206855,23.935175 l -1.522706,4.585771 a 2.3436433,2.3436433 0 0 1 -1.160787,0.44137 6.1040654,6.1040654 0 0 1 -1.324093,-0.1589 Q 57.840764,82.665286 53.886142,73.815936 L 37.758698,37.165061 a 14.331092,14.331092 0 0 0 -2.608462,-3.92814 24.11172,24.11172 0 0 0 -6.086411,-1.871384 19.186097,19.186097 0 0 1 -2.056756,-0.525223 1.4388469,1.4388469 0 0 1 -0.525224,-0.794455 z"
     style="fill:#c5c2ff;stroke-width:4.41364"
     id="path15" />
  <metadata
     id="metadata15">
    <rdf:RDF>
      <cc:Work
         rdf:about="">
        <dc:title>file_type_verilog</dc:title>
      </cc:Work>
    </rdf:RDF>
  </metadata>
</svg>
