<svg xmlns="http://www.w3.org/2000/svg" viewBox="0 0 128 128"><path fill="#00c1d5" d="M65.723 0H46.825s-7.412.418-8.456 8.457V49.07s.522 8.144 8.979 8.979h16.495l2.506-2.506H47.661s-5.951-.73-6.682-6.682V8.98s-.209-6.057 6.577-6.58H63.53z"/><path fill="#78bd20" d="M69.168 58.153h18.897s7.413-.417 8.457-8.456V8.979S96 .835 87.543 0H71.047l-2.505 2.506H87.23s5.951.73 6.682 6.682V49.07s.209 6.056-6.578 6.578H71.465Z"/><path fill="#0091da" d="M49.853 6.787c-1.67.104-4.699 1.148-4.699 4.697V36.96c.21 1.462 1.254 4.385 4.49 4.385h3.34v-2.192h-3.34c-1.774 0-2.193-1.879-2.193-2.296V11.484c0-2.192 2.088-2.505 2.506-2.505l24.744.209c1.88 0 2.297 1.984 2.297 2.402v2.61h2.297v-2.716c-.209-1.566-1.357-4.49-4.594-4.49l-24.847-.207zm10.127 9.604c-1.566 0-4.593 1.044-4.593 4.593v25.477c.104 1.462 1.252 4.28 4.384 4.28h24.745c.313 0 2.088 0 3.445-1.358.94-.835 1.357-1.984 1.357-3.445V20.88c-.208-1.462-1.358-4.385-4.49-4.385L59.98 16.39zm.104 2.09 24.744.103c1.88 0 2.297 2.088 2.506 2.506v24.848c0 .835-.313 1.566-.73 1.984-.836.73-2.088.73-2.088.73H59.77c-1.879 0-2.192-1.982-2.296-2.4V20.984c0-2.192 2.087-2.504 2.609-2.504z"/><path fill="#717074" d="m9.97 71.203 8.667 19.63h2.4l8.77-19.63h-2.504l-7.414 16.914-7.518-16.914Zm22.97 0v19.63h2.193V76.005l7.308 13.677 7.307-13.677v14.826h2.193V71.203h-2.193l-7.307 13.678-7.308-13.678Zm78.095 4.281c-1.357 0-2.506.419-3.654 1.045-1.044.731-1.985 1.67-2.612 2.819a8.545 8.545 0 0 0-.939 3.967c0 1.461.314 2.818 1.045 3.966.626 1.253 1.566 2.09 2.715 2.82 1.148.731 2.295 1.044 3.652 1.044 1.149 0 2.193-.208 3.342-.625 1.148-.418 1.983-.941 2.61-1.672l-1.358-1.358c-.418.522-1.147.94-1.983 1.254-.94.418-1.775.521-2.714.313-1.358 0-2.61-.418-3.55-1.358a5.692 5.692 0 0 1-1.671-3.654h12.111c0-2.61-.626-4.698-1.879-6.264-1.148-1.566-2.922-2.297-5.115-2.297zm-26.832.106c-1.67 0-3.447.521-5.326 1.46l.836 1.776c.835-.417 1.566-.73 2.297-.94a7.801 7.801 0 0 1 2.088-.314c1.461 0 2.506.419 3.133 1.254.626.835.939 1.775.939 3.028v.521c-1.67-.522-3.341-.836-4.803-.836-1.044 0-2.088.21-2.924.627a5.753 5.753 0 0 0-2.088 1.775c-.522.836-.835 1.67-.835 2.61 0 1.461.522 2.61 1.566 3.445.94.835 2.297 1.254 3.863 1.254 1.044 0 2.088-.208 3.028-.73s1.67-1.15 2.193-1.985v2.297h2.191v-8.978c0-1.88-.52-3.342-1.564-4.49-1.044-1.045-2.506-1.67-4.594-1.774zm17.957.207c-1.357 0-2.507.21-3.55.836-1.045.522-1.775 1.358-2.089 2.402v-2.924h-2.19v14.824h2.19v-8.247c0-1.045.209-1.879.731-2.61.418-.73 1.149-1.358 1.984-1.775.836-.418 1.776-.625 2.924-.625zm-47.295.314 5.012 14.824h1.982l3.967-11.796 3.969 11.797h1.982L76.79 76.11h-2.297l-3.654 11.903-4.07-11.903h-1.881l-4.07 11.903-3.655-11.903Zm56.17 1.567c1.357 0 2.505.417 3.34 1.252.835.94 1.357 1.983 1.461 3.445h-9.918c.104-1.462.732-2.61 1.672-3.445 1.044-.836 2.192-1.252 3.445-1.252zM83.68 83.315c1.566 0 3.028.209 4.49.626v2.297c-.209 1.044-.836 1.775-1.776 2.297-.94.522-2.088.73-3.132.73a4.327 4.327 0 0 1-2.61-.833c-.73-.522-1.043-1.15-1.043-2.09s.314-1.67 1.149-2.192a5.338 5.338 0 0 1 2.922-.836zm-50.844 19.837c-1.253 0-2.298.209-3.342.73a5.059 5.059 0 0 0-2.4 1.985c-.522.835-.836 1.774-.836 2.818 0 1.149.208 1.984.73 2.715.522.731 1.254 1.253 2.194 1.67.94.418 2.087.835 3.548 1.149 1.88.417 3.238.939 4.073 1.46.835.523 1.252 1.253 1.252 2.298 0 .626-.209 1.15-.522 1.671-.313.522-.835.94-1.566 1.252a6.309 6.309 0 0 1-2.506.522c-1.357 0-2.505-.209-3.549-.73-1.044-.523-1.984-1.149-2.924-2.089l-1.357 1.776c2.088 2.088 4.698 3.132 7.62 3.027 1.463 0 2.717-.208 3.76-.73a5.058 5.058 0 0 0 2.401-1.985c.522-.94.836-1.88.836-2.923 0-1.566-.521-2.82-1.67-3.655-1.148-.835-2.715-1.46-4.803-1.982-1.879-.522-3.237-.941-4.072-1.463-.835-.418-1.252-1.148-1.252-2.088 0-.626.208-1.148.522-1.67.417-.522.94-.939 1.566-1.252.73-.313 1.356-.418 2.191-.418.94 0 1.985.21 2.924.627a9.086 9.086 0 0 1 2.715 1.88l1.358-1.776c-.94-.94-1.985-1.566-3.133-2.088-1.149-.522-2.4-.73-3.758-.73zm28.293 0v20.045h2.193v-9.396c0-.627.208-1.253.625-1.88.418-.521.941-1.043 1.672-1.357.731-.313 1.462-.521 2.297-.521 1.044 0 1.879.418 2.61 1.148.73.731 1.042 1.67 1.042 2.922v9.084h2.194v-9.396c0-1.149-.209-2.192-.73-3.028a6.008 6.008 0 0 0-1.985-1.984 8.067 8.067 0 0 0-2.819-.834c-1.044 0-2.088.208-2.923.73-.836.522-1.565 1.148-1.983 1.983v-7.516zm22.55 4.698c-1.357 0-2.505.418-3.654 1.045-1.044.73-1.983 1.67-2.609 2.818-.626 1.253-.94 2.505-.94 3.967s.313 2.82 1.044 3.968c.626 1.253 1.566 2.088 2.714 2.819 1.149.73 2.297 1.043 3.655 1.043 1.148 0 2.193-.208 3.342-.625 1.148-.418 1.983-.941 2.609-1.672l-1.358-1.357c-.417.522-1.147.94-1.982 1.253-.835.418-1.776.522-2.611.313-1.358 0-2.61-.418-3.55-1.357a5.692 5.692 0 0 1-1.671-3.655h12.008c0-2.61-.626-4.697-1.88-6.263-1.148-1.567-2.924-2.297-5.116-2.297zm26.73 0c-1.358 0-2.507.418-3.655 1.045-1.044.73-1.983 1.67-2.61 2.818-.626 1.253-.94 2.505-.94 3.967s.313 2.82 1.044 3.968c.626 1.253 1.566 2.088 2.715 2.819 1.148.73 2.297 1.043 3.654 1.043 1.149 0 2.192-.208 3.34-.625 1.149-.418 1.985-.941 2.611-1.672l-1.357-1.357c-.418.522-1.15.94-1.984 1.253-.94.418-1.776.522-2.715.313-1.358 0-2.61-.418-3.55-1.357a5.69 5.69 0 0 1-1.67-3.655h12.11c0-2.61-.626-4.697-1.879-6.263-1.148-1.567-2.922-2.297-5.115-2.297zm-59.198.105c-1.149 0-2.193.312-3.133.834s-1.775 1.253-2.297 2.297v-2.818H43.59V128h2.191v-7.727c.627.94 1.357 1.775 2.297 2.297.94.522 1.984.836 3.133.836a6.57 6.57 0 0 0 3.445-.94c1.044-.626 1.774-1.566 2.4-2.714a9.617 9.617 0 0 0 .837-3.967c0-1.462-.21-2.82-.836-3.969a6.073 6.073 0 0 0-2.4-2.713c-1.045-.73-2.193-1.044-3.446-1.148zm50.322.21c-1.357 0-2.505.207-3.549.833-1.044.522-1.774 1.358-2.088 2.402v-2.923h-2.193v14.826h2.194v-8.248c0-1.044.208-1.88.73-2.612.418-.73 1.147-1.357 1.982-1.775.836-.418 1.776-.625 2.924-.625zm-91.353.312 6.263 14.826h2.088l6.16-14.826h-2.4l-4.803 12.32-4.908-12.32zm40.508 1.46c1.043 0 1.88.209 2.61.731a5.759 5.759 0 0 1 1.776 2.09c.418.94.625 1.879.625 3.027s-.207 2.192-.625 3.028c-.417.94-1.044 1.565-1.775 2.087-.731.522-1.672.73-2.611.73s-1.879-.208-2.61-.73a5.754 5.754 0 0 1-1.775-2.088c-.418-.94-.625-1.878-.625-3.027 0-1.148.207-2.192.625-3.027.417-.94 1.044-1.568 1.775-2.09.835-.522 1.565-.73 2.61-.73zm33.097.106c1.357 0 2.505.417 3.34 1.252.835.94 1.359 1.984 1.463 3.445h-9.92c.104-1.461.732-2.61 1.672-3.445s2.088-1.252 3.445-1.252zm26.727 0c1.357 0 2.506.417 3.342 1.252.835.94 1.356 1.984 1.46 3.445h-9.917c.104-1.461.73-2.61 1.67-3.445.939-.835 2.087-1.252 3.445-1.252z"/></svg>
