<svg xmlns="http://www.w3.org/2000/svg" viewBox="0 0 128 128"><path fill="#0091da" d="M42.493 0s-1.948.11-4.02 1.268c-2.07 1.159-4.297 3.42-4.834 7.556l-.007.03V49.2l.005.016s.13 2.126 1.366 4.353c1.235 2.227 3.636 4.59 7.987 5.02l.023.002h16.6l3.479-3.48H43.4c-.01 0-1.373-.172-2.84-1.034-1.473-.863-2.998-2.362-3.345-5.144V9.389s-.04-1.384.688-2.83c.729-1.444 2.16-2.936 5.374-3.186h16.038L62.4 0ZM66.35 0l-.146.145-3.333 3.334h19.695c.01 0 1.372.17 2.84 1.033 1.471.863 2.993 2.362 3.34 5.144v39.547s.044 1.385-.685 2.83c-.728 1.444-2.16 2.934-5.373 3.184H66.75l-3.187 3.478h19.904s1.95-.11 4.022-1.267c2.072-1.158 4.298-3.42 4.836-7.557l.003-.03V9.39l-.002-.016s-.133-2.126-1.369-4.353C89.722 2.795 87.323.43 82.972.002L82.95 0ZM42.548.992h17.6l-1.272 1.39H43.23l-.02.003c-3.513.27-5.341 2.038-6.193 3.726-.85 1.69-.791 3.31-.791 3.31V49.01l.004.03c.382 3.11 2.169 4.922 3.828 5.896 1.66.974 3.234 1.166 3.234 1.166l.03.003h17.377L59.203 57.6H43.078c-4.032-.402-6.085-2.491-7.205-4.51-1.116-2.01-1.245-3.904-1.246-3.922V8.936c.502-3.83 2.467-5.76 4.33-6.801C40.82 1.09 42.547.992 42.547.992zm24.213 0h16.124c4.033.402 6.086 2.491 7.206 4.51 1.115 2.01 1.244 3.905 1.245 3.924V49.76c-.501 3.829-2.466 5.76-4.33 6.803-1.863 1.042-3.591 1.14-3.591 1.14H65.819l1.37-1.494h15.547l.02-.002c3.511-.27 5.341-2.04 6.192-3.728.853-1.69.79-3.31.79-3.31V9.58l-.002-.03c-.383-3.111-2.168-4.922-3.827-5.896-1.66-.974-3.236-1.166-3.236-1.166l-.027-.004h-17.38zM45.495 6.734c-.912.058-2.153.358-3.215 1.147-1.062.789-1.913 2.11-1.913 4.012v25.31l.006.035c.113.794.439 1.949 1.198 2.95.758 1 1.995 1.828 3.75 1.828h3.808V38.85H45.32c-.706 0-1.066-.332-1.328-.752-.263-.42-.354-.99-.354-1.032V11.891c0-.93.39-1.352.852-1.635.46-.282 1.048-.355 1.134-.356l24.555.207h.001c.759 0 1.143.358 1.419.803.275.445.365 1.042.365 1.084v3.086h3.271v-3.22l-.003-.034c-.115-.855-.468-2.036-1.253-3.049-.783-1.012-2.041-1.835-3.794-1.836h-.005l-24.67-.205zm.064.993 24.62.205h.003c1.455 0 2.373.629 3.013 1.455.638.823.955 1.861 1.049 2.56v2.143h-1.288v-2.094c0-.372-.115-.964-.513-1.607s-1.153-1.272-2.258-1.274h-.004L45.63 8.91h-.002c-.333 0-.98.083-1.66.5-.678.417-1.322 1.238-1.322 2.483v25.173c0 .373.117.943.503 1.559.385.616 1.113 1.217 2.168 1.217h2.818v1.181h-2.818c-1.456 0-2.344-.621-2.96-1.433-.61-.807-.903-1.82-1-2.477v-25.22c0-1.62.656-2.578 1.51-3.213.855-.635 1.945-.905 2.69-.951zm10.016 8.537c-.887 0-2.105.278-3.157 1.056-1.05.778-1.896 2.096-1.896 3.998v25.295l.002.02a5.6 5.6 0 0 0 1.15 2.937c.76.975 1.99 1.77 3.694 1.77H79.92c.31 0 2.257.001 3.755-1.485 1.04-.93 1.507-2.238 1.507-3.777V21.18l-.007-.035a6.509 6.509 0 0 0-1.237-2.954c-.77-.997-1.998-1.823-3.706-1.824h-.002l-24.656-.103zm-.002.992h.002l24.654.105h.002c1.4 0 2.293.622 2.922 1.438.625.81.942 1.827 1.036 2.472v24.805c0 1.356-.361 2.324-1.18 3.051l-.011.01-.01.01c-1.194 1.192-2.758 1.199-3.069 1.199H55.368c-1.406 0-2.3-.602-2.91-1.387-.613-.783-.902-1.772-.947-2.39v-25.25c0-1.62.656-2.583 1.496-3.204.839-.62 1.899-.86 2.566-.86zm.107 1.08-.002.002c-.358 0-1.05.078-1.744.494s-1.342 1.241-1.342 2.486V46.45l.016.06c.036.14.152.84.533 1.48.382.64 1.12 1.277 2.227 1.277h24.551s1.388.04 2.4-.846l.01-.012.013-.012c.53-.53.87-1.367.87-2.32v-24.77l-.052-.105c-.008-.015-.09-.252-.193-.521a5.154 5.154 0 0 0-.455-.922c-.415-.653-1.165-1.318-2.28-1.319h-.001l-24.551-.103zm-.004.992h.002l24.55.104h.003c.748 0 1.136.373 1.445.859.154.243.271.51.362.746.072.183.12.325.18.47v24.57c0 .697-.28 1.3-.571 1.6-.647.549-1.728.598-1.728.598H55.368c-.759 0-1.11-.347-1.377-.793-.254-.43-.34-.889-.407-1.168V21.318c0-.93.387-1.35.86-1.632.47-.282 1.067-.356 1.23-.356zM5.192 70.65l.306.698 8.73 19.771h3.026L26.4 70.65h-3.575L15.79 86.701l-7.134-16.05H5.192zm23.054 0v20.471h3.17V77.895l6.754 12.64 6.753-12.64v13.224h3.17V70.65h-2.97L38.17 83.664 31.213 70.65zm-21.533.993h1.299l7.785 17.515 7.678-17.515h1.394l-8.257 18.486h-1.737zm22.526 0h1.384L38.17 85.77l7.546-14.128h1.385v18.486h-1.184V75.912l-.935-.234L38.17 88.43l-6.812-12.752-.936.234V90.13h-1.18l-.003-18.486zm76.993 3.255c-1.447 0-2.683.454-3.863 1.098l-.024.014-.022.015c-1.085.76-2.075 1.742-2.743 2.965l-.004.008-.003.01a9.02 9.02 0 0 0-.985 4.156c0 1.512.33 2.95 1.106 4.18.67 1.328 1.681 2.227 2.854 2.974 1.213.77 2.469 1.112 3.89 1.112 1.2 0 2.303-.22 3.484-.649 1.192-.434 2.11-1 2.797-1.802l.3-.35-2.065-2.063-.344.432c-.32.399-.973.796-1.755 1.09l-.014.006-.013.006c-.86.382-1.547.465-2.385.279l-.052-.014h-.056c-1.244 0-2.341-.373-3.17-1.2-.73-.73-1.184-1.694-1.379-2.78h11.881v-.494c0-2.663-.644-4.855-1.965-6.512-1.24-1.688-3.185-2.48-5.468-2.48h-.002zm-26.622.106c-1.76 0-3.596.546-5.507 1.502l-.433.217 1.251 2.66.453-.229c.815-.407 1.51-.702 2.195-.898a7.293 7.293 0 0 1 1.934-.293c1.356 0 2.2.366 2.712 1.047.55.732.811 1.518.823 2.636-1.466-.41-2.94-.74-4.26-.74-1.1 0-2.203.216-3.12.674a6.186 6.186 0 0 0-2.254 1.918l-.01.014-.008.011c-.55.88-.904 1.811-.904 2.854 0 1.563.59 2.878 1.728 3.795 1.048.926 2.517 1.363 4.155 1.363 1.102 0 2.225-.22 3.244-.787.602-.334.985-.852 1.44-1.309v1.68h3.165v-9.404c0-1.956-.56-3.555-1.68-4.79l-.009-.009-.008-.008c-1.13-1.13-2.723-1.796-4.882-1.904zm18.311.203-.496.002c-1.387 0-2.627.223-3.753.89a4.724 4.724 0 0 0-1.345 1.03v-1.61h-3.165v15.704h3.165v-8.68c0-.97.182-1.67.632-2.3l.017-.022.01-.022c.353-.615 1.005-1.187 1.76-1.564.754-.377 1.6-.569 2.68-.569h.496zm-48.115.314.22.655 5.09 15.047h2.68l3.58-10.645 3.58 10.645h2.68l5.31-15.702h-3.339l-3.284 10.7-3.66-10.7h-2.575l-3.66 10.7-3.283-10.7zm56.426.37h.002c2.065 0 3.637.66 4.675 2.076l.006.01.006.007c1.073 1.342 1.608 3.163 1.69 5.41h-11.989l.04.53a6.158 6.158 0 0 0 1.8 3.941c1.024 1.024 2.393 1.476 3.822 1.487 1 .21 1.951.089 2.93-.342.68-.256 1.211-.658 1.695-1.088l.66.66c-.517.494-1.078.936-1.984 1.266-1.098.4-2.066.59-3.146.59-1.27 0-2.292-.279-3.36-.958-1.099-.7-1.942-1.455-2.515-2.6l-.012-.025-.014-.02c-.665-1.044-.959-2.292-.959-3.67 0-1.377.29-2.524.88-3.704.571-1.047 1.441-1.919 2.42-2.606 1.086-.59 2.122-.964 3.353-.964zm-26.637.107c1.972.101 3.274.67 4.213 1.607.944 1.043 1.416 2.343 1.416 4.11v8.414H84.04v-3.516l-.916 1.467c-.467.747-1.116 1.312-1.996 1.8-.845.47-1.793.663-2.763.663-1.465 0-2.687-.393-3.504-1.12l-.01-.009-.012-.008c-.925-.74-1.365-1.697-1.365-3.029 0-.817.268-1.54.75-2.313a5.228 5.228 0 0 1 1.875-1.595c.74-.37 1.71-.57 2.68-.57 1.38 0 2.998.3 4.62.806l.641.201v-1.191c0-1.326-.35-2.395-1.03-3.303-.734-.977-1.962-1.441-3.507-1.441a8.19 8.19 0 0 0-2.207.332c-.614.176-1.242.466-1.892.773l-.407-.86c1.637-.762 3.181-1.215 4.598-1.218zm17.336.25v.934c-.962.06-1.867.186-2.627.566-.898.449-1.688 1.117-2.166 1.947-.57.813-.803 1.759-.803 2.848v7.687h-1.18V76.514h1.18v2.404l.972.144c.27-.902.89-1.62 1.817-2.083l.019-.008.016-.01c.808-.485 1.72-.663 2.772-.713zm-45.74.266h1.218l3.97 12.922 4.417-12.922h1.156l4.42 12.922 3.967-12.922h1.22L66.922 90.23H65.67l-4.295-12.765-4.293 12.765h-1.254zm55.04.56v.002c-1.352 0-2.617.46-3.728 1.35l-.01.008-.01.01c-1.02.905-1.71 2.18-1.824 3.753l-.039.532h10.91l-.038-.532c-.112-1.55-.693-2.72-1.575-3.713l-.01-.011-.01-.01c-.93-.93-2.217-1.389-3.665-1.389zm0 .994c1.242 0 2.23.37 2.956 1.09.65.736 1.02 1.55 1.191 2.578h-8.588c.193-1.04.631-1.905 1.344-2.54.957-.764 1.97-1.128 3.098-1.128zm-27.142 4.6c-1.23 0-2.269.347-3.164.906-.958.598-1.37 1.553-1.37 2.596 0 1.042.417 1.887 1.241 2.475.795.568 1.742.92 2.877.92 1.102 0 2.318-.212 3.352-.786 1.02-.568 1.77-1.438 2.006-2.617l.01-.049v-2.7l-.36-.102a16.475 16.475 0 0 0-4.591-.641zm0 .992c1.384 0 2.668.215 3.96.553v1.777c-.184.878-.672 1.457-1.507 1.92-.83.463-1.899.664-2.869.664a3.75 3.75 0 0 1-2.299-.734c-.626-.447-.828-.848-.828-1.67s.206-1.319.906-1.756a4.758 4.758 0 0 1 2.637-.754zm39.961 17.94a3.765 3.765 0 0 0-3.76 3.757 3.765 3.765 0 0 0 3.76 3.758 3.763 3.763 0 0 0 3.758-3.758 3.763 3.763 0 0 0-3.758-3.757zm0 .296a3.464 3.464 0 0 1 3.461 3.461 3.463 3.463 0 0 1-3.46 3.461 3.465 3.465 0 0 1-3.464-3.46 3.465 3.465 0 0 1 3.463-3.462zm0 .188a3.272 3.272 0 0 0-3.273 3.273 3.272 3.272 0 0 0 3.273 3.274 3.272 3.272 0 0 0 3.274-3.274 3.272 3.272 0 0 0-3.274-3.273zm-90.41.268v.002c-1.294 0-2.42.225-3.525.775a5.501 5.501 0 0 0-2.594 2.15c-.56.895-.904 1.926-.904 3.06 0 1.2.232 2.163.818 2.983.58.813 1.392 1.384 2.377 1.82.956.426 2.13.853 3.613 1.172 1.83.406 3.137.916 3.887 1.385.715.447 1.01.956 1.01 1.86 0 .512-.163.927-.448 1.402-.246.41-.666.76-1.324 1.043a5.752 5.752 0 0 1-2.29.476c-1.297 0-2.348-.194-3.3-.671a10.152 10.152 0 0 1-2.77-1.98l-.404-.4-1.953 2.557.307.307c2.16 2.158 4.897 3.252 7.924 3.146 1.485 0 2.798-.211 3.922-.77a5.502 5.502 0 0 0 2.6-2.153l.007-.012.006-.012c.545-.98.89-2.005.89-3.14 0-1.664-.587-3.103-1.859-4.028-1.218-.886-2.832-1.52-4.937-2.047l.011.002c-1.858-.516-3.186-.94-3.91-1.392l-.02-.016-.023-.01c-.68-.34-.967-.84-.967-1.627 0-.5.166-.908.44-1.37a4.067 4.067 0 0 1 1.346-1.077c.66-.28 1.182-.371 1.964-.371a6.87 6.87 0 0 1 2.702.58 8.54 8.54 0 0 1 2.543 1.762l.402.4 1.953-2.556-.307-.307c-.984-.984-2.08-1.642-3.253-2.174-1.218-.554-2.536-.77-3.934-.77zm30.744 0-3.168.002v20.88h3.17v-9.82c0-.506.167-1.018.53-1.568.385-.48.837-.926 1.45-1.188.687-.295 1.335-.476 2.081-.476.904 0 1.58.336 2.24.994.625.625.888 1.388.888 2.549v9.51h3.168v-9.82c0-1.2-.212-2.333-.797-3.269a6.505 6.505 0 0 0-2.128-2.125l-.021-.013-.02-.01a8.51 8.51 0 0 0-2.97-.879l-.024-.002h-.026c-1.102 0-2.228.216-3.164.801-.49.306-.808.806-1.209 1.22zm59.666.029a2.97 2.97 0 0 1 2.977 2.976c0 .884-.383 1.675-.99 2.22l-1.083-1.661c.32-.087.62-.207.78-.434.2-.281.277-.63.25-.97-.051-.682-.52-1.365-1.283-1.414h-2.59v4.517h1.154v-1.584h.555l1.03 1.584h1.142a2.964 2.964 0 0 1-1.94.719 2.97 2.97 0 0 1-2.978-2.977 2.97 2.97 0 0 1 1.038-2.26 2.965 2.965 0 0 1 1.94-.716zm-90.41.965c1.296 0 2.461.197 3.523.68.972.441 1.81 1.017 2.604 1.732l-.748.978c-.758-.67-1.555-1.278-2.383-1.646a7.776 7.776 0 0 0-3.102-.666c-.87 0-1.587.12-2.369.457l-.013.006-.012.006c-.68.34-1.26.799-1.72 1.375l-.022.027-.018.027c-.336.56-.588 1.18-.588 1.912 0 1.072.54 2.01 1.504 2.502.932.576 2.285.984 4.143 1.5l.008.002h.005c2.037.51 3.531 1.118 4.592 1.889 1.007.732 1.453 1.78 1.453 3.225 0 .93-.277 1.766-.763 2.644a4.53 4.53 0 0 1-2.135 1.764l-.02.008-.017.01c-.94.47-2.107.673-3.51.673h-.018c-2.622.093-4.913-.845-6.835-2.619l.746-.975c.83.748 1.662 1.385 2.572 1.84 1.12.56 2.344.778 3.742.778a6.77 6.77 0 0 0 2.684-.559c.793-.34 1.41-.814 1.785-1.441.336-.56.586-1.184.586-1.916 0-1.168-.533-2.11-1.475-2.7-.908-.567-2.294-1.09-4.195-1.513h-.004a17.07 17.07 0 0 1-3.426-1.11c-.88-.39-1.52-.854-1.974-1.492-.45-.63-.63-1.324-.63-2.404 0-.936.276-1.77.753-2.533a4.536 4.536 0 0 1 2.144-1.772l.02-.008.017-.01c.965-.482 1.908-.671 3.096-.671zm28.568 0h1.186v6.96l.94.221c.354-.71 1-1.275 1.786-1.767.715-.447 1.653-.64 2.614-.645a7.517 7.517 0 0 1 2.572.764 5.423 5.423 0 0 1 1.797 1.795c.45.722.648 1.661.648 2.74v8.828H67.57v-8.517c0-1.326-.355-2.425-1.18-3.25-.793-.792-1.77-1.286-2.94-1.286-.91 0-1.712.233-2.474.56-.83.355-1.412.941-1.852 1.491l-.013.018-.012.017c-.457.686-.703 1.408-.703 2.14v8.827H57.21v-18.896zm60.203.049h2.27c.592.038.963.576 1.006 1.14.021.282-.043.56-.195.776-.153.214-.393.372-.762.414l-.239.027 1.02 1.566h-.5l-1.03-1.584h-1.013v1.584h-.56v-3.588zm.557.367v1.584h1.34c.233 0 .43-.103.56-.252a.838.838 0 0 0 .203-.54.763.763 0 0 0-.214-.546c-.15-.152-.376-.246-.663-.246zm.297.297h.928c.225 0 .363.066.45.156.09.09.13.211.128.338a.548.548 0 0 1-.127.345.424.424 0 0 1-.336.15h-1.043v-.99zm-39.176 2.955c-1.449 0-2.683.453-3.863 1.097l-.026.012-.023.018c-1.085.76-2.07 1.741-2.738 2.964l-.003.008-.005.01a9.021 9.021 0 0 0-.986 4.156c0 1.512.327 2.952 1.103 4.182.671 1.328 1.685 2.226 2.858 2.973 1.212.77 2.467 1.11 3.89 1.11 1.2 0 2.304-.22 3.485-.65 1.192-.432 2.11-1 2.796-1.8l.3-.352-2.063-2.058-.348.431c-.319.398-.972.793-1.754 1.086l-.02.012-.027.012c-.724.362-1.543.448-2.25.271l-.056-.014h-.063c-1.245 0-2.342-.375-3.17-1.203-.73-.73-1.185-1.693-1.379-2.779h11.78v-.494c0-2.663-.644-4.856-1.965-6.514-1.24-1.688-3.19-2.478-5.473-2.478zm26.522 0c-1.448 0-2.686.453-3.866 1.097l-.02.012-.025.018c-1.085.76-2.074 1.741-2.74 2.964l-.006.008-.004.01a9.022 9.022 0 0 0-.986 4.156c0 1.512.33 2.952 1.106 4.182.67 1.328 1.682 2.226 2.855 2.973 1.212.77 2.47 1.11 3.893 1.11 1.2 0 2.301-.22 3.482-.65 1.192-.431 2.11-1 2.8-1.8l.3-.352-2.065-2.058-.347.431c-.318.398-.973.793-1.756 1.086l-.014.006-.014.008c-.86.383-1.544.464-2.382.28l-.055-.013h-.055c-1.245 0-2.342-.374-3.17-1.203-.73-.73-1.183-1.691-1.377-2.777h11.881v-.496c0-2.663-.644-4.856-1.965-6.514-1.24-1.688-3.186-2.476-5.47-2.476zm-58.739.103a6.84 6.84 0 0 0-3.35.89 6.542 6.542 0 0 0-1.542 1.218v-1.797h-3.166V128h3.166v-6.984c.477.553.893 1.174 1.543 1.535.995.553 2.12.89 3.35.89a7.041 7.041 0 0 0 3.673-1.002c1.137-.682 1.92-1.698 2.563-2.88l.008-.018.007-.016c.548-1.205.873-2.62.873-4.14 0-1.49-.21-2.92-.88-4.158a6.525 6.525 0 0 0-2.555-2.887c-1.118-.778-2.356-1.112-3.65-1.22l-.018-.003zm49.932.21c-1.387 0-2.626.219-3.752.886a4.723 4.723 0 0 0-1.346 1.03v-1.606H88.54v15.703h3.168v-8.682c0-.97.184-1.67.634-2.3l.015-.022.012-.022c.352-.615 1.002-1.187 1.757-1.564.754-.377 1.6-.568 2.68-.568h.496v-2.856h-.496zm-91.393.31.29.69 6.343 15.013h2.733l6.525-15.703h-3.465l-4.43 11.365-4.529-11.365zm73.678.369c2.065 0 3.64.658 4.678 2.074l.006.012.006.008c1.073 1.342 1.607 3.162 1.69 5.41H73.582l.04.53a6.158 6.158 0 0 0 1.8 3.94c1.018 1.018 2.38 1.465 3.8 1.48a4.268 4.268 0 0 0 2.86-.34c.675-.256 1.202-.654 1.684-1.08l.66.66c-.518.492-1.076.933-1.982 1.263-1.1.4-2.069.59-3.149.59-1.27 0-2.292-.278-3.36-.957-1.098-.7-1.944-1.455-2.517-2.6l-.01-.021-.013-.024c-.664-1.044-.957-2.293-.957-3.672 0-1.375.29-2.523.877-3.703.573-1.047 1.44-1.918 2.418-2.605 1.087-.59 2.123-.965 3.355-.965zm26.522 0c2.066 0 3.636.658 4.675 2.074l.006.012.006.008c1.073 1.342 1.61 3.162 1.692 5.41h-11.989l.04.53a6.157 6.157 0 0 0 1.8 3.94c1.024 1.024 2.392 1.476 3.822 1.487 1 .21 1.95.089 2.93-.342.68-.256 1.21-.656 1.695-1.086l.66.66c-.517.493-1.08.934-1.986 1.264-1.098.4-2.064.59-3.144.59-1.27 0-2.293-.278-3.36-.957-1.099-.7-1.943-1.455-2.515-2.6l-.012-.021-.014-.024c-.665-1.044-.96-2.293-.96-3.672 0-1.375.292-2.522.88-3.703.573-1.047 1.441-1.918 2.42-2.605 1.086-.59 2.12-.965 3.354-.965zm-58.75.107c1.174.102 2.201.387 3.144 1.047l.016.012.013.01a5.526 5.526 0 0 1 2.188 2.468l.006.018.008.018c.565 1.036.77 2.296.77 3.699a9.046 9.046 0 0 1-.78 3.717c-.596 1.087-1.262 1.929-2.192 2.486a5.998 5.998 0 0 1-3.162.861c-1.05 0-2-.282-2.869-.765-.832-.462-1.507-1.224-2.105-2.121l-.91-1.366v8.81h-1.182v-18.585h1.182v2.299l.94.22c.464-.93 1.205-1.581 2.075-2.064a5.826 5.826 0 0 1 2.858-.762zm49.447.25v.934c-.962.059-1.865.185-2.625.564-.898.45-1.688 1.122-2.166 1.95-.57.814-.803 1.758-.803 2.847v7.69h-1.183v-13.721h1.183v2.406l.97.143c.273-.902.89-1.617 1.82-2.082l.017-.008.017-.012c.808-.485 1.717-.662 2.77-.71zm-89.4.266h1.294l5.213 13.08 5.102-13.08h1.3l-5.702 13.719h-1.41l-5.797-13.72zm39.445.457c-1.102 0-1.966.244-2.854.799l-.01.01-.013.01c-.766.546-1.464 1.246-1.92 2.265-.456.916-.67 2.02-.67 3.215 0 1.2.223 2.216.662 3.205l.004.01.006.01a6.187 6.187 0 0 0 1.918 2.253c.838.598 1.87.819 2.877.819 1.005 0 2.042-.22 2.88-.819.766-.547 1.463-1.244 1.92-2.263.455-.916.67-2.02.67-3.215 0-1.2-.225-2.217-.664-3.205l-.003-.01-.006-.01a6.191 6.191 0 0 0-1.918-2.256c-.82-.586-1.776-.818-2.88-.818zm32.84.103c-1.448 0-2.725.462-3.746 1.37-1.02.906-1.713 2.18-1.825 3.754l-.039.53h10.91l-.04-.53c-.11-1.553-.694-2.721-1.575-3.713l-.01-.012-.01-.012c-.93-.93-2.215-1.387-3.663-1.387zm26.52 0c-1.449 0-2.728.462-3.749 1.37-1.02.906-1.708 2.181-1.82 3.754l-.04.53h10.907l-.037-.53c-.11-1.553-.692-2.721-1.574-3.713l-.01-.012-.012-.012c-.93-.93-2.217-1.387-3.666-1.387zm-59.36.89c.97 0 1.673.18 2.303.63a5.236 5.236 0 0 1 1.597 1.883c.386.873.576 1.717.576 2.793 0 1.08-.198 2.043-.568 2.783l-.006.01-.004.01c-.373.837-.914 1.382-1.595 1.869-.612.437-1.444.632-2.303.632-.86 0-1.689-.195-2.3-.632a5.23 5.23 0 0 1-1.6-1.88c-.387-.872-.575-1.716-.575-2.792 0-1.08.198-2.043.567-2.783l.005-.01.004-.012c.37-.832.911-1.373 1.586-1.857.762-.474 1.348-.645 2.313-.645zm32.84.103h.002c1.24 0 2.227.37 2.953 1.091.65.736 1.02 1.549 1.193 2.579h-8.59c.196-1.046.637-1.915 1.354-2.553.843-.75 1.843-1.117 3.088-1.117zm26.52 0c1.24 0 2.23.37 2.954 1.091.65.735 1.022 1.549 1.194 2.579h-8.588c.195-1.046.632-1.916 1.35-2.553.843-.75 1.844-1.117 3.09-1.117z"/></svg>
