<svg xmlns="http://www.w3.org/2000/svg" viewBox="0 0 128 128"><path fill="#0091da" d="M18.64.103S2.279.932 0 18.744v89.373s1.139 17.915 19.78 19.78h36.349l5.488-5.489H20.4s-13.048-1.656-14.705-14.705v-87.82S5.177 6.627 20.193 5.385h35.108L60.168.104H18.641zm53.335 0-5.489 5.489H107.6s13.048 1.656 14.705 14.705v87.82s.518 13.256-14.498 14.498H72.803l-4.971 5.282h41.527s16.363-.829 18.641-18.641V19.883S126.862 1.968 108.22.103H71.976zm-46.602 14.81c-3.521.103-10.254 2.486-10.254 10.357v56.128c.31 3.314 2.9 9.631 9.838 9.631h7.25v-4.867h-7.353c-4.04 0-4.764-4.246-4.971-5.074V25.373c0-4.97 4.662-5.387 5.49-5.49l54.574.207c4.143 0 4.973 4.455 5.18 5.283v5.695h4.97v-6.111c-.414-3.417-3.002-9.838-10.044-9.838l-54.68-.207zm22.16 21.333c-3.417.104-9.941 2.382-9.941 9.941v56.13c.31 3.21 2.692 9.216 9.424 9.216h54.369c.621 0 4.66-.102 7.56-3.002 1.968-1.864 2.899-4.454 2.899-7.56V45.877c-.31-3.21-2.796-9.424-9.631-9.424l-54.576-.207h-.104zm.104 4.143 54.472.207c4.557 0 5.49 4.763 5.594 5.695v54.783c0 1.968-.519 3.521-1.555 4.557-1.864 1.76-4.66 1.76-4.763 1.76h-54.37c-4.349 0-5.177-4.66-5.28-5.489V46.187c0-5.281 5.177-5.798 5.902-5.798z"/></svg>
