<svg xmlns="http://www.w3.org/2000/svg" viewBox="0 0 128 128"><path fill="#00C1D5" d="M65.8 1.2H47.7s-7.1.4-8.1 8.1v38.9s.5 7.8 8.6 8.6H64l2.4-2.4H48.5s-5.7-.7-6.4-6.4V9.8s-.2-5.8 6.3-6.3h15.3l2.1-2.3z"/><path fill="#78BD20" d="M69.1 56.9h18.1s7.1-.4 8.1-8.1v-39s-.5-7.8-8.6-8.6H70.9l-2.4 2.4h17.9s5.7.7 6.4 6.4v38.2s.2 5.8-6.3 6.3H71.3l-2.2 2.4z"/><g fill="#0091DA"><path d="M83.8 49.8c-.1 0-.1 0 0 0H60.1c-3 0-4.1-2.7-4.2-4.1V21.3c0-3.4 2.9-4.4 4.4-4.4l23.8.1c3 0 4.1 2.8 4.3 4.2v24c0 1.4-.4 2.5-1.3 3.3-1.3 1.3-3 1.3-3.3 1.3zm-25.9-4.3c.1.4.4 2.3 2.2 2.3h23.7s1.2 0 2-.7c.4-.4.7-1.1.7-1.9V21.4c-.2-.4-.6-2.4-2.4-2.4l-23.7-.1c-.5 0-2.5.3-2.5 2.4v24.2z"/><path d="M53.6 38.7h-3.2c-1.7 0-2.1-1.8-2.1-2.2V12.2c0-2.1 2-2.4 2.4-2.4l23.7.2c1.8 0 2.2 1.9 2.2 2.3v2.5h2.2v-2.6c-.2-1.5-1.3-4.3-4.4-4.3l-23.8-.2c-1.6.1-4.5 1.1-4.5 4.5V36.6c.2 1.4 1.2 4.2 4.3 4.2h3.2v-2.1z"/></g><g fill="#717074"><path d="M31.4 69.4L23 88.2h-2.3l-8.3-18.8h2.3l7.2 16.2L29 69.4h2.4zM34.4 69.4h2.1l7 13.1 7-13.1h2.1v18.8h-2.1V74l-7 13.1-7-13.1v14.2h-2.1V69.4zM55.4 74.1h2.2l3.5 11.4L65 74.1h1.8l3.9 11.4 3.5-11.4h2.2l-4.8 14.2h-1.9L65.9 77l-3.8 11.3h-1.9l-4.8-14.2zM87.9 75.3c1 1.1 1.5 2.5 1.5 4.3v8.6h-2.1V86c-.5.8-1.2 1.4-2.1 1.9s-1.9.7-2.9.7c-1.5 0-2.8-.4-3.7-1.2-1-.8-1.5-1.9-1.5-3.3 0-.9.3-1.7.8-2.5.5-.7 1.2-1.3 2-1.7.8-.4 1.8-.6 2.8-.6 1.4 0 3 .3 4.6.8v-.5c0-1.2-.3-2.1-.9-2.9s-1.6-1.2-3-1.2c-.6 0-1.3.1-2 .3-.7.2-1.4.5-2.2.9l-.8-1.7c1.8-.9 3.5-1.4 5.1-1.4 2 .1 3.4.7 4.4 1.7zM85.6 86c.9-.5 1.5-1.2 1.7-2.2v-2.2c-1.4-.4-2.8-.6-4.3-.6-1.1 0-2 .3-2.8.8-.8.5-1.1 1.2-1.1 2.1 0 .9.3 1.5 1 2s1.5.8 2.5.8 2.1-.2 3-.7zM97.3 74.6c1-.6 2.1-.8 3.4-.8v1.8c-1.1 0-2 .2-2.8.6-.8.4-1.5 1-1.9 1.7-.5.7-.7 1.5-.7 2.5v7.9h-2.1V74.1h2.1v2.8c.3-1 1-1.8 2-2.3zM111.9 86.2c.8-.3 1.5-.7 1.9-1.2l1.3 1.3c-.6.7-1.4 1.2-2.5 1.6-1.1.4-2.1.6-3.2.6-1.3 0-2.4-.3-3.5-1s-2-1.5-2.6-2.7c-.7-1.1-1-2.4-1-3.8s.3-2.6.9-3.8c.6-1.1 1.5-2 2.5-2.7 1.1-.6 2.2-1 3.5-1 2.1 0 3.8.7 4.9 2.2 1.2 1.5 1.8 3.5 1.8 6h-11.6c.1 1.4.7 2.6 1.6 3.5s2.1 1.3 3.4 1.3c.9.2 1.7.1 2.6-.3zm-6-9.4c-.9.8-1.5 1.9-1.6 3.3h9.5c-.1-1.4-.6-2.4-1.4-3.3-.8-.8-1.9-1.2-3.2-1.2-1.2 0-2.3.4-3.3 1.2z"/><g><path d="M12.6 105.1h2.3l4.7 11.8 4.6-11.8h2.3l-5.9 14.2h-2l-6-14.2zM27.4 116.5l1.3-1.7c.9.9 1.8 1.5 2.8 2 1 .5 2.1.7 3.4.7.9 0 1.7-.2 2.4-.5s1.2-.7 1.5-1.2c.3-.5.5-1 .5-1.6 0-1-.4-1.7-1.2-2.2-.8-.5-2.1-1-3.9-1.4-1.4-.3-2.5-.7-3.4-1.1-.9-.4-1.6-.9-2.1-1.6-.5-.7-.7-1.5-.7-2.6 0-1 .3-1.9.8-2.7.5-.8 1.3-1.5 2.3-1.9 1-.5 2-.7 3.2-.7 1.3 0 2.5.2 3.6.7 1.1.5 2.1 1.1 3 2l-1.3 1.7c-.8-.8-1.7-1.4-2.6-1.8-.9-.4-1.9-.6-2.8-.6-.8 0-1.4.1-2.1.4-.6.3-1.1.7-1.5 1.2-.3.5-.5 1-.5 1.6 0 .9.4 1.6 1.2 2 .8.5 2.1.9 3.9 1.4 2 .5 3.5 1.1 4.6 1.9 1.1.8 1.6 2 1.6 3.5 0 1-.3 1.9-.8 2.8-.5.8-1.3 1.5-2.3 1.9-1 .5-2.2.7-3.6.7-2.8.1-5.3-.9-7.3-2.9zM55.2 105.7c1 .6 1.8 1.5 2.3 2.6.6 1.1.8 2.4.8 3.8s-.3 2.7-.8 3.8c-.6 1.1-1.3 2-2.3 2.6-1 .6-2.1.9-3.3.9-1.1 0-2.1-.3-3-.8-.9-.5-1.6-1.3-2.2-2.2v7.4h-2.1v-18.9h2.1v2.7c.5-1 1.3-1.7 2.2-2.2.9-.5 1.9-.8 3-.8 1.2.1 2.3.4 3.3 1.1zM53.9 117c.7-.5 1.3-1.1 1.7-2 .4-.8.6-1.8.6-2.9 0-1.1-.2-2-.6-2.9-.4-.8-1-1.5-1.7-2s-1.5-.7-2.5-.7-1.7.2-2.5.7c-.7.5-1.3 1.1-1.7 2-.4.8-.6 1.8-.6 2.9 0 1.1.2 2 .6 2.9.4.8 1 1.5 1.7 2s1.6.7 2.5.7 1.8-.2 2.5-.7zM70.9 105.4c.8.5 1.4 1.1 1.9 1.9s.7 1.8.7 2.9v9h-2.1v-8.7c0-1.2-.3-2.1-1-2.8-.7-.7-1.5-1.1-2.5-1.1-.8 0-1.5.2-2.2.5-.7.3-1.2.8-1.6 1.3-.4.6-.6 1.2-.6 1.8v9h-2.1V100h2.1v7.2c.4-.8 1.1-1.4 1.9-1.9.8-.5 1.8-.7 2.8-.7 1 .1 1.9.4 2.7.8zM85.7 117.2c.8-.3 1.5-.7 1.9-1.2l1.3 1.3c-.6.7-1.4 1.2-2.5 1.6-1.1.4-2.1.6-3.2.6-1.3 0-2.4-.3-3.5-1s-2-1.5-2.6-2.7c-.7-1.1-1-2.4-1-3.8s.3-2.6.9-3.8c.6-1.1 1.5-2 2.5-2.7 1.1-.6 2.2-1 3.5-1 2.1 0 3.8.7 4.9 2.2 1.2 1.5 1.8 3.5 1.8 6H78.2c.1 1.4.7 2.6 1.6 3.5s2.1 1.3 3.4 1.3c.8.2 1.7.1 2.5-.3zm-5.9-9.4c-.9.8-1.5 1.9-1.6 3.3h9.5c-.1-1.4-.6-2.4-1.4-3.3-.8-.8-1.9-1.2-3.2-1.2-1.3 0-2.4.4-3.3 1.2zM96.7 105.6c1-.6 2.1-.8 3.4-.8v1.8c-1.1 0-2 .2-2.8.6-.8.4-1.5 1-1.9 1.7-.5.7-.7 1.5-.7 2.5v7.9h-2.1v-14.2h2.1v2.8c.3-1 1-1.8 2-2.3zM111.3 117.2c.8-.3 1.5-.7 1.9-1.2l1.3 1.3c-.6.7-1.4 1.2-2.5 1.6-1.1.4-2.1.6-3.2.6-1.3 0-2.4-.3-3.5-1s-2-1.5-2.6-2.7c-.7-1.1-1-2.4-1-3.8s.3-2.6.9-3.8c.6-1.1 1.5-2 2.5-2.7 1.1-.6 2.2-1 3.5-1 2.1 0 3.8.7 4.9 2.2 1.2 1.5 1.8 3.5 1.8 6h-11.6c.1 1.4.7 2.6 1.6 3.5s2.1 1.3 3.4 1.3c.9.2 1.7.1 2.6-.3zm-5.9-9.4c-.9.8-1.5 1.9-1.6 3.3h9.5c-.1-1.4-.6-2.4-1.4-3.3-.8-.8-1.9-1.2-3.2-1.2-1.3 0-2.4.4-3.3 1.2z"/></g></g></svg>
