<svg version="1.1" xmlns="http://www.w3.org/2000/svg" viewBox="0 0 128 128" width="128px" height="128px">
	<path fill="#00C1D5" d="M60.3,2.3H20.2c0,0-15.8,0.8-18,18v86.3c0,0,1.1,17.3,19.1,19.1h35.1l5.3-5.3H21.9c0,0-12.6-1.6-14.2-14.2
		V21.4c0,0-0.5-12.8,14-14h33.9L60.3,2.3z" />
	<path fill="#78BD20" d="M67.7,125.7h40.1c0,0,15.8-0.8,18-18V21.4c0,0-1.1-17.3-19.1-19.1H71.7l-5.3,5.3h39.7c0,0,12.6,1.6,14.2,14.2
		v84.8c0,0,0.5,12.8-14,14H72.5L67.7,125.7z" />
	<g fill="#0091DA">
		<path d="M100.1,109.9C100.1,109.9,100,109.9,100.1,109.9H47.6c-6.5,0-8.8-5.8-9.1-8.9l0-0.2V46.8
			c0-7.3,6.3-9.5,9.6-9.6l0.1,0l52.7,0.2c6.6,0,9,6,9.3,9.1l0,0.2v53c0,3-0.9,5.5-2.8,7.3C104.6,109.8,100.7,109.9,100.1,109.9z
			 M42.5,100.6c0.1,0.8,0.9,5.3,5.1,5.3h52.5c0.1,0,2.8,0,4.6-1.7c1-1,1.5-2.5,1.5-4.4V46.9c-0.1-0.9-1-5.5-5.4-5.5l-52.6-0.2
			c-0.7,0-5.7,0.5-5.7,5.6V100.6z" />
		<path d="M33.2,85.4h-7c-3.9,0-4.6-4.1-4.8-4.9V26.7c0-4.8,4.5-5.2,5.3-5.3l52.7,0.2h0c4,0,4.8,4.3,5,5.1v5.5h4.8v-5.6
			l0-0.3c-0.4-3.3-2.9-9.5-9.7-9.5l-52.8-0.2c-3.4,0.1-9.9,2.4-9.9,10v53.9l0,0.3c0.3,3.2,2.8,9.3,9.5,9.3l7,0V85.4z" />
	</g>
</svg>
