<svg xmlns="http://www.w3.org/2000/svg" viewBox="0 0 128 128"><path fill="#1d94dd" d="M48.666 0v13.193L69.144 25.02v36.148l9.887 5.666c3.07 1.773 5.938 2.177 8.1 1.264 2.16-.914 3.487-3.16 3.487-6.275V35.315c0-6.236-4.951-13.99-11.092-17.538zm.989 1.712 29.376 16.923c5.79 3.345 10.598 10.984 10.598 16.68v26.508c0 2.846-1.113 4.614-2.883 5.363-1.77.748-4.325.462-7.22-1.21l-9.392-5.38V24.448L49.655 12.621Zm-12.299 8.735v60.186L66.054 87.21V27.032Zm.99 1.716 26.719 15.441v57.89l-26.72-15.433Zm-6.306 81.03v1.848l-.199-.047a5.998 5.998 0 0 0-1.368-.156c-.655 0-1.164.091-1.55.398-.36.287-.473.742-.49 1.185-.051-.412-.09-.836-.395-1.113-.403-.367-.966-.482-1.685-.482a6.131 6.131 0 0 0-1.61.215l-.193.052v-1.747h-2.095v2.352h-1.13v-2.352h-2.096v6.59h2.095v-2.333h1.133v2.344h2.093v-.693c.04.07.019.165.073.23.278.332.726.518 1.221.518.32 0 .605-.153.905-.254l.052.2h1.733l.002-.205.11.034a5.492 5.492 0 0 0 1.6.255l.501.006v-.148c.41-.052.84-.07 1.11-.296.139-.117.105-.317.183-.47v.824h2.095V97c.15-.062.303-.114.462-.145v3.092l1.94.002v.004l2.095-.023v-1.554c.092.397.146.822.464 1.082.46.375 1.094.531 1.878.531a7.171 7.171 0 0 0 1.687-.203l.431-.106-.046-.346c.015.018.005.043.021.06.391.414 1.009.64 1.819.64h1.194l-.319-.319c.314-.107.731-.116.931-.325.223-.231.22-.524.296-.802v1.392h2.093v-2.804c.238-.14.48-.274.732-.387v4.942l2.095-.292v-1.538c.184.02.366.056.551.06 1.13.141 2.108-.855 1.938-1.983l.006.065-.023-1.32c0-.54-.136-1.028-.464-1.381-.327-.353-.812-.516-1.331-.516h-.002c-.356-.002-.666.184-.994.313l-.065-.236h-1.535l-.035-.245-.558.181c-.162.053-.303.152-.458.22v-.156h-1.95v1.405c-.075-.28-.066-.577-.284-.81-.39-.415-1.008-.641-1.819-.641-.81 0-1.43.226-1.82.641-.39.415-.508.956-.508 1.448v.93l-.22.04a8.682 8.682 0 0 1-1.332.135c-.314-.001-.432-.063-.446-.076-.015-.012-.049-.046-.049-.27v-2.134c0-.224.033-.254.047-.266.013-.012.14-.07.438-.074a8.346 8.346 0 0 1 1.332.186l.527.118.25-1.888-.435-.103a7.328 7.328 0 0 0-1.681-.199h-.002c-.785 0-1.42.156-1.879.532-.326.266-.386.7-.475 1.109v-1.64h-2.095v2.813c-.035-.28-.044-.567-.213-.8-.243-.337-.678-.532-1.138-.532h-.017c-.36.013-.691.16-1.034.26V93.49zm.99 1.139.116.017v4.61h-.116zm-12.811.004h.116v4.61h-.116zm3.225 0h.116v4.622h-.114v-2.344h-.002zm14.083 0h.115v.002h-.116zm2.361.268c-.267.26-.367.622-.367.968v2.134c0 .36.086.75.38 1.01.117.104.297.078.437.128-.2-.055-.513-.067-.616-.15-.209-.171-.307-.392-.307-.797v-.002l.011-2.452v-.002c0-.407.098-.627.307-.798.026-.021.124-.02.155-.039zm-4.694 1.216c.224.002.272.042.328.12.058.08.12.273.12.576v2.442h-.056v-2.334c0-.187-.052-.43-.236-.603-.12-.114-.26-.116-.396-.141.083-.01.157-.057.24-.06zm2.332.073h.116v3.06l-.116.001zm-7.836.087c-.059.074-.132.144-.156.22a.97.97 0 0 0-.043.315c0 .063-.004.142.02.26.021.11.093.253.19.359-.058-.03-.242-.084-.252-.097-.027-.034-.062-.158-.062-.533 0-.315.047-.41.15-.493.017-.013.126-.017.153-.03zm23.422.01c.017.014.065.01.08.025.11.119.199.33.199.71v.003l.023 1.364.006.033c.045.302-.107.53-.323.684.198-.215.255-.49.255-.74v-1.368c0-.228-.046-.494-.24-.711zm-25.94.006c.038.02.175.02.2.042.12.11.196.301.196.74l-.015 2.13-.068-.261-.067-.955h.058v-.914c0-.25-.082-.555-.304-.782zm23.63 0 .105.367-.015 2.533.027.006v1.676l-.116.015zm-6.896.145c-.191.227-.3.509-.3.782v1.104c0 .251.12.5.278.719-.016-.016-.083-.014-.098-.03-.164-.173-.24-.429-.24-.767v-1.003c0-.337.076-.594.24-.769.018-.019.098-.018.12-.036zm1.97.004c.02.016.091.015.107.032.164.175.24.431.24.77v1.018c-.005.32-.078.568-.244.74-.013.013-.072.012-.087.025.151-.216.27-.457.27-.703v-1.112a1.337 1.337 0 0 0-.285-.77zm-21.326.43.052.308.502-.103a5.483 5.483 0 0 1 1.07-.114c.3 0 .393.062.345.023-.007-.006-.001.02-.006.014h-.547c-.504 0-.953.126-1.271.427-.103.097-.08.258-.145.379zm27.828.076c-.036-.04-.016-.049-.016.05v1.368c0 .113-.022.106.012.07.034-.036.064-.021-.043-.021h.012c-.157-.004-.305-.035-.458-.055l.008-1.207c.146-.085.293-.174.464-.18h-.018c.113 0 .075.015.039-.025zm-4.286.013v2.327h-.114V96.74zm-3.206.056h.249c.002.003.036.035.039.211v1.096c0 .147-.024.155-.024.154 0 0-.054.045-.264.045-.211 0-.267-.045-.267-.045s-.023-.008-.023-.154v-1.104c0-.146.024-.158.025-.158 0 0 .054-.045.264-.045zm-13.702.01c.118.016.238.018.356.04l.5.095v.257c-.007-.007-.006-.018-.013-.025-.201-.205-.541-.27-.843-.367zm-2.628.435c.039.16 0 .336.114.481.22.281.59.384.993.497-.199-.027-.4-.032-.591-.085l-.522-.145zm2.45.512c.075.034.3.099.313.112.018.019.022.016.037.087s.025.209.025.404c0 .344-.054.466-.16.555-.02.016-.147.02-.18.036.06-.081.133-.161.155-.241a1.17 1.17 0 0 0 .036-.327c0-.077.006-.166-.023-.3-.023-.106-.113-.225-.203-.326zm-5.548.15c-.095.169-.185.348-.185.5 0 .17.072.372.196.554-.018-.016-.073-.013-.088-.031-.08-.096-.145-.276-.145-.547 0-.258.057-.376.139-.454.011-.011.068-.01.083-.021zm46.838 4.283-.562.078-4.67.653v24.77l5.232.003v-8.239l4.934 8.248h5.823l-5.485-9.042 5.264-8.876-5.882-.002-.143.247-4.51 7.82zm-.99 1.138v23.376l-3.252-.002v-22.92Zm-52.075.226v24.138h5.408v-7.508h3.913c2.734 0 4.75-.557 6.095-1.718 1.346-1.16 1.942-2.892 1.942-4.998v-3.154c0-2.107-.528-3.842-1.82-5.018-1.292-1.176-3.262-1.741-6.008-1.741zm.99.99h8.54c2.61 0 4.307.541 5.343 1.484 1.036.943 1.496 2.34 1.496 4.286v3.154c0 1.925-.508 3.306-1.6 4.248-1.093.942-2.849 1.478-5.448 1.478h-4.903v7.508h-3.428zm3.428 2.864v8.888h4.913c1.297 0 2.241-.233 2.87-.827.627-.595.826-1.467.826-2.486v-2.34c-.022-1.023-.26-1.878-.896-2.449-.636-.57-1.561-.786-2.8-.786zm.99.99h3.923c1.121 0 1.774.205 2.139.533.364.327.548.847.568 1.735v2.317c0 .893-.165 1.43-.52 1.767-.355.336-1.01.556-2.187.556h-3.923zm83.563.875-.581.203c-1.366.475-2.636 1.172-3.863 1.934l-.242-1.625h-4.499v17.907h5.23v-11.116a32.727 32.727 0 0 1 4.195-2.311l.328-.15zm-47.454.147c-2.724 0-4.689.493-5.983 1.673-1.295 1.18-1.815 2.977-1.815 5.324v4.134h-.002v.495c0 2.347.524 4.144 1.82 5.324 1.297 1.18 3.26 1.675 5.978 1.675a14.388 14.388 0 0 0 4.288-.651l.406-.126-.665-4.443-.532.138a13.639 13.639 0 0 1-3.39.437c-1.165 0-1.818-.187-2.156-.495-.338-.309-.506-.84-.506-1.824v-4.695c0-.987.168-1.517.506-1.826.338-.308.991-.496 2.155-.496a14.8 14.8 0 0 1 3.395.438l.53.134.66-4.443-.409-.124a15.02 15.02 0 0 0-4.277-.65h-.002zm-16.728.011a22.547 22.547 0 0 0-5.927.845l-.425.118.672 4.188.508-.11a23.421 23.421 0 0 1 4.592-.509c1.318 0 2.008.186 2.315.448.307.263.425.706.425 1.6v1.286h-3.569c-1.786 0-3.165.34-4.1 1.223-.937.884-1.334 2.237-1.334 4.031 0 1.532.346 2.906 1.16 3.92.813 1.012 2.095 1.61 3.754 1.61 1.664-.002 3.268-.493 4.715-1.3l.256.91h4.35l-.012-11.649c0-2.18-.406-3.876-1.6-5.007-1.194-1.13-3.057-1.604-5.776-1.604h-.002zm46.247.012c-2.804 0-4.727.805-5.914 2.135-1.187 1.331-1.604 3.12-1.604 4.982v4.486c0 2.107.481 3.896 1.726 5.144 1.245 1.249 3.186 1.89 5.923 1.89a18.673 18.673 0 0 0 6.405-1.134l.4-.145-.859-4.155-.521.16a17.303 17.303 0 0 1-5.036.773c-1.243 0-1.935-.204-2.29-.525-.356-.322-.518-.855-.518-1.819v-.38h9.41v-4.103c0-1.882-.3-3.705-1.385-5.085-1.084-1.38-2.93-2.224-5.737-2.224zm-29.523.966h.004c1.211.008 2.408.226 3.577.543l-.375 2.522c-1.018-.217-2.048-.387-3.09-.4h-.006c-1.265 0-2.19.176-2.824.754-.633.577-.829 1.456-.829 2.558V121c0 1.1.196 1.978.83 2.555.632.577 1.558.754 2.823.754h.002c1.044-.002 2.075-.174 3.094-.398l.377 2.522c-1.17.324-2.367.544-3.581.543-2.597 0-4.284-.482-5.31-1.417-1.025-.932-1.494-2.385-1.497-4.578v-4.644c0-2.203.467-3.657 1.492-4.591 1.025-.934 2.712-1.416 5.313-1.417zm-16.72.012h.003c2.6 0 4.177.464 5.093 1.331.916.868 1.29 2.23 1.29 4.29l.012 10.66h-2.61l-.387-1.39-.564.366a8.773 8.773 0 0 1-4.77 1.413c-1.433 0-2.36-.464-2.984-1.24-.623-.775-.94-1.918-.94-3.3 0-1.651.35-2.678 1.021-3.312.672-.635 1.763-.953 3.423-.953h4.559v-2.274c0-.986-.142-1.815-.773-2.354-.632-.54-1.558-.684-2.957-.684h-.006c-1.435.018-2.862.204-4.273.473l-.367-2.282c1.71-.444 3.461-.73 5.23-.744zm46.243.011c2.615 0 4.084.735 4.958 1.848.875 1.113 1.175 2.698 1.175 4.472v3.113h-9.41v1.37c0 1.08.194 1.966.844 2.553.649.587 1.609.78 2.952.78h.002c1.625-.006 3.227-.299 4.791-.732l.474 2.292c-1.824.617-3.728.962-5.655.963-2.584 0-4.22-.596-5.222-1.6-1.001-1.005-1.437-2.486-1.437-4.445v-4.486c0-1.714.384-3.236 1.352-4.323.97-1.086 2.557-1.805 5.176-1.805zm17.106.265.335 2.847a33.58 33.58 0 0 0-4.227 2.328l-.224.147v10.683h-3.25v-15.928h2.655l.334 2.229.65-.44c1.156-.78 2.427-1.362 3.727-1.866zm-29.851.076 3.573.002-4.683 7.89 4.882 8.049H77.79l-4.817-8.055zm12.768 2.127c-1.132 0-1.998.312-2.555.91-.556.6-.757 1.418-.757 2.298v1.336h6.38v-1.336c0-.85-.119-1.65-.612-2.267-.493-.616-1.325-.94-2.456-.94zm0 .99c.955 0 1.41.23 1.683.57.272.34.396.898.396 1.648v.346h-4.402v-.346c0-.731.163-1.268.493-1.623.33-.355.873-.595 1.83-.595zm-46.753 6.418c-.742 0-1.33.09-1.751.49-.422.401-.52.983-.52 1.674 0 .69.095 1.267.498 1.677.404.411.987.52 1.7.52h.007a7.128 7.128 0 0 0 3.44-.94l.247-.142.014-3.28zm0 .989h2.641l-.005 1.64c-.844.437-1.761.729-2.714.743-.6-.001-.871-.104-.99-.224-.118-.12-.214-.394-.214-.984 0-.592.094-.845.213-.959.119-.113.419-.216 1.069-.216z" /></svg>
