<svg xmlns="http://www.w3.org/2000/svg" viewBox="0 0 128 128"><g fill="#231F20"><path d="M99.438 45.906c-1.593 7.332-6.957 31.736-6.957 31.736h10.766c.645-3.008 1.146-5.777 1.88-8.835 1.297-5.42 2.752-7.566 6.6-7.566 1.697 0 3.453.577 3.453 2.895 0 1.054-2.42 11.405-2.845 13.507h10.714s3.322-16.116 3.35-16.3c.112-.542.355-2.133.355-2.133 0-3.85-5.01-5.665-7.617-5.74-1.886-.053-.465-.032-2.387 0-3.085.053-7.185 1.767-8.987 3.606l-.203.152.102-.254 2.437-10.866a.344.344 0 0 0-.103-.203h-10.56zm-50.98 7.26c-1.056-.016-2.795-.015-5.586.052-5.58.133-13.913 1.852-13.913 9.85 0 4.524 4.2 4.918 7.92 5.282 2.91.287 5.792.627 8.632.914.818.076 1.625.26 1.625 1.168 0 1.54-1.27 2.027-3.047 2.183-1.776.157-2.183 0-2.183 0-1.12 0-3.036-.677-2.793-2.285H26.47v1.88c.005 6.05 9.77 6.073 11.578 6.295h3.148l4.824-.152c6.44-.425 13.41-2.355 13.71-10.054.208-5.312-6.58-5.16-9.546-5.485h-.812c-.152 0-4.763-.468-7.058-.71-.35-.04-1.93-.273-1.93-1.22 0-1.88 3.457-1.828 4.215-1.828 1.218 0 3.854-.052 3.757 2.03H60.29c.024-.443.203-.842.203-1.32 0-5.354-6.87-6.37-10.612-6.55 0 0-.366-.033-1.422-.05zm32.09 0c-.472-.017-1.118-.004-3.91.052-5.59.112-13.963 1.902-13.963 9.902 0 4.523 4.202 4.917 7.92 5.28 2.91.288 5.792.628 8.633.915.818.076 1.625.26 1.625 1.168 0 1.54-1.584 2.09-3.047 2.183-1.464.093-2.183 0-2.183 0-1.122 0-3.036-.627-2.793-2.234H60.187v1.88c-.01 5.72 9.73 6.095 11.577 6.194l3.148.102 4.824-.152c6.44-.423 13.385-2.357 13.71-10.054.214-5.076-6.34-5.007-9.445-5.433l-.913-.103c-.152 0-4.763-.418-7.058-.66-.35-.038-1.88-.323-1.88-1.27 0-1.878 3.407-1.827 4.164-1.827 1.22 0 3.855-.052 3.758 2.03h11.933c.024-.443.203-.842.203-1.32 0-5.355-6.904-6.39-10.612-6.498-2.27-.07-2.574-.137-3.047-.155zM19.777 45.246c0-1.958-1.387-3.453-3.453-3.453-1.938 0-3.504 1.495-3.504 3.453 0 1.835 1.49 3.504 3.453 3.504 1.856 0 3.504-1.462 3.504-3.504zM29.273 37.07c0-1.49-.975-3.4-3.047-3.4-1.885 0-2.844 1.655-2.844 3.147 0 1.443 1.02 3.554 3.047 3.554 1.884 0 2.843-1.856 2.843-3.3zM20.787 92.367c-1.728 0-4.008 2.258-4.008 3.96 0 .866.404 1.32 1.346 1.32 1.232 0 2.847-1.043 3.613-2.59.15-.303.26-.816.26-.913v-.863c0-.72-.707-.913-1.213-.913zM13.43 88.153c-1.91 0-4.57 1.992-4.57 4.215 0 1.1.684 1.625 1.676 1.625 1.836 0 4.722-1.925 4.722-4.265 0-1.154-.807-1.575-1.828-1.575zM8.15 60.885c1.805 0 4.315-1.247 4.315-3.808 0-1.934-1.594-3.148-3.35-3.148-1.91 0-4.368 1.325-4.368 3.807 0 1.91 1.543 3.148 3.402 3.148zM10.333 81.755c0-1.492-1.104-2.082-2.336-2.082-1.8 0-4.925 1.73-4.925 4.215 0 1.402.955 2.03 2.285 2.03 1.703 0 4.976-1.543 4.976-4.163zM9.114 70.177c0-1.777-1.45-2.59-2.996-2.59-.098 0-.17-.03-.56 0-2.232.187-4.315 2.11-4.315 4.062 0 1.825 1.66 2.59 3.097 2.59 1.86 0 4.774-1.427 4.774-4.063zM28.867 93.027c-1.62 0-3.504 2.164-3.504 3.656 0 .22.004.65.406.914.42.276 1.172.3 2.08-.305 1.22-.813 2.032-2.252 2.032-3.2 0-.52-.333-1.065-1.015-1.065zM51.87 34.836c-1.36 0-1.83 2.11-1.83 2.793 0 .676.235 2.182 1.423 2.182 1.394 0 1.828-2.11 1.828-2.793 0-.574-.307-2.183-1.42-2.184zM56.286 40.422c-1.256 0-1.726 2.063-1.726 2.69 0 .526.2 1.778 1.168 1.778 1.222 0 1.676-2.012 1.676-2.64 0-.417-.185-1.828-1.118-1.828zM45.217 31.028c-1.58 0-2.082 1.977-2.082 2.894 0 .604.372 2.756 1.88 2.742 1.506-.015 2.08-1.973 2.08-2.945 0-.756-.362-2.692-1.878-2.692zM43.084 86.782c-1.433 0-2.437 2.19-2.437 3.047 0 .447.114.913.762.913 1.417 0 2.436-2.153 2.436-3.047 0-.418-.153-.914-.762-.914zM36.382 30.216c-1.727 0-2.387 2.05-2.387 3.148 0 1.153.85 3.148 2.54 3.148 1.712 0 2.366-2.047 2.335-3.097-.04-1.344-.604-3.2-2.488-3.2zM36.382 90.895c-1.57 0-2.894 2.25-2.894 3.402 0 .58.264.914.863.914 1.42 0 2.895-2.17 2.895-3.3 0-.496-.102-1.015-.863-1.015z"/></g></svg>