<svg xmlns="http://www.w3.org/2000/svg" viewBox="0 0 128 128"><g fill="#231F20"><path d="M34.27 109.182c-3.572 0-8.55 3.725-8.55 7.884 0 2.055 1.28 3.04 3.135 3.04 3.434 0 8.834-3.6 8.834-7.98-.002-2.156-1.512-2.944-3.42-2.944zM46.142 28.917c0-3.662-2.594-6.46-6.46-6.46-3.625 0-6.553 2.798-6.553 6.46 0 3.433 2.786 6.554 6.458 6.554 3.47 0 6.554-2.733 6.554-6.553zM63.905 13.624c0-2.79-1.825-6.364-5.7-6.364-3.524 0-5.318 3.098-5.318 5.89 0 2.698 1.908 6.648 5.7 6.648 3.524 0 5.318-3.474 5.318-6.174zM48.38 117.066c-3.23 0-7.673 4.224-7.673 7.41 0 1.618.67 2.47 2.432 2.47 2.303 0 5.63-1.953 7.064-4.845.284-.568.795-1.527.795-1.71v-1.614c-1-1.347-1.673-1.71-2.62-1.71zM28.475 97.213c0-2.79-2.066-3.894-4.37-3.894-3.368 0-9.213 3.236-9.213 7.883 0 2.624 1.787 3.8 4.274 3.8 3.185 0 9.31-2.888 9.31-7.79zM24.39 58.173c3.38 0 8.074-2.332 8.074-7.124 0-3.618-2.983-5.89-6.27-5.89-3.57 0-8.168 2.48-8.168 7.124 0 3.572 2.885 5.89 6.364 5.89zM26.195 75.556c0-3.325-2.713-4.844-5.604-4.844-.182 0-.32-.056-1.044 0-4.177.35-8.074 3.946-8.074 7.6 0 3.414 3.104 4.843 5.794 4.843 3.48 0 8.93-2.67 8.93-7.6zM106.174 9.445c-2.543 0-3.42 3.948-3.42 5.224 0 1.266.438 4.083 2.66 4.083 2.607 0 3.42-3.948 3.42-5.224 0-1.074-.576-4.085-2.66-4.085zM93.73 2.32c-2.955 0-3.893 3.7-3.893 5.415 0 1.13.696 5.156 3.515 5.13 2.82-.03 3.894-3.693 3.894-5.51 0-1.413-.68-5.034-3.515-5.034zM114.438 19.893c-2.35 0-3.23 3.86-3.23 5.034 0 .982.376 3.325 2.185 3.325 2.285 0 3.135-3.765 3.135-4.94 0-.78-.345-3.42-2.09-3.42zM89.742 106.617c-2.68 0-4.56 4.094-4.56 5.7 0 .836.214 1.71 1.426 1.71 2.652 0 4.56-4.03 4.56-5.7-.002-.782-.288-1.71-1.426-1.71zM63.145 118.3c-3.03 0-6.554 4.048-6.554 6.84 0 .41.008 1.213.76 1.71.788.515 2.196.563 3.895-.57 2.28-1.522 3.8-4.213 3.8-5.985 0-.973-.623-1.994-1.9-1.995zM77.203.8c-3.23 0-4.464 3.834-4.464 5.89 0 2.157 1.59 5.89 4.748 5.89 3.205 0 4.43-3.83 4.37-5.795C81.782 4.27 80.727.8 77.202.8zM77.203 114.31c-2.937 0-5.414 4.21-5.414 6.365 0 1.085.494 1.71 1.614 1.71 2.653 0 5.414-4.064 5.414-6.174 0-.927-.19-1.9-1.615-1.9z"/></g></svg>