<svg id="Ember" xmlns="http://www.w3.org/2000/svg" viewBox="0 0 128 128"><g id="original-wordmark"><path fill="#dd3f24" d="M127.28,72.53a1.46,1.46,0,0,0-2.13-1.34s-3.08,2.39-5.79,2.12S117.5,67,117.5,67s.58-5.55-1-6-3.56,1.45-3.56,1.45a20,20,0,0,0-3.61,6.17l-.32.11s.37-6.06-.05-7.44c-.32-.69-3.24-.64-3.72.58s-2.82,9.73-3,13.29c0,0-4.57,3.88-8.56,4.52s-4.94-1.86-4.94-1.86,10.84-3,10.47-11.69-8.74-5.46-9.69-4.75S83.71,65,82.29,73.15c0,.28-.13,1.49-.13,1.49a37.47,37.47,0,0,1-6.54,3.56s6.54-11-1.44-16C70.57,60,67.7,64.6,67.7,64.6s10.79-12,8.4-22.16c-1.14-4.83-3.56-5.35-5.77-4.57a10.06,10.06,0,0,0-4.64,3.3,37.12,37.12,0,0,0-5.37,15.73c-1,9.41-2.5,20.78-2.5,20.78s-2.07,2-4,2.13-1.06-5.69-1.06-5.69,1.49-8.82,1.38-10.31-.21-2.29-2-2.82-3.67,1.7-3.67,1.7-5,7.65-5.47,8.82l-.27.48-.27-.32s3.56-10.42.16-10.58S37,64.81,37,64.81,33.15,71.3,33,72l-.27-.32s1.59-7.55,1.28-9.41a1.71,1.71,0,0,0-2.07-1.49s-2.23-.27-2.82,1.17a105.2,105.2,0,0,0-3,14s-5.58,4-9.25,4-3.3-2.33-3.3-2.33S27,73.09,23.37,64a6.66,6.66,0,0,0-6.27-3c-2.71.05-6,1.71-8.17,6.6a21.21,21.21,0,0,0-1.55,6.22h0s-2.43.48-3.71-.58-2,0-2,0-2.21,2.75,0,3.6A26.67,26.67,0,0,0,7.22,78h0a10.25,10.25,0,0,0,3.87,6.07c4,3,11.64-.26,11.64-.26l3.14-1.75S26,85,28.26,85.39s3.24,0,7.23-9.68C37.83,70.77,38,71,38,71l.27-.05s-1.81,9.46-1.12,12,3.72,2.29,3.72,2.29,1.65.28,3-4.4A70,70,0,0,1,47.71,71H48s-1.12,9.71.58,12.8,6.11,1.06,6.11,1.06a30.71,30.71,0,0,0,3.56-2,12.53,12.53,0,0,0,8.82,2.55c11.54-2.27,15.64-5.33,15.64-5.33a9.52,9.52,0,0,0,8.12,5.49,13.48,13.48,0,0,0,10.84-3.88s-.05,2.87,2.39,3.88,4.09-4.7,4.09-4.7l4.09-11.32h.37s.21,7.38,4.25,8.54,9.3-2.72,9.3-2.72A2.72,2.72,0,0,0,127.28,72.53ZM13,73.58c.16-6.32,4.31-9.09,5.74-7.71s.9,4.36-1.81,6.22S13,73.58,13,73.58ZM66.9,49.08s3.77-9.83,4.68-5-7.92,19-7.92,19C63.76,59.87,66.9,49.08,66.9,49.08Zm4.52,27.37c-2.5,6.54-8.56,3.88-8.56,3.88s-.69-2.34,1.28-8.88,6.59-4,6.59-4S73.91,69.92,71.42,76.45Zm16.74-2.87s-.58-2.07,1.59-6.06,3.88-1.81,3.88-1.81,1.86,2-.27,5A6.26,6.26,0,0,1,88.16,73.58Z"/><text fill="#dd3f24" font-size="8.5px" font-family="MyriadPro-Regular, Myriad Pro" transform="translate(108.17 88.31)">®</text></g></svg>