<svg xmlns="http://www.w3.org/2000/svg" viewBox="0 0 128 128"><path fill="#8163eb" d="M2.79 59.373h4.789l-2.79 15.902H0zm.279-4.23c.26-1.538 1.72-2.883 3.3-2.883s2.651 1.302 2.419 2.882c-.233 1.581-1.72 2.883-3.348 2.883-1.627 0-2.623-1.398-2.371-2.883zM25.247 65.51l-1.72 9.764h-4.743l1.58-9.067c.358-2.048-.743-2.882-2.278-2.882-1.58 0-3.103.913-3.487 3.068l-1.58 8.88H8.276l2.79-15.9h4.789l-.233 1.487c1.07-1.209 2.883-1.97 4.696-1.952 3.209.03 5.674 2.371 4.929 6.602zm18.69 1.813c-.065.37-.232 1.255-.51 1.906H32.034c.279 1.767 1.767 2.232 3.255 2.232 1.348 0 2.417-.372 3.347-1.255l3.348 2.743c-1.86 1.86-4.045 2.79-6.974 2.79-5.487 0-8.358-3.95-7.58-8.695a9.642 9.642 0 0 1 9.532-8.09c4.557.007 7.839 3.53 6.975 8.37zm-4.51-1.72c-.139-1.767-1.394-2.45-2.882-2.464a4.16 4.16 0 0 0-3.86 2.464zm18.18-6.556-.93 5.393c-1.86-.279-4.873.374-5.44 3.627l-1.255 7.207h-4.743l2.79-15.902h4.789l-.511 2.883c.976-2.185 3.068-3.208 5.3-3.208zm6.463 10.554c-.261 1.437.93 1.535 3.068 1.349l-.744 4.324c-5.718.65-7.834-1.252-7.067-5.673l.977-5.626h-2.558l.837-4.603h2.511l.558-3.022 5.021-1.441-.79 4.463h3.301l-.837 4.603h-3.254zm8.136-10.229h4.79l-2.79 15.902h-4.79zm.28-4.23c.258-1.53 1.72-2.883 3.3-2.883s2.65 1.302 2.418 2.882-1.72 2.883-3.347 2.883-2.624-1.39-2.372-2.883zm24.27 4.23-2.79 15.902h-4.79l.187-1.07c-1.36 1.07-3.059 1.555-4.79 1.535-5.16-.06-7.089-4.46-6.276-8.788.768-4.087 3.999-7.997 8.927-7.997 2.092 0 3.58.837 4.464 2.139l.279-1.674h4.789zm-6.138 7.998c.423-2.417-.883-3.897-3.068-3.906-2.238-.01-4.08 1.647-4.417 3.86-.364 2.38.837 3.834 3.068 3.858 2.14.023 4.003-1.44 4.417-3.812zm29.385-7.626h-8.276l7.997 7.998-7.997 7.997h8.276L128 67.743zm-12.507 0H99.22l7.997 7.998-7.997 7.997h8.276l7.997-7.997z"/></svg>
