<svg xmlns="http://www.w3.org/2000/svg" viewBox="0 0 128 128"><path d="M86.758 70.89c-4.992 0-9.465 2.208-12.528 5.68l-7.851-5.547a21.275 21.275 0 001.312-7.32c0-2.531-.46-4.95-1.27-7.203l7.837-5.488c3.062 3.457 7.523 5.652 12.5 5.652 9.207 0 16.703-7.48 16.703-16.672 0-9.195-7.496-16.672-16.703-16.672-9.211 0-16.707 7.477-16.707 16.672 0 1.645.25 3.23.699 4.735l-7.84 5.488a21.578 21.578 0 00-13.36-7.746v-9.43c7.567-1.586 13.27-8.293 13.27-16.312C62.82 7.53 55.324.055 46.117.055c-9.21 0-16.707 7.476-16.707 16.672 0 7.91 5.555 14.539 12.969 16.238v9.547c-10.117 1.773-17.84 10.59-17.84 21.191 0 10.652 7.797 19.5 17.992 21.211V95c-7.492 1.64-13.12 8.309-13.12 16.273 0 9.196 7.495 16.672 16.706 16.672 9.207 0 16.703-7.476 16.703-16.672 0-7.964-5.629-14.632-13.117-16.273V84.914a21.592 21.592 0 0013.133-7.625l7.902 5.586a16.45 16.45 0 00-.687 4.688c0 9.195 7.496 16.671 16.707 16.671 9.207 0 16.703-7.476 16.703-16.671 0-9.196-7.496-16.672-16.703-16.672zm0-38.984c4.465 0 8.097 3.63 8.097 8.086 0 4.453-3.632 8.082-8.097 8.082-4.469 0-8.102-3.629-8.102-8.082 0-4.457 3.633-8.086 8.102-8.086zm-48.742-15.18c0-4.456 3.632-8.081 8.101-8.081 4.465 0 8.098 3.625 8.098 8.082 0 4.457-3.633 8.082-8.098 8.082-4.469 0-8.101-3.625-8.101-8.082zm16.199 94.547c0 4.457-3.633 8.082-8.098 8.082-4.469 0-8.101-3.625-8.101-8.082 0-4.457 3.632-8.082 8.101-8.082 4.465 0 8.098 3.625 8.098 8.082zm-8.102-36.296c-6.226 0-11.293-5.059-11.293-11.274 0-6.219 5.067-11.277 11.293-11.277 6.23 0 11.297 5.058 11.297 11.277 0 6.215-5.066 11.274-11.297 11.274zm40.645 20.668c-4.469 0-8.102-3.625-8.102-8.082 0-4.458 3.633-8.083 8.102-8.083 4.465 0 8.097 3.625 8.097 8.082 0 4.458-3.632 8.083-8.097 8.083zm0 0" fill="#231f20"/></svg>
