<svg xmlns="http://www.w3.org/2000/svg" viewBox="0 0 128 128"><path fill="#EE4C2C" d="M17.9,55.7l-1.7,1.7c2.7,2.7,2.7,7.2,0,9.9C13.5,70,9,70,6.4,67.2c-2.7-2.7-2.7-7.2,0-9.9l0,0l4.4-4.4l0.6-0.6 l0,0v-3.3l-6.6,6.6c-3.7,3.7-3.7,9.6,0,13.2s9.6,3.7,13.2,0C21.6,65.2,21.6,59.4,17.9,55.7z"/><circle fill="#EE4C2C" cx="14.6" cy="54.1" r="1.2"/><path fill="#EE4C2C" d="M34.9,64.1h-2.8v7.3h-2.1V50.7c0,0,4.9,0,5.2,0c5.4,0,8,2.7,8,6.4C43.2,61.7,40,64.1,34.9,64.1z M35.1,52.8 c-0.2,0-3,0-3,0v9.5l2.9-0.1c3.9-0.1,6-1.6,6-4.8C41.1,54.4,38.9,52.8,35.1,52.8z"/><path fill="#EE4C2C" d="M52.7,71.3l-1.2,3.3c-1.4,3.7-2.8,4.7-4.9,4.7c-1.1,0-2-0.3-2.9-0.7l0.6-1.9c0.7,0.4,1.5,0.7,2.3,0.7c1.1,0,2-0.6,3.1-3.5 l1-2.7l-5.9-14.9H47l4.7,12.5l4.7-12.5h2.1L52.7,71.3z"/><path fill="#EE4C2C" d="M65.5,52.8v18.7h-2.1V52.8h-7.3v-2h16.6v2C72.7,52.8,65.5,52.8,65.5,52.8z"/><path fill="#EE4C2C" d="M78.8,71.8c-4.2,0-7.3-3.1-7.3-7.9s3.2-8,7.5-8c4.3,0,7.3,3.1,7.3,7.9C86.2,68.6,83,71.8,78.8,71.8z M78.8,57.8 c-3.2,0-5.3,2.5-5.3,6.1c0,3.7,2.1,6.2,5.3,6.2s5.3-2.5,5.3-6.1C84.2,60.2,82.1,57.8,78.8,57.8z"/><path fill="#EE4C2C" d="M91.4,71.4h-2.1V56.3l2.1-0.5V59c1-1.9,2.4-3.2,4.4-3.2c1,0,1.9,0.3,2.7,0.7l-0.5,1.9c-0.7-0.4-1.5-0.7-2.3-0.7 c-1.6,0-3.1,1.2-4.3,3.9V71.4L91.4,71.4z"/><path fill="#EE4C2C" d="M106.5,71.8c-4.6,0-7.4-3.3-7.4-7.9c0-4.7,3.1-8,7.4-8c1.8,0,3.4,0.5,4.7,1.3l-0.5,1.8c-1.1-0.8-2.6-1.2-4.2-1.2 c-3.3,0-5.3,2.4-5.3,6c0,3.7,2.1,6.1,5.3,6.1c1.5,0,3.1-0.5,4.2-1.2l0.5,1.9C109.9,71.3,108.3,71.8,106.5,71.8z"/><path fill="#EE4C2C" d="M123.9,71.4v-9.8c0-2.7-1.1-3.8-3.2-3.8c-1.8,0-3.4,0.9-4.7,2.1v11.5h-2.1V49.2l2.1-0.5c0,0,0,9.5,0,9.6 c1.6-1.6,3.6-2.4,5.3-2.4c2.9,0,4.7,1.9,4.7,5.2v10.3L123.9,71.4L123.9,71.4z"/></svg>
