<svg xmlns="http://www.w3.org/2000/svg" viewBox="0 0 128 128"><path fill="#254c63" d="m63.493 122.422-12.128-22.217 19.109-12.32z"/><path fill="#265c7d" d="m59.573 67.892-8.208 32.313 19.1-12.288z"/><path fill="#3788b7" d="m51.365 100.205-12.81-23.631 21.018-8.682Z"/><path fill="#1e4c66" d="m43.76 38.723-5.205 37.85 21.018-8.681z"/><path fill="#3e9dd7" d="M76.46 52.827 63.926 75.893l6.54 12.024z"/><path fill="#2d709a" d="M38.555 76.574 25.737 53.04l18.022-14.317z"/><path fill="#28495c" d="m88.662 76.83-16.303.013 29.616-24.073z"/><path fill="#3c97ce" d="M38.583 29.182 25.737 53.04l18.022-14.317z"/><path fill="#61b7eb" d="m89.425 29.337-12.964 23.49-4.102 24.016z"/><path fill="#1e4c66" d="m25.737 53.04-3.478-6.34 16.324-17.518z"/><path fill="#296589" d="m72.359 76.843 17.066-47.506 12.55 23.433z"/><path fill="#1a5a81" d="M25.675 5.578 22.259 46.7l16.324-17.518z"/><path fill="#427b9e" d="m102.433 5.578-13.008 23.76 12.55 23.432z"/><path fill="#328cc2" d="M22.26 46.7 0 5.578h25.675z"/><path fill="#183b4f" d="m101.975 52.77.458-47.192H128z"/><path fill="#0d3044" d="m63.493 122.422 8.866-45.58 16.303-.013Z"/></svg>
