<?xml version="1.0" encoding="UTF-8" standalone="no"?>
<!DOCTYPE svg PUBLIC "-//W3C//DTD SVG 1.1//EN" "http://www.w3.org/Graphics/SVG/1.1/DTD/svg11.dtd">
<svg width="100%" height="100%" viewBox="0 0 534 534" version="1.1" xmlns="http://www.w3.org/2000/svg" xmlns:xlink="http://www.w3.org/1999/xlink" xml:space="preserve" xmlns:serif="http://www.serif.com/" style="fill-rule:evenodd;clip-rule:evenodd;stroke-linejoin:round;stroke-miterlimit:2;">
    <g id="Plain" transform="matrix(1.41901,0,0,1.16831,0,-7.10543e-15)">
        <path d="M187.925,0C291.643,0 375.849,102.276 375.849,228.25C375.849,354.225 291.643,456.501 187.925,456.501C84.206,456.501 0,354.225 0,228.25C0,102.276 84.206,0 187.925,0ZM187.706,352.059L187.64,352.106L187.773,352.106L187.706,352.059ZM187.706,352.059C351.807,237.188 274.111,144.868 236.901,134.043C211.974,126.797 195.722,145.729 187.707,159.022C179.692,145.729 163.439,126.797 138.511,134.043C101.305,144.864 23.603,237.188 187.706,352.059Z" style="fill:white;"/>
    </g>
</svg>
