<svg xmlns="http://www.w3.org/2000/svg" viewBox="0 0 128 128"><path fill="#e74a99" d="M106.23 15.595c-.016-.015-.034-.025-.05-.04C86.066-1.712 57.648-4.776 34.131 7.233 10.63 19.235-2.749 46 .476 71.94c2.252 18.127 12.359 34.022 26.796 44.235 0 0 39.797-35.537 50.365-48.148 9.912-11.837 31.554-49.638 31.554-49.638a62.743 62.743 0 0 0-2.962-2.793z"/><path fill="#27aae1" fill-rule="nonzero" d="M27.273 116.174a64.99 64.99 0 0 0 22.37 10.161c25.488 6.103 52.97-4.98 67.55-26.586 17.185-25.473 13.406-59.878-8.001-81.36L68.444 67.03a569939.128 569939.128 0 0 0-41.171 49.143z"/><path fill="#fff" fill-rule="nonzero" d="M66.05 47.945s-6.1-13.346-18.796-10.309C34.559 40.675 8.045 66.604 64.059 98.863h-.045c56.013-32.26 29.502-58.187 16.806-61.227C68.123 34.6 62.024 47.945 62.024 47.945Z"/></svg>
