<svg fill="#000" height="128" width="117.357" viewBox="670.088 32.462 104.409 170.23"
  xmlns="http://www.w3.org/2000/svg">
  <path
    d="M81.72 0c-6.488 0-14.982 4.624-23.572 12.646C49.56 4.672 41.063.096 34.574.096v.023c-1.982 0-3.775.426-5.332 1.322-6.631 3.822-8.118 15.737-4.697 30.698C9.868 36.669.312 43.916.312 51.56c0 7.67 9.604 14.937 24.329 19.443-3.4 15.008-1.887 26.947 4.767 30.77 1.534.896 3.327 1.32 5.309 1.32 6.489 0 14.984-4.624 23.572-12.647C66.88 98.423 75.372 103 81.861 103c1.982 0 3.777-.423 5.334-1.32 6.63-3.823 8.117-15.74 4.696-30.7 14.63-4.507 24.187-11.774 24.187-19.42v-.001c0-7.669-9.604-14.937-24.328-19.444 3.398-15.007 1.887-26.947-4.768-30.77C85.455.454 83.67.03 81.721.026V0zm-.023 5.264v.021c1.085 0 1.959.214 2.69.615 3.209 1.84 4.601 8.848 3.515 17.862-.26 2.218-.684 4.554-1.203 6.937-4.625-1.133-9.674-2.005-14.982-2.57-3.186-4.366-6.49-8.332-9.817-11.8 7.681-7.14 14.89-11.054 19.797-11.065zm-47.12.093c4.884.001 12.126 3.895 19.818 10.997a111.454 111.454 0 0 0-9.745 11.775c-5.333.565-10.382 1.437-15.007 2.594a71.178 71.178 0 0 1-1.227-6.842c-1.108-9.014.26-16.023 3.445-17.887.708-.425 1.629-.613 2.715-.613v-.024zM58.124 20.06c2.194 2.264 4.388 4.79 6.559 7.55a145.519 145.519 0 0 0-6.489-.166c-2.218 0-4.413.048-6.56.166a92.143 92.143 0 0 1 6.49-7.55zm.07 12.67c3.564 0 7.126.166 10.617.449a129.952 129.952 0 0 1 5.711 8.967c1.794 3.09 3.421 6.228 4.909 9.39a132.06 132.06 0 0 1-4.885 9.414c-1.84 3.187-3.729 6.207-5.688 9.016-3.516.306-7.077.472-10.664.472-3.563 0-7.127-.165-10.619-.449a129.976 129.976 0 0 1-5.71-8.967 122.99 122.99 0 0 1-4.909-9.392 122.636 122.636 0 0 1 4.885-9.414c1.84-3.186 3.729-6.205 5.687-9.014 3.516-.307 7.08-.472 10.666-.472zm-17.533 1.226c-1.156 1.817-2.311 3.682-3.396 5.594a133.99 133.99 0 0 0-3.069 5.662 101.031 101.031 0 0 1-3.256-9.39c3.09-.732 6.346-1.37 9.721-1.866zm35.018 0c3.351.496 6.582 1.11 9.674 1.865-.873 3.044-1.958 6.182-3.186 9.32a111.613 111.613 0 0 0-3.09-5.661c-1.086-1.888-2.242-3.73-3.398-5.524zm14.771 3.258a74.796 74.796 0 0 1 6.631 2.406c8.353 3.563 13.756 8.235 13.756 11.94-.023 3.704-5.426 8.4-13.78 11.941v-.002c-2.028.874-4.248 1.653-6.537 2.385-1.344-4.625-3.114-9.439-5.308-14.371 2.17-4.908 3.918-9.697 5.238-14.3zm-64.607.023c1.344 4.625 3.114 9.438 5.308 14.37-2.17 4.908-3.918 9.698-5.238 14.3a71.717 71.717 0 0 1-6.607-2.408C10.953 59.935 5.55 55.264 5.55 51.558c0-3.703 5.402-8.399 13.756-11.939 2.03-.873 4.248-1.651 6.537-2.383zm32.332 3.34c-5.905 0-10.692 4.828-10.692 10.783 0 5.956 4.787 10.784 10.692 10.784s10.691-4.828 10.691-10.784c0-5.955-4.786-10.783-10.691-10.783zm23.992 17.307a101.21 101.21 0 0 1 3.258 9.392 105.913 105.913 0 0 1-9.723 1.887c1.157-1.817 2.312-3.68 3.399-5.592a133.775 133.775 0 0 0 3.066-5.687zm-47.97.094a111.992 111.992 0 0 0 3.09 5.664 156.583 156.583 0 0 0 3.398 5.521c-3.35-.495-6.583-1.11-9.674-1.865.873-3.044 1.958-6.182 3.185-9.32zM86.745 72.37c.543 2.384.97 4.673 1.229 6.867 1.108 9.014-.26 16.023-3.446 17.887-.708.425-1.628.613-2.715.613-4.883 0-12.128-3.893-19.82-10.996a111.424 111.424 0 0 0 9.746-11.775c5.333-.566 10.381-1.44 15.006-2.596zm-57.057.047c4.625 1.133 9.675 2.006 14.985 2.572 3.185 4.365 6.489 8.331 9.816 11.8-7.692 7.15-14.914 11.065-19.822 11.065-1.062-.023-1.958-.235-2.666-.636-3.21-1.841-4.602-8.849-3.516-17.864.26-2.217.685-4.553 1.203-6.937zm21.993 3.092c2.124.094 4.294.166 6.488.166 2.218 0 4.413-.048 6.56-.166a92.153 92.153 0 0 1-6.488 7.55c-2.195-2.265-4.39-4.79-6.56-7.55zm42.09 36.719c-.372 0-.654.108-.846.324a1.17 1.17 0 0 0-.28.79c0 .313.094.572.28.78.192.208.474.313.845.313.372 0 .654-.105.846-.313.193-.208.29-.467.29-.78 0-.311-.097-.575-.29-.79-.192-.216-.474-.324-.846-.324zM.5 112.438v15.154h1.992v-6.131h3.53l3.261 6.13h2.125v-.124l-3.53-6.432c.902-.347 1.604-.871 2.106-1.572.51-.701.764-1.523.764-2.467 0-1.485-.458-2.616-1.373-3.392-.908-.778-2.208-1.166-3.9-1.166H.5zm58.957 0v15.154h1.992v-11.678l7.565 11.678h1.992v-15.154h-1.97v11.73l-7.587-11.73h-1.992zm-11.773 1.166v2.726h-2.036v1.488h2.036v6.985c0 .957.215 1.696.648 2.217.434.52 1.077.78 1.93.78.475 0 .964-.07 1.467-.208v-1.56c-.386.083-.689.124-.909.124-.447 0-.763-.112-.949-.334-.186-.229-.28-.568-.28-1.02v-6.984h2.085v-1.488h-2.084v-2.726h-1.908zm38.718 0v2.726H84.37v1.488h2.033v6.985c0 .957.218 1.696.65 2.217.434.52 1.078.78 1.93.78.475 0 .964-.07 1.467-.208v-1.56c-.385.083-.688.124-.908.124-.447 0-.765-.112-.951-.334-.186-.229-.278-.568-.278-1.02v-6.984h2.084v-1.488h-2.084v-2.726h-1.91zm-83.91.478h3.033c1.046.007 1.845.26 2.395.76.557.5.836 1.218.836 2.154 0 .86-.292 1.547-.877 2.06-.578.514-1.36.772-2.344.772H2.492v-5.746zm15.139 2.04c-.888 0-1.713.25-2.477.75-.756.491-1.349 1.18-1.775 2.062-.42.874-.629 1.869-.629 2.986v.353c0 1.68.474 3.022 1.424 4.028.95 1 2.181 1.5 3.695 1.5 1.871 0 3.273-.726 4.21-2.176l-1.167-.916c-.35.458-.76.826-1.228 1.103-.468.278-1.039.417-1.713.417-.95 0-1.733-.34-2.352-1.02-.612-.687-.933-1.585-.96-2.695h7.564v-.803c0-1.797-.402-3.178-1.207-4.143-.805-.964-1.933-1.447-3.385-1.447zm11.156 0c-.812 0-1.559.153-2.24.458-.674.306-1.21.721-1.61 1.248-.391.52-.587 1.063-.587 1.625h1.92c0-.493.23-.913.69-1.26.462-.347 1.033-.52 1.714-.52.777 0 1.364.202 1.764.604.398.396.6.929.6 1.602v.885H29.18c-1.603 0-2.85.325-3.737.978-.88.645-1.32 1.556-1.32 2.729 0 .964.351 1.76 1.053 2.392.709.625 1.612.938 2.713.938 1.231 0 2.292-.465 3.18-1.395.068.57.157.964.267 1.186h2.002v-.166c-.262-.61-.393-1.433-.393-2.467v-5.184c-.027-1.137-.405-2.028-1.134-2.673-.73-.653-1.737-.98-3.024-.98zm11.62 0c-1.019 0-1.901.236-2.651.708-.744.472-1.316 1.135-1.715 1.988-.4.854-.598 1.828-.598 2.924v.322c0 1.777.448 3.18 1.342 4.207.902 1.02 2.113 1.53 3.633 1.53.757 0 1.472-.175 2.146-.522a4.347 4.347 0 0 0 1.631-1.394c.406-.583.626-1.197.66-1.842H43.05c-.055.625-.337 1.144-.846 1.56a2.735 2.735 0 0 1-1.785.626c-.984 0-1.742-.35-2.272-1.051-.529-.701-.794-1.7-.794-2.998v-.364c0-1.332.265-2.35.794-3.05.537-.708 1.29-1.06 2.26-1.06.723 0 1.329.234 1.817.706.495.465.77 1.062.826 1.791h1.806c-.055-1.207-.5-2.19-1.332-2.945-.825-.757-1.864-1.137-3.117-1.137zm38.163 0c-.812 0-1.559.153-2.24.458-.674.306-1.21.721-1.61 1.248-.391.52-.587 1.063-.587 1.625h1.92c0-.493.23-.913.691-1.26.461-.347 1.032-.52 1.713-.52.777 0 1.365.202 1.764.604.399.396.6.929.6 1.602v.885h-1.858c-1.603 0-2.85.325-3.736.978-.881.645-1.32 1.556-1.32 2.729 0 .964.35 1.76 1.052 2.392.708.625 1.612.938 2.713.938 1.231 0 2.292-.465 3.18-1.395.068.57.157.964.267 1.186h2.002v-.166c-.261-.61-.392-1.433-.392-2.467v-5.184c-.028-1.137-.406-2.028-1.135-2.673-.73-.653-1.737-.98-3.024-.98zm33.694 0c-.888 0-1.713.25-2.477.75-.757.491-1.349 1.18-1.775 2.062-.42.874-.63 1.869-.63 2.986v.353c0 1.68.475 3.022 1.425 4.028.95 1 2.181 1.5 3.695 1.5 1.871 0 3.275-.726 4.21-2.176l-1.165-.916c-.351.458-.76.826-1.229 1.103-.467.278-1.038.417-1.713.417-.949 0-1.734-.34-2.353-1.02-.613-.687-.931-1.585-.959-2.695h7.564v-.803c0-1.797-.402-3.178-1.207-4.143-.805-.964-1.935-1.447-3.386-1.447zm-19.463.208v11.262h1.91V116.33H92.8zm3.87 0 4.046 11.262h1.455l4.004-11.262h-1.951l-2.766 8.65-2.838-8.65h-1.95zm-79.04 1.375c.798 0 1.43.27 1.898.81.468.535.73 1.292.785 2.27v.147h-5.593c.124-1.02.448-1.813.97-2.375a2.527 2.527 0 0 1 1.94-.852zm94.633 0c.798 0 1.432.27 1.9.81.468.535.728 1.292.783 2.27v.147h-5.592c.124-1.02.446-1.813.97-2.375a2.527 2.527 0 0 1 1.939-.852zm-82.725 4.424h1.498v2.31c-.241.5-.63.905-1.166 1.217a3.335 3.335 0 0 1-1.703.469c-.626 0-1.14-.17-1.54-.51-.398-.34-.597-.812-.597-1.416 0-1.38 1.17-2.07 3.508-2.07zm49.785 0h1.496v2.31c-.24.5-.63.905-1.166 1.217a3.335 3.335 0 0 1-1.703.469c-.626 0-1.14-.17-1.539-.51-.399-.34-.598-.812-.598-1.416 0-1.38 1.171-2.07 3.51-2.07z"
    transform="translate(644.255 32.462) scale(1.32992)" />
</svg>
