<svg xmlns="http://www.w3.org/2000/svg" viewBox="0 0 128 128"><path fill="#61dafb" d="M87.043 0c-6.49 0-14.985 4.626-23.574 12.649C54.879 4.673 46.385.094 39.896.094v.023c-1.982 0-3.776.426-5.334 1.323-6.63 3.822-8.116 15.739-4.695 30.699-14.677 4.53-24.234 11.775-24.234 19.42 0 7.67 9.604 14.936 24.328 19.442-3.398 15.008-1.887 26.947 4.768 30.77 1.533.896 3.326 1.322 5.308 1.322 6.49 0 14.985-4.626 23.574-12.648C72.201 98.42 80.695 103 87.184 103c1.98 0 3.774-.425 5.332-1.322 6.63-3.823 8.117-15.74 4.695-30.7 14.63-4.506 24.187-11.773 24.187-19.42 0-7.667-9.603-14.935-24.328-19.442 3.398-15.007 1.887-26.946-4.767-30.769C90.776.453 88.99.029 87.043.026Zm-.025 5.264v.021c1.085 0 1.96.213 2.69.614 3.21 1.84 4.602 8.85 3.517 17.863-.26 2.218-.684 4.554-1.204 6.937-4.625-1.132-9.675-2.005-14.984-2.572-3.185-4.365-6.49-8.33-9.816-11.8C74.901 9.192 82.11 5.279 87.018 5.265Zm-47.122.092c4.885 0 12.128 3.893 19.82 10.996a111.464 111.464 0 0 0-9.745 11.775c-5.333.567-10.38 1.44-15.006 2.596a71.207 71.207 0 0 1-1.229-6.844c-1.108-9.014.26-16.02 3.446-17.885.707-.424 1.63-.613 2.714-.613Zm23.55 14.7a97.245 97.245 0 0 1 6.56 7.552 146.124 146.124 0 0 0-6.49-.164c-2.219 0-4.412.046-6.559.164a92.142 92.142 0 0 1 6.488-7.551zm.07 12.673c3.563 0 7.127.166 10.619.449a129.947 129.947 0 0 1 5.71 8.967 122.88 122.88 0 0 1 4.909 9.39 132.039 132.039 0 0 1-4.885 9.414c-1.84 3.185-3.73 6.207-5.687 9.015-3.517.307-7.08.47-10.666.47-3.564 0-7.126-.163-10.618-.446a129.968 129.968 0 0 1-5.71-8.966 123.017 123.017 0 0 1-4.909-9.393 122.827 122.827 0 0 1 4.885-9.414c1.84-3.185 3.727-6.206 5.686-9.014a122.779 122.779 0 0 1 10.666-.472zm-17.534 1.226c-1.156 1.817-2.31 3.68-3.396 5.592a134.016 134.016 0 0 0-3.068 5.664 101.03 101.03 0 0 1-3.256-9.39c3.09-.732 6.346-1.37 9.72-1.866zm35.02 0c3.35.496 6.582 1.11 9.674 1.866-.874 3.044-1.96 6.18-3.186 9.32a111.667 111.667 0 0 0-3.092-5.664c-1.085-1.888-2.24-3.728-3.396-5.522Zm14.77 3.258a74.843 74.843 0 0 1 6.632 2.406c8.353 3.563 13.756 8.235 13.756 11.94-.024 3.705-5.428 8.4-13.781 11.94-2.03.872-4.246 1.652-6.535 2.383-1.345-4.624-3.116-9.44-5.31-14.37 2.17-4.908 3.916-9.697 5.237-14.3zm-64.608.024c1.345 4.624 3.116 9.437 5.31 14.369-2.17 4.908-3.917 9.699-5.238 14.3a71.77 71.77 0 0 1-6.607-2.408c-8.353-3.563-13.758-8.234-13.758-11.94 0-3.704 5.405-8.4 13.758-11.94 2.03-.872 4.246-1.65 6.535-2.381zm32.328 3.539c-5.955 0-10.783 4.827-10.783 10.783 0 5.956 4.828 10.783 10.783 10.783 5.956 0 10.783-4.827 10.783-10.783 0-5.956-4.827-10.783-10.783-10.783zM87.49 57.883a101.21 101.21 0 0 1 3.256 9.39 105.882 105.882 0 0 1-9.72 1.89 130.649 130.649 0 0 0 3.396-5.594 133.785 133.785 0 0 0 3.068-5.686zm-47.972.094a112.03 112.03 0 0 0 3.091 5.664 156.557 156.557 0 0 0 3.4 5.52c-3.35-.495-6.586-1.11-9.677-1.865.873-3.044 1.96-6.181 3.186-9.32zm52.55 14.393c.543 2.384.967 4.673 1.227 6.868 1.108 9.013-.26 16.02-3.445 17.884-.708.425-1.627.616-2.713.616-4.885 0-12.13-3.894-19.823-10.997a111.433 111.433 0 0 0 9.747-11.775c5.332-.566 10.383-1.44 15.007-2.596zm-57.056.047c4.625 1.133 9.673 2.006 14.982 2.572 3.185 4.366 6.49 8.33 9.817 11.8-7.693 7.15-14.913 11.066-19.82 11.066-1.062-.024-1.959-.236-2.667-.637-3.209-1.84-4.6-8.849-3.515-17.863.26-2.218.683-4.554 1.203-6.938zm21.992 3.092c2.124.094 4.294.164 6.488.164 2.218 0 4.413-.046 6.56-.164a92.152 92.152 0 0 1-6.49 7.55c-2.194-2.265-4.387-4.79-6.558-7.55zm42.39 36.918c-.374 0-.66.11-.853.324-.187.215-.281.48-.281.791 0 .313.094.571.28.78.195.207.48.312.855.312s.659-.105.853-.312a1.1 1.1 0 0 0 .29-.78c0-.312-.096-.576-.29-.79-.194-.216-.48-.325-.853-.325zm-94.072.21v15.153H7.33v-6.13h3.56l3.29 6.13h2.144v-.125l-3.56-6.431c.91-.347 1.616-.872 2.123-1.573.513-.7.77-1.522.77-2.466 0-1.485-.46-2.616-1.384-3.393-.915-.777-2.228-1.166-3.935-1.166zm59.463 0v15.153h2.01v-11.677l7.629 11.677h2.01v-15.153h-1.99v11.73l-7.649-11.73zm-11.875 1.165v2.727h-2.05v1.488h2.05v6.984c0 .958.218 1.697.654 2.217.438.52 1.088.781 1.948.781.48 0 .972-.07 1.478-.209v-1.56c-.388.083-.694.125-.916.125-.45 0-.77-.112-.957-.334-.187-.23-.28-.569-.28-1.02v-6.984h2.1v-1.488h-2.1v-2.727zm39.053 0v2.727h-2.051v1.488h2.05v6.984c0 .958.22 1.697.656 2.217.438.52 1.085.781 1.945.781.48 0 .972-.07 1.479-.209v-1.56c-.39.083-.694.125-.916.125-.451 0-.77-.112-.957-.334-.187-.23-.281-.569-.281-1.02v-6.984h2.1v-1.488h-2.1v-2.727zm-84.633.48h3.06c1.055.005 1.86.26 2.415.76.562.498.843 1.216.843 2.153 0 .86-.295 1.547-.884 2.06-.583.514-1.37.772-2.364.772H7.33Zm15.27 2.038c-.896 0-1.728.25-2.498.75-.764.492-1.36 1.18-1.79 2.062-.425.874-.636 1.87-.636 2.986v.354c0 1.679.48 3.021 1.437 4.027.958 1 2.2 1.5 3.727 1.5 1.887 0 3.302-.726 4.246-2.176l-1.176-.916a4.345 4.345 0 0 1-1.24 1.104c-.472.278-1.047.416-1.727.416-.957 0-1.748-.34-2.373-1.02-.617-.687-.94-1.584-.968-2.695h7.628v-.803c0-1.797-.404-3.178-1.216-4.142-.812-.965-1.95-1.447-3.414-1.447zm11.252 0a5.5 5.5 0 0 0-2.258.46c-.68.304-1.223.72-1.625 1.247-.395.52-.594 1.063-.594 1.625h1.937c0-.493.233-.913.698-1.26.465-.347 1.04-.52 1.726-.52.784 0 1.38.201 1.782.604.402.395.603.928.603 1.601v.885h-1.875c-1.617 0-2.873.326-3.768.979-.888.645-1.332 1.556-1.332 2.728 0 .965.355 1.761 1.063 2.393.715.625 1.626.937 2.736.937 1.242 0 2.312-.465 3.207-1.394.07.57.16.963.27 1.185h2.02v-.166c-.264-.61-.395-1.432-.395-2.467v-5.183c-.028-1.138-.41-2.029-1.147-2.674-.735-.653-1.75-.98-3.048-.98zm11.718 0c-1.026 0-1.917.236-2.674.71-.75.47-1.325 1.133-1.728 1.987-.403.853-.604 1.827-.604 2.924v.322c0 1.777.452 3.18 1.354 4.207.91 1.02 2.13 1.53 3.664 1.53.764 0 1.484-.175 2.164-.522a4.373 4.373 0 0 0 1.645-1.395c.41-.583.633-1.196.668-1.842h-1.823c-.055.625-.34 1.145-.853 1.561a2.774 2.774 0 0 1-1.8.625c-.993 0-1.757-.35-2.292-1.05-.534-.701-.8-1.701-.8-2.999v-.363c0-1.332.266-2.35.8-3.05.541-.709 1.301-1.06 2.28-1.06.728 0 1.34.234 1.831.706.5.464.78 1.062.834 1.79h1.823c-.056-1.207-.505-2.189-1.344-2.945-.833-.756-1.882-1.136-3.145-1.136zm38.492 0a5.5 5.5 0 0 0-2.257.46c-.68.304-1.223.72-1.625 1.247-.396.52-.592 1.063-.592 1.625h1.935c0-.493.233-.913.698-1.26.465-.347 1.04-.52 1.726-.52.784 0 1.38.201 1.782.604.402.395.603.928.603 1.601v.885h-1.873c-1.617 0-2.875.326-3.77.979-.888.645-1.332 1.556-1.332 2.728 0 .965.355 1.761 1.063 2.393.714.625 1.626.937 2.736.937 1.242 0 2.312-.465 3.207-1.394.07.57.158.963.27 1.185h2.02v-.166c-.264-.61-.395-1.432-.395-2.467v-5.183c-.028-1.138-.411-2.029-1.147-2.674-.735-.653-1.751-.98-3.05-.98zm33.985 0a4.5 4.5 0 0 0-2.498.75c-.764.492-1.361 1.18-1.791 2.062-.423.874-.635 1.87-.635 2.986v.354c0 1.679.48 3.021 1.438 4.027.957 1 2.198 1.5 3.724 1.5 1.888 0 3.304-.726 4.248-2.176l-1.176-.916a4.351 4.351 0 0 1-1.24 1.104c-.472.278-1.046.416-1.726.416-.958 0-1.75-.34-2.373-1.02-.618-.687-.941-1.584-.97-2.695h7.63v-.803c0-1.797-.406-3.178-1.217-4.142-.812-.965-1.95-1.447-3.414-1.447zm-19.631.21v11.26h1.926v-11.26zm3.904 0 4.078 11.26h1.47l4.038-11.26h-1.97l-2.788 8.649-2.86-8.65zm-79.72 1.374c.804 0 1.443.27 1.916.81.471.535.735 1.291.79 2.27v.146h-5.642c.125-1.02.451-1.812.98-2.375a2.56 2.56 0 0 1 1.956-.85zm95.447 0c.805 0 1.442.27 1.914.81.472.535.736 1.291.79 2.27v.146h-5.64c.125-1.02.45-1.812.979-2.375a2.56 2.56 0 0 1 1.957-.85zm-83.436 4.423h1.51v2.31c-.243.5-.635.905-1.176 1.218a3.389 3.389 0 0 1-1.718.468c-.632 0-1.149-.17-1.55-.51-.403-.34-.605-.812-.605-1.415 0-1.381 1.18-2.07 3.54-2.07zm50.21 0h1.51v2.31c-.242.5-.634.905-1.175 1.218a3.389 3.389 0 0 1-1.72.468c-.63 0-1.147-.17-1.55-.51-.401-.34-.603-.812-.603-1.415 0-1.381 1.18-2.07 3.54-2.07z"/></svg>
