<svg id="Devicon" xmlns="http://www.w3.org/2000/svg" viewBox="0 0 128 128"><defs><style>.cls-1{fill:#d43d44;}</style></defs><title>Artboard 15</title><g id="plain-wordmark"><path class="cls-1" d="M17.73,61.51l12.49,3.1c2.17-.85,3.48-1.93,3.48-3.1v-5c0-2.75-7.15-5-16-5s-16,2.23-16,5v5c0,2.75,7.15,5,16,5v-5Z"/><path class="cls-1" d="M30.23,69.6,17.74,66.5v5l12.49,3.11c2.17-.85,3.48-1.93,3.48-3.11v-5C33.71,67.67,32.4,68.75,30.23,69.6Z"/><path class="cls-1" d="M1.77,66.5v5c0,2.75,7.15,5,16,5v-5C8.92,71.48,1.77,69.25,1.77,66.5Z"/><path class="cls-1" d="M47.42,71a6.69,6.69,0,0,1-6.8-6.82v0a6.74,6.74,0,0,1,6.91-6.85,6.84,6.84,0,0,1,5.22,2L50.9,61.5A4.89,4.89,0,0,0,47.51,60a3.93,3.93,0,0,0-3.84,4.13v0a3.93,3.93,0,0,0,3.84,4.16A4.78,4.78,0,0,0,51,66.78l1.86,1.87A6.76,6.76,0,0,1,47.42,71Z"/><path class="cls-1" d="M60.82,70.8V69.7A3.89,3.89,0,0,1,57.75,71c-1.91,0-3.48-1.1-3.48-3.11v0c0-2.22,1.68-3.24,4.09-3.24a7.19,7.19,0,0,1,2.48.42v-.17c0-1.19-.74-1.86-2.18-1.86a7.46,7.46,0,0,0-2.8.55l-.72-2.2a9,9,0,0,1,3.94-.82c3.14,0,4.52,1.63,4.52,4.38V70.8H60.82Zm.06-4.09A4.42,4.42,0,0,0,59,66.33c-1.23,0-2,.49-2,1.4v0c0,.78.64,1.23,1.57,1.23,1.34,0,2.25-.73,2.25-1.78Z"/><path class="cls-1" d="M72.61,70.8,70,66.65l-1,1.06V70.8H66.08V57H69v7.37l3.37-3.69h3.44l-3.86,4,4,6.15H72.61Z"/><path class="cls-1" d="M86.24,66.73H79.18a2.35,2.35,0,0,0,2.48,2,3.33,3.33,0,0,0,2.46-1l1.65,1.46a5.36,5.36,0,0,1-9.45-3.35v0a5.05,5.05,0,0,1,5-5.28c3.39,0,4.94,2.63,4.94,5.51v0C86.27,66.29,86.26,66.46,86.24,66.73Zm-4.9-4a2.26,2.26,0,0,0-2.2,2.16h4.34A2.17,2.17,0,0,0,81.33,62.77Z"/><path class="cls-1" d="M93.85,66.82H91.63v4H88.72V57.54h5.41c3.16,0,5.07,1.87,5.07,4.58v0C99.2,65.23,96.82,66.82,93.85,66.82Zm2.4-4.64c0-1.31-.91-2-2.37-2H91.63v4.05h2.31a2.05,2.05,0,0,0,2.31-2v0Z"/><path class="cls-1" d="M109.65,70.8V65.47h-5.38V70.8h-2.91V57.54h2.91v5.24h5.38V57.54h2.92V70.8Z"/><path class="cls-1" d="M120.88,66.82h-2.21v4h-2.92V57.54h5.41c3.16,0,5.07,1.87,5.07,4.58v0C126.23,65.23,123.85,66.82,120.88,66.82Zm2.4-4.64c0-1.31-.91-2-2.37-2h-2.25v4.05H121a2.05,2.05,0,0,0,2.31-2v0Z"/></g></svg>