<svg xmlns="http://www.w3.org/2000/svg" viewBox="0 0 128 128"><path d="M22.398 41.547c-1.71.289-7.628 2.875-9.132 4.008-3.22 2.379-5.586 6.273-6.227 10.25-.191 1.101-.27 1.261-1.023 2.11-1.618 1.769-3.137 5.042-3.489 7.452-.222 1.5.016 2.653.961 4.79.352.75.832 1.917 1.086 2.57.707 1.804 1.7 3.195 4.387 6.097 1.086 1.2 2.559 2.031 4.879 2.781 1.633.524 4.305 1.165 4.894 1.18.145 0 .739.32 1.313.703 1.664 1.117 2.387 1.309 5.312 1.453 5.04.254 5.457.223 8.32-.609 4.114-1.21 5.856-2.203 8.688-4.965 2.192-2.12 3.313-3.926 4.016-6.449.16-.621.594-1.594.96-2.188 1.985-3.304 2.243-5.648 1.024-9.656-.91-3.05-2.176-5.636-4.32-8.812-1.695-2.555-3.168-4.137-4.957-5.348-1.57-1.055-4.656-2.812-4.961-2.812-.113 0-.207-.063-.207-.125 0-.082-.113-.082-.274-.036-.191.082-.222.051-.128-.109.082-.145.066-.176-.047-.098-.098.067-.739-.047-1.41-.254-.864-.238-1.133-.382-.926-.445.207-.082.047-.144-.496-.226-.45-.063-1.36-.286-2.047-.508-2.258-.703-4.723-1.008-6.196-.754Zm4.243 1.488c-.176.063-1.215.238-2.305.383-2.145.285-3.313.621-5.106 1.469-1.71.812-4.285 2.617-5.421 3.765-1.04 1.07-3.426 3.961-5.055 6.149-.531.734-.992 1.293-1.027 1.258-.032-.016.128-.524.351-1.118.418-1.101.516-1.851.242-1.851-.082 0-.222.129-.304.273-.094.16-.176.207-.176.125 0-.367 1.426-2.984 2.32-4.23 1.457-1.992 3.39-3.637 4.113-3.48.11.019.704-.301 1.293-.735 1.555-1.102 1.954-1.195 8.672-1.992 1.54-.192 2.817-.192 2.403-.016zm-3.121 1.102c-.75.238-1.727.62-2.192.86-1.55.8-4.672 3.32-7.281 5.89-.863.863-1.649 1.566-1.727 1.566-.367 0-.082-.367 1.168-1.516l1.313-1.23-1.106.734c-1.773 1.196-1.87.942-.27-.75 2.446-2.554 6.766-5.125 9.696-5.75 1.727-.382 1.902-.285.399.196zm8.496.43c1.136.335 2.8 1.18 4.382 2.234 1.457.957 2.305 1.691 2.051 1.773-.097.031-.992-.336-1.969-.832-.992-.496-1.746-.812-1.68-.719.192.32-.417.352-2.257.098-2.895-.398-5.184-.336-8.496.223-1.55.27-3.024.445-3.262.398-.305-.062-.738.047-1.441.414-.559.274-1.297.61-1.649.719l-.64.242.465-.512c.273-.289 1.023-.863 1.68-1.277.769-.512 1.09-.781.878-.781-.27-.016-.238-.082.211-.465.75-.637 1.918-1.246 2.926-1.516 1.297-.351 7.617-.351 8.8 0zm.351 2.937c3.57.687 5.344 1.547 7.41 3.59 2.285 2.27 3.84 4.84 4.817 8.031.383 1.277.43 1.629.43 4.184.015 4.726-.29 5.379-4.13 9.18-4.414 4.374-6.94 5.777-12.511 6.929-1.313.27-1.774.3-2.559.176-1.183-.192-1.23-.192-.543.078 2.254.863 7.824-.719 11.918-3.399.625-.418 2.258-1.855 3.664-3.226l2.528-2.473-.512 1.035c-2.016 4.024-5.313 7.137-9.168 8.72-1.79.718-4.238 1.308-5.633 1.355-2.125.078-6.637-.176-7.039-.368-.207-.113-.894-.671-1.535-1.246-1.871-1.644-2.176-1.945-1.871-1.851.16.047.656.129 1.12.176.735.097.622.03-.991-.528l-1.84-.637-1.442-1.515c-1.183-1.246-1.777-2.078-3.296-4.602-2.59-4.324-3.489-6.832-3.727-10.52-.098-1.452-.082-1.546.383-2.523.383-.828.863-1.386 2.45-2.902 3.07-2.938 3.503-3.273 6.03-4.504 2.785-1.34 4.575-2.059 6.399-2.523 3.808-.989 6.785-1.18 9.648-.637zm-21.023 6.32c-.29.32-.832.801-1.168 1.07l-.625.497.289-.45c.258-.382 1.777-1.675 1.984-1.691.047 0-.176.258-.48.574zM5.44 61.488c-.097.512-.16 1.965-.16 3.211 0 2.121.032 2.344.461 3.477.516 1.328 1.137 2.46 1.524 2.797.398.316.3.062-.532-1.5-.43-.801-.812-1.68-.879-1.934-.062-.305.114-.078.512.637.703 1.312 2.082 3.355 2.785 4.168.274.304.832.781 1.23 1.054a22.14 22.14 0 0 1 1.778 1.454c.559.511 1.23 1.054 1.488 1.195.305.176.786.879 1.442 2.078.59 1.102 1.344 2.219 1.918 2.84l.945 1.023h-.562c-1.153 0-3.68-.734-5.153-1.484-1.117-.559-2.91-1.852-3.758-2.7-.402-.398-1.074-1.324-1.503-2.058-.434-.734-1.235-2.11-1.793-3.05-1.262-2.09-1.551-3.114-1.551-5.477-.016-1.34.078-2.059.336-3 .336-1.184 1.457-3.848 1.566-3.735.031.032-.015.477-.094 1.004zm1.293 2.617c.356 2.653 1.204 4.95 2.692 7.313.445.719.781 1.309.734 1.309-.176 0-2.031-2.473-2.383-3.176-1.09-2.14-1.89-6.418-1.441-7.68.129-.367.144-.336.176.238.015.352.129 1.246.222 1.996zm41.664-1.468c.418 1.168.512 3.785.16 4.84-.32.988-.894 2.152-1.277 2.617-.258.304-.258.304-.16-.239.047-.304.16-2.187.238-4.168.082-1.98.192-3.718.258-3.863.145-.414.461-.082.781.813zm-44.46.527c-.243.895-.497 2.188-.672 3.563-.13 1.066-.387.652-.387-.641 0-1.04.32-2.316.832-3.305.418-.828.527-.652.227.383zm3.726 2.012c.113.258.414.992.672 1.644.258.657.543 1.34.61 1.516.238.527.495 1.39.495 1.644 0 .418-.546-.207-1.105-1.242-.48-.879-1.137-3.05-1.137-3.707 0-.43.242-.351.465.145zm37.473 7.328c-.16.512-.403 1.148-.543 1.422-.32.605-1.938 2.187-1.778 1.754.047-.176-.273.082-.718.574-.961 1.07-2.692 2.414-4.336 3.371-1.86 1.07-2.403 1.277-2.403.879.016-.274 1.2-1.137 3.055-2.203 3.25-1.887 4.563-3.051 6.066-5.446.48-.75.895-1.355.91-1.34.016.016-.093.462-.253.989zm.383 1.676c-.305.832-.926 1.933-1.282 2.218-.222.192-.238.16-.093-.207.382-.988 1.457-2.875 1.566-2.761.031.03-.063.367-.191.75zM26.8 82.05c1.774.192 1.887.223 1.438.4-.254.112-.972.241-1.597.288-.914.063-1.41 0-2.641-.351-.832-.239-1.55-.465-1.586-.496-.14-.13 2.516-.032 4.387.16zm0 0"/><path d="M19.809 78.586c.093.031.289.031.398 0 .098-.047.016-.078-.207-.078-.223 0-.305.031-.191.078zM31.648 43.145c.114.046.254.03.305-.016.063-.047-.031-.094-.21-.078-.177 0-.223.047-.095.094zM72.559 48.543c-.704.125-1.293.223-1.313.223-.031.015-.047 5.074-.047 11.27v11.273l1.809-.051 1.793-.047.047-5.7.03-5.698.626-.481c1.055-.844 2.016-1.18 3.09-1.102 1.101.083 1.664.434 2.125 1.344.304.574.32.989.37 6.176l.048 5.559 1.793-.051 1.789-.047V59.238l-.446-.976c-.546-1.18-1.503-2.153-2.593-2.633-1.215-.543-3.215-.512-4.48.082-.528.238-1.231.637-1.552.89-.32.274-.625.481-.671.481-.047 0-.114-1.965-.13-4.36l-.046-4.34-.48-.034c-.258 0-1.055.082-1.762.195zM119.441 50.887c-.53.082-1.043.242-1.152.336-.16.16-.848 3.879-.848 4.55 0 .094-.418.207-.93.27-.511.05-1.023.16-1.12.227-.16.093-.832 2.074-.832 2.44 0 .063.625.145 1.41.161l1.39.047.082 4.871c.063 4.293.11 4.95.383 5.555.352.812 1.313 1.676 2.16 1.914 1.391.418 3.97.113 4.817-.574.351-.286.351-.286.078-1.278-.352-1.246-.512-1.37-1.246-1.07-.899.367-1.586.305-2.047-.176l-.387-.414v-8.828l1.762-.047c1.152-.031 1.793-.113 1.871-.242.062-.11.129-.652.129-1.227 0-.574-.067-1.117-.129-1.23-.078-.129-.719-.207-1.871-.238l-1.762-.047-.047-2.477c-.03-2.41-.113-2.746-.593-2.7-.079.017-.59.099-1.118.177zM60.176 55.344c-2.016.347-3.649 1.515-4.367 3.093-.29.657-.368 1.086-.368 2.317 0 1.309.063 1.644.414 2.41a6.878 6.878 0 0 0 1.106 1.55l.672.638-.594.543c-.336.289-.703.75-.816 1.039-.461 1.101-.145 2.648.656 3.175l.418.27-.832.734c-1.953 1.696-2.113 4.168-.367 5.766 1.328 1.21 3.246 1.707 6.015 1.547 4.719-.285 7.489-2.426 7.489-5.793 0-2.7-1.555-3.625-6.48-3.914-3.235-.176-3.52-.223-3.84-.668-.352-.512-.29-.88.206-1.39.45-.43.496-.446 1.809-.368 3.023.176 5.375-.957 6.367-3.063.496-1.039.625-3.02.29-4.12-.243-.766-.243-.766.144-.926.222-.079.527-.145.687-.145.656 0 .832-.352.781-1.516-.046-1.054-.078-1.117-.445-1.164-.547-.082-1.441.207-2.176.7l-.625.433-.558-.336c-1.328-.75-3.86-1.133-5.586-.812zm3.183 2.886c.528.274.817.56 1.09 1.086.735 1.485.254 3.274-1.09 3.946-1.472.75-3.535.3-4.238-.91-.465-.817-.45-2.426.047-3.227.754-1.195 2.734-1.629 4.191-.895zm1.266 13.395c1.168.191 1.613.625 1.613 1.52 0 .843-.511 1.515-1.664 2.09-1.117.59-3.597.718-4.812.253-1.364-.508-1.907-1.82-1.235-3.047.543-1.007.977-1.152 3.235-1.054 1.101.047 2.383.16 2.863.238zM92.559 55.344c-2.223.332-4.368 1.883-5.313 3.847-.672 1.371-.894 2.473-.894 4.293.015 3.957 2.03 6.848 5.41 7.743 1.199.32 3.695.289 4.863-.079 2.496-.77 4.207-2.62 4.895-5.238.304-1.18.304-3.863 0-5.043-.48-1.87-1.793-3.707-3.297-4.633-1.278-.78-3.825-1.18-5.664-.89zm3.28 3.207c1.391.703 2.083 2.347 2.083 4.918 0 3.32-1.348 5.11-3.824 5.11-1.41 0-2.32-.45-3.008-1.485-.676-1.008-.899-2.203-.817-4.266.141-3.207 1.293-4.613 3.805-4.629.785 0 1.234.098 1.762.352zM107.586 55.324c-1.074.16-2.563.848-3.25 1.489-1.297 1.226-1.695 3.48-.91 5.14.62 1.34 1.484 1.93 4.176 2.793 1.933.621 2.351.828 2.78 1.371.657.848.243 1.934-.894 2.317-.816.27-3.25.093-4.578-.336-.797-.254-1.148-.29-1.308-.16-.16.128-.723 1.917-.723 2.3 0 .192 1.344.75 2.351.989.786.191 1.618.238 3.008.191 1.684-.063 2.051-.129 2.914-.512 1.121-.508 2.29-1.629 2.688-2.586.351-.843.465-2.25.258-3.03-.434-1.614-1.473-2.411-4.403-3.403-2.336-.797-3.136-1.34-3.136-2.121 0-1.118.707-1.567 2.511-1.567.77 0 1.715.13 2.434.32.832.239 1.23.286 1.375.16.113-.097.32-.656.48-1.23.258-1.023.243-1.086-.03-1.293-.419-.304-1.712-.636-3.09-.832-1.344-.172-1.505-.172-2.653 0zm0 0"/></svg>
