<svg xmlns="http://www.w3.org/2000/svg" viewBox="0 0 128 128"><path d="M38.27 73.572h-2.398V55.05h10.893v2.276H38.27v6.081h7.661v2.223H38.27v7.942zm13.004-15.856c-.572.57-1.47.66-2.144.214a1.679 1.679 0 0 1-.629-2.046 1.7 1.7 0 0 1 1.9-1.01 1.689 1.689 0 0 1 1.368 1.652 1.61 1.61 0 0 1-.497 1.19h.002zm0 15.856h-2.398V60.897h2.398v12.675zm5.263 0H54.14V60.897h2.292v2.07h.104a3.255 3.255 0 0 1 1.499-1.708 4.31 4.31 0 0 1 2.203-.673 4.599 4.599 0 0 1 1.797.311l-.912 2.223a3.651 3.651 0 0 0-1.276-.182 3.144 3.144 0 0 0-2.307 1.023c-.67.682-1.004 1.574-1.004 2.678l.002 6.933zm12.07.404c-1.93 0-3.497-.637-4.703-1.913-1.207-1.276-1.811-2.885-1.813-4.828a6.947 6.947 0 0 1 1.76-4.76 5.72 5.72 0 0 1 4.495-1.992c1.893 0 3.41.612 4.548 1.837 1.14 1.224 1.708 2.863 1.706 4.915l-.026.44H64.486c.069 1.276.499 2.287 1.29 3.032a3.926 3.926 0 0 0 2.775 1.111c1.72 0 2.884-.724 3.492-2.172l2.137.879a5.692 5.692 0 0 1-2.058 2.47c-.957.654-2.129.982-3.516.982zm3.44-8.285c-.051-.725-.386-1.415-1.003-2.07-.618-.655-1.536-.975-2.755-.962a3.454 3.454 0 0 0-2.307.829 4.222 4.222 0 0 0-1.341 2.223l7.406-.02zm11.219 8.286a5.457 5.457 0 0 1-2.61-.607 4.411 4.411 0 0 1-1.733-1.552h-.104v1.754h-2.295V55.05h2.399v5.847l-.104 1.758h.104a4.41 4.41 0 0 1 1.732-1.552 5.459 5.459 0 0 1 2.61-.62c1.651 0 3.076.647 4.276 1.94 1.2 1.293 1.8 2.897 1.798 4.812-.001 1.914-.6 3.518-1.798 4.812-1.198 1.293-2.624 1.936-4.275 1.93zm-.391-2.173a3.826 3.826 0 0 0 2.866-1.255c.8-.837 1.2-1.945 1.2-3.324 0-1.38-.4-2.488-1.2-3.325a3.924 3.924 0 0 0-2.87-1.254 3.925 3.925 0 0 0-2.875 1.242c-.79.827-1.185 1.94-1.185 3.337 0 1.397.399 2.512 1.197 3.346a3.833 3.833 0 0 0 2.875 1.243l-.008-.01zm12.57 2.172c-1.358 0-2.49-.387-3.4-1.163-.91-.777-1.366-1.803-1.368-3.078 0-1.38.538-2.462 1.616-3.246 1.078-.784 2.407-1.176 3.986-1.176 1.408 0 2.562.259 3.462.776v-.362a2.82 2.82 0 0 0-.965-2.237 3.477 3.477 0 0 0-2.368-.83 3.699 3.699 0 0 0-1.89.49 2.54 2.54 0 0 0-1.16 1.346l-2.189-.931c.296-.761.878-1.467 1.75-2.118.871-.651 2.015-.974 3.44-.97 1.63 0 2.987.471 4.073 1.414 1.085.943 1.624 2.28 1.616 4.01v7.671h-2.3v-1.758h-.104c-.957 1.442-2.356 2.16-4.196 2.16zm.39-2.172a3.918 3.918 0 0 0 2.7-1.09 3.4 3.4 0 0 0 1.222-2.598c-.679-.553-1.697-.829-3.054-.829-1.165 0-2.042.25-2.633.75a2.246 2.246 0 0 0-.885 1.758 1.69 1.69 0 0 0 .814 1.475 3.238 3.238 0 0 0 1.837.544v-.01zm13.265 2.172c-1.425 0-2.602-.344-3.53-1.034a6.128 6.128 0 0 1-2.036-2.587l2.137-.88c.68 1.588 1.833 2.382 3.462 2.382a3.182 3.182 0 0 0 1.832-.491 1.503 1.503 0 0 0 .717-1.294c0-.827-.583-1.388-1.75-1.681l-2.58-.62a6.155 6.155 0 0 1-2.318-1.177 2.821 2.821 0 0 1-1.096-2.34c0-1.121.5-2.03 1.499-2.728a6.05 6.05 0 0 1 3.557-1.047 5.965 5.965 0 0 1 3.02.766 4.312 4.312 0 0 1 1.902 2.186l-2.082.845c-.469-1.12-1.442-1.681-2.92-1.681a3.426 3.426 0 0 0-1.798.44 1.34 1.34 0 0 0-.729 1.19c0 .725.565 1.217 1.694 1.476l2.527.596c1.198.27 2.085.74 2.659 1.415a3.42 3.42 0 0 1 .86 2.275 3.517 3.517 0 0 1-1.408 2.846c-.938.762-2.145 1.144-3.622 1.144zm12.9 0c-1.929 0-3.497-.637-4.703-1.913-1.207-1.276-1.81-2.889-1.812-4.838a6.948 6.948 0 0 1 1.759-4.76 5.73 5.73 0 0 1 4.501-1.982c1.9 0 3.417.612 4.549 1.837 1.132 1.225 1.7 2.863 1.706 4.915l-.027.44h-10.096c.069 1.276.5 2.287 1.29 3.032a3.927 3.927 0 0 0 2.782 1.107c1.72 0 2.883-.724 3.491-2.172l2.138.879a5.69 5.69 0 0 1-2.058 2.47c-.957.657-2.13.986-3.52.986zm3.44-8.285c-.05-.725-.385-1.415-1.003-2.07-.618-.655-1.534-.975-2.75-.962a3.456 3.456 0 0 0-2.307.829 4.222 4.222 0 0 0-1.342 2.223l7.403-.02z" opacity=".54"/><path fill="#ffa712" d="m.014 74.995 4.41-28.22a.815.815 0 0 1 1.523-.259l4.561 8.507 1.818-3.461a.814.814 0 0 1 1.442 0l12.308 23.433H.014Z"/><path fill="#f6830e" d="m15.25 64.002-4.744-8.983L.014 74.995Z"/><path fill="#ffcc2e" d="m26.076 74.995-3.378-20.902a.815.815 0 0 0-.555-.64.814.814 0 0 0-.823.2L.014 74.995l11.79 6.611a2.443 2.443 0 0 0 2.381 0l11.891-6.611z"/><path fill="#fff" fill-opacity=".2" d="M22.698 54.093a.815.815 0 0 0-.555-.64.814.814 0 0 0-.823.2l-4.229 4.24-3.325-6.331a.814.814 0 0 0-1.442 0l-1.818 3.461-4.56-8.507a.815.815 0 0 0-.856-.418.814.814 0 0 0-.668.68L.014 74.994H0l.014.016.116.057L21.314 53.86a.814.814 0 0 1 1.38.44l3.35 20.714.032-.02-3.378-20.902ZM.053 74.957l4.372-27.98a.814.814 0 0 1 1.523-.26l4.56 8.506 1.818-3.461a.814.814 0 0 1 1.442 0l3.258 6.195-16.973 17z"/><path fill="#a52714" d="M14.185 81.407a2.443 2.443 0 0 1-2.382 0L.043 74.814l-.029.181 11.79 6.61a2.443 2.443 0 0 0 2.381 0l11.891-6.61-.03-.187-11.86 6.599Z" opacity=".2"/></svg>
