<svg xmlns="http://www.w3.org/2000/svg" viewBox="0 0 128 128"><path fill="#fff" d="M26.994 127.655h-2.032v-15.766h9.231v1.937h-7.199v5.176h6.495v1.892h-6.495zm11.022-13.497a1.442 1.442 0 0 1-1.818.182 1.432 1.432 0 0 1-.533-1.742 1.44 1.44 0 0 1 2.77.547 1.374 1.374 0 0 1-.42 1.013zm0 13.497h-2.033v-10.79h2.033zm4.46 0h-2.03v-10.79h1.942v1.762h.088a2.767 2.767 0 0 1 1.27-1.454 3.642 3.642 0 0 1 1.867-.573 3.884 3.884 0 0 1 1.524.266l-.773 1.892a3.082 3.082 0 0 0-1.082-.155 2.66 2.66 0 0 0-1.957.872c-.567.58-.85 1.34-.85 2.28zm10.226.344c-1.635 0-2.963-.543-3.986-1.63-1.023-1.085-1.535-2.458-1.536-4.118a5.93 5.93 0 0 1 1.494-4.042 4.838 4.838 0 0 1 3.81-1.696c1.605 0 2.89.521 3.855 1.563.965 1.043 1.447 2.438 1.446 4.184l-.022.375h-8.55c.058 1.086.423 1.946 1.094 2.58a3.32 3.32 0 0 0 2.352.947c1.457 0 2.444-.617 2.96-1.85l1.81.749a4.84 4.84 0 0 1-1.744 2.102c-.81.557-1.805.836-2.983.836zm2.916-7.053c-.044-.617-.327-1.204-.85-1.762-.524-.557-1.3-.83-2.33-.819a2.92 2.92 0 0 0-1.955.706 3.597 3.597 0 0 0-1.137 1.892zm9.52 7.053a4.61 4.61 0 0 1-2.22-.516 3.746 3.746 0 0 1-1.474-1.325h-.088v1.497h-1.938v-15.766h2.026v4.976l-.088 1.497h.088a3.746 3.746 0 0 1 1.468-1.321 4.612 4.612 0 0 1 2.22-.528c1.398 0 2.606.55 3.623 1.651 1.017 1.101 1.525 2.466 1.523 4.096 0 1.63-.508 2.995-1.523 4.096-1.016 1.101-2.222 1.649-3.617 1.643zm-.331-1.85a3.238 3.238 0 0 0 2.43-1.068c.677-.712 1.016-1.655 1.016-2.83 0-1.174-.34-2.117-1.017-2.83a3.32 3.32 0 0 0-2.432-1.067 3.32 3.32 0 0 0-2.437 1.057c-.67.705-1.006 1.651-1.005 2.84.001 1.19.336 2.137 1.005 2.84a3.242 3.242 0 0 0 2.44 1.067zM75.452 128c-1.15 0-2.111-.33-2.882-.99-.77-.662-1.157-1.535-1.16-2.62 0-1.175.457-2.096 1.37-2.764.914-.667 2.04-1 3.38-1 1.192 0 2.17.22 2.933.66v-.308a2.405 2.405 0 0 0-.818-1.905 2.939 2.939 0 0 0-2.005-.707 3.11 3.11 0 0 0-1.602.419 2.159 2.159 0 0 0-.983 1.145l-1.855-.793c.25-.645.744-1.244 1.48-1.794s1.709-.826 2.916-.826c1.381 0 2.531.402 3.452 1.204.92.803 1.377 1.94 1.37 3.413v6.522h-1.952v-1.497h-.088c-.81 1.227-1.995 1.84-3.556 1.84zm.331-1.85a3.314 3.314 0 0 0 2.286-.935 2.9 2.9 0 0 0 1.036-2.212c-.575-.47-1.438-.706-2.589-.706-.987 0-1.73.213-2.23.638a1.914 1.914 0 0 0-.751 1.497c-.01.511.253.989.69 1.256a2.736 2.736 0 0 0 1.558.471zM87.025 128c-1.208 0-2.205-.294-2.992-.88a5.213 5.213 0 0 1-1.726-2.203l1.812-.748c.575 1.35 1.553 2.026 2.934 2.026a2.688 2.688 0 0 0 1.553-.418 1.28 1.28 0 0 0 .607-1.1c0-.705-.493-1.182-1.48-1.432l-2.187-.528a5.208 5.208 0 0 1-1.965-1.001 2.405 2.405 0 0 1-.927-1.992c0-.954.424-1.729 1.27-2.323a5.112 5.112 0 0 1 3.015-.89 5.039 5.039 0 0 1 2.56.651 3.667 3.667 0 0 1 1.612 1.862l-1.767.719c-.398-.954-1.223-1.432-2.474-1.432a2.893 2.893 0 0 0-1.524.375 1.14 1.14 0 0 0-.618 1.014c0 .617.479 1.035 1.436 1.255l2.143.508c1.016.23 1.767.63 2.254 1.204a2.92 2.92 0 0 1 .735 1.95 2.999 2.999 0 0 1-1.208 2.423c-.79.64-1.811.96-3.063.96zm10.933 0c-1.634 0-2.963-.543-3.986-1.63-1.023-1.085-1.534-2.458-1.536-4.118a5.931 5.931 0 0 1 1.491-4.05 4.838 4.838 0 0 1 3.81-1.697c1.605 0 2.89.521 3.855 1.564.965 1.042 1.447 2.437 1.446 4.184l-.022.375h-8.547c.059 1.086.424 1.946 1.094 2.58a3.32 3.32 0 0 0 2.352.946c1.458 0 2.444-.616 2.96-1.85l1.81.754a4.84 4.84 0 0 1-1.745 2.102c-.81.56-1.804.84-2.982.84zm2.916-7.053c-.043-.617-.327-1.204-.85-1.762-.524-.557-1.3-.83-2.33-.819a2.92 2.92 0 0 0-1.955.706 3.597 3.597 0 0 0-1.137 1.892z"/><path fill="#ffa000" d="M30.916 72.85 42.029 1.736a2.053 2.053 0 0 1 3.838-.652L57.36 22.521l4.581-8.723a2.053 2.053 0 0 1 3.633 0L96.592 72.85Z"/><path fill="#f57c00" d="M69.31 45.148 57.356 22.51l-26.44 50.34Z"/><path fill="#ffca28" d="m96.592 72.85-8.513-52.674a2.055 2.055 0 0 0-1.399-1.613 2.05 2.05 0 0 0-2.074.504L30.916 72.85l29.708 16.66a6.157 6.157 0 0 0 6.003 0z"/><path fill="#fff" fill-opacity=".2" d="M88.08 20.176a2.055 2.055 0 0 0-1.4-1.612 2.05 2.05 0 0 0-2.074.503L73.949 29.75l-8.38-15.953a2.053 2.053 0 0 0-3.632 0l-4.581 8.722L45.862 1.083A2.053 2.053 0 0 0 43.706.03a2.05 2.05 0 0 0-1.682 1.71L30.916 72.85h-.036l.035.042.293.144L84.59 19.59a2.053 2.053 0 0 1 3.479 1.108L96.51 72.9l.082-.051-8.512-52.675ZM31.012 72.753l11.016-70.51A2.053 2.053 0 0 1 43.71.532a2.054 2.054 0 0 1 2.157 1.054L57.36 23.024l4.582-8.723a2.053 2.053 0 0 1 3.633 0l8.21 15.614z"/><path fill="#a52714" d="M66.627 89.007a6.157 6.157 0 0 1-6.003 0L30.986 72.395l-.072.456 29.709 16.655a6.157 6.157 0 0 0 6.003 0l29.966-16.655-.078-.472-29.888 16.63Z" opacity=".2"/></svg>
