<?xml version="1.0" encoding="UTF-8" standalone="no"?>
<svg
   width="128"
   height="128"
   viewBox="0 0 128 128"
   version="1.1"
   id="svg12"
   sodipodi:docname="Harbour.svg"
   inkscape:version="1.3.2 (091e20e, 2023-11-25, custom)"
   xmlns:inkscape="http://www.inkscape.org/namespaces/inkscape"
   xmlns:sodipodi="http://sodipodi.sourceforge.net/DTD/sodipodi-0.dtd"
   xmlns="http://www.w3.org/2000/svg"
   xmlns:svg="http://www.w3.org/2000/svg"
   xmlns:rdf="http://www.w3.org/1999/02/22-rdf-syntax-ns#"
   xmlns:cc="http://creativecommons.org/ns#"
   xmlns:dc="http://purl.org/dc/elements/1.1/">
  <defs
     id="defs12" />
  <sodipodi:namedview
     id="namedview12"
     pagecolor="#ffffff"
     bordercolor="#111111"
     borderopacity="1"
     inkscape:showpageshadow="0"
     inkscape:pageopacity="0"
     inkscape:pagecheckerboard="1"
     inkscape:deskcolor="#d1d1d1"
     inkscape:zoom="4.2592135"
     inkscape:cx="37.448228"
     inkscape:cy="57.874535"
     inkscape:window-width="1920"
     inkscape:window-height="1009"
     inkscape:window-x="-8"
     inkscape:window-y="-8"
     inkscape:window-maximized="1"
     inkscape:current-layer="svg12" />
  <title
     id="title1">file_type_harbour</title>
  <path
     d="m 128,107.88219 c -19.93441,3.81685 -62.966385,2.42725 -114.125715,-4.70361 a 56.772594,56.772594 0 0 1 9.096414,5.09216 c 50.121699,7.09429 83.051631,6.85659 102.483211,2.69692 A 4.6487704,4.6487704 0 0 0 128,107.88219"
     style="fill:#9f0e22;stroke-width:4.57106"
     id="path1" />
  <path
     d="m 34.293221,95.394056 q -0.201127,0.507388 -0.420538,1.010205 c 5.485275,-1.403316 10.28489,-4.790473 15.665031,-1.63644 A 129.12794,129.12794 0 0 1 57.35423,57.915916 c 0.191985,-4.013392 0.457106,-8.122777 0.854789,-12.588705 a 327.06408,327.06408 0 0 0 -0.201127,52.745488 63.885167,63.885167 0 0 0 -25.844786,2.088971 c 0.502817,-1.165616 1.229615,-2.797486 2.130115,-4.767614"
     style="fill:#4997d9;stroke-width:4.57106"
     id="path2" />
  <path
     d="m 25.503068,85.196016 c 9.42553,-3.990537 11.647067,-8.200485 19.244172,-7.610818 2.340384,-24.427757 8.063354,-33.665874 13.612624,-48.325271 -4.571062,7.542252 -9.03699,15.084505 -13.256081,22.233647 v 0 C 49.597137,43.882755 54.38304,35.860541 59.223795,27.852039 50.781043,50.250245 48.87491,83.591574 48.87491,91.75092 45.428329,89.949921 33.333298,90.772712 19.213286,96.449972 20.397191,94.251291 22.58673,90.343033 25.51221,85.200587"
     style="fill:#0974c5;stroke-width:4.57106"
     id="path3" />
  <path
     d="M 57.765626,15.944422 C 44.248995,34.745201 43.545051,64.703944 43.545051,72.858719 33.488714,69.946952 22.344464,75.775057 12.461827,82.000844 19.318421,71.450832 39.952196,40.011065 57.779339,15.939851"
     style="fill:#095fa8;stroke-width:4.57106"
     id="path4" />
  <path
     d="m 127.54289,106.89028 c -17.93685,3.43744 -55.309852,2.0844 -101.619284,-3.23174 -4.534494,-0.5211 -17.4888853,-2.08441 -25.27340432,-3.09004 A 6.3629188,6.3629188 0 0 1 0.01025298,97.405324 C 28.876512,100.47708 101.97694,109.71062 127.15892,104.92929 a 5.0281686,5.0281686 0 0 1 0.37026,1.96556"
     style="fill:#09397f;stroke-width:4.57106"
     id="path5" />
  <path
     d="m 35.893093,91.613788 0.146274,-0.02286 c -0.630807,1.371318 -1.215903,2.632932 -1.737004,3.784839 v 0 c -0.914213,1.970128 -1.627298,3.597426 -2.130115,4.767613 a 63.889738,63.889738 0 0 1 25.844786,-2.088965 327.41148,327.41148 0 0 1 0.173701,-52.425514 l 0.02743,-0.05485 a 340.08704,340.08704 0 0 0 0.06399,53.549995 69.123605,69.123605 0 0 0 -26.914415,2.358664 c 0.877644,-2.04326 2.491229,-5.553836 4.525352,-9.882632"
     style="fill:#09397f;stroke-width:4.57106"
     id="path6" />
  <path
     d="m 35.161723,119.09958 0.118847,-0.14169 a 14.142867,14.142867 0 0 1 11.619641,-4.32423 357.71305,357.71305 0 0 0 36.952468,0.31997 535.84735,535.84735 0 0 1 -60.575718,-5.56755 57.138279,57.138279 0 0 1 11.884762,9.70893"
     style="fill:#09397f;stroke-width:4.57106"
     id="path7" />
  <path
     d="M 66.825471,79.372483 C 66.244946,79.27192 65.559287,77.635479 65.454153,77.617195 a 320.38576,320.38576 0 0 0 56.516617,3.231741 c 0.63994,0 1.22961,1.759859 1.47645,1.759859 h -3.16318 A 303.45912,303.45912 0 0 1 66.802616,79.372483"
     id="path8"
     style="stroke-width:4.57106" />
  <path
     d="m 34.293221,95.371201 c 0.525672,-1.151908 1.110768,-2.422663 1.737003,-3.784839 a 24.903148,24.903148 0 0 1 12.82183,0.155416 256.35889,256.35889 0 0 1 2.957478,-33.405324 c 2.568937,-5.311574 4.836184,-9.932918 6.399487,-13.013814 -0.379398,4.465928 -0.662804,8.575313 -0.854789,12.588705 A 129.1188,129.1188 0 0 0 49.537714,94.76325 C 44.157573,91.609217 39.3671,94.996374 33.872683,96.39969 q 0.219411,-0.511959 0.42968,-1.03306"
     id="path9"
     style="stroke-width:4.57106" />
  <path
     d="m 27.326922,82.005415 c 1.631869,-2.847772 3.437439,-5.988092 5.393853,-9.361536 A 22.302213,22.302213 0 0 1 43.545051,72.854148 149.96284,149.96284 0 0 1 45.09007,51.493574 C 49.322874,44.326148 53.807086,36.797608 58.346151,29.259927 52.796881,43.923895 47.06934,53.157441 44.733527,77.585198 37.136422,76.995531 34.914885,81.205479 25.489355,85.196016 l 1.828425,-3.199743"
     id="path10"
     style="stroke-width:4.57106" />
  <path
     d="m 73.70492,8.900415 c -0.877644,10.184327 -1.074199,20.400651 -1.101626,30.626118 -0.05485,20.592635 0.319975,41.189842 0.562241,61.782477 0,0.84565 2.130115,2.20325 2.130115,2.33581 -0.242266,-20.450929 -0.598809,-40.906433 -0.562241,-61.357366 0,-10.358027 0.21484,-20.716054 1.101626,-31.042084 0.06857,-0.795365 -2.139257,-2.2855312 -2.130115,-2.3358129"
     id="path11"
     style="stroke-width:4.57106" />
  <path
     d="m 93.099938,16.460952 c -0.553099,27.673211 -2.152971,55.309854 -2.692356,82.983066 0,0.831932 2.134686,2.226102 2.130115,2.335812 0.543956,-27.673211 2.139257,-55.309854 2.692356,-82.983065 0,-0.831933 -2.134686,-2.226107 -2.130115,-2.340384"
     id="path12"
     style="stroke-width:4.57106" />
  <metadata
     id="metadata12">
    <rdf:RDF>
      <cc:Work
         rdf:about="">
        <dc:title>file_type_harbour</dc:title>
      </cc:Work>
    </rdf:RDF>
  </metadata>
</svg>
