<?xml version="1.0" encoding="UTF-8" standalone="no"?>
<svg
   width="128px"
   height="128px"
   viewBox="0 0 128 104"
   version="1.1"
   id="svg16"
   sodipodi:docname="blender-original.svg"
   inkscape:version="1.1.1 (c3084ef, 2021-09-22)"
   xmlns:inkscape="http://www.inkscape.org/namespaces/inkscape"
   xmlns:sodipodi="http://sodipodi.sourceforge.net/DTD/sodipodi-0.dtd"
   xmlns="http://www.w3.org/2000/svg"
   xmlns:svg="http://www.w3.org/2000/svg">
  <defs
     id="defs20" />
  <sodipodi:namedview
     id="namedview18"
     pagecolor="#ffffff"
     bordercolor="#666666"
     borderopacity="1.0"
     inkscape:pageshadow="2"
     inkscape:pageopacity="0.0"
     inkscape:pagecheckerboard="true"
     showgrid="false"
     inkscape:zoom="5.6171875"
     inkscape:cx="64"
     inkscape:cy="64"
     inkscape:window-width="1670"
     inkscape:window-height="987"
     inkscape:window-x="1121"
     inkscape:window-y="30"
     inkscape:window-maximized="0"
     inkscape:current-layer="svg16" />
  <g
     id="surface1"
     transform="matrix(1.0233682,0,0,1.0233682,-1.4976746,-0.58803322)">
    <path
       style="fill:#235785;fill-opacity:1;fill-rule:nonzero;stroke:none"
       d="m 66.28125,57.28125 c 0.234375,-4.144531 2.273438,-7.804688 5.359375,-10.390625 3.023437,-2.542969 7.082031,-4.097656 11.539063,-4.097656 4.433593,0 8.492187,1.554687 11.511718,4.097656 3.089844,2.585937 5.117188,6.246094 5.359374,10.390625 0.23438,4.25 -1.48828,8.21875 -4.499999,11.15625 -3.085937,2.980469 -7.453125,4.863281 -12.371093,4.863281 -4.921876,0 -9.308594,-1.871093 -12.375,-4.863281 -3.023438,-2.9375 -4.742188,-6.882812 -4.5,-11.136719 z m 0,0"
       id="path11" />
    <path
       style="fill:#e87500;fill-opacity:1;fill-rule:nonzero;stroke:none"
       d="m 39.8125,66.046875 c 0.02734,1.621094 0.550781,4.777344 1.328125,7.234375 1.644531,5.214844 4.433594,10.039062 8.296875,14.265625 3.96875,4.363281 8.867188,7.871094 14.511719,10.367187 5.933593,2.609378 12.375,3.945318 19.058593,3.945318 6.683594,-0.008 13.125,-1.36719 19.058598,-4.007818 5.64453,-2.523437 10.54297,-6.027343 14.51172,-10.414062 3.88281,-4.273438 6.66406,-9.09375 8.29687,-14.3125 0.82422,-2.628906 1.34766,-5.300781 1.55859,-7.976562 0.20313,-2.628907 0.11719,-5.28125 -0.25781,-7.933594 -0.73828,-5.152344 -2.53906,-9.996094 -5.29297,-14.378906 -2.51562,-4.054688 -5.78125,-7.582032 -9.66406,-10.566407 l 0.0117,-0.0039 L 72.1875,2.457031 C 72.152344,2.429688 72.121094,2.402344 72.085938,2.378906 69.527344,0.421875 65.203125,0.429688 62.402344,2.386719 59.554688,4.371094 59.226562,7.648438 61.761719,9.710938 L 61.75,9.71875 78.050781,22.894531 28.421875,22.945312 h -0.06641 c -4.101563,0.0039 -8.050781,2.675782 -8.824219,6.070313 -0.800781,3.441406 1.988281,6.3125 6.265625,6.3125 l -0.0078,0.01563 25.148438,-0.04687 -45,34.191406 c -0.054688,0.04297 -0.117188,0.08594 -0.171875,0.128907 -4.234375,3.21875 -5.601563,8.589843 -2.933594,11.964843 2.714844,3.441407 8.46875,3.464844 12.75,0.01953 L 40.066406,61.65625 c 0,0 -0.359375,2.695312 -0.328125,4.296875 z m 63.08594,9.007813 c -5.050784,5.109374 -12.132815,8.023437 -19.765628,8.023437 -7.652343,0.01172 -14.734374,-2.851563 -19.785156,-7.957031 -2.46875,-2.5 -4.277344,-5.347656 -5.402344,-8.394532 -1.097656,-3.003906 -1.523437,-6.179687 -1.242187,-9.382812 0.269531,-3.132812 1.207031,-6.136719 2.714844,-8.832031 1.472656,-2.652344 3.507812,-5.0625 6,-7.101563 4.917969,-3.964844 11.160156,-6.136718 17.6875,-6.136718 6.554687,-0.0078 12.796875,2.125 17.714841,6.09375 2.49219,2.027343 4.51953,4.425781 6,7.078124 1.50391,2.699219 2.44922,5.679688 2.71094,8.835938 0.27734,3.199219 -0.14844,6.375 -1.24219,9.378906 -1.12109,3.070313 -2.93359,5.917969 -5.40625,8.417969 z m 0,0"
       id="path13" />
  </g>
</svg>
