<svg xmlns="http://www.w3.org/2000/svg" viewBox="0 0 128 128"><path d="M30.223 64V49.209h97.44v29.583h-97.44zm71.87 10.579c1.174-.118 2.091-.629 2.663-1.484.272-.407.457-.886.559-1.447.09-.492.086-.218.086-6.469v-5.82l-.04-.08a.527.527 0 0 0-.109-.14c-.13-.111-.115-.11-1.369-.105-1.107.005-1.128.005-1.204.04a.444.444 0 0 0-.225.239c-.024.07-.027.64-.027 5.654 0 3.69-.006 5.63-.017 5.73-.045.398-.15.65-.351.852-.263.262-.627.368-1.19.346a2.738 2.738 0 0 1-1.063-.25.457.457 0 0 0-.234-.054.364.364 0 0 0-.311.135c-.105.12-.102.08-.101 1.164 0 1.105-.004 1.06.119 1.183.183.183 1.076.44 1.75.505.213.02.864.02 1.064 0zm-57.61-4.118c.785-.084 1.677-.3 2.537-.615.563-.206.982-.396 1.064-.483a.376.376 0 0 0 .098-.22c0-.066-.464-1.749-.507-1.84a.481.481 0 0 0-.228-.247c-.124-.06-.216-.05-.428.048a7.893 7.893 0 0 1-2.063.638 5.5 5.5 0 0 1-1.07.033 3.276 3.276 0 0 1-1.99-.945c-.604-.602-.891-1.315-.891-2.215 0-.878.284-1.585.874-2.178.517-.52 1.187-.842 1.973-.95.27-.036.808-.028 1.095.017.68.107 1.363.308 1.895.557.173.08.216.094.299.094.079 0 .109-.01.168-.051.138-.097.17-.162.521-1.054.184-.467.339-.872.344-.9.027-.138-.08-.295-.26-.385-.142-.071-.536-.23-.895-.36-.897-.327-1.816-.55-2.575-.627a8.068 8.068 0 0 0-1.158.008 5.963 5.963 0 0 0-1.819.48c-.654.29-1.305.74-1.836 1.271-.89.89-1.382 1.91-1.561 3.236-.031.227-.037.353-.038.8 0 .558.011.718.084 1.143.265 1.532 1.076 2.79 2.412 3.739a5.663 5.663 0 0 0 2.865 1.03c.256.02.79.007 1.09-.024zm36.249.024c1.443-.096 2.481-.368 3.544-.926.336-.177.416-.238.474-.362l.039-.084v-.943c-.001-.745-.006-.957-.024-1.007a.437.437 0 0 0-.191-.227c-.067-.04-.099-.047-.198-.047-.11 0-.134.008-.369.116-.976.448-1.957.711-2.933.786a3.802 3.802 0 0 1-2.375-.608 2.765 2.765 0 0 1-.957-1.01 3.531 3.531 0 0 1-.206-.494l-.011-.045h3.797c4.266 0 3.908.011 4.047-.128.128-.128.134-.166.122-.832-.012-.715-.04-1.006-.148-1.54a5.615 5.615 0 0 0-.495-1.45c-.384-.781-.905-1.397-1.65-1.953-.71-.53-1.39-.805-2.309-.93a9.194 9.194 0 0 0-1.406-.01c-1.33.153-2.375.628-3.274 1.487-1.05 1.002-1.639 2.302-1.746 3.857-.107 1.547.29 2.959 1.14 4.053.522.67 1.29 1.289 2.11 1.7.95.477 1.928.67 3.019.598zm-23.646-.047c1.393-.192 2.547-.752 3.478-1.688.926-.93 1.469-2.041 1.645-3.369a9.81 9.81 0 0 0 .008-1.465c-.153-1.217-.58-2.195-1.342-3.084-1.166-1.356-2.792-2.072-4.71-2.071-1.718 0-3.181.551-4.303 1.62-1.241 1.183-1.854 2.676-1.805 4.402.037 1.348.432 2.455 1.238 3.47.192.244.687.742.923.932.862.691 1.862 1.106 3.014 1.25.39.048.368.047 1.01.042.486-.004.635-.01.844-.04zm57.959.007c1.56-.187 2.723-.77 3.423-1.715.134-.18.326-.557.4-.784.205-.624.201-1.362-.01-2.016-.388-1.206-1.529-2.059-3.382-2.53a36.408 36.408 0 0 0-.843-.185c-.534-.112-.767-.17-1.12-.278-.481-.148-.574-.187-.74-.31-.15-.114-.226-.234-.235-.37-.017-.273.158-.485.536-.652.43-.19.886-.24 1.507-.165 1.117.132 2.215.434 3.126.86.262.122.38.143.514.092a.498.498 0 0 0 .241-.258c.014-.048.02-.346.02-1.078 0-.861-.004-1.022-.026-1.083-.057-.164-.133-.215-.602-.41-1.077-.449-2.14-.716-3.129-.787-.335-.024-.99-.012-1.364.026-1.555.158-2.696.71-3.345 1.618-.435.61-.613 1.455-.486 2.316.07.476.217.875.456 1.237.134.204.496.573.71.724.539.383 1.235.692 2.138.952.127.037.645.17 1.15.297 1.314.33 1.617.437 1.835.648.11.106.153.203.153.342 0 .172-.05.283-.184.418-.297.296-.706.4-1.91.488-.676.048-1.515-.12-2.455-.493a17.87 17.87 0 0 1-1.344-.645c-.188-.101-.269-.115-.414-.072a.504.504 0 0 0-.26.26c-.015.05-.02.345-.02 1.128v1.06l.04.085c.047.1.132.176.252.223 1.294.507 2.31.816 3.245.986.194.035.34.056.725.101.152.018 1.182-.004 1.398-.03zm-47.059-.274a.586.586 0 0 0 .13-.104c.121-.135.113.11.113-3.413v-3.168l.083-.138c.13-.22.23-.351.411-.54a3.58 3.58 0 0 1 2.16-1.066c.197-.025.607-.025.848 0 .162.015.206.014.278-.007a.403.403 0 0 0 .253-.215l.044-.087v-2.31l-.04-.085a.402.402 0 0 0-.24-.216c-.313-.1-1.016-.063-1.549.082-.735.202-1.62.7-2.133 1.2l-.112.11-.006-.554c-.006-.633-.008-.643-.152-.776-.137-.126-.112-.123-1.344-.123-1.213 0-1.197-.002-1.33.112-.04.035-.09.1-.112.148l-.04.085v10.782l.04.085c.022.047.069.11.105.14.125.104.102.102 1.37.098 1.15-.003 1.155-.003 1.223-.04zm28.76-4.849a.408.408 0 0 0 .216-.195l.05-.09v-1.054c0-.967-.003-1.058-.03-1.115a.443.443 0 0 0-.219-.218l-.088-.04h-6.318l-.08.04a.455.455 0 0 0-.223.262c-.037.124-.037 2.019 0 2.142.033.111.114.205.218.254l.085.04h3.164c2.802 0 3.17-.003 3.225-.026zm7.626-7.562a1.767 1.767 0 0 0 1.252-1.255c.062-.24.072-.602.022-.843a1.717 1.717 0 0 0-.4-.818c-.391-.454-.915-.663-1.53-.612a1.776 1.776 0 0 0-1.372.865 1.957 1.957 0 0 0-.047 1.771c.244.495.68.814 1.267.926.196.037.602.02.808-.034zM11.59 58.055c-.394-.1-.731-.186-.75-.193a1.593 1.593 0 0 1-.22-.216c-.1-.114-.307-.341-.458-.507s-.273-.314-.273-.331c0-.041.141-.17.187-.17.043 0 .04-.003.527.536.304.336.38.41.43.424l.641.16.607.152c.046.014.065-.017.083-.135a3.46 3.46 0 0 1 .026-.153c.007-.03-.077-.092-.59-.438l-.597-.402V54.735h.27v1.895l.49.328c.269.181.494.33.5.333a.398.398 0 0 0 .06-.123c.106-.275.357-.579.627-.759.116-.077.314-.178.495-.253.04-.017.037-.02-.065-.074-.495-.264-.485-.988.018-1.256l.123-.066.24-.006c.132-.003.24-.008.24-.01 0-.004-.026-.045-.058-.093a.47.47 0 0 1-.093-.281v-.07l-.649-.337-.009-.93h.22l.008.797.249.128c.238.123.25.127.268.094a.774.774 0 0 1 .29-.237.88.88 0 0 1 .762 0c.114.054.249.165.29.237.018.033.03.029.268-.094l.248-.128.01-.797h.218l-.008.93-.649.337v.07a.47.47 0 0 1-.093.281 1.12 1.12 0 0 0-.059.092c0 .003.108.008.24.011l.24.006.123.066c.503.268.514.992.018 1.256-.101.054-.104.057-.064.074.18.075.379.176.494.253.27.18.522.484.627.76a.4.4 0 0 0 .06.122c.007-.002.232-.152.501-.333l.489-.328v-.948l.001-.947h.27v2.046l-.598.403c-.512.346-.596.408-.59.438.005.02.016.088.026.153.018.118.037.15.084.135l.606-.152.642-.16c.05-.013.125-.088.43-.424.487-.539.484-.536.527-.536.045 0 .187.129.187.17 0 .017-.123.166-.274.331l-.458.506c-.12.134-.203.212-.236.222-.028.01-.37.096-.76.194l-.708.178h-2.349v-2.123h-.27v2.123l-2.366-.002-.716-.182zM12.976 62.602l-1.824-1.828.413-.867c.227-.478.412-.876.413-.887 0-.011-.17-.052-.426-.103l-.425-.083-1.305 1.3-.093-.092a.49.49 0 0 1-.093-.11c0-.033 1.372-1.39 1.406-1.39.028 0 .931.172 1.032.196.032.008.045-.007.097-.11l.06-.12h.514c.348 0 .513.006.513.018 0 .01-.114.46-.253 1.002s-.252.99-.252.998c0 .022.235.079.252.061.007-.008.125-.45.26-.984l.264-1.031.017-.064h1.127v5.088h.27v-5.088h1.127l.017.064.263 1.031c.136.533.254.976.261.984.017.018.252-.04.252-.061 0-.008-.113-.457-.252-.998a62.61 62.61 0 0 1-.253-1.002c0-.012.165-.018.514-.018h.513l.06.12c.052.103.066.118.097.11.101-.024 1.004-.196 1.032-.196.034 0 1.406 1.357 1.406 1.39 0 .01-.042.06-.093.11l-.093.091-1.305-1.3-.425.085c-.256.05-.426.09-.426.102 0 .01.186.41.413.887l.413.867L14.8 64.43z"/><path d="M10.74 73.94c-.51-.51-.922-.929-.918-.932.04-.033 1.097-.805 1.125-.823.035-.021.05-.009.29.23l.252.252 2.78-2.779-.354-.355-1.79.106c-.984.057-1.812.103-1.838.1-.04-.002-.528-.482-2.818-2.774l-2.768-2.771-.414.412-.522-.522 5.222-5.222.522.522-.412.413 5.542 5.542-.107 1.828-.107 1.828.175.177c.096.098.189.179.206.18.018.002.1-.07.208-.177l.177-.18-.107-1.828-.108-1.828 5.543-5.542-.207-.207-.206-.206.261-.261.261-.261 5.222 5.222-.521.522-.414-.412-2.769 2.77c-2.29 2.293-2.777 2.773-2.817 2.776-.027.002-.854-.044-1.838-.101l-1.79-.106-.354.355 2.78 2.78.25-.251c.138-.138.26-.248.27-.244.024.008 1.145.83 1.146.84.001.004-.415.425-.925.935-.875.875-.928.924-.95.892l-.429-.58-.404-.548.51-.514-2.787-2.788-2.788 2.788.511.514-.424.576c-.233.317-.428.577-.433.577-.004 0-.425-.416-.934-.925zm1.13-5.207c.638-.037 1.16-.07 1.163-.072.003-.003-.448-.457-1.001-1.01l-1.006-1.006-1.28 1.28.437.438c.358.357.447.438.484.438.025 0 .567-.03 1.204-.068zm7.562-.37.438-.438-1.28-1.28-1.007 1.006c-.922.922-1.003 1.007-.96 1.013.071.01 2.138.133 2.262.135l.11.002zm-5.803-1.448.07-1.203-.87-.87-1.28 1.28 1 1.002c.552.551 1.004 1 1.006.998.002-.002.035-.545.073-1.207zm3.799-1.433-.64-.64-.87.87.068 1.187.069 1.211c0 .014.452-.427 1.006-.98l1.007-1.007zm-7.194.371-.134-.135.52-.522.271.27 1.28-1.28-1.676-1.677-3.083 3.083 1.676 1.676 1.28-1.28zm10.428-1.803-1.541-1.541-1.676 1.676 1.28 1.28.27-.269.52.522-.268.27 1.28 1.28 1.677-1.676zM9.317 61.33l-.53-.529-.548.538c-.302.296-1 .985-1.551 1.531l-1.002.993 1.078 1.08 3.083-3.083zm13.611 1.54a573.62 573.62 0 0 0-1.55-1.53l-.55-.539-1.059 1.06 3.083 3.082 1.078-1.08zM55.756 67.773a2.927 2.927 0 0 1-1.03-.303 2.76 2.76 0 0 1-.742-.526 2.762 2.762 0 0 1-.648-.877c-.217-.45-.302-.86-.303-1.456 0-.602.102-1.05.347-1.52a2.76 2.76 0 0 1 .546-.725c.314-.314.603-.514.96-.664.58-.245 1.306-.31 1.971-.176.9.18 1.728.831 2.123 1.67.204.435.29.85.29 1.419.002.948-.279 1.667-.887 2.275a2.99 2.99 0 0 1-1.652.86 5.682 5.682 0 0 1-.975.023zM77.952 63.165a.404.404 0 0 1-.216-.258c-.045-.15-.007-.27.155-.49.322-.44.745-.749 1.244-.908.3-.097.51-.125.928-.126.285 0 .41.007.54.03.456.082.781.227 1.083.482.24.203.553.633.594.816a.406.406 0 0 1-.22.451l-.09.047h-3.93z"/></svg>
