<svg xmlns="http://www.w3.org/2000/svg" viewBox="0 0 128 128"><path d="M268.8315 332.857c.085-6.082 2.9531-33.1526 3.5777-34.1632.3678-.5951 2.7986-2.6195 4.5512-3.5102 5.8926-2.9945 16.1409-12.152 20.5826-18.1857 5.3983-7.333 8.255-15.7437 8.255-24.8895 0-5.7317-.2607-6.7905-2.2347-8.645-2.6281-2.469-5.1823-1.4448-7.8987.5415-1.4329 1.0477-1.0902 2.2887-2.0257 10.5923-1.1045 9.8042-1.8846 12.4367-5.38 17.5118-6.0688 8.8115-19.3999 15.64-27.8514 15.64-2.8596 0-17.8548-9.11-21.3612-13.2772-2.4974-2.9679-1.4127-4.3878-1.4127-11.9377 0-9.1851-.9854-10.2925-6.006-10.2925-4.9159 0-6.1536 1.825-6.1536 10.372 0 10.2708-1.5287 13.6858-10.3092 19.6824-6.4974 4.4374-8.1447 5.6664-13.1624 5.6277-4.329-.0334-7.3992-1.2612-12.3513-3.9126-11.9922-6.4208-20.0024-18.8152-20.1004-31.5957-.0365-4.7543.3495-6.806-1.1406-8.7003-2.277-2.8947-6.2228-2.4925-8.6053-.1101-2.0541 2.0541-1.4758 8.231-.6094 15.165 1.6518 13.2206 7.6236 18.1228 21.2298 31.7863l7.3308 7.3617.9436 9.6097c.5273 5.3706 1.1599 13.8951 1.6141 18.666l.8668 9.1049-8.9646-3.0296-10.533-3.6668c3.5047-1.4864 7.588-2.2299 7.9663-6.5889 0-2.0285-2.9973-3.7927-11.4774-8.2725-10.0065-5.2861-17.6316-12.8667-27.685-25.4756-9.8828-12.395-10.9788-15.3542-8.258-24.022 2.3154-7.3768 1.7985-5.8741-3.2287-34.9111-4.7668-27.5328-4.1857-46.0517 1.3659-66.674 2.5145-9.3406 2.7684-9.2815.8587-11.8513-2.3837-3.2077-5.4622-1.5002-8.4377.9093-1.6712 1.3532-1.7238 3.0418-3.9725 11.9069-2.5935 10.2244-3.5465 14.3418-3.967 28.586-.5435 18.4131.7175 30.2413 4.4903 49.1087 1.344 6.7218 3.2452 14.3152 3.2452 15.7387 0 3.9104-13.9835 32.6962-18.0728 33.3673-3.6065.592-6.7844-1.492-15.8021-13.2135-11.1456-14.4875-16.1902-23.168-23.1451-36.0428-10.4948-19.4277-12.9696-32.9769-10.4621-45.7894 1.7626-9.0064 3.1552-12.8875 12.9273-34.3877 14.055-30.9233 20.888-40.6233 42.066-61.7275 15.8582-15.803 21.5647-19.9823 37.3944-24.4528 5.0797-1.4345 13.5423-4.5757 18.9127-7.3063 11.5033-5.849 30.0931-11.6626 44.0987-13.8152 28.5726-4.3915 64.5817 3.3304 91.743 20.4843 5.3419 3.3737 7.4345 4.4775 14.1657 5.2306 14.5823 1.6314 27.903 8.8892 40.7623 21.6909 13.6938 13.6324 23.6005 30.6776 37.8504 64.613 9.1682 21.834 10.7217 25.049 10.127 36.674-.604 11.8058-2.7866 17.2516-11.2504 34.4854-5.6486 11.5013-24.648 40.2842-31.1895 47.25-3.392 3.612-7.9863 4.247-10.3767 1.583-2.2832-2.5447-12.3092-22.2263-14.24-28.0392-1.6112-4.851-1.1679-4.491 1.7623-19.361 4.3437-22.0438 5.9793-33.5025 5.3692-50.226-.5611-15.382-4.18-30.2003-8.0237-36.7817-2.4662-4.2226-4.703-5.116-8.0956-2.8931-3.3123 2.1702-3.0695 4.1795.1485 14.8338 6.1989 20.5232 6.0437 46.2527-.8429 74.0066-3.3844 13.6397-3.2293 21.3485-.2733 27.0198 1.2136 2.3282 1.606 6.6066 1.606 7.5789 0 2.3658-8.3226 14.6488-15.7385 24.0995-6.5809 8.3866-13.919 15.0826-24.5035 20.7995-7.8641 4.2476-8.6443 5.3377-6.9088 9.1466.6217 1.3645 3.8416 2.391 5.3126 2.7601 2.365.5936-1.5298 1.9743-8.4579 4.5001-4.309 1.571-11.0183 3.2252-11.4615 3.2252-.4432 0 .8256-1.9994.8468-3.5119zm-8.9178-92.3244s10.282-5.6942 10.282-9.2013c0-1.5412-2.2271-6.7086-4.815-12.5839-3.4329-7.7935-4.462-10.6483-6.5126-11.8953-3.4534-2.1002-22.8368-3.0916-39.8618-2.1792-10.842.581-11.2967.1648-14.5441 3.0161-4.0424 3.5493-6.3622 9.1464-9.3113 18.7101-2.1119 6.8487-2.4095 6.9824-.5546 9.474 1.0376 1.3938 5.236 3.1821 9.411 5.4777l8.0776 2.8421 20.072.1975 19.793.0293 6.439-3.8336zm-77.2582-72.2405c8.84-4.641 7.6091-15.4213.0985-19.9783-3.4757-2.1088-10.3443-1.2257-13.994 2.424-7.2443 10.5145.822 24.4178 13.8954 17.5543zm119.5961.1581c3.522-3.264 4.8814-7.1258 4.1118-11.6809-1.8744-11.0946-13.4687-12.375-20.4032-4.7418-3.2689 3.5983-2.5778 9.9342-.2506 12.8788 4.7227 5.9755 11.7418 7.9926 16.542 3.5439z" style="fill:#f6a71a" transform="matrix(.11027 0 0 .11027 -4.6547 41.5517)"/><path d="M224 366.3598c-17.801-3.3506-24.4362-8.4508-30.7483-23.6352-2.2328-5.3711-2.7557-8.785-3.8137-24.8987-.6743-10.2707-1.5268-19.1605-1.8943-19.7552-.3675-.5946-4.9229-4.4683-10.123-8.6082C162.0943 277.261 158 269.704 158 253.6175c0-7.747.3066-9.585 1.8287-10.9625 2.2921-2.0743 5.0785-2.1088 7.9488-.0983 1.8594 1.3024 2.2225 2.498 2.2225 7.3185 0 14.7848 8.7562 28.3778 22.3604 34.7122 8.3321 3.8796 12.9518 3.3469 21.9568-2.5316 9.3302-6.0908 10.6779-8.4537 10.6981-18.7561.0165-8.4143.3402-9.3979 3.669-11.15 3.1332-1.6492 5.0375-1.428 7.3157.8503 1.6778 1.6778 2 3.3333 2 10.2775 0 5.7946.4568 8.9297 1.5229 10.4517.8376 1.1959 5.2752 4.671 9.8614 7.7225 10.3162 6.8642 13.2118 7.1168 23.3633 2.0382 13.0005-6.5039 19.1697-15.6309 20.1755-29.8484.542-7.66.9428-9.1145 2.9626-10.75 2.9231-2.367 5.269-2.3966 8.1026-.102 4.636 3.754 3.5022 18.6838-2.2408 29.507-3.6696 6.9157-17.1579 20.1008-24.0636 23.5228-2.9488 1.4612-4.851 3.1262-5.1412 4.5-.2533 1.1994-1.1082 10.0557-1.8998 19.6807-1.2424 15.106-1.86 18.5817-4.5143 25.4076-4.1168 10.5865-7.2013 14.765-13.4201 18.1795-4.7006 2.5809-6.2323 2.8784-15.7085 3.0515-5.775.1055-11.625-.02-13-.2788zm20.599-13.2652c2.2543-1.0239 5.0455-3.191 6.2026-4.816 5.1399-7.2183 9.6434-27.84 9.0058-41.2381l-.3074-6.4595-6.0483-2.0788c-6.3683-2.1887-10.5142-4.717-16.7046-10.1864-2.064-1.8237-4.208-3.3158-4.7641-3.3158-.5562 0-3.5016 2.0284-6.5454 4.5076-7.245 5.9012-14.4248 9.4667-20.5155 10.188-2.9468.349-4.9221 1.0824-4.9221 1.8273 0 2.5597 4.0959 31.8256 5.127 36.6337 1.1793 5.4988 5.6273 11.4063 9.8111 13.0304 4.2321 1.6428 15.2301 3.6203 20.5619 3.697 2.887.0417 6.7322-.7146 9.099-1.7894zm555.1761-13.6534c-1.4986-.8133-3.1906-2.349-3.7599-3.4128-.9105-1.7013-.62-2.0119 2.4134-2.581 2.4005-.4503 4.1425-.1608 5.7324.9528 2.8837 2.0198 5.7737 2.0343 8.6165.0431 1.7238-1.2074 2.2225-2.5436 2.2225-5.9546v-4.3978l-2.576 2.576c-2.2117 2.2117-3.2075 2.5049-7.0406 2.0729-2.4555-.2768-5.4084-1.344-6.562-2.3715-7.4106-6.601-5.7118-22.427 2.7886-25.9787 4.259-1.7796 7.8914-1.1735 11.14 1.8588l2.25 2.1002v-2.1743c0-1.87.5598-2.1743 4-2.1743h4v16.0497c0 17.7837-.7519 20.7364-5.9673 23.4334-3.7326 1.9302-13.668 1.906-17.2576-.042zm13.6682-18.6637c2.4826-3.5444 2.0202-10.4049-.8979-13.323-2.8517-2.8517-4.275-3.0326-7.283-.9258-3.8245 2.6788-4.2264 11.3645-.6895 14.9014 2.3312 2.3311 7.0222 1.986 8.8704-.6526zm-530.705 7.486c-2.2325-2.467-2.227-6.5232.0117-8.4945.9625-.8476 4-2.6692 6.75-4.0482 12.5326-6.2844 23.1755-16.8847 34.2278-34.0909 6.392-9.9509 6.5346-10.5743 3.6997-16.1739-3.1692-6.26-3.1699-13.3306-.003-26.7355 3.7028-15.6707 5.5758-30.2543 5.5675-43.3488-.009-13.7914-1.0924-21.6303-4.5903-33.207-3.0827-10.2025-2.892-13.1776.9626-15.0169 2.5555-1.2194 3.1492-1.1563 5.5.5841 5.2186 3.8637 9.8395 20.6047 10.8447 39.2886.6961 12.9411-.9253 29.7413-4.7755 49.4795-1.6092 8.25-2.9277 16.377-2.93 18.06-.002 1.8103 2.9566 8.9565 7.246 17.5 6.534 13.0137 7.528 14.4719 10.0647 14.7627 1.548.1774 3.8002-.3232 5.005-1.1125 2.6327-1.7251 22.5224-29.9648 29.0551-41.2533 6.3382-10.952 13.238-28.2325 14.6753-36.7538 2.0354-12.067.5757-18.1802-10.7905-45.1928-12.6191-29.9902-22.4097-46.6451-35.1798-59.8453-13.2302-13.6757-26.6103-21.0147-41.3849-22.6998-7.0785-.8073-9.0437-1.5176-16.1278-5.8288-14.4085-8.7688-23.5214-12.5933-39.5398-16.5939-19.4305-4.8527-37.1601-5.8687-53.2993-3.0543-13.1668 2.2961-31.3654 8.174-40.448 13.064-4.521 2.4341-13.071 5.8371-19 7.5622-17.47 5.083-20.7002 7.1919-38.7987 25.331-21.7886 21.8374-27.1664 29.8476-41.7614 62.203C55.9759 188.6821 55.4974 190.291 55.567 203.5c.0724 13.7042 2.3902 21.08 12.6827 40.3606 7.0317 13.1723 12.123 20.8072 24.5962 36.8852 11.1609 14.3864 12.7474 13.4461 25.2495-14.9639l3.9572-8.9924-2.4429-11.1447c-4.0284-18.378-5.0601-28.1879-5.0637-48.1448-.003-17.5427.2221-19.9541 2.936-31.4396 3.205-13.563 5.3309-17.3104 9.8202-17.3104 5.6231 0 7.1885 4.7718 4.2746 13.0306-5.7088 16.1804-5.9232 44.1023-.5584 72.7194 3.7438 19.9707 3.9658 24.384 1.5446 30.7069-2.6492 6.9183-1.6137 10.1721 6.6678 20.9532 10.3199 13.4347 17.9946 20.6207 27.5973 25.8399 11.0612 6.0119 13.1713 7.6947 13.1713 10.5045 0 2.4005-4.5117 6.4963-7.1544 6.4947-2.4359-.001-14.107-6.0103-20.4102-10.508-6.621-4.7247-16.1906-14.9378-23.8851-25.4912-2.6066-3.575-4.8915-6.6573-5.0775-6.8494-.186-.1922-1.487 1.9174-2.891 4.688-4.7284 9.331-13.7732 13.4816-23.2475 10.668-5.449-1.6183-7.4682-3.5231-18.027-17.0066-25.102-32.0546-38.6684-63.6251-36.9496-85.9854.7875-10.2459 2.2465-15.0799 10.042-33.272 9.3584-21.8396 12.6948-27.9884 25.6488-47.2695 21.5642-32.0967 37.3067-45.9065 61.0408-53.5468 4.6262-1.4892 14.42-5.3587 21.764-8.5988 27.2992-12.0442 54.0207-17.1027 78.2665-14.8162 23.0352 2.1722 36.761 6.2654 60.4256 18.0194C308.3696 63.4137 316.7126 67 318.0848 67c4.3629 0 14.1713 2.9482 21.8355 6.5632 26.0144 12.2704 48.034 40.357 65.1908 83.1529 11.3258 28.2511 11.3712 28.4202 11.353 42.2839-.0157 11.8272-.2197 13.0921-3.7905 23.5-2.0756 6.05-6.4078 16.4233-9.627 23.0518-9.9235 20.4332-29.6266 48.0586-37.229 52.1982-8.7635 4.7718-20.747 1.8005-25.7022-6.3727-1.4385-2.3728-2.869-4.3283-3.1791-4.3457-.31-.0174-3.6217 4.2115-7.3592 9.3976-10.0844 13.9929-21.5742 24.7755-31.0804 29.1677-9.9406 4.5928-13.474 5.1907-15.7583 2.6665zm266.1596-.5334c-11.3786-7.6014-8.0766-26.0036 5.0643-28.2237C562.3249 298.0935 570 304.5038 570 312.901V316h-10c-8.916 0-10 .1927-10 1.7775 0 .9776.7005 2.7776 1.5567 4 1.882 2.687 7.4865 3.0364 9.9054.6175 1.1761-1.176 2.5532-1.4271 5.1532-.9393 3.3765.6334 3.4796.7715 2.1322 2.855-3.6391 5.627-13.8993 7.3944-19.8496 3.4194zM563 311.4343c0-1.0897-2.3098-4.9412-3.3997-5.669-3.196-2.134-9.6003 1.0244-9.6003 4.7347 0 1.1795 1.3889 1.5 6.5 1.5 3.575 0 6.5-.2546 6.5-.5657zM663.8979 327.73c-11.3786-7.6014-8.0766-26.0036 5.0643-28.2237 8.394-1.4181 16.0378 4.7512 16.0378 12.944V316h-10c-8.916 0-10 .1927-10 1.7775 0 .9776.7005 2.7776 1.5567 4 1.882 2.687 7.4866 3.0364 9.9054.6175 1.1761-1.176 2.5532-1.4271 5.1532-.9393 3.3765.6334 3.4796.7715 2.1322 2.855-3.6391 5.627-13.8993 7.3944-19.8496 3.4194zM678 311.4343c0-1.0897-2.3098-4.9412-3.3997-5.669-3.196-2.134-9.6003 1.0244-9.6003 4.7347 0 1.1795 1.3889 1.5 6.5 1.5 3.575 0 6.5-.2546 6.5-.5657zm53.3154 17.5587c-3.449-1.3896-4.3154-4.2048-4.3154-14.0209 0-8.3183-.1836-9.2074-2-9.6823-1.2943-.3385-2-1.364-2-2.9064 0-1.7167.5594-2.3834 2-2.3834 1.6716 0 2-.6667 2-4.0604v-4.0603l3.75.3103c3.5464.2936 3.7668.514 4.0604 4.0604.2668 3.2238.6527 3.75 2.75 3.75 1.9356 0 2.4396.5165 2.4396 2.5 0 2.0099-.4975 2.5-2.5375 2.5h-2.5375l.2875 9.25c.2694 8.669.4259 9.2697 2.4902 9.5634 2.2604.3215 3.915 3.378 2.8028 5.1776-.7531 1.2187-6.1675 1.2199-9.1901.002zm118.1499.0555c-3.7105-1.504-4.3823-3.4582-4.6767-13.6045-.2743-9.4497-.4004-9.9598-2.5386-10.2635-1.6078-.2283-2.25-.9935-2.25-2.6805 0-1.687.6422-2.452 2.25-2.6804 1.8073-.2567 2.311-1.0573 2.5604-4.0696.2923-3.5323.5065-3.75 3.6896-3.75 3.183 0 3.3973.2177 3.6896 3.75.2695 3.2557.6729 3.7918 3.0604 4.0665 2.1364.2458 2.75.8446 2.75 2.6835 0 1.839-.6136 2.4378-2.75 2.6836-2.7103.3119-2.7542.4296-3.0438 8.1612-.3066 8.1884.573 10.6552 3.7997 10.6552 2.243 0 3.3238 4.6596 1.264 5.45-1.9769.7586-5.3737.5839-7.8046-.4015zm54.5964-.8757c-9.1216-4.892-9.5503-20.8752-.7152-26.6641 9.0685-5.942 21.6535.7565 21.6535 11.5252V316h-10c-9.8238 0-10 .0413-10 2.345 0 4.912 7.2385 7.5591 11.1041 4.0608 1.2376-1.12 2.6739-1.3938 4.8287-.9205 3.4407.7556 3.4926.8514 1.9867 3.6651-2.4677 4.6109-12.8062 6.2678-18.8578 3.0223zM917 310.3288c0-2.4189-2.9666-5.3288-5.4325-5.3288-2.9919 0-6.5675 2.753-6.5675 5.0567 0 1.7085.725 1.9433 6 1.9433 4.94 0 6-.2953 6-1.6713zm142.4214 17.7749c-7.5873-3.446-11.0731-10.8233-10.1214-21.4203 1.2506-13.9242 13.8614-21.4248 26.4293-15.7196 4.2502 1.9294 8.2598 6.9183 8.267 10.2862 0 1.3756-.852 1.75-3.9963 1.75-2.7985 0-4-.4288-4-1.4274 0-2.2734-4.9804-5.5726-8.4124-5.5726-6.2451 0-10.5876 5.537-10.5876 13.5s4.3425 13.5 10.5876 13.5c3.432 0 8.4124-3.2992 8.4124-5.5726 0-.9986 1.2015-1.4274 4-1.4274 4.6937 0 5.1253 1.4431 1.9623 6.561-4.1196 6.6657-14.4664 9.21-22.5409 5.5427zm67.6126.1447c-4.8172-2.43-7.1769-6.944-7.1769-13.7295 0-7.2153 2.6836-11.7178 8.3308-13.9774 7.9154-3.1671 16.6714.6906 18.7773 8.2728 2.0259 7.2943 2.1605 7.1857-8.9062 7.1857-5.4675 0-10.2133.4407-10.5462.9793-.6748 1.0918 1.1834 5.118 2.8869 6.2554 1.9325 1.2904 6.8836.8189 8.7044-.829 1.2376-1.12 2.6739-1.3937 4.8287-.9204 3.3621.7384 3.6041 1.2278 1.7854 3.611-3.5992 4.7164-12.58 6.2315-18.6842 3.1522zM1140 310.5c0-2.3135-3.7238-5.5-6.4274-5.5-2.2536 0-6.5726 4.0314-6.5726 6.1349 0 .4758 2.925.8651 6.5.8651 5.1111 0 6.5-.3205 6.5-1.5zm53.3028 18.3277c-3.1046-1.5348-4.3028-5.8447-4.3028-15.477 0-7.684-.1597-8.3507-2-8.3507-1.4667 0-2-.6667-2-2.5 0-1.8074.5374-2.5 1.9396-2.5 1.5195 0 2.0069-.8122 2.25-3.75.2935-3.5464.514-3.7668 4.0604-4.0604l3.75-.3103v4.0603c0 3.8449.1592 4.0604 3 4.0604 2.5115 0 3 .3963 3 2.4336 0 1.9114-.59 2.5014-2.75 2.75-2.7413.3154-2.7509.344-3.0392 9.0836l-.2892 8.7671 3.0925.6185c2.6226.5245 3.0465 1.0158 2.7892 3.2329-.257 2.2152-.8376 2.6459-3.8033 2.8212-1.925.1139-4.4888-.2818-5.6972-.8792zM508 309.414v-19.5861l11.4223.336c10.474.3082 11.6365.5375 14.0016 2.7618 5.3506 5.0323 5.281 14.8015-.136 19.0624l-2.6637 2.0953 3.6879 6.828c2.0283 3.7553 3.6879 7.1115 3.6879 7.4582 0 .3467-1.7736.6304-3.9414.6304-3.8497 0-4.03-.1627-7.75-6.9933-3.5058-6.4374-4.067-6.9938-7.0586-7L516 315v14h-8zm19.0142-2.2244c1.3775-1.1154 2.2358-2.9157 2.2358-4.6896 0-4.0124-3.3911-6.5-8.8608-6.5H516v13h4.3892c2.746 0 5.2262-.6778 6.625-1.8104zM577 314.5V300h8v29h-8zm16 0V300h3.5c3.1182 0 3.5.2887 3.5 2.646v2.646l2.4148-2.6055c4.5093-4.8657 11.0943-4.5606 15.0243.6961 1.741 2.3287 2.113 4.5307 2.397 14.187L620.172 329H612v-9.9286C612 308.023 611.0692 306 605.9853 306c-4.6729 0-5.9853 3.009-5.9853 13.7225V329h-7zm36.601 1.25c-2.6738-7.2875-5.076-13.8125-5.3382-14.5-.333-.8732.749-1.25 3.5902-1.25h4.067l3.7372 11.6583c2.0555 6.4121 3.8285 11.2496 3.94 10.75.1115-.4996 1.6731-5.7458 3.4703-11.6583L646.335 300h3.8325c2.1079 0 3.8325.3146 3.8325.699 0 .3845-2.299 6.9095-5.1088 14.5L643.7824 329h-9.32zM691 314.5V300h4c3.6546 0 4 .2275 4 2.6349v2.6348l2.0122-2.558c1.1067-1.407 3.31-2.8432 4.8964-3.1916 3.5629-.7826 9.5309 1.564 11.011 4.3295.5952 1.1124 1.0804 7.2121 1.0804 13.5847V329h-7v-9.2775C711 309.073 709.6784 306 705.0983 306c-4.949 0-6.0983 2.5119-6.0983 13.3287V329h-8zm55 0V300h8v29h-8zm15 0V300h3.5c3.1317 0 3.5.2828 3.5 2.687v2.6872l2.75-2.5748c3.6653-3.4317 6.5633-4.1811 10.783-2.7885 5.3085 1.752 6.467 4.9657 6.467 17.9394V329h-8v-10.3c0-11.1793-.6141-12.7-5.1286-12.7-4.9322 0-5.8714 2.091-5.8714 13.0714V329h-8zm103-5V290h7l.0222 7.75c.0215 7.5008.0778 7.6814 1.75 5.617 4.1552-5.1297 10.9006-5.4706 15.3178-.7741 2.2204 2.3607 2.4362 3.5002 2.7437 14.4847L891.1675 329H883v-9.8089c0-11.5534-.9047-13.5097-6.0213-13.0198-4.7308.453-5.9458 3.3211-5.964 14.0787L871 329h-7zm84.8282.011 6.6718-19.489 5.5-.005 5.5-.005 6.7057 19.4936 6.7057 19.4936h-4.3724c-4.255 0-4.4103-.114-5.789-4.25l-1.4167-4.25h-14.6666l-1.4167 4.25c-1.3764 4.1293-1.54 4.25-5.7552 4.25h-4.3385l6.6719-19.489zm16.7958 2.739c-.281-.9625-1.2664-4.45-2.1898-7.75-.9235-3.3-1.923-6.4143-2.2212-6.9207-.4515-.767-5.1145 13.3145-5.1892 15.6707-.0131.4125 2.2565.75 5.0436.75 4.354 0 4.9955-.2464 4.5566-1.75zM986 309.5V290h10.0497c11.3433 0 14.9937 1.2495 17.4334 5.9673 1.8012 3.483 1.9749 9.9335.3628 13.4716-1.8302 4.0167-5.6998 5.9037-13.3459 6.508l-7 .5531-.2977 6.25-.2977 6.25H986Zm19-1.5c2.596-2.596 2.5707-7.4294-.053-10.0526-1.6036-1.6036-3.0805-1.9865-6.75-1.75l-4.697.3026-.2957 6.75-.2957 6.75h5.0457c3.7124 0 5.5742-.5285 7.0457-2zm16 1.5V290h8v39h-8zm70 0V290h7v39h-7zm15 5V300h7v29h-7zm48 0V300h3.5c3.1461 0 3.5022.278 3.5222 2.75l.022 2.75 1.7277-2.133c4.1553-5.1297 10.9006-5.4706 15.3179-.7741 2.2203 2.3607 2.4362 3.5002 2.7436 14.4847l.3338 11.9224h-8.1675v-9.8089c0-11.5534-.9047-13.5097-6.0213-13.0198-4.7308.453-5.9458 3.3211-5.964 14.0787L1161 329h-7zm-575.757-20.657c-3.2559-3.2559.6921-8.0185 4.817-5.811 3.0487 1.6317 2.3014 6.3673-1.067 6.761-1.3789.1611-3.0664-.2664-3.75-.95zm168.4237.4903c-1.4046-1.4045-.5829-5.3078 1.3333-6.3333 4.037-2.1606 7.9873 2.6127 4.8 5.8-1.2935 1.2935-5.0468 1.6199-6.1333.5333zm359.2354-1.5163c-.9887-1.8473-.8409-2.4482.9611-3.9073 2.5439-2.0599 5.8315-1.4471 6.6863 1.2463 1.4105 4.4442-5.4209 6.8213-7.6474 2.661zm-900.201-50.2024c-10.9136-4.826-12.7036-6.1504-12.6877-9.3877.0206-4.1932 5.4437-18.8264 8.4265-22.737 4.8933-6.4154 5.9688-6.6266 32.0306-6.291 22.76.2932 23.4361.361 25.8008 2.5843C261.906 209.2606 271 228.5809 271 231.7013c0 3.1423-2.0293 4.8417-11.7292 9.8223-9.031 4.6371-9.3746 4.7256-16 4.1195-8.083-.7395-20.2258-.7781-25.7708-.082-3.1132.3908-5.729-.2624-11.799-2.9465zM955 239.1857c-21.0215-5.4947-33.9653-24.0482-33.9653-48.6857 0-24.7141 12.9312-43.6542 33.4254-48.9577 7.6383-1.9766 21.4415-1.9766 29.0798 0 20.4367 5.2886 33.4254 24.313 33.4254 48.9577 0 19.9104-8.8809 36.7266-23.6192 44.7235-10.3943 5.6399-25.827 7.2345-38.3461 3.9622zm23-20.709c4.7528-2.4462 9.7002-9.7585 11.4126-16.868 1.27-5.2722.7017-19.9337-.9925-25.6087-2.2182-7.4303-9.106-14.4522-15.1701-15.4656-7.5205-1.2567-12.2263.1878-17.389 5.338C950.0477 171.6711 948 177.9563 948 190c0 16.6009 5.872 27.534 16.1228 30.0194 3.995.9687 10.3762.2593 13.8772-1.5426zm-255.7069 20.131c-8.8113-2.872-15.5724-9.6525-19.4984-19.5543-2.0973-5.2895-2.2201-7.276-2.584-41.8034l-.382-36.25h26.0459l.3127 32.25c.3111 32.0845.3252 32.2719 2.7519 36.509 4.0795 7.1232 11.2157 10.1112 19.6395 8.2234 6.1375-1.3755 9.9403-4.1665 12.694-9.3166 2.147-4.0158 2.2386-5.3094 2.5408-35.9158l.3135-31.75H790v98h-25l-.0121-10.25-.012-10.25-2.5547 4.5c-3.3638 5.9254-8.9662 11.668-13.9212 14.2698-5.0694 2.662-19.8323 3.4156-26.2069 1.3379zM508 173.5V108h28.912c38.701 0 46.1193 1.457 56.5987 11.1166 5.423 4.9988 8.4165 11.2976 9.1617 19.278 1.4102 15.1013-6.3892 26.1055-21.9858 31.0199-2.7454.865-1.206 2.2525 3.1473 2.8364 8.7428 1.1726 16.8526 7.4053 21.2432 16.3262 2.0484 4.162 2.4229 6.3914 2.4229 14.4229 0 8.3808-.33 10.1718-2.8004 15.2026-5.059 10.3022-15.2026 17.2377-29.0525 19.8643-2.706.5132-19.0337.9331-36.2836.9331H508Zm61.753 42.1679c14.3359-5.2002 14.6837-24.8444.563-31.7968-4.4394-2.1857-6.028-2.3711-20.316-2.3711h-15.5l-.273 17.75-.2731 17.75 16.273-.0761c9.8025-.0458 17.5666-.5453 19.526-1.256zm-1.0832-55.8287c9.8285-6.5091 9.8338-19.959.0107-27.2473-2.5327-1.8791-4.4398-2.1243-18.75-2.4107L534 129.8624V163.1795l15.3261-.3397c14.6425-.3247 15.5053-.4585 19.3437-3.0006zM627 190v-49h25v8.5c0 4.675.3375 8.4983.75 8.4962.4125-.002 1.5772-2.0153 2.5883-4.4738 2.017-4.905 7.1875-10.0085 12.3068-12.1475 1.8099-.7562 6.4551-1.3749 10.3228-1.3749H685v23.2754l-5.4419-.6396c-8.0656-.948-15.0193.8835-19.8275 5.222-6.6521 6.0025-6.7306 6.476-6.7306 40.61V239h-26zm186 0v-49h24v4.8604c0 2.6733.2887 6.9665.6415 9.5405l.6415 4.6801 2.811-4.922C846.9488 144.9077 855.8668 140 868.6406 140c13.8968 0 23.7252 5.9062 29.5674 17.7678l3.292 6.684.3156 37.274.3157 37.2742H876v-31.5321c0-26.1138-.2643-32.1647-1.5381-35.2134-3.0747-7.3588-8.084-10.5775-16.4619-10.5775-8.4182 0-14.233 3.8498-17.4523 11.5545C839.2636 176.305 839 182.2207 839 207.968V239h-26Zm-641.8102-20.3529c-7.9774-4.4267-8.0624-16.3376-.15-21.0116 3.114-1.8394 10.1028-2.1648 13.0156-.6059C186.9018 149.553 189 154.32 189 159.2633c0 3.4565-.5712 4.9074-2.75 6.986-4.7828 4.5627-10.597 5.8745-15.0602 3.3978zm118.5713-.7095c-5.4945-2.9009-7.1388-5.9332-6.2893-11.5983 1.0425-6.9519 4.827-10.3393 11.5513-10.3393 4.5541 0 5.586.409 8.5769 3.4 2.9949 2.9949 3.4 4.0196 3.4 8.6s-.4051 5.6051-3.4 8.6c-4.0121 4.0121-8.0364 4.4011-13.8389 1.3376z" style="fill:#161414" transform="matrix(.11027 0 0 .11027 -4.6547 41.5517)"/><path d="M224 353.4968c-3.575-.7234-7.6528-1.7628-9.0619-2.3098-4.1838-1.624-8.6318-7.5316-9.8111-13.0304-1.0311-4.808-5.127-34.074-5.127-36.6337 0-.745 1.9753-1.4783 4.922-1.8273 6.0908-.7213 13.2705-4.2868 20.5156-10.188 3.0438-2.4792 5.9892-4.5076 6.5454-4.5076.5562 0 2.7 1.4921 4.7641 3.3158 6.1904 5.4695 10.3363 7.9977 16.7046 10.1864l6.0483 2.0788.3074 6.4595c.6376 13.3981-3.866 34.0198-9.0058 41.2382-4.4383 6.233-13.2797 7.9543-26.8016 5.218z" style="fill:#e25137" transform="matrix(.11027 0 0 .11027 -4.6547 41.5517)"/></svg>
