<svg xmlns="http://www.w3.org/2000/svg" viewBox="0 0 128 128"><path d="M20.0458 81.9501c-1.963-.3694-2.6946-.9318-3.3906-2.6062-.2462-.5923-.3039-.9687-.4206-2.7456-.0743-1.1325-.1683-2.1128-.2088-2.1784-.0406-.0655-.5429-.4927-1.1163-.9492-1.69-1.3454-2.1415-2.1788-2.1415-3.9526 0-.8543.0338-1.057.2016-1.2089.2528-.2287.56-.2325.8765-.0108.205.1436.2451.2755.2451.807 0 1.6303.9656 3.1292 2.4657 3.8277.9188.4278 1.4282.369 2.4212-.2791 1.0288-.6717 1.1774-.9322 1.1796-2.0683.0018-.9278.0375-1.0363.4046-1.2295.3455-.1818.5555-.1574.8067.0938.185.185.2206.3675.2206 1.1333 0 .639.0503.9846.1679 1.1525.0923.1318.5817.515 1.0874.8515 1.1376.757 1.4569.7848 2.5763.2248 1.4335-.7172 2.1138-1.7236 2.2247-3.2914.0598-.8447.104-1.005.3267-1.1854.3223-.261.581-.2643.8935-.0112.5112.414.3862 2.0602-.2471 3.2537-.4047.7626-1.892 2.2165-2.6535 2.5939-.3252.161-.535.3447-.567.4962-.0278.1322-.1221 1.1088-.2094 2.1702-.137 1.6657-.2051 2.049-.4978 2.8016-.454 1.1674-.794 1.6282-1.4798 2.0047-.5184.2846-.6873.3174-1.7322.3365-.6368.0116-1.2819-.0022-1.4335-.0308zm2.2714-1.4627c.2486-.1129.5564-.3519.684-.531.5668-.796 1.0634-3.07.993-4.5474l-.0338-.7123-.667-.2292c-.7022-.2414-1.1594-.5201-1.842-1.1233-.2276-.201-.464-.3656-.5253-.3656-.0614 0-.3862.2237-.7218.497-.799.6508-1.5906 1.044-2.2622 1.1235-.325.0385-.5428.1193-.5428.2015 0 .2823.4516 3.5094.5654 4.0396.13.6063.6205 1.2578 1.0818 1.4368.4667.1812 1.6794.3993 2.2674.4077.3183.0046.7423-.0788 1.0033-.1973zm61.2192-1.5056c-.1652-.0896-.3518-.259-.4146-.3763-.1004-.1876-.0684-.2218.2661-.2846.2648-.0497.4568-.0177.6322.105.318.2228.6366.2244.9501.0049.19-.1332.245-.2805.245-.6566v-.485l-.284.284c-.2439.244-.3537.2762-.7763.2286-.2708-.0305-.5964-.1482-.7236-.2615-.8172-.7279-.6299-2.473.3075-2.8647.4696-.1962.8701-.1294 1.2284.205l.248.2316v-.2398c0-.2062.0618-.2397.4412-.2397h.441v1.7698c0 1.961-.0829 2.2866-.658 2.584-.4116.2128-1.5071.2101-1.903-.0046zm1.5072-2.058c.2738-.3908.2228-1.1474-.099-1.4691-.3144-.3145-.4714-.3344-.803-.1021-.4218.2954-.4661 1.2531-.076 1.6432.257.257.7743.219.978-.072zm-58.5207.8255c-.2462-.272-.2456-.7193.0013-.9367.106-.0935.441-.2944.7443-.4464 1.382-.693 2.5555-1.8619 3.7743-3.7592.7048-1.0973.7205-1.166.408-1.7835-.3495-.6903-.3496-1.47-.0004-2.9481.4083-1.728.6149-3.3362.614-4.78-.001-1.5209-.1205-2.3853-.5062-3.6618-.34-1.125-.319-1.4531.1061-1.656.2818-.1344.3473-.1274.6065.0645.5754.426 1.085 2.272 1.1958 4.3323.0768 1.427-.102 3.2796-.5265 5.4561-.1775.9098-.3229 1.806-.3231 1.9915-.0003.1996.326.9876.799 1.9297.7205 1.435.83 1.5958 1.1098 1.6279.1707.0196.419-.0356.5519-.1227.2903-.1902 2.4835-3.3042 3.204-4.549.6988-1.2076 1.4597-3.1132 1.6181-4.0528.2245-1.3306.0635-2.0047-1.1898-4.9834-1.3915-3.307-2.4711-5.1436-3.8793-6.5991-1.4589-1.508-2.9343-2.3173-4.5635-2.5031-.7805-.089-.9972-.1674-1.7784-.6428-1.5888-.967-2.5937-1.3886-4.36-1.8298-2.1427-.5351-4.0977-.6471-5.8774-.3368-1.4519.2532-3.4586.9013-4.4602 1.4406-.4985.2684-1.4413.6436-2.095.8339-1.9265.5605-2.2827.793-4.2784 2.7932-2.4026 2.408-2.9957 3.2913-4.605 6.8591-1.295 2.8708-1.3478 3.0482-1.34 4.5047.008 1.5112.2635 2.3245 1.3984 4.4506.7754 1.4525 1.3368 2.2944 2.7123 4.0673 1.2307 1.5864 1.4056 1.4827 2.7842-1.65l.4364-.9916-.2694-1.229c-.4442-2.0265-.558-3.1083-.5584-5.3089-.0003-1.9344.0245-2.2003.3238-3.4668.3534-1.4956.5878-1.9089 1.0829-1.9089.62 0 .7926.5262.4713 1.437-.6295 1.7841-.6531 4.863-.0616 8.0187.4129 2.2022.4374 2.6888.1704 3.386-.2922.763-.178 1.1217.7352 2.3105 1.138 1.4815 1.9843 2.2739 3.0432 2.8494 1.2197.663 1.4524.8485 1.4524 1.1583 0 .2647-.4975.7164-.789.7162-.2686-.0001-1.5555-.6627-2.2506-1.1587-.73-.521-1.7853-1.6472-2.6338-2.811-.2874-.3941-.5394-.734-.5599-.7552-.0205-.0212-.164.2114-.3188.517-.5214 1.0289-1.5187 1.4866-2.5635 1.1763-.6008-.1785-.8235-.3885-1.9878-1.8753-2.768-3.5347-4.264-7.016-4.0744-9.4816.0868-1.1298.2477-1.6629 1.1073-3.669 1.032-2.4082 1.3999-3.0862 2.8283-5.2123 2.3779-3.5393 4.1138-5.0621 6.731-5.9046.51-.1642 1.59-.591 2.3999-.9482 3.0102-1.3281 5.9568-1.886 8.6304-1.6338 2.54.2395 4.0536.6909 6.6631 1.987.9731.4833 1.8931.8788 2.0444.8788.4811 0 1.5627.325 2.4078.7237 2.8686 1.353 5.2967 4.4502 7.1886 9.1693 1.2489 3.1152 1.2539 3.1339 1.2519 4.6626-.0017 1.3042-.0242 1.4437-.418 2.5913-.2289.6672-.7066 1.811-1.0615 2.542-1.0943 2.2531-3.267 5.2994-4.1053 5.7559-.9663.5261-2.2878.1985-2.8342-.7028-.1586-.2616-.3163-.4772-.3505-.4792-.0342-.0019-.3994.4644-.8115 1.0363-1.112 1.543-2.379 2.732-3.4273 3.2163-1.0961.5065-1.4857.5724-1.7376.294zm29.3493-.0588c-1.2547-.8383-.8906-2.8675.5585-3.1123.9221-.1558 1.7685.5511 1.7685 1.477v.3418h-1.1027c-.9832 0-1.1027.0212-1.1027.196 0 .1078.0772.3063.1716.441.2076.2964.8256.3349 1.0923.0682.1297-.1297.2815-.1574.5682-.1036.3724.0698.3837.085.2351.3148-.4012.6205-1.5326.8154-2.1888.377zm1.555-1.797c0-.1201-.2546-.5448-.3748-.6251-.3524-.2353-1.0586.113-1.0586.5221 0 .13.1531.1654.7167.1654.3942 0 .7168-.028.7168-.0624zm11.126 1.797c-1.2547-.8383-.8905-2.8675.5585-3.1123.9256-.1563 1.7685.524 1.7685 1.4274v.3914h-1.1027c-.9832 0-1.1027.0212-1.1027.196 0 .1078.0773.3063.1717.441.2075.2964.8255.3349 1.0922.0682.1297-.1297.2816-.1574.5683-.1036.3723.0698.3837.085.235.3148-.4012.6205-1.5326.8154-2.1887.377zm1.5551-1.797c0-.1201-.2547-.5448-.3749-.6251-.3524-.2353-1.0586.113-1.0586.5221 0 .13.1531.1654.7167.1654.3943 0 .7168-.028.7168-.0624zm5.879 1.9362c-.3802-.1532-.4758-.4636-.4758-1.546 0-.9173-.0203-1.0154-.2205-1.0677-.1427-.0374-.2206-.1504-.2206-.3205 0-.1893.0617-.2628.2206-.2628.1843 0 .2205-.0735.2205-.4478v-.4477l.4135.0342c.3911.0324.4154.0567.4478.4477.0294.3555.072.4136.3032.4136.2135 0 .269.057.269.2756 0 .2217-.0549.2757-.2798.2757h-.2798l.0317 1.02c.0297.956.047 1.0222.2746 1.0546.2493.0354.4317.3725.309.5709-.083.1344-.68.1345-1.0133.0002zm13.0285.0061c-.4092-.1658-.4833-.3813-.5157-1.5001-.0302-1.042-.0442-1.0983-.28-1.1318-.1773-.0252-.248-.1096-.248-.2956 0-.186.0707-.2704.248-.2956.1993-.0283.2549-.1165.2824-.4487.0322-.3895.0558-.4135.4068-.4135s.3746.024.4069.4135c.0297.359.0742.4181.3374.4484.2356.0271.3033.0931.3033.296 0 .2027-.0677.2687-.3033.2958-.2988.0344-.3037.0474-.3356.9-.0338.903.0632 1.175.419 1.175.2473 0 .3665.5137.1394.6009-.218.0836-.5926.0644-.8606-.0443zm6.0203-.0966c-1.0058-.5394-1.0531-2.3018-.0789-2.9402 1-.6552 2.3877.0834 2.3877 1.2709v.327h-1.1027c-1.0832 0-1.1027.0047-1.1027.2586 0 .5417.7982.8336 1.2245.4478.1364-.1235.2948-.1537.5324-.1015.3794.0833.3852.094.2191.4042-.2721.5084-1.4121.6911-2.0794.3332zm1.4267-1.9676c0-.2667-.3271-.5876-.599-.5876-.33 0-.7242.3036-.7242.5576 0 .1884.08.2143.6616.2143.5447 0 .6616-.0326.6616-.1843zm15.7048 1.96c-.8366-.38-1.221-1.1935-1.116-2.362.1378-1.5354 1.5284-2.3625 2.9143-1.7334.4686.2128.9108.763.9116 1.1343 0 .1517-.094.193-.4407.193-.3086 0-.441-.0473-.441-.1574 0-.2507-.5493-.6145-.9277-.6145-.6887 0-1.1675.6105-1.1675 1.4886 0 .878.4788 1.4886 1.1675 1.4886.3784 0 .9276-.3638.9276-.6144 0-.1102.1325-.1574.4411-.1574.5176 0 .5652.159.2164.7234-.4543.735-1.5952 1.0156-2.4856.6112zm7.4556.016c-.5312-.268-.7914-.7657-.7914-1.514 0-.7956.296-1.292.9187-1.5413.8728-.3492 1.8383.0762 2.0705.9123.2234.8043.2383.7924-.982.7924-.603 0-1.1263.0486-1.163.108-.0744.1203.1305.5643.3184.6897.213.1423.759.0903.9598-.0914.1365-.1235.2949-.1537.5325-.1015.3707.0814.3974.1354.1968.3982-.3969.52-1.3872.6872-2.0603.3476zm1.4298-1.9571c0-.2551-.4106-.6065-.7088-.6065-.2485 0-.7247.4445-.7247.6765 0 .0524.3225.0954.7167.0954.5636 0 .7168-.0354.7168-.1654zm5.8777 2.021c-.3424-.1693-.4745-.6445-.4745-1.7067 0-.8473-.0176-.9208-.2205-.9208-.1618 0-.2206-.0735-.2206-.2757 0-.1993.0592-.2757.214-.2757.1675 0 .2212-.0895.248-.4135.0324-.391.0567-.4153.4478-.4477l.4135-.0342v.4477c0 .424.0176.4477.3308.4477.277 0 .3308.0437.3308.2684 0 .2108-.0651.2758-.3032.3032-.3023.0348-.3034.038-.3352 1.0017l-.0319.9667.341.0682c.2892.0579.336.112.3076.3565-.0283.2443-.0924.2918-.4194.3111-.2123.0126-.495-.031-.6282-.097zm-75.5683-2.1408V73.511l1.2596.037c1.155.034 1.2831.0593 1.544.3046.59.5549.5822 1.6321-.015 2.102l-.2938.231.4067.753c.2236.414.4066.7841.4066.8224 0 .0382-.1956.0695-.4346.0695-.4245 0-.4444-.018-.8546-.7712-.3866-.7098-.4484-.7712-.7783-.7719l-.3584-.0007v1.5438h-.8822zm2.0967-.2452c.152-.123.2466-.3216.2466-.5172 0-.4424-.374-.7167-.9771-.7167h-.484v1.4335h.484c.3028 0 .5763-.0748.7305-.1996zm5.512.806v-1.5988h.8821v3.1978h-.8822zm1.7643 0v-1.5988h.386c.3437 0 .3859.0318.3859.2917v.2918l.2662-.2873c.4973-.5365 1.2234-.5029 1.6568.0768.192.2567.233.4996.2643 1.5643l.037 1.2605h-.9011v-1.0948c0-1.2184-.1026-1.4414-.6632-1.4414-.5153 0-.66.3318-.66 1.5132v1.023h-.7719zm4.036.138a452.6575 452.6575 0 0 0-.5887-1.599c-.0367-.0963.0826-.1378.396-.1378h.4484l.412 1.2855c.2267.707.4222 1.2405.4345 1.1854.0123-.055.1845-.6336.3827-1.2855l.3603-1.1854h.4226c.2325 0 .4226.0347.4226.077 0 .0424-.2535.762-.5633 1.599l-.5634 1.5218h-1.0277zm6.7704-.138v-1.5988h.4411c.403 0 .441.025.441.2905v.2906l.222-.2821c.122-.1552.365-.3135.5399-.352.3929-.0862 1.051.1725 1.2142.4775.0656.1226.1191.7952.1191 1.498v1.2753h-.7719v-1.023c0-1.1744-.1457-1.5132-.6508-1.5132-.5457 0-.6724.277-.6724 1.4697v1.0665h-.8821zm6.0649 0v-1.5988h.8821v3.1978h-.8821zm1.654 0v-1.5988h.386c.3453 0 .3859.0311.3859.2963v.2963l.3032-.284c.4042-.3784.7238-.461 1.189-.3074.5854.1932.7132.5475.7132 1.9781v1.2185h-.8822v-1.1358c0-1.2327-.0677-1.4004-.5655-1.4004-.5439 0-.6474.2306-.6474 1.4414v1.0948h-.8821zm11.3578-.5513V73.53h.7719l.002.8546c.002.827.009.847.193.6193.4582-.5656 1.202-.6032 1.689-.0853.2449.2603.2687.386.3026 1.5972l.0368 1.3147h-.9006v-1.0816c0-1.274-.0998-1.4898-.664-1.4357-.5217.05-.6556.3662-.6576 1.5524l-.002.9649h-.772zm9.354.0012.7357-2.149.6065-.0006.6065-.0005.7394 2.1495.7394 2.1496h-.4821c-.4692 0-.4863-.0126-.6384-.4687l-.1562-.4686h-1.6173l-.1562.4686c-.1518.4554-.1698.4687-.6346.4687h-.4784l.7357-2.149zm1.852.302c-.031-.106-.1396-.4906-.2414-.8545-.1018-.364-.212-.7073-.245-.7632-.0497-.0845-.5639 1.4682-.5721 1.728-.001.0455.2488.0827.5561.0827.4801 0 .5509-.0271.5025-.193zm2.247-.3032V73.53h1.1081c1.2508 0 1.6534.1378 1.9224.658.1986.3841.2178 1.0954.04 1.4856-.2018.4429-.6285.651-1.4717.7176l-.7718.061-.0328.6892-.0328.6892h-.7614zm2.095-.1654c.2863-.2862.2835-.8192-.006-1.1085-.1768-.1768-.3396-.219-.7443-.193l-.5179.0334-.0326.7443-.0326.7443h.5564c.4093 0 .6147-.0582.777-.2205zm1.7644.1654V73.53h.8821v4.3006h-.8821zm7.7189 0V73.53h.7719v4.3006h-.772zm1.654.5514v-1.599h.7719V77.8305h-.7719zm5.293 0v-1.599h.386c.3468 0 .3861.0307.3883.3033l.002.3032.1905-.2352c.4582-.5656 1.202-.6032 1.6891-.0853.2449.2603.2687.386.3026 1.5972l.0368 1.3147H124.6914v-1.0817c0-1.274-.0998-1.4897-.664-1.4356-.5216.0499-.6556.3662-.6576 1.5524l-.002.9649h-.7719zM59.108 73.9537c-.359-.359.0763-.8842.5312-.6408.3362.18.2538.7022-.1177.7456-.152.0177-.3381-.0294-.4135-.1048zm18.572.054c-.1548-.1548-.0642-.5852.1471-.6983.4452-.2382.8808.2881.5293.6396-.1426.1426-.5565.1786-.6763.0588zm39.613-.1671c-.1091-.2037-.0928-.27.1059-.4309.2805-.2271.643-.1596.7373.1374.1555.4901-.5978.7522-.8433.2935zM18.028 68.3048c-1.2035-.5322-1.4009-.6782-1.3991-1.0352.0023-.4624.6003-2.076.9292-2.5072.5396-.7074.6582-.7307 3.532-.6937 2.5097.0323 2.5843.0398 2.845.285.2906.2731 1.2934 2.4036 1.2934 2.7477 0 .3465-.2238.5339-1.2934 1.083-.9959.5114-1.0337.5212-1.7643.4543-.8913-.0815-2.2303-.0858-2.8418-.009-.3433.0431-.6317-.0289-1.301-.3249zm82.625-.3781c-2.318-.606-3.7453-2.6518-3.7453-5.3686 0-2.7252 1.426-4.8137 3.6858-5.3985.8423-.218 2.3644-.218 3.2067 0 2.2535.5831 3.6858 2.681 3.6858 5.3985 0 2.1955-.9793 4.0498-2.6045 4.9317-1.1462.6219-2.848.7977-4.2284.4369zm2.5363-2.2836c.524-.2697 1.0696-1.076 1.2584-1.86.14-.5814.0774-2.1981-.1094-2.8239-.2446-.8193-1.0041-1.5936-1.6728-1.7054-.8293-.1386-1.3482.0207-1.9175.5886-.641.6395-.8668 1.3325-.8668 2.6606 0 1.8305.6475 3.0361 1.7778 3.3102.4406.1068 1.1442.0286 1.5303-.17zM74.9925 67.863c-.9716-.3167-1.7172-1.0643-2.15-2.1562-.2314-.5833-.2449-.8023-.285-4.6097l-.0421-3.9972h2.872l.0346 3.5562c.0343 3.538.0359 3.5586.3034 4.0258.4499.7855 1.2368 1.115 2.1657.9068.6767-.1517 1.096-.4594 1.3997-1.0274.2368-.4428.2469-.5854.2802-3.9604l.0346-3.501h2.853v10.8064H79.702l-.001-1.1303-.001-1.1302-.2817.4962c-.371.6534-.9887 1.2866-1.5351 1.5735-.559.2935-2.187.3766-2.8899.1475zm-23.63-7.1794v-7.2227h3.188c4.2676 0 5.0856.1607 6.2412 1.2259.598.5512.928 1.2458 1.0102 2.1257.1555 1.6653-.7045 2.8787-2.4243 3.4206-.3028.0954-.133.2484.347.3128.964.1293 1.8584.8166 2.3425 1.8003.2259.459.2672.7047.2672 1.5904 0 .9241-.0364 1.1216-.3088 1.6764-.5579 1.136-1.6764 1.9008-3.2036 2.1904-.2984.0566-2.0989.1029-4.001.1029h-3.4585zm6.8094 4.6499c1.5808-.5734 1.6192-2.7396.0621-3.5063-.4895-.241-.6647-.2614-2.2402-.2614h-1.7092l-.0301 1.9573-.0301 1.9573 1.7944-.0084c1.081-.0051 1.937-.0602 2.1531-.1385zm-.1194-6.1562c1.0838-.7178 1.0843-2.201.001-3.0046-.2793-.2072-.4896-.2343-2.0676-.2658l-1.7566-.0352V59.5455l1.69-.0375c1.6146-.0358 1.7097-.0505 2.133-.3308zm6.432 3.3258v-5.4032h2.7568v.9372c0 .5156.0372.9372.0827.937.0455-.0003.174-.2223.2854-.4934.2224-.5409.7926-1.1036 1.357-1.3395.1996-.0834.7119-.1516 1.1384-.1516h.7754v2.5666l-.6-.0706c-.8895-.1045-1.6563.0974-2.1865.5759-.7335.6618-.7421.714-.7421 4.478v3.3668H64.4845zm20.5102 0v-5.4032H87.6412v.536c0 .2947.0318.7681.0707 1.052l.0707.516.31-.5427c.6456-1.1305 1.629-1.6716 3.0376-1.6716 1.5323 0 2.6161.6513 3.2603 1.9592l.363.737.0349 4.1103.0348 4.1102h-2.8815v-3.477c0-2.8796-.0291-3.5468-.1696-3.883-.339-.8115-.8915-1.1664-1.8153-1.1664-.9283 0-1.5695.4245-1.9244 1.2741-.1417.339-.1707.9913-.1707 3.8304v3.4219h-2.867zm-70.7723-2.2443c-.8797-.4882-.889-1.8016-.0165-2.317.3433-.2028 1.114-.2387 1.4352-.0668.3139.168.5452.6936.5452 1.2387 0 .3812-.063.5412-.3032.7704-.5274.5031-1.1685.6478-1.6607.3747zm13.0749-.0783c-.606-.3199-.7872-.6542-.6936-1.279.115-.7665.5323-1.14 1.2738-1.14.5022 0 .616.045.9458.3749.3302.3302.3749.4432.3749.9483 0 .505-.0447.618-.375.9483-.4424.4424-.8861.4853-1.526.1475z" style="fill:#161414;stroke-width:.11027"/></svg>
