<svg xmlns="http://www.w3.org/2000/svg" viewBox="0 0 128 128"> <path fill="#004e8c" d="M64-.5C28.384-.5-.5 28.384-.5 64s28.884 64.5 64.5 64.5 64.5-28.884 64.5-64.5S99.616-.5 64-.5Zm0 1c35.076 0 63.5 28.424 63.5 63.5S99.076 127.5 64 127.5.5 99.076.5 64 28.924.5 64 .5Zm-4.111 37.695-.12.338-14.242 40c-.336.929-.492 1.906-.703 2.87-.192-.926-.332-1.863-.63-2.76l-.003-.004L30.074 38.3h-7.646L41.07 89.7h7.278l18.945-51.39zm13.45.106v51.4h15.122a17.783 17.783 0 0 0 12.039-4.117h.002l.002-.002a13.679 13.679 0 0 0 4.814-10.854 12.34 12.34 0 0 0-3.187-8.804l-.006-.006-.006-.006c-1.961-2.016-4.549-3.195-7.299-3.676 2.188-.893 4.16-2.25 5.58-4.158h.002v-.002a12.763 12.763 0 0 0 2.477-7.729 10.839 10.839 0 0 0-4.026-8.736l-.004-.004-.005-.004a16.183 16.183 0 0 0-10.664-3.302Zm-12.75.904 5.278.084-18.215 49.412h-5.88l-17.918-49.4h5.511l13.88 39.656a23.25 23.25 0 0 1 .997 4.367l.057.436h1.017l.059-.434c.205-1.52.571-3.013 1.094-4.455v-.002zm27.618.094a15.178 15.178 0 0 1 10.025 3.096 9.84 9.84 0 0 1 3.649 7.931v.022A11.76 11.76 0 0 1 99.6 57.48a12.022 12.022 0 0 1-6.145 4.322l-.355.107v.97l.46.038a12.32 12.32 0 0 1 7.836 3.688c2 2.209 3.052 5.115 2.924 8.093v.04a12.679 12.679 0 0 1-4.465 10.081 16.78 16.78 0 0 1-11.357 3.881H74.34v-49.4h13.853zm-1.672 4.262-7.195.064V60.9h6.476c2.851.134 5.656-.755 7.91-2.505l.01-.008.012-.01a8.64 8.64 0 0 0 2.95-6.99c-.004-2.55-.876-4.573-2.61-5.89-1.738-1.321-4.266-1.936-7.549-1.936h-.002zm.004 1h.006c3.153 0 5.456.607 6.937 1.732 1.483 1.126 2.217 2.77 2.217 5.107v.014l.002.014a7.64 7.64 0 0 1-2.605 6.187 10.978 10.978 0 0 1-7.233 2.285H80.34V44.615Zm-7.2 20.638v19.142h8.5l-.028-.001a12.502 12.502 0 0 0 8.334-2.563l.013-.01.012-.01a8.92 8.92 0 0 0 3.027-7.128c-.003-3.081-1.09-5.504-3.242-7.082-2.154-1.58-5.3-2.326-9.414-2.326h-.002zm1 1.004 6.2.018c3.992 0 6.928.74 8.826 2.133 1.899 1.392 2.834 3.427 2.834 6.287v.011l.002.014a7.918 7.918 0 0 1-2.681 6.326 11.496 11.496 0 0 1-7.65 2.35h-7.53z"/> </svg>
