<svg width="128" height="128" viewBox="0 0 128 128" fill="none" xmlns="http://www.w3.org/2000/svg">
<mask id="path-1-outside-1_4_12" maskUnits="userSpaceOnUse" x="16" y="17" width="97" height="108" fill="black">
<rect fill="white" x="16" y="17" width="97" height="108"/>
<path d="M63.6342 18C65.5886 18.0333 67.5037 18.5544 69.2055 19.5158L104.705 39.5654C106.134 40.3737 107.399 41.4431 108.434 42.7179L108.469 42.697L108.998 43.4729L109.06 43.5618L109.721 44.5354L109.674 44.5637C110.55 46.1607 111.033 47.9035 111.05 49.6765V90.434C111.069 92.4929 110.546 94.5206 109.534 96.3133C108.521 98.1061 107.055 99.6008 105.281 100.647L70.1673 121.366C68.7111 122.226 67.0856 122.759 65.4031 122.929L65.4028 122.982L63.1569 123L63.158 122.944C61.4985 122.795 59.8897 122.294 58.4386 121.475L21.1404 100.407C18.6062 98.9809 17.0294 96.307 17 93.3856V50.2221C17.0209 48.6997 17.2862 47.2305 17.7884 45.8793L17.7465 45.8554L18.7076 43.8469L18.762 43.877C19.6554 42.4225 20.8915 41.2091 22.3623 40.3428L57.4768 19.6286C59.2498 18.5812 61.2675 18.0195 63.3267 18H63.6342ZM19.7554 46.9799L19.6768 47.2298C19.3645 48.2639 19.2098 49.3812 19.2216 50.5458V93.3746C19.2312 94.4138 19.5145 95.4322 20.0429 96.3272C20.5713 97.2221 21.3262 97.962 22.2315 98.4724L59.5312 119.541C60.6363 120.165 61.8549 120.561 63.1154 120.707L63.1929 120.714L63.2018 118.902L63.2091 111.303L63.1974 102.676L63.147 102.671C62.3753 102.569 61.6241 102.348 60.9199 102.017L60.6576 101.887L60.4258 101.761L37.8292 88.9979C37.0079 88.5349 36.3233 87.8635 35.8442 87.0515C35.3636 86.2365 35.1064 85.3092 35.0984 84.363L35.0988 58.4203C35.0907 57.5947 35.1943 56.7902 35.4074 56.0315L35.4797 55.7891L19.7554 46.9799ZM107.765 45.704L92.2614 54.9632L92.2956 55.0341C92.6784 55.86 92.9021 56.7391 92.9448 57.637L92.9517 57.8824L92.951 82.5706C92.9638 83.8948 92.6277 85.1991 91.9765 86.3522C91.3253 87.5053 90.3818 88.4666 89.2412 89.1394L67.9689 101.69C67.2369 102.122 66.4366 102.427 65.6022 102.59L65.4197 102.623L65.4233 104.378L65.4307 114.547L65.416 120.519L65.4138 120.691L65.7459 120.644C66.8098 120.471 67.8364 120.118 68.7812 119.599L69.0384 119.453L104.153 98.7347C105.59 97.8863 106.779 96.6746 107.599 95.2214C108.421 93.7647 108.845 92.1172 108.828 90.4447L108.829 49.6872C108.816 48.4278 108.499 47.1695 107.912 45.9869L107.765 45.704ZM63.348 20.2208C61.6788 20.2368 60.0433 20.6924 58.6062 21.5416L23.4917 42.2554C22.4396 42.8744 21.5387 43.7202 20.8546 44.7312L20.7018 44.9645L36.4625 53.789L36.626 53.566C37.1053 52.9399 37.6908 52.4026 38.3556 51.9786L38.5628 51.8514L59.8354 39.3016C60.9755 38.6278 62.2731 38.2662 63.5974 38.2534C64.9217 38.2405 66.226 38.5769 67.3789 39.2285L88.8852 51.3764C89.6279 51.7966 90.3021 52.3277 90.8845 52.9514L91.0292 53.1112L106.502 43.87L106.332 43.6764C105.613 42.8827 104.782 42.1988 103.864 41.6466L103.612 41.4989L68.1133 21.4501C66.6605 20.629 65.0167 20.2047 63.348 20.2208Z"/>
</mask>
<path d="M63.6342 18C65.5886 18.0333 67.5037 18.5544 69.2055 19.5158L104.705 39.5654C106.134 40.3737 107.399 41.4431 108.434 42.7179L108.469 42.697L108.998 43.4729L109.06 43.5618L109.721 44.5354L109.674 44.5637C110.55 46.1607 111.033 47.9035 111.05 49.6765V90.434C111.069 92.4929 110.546 94.5206 109.534 96.3133C108.521 98.1061 107.055 99.6008 105.281 100.647L70.1673 121.366C68.7111 122.226 67.0856 122.759 65.4031 122.929L65.4028 122.982L63.1569 123L63.158 122.944C61.4985 122.795 59.8897 122.294 58.4386 121.475L21.1404 100.407C18.6062 98.9809 17.0294 96.307 17 93.3856V50.2221C17.0209 48.6997 17.2862 47.2305 17.7884 45.8793L17.7465 45.8554L18.7076 43.8469L18.762 43.877C19.6554 42.4225 20.8915 41.2091 22.3623 40.3428L57.4768 19.6286C59.2498 18.5812 61.2675 18.0195 63.3267 18H63.6342ZM19.7554 46.9799L19.6768 47.2298C19.3645 48.2639 19.2098 49.3812 19.2216 50.5458V93.3746C19.2312 94.4138 19.5145 95.4322 20.0429 96.3272C20.5713 97.2221 21.3262 97.962 22.2315 98.4724L59.5312 119.541C60.6363 120.165 61.8549 120.561 63.1154 120.707L63.1929 120.714L63.2018 118.902L63.2091 111.303L63.1974 102.676L63.147 102.671C62.3753 102.569 61.6241 102.348 60.9199 102.017L60.6576 101.887L60.4258 101.761L37.8292 88.9979C37.0079 88.5349 36.3233 87.8635 35.8442 87.0515C35.3636 86.2365 35.1064 85.3092 35.0984 84.363L35.0988 58.4203C35.0907 57.5947 35.1943 56.7902 35.4074 56.0315L35.4797 55.7891L19.7554 46.9799ZM107.765 45.704L92.2614 54.9632L92.2956 55.0341C92.6784 55.86 92.9021 56.7391 92.9448 57.637L92.9517 57.8824L92.951 82.5706C92.9638 83.8948 92.6277 85.1991 91.9765 86.3522C91.3253 87.5053 90.3818 88.4666 89.2412 89.1394L67.9689 101.69C67.2369 102.122 66.4366 102.427 65.6022 102.59L65.4197 102.623L65.4233 104.378L65.4307 114.547L65.416 120.519L65.4138 120.691L65.7459 120.644C66.8098 120.471 67.8364 120.118 68.7812 119.599L69.0384 119.453L104.153 98.7347C105.59 97.8863 106.779 96.6746 107.599 95.2214C108.421 93.7647 108.845 92.1172 108.828 90.4447L108.829 49.6872C108.816 48.4278 108.499 47.1695 107.912 45.9869L107.765 45.704ZM63.348 20.2208C61.6788 20.2368 60.0433 20.6924 58.6062 21.5416L23.4917 42.2554C22.4396 42.8744 21.5387 43.7202 20.8546 44.7312L20.7018 44.9645L36.4625 53.789L36.626 53.566C37.1053 52.9399 37.6908 52.4026 38.3556 51.9786L38.5628 51.8514L59.8354 39.3016C60.9755 38.6278 62.2731 38.2662 63.5974 38.2534C64.9217 38.2405 66.226 38.5769 67.3789 39.2285L88.8852 51.3764C89.6279 51.7966 90.3021 52.3277 90.8845 52.9514L91.0292 53.1112L106.502 43.87L106.332 43.6764C105.613 42.8827 104.782 42.1988 103.864 41.6466L103.612 41.4989L68.1133 21.4501C66.6605 20.629 65.0167 20.2047 63.348 20.2208Z" stroke="#4285F4" stroke-width="2" mask="url(#path-1-outside-1_4_12)"/>
<path d="M81.8695 58.451L66.25 49.433C65.1671 48.8078 63.8329 48.8078 62.75 49.433L47.1305 58.451C46.0475 59.0762 45.3805 60.2316 45.3805 61.482V79.518C45.3805 80.7684 46.0475 81.9238 47.1305 82.549L62.75 91.567C63.8329 92.1922 65.1671 92.1922 66.25 91.567L81.8695 82.549C82.9524 81.9238 83.6195 80.7684 83.6195 79.518V61.4821C83.6195 60.2316 82.9524 59.0762 81.8695 58.451Z" stroke="#4285F4"/>
<path d="M19.2129 5.46875V4.96875H18.7129V5.46875H19.2129ZM20.9648 5.46875H21.4648V4.96875H20.9648V5.46875ZM20.5898 12.8516L21.0157 13.1136L21.0168 13.1118L20.5898 12.8516ZM19.5645 13.7891L19.3392 13.3427L19.3376 13.3435L19.5645 13.7891ZM15.6152 12.9746L15.1922 13.2411L15.1934 13.243L15.6152 12.9746ZM15.2461 11.4922V10.9922H14.7461V11.4922H15.2461ZM17.0098 11.4922H17.5098V10.9922H17.0098V11.4922ZM17.1387 12.2363L16.6858 12.4483L16.6896 12.4561L17.1387 12.2363ZM19.0723 12.125L18.6182 11.9154L18.615 11.9227L19.0723 12.125ZM19.7129 11.3809V5.46875H18.7129V11.3809H19.7129ZM19.2129 5.96875H20.9648V4.96875H19.2129V5.96875ZM20.4648 5.46875V11.3809H21.4648V5.46875H20.4648ZM20.4648 11.3809C20.4648 11.8767 20.3568 12.2732 20.1629 12.5913L21.0168 13.1118C21.3229 12.6096 21.4648 12.0256 21.4648 11.3809H20.4648ZM20.164 12.5895C19.9634 12.9154 19.6918 13.1648 19.3392 13.3427L19.7897 14.2355C20.3043 13.9758 20.7162 13.6002 21.0157 13.1136L20.164 12.5895ZM19.3376 13.3435C18.9861 13.5224 18.581 13.6172 18.1113 13.6172V14.6172C18.7198 14.6172 19.2834 14.4932 19.7913 14.2346L19.3376 13.3435ZM18.1113 13.6172C17.6086 13.6172 17.1846 13.5329 16.8289 13.3777L16.4289 14.2942C16.9326 14.514 17.4969 14.6172 18.1113 14.6172V13.6172ZM16.8289 13.3777C16.4882 13.229 16.2285 13.0069 16.0371 12.7062L15.1934 13.243C15.4942 13.7157 15.9103 14.0679 16.4289 14.2942L16.8289 13.3777ZM16.0383 12.7081C15.8553 12.4176 15.7461 12.0229 15.7461 11.4922H14.7461C14.7461 12.1568 14.883 12.7504 15.1922 13.2411L16.0383 12.7081ZM15.2461 11.9922H17.0098V10.9922H15.2461V11.9922ZM16.5098 11.4922C16.5098 11.8422 16.5566 12.1722 16.6858 12.4483L17.5915 12.0244C17.5489 11.9333 17.5098 11.7672 17.5098 11.4922H16.5098ZM16.6896 12.4561C16.8225 12.7278 17.0259 12.9476 17.3046 13.0803L17.7345 12.1775C17.6851 12.1539 17.6345 12.1121 17.5878 12.0166L16.6896 12.4561ZM17.3046 13.0803C17.5513 13.1978 17.8258 13.2461 18.1113 13.2461V12.2461C17.9359 12.2461 17.8159 12.2162 17.7345 12.1775L17.3046 13.0803ZM18.1113 13.2461C18.4159 13.2461 18.7061 13.1728 18.9618 13.0085L18.421 12.1673C18.3486 12.2139 18.252 12.2461 18.1113 12.2461V13.2461ZM18.9618 13.0085C19.2192 12.843 19.4058 12.6071 19.5295 12.3273L18.615 11.9227C18.5591 12.0492 18.4917 12.1218 18.421 12.1673L18.9618 13.0085ZM19.5262 12.3345C19.6582 12.0487 19.7129 11.7247 19.7129 11.3809H18.7129C18.7129 11.6229 18.6739 11.7951 18.6183 11.9155L19.5262 12.3345ZM23.9531 13.8828L23.7634 14.3455L23.7674 14.3471L23.9531 13.8828ZM22.957 13.2207L22.596 13.5667L22.5985 13.5692L22.957 13.2207ZM22.3359 12.2422L21.8694 12.422L21.87 12.4236L22.3359 12.2422ZM22.9102 8.45703L22.5348 8.12671L22.5323 8.12957L22.9102 8.45703ZM23.8477 7.7832L24.0434 8.2433L24.0476 8.24151L23.8477 7.7832ZM27.1582 8.39844L26.7786 8.72384L26.7812 8.72693L27.1582 8.39844ZM27.6973 9.38281L27.2205 9.53361L27.221 9.53502L27.6973 9.38281ZM27.8789 11.3516V11.8516H28.3789V11.3516H27.8789ZM22.8398 11.3516H22.3398V11.8516H22.8398V11.3516ZM22.8398 10.2266V9.72656H22.3398V10.2266H22.8398ZM26.2207 10.2266V10.7266H26.7207V10.2266H26.2207ZM26.0918 9.4707L25.6336 9.67118L25.639 9.68267L26.0918 9.4707ZM24.1055 9.41797L23.6725 9.16779L23.6684 9.17515L24.1055 9.41797ZM23.8828 10.0391L23.3938 9.93484L23.3925 9.941L23.8828 10.0391ZM23.918 11.75L23.4427 11.9055L23.4454 11.9133L23.918 11.75ZM24.2285 12.3066L23.8475 12.6305L23.8522 12.6359L24.2285 12.3066ZM24.7207 12.6699L24.5159 13.1261L24.5193 13.1276L24.7207 12.6699ZM26.2324 12.623L26.4368 13.0794L26.4398 13.078L26.2324 12.623ZM26.918 12.0781L27.2857 11.7394L26.8889 11.3085L26.5257 11.7681L26.918 12.0781ZM27.7383 12.9688L28.1491 13.2538L28.3774 12.9247L28.1061 12.63L27.7383 12.9688ZM27.1934 13.5195L26.8901 13.122L26.8869 13.1245L27.1934 13.5195ZM26.373 13.9531L26.5346 14.4263L26.5398 14.4245L26.373 13.9531ZM25.2773 13.6172C24.8381 13.6172 24.4613 13.5475 24.1388 13.4186L23.7674 14.3471C24.2262 14.5306 24.7322 14.6172 25.2773 14.6172V13.6172ZM24.1428 13.4202C23.8108 13.2841 23.5376 13.1005 23.3155 12.8722L22.5985 13.5692C22.9234 13.9034 23.3142 14.1613 23.7634 14.3454L24.1428 13.4202ZM23.318 12.8748C23.095 12.642 22.9231 12.372 22.8018 12.0607L21.87 12.4236C22.0378 12.8545 22.28 13.2369 22.596 13.5667L23.318 12.8748ZM22.8025 12.0624C22.6812 11.7476 22.6191 11.4104 22.6191 11.0469H21.6191C21.6191 11.5271 21.7017 11.9868 21.8694 12.422L22.8025 12.0624ZM22.6191 11.0469V10.8125H21.6191V11.0469H22.6191ZM22.6191 10.8125C22.6191 10.3796 22.6807 9.99586 22.7972 9.65642L21.8513 9.33186C21.6943 9.7893 21.6191 10.2845 21.6191 10.8125H22.6191ZM22.7972 9.65642C22.9149 9.31335 23.0796 9.02496 23.288 8.7845L22.5323 8.12957C22.2329 8.47504 22.007 8.87805 21.8513 9.33186L22.7972 9.65642ZM23.2855 8.78735C23.4928 8.55181 23.7435 8.37093 24.0434 8.24328L23.6519 7.32313C23.2175 7.50798 22.8432 7.77632 22.5348 8.12672L23.2855 8.78735ZM24.0476 8.24151C24.3429 8.11269 24.6874 8.04297 25.0898 8.04297V7.04297C24.5704 7.04297 24.0868 7.1334 23.6478 7.3249L24.0476 8.24151ZM25.0898 8.04297C25.4841 8.04297 25.8138 8.10803 26.0888 8.22546L26.4815 7.30579C26.0612 7.12635 25.5941 7.04297 25.0898 7.04297V8.04297ZM26.0888 8.22546C26.3695 8.34529 26.5967 8.51159 26.7786 8.72383L27.5378 8.07304C27.251 7.73841 26.8962 7.48283 26.4815 7.30579L26.0888 8.22546ZM26.7812 8.72693C26.9698 8.94332 27.1179 9.20921 27.2205 9.53361L28.174 9.23201C28.0344 8.79079 27.8231 8.40043 27.5352 8.06995L26.7812 8.72693ZM27.221 9.53502C27.324 9.85724 27.3789 10.2268 27.3789 10.6484H28.3789C28.3789 10.1404 28.3127 9.6662 28.1735 9.2306L27.221 9.53502ZM27.3789 10.6484V11.3516H28.3789V10.6484H27.3789ZM27.8789 10.8516H22.8398V11.8516H27.8789V10.8516ZM23.3398 11.3516V10.2266H22.3398V11.3516H23.3398ZM22.8398 10.7266H26.2207V9.72656H22.8398V10.7266ZM26.7207 10.2266V10.0977H25.7207V10.2266H26.7207ZM26.7207 10.0977C26.7207 9.80143 26.6661 9.51828 26.5446 9.25873L25.639 9.68267C25.6893 9.79031 25.7207 9.92514 25.7207 10.0977H26.7207ZM26.5499 9.27029C26.4296 8.99542 26.2412 8.77018 25.9896 8.60639L25.444 9.44439C25.5284 9.49936 25.5899 9.57099 25.6337 9.67111L26.5499 9.27029ZM25.9896 8.60639C25.7191 8.43022 25.4017 8.36133 25.0723 8.36133V9.36133C25.2663 9.36133 25.3786 9.40181 25.444 9.44439L25.9896 8.60639ZM25.0723 8.36133C24.7751 8.36133 24.4899 8.42716 24.2377 8.58091L24.7584 9.43471C24.8265 9.39315 24.9241 9.36133 25.0723 9.36133V8.36133ZM24.2377 8.58091C24.0004 8.72566 23.8124 8.92573 23.6725 9.16783L24.5384 9.66811C24.6016 9.55864 24.6754 9.48528 24.7584 9.43471L24.2377 8.58091ZM23.6684 9.17515C23.5422 9.40233 23.4528 9.65793 23.3938 9.93485L24.3718 10.1433C24.4144 9.94363 24.4734 9.78517 24.5425 9.66079L23.6684 9.17515ZM23.3925 9.941C23.3382 10.2127 23.3125 10.5039 23.3125 10.8125H24.3125C24.3125 10.5586 24.3337 10.3341 24.3731 10.1371L23.3925 9.941ZM23.3125 10.8125V11.0469H24.3125V10.8125H23.3125ZM23.3125 11.0469C23.3125 11.3472 23.3541 11.6347 23.4428 11.9055L24.3932 11.5945C24.3412 11.4356 24.3125 11.2544 24.3125 11.0469H23.3125ZM23.4454 11.9133C23.5377 12.1805 23.6703 12.422 23.8475 12.6305L24.6095 11.9828C24.5211 11.8788 24.4467 11.7492 24.3906 11.5867L23.4454 11.9133ZM23.8522 12.6359C24.0368 12.8469 24.2596 13.011 24.5159 13.1261L24.9255 12.2138C24.799 12.157 24.6936 12.0789 24.6048 11.9774L23.8522 12.6359ZM24.5193 13.1276C24.7871 13.2454 25.0779 13.2988 25.3828 13.2988V12.2988C25.1955 12.2988 25.0449 12.2663 24.9221 12.2123L24.5193 13.1276ZM25.3828 13.2988C25.7534 13.2988 26.1068 13.2271 26.4368 13.0794L26.0281 12.1667C25.8346 12.2533 25.6216 12.2988 25.3828 12.2988V13.2988ZM26.4398 13.078C26.7819 12.9221 27.0725 12.689 27.3102 12.3882L26.5257 11.7681C26.3806 11.9517 26.2142 12.0818 26.025 12.1681L26.4398 13.078ZM26.5502 12.4169L27.3705 13.3075L28.1061 12.63L27.2857 11.7394L26.5502 12.4169ZM27.3275 12.6837C27.2307 12.8232 27.0888 12.9705 26.8901 13.122L27.4966 13.9171C27.7589 13.717 27.9803 13.4971 28.1491 13.2538L27.3275 12.6837ZM26.8869 13.1245C26.7095 13.2621 26.4853 13.3831 26.2063 13.4817L26.5398 14.4245C26.9014 14.2966 27.2241 14.1285 27.4999 13.9146L26.8869 13.1245ZM26.2115 13.48C25.9529 13.5683 25.6438 13.6172 25.2773 13.6172V14.6172C25.7312 14.6172 26.1526 14.5567 26.5346 14.4263L26.2115 13.48ZM31.9453 7.66016H32.4453V7.16016H31.9453V7.66016ZM31.9453 8.85547V9.35547H32.4453V8.85547H31.9453ZM28.2539 8.85547H27.7539V9.35547H28.2539V8.85547ZM28.2539 7.66016V7.16016H27.7539V7.66016H28.2539ZM29.168 6.0957V5.5957H28.668V6.0957H29.168ZM30.8555 6.0957H31.3555V5.5957H30.8555V6.0957ZM30.9258 12.5117L30.475 12.7281L30.4785 12.7353L30.4822 12.7424L30.9258 12.5117ZM31.1484 12.7168L30.9627 13.181L30.9709 13.1843L30.9791 13.1872L31.1484 12.7168ZM31.7988 12.7578L31.8462 13.2556L31.8563 13.2546L31.8664 13.2532L31.7988 12.7578ZM32.0156 12.7227L32.5156 12.7203L32.5128 12.1133L31.9176 12.2324L32.0156 12.7227ZM32.0215 13.9648L32.1757 14.4405L32.5232 14.3278L32.5215 13.9625L32.0215 13.9648ZM30.0234 13.9355L29.8155 14.3904L29.8234 14.3938L30.0234 13.9355ZM31.4453 7.66016V8.85547H32.4453V7.66016H31.4453ZM31.9453 8.35547H28.2539V9.35547H31.9453V8.35547ZM28.7539 8.85547V7.66016H27.7539V8.85547H28.7539ZM28.2539 8.16016H31.9453V7.16016H28.2539V8.16016ZM29.168 6.5957H30.8555V5.5957H29.168V6.5957ZM30.3555 6.0957V12.0898H31.3555V6.0957H30.3555ZM30.3555 12.0898C30.3555 12.3031 30.3806 12.5314 30.475 12.7281L31.3765 12.2954C31.3788 12.3 31.3725 12.2884 31.3662 12.2508C31.3601 12.2141 31.3555 12.1615 31.3555 12.0898H30.3555ZM30.4822 12.7424C30.5854 12.9409 30.7484 13.0953 30.9627 13.181L31.3341 12.2526C31.3393 12.2546 31.3488 12.2597 31.3583 12.2685C31.3675 12.277 31.3705 12.2831 31.3694 12.281L30.4822 12.7424ZM30.9791 13.1872C31.149 13.2484 31.3341 13.2695 31.5176 13.2695V12.2695C31.4041 12.2695 31.3432 12.2555 31.3178 12.2464L30.9791 13.1872ZM31.5176 13.2695C31.6347 13.2695 31.7448 13.2652 31.8462 13.2556L31.7514 12.2601C31.6888 12.266 31.6114 12.2695 31.5176 12.2695V13.2695ZM31.8664 13.2532C31.9584 13.2407 32.0416 13.2274 32.1137 13.2129L31.9176 12.2324C31.8725 12.2414 31.8111 12.2515 31.7313 12.2624L31.8664 13.2532ZM31.5156 12.725L31.5215 13.9672L32.5215 13.9625L32.5156 12.7203L31.5156 12.725ZM31.8672 13.4892C31.7495 13.5274 31.6182 13.5589 31.4724 13.5827L31.6331 14.5697C31.8232 14.5387 32.0044 14.496 32.1757 14.4405L31.8672 13.4892ZM31.4724 13.5827C31.3355 13.605 31.1773 13.6172 30.9961 13.6172V14.6172C31.2211 14.6172 31.434 14.6021 31.6331 14.5697L31.4724 13.5827ZM30.9961 13.6172C30.6787 13.6172 30.4252 13.5654 30.2235 13.4773L29.8234 14.3938C30.1764 14.5479 30.5713 14.6172 30.9961 14.6172V13.6172ZM30.2313 13.4808C30.0601 13.4025 29.9287 13.2811 29.8301 13.0993L28.9512 13.5764C29.1494 13.9416 29.4399 14.2186 29.8156 14.3903L30.2313 13.4808ZM29.8301 13.0993C29.7348 12.9239 29.668 12.6555 29.668 12.2598H28.668C28.668 12.7547 28.7496 13.205 28.9512 13.5764L29.8301 13.0993ZM29.668 12.2598V6.0957H28.668V12.2598H29.668ZM34.5938 8.87891H35.0938V8.85373L35.0912 8.82868L34.5938 8.87891ZM34.5938 16.4375V16.9375H35.0938V16.4375H34.5938ZM32.9062 16.4375H32.4062V16.9375H32.9062V16.4375ZM32.9062 7.66016V7.16016H32.4062V7.66016H32.9062ZM34.4707 7.66016L34.9682 7.60993L34.9228 7.16016H34.4707V7.66016ZM38.4434 12.166L37.9615 12.0324L37.9603 12.0369L38.4434 12.166ZM37.9746 13.1973L38.3811 13.4884L38.3829 13.4858L37.9746 13.1973ZM37.2012 13.877L37.4338 14.3195L37.4359 14.3184L37.2012 13.877ZM34.418 13.2266L34.0028 13.5053L34.0073 13.5118L34.418 13.2266ZM33.6855 11.0293H33.1855V11.0655L33.1908 11.1013L33.6855 11.0293ZM33.6855 10.707L33.1901 10.6398L33.1855 10.6733V10.707H33.6855ZM33.9551 9.44141L34.4332 9.58776L34.4336 9.58641L33.9551 9.44141ZM34.418 8.43945L34.0055 8.15691L34.0046 8.15814L34.418 8.43945ZM35.1328 7.77734L34.8925 7.33885L34.89 7.34027L35.1328 7.77734ZM37.1953 7.77148L36.9717 8.2187L36.974 8.21983L37.1953 7.77148ZM37.9688 8.42773L37.5641 8.7215L37.5668 8.72508L37.9688 8.42773ZM38.4434 9.44727L37.9603 9.5764L37.9615 9.58084L38.4434 9.44727ZM36.8438 10.0156L36.3521 10.1073L36.3541 10.1169L36.8438 10.0156ZM36.6328 9.41211L36.1938 9.65157L36.1981 9.65911L36.6328 9.41211ZM36.2578 9.01367L35.988 9.43461L35.9942 9.43861L36.0006 9.44242L36.2578 9.01367ZM35.1094 8.97852L34.9033 8.52294L34.8991 8.52486L35.1094 8.97852ZM34.3945 10.4668L33.8951 10.443L33.8945 10.4549V10.4668H34.3945ZM34.3945 11.2812H33.8945V11.2981L33.8957 11.315L34.3945 11.2812ZM34.5586 12.0605L34.0927 12.2422L34.0938 12.2449L34.5586 12.0605ZM36.2754 12.6523L36.5453 13.0734L36.5527 13.0684L36.2754 12.6523ZM36.6445 12.2363L36.2074 11.9935L36.2034 12.001L36.6445 12.2363ZM36.8496 11.627L36.358 11.5353L36.3566 11.5434L36.8496 11.627ZM34.0938 8.87891V16.4375H35.0938V8.87891H34.0938ZM34.5938 15.9375H32.9062V16.9375H34.5938V15.9375ZM33.4062 16.4375V7.66016H32.4062V16.4375H33.4062ZM32.9062 8.16016H34.4707V7.16016H32.9062V8.16016ZM33.9732 7.71038L34.0963 8.92913L35.0912 8.82868L34.9682 7.60993L33.9732 7.71038ZM38.1074 10.7598V10.8828H39.1074V10.7598H38.1074ZM38.1074 10.8828C38.1074 11.3042 38.0574 11.6865 37.9615 12.0324L38.9252 12.2996C39.048 11.8565 39.1074 11.3833 39.1074 10.8828H38.1074ZM37.9603 12.0369C37.868 12.3821 37.7348 12.6702 37.5663 12.9087L38.3829 13.4858C38.6285 13.1384 38.8077 12.739 38.9264 12.2951L37.9603 12.0369ZM37.5681 12.9061C37.4052 13.1336 37.2058 13.3082 36.9665 13.4355L37.4359 14.3184C37.8138 14.1175 38.13 13.839 38.3811 13.4884L37.5681 12.9061ZM36.9685 13.4344C36.7461 13.5513 36.4767 13.6172 36.1465 13.6172V14.6172C36.6132 14.6172 37.0468 14.523 37.4338 14.3195L36.9685 13.4344ZM36.1465 13.6172C35.8279 13.6172 35.5777 13.5532 35.3789 13.4443L34.8984 14.3213C35.27 14.5249 35.6917 14.6172 36.1465 14.6172V13.6172ZM35.3789 13.4443C35.1653 13.3273 34.9822 13.1625 34.8287 12.9414L34.0073 13.5118C34.2444 13.8531 34.5417 14.1259 34.8984 14.3213L35.3789 13.4443ZM34.8331 12.9479C34.6721 12.708 34.5372 12.4227 34.4323 12.0872L33.4778 12.3855C33.6074 12.7999 33.7811 13.1748 34.0028 13.5052L34.8331 12.9479ZM34.4323 12.0872C34.3238 11.7399 34.2394 11.3636 34.1803 10.9573L33.1908 11.1013C33.2567 11.5544 33.352 11.9828 33.4778 12.3855L34.4323 12.0872ZM34.1855 11.0293V10.707H33.1855V11.0293H34.1855ZM34.181 10.7742C34.2404 10.3359 34.3251 9.94095 34.4332 9.58776L33.477 9.29505C33.3507 9.70749 33.2556 10.1563 33.1901 10.6398L34.181 10.7742ZM34.4336 9.58641C34.5388 9.23934 34.6732 8.95314 34.8313 8.72077L34.0046 8.15814C33.7799 8.48826 33.6058 8.87004 33.4766 9.2964L34.4336 9.58641ZM34.8305 8.722C34.9853 8.49596 35.1671 8.33026 35.3756 8.21442L34.89 7.34027C34.536 7.53693 34.2413 7.81264 34.0055 8.15691L34.8305 8.722ZM35.3731 8.21583C35.5725 8.10655 35.821 8.04297 36.1348 8.04297V7.04297C35.6829 7.04297 35.2634 7.13564 34.8925 7.33886L35.3731 8.21583ZM36.1348 8.04297C36.4735 8.04297 36.748 8.10682 36.9717 8.2187L37.4189 7.32427C37.0333 7.13146 36.6008 7.04297 36.1348 7.04297V8.04297ZM36.974 8.21983C37.2081 8.33539 37.4036 8.50033 37.5641 8.72149L38.3734 8.13398C38.1199 7.78482 37.7998 7.51227 37.4166 7.32314L36.974 8.21983ZM37.5668 8.72508C37.7352 8.95272 37.8686 9.23345 37.9603 9.57639L38.9264 9.31814C38.8071 8.87201 38.6242 8.47306 38.3707 8.13038L37.5668 8.72508ZM37.9615 9.58084C38.057 9.92511 38.1074 10.3168 38.1074 10.7598H39.1074C39.1074 10.2418 39.0485 9.75848 38.9252 9.31369L37.9615 9.58084ZM37.4141 10.8828V10.7598H36.4141V10.8828H37.4141ZM37.4141 10.7598C37.4141 10.4616 37.3882 10.1791 37.3334 9.91432L36.3541 10.1169C36.3931 10.3052 36.4141 10.5188 36.4141 10.7598H37.4141ZM37.3353 9.92398C37.284 9.64882 37.1972 9.39328 37.0675 9.1651L36.1981 9.65911C36.2637 9.77469 36.3176 9.9215 36.3522 10.1073L37.3353 9.92398ZM37.0718 9.17268C36.9387 8.92867 36.7533 8.72789 36.5151 8.58493L36.0006 9.44242C36.0748 9.48696 36.1395 9.55179 36.1939 9.65154L37.0718 9.17268ZM36.5276 8.59273C36.2793 8.43356 35.9954 8.36719 35.7012 8.36719V9.36719C35.8444 9.36719 35.9316 9.39847 35.988 9.43461L36.5276 8.59273ZM35.7012 8.36719C35.4188 8.36719 35.1475 8.41247 34.9033 8.52296L35.3155 9.43407C35.3993 9.39613 35.5226 9.36719 35.7012 9.36719V8.36719ZM34.8991 8.52486C34.6627 8.63445 34.4641 8.79667 34.3115 9.00804L35.1221 9.59353C35.1726 9.52364 35.2358 9.47102 35.3196 9.43217L34.8991 8.52486ZM34.3115 9.00804C34.1682 9.20645 34.0682 9.43318 34.0044 9.67887L34.9722 9.9305C35.0099 9.78557 35.0623 9.67636 35.1221 9.59353L34.3115 9.00804ZM34.0044 9.67887C33.9433 9.91393 33.9081 10.1697 33.8951 10.443L34.894 10.4906C34.9044 10.2717 34.9317 10.0861 34.9722 9.9305L34.0044 9.67887ZM33.8945 10.4668V11.2812H34.8945V10.4668H33.8945ZM33.8957 11.315C33.9181 11.6463 33.9816 11.957 34.0927 12.2422L35.0244 11.8789C34.9559 11.7031 34.9101 11.4944 34.8934 11.2475L33.8957 11.315ZM34.0938 12.2449C34.2171 12.5557 34.4142 12.8154 34.6856 13.0076L35.2636 12.1916C35.16 12.1182 35.0798 12.0185 35.0234 11.8762L34.0938 12.2449ZM34.6856 13.0076C34.9813 13.217 35.338 13.2988 35.7129 13.2988V12.2988C35.4784 12.2988 35.343 12.2478 35.2636 12.1916L34.6856 13.0076ZM35.7129 13.2988C36.0091 13.2988 36.2956 13.2333 36.5452 13.0733L36.0056 12.2314C35.9505 12.2667 35.862 12.2988 35.7129 12.2988V13.2988ZM36.5527 13.0684C36.7797 12.9171 36.9566 12.7137 37.0857 12.4716L36.2034 12.001C36.145 12.1105 36.0758 12.1845 35.998 12.2363L36.5527 13.0684ZM37.0816 12.4791C37.2109 12.2465 37.2956 11.9879 37.3426 11.7105L36.3566 11.5434C36.3255 11.7269 36.2735 11.8746 36.2075 11.9935L37.0816 12.4791ZM37.3411 11.7186C37.3904 11.4542 37.4141 11.1752 37.4141 10.8828H36.4141C36.4141 11.1217 36.3947 11.3387 36.3581 11.5353L37.3411 11.7186ZM42.9785 9.22461L42.5221 9.4288L42.5242 9.43336L42.9785 9.22461ZM42.668 8.87891L42.4107 9.30769L42.416 9.3108L42.668 8.87891ZM41.6484 8.85547L41.8564 9.31033L41.8669 9.30522L41.6484 8.85547ZM41.332 9.13086L41.7545 9.39841L41.7583 9.39214L41.332 9.13086ZM41.2207 9.54688V10.0469H41.7207V9.54688H41.2207ZM39.5332 9.54688H39.0332V10.0469H39.5332V9.54688ZM40.2656 8.14062L40.5708 8.53672L40.5748 8.53356L40.2656 8.14062ZM41.1152 7.70117L40.9639 7.22463L40.9622 7.22516L41.1152 7.70117ZM44.4434 8.52734L44.0273 8.8047L44.0296 8.80809L44.4434 8.52734ZM44.8418 13.3262L44.3509 13.4209L44.3512 13.4225L44.8418 13.3262ZM45.0293 13.9004H45.5293V13.7824L45.4765 13.6768L45.0293 13.9004ZM45.0293 14V14.5H45.5293V14H45.0293ZM43.3242 14L42.873 14.2154L43.0088 14.5H43.3242V14ZM43.1367 13.3555L42.6421 13.4293L42.6435 13.4377L43.1367 13.3555ZM43.3008 10.1387L43.8007 10.1325L43.7947 9.63867H43.3008V10.1387ZM43.3125 11.0938V11.5938H43.8187L43.8125 11.0876L43.3125 11.0938ZM41.3848 11.3867L41.7091 11.7674L41.7169 11.7604L41.3848 11.3867ZM41.1504 11.7031L40.6891 11.5097L40.6841 11.5226L41.1504 11.7031ZM41.1797 12.4941L40.7446 12.7407L40.7483 12.747L41.1797 12.4941ZM41.4668 12.7637L41.2321 13.2054L41.2432 13.2109L41.4668 12.7637ZM43.002 12.3301L42.5943 12.0404L42.5893 12.0477L43.002 12.3301ZM43.166 11.9082L43.5904 11.6438L42.7149 10.2384L42.6662 11.8935L43.166 11.9082ZM43.6113 12.623L44.0771 12.8048L44.1682 12.5714L44.0357 12.3587L43.6113 12.623ZM43.3535 13.1211L42.9316 12.8526L42.9274 12.8596L43.3535 13.1211ZM42.9492 13.6074L43.2847 13.9782L43.2894 13.9738L42.9492 13.6074ZM42.3574 13.9766L42.5458 14.4398L42.5525 14.4369L42.3574 13.9766ZM40.4414 13.877L40.2156 14.3231L40.2221 14.3263L40.4414 13.877ZM39.668 13.2031L39.2484 13.4753L39.2528 13.4818L39.668 13.2031ZM40.125 10.6836L40.4187 11.0882L40.4198 11.0874L40.125 10.6836ZM41.0449 10.2793L41.1638 10.765L41.1686 10.7638L41.0449 10.2793ZM43.5781 12.5703V9.74609H42.5781V12.5703H43.5781ZM43.5781 9.74609C43.5781 9.49017 43.5365 9.24137 43.4329 9.01586L42.5242 9.43336C42.5534 9.49692 42.5781 9.59577 42.5781 9.74609H43.5781ZM43.4349 9.02043C43.3258 8.77646 43.1507 8.58165 42.9199 8.44702L42.416 9.3108C42.4665 9.34023 42.4984 9.37588 42.5221 9.42879L43.4349 9.02043ZM42.9252 8.45016C42.6871 8.30727 42.4118 8.25586 42.1348 8.25586V9.25586C42.2953 9.25586 42.3754 9.28648 42.4107 9.30765L42.9252 8.45016ZM42.1348 8.25586C41.8889 8.25586 41.6488 8.29943 41.43 8.40571L41.8669 9.30522C41.9215 9.27869 42.0056 9.25586 42.1348 9.25586V8.25586ZM41.4406 8.40073C41.219 8.50202 41.035 8.65865 40.9057 8.86958L41.7583 9.39214C41.7775 9.36089 41.8045 9.33392 41.8563 9.31021L41.4406 8.40073ZM40.9096 8.86333C40.7773 9.07231 40.7207 9.30695 40.7207 9.54688H41.7207C41.7207 9.46648 41.7384 9.42379 41.7544 9.39839L40.9096 8.86333ZM41.2207 9.04688H39.5332V10.0469H41.2207V9.04688ZM40.0332 9.54688C40.0332 9.35806 40.0762 9.18073 40.165 9.00862L39.2764 8.54998C39.1152 8.86224 39.0332 9.19663 39.0332 9.54688H40.0332ZM40.165 9.00862C40.2531 8.83803 40.3845 8.68026 40.5708 8.5367L39.9605 7.74455C39.6702 7.96818 39.4383 8.23619 39.2764 8.54998L40.165 9.00862ZM40.5748 8.53356C40.7605 8.38748 40.989 8.26693 41.2682 8.17719L40.9622 7.22516C40.5852 7.34636 40.2473 7.51877 39.9564 7.74769L40.5748 8.53356ZM41.2666 8.17771C41.5419 8.09026 41.8609 8.04297 42.2285 8.04297V7.04297C41.7759 7.04297 41.3526 7.10114 40.9639 7.22464L41.2666 8.17771ZM42.2285 8.04297C42.6651 8.04297 43.0337 8.11564 43.3441 8.24864L43.738 7.32949C43.2827 7.13436 42.7763 7.04297 42.2285 7.04297V8.04297ZM43.3441 8.24864C43.643 8.37674 43.8655 8.5619 44.0273 8.80469L44.8594 8.24999C44.5837 7.83653 44.2047 7.52951 43.738 7.32949L43.3441 8.24864ZM44.0296 8.80809C44.1838 9.03533 44.2773 9.34144 44.2773 9.75781H45.2773C45.2773 9.18981 45.1482 8.6756 44.8571 8.24659L44.0296 8.80809ZM44.2773 9.75781V12.4707H45.2773V9.75781H44.2773ZM44.2773 12.4707C44.2773 12.8353 44.2996 13.1552 44.3509 13.4209L45.3327 13.2314C45.2981 13.0518 45.2773 12.8015 45.2773 12.4707H44.2773ZM44.3512 13.4225C44.401 13.6763 44.4761 13.9121 44.5821 14.124L45.4765 13.6768C45.4184 13.5605 45.3685 13.4135 45.3324 13.2298L44.3512 13.4225ZM44.5293 13.9004V14H45.5293V13.9004H44.5293ZM45.0293 13.5H43.3242V14.5H45.0293V13.5ZM43.7755 13.7846C43.7195 13.6674 43.6678 13.5008 43.6299 13.2733L42.6435 13.4377C42.6915 13.7258 42.7649 13.9889 42.873 14.2154L43.7755 13.7846ZM43.6312 13.2817C43.5958 13.0441 43.5781 12.8071 43.5781 12.5703H42.5781C42.5781 12.857 42.5995 13.1434 42.6422 13.4293L43.6312 13.2817ZM42.8008 10.1448L42.8125 11.0999L43.8125 11.0876L43.8007 10.1325L42.8008 10.1448ZM43.3125 10.5938H42.3691V11.5938H43.3125V10.5938ZM42.3691 10.5938C42.1104 10.5938 41.8649 10.623 41.6412 10.6923L41.9369 11.6476C42.0413 11.6152 42.1826 11.5938 42.3691 11.5938V10.5938ZM41.6412 10.6923C41.4235 10.7597 41.2217 10.8627 41.0526 11.013L41.7169 11.7604C41.7588 11.7232 41.8265 11.6817 41.9369 11.6476L41.6412 10.6923ZM41.0605 11.0061C40.8988 11.1439 40.7721 11.3124 40.6893 11.5098L41.6115 11.8965C41.6303 11.8517 41.6598 11.8092 41.709 11.7673L41.0605 11.0061ZM40.6841 11.5226C40.6126 11.7074 40.5801 11.9023 40.5801 12.1016H41.5801C41.5801 12.0118 41.5945 11.941 41.6167 11.8836L40.6841 11.5226ZM40.5801 12.1016C40.5801 12.326 40.6326 12.5428 40.7447 12.7406L41.6147 12.2476C41.594 12.2111 41.5801 12.1662 41.5801 12.1016H40.5801ZM40.7483 12.747C40.8652 12.9464 41.032 13.0989 41.2322 13.2052L41.7014 12.3221C41.6516 12.2956 41.6269 12.2684 41.611 12.2413L40.7483 12.747ZM41.2432 13.2109C41.4503 13.3144 41.6762 13.3574 41.9062 13.3574V12.3574C41.8004 12.3574 41.7333 12.3379 41.6904 12.3165L41.2432 13.2109ZM41.9062 13.3574C42.2275 13.3574 42.5331 13.2928 42.8065 13.1447L42.3302 12.2654C42.2286 12.3205 42.0928 12.3574 41.9062 12.3574V13.3574ZM42.8065 13.1447C43.0509 13.0123 43.2606 12.8375 43.4146 12.6124L42.5893 12.0477C42.5402 12.1195 42.4608 12.1947 42.3302 12.2654L42.8065 13.1447ZM43.4095 12.6197C43.5516 12.4197 43.6581 12.1848 43.6658 11.9229L42.6662 11.8935C42.6661 11.8972 42.6632 11.9436 42.5944 12.0405L43.4095 12.6197ZM42.7416 12.1726L43.1869 12.8874L44.0357 12.3587L43.5904 11.6438L42.7416 12.1726ZM43.1455 12.4413C43.0968 12.5662 43.0267 12.7033 42.9317 12.8527L43.7753 13.3895C43.8991 13.1951 44.0009 13.0002 44.0771 12.8048L43.1455 12.4413ZM42.9274 12.8596C42.8481 12.9888 42.7434 13.1162 42.609 13.241L43.2894 13.9738C43.4832 13.7939 43.648 13.5972 43.7797 13.3826L42.9274 12.8596ZM42.6138 13.2367C42.4962 13.343 42.348 13.4375 42.1623 13.5162L42.5525 14.4369C42.8278 14.3203 43.0741 14.1687 43.2847 13.9782L42.6138 13.2367ZM42.169 13.5134C42.0122 13.5772 41.8058 13.6172 41.5371 13.6172V14.6172C41.9013 14.6172 42.2417 14.5634 42.5458 14.4397L42.169 13.5134ZM41.5371 13.6172C41.2029 13.6172 40.9138 13.5512 40.6607 13.4276L40.2221 14.3263C40.6252 14.5231 41.0666 14.6172 41.5371 14.6172V13.6172ZM40.6672 13.4308C40.4148 13.3031 40.224 13.1343 40.0831 12.9245L39.2528 13.4818C39.4948 13.8422 39.8196 14.1227 40.2157 14.3231L40.6672 13.4308ZM40.0874 12.931C39.956 12.7284 39.8867 12.496 39.8867 12.2188H38.8867C38.8867 12.6759 39.0049 13.0997 39.2485 13.4752L40.0874 12.931ZM39.8867 12.2188C39.8867 11.9503 39.9369 11.7319 40.0241 11.5521L39.1243 11.1158C38.9615 11.4517 38.8867 11.8231 38.8867 12.2188H39.8867ZM40.0241 11.5521C40.1116 11.3717 40.2401 11.2179 40.4187 11.0882L39.8313 10.2789C39.5255 10.5009 39.2868 10.7806 39.1243 11.1158L40.0241 11.5521ZM40.4198 11.0874C40.6021 10.9543 40.8452 10.8429 41.1638 10.765L40.9261 9.79362C40.5102 9.89538 40.14 10.0535 39.8302 10.2798L40.4198 11.0874ZM41.1686 10.7638C41.486 10.6827 41.8687 10.6387 42.3223 10.6387V9.63867C41.8071 9.63867 41.3382 9.68837 40.9212 9.79484L41.1686 10.7638ZM42.3223 10.6387H43.3008V9.63867H42.3223V10.6387ZM49.248 12.6816L49.4673 13.1311L49.476 13.1267L49.248 12.6816ZM49.623 12.3418L49.2003 12.0748L49.1984 12.0778L49.623 12.3418ZM49.7695 11.8203V11.3203H49.2792L49.2696 11.8105L49.7695 11.8203ZM51.3574 11.8203L51.8574 11.8247L51.8618 11.3203H51.3574V11.8203ZM51 13.0098L51.4131 13.2914L51.4146 13.2893L51 13.0098ZM50.0566 13.8242L50.2785 14.2723L50.282 14.2705L50.0566 13.8242ZM47.4434 13.8711L47.2376 14.3268L47.2394 14.3276L47.4434 13.8711ZM46.5352 13.1914L46.1498 13.51L46.1519 13.5125L46.5352 13.1914ZM45.9902 12.1719L45.5127 12.3199L45.5131 12.3213L45.9902 12.1719ZM45.9902 9.49414L46.4674 9.64355L46.4678 9.64219L45.9902 9.49414ZM46.5352 8.47461L46.9184 8.79573L46.9205 8.79318L46.5352 8.47461ZM50.0859 7.8418L49.8588 8.28722L49.8606 8.28812L50.0859 7.8418ZM51.0117 8.69727L50.5829 8.95453L50.5862 8.95982L51.0117 8.69727ZM51.3574 10.0039V10.5039H51.8613L51.8574 10L51.3574 10.0039ZM49.7695 10.0039L49.2696 10.0132L49.2787 10.5039H49.7695V10.0039ZM49.6348 9.42969L49.1834 9.64509L49.1876 9.65329L49.6348 9.42969ZM49.2715 9.01953L48.9917 9.43396L48.9977 9.43796L49.0037 9.44179L49.2715 9.01953ZM48.0879 9.01953L48.3604 9.43882L48.3676 9.43396L48.0879 9.01953ZM47.7246 9.44141L48.1738 9.66102L48.1757 9.65713L47.7246 9.44141ZM47.543 10.0449L47.0488 9.96825L47.0478 9.97543L47.543 10.0449ZM47.7188 12.2305L47.2695 12.4501L47.2735 12.458L47.7188 12.2305ZM48.6973 13.2988C48.968 13.2988 49.2286 13.2474 49.4673 13.131L49.0288 12.2323C48.9472 12.2721 48.8406 12.2988 48.6973 12.2988V13.2988ZM49.476 13.1267C49.7121 13.0057 49.9071 12.8319 50.0477 12.6058L49.1984 12.0778C49.1593 12.1408 49.1043 12.1935 49.0201 12.2366L49.476 13.1267ZM50.0458 12.6088C50.1945 12.3733 50.264 12.1079 50.2694 11.8301L49.2696 11.8105C49.2673 11.9311 49.2391 12.0134 49.2003 12.0748L50.0458 12.6088ZM49.7695 12.3203H51.3574V11.3203H49.7695V12.3203ZM50.8574 11.8159C50.8543 12.1695 50.7615 12.4691 50.5854 12.7303L51.4146 13.2893C51.7073 12.8551 51.8527 12.3617 51.8574 11.8247L50.8574 11.8159ZM50.5869 12.7281C50.4031 12.9976 50.1552 13.2143 49.8313 13.3779L50.282 14.2705C50.7472 14.0357 51.1281 13.7094 51.4131 13.2914L50.5869 12.7281ZM49.8348 13.3761C49.5165 13.5337 49.1523 13.6172 48.7324 13.6172V14.6172C49.2892 14.6172 49.8077 14.5054 50.2785 14.2723L49.8348 13.3761ZM48.7324 13.6172C48.2952 13.6172 47.9377 13.5443 47.6473 13.4146L47.2394 14.3276C47.6834 14.526 48.1853 14.6172 48.7324 14.6172V13.6172ZM47.6492 13.4154C47.3504 13.2805 47.1096 13.0985 46.9184 12.8703L46.1519 13.5125C46.4451 13.8625 46.8098 14.1336 47.2376 14.3268L47.6492 13.4154ZM46.9205 12.8728C46.7223 12.633 46.5704 12.3515 46.4674 12.0225L45.5131 12.3213C45.6522 12.7657 45.8637 13.1639 46.1498 13.51L46.9205 12.8728ZM46.4678 12.0238C46.3628 11.6852 46.3086 11.3175 46.3086 10.918H45.3086C45.3086 11.409 45.3754 11.8773 45.5127 12.3199L46.4678 12.0238ZM46.3086 10.918V10.748H45.3086V10.918H46.3086ZM46.3086 10.748C46.3086 10.3441 46.363 9.97698 46.4674 9.64355L45.5131 9.34473C45.3753 9.78474 45.3086 10.2536 45.3086 10.748H46.3086ZM46.4678 9.64219C46.5709 9.30954 46.7223 9.02976 46.9184 8.79572L46.1519 8.1535C45.8636 8.49758 45.6517 8.89749 45.5127 9.34609L46.4678 9.64219ZM46.9205 8.79318C47.1117 8.56189 47.3519 8.37898 47.6492 8.24475L47.2376 7.33338C46.8082 7.52727 46.443 7.80139 46.1498 8.15604L46.9205 8.79318ZM47.6492 8.24475C47.9349 8.11569 48.2878 8.04297 48.7207 8.04297V7.04297C48.1771 7.04297 47.6784 7.13431 47.2376 7.33338L47.6492 8.24475ZM48.7207 8.04297C49.1758 8.04297 49.5504 8.12994 49.8588 8.28721L50.3131 7.39638C49.8402 7.15522 49.3047 7.04297 48.7207 7.04297V8.04297ZM49.8606 8.28812C50.1727 8.44574 50.41 8.66619 50.583 8.95451L51.4405 8.44002C51.1681 7.98616 50.7882 7.63629 50.3113 7.39547L49.8606 8.28812ZM50.5862 8.95982C50.7572 9.23695 50.8541 9.57972 50.8574 10.0078L51.8574 10C51.8529 9.42028 51.7194 8.89196 51.4372 8.43471L50.5862 8.95982ZM51.3574 9.50391H49.7695V10.5039H51.3574V9.50391ZM50.2694 9.99465C50.2643 9.71661 50.2044 9.45089 50.082 9.20608L49.1876 9.65329C49.237 9.75223 49.267 9.86932 49.2696 10.0132L50.2694 9.99465ZM50.086 9.21432C49.9637 8.95799 49.7792 8.74941 49.5393 8.59728L49.0037 9.44179C49.0841 9.49278 49.1418 9.55764 49.1835 9.64505L50.086 9.21432ZM49.5512 8.60511C49.2955 8.43252 48.9992 8.36133 48.6914 8.36133V9.36133C48.8446 9.36133 48.9349 9.39561 48.9917 9.43396L49.5512 8.60511ZM48.6914 8.36133C48.3757 8.36133 48.0689 8.42911 47.8082 8.60511L48.3676 9.43396C48.4194 9.39901 48.5149 9.36133 48.6914 9.36133V8.36133ZM47.8154 8.60031C47.5767 8.75546 47.3963 8.96897 47.2735 9.22568L48.1757 9.65713C48.2248 9.55447 48.2866 9.48673 48.3604 9.43875L47.8154 8.60031ZM47.2754 9.2218C47.164 9.44968 47.0905 9.70036 47.0489 9.96825L48.0371 10.1216C48.0658 9.93636 48.1133 9.7847 48.1738 9.66101L47.2754 9.2218ZM47.0478 9.97543C47.0131 10.2231 46.9961 10.4809 46.9961 10.748H47.9961C47.9961 10.523 48.0104 10.312 48.0381 10.1144L47.0478 9.97543ZM46.9961 10.748V10.918H47.9961V10.748H46.9961ZM46.9961 10.918C46.9961 11.1852 47.0131 11.4444 47.0477 11.6953L48.0383 11.5586C48.0104 11.3563 47.9961 11.1429 47.9961 10.918H46.9961ZM47.0477 11.6953C47.085 11.9657 47.1568 12.2194 47.2696 12.4501L48.1679 12.0109C48.1089 11.89 48.0635 11.7413 48.0383 11.5586L47.0477 11.6953ZM47.2735 12.458C47.4007 12.7069 47.5814 12.9136 47.8154 13.0657L48.3604 12.2273C48.2819 12.1762 48.2164 12.1056 48.164 12.0029L47.2735 12.458ZM47.8154 13.0657C48.0761 13.2352 48.3828 13.2988 48.6973 13.2988V12.2988C48.5118 12.2988 48.4122 12.2609 48.3604 12.2273L47.8154 13.0657ZM54.0234 4.99414H54.5234V4.49414H54.0234V4.99414ZM54.0234 14V14.5H54.5234V14H54.0234ZM52.3359 14H51.8359V14.5H52.3359V14ZM52.3359 4.99414V4.49414H51.8359V4.99414H52.3359ZM58.0195 7.66016L58.3955 7.98981L59.123 7.16016H58.0195V7.66016ZM55.2656 10.8008L55.6213 11.1522L55.6317 11.1416L55.6416 11.1304L55.2656 10.8008ZM53.7891 12.2949L53.3427 12.5202L53.656 13.1409L54.1447 12.6464L53.7891 12.2949ZM53.1738 11.0762L52.781 10.7669L52.5839 11.0171L52.7275 11.3015L53.1738 11.0762ZM54.3457 9.58789L53.9655 9.26316L53.959 9.27074L53.9529 9.27857L54.3457 9.58789ZM55.9922 7.66016V7.16016H55.7617L55.612 7.33543L55.9922 7.66016ZM56.2676 14L55.8464 14.2695L55.9939 14.5H56.2676V14ZM54.3926 11.0703L54.0635 10.6939L53.7394 10.9773L53.9714 11.3398L54.3926 11.0703ZM55.5586 10.0508L55.9736 9.77187L55.6569 9.30067L55.2295 9.67438L55.5586 10.0508ZM58.2129 14V14.5H59.1514L58.6279 13.7211L58.2129 14ZM53.5234 4.99414V14H54.5234V4.99414H53.5234ZM54.0234 13.5H52.3359V14.5H54.0234V13.5ZM52.8359 14V4.99414H51.8359V14H52.8359ZM52.3359 5.49414H54.0234V4.49414H52.3359V5.49414ZM57.6436 7.33051L54.8897 10.4711L55.6416 11.1304L58.3955 7.98981L57.6436 7.33051ZM54.91 10.4493L53.4334 11.9435L54.1447 12.6464L55.6213 11.1522L54.91 10.4493ZM54.2354 12.0696L53.6202 10.8508L52.7275 11.3015L53.3427 12.5202L54.2354 12.0696ZM53.5667 11.3855L54.7385 9.89721L53.9529 9.27857L52.781 10.7669L53.5667 11.3855ZM54.7259 9.91262L56.3724 7.98489L55.612 7.33543L53.9655 9.26316L54.7259 9.91262ZM55.9922 8.16016H58.0195V7.16016H55.9922V8.16016ZM56.6887 13.7305L54.8137 10.8008L53.9714 11.3398L55.8464 14.2695L56.6887 13.7305ZM54.7217 11.4467L55.8877 10.4272L55.2295 9.67438L54.0635 10.6939L54.7217 11.4467ZM55.1436 10.3297L57.7979 14.2789L58.6279 13.7211L55.9736 9.77187L55.1436 10.3297ZM58.2129 13.5H56.2676V14.5H58.2129V13.5ZM66.7852 11.1699V10.6699H66.3181L66.2863 11.1359L66.7852 11.1699ZM68.5371 11.1699L69.0362 11.2005L69.0687 10.6699H68.5371V11.1699ZM68.0625 12.6992L67.6397 12.4322L67.6381 12.4349L68.0625 12.6992ZM66.8965 13.7422L66.6729 13.295L66.6715 13.2957L66.8965 13.7422ZM63.6328 13.8359L63.4309 14.2934L63.4344 14.2949L63.6328 13.8359ZM62.5195 13.0156L62.1399 13.341L62.142 13.3434L62.5195 13.0156ZM61.8281 7.74805L61.3534 7.59103L61.3527 7.59325L61.8281 7.74805ZM62.543 6.45312L62.1674 6.12299L62.1654 6.12534L62.543 6.45312ZM66.9141 5.73242L66.6806 6.17458L66.6821 6.17534L66.9141 5.73242ZM68.0566 6.79883L67.6269 7.05444L67.6285 7.05716L68.0566 6.79883ZM68.5488 8.3457V8.8457H69.0984L69.0466 8.29862L68.5488 8.3457ZM66.791 8.3457L66.2918 8.37407L66.3186 8.8457H66.791V8.3457ZM66.5859 7.47266L66.1358 7.69044L66.1373 7.69332L66.5859 7.47266ZM66.0527 6.92773L65.8174 7.369L65.8262 7.37348L66.0527 6.92773ZM63.4629 8.24609L62.9744 8.13941L62.9735 8.14366L63.4629 8.24609ZM63.457 11.1992L62.9665 11.2962L62.9667 11.2973L63.457 11.1992ZM63.7617 12.043L63.3316 12.2981L63.3369 12.3067L63.7617 12.043ZM64.3008 12.5586L64.0646 12.9994L64.0741 13.0042L64.3008 12.5586ZM66.5566 12.0312L66.1202 11.7872L66.1171 11.7929L66.5566 12.0312ZM66.7852 11.6699H68.5371V10.6699H66.7852V11.6699ZM68.038 11.1394C68.0075 11.6375 67.872 12.0645 67.6398 12.4322L68.4852 12.9662C68.8155 12.4433 68.9964 11.8507 69.0362 11.2005L68.038 11.1394ZM67.6381 12.4349C67.4127 12.7967 67.096 13.0834 66.6729 13.295L67.1201 14.1894C67.697 13.901 68.1576 13.4924 68.4869 12.9635L67.6381 12.4349ZM66.6715 13.2957C66.2609 13.5026 65.7443 13.6172 65.1035 13.6172V14.6172C65.8612 14.6172 66.5399 14.4818 67.1215 14.1887L66.6715 13.2957ZM65.1035 13.6172C64.6142 13.6172 64.1931 13.5335 63.8313 13.377L63.4344 14.2949C63.9397 14.5134 64.499 14.6172 65.1035 14.6172V13.6172ZM63.8347 13.3785C63.468 13.2167 63.1571 12.9873 62.8971 12.6878L62.142 13.3434C62.4992 13.7549 62.9304 14.0724 63.4309 14.2934L63.8347 13.3785ZM62.8992 12.6902C62.6434 12.3918 62.4412 12.0234 62.2988 11.5751L61.3458 11.878C61.5236 12.4376 61.7863 12.9285 62.1399 13.341L62.8992 12.6902ZM62.2988 11.5751C62.1567 11.1282 62.082 10.6159 62.082 10.0332H61.082C61.082 10.7005 61.1675 11.3172 61.3458 11.878L62.2988 11.5751ZM62.082 10.0332V9.44141H61.082V10.0332H62.082ZM62.082 9.44141C62.082 8.8598 62.1584 8.34872 62.3036 7.90284L61.3527 7.59325C61.1697 8.15518 61.082 8.77302 61.082 9.44141H62.082ZM62.3028 7.90506C62.4528 7.45153 62.6608 7.08009 62.9205 6.78091L62.1654 6.12534C61.8079 6.5371 61.5393 7.02894 61.3534 7.59103L62.3028 7.90506ZM62.9185 6.78325C63.183 6.48239 63.4968 6.25235 63.864 6.09023L63.4602 5.1754C62.9603 5.39608 62.528 5.71292 62.1674 6.123L62.9185 6.78325ZM63.864 6.09023C64.2263 5.93031 64.6406 5.8457 65.1152 5.8457V4.8457C64.5195 4.8457 63.9651 4.9525 63.4602 5.1754L63.864 6.09023ZM65.1152 5.8457C65.7675 5.8457 66.282 5.96411 66.6806 6.17457L67.1475 5.29027C66.5696 4.98511 65.8848 4.8457 65.1152 4.8457V5.8457ZM66.6821 6.17534C67.0969 6.39263 67.4073 6.6852 67.6269 7.05444L68.4864 6.54322C68.1669 6.0062 67.7156 5.58784 67.1461 5.28951L66.6821 6.17534ZM67.6285 7.05716C67.8595 7.43995 68.0027 7.88205 68.0511 8.39279L69.0466 8.29862C68.9855 7.65311 68.8006 7.06396 68.4847 6.5405L67.6285 7.05716ZM68.5488 7.8457H66.791V8.8457H68.5488V7.8457ZM67.2902 8.31734C67.268 7.92569 67.1887 7.5653 67.0346 7.252L66.1373 7.69332C66.2176 7.85657 66.275 8.07821 66.2918 8.37407L67.2902 8.31734ZM67.036 7.25488C66.8716 6.91501 66.6157 6.65295 66.2793 6.48199L65.8262 7.37348C65.9664 7.4447 66.0659 7.54592 66.1359 7.69044L67.036 7.25488ZM66.288 6.48656C65.9551 6.30902 65.5521 6.24023 65.1152 6.24023V7.24023C65.4596 7.24023 65.6816 7.29645 65.8174 7.36891L66.288 6.48656ZM65.1152 6.24023C64.7599 6.24023 64.4247 6.30678 64.124 6.45708L64.5713 7.35151C64.7082 7.28307 64.8847 7.24023 65.1152 7.24023V6.24023ZM64.124 6.45708C63.8203 6.60897 63.5729 6.83694 63.3808 7.12499L64.2129 7.67969C64.3177 7.52243 64.4375 7.41837 64.5713 7.35151L64.124 6.45708ZM63.3808 7.12499C63.1892 7.4125 63.0581 7.75603 62.9744 8.13941L63.9514 8.35277C64.0161 8.05647 64.1077 7.8375 64.2129 7.67969L63.3808 7.12499ZM62.9735 8.14366C62.8943 8.52201 62.8574 8.95238 62.8574 9.42969H63.8574C63.8574 9.00074 63.8909 8.64205 63.9523 8.34853L62.9735 8.14366ZM62.8574 9.42969V10.0332H63.8574V9.42969H62.8574ZM62.8574 10.0332C62.8574 10.4984 62.8923 10.9207 62.9665 11.2962L63.9475 11.1023C63.889 10.8059 63.8574 10.4509 63.8574 10.0332H62.8574ZM62.9667 11.2973C63.0414 11.6707 63.1597 12.0081 63.3317 12.2981L64.1917 11.7879C64.0903 11.6169 64.0054 11.3918 63.9473 11.1012L62.9667 11.2973ZM63.3369 12.3067C63.5202 12.602 63.7628 12.8376 64.0647 12.9993L64.5369 12.1179C64.4012 12.0452 64.2845 11.937 64.1865 11.7793L63.3369 12.3067ZM64.0741 13.0042C64.3824 13.1611 64.7315 13.2285 65.1035 13.2285V12.2285C64.8505 12.2285 64.6645 12.1827 64.5275 12.113L64.0741 13.0042ZM65.1035 13.2285C65.5196 13.2285 65.9043 13.1627 66.2324 13.0014L65.7911 12.1041C65.6425 12.1771 65.4218 12.2285 65.1035 12.2285V13.2285ZM66.2324 13.0014C66.5624 12.8391 66.8211 12.5924 66.9962 12.2696L66.1171 11.7929C66.0422 11.931 65.9376 12.032 65.7911 12.1041L66.2324 13.0014ZM66.993 12.2753C67.1673 11.9638 67.257 11.5999 67.284 11.2039L66.2863 11.1359C66.2664 11.4275 66.2038 11.6378 66.1203 11.7872L66.993 12.2753ZM69.5156 9.48828L69.989 9.64923L69.9895 9.6478L69.5156 9.48828ZM71.0332 7.78906L71.2313 8.24815L71.2354 8.24636L71.0332 7.78906ZM73.5938 7.78906L73.3933 8.24716L73.3974 8.24888L73.5938 7.78906ZM74.5371 8.46289L74.1614 8.79287L74.164 8.7957L74.5371 8.46289ZM75.123 9.48828L74.6492 9.6478L74.6497 9.64923L75.123 9.48828ZM75.123 12.1777L75.5964 12.3387L75.5969 12.3373L75.123 12.1777ZM74.5371 13.2031L74.1618 12.8728L74.1615 12.8732L74.5371 13.2031ZM71.0391 13.877L70.8409 14.336L70.8427 14.3368L71.0391 13.877ZM70.0957 13.2031L69.7178 13.5306L69.7226 13.5359L70.0957 13.2031ZM69.5156 12.1777L69.0418 12.3373L69.0422 12.3387L69.5156 12.1777ZM71.2969 12.248L70.8638 12.4983L70.8707 12.5096L71.2969 12.248ZM73.3301 12.248L73.7606 12.5024L73.763 12.4982L73.3301 12.248ZM73.5527 11.6387L73.0644 11.5311L73.0628 11.539L73.5527 11.6387ZM73.5527 10.0449L73.0627 10.1446L73.0648 10.1543L73.5527 10.0449ZM73.3242 9.43555L72.8888 9.68166L72.8955 9.69279L73.3242 9.43555ZM71.7012 9.01367L71.4424 8.58578L71.438 8.58854L71.7012 9.01367ZM71.2969 9.43555L70.8657 9.18244L70.8639 9.18541L71.2969 9.43555ZM71.0742 10.0449L71.5639 10.1462L71.5642 10.1446L71.0742 10.0449ZM69.8164 10.8945V10.7715H68.8164V10.8945H69.8164ZM69.8164 10.7715C69.8164 10.3545 69.8759 9.98191 69.989 9.64923L69.0422 9.32733C68.8897 9.7759 68.8164 10.2587 68.8164 10.7715H69.8164ZM69.9895 9.6478C70.1029 9.31084 70.2646 9.02821 70.4714 8.79286L69.72 8.13292C69.419 8.47569 69.1939 8.87666 69.0418 9.32876L69.9895 9.6478ZM70.4714 8.79286C70.6739 8.56226 70.9247 8.38046 71.2313 8.24813L70.8351 7.32999C70.3995 7.51798 70.0253 7.78539 69.72 8.13292L70.4714 8.79286ZM71.2354 8.24636C71.5322 8.11516 71.8871 8.04297 72.3105 8.04297V7.04297C71.7731 7.04297 71.2764 7.13484 70.831 7.33176L71.2354 8.24636ZM72.3105 8.04297C72.7339 8.04297 73.0916 8.11511 73.3933 8.24714L73.7942 7.33098C73.3459 7.13489 72.8481 7.04297 72.3105 7.04297V8.04297ZM73.3974 8.24888C73.7079 8.38149 73.9598 8.56327 74.1615 8.79286L74.9128 8.13292C74.6066 7.78439 74.2296 7.51695 73.7901 7.32924L73.3974 8.24888ZM74.164 8.7957C74.3736 9.03071 74.5363 9.3124 74.6492 9.6478L75.5969 9.32876C75.4442 8.8751 75.2163 8.47319 74.9103 8.13008L74.164 8.7957ZM74.6497 9.64923C74.7628 9.98191 74.8223 10.3545 74.8223 10.7715H75.8223C75.8223 10.2587 75.7489 9.7759 75.5964 9.32733L74.6497 9.64923ZM74.8223 10.7715V10.8945H75.8223V10.7715H74.8223ZM74.8223 10.8945C74.8223 11.307 74.7629 11.6803 74.6492 12.0182L75.5969 12.3373C75.7488 11.8861 75.8223 11.4039 75.8223 10.8945H74.8223ZM74.6497 12.0168C74.5368 12.3487 74.3736 12.6321 74.1618 12.8728L74.9125 13.5334C75.2162 13.1882 75.4436 12.788 75.5964 12.3387L74.6497 12.0168ZM74.1615 12.8732C73.9589 13.1038 73.7081 13.2856 73.4015 13.4179L73.7977 14.336C74.2333 14.148 74.6075 13.8806 74.9128 13.5331L74.1615 12.8732ZM73.4015 13.4179C73.1036 13.5464 72.7472 13.6172 72.3223 13.6172V14.6172C72.8582 14.6172 73.3534 14.5278 73.7977 14.336L73.4015 13.4179ZM72.3223 13.6172C71.8974 13.6172 71.5383 13.5465 71.2354 13.4171L70.8427 14.3368C71.2898 14.5277 71.7862 14.6172 72.3223 14.6172V13.6172ZM71.2372 13.4179C70.93 13.2853 70.6761 13.1027 70.4689 12.8703L69.7226 13.5359C70.0309 13.8817 70.406 14.1483 70.8409 14.336L71.2372 13.4179ZM70.4735 12.8757C70.2646 12.6346 70.1024 12.3502 69.989 12.0168L69.0422 12.3387C69.1945 12.7865 69.419 13.1857 69.7179 13.5306L70.4735 12.8757ZM69.9895 12.0182C69.8757 11.6803 69.8164 11.307 69.8164 10.8945H68.8164C68.8164 11.4039 68.8899 11.8861 69.0418 12.3373L69.9895 12.0182ZM70.5039 10.7715V10.8945H71.5039V10.7715H70.5039ZM70.5039 10.8945C70.5039 11.1894 70.5299 11.4712 70.5843 11.7383L71.5642 11.539C71.5248 11.3452 71.5039 11.1309 71.5039 10.8945H70.5039ZM70.5843 11.7383C70.6402 12.0135 70.7315 12.2689 70.8639 12.4982L71.7298 11.9979C71.6592 11.8756 71.602 11.7248 71.5642 11.539L70.5843 11.7383ZM70.8707 12.5096C71.0177 12.7492 71.2135 12.9438 71.4557 13.0846L71.9583 12.2201C71.8646 12.1656 71.7869 12.0907 71.723 11.9865L70.8707 12.5096ZM71.4557 13.0846C71.7167 13.2363 72.0133 13.2988 72.3223 13.2988V12.2988C72.1468 12.2988 72.0333 12.2637 71.9583 12.2201L71.4557 13.0846ZM72.3223 13.2988C72.6267 13.2988 72.9185 13.235 73.1771 13.0846L72.6745 12.2201C72.5972 12.265 72.4866 12.2988 72.3223 12.2988V13.2988ZM73.1771 13.0846C73.4211 12.9427 73.6167 12.7458 73.7605 12.5024L72.8996 11.9937C72.8403 12.094 72.7664 12.1666 72.6745 12.2201L73.1771 13.0846ZM73.763 12.4982C73.8955 12.2689 73.9867 12.0135 74.0427 11.7383L73.0628 11.539C73.025 11.7248 72.9678 11.8756 72.8971 11.9979L73.763 12.4982ZM74.041 11.7463C74.1005 11.4764 74.1289 11.1919 74.1289 10.8945H73.1289C73.1289 11.1284 73.1065 11.34 73.0644 11.5311L74.041 11.7463ZM74.1289 10.8945V10.7715H73.1289V10.8945H74.1289ZM74.1289 10.7715C74.1289 10.4809 74.1003 10.2017 74.0406 9.93557L73.0648 10.1543C73.1067 10.3413 73.1289 10.5465 73.1289 10.7715H74.1289ZM74.0427 9.94527C73.9862 9.66724 73.8916 9.40935 73.753 9.1783L72.8955 9.69279C72.9678 9.81331 73.0256 9.96167 73.0628 10.1446L74.0427 9.94527ZM73.7595 9.18952C73.6179 8.93906 73.4239 8.73413 73.1786 8.58581L72.6612 9.44154C72.7518 9.49634 72.8274 9.57266 72.8889 9.68158L73.7595 9.18952ZM73.1786 8.58581C72.9174 8.42787 72.6205 8.36133 72.3105 8.36133V9.36133C72.4772 9.36133 72.5865 9.39634 72.6612 9.44154L73.1786 8.58581ZM72.3105 8.36133C72.0006 8.36133 71.7037 8.42787 71.4425 8.58581L71.9599 9.44154C72.0346 9.39634 72.1439 9.36133 72.3105 9.36133V8.36133ZM71.438 8.58854C71.1993 8.73629 71.0089 8.93834 70.8657 9.18245L71.7281 9.68865C71.7957 9.57338 71.8749 9.49418 71.9643 9.4388L71.438 8.58854ZM70.8639 9.18541C70.7315 9.41469 70.6402 9.6701 70.5843 9.94527L71.5642 10.1446C71.602 9.9588 71.6592 9.80797 71.7298 9.68569L70.8639 9.18541ZM70.5846 9.94362C70.5301 10.207 70.5039 10.4834 70.5039 10.7715H71.5039C71.5039 10.5439 71.5246 10.3359 71.5638 10.1462L70.5846 9.94362ZM78.0469 8.97266H78.5469V8.9526L78.5453 8.93261L78.0469 8.97266ZM78.0469 14V14.5H78.5469V14H78.0469ZM76.3535 14H75.8535V14.5H76.3535V14ZM76.3535 7.66016V7.16016H75.8535V7.66016H76.3535ZM77.9414 7.66016L78.4398 7.62011L78.4028 7.16016H77.9414V7.66016ZM77.8125 10.6074V11.1074H78.3125V10.6074H77.8125ZM77.3438 10.6074H76.8438V11.1074H77.3438V10.6074ZM77.502 9.38867L77.0219 9.24867L77.021 9.25198L77.502 9.38867ZM77.9766 8.41602L77.5786 8.11333L77.5779 8.1142L77.9766 8.41602ZM80.6016 7.67188L80.4294 8.14136L80.4364 8.1438L80.6016 7.67188ZM81.2051 8.06445L80.8397 8.40598L80.8476 8.41401L81.2051 8.06445ZM81.6035 8.75586L81.1285 8.91202L81.1292 8.91397L81.6035 8.75586ZM81.7441 14V14.5H82.2441V14H81.7441ZM80.0566 14H79.5566V14.5H80.0566V14ZM79.6055 8.96094L79.4024 9.41787L79.407 9.41987L79.6055 8.96094ZM78.5215 9.00195L78.2813 8.56338L78.2769 8.56588L78.5215 9.00195ZM78.123 9.37695L78.5375 9.65671L78.5406 9.65195L78.123 9.37695ZM81.5859 10.4141L81.6485 10.9101L82.0859 10.8549V10.4141H81.5859ZM80.9824 10.4902H80.4824V11.0573L81.045 10.9863L80.9824 10.4902ZM81.1348 9.33594L80.6554 9.19371L80.654 9.19858L81.1348 9.33594ZM81.5977 8.39844L81.2011 8.09385L81.1984 8.09751L81.5977 8.39844ZM82.3652 7.77148L82.5842 8.221L82.5888 8.2187L82.3652 7.77148ZM84.252 7.67773L84.0828 8.14832L84.0894 8.15058L84.252 7.67773ZM84.8906 8.09375L84.5223 8.43203L84.5296 8.4397L84.8906 8.09375ZM85.3008 8.83203L84.8229 8.97908L84.8246 8.98464L85.3008 8.83203ZM85.4473 14V14.5H85.9473V14H85.4473ZM83.7539 14H83.2539V14.5H83.7539V14ZM83.6367 9.2832L83.1851 9.49773L83.1883 9.5046L83.1918 9.51136L83.6367 9.2832ZM83.3086 8.96094L83.1055 9.41784L83.1131 9.4212L83.1207 9.42431L83.3086 8.96094ZM82.2715 8.99023L82.4997 9.43523L82.5085 9.43047L82.2715 8.99023ZM81.6621 9.81055L82.144 9.94384L82.1447 9.94125L81.6621 9.81055ZM77.5469 8.97266V14H78.5469V8.97266H77.5469ZM78.0469 13.5H76.3535V14.5H78.0469V13.5ZM76.8535 14V7.66016H75.8535V14H76.8535ZM76.3535 8.16016H77.9414V7.16016H76.3535V8.16016ZM77.443 7.70021L77.5485 9.01271L78.5453 8.93261L78.4398 7.62011L77.443 7.70021ZM77.8125 10.1074H77.3438V11.1074H77.8125V10.1074ZM77.8438 10.6074C77.8438 10.2057 77.8917 9.84613 77.9829 9.52536L77.021 9.25198C76.9012 9.6734 76.8438 10.1263 76.8438 10.6074H77.8438ZM77.982 9.52867C78.0766 9.20408 78.2096 8.93648 78.3752 8.71783L77.5779 8.1142C77.3294 8.44243 77.146 8.82327 77.022 9.24867L77.982 9.52867ZM78.3745 8.7187C78.5393 8.50212 78.7388 8.33749 78.9772 8.21983L78.5345 7.32314C78.1557 7.51016 77.8357 7.77522 77.5786 8.11333L78.3745 8.7187ZM78.9772 8.21983C79.2056 8.10707 79.4849 8.04297 79.8281 8.04297V7.04297C79.3589 7.04297 78.9233 7.13121 78.5345 7.32314L78.9772 8.21983ZM79.8281 8.04297C80.058 8.04297 80.2567 8.07798 80.4294 8.14131L80.7737 7.20244C80.4777 7.09389 80.1607 7.04297 79.8281 7.04297V8.04297ZM80.4364 8.1438C80.5953 8.19941 80.7276 8.28581 80.8398 8.4059L81.5703 7.72301C81.3467 7.48372 81.0766 7.3084 80.7667 7.19995L80.4364 8.1438ZM80.8476 8.41401C80.9555 8.52441 81.0535 8.68369 81.1285 8.91202L82.0785 8.5997C81.9661 8.25772 81.7984 7.95606 81.5626 7.71489L80.8476 8.41401ZM81.1292 8.91397C81.2014 9.13053 81.2441 9.41209 81.2441 9.76953H82.2441C82.2441 9.33791 82.1932 8.94368 82.0779 8.59775L81.1292 8.91397ZM81.2441 9.76953V14H82.2441V9.76953H81.2441ZM81.7441 13.5H80.0566V14.5H81.7441V13.5ZM80.5566 14V9.95703H79.5566V14H80.5566ZM80.5566 9.95703C80.5566 9.63506 80.5151 9.32235 80.3867 9.06546L79.4922 9.51267C79.52 9.56827 79.5566 9.70087 79.5566 9.95703H80.5566ZM80.3867 9.06546C80.2621 8.81624 80.0685 8.61641 79.8039 8.50201L79.407 9.41987C79.4315 9.43046 79.4606 9.44939 79.4922 9.51267L80.3867 9.06546ZM79.8085 8.50403C79.5881 8.40606 79.3451 8.36719 79.0957 8.36719V9.36719C79.2447 9.36719 79.3416 9.39081 79.4024 9.41784L79.8085 8.50403ZM79.0957 8.36719C78.8073 8.36719 78.5306 8.4269 78.2813 8.5634L78.7616 9.4405C78.8405 9.39732 78.9466 9.36719 79.0957 9.36719V8.36719ZM78.2769 8.56588C78.0439 8.69657 77.8529 8.87811 77.7055 9.10196L78.5406 9.65195C78.6042 9.55548 78.6788 9.48702 78.7661 9.43802L78.2769 8.56588ZM77.7086 9.09722C77.5651 9.30985 77.4652 9.55033 77.4026 9.81071L78.3748 10.0448C78.4137 9.88327 78.4701 9.75655 78.5375 9.65669L77.7086 9.09722ZM77.4026 9.81071C77.3416 10.0641 77.3125 10.3303 77.3125 10.6074H78.3125C78.3125 10.4002 78.3342 10.2132 78.3748 10.0448L77.4026 9.81071ZM81.5233 9.918L80.9198 9.99417L81.045 10.9863L81.6485 10.9101L81.5233 9.918ZM81.4824 10.4902C81.4824 10.1171 81.5282 9.77911 81.6155 9.4733L80.654 9.19858C80.5383 9.6037 80.4824 10.0352 80.4824 10.4902H81.4824ZM81.6141 9.47816C81.7043 9.17431 81.8332 8.91671 81.997 8.69936L81.1984 8.09751C80.9559 8.41922 80.7762 8.78663 80.6554 9.19371L81.6141 9.47816ZM81.9942 8.70302C82.1542 8.49471 82.3493 8.33541 82.5842 8.22098L82.1462 7.32199C81.7718 7.50443 81.4552 7.76311 81.2011 8.09386L81.9942 8.70302ZM82.5888 8.2187C82.8132 8.1065 83.086 8.04297 83.4199 8.04297V7.04297C82.957 7.04297 82.5266 7.13178 82.1416 7.32427L82.5888 8.2187ZM83.4199 8.04297C83.6753 8.04297 83.8944 8.08056 84.0829 8.14827L84.4211 7.2072C84.1095 7.09522 83.7739 7.04297 83.4199 7.04297V8.04297ZM84.0894 8.15058C84.2621 8.20994 84.4039 8.30294 84.5224 8.43195L85.2589 7.75555C85.0258 7.50174 84.7418 7.3174 84.4145 7.20489L84.0894 8.15058ZM84.5296 8.4397C84.6445 8.55955 84.7469 8.73223 84.8229 8.97907L85.7787 8.68499C85.6671 8.32246 85.4961 8.00295 85.2516 7.7478L84.5296 8.4397ZM84.8246 8.98464C84.9018 9.22526 84.9473 9.5434 84.9473 9.95117H85.9473C85.9473 9.47613 85.8951 9.04818 85.7769 8.67942L84.8246 8.98464ZM84.9473 9.95117V14H85.9473V9.95117H84.9473ZM85.4473 13.5H83.7539V14.5H85.4473V13.5ZM84.2539 14V9.95117H83.2539V14H84.2539ZM84.2539 9.95117C84.2539 9.62789 84.2132 9.31151 84.0816 9.05504L83.1918 9.51136C83.2165 9.55958 83.2539 9.68852 83.2539 9.95117H84.2539ZM84.0884 9.06867C83.9668 8.81274 83.77 8.60845 83.4964 8.49757L83.1207 9.42431C83.1363 9.43061 83.1582 9.44117 83.1851 9.49773L84.0884 9.06867ZM83.5117 8.50403C83.2924 8.40657 83.0518 8.36719 82.8047 8.36719V9.36719C82.9482 9.36719 83.0436 9.39031 83.1055 9.41784L83.5117 8.50403ZM82.8047 8.36719C82.5332 8.36719 82.2714 8.42243 82.0344 8.55L82.5085 9.43047C82.5763 9.39398 82.6699 9.36719 82.8047 9.36719V8.36719ZM82.0433 8.54533C81.8198 8.65996 81.6324 8.82187 81.4853 9.02561L82.296 9.6111C82.3519 9.5336 82.4185 9.47675 82.4996 9.43514L82.0433 8.54533ZM81.4853 9.02561C81.3444 9.22065 81.2442 9.44105 81.1795 9.67984L82.1447 9.94125C82.1816 9.80505 82.2337 9.69731 82.296 9.6111L81.4853 9.02561ZM81.1802 9.67725C81.1158 9.91013 81.0859 10.1568 81.0859 10.4141H82.0859C82.0859 10.2338 82.1069 10.0782 82.144 9.94384L81.1802 9.67725ZM88.4414 8.87891H88.9414V8.85373L88.9389 8.82868L88.4414 8.87891ZM88.4414 16.4375V16.9375H88.9414V16.4375H88.4414ZM86.7539 16.4375H86.2539V16.9375H86.7539V16.4375ZM86.7539 7.66016V7.16016H86.2539V7.66016H86.7539ZM88.3184 7.66016L88.8158 7.60993L88.7704 7.16016H88.3184V7.66016ZM92.291 12.166L91.8092 12.0324L91.808 12.0369L92.291 12.166ZM91.8223 13.1973L92.2288 13.4884L92.2306 13.4858L91.8223 13.1973ZM91.0488 13.877L91.2815 14.3195L91.2835 14.3184L91.0488 13.877ZM88.2656 13.2266L87.8504 13.5053L87.8549 13.5118L88.2656 13.2266ZM87.5332 11.0293H87.0332V11.0655L87.0384 11.1013L87.5332 11.0293ZM87.5332 10.707L87.0377 10.6398L87.0332 10.6733V10.707H87.5332ZM87.8027 9.44141L88.2808 9.58776L88.2812 9.58641L87.8027 9.44141ZM88.2656 8.43945L87.8531 8.15691L87.8523 8.15814L88.2656 8.43945ZM88.9805 7.77734L88.7402 7.33885L88.7376 7.34027L88.9805 7.77734ZM91.043 7.77148L90.8194 8.2187L90.8216 8.21983L91.043 7.77148ZM91.8164 8.42773L91.4118 8.7215L91.4144 8.72508L91.8164 8.42773ZM92.291 9.44727L91.808 9.5764L91.8092 9.58084L92.291 9.44727ZM90.6914 10.0156L90.1998 10.1073L90.2018 10.1169L90.6914 10.0156ZM90.4805 9.41211L90.0415 9.65157L90.0457 9.65911L90.4805 9.41211ZM90.1055 9.01367L89.8356 9.43461L89.8419 9.43861L89.8482 9.44242L90.1055 9.01367ZM88.957 8.97852L88.7509 8.52294L88.7468 8.52486L88.957 8.97852ZM88.2422 10.4668L87.7428 10.443L87.7422 10.4549V10.4668H88.2422ZM88.2422 11.2812H87.7422V11.2981L87.7433 11.315L88.2422 11.2812ZM88.4062 12.0605L87.9404 12.2422L87.9415 12.2449L88.4062 12.0605ZM90.123 12.6523L90.3929 13.0734L90.4004 13.0684L90.123 12.6523ZM90.4922 12.2363L90.055 11.9935L90.051 12.001L90.4922 12.2363ZM90.6973 11.627L90.2057 11.5353L90.2043 11.5434L90.6973 11.627ZM87.9414 8.87891V16.4375H88.9414V8.87891H87.9414ZM88.4414 15.9375H86.7539V16.9375H88.4414V15.9375ZM87.2539 16.4375V7.66016H86.2539V16.4375H87.2539ZM86.7539 8.16016H88.3184V7.16016H86.7539V8.16016ZM87.8209 7.71038L87.9439 8.92913L88.9389 8.82868L88.8158 7.60993L87.8209 7.71038ZM91.9551 10.7598V10.8828H92.9551V10.7598H91.9551ZM91.9551 10.8828C91.9551 11.3042 91.9051 11.6865 91.8092 12.0324L92.7728 12.2996C92.8957 11.8565 92.9551 11.3833 92.9551 10.8828H91.9551ZM91.808 12.0369C91.7157 12.3821 91.5825 12.6702 91.4139 12.9087L92.2306 13.4858C92.4761 13.1384 92.6554 12.739 92.7741 12.2951L91.808 12.0369ZM91.4158 12.9061C91.2528 13.1336 91.0534 13.3082 90.8141 13.4355L91.2835 14.3184C91.6614 14.1175 91.9776 13.839 92.2288 13.4884L91.4158 12.9061ZM90.8162 13.4344C90.5938 13.5513 90.3243 13.6172 89.9941 13.6172V14.6172C90.4608 14.6172 90.8945 14.523 91.2815 14.3195L90.8162 13.4344ZM89.9941 13.6172C89.6755 13.6172 89.4253 13.5532 89.2266 13.4443L88.7461 14.3213C89.1176 14.5249 89.5393 14.6172 89.9941 14.6172V13.6172ZM89.2266 13.4443C89.013 13.3273 88.8299 13.1625 88.6763 12.9414L87.8549 13.5118C88.092 13.8531 88.3894 14.1259 88.7461 14.3213L89.2266 13.4443ZM88.6808 12.9479C88.5197 12.708 88.3848 12.4227 88.28 12.0872L87.3255 12.3855C87.455 12.7999 87.6287 13.1748 87.8505 13.5052L88.6808 12.9479ZM88.28 12.0872C88.1714 11.7399 88.0871 11.3636 88.028 10.9573L87.0384 11.1013C87.1043 11.5544 87.1997 11.9828 87.3255 12.3855L88.28 12.0872ZM88.0332 11.0293V10.707H87.0332V11.0293H88.0332ZM88.0287 10.7742C88.0881 10.3359 88.1727 9.94095 88.2808 9.58776L87.3246 9.29505C87.1984 9.70749 87.1033 10.1563 87.0377 10.6398L88.0287 10.7742ZM88.2812 9.58641C88.3864 9.23934 88.5208 8.95314 88.679 8.72077L87.8523 8.15814C87.6276 8.48826 87.4534 8.87004 87.3242 9.2964L88.2812 9.58641ZM88.6781 8.722C88.833 8.49596 89.0148 8.33026 89.2233 8.21442L88.7376 7.34027C88.3837 7.53693 88.0889 7.81264 87.8531 8.15691L88.6781 8.722ZM89.2207 8.21583C89.4202 8.10655 89.6687 8.04297 89.9824 8.04297V7.04297C89.5306 7.04297 89.1111 7.13564 88.7402 7.33886L89.2207 8.21583ZM89.9824 8.04297C90.3211 8.04297 90.5956 8.10682 90.8194 8.2187L91.2666 7.32427C90.881 7.13146 90.4484 7.04297 89.9824 7.04297V8.04297ZM90.8216 8.21983C91.0557 8.33539 91.2512 8.50033 91.4118 8.72149L92.221 8.13398C91.9675 7.78482 91.6474 7.51227 91.2643 7.32314L90.8216 8.21983ZM91.4144 8.72508C91.5828 8.95272 91.7163 9.23345 91.808 9.57639L92.7741 9.31814C92.6548 8.87201 92.4719 8.47306 92.2184 8.13038L91.4144 8.72508ZM91.8092 9.58084C91.9046 9.92511 91.9551 10.3168 91.9551 10.7598H92.9551C92.9551 10.2418 92.8962 9.75848 92.7728 9.31369L91.8092 9.58084ZM91.2617 10.8828V10.7598H90.2617V10.8828H91.2617ZM91.2617 10.7598C91.2617 10.4616 91.2358 10.1791 91.181 9.91432L90.2018 10.1169C90.2407 10.3052 90.2617 10.5188 90.2617 10.7598H91.2617ZM91.1829 9.92398C91.1316 9.64882 91.0448 9.39328 90.9152 9.1651L90.0457 9.65911C90.1114 9.77469 90.1652 9.9215 90.1999 10.1073L91.1829 9.92398ZM90.9194 9.17268C90.7863 8.92867 90.601 8.72789 90.3627 8.58493L89.8482 9.44242C89.9225 9.48696 89.9871 9.55179 90.0415 9.65154L90.9194 9.17268ZM90.3753 8.59273C90.127 8.43356 89.8431 8.36719 89.5488 8.36719V9.36719C89.6921 9.36719 89.7793 9.39847 89.8356 9.43461L90.3753 8.59273ZM89.5488 8.36719C89.2664 8.36719 88.9952 8.41247 88.7509 8.52296L89.1631 9.43407C89.247 9.39613 89.3703 9.36719 89.5488 9.36719V8.36719ZM88.7468 8.52486C88.5103 8.63445 88.3118 8.79667 88.1591 9.00804L88.9698 9.59353C89.0203 9.52364 89.0834 9.47102 89.1673 9.43217L88.7468 8.52486ZM88.1591 9.00804C88.0158 9.20645 87.9159 9.43318 87.852 9.67887L88.8198 9.9305C88.8575 9.78557 88.91 9.67636 88.9698 9.59353L88.1591 9.00804ZM87.852 9.67887C87.7909 9.91393 87.7558 10.1697 87.7428 10.443L88.7416 10.4906C88.752 10.2717 88.7794 10.0861 88.8198 9.9305L87.852 9.67887ZM87.7422 10.4668V11.2812H88.7422V10.4668H87.7422ZM87.7433 11.315C87.7657 11.6463 87.8293 11.957 87.9404 12.2422L88.8721 11.8789C88.8036 11.7031 88.7577 11.4944 88.7411 11.2475L87.7433 11.315ZM87.9415 12.2449C88.0647 12.5557 88.2618 12.8154 88.5333 13.0076L89.1113 12.1916C89.0077 12.1182 88.9275 12.0185 88.871 11.8762L87.9415 12.2449ZM88.5333 13.0076C88.8289 13.217 89.1857 13.2988 89.5605 13.2988V12.2988C89.326 12.2988 89.1906 12.2478 89.1113 12.1916L88.5333 13.0076ZM89.5605 13.2988C89.8568 13.2988 90.1432 13.2333 90.3929 13.0733L89.8532 12.2314C89.7982 12.2667 89.7097 12.2988 89.5605 12.2988V13.2988ZM90.4004 13.0684C90.6274 12.9171 90.8043 12.7137 90.9334 12.4716L90.051 12.001C89.9926 12.1105 89.9234 12.1845 89.8457 12.2363L90.4004 13.0684ZM90.9293 12.4791C91.0585 12.2465 91.1432 11.9879 91.1902 11.7105L90.2043 11.5434C90.1732 11.7269 90.1212 11.8746 90.0551 11.9935L90.9293 12.4791ZM91.1888 11.7186C91.2381 11.4542 91.2617 11.1752 91.2617 10.8828H90.2617C90.2617 11.1217 90.2424 11.3387 90.2057 11.5353L91.1888 11.7186ZM93.4336 9.48828L93.907 9.64923L93.9075 9.6478L93.4336 9.48828ZM94.9512 7.78906L95.1493 8.24815L95.1533 8.24636L94.9512 7.78906ZM97.5117 7.78906L97.3113 8.24716L97.3153 8.24888L97.5117 7.78906ZM98.4551 8.46289L98.0794 8.79287L98.0819 8.7957L98.4551 8.46289ZM99.041 9.48828L98.5671 9.6478L98.5676 9.64923L99.041 9.48828ZM99.041 12.1777L99.5144 12.3387L99.5149 12.3373L99.041 12.1777ZM98.4551 13.2031L98.0797 12.8728L98.0794 12.8732L98.4551 13.2031ZM94.957 13.877L94.7589 14.336L94.7606 14.3368L94.957 13.877ZM94.0137 13.2031L93.6358 13.5306L93.6405 13.5359L94.0137 13.2031ZM93.4336 12.1777L92.9597 12.3373L92.9602 12.3387L93.4336 12.1777ZM95.2148 12.248L94.7818 12.4983L94.7887 12.5096L95.2148 12.248ZM97.248 12.248L97.6785 12.5024L97.681 12.4982L97.248 12.248ZM97.4707 11.6387L96.9824 11.5311L96.9807 11.539L97.4707 11.6387ZM97.4707 10.0449L96.9806 10.1446L96.9828 10.1543L97.4707 10.0449ZM97.2422 9.43555L96.8068 9.68166L96.8134 9.69279L97.2422 9.43555ZM95.6191 9.01367L95.3604 8.58578L95.356 8.58854L95.6191 9.01367ZM95.2148 9.43555L94.7836 9.18244L94.7819 9.18541L95.2148 9.43555ZM94.9922 10.0449L95.4818 10.1462L95.4822 10.1446L94.9922 10.0449ZM93.7344 10.8945V10.7715H92.7344V10.8945H93.7344ZM93.7344 10.7715C93.7344 10.3545 93.7939 9.98191 93.907 9.64923L92.9602 9.32733C92.8077 9.7759 92.7344 10.2587 92.7344 10.7715H93.7344ZM93.9075 9.6478C94.0209 9.31084 94.1826 9.02821 94.3893 8.79286L93.638 8.13292C93.3369 8.47569 93.1119 8.87666 92.9597 9.32876L93.9075 9.6478ZM94.3893 8.79286C94.5919 8.56226 94.8427 8.38046 95.1493 8.24813L94.753 7.32999C94.3175 7.51798 93.9433 7.78539 93.638 8.13292L94.3893 8.79286ZM95.1533 8.24636C95.4501 8.11516 95.805 8.04297 96.2285 8.04297V7.04297C95.6911 7.04297 95.1944 7.13484 94.749 7.33176L95.1533 8.24636ZM96.2285 8.04297C96.6519 8.04297 97.0095 8.11511 97.3113 8.24714L97.7121 7.33098C97.2639 7.13489 96.7661 7.04297 96.2285 7.04297V8.04297ZM97.3153 8.24888C97.6258 8.38149 97.8778 8.56327 98.0794 8.79286L98.8307 8.13292C98.5246 7.78439 98.1476 7.51695 97.7081 7.32924L97.3153 8.24888ZM98.0819 8.7957C98.2915 9.03071 98.4542 9.3124 98.5671 9.6478L99.5149 9.32876C99.3622 8.8751 99.1342 8.47319 98.8282 8.13008L98.0819 8.7957ZM98.5676 9.64923C98.6807 9.98191 98.7402 10.3545 98.7402 10.7715H99.7402C99.7402 10.2587 99.6669 9.7759 99.5144 9.32733L98.5676 9.64923ZM98.7402 10.7715V10.8945H99.7402V10.7715H98.7402ZM98.7402 10.8945C98.7402 11.307 98.6809 11.6803 98.5671 12.0182L99.5149 12.3373C99.6668 11.8861 99.7402 11.4039 99.7402 10.8945H98.7402ZM98.5676 12.0168C98.4548 12.3487 98.2916 12.6321 98.0797 12.8728L98.8304 13.5334C99.1342 13.1882 99.3616 12.788 99.5144 12.3387L98.5676 12.0168ZM98.0794 12.8732C97.8769 13.1038 97.6261 13.2856 97.3195 13.4179L97.7157 14.336C98.1513 14.148 98.5255 13.8806 98.8307 13.5331L98.0794 12.8732ZM97.3195 13.4179C97.0216 13.5464 96.6652 13.6172 96.2402 13.6172V14.6172C96.7762 14.6172 97.2714 14.5278 97.7157 14.336L97.3195 13.4179ZM96.2402 13.6172C95.8154 13.6172 95.4563 13.5465 95.1534 13.4171L94.7606 14.3368C95.2078 14.5277 95.7041 14.6172 96.2402 14.6172V13.6172ZM95.1552 13.4179C94.8479 13.2853 94.5941 13.1027 94.3868 12.8703L93.6405 13.5359C93.9489 13.8817 94.324 14.1483 94.7589 14.336L95.1552 13.4179ZM94.3915 12.8757C94.1826 12.6346 94.0204 12.3502 93.907 12.0168L92.9602 12.3387C93.1125 12.7865 93.337 13.1857 93.6358 13.5306L94.3915 12.8757ZM93.9075 12.0182C93.7937 11.6803 93.7344 11.307 93.7344 10.8945H92.7344C92.7344 11.4039 92.8079 11.8861 92.9597 12.3373L93.9075 12.0182ZM94.4219 10.7715V10.8945H95.4219V10.7715H94.4219ZM94.4219 10.8945C94.4219 11.1894 94.4479 11.4712 94.5022 11.7383L95.4822 11.539C95.4427 11.3452 95.4219 11.1309 95.4219 10.8945H94.4219ZM94.5022 11.7383C94.5582 12.0135 94.6494 12.2689 94.7819 12.4982L95.6478 11.9979C95.5771 11.8756 95.5199 11.7248 95.4822 11.539L94.5022 11.7383ZM94.7887 12.5096C94.9357 12.7492 95.1315 12.9438 95.3737 13.0846L95.8763 12.2201C95.7826 12.1656 95.7049 12.0907 95.641 11.9865L94.7887 12.5096ZM95.3737 13.0846C95.6347 13.2363 95.9313 13.2988 96.2402 13.2988V12.2988C96.0648 12.2988 95.9513 12.2637 95.8763 12.2201L95.3737 13.0846ZM96.2402 13.2988C96.5447 13.2988 96.8364 13.235 97.0951 13.0846L96.5924 12.2201C96.5151 12.265 96.4045 12.2988 96.2402 12.2988V13.2988ZM97.0951 13.0846C97.3391 12.9427 97.5347 12.7458 97.6785 12.5024L96.8176 11.9937C96.7583 12.094 96.6844 12.1666 96.5924 12.2201L97.0951 13.0846ZM97.681 12.4982C97.8135 12.2689 97.9047 12.0135 97.9607 11.7383L96.9807 11.539C96.943 11.7248 96.8858 11.8756 96.8151 11.9979L97.681 12.4982ZM97.959 11.7463C98.0185 11.4764 98.0469 11.1919 98.0469 10.8945H97.0469C97.0469 11.1284 97.0245 11.34 96.9824 11.5311L97.959 11.7463ZM98.0469 10.8945V10.7715H97.0469V10.8945H98.0469ZM98.0469 10.7715C98.0469 10.4809 98.0183 10.2017 97.9586 9.93557L96.9828 10.1543C97.0247 10.3413 97.0469 10.5465 97.0469 10.7715H98.0469ZM97.9607 9.94527C97.9041 9.66724 97.8096 9.40935 97.6709 9.1783L96.8134 9.69279C96.8858 9.81331 96.9435 9.96167 96.9807 10.1446L97.9607 9.94527ZM97.6775 9.18952C97.5359 8.93906 97.3419 8.73413 97.0966 8.58581L96.5792 9.44154C96.6698 9.49634 96.7453 9.57266 96.8069 9.68158L97.6775 9.18952ZM97.0966 8.58581C96.8354 8.42787 96.5385 8.36133 96.2285 8.36133V9.36133C96.3951 9.36133 96.5044 9.39634 96.5792 9.44154L97.0966 8.58581ZM96.2285 8.36133C95.9186 8.36133 95.6216 8.42787 95.3604 8.58581L95.8779 9.44154C95.9526 9.39634 96.0619 9.36133 96.2285 9.36133V8.36133ZM95.356 8.58854C95.1173 8.73629 94.9269 8.93834 94.7836 9.18245L95.6461 9.68865C95.7137 9.57338 95.7929 9.49418 95.8823 9.4388L95.356 8.58854ZM94.7819 9.18541C94.6494 9.41469 94.5582 9.6701 94.5022 9.94527L95.4822 10.1446C95.5199 9.9588 95.5771 9.80797 95.6478 9.68569L94.7819 9.18541ZM94.5026 9.94362C94.4481 10.207 94.4219 10.4834 94.4219 10.7715H95.4219C95.4219 10.5439 95.4426 10.3359 95.4818 10.1462L94.5026 9.94362ZM103.207 11.6504L102.999 12.1051L103.01 12.11L103.207 11.6504ZM102.393 11.416L102.285 11.9045L102.296 11.9065L102.393 11.416ZM101.496 11.1523L101.31 11.6167L101.318 11.6197L101.496 11.1523ZM100.781 10.7598L100.478 11.157L100.481 11.1598L100.781 10.7598ZM100.312 10.2207L99.872 10.4573L99.8739 10.4607L100.312 10.2207ZM100.312 8.75L99.8652 8.52637L99.8623 8.53242L100.312 8.75ZM100.811 8.12891L101.131 8.51245L101.132 8.51189L100.811 8.12891ZM101.607 7.70117L101.762 8.1767L101.766 8.17551L101.607 7.70117ZM104.092 7.80664L103.888 8.26336L103.89 8.2641L104.092 7.80664ZM105.006 8.5332L104.593 8.81539L104.597 8.82134L105.006 8.5332ZM105.328 9.57617V10.0762H105.828V9.57617H105.328ZM103.641 9.57617H103.141V10.0762H103.641V9.57617ZM103.535 9.13672L103.088 9.36033L103.092 9.36831L103.096 9.37614L103.535 9.13672ZM103.219 8.82617L102.976 9.26325L102.983 9.26722L102.99 9.27096L103.219 8.82617ZM102.182 8.80859L102.39 9.26346L102.4 9.25835L102.182 8.80859ZM101.865 9.06641L101.451 8.78565L101.449 8.78906L101.865 9.06641ZM101.818 9.68164L101.371 9.90525L101.378 9.91892L101.386 9.93216L101.818 9.68164ZM102.387 10.0625L102.214 10.5317L102.221 10.5344L102.229 10.5368L102.387 10.0625ZM102.949 10.2031L103.05 9.71329L103.044 9.71218L102.949 10.2031ZM104.174 10.5723L103.979 11.0326L103.983 11.0344L104.174 10.5723ZM105.029 11.1816L104.642 11.4983L104.645 11.5012L105.029 11.1816ZM104.619 13.5723L104.915 13.9755L104.919 13.9723L104.619 13.5723ZM103.775 13.9766L103.914 14.4569L103.918 14.4558L103.775 13.9766ZM101.18 13.8008L100.949 14.2445L100.951 14.2454L101.18 13.8008ZM100.254 12.998L99.831 13.2649L99.8348 13.2707L100.254 12.998ZM99.9434 11.9902V11.4902H99.4434V11.9902H99.9434ZM101.543 11.9902L102.043 11.9733L102.026 11.4902H101.543V11.9902ZM101.719 12.5469L101.324 12.8539L101.329 12.8605L101.719 12.5469ZM102.146 12.8516L101.976 13.3215L101.979 13.3227L102.146 12.8516ZM103.26 12.8574L103.448 13.3209L103.458 13.3164L103.26 12.8574ZM103.588 12.6113L103.186 12.3137L103.184 12.3163L103.588 12.6113ZM104.205 12.248C104.205 12.0228 104.137 11.8111 104.005 11.6278L103.194 12.2121C103.202 12.2241 103.205 12.2311 103.205 12.248H104.205ZM104.005 11.6278C103.856 11.4203 103.625 11.2857 103.404 11.1908L103.01 12.11C103.084 12.1418 103.134 12.1699 103.166 12.1915C103.198 12.2136 103.201 12.2223 103.194 12.2121L104.005 11.6278ZM103.415 11.1959C103.175 11.0858 102.859 10.9986 102.49 10.9255L102.296 11.9065C102.637 11.974 102.864 12.0431 102.999 12.1049L103.415 11.1959ZM102.5 10.9276C102.201 10.8621 101.926 10.7809 101.674 10.685L101.318 11.6197C101.621 11.7347 101.944 11.8294 102.285 11.9044L102.5 10.9276ZM101.682 10.6881C101.443 10.5925 101.244 10.482 101.081 10.3598L100.481 11.1598C100.725 11.3423 101.003 11.4934 101.31 11.6166L101.682 10.6881ZM101.085 10.3626C100.938 10.2499 100.829 10.1227 100.751 9.9807L99.8739 10.4607C100.023 10.7328 100.226 10.9649 100.478 11.1569L101.085 10.3626ZM100.753 9.98414C100.683 9.85468 100.643 9.6975 100.643 9.5H99.6426C99.6426 9.84156 99.715 10.1649 99.872 10.4573L100.753 9.98414ZM100.643 9.5C100.643 9.30814 100.683 9.1327 100.763 8.96758L99.8623 8.53242C99.7156 8.83605 99.6426 9.16061 99.6426 9.5H100.643ZM100.76 8.97361C100.844 8.80481 100.965 8.65115 101.131 8.51244L100.49 7.74537C100.226 7.96604 100.015 8.22644 99.8653 8.52639L100.76 8.97361ZM101.132 8.51189C101.295 8.37531 101.501 8.26137 101.762 8.17669L101.453 7.22565C101.088 7.3441 100.764 7.51532 100.489 7.74592L101.132 8.51189ZM101.766 8.17551C102.023 8.08982 102.323 8.04297 102.674 8.04297V7.04297C102.235 7.04297 101.825 7.10158 101.449 7.22683L101.766 8.17551ZM102.674 8.04297C103.173 8.04297 103.573 8.12282 103.888 8.26336L104.295 7.34992C103.822 7.1389 103.276 7.04297 102.674 7.04297V8.04297ZM103.89 8.2641C104.217 8.40857 104.443 8.59569 104.593 8.81536L105.419 8.25105C105.147 7.85353 104.763 7.55627 104.294 7.34918L103.89 8.2641ZM104.597 8.82134C104.75 9.03753 104.828 9.28349 104.828 9.57617H105.828C105.828 9.08761 105.692 8.63825 105.414 8.24507L104.597 8.82134ZM105.328 9.07617H103.641V10.0762H105.328V9.07617ZM104.141 9.57617C104.141 9.33844 104.089 9.10794 103.974 8.89729L103.096 9.37614C103.122 9.42331 103.141 9.48578 103.141 9.57617H104.141ZM103.982 8.91311C103.864 8.67615 103.677 8.49936 103.447 8.38139L102.99 9.27096C103.05 9.30142 103.074 9.33166 103.088 9.36033L103.982 8.91311ZM103.462 8.38909C103.222 8.25627 102.947 8.20898 102.668 8.20898V9.20898C102.842 9.20898 102.934 9.23983 102.976 9.26325L103.462 8.38909ZM102.668 8.20898C102.422 8.20898 102.182 8.25256 101.963 8.35884L102.4 9.25835C102.455 9.23182 102.539 9.20898 102.668 9.20898V8.20898ZM101.974 8.35386C101.765 8.44907 101.584 8.59057 101.451 8.78566L102.279 9.34716C102.295 9.3235 102.324 9.29311 102.39 9.26333L101.974 8.35386ZM101.449 8.78906C101.323 8.97813 101.26 9.19213 101.26 9.41797H102.26C102.26 9.386 102.267 9.36562 102.281 9.34376L101.449 8.78906ZM101.26 9.41797C101.26 9.58399 101.293 9.74986 101.371 9.90525L102.266 9.45803C102.265 9.45717 102.26 9.44726 102.26 9.41797H101.26ZM101.386 9.93216C101.477 10.0902 101.608 10.2105 101.746 10.3027L102.301 9.47069C102.252 9.43791 102.246 9.42154 102.251 9.43112L101.386 9.93216ZM101.746 10.3027C101.883 10.3938 102.042 10.4684 102.214 10.5317L102.56 9.59333C102.434 9.54721 102.352 9.50468 102.301 9.47069L101.746 10.3027ZM102.229 10.5368C102.408 10.5967 102.618 10.6485 102.854 10.6941L103.044 9.71218C102.835 9.67182 102.67 9.62986 102.545 9.58816L102.229 10.5368ZM102.849 10.6929C103.279 10.7813 103.655 10.8954 103.979 11.0326L104.369 10.1119C103.974 9.94443 103.533 9.81249 103.05 9.71332L102.849 10.6929ZM103.983 11.0344C104.279 11.1566 104.492 11.3144 104.642 11.4983L105.416 10.865C105.145 10.5333 104.788 10.2848 104.365 10.1101L103.983 11.0344ZM104.645 11.5012C104.764 11.6443 104.846 11.8557 104.846 12.1836H105.846C105.846 11.6833 105.717 11.2268 105.414 10.8621L104.645 11.5012ZM104.846 12.1836C104.846 12.3878 104.801 12.564 104.717 12.7217L105.599 13.1923C105.765 12.8813 105.846 12.5419 105.846 12.1836H104.846ZM104.717 12.7217C104.63 12.8851 104.501 13.0358 104.319 13.1723L104.919 13.9723C105.206 13.7571 105.437 13.4977 105.599 13.1923L104.717 12.7217ZM104.323 13.1691C104.143 13.3016 103.915 13.4132 103.633 13.4973L103.918 14.4558C104.292 14.3446 104.627 14.1867 104.915 13.9755L104.323 13.1691ZM103.637 13.4962C103.366 13.5746 103.048 13.6172 102.68 13.6172V14.6172C103.124 14.6172 103.537 14.566 103.914 14.4569L103.637 13.4962ZM102.68 13.6172C102.148 13.6172 101.731 13.522 101.408 13.3561L100.951 14.2454C101.449 14.5015 102.032 14.6172 102.68 14.6172V13.6172ZM101.41 13.357C101.066 13.1786 100.829 12.965 100.673 12.7254L99.8348 13.2707C100.101 13.6795 100.481 14.0011 100.949 14.2445L101.41 13.357ZM100.677 12.7312C100.513 12.4724 100.443 12.2278 100.443 11.9902H99.4434C99.4434 12.4402 99.5803 12.8674 99.831 13.2649L100.677 12.7312ZM99.9434 12.4902H101.543V11.4902H99.9434V12.4902ZM101.043 12.0072C101.054 12.312 101.133 12.6085 101.324 12.8538L102.113 12.2399C102.085 12.204 102.048 12.1294 102.043 11.9733L101.043 12.0072ZM101.329 12.8605C101.501 13.0731 101.719 13.2282 101.976 13.3215L102.317 12.3817C102.23 12.3499 102.163 12.3019 102.108 12.2332L101.329 12.8605ZM101.979 13.3227C102.213 13.4059 102.46 13.4453 102.715 13.4453V12.4453C102.564 12.4453 102.431 12.4222 102.314 12.3805L101.979 13.3227ZM102.715 13.4453C102.974 13.4453 103.225 13.4112 103.448 13.3208L103.072 12.3941C103.006 12.4208 102.893 12.4453 102.715 12.4453V13.4453ZM103.458 13.3164C103.664 13.2273 103.853 13.0959 103.992 12.9063L103.184 12.3163C103.174 12.3299 103.144 12.3626 103.061 12.3985L103.458 13.3164ZM103.99 12.9089C104.134 12.7136 104.205 12.4872 104.205 12.248H103.205C103.205 12.2824 103.198 12.2981 103.186 12.3137L103.99 12.9089ZM108.035 13.8828L107.845 14.3455L107.849 14.3471L108.035 13.8828ZM107.039 13.2207L106.678 13.5667L106.681 13.5692L107.039 13.2207ZM106.418 12.2422L105.951 12.422L105.952 12.4236L106.418 12.2422ZM106.992 8.45703L106.617 8.12671L106.614 8.12957L106.992 8.45703ZM107.93 7.7832L108.125 8.2433L108.13 8.24151L107.93 7.7832ZM111.24 8.39844L110.861 8.72384L110.863 8.72693L111.24 8.39844ZM111.779 9.38281L111.303 9.53361L111.303 9.53502L111.779 9.38281ZM111.961 11.3516V11.8516H112.461V11.3516H111.961ZM106.922 11.3516H106.422V11.8516H106.922V11.3516ZM106.922 10.2266V9.72656H106.422V10.2266H106.922ZM110.303 10.2266V10.7266H110.803V10.2266H110.303ZM110.174 9.4707L109.716 9.67118L109.721 9.68267L110.174 9.4707ZM108.188 9.41797L107.755 9.16779L107.75 9.17515L108.188 9.41797ZM107.965 10.0391L107.476 9.93484L107.475 9.941L107.965 10.0391ZM108 11.75L107.525 11.9055L107.527 11.9133L108 11.75ZM108.311 12.3066L107.93 12.6305L107.934 12.6359L108.311 12.3066ZM108.803 12.6699L108.598 13.1261L108.601 13.1276L108.803 12.6699ZM110.314 12.623L110.519 13.0794L110.522 13.078L110.314 12.623ZM111 12.0781L111.368 11.7394L110.971 11.3085L110.608 11.7681L111 12.0781ZM111.82 12.9688L112.231 13.2538L112.459 12.9247L112.188 12.63L111.82 12.9688ZM111.275 13.5195L110.972 13.122L110.969 13.1245L111.275 13.5195ZM110.455 13.9531L110.617 14.4263L110.622 14.4245L110.455 13.9531ZM109.359 13.6172C108.92 13.6172 108.543 13.5475 108.221 13.4186L107.849 14.3471C108.308 14.5306 108.814 14.6172 109.359 14.6172V13.6172ZM108.225 13.4202C107.893 13.2841 107.62 13.1005 107.398 12.8722L106.681 13.5692C107.005 13.9034 107.396 14.1613 107.845 14.3454L108.225 13.4202ZM107.4 12.8748C107.177 12.642 107.005 12.372 106.884 12.0607L105.952 12.4236C106.12 12.8545 106.362 13.2369 106.678 13.5667L107.4 12.8748ZM106.885 12.0624C106.763 11.7476 106.701 11.4104 106.701 11.0469H105.701C105.701 11.5271 105.784 11.9868 105.951 12.422L106.885 12.0624ZM106.701 11.0469V10.8125H105.701V11.0469H106.701ZM106.701 10.8125C106.701 10.3796 106.763 9.99586 106.879 9.65642L105.933 9.33186C105.776 9.7893 105.701 10.2845 105.701 10.8125H106.701ZM106.879 9.65642C106.997 9.31335 107.162 9.02496 107.37 8.7845L106.614 8.12957C106.315 8.47504 106.089 8.87805 105.933 9.33186L106.879 9.65642ZM107.368 8.78735C107.575 8.55181 107.825 8.37093 108.125 8.24328L107.734 7.32313C107.3 7.50798 106.925 7.77632 106.617 8.12672L107.368 8.78735ZM108.13 8.24151C108.425 8.11269 108.769 8.04297 109.172 8.04297V7.04297C108.652 7.04297 108.169 7.1334 107.73 7.3249L108.13 8.24151ZM109.172 8.04297C109.566 8.04297 109.896 8.10803 110.171 8.22546L110.564 7.30579C110.143 7.12635 109.676 7.04297 109.172 7.04297V8.04297ZM110.171 8.22546C110.452 8.34529 110.679 8.51159 110.861 8.72383L111.62 8.07304C111.333 7.73841 110.978 7.48283 110.564 7.30579L110.171 8.22546ZM110.863 8.72693C111.052 8.94332 111.2 9.20921 111.303 9.53361L112.256 9.23201C112.116 8.79079 111.905 8.40043 111.617 8.06995L110.863 8.72693ZM111.303 9.53502C111.406 9.85724 111.461 10.2268 111.461 10.6484H112.461C112.461 10.1404 112.395 9.6662 112.256 9.2306L111.303 9.53502ZM111.461 10.6484V11.3516H112.461V10.6484H111.461ZM111.961 10.8516H106.922V11.8516H111.961V10.8516ZM107.422 11.3516V10.2266H106.422V11.3516H107.422ZM106.922 10.7266H110.303V9.72656H106.922V10.7266ZM110.803 10.2266V10.0977H109.803V10.2266H110.803ZM110.803 10.0977C110.803 9.80143 110.748 9.51828 110.627 9.25873L109.721 9.68267C109.771 9.79031 109.803 9.92514 109.803 10.0977H110.803ZM110.632 9.27029C110.512 8.99542 110.323 8.77018 110.072 8.60639L109.526 9.44439C109.61 9.49936 109.672 9.57099 109.716 9.67111L110.632 9.27029ZM110.072 8.60639C109.801 8.43022 109.484 8.36133 109.154 8.36133V9.36133C109.348 9.36133 109.461 9.40181 109.526 9.44439L110.072 8.60639ZM109.154 8.36133C108.857 8.36133 108.572 8.42716 108.32 8.58091L108.84 9.43471C108.909 9.39315 109.006 9.36133 109.154 9.36133V8.36133ZM108.32 8.58091C108.082 8.72566 107.894 8.92573 107.755 9.16783L108.62 9.66811C108.684 9.55864 108.757 9.48528 108.84 9.43471L108.32 8.58091ZM107.75 9.17515C107.624 9.40233 107.535 9.65793 107.476 9.93485L108.454 10.1433C108.496 9.94363 108.555 9.78517 108.625 9.66079L107.75 9.17515ZM107.475 9.941C107.42 10.2127 107.395 10.5039 107.395 10.8125H108.395C108.395 10.5586 108.416 10.3341 108.455 10.1371L107.475 9.941ZM107.395 10.8125V11.0469H108.395V10.8125H107.395ZM107.395 11.0469C107.395 11.3472 107.436 11.6347 107.525 11.9055L108.475 11.5945C108.423 11.4356 108.395 11.2544 108.395 11.0469H107.395ZM107.527 11.9133C107.62 12.1805 107.752 12.422 107.93 12.6305L108.692 11.9828C108.603 11.8788 108.529 11.7492 108.473 11.5867L107.527 11.9133ZM107.934 12.6359C108.119 12.8469 108.342 13.011 108.598 13.1261L109.008 12.2138C108.881 12.157 108.776 12.0789 108.687 11.9774L107.934 12.6359ZM108.601 13.1276C108.869 13.2454 109.16 13.2988 109.465 13.2988V12.2988C109.278 12.2988 109.127 12.2663 109.004 12.2123L108.601 13.1276ZM109.465 13.2988C109.835 13.2988 110.189 13.2271 110.519 13.0794L110.11 12.1667C109.917 12.2533 109.704 12.2988 109.465 12.2988V13.2988ZM110.522 13.078C110.864 12.9221 111.155 12.689 111.392 12.3882L110.608 11.7681C110.463 11.9517 110.296 12.0818 110.107 12.1681L110.522 13.078ZM110.632 12.4169L111.453 13.3075L112.188 12.63L111.368 11.7394L110.632 12.4169ZM111.41 12.6837C111.313 12.8232 111.171 12.9705 110.972 13.122L111.579 13.9171C111.841 13.717 112.062 13.4971 112.231 13.2538L111.41 12.6837ZM110.969 13.1245C110.792 13.2621 110.567 13.3831 110.288 13.4817L110.622 14.4245C110.983 14.2966 111.306 14.1285 111.582 13.9146L110.969 13.1245ZM110.294 13.48C110.035 13.5683 109.726 13.6172 109.359 13.6172V14.6172C109.813 14.6172 110.235 14.5567 110.617 14.4263L110.294 13.48Z" fill="#4285F4"/>
</svg>
