<svg width="128" height="128" viewBox="0 0 128 128" fill="none" xmlns="http://www.w3.org/2000/svg">
<path d="M63.6342 18C65.5886 18.0333 67.5037 18.5544 69.2055 19.5158L104.705 39.5654C106.134 40.3737 107.399 41.4431 108.434 42.7179L108.469 42.697L108.998 43.4729L109.06 43.5618L109.721 44.5354L109.674 44.5637C110.55 46.1607 111.033 47.9035 111.05 49.6765V90.434C111.069 92.4929 110.546 94.5206 109.534 96.3133C108.521 98.1061 107.055 99.6008 105.281 100.647L70.1673 121.366C68.7111 122.226 67.0856 122.759 65.4031 122.929L65.4028 122.982L63.1569 123L63.158 122.944C61.4985 122.795 59.8897 122.294 58.4386 121.475L21.1404 100.407C18.6062 98.9809 17.0294 96.307 17 93.3856V50.2221C17.0209 48.6997 17.2862 47.2305 17.7884 45.8793L17.7465 45.8554L18.7076 43.8469L18.762 43.877C19.6554 42.4225 20.8915 41.2091 22.3623 40.3428L57.4768 19.6286C59.2498 18.5812 61.2675 18.0195 63.3267 18H63.6342ZM19.7554 46.9799L19.6768 47.2298C19.3645 48.2639 19.2098 49.3812 19.2216 50.5458V93.3746C19.2312 94.4138 19.5145 95.4322 20.0429 96.3272C20.5713 97.2221 21.3262 97.962 22.2315 98.4724L59.5312 119.541C60.6363 120.165 61.8549 120.561 63.1154 120.707L63.1929 120.714L63.2018 118.902L63.2091 111.303L63.1974 102.676L63.147 102.671C62.3753 102.569 61.6241 102.348 60.9199 102.017L60.6576 101.887L60.4258 101.761L37.8292 88.9979C37.0079 88.5349 36.3233 87.8635 35.8442 87.0515C35.3636 86.2365 35.1064 85.3092 35.0984 84.363L35.0988 58.4203C35.0907 57.5947 35.1943 56.7902 35.4074 56.0315L35.4797 55.7891L19.7554 46.9799ZM107.765 45.704L92.2614 54.9632L92.2956 55.0341C92.6784 55.86 92.9021 56.7391 92.9448 57.637L92.9517 57.8824L92.951 82.5706C92.9638 83.8948 92.6277 85.1991 91.9765 86.3522C91.3253 87.5053 90.3818 88.4666 89.2412 89.1394L67.9689 101.69C67.2369 102.122 66.4366 102.427 65.6022 102.59L65.4197 102.623L65.4233 104.378L65.4307 114.547L65.416 120.519L65.4138 120.691L65.7459 120.644C66.8098 120.471 67.8364 120.118 68.7812 119.599L69.0384 119.453L104.153 98.7347C105.59 97.8863 106.779 96.6746 107.599 95.2214C108.421 93.7647 108.845 92.1172 108.828 90.4447L108.829 49.6872C108.816 48.4278 108.499 47.1695 107.912 45.9869L107.765 45.704ZM63.348 20.2208C61.6788 20.2368 60.0433 20.6924 58.6062 21.5416L23.4917 42.2554C22.4396 42.8744 21.5387 43.7202 20.8546 44.7312L20.7018 44.9645L36.4625 53.789L36.626 53.566C37.1053 52.9399 37.6908 52.4026 38.3556 51.9786L38.5628 51.8514L59.8354 39.3016C60.9755 38.6278 62.2731 38.2662 63.5974 38.2534C64.9217 38.2405 66.226 38.5769 67.3789 39.2285L88.8852 51.3764C89.6279 51.7966 90.3021 52.3277 90.8845 52.9514L91.0292 53.1112L106.502 43.87L106.332 43.6764C105.613 42.8827 104.782 42.1988 103.864 41.6466L103.612 41.4989L68.1133 21.4501C66.6605 20.629 65.0167 20.2047 63.348 20.2208Z" stroke="#4285F4"/>
<path d="M19.2129 5.46875V4.46875H18.2129V5.46875H19.2129ZM20.9648 5.46875H21.9648V4.46875H20.9648V5.46875ZM20.5898 12.8516L21.4415 13.3757L21.4437 13.372L20.5898 12.8516ZM19.5645 13.7891L19.114 12.8962L19.1108 12.8979L19.5645 13.7891ZM15.6152 12.9746L14.7691 13.5077L14.7716 13.5115L15.6152 12.9746ZM15.2461 11.4922V10.4922H14.2461V11.4922H15.2461ZM17.0098 11.4922H18.0098V10.4922H17.0098V11.4922ZM17.1387 12.2363L16.233 12.6603L16.2367 12.6681L16.2405 12.6759L17.1387 12.2363ZM19.0723 12.125L18.1643 11.7059L18.161 11.7132L18.1577 11.7205L19.0723 12.125ZM20.2129 11.3809V5.46875H18.2129V11.3809H20.2129ZM19.2129 6.46875H20.9648V4.46875H19.2129V6.46875ZM19.9648 5.46875V11.3809H21.9648V5.46875H19.9648ZM19.9648 11.3809C19.9648 11.8023 19.8738 12.1049 19.736 12.3311L21.4437 13.372C21.8059 12.7779 21.9648 12.1001 21.9648 11.3809H19.9648ZM19.7382 12.3275C19.5871 12.5731 19.3855 12.7593 19.114 12.8962L20.0149 14.6819C20.6106 14.3813 21.0926 13.9426 21.4415 13.3757L19.7382 12.3275ZM19.1108 12.8979C18.8375 13.037 18.5115 13.1172 18.1113 13.1172V15.1172C18.7892 15.1172 19.432 14.9786 20.0181 14.6802L19.1108 12.8979ZM18.1113 13.1172C17.6645 13.1172 17.3106 13.0424 17.0289 12.9194L16.229 14.7525C16.8066 15.0045 17.441 15.1172 18.1113 15.1172V13.1172ZM17.0289 12.9194C16.7771 12.8096 16.5956 12.6526 16.4589 12.4377L14.7716 13.5115C15.1271 14.0701 15.6213 14.4873 16.229 14.7525L17.0289 12.9194ZM16.4613 12.4416C16.3414 12.2513 16.2461 11.9559 16.2461 11.4922H14.2461C14.2461 12.2238 14.3969 12.9167 14.7691 13.5076L16.4613 12.4416ZM15.2461 12.4922H17.0098V10.4922H15.2461V12.4922ZM16.0098 11.4922C16.0098 11.8796 16.0604 12.2916 16.233 12.6603L18.0444 11.8124C18.0469 11.8177 18.0371 11.7985 18.0273 11.7419C18.0176 11.6858 18.0098 11.6043 18.0098 11.4922H16.0098ZM16.2405 12.6759C16.4165 13.0356 16.6962 13.3445 17.0896 13.5318L17.9495 11.726C17.9753 11.7383 17.9999 11.7561 18.019 11.7759C18.0371 11.7945 18.0411 11.8053 18.0369 11.7968L16.2405 12.6759ZM17.0896 13.5318C17.419 13.6886 17.7708 13.7461 18.1113 13.7461V11.7461C17.9909 11.7461 17.9482 11.7254 17.9495 11.726L17.0896 13.5318ZM18.1113 13.7461C18.4979 13.7461 18.8849 13.6523 19.2322 13.4291L18.1506 11.7467C18.1531 11.7451 18.1557 11.7437 18.1581 11.7427C18.1605 11.7416 18.1614 11.7415 18.1602 11.7418C18.1582 11.7423 18.1435 11.7461 18.1113 11.7461V13.7461ZM19.2322 13.4291C19.5829 13.2036 19.8291 12.886 19.9868 12.5295L18.1577 11.7205C18.1516 11.7344 18.1464 11.7438 18.1429 11.7496C18.1395 11.7553 18.1375 11.7577 18.1375 11.7577C18.1374 11.7578 18.1378 11.7573 18.1385 11.7566C18.1392 11.7558 18.1403 11.7548 18.1416 11.7536C18.1444 11.7511 18.1475 11.7487 18.1506 11.7467L19.2322 13.4291ZM19.9802 12.5441C20.1503 12.1755 20.2129 11.7757 20.2129 11.3809H18.2129C18.2129 11.572 18.1817 11.6682 18.1643 11.7059L19.9802 12.5441ZM23.9531 13.8828L23.5738 14.8081L23.5817 14.8113L23.9531 13.8828ZM22.957 13.2207L22.235 13.9126L22.24 13.9178L22.957 13.2207ZM22.3359 12.2422L21.4028 12.6018L21.4041 12.6051L22.3359 12.2422ZM22.9102 8.45703L22.1594 7.79638L22.1545 7.8021L22.9102 8.45703ZM23.8477 7.7832L24.2392 8.70339L24.2475 8.69981L23.8477 7.7832ZM27.1582 8.39844L26.3989 9.04925L26.4043 9.05542L27.1582 8.39844ZM27.6973 9.38281L26.7438 9.68441L26.7447 9.68723L27.6973 9.38281ZM27.8789 11.3516V12.3516H28.8789V11.3516H27.8789ZM22.8398 11.3516H21.8398V12.3516H22.8398V11.3516ZM22.8398 10.2266V9.22656H21.8398V10.2266H22.8398ZM26.2207 10.2266V11.2266H27.2207V10.2266H26.2207ZM26.0918 9.4707L25.1756 9.87152L25.1807 9.88315L25.1861 9.89464L26.0918 9.4707ZM24.1055 9.41797L23.2396 8.91769L23.2354 8.92497L23.2313 8.93233L24.1055 9.41797ZM23.8828 10.0391L22.9047 9.83061L22.9022 9.84295L23.8828 10.0391ZM23.918 11.75L22.9676 12.061L22.9701 12.0688L22.9728 12.0765L23.918 11.75ZM24.2285 12.3066L23.4666 12.9543L23.4712 12.9598L23.4759 12.9651L24.2285 12.3066ZM24.7207 12.6699L24.3111 13.5822L24.318 13.5852L24.7207 12.6699ZM26.2324 12.623L26.6411 13.5358L26.6472 13.533L26.2324 12.623ZM26.918 12.0781L27.6535 11.4006L26.8598 10.5389L26.1334 11.4581L26.918 12.0781ZM27.7383 12.9688L28.5599 13.5388L29.0166 12.8806L28.4738 12.2913L27.7383 12.9688ZM27.1934 13.5195L26.5869 12.7244L26.5804 12.7294L27.1934 13.5195ZM26.373 13.9531L26.6962 14.8995L26.7065 14.8959L26.373 13.9531ZM25.2773 13.1172C24.8911 13.1172 24.5788 13.056 24.3245 12.9543L23.5817 14.8113C24.1087 15.0221 24.6792 15.1172 25.2773 15.1172V13.1172ZM24.3325 12.9576C24.0591 12.8455 23.8446 12.6991 23.674 12.5236L22.24 13.9178C22.6163 14.3048 23.0659 14.5999 23.5738 14.8081L24.3325 12.9576ZM23.679 12.5288C23.5024 12.3445 23.3657 12.1308 23.2678 11.8793L21.4041 12.6051C21.5952 13.0958 21.8726 13.5344 22.235 13.9126L23.679 12.5288ZM23.269 11.8826C23.1709 11.6279 23.1191 11.352 23.1191 11.0469H21.1191C21.1191 11.5855 21.2119 12.1064 21.4028 12.6018L23.269 11.8826ZM23.1191 11.0469V10.8125H21.1191V11.0469H23.1191ZM23.1191 10.8125C23.1191 10.4272 23.1739 10.0991 23.2701 9.8187L21.3784 9.16958C21.2011 9.68602 21.1191 10.2369 21.1191 10.8125H23.1191ZM23.2701 9.8187C23.3688 9.531 23.5029 9.29993 23.6658 9.11196L22.1545 7.8021C21.8096 8.20007 21.5531 8.66041 21.3784 9.16958L23.2701 9.8187ZM23.6609 9.11766C23.8176 8.93955 24.0064 8.80241 24.2392 8.70336L23.4561 6.86305C22.9545 7.0765 22.5183 7.38857 22.1594 7.7964L23.6609 9.11766ZM24.2475 8.69981C24.4709 8.60233 24.7459 8.54297 25.0898 8.54297V6.54297C24.5119 6.54297 23.9588 6.64376 23.4479 6.8666L24.2475 8.69981ZM25.0898 8.54297C25.4291 8.54297 25.69 8.59887 25.8925 8.6853L26.6778 6.84595C26.185 6.63551 25.649 6.54297 25.0898 6.54297V8.54297ZM25.8925 8.6853C26.1061 8.77652 26.2695 8.89818 26.3989 9.04923L27.9175 7.74765C27.5782 7.35182 27.1595 7.0516 26.6778 6.84595L25.8925 8.6853ZM26.4043 9.05542C26.5432 9.21477 26.6597 9.41842 26.7438 9.68441L28.6507 9.08122C28.4927 8.58158 28.2498 8.12898 27.9121 7.74146L26.4043 9.05542ZM26.7447 9.68723C26.8296 9.95275 26.8789 10.2699 26.8789 10.6484H28.8789C28.8789 10.0973 28.8071 9.57068 28.6498 9.07839L26.7447 9.68723ZM26.8789 10.6484V11.3516H28.8789V10.6484H26.8789ZM27.8789 10.3516H22.8398V12.3516H27.8789V10.3516ZM23.8398 11.3516V10.2266H21.8398V11.3516H23.8398ZM22.8398 11.2266H26.2207V9.22656H22.8398V11.2266ZM27.2207 10.2266V10.0977H25.2207V10.2266H27.2207ZM27.2207 10.0977C27.2207 9.73957 27.1545 9.38227 26.9975 9.04676L25.1861 9.89464C25.2009 9.92633 25.2207 9.98699 25.2207 10.0977H27.2207ZM27.008 9.06988C26.8495 8.70763 26.5976 8.40558 26.2625 8.18739L25.1711 9.86339C25.1738 9.86516 25.1746 9.86591 25.1741 9.86546C25.1736 9.86499 25.1726 9.86406 25.1716 9.86289C25.1706 9.86172 25.1704 9.86126 25.1709 9.86205C25.1714 9.86288 25.1731 9.8658 25.1756 9.87152L27.008 9.06988ZM26.2625 8.18739C25.8893 7.94442 25.4694 7.86133 25.0723 7.86133V9.86133C25.1986 9.86133 25.2083 9.88761 25.1711 9.86339L26.2625 8.18739ZM25.0723 7.86133C24.7006 7.86133 24.3216 7.94417 23.9774 8.15402L25.0187 9.86161C25.0094 9.86724 25.0044 9.86806 25.0089 9.86692C25.0143 9.86553 25.0339 9.86133 25.0723 9.86133V7.86133ZM23.9774 8.15402C23.6628 8.34585 23.4178 8.60928 23.2396 8.91769L24.9713 9.91825C24.9963 9.87509 25.0129 9.86509 25.0187 9.86161L23.9774 8.15402ZM23.2313 8.93233C23.0765 9.21091 22.972 9.51508 22.9048 9.83063L24.8608 10.2475C24.8952 10.0865 24.9391 9.97659 24.9796 9.90361L23.2313 8.93233ZM22.9022 9.84295C22.8404 10.152 22.8125 10.4766 22.8125 10.8125H24.8125C24.8125 10.5859 24.8315 10.3948 24.8634 10.2352L22.9022 9.84295ZM22.8125 10.8125V11.0469H24.8125V10.8125H22.8125ZM22.8125 11.0469C22.8125 11.3936 22.8606 11.7343 22.9676 12.061L24.8684 11.439C24.8347 11.3361 24.8125 11.208 24.8125 11.0469H22.8125ZM22.9728 12.0765C23.0832 12.3961 23.245 12.6936 23.4666 12.9543L24.9905 11.659C24.9464 11.6072 24.9012 11.5335 24.8632 11.4235L22.9728 12.0765ZM23.4759 12.9651C23.7084 13.2308 23.9899 13.438 24.3111 13.5822L25.1303 11.7577C25.0687 11.73 25.022 11.6949 24.9811 11.6481L23.4759 12.9651ZM24.318 13.5852C24.6582 13.7349 25.0192 13.7988 25.3828 13.7988V11.7988C25.2543 11.7988 25.1738 11.7768 25.1234 11.7546L24.318 13.5852ZM25.3828 13.7988C25.8194 13.7988 26.2429 13.714 26.6411 13.5357L25.8238 11.7104C25.6985 11.7664 25.5556 11.7988 25.3828 11.7988V13.7988ZM26.6472 13.533C27.0657 13.3422 27.4185 13.0576 27.7025 12.6982L26.1334 11.4581C26.0347 11.583 25.9304 11.6617 25.8176 11.7131L26.6472 13.533ZM26.1824 12.7556L27.0027 13.6462L28.4738 12.2913L27.6535 11.4006L26.1824 12.7556ZM26.9167 12.3987C26.8559 12.4863 26.7538 12.5972 26.5869 12.7244L27.7998 14.3147C28.0939 14.0903 28.3551 13.834 28.5599 13.5388L26.9167 12.3987ZM26.5804 12.7294C26.4522 12.8289 26.2773 12.9263 26.0396 13.0103L26.7065 14.8959C27.1094 14.7534 27.4814 14.5617 27.8064 14.3096L26.5804 12.7294ZM26.0499 13.0068C25.853 13.074 25.6001 13.1172 25.2773 13.1172V15.1172C25.7749 15.1172 26.2525 15.051 26.6962 14.8995L26.0499 13.0068ZM31.9453 7.66016H32.9453V6.66016H31.9453V7.66016ZM31.9453 8.85547V9.85547H32.9453V8.85547H31.9453ZM28.2539 8.85547H27.2539V9.85547H28.2539V8.85547ZM28.2539 7.66016V6.66016H27.2539V7.66016H28.2539ZM29.168 6.0957V5.0957H28.168V6.0957H29.168ZM30.8555 6.0957H31.8555V5.0957H30.8555V6.0957ZM30.9258 12.5117L30.0243 12.9444L30.0312 12.9589L30.0386 12.9731L30.9258 12.5117ZM31.1484 12.7168L30.777 13.6453L30.7933 13.6518L30.8097 13.6577L31.1484 12.7168ZM31.7988 12.7578L31.8936 13.7533L31.9138 13.7514L31.9339 13.7486L31.7988 12.7578ZM32.0156 12.7227L33.0156 12.7179L33.0099 11.504L31.8195 11.7421L32.0156 12.7227ZM32.0215 13.9648L32.33 14.9161L33.0249 14.6907L33.0215 13.9601L32.0215 13.9648ZM30.0234 13.9355L29.6077 14.845L29.6155 14.8486L29.6233 14.852L30.0234 13.9355ZM30.9453 7.66016V8.85547H32.9453V7.66016H30.9453ZM31.9453 7.85547H28.2539V9.85547H31.9453V7.85547ZM29.2539 8.85547V7.66016H27.2539V8.85547H29.2539ZM28.2539 8.66016H31.9453V6.66016H28.2539V8.66016ZM29.168 7.0957H30.8555V5.0957H29.168V7.0957ZM29.8555 6.0957V12.0898H31.8555V6.0957H29.8555ZM29.8555 12.0898C29.8555 12.3328 29.8824 12.6488 30.0243 12.9444L31.8273 12.079C31.8418 12.1093 31.8499 12.1331 31.8541 12.1474C31.8584 12.1618 31.8596 12.1694 31.8594 12.1686C31.8593 12.1679 31.8583 12.1612 31.8573 12.1474C31.8563 12.1337 31.8555 12.1147 31.8555 12.0898H29.8555ZM30.0386 12.9731C30.1942 13.2724 30.4461 13.5129 30.777 13.6453L31.5198 11.7883C31.5791 11.812 31.6409 11.849 31.697 11.9007C31.7526 11.9519 31.7898 12.0057 31.813 12.0504L30.0386 12.9731ZM30.8097 13.6577C31.0519 13.7449 31.2992 13.7695 31.5176 13.7695V11.7695C31.4819 11.7695 31.4621 11.7674 31.4554 11.7664C31.4484 11.7654 31.461 11.7665 31.4872 11.7759L30.8097 13.6577ZM31.5176 13.7695C31.6464 13.7695 31.7728 13.7648 31.8936 13.7533L31.704 11.7623C31.6608 11.7664 31.5997 11.7695 31.5176 11.7695V13.7695ZM31.9339 13.7486C32.0321 13.7353 32.1262 13.7204 32.2117 13.7032L31.8195 11.7421C31.7879 11.7484 31.7374 11.7569 31.6637 11.767L31.9339 13.7486ZM31.0156 12.7274L31.0215 13.9696L33.0215 13.9601L33.0156 12.7179L31.0156 12.7274ZM31.713 13.0136C31.6221 13.0431 31.5158 13.069 31.3921 13.0892L31.7134 15.0632C31.9256 15.0286 32.1318 14.9803 32.33 14.9161L31.713 13.0136ZM31.3921 13.0892C31.2862 13.1064 31.1554 13.1172 30.9961 13.1172V15.1172C31.2431 15.1172 31.4833 15.1006 31.7134 15.0632L31.3921 13.0892ZM30.9961 13.1172C30.7323 13.1172 30.5496 13.0741 30.4236 13.0191L29.6233 14.852C30.052 15.0392 30.5177 15.1172 30.9961 15.1172V13.1172ZM30.4392 13.0261C30.3702 12.9945 30.3184 12.9509 30.2695 12.8608L28.5118 13.815C28.7598 14.2718 29.1298 14.6266 29.6077 14.845L30.4392 13.0261ZM30.2695 12.8608C30.2275 12.7834 30.168 12.6058 30.168 12.2598H28.168C28.168 12.8043 28.2569 13.3455 28.5118 13.815L30.2695 12.8608ZM30.168 12.2598V6.0957H28.168V12.2598H30.168ZM34.5938 8.87891H35.5938V8.82855L35.5887 8.77846L34.5938 8.87891ZM34.5938 16.4375V17.4375H35.5938V16.4375H34.5938ZM32.9062 16.4375H31.9062V17.4375H32.9062V16.4375ZM32.9062 7.66016V6.66016H31.9062V7.66016H32.9062ZM34.4707 7.66016L35.4656 7.55971L35.3748 6.66016H34.4707V7.66016ZM38.4434 12.166L37.4797 11.8989L37.4773 11.9078L38.4434 12.166ZM37.9746 13.1973L38.7876 13.7796L38.7913 13.7744L37.9746 13.1973ZM37.2012 13.877L37.6665 14.7621L37.6706 14.7599L37.2012 13.877ZM34.418 13.2266L33.5877 13.7839L33.5921 13.7905L33.5966 13.797L34.418 13.2266ZM33.6855 11.0293H32.6855V11.1016L32.696 11.1732L33.6855 11.0293ZM33.6855 10.707L32.6946 10.5727L32.6855 10.6395V10.707H33.6855ZM33.9551 9.44141L34.9113 9.73412L34.9121 9.73141L33.9551 9.44141ZM34.418 8.43945L33.5929 7.87436L33.5913 7.87683L34.418 8.43945ZM35.1328 7.77734L34.6523 6.90035L34.6472 6.90319L35.1328 7.77734ZM37.1953 7.77148L36.7481 8.66592L36.7526 8.66817L37.1953 7.77148ZM37.9688 8.42773L37.1595 9.01527L37.1648 9.02244L37.9688 8.42773ZM38.4434 9.44727L37.4772 9.70553L37.4797 9.71442L38.4434 9.44727ZM36.8438 10.0156L35.8607 10.1989L35.8625 10.2086L35.8645 10.2182L36.8438 10.0156ZM36.6328 9.41211L35.7549 9.89096L35.7591 9.89858L35.7634 9.90612L36.6328 9.41211ZM36.2578 9.01367L35.7181 9.85555L35.7306 9.86354L35.7433 9.87116L36.2578 9.01367ZM35.1094 8.97852L34.6972 8.06737L34.6889 8.07121L35.1094 8.97852ZM34.3945 10.4668L33.3957 10.4192L33.3945 10.443V10.4668H34.3945ZM34.3945 11.2812H33.3945V11.315L33.3968 11.3487L34.3945 11.2812ZM34.5586 12.0605L33.6269 12.4238L33.629 12.4292L34.5586 12.0605ZM36.2754 12.6523L36.8151 13.4942L36.8226 13.4894L36.8301 13.4844L36.2754 12.6523ZM36.6445 12.2363L35.7704 11.7507L35.7662 11.7582L35.7622 11.7657L36.6445 12.2363ZM36.8496 11.627L35.8665 11.4437L35.865 11.4517L35.8637 11.4598L36.8496 11.627ZM33.5938 8.87891V16.4375H35.5938V8.87891H33.5938ZM34.5938 15.4375H32.9062V17.4375H34.5938V15.4375ZM33.9062 16.4375V7.66016H31.9062V16.4375H33.9062ZM32.9062 8.66016H34.4707V6.66016H32.9062V8.66016ZM33.4758 7.76061L33.5988 8.97936L35.5887 8.77846L35.4656 7.55971L33.4758 7.76061ZM37.6074 10.7598V10.8828H39.6074V10.7598H37.6074ZM37.6074 10.8828C37.6074 11.2646 37.5622 11.6015 37.4797 11.8989L39.407 12.4332C39.5433 11.9415 39.6074 11.4229 39.6074 10.8828H37.6074ZM37.4773 11.9078C37.3982 12.2036 37.2879 12.4362 37.1579 12.6202L38.7913 13.7744C39.0753 13.3724 39.2776 12.9175 39.4094 12.4243L37.4773 11.9078ZM37.1616 12.615C37.0428 12.7809 36.9017 12.9036 36.7317 12.994L37.6706 14.7599C38.1178 14.5222 38.4924 14.1917 38.7876 13.7795L37.1616 12.615ZM36.7359 12.9918C36.5958 13.0654 36.4085 13.1172 36.1465 13.1172V15.1172C36.6814 15.1172 37.1972 15.0088 37.6665 14.7621L36.7359 12.9918ZM36.1465 13.1172C35.896 13.1172 35.7315 13.0674 35.6192 13.0058L34.6581 14.7598C35.1162 15.0108 35.6236 15.1172 36.1465 15.1172V13.1172ZM35.6192 13.0058C35.4771 12.928 35.3511 12.8171 35.2393 12.6562L33.5966 13.797C33.8754 14.1985 34.2299 14.5252 34.6581 14.7598L35.6192 13.0058ZM35.2483 12.6692C35.1176 12.4745 35.0021 12.2341 34.9096 11.9381L33.0006 12.5346C33.1424 12.9885 33.3355 13.4083 33.5877 13.7839L35.2483 12.6692ZM34.9096 11.9381C34.8097 11.6184 34.7308 11.2681 34.6751 10.8854L32.696 11.1732C32.7653 11.6498 32.8661 12.1042 33.0006 12.5346L34.9096 11.9381ZM34.6855 11.0293V10.707H32.6855V11.0293H34.6855ZM34.6765 10.8414C34.7328 10.4257 34.8122 10.0577 34.9113 9.73412L32.9989 9.14869C32.8636 9.59076 32.7633 10.0665 32.6946 10.5727L34.6765 10.8414ZM34.9121 9.73141C35.0053 9.42398 35.1198 9.18558 35.2447 9.00208L33.5913 7.87683C33.3333 8.25582 33.1393 8.68539 32.9981 9.1514L34.9121 9.73141ZM35.243 9.00454C35.3573 8.83762 35.4827 8.72692 35.6185 8.6515L34.6472 6.90319C34.2204 7.14027 33.8692 7.47097 33.5929 7.87436L35.243 9.00454ZM35.6133 8.65432C35.7271 8.59201 35.8901 8.54297 36.1348 8.54297V6.54297C35.6138 6.54297 35.1089 6.65018 34.6523 6.90037L35.6133 8.65432ZM36.1348 8.54297C36.4098 8.54297 36.6053 8.5945 36.7481 8.66591L37.6425 6.87706C37.176 6.64378 36.6644 6.54297 36.1348 6.54297V8.54297ZM36.7526 8.66817C36.9122 8.74694 37.0454 8.85809 37.1595 9.01525L38.778 7.84022C38.478 7.42707 38.0956 7.10071 37.638 6.8748L36.7526 8.66817ZM37.1648 9.02244C37.2906 9.19254 37.3994 9.41418 37.4773 9.70552L39.4094 9.18901C39.2764 8.69129 39.0687 8.23324 38.7727 7.83303L37.1648 9.02244ZM37.4797 9.71442C37.5612 10.0084 37.6074 10.3544 37.6074 10.7598H39.6074C39.6074 10.2042 39.5443 9.67517 39.407 9.18011L37.4797 9.71442ZM37.9141 10.8828V10.7598H35.9141V10.8828H37.9141ZM37.9141 10.7598C37.9141 10.433 37.8857 10.1161 37.823 9.81302L35.8645 10.2182C35.8955 10.3683 35.9141 10.5474 35.9141 10.7598H37.9141ZM37.8268 9.83234C37.7672 9.51248 37.6639 9.20258 37.5023 8.9181L35.7634 9.90612C35.797 9.96539 35.8344 10.0578 35.8607 10.1989L37.8268 9.83234ZM37.5107 8.93326C37.3383 8.61711 37.0926 8.34835 36.7723 8.15618L35.7433 9.87116C35.7434 9.87119 35.7427 9.87081 35.7418 9.87006C35.7409 9.86932 35.7404 9.86883 35.7406 9.86896C35.7407 9.86911 35.742 9.87051 35.7443 9.87373C35.7467 9.87699 35.7503 9.88252 35.7549 9.89096L37.5107 8.93326ZM36.7975 8.17179C36.4532 7.95111 36.0709 7.86719 35.7012 7.86719V9.86719C35.7364 9.86719 35.7508 9.87113 35.7499 9.87088C35.7494 9.87075 35.7457 9.86972 35.7396 9.86708C35.7334 9.86441 35.726 9.86061 35.7181 9.85555L36.7975 8.17179ZM35.7012 7.86719C35.3669 7.86719 35.0217 7.92063 34.6972 8.06741L35.5215 9.88962C35.5252 9.88796 35.5745 9.86719 35.7012 9.86719V7.86719ZM34.6889 8.07121C34.3761 8.21616 34.1099 8.43319 33.9061 8.71529L35.5275 9.88627C35.5285 9.88485 35.5288 9.88466 35.5282 9.88529C35.5276 9.88593 35.5267 9.8868 35.5256 9.88767C35.5245 9.88854 35.524 9.88889 35.5242 9.88872C35.5245 9.88854 35.5262 9.88749 35.5298 9.88583L34.6889 8.07121ZM33.9061 8.71529C33.7211 8.97149 33.5974 9.25699 33.5205 9.55305L35.4561 10.0563C35.4807 9.96176 35.5094 9.91132 35.5275 9.88627L33.9061 8.71529ZM33.5205 9.55305C33.449 9.82786 33.41 10.1187 33.3957 10.4192L35.3934 10.5144C35.4025 10.3227 35.426 10.1721 35.4561 10.0563L33.5205 9.55305ZM33.3945 10.4668V11.2812H35.3945V10.4668H33.3945ZM33.3968 11.3487C33.422 11.7222 33.4944 12.084 33.6269 12.4238L35.4903 11.6973C35.4431 11.5761 35.4061 11.4184 35.3923 11.2138L33.3968 11.3487ZM33.629 12.4292C33.7857 12.8243 34.0413 13.164 34.3966 13.4156L35.5526 11.7836C35.5329 11.7696 35.5112 11.7499 35.4882 11.6919L33.629 12.4292ZM34.3966 13.4156C34.8004 13.7017 35.2679 13.7988 35.7129 13.7988V11.7988C35.5485 11.7988 35.5238 11.7632 35.5526 11.7836L34.3966 13.4156ZM35.7129 13.7988C36.0826 13.7988 36.4681 13.7166 36.8151 13.4942L35.7357 11.8105C35.7444 11.8049 35.7524 11.8008 35.7587 11.7981C35.765 11.7954 35.7685 11.7945 35.7685 11.7945C35.7682 11.7946 35.7515 11.7988 35.7129 11.7988V13.7988ZM36.8301 13.4844C37.1317 13.2833 37.3624 13.0152 37.5269 12.7069L35.7622 11.7657C35.7391 11.809 35.7238 11.8182 35.7207 11.8203L36.8301 13.4844ZM37.5187 12.722C37.6795 12.4325 37.7806 12.1185 37.8355 11.7941L35.8637 11.4598C35.8405 11.5964 35.8049 11.6886 35.7704 11.7507L37.5187 12.722ZM37.8327 11.8102C37.8883 11.512 37.9141 11.202 37.9141 10.8828H35.9141C35.9141 11.0949 35.8969 11.281 35.8665 11.4437L37.8327 11.8102ZM42.9785 9.22461L42.0657 9.633L42.0698 9.64211L42.9785 9.22461ZM42.668 8.87891L42.1534 9.73646L42.1641 9.74269L42.668 8.87891ZM41.6484 8.85547L42.0642 9.76494L42.0748 9.76008L42.0853 9.75498L41.6484 8.85547ZM41.332 9.13086L42.1769 9.66591L42.1808 9.6597L42.1846 9.65342L41.332 9.13086ZM41.2207 9.54688V10.5469H42.2207V9.54688H41.2207ZM39.5332 9.54688H38.5332V10.5469H39.5332V9.54688ZM40.2656 8.14062L40.876 8.93281L40.884 8.9265L40.2656 8.14062ZM41.1152 7.70117L40.8125 6.74809L40.8092 6.74914L41.1152 7.70117ZM44.4434 8.52734L43.6113 9.08206L43.6159 9.08885L44.4434 8.52734ZM44.8418 13.3262L43.8599 13.5157L43.8605 13.5189L44.8418 13.3262ZM45.0293 13.9004H46.0293V13.6643L45.9237 13.4532L45.0293 13.9004ZM45.0293 14V15H46.0293V14H45.0293ZM43.3242 14L42.4217 14.4307L42.6934 15H43.3242V14ZM43.1367 13.3555L42.1477 13.5031L42.1489 13.5115L42.1503 13.5199L43.1367 13.3555ZM43.3008 10.1387L44.3007 10.1264L44.2886 9.13867H43.3008V10.1387ZM43.3125 11.0938V12.0938H44.3248L44.3124 11.0815L43.3125 11.0938ZM41.3848 11.3867L42.0332 12.148L42.0413 12.1411L42.0491 12.1341L41.3848 11.3867ZM41.1504 11.7031L40.2282 11.3164L40.2228 11.3292L40.2178 11.3421L41.1504 11.7031ZM41.1797 12.4941L40.3097 12.9872L40.3133 12.9935L40.317 12.9999L41.1797 12.4941ZM41.4668 12.7637L40.9976 13.6468L41.0085 13.6526L41.0196 13.6581L41.4668 12.7637ZM43.002 12.3301L42.1868 11.7509L42.1816 11.7581L42.1766 11.7654L43.002 12.3301ZM43.166 11.9082L44.0148 11.3795L42.2638 8.56866L42.1664 11.8788L43.166 11.9082ZM43.6113 12.623L44.5429 12.9866L44.7251 12.5197L44.4601 12.0943L43.6113 12.623ZM43.3535 13.1211L42.5099 12.5842L42.5055 12.5911L42.5012 12.5981L43.3535 13.1211ZM42.9492 13.6074L43.6202 14.349L43.6297 14.3402L42.9492 13.6074ZM42.3574 13.9766L42.7342 14.9029L42.7409 14.9001L42.7476 14.8973L42.3574 13.9766ZM40.4414 13.877L39.9899 14.7692L39.9963 14.7725L40.0028 14.7756L40.4414 13.877ZM39.668 13.2031L38.829 13.7473L38.8333 13.7539L38.8377 13.7604L39.668 13.2031ZM40.125 10.6836L40.7124 11.4929L40.7147 11.4912L40.125 10.6836ZM41.0449 10.2793L41.2826 11.2507L41.2923 11.2482L41.0449 10.2793ZM44.0781 12.5703V9.74609H42.0781V12.5703H44.0781ZM44.0781 9.74609C44.0781 9.43737 44.028 9.11359 43.8872 8.80711L42.0698 9.64211C42.0618 9.62469 42.0781 9.64857 42.0781 9.74609H44.0781ZM43.8913 8.81624C43.7395 8.47675 43.4928 8.20236 43.1718 8.01513L42.1641 9.74269C42.1493 9.73407 42.1282 9.71861 42.1072 9.69512C42.0861 9.67163 42.0728 9.64889 42.0657 9.63298L43.8913 8.81624ZM43.1825 8.02141C42.8429 7.81766 42.47 7.75586 42.1348 7.75586V9.75586C42.1584 9.75586 42.176 9.75697 42.1882 9.75824C42.2005 9.75951 42.2065 9.76084 42.2073 9.76101C42.2085 9.7613 42.1868 9.75641 42.1535 9.7364L43.1825 8.02141ZM42.1348 7.75586C41.8305 7.75586 41.5125 7.8098 41.2115 7.95596L42.0853 9.75498C42.0579 9.76833 42.064 9.75586 42.1348 9.75586V7.75586ZM41.2327 7.94599C40.9262 8.08608 40.6638 8.30752 40.4794 8.6083L42.1846 9.65342C42.1694 9.67826 42.1486 9.70351 42.1233 9.7255C42.0984 9.74716 42.0766 9.75928 42.0642 9.76494L41.2327 7.94599ZM40.4872 8.59581C40.2967 8.89657 40.2207 9.22719 40.2207 9.54688H42.2207C42.2207 9.54415 42.221 9.5572 42.2145 9.58126C42.2079 9.60627 42.1958 9.63603 42.1769 9.66591L40.4872 8.59581ZM41.2207 8.54688H39.5332V10.5469H41.2207V8.54688ZM40.5332 9.54688C40.5332 9.43877 40.5567 9.33997 40.6093 9.23794L38.8321 8.32065C38.6347 8.703 38.5332 9.11592 38.5332 9.54688H40.5332ZM40.6093 9.23794C40.6604 9.13895 40.7416 9.03629 40.876 8.93277L39.6553 7.34848C39.3131 7.61214 39.031 7.93527 38.8321 8.32065L40.6093 9.23794ZM40.884 8.9265C41.017 8.82183 41.191 8.72721 41.4212 8.6532L40.8092 6.74914C40.3832 6.88607 39.9908 7.08442 39.6472 7.35475L40.884 8.9265ZM41.418 8.65424C41.6365 8.58482 41.9034 8.54297 42.2285 8.54297V6.54297C41.7334 6.54297 41.258 6.60658 40.8125 6.7481L41.418 8.65424ZM42.2285 8.54297C42.6095 8.54297 42.9093 8.60628 43.1471 8.70821L43.9349 6.86992C43.4071 6.64372 42.8319 6.54297 42.2285 6.54297V8.54297ZM43.1471 8.70821C43.3621 8.80036 43.5063 8.92459 43.6113 9.08204L45.2754 7.97264C44.9429 7.47385 44.4855 7.10589 43.9349 6.86992L43.1471 8.70821ZM43.6159 9.08885C43.7016 9.2152 43.7773 9.41726 43.7773 9.75781H45.7773C45.7773 9.11399 45.6304 8.49574 45.2708 7.96584L43.6159 9.08885ZM43.7773 9.75781V12.4707H45.7773V9.75781H43.7773ZM43.7773 12.4707C43.7773 12.8522 43.8003 13.2069 43.8599 13.5157L45.8237 13.1367C45.7973 13.0001 45.7773 12.7845 45.7773 12.4707H43.7773ZM43.8605 13.5189C43.9173 13.8078 44.005 14.0879 44.1349 14.3476L45.9237 13.4532C45.8895 13.3847 45.8522 13.2821 45.823 13.1334L43.8605 13.5189ZM44.0293 13.9004V14H46.0293V13.9004H44.0293ZM45.0293 13H43.3242V15H45.0293V13ZM44.2267 13.5693C44.1968 13.5066 44.156 13.3883 44.1231 13.1911L42.1503 13.5199C42.2034 13.8382 42.2876 14.1497 42.4217 14.4307L44.2267 13.5693ZM44.1258 13.2079C44.0939 12.9945 44.0781 12.7821 44.0781 12.5703H42.0781C42.0781 12.882 42.1014 13.193 42.1477 13.5031L44.1258 13.2079ZM42.3009 10.1509L42.3126 11.106L44.3124 11.0815L44.3007 10.1264L42.3009 10.1509ZM43.3125 10.0938H42.3691V12.0938H43.3125V10.0938ZM42.3691 10.0938C42.0743 10.0938 41.7767 10.1269 41.4934 10.2146L42.0847 12.1252C42.1295 12.1113 42.2187 12.0938 42.3691 12.0938V10.0938ZM41.4934 10.2146C41.222 10.2986 40.9531 10.4325 40.7204 10.6393L42.0491 12.1341C42.0274 12.1535 42.028 12.1428 42.0847 12.1252L41.4934 10.2146ZM40.7363 10.6255C40.5183 10.8112 40.3429 11.0428 40.2282 11.3164L42.0726 12.0899C42.067 12.1033 42.0594 12.1166 42.0506 12.1284C42.042 12.14 42.0351 12.1463 42.0332 12.148L40.7363 10.6255ZM40.2178 11.3421C40.1216 11.5907 40.0801 11.8475 40.0801 12.1016H42.0801C42.0801 12.0834 42.0815 12.0724 42.0824 12.0673C42.0833 12.0624 42.0838 12.0618 42.083 12.0641L40.2178 11.3421ZM40.0801 12.1016C40.0801 12.4059 40.1519 12.7087 40.3097 12.9872L42.0497 12.0011C42.0606 12.0203 42.069 12.0414 42.0743 12.0622C42.0794 12.0826 42.0801 12.0967 42.0801 12.1016H40.0801ZM40.317 12.9999C40.4844 13.2854 40.7223 13.5005 40.9976 13.6468L41.936 11.8806C41.9456 11.8857 41.9641 11.8971 41.9857 11.9174C42.0077 11.938 42.0272 11.9625 42.0424 11.9884L40.317 12.9999ZM41.0196 13.6581C41.3087 13.8027 41.614 13.8574 41.9062 13.8574V11.8574C41.8841 11.8574 41.876 11.8553 41.879 11.856C41.8826 11.8568 41.8956 11.8601 41.914 11.8692L41.0196 13.6581ZM41.9062 13.8574C42.2948 13.8574 42.6854 13.779 43.0446 13.5844L42.0921 11.8258C42.0763 11.8343 42.0255 11.8574 41.9062 11.8574V13.8574ZM43.0446 13.5844C43.346 13.4211 43.6208 13.1965 43.8273 12.8948L42.1766 11.7654C42.18 11.7605 42.1657 11.7859 42.0921 11.8258L43.0446 13.5844ZM43.8171 12.9093C43.9959 12.6577 44.1541 12.3286 44.1656 11.9376L42.1664 11.8788C42.1701 11.7534 42.219 11.7056 42.1868 11.7509L43.8171 12.9093ZM42.3172 12.437L42.7625 13.1518L44.4601 12.0943L44.0148 11.3795L42.3172 12.437ZM42.6798 12.2595C42.6447 12.3493 42.5906 12.4574 42.5099 12.5842L44.1972 13.658C44.3352 13.441 44.4529 13.2171 44.5429 12.9866L42.6798 12.2595ZM42.5012 12.5981C42.4481 12.6846 42.3735 12.7774 42.2688 12.8746L43.6297 14.3402C43.853 14.1328 44.048 13.9014 44.2058 13.6441L42.5012 12.5981ZM42.2783 12.8659C42.2073 12.9302 42.1081 12.9961 41.9673 13.0558L42.7476 14.8973C43.0676 14.7617 43.363 14.5816 43.6201 14.349L42.2783 12.8659ZM41.9806 13.0503C41.8975 13.0841 41.758 13.1172 41.5371 13.1172V15.1172C41.949 15.1172 42.3564 15.0565 42.7342 14.9029L41.9806 13.0503ZM41.5371 13.1172C41.2711 13.1172 41.0581 13.0652 40.88 12.9783L40.0028 14.7756C40.4809 15.009 40.9985 15.1172 41.5371 15.1172V13.1172ZM40.8929 12.9847C40.7124 12.8933 40.5886 12.7804 40.4983 12.6458L38.8377 13.7604C39.1301 14.1962 39.522 14.5324 39.9899 14.7692L40.8929 12.9847ZM40.5069 12.6589C40.4315 12.5427 40.3867 12.4061 40.3867 12.2188H38.3867C38.3867 12.7658 38.5294 13.2854 38.829 13.7473L40.5069 12.6589ZM40.3867 12.2188C40.3867 12.0139 40.4247 11.8721 40.474 11.7703L38.6744 10.8977C38.4738 11.3115 38.3867 11.7596 38.3867 12.2188H40.3867ZM40.474 11.7703C40.524 11.6673 40.5973 11.5764 40.7124 11.4929L39.5376 9.87429C39.1683 10.1423 38.8745 10.4851 38.6744 10.8977L40.474 11.7703ZM40.7147 11.4912C40.8332 11.4047 41.0128 11.3167 41.2826 11.2506L40.8073 9.30795C40.3427 9.42162 39.909 9.60312 39.5353 9.87597L40.7147 11.4912ZM41.2923 11.2482C41.5599 11.1799 41.8995 11.1387 42.3223 11.1387V9.13867C41.7763 9.13867 41.2643 9.1912 40.7975 9.31038L41.2923 11.2482ZM42.3223 11.1387H43.3008V9.13867H42.3223V11.1387ZM49.248 12.6816L49.6865 13.5804L49.6952 13.5761L49.7039 13.5717L49.248 12.6816ZM49.623 12.3418L48.7775 11.8078L48.7738 11.8139L49.623 12.3418ZM49.7695 11.8203V10.8203H48.7889L48.7697 11.8007L49.7695 11.8203ZM51.3574 11.8203L52.3574 11.8291L52.3662 10.8203H51.3574V11.8203ZM51 13.0098L51.8262 13.5731L51.8292 13.5688L51 13.0098ZM50.0566 13.8242L50.5003 14.7204L50.5074 14.7169L50.0566 13.8242ZM47.4434 13.8711L47.0318 14.7825L47.0354 14.7841L47.4434 13.8711ZM46.5352 13.1914L45.7644 13.8286L45.7686 13.8336L46.5352 13.1914ZM45.9902 12.1719L45.0351 12.468L45.0359 12.4707L45.9902 12.1719ZM45.9902 9.49414L46.9445 9.79297L46.9454 9.79024L45.9902 9.49414ZM46.5352 8.47461L47.3017 9.11684L47.3059 9.11176L46.5352 8.47461ZM50.0859 7.8418L49.6316 8.73264L49.6352 8.73445L50.0859 7.8418ZM51.0117 8.69727L50.1542 9.2118L50.1607 9.22237L51.0117 8.69727ZM51.3574 10.0039V11.0039H52.3652L52.3574 9.99615L51.3574 10.0039ZM49.7695 10.0039L48.7697 10.0224L48.7879 11.0039H49.7695V10.0039ZM49.6348 9.42969L48.7323 9.86042L48.7362 9.8687L48.7403 9.8769L49.6348 9.42969ZM49.2715 9.01953L48.712 9.84838L48.7239 9.85638L48.7359 9.86404L49.2715 9.01953ZM48.0879 9.01953L48.6329 9.85797L48.6402 9.85324L48.6474 9.84838L48.0879 9.01953ZM47.7246 9.44141L48.623 9.88063L48.6267 9.87286L47.7246 9.44141ZM47.543 10.0449L46.5548 9.89158L46.5537 9.89875L46.5527 9.90593L47.543 10.0449ZM47.7188 12.2305L46.8204 12.6697L46.8243 12.6777L46.8283 12.6856L47.7188 12.2305ZM48.6973 13.7988C49.0317 13.7988 49.3693 13.7351 49.6865 13.5804L48.8096 11.7829C48.8065 11.7844 48.7769 11.7988 48.6973 11.7988V13.7988ZM49.7039 13.5717C50.016 13.4118 50.2811 13.1774 50.4723 12.8697L48.7738 11.8139C48.7753 11.8113 48.7777 11.8079 48.7809 11.8042C48.784 11.8004 48.7873 11.797 48.7904 11.7942C48.7971 11.7881 48.7993 11.7879 48.7922 11.7916L49.7039 13.5717ZM50.4685 12.8758C50.6723 12.5532 50.7624 12.1963 50.7693 11.8399L48.7697 11.8007C48.7693 11.8241 48.7665 11.8324 48.7672 11.8297C48.7676 11.8284 48.7685 11.8254 48.7704 11.8211C48.7724 11.8168 48.7748 11.8122 48.7776 11.8078L50.4685 12.8758ZM49.7695 12.8203H51.3574V10.8203H49.7695V12.8203ZM50.3575 11.8115C50.3552 12.0735 50.2886 12.2761 50.1708 12.4508L51.8292 13.5688C52.1802 13.0481 52.3519 12.4578 52.3574 11.8291L50.3575 11.8115ZM50.1738 12.4464C50.0406 12.6417 49.8592 12.8037 49.6059 12.9316L50.5074 14.7169C51.0432 14.4463 51.4906 14.0653 51.8262 13.5731L50.1738 12.4464ZM49.613 12.928C49.3709 13.0479 49.0838 13.1172 48.7324 13.1172V15.1172C49.3576 15.1172 49.9534 14.9912 50.5003 14.7204L49.613 12.928ZM48.7324 13.1172C48.3501 13.1172 48.0648 13.0535 47.8513 12.9581L47.0354 14.7841C47.5563 15.0168 48.1304 15.1172 48.7324 15.1172V13.1172ZM47.8549 12.9597C47.6207 12.8539 47.4418 12.7164 47.3017 12.5492L45.7686 13.8336C46.1129 14.2445 46.5395 14.5601 47.0318 14.7825L47.8549 12.9597ZM47.3059 12.5543C47.1516 12.3676 47.0295 12.1444 46.9445 11.8731L45.0359 12.4707C45.1931 12.9728 45.4344 13.4293 45.7644 13.8286L47.3059 12.5543ZM46.9454 11.8758C46.8565 11.5892 46.8086 11.2718 46.8086 10.918H44.8086C44.8086 11.4548 44.8817 11.9733 45.0351 12.468L46.9454 11.8758ZM46.8086 10.918V10.748H44.8086V10.918H46.8086ZM46.8086 10.748C46.8086 10.3893 46.8568 10.0731 46.9445 9.79296L45.0359 9.19532C44.8815 9.68862 44.8086 10.2084 44.8086 10.748H46.8086ZM46.9454 9.79024C47.0305 9.51556 47.1517 9.29586 47.3017 9.11683L45.7686 7.83239C45.4343 8.23149 45.1921 8.69147 45.0351 9.19804L46.9454 9.79024ZM47.3059 9.11176C47.4461 8.94214 47.6238 8.80483 47.8549 8.70043L47.0318 6.87769C46.5364 7.10142 46.1086 7.42114 45.7644 7.83746L47.3059 9.11176ZM47.8549 8.70043C48.0632 8.60639 48.3432 8.54297 48.7207 8.54297V6.54297C48.1217 6.54297 47.5501 6.64361 47.0318 6.87769L47.8549 8.70043ZM48.7207 8.54297C49.1113 8.54297 49.4055 8.61729 49.6316 8.73263L50.5403 6.95096C49.9852 6.66786 49.3691 6.54297 48.7207 6.54297V8.54297ZM49.6352 8.73445C49.8649 8.85046 50.0309 9.0062 50.1542 9.21176L51.8692 8.18277C51.5472 7.64614 51.096 7.23157 50.5367 6.94914L49.6352 8.73445ZM50.1607 9.22237C50.2761 9.40945 50.3547 9.65945 50.3575 10.0117L52.3574 9.99615C52.3523 9.34055 52.2004 8.71946 51.8628 8.17216L50.1607 9.22237ZM51.3574 9.00391H49.7695V11.0039H51.3574V9.00391ZM50.7694 9.98539C50.763 9.64026 50.6881 9.30022 50.5292 8.98247L48.7403 9.8769C48.7533 9.9029 48.7683 9.94568 48.7697 10.0224L50.7694 9.98539ZM50.5372 8.99896C50.3746 8.65817 50.1267 8.37773 49.807 8.17502L48.7359 9.86404C48.7383 9.86554 48.7387 9.86603 48.7379 9.86528C48.737 9.86451 48.7355 9.86313 48.7338 9.86128C48.7322 9.85942 48.7311 9.85791 48.7306 9.85718C48.7302 9.85649 48.7308 9.85736 48.7323 9.86042L50.5372 8.99896ZM49.831 8.19068C49.4758 7.95098 49.0764 7.86133 48.6914 7.86133V9.86133C48.7308 9.86133 48.7469 9.86585 48.7462 9.86564C48.7457 9.86552 48.7417 9.86437 48.7351 9.86138C48.7284 9.85836 48.7204 9.85407 48.712 9.84838L49.831 8.19068ZM48.6914 7.86133C48.3061 7.86133 47.8936 7.94417 47.5284 8.19068L48.6474 9.84838C48.6229 9.86488 48.6068 9.86892 48.6095 9.8682C48.6139 9.86706 48.6388 9.86133 48.6914 9.86133V7.86133ZM47.5429 8.18109C47.2218 8.38983 46.9821 8.67622 46.8225 9.00995L48.6267 9.87286C48.6307 9.86466 48.6337 9.85953 48.6355 9.85679C48.6372 9.8541 48.638 9.85327 48.6377 9.8537C48.6373 9.85415 48.6363 9.85513 48.635 9.85626C48.6344 9.85678 48.6339 9.85722 48.6335 9.85754C48.633 9.85787 48.6328 9.85801 48.6329 9.85797L47.5429 8.18109ZM46.8262 9.0022C46.6894 9.28216 46.6028 9.58236 46.5548 9.89158L48.5311 10.1983C48.5535 10.0544 48.588 9.95221 48.623 9.88062L46.8262 9.0022ZM46.5527 9.90593C46.5144 10.1787 46.4961 10.4598 46.4961 10.748H48.4961C48.4961 10.5441 48.509 10.3564 48.5333 10.1839L46.5527 9.90593ZM46.4961 10.748V10.918H48.4961V10.748H46.4961ZM46.4961 10.918C46.4961 11.2063 46.5144 11.4885 46.5523 11.7636L48.5336 11.4903C48.509 11.3123 48.4961 11.1218 48.4961 10.918H46.4961ZM46.5523 11.7636C46.5957 12.0779 46.6807 12.384 46.8204 12.6697L48.6171 11.7913C48.5849 11.7253 48.5527 11.6291 48.5336 11.4903L46.5523 11.7636ZM46.8283 12.6856C46.9929 13.0076 47.2312 13.2823 47.5429 13.4849L48.6329 11.808C48.6296 11.8059 48.6281 11.8045 48.6264 11.8026C48.6245 11.8005 48.6181 11.7928 48.6092 11.7754L46.8283 12.6856ZM47.5429 13.4849C47.9081 13.7223 48.3182 13.7988 48.6973 13.7988V11.7988C48.6388 11.7988 48.6086 11.7928 48.6 11.7906C48.5927 11.7888 48.6075 11.7915 48.6329 11.808L47.5429 13.4849ZM54.0234 4.99414H55.0234V3.99414H54.0234V4.99414ZM54.0234 14V15H55.0234V14H54.0234ZM52.3359 14H51.3359V15H52.3359V14ZM52.3359 4.99414V3.99414H51.3359V4.99414H52.3359ZM58.0195 7.66016L58.7714 8.31945L60.2264 6.66016H58.0195V7.66016ZM55.2656 10.8008L55.9769 11.5037L55.9979 11.4825L56.0175 11.4601L55.2656 10.8008ZM53.7891 12.2949L52.8964 12.7456L53.523 13.9868L54.5003 12.9978L53.7891 12.2949ZM53.1738 11.0762L52.3882 10.4575L51.994 10.9581L52.2811 11.5268L53.1738 11.0762ZM54.3457 9.58789L53.5853 8.93843L53.5724 8.95359L53.56 8.96925L54.3457 9.58789ZM55.9922 7.66016V6.66016H55.5312L55.2318 7.0107L55.9922 7.66016ZM56.2676 14L55.4253 14.5391L55.7203 15H56.2676V14ZM54.3926 11.0703L53.7343 10.3175L53.0862 10.8842L53.5503 11.6094L54.3926 11.0703ZM55.5586 10.0508L56.3886 9.49296L55.7552 8.55056L54.9004 9.29797L55.5586 10.0508ZM58.2129 14V15H60.0899L59.0429 13.4422L58.2129 14ZM53.0234 4.99414V14H55.0234V4.99414H53.0234ZM54.0234 13H52.3359V15H54.0234V13ZM53.3359 14V4.99414H51.3359V14H53.3359ZM52.3359 5.99414H54.0234V3.99414H52.3359V5.99414ZM57.2677 7.00086L54.5137 10.1415L56.0175 11.4601L58.7714 8.31945L57.2677 7.00086ZM54.5543 10.0979L53.0778 11.592L54.5003 12.9978L55.9769 11.5037L54.5543 10.0979ZM54.6818 11.8443L54.0665 10.6255L52.2811 11.5268L52.8964 12.7456L54.6818 11.8443ZM53.9595 11.6948L55.1314 10.2065L53.56 8.96925L52.3882 10.4575L53.9595 11.6948ZM55.1061 10.2373L56.7526 8.30961L55.2318 7.0107L53.5853 8.93843L55.1061 10.2373ZM55.9922 8.66016H58.0195V6.66016H55.9922V8.66016ZM57.1098 13.4609L55.2348 10.5313L53.5503 11.6094L55.4253 14.5391L57.1098 13.4609ZM55.0508 11.8231L56.2168 10.8036L54.9004 9.29797L53.7343 10.3175L55.0508 11.8231ZM54.7286 10.6086L57.3829 14.5578L59.0429 13.4422L56.3886 9.49296L54.7286 10.6086ZM58.2129 13H56.2676V15H58.2129V13ZM66.7852 11.1699V10.1699H65.851L65.7875 11.1019L66.7852 11.1699ZM68.5371 11.1699L69.5352 11.231L69.6002 10.1699H68.5371V11.1699ZM68.0625 12.6992L67.217 12.1652L67.2137 12.1706L68.0625 12.6992ZM66.8965 13.7422L66.4493 12.8478L66.4465 12.8492L66.8965 13.7422ZM63.6328 13.8359L63.229 14.7508L63.2359 14.7538L63.6328 13.8359ZM62.5195 13.0156L61.7603 13.6664L61.7644 13.6712L62.5195 13.0156ZM61.8281 7.74805L60.8787 7.43401L60.8773 7.43846L61.8281 7.74805ZM62.543 6.45312L61.7919 5.79286L61.7878 5.79756L62.543 6.45312ZM66.9141 5.73242L66.4471 6.61673L66.4501 6.61825L66.9141 5.73242ZM68.0566 6.79883L67.1972 7.31006L67.2005 7.31549L68.0566 6.79883ZM68.5488 8.3457V9.3457H69.6479L69.5444 8.25153L68.5488 8.3457ZM66.791 8.3457L65.7926 8.40243L65.8462 9.3457H66.791V8.3457ZM66.5859 7.47266L65.6858 7.90823L65.6886 7.91398L66.5859 7.47266ZM66.0527 6.92773L65.5821 7.81009L65.5909 7.81474L65.5997 7.81922L66.0527 6.92773ZM63.4629 8.24609L62.4859 8.03272L62.4841 8.04123L63.4629 8.24609ZM63.457 11.1992L62.476 11.3931L62.4765 11.3953L63.457 11.1992ZM63.7617 12.043L62.9017 12.5532L62.9068 12.5618L62.9121 12.5703L63.7617 12.043ZM64.3008 12.5586L63.8286 13.4401L63.8379 13.4451L63.8473 13.4499L64.3008 12.5586ZM66.5566 12.0312L65.6838 11.5431L65.6776 11.5545L66.5566 12.0312ZM66.7852 12.1699H68.5371V10.1699H66.7852V12.1699ZM67.539 11.1088C67.5131 11.531 67.4003 11.8751 67.217 12.1652L68.908 13.2332C69.2872 12.6328 69.4908 11.9573 69.5352 11.231L67.539 11.1088ZM67.2137 12.1706C67.0403 12.4489 66.7955 12.6747 66.4493 12.8478L67.3437 14.6366C67.9975 14.3097 68.53 13.8402 68.9113 13.2279L67.2137 12.1706ZM66.4465 12.8492C66.1214 13.013 65.6859 13.1172 65.1035 13.1172V15.1172C65.9196 15.1172 66.6794 14.9714 67.3465 14.6352L66.4465 12.8492ZM65.1035 13.1172C64.6718 13.1172 64.3198 13.0435 64.0297 12.9181L63.2359 14.7538C63.813 15.0034 64.4415 15.1172 65.1035 15.1172V13.1172ZM64.0367 12.9211C63.7369 12.7888 63.486 12.6035 63.2747 12.3601L61.7644 13.6712C62.1702 14.1387 62.6616 14.5003 63.229 14.7508L64.0367 12.9211ZM63.2788 12.3648C63.072 12.1235 62.9001 11.8163 62.7753 11.4237L60.8692 12.0295C61.0648 12.6447 61.3577 13.1968 61.7603 13.6664L63.2788 12.3648ZM62.7753 11.4237C62.6513 11.0337 62.582 10.5736 62.582 10.0332H60.582C60.582 10.7428 60.6729 11.4117 60.8692 12.0295L62.7753 11.4237ZM62.582 10.0332V9.44141H60.582V10.0332H62.582ZM62.582 9.44141C62.582 8.90319 62.6527 8.44549 62.779 8.05763L60.8773 7.43846C60.6754 8.05841 60.582 8.72963 60.582 9.44141H62.582ZM62.7775 8.06208C62.9096 7.66282 63.0872 7.35158 63.2981 7.10869L61.7878 5.79756C61.3815 6.26561 61.0826 6.81765 60.8787 7.43401L62.7775 8.06208ZM63.294 7.11338C63.5105 6.86713 63.765 6.68049 64.066 6.54764L63.2583 4.71798C62.692 4.96795 62.2004 5.32818 61.7919 5.79287L63.294 7.11338ZM64.066 6.54764C64.3569 6.41922 64.7012 6.3457 65.1152 6.3457V4.3457C64.459 4.3457 63.8345 4.46359 63.2583 4.71798L64.066 6.54764ZM65.1152 6.3457C65.7089 6.3457 66.1382 6.45361 66.4472 6.61673L67.381 4.84812C66.7133 4.49561 65.9435 4.3457 65.1152 4.3457V6.3457ZM66.4501 6.61825C66.7875 6.79503 67.0275 7.0247 67.1972 7.31005L68.9161 6.2876C68.5468 5.6667 68.025 5.18544 67.3781 4.84659L66.4501 6.61825ZM67.2005 7.31549C67.389 7.62794 67.5113 7.99652 67.5533 8.43988L69.5444 8.25153C69.4769 7.53863 69.2712 6.87597 68.9128 6.28216L67.2005 7.31549ZM68.5488 7.3457H66.791V9.3457H68.5488V7.3457ZM67.7894 8.28898C67.7644 7.84943 67.6743 7.41967 67.4833 7.03134L65.6886 7.91398C65.732 8.0022 65.7785 8.15447 65.7926 8.40243L67.7894 8.28898ZM67.4861 7.0371C67.2744 6.59956 66.9403 6.25707 66.5058 6.03625L65.5997 7.81922C65.6417 7.84058 65.6631 7.86138 65.6858 7.90822L67.4861 7.0371ZM66.5233 6.04538C66.0919 5.8153 65.5984 5.74023 65.1152 5.74023V7.74023C65.4133 7.74023 65.5448 7.79017 65.5821 7.81009L66.5233 6.04538ZM65.1152 5.74023C64.6974 5.74023 64.2829 5.81863 63.9004 6.00987L64.7949 7.79872C64.8499 7.77121 64.9471 7.74023 65.1152 7.74023V5.74023ZM63.9004 6.00987C63.5116 6.20427 63.2005 6.4942 62.9648 6.84764L64.6289 7.95704C64.6902 7.86517 64.7462 7.82307 64.7949 7.79872L63.9004 6.00987ZM62.9648 6.84764C62.7299 7.20001 62.5792 7.6058 62.4859 8.03273L64.4399 8.45946C64.4951 8.2067 64.567 8.04999 64.6289 7.95704L62.9648 6.84764ZM62.4841 8.04123C62.396 8.462 62.3574 8.9282 62.3574 9.42969H64.3574C64.3574 9.02493 64.3891 8.70207 64.4417 8.45096L62.4841 8.04123ZM62.3574 9.42969V10.0332H64.3574V9.42969H62.3574ZM62.3574 10.0332C62.3574 10.5221 62.394 10.9781 62.476 11.3931L64.438 11.0053C64.3873 10.7484 64.3574 10.4271 64.3574 10.0332H62.3574ZM62.4765 11.3953C62.5594 11.8102 62.6944 12.2038 62.9017 12.5532L64.6218 11.5328C64.5556 11.4212 64.4874 11.2523 64.4376 11.0031L62.4765 11.3953ZM62.9121 12.5703C63.1381 12.9345 63.4436 13.2339 63.8286 13.4401L64.773 11.6771C64.7205 11.649 64.6666 11.6045 64.6114 11.5156L62.9121 12.5703ZM63.8473 13.4499C64.2413 13.6503 64.6721 13.7285 65.1035 13.7285V11.7285C64.9099 11.7285 64.8056 11.6934 64.7542 11.6673L63.8473 13.4499ZM65.1035 13.7285C65.5685 13.7285 66.0353 13.6556 66.453 13.4501L65.5704 11.6554C65.5116 11.6843 65.3729 11.7285 65.1035 11.7285V13.7285ZM66.453 13.4501C66.8747 13.2427 67.2105 12.9231 67.4357 12.508L65.6776 11.5545C65.6528 11.6003 65.6253 11.6284 65.5704 11.6554L66.453 13.4501ZM67.4294 12.5194C67.649 12.1268 67.7523 11.6861 67.7828 11.2379L65.7875 11.1019C65.7712 11.3412 65.7221 11.4748 65.6839 11.5431L67.4294 12.5194ZM69.5156 9.48828L70.4624 9.81019L70.4634 9.80732L69.5156 9.48828ZM71.0332 7.78906L71.4295 8.70724L71.4376 8.70367L71.0332 7.78906ZM73.5938 7.78906L73.1929 8.70526L73.201 8.7087L73.5938 7.78906ZM74.5371 8.46289L73.7858 9.12285L73.7908 9.12851L74.5371 8.46289ZM75.123 9.48828L74.1753 9.80732L74.1763 9.81018L75.123 9.48828ZM75.123 12.1777L76.0698 12.4996L76.0708 12.4968L75.123 12.1777ZM74.5371 13.2031L73.7864 12.5425L73.7858 12.5432L74.5371 13.2031ZM71.0391 13.877L70.6428 14.7951L70.6463 14.7966L71.0391 13.877ZM70.0957 13.2031L69.34 13.8581L69.3447 13.8634L69.3494 13.8687L70.0957 13.2031ZM69.5156 12.1777L68.5679 12.4968L68.5689 12.4996L69.5156 12.1777ZM71.2969 12.248L70.431 12.7483L70.4376 12.7598L70.4446 12.7711L71.2969 12.248ZM73.3301 12.248L74.191 12.7568L74.1959 12.7483L73.3301 12.248ZM73.5527 11.6387L72.5762 11.4235L72.5744 11.4314L72.5728 11.4394L73.5527 11.6387ZM73.5527 10.0449L72.5728 10.2442L72.5748 10.254L72.5769 10.2636L73.5527 10.0449ZM73.3242 9.43555L72.4537 9.9276L72.46 9.93891L72.4667 9.95004L73.3242 9.43555ZM71.7012 9.01367L71.1837 8.15789L71.1748 8.16341L71.7012 9.01367ZM71.2969 9.43555L70.4344 8.92933L70.431 8.93527L71.2969 9.43555ZM71.0742 10.0449L72.0535 10.2475L72.0542 10.2442L71.0742 10.0449ZM70.3164 10.8945V10.7715H68.3164V10.8945H70.3164ZM70.3164 10.7715C70.3164 10.4024 70.369 10.0849 70.4624 9.81018L68.5689 9.16638C68.3966 9.67289 68.3164 10.2109 68.3164 10.7715H70.3164ZM70.4634 9.80732C70.5574 9.52793 70.6875 9.30448 70.847 9.12283L69.3444 7.80295C68.9961 8.19943 68.7395 8.65957 68.5679 9.16924L70.4634 9.80732ZM70.847 9.12283C70.9982 8.9507 71.1873 8.8117 71.4295 8.7072L70.637 6.87092C70.1369 7.08674 69.701 7.39696 69.3444 7.80295L70.847 9.12283ZM71.4376 8.70367C71.66 8.60531 71.9441 8.54297 72.3105 8.54297V6.54297C71.7161 6.54297 71.1486 6.64469 70.6289 6.87446L71.4376 8.70367ZM72.3105 8.54297C72.6767 8.54297 72.9644 8.60522 73.1929 8.70522L73.9946 6.87291C73.4731 6.64478 72.9053 6.54297 72.3105 6.54297V8.54297ZM73.201 8.7087C73.447 8.81376 73.6364 8.95271 73.7858 9.12283L75.2884 7.80295C74.93 7.39494 74.4905 7.08468 73.9865 6.86942L73.201 8.7087ZM73.7908 9.12851C73.9522 9.30947 74.0823 9.53105 74.1753 9.80732L76.0708 9.16924C75.8982 8.65645 75.6376 8.19443 75.2834 7.79728L73.7908 9.12851ZM74.1763 9.81018C74.2697 10.0849 74.3223 10.4024 74.3223 10.7715H76.3223C76.3223 10.2109 76.242 9.67289 76.0698 9.16638L74.1763 9.81018ZM74.3223 10.7715V10.8945H76.3223V10.7715H74.3223ZM74.3223 10.8945C74.3223 11.2585 74.27 11.5774 74.1753 11.8587L76.0708 12.4968C76.2417 11.989 76.3223 11.4524 76.3223 10.8945H74.3223ZM74.1763 11.8558C74.0834 12.129 73.9523 12.354 73.7864 12.5425L75.2878 13.8638C75.6376 13.4663 75.8971 13.0077 76.0698 12.4996L74.1763 11.8558ZM73.7858 12.5432C73.6346 12.7153 73.4455 12.8543 73.2034 12.9588L73.9959 14.7951C74.4959 14.5793 74.9318 14.2691 75.2884 13.8631L73.7858 12.5432ZM73.2034 12.9588C72.9787 13.0558 72.6917 13.1172 72.3223 13.1172V15.1172C72.9137 15.1172 73.4783 15.0184 73.9959 14.7951L73.2034 12.9588ZM72.3223 13.1172C71.9531 13.1172 71.6626 13.0559 71.4318 12.9573L70.6463 14.7966C71.1656 15.0184 71.7305 15.1172 72.3223 15.1172V13.1172ZM71.4353 12.9588C71.1919 12.8538 70.9987 12.7132 70.842 12.5375L69.3494 13.8687C69.7084 14.2712 70.144 14.5798 70.6428 14.7951L71.4353 12.9588ZM70.8514 12.5482C70.6874 12.359 70.5563 12.1321 70.4624 11.8558L68.5689 12.4996C68.7405 13.0046 68.9962 13.4613 69.34 13.8581L70.8514 12.5482ZM70.4634 11.8587C70.3687 11.5774 70.3164 11.2585 70.3164 10.8945H68.3164C68.3164 11.4524 68.397 11.989 68.5679 12.4968L70.4634 11.8587ZM70.0039 10.7715V10.8945H72.0039V10.7715H70.0039ZM70.0039 10.8945C70.0039 11.2186 70.0325 11.5341 70.0943 11.838L72.0542 11.4394C72.0222 11.2823 72.0039 11.1017 72.0039 10.8945H70.0039ZM70.0943 11.838C70.1593 12.1578 70.2676 12.4655 70.431 12.7483L72.1627 11.7478C72.123 11.679 72.0828 11.5804 72.0542 11.4394L70.0943 11.838ZM70.4446 12.7711C70.6331 13.0784 70.8879 13.3328 71.2044 13.5169L72.2097 11.7878C72.1902 11.7765 72.1715 11.7614 72.1492 11.725L70.4446 12.7711ZM71.2044 13.5169C71.5584 13.7226 71.9466 13.7988 72.3223 13.7988V11.7988C72.2136 11.7988 72.1916 11.7774 72.2097 11.7878L71.2044 13.5169ZM72.3223 13.7988C72.6968 13.7988 73.0791 13.7199 73.4284 13.5169L72.4232 11.7878C72.4277 11.7852 72.4261 11.7872 72.4131 11.7904C72.3991 11.7938 72.3703 11.7988 72.3223 11.7988V13.7988ZM73.4284 13.5169C73.7485 13.3308 74.0049 13.0717 74.191 12.7568L72.4692 11.7393C72.4521 11.7681 72.439 11.7786 72.4232 11.7878L73.4284 13.5169ZM74.1959 12.7483C74.3593 12.4655 74.4676 12.1578 74.5327 11.838L72.5728 11.4394C72.5441 11.5804 72.504 11.679 72.4642 11.7478L74.1959 12.7483ZM74.5293 11.8538C74.5975 11.5445 74.6289 11.2236 74.6289 10.8945H72.6289C72.6289 11.0967 72.6096 11.2719 72.5762 11.4235L74.5293 11.8538ZM74.6289 10.8945V10.7715H72.6289V10.8945H74.6289ZM74.6289 10.7715C74.6289 10.4481 74.5971 10.1319 74.5285 9.82621L72.5769 10.2636C72.61 10.411 72.6289 10.5793 72.6289 10.7715H74.6289ZM74.5327 9.84561C74.4664 9.52002 74.3535 9.20736 74.1817 8.92105L72.4667 9.95004C72.5059 10.0153 72.5453 10.1089 72.5728 10.2442L74.5327 9.84561ZM74.1948 8.94349C74.0132 8.62226 73.76 8.35302 73.4373 8.15794L72.4025 9.8694C72.4158 9.87745 72.4321 9.88946 72.4537 9.9276L74.1948 8.94349ZM73.4373 8.15794C73.0829 7.94364 72.6921 7.86133 72.3105 7.86133V9.86133C72.3589 9.86133 72.3868 9.8665 72.3991 9.86956C72.4103 9.87236 72.4094 9.8736 72.4025 9.8694L73.4373 8.15794ZM72.3105 7.86133C71.9289 7.86133 71.5382 7.94364 71.1838 8.15794L72.2186 9.8694C72.2117 9.8736 72.2108 9.87236 72.222 9.86956C72.2342 9.8665 72.2621 9.86133 72.3105 9.86133V7.86133ZM71.1748 8.16341C70.8615 8.35735 70.6156 8.62082 70.4345 8.92935L72.1593 9.94175C72.1891 9.8909 72.2127 9.87312 72.2275 9.86394L71.1748 8.16341ZM70.431 8.93527C70.2676 9.21805 70.1593 9.52575 70.0943 9.84561L72.0542 10.2442C72.0828 10.1032 72.123 10.0046 72.1627 9.93582L70.431 8.93527ZM70.095 9.84232C70.0328 10.1426 70.0039 10.4532 70.0039 10.7715H72.0039C72.0039 10.5741 72.0219 10.4004 72.0535 10.2475L70.095 9.84232ZM78.0469 8.97266H79.0469V8.93254L79.0437 8.89256L78.0469 8.97266ZM78.0469 14V15H79.0469V14H78.0469ZM76.3535 14H75.3535V15H76.3535V14ZM76.3535 7.66016V6.66016H75.3535V7.66016H76.3535ZM77.9414 7.66016L78.9382 7.58006L78.8643 6.66016H77.9414V7.66016ZM77.8125 10.6074V11.6074H78.8125V10.6074H77.8125ZM77.3438 10.6074H76.3438V11.6074H77.3438V10.6074ZM77.502 9.38867L76.5419 9.10867L76.54 9.11529L77.502 9.38867ZM77.9766 8.41602L77.1806 7.81065L77.1793 7.81238L77.9766 8.41602ZM80.6016 7.67188L80.2573 8.61075L80.2642 8.61329L80.2712 8.61573L80.6016 7.67188ZM81.2051 8.06445L80.4746 8.74734L80.4822 8.75554L80.4901 8.76357L81.2051 8.06445ZM81.6035 8.75586L80.6535 9.06818L80.6548 9.07209L81.6035 8.75586ZM81.7441 14V15H82.7441V14H81.7441ZM80.0566 14H79.0566V15H80.0566V14ZM79.6055 8.96094L79.1993 9.8748L79.2086 9.87879L79.6055 8.96094ZM78.5215 9.00195L78.0411 8.12481L78.0322 8.12981L78.5215 9.00195ZM78.123 9.37695L78.9519 9.93646L78.9582 9.92694L78.123 9.37695ZM81.5859 10.4141L81.7112 11.4062L82.5859 11.2958V10.4141H81.5859ZM80.9824 10.4902H79.9824V11.6244L81.1076 11.4824L80.9824 10.4902ZM81.1348 9.33594L80.176 9.05148L80.1732 9.06122L81.1348 9.33594ZM81.5977 8.39844L80.8046 7.78926L80.799 7.79659L81.5977 8.39844ZM82.3652 7.77148L82.8032 8.67052L82.8124 8.66591L82.3652 7.77148ZM84.252 7.67773L83.9137 8.6189L83.9269 8.62342L84.252 7.67773ZM84.8906 8.09375L84.1541 8.77015L84.1613 8.77798L84.1686 8.78566L84.8906 8.09375ZM85.3008 8.83203L84.3449 9.12614L84.3485 9.13725L85.3008 8.83203ZM85.4473 14V15H86.4473V14H85.4473ZM83.7539 14H82.7539V15H83.7539V14ZM83.6367 9.2832L82.7334 9.71226L82.74 9.72599L82.7469 9.73952L83.6367 9.2832ZM83.3086 8.96094L82.9025 9.87475L82.9176 9.88146L82.9329 9.88768L83.3086 8.96094ZM82.2715 8.99023L82.7278 9.88005L82.7367 9.87547L82.7456 9.87071L82.2715 8.99023ZM81.6621 9.81055L82.6259 10.0771L82.6273 10.072L81.6621 9.81055ZM77.0469 8.97266V14H79.0469V8.97266H77.0469ZM78.0469 13H76.3535V15H78.0469V13ZM77.3535 14V7.66016H75.3535V14H77.3535ZM76.3535 8.66016H77.9414V6.66016H76.3535V8.66016ZM76.9446 7.74026L77.0501 9.05276L79.0437 8.89256L78.9382 7.58006L76.9446 7.74026ZM77.8125 9.60742H77.3438V11.6074H77.8125V9.60742ZM78.3438 10.6074C78.3438 10.2454 78.387 9.9325 78.4639 9.66206L76.54 9.11529C76.406 9.58703 76.3438 10.0866 76.3438 10.6074H78.3438ZM78.462 9.66867C78.5419 9.39448 78.6498 9.18351 78.7738 9.01965L77.1793 7.81238C76.8893 8.1954 76.6807 8.63286 76.542 9.10867L78.462 9.66867ZM78.7725 9.02138C78.891 8.86557 79.0304 8.75116 79.1985 8.66817L78.3132 6.8748C77.8641 7.0965 77.484 7.41178 77.1806 7.81065L78.7725 9.02138ZM79.1985 8.66817C79.3467 8.59501 79.5479 8.54297 79.8281 8.54297V6.54297C79.2959 6.54297 78.7822 6.64327 78.3132 6.8748L79.1985 8.66817ZM79.8281 8.54297C80.0067 8.54297 80.1462 8.57003 80.2573 8.61075L80.9458 6.733C80.5881 6.60185 80.2121 6.54297 79.8281 6.54297V8.54297ZM80.2712 8.61573C80.3546 8.64491 80.418 8.68686 80.4746 8.74734L81.9356 7.38157C81.6562 7.08267 81.3173 6.8629 80.9319 6.72802L80.2712 8.61573ZM80.4901 8.76357C80.5341 8.80858 80.5972 8.89668 80.6535 9.06818L82.5535 8.44354C82.4224 8.04473 82.2198 7.67189 81.9201 7.36534L80.4901 8.76357ZM80.6548 9.07209C80.7055 9.22396 80.7441 9.44917 80.7441 9.76953H82.7441C82.7441 9.30083 82.6891 8.85026 82.5522 8.43963L80.6548 9.07209ZM80.7441 9.76953V14H82.7441V9.76953H80.7441ZM81.7441 13H80.0566V15H81.7441V13ZM81.0566 14V9.95703H79.0566V14H81.0566ZM81.0566 9.95703C81.0566 9.60216 81.0127 9.1994 80.8339 8.84185L79.045 9.73628C79.0302 9.70669 79.035 9.70366 79.0424 9.74604C79.0496 9.78714 79.0566 9.85531 79.0566 9.95703H81.0566ZM80.8339 8.84185C80.6628 8.49966 80.387 8.20938 80.0024 8.04308L79.2086 9.87879C79.1688 9.86161 79.1295 9.83559 79.0965 9.80318C79.0646 9.77181 79.0495 9.74526 79.045 9.73628L80.8339 8.84185ZM80.0116 8.04713C79.7114 7.91369 79.3953 7.86719 79.0957 7.86719V9.86719C79.1945 9.86719 79.2183 9.88318 79.1993 9.87475L80.0116 8.04713ZM79.0957 7.86719C78.7376 7.86719 78.3757 7.94168 78.0412 8.12486L79.0018 9.87905C79.0007 9.87966 79.0043 9.87731 79.0166 9.87443C79.0295 9.87138 79.0547 9.86719 79.0957 9.86719V7.86719ZM78.0322 8.12981C77.7264 8.30135 77.4772 8.53942 77.2879 8.82696L78.9582 9.92694C78.9798 9.89417 78.9962 9.88225 79.0107 9.8741L78.0322 8.12981ZM77.2942 8.81748C77.1126 9.0865 76.991 9.38386 76.9164 9.69368L78.8609 10.1618C78.8879 10.0497 78.9225 9.9799 78.9519 9.93643L77.2942 8.81748ZM76.9164 9.69368C76.8452 9.98954 76.8125 10.2954 76.8125 10.6074H78.8125C78.8125 10.4351 78.8306 10.2878 78.8609 10.1618L76.9164 9.69368ZM81.4607 9.42193L80.8572 9.49811L81.1076 11.4824L81.7112 11.4062L81.4607 9.42193ZM81.9824 10.4902C81.9824 10.1581 82.0231 9.86681 82.0963 9.61066L80.1732 9.06122C80.0433 9.516 79.9824 9.99423 79.9824 10.4902H81.9824ZM82.0935 9.62038C82.1683 9.36814 82.2718 9.16546 82.3963 9.00029L80.799 7.79659C80.5173 8.17048 80.3122 8.59279 80.1761 9.05149L82.0935 9.62038ZM82.3907 9.00759C82.5037 8.86051 82.6381 8.7509 82.8032 8.67047L81.9273 6.87249C81.483 7.08895 81.1057 7.39731 80.8046 7.78928L82.3907 9.00759ZM82.8124 8.66591C82.9566 8.59386 83.1505 8.54297 83.4199 8.54297V6.54297C82.8925 6.54297 82.3833 6.64442 81.918 6.87706L82.8124 8.66591ZM83.4199 8.54297C83.626 8.54297 83.7869 8.57323 83.9138 8.61881L84.5902 6.73666C84.217 6.60256 83.8232 6.54297 83.4199 6.54297V8.54297ZM83.9269 8.62342C84.0223 8.65622 84.0929 8.70354 84.1541 8.77015L85.6272 7.41735C85.3368 7.10114 84.9816 6.87113 84.577 6.73205L83.9269 8.62342ZM84.1686 8.78566C84.2187 8.83786 84.2868 8.93712 84.345 9.12612L86.2566 8.53795C86.1272 8.11757 85.922 7.72464 85.6126 7.40184L84.1686 8.78566ZM84.3485 9.13725C84.4051 9.3138 84.4473 9.57703 84.4473 9.95117H86.4473C86.4473 9.4425 86.3918 8.95964 86.2531 8.52681L84.3485 9.13725ZM84.4473 9.95117V14H86.4473V9.95117H84.4473ZM85.4473 13H83.7539V15H85.4473V13ZM84.7539 14V9.95117H82.7539V14H84.7539ZM84.7539 9.95117C84.7539 9.59758 84.7115 9.18748 84.5265 8.82689L82.7469 9.73952C82.7283 9.70317 82.7322 9.69502 82.7397 9.73725C82.7467 9.77769 82.7539 9.84663 82.7539 9.95117H84.7539ZM84.54 8.85415C84.3711 8.49852 84.0868 8.19737 83.6843 8.0342L82.9329 9.88768C82.8861 9.86869 82.8386 9.83847 82.7983 9.7989C82.7593 9.76059 82.7403 9.72661 82.7334 9.71226L84.54 8.85415ZM83.7147 8.04713C83.4168 7.91469 83.1036 7.86719 82.8047 7.86719V9.86719C82.8964 9.86719 82.9192 9.88218 82.9025 9.87475L83.7147 8.04713ZM82.8047 7.86719C82.4649 7.86719 82.1189 7.93665 81.7974 8.10976L82.7456 9.87071C82.7391 9.8742 82.7372 9.87388 82.7439 9.87234C82.7512 9.87065 82.7704 9.86719 82.8047 9.86719V7.86719ZM81.8152 8.10042C81.5204 8.25157 81.2727 8.466 81.0799 8.73287L82.7013 9.90385C82.7117 9.88946 82.7179 9.88515 82.7278 9.88005L81.8152 8.10042ZM81.0799 8.73287C80.8998 8.98233 80.7754 9.25904 80.6969 9.54913L82.6273 10.072C82.6503 9.98705 82.6783 9.93564 82.7013 9.90385L81.0799 8.73287ZM80.6983 9.54396C80.6203 9.82612 80.5859 10.1183 80.5859 10.4141H82.5859C82.5859 10.2723 82.6024 10.1622 82.6259 10.0771L80.6983 9.54396ZM88.4414 8.87891H89.4414V8.82855L89.4363 8.77846L88.4414 8.87891ZM88.4414 16.4375V17.4375H89.4414V16.4375H88.4414ZM86.7539 16.4375H85.7539V17.4375H86.7539V16.4375ZM86.7539 7.66016V6.66016H85.7539V7.66016H86.7539ZM88.3184 7.66016L89.3133 7.55971L89.2225 6.66016H88.3184V7.66016ZM92.291 12.166L91.3273 11.8989L91.3249 11.9078L92.291 12.166ZM91.8223 13.1973L92.6353 13.7796L92.6389 13.7744L91.8223 13.1973ZM91.0488 13.877L91.5141 14.7621L91.5183 14.7599L91.0488 13.877ZM88.2656 13.2266L87.4353 13.7839L87.4397 13.7905L87.4443 13.797L88.2656 13.2266ZM87.5332 11.0293H86.5332V11.1016L86.5436 11.1732L87.5332 11.0293ZM87.5332 10.707L86.5423 10.5727L86.5332 10.6395V10.707H87.5332ZM87.8027 9.44141L88.7589 9.73412L88.7598 9.73141L87.8027 9.44141ZM88.2656 8.43945L87.4406 7.87436L87.4389 7.87683L88.2656 8.43945ZM88.9805 7.77734L88.4999 6.90035L88.4948 6.90319L88.9805 7.77734ZM91.043 7.77148L90.5957 8.66592L90.6003 8.66817L91.043 7.77148ZM91.8164 8.42773L91.0072 9.01527L91.0125 9.02244L91.8164 8.42773ZM92.291 9.44727L91.3249 9.70553L91.3274 9.71442L92.291 9.44727ZM90.6914 10.0156L89.7083 10.1989L89.7102 10.2086L89.7121 10.2182L90.6914 10.0156ZM90.4805 9.41211L89.6026 9.89096L89.6067 9.89858L89.611 9.90612L90.4805 9.41211ZM90.1055 9.01367L89.5658 9.85555L89.5783 9.86354L89.591 9.87116L90.1055 9.01367ZM88.957 8.97852L88.5448 8.06737L88.5366 8.07121L88.957 8.97852ZM88.2422 10.4668L87.2433 10.4192L87.2422 10.443V10.4668H88.2422ZM88.2422 11.2812H87.2422V11.315L87.2445 11.3487L88.2422 11.2812ZM88.4062 12.0605L87.4745 12.4238L87.4767 12.4292L88.4062 12.0605ZM90.123 12.6523L90.6627 13.4942L90.6703 13.4894L90.6777 13.4844L90.123 12.6523ZM90.4922 12.2363L89.618 11.7507L89.6139 11.7582L89.6098 11.7657L90.4922 12.2363ZM90.6973 11.627L89.7142 11.4437L89.7127 11.4517L89.7113 11.4598L90.6973 11.627ZM87.4414 8.87891V16.4375H89.4414V8.87891H87.4414ZM88.4414 15.4375H86.7539V17.4375H88.4414V15.4375ZM87.7539 16.4375V7.66016H85.7539V16.4375H87.7539ZM86.7539 8.66016H88.3184V6.66016H86.7539V8.66016ZM87.3234 7.76061L87.4465 8.97936L89.4363 8.77846L89.3133 7.55971L87.3234 7.76061ZM91.4551 10.7598V10.8828H93.4551V10.7598H91.4551ZM91.4551 10.8828C91.4551 11.2646 91.4098 11.6015 91.3274 11.8989L93.2547 12.4332C93.391 11.9415 93.4551 11.4229 93.4551 10.8828H91.4551ZM91.3249 11.9078C91.2458 12.2036 91.1356 12.4362 91.0056 12.6202L92.6389 13.7744C92.923 13.3724 93.1253 12.9175 93.2571 12.4243L91.3249 11.9078ZM91.0093 12.615C90.8904 12.7809 90.7494 12.9036 90.5794 12.994L91.5183 14.7599C91.9655 14.5222 92.34 14.1917 92.6353 13.7795L91.0093 12.615ZM90.5835 12.9918C90.4435 13.0654 90.2561 13.1172 89.9941 13.1172V15.1172C90.529 15.1172 91.0448 15.0088 91.5141 14.7621L90.5835 12.9918ZM89.9941 13.1172C89.7436 13.1172 89.5792 13.0674 89.4669 13.0058L88.5058 14.7598C88.9638 15.0108 89.4712 15.1172 89.9941 15.1172V13.1172ZM89.4669 13.0058C89.3247 12.928 89.1988 12.8171 89.087 12.6562L87.4443 13.797C87.7231 14.1985 88.0776 14.5252 88.5058 14.7598L89.4669 13.0058ZM89.0959 12.6692C88.9652 12.4745 88.8497 12.2341 88.7572 11.9381L86.8483 12.5346C86.9901 12.9885 87.1832 13.4083 87.4353 13.7839L89.0959 12.6692ZM88.7572 11.9381C88.6573 11.6184 88.5785 11.2681 88.5228 10.8854L86.5436 11.1732C86.6129 11.6498 86.7138 12.1042 86.8483 12.5346L88.7572 11.9381ZM88.5332 11.0293V10.707H86.5332V11.0293H88.5332ZM88.5241 10.8414C88.5805 10.4257 88.6599 10.0577 88.7589 9.73412L86.8465 9.14869C86.7112 9.59076 86.6109 10.0665 86.5423 10.5727L88.5241 10.8414ZM88.7598 9.73141C88.8529 9.42398 88.9675 9.18558 89.0923 9.00208L87.4389 7.87683C87.181 8.25582 86.9869 8.68539 86.8457 9.1514L88.7598 9.73141ZM89.0907 9.00454C89.205 8.83762 89.3304 8.72692 89.4661 8.6515L88.4948 6.90319C88.0681 7.14027 87.7169 7.47097 87.4406 7.87436L89.0907 9.00454ZM89.461 8.65432C89.5747 8.59201 89.7377 8.54297 89.9824 8.54297V6.54297C89.4615 6.54297 88.9565 6.65018 88.4999 6.90037L89.461 8.65432ZM89.9824 8.54297C90.2575 8.54297 90.4529 8.5945 90.5958 8.66591L91.4902 6.87706C91.0236 6.64378 90.512 6.54297 89.9824 6.54297V8.54297ZM90.6003 8.66817C90.7599 8.74694 90.8931 8.85809 91.0072 9.01525L92.6256 7.84022C92.3257 7.42707 91.9433 7.10071 91.4856 6.8748L90.6003 8.66817ZM91.0125 9.02244C91.1383 9.19254 91.2471 9.41418 91.3249 9.70552L93.2571 9.18901C93.124 8.69129 92.9164 8.23324 92.6204 7.83303L91.0125 9.02244ZM91.3274 9.71442C91.4089 10.0084 91.4551 10.3544 91.4551 10.7598H93.4551C93.4551 10.2042 93.3919 9.67517 93.2547 9.18011L91.3274 9.71442ZM91.7617 10.8828V10.7598H89.7617V10.8828H91.7617ZM91.7617 10.7598C91.7617 10.433 91.7334 10.1161 91.6707 9.81302L89.7121 10.2182C89.7432 10.3683 89.7617 10.5474 89.7617 10.7598H91.7617ZM91.6745 9.83234C91.6148 9.51248 91.5116 9.20258 91.3499 8.9181L89.611 9.90612C89.6447 9.96539 89.682 10.0578 89.7083 10.1989L91.6745 9.83234ZM91.3584 8.93326C91.1859 8.61711 90.9403 8.34835 90.62 8.15618L89.591 9.87116C89.591 9.87119 89.5904 9.87081 89.5895 9.87006C89.5885 9.86932 89.5881 9.86883 89.5882 9.86896C89.5883 9.86911 89.5897 9.87051 89.592 9.87373C89.5943 9.87699 89.598 9.88252 89.6026 9.89096L91.3584 8.93326ZM90.6451 8.17179C90.3009 7.95111 89.9186 7.86719 89.5488 7.86719V9.86719C89.5841 9.86719 89.5985 9.87113 89.5976 9.87088C89.597 9.87075 89.5933 9.86972 89.5872 9.86708C89.5811 9.86441 89.5737 9.86061 89.5658 9.85555L90.6451 8.17179ZM89.5488 7.86719C89.2145 7.86719 88.8693 7.92063 88.5449 8.06741L89.3692 9.88962C89.3729 9.88796 89.4222 9.86719 89.5488 9.86719V7.86719ZM88.5366 8.07121C88.2238 8.21616 87.9575 8.43319 87.7538 8.71529L89.3751 9.88627C89.3762 9.88485 89.3764 9.88466 89.3758 9.88529C89.3752 9.88593 89.3743 9.8868 89.3733 9.88767C89.3722 9.88854 89.3716 9.88889 89.3719 9.88872C89.3722 9.88854 89.3739 9.88749 89.3775 9.88583L88.5366 8.07121ZM87.7538 8.71529C87.5687 8.97149 87.4451 9.25699 87.3681 9.55305L89.3038 10.0563C89.3283 9.96176 89.357 9.91132 89.3751 9.88627L87.7538 8.71529ZM87.3681 9.55305C87.2967 9.82786 87.2576 10.1187 87.2433 10.4192L89.2411 10.5144C89.2502 10.3227 89.2736 10.1721 89.3038 10.0563L87.3681 9.55305ZM87.2422 10.4668V11.2812H89.2422V10.4668H87.2422ZM87.2445 11.3487C87.2697 11.7222 87.3421 12.084 87.4745 12.4238L89.338 11.6973C89.2907 11.5761 89.2537 11.4184 89.2399 11.2138L87.2445 11.3487ZM87.4767 12.4292C87.6334 12.8243 87.8889 13.164 88.2442 13.4156L89.4003 11.7836C89.3806 11.7696 89.3588 11.7499 89.3358 11.6919L87.4767 12.4292ZM88.2442 13.4156C88.6481 13.7017 89.1155 13.7988 89.5605 13.7988V11.7988C89.3962 11.7988 89.3715 11.7632 89.4003 11.7836L88.2442 13.4156ZM89.5605 13.7988C89.9303 13.7988 90.3157 13.7166 90.6627 13.4942L89.5834 11.8105C89.5921 11.8049 89.6 11.8008 89.6064 11.7981C89.6126 11.7954 89.6162 11.7945 89.6162 11.7945C89.6159 11.7946 89.5992 11.7988 89.5605 11.7988V13.7988ZM90.6777 13.4844C90.9794 13.2833 91.2101 13.0152 91.3745 12.7069L89.6098 11.7657C89.5868 11.809 89.5714 11.8182 89.5683 11.8203L90.6777 13.4844ZM91.3663 12.722C91.5272 12.4325 91.6282 12.1185 91.6832 11.7941L89.7113 11.4598C89.6882 11.5964 89.6525 11.6886 89.618 11.7507L91.3663 12.722ZM91.6803 11.8102C91.7359 11.512 91.7617 11.202 91.7617 10.8828H89.7617C89.7617 11.0949 89.7445 11.281 89.7142 11.4437L91.6803 11.8102ZM93.4336 9.48828L94.3804 9.81019L94.3813 9.80732L93.4336 9.48828ZM94.9512 7.78906L95.3474 8.70724L95.3555 8.70367L94.9512 7.78906ZM97.5117 7.78906L97.1109 8.70526L97.119 8.7087L97.5117 7.78906ZM98.4551 8.46289L97.7037 9.12285L97.7088 9.12851L98.4551 8.46289ZM99.041 9.48828L98.0933 9.80732L98.0942 9.81018L99.041 9.48828ZM99.041 12.1777L99.9878 12.4996L99.9888 12.4968L99.041 12.1777ZM98.4551 13.2031L97.7044 12.5425L97.7038 12.5432L98.4551 13.2031ZM94.957 13.877L94.5608 14.7951L94.5643 14.7966L94.957 13.877ZM94.0137 13.2031L93.258 13.8581L93.2626 13.8634L93.2674 13.8687L94.0137 13.2031ZM93.4336 12.1777L92.4858 12.4968L92.4868 12.4996L93.4336 12.1777ZM95.2148 12.248L94.349 12.7483L94.3556 12.7598L94.3625 12.7711L95.2148 12.248ZM97.248 12.248L98.109 12.7568L98.1139 12.7483L97.248 12.248ZM97.4707 11.6387L96.4941 11.4235L96.4924 11.4314L96.4908 11.4394L97.4707 11.6387ZM97.4707 10.0449L96.4908 10.2442L96.4927 10.254L96.4949 10.2636L97.4707 10.0449ZM97.2422 9.43555L96.3716 9.9276L96.378 9.93891L96.3847 9.95004L97.2422 9.43555ZM95.6191 9.01367L95.1017 8.15789L95.0928 8.16341L95.6191 9.01367ZM95.2148 9.43555L94.3524 8.92933L94.349 8.93527L95.2148 9.43555ZM94.9922 10.0449L95.9715 10.2475L95.9721 10.2442L94.9922 10.0449ZM94.2344 10.8945V10.7715H92.2344V10.8945H94.2344ZM94.2344 10.7715C94.2344 10.4024 94.287 10.0849 94.3804 9.81018L92.4868 9.16638C92.3146 9.67289 92.2344 10.2109 92.2344 10.7715H94.2344ZM94.3813 9.80732C94.4754 9.52793 94.6054 9.30448 94.765 9.12283L93.2624 7.80295C92.9141 8.19943 92.6574 8.65957 92.4859 9.16924L94.3813 9.80732ZM94.765 9.12283C94.9162 8.9507 95.1053 8.8117 95.3474 8.7072L94.5549 6.87092C94.0548 7.08674 93.619 7.39696 93.2624 7.80295L94.765 9.12283ZM95.3555 8.70367C95.578 8.60531 95.862 8.54297 96.2285 8.54297V6.54297C95.6341 6.54297 95.0665 6.64469 94.5468 6.87446L95.3555 8.70367ZM96.2285 8.54297C96.5947 8.54297 96.8823 8.60522 97.1109 8.70522L97.9125 6.87291C97.3911 6.64478 96.8233 6.54297 96.2285 6.54297V8.54297ZM97.119 8.7087C97.3649 8.81376 97.5543 8.95271 97.7038 9.12283L99.2064 7.80295C98.848 7.39494 98.4085 7.08468 97.9045 6.86942L97.119 8.7087ZM97.7088 9.12851C97.8702 9.30947 98.0003 9.53105 98.0933 9.80732L99.9888 9.16924C99.8161 8.65645 99.5556 8.19443 99.2014 7.79728L97.7088 9.12851ZM98.0942 9.81018C98.1877 10.0849 98.2402 10.4024 98.2402 10.7715H100.24C100.24 10.2109 100.16 9.67289 99.9878 9.16638L98.0942 9.81018ZM98.2402 10.7715V10.8945H100.24V10.7715H98.2402ZM98.2402 10.8945C98.2402 11.2585 98.188 11.5774 98.0933 11.8587L99.9888 12.4968C100.16 11.989 100.24 11.4524 100.24 10.8945H98.2402ZM98.0942 11.8558C98.0014 12.129 97.8702 12.354 97.7044 12.5425L99.2058 13.8638C99.5555 13.4663 99.815 13.0077 99.9878 12.4996L98.0942 11.8558ZM97.7038 12.5432C97.5526 12.7153 97.3634 12.8543 97.1213 12.9588L97.9138 14.7951C98.4139 14.5793 98.8498 14.2691 99.2064 13.8631L97.7038 12.5432ZM97.1213 12.9588C96.8967 13.0558 96.6097 13.1172 96.2402 13.1172V15.1172C96.8317 15.1172 97.3963 15.0184 97.9138 14.7951L97.1213 12.9588ZM96.2402 13.1172C95.871 13.1172 95.5805 13.0559 95.3498 12.9573L94.5643 14.7966C95.0835 15.0184 95.6485 15.1172 96.2402 15.1172V13.1172ZM95.3533 12.9588C95.1099 12.8538 94.9166 12.7132 94.76 12.5375L93.2674 13.8687C93.6263 14.2712 94.062 14.5798 94.5608 14.7951L95.3533 12.9588ZM94.7694 12.5482C94.6054 12.359 94.4743 12.1321 94.3804 11.8558L92.4868 12.4996C92.6585 13.0046 92.9141 13.4613 93.258 13.8581L94.7694 12.5482ZM94.3813 11.8587C94.2866 11.5774 94.2344 11.2585 94.2344 10.8945H92.2344C92.2344 11.4524 92.3149 11.989 92.4859 12.4968L94.3813 11.8587ZM93.9219 10.7715V10.8945H95.9219V10.7715H93.9219ZM93.9219 10.8945C93.9219 11.2186 93.9504 11.5341 94.0123 11.838L95.9721 11.4394C95.9402 11.2823 95.9219 11.1017 95.9219 10.8945H93.9219ZM94.0123 11.838C94.0773 12.1578 94.1856 12.4655 94.349 12.7483L96.0807 11.7478C96.041 11.679 96.0008 11.5804 95.9721 11.4394L94.0123 11.838ZM94.3625 12.7711C94.5511 13.0784 94.8059 13.3328 95.1224 13.5169L96.1276 11.7878C96.1082 11.7765 96.0895 11.7614 96.0672 11.725L94.3625 12.7711ZM95.1224 13.5169C95.4763 13.7226 95.8646 13.7988 96.2402 13.7988V11.7988C96.1315 11.7988 96.1096 11.7774 96.1276 11.7878L95.1224 13.5169ZM96.2402 13.7988C96.6148 13.7988 96.9971 13.7199 97.3464 13.5169L96.3411 11.7878C96.3457 11.7852 96.3441 11.7872 96.331 11.7904C96.317 11.7938 96.2882 11.7988 96.2402 11.7988V13.7988ZM97.3464 13.5169C97.6664 13.3308 97.9229 13.0717 98.109 12.7568L96.3871 11.7393C96.3701 11.7681 96.357 11.7786 96.3411 11.7878L97.3464 13.5169ZM98.1139 12.7483C98.2773 12.4655 98.3856 12.1578 98.4506 11.838L96.4908 11.4394C96.4621 11.5804 96.4219 11.679 96.3822 11.7478L98.1139 12.7483ZM98.4473 11.8538C98.5154 11.5445 98.5469 11.2236 98.5469 10.8945H96.5469C96.5469 11.0967 96.5275 11.2719 96.4941 11.4235L98.4473 11.8538ZM98.5469 10.8945V10.7715H96.5469V10.8945H98.5469ZM98.5469 10.7715C98.5469 10.4481 98.515 10.1319 98.4465 9.82621L96.4949 10.2636C96.5279 10.411 96.5469 10.5793 96.5469 10.7715H98.5469ZM98.4506 9.84561C98.3844 9.52002 98.2715 9.20736 98.0997 8.92105L96.3847 9.95004C96.4238 10.0153 96.4632 10.1089 96.4908 10.2442L98.4506 9.84561ZM98.1128 8.94349C97.9312 8.62226 97.6779 8.35302 97.3553 8.15794L96.3205 9.8694C96.3338 9.87745 96.3501 9.88946 96.3716 9.9276L98.1128 8.94349ZM97.3553 8.15794C97.0009 7.94364 96.6101 7.86133 96.2285 7.86133V9.86133C96.2769 9.86133 96.3048 9.8665 96.317 9.86956C96.3282 9.87236 96.3274 9.8736 96.3205 9.8694L97.3553 8.15794ZM96.2285 7.86133C95.8469 7.86133 95.4561 7.94364 95.1017 8.15794L96.1366 9.8694C96.1296 9.8736 96.1288 9.87236 96.14 9.86956C96.1522 9.8665 96.1801 9.86133 96.2285 9.86133V7.86133ZM95.0928 8.16341C94.7795 8.35735 94.5335 8.62082 94.3524 8.92935L96.0773 9.94175C96.1071 9.8909 96.1307 9.87312 96.1455 9.86394L95.0928 8.16341ZM94.349 8.93527C94.1856 9.21805 94.0773 9.52575 94.0123 9.84561L95.9721 10.2442C96.0008 10.1032 96.041 10.0046 96.0807 9.93582L94.349 8.93527ZM94.0129 9.84232C93.9508 10.1426 93.9219 10.4532 93.9219 10.7715H95.9219C95.9219 10.5741 95.9398 10.4004 95.9714 10.2475L94.0129 9.84232ZM103.207 11.6504L102.79 12.5595L102.802 12.5646L102.813 12.5695L103.207 11.6504ZM102.393 11.416L102.178 12.3928L102.188 12.395L102.199 12.397L102.393 11.416ZM101.496 11.1523L101.125 12.0808L101.133 12.084L101.141 12.087L101.496 11.1523ZM100.781 10.7598L100.174 11.5542L100.181 11.5598L100.781 10.7598ZM100.312 10.2207L99.4315 10.6938L99.4352 10.7007L100.312 10.2207ZM100.312 8.75L99.418 8.30275L99.4122 8.31483L100.312 8.75ZM100.811 8.12891L101.452 8.89598L101.453 8.89488L100.811 8.12891ZM101.607 7.70117L101.917 8.65223L101.924 8.64986L101.607 7.70117ZM104.092 7.80664L103.685 8.72008L103.688 8.72156L104.092 7.80664ZM105.006 8.5332L104.18 9.09751L104.184 9.10352L104.189 9.10947L105.006 8.5332ZM105.328 9.57617V10.5762H106.328V9.57617H105.328ZM103.641 9.57617H102.641V10.5762H103.641V9.57617ZM103.535 9.13672L102.641 9.58393L102.649 9.5999L102.657 9.61557L103.535 9.13672ZM103.219 8.82617L102.733 9.70033L102.747 9.70827L102.762 9.71574L103.219 8.82617ZM102.182 8.80859L102.597 9.71807L102.608 9.71321L102.619 9.7081L102.182 8.80859ZM101.865 9.06641L101.038 8.50489L101.033 8.51171L101.865 9.06641ZM101.818 9.68164L100.924 10.1289L100.938 10.1562L100.953 10.1827L101.818 9.68164ZM102.387 10.0625L102.041 11.0008L102.056 11.0062L102.07 11.0112L102.387 10.0625ZM102.949 10.2031L103.15 9.22346L103.139 9.22124L102.949 10.2031ZM104.174 10.5723L103.784 11.493L103.792 11.4965L104.174 10.5723ZM105.029 11.1816L104.255 11.8149L104.26 11.8207L105.029 11.1816ZM104.619 13.5723L105.211 14.3787L105.219 14.3723L104.619 13.5723ZM103.775 13.9766L104.053 14.9372L104.061 14.935L103.775 13.9766ZM101.18 13.8008L100.719 14.6883L100.722 14.6901L101.18 13.8008ZM100.254 12.998L99.4081 13.5317L99.4157 13.5434L100.254 12.998ZM99.9434 11.9902V10.9902H98.9434V11.9902H99.9434ZM101.543 11.9902L102.542 11.9564L102.51 10.9902H101.543V11.9902ZM101.719 12.5469L100.929 13.1608L100.935 13.1676L100.94 13.1742L101.719 12.5469ZM102.146 12.8516L101.805 13.7914L101.811 13.7938L102.146 12.8516ZM103.26 12.8574L103.635 13.7842L103.646 13.7798L103.657 13.7753L103.26 12.8574ZM103.588 12.6113L102.784 12.0161L102.78 12.0213L103.588 12.6113ZM104.705 12.248C104.705 11.9187 104.605 11.6046 104.411 11.3356L102.788 12.5042C102.765 12.4723 102.743 12.4307 102.727 12.3812C102.711 12.3318 102.705 12.2857 102.705 12.248H104.705ZM104.411 11.3356C104.183 11.0184 103.853 10.8391 103.601 10.7312L102.813 12.5695C102.838 12.5804 102.857 12.5893 102.869 12.5957C102.881 12.6022 102.885 12.6052 102.883 12.6037C102.881 12.6023 102.87 12.5947 102.854 12.5797C102.838 12.5646 102.814 12.5399 102.788 12.5042L104.411 11.3356ZM103.624 10.7413C103.331 10.6072 102.97 10.5109 102.587 10.435L102.199 12.397C102.526 12.4617 102.708 12.5217 102.79 12.5595L103.624 10.7413ZM102.607 10.4393C102.33 10.3784 102.078 10.3039 101.852 10.2176L101.141 12.087C101.468 12.2117 101.815 12.313 102.178 12.3928L102.607 10.4393ZM101.867 10.2239C101.663 10.142 101.504 10.0518 101.381 9.95977L100.181 11.5598C100.465 11.7724 100.782 11.9439 101.125 12.0808L101.867 10.2239ZM101.389 9.96541C101.293 9.89246 101.232 9.81768 101.19 9.74069L99.4352 10.7007C99.6197 11.0378 99.8708 11.3224 100.174 11.5541L101.389 9.96541ZM101.193 9.74758C101.168 9.69959 101.143 9.62547 101.143 9.5H99.1426C99.1426 9.91359 99.2307 10.3199 99.4315 10.6938L101.193 9.74758ZM101.143 9.5C101.143 9.38191 101.167 9.28102 101.213 9.18517L99.4122 8.31483C99.2319 8.68773 99.1426 9.08684 99.1426 9.5H101.143ZM101.207 9.19721C101.259 9.094 101.335 8.9937 101.452 8.89598L100.169 7.36183C99.8561 7.62348 99.6008 7.93725 99.4181 8.30279L101.207 9.19721ZM101.453 8.89488C101.56 8.8053 101.708 8.72 101.917 8.65221L101.298 6.75014C100.882 6.88547 100.498 7.08533 100.168 7.36293L101.453 8.89488ZM101.924 8.64986C102.121 8.58394 102.368 8.54297 102.674 8.54297V6.54297C102.191 6.54297 101.726 6.60747 101.291 6.75249L101.924 8.64986ZM102.674 8.54297C103.122 8.54297 103.448 8.61477 103.685 8.72008L104.499 6.8932C103.946 6.64695 103.328 6.54297 102.674 6.54297V8.54297ZM103.688 8.72156C103.945 8.83472 104.091 8.96677 104.18 9.09751L105.831 7.96889C105.499 7.48245 105.036 7.13013 104.495 6.89172L103.688 8.72156ZM104.189 9.10947C104.279 9.23717 104.328 9.38142 104.328 9.57617H106.328C106.328 8.98967 106.163 8.43861 105.823 7.95693L104.189 9.10947ZM105.328 8.57617H103.641V10.5762H105.328V8.57617ZM104.641 9.57617C104.641 9.26477 104.573 8.95025 104.413 8.65787L102.657 9.61557C102.649 9.60072 102.644 9.58679 102.642 9.57663C102.64 9.567 102.641 9.56583 102.641 9.57617H104.641ZM104.43 8.68951C104.259 8.3484 103.991 8.09834 103.676 7.9366L102.762 9.71574C102.753 9.71137 102.732 9.6986 102.706 9.67316C102.679 9.64705 102.657 9.61598 102.641 9.58393L104.43 8.68951ZM103.704 7.95201C103.367 7.76448 102.999 7.70898 102.668 7.70898V9.70898C102.725 9.70898 102.756 9.71404 102.767 9.71639C102.778 9.71861 102.763 9.71677 102.733 9.70033L103.704 7.95201ZM102.668 7.70898C102.364 7.70898 102.046 7.76292 101.745 7.90909L102.619 9.7081C102.591 9.72145 102.597 9.70898 102.668 9.70898V7.70898ZM101.766 7.89912C101.486 8.02705 101.228 8.2241 101.038 8.5049L102.693 9.62791C102.674 9.65593 102.652 9.67858 102.632 9.69516C102.612 9.71123 102.598 9.7176 102.597 9.71807L101.766 7.89912ZM101.033 8.51171C100.851 8.78438 100.76 9.0952 100.76 9.41797H102.76C102.76 9.44561 102.756 9.48124 102.744 9.52075C102.732 9.56039 102.715 9.59444 102.697 9.62111L101.033 8.51171ZM100.76 9.41797C100.76 9.65235 100.808 9.8962 100.924 10.1289L102.713 9.23443C102.751 9.31083 102.76 9.3789 102.76 9.41797H100.76ZM100.953 10.1827C101.093 10.4245 101.286 10.5968 101.469 10.7188L102.578 9.05467C102.574 9.0516 102.63 9.08722 102.684 9.1806L100.953 10.1827ZM101.469 10.7188C101.648 10.8383 101.846 10.929 102.041 11.0008L102.732 9.12416C102.63 9.0866 102.586 9.06013 102.578 9.05467L101.469 10.7188ZM102.07 11.0112C102.277 11.0801 102.51 11.1368 102.76 11.185L103.139 9.22124C102.943 9.18347 102.801 9.14644 102.703 9.11382L102.07 11.0112ZM102.748 11.1827C103.153 11.2657 103.496 11.3709 103.784 11.493L104.564 9.65157C104.133 9.46894 103.66 9.3281 103.15 9.22352L102.748 11.1827ZM103.792 11.4965C104.024 11.5925 104.165 11.7049 104.255 11.8149L105.803 10.5484C105.471 10.1428 105.042 9.84895 104.556 9.648L103.792 11.4965ZM104.26 11.8207C104.287 11.8531 104.346 11.942 104.346 12.1836H106.346C106.346 11.5971 106.193 11.018 105.798 10.5426L104.26 11.8207ZM104.346 12.1836C104.346 12.3107 104.319 12.4054 104.276 12.4864L106.041 13.4276C106.247 13.0399 106.346 12.619 106.346 12.1836H104.346ZM104.276 12.4864C104.227 12.5789 104.149 12.6752 104.019 12.7723L105.219 14.3723C105.558 14.1178 105.84 13.8039 106.041 13.4276L104.276 12.4864ZM104.028 12.7659C103.901 12.859 103.727 12.9475 103.49 13.0181L104.061 14.935C104.48 14.8103 104.869 14.6293 105.211 14.3787L104.028 12.7659ZM103.498 13.0159C103.28 13.0789 103.01 13.1172 102.68 13.1172V15.1172C103.161 15.1172 103.623 15.0617 104.053 14.9372L103.498 13.0159ZM102.68 13.1172C102.206 13.1172 101.872 13.0322 101.637 12.9115L100.722 14.6901C101.308 14.9912 101.974 15.1172 102.68 15.1172V13.1172ZM101.641 12.9133C101.359 12.7673 101.193 12.6077 101.092 12.4527L99.4157 13.5434C99.7367 14.0368 100.188 14.4124 100.719 14.6883L101.641 12.9133ZM101.1 12.4644C100.98 12.2749 100.943 12.1216 100.943 11.9902H98.9434C98.9434 12.5464 99.1137 13.0649 99.4082 13.5317L101.1 12.4644ZM99.9434 12.9902H101.543V10.9902H99.9434V12.9902ZM100.544 12.0241C100.556 12.4033 100.657 12.8108 100.929 13.1608L102.508 11.9329C102.52 11.948 102.529 11.9625 102.535 11.9752C102.542 11.9876 102.545 11.9968 102.546 12.0011C102.549 12.0092 102.544 11.9971 102.542 11.9564L100.544 12.0241ZM100.94 13.1742C101.169 13.4588 101.464 13.6674 101.805 13.7914L102.488 11.9118C102.485 11.9107 102.485 11.9103 102.486 11.9108C102.487 11.9113 102.488 11.9124 102.491 11.914C102.493 11.9157 102.495 11.9174 102.497 11.9188C102.498 11.9201 102.498 11.9206 102.498 11.9195L100.94 13.1742ZM101.811 13.7938C102.104 13.8978 102.408 13.9453 102.715 13.9453V11.9453C102.616 11.9453 102.541 11.9304 102.481 11.9093L101.811 13.7938ZM102.715 13.9453C103.014 13.9453 103.334 13.9064 103.635 13.7842L102.884 11.9307C102.893 11.9272 102.885 11.9313 102.856 11.9361C102.826 11.9408 102.781 11.9453 102.715 11.9453V13.9453ZM103.657 13.7753C103.924 13.6597 104.192 13.4789 104.395 13.2013L102.78 12.0213C102.835 11.9469 102.885 11.9302 102.863 11.9396L103.657 13.7753ZM104.391 13.2066C104.603 12.9213 104.705 12.5896 104.705 12.248H102.705C102.705 12.2199 102.709 12.1802 102.724 12.1344C102.739 12.0882 102.761 12.048 102.784 12.0161L104.391 13.2066ZM108.035 13.8828L107.656 14.8081L107.664 14.8113L108.035 13.8828ZM107.039 13.2207L106.317 13.9126L106.322 13.9178L107.039 13.2207ZM106.418 12.2422L105.485 12.6018L105.486 12.6051L106.418 12.2422ZM106.992 8.45703L106.241 7.79638L106.236 7.8021L106.992 8.45703ZM107.93 7.7832L108.321 8.70339L108.329 8.69981L107.93 7.7832ZM111.24 8.39844L110.481 9.04925L110.486 9.05542L111.24 8.39844ZM111.779 9.38281L110.826 9.68441L110.827 9.68723L111.779 9.38281ZM111.961 11.3516V12.3516H112.961V11.3516H111.961ZM106.922 11.3516H105.922V12.3516H106.922V11.3516ZM106.922 10.2266V9.22656H105.922V10.2266H106.922ZM110.303 10.2266V11.2266H111.303V10.2266H110.303ZM110.174 9.4707L109.258 9.87152L109.263 9.88315L109.268 9.89464L110.174 9.4707ZM108.188 9.41797L107.322 8.91769L107.317 8.92497L107.313 8.93233L108.188 9.41797ZM107.965 10.0391L106.987 9.83061L106.984 9.84295L107.965 10.0391ZM108 11.75L107.05 12.061L107.052 12.0688L107.055 12.0765L108 11.75ZM108.311 12.3066L107.549 12.9543L107.553 12.9598L107.558 12.9651L108.311 12.3066ZM108.803 12.6699L108.393 13.5822L108.4 13.5852L108.803 12.6699ZM110.314 12.623L110.723 13.5358L110.729 13.533L110.314 12.623ZM111 12.0781L111.736 11.4006L110.942 10.5389L110.215 11.4581L111 12.0781ZM111.82 12.9688L112.642 13.5388L113.099 12.8806L112.556 12.2913L111.82 12.9688ZM111.275 13.5195L110.669 12.7244L110.662 12.7294L111.275 13.5195ZM110.455 13.9531L110.778 14.8995L110.788 14.8959L110.455 13.9531ZM109.359 13.1172C108.973 13.1172 108.661 13.056 108.407 12.9543L107.664 14.8113C108.191 15.0221 108.761 15.1172 109.359 15.1172V13.1172ZM108.415 12.9576C108.141 12.8455 107.927 12.6991 107.756 12.5236L106.322 13.9178C106.698 14.3048 107.148 14.5999 107.656 14.8081L108.415 12.9576ZM107.761 12.5288C107.584 12.3445 107.448 12.1308 107.35 11.8793L105.486 12.6051C105.677 13.0958 105.955 13.5344 106.317 13.9126L107.761 12.5288ZM107.351 11.8826C107.253 11.6279 107.201 11.352 107.201 11.0469H105.201C105.201 11.5855 105.294 12.1064 105.485 12.6018L107.351 11.8826ZM107.201 11.0469V10.8125H105.201V11.0469H107.201ZM107.201 10.8125C107.201 10.4272 107.256 10.0991 107.352 9.8187L105.46 9.16958C105.283 9.68602 105.201 10.2369 105.201 10.8125H107.201ZM107.352 9.8187C107.451 9.531 107.585 9.29993 107.748 9.11196L106.236 7.8021C105.892 8.20007 105.635 8.66041 105.46 9.16958L107.352 9.8187ZM107.743 9.11766C107.9 8.93955 108.088 8.80241 108.321 8.70336L107.538 6.86305C107.037 7.0765 106.6 7.38857 106.241 7.7964L107.743 9.11766ZM108.329 8.69981C108.553 8.60233 108.828 8.54297 109.172 8.54297V6.54297C108.594 6.54297 108.041 6.64376 107.53 6.8666L108.329 8.69981ZM109.172 8.54297C109.511 8.54297 109.772 8.59887 109.975 8.6853L110.76 6.84595C110.267 6.63551 109.731 6.54297 109.172 6.54297V8.54297ZM109.975 8.6853C110.188 8.77652 110.352 8.89818 110.481 9.04923L111.999 7.74765C111.66 7.35182 111.242 7.0516 110.76 6.84595L109.975 8.6853ZM110.486 9.05542C110.625 9.21477 110.742 9.41842 110.826 9.68441L112.733 9.08122C112.575 8.58158 112.332 8.12898 111.994 7.74146L110.486 9.05542ZM110.827 9.68723C110.912 9.95275 110.961 10.2699 110.961 10.6484H112.961C112.961 10.0973 112.889 9.57068 112.732 9.07839L110.827 9.68723ZM110.961 10.6484V11.3516H112.961V10.6484H110.961ZM111.961 10.3516H106.922V12.3516H111.961V10.3516ZM107.922 11.3516V10.2266H105.922V11.3516H107.922ZM106.922 11.2266H110.303V9.22656H106.922V11.2266ZM111.303 10.2266V10.0977H109.303V10.2266H111.303ZM111.303 10.0977C111.303 9.73957 111.237 9.38227 111.08 9.04676L109.268 9.89464C109.283 9.92633 109.303 9.98699 109.303 10.0977H111.303ZM111.09 9.06988C110.931 8.70763 110.68 8.40558 110.345 8.18739L109.253 9.86339C109.256 9.86516 109.257 9.86591 109.256 9.86546C109.256 9.86499 109.255 9.86406 109.254 9.86289C109.253 9.86172 109.252 9.86126 109.253 9.86205C109.253 9.86288 109.255 9.8658 109.258 9.87152L111.09 9.06988ZM110.345 8.18739C109.971 7.94442 109.551 7.86133 109.154 7.86133V9.86133C109.281 9.86133 109.29 9.88761 109.253 9.86339L110.345 8.18739ZM109.154 7.86133C108.783 7.86133 108.404 7.94417 108.059 8.15402L109.101 9.86161C109.091 9.86724 109.086 9.86806 109.091 9.86692C109.096 9.86553 109.116 9.86133 109.154 9.86133V7.86133ZM108.059 8.15402C107.745 8.34585 107.5 8.60928 107.322 8.91769L109.053 9.91825C109.078 9.87509 109.095 9.86509 109.101 9.86161L108.059 8.15402ZM107.313 8.93233C107.159 9.21091 107.054 9.51508 106.987 9.83063L108.943 10.2475C108.977 10.0865 109.021 9.97659 109.062 9.90361L107.313 8.93233ZM106.984 9.84295C106.922 10.152 106.895 10.4766 106.895 10.8125H108.895C108.895 10.5859 108.913 10.3948 108.945 10.2352L106.984 9.84295ZM106.895 10.8125V11.0469H108.895V10.8125H106.895ZM106.895 11.0469C106.895 11.3936 106.943 11.7343 107.05 12.061L108.95 11.439C108.917 11.3361 108.895 11.208 108.895 11.0469H106.895ZM107.055 12.0765C107.165 12.3961 107.327 12.6936 107.549 12.9543L109.072 11.659C109.028 11.6072 108.983 11.5335 108.945 11.4235L107.055 12.0765ZM107.558 12.9651C107.79 13.2308 108.072 13.438 108.393 13.5822L109.212 11.7577C109.151 11.73 109.104 11.6949 109.063 11.6481L107.558 12.9651ZM108.4 13.5852C108.74 13.7349 109.101 13.7988 109.465 13.7988V11.7988C109.336 11.7988 109.256 11.7768 109.205 11.7546L108.4 13.5852ZM109.465 13.7988C109.901 13.7988 110.325 13.714 110.723 13.5357L109.906 11.7104C109.781 11.7664 109.638 11.7988 109.465 11.7988V13.7988ZM110.729 13.533C111.148 13.3422 111.5 13.0576 111.785 12.6982L110.215 11.4581C110.117 11.583 110.012 11.6617 109.9 11.7131L110.729 13.533ZM110.264 12.7556L111.085 13.6462L112.556 12.2913L111.736 11.4006L110.264 12.7556ZM110.999 12.3987C110.938 12.4863 110.836 12.5972 110.669 12.7244L111.882 14.3147C112.176 14.0903 112.437 13.834 112.642 13.5388L110.999 12.3987ZM110.662 12.7294C110.534 12.8289 110.359 12.9263 110.122 13.0103L110.788 14.8959C111.191 14.7534 111.563 14.5617 111.888 14.3096L110.662 12.7294ZM110.132 13.0068C109.935 13.074 109.682 13.1172 109.359 13.1172V15.1172C109.857 15.1172 110.335 15.051 110.778 14.8995L110.132 13.0068Z" fill="#4285F4"/>
</svg>
