<svg width="128" height="128" viewBox="0 0 128 128" fill="none" xmlns="http://www.w3.org/2000/svg">
<path d="M63.6342 19C65.5886 19.0333 67.5037 19.5544 69.2055 20.5158L104.705 40.5654C106.134 41.3737 107.399 42.443 108.434 43.7179L108.469 43.697L108.998 44.4729L109.06 44.5618L109.721 45.5354L109.674 45.5637C110.55 47.1607 111.033 48.9035 111.05 50.6765V91.434C111.069 93.4929 110.546 95.5206 109.534 97.3133C108.521 99.1061 107.055 100.601 105.281 101.647L70.1674 122.366C68.7111 123.226 67.0856 123.759 65.4031 123.929L65.4028 123.982L63.1569 124L63.158 123.944C61.4985 123.795 59.8897 123.294 58.4386 122.475L21.1404 101.407C18.6062 99.9808 17.0294 97.307 17 94.3856V51.2221C17.0209 49.6997 17.2862 48.2305 17.7884 46.8793L17.7465 46.8554L18.7076 44.8469L18.762 44.877C19.6554 43.4225 20.8915 42.2091 22.3623 41.3428L57.4768 20.6286C59.2498 19.5812 61.2675 19.0195 63.3267 19L63.6342 19ZM19.7554 47.9799L19.6768 48.2298C19.3645 49.2639 19.2098 50.3812 19.2216 51.5458V94.3746C19.2312 95.4138 19.5145 96.4322 20.0429 97.3272C20.5713 98.2221 21.3262 98.962 22.2315 99.4724L59.5312 120.541C60.6363 121.165 61.8549 121.561 63.1154 121.707L63.1929 121.714L63.2018 119.902L63.2091 112.303L63.1974 103.676L63.147 103.671C62.3753 103.569 61.6241 103.348 60.9199 103.017L60.6576 102.887L60.4258 102.761L37.8292 89.9979C37.008 89.5349 36.3233 88.8635 35.8442 88.0515C35.3636 87.2365 35.1064 86.3092 35.0984 85.363L35.0988 59.4203C35.0907 58.5947 35.1943 57.7902 35.4074 57.0315L35.4797 56.7891L19.7554 47.9796V47.9799ZM107.765 46.704L92.2614 55.9632L92.2956 56.0341C92.6784 56.86 92.9021 57.7391 92.9448 58.637L92.9517 58.8824L92.951 83.5706C92.9638 84.8948 92.6277 86.1991 91.9765 87.3522C91.3253 88.5053 90.3818 89.4666 89.2412 90.1394L67.9689 102.69C67.2369 103.122 66.4366 103.427 65.6022 103.59L65.4197 103.623L65.4233 105.378L65.4307 115.547L65.416 121.519L65.4138 121.691L65.7459 121.644C66.8098 121.471 67.8364 121.118 68.7812 120.599L69.0384 120.453L104.153 99.7347C105.59 98.8863 106.779 97.6746 107.599 96.2214C108.421 94.7647 108.845 93.1172 108.828 91.4447L108.829 50.6872C108.816 49.4278 108.499 48.1695 107.912 46.9869L107.765 46.704ZM62.5555 50.8099C62.2197 50.9091 61.8965 51.0494 61.5948 51.2272L47.3356 59.6388C46.9211 59.8829 46.5569 60.2037 46.2625 60.5841C46.0899 60.807 45.9418 61.0476 45.8205 61.302L45.7437 61.493C45.5625 61.9229 45.4473 62.3777 45.402 62.8421C45.3855 63.0235 45.3771 63.2072 45.3789 63.3931V80.7909C45.3843 81.2921 45.5209 81.7831 45.7753 82.2149C46.0298 82.6464 46.3938 83.0031 46.8304 83.2487L61.9776 91.8047C62.6347 92.1759 63.3777 92.3679 64.1323 92.3617L64.294 92.3554L64.2951 97.0396L64.3054 101.508L64.2944 92.3547C64.9981 92.3246 65.6835 92.1219 66.2904 91.7643L80.5496 83.3512C81.2014 82.9666 81.7405 82.4172 82.1128 81.7583C82.1727 81.6525 82.2256 81.5437 82.2763 81.4328C82.5407 80.8567 82.6751 80.2296 82.6701 79.5958L82.6705 63.0415C82.6671 62.7431 82.628 62.4461 82.554 62.1569C82.5056 61.9651 82.4428 61.7772 82.3663 61.5948C82.283 61.3956 82.1846 61.203 82.072 61.0187L82.007 60.9144L81.9398 60.8115C81.8362 60.6594 81.7238 60.5134 81.6033 60.3743C81.2388 59.9553 80.8057 59.6012 80.3226 59.3273L65.9068 51.1861C65.4025 50.9003 64.8456 50.7197 64.2697 50.655C63.6937 50.5904 63.1106 50.6431 62.5555 50.8099ZM63.348 21.2208C61.6788 21.2368 60.0433 21.6924 58.6062 22.5416L23.4917 43.2554C22.4396 43.8744 21.5387 44.7202 20.8546 45.7312L20.7018 45.9645L36.4625 54.789L36.626 54.566C37.1054 53.9399 37.6908 53.4026 38.3556 52.9786L38.5628 52.8514L59.8354 40.3016C60.9755 39.6277 62.2731 39.2662 63.5974 39.2534C64.9217 39.2405 66.226 39.5769 67.3789 40.2285L88.8852 52.3764C89.6279 52.7966 90.3021 53.3277 90.8845 53.9514L91.0292 54.1112L106.502 44.87L106.332 44.6764C105.613 43.8826 104.782 43.1988 103.864 42.6466L103.612 42.4989L68.1133 22.4501C66.6605 21.629 65.017 21.2051 63.3483 21.2212L63.348 21.2208Z" fill="#4285F4"/>
<path d="M19.2129 12.3809V6.46875H20.9648V12.3809C20.9648 12.9512 20.8398 13.4414 20.5898 13.8516C20.3398 14.2578 19.998 14.5703 19.5645 14.7891C19.1348 15.0078 18.6504 15.1172 18.1113 15.1172C17.5527 15.1172 17.0586 15.0234 16.6289 14.8359C16.1992 14.6484 15.8613 14.3613 15.6152 13.9746C15.3691 13.584 15.2461 13.0898 15.2461 12.4922H17.0098C17.0098 12.8047 17.0527 13.0527 17.1387 13.2363C17.2285 13.4199 17.3555 13.5508 17.5195 13.6289C17.6836 13.707 17.8809 13.7461 18.1113 13.7461C18.334 13.7461 18.5273 13.6934 18.6914 13.5879C18.8555 13.4824 18.9824 13.3281 19.0723 13.125C19.166 12.9219 19.2129 12.6738 19.2129 12.3809ZM25.2773 15.1172C24.7852 15.1172 24.3438 15.0391 23.9531 14.8828C23.5625 14.7227 23.2305 14.502 22.957 14.2207C22.6875 13.9395 22.4805 13.6133 22.3359 13.2422C22.1914 12.8672 22.1191 12.4688 22.1191 12.0469V11.8125C22.1191 11.332 22.1875 10.8926 22.3242 10.4941C22.4609 10.0957 22.6562 9.75 22.9102 9.45703C23.168 9.16406 23.4805 8.93945 23.8477 8.7832C24.2148 8.62305 24.6289 8.54297 25.0898 8.54297C25.5391 8.54297 25.9375 8.61719 26.2852 8.76562C26.6328 8.91406 26.9238 9.125 27.1582 9.39844C27.3965 9.67188 27.5762 10 27.6973 10.3828C27.8184 10.7617 27.8789 11.1836 27.8789 11.6484V12.3516H22.8398V11.2266H26.2207V11.0977C26.2207 10.8633 26.1777 10.6543 26.0918 10.4707C26.0098 10.2832 25.8848 10.1348 25.7168 10.0254C25.5488 9.91602 25.334 9.86133 25.0723 9.86133C24.8496 9.86133 24.6582 9.91016 24.498 10.0078C24.3379 10.1055 24.207 10.2422 24.1055 10.418C24.0078 10.5938 23.9336 10.8008 23.8828 11.0391C23.8359 11.2734 23.8125 11.5312 23.8125 11.8125V12.0469C23.8125 12.3008 23.8477 12.5352 23.918 12.75C23.9922 12.9648 24.0957 13.1504 24.2285 13.3066C24.3652 13.4629 24.5293 13.584 24.7207 13.6699C24.916 13.7559 25.1367 13.7988 25.3828 13.7988C25.6875 13.7988 25.9707 13.7402 26.2324 13.623C26.498 13.502 26.7266 13.3203 26.918 13.0781L27.7383 13.9688C27.6055 14.1602 27.4238 14.3438 27.1934 14.5195C26.9668 14.6953 26.6934 14.8398 26.373 14.9531C26.0527 15.0625 25.6875 15.1172 25.2773 15.1172ZM31.9453 8.66016V9.85547H28.2539V8.66016H31.9453ZM29.168 7.0957H30.8555V13.0898C30.8555 13.2734 30.8789 13.4141 30.9258 13.5117C30.9766 13.6094 31.0508 13.6777 31.1484 13.7168C31.2461 13.752 31.3691 13.7695 31.5176 13.7695C31.623 13.7695 31.7168 13.7656 31.7988 13.7578C31.8848 13.7461 31.957 13.7344 32.0156 13.7227L32.0215 14.9648C31.877 15.0117 31.7207 15.0488 31.5527 15.0762C31.3848 15.1035 31.1992 15.1172 30.9961 15.1172C30.625 15.1172 30.3008 15.0566 30.0234 14.9355C29.75 14.8105 29.5391 14.6113 29.3906 14.3379C29.2422 14.0645 29.168 13.7051 29.168 13.2598V7.0957ZM34.5938 9.87891V17.4375H32.9062V8.66016H34.4707L34.5938 9.87891ZM38.6074 11.7598V11.8828C38.6074 12.3438 38.5527 12.7715 38.4434 13.166C38.3379 13.5605 38.1816 13.9043 37.9746 14.1973C37.7676 14.4863 37.5098 14.7129 37.2012 14.877C36.8965 15.0371 36.5449 15.1172 36.1465 15.1172C35.7598 15.1172 35.4238 15.0391 35.1387 14.8828C34.8535 14.7266 34.6133 14.5078 34.418 14.2266C34.2266 13.9414 34.0723 13.6113 33.9551 13.2363C33.8379 12.8613 33.748 12.459 33.6855 12.0293V11.707C33.748 11.2461 33.8379 10.8242 33.9551 10.4414C34.0723 10.0547 34.2266 9.7207 34.418 9.43945C34.6133 9.1543 34.8516 8.93359 35.1328 8.77734C35.418 8.62109 35.752 8.54297 36.1348 8.54297C36.5371 8.54297 36.8906 8.61914 37.1953 8.77148C37.5039 8.92383 37.7617 9.14258 37.9688 9.42773C38.1797 9.71289 38.3379 10.0527 38.4434 10.4473C38.5527 10.8418 38.6074 11.2793 38.6074 11.7598ZM36.9141 11.8828V11.7598C36.9141 11.4902 36.8906 11.2422 36.8438 11.0156C36.8008 10.7852 36.7305 10.584 36.6328 10.4121C36.5391 10.2402 36.4141 10.1074 36.2578 10.0137C36.1055 9.91602 35.9199 9.86719 35.7012 9.86719C35.4707 9.86719 35.2734 9.9043 35.1094 9.97852C34.9492 10.0527 34.8184 10.1602 34.7168 10.3008C34.6152 10.4414 34.5391 10.6094 34.4883 10.8047C34.4375 11 34.4062 11.2207 34.3945 11.4668V12.2812C34.4141 12.5703 34.4688 12.8301 34.5586 13.0605C34.6484 13.2871 34.7871 13.4668 34.9746 13.5996C35.1621 13.7324 35.4082 13.7988 35.7129 13.7988C35.9355 13.7988 36.123 13.75 36.2754 13.6523C36.4277 13.5508 36.5508 13.4121 36.6445 13.2363C36.7422 13.0605 36.8105 12.8574 36.8496 12.627C36.8926 12.3965 36.9141 12.1484 36.9141 11.8828ZM43.0781 13.5703V10.7461C43.0781 10.543 43.0449 10.3691 42.9785 10.2246C42.9121 10.0762 42.8086 9.96094 42.668 9.87891C42.5312 9.79688 42.3535 9.75586 42.1348 9.75586C41.9473 9.75586 41.7852 9.78906 41.6484 9.85547C41.5117 9.91797 41.4062 10.0098 41.332 10.1309C41.2578 10.248 41.2207 10.3867 41.2207 10.5469H39.5332C39.5332 10.2773 39.5957 10.0215 39.7207 9.7793C39.8457 9.53711 40.0273 9.32422 40.2656 9.14062C40.5039 8.95312 40.7871 8.80664 41.1152 8.70117C41.4473 8.5957 41.8184 8.54297 42.2285 8.54297C42.7207 8.54297 43.1582 8.625 43.541 8.78906C43.9238 8.95312 44.2246 9.19922 44.4434 9.52734C44.666 9.85547 44.7773 10.2656 44.7773 10.7578V13.4707C44.7773 13.8184 44.7988 14.1035 44.8418 14.3262C44.8848 14.5449 44.9473 14.7363 45.0293 14.9004V15H43.3242C43.2422 14.8281 43.1797 14.6133 43.1367 14.3555C43.0977 14.0938 43.0781 13.832 43.0781 13.5703ZM43.3008 11.1387L43.3125 12.0938H42.3691C42.1465 12.0938 41.9531 12.1191 41.7891 12.1699C41.625 12.2207 41.4902 12.293 41.3848 12.3867C41.2793 12.4766 41.2012 12.582 41.1504 12.7031C41.1035 12.8242 41.0801 12.957 41.0801 13.1016C41.0801 13.2461 41.1133 13.377 41.1797 13.4941C41.2461 13.6074 41.3418 13.6973 41.4668 13.7637C41.5918 13.8262 41.7383 13.8574 41.9062 13.8574C42.1602 13.8574 42.3809 13.8066 42.5684 13.7051C42.7559 13.6035 42.9004 13.4785 43.002 13.3301C43.1074 13.1816 43.1621 13.041 43.166 12.9082L43.6113 13.623C43.5488 13.7832 43.4629 13.9492 43.3535 14.1211C43.248 14.293 43.1133 14.4551 42.9492 14.6074C42.7852 14.7559 42.5879 14.8789 42.3574 14.9766C42.127 15.0703 41.8535 15.1172 41.5371 15.1172C41.1348 15.1172 40.7695 15.0371 40.4414 14.877C40.1172 14.7129 39.8594 14.4883 39.668 14.2031C39.4805 13.9141 39.3867 13.5859 39.3867 13.2188C39.3867 12.8867 39.4492 12.5918 39.5742 12.334C39.6992 12.0762 39.8828 11.8594 40.125 11.6836C40.3711 11.5039 40.6777 11.3691 41.0449 11.2793C41.4121 11.1855 41.8379 11.1387 42.3223 11.1387H43.3008ZM48.6973 13.7988C48.9043 13.7988 49.0879 13.7598 49.248 13.6816C49.4082 13.5996 49.5332 13.4863 49.623 13.3418C49.7168 13.1934 49.7656 13.0195 49.7695 12.8203H51.3574C51.3535 13.2656 51.2344 13.6621 51 14.0098C50.7656 14.3535 50.4512 14.625 50.0566 14.8242C49.6621 15.0195 49.2207 15.1172 48.7324 15.1172C48.2402 15.1172 47.8105 15.0352 47.4434 14.8711C47.0801 14.707 46.7773 14.4805 46.5352 14.1914C46.293 13.8984 46.1113 13.5586 45.9902 13.1719C45.8691 12.7812 45.8086 12.3633 45.8086 11.918V11.748C45.8086 11.2988 45.8691 10.8809 45.9902 10.4941C46.1113 10.1035 46.293 9.76367 46.5352 9.47461C46.7773 9.18164 47.0801 8.95312 47.4434 8.78906C47.8066 8.625 48.2324 8.54297 48.7207 8.54297C49.2402 8.54297 49.6953 8.64258 50.0859 8.8418C50.4805 9.04102 50.7891 9.32617 51.0117 9.69727C51.2383 10.0645 51.3535 10.5 51.3574 11.0039H49.7695C49.7656 10.793 49.7207 10.6016 49.6348 10.4297C49.5527 10.2578 49.4316 10.1211 49.2715 10.0195C49.1152 9.91406 48.9219 9.86133 48.6914 9.86133C48.4453 9.86133 48.2441 9.91406 48.0879 10.0195C47.9316 10.1211 47.8105 10.2617 47.7246 10.4414C47.6387 10.6172 47.5781 10.8184 47.543 11.0449C47.5117 11.2676 47.4961 11.502 47.4961 11.748V11.918C47.4961 12.1641 47.5117 12.4004 47.543 12.627C47.5742 12.8535 47.6328 13.0547 47.7188 13.2305C47.8086 13.4062 47.9316 13.5449 48.0879 13.6465C48.2441 13.748 48.4473 13.7988 48.6973 13.7988ZM54.0234 5.99414V15H52.3359V5.99414H54.0234ZM58.0195 8.66016L55.2656 11.8008L53.7891 13.2949L53.1738 12.0762L54.3457 10.5879L55.9922 8.66016H58.0195ZM56.2676 15L54.3926 12.0703L55.5586 11.0508L58.2129 15H56.2676ZM66.7852 12.1699H68.5371C68.502 12.7441 68.3438 13.2539 68.0625 13.6992C67.7852 14.1445 67.3965 14.4922 66.8965 14.7422C66.4004 14.9922 65.8027 15.1172 65.1035 15.1172C64.5566 15.1172 64.0664 15.0234 63.6328 14.8359C63.1992 14.6445 62.8281 14.3711 62.5195 14.0156C62.2148 13.6602 61.9824 13.2305 61.8223 12.7266C61.6621 12.2227 61.582 11.6582 61.582 11.0332V10.4414C61.582 9.81641 61.6641 9.25195 61.8281 8.74805C61.9961 8.24023 62.2344 7.80859 62.543 7.45312C62.8555 7.09766 63.2285 6.82422 63.6621 6.63281C64.0957 6.44141 64.5801 6.3457 65.1152 6.3457C65.8262 6.3457 66.4258 6.47461 66.9141 6.73242C67.4062 6.99023 67.7871 7.3457 68.0566 7.79883C68.3301 8.25195 68.4941 8.76758 68.5488 9.3457H66.791C66.7715 9.00195 66.7031 8.71094 66.5859 8.47266C66.4688 8.23047 66.291 8.04883 66.0527 7.92773C65.8184 7.80273 65.5059 7.74023 65.1152 7.74023C64.8223 7.74023 64.5664 7.79492 64.3477 7.9043C64.1289 8.01367 63.9453 8.17969 63.7969 8.40234C63.6484 8.625 63.5371 8.90625 63.4629 9.24609C63.3926 9.58203 63.3574 9.97656 63.3574 10.4297V11.0332C63.3574 11.4746 63.3906 11.8633 63.457 12.1992C63.5234 12.5312 63.625 12.8125 63.7617 13.043C63.9023 13.2695 64.082 13.4414 64.3008 13.5586C64.5234 13.6719 64.791 13.7285 65.1035 13.7285C65.4707 13.7285 65.7734 13.6699 66.0117 13.5527C66.25 13.4355 66.4316 13.2617 66.5566 13.0312C66.6855 12.8008 66.7617 12.5137 66.7852 12.1699ZM69.3164 11.8945V11.7715C69.3164 11.3066 69.3828 10.8789 69.5156 10.4883C69.6484 10.0938 69.8418 9.75195 70.0957 9.46289C70.3496 9.17383 70.6621 8.94922 71.0332 8.78906C71.4043 8.625 71.8301 8.54297 72.3105 8.54297C72.791 8.54297 73.2188 8.625 73.5938 8.78906C73.9688 8.94922 74.2832 9.17383 74.5371 9.46289C74.7949 9.75195 74.9902 10.0938 75.123 10.4883C75.2559 10.8789 75.3223 11.3066 75.3223 11.7715V11.8945C75.3223 12.3555 75.2559 12.7832 75.123 13.1777C74.9902 13.5684 74.7949 13.9102 74.5371 14.2031C74.2832 14.4922 73.9707 14.7168 73.5996 14.877C73.2285 15.0371 72.8027 15.1172 72.3223 15.1172C71.8418 15.1172 71.4141 15.0371 71.0391 14.877C70.668 14.7168 70.3535 14.4922 70.0957 14.2031C69.8418 13.9102 69.6484 13.5684 69.5156 13.1777C69.3828 12.7832 69.3164 12.3555 69.3164 11.8945ZM71.0039 11.7715V11.8945C71.0039 12.1602 71.0273 12.4082 71.0742 12.6387C71.1211 12.8691 71.1953 13.0723 71.2969 13.248C71.4023 13.4199 71.5391 13.5547 71.707 13.6523C71.875 13.75 72.0801 13.7988 72.3223 13.7988C72.5566 13.7988 72.7578 13.75 72.9258 13.6523C73.0938 13.5547 73.2285 13.4199 73.3301 13.248C73.4316 13.0723 73.5059 12.8691 73.5527 12.6387C73.6035 12.4082 73.6289 12.1602 73.6289 11.8945V11.7715C73.6289 11.5137 73.6035 11.2715 73.5527 11.0449C73.5059 10.8145 73.4297 10.6113 73.3242 10.4355C73.2227 10.2559 73.0879 10.1152 72.9199 10.0137C72.752 9.91211 72.5488 9.86133 72.3105 9.86133C72.0723 9.86133 71.8691 9.91211 71.7012 10.0137C71.5371 10.1152 71.4023 10.2559 71.2969 10.4355C71.1953 10.6113 71.1211 10.8145 71.0742 11.0449C71.0273 11.2715 71.0039 11.5137 71.0039 11.7715ZM78.0469 9.97266V15H76.3535V8.66016H77.9414L78.0469 9.97266ZM77.8125 11.6074H77.3438C77.3438 11.166 77.3965 10.7598 77.502 10.3887C77.6113 10.0137 77.7695 9.68945 77.9766 9.41602C78.1875 9.13867 78.4473 8.92383 78.7559 8.77148C79.0645 8.61914 79.4219 8.54297 79.8281 8.54297C80.1094 8.54297 80.3672 8.58594 80.6016 8.67188C80.8359 8.75391 81.0371 8.88477 81.2051 9.06445C81.377 9.24023 81.5098 9.4707 81.6035 9.75586C81.6973 10.0371 81.7441 10.375 81.7441 10.7695V15H80.0566V10.957C80.0566 10.668 80.0176 10.4453 79.9395 10.2891C79.8613 10.1328 79.75 10.0234 79.6055 9.96094C79.4648 9.89844 79.2949 9.86719 79.0957 9.86719C78.877 9.86719 78.6855 9.91211 78.5215 10.002C78.3613 10.0918 78.2285 10.2168 78.123 10.377C78.0176 10.5332 77.9395 10.7168 77.8887 10.9277C77.8379 11.1387 77.8125 11.3652 77.8125 11.6074ZM81.5859 11.4141L80.9824 11.4902C80.9824 11.0762 81.0332 10.6914 81.1348 10.3359C81.2402 9.98047 81.3945 9.66797 81.5977 9.39844C81.8047 9.12891 82.0605 8.91992 82.3652 8.77148C82.6699 8.61914 83.0215 8.54297 83.4199 8.54297C83.7246 8.54297 84.002 8.58789 84.252 8.67773C84.502 8.76367 84.7148 8.90234 84.8906 9.09375C85.0703 9.28125 85.207 9.52734 85.3008 9.83203C85.3984 10.1367 85.4473 10.5098 85.4473 10.9512V15H83.7539V10.9512C83.7539 10.6582 83.7148 10.4355 83.6367 10.2832C83.5625 10.127 83.4531 10.0195 83.3086 9.96094C83.168 9.89844 83 9.86719 82.8047 9.86719C82.6016 9.86719 82.4238 9.9082 82.2715 9.99023C82.1191 10.0684 81.9922 10.1777 81.8906 10.3184C81.7891 10.459 81.7129 10.623 81.6621 10.8105C81.6113 10.9941 81.5859 11.1953 81.5859 11.4141ZM88.4414 9.87891V17.4375H86.7539V8.66016H88.3184L88.4414 9.87891ZM92.4551 11.7598V11.8828C92.4551 12.3438 92.4004 12.7715 92.291 13.166C92.1855 13.5605 92.0293 13.9043 91.8223 14.1973C91.6152 14.4863 91.3574 14.7129 91.0488 14.877C90.7441 15.0371 90.3926 15.1172 89.9941 15.1172C89.6074 15.1172 89.2715 15.0391 88.9863 14.8828C88.7012 14.7266 88.4609 14.5078 88.2656 14.2266C88.0742 13.9414 87.9199 13.6113 87.8027 13.2363C87.6855 12.8613 87.5957 12.459 87.5332 12.0293V11.707C87.5957 11.2461 87.6855 10.8242 87.8027 10.4414C87.9199 10.0547 88.0742 9.7207 88.2656 9.43945C88.4609 9.1543 88.6992 8.93359 88.9805 8.77734C89.2656 8.62109 89.5996 8.54297 89.9824 8.54297C90.3848 8.54297 90.7383 8.61914 91.043 8.77148C91.3516 8.92383 91.6094 9.14258 91.8164 9.42773C92.0273 9.71289 92.1855 10.0527 92.291 10.4473C92.4004 10.8418 92.4551 11.2793 92.4551 11.7598ZM90.7617 11.8828V11.7598C90.7617 11.4902 90.7383 11.2422 90.6914 11.0156C90.6484 10.7852 90.5781 10.584 90.4805 10.4121C90.3867 10.2402 90.2617 10.1074 90.1055 10.0137C89.9531 9.91602 89.7676 9.86719 89.5488 9.86719C89.3184 9.86719 89.1211 9.9043 88.957 9.97852C88.7969 10.0527 88.666 10.1602 88.5645 10.3008C88.4629 10.4414 88.3867 10.6094 88.3359 10.8047C88.2852 11 88.2539 11.2207 88.2422 11.4668V12.2812C88.2617 12.5703 88.3164 12.8301 88.4062 13.0605C88.4961 13.2871 88.6348 13.4668 88.8223 13.5996C89.0098 13.7324 89.2559 13.7988 89.5605 13.7988C89.7832 13.7988 89.9707 13.75 90.123 13.6523C90.2754 13.5508 90.3984 13.4121 90.4922 13.2363C90.5898 13.0605 90.6582 12.8574 90.6973 12.627C90.7402 12.3965 90.7617 12.1484 90.7617 11.8828ZM93.2344 11.8945V11.7715C93.2344 11.3066 93.3008 10.8789 93.4336 10.4883C93.5664 10.0938 93.7598 9.75195 94.0137 9.46289C94.2676 9.17383 94.5801 8.94922 94.9512 8.78906C95.3223 8.625 95.748 8.54297 96.2285 8.54297C96.709 8.54297 97.1367 8.625 97.5117 8.78906C97.8867 8.94922 98.2012 9.17383 98.4551 9.46289C98.7129 9.75195 98.9082 10.0938 99.041 10.4883C99.1738 10.8789 99.2402 11.3066 99.2402 11.7715V11.8945C99.2402 12.3555 99.1738 12.7832 99.041 13.1777C98.9082 13.5684 98.7129 13.9102 98.4551 14.2031C98.2012 14.4922 97.8887 14.7168 97.5176 14.877C97.1465 15.0371 96.7207 15.1172 96.2402 15.1172C95.7598 15.1172 95.332 15.0371 94.957 14.877C94.5859 14.7168 94.2715 14.4922 94.0137 14.2031C93.7598 13.9102 93.5664 13.5684 93.4336 13.1777C93.3008 12.7832 93.2344 12.3555 93.2344 11.8945ZM94.9219 11.7715V11.8945C94.9219 12.1602 94.9453 12.4082 94.9922 12.6387C95.0391 12.8691 95.1133 13.0723 95.2148 13.248C95.3203 13.4199 95.457 13.5547 95.625 13.6523C95.793 13.75 95.998 13.7988 96.2402 13.7988C96.4746 13.7988 96.6758 13.75 96.8438 13.6523C97.0117 13.5547 97.1465 13.4199 97.248 13.248C97.3496 13.0723 97.4238 12.8691 97.4707 12.6387C97.5215 12.4082 97.5469 12.1602 97.5469 11.8945V11.7715C97.5469 11.5137 97.5215 11.2715 97.4707 11.0449C97.4238 10.8145 97.3477 10.6113 97.2422 10.4355C97.1406 10.2559 97.0059 10.1152 96.8379 10.0137C96.6699 9.91211 96.4668 9.86133 96.2285 9.86133C95.9902 9.86133 95.7871 9.91211 95.6191 10.0137C95.4551 10.1152 95.3203 10.2559 95.2148 10.4355C95.1133 10.6113 95.0391 10.8145 94.9922 11.0449C94.9453 11.2715 94.9219 11.5137 94.9219 11.7715ZM103.705 13.248C103.705 13.127 103.67 13.0176 103.6 12.9199C103.529 12.8223 103.398 12.7324 103.207 12.6504C103.02 12.5645 102.748 12.4863 102.393 12.416C102.072 12.3457 101.773 12.2578 101.496 12.1523C101.223 12.043 100.984 11.9121 100.781 11.7598C100.582 11.6074 100.426 11.4277 100.312 11.2207C100.199 11.0098 100.143 10.7695 100.143 10.5C100.143 10.2344 100.199 9.98438 100.312 9.75C100.43 9.51562 100.596 9.30859 100.811 9.12891C101.029 8.94531 101.295 8.80273 101.607 8.70117C101.924 8.5957 102.279 8.54297 102.674 8.54297C103.225 8.54297 103.697 8.63086 104.092 8.80664C104.49 8.98242 104.795 9.22461 105.006 9.5332C105.221 9.83789 105.328 10.1855 105.328 10.5762H103.641C103.641 10.4121 103.605 10.2656 103.535 10.1367C103.469 10.0039 103.363 9.90039 103.219 9.82617C103.078 9.74805 102.895 9.70898 102.668 9.70898C102.48 9.70898 102.318 9.74219 102.182 9.80859C102.045 9.87109 101.939 9.95703 101.865 10.0664C101.795 10.1719 101.76 10.2891 101.76 10.418C101.76 10.5156 101.779 10.6035 101.818 10.6816C101.861 10.7559 101.93 10.8242 102.023 10.8867C102.117 10.9492 102.238 11.0078 102.387 11.0625C102.539 11.1133 102.727 11.1602 102.949 11.2031C103.406 11.2969 103.814 11.4199 104.174 11.5723C104.533 11.7207 104.818 11.9238 105.029 12.1816C105.24 12.4355 105.346 12.7695 105.346 13.1836C105.346 13.4648 105.283 13.7227 105.158 13.957C105.033 14.1914 104.854 14.3965 104.619 14.5723C104.385 14.7441 104.104 14.8789 103.775 14.9766C103.451 15.0703 103.086 15.1172 102.68 15.1172C102.09 15.1172 101.59 15.0117 101.18 14.8008C100.773 14.5898 100.465 14.3223 100.254 13.998C100.047 13.6699 99.9434 13.334 99.9434 12.9902H101.543C101.551 13.2207 101.609 13.4062 101.719 13.5469C101.832 13.6875 101.975 13.7891 102.146 13.8516C102.322 13.9141 102.512 13.9453 102.715 13.9453C102.934 13.9453 103.115 13.916 103.26 13.8574C103.404 13.7949 103.514 13.7129 103.588 13.6113C103.666 13.5059 103.705 13.3848 103.705 13.248ZM109.359 15.1172C108.867 15.1172 108.426 15.0391 108.035 14.8828C107.645 14.7227 107.312 14.502 107.039 14.2207C106.77 13.9395 106.562 13.6133 106.418 13.2422C106.273 12.8672 106.201 12.4688 106.201 12.0469V11.8125C106.201 11.332 106.27 10.8926 106.406 10.4941C106.543 10.0957 106.738 9.75 106.992 9.45703C107.25 9.16406 107.562 8.93945 107.93 8.7832C108.297 8.62305 108.711 8.54297 109.172 8.54297C109.621 8.54297 110.02 8.61719 110.367 8.76562C110.715 8.91406 111.006 9.125 111.24 9.39844C111.479 9.67188 111.658 10 111.779 10.3828C111.9 10.7617 111.961 11.1836 111.961 11.6484V12.3516H106.922V11.2266H110.303V11.0977C110.303 10.8633 110.26 10.6543 110.174 10.4707C110.092 10.2832 109.967 10.1348 109.799 10.0254C109.631 9.91602 109.416 9.86133 109.154 9.86133C108.932 9.86133 108.74 9.91016 108.58 10.0078C108.42 10.1055 108.289 10.2422 108.188 10.418C108.09 10.5938 108.016 10.8008 107.965 11.0391C107.918 11.2734 107.895 11.5312 107.895 11.8125V12.0469C107.895 12.3008 107.93 12.5352 108 12.75C108.074 12.9648 108.178 13.1504 108.311 13.3066C108.447 13.4629 108.611 13.584 108.803 13.6699C108.998 13.7559 109.219 13.7988 109.465 13.7988C109.77 13.7988 110.053 13.7402 110.314 13.623C110.58 13.502 110.809 13.3203 111 13.0781L111.82 13.9688C111.688 14.1602 111.506 14.3438 111.275 14.5195C111.049 14.6953 110.775 14.8398 110.455 14.9531C110.135 15.0625 109.77 15.1172 109.359 15.1172Z" fill="#4285F4"/>
</svg>
