<svg width="128" height="128" viewBox="0 0 128 128" fill="none" xml:space="preserve" xmlns="http://www.w3.org/2000/svg"><path style="display:inline;fill:#4285f4;fill-opacity:1;stroke:none;stroke-width:.887813" d="M51.903.574v9.67h1.813V8.16l.652-.66 1.758 2.744h2.088l-2.68-3.988 2.47-2.819H55.83l-1.766 2.07-.347.442V.574zm13.721.38a3.82 3.82 0 0 0-1.559.308c-.46.201-.871.502-1.203.88a4.01 4.01 0 0 0-.767 1.39 5.862 5.862 0 0 0-.264 1.818v.634c-.008.616.08 1.23.258 1.819.154.507.409.978.75 1.384.327.38.735.68 1.193.881.5.209 1.038.31 1.58.301.75 0 1.39-.132 1.924-.4a3.042 3.042 0 0 0 1.252-1.121 3.42 3.42 0 0 0 .51-1.643h-1.885c-.024.37-.105.679-.242.926-.135.248-.33.432-.586.558-.256.125-.58.192-.977.192a1.88 1.88 0 0 1-.86-.184 1.52 1.52 0 0 1-.579-.554 2.82 2.82 0 0 1-.326-.907 6.516 6.516 0 0 1-.11-1.252v-.646a6.277 6.277 0 0 1 .116-1.272c.079-.366.197-.666.357-.906a1.53 1.53 0 0 1 .592-.535 1.83 1.83 0 0 1 .822-.176c.42 0 .756.07 1.008.203.25.126.453.33.572.584.135.295.21.614.22.938h1.89a3.87 3.87 0 0 0-.528-1.66c-.29-.486-.7-.87-1.226-1.147-.526-.276-1.169-.414-1.932-.414Zm-49.28.132v6.348c.009.273-.043.544-.15.796a1.105 1.105 0 0 1-.41.498 1.13 1.13 0 0 1-.623.17c-.247 0-.458-.043-.635-.127a.87.87 0 0 1-.408-.421c-.092-.198-.139-.461-.139-.797h-1.892c0 .642.13 1.172.394 1.592.261.411.642.733 1.09.923.461.201.99.301 1.59.301a3.396 3.396 0 0 0 1.563-.351 2.676 2.676 0 0 0 1.1-1.006c.268-.44.402-.967.402-1.578V1.086Zm10.688.672v1.68h-.98V4.72h.98v3.654c0 .477.079.865.239 1.158.148.284.388.51.68.643.297.13.644.193 1.042.193.374.007.748-.048 1.104-.162l-.008-1.334a5.019 5.019 0 0 1-.234.037 3.238 3.238 0 0 1-.3.014c-.16 0-.293-.02-.398-.057a.454.454 0 0 1-.238-.22c-.05-.107-.074-.258-.074-.454V4.721h1.168V3.437h-1.168v-1.68Zm7.479 1.553c-.411 0-.768.083-1.074.251-.252.142-.463.34-.643.565l-.068-.69h-1.68v9.424h1.81v-3.23c.17.191.36.362.586.486.305.168.666.252 1.08.252a2.4 2.4 0 0 0 1.133-.258 2.39 2.39 0 0 0 .832-.728c.232-.336.402-.712.502-1.108a5.12 5.12 0 0 0 .176-1.377v-.132c0-.517-.059-.988-.176-1.41a3.23 3.23 0 0 0-.51-1.094 2.246 2.246 0 0 0-.83-.705 2.519 2.519 0 0 0-1.138-.246zm38.838 0a3.34 3.34 0 0 0-1.371.263c-.386.163-.73.411-1.006.725-.28.321-.491.695-.623 1.1-.143.42-.215.878-.215 1.378v.133a4.29 4.29 0 0 0 .215 1.377c.134.404.345.777.623 1.1.28.313.625.56 1.011.724.403.172.861.258 1.377.258s.974-.086 1.373-.258a2.789 2.789 0 0 0 1.004-.724c.281-.322.496-.695.631-1.1a4.31 4.31 0 0 0 .213-1.377v-.133c0-.499-.07-.96-.213-1.379a3.14 3.14 0 0 0-.629-1.1 2.79 2.79 0 0 0-1.013-.724 3.406 3.406 0 0 0-1.377-.263Zm-50.696.001c-.457-.007-.91.08-1.332.258a2.758 2.758 0 0 0-1.008.723 3.327 3.327 0 0 0-.628 1.113 4.36 4.36 0 0 0-.22 1.416v.252c-.002.439.077.874.233 1.283.15.391.377.748.666 1.051.304.308.669.55 1.07.71.454.173.935.259 1.42.251.4.007.798-.052 1.178-.176.317-.107.613-.263.88-.465.224-.165.422-.365.585-.591l-.88-.955c-.207.26-.45.454-.735.584a2.21 2.21 0 0 1-.914.19c-.263 0-.5-.048-.71-.14a1.538 1.538 0 0 1-.529-.388 1.877 1.877 0 0 1-.423-1.028h4.341v-.754c0-.5-.064-.953-.193-1.359a2.925 2.925 0 0 0-.58-1.057 2.503 2.503 0 0 0-.937-.677c-.373-.16-.8-.24-1.284-.24zm18.399 0a3.94 3.94 0 0 0-1.194.17c-.33.102-.638.26-.912.471a2.045 2.045 0 0 0-.586.686 1.784 1.784 0 0 0-.2.826h1.812a.817.817 0 0 1 .119-.447.745.745 0 0 1 .34-.295c.147-.072.32-.11.521-.11.2-.008.397.038.572.133a.8.8 0 0 1 .334.371c.076.177.113.368.108.56V6.1h-.813a5.571 5.571 0 0 0-1.37.148 2.78 2.78 0 0 0-.987.436c-.26.188-.46.422-.594.699-.134.277-.2.593-.2.949-.005.374.1.742.302 1.057.209.31.495.557.83.722a2.65 2.65 0 0 0 1.178.258c.339 0 .632-.05.88-.15.33-.136.62-.349.85-.617.036.22.096.438.187.642h1.83v-.107a2.402 2.402 0 0 1-.2-.616 5.006 5.006 0 0 1-.07-.918V5.69c0-.527-.118-.968-.358-1.32a2.144 2.144 0 0 0-.97-.793c-.41-.176-.88-.264-1.41-.264zm6.97 0c-.524 0-.98.088-1.37.264-.39.177-.715.422-.975.736a3.137 3.137 0 0 0-.586 1.094c-.13.416-.194.865-.194 1.348v.182a4.54 4.54 0 0 0 .194 1.345c.121.4.321.77.586 1.094a2.7 2.7 0 0 0 .974.73c.395.176.855.264 1.383.264.492.007.98-.1 1.422-.314.407-.2.757-.5 1.014-.873.252-.378.386-.823.383-1.278h-1.706c.001.198-.053.392-.156.56a.995.995 0 0 1-.402.364 1.35 1.35 0 0 1-.592.127c-.268 0-.486-.056-.654-.164a1.145 1.145 0 0 1-.395-.445 2.121 2.121 0 0 1-.19-.649 5.664 5.664 0 0 1-.05-.761v-.182c0-.253.017-.506.05-.756.033-.225.097-.443.194-.648.085-.185.22-.342.39-.454.169-.113.384-.168.65-.168.219-.007.437.052.622.17.17.107.306.259.39.44.095.192.144.401.145.615h1.704c-.002-.54-.129-1.008-.372-1.402a2.39 2.39 0 0 0-.994-.918c-.419-.213-.907-.32-1.465-.32Zm33.397 0a2.57 2.57 0 0 0-1.15.245 2.34 2.34 0 0 0-.813.664l-.062-.784h-1.706v6.807h1.819v-4.81c.027-.052.05-.104.082-.153.113-.172.256-.306.428-.402a1.26 1.26 0 0 1 .617-.145c.187-.005.373.03.547.102a.71.71 0 0 1 .357.351c.083.167.127.407.127.717v4.34h1.81v-4.54c0-.062-.007-.112-.01-.17.047-.114.1-.222.169-.315a1.14 1.14 0 0 1 .408-.352 1.19 1.19 0 0 1 .572-.133c.186-.004.37.03.541.102.158.065.285.19.354.346.082.163.125.402.125.716v4.346h1.816V5.898c0-.474-.052-.876-.156-1.203a1.93 1.93 0 0 0-.44-.79 1.637 1.637 0 0 0-.685-.448 2.643 2.643 0 0 0-.895-.145 2.498 2.498 0 0 0-1.132.245c-.326.16-.6.383-.823.673-.036.05-.062.104-.095.155a1.778 1.778 0 0 0-.327-.514 1.604 1.604 0 0 0-.646-.42 2.39 2.39 0 0 0-.832-.139zm10.898 0a2.206 2.206 0 0 0-1.074.252 2.24 2.24 0 0 0-.642.565l-.07-.692h-1.678v9.424h1.81v-3.23c.17.191.359.364.584.488a2.23 2.23 0 0 0 1.082.252c.393.008.784-.08 1.135-.258.33-.175.614-.425.83-.73a3.44 3.44 0 0 0 .502-1.108 5.16 5.16 0 0 0 .178-1.377v-.132l-.002.002a5.25 5.25 0 0 0-.176-1.41 3.212 3.212 0 0 0-.51-1.094 2.262 2.262 0 0 0-.83-.705 2.522 2.522 0 0 0-1.139-.247Zm6.707 0a3.372 3.372 0 0 0-1.373.264 2.784 2.784 0 0 0-1.005.725 3.18 3.18 0 0 0-.624 1.1c-.143.42-.214.878-.214 1.376v.133c-.004.468.068.934.214 1.379.134.404.346.777.624 1.1.28.312.625.559 1.011.722.403.172.862.258 1.377.258.517 0 .975-.086 1.373-.258a2.787 2.787 0 0 0 1.006-.722c.28-.322.494-.697.629-1.102.143-.423.215-.882.215-1.377v-.133c0-.498-.071-.958-.213-1.377a3.129 3.129 0 0 0-.63-1.1 2.774 2.774 0 0 0-1.013-.724 3.41 3.41 0 0 0-1.377-.264Zm6.918 0a3.606 3.606 0 0 0-1.144.17 2.527 2.527 0 0 0-.856.46 2.112 2.112 0 0 0-.535.667c-.122.251-.181.52-.181.805a1.61 1.61 0 0 0 .181.773c.125.227.296.425.502.58.237.174.496.314.77.42a6.7 6.7 0 0 0 .963.286c.38.074.672.158.873.25.205.088.345.184.422.289a.643.643 0 0 1-.012.742.836.836 0 0 1-.354.264c-.156.063-.35.095-.586.095a1.81 1.81 0 0 1-.609-.1 1.035 1.035 0 0 1-.457-.327c-.12-.151-.182-.351-.191-.598h-1.715c.005.385.119.76.332 1.082.226.348.557.634.994.861.44.226.976.338 1.61.338.396.006.794-.043 1.177-.148.325-.092.63-.24.904-.436.24-.174.437-.4.578-.66.134-.252.204-.528.204-.828 0-.446-.114-.804-.34-1.076a2.278 2.278 0 0 0-.918-.655 7.074 7.074 0 0 0-1.317-.398 4.77 4.77 0 0 1-.603-.15 1.93 1.93 0 0 1-.39-.188.692.692 0 0 1-.22-.22.614.614 0 0 1-.062-.284.67.67 0 0 1 .111-.379.798.798 0 0 1 .34-.275c.164-.076.343-.113.524-.108.243 0 .44.043.59.127a.758.758 0 0 1 .34.332.97.97 0 0 1 .114.473h1.811c0-.419-.116-.792-.346-1.12-.226-.331-.553-.59-.98-.778-.424-.19-.933-.286-1.524-.286zm6.977 0a3.308 3.308 0 0 0-1.334.258 2.76 2.76 0 0 0-1.006.725 3.314 3.314 0 0 0-.63 1.113 4.347 4.347 0 0 0-.22 1.414v.252c-.003.439.076.874.233 1.283.15.391.376.748.666 1.051.303.309.668.55 1.07.711.453.174.937.26 1.422.252.399.006.797-.053 1.176-.176a3.14 3.14 0 0 0 .88-.467 2.64 2.64 0 0 0 .585-.591l-.88-.955c-.194.25-.448.451-.737.584-.28.127-.584.19-.91.19-.265 0-.502-.046-.712-.138a1.534 1.534 0 0 1-.529-.39 1.848 1.848 0 0 1-.334-.598 2.275 2.275 0 0 1-.088-.428h4.342v-.756c0-.5-.065-.95-.195-1.357a2.93 2.93 0 0 0-.578-1.059 2.518 2.518 0 0 0-.94-.677c-.373-.16-.8-.24-1.281-.24zM22.636 4.727c.282 0 .511.058.691.175.18.116.319.284.402.48.092.197.137.422.137.673v.138h-2.525c.009-.064.005-.14.017-.2a2.4 2.4 0 0 1 .239-.669c.101-.18.246-.33.422-.44a1.17 1.17 0 0 1 .617-.157zm50.713 0c.229-.007.455.05.654.164.181.11.331.265.434.45.119.204.201.426.246.657.054.243.08.502.08.78v.132c0 .284-.027.55-.08.797-.044.23-.126.452-.24.656-.11.184-.254.33-.434.434-.18.105-.397.158-.649.158-.26 0-.48-.053-.66-.158a1.225 1.225 0 0 1-.44-.434 2.134 2.134 0 0 1-.24-.654 3.972 3.972 0 0 1-.074-.799v-.133c0-.276.025-.537.075-.78.044-.23.125-.45.24-.653.105-.185.253-.34.433-.453.199-.114.426-.171.655-.164zm25.673 0c.23-.007.456.051.655.166.181.11.33.265.433.45.12.203.202.424.246.655.055.243.082.503.082.78v.132c0 .285-.028.553-.082.799-.043.23-.123.45-.238.654a1.192 1.192 0 0 1-.433.436 1.273 1.273 0 0 1-.65.156c-.26 0-.479-.051-.659-.156a1.244 1.244 0 0 1-.441-.436 2.156 2.156 0 0 1-.239-.652 3.98 3.98 0 0 1-.076-.8v-.134c0-.276.024-.536.074-.779.044-.23.126-.45.24-.654.106-.184.255-.34.434-.451.199-.115.425-.173.654-.166Zm13.877.001c.281 0 .514.06.694.176.179.116.317.283.4.479.092.197.14.42.14.672v.14h-2.529c.01-.067.005-.136.018-.203.046-.233.128-.457.24-.666.1-.18.245-.331.42-.44.172-.103.38-.158.617-.158zm-78.853.006a1.082 1.082 0 0 1 1 .584c.111.202.187.422.226.649.05.243.077.509.077.799v.132c.001.268-.023.536-.07.8a2.034 2.034 0 0 1-.22.652c-.092.18-.23.334-.398.447a1.095 1.095 0 0 1-.603.158c-.327 0-.591-.073-.791-.215a1.254 1.254 0 0 1-.41-.512V5.43a1.4 1.4 0 0 1 .132-.23c.108-.15.252-.27.42-.347.176-.08.39-.119.637-.119zm57.807 0a1.101 1.101 0 0 1 1 .586c.11.202.187.422.226.649.05.243.076.509.076.799v.13c0 .285-.024.552-.07.8a2.058 2.058 0 0 1-.219.654 1.214 1.214 0 0 1-.396.447 1.102 1.102 0 0 1-.606.156c-.326 0-.59-.07-.793-.213a1.258 1.258 0 0 1-.408-.512v-2.8a1.46 1.46 0 0 1 .133-.229c.108-.15.253-.269.422-.346.175-.08.388-.12.635-.12zM41.204 7.123h.762v1.184c-.025.05-.048.1-.082.144-.12.17-.28.307-.465.402-.201.11-.44.165-.711.165a1.042 1.042 0 0 1-.473-.102.761.761 0 0 1-.416-.709c0-.156.027-.298.077-.428a.9.9 0 0 1 .251-.34c.127-.107.274-.188.434-.234.202-.058.413-.086.623-.082zm21.883 7.648a11.824 11.824 0 0 0-5.858 1.624l-38.859 22.7c-1.372.803-2.333 1.643-3.111 2.829L34.2 53.027c.554-.562 1.293-.842 2.09-1.314L59.835 37.95a7.16 7.16 0 0 1 7.127-.072L90.755 51.2c.913.51 1.51.675 2.1 1.33l19.06-11.172c-1.028-1.364-2.053-2.205-3.635-3.091L68.978 16.273a11.826 11.826 0 0 0-5.891-1.502zm.809 28.346c-.15 0-.272 0-.422.028a6.372 6.372 0 0 0-1.026.18.431.431 0 0 1-.086.028c-.03.01-.062.015-.093.032-.453.119-.875.325-1.297.562l-19.35 11.285a4.943 4.943 0 0 0-1.447 1.278l-.01.013 6.117 3.588a3.702 3.702 0 0 1 1.012-.879l14.508-8.431c.317-.178.634-.333.972-.422a.275.275 0 0 1 .07-.024.33.33 0 0 0 .065-.023 4.634 4.634 0 0 1 .77-.133 1.57 1.57 0 0 1 .314-.021h.293c.384.021.763.09 1.131.2.273.097.54.215.793.356l14.664 8.164c.186.1.358.224.53.346l6.175-3.619a6.078 6.078 0 0 0-1.172-.844L66.85 43.861a6.701 6.701 0 0 0-1.055-.478 6.39 6.39 0 0 0-1.508-.266Zm49.857.473L94.677 54.773c.349.783.25 1.443.27 2.495v27.087a7 7 0 0 1-.91 3.543 6.998 6.998 0 0 1-2.579 2.596L67.913 104.26c-.81.473-1.092.794-1.74.93v22.212c1.616-.13 2.595-.65 4.172-1.562l38.86-22.727c3.612-2.119 5.826-5.967 5.776-10.133v-44.7c-.023-1.963-.275-3.164-1.228-4.69zm-100.057.857v.002c-.81 1.705-.682 2.761-.658 4.783v46.989a7.7 7.7 0 0 0 3.957 6.65l41.268 23.094c1.642.923 3.273 1.376 5.054 1.46v-22.2c-1.006-.086-1.924-.393-2.843-.895l-25.02-13.982c-1.476-.828-2.385-2.36-2.385-4.018V57.88c0-1.132-.28-1.319.09-2.154L21.04 48.62zm75.56 13.502-6.152 3.606c.017.057.04.11.053.17.068.288.114.578.114.888V79.19a4.38 4.38 0 0 1-.204 1.336.297.297 0 0 0-.025.069c-.005.021-.009.045-.02.066-.03.089-.07.177-.107.26l-.055.115a2.114 2.114 0 0 1-.156.336 5.31 5.31 0 0 1-.297.44l-.017.027a5.268 5.268 0 0 1-.588.623 3.534 3.534 0 0 1-.451.355c-.047.023-.087.053-.127.08a.91.91 0 0 1-.123.077l-14.506 8.431a4.205 4.205 0 0 1-.422.217v7.166a5.605 5.605 0 0 0 1.19-.521l19.349-11.28c.06-.029.112-.067.164-.103.053-.038.105-.074.166-.104a4.679 4.679 0 0 0 .605-.48c.284-.256.546-.531.784-.83l.023-.037a6.72 6.72 0 0 0 .397-.59c.088-.148.151-.295.21-.446.02-.048.046-.1.07-.156.05-.11.103-.23.143-.347a.388.388 0 0 0 .028-.09.397.397 0 0 1 .031-.09c.183-.577.276-1.18.273-1.787V59.754a5.24 5.24 0 0 0-.152-1.19 4.47 4.47 0 0 0-.197-.615zm-50.165 1.254c-.018.115-.051.226-.06.342-.03.236-.03.475-.03.744v23.305c0 .177 0 .326.03.506.06.504.241.98.511 1.398.182.297.393.534.605.773.242.238.51.443.811.594l20.555 11.463c.563.31 1.177.495 1.802.611v-7.078a4.468 4.468 0 0 1-1.107-.408l-15.412-8.568a2.415 2.415 0 0 1-.608-.446c-.16-.178-.319-.354-.455-.576a2.47 2.47 0 0 1-.382-1.045 2.116 2.116 0 0 1-.024-.38V63.015c0-.055.007-.1.008-.153z"/></svg>