<svg xmlns="http://www.w3.org/2000/svg" xml:space="preserve" viewBox="0 0 128 128"><defs><linearGradient id="a" x1="17.8001" x2="30.6402" y1="51.4921" y2="5.5354" gradientTransform="matrix(2.6806291 0 0 -2.6806291 -.3351 133.8304)" gradientUnits="userSpaceOnUse"><stop offset="0" stop-color="#a391e8"/><stop offset="1" stop-color="#685cd0"/></linearGradient><linearGradient id="b" x1="36.7246" x2="27.9746" y1="3.4389" y2="28.6889" gradientTransform="matrix(2.6806291 0 0 -2.6806291 -.3351 133.8304)" gradientUnits="userSpaceOnUse"><stop offset="0" stop-color="#38389f"/><stop offset="1" stop-color="#4b44c0"/></linearGradient><linearGradient id="c" x1="13.6802" x2="26.113" y1="54.9001" y2="18.5112" gradientTransform="matrix(2.6806291 0 0 -2.6806291 -.3351 133.8304)" gradientUnits="userSpaceOnUse"><stop offset="0" stop-color="#dbcef8"/><stop offset="1" stop-color="#c0aff1"/></linearGradient><linearGradient id="d" x1="11.5444" x2="24.9318" y1="51.7811" y2="3.9691" gradientTransform="matrix(2.6806291 0 0 -2.6806291 -.3351 133.8304)" gradientUnits="userSpaceOnUse"><stop offset="0" stop-color="#c0aff1"/><stop offset="1" stop-color="#8675dd"/></linearGradient></defs><path fill="url(#a)" d="m80.3519 39.4723-51.941 38.9046-9.1774 6.9341c-3.4848 2.6807-3.4848 8.042 0 10.7225l40.7455 30.5592c2.4126 1.8764 5.6294 1.8764 8.042 0l57.0974-42.89c3.4848-2.6807 3.4848-8.042 0-10.7225l-28.4148-21.177.0727-.055Z" style="mix-blend-mode:normal"/><path fill="url(#b)" d="M80.6199 39.4723 31.2964 76.4649l47.7151 35.9205c2.1129 1.6434 4.8424 1.8469 7.1085.6118l38.9984-29.2945c3.4848-2.6807 3.4848-8.042 0-10.7225l-28.4148-21.177.206-.1557Z" style="mix-blend-mode:normal"/><path fill-opacity=".24" d="M64 0c-.5621 0-1.1208.096-1.6701.2458L1.4186 45.8695c-1.9133 2.853-1.4312 6.924 1.463 9.1504l28.4148 21.177-.457.3453 12.7878 9.573c2.4126 1.8764 5.6294 1.8764 8.042 0l45.393-34.0448-.3586-.2673 12.063-9.114c2.8875-2.2213 3.3745-6.2789 1.4768-9.131L65.6756.2471C65.1246.0964 64.564 0 64 0Z" style="mix-blend-mode:normal"/><path fill-opacity=".32" d="M64 1.1393.361 48.806c-.2833 2.2812.5302 4.6827 2.5206 6.2138l28.4148 21.177-1.8827 1.4225 14.2135 10.6403c2.4126 1.8764 5.6294 1.8764 8.042 0l46.8272-35.1204-1.7928-1.3362 12.063-9.114c1.988-1.5293 2.8017-3.927 2.5214-6.2057z" style="mix-blend-mode:normal"/><path fill="url(#c)" d="M64 0c-1.1548 0-2.303.3338-3.3468.9655L30.691 23.4079 2.8816 44.2974c-3.4848 2.6806-3.4848 8.0419 0 10.7225l28.4148 21.177-.1005.076 12.4313 9.3061c2.4126 1.8765 5.6294 1.8765 8.042 0l45.0344-33.7759 12.063-9.114c3.4847-2.6807 3.4847-8.042 0-10.7226L90.008 17.8978 67.405 1.0035C66.3458.3477 65.1766 0 64 0Z" style="mix-blend-mode:normal"/><path fill="url(#d)" d="M44.9675 14.4754c-1.4073 0-2.8146.4691-4.0209 1.4074L9.0902 39.6336l-6.2086 4.6638c-3.4848 2.6806-3.4848 8.0419 0 10.7225l28.4148 21.177-.2322.1754 12.563 9.4749c2.4126 1.8764 5.6294 1.8764 8.042 0l45.169-33.9437-.1346-.1004.1335-.1008-47.8486-35.8195c-1.2063-.9383-2.6137-1.4074-4.021-1.4074z" style="mix-blend-mode:normal"/></svg>
