<svg xmlns="http://www.w3.org/2000/svg" viewBox="0 0 128 128"><path d="M64 0c-1.242 0-2.47.36-3.578 1.031l-.021.012-29.752 22.284-27.598 20.73-.002.001a7.045 7.045 0 0 0-1.504 1.6l-.01.007-.046.07-.004.01a7.08 7.08 0 0 0-.523.9v.003c-.04.085-.07.174-.107.261l-.021.054c-.06.145-.126.287-.176.435v.002c-.025.071-.04.145-.062.217a7.34 7.34 0 0 0-.312 1.827c-.003.052-.007.103-.008.155-.002.058-.01.115-.01.173 0 .338.032.674.078 1.01.008.06.019.118.029.178.065.4.153.797.285 1.184l.003.01c.004.01.01.021.014.033.13.371.298.73.488 1.08.035.063.068.128.105.191.2.34.43.665.69.973v.002c.094.111.193.219.295.325.067.07.13.142.201.21v.002c.158.151.327.296.502.436.032.025.06.054.093.08h.002l.002.001 27.668 20.621-.227.17-.225.171.008.006-1.891 1.417-9.11 6.884h-.001c-3.71 2.854-3.71 8.571 0 11.427l.002.002 40.428 30.32.002.003.004.002c2.56 1.987 6.016 1.987 8.576 0l.004-.002 17.927-13.468 38.728-29.09.002-.002c.232-.179.45-.369.654-.568 2.843-2.792 2.843-7.5 0-10.291a7.17 7.17 0 0 0-.652-.568h-.002l-.002-.002h-.002L97.635 52.163l-.22-.164.001-.002-.136-.101.204-.151-.002-.002 11.24-8.493h.003c.219-.168.42-.35.614-.537.048-.047.093-.095.14-.143.12-.123.232-.25.34-.38.257-.303.484-.623.681-.957.04-.069.075-.138.112-.208.185-.337.347-.684.473-1.042.008-.022.02-.042.027-.064a7.3 7.3 0 0 0 .283-1.16c.012-.069.026-.137.035-.207a7.4 7.4 0 0 0 .068-1.186c-.001-.047-.006-.094-.008-.141a7.31 7.31 0 0 0-.533-2.458l-.037-.089a7.09 7.09 0 0 0-.62-1.157l-.048-.07-.004-.002a7.046 7.046 0 0 0-1.524-1.628l-.002-.002-18.616-13.96L67.659 1.081l-.02-.011C66.518.377 65.267 0 64.004 0Zm-.006.992H64c.493.007.983.085 1.46.215l44.034 32.917a6.325 6.325 0 0 1 .23 6.467c-.022.041-.043.083-.067.124a6.05 6.05 0 0 1-.599.841c-.048.057-.1.111-.151.167-.23.253-.478.495-.758.713l-.029.025-11.466 8.664-16.163-12.08-.06.044L49.4 15.86c-1.28-.991-2.782-1.496-4.286-1.496-.05 0-.1.013-.151.014l17.58-13.17c.489-.128.974-.214 1.45-.215ZM45.115 15.355c1.286 0 2.572.429 3.684 1.293l.004.002 30.668 22.96-47.91 35.884L3.655 54.698h-.002l-.002-.004H3.65v-.001h-.002c-.3-.231-.561-.49-.804-.76-.042-.046-.086-.09-.126-.138a6.038 6.038 0 0 1-.607-.858c-.019-.033-.036-.066-.054-.1a6.32 6.32 0 0 1 .234-6.498l40.946-30.67a5.833 5.833 0 0 1 1.878-.314zm35.242 25.027 15.34 11.464-44.235 33.176-.004.001c-2.224 1.732-5.144 1.732-7.37 0l-.004-.003-11.628-8.706zm16.449 12.402 27.538 20.524c3.205 2.465 3.205 7.388 0 9.853l-38.65 29.032c-2.077 1.125-4.55.943-6.494-.57l-.004-.001-31.618-23.804a6.95 6.95 0 0 0 4.491-1.479zm-65.7 24.291L43.48 86.34c.576.448 1.202.78 1.847 1.028l33.271 25.045a6.947 6.947 0 0 0 4.863 1.46l-15.772 11.847-.004.004c-2.225 1.73-5.145 1.73-7.37 0l-.004-.004-40.43-30.321c-3.204-2.465-3.204-7.39 0-9.855l9.103-6.876z" /></svg>
