<svg xmlns="http://www.w3.org/2000/svg" viewBox="0 0 128 128"><path fill="#5fa04e" d="M64.03.002c-1.338-.034-2.794.243-4.098 1.08l-48.266 27.98a1.786 1.786 0 0 0-.414.54c-2.06 1.43-3.386 3.714-3.348 6.248V92.2c0 1.554.57 2.98 1.385 4.215-.018.2-.002.4.047.594a7.844 7.844 0 0 0 2.072 1.822l.04.016 48.671 28.119a7.465 7.465 0 0 0 4.723.963c.046.025.092.049.14.07.838-.14 1.79-.396 2.707-.86.032-.017.063-.035.094-.054l48.545-28.246h.01c1.815-1.064 3.09-2.802 3.682-4.733a1.786 1.786 0 0 0-.094-1.273c.02-.213.054-.404.054-.633V35.818c0-.036-.01-.068-.011-.103-.082-2.2-.654-5.27-4.586-7.078h-.002L92.002 15.11 67.783 1.043a7.728 7.728 0 0 0-2.41-.877h-.006l-.04-.031a9.192 9.192 0 0 0-1.298-.133zm-.094 3.566c.225.006.483.036.75.078l.046.04c.449.081.879.238 1.276.46L90.203 18.2h.008l21.803 12.615.013.008 2.004 1.16c2.152 1.56 2.364 3.17 2.377 4.756.003.284 0 .567 0 .848V92.2c0 .22-.025.459-.07.727.009.132.032.263.07.39-.376.973-1.02 1.926-1.885 2.432L66.07 123.941c-.44.223-1.059.404-1.58.5a1.8 1.8 0 0 0-.086-.039c-.838.116-1.698-.06-2.486-.523h-.016L13.23 95.758l.04.015c-.268-.162-.492-.403-.727-.625a1.786 1.786 0 0 0-.242-.492c-.515-.71-.822-1.59-.822-2.457V35.82a1.695 1.695 0 0 0 0-.024 3.995 3.995 0 0 1 1.994-3.52l.039-.023a1.78 1.78 0 0 0 .304-.297L61.793 4.131l.062-.04c.592-.379 1.296-.543 2.08-.523z"/></svg>
