<svg xmlns="http://www.w3.org/2000/svg" viewBox="0 0 128 128"><path fill="#83CD29" d="M112.678 30.334l-44.143-25.605c-2.781-1.584-6.424-1.584-9.227 0l-44.488 25.605c-2.869 1.651-4.82 4.754-4.82 8.073v51.142c0 3.319 1.992 6.423 4.862 8.083l11.729 6.688c5.627 2.772 7.186 2.772 9.746 2.772 8.334 0 12.662-5.039 12.662-13.828v-50.49c.001-.713.446-1.774-.255-1.774h-5.622c-.712 0-2.122 1.061-2.122 1.773v50.49c0 3.896-3.616 7.773-10.202 4.48l-12.122-7.013c-.422-.23-.676-.693-.676-1.181v-51.142c0-.482.463-.966.891-1.213l44.378-25.561c.415-.235 1.002-.235 1.415 0l43.963 25.555c.421.253.354.722.354 1.219v51.142c0 .488.092.963-.323 1.198l-44.133 25.576c-.378.227-.87.227-1.285 0l-11.317-6.749c-.341-.198-.752-.269-1.08-.086-3.145 1.783-3.729 2.02-6.679 3.043-.727.253-1.799.692.408 1.929l14.798 8.754c1.416.82 3.027 1.246 4.647 1.246 1.642 0 3.249-.426 4.666-1.246l43.976-25.582c2.871-1.672 4.322-4.764 4.322-8.083v-51.142c-.001-3.319-1.452-6.414-4.323-8.073zM77.727 81.445c-11.727 0-14.309-3.235-15.17-9.066-.102-.628-.634-1.379-1.274-1.379h-5.73c-.709 0-1.28.86-1.28 1.566 0 7.466 4.06 16.512 23.454 16.512 14.038 0 22.088-5.455 22.088-15.109 0-9.572-6.467-12.084-20.082-13.886-13.762-1.819-15.16-2.738-15.16-5.962 0-2.658 1.184-6.203 11.374-6.203 9.104 0 12.46 1.954 13.841 8.091.119.577.646.991 1.241.991h5.754c.354 0 .691-.143.939-.396.241-.272.367-.613.336-.979-.893-10.569-7.913-15.494-22.112-15.494-12.632 0-20.166 5.334-20.166 14.275 0 9.698 7.497 12.378 19.622 13.577 14.505 1.422 15.633 3.542 15.633 6.395 0 4.956-3.978 7.067-13.308 7.067z"/></svg>