<svg xmlns="http://www.w3.org/2000/svg" viewBox="0 0 128 128"><path fill="#ff6905" fill-rule="evenodd" d="M57.122 0c-12.45 0-23.342 6.07-29.28 15.13l5.404 5.338c4.368-7.713 13.42-13.012 23.876-13.012 10.421 0 19.446 5.265 23.83 12.937l5.32-5.457C80.306 5.986 69.482 0 57.122 0Zm-.066 13.01c-9.106 0-16.982 4.306-20.736 10.558l5.393 5.326c2.077-4.852 8.161-8.366 15.343-8.366 7.253 0 13.389 3.585 15.405 8.512l5.333-5.472C74.04 17.315 66.164 13.01 57.056 13.01Zm-.204 13.13c-3.717 0-6.855 1.325-9.414 3.976-2.56 2.65-3.84 5.836-3.84 9.553 0 3.717 1.326 6.885 3.977 9.505 2.65 2.62 5.834 3.93 9.55 3.93 3.523 0 6.573-1.223 9.148-3.669l5.926 5.926a18.68 18.68 0 0 0-.925.894c-3.25 3.366-4.874 7.408-4.874 12.127 0 4.655 1.636 8.633 4.91 11.933l-5.795 5.794c-4.237-3.424-9.23-5.136-14.98-5.136-6.482 0-11.955 2.311-16.419 6.934s-6.694 10.177-6.694 16.66c0 6.483 2.311 12.008 6.934 16.577C38.98 125.714 44.531 128 51.014 128c6.377 0 11.863-2.299 16.459-6.895 4.596-4.597 6.895-10.109 6.895-16.538 0-5.965-1.894-11.103-5.682-15.413l6.087-6.087c2.612 1.584 5.546 2.376 8.803 2.376 4.642 0 8.636-1.673 11.982-5.02 3.347-3.346 5.02-7.36 5.02-12.04 0-4.797-1.682-8.859-5.048-12.186-3.365-3.327-7.466-4.99-12.301-4.99-2.987 0-5.679.674-8.077 2.022l-6.58-6.58c1.296-2.069 1.944-4.395 1.944-6.98 0-3.778-1.325-6.978-3.975-9.598-2.651-2.62-5.88-3.93-9.69-3.93zm.273 5.942c.945 0 1.882.212 2.811.639.93.427 1.728.991 2.399 1.691a6.99 6.99 0 0 1 1.554 2.376c.366.915.548 1.875.548 2.88 0 2.042-.708 3.802-2.125 5.28-1.417 1.477-3.145 2.216-5.187 2.216-2.163 0-3.944-.717-5.346-2.149-1.402-1.432-2.102-3.214-2.102-5.346 0-2.072.715-3.856 2.147-5.348 1.432-1.494 3.2-2.24 5.301-2.24zm26.45 26.67c1.2 0 2.39.27 3.57.811a9.858 9.858 0 0 1 3.046 2.147 8.87 8.87 0 0 1 1.973 3.018 9.743 9.743 0 0 1 .696 3.654c0 2.592-.898 4.826-2.697 6.703-1.799 1.876-3.996 2.814-6.587 2.814-2.747 0-5.01-.908-6.789-2.726-1.78-1.819-2.668-4.083-2.668-6.79 0-2.631.908-4.893 2.726-6.789s4.061-2.843 6.73-2.843zM51.015 91.334c1.647 0 3.282.372 4.902 1.116 1.62.744 3.016 1.728 4.185 2.95a12.184 12.184 0 0 1 2.71 4.144c.638 1.594.956 3.268.956 5.022 0 3.56-1.234 6.629-3.705 9.206-2.47 2.577-5.488 3.864-9.048 3.864-3.773 0-6.882-1.247-9.326-3.744-2.444-2.498-3.666-5.607-3.666-9.326 0-3.614 1.25-6.724 3.747-9.327 2.497-2.604 5.578-3.905 9.245-3.905z"/></svg>
