<svg xmlns="http://www.w3.org/2000/svg" viewBox="0 0 128 128">
    <path fill="#2E2B26" d="M4.813 65.445a.399.399 0 0 1-.395-.394v-5.653c0-.214.18-.394.394-.394h2.52c1.832 0 3.313 1.144 3.383 3.055-.07 1.953-1.55 3.386-3.363 3.386Zm-.81 5.817c.188 0 .407-.098.415-.27v-4.027c0-.215.18-.395.394-.395h3.051c2.332 0 4.262-1.797 4.262-4.25 0-.047-.008-.086-.008-.133 0-.046.008-.093.008-.132 0-2.418-1.93-4.2-4.281-4.2H3.473a.4.4 0 0 0-.403.395v12.59c0 .262.258.422.477.422Zm22.575-13.407h-7.746a.397.397 0 0 0-.398.395v12.59c0 .219.175.394.398.394h7.746a.396.396 0 0 0 .395-.394v-.266a.399.399 0 0 0-.395-.394h-6.387a.397.397 0 0 1-.398-.395v-4.484c0-.219.18-.395.398-.395h5.461c.215 0 .395-.18.395-.394v-.02c0-.043 0 0 .004-.101-.012-.13-.004-.106-.004-.145v-.02a.396.396 0 0 0-.395-.394h-5.46a.397.397 0 0 1-.399-.395v-4.113c0-.219.18-.394.398-.394h6.387a.396.396 0 0 0 .395-.395v-.285a.399.399 0 0 0-.395-.395m8.465 7.196a.4.4 0 0 1-.402-.395v-5.273c0-.223.18-.395.402-.395h3.125c1.789 0 3.055 1.137 3.129 2.848-.074 1.785-1.34 3.215-3.113 3.215Zm-.773 6.183c.218 0 .355-.113.355-.242V66.57c0-.215.176-.394.395-.394h3.144a.417.417 0 0 1 .313.199l2.59 4.633c.093.172.171.226.394.226h.992s.406 0 .09-.605l-2.535-4.442.02.032c-.122-.219.183-.32.183-.32 1.5-.485 2.66-2.317 2.598-4.118.046-1.433-.653-2.886-2.551-3.652-.098-.043-.723-.274-1.785-.274h-4.946a.235.235 0 0 0-.246.243V70.84c0 .219.18.394.399.394Zm16.246 0h.187c.192 0 .309-.113.309-.242v-5.191c0-.215.18-.387.394-.387h5.625c.29 0 .246-.34.246-.547v-.012c.004-.085 0-.18 0-.257a.25.25 0 0 0-.246-.246h-5.625a.393.393 0 0 1-.394-.391v-4.637c0-.219.18-.394.394-.394h6.403a.396.396 0 0 0 .394-.395v-.285a.399.399 0 0 0-.394-.395h-7.746a.4.4 0 0 0-.399.395v12.59c0 .219.18.394.398.394Zm13.777-8.515a5.76 5.76 0 0 1 .355-.762c-.132-.121-.464-.383-.445-.406 1.738-2.078 4-2.703 6.004-2.34.406.059.816.156 1.223.305 2.867 1.062 4.316 4.222 3.242 7.058a5.92 5.92 0 0 1-.387.805c.16.137.508.394.488.414-1.925 2.281-4.492 2.809-6.625 2.172a7.386 7.386 0 0 1-.617-.184c-2.86-1.066-4.316-4.226-3.238-7.062Zm9.777-4.864c-.363.348-.797.77-1.011.958a7.59 7.59 0 0 0-1.082-.5c-3.258-1.211-6.688.156-8.575 2.703-.988 1.457-1.574 3.254-1.43 5.105 0 0 .005 3.477 3.215 5.524.262-.36.594-.82.813-1.118.36.207.738.391 1.137.54 3.687 1.367 7.773-.38 9.11-3.899 0 0 .98-2.145.655-4.488 0 0-.25-3.164-2.832-4.825Zm10.121 7.196a.4.4 0 0 1-.398-.395v-5.273c0-.223.18-.395.398-.395h3.13c1.788 0 3.054 1.137 3.128 2.848-.074 1.785-1.34 3.215-3.113 3.215Zm-.77 6.183c.22 0 .356-.113.356-.242V66.57c0-.215.18-.394.395-.394h3.144a.417.417 0 0 1 .313.199l2.586 4.633c.097.172.172.226.398.226h.992s.407 0 .09-.605l-2.535-4.442.02.032c-.121-.219.183-.32.183-.32 1.5-.485 2.66-2.317 2.598-4.118.047-1.433-.652-2.886-2.55-3.652-.099-.043-.724-.274-1.786-.274H82.68a.235.235 0 0 0-.246.243V70.84c0 .219.175.394.398.394Zm26.669-2.691c.152.137.472.484.148.742-1.406 1.098-2.937 1.817-4.62 1.817-.083 0-.161-.004-.24-.012-.07.008-.14.012-.218.012-3.789 0-6.855-2.961-6.855-6.727 0-.047.004-.09.004-.133 0-.047-.004-.09-.004-.133 0-3.75 3.066-6.765 6.855-6.765.063 0 .113.004.168.004.098 0 .192-.004.29-.004 1.929 0 3.366.636 4.6 1.742.384.32.02.61.02.61l-.293.273c-.11.113-.422.36-.566.226a4.923 4.923 0 0 0-.219-.203l.219.203c-.18-.164-.094-.086-.219-.203a5.997 5.997 0 0 0-3.765-1.527 5.897 5.897 0 0 0-5.688 5.777 5.878 5.878 0 0 0 5.684 5.735c1.515-.059 2.683-.672 3.77-1.563 0 0 .464-.36.929.129m14.281-10.688h-7.746a.4.4 0 0 0-.402.395v12.59c0 .219.18.394.402.394h7.746a.397.397 0 0 0 .399-.394v-.266a.4.4 0 0 0-.399-.394h-6.387a.397.397 0 0 1-.398-.395v-4.484c0-.219.18-.395.398-.395h5.457c.22 0 .395-.18.395-.394v-.02c0-.043 0 0 .008-.101-.008-.13-.008-.106-.008-.145v-.02a.393.393 0 0 0-.395-.394h-5.457a.397.397 0 0 1-.398-.395v-4.113c0-.219.18-.394.398-.394h6.387a.397.397 0 0 0 .399-.395v-.285a.4.4 0 0 0-.399-.395"/>
</svg>
