<svg xmlns="http://www.w3.org/2000/svg" viewBox="0 0 128 128"><path fill="#005a9c" d="m.09 11.932 43.334 75.054L65.09 49.46l21.666-37.527H.09zm65 37.527 21.668 37.527 21.666-37.527 10.863-18.764-10.865-18.763L97.59 30.695 86.758 11.932 65.09 49.459zm-14.37 44.05v22.376h2.75v-3.055a6.372 6.372 0 0 0 2.434 2.389 7.37 7.37 0 0 0 3.766.937 7.537 7.537 0 0 0 6.832-4.142 9.512 9.512 0 0 0 1.03-4.475c0-1.693-.345-3.18-1.03-4.459a7.498 7.498 0 0 0-2.813-2.978 7.733 7.733 0 0 0-4.02-1.06 7.338 7.338 0 0 0-3.718.938 6.507 6.507 0 0 0-2.48 2.418V93.51h-2.75zm29.993 1.06a10.637 10.637 0 0 0-5.352 1.374 10.073 10.073 0 0 0-3.824 3.84 11.62 11.62 0 0 0 0 11.082 10.099 10.099 0 0 0 3.824 3.824 10.632 10.632 0 0 0 5.352 1.375 10.251 10.251 0 0 0 5.049-1.253 10.086 10.086 0 0 0 3.66-3.416 10.466 10.466 0 0 0 1.63-4.764v-2.115H79.716v2.238h8.406c-.222 2.097-.998 3.76-2.328 4.988-1.33 1.229-3.024 1.843-5.08 1.844a7.854 7.854 0 0 1-3.975-1.012 7.176 7.176 0 0 1-2.783-2.888c-.675-1.25-1.012-2.701-1.012-4.354s.337-3.11 1.012-4.37a7.159 7.159 0 0 1 2.783-2.902 7.858 7.858 0 0 1 3.975-1.013 7.293 7.293 0 0 1 3.87 1.013 6.559 6.559 0 0 1 2.54 2.858h3.295a9.517 9.517 0 0 0-3.764-4.688c-1.723-1.108-3.704-1.661-5.941-1.662zM.832 94.81l5.896 21.103 3.053-.03 5.08-16.962 4.899 16.963h3.084L28.95 94.81h-2.963l-4.627 17.81-4.836-17.81H13.44l-5.078 17.87-4.595-17.87H.832zm93.85 0v21.074h2.752v-8.8h4.05c2.46 0 4.29-.578 5.489-1.737 1.2-1.16 1.798-2.616 1.798-4.37 0-1.814-.62-3.296-1.859-4.445-1.24-1.149-3.05-1.723-5.428-1.723h-6.802zm17.445 0v13.302c0 1.754.349 3.23 1.045 4.43a6.548 6.548 0 0 0 2.842 2.676 9.728 9.728 0 0 0 8.072 0 6.644 6.644 0 0 0 2.857-2.676c.705-1.2 1.057-2.676 1.057-4.43V94.811h-2.75v13.333c0 1.875-.46 3.265-1.377 4.173-.917.907-2.182 1.36-3.795 1.36-1.632 0-2.907-.454-3.824-1.36-.917-.908-1.375-2.298-1.375-4.172V94.81h-2.752zm-14.693 2.267h4.05c2.983 0 4.475 1.3 4.475 3.9 0 1.23-.362 2.177-1.088 2.842-.726.665-1.855.998-3.387.998h-4.05v-7.74zM39.14 99.043a8.595 8.595 0 0 0-4.28 1.045 7.216 7.216 0 0 0-2.886 2.978c-.686 1.29-1.028 2.791-1.028 4.504 0 1.713.352 3.22 1.057 4.52a7.487 7.487 0 0 0 2.918 3.01 8.37 8.37 0 0 0 4.219 1.058c1.975 0 3.626-.5 4.957-1.498a7.124 7.124 0 0 0 2.662-3.885h-2.963a4.402 4.402 0 0 1-1.678 2.223c-.796.555-1.79.832-2.978.832a5.335 5.335 0 0 1-3.705-1.377c-1.018-.917-1.578-2.191-1.678-3.824h13.244a16.235 16.235 0 0 0 .09-1.662v-.002a8.346 8.346 0 0 0-.983-4.067 7.122 7.122 0 0 0-2.797-2.826 8.318 8.318 0 0 0-4.171-1.029zm-.121 2.328a5.894 5.894 0 0 1 2.644.59 4.525 4.525 0 0 1 1.89 1.723 5.078 5.078 0 0 1 .696 2.707h-10.46c.141-1.572.7-2.803 1.678-3.69a5.1 5.1 0 0 1 3.553-1.33zm20.076.06a5.65 5.65 0 0 1 2.826.727 5.238 5.238 0 0 1 2.04 2.115 6.74 6.74 0 0 1 .757 3.266 6.896 6.896 0 0 1-.756 3.31 5.316 5.316 0 0 1-2.041 2.147 5.558 5.558 0 0 1-2.826.742 5.5 5.5 0 0 1-2.797-.742 5.414 5.414 0 0 1-2.057-2.146 7.3 7.3 0 0 1 0-6.532 5.418 5.418 0 0 1 2.057-2.146 5.503 5.503 0 0 1 2.797-.74z"/></svg>
