<svg xmlns="http://www.w3.org/2000/svg" viewBox="0 0 128 128">
<path fill="#E0225C" d="M 109.265625 17.046875 C 97.203125 6.054688 81.160156 0 64.046875 0 C 28.773438 0.0195312 0.0585938 26.203125 0.03125 58.359375 L 0.0117188 68.242188 L 8.441406 63.007812 C 14.171875 59.449219 20.8125 57.566406 27.644531 57.566406 C 29.683594 57.566406 31.742188 57.738281 33.761719 58.074219 C 40.132812 59.128906 45.84375 61.757812 50.46875 65.707031 C 51.527344 63.578125 52.773438 61.511719 54.246094 59.539062 C 54.847656 58.738281 55.484375 57.957031 56.148438 57.195312 C 50.324219 52.710938 43.328125 49.695312 35.691406 48.429688 C 33.03125 47.988281 30.332031 47.765625 27.632812 47.765625 C 22.109375 47.757812 16.632812 48.695312 11.488281 50.527344 C 15.667969 27.195312 37.910156 9.820312 64.09375 9.800781 C 78.289062 9.800781 91.628906 14.835938 101.660156 23.976562 C 109.667969 31.269531 114.785156 40.390625 116.554688 50.449219 C 111.390625 48.613281 105.949219 47.671875 100.355469 47.652344 L 99.570312 47.648438 C 99.003906 47.65625 98.4375 47.671875 97.871094 47.699219 C 96.894531 47.742188 95.921875 47.824219 94.960938 47.925781 C 94.675781 47.953125 94.390625 47.996094 94.109375 48.03125 C 93.417969 48.117188 92.734375 48.210938 92.054688 48.324219 C 91.75 48.371094 91.453125 48.425781 91.152344 48.480469 C 90.464844 48.609375 89.777344 48.753906 89.097656 48.910156 C 88.851562 48.964844 88.605469 49.019531 88.363281 49.078125 C 87.507812 49.289062 86.65625 49.523438 85.816406 49.78125 C 85.765625 49.796875 85.714844 49.808594 85.664062 49.824219 C 83.773438 50.414062 81.925781 51.121094 80.136719 51.941406 C 80.089844 51.964844 80.042969 51.988281 79.992188 52.011719 C 79.160156 52.394531 78.339844 52.804688 77.535156 53.242188 L 77.335938 53.347656 C 73.09375 55.667969 69.324219 58.632812 66.1875 62.121094 C 66.058594 62.265625 65.925781 62.410156 65.796875 62.554688 C 65.109375 63.339844 64.4375 64.144531 63.808594 64.984375 C 63.160156 65.863281 62.546875 66.761719 61.972656 67.679688 C 61.535156 68.371094 61.117188 69.078125 60.726562 69.792969 C 60.703125 69.832031 60.679688 69.871094 60.660156 69.914062 C 59.757812 71.574219 58.984375 73.289062 58.339844 75.046875 L 58.339844 75.054688 C 56.765625 79.355469 56.003906 83.871094 56.085938 88.40625 C 56.089844 88.585938 56.089844 88.769531 56.09375 88.949219 C 56.105469 89.304688 56.125 89.660156 56.148438 90.015625 C 56.183594 90.597656 56.230469 91.179688 56.292969 91.761719 C 56.332031 92.125 56.378906 92.492188 56.429688 92.859375 C 56.460938 93.089844 56.488281 93.324219 56.527344 93.558594 C 56.621094 94.167969 56.730469 94.777344 56.855469 95.382812 C 59.023438 105.832031 65.484375 114.941406 75.046875 121.035156 L 76.269531 121.75 L 76.28125 121.726562 C 81.75 124.960938 87.933594 127.050781 94.390625 127.855469 L 95.265625 127.960938 L 101.75 118.476562 L 99.417969 118.417969 C 81.472656 117.96875 66.875 104.296875 66.875 87.9375 C 66.875 71.835938 80.683594 58.464844 98.308594 57.496094 L 99.421875 57.457031 C 106.566406 57.292969 113.605469 59.214844 119.582031 62.921875 L 127.96875 68.125 L 127.988281 58.292969 C 128 42.707031 121.351562 28.058594 109.265625 17.046875 "/>
</svg>
