<?xml version="1.0" encoding="UTF-8" standalone="no"?>
<svg
   xmlns:dc="http://purl.org/dc/elements/1.1/"
   xmlns:cc="http://creativecommons.org/ns#"
   xmlns:rdf="http://www.w3.org/1999/02/22-rdf-syntax-ns#"
   xmlns:svg="http://www.w3.org/2000/svg"
   xmlns="http://www.w3.org/2000/svg"
   xmlns:sodipodi="http://sodipodi.sourceforge.net/DTD/sodipodi-0.dtd"
   xmlns:inkscape="http://www.inkscape.org/namespaces/inkscape"
   viewBox="0 0 128 128"
   version="1.1"
   id="svg4"
   sodipodi:docname="codecov-plain.svg"
   inkscape:version="1.0.2-2 (e86c870879, 2021-01-15)">
  <metadata
     id="metadata10">
    <rdf:RDF>
      <cc:Work
         rdf:about="">
        <dc:format>image/svg+xml</dc:format>
        <dc:type
           rdf:resource="http://purl.org/dc/dcmitype/StillImage" />
      </cc:Work>
    </rdf:RDF>
  </metadata>
  <defs
     id="defs8" />
  <sodipodi:namedview
     pagecolor="#ffffff"
     bordercolor="#666666"
     borderopacity="1"
     objecttolerance="10"
     gridtolerance="10"
     guidetolerance="10"
     inkscape:pageopacity="0"
     inkscape:pageshadow="2"
     inkscape:window-width="1440"
     inkscape:window-height="748"
     id="namedview6"
     showgrid="false"
     inkscape:zoom="2.265625"
     inkscape:cx="87.034817"
     inkscape:cy="59.401612"
     inkscape:window-x="-6"
     inkscape:window-y="-6"
     inkscape:window-maximized="1"
     inkscape:current-layer="svg4"
     inkscape:document-rotation="0" />
  <path
     id="path872"
     d="M 64.046875,6.443365 C 28.773438,6.4628962 0.0585938,32.64649 0.03125,64.80274 3.5542759,67.200263 5.6423261,68.279305 8.4414062,69.451177 14.171875,65.892584 20.8125,64.009771 27.644531,64.009771 c 2.039063,0 4.097657,0.171875 6.117188,0.507813 6.371093,1.054687 17.527343,6.972656 22.152343,10.921875 1.058594,-2.128906 2.304688,-4.195312 3.777344,-6.167969 0.601562,-0.800781 1.238281,-1.582031 1.902344,-2.34375 C 55.769531,62.443366 43.328125,56.138677 35.691406,54.873053 33.03125,54.431646 30.332031,54.20899 27.632812,54.20899 c -5.523437,-0.0078 -11,0.929687 -16.144531,2.761719 4.179688,-23.332032 26.421875,-40.707032 52.605469,-40.726563 14.195312,0 27.535152,5.035157 37.56641,14.175781 8.00781,7.292969 13.125,16.414063 14.89453,26.472657 -5.16406,-1.835938 -10.60547,-2.777344 -16.19922,-2.796875 l -0.785158,-0.0039 c -0.566406,0.0078 -1.132812,0.02344 -1.699218,0.05078 -0.976563,0.04297 -1.949219,0.125 -2.910156,0.226562 -0.285157,0.02734 -0.570313,0.07031 -0.851563,0.105469 -0.691406,0.08594 -1.375,0.179688 -2.054687,0.292969 -0.304688,0.04687 -0.601563,0.101562 -0.902344,0.15625 -0.6875,0.128906 -1.375,0.273437 -2.054688,0.429687 -0.246094,0.05469 -0.492187,0.109375 -0.734375,0.167969 -0.855469,0.210937 -1.707031,0.445313 -2.546875,0.703125 -0.05078,0.01563 -0.101562,0.02734 -0.152344,0.04297 -1.890624,0.589843 -3.738281,1.296875 -5.527343,2.117187 -0.04687,0.02344 -0.09375,0.04687 -0.144531,0.07031 -0.832032,0.382812 -1.652344,0.792969 -2.457032,1.230469 l -0.199218,0.105468 c -4.242188,2.320313 -8.011719,5.285156 -11.148438,8.773438 -0.128906,0.144531 -0.261719,0.289062 -0.390625,0.433594 -0.6875,0.785156 -1.359375,1.589843 -1.988281,2.429687 -0.648438,0.878906 -1.261719,1.777344 -1.835938,2.695313 -0.4375,0.691406 -0.855468,1.398437 -1.246094,2.113281 -0.02344,0.03906 -0.04687,0.07813 -0.06641,0.121093 -0.902344,1.660157 -1.675781,3.375 -2.320312,5.132813 v 0.0078 c -1.574219,4.300781 -2.335938,8.816406 -2.253906,13.351562 0.0039,0.179688 0.0039,0.363281 0.0078,0.542969 0.01172,0.355469 0.03125,0.710937 0.05469,1.066406 0.03516,0.582031 0.08203,1.164063 0.144531,1.746094 0.03906,0.363281 0.08594,0.730469 0.136719,1.097656 0.03125,0.230469 0.05859,0.464844 0.09766,0.69922 0.09375,0.60937 0.203125,1.21875 0.328125,1.82422 1.55361,7.48811 5.387693,14.23519 10.912109,19.73047 2.01045,-3.03805 2.12101,-3.67253 4.155456,-9.4452 C 66.989333,106.78598 66.875,101.7819 66.875,94.380865 c 0,-16.101562 13.808594,-29.472656 31.433594,-30.441406 l 1.113281,-0.03906 c 7.144535,-0.164062 14.183595,1.757813 20.160155,5.464844 l 4.01758,-2.599609 4.38867,-2.029297 C 128.00003,49.150393 121.35156,34.501959 109.26562,23.49024 97.20312,12.498053 81.160156,6.443365 64.046875,6.443365 Z"
     sodipodi:nodetypes="cccsccccccccccccccccccccccccccccccccccccccccccsccccccc"
     style="fill:#e0225c;fill-opacity:1" />
</svg>
