<?xml version="1.0" encoding="UTF-8" standalone="no"?>
<svg
   width="128"
   height="128"
   viewBox="0 0 128 128"
   version="1.1"
   id="svg2"
   sodipodi:docname="Meson.svg"
   inkscape:version="1.3.2 (091e20e, 2023-11-25, custom)"
   xmlns:inkscape="http://www.inkscape.org/namespaces/inkscape"
   xmlns:sodipodi="http://sodipodi.sourceforge.net/DTD/sodipodi-0.dtd"
   xmlns="http://www.w3.org/2000/svg"
   xmlns:svg="http://www.w3.org/2000/svg"
   xmlns:rdf="http://www.w3.org/1999/02/22-rdf-syntax-ns#"
   xmlns:cc="http://creativecommons.org/ns#"
   xmlns:dc="http://purl.org/dc/elements/1.1/">
  <defs
     id="defs2" />
  <sodipodi:namedview
     id="namedview2"
     pagecolor="#ffffff"
     bordercolor="#111111"
     borderopacity="1"
     inkscape:showpageshadow="0"
     inkscape:pageopacity="0"
     inkscape:pagecheckerboard="1"
     inkscape:deskcolor="#d1d1d1"
     inkscape:zoom="4.2592135"
     inkscape:cx="62.100667"
     inkscape:cy="50.126625"
     inkscape:window-width="1920"
     inkscape:window-height="1009"
     inkscape:window-x="-8"
     inkscape:window-y="-8"
     inkscape:window-maximized="1"
     inkscape:current-layer="svg2" />
  <title
     id="title1">file_type_meson</title>
  <path
     d="m 63.858286,128 v 0 C 33.897143,127.87657 0,111.72571 0,111.72571 1.952,34.624 59.058286,2.7062857 63.84,0.1691429 V 0 L 64,0.0914286 64.16,0 v 0.1828571 c 4.781714,2.56 61.888,34.4594289 63.84,111.5565729 0,0 -34.116571,16.26057 -64.141714,16.26057 z"
     style="fill:#39207c;stroke-width:4.57143"
     id="path1" />
  <path
     d="m 72.228571,96.457143 c 2.916572,1.613717 2.592,6.139427 2.592,6.139427 C 47.282286,106.79771 40.48,67.369143 40.48,67.369143 A 4.1142857,4.1142857 0 0 1 34.326857,65.755429 C 45.014857,38.354286 81.947429,53.152 81.947429,53.152 79.922286,50.477714 86.157714,48.406857 86.157714,48.406857 104.29714,70.578286 72.228571,96.457143 72.228571,96.457143 Z"
     style="fill:#f7f7f7;stroke-width:4.57143"
     id="path2" />
  <metadata
     id="metadata2">
    <rdf:RDF>
      <cc:Work
         rdf:about="">
        <dc:title>file_type_meson</dc:title>
      </cc:Work>
    </rdf:RDF>
  </metadata>
</svg>
