<svg xmlns="http://www.w3.org/2000/svg" viewBox="0 0 128 128"><path d="M111.477 78.168V49.832h5.359v23.586H128v4.75zm-17.78.487q-2.802 0-5.075-.933-2.274-.934-3.898-2.802-1.583-1.867-2.476-4.587-.893-2.72-.893-6.333 0-3.572.893-6.292.893-2.761 2.476-4.628 1.624-1.868 3.898-2.802 2.273-.933 5.074-.933 2.801 0 5.075.933 2.273.934 3.897 2.802 1.624 1.867 2.476 4.628.893 2.72.893 6.292 0 3.613-.893 6.333-.852 2.72-2.476 4.587-1.624 1.868-3.897 2.802-2.274.933-5.075.933zm0-4.75q3.044 0 4.83-2.03 1.827-2.03 1.827-5.683v-4.384q0-3.654-1.827-5.684-1.786-2.03-4.83-2.03-3.046 0-4.872 2.03-1.787 2.03-1.787 5.684v4.384q0 3.654 1.787 5.684 1.826 2.03 4.871 2.03zm-38.04-24.073H68.77q1.746 0 3.126.528 1.42.527 2.395 1.461.974.934 1.462 2.314.527 1.34.527 2.964 0 1.623-.446 2.76-.406 1.096-1.137 1.827-.69.73-1.624 1.096-.893.365-1.867.406v.244q.934 0 1.989.365 1.096.365 1.99 1.177.933.772 1.542 2.03.609 1.218.609 3.045 0 1.705-.569 3.207-.527 1.461-1.502 2.558-.974 1.096-2.314 1.745-1.34.61-2.922.61H55.657zm5.36 23.79h7.469q1.543 0 2.395-.772.853-.812.853-2.314v-1.38q0-1.502-.853-2.314-.852-.812-2.395-.812h-7.47zm0-11.977h6.616q1.462 0 2.274-.77.812-.813.812-2.234v-1.258q0-1.421-.812-2.192-.812-.812-2.274-.812h-6.617zm-23.14 17.01q-2.802 0-5.075-.933-2.274-.934-3.897-2.802-1.584-1.867-2.477-4.587-.893-2.72-.893-6.333 0-3.572.893-6.292.893-2.761 2.477-4.628 1.623-1.868 3.897-2.802 2.273-.933 5.074-.933t5.075.933q2.273.934 3.897 2.802 1.624 1.867 2.476 4.628.894 2.72.894 6.292 0 3.613-.894 6.333-.852 2.72-2.476 4.587-1.624 1.868-3.897 2.802-2.274.933-5.075.933zm0-4.75q3.044 0 4.83-2.03 1.827-2.03 1.827-5.683v-4.384q0-3.654-1.827-5.684-1.786-2.03-4.83-2.03t-4.872 2.03q-1.787 2.03-1.787 5.684v4.384q0 3.654 1.787 5.684 1.827 2.03 4.871 2.03zm-25.658 4.75q-2.8 0-5.074-.893-2.233-.934-3.857-2.76-1.583-1.827-2.435-4.507Q0 67.775 0 64.203t.853-6.333q.852-2.801 2.435-4.669 1.624-1.908 3.857-2.882 2.273-.974 5.074-.974 3.817 0 6.333 1.624 2.517 1.623 4.02 4.912l-4.588 2.436q-.609-1.908-1.99-3.045-1.38-1.177-3.775-1.177-3.004 0-4.79 2.03-1.746 2.03-1.746 5.683v4.465q0 3.695 1.746 5.684 1.786 1.948 4.79 1.948 2.396 0 3.898-1.299 1.542-1.299 2.232-3.207l4.344 2.558q-1.542 3.166-4.1 4.953-2.557 1.745-6.374 1.745z" style="white-space:pre"/></svg>
