<svg xmlns="http://www.w3.org/2000/svg" viewBox="0 0 128 128"><defs><clipPath id="a"><path d="M12.21 0H109v93.402H12.21Zm0 0"/></clipPath><clipPath id="b"><path d="M13.207 14.113H116V84.34H13.207Zm0 0"/></clipPath></defs><path d="M88.105 92.762c-.52 0-.98.097-1.378.289a2.96 2.96 0 0 0-.993.777c-.265.32-.472.7-.617 1.129-.148.43-.23.883-.246 1.34h6.293c.023-1.102-.223-1.969-.742-2.598-.52-.625-1.293-.937-2.317-.937Zm-37.601-1.403h6.61a.7.7 0 0 1 .25.04.385.385 0 0 1 .183.128.589.589 0 0 1 .125.23c.031.09.043.208.043.352v.407c0 .12-.008.23-.024.332a1.84 1.84 0 0 1-.078.297 1.63 1.63 0 0 1-.14.316c-.059.11-.133.23-.215.367l-5.063 7.867h5.407c.066 0 .128.008.183.04a.354.354 0 0 1 .145.148c.039.066.07.156.097.273a2.409 2.409 0 0 1 0 .824 1.741 1.741 0 0 1-.093.286.29.29 0 0 1-.141.148.476.476 0 0 1-.191.047h-7.098a.577.577 0 0 1-.441-.18c-.118-.117-.176-.316-.176-.601v-.43c0-.117.011-.223.023-.316a1.41 1.41 0 0 1 .082-.278c.028-.094.078-.195.14-.304.056-.106.134-.223.216-.36l5.09-7.863h-4.934c-.137 0-.25-.07-.328-.211-.082-.14-.125-.367-.125-.68 0-.156.011-.289.027-.402a.83.83 0 0 1 .086-.277.347.347 0 0 1 .14-.157.441.441 0 0 1 .2-.043Zm11.598-.062c.203 0 .375.008.511.016.133.015.246.039.325.078.085.039.14.082.175.132.032.043.051.102.051.168v6.668c0 .668.047 1.207.145 1.606.101.402.25.75.453 1.035.199.281.453.5.761.66.309.156.668.235 1.075.235.53 0 1.058-.188 1.582-.563.527-.367 1.086-.918 1.675-1.637v-8.004c0-.066.012-.125.043-.168a.393.393 0 0 1 .172-.132c.09-.04.196-.063.328-.079a7.571 7.571 0 0 1 1.032 0c.136.016.242.04.324.079.074.039.133.082.172.132a.263.263 0 0 1 .054.168v11.45a.34.34 0 0 1-.043.171.328.328 0 0 1-.164.122 1.01 1.01 0 0 1-.3.078 3.674 3.674 0 0 1-.45.023c-.199 0-.359-.008-.484-.023a1.015 1.015 0 0 1-.297-.078.311.311 0 0 1-.144-.121.328.328 0 0 1-.04-.172v-1.512c-.656.719-1.304 1.246-1.949 1.574-.64.332-1.285.5-1.945.5-.77 0-1.418-.129-1.941-.387a3.309 3.309 0 0 1-1.278-1.035 4.295 4.295 0 0 1-.699-1.523c-.14-.582-.21-1.29-.21-2.121V91.69c0-.066.019-.125.046-.168.027-.05.086-.093.176-.132.082-.04.195-.063.332-.079.168-.011.34-.015.512-.015Zm26.117-.18c.902 0 1.672.145 2.308.434.637.289 1.16.676 1.57 1.16.41.492.716 1.062.903 1.723.195.656.29 1.359.29 2.105v.379c0 .332-.087.566-.25.71a.879.879 0 0 1-.575.208H84.87c0 .637.063 1.207.192 1.715.128.511.343.949.644 1.312.3.367.691.645 1.176.84.476.195 1.066.293 1.758.293.55 0 1.043-.047 1.472-.133.426-.09.801-.191 1.114-.3.261-.09.52-.188.77-.297.202-.09.355-.133.46-.133a.29.29 0 0 1 .16.043.288.288 0 0 1 .11.133c.027.062.043.14.058.25.012.105.016.234.016.386a2.38 2.38 0 0 1-.043.5.556.556 0 0 1-.176.32c-.05.047-.187.126-.422.231-.23.106-.527.207-.894.313-.418.109-.844.199-1.274.27a9.307 9.307 0 0 1-1.543.124c-.953 0-1.781-.133-2.496-.394-.715-.266-1.316-.653-1.8-1.172-.489-.52-.856-1.168-1.102-1.946-.25-.78-.375-1.691-.375-2.726 0-.985.129-1.867.386-2.653.258-.78.63-1.449 1.11-1.996a4.816 4.816 0 0 1 1.75-1.257c.683-.293 1.445-.442 2.297-.442Zm-8.285 0c.109 0 .238.008.382.02.149.015.293.039.442.07.148.035.293.07.414.117.125.043.21.082.262.125a.304.304 0 0 1 .101.121c.02.035.031.086.047.145.012.058.02.148.023.262.004.117.012.27.012.464 0 .188-.008.34-.015.47-.008.128-.028.23-.051.3a.435.435 0 0 1-.098.164c-.035.04-.09.059-.16.059a.708.708 0 0 1-.25-.059 8.466 8.466 0 0 0-.336-.113 7.131 7.131 0 0 0-.414-.106c-.152-.039-.32-.05-.5-.05-.215 0-.422.039-.629.124a2.426 2.426 0 0 0-.644.418 5.34 5.34 0 0 0-.715.782c-.246.32-.516.71-.817 1.18v7.53c0 .067-.02.126-.05.172a.405.405 0 0 1-.168.122 1.06 1.06 0 0 1-.325.078 4.658 4.658 0 0 1-.52.023c-.206 0-.374-.008-.515-.023a1.124 1.124 0 0 1-.324-.078.323.323 0 0 1-.168-.121.325.325 0 0 1-.047-.172V91.69c0-.066.016-.125.04-.168a.339.339 0 0 1 .155-.132.88.88 0 0 1 .293-.079 6.31 6.31 0 0 1 .942 0c.125.016.222.04.289.079.07.039.117.082.148.132a.315.315 0 0 1 .047.168v1.668c.313-.46.61-.832.887-1.12.281-.29.539-.512.789-.68a2.46 2.46 0 0 1 .738-.348c.242-.063.489-.094.735-.094Zm-38.79-1.933-2.859 8.21h5.77l-2.899-8.21Zm.083-2.262c.27 0 .5.004.675.016.18.011.32.035.438.07.11.035.195.086.258.144a.747.747 0 0 1 .136.239l5.563 15.289c.07.191.105.343.11.453.003.117-.028.203-.098.262-.067.062-.18.101-.34.117-.211.015-.422.023-.633.023-.266 0-.477-.004-.633-.02a1.742 1.742 0 0 1-.36-.058.452.452 0 0 1-.179-.125.885.885 0 0 1-.113-.191l-1.418-4.008h-6.895l-1.36 3.96a.776.776 0 0 1-.1.196.514.514 0 0 1-.188.14c-.082.04-.2.067-.344.083a7.32 7.32 0 0 1-.582.023c-.25 0-.453-.008-.613-.031-.153-.024-.27-.063-.332-.125-.067-.055-.094-.14-.086-.254.004-.117.039-.266.105-.453l5.563-15.297a.616.616 0 0 1 .136-.227.53.53 0 0 1 .243-.14c.105-.035.242-.059.406-.07.168-.012.383-.02.64-.02Zm69.82 33.644v5.801h3.195a4.42 4.42 0 0 0 1.317-.176c.379-.12.707-.296.992-.53.289-.231.508-.524.672-.868.164-.352.242-.754.242-1.215 0-.488-.078-.922-.238-1.297a2.45 2.45 0 0 0-.688-.941c-.3-.25-.684-.445-1.14-.574-.454-.133-1.028-.2-1.72-.2Zm-37.723-2.976c-.629 0-1.168.11-1.62.332-.446.21-.833.531-1.118.933a4.209 4.209 0 0 0-.656 1.434 7.24 7.24 0 0 0-.211 1.805c0 .62.054 1.215.176 1.77.113.546.308 1.03.578 1.44.273.41.636.735 1.093.977.457.246 1.028.364 1.707.364.622 0 1.16-.11 1.618-.332a2.898 2.898 0 0 0 1.12-.926c.298-.395.512-.875.65-1.422.14-.555.206-1.16.206-1.824 0-.614-.058-1.204-.172-1.758a4.461 4.461 0 0 0-.574-1.445 2.958 2.958 0 0 0-1.09-.989c-.457-.242-1.027-.36-1.707-.36Zm-44.953 0c-.629 0-1.168.11-1.621.332-.445.21-.832.531-1.117.933a4.136 4.136 0 0 0-.656 1.434 7.235 7.235 0 0 0-.215 1.805c0 .62.058 1.215.175 1.77.118.546.313 1.03.583 1.44.27.41.636.735 1.093.977.457.246 1.028.364 1.707.364.621 0 1.16-.11 1.617-.332a2.898 2.898 0 0 0 1.122-.926c.293-.395.511-.875.648-1.422a7.6 7.6 0 0 0 .207-1.824c0-.614-.059-1.204-.176-1.758a4.293 4.293 0 0 0-.574-1.445 2.887 2.887 0 0 0-1.086-.989c-.457-.242-1.027-.36-1.707-.36Zm57.559-1.758c.304 0 .617.027.922.074.308.055.582.117.832.192.246.078.457.16.636.246.172.094.305.168.399.238a.737.737 0 0 1 .176.18c.03.047.054.11.066.172.008.062.023.14.035.234a2.688 2.688 0 0 1 0 .715.83.83 0 0 1-.062.262.366.366 0 0 1-.11.152.227.227 0 0 1-.14.039c-.079 0-.188-.043-.332-.137a4.581 4.581 0 0 0-.563-.3 6.653 6.653 0 0 0-.816-.297 3.72 3.72 0 0 0-1.07-.141c-.36 0-.676.043-.946.121-.273.082-.5.191-.676.344a1.435 1.435 0 0 0-.394.531 1.532 1.532 0 0 0-.137.656c0 .332.086.614.254.832.172.227.394.426.668.594.297.18.61.336.933.461.352.133.711.273 1.07.422.368.14.727.3 1.079.48.344.172.66.391.941.653.282.257.504.566.66.914.168.355.25.777.25 1.27 0 .585-.109 1.105-.324 1.562a3.197 3.197 0 0 1-.93 1.16 4.25 4.25 0 0 1-1.433.71 6.485 6.485 0 0 1-1.836.243c-.41 0-.8-.027-1.172-.094a6.242 6.242 0 0 1-1-.246 4.772 4.772 0 0 1-.75-.3 2.385 2.385 0 0 1-.45-.286.833.833 0 0 1-.206-.355 2.648 2.648 0 0 1-.063-.63c0-.132.008-.269.028-.401.02-.11.035-.204.062-.27a.285.285 0 0 1 .11-.144.332.332 0 0 1 .16-.047c.094 0 .234.058.418.171.183.118.41.243.68.38.269.136.585.257.953.374.37.11.789.168 1.27.168.358 0 .683-.035.972-.109.293-.082.543-.191.758-.344.207-.14.378-.336.496-.558.113-.23.172-.508.172-.82 0-.325-.086-.594-.254-.813a2.312 2.312 0 0 0-.66-.586 5.258 5.258 0 0 0-.918-.45c-.348-.128-.696-.273-1.06-.417a10.92 10.92 0 0 1-1.066-.489 4.012 4.012 0 0 1-.93-.668c-.277-.27-.5-.59-.66-.94-.163-.364-.245-.802-.245-1.31 0-.453.09-.882.261-1.293.176-.41.438-.769.785-1.078.352-.312.79-.558 1.317-.75.527-.183 1.137-.277 1.84-.277Zm-12.524 0c.953 0 1.778.14 2.485.422a4.493 4.493 0 0 1 1.761 1.219c.47.535.82 1.187 1.055 1.949.234.758.352 1.621.352 2.582 0 .93-.125 1.793-.371 2.574-.25.785-.618 1.461-1.11 2.031a4.996 4.996 0 0 1-1.844 1.329c-.738.32-1.597.476-2.57.476-.945 0-1.773-.14-2.477-.418a4.513 4.513 0 0 1-1.761-1.223c-.473-.535-.824-1.183-1.055-1.945-.23-.762-.344-1.629-.344-2.598 0-.93.118-1.789.368-2.574.242-.785.609-1.46 1.101-2.027a5.031 5.031 0 0 1 1.836-1.328c.734-.309 1.594-.469 2.574-.469Zm-20.207 0c.477 0 .906.059 1.285.168.383.11.715.266 1.008.465.285.191.535.43.742.707a4.2 4.2 0 0 1 .512.926c.387-.418.75-.77 1.094-1.059.351-.289.683-.523 1-.7.324-.175.633-.304.937-.382.301-.086.606-.125.918-.125.742 0 1.367.129 1.871.39.504.255.91.602 1.223 1.036.313.433.535.937.668 1.52.133.581.2 1.195.2 1.835v7.242c0 .07-.02.125-.055.172a.415.415 0 0 1-.168.121 1.364 1.364 0 0 1-.32.079 4.48 4.48 0 0 1-.512.027 4.6 4.6 0 0 1-.524-.027 1.56 1.56 0 0 1-.328-.079.381.381 0 0 1-.172-.12.272.272 0 0 1-.05-.173v-6.957c0-.488-.048-.925-.13-1.324a3.033 3.033 0 0 0-.41-1.031 1.926 1.926 0 0 0-.718-.664 2.222 2.222 0 0 0-1.024-.23c-.488 0-.976.187-1.469.562-.488.371-1.03.922-1.617 1.644v8c0 .07-.02.125-.055.172a.431.431 0 0 1-.171.121 1.56 1.56 0 0 1-.329.079 4.533 4.533 0 0 1-1.015 0 1.433 1.433 0 0 1-.34-.079c-.078-.035-.133-.074-.16-.12a.297.297 0 0 1-.047-.173v-6.957c0-.488-.047-.925-.14-1.324a3.127 3.127 0 0 0-.426-1.031 1.955 1.955 0 0 0-.707-.664 2.21 2.21 0 0 0-1.024-.23c-.484 0-.976.187-1.473.562-.496.371-1.03.922-1.613 1.644v8c0 .07-.015.125-.05.172a.444.444 0 0 1-.169.121c-.074.032-.18.059-.316.079a4.786 4.786 0 0 1-1.043 0 1.667 1.667 0 0 1-.328-.079c-.078-.035-.137-.074-.16-.12a.305.305 0 0 1-.051-.173v-11.449a.32.32 0 0 1 .039-.172.383.383 0 0 1 .156-.129.823.823 0 0 1 .297-.074c.117-.015.274-.02.473-.02.187 0 .34.005.465.02a.76.76 0 0 1 .293.074.43.43 0 0 1 .144.13.288.288 0 0 1 .043.171v1.516c.652-.723 1.281-1.254 1.89-1.586.61-.336 1.231-.504 1.856-.504Zm-12.484 0c.305 0 .617.027.922.074.308.055.582.117.832.192.246.078.46.16.636.246.172.094.305.168.399.238a.737.737 0 0 1 .176.18c.03.047.054.11.066.172.008.062.024.14.035.234.016.094.024.207.024.344 0 .148-.008.27-.024.37a.83.83 0 0 1-.062.263.366.366 0 0 1-.11.152.227.227 0 0 1-.14.039c-.074 0-.188-.043-.332-.137a4.314 4.314 0 0 0-.563-.3 6.822 6.822 0 0 0-.812-.297 3.749 3.749 0 0 0-1.075-.141 3.43 3.43 0 0 0-.945.121c-.273.082-.5.191-.672.344a1.445 1.445 0 0 0-.398.531 1.532 1.532 0 0 0-.137.656c0 .332.086.614.254.832.176.227.395.426.668.594.3.18.61.336.938.461.347.133.707.273 1.07.422.363.14.722.3 1.074.48.344.172.66.391.941.653.282.257.504.566.66.914.169.355.255.777.255 1.27 0 .585-.114 1.105-.329 1.562-.21.453-.53.851-.93 1.16a4.25 4.25 0 0 1-1.433.71 6.485 6.485 0 0 1-1.836.243c-.41 0-.797-.027-1.168-.094a6.14 6.14 0 0 1-1-.246 4.667 4.667 0 0 1-.754-.3 2.21 2.21 0 0 1-.445-.286.725.725 0 0 1-.203-.355 2.27 2.27 0 0 1-.067-.63c0-.16.008-.296.024-.401.02-.11.043-.204.062-.27.028-.066.063-.117.114-.144a.317.317 0 0 1 .156-.047c.094 0 .234.058.418.171.184.118.41.243.68.38.27.136.586.257.953.374.37.11.793.168 1.27.168.359 0 .687-.035.972-.109.293-.082.543-.191.758-.344.21-.14.379-.336.496-.558.113-.23.172-.508.172-.82 0-.325-.086-.594-.254-.813a2.347 2.347 0 0 0-.656-.586 5.434 5.434 0 0 0-.922-.45c-.344-.128-.696-.273-1.059-.417a10.92 10.92 0 0 1-1.066-.489 4.012 4.012 0 0 1-.93-.668c-.273-.27-.5-.59-.66-.94-.16-.364-.246-.802-.246-1.31 0-.453.09-.882.261-1.293.176-.41.438-.769.786-1.078.351-.312.789-.558 1.316-.75.527-.183 1.137-.277 1.84-.277Zm-12.262 0c.95 0 1.777.14 2.48.422.708.277 1.29.683 1.766 1.219.469.535.817 1.187 1.055 1.949.234.758.351 1.621.351 2.582 0 .93-.125 1.793-.37 2.574a5.769 5.769 0 0 1-1.106 2.031 5.043 5.043 0 0 1-1.848 1.329c-.738.32-1.597.476-2.57.476-.945 0-1.773-.14-2.477-.418a4.527 4.527 0 0 1-1.765-1.223c-.469-.535-.82-1.183-1.051-1.945-.23-.762-.344-1.629-.344-2.598 0-.93.117-1.789.363-2.574.243-.785.61-1.46 1.102-2.027.488-.57 1.106-1.008 1.84-1.328.734-.309 1.594-.469 2.574-.469Zm66.496-2.3v12.808h2.27c1.058 0 1.949-.133 2.676-.395a4.489 4.489 0 0 0 1.82-1.207c.484-.543.851-1.222 1.097-2.043.243-.82.364-1.789.364-2.906 0-.89-.114-1.719-.332-2.488a5.355 5.355 0 0 0-1.047-1.989 4.772 4.772 0 0 0-1.8-1.312c-.727-.313-1.665-.469-2.806-.469Zm16.098-.04v5.332h2.504c.57 0 1.031-.078 1.379-.226.351-.149.644-.344.875-.594.23-.254.402-.555.504-.879a3.46 3.46 0 0 0 .156-1.043c0-.39-.055-.754-.168-1.078a1.918 1.918 0 0 0-.52-.817c-.238-.226-.55-.398-.933-.519-.387-.121-.89-.176-1.524-.176Zm-1.371-1.781h3.765c.989 0 1.805.094 2.438.281.633.184 1.16.453 1.578.813.426.355.742.793.957 1.308.211.52.324 1.102.324 1.758 0 .39-.05.762-.144 1.121-.09.344-.23.676-.414.985a3.341 3.341 0 0 1-.696.804c-.285.246-.609.446-.957.59.457.086.88.238 1.27.465.394.223.746.512 1.031.86.297.343.527.75.7 1.218.171.465.257.98.257 1.543 0 .512-.066.988-.2 1.43a4.187 4.187 0 0 1-.558 1.175 3.996 3.996 0 0 1-.863.915c-.34.265-.719.484-1.14.66-.438.183-.891.32-1.36.402-.48.09-1.035.133-1.656.133h-4.332a.934.934 0 0 1-.559-.195c-.176-.133-.262-.364-.262-.696v-14.68c0-.331.086-.562.262-.695a.91.91 0 0 1 .559-.195Zm-16.114 0h3.758c1.434 0 2.645.184 3.637.55.992.372 1.824.903 2.492 1.594.672.688 1.18 1.528 1.528 2.512.343.98.515 2.094.515 3.332 0 1.426-.18 2.672-.547 3.735-.367 1.066-.902 1.945-1.613 2.644-.703.7-1.566 1.227-2.594 1.57-1.023.352-2.246.524-3.66.524h-3.516a.943.943 0 0 1-.558-.195c-.172-.133-.258-.364-.258-.696v-14.68c0-.331.086-.562.258-.695a.918.918 0 0 1 .558-.195Zm-77.64-.207c.48 0 .941.043 1.394.137.457.09.872.199 1.258.336.383.136.727.293 1.024.468.297.184.507.328.62.438.118.117.192.207.227.262a.77.77 0 0 1 .082.214c.024.079.043.176.051.286a3.494 3.494 0 0 1-.004.824c-.02.12-.047.222-.078.3a.448.448 0 0 1-.121.176.256.256 0 0 1-.172.059c-.125 0-.289-.082-.508-.246a7.451 7.451 0 0 0-.832-.547c-.336-.2-.75-.383-1.234-.547-.484-.164-1.067-.25-1.746-.25-.738 0-1.41.148-2.012.441-.61.29-1.125.72-1.555 1.29-.43.566-.765 1.261-1 2.082-.234.816-.355 1.753-.355 2.804 0 1.043.117 1.965.344 2.77.226.8.55 1.469.976 2.008.426.539.946.949 1.567 1.222.617.274 1.316.41 2.101.41.66 0 1.239-.078 1.73-.238.497-.164.915-.34 1.266-.543.344-.2.633-.383.856-.539.222-.16.394-.246.527-.246a.33.33 0 0 1 .156.04.32.32 0 0 1 .102.147c.027.075.043.172.059.301.011.13.015.285.015.48 0 .137-.004.259-.012.36-.007.09-.02.18-.043.266a.775.775 0 0 1-.085.203c-.032.062-.094.129-.176.219-.086.082-.266.21-.54.386a7.046 7.046 0 0 1-1.019.512c-.406.16-.87.3-1.398.418a8.156 8.156 0 0 1-1.723.168c-1.074 0-2.047-.176-2.914-.535a5.872 5.872 0 0 1-2.219-1.574c-.61-.696-1.078-1.555-1.41-2.575-.328-1.023-.492-2.199-.492-3.53 0-1.368.18-2.587.531-3.657.356-1.067.856-1.973 1.496-2.711a6.29 6.29 0 0 1 2.297-1.7c.895-.39 1.887-.59 2.969-.59Zm0 0" style="stroke:none;fill-rule:evenodd;fill:#59b3d8;fill-opacity:1" transform="matrix(.99677 0 0 .99677 .028 0)"/><g clip-path="url(#a)" transform="matrix(.99677 0 0 .99677 .028 0)"><path d="M97.973 41.777C102.41 59.734 91.14 77.82 72.8 82.164 54.465 86.512 36 75.477 31.566 57.508c-4.437-17.961 6.836-36.047 25.172-40.39l.063-.016c18.246-4.372 36.66 6.582 41.117 24.457ZM59.938 63.023c-.012-4.906-4.086-8.878-9.098-8.867h-1.375c1.168-4.75-1.817-9.52-6.66-10.66a9.143 9.143 0 0 0-2.188-.246h-9.433c-2.036 10.281 1.011 20.906 8.222 28.645h11.43c5.016.007 9.09-3.961 9.102-8.872ZM71.203 26.25c0 .516.067 1.035.203 1.54H67.48c-5.207 0-9.425 4.136-9.425 9.233 0 5.102 4.218 9.235 9.425 9.235h31.223c-1.02-11.031-7.664-20.809-17.664-25.985H77.32c-3.375 0-6.11 2.672-6.117 5.977Zm27.504 26.875H80.078c-4.246-.016-7.7 3.348-7.715 7.508 0 1.254.317 2.48.93 3.574-4.047 1.238-6.297 5.457-5.031 9.418 1 3.145 3.988 5.285 7.351 5.273h5.196c9.945-5.168 16.652-14.816 17.898-25.773ZM26.516 27.359a1.026 1.026 0 0 1-.735-.289 1.028 1.028 0 0 1-.316-.726v-.008c-.012-6.45-5.36-11.672-11.95-11.664a1.035 1.035 0 0 1-1.042-1.02c0-.562.468-1.023 1.043-1.023 6.582.004 11.921-5.203 11.949-11.645.031-.57.52-1.007 1.094-.984h.003c.54.02.973.445 1.004.984.012 6.45 5.364 11.672 11.95 11.664.578 0 1.047.457 1.047 1.02 0 .566-.47 1.027-1.043 1.027-6.586-.008-11.938 5.203-11.954 11.657a1.04 1.04 0 0 1-1.05 1.007Zm73.703 65.754a.615.615 0 0 1-.621-.61c-.02-3.855-3.22-6.976-7.157-6.968a.617.617 0 0 1-.62-.605c0-.336.277-.606.617-.606h.003c3.934 0 7.13-3.117 7.149-6.972 0-.336.277-.618.62-.614h.005c.164 0 .324.063.441.176a.618.618 0 0 1 .184.438c.02 3.855 3.21 6.972 7.148 6.972a.613.613 0 0 1 .621.602c0 .34-.277.613-.613.61h-.008c-3.937-.005-7.133 3.116-7.148 6.976a.616.616 0 0 1-.621.601Zm0 0" style="stroke:none;fill-rule:evenodd;fill:#59b3d8;fill-opacity:1"/></g><g clip-path="url(#b)" transform="matrix(.99677 0 0 .99677 .028 0)"><path d="M114.531 19.531c-3.261-5.23-11.457-6.437-23.676-3.508a98.834 98.834 0 0 0-11.226 3.508 34.844 34.844 0 0 1 6.613 4.14c2.078-.671 4.121-1.273 6.067-1.737a43.614 43.614 0 0 1 9.968-1.383c4.004 0 6.215.969 6.953 2.148 1.207 1.938.098 7.055-7.015 15.102-1.266 1.43-2.684 2.883-4.184 4.336A141.808 141.808 0 0 1 72.305 61.46a142.531 142.531 0 0 1-29.348 13.691c-12.379 3.946-20.828 3.868-22.723.836-1.894-3.031 1.895-10.437 11.133-19.433a32.474 32.474 0 0 1-.762-7.793c-14.703 13.023-19.46 24.297-15.664 30.394 1.993 3.188 6.34 4.985 12.692 4.985a65.563 65.563 0 0 0 21.96-4.75A157.244 157.244 0 0 0 75.54 66.648a156.32 156.32 0 0 0 23.34-16.921 95.934 95.934 0 0 0 8.035-7.957c8.246-9.329 10.879-17.016 7.617-22.239Zm0 0" style="stroke:none;fill-rule:evenodd;fill:#59b3d8;fill-opacity:1"/></g></svg>
