<svg xmlns="http://www.w3.org/2000/svg" viewBox="0 0 128 128"><defs><clipPath id="cosmosdb-original-wordmark-a"><path d="M18.121 4H44v25H18.121zm0 0"/></clipPath><clipPath id="cosmosdb-original-wordmark-b"><path d="M19 17h90.648v63H19zm0 0"/></clipPath></defs><path d="M93.832 41.523c3.914 15.899-6.031 31.903-22.223 35.75-16.187 3.844-32.488-5.921-36.402-21.824-3.914-15.898 6.031-31.902 22.223-35.75l.054-.008c16.11-3.867 32.364 5.82 36.301 21.641zm0 0" fill-rule="evenodd" fill="#59b3d8"/><path d="M60.254 60.332c-.008-4.344-3.606-7.86-8.031-7.852h-1.215c1.031-4.199-1.602-8.421-5.88-9.433a8.032 8.032 0 00-1.929-.215h-8.328c-1.8 9.102.887 18.504 7.258 25.348h10.094c4.422.011 8.02-3.5 8.03-7.848zm9.945-32.547c0 .461.059.918.18 1.363h-3.465c-4.598 0-8.324 3.657-8.324 8.176 0 4.512 3.726 8.172 8.324 8.172h27.563c-.899-9.766-6.766-18.422-15.594-23h-3.285c-2.977-.004-5.395 2.363-5.399 5.29zM94.48 51.57H78.035c-3.75-.011-6.797 2.965-6.812 6.649a6.5 6.5 0 00.82 3.164c-3.57 1.097-5.559 4.828-4.445 8.332.886 2.785 3.523 4.68 6.496 4.668h4.586c8.78-4.574 14.699-13.113 15.8-22.813zm0 0" fill-rule="evenodd" fill="#b6deec"/><g clip-path="url(#cosmosdb-original-wordmark-a)"><path d="M30.75 28.77a.919.919 0 01-.93-.903v-.004c-.011-5.71-4.73-10.332-10.547-10.324a.912.912 0 01-.921-.902c0-.5.414-.907.921-.907 5.809.004 10.524-4.605 10.547-10.304a.923.923 0 01.965-.871h.004c.48.02.863.398.887.87.015 5.708 4.734 10.325 10.547 10.321.511 0 .922.406.922.906s-.41.907-.922.907c-5.809-.008-10.532 4.605-10.547 10.312a.92.92 0 01-.926.899zm0 0" fill-rule="evenodd" fill="#b7d332"/></g><path d="M95.813 86.96a.548.548 0 01-.551-.538c-.012-3.414-2.84-6.172-6.313-6.168a.541.541 0 01-.55-.531v-.004a.54.54 0 01.546-.535h.004c3.473 0 6.293-2.758 6.309-6.172 0-.301.246-.543.55-.543h.004c.301 0 .551.242.551.543.012 3.414 2.836 6.172 6.309 6.172.3-.004.543.234.55.53v.005a.543.543 0 01-.542.535h-.008c-3.473 0-6.297 2.758-6.309 6.172a.544.544 0 01-.55.535zm0 0" fill-rule="evenodd" fill="#0072c5"/><g clip-path="url(#cosmosdb-original-wordmark-b)"><path d="M108.45 21.84c-2.88-4.63-10.114-5.7-20.907-3.106a87.923 87.923 0 00-9.906 3.106 30.67 30.67 0 015.84 3.664c1.832-.59 3.636-1.129 5.355-1.54a38.454 38.454 0 018.8-1.222c3.536 0 5.485.86 6.138 1.903 1.066 1.714.085 6.242-6.192 13.363-1.117 1.265-2.371 2.55-3.691 3.84a125.468 125.468 0 01-22.715 17.101 126.108 126.108 0 01-25.914 12.117c-10.922 3.493-18.38 3.422-20.055.743-1.672-2.684 1.672-9.243 9.828-17.204a28.822 28.822 0 01-.672-6.894C21.38 59.234 17.18 69.215 20.531 74.609c1.758 2.82 5.598 4.41 11.203 4.41a58.042 58.042 0 0019.387-4.199 139.292 139.292 0 0022.906-11.28A137.995 137.995 0 0094.63 48.562a83.771 83.771 0 007.094-7.04c7.277-8.253 9.605-15.062 6.726-19.683zm0 0" fill-rule="evenodd"/></g><path d="M85.188 86.58c-.461 0-.867.086-1.215.258a2.632 2.613 0 00-.879.684 3.152 3.152 0 00-.547.996 4.34 4.31 0 00-.215 1.184h5.555c.024-.973-.195-1.739-.652-2.29-.461-.554-1.14-.832-2.047-.832zm-33.196-1.238h5.835c.086 0 .157.012.223.035a.43.43 0 01.164.114.565.565 0 01.106.199c.027.086.043.191.043.316v.36c0 .105-.012.203-.024.293-.015.09-.039.18-.07.261-.027.086-.07.18-.125.278-.05.097-.117.207-.192.324l-4.468 6.941h4.773c.063 0 .117.016.164.04.051.027.09.07.125.132a.88.88 0 01.086.238c.024.102.036.227.036.368 0 .14-.012.261-.036.367-.023.098-.047.18-.078.246a.277.277 0 01-.125.133.371.371 0 01-.172.039h-6.266a.53.53 0 01-.39-.156c-.102-.106-.153-.282-.153-.528v-.383a1.496 1.496 0 01.215-.793c.051-.093.117-.199.192-.32l4.492-6.941H51.99c-.12 0-.214-.059-.289-.184-.07-.125-.105-.324-.105-.602 0-.132.008-.254.02-.355a.73.73 0 01.077-.246.271.271 0 01.122-.133.366.366 0 01.175-.043zm10.238-.055c.184 0 .332.004.453.016a.843.843 0 01.29.07c.07.036.12.07.152.11a.25.25 0 01.043.152v5.887c0 .594.046 1.066.132 1.422.086.355.22.656.395.91.18.25.402.445.676.582.27.136.586.207.95.207.468 0 .933-.16 1.394-.492.464-.332.957-.813 1.48-1.45v-7.066c0-.059.008-.11.04-.152a.361.361 0 01.152-.11.87.87 0 01.285-.07c.117-.012.273-.016.46-.016.18 0 .333.004.45.016a.775.775 0 01.285.07c.067.036.117.07.152.11.036.043.051.093.051.152v10.11a.26.26 0 01-.039.152.352.352 0 01-.14.11c-.07.027-.157.05-.266.062-.11.02-.242.023-.403.023a2.56 2.56 0 01-.421-.023.886.886 0 01-.262-.063c-.066-.035-.11-.066-.133-.11a.344.342 0 01-.031-.151v-1.337c-.582.637-1.152 1.102-1.719 1.395-.57.29-1.14.438-1.723.438-.675 0-1.25-.114-1.715-.34a2.97 2.97 0 01-1.12-.914 3.582 3.582 0 01-.618-1.348c-.125-.512-.187-1.137-.187-1.871v-6.133c0-.059.011-.11.039-.152a.361.361 0 01.152-.11.897.897 0 01.297-.07c.117-.012.27-.016.45-.016zm23.056-.156c.797 0 1.48.13 2.043.38a3.87 3.87 0 011.383 1.03c.363.43.629.938.8 1.516.168.578.254 1.2.254 1.86v.335c0 .293-.074.5-.222.625a.754.749 0 01-.504.184h-6.708c0 .562.055 1.066.172 1.516.114.453.301.836.567 1.156.266.324.613.57 1.035.742.426.176.945.258 1.555.258.488 0 .918-.04 1.297-.117.382-.079.71-.168.984-.262a9.315 9.248 0 00.68-.266c.18-.078.316-.117.406-.117.055 0 .102.012.14.04a.241.241 0 01.098.116.83.83 0 01.051.22 2.826 2.826 0 01.008.597c-.008.07-.02.133-.028.187a.441.441 0 01-.058.153.633.633 0 01-.102.132c-.043.04-.164.106-.367.2a4.957 4.957 0 01-.793.273c-.324.094-.699.172-1.125.242a7.93 7.93 0 01-1.363.11c-.84 0-1.57-.117-2.2-.352a4.067 4.067 0 01-1.59-1.031c-.43-.457-.753-1.027-.972-1.719-.219-.687-.328-1.488-.328-2.402 0-.871.113-1.649.34-2.344.226-.692.55-1.281.976-1.762a4.245 4.245 0 011.547-1.113c.602-.258 1.277-.387 2.023-.387zm-7.31 0c.099 0 .208.004.333.016.125.011.254.031.39.062.137.028.258.063.368.102a.66.66 0 01.23.113c.047.035.078.07.094.105.012.036.027.079.039.13.012.054.02.128.023.23 0 .101.004.238.004.41 0 .164-.004.305-.011.414a.978.978 0 01-.047.266.349.346 0 01-.086.144c-.031.035-.078.051-.137.051a.598.598 0 01-.222-.05 2.84 2.82 0 00-.294-.098 4.876 4.841 0 00-.367-.098 2.234 2.218 0 00-.441-.047c-.188 0-.375.04-.555.113-.183.075-.371.2-.574.372-.2.171-.406.402-.625.687-.219.281-.461.633-.723 1.043v6.649a.26.26 0 01-.047.152.383.383 0 01-.148.11c-.067.027-.16.05-.282.062-.12.02-.273.023-.464.023-.18 0-.332-.004-.453-.023a1.183 1.175 0 01-.29-.063c-.07-.035-.117-.066-.144-.11a.259.259 0 01-.04-.151v-10.11c0-.059.013-.11.032-.152a.32.32 0 01.137-.11.748.748 0 01.262-.07 3.97 3.97 0 01.418-.016c.164 0 .3.004.414.016.109.012.191.035.254.07.058.036.101.07.128.11a.276.276 0 01.04.152v1.473c.28-.406.542-.735.789-.989.242-.254.476-.456.695-.601.215-.145.433-.246.648-.3a2.457 2.44 0 01.653-.087zm-34.243-1.707l-2.523 7.242h5.09l-2.555-7.242zm.067-2c.242 0 .441.008.601.016a1.986 1.972 0 01.383.062.55.55 0 01.227.13c.05.054.093.128.125.21l4.91 13.5c.058.164.09.297.094.399.004.101-.024.175-.086.23-.059.05-.156.086-.297.098a4.42 4.42 0 01-.559.023 7.32 7.32 0 01-.562-.015 1.24 1.24 0 01-.317-.055.335.335 0 01-.16-.11.929.922 0 01-.094-.167l-1.257-3.536h-6.086l-1.2 3.489a.532.532 0 01-.09.175.458.458 0 01-.164.125.881.881 0 01-.305.07c-.132.02-.304.024-.515.024a4.09 4.09 0 01-.54-.027.542.542 0 01-.292-.106c-.055-.05-.082-.129-.078-.23a1.32 1.32 0 01.097-.399l4.91-13.5a.518.518 0 01.118-.203.478.478 0 01.215-.125c.094-.027.215-.05.363-.062.145-.008.332-.016.559-.016zm61.643 29.703v5.122h2.82c.446 0 .832-.051 1.164-.157.328-.105.622-.262.871-.464.254-.208.45-.465.594-.77.145-.309.215-.664.215-1.066 0-.438-.07-.82-.207-1.149a2.16 2.16 0 00-.613-.828 2.65 2.65 0 00-1.004-.516c-.403-.113-.906-.172-1.52-.172zM72.14 108.5c-.559 0-1.036.097-1.434.293a2.56 2.541 0 00-.984.824 3.618 3.618 0 00-.579 1.265 6.368 6.368 0 00-.187 1.594c0 .555.05 1.074.152 1.563.102.484.274.91.512 1.273.242.363.563.652.969.867.402.211.902.317 1.504.317.547 0 1.023-.098 1.43-.29.398-.195.734-.468.992-.82.257-.355.445-.773.57-1.261.121-.485.184-1.02.184-1.606 0-.547-.051-1.062-.157-1.547a3.792 3.792 0 00-.507-1.28 2.525 2.525 0 00-.961-.872c-.399-.211-.903-.32-1.504-.32zm-39.69 0c-.554 0-1.03.097-1.43.293a2.6 2.581 0 00-.988.824c-.257.355-.449.777-.578 1.265a6.555 6.555 0 00-.187 1.594c0 .555.054 1.074.156 1.563.102.484.274.91.512 1.273.242.363.562.652.965.867.406.211.906.317 1.508.317.546 0 1.023-.098 1.425-.29a2.687 2.668 0 00.997-.82 3.66 3.66 0 00.566-1.261c.121-.485.183-1.02.183-1.606a7.52 7.52 0 00-.152-1.547 3.792 3.792 0 00-.508-1.28 2.523 2.523 0 00-.96-.872c-.403-.211-.903-.32-1.509-.32zm50.815-1.551c.274 0 .543.023.817.07.27.043.515.098.734.168.219.067.406.137.559.219.156.078.273.148.351.207.078.059.133.11.156.156a.511.511 0 01.059.153 2.25 2.25 0 01.05.512c0 .124-.003.237-.015.331a.835.829 0 01-.058.23.277.277 0 01-.098.126.19.189 0 01-.121.043c-.07 0-.168-.043-.293-.125a4.395 4.395 0 00-.5-.262 5.015 5.015 0 00-.719-.266 3.322 3.322 0 00-.945-.125c-.317 0-.594.036-.836.11-.242.07-.442.171-.594.3a1.288 1.279 0 00-.352.47c-.078.18-.117.37-.117.581 0 .293.074.536.227.738.148.196.343.372.586.52.242.153.515.285.824.402.312.122.625.246.945.375a10.872 10.794 0 01.953.426 3.604 3.579 0 01.832.57 2.729 2.71 0 01.582.81c.145.316.22.69.22 1.124 0 .516-.094.977-.29 1.383a2.901 2.88 0 01-.816 1.023 3.824 3.824 0 01-1.27.63c-.488.14-1.031.21-1.617.21a6.237 6.193 0 01-1.035-.082 6.51 6.51 0 01-.883-.215 4.582 4.582 0 01-.66-.27 1.912 1.912 0 01-.399-.253.658.658 0 01-.18-.316 2.028 2.028 0 01-.058-.547c0-.145.008-.262.023-.36.016-.097.036-.176.059-.238a.277.277 0 01.094-.129.258.258 0 01.145-.04c.081 0 .203.052.367.154.16.1.359.21.597.331a5.918 5.876 0 00.844.332c.324.098.7.153 1.121.153.317 0 .602-.035.86-.102a2.165 2.15 0 00.668-.297 1.355 1.345 0 00.433-.504c.102-.199.152-.441.152-.718 0-.286-.074-.524-.218-.715a2.154 2.154 0 00-.582-.52 5.105 5.068 0 00-.817-.398c-.3-.117-.613-.235-.934-.363a10.157 10.084 0 01-.937-.434 3.378 3.354 0 01-.82-.59 2.633 2.633 0 01-.582-.832c-.149-.32-.223-.707-.223-1.156 0-.395.078-.777.23-1.14.157-.364.391-.68.696-.954.312-.273.7-.492 1.164-.656.461-.168 1.004-.25 1.621-.25zm-11.055 0c.84 0 1.566.125 2.192.37.62.247 1.14.606 1.554 1.08.418.472.727 1.046.934 1.718.207.676.312 1.437.312 2.281 0 .824-.11 1.582-.328 2.273a5.016 5.016 0 01-.98 1.793c-.43.5-.977.89-1.625 1.172-.657.282-1.41.422-2.27.422-.84 0-1.567-.125-2.191-.371a3.978 3.978 0 01-1.555-1.078c-.414-.473-.723-1.043-.926-1.719-.207-.672-.309-1.437-.309-2.289 0-.824.11-1.582.325-2.277.214-.692.539-1.29.972-1.79a4.314 4.314 0 011.621-1.167c.653-.278 1.407-.418 2.274-.418zm-17.84 0c.421 0 .8.05 1.136.148.336.098.633.235.887.406a2.885 2.864 0 01.656.63c.184.245.332.519.453.816.34-.367.664-.68.97-.93.304-.258.597-.465.882-.621.281-.156.559-.27.824-.34.266-.07.54-.11.809-.11.656 0 1.207.114 1.652.345.446.23.805.535 1.078.917.278.38.473.829.59 1.34a7.26 7.26 0 01.176 1.621v6.395c0 .059-.016.11-.043.149a.377.377 0 01-.148.109c-.067.027-.16.05-.285.066a3.62 3.62 0 01-.45.02c-.187 0-.344-.004-.465-.02a1.268 1.268 0 01-.289-.066.342.342 0 01-.152-.11.231.231 0 01-.043-.148v-6.144c0-.426-.039-.817-.117-1.169a2.621 2.621 0 00-.364-.91 1.683 1.683 0 00-.632-.586 1.92 1.92 0 00-.903-.203c-.43 0-.863.168-1.297.496-.433.328-.91.813-1.43 1.45v7.066c0 .059-.015.11-.042.149a.41.41 0 01-.156.109 1.27 1.27 0 01-.29.066 3.63 3.63 0 01-.45.02 3.74 3.74 0 01-.448-.02 1.261 1.261 0 01-.293-.066.328.328 0 01-.149-.11.256.256 0 01-.039-.148v-6.144c0-.426-.043-.817-.125-1.169a2.876 2.876 0 00-.37-.91 1.733 1.733 0 00-.63-.586 1.915 1.915 0 00-.898-.203c-.434 0-.867.168-1.3.496-.439.328-.915.813-1.427 1.45v7.066c0 .059-.015.11-.047.149a.352.352 0 01-.148.109 1.14 1.14 0 01-.282.066 3.78 3.78 0 01-.464.02 3.62 3.62 0 01-.45-.02 1.265 1.265 0 01-.288-.066.329.329 0 01-.15-.11.256.256 0 01-.038-.148v-10.11c0-.062.012-.109.031-.152a.319.319 0 01.137-.113.778.778 0 01.262-.066c.105-.012.246-.02.418-.02.168 0 .304.008.414.02.109.011.191.03.254.066.062.035.105.07.128.113.028.043.04.09.04.153v1.336c.574-.637 1.132-1.102 1.672-1.399.539-.297 1.082-.445 1.632-.445zm-11.02 0c.273 0 .542.023.816.07.27.043.515.098.734.168.22.067.407.137.559.219.156.078.273.148.351.207.078.059.133.11.156.156a.511.511 0 01.06.153c.01.054.023.124.035.206.011.082.015.184.015.305 0 .125-.004.238-.015.332a.835.829 0 01-.06.23.3.3 0 01-.093.126.21.208 0 01-.125.043c-.07 0-.168-.043-.293-.125a4.395 4.395 0 00-.5-.262 5.005 5.005 0 00-.719-.266 3.318 3.318 0 00-.945-.125c-.316 0-.594.036-.836.11-.242.07-.441.171-.594.3a1.288 1.279 0 00-.351.47c-.078.18-.117.37-.117.581 0 .293.074.536.226.738a2.18 2.164 0 00.586.52c.242.153.516.285.824.402.313.122.625.246.945.375a10.872 10.794 0 01.954.426 3.604 3.579 0 01.832.57 2.729 2.71 0 01.582.81c.144.316.219.69.219 1.124 0 .516-.094.977-.29 1.383a2.901 2.88 0 01-.816 1.023 3.826 3.826 0 01-1.27.63c-.488.14-1.03.21-1.617.21a6.237 6.193 0 01-1.035-.082 6.506 6.506 0 01-.883-.215 4.571 4.571 0 01-.66-.27 1.915 1.915 0 01-.398-.253.658.658 0 01-.18-.316 2.027 2.027 0 01-.059-.547c0-.145.012-.262.024-.36.015-.097.035-.176.058-.238a.275.275 0 01.094-.129.259.259 0 01.145-.04c.082 0 .203.052.367.154.16.1.363.21.598.331a5.918 5.876 0 00.843.332c.325.098.7.153 1.121.153.317 0 .602-.035.86-.102a2.165 2.15 0 00.668-.297 1.355 1.345 0 00.433-.504c.102-.199.153-.441.153-.718 0-.286-.075-.524-.219-.715a2.153 2.153 0 00-.582-.52 5.105 5.068 0 00-.816-.398c-.301-.117-.614-.235-.934-.363a10.157 10.084 0 01-.938-.434 3.378 3.354 0 01-.82-.59 2.632 2.632 0 01-.582-.832c-.148-.32-.223-.707-.223-1.156 0-.395.078-.777.23-1.14.157-.364.391-.68.696-.954.313-.273.7-.492 1.164-.656.461-.168 1.004-.25 1.621-.25zm-10.825 0c.836 0 1.566.125 2.191.37.621.247 1.14.606 1.555 1.08a4.65 4.65 0 01.934 1.718c.207.676.308 1.437.308 2.281 0 .824-.105 1.582-.328 2.273a4.95 4.95 0 01-.977 1.793c-.433.5-.976.89-1.628 1.172-.653.282-1.407.422-2.266.422-.84 0-1.57-.125-2.192-.371a3.979 3.979 0 01-1.554-1.078c-.414-.473-.723-1.043-.93-1.719-.203-.672-.305-1.437-.305-2.289 0-.824.11-1.582.32-2.277.22-.692.54-1.29.977-1.79a4.314 4.314 0 011.621-1.167c.649-.278 1.406-.418 2.274-.418zm58.701-2.032v11.313h2.004c.934 0 1.723-.117 2.364-.351a3.845 3.845 0 001.605-1.067c.434-.48.754-1.078.97-1.8.214-.723.323-1.579.323-2.567 0-.79-.097-1.52-.297-2.195a4.716 4.716 0 00-.922-1.762 4.302 4.302 0 00-1.585-1.157c-.645-.277-1.47-.414-2.481-.414zm14.216-.035v4.707h2.21c.505 0 .911-.066 1.216-.195.312-.133.566-.309.77-.527a2.073 2.058 0 00.445-.778c.093-.292.144-.601.144-.914 0-.351-.05-.671-.148-.953a1.79 1.778 0 00-.465-.726 2.028 2.028 0 00-.82-.454c-.34-.105-.79-.16-1.348-.16zm-1.215-1.574h3.328c.875 0 1.59.082 2.149.25.558.164 1.023.402 1.398.719a2.97 2.948 0 01.84 1.156c.191.457.285.973.285 1.551 0 .344-.043.676-.125.988a3.281 3.258 0 01-.367.871 2.945 2.924 0 01-.61.711 3.275 3.275 0 01-.843.52c.398.074.773.21 1.121.41a3.383 3.358 0 01.91.758c.258.304.465.668.614 1.078.152.41.226.863.226 1.36 0 .456-.059.878-.176 1.261a3.672 3.646 0 01-.488 1.04 3.597 3.57 0 01-.766.808 4.39 4.36 0 01-1.008.586 5.816 5.775 0 01-1.199.351 7.818 7.818 0 01-1.465.121h-3.824a.834.834 0 01-.492-.175c-.153-.118-.23-.32-.23-.614v-12.96c0-.294.077-.497.23-.614a.834.834 0 01.492-.176zm-14.22 0h3.313c1.266 0 2.34.164 3.211.492.88.325 1.614.793 2.203 1.403.594.61 1.04 1.351 1.344 2.218.309.872.461 1.848.461 2.942 0 1.262-.16 2.36-.488 3.297-.324.941-.797 1.718-1.418 2.34-.625.617-1.387 1.078-2.29 1.386-.905.305-1.984.461-3.238.461H90.01a.836.836 0 01-.497-.175c-.152-.118-.23-.32-.23-.614v-12.96c0-.294.078-.497.23-.614a.836.836 0 01.497-.176zm-68.545-.18c.426 0 .836.043 1.234.122s.77.175 1.106.296c.34.118.644.258.906.414.266.157.45.29.55.391.102.102.169.176.196.23.031.051.055.114.074.184.02.07.035.156.047.254.012.098.016.215.016.348 0 .148-.008.277-.02.379-.015.109-.039.195-.07.265a.359.359 0 01-.11.157.226.225 0 01-.152.054c-.105 0-.254-.074-.445-.222a8.183 8.183 0 00-.73-.485 6.177 6.177 0 00-1.094-.48c-.43-.145-.942-.22-1.54-.22a4.05 4.05 0 00-1.78.388 3.76 3.76 0 00-1.372 1.14c-.379.5-.672 1.113-.883 1.836-.207.723-.312 1.551-.312 2.477 0 .922.101 1.738.304 2.441.2.711.489 1.3.864 1.778.375.476.836.836 1.383 1.078.543.242 1.16.363 1.851.363.582 0 1.094-.07 1.528-.211.437-.144.808-.3 1.117-.476.308-.176.558-.336.758-.481.195-.14.351-.211.465-.211.05 0 .097.012.136.031.035.024.07.067.09.13.024.066.043.152.05.265a4.174 4.174 0 01.009.742 1.645 1.633 0 01-.04.235.698.693 0 01-.074.18.866.866 0 01-.16.19 3.238 3.238 0 01-.472.344 6.19 6.19 0 01-.899.45c-.36.144-.773.27-1.234.37a7.14 7.14 0 01-1.524.153c-.949 0-1.808-.16-2.574-.473a5.185 5.185 0 01-1.957-1.394c-.54-.613-.953-1.371-1.242-2.274-.293-.902-.438-1.941-.438-3.117 0-1.203.156-2.281.469-3.223.316-.945.754-1.746 1.32-2.398a5.616 5.616 0 012.032-1.5c.785-.344 1.66-.52 2.617-.52zm0 0" fill-rule="evenodd" fill="#0c65c4"/></svg>
