<svg xmlns="http://www.w3.org/2000/svg" viewBox="0 0 128 128"><path fill="#59b3d8" fill-rule="evenodd" d="M97.569 41.69c4.414 17.93-6.8 35.977-25.062 40.317-18.256 4.337-36.637-6.68-41.046-24.61-4.415-17.93 6.796-35.976 25.056-40.316l.062-.008c18.17-4.364 36.498 6.564 40.935 24.403zm0 0"/><path fill="#b6deec" fill-rule="evenodd" d="M59.701 62.905c-.008-4.9-4.064-8.867-9.054-8.856h-1.375c1.168-4.737-1.802-9.497-6.628-10.642a9.062 9.062 0 0 0-2.173-.238h-9.393c-2.028 10.266 1 20.866 8.182 28.585h11.387c4.986.012 9.042-3.948 9.054-8.849zM70.92 26.198c0 .52.066 1.036.198 1.537H67.21c-5.182 0-9.385 4.123-9.385 9.218 0 5.092 4.204 9.218 9.385 9.218h31.087c-1.011-11.012-7.633-20.776-17.586-25.937h-3.702c-3.36-.004-6.084 2.663-6.09 5.968zM98.3 53.022H79.755c-4.23-.012-7.667 3.34-7.683 7.497 0 1.25.319 2.48.927 3.57-4.026 1.234-6.272 5.445-5.015 9.398 1 3.137 3.975 5.273 7.327 5.261h5.168C90.383 73.591 97.06 63.96 98.3 53.022Zm0 0"/><path fill="#b7d332" fill-rule="evenodd" d="M26.434 27.31a1.046 1.046 0 0 1-1.054-1.019v-.004c-.012-6.438-5.33-11.651-11.893-11.643a1.017 1.017 0 0 1-.727-.292 1.02 1.02 0 0 1-.312-.724 1.036 1.036 0 0 1 1.04-1.027c6.55.011 11.868-5.189 11.892-11.616A1.043 1.043 0 0 1 26.473 0h.004a1.04 1.04 0 0 1 1 .98c.016 6.44 5.334 11.648 11.889 11.644.58 0 1.043.455 1.043 1.02a1.03 1.03 0 0 1-1.043 1.024c-6.547-.008-11.873 5.192-11.889 11.627a1.041 1.041 0 0 1-1.046 1.017zm0 0"/><path fill="#0072c5" fill-rule="evenodd" d="M99.803 92.934a.618.618 0 0 1-.619-.608c-.02-3.85-3.208-6.96-7.123-6.956a.623.623 0 0 1-.432-.175.592.592 0 0 1-.004-.857.59.59 0 0 1 .432-.175h.004c3.916 0 7.095-3.11 7.12-6.963a.61.61 0 0 1 .618-.612h.004a.62.62 0 0 1 .619.612c.016 3.853 3.2 6.963 7.115 6.963a.607.607 0 0 1 .62.6v.004a.61.61 0 0 1-.611.603h-.008c-3.916 0-7.1 3.11-7.115 6.96a.612.612 0 0 1-.62.604zm0 0"/><path fill-rule="evenodd" d="M114.054 19.495c-3.246-5.22-11.41-6.428-23.577-3.504a99.266 99.266 0 0 0-11.168 3.503 34.898 34.898 0 0 1 6.582 4.135c2.066-.67 4.098-1.277 6.042-1.74a43.328 43.328 0 0 1 9.922-1.376c3.986 0 6.185.967 6.92 2.146 1.204 1.935.098 7.038-6.979 15.068-1.266 1.43-2.678 2.877-4.165 4.333a141.683 141.683 0 0 1-25.618 19.285 142.03 142.03 0 0 1-29.222 13.662c-12.32 3.94-20.725 3.859-22.616.841-1.883-3.032 1.887-10.428 11.081-19.4a32.455 32.455 0 0 1-.754-7.778c-14.64 12.994-19.373 24.251-15.594 30.334 1.981 3.177 6.31 4.972 12.631 4.972a65.442 65.442 0 0 0 21.866-4.738 157.144 157.144 0 0 0 25.828-12.717A156.021 156.021 0 0 0 98.468 49.63a95.06 95.06 0 0 0 8-7.94c8.205-9.308 10.832-16.984 7.586-22.2zm0 0"/><path fill="#0c65c4" fill-rule="evenodd" d="M87.822 92.505c-.518 0-.977.094-1.37.292-.382.18-.725.44-.993.767a3.6 3.6 0 0 0-.616 1.122c-.14.431-.225.882-.245 1.338h6.268c.027-1.097-.222-1.961-.736-2.581-.521-.626-1.285-.937-2.308-.937Zm-37.437-1.397h6.583a.543.543 0 0 1 .436.163.708.708 0 0 1 .116.23c.031.093.046.214.046.354v.405c0 .12-.01.23-.022.33-.04.215-.113.421-.219.609-.061.108-.136.229-.218.365l-5.04 7.824h5.383c.07 0 .132.024.183.051a.304.304 0 0 1 .14.147c.043.067.07.157.101.266.027.116.04.257.04.416 0 .16-.013.296-.044.413-.027.11-.046.206-.085.28a.304.304 0 0 1-.14.148.423.423 0 0 1-.195.047h-7.065a.59.59 0 0 1-.44-.175c-.117-.121-.175-.32-.175-.6v-.432a1.633 1.633 0 0 1 .105-.596c.035-.09.078-.19.14-.296.055-.104.13-.22.214-.361l5.064-7.83h-4.908c-.14 0-.246-.065-.327-.205-.078-.14-.117-.366-.117-.678 0-.152.008-.287.02-.4a.907.907 0 0 1 .09-.28.296.296 0 0 1 .135-.15.393.393 0 0 1 .2-.045zm11.545-.063c.206 0 .379.004.51.016a.92.92 0 0 1 .323.082.49.49 0 0 1 .176.12c.035.05.05.113.05.176v6.637c0 .67.05 1.199.149 1.604.093.4.25.736.442 1.024.204.284.456.502.764.661.304.152.661.23 1.07.23.53 0 1.055-.183 1.573-.553.526-.378 1.078-.918 1.67-1.639V91.44c0-.067.008-.125.043-.172a.395.395 0 0 1 .175-.12c.102-.047.21-.074.319-.086a6.17 6.17 0 0 1 .518-.016c.206 0 .378.004.506.016a.93.93 0 0 1 .323.082.666.666 0 0 1 .172.124c.042.047.061.11.057.172v11.401a.313.313 0 0 1-.039.167.378.378 0 0 1-.163.13 1.26 1.26 0 0 1-.296.07 3.168 3.168 0 0 1-.458.027 3.02 3.02 0 0 1-.472-.028.967.967 0 0 1-.296-.07c-.077-.043-.124-.078-.152-.129a.35.35 0 0 1-.035-.167v-1.506c-.658.716-1.3 1.238-1.938 1.573-.646.327-1.289.49-1.943.49-.763 0-1.409-.124-1.934-.382a3.356 3.356 0 0 1-1.265-1.03 3.991 3.991 0 0 1-.693-1.52c-.14-.58-.21-1.28-.21-2.11V91.44a.29.29 0 0 1 .043-.172.384.384 0 0 1 .17-.12.988.988 0 0 1 .335-.086c.133-.012.304-.016.506-.016zm26-.174c.898 0 1.67.143 2.304.423a4.372 4.372 0 0 1 1.561 1.164 4.694 4.694 0 0 1 .903 1.71c.191.681.289 1.385.284 2.094v.38c0 .332-.082.566-.25.705a.856.856 0 0 1-.571.208h-7.564c0 .633.063 1.202.2 1.708.123.51.333.942.637 1.304.3.37.69.642 1.164.841.478.194 1.066.288 1.756.288.49.008.98-.04 1.464-.132a9.135 9.135 0 0 0 1.875-.592c.204-.094.355-.136.456-.136a.268.268 0 0 1 .269.18.85.85 0 0 1 .059.244c.01.11.023.234.023.388.004.169-.012.332-.047.496a.588.588 0 0 1-.183.322c-.043.047-.183.121-.408.227-.29.128-.588.229-.897.307a11.022 11.022 0 0 1-1.272.273 8.796 8.796 0 0 1-1.534.12c-.946 0-1.771-.128-2.484-.393a4.624 4.624 0 0 1-1.79-1.16c-.483-.522-.848-1.16-1.094-1.939-.249-.778-.37-1.682-.37-2.713 0-.98.125-1.857.381-2.639.253-.782.624-1.448 1.103-1.989a4.83 4.83 0 0 1 1.743-1.258c.678-.288 1.44-.431 2.281-.431zm-8.242 0c.11 0 .234.003.375.019.14.008.288.027.438.066a2.392 2.392 0 0 1 .418.117.687.687 0 0 1 .257.125c.05.039.09.077.11.116.01.043.03.094.042.152.011.059.022.144.026.257 0 .116.004.269.004.463 0 .187-.004.343-.01.468a1.311 1.311 0 0 1-.055.299.435.435 0 0 1-.098.163c-.039.04-.09.055-.155.055a.61.61 0 0 1-.25-.055 2.531 2.531 0 0 0-.33-.109 5.053 5.053 0 0 0-.417-.112 2.382 2.382 0 0 0-.498-.055 1.545 1.545 0 0 0-.623.133 2.422 2.422 0 0 0-.65.412 5.8 5.8 0 0 0-.704.778c-.246.32-.519.713-.81 1.176v7.501a.279.279 0 0 1-.058.167.38.38 0 0 1-.168.125c-.074.031-.18.059-.316.07a3.372 3.372 0 0 1-.525.028c-.202 0-.374-.008-.51-.028a1.545 1.545 0 0 1-.323-.07c-.082-.039-.136-.074-.167-.125a.284.284 0 0 1-.043-.167v-11.4a.42.42 0 0 1 .035-.176.4.4 0 0 1 .155-.12.837.837 0 0 1 .292-.082c.16-.012.316-.02.472-.016a5.082 5.082 0 0 1 .467.016.715.715 0 0 1 .288.082.546.546 0 0 1 .147.12.309.309 0 0 1 .043.176v1.658c.32-.46.611-.829.892-1.113a4.79 4.79 0 0 1 .782-.682 2.402 2.402 0 0 1 .732-.334c.238-.066.487-.097.732-.097zM41.07 88.944l-2.846 8.166h5.742l-2.88-8.166zm.078-2.259c.272 0 .494.012.672.02.153.008.296.031.437.07a.568.568 0 0 1 .257.149c.058.07.11.147.14.237l5.535 15.22c.067.187.102.335.11.455a.307.307 0 0 1-.102.257.57.57 0 0 1-.33.11 5.67 5.67 0 0 1-.635.027 8.35 8.35 0 0 1-.631-.02 1.259 1.259 0 0 1-.358-.062.352.352 0 0 1-.18-.12.884.884 0 0 1-.104-.188l-1.421-3.99h-6.863l-1.354 3.932a.582.582 0 0 1-.102.203.535.535 0 0 1-.182.14.957.957 0 0 1-.347.078 4.106 4.106 0 0 1-.58.027 5.122 5.122 0 0 1-.608-.031.634.634 0 0 1-.33-.12c-.063-.056-.094-.145-.086-.262a1.455 1.455 0 0 1 .11-.444l5.535-15.227a.645.645 0 0 1 .132-.23.554.554 0 0 1 .245-.14 1.774 1.774 0 0 1 .409-.07c.163-.009.37-.02.63-.02zm69.511 33.498v5.775h3.184c.502 0 .938-.053 1.311-.179a2.93 2.93 0 0 0 .982-.521 2.52 2.52 0 0 0 .673-.864c.167-.382.249-.79.238-1.206 0-.495-.078-.927-.23-1.293a2.43 2.43 0 0 0-.693-.934 2.855 2.855 0 0 0-1.133-.58c-.455-.13-1.023-.2-1.712-.2zm-37.553-2.963c-.63 0-1.168.11-1.615.33-.444.21-.83.53-1.11.931a4.11 4.11 0 0 0-.654 1.429 7.205 7.205 0 0 0-.21 1.793c0 .624.055 1.216.171 1.764.102.51.296.997.58 1.437.27.409.63.732 1.09.977.456.238 1.017.358 1.694.358.618 0 1.156-.113 1.612-.326a3.01 3.01 0 0 0 1.12-.927 4.09 4.09 0 0 0 .643-1.421 7.289 7.289 0 0 0 .206-1.814 8.208 8.208 0 0 0-.175-1.744 4.299 4.299 0 0 0-.572-1.445 2.822 2.822 0 0 0-1.083-.98c-.448-.238-1.016-.362-1.697-.362zm-44.758 0c-.626 0-1.164.11-1.611.33-.448.21-.825.53-1.113.931a4.16 4.16 0 0 0-.655 1.429 7.344 7.344 0 0 0-.21 1.793c0 .624.059 1.216.175 1.764.117.545.308 1.025.58 1.437.27.409.631.732 1.087.977.459.238 1.019.358 1.697.358.618 0 1.156-.113 1.607-.326a2.998 2.998 0 0 0 1.126-.927c.284-.4.501-.872.638-1.421a7.289 7.289 0 0 0 .206-1.814c0-.615-.059-1.196-.171-1.744a4.299 4.299 0 0 0-.572-1.445 2.822 2.822 0 0 0-1.083-.98c-.455-.238-1.016-.362-1.7-.362zm57.304-1.748c.307 0 .615.027.92.078a5.5 5.5 0 0 1 .828.187c.245.082.459.16.631.25.18.089.311.167.397.232a.535.535 0 0 1 .24.351c.017.058.029.136.044.23.012.097.016.21.016.346 0 .14-.004.27-.016.374a.895.895 0 0 1-.07.26.344.344 0 0 1-.11.14.218.218 0 0 1-.135.05c-.078 0-.187-.05-.331-.14a5.767 5.767 0 0 0-1.374-.6 3.787 3.787 0 0 0-1.066-.139c-.355 0-.67.04-.943.125a1.82 1.82 0 0 0-.67.339 1.44 1.44 0 0 0-.396.529 1.65 1.65 0 0 0-.133.654c0 .33.086.607.257.833.168.222.386.42.662.588.272.171.58.323.93.451.35.137.701.28 1.063.425.37.14.724.299 1.074.478.347.171.658.39.942.643.273.265.494.572.655.914.159.36.249.783.249 1.269 0 .58-.106 1.102-.327 1.562a3.24 3.24 0 0 1-.923 1.152 4.285 4.285 0 0 1-1.433.708 6.541 6.541 0 0 1-1.822.237 6.926 6.926 0 0 1-2.164-.335 5.321 5.321 0 0 1-.743-.303 1.87 1.87 0 0 1-.449-.288.676.676 0 0 1-.201-.358 2.332 2.332 0 0 1-.07-.615c0-.16.007-.292.027-.405.02-.11.043-.199.066-.265a.307.307 0 0 1 .11-.151.327.327 0 0 1 .159-.043c.093 0 .229.062.416.175a7.382 7.382 0 0 0 1.624.748c.365.112.79.174 1.265.174.358 0 .677-.043.969-.12.269-.066.525-.179.751-.331a1.53 1.53 0 0 0 .49-.568c.117-.227.176-.499.176-.81 0-.323-.09-.591-.25-.81a2.6 2.6 0 0 0-.654-.584 6.322 6.322 0 0 0-.922-.451c-.339-.129-.693-.261-1.051-.409a10.442 10.442 0 0 1-1.06-.49 3.625 3.625 0 0 1-.926-.662 3.103 3.103 0 0 1-.658-.938c-.166-.362-.249-.798-.249-1.304 0-.444.087-.877.261-1.288.18-.409.449-.78.783-1.076a4.054 4.054 0 0 1 1.316-.739c.518-.19 1.129-.28 1.825-.28zm-12.468 0c.947 0 1.768.14 2.471.42a4.438 4.438 0 0 1 1.756 1.215c.472.528.817 1.18 1.052 1.939.233.759.354 1.619.354 2.569 0 .93-.121 1.786-.37 2.565a5.633 5.633 0 0 1-1.106 2.02c-.486.569-1.106 1.004-1.833 1.324-.74.319-1.592.474-2.561.474-.947 0-1.768-.14-2.472-.416a4.502 4.502 0 0 1-1.751-1.214c-.464-.534-.815-1.18-1.048-1.94-.229-.758-.343-1.623-.343-2.58 0-.93.12-1.787.362-2.573.245-.778.608-1.452 1.102-2.016a4.8 4.8 0 0 1 1.826-1.316c.735-.316 1.584-.471 2.56-.471zm-20.117 0c.474 0 .903.059 1.285.167a3.807 3.807 0 0 1 1 .456c.28.194.528.436.736.712.206.276.377.588.51.92a10.94 10.94 0 0 1 1.093-1.048 6.23 6.23 0 0 1 .997-.7c.318-.18.627-.305.93-.386.296-.078.603-.121.911-.121.744 0 1.362.125 1.865.386.502.26.902.608 1.214 1.039.315.424.533.934.662 1.51a8.002 8.002 0 0 1 .202 1.825v7.214a.297.297 0 0 1-.046.164.384.384 0 0 1-.172.124 1.65 1.65 0 0 1-.319.078 5.502 5.502 0 0 1-1.031 0 1.54 1.54 0 0 1-.327-.078.346.346 0 0 1-.171-.124.25.25 0 0 1-.047-.164v-6.93c0-.482-.043-.921-.137-1.319a2.972 2.972 0 0 0-.404-1.027 1.907 1.907 0 0 0-.717-.658 2.137 2.137 0 0 0-1.016-.23c-.487 0-.977.19-1.463.56-.49.366-1.028.916-1.612 1.635v7.97c0 .065-.02.119-.046.163a.498.498 0 0 1-.176.124c-.11.04-.218.062-.327.078a5.587 5.587 0 0 1-1.016 0 1.738 1.738 0 0 1-.331-.078.353.353 0 0 1-.167-.124.265.265 0 0 1-.043-.164v-6.93a5.74 5.74 0 0 0-.14-1.319 3.283 3.283 0 0 0-.416-1.027 1.958 1.958 0 0 0-.713-.658 2.133 2.133 0 0 0-1.012-.23c-.49 0-.98.19-1.467.56-.494.366-1.032.916-1.609 1.635v7.97a.26.26 0 0 1-.053.163.353.353 0 0 1-.168.124 1.68 1.68 0 0 1-.316.078 5.932 5.932 0 0 1-1.031 0 1.54 1.54 0 0 1-.327-.078.353.353 0 0 1-.167-.124.265.265 0 0 1-.043-.164v-11.402a.38.38 0 0 1 .035-.171.347.347 0 0 1 .152-.129.875.875 0 0 1 .3-.078 5.376 5.376 0 0 1 .938 0 .814.814 0 0 1 .284.078c.059.028.11.075.144.13.03.05.046.1.046.17v1.507c.647-.72 1.278-1.242 1.885-1.577.607-.335 1.222-.502 1.841-.502zm-12.43 0c.312 0 .611.027.923.078.303.047.58.11.83.187.245.082.458.16.63.25.175.089.303.167.397.232.07.047.128.11.175.18.031.05.05.11.066.171.012.058.024.136.04.23.01.097.015.21.015.346 0 .14-.004.27-.016.374a.887.887 0 0 1-.066.26.37.37 0 0 1-.106.14.267.267 0 0 1-.14.05c-.08 0-.19-.05-.33-.14a5.778 5.778 0 0 0-1.378-.598 3.779 3.779 0 0 0-1.062-.14c-.36 0-.67.04-.947.124a1.804 1.804 0 0 0-.666.339 1.44 1.44 0 0 0-.396.529 1.584 1.584 0 0 0-.133.654c0 .33.082.607.253.833.188.234.409.432.662.588.273.171.584.323.927.451.353.137.707.28 1.07.425.362.14.724.299 1.074.478.339.171.658.39.939.643.272.265.498.572.658.914.159.36.245.783.245 1.269 0 .58-.11 1.102-.327 1.562a3.23 3.23 0 0 1-.919 1.152 4.403 4.403 0 0 1-1.433.708 6.717 6.717 0 0 1-1.826.237 6.91 6.91 0 0 1-1.167-.09 7.247 7.247 0 0 1-.993-.245 5.182 5.182 0 0 1-.747-.303 2.217 2.217 0 0 1-.452-.288.742.742 0 0 1-.2-.358c-.045-.148-.064-.354-.064-.615 0-.16.011-.292.027-.405a1.6 1.6 0 0 1 .062-.265.354.354 0 0 1 .11-.151.33.33 0 0 1 .163-.043c.09 0 .225.062.412.175a7.085 7.085 0 0 0 1.628.748c.365.112.786.174 1.26.174.36 0 .682-.043.97-.12.272-.066.525-.179.755-.331a1.55 1.55 0 0 0 .49-.568c.113-.227.172-.499.172-.81a1.34 1.34 0 0 0-.245-.81 2.498 2.498 0 0 0-.662-.584 6.092 6.092 0 0 0-.919-.451c-.338-.129-.693-.261-1.051-.409a10.442 10.442 0 0 1-1.058-.49 3.767 3.767 0 0 1-.927-.662 2.93 2.93 0 0 1-.654-.938c-.167-.362-.249-.798-.249-1.304 0-.444.086-.877.257-1.288.175-.409.439-.768.786-1.076a4.032 4.032 0 0 1 1.308-.739c.521-.19 1.136-.28 1.83-.28zm-12.207 0c.942 0 1.767.14 2.472.42a4.438 4.438 0 0 1 1.755 1.215c.468.528.822 1.18 1.052 1.939.237.759.35 1.619.35 2.569 0 .93-.117 1.786-.37 2.565a5.624 5.624 0 0 1-1.101 2.02 5.04 5.04 0 0 1-1.838 1.324c-.735.319-1.588.474-2.557.474-.947 0-1.772-.14-2.471-.416a4.501 4.501 0 0 1-1.75-1.214c-.466-.534-.816-1.18-1.054-1.94-.226-.758-.338-1.623-.338-2.58 0-.93.12-1.787.361-2.573.245-.778.608-1.452 1.098-2.016a4.948 4.948 0 0 1 1.826-1.316c.736-.316 1.592-.471 2.565-.471zm66.2-2.292v12.76h2.261c1.05 0 1.941-.133 2.662-.398a4.364 4.364 0 0 0 1.814-1.206c.49-.538.853-1.216 1.09-2.029.245-.813.37-1.779.37-2.892 0-.89-.11-1.717-.34-2.475a5.327 5.327 0 0 0-1.039-1.99 4.9 4.9 0 0 0-1.786-1.304c-.728-.312-1.659-.467-2.799-.467zm16.03-.04v5.31h2.497c.568 0 1.025-.074 1.368-.222a2.392 2.392 0 0 0 .867-.596c.23-.249.401-.548.503-.875a3.318 3.318 0 0 0 .163-1.032 3.268 3.268 0 0 0-.167-1.074 2.027 2.027 0 0 0-.526-.817 2.302 2.302 0 0 0-.922-.514c-.386-.117-.892-.18-1.523-.18zm-1.367-1.779h3.752c.984 0 1.794.098 2.421.284.635.188 1.156.456 1.577.815.42.345.747.797.95 1.299.218.518.322 1.098.322 1.752 0 .388-.05.763-.14 1.113a3.837 3.837 0 0 1-.416.982 3.408 3.408 0 0 1-.69.805 3.622 3.622 0 0 1-.953.584 4.03 4.03 0 0 1 1.27.463 3.865 3.865 0 0 1 1.717 2.07c.174.491.26 1.013.256 1.535a4.8 4.8 0 0 1-.2 1.42 4.068 4.068 0 0 1-1.413 2.083 4.843 4.843 0 0 1-1.14.662 6.419 6.419 0 0 1-1.35.397 8.71 8.71 0 0 1-1.654.136h-4.31a.934.934 0 0 1-.557-.2c-.17-.13-.26-.36-.26-.687v-14.62c0-.329.093-.559.26-.69a.964.964 0 0 1 .558-.203zm-16.034 0h3.733c1.428 0 2.635.19 3.62.561.993.362 1.822.891 2.484 1.58.673.685 1.175 1.527 1.514 2.503.349.982.525 2.083.525 3.313 0 1.425-.183 2.662-.553 3.722-.365 1.062-.895 1.938-1.6 2.634-.705.7-1.565 1.22-2.581 1.565-1.02.347-2.237.522-3.65.522h-3.492a.936.936 0 0 1-.561-.2c-.176-.13-.261-.36-.261-.687v-14.62c0-.329.085-.559.26-.69a.91.91 0 0 1 .562-.203zm-77.305-.199c.478 0 .942.048 1.394.138a9.068 9.068 0 0 1 1.25.333 5.56 5.56 0 0 1 1.019.469c.296.174.506.326.619.438.117.114.195.2.226.261a.877.877 0 0 1 .082.207c.05.222.073.451.07.677 0 .168-.009.315-.024.429-.011.1-.04.202-.077.299a.394.394 0 0 1-.125.175.251.251 0 0 1-.171.063c-.117 0-.29-.082-.502-.25a8.869 8.869 0 0 0-.822-.548 7.142 7.142 0 0 0-1.237-.541c-.484-.164-1.06-.246-1.737-.246a4.574 4.574 0 0 0-2.008.436 4.222 4.222 0 0 0-1.546 1.285c-.428.568-.755 1.257-.996 2.075-.23.81-.355 1.744-.355 2.786 0 1.044.121 1.964.347 2.757.226.802.548 1.468.973 2.005.413.529.95.945 1.56 1.215.616.276 1.31.408 2.092.408.653 0 1.23-.078 1.72-.234a7.155 7.155 0 0 0 1.257-.541c.351-.198.635-.38.857-.541.221-.16.397-.237.521-.237a.4.4 0 0 1 .16.034.296.296 0 0 1 .101.145c.023.074.046.175.054.299.016.13.024.285.024.483 0 .137-.004.253-.016.359-.008.09-.02.174-.043.26a.95.95 0 0 1-.081.206 1.066 1.066 0 0 1-.184.215 4.068 4.068 0 0 1-.533.388 7.918 7.918 0 0 1-1.011.506c-.409.16-.877.3-1.394.413a7.957 7.957 0 0 1-1.716.175c-1.072 0-2.04-.182-2.905-.533a5.88 5.88 0 0 1-2.207-1.568c-.611-.698-1.078-1.55-1.402-2.565-.33-1.02-.49-2.193-.49-3.52 0-1.355.171-2.573.526-3.631.358-1.067.852-1.97 1.491-2.706a6.379 6.379 0 0 1 2.289-1.694c.883-.385 1.871-.583 2.95-.583zm0 0"/></svg>
