<svg xmlns="http://www.w3.org/2000/svg" viewBox="0 0 128 128"><path fill="#59b3d8" d="M17.438 5.82a1.29 1.29 0 0 0-1.356 1.227c-.034 8.051-6.646 14.562-14.789 14.555-.713 0-1.293.57-1.293 1.273a1.286 1.286 0 0 0 1.293 1.28c8.153-.008 14.768 6.514 14.79 14.578v.004a1.286 1.286 0 0 0 1.3 1.273 1.29 1.29 0 0 0 1.297-1.263c.026-8.06 6.643-14.578 14.791-14.567.713 0 1.293-.573 1.293-1.28 0-.704-.58-1.277-1.293-1.277-8.153.007-14.77-6.515-14.791-14.576a1.292 1.292 0 0 0-1.242-1.227zm94.432 18.075c-4.211-.073-9.183.573-14.857 1.947a121.69 121.69 0 0 0-13.764 4.338 42.354 42.354 0 0 0-28.385-2.99l-.078.017c-16.587 3.97-28.49 17.112-31.56 32.661h11.612a11.182 11.182 0 0 1 2.703.307c5.998 1.427 9.689 7.39 8.247 13.322h1.7c6.205-.015 11.246 4.947 11.259 11.084-.008 3.175-1.368 6.03-3.533 8.05a176.034 176.034 0 0 1-6.667 2.983c-.35.032-.704.052-1.062.051H33.336A41.256 41.256 0 0 1 24.72 81.36c2.542 7.395 7.026 13.69 12.744 18.454-15.167 4.846-25.523 4.734-27.855.968C7.268 97 11.942 87.755 23.346 76.53c.085.389.19.773.287 1.158-.097-.394-.173-.79-.258-1.185l.008-.01a41.005 41.005 0 0 1-.76-4.84 41.005 41.005 0 0 1-.17-4.705c.051-2.4.317-4.765.774-7.08h-.065a40.945 40.945 0 0 0-.748 6.918C4.24 83.045-1.642 97.128 3.06 104.74c2.463 3.985 7.844 6.228 15.705 6.228a80.773 80.773 0 0 0 26.856-5.82 42.523 42.523 0 0 0 29.05 3.355c19.356-4.63 32.338-21.747 32.34-40.608a118.566 118.566 0 0 0 9.878-9.875c10.207-11.655 13.466-21.268 9.43-27.793-2.522-4.087-7.428-6.21-14.448-6.332zM23.633 77.688zm.49 1.803c.122.415.256.824.389 1.233-.136-.41-.265-.82-.389-1.233zm.389 1.233c.07.211.133.426.207.636-.072-.21-.138-.424-.207-.636zm55.75-49.573h4.518a42.83 42.83 0 0 1 6.526 4.25l.078-.024a41.06 41.06 0 0 1 8.584 9.268 41.717 41.717 0 0 0-8.518-9.289c2.524-.817 5.002-1.557 7.368-2.129a53.33 53.33 0 0 1 12.336-1.727c4.957 0 7.69 1.211 8.605 2.686 1.496 2.423.118 8.816-8.682 18.871-1.56 1.782-3.311 3.588-5.156 5.403-.034-.146-.06-.292-.096-.438l-.064-.267c-.103-.415-.224-.82-.338-1.229.177.642.348 1.286.494 1.938l-.017.017a175.938 175.938 0 0 1-5.813 5.147H68.085c-6.445 0-11.666-5.167-11.666-11.54 0-6.374 5.22-11.543 11.666-11.543h4.861a7.383 7.383 0 0 1-.256-1.925c.01-4.13 3.396-7.471 7.573-7.47zm25.161 25.375c-.06-.217-.114-.435-.178-.65.064.214.118.434.178.65zm-.178-.65zm-.55-1.705zm-.465-1.274zm-.524-1.322c-.143-.339-.297-.672-.449-1.006.152.334.306.666.45 1.006zm-.449-1.006zm-.543-1.16zm-.436-.86zm-.73-1.337c-.126-.22-.249-.442-.379-.66.13.217.254.44.379.66zm-.379-.66zM83.681 72.207h5.793a175.938 175.938 0 0 1-15.231 10.3 9.241 9.241 0 0 1-.115-.915c.02-5.198 4.294-9.398 9.553-9.385zm18.154 0h4.899c-1.546 13.7-9.839 25.755-22.153 32.21h-6.428c-4.168.017-7.863-2.655-9.105-6.589a9.265 9.265 0 0 1-.41-3.302 194.65 194.65 0 0 0 9.42-5.417 193.407 193.407 0 0 0 23.777-16.902Zm6.766 29.512a.77.77 0 0 0-.778.768c-.018 4.818-3.971 8.713-8.843 8.71h-.006a.761.761 0 0 0-.766.758.762.762 0 0 0 .772.756c4.874-.01 8.835 3.888 8.853 8.71a.764.764 0 0 0 .768.76h.002a.764.764 0 0 0 .773-.755c.015-4.82 3.973-8.717 8.844-8.715h.004a.759.759 0 0 0 .766-.758.761.761 0 0 0-.77-.755c-4.87.002-8.826-3.893-8.844-8.711a.77.77 0 0 0-.775-.768z"/></svg>
