<svg xmlns="http://www.w3.org/2000/svg" viewBox="0 0 128 128"><path fill="#00a2ff" d="M27.05 0 0 100.95 100.95 128 128 27.05Zm.7 1.213 99.037 26.537-26.537 99.037L1.213 100.25Zm63.446 29.37L85.58 51.54l20.956 5.616 5.616-20.955zm.7 1.214 19.041 5.103-5.102 19.042-19.042-5.103zm-68.66 32.505-7.37 27.504 17.125 4.589 1.025-3.833-12.633-3.385 6.373-23.784-4.075-1.091zm.732 1.1 2.575.691-6.373 23.784 12.633 3.386-.515 1.919-15.21-4.077zm16.229 10.666-3.581 13.366v.002c-.651 2.481-.6 4.581.24 6.25v.003l.002.004c.855 1.656 2.45 2.785 4.654 3.375 2.24.6 4.179.342 5.872-.48l-.356 1.568 4.163 1.114 5.562-20.768-4.343-1.162-3.95 14.74c-1.25 1.51-2.932 1.959-5.37 1.305-1.124-.3-1.78-.82-2.123-1.586-.343-.767-.367-1.857.017-3.293l3.558-13.275zm.702 1.211 2.43.652-3.302 12.32c-.42 1.565-.439 2.89.036 3.952.476 1.061 1.45 1.784 2.769 2.137 2.706.726 4.966.17 6.454-1.675l.065-.081 3.761-14.034 2.428.652-5.05 18.855-2.284-.611.627-2.755-1.047.723c-1.603 1.107-3.563 1.356-6.016.699-2.018-.54-3.318-1.495-4.03-2.871v-.002l-.002-.002c-.695-1.385-.776-3.215-.165-5.549v-.002zm25.03 5.798a9.511 9.511 0 0 0-1.078.11h-.002c-1.409.228-2.643.737-3.67 1.53-1.009.782-1.689 1.74-1.985 2.84l-.13.478 4.365 1.167.13-.478c.192-.716.648-1.204 1.524-1.553.873-.348 1.844-.386 2.972-.084 1.297.348 2.11.914 2.548 1.672l.002.002v.002c.45.763.545 1.635.253 2.724l-.29 1.077-2.815-.754c-2.908-.78-5.38-.814-7.394-.039-2 .768-3.346 2.32-3.931 4.504-.486 1.813-.212 3.562.805 5.11v.003l.002.002c1.033 1.54 2.613 2.592 4.656 3.14v.002c2.032.544 4.017.216 5.909-.712-.05.587-.132 1.22-.055 1.602l.062.3 4.326 1.162.236-.872-.015-.1c-.162-1.099-.022-2.548.454-4.327l2.446-9.123v-.006c.511-2.115.247-4.035-.82-5.635l-.003-.002c-1.066-1.613-2.825-2.729-5.186-3.36-1.124-.302-2.23-.432-3.314-.382Zm.044.99a9.841 9.841 0 0 1 3.014.347c2.202.59 3.713 1.58 4.62 2.952l.002.002c.911 1.364 1.144 2.94.683 4.85v.006l-2.441 9.106c-.458 1.707-.56 3.103-.44 4.335l-2.683-.721c-.037-.368-.045-.893.078-1.765l.145-1.03-.892.537c-1.915 1.155-3.846 1.441-5.91.888-1.862-.5-3.196-1.404-4.088-2.732-.88-1.339-1.099-2.732-.675-4.312.52-1.942 1.594-3.17 3.327-3.836 1.75-.673 4.004-.674 6.783.071l3.772 1.012.548-2.035c.342-1.277.234-2.473-.356-3.478l-.002-.002c-.6-1.036-1.686-1.74-3.146-2.13-1.289-.346-2.504-.317-3.594.118a3.39 3.39 0 0 0-1.865 1.774l-2.4-.643c.282-.678.621-1.33 1.332-1.88.886-.684 1.95-1.129 3.221-1.335.319-.05.644-.085.967-.099zm15.31 3.007-3.582 13.37v.002c-.651 2.481-.597 4.581.242 6.25v.002l.002.004c.856 1.657 2.45 2.786 4.654 3.376 2.24.6 4.179.344 5.872-.478l-.358 1.565 4.161 1.115 5.566-20.768-4.343-1.163-3.95 14.738c-1.251 1.512-2.93 1.962-5.371 1.308-1.122-.3-1.78-.82-2.122-1.587-.344-.766-.368-1.856.017-3.292l3.556-13.277zm.7 1.213 2.43.652-3.3 12.321c-.42 1.566-.438 2.89.037 3.952.475 1.062 1.45 1.785 2.769 2.138 2.706.725 4.964.169 6.451-1.675l.066-.081 3.761-14.032 2.43.65-5.053 18.855-2.283-.612.63-2.756-1.048.723c-1.604 1.107-3.562 1.358-6.017.7-2.017-.54-3.316-1.493-4.03-2.87v-.003l-.001-.002c-.695-1.384-.778-3.215-.167-5.548v-.002zm-18.33 5.571-.458.035v.128c-1.628.28-2.843 1.157-3.252 2.685-.313 1.168-.164 2.279.466 3.184.62.893 1.568 1.504 2.765 1.825a6.662 6.662 0 0 0 3.498-.016c1.179-.315 2.16-.898 2.89-1.74l.073-.088 1.248-4.653-3.132-.837c-1.59-.426-2.95-.61-4.097-.523Zm.076.99h.008c.981-.072 2.24.083 3.757.488l2.176.583-.919 3.428c-.587.657-1.341 1.13-2.335 1.397h-.004a5.667 5.667 0 0 1-2.98.015c-1.026-.275-1.733-.75-2.208-1.433-.465-.67-.58-1.41-.323-2.364.36-1.349 1.192-1.989 2.828-2.113zm7.669 10.966c.008.068-.035.174-.025.24l.013-.2z" /></svg>
