<svg xmlns="http://www.w3.org/2000/svg" viewBox="0 0 128 128"><path fill="#00a2ff" d="m27.049 0 100.95 27.049-27.05 100.95L0 100.95z"/><path fill="#fff" d="m91.81 30.877 20.19 5.41-5.41 20.19-20.19-5.41zM20.363 89.772l12.755 3.417-.778 2.902-16.322-4.373 7.212-26.914 3.567.956zm27.554 8.373c-1.75 1.208-3.914 1.468-6.489.778-2.132-.572-3.593-1.624-4.385-3.156-.775-1.542-.844-3.529-.206-5.96l3.487-13.013 3.42.917-3.462 12.92c-.813 3.032.014 4.878 2.478 5.538 2.613.7 4.611.192 5.995-1.524l3.898-14.547 3.42.916-5.36 20-3.252-.871zm20.357 7.575c-.091-.447-.063-1.193.084-2.236-2.032 1.225-4.15 1.542-6.357.951-1.971-.528-3.443-1.517-4.415-2.966-.957-1.458-1.206-3.044-.746-4.757.557-2.082 1.779-3.485 3.663-4.209 1.9-.732 4.286-.714 7.157.056l3.327.891.421-1.571c.32-1.195.218-2.24-.309-3.134-.523-.906-1.481-1.546-2.874-1.919-1.22-.327-2.325-.293-3.316.102-.99.395-1.603 1.03-1.837 1.905l-3.439-.921c.268-.999.877-1.866 1.827-2.602.965-.745 2.125-1.227 3.478-1.445 1.365-.216 2.775-.128 4.229.261 2.304.618 3.954 1.68 4.95 3.189 1 1.496 1.253 3.261.76 5.296l-2.466 9.205c-.492 1.836-.65 3.359-.471 4.569l-.08.296zm-4.976-4.127a6.22 6.22 0 0 0 3.273-.015c1.11-.297 1.999-.83 2.668-1.603l1.1-4.103-2.68-.718c-4.19-1.123-6.614-.458-7.271 1.994-.287 1.072-.155 2.006.398 2.801.553.795 1.39 1.343 2.512 1.644zm26.098 7.667c-1.75 1.208-3.913 1.467-6.489.777-2.131-.571-3.593-1.623-4.384-3.156-.776-1.542-.845-3.528-.206-5.96l3.486-13.012 3.42.916-3.462 12.92c-.812 3.032.014 4.878 2.479 5.538 2.612.7 4.61.193 5.995-1.524l3.898-14.547 3.42.917-5.36 20-3.253-.872z"/></svg>
