<svg xmlns="http://www.w3.org/2000/svg" viewBox="0 0 128 128"><g fill-rule="evenodd" clip-rule="evenodd"><path fill="#386f9f" d="M51.834 23.017c3.756 0 7.512.058 11.263-.04.995-.026 2.78.797 2.7-1.271-.061-1.683-1.622-1.074-2.568-1.089-4.237-.067-8.488-.228-12.708.037-3.003.187-3.888-.953-3.511-3.707.13-.95.005-1.934.025-2.902.132-6.446 1.69-8.64 7.942-10.23 6.888-1.75 13.937-1.692 20.806-.184 6.175 1.356 8.74 6.16 8.428 10.604-.38 5.423-.086 10.893-.091 16.343-.009 6.853-3.55 10.49-10.459 10.585-5.69.078-11.387.14-17.074-.018-6.778-.19-11.75 5.44-11.784 11.82 0 .484.083.984-.013 1.451-.488 2.343 1.462 6.13-1.022 6.826-3.78 1.062-8.206 1.062-11.54-2.311-1.13-1.14-2.082-2.417-2.584-3.893-2.679-7.865-3.102-15.83-.58-23.818 1.572-4.986 5.848-8.087 11.145-8.176 3.874-.065 7.749-.013 11.623-.013l.002-.014zm6.902-11.12c-.162-1.903-1.185-3.292-3.296-3.35-2.309-.06-3.502 1.336-3.505 3.608-.002 2.106 1.145 3.455 3.241 3.516 2.303.067 3.418-1.36 3.56-3.774z"/><path fill="#ffcf46" d="M80.824 61.572c-4.24 0-8.482-.037-12.722.03-.955.012-2.557-.592-2.607 1.041-.056 1.852 1.663 1.37 2.755 1.381 4.24.053 8.484.098 12.723-.02 2.178-.06 3.067.357 3.23 2.925.737 11.625-4.308 12.63-13.613 14.745-5.338 1.213-11.061.57-16.325-1.788-4.353-1.947-7.024-4.753-6.687-10.007.334-5.186.39-10.439-.009-15.62-.48-6.253 3.41-10.852 10.975-10.854 5.09-.001 10.214-.389 15.26.075 7.215.662 12.872-5.592 13.12-12.864.01-.241-.052-.5.01-.724.636-2.235-1.626-5.557 1.4-6.686 4.573-1.705 9.73.087 12.066 3.557 2.945 4.369 3.343 9.51 3.819 14.53.515 5.411-1.003 10.505-3.276 15.386-1.544 3.31-4.14 4.91-7.757 4.915-4.12.003-8.239 0-12.36 0-.002-.008-.002-.015-.002-.022zm-1.104 10.8c-.453-2.066-1.385-3.476-3.785-3.535-2.496-.06-3.14 1.807-3.127 3.474.014 1.772.508 3.952 3.21 3.748 2.246-.172 3.341-1.563 3.702-3.687z"/><path fill="#386f9f" d="M14.129 114.849c0 2.582.117 5-.055 7.397-.074 1.034 1.066 2.98-1.103 2.978-1.912 0-2.403-1.522-2.342-3.361.117-3.51.034-7.027.034-10.54v-7.998c0-4.82 1.293-6.452 5.903-7.45 4.286-.932 7.654.511 9.386 4.263 1.732 3.753 1.866 7.62.133 11.438-1.708 3.762-4.854 5.166-8.884 4.051-.918-.25-1.845-.467-3.072-.778zm0-9.448c0 1.33.18 2.686-.037 3.98-.502 2.991 1.408 3.728 3.66 4.26 2.227.526 3.754-.421 4.647-2.383 1.501-3.29 1.753-6.683.613-10.162-1.012-3.092-3.349-3.454-6.077-3.07-2.694.383-3.059 2.215-2.824 4.48.1.955.018 1.93.018 2.895zM43.116 114.689c-1.845.48-3.447.992-5.087 1.3-3.59.671-6.248-1.3-7.183-4.894-1.16-4.448-.178-8.879-.148-13.317.013-2.023 1.885-1.234 3.18-2.318 0 4.75.018 8.85-.006 12.947-.013 2.058.519 3.75 2.465 4.835 2.148 1.198 3.91.057 5.78-.712 1.34-.551 1.173-1.676 1.175-2.746.01-3.872-.001-7.74.012-11.612.002-.955-.097-2.122 1.313-2.075 1.257.041 1.804.788 1.783 2.158-.091 6.407.09 12.823-.17 19.221-.197 4.838-3.61 7.793-8.52 8.01-.735.031-1.505.099-1.78-.813-.419-1.404.718-1.139 1.465-1.378 5.401-1.718 6.107-2.744 5.721-8.606zM65.94 98.064c1.429-.675 2.25-1.293 3.153-1.46 5.067-.937 8.95-.58 8.94 6.245-.007 3.515.002 7.031-.007 10.545-.002.984.061 1.942-1.406 2.027-1.547.092-1.887-.793-1.88-2.006.018-3.387.11-6.774.107-10.16-.002-2.63-.539-4.958-3.884-4.95-2.934.005-5.012 2.195-5.027 5.217a899.58 899.58 0 00.003 9.814c.003 1.162.028 2.181-1.652 2.085-1.513-.09-1.327-1.11-1.327-2.049-.01-8.6.032-17.209-.041-25.815-.013-1.508.582-2.444 1.92-2.508 1.888-.087 1.023 1.564 1.051 2.392.123 3.371.05 6.75.05 10.623zM81.93 105.775c-.191-6.715 2.994-10.3 8.76-10.092 2.894.106 5.065 1.39 6.466 3.89 2.475 4.422 2.14 8.846-.538 12.987-1.84 2.844-4.67 4.185-8.12 3.453-3.402-.72-6.066-3.783-6.548-7.353-.128-.945-.02-1.924-.02-2.885zm13.32.157c-.152-1.172-.125-2.806-.613-4.264-.667-2-1.883-3.61-4.364-3.72-2.503-.108-3.752 1.355-4.587 3.38-1.311 3.179-1.226 6.371.194 9.493.912 2.011 2.32 3.483 4.76 3.075 2.403-.401 3.821-1.976 4.312-4.313.223-1.059.187-2.168.298-3.65zM102.257 106.827c0-1.212-.023-2.422.004-3.628.056-2.325-.685-4.901 2.45-6.089 3.59-1.356 7.148-2.372 10.762-.273 1.352.786 1.85 2.214 1.864 3.73.037 4.231-.019 8.464.038 12.695.02 1.476-.368 2.214-2.027 2.174-1.818-.043-1.435-1.283-1.423-2.273.043-3.38.278-6.757.214-10.132-.084-4.25-2.416-5.983-6.389-4.94-1.648.434-2.678 1.234-2.597 3.274.161 3.982.037 7.978.052 11.967.004 1.156.021 2.18-1.647 2.083-1.528-.088-1.278-1.145-1.29-2.062-.028-2.176-.008-4.353-.011-6.526zM58.689 97.403c-.25.296-.46.76-.68.764-3.964.055-2.864 3.014-2.966 5.209-.097 2.045 0 4.1-.029 6.151-.03 2.038.147 3.932 2.627 4.473.711.154 1.035.564.887 1.274-.163.784-.788.753-1.407.745-2.85-.05-4.963-2.065-5.047-5.015-.086-3.014.031-6.035-.04-9.046-.037-1.43.706-3.255-1.6-3.822-.253-.061-.343-.778-.508-1.187 3.076-.965 1.8-3.618 2.222-5.631.2-.953 1.105-1.214 1.96-1.295.865-.082.872.618.9 1.203.114 2.32-1.087 5.425 3.184 5.256.143-.005.31.562.497.92z"/></g></svg>