<svg version="1.1" xmlns="http://www.w3.org/2000/svg" xmlns:xlink="http://www.w3.org/1999/xlink" viewBox="0 0 128 128">
	<linearGradient id="path1948_2_" gradientUnits="userSpaceOnUse" x1="70.2524" y1="1237.4756" x2="170.6587" y2="1151.0894" gradientTransform="matrix(0.5625 0 0 -0.568 -29.2148 707.8173)">
		<stop  offset="0" style="stop-color:#5A9FD4"/>
		<stop  offset="1" style="stop-color:#306998"/>
	</linearGradient>
	<path id="path1948_1_" fill="url(#path1948_2_)" d="M63.391,1.988c-4.222,0.02-8.252,0.379-11.8,1.007
		c-10.45,1.846-12.346,5.71-12.346,12.837v9.411h24.693v3.137H39.245h-9.268c-7.176,0-13.46,4.313-15.426,12.521
		c-2.268,9.405-2.368,15.275,0,25.096c1.755,7.311,5.947,12.519,13.124,12.519h8.491V67.234c0-8.151,7.051-15.34,15.426-15.34
		h24.665c6.866,0,12.346-5.654,12.346-12.548V15.833c0-6.693-5.646-11.72-12.346-12.837C72.013,2.29,67.612,1.969,63.391,1.988z
		 M50.037,9.557c2.55,0,4.634,2.117,4.634,4.721c0,2.593-2.083,4.69-4.634,4.69c-2.56,0-4.633-2.097-4.633-4.69
		C45.403,11.674,47.477,9.557,50.037,9.557z"/>

		<linearGradient id="path1950_2_" gradientUnits="userSpaceOnUse" x1="209.4736" y1="1098.8105" x2="173.6202" y2="1149.5369" gradientTransform="matrix(0.5625 0 0 -0.568 -29.2148 707.8173)">
		<stop  offset="0" style="stop-color:#FFD43B"/>
		<stop  offset="1" style="stop-color:#FFE873"/>
	</linearGradient>
	<path id="path1950_1_" fill="url(#path1950_2_)" d="M91.682,28.38v10.966c0,8.5-7.208,15.655-15.426,15.655H51.591
		c-6.756,0-12.346,5.783-12.346,12.549v23.515c0,6.691,5.818,10.628,12.346,12.547c7.816,2.297,15.312,2.713,24.665,0
		c6.216-1.801,12.346-5.423,12.346-12.547v-9.412H63.938v-3.138h24.665h12.347c7.176,0,9.852-5.005,12.348-12.519
		c2.578-7.735,2.467-15.174,0-25.096c-1.774-7.145-5.161-12.521-12.348-12.521H91.682z M77.809,87.927
		c2.561,0,4.634,2.097,4.634,4.692c0,2.602-2.074,4.719-4.634,4.719c-2.55,0-4.633-2.117-4.633-4.719
		C73.176,90.024,75.259,87.927,77.809,87.927z"/>

	<radialGradient id="path1894_2_" cx="1825.6777" cy="444.4502" r="26.7427" gradientTransform="matrix(0 -0.2399 -1.0547 0 532.9789 557.5763)" gradientUnits="userSpaceOnUse">
		<stop  offset="0" style="stop-color:#B8B8B8;stop-opacity:0.498"/>
		<stop  offset="1" style="stop-color:#7F7F7F;stop-opacity:0"/>
	</radialGradient>
	<path id="path1894_1_" opacity="0.4438" fill="url(#path1894_2_)" enable-background="new    " d="M97.309,119.597
		c0,3.543-14.816,6.416-33.091,6.416c-18.276,0-33.092-2.873-33.092-6.416c0-3.544,14.815-6.417,33.092-6.417
		C82.493,113.18,97.309,116.052,97.309,119.597z"/>
</svg>
