<svg xmlns="http://www.w3.org/2000/svg" viewBox="0 0 128 128"><path fill="#fd824e" d="M13.876 11.504C6.205 11.504 0 17.816 0 25.483v77.034c0 7.667 6.21 13.874 13.971 13.98h100.052c7.667 0 13.872-6.21 13.977-13.972v-77.05c-.105-7.663-6.305-13.971-13.977-13.971Zm0 .992h100.147c7.128 0 12.887 5.856 12.985 12.992v77.03c-.101 7.237-5.854 12.986-12.985 12.986H13.977C6.74 115.402.992 109.647.992 102.517V25.483c0-7.133 5.756-12.987 12.884-12.987zm52.052 12.14c-4.933-.74-10.076 1.454-12.843 5.959-3.689 6.008-1.788 13.922 4.22 17.61l.755.464V37.24c0-3.283 2.6-5.882 5.876-5.788h.014a5.851 5.851 0 0 1 5.89 5.89V48.75l.747-.44a12.16 12.16 0 0 0 4.332-4.331c3.682-6.007 1.782-13.914-4.223-17.601a12.694 12.694 0 0 0-4.768-1.742Zm-.15.976c1.516.229 3.011.76 4.398 1.61 5.548 3.408 7.298 10.697 3.892 16.245l-.002.004-.002.006c-.81 1.376-1.94 2.486-3.233 3.401v-9.537a6.866 6.866 0 0 0-6.876-6.88c-3.815-.104-6.887 2.97-6.887 6.78v9.414c-4.843-3.607-6.355-10.299-3.136-15.54 2.555-4.162 7.294-6.187 11.845-5.503zm-1.828 8.091c-1.89 0-3.536 1.54-3.537 3.535l-.103 26.559c0 1.89 1.543 3.536 3.539 3.536 1.89 0 3.535-1.54 3.537-3.534l.1-26.559c0-1.89-1.54-3.536-3.536-3.536zm0 .993c1.45 0 2.544 1.191 2.544 2.544l-.1 26.557c0 1.45-1.192 2.544-2.545 2.544a2.55 2.55 0 0 1-2.547-2.542v-.002l.103-26.557c0-1.45 1.191-2.544 2.545-2.544zm8.062 38.831a3.454 3.454 0 0 0-3.526 1.787c-1.033 1.738-.436 3.89 1.29 4.924l.003.002 23.095 13.268c1.654 1.063 3.897.47 4.847-1.281 1.053-1.659.458-3.903-1.302-4.843L73.34 74.024l-.004-.003a3.336 3.336 0 0 0-1.325-.494zm-16.372.045c-.46.057-.92.2-1.351.43l-.008.004L31.362 87.29l-.004.002c-1.737 1.042-2.217 3.19-1.296 4.916l.006.012.006.01c1.042 1.737 3.19 2.219 4.916 1.298l.008-.004L57.9 80.25c1.768-.943 2.356-3.201 1.307-4.95-.782-1.302-2.185-1.9-3.566-1.728zm15.252.99a2.387 2.387 0 0 1 1.912.297l.01.006 23.128 13.389.008.004c1.273.679 1.686 2.273.93 3.45l-.01.017-.01.017c-.679 1.273-2.272 1.69-3.45.932l-.01-.007-23.113-13.28-.002-.001c-1.31-.788-1.724-2.276-.944-3.576l.008-.01.006-.011a2.455 2.455 0 0 1 1.536-1.227zm-14.138.031c.637.158 1.21.565 1.6 1.217.776 1.293.351 2.885-.922 3.564l-.007.006-.008.004-22.894 13.27c-1.31.698-2.802.368-3.587-.923-.693-1.312-.365-2.808.934-3.587l22.888-13.266c.656-.35 1.359-.443 1.996-.285zm-23.518 3.1c-7.057 0-12.862 5.703-12.862 12.863 0 7.063 5.805 12.762 12.862 12.762h.008c6.947-.105 12.649-5.594 12.754-12.55l.012-.875-9.876 5.706h-.002l-.002.002c-2.807 1.588-6.452.652-8.037-2.145-1.591-2.808-.655-6.455 2.143-8.041l.002-.002 9.884-5.71-.765-.426a12.6 12.6 0 0 0-6.12-1.583zm61.427 0a12.6 12.6 0 0 0-6.12 1.584l-.766.427 9.882 5.709.002.002c2.799 1.586 3.736 5.233 2.145 8.04-1.586 2.8-5.233 3.735-8.04 2.144l-9.878-5.705.013.874c.106 6.956 5.806 12.55 12.762 12.55h.008c7.053-.105 12.854-5.8 12.854-12.863 0-7.062-5.804-12.761-12.862-12.761zm-61.427.993c1.63 0 3.234.422 4.748 1.105l-8.24 4.761c-3.28 1.862-4.368 6.12-2.513 9.392 1.86 3.283 6.12 4.374 9.393 2.52l.002-.003 8.165-4.717c-.616 5.916-5.48 10.488-11.558 10.582-6.523-.002-11.867-5.251-11.867-11.77 0-6.625 5.346-11.87 11.87-11.87zm61.427 0c6.525 0 11.87 5.25 11.87 11.77 0 6.518-5.347 11.77-11.874 11.87-6.07-.002-10.936-4.655-11.55-10.582l8.164 4.717.002.002c3.274 1.856 7.533.764 9.394-2.52 1.854-3.272.766-7.53-2.514-9.39l-.004-.003-8.238-4.76c1.515-.682 3.12-1.104 4.75-1.104z"/></svg>
