<svg xmlns="http://www.w3.org/2000/svg" viewBox="0 0 128 128"><path fill="#384745" d="M15.451 98.219v29.17h7.242V117.8l2.143-2.653 6.73 12.24h8.262l-9.996-17.747 9.486-11.422h-7.752l-7.138 8.668a21.52 21.52 0 0 0-1.836 2.754h-.205c.102-1.02.205-2.346.205-3.264v-8.158h-7.14zm26.416 0v5.404h10.71l-9.077 7.445 3.162 3.368c.918-.918 2.243-1.428 3.569-1.428 2.243 0 3.876 1.326 3.876 4.59 0 3.06-1.326 5.2-4.08 5.2-2.447 0-4.08-1.733-3.263-4.589l-6.12.918c-1.325 5.1 3.67 8.771 9.587 8.771 6.221 0 11.22-4.08 11.22-10.199 0-5.61-4.182-8.466-8.568-8.058l6.935-5.711v-5.711h-17.95zm34.27 0c-6.732 0-11.729 4.181-11.729 14.482 0 11.117 4.997 15.197 11.729 15.299 6.527 0 11.525-3.876 11.525-15.299 0-10.403-4.794-14.482-11.525-14.482zm26.824 0c-6.12 0-9.69 3.059-9.69 7.648 0 6.12 5.712 7.344 9.69 8.67 4.08 1.326 6.324 2.857 6.324 5.815 0 2.447-1.633 4.894-6.732 4.894-4.692 0-7.24-1.938-7.24-4.998 0-.51.1-1.12.304-1.63l-2.855.509c-.102.51-.203 1.02-.203 1.53 0 4.793 4.384 7.343 9.994 7.343 6.731 0 10.097-3.671 10.097-7.955 0-5.508-4.794-7.037-9.18-8.465-3.671-1.224-6.935-2.244-6.935-6.018 0-2.55 1.735-4.997 6.324-4.997 3.876 0 6.323 1.631 6.323 5.609 0 .51 0 1.12-.102 1.63l3.162-.304c.102-.51.102-.918.102-1.428 0-4.895-3.264-7.853-9.383-7.853zm-27.027 2.345c4.691 0 8.464 2.856 8.464 12.137 0 9.995-3.67 12.852-8.464 12.852-4.59 0-8.364-2.755-8.364-12.852 0-9.281 3.774-12.137 8.364-12.137z"/><path fill="#fd824e" d="M103.777 0H24.223c-5.915 0-10.709 4.794-10.709 10.71v61.296c0 5.916 4.794 10.71 10.71 10.71h79.553c5.915 0 10.71-4.794 10.71-10.71V10.71C114.485 4.794 109.691 0 103.776 0ZM39.522 72.21c-5.406 0-9.791-4.385-9.791-9.79s4.385-9.792 9.79-9.792c1.633 0 3.265.408 4.693 1.224l-7.242 4.182c-2.448 1.427-3.264 4.487-1.836 6.935 1.428 2.448 4.488 3.264 6.936 1.836l7.241-4.182a9.752 9.752 0 0 1-9.791 9.587zm19.48-18.256L40.848 64.56c-1.122.714-2.652.306-3.366-.918-.714-1.122-.306-2.652.918-3.366L56.555 49.67c1.122-.714 2.651-.306 3.365.918.714 1.122.306 2.652-.918 3.366zM58.9 20.092v8.364c-4.59-2.856-6.017-8.873-3.263-13.463 2.855-4.59 8.873-6.018 13.463-3.264 4.59 2.856 6.017 8.873 3.263 13.463a9.982 9.982 0 0 1-3.263 3.264v-8.364c0-2.855-2.244-5.1-5.1-5.1-2.754 0-5.1 2.245-5.1 5.1zm7.446 21.113c0 1.326-1.122 2.448-2.448 2.448s-2.448-1.122-2.448-2.448l.102-21.113c0-1.325 1.122-2.447 2.448-2.447s2.448 1.122 2.448 2.447zm1.632 9.383a2.584 2.584 0 0 1 3.365-.918l18.359 10.607a2.584 2.584 0 0 1 .918 3.366 2.584 2.584 0 0 1-3.366.918L68.896 53.954c-1.224-.714-1.632-2.244-.918-3.366Zm20.5 21.622c-5.304 0-9.69-4.283-9.791-9.587l7.241 4.182c2.448 1.428 5.508.612 6.936-1.836s.612-5.508-1.836-6.935l-7.242-4.182a9.475 9.475 0 0 1 4.692-1.224c5.406 0 9.791 4.386 9.791 9.791s-4.385 9.791-9.791 9.791z"/></svg>
