<svg xmlns="http://www.w3.org/2000/svg" viewBox="0 0 128 128"><path fill="#A80030" d="M73.776 67.531c-2.065.028.391 1.063 3.087 1.479.745-.581 1.421-1.169 2.023-1.741-1.679.41-3.387.419-5.11.262M84.862 64.768c1.229-1.697 2.127-3.556 2.442-5.478-.276 1.369-1.019 2.553-1.72 3.801-3.86 2.431-.363-1.443-.002-2.916-4.15 5.225-.57 3.133-.72 4.593M88.955 54.12c.249-3.72-.733-2.544-1.063-1.125.384.201.69 2.622 1.063 1.125M65.944 3.283c1.102.198 2.381.35 2.202.612 1.206-.263 1.48-.506-2.202-.612M68.146 3.896l-.779.161.725-.064.054-.097M102.518 55.53c.123 3.34-.978 4.961-1.969 7.829l-1.786.892c-1.46 2.838.142 1.802-.903 4.059-2.281 2.027-6.921 6.345-8.406 6.738-1.084-.023.734-1.278.972-1.771-3.052 2.098-2.449 3.147-7.118 4.422l-.136-.305c-11.516 5.417-27.51-5.318-27.299-19.966-.123.931-.349.697-.605 1.074-.594-7.537 3.481-15.107 10.353-18.196 6.722-3.329 14.602-1.963 19.417 2.524-2.644-3.465-7.909-7.137-14.148-6.793-6.111.097-11.828 3.98-13.735 8.196-3.132 1.972-3.495 7.6-4.859 8.628-1.835 13.491 3.453 19.318 12.398 26.175 1.407.949.396 1.093.587 1.815-2.972-1.392-5.694-3.493-7.931-6.065 1.186 1.739 2.468 3.429 4.125 4.756-2.803-.949-6.546-6.79-7.64-7.028 4.832 8.649 19.599 15.169 27.333 11.935-3.579.131-8.124.073-12.145-1.413-1.688-.869-3.984-2.669-3.574-3.007 10.553 3.944 21.456 2.988 30.586-4.333 2.323-1.81 4.861-4.887 5.594-4.93-1.105 1.661.188.8-.66 2.266 2.316-3.733-1.005-1.521 2.394-6.448l1.256 1.729c-.467-3.098 3.848-6.861 3.41-11.762.99-1.499 1.104 1.612.054 5.061 1.457-3.825.384-4.44.759-7.597.404 1.062.935 2.188 1.208 3.308-.95-3.696.975-6.226 1.45-8.373-.467-.208-1.464 1.634-1.692-2.732.034-1.896.528-.993.718-1.46-.373-.215-1.349-1.668-1.944-4.456.431-.655 1.151 1.698 1.739 1.795-.378-2.217-1.028-3.907-1.053-5.609-1.713-3.579-.606.478-1.996-1.536-1.823-5.687 1.513-1.32 1.738-3.903 2.763 4.003 4.339 10.208 5.062 12.777-.552-3.133-1.443-6.168-2.532-9.105.839.354-1.352-6.446 1.091-1.943-2.609-9.6-11.166-18.569-19.038-22.778.962.881 2.179 1.989 1.743 2.162-3.915-2.331-3.227-2.513-3.787-3.498-3.19-1.297-3.399.104-5.511.003-6.012-3.188-7.171-2.85-12.703-4.848l.252 1.177c-3.984-1.327-4.641.503-8.945.004-.263-.205 1.379-.74 2.73-.937-3.85.508-3.67-.759-7.438.14.929-.651 1.909-1.082 2.9-1.637-3.139.191-7.495 1.828-6.151.339-5.121 2.286-14.218 5.493-19.322 10.28l-.161-1.073c-2.339 2.809-10.2 8.387-10.826 12.022l-.625.146c-1.218 2.06-2.004 4.396-2.97 6.517-1.592 2.713-2.334 1.044-2.107 1.469-3.132 6.349-4.687 11.683-6.03 16.057.958 1.432.022 8.614.385 14.364-1.572 28.394 19.928 55.962 43.43 62.329 3.445 1.23 8.567 1.184 12.924 1.311-5.141-1.471-5.806-.778-10.813-2.525-3.614-1.701-4.405-3.644-6.964-5.864l1.014 1.79c-5.019-1.775-2.918-2.198-7.002-3.491l1.083-1.412c-1.627-.123-4.309-2.74-5.042-4.191l-1.779.07c-2.138-2.638-3.277-4.538-3.194-6.011l-.575 1.024c-.652-1.119-7.865-9.893-4.123-7.85-.696-.637-1.62-1.035-2.622-2.856l.762-.871c-1.802-2.316-3.315-5.287-3.2-6.276.96 1.298 1.627 1.54 2.287 1.763-4.548-11.285-4.803-.622-8.248-11.487l.729-.059c-.559-.842-.898-1.756-1.347-2.652l.316-3.161c-3.274-3.786-.916-16.098-.443-22.851.328-2.746 2.733-5.669 4.563-10.252l-1.114-.192c2.131-3.717 12.167-14.928 16.815-14.351 2.251-2.829-.446-.011-.886-.723 4.945-5.119 6.5-3.617 9.838-4.537 3.6-2.137-3.089.833-1.383-.815 6.223-1.589 4.41-3.613 12.528-4.42.857.487-1.987.752-2.701 1.385 5.185-2.536 16.408-1.959 23.697 1.408 8.458 3.952 17.961 15.638 18.336 26.631l.427.114c-.216 4.37.669 9.424-.865 14.066l1.043-2.201M51.233 70.366l-.29 1.448c1.357 1.845 2.435 3.843 4.167 5.283-1.246-2.434-2.173-3.44-3.877-6.731M54.441 70.24c-.718-.795-1.144-1.751-1.62-2.704.456 1.675 1.388 3.114 2.255 4.578l-.635-1.874M111.226 57.897l-.304.762c-.556 3.951-1.757 7.861-3.599 11.487 2.035-3.825 3.35-8.009 3.903-12.249M66.353 2.293c1.396-.513 3.433-.281 4.914-.617-1.93.162-3.852.259-5.75.503l.836.114M17.326 28.362c.322 2.979-2.242 4.135.567 2.171 1.506-3.39-.588-.935-.567-2.171M14.025 42.15c.646-1.986.764-3.18 1.011-4.328-1.788 2.285-.823 2.773-1.011 4.328"/></svg>