<?xml version="1.0" encoding="utf-8"?>
<!-- Generator: Adobe Illustrator 16.0.0, SVG Export Plug-In . SVG Version: 6.00 Build 0)  -->
<!DOCTYPE svg PUBLIC "-//W3C//DTD SVG 1.1//EN" "http://www.w3.org/Graphics/SVG/1.1/DTD/svg11.dtd">
<svg version="1.1" id="Layer_1" xmlns="http://www.w3.org/2000/svg" xmlns:xlink="http://www.w3.org/1999/xlink" x="0px" y="0px"
	 width="500px" height="500px" viewBox="0 0 500 500" enable-background="new 0 0 500 500" xml:space="preserve">
<g>
	<rect x="5.5" y="5.5" fill="#F0DB4F" width="489" height="489"/>
	<path fill="#323330" d="M454.478,377.875c-3.58-22.312-18.128-41.045-61.218-58.522c-14.967-6.88-31.654-11.806-36.628-23.147
		c-1.767-6.602-1.999-10.319-0.883-14.318c3.208-12.968,18.686-17.012,30.958-13.293c7.902,2.648,15.386,8.739,19.895,18.453
		c21.104-13.666,21.056-13.572,35.792-22.963c-5.393-8.366-8.275-12.225-11.807-15.804c-12.69-14.177-29.981-21.475-57.639-20.917
		c-4.788,0.604-9.622,1.255-14.41,1.86c-13.805,3.486-26.96,10.737-34.676,20.452c-23.149,26.264-16.547,72.234,11.621,91.153
		c27.75,20.824,68.517,25.565,73.722,45.042c5.067,23.845-17.524,31.561-39.975,28.819c-16.548-3.439-25.752-11.854-35.7-27.146
		c-18.313,10.598-18.313,10.598-37.139,21.428c4.462,9.762,9.157,14.178,16.641,22.637c35.42,35.931,124.063,34.166,139.959-20.22
		C453.642,409.53,457.918,397.072,454.478,377.875z M271.336,230.245h-45.74c0,39.51-0.186,78.741-0.186,118.252
		c0,25.147,1.302,48.203-2.789,55.27c-6.694,13.897-24.032,12.178-31.935,9.481c-8.042-3.951-12.132-9.575-16.873-17.523
		c-1.301-2.278-2.278-4.044-2.604-4.184c-12.411,7.576-24.775,15.2-37.187,22.776c6.182,12.69,15.293,23.707,26.96,30.864
		c17.432,10.458,40.858,13.666,65.355,8.041c15.943-4.647,29.703-14.27,36.907-28.911c10.412-19.198,8.181-42.439,8.088-68.145
		C271.568,314.239,271.336,272.312,271.336,230.245z"/>
</g>
</svg>
