<svg viewBox="0 0 128 128" xmlns="http://www.w3.org/2000/svg"><path d="M0 41v46h29.205V41H0zm57.547 17.6l-1.899.35v21.855c.564.195 1.286.38 2.16.554.877.176 1.987.262 3.33.262 1.11 0 2.118-.179 3.024-.539a6.53 6.53 0 002.336-1.562c.652-.681 1.159-1.51 1.52-2.485.36-.974.54-2.074.54-3.3 0-1.15-.152-2.207-.453-3.17-.302-.964-.746-1.796-1.33-2.497a6.028 6.028 0 00-2.144-1.636c-.847-.39-1.816-.584-2.906-.584-.992 0-1.854.14-2.584.422-.732.282-1.26.551-1.592.804l-.002-.002V58.6zM19.084 60.78a3.024 3.024 0 013.209 3.02 3.024 3.024 0 01-6.049 0 3.024 3.024 0 012.352-2.95 3.024 3.024 0 01.488-.07zm17.426.244v12.739a11.77 11.77 0 00.392 3.111 6.782 6.782 0 001.272 2.527c.584.721 1.348 1.286 2.293 1.696.943.409 2.085.613 3.43.613h.005c1.342 0 2.485-.203 3.43-.613.944-.41 1.709-.975 2.293-1.696.584-.72 1.007-1.563 1.27-2.527.264-.964.394-2 .394-3.111V61.025h-1.986v12.477c0 1.111-.132 2.07-.395 2.879-.263.808-.627 1.474-1.096 2a4.283 4.283 0 01-1.693 1.168c-.662.253-1.403.38-2.22.38-.818 0-1.556-.125-2.22-.378a4.274 4.274 0 01-1.695-1.17c-.468-.525-.83-1.192-1.093-2-.264-.81-.397-1.769-.397-2.879V61.025H36.51zm-21.399.055c.237.001.474.013.711.031a4.375 4.375 0 00-.918 2.453 7.377 7.377 0 00-5.935 3.178 4.302 4.302 0 00-1.381-.556 4.3 4.3 0 00-.914-.098 3.6 3.6 0 00-.23.006c1.763-3.114 5.122-5.034 8.667-5.014zm90.26.297l-1.898.35v13.908c0 1.013.076 1.89.232 2.63.156.74.425 1.36.805 1.854.379.496.884.867 1.517 1.11.632.244 1.417.367 2.352.367a7.07 7.07 0 002.22-.336c.682-.225 1.157-.425 1.43-.6l-.466-1.578a8.455 8.455 0 01-1.14.512c-.487.185-1.13.277-1.929.277-.468 0-.893-.048-1.283-.146a1.987 1.987 0 01-.994-.584c-.273-.292-.481-.707-.627-1.243-.147-.536-.22-1.231-.22-2.09v-8.035h6.017v-1.605h-6.016v-4.791zm-82.078 4.135a9.92 9.92 0 011.426 7.535 9.913 9.913 0 01-1.92 4.074h-.002a4.342 4.342 0 00-1.445-2.252c.445-.72.759-1.508.939-2.344a7.402 7.402 0 00-.7-5.021 4.356 4.356 0 001.702-1.992zm70.244.365c-1.383 0-2.55.099-3.504.293a36.256 36.256 0 00-2.277.525v14.576h1.898V68.008c.194-.078.617-.166 1.27-.264a16.17 16.17 0 012.322-.146c.84 0 1.535.102 2.09.306a2.841 2.841 0 011.342 1.01c.34.467.585 1.07.73 1.81.147.742.22 1.648.22 2.72v7.83h1.897V72.83c0-1.032-.096-1.976-.29-2.834-.195-.856-.522-1.593-.98-2.207-.458-.613-1.07-1.086-1.839-1.416-.771-.332-1.73-.496-2.879-.496zm-21.738.291v8.473c0 1.032.101 1.977.306 2.834.203.856.54 1.586 1.006 2.19.468.604 1.08 1.073 1.84 1.403.76.332 1.704.496 2.834.496 1.383 0 2.55-.097 3.504-.29a35.43 35.43 0 002.28-.526v-.002h-.003V66.168H81.67v13.264c-.175.078-.594.166-1.256.263-.664.098-1.443.147-2.338.147-.8 0-1.474-.104-2.03-.309a2.97 2.97 0 01-1.357-.992c-.35-.457-.604-1.057-.76-1.797-.154-.74-.234-1.645-.234-2.717v-7.859H71.8zm42.238 0v8.473c0 1.032.102 1.977.307 2.834.204.856.54 1.586 1.008 2.19.468.604 1.08 1.073 1.84 1.403.758.332 1.701.496 2.831.496 1.383 0 2.552-.097 3.506-.29a35.36 35.36 0 002.278-.526v-14.58h-1.899v13.264c-.174.078-.594.166-1.256.263-.663.098-1.44.147-2.336.147-.799 0-1.476-.104-2.03-.309a2.98 2.98 0 01-1.358-.992c-.35-.457-.604-1.057-.76-1.797-.155-.74-.232-1.645-.232-2.717v-7.859h-1.899zM6.676 67.408a3.024 3.024 0 11.002 6.047 3.024 3.024 0 01-.002-6.047zm54.875.162c.934 0 1.716.166 2.35.496a4.243 4.243 0 011.533 1.33c.39.554.672 1.208.847 1.958.176.752.264 1.543.264 2.38 0 1.987-.497 3.512-1.49 4.573-.993 1.062-2.308 1.591-3.944 1.591-.934 0-1.69-.041-2.263-.128-.574-.087-1.008-.18-1.301-.278v-10.58a6.32 6.32 0 011.576-.875 7.4 7.4 0 011.14-.338 6.168 6.168 0 011.288-.129zM8.477 74.387a7.36 7.36 0 005.02 3.83h.001a7.268 7.268 0 00.742.12 4.33 4.33 0 00.885 2.528 9.931 9.931 0 01-2.146-.22 9.844 9.844 0 01-7.088-5.942 4.35 4.35 0 002.586-.316zm10.517.85a3.024 3.024 0 012.62 2.995 3.024 3.024 0 11-6.05.002 3.024 3.024 0 012.352-2.949 3.024 3.024 0 011.078-.049z"/></svg>
