<?xml version="1.0" encoding="utf-8"?>
<!-- Generator: Adobe Illustrator 16.0.0, SVG Export Plug-In . SVG Version: 6.00 Build 0)  -->
<!DOCTYPE svg PUBLIC "-//W3C//DTD SVG 1.1//EN" "http://www.w3.org/Graphics/SVG/1.1/DTD/svg11.dtd">
<svg version="1.1" id="Layer_1" xmlns="http://www.w3.org/2000/svg" xmlns:xlink="http://www.w3.org/1999/xlink" x="0px" y="0px"
	 width="500px" height="500px" viewBox="0 0 500 500" enable-background="new 0 0 500 500" xml:space="preserve">
<g>
	<path fill="#DD4814" d="M250.001,17.835c-91.301,0-165.312,74.012-165.312,165.311c0,91.293,74.01,165.308,165.312,165.308
		c91.299,0,165.311-74.015,165.311-165.308C415.312,91.847,341.301,17.835,250.001,17.835z M287.091,74.763
		c6.1-10.558,19.59-14.175,30.146-8.085c10.558,6.099,14.169,19.59,8.071,30.146c-6.09,10.557-19.583,14.169-30.139,8.071
		C284.619,98.806,281.001,85.312,287.091,74.763z M249.999,87.266c8.875,0,17.459,1.231,25.615,3.483
		c1.438,8.869,6.701,17.039,15.095,21.883c8.379,4.83,18.071,5.313,26.463,2.145c16.319,16.049,26.94,37.874,28.488,62.187
		l-31.449,0.464c-2.901-32.932-30.532-58.752-64.21-58.752c-9.703,0-18.906,2.154-27.156,5.995l-15.337-27.481
		C220.316,90.849,234.741,87.266,249.999,87.266z M137.594,205.216c-12.195,0-22.075-9.883-22.075-22.07
		c0-12.194,9.88-22.075,22.075-22.075c12.188,0,22.068,9.881,22.068,22.075C159.662,195.333,149.782,205.216,137.594,205.216z
		 M157.16,207.18c6.967-5.686,11.427-14.34,11.427-24.036c0-9.7-4.46-18.355-11.427-24.04c5.972-23.1,20.339-42.824,39.648-55.733
		l16.137,27.027c-16.577,11.667-27.41,30.937-27.41,52.748c0,21.811,10.833,41.079,27.41,52.741l-16.137,27.034
		C177.491,250.013,163.123,230.286,157.16,207.18z M317.237,299.599c-10.557,6.097-24.047,2.48-30.138-8.078
		c-6.099-10.551-2.479-24.042,8.078-30.139c10.548-6.092,24.048-2.472,30.138,8.078
		C331.413,280.017,327.793,293.508,317.237,299.599z M317.173,251.508c-8.392-3.169-18.079-2.695-26.463,2.144
		c-8.392,4.854-13.655,13.014-15.095,21.883c-8.155,2.259-16.739,3.492-25.614,3.492c-15.259,0-29.683-3.585-42.491-9.931
		l15.336-27.481c8.249,3.838,17.452,5.998,27.155,5.998c33.679,0,61.309-25.815,64.203-58.754l31.457,0.463
		C344.113,213.634,333.493,235.459,317.173,251.508z"/>
	<path fill="#DD4814" d="M69,467.83c-1,0.208-1.396,0.386-2.576,0.54c-1.182,0.153-2.509,0.307-3.947,0.461
		c-1.441,0.156-2.992,0.284-4.634,0.385c-1.645,0.105-3.241,0.157-4.782,0.157c-7.3,0-12.42-2.107-15.503-6.323
		C34.474,458.838,33,451.849,33,442.083V400H19v45.167c0,5.449,0.324,10.406,1.456,14.876c1.131,4.47,2.86,8.351,5.431,11.64
		c2.567,3.291,5.899,5.835,10.115,7.634c4.213,1.794,9.375,2.695,15.541,2.695c7.093,0,13.185-0.461,18.582-1.387
		c5.395-0.924,9.876-1.799,12.876-2.62V400H69V467.83z"/>
	<path fill="#DD4814" d="M165.133,410.017c-3.082-3.701-6.859-6.578-11.33-8.634c-4.473-2.056-9.585-3.082-15.341-3.082
		c-4.624,0-8.843,0.615-12.39,1.85c-3.545,1.233-6.072,2.417-8.072,3.545v-43.012l-14,2.467v114.853
		c3,0.927,7.466,1.851,12.605,2.775c5.138,0.925,11.03,1.387,17.711,1.387c6.168,0,11.709-0.979,16.644-2.929
		c4.932-1.951,9.14-4.727,12.636-8.325c3.494-3.597,6.189-7.99,8.091-13.18c1.899-5.189,2.851-11.025,2.851-17.5
		c0-6.166-0.798-11.817-2.39-16.956C170.553,418.136,168.216,413.718,165.133,410.017z M152.646,461.893
		c-4.625,5.088-10.791,7.633-18.5,7.633c-3.907,0-7.302-0.179-9.922-0.54c-2.621-0.358-4.223-0.743-6.223-1.155v-50.725
		c2-1.438,4.398-2.824,7.688-4.16c3.287-1.335,6.951-2.007,10.858-2.007c4.109,0,7.664,0.747,10.594,2.235
		c2.929,1.493,5.335,3.548,7.186,6.169c1.85,2.621,3.193,5.729,4.015,9.326c0.822,3.601,1.239,7.454,1.239,11.563
		C159.58,449.587,157.271,456.805,152.646,461.893z"/>
	<path fill="#DD4814" d="M240,467.83c0,0.208-1.259,0.386-2.439,0.54c-1.182,0.153-2.439,0.307-3.878,0.461
		c-1.44,0.156-2.956,0.284-4.599,0.385c-1.645,0.105-3.225,0.157-4.766,0.157c-7.299,0-12.548-2.107-15.632-6.323
		c-3.083-4.212-4.686-11.201-4.686-20.967V400h-14v45.166c0,5.449,0.463,10.405,1.595,14.877c1.131,4.47,2.928,8.351,5.5,11.64
		c2.568,3.291,5.935,5.835,10.15,7.634c4.214,1.794,9.391,2.695,15.559,2.695c7.092,0,13.553-0.461,18.95-1.387
		c5.395-0.924,9.246-1.799,13.246-2.62V400h-15V467.83z"/>
	<path fill="#DD4814" d="M333.095,408.707c-2.521-3.238-5.886-5.754-10.099-7.555c-4.215-1.796-9.506-2.696-15.879-2.696
		c-7.092,0-13.464,0.461-18.911,1.385c-5.449,0.927-10.207,1.801-13.207,2.623V480h15v-67.362c0-0.099,1.134-0.254,2.316-0.46
		c1.178-0.205,2.399-0.387,3.893-0.54c1.489-0.154,3-0.283,4.644-0.387c1.642-0.102,3.208-0.154,4.75-0.154
		c3.801,0,6.973,0.489,9.543,1.466s4.62,2.544,6.16,4.703c1.544,2.157,2.833,4.984,3.503,8.478c0.666,3.495,1.189,7.71,1.189,12.64
		V480h14v-44.697c0-5.448-0.538-10.433-1.564-14.957C337.408,415.826,335.61,411.944,333.095,408.707z"/>
	<path fill="#DD4814" d="M398.383,467.907c-2.569,0.978-6.064,1.466-10.483,1.466c-2.467,0-4.624-0.311-6.474-0.928
		c-1.852-0.615-3.392-1.668-4.626-3.159c-1.233-1.49-2.208-3.545-2.825-6.168c-0.617-2.62-0.975-5.935-0.975-9.942V412h30v-12h-30
		v-24.671l-14,2.467v71.534c0,5.346,0.316,10.048,1.191,14.105c0.872,4.062,2.33,7.477,4.488,10.253s4.98,4.856,8.527,6.243
		c3.547,1.388,8.027,2.081,13.475,2.081c4.626,0,8.753-0.566,12.402-1.696c3.647-1.129,6.188-2.054,7.627-2.773l-3.083-11.718
		C402.701,466.237,400.951,466.932,398.383,467.907z"/>
	<path fill="#DD4814" d="M467,400v67.83c0,0.208-1.294,0.386-2.474,0.54c-1.184,0.153-2.458,0.307-3.896,0.461
		c-1.439,0.156-2.965,0.284-4.607,0.385c-1.646,0.105-3.229,0.157-4.771,0.157c-7.299,0-12.516-2.107-15.598-6.323
		c-3.085-4.212-4.654-11.201-4.654-20.967V400h-14v45.166c0,5.449,0.428,10.405,1.561,14.877c1.13,4.47,2.911,8.351,5.48,11.64
		c2.568,3.291,5.926,5.835,10.142,7.634c4.215,1.794,9.387,2.695,15.554,2.695c7.094,0,13.087-0.461,18.485-1.387
		c5.394-0.924,9.778-1.799,12.778-2.62V400H467z"/>
</g>
</svg>
