<svg xmlns="http://www.w3.org/2000/svg" viewBox="0 0 128 128"><path fill="#DD4814" d="M64.02 1.596c-24.36 0-44.107 19.747-44.107 44.107 0 24.356 19.747 44.105 44.107 44.105 24.359 0 44.106-19.749 44.106-44.105 0-24.36-19.747-44.107-44.106-44.107zm9.896 15.19a5.887 5.887 0 1110.199 5.88 5.887 5.887 0 01-10.199-5.88zm-9.896 3.335c2.368 0 4.658.328 6.834.929a8.244 8.244 0 004.027 5.839 8.254 8.254 0 007.06.572c4.354 4.282 7.188 10.105 7.602 16.592l-8.392.123c-.774-8.786-8.146-15.675-17.131-15.675-2.589 0-5.044.575-7.246 1.6l-4.092-7.333a25.484 25.484 0 0111.338-2.647zm-29.992 31.47a5.89 5.89 0 11-.001-11.779 5.89 5.89 0 01.001 11.779zm5.222.524a8.261 8.261 0 003.048-6.413 8.264 8.264 0 00-3.048-6.415c1.593-6.163 5.426-11.425 10.578-14.87l4.305 7.211c-4.423 3.112-7.313 8.254-7.313 14.074 0 5.818 2.89 10.959 7.313 14.07l-4.305 7.213c-5.154-3.443-8.988-8.705-10.578-14.87zm42.709 24.658a5.884 5.884 0 01-8.041-2.156 5.887 5.887 0 118.041 2.156zm-.018-12.831a8.252 8.252 0 00-7.06.572 8.254 8.254 0 00-4.027 5.839 25.59 25.59 0 01-6.834.931c-4.071 0-7.919-.957-11.337-2.649l4.092-7.332a17.138 17.138 0 007.246 1.6c8.985 0 16.357-6.888 17.13-15.676l8.393.123c-.414 6.487-3.248 12.31-7.603 16.592zM16 121.659c-1 .055-.509.103-.823.144-.315.042-.738.082-1.122.123-.384.042-.832.076-1.271.103-.439.028-.882.042-1.293.042-1.947 0-3.383-.562-4.206-1.687C6.462 119.26 6 117.394 6 114.789V104H3v11.612c0 1.454-.22 2.777.082 3.969.302 1.192.61 2.228 1.295 3.105.685.878 1.498 1.556 2.623 2.037 1.123.478 2.462.719 4.107.719 1.893 0 3.269-.123 4.708-.37 1.439-.246 2.184-.48 3.184-.699V104h-3v17.659zm25.376-15.426a8.505 8.505 0 00-3.023-2.303c-1.193-.548-2.557-.823-4.093-.823-1.233 0-2.26.164-3.206.494-.946.329-1.054.645-2.054.945V93.071l-4 .659v30.644c0 .247 2.025.494 3.396.74 1.372.247 2.96.37 4.742.37 1.646 0 3.133-.262 4.449-.782 1.316-.521 2.442-1.261 3.375-2.221.932-.96 1.653-2.132 2.161-3.516.507-1.386.762-2.943.762-4.67 0-1.645-.213-3.153-.638-4.524-.425-1.371-1.048-2.55-1.871-3.538zm-3.331 13.841c-1.234 1.358-2.879 2.037-4.937 2.037-1.042 0-1.848-.048-2.548-.144-.699-.096-.561-.199-1.561-.309v-13.534c1-.384 1.073-.754 1.951-1.11.878-.356 1.805-.535 2.849-.535 1.096 0 2.02.199 2.801.596a5.164 5.164 0 011.905 1.646c.493.699.845 1.529 1.065 2.489.22.961.327 1.989.327 3.085 0 2.497-.619 4.422-1.852 5.779zM61 121.659c0 .055-.161.103-.476.144-.315.042-.563.082-.947.123-.384.042-.745.076-1.183.103-.438.028-.838.042-1.249.042-1.948 0-3.209-.562-4.032-1.687-.823-1.124-1.113-2.99-1.113-5.595V104h-4v11.612c0 1.454.129 2.776.431 3.969.302 1.192.785 2.228 1.471 3.105.685.878 1.584 1.556 2.709 2.037 1.125.478 2.507.719 4.153.719 1.892 0 3.439-.123 4.879-.37 1.439-.246 2.357-.48 3.357-.699V104h-4v17.659zm25.19-15.775c-.673-.864-1.57-1.535-2.694-2.015-1.125-.479-2.537-.72-4.237-.72-1.892 0-3.937.123-5.39.37-1.455.247-2.869.48-3.869.7V124h4v-17.067l.964-.123c.314-.055.813-.103 1.211-.145.397-.041.887-.076 1.326-.103a21.91 21.91 0 011.311-.041c1.014 0 1.882.13 2.567.391.687.26 1.244.679 1.655 1.254.412.575.613 1.329.792 2.262.177.932.174 2.057.174 3.372V124h4v-11.021c0-1.453-.127-2.783-.401-3.991-.275-1.205-.738-2.24-1.409-3.104zm17.419 15.795c-.685.26-1.618.391-2.797.391-.658 0-1.234-.083-1.727-.247a2.654 2.654 0 01-1.234-.843c-.329-.398-1.008-.945-1.172-1.646-.165-.699-.679-1.584-.679-2.652V107h9v-3h-9v-7.022l-3 .659v19.085c0 1.427.135 2.681.368 3.764.233 1.084.647 1.995 1.223 2.736.576.74 1.341 1.295 2.288 1.665.946.371 2.148.556 3.603.556 1.234 0 2.338-.151 3.312-.453s1.652-.547 2.037-.74l-.821-3.127c-.249.11-.716.295-1.401.556zM122 104v17.659c0 .055-.387.103-.701.144-.315.042-.678.082-1.061.123-.384.042-.801.076-1.239.103-.439.028-.867.042-1.278.042-1.947 0-3.498-.562-4.32-1.687-.823-1.124-1.4-2.989-1.4-5.595V104h-3v11.612c0 1.454-.098 2.776.205 3.969.301 1.192.67 2.228 1.356 3.105a6.514 6.514 0 002.652 2.037c1.125.478 2.479.719 4.124.719 1.893 0 3.153-.123 4.593-.37 1.439-.246 2.05-.48 3.07-.699V104H122z"/></svg>