<svg viewBox="0 0 128 128" xmlns="http://www.w3.org/2000/svg"><path d="M43.897 81.711c-1.344 0-2.488-.204-3.431-.613-.945-.41-1.709-.974-2.293-1.695a6.782 6.782 0 0 1-1.27-2.528 11.77 11.77 0 0 1-.394-3.112V61.025h1.986v12.476c0 1.11.131 2.07.395 2.879.263.808.627 1.475 1.095 2a4.274 4.274 0 0 0 1.694 1.17c.663.253 1.403.379 2.22.379.818 0 1.558-.127 2.22-.38a4.283 4.283 0 0 0 1.694-1.168c.468-.526.833-1.193 1.096-2.001.263-.809.394-1.768.394-2.879V61.025h1.987v12.738c0 1.111-.131 2.148-.395 3.112-.263.964-.686 1.807-1.27 2.528-.584.721-1.348 1.286-2.292 1.695-.945.41-2.089.613-3.431.613h-.005Zm13.65-14.637c.332-.253.861-.521 1.593-.804.73-.282 1.592-.423 2.584-.423 1.09 0 2.059.194 2.906.584.847.39 1.562.935 2.146 1.637.584.701 1.027 1.534 1.329 2.497.301.964.453 2.02.453 3.17 0 1.227-.18 2.327-.54 3.301-.361.974-.867 1.802-1.519 2.483a6.53 6.53 0 0 1-2.337 1.563c-.906.36-1.913.54-3.023.54-1.344 0-2.454-.087-3.33-.263-.875-.174-1.596-.36-2.16-.555V58.949l1.897-.35v8.473l.002.002Zm0 12.418c.293.097.726.19 1.3.277.574.087 1.33.13 2.264.13 1.636 0 2.95-.53 3.943-1.592.993-1.061 1.49-2.585 1.49-4.572 0-.837-.087-1.63-.263-2.382-.175-.75-.458-1.403-.848-1.957a4.243 4.243 0 0 0-1.533-1.33c-.633-.33-1.416-.496-2.35-.496-.45 0-.877.043-1.286.13a7.4 7.4 0 0 0-1.14.337 6.32 6.32 0 0 0-1.577.876v10.579Zm26.021 1.256a35.43 35.43 0 0 1-2.278.525c-.954.194-2.122.292-3.505.292-1.13 0-2.074-.165-2.833-.497-.76-.33-1.372-.798-1.84-1.403-.467-.603-.804-1.334-1.007-2.19-.205-.857-.307-1.802-.307-2.834v-8.473h1.898v7.859c0 1.072.078 1.977.233 2.717.155.74.41 1.34.76 1.797.35.457.804.788 1.358.993.555.205 1.23.307 2.03.307.895 0 1.673-.048 2.337-.146.662-.097 1.08-.185 1.255-.263V66.167h1.898v14.58h.001Zm4.187-14.053a36.256 36.256 0 0 1 2.278-.526c.954-.194 2.122-.292 3.505-.292 1.149 0 2.107.165 2.878.497.769.33 1.381.803 1.84 1.416.457.614.784 1.35.978 2.206.195.858.292 1.802.292 2.834v8.443h-1.898v-7.83c0-1.071-.073-1.977-.22-2.718-.145-.74-.389-1.344-.73-1.811a2.841 2.841 0 0 0-1.343-1.009c-.555-.204-1.25-.307-2.089-.307-.895 0-1.67.05-2.322.146-.653.098-1.076.186-1.27.264v13.264h-1.898v-14.58l-.001.003Zm17.614-.527h6.017v1.606h-6.017v8.035c0 .858.073 1.554.22 2.09.146.536.355.95.628 1.242.272.292.603.487.993.584.39.098.817.146 1.285.146.798 0 1.44-.092 1.928-.277a8.455 8.455 0 0 0 1.139-.512l.468 1.578c-.273.175-.75.375-1.431.6a7.07 7.07 0 0 1-2.22.335c-.935 0-1.719-.122-2.351-.366-.633-.243-1.139-.614-1.518-1.11-.38-.495-.648-1.114-.804-1.854-.156-.741-.233-1.617-.233-2.63V61.726l1.898-.35v4.792h-.002Zm20.438 14.58a35.36 35.36 0 0 1-2.278.525c-.954.194-2.122.292-3.505.292-1.13 0-2.074-.165-2.833-.497-.759-.33-1.372-.798-1.84-1.403-.467-.603-.803-1.334-1.007-2.19-.205-.857-.307-1.802-.307-2.834v-8.473h1.898v7.859c0 1.072.078 1.977.233 2.717.156.74.41 1.34.76 1.797a2.98 2.98 0 0 0 1.358.993c.555.205 1.231.307 2.03.307.895 0 1.674-.048 2.337-.146.662-.097 1.081-.185 1.255-.263V66.167h1.898v14.58h.001Z"/><path d="M29.205 41H0v46h29.205V41Z" fill="#E95420"/><path d="M6.678 73.455a3.024 3.024 0 1 0-.002-6.047 3.024 3.024 0 0 0 .002 6.047Zm12.592-6.632a3.024 3.024 0 1 0-.002-6.048 3.024 3.024 0 0 0 .001 6.048Zm-5.773 11.393a7.36 7.36 0 0 1-5.021-3.831 4.35 4.35 0 0 1-2.585.317 9.844 9.844 0 0 0 7.087 5.942 9.931 9.931 0 0 0 2.147.22 4.33 4.33 0 0 1-.885-2.528 7.272 7.272 0 0 1-.742-.12Zm5.093 3.041a3.024 3.024 0 1 0-.001-6.048 3.024 3.024 0 0 0 0 6.048Zm4.207-4.136a9.912 9.912 0 0 0 1.92-4.076 9.92 9.92 0 0 0-1.425-7.534 4.356 4.356 0 0 1-1.7 1.992 7.402 7.402 0 0 1 .699 5.022 7.391 7.391 0 0 1-.94 2.344 4.342 4.342 0 0 1 1.447 2.254l-.001-.002ZM6.445 66.093a4.3 4.3 0 0 1 1.143.092c.492.106.956.292 1.38.557a7.377 7.377 0 0 1 5.937-3.178 4.375 4.375 0 0 1 .917-2.453c-3.802-.301-7.497 1.662-9.379 4.983l.002-.001Z" fill="#fff"/></svg>
