<svg xmlns="http://www.w3.org/2000/svg" viewBox="0 0 128 128"><path fill="#DD4814" d="M64 3.246C30.445 3.246 3.245 30.446 3.245 64c0 33.552 27.2 60.754 60.755 60.754 33.554 0 60.755-27.202 60.755-60.754 0-33.554-27.2-60.754-60.755-60.754zm13.631 20.922a8.108 8.108 0 1114.046 8.108A8.105 8.105 0 0180.6 35.243a8.11 8.11 0 01-2.969-11.075zM64 28.763c3.262 0 6.417.453 9.414 1.281a11.357 11.357 0 005.548 8.042 11.378 11.378 0 009.725.789c5.998 5.898 9.901 13.919 10.47 22.854l-11.558.17C86.532 49.796 76.377 40.306 64 40.306a23.6 23.6 0 00-9.98 2.203L48.383 32.41A35.116 35.116 0 0164 28.763zM22.689 72.112A8.112 8.112 0 0114.576 64a8.111 8.111 0 018.113-8.113 8.113 8.113 0 010 16.225zm7.191.722A11.377 11.377 0 0034.08 64c0-3.565-1.639-6.747-4.2-8.836 2.194-8.489 7.475-15.738 14.571-20.483l5.931 9.934C44.29 48.902 40.308 55.984 40.308 64s3.981 15.098 10.074 19.383l-5.931 9.937c-7.099-4.744-12.38-11.995-14.571-20.486zm58.831 33.964a8.105 8.105 0 01-11.077-2.969c-2.241-3.877-.911-8.835 2.969-11.076 3.877-2.239 8.838-.908 11.077 2.969a8.106 8.106 0 01-2.969 11.076zm-.024-17.673a11.357 11.357 0 00-9.725.788 11.36 11.36 0 00-5.547 8.042A35.232 35.232 0 0164 99.239a35.097 35.097 0 01-15.616-3.649l5.636-10.1A23.6 23.6 0 0064 87.694c12.378 0 22.532-9.488 23.596-21.592l11.561.169c-.569 8.935-4.472 16.956-10.47 22.854z"/></svg>