<svg xmlns="http://www.w3.org/2000/svg" viewBox="0 0 128 128"><defs><clipPath id="a"><path d="M0 45.867h128v36.559H0Zm0 0"/></clipPath></defs><path fill="#85ea2d" d="M15.766 76.648C7.473 76.648.75 69.926.75 61.633c.004-8.29 6.723-15.012 15.016-15.012S30.78 53.344 30.78 61.633c0 8.293-6.722 15.015-15.015 15.015Zm0 0"/><g clip-path="url(#a)"><path fill="#173647" d="M15.766 45.871C7.059 45.867 0 52.926 0 61.637c0 8.707 7.059 15.765 15.766 15.765S31.53 70.344 31.53 61.637c0-8.711-7.058-15.766-15.765-15.766Zm0 1.5c7.879 0 14.261 6.383 14.265 14.262 0 7.879-6.386 14.265-14.261 14.265-7.88 0-14.266-6.386-14.266-14.261 0-7.88 6.383-14.266 14.262-14.266Zm27.808 6.02c-1.375 0-2.484.328-3.32.984A3.22 3.22 0 0 0 39 57.031c-.04.938.266 1.856.863 2.578.578.657 1.535 1.227 2.88 1.707.737.246 1.456.555 2.148.918.398.207.746.512 1.004.88.214.374.32.8.3 1.23a2.082 2.082 0 0 1-.847 1.77c-.567.425-1.41.636-2.528.636-.695 0-1.39-.07-2.07-.215a10.188 10.188 0 0 1-1.938-.594v1.618c.922.441 2.239.66 3.95.66 1.578 0 2.828-.352 3.75-1.063a3.533 3.533 0 0 0 1.383-2.969 3.42 3.42 0 0 0-.852-2.41c-.57-.62-1.613-1.199-3.125-1.738a11.778 11.778 0 0 1-2.008-.883 2.61 2.61 0 0 1-.933-.875 2.415 2.415 0 0 1-.274-1.234 1.878 1.878 0 0 1 .75-1.586 3.33 3.33 0 0 1 2.078-.57c1.2.011 2.38.27 3.473.75l.527-1.465a9.832 9.832 0 0 0-3.957-.785ZM11 53.578a8.713 8.713 0 0 0-.555.004c-1.293.074-2.066.684-2.28 1.938a27.253 27.253 0 0 0-.188 2.648 8.88 8.88 0 0 1-.153 1.363c-.176.801-.52 1.051-1.332 1.094a2.95 2.95 0 0 0-.324.05v1.923c1.48.074 1.68.597 1.8 2.14.044.567-.019 1.13.016 1.696a9.77 9.77 0 0 0 .211 1.574c.336 1.41 1.715 1.887 3.383 1.601v-1.687c-.27 0-.508.008-.734 0-.567-.02-.778-.156-.832-.703-.075-.703-.055-1.418-.098-2.125-.086-1.317-.23-2.614-1.516-3.453a2.992 2.992 0 0 0 1.293-1.836c.106-.535.176-1.078.215-1.625.04-.547-.027-1.102.024-1.645.078-.87.133-1.226 1.183-1.191.157 0 .309-.024.485-.035v-1.727c-.211 0-.407 0-.598-.004Zm9.977.012a5.482 5.482 0 0 0-1.07.082v1.672c.323 0 .57 0 .82.004.43.007.757.172.8.652.043.434.043.879.082 1.32.086.88.137 1.77.286 2.637a2.744 2.744 0 0 0 1.234 1.684c-1.07.722-1.387 1.754-1.442 2.91-.03.797-.046 1.594-.09 2.398-.035.727-.292.961-1.023.98-.207.008-.406.024-.637.036v1.719c.43 0 .825.023 1.22 0 1.222-.075 1.964-.668 2.202-1.856.106-.656.164-1.316.184-1.98.039-.606.035-1.22.098-1.817.09-.941.52-1.328 1.457-1.39.09-.008.175-.032.261-.059V60.66c-.156-.02-.265-.035-.379-.043-.703-.031-1.054-.265-1.23-.933a6.974 6.974 0 0 1-.2-1.305c-.046-.809-.042-1.629-.097-2.441-.101-1.567-1.043-2.305-2.476-2.348Zm78.335 3.422a4.265 4.265 0 0 0-3.457 1.539c-.859 1.027-1.289 2.41-1.289 4.152 0 1.73.461 3.086 1.387 4.059.926.972 2.184 1.457 3.781 1.457a9.36 9.36 0 0 0 1.871-.156 8.632 8.632 0 0 0 1.645-.543v-1.457a8.694 8.694 0 0 1-3.453.73c-1.106 0-1.961-.332-2.57-.988-.61-.657-.93-1.621-.961-2.89h7.449v-1.036c0-1.461-.395-2.64-1.184-3.531-.82-.903-2-1.395-3.219-1.336Zm11.176 0a3.275 3.275 0 0 0-1.863.57 4.809 4.809 0 0 0-1.45 1.633h-.077l-.192-2.008h-1.351v10.816h1.64v-5.8c-.03-.97.301-1.918.93-2.657a2.896 2.896 0 0 1 2.246-1.066 5.49 5.49 0 0 1 1.184.152l.226-1.523a6.5 6.5 0 0 0-1.293-.117Zm-32.465.004c-1.3 0-2.308.32-3.02.96-.71.641-1.066 1.555-1.066 2.739a3.455 3.455 0 0 0 .528 1.894c.32.528.8.938 1.367 1.172a3.394 3.394 0 0 0-.996.86 1.76 1.76 0 0 0-.316 1.035c-.004.332.093.652.28.918.177.254.419.457.7.582a3.235 3.235 0 0 0-1.781.98 2.485 2.485 0 0 0-.625 1.703 2.555 2.555 0 0 0 1.144 2.235c.77.523 1.86.785 3.274.785 1.84 0 3.242-.313 4.203-.942a3.076 3.076 0 0 0 1.441-2.738 2.573 2.573 0 0 0-.941-2.152c-.63-.492-1.531-.738-2.7-.738h-1.917a2.648 2.648 0 0 1-1.25-.215.697.697 0 0 1-.364-.656c0-.56.344-1.024 1.043-1.391.301.055.606.082.91.078 1.262 0 2.254-.313 2.981-.945A3.212 3.212 0 0 0 82 60.64a3.516 3.516 0 0 0-.707-2.156l2-.238v-1.039l-3.742.004a5.446 5.446 0 0 0-1.528-.195Zm10.883 0c-1.3 0-2.308.32-3.02.96-.71.641-1.062 1.551-1.062 2.739a3.42 3.42 0 0 0 .524 1.894c.324.528.8.938 1.37 1.172a3.41 3.41 0 0 0-1 .86c-.21.304-.323.668-.312 1.035-.008.328.09.648.281.918.172.254.415.457.692.582-.68.129-1.3.469-1.774.98a2.511 2.511 0 0 0-.632 1.703 2.56 2.56 0 0 0 1.152 2.23c.766.524 1.855.79 3.27.79 1.843 0 3.242-.317 4.203-.942a3.08 3.08 0 0 0 1.441-2.738c.05-.828-.3-1.629-.941-2.152-.63-.492-1.528-.738-2.7-.738h-1.914a2.67 2.67 0 0 1-1.254-.215.707.707 0 0 1-.367-.656c0-.56.352-1.024 1.047-1.391.3.055.606.082.91.078 1.262 0 2.254-.313 2.977-.945a3.194 3.194 0 0 0 1.09-2.54 3.5 3.5 0 0 0-.715-2.156l2.004-.238v-1.039l-3.739.004a5.492 5.492 0 0 0-1.53-.195Zm-20.64.015c-.649 0-1.29.086-1.91.25-.61.153-1.2.38-1.75.676l.503 1.258a7.087 7.087 0 0 1 3.059-.832c.8 0 1.383.203 1.75.605.363.407.547 1.032.547 1.883v.668l-1.836.059c-3.492.105-5.238 1.25-5.238 3.433 0 1.02.304 1.809.91 2.36.61.554 1.453.828 2.523.828a4.842 4.842 0 0 0 2.008-.36 4.566 4.566 0 0 0 1.613-1.375h.078l.325 1.54h1.215V60.64c.003-1.262-.31-2.176-.934-2.75-.621-.575-1.574-.86-2.863-.86Zm-20.309.176 2.95 10.816H52.8l2.043-6.324c.199-.625.43-1.511.691-2.664h.082c.344 1.375.574 2.258.7 2.645l1.98 6.343h1.945l2.992-10.816h-1.699c-1.258 4.816-1.941 7.473-2.055 7.965-.093.36-.164.726-.214 1.094h-.078a21.065 21.065 0 0 0-.75-2.848L56.5 57.207h-1.773l-1.98 6.211c-.122.348-.263.82-.423 1.414-.16.594-.277 1.078-.351 1.453h-.078a24.851 24.851 0 0 0-.63-2.867c-.363-1.422-.894-3.492-1.593-6.211Zm29.996 1c1.621 0 2.426.813 2.426 2.434 0 1.554-.797 2.332-2.395 2.332a2.554 2.554 0 0 1-1.785-.582 2.187 2.187 0 0 1-.64-1.72c-.004-.816.207-1.429.62-1.843a2.397 2.397 0 0 1 1.774-.621Zm10.887 0c1.617 0 2.426.813 2.426 2.434 0 1.554-.797 2.332-2.395 2.332a2.564 2.564 0 0 1-1.789-.582 2.2 2.2 0 0 1-.64-1.72c0-.816.206-1.429.62-1.843a2.4 2.4 0 0 1 1.778-.621Zm10.453.176a2.432 2.432 0 0 1 1.973.824c.46.55.691 1.34.691 2.371h-5.656a3.9 3.9 0 0 1 .918-2.344 2.668 2.668 0 0 1 2.074-.851Zm-87.371 2.144a1.117 1.117 0 0 0-1.024.489 1.112 1.112 0 0 0 .915 1.722h.074a1.088 1.088 0 0 0 1.148-1.023v-.059a1.108 1.108 0 0 0-1.086-1.129Zm3.824 0a1.058 1.058 0 0 0-1.09 1.13c-.015.296.102.585.317.796.218.207.511.309.808.285.301.02.594-.093.801-.312.211-.215.316-.512.29-.809a1.051 1.051 0 0 0-.317-.797 1.031 1.031 0 0 0-.805-.293Zm3.89 0a1.132 1.132 0 0 0-1.148 1.098 1.115 1.115 0 0 0 1.114 1.113h.011c.559.098 1.121-.441 1.157-1.09 0-.3-.122-.586-.332-.796a1.11 1.11 0 0 0-.797-.325Zm50.79 2.176v.98a3.102 3.102 0 0 1-.875 2.348 3.335 3.335 0 0 1-2.399.84 2.252 2.252 0 0 1-1.507-.465 1.685 1.685 0 0 1-.536-1.355 1.836 1.836 0 0 1 .86-1.672c.578-.356 1.515-.559 2.816-.606Zm41.976 4.09v.187h.399v1.16h.219v-1.16h.398v-.187Zm1.317 0v1.348h.199v-.657c0-.144-.004-.3-.012-.468h.008l.39 1.125h.196l.402-1.125h.012a2.213 2.213 0 0 0-.012.195c-.004.11-.007.195-.007.262v.668h.214v-1.348h-.312l-.383 1.07h-.008l-.375-1.07Zm-36.692.984h1.961c1 0 1.684.114 2.043.34.364.227.547.633.547 1.219 0 .7-.379 1.34-.996 1.672-.66.41-1.68.617-3.05.617a4.093 4.093 0 0 1-2.126-.453 1.474 1.474 0 0 1-.738-1.332 1.9 1.9 0 0 1 .625-1.528 2.566 2.566 0 0 1 1.734-.535Zm10.883 0h1.965c1 0 1.68.114 2.043.34.363.227.543.633.543 1.219.004.7-.379 1.34-.992 1.672-.66.41-1.68.617-3.055.617a4.079 4.079 0 0 1-2.121-.453 1.47 1.47 0 0 1-.742-1.332 1.9 1.9 0 0 1 .625-1.528 2.578 2.578 0 0 1 1.734-.535Zm-8.976 7.664c-1.059 0-1.762.442-1.762 1.508 0 .918.492 1.266 1.637 1.559.812.191 1.05.347 1.05.793 0 .558-.304.851-.957.851-.55 0-1.59-.136-1.59-.136l-.085.687a11.2 11.2 0 0 0 1.726.207c1.047 0 1.77-.504 1.77-1.66 0-.902-.399-1.195-1.512-1.504-.902-.25-1.18-.363-1.18-.86 0-.456.328-.683.98-.683.446 0 1.524.121 1.524.121l.074-.699a12.78 12.78 0 0 0-1.675-.184Zm3.847.094v5.29h.856v-4.571h.047L85 80.609h.898l1.32-4.355h.048v4.57h.863v-5.289h-1.492l-1.184 4.133-1.183-4.133Zm8.52 0L90 80.828h.855l.391-1.555h1.82l.387 1.551h.867l-1.312-5.289Zm4.93 0v5.29h.851v-1.567h1.246l.766 1.566h.937l-.87-1.761c.566-.262.862-.938.862-1.688 0-1.172-.62-1.84-1.789-1.84Zm5.167 0v.766h1.508v4.523h.864v-4.523h1.492v-.766Zm5.582 0v5.293h2.07c1.028 0 1.684-.418 1.684-1.5 0-.726-.3-1.05-.754-1.23.422-.23.625-.547.625-1.188 0-.98-.566-1.375-1.617-1.375Zm5.88 0v5.293h3.335v-.758h-2.476v-1.554h2.011v-.735h-2.011v-1.496h2.476v-.75Zm6.41 0-1.31 5.293h.86l.387-1.555h1.824l.387 1.551h.867l-1.312-5.289Zm4.925 0v5.29h.856v-1.567h1.242l.766 1.566H128l-.875-1.761c.566-.262.867-.938.867-1.688 0-1.172-.625-1.84-1.793-1.84Zm-32.226.719h.383l.546 2.262h-1.48Zm27.96 0h.387l.547 2.262h-1.48Zm-22.847.023h1.152c.618 0 .91.508.91 1.11 0 .547-.246 1.129-.894 1.129h-1.168Zm10.758 0h1.101c.524 0 .79.223.79.735 0 .515-.231.781-.754.781h-1.137Zm17.21 0h1.15c.616 0 .913.508.913 1.11 0 .547-.25 1.129-.894 1.129h-1.168Zm-59.948.414v1.184l.007.207.02.211h-.035a1.06 1.06 0 0 0-.906-.434 1.069 1.069 0 0 0-.887.403c-.23.324-.344.718-.317 1.113-.027.398.082.79.313 1.113.219.262.55.41.89.39.36.024.708-.144.915-.44h.023l.059.386h.359v-4.133Zm3.007 0v4.133h.313l.094-.37h.03c.102.136.24.25.395.32.164.07.344.109.524.105.34.016.668-.133.883-.395a2.1 2.1 0 0 0 .007-2.226 1.076 1.076 0 0 0-.89-.39 1.05 1.05 0 0 0-.914.437h-.02c.012-.18.02-.38.02-.606v-1.008Zm-28.207.196a1.395 1.395 0 0 0-.89.265.872.872 0 0 0-.34.715c-.008.254.074.5.234.695.215.211.48.372.774.458.199.066.39.148.578.246a.73.73 0 0 1 .273.238.646.646 0 0 1 .078.328.57.57 0 0 1-.23.48c-.2.126-.438.188-.676.172a3.025 3.025 0 0 1-1.078-.218v.437c.336.133.7.195 1.063.176.355.02.71-.082 1.003-.285a.949.949 0 0 0 .371-.801.932.932 0 0 0-.222-.648 2.143 2.143 0 0 0-.844-.47 3.017 3.017 0 0 1-.539-.237.729.729 0 0 1-.254-.235.69.69 0 0 1-.074-.332.524.524 0 0 1 .203-.43.888.888 0 0 1 .559-.148c.324 0 .64.07.937.2l.14-.395a2.676 2.676 0 0 0-1.066-.211Zm18.328.351-.187.621-.418.188v.21h.418v1.731c0 .594.281.89.844.89.086 0 .168-.007.254-.023a.68.68 0 0 0 .21-.058v-.336a2.32 2.32 0 0 1-.175.039 2.09 2.09 0 0 1-.223.016.457.457 0 0 1-.344-.141.58.58 0 0 1-.125-.406v-1.711h.844v-.34h-.844v-.68Zm-11.62.621a1.19 1.19 0 0 0-.516.11.988.988 0 0 0-.395.344h-.023l-.063-.399h-.355v4.215h.441v-1.195c0-.16-.011-.325-.031-.48h.031c.102.136.239.25.395.32.164.07.34.105.515.105.344.016.676-.133.891-.399.426-.68.426-1.543.004-2.226a1.072 1.072 0 0 0-.895-.395Zm3.417 0a1.194 1.194 0 0 0-.52.11c-.16.078-.296.195-.398.344h-.02l-.058-.399h-.36v4.215h.442v-1.195c0-.16-.011-.325-.035-.48h.035c.102.136.239.25.395.32.164.07.34.105.52.105.34.016.671-.133.886-.399.426-.68.426-1.543.008-2.226a1.082 1.082 0 0 0-.895-.395Zm6.77 0a.893.893 0 0 0-.504.157 1.237 1.237 0 0 0-.39.437h-.024l-.05-.539h-.36v2.914h.437v-1.562c-.008-.262.082-.52.254-.72a.77.77 0 0 1 .606-.28c.105 0 .21.011.316.035l.063-.41a2.055 2.055 0 0 0-.348-.032Zm4.3 0a1.16 1.16 0 0 0-.929.418 1.663 1.663 0 0 0-.344 1.118c-.023.398.11.789.371 1.09.27.269.637.413 1.02.394a2.182 2.182 0 0 0 .945-.192v-.39a2.4 2.4 0 0 1-.93.2.909.909 0 0 1-.69-.267c-.18-.222-.274-.5-.259-.78h2v-.278a1.363 1.363 0 0 0-.316-.953 1.114 1.114 0 0 0-.867-.36Zm-7.808.004a1.259 1.259 0 0 0-.988.399 1.6 1.6 0 0 0-.356 1.11 1.84 1.84 0 0 0 .164.8c.102.215.262.398.47.527.206.121.448.184.69.18.372.02.735-.125.993-.399a1.61 1.61 0 0 0 .36-1.109 1.623 1.623 0 0 0-.36-1.101 1.246 1.246 0 0 0-.973-.407Zm-11.46.051v1.902c-.028.297.07.59.265.809.222.188.508.277.797.254a1.26 1.26 0 0 0 .547-.113.925.925 0 0 0 .374-.329h.024l.066.387h.364v-2.91h-.442v1.527c.028.29-.05.579-.21.82a.833.833 0 0 1-.669.25.66.66 0 0 1-.508-.179.743.743 0 0 1-.16-.531v-1.887Zm29.222 0 1.176 2.926-.165.414a.676.676 0 0 1-.644.512c-.113 0-.223-.012-.328-.032v.352c.129.031.265.047.398.043a.906.906 0 0 0 .61-.203c.199-.192.351-.434.433-.696l1.25-3.316h-.469a96.26 96.26 0 0 0-.722 2.016 8.274 8.274 0 0 0-.149.465h-.02a5.562 5.562 0 0 0-.26-.82l-.634-1.66Zm-6.813.316a.765.765 0 0 1 .657.266c.16.262.234.57.207.879v.094a1.25 1.25 0 0 1-.204.797.815.815 0 0 1-.652.246h-.004a.706.706 0 0 1-.601-.29 1.43 1.43 0 0 1-.203-.84 1.517 1.517 0 0 1 .207-.85.666.666 0 0 1 .593-.302Zm-3.144 0a.653.653 0 0 1 .531.223c.137.184.2.41.188.637h-1.524c.012-.23.098-.453.246-.633a.731.731 0 0 1 .559-.227Zm-14.688.004a.845.845 0 0 1 .14 0 .721.721 0 0 1 .606.293c.157.25.23.54.211.832.02.297-.058.59-.21.844a.693.693 0 0 1-.59.309.783.783 0 0 1-.657-.266 1.455 1.455 0 0 1-.207-.879v-.097c-.02-.278.051-.555.207-.786a.772.772 0 0 1 .5-.25Zm3.414 0a.892.892 0 0 1 .145 0 .707.707 0 0 1 .597.293c.16.25.235.54.215.832a1.46 1.46 0 0 1-.215.844.684.684 0 0 1-.59.309.792.792 0 0 1-.656-.266 1.48 1.48 0 0 1-.203-.879v-.097c-.02-.278.051-.555.203-.786a.79.79 0 0 1 .504-.25Zm19.434 0a.893.893 0 0 1 .144 0 .717.717 0 0 1 .618.282c.152.254.218.55.199.843.02.301-.05.594-.2.856a.7.7 0 0 1-.605.297.787.787 0 0 1-.656-.266 1.995 1.995 0 0 1-.004-1.75.768.768 0 0 1 .504-.262Zm-15.977.004c.254-.015.5.09.66.29.168.245.247.542.223.843.024.297-.058.598-.222.848a.894.894 0 0 1-.657.293.894.894 0 0 1-.656-.293 1.361 1.361 0 0 1-.223-.848c-.02-.3.055-.598.223-.851a.778.778 0 0 1 .652-.282Zm54.563.278h1.148c.418 0 .867.16.867.765 0 .633-.316.801-.847.801h-1.168Zm0 0"/></g></svg>