<svg xmlns="http://www.w3.org/2000/svg" viewBox="0 0 128 128"><path fill="#85ea2d" d="M63.999 123.04c-32.557 0-59.045-26.485-59.045-59.044 0-32.558 26.488-59.044 59.045-59.044s59.045 26.488 59.045 59.045-26.488 59.042-59.045 59.042z"/><path fill="#173647" d="M41.04 43.957c-.191 2.122.07 4.315-.07 6.46-.168 2.147-.43 4.269-.86 6.39-.596 3.028-2.48 5.317-5.077 7.224 5.055 3.29 5.626 8.392 5.96 13.566.167 2.79.095 5.604.382 8.368.214 2.146 1.048 2.695 3.266 2.765.906.024 1.835 0 2.885 0v6.628c-6.556 1.12-11.968-.738-13.304-6.293-.43-2.026-.716-4.101-.81-6.2-.144-2.216.094-4.434-.072-6.65-.477-6.08-1.264-8.13-7.08-8.417v-7.557c.428-.096.834-.168 1.262-.215 3.195-.167 4.554-1.145 5.245-4.291a36.34 36.34 0 0 0 .596-5.364c.24-3.457.144-6.985.739-10.418.834-4.935 3.886-7.32 8.965-7.606 1.43-.072 2.885 0 4.53 0v6.772c-.692.048-1.288.142-1.907.142-4.125-.144-4.34 1.263-4.65 4.696zm7.94 15.687h-.096c-2.385-.119-4.435 1.74-4.555 4.125-.119 2.407 1.74 4.459 4.125 4.576h.286c2.36.144 4.386-1.67 4.53-4.029v-.238c.048-2.408-1.883-4.386-4.291-4.434zm14.948 0c-2.312-.072-4.244 1.74-4.315 4.029 0 .144 0 .263.023.405 0 2.6 1.764 4.268 4.435 4.268 2.622 0 4.268-1.716 4.268-4.41-.024-2.599-1.766-4.316-4.412-4.292zm15.307 0a4.452 4.452 0 0 0-4.53 4.315 4.374 4.374 0 0 0 4.386 4.386h.049c2.193.382 4.41-1.74 4.554-4.29.118-2.361-2.027-4.411-4.46-4.411zm21.004.357c-2.766-.119-4.15-1.049-4.84-3.672a26.586 26.586 0 0 1-.786-5.126c-.191-3.195-.168-6.413-.382-9.608-.5-7.581-5.984-10.227-13.947-8.917v6.58c1.263 0 2.24 0 3.218.024 1.693.023 2.981.668 3.147 2.552.167 1.716.167 3.456.334 5.197.335 3.458.525 6.962 1.12 10.371.526 2.814 2.457 4.912 4.864 6.628-4.219 2.837-5.46 6.89-5.674 11.444-.119 3.123-.19 6.27-.357 9.418-.143 2.86-1.144 3.79-4.029 3.862-.81.023-1.597.095-2.503.143v6.747c1.693 0 3.242.096 4.791 0 4.816-.286 7.725-2.622 8.68-7.296.404-2.575.642-5.173.714-7.772.166-2.384.144-4.792.382-7.152.357-3.695 2.05-5.22 5.745-5.459a5 5 0 0 0 1.027-.238V60.17c-.621-.072-1.051-.143-1.504-.168zM64 7.91c30.978 0 56.09 25.11 56.09 56.089 0 30.977-25.112 56.089-56.09 56.089-30.977 0-56.089-25.112-56.089-56.09 0-30.976 25.112-56.088 56.09-56.088M64 2C29.812 2 2 29.814 2 64s27.813 61.999 62 61.999c34.186 0 62-27.813 62-62s-27.814-61.998-62-61.998z"/></svg>