<svg xmlns="http://www.w3.org/2000/svg" viewBox="0 0 128 128"><path fill="#85ea2d" d="M64 2C29.814 2 2 29.813 2 64.001S29.814 126 64 126s62-27.812 62-61.999S98.186 2 64 2zM44.147 32.315c1.09-.01 2.217.032 3.45.032v6.771c-.69.049-1.287.143-1.906.143-4.125-.144-4.34 1.262-4.65 4.695-.192 2.121.07 4.315-.072 6.46-.167 2.147-.43 4.269-.858 6.39-.596 3.028-2.481 5.318-5.079 7.225 5.056 3.29 5.627 8.392 5.96 13.566.167 2.79.096 5.603.382 8.368.214 2.145 1.05 2.694 3.268 2.765.906.023 1.833 0 2.884 0v6.627c-6.556 1.12-11.968-.74-13.304-6.294-.43-2.026-.715-4.1-.81-6.199-.143-2.217.093-4.435-.073-6.652-.477-6.08-1.263-8.13-7.08-8.416V60.24a11.49 11.49 0 0 1 1.263-.216c3.195-.167 4.553-1.143 5.245-4.29.334-1.764.527-3.552.597-5.364.24-3.456.144-6.986.739-10.42.834-4.935 3.885-7.318 8.963-7.604.358-.018.717-.028 1.08-.032zm39.678.042c6.014-.042 9.982 2.84 10.405 9.236.215 3.195.19 6.415.382 9.61.095 1.717.356 3.457.786 5.125.69 2.623 2.075 3.554 4.84 3.673h.002c.451.025.882.094 1.502.166v7.56a4.995 4.995 0 0 1-1.026.237c-3.696.238-5.389 1.765-5.746 5.46-.238 2.36-.215 4.767-.381 7.152a60.84 60.84 0 0 1-.716 7.772c-.954 4.674-3.862 7.01-8.678 7.296-1.55.095-3.098 0-4.791 0v-6.746c.906-.049 1.692-.122 2.502-.145 2.886-.072 3.886-1.002 4.03-3.862.167-3.148.238-6.294.357-9.417.214-4.555 1.456-8.608 5.674-11.445-2.407-1.716-4.339-3.813-4.864-6.627-.597-3.41-.786-6.913-1.12-10.37-.168-1.742-.167-3.482-.334-5.199-.166-1.884-1.454-2.527-3.147-2.55-.978-.024-1.955-.026-3.218-.026v-6.58a22.866 22.866 0 0 1 3.541-.32zM48.883 59.642h.096c2.408.048 4.339 2.027 4.29 4.435v.239c-.143 2.36-2.168 4.171-4.529 4.027h-.287c-2.385-.117-4.243-2.167-4.124-4.575.12-2.384 2.17-4.245 4.554-4.126zm15.045 0v.002c2.646-.024 4.388 1.69 4.411 4.29 0 2.694-1.646 4.411-4.268 4.411-2.671 0-4.435-1.67-4.435-4.268-.024-.143-.024-.262-.024-.405.07-2.29 2.002-4.102 4.315-4.03zm15.307 0c2.431 0 4.575 2.05 4.458 4.412-.144 2.55-2.36 4.671-4.555 4.29h-.048a4.373 4.373 0 0 1-4.386-4.385 4.455 4.455 0 0 1 4.53-4.317z"/></svg>