<svg xmlns="http://www.w3.org/2000/svg" viewBox="0 0 128 128"><path fill="#fff" d="M59.871 7.277c25.137-1.746 41.805 10.559 51.336 25.547 4.777 7.516 9.469 18.926 9.488 30.656.024 12.743-4.105 23.774-9.488 31.872-5.535 8.32-12.691 15.195-21.652 19.707-14.985 7.543-35.922 7.75-49.637.488-15.27-8.09-27.016-19.637-31.383-39.66-1.75-8.012-1.95-18.367.485-27.25.574-2.082 1.613-4.278 2.433-6.325 3.953-9.847 10.68-18.41 18.977-24.332 3.336-2.378 7.383-4.746 10.949-6.324C45.82 9.691 53.297 7.73 59.87 7.277Zm0 0"/><path d="M64.484 7.11a68.988 68.988 0 0 0-4.613.167c-6.574.453-14.05 2.414-18.492 4.38-3.566 1.577-7.613 3.945-10.95 6.323-8.296 5.922-15.023 14.485-18.976 24.332-.82 2.047-1.86 4.243-2.433 6.325-2.438 8.883-2.235 19.238-.485 27.25 4.367 20.023 16.113 31.57 31.387 39.66 13.71 7.262 34.648 7.055 49.633-.488 8.96-4.512 16.117-11.387 21.652-19.707 5.383-8.098 9.512-19.13 9.488-31.872-.02-11.73-4.71-23.144-9.488-30.656C102.273 18.77 87.067 7.082 64.484 7.11Zm.274 2.73c16.879-.02 30.062 7.965 38.422 17.144 2.36 2.594 4.718 5.168 6.324 7.786 2.973 4.843 4.875 10.566 6.328 16.058 5.434 20.543-2.734 40.027-12.898 50.606-7.594 7.906-16.918 13.254-29.196 15.57-13.816 2.61-27.07-.79-36.496-6.082C27.56 105.484 20.7 97.758 15.59 87.809c-4.926-9.594-7.219-24.856-3.649-37.47 3.207-11.335 8.684-20.745 17.274-27.491 5.957-4.676 12.805-9.016 22.14-11.434 3.352-.871 6.45-1.234 9.977-1.46a52.717 52.717 0 0 1 3.426-.114Zm-1.301 2.387a44.595 44.595 0 0 0-3.344.16c-14.472 1.234-24.636 7.726-32.36 15.328-5.41 5.324-9.476 11.844-12.163 19.465-3.945 11.183-3.703 24.383.73 35.765 3.782 9.703 9.973 17.535 18.735 23.598 8.234 5.703 20.054 10.125 33.332 9.004 16.168-1.367 28-9.664 35.765-19.223 1.985-2.445 3.961-5.207 5.11-8.515 1.125-2.38 1.675-4 2.187-4.864 2.156-4.832 3.301-9.933 3.653-15.574 1.078-17.348-5.598-30.898-14.844-40.144-4.473-4.473-9.973-8.504-16.543-10.95-5.961-2.215-12.602-4.125-20.258-4.05Zm0 0"/><path fill="#fff" d="m64.215 11.465-.27.27.52.519c.187 0 .368.008.55.012l-.8-.801zm-3.934 4.25-.02 4.59c-.006 2.554 1.446 3.742 3.77 3.75 2.324.01 3.836-1.14 3.848-3.782l.016-4.53-2.301-.009-.016 4.602c-.008 1.144-.6 1.68-1.516 1.676-.91-.004-1.502-.567-1.5-1.746l.02-4.543-2.3-.008zm14.157 1.172-.579 1.898 2.344.715-1.805 5.922 2.168.66 1.805-5.918 2.348.715.578-1.899-6.86-2.093zm-23.747.71-2.082.669-.797 8.902 2.27-.727.11-1.57 3-.965 1.015 1.211 2.313-.742-5.829-6.777zm-.238 2.895 1.578 1.938-1.746.558.168-2.496zm36.969 1.137-4.527 6.805 1.882 1.257 1.723-2.59 2.422 1.614-1.723 2.586 1.887 1.254 4.527-6.805-1.883-1.254-1.695 2.547-2.422-1.613 1.696-2.547-1.887-1.254zm-48.664 2.117c-.832.043-1.676.337-2.442.89-2.035 1.49-2.441 4.14-1.058 6.036l.015.02c1.383 1.897 4 2.312 6.036.828 2.039-1.49 2.445-4.14 1.062-6.036l-.016-.02a4.14 4.14 0 0 0-3.597-1.718zm-.047 2.152c.687 0 1.355.352 1.793.95l.012.015c.695.953.617 2.254-.391 2.992-1 .73-2.297.403-2.992-.55l-.012-.02c-.695-.953-.617-2.254.383-2.984a2.052 2.052 0 0 1 1.207-.403zm24.894 2.059.344.344-3.87 3.875-3.212-3.211-.418.117 3.36 3.363-3.871 3.871-3.876-3.87 2.926-2.926-.797.257-2.394 2.399-1.164-1.164c-.13.05-.25.105-.38.16l1.274 1.273-3.87 3.871-2.544-2.539c-.11.067-.222.133-.332.203l2.606 2.606-3.871 3.871-3.102-3.098c-.094.082-.18.176-.273.262l3.105 3.106-3.875 3.87-2.973-2.972c-.078.098-.164.195-.242.293l2.95 2.95-3.876 3.87-2.164-2.164c-.062.117-.12.235-.183.352l2.082 2.082-3.875 3.875-.621-.625c-.051.133-.098.262-.145.39l.496.5-.972.977c-.067.234-.125.477-.184.719l1.426-1.426 3.875 3.871-3.875 3.875-2.149-2.148c-.02.16-.027.328-.043.492l1.922 1.922-2.152 2.156c0 .184-.012.363-.012.547l2.434-2.434 3.875 3.875-3.875 3.871-2.344-2.343c.012.183.008.37.024.558l2.05 2.055-1.64 1.64c.023.157.054.301.082.457l1.828-1.832 3.875 3.875-3.875 3.872-.422-.418c.137.332.2.504.402.976l.02-.02 3.875 3.872-1.227 1.226c.07.11.137.219.211.325l1.281-1.282 3.875 3.871-1.734 1.735c.086.093.176.183.262.273l1.738-1.738 3.875 3.875-1.55 1.547c.1.078.21.148.312.226l1.504-1.507 3.875 3.874-.664.665c.117.062.234.12.351.183l.578-.582 1.676 1.676c.313.137.625.277.945.41l-2.351-2.352 3.875-3.874 3.871 3.874-3.172 3.172c.133.043.266.094.399.137l3.042-3.043 3.872 3.875-.61.61c.156.022.305.054.461.074l.418-.418.524.527c.195.02.393.036.59.05l-.848-.843 3.875-3.875 3.87 3.875-.78.785c.203-.02.402-.047.601-.07l.45-.445.359.355c.156-.02.312-.043.469-.066l-.56-.559 3.872-3.875 2.922 2.922c.133-.047.266-.09.398-.137l-3.05-3.05 3.87-3.876 3.876 3.876-1.954 1.949c.344-.157.684-.317 1.02-.485l1.2-1.199.374.375c.114-.066.235-.125.348-.187l-.453-.454 3.875-3.874 1.18 1.183c.1-.082.195-.164.292-.242l-1.207-1.207 3.875-3.875 1.297 1.297c.086-.094.168-.188.25-.281l-1.281-1.286 3.875-3.87.785.784c.067-.113.125-.23.192-.343l-.707-.711 1.988-1.989.027-.062c.188-.332.344-.68.516-1.02l-2.801 2.805-3.875-3.875 3.875-3.871 3.523 3.52c.055-.122.107-.25.16-.375l-3.413-3.415 3.87-3.87 1.493 1.492c.035-.15.063-.293.097-.442l-1.32-1.32 1.883-1.887c.027-.203.059-.41.082-.617l-2.234 2.234-3.871-3.87 3.87-3.876 2.434 2.438c.004-.176.024-.344.024-.516l-2.188-2.187 1.942-1.946-.063-.472-2.148 2.148-3.871-3.871 3.87-3.875 1.325 1.324a27.34 27.34 0 0 0-.223-.762l-.832-.832.422-.418c-.047-.132-.098-.261-.148-.394l-.543.547-3.871-3.875 1.972-1.973-.187-.351-2.055 2.058-3.871-3.875 2.875-2.875-.27-.27-2.875 2.876-3.875-3.871 2.887-2.887-.266-.27-2.886 2.887-3.875-3.871 2.707-2.707c-.11-.07-.211-.14-.324-.211l-2.649 2.648-3.875-3.87 1.39-1.391-.374-.164-1.285 1.285-2.711-2.711c-.246-.074-.496-.14-.743-.207l3.188 3.187-3.875 3.871-3.871-3.87 3.473-3.473c-.145-.035-.293-.067-.438-.102l-3.305 3.305-3.87-3.875.34-.34c-.178-.004-.356 0-.536 0l-.074.074-.074-.074c-.18-.004-.36-.004-.54-.004zm.614.613 3.875 3.875-3.875 3.871-3.871-3.87 3.87-3.876zm-12.422 4.14 3.871 3.876-3.871 3.871-3.875-3.871 3.875-3.875zm8.281 0 3.871 3.876-3.87 3.871-3.872-3.871 3.871-3.875zm8.281 0 3.875 3.876-3.875 3.871-3.87-3.871 3.87-3.875zm8.286 0 3.87 3.876-3.87 3.871-3.875-3.871 3.875-3.875zm-28.989 4.142 3.871 3.875-3.87 3.87-3.876-3.87 3.875-3.875zm8.282 0 3.87 3.875-1.261 1.261c.292-.151.6-.275.916-.377l.615-.615.395.393c.164-.023.33-.03.498-.04l-.623-.622 3.87-3.875 3.876 3.875-.623.62c.165.009.33.02.494.042l.394-.397.62.62c.309.098.61.217.898.363l-1.248-1.248 3.871-3.875 3.875 3.875-3.857 3.853c.14.275.26.562.357.861l.035.106 3.465 3.46-1.738 1.74.133.401 1.87-1.87 3.876 3.87-3.815 3.815.328.984 3.487 3.487-1.748 1.744.132.404 1.88-1.883 3.874 3.875-3.822 3.819.316.955 3.508 3.507-1.758 1.758.133.403 1.895-1.891 3.87 3.871-3.87 3.875-.127-.127c.03.26.02.515.017.772l.11-.11 3.87 3.871-3.87 3.875-2.729-2.728c-.106.072-.199.16-.31.224l2.77 2.77-3.876 3.875-3.87-3.871 1.954-1.955-.021.002c-.162 0-.32-.025-.479-.037l-1.724 1.72-3.871-3.875.859-.859a5.876 5.876 0 0 1-.184-.352l-.945.946-3.871-3.875 2.853-2.854-.132-.406-2.99 2.994-3.872-3.875 1.25-1.25H65.2l-.98.98-.98-.98h-.54l1.25 1.25-3.87 3.875-2.536-2.535-.127.408 2.393 2.393-3.871 3.875-.58-.58a6.013 6.013 0 0 1-.196.34l.506.505-3.871 3.875-1.729-1.724a6.019 6.019 0 0 1-.634-.1l2.093 2.09-3.875 3.875-3.87-3.875 3.05-3.05c-.105-.073-.217-.139-.316-.218l-3.004 3.002-3.871-3.875 3.87-3.87.77.767c-.023-.186-.021-.375-.027-.565l-.473-.472.516-.516a6.16 6.16 0 0 1 .129-.664l-.914.914-3.871-3.875 3.87-3.871 2.307 2.303.13-.407-2.167-2.166 3.875-3.875.15.15.128-.403-.012-.012.023-.024.248-.787-.539.541-3.875-3.87 3.875-3.876 2.139 2.14.129-.41-2-1.995 3.844-3.844.248-.783-.217.216-3.875-3.875 3.875-3.87 1.97 1.97.13-.406-1.834-1.834 3.527-3.524c.107-.329.244-.64.4-.94l-.053.054-3.874-3.871 3.874-3.875zm24.847 0 3.871 3.875-3.87 3.87-3.876-3.87 3.875-3.875zm-37.27 4.14 3.872 3.875-3.871 3.871-3.875-3.87 3.875-3.876zm8.282 0 3.871 3.875-3.871 3.871-3.875-3.87 3.875-3.876zm24.848.004 3.87 3.871-3.874 3.875-3.871-3.875 3.875-3.87zm8.28 0 3.872 3.871-3.871 3.875-3.875-3.875 3.875-3.87zm-23.644 1.465c-2.117 0-3.977 1.41-4.617 3.398l-11.09 35.133c-.769 2.567.641 5.324 3.203 6.094a4.94 4.94 0 0 0 1.508.238 4.896 4.896 0 0 0 4.649-3.383l2.566-8.336h13.977l2.753 8.403c.668 2.05 2.567 3.324 4.614 3.324.523 0 1.043-.086 1.543-.246 2.562-.836 3.91-3.594 3.078-6.156L71.797 45.793c-.641-1.984-2.567-3.332-4.617-3.332h-5.9zm-21.91 2.676 3.875 3.87-3.875 3.876-3.871-3.875 3.871-3.871zm8.285 0 3.871 3.87-3.87 3.876-3.876-3.875 3.875-3.871zm33.13 0 3.87 3.87-3.87 3.876-3.876-3.875 3.875-3.871zm8.28 0 3.871 3.87-3.87 3.876-3.876-3.875 3.875-3.871zm-53.836 4.14 3.875 3.871-3.875 3.875-3.87-3.875 3.87-3.87zm8.282 0 3.875 3.871-3.875 3.875-3.871-3.875 3.87-3.87zm41.414 0 3.87 3.871-3.87 3.875-3.875-3.875 3.875-3.87zm8.281 0 3.871 3.871-3.871 3.875-3.875-3.875 3.875-3.87zm-53.838 4.141 3.875 3.871-3.875 3.875L35.5 57.29l3.87-3.871zm8.285 0 3.871 3.871-3.869 3.875-3.877-3.875 3.875-3.871zm33.131 0 3.87 3.871-3.876 3.875-3.869-3.871 3.875-3.875zm8.28 0 3.87 3.875-3.869 3.871-3.877-3.875 3.875-3.871zm-53.836 4.14 3.875 3.872-3.875 3.875-3.87-3.875 3.87-3.871zm8.283 0 3.875 3.872-3.875 3.875-3.871-3.871 3.87-3.875zm41.414 0 3.869 3.876-3.87 3.87-3.874-3.87 3.875-3.875zm8.28 0 3.87 3.876-3.87 3.87-3.876-3.87 3.875-3.875zM39.368 61.7l3.875 3.875-3.875 3.871-3.871-3.87 3.871-3.876zm49.695 0 3.872 3.875-3.87 3.871-3.877-3.87 3.875-3.876zm26.116.73c.004.185.006.364.006.548l.744.742.27-.27-1.02-1.02zm-102.366.442-2.302 2.309.263.265 2.041-2.035c0-.18-.005-.36 0-.539h-.002zm-2.052 2.809-.272.27 2.518 2.51a27.62 27.62 0 0 1-.053-.585l-2.193-2.195zm24.467.16 3.875 3.875-3.875 3.87-3.87-3.87 3.87-3.875zm8.283 0 3.875 3.875-3.875 3.87-3.871-3.87 3.87-3.875zm41.414 0 3.869 3.875-3.87 3.87-3.874-3.87 3.875-3.875zm8.28 0 3.87 3.875-3.87 3.87-3.876-3.87 3.875-3.875zm23.509.805-1.694 1.69-.044.587 2.002-2.008-.264-.27zM39.37 69.98l3.875 3.875-3.875 3.872-3.871-3.872 3.871-3.875zm49.695.004 3.871 3.871-3.87 3.872-3.876-3.872 3.875-3.87zM35.23 74.125l3.875 3.871-3.875 3.875-3.87-3.875 3.87-3.871zm4.141 4.14 3.875 3.872-3.875 3.875-3.871-3.875 3.871-3.871zm24.848 0 3.87 3.872-3.87 3.875-3.875-3.875 3.875-3.871zm24.847 0 3.871 3.872-3.87 3.875-3.876-3.875 3.875-3.871zm-28.988 4.141 3.871 3.871-3.87 3.875-3.876-3.875 3.875-3.87zm8.281 0 3.875 3.871-3.875 3.875-3.87-3.875 3.87-3.87zm-12.421 4.14 3.87 3.872-3.87 3.875-3.876-3.875 3.876-3.871zm8.28 0 3.872 3.876-3.871 3.871-3.875-3.875 3.875-3.871zm8.282 0 3.875 3.876-3.875 3.871-3.871-3.871 3.871-3.875zm-12.422 4.141 3.871 3.876-3.87 3.87-3.876-3.87 3.875-3.876zm8.281 0 3.875 3.876-3.875 3.87-3.87-3.87 3.87-3.876zm22.582 3.743a4.79 4.79 0 0 0-.52.015 4.561 4.561 0 0 0-2.401.985c-1.98 1.562-2.286 4.23-.832 6.074l.015.016c1.457 1.843 4.086 2.16 6.067.597 1.98-1.566 2.285-4.23.828-6.074l-.016-.02a4.142 4.142 0 0 0-3.14-1.593zm-50.707 1.988-4.203 7.012 1.942 1.168 1.574-2.625 2.492 1.492-1.57 2.625 1.941 1.164 4.203-7.012-1.941-1.164-1.598 2.664-2.496-1.492 1.598-2.664-1.942-1.168zm50.22.187c.682-.027 1.361.3 1.82.88l.015.019c.73.926.704 2.226-.27 2.992-.98.777-2.285.496-3.015-.43l-.016-.015c-.73-.926-.703-2.23.278-3.004.363-.285.777-.43 1.187-.442zm-8.75 3.442-2.235.828-.043 1.57-2.957 1.094-1.067-1.16-2.277.844 6.121 6.511 2.05-.757.407-8.93zm-28.677 2.308-1.613 5.977-2.367-.64-.516 1.917 6.922 1.868.516-1.915-2.367-.64 1.613-5.977-2.188-.59zm12.602 1.5c-2.324.102-3.777 1.325-3.66 3.961l.199 4.528 2.297-.102-.203-4.597c-.047-1.145.523-1.707 1.433-1.747.91-.039 1.528.493 1.582 1.672l.2 4.54 2.296-.102-.199-4.586c-.113-2.555-1.625-3.668-3.945-3.567zm13.785.477-.059 2.5-1.66-1.863 1.72-.637zm-19.34 11.2 1.121 1.12.27-.265-.805-.805c-.195-.012-.39-.036-.586-.05zm8.274.015c-.192.016-.38.023-.57.035l-.774.773.27.266 1.074-1.074z"/></svg>