<svg xmlns="http://www.w3.org/2000/svg" xmlns:xlink="http://www.w3.org/1999/xlink" viewBox="0 0 128 128"><defs><clipPath id="M"><path d="M39 54h60v34.453H39Zm0 0"/></clipPath><clipPath id="N"><path d="M50 54h39v34.453H50Zm0 0"/></clipPath><clipPath id="O"><path d="M0 38.688h127.84v49.765H0Zm0 0"/></clipPath><clipPath id="b"><path d="M0 0h128v127H0z"/></clipPath><clipPath id="c"><path d="M0 0h128v127H0z"/></clipPath><clipPath id="d"><path d="M0 0h128v127H0z"/></clipPath><clipPath id="g"><path d="M0 0h128v127H0z"/></clipPath><clipPath id="h"><path d="M0 0h128v127H0z"/></clipPath><clipPath id="k"><path d="M0 0h128v127H0z"/></clipPath><clipPath id="l"><path d="M0 0h128v127H0z"/></clipPath><clipPath id="o"><path d="M0 0h128v127H0z"/></clipPath><clipPath id="p"><path d="M0 0h128v127H0z"/></clipPath><clipPath id="s"><path d="M0 0h128v127H0z"/></clipPath><clipPath id="t"><path d="M0 0h128v127H0z"/></clipPath><clipPath id="w"><path d="M0 0h128v127H0z"/></clipPath><clipPath id="x"><path d="M0 0h128v127H0z"/></clipPath><clipPath id="A"><path d="M0 0h128v127H0z"/></clipPath><clipPath id="B"><path d="M0 0h128v127H0z"/></clipPath><clipPath id="E"><path d="M0 0h128v127H0z"/></clipPath><clipPath id="F"><path d="M0 0h128v127H0z"/></clipPath><clipPath id="I"><path d="M0 0h128v127H0z"/></clipPath><clipPath id="J"><path d="M0 0h128v127H0z"/></clipPath><mask id="Q"><g filter="url(#a)"><path fill-opacity=".149" d="M0 0h128v127H0z"/></g></mask><mask id="S"><g filter="url(#a)"><path fill-opacity=".051" d="M0 0h128v127H0z"/></g></mask><mask id="f"><g filter="url(#a)"><path fill-opacity=".502" d="M0 0h128v127H0z"/></g></mask><mask id="U"><g filter="url(#a)"><path fill-opacity=".051" d="M0 0h128v127H0z"/></g></mask><mask id="j"><g filter="url(#a)"><path fill-opacity=".502" d="M0 0h128v127H0z"/></g></mask><mask id="W"><g filter="url(#a)"><path fill-opacity=".051" d="M0 0h128v127H0z"/></g></mask><mask id="n"><g filter="url(#a)"><path fill-opacity=".502" d="M0 0h128v127H0z"/></g></mask><mask id="Y"><g filter="url(#a)"><path fill-opacity=".051" d="M0 0h128v127H0z"/></g></mask><mask id="r"><g filter="url(#a)"><path fill-opacity=".502" d="M0 0h128v127H0z"/></g></mask><mask id="aa"><g filter="url(#a)"><path fill-opacity=".051" d="M0 0h128v127H0z"/></g></mask><mask id="v"><g filter="url(#a)"><path fill-opacity=".502" d="M0 0h128v127H0z"/></g></mask><mask id="ac"><g filter="url(#a)"><path fill-opacity=".051" d="M0 0h128v127H0z"/></g></mask><mask id="z"><g filter="url(#a)"><path fill-opacity=".502" d="M0 0h128v127H0z"/></g></mask><mask id="ae"><g filter="url(#a)"><path fill-opacity=".051" d="M0 0h128v127H0z"/></g></mask><mask id="D"><g filter="url(#a)"><path fill-opacity=".502" d="M0 0h128v127H0z"/></g></mask><mask id="ag"><g filter="url(#a)"><path fill-opacity=".051" d="M0 0h128v127H0z"/></g></mask><mask id="H"><g filter="url(#a)"><path fill-opacity=".502" d="M0 0h128v127H0z"/></g></mask><mask id="ai"><g filter="url(#a)"><path fill-opacity=".051" d="M0 0h128v127H0z"/></g></mask><mask id="L"><g filter="url(#a)"><path fill-opacity=".502" d="M0 0h128v127H0z"/></g></mask><g id="P" clip-path="url(#b)"><path fill="#1d1d1b" d="M6.277 75.668h6.61v6.566h-.032c-.097 3.438-2.937 6.192-6.425 6.192-3.489 0-6.325-2.754-6.426-6.192v-.082c0-.035-.004-.07-.004-.105v-.567c.2-3.07 3.125-5.812 6.277-5.812Zm0 0"/></g><g id="e" clip-path="url(#c)"><path d="M.012 67.766v7.898c0-6.957 5.89-12.684 12.883-12.777v-2.52c-5.196.543-9.801 3.317-12.883 7.399Zm0 0"/></g><g id="R" clip-path="url(#d)"><use xlink:href="#e" mask="url(#f)"/><path d="M.02 81.605a9.062 9.062 0 0 1 5.351-1.757h7.527v-4.184H6.45c-3.406 0-6.191 2.621-6.43 5.941Zm0 0"/></g><g id="i" clip-path="url(#g)"><path d="M12.895 62.887v-2.29c-5.243.508-9.868 3.348-12.883 7.512v7.555c0-6.957 5.89-12.684 12.883-12.777Zm0 0"/></g><g id="T" clip-path="url(#h)"><use xlink:href="#i" mask="url(#j)"/><path d="M6.45 75.664c-3.317 0-6.044 2.48-6.403 5.676a8.808 8.808 0 0 1 5.422-1.871h7.426v-3.805h-6.45Zm0 0"/></g><g id="m" clip-path="url(#k)"><path d="M12.895 62.887v-2.059c-5.29.473-9.942 3.379-12.883 7.64v7.192c0-6.957 5.89-12.683 12.883-12.777Zm0 0"/></g><g id="V" clip-path="url(#l)"><use xlink:href="#m" mask="url(#n)"/><path d="M6.45 75.664c-3.223 0-5.888 2.344-6.368 5.406a8.586 8.586 0 0 1 5.484-1.984h7.329v-3.422h-6.45Zm0 0"/></g><g id="q" clip-path="url(#o)"><path d="M12.895 62.887v-1.828c-5.34.437-10.028 3.425-12.883 7.789v6.816c0-6.957 5.89-12.684 12.883-12.777Zm0 0"/></g><g id="X" clip-path="url(#p)"><use xlink:href="#q" mask="url(#r)"/><path d="M6.45 75.664c-3.13 0-5.74 2.211-6.321 5.145 1.496-1.309 3.426-2.102 5.535-2.102h7.234v-3.043Zm0 0"/></g><g id="u" clip-path="url(#s)"><path d="M12.895 62.887v-1.594c-5.407.395-10.13 3.477-12.883 7.953v6.418c0-6.957 5.89-12.684 12.883-12.777Zm0 0"/></g><g id="Z" clip-path="url(#t)"><use xlink:href="#u" mask="url(#v)"/><path d="M6.45 75.664c-3.036 0-5.579 2.082-6.263 4.883 1.473-1.379 3.43-2.223 5.575-2.223h7.133V75.66h-6.45Zm0 0"/></g><g id="y" clip-path="url(#w)"><path d="M12.895 62.887v-1.364c-5.477.36-10.243 3.543-12.883 8.153v5.988c0-6.957 5.89-12.684 12.883-12.777Zm0 0"/></g><g id="ab" clip-path="url(#x)"><use xlink:href="#y" mask="url(#z)"/><path d="M6.45 75.664a6.432 6.432 0 0 0-6.192 4.617c1.449-1.445 3.422-2.336 5.605-2.336h7.035v-2.28Zm0 0"/></g><g id="C" clip-path="url(#A)"><path d="M12.895 62.887v-1.125c-5.56.308-10.383 3.62-12.883 8.375v5.527c0-6.957 5.89-12.684 12.883-12.777Zm0 0"/></g><g id="ad" clip-path="url(#B)"><use xlink:href="#C" mask="url(#D)"/><path d="M6.45 75.664A6.445 6.445 0 0 0 .34 80.02a7.673 7.673 0 0 1 5.617-2.454h6.938v-1.902h-6.45Zm0 0"/></g><g id="G" clip-path="url(#E)"><path d="M12.895 62.887v-.89c-5.66.26-10.547 3.726-12.883 8.66v5.007c0-6.957 5.89-12.684 12.883-12.777Zm0 0"/></g><g id="af" clip-path="url(#F)"><use xlink:href="#G" mask="url(#H)"/><path d="M6.45 75.664a6.447 6.447 0 0 0-6.016 4.098c1.379-1.578 3.382-2.578 5.625-2.578h6.84v-1.52Zm0 0"/></g><g id="K" clip-path="url(#I)"><path d="M12.895 62.887v-.649C7.102 62.445 2.133 66.11.012 71.254v4.41c0-6.957 5.89-12.684 12.883-12.777Zm0 0"/></g><g id="ah" clip-path="url(#J)"><use xlink:href="#K" mask="url(#L)"/><path d="M6.45 75.664a6.438 6.438 0 0 0-5.907 3.84 7.189 7.189 0 0 1 5.613-2.7h6.742v-1.14Zm0 0"/></g><filter id="a" width="1" height="1" x="0" y="0" filterUnits="objectBoundingBox"><feColorMatrix in="SourceGraphic" values="0 0 0 0 1 0 0 0 0 1 0 0 0 0 1 0 0 0 1 0"/></filter></defs><g clip-path="url(#M)" transform="matrix(1.00125 0 0 1.01377 0 -.425)"><path fill="#e72264" d="M52.973 88.453V54.238H42.66c-.035 0-.07 0-.11.004-1.85.063-3.34 1.574-3.359 3.414v27.41c0 .055.004.121.008.192.16 1.762 1.645 3.113 3.426 3.191.078 0 .148.004.215.004zm42.496-.016c1.922-.144 3.441-1.71 3.457-3.624V57.69c-.008-1.89-1.559-3.433-3.465-3.449H85.148v34.215h9.891c.137 0 .281-.008.43-.02zm0 0"/></g><g clip-path="url(#N)" transform="matrix(1.00125 0 0 1.01377 0 -.425)"><path fill="#e72264" d="M51.04 54.242h10.796c1.059 0 2.555.848 3.348 1.899l22.894 30.41c.79 1.05.574 1.902-.484 1.902H76.797c-1.059 0-2.559-.851-3.348-1.902L50.551 56.14c-.79-1.047-.57-1.899.484-1.899zm0 0"/></g><g clip-path="url(#O)" transform="matrix(1.00125 0 0 1.01377 0 -.425)"><path fill="#e72264" d="M86.738 54.242H75.941c-1.058 0-2.554.848-3.347 1.899L49.699 86.55c-.793 1.05-.574 1.902.485 1.902H60.98c1.06 0 2.555-.851 3.348-1.902l22.895-30.41c.789-1.047.574-1.899-.485-1.899zm5.399-15.554c3.656 0 6.617 2.94 6.617 6.566 0 3.629-2.961 6.566-6.617 6.566-3.657 0-6.617-2.937-6.617-6.566 0-3.625 2.96-6.566 6.617-6.566zm-45.977 0c3.656 0 6.621 2.94 6.621 6.566 0 3.629-2.965 6.566-6.62 6.566-3.653 0-6.618-2.937-6.618-6.566 0-3.625 2.965-6.566 6.617-6.566zm74.887 0h-10.45c-3.75 0-6.792 3.019-6.792 6.742v10.367c0 3.719 3.043 6.738 6.793 6.738h10.449c3.75 0 6.793-3.02 6.793-6.738V45.43c0-3.723-3.043-6.742-6.793-6.742zm-6.902 6.8v6.996c0 .946-.192 1.762-.57 2.457a3.957 3.957 0 0 1-1.626 1.61c-.703.383-1.535.574-2.5.574-.816 0-1.523-.145-2.12-.438a4.26 4.26 0 0 1-1.509-1.226s-1.14-1.223-.097-2.086c1.066-.879 1.992.273 1.992.273.215.301.472.524.77.672a2.13 2.13 0 0 0 1 .227c.35 0 .66-.07.921-.215.266-.145.477-.36.633-.645.156-.285.234-.64.234-1.058v-7.14s-.027-1.442 1.415-1.442c1.44 0 1.457 1.441 1.457 1.441zm10.257 10.2c-.789.773-1.949 1.242-3.48 1.398-1.055.113-1.973.039-2.758-.215-.785-.254-1.516-.695-2.203-1.32 0 0-1.059-.906-.203-2.043.64-.856 1.844.035 1.844.035.457.422.949.73 1.472.937.524.204 1.114.27 1.774.2.586-.059 1.03-.22 1.34-.473.304-.254.437-.57.398-.953-.035-.332-.168-.594-.402-.785-.23-.192-.536-.344-.91-.461a13.051 13.051 0 0 0-1.215-.317c-.434-.093-.871-.21-1.317-.355a5.896 5.896 0 0 1-1.242-.574 3.074 3.074 0 0 1-.965-.965c-.262-.406-.426-.922-.492-1.55-.082-.786.035-1.477.352-2.075.32-.598.804-1.078 1.453-1.442.652-.363 1.41-.59 2.273-.68.899-.09 1.727-.023 2.492.212.762.23 1.41.586 1.946 1.054 0 0 .75.625.14 1.7-.472.832-1.797.332-1.797.332-.425-.352-.843-.602-1.25-.75-.41-.149-.851-.2-1.332-.149-.492.051-.87.184-1.14.395a.892.892 0 0 0-.344.84c.031.308.164.55.402.722.239.172.54.313.907.418a23.6 23.6 0 0 0 1.214.309c.438.097.883.215 1.325.355.445.14.859.34 1.234.602.379.262.703.601.973 1.015.265.418.437.958.507 1.622.125 1.203-.203 2.187-.996 2.96zM18.664 38.75C8.355 38.75 0 47.04 0 57.266c0 .199.004.398.012.597v19.61-.004 4.578c0 .035 0 .066.004.101v.082c.097 3.438 2.937 6.196 6.425 6.196 3.489 0 6.352-2.758 6.454-6.196v-6.566h5.332c.144.004.289.004.433.004 10.309 0 18.664-8.176 18.664-18.402 0-10.227-8.351-18.516-18.66-18.516zm0 24.133h-5.766V57.27c0-3.149 2.594-5.7 5.766-5.7s5.742 2.551 5.742 5.7c0 3.144-2.57 5.613-5.742 5.613zm0 0"/><use xlink:href="#P" mask="url(#Q)"/><use xlink:href="#R" mask="url(#S)"/><use xlink:href="#T" mask="url(#U)"/><use xlink:href="#V" mask="url(#W)"/><use xlink:href="#X" mask="url(#Y)"/><use xlink:href="#Z" mask="url(#aa)"/><use xlink:href="#ab" mask="url(#ac)"/><use xlink:href="#ad" mask="url(#ae)"/><use xlink:href="#af" mask="url(#ag)"/><use xlink:href="#ah" mask="url(#ai)"/></g></svg>
