<svg xmlns="http://www.w3.org/2000/svg" viewBox="0 0 128 128"><path fill="#e72264" d="M64.002 0c-26.35 0-47.711 21.361-47.711 47.712 0 .516.007 1.029.024 1.54v50.521h.005v11.524c0 .09-.005.176-.005.265 0 .089.006.175.01.264v.214h.005c.254 8.855 7.504 15.958 16.421 15.958 8.918 0 16.247-7.103 16.501-15.958V95.115h13.634c.369.009.742.01 1.112.01 26.35 0 47.712-21.062 47.712-47.413 0-26.35-21.356-47.707-47.707-47.707zm0 33.036c8.107 0 14.681 6.574 14.681 14.681s-6.574 14.471-14.68 14.471v-.005H49.266V47.717c0-8.107 6.629-14.68 14.735-14.68z"/><path fill="#1d1d1b" d="M32.34 95.122h16.89v16.922h-.075C48.9 120.9 41.649 128 32.732 128c-8.918 0-16.174-7.1-16.428-15.956h-.005v-.213c0-.09-.009-.179-.009-.268 0-.089.005-.173.005-.262v-1.193c.507-7.92 7.982-14.986 16.04-14.986z" opacity=".15"/><path fill="#000" d="M16.317 74.768v20.346c0-17.924 15.061-32.678 32.94-32.922V55.7c-13.289 1.397-25.055 8.552-32.94 19.067Z" opacity=".025"/><path fill="#000" d="M16.344 110.424c3.882-2.85 8.592-4.528 13.676-4.528h19.242V95.114H32.776c-8.708 0-15.827 6.753-16.432 15.31z" opacity=".05"/><path fill="#000" d="M49.257 62.192v-5.895c-13.4 1.313-25.225 8.624-32.94 19.357v19.46c0-17.924 15.061-32.678 32.94-32.922z" opacity=".025"/><path fill="#000" d="M32.776 95.114c-8.472 0-15.444 6.397-16.37 14.624 3.878-3.027 8.668-4.817 13.864-4.817h18.987v-9.803H32.772Z" opacity=".05"/><path fill="#000" d="M49.257 62.192v-5.303c-13.52 1.225-25.42 8.713-32.94 19.687v18.533c0-17.923 15.061-32.677 32.94-32.922z" opacity=".025"/><path fill="#000" d="M32.776 95.114c-8.236 0-15.052 6.04-16.28 13.934 3.855-3.2 8.725-5.11 14.023-5.11h18.738v-8.824H32.772Z" opacity=".05"/><path fill="#000" d="M49.257 62.192v-4.706C35.6 58.616 23.618 66.31 16.317 77.55v17.563c0-17.924 15.061-32.678 32.94-32.922z" opacity=".025"/><path fill="#000" d="M32.776 95.114c-8 0-14.665 5.702-16.16 13.262 3.824-3.38 8.76-5.418 14.157-5.418h18.489v-7.844z" opacity=".05"/><path fill="#000" d="M49.257 62.192v-4.105c-13.819 1.024-25.892 8.957-32.94 20.492v16.535c0-17.924 15.061-32.678 32.94-32.922z" opacity=".025"/><path fill="#000" d="M32.776 95.114c-7.76 0-14.26 5.364-16.01 12.58 3.772-3.552 8.771-5.72 14.256-5.72h18.235v-6.865H32.772Z" opacity=".05"/><path fill="#000" d="M49.257 62.192v-3.504c-14.001.917-26.19 9.122-32.94 20.995v15.43c0-17.923 15.061-32.677 32.94-32.921z" opacity=".025"/><path fill="#000" d="M32.776 95.114c-7.515 0-13.846 5.03-15.827 11.9 3.704-3.727 8.753-6.02 14.327-6.02h17.986v-5.88z" opacity=".05"/><path fill="#000" d="M49.257 62.192v-2.899c-14.215.797-26.542 9.332-32.94 21.588v14.233c0-17.924 15.061-32.678 32.94-32.922z" opacity=".025"/><path fill="#000" d="M32.776 95.114c-7.261 0-13.423 4.7-15.617 11.223 3.62-3.896 8.716-6.322 14.362-6.322h17.736v-4.901H32.772Z" opacity=".05"/><path fill="#000" d="M49.257 62.192v-2.289c-14.478.668-26.97 9.603-32.94 22.309v12.902c0-17.924 15.061-32.678 32.94-32.922z" opacity=".025"/><path fill="#000" d="M32.776 95.114c-7.012 0-12.995 4.385-15.377 10.56 3.522-4.07 8.65-6.638 14.375-6.638h17.488v-3.922z" opacity=".05"/><path fill="#000" d="M49.257 62.192v-1.666c-14.811.53-27.517 9.968-32.94 23.23v11.358c0-17.924 15.061-32.678 32.94-32.922z" opacity=".025"/><path fill="#000" d="M32.776 95.114c-6.758 0-12.563 4.073-15.1 9.896 3.396-4.242 8.56-6.954 14.352-6.954h17.234v-2.942z" opacity=".05"/></svg>
