<svg xmlns="http://www.w3.org/2000/svg" viewBox="0 0 128 128"><path fill="#e72264" d="M46.22 38.889a6.627 6.627 0 1 0 0 13.253 6.627 6.627 0 0 0 0-13.253zm46.034 0a6.625 6.625 0 0 0-6.625 6.627 6.624 6.624 0 0 0 6.625 6.625 6.625 6.625 0 1 0 0-13.252zm18.484 0a6.8 6.8 0 0 0-6.8 6.8v10.463a6.8 6.8 0 0 0 6.8 6.8H121.2a6.8 6.8 0 0 0 6.801-6.8V45.69a6.8 6.8 0 0 0-6.8-6.8h-10.462zm-92.05.058C8.367 38.947 0 47.314 0 57.635c0 .202.003.403.01.603v19.787h.002v4.514l-.002.104c0 .034.002.068.004.103v.084h.002a6.435 6.435 0 0 0 6.431 6.25c3.493 0 6.364-2.782 6.463-6.25v-6.629h5.34c.145.004.29.004.436.004 10.32 0 18.687-8.25 18.687-18.57 0-10.321-8.365-18.686-18.685-18.686v-.002zm102.246 5.315a5.95 5.95 0 0 1 1.834.248c.763.235 1.413.592 1.949 1.068 0 0 .749.63.14 1.713-.472.842-1.798.336-1.798.336-.426-.356-.844-.61-1.252-.76a2.938 2.938 0 0 0-1.334-.148c-.492.052-.872.186-1.141.4a.902.902 0 0 0-.348.846.996.996 0 0 0 .405.73c.237.175.54.316.91.422.368.107.773.21 1.213.309.44.1.883.22 1.328.361a4.56 4.56 0 0 1 1.236.608c.379.263.704.605.973 1.025.268.42.436.965.508 1.637.127 1.212-.205 2.207-.996 2.986-.79.781-1.952 1.252-3.487 1.412-1.055.112-1.975.04-2.76-.217-.784-.256-1.52-.7-2.205-1.332 0 0-1.06-.915-.205-2.062.642-.863 1.848.033 1.848.033.457.425.948.74 1.473.945.524.206 1.114.275 1.775.205.588-.06 1.035-.222 1.342-.478.307-.256.438-.577.398-.961-.035-.335-.168-.6-.4-.793-.232-.194-.538-.348-.914-.467-.377-.118-.78-.224-1.215-.318a13.23 13.23 0 0 1-1.32-.362 5.695 5.695 0 0 1-1.243-.578 3.06 3.06 0 0 1-.966-.97c-.262-.41-.426-.932-.493-1.567-.083-.791.037-1.488.354-2.092.32-.603.803-1.088 1.455-1.455.652-.366 1.41-.595 2.273-.685.225-.024.446-.036.663-.04zm-8.102.035c1.444 0 1.459 1.453 1.459 1.453l-.002-.002v7.063c0 .952-.19 1.779-.57 2.478a3.99 3.99 0 0 1-1.627 1.627c-.705.385-1.54.578-2.504.578-.82 0-1.527-.149-2.125-.443a4.273 4.273 0 0 1-1.51-1.239s-1.142-1.231-.096-2.101c1.07-.89 1.995.275 1.995.275.216.302.473.528.77.678a2.16 2.16 0 0 0 1.003.227c.349 0 .657-.072.922-.217.265-.145.476-.361.633-.65.157-.29.236-.645.236-1.067V45.75s-.028-1.453 1.416-1.453zm-94.144 7.59a5.75 5.75 0 0 1 5.75 5.75c0 3.175-2.575 5.668-5.75 5.668v-.002h-5.772v-5.666c0-3.176 2.596-5.75 5.771-5.75zm24.027 2.693c-.035 0-.071 0-.11.002a3.492 3.492 0 0 0-3.363 3.445V85.69c0 .058.003.122.008.194.157 1.778 1.646 3.142 3.43 3.219.075.003.146.005.213.005h18.164c1.06 0 2.56-.857 3.351-1.918l4.567-6.113 4.568 6.113c.792 1.06 2.291 1.918 3.352 1.918h8.359v.004h9.906c.134 0 .28-.007.432-.017v-.002c1.923-.145 3.445-1.728 3.459-3.658V58.064a3.51 3.51 0 0 0-3.469-3.482H76.038c-1.061 0-2.56.858-3.352 1.918l-3.711 4.967-3.71-4.967c-.791-1.06-2.29-1.918-3.35-1.918h-8.876v-.002H42.715zm42.539 4.705V83.26l-8.955-11.99 8.955-11.986zm-32.215.46 8.613 11.526-8.613 11.532V59.744z"/><path fill="#1d1d1b" d="M6.286 76.204h6.616v6.628h-.03a6.435 6.435 0 0 1-12.867 0H.003v-.084c0-.035-.003-.07-.003-.104l.002-.103v-.468c.199-3.102 3.126-5.869 6.282-5.869Z" opacity=".15"/><path fill="#000" d="M.01 68.232v7.969c0-7.02 5.9-12.8 12.902-12.895v-2.542C7.707 61.31 3.1 64.114.01 68.232Z" opacity=".025"/><path fill="#000" d="M.02 82.197a9.015 9.015 0 0 1 5.358-1.773h7.536V76.2H6.457A6.454 6.454 0 0 0 .02 82.197z" opacity=".05"/><path fill="#000" d="M12.912 63.306v-2.309c-5.248.515-9.88 3.378-12.902 7.582v7.622c0-7.02 5.9-12.8 12.902-12.895z" opacity=".025"/><path fill="#000" d="M6.457 76.2a6.455 6.455 0 0 0-6.412 5.73 8.782 8.782 0 0 1 5.43-1.887h7.437v-3.84H6.455Z" opacity=".05"/><path fill="#000" d="M12.912 63.306v-2.077c-5.295.48-9.956 3.413-12.902 7.71v7.26c0-7.02 5.9-12.799 12.902-12.895z" opacity=".025"/><path fill="#000" d="M6.457 76.2A6.456 6.456 0 0 0 .08 81.659a8.563 8.563 0 0 1 5.493-2.001h7.34V76.2H6.454Z" opacity=".05"/><path fill="#000" d="M12.912 63.306v-1.843C7.562 61.906 2.87 64.919.01 69.322V76.2c0-7.02 5.9-12.8 12.902-12.895z" opacity=".025"/><path fill="#000" d="M6.457 76.2a6.455 6.455 0 0 0-6.33 5.195c1.498-1.323 3.432-2.122 5.545-2.122h7.242v-3.072z" opacity=".05"/><path fill="#000" d="M12.912 63.306v-1.608C7.5 62.1 2.771 65.207.01 69.725V76.2c0-7.02 5.9-12.8 12.902-12.895z" opacity=".025"/><path fill="#000" d="M6.457 76.2a6.455 6.455 0 0 0-6.27 4.928c1.477-1.391 3.435-2.24 5.583-2.24h7.142v-2.69H6.455Z" opacity=".05"/><path fill="#000" d="M12.912 63.306v-1.372C7.428 62.293 2.654 65.507.01 70.157v6.044c0-7.02 5.9-12.8 12.902-12.895z" opacity=".025"/><path fill="#000" d="M6.457 76.2a6.453 6.453 0 0 0-6.199 4.662c1.45-1.46 3.428-2.358 5.611-2.358h7.045v-2.303z" opacity=".05"/><path fill="#000" d="M12.912 63.306v-1.135C7.344 62.483 2.516 65.826.01 70.626v5.575c0-7.02 5.9-12.8 12.902-12.895z" opacity=".025"/><path fill="#000" d="M6.457 76.2A6.457 6.457 0 0 0 .34 80.598c1.418-1.526 3.414-2.476 5.625-2.476h6.947V76.2H6.455Z" opacity=".05"/><path fill="#000" d="M12.912 63.306v-.896C7.242 62.67 2.35 66.17.01 71.147v5.054c0-7.02 5.9-12.8 12.902-12.895z" opacity=".025"/><path fill="#000" d="M6.457 76.2a6.457 6.457 0 0 0-6.023 4.137c1.38-1.594 3.388-2.6 5.63-2.6h6.85V76.2z" opacity=".05"/><path fill="#000" d="M12.912 63.306v-.652C7.111 62.86 2.134 66.558.01 71.753V76.2c0-7.02 5.9-12.8 12.902-12.895z" opacity=".025"/><path fill="#000" d="M6.457 76.2a6.451 6.451 0 0 0-5.915 3.877c1.33-1.662 3.353-2.724 5.622-2.724h6.75v-1.152z" opacity=".05"/></svg>
