<?xml version="1.0" standalone="no"?>
<!DOCTYPE svg PUBLIC "-//W3C//DTDSVG20010904//EN"  "http://www.w3.org/TR/2001/REC-SVG-20010904/DTD/svg10.dtd">
<svg version="1.0" xmlns="http://www.w3.org/2000/svg" width="300.000000pt" height="300.000000pt" viewBox="0 0 300.000000 300.000000" preserveAspectRatio="xMidYMid meet">

    <g transform="translate(0.000000,300.000000) scale(0.100000,-0.100000)" fill="#000000" stroke="none">
        <path d="M2004 2378 l-19 -23 23 19 c21 18 27 26 19 26 -2 0 -12 -10 -23 -22z"/>
        <path d="M1942 2220 c0 -19 2 -27 5 -17 2 9 2 25 0 35 -3 9 -5 1 -5 -18z"/>
        <path d="M2320 2239 c0 -5 5 -7 10 -4 6 3 10 8 10 11 0 2 -4 4 -10 4 -5 0 -10
            -5 -10 -11z"/>
        <path d="M2402 2220 c0 -19 2 -27 5 -17 2 9 2 25 0 35 -3 9 -5 1 -5 -18z"/>
        <path d="M2130 2205 l-24 -26 79 -77 80 -77 -75 77 -74 77 24 26 c13 14 21 25
            18 25 -2 0 -15 -11 -28 -25z"/>
        <path d="M2342 2210 c0 -14 2 -19 5 -12 2 6 2 18 0 25 -3 6 -5 1 -5 -13z"/>
        <path d="M2220 2105 c35 -36 67 -65 69 -65 3 0 -24 29 -59 65 -35 36 -67 65
            -69 65 -3 0 24 -29 59 -65z"/>
        <path d="M1858 2103 c6 -2 18 -2 25 0 6 3 1 5 -13 5 -14 0 -19 -2 -12 -5z"/>
        <path d="M2010 2016 c0 -2 8 -10 18 -17 15 -13 16 -12 3 4 -13 16 -21 21 -21
            13z"/>
        <path d="M1630 1733 l-265 -268 268 265 c248 246 272 270 264 270 -1 0 -121
            -120 -267 -267z"/>
        <path d="M2128 1993 c7 -3 16 -2 19 1 4 3 -2 6 -13 5 -11 0 -14 -3 -6 -6z"/>
        <path d="M1594 1948 l-19 -23 23 19 c21 18 27 26 19 26 -2 0 -12 -10 -23 -22z"/>
        <path d="M1529 1893 l-24 -28 28 24 c25 23 32 31 24 31 -2 0 -14 -12 -28 -27z"/>
        <path d="M1979 1863 l-24 -28 28 24 c25 23 32 31 24 31 -2 0 -14 -12 -28 -27z"/>
        <path d="M1979 1823 l-24 -28 28 24 c25 23 32 31 24 31 -2 0 -14 -12 -28 -27z"/>
        <path d="M1415 1788 l-50 -53 53 50 c28 27 52 51 52 52 0 8 -9 -1 -55 -49z"/>
        <path d="M1899 1793 l-24 -28 28 24 c25 23 32 31 24 31 -2 0 -14 -12 -28 -27z"/>
        <path d="M1899 1753 l-24 -28 28 24 c25 23 32 31 24 31 -2 0 -14 -12 -28 -27z"/>
        <path d="M1824 1728 l-19 -23 23 19 c21 18 27 26 19 26 -2 0 -12 -10 -23 -22z"/>
        <path d="M1809 1673 l-24 -28 28 24 c25 23 32 31 24 31 -2 0 -14 -12 -28 -27z"/>
        <path d="M1749 1663 l-24 -28 28 24 c25 23 32 31 24 31 -2 0 -14 -12 -28 -27z"/>
        <path d="M1729 1603 l-24 -28 28 24 c25 23 32 31 24 31 -2 0 -14 -12 -28 -27z"/>
        <path d="M1899 1613 c-13 -16 -12 -17 4 -4 16 13 21 21 13 21 -2 0 -10 -8 -17
            -17z"/>
        <path d="M1669 1593 l-24 -28 28 24 c25 23 32 31 24 31 -2 0 -14 -12 -28 -27z"/>
        <path d="M1270 1538 c41 -45 50 -53 50 -45 0 2 -21 23 -47 47 l-48 45 45 -47z"/>
        <path d="M1834 1538 l-29 -33 33 29 c30 28 37 36 29 36 -2 0 -16 -15 -33 -32z"/>
        <path d="M1245 1520 c21 -22 41 -40 44 -40 3 0 -13 18 -34 40 -21 22 -41 40
            -44 40 -3 0 13 -18 34 -40z"/>
        <path d="M1649 1533 l-24 -28 28 24 c25 23 32 31 24 31 -2 0 -14 -12 -28 -27z"/>
        <path d="M1594 1528 l-19 -23 23 19 c21 18 27 26 19 26 -2 0 -12 -10 -23 -22z"/>
        <path d="M1519 1463 l-24 -28 28 24 c25 23 32 31 24 31 -2 0 -14 -12 -28 -27z"/>
        <path d="M1569 1463 l-24 -28 28 24 c25 23 32 31 24 31 -2 0 -14 -12 -28 -27z"/>
        <path d="M1385 1420 c10 -11 20 -20 23 -20 3 0 -3 9 -13 20 -10 11 -20 20 -23
            20 -3 0 3 -9 13 -20z"/>
        <path d="M1284 1388 l-29 -33 33 29 c17 17 32 31 32 33 0 8 -8 1 -36 -29z"/>
        <path d="M1449 1403 c-13 -16 -12 -17 4 -4 9 7 17 15 17 17 0 8 -8 3 -21 -13z"/>
        <path d="M1489 1393 l-24 -28 28 24 c25 23 32 31 24 31 -2 0 -14 -12 -28 -27z"/>
        <path d="M1338 1343 c7 -3 16 -2 19 1 4 3 -2 6 -13 5 -11 0 -14 -3 -6 -6z"/>
        <path d="M1500 1305 c19 -19 36 -35 39 -35 3 0 -10 16 -29 35 -19 19 -36 35
            -39 35 -3 0 10 -16 29 -35z"/>
        <path d="M1388 1323 c7 -3 16 -2 19 1 4 3 -2 6 -13 5 -11 0 -14 -3 -6 -6z"/>
        <path d="M1470 1285 c19 -19 36 -35 39 -35 3 0 -10 16 -29 35 -19 19 -36 35
            -39 35 -3 0 10 -16 29 -35z"/>
        <path d="M1258 1303 c7 -3 16 -2 19 1 4 3 -2 6 -13 5 -11 0 -14 -3 -6 -6z"/>
        <path d="M995 1098 l-180 -183 183 180 c169 167 187 185 179 185 -1 0 -83 -82
            -182 -182z"/>
        <path d="M1449 1173 c-13 -16 -12 -17 4 -4 16 13 21 21 13 21 -2 0 -10 -8 -17
            -17z"/>
        <path d="M805 740 c38 -38 72 -70 74 -70 3 0 -26 32 -64 70 -38 39 -72 70 -74
            70 -3 0 26 -31 64 -70z"/>
        <path d="M755 750 c21 -22 41 -40 44 -40 3 0 -13 18 -34 40 -21 22 -41 40 -44
            40 -3 0 13 -18 34 -40z"/>
        <path d="M613 663 c9 -2 25 -2 35 0 9 3 1 5 -18 5 -19 0 -27 -2 -17 -5z"/>
        <path d="M773 653 c9 -2 25 -2 35 0 9 3 1 5 -18 5 -19 0 -27 -2 -17 -5z"/>
    </g>
</svg>
