<svg id="svg" version="1.1" xmlns="http://www.w3.org/2000/svg" xmlns:xlink="http://www.w3.org/1999/xlink" width="400" height="400" viewBox="0, 0, 400,400"><g id="svgg"><path id="path0" d="M175.200 0.400 C 175.200 0.643,173.400 0.800,170.600 0.800 C 166.778 0.800,166.000 0.901,166.000 1.400 C 166.000 1.886,165.359 2.000,162.629 2.000 C 160.199 2.000,159.093 2.164,158.671 2.587 C 158.301 2.956,157.161 3.201,155.588 3.248 C 153.536 3.310,153.059 3.454,152.900 4.061 C 152.737 4.683,152.299 4.800,150.141 4.800 C 148.229 4.800,147.516 4.953,147.345 5.400 C 147.184 5.819,146.531 6.000,145.186 6.000 C 144.005 6.000,143.025 6.233,142.657 6.600 C 142.327 6.930,141.429 7.200,140.661 7.200 C 138.872 7.200,138.000 7.542,138.000 8.243 C 138.000 8.645,137.443 8.800,136.000 8.800 C 134.489 8.800,134.000 8.947,134.000 9.400 C 134.000 9.843,133.536 10.000,132.220 10.000 C 131.030 10.000,130.325 10.205,130.094 10.618 C 129.903 10.958,129.219 11.281,128.574 11.336 C 127.747 11.407,127.416 11.637,127.456 12.118 C 127.501 12.676,127.153 12.800,125.543 12.800 C 124.163 12.800,123.506 12.979,123.345 13.400 C 123.213 13.742,122.617 14.000,121.957 14.000 C 121.195 14.000,120.800 14.205,120.800 14.600 C 120.800 15.019,120.378 15.200,119.400 15.200 C 118.280 15.200,118.000 15.356,118.000 15.978 C 118.000 16.623,117.674 16.777,116.100 16.878 C 114.842 16.959,114.234 17.169,114.300 17.500 C 114.364 17.821,113.915 18.000,113.043 18.000 C 112.269 18.000,111.596 18.233,111.477 18.543 C 111.363 18.842,110.713 19.197,110.034 19.333 C 109.303 19.479,108.800 19.828,108.800 20.190 C 108.800 20.603,108.407 20.800,107.587 20.800 C 106.879 20.800,106.279 21.049,106.145 21.400 C 106.018 21.730,105.587 22.000,105.186 22.000 C 104.785 22.000,104.187 22.270,103.857 22.600 C 103.527 22.930,102.974 23.200,102.629 23.200 C 102.267 23.200,102.000 23.539,102.000 24.000 C 102.000 24.648,101.733 24.800,100.600 24.800 C 99.622 24.800,99.200 24.981,99.200 25.400 C 99.200 25.800,98.800 26.000,98.000 26.000 C 97.200 26.000,96.800 26.200,96.800 26.600 C 96.800 26.930,96.513 27.200,96.163 27.200 C 95.812 27.200,95.431 27.560,95.316 28.000 C 95.168 28.567,94.770 28.800,93.953 28.800 C 93.195 28.800,92.800 29.005,92.800 29.400 C 92.800 29.801,92.399 30.000,91.587 30.000 C 90.879 30.000,90.279 30.249,90.145 30.600 C 90.018 30.930,89.664 31.200,89.357 31.200 C 89.051 31.200,88.800 31.560,88.800 32.000 C 88.800 32.624,88.533 32.800,87.587 32.800 C 86.879 32.800,86.279 33.049,86.145 33.400 C 86.018 33.730,85.664 34.000,85.357 34.000 C 85.051 34.000,84.800 34.252,84.800 34.561 C 84.800 34.869,84.260 35.310,83.600 35.540 C 82.940 35.770,82.400 36.148,82.400 36.379 C 82.400 36.611,82.040 36.800,81.600 36.800 C 81.156 36.800,80.800 37.067,80.800 37.400 C 80.800 37.733,80.444 38.000,80.000 38.000 C 79.560 38.000,79.200 38.252,79.200 38.561 C 79.200 38.869,78.660 39.310,78.000 39.540 C 77.340 39.770,76.800 40.148,76.800 40.379 C 76.800 40.611,76.524 40.800,76.187 40.800 C 75.851 40.800,75.471 41.070,75.345 41.400 C 75.218 41.730,74.864 42.000,74.557 42.000 C 74.251 42.000,74.000 42.251,74.000 42.557 C 74.000 42.864,73.730 43.218,73.400 43.345 C 73.070 43.471,72.800 43.851,72.800 44.187 C 72.800 44.566,72.436 44.800,71.849 44.800 C 71.326 44.800,70.674 45.070,70.400 45.400 C 70.126 45.730,69.675 46.000,69.398 46.000 C 69.120 46.000,68.798 46.365,68.681 46.811 C 68.564 47.258,68.228 47.573,67.934 47.511 C 67.641 47.450,67.450 47.641,67.511 47.934 C 67.573 48.228,67.258 48.564,66.811 48.681 C 66.365 48.798,66.000 49.142,66.000 49.447 C 66.000 49.751,65.730 50.000,65.400 50.000 C 65.070 50.000,64.800 50.249,64.800 50.553 C 64.800 50.858,64.440 51.201,64.000 51.316 C 63.560 51.431,63.200 51.812,63.200 52.163 C 63.200 52.513,62.930 52.800,62.600 52.800 C 62.270 52.800,62.000 53.070,62.000 53.400 C 62.000 53.730,61.730 54.000,61.400 54.000 C 61.070 54.000,60.800 54.249,60.800 54.553 C 60.800 54.858,60.440 55.201,60.000 55.316 C 59.560 55.431,59.200 55.812,59.200 56.163 C 59.200 56.513,58.930 56.800,58.600 56.800 C 58.270 56.800,58.000 57.070,58.000 57.400 C 58.000 57.730,57.730 58.000,57.400 58.000 C 57.070 58.000,56.800 58.249,56.800 58.553 C 56.800 58.858,56.440 59.201,56.000 59.316 C 55.560 59.431,55.200 59.812,55.200 60.163 C 55.200 60.513,54.930 60.800,54.600 60.800 C 54.270 60.800,54.000 61.070,54.000 61.400 C 54.000 61.730,53.730 62.000,53.400 62.000 C 53.070 62.000,52.800 62.249,52.800 62.553 C 52.800 62.858,52.440 63.201,52.000 63.316 C 51.560 63.431,51.200 63.812,51.200 64.163 C 51.200 64.513,50.930 64.800,50.600 64.800 C 50.270 64.800,50.000 65.070,50.000 65.400 C 50.000 65.730,49.730 66.000,49.400 66.000 C 49.070 66.000,48.800 66.249,48.800 66.553 C 48.800 66.858,48.440 67.201,48.000 67.316 C 47.560 67.431,47.200 67.812,47.200 68.163 C 47.200 68.513,46.930 68.800,46.600 68.800 C 46.270 68.800,46.000 69.076,46.000 69.413 C 46.000 69.749,45.730 70.129,45.400 70.255 C 45.058 70.387,44.800 70.983,44.800 71.643 C 44.800 72.533,44.616 72.800,44.000 72.800 C 43.556 72.800,43.200 73.067,43.200 73.400 C 43.200 73.730,42.930 74.000,42.600 74.000 C 42.270 74.000,42.000 74.251,42.000 74.557 C 42.000 74.864,41.730 75.218,41.400 75.345 C 41.070 75.471,40.800 75.851,40.800 76.187 C 40.800 76.524,40.553 76.800,40.250 76.800 C 39.948 76.800,39.592 77.340,39.460 78.000 C 39.319 78.704,38.968 79.200,38.610 79.200 C 38.267 79.200,38.000 79.550,38.000 80.000 C 38.000 80.444,37.733 80.800,37.400 80.800 C 37.070 80.800,36.800 81.117,36.800 81.504 C 36.800 81.891,36.440 82.432,36.000 82.707 C 35.560 82.982,35.200 83.565,35.200 84.003 C 35.200 84.445,34.932 84.800,34.600 84.800 C 34.270 84.800,34.000 85.051,34.000 85.357 C 34.000 85.664,33.730 86.018,33.400 86.145 C 33.049 86.279,32.800 86.879,32.800 87.587 C 32.800 88.533,32.624 88.800,32.000 88.800 C 31.467 88.800,31.200 89.067,31.200 89.600 C 31.200 90.040,30.983 90.355,30.718 90.300 C 30.242 90.201,30.147 90.441,30.050 92.000 C 30.023 92.440,29.730 92.800,29.400 92.800 C 29.000 92.800,28.800 93.200,28.800 94.000 C 28.800 94.831,28.604 95.200,28.163 95.200 C 27.812 95.200,27.431 95.560,27.316 96.000 C 27.201 96.440,26.869 96.800,26.579 96.800 C 26.275 96.800,25.997 97.353,25.925 98.100 C 25.850 98.878,25.599 99.360,25.300 99.300 C 24.976 99.235,24.800 99.693,24.800 100.600 C 24.800 101.733,24.648 102.000,24.000 102.000 C 23.560 102.000,23.200 102.255,23.200 102.568 C 23.200 103.333,21.922 105.722,21.300 106.120 C 21.025 106.296,20.800 106.971,20.800 107.620 C 20.800 108.360,20.593 108.800,20.245 108.800 C 19.929 108.800,19.579 109.389,19.434 110.161 C 19.293 110.910,18.913 111.624,18.589 111.749 C 18.256 111.877,18.000 112.483,18.000 113.145 C 18.000 113.815,17.744 114.413,17.400 114.545 C 17.004 114.697,16.800 115.323,16.800 116.387 C 16.800 117.499,16.627 118.000,16.243 118.000 C 15.631 118.000,15.200 118.841,15.200 120.033 C 15.200 120.455,14.941 120.800,14.624 120.800 C 14.247 120.800,14.005 121.319,13.924 122.300 C 13.847 123.238,13.613 123.763,13.300 123.700 C 12.955 123.631,12.800 124.204,12.800 125.556 C 12.800 127.157,12.676 127.501,12.114 127.456 C 11.578 127.412,11.399 127.791,11.294 129.196 C 11.216 130.228,10.912 131.129,10.579 131.316 C 10.254 131.498,10.000 132.226,10.000 132.977 C 10.000 133.713,9.766 134.404,9.481 134.514 C 9.190 134.625,8.916 135.479,8.859 136.453 C 8.798 137.476,8.515 138.328,8.170 138.521 C 7.847 138.701,7.688 139.018,7.815 139.225 C 7.943 139.431,7.857 139.600,7.624 139.600 C 7.390 139.600,7.200 140.387,7.200 141.357 C 7.200 142.550,7.007 143.188,6.600 143.345 C 6.179 143.506,6.000 144.163,6.000 145.545 C 6.000 146.927,5.821 147.583,5.400 147.745 C 4.964 147.912,4.800 148.596,4.800 150.243 C 4.800 151.923,4.622 152.642,4.116 153.012 C 3.611 153.381,3.388 154.270,3.269 156.387 C 3.158 158.346,2.930 159.329,2.553 159.473 C 2.148 159.629,2.000 160.517,2.000 162.794 C 2.000 165.069,1.839 166.036,1.400 166.400 C 0.926 166.794,0.800 167.936,0.800 171.849 C 0.800 174.883,0.645 176.800,0.400 176.800 C 0.138 176.800,0.000 184.800,0.000 200.000 C 0.000 215.200,0.138 223.200,0.400 223.200 C 0.646 223.200,0.800 225.186,0.800 228.357 C 0.800 232.572,0.910 233.556,1.400 233.745 C 1.863 233.923,2.000 234.696,2.000 237.145 C 2.000 239.593,2.137 240.367,2.600 240.545 C 3.049 240.717,3.200 241.434,3.200 243.387 C 3.200 245.467,3.363 246.163,4.000 246.800 C 4.607 247.407,4.800 248.133,4.800 249.813 C 4.800 251.410,4.967 252.089,5.400 252.255 C 5.819 252.416,6.000 253.070,6.000 254.423 C 6.000 255.728,6.196 256.470,6.600 256.696 C 6.970 256.903,7.225 257.701,7.268 258.784 C 7.311 259.875,7.613 260.813,8.068 261.268 C 8.488 261.688,8.800 262.575,8.800 263.351 C 8.800 264.094,9.070 264.926,9.400 265.200 C 9.730 265.474,10.000 266.297,10.000 267.029 C 10.000 267.775,10.255 268.503,10.579 268.684 C 10.897 268.862,11.230 269.709,11.318 270.565 C 11.405 271.421,11.775 272.339,12.139 272.605 C 12.505 272.872,12.800 273.636,12.800 274.316 C 12.800 274.991,13.070 275.813,13.400 276.143 C 13.730 276.473,14.000 277.296,14.000 277.971 C 14.000 278.797,14.197 279.200,14.600 279.200 C 15.004 279.200,15.200 279.604,15.200 280.437 C 15.200 281.338,15.417 281.732,16.000 281.884 C 16.601 282.041,16.800 282.430,16.800 283.447 C 16.800 284.383,16.985 284.800,17.400 284.800 C 17.791 284.800,18.000 285.192,18.000 285.924 C 18.000 286.541,18.264 287.396,18.587 287.824 C 18.910 288.251,19.180 288.915,19.187 289.300 C 19.194 289.685,19.560 290.360,20.000 290.800 C 20.440 291.240,20.800 291.851,20.800 292.157 C 20.800 292.464,21.070 292.818,21.400 292.945 C 21.730 293.071,22.000 293.631,22.000 294.187 C 22.000 294.821,22.225 295.200,22.600 295.200 C 22.930 295.200,23.200 295.545,23.200 295.967 C 23.200 297.159,23.631 298.000,24.243 298.000 C 24.593 298.000,24.800 298.438,24.800 299.180 C 24.800 299.829,25.065 300.509,25.389 300.690 C 25.713 300.871,26.035 301.395,26.105 301.854 C 26.175 302.314,26.540 302.997,26.916 303.373 C 27.292 303.749,27.600 304.224,27.600 304.429 C 27.600 304.633,27.870 304.800,28.200 304.800 C 28.600 304.800,28.800 305.200,28.800 306.000 C 28.800 306.800,29.000 307.200,29.400 307.200 C 29.733 307.200,30.000 307.556,30.000 308.000 C 30.000 308.444,30.267 308.800,30.600 308.800 C 31.114 308.800,31.422 309.797,31.247 310.900 C 31.221 311.065,31.560 311.200,32.000 311.200 C 32.518 311.200,32.800 311.467,32.800 311.957 C 32.800 312.374,33.070 312.818,33.400 312.945 C 33.730 313.071,34.000 313.631,34.000 314.187 C 34.000 314.821,34.225 315.200,34.600 315.200 C 34.930 315.200,35.200 315.487,35.200 315.837 C 35.200 316.188,35.560 316.569,36.000 316.684 C 36.567 316.832,36.800 317.230,36.800 318.047 C 36.800 318.805,37.005 319.200,37.400 319.200 C 37.730 319.200,38.000 319.476,38.000 319.813 C 38.000 320.149,38.270 320.529,38.600 320.655 C 38.930 320.782,39.200 321.136,39.200 321.443 C 39.200 321.749,39.560 322.000,40.000 322.000 C 40.616 322.000,40.800 322.267,40.800 323.157 C 40.800 323.817,41.058 324.413,41.400 324.545 C 41.730 324.671,42.000 325.051,42.000 325.387 C 42.000 325.724,42.270 326.000,42.600 326.000 C 42.930 326.000,43.200 326.270,43.200 326.600 C 43.200 326.933,43.556 327.200,44.000 327.200 C 44.533 327.200,44.800 327.467,44.800 328.000 C 44.800 328.444,45.067 328.800,45.400 328.800 C 45.730 328.800,46.023 329.070,46.050 329.400 C 46.078 329.730,46.123 330.163,46.150 330.361 C 46.178 330.560,46.785 331.281,47.500 331.965 C 48.215 332.648,48.800 333.385,48.800 333.603 C 48.800 333.822,49.070 334.000,49.400 334.000 C 49.730 334.000,50.000 334.270,50.000 334.600 C 50.000 334.930,50.270 335.200,50.600 335.200 C 50.930 335.200,51.200 335.487,51.200 335.837 C 51.200 336.188,51.560 336.569,52.000 336.684 C 52.440 336.799,52.800 337.142,52.800 337.447 C 52.800 337.751,53.070 338.000,53.400 338.000 C 53.730 338.000,54.000 338.270,54.000 338.600 C 54.000 338.930,54.270 339.200,54.600 339.200 C 54.930 339.200,55.200 339.487,55.200 339.837 C 55.200 340.188,55.560 340.569,56.000 340.684 C 56.440 340.799,56.800 341.142,56.800 341.447 C 56.800 341.751,57.070 342.000,57.400 342.000 C 57.730 342.000,58.000 342.270,58.000 342.600 C 58.000 342.930,58.270 343.200,58.600 343.200 C 58.930 343.200,59.200 343.487,59.200 343.837 C 59.200 344.188,59.560 344.569,60.000 344.684 C 60.440 344.799,60.800 345.142,60.800 345.447 C 60.800 345.751,61.070 346.000,61.400 346.000 C 61.730 346.000,62.000 346.270,62.000 346.600 C 62.000 346.930,62.270 347.200,62.600 347.200 C 62.930 347.200,63.200 347.487,63.200 347.837 C 63.200 348.188,63.560 348.569,64.000 348.684 C 64.440 348.799,64.800 349.142,64.800 349.447 C 64.800 349.751,65.070 350.000,65.400 350.000 C 65.730 350.000,66.000 350.270,66.000 350.600 C 66.000 350.930,66.270 351.200,66.600 351.200 C 66.930 351.200,67.200 351.476,67.200 351.813 C 67.200 352.149,67.515 352.541,67.900 352.682 C 68.285 352.824,68.744 353.178,68.920 353.470 C 69.096 353.761,69.681 354.000,70.220 354.000 C 70.824 354.000,71.200 354.230,71.200 354.600 C 71.200 354.933,71.556 355.200,72.000 355.200 C 72.533 355.200,72.800 355.467,72.800 356.000 C 72.800 356.444,73.067 356.800,73.400 356.800 C 73.730 356.800,74.000 357.070,74.000 357.400 C 74.000 357.730,74.251 358.000,74.557 358.000 C 74.864 358.000,75.218 358.270,75.345 358.600 C 75.479 358.951,76.079 359.200,76.787 359.200 C 77.733 359.200,78.000 359.376,78.000 360.000 C 78.000 360.444,78.267 360.800,78.600 360.800 C 78.930 360.800,79.200 361.070,79.200 361.400 C 79.200 361.733,79.556 362.000,80.000 362.000 C 80.444 362.000,80.800 362.267,80.800 362.600 C 80.800 363.000,81.200 363.200,82.000 363.200 C 82.831 363.200,83.200 363.396,83.200 363.837 C 83.200 364.188,83.560 364.569,84.000 364.684 C 84.440 364.799,84.800 365.142,84.800 365.447 C 84.800 365.751,85.076 366.000,85.413 366.000 C 85.749 366.000,86.129 366.270,86.255 366.600 C 86.387 366.942,86.983 367.200,87.643 367.200 C 88.533 367.200,88.800 367.384,88.800 368.000 C 88.800 368.533,89.067 368.800,89.600 368.800 C 90.040 368.800,90.400 368.966,90.400 369.168 C 90.400 369.371,90.940 369.655,91.600 369.800 C 92.260 369.945,92.800 370.319,92.800 370.632 C 92.800 370.996,93.230 371.200,94.000 371.200 C 94.831 371.200,95.200 371.396,95.200 371.837 C 95.200 372.188,95.560 372.569,96.000 372.684 C 96.440 372.799,96.800 373.142,96.800 373.447 C 96.800 373.795,97.245 374.000,98.000 374.000 C 98.800 374.000,99.200 374.200,99.200 374.600 C 99.200 375.015,99.617 375.200,100.553 375.200 C 101.570 375.200,101.959 375.399,102.116 376.000 C 102.268 376.583,102.662 376.800,103.563 376.800 C 104.396 376.800,104.800 376.996,104.800 377.400 C 104.800 377.765,105.172 378.000,105.751 378.000 C 106.274 378.000,106.926 378.270,107.200 378.600 C 107.474 378.930,107.993 379.200,108.353 379.200 C 108.713 379.200,109.232 379.560,109.507 380.000 C 109.782 380.440,110.320 380.806,110.703 380.813 C 111.087 380.820,111.749 381.090,112.176 381.413 C 112.604 381.736,113.459 382.000,114.076 382.000 C 114.808 382.000,115.200 382.209,115.200 382.600 C 115.200 383.015,115.617 383.200,116.553 383.200 C 117.570 383.200,117.959 383.399,118.116 384.000 C 118.268 384.583,118.662 384.800,119.563 384.800 C 120.396 384.800,120.800 384.996,120.800 385.400 C 120.800 385.830,121.239 386.000,122.351 386.000 C 123.242 386.000,124.114 386.255,124.400 386.600 C 124.674 386.930,125.373 387.200,125.953 387.200 C 126.574 387.200,127.213 387.529,127.507 388.000 C 127.867 388.577,128.440 388.800,129.561 388.800 C 130.546 388.800,131.196 389.011,131.336 389.377 C 131.476 389.742,132.263 390.000,133.479 390.077 C 134.591 390.148,135.316 390.368,135.200 390.600 C 135.084 390.832,135.925 391.084,137.200 391.200 C 138.800 391.345,139.400 391.564,139.400 392.000 C 139.400 392.425,139.923 392.637,141.200 392.728 C 142.231 392.801,143.136 393.100,143.320 393.428 C 143.546 393.832,144.398 394.000,146.220 394.000 C 148.247 394.000,148.800 394.129,148.800 394.600 C 148.800 395.071,149.350 395.200,151.353 395.200 C 153.570 395.200,153.934 395.305,154.116 396.000 C 154.298 396.698,154.662 396.800,156.963 396.800 C 159.040 396.800,159.600 396.927,159.600 397.400 C 159.600 397.891,160.284 398.000,163.357 398.000 C 166.328 398.000,167.163 398.126,167.345 398.600 C 167.531 399.085,168.456 399.200,172.187 399.200 C 174.996 399.200,176.800 399.356,176.800 399.600 C 176.800 399.862,184.800 400.000,200.000 400.000 C 215.200 400.000,223.200 399.862,223.200 399.600 C 223.200 399.354,225.186 399.200,228.357 399.200 C 232.572 399.200,233.556 399.090,233.745 398.600 C 233.923 398.137,234.696 398.000,237.145 398.000 C 239.593 398.000,240.367 397.863,240.545 397.400 C 240.712 396.963,241.405 396.799,243.087 396.795 C 245.953 396.788,247.200 396.472,247.200 395.753 C 247.200 395.339,247.853 395.200,249.800 395.200 C 251.844 395.200,252.400 395.072,252.400 394.600 C 252.400 394.146,252.890 394.000,254.413 394.000 C 255.832 394.000,256.493 393.823,256.655 393.400 C 256.812 392.993,257.450 392.800,258.643 392.800 C 259.867 392.800,260.643 392.557,261.200 392.000 C 261.735 391.465,262.533 391.200,263.613 391.200 C 264.677 391.200,265.303 390.996,265.455 390.600 C 265.598 390.228,266.207 390.000,267.055 390.000 C 267.904 390.000,268.513 389.772,268.655 389.400 C 268.813 388.990,269.454 388.800,270.680 388.800 C 272.138 388.800,272.514 388.650,272.684 388.000 C 272.853 387.353,273.230 387.200,274.647 387.200 C 275.939 387.200,276.400 387.042,276.400 386.600 C 276.400 386.181,276.822 386.000,277.800 386.000 C 278.778 386.000,279.200 385.819,279.200 385.400 C 279.200 384.996,279.604 384.800,280.437 384.800 C 281.338 384.800,281.732 384.583,281.884 384.000 C 282.041 383.399,282.430 383.200,283.447 383.200 C 284.383 383.200,284.800 383.015,284.800 382.600 C 284.800 382.183,285.219 382.000,286.171 382.000 C 286.926 382.000,287.791 381.752,288.094 381.449 C 288.397 381.146,289.220 380.771,289.923 380.617 C 290.628 380.462,291.200 380.082,291.200 379.768 C 291.200 379.427,291.604 379.200,292.213 379.200 C 292.769 379.200,293.329 378.930,293.455 378.600 C 293.582 378.270,294.026 378.000,294.443 378.000 C 294.859 378.000,295.200 377.730,295.200 377.400 C 295.200 376.981,295.622 376.800,296.600 376.800 C 297.733 376.800,298.000 376.648,298.000 376.000 C 298.000 375.352,298.267 375.200,299.400 375.200 C 300.378 375.200,300.800 375.019,300.800 374.600 C 300.800 374.200,301.200 374.000,302.000 374.000 C 302.755 374.000,303.200 373.795,303.200 373.447 C 303.200 373.142,303.560 372.799,304.000 372.684 C 304.440 372.569,304.800 372.188,304.800 371.837 C 304.800 371.396,305.169 371.200,306.000 371.200 C 306.800 371.200,307.200 371.000,307.200 370.600 C 307.200 370.270,307.547 370.000,307.971 370.000 C 308.396 370.000,309.013 369.730,309.343 369.400 C 309.673 369.070,310.226 368.800,310.571 368.800 C 310.933 368.800,311.200 368.461,311.200 368.000 C 311.200 367.384,311.467 367.200,312.357 367.200 C 313.017 367.200,313.613 366.942,313.745 366.600 C 313.871 366.270,314.251 366.000,314.587 366.000 C 314.924 366.000,315.200 365.751,315.200 365.447 C 315.200 365.142,315.560 364.799,316.000 364.684 C 316.440 364.569,316.800 364.188,316.800 363.837 C 316.800 363.396,317.169 363.200,318.000 363.200 C 318.800 363.200,319.200 363.000,319.200 362.600 C 319.200 362.267,319.556 362.000,320.000 362.000 C 320.444 362.000,320.800 361.733,320.800 361.400 C 320.800 361.070,321.070 360.800,321.400 360.800 C 321.733 360.800,322.000 360.444,322.000 360.000 C 322.000 359.376,322.267 359.200,323.213 359.200 C 323.921 359.200,324.521 358.951,324.655 358.600 C 324.782 358.270,325.136 358.000,325.443 358.000 C 325.749 358.000,326.000 357.730,326.000 357.400 C 326.000 357.070,326.270 356.800,326.600 356.800 C 326.933 356.800,327.200 356.444,327.200 356.000 C 327.200 355.467,327.467 355.200,328.000 355.200 C 328.444 355.200,328.800 354.933,328.800 354.600 C 328.800 354.200,329.200 354.000,330.000 354.000 C 330.755 354.000,331.200 353.795,331.200 353.447 C 331.200 353.142,331.560 352.799,332.000 352.684 C 332.440 352.569,332.800 352.188,332.800 351.837 C 332.800 351.487,333.070 351.200,333.400 351.200 C 333.730 351.200,334.000 350.930,334.000 350.600 C 334.000 350.270,334.270 350.000,334.600 350.000 C 334.930 350.000,335.200 349.751,335.200 349.447 C 335.200 349.142,335.560 348.799,336.000 348.684 C 336.440 348.569,336.800 348.188,336.800 347.837 C 336.800 347.487,337.070 347.200,337.400 347.200 C 337.730 347.200,338.000 346.930,338.000 346.600 C 338.000 346.270,338.270 346.000,338.600 346.000 C 338.930 346.000,339.200 345.751,339.200 345.447 C 339.200 345.142,339.560 344.799,340.000 344.684 C 340.440 344.569,340.800 344.188,340.800 343.837 C 340.800 343.487,341.070 343.200,341.400 343.200 C 341.730 343.200,342.000 342.930,342.000 342.600 C 342.000 342.270,342.270 342.000,342.600 342.000 C 342.930 342.000,343.200 341.751,343.200 341.447 C 343.200 341.142,343.560 340.799,344.000 340.684 C 344.440 340.569,344.800 340.188,344.800 339.837 C 344.800 339.487,345.070 339.200,345.400 339.200 C 345.730 339.200,346.000 338.930,346.000 338.600 C 346.000 338.270,346.270 338.000,346.600 338.000 C 346.930 338.000,347.200 337.751,347.200 337.447 C 347.200 337.142,347.560 336.799,348.000 336.684 C 348.440 336.569,348.800 336.188,348.800 335.837 C 348.800 335.487,349.070 335.200,349.400 335.200 C 349.730 335.200,350.000 334.930,350.000 334.600 C 350.000 334.270,350.270 334.000,350.600 334.000 C 350.930 334.000,351.200 333.751,351.200 333.447 C 351.200 333.142,351.560 332.799,352.000 332.684 C 352.440 332.569,352.800 332.188,352.800 331.837 C 352.800 331.487,353.070 331.200,353.400 331.200 C 353.730 331.200,354.000 330.952,354.000 330.649 C 354.000 330.346,354.270 329.874,354.600 329.600 C 354.930 329.326,355.200 328.674,355.200 328.151 C 355.200 327.467,355.424 327.200,356.000 327.200 C 356.444 327.200,356.800 326.933,356.800 326.600 C 356.800 326.270,357.070 326.000,357.400 326.000 C 357.730 326.000,358.000 325.749,358.000 325.443 C 358.000 325.136,358.270 324.782,358.600 324.655 C 358.930 324.529,359.200 324.239,359.200 324.013 C 359.200 323.786,359.560 323.240,360.000 322.800 C 360.440 322.360,360.800 321.730,360.800 321.400 C 360.800 321.070,361.070 320.800,361.400 320.800 C 361.733 320.800,362.000 320.444,362.000 320.000 C 362.000 319.556,362.267 319.200,362.600 319.200 C 362.930 319.200,363.200 318.930,363.200 318.600 C 363.200 318.270,363.560 317.640,364.000 317.200 C 364.440 316.760,364.800 316.130,364.800 315.800 C 364.800 315.470,365.070 315.200,365.400 315.200 C 365.730 315.200,366.000 314.949,366.000 314.643 C 366.000 314.336,366.270 313.982,366.600 313.855 C 366.951 313.721,367.200 313.121,367.200 312.413 C 367.200 311.467,367.376 311.200,368.000 311.200 C 368.440 311.200,368.800 310.949,368.800 310.643 C 368.800 310.336,369.070 309.982,369.400 309.855 C 369.751 309.721,370.000 309.121,370.000 308.413 C 370.000 307.601,370.199 307.200,370.600 307.200 C 370.995 307.200,371.200 306.805,371.200 306.047 C 371.200 305.230,371.433 304.832,372.000 304.684 C 372.440 304.569,372.800 304.188,372.800 303.837 C 372.800 303.487,373.070 303.200,373.400 303.200 C 373.800 303.200,374.000 302.800,374.000 302.000 C 374.000 301.200,374.200 300.800,374.600 300.800 C 375.019 300.800,375.200 300.378,375.200 299.400 C 375.200 298.267,375.352 298.000,376.000 298.000 C 376.440 298.000,376.800 297.745,376.800 297.432 C 376.800 296.667,378.078 294.278,378.700 293.880 C 378.975 293.704,379.200 293.029,379.200 292.380 C 379.200 291.614,379.404 291.200,379.782 291.200 C 380.128 291.200,380.468 290.644,380.621 289.828 C 380.763 289.073,381.131 288.359,381.439 288.240 C 381.748 288.122,382.000 287.499,382.000 286.855 C 382.000 286.185,382.256 285.587,382.600 285.455 C 382.992 285.305,383.200 284.682,383.200 283.659 C 383.200 282.430,383.372 282.048,384.000 281.884 C 384.583 281.732,384.800 281.338,384.800 280.437 C 384.800 279.604,384.996 279.200,385.400 279.200 C 385.819 279.200,386.000 278.778,386.000 277.800 C 386.000 276.822,386.181 276.400,386.600 276.400 C 387.042 276.400,387.200 275.939,387.200 274.647 C 387.200 273.230,387.353 272.853,388.000 272.684 C 388.637 272.518,388.800 272.138,388.800 270.825 C 388.800 269.727,389.001 269.098,389.400 268.945 C 389.772 268.802,390.000 268.193,390.000 267.345 C 390.000 266.496,390.228 265.887,390.600 265.745 C 391.006 265.589,391.200 264.952,391.200 263.777 C 391.200 262.585,391.405 261.925,391.854 261.674 C 392.284 261.433,392.575 260.574,392.708 259.154 C 392.820 257.947,393.148 256.859,393.454 256.680 C 393.799 256.478,394.000 255.630,394.000 254.380 C 394.000 252.887,394.147 252.400,394.600 252.400 C 395.072 252.400,395.200 251.844,395.200 249.800 C 395.200 247.853,395.339 247.200,395.753 247.200 C 396.468 247.200,396.788 245.955,396.795 243.143 C 396.798 241.509,396.966 240.822,397.400 240.655 C 397.863 240.477,398.000 239.704,398.000 237.255 C 398.000 234.807,398.137 234.033,398.600 233.855 C 399.085 233.669,399.200 232.744,399.200 229.013 C 399.200 226.204,399.356 224.400,399.600 224.400 C 399.862 224.400,400.000 216.000,400.000 200.000 C 400.000 184.000,399.862 175.600,399.600 175.600 C 399.356 175.600,399.200 173.733,399.200 170.800 C 399.200 166.800,399.100 166.000,398.600 166.000 C 398.114 166.000,398.000 165.361,398.000 162.649 C 398.000 160.158,397.846 159.170,397.400 158.800 C 397.005 158.472,396.800 157.579,396.800 156.184 C 396.800 153.696,396.524 152.800,395.757 152.800 C 395.339 152.800,395.200 152.162,395.200 150.243 C 395.200 148.339,395.047 147.627,394.600 147.455 C 394.178 147.294,394.000 146.636,394.000 145.241 C 394.000 144.011,393.772 143.029,393.400 142.657 C 393.070 142.327,392.798 141.549,392.795 140.929 C 392.786 139.189,392.363 138.000,391.753 138.000 C 391.364 138.000,391.200 137.464,391.200 136.187 C 391.200 134.945,391.011 134.302,390.600 134.145 C 390.213 133.996,390.000 133.378,390.000 132.406 C 390.000 131.577,389.740 130.683,389.423 130.419 C 389.106 130.156,388.791 129.369,388.723 128.670 C 388.634 127.747,388.409 127.415,387.900 127.456 C 387.323 127.501,387.200 127.175,387.200 125.598 C 387.200 124.267,387.018 123.616,386.600 123.455 C 386.249 123.321,386.000 122.721,386.000 122.013 C 386.000 121.201,385.801 120.800,385.400 120.800 C 384.989 120.800,384.800 120.388,384.800 119.496 C 384.800 118.640,384.534 118.026,384.025 117.708 C 383.530 117.399,383.205 116.678,383.125 115.712 C 383.047 114.765,382.813 114.237,382.500 114.300 C 382.179 114.364,382.000 113.915,382.000 113.043 C 382.000 112.269,381.767 111.596,381.457 111.477 C 381.158 111.363,380.803 110.713,380.667 110.034 C 380.521 109.303,380.172 108.800,379.810 108.800 C 379.397 108.800,379.200 108.407,379.200 107.587 C 379.200 106.879,378.951 106.279,378.600 106.145 C 378.270 106.018,378.000 105.478,378.000 104.945 C 378.000 104.411,377.730 103.871,377.400 103.745 C 377.070 103.618,376.800 103.174,376.800 102.757 C 376.800 102.267,376.518 102.000,376.000 102.000 C 375.348 102.000,375.200 101.733,375.200 100.557 C 375.200 99.439,375.065 99.166,374.600 99.345 C 374.138 99.522,374.000 99.256,374.000 98.187 C 374.000 97.221,373.818 96.800,373.400 96.800 C 373.070 96.800,372.800 96.530,372.800 96.200 C 372.800 95.870,372.440 95.240,372.000 94.800 C 371.560 94.360,371.200 93.730,371.200 93.400 C 371.200 93.070,370.930 92.800,370.600 92.800 C 370.199 92.800,370.000 92.399,370.000 91.587 C 370.000 90.879,369.751 90.279,369.400 90.145 C 369.070 90.018,368.800 89.664,368.800 89.357 C 368.800 89.051,368.440 88.800,368.000 88.800 C 367.352 88.800,367.200 88.533,367.200 87.400 C 367.200 86.422,367.019 86.000,366.600 86.000 C 366.270 86.000,366.000 85.730,366.000 85.400 C 366.000 85.070,365.730 84.800,365.400 84.800 C 365.066 84.800,364.800 84.444,364.800 83.996 C 364.800 83.554,364.440 82.884,364.000 82.507 C 363.560 82.130,363.200 81.592,363.200 81.311 C 363.200 81.030,362.930 80.800,362.600 80.800 C 362.267 80.800,362.000 80.444,362.000 80.000 C 362.000 79.560,361.744 79.200,361.432 79.200 C 361.119 79.200,360.745 78.660,360.600 78.000 C 360.455 77.340,360.081 76.800,359.768 76.800 C 359.456 76.800,359.200 76.440,359.200 76.000 C 359.200 75.556,358.933 75.200,358.600 75.200 C 358.270 75.200,358.000 74.930,358.000 74.600 C 358.000 74.270,357.730 74.000,357.400 74.000 C 357.070 74.000,356.800 73.730,356.800 73.400 C 356.800 73.070,356.451 72.800,356.025 72.800 C 355.444 72.800,355.219 72.476,355.125 71.500 C 355.050 70.722,354.799 70.240,354.500 70.300 C 354.225 70.355,354.000 70.040,354.000 69.600 C 354.000 69.160,353.751 68.800,353.447 68.800 C 353.142 68.800,352.799 68.440,352.684 68.000 C 352.569 67.560,352.188 67.200,351.837 67.200 C 351.487 67.200,351.200 66.930,351.200 66.600 C 351.200 66.270,350.930 66.000,350.600 66.000 C 350.270 66.000,350.000 65.730,350.000 65.400 C 350.000 65.070,349.751 64.800,349.447 64.800 C 349.142 64.800,348.799 64.440,348.684 64.000 C 348.569 63.560,348.188 63.200,347.837 63.200 C 347.487 63.200,347.200 62.930,347.200 62.600 C 347.200 62.270,346.930 62.000,346.600 62.000 C 346.270 62.000,346.000 61.730,346.000 61.400 C 346.000 61.070,345.751 60.800,345.447 60.800 C 345.142 60.800,344.799 60.440,344.684 60.000 C 344.569 59.560,344.188 59.200,343.837 59.200 C 343.487 59.200,343.200 58.930,343.200 58.600 C 343.200 58.270,342.930 58.000,342.600 58.000 C 342.270 58.000,342.000 57.730,342.000 57.400 C 342.000 57.070,341.751 56.800,341.447 56.800 C 341.142 56.800,340.799 56.440,340.684 56.000 C 340.569 55.560,340.188 55.200,339.837 55.200 C 339.487 55.200,339.200 54.930,339.200 54.600 C 339.200 54.270,338.930 54.000,338.600 54.000 C 338.270 54.000,338.000 53.730,338.000 53.400 C 338.000 53.070,337.751 52.800,337.447 52.800 C 337.142 52.800,336.799 52.440,336.684 52.000 C 336.569 51.560,336.188 51.200,335.837 51.200 C 335.487 51.200,335.200 50.930,335.200 50.600 C 335.200 50.270,334.930 50.000,334.600 50.000 C 334.270 50.000,334.000 49.730,334.000 49.400 C 334.000 49.070,333.751 48.800,333.447 48.800 C 333.142 48.800,332.799 48.440,332.684 48.000 C 332.569 47.560,332.188 47.200,331.837 47.200 C 331.487 47.200,331.200 46.930,331.200 46.600 C 331.200 46.270,330.930 46.000,330.600 46.000 C 330.270 46.000,330.000 45.730,330.000 45.400 C 330.000 44.981,329.578 44.800,328.600 44.800 C 327.467 44.800,327.200 44.648,327.200 44.000 C 327.200 43.556,326.933 43.200,326.600 43.200 C 326.270 43.200,326.000 42.930,326.000 42.600 C 326.000 42.270,325.730 42.000,325.400 42.000 C 325.070 42.000,324.800 41.730,324.800 41.400 C 324.800 41.067,324.444 40.800,324.000 40.800 C 323.550 40.800,323.200 40.533,323.200 40.190 C 323.200 39.832,322.704 39.481,322.000 39.340 C 321.340 39.208,320.800 38.853,320.800 38.550 C 320.800 38.248,320.440 38.000,320.000 38.000 C 319.556 38.000,319.200 37.733,319.200 37.400 C 319.200 37.070,318.930 36.800,318.600 36.800 C 318.270 36.800,318.000 36.538,318.000 36.218 C 318.000 35.870,317.438 35.531,316.600 35.374 C 315.798 35.223,315.200 34.874,315.200 34.555 C 315.200 34.250,314.930 34.000,314.600 34.000 C 314.270 34.000,314.000 33.730,314.000 33.400 C 314.000 32.981,313.578 32.800,312.600 32.800 C 311.467 32.800,311.200 32.648,311.200 32.000 C 311.200 31.556,310.933 31.200,310.600 31.200 C 310.270 31.200,310.000 30.930,310.000 30.600 C 310.000 30.181,309.578 30.000,308.600 30.000 C 307.622 30.000,307.200 29.819,307.200 29.400 C 307.200 29.070,307.020 28.800,306.800 28.800 C 306.580 28.800,306.040 28.440,305.600 28.000 C 305.160 27.560,304.440 27.200,304.000 27.200 C 303.556 27.200,303.200 26.933,303.200 26.600 C 303.200 26.200,302.800 26.000,302.000 26.000 C 301.200 26.000,300.800 25.800,300.800 25.400 C 300.800 24.981,300.378 24.800,299.400 24.800 C 298.267 24.800,298.000 24.648,298.000 24.000 C 298.000 23.560,297.865 23.221,297.700 23.247 C 296.875 23.378,296.400 23.141,296.400 22.600 C 296.400 22.200,296.000 22.000,295.200 22.000 C 294.400 22.000,294.000 21.800,294.000 21.400 C 294.000 20.985,293.583 20.800,292.647 20.800 C 291.630 20.800,291.241 20.601,291.084 20.000 C 290.942 19.456,290.538 19.200,289.825 19.200 C 289.247 19.200,288.671 18.930,288.545 18.600 C 288.416 18.265,287.822 18.000,287.200 18.000 C 286.578 18.000,285.984 17.735,285.855 17.400 C 285.715 17.035,285.110 16.800,284.309 16.800 C 283.426 16.800,282.828 16.537,282.493 16.000 C 282.148 15.448,281.560 15.200,280.597 15.200 C 279.622 15.200,279.200 15.019,279.200 14.600 C 279.200 14.205,278.805 14.000,278.043 14.000 C 277.383 14.000,276.787 13.742,276.655 13.400 C 276.499 12.992,275.860 12.800,274.659 12.800 C 273.269 12.800,272.852 12.640,272.697 12.050 C 272.565 11.545,272.140 11.300,271.394 11.300 C 270.786 11.300,270.124 11.007,269.924 10.650 C 269.673 10.202,269.007 10.000,267.780 10.000 C 266.464 10.000,266.000 9.843,266.000 9.400 C 266.000 8.947,265.511 8.800,264.000 8.800 C 262.564 8.800,262.000 8.644,262.000 8.247 C 262.000 7.622,260.803 7.214,258.949 7.205 C 258.261 7.202,257.474 6.930,257.200 6.600 C 256.881 6.216,255.996 6.000,254.738 6.000 C 253.362 6.000,252.706 5.821,252.545 5.400 C 252.374 4.955,251.666 4.800,249.804 4.800 C 247.695 4.800,247.262 4.681,247.099 4.058 C 246.935 3.428,246.456 3.304,243.959 3.241 C 241.854 3.188,240.920 3.000,240.687 2.583 C 240.443 2.149,239.550 2.000,237.180 2.000 C 234.620 2.000,234.000 1.883,234.000 1.400 C 234.000 0.900,233.200 0.800,229.200 0.800 C 226.267 0.800,224.400 0.644,224.400 0.400 C 224.400 0.138,215.933 0.000,199.800 0.000 C 183.667 0.000,175.200 0.138,175.200 0.400 M297.361 75.028 C 298.000 75.342,298.775 75.600,299.083 75.600 C 299.562 75.600,300.893 76.118,303.600 77.357 C 305.695 78.316,308.000 80.150,307.999 80.858 C 307.999 81.156,306.559 82.830,304.799 84.577 C 303.040 86.324,301.600 87.899,301.600 88.077 C 301.600 88.255,301.330 88.400,301.000 88.400 C 300.670 88.400,300.400 88.559,300.400 88.753 C 300.400 89.213,297.213 92.400,296.753 92.400 C 296.559 92.400,296.400 92.554,296.400 92.741 C 296.400 92.929,293.070 96.415,289.000 100.488 C 282.970 106.522,281.600 108.098,281.600 108.999 C 281.600 109.911,283.348 111.847,291.600 120.071 C 302.776 131.210,302.912 131.421,299.398 132.202 C 298.739 132.348,297.521 132.723,296.692 133.034 C 294.543 133.840,284.892 133.816,282.938 133.000 C 282.149 132.670,281.226 132.400,280.888 132.400 C 277.201 132.400,266.865 124.158,264.262 119.142 C 263.650 117.964,262.999 116.730,262.816 116.400 C 256.867 105.717,260.879 88.680,271.206 80.768 C 271.901 80.235,272.707 79.578,272.998 79.308 C 273.957 78.416,279.723 75.600,280.590 75.600 C 281.058 75.600,281.650 75.390,281.907 75.133 C 283.078 73.962,295.033 73.881,297.361 75.028 M314.556 86.960 C 315.344 88.147,316.171 89.542,316.394 90.060 C 316.616 90.577,316.960 91.270,317.158 91.600 C 320.256 96.759,320.781 108.202,318.179 113.860 C 317.861 114.554,317.600 115.398,317.600 115.737 C 317.600 116.076,317.443 116.450,317.252 116.568 C 317.061 116.686,316.386 117.809,315.752 119.062 C 314.420 121.698,308.406 128.000,307.223 128.000 C 306.312 128.000,288.000 109.807,288.000 108.901 C 288.000 107.926,311.256 84.842,312.261 84.820 C 312.870 84.806,313.542 85.433,314.556 86.960 M310.600 99.912 C 309.417 100.179,309.280 100.639,309.700 102.927 C 310.170 105.492,309.816 108.852,309.013 109.440 C 308.423 109.871,308.211 110.708,308.337 112.100 C 308.417 112.990,309.557 112.986,310.626 112.091 C 314.074 109.205,314.052 99.135,310.600 99.912 M252.868 120.632 C 257.653 121.827,260.932 123.877,259.950 125.060 C 259.704 125.357,259.243 125.600,258.925 125.600 C 258.311 125.600,254.685 127.262,253.475 128.099 C 253.076 128.374,236.086 145.205,215.720 165.500 C 195.354 185.795,178.490 202.397,178.245 202.394 C 177.033 202.377,163.600 189.039,163.600 187.852 C 163.600 186.743,182.235 168.430,196.826 155.200 C 198.646 153.550,200.508 151.840,200.963 151.400 C 201.772 150.619,202.583 149.910,207.369 145.800 C 208.650 144.700,210.113 143.415,210.622 142.944 C 211.130 142.474,212.683 141.222,214.073 140.163 C 215.463 139.104,216.690 138.112,216.800 137.958 C 217.024 137.646,221.038 134.528,222.410 133.600 C 222.899 133.270,223.506 132.820,223.760 132.600 C 224.859 131.648,226.801 130.400,227.184 130.400 C 227.413 130.400,227.600 130.233,227.600 130.029 C 227.600 129.826,228.609 129.061,229.843 128.329 C 231.077 127.598,232.562 126.699,233.143 126.332 C 241.395 121.118,247.614 119.321,252.868 120.632 M265.038 130.228 C 266.227 130.574,267.200 131.024,267.200 131.228 C 267.200 131.433,267.458 131.600,267.773 131.600 C 268.088 131.600,268.958 132.365,269.705 133.300 C 272.594 136.915,273.088 139.765,271.440 143.326 C 270.243 145.912,269.879 146.295,263.665 151.501 C 262.199 152.729,260.716 154.019,260.368 154.367 C 260.021 154.715,258.691 155.900,257.413 157.000 C 256.135 158.100,254.888 159.180,254.641 159.400 C 254.394 159.620,252.934 160.879,251.396 162.198 C 249.858 163.517,248.420 164.790,248.200 165.026 C 247.879 165.370,244.204 168.536,241.729 170.600 C 240.835 171.345,237.083 174.596,236.420 175.200 C 236.058 175.530,234.510 176.876,232.981 178.192 C 229.648 181.059,228.118 182.395,227.245 183.200 C 226.888 183.530,225.336 184.883,223.797 186.206 C 221.385 188.282,219.730 189.724,217.837 191.400 C 215.220 193.717,213.382 195.320,211.413 197.000 C 210.125 198.100,208.855 199.213,208.591 199.473 C 208.328 199.733,207.232 200.701,206.156 201.624 C 205.080 202.547,203.231 204.134,202.047 205.151 C 200.862 206.168,199.284 207.585,198.539 208.300 C 197.795 209.015,197.097 209.600,196.988 209.600 C 196.880 209.600,195.668 210.681,194.295 212.002 C 190.619 215.541,190.614 215.541,186.242 211.350 C 184.205 209.398,182.417 207.530,182.269 207.200 C 182.121 206.870,181.906 206.408,181.791 206.173 C 181.593 205.768,192.113 195.155,218.200 169.446 C 224.580 163.158,235.657 152.206,242.816 145.107 C 256.994 131.046,257.439 130.658,260.034 130.079 C 262.521 129.525,262.630 129.528,265.038 130.228 M272.000 153.205 C 272.000 153.868,271.841 154.723,271.647 155.105 C 271.453 155.487,270.884 156.880,270.384 158.200 C 269.883 159.520,268.894 161.680,268.186 163.000 C 267.478 164.320,266.561 166.030,266.149 166.800 C 265.737 167.570,265.175 168.344,264.900 168.520 C 264.625 168.696,264.400 169.088,264.400 169.391 C 264.400 169.695,264.163 170.181,263.874 170.471 C 263.584 170.762,262.847 171.855,262.236 172.900 C 261.624 173.945,260.961 174.800,260.762 174.800 C 260.563 174.800,260.400 175.076,260.400 175.413 C 260.400 175.749,260.130 176.129,259.800 176.255 C 259.470 176.382,259.200 176.650,259.200 176.851 C 259.200 177.192,252.749 185.594,251.271 187.177 C 250.425 188.083,249.213 189.469,246.192 192.982 C 242.073 197.773,239.357 200.593,226.552 213.375 C 210.236 229.661,208.588 231.202,207.497 231.192 C 206.881 231.186,204.828 229.400,200.937 225.486 C 194.823 219.333,194.388 218.486,196.607 217.032 C 197.113 216.701,198.039 215.951,198.664 215.367 C 199.289 214.783,200.603 213.652,201.584 212.853 C 202.565 212.054,203.656 211.130,204.010 210.800 C 206.123 208.827,211.037 204.514,211.715 204.037 C 212.155 203.727,213.095 202.917,213.804 202.237 C 214.512 201.557,215.701 200.462,216.446 199.804 C 220.269 196.426,221.620 195.247,223.557 193.600 C 224.721 192.610,226.353 191.170,227.184 190.400 C 229.024 188.695,232.856 185.385,234.315 184.240 C 234.905 183.778,235.957 182.860,236.654 182.200 C 238.449 180.501,242.175 177.209,246.386 173.600 C 247.542 172.610,249.059 171.260,249.757 170.600 C 250.456 169.940,252.003 168.590,253.196 167.600 C 254.389 166.610,255.854 165.350,256.451 164.800 C 257.678 163.671,260.925 160.813,263.576 158.530 C 264.554 157.688,265.629 156.685,265.965 156.300 C 266.302 155.915,266.701 155.600,266.852 155.600 C 267.003 155.600,267.960 154.790,268.979 153.800 C 271.176 151.664,272.000 151.502,272.000 153.205 M164.272 196.077 C 166.292 198.125,168.767 200.573,169.772 201.518 C 172.736 204.303,172.279 205.092,167.200 205.950 C 165.770 206.192,163.250 206.673,161.600 207.019 C 159.950 207.365,157.284 207.904,155.675 208.216 C 154.066 208.529,152.592 208.881,152.400 209.000 C 152.208 209.119,150.644 209.487,148.925 209.817 C 147.206 210.148,144.935 210.585,143.879 210.789 C 139.155 211.698,139.429 211.246,149.987 200.719 C 157.749 192.979,159.285 191.620,159.887 191.956 C 160.279 192.175,162.253 194.029,164.272 196.077 M181.949 213.993 C 185.429 217.417,186.210 218.650,185.100 218.969 C 183.258 219.499,179.600 220.087,176.000 220.432 C 173.690 220.654,171.056 220.934,170.147 221.055 C 167.615 221.392,167.474 219.758,169.872 217.872 C 170.392 217.463,172.296 215.615,174.105 213.764 C 178.111 209.664,177.533 209.647,181.949 213.993 M196.699 229.330 C 203.248 235.879,203.127 235.444,199.257 238.494 C 197.796 239.646,196.420 240.781,196.200 241.015 C 195.321 241.951,192.041 244.400,191.666 244.400 C 191.446 244.400,191.207 244.560,191.133 244.756 C 190.938 245.280,186.894 248.400,186.412 248.400 C 186.185 248.400,186.000 248.558,186.000 248.752 C 186.000 248.946,184.785 249.944,183.300 250.970 C 181.815 251.996,179.340 253.737,177.800 254.838 C 172.857 258.372,164.038 264.400,163.810 264.400 C 163.612 264.400,159.502 267.074,158.911 267.587 C 158.641 267.821,157.966 268.185,157.411 268.396 C 156.855 268.607,156.400 268.965,156.400 269.190 C 156.400 269.416,156.171 269.600,155.891 269.600 C 155.611 269.600,154.473 270.198,153.363 270.930 C 152.253 271.661,151.087 272.383,150.772 272.534 C 150.457 272.685,149.660 273.164,149.000 273.598 C 148.340 274.033,147.354 274.582,146.808 274.819 C 146.263 275.056,145.723 275.377,145.608 275.533 C 145.494 275.689,144.950 276.040,144.400 276.313 C 143.850 276.586,142.680 277.227,141.800 277.738 C 138.340 279.743,135.649 281.221,132.200 283.008 C 130.220 284.034,127.610 285.394,126.400 286.030 C 125.190 286.666,123.975 287.190,123.700 287.193 C 123.425 287.197,123.200 287.377,123.200 287.592 C 123.200 287.808,122.705 288.102,122.100 288.246 C 121.495 288.390,120.730 288.732,120.400 289.006 C 120.070 289.281,119.427 289.619,118.971 289.757 C 117.354 290.248,116.330 292.829,116.954 294.845 C 117.252 295.810,117.715 297.680,117.982 299.000 C 118.776 302.925,119.514 306.096,120.039 307.839 C 120.641 309.836,120.331 310.800,119.089 310.800 C 117.996 310.800,98.684 291.736,98.479 290.455 C 98.392 289.916,102.214 285.807,111.679 276.261 C 119.005 268.871,127.678 260.074,130.950 256.712 C 159.577 227.306,159.239 227.600,164.432 227.600 C 165.269 227.600,166.055 227.434,166.181 227.231 C 166.306 227.029,167.622 226.755,169.104 226.622 C 170.587 226.490,172.790 226.183,174.000 225.940 C 175.210 225.696,178.000 225.235,180.200 224.915 C 182.400 224.595,185.010 224.192,186.000 224.020 C 190.766 223.191,190.359 222.989,196.699 229.330 M97.605 297.216 C 99.252 298.764,102.106 301.419,103.946 303.116 C 114.635 312.966,114.618 312.780,104.724 312.027 C 91.417 311.014,88.914 310.860,85.200 310.825 C 77.493 310.752,77.536 310.437,86.500 301.402 C 94.510 293.328,93.767 293.608,97.605 297.216 " stroke="none" fill="#fc6b34" fill-rule="evenodd"></path><path id="path1" d="M287.000 75.204 C 284.079 75.677,280.320 76.602,279.400 77.073 C 278.960 77.298,277.880 77.821,277.000 78.235 C 270.255 81.409,264.960 87.698,262.379 95.600 C 261.306 98.887,261.123 108.882,262.093 111.207 C 262.413 111.973,262.801 113.275,262.955 114.100 C 263.110 114.925,263.389 115.600,263.575 115.600 C 263.761 115.600,264.026 116.049,264.164 116.598 C 264.794 119.108,269.526 124.757,272.936 127.069 C 273.851 127.690,274.690 128.288,274.800 128.399 C 274.985 128.585,276.527 129.338,280.000 130.936 C 283.517 132.555,289.877 133.080,294.885 132.165 C 301.451 130.965,301.693 131.609,290.449 120.367 C 281.090 111.009,280.054 109.721,280.572 108.088 C 280.706 107.665,286.560 101.526,293.579 94.446 C 307.424 80.482,307.057 80.917,305.802 79.930 C 301.850 76.822,292.116 74.375,287.000 75.204 M300.300 97.370 C 294.195 103.555,289.200 108.771,289.200 108.962 C 289.200 109.463,306.612 126.800,307.115 126.800 C 307.931 126.800,310.699 124.274,312.800 121.612 C 314.351 119.648,314.958 118.688,315.591 117.200 C 315.825 116.650,316.188 115.840,316.397 115.400 C 319.326 109.234,319.338 96.369,316.417 92.600 C 316.247 92.380,315.948 91.750,315.754 91.200 C 315.133 89.445,312.622 86.012,312.000 86.069 C 311.670 86.100,306.405 91.185,300.300 97.370 M312.498 99.300 C 314.990 101.495,315.280 108.280,312.990 110.811 C 312.666 111.170,312.400 111.664,312.400 111.909 C 312.400 113.364,308.835 114.118,307.531 112.938 C 306.563 112.061,306.605 111.597,307.858 109.321 C 309.017 107.216,309.361 103.601,308.486 102.726 C 306.405 100.645,310.274 97.342,312.498 99.300 M242.600 122.523 C 241.500 123.004,240.362 123.624,240.071 123.899 C 239.781 124.175,239.232 124.400,238.851 124.400 C 238.471 124.400,237.989 124.571,237.780 124.779 C 237.571 124.988,236.535 125.618,235.478 126.179 C 231.709 128.182,224.798 132.914,219.402 137.185 C 217.863 138.403,216.371 139.580,216.088 139.800 C 215.804 140.020,215.276 140.470,214.915 140.800 C 214.553 141.130,213.615 141.910,212.829 142.532 C 210.982 143.996,208.050 146.434,207.213 147.200 C 206.371 147.972,199.546 154.074,198.937 154.600 C 198.229 155.211,190.511 162.390,188.616 164.200 C 187.694 165.080,183.869 168.733,180.116 172.318 C 176.362 175.903,171.275 180.835,168.810 183.278 L 164.330 187.721 171.060 194.461 C 174.762 198.167,177.921 201.200,178.079 201.200 C 178.412 201.200,186.974 192.746,225.281 154.590 C 251.997 127.979,254.388 125.775,257.328 125.049 C 258.874 124.667,258.524 123.983,256.180 122.805 C 253.313 121.364,245.611 121.204,242.600 122.523 M259.817 131.092 C 257.547 131.668,262.195 127.171,198.860 190.075 L 182.720 206.105 186.418 209.818 C 190.869 214.287,190.068 214.410,196.976 208.200 C 197.465 207.760,198.826 206.590,199.999 205.600 C 201.173 204.610,203.113 202.900,204.311 201.800 C 205.510 200.700,206.663 199.736,206.875 199.657 C 207.087 199.578,207.841 198.948,208.552 198.257 C 209.263 197.566,210.464 196.461,211.222 195.802 C 211.980 195.144,214.146 193.254,216.035 191.602 C 217.925 189.951,219.905 188.233,220.435 187.783 C 220.966 187.334,222.309 186.164,223.420 185.183 C 224.531 184.203,226.391 182.590,227.553 181.600 C 228.715 180.610,230.069 179.440,230.563 179.000 C 235.489 174.607,237.174 173.137,238.196 172.336 C 238.853 171.821,239.674 171.130,240.018 170.800 C 241.428 169.450,246.281 165.210,247.400 164.350 C 248.060 163.843,248.690 163.318,248.800 163.184 C 248.984 162.959,253.126 159.330,258.983 154.262 C 260.293 153.128,261.655 151.930,262.008 151.600 C 262.361 151.270,263.986 149.830,265.618 148.400 C 269.713 144.814,270.244 144.126,270.785 141.710 C 272.260 135.122,266.376 129.426,259.817 131.092 M269.200 154.910 C 268.650 155.420,266.490 157.331,264.400 159.155 C 262.310 160.980,259.537 163.402,258.238 164.537 C 256.938 165.671,255.587 166.870,255.235 167.200 C 254.612 167.784,250.177 171.624,247.831 173.610 C 247.189 174.155,246.374 174.870,246.022 175.200 C 245.326 175.851,240.198 180.363,235.794 184.200 C 234.279 185.520,232.751 186.870,232.400 187.200 C 232.049 187.530,230.510 188.876,228.981 190.192 C 224.816 193.775,224.386 194.153,222.000 196.326 C 220.790 197.428,219.157 198.841,218.371 199.465 C 217.585 200.089,216.666 200.870,216.329 201.200 C 215.991 201.530,214.486 202.880,212.984 204.200 C 211.482 205.520,209.791 207.026,209.227 207.547 C 208.662 208.068,207.399 209.148,206.419 209.947 C 205.439 210.746,204.062 211.940,203.357 212.600 C 202.652 213.260,201.038 214.700,199.770 215.800 C 195.557 219.453,195.278 218.291,201.973 224.973 L 207.546 230.535 210.473 227.719 C 212.083 226.171,214.634 223.755,216.142 222.352 C 220.290 218.493,235.346 203.368,239.200 199.190 C 243.935 194.056,243.943 194.047,246.400 191.218 C 247.610 189.825,248.960 188.275,249.400 187.774 C 250.408 186.627,251.010 185.894,252.988 183.400 C 253.860 182.300,254.850 181.100,255.187 180.734 C 255.524 180.368,256.506 179.063,257.370 177.834 C 258.233 176.605,259.088 175.600,259.270 175.600 C 259.451 175.600,259.600 175.426,259.600 175.213 C 259.600 174.808,262.632 170.189,263.500 169.271 C 263.775 168.981,264.000 168.501,264.000 168.205 C 264.000 167.909,264.135 167.607,264.300 167.533 C 264.742 167.337,267.305 162.484,269.591 157.513 C 270.797 154.890,270.605 153.607,269.200 154.910 M151.294 200.824 C 144.525 207.564,141.514 211.089,143.657 209.765 C 143.909 209.609,145.394 209.235,146.957 208.933 C 149.640 208.415,152.538 207.830,157.600 206.785 C 158.810 206.535,160.790 206.084,162.000 205.782 C 163.210 205.480,164.920 205.125,165.800 204.992 C 167.222 204.778,169.913 204.024,170.369 203.711 C 170.596 203.555,160.356 193.600,159.969 193.600 C 159.803 193.600,159.604 193.412,159.528 193.183 C 159.451 192.953,155.746 196.392,151.294 200.824 M173.418 215.772 C 171.310 217.846,169.755 219.649,169.963 219.777 C 170.353 220.018,175.060 219.501,178.600 218.828 C 179.700 218.619,181.384 218.437,182.343 218.424 C 183.762 218.404,184.041 218.283,183.843 217.767 C 183.709 217.419,183.600 216.969,183.600 216.767 C 183.600 216.565,183.448 216.400,183.262 216.400 C 183.075 216.400,181.917 215.410,180.688 214.200 C 177.810 211.367,177.919 211.344,173.418 215.772 M187.400 225.011 C 186.520 225.301,185.040 225.552,184.111 225.569 C 183.183 225.586,181.113 225.859,179.511 226.175 C 176.741 226.722,174.693 227.035,167.400 228.022 C 165.640 228.260,163.030 228.740,161.600 229.088 L 159.000 229.721 152.062 236.760 C 148.246 240.632,136.329 252.710,125.580 263.600 C 98.267 291.272,99.583 289.891,99.850 290.586 C 100.353 291.897,118.041 309.270,118.638 309.041 C 119.096 308.865,119.138 308.631,118.817 308.032 C 118.588 307.603,118.400 306.752,118.400 306.140 C 118.400 305.528,118.150 304.301,117.844 303.413 C 117.539 302.526,117.083 300.810,116.831 299.600 C 114.924 290.449,114.843 290.604,123.912 286.116 C 126.930 284.622,129.490 283.301,129.600 283.180 C 129.710 283.058,130.700 282.494,131.800 281.925 C 134.959 280.291,142.736 276.017,145.129 274.600 C 145.501 274.380,147.042 273.480,148.554 272.600 C 150.067 271.720,151.775 270.682,152.352 270.293 C 152.928 269.904,153.895 269.369,154.500 269.105 C 155.105 268.841,155.600 268.484,155.600 268.312 C 155.600 268.141,155.833 268.000,156.119 268.000 C 156.404 268.000,156.989 267.724,157.419 267.387 C 158.494 266.543,170.888 258.400,171.097 258.400 C 171.190 258.400,172.034 257.770,172.974 257.000 C 173.914 256.230,174.806 255.600,174.958 255.600 C 175.110 255.600,175.451 255.411,175.717 255.181 C 175.983 254.951,177.190 254.050,178.400 253.180 C 179.610 252.310,180.819 251.417,181.086 251.196 C 181.353 250.976,182.527 250.121,183.694 249.298 C 185.651 247.916,195.993 239.966,197.070 239.015 C 197.328 238.787,198.374 237.893,199.394 237.029 L 201.248 235.459 195.729 229.929 C 192.694 226.888,189.938 224.419,189.605 224.442 C 189.272 224.465,188.280 224.721,187.400 225.011 M93.482 296.146 C 91.997 297.084,80.507 308.865,80.944 309.001 C 82.009 309.333,95.513 310.378,101.507 310.592 C 105.086 310.720,108.461 310.995,109.007 311.203 C 110.904 311.924,110.104 310.299,107.298 307.733 C 105.814 306.375,103.319 304.035,101.753 302.533 C 94.813 295.873,94.409 295.561,93.482 296.146 " stroke="none" fill="#fcf8f7" fill-rule="evenodd"></path><path id="path2" d="M287.105 74.683 C 287.602 74.779,288.322 74.775,288.705 74.675 C 289.087 74.575,288.680 74.496,287.800 74.501 C 286.920 74.505,286.607 74.587,287.105 74.683 M291.300 74.676 C 291.685 74.776,292.315 74.776,292.700 74.676 C 293.085 74.575,292.770 74.493,292.000 74.493 C 291.230 74.493,290.915 74.575,291.300 74.676 M292.175 96.500 L 291.000 97.800 292.300 96.625 C 293.015 95.979,293.600 95.394,293.600 95.325 C 293.600 95.016,293.270 95.288,292.175 96.500 M288.175 100.500 L 287.000 101.800 288.300 100.625 C 289.015 99.979,289.600 99.394,289.600 99.325 C 289.600 99.016,289.270 99.288,288.175 100.500 M260.528 104.000 C 260.528 105.430,260.601 106.015,260.689 105.300 C 260.778 104.585,260.778 103.415,260.689 102.700 C 260.601 101.985,260.528 102.570,260.528 104.000 M319.324 103.800 C 319.326 105.120,319.401 105.612,319.490 104.893 C 319.579 104.174,319.577 103.094,319.486 102.493 C 319.395 101.892,319.322 102.480,319.324 103.800 M291.000 120.400 C 296.277 125.680,300.684 130.000,300.794 130.000 C 300.904 130.000,296.677 125.680,291.400 120.400 C 286.123 115.120,281.716 110.800,281.606 110.800 C 281.496 110.800,285.723 115.120,291.000 120.400 M289.100 133.482 C 289.595 133.578,290.405 133.578,290.900 133.482 C 291.395 133.387,290.990 133.309,290.000 133.309 C 289.010 133.309,288.605 133.387,289.100 133.482 M270.623 153.033 C 269.974 153.507,269.954 153.600,270.500 153.600 C 270.859 153.600,271.271 153.408,271.416 153.173 C 271.840 152.487,271.461 152.420,270.623 153.033 M228.000 160.200 C 227.028 161.190,226.323 162.000,226.433 162.000 C 226.543 162.000,227.428 161.190,228.400 160.200 C 229.372 159.210,230.077 158.400,229.967 158.400 C 229.857 158.400,228.972 159.210,228.000 160.200 M221.792 166.500 L 217.800 170.600 221.900 166.608 C 224.155 164.412,226.000 162.567,226.000 162.508 C 226.000 162.218,225.501 162.692,221.792 166.500 M186.581 165.300 L 185.000 167.000 186.700 165.419 C 188.281 163.948,188.584 163.600,188.281 163.600 C 188.216 163.600,187.451 164.365,186.581 165.300 M177.978 173.500 L 176.600 175.000 178.100 173.622 C 178.925 172.863,179.600 172.188,179.600 172.122 C 179.600 171.816,179.262 172.104,177.978 173.500 M237.775 173.300 L 236.600 174.600 237.900 173.425 C 238.615 172.779,239.200 172.194,239.200 172.125 C 239.200 171.816,238.870 172.088,237.775 173.300 M196.000 184.200 C 195.028 185.190,194.323 186.000,194.433 186.000 C 194.543 186.000,195.428 185.190,196.400 184.200 C 197.372 183.210,198.077 182.400,197.967 182.400 C 197.857 182.400,196.972 183.210,196.000 184.200 M192.000 188.200 C 191.028 189.190,190.323 190.000,190.433 190.000 C 190.543 190.000,191.428 189.190,192.400 188.200 C 193.372 187.210,194.077 186.400,193.967 186.400 C 193.857 186.400,192.972 187.210,192.000 188.200 M184.195 196.100 L 178.600 201.800 184.300 196.205 C 189.595 191.008,190.181 190.400,189.895 190.400 C 189.837 190.400,187.272 192.965,184.195 196.100 M186.793 201.100 L 182.600 205.400 186.900 201.207 C 190.894 197.313,191.382 196.800,191.093 196.800 C 191.034 196.800,189.099 198.735,186.793 201.100 M213.775 225.300 L 212.600 226.600 213.900 225.425 C 214.615 224.779,215.200 224.194,215.200 224.125 C 215.200 223.816,214.870 224.088,213.775 225.300 M152.592 235.300 L 148.600 239.400 152.700 235.408 C 154.955 233.212,156.800 231.367,156.800 231.308 C 156.800 231.018,156.301 231.492,152.592 235.300 M128.989 259.300 L 126.200 262.200 129.100 259.411 C 131.794 256.820,132.183 256.400,131.889 256.400 C 131.828 256.400,130.523 257.705,128.989 259.300 M99.978 288.700 L 98.600 290.200 100.100 288.822 C 101.496 287.538,101.784 287.200,101.478 287.200 C 101.412 287.200,100.737 287.875,99.978 288.700 M109.183 301.300 C 110.841 303.066,111.200 303.384,111.200 303.083 C 111.200 303.019,110.345 302.164,109.300 301.183 L 107.400 299.400 109.183 301.300 M102.200 302.400 C 103.059 303.280,103.852 304.000,103.962 304.000 C 104.072 304.000,103.459 303.280,102.600 302.400 C 101.741 301.520,100.948 300.800,100.838 300.800 C 100.728 300.800,101.341 301.520,102.200 302.400 M114.791 306.900 C 116.656 308.825,118.456 310.386,118.791 310.368 C 119.326 310.341,119.327 310.311,118.800 310.123 C 118.470 310.005,116.670 308.444,114.800 306.654 L 111.400 303.400 114.791 306.900 M90.300 310.682 C 90.795 310.778,91.605 310.778,92.100 310.682 C 92.595 310.587,92.190 310.509,91.200 310.509 C 90.210 310.509,89.805 310.587,90.300 310.682 M99.105 311.083 C 99.602 311.179,100.322 311.175,100.705 311.075 C 101.087 310.975,100.680 310.896,99.800 310.901 C 98.920 310.905,98.607 310.987,99.105 311.083 " stroke="none" fill="#fcac90" fill-rule="evenodd"></path><path id="path3" d="M288.700 74.289 C 289.415 74.378,290.585 74.378,291.300 74.289 C 292.015 74.201,291.430 74.128,290.000 74.128 C 288.570 74.128,287.985 74.201,288.700 74.289 M282.254 75.002 C 281.624 75.331,280.801 75.600,280.425 75.600 C 279.682 75.600,273.859 78.507,272.998 79.308 C 272.707 79.578,271.901 80.235,271.206 80.768 C 268.481 82.855,264.870 87.202,263.277 90.312 C 261.694 93.402,262.370 93.072,264.105 89.908 C 268.484 81.921,275.738 76.684,285.000 74.822 L 286.600 74.500 285.000 74.453 C 284.120 74.426,282.884 74.674,282.254 75.002 M294.600 74.781 C 295.480 74.969,296.650 75.254,297.200 75.416 C 298.001 75.650,298.105 75.607,297.724 75.198 C 297.461 74.917,296.291 74.631,295.124 74.563 C 293.089 74.445,293.067 74.454,294.600 74.781 M298.800 75.863 C 302.224 77.003,307.600 80.041,307.600 80.836 C 307.600 81.033,302.965 85.859,297.300 91.562 C 281.120 107.849,281.200 107.762,281.200 109.060 C 281.200 110.024,282.760 111.764,291.011 120.003 C 301.543 130.520,301.836 130.947,299.200 131.913 L 297.800 132.426 299.162 132.211 C 300.696 131.968,301.600 131.359,301.600 130.570 C 301.600 130.277,297.100 125.553,291.600 120.071 C 283.348 111.847,281.600 109.911,281.600 108.999 C 281.600 108.098,282.970 106.522,289.000 100.488 C 293.070 96.415,296.400 92.929,296.400 92.741 C 296.400 92.554,296.559 92.400,296.753 92.400 C 297.213 92.400,300.400 89.213,300.400 88.753 C 300.400 88.559,300.670 88.400,301.000 88.400 C 301.330 88.400,301.600 88.255,301.600 88.077 C 301.600 87.899,303.040 86.324,304.799 84.577 C 306.559 82.830,307.999 81.156,307.999 80.858 C 308.000 80.150,305.695 78.316,303.600 77.357 C 300.732 76.044,299.540 75.605,298.922 75.632 C 298.376 75.655,298.346 75.712,298.800 75.863 M299.700 96.569 C 293.265 103.021,288.000 108.571,288.000 108.901 C 288.000 109.807,306.312 128.000,307.223 128.000 C 308.406 128.000,314.420 121.698,315.752 119.062 C 316.386 117.809,317.061 116.686,317.252 116.568 C 317.443 116.450,317.600 116.076,317.600 115.737 C 317.600 115.398,317.861 114.554,318.179 113.860 C 319.753 110.438,320.428 102.424,319.448 98.800 C 318.725 96.128,318.637 97.059,319.258 100.817 C 319.997 105.293,318.764 112.400,316.480 116.827 C 313.500 122.601,308.186 128.170,306.526 127.257 C 305.463 126.672,288.400 109.432,288.400 108.943 C 288.400 108.337,311.133 85.675,312.025 85.392 C 312.802 85.145,314.688 87.628,316.565 91.370 C 316.999 92.234,317.427 92.719,317.518 92.447 C 317.608 92.176,317.421 91.649,317.102 91.277 C 316.783 90.905,316.404 90.271,316.261 89.868 C 315.574 87.938,313.089 84.801,312.261 84.820 C 311.678 84.833,307.617 88.632,299.700 96.569 M261.655 94.287 C 259.277 100.133,259.852 111.077,262.816 116.400 C 262.999 116.730,263.650 117.964,264.262 119.142 C 266.865 124.158,277.201 132.400,280.888 132.400 C 281.226 132.400,282.149 132.670,282.938 133.000 C 283.728 133.330,285.325 133.573,286.487 133.540 C 287.674 133.506,288.074 133.415,287.400 133.331 C 282.547 132.726,274.930 129.762,272.200 127.416 C 261.904 118.570,258.032 106.558,261.851 95.311 C 262.523 93.332,262.369 92.531,261.655 94.287 M317.614 93.454 C 317.606 93.704,317.863 94.514,318.184 95.254 C 318.588 96.183,318.769 96.352,318.770 95.800 C 318.772 94.963,317.639 92.664,317.614 93.454 M309.462 99.931 C 308.712 100.760,308.616 101.914,309.223 102.800 C 309.544 103.267,309.621 103.135,309.575 102.200 C 309.479 100.265,309.550 100.103,310.590 99.904 C 314.071 99.239,314.100 109.183,310.626 112.091 C 308.990 113.460,308.162 112.922,308.332 110.600 C 308.387 109.836,308.370 109.834,307.951 110.544 C 307.377 111.516,308.106 113.206,309.091 113.186 C 312.145 113.125,314.566 107.654,313.600 102.998 C 312.912 99.685,310.981 98.253,309.462 99.931 M309.667 105.400 C 309.628 106.500,309.330 107.909,309.005 108.531 C 308.606 109.297,308.568 109.611,308.889 109.504 C 309.560 109.280,310.069 107.021,309.891 105.062 C 309.743 103.434,309.738 103.441,309.667 105.400 M244.468 120.795 C 243.076 121.185,241.726 121.732,241.468 122.011 C 241.097 122.412,241.166 122.452,241.800 122.203 C 247.566 119.932,256.394 120.739,258.888 123.765 C 259.528 124.542,259.529 124.635,258.911 125.100 C 258.329 125.539,258.324 125.600,258.875 125.600 C 261.199 125.600,260.195 123.506,257.200 122.106 C 252.752 120.026,248.706 119.610,244.468 120.795 M237.000 124.204 C 235.240 125.168,233.409 126.191,232.932 126.478 C 232.455 126.765,231.060 127.598,229.832 128.329 C 228.604 129.061,227.600 129.814,227.600 130.003 C 227.600 130.193,229.278 129.293,231.330 128.003 C 233.381 126.714,236.126 125.109,237.430 124.436 C 240.211 123.000,241.154 122.405,240.600 122.432 C 240.380 122.443,238.760 123.241,237.000 124.204 M255.422 126.467 C 253.711 127.369,252.498 128.400,253.148 128.400 C 253.371 128.400,253.670 128.211,253.813 127.979 C 253.956 127.748,255.001 127.124,256.136 126.593 C 257.271 126.062,257.930 125.630,257.600 125.632 C 257.270 125.634,256.290 126.010,255.422 126.467 M248.074 132.778 C 242.475 138.508,242.434 138.742,247.982 133.313 C 250.501 130.847,252.481 128.768,252.382 128.693 C 252.282 128.617,250.343 130.456,248.074 132.778 M260.034 130.079 C 259.063 130.296,257.722 130.862,257.053 131.337 C 255.649 132.333,232.800 154.909,232.800 155.299 C 232.800 155.442,238.120 150.303,244.622 143.879 C 257.579 131.079,258.453 130.414,262.394 130.372 C 264.221 130.352,264.761 130.241,264.200 130.000 C 263.191 129.566,262.256 129.584,260.034 130.079 M225.600 131.219 C 224.405 132.166,223.560 132.793,222.391 133.600 C 220.922 134.615,217.012 137.663,216.800 137.958 C 216.690 138.112,215.463 139.104,214.073 140.163 C 212.683 141.222,211.130 142.474,210.622 142.944 C 210.113 143.415,208.650 144.700,207.369 145.800 C 202.583 149.910,201.772 150.619,200.963 151.400 C 200.508 151.840,198.646 153.550,196.826 155.200 C 192.109 159.477,191.263 160.264,184.842 166.346 C 176.177 174.554,164.800 185.823,164.800 186.198 C 164.800 186.381,167.995 183.361,171.900 179.489 C 179.389 172.062,180.503 170.989,188.629 163.374 C 191.431 160.748,193.921 158.411,194.162 158.179 C 194.403 157.948,196.670 155.896,199.200 153.620 C 207.986 145.714,208.425 145.330,212.004 142.405 C 213.212 141.419,214.290 140.514,214.400 140.396 C 214.691 140.083,219.324 136.482,222.800 133.866 C 227.257 130.513,227.395 130.399,226.981 130.413 C 226.772 130.421,226.150 130.783,225.600 131.219 M266.000 130.939 C 266.550 131.229,267.085 131.396,267.188 131.311 C 267.470 131.080,266.290 130.412,265.600 130.412 C 265.269 130.412,265.449 130.648,266.000 130.939 M269.059 133.300 C 273.635 138.086,272.657 143.683,266.373 148.668 C 265.009 149.751,260.172 153.941,258.833 155.200 C 258.482 155.530,256.846 156.959,255.197 158.375 C 253.549 159.791,252.002 161.141,251.759 161.375 C 251.517 161.609,250.365 162.610,249.200 163.600 C 248.035 164.590,246.881 165.580,246.637 165.800 C 246.392 166.020,244.934 167.268,243.396 168.572 C 241.858 169.877,240.420 171.143,240.200 171.384 C 239.855 171.764,237.748 173.595,233.039 177.610 C 232.401 178.155,231.478 178.960,230.988 179.400 C 230.498 179.840,229.050 181.100,227.769 182.200 C 222.502 186.724,220.864 188.156,217.581 191.112 C 216.535 192.054,215.063 193.314,214.311 193.912 C 213.558 194.511,212.668 195.270,212.332 195.600 C 211.996 195.930,210.672 197.100,209.391 198.200 C 208.109 199.300,206.866 200.381,206.630 200.602 C 206.393 200.823,204.940 202.083,203.400 203.402 C 201.860 204.721,200.420 205.997,200.200 206.237 C 199.163 207.371,190.760 214.400,190.442 214.400 C 189.760 214.400,182.400 206.818,182.393 206.109 C 182.390 205.706,186.577 201.290,192.093 195.879 C 206.817 181.438,231.490 156.800,231.228 156.800 C 230.989 156.800,215.829 171.704,194.091 193.312 C 187.211 200.150,181.676 205.938,181.791 206.173 C 181.906 206.408,182.121 206.870,182.269 207.200 C 182.417 207.530,184.205 209.398,186.242 211.350 C 190.614 215.541,190.619 215.541,194.295 212.002 C 195.668 210.681,196.880 209.600,196.988 209.600 C 197.097 209.600,197.795 209.015,198.539 208.300 C 199.284 207.585,200.862 206.168,202.047 205.151 C 203.231 204.134,205.080 202.547,206.156 201.624 C 207.232 200.701,208.328 199.733,208.591 199.473 C 208.855 199.213,210.125 198.100,211.413 197.000 C 212.702 195.900,214.486 194.355,215.378 193.567 C 216.270 192.779,217.610 191.609,218.356 190.967 C 219.101 190.325,219.911 189.609,220.156 189.375 C 220.400 189.141,221.949 187.791,223.597 186.375 C 225.246 184.959,226.888 183.530,227.245 183.200 C 228.118 182.395,229.648 181.059,232.981 178.192 C 234.510 176.876,236.058 175.530,236.420 175.200 C 237.083 174.596,240.835 171.345,241.729 170.600 C 244.204 168.536,247.879 165.370,248.200 165.026 C 248.420 164.790,249.858 163.517,251.396 162.198 C 252.934 160.879,254.394 159.620,254.641 159.400 C 254.888 159.180,256.135 158.100,257.413 157.000 C 258.691 155.900,260.021 154.715,260.368 154.367 C 260.716 154.019,262.199 152.729,263.665 151.501 C 269.879 146.295,270.243 145.912,271.440 143.326 C 272.564 140.896,272.666 138.503,271.732 136.460 C 270.896 134.633,268.499 131.600,267.890 131.600 C 267.639 131.600,268.165 132.365,269.059 133.300 M295.941 132.593 C 295.835 132.699,294.770 132.948,293.574 133.146 L 291.400 133.506 293.400 133.535 C 295.374 133.564,298.801 132.504,296.967 132.432 C 296.508 132.415,296.047 132.487,295.941 132.593 M242.202 138.398 C 241.803 138.839,241.662 139.200,241.889 139.200 C 242.392 139.200,243.390 138.057,243.121 137.788 C 243.015 137.682,242.602 137.956,242.202 138.398 M240.895 139.866 C 240.618 139.978,240.203 140.459,239.973 140.935 C 239.616 141.676,239.633 141.714,240.096 141.200 C 240.393 140.870,240.889 140.375,241.198 140.100 C 241.787 139.576,241.729 139.531,240.895 139.866 M238.202 142.398 C 237.803 142.839,237.662 143.200,237.889 143.200 C 238.392 143.200,239.390 142.057,239.121 141.788 C 239.015 141.682,238.602 141.956,238.202 142.398 M236.895 143.866 C 236.618 143.978,236.203 144.459,235.973 144.935 C 235.616 145.676,235.633 145.714,236.096 145.200 C 236.393 144.870,236.889 144.375,237.198 144.100 C 237.787 143.576,237.729 143.531,236.895 143.866 M234.202 146.398 C 233.803 146.839,233.662 147.200,233.889 147.200 C 234.392 147.200,235.390 146.057,235.121 145.788 C 235.015 145.682,234.602 145.956,234.202 146.398 M205.800 174.800 C 190.829 189.760,178.375 202.000,178.124 202.000 C 176.999 202.000,163.914 188.360,164.101 187.382 C 164.202 186.855,164.130 186.519,163.942 186.636 C 162.439 187.565,175.878 202.362,178.254 202.394 C 178.504 202.397,191.067 190.070,206.172 175.000 C 221.278 159.930,233.498 147.600,233.328 147.600 C 233.158 147.600,220.771 159.840,205.800 174.800 M268.979 153.800 C 267.960 154.790,267.003 155.600,266.852 155.600 C 266.701 155.600,266.302 155.915,265.965 156.300 C 265.629 156.685,264.554 157.688,263.576 158.530 C 260.925 160.813,257.678 163.671,256.451 164.800 C 255.854 165.350,254.389 166.610,253.196 167.600 C 252.003 168.590,250.456 169.940,249.757 170.600 C 249.059 171.260,247.542 172.610,246.386 173.600 C 242.175 177.209,238.449 180.501,236.654 182.200 C 235.957 182.860,234.905 183.778,234.315 184.240 C 232.856 185.385,229.024 188.695,227.184 190.400 C 226.353 191.170,224.721 192.610,223.557 193.600 C 221.464 195.380,219.061 197.480,216.461 199.804 C 215.725 200.462,214.600 201.466,213.961 202.036 C 213.322 202.605,212.800 203.203,212.800 203.364 C 212.800 203.525,213.092 203.365,213.449 203.008 C 213.806 202.651,215.914 200.794,218.134 198.880 C 220.354 196.966,222.455 195.130,222.804 194.800 C 223.577 194.069,227.367 190.754,232.200 186.582 C 234.180 184.873,235.890 183.363,236.000 183.228 C 236.110 183.093,238.180 181.276,240.600 179.191 C 243.020 177.106,245.090 175.304,245.200 175.188 C 245.310 175.071,248.280 172.474,251.800 169.417 C 255.320 166.361,258.380 163.665,258.600 163.428 C 258.950 163.051,262.074 160.329,265.749 157.200 C 266.395 156.650,267.481 155.692,268.162 155.071 C 270.661 152.794,271.601 152.246,271.594 153.073 C 271.581 154.749,268.380 162.084,265.621 166.764 C 264.975 167.861,264.661 168.669,264.923 168.560 C 265.185 168.452,265.681 167.787,266.025 167.082 C 266.369 166.377,267.286 164.630,268.062 163.200 C 268.839 161.770,269.883 159.520,270.384 158.200 C 270.884 156.880,271.453 155.487,271.647 155.105 C 273.171 152.106,271.542 151.309,268.979 153.800 M263.000 170.901 C 262.340 171.827,261.620 172.884,261.400 173.250 C 260.591 174.595,255.901 181.013,255.444 181.400 C 255.184 181.620,254.136 182.880,253.113 184.200 C 252.091 185.520,250.837 187.069,250.327 187.643 C 249.817 188.216,248.590 189.632,247.600 190.790 C 238.968 200.881,209.093 230.800,207.648 230.800 C 207.297 230.800,204.459 228.253,201.340 225.140 C 195.673 219.483,195.286 218.876,196.641 217.767 C 197.166 217.337,202.133 212.933,203.821 211.400 C 204.306 210.960,205.758 209.700,207.048 208.600 C 210.143 205.961,212.817 203.383,211.757 204.061 C 211.059 204.507,206.527 208.449,204.010 210.800 C 203.656 211.130,202.565 212.054,201.584 212.853 C 200.603 213.652,199.289 214.783,198.664 215.367 C 198.039 215.951,197.113 216.701,196.607 217.032 C 194.388 218.486,194.823 219.333,200.937 225.486 C 204.828 229.400,206.881 231.186,207.497 231.192 C 208.588 231.202,210.236 229.661,226.552 213.375 C 239.357 200.593,242.073 197.773,246.192 192.982 C 249.213 189.469,250.425 188.083,251.271 187.177 C 252.749 185.594,259.200 177.192,259.200 176.851 C 259.200 176.650,259.470 176.382,259.800 176.255 C 260.130 176.129,260.400 175.749,260.400 175.413 C 260.400 175.076,260.563 174.800,260.762 174.800 C 260.961 174.800,261.624 173.945,262.236 172.900 C 262.847 171.855,263.584 170.762,263.874 170.471 C 264.325 170.019,264.607 169.182,264.300 169.209 C 264.245 169.213,263.660 169.975,263.000 170.901 M149.987 200.719 C 139.425 211.251,139.167 211.676,143.879 210.802 C 146.926 210.238,148.742 209.688,147.720 209.641 C 147.235 209.618,145.817 209.866,144.568 210.192 C 142.376 210.762,141.600 210.719,141.600 210.024 C 141.600 209.752,152.067 199.131,157.887 193.497 L 159.439 191.995 165.316 197.725 C 171.717 203.966,171.867 204.286,168.800 205.139 L 167.400 205.528 168.726 205.564 C 172.006 205.653,172.430 204.015,169.772 201.518 C 168.767 200.573,166.292 198.125,164.272 196.077 C 162.253 194.029,160.279 192.175,159.887 191.956 C 159.285 191.620,157.749 192.979,149.987 200.719 M162.600 206.261 C 161.280 206.565,159.390 207.015,158.400 207.260 C 157.410 207.505,155.970 207.841,155.200 208.007 C 154.115 208.240,154.025 208.316,154.800 208.344 C 155.350 208.365,156.520 208.193,157.400 207.962 C 158.280 207.732,160.260 207.288,161.800 206.976 C 163.340 206.664,165.230 206.245,166.000 206.045 C 168.424 205.416,165.447 205.605,162.600 206.261 M150.200 209.011 C 148.692 209.508,148.669 209.539,149.800 209.539 C 150.460 209.539,151.630 209.297,152.400 209.000 C 154.337 208.254,152.468 208.264,150.200 209.011 M174.105 213.764 C 172.296 215.615,170.392 217.463,169.872 217.872 C 167.678 219.598,167.604 221.226,169.724 221.160 C 172.096 221.086,173.264 220.485,171.124 220.440 C 170.092 220.418,169.132 220.213,168.990 219.985 C 168.752 219.599,177.325 210.800,177.939 210.800 C 178.519 210.800,185.288 217.934,185.059 218.304 C 184.860 218.627,179.838 219.506,174.600 220.136 C 173.801 220.232,174.002 220.296,175.200 220.327 C 176.921 220.372,180.378 219.957,183.796 219.296 C 186.326 218.807,186.060 218.038,181.975 214.018 C 177.529 209.644,178.113 209.663,174.105 213.764 M186.000 224.020 C 185.010 224.192,182.220 224.620,179.800 224.970 C 174.966 225.671,171.502 226.539,174.800 226.224 C 175.790 226.129,178.850 225.677,181.600 225.219 C 184.350 224.760,187.500 224.284,188.600 224.161 L 190.600 223.936 196.197 229.570 C 202.766 236.183,202.759 235.123,196.262 240.365 C 193.696 242.436,191.677 244.211,191.776 244.310 C 191.943 244.476,195.292 241.982,196.200 241.015 C 196.420 240.781,197.796 239.646,199.257 238.494 C 203.127 235.444,203.248 235.879,196.699 229.330 C 190.359 222.989,190.766 223.191,186.000 224.020 M167.800 226.691 C 167.140 226.785,166.420 227.051,166.200 227.283 C 165.921 227.577,166.284 227.615,167.400 227.410 C 168.280 227.248,169.810 226.979,170.800 226.811 L 172.600 226.507 170.800 226.513 C 169.810 226.517,168.460 226.597,167.800 226.691 M160.533 227.887 C 159.490 228.018,157.300 230.029,148.085 239.323 C 132.289 255.254,124.800 262.942,124.800 263.226 C 124.800 263.502,138.133 250.114,150.598 237.322 C 159.544 228.140,159.106 228.445,164.200 227.858 C 164.860 227.782,164.590 227.722,163.600 227.724 C 162.610 227.726,161.230 227.800,160.533 227.887 M188.677 246.262 C 187.399 247.266,186.440 248.173,186.545 248.278 C 186.763 248.497,190.931 245.298,191.133 244.756 C 191.341 244.202,191.156 244.315,188.677 246.262 M183.295 250.319 C 178.539 253.890,173.448 257.521,171.400 258.800 C 170.872 259.130,169.345 260.165,168.007 261.100 C 166.669 262.035,165.502 262.800,165.412 262.800 C 165.267 262.800,157.641 267.881,157.233 268.249 C 157.142 268.332,157.264 268.400,157.505 268.400 C 157.746 268.400,158.181 268.163,158.471 267.874 C 158.762 267.584,159.810 266.857,160.800 266.257 C 164.933 263.752,171.540 259.314,177.800 254.838 C 179.340 253.737,181.815 251.996,183.300 250.970 C 184.785 249.944,186.000 248.946,186.000 248.752 C 186.000 248.270,186.100 248.212,183.295 250.319 M110.680 277.263 C 102.029 286.005,98.395 289.937,98.480 290.463 C 98.685 291.739,118.001 310.800,119.089 310.800 C 120.330 310.800,120.640 309.838,120.045 307.839 C 119.776 306.937,119.405 305.660,119.219 305.000 L 118.882 303.800 118.841 304.892 C 118.818 305.492,119.089 306.707,119.443 307.591 C 120.170 309.409,119.973 310.400,118.885 310.400 C 117.971 310.400,98.708 290.931,98.880 290.181 C 98.946 289.892,104.538 284.063,111.308 277.228 C 118.077 270.392,123.477 264.803,123.308 264.806 C 123.138 264.809,117.456 270.415,110.680 277.263 M149.000 273.012 C 144.820 275.506,140.680 277.929,139.800 278.396 C 138.920 278.863,137.390 279.698,136.400 280.252 C 135.410 280.806,131.630 282.794,128.000 284.671 C 120.776 288.404,120.783 288.400,121.705 288.400 C 122.056 288.400,122.589 288.154,122.890 287.853 C 123.191 287.552,123.820 287.184,124.289 287.035 C 124.757 286.887,125.919 286.335,126.870 285.810 C 127.822 285.285,130.220 284.018,132.200 282.995 C 135.848 281.110,137.240 280.348,141.200 278.069 C 142.410 277.372,143.850 276.580,144.400 276.309 C 144.950 276.038,145.494 275.689,145.608 275.533 C 145.723 275.377,146.263 275.056,146.808 274.819 C 147.354 274.582,148.340 274.033,149.000 273.598 C 149.660 273.164,150.457 272.685,150.772 272.534 C 151.087 272.383,152.253 271.661,153.363 270.930 C 154.473 270.198,155.592 269.600,155.848 269.600 C 156.105 269.600,156.418 269.330,156.545 269.000 C 156.671 268.670,156.736 268.417,156.687 268.438 C 156.639 268.459,153.180 270.517,149.000 273.012 M118.717 289.419 C 117.224 290.396,116.392 291.498,116.409 292.474 C 116.414 292.763,116.813 292.319,117.296 291.486 C 117.779 290.653,118.577 289.870,119.070 289.747 C 119.564 289.623,120.177 289.269,120.433 288.961 C 121.125 288.126,120.391 288.322,118.717 289.419 M116.437 294.200 C 116.423 294.640,116.667 295.810,116.979 296.800 C 117.474 298.371,117.546 298.448,117.543 297.400 C 117.539 296.007,116.475 292.931,116.437 294.200 M86.500 301.402 C 77.451 310.522,77.421 310.837,85.600 310.739 L 89.800 310.688 85.400 310.339 C 80.265 309.932,79.981 309.857,80.059 308.913 C 80.189 307.362,93.840 294.642,94.716 295.256 C 95.152 295.561,97.803 297.968,100.609 300.605 C 103.414 303.242,106.180 305.826,106.755 306.346 C 113.603 312.546,113.714 312.397,103.000 311.403 C 99.480 311.077,95.160 310.839,93.400 310.876 L 90.200 310.943 94.000 311.208 C 96.090 311.353,100.825 311.709,104.523 311.999 C 114.653 312.791,114.667 312.996,103.946 303.116 C 102.106 301.419,99.252 298.764,97.605 297.216 C 93.767 293.608,94.510 293.328,86.500 301.402 M117.633 299.400 C 117.621 299.840,117.867 301.010,118.179 302.000 C 118.491 302.990,118.756 303.440,118.767 303.000 C 118.779 302.560,118.533 301.390,118.221 300.400 C 117.909 299.410,117.644 298.960,117.633 299.400 " stroke="none" fill="#fc9a75" fill-rule="evenodd"></path><path id="path4" d="M282.800 75.450 C 270.431 79.484,263.056 87.550,261.163 99.115 C 257.800 119.653,276.312 137.095,296.455 132.366 C 301.973 131.070,302.202 131.591,291.349 120.772 C 281.649 111.103,280.563 109.788,281.033 108.280 C 281.184 107.796,286.994 101.680,293.944 94.689 C 300.894 87.698,306.746 81.682,306.949 81.319 C 307.964 79.506,299.044 75.346,293.400 75.001 C 292.080 74.920,291.450 74.933,292.000 75.030 C 299.431 76.340,307.028 79.515,306.503 81.090 C 306.415 81.356,300.590 87.375,293.559 94.467 C 286.528 101.558,280.674 107.761,280.551 108.251 C 280.137 109.904,280.818 110.738,290.473 120.391 C 301.690 131.605,301.450 130.965,294.885 132.165 C 289.877 133.080,283.517 132.555,280.000 130.936 C 276.527 129.338,274.985 128.585,274.800 128.399 C 274.690 128.288,273.851 127.690,272.936 127.069 C 269.526 124.757,264.794 119.108,264.164 116.598 C 264.026 116.049,263.761 115.600,263.575 115.600 C 263.389 115.600,263.110 114.925,262.955 114.100 C 262.801 113.275,262.413 111.973,262.093 111.207 C 261.123 108.882,261.306 98.887,262.379 95.600 C 264.960 87.698,270.255 81.409,277.000 78.235 C 277.880 77.821,278.960 77.298,279.400 77.073 C 280.345 76.589,284.178 75.655,287.000 75.220 L 289.000 74.913 286.800 74.888 C 285.590 74.874,283.790 75.127,282.800 75.450 M299.858 97.142 L 288.322 108.683 289.516 110.042 C 291.540 112.343,306.084 126.807,306.748 127.179 C 308.156 127.967,314.149 121.415,316.371 116.660 C 320.907 106.953,319.836 94.950,313.720 86.930 C 312.145 84.866,312.085 84.910,299.858 97.142 M314.000 88.107 C 314.770 89.258,315.559 90.650,315.754 91.200 C 315.948 91.750,316.247 92.380,316.417 92.600 C 319.338 96.369,319.326 109.234,316.397 115.400 C 316.188 115.840,315.825 116.650,315.591 117.200 C 314.958 118.688,314.351 119.648,312.800 121.612 C 310.699 124.274,307.931 126.800,307.115 126.800 C 306.612 126.800,289.200 109.463,289.200 108.962 C 289.200 108.378,311.360 86.128,312.000 86.069 C 312.330 86.039,313.230 86.956,314.000 88.107 M309.016 99.496 C 307.919 100.679,307.710 101.950,308.486 102.726 C 309.361 103.601,309.017 107.216,307.858 109.321 C 306.605 111.597,306.563 112.061,307.531 112.938 C 308.835 114.118,312.400 113.364,312.400 111.909 C 312.400 111.664,312.666 111.170,312.990 110.811 C 314.399 109.254,315.032 105.076,314.244 102.534 C 313.046 98.672,310.924 97.439,309.016 99.496 M312.535 99.996 C 315.659 103.708,313.297 113.200,309.249 113.200 C 307.544 113.200,307.101 111.654,308.228 109.638 C 309.577 107.225,309.854 104.982,309.042 103.039 C 308.185 100.989,308.599 99.788,310.400 99.094 C 311.392 98.712,311.490 98.754,312.535 99.996 M245.800 121.182 C 245.020 121.369,246.279 121.529,249.400 121.641 C 255.589 121.862,260.932 124.159,257.328 125.049 C 254.388 125.775,251.997 127.979,225.281 154.590 C 186.974 192.746,178.412 201.200,178.079 201.200 C 177.921 201.200,174.762 198.167,171.060 194.461 L 164.330 187.721 168.810 183.278 C 171.275 180.835,176.362 175.903,180.116 172.318 C 183.869 168.733,187.694 165.080,188.616 164.200 C 190.511 162.390,198.229 155.211,198.937 154.600 C 199.546 154.074,206.371 147.972,207.213 147.200 C 208.050 146.434,210.982 143.996,212.829 142.532 C 213.615 141.910,214.553 141.130,214.915 140.800 C 215.276 140.470,215.804 140.020,216.088 139.800 C 216.371 139.580,217.863 138.403,219.402 137.185 C 224.798 132.914,231.709 128.182,235.478 126.179 C 236.535 125.618,237.571 124.988,237.780 124.779 C 237.989 124.571,238.471 124.400,238.851 124.400 C 239.232 124.400,239.781 124.168,240.071 123.885 C 240.362 123.602,241.497 123.031,242.594 122.616 C 243.690 122.202,244.367 121.789,244.098 121.699 C 242.801 121.267,225.042 131.542,222.800 134.021 C 222.690 134.143,221.880 134.769,221.000 135.412 C 215.161 139.680,204.709 148.681,191.984 160.400 C 184.757 167.055,164.000 187.337,164.000 187.743 C 164.000 188.410,177.320 201.601,177.985 201.592 C 178.548 201.585,191.307 189.058,237.200 143.450 C 249.424 131.303,254.222 126.785,255.400 126.315 C 256.280 125.963,257.570 125.463,258.266 125.203 C 262.659 123.564,251.239 119.880,245.800 121.182 M259.565 130.758 C 257.444 131.450,255.782 132.984,237.400 151.211 C 227.060 161.464,210.455 177.927,200.500 187.796 C 190.545 197.666,182.400 205.913,182.400 206.124 C 182.400 206.821,189.733 214.000,190.445 214.000 C 190.829 214.000,191.381 213.764,191.671 213.475 C 191.962 213.186,193.550 211.803,195.200 210.402 C 196.850 209.002,198.491 207.573,198.846 207.228 C 199.977 206.129,204.893 201.842,206.370 200.667 C 207.153 200.043,207.885 199.409,207.997 199.258 C 208.167 199.026,213.852 194.065,218.148 190.400 C 218.792 189.850,219.608 189.122,219.960 188.781 C 220.312 188.441,221.858 187.091,223.396 185.781 C 224.934 184.472,226.441 183.166,226.745 182.880 C 227.049 182.594,229.121 180.794,231.349 178.880 C 233.577 176.966,236.120 174.745,237.000 173.944 C 237.880 173.143,239.230 171.976,240.000 171.351 C 240.770 170.725,241.490 170.108,241.600 169.979 C 241.710 169.851,245.400 166.629,249.800 162.819 C 271.972 143.622,271.580 144.036,271.667 139.735 C 271.720 137.081,268.986 132.000,267.505 132.000 C 267.262 132.000,266.743 131.710,266.351 131.355 C 265.531 130.614,261.182 130.231,259.565 130.758 M265.806 131.639 C 270.031 133.864,271.759 137.359,270.785 141.710 C 270.244 144.126,269.713 144.814,265.618 148.400 C 263.986 149.830,262.361 151.270,262.008 151.600 C 261.655 151.930,260.293 153.128,258.983 154.262 C 253.126 159.330,248.984 162.959,248.800 163.184 C 248.690 163.318,248.060 163.843,247.400 164.350 C 246.281 165.210,241.428 169.450,240.018 170.800 C 239.674 171.130,238.853 171.821,238.196 172.336 C 237.174 173.137,235.489 174.607,230.563 179.000 C 230.069 179.440,228.715 180.610,227.553 181.600 C 226.391 182.590,224.531 184.203,223.420 185.183 C 222.309 186.164,220.966 187.334,220.435 187.783 C 219.905 188.233,217.925 189.951,216.035 191.602 C 214.146 193.254,211.980 195.144,211.222 195.802 C 210.464 196.461,209.263 197.566,208.552 198.257 C 207.841 198.948,207.087 199.578,206.875 199.657 C 206.663 199.736,205.510 200.700,204.311 201.800 C 203.113 202.900,201.173 204.610,199.999 205.600 C 198.826 206.590,197.465 207.760,196.976 208.200 C 190.068 214.410,190.869 214.287,186.418 209.818 L 182.720 206.105 198.860 190.075 C 255.987 133.337,256.327 133.002,258.017 131.934 C 260.174 130.570,263.533 130.443,265.806 131.639 M270.545 153.565 C 269.883 153.747,263.833 158.795,260.647 161.825 C 260.401 162.059,255.160 166.637,249.000 172.000 C 242.840 177.362,237.710 181.857,237.600 181.988 C 237.490 182.120,234.430 184.825,230.800 188.000 C 227.170 191.175,224.110 193.869,224.000 193.986 C 223.890 194.104,222.540 195.277,221.000 196.593 C 219.460 197.909,217.660 199.474,217.000 200.072 C 216.340 200.670,215.427 201.483,214.972 201.880 C 201.394 213.696,196.000 218.584,196.000 219.075 C 196.000 220.218,207.076 230.893,207.967 230.610 C 209.966 229.976,243.386 195.817,250.600 187.035 C 251.480 185.963,252.753 184.437,253.429 183.643 C 259.672 176.310,266.467 165.803,269.365 159.000 C 270.208 157.020,271.086 154.995,271.316 154.501 C 271.817 153.424,271.676 153.254,270.545 153.565 M269.591 157.513 C 267.305 162.484,264.742 167.337,264.300 167.533 C 264.135 167.607,264.000 167.909,264.000 168.205 C 264.000 168.501,263.775 168.981,263.500 169.271 C 262.632 170.189,259.600 174.808,259.600 175.213 C 259.600 175.426,259.451 175.600,259.270 175.600 C 259.088 175.600,258.233 176.605,257.370 177.834 C 256.506 179.063,255.524 180.368,255.187 180.734 C 254.850 181.100,253.860 182.300,252.988 183.400 C 251.010 185.894,250.408 186.627,249.400 187.774 C 248.960 188.275,247.610 189.825,246.400 191.218 C 239.876 198.730,224.258 214.800,216.142 222.352 C 214.634 223.755,212.083 226.171,210.473 227.719 L 207.546 230.535 201.973 224.973 C 195.278 218.291,195.557 219.453,199.770 215.800 C 201.038 214.700,202.652 213.260,203.357 212.600 C 204.062 211.940,205.439 210.746,206.419 209.947 C 207.399 209.148,208.662 208.068,209.227 207.547 C 209.791 207.026,211.482 205.520,212.984 204.200 C 214.486 202.880,215.991 201.530,216.329 201.200 C 216.666 200.870,217.585 200.089,218.371 199.465 C 219.157 198.841,220.790 197.428,222.000 196.326 C 224.386 194.153,224.816 193.775,228.981 190.192 C 230.510 188.876,232.049 187.530,232.400 187.200 C 232.751 186.870,234.279 185.520,235.794 184.200 C 240.198 180.363,245.326 175.851,246.022 175.200 C 246.374 174.870,247.189 174.155,247.831 173.610 C 250.177 171.624,254.612 167.784,255.235 167.200 C 255.587 166.870,256.938 165.671,258.238 164.537 C 259.537 163.402,262.310 160.980,264.400 159.155 C 266.490 157.331,268.650 155.420,269.200 154.910 C 270.605 153.607,270.797 154.890,269.591 157.513 M150.289 201.120 C 140.273 211.172,140.252 211.206,144.754 210.018 C 145.549 209.809,148.000 209.266,150.200 208.812 C 152.400 208.358,155.010 207.790,156.000 207.549 C 156.990 207.308,159.060 206.868,160.600 206.570 C 169.276 204.895,172.101 203.937,170.779 203.119 C 170.673 203.054,168.145 200.615,165.160 197.700 C 162.176 194.785,159.563 192.400,159.355 192.400 C 159.147 192.400,155.067 196.324,150.289 201.120 M159.969 193.600 C 160.356 193.600,170.596 203.555,170.369 203.711 C 169.913 204.024,167.222 204.778,165.800 204.992 C 164.920 205.125,163.210 205.480,162.000 205.782 C 160.790 206.084,158.810 206.535,157.600 206.785 C 152.538 207.830,149.640 208.415,146.957 208.933 C 145.394 209.235,143.909 209.609,143.657 209.765 C 143.394 209.927,143.200 209.800,143.200 209.465 C 143.200 208.722,159.341 192.624,159.528 193.183 C 159.604 193.412,159.803 193.600,159.969 193.600 M173.279 215.344 C 167.602 220.953,167.670 220.998,179.400 219.337 C 186.060 218.394,185.901 218.756,181.557 214.430 C 177.578 210.467,178.295 210.388,173.279 215.344 M180.688 214.200 C 181.917 215.410,183.075 216.400,183.262 216.400 C 183.448 216.400,183.600 216.565,183.600 216.767 C 183.600 216.969,183.709 217.419,183.843 217.767 C 184.041 218.283,183.762 218.404,182.343 218.424 C 181.384 218.437,179.700 218.619,178.600 218.828 C 175.060 219.501,170.353 220.018,169.963 219.777 C 169.475 219.476,177.058 212.000,177.852 212.000 C 178.182 212.000,179.458 212.990,180.688 214.200 M187.200 224.454 C 185.194 224.862,179.524 225.740,173.273 226.611 C 171.004 226.927,169.001 227.276,168.823 227.386 C 168.646 227.495,166.747 227.781,164.605 228.020 C 162.463 228.259,160.325 228.609,159.855 228.799 C 158.768 229.238,160.358 227.662,134.400 254.026 C 122.190 266.426,109.860 278.940,107.000 281.834 C 104.140 284.727,101.092 287.835,100.227 288.740 L 98.653 290.384 108.375 300.158 C 119.591 311.435,120.452 311.997,119.227 307.246 C 119.022 306.451,118.584 304.630,118.254 303.200 C 117.924 301.770,117.269 299.016,116.799 297.080 C 115.339 291.060,115.446 290.924,126.030 285.487 C 130.523 283.178,135.010 280.821,136.000 280.249 C 136.990 279.678,138.070 279.089,138.400 278.940 C 140.201 278.130,155.604 268.965,160.200 265.970 C 161.520 265.109,162.864 264.280,163.186 264.127 C 163.766 263.851,165.030 263.005,171.600 258.497 C 184.282 249.796,201.600 236.488,201.600 235.446 C 201.600 234.634,190.514 223.995,189.718 224.044 C 189.323 224.068,188.190 224.252,187.200 224.454 M195.729 229.929 L 201.248 235.459 199.394 237.029 C 198.374 237.893,197.328 238.787,197.070 239.015 C 195.993 239.966,185.651 247.916,183.694 249.298 C 182.527 250.121,181.353 250.976,181.086 251.196 C 180.819 251.417,179.610 252.310,178.400 253.180 C 177.190 254.050,175.983 254.951,175.717 255.181 C 175.451 255.411,175.110 255.600,174.958 255.600 C 174.806 255.600,173.914 256.230,172.974 257.000 C 172.034 257.770,171.190 258.400,171.097 258.400 C 170.888 258.400,158.494 266.543,157.419 267.387 C 156.989 267.724,156.404 268.000,156.119 268.000 C 155.833 268.000,155.600 268.141,155.600 268.312 C 155.600 268.484,155.105 268.841,154.500 269.105 C 153.895 269.369,152.928 269.904,152.352 270.293 C 151.775 270.682,150.067 271.720,148.554 272.600 C 147.042 273.480,145.501 274.380,145.129 274.600 C 142.736 276.017,134.959 280.291,131.800 281.925 C 130.700 282.494,129.710 283.058,129.600 283.180 C 129.490 283.301,126.930 284.622,123.912 286.116 C 114.843 290.604,114.924 290.449,116.831 299.600 C 117.083 300.810,117.539 302.526,117.844 303.413 C 118.150 304.301,118.400 305.528,118.400 306.140 C 118.400 306.752,118.588 307.603,118.817 308.032 C 119.138 308.631,119.096 308.865,118.638 309.041 C 118.041 309.270,100.353 291.897,99.850 290.586 C 99.583 289.891,98.267 291.272,125.580 263.600 C 136.329 252.710,148.246 240.632,152.062 236.760 L 159.000 229.721 161.600 229.088 C 163.030 228.740,165.640 228.260,167.400 228.022 C 174.693 227.035,176.741 226.722,179.511 226.175 C 181.113 225.859,183.183 225.586,184.111 225.569 C 185.040 225.552,186.520 225.301,187.400 225.011 C 188.280 224.721,189.272 224.465,189.605 224.442 C 189.938 224.419,192.694 226.888,195.729 229.929 M86.792 302.031 C 82.425 306.362,80.042 309.002,80.284 309.244 C 80.798 309.758,87.409 310.470,90.285 310.320 C 92.065 310.228,91.259 310.074,86.800 309.655 C 83.610 309.355,80.892 309.046,80.760 308.968 C 80.478 308.802,92.393 296.826,93.543 296.120 C 94.394 295.598,95.394 296.377,101.770 302.533 C 103.326 304.035,105.814 306.375,107.298 307.733 C 110.149 310.340,110.906 311.925,108.945 311.179 C 108.365 310.959,104.450 310.706,100.245 310.618 C 93.022 310.467,92.887 310.477,97.800 310.803 C 100.660 310.993,104.620 311.311,106.600 311.511 C 112.951 312.151,112.962 312.182,104.038 303.948 C 101.089 301.227,97.760 298.145,96.642 297.100 C 93.960 294.595,94.626 294.262,86.792 302.031 " stroke="none" fill="#fcb49c" fill-rule="evenodd"></path></g></svg>