<svg xmlns="http://www.w3.org/2000/svg" viewBox="0 0 128 128">
    <path fill="#ff6c37" d="M113.117 26.066C92.168-1.062 53.191-6.07 26.062 14.883c-27.125 20.953-32.128 59.93-11.175 87.055 20.957 27.124 59.937 32.124 87.058 11.167 27.114-20.953 32.118-59.918 11.172-87.039Zm0 0"/>
    <path fill="#fff" d="M84.934 41.48 58.762 67.855l-7.395-7.601c25.758-25.758 28.344-23.43 33.567-18.774Zm0 0"/>
    <path fill="#ff6c37" d="M58.762 68.578a.937.937 0 0 1-.617-.258l-7.45-7.449a.932.932 0 0 1 0-1.293c25.395-25.39 28.86-24.203 34.856-18.773.207.164.32.414.312.672a.733.733 0 0 1-.258.675L59.437 68.32a.981.981 0 0 1-.675.258ZM52.66 60.25l6.102 6.105 24.824-24.824a5.584 5.584 0 0 0-7.344-1.242c-4.5 2.016-11.738 8.172-23.582 19.961Zm0 0"/>
    <path fill="#fff" d="m66.262 75.148-7.137-7.293 26.168-25.859c7.035 6.879-3.41 18.36-19.031 33.149Zm0 0"/>
    <path fill="#ff6c37" d="M66.262 76.078a1.091 1.091 0 0 1-.617-.258l-7.293-7.136a1.086 1.086 0 0 1 0-.829.992.992 0 0 1 0-.671L84.52 41.016a.98.98 0 0 1 1.343 0 8.03 8.03 0 0 1 2.586 6.152c0 6.98-7.965 15.773-21.515 28.602-.18.18-.418.289-.672.308Zm-5.793-8.223 5.843 5.84c10.344-9.773 20.223-19.86 20.274-26.683a5.89 5.89 0 0 0-1.344-3.98Zm0 0"/>
    <path fill="#fff" d="m51.574 60.41 5.172 5.172a.307.307 0 0 1 0 .465l-10.914 2.328a1.035 1.035 0 0 1-.93-1.762l6.364-6.308s.207 0 .308.105Zm0 0"/>
    <path fill="#ff6c37" d="M45.574 69.406a2.012 2.012 0 0 1-1.707-.984 1.97 1.97 0 0 1 .363-2.324l6.31-6.364a1.242 1.242 0 0 1 1.655 0l5.172 5.172c.305.293.426.735.309 1.14a1.199 1.199 0 0 1-.875.829l-10.914 2.328Zm5.793-7.86-5.844 5.845 9.672-2.07Zm.469-.464Zm0 0"/>
    <path fill="#fff" d="M98.844 26.945a10.038 10.038 0 0 0-13.547-.355c-3.926 3.41-4.598 9.258-1.54 13.465a10.028 10.028 0 0 0 13.278 2.715L90 35.738Zm0 0"/>
    <path fill="#ff6c37" d="M91.863 45.148a10.957 10.957 0 0 1-10-6.804 10.988 10.988 0 0 1 2.328-11.864c4.309-4.226 11.207-4.226 15.516 0a.888.888 0 0 1 0 1.348l-8.379 7.91 6.36 6.258c.21.203.308.492.257.777a.918.918 0 0 1-.41.672 11.219 11.219 0 0 1-5.687 1.707Zm0-20.066c-3.683.02-6.98 2.234-8.363 5.625-1.383 3.387-.633 7.29 1.953 9.89a9.044 9.044 0 0 0 10.031 1.915L89.38 36.41a.84.84 0 0 1-.309-.648.84.84 0 0 1 .309-.649l8.07-8.117a9.27 9.27 0 0 0-5.586-1.914Zm0 0"/>
    <path fill="#fff" d="m99 27.102-8.844 8.789 7.035 7.035a10.63 10.63 0 0 0 1.965-1.45A10.341 10.341 0 0 0 99 27.103Zm0 0"/>
    <path fill="#ff6c37" d="M97.035 43.703a.775.775 0 0 1-.62-.258l-7.036-7.035a.832.832 0 0 1-.313-.648.83.83 0 0 1 .313-.645l8.793-8.637a.93.93 0 0 1 1.55 0 10.873 10.873 0 0 1 3.258 7.758c0 2.918-1.175 5.715-3.257 7.758a9.398 9.398 0 0 1-2.07 1.652.835.835 0 0 1-.622.055Zm-5.691-7.965 5.844 5.844a9.989 9.989 0 0 0 1.14-.93 9.15 9.15 0 0 0 2.688-6.465 8.87 8.87 0 0 0-2.223-5.894Zm0 0"/>
    <path fill="#fff" d="M86.02 42.566a3.778 3.778 0 0 0-5.176 0L57.418 65.937l3.879 3.934L86.07 48.148a3.83 3.83 0 0 0 1.18-2.804 3.83 3.83 0 0 0-1.23-2.782Zm0 0"/>
    <path fill="#ff6c37" d="M61.09 70.805a.946.946 0 0 1-.621-.258l-3.93-3.934a.932.932 0 0 1 0-1.293l23.43-23.324a4.756 4.756 0 0 1 8.117 3.516 4.875 4.875 0 0 1-1.602 3.414L61.711 70.645a.88.88 0 0 1-.621.156Zm-2.738-4.868 2.586 2.641 24.304-21.152a2.869 2.869 0 0 0 .985-2.07 2.786 2.786 0 0 0-.88-2.122 2.895 2.895 0 0 0-4.085 0Zm0 0"/>
    <path fill="#fff" d="M39.266 92.574a.534.534 0 0 0 0 .621l1.035 4.5a1.327 1.327 0 0 1-.645 1.356 1.254 1.254 0 0 1-1.476-.149l-7.086-6.824L53.18 69.816h7.652l5.172 5.176a117.285 117.285 0 0 1-26.738 17.582Zm0 0"/>
    <path fill="#ff6c37" d="M38.8 100.176c-.585-.012-1.163-.25-1.55-.672l-6.773-6.774a.82.82 0 0 1-.313-.648c0-.25.113-.488.313-.644l22.234-22.29a.873.873 0 0 1 .469-.257h7.703a.894.894 0 0 1 .62 0l5.173 5.171a.825.825 0 0 1 .258.723.827.827 0 0 1-.309.672l-.414.363A126.725 126.725 0 0 1 39.68 92.836l.984 4.187a2.237 2.237 0 0 1-.406 1.875 2.243 2.243 0 0 1-1.715.868Zm-6.308-8.117 6.102 6.152a.31.31 0 0 0 .414 0 .31.31 0 0 0 0-.363l-1.035-4.5a1.44 1.44 0 0 1 .777-1.653A126.992 126.992 0 0 0 64.605 75.04l-4.238-4.238h-6.93Zm7.45.93Zm0 0"/>
    <path fill="#fff" d="m25.77 97.383 5.171-5.172 7.965 7.965-12.672-.875a1.035 1.035 0 0 1-.922-.79 1.03 1.03 0 0 1 .458-1.124Zm0 0"/>
    <path fill="#ff6c37" d="m39.059 100.953-12.618-.879a1.995 1.995 0 0 1-1.656-1.265 1.967 1.967 0 0 1 .414-2.043l5.172-5.176a.932.932 0 0 1 1.293 0l7.914 7.914a.886.886 0 0 1 0 1.035 1.01 1.01 0 0 1-.52.414ZM26.44 98.06l10.34.671-5.687-5.328Zm0 0"/>
    <path fill="#fff" d="m61.555 70.441-10.446 1.606 6.051-6Zm0 0"/>
    <path fill="#ff6c37" d="M51.11 73.027a.888.888 0 0 1-.829-.52.873.873 0 0 1 0-1.034l5.996-6.051a.993.993 0 0 1 1.348 0l4.398 4.394a.892.892 0 0 1 0 .934.91.91 0 0 1-.726.672l-10.34 1.605Zm6.05-5.64-3.363 3.363 5.793-.879Zm0 0"/>
    <path fill="#fff" d="m61.555 70.438-7.29.933a.932.932 0 0 1-.878-1.555l3.773-3.773Zm0 0"/>
    <path fill="#ff6c37" d="M54.059 72.355a1.918 1.918 0 0 1-1.657-.984 1.863 1.863 0 0 1 .309-2.223l3.777-3.777a.98.98 0 0 1 1.344 0l4.398 4.399c.266.25.36.636.235.984a.924.924 0 0 1-.805.617l-7.238.93Zm0-1.914 5.48-.671-2.43-2.434-3.101 3.105Zm44.992-37.39a.777.777 0 0 0-.985-.313.731.731 0 0 0-.359.426.73.73 0 0 0 .05.559 2.226 2.226 0 0 1-.257 2.328.64.64 0 0 0-.195.488c.004.184.07.36.195.492a.58.58 0 0 0 .414 0 .68.68 0 0 0 .672-.207 3.573 3.573 0 0 0 .465-3.777Zm0 0"/>
</svg>
