<svg xmlns="http://www.w3.org/2000/svg" viewBox="0 0 128 128">
    <path fill="#ff6c37" d="M34.582 53.867a16.584 16.584 0 0 0-17.465-5.87A16.577 16.577 0 0 0 5.02 61.89a16.579 16.579 0 0 0 8.199 16.496 16.58 16.58 0 0 0 18.379-1.27c7.254-5.597 8.566-16.004 2.984-23.25Zm0 0"/>
    <path fill="#fff" d="m27.055 57.984-6.992 7.047L18.085 63c6.883-6.883 7.57-6.258 8.98-5.016Zm0 0"/>
    <path fill="#ff6c37" d="M20.063 65.223a.234.234 0 0 1-.165-.07l-1.992-1.989c-.093-.105-.093-.246 0-.344 6.77-6.77 7.711-6.465 9.313-5.015.054.043.086.11.082.18a.192.192 0 0 1-.067.18l-6.992 6.987a.254.254 0 0 1-.18.07Zm-1.63-2.211 1.63 1.633 6.628-6.633a1.494 1.494 0 0 0-1.96-.332c-1.2.554-3.133 2.183-6.297 5.332Zm0 0"/>
    <path fill="#fff" d="m22.066 66.977-1.906-1.93 6.988-6.91c1.88 1.84-.91 4.906-5.082 8.843Zm0 0"/>
    <path fill="#ff6c37" d="M22.066 67.227a.27.27 0 0 1-.168-.07l-1.933-1.907a.302.302 0 0 1 0-.219.283.283 0 0 1 0-.18l6.992-6.988a.257.257 0 0 1 .36 0c.456.418.71 1.02.69 1.64 0 1.864-2.128 4.216-5.75 7.642a.296.296 0 0 1-.179.082Zm-1.546-2.211 1.558 1.562c2.774-2.625 5.387-5.305 5.418-7.129a1.567 1.567 0 0 0-.36-1.062Zm0 0"/>
    <path fill="#fff" d="m18.14 63.04 1.383 1.382c.02.016.028.039.028.062a.092.092 0 0 1-.028.063l-2.902.621a.273.273 0 0 1-.297-.145.268.268 0 0 1 .051-.324l1.7-1.687s.054 0 .081.027Zm0 0"/>
    <path fill="#ff6c37" d="M16.54 65.445a.535.535 0 0 1-.454-.261.52.52 0 0 1 .094-.621l1.687-1.7a.33.33 0 0 1 .442 0l1.382 1.38c.082.077.114.195.082.304a.329.329 0 0 1-.234.223l-2.902.62Zm1.546-2.101-1.563 1.562 2.586-.554Zm.14-.137Zm0 0"/>
    <path fill="#fff" d="M30.77 54.102c-1-.961-2.57-1-3.63-.09a2.669 2.669 0 0 0-.41 3.593 2.673 2.673 0 0 0 3.543.727l-1.875-1.879Zm0 0"/>
    <path fill="#ff6c37" d="M28.902 58.965a2.93 2.93 0 0 1-2.043-4.988 2.96 2.96 0 0 1 4.145 0 .236.236 0 0 1 .082.18c0 .07-.027.136-.082.179l-2.238 2.117 1.699 1.656a.25.25 0 0 1-.043.387 2.98 2.98 0 0 1-1.52.453Zm0-5.36a2.424 2.424 0 0 0-2.23 1.504 2.426 2.426 0 0 0 .52 2.641c.703.707 1.765.91 2.68.512l-1.63-1.63a.217.217 0 0 1-.082-.175c0-.066.027-.129.082-.172l2.153-2.168a2.48 2.48 0 0 0-1.493-.512Zm0 0"/>
    <path fill="#fff" d="m30.813 54.145-2.352 2.347 1.879 1.88a2.97 2.97 0 0 0 .523-.388 2.767 2.767 0 0 0-.039-3.843Zm0 0"/>
    <path fill="#ff6c37" d="M30.285 58.578a.197.197 0 0 1-.164-.066l-1.879-1.88a.227.227 0 0 1-.082-.171c0-.066.031-.133.082-.176l2.348-2.305a.246.246 0 0 1 .414 0 2.896 2.896 0 0 1 0 4.145 2.51 2.51 0 0 1-.55.441.227.227 0 0 1-.169.012Zm-1.52-2.125 1.563 1.559c.106-.075.207-.157.3-.246.462-.457.72-1.082.72-1.727 0-.582-.211-1.14-.594-1.574Zm0 0"/>
    <path fill="#fff" d="M27.344 58.273a1.013 1.013 0 0 0-1.383 0l-6.258 6.247 1.035 1.05 6.633-5.804a1.02 1.02 0 0 0 .313-.75c0-.282-.122-.551-.329-.743Zm0 0"/>
    <path fill="#ff6c37" d="M20.684 65.816a.246.246 0 0 1-.168-.066l-1.047-1.05a.25.25 0 0 1 0-.348l6.258-6.215a1.266 1.266 0 0 1 1.402-.27c.48.207.785.688.766 1.211a1.309 1.309 0 0 1-.426.91l-6.633 5.801a.224.224 0 0 1-.164.043Zm-.735-1.296.692.69 6.496-5.651a.77.77 0 0 0 .261-.555.733.733 0 0 0-.234-.563.769.769 0 0 0-1.094 0Zm0 0"/>
    <path fill="#fff" d="M14.855 71.633a.135.135 0 0 0 0 .168L15.133 73a.35.35 0 0 1-.172.36.349.349 0 0 1-.395-.04l-1.89-1.812 5.898-5.942h2.043L22 66.946a31.352 31.352 0 0 1-7.145 4.699Zm0 0"/>
    <path fill="#ff6c37" d="M14.73 73.664a.593.593 0 0 1-.414-.18l-1.796-1.796a.214.214 0 0 1-.082-.172c0-.067.027-.13.082-.172l5.94-5.942a.234.234 0 0 1 .126-.07h2.07a.248.248 0 0 1 .168 0l1.38 1.383a.22.22 0 0 1 .07.191c0 .07-.028.137-.083.18l-.113.094a33.835 33.835 0 0 1-7.086 4.547l.278 1.105a.597.597 0 0 1-.566.73Zm-1.683-2.168 1.629 1.656a.083.083 0 0 0 .11 0 .071.071 0 0 0 0-.093l-.278-1.204a.387.387 0 0 1 .207-.44 34.022 34.022 0 0 0 6.91-4.45l-1.145-1.133h-1.85Zm1.988.246Zm0 0"/>
    <path fill="#fff" d="m11.246 72.918 1.383-1.383 2.129 2.13-3.387-.235a.283.283 0 0 1-.246-.211.283.283 0 0 1 .121-.301Zm0 0"/>
    <path fill="#ff6c37" d="m14.8 73.871-3.37-.234a.518.518 0 0 1-.446-.336.514.514 0 0 1 .114-.547l1.379-1.383c.109-.094.25-.094.347 0l2.114 2.113a.24.24 0 0 1 0 .278.299.299 0 0 1-.137.113Zm-3.37-.773 2.773.18-1.523-1.423Zm0 0"/>
    <path fill="#fff" d="m20.809 65.723-2.79.414 1.614-1.602Zm0 0"/>
    <path fill="#ff6c37" d="M18.02 66.41a.232.232 0 0 1-.223-.137.24.24 0 0 1 0-.277l1.601-1.617a.265.265 0 0 1 .36 0l1.176 1.176a.233.233 0 0 1 0 .246.238.238 0 0 1-.196.18l-2.773.417Zm1.613-1.52-.899.9 1.547-.235Zm0 0"/>
    <path fill="#ff6c37" d="M18.805 66.234a.52.52 0 0 1-.442-.265.498.498 0 0 1 .082-.594l1.008-1.008a.265.265 0 0 1 .36 0l1.175 1.176c.07.066.106.168.063.262-.043.093-.106.156-.215.164l-1.934.25Zm0-.515 1.465-.176-.649-.652-.832.828Zm12.02-9.989a.207.207 0 0 0-.262-.082.247.247 0 0 0-.106.114c-.027.05-.012.105.012.152a.59.59 0 0 1-.07.621.184.184 0 0 0 0 .262.143.143 0 0 0 .113 0 .183.183 0 0 0 .18-.055.956.956 0 0 0 .124-1.008Zm66.44 5.723-1.632 3.512c-.149.297-.25.691-.531.691-.399 0-.446-.394-.598-.738l-1.332-2.922c-.102-.148-.102-.445-.297-.394-.25.046-.2.343-.2.53v5.99c0 .296 0 .593-.05.89-.05.297-.246.496-.531.496-.297-.051-.399-.25-.446-.496v-9.305c0-.395-.101-.937.344-1.086.496-.152.793.246.988.691l1.524 3.364c.148.297.195.828.594.89.445 0 .492-.593.644-.89l1.52-3.266c.195-.445.445-.89.988-.793.531.153.395.692.395 1.14v8.61c0 .445.152 1.14-.493 1.14-.691 0-.535-.69-.535-1.19v-5.692c-.05-.395.051-.79-.344-1.188Zm21.231.246c-.297.297-.2.692-.2 1.04v5.89c0 .344.102.89-.394.89-.535.047-.535-.496-.535-.89v-9.121c0-.344-.05-.79.348-.89.441-.15.687.198.89.593l2.422 5.398c.149.395.348.739.496 1.137.098.2.098.496.399.399.246-.102.195-.399.195-.598v-5.8c0-.25 0-.446.051-.692.05-.344.246-.496.531-.496.297.05.399.296.399.593v9.157c0 .398.148.937-.344 1.09-.535.195-.742-.348-.942-.794l-2.769-6.136c-.148-.297-.2-.645-.535-.79Zm-56.168 2.328c-.05 1.086.05 2.125-.101 3.215-.247 1.52-1.086 2.278-2.622 2.278-1.632 0-2.574-.692-2.773-2.23-.246-2.228-.297-4.5 0-6.72.2-1.437 1.188-2.129 2.672-2.129 1.484 0 2.426.743 2.672 2.13.25 1.187.101 2.324.152 3.464Zm-.988 0v-2.523c-.05-1.285-.742-2.031-1.88-1.98-1.085 0-1.73.69-1.796 1.98v5.113c.05 1.281.691 1.977 1.797 2.028 1.137 0 1.832-.688 1.879-2.028.05-.832 0-1.683 0-2.574Zm49.87 4.797c0 .348-.05.594-.347.645-.246.05-.441 0-.531-.297-.05-.195-.148-.442-.2-.645-.44-1.52-.44-1.52-1.792-1.52h-.438c-1.68 0-1.68 0-2.273 1.798-.102.347-.152.828-.645.691-.496-.195-.347-.691-.25-1.086l2.426-8.96c.149-.442.195-1.087.828-1.04.535.05.645.598.742 1.04l2.278 8.51c.097.298.148.595.195.892Zm-3.315-2.77h.496c1.086 0 1.136-.05.793-1.284l-.942-3.512c-.05-.25 0-.594-.297-.594s-.343.344-.394.645l-.793 2.968c-.496 1.797-.445 1.797 1.14 1.797ZM44.91 64.028v-4.586c0-.742.246-.988.828-.988h1.68c2.277.05 3.121 1.086 3.07 3.711-.05 1.797-.941 2.82-2.488 2.918-.445 0-.828.05-1.281 0-.692-.047-.942.297-.895 1.04.051.89 0 1.796 0 2.624 0 .348-.047.742-.492.742s-.445-.398-.445-.793v-4.652Zm2.324.149c1.438 0 1.98-.344 2.227-1.387.246-1.039.25-2.031-.496-2.82-.79-.793-1.828-.446-2.77-.395-.347 0-.347.442-.347.79v2.226c0 1.586 0 1.586 1.386 1.586Zm23.899 5.445c-1.04 0-1.875-.2-2.524-.988-.195-.25-.445-.594-.148-.942.25-.296.531-.097.742.153.594.644 1.238.828 2.031.789.739-.051 1.282-.395 1.582-1.238a2.125 2.125 0 0 0-.445-2.227c-.535-.594-1.238-.828-1.93-1.188-.988-.445-1.734-1.085-1.832-2.425-.148-1.793.645-2.77 2.38-3.117.738-.149 1.433.05 2.077.296.344.102.641.399.493.828-.149.497-.493.297-.79.153-.644-.348-1.335-.348-1.98-.25-.535.097-1.039.445-1.14 1.137-.098.695 0 1.285.496 1.734.644.531 1.386.742 2.078 1.086 1.09.535 1.683 1.484 1.683 2.871 0 1.285-.297 2.277-1.386 2.918-.497.348-1.04.297-1.387.398Zm10.84-5.2v-3.808c.05-.937-.297-1.238-1.04-1.136-.296.046-.644 0-.937 0-.293 0-.496-.153-.496-.536 0-.296.2-.496.445-.496h5.047c.25 0 .445.153.445.446 0 .347-.195.535-.496.535-.343 0-.738.05-1.086 0-.69-.051-.89.297-.89 1.039v8.117c0 .395-.05.828-.496.828-.496 0-.496-.445-.496-.828Zm0 0"/>
</svg>
