<?xml version="1.0" encoding="UTF-8" standalone="no"?>
<svg
   width="128"
   height="128"
   viewBox="0 0 128 128"
   version="1.1"
   id="svg24"
   sodipodi:docname="PlantUML.svg"
   inkscape:version="1.3.2 (091e20e, 2023-11-25, custom)"
   xmlns:inkscape="http://www.inkscape.org/namespaces/inkscape"
   xmlns:sodipodi="http://sodipodi.sourceforge.net/DTD/sodipodi-0.dtd"
   xmlns:xlink="http://www.w3.org/1999/xlink"
   xmlns="http://www.w3.org/2000/svg"
   xmlns:svg="http://www.w3.org/2000/svg"
   xmlns:rdf="http://www.w3.org/1999/02/22-rdf-syntax-ns#"
   xmlns:cc="http://creativecommons.org/ns#"
   xmlns:dc="http://purl.org/dc/elements/1.1/">
  <sodipodi:namedview
     id="namedview24"
     pagecolor="#ffffff"
     bordercolor="#111111"
     borderopacity="1"
     inkscape:showpageshadow="0"
     inkscape:pageopacity="0"
     inkscape:pagecheckerboard="1"
     inkscape:deskcolor="#d1d1d1"
     inkscape:zoom="4.2592135"
     inkscape:cx="73.370353"
     inkscape:cy="67.031155"
     inkscape:window-width="1920"
     inkscape:window-height="1009"
     inkscape:window-x="-8"
     inkscape:window-y="-8"
     inkscape:window-maximized="1"
     inkscape:current-layer="svg24" />
  <defs
     id="defs11">
    <linearGradient
       id="a"
       x1="-33.423"
       y1="-250.911"
       x2="-33.353001"
       y2="-250.858"
       gradientTransform="matrix(37.134,26.001,13.575,-19.387,4673.473,-3982.019)"
       gradientUnits="userSpaceOnUse">
      <stop
         offset="0"
         stop-color="#767676"
         id="stop1" />
      <stop
         offset="1"
         id="stop2" />
    </linearGradient>
    <linearGradient
       id="b"
       x1="-32.106998"
       y1="-242.563"
       x2="-32.028"
       y2="-242.586"
       gradientTransform="matrix(81.081,56.774,17.306,-24.715,6804.021,-4149.644)"
       gradientUnits="userSpaceOnUse">
      <stop
         offset="0"
         stop-color="#0079b9"
         id="stop3" />
      <stop
         offset="1"
         id="stop4" />
    </linearGradient>
    <linearGradient
       id="c"
       x1="-33.282001"
       y1="-243.423"
       x2="-33.223999"
       y2="-243.455"
       gradientTransform="matrix(60.003,42.015,34.184,-48.82,10343.005,-10469.084)"
       xlink:href="#b" />
    <linearGradient
       id="d"
       x1="12.356"
       y1="26.268"
       x2="14.011"
       y2="26.268"
       gradientUnits="userSpaceOnUse">
      <stop
         offset="0"
         stop-color="#595959"
         id="stop5" />
      <stop
         offset="0.087"
         stop-color="#6e6e6e"
         id="stop6" />
      <stop
         offset="0.242"
         stop-color="#8c8c8c"
         id="stop7" />
      <stop
         offset="0.405"
         stop-color="#a4a4a4"
         id="stop8" />
      <stop
         offset="0.577"
         stop-color="#b5b5b5"
         id="stop9" />
      <stop
         offset="0.765"
         stop-color="#bfbfbf"
         id="stop10" />
      <stop
         offset="1"
         stop-color="#c2c2c2"
         id="stop11" />
    </linearGradient>
    <linearGradient
       id="e"
       x1="18.291"
       y1="26.171"
       x2="19.945999"
       y2="26.171"
       xlink:href="#d"
       gradientTransform="matrix(4.5712022,0,0,4.5712022,-9.1424315,-9.1372738)" />
    <linearGradient
       id="f"
       x1="24.440001"
       y1="26.171"
       x2="26.096001"
       y2="26.171"
       xlink:href="#d"
       gradientTransform="matrix(4.5712022,0,0,4.5712022,-9.1424315,-9.1372738)" />
    <linearGradient
       inkscape:collect="always"
       xlink:href="#d"
       id="linearGradient24"
       gradientUnits="userSpaceOnUse"
       x1="12.356"
       y1="26.268"
       x2="14.011"
       y2="26.268"
       gradientTransform="matrix(4.5712022,0,0,4.5712022,-9.1424315,-9.1372738)" />
    <linearGradient
       inkscape:collect="always"
       xlink:href="#b"
       id="linearGradient25"
       gradientUnits="userSpaceOnUse"
       gradientTransform="matrix(81.081,56.774,17.306,-24.715,6804.021,-4149.644)"
       x1="-32.106998"
       y1="-242.563"
       x2="-32.028"
       y2="-242.586" />
  </defs>
  <title
     id="title11">file_type_plantuml</title>
  <polygon
     points="27.16,22.418 21.72,25.493 14.861,20.999 20.305,17.872 "
     style="fill:#1c0a42"
     id="polygon11"
     transform="matrix(4.5712022,0,0,4.5712022,-9.1424315,-9.1372738)" />
  <path
     d="M 90.125795,107.97235 89.874379,107.80779 57.853108,86.825974 83.694114,71.98328 115.94851,93.376506 Z M 59.727301,86.885399 90.162365,106.82498 114.07432,93.307938 83.652973,73.144365 Z"
     id="path11"
     style="stroke-width:4.5712" />
  <polygon
     points="29.418,13.592 27.07,15.088 24.213,13.247 26.401,11.909 "
     style="fill:url(#a)"
     id="polygon12"
     transform="matrix(4.5712022,0,0,4.5712022,-9.1424315,-9.1372738)" />
  <path
     d="m 114.59544,60.413567 -13.97874,-9.005268 10.91146,-6.673955 14.75584,8.228164 z m -12.13197,-8.986983 12.13654,7.821327 9.77323,-6.216835 -12.79937,-7.153932 z"
     id="path12"
     style="stroke-width:4.5712" />
  <polygon
     points="21.354,22.354 15.914,25.429 9.055,20.935 14.498,17.807 "
     style="fill:#ffbd3f"
     id="polygon13"
     transform="matrix(4.5712022,0,0,4.5712022,-9.1424315,-9.1372738)" />
  <path
     d="M 63.585395,107.67522 63.333979,107.51066 31.312708,86.533417 57.14,71.686152 89.394403,93.079378 Z M 33.186901,86.588271 63.621965,106.51414 87.533924,92.997096 57.117144,72.824381 Z"
     id="path13"
     style="stroke-width:4.5712" />
  <polygon
     points="14.954,22.366 9.577,25.504 2.218,20.849 7.99,17.966 "
     style="fill:#a11f40"
     id="polygon14"
     transform="matrix(4.5712022,0,0,4.5712022,-9.1424315,-9.1372738)" />
  <path
     d="M 34.62683,108.01806 -2.7055091e-5,86.117437 27.427186,72.403831 60.175279,93.097663 Z M 1.9930171,86.218004 34.649686,106.87069 58.273658,93.083949 27.354047,73.551202 Z"
     id="path14"
     style="stroke-width:4.5712" />
  <polygon
     points="9.443,25.515 9.443,29.063 2.111,24.332 2.111,21.021 "
     style="fill:url(#linearGradient25)"
     id="polygon15"
     transform="matrix(4.5712022,0,0,4.5712022,-9.1424315,-9.1372738)" />
  <path
     d="M 34.512549,124.6161 -2.7055091e-5,102.35891 V 86.076296 L 34.512549,107.22267 Z M 0.99649504,101.82408 33.534312,122.81504 V 107.77122 L 0.99649504,87.831638 Z"
     id="path15"
     style="stroke-width:4.5712" />
  <polygon
     points="27.009,15.222 27.009,22.131 24.071,20.247 24.071,13.343 "
     style="fill:url(#c)"
     id="polygon16"
     transform="matrix(4.5712022,0,0,4.5712022,-9.1424315,-9.1372738)" />
  <path
     d="M 114.56801,92.475979 100.6487,83.548422 V 51.408299 l 13.91931,8.900131 z m -13.43019,-9.197258 12.94107,8.296732 V 60.578131 l -12.94107,-8.273876 z"
     id="path16"
     style="stroke-width:4.5712" />
  <polygon
     points="15.796,25.601 21.472,22.526 21.891,25.601 21.945,25.601 27.149,22.526 27.149,15.194 29.514,13.775 29.514,29.149 28.331,29.149 9.646,29.149 9.646,25.601 15.086,22.526 15.785,25.601 "
     style="fill:#ffffff"
     id="polygon17"
     transform="matrix(4.5712022,0,0,4.5712022,-9.1424315,-9.1372738)" />
  <path
     d="M 126.26115,124.59781 H 34.462266 V 107.60208 L 60.152423,93.079378 63.352264,107.17239 89.408116,93.061093 91.337164,107.23182 114.47202,93.559354 V 60.038729 l 11.7937,-7.076221 z M 35.440504,123.615 H 125.28291 V 54.694993 l -9.83266,5.896851 v 33.516055 l -0.24227,0.141707 -23.902815,14.125014 H 90.509776 L 88.631012,94.597017 63.196843,108.37462 h -0.5714 L 59.489598,94.578732 35.445075,108.16891 Z"
     id="path17"
     style="stroke-width:4.5712" />
  <rect
     x="47.339344"
     y="107.15411"
     width="7.569911"
     height="7.569911"
     rx="0.98280847"
     ry="0.98280847"
     style="fill:url(#linearGradient24);stroke-width:4.5712"
     id="rect17" />
  <path
     d="M 53.940159,115.19942 H 48.31758 a 1.4719271,1.4719271 0 0 1 -1.471927,-1.47193 v -5.59058 a 1.4719271,1.4719271 0 0 1 1.471927,-1.47192 h 5.622579 a 1.4719271,1.4719271 0 0 1 1.471927,1.47192 v 5.6043 a 1.4719271,1.4719271 0 0 1 -1.471927,1.45821 z m -5.622579,-7.5562 a 0.49368984,0.49368984 0 0 0 -0.489119,0.48912 v 5.6043 a 0.49368984,0.49368984 0 0 0 0.489119,0.48912 h 5.622579 a 0.49368984,0.49368984 0 0 0 0.489118,-0.48912 v -5.59973 a 0.49368984,0.49368984 0 0 0 -0.489118,-0.48911 z"
     id="path18"
     style="stroke-width:4.5712" />
  <rect
     x="74.469429"
     y="106.7107"
     width="7.569911"
     height="7.569911"
     rx="0.98280847"
     ry="0.98280847"
     style="fill:url(#e);stroke-width:4.5712"
     id="rect18" />
  <path
     d="m 81.05653,114.76973 h -5.608865 a 1.4719271,1.4719271 0 0 1 -1.471927,-1.47193 v -5.60429 a 1.4719271,1.4719271 0 0 1 1.471927,-1.47193 h 5.604294 a 1.4719271,1.4719271 0 0 1 1.471927,1.47193 v 5.60429 a 1.4719271,1.4719271 0 0 1 -1.467356,1.47193 z m -5.604294,-7.56991 a 0.49368984,0.49368984 0 0 0 -0.489118,0.48912 v 5.60429 a 0.49368984,0.49368984 0 0 0 0.489118,0.48912 h 5.604294 a 0.49368984,0.49368984 0 0 0 0.489119,-0.48912 v -5.59972 a 0.49368984,0.49368984 0 0 0 -0.489119,-0.48912 z"
     id="path19"
     style="stroke-width:4.5712" />
  <rect
     x="102.57775"
     y="106.7107"
     width="7.569911"
     height="7.569911"
     rx="0.98280847"
     ry="0.98280847"
     style="fill:url(#f);stroke-width:4.5712"
     id="rect19" />
  <path
     d="m 109.16485,114.76973 h -5.60429 a 1.4719271,1.4719271 0 0 1 -1.47193,-1.47193 v -5.60429 a 1.4719271,1.4719271 0 0 1 1.47193,-1.47193 h 5.60429 a 1.4719271,1.4719271 0 0 1 1.47193,1.47193 v 5.60429 a 1.4719271,1.4719271 0 0 1 -1.47193,1.47193 z m -5.60429,-7.56991 a 0.49368984,0.49368984 0 0 0 -0.48912,0.48912 v 5.60429 a 0.49368984,0.49368984 0 0 0 0.48912,0.48912 h 5.60429 a 0.49368984,0.49368984 0 0 0 0.48912,-0.48912 v -5.59972 a 0.49368984,0.49368984 0 0 0 -0.48912,-0.48912 z"
     id="path20"
     style="stroke-width:4.5712" />
  <path
     d="m 115.26283,42.197327 c -0.2377,0.315413 -1.90619,-1.197655 -2.98499,-2.404453 a 20.149859,20.149859 0 0 1 -2.35874,-3.336977 11.885126,11.885126 0 0 1 -1.58164,-3.538111 10.778895,10.778895 0 0 1 -0.2377,-3.11756 13.526187,13.526187 0 0 1 0.58968,-3.42383 14.362717,14.362717 0 0 1 3.59754,-5.517441 70.999912,70.999912 0 0 0 5.86485,-6.399683 13.997021,13.997021 0 0 0 2.18961,-4.237505 18.188813,18.188813 0 0 0 0.69025,-3.9083774 c 0.0868,-1.6639176 -0.11428,-2.7107229 0.10514,-2.802147 0.21942,-0.091424 0.98281,1.2525094 1.31193,2.5781581 a 14.476997,14.476997 0 0 1 -2.09361,9.5995243 31.541295,31.541295 0 0 1 -5.00089,6.619101 12.799366,12.799366 0 0 0 -3.88095,5.640863 11.272585,11.272585 0 0 0 -0.39313,3.140416 15.839216,15.839216 0 0 0 2.1759,7.048794 c 1.3165,2.614728 2.19417,3.807811 2.00675,4.059228 z"
     style="fill:#ea2d2e;stroke-width:4.5712"
     id="path21" />
  <path
     d="m 115.16227,42.36189 c -0.56683,0 -2.24903,-1.668489 -2.97586,-2.486734 a 20.469843,20.469843 0 0 1 -2.37702,-3.355263 12.013119,12.013119 0 0 1 -1.58164,-3.570108 10.856605,10.856605 0 0 1 -0.24227,-3.15413 13.61304,13.61304 0 0 1 0.59426,-3.455829 14.664417,14.664417 0 0 1 3.62496,-5.558582 c 1.34393,-1.513068 2.2856,-2.413594 3.01242,-3.135844 a 20.081291,20.081291 0 0 0 2.84329,-3.250125 13.951309,13.951309 0 0 0 2.17589,-4.200935 18.06082,18.06082 0 0 0 0.68568,-3.8809504 c 0.0366,-0.7268212 0,-1.3439335 0,-1.7964825 0,-0.7268211 -0.0274,-1.0285205 0.17371,-1.1108021 a 0.22856011,0.22856011 0 0 1 0.19656,0 5.6042939,5.6042939 0 0 1 1.27994,2.646726 14.476997,14.476997 0 0 1 -2.10276,9.69552 31.669289,31.669289 0 0 1 -5.02832,6.641957 c -0.25142,0.274272 -0.49826,0.530259 -0.74053,0.781675 a 10.513765,10.513765 0 0 0 -3.11299,4.808905 11.290869,11.290869 0 0 0 -0.37484,3.076419 15.807217,15.807217 0 0 0 2.16218,6.993939 c 0.52111,1.055948 0.9828,1.897049 1.32107,2.50959 0.58969,1.074233 0.81368,1.476499 0.64911,1.686774 v 0 a 0.23313131,0.23313131 0 0 1 -0.18284,0.09142 z m 6.02941,-38.6997977 a 3.9449475,3.9449475 0 0 0 0,0.8685284 c 0,0.4571202 0.032,1.0788037 0,1.8284809 a 18.380804,18.380804 0 0 1 -0.69482,3.9358054 14.198154,14.198154 0 0 1 -2.20789,4.269502 20.282424,20.282424 0 0 1 -2.87529,3.286695 c -0.74053,0.72225 -1.66391,1.618205 -3.00328,3.122131 a 14.481569,14.481569 0 0 0 -3.57468,5.485442 13.407336,13.407336 0 0 0 -0.58511,3.396404 10.628045,10.628045 0 0 0 0.2377,3.085561 11.839414,11.839414 0 0 0 1.55878,3.506112 20.213856,20.213856 0 0 0 2.34503,3.314122 9.3023964,9.3023964 0 0 0 2.793,2.404452 5.4077322,5.4077322 0 0 0 -0.67196,-1.417072 c -0.33827,-0.612542 -0.79996,-1.453643 -1.32565,-2.518733 a 15.999208,15.999208 0 0 1 -2.20789,-7.140218 11.565142,11.565142 0 0 1 0.38398,-3.144987 10.856605,10.856605 0 0 1 3.17241,-4.914042 c 0.2377,-0.251416 0.48455,-0.507404 0.73597,-0.781676 a 31.4453,31.4453 0 0 0 4.98261,-6.591673 14.25758,14.25758 0 0 0 2.08446,-9.5218143 5.85571,5.85571 0 0 0 -1.14737,-2.4730204 z"
     id="path22"
     style="stroke-width:4.5712" />
  <path
     d="m 127.86564,18.687634 c -0.0869,-0.402266 -1.97476,-0.182848 -3.50154,0.333698 a 11.885126,11.885126 0 0 0 -4.84091,3.300408 12.799366,12.799366 0 0 0 -4.18722,8.47958 13.585613,13.585613 0 0 0 1.17937,4.845474 c 1.01024,2.614728 2.0799,3.533539 2.02962,5.599723 -0.032,1.37136 -0.52112,2.212461 -0.21942,2.50959 0.3017,0.297128 1.43536,-0.457121 2.11189,-1.430787 a 8.2281639,8.2281639 0 0 0 1.18395,-4.671768 c -0.21028,-3.72553 -2.74273,-4.639771 -2.7793,-8.228164 a 8.4932937,8.4932937 0 0 1 0.58969,-3.090133 c 2.02504,-5.718574 8.59843,-6.893373 8.43387,-7.647621 z"
     style="fill:#ea2d2e;stroke-width:4.5712"
     id="path23" />
  <path
     d="m 118.54953,43.966382 a 0.42969301,0.42969301 0 0 1 -0.31542,-0.118851 c -0.21027,-0.210276 -0.13713,-0.557687 -0.0228,-1.083375 a 7.8533253,7.8533253 0 0 0 0.2057,-1.513068 6.2808318,6.2808318 0 0 0 -0.97823,-3.291266 22.856011,22.856011 0 0 1 -1.04224,-2.262745 13.622183,13.622183 0 0 1 -1.18394,-4.891186 12.845078,12.845078 0 0 1 4.21922,-8.566433 12.067974,12.067974 0 0 1 4.89119,-3.332407 6.7745216,6.7745216 0 0 1 3.50154,-0.45712 0.29712814,0.29712814 0 0 1 0.16913,0.210276 v 0 c 0.0686,0.319984 -0.42055,0.553115 -1.39879,1.023949 a 12.479382,12.479382 0 0 0 -7.04879,6.687669 8.3515864,8.3515864 0 0 0 -0.58054,3.048992 7.5196276,7.5196276 0 0 0 1.33022,4.045513 8.6350009,8.6350009 0 0 1 1.44907,4.178079 8.2921608,8.2921608 0 0 1 -1.2068,4.749479 3.6981026,3.6981026 0 0 1 -1.92448,1.563351 z m 8.635,-25.365601 a 9.677235,9.677235 0 0 0 -2.77929,0.534831 11.830271,11.830271 0 0 0 -4.79062,3.268409 12.634803,12.634803 0 0 0 -4.15523,8.397299 13.416478,13.416478 0 0 0 1.17023,4.799762 22.650307,22.650307 0 0 0 1.02852,2.239889 6.5505327,6.5505327 0 0 1 1.00567,3.405546 8.0681719,8.0681719 0 0 1 -0.21485,1.558779 c -0.0868,0.41598 -0.15999,0.745106 -0.0411,0.859387 a 0.2102753,0.2102753 0 0 0 0.17371,0.04571 3.5152545,3.5152545 0 0 0 1.7462,-1.462785 8.1961655,8.1961655 0 0 0 1.16108,-4.594058 8.4292968,8.4292968 0 0 0 -1.41707,-4.06837 7.8213269,7.8213269 0 0 1 -1.37136,-4.164365 8.5801465,8.5801465 0 0 1 0.59425,-3.135845 12.689657,12.689657 0 0 1 7.1905,-6.820234 c 0.57598,-0.278843 1.29365,-0.621683 1.26623,-0.749677 l -0.0366,-0.032 a 1.2067974,1.2067974 0 0 0 -0.53026,-0.08228 z"
     id="path24"
     style="stroke-width:4.5712" />
  <metadata
     id="metadata24">
    <rdf:RDF>
      <cc:Work
         rdf:about="">
        <dc:title>file_type_plantuml</dc:title>
      </cc:Work>
    </rdf:RDF>
  </metadata>
</svg>
