<?xml version="1.0" encoding="UTF-8"?> <svg xmlns="http://www.w3.org/2000/svg" xmlns:xlink="http://www.w3.org/1999/xlink" width="128px" height="128px" viewBox="0 0 128 128" version="1.1"> <g id="surface1"> <path style=" stroke:none;fill-rule:nonzero;fill:#000;fill-opacity:1;" d="M 65.730469 21.566406 C 74.660156 30.601562 83.527344 39.574219 92.472656 48.625 C 92.066406 49.054688 91.726562 49.425781 91.375 49.777344 C 81.859375 59.328125 72.335938 68.867188 62.832031 78.425781 C 52.964844 88.34375 43.109375 98.269531 33.289062 108.234375 C 32.367188 109.171875 31.882812 109.148438 30.976562 108.226562 C 25.488281 102.617188 19.921875 97.082031 14.398438 91.507812 C 10.734375 87.8125 7.097656 84.09375 3.453125 80.378906 C 3.191406 80.113281 2.957031 79.816406 2.6875 79.507812 C 22.945312 59.441406 43.144531 39.433594 63.628906 19.140625 C 64.070312 19.648438 64.867188 20.574219 65.730469 21.566406 Z M 65.730469 21.566406 "/> <path style=" stroke:none;fill-rule:nonzero;fill:#000;fill-opacity:1;" d="M 117.636719 73.335938 C 120.503906 76.144531 123.304688 78.890625 125.796875 81.335938 C 116.488281 91.003906 107.328125 100.515625 98.21875 109.972656 C 81.457031 97.636719 80.789062 65.796875 97.109375 53.039062 C 103.9375 59.789062 110.753906 66.53125 117.636719 73.335938 Z M 117.636719 73.335938 "/> </g> </svg>