<?xml version="1.0" encoding="UTF-8"?>
<!-- Generator: Adobe Illustrator 25.0.0, SVG Export Plug-In . SVG Version: 6.00 Build 0)  -->
<svg version="1.1" id="Layer_1" xmlns="http://www.w3.org/2000/svg" xmlns:xlink="http://www.w3.org/1999/xlink"
	 viewBox="0 0 128 128" xml:space="preserve">
<style type="text/css">
</style>
<path fill="#00BCB4" d="M49.5,79.1H23l6.9-16.3h18.5L69,15.1H46.9L30.7,52.9h10c0.7,1.2,2,2,3.4,2c2.2,0,4-1.8,4-4s-1.8-3.9-4-3.9
	c-1.6,0-3,0.9-3.6,2.3h-4.7l13.5-30.6h14.5L46.2,59.2l-18.3,0.1L17.8,82.7h34l4.5-9.7h14.8l4.9,9.7h34.2L79.3,15.1L49.5,79.1z
	 M58.2,69.2l5.3-11.6l5.8,11.6H58.2z M78.3,79.5l-3.4-6.8h10.5c0.7,1.3,2,2.1,3.5,2.1c2.2,0,4-1.8,4-4c0-2.2-1.8-4-4-4
	c-1.6,0-3,1-3.6,2.4h-12l-8-15.6l5.9-13l6.7,13.5H81c0.6,1.3,2,2.3,3.6,2.3c2.2,0,4-1.8,4-4s-1.8-4-4-4c-1.7,0-3.1,1-3.7,2.5h-1.2
	l-6.9-14l6.5-14.4L105,79.5C105,79.5,78.3,79.5,78.3,79.5z"/>
<g>
	<path fill="#595959" d="M19.2,99.7H17v7.8h-2.6v-7.8h-2.1v-2.2h6.9V99.7z"/>
	<path fill="#595959" d="M27.3,107.6h-2.4v-3.4c0-0.6-0.1-1-0.2-1.2c-0.2-0.3-0.5-0.4-0.9-0.4c-0.4,0-0.7,0.1-0.9,0.4
		c-0.2,0.2-0.3,0.6-0.3,1.1v3.6h-2.4v-11h2.4v5.1c0.3-0.3,0.5-0.5,0.8-0.7c0.4-0.2,0.9-0.3,1.4-0.3c0.7,0,1.3,0.2,1.8,0.6
		c0.5,0.4,0.8,1.1,0.8,2V107.6z"/>
	<path fill="#595959" d="M36.1,104.6h-5c0,1,0.5,1.5,1.5,1.5c0.5,0,0.9-0.2,1.2-0.6H36c-0.2,0.6-0.5,1.1-0.8,1.4
		c-0.7,0.6-1.5,0.9-2.6,0.9c-1.4,0-2.4-0.4-3.1-1.3c-0.5-0.6-0.8-1.4-0.8-2.3c0-1.1,0.3-2,1-2.6s1.6-1,2.8-1c1.5,0,2.5,0.5,3.2,1.6
		c0.4,0.6,0.5,1.3,0.5,2.1V104.6z M33.9,103.2c-0.2-0.8-0.6-1.1-1.4-1.1c-0.4,0-0.7,0.1-1,0.4c-0.2,0.2-0.3,0.5-0.4,0.8H33.9z"/>
	<path fill="#595959" d="M51.4,107.6h-2.8l-0.6-1.7h-3.6l-0.7,1.7h-2.7l3.8-10h2.8L51.4,107.6z M47.2,103.8l-1.1-3.2l-1.1,3.2H47.2z"/>
	<path fill="#595959" d="M54.7,107.6h-2.4v-11h2.4V107.6z"/>
	<path fill="#595959" d="M63.9,107.1c0,0.6,0,1.1-0.1,1.4c-0.1,0.6-0.5,1.1-1,1.6c-0.7,0.6-1.6,0.9-2.8,0.9c-1.2,0-2.2-0.3-2.9-1
		c-0.5-0.4-0.8-0.9-0.9-1.3c0,0,0-0.2-0.1-0.3h2.7c0.1,0.2,0.2,0.4,0.3,0.5c0.2,0.2,0.5,0.2,0.8,0.2c0.6,0,1-0.2,1.3-0.6
		c0.2-0.2,0.3-0.6,0.3-1.1v-0.6c-0.3,0.3-0.5,0.4-0.7,0.6c-0.4,0.2-0.9,0.3-1.4,0.3c-0.7,0-1.3-0.2-1.9-0.5c-0.6-0.4-1-0.9-1.2-1.5
		c-0.2-0.4-0.2-0.9-0.2-1.4c0-1.1,0.4-2,1.1-2.7c0.7-0.6,1.5-1,2.4-1c0.5,0,0.9,0.1,1.3,0.3c0.2,0.1,0.5,0.3,0.7,0.6v-0.7h2.4V107.1
		z M61.6,104.1c0-0.4-0.1-0.8-0.4-1.1s-0.7-0.5-1.1-0.5c-0.5,0-0.9,0.2-1.2,0.6c-0.2,0.3-0.4,0.6-0.4,1c0,0.4,0.1,0.8,0.4,1.1
		c0.3,0.3,0.7,0.5,1.1,0.5c0.4,0,0.8-0.2,1.1-0.5C61.5,104.9,61.6,104.6,61.6,104.1z"/>
	<path fill="#595959" d="M73.5,104.2c0,0.9-0.3,1.8-0.9,2.4c-0.8,0.8-1.8,1.2-3.2,1.2c-1.4,0-2.4-0.4-3.2-1.2c-0.6-0.7-0.9-1.5-0.9-2.5
		c0-0.9,0.3-1.7,0.9-2.4c0.8-0.8,1.8-1.2,3.2-1.2c1.3,0,2.3,0.4,3.1,1.2C73.2,102.4,73.5,103.2,73.5,104.2z M71,104.2
		c0-0.4-0.2-0.8-0.5-1.1s-0.7-0.5-1.1-0.5c-0.5,0-0.9,0.2-1.2,0.6c-0.3,0.3-0.4,0.6-0.4,1c0,0.4,0.1,0.7,0.4,1
		c0.3,0.4,0.7,0.6,1.2,0.6c0.4,0,0.8-0.2,1.1-0.5C70.8,105,71,104.6,71,104.2z"/>
	<path fill="#595959" d="M79.9,103c-0.3-0.2-0.7-0.2-1-0.2c-0.8,0-1.3,0.3-1.5,1c-0.1,0.2-0.1,0.5-0.1,0.9v2.9h-2.4v-6.8h2.4v1.1
		c0.3-0.4,0.5-0.7,0.8-0.9c0.4-0.2,0.9-0.4,1.4-0.4c0.1,0,0.3,0,0.5,0V103z"/>
	<path fill="#595959" d="M83.6,98.2c0,0.4-0.1,0.7-0.4,1c-0.3,0.3-0.6,0.4-1,0.4c-0.4,0-0.7-0.1-1-0.4s-0.4-0.6-0.4-1s0.1-0.7,0.4-1
		s0.6-0.4,1-0.4s0.7,0.1,1,0.4S83.6,97.8,83.6,98.2z M83.4,107.6H81v-6.8h2.4V107.6z"/>
	<path fill="#595959" d="M89.1,102.7h-1.4v4.8h-2.4v-4.8h-0.8v-2h0.8v-2h2.4v2h1.4V102.7z"/>
	<path fill="#595959" d="M97.2,107.6h-2.4v-3.4c0-0.6-0.1-1-0.2-1.2c-0.2-0.3-0.5-0.4-0.9-0.4c-0.4,0-0.7,0.1-0.9,0.4
		c-0.2,0.2-0.3,0.6-0.3,1.1v3.6H90v-11h2.4v5.1c0.3-0.3,0.5-0.5,0.8-0.7c0.4-0.2,0.9-0.3,1.4-0.3c0.7,0,1.3,0.2,1.8,0.6
		c0.5,0.4,0.8,1.1,0.8,2V107.6z"/>
	<path fill="#595959" d="M110.3,107.6h-2.4v-3.4c0-0.6-0.1-1-0.2-1.2c-0.2-0.3-0.5-0.5-0.8-0.5c-0.4,0-0.7,0.2-0.9,0.5
		c-0.2,0.2-0.2,0.6-0.2,1.2v3.4h-2.4v-3.4c0-0.6,0-1-0.1-1.1c-0.2-0.4-0.5-0.5-0.9-0.5c-0.4,0-0.7,0.2-0.9,0.5
		c-0.1,0.1-0.1,0.3-0.2,0.4c0,0.2-0.1,0.4-0.1,0.8v3.4h-2.4v-6.8h2.4v0.8c0.3-0.3,0.5-0.5,0.8-0.6c0.4-0.2,0.9-0.3,1.4-0.3
		c0.7,0,1.2,0.2,1.7,0.5c0.2,0.2,0.4,0.4,0.6,0.7c0.2-0.3,0.4-0.5,0.6-0.7c0.5-0.4,1-0.6,1.7-0.6c0.5,0,1,0.1,1.4,0.4
		c0.4,0.3,0.7,0.6,0.8,1.1c0.1,0.3,0.1,0.6,0.1,1V107.6z"/>
	<path fill="#595959" d="M117.5,105.3c0,0.7-0.3,1.3-0.8,1.8c-0.6,0.5-1.4,0.8-2.5,0.8c-0.9,0-1.8-0.3-2.7-0.8l0.9-1.7
		c0.7,0.4,1.3,0.7,1.9,0.7c0.5,0,0.8-0.2,0.8-0.5c0-0.2-0.1-0.3-0.3-0.4c-0.1-0.1-0.4-0.1-0.8-0.2c-0.4-0.1-0.7-0.2-0.9-0.2
		c-0.5-0.2-0.8-0.5-1-0.9c-0.1-0.2-0.1-0.5-0.1-0.8c0-0.6,0.2-1.1,0.6-1.6c0.5-0.6,1.3-0.9,2.4-0.9c0.8,0,1.5,0.1,2.2,0.4l-0.8,1.6
		c-0.4-0.2-0.9-0.4-1.3-0.4c-0.5,0-0.7,0.2-0.7,0.5c0,0.2,0.1,0.3,0.3,0.4c0.1,0,0.3,0.1,0.8,0.2c0.6,0.1,1.1,0.3,1.4,0.6
		C117.3,104.2,117.5,104.7,117.5,105.3z"/>
</g>
</svg>
