<svg viewBox="0 0 128 128" xmlns="http://www.w3.org/2000/svg"><path d="M10.83 49.951a4.302 4.302 0 00-4.297 4.299 4.302 4.302 0 004.297 4.299 4.304 4.304 0 004.299-4.3 4.304 4.304 0 00-4.299-4.298zm106.34 0a4.304 4.304 0 00-4.299 4.299c0 2.37 1.929 4.299 4.299 4.299s4.297-1.929 4.297-4.3a4.302 4.302 0 00-4.297-4.298zm-106.34.14a4.163 4.163 0 014.158 4.159 4.163 4.163 0 01-4.158 4.158 4.162 4.162 0 01-4.156-4.158 4.162 4.162 0 014.156-4.158zm106.34 0a4.162 4.162 0 014.156 4.159 4.162 4.162 0 01-4.156 4.158 4.163 4.163 0 01-4.158-4.158 4.163 4.163 0 014.158-4.158zM8.9 52.317v3.867h3.869v-3.867H8.9zm106.34 0v3.867h3.869v-3.867H115.24zM8.96 52.38h1.205v1.205H8.96v-1.205zm1.27 0h1.205v1.205H10.23v-1.205zm1.267 0h1.205v1.205h-1.205v-1.205zm103.8 0h1.205v1.205h-1.205v-1.205zm1.268 0h1.205v1.205h-1.205v-1.205zm1.27 0h1.204v1.205h-1.205v-1.205zm-107.01.158a.444.444 0 00-.444.445.444.444 0 00.443.444.444.444 0 00.446-.444.444.444 0 00-.446-.445zm106.34 0a.444.444 0 00-.446.445.444.444 0 00.445.444.444.444 0 00.444-.444.444.444 0 00-.444-.445zm-53.163.578a1.507 1.507 0 00-1.55 1.506 1.507 1.507 0 103.013 0 1.507 1.507 0 00-1.463-1.506zm-55.049.531h1.205v1.205H8.953v-1.205zm1.27 0h1.205v1.205h-1.205v-1.205zm1.267 0h1.205v1.205H11.49v-1.205zm103.8 0h1.205v1.205h-1.205v-1.205zm1.268 0h1.205v1.205h-1.205v-1.205zm1.27 0h1.204v1.205h-1.205v-1.205zm-105.74.16a.444.444 0 00-.446.444.444.444 0 00.445.443.444.444 0 00.444-.443.444.444 0 00-.444-.444zm103.77 0a.444.444 0 00-.413.444.444.444 0 00.444.443.444.444 0 00.445-.443.444.444 0 00-.445-.444.444.444 0 00-.032 0zm-111.2.567c-.498.123-.254.614-.335.883-.206.684-1.281.902-1.82 1.367-.527.455-.841.986-1.248 1.486-.343.421-.77.834-.84 1.317-.078.547-.05 1.167.2 1.691.308.649.672 1.473 1.189 2.05.397.445.452.59 1.12.825.21.096.264.144.552.203l.056-.353.249-.291c-.333-.407-.838-.444-1.13-.74-.485-.496-.644-1.002-.933-1.57-.276-.542-.636-.956-.666-1.532-.013-.247-.12-.692.01-.914.086-.148.495-.334.635-.475.431-.437.236-.99.736-1.396.444-.361 1.196-.643 1.723-.973.365-.229.589-.31.668-.633.086-.355-.192-.618-.166-.945zm12.321 0c.026.327-.254.59-.168.945.08.322.305.404.67.633.527.33 1.279.612 1.723.973.5.405.303.959.734 1.396.14.141.551.327.637.475.13.222.02.667.008.914-.03.576-.39.99-.666 1.533-.289.567-.446 1.074-.932 1.568-.29.297-.796.334-1.129.74l.248.292.057.353c.288-.06.34-.107.55-.203.668-.234.723-.38 1.12-.824.517-.578.881-1.402 1.191-2.051.25-.524.278-1.144.2-1.691-.07-.483-.5-.896-.842-1.317-.407-.5-.72-1.031-1.246-1.486-.539-.465-1.616-.682-1.823-1.367-.08-.27.166-.76-.332-.883zm94.016 0c-.497.123-.25.614-.332.883-.206.684-1.284.902-1.822 1.367-.526.455-.84.986-1.246 1.486-.343.421-.773.834-.842 1.317-.078.547-.05 1.167.2 1.691.31.649.674 1.473 1.19 2.05.398.445.451.59 1.118.825.212.096.265.144.553.203l.056-.353.248-.291c-.332-.407-.837-.444-1.128-.74-.486-.496-.645-1.002-.934-1.57-.276-.542-.635-.956-.664-1.532-.013-.247-.122-.692.008-.914.086-.148.497-.334.636-.475.432-.437.236-.99.735-1.396.444-.361 1.196-.643 1.722-.973.365-.229.592-.31.67-.633.087-.355-.193-.618-.168-.945zm12.322 0c.026.327-.252.59-.166.945.079.322.303.404.668.633.527.33 1.279.612 1.723.973.5.405.305.959.736 1.396.14.141.551.327.637.475.13.222.02.667.008.914-.03.576-.39.99-.666 1.533-.29.567-.448 1.074-.934 1.568-.29.297-.796.334-1.129.74l.248.292.057.353c.288-.06.341-.107.553-.203.667-.234.722-.38 1.119-.824.517-.578.88-1.402 1.19-2.051.248-.524.277-1.144.199-1.691-.07-.483-.497-.896-.84-1.317-.407-.5-.722-1.031-1.248-1.486-.539-.465-1.614-.682-1.82-1.367-.081-.27.163-.76-.334-.883zm-114.37.543h1.205v1.205H8.947v-1.205zm1.27 0h1.205v1.205h-1.205v-1.205zm1.267 0h1.206v1.205h-1.206v-1.205zm103.8 0h1.206v1.205h-1.206v-1.205zm1.268 0h1.205v1.205h-1.205v-1.205zm1.27 0h1.205v1.205h-1.205v-1.205zm-108.27.158a.444.444 0 00-.444.443.444.444 0 00.444.446.444.444 0 00.443-.446.444.444 0 00-.443-.443zm1.267 0a.444.444 0 00-.443.443.444.444 0 00.443.446.444.444 0 00.446-.446.444.444 0 00-.446-.443zm1.27 0a.444.444 0 00-.446.443.444.444 0 00.446.446.444.444 0 00.443-.446.444.444 0 00-.443-.443zm103.8 0a.444.444 0 00-.444.443.444.444 0 00.444.446.444.444 0 00.445-.446.444.444 0 00-.445-.443zm1.27 0a.444.444 0 00-.446.443.444.444 0 00.445.446.444.444 0 00.444-.446.444.444 0 00-.444-.443zm1.267 0a.444.444 0 00-.444.443.444.444 0 00.444.446.444.444 0 00.443-.446.444.444 0 00-.443-.443zm-83.471 4.037c-4.609 0-7.682 3.308-7.682 7.887 0 4.313 3.132 7.889 7.682 7.889 1.004 0 2.332-.09 3.484-.622l-.207-2.482c-.857.561-2.037.857-2.982.857-3.575 0-5.022-2.954-5.022-5.642 0-2.866 1.742-5.643 4.844-5.643.886 0 1.95.208 3.014.65l.236-2.304c-.798-.325-2.245-.59-3.367-.59zm14.699 0c-1.92 0-3.575.59-4.963 1.418l.148 2.363c1.123-.945 2.806-1.537 4.371-1.537 2.777 0 3.723 1.33 3.723 3.93-1.093-.06-1.86-.059-2.953-.059-2.865 0-7.002 1.182-7.002 4.963 0 3.28 2.274 4.698 5.523 4.698 2.54 0 4.019-1.39 4.668-2.305h.059v1.95h2.6c-.06-.444-.118-1.24-.118-2.954v-6.234c0-4.107-1.743-6.233-6.056-6.233zm28.984 0c-1.595 0-3.191 1.122-3.93 2.688h-.058v-2.334h-2.6V74.53h2.777v-6.854c0-3.781 1.624-6.144 4.106-6.144.472 0 1.035.058 1.537.265v-2.48c-.591-.118-1.005-.207-1.832-.207zm14.344 0c-4.609 0-7.68 3.308-7.68 7.887 0 4.313 3.13 7.889 7.68 7.889 4.52 0 7.652-3.576 7.652-7.89 0-4.578-3.073-7.886-7.652-7.886zm-30.42.354V74.53h2.777V59.465h-2.777zm-51.746.02c-2.139 0-3.871.658-3.871 1.47 0 .71 1.732.512 3.87.512 2.139 0 3.874.16 3.874-.512 0-.812-1.735-1.47-3.873-1.47zm106.34 0c-2.138 0-3.873.658-3.873 1.47 0 .673 1.735.512 3.873.512s3.87.198 3.87-.512c0-.812-1.732-1.47-3.87-1.47zm-24.178 1.87c2.954 0 4.697 2.777 4.697 5.643 0 2.688-1.448 5.642-4.697 5.642-3.28 0-4.727-2.954-4.727-5.642 0-2.866 1.743-5.643 4.727-5.643zm-84.096.285c-2.21 0-4.137.905-5.192 2.252-.073.418-.127.845-.16 1.28.276-.003 5.842-.047 6.338.443l.943.93.944-.93c.496-.49 6.062-.446 6.338-.443a12.87 12.87 0 00-.162-1.29c-1.057-1.341-2.98-2.242-5.184-2.242H8.882zm106.34 0c-2.205 0-4.127.9-5.184 2.243-.074.42-.13.85-.162 1.289.275-.003 5.841-.047 6.338.443l.943.93.944-.93c.496-.49 6.062-.446 6.338-.443a12.981 12.981 0 00-.16-1.28c-1.056-1.347-2.982-2.252-5.192-2.252h-3.865zM3.532 65.21c-.01.15-.018.3-.024.452-.005.154.723.327.723.467 0 .161-.728.354-.72.531.208 5.105 3.378 9.162 7.265 9.191l-.629-7.746.004-.01.617-1.482-.953-.94c-.393-.387-4.668-.434-6.281-.42l-.002-.042zm14.57 0v.044c-1.614-.015-5.89.03-6.283.418l-.954.941.622 1.492-.63 7.746c3.888-.029 7.058-4.085 7.266-9.191.007-.177-.72-.37-.72-.531 0-.14.728-.313.722-.467a12.484 12.484 0 00-.023-.451zm91.773 0c-.011.15-.018.3-.024.452-.005.154.723.327.723.467 0 .161-.728.354-.72.531.207 5.106 3.377 9.162 7.265 9.191l-.629-7.746.621-1.492-.953-.941c-.393-.388-4.67-.433-6.283-.418v-.043zm14.57 0l-.002.044c-1.614-.015-5.888.032-6.281.42l-.953.94.617 1.481.004.01-.63 7.746c3.887-.029 7.058-4.086 7.266-9.191.007-.177-.72-.37-.72-.531 0-.14.727-.313.722-.467a12.843 12.843 0 00-.023-.451zM1.285 66.266C.338 66.3.509 67.3.85 68.187c.395 1.025.573 2.106.998 3.12.195.465.483.919.996 1.052.026-.587-.064-.741-.425-1.178-.306-.368-.231-.872-.422-1.287-.25-.543-.294-1.09-.508-1.636-.095-.243-.58-.973-.45-1.244.222-.46.64-.006.848.144.294.211.452.156.815.203.041.006.248.15.73.371l-.056-.511c-.662-.32-.72-.68-1.444-.868a2.31 2.31 0 00-.648-.088zm19.059 0a2.31 2.31 0 00-.649.088c-.723.188-.78.549-1.441.868l-.057.511c.483-.22.69-.365.73-.37.364-.048.52.007.813-.204.21-.15.626-.604.848-.144.13.27-.354 1.002-.45 1.244-.214.546-.258 1.093-.507 1.636-.191.415-.116.919-.422 1.287-.362.437-.452.591-.426 1.178.514-.133.801-.587.996-1.053.426-1.013.603-2.094.998-3.119.343-.888.514-1.888-.433-1.922zm87.28 0c-.947.034-.776 1.034-.433 1.922.395 1.025.573 2.106.998 3.12.195.465.483.919.996 1.052.026-.587-.064-.741-.425-1.178-.306-.368-.231-.872-.422-1.287-.25-.543-.294-1.09-.508-1.636-.095-.243-.58-.973-.45-1.244.222-.46.64-.006.848.144.294.211.45.156.813.203.041.006.248.15.73.371l-.056-.511c-.662-.32-.719-.68-1.442-.868a2.31 2.31 0 00-.648-.088zm19.06 0a2.31 2.31 0 00-.649.088c-.723.188-.781.549-1.443.868l-.057.511c.483-.22.69-.365.73-.37.364-.048.522.007.815-.204.21-.15.626-.604.848-.144.13.27-.354 1.002-.45 1.244-.214.546-.258 1.093-.507 1.636-.191.415-.116.919-.422 1.287-.362.437-.452.591-.426 1.178.514-.133.801-.587.996-1.053.425-1.013.603-2.094.998-3.119.343-.888.514-1.888-.433-1.922zm-115.87.446l-.584 1.406.584 7.22.586-7.22-.586-1.406zm106.34 0l-.586 1.406.586 7.22.584-7.22-.584-1.406zm-65.998.582c.59 0 1.18.06 1.771.06v1.328c0 2.246-1.448 3.96-4.195 3.96-1.27 0-2.807-.857-2.807-2.452 0-2.658 3.724-2.896 5.23-2.896zM4.76 71.929c-.465.622-.486 1.13-.7 1.625-.367.854-.01 2.007.686 2.622.421.374 1.107.669 1.61.914.698.34 1.4.786 2.181.933.173.033.611.09.465-.246-.068-.156-.562-.319-.705-.398-.579-.322-1.141-.732-1.682-1.125-.66-.478-1.45-.78-1.97-1.442-.213-.27-.246-.341-.196-.652.049-.297.094-.639.157-.936.07-.334.169-.658.347-.959l-.193-.336zm12.102 0l-.192.336c.179.3.278.625.348.96.063.296.108.638.156.935.05.31.016.382-.197.652-.52.661-1.31.964-1.97 1.442-.541.393-1.102.803-1.68 1.125-.143.08-.64.242-.707.398-.146.335.292.279.464.246.782-.147 1.486-.593 2.184-.933.502-.245 1.188-.54 1.61-.914.696-.615 1.052-1.768.685-2.622-.213-.495-.236-1.003-.701-1.625zm94.238 0c-.465.622-.488 1.13-.701 1.625-.367.854-.011 2.007.685 2.622.422.374 1.107.669 1.61.914.698.34 1.402.786 2.183.933.173.033.611.09.465-.246-.068-.156-.564-.319-.707-.398-.579-.322-1.14-.732-1.68-1.125-.66-.478-1.45-.78-1.97-1.442-.213-.27-.248-.341-.198-.652.049-.297.094-.639.157-.936.07-.334.169-.658.347-.959l-.191-.336zm12.102 0l-.194.336c.179.3.278.625.348.96.063.296.108.638.156.935.051.31.018.382-.195.652-.52.661-1.31.964-1.97 1.442-.541.393-1.104.803-1.682 1.125-.143.08-.637.242-.705.398-.147.335.292.279.465.246.78-.147 1.483-.593 2.181-.933.502-.245 1.188-.54 1.61-.914.696-.615 1.052-1.768.685-2.622-.213-.495-.234-1.003-.7-1.625z"/></svg>
