<svg viewBox="0 0 128 128" xmlns="http://www.w3.org/2000/svg"><path d="M64 .707c-10.678 0-19.365 8.689-19.365 19.367S53.322 39.439 64 39.439s19.365-8.687 19.365-19.365C83.365 9.396 74.678.707 64 .707zm0 .637c10.328 0 18.73 8.402 18.73 18.73 0 10.328-8.403 18.73-18.73 18.73-10.328 0-18.73-8.403-18.73-18.73 0-10.328 8.402-18.73 18.73-18.73zM55.285 11.36v17.428h17.43V11.36h-17.43zm.285.285H61v5.43h-5.43v-5.43zm5.715 0h5.43v5.43h-5.43v-5.43zm5.715 0h5.43v5.43H67v-5.43zm-3 .715a2 2 0 00-2 2 2 2 0 002 2 2 2 0 002-2 2 2 0 00-2-2zm-8.43 5H61v5.427h-5.43V17.36zm5.715 0h5.43v5.427h-5.43V17.36zm5.715 0h5.43v5.427H67V17.36zm2.715.713a2 2 0 00-2 2.002 2 2 0 002 2 2 2 0 002-2 2 2 0 00-2-2.002zm-33.473 2.556c-2.242.554-1.136 2.765-1.5 3.977-.93 3.085-5.781 4.067-8.207 6.162-2.374 2.048-3.789 4.44-5.621 6.695-1.546 1.898-3.475 3.76-3.786 5.934-.352 2.466-.225 5.251.897 7.611 1.392 2.923 3.034 6.636 5.363 9.24 1.789 2 2.034 2.664 5.041 3.72.953.432 1.192.645 2.488.913l.256-1.592 1.115-1.312c-1.499-1.833-3.772-2.001-5.084-3.338-2.189-2.23-2.903-4.51-4.205-7.062-1.244-2.447-2.862-4.315-2.996-6.913-.057-1.112-.548-3.112.035-4.115.388-.666 2.238-1.504 2.866-2.14 1.944-1.972 1.064-4.462 3.314-6.29 2.001-1.626 5.39-2.892 7.762-4.38 1.644-1.031 2.66-1.403 3.014-2.854.389-1.598-.867-2.781-.752-4.256zm55.514 0c.114 1.475-1.14 2.657-.75 4.256.354 1.451 1.37 1.823 3.013 2.854 2.372 1.488 5.76 2.754 7.76 4.38 2.249 1.828 1.368 4.318 3.313 6.29.627.636 2.477 1.474 2.865 2.14.583 1.003.092 3.003.035 4.115-.133 2.598-1.753 4.466-2.996 6.913-1.302 2.552-2.017 4.832-4.203 7.062-1.312 1.337-3.583 1.505-5.082 3.338l1.115 1.312.254 1.592c1.296-.268 1.535-.481 2.488-.914 3.005-1.055 3.251-1.718 5.04-3.719 2.329-2.604 3.97-6.317 5.367-9.24 1.12-2.36 1.248-5.145.896-7.611-.311-2.175-2.243-4.036-3.79-5.934-1.831-2.255-3.247-4.647-5.618-6.695-2.426-2.095-7.277-3.077-8.207-6.162-.364-1.212.742-3.423-1.5-3.977zM55.57 23.073H61v5.43h-5.43v-5.43zm5.714 0h5.43v5.43h-5.43v-5.43zm5.715 0h5.43v5.43h-5.43v-5.43zm-8.715.714a2 2 0 00-2 2 2 2 0 002 2.002 2 2 0 002-2.002 2 2 0 00-2-2zm5.715 0a2 2 0 00-2 2 2 2 0 002 2.002 2 2 0 002-2.002 2 2 0 00-2-2zm5.715 0a2 2 0 00-2 2 2 2 0 002 2.002 2 2 0 002-2.002 2 2 0 00-2-2zM63.99 43.658c-9.634 0-17.44 2.966-17.44 6.625 0 3.2 7.807 2.305 17.44 2.305 9.632 0 17.445.727 17.445-2.305 0-3.658-7.813-6.625-17.445-6.625zm-8.693 9.71c-9.955 0-18.639 4.081-23.393 10.151a58.498 58.498 0 00-.719 5.762c1.243-.011 26.317-.212 28.555 1.994l4.248 4.19 4.248-4.19c2.238-2.206 27.316-2.005 28.557-1.994a57.99 57.99 0 00-.728-5.808c-4.761-6.046-13.425-10.105-23.357-10.105h-17.41zM31.17 69.452a57.52 57.52 0 00-.11 2.032c-.023.692 3.26 1.476 3.26 2.107 0 .727-3.278 1.594-3.248 2.393.939 23 15.218 41.276 32.73 41.408l-2.83-34.898.017-.041.002-.002 2.777-6.682-4.29-4.232c-1.772-1.748-21.033-1.957-28.304-1.889l-.004-.195zm65.637 0v.196c-7.27-.068-26.532.14-28.305 1.886l-4.293 4.235 2.797 6.723-2.828 34.898c17.515-.131 31.79-18.406 32.729-41.408.03-.798-3.248-1.666-3.248-2.393 0-.63 3.281-1.413 3.258-2.106a56.11 56.11 0 00-.11-2.03zm-75.738 4.752c-4.267.154-3.497 4.663-1.955 8.665 1.78 4.617 2.583 9.48 4.498 14.047.88 2.097 2.17 4.143 4.484 4.744.117-2.645-.288-3.34-1.918-5.305-1.378-1.66-1.04-3.935-1.902-5.803-1.123-2.447-1.316-4.907-2.283-7.37-.428-1.092-2.612-4.379-2.024-5.6.999-2.071 2.878-.027 3.819.65 1.323.952 2.029.697 3.664.908.186.025 1.116.68 3.291 1.672l-.256-2.305c-2.98-1.436-3.24-3.063-6.502-3.908-1.162-.301-2.126-.423-2.916-.394zm85.86 0c-.792-.028-1.756.094-2.919.395-3.258.845-3.519 2.472-6.5 3.908l-.254 2.305c2.174-.993 3.103-1.647 3.29-1.672 1.634-.212 2.337.044 3.66-.908.94-.678 2.821-2.721 3.82-.65.588 1.22-1.596 4.508-2.024 5.599-.966 2.464-1.158 4.924-2.28 7.371-.862 1.868-.527 4.143-1.903 5.803-1.63 1.965-2.034 2.66-1.918 5.305 2.314-.6 3.603-2.647 4.482-4.745 1.916-4.567 2.718-9.429 4.498-14.047 1.545-4 2.316-8.51-1.953-8.664zM63.99 76.213l-2.637 6.34 2.637 32.523 2.635-32.523-2.635-6.34zm-27.252 23.51c-2.095 2.8-2.192 5.088-3.152 7.32-1.655 3.846-.05 9.048 3.09 11.815 1.897 1.685 4.987 3.016 7.25 4.119 3.146 1.534 6.308 3.54 9.828 4.2.778.147 2.757.408 2.097-1.103-.305-.701-2.537-1.44-3.181-1.798-2.607-1.45-5.136-3.3-7.57-5.073-2.979-2.152-6.536-3.508-8.878-6.486-.957-1.218-1.113-1.544-.884-2.945.217-1.337.422-2.878.703-4.215.317-1.508.762-2.965 1.566-4.319l-.869-1.515zm54.521 0l-.87 1.516c.805 1.353 1.25 2.81 1.567 4.318.282 1.338.487 2.878.705 4.215.228 1.401.074 1.727-.884 2.945-2.342 2.979-5.897 4.335-8.875 6.487-2.435 1.772-4.97 3.622-7.577 5.072-.644.358-2.875 1.097-3.181 1.799-.658 1.51 1.32 1.25 2.098 1.103 3.52-.661 6.685-2.667 9.832-4.2 2.262-1.104 5.35-2.435 7.25-4.12 3.138-2.767 4.743-7.969 3.09-11.814-.962-2.232-1.06-4.52-3.155-7.32z"/></svg>
