<svg viewBox="0 0 128 128" xmlns="http://www.w3.org/2000/svg">
<path d="m35.961 20.837c-0.17023 0.0032-0.28852 0.10414-0.28852 0.35844l-0.09264 4.4186c-1.8131 0.75421-10.552 5.6894-11.942 9.2057l-0.648 1.1048c-1.1025 0.73931-2.0108 1.559-2.7653 2.4425-4.0006 4.7617-3.3676 9.3143-1.1367 13.742 2.0791 4.0732 5.5939 9.139 10.475 12.445 1.0366 0.60909 1.8412-0.2858 1.9905-1.7032 0.60726 0.34198 1.1103 0.91858 1.5148 1.5305-0.70706 1.4995-1.1623 3.0951-1.4252 4.7587l26.179 0.23558c0.06472 6.01e-4 0.12753 0.0217 0.17915 0.0607 1.8766 1.4121 3.7868 2.7252 5.9994 5.9924 2.2126-3.2673 4.1228-4.5804 5.9994-5.9924 0.05162-0.03887 0.11445-0.06012 0.17917-0.0607l26.179-0.23558c-0.26288-1.6637-0.71812-3.2592-1.4252-4.7587 0.40445-0.61187 0.9075-1.1885 1.5148-1.5305 0.14925 1.4174 0.95381 2.3123 1.9905 1.7032 4.8808-3.3058 8.3956-8.3716 10.475-12.445 2.2309-4.4282 2.864-8.9808-1.1367-13.742-0.75445-0.88353-1.6628-1.7032-2.7653-2.4425l-0.64803-1.1048c-1.3899-3.5163-10.129-8.4515-11.942-9.2057l-0.09266-4.4186c0-0.2543-0.11829-0.35523-0.28851-0.35844-0.43501-0.0081-1.2086 0.62125-1.2086 0.95522 0 1.9674-0.57591 4.0163 0.84907 4.8345 3.2044 1.1054 10.952 4.5681 11.988 8.7453-0.28797 0.93762-0.40391 2.268 0 2.6697 4.0148 2.4476 4.1316 3.9796 4.0269 5.5234-0.33851 3.4951-1.2409 3.5451-1.9476 5.3736-1.8238 4.7193-4.1939 9.3294-8.3753 11.057-0.67582 0.27925-1.5336-0.0226-2.1746 0.60009-0.64099 0.62254 0.05975 1.1985 0.46272 1.4268-0.55646 0.21841-1.1288 0.48645-1.6178 0.73651-2.6562-4.2051-7.6775-7.4874-16.527-9.1401-3.3931-0.50751-8.4437-0.43871-13.516-0.29584-5.072-0.14288-10.123-0.21167-13.516 0.29584-8.8491 1.6527-13.87 4.935-16.527 9.1401-0.48892-0.25006-1.0613-0.51812-1.6178-0.73651 0.40296-0.22835 1.1037-0.80431 0.46273-1.4268-0.64098-0.62254-1.4987-0.32085-2.1746-0.60009-4.1814-1.7277-6.5515-6.3378-8.3753-11.057-0.70664-1.8285-1.6091-1.8785-1.9476-5.3736-0.10472-1.5438 0.01207-3.0758 4.0269-5.5234 0.40392-0.40165 0.28799-1.7321 0-2.6697 1.0369-4.1773 8.7841-7.64 11.988-8.7453 1.425-0.81813 0.84908-2.8671 0.84908-4.8345 0-0.33398-0.77353-0.96331-1.2086-0.95522zm28.039 23.033c-8.6293 0-12.236 1.5044-14.959 3.7848-1.1448 0.96085-2.1434 2.2725-1.1025 3.5954 1.0409 1.3229 2.2228 1.0241 3.4654 1.1209l12.596 0.04113 12.596-0.04113c1.2426-0.09686 2.4245 0.20195 3.4654-1.1209 1.0409-1.3229 0.04249-2.6345-1.1025-3.5954-2.7226-2.2804-6.3297-3.7848-14.959-3.7848zm-32.444 25.87c-0.06161 0.47592-0.10899 0.95679-0.14191 1.4426 0 0.40517 4e-3 0.80604 0.01013 1.2049l3.8779 0.08416-3.7629 3.0766c0.03589 0.61928 0.07844 1.2315 0.12918 1.8347-0.45378 0.59532-0.95305 1.245-1.2727 0.95733-2.6132-2.362-5.3927-4.7189-9.2366-4.6331-1.9887 0.048-3.2104 1.6141-2.9336 2.9739 1.4721 8.2851 2.8969 14.524 8.0042 22.809 0.9089 1.5655 3.1539 0.86915 2.2217-0.73651-4.2386-6.8518-5.6317-13.908-7.8079-21.956 1.1685-1.6204 2.3906 0.50228 4.1131 1.4969 0.90106 0.52031 1.8438 0.2119 3.1919 0.01446 0.87423-0.12801 1.7512 1.6344 2.447 1.8026 0.47014 0.03119 0.97633-0.63207 1.4059-1.3225 0.93994 8.9318 3.521 16.042 6.9605 21.596l-1.6826-0.30826c-0.46345-0.0955-1.0729 0.19247-1.184 0.60478-1.0833 3.5921-2.3304 8.7363-2.4973 11.313-0.16604 1.0361 0.34495 1.8931 0.83328 2.6563 4.1421 6.4408 14.315 10.201 20.233 12.778 0.90945 0.24232 1.4744-0.17122 1.8115-0.75175 0.55876-0.9623-0.01629-1.9587-1.0968-2.6663-3.9242-2.5513-14.425-7.4307-18.332-11.513-1.0628-1.2146-1.4084-1.5929-1.304-3.0536 0.19167-2.6562 0.72862-4.7974 1.2081-7.0243 0.25793-1.1224-0.0633-1.0356 1.1343-1.0696l1.466-0.0416c6.9578 10.592 17.068 15.205 24.347 15.873l0.04475-8.6399c-0.57058-0.76826-0.91776-1.9025-1.1475-3.2909-0.23929-1.446-0.34686-3.1597-0.38967-4.9784-0.0852-3.6205 0.0866-7.6543 0.02396-10.754-1.5569-3.6809-1.52-6.1892-0.91084-8.2249 0.59785-1.9978 1.6958-3.5293 2.3134-5.3307-2.1915-3.2982-4.0157-4.5621-5.9162-5.9887zm64.888 0-26.16 0.23536c-1.9005 1.4265-3.7247 2.6905-5.9162 5.9887 0.61764 1.8014 1.7155 3.3329 2.3134 5.3307 0.6092 2.0357 0.64611 4.544-0.91084 8.2249-0.06278 3.0997 0.10898 7.1335 0.02396 10.754-0.04294 1.8187-0.15034 3.5324-0.38962 4.9784-0.22975 1.3883-0.57693 2.5226-1.1475 3.2909l0.04475 8.6398c7.2794-0.66782 17.389-5.2811 24.347-15.873l1.466 0.0416c1.1976 0.0339 0.87638-0.0528 1.1343 1.0696 0.47946 2.227 1.0164 4.368 1.2081 7.0243 0.10437 1.4607-0.24119 1.8391-1.304 3.0536-3.9072 4.0818-14.408 8.9613-18.332 11.513-1.0805 0.70759-1.6556 1.704-1.0968 2.6664 0.33719 0.58051 0.90209 0.99407 1.8115 0.75175 5.9185-2.577 16.091-6.3369 20.233-12.778 0.48833-0.76319 0.99932-1.6202 0.83329-2.6563-0.16688-2.577-1.414-7.7212-2.4973-11.313-0.1111-0.41231-0.72059-0.70026-1.184-0.60477l-1.6826 0.30826c3.4394-5.5537 6.0205-12.664 6.9605-21.596 0.42954 0.69047 0.93571 1.3535 1.4059 1.3225 0.6959-0.16824 1.5728-1.9306 2.447-1.8026 1.3482 0.19739 2.2909 0.50578 3.1919-0.01446 1.7225-0.99466 2.9446-3.1173 4.1132-1.4969-2.1762 8.0482-3.5693 15.104-7.8079 21.956-0.93223 1.6057 1.3128 2.302 2.2217 0.73651 5.1074-8.2851 6.5321-14.524 8.0042-22.809 0.27681-1.3598-0.94484-2.9259-2.9336-2.974-3.8439-0.08579-6.6234 2.2711-9.2366 4.6331-0.31961 0.28765-0.8189-0.36201-1.2727-0.95733 0.05076-0.60324 0.09329-1.2154 0.12918-1.8347l-3.7629-3.0766 3.8779-0.08416c0.0063-0.3988 0.0099-0.79971 0.0099-1.2049-0.033-0.48576-0.08032-0.96663-0.14193-1.4426zm-32.444 6.9894c-0.65812 1.6494-1.5968 3.0459-2.1027 4.7365-0.57697 1.928-0.63388 4.2569 0.91202 7.8818 0.01492 0.03526 0.02305 0.07273 0.02396 0.11088 0.06599 3.1385-0.10916 7.1934-0.02441 10.801 0.04249 1.8039 0.15034 3.4957 0.3819 4.8949 0.18505 1.1182 0.45619 2.047 0.809 2.6894 0.35283-0.6424 0.62396-1.5712 0.809-2.6894 0.23156-1.3992 0.33945-3.0911 0.3819-4.8949 0.08489-3.6077-0.09031-7.6626-0.02441-10.801 8.41e-4 -0.03797 9e-3 -0.07576 0.02396-0.11088 1.5459-3.6249 1.489-5.9538 0.91202-7.8818-0.50591-1.6906-1.4445-3.087-2.1027-4.7365z" fill="#f39914"/>
<path d="m64 0.5c-10.689 0-19.365 8.6769-19.365 19.365 0 10.689 8.6769 19.365 19.365 19.365s19.365-8.6769 19.365-19.365c0-10.689-8.6769-19.365-19.365-19.365zm0 1.1256c10.08 0 18.24 8.1596 18.24 18.24 0 10.08-8.1596 18.24-18.24 18.24-10.08 0-18.24-8.1596-18.24-18.24 0-10.08 8.1596-18.24 18.24-18.24zm-9.9575 8.2763v19.927h19.915v-19.927h-1.1006v0.00141h-5.1708v-0.00141h-1.1006v0.00141h-5.1711v-0.00141h-1.1006v0.00141h-5.1708v-0.00141zm1.1006 1.102h5.1708v5.1711h-5.1708zm6.2714 0h5.1711v5.1711h-5.1711zm6.2716 0h5.1708v5.1711h-5.1708zm-3.6861 1.1852c-0.77574 0-1.4001 0.62462-1.4001 1.4004s0.62438 1.4001 1.4001 1.4001c0.77574 0 1.4001-0.62438 1.4001-1.4001s-0.62438-1.4004-1.4001-1.4004zm-8.8569 5.09h5.1708v5.1708h-5.1708zm6.2714 0h5.1711v5.1708h-5.1711zm6.2716 0h5.1708v5.1708h-5.1708zm2.5853 1.1852c-0.77574 0-1.4001 0.62438-1.4001 1.4001s0.62438 1.4004 1.4001 1.4004 1.4004-0.62462 1.4004-1.4004-0.62462-1.4001-1.4004-1.4001zm-15.128 5.0897h5.1708v5.1711h-5.1708zm6.2714 0h5.1711v5.1711h-5.1711zm6.2716 0h5.1708v5.1711h-5.1708zm-9.9575 1.1854c-0.77574 0-1.4004 0.62438-1.4004 1.4001s0.62462 1.4004 1.4004 1.4004 1.4001-0.62462 1.4001-1.4004-0.62438-1.4001-1.4001-1.4001zm6.2714 0c-0.77574 0-1.4001 0.62438-1.4001 1.4001s0.62438 1.4004 1.4001 1.4004 1.4001-0.62462 1.4001-1.4004-0.62438-1.4001-1.4001-1.4001zm6.2714 0c-0.77574 0-1.4001 0.62438-1.4001 1.4001s0.62438 1.4004 1.4001 1.4004 1.4004-0.62462 1.4004-1.4004-0.62462-1.4001-1.4004-1.4001z" fill="#162284"/>
</svg>
