<svg xmlns="http://www.w3.org/2000/svg" viewBox="0 0 128 128"><path d="M.59 55.484h126.82v16.258H.59zm0 0" fill-rule="evenodd" fill="#FFF"/><path d="M30.238 60.363c-.5 0-.937.063-1.309.199-.359.145-.641.34-.84.59a1.48 1.48 0 00-.289.883c0 .352.094.637.281.875s.434.418.742.551c.316.133.707.25 1.176.355l.828.207c.199.063.371.16.504.285s.195.281.195.484c0 .254-.117.457-.363.625s-.551.258-.941.258c-.289 0-.516-.039-.687-.125-.18-.086-.312-.184-.402-.32a2.23 2.23 0 01-.277-.477c-.062-.164-.141-.289-.242-.363a.478.478 0 00-.348-.129.579.579 0 00-.418.164.5.5 0 00-.168.375c0 .254.094.508.277.785a2.06 2.06 0 00.727.652c.406.215.926.324 1.566.324.531 0 .992-.074 1.371-.242a1.97 1.97 0 00.898-.684l.023-.055.043-.051.086-.172.027-.066.02-.055.016-.055.039-.129.008-.059.02-.07.008-.066v-.059l.004-.066v-.078c0-.297-.059-.551-.168-.762a1.49 1.49 0 00-.492-.52 3.404 3.404 0 00-.746-.344 10.235 10.235 0 00-.996-.266l-.617-.148a3.5 3.5 0 01-.371-.148.84.84 0 01-.301-.234.447.447 0 01-.109-.301c0-.195.109-.367.316-.504.207-.145.48-.203.813-.203.371 0 .637.055.809.191.164.125.297.297.426.523.09.164.168.27.242.34s.188.102.344.102.297-.059.414-.172a.527.527 0 00.164-.383c0-.16-.047-.32-.137-.484s-.223-.332-.422-.48c-.184-.148-.426-.277-.715-.371s-.633-.129-1.027-.129zm8.422 0c-.187 0-.352.051-.469.18s-.184.305-.184.555v2.887c0 .449.059.84.168 1.164.102.32.266.594.492.801s.52.371.883.465a4.81 4.81 0 001.27.148c.426 0 .789-.043 1.105-.129.305-.094.57-.25.805-.441a1.77 1.77 0 00.566-.828c.102-.316.141-.707.141-1.172v-2.895c0-.25-.055-.437-.18-.555-.117-.129-.281-.18-.48-.18s-.352.051-.469.18c-.117.117-.176.305-.176.555v2.984c0 .512-.098.898-.316 1.148-.207.25-.574.375-1.09.375-.359 0-.648-.059-.855-.187a.94.94 0 01-.422-.523 2.403 2.403 0 01-.129-.84v-2.957c0-.25-.059-.43-.168-.555-.125-.129-.293-.18-.492-.18zm11.051.098c-.289 0-.488.059-.613.176s-.184.305-.184.57v4.508c0 .258.059.445.184.57.117.121.324.176.613.176h1.965c.344 0 .656-.016.906-.047a2.52 2.52 0 00.676-.164 1.62 1.62 0 00.75-.594c.191-.266.277-.57.277-.902 0-.73-.422-1.223-1.273-1.469.652-.289.973-.723.973-1.32a1.28 1.28 0 00-.098-.5 1.39 1.39 0 00-.266-.426 1.44 1.44 0 00-.406-.32 1.667 1.667 0 00-.605-.199 4.475 4.475 0 00-.809-.059zm.512.906h1.07c.469 0 .828.051 1.063.148.223.102.344.305.344.605a.65.65 0 01-.109.379.67.67 0 01-.402.336c-.184.063-.437.086-.762.086h-1.203zm0 2.422h1.363c.461 0 .805.066 1.031.207.227.133.344.363.344.66 0 .598-.441.902-1.328.902h-1.41zm0 0" fill="#809CC8"/><path d="M59.684 60.363a.623.623 0 00-.453.164.52.52 0 00-.18.383.88.88 0 00.027.199c.016.078.047.152.07.219l.082.215 1.535 3.891.168.422a2.01 2.01 0 00.195.363c.082.102.18.184.297.25.125.066.27.094.449.094a.938.938 0 00.445-.094c.117-.066.215-.148.297-.25.07-.102.133-.23.188-.363l.168-.422 1.563-3.922.078-.215a.94.94 0 00.063-.199c.016-.074.039-.137.039-.191 0-.094-.039-.18-.094-.266s-.125-.152-.215-.207a.72.72 0 00-.316-.07.594.594 0 00-.363.098.76.76 0 00-.187.223c-.039.078-.09.227-.168.445l-1.469 4.055-1.461-4.031a2.94 2.94 0 00-.281-.609c-.09-.129-.254-.18-.477-.18zm33.059 0c-.5 0-.934.063-1.293.199-.371.145-.648.34-.848.59a1.48 1.48 0 00-.289.883c0 .352.102.637.281.875s.43.418.746.551c.309.133.695.25 1.164.355l.836.207c.207.063.379.16.504.285s.203.281.203.484c0 .254-.129.457-.363.625-.246.168-.562.258-.949.258-.289 0-.516-.039-.687-.125s-.309-.184-.41-.32a2.06 2.06 0 01-.254-.477 1.008 1.008 0 00-.25-.363.52.52 0 00-.352-.129c-.172 0-.312.059-.422.164s-.164.227-.164.375c0 .254.09.508.27.785.184.27.426.484.715.652.414.215.941.324 1.582.324.531 0 .988-.074 1.379-.242.387-.16.684-.391.883-.684l.039-.055.027-.051.039-.062.055-.109.027-.066.012-.055.027-.055.02-.066.008-.062.02-.059.008-.07.012-.066V64.8l.008-.066v-.078c0-.297-.059-.551-.168-.762-.117-.207-.285-.383-.492-.52s-.449-.246-.746-.344-.629-.184-.988-.266l-.633-.148-.371-.148a.86.86 0 01-.297-.234.506.506 0 01-.098-.301c0-.195.102-.367.309-.504.207-.145.477-.203.82-.203.359 0 .633.055.793.191.164.125.309.297.426.523.09.164.172.27.254.34.074.07.191.102.336.102a.54.54 0 00.406-.172.506.506 0 00.172-.383 1.01 1.01 0 00-.141-.484 1.4 1.4 0 00-.41-.48c-.187-.148-.437-.277-.727-.371s-.633-.129-1.027-.129zm8.469 0c-.187 0-.344.051-.461.18-.129.125-.184.305-.184.555v4.727c0 .246.063.426.184.551s.273.188.461.188.359-.055.484-.176c.117-.125.176-.309.176-.562v-4.727c0-.25-.059-.437-.176-.555-.125-.129-.293-.18-.484-.18zm9.031 0c-.488 0-.93.063-1.32.219a2.64 2.64 0 00-.988.609 2.74 2.74 0 00-.617.984c-.137.391-.211.813-.211 1.27s.063.871.195 1.258.344.719.605.996a2.83 2.83 0 001.004.641c.398.148.852.223 1.359.223a3.8 3.8 0 001.352-.223c.391-.141.727-.355.996-.633.273-.285.469-.609.605-.988s.203-.809.203-1.266c0-.629-.125-1.172-.371-1.645a2.53 2.53 0 00-1.09-1.07l-.086-.043-.094-.039-.102-.047-.094-.043-.102-.031-.102-.023-.109-.039-.098-.023-.109-.016-.113-.02-.117-.02-.113-.008-.113-.02h-.121l-.129-.004zm9.16 0a.73.73 0 00-.418.109.666.666 0 00-.285.305c-.055.109-.066.266-.066.465v4.625c0 .227.051.402.168.52.109.121.266.176.445.176s.328-.055.445-.176.168-.285.168-.52v-3.523l2.469 3.504.207.277c.074.094.148.176.23.242s.172.117.262.148a1.1 1.1 0 00.316.047c.469 0 .707-.258.707-.789v-4.715c0-.238-.055-.418-.164-.531s-.254-.164-.441-.164c-.18 0-.324.051-.43.164s-.164.293-.164.531v3.566l-2.523-3.539-.207-.301-.195-.238a.75.75 0 00-.223-.133.77.77 0 00-.301-.051zm-48.969.098a1.14 1.14 0 00-.32.074.529.529 0 00-.266.242c-.062.109-.086.254-.086.43v4.508c0 .258.063.453.188.57s.34.176.621.176h3.566c.199 0 .348-.051.457-.137s.152-.199.152-.34a.426.426 0 00-.152-.352c-.109-.082-.258-.125-.457-.125h-3.055v-1.719h2.711c.207 0 .359-.043.449-.121a.43.43 0 00.141-.336c0-.141-.039-.25-.141-.336s-.25-.125-.449-.125h-2.711v-1.477h2.945c.219 0 .355-.043.465-.125a.446.446 0 000-.68c-.109-.09-.246-.129-.465-.129H70.57c-.047 0-.094-.004-.137 0zm10.215 0c-.289 0-.492.059-.617.176s-.191.305-.191.57v4.617c0 .246.059.426.176.551s.277.188.484.188c.191 0 .355-.055.473-.176.125-.125.18-.309.18-.562v-1.93h.457c.227 0 .426.027.582.09s.297.16.449.316a4.97 4.97 0 01.512.676l.52.816.289.434a1.15 1.15 0 00.254.242.686.686 0 00.379.094.76.76 0 00.328-.066.52.52 0 00.215-.184.39.39 0 00.082-.234c0-.082-.047-.219-.137-.422s-.227-.426-.391-.68-.348-.492-.562-.719a2.534 2.534 0 00-.66-.512c.551-.109.953-.293 1.223-.566.281-.262.41-.625.41-1.066 0-.219-.039-.43-.121-.621a1.34 1.34 0 00-.348-.512 1.497 1.497 0 00-.547-.344 2.2 2.2 0 00-.559-.145l-.746-.031zm29.594.855c.371 0 .695.086.977.254.289.156.5.398.645.727l.027.055.027.074.027.063.027.059.02.07.02.059.016.086.012.063.012.07.016.078.008.078.004.078.016.07v.086l.008.07v.09c0 .477-.086.879-.258 1.207a1.69 1.69 0 01-.66.719 1.91 1.91 0 01-.926.234 1.83 1.83 0 01-.723-.137 1.745 1.745 0 01-.578-.406c-.164-.176-.301-.41-.391-.687s-.141-.586-.141-.93c0-.332.051-.645.141-.926.09-.266.223-.488.383-.664s.352-.312.566-.41c.227-.09.465-.129.727-.129zm-29.09.051h1.211c.445 0 .75.031.902.086a.83.83 0 01.379.289c.09.125.141.273.141.441 0 .219-.059.391-.176.504-.109.133-.281.207-.496.262a3.68 3.68 0 01-.789.082h-1.172zm0 0" fill="#999"/><path d="M25.953 57.266v1.008h99.824v-1.008zm0 11.93v1.012h99.824v-1.012zM.59 55.484v5.887c3.234-1.266 7.555-2.531 12.988-3.812a178.703 178.703 0 0110.105-2.074zm23.922 1.258c-3.152.438-5.98.957-8.469 1.539-2.848.672-5.141 1.352-6.875 2.043-1.738.676-2.543 1.227-2.43 1.645.102.375.828.547 2.184.508.699-.004 1.828-.078 3.395-.207l6.074-.566a152.19 152.19 0 016.121-.488zm-7.004 7.461c-.695.008-1.656.059-2.887.145l-4.59.387-7.078.656-2.363.148v4.77c3.727-.508 7.098-1.121 10.102-1.824 2.953-.695 5.223-1.371 6.816-2.027s2.344-1.207 2.219-1.66c-.102-.387-.852-.582-2.219-.594zm7.004 1.676c-3.273 1.203-7.336 2.383-12.195 3.523C7.797 70.465 3.891 71.23.59 71.699v.039h23.922zm-22.922 1c.012-.004.02 0 .031 0 .063 0 .129.02.172.066.063.059.078.16.043.238a.243.243 0 01-.254.125c-.117-.016-.207-.121-.195-.23.004-.102.094-.187.203-.199zm.848 0c.051 0 .102.012.141.051.078.055.105.16.07.242a.232.232 0 01-.23.145.244.244 0 01-.203-.125.217.217 0 01.094-.281.28.28 0 01.129-.031zm-.816 1.406a.23.23 0 01.223.152.216.216 0 01-.121.258c-.098.051-.23.02-.293-.07s-.059-.215.031-.285a.236.236 0 01.16-.055zm.816 0a.22.22 0 01.191.102.202.202 0 01-.059.285c-.094.07-.246.059-.32-.031a.22.22 0 01.023-.312.288.288 0 01.164-.043zm0 0" fill="#809CC8"/></svg>
