<svg xmlns="http://www.w3.org/2000/svg" viewBox="0 0 128 128"><path d="M59.016 13.328c-.239.024-1 .113-1.688.176-9.777 1.023-19.406 5.164-27.258 11.738-1.449 1.203-4.75 4.504-5.953 5.953-6.5 7.766-10.3 16.48-11.703 26.793-.312 2.29-.312 10.016 0 12.305 1.402 10.312 5.203 19.027 11.703 26.793 1.203 1.45 4.504 4.75 5.953 5.953 7.766 6.5 16.48 10.3 26.793 11.703 2.29.313 10.016.313 12.305 0 10.312-1.402 19.027-5.203 26.793-11.703 1.45-1.203 4.75-4.504 5.953-5.953 6.5-7.766 10.3-16.48 11.7-26.793.316-2.29.316-10.016 0-12.305-1.4-10.312-5.2-19.027-11.7-26.793-1.203-1.449-4.504-4.75-5.953-5.953-7.738-6.476-16.543-10.324-26.719-11.687-1.101-.153-2.699-.215-5.664-.239-2.262-.027-4.328-.011-4.562.012zm.625 5.402c0 1.461.097 4.637.238 7.653.074 1.472.16 3.586.2 4.687.136 3.903.55 14.14.612 15.055l.063.91-.563-.062c-.312-.024-.601-.098-.652-.137-.035-.05-.125-.914-.176-1.926-.222-4.45-.96-21.719-1.035-24.242l-.078-2.777.352-.047c.187-.028.5-.063.699-.078l.34-.012zm11.964-.3c.012.011.051 3.789.086 8.39.051 4.614.114 8.75.153 9.2.035.464.023.863-.04.89-.05.035-.363.035-.675 0l-.574-.05-.086-3.641a692.868 692.868 0 00-.14-4.961c-.099-2.215-.188-9.727-.11-9.914.047-.14.187-.153.71-.063.364.074.665.137.676.149zm-28.921 4.187c.078.113.664 7.004 1.39 16.016.239 3.066.473 5.867.512 6.215.062.636.05.664-.352.914-.222.136-.449.25-.5.25-.035 0-.109-.325-.148-.727-.176-1.625-.852-9.476-1.324-15.152-.278-3.34-.528-6.328-.563-6.653-.062-.55-.05-.601.274-.773.398-.215.625-.25.71-.09zm34.421 2.516c.352.125.387.187.465.898.125 1.25.086 7.227-.05 7.227-.364 0-1.114-.426-1.176-.664-.04-.149-.074-1.922-.074-3.938 0-4.062-.051-3.824.835-3.523zm-23.093.586c0 .336.09 2.199.187 4.164.102 1.96.215 4.449.266 5.527.086 2.176.11 2.098-.727 2.149-.414.011-.414.011-.437-.614-.024-.347-.086-1.437-.164-2.437-.063-1-.211-3.164-.313-4.813a117.11 117.11 0 00-.261-3.64c-.075-.625-.063-.649.273-.774.203-.074.55-.136.777-.136.399-.012.399-.012.399.574zm34.683 1.715l.426.171.09 1.676c.035.914.062 2.89.035 4.38l-.035 2.722-.527-.262-.524-.25-.039-4.152c-.023-2.285-.012-4.223.012-4.313.05-.187.05-.187.562.028zM65.867 29.07c.074.075.25 6.137.262 9.215l.012 1.852-.586-.09c-.34-.04-.614-.074-.625-.086-.04-.027-.414-9.29-.414-10.191v-.926l.636.074c.364.05.676.113.715.152zm28.793.887c.153.176.176 2.914.215 18.016.035 17.343.035 17.793-.188 17.793a.806.806 0 01-.44-.164c-.188-.137-.212-1.649-.274-16.465-.051-8.977-.114-17.13-.149-18.117l-.078-1.801.363.261c.215.153.454.364.551.477zM83.445 32.52c.063.05.125.761.137 1.578.063 2.761.074 19.703.012 19.754-.024.023-.25-.04-.5-.137l-.45-.188v-21.27l.352.075c.188.05.387.125.45.188zm-34.507.699c.035.34.097 1.101.136 1.726.04.614.125 2.016.2 3.102.152 2.2.124 2.34-.587 2.34-.374 0-.425-.04-.476-.414-.125-.739-.563-6.891-.5-6.989.062-.09.715-.312 1.012-.34.078-.011.175.25.215.575zm-20.68 3.191c.137 1.324.41 4.102.613 6.164.211 2.063.387 3.813.387 3.887 0 .152-.965.625-1.063.527-.062-.062-1.312-11.129-1.312-11.629 0-.3.96-1.562 1.086-1.425.039.023.164 1.136.289 2.476zm49.023 1.313l.364.21.011 2.704c.012 1.472.04 3.125.04 3.66.023 1.125-.114 1.312-.79 1.078l-.386-.14V44.16c0-.597-.04-2.336-.09-3.875l-.075-2.777h.29c.148 0 .437.101.636.215zm-43.535 4.851c.227 2.399.586 6.45.824 9l.426 4.63-.488.483-.473.489-.09-.989c-.05-.55-.3-3.097-.562-5.675a1449.23 1449.23 0 01-.824-8.301l-.352-3.602.488-.449c.438-.414.489-.426.575-.2.05.126.261 2.2.476 4.614zm-9.363 1.512c.273 2.465 1 9.016 1.625 14.555s1.21 10.875 1.324 11.875c.102 1 .273 2.515.375 3.379.176 1.46.176 1.562-.023 1.71-.301.227-.426.2-.426-.062 0-.113-.113-1.063-.25-2.086-.227-1.715-.602-4.617-1.438-11.129a740.832 740.832 0 01-.75-5.812c-.25-1.891-.613-4.703-.816-6.254-.2-1.551-.535-4.2-.75-5.914-.223-1.7-.36-3.211-.324-3.375.09-.336.824-1.512.902-1.438.023.035.273 2.074.55 4.55zm-3.828 5.387c.187 1.504.539 4.242.777 6.101.234 1.852.535 4.164.672 5.13l.238 1.75-.262.226c-.148.125-.3.172-.351.125-.047-.051-.149-.551-.223-1.102a995.27 995.27 0 00-1.039-7.129l-.887-6.125.286-.851c.152-.461.312-.836.351-.836.051 0 .238 1.226.438 2.71zm68.64-1.637c.176.176.203.95.203 6.691v6.489h-.351c-.762 0-.75.187-.8-6.914l-.036-6.465h.398c.211 0 .489.086.586.199zm-27.367 2.238c2.824.426 5.29 1.215 7.727 2.465 1.574.813 2.324 1.375 4.074 3.05 2.601 2.49 4.203 4.665 5.703 7.74 2.188 4.476 3.04 8.437 4.113 19.066.489 4.765 1.125 13.402 1.262 16.94.04 1.028.125 2.716.203 3.75.137 2.204.297 1.903-1.64 2.84-2.688 1.302-5.278 2.2-8.688 3.04-4.176 1.023-6.879 1.347-11.004 1.363l-3 .012.024-1.438c0-.789.074-2.625.152-4.062.375-6.965.297-15.754-.188-20.633-.277-2.8-.812-6.2-1.113-6.95-.062-.163.223-.3 1.461-.726 2.266-.789 4.227-1.777 4.527-2.261.54-.926-.425-2.254-1.652-2.254-.21 0-.848.226-1.437.488-2.801 1.289-8.414 2.8-11.653 3.14-2.238.239-5.715.098-8.125-.34-1.312-.238-3.664-1.124-5.629-2.136-2.261-1.176-3.648-2.738-4.062-4.59-.227-1-.164-3 .125-4.125.312-1.238 1.187-3.039 1.988-4.09 3.563-4.687 10.914-8.75 18.453-10.175 2.403-.45 5.801-.5 8.38-.114zm38.57.387c.45.187.5.238.5.664.028 3.414-.05 11.215-.113 11.54-.012.112-.66.124-.937.026-.172-.062-.2-.738-.2-6.254 0-3.949.051-6.175.125-6.175.063 0 .352.09.625.199zm5.465 6.867l.45.188-.086 10.351c-.102 13.192-.114 13.578-.59 14.715-.774 1.863-.735 2.238-.66-5.937.023-4.09.085-8.227.113-9.192.023-.96.047-3.676.062-6.039 0-2.852.035-4.273.125-4.273.075 0 .336.086.586.187zm-75.191 3.113c.074 1.012.047 1.11-.317 1.91l-.398.852-.148-1.25c-.239-2-.239-2.09.234-2.387.215-.152.441-.25.477-.226.039.023.113.523.152 1.101zm-7.73 7.54c.113 1.023.988 7.824 1.44 11.164.673 5.164.723 5.902.423 5.59-.035-.04-.325-1.778-.625-3.864-1.95-13.48-1.938-13.39-1.774-13.492.336-.227.45-.102.535.601zm9.003 5.726c.075.313.438 3.7.438 4.113 0 .348-.45.676-.649.473-.062-.063-.226-1.125-.351-2.348-.137-1.238-.274-2.527-.313-2.863l-.074-.625.438.5c.25.273.472.61.511.75zm10.09 4.711c.137.125.227.625.336 1.977.188 2.437.215 2.25-.297 2.25-.527 0-.515.039-.687-2.165-.176-2.238-.176-2.21.16-2.21.164 0 .375.074.488.148zm9.903.187c.023.125.085.875.136 1.665.04.789.153 2.562.25 3.937.352 5.05.364 5.691.153 5.691-.239 0-.266-.187-.54-3.753a274.195 274.195 0 00-.414-5.165c-.109-1.359-.187-2.5-.148-2.523.137-.152.5-.039.563.148zm-23.504 2.403c.074.113.546 4.113 1.136 9.578.176 1.648.348 3.238.387 3.535l.063.54-.313-.2c-.238-.164-.324-.324-.324-.613 0-.79-.54-5.977-.95-9.153-.238-1.8-.425-3.386-.425-3.539 0-.261.3-.363.426-.148zm72.152 5.226l-.086 5.227-.313.46c-.714 1.052-.675 1.25-.636-4.6l.023-5.364.461-.477c.25-.25.5-.46.55-.46.04 0 .04 2.351 0 5.214zm-11.563 8.29c.063 7.265.047 7.828-.152 8.05-.125.137-.238.227-.273.188-.09-.098-.215-15.942-.114-16.028.051-.05.176-.074.29-.062.16.035.199.926.25 7.851zm-40.835-4.977c.085.773.398 4.488.523 6.238.074 1.176.074 1.215-.2 1.3-.148.052-.324.04-.374-.022-.086-.09-.364-2.864-.7-7.141l-.09-1.024h.391c.36 0 .387.024.45.649zm-9.829 4.375c.086.09.149.402.149.715 0 .324.152 2.011.312 3.761.477 4.79.516 5.438.301 5.313-.324-.188-.613-.473-.55-.547.027-.05-.024-.676-.126-1.39a65.54 65.54 0 01-.25-2.626c-.047-.722-.16-2.05-.261-2.937-.239-2.188-.223-2.438.05-2.438a.59.59 0 01.375.149zm5.914 8.414c.04.277.114 1.3.164 2.277.086 1.875.047 2.012-.464 1.625-.149-.113-.25-.586-.399-2.011-.261-2.579-.277-2.477.211-2.426.363.035.414.086.488.535zm0 0"/><path d="M39.809 56.063c-1.301.562-1.399 2.328-.176 2.953.89.449 1.789.234 2.254-.54.875-1.425-.551-3.074-2.078-2.413zm8.476 1.203c-1.2.734-1.2 2.511 0 3.25 1.188.71 2.727-.227 2.727-1.653 0-1.375-1.575-2.3-2.727-1.597zm0 0"/></svg>
