<svg viewBox="0 0 128 128" xmlns="http://www.w3.org/2000/svg"><defs><linearGradient id="d" x1="53.496" x2="177.93" y1="247.7" y2="115.32" gradientTransform="matrix(.50472 0 0 .50472 -7.5636 -7.5439)" gradientUnits="userSpaceOnUse"><stop stop-color="#df1c84" offset="0"/><stop stop-color="#de1c85" offset=".401"/><stop stop-color="#932c86" offset=".77"/><stop stop-color="#5c2f87" offset="1"/></linearGradient><radialGradient id="f" cx="190.46" cy="80.2" r="121.58" gradientTransform="matrix(.50472 .0012063 -.0010094 .42204 -7.4829 -1.1415)" gradientUnits="userSpaceOnUse"><stop stop-color="#df1c84" offset="0"/><stop stop-color="#de1e85" offset=".139"/><stop stop-color="#d62085" offset=".285"/><stop stop-color="#c82286" offset=".434"/><stop stop-color="#b72786" offset=".586"/><stop stop-color="#9c2a86" offset=".739"/><stop stop-color="#7c2e87" offset=".891"/><stop stop-color="#5c2f87" offset="1"/></radialGradient><linearGradient id="e" x1="83.212" x2="137.37" y1="62.336" y2="62.336" gradientTransform="matrix(.50472 0 0 .50472 -7.5636 -7.5439)" gradientUnits="userSpaceOnUse"><stop stop-color="#df1c84" offset="0"/><stop stop-color="#d91e85" offset=".238"/><stop stop-color="#c72085" offset=".658"/><stop stop-color="#b42184" offset=".999"/></linearGradient></defs><path d="m7.375 80.934c-2.625-8.1758-3.3789-16.809-1.8672-25.691 0.65625-3.6836 1.668-7.2188 2.7773-10.801 0 0 6.9648-22.863 30.535-33.312 0 0 8.125-4.2891 20.34-4.5898 0 0-1.6641-1.6172-2.7266-2.3242-5.7539-3.8359-14.332-5.0977-19.531 0.30469-1.5664 1.6133-2.8789 3.3828-4.3398 4.9961-1.668 1.8164-3.6875 3.332-6.0078 4.1875-2.0195 0.75781-4.0391 0.60547-6.1055 0.96094-2.1211 0.35156-4.293 1.1094-6.0078 2.4727-1.8672 1.5156-2.625 3.5312-2.8242 5.8555-0.20313 1.8164-0.15234 3.6836-0.25391 5.5-0.25391 5.3516-1.9688 6.8633-5.8047 9.8438-1.6133 1.2109-2.9766 2.8242-3.9883 4.543-3.0273 5.3477 1.8203 10.898 2.0703 16.301 0.050781 1.1094-0.050781 2.2188-0.45312 3.2812-0.40625 1.1602-1.2109 1.918-1.8672 2.875-0.91016 1.2617-1.5156 2.7773-1.2617 4.3398 0.25 1.5664 1.0586 3.0312 1.8164 4.3945 1.4648 2.4219 3.2812 4.5898 5.1992 6.6602 0.10156 0 0.19922 0.10156 0.30078 0.20312" fill="#e32186"/><path d="m103.68 100.31c11.609-5.0469 16.555-13.777 16.555-13.777 10.852-14.789 7.168-30.383 7.168-30.383-6.9141 15.039-13.227 19.18-13.227 19.18 17.012-25.895 0.10156-41.539 0.10156-41.539 6.9141 14.738-2.2695 32.703-2.2695 32.703-7.7227 16.254-18.676 22.059-18.676 22.059 12.215 2.2695 21.199-5.957 21.199-5.957-17.516 18.926-36.492 18.02-36.492 18.02 7.9766 8.9336 19.938 8.1758 19.938 8.1758-15.645 3.6836-30.332-1.5156-42.395-11.559-2.2734-1.8672-4.4414-3.8867-6.4609-6.0547 0 0-1.8164-1.918-2.1719-2.4219l-0.050781-0.050781c-0.25 9.3359 9.4883 18.016 9.4883 18.016-12.215-5.0469-17.816-16-17.816-16s-8.2266-14.031-2.2695-30.027c5.9531-16 23.973-19.434 23.973-19.434 14.891 7.2188 27.508 9.4883 27.508 9.4883 26.598 4.4414 25.086-8.5781 25.086-8.5781 0.25-11.207-16.656-23.117-16.656-23.117-30.133-22.359-57.387-7.9258-57.387-7.9258-23.57 10.449-30.535 33.312-30.535 33.312-1.1094 3.582-2.1211 7.1172-2.7773 10.801-2.5742 14.992 1.3125 29.172 9.7422 41.793 13.121 19.582 34.422 26.344 34.422 26.344 31.543 10.699 53.094-5.0469 53.094-5.0469 19.836-13.629 23.824-29.375 23.824-29.375-16 12.52-22.914 11.355-22.914 11.355zm-24.629-73.637c1.5117 0 2.7227 1.2109 2.7227 2.7266 0 1.5117-1.2109 2.7227-2.7227 2.7227-1.5156 0-2.7266-1.2109-2.7266-2.7227 0-1.5156 1.2109-2.7266 2.7266-2.7266z" fill="url(#d)"/><path d="m112.81 42.121c0.25-11.207-16.656-23.117-16.656-23.117-30.133-22.309-57.387-7.875-57.387-7.875-23.57 10.449-30.535 33.312-30.535 33.312-1.3633 3.8867-2.5742 9.8438-2.5742 9.8438-1.4648 7.4688-0.80859 14.383-0.80859 14.383 0.60547 6.6133 2.0703 11.055 2.0703 11.055 1.5156 4.7422 2.2188 6.207 2.2188 6.207-0.046875-0.15234-0.30078-1.2617-0.30078-1.2617s-2.1211-10.195-0.15234-19.988c0 0 1.7148-10.195 8.6836-18.066 0 0 11.305-16.102 32.352-9.793 0 0 4.543 1.6172 6.1055 2.4219 1.5664 0.75781 4.2891 1.918 4.2891 1.918 14.891 7.2188 27.508 9.4883 27.508 9.4883 26.699 4.4922 25.188-8.5273 25.188-8.5273zm-33.766-9.9453c-1.5156 0-2.7266-1.2109-2.7266-2.7227 0-1.5156 1.2109-2.7266 2.7266-2.7266 1.5117 0 2.7227 1.2109 2.7227 2.7266 0 1.5117-1.2109 2.7227-2.7227 2.7227z" fill="url(#f)"/><path d="m61.785 21.832-17.211-5.3516c-0.10156 0-0.60547-0.25391-1.5156 0 0 0-10.145 2.5742-8.3789 8.125 0 0 1.0625 3.4844 3.9375 6.8633l18.926-0.90625z" fill="url(#e)"/></svg>
