<svg xmlns="http://www.w3.org/2000/svg" viewBox="0 0 128 128"><g data-name="composer-line"><g data-name="layer101"><path d="M68.79 127.38a28.6 28.6 0 00-4.46-2.53 3.79 3.79 0 00-1-.3c-.3 0-1.88-.34-3.52-.69-3.57-.75-9.12-1.87-12.76-2.56-3.94-.75-5.29-.84-14.24-1-6.84-.08-7.61-.1-7.82-.28s-.15-.52.08-.56 3.9-.44 7.33-.8c.72-.08 2.6-.11 5.63-.1a46.87 46.87 0 017.26.29c1.49.17 3.26.35 3.93.41a11.89 11.89 0 011.37.19c.14 0 .15 0 .1-.24a1.17 1.17 0 00-.24-.5 7.23 7.23 0 00-2.59-1.15c-.62-.17-2.18-.61-3.47-1-4.65-1.34-10.37-2.8-12.24-3.11-1.13-.19-3.33-.46-3.79-.46-.14 0-.24 0-.23.08s1.07.9 2.33 1.9 2.32 1.85 2.33 1.91-.43.08-1-.19c-.34-.15-1.16-.58-1.83-1a42 42 0 00-4.95-2.47c-.91-.33-1.12-.52-1-.94l.07-.25h1.8c1 0 2.43 0 3.2.1 1.77.12 4.63.35 5.05.41l5.05.93a1.34 1.34 0 00.47 0 1.86 1.86 0 000-1 7.8 7.8 0 00-1-.83c-.84-.65-.86-.68-.83-1a5.15 5.15 0 01.36-1c.29-.63.32-.74.21-.9s-2.29-1.78-4.93-3.73-6-4.4-7.39-5.46L23 97.42a1.29 1.29 0 01-.7-1.29 2.26 2.26 0 00-.6-1.55 9.72 9.72 0 00-1.89-.79A8.45 8.45 0 0118 93c-.18-.22-.21-1.2-.08-3.33 0-.65 0-2.31-.06-3.88-.12-3.14-.25-7.37-.38-13.45-.09-3.73-.08-4.25 0-4.55a1.31 1.31 0 000-1c-.06-.1-.4-.59-.77-1.09a7.86 7.86 0 01-.71-1.14 20.72 20.72 0 01.33-2.37 10.23 10.23 0 00.31-2.25 28.41 28.41 0 00-3.39-.58.76.76 0 01-.51-.21 2.29 2.29 0 010-.78c0-.35.28-2.93.53-5.73.54-6 .52-5.83.69-5.89s5.11 1.17 5.56 1.34c.21.08.28-.11.52-1.31a21.8 21.8 0 01.81-3c.22-.58.21-.62-.42-2-.27-.6-.78-1.75-1.13-2.58s-.67-1.52-.7-1.56-.21 0-.38.1c-.89.57-1 .57-1.21-.05-.08-.23-.27-.69-.4-1-.42-.91-.37-1 .53-1.49.25-.12.47-.29.47-.35s-.39-1.27-.86-2.68a145.27 145.27 0 01-4.43-15.77c-.32-1.85-.33-2.21-.1-3.07a3 3 0 01.29-.83 2.09 2.09 0 011.49.16c.82.41 1.17.92 3.9 5.7 1.1 1.95 2.1 3.52 2.1 3.51a33.72 33.72 0 002.45-3.66A39.14 39.14 0 0125.37 14c1-1.33 1.16-1.46 1.88-1.7l.57-.19.68.42a5.59 5.59 0 01.91.69l.47.43.84-.23c1.4-.38 4.72-1.51 6.33-2.14a56.16 56.16 0 005.28-2.43 15.37 15.37 0 011.82-.83c.72-.13 1.21.44 1.11 1.26a3.71 3.71 0 01-.64 1.59c-.25.37-2.93 2.9-4.37 4.13a7.08 7.08 0 00-1 1 28.1 28.1 0 001.51 4.93c.14.33.32.6.39.6s3.39-2 7.41-4.53c11.66-7.29 13.11-8.18 13.31-8.18a2.11 2.11 0 01.93 1c0 .12-1.44 1.06-10.55 7-1.51 1-2.81 1.83-2.88 1.9s-.09.13.22.13a1.91 1.91 0 011.63.76 2.56 2.56 0 011 1.94c0 .82-.21 1.16-1.16 2-.47.41-1.53 1.48-2.37 2.38a17.46 17.46 0 00-2.33 2.88 50.76 50.76 0 00-3 5.37c-2 4-2.52 5-3.12 5.59A13.2 13.2 0 0136.69 42a6.75 6.75 0 00-1.23.75 1.11 1.11 0 00-.16.69 2.24 2.24 0 01-.74 1.63c-.52.53-.69 1-1.34 3.6-.56 2.24-.61 2.54-.42 2.69s1.67.49 3.57 1 3.54.91 3.63 1a.29.29 0 01.17.23c0 .09-.23.94-.5 1.92-.69 2.48-1 3.6-1.35 5.42-.19.86-.38 1.65-.42 1.74s-.17.17-1 .1a9.6 9.6 0 01-1.12-.1c-.22-.06-.21.12.11 2.17s.31 2.16.4 2.16a5.8 5.8 0 00.58-1 31.23 31.23 0 015-7.56c1.28-1.43 4.54-4.7 5.28-5.31a34.93 34.93 0 015.5-3.36c.23-.09.7-.34 1.07-.54a11.6 11.6 0 013.4-1.23 23 23 0 017.82-.11 16.52 16.52 0 017.19 3.34 6.53 6.53 0 012.08 2.14 6.24 6.24 0 00.78 1c.1.07.38 0 1-.11a12.38 12.38 0 015.63 0 8.07 8.07 0 013.48 1.48 12.86 12.86 0 014.18 3.59c2.6 3.16 3.62 4.78 4.35 6.92.16.48.32.8.34.72.2-.53.6-1.77.6-1.88a14.71 14.71 0 00-.94-1.68c-.51-.84-.95-1.62-1-1.73s.13-.47.63-1.26c.38-.59.81-1.23 1-1.42s.27-.35.12-.65-.19-.31-.24-.31a3.77 3.77 0 00-.63.27c-.64.32-1 .34-1.24.07-.1-.11-1.49-2.58-3.1-5.47-2.32-4.18-2.89-5.29-2.81-5.41s1.42-.59 5.12-1.69a13.86 13.86 0 002.14-.74c.15-.15.13-.25-.44-2.18-.89-3-.72-2.74-1.69-3.19s-1.32-.81-1.54-1.59a1.49 1.49 0 00-.26-.6 12.33 12.33 0 00-2.12-.75 17.33 17.33 0 01-1.76-.64A26 26 0 0180 32.46a5.68 5.68 0 00-2.21-1.36A51.8 51.8 0 0071 28.75a13.55 13.55 0 01-1.32-.42c-.57-.29-.65-.75-.33-1.84a2 2 0 01.57-1c.46-.46.76-.56 3.11-1.09a28.22 28.22 0 014.94-.82c1.27-.06 1.25-.05.82-.83s-.78-1.16-3-3.34a44.38 44.38 0 00-6.4-5.41c-1-.72-1.42-1.15-1.59-1.74a1.85 1.85 0 011-2.18 3 3 0 011.63-.39c1.18 0 1.63.27 5.08 2.55 3.89 2.57 4 2.63 4 2.6s-1.67-1.71-3.77-3.77C71 6.35 71.32 6.71 71 6a2.85 2.85 0 01-.32-1.51v-.94l.44-.44c.34-.34.51-.45.72-.45.45 0 .67-.25.74-.86A1.62 1.62 0 0173.73.24a14.11 14.11 0 013.63.35c.5.15 3.38 1.66 5.23 2.71a54.41 54.41 0 019 6.46c.57.54.75.67.7.5-.14-.49-1.63-4.1-2.33-5.63-1-2.16-1-2.79-.32-3.8a1.42 1.42 0 011.5-.64 3.73 3.73 0 012.37 1.22 54.12 54.12 0 015 8.2c2.63 4.91 3.81 9 4.56 15.93a11.05 11.05 0 010 4.19 2.34 2.34 0 00-.15 1.06c.09.68 2.39 7.05 3.31 9.17.43 1 .58 1.23.78 1.23s1.89-.53 4-1.18c5.08-1.57 4.77-1.48 4.89-1.36s-.69 10.88-.84 11.23-.22.29-2.1 1c-.54.19-1 .37-1.06.4a3.29 3.29 0 00.66.88 36.78 36.78 0 012.47 3c.17.34.11.54-.3 1s-.36.45 0 1.52a3.36 3.36 0 01.18 1.8c0 .62-.08 1.4-.11 1.73a5.71 5.71 0 00.48 2.49 4.39 4.39 0 01-.1 2.92 29.89 29.89 0 01-1.88 5c-.93 2.08-1.2 2.73-2.25 5.4a26.66 26.66 0 00-2 7.13c-.2 1.14-.55 2.82-.77 3.73a28.44 28.44 0 00-.63 3.57 20.1 20.1 0 01-.67 3.85c-.09.26-.6 1.47-1.13 2.67a17.81 17.81 0 00-1 2.71c0 .28-.13 1.29-.19 2.24a5.7 5.7 0 000 1.85 8.32 8.32 0 002.47-.37l2.43-.47c.22 0 0 .29-.63.74a22.48 22.48 0 00-3.1 2.83c-2.11 2.28-2.69 2.83-2.69 2.48a20.52 20.52 0 011.49-2.75l.61-.94c.12-.19.05-.16-6 2.44-5.58 2.39-8.75 3.87-12.55 5.86-1.61.85-1.92 1-1.92 1.21 0 .34.27 2.77.32 2.81s1.3-.59 2.85-1.36c3.51-1.75 9-4.25 11.39-5.18 1.83-.71 8.42-2.91 9.25-3.09a8.31 8.31 0 012-.25 13.72 13.72 0 01-2.42 1.53c-.21.06-.34.13-.28.17s-.32.38-.94.84-1.07.83-1.1.88a.26.26 0 01-.19.08c-.12 0-.12 0 0-.14a.39.39 0 01.23-.13c.08 0 .13 0 .13-.08a2.42 2.42 0 01.48-.56c.27-.28.35-.4.2-.29a5.31 5.31 0 00-.6.53 4.36 4.36 0 01-.58.53c-.15.1-.2.18-.14.22s0 .13-.08.24-.21.15-.28 0-.09-.12-.05 0-.14.32-.37.57-.37.42-.31.42.61-.1 1.22-.21 1.66-.29 2.36-.37c2.59-.29 3-.31 3-.16a9.24 9.24 0 01-1.56.46A177.28 177.28 0 0085.11 121c-3.09 1.33-6.6 3.16-6.55 3.42 0 .08 0 .14-.06.14a9.38 9.38 0 00-1.5 1.13 8.23 8.23 0 01-.94.69c-.33.19-.83.51-1.13.71a3.06 3.06 0 01-.66.35 2.52 2.52 0 00-.45.18 3 3 0 01-1.44.17c-.81 0-1.09 0-1-.11a12.63 12.63 0 011.54-1.78 3.92 3.92 0 011.34-.89 12.53 12.53 0 001.2-.56c.54-.31 5.27-3.18 5.52-3.36s-.07-.2-1.46-.76-1.65-.64-1.78-.54a45.5 45.5 0 00-3.93 3.53c-.89.88-2 1.94-2.49 2.33-.89.73-1 .88-1 1.41a1.4 1.4 0 01-.09.51c-.07.21-.12.23-.51.22a1.15 1.15 0 01-.89-.44zm2-4.07c.91-.83 2.58-2.21 4.18-3.46.53-.41.94-.78.89-.82a15.17 15.17 0 00-1.42-.61l-2.34-1-1-.41-.52.19a2.84 2.84 0 01-1.5.13c-.54 0-1.14-.08-1.34-.11s-.55 0-1.54.45c-.64.26-2.21.86-3.48 1.32s-2.32.87-2.32.89a5.75 5.75 0 001.18.4 43.24 43.24 0 017.52 3.43 2.91 2.91 0 00.68.33 4.5 4.5 0 001-.77zm-8.12-.54c0-.07 0-.13-.09-.13s-.09.06-.09.13 0 .14.09.14.13-.06.13-.14zM61 122c-.62-.31-1.36-.66-1.65-.77-.5-.19-.53-.19-.91 0-.83.32-.77.35 1.4.89 1.11.27 2.08.5 2.15.5A5.61 5.61 0 0061 122zm-5.59-.67a2.5 2.5 0 01.69-.73 22.27 22.27 0 013.18-2c.37-.16 1.23-.57 1.9-.9a16.61 16.61 0 013.69-1.45c.47-.11.92-.22 1-.25.27-.09-.53-.2-1.81-.26a12.91 12.91 0 00-2.84.16 12.76 12.76 0 01-2.54.15c-1.06-.06-1.38-.15-1.34-.4s.26-.21 1-.4a25.12 25.12 0 014.49-.81c.7 0 .77-.43.07-.44a14.12 14.12 0 01-3-1.5 9.48 9.48 0 01-2.67-2.82 13.17 13.17 0 00-1.76-2.38c-.09 0-.16.07-.27.45s-.33 1-.56 1.61a4.13 4.13 0 00-.42 1.76 2.25 2.25 0 00.2 1.11c.36.81.32.91-.85 2.24l-1.06 1.19.06.65a1.79 1.79 0 00.46 1.29c.12.1.14.38.14 1.76 0 1.87 0 2 .71 2.16 1 .33 1.16.3 1.46-.21zm27.1-2.07a2.27 2.27 0 001.12-1.28 1.74 1.74 0 00-.2-1.42 2.22 2.22 0 01-.17-1.6 4.2 4.2 0 01.42-.94 2.77 2.77 0 00.31-.6c0-.16-2-5-2.08-5.12s-.35.15-1.06 1.15a17.2 17.2 0 01-2.49 2.71 16.85 16.85 0 01-1.72 1 9 9 0 00-2 1.12 6.23 6.23 0 00.88.09 17.11 17.11 0 015.1 1c.84.36 1.09.55 1.21 1s.11 1.1 0 1.1-.79-.23-1.62-.5-2.65-.77-4-1.12c-3.2-.78-3.18-.78-3.32-.6a.59.59 0 000 .75c.1.07 1.44.53 3 1a23.64 23.64 0 015.22 2.12 3 3 0 00.81.38 1.82 1.82 0 00.65-.26zm-31.72-3.35c.28-1 .28-1 .79-1.32 1.11-.72 1.27-.91 1.36-1.6a10.14 10.14 0 00-.43-2.73c-.29-1-.17-1.46.63-2.8s.88-1.68.65-2.09a13 13 0 00-1.34-1.48 6.81 6.81 0 00-2.3-1.78c-1.57-.83-1.59-.84-1.66-.65a10.41 10.41 0 01-.58.88 2.79 2.79 0 00-.47.79s0 .11-.15.16-.16.14-.13.19 0 .08 0 .08-.11.07-.14.17a.58.58 0 01-.27.27.91.91 0 00-.35.39 16 16 0 01-2.31 2.55c-.18 0-.16-.39 0-1.53l.24-1.33c.06-.33.12-1.28.17-2.22a16.37 16.37 0 00-.38-5l-.21-.67-1.35-.66c-.75-.37-1.37-.7-1.4-.73a6.09 6.09 0 00-.5-.4 11.94 11.94 0 01-1.29-1.19c-.54-.58-.82-.81-.82-.7a.46.46 0 00.11.28c.06.08.07.1 0 .08s0 1 .21 1.51a1.44 1.44 0 00.54.72c.43.32.48.46.17.61-.69.3-2.71-1.32-4-3.22a5.11 5.11 0 01-1.11-3c-.24-1.46-.25-1.55-.32-2.12a4.52 4.52 0 00-.09-.63 16.93 16.93 0 010-4.73l.06-.36-.34.31A15.26 15.26 0 0032 84.59c-.25.42-.55.93-.69 1.13a16.92 16.92 0 00-.95 1.66 24.64 24.64 0 01-1.47 2.89c-.11 0-.11 0 0-2 .14-2.6.14-2.6.53-3.58a12.78 12.78 0 00.46-1.36 3.09 3.09 0 01.23-.69 2.75 2.75 0 00.22-.65 19.73 19.73 0 011.15-3c.39-.82.95-2.06 1.34-2.93A14.79 14.79 0 0135 72.31c.19-.25.19-.29.09-1a21.2 21.2 0 00-.46-2.69 1 1 0 01-.08-.41c0-.2-.12-.93-.24-1.62s-.34-1.91-.47-2.71a8.48 8.48 0 00-.35-1.56 1.8 1.8 0 00-.73-.19l-.93-.13-.72-.11a3.27 3.27 0 01-.52-.09 19.05 19.05 0 00-1.92-.27 7.15 7.15 0 01-1-.15l-.59-.1c-1.19-.15-2.67-.34-3-.42s-.64-.1-1-.13l-.85-.1-.64-.09c-.22 0-.5-.06-.63-.09-.31-.05-1.35-.16-1.62-.16s-.24.05-.37.48c-.08.27-.26 1-.4 1.64-.27 1.29-.25 1.54.16 2.14.84 1.26.95 1.78.95 4.61 0 1.22.07 3.51.15 5.09s.16 3.46.19 4.15.07 1.43.09 1.62.05 1.08.08 1.94c.07 1.82.12 2.72.2 3.33a2.82 2.82 0 01-.05.78 7.33 7.33 0 00-.14.84l-.09.63a9.75 9.75 0 01-.33 1.56 4.14 4.14 0 00-.08 1.9l.12.42 1 .49c.56.27 1 .48 1.07.48a10.38 10.38 0 001.41-1.2c.55-.55.85-.71 1.08-.59s.2.34-.19 1.18a14 14 0 00-.6 1.56l-.24.81.57.84a5.06 5.06 0 00.67.89c.07 0 .14.14.17.24a5 5 0 001.71 1.59c.43.3.81.54.83.54s.31.21.67.45a3.13 3.13 0 00.74.45 1 1 0 01.39.28 4.43 4.43 0 00.9.57c.32.2.75.48.95.63s.5.37.67.48a6.12 6.12 0 01.9.68c.09.07.56.44 1.08.81s1.12.82 1.34 1l1 .72c.32.22.7.52.86.66a8.68 8.68 0 00.91.67 7.44 7.44 0 01.72.5 3.77 3.77 0 00.59.45 7.83 7.83 0 011.55 1.24 2 2 0 01.17 1.51 8.91 8.91 0 00-.14 1.1 1.27 1.27 0 00.4 1.21 1.88 1.88 0 01.54 1.42c0 1 0 1 1.44 1.33 1.07.24 1.5.35 2.3.56l1.22.32a7.69 7.69 0 01.77.2c.1 0 .66.25 1.26.46l1.49.53a1.53 1.53 0 00.49.15 2.22 2.22 0 00.3-.78zm20.49-.2c.51-.25.2-1.15-.35-1-.13 0-.9.08-1.7.11-1.55 0-1.72.1-1.61.47s.35.38 1 .52a7.88 7.88 0 002.62-.09zm-3.38-2.36c.09 0 .68-.13 1.3-.23a22.83 22.83 0 003.79-.86c4-1.3 6.23-2.84 8.07-5.6a33.75 33.75 0 002.33-4.33 6.71 6.71 0 00.61-2.41 8.08 8.08 0 00-.91.32 6.91 6.91 0 01-1.3.37c-.42 0-.49 0-.71-.19-.41-.4-.29-.58.59-.87A10.72 10.72 0 0088.11 94a8.82 8.82 0 01.64-1.14 1.41 1.41 0 01.79-.21 3.14 3.14 0 002.87-1.52 9.77 9.77 0 001.4-2.65c.55-1.31.61-1.86.22-2a1.88 1.88 0 00-1.25 0c-.13.1-.18.25-.2.68a3.47 3.47 0 01-.2 1c-.1.22-.17.43-.14.46s0 .1-.12.17-.11.11 0 .07.12 0 0 .06a.66.66 0 00-.16.26.83.83 0 01-.22.3.53.53 0 00-.19.23c0 .12-.21.37-.28.3s-.1.25-.29.44l-.35.34-.06-.29a2.43 2.43 0 01.43-1.73 3 3 0 00.39-.93 2.75 2.75 0 00-1.33-1.57 3.72 3.72 0 00-1-.18 13.25 13.25 0 01-3.8-1.15 12.75 12.75 0 01-2.82-1.55l-1.49-1A37.13 37.13 0 0176.51 79 14.6 14.6 0 0174 75.6c-.16-.43-.26-.49-.35-.21 0 .1-.1.16-.15.14s0 0 0 .1v.09c0-.04-.09 0 0 .09s0 .13 0 .09-.09 0-.05.09 0 .13 0 .09-.09 0 0 .09 0 .13 0 .09-.09 0 0 .09 0 .13-.06.08-.1 0 0 0-.17.5-.27.4 0 0 0 .06-.43.85-.54.75c.1.21-1.1 1.44-2.23 2.27a10.08 10.08 0 01-5.42 1.72h-.51l.66-.56.89-.77c.12-.12.51-.44.85-.72a7.72 7.72 0 001.75-1.78s-.26 0-.58.24c-.82.49-3.32 1.77-4.28 2.17a21.72 21.72 0 01-3.92 1.18 92.23 92.23 0 01-9.78.9 8.73 8.73 0 00-3.11.42 18.75 18.75 0 00-6.79 3.34 1.52 1.52 0 00-.63 1.49 21.62 21.62 0 003.24 6.28 1.3 1.3 0 001 .65c.05 0 .08 0 .06.08s0 .07.14.08a7.73 7.73 0 012 .31 5.1 5.1 0 011 1.9s0 .07 0 0 .18.09.28.25a7.26 7.26 0 00.5.69 1.34 1.34 0 01.28.46s.06.16.18.26.22.18.22.15a15.33 15.33 0 011.57 1.22c.06 0 .59.39 1.18.77a14.71 14.71 0 012.75 2.14 2 2 0 00.5.41 10.07 10.07 0 011.51 1.63 12.63 12.63 0 00.89 1.13c.49.59 1.12 1.39 1.38 1.77a3 3 0 00.52.66s.28.4.64 1.22a4 4 0 001.5 1.69c.33.23.65.47.71.53a13.51 13.51 0 001.31.7 6.44 6.44 0 002.72.81 23.31 23.31 0 002.71-.08zm18.67-.51c.5-.22 1-.46 2-.92.37-.18.94-.42 1.26-.54.6-.23 1.56-.63 2.24-.94l1.09-.48c.37-.15 1-.42 1.31-.59a4.79 4.79 0 01.73-.31 8.77 8.77 0 001-.41l1.35-.63a9.37 9.37 0 01.9-.36 4 4 0 00.67-.3 9.24 9.24 0 011.71-.72 13.69 13.69 0 001.87-.75c.08-.06.11-.42.11-1.19 0-.6 0-1.48.09-2s.12-1.32.15-1.89a3.27 3.27 0 01.31-1.54c.13-.27.34-.72.45-1s.54-1.21 1-2.07a9.85 9.85 0 001.19-3.81 6.43 6.43 0 01.09-.72c0-.1.06-.43.09-.73a5.88 5.88 0 01.09-.75c0-.13.08-.53.13-.9s.11-.79.13-.92.06-.42.1-.67c.08-.61.54-2.9.81-4 0-.25.41-1.92.54-2.53.07-.32.22-.93.35-1.34a3.85 3.85 0 00.2-.81 17.93 17.93 0 011.61-4.55 28.92 28.92 0 001.17-2.72 4.26 4.26 0 01.34-.68 13.9 13.9 0 00.6-1.31 9.49 9.49 0 01.63-1.33 9 9 0 00.88-3.13c0-.12.1-.43.17-.69a1.7 1.7 0 000-1.23 22.65 22.65 0 00-4.26-2.28c-.65-.21-.94-.42-.79-.6a1.67 1.67 0 011.76-.29c.17.07.33.11.36.08a5.4 5.4 0 011 .27c.56.18 1 .32 1.09.32s.08-.08.08-.17a4.94 4.94 0 01.15-.74 1.77 1.77 0 00-.39-1.74 1.91 1.91 0 01-.41-1.11v-.28a2.24 2.24 0 01.33-.64 2.83 2.83 0 00.31-.52 36.87 36.87 0 00-3.37-3.36 1.33 1.33 0 00-1.13.09c-.42.22-2.67 1.13-3.48 1.4a19.61 19.61 0 00-1.91.72 1.58 1.58 0 01-.34.13c-.07 0-3.4 1.23-4.87 1.8l-1.23.45c-.49.16-.57.29-.45.76.21.85.17 1-.59 2.15-.38.56-.76 1.12-.86 1.24a.88.88 0 00-.16.47A8 8 0 0096.06 64a3.17 3.17 0 01.54 1c.24.75.28 1 .18.91s-.11.17-.1.49v.07c0-.03-.38.41-.69 1.34-.67 2.09-.85 3.27-.56 3.82a20.76 20.76 0 01.94 2.92 10.25 10.25 0 01.55 2.9c0 .58.16.87.46.87a3.64 3.64 0 01.73.21l1.38.52a8.43 8.43 0 011.29.59 4.49 4.49 0 00.63.36 4.25 4.25 0 01.64.47c.27.23.61.5.74.6a18.8 18.8 0 012.1 2.44c.55.78.47.89-.37.5a12.22 12.22 0 00-4-1.13l-2.89-.09c-2-.06-2.19-.06-2 .08a28.73 28.73 0 014 3.61c.22.28.47.58.54.66a14 14 0 011.1 1.68c.15.3.59 1.65.87 2.62a19.34 19.34 0 01.51 3c0 .64 0 .71-.09.68s-.48-.57-1-2a5.28 5.28 0 00-.43-.86 7.9 7.9 0 01-.46-.79 10.54 10.54 0 00-2.45-2.7c-.22-.13-.7-.45-1.07-.69a2.55 2.55 0 00-.76-.41c-.12 0-.26.73-.21 1.07v.21c0-.02-.09.23-.12.56s-.14 1-.24 1.46a31.78 31.78 0 00-.27 6.25c.06 1 .12 2 .14 2.15s.1.73.17 1.37a8.92 8.92 0 00.19 1.24 4.14 4.14 0 01.08.67 2.6 2.6 0 00.11.7c0 .06 0 0-.11 0a.56.56 0 01-.17-.32.15.15 0 00-.14-.15c-.07 0-.14 0-.15-.08s-.21-.27-.44-.54a4.92 4.92 0 01-1.17-2c-.11-.37-.27-.82-.34-1a5.62 5.62 0 01-.23-1.06c-.07-.41-.13-.83-.16-1s-.07-.83-.1-1.57a9.67 9.67 0 00-.1-1.38 1.91 1.91 0 00-.18.7c-.07.38-.2 1-.3 1.46s-.19.87-.21 1-.06.37-.09.54a29.39 29.39 0 000 4.87 24 24 0 00.8 3.92c.11.18.13.27 0 .34s-.5-.27-1.1-1.25c-.26-.44-.63-1-.81-1.3a8.81 8.81 0 01-.69-1.53c-.21-.57-.45-1.23-.55-1.49a4.87 4.87 0 01-.38-1.61 1.89 1.89 0 00-.08-.52 4.61 4.61 0 01-.14-.8 6.1 6.1 0 00-.11-.81 11.39 11.39 0 01-.07-1.46 6.28 6.28 0 00-.08-1.3s-.16 0-.29.15-.3.45-.06.26.14-.11 0 0-.16.13-.2.11-.33.38-.37.56-.08.13-.17.19a.36.36 0 00-.17.25 6.58 6.58 0 01-1.46 1.54 1.55 1.55 0 00-.46.58c-.1.44-1 2.93-1.17 3.33-.1.23-.34.79-.52 1.26s-.49 1.17-.67 1.54c-.36.74-.36.85 0 1.75a18.21 18.21 0 01.77 2.61.66.66 0 00.13.37 11.62 11.62 0 01.47 1.25 6 6 0 00.54 1.31 1.79 1.79 0 01.26.46.46.46 0 00.32.36 2.71 2.71 0 00.5-.19zM46.42 102.1a8.76 8.76 0 00.69-1.62 3.22 3.22 0 00-1-1.13c-.18-.1-.48.08-.53.32s-.09.87-.14 1.69-.13 1.64-.17 1.83-.08.33.2.33.3 0 1-1.42zM91 98.54a29.16 29.16 0 00.51-3 4 4 0 01.12-.8c.28-.74-.09-1-.88-.53s-.86.54-.78 1.66c.05.9.36 3.32.46 3.78 0 .19.08.16.28-.26a5.63 5.63 0 00.29-.84zm-53.36-12.8a5.18 5.18 0 012.2-2.6c1-.64 2.06-.9 5-1.21.72-.07 1.65-.17 2.07-.23s2-.19 3.56-.31a64.47 64.47 0 008-1c3.6-.72 5.25-1.46 9.24-4.16A15.45 15.45 0 0071.4 73a10 10 0 002.44-4.74 3.7 3.7 0 000-2.07 11.56 11.56 0 00-3.68-4.14 12.73 12.73 0 00-6.48-2.2 48.43 48.43 0 00-6.86.22 27.92 27.92 0 00-12.48 5.71 46 46 0 00-5 4.58c-1.54 1.55-1.65 1.7-3.64 4.88-.31.52-.81 1.3-1.1 1.76a7.09 7.09 0 00-1.09 2.2c-.08.31-.14.58-.14.61a9.26 9.26 0 001.45-1.09 12.92 12.92 0 013.37-1.88 28.35 28.35 0 018.84-2 47.88 47.88 0 007.39-1.13c5.88-1.29 7.93-2.19 11.12-4.9.59-.49.86-.68.94-.61a2.61 2.61 0 010 1 2.78 2.78 0 01-.29 1.38 5.8 5.8 0 01-1.35 1.7 29.07 29.07 0 01-6.05 3.17c-.71.29-3.49 1.22-4.28 1.44l-.82.23c-.22.07-.91.22-1.53.36l-2.79.59c-2.54.56-3.18.71-4.6 1-2.92.62-5 1.5-6.21 2.66a6.05 6.05 0 00-1.77 3.13 3.75 3.75 0 00.32 1.76 4.42 4.42 0 00.53-.92zm55.06-1.33c.55-.06 1.31-.15 1.67-.21l.67-.12-1-.52a6 6 0 00-4.63-.69 7.07 7.07 0 01-2.63.09 8 8 0 00-1.36-.07h-.81l1.22.62a4.2 4.2 0 002.12.7c.49 0 1.18.11 1.52.16a16.81 16.81 0 003.26 0zm-3.84-3.2a42.73 42.73 0 019.38 0l1.32.15a7.19 7.19 0 00-1.78-1.17 10.88 10.88 0 00-3-.56c-2.71-.36-5.54-.79-5.86-.91a5.39 5.39 0 00-.59-.13 9.73 9.73 0 01-4.15-1.75l-.54-.45c-1.38-1.12-5.08-4.39-6.33-5.59a9.75 9.75 0 01-1.77-2.23c-.21-.4-.52-.55-.71-.35a9.86 9.86 0 00-.66 2.08 7.11 7.11 0 00.17 3.33 6.47 6.47 0 002.09 2.77 17.39 17.39 0 004.64 3l1 .44a32.76 32.76 0 004.24 1.4 6.52 6.52 0 002.48 0zm-51.72-.62a15.13 15.13 0 016-2.7c.78-.15 1.21-.23 4.64-.84a51.51 51.51 0 007-1.56c.06 0 .52-.24 1.05-.45 1.07-.44 1.17-.5.72-.42l-2.3.37-2.52.4c-.3 0-1.94.25-3.66.46s-3.18.41-3.26.45a1.06 1.06 0 01-.43.08 13.75 13.75 0 00-4.43 1.16c-2.46 1.12-3.22 1.54-3.43 1.87a2.43 2.43 0 00-.22 1.44c.08.21.44.1.9-.26zm58.08-2.28a.87.87 0 00.36-.72c0-.09-.06-.28-.08-.4a3.58 3.58 0 00-.52-.82 9.78 9.78 0 01-.9-1.48 10.29 10.29 0 00-2.15-3.09 40.88 40.88 0 00-6-4.75c-.46-.2-1.28-.47-3.14-1a6 6 0 01-.94-.32 9.81 9.81 0 011.45.33l.77.21a30.89 30.89 0 017.29 3.23 1 1 0 00.91.09c.15-.1.18-.06-1-1.59l-.85-1.08-1.88-1.15a19.24 19.24 0 01-3.3-2.22 3.79 3.79 0 00-1.89-.92 12.94 12.94 0 00-4.29-.44 12.17 12.17 0 00-2.41.1.79.79 0 00-.42.66c0 .07 0 .14-.09.14s-.09.36-.09 1c0 1 0 1.5-.19 1.5a3 3 0 000 1.4 1.16 1.16 0 01.19.38c.12.38.36.67.36.46 0-.06.11.12.26.42.42.92 2.63 2.84 6.54 5.71.36.25.93.68 1.3.95A12.45 12.45 0 0087 76.23l1.8.69c2.47 1 5.7 1.66 6.41 1.39zm-56.91-9.73c-.06.26-.05.26.11.13l.43-.36c.48-.39 1.25-1.1 2.86-2.63a25 25 0 012.12-1.83l2.24-1.44a29.16 29.16 0 014.29-2.1 16.62 16.62 0 015-1.32l2.34-.42a19.21 19.21 0 016.67.1A12.72 12.72 0 0173 63.8c.77.92.93 1 1.14.91.5-.33.87-3.47.58-5a11.12 11.12 0 00-3.24-6.47 15.08 15.08 0 00-3.76-2.59c-3.82-2-6.1-2.12-10.86-.8a18 18 0 00-4.46 1.61 38.93 38.93 0 00-4.29 3.06s-.56.52-1.21 1.08-1.32 1.23-1.5 1.4c-.34.38-1.88 2.35-2.3 2.95-.14.22-.83 1.1-1.52 2-2.4 3-3.6 5.08-4.06 7-.07.27-.06.27.39-.18s.46-.44.4-.18zm52.41-4c-.34-.36-1.28-1.53-2.09-2.6a16.91 16.91 0 00-3.1-3.54c-.38-.3-.76-.62-.85-.71a11.31 11.31 0 00-2.48-1 8 8 0 01-1.44-.59 6.33 6.33 0 00-1.13-.49 6.25 6.25 0 00-2.51 0l-.83.17A1 1 0 0076 56c-.19.17-.19.33 0 1.42 0 .25.11 1.16.14 2 0 1.3.09 1.6.22 1.76s.19.2 3.08.2c4.09 0 4.66.12 7.47 1.54.82.42 1.77 1 2.11 1.17a10.61 10.61 0 002.2 1.11c.07 0-.15-.29-.47-.64zm-54-3.88a19.05 19.05 0 00.69-2.1c.32-1.09.7-2.37.85-2.84a4.36 4.36 0 00.22-1c0-.14-.46-.26-5.3-1.52-2.23-.57-7-1.83-10.66-2.8s-6.68-1.75-6.78-1.75a.33.33 0 00-.23.09c0 .06-.19 1.4-.36 3s-.37 3.55-.46 4.33c-.14 1.25-.15 1.44 0 1.55s2.49.46 8.42 1.27l10.69 1.48c2.75.4 2.83.4 2.95.25zm60.05-5.4l9.6-3.32c3.7-1.28 6.82-2.37 6.91-2.43.37-.2.39-.31.74-4.88.09-1.31.2-2.54.23-2.72s0-.34-.16-.34-5.73 1.61-12.47 3.59c-9.87 2.88-12.27 3.61-12.29 3.74a3.22 3.22 0 00.4 1c.94 1.66 3.4 6 3.52 6.22a.44.44 0 00.38.2c.14 0 1.56-.46 3.14-1zM31 50.85a.38.38 0 00.11-.26c0-.07.38-1.4.85-2.94l.85-2.82.45-.45a3 3 0 00.84-2 4.52 4.52 0 01.34-1.61 4.37 4.37 0 01.8-.48 13.35 13.35 0 003.81-2.81A13.86 13.86 0 0040.46 36a50.51 50.51 0 014.09-7.17 30.3 30.3 0 013.91-4.95 12.44 12.44 0 001.31-1.5c.52-1 .43-1.82-.26-2.24s-.83-.27-2.06.56a31.28 31.28 0 01-5 2.63c-2.61 1.16-3.18 1.51-3.58 2.18a1.75 1.75 0 01-.6.61 9 9 0 01-2.42.82 1.73 1.73 0 00-.55.1l-2.89 1.76c-3.85 2.41-5.91 3.69-8.2 5.1-1.86 1.14-2.13 1.31-2.57 1.59l-.92.58c-.33.21-.48.36-.48.49A46.62 46.62 0 0022.86 42a3.86 3.86 0 01.45 1 1 1 0 01-.23.49 10.4 10.4 0 00-1.31 3.14c-.15.61-.31 1.26-.37 1.45s-.08.37 0 .43a4.41 4.41 0 001 .3c1.72.4 7.84 2 8 2a.63.63 0 00.65 0zM98.16 44c1.06-.33 3-.89 4.21-1.26s2.38-.72 2.47-.77a.34.34 0 00.16-.27c0-.35-2.2-5.92-3.51-8.85a7.92 7.92 0 01-.55-1.54 4.21 4.21 0 01.26-1c.51-1.31.57-1.83.51-4.49a16.82 16.82 0 00-.33-3.74c-.14-.74-.4-1.88-.57-2.52l-.55-2.07c-.32-1.41-.6-2.1-2.28-5.75a49.39 49.39 0 00-3.68-6.59c-.4-.67-.82-1.38-.91-1.58a3.5 3.5 0 00-2.11-1.76c-.29 0-.62.46-.62.89a13.47 13.47 0 00.78 2.06c1.76 4.05 2 4.53 2.24 5.4a21 21 0 01.81 3.51c.06.47 0 .58-.12.77l-.18.22-.49-.54a2.15 2.15 0 00-2.57-.85 1 1 0 01-.77 0c-.55-.2-.55-.45 0-.82s.71-.64.39-1.11a9.71 9.71 0 00-2.87-2.81 60.83 60.83 0 00-9.7-5.77c-1.81-.91-2.12-1-2.52-1-.57 0-.81.21-.81.72 0 .29.08.43.44.84a6.53 6.53 0 001.84 1.23c.75.42 1.56.88 1.78 1 1.08.73 5.93 4.6 7.25 5.78A14 14 0 0188.59 14c0 .25-.39.48-.7.4a5.36 5.36 0 01-1.15-.93c-.62-.62-2.27-1.92-5.39-4.26-2.47-1.86-4.83-3.61-5.23-3.9a10.46 10.46 0 00-2.59-1.41c-.26 0-.69.47-.74.81-.1.64.56 1.52 2.07 2.82C76 8.52 84.58 18 84.94 18.68a1.25 1.25 0 01.11.61c0 .59-.38.49-2.6-.79-1.07-.61-2.21-1.28-2.56-1.47-1.08-.62-2.91-1.77-4.23-2.66l-2-1.36a19.49 19.49 0 00-3.19-1.64c-.27 0-.56.37-.56.71s.15.65.82 1.19c.32.26 1.31 1.1 2.2 1.87L76 17.82A29.43 29.43 0 0180.93 23c.36.46.49.56.85.65.55.13.77.09 1.8-.44a5.3 5.3 0 012.93-.71c.77 0 .86.05.86.2s-.23.31-.74.63c-.82.51-1.88 1.2-2.91 1.87-.63.4-.71.44-1.13.4a7 7 0 01-.94-.18c-1.19-.34-6 0-9.56.72a2.43 2.43 0 00-1.08.53 1.27 1.27 0 00-.16.47c-.07.55.18.79 1 .92.36.07 1.59.32 2.73.57s2.36.5 2.7.56c.56.1.8.23 2.12 1.07.82.53 2.18 1.45 3 2.05a10.52 10.52 0 003.7 2l3.56.83c1.06.22 1.34.48 2 1.88.5 1 .68 1.19 1.18 1.16s.57 0 .72.29 1.21 3.25 1.67 4.73c.21.69.4 1.29.42 1.33s.64 0 2.47-.53zm-72.4-13.57c3.49-2 6.56-3.68 6.83-3.82 1-.5 1-.37-.82-1.58-.9-.59-2-1.35-2.41-1.68a2.59 2.59 0 00-.84-.54 4 4 0 00-.21.78c-.16.8-.29 1-.58.9a1.82 1.82 0 01-.79-1.08c0-.1.26-.78.53-1.53.41-1.15.52-1.36.68-1.38s.43.19 1.08.81a17.3 17.3 0 004.49 3.24c1.23.59 1.84.55 2.71-.14l.27-.22-.17-.46c-.15-.42-.5-.8-3.17-3.46s-3.06-3.11-3.61-3.94c-1.1-1.71-1.45-2-2.2-2a1.25 1.25 0 00-1.12.8c-.12.24-.74 1.22-1.37 2.19s-1.43 2.21-1.75 2.73l-1.1 1.8a5.71 5.71 0 00-1.09 2.23 6 6 0 00.5 1.48c.61 1.41.8 2.1.6 2.22a.49.49 0 01-.24.08c-.23 0-1.49-2.16-3.6-6.2A51.22 51.22 0 0015.17 16c-.7-1.08-.8-1.17-1.1-1.06s-.33.35-.05 2c.42 2.54 1.32 5.64 3.94 13.73C19.05 34 19 34 19.26 34s3-1.6 6.5-3.57zm12.54-7a13.32 13.32 0 001.44-.91c.18-.14.14-.3-.63-2.45-.84-2.38-1-2.78-1.2-2.84s-1 .31-1.76.94A13.17 13.17 0 0135 19a1.66 1.66 0 00-.5.44 20.55 20.55 0 001.5 1.85c.85 1 1.63 1.87 1.73 2s.21.29.57.1zm-3.7-5.73a15 15 0 004-2.8c1.15-1 1.18-1 2-1.73 2.33-2 2.43-2.16 2.43-2.81 0-.4-.16-.7-.37-.7A3.2 3.2 0 0042 10c-.89.51-3.83 2.1-4.66 2.52-.67.33-5.27 2.2-6 2.44-.25.08-.31.14-.27.26a24.92 24.92 0 002.37 3S34 18 34.6 17.7z"/><path d="M39.66 94l-.26-.3.3.26c.27.25.33.33.26.33s-.14-.14-.3-.29zM61.62 109.55a2.51 2.51 0 01-.58-1.34 9.23 9.23 0 01.45-2.68 2.81 2.81 0 011.18-1.21 17.92 17.92 0 012.87-1 11.69 11.69 0 013.59-.28 3.88 3.88 0 012.71 1.72c.17.28.17.28-.06.38s-.32.07-.84-.18a7.09 7.09 0 00-2.53-.56l-1-.09-1.32.49a12 12 0 00-2.6 1.21 4.21 4.21 0 00-1 1.79c-.44 1.67-.58 1.93-.91 1.74zM65.7 101.81a3.35 3.35 0 01-.73-.34 2.43 2.43 0 00-1.6-.58 2.8 2.8 0 00-1.52.38 5.93 5.93 0 01-1.57.54 2.92 2.92 0 01-2-.42c-.14-.14-.23-.28-.2-.32a4.37 4.37 0 01.6-.51l.56-.43h.81a2.52 2.52 0 001.65-.45 2.31 2.31 0 011.49-.44 4.23 4.23 0 012.27.77c1 .64 1.48.64 2.24.06a1.51 1.51 0 01.67-.31c2.64-.28 3.56-.45 4.19-.76a2.35 2.35 0 01.42-.18c.18 0 .73.94.73 1.24s0 .32-.38.49a1.27 1.27 0 01-1.32 0c-.18-.16-.25-.17-.83-.07a20.67 20.67 0 00-3.3 1 2.8 2.8 0 01-2.18.24z"/><path d="M66.07 99.56a4.72 4.72 0 01-2-1.44c-.94-1-1.24-1.13-2-1.23-.26 0-.46-.11-.46-.17a3.53 3.53 0 011-1.3 2.73 2.73 0 00.65-.8c.21-.39.23-.53.22-1.51a8.16 8.16 0 00-.78-3.64 2.07 2.07 0 00-1.7-1.41l-3-.45c-1.41-.22-3-.44-3.51-.51a22.36 22.36 0 00-5.05.19l-1 .18c-.3 0 1.15-1.52 2.21-2.32l.51-.39 1.47.1c2.39.16 4.59.39 7.37.77a14.48 14.48 0 002.18.19c.87-.11 1.45-.58 2.31-1.93s.94-1.36 1.29-1c.17.17.19.26.15.66a6.1 6.1 0 01-.57 2 4.16 4.16 0 01-1.2 1.45l-.81.8.27.34a6.51 6.51 0 011 1.81 8.18 8.18 0 01.38 4.78c-.42 1.17-.47 1 .44 1.87.56.56.86.79 1 .79s.68-.31 1.44-1.22c1.19-1.44 2-2 2.72-2a.78.78 0 01.65.3c.38.38.33.52-.21.73s-1 .63-1.86 2.08c-.45.69-.92 1.41-1.07 1.59a2.17 2.17 0 01-2 .71zM43.72 92.63a3.78 3.78 0 01-.31-.54 2.69 2.69 0 00-1.19-1.24 3.29 3.29 0 01-1.37-1.37 2 2 0 01-.28-1.15c0-.7.13-1 .55-1.22.23-.12.25-.11.5.18a2.81 2.81 0 01.67 1.36 3.16 3.16 0 001 1.74 2 2 0 01.68 1.7c0 .5-.07.66-.24.54zM78.93 92a4.48 4.48 0 01-2.16-.68 3.1 3.1 0 00-1.08-.27 3.53 3.53 0 01-1.52-.47c-.83-.42-1.09-.72-1.09-1.24a3.65 3.65 0 00-.09-.64c-.1-.36-.19-.41-1.13-.67a5 5 0 01-2.13-1.24 4.49 4.49 0 01-1.25-3.61c0-.93.11-1.06.55-.64a2.42 2.42 0 01.7 1.43c.46 1.66.82 1.89 3.85 2.34l1.44.19c.3 0 .67.07.81.09a40.22 40.22 0 005 0l1.58-.14c.08 0 .41-.06.74-.09.55-.07.61 0 .79.14l.2.22-.48.21a41.34 41.34 0 01-4.49 1.45 7.66 7.66 0 01-3.52.09c-1.38-.25-1.48-.21-1.16.38a3.5 3.5 0 001.71 1.25 3.87 3.87 0 001.73.17 13.6 13.6 0 004-.56l1.44-.71a5.89 5.89 0 011.4-.61c.24 0 .2.06-.65.89A27.75 27.75 0 0181 91.9c-.45.3-.51.3-2.09.13z"/><path d="M54.4 91.67a3.12 3.12 0 01-.81-.37c-1.44-1-1.76-1.08-3.25-.72-.19.06-.31 0-.58-.25s-.35-.31-.18-.5a3.21 3.21 0 01.9-.44 6.35 6.35 0 013.17-.08 14.33 14.33 0 004.49 0c.69-.11 1.38-.19 1.52-.19a3.61 3.61 0 011.8.55c.38.36.28.49-.49.56-.36 0-.75.08-.87.1l-1 .13a3 3 0 00-1.62.59 3.69 3.69 0 01-3.07.64zM18.11 56.2a2.81 2.81 0 01-1-1.27 2.77 2.77 0 01.59-2.65 2.13 2.13 0 012.39 0 3.25 3.25 0 01.66 1.53 2.48 2.48 0 01-1 2.29 1.83 1.83 0 01-1.67.1zM111 46.62a1.77 1.77 0 01-.66-1.31 1.74 1.74 0 011.6-1.57 1.55 1.55 0 011 .44 2.15 2.15 0 01.2 1.41 2 2 0 01-.88 1.09 1.54 1.54 0 01-1.31-.06z"/></g></g></svg>