<svg xmlns="http://www.w3.org/2000/svg" xml:space="preserve" viewBox="0 0 128 128"><path fill="#ff6384" d="M28.637 103.357c.256.32.416.736.416 1.12 0 .993-.832 1.76-1.824 1.76-.48 0-.992-.191-1.376-.607-1.216-1.377-2.976-2.209-4.736-2.209-4.193 0-7.297 3.2-7.297 7.65 0 4.416 3.104 7.648 7.297 7.648 1.76 0 3.52-.768 4.736-2.176a2.02 2.02 0 0 1 1.408-.608c.992 0 1.76.8 1.76 1.728 0 .384-.128.8-.384 1.12-1.632 1.856-4.032 3.328-7.52 3.328-6.305 0-11.202-4.48-11.202-11.04 0-6.562 4.897-11.042 11.202-11.042 3.488 0 5.888 1.472 7.52 3.328zM44.8 121.92a1.687 1.687 0 0 1-1.696-1.696v-8.193c0-2.368-1.248-3.104-3.136-3.104-1.665 0-3.137.992-3.905 2.048v9.25c0 .927-.768 1.695-1.728 1.695a1.687 1.687 0 0 1-1.696-1.696v-18.37c0-.896.736-1.664 1.76-1.664.896 0 1.664.768 1.664 1.664v6.529c1.024-1.216 3.008-2.496 5.473-2.496 3.328 0 4.992 1.76 4.992 4.896v9.441c0 .928-.768 1.696-1.728 1.696zm17.185 0h-.192c-.448 0-1.536-.384-1.536-1.568v-.288c-1.12 1.312-2.944 2.048-4.96 2.048-2.529 0-5.409-1.696-5.409-5.12 0-3.553 2.88-5.025 5.409-5.025 2.048 0 3.872.672 4.96 1.984v-2.368c0-1.76-1.472-2.848-3.584-2.848-1.344 0-2.56.352-3.68 1.184a1.313 1.313 0 0 1-.705.224c-.64 0-1.344-.512-1.344-1.344 0-.256.096-.544.256-.736 1.216-1.536 4.065-2.176 6.017-2.176 3.424 0 6.465 1.44 6.465 5.6v8.737a1.708 1.708 0 0 1-1.697 1.696zm-1.728-6.048c-.768-1.024-2.176-1.536-3.648-1.536-1.824 0-3.233 1.024-3.233 2.72 0 1.632 1.409 2.688 3.233 2.688 1.472 0 2.88-.512 3.648-1.568zm13.953-6.529c-1.376.128-2.688.704-3.52 1.888v8.993a1.708 1.708 0 0 1-1.696 1.696h-.064c-.929 0-1.665-.768-1.665-1.696v-12.481c0-.896.736-1.664 1.76-1.664.897 0 1.665.768 1.665 1.664v.8c.832-1.12 2.048-2.464 3.68-2.464.928 0 1.504.64 1.504 1.472 0 1.024-.704 1.664-1.664 1.792zm9.633 12.77c-2.624 0-4-1.409-4-4.001v-8.833h-1.28c-.8 0-1.473-.672-1.473-1.536 0-.8.672-1.472 1.473-1.472h1.28v-2.72c0-.929.768-1.697 1.76-1.697.928 0 1.664.768 1.664 1.696v2.72h1.888c.8 0 1.44.673 1.44 1.537 0 .8-.64 1.472-1.44 1.472h-1.888v7.969c0 1.184.672 1.824 1.472 1.824.224 0 .512-.096.704-.096.928 0 1.504.64 1.504 1.472 0 1.024-.928 1.664-3.104 1.664zm7.36-.033c-1.247 0-2.271-1.056-2.271-2.272a2.28 2.28 0 0 1 2.272-2.272 2.28 2.28 0 0 1 2.272 2.272c0 1.216-1.024 2.272-2.272 2.272zm5.665 5.92c-1.984 0-3.52-.512-3.52-1.76 0-.768.64-1.376 1.376-1.376.48 0 .832.32 1.6.32 1.312 0 2.272-.8 2.272-2.625v-14.817c0-.896.736-1.664 1.76-1.664.896 0 1.664.768 1.664 1.664v14.817c0 3.329-1.728 5.441-5.152 5.441Zm5.537-25.73a2.11 2.11 0 0 1-2.113 2.111 2.11 2.11 0 0 1-2.112-2.112c0-1.152.96-2.08 2.112-2.08 1.152 0 2.113.928 2.113 2.08zm9.248 19.841c-2.08 0-4.833-.64-6.049-2.016a1.28 1.28 0 0 1-.32-.832c0-.8.704-1.44 1.472-1.44.256 0 .544.064.769.224 1.184.8 2.784 1.376 4.256 1.376 2.016 0 3.008-.864 3.008-2.048 0-3.008-9.345-.832-9.345-6.785 0-2.528 2.209-4.704 6.145-4.704 2.08 0 4.416.64 5.473 1.856.192.224.288.48.288.768 0 .736-.64 1.312-1.377 1.312-.224 0-.48-.064-.704-.192-.992-.672-2.304-1.088-3.68-1.088-1.728 0-2.816.832-2.816 1.888 0 2.72 9.313.672 9.313 6.817 0 2.752-2.273 4.864-6.433 4.864z"/><path fill="#36a2eb" d="M100.408 46.037c-12.783.25-10.12 8.343-19.129 10.39-9.152 2.079-10.597-22.352-19.746-22.352-9.15 0-11.178 23.731-22.636 40.024l-.326.462 24.565 14.18 37.273-21.517V46.037Z"/><path fill="#ffce56" d="M100.408 45.3c-4.279-5.492-7.181-11.806-13.426-11.806-11.052 0-8.143 18.028-20.357 18.028-12.215 0-13.498-19.391-27.336-1.163-4.409 5.808-7.958 12.284-10.745 18.412l34.591 19.97 37.273-21.517V45.3Z"/><path fill="#fe6184" d="M25.863 52.768c4.193-11.613 6.003-21.018 14.009-21.018 12.212 0 15.12 34.31 25.59 30.82 10.468-3.489 9.305-22.098 25.59-22.098 3.1 0 6.265 1.899 9.356 4.971v21.78L63.136 88.74 25.862 67.224V52.768Z" opacity=".8"/><path fill="#e7e9ed" d="m63.107 91.438-39.6-22.86V22.86L63.108 0l39.6 22.86v45.719ZM28.16 65.893l34.947 20.174 34.947-20.174V25.546L63.107 5.372 28.16 25.546z"/></svg>
