<svg xmlns="http://www.w3.org/2000/svg" xml:space="preserve" viewBox="0 0 128 128"><path fill="#ff6384" d="M28.637 103.357c.256.32.416.736.416 1.12 0 .993-.832 1.76-1.824 1.76-.48 0-.992-.191-1.376-.607-1.216-1.377-2.976-2.209-4.736-2.209-4.193 0-7.297 3.2-7.297 7.65 0 4.416 3.104 7.648 7.297 7.648 1.76 0 3.52-.768 4.736-2.176a2.02 2.02 0 0 1 1.408-.608c.992 0 1.76.8 1.76 1.728 0 .384-.128.8-.384 1.12-1.632 1.856-4.032 3.328-7.52 3.328-6.305 0-11.202-4.48-11.202-11.04 0-6.562 4.897-11.042 11.202-11.042 3.488 0 5.888 1.472 7.52 3.328zM44.8 121.92a1.687 1.687 0 0 1-1.696-1.696v-8.193c0-2.368-1.248-3.104-3.136-3.104-1.665 0-3.137.992-3.905 2.048v9.25c0 .927-.768 1.695-1.728 1.695a1.687 1.687 0 0 1-1.696-1.696v-18.37c0-.896.736-1.664 1.76-1.664.896 0 1.664.768 1.664 1.664v6.529c1.024-1.216 3.008-2.496 5.473-2.496 3.328 0 4.992 1.76 4.992 4.896v9.441c0 .928-.768 1.696-1.728 1.696zm17.185 0h-.192c-.448 0-1.536-.384-1.536-1.568v-.288c-1.12 1.312-2.944 2.048-4.96 2.048-2.529 0-5.409-1.696-5.409-5.12 0-3.553 2.88-5.025 5.409-5.025 2.048 0 3.872.672 4.96 1.984v-2.368c0-1.76-1.472-2.848-3.584-2.848-1.344 0-2.56.352-3.68 1.184a1.313 1.313 0 0 1-.705.224c-.64 0-1.344-.512-1.344-1.344 0-.256.096-.544.256-.736 1.216-1.536 4.065-2.176 6.017-2.176 3.424 0 6.465 1.44 6.465 5.6v8.737a1.708 1.708 0 0 1-1.697 1.696zm-1.728-6.048c-.768-1.024-2.176-1.536-3.648-1.536-1.824 0-3.233 1.024-3.233 2.72 0 1.632 1.409 2.688 3.233 2.688 1.472 0 2.88-.512 3.648-1.568zm13.953-6.529c-1.376.128-2.688.704-3.52 1.888v8.993a1.708 1.708 0 0 1-1.696 1.696h-.064c-.929 0-1.665-.768-1.665-1.696v-12.481c0-.896.736-1.664 1.76-1.664.897 0 1.665.768 1.665 1.664v.8c.832-1.12 2.048-2.464 3.68-2.464.928 0 1.504.64 1.504 1.472 0 1.024-.704 1.664-1.664 1.792zm9.633 12.77c-2.624 0-4-1.409-4-4.001v-8.833h-1.28c-.8 0-1.473-.672-1.473-1.536 0-.8.672-1.472 1.473-1.472h1.28v-2.72c0-.929.768-1.697 1.76-1.697.928 0 1.664.768 1.664 1.696v2.72h1.888c.8 0 1.44.673 1.44 1.537 0 .8-.64 1.472-1.44 1.472h-1.888v7.969c0 1.184.672 1.824 1.472 1.824.224 0 .512-.096.704-.096.928 0 1.504.64 1.504 1.472 0 1.024-.928 1.664-3.104 1.664zm7.36-.033c-1.247 0-2.271-1.056-2.271-2.272a2.28 2.28 0 0 1 2.272-2.272 2.28 2.28 0 0 1 2.272 2.272c0 1.216-1.024 2.272-2.272 2.272zm5.665 5.92c-1.984 0-3.52-.512-3.52-1.76 0-.768.64-1.376 1.376-1.376.48 0 .832.32 1.6.32 1.312 0 2.272-.8 2.272-2.625v-14.817c0-.896.736-1.664 1.76-1.664.896 0 1.664.768 1.664 1.664v14.817c0 3.329-1.728 5.441-5.152 5.441Zm5.537-25.73a2.11 2.11 0 0 1-2.113 2.111 2.11 2.11 0 0 1-2.112-2.112c0-1.152.96-2.08 2.112-2.08 1.152 0 2.113.928 2.113 2.08zm9.248 19.841c-2.08 0-4.833-.64-6.049-2.016a1.28 1.28 0 0 1-.32-.832c0-.8.704-1.44 1.472-1.44.256 0 .544.064.769.224 1.184.8 2.784 1.376 4.256 1.376 2.016 0 3.008-.864 3.008-2.048 0-3.008-9.345-.832-9.345-6.785 0-2.528 2.209-4.704 6.145-4.704 2.08 0 4.416.64 5.473 1.856.192.224.288.48.288.768 0 .736-.64 1.312-1.377 1.312-.224 0-.48-.064-.704-.192-.992-.672-2.304-1.088-3.68-1.088-1.728 0-2.816.832-2.816 1.888 0 2.72 9.313.672 9.313 6.817 0 2.752-2.273 4.864-6.433 4.864z"/><path stroke="#ff6384" stroke-width=".571" d="M61.533 33.79c-2.411 0-4.342 1.572-6.023 4.089-1.681 2.517-3.152 6.006-4.696 9.996-3.086 7.979-6.454 17.96-12.15 26.059l-.508.718 24.98 14.418 37.56-21.681V45.752h-.294c-6.452.127-9.108 2.282-11.187 4.615-2.08 2.333-3.581 4.777-8 5.781-1.084.247-2.028.103-2.908-.34-.881-.442-1.697-1.196-2.463-2.173-1.532-1.956-2.854-4.8-4.178-7.723-1.324-2.922-2.65-5.922-4.24-8.215-1.59-2.293-3.478-3.908-5.893-3.908zm0 .571c2.16 0 3.883 1.44 5.424 3.662 1.54 2.223 2.862 5.2 4.188 8.125 1.325 2.926 2.65 5.8 4.25 7.84.799 1.02 1.67 1.835 2.656 2.33.985.496 2.087.66 3.29.387 4.59-1.043 6.264-3.67 8.302-5.957 2.001-2.246 4.4-4.209 10.48-4.396v20.707L63.137 88.41 38.984 74.47l.147-.205c5.762-8.194 9.138-18.224 12.217-26.184 1.54-3.98 3.006-7.441 4.636-9.883 1.631-2.441 3.385-3.836 5.55-3.836z" color="#ff6384" font-family="sans-serif" font-weight="400" overflow="visible" style="line-height:normal;font-variant-ligatures:normal;font-variant-position:normal;font-variant-caps:normal;font-variant-numeric:normal;font-variant-alternates:normal;font-feature-settings:normal;text-indent:0;text-align:start;text-decoration-line:none;text-decoration-style:solid;text-decoration-color:#000;text-transform:none;text-orientation:mixed;white-space:normal;shape-padding:0;isolation:auto;mix-blend-mode:normal;solid-color:#000;solid-opacity:1"/><path stroke="#ff6384" stroke-width=".571" d="M86.982 33.209c-2.84 0-4.83 1.18-6.341 2.914-1.51 1.734-2.57 4.01-3.659 6.262-1.089 2.251-2.21 4.476-3.785 6.123-1.575 1.646-3.589 2.728-6.572 2.728-5.956 0-9.246-4.744-12.893-7.363-1.823-1.31-3.788-2.07-6.14-1.293-2.353.777-5.054 3.027-8.53 7.606-4.426 5.83-7.985 12.324-10.779 18.466l-.107.237L63.135 89.07l37.558-21.681V45.586h.301l-.36-.461c-2.126-2.729-3.921-5.684-5.99-7.979-2.067-2.294-4.443-3.937-7.662-3.937zm0 .57c3.026 0 5.224 1.515 7.239 3.75 1.994 2.213 3.778 5.129 5.902 7.867V67.06L63.135 88.41 28.922 68.66c2.765-6.047 6.258-12.415 10.596-18.129 3.443-4.536 6.09-6.694 8.252-7.408 2.161-.714 3.874-.045 5.628 1.215 3.509 2.52 6.968 7.47 13.227 7.47 3.124 0 5.327-1.172 6.986-2.906 1.66-1.734 2.793-4.013 3.885-6.27 1.092-2.255 2.142-4.488 3.576-6.134 1.434-1.646 3.225-2.719 5.91-2.719z" color="#000" font-family="sans-serif" font-weight="400" overflow="visible" style="line-height:normal;font-variant-ligatures:normal;font-variant-position:normal;font-variant-caps:normal;font-variant-numeric:normal;font-variant-alternates:normal;font-feature-settings:normal;text-indent:0;text-align:start;text-decoration-line:none;text-decoration-style:solid;text-decoration-color:#000;text-transform:none;text-orientation:mixed;white-space:normal;shape-padding:0;isolation:auto;mix-blend-mode:normal;solid-color:#000;solid-opacity:1"/><path stroke="#ff6384" stroke-width=".571" d="M39.871 31.465c-2.057 0-3.745.612-5.152 1.71-1.407 1.1-2.536 2.673-3.535 4.596-1.977 3.802-3.47 8.995-5.526 14.711h-.082V67.39l37.56 21.681 37.557-21.681V45.324l-.084-.084c-3.118-3.1-6.34-5.054-9.556-5.054-4.126 0-7.18 1.187-9.57 3.021-2.39 1.834-4.12 4.304-5.653 6.86-1.534 2.555-2.876 5.202-4.475 7.412-1.598 2.209-3.44 3.972-5.984 4.82-1.24.413-2.33.272-3.377-.3-1.047-.573-2.043-1.594-2.996-2.937-1.906-2.684-3.635-6.638-5.416-10.708-1.781-4.071-3.618-8.263-5.795-11.46-2.177-3.196-4.729-5.43-7.916-5.43Zm0 .57c2.92 0 5.313 2.054 7.443 5.182 2.13 3.128 3.964 7.297 5.745 11.367 1.78 4.07 3.507 8.042 5.472 10.809.983 1.383 2.027 2.47 3.19 3.105 1.163.636 2.455.803 3.832.344 2.69-.897 4.629-2.768 6.265-5.03 1.637-2.26 2.983-4.92 4.502-7.453 1.52-2.532 3.211-4.935 5.51-6.699 2.3-1.764 5.206-2.902 9.223-2.902 2.955 0 6.033 1.828 9.07 4.824v21.477L63.137 88.41 26.148 67.06V52.814c2.09-5.795 3.595-11.03 5.543-14.779.978-1.88 2.064-3.383 3.38-4.41 1.314-1.027 2.855-1.59 4.8-1.59z" color="#000" font-family="sans-serif" font-weight="400" opacity=".8" overflow="visible" style="line-height:normal;font-variant-ligatures:normal;font-variant-position:normal;font-variant-caps:normal;font-variant-numeric:normal;font-variant-alternates:normal;font-feature-settings:normal;text-indent:0;text-align:start;text-decoration-line:none;text-decoration-style:solid;text-decoration-color:#000;text-transform:none;text-orientation:mixed;white-space:normal;shape-padding:0;isolation:auto;mix-blend-mode:normal;solid-color:#000;solid-opacity:1"/><path fill="#ff6384" d="m63.107 91.438-39.6-22.86V22.86L63.108 0l39.6 22.86v45.719ZM28.16 65.893l34.947 20.174 34.947-20.174V25.546L63.107 5.372 28.16 25.546z"/></svg>