<svg xmlns="http://www.w3.org/2000/svg" viewBox="0 0 128 128"><g fill="#2f406a"><path d="M46.29 56.56q-3.15 0-3.15 2.37a2 2 0 00.72 1.82 9.66 9.66 0 002.94 1A7.47 7.47 0 0149.95 63a3.24 3.24 0 01.92 2.59q0 4.47-4.64 4.47a26 26 0 01-3.84-.36l-.76-.1.17-1.34a36 36 0 004.35.38q3.11 0 3.11-2.92a2 2 0 00-.69-1.72 6.64 6.64 0 00-2.57-.83 8.59 8.59 0 01-3.49-1.35 3.38 3.38 0 01-1-2.78q0-3.91 4.68-3.91a25.83 25.83 0 013.68.31l.71.11-.15 1.36a39.48 39.48 0 00-4.14-.35zM60.53 68.59l.61-.06v1.24a30.21 30.21 0 01-4.1.34 3.69 3.69 0 01-3.21-1.31 7 7 0 01-.95-4.08q0-5.52 4.39-5.52a4 4 0 013.17 1.19 5.53 5.53 0 011.05 3.73l-.08 1.2h-6.89a4.31 4.31 0 00.63 2.58 2.58 2.58 0 002.19.84q1.57-.03 3.19-.15zM60 64a4.56 4.56 0 00-.62-2.73 2.39 2.39 0 00-2-.8 2.58 2.58 0 00-2.1.84A4.24 4.24 0 0054.5 64zM67.48 70.1a3.52 3.52 0 01-3-1.24 7.29 7.29 0 01-.91-4.2 6.44 6.44 0 011.09-4.22q1.09-1.26 3.86-1.26l3.51.21v15.16h-1.59v-5.14a6.89 6.89 0 01-2.96.69zm1-9.56a3.09 3.09 0 00-2.68 1 5.49 5.49 0 00-.7 3.14 6.14 6.14 0 00.58 3.09 2.1 2.1 0 001.94.93 6.66 6.66 0 002.42-.46l.38-.15v-7.42q-1.28-.12-1.91-.12zM81.59 59.39h1.58v10.5h-1.58v-.73a6 6 0 01-3.11.94q-2.14 0-2.85-1.11a8.38 8.38 0 01-.7-4.12v-5.48h1.57v5.46a7.72 7.72 0 00.4 3.07q.4.78 1.81.78a5.21 5.21 0 001.41-.2 6.42 6.42 0 001.09-.39l.38-.19zM93.33 68.59l.61-.06v1.24a30.21 30.21 0 01-4.1.34 3.69 3.69 0 01-3.21-1.31 7 7 0 01-.95-4.08q0-5.52 4.39-5.52a4 4 0 013.17 1.19 5.53 5.53 0 011.05 3.73l-.08 1.2h-6.88a4.31 4.31 0 00.67 2.55 2.58 2.58 0 002.19.84q1.52 0 3.14-.12zM92.76 64a4.56 4.56 0 00-.62-2.73 2.39 2.39 0 00-2-.8 2.58 2.58 0 00-2.1.84A4.24 4.24 0 0087.3 64zM96.92 69.89V54.81h1.58v15.08zM101.65 57v-1.81h1.57V57zm0 12.87V59.39h1.57v10.5zM105.62 60.8v-1.41h7.79v1.41l-5.88 7.69h5.88v1.41h-7.79v-1.42l5.88-7.69zM122.88 68.59l.61-.06v1.24a30.21 30.21 0 01-4.1.34 3.69 3.69 0 01-3.21-1.31 7 7 0 01-.95-4.08q0-5.52 4.39-5.52a4 4 0 013.17 1.19 5.53 5.53 0 011.05 3.73l-.08 1.2h-6.93a4.31 4.31 0 00.63 2.58 2.58 2.58 0 002.19.84q1.61-.03 3.23-.15zm-.57-4.59a4.56 4.56 0 00-.62-2.73 2.39 2.39 0 00-2-.8 2.58 2.58 0 00-2.1.84 4.24 4.24 0 00-.72 2.69zM33 56.92v14.14l-12 7.11-.11.1v5.29l.11.1 16.92-9.78v-19.7h-.16L33 56.81v.12"/><path d="M8.94 71.18l12.06 7v5.49L4 73.85V54.22h.17L8.88 57l.05.16v14.02"/><path d="M8.94 57.12l-5-2.9L21 44.4l17 9.78-5 2.74L21 50 9 57.07M10.1 70.4v-5.76l.13.08 4.63 2.7V73l-4.76-2.6M27.08 73.16v-5.63l4.55-2.66.14-.08v5.59l-4.72 2.79M21.2 76.62l-.13-.13V71l.16-.06 4.55-2.66.14-.08v5.58l-4.72 2.84"/><path d="M16.4 74v-5.77l.13.07 4.63 2.7v5.62L16.4 74M20.71 50.93L16 53.73l4.8 2.79 4.72-2.76-4.8-2.83M10.1 62.87v-5.68h.13l4.63 2.7v5.62l-4.8-2.62"/><path d="M14.83 54.39l-4.73 2.8L14.91 60l4.72-2.76-4.8-2.83M27.08 65.62v-5.64l4.55-2.66h.14v5.47l-4.72 2.79"/><path d="M27 54.53l-4.72 2.79 4.8 2.79 4.72-2.76-4.8-2.82M21.2 69.09l-.13-.09v-5.35l.13-.07v-.13l4.55-2.66h.14v5.51l-4.69 2.79"/><path d="M16.4 66.47v-5.69h.13l4.63 2.7v5.62l-4.8-2.62"/><path d="M21.13 58l-4.73 2.78 4.8 2.79 4.72-2.76L21.13 58"/></g></svg>