<svg xmlns="http://www.w3.org/2000/svg" viewBox="0 0 128 128"><g fill="none"><path fill="url(#a)" d="M20.8246 40.2316C20.0572 40.6846 18.78 41.9674 17.2622 43.8279L18.6583 46.467C19.6409 45.0653 20.6377 43.7995 21.6429 42.7207C21.7222 42.6357 21.759 42.5961 21.759 42.5961C21.7222 42.6357 21.6797 42.681 21.6429 42.7207C21.3173 43.0775 20.329 44.2328 18.8395 46.5208C20.2752 46.45 22.4783 46.1555 24.2764 45.8497C24.8145 42.8509 23.7526 41.4804 23.7526 41.4804C23.7526 41.4804 22.4047 39.2999 20.8246 40.2316V40.2316Z"/><path fill="#BD202E" d="M16.1267 62.4012C15.9483 62.4324 15.7671 62.4663 15.5774 62.4975C15.5774 62.4975 15.5745 62.4975 15.5745 62.5003C15.6708 62.4862 15.7643 62.472 15.8577 62.4578C15.9455 62.438 16.0361 62.421 16.1267 62.4012Z"/><path fill="#BD202E" d="M16.1267 62.4012C15.9483 62.4324 15.7671 62.4663 15.5774 62.4975C15.5774 62.4975 15.5745 62.4975 15.5745 62.5003C15.6708 62.4862 15.7643 62.472 15.8577 62.4578C15.9455 62.438 16.0361 62.421 16.1267 62.4012Z" opacity=".35"/><path fill="#BD202E" d="M16.594 60.0933C16.594 60.0933 16.594 60.0962 16.594 60.0933C16.5911 60.0933 16.5911 60.0933 16.5911 60.0962C16.6194 60.0933 16.6506 60.0877 16.6789 60.082C16.7978 60.065 16.9139 60.0452 17.0272 60.0169C16.8856 60.0424 16.744 60.0679 16.594 60.0933V60.0933Z"/><path fill="#BD202E" d="M16.594 60.0933C16.594 60.0933 16.594 60.0962 16.594 60.0933C16.5911 60.0933 16.5911 60.0933 16.5911 60.0962C16.6194 60.0933 16.6506 60.0877 16.6789 60.082C16.7978 60.065 16.9139 60.0452 17.0272 60.0169C16.8856 60.0424 16.744 60.0679 16.594 60.0933V60.0933Z" opacity=".35"/><path fill="url(#b)" d="M14.5353 53.2887C14.9601 52.493 15.3905 51.7171 15.8237 50.9638C16.274 50.1766 16.7327 49.4177 17.1943 48.6815C17.2198 48.639 17.2509 48.5937 17.2764 48.5512C17.7323 47.8291 18.1939 47.1325 18.6555 46.4699L17.2594 43.8307C17.1547 43.9581 17.0499 44.0884 16.9423 44.2243C16.5373 44.7284 16.1211 45.2664 15.6907 45.8412C15.2064 46.4869 14.7109 47.1778 14.204 47.9027C13.7396 48.571 13.2639 49.2705 12.7881 49.9982C12.3832 50.6155 11.9811 51.2498 11.579 51.9011C11.5648 51.9238 11.5507 51.9493 11.5365 51.9748L13.3573 55.5711C13.7424 54.7923 14.1389 54.0306 14.5353 53.2887Z"/><path fill="url(#c)" d="M6.24396 73.5412C6.00326 74.201 5.75974 74.8778 5.51904 75.5659C5.51621 75.5744 5.51337 75.5858 5.50771 75.5943C5.47373 75.6905 5.43692 75.7896 5.40577 75.8859C5.24153 76.3503 5.09994 76.7694 4.77429 77.7181C5.30949 77.9616 5.73991 78.6072 6.14768 79.3378C6.10521 78.5817 5.79372 77.871 5.19622 77.3216C7.83823 77.4405 10.1149 76.7723 11.2929 74.841C11.3977 74.6683 11.494 74.4899 11.5818 74.2945C11.0466 74.9741 10.3811 75.2601 9.13233 75.1921C9.1295 75.1921 9.12667 75.195 9.12384 75.195C9.12667 75.195 9.1295 75.1921 9.13233 75.1921C10.973 74.3681 11.8933 73.5781 12.7116 72.2698C12.9042 71.9583 13.0939 71.6213 13.2865 71.2447C11.6781 72.8956 9.81761 73.3657 7.85522 73.0089L6.38272 73.1703C6.33458 73.2949 6.2921 73.4167 6.24396 73.5412V73.5412Z"/><path fill="url(#d)" d="M6.93211 70.2479C7.24926 69.4267 7.57774 68.5942 7.91189 67.756C8.2347 66.9518 8.56318 66.1419 8.90299 65.3321C9.2428 64.5222 9.58827 63.7038 9.93941 62.8883C10.2962 62.0586 10.6643 61.2317 11.041 60.4077C11.4119 59.5921 11.7857 58.7823 12.168 57.9837C12.3039 57.6949 12.4455 57.406 12.5842 57.12C12.8249 56.6245 13.0685 56.1317 13.3148 55.6447C13.329 55.6192 13.3403 55.5909 13.3545 55.5654L11.5337 51.9691C11.5054 52.0172 11.4742 52.0682 11.4431 52.1135C11.0183 52.8073 10.5964 53.5152 10.1829 54.2373C9.76384 54.9679 9.35324 55.7126 8.95113 56.4687C8.61416 57.1059 8.28284 57.7458 7.95719 58.3971C7.89206 58.5274 7.82977 58.6605 7.76464 58.7907C7.36819 59.6091 7.01139 60.3935 6.68574 61.1552C6.31762 62.0133 5.9948 62.8345 5.71446 63.6132C5.52756 64.1257 5.36049 64.6185 5.20475 65.0942C5.07732 65.4991 4.95839 65.9069 4.83945 66.3118C4.56761 67.2633 4.33257 68.2148 4.14001 69.1606L5.96932 72.771C6.21001 72.1254 6.45921 71.4684 6.71406 70.8058C6.79052 70.6161 6.85848 70.4292 6.93211 70.2479V70.2479Z"/><path fill="url(#e)" d="M4.12017 69.2823C3.8908 70.4377 3.72656 71.5874 3.64444 72.7314C3.64161 72.771 3.63878 72.8107 3.63595 72.8503C3.06394 71.9357 1.53763 71.0437 1.54046 71.0522C2.63634 72.6379 3.46604 74.2124 3.58781 75.7585C3.00164 75.8774 2.20026 75.7047 1.27428 75.3649C2.2399 76.2541 2.96483 76.4976 3.25083 76.5655C2.36167 76.6222 1.43852 77.231 0.50688 77.9333C1.86894 77.3783 2.97049 77.1574 3.75771 77.3358C2.50608 80.8754 1.25446 84.7832 0 88.9346C0.385116 88.8213 0.614486 88.5608 0.741914 88.2125C0.965621 87.4621 2.44662 82.5292 4.77147 76.053C4.83943 75.8689 4.90456 75.682 4.97253 75.498C4.98952 75.4442 5.00934 75.3932 5.02916 75.3451C5.27269 74.6654 5.53038 73.9717 5.7909 73.2637C5.85036 73.1023 5.90983 72.9409 5.97213 72.7795C5.97213 72.7767 5.97496 72.7739 5.97496 72.771L4.14283 69.1606C4.13716 69.1974 4.12867 69.2398 4.12017 69.2823Z"/><path fill="url(#f)" d="M13.6376 55.8656C13.5838 55.9732 13.5329 56.0808 13.479 56.1884C13.3205 56.514 13.1619 56.8454 12.9977 57.1852C12.8221 57.5533 12.6465 57.9271 12.4681 58.3122C12.3775 58.5047 12.2869 58.7001 12.1963 58.8984C11.9244 59.4902 11.6497 60.1018 11.3694 60.7333C11.0268 61.5064 10.6728 62.3134 10.3188 63.1516C9.98186 63.9502 9.63355 64.7742 9.28808 65.6294C8.95677 66.4393 8.62262 67.2775 8.28281 68.1383C7.97982 68.9057 7.67399 69.6986 7.36816 70.5113C7.35401 70.5481 7.33985 70.5906 7.32569 70.6274C7.01986 71.4344 6.7112 72.2641 6.40254 73.1137C6.39688 73.1335 6.38838 73.1505 6.38272 73.1731L7.85522 73.0117C7.82691 73.0061 7.79576 73.0032 7.76744 72.9976C9.52595 72.7795 11.8678 71.4628 13.3771 69.8402C14.0737 69.0926 14.7052 68.2091 15.2885 67.1755C15.7218 66.4081 16.1324 65.5529 16.5232 64.61C16.863 63.7859 17.1886 62.8911 17.5029 61.9255C17.098 62.1379 16.6364 62.2964 16.1267 62.404C16.0361 62.4239 15.9455 62.4409 15.852 62.4579C15.7586 62.4748 15.6651 62.489 15.5689 62.5003C15.5689 62.5003 15.5717 62.5003 15.5717 62.4975C17.2141 61.866 18.2477 60.6484 18.9981 59.156C18.5677 59.4505 17.8654 59.8357 17.0244 60.0197C16.9111 60.0452 16.795 60.065 16.6761 60.0849C16.6478 60.0877 16.6166 60.0934 16.5883 60.099H16.5911C16.5911 60.099 16.5911 60.099 16.594 60.099C17.166 59.8612 17.6445 59.5921 18.0608 59.2778C18.1514 59.2099 18.2392 59.1419 18.3185 59.0683C18.4459 58.9578 18.5648 58.8417 18.6838 58.7228C18.7574 58.6435 18.8282 58.5642 18.899 58.4821C19.0632 58.2867 19.2161 58.0772 19.3577 57.8506C19.4002 57.7798 19.4455 57.7119 19.4852 57.6382C19.5418 57.5335 19.5928 57.4287 19.6437 57.3296C19.8731 56.8708 20.0572 56.4574 20.2016 56.0978C20.2752 55.9165 20.3375 55.7523 20.3941 55.5937C20.4168 55.5314 20.4366 55.472 20.4564 55.4125C20.5159 55.2398 20.5612 55.0868 20.598 54.9509C20.6547 54.747 20.6886 54.5856 20.7056 54.4695C20.649 54.512 20.5867 54.5573 20.5131 54.5998C20.0175 54.8971 19.168 55.1633 18.4827 55.2907L19.8335 55.1435L18.4827 55.2907C18.4742 55.2936 18.4629 55.2936 18.4516 55.2964C18.3808 55.3077 18.3157 55.319 18.2449 55.3275C18.2562 55.3219 18.2675 55.3162 18.2788 55.3106L13.6546 55.8174C13.6546 55.8288 13.6461 55.8486 13.6376 55.8656V55.8656Z"/><path fill="url(#g)" d="M18.8424 46.5208C18.4318 47.1523 17.9844 47.8687 17.4973 48.6815C17.4718 48.7211 17.4435 48.7692 17.4209 48.8089C17.0046 49.5112 16.5628 50.2814 16.0928 51.1281C15.6907 51.8587 15.2716 52.6402 14.8355 53.4812C14.456 54.2147 14.0652 54.9934 13.6603 55.8174L18.2845 55.3105C19.6324 54.6904 20.2328 54.1325 20.8161 53.3198C20.969 53.0961 21.1276 52.8639 21.2805 52.6204C21.7562 51.8785 22.2206 51.0629 22.6369 50.2502C23.039 49.4658 23.393 48.6899 23.6648 47.9877C23.8376 47.5431 23.9763 47.1297 24.0726 46.7644C24.1575 46.4444 24.2227 46.1386 24.2737 45.8469C22.4812 46.1555 20.2752 46.45 18.8424 46.5208V46.5208Z"/><path fill="#BD202E" d="M15.8521 62.4522C15.7586 62.4692 15.6652 62.4833 15.5689 62.4947C15.6652 62.4862 15.7614 62.4692 15.8521 62.4522Z"/><path fill="#BD202E" d="M15.8521 62.4522C15.7586 62.4692 15.6652 62.4833 15.5689 62.4947C15.6652 62.4862 15.7614 62.4692 15.8521 62.4522Z" opacity=".35"/><path fill="url(#h)" d="M15.8521 62.4522C15.7586 62.4692 15.6652 62.4833 15.5689 62.4947C15.6652 62.4862 15.7614 62.4692 15.8521 62.4522Z"/><path fill="#BD202E" d="M16.5911 60.0962C16.6194 60.0934 16.6506 60.0877 16.6789 60.082C16.6506 60.0849 16.6223 60.0934 16.5911 60.0962Z"/><path fill="#BD202E" d="M16.5911 60.0962C16.6194 60.0934 16.6506 60.0877 16.6789 60.082C16.6506 60.0849 16.6223 60.0934 16.5911 60.0962Z" opacity=".35"/><path fill="url(#i)" d="M16.5911 60.0962C16.6194 60.0934 16.6506 60.0877 16.6789 60.082C16.6506 60.0849 16.6223 60.0934 16.5911 60.0962Z"/><path fill="#BD202E" d="M16.5911 60.0962C16.594 60.0962 16.594 60.0933 16.5911 60.0962C16.594 60.0933 16.594 60.0962 16.5911 60.0962Z"/><path fill="#BD202E" d="M16.5911 60.0962C16.594 60.0962 16.594 60.0933 16.5911 60.0962C16.594 60.0933 16.594 60.0962 16.5911 60.0962Z" opacity=".35"/><path fill="url(#j)" d="M16.5911 60.0962C16.594 60.0962 16.594 60.0933 16.5911 60.0962C16.594 60.0933 16.594 60.0962 16.5911 60.0962Z"/><path fill="#A00" d="M82.8373 74.4465C82.5535 74.3956 81.4821 74.1211 81.3146 74.0564C80.9216 73.9046 79.5722 73.2134 79.4138 73.0828C79.202 72.9081 79.1748 72.887 78.7889 72.5995C78.4067 72.3146 77.5866 71.4946 77.3019 71.1124C77.1802 70.949 77.0471 70.7747 77.0063 70.725C76.9654 70.6754 76.8969 70.5918 76.854 70.5393C76.764 70.4291 76.0035 69.144 76.0035 69.1021C76.0035 69.0867 75.9244 68.8976 75.8276 68.6819C75.7309 68.4662 75.5937 68.1226 75.5227 67.9184C75.4516 67.7141 75.3648 67.4801 75.3297 67.3984C75.2511 67.2155 75.0366 66.2051 74.9591 65.6528C74.8772 65.0687 74.8797 63.4659 74.9634 62.9415C75.1839 61.5602 75.3579 60.9699 75.8623 59.8911C75.9399 59.7251 76.0035 59.5496 76.0035 59.5012C76.0035 59.4528 76.0369 59.4132 76.0778 59.4132C76.1186 59.4132 76.152 59.37 76.152 59.3173C76.152 59.2645 76.3584 58.9086 76.6107 58.5263C77.0199 57.9063 77.9518 56.8768 78.5662 56.366C79.2019 55.8375 80.4594 55.1487 81.2104 54.9176C81.4311 54.8496 81.6952 54.7652 81.7974 54.7299C82.1748 54.5994 82.9001 54.5045 83.8401 54.4626C85.0517 54.4086 86.3228 54.5668 87.2199 54.8832C87.8908 55.1198 88.5036 55.4028 88.5446 55.4949C88.5582 55.5255 88.6018 55.5506 88.6415 55.5506C88.7981 55.5506 89.6414 56.1895 90.1477 56.6917C90.7335 57.2729 91.1171 57.7819 91.4209 58.3816C91.6113 58.7572 91.6135 58.7755 91.4806 58.8672C91.4046 58.9196 91.3074 58.9887 91.2646 59.0207C91.2217 59.0527 91.0996 59.1291 90.9931 59.1904C90.8866 59.2516 90.6455 59.3971 90.4572 59.5137C90.0737 59.7511 89.9274 59.7337 89.8147 59.4371C89.4997 58.6086 88.055 57.2493 87.0713 56.8558C85.9881 56.4225 85.3312 56.2932 84.2164 56.294C83.0353 56.2952 82.2757 56.4399 81.3315 56.845C81.0091 56.9834 80.321 57.3944 80.1765 57.535C80.1225 57.5875 80.0555 57.6305 80.0276 57.6305C79.9487 57.6305 79.1226 58.4458 78.7592 58.8823C78.3657 59.3549 77.6823 60.5703 77.5208 61.0845C77.4567 61.2888 77.3749 61.5228 77.339 61.6045C77.0234 62.3234 76.8376 64.0649 76.9525 65.2257C77.0311 66.0202 77.1963 66.8522 77.3396 67.1756C77.3758 67.2573 77.4277 67.4077 77.4548 67.5098C77.5745 67.9603 78.2739 69.2636 78.6405 69.7191C79.0065 70.1741 79.6744 70.8765 79.9775 71.1251C80.3247 71.41 81.452 72.1147 81.5621 72.1157C81.5894 72.1157 81.698 72.1612 81.8034 72.2162C81.9089 72.2712 82.2933 72.3963 82.6577 72.4942C83.2146 72.6437 83.4798 72.6706 84.3229 72.6631C85.7336 72.6503 86.6288 72.4069 87.8141 71.7135C88.5908 71.2592 89.6636 70.2103 90.0426 69.5348C90.1855 69.2799 90.3359 69.0709 90.3768 69.0703C90.5343 69.0682 91.9738 69.8514 91.9738 69.9393C91.9738 70.0433 91.5412 70.869 91.4564 70.9267C91.4264 70.9472 91.3633 71.037 91.3163 71.1264C91.1389 71.4633 90.3258 72.2584 89.5597 72.8441C89.1532 73.1549 88.0771 73.7014 87.3313 73.9758C86.3404 74.3405 85.7394 74.4383 84.3601 74.4594C83.6247 74.4707 82.9394 74.4649 82.8373 74.4465V74.4465ZM23.5613 74.3426C23.5613 74.3012 23.5935 74.2093 23.633 74.1384C23.6724 74.0674 23.7745 73.8423 23.8599 73.638C23.9452 73.4337 24.0445 73.1997 24.0805 73.118C24.1164 73.0363 24.3502 72.4848 24.5999 71.8924C24.8496 71.3 25.0842 70.7485 25.1213 70.6668C25.1584 70.585 25.2754 70.3009 25.3812 70.0354C25.4869 69.7698 25.6036 69.4857 25.6404 69.404C25.6772 69.3223 25.7784 69.0883 25.8653 68.884C25.9522 68.6797 26.071 68.4073 26.1293 68.2785C26.1877 68.1498 26.2354 68.0226 26.2354 67.9959C26.2354 67.9538 26.3778 67.6114 26.6075 67.1013C26.6443 67.0196 26.761 66.7354 26.8668 66.4699C26.9726 66.2043 27.0895 65.9202 27.1267 65.8385C27.1639 65.7568 27.2809 65.4727 27.3867 65.2071C27.4925 64.9416 27.6092 64.6574 27.646 64.5757C27.6828 64.494 27.7834 64.26 27.8696 64.0558C27.9557 63.8515 28.0557 63.6175 28.0917 63.5358C28.1277 63.4541 28.3114 63.0195 28.5001 62.5702C28.6887 62.1208 28.873 61.6862 28.9097 61.6045C28.9463 61.5228 29.1134 61.1217 29.2809 60.7131C29.4484 60.3046 29.6153 59.9035 29.6518 59.8218C29.6884 59.74 29.8351 59.3891 29.978 59.0418C30.7786 57.0963 30.962 56.6564 31.1396 56.2563C31.1759 56.1746 31.2927 55.8904 31.3993 55.6249C31.5059 55.3593 31.6579 55 31.7373 54.8264L31.8815 54.5107H32.689H33.4966L33.6627 54.9007C33.8692 55.3858 34.0963 55.9122 34.1834 56.1077C34.4363 56.6754 34.5548 56.9599 34.5548 56.9991C34.5548 57.0406 34.6973 57.377 34.9687 57.976C35.0271 58.1047 35.0748 58.2319 35.0748 58.2586C35.0748 58.3006 35.1897 58.5773 35.4462 59.1532C35.6991 59.721 35.8176 60.0054 35.8176 60.0446C35.8176 60.0695 35.8869 60.2468 35.9715 60.4386C36.0562 60.6305 36.1754 60.9044 36.2365 61.0474C36.2976 61.1904 36.3773 61.3742 36.4135 61.4559C36.4498 61.5376 36.566 61.8218 36.6718 62.0873C36.7776 62.3529 36.894 62.637 36.9305 62.7187C36.967 62.8004 37.2015 63.352 37.4518 63.9443C37.702 64.5367 37.9366 65.0883 37.9731 65.17C38.0095 65.2517 38.0938 65.4522 38.1604 65.6157C38.8434 67.2932 39.1147 67.9527 39.199 68.1412C39.2539 68.2638 39.4364 68.6983 39.6046 69.1069C39.7728 69.5154 39.9404 69.9165 39.977 69.9982C40.0136 70.0799 40.114 70.3139 40.2002 70.5182C40.2863 70.7225 40.3869 70.9565 40.4237 71.0382C40.4605 71.1199 40.5772 71.404 40.683 71.6695C40.7888 71.9351 40.9055 72.2192 40.9424 72.3009C41.3022 73.098 41.7601 74.2227 41.7601 74.3095C41.7601 74.3995 41.5782 74.4179 40.688 74.4179C39.6409 74.4179 39.6147 74.414 39.5649 74.2508C39.5194 74.1014 39.3466 73.6821 39.1595 73.2666C39.1227 73.1849 39.0055 72.9007 38.8989 72.6352C38.7174 72.1826 38.5705 71.8326 38.4157 71.4838C38.3795 71.4021 38.2632 71.118 38.1574 70.8524C38.0517 70.5869 37.935 70.3028 37.8982 70.2211C37.6729 69.7208 37.5261 69.369 37.5261 69.3297C37.5261 69.3048 37.4639 69.1442 37.388 68.9728C37.3121 68.8014 37.2037 68.5525 37.1471 68.4198L37.0441 68.1783H32.6517H28.2593L28.1094 68.5312C28.027 68.7252 27.8682 69.118 27.7564 69.404C27.6446 69.69 27.4907 70.0642 27.4143 70.2356C27.3378 70.4069 27.2753 70.5676 27.2753 70.5925C27.2753 70.6318 27.1285 70.9835 26.9032 71.4838C26.8664 71.5655 26.7497 71.8497 26.6439 72.1152C26.5381 72.3808 26.4205 72.6649 26.3824 72.7466C26.3444 72.8283 26.1925 73.196 26.0449 73.5637C25.8973 73.9314 25.7592 74.274 25.738 74.3251C25.6891 74.443 23.5613 74.4602 23.5613 74.3426V74.3426ZM36.5604 66.5401C36.5604 66.4692 36.4509 66.202 36.1465 65.5302C36.0882 65.4014 36.0404 65.2727 36.0404 65.2442C36.0404 65.2157 35.9919 65.0871 35.9325 64.9584C35.8732 64.8296 35.6385 64.2563 35.4111 63.6844C35.1837 63.1124 34.9666 62.5776 34.9288 62.4959C34.8909 62.4142 34.7063 61.9462 34.5185 61.4559C34.3307 60.9657 34.1474 60.4977 34.111 60.416C34.0747 60.3343 33.9949 60.1504 33.9338 60.0075C33.8727 59.8645 33.7535 59.5905 33.6688 59.3987C33.5842 59.2069 33.5147 59.0231 33.5144 58.9902C33.5144 58.9573 33.4708 58.8468 33.4181 58.7447C33.3653 58.6425 33.2418 58.3417 33.1435 58.0761C33.0452 57.8106 32.9216 57.5098 32.8689 57.4076C32.8161 57.3055 32.7728 57.1801 32.7725 57.1291C32.7713 56.9729 32.6366 57.0259 32.5831 57.2034C32.5554 57.2953 32.4886 57.4708 32.4346 57.5933C32.3806 57.7159 32.1988 58.1504 32.0305 58.559C31.8622 58.9675 31.6273 59.5358 31.5084 59.8218C31.3896 60.1077 30.7586 61.6286 30.1063 63.2015C29.4539 64.7744 28.8672 66.1867 28.8024 66.3399L28.6847 66.6185H32.6225C35.3348 66.6185 36.5604 66.5941 36.5604 66.5401V66.5401ZM43.8399 64.4643V54.5107L47.9811 54.5119C52.3062 54.5132 53.0894 54.553 53.783 54.8115C54.2724 54.9939 55.0311 55.3699 55.1698 55.4988C55.2229 55.5481 55.3778 55.6714 55.5142 55.7727C56.4725 56.4854 57.388 57.9083 57.7373 59.2282C58.0755 60.5061 57.9372 62.246 57.4009 63.4585C56.6312 65.199 55.3357 66.4036 53.7002 66.8995C53.3723 66.9989 52.7202 67.022 49.5781 67.0456L45.8455 67.0736V70.7461V74.4186H44.8427H43.8399V64.465V64.4643ZM52.6554 65.201C54.0256 65.0115 55.1361 63.9675 55.691 62.3473C55.8818 61.7899 55.9253 60.2514 55.7676 59.6331C55.5533 58.793 55.1607 58.0955 54.5776 57.5191C54.2883 57.2331 53.9518 56.949 53.8297 56.8878C53.7077 56.8266 53.5911 56.7585 53.5707 56.7365C53.5503 56.7144 53.3831 56.6316 53.1993 56.5525C52.8872 56.418 52.6326 56.407 49.3553 56.3847L45.8455 56.3609V60.8211V65.2814H48.9599C50.7862 65.2814 52.3147 65.2482 52.6554 65.201V65.201ZM56.8153 74.3622C56.7974 74.3316 56.9109 74.0057 57.0674 73.638C57.224 73.2703 57.6405 72.2675 57.9931 71.4095C58.3456 70.5516 58.6792 69.7494 58.7343 69.6268C58.7895 69.5043 58.9728 69.0697 59.1418 68.6612C59.4376 67.9457 59.5981 67.5653 59.7373 67.2498C59.7734 67.1681 59.9405 66.767 60.1087 66.3585C60.2769 65.9499 60.4587 65.5154 60.5127 65.3928C60.5667 65.2703 60.7831 64.7521 60.9936 64.2415C61.2041 63.7308 61.4731 63.079 61.5914 62.793C61.8435 62.1833 62.6867 60.1858 62.7828 59.9703C62.8193 59.8886 62.9357 59.6045 63.0415 59.3389C63.1473 59.0734 63.2639 58.7893 63.3008 58.7075C63.3375 58.6258 63.4387 58.3918 63.5256 58.1876C63.6125 57.9833 63.7313 57.7108 63.7897 57.5821C63.848 57.4534 63.8957 57.3262 63.8957 57.2995C63.8957 57.2575 64.0106 56.9808 64.2671 56.4048C64.4147 56.0736 64.6266 55.5632 64.7915 55.1421C64.8875 54.8969 64.9967 54.6546 65.0342 54.6035C65.0814 54.5392 65.3481 54.5107 65.9014 54.5107H66.7004L66.7973 54.7521C66.9921 55.2373 67.8453 57.2626 68.0568 57.7419C68.0928 57.8236 68.2594 58.2247 68.4268 58.6333C68.5943 59.0418 68.7621 59.4429 68.7997 59.5246C68.8373 59.6063 69.1212 60.2916 69.4307 61.0474C69.7401 61.8032 70.0234 62.4884 70.0601 62.5702C70.0968 62.6519 70.3006 63.1365 70.5131 63.6472C71.0151 64.8543 71.5369 66.0965 71.6208 66.2842C71.6572 66.3659 71.7576 66.5999 71.8438 66.8041C71.9299 67.0084 72.0305 67.2424 72.0673 67.3241C72.1041 67.4058 72.2214 67.69 72.3279 67.9555C72.5094 68.4081 72.6563 68.7581 72.8111 69.1069C72.8474 69.1886 72.9642 69.4727 73.0707 69.7382C73.1772 70.0038 73.3124 70.3264 73.3711 70.4551C73.4299 70.5839 73.4779 70.7122 73.4779 70.7402C73.4779 70.7683 73.5782 71.0079 73.7008 71.2727C73.8233 71.5375 73.9236 71.7719 73.9236 71.7935C73.9236 71.8151 73.9717 71.9381 74.0304 72.0669C74.0891 72.1956 74.2243 72.5182 74.3308 72.7837C74.4374 73.0493 74.5546 73.3334 74.5914 73.4151C74.8487 73.9865 74.9636 74.2718 74.9636 74.3396C74.9636 74.459 72.9237 74.4451 72.8274 74.3251C72.7864 74.274 72.4607 73.5136 72.1037 72.6352C71.7466 71.7568 71.4105 70.9379 71.3567 70.8153C71.3028 70.6927 71.1716 70.3752 71.0651 70.1096C70.9586 69.8441 70.8414 69.56 70.8046 69.4783C70.7038 69.2546 70.4681 68.6923 70.3606 68.4192L70.2654 68.1772L65.8463 68.1963L61.4272 68.2155L60.9874 69.2926C60.7455 69.8849 60.5154 70.447 60.4761 70.5416C60.4367 70.6362 60.4045 70.7299 60.4045 70.7499C60.4045 70.7817 60.2433 71.1641 60.0324 71.6324C59.9956 71.7141 59.8783 71.9982 59.7718 72.2638C59.6653 72.5293 59.5343 72.8469 59.4807 72.9694C59.4271 73.092 59.2722 73.4681 59.1364 73.8051L58.8897 74.4179H57.8688C57.3072 74.4179 56.8332 74.3929 56.8153 74.3622V74.3622ZM69.7639 66.5791C69.7639 66.5424 69.5081 65.9058 69.2873 65.3928C69.2345 65.2703 69.1128 64.9527 69.0169 64.6872C68.9209 64.4216 68.7992 64.1208 68.7465 64.0186C68.6937 63.9165 68.6504 63.806 68.6501 63.7731C68.6489 63.7214 68.5188 63.403 68.2776 62.8673C68.2408 62.7856 68.1235 62.5014 68.017 62.2359C67.9105 61.9703 67.7795 61.6528 67.726 61.5302C67.6724 61.4076 67.5672 61.1402 67.4921 60.936C67.417 60.7317 67.3127 60.481 67.2603 60.3789C67.2079 60.2767 67.1648 60.1648 67.1645 60.1301C67.1645 60.0954 67.1157 59.9617 67.0567 59.833C66.9977 59.7042 66.8264 59.2814 66.6762 58.8932C66.5259 58.5051 66.345 58.0539 66.2741 57.8905C66.2032 57.727 66.0989 57.4846 66.0422 57.3518C65.9137 57.0505 65.8295 57.0746 65.7029 57.449C65.6485 57.6101 65.5724 57.8087 65.5338 57.8905C65.4953 57.9722 65.3932 58.2061 65.3071 58.4104C65.2209 58.6147 65.1202 58.8487 65.0833 58.9304C65.0229 59.0642 64.2148 60.9958 63.2186 63.3872C63.0144 63.8775 62.8175 64.3455 62.781 64.4272C62.7445 64.5089 62.5782 64.91 62.4114 65.3185C62.2446 65.7271 62.0591 66.1711 61.9991 66.3053C61.9392 66.4394 61.8901 66.5648 61.8901 66.5838C61.8901 66.6029 63.6617 66.6185 65.827 66.6185C67.9923 66.6185 69.7639 66.6007 69.7639 66.5791V66.5791ZM94.6831 74.3273C94.6632 74.275 94.6555 69.8032 94.666 64.39L94.6851 54.5478H95.6507H96.6164L96.6355 58.9489L96.6547 63.3501H102.485H108.316V58.9304V54.5107H109.318H110.321V64.4643V74.4179H109.318H108.316V69.7754V65.1328H102.485H96.6547L96.6355 69.7568L96.6164 74.3808L95.6678 74.4016C94.9501 74.4173 94.7105 74.3993 94.6831 74.3273V74.3273ZM114.704 64.4643V54.5107H121.24H127.777V55.4392V56.3677H122.243H116.709V59.8589V63.3501H121.538H126.366V64.2415V65.1328H121.538H116.709V68.8469V72.5609H122.355H128V73.4894V74.4179H121.352H114.704V64.4643Z"/><defs><linearGradient id="a" x1="18.437" x2="28.683" y1="44.156" y2="41.307" gradientUnits="userSpaceOnUse"><stop stop-color="#F59723"/><stop offset=".312" stop-color="#F69822"/><stop offset=".838" stop-color="#E87726"/></linearGradient><linearGradient id="b" x1="-3.991" x2="16.849" y1="90.141" y2="45.448" gradientUnits="userSpaceOnUse"><stop offset=".323" stop-color="#9C2063"/><stop offset=".63" stop-color="#C82037"/><stop offset=".751" stop-color="#CC2135"/><stop offset="1" stop-color="#E87726"/></linearGradient><linearGradient id="c" x1="3.002" x2="15.421" y1="86.834" y2="60.201" gradientUnits="userSpaceOnUse"><stop stop-color="#282661"/><stop offset=".095" stop-color="#662E8C"/><stop offset=".788" stop-color="#9E2064"/><stop offset=".949" stop-color="#CC2032"/></linearGradient><linearGradient id="d" x1="-3.24" x2="17.6" y1="87.435" y2="42.743" gradientUnits="userSpaceOnUse"><stop offset=".323" stop-color="#9C2063"/><stop offset=".63" stop-color="#C82037"/><stop offset=".751" stop-color="#CC2135"/><stop offset="1" stop-color="#E87726"/></linearGradient><linearGradient id="e" x1="-1.114" x2="9.839" y1="84.459" y2="60.971" gradientUnits="userSpaceOnUse"><stop stop-color="#282661"/><stop offset=".095" stop-color="#662E8C"/><stop offset=".788" stop-color="#9E2064"/><stop offset=".949" stop-color="#CC2032"/></linearGradient><linearGradient id="f" x1="1.387" x2="22.228" y1="89.593" y2="44.9" gradientUnits="userSpaceOnUse"><stop offset=".323" stop-color="#9C2063"/><stop offset=".63" stop-color="#C82037"/><stop offset=".751" stop-color="#CC2135"/><stop offset="1" stop-color="#E87726"/></linearGradient><linearGradient id="g" x1="-.137" x2="20.703" y1="92.257" y2="47.565" gradientUnits="userSpaceOnUse"><stop offset=".323" stop-color="#9C2063"/><stop offset=".63" stop-color="#C82037"/><stop offset=".751" stop-color="#CC2135"/><stop offset="1" stop-color="#E87726"/></linearGradient><linearGradient id="h" x1="2.761" x2="23.601" y1="90.233" y2="45.541" gradientUnits="userSpaceOnUse"><stop offset=".323" stop-color="#9C2063"/><stop offset=".63" stop-color="#C82037"/><stop offset=".751" stop-color="#CC2135"/><stop offset="1" stop-color="#E87726"/></linearGradient><linearGradient id="i" x1="2.605" x2="23.445" y1="90.161" y2="45.468" gradientUnits="userSpaceOnUse"><stop offset=".323" stop-color="#9C2063"/><stop offset=".63" stop-color="#C82037"/><stop offset=".751" stop-color="#CC2135"/><stop offset="1" stop-color="#E87726"/></linearGradient><linearGradient id="j" x1="14.281" x2="18.887" y1="65.038" y2="55.16" gradientUnits="userSpaceOnUse"><stop offset=".323" stop-color="#9C2063"/><stop offset=".63" stop-color="#C82037"/><stop offset=".751" stop-color="#CC2135"/><stop offset="1" stop-color="#E87726"/></linearGradient></defs></g></svg>
