<svg xmlns="http://www.w3.org/2000/svg" viewBox="0 0 128 128"><path fill-rule="evenodd" d="M32 127.954c.727-.183 1.678-1.067 1.85-1.628 2.849-9.269 7.627-24.153 13.765-40.623C53.09 71.015 59.661 55.07 66.925 40.71c4.412-8.723 9.03-16.89 13.871-23.8 2.523-3.599 5.05-6.851 7.725-9.679-2.52 2.781-4.855 6.11-7.265 9.819-4.599 7.079-9.258 15.5-13.547 24.318-7.645 15.72-14.359 32.63-19.02 45.36a476.242 476.242 0 00-4.197 11.903c1.171.427 2.687 2.491 3.565 4.195-.089-1.921-.878-3.78-2.464-5.245 6.912.286 13.564-1.299 16.665-7.85-2.003 2.401-3.976 2.284-6.348 2.284 1.844-.85 3.925-1.798 5.994-3.621 2.068-1.824 3.43-3.884 4.825-6.672-3.687 3.546-7.802 5.671-14.352 4.58 2.578-.43 9.785-2.183 16.268-10.237 4.478-5.563 7.26-12.891 9.129-18.742-1.223.695-3.314 1.26-5.01 1.489 5.063-1.98 7.574-5.991 8.894-8.711-1.87 1.202-3.324 1.966-6.195 2.42 2.483-.92 4.882-2.723 6.417-4.764 1.568-2.085 3.702-7.019 4.241-9.895-1.122.937-4.463 1.986-6.42 2.222 1.595-.712 4.416-1.799 7.223-5.965 4.342-6.445 7.599-13.749 8.545-18.83.9-4.833.217-8.402-1.034-10.862C93.425 2.436 90.93 0 88.521 0c-1.878 0-3.706 1.608-6.146 4.075a67.798 67.798 0 00-5.25 5.936c-4.422 5.566-9.77 12.947-14.969 21.285C53.868 44.589 45.965 60.494 42.82 76.25c-.645 3.228-1.1 6.434-1.306 9.628-.946-1.43-2.66-3.004-5.481-4.682 1.048 1.365 5.326 7.764 5.326 12.316-.921.185-3.578 0-6.005-1.025 1.523 1.428 3.17 2.603 5.099 3.105-2.35.231-4.64 1.694-7.111 3.59 3.113-1.227 5.999-2.052 8.494-1.546-3.159 8.733-8.188 24.632-9.835 30.318z" clip-rule="evenodd"/></svg>
