<svg xmlns="http://www.w3.org/2000/svg" viewBox="0 0 128 128"><g><path fill="#303284" d="M14.8 71l-7.4 20h5.2l1.4-4h7.5l1.4 4h5.4l-7.4-20h-6.1zm.5 12l2.5-7.2 2.5 7.2h-5zM40.8 75.2c-1 0-1.8.2-2.6.6-.8.4-1.2.9-2.2 1.4v-1.2h-5v20h5v-5.9c0 .3 1.1.6 1.7.8.6.2 1.3.3 2.1.3.9 0 1.8-.2 2.6-.5s1.5-.9 2.2-1.6c.6-.7 1.1-1.5 1.5-2.5.4-1 .6-2.2.6-3.4 0-2.4-.5-4.3-1.6-5.7s-2.4-2.3-4.3-2.3zm0 11.4c-.6.8-1.6 1.1-2.9 1.1-.4 0-.6 0-1-.1-.4 0-.9-.1-.9-.2v-7.6c0-.3.8-.5 1.3-.6s.9-.2 1.4-.2c1.1 0 1.9.3 2.4 1s.7 1.7.7 3.2c-.1 1.5-.4 2.6-1 3.4zM62.3 76.5c-1.2-.9-3.2-1.3-5.9-1.3-1.2 0-2.5.1-3.7.3-1.2.2-1.7.4-2.7.5v4h.9c.4 0 1.1-.5 2-.8s1.8-.5 2.6-.5c1.3 0 2.1.1 2.8.4s.7.9.7 1.7v.1c-1 .1-2.6.2-3.9.4s-2.3.5-3.2.9c-.9.4-1.6 1-2 1.7-.5.7-.7 1.6-.7 2.7 0 1.4.5 2.5 1.5 3.4 1 .9 2.2 1.3 3.6 1.3.6 0 1.2-.1 1.7-.2s1-.3 1.5-.5c.3-.2.5-.4.9-.7s.7-.5.7-.7v1.8h5v-10.5c-.1-1.8-.6-3.1-1.8-4zm-3.3 10.4c0 .3-.6.6-1.1.8-.5.2-.9.3-1.4.3-.6 0-1 0-1.3-.1-.3-.1-.5-.2-.7-.4-.2-.2-.3-.4-.4-.6-.1-.2-.1-.5-.1-.8 0-.5.1-.9.4-1.2.3-.3.6-.5 1.1-.7.4-.1.7-.2 1.5-.3l1.9-.2v3.2zM76.5 75.2c-1.2 0-2.3.1-3.3.4-1.1.3-2 .8-2.8 1.4-.8.7-1.5 1.5-2 2.6s-.7 2.3-.7 3.7c0 1.3.2 2.5.7 3.5s1.1 1.8 1.9 2.5c.8.7 1.8 1.1 2.9 1.5 1.1.3 2.3.5 3.6.5 1 0 2-.1 2.8-.3.8-.2 1.5-.5 2.5-.9v-4.1h-.8c-.2 0-.4.4-.6.6-.2.2-.5.4-.8.6-.3.2-.7.3-1.2.5-.5.1-1 .2-1.7.2-1.3 0-2.3-.4-3-1.1s-1.1-1.9-1.1-3.3.3-2.5 1-3.4c.7-.8 1.7-1.2 3-1.2.6 0 1.1.1 1.5.2.4.1.8.3 1.2.5.4.2.7.6 1 .8.3.2.5-.2.7.8h.7v-4.5c-1-.4-1.6-.7-2.5-.9-.9-.4-1.9-.6-3-.6zM95.1 75.2c-1 0-1.8.2-2.6.5-.8.4-1.5.9-2.5 1.6v-7.3h-5v21h5v-10.9c1-.3 1-.5 1.5-.7.5-.1.9-.2 1.3-.2.6 0 1.1.1 1.5.2.3.2.6.4.8.7.2.3 0 .7.1 1.3.1.6-.1 1.2-.1 1.8v7.8h5v-10c0-1.9-.3-3.3-1.2-4.3-1-1-2.1-1.5-3.8-1.5zM112.4 75.2c-2.7 0-4.8.7-6.3 2.2-1.5 1.5-2.3 3.5-2.3 6s.8 4.5 2.4 5.9c1.6 1.4 4 2.1 7 2.1 1.2 0 2.5-.1 3.5-.3s1.4-.5 3.4-1v-4h-1c-.6 1-1.3.9-2.3 1.2-1 .4-2 .6-3 .6-1.6 0-2.9-.4-3.7-1-.8-.6-1.3-1.8-1.4-2.8h11.3v-1.5c0-2.3-.7-4.1-2-5.4-1.2-1.4-3.2-2-5.6-2zm-3.8 5.8c.1-1 .4-1.7 1-2.2.6-.5 1.4-.7 2.3-.7 1 0 1.8.1 2.2.7.5.5.7 1.2.8 2.2h-6.3zM127.3 58.4l-.2-.1v-.4l-.1-.4-.2-.3-.4-.2h-.1l-.1-.2-.3-.2-.3-.2-.4-.1h-.2l-.4-.4-.5-.3-.6-.3-.6-.2h-.2l-.5-.6-.6-.4-.6-.3-.6-.2h-.1l-.6-.4-.8-.3-.5-.1-.5-.4-.5-.2-.5-.1-.5-.1h-.5l-.6.1h-.1l-.4-.6-.6-.4-.8-.2h-.9l-1 .2-.4.1-.8-.3-.8-.2h-2.6000000000000005l-1-.4-.9-.3-.9-.1h-.6l-.8-.8-.9-.6-.8-.4-.8-.2h-.8l-.4.3-.5-.4-.6-.3-.7-.1-.6.1-.7-.3-.7-.2h-1l-1.1-.4-1.2-.3-1.1-.1h-.2l-1.2-.7-1.2-.3h-1.1.1l-1.7-.4-1.1-.1h-.5l-.7-.7-.8-.5-.9-.2-.9.1-.6.2-.8-.1h-1.8000000000000003v-.2l-1.4-.3-1.4-.2-1.3-.1-.5.1v-.1l-1-.1-1-.1h-.1l-1.1-.5-1.1-.3-1-.1h-.8l-1.1-.4-.9-.2h-1l-1.1-.8-.9-.3-.7-.1-.8-.4-1.2-.2h-1.1l-1.1-.5-1-.2h-.6l-1.2-.6-1-.3-1-.1-.3.1h.1l-1.4-.8-1.1-.4-1-.1h-.1l-.7-.5-.6-.3-.6-.2-.7-.1-.7.1-.8-.6-.7-.3-.9-.1h-.8l-.9.2-.2.1-1-.5-1-.3h-.9l-.8-.5-.7-.3h-.8l-.7.1-.7.2h-.1l-.7-.7-.6-.4-.7-.1-.7.1-.6.3-.2-.1-.3-.2-.3-.1-.3-.1h-.7l-.3.1-.5.3-.1.1-.9-.2h-.8l-.7.2-.6.5-.4.5-.3.7-.3.8-.2.8-.1.8-.1 1.6.1 1.8v.3c-.5-.2-1-.4-1.6-.6v-.4l.1-.6.1-1.3.1-1.2-.1-1.2-.1-.6-.1-.5-.1-.5-.2-.5-.2-.4-.3-.4-.3-.4-.6-.5.2.9.1.6.1.6.1.5.1.6.1.5v.1-.1l-.1-.3-.1-.3-.2-.6-.3-1-.1-.3-.2-1.3v-.4l.1-.7.1-.3.2-.7h-.2l-.5.6-.3.7-.3.7-.1.6v1.4l.1.7.1.7-.1-.1-.3-.4-.3-.4-.2-.5-.2-.5-.2-.5-.1-.7-.1-1-.7.6-.3.6-.2.6v.6l.1.6.2.6.3.6.1.2-.2.2-.6-.1-.1.2.4.2.4.3 1 .8.3.3.5.6.5.5.5.5.4.4.3.4.2.2c-5.7-2.3-11.7-5-19.1-8.5l-.4-.2.2.4c1 1.7 3.9 3.4 6.4 5 1.2.7 2.3 1.4 3.1 2 2.4 1.3 5.6 2.7 8.4 3.8h-.2l-2 .4-1.4.3-1.4.5-.7.3-.7.2-.6.4-.5.4-.5.5-.4.5-.3.6-.2.7.2.1.2-.2.5-.5.2-.2.6-.4.3-.2.3-.2.6-.3.4-.1.3-.1.7-.2.7-.1.6-.2 1.3-.7.6-.4.6-.4.5-.3.4-.2.3-.1.6.2-2.4 1.2-1.3.8-.7.5-.6.5-.6.5-.5.6-.3.5-.2.6-.1.6.1.7.4.9.5-1 .4-.6.4-.5.4-.4.4-.3.9-.6.4-.2-.1.4-.2.8v.9l.1 1 .3 1.1h.2l.2-1.1.3-1 .2-.5.4-.9.5-.9.8-1.4 1.1-1.8c.4.2.8.3 1.2.4l-.1.2-.7 1.4-.4.6-.3.7-.1.7-.2.7-.1.7v.7l.1.6.3.6.5.5.7.4.8.3.3.6.4.5.4.4.4.3.4.2.4.1h1v.1l.4.6.6.5.7.3h.8l.8-.2.2.2.6.6.6.4.7.3.8.1h.6l.6.4.7.3.8.2.6.5.8.4 1 .2 1.1.1h.2l.7.6.8.4.7.3.8.1.9-.2.4.2.6.3.6.1h.6l.6-.1.3.2 1 .3 1.1.1 1.3-.1.4.2.9.3 1 .1 1.4-.1h.1l.9.3 1 .1 1.1-.1.4.3 1 .4 1 .1 1.1-.1v-.1l.6.2h1l1.1-.2.7.2h.8l.8-.1 1.1.2.3.2 1 .3 1 .2 1.1.1 1.1-.1v-.1l.6.2.9.1.9.1v-.1l.6.2 1.2.4 1.3.3 1.4-.3v-.1h.2l.9.2.8.1h.9l.1.1.8.6.8.4h1.3l.8-.4.7-.6.9.1 1.1-.1h1.2v.1l.3.2 1.1.2 1.1-.1 1.1-.5h1l1.2.1 1-.1.6.1h1.4l.9-.1.5.2.6.1.6-.1.6-.3.1.1.8.1h2.5l.8-.3 1.1-.4h1.6l.8-.1.5.2.8.2.8.1.8-.1.9-.2.2.1.9.4.8.3h.8l.6-.3.5-.5.3.1.5.1.5.1h.5l.5-.1.5-.2.7.1.8-.1.7-.3h.7l.6-.1.6-.3.5-.4.1-.1.6.1.6-.1.5.1h.8999999999999999l.4-.3.3-.2.1-.2h.1l.3-.1.3-.2.2-.5.1-.6h.2l.3-.1.1-.3.1.1v-.8l-.3-.4zm-106.4-16l-.3.2.2-.5.3.1-.2.2zm.5-2.9l-.2-.2-.2-.4v-2.4l.1-.8.1.1.1.5.1.5.1.5.3 1.6.2.7c-.3 0-.5-.1-.6-.1z"/></g></svg>
