<svg xmlns="http://www.w3.org/2000/svg" fill="none" viewBox="0 0 128 128"><path d="M53.343 127.515c-13.912-2.458-25.845-8.812-35.707-19.004C9.252 99.845 3.48 88.926.851 76.764-.284 71.51-.284 56.477.85 51.222c1.776-8.219 5.228-16.388 9.927-23.509 3.112-4.71 12.227-13.825 16.938-16.937 7.121-4.698 15.292-8.15 23.511-9.925 5.256-1.135 20.29-1.135 25.546 0 12.809 2.769 23.454 8.553 32.638 17.736 9.188 9.187 14.969 19.827 17.738 32.635 1.135 5.255 1.135 20.287 0 25.542-2.769 12.808-8.55 23.452-17.738 32.635-9.043 9.042-19.55 14.81-32.146 17.652-4.469 1.005-19.24 1.295-23.922.464zm11.565-12.772c0-4.194-.06-4.496-.908-4.496-.84 0-.904.29-.868 3.899.04 4.262.34 5.574 1.207 5.284.404-.134.57-1.494.57-4.687zm-6.758 1.445c1.196-1.194 1.543-1.917 1.543-3.209 0-1.315-.162-1.634-.763-1.517-.416.08-.92.759-1.114 1.505-.198.751-1.002 1.906-1.785 2.572-1.417 1.194-1.47 2.191-.121 2.191.384 0 1.393-.694 2.24-1.542zm14.945 1.05c.166-.271-.339-1.037-1.126-1.699-.783-.666-1.587-1.821-1.784-2.572-.194-.746-.699-1.425-1.115-1.505-.601-.117-.763.202-.763 1.517 0 2.608 3.747 5.942 4.788 4.259zm-20.66-8.146c0-.262-.635-.823-1.41-1.247-5.058-2.769-10.984-7.177-14.282-10.612-6.435-6.704-9.33-13.385-9.402-21.676-.044-5.542.67-8.432 3.367-13.607 2.608-5 5.631-8.779 13.947-17.42 9.29-9.648 11.429-12.195 13.043-15.53 1.147-2.369 1.296-3.232 1.458-8.238.197-6.216-.182-10.506-.929-10.506-.339 0-.403 1.614-.21 5.235.622 11.593-1.53 15.19-14.892 24.88-9.2 6.677-13.422 10.302-16.612 14.261-4.517 5.615-6.52 10.471-7.02 17.054-1.207 15.868 8.85 29.628 26.591 36.385 3.916 1.49 6.35 1.881 6.35 1.021zm30.696-1.287c6.1-2.539 10.738-5.611 15.11-10.007 6.665-6.7 9.442-12.965 9.858-22.24.363-8.134-1.405-13.515-6.439-19.61-3.447-4.173-7.161-7.16-17.173-13.812-13.47-8.95-16.632-12.513-16.632-18.746 0-1.659.299-4.004.662-5.219.622-2.066.606-3.491-.02-1.857-.593 1.546-1.946.836-2.676-1.408l-.703-2.156.267 2.043c.94 7.241 1.061 10.272.641 16.614-.56 8.565-1.614 14.426-4.505 25.074-2.87 10.572-3.387 14.402-3.031 22.475.298 6.826 1.255 11.932 3.475 18.592 2.06 6.188 2.443 6.656 6.23 7.625 2.086.533 4.06 1.433 5.63 2.567 1.474 1.066 2.952 1.76 3.78 1.776.75.012 3.237-.759 5.526-1.711zm-1.369-3.076c-.565-.565-.302-1.046 1.91-3.492 6.972-7.697 10.096-15.645 10.185-25.906.06-6.995-1.482-11.625-6.197-18.592-2.135-3.152-9.636-11.011-13.265-13.893-2.664-2.115-5.397-5.72-5.886-7.762-.496-2.067.888-1.522 2.495.985.787 1.227 2.495 3.027 3.79 4 1.297.977 5.132 3.834 8.523 6.357 11.666 8.67 16.858 16.065 18.024 25.668.679 5.558-.395 11.302-3.108 16.634-2.81 5.526-7.937 11.545-12.325 14.479-2.7 1.8-3.552 2.115-4.146 1.522zm-22.836.585c.133-.343-1.034-2.535-2.592-4.872-4.13-6.192-5.926-9.61-7.602-14.454-1.413-4.09-1.49-4.646-1.501-10.887-.016-9.433 1.005-12.424 8.49-24.848 7.056-11.722 8.013-16.259 7.217-34.286-.286-6.462-.61-11.839-.718-11.948-.747-.746-.904 1.167-.63 7.665.549 12.941-.287 20.15-3.016 26.064-1.857 4.024-3.936 7.076-9.53 14.002-7.788 9.64-9.984 14.75-9.944 23.125.029 5.744.808 9.276 3.129 14.188 2.51 5.316 7.133 10.685 12.926 15.012 2.669 1.99 3.391 2.228 3.77 1.239z" fill="#000"/></svg>