<?xml version="1.0" encoding="UTF-8"?>
<svg xmlns="http://www.w3.org/2000/svg" xmlns:xlink="http://www.w3.org/1999/xlink" width="128" height="128" viewBox="0 0 128 128" version="1.1">
<g id="surface1">
<path style=" stroke:none;fill-rule:nonzero;fill:rgb(0%,0%,0%);fill-opacity:1;" d="M 53.6875 125.464844 C 40.226562 123.085938 28.679688 116.9375 19.136719 107.074219 C 11.023438 98.6875 5.4375 88.121094 2.894531 76.351562 C 1.796875 71.265625 1.796875 56.71875 2.894531 51.632812 C 4.613281 43.679688 7.953125 35.773438 12.5 28.882812 C 15.511719 24.324219 24.332031 15.503906 28.890625 12.492188 C 35.78125 7.945312 43.6875 4.605469 51.640625 2.886719 C 56.726562 1.789062 71.273438 1.789062 76.359375 2.886719 C 88.753906 5.566406 99.054688 11.164062 107.941406 20.050781 C 116.832031 28.941406 122.425781 39.238281 125.105469 51.632812 C 126.203125 56.71875 126.203125 71.265625 125.105469 76.351562 C 122.425781 88.746094 116.832031 99.046875 107.941406 107.933594 C 99.191406 116.683594 89.023438 122.265625 76.835938 125.015625 C 72.511719 125.988281 58.21875 126.269531 53.6875 125.464844 Z M 64.878906 113.105469 C 64.878906 109.046875 64.820312 108.753906 64 108.753906 C 63.1875 108.753906 63.125 109.035156 63.160156 112.527344 C 63.199219 116.652344 63.488281 117.921875 64.328125 117.640625 C 64.71875 117.511719 64.878906 116.195312 64.878906 113.105469 Z M 58.339844 114.503906 C 59.496094 113.347656 59.832031 112.648438 59.832031 111.398438 C 59.832031 110.125 59.675781 109.816406 59.09375 109.929688 C 58.691406 110.007812 58.203125 110.664062 58.015625 111.386719 C 57.824219 112.113281 57.046875 113.230469 56.289062 113.875 C 54.917969 115.03125 54.867188 115.996094 56.171875 115.996094 C 56.542969 115.996094 57.519531 115.324219 58.339844 114.503906 Z M 72.800781 115.519531 C 72.960938 115.257812 72.472656 114.515625 71.710938 113.875 C 70.953125 113.230469 70.175781 112.113281 69.984375 111.386719 C 69.796875 110.664062 69.308594 110.007812 68.90625 109.929688 C 68.324219 109.816406 68.167969 110.125 68.167969 111.398438 C 68.167969 113.921875 71.792969 117.148438 72.800781 115.519531 Z M 52.808594 107.636719 C 52.808594 107.382812 52.195312 106.839844 51.445312 106.429688 C 46.550781 103.75 40.816406 99.484375 37.625 96.160156 C 31.398438 89.671875 28.597656 83.207031 28.527344 75.183594 C 28.484375 69.820312 29.175781 67.023438 31.785156 62.015625 C 34.308594 57.175781 37.234375 53.519531 45.28125 45.15625 C 54.269531 35.820312 56.339844 33.355469 57.902344 30.128906 C 59.011719 27.835938 59.15625 27 59.3125 22.15625 C 59.503906 16.140625 59.136719 11.988281 58.414062 11.988281 C 58.085938 11.988281 58.023438 13.550781 58.210938 17.054688 C 58.8125 28.273438 56.730469 31.753906 43.800781 41.132812 C 34.898438 47.59375 30.8125 51.101562 27.726562 54.933594 C 23.355469 60.367188 21.417969 65.066406 20.933594 71.4375 C 19.765625 86.792969 29.496094 100.109375 46.664062 106.648438 C 50.453125 108.089844 52.808594 108.46875 52.808594 107.636719 Z M 82.511719 106.390625 C 88.414062 103.933594 92.902344 100.960938 97.132812 96.707031 C 103.582031 90.222656 106.269531 84.160156 106.671875 75.183594 C 107.023438 67.3125 105.3125 62.105469 100.441406 56.207031 C 97.105469 52.167969 93.511719 49.277344 83.824219 42.839844 C 70.789062 34.179688 67.730469 30.730469 67.730469 24.699219 C 67.730469 23.09375 68.019531 20.824219 68.371094 19.648438 C 68.972656 17.648438 68.957031 16.269531 68.351562 17.851562 C 67.777344 19.347656 66.46875 18.660156 65.761719 16.488281 L 65.082031 14.402344 L 65.339844 16.378906 C 66.25 23.386719 66.367188 26.320312 65.960938 32.457031 C 65.417969 40.746094 64.398438 46.417969 61.601562 56.722656 C 58.824219 66.953125 58.324219 70.660156 58.667969 78.472656 C 58.957031 85.078125 59.882812 90.019531 62.03125 96.464844 C 64.023438 102.453125 64.394531 102.90625 68.058594 103.84375 C 70.078125 104.359375 71.988281 105.230469 73.507812 106.328125 C 74.933594 107.359375 76.363281 108.03125 77.164062 108.046875 C 77.890625 108.058594 80.296875 107.3125 82.511719 106.390625 Z M 81.1875 103.414062 C 80.640625 102.867188 80.894531 102.402344 83.035156 100.035156 C 89.78125 92.585938 92.804688 84.894531 92.890625 74.964844 C 92.949219 68.195312 91.457031 63.714844 86.894531 56.972656 C 84.828125 53.921875 77.570312 46.316406 74.058594 43.527344 C 71.480469 41.480469 68.835938 37.992188 68.363281 36.015625 C 67.882812 34.015625 69.222656 34.542969 70.777344 36.96875 C 71.539062 38.15625 73.191406 39.898438 74.445312 40.839844 C 75.699219 41.785156 79.410156 44.550781 82.691406 46.992188 C 93.980469 55.382812 99.003906 62.539062 100.132812 71.832031 C 100.789062 77.210938 99.75 82.769531 97.125 87.929688 C 94.40625 93.277344 89.445312 99.101562 85.199219 101.941406 C 82.585938 103.683594 81.761719 103.988281 81.1875 103.414062 Z M 59.089844 103.980469 C 59.21875 103.648438 58.089844 101.527344 56.582031 99.265625 C 52.585938 93.273438 50.847656 89.964844 49.226562 85.277344 C 47.859375 81.320312 47.785156 80.78125 47.773438 74.742188 C 47.757812 65.613281 48.746094 62.71875 55.988281 50.695312 C 62.816406 39.351562 63.742188 34.960938 62.972656 17.515625 C 62.695312 11.261719 62.382812 6.058594 62.277344 5.953125 C 61.554688 5.230469 61.402344 7.082031 61.667969 13.371094 C 62.199219 25.894531 61.390625 32.871094 58.75 38.59375 C 56.953125 42.488281 54.941406 45.441406 49.527344 52.144531 C 41.992188 61.472656 39.867188 66.417969 39.90625 74.523438 C 39.933594 80.082031 40.6875 83.5 42.933594 88.253906 C 45.363281 93.398438 49.835938 98.59375 55.441406 102.78125 C 58.023438 104.707031 58.722656 104.9375 59.089844 103.980469 Z M 59.089844 103.980469 "/>
</g>
</svg>
