<svg xmlns="http://www.w3.org/2000/svg" viewBox="0 0 128 128"><path fill="#013755" d="M32.4 86.9h-.6c-.5-.1-.9-.4-1.1-.7-.2-.3-.2-.8-.1-1.3l9.6-35.7c.3-1 1-1.4 2-1.2.5.1.9.4 1.1.8.2.3.2.8.1 1.3l-9.6 35.7c-.2.8-.7 1.2-1.4 1.2Zm9.2-38.2c-.3 0-.5.2-.6.6L31.4 85v.7c0 .2.3.3.6.3.6.2.9 0 1-.6l9.6-35.7v-.6c0-.2-.3-.3-.6-.4h-.4Zm11.1 38.2h-.6c-.5-.1-.9-.4-1.1-.7-.2-.3-.2-.8 0-1.3l9.6-35.7c.3-1 1-1.4 2-1.2.5.1.9.4 1.1.8.2.3.2.8.1 1.3l-9.6 35.7c-.2.8-.7 1.2-1.4 1.2Zm8.6-37.6L51.7 85v.6c0 .2.3.3.6.4.6.2.9 0 1-.6l9.6-35.7v-.6c0-.2-.3-.3-.6-.4-.6-.2-.8 0-1 .6Zm-14.8 22h-.6c-.5-.1-.9-.4-1.1-.7-.2-.3-.2-.8 0-1.3L49 53.6c.3-1 1-1.4 2-1.2.5.1.9.4 1.1.8.2.3.2.8.1 1.3L48 70.2c-.2.8-.7 1.2-1.4 1.2Zm3.2-17.6-4.2 15.7v.6c0 .2.3.3.6.4.6.2.9 0 1-.6l4.2-15.7v-.6c0-.2-.3-.3-.6-.4-.6-.2-.8 0-1 .6Zm71.1 14.4c-2.2 0-4.1-.6-6.3-2-.4-.3-.6-.7-.6-1.3 0-1.3.8-1.8 1.5-1.8s.8.2 1.2.4c1.4.9 2.9 1.4 4.3 1.4s3.6 0 3.6-2.5-1.9-2.2-3.5-2.8c-2.6-.9-6.9-2.5-6.9-5.7s2.8-5.8 7-5.8 3.8.4 5.3 1.2c.5.3.8.9.8 1.5s-.6 1.6-1.5 1.6-.6 0-.9-.3c-.7-.4-2.2-.8-3.8-.8s-3.5.2-3.5 2.2 1.8 1.8 3.8 2.5c.3.1.7.3 1 .4 2.7 1.1 5.7 2.4 5.7 5.6s-3.9 5.9-7.2 5.9Zm-5.5-4.3c-.5 0-.7.3-.7.9s0 .5.2.6c2 1.3 3.9 1.9 5.9 1.9 3.1 0 6.4-1.3 6.4-5.1s-2.5-3.7-5.2-4.9c-.3-.1-.7-.3-1-.4-2.2-.9-4.3-1.7-4.3-3.3s1.7-3 4.4-3 3.2.4 4.2.9c.2 0 .3.1.5.1.3 0 .7 0 .7-.7s-.2-.7-.4-.8c-1.4-.7-3.1-1.1-4.9-1.1-3 0-6.2 1.3-6.2 5s3.3 3.8 6.4 5c1.9.7 4.1 1.7 4.1 3.6s-2.2 3.3-4.5 3.3-3.2-.5-4.8-1.6c-.3-.2-.5-.3-.7-.3Zm-6.6 4.2c-.9 0-1.6-.6-1.6-1.6v-.2c-1.4 1.2-3.3 1.8-5.3 1.8-3.2 0-6.7-1.9-6.7-5.9s3.7-6.2 7.4-6.2 3.4.4 4.6 1.2v-2.3c0-2.1-1.7-3.4-4.5-3.4s-2.2.3-3 .5c-.6.2-1.1.3-1.6.3-.9 0-1.5-.6-1.5-1.4s.5-1.3 1.2-1.6c1.7-.7 3.5-1 5.6-1 4.3 0 7.1 2.5 7.1 6.4v11.8c0 .8-.6 1.6-1.6 1.6Zm-.9-3.7v2.1c0 .2 0 .8.8.8s.8-.4.8-.8V54.6c0-3.4-2.5-5.6-6.3-5.6s-3.7.3-5.3 1c-.4.2-.7.6-.7.8s0 .6.7.6.8-.1 1.4-.3c.8-.2 1.9-.5 3.2-.5 3.3 0 5.4 1.6 5.4 4.2v4.1l-.7-.7c-.9-.9-2.8-1.5-4.7-1.5-3.3 0-6.6 1.9-6.6 5.4s3 5.1 5.9 5.1 4-.8 5.3-2.2l.7-.8ZM29 68c-.9 0-1.6-.6-1.6-1.6v-.2C26 67.4 24.1 68 22.2 68c-3.2 0-6.7-1.9-6.7-5.9s3.7-6.2 7.4-6.2 3.4.4 4.6 1.2v-2.3c0-2.1-1.7-3.4-4.5-3.4s-2.2.3-3 .5c-.6.2-1.1.3-1.6.3-.9 0-1.5-.6-1.5-1.4s.5-1.3 1.2-1.6c1.7-.7 3.5-1 5.6-1 4.3 0 7.1 2.5 7.1 6.4v11.8c0 .8-.6 1.6-1.6 1.6Zm-.9-3.7v2.1c0 .2 0 .8.8.8s.8-.4.8-.8V54.6c0-3.4-2.5-5.6-6.3-5.6s-3.7.3-5.3 1c-.4.2-.7.6-.7.8s0 .6.7.6.8-.1 1.4-.3c.8-.2 1.9-.5 3.2-.5 3.3 0 5.4 1.6 5.4 4.2v4.1l-.7-.7c-.9-.9-2.8-1.5-4.7-1.5-3.3 0-6.6 1.9-6.6 5.4s3 5.1 5.9 5.1 4-.8 5.3-2.2l.7-.8Zm42.1 3.4c-1.1 0-1.7-.6-1.7-1.6V49.8c0-1 .6-1.6 1.6-1.6s1.7.6 1.7 1.6v16.3c0 1-.6 1.6-1.7 1.6ZM70.1 49c-.6 0-.8.2-.8.8v16.3c0 .6.2.8.8.8s.8-.2.8-.8V49.8c0-.6-.3-.8-.9-.8ZM13.4 67.7H2c-.8 0-2-.3-2-2.3V44c0-1.1.6-1.6 1.6-1.6s1.6.6 1.6 1.6v20.4h10.2c1 0 1.6.6 1.6 1.6s-.6 1.6-1.6 1.6ZM1.6 43.3c-.6 0-.8.2-.8.8v21.4c0 1.3.6 1.5 1.2 1.5h11.4c.6 0 .8-.2.8-.8s-.2-.8-.8-.8h-11V44.2c0-.6-.2-.8-.8-.8Zm88.6 24.4c-1 0-1.6-.6-1.6-1.6V55.7c0-3.1-2.1-4.5-4-4.5s-4.1 1.4-4.1 4.5V66c0 1-.6 1.6-1.6 1.6s-1.6-.6-1.6-1.6V49.9c0-1.1.6-1.7 1.6-1.7s1.6.6 1.6 1.7c1.1-1.3 2.7-2 4.5-2 3.4 0 6.8 2.5 6.8 6.7V66c0 1-.6 1.6-1.6 1.6Zm-5.6-17.3c2.3 0 4.8 1.7 4.8 5.4v10.4c0 .6.2.8.8.8s.8-.2.8-.8V54.8c0-3.7-3.1-5.9-6-5.9s-3.7 1-4.6 2.7l-.8 1.4v-2.8c0-.6-.2-.9-.8-.9s-.8.1-.8.9v16.1c0 .6.2.8.8.8s.8-.2.8-.8V56c0-3.5 2.5-5.4 5-5.4Zm17.6 15.3c-2.8 0-4.7-1.5-4.7-3.8s2.5-3.8 4.9-3.8 5.4 1.3 5.4 3.6-2.8 4-5.6 4Zm.2-6.8c-1.9 0-4.1.8-4.1 3s2 3 3.9 3 4.8-1.2 4.8-3.2-2.3-2.8-4.5-2.8Zm-79.9 6.8c-1.3 0-2.4-.3-3.2-.9-1-.7-1.5-1.7-1.5-2.9 0-2.6 2.5-3.8 4.9-3.8s5.4 1.3 5.4 3.6-2.8 4-5.6 4Zm.2-6.8c-1.9 0-4.1.8-4.1 3 0 1 .4 1.7 1.1 2.3.7.5 1.7.7 2.8.7 2.3 0 4.8-1.2 4.8-3.2s-2.3-2.8-4.5-2.8ZM70 45.2c-.5 0-1-.2-1.4-.6-.4-.4-.6-.9-.6-1.4 0-1.2.9-2.1 2.1-2.1 1.2 0 2.1.9 2.1 2.1s-.9 2.1-2.1 2.1Zm.1-3.3c-.7 0-1.2.5-1.2 1.2 0 .4.1.7.4.9.2.2.5.3.9.3.7 0 1.2-.5 1.2-1.2s-.5-1.2-1.2-1.2Z"/></svg>
