<svg xmlns="http://www.w3.org/2000/svg" viewBox="0 0 128 128"><path fill="#013755" d="M15.5 127.9c-.5 0-1.1 0-1.7-.3-2.9-.8-4-2.7-3.3-5.6L41.9 3.4c.4-1.4 1.1-2.5 2-3S46-.2 47.4.2c2.9.8 4.1 2.8 3.4 5.7L19.4 124.5c-.4 1.4-1 2.4-2 3-.6.3-1.2.5-1.9.5ZM42.9 3.6 11.5 122.3c-.6 2.4.2 3.8 2.6 4.4 1.2.3 2.2.3 2.9 0 .7-.4 1.2-1.2 1.5-2.4L49.9 5.6c.6-2.3-.3-3.8-2.7-4.5-1.1-.3-2-.3-2.7 0-.7.4-1.2 1.2-1.5 2.4Zm39.3 124.3c-.5 0-1.1 0-1.7-.3-2.9-.8-4-2.7-3.3-5.6L108.6 3.4c.4-1.4 1.1-2.5 2-3s2.1-.6 3.5-.2c2.9.8 4.1 2.8 3.4 5.7L86.1 124.5c-.4 1.4-1 2.4-2 3s-1.2.5-1.9.5ZM109.5 3.6 78.1 122.2c-.6 2.4.2 3.8 2.6 4.4 1.2.3 2.2.3 2.9 0 .7-.4 1.2-1.2 1.5-2.4L116.5 5.6c.6-2.3-.3-3.8-2.7-4.4-1.1-.3-2-.3-2.7 0-.7.4-1.2 1.2-1.5 2.4h-.1ZM61.9 75.9c-.5 0-1.1 0-1.7-.3-2.9-.8-4-2.7-3.3-5.6l13.8-52.3c.4-1.4 1.1-2.5 2-3s2.1-.6 3.5-.2c2.9.8 4.1 2.8 3.4 5.7L65.8 72.5c-.4 1.4-1 2.4-2 3-.5.3-1.2.5-1.9.5Zm9.8-57.8L57.9 70.4c-.6 2.4.2 3.8 2.6 4.4 1.2.3 2.1.3 2.9 0 .7-.4 1.2-1.2 1.5-2.4l13.8-52.3c.6-2.3-.3-3.8-2.7-4.4-1.1-.3-2-.3-2.7 0-.7.4-1.2 1.2-1.5 2.4h-.1Z" data-name="Layer_1"/></svg>
