<svg xmlns="http://www.w3.org/2000/svg" xml:space="preserve" viewBox="0 0 128 128"><path fill="none" stroke="#013755" stroke-width=".821" d="M40.564 49.232c.213-.795.73-1.068 1.492-.864.797.213 1.142.716.928 1.512l-9.576 35.736c-.212.796-.728 1.067-1.526.854-.795-.214-1.106-.706-.894-1.503zm20.328 0c.214-.797.73-1.068 1.494-.862.795.213 1.14.715.926 1.51l-9.576 35.736c-.213.796-.729 1.067-1.525.852-.795-.212-1.108-.704-.895-1.5zM.41 44.098c0-.825.396-1.22 1.187-1.22.823 0 1.219.395 1.219 1.22v20.829h10.58c.823 0 1.218.396 1.218 1.186 0 .825-.395 1.22-1.219 1.22H2.025c-1.087 0-1.615-.626-1.615-1.879zm23.083 4.482c4.382 0 6.69 2.636 6.69 5.965v11.833c0 .626-.43 1.219-1.22 1.219s-1.186-.561-1.219-1.187c-.033-.625-.033-.824-.033-1.12-1.417 1.516-3.526 2.307-5.635 2.307-3.23 0-6.328-1.812-6.328-5.505 0-3.856 3.527-5.833 6.987-5.833 1.879 0 3.889.56 4.976 1.647v-3.13c0-2.275-1.846-3.79-4.943-3.79-2.143 0-3.527.79-4.55.79-.559 0-1.12-.264-1.12-1.022 0-.429.362-.956.923-1.187 1.45-.592 3.198-.987 5.472-.987zm-.989 16.709c2.505 0 5.174-1.318 5.174-3.592 0-2.01-2.504-3.164-4.943-3.164-2.307 0-4.515 1.055-4.515 3.361-.001 2.374 2.043 3.395 4.284 3.395zM70.069 41.46c.922 0 1.647.726 1.647 1.648 0 .923-.725 1.648-1.647 1.648a1.632 1.632 0 0 1-1.648-1.648c0-.922.725-1.647 1.648-1.647zm-1.155 8.372c0-.824.428-1.22 1.22-1.22.824 0 1.284.396 1.284 1.22v16.281c0 .824-.427 1.22-1.252 1.22-.824 0-1.252-.396-1.252-1.22zm8.723.23c0-.856.395-1.284 1.186-1.284.823 0 1.218.428 1.218 1.284v1.253c1.088-1.977 3-2.867 4.944-2.867 3.164 0 6.426 2.372 6.426 6.294v11.404c0 .791-.395 1.186-1.219 1.186-.79 0-1.186-.395-1.186-1.186v-10.35c0-3.328-2.208-4.942-4.416-4.942-2.275 0-4.549 1.68-4.549 4.943v10.349c0 .791-.395 1.186-1.218 1.186-.791 0-1.186-.395-1.186-1.186zm25.541-1.482c4.383 0 6.69 2.636 6.69 5.965v11.833c0 .626-.428 1.219-1.22 1.219-.79 0-1.186-.561-1.218-1.187-.034-.626-.034-.824-.034-1.12-1.417 1.516-3.526 2.307-5.635 2.307-3.23 0-6.327-1.812-6.327-5.505 0-3.856 3.526-5.833 6.986-5.833 1.879 0 3.89.56 4.976 1.647v-3.13c0-2.275-1.845-3.79-4.943-3.79-2.141 0-3.526.79-4.547.79-.561 0-1.121-.264-1.121-1.022 0-.429.362-.956.923-1.187 1.449-.592 3.196-.987 5.47-.987zm-.99 16.709c2.506 0 5.175-1.318 5.175-3.592 0-2.01-2.505-3.164-4.944-3.164-2.307 0-4.514 1.055-4.514 3.361 0 2.374 2.043 3.395 4.283 3.395zm18.644-.033c1.78 0 4.053-.726 4.053-2.868 0-1.615-2.042-2.538-3.79-3.164-2.998-1.088-6.623-2.538-6.623-5.339 0-3.724 3.13-5.372 6.623-5.372 1.714 0 3.528.33 5.109 1.186.428.231.627.693.627 1.154 0 .758-.495 1.153-1.12 1.153-.231 0-.495-.065-.725-.198-.792-.46-2.407-.857-3.956-.857-1.944 0-3.953.692-3.953 2.637 0 1.516 2.57 2.307 5.042 3.33 2.702 1.12 5.47 2.273 5.47 5.24 0 4.054-3.558 5.536-6.821 5.536-2.374 0-4.285-.791-6.098-1.944-.297-.198-.428-.593-.428-.989 0-.922.461-1.351 1.087-1.351.296 0 .627.132.956.362 1.153.758 2.701 1.484 4.547 1.484zM49.337 53.572c.214-.796.73-1.067 1.493-.862.797.213 1.14.715.927 1.51l-4.215 15.732c-.214.796-.73 1.067-1.526.853-.796-.214-1.107-.705-.894-1.502z"/></svg>