<svg xmlns="http://www.w3.org/2000/svg" viewBox="0 0 128 128"><g fill="#fd356e"><path d="M127.02 96v32H55.871c-20.726 0-38.827-12.872-48.51-32C3.083 87.544.562 78.075 0 68.326v-8.652a71.452 71.452 0 0 1 1.981-13.13C8.624 19.683 30.238 0 55.872 0c25.634 0 47.244 19.683 53.89 46.544h-30.42C74.348 37.791 65.704 32 55.876 32c-9.832 0-18.476 5.787-23.47 14.544a33.941 33.941 0 0 0-3.477 8.73A36.11 36.11 0 0 0 27.873 64c0 9.171 3.377 17.44 8.789 23.27 5.19 5.62 12.067 8.742 19.214 8.73zm0 0"/><path d="M127.02 55.274V87.27H75.085C80.7 81.237 83.881 72.812 83.873 64c0-3.025-.367-5.951-1.055-8.726zm0 0"/></g></svg>
