<svg viewBox="0 0 128 128" xmlns="http://www.w3.org/2000/svg"><path d="M40.162 23.768C24.121 25.189 10.496 36.065 5.473 51.443 4.028 55.874 3.53 59.05 3.53 64.026s.498 8.151 1.943 12.582c7.701 23.505 34.334 34.595 56.466 23.529L64 99.094l2.085 1.043c18.222 9.123 40.377 3.293 51.703-13.672 2.962-4.407 5.237-10.118 6.208-15.544.356-2.085.474-3.744.474-6.895 0-4.976-.497-8.152-1.943-12.583-7.701-23.505-34.334-34.594-56.442-23.529L64 28.957l-2.061-1.043a41.323 41.323 0 00-14.904-4.17c-3.152-.261-3.792-.261-6.873.024zm10.142 8.601c2.322.45 6.801 2.203 9.525 3.744 3.721 2.085 7.938 5.995 10.521 9.739 1.398 2.037 3.27 5.876 4.336 8.933 1.517 4.265 1.517 14.217 0 18.481-1.848 5.214-4.194 9.266-7.345 12.607-3.744 3.981-7.227 6.326-12.44 8.364-3.317 1.303-5.307 1.73-9.217 1.919-4.787.237-9.1-.331-12.488-1.682-.853-.356-1.73-.663-1.99-.711-.498-.118-4.763-2.488-6.208-3.46-1.54-1.042-5.331-4.762-6.801-6.682-.734-.971-1.35-1.824-1.35-1.895 0-.071-.545-1.067-1.209-2.204-1.161-2.014-1.943-3.649-1.753-3.649.047 0-.213-.758-.592-1.682-1.161-2.772-1.517-5.213-1.517-10.165 0-4.953.356-7.394 1.517-10.166.379-.924.639-1.682.592-1.682-.19 0 .592-1.635 1.753-3.649.664-1.137 1.209-2.132 1.209-2.204 0-.071.616-.924 1.35-1.895 1.47-1.92 5.261-5.64 6.801-6.682 1.422-.972 5.71-3.342 6.208-3.46.26-.047 1.256-.403 2.227-.782 2.156-.853 3.554-1.184 6.043-1.469 2.559-.284 8.577-.094 10.828.332z" fill="#f02e65"/><path d="M44.973 49.737c-.048.119-.664 2.536-1.327 5.403-.688 2.867-1.777 7.393-2.393 10.07-1.185 4.905-1.896 8.128-1.896 8.554 0 .118.735.214 1.635.214h1.635l.734-3.271c.427-1.777 1.375-5.852 2.133-9.051.759-3.199 1.682-7.085 2.038-8.649.355-1.564.711-2.985.782-3.151.071-.213-.332-.284-1.564-.284-.924 0-1.73.071-1.777.165zm-12.725 10.26l-2.18 2.37.64.758c.355.426 1.327 1.493 2.156 2.37l1.517 1.611h4.313l-2.038-2.204c-1.114-1.184-2.038-2.322-2.038-2.464 0-.166.853-1.232 1.896-2.369 1.042-1.161 1.895-2.157 1.895-2.275 0-.095-.9-.166-1.99-.166h-1.967l-2.204 2.369zm16.587-2.227c0 .071.403.521.9 1.019 1.849 1.848 3.152 3.412 3.081 3.72-.047.166-.948 1.279-2.038 2.44l-1.966 2.157h2.203l2.204-.024 2.013-2.203c1.115-1.232 2.015-2.323 2.015-2.465 0-.118-.948-1.232-2.133-2.487l-2.132-2.299H50.92c-1.161 0-2.085.071-2.085.142z" fill="#f02e65"/></svg>