<svg xmlns="http://www.w3.org/2000/svg" fill="none" class="max-w-full" viewBox="0 0 128 128"><path fill="#fd366e" d="M 111.1,73.4729 V 97.9638 H 48.8706 C 30.7406,97.9638 14.9105,88.114 6.44112,73.4729 5.2099,71.3444 4.13229,69.1113 3.22835,66.7935 1.45387,62.2516 0.338421,57.3779 0,52.2926 V 45.6712 C 0.0734729,44.5379 0.189248,43.4135 0.340647,42.3025 0.650124,40.0227 1.11768,37.7918 1.73218,35.6232 7.54544,15.0641 26.448,0 48.8706,0 71.2932,0 90.1935,15.0641 96.0068,35.6232 H 69.3985 C 65.0302,28.9216 57.4692,24.491 48.8706,24.491 c -8.5986,0 -16.1596,4.4306 -20.5279,11.1322 -1.3314,2.0372 -2.3645,4.2837 -3.0413,6.6793 -0.6012,2.1241 -0.9218,4.3639 -0.9218,6.6794 0,7.02 2.9523,13.3476 7.6857,17.8116 4.3862,4.1434 10.2996,6.6794 16.8053,6.6794 z"/><path fill="#fd366e" d="m 111.1,42.3027 v 24.491 H 65.6759 c 4.7335,-4.464 7.6857,-10.7916 7.6857,-17.8116 0,-2.3155 -0.3206,-4.5553 -0.9217,-6.6794 z"/></svg>
