<svg viewBox="0 0 128 128" xmlns="http://www.w3.org/2000/svg"><path d="M46.601 65.259l.023-8.302.82-.023.82-.023.024 1.21.023 1.212.222-.383c.652-1.127 1.87-1.917 3.289-2.116 2.836-.391 5.151 1.058 5.91 3.703.322 1.134.307 3.173-.046 4.27-.368 1.165-1.02 2.085-1.94 2.713-.528.368-.812.506-1.456.713-.659.207-2.56.207-3.22 0-1.073-.345-1.9-.966-2.499-1.886l-.26-.406-.023 3.81-.016 3.802h-1.686l.015-8.294zm6.992 1.51a3.49 3.49 0 001.433-.82c.322-.307.836-.974.836-1.096 0-.031.053-.161.115-.292.2-.437.345-1.272.345-1.955-.008-2.023-1.035-3.618-2.645-4.124-.353-.107-.69-.146-1.418-.146-1.066 0-1.38.085-2.147.56-1.77 1.104-2.376 3.772-1.349 5.934.49 1.027 1.618 1.862 2.806 2.062.498.084 1.525.023 2.024-.123zm6.884-1.51l.023-8.302.828-.023.82-.023v2.499l.238-.414c.743-1.288 2.054-2.078 3.68-2.193 1.8-.138 3.196.353 4.292 1.503.476.498.935 1.272 1.204 2.024.291.805.406 2.583.237 3.518-.092.514-.36 1.419-.452 1.541-.03.046-.084.161-.115.269-.153.498-.989 1.471-1.648 1.916-.506.337-1.296.667-1.901.774-.598.115-2.33.039-2.775-.122-.437-.154-1.166-.53-1.388-.706-.521-.429-.996-.989-1.242-1.44-.115-.216-.122.045-.13 3.625v3.848h-1.687l.016-8.294zm6.999 1.502c1.326-.421 2.177-1.333 2.576-2.752.168-.598.145-2.338-.039-2.913-.153-.475-.521-1.211-.69-1.38-.053-.053-.184-.207-.291-.33-.238-.283-.95-.75-1.257-.827a1.12 1.12 0 01-.33-.138c-.069-.054-.521-.085-1.226-.085h-1.12l-.651.322c-.706.345-.974.56-1.388 1.097-.437.56-.674 1.119-.805 1.87-.199 1.142-.061 2.308.384 3.197.544 1.08 1.563 1.832 2.805 2.062.483.092 1.572.03 2.032-.123zm-57.472-1.763c-.023-.023-.016-.168.023-.322.115-.46.299-1.234.452-1.893.077-.338.192-.836.26-1.112.062-.276.154-.651.2-.843a14.2 14.2 0 01.161-.667l.092-.33h.406c.23 0 .414.023.414.062a20.12 20.12 0 01-.268 1.165c-.061.276-.184.79-.268 1.15s-.2.858-.261 1.111-.16.683-.222.959c-.177.766-.177.766-.583.766-.2 0-.383-.015-.406-.046zm-1.472-1.87l-.514-.545.476-.529.475-.536h.521c.292 0 .53.023.53.061 0 .03-.147.215-.323.406-.605.644-.598.552-.107 1.058.238.253.43.491.43.537 0 .054-.192.084-.484.084h-.49l-.514-.536zm3.404.452c0-.046.191-.284.429-.537.49-.506.498-.421-.1-1.058-.184-.199-.33-.375-.33-.406 0-.038.238-.061.53-.061h.52l.476.536c.46.514.468.537.337.675-.076.077-.306.322-.505.537l-.376.398h-.49c-.3 0-.491-.03-.491-.084zm24.493 4.791a6.48 6.48 0 01-1.457-.521c-.583-.291-.567-.284-1.234-.943-.46-.452-.629-.69-.897-1.265-.514-1.08-.629-1.64-.621-3.05 0-1.42.115-2.002.613-3.044.26-.537.46-.82.859-1.227.628-.628.759-.728 1.357-1.02 1.525-.743 3.695-.69 5.075.123.697.407 1.21.935 1.625 1.656l.237.406v-2.568h1.61l-.015 5.696-.023 5.688-.782.023-.79.023-.007-1.326c-.008-1.25-.008-1.31-.123-1.058-.399.912-1.502 1.832-2.706 2.27-.337.122-2.361.222-2.721.137zm2.721-1.625c.713-.245 1.073-.468 1.525-.928.545-.56.545-.56.836-1.172.146-.315.291-.798.368-1.265.115-.644.115-.836.03-1.365-.252-1.602-.965-2.698-2.123-3.258-.291-.146-.59-.291-.674-.33-.238-.122-1.71-.16-2.193-.06-.69.145-1.326.49-1.809.988-.667.675-.767.836-1.035 1.687-.253.774-.245 2.353.008 3.158.467 1.449 1.525 2.4 2.997 2.683.521.1 1.587.03 2.07-.138zm79.266 1.625c-1.104-.199-2.353-.828-3.012-1.525-.36-.376-.913-1.188-1.089-1.61-.353-.843-.452-1.418-.452-2.722 0-1.096.023-1.349.176-1.878.606-2.1 2.009-3.426 4.094-3.879 1.74-.368 3.618-.046 4.937.859.437.299 1.15 1.02 1.21 1.226.032.077.078.146.116.146.03 0 .077.061.107.138.023.07.077.184.115.245.1.154.268.56.43 1.035.145.43.237 1.901.16 2.446l-.053.352h-8.272v.2c0 .299.215.981.437 1.372.36.652 1.242 1.111 2.139 1.111 1.135 0 2.07-.62 2.33-1.548l.085-.291h1.548c.982 0 1.587.03 1.633.076.092.092-.038.706-.237 1.127a1.4 1.4 0 00-.115.292c0 .115-.568.896-.905 1.25-.59.612-1.38 1.088-2.323 1.402-.399.13-.72.169-1.679.184-.651.015-1.272.008-1.38-.008zm3.657-7.206c-.084-.843-.56-1.464-1.426-1.847-.628-.284-1.579-.269-2.192.015-.775.368-1.204.874-1.457 1.694-.214.706-.46.644 2.5.644h2.621l-.046-.506zM75.985 68.25c-.023-.054-.138-.499-.268-.982-.123-.483-.338-1.28-.468-1.763a251.15 251.15 0 01-.713-2.683 91.864 91.864 0 00-.421-1.587 51.58 51.58 0 01-.36-1.303c-.438-1.656-.744-2.829-.775-2.99l-.038-.176h3.135l.092.483c.046.26.13.698.192.973.199.905.352 1.641.467 2.262.07.337.169.82.223 1.073.061.253.16.736.237 1.073.146.713.284 1.35.43 1.986.115.514.076.56.375-.49.376-1.327.637-2.224.997-3.489.414-1.44.782-2.736.958-3.35a3.93 3.93 0 01.146-.437c.038-.053.582-.084 1.656-.084h1.602l.084.33c.054.176.207.736.36 1.241.399 1.357.437 1.488.867 2.99.383 1.319.475 1.633.728 2.492l.222.774c.062.214.13.406.146.422.015.023.092-.253.153-.598.07-.353.177-.859.238-1.135.054-.276.16-.774.238-1.112.068-.337.176-.835.237-1.111.207-.989.43-2.04.53-2.53.168-.866.344-1.625.39-1.694.023-.038.682-.069 1.464-.069h1.426l-.054.322c-.03.184-.1.506-.16.713a87.05 87.05 0 00-.499 1.801c-.038.146-.138.514-.222.805-.084.3-.291 1.089-.475 1.763-.177.675-.422 1.61-.552 2.07-.123.468-.345 1.296-.491 1.84-.146.552-.322 1.188-.383 1.418s-.13.514-.154.637l-.038.207h-3.419l-.084-.322c-.039-.184-.13-.522-.2-.752s-.191-.644-.268-.92-.2-.682-.26-.896a495.515 495.515 0 01-.905-3.052c-.084-.29-.2-.674-.253-.843s-.138-.467-.2-.667c-.053-.207-.122-.368-.153-.368-.046 0-.168.384-.452 1.38-.077.276-.245.843-.383 1.265-.261.82-.315.997-.683 2.3-.138.467-.276.904-.314.973-.046.077-.077.177-.077.23s-.115.453-.245.882l-.253.79h-1.671c-1.265 0-1.679-.023-1.702-.092zm15.96.038c-.03-.023-.053-2.63-.053-5.788v-5.734h3.066v1.817l.644-.629c.905-.881 1.932-1.341 3.005-1.341h.414l-.015 1.632-.023 1.626-.89.046c-.482.03-.996.076-1.134.107-.72.153-1.364.629-1.656 1.204-.306.613-.345 1.111-.345 4.17v2.944h-1.48c-.82 0-1.51-.023-1.532-.054zm8.571-.115c-.023-.1-.03-2.69-.023-5.773l.023-5.596h3.067v11.5l-1.51.022-1.518.016-.039-.169zm9.161.046c-1.219-.238-2.062-.79-2.453-1.61-.422-.897-.46-1.272-.46-4.37v-2.867h-1.61l.016-1.28.023-1.288.79-.023.781-.023V53.93l1.556.015 1.549.023.023 1.395.015 1.403h2.453v2.606h-2.453v2.745c0 2.944.008 2.967.406 3.266.184.13.36.16 1.15.199l.936.038v2.683l-1.074.016c-.674.007-1.288-.031-1.648-.1zm-8.356-13.032c-.774-.238-1.226-1.004-1.104-1.863.077-.583.468-1.05 1.058-1.273.422-.16 1.41-.122 1.771.062.422.222.728.613.851 1.08.107.4.1.484-.015.875-.284.988-1.403 1.48-2.56 1.119z" fill="#f02e65"/><path d="M10.351 54.412a8.335 8.335 0 00-7.184 5.732c-.3.918-.403 1.576-.403 2.607 0 1.03.103 1.688.403 2.606 1.595 4.868 7.111 7.165 11.695 4.873l.427-.216.432.216a8.366 8.366 0 0010.709-2.832c.613-.913 1.085-2.096 1.286-3.219.073-.432.098-.776.098-1.428 0-1.031-.103-1.689-.403-2.607-1.594-4.868-7.111-7.165-11.69-4.873l-.432.216-.427-.216a8.552 8.552 0 00-3.087-.864c-.653-.054-.786-.054-1.424.005zm2.101 1.781c.481.094 1.409.457 1.973.776.771.432 1.644 1.242 2.179 2.017.29.422.678 1.217.899 1.85.314.884.314 2.945 0 3.828-.384 1.08-.869 1.92-1.522 2.612-.775.824-1.497 1.31-2.577 1.732-.687.27-1.099.358-1.909.398-.991.049-1.885-.069-2.586-.349a3.181 3.181 0 00-.413-.147c-.102-.024-.986-.516-1.285-.717-.319-.216-1.104-.986-1.409-1.384a4.439 4.439 0 01-.28-.392c0-.015-.113-.221-.25-.457-.241-.417-.403-.755-.363-.755.01 0-.044-.157-.123-.349-.24-.574-.314-1.08-.314-2.105 0-1.026.074-1.532.314-2.106.079-.192.133-.349.123-.349-.04 0 .122-.338.363-.755.137-.236.25-.442.25-.457 0-.015.128-.191.28-.393.305-.397 1.09-1.168 1.409-1.383.294-.201 1.183-.693 1.285-.717a4.31 4.31 0 00.462-.162c.446-.177.736-.245 1.252-.304.53-.059 1.776-.02 2.242.068zm34.541-16.886l-.01.042-.018.077-.015.066.013.001h.012l.006-.024.016-.07.016-.066.006-.024c0-.002-.003-.003-.012-.003l-.014.001zm-.097.079l-.017.019.005.005.016.018.012.013h.033l-.016-.017a.188.188 0 01-.016-.019l.015-.018a.156.156 0 00.015-.018l-.015-.001h-.016l-.016.018zm.127-.017l.007.008c.014.014.024.026.023.028 0 .002-.007.01-.016.019l-.014.017h.016l.017-.001.016-.016.015-.019a.104.104 0 00-.016-.019l-.017-.018h-.015l-.016.001z" fill="#f02e65"/></svg>