<svg xmlns="http://www.w3.org/2000/svg" viewBox="0 0 128 128"><g fill="#fd366e"><path d="M112.605 88.441v24.446H58.156c-15.863 0-29.715-9.832-37.125-24.446-3.277-6.457-5.207-13.691-5.636-21.136v-6.61a54.675 54.675 0 0 1 1.515-10.027c5.086-20.52 21.625-35.555 41.246-35.555 19.617 0 36.157 15.035 41.242 35.555h-23.28c-3.821-6.688-10.438-11.11-17.962-11.11-7.523 0-14.14 4.422-17.96 11.11a25.934 25.934 0 0 0-2.665 6.668A27.636 27.636 0 0 0 36.727 64c0 7.008 2.582 13.32 6.722 17.777 3.973 4.29 9.239 6.676 14.707 6.664Zm0 0"/><path d="M112.605 57.332v24.445H72.86c4.3-4.613 6.734-11.047 6.726-17.777a27.6 27.6 0 0 0-.809-6.668Zm0 0"/></g></svg>
