<svg xmlns="http://www.w3.org/2000/svg" viewBox="0 0 128 128"><path d="M60.32 80c.346 0 .64-.287.64-.64V64.48l2.24 3.84 6.24 10.72c.285.598.919.96 1.44.96h4.32V56h-4.32c-.288 0-.64.239-.64.64v15.04l-2.88-5.12-5.76-9.76c-.28-.497-.883-.8-1.44-.8H56v24zm55.84-17.28h2.08a.96.96 0 0 0 .96-.96V57.6h4.48v5.12H128v3.84h-4.32v6.88c0 1.68.809 2.4 2.24 2.4H128V80h-2.72c-3.688 0-6.08-2.389-6.08-6.4v-7.04h-3.04zm-21.6 0v9.92c0 2.241-.841 4.129-2.08 5.44S89.531 80 87.2 80s-4.201-.609-5.44-1.92c-1.218-1.311-2.08-3.199-2.08-5.44v-9.92h2.56c.546 0 1.083.1 1.44.48.357.359.48.57.48 1.12v8.32c0 1.289.073 2.086.64 2.72.567.613 1.266.8 2.4.8 1.155 0 1.673-.187 2.24-.8.567-.634.64-1.431.64-2.72v-8.32c0-.55.123-.899.48-1.28.314-.334.644-.326 1.12-.32H92zm13.6 8.32 5.44-8.32h-4.16c-.524 0-.99.188-1.28.64l-2.56 3.84-2.4-3.68c-.29-.452-.916-.8-1.44-.8h-4l5.44 8.16L97.28 80h4.16c.52 0 .989-.514 1.28-.96l2.88-4.32 3.04 4.48c.291.446.76.8 1.28.8h4.16z"/><path fill="#00dc82" d="M26.88 80h17.76c.567 0 1.109-.199 1.6-.48s.997-.633 1.28-1.12.48-1.038.48-1.6-.196-1.113-.48-1.6l-12-20.64a2.918 2.918 0 0 0-1.12-1.12 3.87 3.87 0 0 0-1.76-.48c-.567 0-1.109.199-1.6.48s-.837.634-1.12 1.12l-3.04 5.28L20.8 49.6c-.284-.486-.629-.999-1.12-1.28s-1.033-.32-1.6-.32-1.109.039-1.6.32-.997.793-1.28 1.28L.32 75.2c-.284.486-.32 1.038-.32 1.6s.037 1.114.32 1.6.789.839 1.28 1.12 1.033.48 1.6.48h11.2c4.438 0 7.668-1.991 9.92-5.76l5.44-9.44 2.88-4.96 8.8 15.04H29.76zm-12.64-5.12H6.4l11.68-20.16L24 64.8l-3.921 6.836c-1.495 2.446-3.201 3.244-5.839 3.244z"/></svg>
