<svg xmlns="http://www.w3.org/2000/svg" viewBox="0 0 128 128"><path d="M122.097 35.53 126 25.422l-.17-.626-38.613 10.173c4.117-5.955 2.703-10.731 2.703-10.731s-12.331 7.874-21.656 7.668c-9.325-.206-12.331-2.695-26.629 1.867-14.298 4.557-18.339 18.549-22.484 21.555C15.006 58.334 2 68.123 2 68.123l.028.174 11.725-3.733s-3.216 3.03-10.048 12.238l-.319-.295.012.065s5.491 8.392 10.88 6.84c.541-.158 1.151-.416 1.818-.756 2.17 1.208 5.002 2.396 8.129 2.723 0 0-2.117-2.461-3.883-5.26.477-.307.966-.626 1.463-.949l-.23.162 4.465 1.64-.493-4.198c.016-.008.028-.02.044-.028l4.388 1.612-.545-3.818a36.54 36.54 0 0 1 1.665-.82l4.574-17.3 18.913-12.901-1.505 3.781c-3.834 9.43-11.034 11.656-11.034 11.656l-3.006 1.139c-2.234 2.642-3.176 3.293-3.943 12.161 1.802-.453 3.523-.562 5.083-.141 8.081 2.178 10.88 11.915 8.703 14.61-.545.675-1.842 1.826-3.479 3.18h-3.281l-.044 2.659c-.113.089-.226.174-.335.263h-3.337l-.04 2.594c-.295.226-.59.444-.873.659-3.135.065-7.107-2.671-7.107-2.671 0 2.489 2.073 6.319 2.073 6.319s.137-.065.368-.178c-.202.149-.315.23-.315.23s8.392 5.596 13.676 3.523c4.699-1.842 16.864-11.434 27.365-15.975l31.777-8.371 4.19-10.856-24.217 6.38v-9.749l28.415-7.487 4.19-10.856-32.597 8.59v-9.753l36.784-9.696zM64.426 56.196l7.539-1.988.101.376-2.351 6.093-7.814 2.061 2.525-6.542zm2.602 13.042-7.814 2.061 2.525-6.545 7.539-1.988.101.376-2.351 6.096zm10.182-2.186-7.814 2.061 2.525-6.545 7.539-1.988.101.376-2.351 6.096z"/></svg>
