<svg xmlns="http://www.w3.org/2000/svg" viewBox="0 0 128 128"><path d="m89.663 24.816-.162-.253-.001.001-.006.004a.513.513 0 0 1-.026.016l-.103.064a60.12 60.12 0 0 1-1.901 1.121 69.437 69.437 0 0 1-5.182 2.645c-4.196 1.919-9.503 3.791-14.045 3.691-2.294-.051-4.2-.242-5.997-.431l-.294-.031c-1.686-.178-3.294-.347-5.041-.384-3.707-.078-8.022.443-15.121 2.707-7.158 2.282-11.743 6.925-15.043 11.348-1.281 1.717-2.374 3.407-3.345 4.911-.278.43-.546.845-.806 1.241-1.18 1.797-2.17 3.17-3.143 3.876-2.054 1.489-6.299 4.657-10.029 7.45a4307.818 4307.818 0 0 0-4.874 3.656L3.03 67.586l-.415.313-.108.082-.028.021-.007.005-.002.001.134.178-.134-.177-.145.109.029.179.028.172.056.343.331-.105 10.46-3.331c-.395.422-.931 1.01-1.611 1.792-1.614 1.858-4.039 4.81-7.323 9.223a3.526 3.526 0 0 1-.071-.066l-.664-.611.167.886.012.064.011.059.033.05.073-.048-.073.048.001.002.003.005.012.019.048.072a24.262 24.262 0 0 0 .882 1.198 24.062 24.062 0 0 0 2.483 2.721c1.026.954 2.232 1.872 3.533 2.453 1.303.582 2.717.834 4.138.425h.001c.52-.152 1.094-.39 1.709-.697 2.15 1.181 4.939 2.332 8.02 2.654l.751.079-.492-.573-.001-.001-.004-.005a.245.245 0 0 0-.018-.02l-.068-.081a54.757 54.757 0 0 1-1.165-1.444 47.48 47.48 0 0 1-2.4-3.368l.833-.541 4.288 1.576.458.168-.057-.485-.436-3.716 3.933 1.445.471.173-.071-.497-.509-3.568c.485-.25.965-.487 1.445-.708l.131-.059.036-.137 4.498-17.014 17.815-12.152-1.125 2.83v.001c-1.875 4.61-4.568 7.452-6.786 9.141a16.783 16.783 0 0 1-2.813 1.747 11.248 11.248 0 0 1-1.059.449l-.056.019-.005.002a.069.069 0 0 0-.008.003l-.003.001-.009.003-.009.003-2.975 1.128-.073.026-.05.059-.345.405c-.926 1.084-1.643 1.923-2.202 3.389-.621 1.628-1.046 4.02-1.425 8.409l-.036.419.408-.103c1.753-.44 3.402-.539 4.879-.141 3.893 1.049 6.525 3.923 7.92 6.876.697 1.476 1.08 2.961 1.159 4.231.08 1.282-.152 2.293-.622 2.874-.509.629-1.733 1.721-3.318 3.035h-3.433l-.005.295-.042 2.487-.002.002-.138.107h-3.493l-.005.295-.038 2.422-.416.313-.252.19c-1.454.002-3.115-.618-4.447-1.268a21.133 21.133 0 0 1-2.146-1.211 4.868 4.868 0 0 1-.127-.084l-.032-.022-.006-.004-.001-.001-.002-.001-.47-.323v.571c0 1.295.534 2.905 1.048 4.164a27.627 27.627 0 0 0 .949 2.06l.002.003-.123.088.262.175.085.157.089-.042.024.016.277.175a31.893 31.893 0 0 0 4.483 2.301c1.378.569 2.931 1.078 4.477 1.314 1.544.236 3.102.201 4.476-.338 1.192-.467 2.838-1.417 4.781-2.632 1.336-.835 2.823-1.804 4.413-2.839.729-.475 1.479-.963 2.246-1.459 4.885-3.159 10.465-6.638 15.63-8.874l31.427-8.279.148-.039.055-.143 4.147-10.744.211-.547-.567.15-23.591 6.215V65.12l27.898-7.35.148-.039.055-.143 4.147-10.744.211-.547-.567.15L85.4 54.848v-9.032l36.183-9.534.148-.039.055-.143 3.863-10.004.035-.092-.026-.095-.168-.62-.078-.287-.288.076-37.453 9.868c1.73-2.73 2.328-5.184 2.48-7.005.082-.982.033-1.778-.037-2.332a7.645 7.645 0 0 0-.147-.814 2.191 2.191 0 0 0-.012-.046l-.004-.013-.001-.004v-.001l-.287.085zm0 0-.162-.253.336-.214.113.382-.287.085zm-.288.085c0-.001 0-.001 0 0zM64.657 56.695l7.017-1.85-2.232 5.783-7.017 1.85 2.232-5.783zm4.357 6.619-2.232 5.787-7.017 1.851 2.233-5.788 7.016-1.85zm10.077-2.163-2.232 5.787-7.017 1.851 2.233-5.788 7.016-1.85z"/><path fill="#fff" d="M43.745 104.119a11.71 11.71 0 0 1-1.774-.142c-1.386-.211-2.916-.66-4.546-1.333a32.38 32.38 0 0 1-4.528-2.324l-.164-.103-.196.093-.184-.342-.562-.374.267-.19-.122-.246c-.179-.367-.45-.944-.721-1.609-.71-1.738-1.07-3.178-1.07-4.277V92.13l.978.673.124.082a20.545 20.545 0 0 0 2.114 1.193c1.133.553 2.773 1.21 4.216 1.237l.076-.057.095-.072.299-.224.045-2.866h3.631l.048-2.891h3.621c1.674-1.39 2.748-2.374 3.193-2.924.426-.527.628-1.5.556-2.667-.08-1.282-.481-2.746-1.131-4.121a13.298 13.298 0 0 0-2.956-4.06 11.313 11.313 0 0 0-4.772-2.655c-1.351-.364-2.897-.317-4.728.142l-.816.206.073-.839c.374-4.321.792-6.781 1.444-8.49.577-1.514 1.317-2.38 2.254-3.477l.089-.105.254-.299.101-.119.144-.055 2.994-1.135.031-.01.049-.016a11.163 11.163 0 0 0 1.026-.436 16.436 16.436 0 0 0 2.762-1.716 19.518 19.518 0 0 0 3.469-3.422c1.282-1.621 2.359-3.484 3.2-5.539v-.007l.024-.052.76-1.912-16.915 11.537-4.469 16.906-.072.274-.258.118c-.397.183-.805.381-1.243.604l.622 4.35-4.418-1.623.493 4.2-5.064-1.861-.456.296a47.135 47.135 0 0 0 2.222 3.095c.388.499.704.888.901 1.126.11.134.198.238.257.309l.073.086a.055.055 0 0 1 .007.009l.08.078v.016l.913 1.062-1.502-.158c-2.609-.273-5.298-1.153-7.996-2.615a10.37 10.37 0 0 1-1.593.639l-.027.008a.126.126 0 0 1-.01.003l-.03.009c-1.345.376-2.792.225-4.304-.45-1.175-.525-2.391-1.368-3.615-2.507a24.84 24.84 0 0 1-3.221-3.698l-.087-.124-.006.004-.159-.244-.052-.069v-.011l-.019-.028-.033-.181-.331-1.775 1.155 1.062c3.307-4.431 5.702-7.32 7.138-8.973.296-.34.581-.664.855-.968L2.86 68.992l-.663.21L2 67.987l.435-.327.193-.145.79-.594.948-.712c1.145-.86 2.92-2.192 4.874-3.656 3.399-2.546 7.899-5.905 10.033-7.453.912-.661 1.886-1.996 3.068-3.797.259-.395.528-.811.805-1.239.97-1.501 2.069-3.201 3.356-4.927 1.971-2.642 3.975-4.778 6.126-6.531a27.551 27.551 0 0 1 9.067-4.924c6.269-2 10.82-2.813 15.218-2.721 1.76.037 3.366.206 5.066.386l.294.031c1.957.206 3.757.38 5.972.429 2.044.045 4.421-.317 7.063-1.077 2.132-.613 4.437-1.484 6.851-2.587a70 70 0 0 0 5.159-2.633 56.431 56.431 0 0 0 1.962-1.16l.072-.046.66-.421.311 1.052-.015.004c.029.14.069.356.104.634.095.753.108 1.559.038 2.394-.182 2.191-.9 4.374-2.137 6.501l37.311-9.83.376 1.382-.07.183-3.973 10.291-.297.078-35.96 9.475v8.412l32.642-8.602-.422 1.095-4.257 11.03-.297.078-27.675 7.292v8.408l23.215-6.115 1.135-.299-.422 1.095-4.257 11.031-.297.078-31.404 8.273c-5.05 2.189-10.465 5.543-15.565 8.842-.732.473-1.45.941-2.145 1.394l-.124.081c-1.575 1.025-3.063 1.994-4.394 2.826-2.262 1.415-3.752 2.234-4.831 2.657-.844.33-1.8.496-2.857.496zM32.944 99.64l.271.171a31.78 31.78 0 0 0 4.439 2.278c1.586.655 3.068 1.091 4.407 1.295 1.674.255 3.128.147 4.321-.321 1.043-.409 2.502-1.213 4.732-2.607 1.327-.83 2.812-1.797 4.385-2.821l.124-.081a706.06 706.06 0 0 1 2.147-1.395c5.129-3.317 10.578-6.691 15.674-8.898l.021-.009.022-.006 31.427-8.279 4.146-10.744-23.967 6.314v-9.649l28.122-7.409 4.147-10.744L85.1 55.237v-9.653l36.407-9.593 3.863-10.004-.168-.619L87.01 35.43l.409-.645c1.423-2.245 2.242-4.556 2.434-6.869.082-.989.026-1.78-.036-2.269a7.475 7.475 0 0 0-.087-.538l-.2.059-.122-.19-.002-.003a.74.74 0 0 0-.043.027l-.034.196-.174-.026-.013-.035-.023.014c-.471.285-.978.581-1.508.88a70.134 70.134 0 0 1-5.204 2.657c-2.441 1.116-4.774 1.997-6.935 2.618-2.7.776-5.137 1.146-7.242 1.1-2.238-.049-4.051-.225-6.021-.432l-.294-.031c-1.687-.178-3.281-.346-5.016-.382-4.328-.091-8.821.714-15.023 2.693-3.268 1.042-6.17 2.618-8.87 4.818-2.112 1.721-4.083 3.822-6.024 6.424-1.276 1.71-2.369 3.401-3.333 4.894-.277.428-.547.846-.807 1.242-1.253 1.909-2.229 3.237-3.218 3.954-2.131 1.545-6.628 4.903-10.025 7.447a4106.538 4106.538 0 0 0-4.873 3.656l-.947.712-.79.594-.192.144-.142.106-.006-.008.03.184 11.557-3.68-.788.84a64.448 64.448 0 0 0-1.603 1.784c-1.459 1.679-3.911 4.638-7.309 9.205l-.198.266-.183-.167v.121l.122.174c.211.298.443.607.689.92.54.688 1.404 1.712 2.451 2.687 1.176 1.094 2.337 1.901 3.451 2.399 1.383.618 2.697.758 3.907.418l.038-.019h.028a10.45 10.45 0 0 0 1.619-.665l.14-.07.138.076c2.648 1.454 5.284 2.333 7.835 2.611v-.078l-.021-.025a49.146 49.146 0 0 1-1.172-1.454 47.155 47.155 0 0 1-2.416-3.39l-.162-.251.251-.162.832-.541.126-.082 4.43 1.628-.493-4.201 4.391 1.613-.54-3.779.19-.098c.518-.267.995-.5 1.457-.714l4.526-17.122 18.717-12.767-1.466 3.687v.009l-.025.053c-.865 2.126-1.977 4.056-3.305 5.734a20.08 20.08 0 0 1-3.576 3.528 17.156 17.156 0 0 1-2.864 1.778 11.676 11.676 0 0 1-1.091.463l-.061.021-.021.007-2.974 1.128-.255.3-.09.105c-.935 1.094-1.61 1.884-2.15 3.301-.63 1.654-1.038 4.067-1.407 8.328 1.932-.485 3.578-.531 5.03-.14a11.92 11.92 0 0 1 5.023 2.793 13.893 13.893 0 0 1 3.091 4.244c.682 1.443 1.103 2.984 1.187 4.34.083 1.334-.161 2.429-.688 3.081-.484.599-1.583 1.605-3.36 3.078l-.083.069H42.36l-.044 2.613-.123.118-.014.007-.02.015-.094.073-.082.064h-3.302l-.04 2.568-.116.088c-.14.106-.279.211-.418.314l-.095.072-.156.117-.08.061h-.107c-.874 0-2.374-.226-4.572-1.299a21.316 21.316 0 0 1-2.178-1.229 6.052 6.052 0 0 1-.131-.087l-.044-.029c0 1.007.355 2.408 1.026 4.05a26.393 26.393 0 0 0 .916 1.995l.006.006.021.047.089.177.009.006.003.006.101.063.029.019zm26.33-28.249 2.499-6.478 7.732-2.038-2.498 6.477-7.733 2.039zm2.948-5.976-1.966 5.097 6.302-1.662 1.966-5.096-6.302 1.661zm7.128 3.813 2.499-6.478 7.732-2.039-2.498 6.477-7.733 2.04zm2.949-5.976-1.966 5.097 6.302-1.662 1.966-5.096-6.302 1.661zm-10.366-.334 2.499-6.474 7.732-2.039-2.499 6.473-7.732 2.04zm2.948-5.972-1.966 5.092 6.302-1.662 1.965-5.092-6.301 1.662z"/></svg>
