<svg xmlns="http://www.w3.org/2000/svg" viewBox="0 0 128 128"><path d="m109.161 45.842-.075-.117h-.001l-.003.002-.012.008a4.918 4.918 0 0 1-.048.03l-.185.114a32.03 32.03 0 0 1-3.096 1.632c-1.945.889-4.403 1.757-6.509 1.71a31.71 31.71 0 0 1-2.779-.2l-.136-.014c-.781-.082-1.526-.161-2.336-.178-1.718-.036-3.717.205-7.007 1.254-3.317 1.057-5.441 3.209-6.971 5.259-.594.796-1.1 1.579-1.55 2.276-.129.199-.253.392-.373.575-.547.833-1.006 1.469-1.456 1.796-.952.69-2.919 2.158-4.648 3.452l-2.259 1.694-.702.528-.193.145-.05.038-.013.01-.003.002-.001.001.062.082-.062-.082-.067.05.014.083.013.08.026.159.154-.049 4.847-1.543c-.183.195-.432.468-.746.83-.748.861-1.872 2.229-3.393 4.274l-.033-.03-.308-.283.077.411.006.03.005.027.015.023.034-.022-.034.022.001.001.001.002a.068.068 0 0 0 .006.009l.022.033a11.7 11.7 0 0 0 .409.555c.278.353.674.818 1.151 1.261.475.442 1.034.868 1.637 1.137.604.27 1.259.386 1.918.197.241-.07.507-.181.792-.323.996.547 2.289 1.08 3.717 1.23l.348.036-.228-.265-.001-.001-.002-.002a.082.082 0 0 1-.008-.009l-.032-.038a23.712 23.712 0 0 1-1.652-2.23l.386-.251 1.987.73.212.078-.026-.225-.202-1.722 1.823.67.218.08-.033-.23-.236-1.653c.225-.116.447-.226.67-.328l.06-.027.017-.063 2.084-7.884 8.256-5.631-.521 1.311v.001c-.869 2.136-2.117 3.453-3.145 4.236-.514.392-.974.65-1.304.809-.165.08-.297.135-.388.17-.045.018-.08.03-.103.038l-.026.009-.003-.002-.004.001h-.001l-.004.001-.004.002-1.379.523-.034.013-.023.027-.16.188c-.429.502-.762.891-1.02 1.57-.288.754-.485 1.863-.661 3.897l-.017.194.189-.048c.812-.204 1.576-.25 2.261-.065 1.804.486 3.024 1.818 3.67 3.186.323.684.501 1.372.537 1.961.037.594-.071 1.062-.288 1.332-.236.291-.803.798-1.537 1.407h-1.592l-.002.137-.019 1.153-.001.001a2.79 2.79 0 0 0-.064.05H85.4l-.002.137-.017 1.122-.193.145-.117.088c-.674.001-1.443-.286-2.061-.588a9.619 9.619 0 0 1-.994-.561l-.059-.039-.015-.01-.003-.002h-.001l-.001-.001-.217-.151v.264c0 .6.247 1.346.486 1.93.12.294.24.553.33.737.045.092.083.166.109.217l.001.001-.057.041.122.081.039.073.041-.019.011.007.128.081a14.749 14.749 0 0 0 2.078 1.067c.639.264 1.358.5 2.075.609.715.109 1.438.093 2.074-.157.552-.217 1.315-.657 2.216-1.22.619-.387 1.308-.836 2.045-1.316l1.041-.676c2.264-1.464 4.849-3.076 7.243-4.112l14.563-3.837.069-.018.026-.066 1.921-4.979.098-.254-.263.069-10.932 2.88v-4.184l12.928-3.406.069-.018.026-.066 1.921-4.979.098-.254-.263.069-14.775 3.893v-4.186l16.767-4.418.069-.018.026-.066 1.79-4.636.016-.042-.012-.044-.078-.287-.036-.133-.133.035-17.356 4.573c.802-1.265 1.079-2.402 1.149-3.246a5.244 5.244 0 0 0-.017-1.081 3.362 3.362 0 0 0-.075-.397l-.002-.006-.001-.002v-.001l-.134.039zm0 0-.075-.117.156-.099.052.177-.133.039zm-.133.039zM97.574 60.615l3.252-.857-1.034 2.68-3.252.858 1.034-2.681zm2.019 3.067-1.034 2.682-3.252.858 1.035-2.682 3.251-.858zm4.669-1.002-1.034 2.682-3.252.858 1.035-2.682 3.251-.858z"/><path fill="#fff" d="M87.883 82.591a5.43 5.43 0 0 1-.822-.066c-.642-.098-1.351-.306-2.107-.618a14.962 14.962 0 0 1-2.098-1.077l-.076-.048-.091.043-.085-.158-.261-.173.124-.088-.057-.114c-.083-.17-.208-.438-.334-.746-.329-.806-.496-1.472-.496-1.982v-.529l.453.312.057.038a9.75 9.75 0 0 0 .98.553c.525.256 1.285.561 1.954.573l.035-.026.044-.033.138-.104.021-1.328h1.682l.022-1.34h1.678c.776-.644 1.273-1.1 1.479-1.355.197-.244.291-.695.257-1.236-.037-.594-.223-1.272-.524-1.91a6.157 6.157 0 0 0-1.37-1.881 5.243 5.243 0 0 0-2.211-1.23c-.626-.169-1.343-.147-2.191.066l-.378.095.034-.389c.173-2.002.367-3.142.669-3.934.267-.702.61-1.103 1.045-1.611l.041-.049.118-.139.047-.055.067-.025 1.387-.526.014-.005a.227.227 0 0 0 .022-.008l.098-.036c.081-.031.212-.086.378-.166a7.653 7.653 0 0 0 1.28-.795 9.059 9.059 0 0 0 1.607-1.586 10.617 10.617 0 0 0 1.483-2.567v-.003l.011-.024.352-.886-7.838 5.346-2.071 7.834-.033.127-.12.055c-.184.085-.373.177-.576.28l.288 2.016-2.047-.752.228 1.946-2.347-.862-.211.137a24.154 24.154 0 0 0 1.447 1.956l.119.143.034.04.003.004.037.036v.007l.423.492-.696-.073c-1.209-.127-2.455-.534-3.705-1.212a4.82 4.82 0 0 1-.738.296l-.013.004-.004.001-.014.004c-.623.174-1.294.104-1.994-.209-.544-.243-1.108-.634-1.675-1.162a11.387 11.387 0 0 1-1.492-1.714l-.041-.058-.003.002-.074-.113-.024-.032v-.005l-.009-.013-.015-.084-.154-.822.535.492c1.532-2.053 2.642-3.392 3.308-4.158.137-.158.269-.308.396-.449l-4.35 1.385-.307.097-.092-.563.202-.152.089-.067.366-.275.439-.33c.53-.398 1.353-1.016 2.259-1.694 1.575-1.18 3.66-2.737 4.649-3.454.423-.306.874-.925 1.422-1.76l.373-.574c.449-.695.959-1.483 1.555-2.283.914-1.224 1.842-2.214 2.839-3.026a12.789 12.789 0 0 1 4.201-2.282c2.905-.927 5.014-1.304 7.052-1.261.816.017 1.56.096 2.348.179l.136.014c.907.095 1.741.176 2.767.199.947.021 2.049-.147 3.273-.499a22.973 22.973 0 0 0 3.175-1.199 32.043 32.043 0 0 0 3.083-1.624l.184-.113a.57.57 0 0 0 .034-.021l.033-.021.306-.195.144.487-.007.002c.014.065.032.165.048.294.044.349.05.722.018 1.11-.085 1.015-.417 2.027-.99 3.012l17.29-4.555.178.644-.033.085-1.841 4.769-.137.036-16.664 4.391v3.898l15.126-3.986-.196.507-1.973 5.111-.137.036-12.824 3.379v3.896l10.758-2.834.526-.139-.196.507-1.973 5.112-.138.036-14.553 3.834c-2.34 1.015-4.849 2.569-7.213 4.097-.339.219-.672.436-.994.646l-.057.037c-.73.475-1.419.924-2.036 1.31-1.048.656-1.739 1.035-2.239 1.231-.39.155-.833.232-1.323.232zm-5.005-2.076a13 13 0 0 0 .595.357c.364.206.935.508 1.588.778.735.304 1.422.505 2.042.6.776.118 1.45.068 2.002-.149.483-.19 1.16-.562 2.193-1.208.615-.384 1.303-.833 2.032-1.307l.057-.037c.322-.21.655-.427.995-.646 2.377-1.537 4.902-3.101 7.263-4.123l.01-.004.01-.003 14.563-3.837 1.921-4.979-11.106 2.926v-4.471l13.032-3.433L121.997 56l-14.949 3.939v-4.473l16.871-4.445 1.79-4.636-.078-.287-17.698 4.663.19-.299c.659-1.04 1.039-2.111 1.128-3.183a5.18 5.18 0 0 0-.016-1.052 3.216 3.216 0 0 0-.04-.249l-.092.027-.056-.088-.001-.001-.02.012-.016.091-.081-.012-.006-.016-.011.006a32.187 32.187 0 0 1-3.111 1.639 23.305 23.305 0 0 1-3.214 1.213c-1.251.36-2.381.531-3.356.51a31.913 31.913 0 0 1-2.79-.2l-.136-.014c-.782-.082-1.52-.16-2.324-.177-2.006-.042-4.088.331-6.962 1.248a12.334 12.334 0 0 0-4.11 2.232c-.979.797-1.892 1.771-2.792 2.977a39.962 39.962 0 0 0-1.545 2.268c-.128.199-.253.392-.374.576-.581.885-1.033 1.5-1.491 1.832-.988.716-3.072 2.272-4.646 3.451-.906.678-1.728 1.296-2.258 1.694l-.439.33-.366.275-.089.067-.066.049-.003-.004.014.085 5.356-1.705-.365.389c-.225.24-.475.518-.743.827-.676.778-1.812 2.149-3.387 4.266l-.092.123-.085-.077v.056l.056.081a11.06 11.06 0 0 0 1.455 1.671c.545.507 1.083.881 1.599 1.112.641.286 1.25.351 1.81.194l.018-.009h.013c.218-.065.47-.169.75-.308l.065-.032.064.035c1.227.674 2.449 1.081 3.631 1.21v-.036l-.01-.011a25.235 25.235 0 0 1-.543-.673 21.866 21.866 0 0 1-1.12-1.571l-.075-.117.116-.075.386-.25.058-.038 2.053.754-.229-1.947 2.035.748-.25-1.751.088-.045c.24-.124.461-.232.675-.331l2.098-7.934 8.674-5.916-.679 1.709v.004l-.011.025a10.906 10.906 0 0 1-1.531 2.657 9.314 9.314 0 0 1-1.657 1.635c-.54.411-1.02.675-1.327.824a5.906 5.906 0 0 1-.506.215l-.028.01-.01.003-1.378.523-.118.139-.041.049c-.433.507-.746.873-.996 1.53-.292.766-.481 1.885-.652 3.859.895-.225 1.658-.246 2.331-.065a5.513 5.513 0 0 1 2.327 1.294c.584.54 1.08 1.22 1.432 1.967.316.669.511 1.383.55 2.011.039.618-.075 1.125-.319 1.428-.224.277-.734.744-1.557 1.426l-.039.032h-1.505l-.02 1.211-.057.054-.007.003-.009.007-.044.034-.038.03h-1.53l-.018 1.19-.054.041-.194.146-.044.033-.072.054-.037.028h-.05c-.405 0-1.1-.105-2.119-.602a9.675 9.675 0 0 1-1.009-.57l-.061-.04-.02-.013c0 .467.164 1.116.475 1.877.123.301.246.562.327.729.032.066.065.13.098.195l.003.003.01.022.041.082.004.003.002.003.047.029c.003-.003.008 0 .013.003zm12.201-13.09 1.158-3.002 3.583-.945-1.158 3.002-3.583.945zm1.366-2.769-.911 2.362 2.92-.77.911-2.362-2.92.77zm3.303 1.767 1.158-3.002 3.583-.945-1.158 3.002-3.583.945zm1.367-2.77-.911 2.362 2.92-.77.911-2.362-2.92.77zm-4.804-.154 1.158-3 3.583-.945-1.158 3-3.583.945zm1.367-2.768-.911 2.36 2.92-.77.911-2.36-2.92.77zM52.467 77.466l-1.664-3.397.246-.123c.762-.382 1.335-.735 1.805-1.109.635-.522 1.464-1.309 1.825-2.107l.014-.046c.047-.16.076-.258.057-.457L53.577 59.83h-2.863l-2.198 11.447h-4.135l2.261-11.778.487-2.513.113-.571c.355-1.865 1.074-3.277 2.196-4.318a4.868 4.868 0 0 1 1.648-.998 5.983 5.983 0 0 1 2.08-.36c1.058 0 1.779.188 2.115.3l.254.085-.954 3.275-.274-.092a2.985 2.985 0 0 0-1.025-.156c-.501 0-.939.241-1.303.715-.321.418-.562.995-.679 1.626l-.052.27h1.986v-.004h4.324v.28l.085 6.706.006.29.005.222.02.945a74.21 74.21 0 0 1 .569-1.797l2.175-6.643h4.214l-4.727 11.377c-1.509 3.519-3.096 6.057-4.72 7.545-.853.794-1.859 1.415-2.477 1.678l-.241.105zm-8.566-21.833c-.555 0-1.023-.18-1.355-.521-.377-.387-.567-.956-.549-1.645.002-1.19.871-2.472 2.275-2.472.57 0 1.056.19 1.405.55.378.39.576.954.557 1.589-.015.744-.265 1.38-.723 1.838a2.252 2.252 0 0 1-1.61.661z"/><path fill="#fff" d="M35.022 71.505c-1.12 0-1.994-.309-2.599-.917-.574-.577-.877-1.423-.877-2.444 0-.723.143-1.561.263-2.139l1.166-6.177h-1.628l.593-3.068h1.628l.561-2.834 4.302-1.025-.731 3.86h7.824l-2.79 14.516h-4.135l2.2-11.447h-3.69l-1.185 6.252a6.84 6.84 0 0 0-.11 1.121c0 .331.072.569.213.708.127.124.321.185.595.185.255 0 .605 0 .925-.054l.381-.064-.517 3.244-.175.046c-.747.196-1.616.237-2.214.237zm-10.643-.057c-1.368 0-2.552-.396-3.073-.764l-.17-.12 1.028-3.024.291.16c.507.28 1.155.563 2.113.536.419-.011.763-.143.994-.38.219-.225.335-.54.335-.912 0-.662-.312-1.133-1.236-1.867l-.002-.002c-1.208-.978-1.873-2.261-1.873-3.612 0-1.354.527-2.594 1.483-3.493a5.069 5.069 0 0 1 1.721-1.055 6.416 6.416 0 0 1 2.242-.383c1.144 0 2.125.195 2.761.548l.195.108-.934 3.147-.304-.173a3.342 3.342 0 0 0-1.517-.392c-.493 0-.901.122-1.177.353-.261.218-.399.533-.399.911 0 .576.307.933.951 1.467 1.905 1.457 2.189 3.051 2.189 3.872 0 1.571-.542 2.872-1.566 3.764-.987.858-2.387 1.311-4.052 1.311zm-2.171-14.236-.214-.086c-.91-.364-2.35-.591-3.757-.591-1.467 0-2.792.351-3.939 1.043-1.018.614-1.892 1.493-2.597 2.612-.619.982-1.096 2.124-1.416 3.395a14.284 14.284 0 0 0-.432 3.447c0 1.304.277 2.402.801 3.175.576.85 1.442 1.3 2.503 1.3.646 0 1.317-.22 1.939-.636.503-.337.972-.795 1.399-1.368l-.023.432c-.015.27-.029.528-.041.784h-.011v.28l.278.005v.271h3.367l-.006-.283c-.03-1.515.234-4.22.565-5.789l1.584-7.991zm-5.413 6.882c-.247 1.221-.591 2.237-.995 2.938-.364.631-.765.978-1.13.978-.301 0-.481-.127-.602-.423-.157-.384-.176-.988-.176-1.409.014-.932.309-2.586.924-4.018.319-.743.681-1.329 1.076-1.742.427-.447.88-.673 1.349-.673.119 0 .26.011.413.033l-.859 4.316zm-10.66 7.183H2l2.261-11.778.6-3.083c.355-1.864 1.073-3.277 2.196-4.318a4.868 4.868 0 0 1 1.648-.998 5.983 5.983 0 0 1 2.08-.36c1.058 0 1.779.188 2.115.3l.254.085-.954 3.274-.274-.092a2.985 2.985 0 0 0-1.025-.156c-.501 0-.939.241-1.303.715-.321.418-.562.995-.679 1.626l-.052.27h2.713l-.593 3.068H8.332L6.135 71.277z"/><path d="m47.516 56.469-.113.571-.487 2.513L44.718 71h3.569l2.198-11.447h3.341l1.201 10.645c.025.255-.017.396-.067.565l-.018.063c-.343.771-1.112 1.569-1.912 2.227-.571.456-1.227.826-1.855 1.141l1.427 2.913c.6-.256 1.569-.856 2.398-1.627 1.712-1.569 3.282-4.252 4.653-7.451l4.566-10.99H60.62l-2.112 6.452c-.485 1.484-.771 2.427-1.056 3.569h-.057c.026-.888.007-1.735-.017-2.797l-.011-.514-.085-6.709v-.004h-3.739v.004h-2.63l.115-.598c.228-1.227.971-2.568 2.255-2.568.458 0 .771.056 1.114.17l.799-2.74c-.428-.143-1.114-.285-2.027-.285-1.427 0-2.683.485-3.539 1.284-1.171 1.082-1.799 2.511-2.114 4.166zm-3.244-5.196c-1.256 0-1.997 1.171-1.997 2.198-.028 1.056.485 1.884 1.627 1.884 1.056 0 2.027-.8 2.055-2.227.029-.971-.514-1.855-1.685-1.855zm-3.136 8.279-2.2 11.447h3.569l2.683-13.96h-7.823l.713-3.769-3.711.884-.571 2.883h-1.627l-.485 2.513h1.627l-1.228 6.509c-.143.686-.258 1.456-.258 2.085 0 1.884 1.058 3.083 3.198 3.083.686 0 1.486-.056 2.142-.228l.428-2.683c-.343.057-.713.057-.971.057-.658 0-1.086-.315-1.086-1.171 0-.258.03-.686.115-1.171l1.228-6.48h4.257zM22.32 67.944c.571.315 1.256.598 2.255.571 1.028-.028 1.599-.686 1.599-1.569 0-.771-.371-1.314-1.342-2.085-1.199-.971-1.77-2.198-1.77-3.396 0-2.57 1.997-4.653 5.168-4.653 1.228 0 2.112.228 2.626.513l-.771 2.598a3.639 3.639 0 0 0-1.655-.428c-1.141 0-1.855.598-1.855 1.542 0 .713.4 1.141 1.056 1.684 1.569 1.199 2.085 2.568 2.085 3.654 0 3.083-2.142 4.795-5.338 4.795-1.284 0-2.427-.371-2.913-.713l.855-2.513zm-4.084-11.131c-5.994 0-8.107 5.994-8.107 10.219 0 2.455.999 4.197 3.026 4.197 1.114 0 2.455-.713 3.569-2.57h.085c-.028.826-.085 1.598-.113 2.338h3.083c-.03-1.512.228-4.225.571-5.852l1.54-7.762c-.856-.342-2.255-.57-3.654-.57zm-1.169 7.336c-.513 2.54-1.427 4.139-2.398 4.139-.884 0-1.056-.884-1.056-2.112.03-2.057 1.286-6.709 3.626-6.709.198 0 .456.028.741.085l-.913 4.597zM4.534 59.552l.6-3.083c.315-1.655.943-3.083 2.112-4.167.856-.799 2.112-1.284 3.539-1.284.913 0 1.599.143 2.027.285l-.799 2.74a3.242 3.242 0 0 0-1.114-.17c-1.284 0-2.027 1.342-2.255 2.568l-.115.598h2.713l-.485 2.513H8.103L5.905 70.999H2.336l2.198-11.447z"/></svg>
