<?xml version="1.0" encoding="UTF-8" standalone="no"?>
<svg
   width="128"
   height="128"
   viewBox="0 0 128 128"
   version="1.1"
   id="svg9"
   sodipodi:docname="D.svg"
   inkscape:version="1.3.2 (091e20e, 2023-11-25, custom)"
   xmlns:inkscape="http://www.inkscape.org/namespaces/inkscape"
   xmlns:sodipodi="http://sodipodi.sourceforge.net/DTD/sodipodi-0.dtd"
   xmlns:xlink="http://www.w3.org/1999/xlink"
   xmlns="http://www.w3.org/2000/svg"
   xmlns:svg="http://www.w3.org/2000/svg"
   xmlns:rdf="http://www.w3.org/1999/02/22-rdf-syntax-ns#"
   xmlns:cc="http://creativecommons.org/ns#"
   xmlns:dc="http://purl.org/dc/elements/1.1/">
  <sodipodi:namedview
     id="namedview9"
     pagecolor="#ffffff"
     bordercolor="#111111"
     borderopacity="1"
     inkscape:showpageshadow="0"
     inkscape:pageopacity="0"
     inkscape:pagecheckerboard="1"
     inkscape:deskcolor="#d1d1d1"
     inkscape:zoom="4.2592135"
     inkscape:cx="93.327089"
     inkscape:cy="42.613501"
     inkscape:window-width="1920"
     inkscape:window-height="1009"
     inkscape:window-x="-8"
     inkscape:window-y="-8"
     inkscape:window-maximized="1"
     inkscape:current-layer="svg9" />
  <defs
     id="defs2">
    <linearGradient
       id="a"
       x1="185.455"
       y1="1601.641"
       x2="181.955"
       y2="1630.224"
       gradientTransform="matrix(0.427,0,0,0.427,-62.523,-666.646)"
       gradientUnits="userSpaceOnUse">
      <stop
         offset="0"
         stop-color="#fff"
         id="stop1" />
      <stop
         offset="1"
         stop-color="#fff"
         stop-opacity="0"
         id="stop2" />
    </linearGradient>
    <linearGradient
       id="b"
       x1="176.136"
       y1="1600.5"
       x2="172.636"
       y2="1629.083"
       xlink:href="#a"
       gradientTransform="matrix(4.5714286,0,0,4.5714286,-9.1428571,-9.1428571)" />
    <linearGradient
       inkscape:collect="always"
       xlink:href="#a"
       id="linearGradient9"
       gradientUnits="userSpaceOnUse"
       gradientTransform="matrix(1.952,0,0,1.952,-294.96229,-3056.6674)"
       x1="185.455"
       y1="1601.641"
       x2="181.955"
       y2="1630.224" />
  </defs>
  <title
     id="title2">file_type_dlang</title>
  <path
     d="M 9.042286,61.540571 9.001146,29.755429 a 2.688,2.688 0 0 1 2.427428,-2.569143 3.008,3.008 0 0 1 0.347429,0 L 39.54286,27.145146 A 71.771429,71.771429 0 0 1 67.277714,31.488 40.685714,40.685714 0 0 1 77.536,37.700571 a 20.429714,20.429714 0 0 1 13.467429,-4.950857 18.788571,18.788571 0 0 1 19.547431,17.92 18.788571,18.788571 0 0 1 -19.547431,17.901715 c -0.406858,0 -0.809143,-0.03657 -1.211429,-0.05486 A 30.249143,30.249143 0 0 1 88.731429,72.873143 390.32229,390.32229 0 0 1 128,84.758857 V 0 H 0 v 61.257143 q 4.5348571,0.09143 9.042286,0.283428 z M 113.27086,25.225143 a 6.0342857,6.0342857 0 0 1 6.28114,5.755428 6.304,6.304 0 0 1 -12.55771,0 6.0342857,6.0342857 0 0 1 6.28571,-5.76 z"
     style="fill:#b03931;stroke-width:4.57143"
     id="path2" />
  <path
     d="M 72.507429,63.026286 A 18.806857,18.806857 0 0 0 64.516571,47.218286 26.578286,26.578286 0 0 0 57.622857,43.460571 33.618286,33.618286 0 0 0 50.176,41.458286 98.875429,98.875429 0 0 0 38.345143,41.001143 H 26.372571 L 26.4,62.656 a 406.06629,406.06629 0 0 1 45.302857,6.436571 22.486857,22.486857 0 0 0 0.804572,-6.066285 z"
     style="fill:#b03931;stroke-width:4.57143"
     id="path3" />
  <path
     d="m 86.825143,77.618286 a 36.141714,36.141714 0 0 1 -9.728,11.803428 44.521143,44.521143 0 0 1 -14.884572,7.817143 52.836571,52.836571 0 0 1 -9.010285,2.157713 h -0.06857 A 145.632,145.632 0 0 1 37.929143,99.904 l -25.714286,0.10057 a 2.816,2.816 0 0 1 -3.136,-3.113141 L 9.033143,61.536 Q 4.5348571,61.348571 0,61.257143 V 128 H 128 V 84.772571 A 390.32229,390.32229 0 0 0 88.731429,72.886857 31.931429,31.931429 0 0 1 86.825143,77.618286 Z"
     style="fill:#b03931;stroke-width:4.57143"
     id="path4" />
  <path
     d="m 86.825143,77.618286 a 36.141714,36.141714 0 0 1 -9.728,11.803428 44.521143,44.521143 0 0 1 -14.884572,7.817143 52.836571,52.836571 0 0 1 -9.010285,2.157713 h -0.06857 A 145.632,145.632 0 0 1 37.929143,99.904 l -25.714286,0.10057 a 2.816,2.816 0 0 1 -3.136,-3.113141 L 9.033143,61.536 Q 4.5348571,61.348571 0,61.257143 V 128 H 128 V 84.772571 A 390.32229,390.32229 0 0 0 88.731429,72.886857 31.931429,31.931429 0 0 1 86.825143,77.618286 Z"
     style="opacity:0.3;isolation:isolate;fill:url(#linearGradient9);stroke-width:4.57143"
     id="path5" />
  <path
     d="M 38.752,86.102857 A 73.206857,73.206857 0 0 0 51.904,85.188571 34.893714,34.893714 0 0 0 59.346286,82.902857 25.728,25.728 0 0 0 64.772571,79.483429 20.374857,20.374857 0 0 0 71.712,69.101714 405.44457,405.44457 0 0 0 26.409143,62.665143 l 0.02743,23.465143 z"
     style="fill:#b03931;stroke-width:4.57143"
     id="path6" />
  <path
     d="M 38.752,86.102857 A 73.206857,73.206857 0 0 0 51.904,85.188571 34.893714,34.893714 0 0 0 59.346286,82.902857 25.728,25.728 0 0 0 64.772571,79.483429 20.374857,20.374857 0 0 0 71.712,69.101714 405.44457,405.44457 0 0 0 26.409143,62.665143 l 0.02743,23.465143 z"
     style="opacity:0.3;isolation:isolate;fill:url(#b);stroke-width:4.57143"
     id="path7" />
  <path
     d="M 84.036571,44.553143 A 31.968,31.968 0 0 1 90.253714,63.515429 30.253714,30.253714 0 0 1 89.796571,68.544 c 0.402286,0 0.804572,0.05486 1.211429,0.05486 a 18.788571,18.788571 0 0 0 19.54743,-17.92 18.788571,18.788571 0 0 0 -19.54743,-17.92 20.434286,20.434286 0 0 0 -13.467429,4.950857 37.133714,37.133714 0 0 1 6.496,6.843429 z"
     style="fill:#ffffff;stroke-width:4.57143"
     id="path8" />
  <ellipse
     cx="113.28001"
     cy="30.980572"
     rx="6.2811427"
     ry="5.7554283"
     style="fill:#ffffff;stroke-width:4.57143"
     id="ellipse8" />
  <path
     d="m 12.219429,100.00914 25.714285,-0.10057 a 145.696,145.696 0 0 0 15.204572,-0.50743 h 0.06857 a 52.525714,52.525714 0 0 0 9.010286,-2.157711 44.521143,44.521143 0 0 0 14.884571,-7.817143 36.141714,36.141714 0 0 0 9.728,-11.803429 A 31.931429,31.931429 0 0 0 88.736,72.896 32.256,32.256 0 0 0 90.253714,63.52 31.963429,31.963429 0 0 0 84.036571,44.557714 37.028571,37.028571 0 0 0 77.540571,37.700571 40.585143,40.585143 0 0 0 67.282286,31.488 71.707429,71.707429 0 0 0 39.547429,27.145143 l -27.766858,0.04114 a 3.008,3.008 0 0 0 -0.347428,0 2.688,2.688 0 0 0 -2.432,2.569143 L 9.042286,61.536 9.088,96.891429 a 2.816,2.816 0 0 0 3.131429,3.117711 z M 26.390857,41.001143 h 11.972572 a 98.848,98.848 0 0 1 11.830857,0.457143 33.618286,33.618286 0 0 1 7.446857,2.002285 26.578286,26.578286 0 0 1 6.893714,3.757715 18.816,18.816 0 0 1 7.990857,15.808 22.422857,22.422857 0 0 1 -0.8,6.066285 20.374857,20.374857 0 0 1 -6.939428,10.381715 25.659429,25.659429 0 0 1 -5.426286,3.419428 35.044571,35.044571 0 0 1 -7.442286,2.285715 73.184,73.184 0 0 1 -13.152,0.914285 H 26.450286 l -0.02743,-23.465143 z"
     style="fill:#ffffff;stroke-width:4.57143"
     id="path9" />
  <metadata
     id="metadata9">
    <rdf:RDF>
      <cc:Work
         rdf:about="">
        <dc:title>file_type_dlang</dc:title>
      </cc:Work>
    </rdf:RDF>
  </metadata>
</svg>
