<svg xmlns="http://www.w3.org/2000/svg" viewBox="0 0 128 128"><path d="M79.647 0 77.29.906S61.548 6.88 53.43 18.526c-4.06 5.822-6.172 13.185-3.266 21.69 2.906 8.505 10.702 18.085 26.154 28.768 10.836 7.488 15.259 14.97 17.03 20.613.885 2.821 1.106 5.187 1.108 6.876 0 .844-.052 1.52-.106 2-.026.239-.054.428-.075.573-.02.145-.045.118-.045.414v2.392l1.657-1.725c1.752-1.824 7.123-7.705 9.407-16.02 2.285-8.315 1.351-19.108-9.264-30.222-10.385-10.873-16.955-19.63-19.812-27.682-2.857-8.052-2.118-15.414 2.274-23.957Zm-3.82 3.65c-3.567 7.983-4.18 15.432-1.426 23.198 3.02 8.51 9.776 17.415 20.237 28.367 10.23 10.711 10.94 20.59 8.8 28.382-1.672 6.086-4.811 10.226-7.058 12.86-.003-1.853-.246-4.415-1.195-7.438-1.9-6.056-6.641-13.93-17.77-21.62C62.156 56.85 54.693 47.515 51.986 39.592c-2.708-7.922-.788-14.502 3.022-19.967 5.99-8.593 16.485-13.999 20.818-15.976Zm-31.22 21.117s-12.318 7.46-18.915 18.851c-3.299 5.696-5.17 12.457-3.205 19.675 1.965 7.216 7.719 14.77 19.296 22.213l.004.002.002.002c4.513 2.936 14.634 8.315 23.536 14.807 4.452 3.247 8.583 6.765 11.506 10.324 2.923 3.558 4.595 7.112 4.39 10.445l-.216 3.523 1.974-2.925s4.967-7.322 6.305-17.004c1.338-9.68-1.095-21.875-15.54-31.077-14.45-9.205-23.417-18.666-27.729-27.008-4.311-8.341-4.014-15.434-.147-20.415ZM42.258 28.9c-2.063 5.206-1.544 11.64 2.045 18.582 4.537 8.78 13.757 18.415 28.406 27.747 13.887 8.846 15.932 20.018 14.665 29.19-.901 6.518-3.077 10.9-4.533 13.495-.643-2.907-2.275-5.758-4.523-8.495-3.091-3.763-7.332-7.356-11.86-10.658-9.056-6.605-19.321-12.067-23.624-14.867l-.004-.002-.002-.002C31.501 76.608 26.15 69.414 24.345 62.787c-1.805-6.627-.113-12.803 3.015-18.204 4.71-8.133 11.252-13.122 14.9-15.684ZM28.631 79.817l-1.256 1.903s-4.493 6.72-4.566 14.347c-.037 3.813 1.082 7.906 4.448 11.324 3.365 3.418 8.894 6.133 17.56 7.5l.015.002.017.002c1.726.216 8.68.962 16.017 2.66 7.335 1.697 14.992 4.482 17.83 8.102L80.535 128l-.118-2.975s-.17-3.774-2.93-8.477c-2.76-4.703-8.126-10.423-18.373-14.621-10.09-4.134-17.167-6.733-21.88-9.488-4.71-2.756-7.043-5.513-8.113-10.393Zm-.648 4.907c1.443 4.03 4.072 6.917 8.279 9.377 4.976 2.91 12.064 5.486 22.12 9.607 9.9 4.056 14.887 9.459 17.443 13.814 1.148 1.956 1.756 3.624 2.129 4.933-4.044-3.237-10.421-5.335-16.654-6.778-7.457-1.726-14.527-2.483-16.182-2.69-8.403-1.325-13.506-3.918-16.488-6.947-2.983-3.028-3.929-6.52-3.896-9.955.051-5.232 2.09-9.285 3.249-11.361z" /></svg>
