<?xml version="1.0" encoding="UTF-8" standalone="no"?>
<svg
   width="128"
   height="128"
   viewBox="0 0 128 128"
   version="1.1"
   id="svg14"
   sodipodi:docname="Befunge.svg"
   inkscape:version="1.3.2 (091e20e, 2023-11-25, custom)"
   xmlns:inkscape="http://www.inkscape.org/namespaces/inkscape"
   xmlns:sodipodi="http://sodipodi.sourceforge.net/DTD/sodipodi-0.dtd"
   xmlns="http://www.w3.org/2000/svg"
   xmlns:svg="http://www.w3.org/2000/svg"
   xmlns:rdf="http://www.w3.org/1999/02/22-rdf-syntax-ns#"
   xmlns:cc="http://creativecommons.org/ns#"
   xmlns:dc="http://purl.org/dc/elements/1.1/">
  <defs
     id="defs14" />
  <sodipodi:namedview
     id="namedview14"
     pagecolor="#ffffff"
     bordercolor="#111111"
     borderopacity="1"
     inkscape:showpageshadow="0"
     inkscape:pageopacity="0"
     inkscape:pagecheckerboard="1"
     inkscape:deskcolor="#d1d1d1"
     inkscape:zoom="4.2592135"
     inkscape:cx="75.48342"
     inkscape:cy="66.561585"
     inkscape:window-width="1920"
     inkscape:window-height="1009"
     inkscape:window-x="-8"
     inkscape:window-y="-8"
     inkscape:window-maximized="1"
     inkscape:current-layer="svg14" />
  <title
     id="title1">file_type_befunge</title>
  <path
     d="M 117.97486,125.68686 H 10.025143 a 7.7348571,7.7348571 0 0 1 -7.7120001,-7.712 V 10.025143 A 7.7348571,7.7348571 0 0 1 10.025143,2.3131429 H 117.97486 a 7.7348571,7.7348571 0 0 1 7.712,7.7120001 V 117.97486 a 7.7348571,7.7348571 0 0 1 -7.712,7.712 z"
     style="fill:#1e1e1e;stroke-width:4.57143"
     id="path1" />
  <path
     d="M 117.97486,128 H 10.025143 A 10.057143,10.057143 0 0 1 0,117.97486 V 10.025143 A 10.057143,10.057143 0 0 1 10.025143,0 H 117.97486 A 10.057143,10.057143 0 0 1 128,10.025143 V 117.97486 A 10.057143,10.057143 0 0 1 117.97486,128 Z M 10.025143,4.6262857 A 5.408,5.408 0 0 0 4.6262857,10.025143 V 117.97486 a 5.408,5.408 0 0 0 5.3988573,5.39885 H 117.97486 a 5.408,5.408 0 0 0 5.39885,-5.39885 V 10.025143 a 5.408,5.408 0 0 0 -5.39885,-5.3988573 z"
     style="fill:#5b5b5b;stroke-width:4.57143"
     id="path2" />
  <path
     d="M 36.448,30.569143 26.733714,52.941714 H 21.942857 L 12.242286,30.569143 h 7.218285 l 4.882286,12.992 4.886857,-12.992 z"
     style="fill:#ffc107;stroke-width:4.57143"
     id="path3" />
  <path
     d="m 60.150857,40.726857 h -9.828571 v 9.828572 H 46.88 V 40.726857 H 37.051429 V 37.284571 H 46.88 v -9.824 h 3.442286 v 9.824 h 9.828571 z"
     style="fill:#009688;stroke-width:4.57143"
     id="path4" />
  <path
     d="m 70.72,17.741714 c 6.884571,0 11.213714,3.387429 11.213714,8.882286 0,5.275429 -5.773714,8.438857 -6.550857,8.996571 C 71.552,38.363429 71.725714,38.363429 71.725714,43.616 h -6.281143 c 0,-5.106286 -0.498285,-7.940571 3.053715,-10.770286 2.774857,-2.217143 6.016,-2.998857 6.016,-5.664 0,-1.165714 -1.334857,-2.112 -3.830857,-2.112 a 14.934857,14.934857 0 0 0 -7.053715,2.285715 L 59.744,22.08 A 15.355429,15.355429 0 0 1 70.72,17.741714 Z m -5.44,28.260572 h 6.660571 v 6.774857 H 65.28 Z"
     style="fill:#1976d2;stroke-width:4.57143"
     id="path5" />
  <path
     d="m 89.261714,51.168 -3.830857,8.548571 -5.051428,0.946286 3.273142,-9.549714 z"
     style="fill:#009688;stroke-width:4.57143"
     id="path6" />
  <path
     d="m 112.67657,52.777143 v 3.451428 H 93.965714 v -3.442285 z"
     style="fill:#1976d2;stroke-width:4.57143"
     id="path7" />
  <path
     d="m 33.782857,87.405714 v 1.888 L 15.497143,100.45714 V 96.512 l 13.44,-8.16 -13.44,-8.164571 v -3.940572 z"
     style="fill:#ffc107;stroke-width:4.57143"
     id="path8" />
  <path
     d="m 38.084571,81.577143 h 6.665143 V 88.352 h -6.665143 z m 0,13.769143 h 6.665143 v 6.774854 h -6.665143 z"
     style="fill:#512da8;stroke-width:4.57143"
     id="path9" />
  <path
     d="m 52.196571,68.475429 h 3.442286 v 37.485711 h -3.442286 z"
     style="fill:#ffc107;stroke-width:4.57143"
     id="path10" />
  <path
     d="M 66.564571,70.752 H 70.176 l 5.485714,10.326857 H 73.376 l -4.978286,-7.661714 -5.051428,7.661714 h -2.285715 z"
     style="fill:#ffc107;stroke-width:4.57143"
     id="path11" />
  <path
     d="m 93.540571,103.28686 v 3.88571 h -4.717714 v -3.776 a 15.748571,15.748571 0 0 1 -9.773714,-4.66286 l 3.890286,-4.383996 a 12.553143,12.553143 0 0 0 7.602285,2.605715 c 2.669715,0 4.224,-0.996572 4.224,-2.72 0,-1.997715 -4.114285,-3.387429 -6.889143,-4.571429 -5.325714,-2.386286 -8.384,-4.662857 -8.105142,-9.494857 A 9.3714286,9.3714286 0 0 1 88.653714,71.84 V 68.013714 L 93.376,67.510857 v 4.388572 a 20.370286,20.370286 0 0 1 8.05029,3.328 l -3.2,4.722285 A 13.001143,13.001143 0 0 0 91.616,78.121143 c -2.496,-0.05486 -4.274286,0.941714 -4.274286,2.441143 0,1.888 2.331429,2.445714 4.996572,3.556571 6.162284,2.610286 10.107424,5.051429 10.107424,9.993143 a 9.7782857,9.7782857 0 0 1 -8.905139,9.17486 z"
     style="fill:#512da8;stroke-width:4.57143"
     id="path12" />
  <path
     d="m 63.273143,77.961143 h 12.461714 a 19.433143,19.433143 0 0 1 10.806857,2.4 8.3931429,8.3931429 0 0 1 3.533715,7.465143 10.208,10.208 0 0 1 -1.540572,5.696 A 6.8571429,6.8571429 0 0 1 84.48,96.557714 v 0.269715 a 8.2834286,8.2834286 0 0 1 4.813714,3.254861 11.990857,11.990857 0 0 1 -2.162285,14.40914 14.902857,14.902857 0 0 1 -9.956572,3.104 H 63.273143 Z m 9.650286,15.209143 h 2.907428 a 4.8914286,4.8914286 0 0 0 3.2,-0.950857 3.4697143,3.4697143 0 0 0 1.133714,-2.820572 q 0,-3.332571 -4.544,-3.332571 h -2.710857 z m 0,7.830854 v 8.32457 h 3.419428 q 4.516572,0 4.521143,-4.22857 a 3.8171429,3.8171429 0 0 0 -1.211429,-3.03543 5.152,5.152 0 0 0 -3.506285,-1.06057 z"
     style="fill:#e8e8e8;stroke-width:4.57143"
     id="path13" />
  <path
     d="M 106.37257,117.59543 H 96.868571 V 77.961143 h 21.106289 v 8.594286 h -11.60229 v 7.561142 h 10.69714 v 8.594289 h -10.69714 z"
     style="fill:#e8e8e8;stroke-width:4.57143"
     id="path14" />
  <metadata
     id="metadata14">
    <rdf:RDF>
      <cc:Work
         rdf:about="">
        <dc:title>file_type_befunge</dc:title>
      </cc:Work>
    </rdf:RDF>
  </metadata>
</svg>
