<svg xmlns="http://www.w3.org/2000/svg" viewBox="0 0 128 128"><path fill="#dc514a" d="M63.793.432v.011a80.38 80.38 0 0 0-2.43-.004C46.716.691 32.73 5.05 20.684 16.184c-26.88 24.862-27.679 67.44-1.715 93.22 4.67 4.636 10.23 8.933 16.37 11.562l.512.22.008-.024c34.056 17.25 76.862-2.058 89.013-37.31 5.173-15.006 3.774-33.062-3.06-48.408-6.78-15.227-18.952-27.783-35.415-31.956v-.103l-.386-.09C78.723 1.633 71.44.58 64.299.442Zm-2.415 1a79.944 79.944 0 0 1 2.901.004h.033c6.922.137 13.997 1.16 21.093 2.76v.044l.378.093c16.31 3.986 28.388 16.386 35.125 31.514 6.736 15.128 8.102 32.962 3.027 47.682-12.016 34.862-54.588 53.945-88.162 36.51l-.533-.276-.012.038c-5.78-2.578-11.085-6.66-15.56-11.103-25.57-25.387-24.781-67.3 1.692-91.785C33.218 5.948 46.917 1.68 61.378 1.431ZM40.164 18.986v.496c0 9.216-1.235 18.558-1.982 27.83-.074.75-.154 1.514-.225 2.266-.138 1.427-.653 3.808-.92 6.16-.268 2.353-.345 4.7.656 6.239 1.542 2.373 3.791 3.188 6.088 3.3 2.297.112 4.687-.416 6.756-.666 6.986-.842 15.661-1.414 21.397 3.03 4.756 3.683 6.001 9.382 4.712 14.62-1.29 5.236-5.132 9.947-10.52 11.555-5.594 1.67-10.498 1.071-15.382-.193-4.884-1.265-9.73-3.208-15.12-4.163l-.584-.103v.591c0 1.43-.31 3.845-.414 6.212-.104 2.366-.054 4.701.936 6.176.088.132.177.214.265.306l.027.34.353.075c1.435 1.009 3.443 1.517 4.73 1.878v.002c5.33 1.49 10.857 2.207 16.38 2.207a73.05 73.05 0 0 0 3.79-.104c3.555-.033 7.11-.513 10.649-1.642h.002c3.83-1.086 7.475-2.78 10.669-5.366 5.697-4.612 9.002-12.005 9.668-19.6.667-7.593-1.303-15.417-6.267-20.887-3.557-3.925-8.35-6.329-13.43-7.525-7.22-1.697-13.9-.506-20.952.085l1.628-20.218H86.03v-12.9Zm.967.992H85.04v10.917H52.16L50.364 53.19l.58-.046c7.339-.576 14.045-1.847 21.225-.16 4.928 1.161 9.528 3.482 12.922 7.227 4.735 5.218 6.66 12.772 6.014 20.136-.647 7.365-3.864 14.51-9.302 18.913-3.073 2.488-6.589 4.127-10.318 5.184l-.008.003-.008.001c-3.437 1.1-6.892 1.567-10.37 1.6h-.023a71.87 71.87 0 0 1-3.758.104c-5.438 0-10.876-.707-16.113-2.172v.001c-1.309-.366-3.223-.898-4.41-1.722l-.003-.031-.124-.128a2.82 2.82 0 0 1-.28-.316v-.002c-.704-1.05-.873-3.272-.772-5.58.09-2.077.322-4.078.374-5.628 5.046.966 9.714 2.77 14.506 4.01 4.968 1.286 10.104 1.916 15.913.182 5.771-1.722 9.834-6.723 11.2-12.27 1.366-5.546.016-11.701-5.066-15.637-6.147-4.762-15.1-4.08-22.126-3.233-2.14.259-4.48.762-6.588.66-2.108-.104-3.938-.749-5.302-2.85v-.002c-.714-1.096-.764-3.299-.504-5.583.26-2.284.773-4.626.922-6.179v-.002c.072-.748.15-1.513.225-2.269v-.008c.732-9.074 1.919-18.273 1.962-27.415z"/></svg>
