<svg width="128" height="128" viewBox="0 0 128 128" xmlns="http://www.w3.org/2000/svg">
  <path style="fill:#dc514a;fill-opacity:1;fill-rule:nonzero;stroke:none" d="M107.92 41.516c-4.688-.09-9.16 1.147-12.986 4.683-8.004 7.406-8.243 20.082-.512 27.762 1.394 1.383 3.05 2.66 4.867 3.437.476-1.597.383-3.527.232-5.423-.035-.038-.071-.074-.1-.116-.507-.754-.132-2.734-.132-3.632 3.2.566 5.8 2.324 9.223 1.304 3.347-1 4.746-5.827 1.793-8.117-1.782-1.379-4.43-1.191-6.532-.937-1.26.152-2.84.617-3.71-.727-.517-.789.015-2.73.101-3.625l.078-.777c.224-2.748.586-5.522.586-8.27h13.578v-4.71c-2.18-.498-4.355-.812-6.486-.852z"/>
  <path style="fill:#23a161;fill-opacity:1;fill-rule:nonzero;stroke:none" d="M114.205 42.433v8.282h-9.864l-.511 6.37c2.188-.172 4.215-.558 6.402-.042 1.5.35 2.906 1.058 3.95 2.207 2.905 3.203 2.331 9.214-1.005 11.918-.945.766-2.027 1.267-3.17 1.588a10.59 10.59 0 0 1-3.119.476c-.381.02-.762.033-1.14.033a18.16 18.16 0 0 1-4.868-.656c-.398-.112-1.018-.27-1.41-.56l-.254-.057-.129 5.348c10.164 5.39 23.117-.375 26.762-10.953 3.082-8.941-1.691-21.606-11.644-23.954z"/>
  <path style="fill:#737373;fill-opacity:1;fill-rule:nonzero;stroke:none" d="M64.84 66.793c-1.332.52-.98 4.012.762 3.375 1.527-.559 1.027-4.074-.762-3.375m-56.75.285v20.895c0 2.472.707 6.332-.95 8.406-1.562 1.96-3.859 1.238-5.968 1.148 0 .442-.149 1.211.129 1.582.515.692 2.203.457 2.945.457 2.41-.004 4.664-1.12 5.36-3.566.89-3.145.402-6.824.402-10.066V67.078H8.09m8.707 0v13.633c0 2.789-.238 5.71 1.074 8.281 3.117 6.11 14.004 6.008 17.29.125 1.425-2.555 1.234-5.582 1.234-8.406V67.078h-2.047V80.84c0 2.484.312 5.125-.938 7.387-2.68 4.855-11.238 4.683-13.758-.254-1.199-2.348-.933-5.098-.933-7.645v-13.25zm53.031 8.282h2.82v11.464c0 1.864-.054 4.067 1.415 5.465 1.742 1.66 4.53 1.215 6.652.777V91.54c-1.48.063-3.258.68-4.61-.215-1.535-1.02-1.539-2.992-1.539-4.625V75.36h5.637v-1.656h-5.637v-4.586c-2.136.008-.984 2.93-2.015 4.153-.989 1.175-2.719.085-2.723 2.09M44.852 76.38h-.13l-.257-2.676H42.8v19.363h1.922v-9.043c0-2.117-.07-4.332 1-6.242 1.699-3.047 7.523-3.89 9.68-.89 1.066 1.488.976 3.73.976 5.476v10.7h1.793v-10.7c0-2.082.172-4.351-.883-6.242-2.184-3.906-10.414-3.79-12.437.254m19.468-2.676v19.363h1.922V73.703Zm0 0" transform="translate(0 -20)"/>
</svg>
