<svg xmlns="http://www.w3.org/2000/svg" viewBox="0 0 128 128"><path fill="#dc514a" d="M61.352.428C46.685.68 32.734 5.027 20.69 16.162c-26.886 24.866-27.685 67.441-1.717 93.225 4.674 4.64 10.235 8.934 16.343 11.549l.008-.032c34.122 17.719 77.343-1.652 89.553-37.076 10.329-29.957-5.574-72.342-38.803-80.463v-.07C78.754 1.623 71.448.569 64.293.43v.002a81.047 81.047 0 0 0-2.941-.004zM40.48 19.119h45.224v12.002H52.529l-1.724 21.424c7.362-.577 14.188-1.878 21.545-.149 5.043 1.188 9.776 3.57 13.279 7.434 9.775 10.772 7.851 30.993-3.371 40.078-3.158 2.557-6.766 4.237-10.576 5.317-3.518 1.124-7.053 1.602-10.6 1.634a72.97 72.97 0 0 1-3.814.106c-5.524 0-11.05-.718-16.373-2.207-1.354-.38-3.448-.907-4.764-1.893l-.026-.006-.007-.13c-.122-.126-.248-.25-.34-.39-1.707-2.543-.442-9.183-.442-12.204 10.735 1.903 19.48 7.806 30.971 4.377 11.246-3.357 15.933-19.575 6.018-27.252-5.988-4.64-14.87-4.007-21.932-3.156-4.241.512-9.535 2.078-12.463-2.432-1.728-2.655.054-9.172.344-12.176.072-.757.151-1.529.226-2.289.752-9.327 2-18.755 2-28.088z"/></svg>
