<svg xmlns="http://www.w3.org/2000/svg" viewBox="0 0 128 128"><path fill="#00598E" d="M91.1 24.935c-6.352-3.956-12.345-5.513-18.337-9.469-3.716-2.516-8.869-8.51-13.185-13.663-.838 8.27-3.355 11.625-6.231 14.022-6.112 4.795-9.948 6.232-15.222 9.109C33.69 27.212 9.601 41.595 9.601 72.516c0 30.923 26.008 53.694 54.892 53.694 28.886 0 53.934-20.974 53.934-52.734-.001-31.762-23.491-46.143-27.327-48.541z"/><path fill="#fff" d="M81.365 99.35c1.917 0 3.955.119 5.394 1.079 1.438.958 2.277 3.116 2.756 4.314.479 1.199 0 1.917-.959 2.396-.838.48-.958.24-1.797-1.317-.839-1.558-1.559-3.117-5.753-3.117-4.195 0-5.514 1.439-7.551 3.117-2.038 1.678-2.757 2.277-3.476 1.317-.719-.958-.479-1.917.839-3.116s3.476-3.116 5.513-3.955c2.038-.838 3.117-.718 5.034-.718zM61.47 113.013c2.397 1.917 5.992 3.475 13.663 3.475s13.063-2.157 15.461-3.954c1.079-.84 1.558-.12 1.678.359.12.479.36 1.199-.479 2.037-.599.6-6.112 4.435-12.584 5.034-6.473.599-15.221.959-20.495-3.835-.839-.839-.599-2.037 0-2.516.6-.479 1.079-.84 1.798-.84s.598-.001.958.24z"/><path fill="#0073BA" d="M32.106 103.903c9.108-.119 10.786-1.678 18.816-5.273 43.387-19.416 51.416-37.153 52.975-41.229 1.558-4.076 3.835-10.667 1.438-17.979a66.4 66.4 0 01-1.045-3.456c-5.765-6.447-11.489-9.965-13.218-11.045-6.232-3.955-12.345-5.513-18.338-9.468-3.715-2.397-8.868-8.51-13.183-13.663-.84 8.269-3.236 11.746-6.233 14.022-6.112 4.795-9.947 6.233-15.221 9.109-4.433 2.397-28.523 16.66-28.523 47.581 0 9.873 2.651 18.915 7.201 26.649l1.188-.042c2.517 2.278 6.473 4.914 14.143 4.794z"/><path fill="#004975" d="M91.073 24.922c-6.232-3.955-12.345-5.513-18.338-9.468-3.715-2.397-8.868-8.51-13.183-13.663-.84 8.269-3.236 11.746-6.233 14.022-6.112 4.795-9.947 6.233-15.221 9.109-4.434 2.396-28.524 16.659-28.524 47.58 0 9.873 2.651 18.915 7.201 26.649 9.7 16.492 28.028 27.044 47.69 27.044 28.885 0 53.934-20.974 53.934-52.735 0-17.441-7.084-29.641-14.108-37.494-5.765-6.446-11.489-9.964-13.218-11.044zm14.569 14.03c7.868 9.838 11.859 21.448 11.859 34.509 0 7.58-1.444 14.739-4.291 21.281a48.926 48.926 0 01-11.559 16.34c-9.823 9.168-23.029 14.216-37.186 14.216-7.003 0-13.875-1.338-20.427-3.977a54.728 54.728 0 01-17.232-11.029c-10.533-9.955-16.334-23.375-16.334-37.789 0-12.837 4.167-24.244 12.386-33.905 6.278-7.379 13.049-11.469 15.668-12.885a152.775 152.775 0 013.618-1.898c3.616-1.856 7.032-3.609 11.73-7.295 2.505-1.903 5.174-4.919 6.31-12.576 3.96 4.708 8.554 10 12.064 12.264 3.116 2.058 6.312 3.499 9.403 4.892 2.923 1.319 5.947 2.682 8.938 4.581l.113.07c8.748 5.46 13.407 11.286 14.94 13.201z"/><path fill="#93C5E4" d="M60.151 4.187c1.678 4.914 1.438 7.431 1.438 8.51s-.6 3.956-2.518 5.393c-.839.6-1.078 1.079-1.078 1.199 0 .479 1.078.839 1.078 1.917 0 1.319-.599 3.956-6.951 10.308-6.353 6.352-15.461 11.985-22.532 15.46-7.071 3.476-10.427 3.237-11.386 1.559-.959-1.678.359-5.393 4.794-10.307 4.435-4.915 18.457-11.986 18.457-11.986l17.499-12.224.958-4.675"/><path fill="#fff" d="M60.151 4.067c-1.079 7.911-3.476 10.308-6.712 12.824-5.394 4.076-10.667 6.592-11.865 7.191-3.116 1.558-14.382 7.791-20.255 16.78-1.798 2.756 0 3.835.359 4.074.36.24 4.435.719 13.184-4.554 8.75-5.274 12.585-8.39 17.499-13.544 2.637-2.756 2.996-4.314 2.996-5.034 0-.838-.6-1.198-1.558-1.438-.48-.12-.6-.36 0-.719.599-.359 3.115-1.558 3.715-2.037.6-.479 3.476-2.396 3.596-5.513.119-3.116-.12-5.274-.959-8.03zM33.185 91.199c.12-9.349 8.869-18.098 19.896-18.218 14.022-.119 23.73 13.903 30.802 13.783 5.991-.118 17.497-11.864 23.131-11.864 5.992 0 7.671 6.232 7.671 9.948 0 3.715-1.199 10.427-4.076 14.621-2.876 4.196-4.674 5.753-8.029 5.513-4.314-.359-12.944-13.783-18.458-14.022-6.95-.24-22.053 14.501-33.918 14.501-7.19 0-9.348-1.078-11.745-2.637-3.597-2.515-5.394-6.351-5.274-11.625z"/><path d="M105.336 39.423c2.396 7.311.119 13.903-1.438 17.979-1.559 4.075-9.588 21.813-52.975 41.229-8.03 3.595-9.708 5.154-18.816 5.273-7.671.12-11.626-2.516-14.143-4.793l-1.188.042c9.7 16.492 28.028 27.044 47.69 27.044 28.885 0 53.934-20.974 53.934-52.735 0-17.441-7.084-29.641-14.108-37.494.243.91.581 2.044 1.044 3.455z" fill="none"/></svg>