<svg version="1.1" xmlns="http://www.w3.org/2000/svg" xmlns:xlink="http://www.w3.org/1999/xlink" viewBox="0 0 128 128">
			<path fill="#0073BA" d="M66.835,101.194h-5.009l0.009,9.371c0,2.739-1.174,4.955-3.913,4.955c-2.739,0-3.924-2.216-3.924-4.955
				v-9.362h-4.996l-0.001,9.362c0,5.412,3.479,9.798,8.891,9.798c5.411,0,8.941-4.386,8.941-9.798L66.835,101.194z"/>
			<rect x="111.995" y="95.484" fill="#0073BA" width="4.984" height="24.395"/>
			<path fill="#0073BA" d="M44.929,100.991c-4.296-0.992-7.006,3.276-7.118,3.505c-0.056,0.112-0.058,0.178-0.249,0.173
				c-0.156-0.004-0.175-0.173-0.175-0.173l-0.533-3.266h-4.463v18.632h5.004v-10.085c0-0.822,2.219-4.774,6.519-3.757
				c2.175,0.514,3.097,1.436,3.097,1.436s0-3.596,0-5.676C46.206,101.361,45.654,101.158,44.929,100.991z"/>
			<path fill="#0073BA" d="M73.626,126v-6.704c0.001,0,0.001,0.001,0.002,0.001v-2.51c0,0,0.008-0.201,0.189-0.204
				c0.161-0.002,0.197,0.106,0.237,0.204c0.379,0.943,2.466,4.541,7.097,3.412c4.145-1.168,7.186-4.975,7.186-9.495
				c0-5.446-4.417-9.864-9.865-9.864c-5.448,0-9.864,4.418-9.864,9.864c0,0,0,13.485,0,15.295L73.626,126L73.626,126z
				 M78.477,105.713c2.758,0,4.994,2.235,4.994,4.991c0,2.759-2.235,4.995-4.994,4.995c-2.758,0-4.993-2.235-4.993-4.995
				C73.484,107.948,75.719,105.713,78.477,105.713z"/>
			<path fill="#0073BA" d="M104.954,119.872h5.018v-9.168c0-5.446-4.415-9.863-9.864-9.863c-5.448,0-9.865,4.417-9.865,9.863
				c0,4.521,3.042,8.327,7.187,9.495c4.631,1.129,6.717-2.468,7.097-3.412c0.04-0.098,0.075-0.205,0.237-0.203
				c0.182,0.002,0.188,0.203,0.188,0.203 M105.096,110.704c0,2.759-2.236,4.995-4.993,4.995s-4.994-2.235-4.994-4.995
				c0-2.756,2.236-4.991,4.994-4.991S105.096,107.948,105.096,110.704z"/>
				<path fill="#0073BA" d="M16.713,119.833h-5.692V95.475h6.108c7.396,0,13.006,1.357,13.006,12.178
					C30.135,118.372,24.192,119.833,16.713,119.833z M18.073,99.697h-2.012v15.909l2.066,0.053c4.238,0,6.967-0.386,6.967-8.007
					C25.094,100.346,22.685,99.697,18.073,99.697z"/>
		<path fill="#00598E" d="M83.539,20.706c-4.58-2.853-8.901-3.975-13.221-6.826c-2.679-1.815-6.395-6.136-9.506-9.852
			c-0.604,5.962-2.419,8.383-4.493,10.11c-4.407,3.457-7.173,4.494-10.975,6.567c-3.198,1.643-20.566,12.012-20.566,34.306
			S43.53,93.724,64.355,93.724c20.826,0,38.886-15.122,38.886-38.021C103.241,32.804,86.304,22.435,83.539,20.706z"/>
		<path fill="#FFFFFF" d="M76.52,74.358c1.382,0,2.852,0.086,3.889,0.777c1.037,0.691,1.642,2.248,1.987,3.111
			c0.346,0.863,0,1.382-0.691,1.728c-0.604,0.346-0.691,0.173-1.296-0.949c-0.605-1.124-1.124-2.248-4.148-2.248
			s-3.975,1.037-5.444,2.248c-1.469,1.21-1.988,1.642-2.506,0.949c-0.518-0.691-0.346-1.382,0.604-2.247
			c0.951-0.864,2.506-2.245,3.975-2.852C74.36,74.272,75.138,74.358,76.52,74.358L76.52,74.358z"/>
		<path fill="#FFFFFF" d="M62.176,84.209c1.729,1.382,4.32,2.506,9.851,2.506s9.419-1.556,11.147-2.852
			c0.778-0.605,1.123-0.085,1.21,0.259c0.086,0.347,0.259,0.865-0.346,1.469c-0.432,0.433-4.407,3.198-9.073,3.631
			c-4.667,0.431-10.974,0.691-14.777-2.766c-0.604-0.605-0.431-1.469,0-1.814c0.433-0.346,0.779-0.605,1.296-0.605
			C62.002,84.036,61.917,84.036,62.176,84.209L62.176,84.209z"/>
		<path fill="#0073BA" d="M41.005,77.642c6.567-0.086,7.777-1.21,13.566-3.801c31.282-13.999,37.07-26.789,38.194-29.727
			c1.123-2.938,2.765-7.691,1.037-12.962c-0.333-1.019-0.578-1.835-0.753-2.493c-4.157-4.647-8.284-7.184-9.53-7.962
			c-4.494-2.853-8.9-3.977-13.222-6.828c-2.678-1.728-6.394-6.135-9.504-9.85c-0.606,5.96-2.333,8.468-4.495,10.108
			c-4.406,3.458-7.171,4.494-10.974,6.569c-3.197,1.727-20.566,12.01-20.566,34.305c0,7.117,1.912,13.637,5.192,19.215l0.857-0.032
			C32.623,75.827,35.474,77.728,41.005,77.642z"/>
		<path fill="#004975" d="M83.52,20.697c-4.494-2.853-8.9-3.977-13.222-6.828c-2.678-1.728-6.394-6.135-9.504-9.85
			c-0.606,5.96-2.333,8.468-4.495,10.108c-4.406,3.458-7.171,4.494-10.974,6.569c-3.197,1.727-20.566,12.01-20.566,34.305
			c0,7.117,1.912,13.637,5.192,19.215c6.994,11.891,20.208,19.498,34.384,19.498c20.826,0,38.886-15.122,38.886-38.021
			c0-12.576-5.107-21.371-10.171-27.034C88.893,24.012,84.766,21.476,83.52,20.697z M94.023,30.812
			c5.673,7.094,8.551,15.465,8.551,24.882c0,5.465-1.042,10.626-3.094,15.343c-1.947,4.475-4.751,8.438-8.333,11.781
			c-7.083,6.61-16.604,10.249-26.811,10.249c-5.049,0-10.003-0.965-14.727-2.867c-4.639-1.868-8.82-4.544-12.425-7.952
			c-7.594-7.178-11.776-16.854-11.776-27.245c0-9.256,3.004-17.48,8.93-24.445c4.526-5.32,9.408-8.269,11.296-9.29
			c0.917-0.5,1.777-0.942,2.609-1.368c2.607-1.338,5.07-2.603,8.458-5.26c1.806-1.372,3.73-3.546,4.549-9.068
			c2.855,3.396,6.167,7.21,8.698,8.844c2.247,1.483,4.551,2.522,6.78,3.527c2.107,0.95,4.288,1.933,6.445,3.302
			c0.004,0.003,0.082,0.05,0.082,0.05C89.559,25.23,92.918,29.432,94.023,30.812z"/>
		<path fill="#93C5E4" d="M61.225,5.747c1.209,3.542,1.037,5.357,1.037,6.136c0,0.777-0.432,2.852-1.815,3.888
			c-0.605,0.433-0.777,0.777-0.777,0.865c0,0.344,0.777,0.604,0.777,1.381c0,0.951-0.431,2.853-5.011,7.432
			c-4.58,4.58-11.147,8.642-16.246,11.146c-5.098,2.507-7.517,2.335-8.208,1.125c-0.692-1.21,0.259-3.889,3.456-7.432
			c3.197-3.544,13.308-8.642,13.308-8.642l12.617-8.813l0.69-3.37"/>
		<path fill="#FFFFFF" d="M61.225,5.659c-0.778,5.704-2.506,7.434-4.839,9.246c-3.889,2.939-7.69,4.753-8.555,5.186
			c-2.247,1.123-10.369,5.617-14.604,12.099c-1.296,1.987,0,2.765,0.259,2.938c0.26,0.173,3.197,0.519,9.505-3.283
			c6.309-3.803,9.074-6.049,12.617-9.765c1.901-1.988,2.16-3.111,2.16-3.63c0-0.604-0.432-0.863-1.123-1.037
			c-0.347-0.086-0.432-0.259,0-0.518c0.432-0.259,2.246-1.124,2.679-1.469c0.432-0.347,2.506-1.728,2.592-3.976
			C62.002,9.203,61.83,7.647,61.225,5.659L61.225,5.659z"/>
		<path fill="#FFFFFF" d="M41.782,68.481c0.086-6.74,6.395-13.048,14.345-13.135c10.11-0.085,17.109,10.024,22.208,9.938
			c4.32-0.086,12.616-8.554,16.678-8.554c4.32,0,5.531,4.494,5.531,7.172c0,2.679-0.865,7.518-2.939,10.542
			c-2.074,3.024-3.37,4.148-5.789,3.975c-3.111-0.259-9.333-9.938-13.308-10.109c-5.011-0.173-15.9,10.455-24.455,10.455
			c-5.184,0-6.739-0.776-8.468-1.901C42.992,75.05,41.696,72.283,41.782,68.481L41.782,68.481z"/>
		<path fill="none" d="M93.803,31.152c1.728,5.271,0.086,10.023-1.037,12.962c-1.124,2.938-6.913,15.728-38.194,29.727
			c-5.79,2.591-7,3.715-13.566,3.801c-5.531,0.086-8.382-1.814-10.197-3.457l-0.857,0.032c6.994,11.891,20.208,19.498,34.384,19.498
			c20.826,0,38.886-15.122,38.886-38.021c0-12.576-5.107-21.371-10.171-27.034C93.225,29.317,93.469,30.134,93.803,31.152z"/>
</svg>
