<svg version="1.1" xmlns="http://www.w3.org/2000/svg" xmlns:xlink="http://www.w3.org/1999/xlink" viewBox="0 0 128 128">
	<path fill="#00598E" d="M91.1,24.935c-6.352-3.956-12.345-5.513-18.337-9.469c-3.716-2.516-8.869-8.51-13.185-13.663
		c-0.838,8.27-3.355,11.625-6.231,14.022c-6.112,4.795-9.948,6.232-15.222,9.109C33.69,27.212,9.601,41.595,9.601,72.516
		c0,30.923,26.008,53.694,54.892,53.694c28.886,0,53.934-20.974,53.934-52.734C118.426,41.714,94.936,27.333,91.1,24.935z"/>
	<path fill="#FFFFFF" d="M81.365,99.35c1.917,0,3.955,0.119,5.394,1.079c1.438,0.958,2.277,3.116,2.756,4.314
		c0.479,1.199,0,1.917-0.959,2.396c-0.838,0.48-0.958,0.24-1.797-1.317c-0.839-1.558-1.559-3.117-5.753-3.117
		c-4.195,0-5.514,1.439-7.551,3.117c-2.038,1.678-2.757,2.277-3.476,1.317c-0.719-0.958-0.479-1.917,0.839-3.116
		s3.476-3.116,5.513-3.955C78.369,99.23,79.448,99.35,81.365,99.35L81.365,99.35z"/>
	<path fill="#FFFFFF" d="M61.47,113.013c2.397,1.917,5.992,3.475,13.663,3.475s13.063-2.157,15.461-3.954
		c1.079-0.84,1.558-0.12,1.678,0.359c0.12,0.479,0.36,1.199-0.479,2.037c-0.599,0.6-6.112,4.435-12.584,5.034
		c-6.473,0.599-15.221,0.959-20.495-3.835c-0.839-0.839-0.599-2.037,0-2.516c0.6-0.479,1.079-0.84,1.798-0.84
		S61.11,112.772,61.47,113.013L61.47,113.013z"/>
	<path fill="#0073BA" d="M32.106,103.903c9.108-0.119,10.786-1.678,18.816-5.273c43.387-19.416,51.416-37.153,52.975-41.229
		c1.558-4.076,3.835-10.667,1.438-17.979c-0.463-1.412-0.801-2.545-1.045-3.456c-5.765-6.447-11.489-9.965-13.218-11.045
		c-6.232-3.955-12.345-5.513-18.338-9.468c-3.715-2.397-8.868-8.51-13.183-13.663c-0.84,8.269-3.236,11.746-6.233,14.022
		c-6.112,4.795-9.947,6.233-15.221,9.109C33.664,27.318,9.574,41.581,9.574,72.502c0,9.873,2.651,18.915,7.201,26.649l1.188-0.042
		C20.48,101.387,24.436,104.023,32.106,103.903z"/>
	<path fill="#004975" d="M91.073,24.922c-6.232-3.955-12.345-5.513-18.338-9.468c-3.715-2.397-8.868-8.51-13.183-13.663
		c-0.84,8.269-3.236,11.746-6.233,14.022c-6.112,4.795-9.947,6.233-15.221,9.109C33.664,27.318,9.574,41.581,9.574,72.502
		c0,9.873,2.651,18.915,7.201,26.649c9.7,16.492,28.028,27.044,47.69,27.044c28.885,0,53.934-20.974,53.934-52.735
		c0-17.441-7.084-29.641-14.108-37.494C98.526,29.52,92.802,26.002,91.073,24.922z M105.642,38.952
		c7.868,9.838,11.859,21.448,11.859,34.509c0,7.58-1.444,14.739-4.291,21.281c-2.7,6.206-6.59,11.703-11.559,16.34
		c-9.823,9.168-23.029,14.216-37.186,14.216c-7.003,0-13.875-1.338-20.427-3.977c-6.434-2.591-12.232-6.302-17.232-11.029
		c-10.533-9.955-16.334-23.375-16.334-37.789c0-12.837,4.167-24.244,12.386-33.905c6.278-7.379,13.049-11.469,15.668-12.885
		c1.271-0.694,2.465-1.307,3.618-1.898c3.616-1.856,7.032-3.609,11.73-7.295c2.505-1.903,5.174-4.919,6.31-12.576
		c3.96,4.708,8.554,10,12.064,12.264c3.116,2.058,6.312,3.499,9.403,4.892c2.923,1.319,5.947,2.682,8.938,4.581
		c0.006,0.003,0.113,0.07,0.113,0.07C99.45,31.211,104.109,37.037,105.642,38.952z"/>
	<path fill="#93C5E4" d="M60.151,4.187c1.678,4.914,1.438,7.431,1.438,8.51s-0.6,3.956-2.518,5.393
		c-0.839,0.6-1.078,1.079-1.078,1.199c0,0.479,1.078,0.839,1.078,1.917c0,1.319-0.599,3.956-6.951,10.308
		c-6.353,6.352-15.461,11.985-22.532,15.46c-7.071,3.476-10.427,3.237-11.386,1.559c-0.959-1.678,0.359-5.393,4.794-10.307
		c4.435-4.915,18.457-11.986,18.457-11.986l17.499-12.224l0.958-4.675"/>
	<path fill="#FFFFFF" d="M60.151,4.067c-1.079,7.911-3.476,10.308-6.712,12.824c-5.394,4.076-10.667,6.592-11.865,7.191
		c-3.116,1.558-14.382,7.791-20.255,16.78c-1.798,2.756,0,3.835,0.359,4.074c0.36,0.24,4.435,0.719,13.184-4.554
		c8.75-5.274,12.585-8.39,17.499-13.544c2.637-2.756,2.996-4.314,2.996-5.034c0-0.838-0.6-1.198-1.558-1.438
		c-0.48-0.12-0.6-0.36,0-0.719c0.599-0.359,3.115-1.558,3.715-2.037c0.6-0.479,3.476-2.396,3.596-5.513
		C61.229,8.981,60.99,6.823,60.151,4.067L60.151,4.067z"/>
	<path fill="#FFFFFF" d="M33.185,91.199c0.12-9.349,8.869-18.098,19.896-18.218c14.022-0.119,23.73,13.903,30.802,13.783
		C89.874,86.646,101.38,74.9,107.014,74.9c5.992,0,7.671,6.232,7.671,9.948c0,3.715-1.199,10.427-4.076,14.621
		c-2.876,4.196-4.674,5.753-8.029,5.513c-4.314-0.359-12.944-13.783-18.458-14.022c-6.95-0.24-22.053,14.501-33.918,14.501
		c-7.19,0-9.348-1.078-11.745-2.637C34.862,100.309,33.065,96.473,33.185,91.199L33.185,91.199z"/>
	<path fill="none" d="M105.336,39.423c2.396,7.311,0.119,13.903-1.438,17.979c-1.559,4.075-9.588,21.813-52.975,41.229
		c-8.03,3.595-9.708,5.154-18.816,5.273c-7.671,0.12-11.626-2.516-14.143-4.793l-1.188,0.042c9.7,16.492,28.028,27.044,47.69,27.044
		c28.885,0,53.934-20.974,53.934-52.735c0-17.441-7.084-29.641-14.108-37.494C104.535,36.878,104.873,38.012,105.336,39.423z"/>
</svg>
