<?xml version="1.0" encoding="utf-8"?>
<!-- Generator: Adobe Illustrator 16.0.0, SVG Export Plug-In . SVG Version: 6.00 Build 0)  -->
<!DOCTYPE svg PUBLIC "-//W3C//DTD SVG 1.1//EN" "http://www.w3.org/Graphics/SVG/1.1/DTD/svg11.dtd">
<svg version="1.1" id="Layer_1" xmlns="http://www.w3.org/2000/svg" xmlns:xlink="http://www.w3.org/1999/xlink" x="0px" y="0px"
	 width="500px" height="500px" viewBox="0 0 500 500" enable-background="new 0 0 500 500" xml:space="preserve">
<g>
	<path fill-rule="evenodd" clip-rule="evenodd" fill="#336791" d="M475.704,297.713c-1.762-11.397-11.335-18.863-22.47-19.368
		c-4.032-0.184-8.128,0.24-12.146,0.751c-4.857,0.618-9.651,1.708-14.498,2.434c-3.35,0.501-6.739,0.729-10.082,1.076
		c-0.063-0.312-0.109-0.392-0.086-0.436c6.241-11.79,12.744-23.451,18.651-35.406c4.531-9.172,8.406-18.675,12.406-28.103
		c6.628-15.618,11.918-31.719,16.302-48.083c4.198-15.669,7.791-31.507,8.925-47.762c0.452-6.491,0.766-13.009,0.726-19.512
		c-0.03-5.184-0.592-10.375-1.107-15.543c-0.59-5.922-2.379-11.535-4.855-16.938c-3.264-7.119-8.326-12.958-13.655-18.507
		c-4.264-4.44-8.957-8.486-13.612-12.532c-6.634-5.768-14.091-10.375-21.835-14.466c-8.799-4.649-18.05-8.283-27.695-10.741
		c-5.831-1.486-11.794-2.339-17.701-3.521c-2.119-0.424-4.248-1.057-6.372-1.057c-13.335,0-26.669,0-40.004,0
		c-1.445,0-2.881,0.498-4.337,0.66c-9.578,1.068-19.043,2.745-28.233,5.595c-3.437,1.066-6.576,0.332-9.84,0.029
		c-2.503-0.231-4.971-0.932-7.474-1.057c-9.537-0.477-19.086-1.192-28.623-1.091c-9.137,0.097-18.182,1.59-27.021,4.102
		c-7.402,2.103-14.646,4.665-21.28,8.555c-2.837,1.665-5.091,1.348-8.026,0.502c-9.874-2.848-19.813-5.523-29.837-7.77
		c-6.248-1.399-12.677-2.097-19.06-2.761c-6.118-0.636-12.278-1.019-18.428-1.15c-6.011-0.127-12.061-0.125-18.041,0.407
		c-9.529,0.849-18.876,2.788-27.961,5.911C68.342,25.401,59.094,30.43,50.754,37.03c-8.465,6.699-15.258,14.876-20.713,24.217
		c-5.756,9.857-9.703,20.408-12.154,31.487c-1.329,6.006-2.047,12.177-2.959,18.275c-0.283,1.892,0.072,3.79-0.928,5.684
		c0,8.848,0,17.694,0,26.541c1,1.766,0.691,3.527,0.918,5.298c0.543,4.254,0.961,8.54,1.679,12.764
		c1.134,6.685,2.454,13.347,3.827,19.987c1.922,9.275,3.903,18.545,6.031,27.775c1.549,6.718,3.298,13.399,5.141,20.044
		c2.814,10.147,5.582,20.316,8.764,30.349c2.958,9.325,6.345,18.517,9.707,27.707c4.651,12.715,10.225,25.018,16.901,36.81
		c5.782,10.212,12.378,19.776,21.233,27.642c5.836,5.185,12.33,9.168,19.889,11.16c5.941,1.563,11.985,1.751,18.063,0.505
		c7.051-1.444,13.296-4.481,18.844-9.027c0.64-0.523,1.336-0.922,2.092,0.038c2.872,3.636,6.713,6.063,10.733,8.161
		c10.852,5.658,22.668,7.353,34.677,8.043c2.908,0.167,5.846-0.25,8.772-0.332c5.709-0.159,11.258-1.27,16.716-2.849
		c2.859-0.829,5.653-1.878,8.564-2.857c0.152,3.097,0.346,6.08,0.437,9.066c0.164,5.423,0.245,10.849,0.405,16.273
		c0.073,2.478,0.172,4.959,0.4,7.426c0.591,6.357,1.167,12.716,1.927,19.053c0.525,4.368,1.075,8.768,2.101,13.034
		c2.066,8.605,4.869,16.983,8.43,25.108c3.494,7.97,8.522,14.701,15.236,20.251c8.672,7.171,18.838,10.231,29.813,10.796
		c4.54,0.236,9.209,0.015,13.675-0.797c7.085-1.286,14.149-2.903,21.041-4.982c14.027-4.235,26.156-11.548,35.21-23.365
		c5.157-6.735,9.394-14.019,12.11-22.065c2.243-6.645,4.355-13.355,6.036-20.157c1.324-5.358,1.981-10.884,2.788-16.359
		c0.535-3.621,0.856-7.278,1.192-10.926c0.545-5.925,1.104-11.851,1.499-17.787c0.274-4.132,0.265-8.284,0.427-12.424
		c0.049-1.261,0.256-2.515,0.373-3.773c0.107-1.165,0.692-1.567,1.884-1.549c4.182,0.064,8.371,0.173,12.546-0.015
		c4.677-0.211,9.393-0.411,13.997-1.183c6.549-1.098,13.068-2.486,19.491-4.166c7.589-1.985,14.547-5.54,21.251-9.59
		c7.806-4.715,14.921-10.248,20.69-17.373C474.534,312.745,476.916,305.559,475.704,297.713z M462.375,301.55
		c-0.262,3.573-1.897,6.637-4.27,9.254c-11.207,12.354-25.264,19.849-41.348,23.541c-6.112,1.402-12.414,2.128-18.671,2.707
		c-5.326,0.492-10.724,0.576-16.07,0.377c-3.929-0.148-7.827-1.046-11.843-1.624c-0.403,3.671-0.787,7.497-1.252,11.312
		c-0.593,4.882-1.281,9.749-1.873,14.628c-0.564,4.638-1.007,9.29-1.593,13.926c-0.569,4.498-1.28,8.976-1.879,13.472
		c-0.558,4.187-0.969,8.396-1.593,12.575c-0.957,6.405-1.869,12.827-3.12,19.181c-1.498,7.599-3.798,14.956-7.551,21.81
		c-4.579,8.363-11.069,14.737-19.333,19.457c-8.517,4.865-17.826,7.396-27.264,9.513c-6.682,1.501-13.561,1.747-20.329,1.136
		c-11.733-1.061-21.753-6.08-29.321-15.178c-7.225-8.684-12.112-18.634-13.866-29.904c-0.835-5.356-1.438-10.755-1.918-16.157
		c-0.531-6.002-0.892-12.026-1.166-18.047c-0.348-7.641-0.604-15.286-0.771-22.934c-0.204-9.396-0.274-18.796-0.405-28.194
		c-0.003-0.236-0.032-0.47-0.024-0.359c-4.777,2.868-9.479,6.007-14.464,8.595c-5.835,3.032-12.175,4.79-18.741,5.287
		c-5.148,0.388-10.366,0.745-15.488,0.334c-8.402-0.674-16.796-1.993-24.317-6.13c-3.051-1.677-6.233-3.723-8.335-6.403
		c-5.039-6.428-2.625-14.553,4.973-18.466c5.25-2.707,10.979-3.836,16.672-5.153c4.943-1.145,9.867-2.444,14.688-4.02
		c4.773-1.562,7.786-5.433,10.758-9.231c1.545-1.975,3.079-3.957,4.712-6.059c-1.964-0.207-3.814-0.417-5.668-0.59
		c-5.622-0.528-10.982-2.077-16.114-4.351c-4.39-1.944-4.456-2.153-7.676,1.34c-5.374,5.834-10.599,11.81-15.868,17.741
		c-3.876,4.362-7.723,8.751-11.582,13.13c-3.819,4.329-7.397,8.901-11.512,12.927c-6.11,5.982-13.475,9.576-22.259,9.169
		c-5.638-0.259-10.797-2.233-15.439-5.466c-9.575-6.669-16.033-16.002-21.906-25.803c-7.525-12.559-13.308-25.939-18.252-39.683
		c-3.419-9.501-6.857-19.007-9.845-28.647c-3.245-10.473-6.093-21.076-8.896-31.679c-2.116-8-3.998-16.067-5.789-24.148
		c-2.035-9.188-3.993-18.399-5.719-27.651c-1.164-6.247-1.84-12.583-2.782-18.872c-1.27-8.479-1.501-17.033-1.04-25.544
		c0.413-7.669,1.509-15.317,2.604-22.932c1.516-10.538,4.991-20.485,9.985-29.875c3.06-5.753,6.853-10.983,11.242-15.843
		c7.209-7.98,15.933-13.742,25.638-18.072c6.78-3.024,13.945-4.843,21.245-6.264c10.839-2.11,21.773-2.025,32.708-1.802
		c4.78,0.098,9.545,0.968,14.319,1.443c10.288,1.024,20.367,3.189,30.32,5.858c7.258,1.946,14.361,4.466,21.556,6.655
		c0.72,0.218,1.78,0.199,2.371-0.187c9.752-6.364,20.403-10.563,31.736-12.967c4.302-0.913,8.742-1.311,13.141-1.591
		c5.347-0.34,10.737-0.652,16.073-0.345c6.412,0.369,12.798,1.313,19.173,2.185c3.096,0.424,6.115,1.497,9.215,1.79
		c1.487,0.141,3.06-0.945,4.63-1.309c8.004-1.848,15.972-3.908,24.047-5.366c6.012-1.085,12.155-1.597,18.265-1.948
		c6.819-0.392,13.683-0.677,20.496-0.35c8.615,0.414,17.162,1.641,25.604,3.606c10.458,2.435,20.488,5.969,30.023,10.876
		c7.123,3.667,13.896,7.916,19.993,13.142c4.001,3.43,8.089,6.816,11.698,10.636c4.451,4.711,8.995,9.423,11.786,15.459
		c2.104,4.55,3.604,9.264,4.018,14.247c0.517,6.196,1.14,12.415,1.083,18.618c-0.053,5.932-0.862,11.861-1.436,17.782
		c-1.306,13.49-4.24,26.691-7.804,39.717c-2.943,10.757-6.385,21.398-10.11,31.913c-3.434,9.692-7.395,19.207-11.397,28.685
		c-2.958,7.007-6.143,13.94-9.603,20.714c-6.553,12.834-13.363,25.536-21.244,37.629c-1.361,2.089-2.647,4.23-3.977,6.363
		c3.438,2.321,7.332,3.138,11.255,3.561c3.728,0.403,7.532,0.647,11.261,0.37c5.967-0.443,11.909-1.295,17.841-2.125
		c5.874-0.822,11.63-2.492,17.665-2.051C458.473,291.329,462.787,295.906,462.375,301.55z"/>
	<path fill-rule="evenodd" clip-rule="evenodd" fill="#336791" d="M376.386,288.452c-2.557-3.305-5.166-6.569-7.67-9.915
		c-3.929-5.25-6.754-11.113-9.593-17.002c-2.688-5.581-5.982-10.867-8.813-16.386c-4.941-9.631-9.973-19.228-14.524-29.043
		c-5.723-12.334-10.234-25.101-11.655-38.762c-0.602-5.781-0.757-11.555,0.416-17.283c1.873-9.143,6.647-16.296,14.678-21.202
		c7.451-4.551,15.75-6.018,24.253-6.478c5.275-0.285,10.578-0.052,16.057-0.052c-0.038-0.203-0.028-0.602-0.183-0.924
		c-3.406-7.122-6.588-14.365-10.313-21.317c-5.257-9.814-11.987-18.662-19.481-26.866c-5.548-6.074-11.56-11.708-18.145-16.692
		c-6.479-4.904-13.301-9.283-20.581-12.863c-8.682-4.269-17.727-7.571-27.213-9.674c-9.119-2.022-18.291-3.261-27.646-3.364
		c-7.975-0.087-15.903,0.274-23.671,2.072c-11.727,2.714-22.45,7.541-31.782,15.364c-5.209,4.367-9.758,9.27-13.736,14.726
		c-4.676,6.416-8.444,13.348-11.665,20.613c-4.42,9.968-7.458,20.342-9.535,31.008c-1.035,5.318-1.85,10.682-2.675,16.038
		c-0.29,1.876-0.314,3.794-0.48,5.942c1.439-0.752,2.476-1.33,3.543-1.844c1.137-0.548,2.308-1.027,3.455-1.552
		c11.694-5.345,23.803-8.787,36.824-8.393c5.531,0.167,10.821,1.26,15.741,3.685c9.437,4.652,14.955,12.564,17.354,22.573
		c1.655,6.91,2.79,13.956,3.892,20.982c0.86,5.49,1.747,11.036,1.845,16.57c0.145,8.088-0.266,16.196-0.704,24.281
		c-0.373,6.891-1.812,13.671-4.219,20.102c-4.377,11.69-9.251,23.192-13.804,34.816c-1.504,3.841-2.662,7.818-4.082,12.039
		c2.194,0,3.975-0.017,5.754,0.008c0.695,0.011,1.408,0.032,2.079,0.19c5.234,1.235,9.772,3.607,13.498,7.634
		c4.961,5.359,7.568,11.612,7.7,18.85c0.072,4.013-0.345,8.033-0.328,12.046c0.081,18.697,0.221,37.391,0.379,56.085
		c0.026,3.055,0.178,6.113,0.396,9.162c0.46,6.387,0.919,12.777,1.541,19.149c0.439,4.521,1.048,9.031,1.762,13.518
		c1.013,6.36,3.906,12.02,7.191,17.43c2.826,4.654,6.505,8.607,11.351,11.335c8.232,4.629,17.092,5.018,26.025,3.31
		c6.035-1.152,11.964-3.003,17.819-4.913c5.774-1.88,10.999-4.955,15.378-9.198c4.104-3.978,7.019-8.831,8.984-14.187
		c3.811-10.385,5.001-21.326,6.577-32.174c0.591-4.063,1.1-8.138,1.64-12.206c0.613-4.631,1.233-9.261,1.826-13.892
		c0.439-3.451,0.837-6.905,1.259-10.354c0.604-4.953,1.24-9.901,1.813-14.858c0.442-3.834,0.813-7.678,1.205-11.519
		c0.503-4.909,1.043-9.813,1.479-14.728c0.333-3.728,0.196-7.526,0.857-11.188c1.213-6.71,4.389-12.42,10.339-16.115
		c2.486-1.542,5.298-2.56,8.061-3.863C376.714,288.953,376.569,288.688,376.386,288.452z"/>
	<path fill-rule="evenodd" clip-rule="evenodd" fill="#336791" d="M151.4,260.905c-2.974-7.038-4.759-14.375-5.292-21.958
		c-0.501-7.13,0.346-14.23,1.078-21.331c0.709-6.875,1.302-13.781,1.509-20.686c0.343-11.354-0.422-22.688-0.968-34.032
		c-0.324-6.756,0.458-13.59,1.061-20.361c0.542-6.097,1.222-12.213,2.373-18.218c1.937-10.082,4.501-20.02,8.15-29.652
		c3.462-9.135,7.448-18.026,13.065-26.035c3.854-5.494,8.223-10.624,12.419-15.99c-0.198-0.07-0.718-0.273-1.248-0.442
		C169.884,47.86,156,44.47,141.716,42.99c-6.748-0.7-13.529-1.111-20.303-1.514c-2.078-0.124-4.189,0.157-6.275,0.357
		c-5.166,0.494-10.394,0.689-15.473,1.657c-8.647,1.646-16.943,4.412-24.626,8.915c-6.898,4.043-12.692,9.268-17.545,15.54
		c-5.358,6.924-8.967,14.75-11.558,23.095c-3.059,9.848-4.515,19.982-4.908,30.209c-0.343,8.964-0.516,17.978,1.03,26.909
		c1.151,6.648,1.922,13.366,3.191,19.989c1.731,9.025,3.59,18.034,5.731,26.969c3.065,12.79,6.131,25.597,9.763,38.232
		c3.477,12.104,7.395,24.1,11.649,35.953c3.474,9.669,7.497,19.164,11.73,28.531c2.757,6.099,6.094,11.974,9.598,17.687
		c3.721,6.067,7.958,11.825,13.701,16.225c7.252,5.558,12.862,6.422,20.231,0.323c3.155-2.611,5.823-5.839,8.571-8.912
		c4.363-4.879,8.572-9.897,12.915-14.797c5.53-6.241,11.132-12.417,16.693-18.629c1.174-1.313,2.304-2.664,3.45-3.992
		c-0.673-0.587-1.31-1.097-1.896-1.66C160.486,277.438,155.133,269.742,151.4,260.905z"/>
	<path fill-rule="evenodd" clip-rule="evenodd" fill="#336791" d="M361.114,75.088c4.517,5.298,8.892,10.75,12.928,16.42
		c7.809,10.971,14.05,22.822,18.654,35.498c2.031,5.587,3.655,11.228,2.933,17.34c-0.506,4.283-0.463,8.627-0.841,12.929
		c-0.315,3.583-0.882,7.143-1.344,10.712c-0.696,5.385-1.704,10.752-2.005,16.158c-0.287,5.146,0.012,10.342,0.336,15.499
		c0.328,5.24,1.033,10.454,1.513,15.684c0.544,5.93,1.276,11.859,1.444,17.801c0.136,4.878-0.299,9.787-0.722,14.661
		c-0.509,5.867-1.996,11.547-4.214,16.994c-1.563,3.838-3.424,7.553-5.185,11.398c0.179,0.192,0.42,0.494,0.705,0.748
		c0.309,0.278,0.655,0.513,1.073,0.832c0.409-0.734,0.717-1.354,1.086-1.936c9.137-14.404,17.265-29.366,24.302-44.893
		c4.531-10,8.769-20.14,12.841-30.335c6.342-15.876,11.366-32.196,15.248-48.84c1.744-7.475,3.075-15.06,4.256-22.647
		c0.924-5.929,1.69-11.928,1.863-17.915c0.183-6.35-0.167-12.747-0.754-19.08c-0.441-4.781-1.62-9.592-4.614-13.48
		c-4.819-6.257-10.019-12.241-16.41-16.974c-5.383-3.987-10.748-8.082-16.526-11.434c-9.157-5.314-19.074-8.85-29.434-11.263
		c-10.11-2.354-20.354-3.371-30.66-3.589c-6.074-0.129-12.181,0.525-18.249,1.096c-5.495,0.516-10.957,1.396-16.49,2.124
		c5.935,3.338,11.793,6.308,17.314,9.808C341.775,55.762,352.184,64.614,361.114,75.088z"/>
	<path fill-rule="evenodd" clip-rule="evenodd" fill="#336791" d="M210.239,281.036c3.75-12.003,8.863-23.464,13.817-34.995
		c4.018-9.352,6.211-19.202,6.943-29.322c0.362-4.99,0.264-10.039,0.015-15.044c-0.275-5.559-0.718-11.133-1.529-16.636
		c-1.038-7.034-2.222-14.075-3.887-20.981c-1.802-7.471-6.354-12.676-14.151-14.593c-4.749-1.168-9.468-1.121-14.271-0.363
		c-11.726,1.847-22.461,6.168-32.459,12.497c-2.01,1.271-3.119,2.299-2.771,5.185c0.737,6.113,0.894,12.325,0.865,18.495
		c-0.039,8.734-0.412,17.469-0.744,26.199c-0.109,2.843-0.517,5.674-0.823,8.506c-0.469,4.334-1.37,8.667-1.344,12.997
		c0.028,4.458,0.484,9.028,1.567,13.344c3.438,13.702,10.719,24.912,22.651,32.822c7.341,4.864,15.463,7.315,24.379,7.782
		C209.103,284.882,209.642,282.949,210.239,281.036z M196.23,163.51c-1.574-3.297-0.67-6.03,2.966-7.296
		c0.888-0.309,1.801-0.643,2.724-0.734c1.268-0.125,2.557-0.031,3.837-0.031c4.616,0.023,9.062,0.668,12.871,3.605
		c2.447,1.885,3.103,4.382,1.519,6.951c-2.245,3.64-5.671,5.469-9.878,5.819C203.641,172.376,198.987,169.284,196.23,163.51z"/>
	<path fill-rule="evenodd" clip-rule="evenodd" fill="#336791" d="M379.979,162.303c0.531-4.392,0.96-8.795,1.502-13.186
		c0.217-1.764-0.712-2.243-2.19-2.284c-4.657-0.13-9.313-0.294-13.972-0.378c-5.246-0.093-10.361,0.749-15.214,2.745
		c-5.394,2.22-9.497,5.771-11.176,11.64c-1.252,4.375-1.584,8.745-1.143,13.319c0.672,6.974,2.222,13.735,4.659,20.219
		c3.262,8.678,6.669,17.348,10.745,25.661c5.52,11.252,11.763,22.147,17.627,33.23c1.566,2.958,2.885,6.045,4.517,9.495
		c3.419-7.236,5.086-14.486,5.275-21.958c0.158-6.292-0.343-12.606-0.712-18.9c-0.227-3.851-0.772-7.682-1.146-11.524
		c-0.521-5.355-1.314-10.708-1.436-16.074c-0.123-5.458,0.265-10.946,0.73-16.396C378.49,172.692,379.351,167.509,379.979,162.303z
		 M369.479,158.076c-1.735,4.777-5.43,7.475-10.229,8.265c-4.469,0.736-8.392-0.916-11.304-4.483
		c-2.075-2.541-1.278-5.546,1.828-7.264c3.572-1.976,7.495-2.475,12.128-2.776c1.258,0.229,3.149,0.423,4.952,0.936
		C369.461,153.494,370.428,155.46,369.479,158.076z"/>
	<path fill-rule="evenodd" clip-rule="evenodd" fill="#336791" d="M231.107,305.186c-2.558-2.087-5.94-2.212-8.373,0.081
		c-3.022,2.851-5.676,6.113-8.329,9.328c-3.068,3.715-5.945,7.578-9.9,10.454c-5.756,4.187-12.47,5.919-19.215,7.558
		c-5.364,1.305-10.751,2.515-16.128,3.77c-0.021,0.231-0.044,0.463-0.066,0.695c1.601,0.739,3.144,1.659,4.81,2.186
		c8.203,2.596,16.547,3.892,25.217,3.156c6.254-0.533,12.217-1.897,17.865-4.574c7.776-3.686,13.76-9.521,18.844-16.309
		c0.85-1.133,1.237-2.809,1.336-4.27C237.512,312.108,234.893,308.274,231.107,305.186z"/>
	<path fill-rule="evenodd" clip-rule="evenodd" fill="#336791" d="M433.258,307.243c-6.603,0.706-13.208,1.455-19.832,1.834
		c-3.196,0.184-6.438-0.428-9.659-0.688c-5.409-0.438-10.695-1.64-15.27-4.529c-2.645-1.669-4.848-1.855-7.658-0.91
		c-4.018,1.351-7.292,3.406-8.265,7.756c-0.658,2.943-0.9,5.988-1.163,9.002c-0.047,0.53,0.617,1.507,1.121,1.641
		c3.098,0.818,6.213,1.782,9.381,2.068c3.894,0.351,7.852,0.238,11.769,0.044c4.23-0.209,8.488-0.484,12.659-1.186
		c9.82-1.651,19.326-4.335,27.769-9.906c3.045-2.01,6.058-4.063,9.086-6.099c-0.085-0.144-0.17-0.288-0.253-0.432
		C439.715,306.314,436.5,306.899,433.258,307.243z"/>
</g>
</svg>
