<?xml version="1.0" encoding="utf-8"?>
<!-- Generator: Adobe Illustrator 16.0.0, SVG Export Plug-In . SVG Version: 6.00 Build 0)  -->
<!DOCTYPE svg PUBLIC "-//W3C//DTD SVG 1.1//EN" "http://www.w3.org/Graphics/SVG/1.1/DTD/svg11.dtd">
<svg version="1.1" id="Layer_1" xmlns="http://www.w3.org/2000/svg" xmlns:xlink="http://www.w3.org/1999/xlink" x="0px" y="0px"
	 width="500px" height="500px" viewBox="0 0 500 500" enable-background="new 0 0 500 500" xml:space="preserve">
<g>
	<g id="Layer_x0020_3">
		<g>
			<path d="M366.465,362.813c3.063-25.521,2.146-29.266,21.156-25.131l4.825,0.424c14.617,0.665,33.738-2.352,44.972-7.568
				c24.183-11.221,38.521-29.955,14.677-25.033c-54.39,11.221-58.129-7.196-58.129-7.196c57.432-85.216,81.44-193.39,60.717-219.868
				C398.161,6.215,300.319,40.368,298.682,41.254l-0.522,0.098c-10.746-2.23-22.773-3.563-36.284-3.781
				c-24.613-0.404-43.289,6.453-57.456,17.197c0,0-174.544-71.909-166.425,90.435c1.728,34.536,49.503,261.321,106.484,192.821
				c20.827-25.048,40.953-46.227,40.953-46.227c9.993,6.639,21.959,10.026,34.51,8.81l0.97-0.827
				c-0.305,3.11-0.171,6.152,0.389,9.752c-14.678,16.403-10.364,19.281-39.713,25.322c-29.691,6.119-12.248,17.015-0.862,19.861
				c13.809,3.454,45.749,8.346,67.337-21.869l-0.86,3.447c5.758,4.607,5.37,33.111,6.186,53.477
				c0.817,20.366,2.181,39.371,6.332,50.577c4.151,11.202,9.051,40.065,47.62,31.799c32.235-6.907,56.881-16.849,59.127-109.335"/>
			<path d="M294.78,492.28c-17.057,0-28.167-6.597-34.916-12.967c-10.183-9.61-14.223-21.988-16.636-29.384
				c-0.391-1.195-0.76-2.326-1.041-3.086c-4.86-13.119-6.506-32.004-7.482-56.324c-0.146-3.65-0.251-7.416-0.362-11.403
				c-0.081-2.917-0.183-6.578-0.331-10.408c-6.065,2.901-12.552,4.96-19.383,6.128c-12.027,2.057-24.959,1.39-38.439-1.981
				c-9.51-2.378-19.394-7.306-25.027-14.921c-16.415,14.377-32.077,12.426-40.606,9.58c-15.049-5.02-28.52-19.121-41.18-43.111
				c-9.019-17.09-17.742-39.357-25.931-66.184C29.184,211.5,20.128,162.291,19.321,146.137
				C16.792,95.568,30.402,59.408,59.773,38.662c46.334-32.729,116.534-13.484,142.126-4.744
				c17.195-10.363,37.425-15.408,60.284-15.043c12.277,0.199,23.968,1.278,34.826,3.215c11.328-3.563,33.704-8.674,59.314-8.355
				c47.193,0.563,86.297,18.953,113.084,53.182c19.114,24.422,9.664,75.709,2.329,104.106
				c-10.316,39.942-28.4,82.429-50.613,119.413c6.034,0.044,14.771-0.682,27.194-3.244c24.51-5.061,31.676,8.08,33.62,13.965
				c7.795,23.604-26.081,41.438-36.649,46.342c-13.538,6.288-35.612,10.113-53.69,9.286l-0.789-0.052l-4.751-0.418
				c-0.159,1.309-0.315,2.657-0.468,3.96c-0.143,1.229-0.293,2.521-0.454,3.873c-1.212,46.871-7.91,76.554-21.687,96.169
				c-14.439,20.559-34.512,26.322-52.192,30.111C305.233,491.719,299.753,492.28,294.78,492.28z M258.884,321.693
				c11.012,8.813,11.976,25.394,12.839,56.381c0.108,3.869,0.21,7.525,0.347,10.946c0.416,10.35,1.389,34.589,5.183,44.831
				c0.537,1.449,1.018,2.92,1.525,4.477c4.228,12.953,6.351,19.451,24.643,15.535c15.356-3.291,23.249-6.243,29.428-15.04
				c8.982-12.79,14.005-38.517,14.926-76.466l18.682,0.453l-18.555-2.227c0.196-1.633,0.376-3.176,0.545-4.632
				c1.777-15.271,3.061-26.306,13.269-33.599c8.189-5.852,17.523-5.283,24.956-3.947c-8.166-6.169-10.425-13.408-11.028-16.379
				l-1.559-7.675l4.378-6.495c25.221-37.422,46.021-83.415,57.068-126.187c11.352-43.952,7.887-67.29,4.43-71.706
				c-45.814-58.543-125.266-34.371-133.561-31.627l-1.402,0.76l-7.033,1.31l-3.604-0.748c-9.929-2.062-20.959-3.202-32.785-3.394
				c-18.577-0.313-33.566,4.078-45.856,13.4l-8.526,6.467l-9.896-4.076c-21.139-8.646-83.234-26.023-116-2.814
				c-18.187,12.882-26.473,38.125-24.627,75.025c0.609,12.182,8.888,58.304,22.541,103.034
				c18.869,61.816,36.019,82.351,43.177,84.738c1.25,0.421,4.493-2.097,7.718-5.974c20.979-25.231,40.935-46.267,41.773-47.15
				l10.819-11.384l13.081,8.69c5.273,3.504,11.09,5.492,17.062,5.865l31.198-26.611l-4.519,46.125
				c-0.102,1.035-0.15,2.445,0.256,5.061l1.358,8.744l-5.9,6.594c-0.231,0.258-0.457,0.513-0.679,0.764l17.142,7.912
				L258.884,321.693z"/>
		</g>
		<g>
			<path fill="#336791" d="M452.101,305.502c-54.396,11.221-58.135-7.197-58.135-7.197c57.432-85.221,81.44-193.396,60.722-219.871
				c-56.523-72.221-154.369-38.065-156.002-37.18l-0.526,0.094c-10.746-2.23-22.773-3.559-36.29-3.779
				c-24.613-0.402-43.283,6.452-57.45,17.196c0,0-174.548-71.907-166.43,90.435c1.728,34.539,49.502,261.324,106.485,192.824
				c20.827-25.048,40.95-46.227,40.95-46.227c9.995,6.639,21.961,10.026,34.505,8.81l0.975-0.827
				c-0.303,3.11-0.165,6.152,0.391,9.752c-14.68,16.403-10.367,19.281-39.712,25.322c-29.694,6.119-12.25,17.015-0.86,19.861
				c13.806,3.454,45.749,8.346,67.332-21.869l-0.86,3.447c5.752,4.607,9.791,29.967,9.115,52.955
				c-0.679,22.988-1.131,38.771,3.402,51.099c4.532,12.327,9.049,40.065,47.626,31.799c32.235-6.907,48.938-24.809,51.263-54.669
				c1.648-21.229,5.381-18.09,5.616-37.07l2.994-8.984c3.452-28.777,0.548-38.061,20.408-33.742l4.825,0.424
				c14.617,0.664,33.748-2.352,44.976-7.569c24.179-11.22,38.517-29.954,14.678-25.032H452.101z"/>
		</g>
		<g>
			<path fill="#FFFFFF" d="M296.732,480.76c-32.159,0.001-42.344-25.463-46.512-35.879c-6.101-15.262-7.417-74.487-6.059-123.058
				c0.096-3.44,2.943-6.159,6.404-6.056c3.44,0.096,6.151,2.963,6.056,6.404c-1.567,56.021,0.657,106.784,5.173,118.08
				c7.046,17.612,17.732,33.02,47.95,26.547c28.686-6.15,39.429-17.027,44.211-44.764c3.674-21.287,10.932-81.84,11.827-93.791
				c0.257-3.432,3.234-6.01,6.681-5.749c3.433,0.257,6.007,3.249,5.75,6.681c-0.933,12.439-8.159,72.877-11.974,94.979
				c-5.649,32.762-20.253,47.623-53.883,54.832C306.643,480.211,301.45,480.759,296.732,480.76z"/>
		</g>
		<g>
			<path fill="#FFFFFF" d="M122.373,356.383c-3.067,0.001-5.852-0.563-8.264-1.367c-20.886-6.967-40.781-40.985-59.134-101.113
				c-13.97-45.771-22.819-93.545-23.596-109.07c-2.303-46.03,9.552-78.596,35.233-96.79c50.81-35.999,136.281-1.72,139.895-0.242
				c3.187,1.302,4.714,4.94,3.411,8.127c-1.301,3.185-4.939,4.712-8.124,3.412v0.001c-0.822-0.336-82.785-33.17-127.997-1.111
				c-21.961,15.572-32.043,44.5-29.969,85.981c0.654,13.08,8.922,59.706,23.069,106.054c16.384,53.678,35.029,87.549,51.155,92.928
				c2.53,0.844,10.231,3.412,21.246-9.828c20.723-24.93,39.757-44.827,39.947-45.025c2.382-2.484,6.327-2.568,8.812-0.187
				c2.485,2.382,2.569,6.327,0.188,8.812c-0.188,0.195-18.933,19.794-39.362,44.371
				C139.206,352.968,129.929,356.383,122.373,356.383z"/>
		</g>
		<g>
			<path fill="#FFFFFF" d="M393.579,303.865c-1.198,0-2.409-0.345-3.478-1.064c-2.854-1.924-3.609-5.797-1.686-8.651
				c58.06-86.153,78.437-190.249,60.983-212.553c-21.968-28.069-52.99-42.732-92.204-43.58c-29.036-0.626-52.114,6.79-55.886,8.083
				c-0.3,0.152-0.616,0.281-0.948,0.385c-3.793,1.191-6.703-0.885-7.801-3.316c-1.298-2.875-0.232-6.275,2.466-7.908
				c0.181-0.108,0.751-0.351,1.676-0.689c-0.027,0.008-0.055,0.016-0.081,0.023c0.027-0.008,0.055-0.016,0.083-0.024
				c6.409-2.349,29.841-9.376,58.862-9.046c43.393,0.46,79.234,17.193,103.649,48.391c11.55,14.76,11.576,48.77,0.072,93.309
				c-11.729,45.409-33.793,94.211-60.535,133.893C397.549,302.901,395.582,303.865,393.579,303.865z"/>
		</g>
		<g>
			<path fill="#FFFFFF" d="M396.545,343.746c-9.912,0-18.8-1.398-24.12-4.585c-5.47-3.276-6.513-7.731-6.647-10.095
				c-1.493-26.211,12.968-30.773,20.345-32.854c-1.027-1.557-2.489-3.383-4-5.271c-4.301-5.373-10.19-12.732-14.73-23.74
				c-0.71-1.72-2.938-5.716-5.519-10.343c-13.98-25.071-43.071-77.239-24.382-103.954c8.649-12.363,25.87-17.23,51.244-14.516
				c-7.464-22.745-43.011-93.883-127.354-95.266c-25.369-0.422-46.175,7.377-61.808,23.164c-35,35.35-33.732,99.306-33.715,99.947
				c0.09,3.441-2.626,6.304-6.066,6.395c-3.443,0.109-6.304-2.625-6.395-6.066c-0.075-2.838-1.385-69.957,37.318-109.046
				c18.115-18.296,41.958-27.327,70.869-26.858c53.962,0.885,88.695,28.318,108.331,51.176
				c21.399,24.91,31.896,52.385,32.759,61.559c0.642,6.817-4.251,8.182-5.238,8.387l-2.249,0.051
				c-24.9-3.986-40.877-1.221-47.482,8.221c-14.214,20.316,13.305,69.664,25.055,90.736c2.999,5.378,5.165,9.263,6.154,11.661
				c3.862,9.362,8.896,15.651,12.939,20.705c3.558,4.444,6.641,8.298,7.743,12.823c0.513,0.897,7.776,11.641,50.867,2.746
				c10.799-2.229,17.277-0.324,19.256,5.664c3.894,11.778-17.956,25.515-30.054,31.133
				C428.814,340.556,411.514,343.746,396.545,343.746z M378.206,328.04c1.365,1.38,8.204,3.76,22.369,3.149
				c12.592-0.541,25.876-3.279,33.844-6.977c10.193-4.734,16.995-10.027,20.521-13.641c-0.586,0.092-1.236,0.21-1.956,0.358
				c-27.551,5.688-47.036,4.93-57.919-2.253c-0.778-0.514-1.479-1.041-2.108-1.569c-1.179,0.464-2.271,0.771-3.049,0.988
				C383.735,309.83,377.352,311.623,378.206,328.04z"/>
		</g>
		<g>
			<path fill="#FFFFFF" d="M200.228,362.861C200.227,362.861,200.228,362.861,200.228,362.861c-6.845,0-14.046-0.934-21.403-2.775
				c-7.621-1.904-20.469-7.644-20.272-17.068c0.221-10.576,15.6-13.746,21.39-14.939c20.917-4.309,22.277-6.035,28.814-14.334
				c1.906-2.42,4.278-5.432,7.512-9.043c4.8-5.373,10.048-8.099,15.594-8.099c3.864,0,7.031,1.312,9.127,2.179
				c6.674,2.768,12.24,9.453,14.529,17.45c2.065,7.216,1.079,14.161-2.775,19.558C240.094,353.499,221.933,362.861,200.228,362.861z
				 M172.015,343.553c1.881,1.451,5.646,3.395,9.834,4.441c6.371,1.594,12.554,2.402,18.378,2.402
				c17.76,0,32.016-7.352,42.372-21.853c2.16-3.024,1.513-6.863,0.935-8.883c-1.21-4.229-4.219-8.079-7.316-9.364
				c-1.682-0.695-3.072-1.229-4.355-1.229c-0.688,0-2.779,0-6.303,3.943c-2.976,3.323-5.119,6.045-7.011,8.446
				c-8.14,10.334-11.87,13.842-36.091,18.83C176.551,341.504,173.518,342.736,172.015,343.553z"/>
		</g>
		<g>
			<path fill="#FFFFFF" d="M219.942,314.806c-3.024,0-5.68-2.206-6.152-5.288c-0.158-1.033-0.262-2.073-0.313-3.12
				c-15.877-0.297-31.191-7.11-42.819-19.243c-14.702-15.34-21.394-36.592-18.356-58.307c3.299-23.584,2.064-44.398,1.401-55.58
				c-0.184-3.109-0.317-5.356-0.307-6.91c0.013-1.971,0.048-7.201,17.533-16.066c6.22-3.152,18.688-8.652,32.308-10.063
				c22.569-2.334,37.442,7.717,41.895,28.305c12.019,55.578,0.952,80.161-7.128,98.111c-1.505,3.344-2.926,6.5-4.063,9.558
				l-1.004,2.696c-4.271,11.451-7.959,21.34-6.825,28.729c0.521,3.402-1.813,6.584-5.216,7.105
				C220.575,314.781,220.256,314.806,219.942,314.806z M165.901,168.078c0.05,1.17,0.141,2.693,0.244,4.451
				c0.688,11.615,1.971,33.234-1.5,58.045c-2.504,17.91,2.967,35.389,15.011,47.955c9.518,9.931,22.048,15.412,34.922,15.412
				c0.089,0,0.177,0,0.267-0.001c1.443-6.074,3.836-12.487,6.413-19.398l0.998-2.679c1.283-3.453,2.788-6.796,4.381-10.335
				c7.779-17.283,17.462-38.793,6.311-90.36c-2.209-10.213-7.563-16.124-16.366-18.072
				C198.499,149.098,171.557,162.695,165.901,168.078z"/>
		</g>
		<g>
			<path fill="#FFFFFF" d="M203.515,165.431c-0.312,2.204,4.037,8.089,9.706,8.874c5.66,0.791,10.505-3.808,10.812-6.01
				c0.308-2.205-4.035-4.635-9.707-5.424C208.662,162.08,203.816,163.23,203.515,165.431L203.515,165.431z"/>
			<path fill="#FFFFFF" d="M214.524,176.473c-0.531,0-1.066-0.037-1.591-0.11c-3.515-0.487-7.068-2.704-9.503-5.931
				c-0.855-1.133-2.249-3.328-1.973-5.291c0.395-2.875,3.899-4.597,9.376-4.597c1.226,0,2.497,0.091,3.779,0.271
				c2.99,0.416,5.769,1.277,7.822,2.424c3.552,1.985,3.814,4.199,3.655,5.344C225.649,171.758,220.597,176.473,214.524,176.473z
				 M205.582,165.8c0.177,1.36,3.543,5.841,7.925,6.447c0.336,0.047,0.678,0.07,1.018,0.07c4.047,0,7.068-3.185,7.426-4.225
				c-0.376-0.713-2.976-2.478-7.91-3.163c-1.094-0.153-2.172-0.23-3.206-0.23C207.666,164.699,205.979,165.412,205.582,165.8z"/>
		</g>
		<g>
			<path fill="#FFFFFF" d="M375.913,160.936c0.308,2.205-4.035,8.088-9.705,8.874c-5.665,0.79-10.511-3.808-10.821-6.011
				c-0.298-2.205,4.045-4.635,9.711-5.423c5.666-0.79,10.508,0.36,10.815,2.562V160.936z"/>
			<path fill="#FFFFFF" d="M364.904,170.938c-5.455,0.001-10.158-4.243-10.546-6.995c-0.447-3.303,4.992-5.816,10.596-6.596
				c1.233-0.172,2.456-0.26,3.632-0.26c4.835,0,8.037,1.42,8.356,3.706c0.206,1.48-0.928,3.768-2.888,5.827
				c-1.29,1.355-4.007,3.705-7.704,4.217C365.875,170.904,365.387,170.938,364.904,170.938z M368.585,159.166
				c-1.081,0-2.206,0.08-3.345,0.238c-5.633,0.785-8.988,3.044-8.825,4.255c0.188,1.333,3.78,5.202,8.488,5.202
				c0.388,0,0.778-0.027,1.16-0.08c3.073-0.426,5.382-2.434,6.485-3.593c1.73-1.817,2.416-3.526,2.335-4.109
				C374.776,160.308,372.7,159.166,368.585,159.166z"/>
		</g>
		<g>
			<path fill="#FFFFFF" d="M384.078,287.459c-1.191,0-2.396-0.342-3.462-1.055c-2.86-1.915-3.626-5.786-1.711-8.646
				c13.272-19.821,10.843-40.037,8.493-59.588c-1.001-8.33-2.036-16.942-1.768-25.208c0.271-8.504,1.352-15.52,2.396-22.304
				c1.239-8.039,2.408-15.633,1.923-24.646c-0.186-3.438,2.451-6.373,5.888-6.559c3.447-0.186,6.374,2.451,6.56,5.888
				c0.555,10.304-0.77,18.901-2.05,27.215c-0.988,6.418-2.011,13.054-2.258,20.808c-0.238,7.319,0.696,15.092,1.685,23.319
				c2.499,20.789,5.331,44.353-10.512,68.011C388.06,286.488,386.087,287.459,384.078,287.459z"/>
		</g>
		<g>
			<path fill="none" stroke="#FFFFFF" stroke-width="3" stroke-linecap="round" stroke-linejoin="round" d="M16.958,77.332"/>
		</g>
	</g>
</g>
</svg>
