<svg xmlns="http://www.w3.org/2000/svg" viewBox="0 0 128 128"><path fill-rule="evenodd" clip-rule="evenodd" fill="#336791" d="M63.409 100.219c1.792 1.482 3.893 2.114 6.161 2.231.938.049 1.903.003 2.826-.165 1.464-.266 2.924-.6 4.348-1.029 2.9-.875 5.406-2.387 7.277-4.829 1.066-1.392 1.941-2.897 2.503-4.561.464-1.373.9-2.76 1.247-4.165.274-1.107.41-2.25.576-3.381.111-.748.178-1.504.247-2.259.112-1.225.229-2.448.31-3.676.057-.854.055-1.712.088-2.567.011-.261.053-.52.078-.779.021-.241.143-.324.389-.32.864.013 1.73.035 2.593-.004.967-.043 1.941-.085 2.893-.244a46.368 46.368 0 004.028-.86c1.568-.411 3.007-1.146 4.393-1.982 1.612-.975 3.084-2.118 4.275-3.591 1.039-1.282 1.531-2.768 1.28-4.389-.364-2.355-2.343-3.898-4.644-4.003-.834-.038-1.68.05-2.51.155-1.005.128-1.995.354-2.997.503-.692.104-1.393.15-2.083.222l-.019-.09c1.29-2.437 2.634-4.846 3.854-7.316.937-1.896 1.737-3.859 2.564-5.809 1.37-3.228 2.463-6.555 3.369-9.938.867-3.238 1.609-6.511 1.844-9.871.094-1.341.159-2.688.15-4.031-.006-1.072-.122-2.145-.229-3.213-.122-1.224-.492-2.384-1.004-3.5-.674-1.472-1.721-2.679-2.822-3.825-.881-.918-1.851-1.754-2.812-2.59-1.371-1.192-2.913-2.145-4.513-2.99a26.013 26.013 0 00-5.724-2.22 71.525 71.525 0 00-3.658-.821C87.251 4.224 86.811 4 86.372 4h-8.268c-.299 0-.595.196-.896.229a31.429 31.429 0 00-5.835 1.205c-.71.219-1.358.091-2.033.028-.518-.048-1.027-.181-1.545-.207-1.971-.098-3.944-.24-5.916-.219-1.888.02-3.757.332-5.584.85-1.529.436-3.026.965-4.398 1.77-.586.344-1.052.279-1.659.105a104.514 104.514 0 00-6.166-1.604c-1.291-.289-2.62-.435-3.939-.571a46.155 46.155 0 00-3.809-.237c-1.242-.027-2.492-.026-3.729.084-1.969.175-3.9.575-5.778 1.221a19.252 19.252 0 00-5.72 3.121c-1.75 1.385-3.154 3.074-4.281 5.005-1.189 2.037-2.006 4.218-2.512 6.507-.275 1.241-.174 2.517-.363 3.777-.058.39.059.782.059 1.174v5.485c0 .364-.107.729-.061 1.095.113.879.074 1.765.223 2.638.234 1.382.445 2.759.729 4.131.397 1.917.776 3.832 1.216 5.74.32 1.389.667 2.77 1.048 4.143.58 2.098 1.146 4.199 1.803 6.272.611 1.927 1.307 3.826 2.002 5.726a50.846 50.846 0 003.49 7.607c1.195 2.111 2.558 4.088 4.388 5.713 1.207 1.072 2.548 1.895 4.109 2.307a8.13 8.13 0 003.733.104 8.864 8.864 0 003.895-1.865c.132-.107.275-.19.432.008.594.752 1.388 1.254 2.219 1.687 2.242 1.17 4.685 1.521 7.166 1.663.602.034 1.208-.052 1.813-.068 1.181-.033 2.327-.263 3.454-.589.592-.171 1.169-.389 1.771-.591.031.641.071 1.257.091 1.874l.083 3.363c.016.512.036 1.024.083 1.534.122 1.314.241 2.628.398 3.938.108.903.222 1.812.434 2.694a30.922 30.922 0 001.742 5.188 11.127 11.127 0 003.148 4.184zm-3.591-16.768a208.11 208.11 0 01-.159-4.739c-.042-1.942-.056-3.885-.083-5.827l-.005-.074c-.987.593-1.96 1.241-2.989 1.776-1.207.627-2.517.99-3.874 1.093-1.063.08-2.142.153-3.2.069-1.736-.141-3.472-.412-5.026-1.268-.63-.347-1.288-.77-1.723-1.323-1.041-1.329-.542-3.008 1.028-3.816 1.085-.56 2.269-.793 3.445-1.065a35.84 35.84 0 003.036-.83c.986-.323 1.608-1.123 2.223-1.908l.974-1.252-1.171-.122c-1.162-.108-2.271-.429-3.331-.899-.906-.401-.92-.445-1.586.277-1.11 1.205-2.19 2.44-3.279 3.666-.801.902-1.596 1.809-2.395 2.714-.788.895-1.528 1.84-2.379 2.672-1.262 1.236-2.784 1.979-4.6 1.895-1.165-.054-2.231-.462-3.191-1.129-1.979-1.378-3.312-3.308-4.527-5.333-1.555-2.596-2.75-5.361-3.771-8.201-.707-1.964-1.418-3.929-2.034-5.921-.671-2.165-1.26-4.355-1.839-6.547-.438-1.653-.826-3.32-1.196-4.99a173.85 173.85 0 01-1.182-5.715c-.241-1.291-.38-2.601-.575-3.9-.263-1.753-.311-3.52-.215-5.279.085-1.585.312-3.165.538-4.739.313-2.178 1.031-4.233 2.063-6.174a16.315 16.315 0 012.323-3.274c1.49-1.649 3.293-2.84 5.299-3.735 1.401-.625 2.882-1 4.391-1.295 2.24-.436 4.5-.418 6.76-.372.988.021 1.973.2 2.96.299 2.126.211 4.209.659 6.266 1.21 1.5.402 2.969.924 4.455 1.376.148.045.367.041.49-.038 2.015-1.316 4.216-2.184 6.559-2.681.889-.188 1.807-.271 2.716-.329 1.104-.069 2.219-.135 3.321-.07 1.325.076 2.646.271 3.963.451.64.088 1.264.309 1.904.369.308.029.633-.194.957-.27 1.654-.383 3.301-.808 4.97-1.109 1.242-.224 2.512-.33 3.774-.402 1.41-.081 2.828-.14 4.236-.072 1.78.086 3.547.339 5.291.745 2.162.503 4.234 1.233 6.205 2.247 1.473.759 2.872 1.637 4.133 2.717.826.709 1.672 1.408 2.417 2.198.92.974 1.858 1.947 2.436 3.194.435.941.745 1.915.831 2.944.106 1.281.235 2.566.224 3.849-.011 1.226-.179 2.451-.297 3.675-.271 2.788-.876 5.516-1.613 8.208a93.794 93.794 0 01-2.089 6.596c-.709 2.003-1.528 3.969-2.355 5.928a65.327 65.327 0 01-1.984 4.281c-1.354 2.652-2.762 5.277-4.391 7.777-.281.431-.548.873-.822 1.314.711.479 1.516.648 2.326.736.771.083 1.557.134 2.327.076 1.233-.092 2.462-.268 3.688-.439 1.214-.17 2.403-.515 3.651-.424 1.244.091 2.136 1.037 2.051 2.203-.054.738-.393 1.371-.883 1.912-2.315 2.554-5.221 4.102-8.545 4.865-1.263.29-2.565.439-3.858.56a25.74 25.74 0 01-3.321.078c-.812-.03-1.617-.216-2.447-.336-.084.759-.163 1.55-.259 2.338l-.387 3.023c-.117.958-.208 1.92-.329 2.878-.118.93-.265 1.855-.389 2.784-.115.865-.2 1.735-.33 2.599-.197 1.324-.386 2.651-.645 3.965-.31 1.57-.784 3.09-1.561 4.507-.946 1.729-2.287 3.046-3.995 4.021-1.76 1.005-3.685 1.528-5.634 1.966-1.382.311-2.803.361-4.202.234-2.425-.219-4.495-1.256-6.06-3.137-1.493-1.795-2.504-3.851-2.865-6.18a49.257 49.257 0 01-.396-3.339 86.327 86.327 0 01-.244-3.732zm2.726-15.954c.015.83-.071 1.66-.067 2.49.017 3.863.045 7.727.078 11.591.006.631.037 1.264.082 1.894.095 1.32.189 2.641.317 3.957.092.935.217 1.867.364 2.795.21 1.313.808 2.483 1.486 3.602.584.962 1.345 1.778 2.346 2.342 1.702.957 3.533 1.037 5.379.685 1.247-.237 2.473-.62 3.683-1.015a8.166 8.166 0 003.178-1.901c.849-.822 1.451-1.825 1.857-2.932.787-2.146 1.034-4.407 1.359-6.649.122-.84.228-1.682.339-2.523.127-.957.255-1.913.377-2.87.092-.714.174-1.427.261-2.14.125-1.024.256-2.047.375-3.071.091-.792.167-1.587.249-2.381.104-1.015.215-2.027.306-3.044.068-.77.04-1.555.177-2.312.251-1.387.907-2.567 2.137-3.331.514-.318 1.096-.528 1.666-.798l-.098-.149c-.527-.684-1.067-1.357-1.584-2.049-.812-1.086-1.396-2.297-1.983-3.514-.556-1.154-1.236-2.246-1.821-3.387-1.021-1.99-2.061-3.975-3.002-6.002-1.183-2.55-2.115-5.188-2.408-8.012-.125-1.194-.157-2.388.086-3.571.387-1.89 1.373-3.368 3.033-4.382 1.54-.94 3.255-1.244 5.012-1.339 1.09-.059 2.187-.011 3.318-.011l-.037-.191c-.704-1.472-1.361-2.969-2.132-4.405-1.086-2.028-2.478-3.856-4.026-5.553a27.94 27.94 0 00-3.75-3.45c-1.338-1.013-2.748-1.918-4.253-2.657a24.95 24.95 0 00-5.624-2c-1.885-.418-3.78-.674-5.714-.695-1.648-.018-3.286.058-4.892.429-2.424.561-4.641 1.559-6.568 3.175a17.016 17.016 0 00-2.839 3.044c-.967 1.325-1.745 2.759-2.411 4.26-.914 2.061-1.541 4.204-1.971 6.408-.214 1.1-.382 2.207-.553 3.314-.06.389-.064.784-.1 1.229l.732-.381.714-.32c2.417-1.105 4.92-1.816 7.61-1.735 1.144.034 2.236.261 3.254.762 1.95.962 3.09 2.597 3.586 4.665.342 1.428.577 2.884.805 4.337.178 1.134.361 2.28.381 3.424.029 1.672-.055 3.348-.146 5.019a13.997 13.997 0 01-.872 4.154c-.904 2.416-1.912 4.793-2.853 7.195-.311.794-.55 1.615-.843 2.488l1.188.001c.144.003.291.007.43.04 1.081.255 2.02.745 2.789 1.577 1.028 1.104 1.566 2.396 1.593 3.893zM41.897 56.042a14.187 14.187 0 01-1.094-4.538c-.104-1.474.071-2.94.223-4.408.146-1.421.27-2.849.312-4.275.071-2.347-.087-4.688-.199-7.033-.067-1.396.095-2.809.219-4.208.112-1.26.252-2.523.491-3.765.399-2.084.93-4.138 1.685-6.129.715-1.888 1.539-3.725 2.699-5.38.797-1.136 1.699-2.195 2.566-3.305l-.258-.092c-2.823-.896-5.693-1.598-8.646-1.903-1.395-.145-2.796-.229-4.195-.313-.43-.025-.866.033-1.297.074-1.067.103-2.148.143-3.198.343-1.787.34-3.502.912-5.089 1.843a12.632 12.632 0 00-3.626 3.211c-1.107 1.431-1.854 3.049-2.389 4.773-.632 2.035-.934 4.13-1.015 6.243-.071 1.853-.106 3.716.214 5.562.237 1.373.396 2.762.658 4.131a122.89 122.89 0 001.186 5.573c.633 2.644 1.267 5.29 2.018 7.902.718 2.501 1.527 4.98 2.407 7.43.718 1.999 1.549 3.961 2.424 5.896.57 1.261 1.26 2.475 1.984 3.655.769 1.254 1.645 2.444 2.831 3.354 1.499 1.148 2.658 1.327 4.182.066.652-.539 1.203-1.207 1.771-1.842.901-1.008 1.771-2.046 2.669-3.059 1.143-1.289 2.3-2.565 3.449-3.85.243-.271.478-.551.714-.825l-.393-.343a14.33 14.33 0 01-3.303-4.788zm43.341-38.403a49.306 49.306 0 012.672 3.394 30.638 30.638 0 013.855 7.336c.42 1.155.756 2.321.606 3.584-.104.885-.097 1.782-.174 2.672-.065.74-.183 1.476-.278 2.214-.144 1.112-.352 2.222-.414 3.339-.06 1.064.003 2.138.07 3.203.067 1.083.213 2.161.312 3.241.112 1.227.264 2.451.298 3.68.028 1.008-.062 2.021-.149 3.029a12.063 12.063 0 01-.87 3.512c-.323.794-.708 1.562-1.071 2.356l.146.154.222.172.225-.4a75.33 75.33 0 005.021-9.277 147.495 147.495 0 002.654-6.27 69.833 69.833 0 003.151-10.094c.36-1.544.636-3.112.88-4.68.191-1.226.349-2.466.385-3.703.037-1.312-.035-2.634-.156-3.942-.091-.988-.335-1.982-.953-2.787-.996-1.293-2.07-2.529-3.391-3.508-1.113-.823-2.223-1.67-3.416-2.362-1.893-1.099-3.942-1.829-6.083-2.327-2.091-.487-4.207-.697-6.337-.742-1.256-.027-2.518.108-3.771.227-1.136.106-2.265.288-3.408.438 1.227.69 2.438 1.304 3.578 2.027 2.4 1.52 4.552 3.349 6.396 5.514zm-31.18 42.563c.775-2.48 1.832-4.85 2.855-7.232.831-1.933 1.284-3.968 1.435-6.06.075-1.031.055-2.075.004-3.109a35.642 35.642 0 00-.316-3.438c-.215-1.454-.459-2.909-.803-4.336-.373-1.544-1.313-2.62-2.925-3.017-.981-.241-1.957-.231-2.95-.074-2.423.381-4.641 1.274-6.707 2.582-.416.263-.646.476-.573 1.071.152 1.264.185 2.548.179 3.823-.008 1.805-.085 3.61-.153 5.414-.022.587-.107 1.173-.171 1.758-.096.896-.283 1.791-.277 2.686.006.922.1 1.865.324 2.758.711 2.832 2.215 5.148 4.682 6.783 1.517 1.006 3.195 1.512 5.038 1.609.122-.423.235-.822.358-1.218zm-2.896-24.289c-.325-.681-.139-1.246.613-1.508.184-.063.372-.133.562-.151.263-.026.528-.007.793-.007.955.006 1.873.139 2.66.745.506.39.642.905.314 1.437-.465.753-1.172 1.131-2.042 1.203-1.369.113-2.33-.525-2.9-1.719zm37.975-.249l.311-2.725c.045-.364-.146-.464-.452-.473-.963-.026-1.925-.061-2.888-.077-1.084-.02-2.141.154-3.145.566-1.114.459-1.962 1.193-2.309 2.406a7.266 7.266 0 00-.236 2.752 16.29 16.29 0 00.963 4.18c.674 1.793 1.378 3.585 2.221 5.303 1.141 2.325 2.431 4.577 3.643 6.867.323.611.597 1.25.934 1.963a11.11 11.11 0 001.09-4.538c.033-1.301-.07-2.605-.146-3.906-.047-.796-.16-1.588-.237-2.382-.107-1.106-.271-2.213-.297-3.322-.025-1.128.055-2.262.151-3.389.09-1.078.268-2.149.397-3.225zm-2.169-.874c-.358.987-1.122 1.545-2.114 1.708-.924.153-1.734-.188-2.336-.926-.429-.525-.265-1.146.378-1.502.738-.408 1.549-.511 2.506-.573.261.047.651.088 1.023.193.539.152.739.56.543 1.1zM58.37 65.193c-.528-.432-1.228-.457-1.73.017-.624.59-1.173 1.264-1.722 1.928-.633.768-1.229 1.566-2.045 2.161-1.189.865-2.578 1.223-3.972 1.562-1.108.27-2.222.521-3.333.779l-.014.144c.33.152.649.343.994.452 1.695.536 3.42.804 5.212.652 1.292-.111 2.524-.393 3.691-.946 1.607-.761 2.844-1.968 3.895-3.37.176-.234.256-.58.276-.882.071-1.066-.47-1.859-1.252-2.497zm30.945-.462c-.831.279-1.507.704-1.708 1.603-.137.608-.187 1.237-.24 1.86-.01.11.127.312.231.34.64.169 1.284.368 1.938.427.805.073 1.623.05 2.433.01.874-.044 1.754-.101 2.616-.245 2.029-.342 3.994-.896 5.738-2.048.63-.415 1.252-.839 1.878-1.261l-.052-.089c-.667.099-1.332.22-2.002.291-1.364.146-2.729.3-4.098.379-.661.038-1.331-.089-1.997-.143-1.118-.091-2.21-.339-3.155-.937-.545-.344-1.001-.382-1.582-.187z"/><path fill="#336791" d="M2.835 103.184a26.23 26.23 0 014.343-.338c2.235 0 3.874.52 4.914 1.456.962.832 1.534 2.106 1.534 3.667 0 1.586-.469 2.834-1.353 3.744-1.196 1.274-3.146 1.924-5.356 1.924-.676 0-1.3-.026-1.819-.156v7.021H2.835v-17.318zm2.263 8.45c.494.13 1.118.182 1.872.182 2.729 0 4.394-1.326 4.394-3.744 0-2.314-1.638-3.432-4.134-3.432-.988 0-1.742.078-2.132.182v6.812zm22.23 2.47c0 4.654-3.225 6.683-6.267 6.683-3.406 0-6.032-2.496-6.032-6.475 0-4.212 2.756-6.682 6.24-6.682 3.615-.001 6.059 2.626 6.059 6.474zm-9.984.13c0 2.756 1.586 4.836 3.822 4.836 2.184 0 3.821-2.054 3.821-4.888 0-2.132-1.065-4.836-3.77-4.836s-3.873 2.496-3.873 4.888zm12.557 3.926c.676.442 1.872.91 3.016.91 1.664 0 2.444-.832 2.444-1.872 0-1.092-.649-1.69-2.34-2.314-2.262-.806-3.328-2.054-3.328-3.562 0-2.028 1.638-3.692 4.342-3.692 1.274 0 2.393.364 3.095.78l-.572 1.664a4.897 4.897 0 00-2.574-.728c-1.352 0-2.106.78-2.106 1.716 0 1.04.755 1.508 2.393 2.132 2.184.832 3.302 1.924 3.302 3.796 0 2.21-1.716 3.77-4.706 3.77-1.378 0-2.652-.338-3.536-.858l.57-1.742zm13.365-13.859v3.614h3.275v1.742h-3.275v6.786c0 1.56.441 2.444 1.716 2.444a5.09 5.09 0 001.326-.156l.104 1.716c-.441.182-1.144.312-2.027.312-1.066 0-1.925-.338-2.471-.962-.649-.676-.884-1.794-.884-3.276v-6.864h-1.95v-1.742h1.95v-3.016l2.236-.598zm16.536 3.615c-.053.91-.104 1.924-.104 3.458v7.306c0 2.886-.572 4.654-1.794 5.747-1.222 1.144-2.99 1.508-4.576 1.508-1.508 0-3.172-.364-4.187-1.04l.572-1.742c.832.52 2.132.988 3.692.988 2.34 0 4.056-1.222 4.056-4.394v-1.404h-.052c-.702 1.17-2.054 2.106-4.004 2.106-3.12 0-5.356-2.652-5.356-6.137 0-4.264 2.782-6.682 5.668-6.682 2.185 0 3.381 1.144 3.927 2.184h.052l.104-1.898h2.002zm-2.366 4.966c0-.39-.026-.728-.13-1.04-.416-1.326-1.534-2.418-3.198-2.418-2.185 0-3.744 1.846-3.744 4.758 0 2.47 1.248 4.524 3.718 4.524 1.404 0 2.678-.884 3.172-2.34.13-.39.183-.832.183-1.222v-2.262zm5.901-1.04c0-1.482-.026-2.756-.104-3.926h2.003l.077 2.47h.104c.572-1.69 1.95-2.756 3.484-2.756.26 0 .441.026.649.078v2.158a3.428 3.428 0 00-.779-.078c-1.612 0-2.757 1.222-3.068 2.938a6.44 6.44 0 00-.104 1.066v6.708h-2.262v-8.658zm9.517 2.782c.052 3.094 2.027 4.368 4.315 4.368 1.639 0 2.626-.286 3.484-.65l.39 1.638c-.806.364-2.184.78-4.186.78-3.874 0-6.188-2.548-6.188-6.344 0-3.796 2.236-6.787 5.902-6.787 4.108 0 5.2 3.614 5.2 5.928 0 .468-.052.832-.078 1.066h-8.839zm6.708-1.638c.025-1.456-.599-3.718-3.172-3.718-2.314 0-3.328 2.132-3.511 3.718h6.683zm4.809 4.758a8.016 8.016 0 004.056 1.144c2.314 0 3.666-1.222 3.666-2.99 0-1.638-.936-2.574-3.302-3.484-2.86-1.014-4.628-2.496-4.628-4.966 0-2.73 2.262-4.758 5.668-4.758 1.794 0 3.094.416 3.874.858l-.624 1.846a6.98 6.98 0 00-3.328-.832c-2.392 0-3.302 1.43-3.302 2.626 0 1.638 1.065 2.444 3.484 3.38 2.964 1.145 4.472 2.574 4.472 5.148 0 2.704-2.002 5.044-6.136 5.044-1.69 0-3.536-.494-4.473-1.118l.573-1.898zm27.586 5.33a94.846 94.846 0 01-6.708-2.028c-.364-.13-.728-.26-1.066-.26-4.16-.156-7.722-3.224-7.722-8.866 0-5.616 3.432-9.23 8.164-9.23 4.758 0 7.853 3.692 7.853 8.866 0 4.498-2.08 7.384-4.992 8.398v.104c1.742.442 3.64.858 5.122 1.118l-.651 1.898zm-1.872-11.414c0-3.51-1.819-7.125-5.538-7.125-3.822 0-5.694 3.536-5.668 7.333-.026 3.718 2.028 7.072 5.564 7.072 3.615 0 5.642-3.276 5.642-7.28zm5.329-8.684h2.263v15.626h7.488v1.898h-9.751v-17.524z"/></svg>