<?xml version="1.0" encoding="utf-8"?>
<!-- Generator: Adobe Illustrator 16.0.0, SVG Export Plug-In . SVG Version: 6.00 Build 0)  -->
<!DOCTYPE svg PUBLIC "-//W3C//DTD SVG 1.1//EN" "http://www.w3.org/Graphics/SVG/1.1/DTD/svg11.dtd">
<svg version="1.1" id="Layer_1" xmlns="http://www.w3.org/2000/svg" xmlns:xlink="http://www.w3.org/1999/xlink" x="0px" y="0px"
	 width="500px" height="500px" viewBox="0 0 500 500" enable-background="new 0 0 500 500" xml:space="preserve">
<g>
	<g>
		<g id="Layer_x0020_3_1_">
			<g>
				<path d="M333.174,303.402c2.468-20.556,1.729-23.571,17.04-20.241l3.886,0.342c11.773,0.536,27.175-1.895,36.222-6.097
					c19.478-9.036,31.026-24.126,11.821-20.161c-43.807,9.036-46.819-5.797-46.819-5.797
					c46.257-68.636,65.596-155.762,48.904-177.088c-45.525-58.172-124.33-30.664-125.648-29.951l-0.421,0.079
					c-8.656-1.796-18.342-2.869-29.224-3.045c-19.825-0.326-34.867,5.197-46.277,13.851c0,0-140.583-57.918-134.044,72.838
					c1.392,27.816,39.872,210.477,85.766,155.305c16.774-20.174,32.985-37.232,32.985-37.232c8.049,5.348,17.687,8.075,27.795,7.096
					l0.781-0.666c-0.245,2.505-0.137,4.955,0.313,7.854c-11.822,13.212-8.349,15.53-31.986,20.396
					c-23.914,4.928-9.865,13.703-0.694,15.997c11.122,2.781,36.848,6.722,54.235-17.615l-0.693,2.777
					c4.638,3.711,4.325,26.669,4.982,43.071c0.658,16.403,1.756,31.71,5.099,40.737c3.345,9.022,7.291,32.27,38.355,25.611
					C311.516,385.899,331.365,377.892,333.174,303.402"/>
				<path d="M275.437,407.68c-13.738,0-22.687-5.313-28.123-10.443c-8.202-7.741-11.456-17.711-13.398-23.668
					c-0.315-0.962-0.613-1.872-0.839-2.484c-3.914-10.566-5.24-25.777-6.026-45.365c-0.118-2.939-0.203-5.973-0.292-9.185
					c-0.065-2.35-0.147-5.299-0.267-8.384c-4.886,2.338-10.11,3.996-15.612,4.937c-9.687,1.656-20.103,1.119-30.96-1.596
					c-7.66-1.916-15.621-5.885-20.157-12.019c-13.222,11.58-25.836,10.009-32.706,7.717c-12.121-4.044-22.97-15.401-33.167-34.724
					c-7.264-13.765-14.291-31.7-20.886-53.307c-11.485-37.628-18.779-77.262-19.429-90.274
					c-2.038-40.729,8.925-69.854,32.581-86.563c37.319-26.361,93.86-10.86,114.473-3.82c13.849-8.348,30.143-12.411,48.554-12.117
					c9.889,0.16,19.304,1.03,28.05,2.59c9.124-2.87,27.146-6.986,47.774-6.73c38.011,0.454,69.505,15.266,91.081,42.835
					c15.396,19.67,7.784,60.979,1.876,83.85c-8.31,32.171-22.875,66.391-40.766,96.18c4.86,0.034,11.897-0.549,21.903-2.613
					c19.741-4.076,25.513,6.508,27.078,11.247c6.278,19.012-21.006,33.376-29.518,37.325c-10.905,5.065-28.683,8.146-43.245,7.479
					l-0.635-0.041l-3.827-0.337c-0.128,1.054-0.254,2.14-0.377,3.189c-0.115,0.99-0.236,2.029-0.365,3.119
					c-0.977,37.751-6.372,61.658-17.468,77.458c-11.629,16.558-27.797,21.2-42.037,24.252
					C283.856,407.227,279.442,407.68,275.437,407.68z M246.524,270.284c8.869,7.098,9.646,20.453,10.341,45.411
					c0.088,3.115,0.169,6.061,0.28,8.816c0.335,8.336,1.118,27.858,4.174,36.108c0.433,1.166,0.82,2.352,1.229,3.604
					c3.406,10.434,5.116,15.667,19.848,12.513c12.369-2.65,18.726-5.028,23.703-12.114c7.234-10.301,11.28-31.021,12.021-61.587
					l15.046,0.365l-14.944-1.794c0.159-1.314,0.303-2.558,0.439-3.73c1.431-12.3,2.464-21.188,10.687-27.061
					c6.597-4.714,14.114-4.256,20.101-3.18c-6.577-4.97-8.397-10.8-8.883-13.192l-1.255-6.182l3.527-5.231
					c20.313-30.141,37.067-67.186,45.964-101.634c9.143-35.4,6.352-54.197,3.567-57.755C355.468,36.49,291.476,55.96,284.795,58.17
					l-1.13,0.611L278,59.836l-2.902-0.602c-7.996-1.661-16.88-2.58-26.405-2.733c-14.963-0.252-27.036,3.284-36.935,10.792
					l-6.867,5.21l-7.971-3.284c-17.025-6.964-67.039-20.959-93.429-2.266C88.842,77.328,82.168,97.659,83.655,127.38
					c0.49,9.812,7.158,46.96,18.155,82.987c15.198,49.789,29.01,66.327,34.776,68.25c1.006,0.34,3.618-1.688,6.216-4.812
					c16.896-20.321,32.969-37.264,33.645-37.977l8.715-9.168l10.536,7c4.247,2.821,8.932,4.423,13.741,4.724l25.128-21.434
					l-3.64,37.15c-0.081,0.834-0.121,1.97,0.207,4.076l1.095,7.043l-4.752,5.311c-0.188,0.208-0.368,0.413-0.547,0.614l13.807,6.373
					L246.524,270.284z"/>
			</g>
			<g>
				<path fill="#336791" d="M402.147,257.242c-43.812,9.038-46.824-5.797-46.824-5.797c46.257-68.639,65.596-155.767,48.907-177.091
					c-45.525-58.168-124.333-30.658-125.648-29.945l-0.424,0.075c-8.656-1.796-18.342-2.865-29.229-3.043
					c-19.824-0.324-34.861,5.196-46.271,13.85c0,0-140.586-57.915-134.048,72.839c1.392,27.818,39.87,210.479,85.767,155.307
					c16.774-20.174,32.982-37.232,32.982-37.232c8.05,5.348,17.688,8.075,27.791,7.096l0.785-0.666
					c-0.244,2.505-0.133,4.955,0.314,7.854c-11.823,13.212-8.35,15.53-31.985,20.396c-23.917,4.928-9.867,13.703-0.693,15.997
					c11.119,2.781,36.847,6.722,54.231-17.615l-0.694,2.777c4.633,3.711,7.886,24.137,7.342,42.651
					c-0.546,18.517-0.911,31.228,2.74,41.157c3.651,9.928,7.288,32.27,38.36,25.611c25.963-5.563,39.417-19.982,41.288-44.032
					c1.327-17.098,4.334-14.57,4.523-29.857l2.412-7.236c2.78-23.179,0.441-30.655,16.437-27.177l3.887,0.341
					c11.773,0.535,27.182-1.895,36.225-6.097c19.475-9.036,31.022-24.126,11.822-20.162H402.147z"/>
			</g>
			<g>
				<path fill="#FFFFFF" d="M277.008,398.4c-25.902,0.001-34.105-20.509-37.462-28.897c-4.913-12.293-5.974-59.994-4.879-99.114
					c0.077-2.771,2.37-4.961,5.158-4.877c2.771,0.076,4.954,2.386,4.877,5.158c-1.262,45.12,0.529,86.006,4.167,95.104
					c5.675,14.186,14.282,26.596,38.62,21.382c23.104-4.953,31.757-13.715,35.609-36.055c2.959-17.145,8.804-65.915,9.525-75.541
					c0.208-2.765,2.605-4.841,5.381-4.631c2.765,0.207,4.839,2.617,4.631,5.381c-0.75,10.019-6.571,58.697-9.644,76.498
					c-4.55,26.388-16.312,38.357-43.399,44.164C284.991,397.958,280.809,398.399,277.008,398.4z"/>
			</g>
			<g>
				<path fill="#FFFFFF" d="M136.574,298.224c-2.471,0.001-4.713-0.452-6.656-1.101c-16.822-5.612-32.846-33.012-47.628-81.44
					c-11.251-36.864-18.378-75.343-19.004-87.849c-1.854-37.073,7.693-63.303,28.378-77.957
					c40.923-28.994,109.766-1.386,112.676-0.195c2.566,1.049,3.796,3.979,2.747,6.546c-1.047,2.565-3.978,3.795-6.543,2.748v0.001
					c-0.662-0.271-66.678-26.716-103.092-0.895c-17.688,12.542-25.809,35.841-24.138,69.252
					c0.527,10.535,7.187,48.089,18.581,85.418c13.196,43.234,28.213,70.515,41.202,74.847c2.038,0.68,8.241,2.749,17.113-7.915
					c16.69-20.079,32.021-36.105,32.174-36.265c1.918-2.002,5.096-2.069,7.097-0.15c2.002,1.918,2.07,5.096,0.151,7.097
					c-0.151,0.158-15.249,15.942-31.703,35.737C150.132,295.473,142.66,298.224,136.574,298.224z"/>
			</g>
			<g>
				<path fill="#FFFFFF" d="M355.011,255.925c-0.964,0-1.94-0.278-2.8-0.858c-2.299-1.549-2.907-4.669-1.358-6.968
					c46.763-69.39,63.175-153.231,49.119-171.195c-17.694-22.608-42.681-34.418-74.265-35.101
					c-23.386-0.505-41.974,5.468-45.011,6.51c-0.242,0.123-0.496,0.227-0.764,0.311c-3.056,0.959-5.399-0.713-6.283-2.672
					c-1.046-2.315-0.188-5.054,1.986-6.369c0.146-0.088,0.604-0.283,1.349-0.556c-0.021,0.006-0.044,0.013-0.065,0.02
					c0.022-0.007,0.045-0.014,0.067-0.021c5.162-1.891,24.034-7.552,47.41-7.285c34.949,0.37,63.817,13.848,83.481,38.975
					c9.303,11.889,9.324,39.28,0.058,75.153c-9.446,36.574-27.217,75.88-48.756,107.842
					C358.21,255.148,356.625,255.925,355.011,255.925z"/>
			</g>
			<g>
				<path fill="#FFFFFF" d="M357.401,288.046c-7.984,0-15.142-1.126-19.427-3.692c-4.406-2.639-5.246-6.228-5.354-8.131
					c-1.204-21.111,10.444-24.786,16.386-26.462c-0.828-1.254-2.005-2.724-3.223-4.245c-3.464-4.327-8.207-10.256-11.864-19.122
					c-0.572-1.384-2.367-4.603-4.445-8.329c-11.261-20.193-34.691-62.211-19.638-83.729c6.967-9.957,20.837-13.877,41.274-11.691
					c-6.012-18.318-34.642-75.616-102.576-76.729c-20.433-0.34-37.19,5.941-49.781,18.657c-28.191,28.472-27.169,79.983-27.155,80.5
					c0.072,2.772-2.115,5.077-4.887,5.15c-2.773,0.089-5.077-2.113-5.15-4.886c-0.06-2.285-1.115-56.346,30.057-87.829
					c14.591-14.736,33.794-22.01,57.08-21.633c43.463,0.713,71.438,22.809,87.254,41.219c17.235,20.063,25.689,42.193,26.384,49.582
					c0.517,5.49-3.424,6.589-4.218,6.754l-1.812,0.042c-20.056-3.212-32.924-0.983-38.244,6.621
					c-11.449,16.362,10.716,56.108,20.179,73.082c2.416,4.331,4.16,7.46,4.957,9.392c3.112,7.54,7.166,12.606,10.422,16.676
					c2.866,3.581,5.349,6.684,6.237,10.329c0.413,0.723,6.263,9.375,40.97,2.211c8.698-1.794,13.915-0.261,15.509,4.563
					c3.136,9.486-14.463,20.55-24.207,25.075C383.391,285.477,369.458,288.046,357.401,288.046z M342.63,275.396
					c1.1,1.112,6.607,3.028,18.017,2.537c10.142-0.436,20.841-2.642,27.259-5.619c8.21-3.813,13.688-8.076,16.529-10.986
					c-0.472,0.074-0.996,0.168-1.576,0.288c-22.19,4.581-37.885,3.971-46.65-1.814c-0.626-0.414-1.19-0.838-1.698-1.265
					c-0.949,0.375-1.829,0.621-2.456,0.797C347.083,260.729,341.942,262.173,342.63,275.396z"/>
			</g>
			<g>
				<path fill="#FFFFFF" d="M199.282,303.441C199.281,303.441,199.282,303.441,199.282,303.441c-5.513,0-11.313-0.751-17.24-2.235
					c-6.138-1.534-16.486-6.156-16.328-13.746c0.178-8.52,12.564-11.072,17.229-12.034c16.847-3.47,17.942-4.859,23.208-11.545
					c1.535-1.949,3.445-4.374,6.049-7.283c3.866-4.327,8.093-6.522,12.561-6.522c3.111,0,5.663,1.056,7.35,1.755
					c5.376,2.229,9.859,7.613,11.703,14.055c1.663,5.813,0.869,11.406-2.236,15.752
					C231.391,295.901,216.763,303.441,199.282,303.441z M176.559,287.89c1.515,1.169,4.547,2.734,7.92,3.578
					c5.131,1.283,10.111,1.935,14.802,1.935c14.304,0,25.786-5.921,34.128-17.601c1.74-2.437,1.218-5.527,0.753-7.154
					c-0.976-3.406-3.398-6.508-5.894-7.542c-1.354-0.561-2.474-0.991-3.507-0.991c-0.555,0-2.239,0-5.077,3.177
					c-2.396,2.676-4.123,4.868-5.646,6.803c-6.556,8.323-9.561,11.148-29.068,15.166C180.211,286.24,177.769,287.232,176.559,287.89
					z"/>
			</g>
			<g>
				<path fill="#FFFFFF" d="M215.159,264.736c-2.435,0-4.574-1.777-4.955-4.259c-0.127-0.832-0.211-1.671-0.252-2.514
					c-12.788-0.239-25.123-5.727-34.488-15.499c-11.841-12.355-17.231-29.472-14.785-46.961c2.657-18.995,1.663-35.76,1.129-44.767
					c-0.149-2.504-0.256-4.313-0.248-5.565c0.01-1.587,0.039-5.801,14.122-12.94c5.01-2.539,15.051-6.969,26.021-8.104
					c18.178-1.88,30.158,6.216,33.744,22.797c9.68,44.765,0.767,64.565-5.741,79.022c-1.212,2.692-2.357,5.234-3.272,7.697
					l-0.809,2.172c-3.439,9.223-6.41,17.188-5.497,23.14c0.42,2.74-1.461,5.302-4.201,5.723
					C215.669,264.717,215.413,264.736,215.159,264.736z M171.633,146.558c0.041,0.942,0.114,2.169,0.197,3.585
					c0.554,9.355,1.587,26.769-1.208,46.752c-2.017,14.425,2.389,28.503,12.089,38.624c7.667,7.998,17.758,12.413,28.127,12.413
					c0.071,0,0.143,0,0.215,0c1.163-4.894,3.089-10.059,5.166-15.625l0.803-2.157c1.034-2.781,2.246-5.474,3.529-8.323
					c6.266-13.921,14.064-31.246,5.083-72.78c-1.779-8.225-6.091-12.986-13.182-14.555
					C197.888,131.271,176.189,142.223,171.633,146.558z"/>
			</g>
			<g>
				<path fill="#FFFFFF" d="M201.928,144.426c-0.25,1.775,3.252,6.515,7.818,7.146c4.559,0.637,8.461-3.066,8.708-4.841
					c0.247-1.775-3.251-3.731-7.819-4.367C206.075,141.728,202.171,142.652,201.928,144.426L201.928,144.426z"/>
				<path fill="#FFFFFF" d="M210.795,153.319c-0.427,0-0.858-0.03-1.281-0.09c-2.831-0.393-5.693-2.178-7.654-4.776
					c-0.689-0.913-1.812-2.681-1.589-4.262c0.318-2.315,3.141-3.702,7.552-3.702c0.987,0,2.011,0.073,3.044,0.218
					c2.408,0.336,4.646,1.029,6.299,1.953c2.861,1.599,3.073,3.382,2.945,4.304C219.756,149.521,215.687,153.319,210.795,153.319z
					 M203.594,144.723c0.142,1.096,2.853,4.705,6.383,5.193c0.271,0.037,0.545,0.057,0.819,0.057c3.26,0,5.693-2.565,5.981-3.403
					c-0.303-0.574-2.396-1.995-6.371-2.548c-0.881-0.124-1.75-0.186-2.583-0.186C205.272,143.836,203.913,144.41,203.594,144.723z"
					/>
			</g>
			<g>
				<path fill="#FFFFFF" d="M340.783,140.805c0.248,1.776-3.25,6.514-7.816,7.147c-4.563,0.636-8.466-3.066-8.716-4.842
					c-0.239-1.775,3.258-3.731,7.822-4.366c4.563-0.637,8.463,0.289,8.71,2.063V140.805z"/>
				<path fill="#FFFFFF" d="M331.917,148.861c-4.394,0-8.182-3.417-8.495-5.634c-0.36-2.66,4.021-4.686,8.534-5.313
					c0.994-0.139,1.979-0.209,2.926-0.209c3.894,0,6.474,1.144,6.729,2.984c0.167,1.192-0.747,3.034-2.325,4.693
					c-1.04,1.092-3.228,2.984-6.205,3.396C332.698,148.834,332.305,148.861,331.917,148.861z M334.882,139.38
					c-0.871,0-1.777,0.064-2.695,0.191c-4.537,0.632-7.239,2.452-7.108,3.428c0.152,1.073,3.045,4.189,6.837,4.189
					c0.313,0,0.626-0.022,0.934-0.064c2.476-0.344,4.335-1.96,5.223-2.894c1.395-1.464,1.946-2.84,1.881-3.31
					C339.867,140.299,338.195,139.38,334.882,139.38z"/>
			</g>
			<g>
				<path fill="#FFFFFF" d="M347.36,242.711c-0.96,0-1.931-0.275-2.789-0.85c-2.303-1.543-2.92-4.66-1.377-6.965
					c10.69-15.964,8.732-32.247,6.841-47.993c-0.807-6.71-1.641-13.646-1.424-20.304c0.219-6.849,1.088-12.499,1.931-17.964
					c0.998-6.476,1.939-12.591,1.548-19.852c-0.149-2.768,1.974-5.133,4.742-5.282c2.777-0.149,5.134,1.975,5.283,4.742
					c0.447,8.3-0.62,15.225-1.651,21.92c-0.796,5.169-1.62,10.514-1.819,16.759c-0.192,5.896,0.561,12.156,1.357,18.782
					c2.013,16.744,4.293,35.723-8.466,54.778C350.567,241.929,348.978,242.711,347.36,242.711z"/>
			</g>
			<g>
				<path fill="none" stroke="#FFFFFF" stroke-width="3" stroke-linecap="round" stroke-linejoin="round" d="M51.67,73.468"/>
			</g>
		</g>
	</g>
	<path fill-rule="evenodd" clip-rule="evenodd" fill="#336791" d="M485.072,466.567c-13.201,0.003-26.614,0.003-39.815,0
		c-0.301,0-1.257-0.041-1.257-0.071c0-17.057,0-34.496,0-50.496c-2,0-5,0-7,0c0,18,0,37,0,56c0,0,1.192,0,1.695,0
		c15.188,0,30.49-0.098,45.677-0.094c0.505,0,0.553-0.053,1.628-0.027c0-1.794,0-3.586,0-5.377
		C484.925,466.523,485.343,466.567,485.072,466.567z"/>
	<path fill-rule="evenodd" clip-rule="evenodd" fill="#336791" d="M431.256,454.765c1.828-4.816,2.154-9.791,1.657-14.894
		c-0.417-4.292-1.604-8.322-3.954-11.893c-3.58-5.438-8.494-9.299-14.691-11.427c-5.731-1.968-11.641-2.692-17.68-2.323
		c-2.647,0.162-5.312,0.306-7.93,0.712c-7.513,1.167-14.074,4.21-19.165,10.055c-2.208,2.534-3.896,5.376-4.896,8.551
		c-1.624,5.147-1.884,10.412-1.017,15.76c1.149,7.101,4.724,12.749,10.372,17.01c6.214,4.687,13.461,6.631,21.139,6.849
		c4.016,0.112,8.051-0.168,12.064-0.45c3.142-0.223,6.213-0.967,9.08-2.318c0.855-0.401,1.411-0.306,2.146,0.219
		c3.063,2.186,6.175,4.302,9.396,6.528c1.664-1.535,3.271-3.016,4.924-4.542c-3.308-2.256-6.521-4.448-10.044-6.85
		c0.584-0.422,0.938-0.661,1.269-0.922C427.317,462.164,429.732,458.779,431.256,454.765z M415.35,463.71
		c-3.146,2.001-6.612,3.213-10.279,3.772c-2.205,0.336-4.442,0.454-6.665,0.67c-5.503,0.009-10.757-0.955-15.582-3.634
		c-6.198-3.444-10.385-8.469-11.644-15.614c-1.062-6.024-0.676-11.876,2.292-17.376c1.881-3.481,4.604-6.15,7.97-8.182
		c3.879-2.338,8.121-3.481,12.612-3.913c5.473-0.525,10.835-0.208,16.05,1.646c3.047,1.082,5.669,2.812,8.115,4.935
		c2.716,2.358,4.791,5.131,5.892,8.513c0.703,2.161,1.13,4.444,1.393,6.706c0.422,3.609,0.023,7.171-1.047,10.673
		C422.9,457.007,419.798,460.875,415.35,463.71z"/>
	<path fill-rule="evenodd" clip-rule="evenodd" fill="#336791" d="M358.319,447.461c-2.684-2.662-6.05-3.947-9.603-4.697
		c-6.138-1.293-12.332-2.298-18.475-3.564c-3.358-0.694-6.738-1.449-9.966-2.579c-5.188-1.815-5.998-7.852-3.762-11.911
		c1.485-2.7,3.981-3.795,6.76-4.56c3.781-1.043,7.645-0.922,11.504-0.936c3.339-0.01,6.586,0.474,9.71,1.646
		c3.385,1.272,5.864,3.589,6.847,7.177c0.341,1.242,0.476,2.963,0.71,3.963c2.531,0,5.044,0,7.719,0
		c-0.103-1-0.102-2.548-0.313-3.705c-0.933-5.093-3.799-8.778-8.454-11.022c-5.63-2.718-11.713-3.021-17.783-3.222
		c-2.225-0.072-4.46,0.266-6.691,0.411c-3.854,0.25-7.615,0.907-11.142,2.563c-2.958,1.389-5.249,3.421-6.496,6.538
		c-1.195,2.991-1.491,6.081-0.831,9.176c0.352,1.65,1.075,3.297,1.972,4.734c1.962,3.147,5.194,4.527,8.621,5.317
		c4.359,1.003,8.771,1.781,13.163,2.629c4.507,0.869,9.027,1.663,13.524,2.57c2.072,0.418,4.036,1.145,5.725,2.522
		c3.306,2.693,3.094,8.584,1.261,11.792c-1.661,2.908-4.503,3.953-7.469,4.708c-3.689,0.938-7.474,1.039-11.266,0.968
		c-3.788-0.069-7.497-0.55-11.067-1.874c-4.38-1.624-7.486-4.36-8.482-9.087c-0.282-1.338-0.344-3.02-0.509-4.02
		c-2.506,0-4.988,0-7.827,0c0.226,2,0.323,3.725,0.669,5.525c0.899,4.701,3.524,8.156,7.677,10.531
		c5.439,3.109,11.464,3.824,17.54,4.137c4.361,0.225,8.737,0.087,13.074-0.656c3.501-0.601,6.902-1.458,9.97-3.308
		c2.555-1.539,4.59-3.577,5.755-6.383c1.249-3.003,1.532-6.118,0.951-9.29C360.917,451.26,360.037,449.168,358.319,447.461z"/>
	<path fill-rule="evenodd" clip-rule="evenodd" d="M225,434c-2,0-3,0-6,0c0,2,0,4.25,0,6.041c0,0.063-0.529,0.127-0.648,0.189
		c-0.721-0.805-1.489-1.737-2.334-2.385c-1.267-0.973-2.667-1.977-4.131-2.564c-4.128-1.654-8.483-1.969-12.927-1.724
		c-3.385,0.188-6.674,0.709-9.796,1.947c-4.614,1.826-8.066,4.919-9.72,9.726c-1.105,3.215-1.346,6.504-0.97,9.898
		c0.427,3.877,1.694,7.379,4.404,10.163c3.788,3.887,8.699,5.371,13.954,5.784c2.333,0.183,4.694,0.093,7.04,0.016
		c3.253-0.105,6.429-0.709,9.326-2.236c1.811-0.954,3.474-2.188,5.398-3.423c-0.144,2.908,0.026,5.884-0.518,8.725
		c-0.643,3.368-2.823,5.804-6.077,7.189c-2.364,1.007-4.846,1.478-7.371,1.55c-2.591,0.074-5.208,0.04-7.778-0.255
		c-1.871-0.212-3.764-0.731-5.504-1.46c-2.453-1.024-3.538-3.281-4.336-5.688c-0.127-0.379-0.561-0.918-0.872-0.932
		c-1.938-0.084-3.883-0.044-5.938-0.044c0.158,0.807,0.261,1.446,0.409,2.073c1.069,4.525,3.737,7.707,8.237,8.95
		c2.974,0.819,6.068,1.449,9.138,1.62c4.971,0.28,9.977,0.295,14.851-1.098c3.899-1.114,7.365-2.875,9.685-6.381
		c1.918-2.9,2.482-6.191,2.503-9.561c0.069-11.41-0.026-22.821-0.026-34.232C225,435.476,225,434,225,434z M218.469,452.312
		c0.131,3.902-0.897,7.399-3.777,10.153c-2.191,2.097-4.898,3.299-7.845,3.843c-4.729,0.875-9.406,0.534-13.933-1.13
		c-4.51-1.659-7.202-5.387-7.803-10.099c-0.309-2.414-0.259-4.768,0.399-7.079c1.063-3.736,3.425-6.457,6.983-7.976
		c6.229-2.657,12.575-2.729,18.77-0.017c4.886,2.14,7.116,6.206,7.205,11.486C218.472,451.767,218.469,452.039,218.469,452.312z"/>
	<path fill-rule="evenodd" clip-rule="evenodd" d="M61.074,429.894c-0.295-3.589-1.47-6.777-3.919-9.39
		c-3.423-3.65-7.927-5.01-12.727-5.067c-8.357-0.101-16.403,0.115-24.765,0.18C16.363,415.642,13,415.62,10,415.62
		c0,18.817,0,38.38,0,56.38c3,0,4,0,6,0c0-8,0-16,0-23c0,0,1.741,0,2.202,0c7.633,0,15.267-0.42,22.899-0.389
		c3.657,0.014,7.227-0.649,10.592-2.11c4.124-1.788,7.302-4.666,8.654-9.136C61.077,434.96,61.28,432.42,61.074,429.894z
		 M52.913,436.599c-1.053,2.814-3.166,4.557-5.905,5.376c-2.178,0.651-4.493,1.129-6.758,1.17
		c-7.631,0.142-15.603,0.053-23.235,0.05c-0.187,0-1.015-0.035-1.015-0.064c0-7.518,0-14.908,0-22.447
		c0-0.019,1.177-0.056,1.585-0.056c7.866-0.002,15.903-0.061,23.769,0.029c2.727,0.032,5.522,0.499,7.895,2.031
		c2.219,1.434,3.575,3.542,4.104,6.074C53.899,431.39,53.875,434.028,52.913,436.599z"/>
	<path fill-rule="evenodd" clip-rule="evenodd" d="M301.696,455c-0.221-2-0.339-3.806-0.638-5.535
		c-1.251-7.232-5.488-12.037-12.362-14.375c-4.147-1.41-8.446-1.751-12.84-1.495c-3.413,0.197-6.72,0.661-9.89,1.922
		c-2.87,1.143-5.463,2.765-7.431,5.166c-3.752,4.586-4.613,9.919-3.858,15.659c0.848,6.446,4.369,10.929,9.996,13.918
		c4.335,2.301,9.089,2.751,13.853,2.898c2.208,0.069,4.454-0.277,6.64-0.678c4.838-0.893,9.213-2.944,12.449-6.85
		c1.549-1.87,2.591-4.631,3.133-6.631c-2.341,0-4.593,0-6.896,0c-0.824,2-2.276,4.857-4.434,6.482
		c-3.001,2.26-6.524,2.931-10.1,3.045c-2.204,0.07-4.459-0.197-6.634-0.627c-4.895-0.961-8.633-3.419-10.651-8.117
		c-0.655-1.531-1.104-3.783-0.865-4.783C274.65,455,288.001,455,301.696,455z M266.517,441.274c2.663-1.945,5.717-2.904,8.977-3.282
		c3.23-0.376,6.372-0.146,9.404,0.934c4.401,1.561,7.684,4.583,9.364,9.036c0.333,0.882,0.387,2.038,0.583,3.038
		c-11.345,0-22.495,0-33.726,0C261.914,447,263.325,443.609,266.517,441.274z"/>
	<path fill-rule="evenodd" clip-rule="evenodd" d="M149.201,455.956c-2.218-2.506-5.176-3.54-8.33-4.09
		c-2.417-0.422-4.865-0.663-7.302-0.971c-2.513-0.316-5.035-0.559-7.539-0.937c-2.001-0.304-4.014-0.632-5.952-1.193
		c-1.903-0.547-3.611-1.62-3.846-3.827c-0.244-2.313,0.811-4.008,2.875-5.203c2.1-1.214,4.397-1.636,6.701-1.761
		c2.777-0.151,5.59-0.043,8.362,0.225c2.488,0.239,4.862,1.342,6.717,3.256c1.408,1.453,1.859,2.545,1.912,5.545
		c2.189,0,4.315,0,6.528,0c0.217-3-0.175-4.092-0.975-5.745c-1.493-3.085-4.117-5.036-7.264-6.04
		c-4.479-1.43-9.09-1.949-13.777-1.515c-2.488,0.233-5.007,0.269-7.459,0.708c-3.193,0.57-6.237,1.504-8.342,4.339
		c-2.036,2.743-2.336,8.102-0.455,10.704c1.751,2.422,4.131,3.636,6.954,4.116c3.134,0.535,6.284,0.982,9.433,1.427
		c2.964,0.415,5.938,0.745,8.898,1.171c1.888,0.272,3.782,0.501,5.492,1.515c1.921,1.139,2.947,3.616,2.317,5.744
		c-0.483,1.633-1.539,2.708-3.008,3.458c-1.906,0.976-3.937,1.405-6.068,1.596c-4.294,0.383-8.577,0.424-12.783-0.563
		c-2.242-0.525-4.52-1.277-5.724-3.447c-0.756-1.366-1.095-3.467-1.652-4.467c-2.013,0-4.214,0-6.587,0
		c0.104,0,0.17,1.512,0.3,2.254c0.575,3.28,2.221,5.868,5.02,7.669c2.947,1.895,6.327,2.517,9.733,2.8
		c3.088,0.257,6.201,0.236,9.303,0.25c3.83,0.018,7.595-0.488,11.195-1.866c2.521-0.965,4.701-2.352,6.096-4.82
		c1.069-1.895,1.099-3.896,1.043-5.944C150.971,458.655,150.313,457.21,149.201,455.956z"/>
	<path fill-rule="evenodd" clip-rule="evenodd" d="M92.914,434.816c-4.535-1.365-9.196-1.719-13.944-1.24
		c-2.732,0.276-5.388,0.733-7.957,1.688c-3.101,1.148-5.813,2.909-7.894,5.47c-2.957,3.637-4.284,7.863-4.146,12.569
		c0.12,1.503,0.062,3.044,0.387,4.5c1.535,6.849,5.638,11.49,12.297,13.774c3.857,1.324,7.852,1.516,11.905,1.445
		c3.109-0.056,6.151-0.374,9.123-1.231c5.121-1.478,9.34-4.219,11.74-9.159c2.258-4.652,2.497-9.619,1.419-14.563
		C104.314,441.045,99.616,436.837,92.914,434.816z M98.816,459.555c-1.32,3.671-3.945,6.05-7.491,7.491
		c-2.563,1.042-5.24,1.353-7.997,1.433c-3.413,0.103-6.727-0.179-9.833-1.676c-3.897-1.877-6.439-4.914-7.434-9.154
		c-1.128-4.802-0.704-9.395,2.208-13.525c2.118-3.008,5.192-4.657,8.689-5.465c1.785-0.411,3.655-0.464,5.485-0.678
		c3.628,0.151,7.117,0.58,10.422,2.229c3.391,1.694,5.452,4.443,6.313,7.967C100.101,451.948,100.167,455.803,98.816,459.555z"/>
	<path fill-rule="evenodd" clip-rule="evenodd" d="M167,423c-3,0-5,0-7,0c0,4,0,8,0,11c-2,0-6,0-9,0c0,2,0,3,0,4c3,0,7,0,9,0
		c0,2,0,2.142,0,2.599c0,8.062,0,16.123,0,24.183c0,3.687,1.424,6.203,5.029,7.026c3.486,0.797,6.971,0.858,9.971,0.088
		c0-1.481,0-2.986,0-4.196c-2,0.013-3.737,0.186-5.679-0.001c-2.455-0.235-3.035-1.052-3.057-3.927
		c-0.053-7.788,0.735-15.577,0.735-23.364c0-0.41,0-0.407,0-2.407c2,0,5,0,8,0c0-1,0-2,0-4c-3,0-6,0-8,0C167,431,167,427,167,423z"
		/>
	<path fill-rule="evenodd" clip-rule="evenodd" d="M256,433.414c-4-0.109-7.719-0.044-11.389,0.782
		c-2.586,0.586-4.879,1.869-6.388,4.149c-0.177,0.267-0.181,0.534-0.224,0.802c0,0.129,0,0.271,0,0.396
		c0,0.018-0.102,0.035-0.153,0.053c-0.005,0.009-0.006,0.019-0.012,0.027c-0.033-0.009-0.016-0.019,0.012-0.027
		c0.091-0.149,0.129-0.299,0.153-0.448c0-1.495,0-3.307,0-5.147c-4,0-5,0-8,0c0,13,0,25,0,38c3,0,4.843,0,7.027,0
		c0-2-0.005-1.262,0-1.766c0.077-6.797,0.061-13.656,0.282-20.447c0.087-2.63,1.089-5.163,2.913-7.137
		c3.256-3.522,7.652-4.234,12.193-3.821c1.129,0.101,2.584,0.147,3.584,0.228C256,437.114,256,435.303,256,433.414z"/>
</g>
</svg>
