<svg width="128" height="128" viewBox="0 0 128 128" fill="none" xmlns="http://www.w3.org/2000/svg"><path d="M80.5218 44.1861c-1.8328-.5928-2.7793-.3929-4.7018-.609-2.972-.3335-4.156-1.5283-4.6583-4.6033-.2811-1.7166.0508-4.2299-.6668-5.7859-1.3723-2.967-4.5835-4.2976-7.8097-3.5381-2.7238.6422-4.9902 3.4424-5.1158 6.3167-.1434 3.2818 1.6744 6.0821 4.7959 7.0485 1.483.4599 3.0587.6915 4.6075.8088 2.8404.213 3.0587 1.8372 3.8271 3.174.4843.8428.9538 1.6733.9538 4.1864 0 2.5132-.4724 3.3437-.9538 4.1865-.7684 1.3338-1.7162 2.2075-4.5566 2.4236-1.5488.1173-3.1275.3488-4.6075.8089-3.1215.9694-4.9393 3.7665-4.7959 7.0484.1256 2.8742 2.392 5.6745 5.1158 6.3167 3.2262.7625 6.4374-.5712 7.8097-3.5382.7206-1.556 1.1152-3.3188 1.3963-5.0354.5053-3.075 1.6893-4.2698 4.6583-4.6032 1.9225-.2161 3.9122 0 5.7137-1.0528 1.9038-1.4308 3.6046-3.5782 3.6046-6.5545 0-2.9762-1.8328-6.0966-4.6165-6.9981ZM50.0298 58.159c-3.7464 0-6.8023-3.1493-6.8023-7.0102 0-3.8608 3.0559-7.0101 6.8023-7.0101s6.8023 3.1493 6.8023 7.0101c0 3.8578-3.059 7.0102-6.8023 7.0102ZM37.498 72.4054c-3.7404-.0093-6.7872-3.171-6.7783-7.0348.0091-3.8577 3.077-6.9977 6.8264-6.9854 3.7433.0093 6.7902 3.171 6.7782 7.0348-.0091 3.8547-3.077 6.9947-6.8263 6.9854ZM88.0419 72.4053c-3.7523.0215-6.8322-3.106-6.8533-6.9574-.0209-3.8669 3.014-7.0408 6.7511-7.0626 3.7528-.0216 6.8319 3.106 6.8534 6.9574.0206 3.8638-3.0138 7.0408-6.7512 7.0626ZM12.9585 97.0123c-.4766-.5131-.5446-1.1376-.7489-3.2346-.1589-1.6285-1.0212-2.4539-2.4964-2.744 1.7475-.223 3.0411-1.5615 3.0411-3.6139 0-2.7438-1.8383-4.4615-5.5375-4.4615H0v14.054h3.79v-4.6624h2.5644c1.2936 0 1.9971.357 2.1106 1.9632.1135 1.45.295 2.32.59 2.6992h3.9035ZM3.79 89.4276v-3.4354h2.746c1.634 0 2.451.6023 2.451 1.74 0 1.2938-.817 1.6954-2.451 1.6954H3.79ZM21.3748 93.4653c-.3404.7808-.9759 1.1155-1.9744 1.1155-1.112 0-2.0198-.5801-2.1106-1.807h7.1034v-1.0039c0-2.6993-1.7929-4.9747-5.1744-4.9747-3.1545 0-5.5147 2.2531-5.5147 5.3986 0 3.1677 2.3148 5.0862 5.5601 5.0862 2.678 0 4.5389-1.2716 5.0609-3.547l-2.9503-.2677Zm-4.0396-2.4316c.1361-.9369.6582-1.6507 1.8383-1.6507 1.0893 0 1.6794.7584 1.7247 1.6507h-3.563ZM31.7391 92.863c0 1.2938-.8396 2.0523-1.8836 2.0523-.6127 0-1.0212-.3345-1.0212-.8476 0-.647.522-.9147 1.4071-1.0931l1.4977-.2677v.1561Zm3.6085-2.1638c0-2.7663-1.9744-3.904-4.6524-3.904-3.041 0-4.6977 1.517-5.0155 3.7031l3.4042.2232c.1589-.7363.5674-1.2494 1.3844-1.2494.8851 0 1.2708.4909 1.2708 1.3162v.1562l-2.8367.4685c-2.2013.3792-3.6085 1.2046-3.6085 3.1231 0 1.6954 1.2937 2.6993 3.2681 2.6993 1.6113 0 2.7686-.6023 3.3587-1.7624.3405 1.1378 1.3163 1.7624 2.5645 1.7624 1.0439 0 1.7701-.2901 2.2921-.6469v-1.9186c-.295.1116-.522.1562-.817.1562-.3858 0-.6127-.223-.6127-.7362v-3.3907ZM37.1963 92.0376c0 3.1677 2.3376 5.2424 5.5375 5.2424 3.041 0 4.7431-1.9185 4.9928-4.3278l-3.0184-.223c-.2497 1.2269-.8624 1.8292-1.929 1.8292-1.112 0-1.8837-.7361-1.8837-2.5208s.7717-2.5208 1.8837-2.5208c1.0666 0 1.6793.58 1.929 1.8069l3.0184-.2007c-.2497-2.387-1.9518-4.3278-4.9928-4.3278-3.1999 0-5.5375 2.097-5.5375 5.2424ZM49.4955 94.2461c0 2.3424 1.6113 3.0339 3.3133 3.0339 1.3844 0 2.2695-.3347 3.0412-.8923v-2.3424c-.6128.2454-1.1121.3346-1.566.3346-.7489 0-1.1574-.3345-1.1574-1.1823v-3.6362h2.6325v-2.4985h-2.6325V84.319h-2.3148l-.3404 1.2938c-.2497.9147-.5675 1.4501-1.5887 1.6062l-.7489.1116v2.2308h1.3617v4.6847ZM74.3931 97.0123c-.4766-.5131-.5447-1.1376-.7489-3.2346-.1589-1.6285-1.0213-2.4539-2.4964-2.744 1.7474-.223 3.041-1.5615 3.041-3.6139 0-2.7438-1.8382-4.4615-5.5374-4.4615h-7.2168v14.054h3.7899v-4.6624h2.5645c1.2936 0 1.9971.357 2.1106 1.9632.1135 1.45.295 2.32.59 2.6992h3.9035Zm-9.1686-7.5847v-3.4354h2.746c1.6341 0 2.451.6023 2.451 1.74 0 1.2938-.8169 1.6954-2.451 1.6954h-2.746ZM78.8379 92.0376c0-1.4947.5446-2.5208 1.8382-2.5208 1.2709 0 1.8382 1.0261 1.8382 2.5208s-.5673 2.5208-1.8382 2.5208c-1.2936 0-1.8382-1.0261-1.8382-2.5208Zm7.3756 0c0-3.0785-2.2467-5.2424-5.5374-5.2424-3.3134 0-5.5374 2.1639-5.5374 5.2424 0 3.1008 2.224 5.2424 5.5374 5.2424 3.2907 0 5.5374-2.1416 5.5374-5.2424ZM94.3443 91.9484c0 1.517-.4538 2.4985-1.6112 2.4985-1.1126 0-1.4984-.7361-1.4984-2.0746V87.063h-3.6761v6.2685c0 2.0746.8397 3.9485 3.6081 3.9485 1.5208 0 2.6325-.6468 3.1776-1.7623v1.4947h3.6762V87.063h-3.6762v4.8854ZM100.381 94.2461c0 2.3424 1.611 3.0339 3.313 3.0339 1.384 0 2.27-.3347 3.041-.8923v-2.3424c-.613.2454-1.112.3346-1.566.3346-.748 0-1.158-.3345-1.158-1.1823v-3.6362h2.633v-2.4985h-2.633V84.319h-2.314l-.34 1.2938c-.25.9147-.568 1.4501-1.5892 1.6062l-.7492.1116v2.2308h1.3624v4.6847ZM115.277 93.4653c-.34.7808-.975 1.1155-1.974 1.1155-1.112 0-2.019-.5801-2.111-1.807h7.104v-1.0039c0-2.6993-1.793-4.9747-5.175-4.9747-3.154 0-5.515 2.2531-5.515 5.3986 0 3.1677 2.315 5.0862 5.561 5.0862 2.678 0 4.539-1.2716 5.061-3.547l-2.951-.2677Zm-4.039-2.4316c.136-.9369.658-1.6507 1.838-1.6507 1.09 0 1.68.7584 1.724 1.6507h-3.562ZM127.638 87.1744c-.25-.2007-.794-.3792-1.407-.3792-1.339 0-2.405.9146-2.769 2.0301v-1.7624h-3.676v9.9494h3.676v-4.5508c0-1.6732.84-2.2977 2.201-2.2977.704 0 1.249.1338 1.749.4238l.226-3.4132Z" fill="#F44250"/></svg>