<svg width="128" height="128" viewBox="0 0 128 128" fill="none" xmlns="http://www.w3.org/2000/svg"><path d="M99.0392 50.3149c-3.6449-1.1479-5.5272-.7609-9.3503-1.1794-5.9102-.6456-8.2648-2.9593-9.2636-8.9138-.559-3.3241.101-8.191-1.3261-11.2041-2.7291-5.7453-9.1149-8.3221-15.5306-6.8514-5.4167 1.2436-9.9237 6.6661-10.1734 12.232-.2854 6.3551 3.3298 11.7776 9.5372 13.6489 2.9492.8908 6.0826 1.3391 9.1626 1.5664 5.6485.4124 6.0826 3.5575 7.6107 6.1463.9633 1.632 1.8967 3.2403 1.8967 8.1068s-.9394 6.4747-1.8967 8.1068c-1.5281 2.5827-3.4129 4.2746-9.0614 4.693-3.08.2273-6.2195.6757-9.1626 1.5665-6.2075 1.8772-9.8227 7.2936-9.5373 13.6488.2498 5.5659 4.7567 10.9883 10.1735 12.2323 6.4156 1.476 12.8015-1.106 15.5306-6.8516 1.4329-3.0132 2.2178-6.4269 2.7768-9.7509 1.0048-5.9547 3.3593-8.2683 9.2636-8.914 3.8231-.4185 7.78 0 11.3631-2.0387 3.785-2.7707 7.168-6.9291 7.168-12.6922 0-5.7633-3.645-11.806-9.1808-13.5517Z" fill="#F44250"/><path d="M38.3994 77.373c-7.4502 0-13.5273-6.0985-13.5273-13.5747 0-7.4763 6.0771-13.5747 13.5273-13.5747 7.4501 0 13.5272 6.0984 13.5272 13.5747 0 7.4702-6.0831 13.5747-13.5272 13.5747ZM13.4795 104.96C6.0413 104.942-.0178 98.8196 0 91.3373c.018-7.4701 6.119-13.5506 13.575-13.5267 7.4441.018 13.5033 6.1405 13.4794 13.6226-.0179 7.4643-6.1189 13.5448-13.5749 13.5268ZM113.992 104.96c-7.462.041-13.586-6.0148-13.629-13.4729-.041-7.488 5.994-13.6342 13.426-13.6763 7.462-.0418 13.587 6.0145 13.629 13.4726.041 7.482-5.994 13.6346-13.426 13.6766Z" fill="#121212"/></svg>