<svg xmlns="http://www.w3.org/2000/svg" viewBox="0 0 128 128"><path d="M80.522 44.186c-1.833-.593-2.78-.393-4.702-.609-2.972-.333-4.156-1.528-4.658-4.603-.281-1.717.05-4.23-.667-5.786-1.372-2.967-4.584-4.298-7.81-3.538-2.724.642-4.99 3.442-5.116 6.317-.143 3.281 1.675 6.082 4.796 7.048 1.483.46 3.059.692 4.608.809 2.84.213 3.059 1.837 3.827 3.174.484.843.954 1.673.954 4.186s-.473 3.344-.954 4.187c-.768 1.333-1.716 2.207-4.557 2.423-1.548.118-3.127.35-4.607.81-3.122.969-4.94 3.766-4.796 7.048.125 2.874 2.392 5.674 5.116 6.316 3.226.763 6.437-.57 7.81-3.538.72-1.556 1.115-3.319 1.396-5.035.505-3.075 1.689-4.27 4.658-4.604 1.923-.216 3.912 0 5.714-1.052 1.903-1.431 3.604-3.579 3.604-6.555 0-2.976-1.833-6.096-4.616-6.998z" fill="#F44250"/><path d="M50.03 58.159c-3.747 0-6.802-3.15-6.802-7.01 0-3.861 3.055-7.01 6.802-7.01s6.802 3.149 6.802 7.01c0 3.858-3.059 7.01-6.802 7.01zM37.498 72.405c-3.74-.009-6.787-3.17-6.778-7.035.009-3.857 3.077-6.997 6.826-6.985 3.743.01 6.79 3.171 6.778 7.035-.009 3.855-3.077 6.995-6.826 6.985zm50.544 0c-3.752.022-6.832-3.106-6.853-6.957-.021-3.867 3.014-7.041 6.75-7.063 3.753-.021 6.833 3.106 6.854 6.958.02 3.863-3.014 7.04-6.751 7.062zM12.958 97.012c-.476-.513-.544-1.137-.748-3.234-.16-1.629-1.022-2.454-2.497-2.744 1.748-.223 3.041-1.562 3.041-3.614 0-2.744-1.838-4.462-5.537-4.462H0v14.054h3.79V92.35h2.564c1.294 0 1.998.357 2.111 1.963.114 1.45.295 2.32.59 2.7h3.904zM3.79 89.428v-3.436h2.746c1.634 0 2.451.602 2.451 1.74 0 1.294-.817 1.696-2.451 1.696H3.79zm17.585 4.037c-.34.781-.976 1.116-1.975 1.116-1.112 0-2.02-.58-2.11-1.807h7.103V91.77c0-2.7-1.793-4.975-5.174-4.975-3.155 0-5.515 2.253-5.515 5.399 0 3.167 2.315 5.086 5.56 5.086 2.678 0 4.54-1.272 5.061-3.547l-2.95-.268zm-4.04-2.431c.136-.937.658-1.651 1.838-1.651 1.09 0 1.68.758 1.725 1.65h-3.563zm14.404 1.829c0 1.294-.84 2.052-1.884 2.052-.612 0-1.02-.334-1.02-.847 0-.647.521-.915 1.406-1.093l1.498-.268v.156zm3.609-2.164c0-2.766-1.975-3.904-4.653-3.904-3.04 0-4.698 1.517-5.015 3.703l3.404.224c.159-.737.567-1.25 1.384-1.25.885 0 1.271.491 1.271 1.316v.157l-2.837.468c-2.2.38-3.608 1.205-3.608 3.123 0 1.696 1.294 2.7 3.268 2.7 1.611 0 2.769-.603 3.359-1.763.34 1.138 1.316 1.762 2.564 1.762 1.044 0 1.77-.29 2.292-.646v-1.92a2.124 2.124 0 01-.817.157c-.386 0-.612-.223-.612-.736V90.7zm1.848 1.339c0 3.167 2.338 5.242 5.538 5.242 3.04 0 4.743-1.919 4.993-4.328l-3.019-.223c-.25 1.227-.862 1.83-1.929 1.83-1.112 0-1.884-.737-1.884-2.521s.772-2.521 1.884-2.521c1.067 0 1.68.58 1.93 1.807l3.018-.201c-.25-2.387-1.952-4.328-4.993-4.328-3.2 0-5.538 2.097-5.538 5.243zm12.3 2.208c0 2.343 1.61 3.034 3.313 3.034 1.384 0 2.27-.335 3.041-.892v-2.343c-.613.246-1.112.335-1.566.335-.749 0-1.157-.335-1.157-1.182V89.56h2.632v-2.498h-2.632v-2.744h-2.315l-.34 1.294c-.25.915-.568 1.45-1.59 1.606l-.748.112v2.23h1.361v4.685zm24.897 2.766c-.476-.513-.545-1.137-.749-3.234-.159-1.629-1.021-2.454-2.496-2.744 1.747-.223 3.04-1.562 3.04-3.614 0-2.744-1.837-4.462-5.537-4.462h-7.216v14.054h3.79V92.35h2.564c1.294 0 1.997.357 2.11 1.963.114 1.45.296 2.32.59 2.7h3.904zm-9.168-7.584v-3.436h2.746c1.634 0 2.45.602 2.45 1.74 0 1.294-.816 1.696-2.45 1.696h-2.747zm13.613 2.61c0-1.495.545-2.521 1.838-2.521 1.271 0 1.838 1.026 1.838 2.52s-.567 2.521-1.838 2.521c-1.293 0-1.838-1.026-1.838-2.52zm7.376 0c0-3.079-2.247-5.243-5.538-5.243-3.313 0-5.537 2.164-5.537 5.243 0 3.1 2.224 5.242 5.537 5.242 3.29 0 5.538-2.142 5.538-5.242zm8.13-.09c0 1.517-.453 2.499-1.61 2.499-1.113 0-1.5-.736-1.5-2.075v-5.309H87.56v6.269c0 2.074.84 3.948 3.608 3.948 1.52 0 2.632-.647 3.177-1.762v1.494h3.676v-9.949h-3.676v4.885zm6.037 2.298c0 2.343 1.611 3.034 3.313 3.034 1.384 0 2.27-.335 3.041-.892v-2.343c-.613.246-1.112.335-1.566.335-.748 0-1.158-.335-1.158-1.182V89.56h2.633v-2.498h-2.633v-2.744h-2.314l-.34 1.294c-.25.915-.568 1.45-1.59 1.606l-.748.112v2.23h1.362v4.685zm14.896-.78c-.34.78-.975 1.115-1.974 1.115-1.112 0-2.019-.58-2.111-1.807h7.104V91.77c0-2.7-1.793-4.975-5.175-4.975-3.154 0-5.515 2.253-5.515 5.399 0 3.167 2.315 5.086 5.561 5.086 2.678 0 4.539-1.272 5.061-3.547l-2.951-.268zm-4.039-2.432c.136-.937.658-1.651 1.838-1.651 1.09 0 1.68.758 1.724 1.65h-3.562zm16.4-3.86c-.25-.2-.794-.379-1.407-.379-1.339 0-2.405.915-2.769 2.03v-1.762h-3.676v9.95h3.676v-4.551c0-1.674.84-2.298 2.201-2.298.704 0 1.249.134 1.749.424l.226-3.414z" fill="#121212"/></svg>
