<svg xmlns="http://www.w3.org/2000/svg" viewBox="0 0 128 128"><path fill="#df234f" d="M25.54 42.617c-.3 0-.602.1-.902.2.6.4.901.901 1.101 1.402v.401c0 1.002-.3 1.101-.5 1.702-.301.701-.2 1.604.201 2.205 0 .1.1.2.1.2-.4-2.805 1.903-3.305 2.404-4.107 0-.801-.6-1.301-1.101-1.602-.501-.3-.903-.4-1.303-.4zm3.505.8v.603c0 .1 0 .199-.1.299 0 .1-.1.201-.1.301 0 .1-.101.2-.101.3l-.1.101s0 .1-.1.1c-.1.1-.099.2-.2.2l-.2.201-.2.2c-.2.2-.502.3-.702.5-.1.1-.2.1-.2.2l-.2.201-.2.2-.2.201c-.1.1-.102.2-.202.2 0 .1-.1.2-.1.301 0 .1-.1.2-.1.3 0 .1-.1.2-.1.3v1.002c0 .1 0 .2.1.3 0 .1.1.2.1.3 0 .1.1.1.1.2l-2.604-1.001c-.4-.1-.9-.2-1.3-.3-.2-.1-.502-.1-.703-.201-.7-.1-1.402-.2-2.003-.3h-.1c-.7-.1-1.302-.1-2.003-.1-.5 0-1.001 0-1.502.1-.701 0-1.402.1-2.003.2-.2 0-.3.1-.501.1-.3.1-.701.101-1.001.202-.2 0-.301.1-.501.1-.2.1-.3.099-.501.199-.1.1-.2.101-.401.201h-.1c-.1.1-.2.1-.301.2h-.1c-.1.1-.199.101-.3.201-.1 0-.2.1-.2.1s-.1 0-.1.1c-.1.1-.201.1-.302.2-.1.1-.199.1-.299.2-.1.1-.201.1-.201.2-.1 0-.1.102-.2.202-.1 0-.1.1-.2.1h-.101c-.1 0-.1.1-.2.1l-.2.199-.2.201c-.1-.2-.1-.2-.2-.1 0 0-.1 0-.1.1l-.201.2v.1l-.3.3c-.2.201-.402.402-.602.502-.2.2-.4.3-.6.5-.201.2-.4.301-.701.402-.2.1-.402.199-.702.299-.2.1-.5.2-.7.301-.501.1-1.003.301-1.403.301h-.3c-.1 0-.2 0-.3.1 0 .1-.1.1-.2.1s-.201.1-.302.1c-.1.1-.2.1-.2.201-.1.1-.2.1-.2.2-.1.1-.2.099-.2.2l-.202.2c-.1.1-.1.2-.2.3-.1.1-.099.2-.199.301 0 .1-.101.201-.101.301 0 .1-.1.2-.1.3 0 .1 0 .2-.1.3v.801c0 .1 0 .101.1.202 0 .1.1.099.1.199s.101.101.101.202l.2.199.2.2c.3.2.301.3.702.5.1 0 .099.102.2.102v.1c0 .1-.001.199.099.3 0 .1.102.2.102.3 0 .1.1.1.1.2v.102c0 .1.1.2.1.2.1.1.099.199.199.199l.201.201.2.2.201.201c.1.1.2.1.2.1.1 0 .2.1.3.1h.4v1.402c.3.3.802-.401 1.303-1.203-.1.802-.1 1.703 0 1.904.1.3.801-.601 1.402-1.602 7.913-1.803 15.224 3.606 15.926 11.418-.1-1.202-1.604-1.904-2.305-1.704-.3.801-.902 1.903-1.803 2.504.1-.701 0-1.502-.1-2.203a6.2 6.2 0 0 1-1.403 2.805 3.033 3.033 0 0 1-2.703-1.203l-.1-.1c0-.1-.1-.2-.1-.2 0-.1-.101-.2-.101-.2v-.402c0-.1.001-.2.101-.2 0-.1 0-.199.1-.199 0-.1.1-.201.1-.201.2-.5.2-1-.2-1.201-.1 0-.101-.1-.201-.1h-.2c-.1 0-.201-.002-.201-.102h-1.002c-.1 0-.2.002-.2.102-.1 0-.099.1-.199.1s-.101.1-.201.1c-2.905 1.502-1.302 5.508.4 6.61-.7.1-1.401.3-1.502.4.501.3 1.002.5 1.503.7.7.201 1.503.401 1.803.502.902.2 1.902.301 2.804.201 5.007-.3 9.014-4.106 9.816-9.114 0 .1 0 .2.1.3 0 .2.1.4.1.6v3.106c0 .1 0 .2-.1.3 0 .1 0 .2-.1.301 0 .1 0 .2-.1.3 0 .1-.102.2-.102.3 0 .1-.1.202-.1.302 0 .1-.1.199-.1.3 0 .1-.1.2-.1.3 0 .1-.099.2-.099.3 0 .1-.102.2-.102.3v.1c-.7 1.503-1.802 2.806-3.104 3.807-.1.1-.2.1-.3.2 0 0-.101 0-.101.1-.1.1-.2.101-.2.201v.1c.2 0 .3 0 .501-.1.3 0 .601-.101.902-.201.1 0 .2 0 .2-.1h.4c.1 0 .1 0 .2-.1 1.102-.3 2.205-.6 3.206-1.101-1.803 2.404-4.207 4.406-6.911 5.708 1.302-.1 2.605-.3 3.807-.7 4.507-1.302 8.312-4.408 10.616-8.414a19.059 19.059 0 0 1-3.005 7.21c1.102-.7 2.103-1.502 3.005-2.503 2.504-2.604 4.105-5.91 4.706-9.515.401 1.803.502 3.606.302 5.409 7.812-10.817.399-22.535-2.706-25.64v.401c0 .3-.1.5-.1.7-.1.2-.099.502-.2.703-.1.2-.2.5-.3.7-.1.2-.2.5-.3.7-.1.2-.3.403-.4.603-.1.2-.301.4-.501.6-.2.2-.3.4-.501.6l-.301.302c-.1.1-.2.1-.3.2-.2.2-.402.3-.602.4-.2.1-.4.302-.7.402-.2.1-.5.199-.7.299-.201.1-.503.202-.703.202-.2.1-.5.099-.7.199-.3 0-.502.1-.802.1h-1.301c-.3 0-.502-.1-.802-.1-.3 0-.5-.1-.7-.2.2 0 .5-.001.7-.101.3 0 .5-.1.7-.2.2-.1.502-.1.702-.2.2-.1.5-.2.7-.3.2-.1.402-.201.703-.401.2-.1.4-.301.6-.401.2-.2.4-.301.6-.501l.502-.501c.2-.2.3-.4.5-.6 0 0 0-.1.1-.1.1-.2.201-.401.301-.501.1-.2.2-.4.3-.7.1-.2.2-.502.301-.703.1-.2.1-.5.2-.7 0-.3.101-.502.101-.702v-1.301c0-.3-.101-.502-.101-.702 0-.3-.1-.5-.2-.7-.1-.201-.2-.5-.2-.701-.1-.2-.2-.502-.3-.702-.1-.2-.201-.4-.402-.7-.1-.201-.3-.4-.4-.601-.201-.2-.301-.402-.502-.603l-.299-.299c-.5-.4-1.001-.8-1.602-1.101-.1 0-.101-.102-.201-.102-.401-.2-.701-.4-1.102-.5zm93.446 10.016c-1.802 3.806-5.81 5.11-5.81 5.11v.8c0 .5.402.5.402.5h2.003s-.2 7.712-.1 10.417c.1 2.704 2.003 3.505 2.003 3.505s1.3.701 3.404.501c2.103-.2 3.607-2.304 3.607-2.304l-.702-1.102c-3.105 2.604-3.705-.5-3.705-.5V59.742h4.206V57.74h-4.007v-4.307zm-60.594 2.404c-1.502 2.704-5.81 3.206-5.81 3.206v1.101c2.805.601 2.504 1.904 2.504 1.904s.1 6.709.1 8.812-.7 1.704-.7 1.704l-1.904.4v1.202c2.003-.6 9.114 0 9.114 0l.1-1.203c-2.103-.3-2.303-1.602-2.303-1.602v-9.916c1.903-1.702 3.705-2.302 3.705-2.302 3.706-.902 4.007 2.703 4.007 2.703l.1 9.114c.7 2.404-2.804 2.003-2.804 2.003l.1 1.203 5.509-.4 3.705.4v-1.203c-1.803-.3-1.903-.3-2.003-1.702.4-10.316-.4-11.216-.4-11.216-4.507-7.312-11.919 0-11.919 0v-4.208zm26.44.6c-8.013 0-8.412 7.213-8.412 7.213s-1.404 10.917 8.412 10.917c6.31 0 8.214-3.607 8.214-3.607l-1.203-1.101s-9.415 6.81-10.616-6.11H96.65c-.1-.1-.302-7.312-8.314-7.312zm18.13.306c-.66.004-1.391.033-2.205.096 0 0-3.505.8-4.106 4.106-.601 3.305 1.502 5.109 1.502 5.109s.902 1.302 4.007 1.602c2.704.3 3.906 1.403 3.906 1.403s1.403 1.3-.1 2.903c-1.502 1.602-3.505 1.001-3.505 1.001s-2.304.1-5.008-4.607l-1.303.1.5 4.709s6.412 3.605 11.32 0c5.007-4.507.8-8.715-1.904-9.216-2.704-.5-4.507-1.2-4.507-1.2s-4.207-1.703-.5-4.207c4.106-2.103 6.51 3.905 6.51 3.905s.9.201 1.502-.3c.2-.6-.501-4.207-.501-4.207s-.998-1.226-5.609-1.197zM88.538 57.94c1.903 0 3.506 1.602 3.506 3.505v.902h-7.412v-.5c0-2.104 1.703-3.907 3.906-3.907z"/></svg>
