<svg xmlns="http://www.w3.org/2000/svg" viewBox="0 0 128 128">
    <path fill="#e0234e" d="M12.63,124.22a4.64,4.64,0,0,1,1.11-.44,4.74,4.74,0,0,0,1.48-.41,1.16,1.16,0,0,0,.47-.6,13.28,13.28,0,0,0,.14-2.44v-2.39l0-2-.07-2.91v-1.73a12.92,12.92,0,0,0-.23-2.83,1.51,1.51,0,0,0-.58-.83,6.73,6.73,0,0,0-2.2-1.09l0-1.32a4.81,4.81,0,0,1,.54-.14c.16,0,.79-.22,1.88-.55a15.77,15.77,0,0,0,1.64-.77l.4-.24a5.63,5.63,0,0,1,.62-.55,10.47,10.47,0,0,0,1.67-2l1.23-.11,0,3.11c0,.3,0,.54,0,.74s0,.57,0,1.26a13.77,13.77,0,0,1,3.53-2.75,8.78,8.78,0,0,1,3.91-1A6.12,6.12,0,0,1,32,103.55a5.84,5.84,0,0,1,2.16,2.94,28.75,28.75,0,0,1,.5,6.78l-.09,9a2.66,2.66,0,0,0,.19,1,3.54,3.54,0,0,0,1.29.41l1.14.25a1.69,1.69,0,0,1,.21.88c0,.21,0,.52,0,.9l-4.56-.38-1.34.05H30.36l-3.08.28h-.79c0-.25,0-.42,0-.55,0-.33,0-.69,0-1.07.21-.06.77-.14,1.62-.28a6.34,6.34,0,0,0,.79-.19,1,1,0,0,0,.54-.44,6.23,6.23,0,0,0,.18-1.78c0-1.57,0-2.75,0-3.57l0-3.19c0-3.9-.18-6.31-.61-7.25a2.86,2.86,0,0,0-2.66-2.08,5.54,5.54,0,0,0-2.69.79,11.78,11.78,0,0,0-2.89,2.39l-.05.47.05,1.73,0,1.84.1,4.42-.05.68c0,3,.09,4.7.3,5.08s1,.8,2.32,1.27a6.71,6.71,0,0,1,.07.68,6.84,6.84,0,0,1-.16,1c-.49,0-.91,0-1.23,0a11,11,0,0,1-1.53-.17l-2.48-.05c-1.26,0-3,.05-5.38.19a1.67,1.67,0,0,1-.09-.58C12.61,125,12.61,124.66,12.63,124.22Z M40,111a13.22,13.22,0,0,1,1.09-3.11,13.65,13.65,0,0,1,2.76-3.54,8.62,8.62,0,0,1,2.66-1.67,8,8,0,0,1,2.5-.52,12.06,12.06,0,0,1,3.53.41,6,6,0,0,1,2.27,1.12,13,13,0,0,1,2.08,2.17,9.21,9.21,0,0,1,1.28,2.61,11.94,11.94,0,0,1,.58,3.6L56.16,112c-.72,0-2.28-.08-4.71-.24-.9-.06-1.5-.11-1.85-.11-.12,0-1,0-2.51,0h-2c0,.28,0,.5,0,.66a19.31,19.31,0,0,0,.3,3.11,11.39,11.39,0,0,0,.91,2.82,7.4,7.4,0,0,0,1.5,2.09,6.08,6.08,0,0,0,1.86,1.29l1.34.52a13.5,13.5,0,0,0,2.41-.14,10.54,10.54,0,0,0,1.95-.68,12.15,12.15,0,0,0,2.06-1.48c.56.49,1,.9,1.41,1.31a14.31,14.31,0,0,1-4.26,3.88,10.18,10.18,0,0,1-4.91,1.18,9.23,9.23,0,0,1-3-.39,8.36,8.36,0,0,1-2.8-1.51,10.39,10.39,0,0,1-2.16-2.52,13.67,13.67,0,0,1-1.37-3.13,14.7,14.7,0,0,1-.57-3.35A27,27,0,0,1,40,111Zm13.53-1.18a9.79,9.79,0,0,0-.5-3,4.47,4.47,0,0,0-1.54-2.17,3.33,3.33,0,0,0-2.06-.79,3.6,3.6,0,0,0-2.82,1.62A7.89,7.89,0,0,0,45.19,110l5.31,0c.35,0,.83,0,1.43-.08s.79-.08,1-.08A5.29,5.29,0,0,1,53.53,109.84Z M62.44,117.91a5.15,5.15,0,0,1,1-.17,3.23,3.23,0,0,1,.49,0l.21.28a31.52,31.52,0,0,0,1.67,3.18,10.08,10.08,0,0,0,1.6,1.81,6.29,6.29,0,0,0,1.67.91,4.11,4.11,0,0,0,1.64.33,3.32,3.32,0,0,0,2.51-1.1,3.58,3.58,0,0,0,1-2.44,2.76,2.76,0,0,0-.4-1.49A4,4,0,0,0,72.31,118a26.89,26.89,0,0,0-3-1c-1.55-.47-2.48-.77-2.8-.91a6,6,0,0,1-2-1.37,6.29,6.29,0,0,1-1.29-2,7.86,7.86,0,0,1-.61-2.69,10.09,10.09,0,0,1,.52-3.44,7.63,7.63,0,0,1,1.45-2.36,5.73,5.73,0,0,1,2-1.4,7.06,7.06,0,0,1,2.92-.63,18,18,0,0,1,3.89.36,9,9,0,0,1,2.83,1.07c.12.41.23,1.4.42,2.91S77,109,77,109.29a1.22,1.22,0,0,1-.07.41,3.35,3.35,0,0,1-1,.22c-.13,0-.37,0-.67-.06-.14-.24-.32-.66-.56-1.15a9.67,9.67,0,0,0-2.29-3.46,4,4,0,0,0-2.71-1,3.73,3.73,0,0,0-2.69,1.1,3,3,0,0,0-.79,2.2,2.81,2.81,0,0,0,.84,1.84,5.28,5.28,0,0,0,2.83,1.45,20.43,20.43,0,0,1,4.49,1.6,7.09,7.09,0,0,1,2.94,2.74,7.58,7.58,0,0,1,.86,3.63,7.43,7.43,0,0,1-2.06,5.35,7.86,7.86,0,0,1-5.94,2.12c-.32,0-1.22-.09-2.66-.28a13.15,13.15,0,0,1-2.3-.55c-.22-.08-.78-.33-1.71-.79a1.51,1.51,0,0,1-.37-.39,22.59,22.59,0,0,1-.3-2.3C62.6,119.69,62.46,118.35,62.44,117.91Z M81.53,104.73a13.79,13.79,0,0,0,4-2.69,16.77,16.77,0,0,0,2.62-4.31h1.32a5.4,5.4,0,0,1,.21,1.51c0,1,0,1.7,0,2.25l-.07,1.62c0,.08,0,.3,0,.63l.54,0c.07,0,.81,0,2.17-.11L94,103.6a5.53,5.53,0,0,1,0,2.8,6.52,6.52,0,0,1-1.16.11,5.2,5.2,0,0,1-.74-.05H90.89l-.41,0-1.12.06,0,10.54a30.37,30.37,0,0,0,.09,3.82A4.28,4.28,0,0,0,90,122.3a2.43,2.43,0,0,0,1.18.3,2.67,2.67,0,0,0,.93-.13,5.69,5.69,0,0,0,1-.8,4,4,0,0,1,.44-.38,5.57,5.57,0,0,1,.93,1l.09.33a6.13,6.13,0,0,1-2.32,2.39,6,6,0,0,1-3.13.85,4.38,4.38,0,0,1-3.52-1.62,7.79,7.79,0,0,1-1.35-5l.1-4.84v-7.88l-.72,0-1.7,0-.29-.08a.84.84,0,0,1-.15-.47c0-.11,0-.52,0-1.23Z M62.19,0a6.94,6.94,0,0,0-2.13.36A5.61,5.61,0,0,1,62.6,3.65c0,.18.08.31.11.49a3.41,3.41,0,0,1,0,.46c.11,2.23-.63,2.51-1.14,3.83a5.09,5.09,0,0,0,.38,5,3.2,3.2,0,0,0,.32.56C61.29,7.57,67,6.6,68.11,4.6c.08-1.76-1.47-2.92-2.7-3.74A6.36,6.36,0,0,0,62.19,0Zm8.67,1.45a2.7,2.7,0,0,0,0,.73c0,.21,0,.46-.06.66a3.57,3.57,0,0,1-.19.61,3.73,3.73,0,0,1-.22.61l-.3.59c-.08.1-.13.2-.21.3l-.17.23c-.13.18-.27.35-.41.51a4.22,4.22,0,0,1-.49.45v0a5.31,5.31,0,0,1-.51.4c-.58.41-1.23.71-1.83,1.1a3,3,0,0,0-.55.38,5.12,5.12,0,0,0-.52.4c-.19.16-.32.31-.49.48a6.54,6.54,0,0,0-.41.51c-.13.18-.27.36-.38.54s-.19.38-.3.58a6,6,0,0,0-.22.59c-.08.22-.13.43-.19.63s0,.23,0,.33,0,.2-.06.3,0,.44,0,.64a3.62,3.62,0,0,0,0,.46,2.45,2.45,0,0,0,.09.63,4.42,4.42,0,0,0,.13.61c.08.2.14.4.22.61l.19.35-6.27-2.26c-1.07-.28-2.1-.53-3.17-.76l-1.71-.38c-1.64-.3-3.31-.53-5-.68,0,0-.08,0-.14,0-1.63-.15-3.24-.23-4.88-.23-1.2,0-2.4.05-3.57.13-1.66.1-3.33.3-5,.56-.41,0-.82.12-1.23.2-.85.15-1.67.33-2.46.51l-1.22.3c-.41.15-.79.33-1.18.49l-.9.38c-.05,0-.11,0-.13.05l-.76.35-.2.08c-.3.13-.6.28-.84.4l-.55.26-.24.13a7.81,7.81,0,0,0-.71.38,5,5,0,0,0-.66.38,5.59,5.59,0,0,0-.54.35s-.06,0-.08.05a6,6,0,0,0-.52.36l-.06.05-.41.3a1.4,1.4,0,0,1-.16.1l-.41.34c0,.05-.08.07-.11.1s-.33.27-.49.43c0,0,0,0-.05.05s-.33.28-.5.43c0,0,0,0-.05,0l-.41.41c0,.05-.14.1-.19.15l-.46.46s-.08.07-.11.12c-.22.21-.41.41-.63.61l-.08.08a16.4,16.4,0,0,1-1.39,1.24,15.71,15.71,0,0,1-1.53,1.12c-.54.35-1.06.66-1.64,1a16.88,16.88,0,0,1-1.72.77,17.53,17.53,0,0,1-1.77.6,30.66,30.66,0,0,1-3.32.74,5.4,5.4,0,0,0-.69.08l-.68.15-.66.23a7.08,7.08,0,0,0-.65.28c-.19.12-.41.22-.6.35a4.63,4.63,0,0,0-.54.43,5,5,0,0,0-.55.46c-.16.18-.33.33-.46.51a6.87,6.87,0,0,0-.41.58,4,4,0,0,0-.39.59c-.11.22-.21.43-.3.66s-.16.43-.24.66a4.34,4.34,0,0,0-.14.6s0,.06,0,.08c-.06.23-.06.53-.09.69a4.45,4.45,0,0,0,0,.5A1.31,1.31,0,0,0,0,33a2,2,0,0,0,.11.48A2.16,2.16,0,0,0,.33,34v0a5.11,5.11,0,0,0,.3.46A4.58,4.58,0,0,0,1,34.9c.14.13.3.28.47.41a4.16,4.16,0,0,0,.51.41,6.31,6.31,0,0,0,1.67,1.11c.13.08.27.13.43.21l.09,0a.3.3,0,0,0,0,.13,4.84,4.84,0,0,0,.14.61,2.75,2.75,0,0,0,.22.61c.08.15.13.3.21.45a.36.36,0,0,0,.09.13l.32.56c.14.18.28.35.41.53s.3.33.47.48a5.66,5.66,0,0,0,.52.43.07.07,0,0,0,0,0c.17.13.33.26.49.36a6.73,6.73,0,0,0,.6.33,5.2,5.2,0,0,0,.63.28,3.81,3.81,0,0,0,.54.17s.06,0,.11.05l.36.08a9.38,9.38,0,0,0,.11,3.12c.24.51,1.44-1,2.64-2.81a14.6,14.6,0,0,0,0,4.41c.3.64,1.94-1.34,3.36-3.53,19.34-4.16,37,8.28,38.84,25.84-.36-2.74-4-4.26-5.65-3.88a13.28,13.28,0,0,1-4.44,5.79,15.26,15.26,0,0,0-.27-5.08,16.11,16.11,0,0,1-3.39,6.4A7.84,7.84,0,0,1,34,69.81c-.11-.08-.14-.23-.22-.33s-.16-.36-.22-.54a1.7,1.7,0,0,1-.16-.53,3.32,3.32,0,0,1,0-.56v-.38a3.46,3.46,0,0,1,.14-.53,3.86,3.86,0,0,1,.19-.54c.11-.17.19-.35.32-.53.47-1.22.47-2.21-.38-2.79a2.51,2.51,0,0,0-.52-.25,3.57,3.57,0,0,0-.35-.1l-.22-.08c-.19,0-.38-.1-.57-.13a2.3,2.3,0,0,0-.58-.07,4.07,4.07,0,0,0-.6-.06l-.4,0a2.29,2.29,0,0,0-.6.08,3.91,3.91,0,0,0-.58.1,4.17,4.17,0,0,0-.57.18l-.55.22c-.16.08-.32.18-.51.26C21.22,67.12,25,76.15,29.35,78.77a14.31,14.31,0,0,0-3.76.94l-.06.05a26.18,26.18,0,0,0,3.68,1.7c1.75.53,3.6,1,4.42,1.22v0a28.3,28.3,0,0,0,6.88.46c12.08-.79,22-9.34,23.78-20.61.06.23.11.43.16.66.09.45.19.94.25,1.42v0c0,.23.08.46.11.66v.11a5.14,5.14,0,0,1,0,.66,7.54,7.54,0,0,1,.06.83v.41c0,.13,0,.28,0,.41s0,.3,0,.45v.36c0,.18,0,.33,0,.51a1.23,1.23,0,0,1,0,.32c0,.18,0,.36,0,.56a.63.63,0,0,0,0,.23c0,.21-.06.38-.08.59a.63.63,0,0,1,0,.23c0,.25-.08.48-.11.73v.05l-.16.71v.08c-.06.23-.11.45-.17.68,0,0,0,.08,0,.11-.06.22-.11.45-.19.68v.08a5.7,5.7,0,0,0-.22.71.06.06,0,0,0,0,0c-.08.25-.16.51-.25.76s-.19.48-.3.74-.19.51-.3.73-.22.49-.32.74h0a7.9,7.9,0,0,1-.36.71.61.61,0,0,1-.08.18s0,0,0,.07a24.47,24.47,0,0,1-7.67,8.53c-.22.13-.44.28-.65.43s-.14.08-.19.13a6.86,6.86,0,0,1-.6.38l.08.15h0l1.14-.15h0c.71-.1,1.42-.23,2.13-.35.19,0,.41-.08.6-.13l.38-.08c.19,0,.38-.07.57-.1s.33-.07.49-.12A54.19,54.19,0,0,0,66.36,85,43.15,43.15,0,0,1,49.42,97.91a47.72,47.72,0,0,0,9.3-1.5A43.1,43.1,0,0,0,84.5,77.24a39.12,39.12,0,0,1-7.34,16.33,42.73,42.73,0,0,0,7.29-5.64A39.21,39.21,0,0,0,95.93,66.35a37.63,37.63,0,0,1,.79,12.24c19.69-25.56,1.64-52.06-5.92-59,0-.05,0-.08,0-.13s0,0,0,0,0,0,0,0c0,.3,0,.61,0,.91-.08.59-.16,1.14-.27,1.7s-.3,1.12-.47,1.68-.41,1.09-.65,1.62-.52,1-.82,1.55-.63,1-1,1.45-.74.94-1.12,1.37-.85.86-1.28,1.27c-.28.23-.52.43-.8.63s-.4.34-.62.51a13.36,13.36,0,0,1-1.53,1,16.57,16.57,0,0,1-1.61.86c-.57.26-1.14.49-1.72.72s-1.17.37-1.77.53-1.23.28-1.83.38-1.25.15-1.85.2c-.44,0-.87.05-1.31.05-.63,0-1.26-.05-1.86-.1a16.14,16.14,0,0,1-1.85-.25,13.94,13.94,0,0,1-1.83-.44h0c.6,0,1.21-.1,1.81-.2s1.22-.23,1.82-.38,1.2-.33,1.78-.53a16.53,16.53,0,0,0,1.71-.71c.58-.25,1.09-.54,1.64-.84s1-.66,1.53-1a15.42,15.42,0,0,0,1.39-1.15A15,15,0,0,0,79.4,29c.41-.46.79-.92,1.14-1.37.06-.08.11-.18.17-.26.27-.4.54-.81.79-1.22a17.44,17.44,0,0,0,.82-1.54c.25-.53.46-1.07.66-1.63s.32-1.09.46-1.65.22-1.14.27-1.7.11-1.17.11-1.73c0-.4,0-.8-.06-1.21-.05-.59-.13-1.15-.21-1.7s-.25-1.15-.41-1.7-.38-1.1-.6-1.63a16.27,16.27,0,0,0-.77-1.57c-.3-.51-.6-1-.93-1.5s-.7-.94-1.08-1.4-.82-.86-1.26-1.29c-.22-.2-.46-.43-.71-.63C76.56,4.37,75.28,3.53,74,2.77c-.19-.1-.36-.18-.55-.26A10.9,10.9,0,0,0,70.86,1.45Z"/>
</svg>
