<svg xmlns="http://www.w3.org/2000/svg" viewBox="0 0 128 128"><path fill="#DF234F" d="M25.7 44v.4c0 1-.3 1.1-.5 1.7-.3.7-.2 1.6.2 2.2 0 .1.1.2.1.2-.4-2.8 1.9-3.3 2.4-4.1 0-.8-.6-1.3-1.1-1.6-.5-.3-.9-.4-1.3-.4-.3 0-.6.1-.9.2.6.4.9.9 1.1 1.4z"/><path fill="#DF234F" d="M37.2 51v.4c0 .3-.1.5-.1.7-.1.2-.1.5-.2.7-.1.2-.2.5-.3.7-.1.2-.2.5-.3.7-.1.2-.3.4-.4.6-.1.2-.3.4-.5.6-.2.2-.3.4-.5.6l-.3.3c-.1.1-.2.1-.3.2-.2.2-.4.3-.6.4-.2.1-.4.3-.7.4-.2.1-.5.2-.7.3-.2.1-.5.2-.7.2-.2.1-.5.1-.7.2-.3 0-.5.1-.8.1h-1.3c-.3 0-.5-.1-.8-.1-.3 0-.5-.1-.7-.2.2 0 .5 0 .7-.1.3 0 .5-.1.7-.2.2-.1.5-.1.7-.2.2-.1.5-.2.7-.3.2-.1.4-.2.7-.4.2-.1.4-.3.6-.4.2-.2.4-.3.6-.5l.5-.5c.2-.2.3-.4.5-.6 0 0 0-.1.1-.1.1-.2.2-.4.3-.5.1-.2.2-.4.3-.7.1-.2.2-.5.3-.7.1-.2.1-.5.2-.7 0-.3.1-.5.1-.7v-.8-.5c0-.3-.1-.5-.1-.7 0-.3-.1-.5-.2-.7-.1-.2-.2-.5-.2-.7-.1-.2-.2-.5-.3-.7-.1-.2-.2-.4-.4-.7-.1-.2-.3-.4-.4-.6-.2-.2-.3-.4-.5-.6l-.3-.3c-.5-.4-1-.8-1.6-1.1-.1 0-.1-.1-.2-.1-.4-.2-.7-.4-1.1-.5v.6c0 .1 0 .2-.1.3 0 .1-.1.2-.1.3 0 .1-.1.2-.1.3l-.1.1s0 .1-.1.1c-.1.1-.1.2-.2.2l-.2.2-.2.2c-.2.2-.5.3-.7.5-.1.1-.2.1-.2.2l-.2.2-.2.2-.2.2c-.1.1-.1.2-.2.2 0 .1-.1.2-.1.3 0 .1-.1.2-.1.3 0 .1-.1.2-.1.3v1c0 .1 0 .2.1.3 0 .1.1.2.1.3 0 .1.1.1.1.2l-2.6-1c-.4-.1-.9-.2-1.3-.3-.2-.1-.5-.1-.7-.2-.7-.1-1.4-.2-2-.3h-.1c-.7-.1-1.3-.1-2-.1-.5 0-1 0-1.5.1-.7 0-1.4.1-2 .2-.2 0-.3.1-.5.1-.3.1-.7.1-1 .2-.2 0-.3.1-.5.1-.2.1-.3.1-.5.2-.1.1-.2.1-.4.2H11c-.1.1-.2.1-.3.2h-.1c-.1.1-.2.1-.3.2-.1 0-.2.1-.2.1s-.1 0-.1.1c-.1.1-.2.1-.3.2-.1.1-.2.1-.3.2-.1.1-.2.1-.2.2-.1 0-.1.1-.2.2-.1 0-.1.1-.2.1h-.1c-.1 0-.1.1-.2.1l-.2.2-.2.2c-.1-.2-.1-.2-.2-.1 0 0-.1 0-.1.1l-.2.2v.1l-.3.3c-.2.2-.4.4-.6.5-.2.2-.4.3-.6.5-.2.2-.4.3-.7.4-.2.1-.4.2-.7.3-.2.1-.5.2-.7.3-.5.1-1 .3-1.4.3h-.3c-.1 0-.2 0-.3.1 0 .1-.1.1-.2.1s-.2.1-.3.1c-.1.1-.2.1-.2.2-.1.1-.2.1-.2.2-.1.1-.2.1-.2.2l-.2.2c-.1.1-.1.2-.2.3-.1.1-.1.2-.2.3 0 .1-.1.2-.1.3 0 .1-.1.2-.1.3 0 .1 0 .2-.1.3v.8c0 .1 0 .1.1.2 0 .1.1.1.1.2s.1.1.1.2l.2.2.2.2c.3.2.3.3.7.5.1 0 .1.1.2.1v.1c0 .1 0 .2.1.3 0 .1.1.2.1.3 0 .1.1.1.1.2v.1c0 .1.1.2.1.2.1.1.1.2.2.2l.2.2.2.2.2.2c.1.1.2.1.2.1.1 0 .2.1.3.1h.4v1.4c.3.3.8-.4 1.3-1.2-.1.8-.1 1.7 0 1.9.1.3.8-.6 1.4-1.6 7.9-1.8 15.2 3.6 15.9 11.4-.1-1.2-1.6-1.9-2.3-1.7-.3.8-.9 1.9-1.8 2.5.1-.7 0-1.5-.1-2.2-.2 1-.7 2-1.4 2.8-1.1.1-2.1-.4-2.7-1.2l-.1-.1c0-.1-.1-.2-.1-.2 0-.1-.1-.2-.1-.2v-.2-.2c0-.1 0-.2.1-.2 0-.1 0-.2.1-.2 0-.1.1-.2.1-.2.2-.5.2-1-.2-1.2-.1 0-.1-.1-.2-.1h-.1-.1c-.1 0-.2 0-.2-.1h-1c-.1 0-.2 0-.2.1-.1 0-.1.1-.2.1s-.1.1-.2.1c-2.9 1.5-1.3 5.5.4 6.6-.7.1-1.4.3-1.5.4.5.3 1 .5 1.5.7.7.2 1.5.4 1.8.5.9.2 1.9.3 2.8.2 5-.3 9-4.1 9.8-9.1 0 .1 0 .2.1.3 0 .2.1.4.1.6V73.8c0 .1 0 .2-.1.3 0 .1 0 .2-.1.3 0 .1 0 .2-.1.3 0 .1-.1.2-.1.3 0 .1-.1.2-.1.3 0 .1-.1.2-.1.3 0 .1-.1.2-.1.3 0 .1-.1.2-.1.3 0 .1-.1.2-.1.3v.1c-.7 1.5-1.8 2.8-3.1 3.8-.1.1-.2.1-.3.2 0 0-.1 0-.1.1-.1.1-.2.1-.2.2v.1c.2 0 .3 0 .5-.1.3 0 .6-.1.9-.2.1 0 .2 0 .2-.1h.4c.1 0 .1 0 .2-.1 1.1-.3 2.2-.6 3.2-1.1-1.8 2.4-4.2 4.4-6.9 5.7 1.3-.1 2.6-.3 3.8-.7 4.5-1.3 8.3-4.4 10.6-8.4-.5 2.6-1.5 5-3 7.2 1.1-.7 2.1-1.5 3-2.5 2.5-2.6 4.1-5.9 4.7-9.5.4 1.8.5 3.6.3 5.4 7.8-10.8.4-22.5-2.7-25.6zM75.2 71c.4-10.3-.4-11.2-.4-11.2-4.5-7.3-11.9 0-11.9 0v-4.2h-1.1c-1.5 2.7-5.8 3.2-5.8 3.2v1.1c2.8.6 2.5 1.9 2.5 1.9s.1 6.7.1 8.8c0 2.1-.7 1.7-.7 1.7l-1.9.4v1.2c2-.6 9.1 0 9.1 0l.1-1.2c-2.1-.3-2.3-1.6-2.3-1.6v-9.9c1.9-1.7 3.7-2.3 3.7-2.3 3.7-.9 4 2.7 4 2.7l.1 9.1c.7 2.4-2.8 2-2.8 2l.1 1.2 5.5-.4 3.7.4v-1.2c-1.8-.3-1.9-.3-2-1.7zM88.2 56.2c-8 0-8.4 7.2-8.4 7.2s-1.4 10.9 8.4 10.9c6.3 0 8.2-3.6 8.2-3.6l-1.2-1.1s-9.4 6.8-10.6-6.1h11.9c-.1-.1-.3-7.3-8.3-7.3zm3.7 5.9h-7.4v-.5c0-2.1 1.7-3.9 3.9-3.9 1.9 0 3.5 1.6 3.5 3.5v.9zM109.4 63.7c-2.7-.5-4.5-1.2-4.5-1.2s-4.2-1.7-.5-4.2c4.1-2.1 6.5 3.9 6.5 3.9s.9.2 1.5-.3c.2-.6-.5-4.2-.5-4.2s-1.3-1.6-7.8-1.1c0 0-3.5.8-4.1 4.1-.6 3.3 1.5 5.1 1.5 5.1s.9 1.3 4 1.6c2.7.3 3.9 1.4 3.9 1.4s1.4 1.3-.1 2.9c-1.5 1.6-3.5 1-3.5 1s-2.3.1-5-4.6l-1.3.1.5 4.7s6.4 3.6 11.3 0c5-4.5.8-8.7-1.9-9.2zM127.1 70.6c-3.1 2.6-3.7-.5-3.7-.5V59.5h4.2v-2h-4v-4.3h-1.3c-1.8 3.8-5.8 5.1-5.8 5.1v.8c0 .5.4.5.4.5h2s-.2 7.7-.1 10.4 2 3.5 2 3.5 1.3.7 3.4.5c2.1-.2 3.6-2.3 3.6-2.3l-.7-1.1z"/></svg>