<svg xmlns="http://www.w3.org/2000/svg" viewBox="0 0 128 128"><path d="M43.408 68.698v-.325h-2.773v.366c.173 4.125 2.946 6.857 7.893 6.857 4.714 0 7.924-2.448 7.924-6.156a5.08 5.08 0 0 0-2.032-4.399 10.707 10.707 0 0 0-4.256-1.605l-.386-.091-.437-.092c-3.667-.772-4.836-1.442-4.836-3.433 0-1.991 1.687-3.373 4.51-3.373a4.216 4.216 0 0 1 4.562 4.317v.346h2.702v-.356c-.101-4.124-2.864-6.908-7.334-6.908s-7.294 2.652-7.294 6.096a4.876 4.876 0 0 0 2.031 4.327 10.697 10.697 0 0 0 4.267 1.463l.315.061.315.061a11.175 11.175 0 0 1 3.606 1.087 2.773 2.773 0 0 1 1.463 2.641c0 2.184-1.839 3.424-5.08 3.424-3.24 0-4.946-1.544-5.16-4.308zM62.222 53.46v-.355H59.5V75.18h2.732v-4.145l2.875-2.804 5.13 6.817.112.142h3.393l-.437-.569-6.257-8.249 5.78-5.75.61-.61h-3.719l-.101.102-7.386 7.437zm25.519 15.035h.335v-1.128c0-4.46-2.956-7.75-7.324-7.75s-7.467 3.504-7.467 7.923c0 4.42 2.966 7.954 7.497 7.954a7.111 7.111 0 0 0 7.03-5.079l.142-.457h-2.793l-.082.234a4.328 4.328 0 0 1-4.216 2.804 4.704 4.704 0 0 1-4.754-4.47zm-11.55-2.316a4.602 4.602 0 0 1 4.622-3.982 4.389 4.389 0 0 1 4.52 3.982zm20.906-3.759h.356v-2.417H94.12v-4.125h-2.692v4.125h-2.804v2.417h2.804v8.524c0 2.793 1.452 4.307 4.063 4.307a8.808 8.808 0 0 0 1.209-.071l.427-.082.264-.07v-2.53l-.427.091h-.386a5.994 5.994 0 0 1-.752.071h-.07c-1.17 0-1.636-.548-1.636-1.92v-8.32zm8.493 13.115a6.969 6.969 0 0 0 7.111-5.78l.081-.427h-2.753l-.07.264a4.267 4.267 0 0 1-4.38 3.404c-2.803 0-4.733-2.215-4.733-5.395 0-3.18 1.93-5.414 4.734-5.414a4.267 4.267 0 0 1 4.378 3.403l.071.264h2.733l-.081-.427a6.969 6.969 0 0 0-7.111-5.78c-4.389 0-7.498 3.525-7.498 7.954 0 4.43 3.13 7.934 7.508 7.934zm12.19-22.034v-.356h-2.732V75.18h2.793v-8.9a3.779 3.779 0 0 1 3.993-4.134c2.296 0 3.454 1.33 3.454 3.85v9.184H128V65.6c0-3.566-2.204-5.933-5.841-5.933a5.984 5.984 0 0 0-4.318 1.666z"/><path fill="#fdb300" d="m7.111 50.403 9.143-.955 9.143.955 7.11 9.427-16.253 18.733L0 59.83Z"/><path fill="#ea6c00" d="m6.573 59.83 9.65 18.733L0 59.83Zm19.301 0-9.65 18.733L32.447 59.83z"/><path fill="#fdad00" d="M6.573 59.83h19.301l-9.65 18.733z"/><path fill="#fdd231" d="m16.224 49.438-9.143.964-.508 9.428Zm0 0 9.142.964.508 9.428z"/><path fill="#fdad00" d="m32.447 59.83-7.08-9.428.507 9.428zM0 59.83l7.08-9.428-.507 9.428z"/><path fill="#feeeb7" d="M16.224 49.438 6.573 59.83h19.301Z"/></svg>
