<svg xmlns="http://www.w3.org/2000/svg" viewBox="0 0 128 128"><path fill="#fdad00" d="m16.41 49.252-9.127.953-.015.01-.026.002-.025.027-.108.063-.002.002-.007-.002L0 59.72l.01.02v.294l16.197 18.713h.387L32.86 60.035v-.314l-7.1-9.414-.171-.102-5.44-.564-3.718-.389-.002.002-.02-.002zm-.68.607-8.642 9.295.455-8.433 8.188-.862zm1.358.006 8.201.858.457 8.457-8.658-9.315zm-.682.016 8.936 9.613.115.125H7.344l9.062-9.738zm9.43 1.437 6.223 8.258.023.031h-5.803l-.443-8.289zm-18.87.01-.445 8.291H.712l6.256-8.29zm52.641 1.83v22.04h2.729v-4.14l2.871-2.798 5.121 6.806.113.141h3.387l-.435-.568-6.248-8.235 5.771-5.742.607-.607h-3.71l-.102.101-7.375 7.424-.01-14.068v-.354h-2.719zm55.461.04v22h2.79v-8.885a3.773 3.773 0 0 1 3.986-4.13c2.292 0 3.447 1.33 3.447 3.846v9.168H128v-9.564c0-3.56-2.201-5.924-5.832-5.924a5.974 5.974 0 0 0-4.31 1.664l-.061-7.82v-.356h-2.729zm-65.998.7c-4.462 0-7.283 2.648-7.283 6.086a4.869 4.869 0 0 0 2.03 4.32 10.68 10.68 0 0 0 4.26 1.462l.314.06.314.06a11.157 11.157 0 0 1 3.6 1.087 2.769 2.769 0 0 1 1.46 2.636c0 2.181-1.834 3.418-5.07 3.418s-4.939-1.542-5.152-4.3v-.325h-2.77v.366c.173 4.118 2.942 6.845 7.881 6.845 4.706 0 7.912-2.444 7.912-6.146a5.071 5.071 0 0 0-2.029-4.393 10.69 10.69 0 0 0-4.25-1.601l-.385-.092-.437-.092c-3.662-.77-4.826-1.44-4.826-3.428s1.682-3.367 4.502-3.367a4.21 4.21 0 0 1 4.554 4.31v.346h2.698v-.355c-.102-4.118-2.86-6.897-7.323-6.897zm42.416 2.028v4.119h-2.799v2.414h2.8v8.51c0 2.789 1.45 4.299 4.056 4.299a8.794 8.794 0 0 0 1.207-.07l.426-.08.263-.073V72.52l-.425.091h-.385a5.984 5.984 0 0 1-.75.07h-.072c-1.167 0-1.633-.546-1.633-1.915v-8.307h3.328v-2.414h-3.328v-4.12h-2.688zm-10.66 3.732c-4.361 0-7.455 3.5-7.455 7.912s2.963 7.942 7.486 7.942a7.1 7.1 0 0 0 7.018-5.07l.143-.458h-2.79l-.082.233a4.32 4.32 0 0 1-4.209 2.8 4.696 4.696 0 0 1-4.746-4.462l11.614-.032h.334v-1.125c0-4.452-2.951-7.74-7.313-7.74zm24.78.032c-4.382 0-7.487 3.519-7.487 7.94 0 4.423 3.125 7.923 7.496 7.923h.01a6.958 6.958 0 0 0 7.1-5.772l.082-.425h-2.748l-.073.263a4.26 4.26 0 0 1-4.37 3.399c-2.8 0-4.727-2.212-4.727-5.387 0-3.175 1.927-5.406 4.726-5.406a4.26 4.26 0 0 1 4.371 3.398l.073.264h2.726l-.08-.426a6.958 6.958 0 0 0-7.1-5.772zM.76 60.125h5.853l8.59 16.686L.76 60.125zm6.422 0h18.437l-9.203 17.873-9.234-17.873zm19.005 0h5.854L17.598 76.811l8.59-16.686zm54.7 2.11A4.382 4.382 0 0 1 85.4 66.21h-9.127a4.595 4.595 0 0 1 4.614-3.977z"/></svg>
