<svg id="Sketch" xmlns="http://www.w3.org/2000/svg" viewBox="0 0 128 128"><g id="line-wordmark"><path fill="#fdad00" d="M43.73,68.62l0-.32H41v.36c.17,4.06,2.9,6.75,7.77,6.75,4.64,0,7.8-2.41,7.8-6.06a5,5,0,0,0-2-4.33,10.54,10.54,0,0,0-4.19-1.58L50,63.35l-.43-.09c-3.61-.76-4.76-1.42-4.76-3.38s1.66-3.32,4.44-3.32a4.15,4.15,0,0,1,4.49,4.25v.34H56.4V60.8C56.3,56.74,53.58,54,49.18,54S42,56.61,42,60a4.8,4.8,0,0,0,2,4.26A10.53,10.53,0,0,0,48.2,65.7l.31.06.31.06a11,11,0,0,1,3.55,1.07,2.73,2.73,0,0,1,1.44,2.6c0,2.15-1.81,3.37-5,3.37S43.94,71.34,43.73,68.62Zm18.52-15v-.35H59.57V75h2.69V70.92l2.83-2.76,5.05,6.71.11.14h3.34l-.43-.56L67,66.33l5.69-5.66.6-.6H69.63l-.1.1-7.27,7.32Zm25.12,14.8h.33l0-.33c0-.06,0-.15,0-.27s0-.18,0-.26,0-.17,0-.25c0-4.39-2.91-7.63-7.21-7.63s-7.35,3.45-7.35,7.8,2.92,7.83,7.38,7.83a7,7,0,0,0,6.92-5l.14-.45H84.83l-.08.23a4.26,4.26,0,0,1-4.15,2.76,4.63,4.63,0,0,1-4.68-4.4ZM76,66.14a4.53,4.53,0,0,1,4.55-3.92A4.32,4.32,0,0,1,85,66.14Zm20.58-3.7h.35V60.06H93.65V56H91v4.06H88.24v2.38H91v8.39c0,2.75,1.43,4.24,4,4.24A8.67,8.67,0,0,0,96.19,75l.42-.08.26-.07V72.36l-.42.09-.1,0-.28,0a5.9,5.9,0,0,1-.74.07h-.07c-1.15,0-1.61-.54-1.61-1.89V62.44Zm8.36,12.91a6.86,6.86,0,0,0,7-5.69l.08-.42h-2.71l-.07.26a4.2,4.2,0,0,1-4.31,3.35c-2.76,0-4.66-2.18-4.66-5.31s1.9-5.33,4.66-5.33a4.2,4.2,0,0,1,4.31,3.35l.07.26H112l-.08-.42a6.86,6.86,0,0,0-7-5.69c-4.32,0-7.38,3.47-7.38,7.83S100.62,75.35,104.93,75.35Zm12-21.69v-.35h-2.69V75H117V66.24a3.72,3.72,0,0,1,3.93-4.07c2.26,0,3.4,1.31,3.4,3.79V75H127V65.57c0-3.51-2.17-5.84-5.75-5.84A5.89,5.89,0,0,0,117,61.37Z"/><path fill="#fdad00" d="M17.16,78.5h-.38L.81,60.05v-.31l7-9.28.17-.1,9-.94,9.05.94.17.1,7,9.28v.31ZM1.32,59.88,17,78,32.62,59.88l-6.78-9-8.89-.93-8.84.93Z"/><path fill="#fdad00" d="M16.78,78.5.81,60.05,1,59.64H7.47l.22.14,9.5,18.45ZM1.55,60.14,15.79,76.59,7.32,60.14Z"/><path fill="#fdad00" d="M17.16,78.5l-.41-.28,9.5-18.45.22-.14h6.47l.19.41Zm9.46-18.36L18.15,76.59,32.39,60.14Z"/><path fill="#fdad00" d="M16.75,78.45,7.25,60l.22-.36h19l.22.36-9.5,18.45ZM7.88,60.14,17,77.79l9.09-17.65Z"/><path fill="#fdad00" d="M7.65,60.06l-.43-.18.5-9.28.22-.23,9-.94.21.42Zm.56-9.22-.45,8.38L16.33,50Z"/><path fill="#fdad00" d="M26.29,60.06l-9.5-10.22.21-.42,9,.94.22.23.5,9.28ZM17.61,50l8.58,9.23-.45-8.38Z"/><path fill="#fdad00" d="M32.94,60.14H26.47l-.25-.24-.5-9.28.45-.16,7,9.28Zm-6.23-.5h5.73l-6.17-8.22Z"/><path fill="#fdad00" d="M7.47,60.14H1l-.2-.4,7-9.28.45.16-.5,9.28Zm-6-.5H7.23l.44-8.22Z"/><path fill="#fdad00" d="M26.47,60.14h-19l-.18-.42,9.5-10.22h.37l9.5,10.22ZM8,59.64H25.9L17,50Z"/></g></svg>