<svg viewBox="0 0 128 128"> <path fill="#005ba1" d="M17.547 14.15a17.603 17.603 0 0 0-8.661 2.982l-.05.033-.041.046a13.868 13.868 0 0 0-3.489 10.77l-.002-.053v25.925c0 2.216-.425 3.823-1.205 4.845-.78 1.02-1.917 1.533-3.603 1.533H0v7.566h.496c1.686 0 2.827.514 3.607 1.51.78.994 1.201 2.542 1.201 4.643v26.372l.004-.057A13.193 13.193 0 0 0 8.8 110.822l.045.046.052.033c3.256 2.055 7.062 3 10.902 2.859v.058h.794v-.027l.198-.012v-7.653l-.543.052a5.028 5.028 0 0 1-3.89-1.326 8.838 8.838 0 0 1-1.17-4.734V74.92l-.006.072c.64-4.377-1.446-8.617-5.151-10.94 1.627-.817 2.94-1.988 3.77-3.648.954-1.91 1.387-4.337 1.387-7.3v-25.4c0-2.087.498-3.53 1.384-4.458.885-.927 2.203-1.397 4.021-1.397h.496v-7.591l-.442-.049a17.609 17.609 0 0 0-3.1-.06zm89.821.06-.479.036.022.479.321 7.17.52-.048a5.028 5.028 0 0 1 3.89 1.326 8.838 8.838 0 0 1 1.17 4.736v25.196l.006-.072c-.64 4.377 1.446 8.619 5.151 10.942-1.627.816-2.94 1.986-3.77 3.645-.954 1.91-1.387 4.338-1.387 7.3v25.402c0 2.086-.498 3.53-1.384 4.457-.885.927-2.203 1.397-4.02 1.397h-.497v7.597l.45.043a17.532 17.532 0 0 0 11.763-3.151l.045-.033.037-.04a13.944 13.944 0 0 0 3.486-10.848l.004.055V74.174c0-2.216.425-3.823 1.205-4.845.78-1.02 1.917-1.532 3.603-1.532H128V60.23h-.496c-1.686 0-2.827-.515-3.607-1.51-.78-.995-1.201-2.542-1.201-4.643V27.704l-.004.056a13.193 13.193 0 0 0-3.493-10.556l-.044-.047-.052-.033a19.098 19.098 0 0 0-11.735-2.915zm-89.754.93c.823-.057 1.653-.02 2.483.048v5.744c-1.748.09-3.232.57-4.242 1.628-1.113 1.165-1.66 2.897-1.66 5.144v25.4c0 2.866-.425 5.143-1.282 6.857-.857 1.715-2.127 2.884-3.93 3.591l-1.006.394.953.506a10.11 10.11 0 0 1 5.272 10.397l-.006.035v25.195a9.834 9.834 0 0 0 1.337 5.35l.035.061.052.049c1.13 1.072 2.636 1.568 4.178 1.564v5.674c-3.633.141-7.23-.758-10.317-2.692a12.204 12.204 0 0 1-3.188-9.707l.004-.027V73.95c0-2.233-.437-4.01-1.413-5.256-.881-1.125-2.247-1.684-3.892-1.797v-5.77c1.646-.113 3.016-.675 3.896-1.827.975-1.276 1.409-3.106 1.409-5.447V27.9l-.002-.025a12.875 12.875 0 0 1 3.201-9.953 16.613 16.613 0 0 1 8.118-2.783Zm90.314.098c3.726-.192 7.427.708 10.59 2.7a12.204 12.204 0 0 1 3.19 9.71l-.005.026v26.404c0 2.232.437 4.009 1.413 5.255.881 1.125 2.247 1.684 3.892 1.797v5.77c-1.646.113-3.016.675-3.896 1.827-.975 1.276-1.409 3.106-1.409 5.447v25.652l.004.027a12.948 12.948 0 0 1-3.205 10.03c-3.093 2.176-6.834 3.194-10.599 2.946v-5.736c1.748-.09 3.232-.57 4.242-1.628 1.113-1.165 1.66-2.897 1.66-5.143V74.92c0-2.865.425-5.143 1.282-6.857.857-1.714 2.127-2.882 3.93-3.59l1.006-.393-.953-.505a10.11 10.11 0 0 1-5.272-10.4l.006-.035V27.948a9.834 9.834 0 0 0-1.337-5.351l-.035-.062-.052-.049c-1.134-1.076-2.648-1.575-4.198-1.565zM50.926 20.26a3.342 3.342 0 0 0-3.335 3.246v25.116a3.268 3.268 0 0 0 3.349 3.262h8.903v7.273a.841.841 0 0 1-.849.849H34.116a3.193 3.193 0 0 0-3.186 3.186v11.905h-5.407a2.518 2.518 0 0 0-2.511 2.513v17.93a2.518 2.518 0 0 0 2.511 2.514h17.932a2.518 2.518 0 0 0 2.512-2.513V77.61a2.518 2.518 0 0 0-2.512-2.514h-4.81v-6.378c0-.456.348-.822.803-.847H88.28a.84.84 0 0 1 .849.847v6.527h-5.332a2.52 2.52 0 0 0-2.513 2.514v17.93a2.52 2.52 0 0 0 2.513 2.513h17.93a2.52 2.52 0 0 0 2.514-2.513V77.76a2.52 2.52 0 0 0-2.513-2.514H96.77V63.192a3.193 3.193 0 0 0-3.097-3.186H68.407a.84.84 0 0 1-.847-.849v-7.273h8.442a3.269 3.269 0 0 0 3.436-3.262V23.506a3.343 3.343 0 0 0-3.423-3.246zm0 .992h25.117a2.335 2.335 0 0 1 2.403 2.281v25.09a2.26 2.26 0 0 1-2.39 2.268h-9.488v8.266c0 1.01.829 1.84 1.839 1.841h25.24c1.193.033 2.133 1 2.132 2.194v11.98h-5.657V68.72a1.849 1.849 0 0 0-1.841-1.84H39.393a1.848 1.848 0 0 0-1.74 1.84v6.304h-5.73V63.192c0-1.218.976-2.194 2.193-2.194h24.878c1.011 0 1.841-.83 1.841-1.841v-8.266h-9.922a2.26 2.26 0 0 1-2.33-2.269V23.533a2.336 2.336 0 0 1 2.343-2.281zm4.183 4.163a2.372 2.372 0 0 0-2.363 2.364v16.679a2.371 2.371 0 0 0 2.363 2.27h16.66a2.37 2.37 0 0 0 2.365-2.27v-.014l-.299-16.665a2.37 2.37 0 0 0-2.364-2.364zm0 .992H71.47c.764 0 1.372.608 1.372 1.372v.004l.298 16.638c-.03.74-.63 1.316-1.372 1.315H55.11a1.364 1.364 0 0 1-1.37-1.317v-16.64c0-.763.606-1.371 1.37-1.372zM25.523 76.089h17.932c.852 0 1.52.67 1.52 1.521v17.93c0 .852-.668 1.522-1.52 1.522H25.523c-.85 0-1.52-.67-1.52-1.521V77.61c0-.852.67-1.522 1.52-1.522zm58.275.15h17.93c.852 0 1.522.67 1.522 1.52v17.93c0 .852-.67 1.522-1.521 1.522h-17.93c-.852 0-1.522-.67-1.522-1.521V77.76c0-.852.67-1.522 1.521-1.522zm-63.2 36.89.189.189-.19.184z" /> </svg>