<svg xmlns="http://www.w3.org/2000/svg" viewBox="0 0 128 128"><path fill="#141416" d="M21.008 39.273.006 57.346v.023L0 57.365l.016 4.711V67.014l.002.002-.006 4.29 21.468 17.31v.013l.01-.008.13.106.222-.237v-.15l21.195-16.93-.006-4.578v-.254l.006-4.65-.006.006-.006-4.565-.006.004v-.027zm-6.574 11.518s10.162.324 12.863 2.637c2.701 2.313 3.084 6.385.855 9.095-2.229 2.711-6.226 3.032-8.927.72-2.702-2.314-4.791-12.452-4.791-12.452zm40.48.746 6.963 19.64h3.064l6.963-19.64h-3.441l-5.055 15.361-5.027-15.36Zm22.688 5.102c-3.737 0-6.022 2.99-6.022 7.433 0 4.417 2.285 7.436 6.022 7.436 2.177 0 3.79-1.153 4.677-3.375v3.045h2.61v-14.21h-2.905v2.579c-.86-1.92-2.393-2.908-4.382-2.908zm18.773 0c-2.178 0-3.79 1.153-4.65 3.375v-3.045h-2.608V76.5h2.875v-7.9c.86 1.92 2.394 2.908 4.383 2.908 3.736 0 6.021-2.992 6.021-7.436 0-4.416-2.285-7.433-6.021-7.433zm14.902 0c-3.979 0-6.722 3.017-6.722 7.433 0 4.417 2.743 7.436 6.722 7.436 4.006 0 6.748-3.019 6.748-7.436 0-4.416-2.742-7.433-6.748-7.433zm15.487.109c-1.344 0-2.34.686-2.93 1.701v-1.48h-2.61v14.209h2.878V62.07c0-1.371.94-2.195 2.177-2.195h1.102l.619-2.879a3.024 3.024 0 0 0-1.236-.248zM.197 57.778l21.26 16.98v4.414L.215 62.234Zm42.631.005.006 4.303-1.336 1.09-19.707 15.972c.023-.365.039-1.032.02-2.267-.02-1.304-.04-1.831-.057-2.041a1.078 1.078 0 0 0-.012-.106zm35.42 1.573c2.393 0 3.764 2 3.764 4.716 0 2.689-1.371 4.72-3.764 4.72-2.366 0-3.764-2.031-3.764-4.72 0-2.716 1.398-4.716 3.764-4.716zm17.482 0c2.366 0 3.764 2.028 3.764 4.716 0 2.716-1.398 4.72-3.764 4.72-2.365 0-3.763-2.004-3.763-4.72 0-2.688 1.398-4.716 3.763-4.716zm15.547.082c2.42 0 3.791 1.973 3.791 4.634 0 2.661-1.371 4.637-3.79 4.637-2.394 0-3.764-1.976-3.764-4.637 0-2.66 1.37-4.634 3.763-4.634zM42.84 62.342l-.006 4.394-.918.748-20.063 16.327v-.08l-.013.013-.03-4.258 19.817-16.162zm-42.625.164 21.242 17.05v.217l.012-.01.011 4.096L.215 66.92v-.001zm42.619 4.488.006 4.32-20.996 16.772.01-3.97zm-42.62.18 21.255 17.06.011 4.127L.21 71.213Z"/></svg>
