<svg xmlns="http://www.w3.org/2000/svg" viewBox="0 0 128 128"><defs><clipPath id="podman-plain-a"><path d="M19 61h42v22.336H19zm0 0"/></clipPath><clipPath id="podman-plain-b"><path d="M8.96 55.742h56.58v27.594H8.96zm0 0"/></clipPath><clipPath id="podman-plain-c"><path d="M49 82h5v1.336h-5zm0 0"/></clipPath><clipPath id="podman-plain-d"><path d="M27 82h5v1.336h-5zm0 0"/></clipPath><clipPath id="podman-plain-e"><path d="M17 76h25v7.336H17zm0 0"/></clipPath><clipPath id="podman-plain-f"><path d="M18 77h25v6.336H18zm0 0"/></clipPath><clipPath id="podman-plain-g"><path d="M19 78h24v5.336H19zm0 0"/></clipPath><clipPath id="podman-plain-h"><path d="M23 80h21v3.336H23zm0 0"/></clipPath><clipPath id="podman-plain-i"><path d="M40 76h24v7.336H40zm0 0"/></clipPath><clipPath id="podman-plain-j"><path d="M39 77h24v6.336H39zm0 0"/></clipPath><clipPath id="podman-plain-k"><path d="M38 78h25v5.336H38zm0 0"/></clipPath><clipPath id="podman-plain-l"><path d="M38 80h21v3.336H38zm0 0"/></clipPath><clipPath id="podman-plain-m"><path d="M33 77h15v6.336H33zm0 0"/></clipPath><clipPath id="podman-plain-n"><path d="M22 65h38v18.336H22zm0 0"/></clipPath><clipPath id="podman-plain-o"><path d="M36 62h29.54v21.336H36zm0 0"/></clipPath><clipPath id="podman-plain-p"><path d="M36 57h29.54v26H36zm0 0"/></clipPath><clipPath id="podman-plain-q"><path d="M28 70h29v13.336H28zm0 0"/></clipPath><clipPath id="podman-plain-r"><path d="M24 70h29v13.336H24zm0 0"/></clipPath><clipPath id="podman-plain-s"><path d="M37 80h7v3.336h-7zm0 0"/></clipPath><clipPath id="podman-plain-t"><path d="M26 68h30v15.336H26zm0 0"/></clipPath><clipPath id="podman-plain-u"><path d="M14 62h31v21.336H14zm0 0"/></clipPath></defs><path d="M963.983-1.265h12.722M966.1 1.38h12.721" transform="matrix(2.60096 0 0 2.58929 -2437.947 62.618)" fill="none" stroke-width="1.058" stroke="#000"/><path style="line-height:normal;font-variant-ligatures:normal;font-variant-position:normal;font-variant-caps:normal;font-variant-numeric:normal;font-variant-alternates:normal;font-feature-settings:normal;text-indent:0;text-align:start;text-decoration-line:none;text-decoration-style:solid;text-decoration-color:#000;text-transform:none;text-orientation:mixed;white-space:normal;shape-padding:0;isolation:auto;mix-blend-mode:normal;solid-color:#000;solid-opacity:1" d="M61.002 13.672c-4.976 0-9.816.538-12.935 1.77-.003 0-.009-.002-.012 0-8.26 3.025-14.49 11.161-16.346 20.943v.006c-.002.006-.005.011-.006.017-1.644 7.754-2.076 14.323-2.95 20.263-.876 5.947-2.177 11.25-5.533 16.671l1.758 1.077c3.548-5.731 4.926-11.381 5.82-17.445.892-6.064 1.317-12.557 2.932-20.164v-.023c1.736-9.18 7.597-16.704 15.061-19.425l.012-.005.017-.006c2.601-1.029 7.36-1.619 12.182-1.618 4.816 0 9.755.58 12.794 1.635h.012c7.458 2.726 13.31 10.246 15.038 19.419v.011l.006.012c1.616 7.607 2.039 14.1 2.932 20.164.894 6.064 2.274 11.72 5.825 17.45l1.759-1.082c-3.36-5.421-4.663-10.724-5.539-16.671-.875-5.94-1.31-12.508-2.956-20.263l-.006-.017c-1.852-9.796-8.084-17.944-16.364-20.961h-.018c-3.458-1.203-8.503-1.758-13.483-1.758z" color="#000" font-weight="400" font-family="sans-serif" overflow="visible" fill-rule="evenodd"/><path d="M82.258 51.516c0-1.934-1.492-3.5-3.336-3.5-1.844 0-3.34 1.566-3.34 3.5 0 1.933 1.496 3.5 3.34 3.5 1.844 0 3.336-1.567 3.336-3.5zm-33.727 0c0-1.934-1.496-3.5-3.34-3.5-1.843 0-3.336 1.566-3.336 3.5 0 1.933 1.493 3.5 3.336 3.5 1.844 0 3.34-1.567 3.34-3.5zm0 0" fill="#e7e8e9"/><path style="line-height:normal;font-variant-ligatures:normal;font-variant-position:normal;font-variant-caps:normal;font-variant-numeric:normal;font-variant-alternates:normal;font-feature-settings:normal;text-indent:0;text-align:start;text-decoration-line:none;text-decoration-style:solid;text-decoration-color:#000;text-transform:none;text-orientation:mixed;white-space:normal;shape-padding:0;isolation:auto;mix-blend-mode:normal;solid-color:#000;solid-opacity:1" d="M50.801 48.93l-12.403 3.31.358 1.323 12.403-3.308zm1.24 1.99L39.57 58.1l.684 1.183 12.476-7.174zm.913 2.383L40.307 65.914l.97.967L53.924 54.27zm.42 3.117l-6.469 11.158 1.194.688 6.463-11.159zm20.923-7.49L86.7 52.24l-.353 1.323-12.408-3.308zm-1.24 1.99l12.47 7.18-.684 1.183-12.476-7.174zm-.913 2.383l12.647 12.611-.97.967L71.174 54.27zm-.42 3.117l6.469 11.158-1.194.688-6.463-11.159z" color="#000" font-weight="400" font-family="sans-serif" overflow="visible"/><path style="line-height:normal;font-variant-ligatures:normal;font-variant-position:normal;font-variant-caps:normal;font-variant-numeric:normal;font-variant-alternates:normal;font-feature-settings:normal;text-indent:0;text-align:start;text-decoration-line:none;text-decoration-style:solid;text-decoration-color:#000;text-transform:none;text-orientation:mixed;white-space:normal;shape-padding:0;isolation:auto;mix-blend-mode:normal;solid-color:#000;solid-opacity:1" d="M62.41 37.887c-6.447 0-11.75 4.983-11.75 11.176 0 6.19 5.303 11.176 11.75 11.176 6.452 0 11.748-4.986 11.748-11.176 0-6.193-5.296-11.176-11.748-11.176zm0 2.055c5.393 0 9.686 4.096 9.686 9.121 0 5.022-4.293 9.121-9.686 9.121-5.387 0-9.687-4.1-9.687-9.12 0-5.026 4.3-9.122 9.687-9.122z" color="#000" font-weight="400" font-family="sans-serif" overflow="visible" fill="#60605b"/><path d="M-964.802-7.841c0-.977-.773-1.768-1.725-1.768-.953 0-1.725.791-1.725 1.768 0 .978.772 1.77 1.725 1.77.952 0 1.725-.792 1.725-1.77zm0 0" transform="matrix(-2.99123 0 0 2.9803 -2812.291 63.755)" stroke-width=".69" stroke-linecap="square" stroke="#000"/><path style="line-height:normal;font-variant-ligatures:normal;font-variant-position:normal;font-variant-caps:normal;font-variant-numeric:normal;font-variant-alternates:normal;font-feature-settings:normal;text-indent:0;text-align:start;text-decoration-line:none;text-decoration-style:solid;text-decoration-color:#000;text-transform:none;text-orientation:mixed;white-space:normal;shape-padding:0;isolation:auto;mix-blend-mode:normal;solid-color:#000;solid-opacity:1" d="M79.113 26.065a6.94 6.94 0 00-5.095 1.961l-.742.722 1.443 1.467.736-.716a4.88 4.88 0 013.576-1.38c1.414.07 2.728.75 3.599 1.863l.636.81 1.625-1.264-.631-.809a6.949 6.949 0 00-5.136-2.654h-.006zM61.321 47.262l-.238 4.719c-.23.186-.804.696-1.743 1.013-.555.186-1.107.247-1.593.124-.413-.106-.828-.466-1.25-1.013.028-.217.038-.31.088-.667.087-.624.209-1.374.265-1.597l-2.003-.502c-.119.476-.216 1.17-.306 1.815-.09.644-.155 1.199-.155 1.199l-.047.367.197.31c.728 1.138 1.7 1.828 2.698 2.083.997.254 1.958.1 2.764-.171 1.382-.465 2.103-1.14 2.376-1.375.274.235.99.91 2.37 1.375.808.272 1.768.425 2.766.17.997-.254 1.969-.944 2.697-2.082l.202-.31-.046-.367s-.066-.555-.156-1.2c-.09-.644-.187-1.338-.306-1.814l-2.002.502c.056.223.177.973.264 1.597.05.358.061.45.088.667-.422.547-.837.907-1.25 1.013-.485.123-1.038.062-1.592-.124-.94-.317-1.513-.827-1.743-1.013l-.239-4.72-1.053.052z" color="#000" font-weight="400" font-family="sans-serif" overflow="visible"/><path style="line-height:normal;font-variant-ligatures:normal;font-variant-position:normal;font-variant-caps:normal;font-variant-numeric:normal;font-variant-alternates:normal;font-feature-settings:normal;text-indent:0;text-align:start;text-decoration-line:none;text-decoration-style:solid;text-decoration-color:#000;text-transform:none;text-orientation:mixed;white-space:normal;shape-padding:0;isolation:auto;mix-blend-mode:normal;solid-color:#000;solid-opacity:1" d="M62.41 42.73c-.756 0-1.378.228-1.893.402-.515.173-.929.29-1.245.29-.566 0-1.117.314-1.42.676-.301.362-.439.74-.549 1.094-.218.707-.33 1.417-.426 1.67-.222.573-.011 1.03.164 1.328.174.297.39.533.63.774.483.483 1.09.964 1.706 1.415 1.232.9 2.49 1.664 2.49 1.664l.537.332.543-.332s1.26-.763 2.495-1.664c.617-.45 1.223-.932 1.706-1.415.241-.241.455-.477.63-.774.175-.296.388-.752.17-1.321-.097-.252-.206-.968-.426-1.677-.11-.354-.253-.732-.555-1.094-.303-.362-.854-.675-1.42-.675-.316 0-.728-.118-1.245-.291-.516-.174-1.135-.402-1.892-.402zm0 2.055c.307 0 .715.117 1.232.29.476.16 1.072.342 1.753.373.022.034.088.144.152.35.112.36.223.908.38 1.443a2.242 2.242 0 01-.24.274c-.341.341-.894.787-1.466 1.205-.88.642-1.435.975-1.811 1.21-.375-.234-.931-.567-1.812-1.21-.57-.418-1.125-.864-1.466-1.205-.128-.128-.183-.205-.234-.274.157-.535.263-1.083.374-1.443a1.39 1.39 0 01.158-.356c.677-.032 1.273-.207 1.747-.366.517-.174.93-.291 1.233-.291z" color="#000" font-weight="400" font-family="sans-serif" overflow="visible"/><path d="M957.085-7.841c0-.977-.771-1.768-1.725-1.768-.953 0-1.725.791-1.725 1.768 0 .978.772 1.77 1.725 1.77.954 0 1.725-.792 1.725-1.77zm0 0" transform="matrix(2.99123 0 0 2.9803 -2812.291 63.755)" stroke-width=".69" stroke-linecap="square" stroke="#000"/><path d="M46.227 38.906c0-1.453-1.137-2.629-2.54-2.629-1.402 0-2.535 1.176-2.535 2.63 0 1.448 1.133 2.624 2.535 2.624 1.403 0 2.54-1.176 2.54-2.625zm0 0" fill="#fff"/><path style="line-height:normal;font-variant-ligatures:normal;font-variant-position:normal;font-variant-caps:normal;font-variant-numeric:normal;font-variant-alternates:normal;font-feature-settings:normal;text-indent:0;text-align:start;text-decoration-line:none;text-decoration-style:solid;text-decoration-color:#000;text-transform:none;text-orientation:mixed;white-space:normal;shape-padding:0;isolation:auto;mix-blend-mode:normal;solid-color:#000;solid-opacity:1" d="M45.099 26.065a6.951 6.951 0 00-5.13 2.654l-.63.81 1.63 1.262.63-.809a4.87 4.87 0 013.593-1.863 4.866 4.866 0 013.576 1.38l.736.716 1.443-1.467-.736-.722a6.928 6.928 0 00-5.1-1.961h-.006z" color="#000" font-weight="400" font-family="sans-serif" overflow="visible"/><path d="M79.613 38.906c0-1.453-1.136-2.629-2.535-2.629-1.402 0-2.539 1.176-2.539 2.63 0 1.448 1.137 2.624 2.54 2.624 1.398 0 2.534-1.176 2.534-2.625zm0 0" fill="#fff"/><path d="M948.212 4.293h32.927" transform="matrix(2.60096 0 0 2.58929 -2437.947 62.618)" fill="none" stroke-width="1.058" stroke="#000"/><g clip-path="url(#podman-plain-a)"><path d="M60.066 88.473c-.566-3.832-.843-8-1.886-12.907-1.145-6.058-5.016-11.058-10.055-12.89-4.152-1.442-12.785-1.446-16.445 0-5.035 1.832-8.907 6.832-10.051 12.89-1.047 4.907-1.32 9.075-1.887 12.907" fill="none"/></g><g clip-path="url(#podman-plain-b)"><path style="line-height:normal;font-variant-ligatures:normal;font-variant-position:normal;font-variant-caps:normal;font-variant-numeric:normal;font-variant-alternates:normal;font-feature-settings:normal;text-indent:0;text-align:start;text-decoration-line:none;text-decoration-style:solid;text-decoration-color:#000;text-transform:none;text-orientation:mixed;white-space:normal;shape-padding:0;isolation:auto;mix-blend-mode:normal;solid-color:#000;solid-opacity:1" d="M39.716 60.566c-3.207 0-6.315.33-8.404 1.15-5.436 1.984-9.495 7.293-10.699 13.659v.004c-1.06 4.973-1.338 9.179-1.894 12.944l2.042.298c.575-3.89.847-8.014 1.877-12.839v-.012l.005-.013c1.085-5.747 4.764-10.433 9.39-12.117l.014-.004.013-.004c1.57-.62 4.602-1.013 7.657-1.012 3.052 0 6.191.378 8.058 1.024h.009c4.625 1.688 8.293 6.37 9.378 12.113l.004.013v.008c1.027 4.828 1.301 8.957 1.878 12.848l2.042-.303c-.558-3.766-.84-7.97-1.894-12.944v-.004c-1.205-6.37-5.27-11.682-10.716-13.663l-.005-.004-.008-.004c-2.286-.793-5.532-1.138-8.746-1.138z" color="#000" font-weight="400" font-family="sans-serif" overflow="visible"/></g><g clip-path="url(#podman-plain-c)"><path d="M53.316 85.086c0-1.234-.953-2.234-2.132-2.234-1.18 0-2.137 1-2.137 2.234s.957 2.234 2.137 2.234c1.18 0 2.132-1 2.132-2.234zm0 0" fill="#e7e8e9"/></g><g clip-path="url(#podman-plain-d)"><path d="M31.742 85.086c0-1.234-.957-2.234-2.137-2.234-1.18 0-2.136 1-2.136 2.234s.957 2.234 2.136 2.234c1.18 0 2.137-1 2.137-2.234zm0 0" fill="#e7e8e9"/></g><g clip-path="url(#podman-plain-e)"><path d="M956.418-5.982l-4.67 1.251" transform="matrix(1.69894 0 0 1.6887 -1591.586 93.957)" fill="none" stroke-width=".811" stroke="#000"/></g><g clip-path="url(#podman-plain-f)"><path d="M956.949-5.253l-4.697 2.71" transform="matrix(1.69894 0 0 1.6887 -1591.586 93.957)" fill="none" stroke-width=".811" stroke="#000"/></g><g clip-path="url(#podman-plain-g)"><path d="M957.344-4.393l-4.761 4.76" transform="matrix(1.69894 0 0 1.6887 -1591.586 93.957)" fill="none" stroke-width=".811" stroke="#000"/></g><g clip-path="url(#podman-plain-h)"><path d="M957.544-3.269L955.11.946" transform="matrix(1.69894 0 0 1.6887 -1591.586 93.957)" fill="none" stroke-width=".811" stroke="#000"/></g><g clip-path="url(#podman-plain-i)"><path d="M956.418-5.982l-4.67 1.251" transform="matrix(-1.69894 0 0 1.6887 1673.004 93.957)" fill="none" stroke-width=".811" stroke="#000"/></g><g clip-path="url(#podman-plain-j)"><path d="M956.949-5.253l-4.697 2.71" transform="matrix(-1.69894 0 0 1.6887 1673.004 93.957)" fill="none" stroke-width=".811" stroke="#000"/></g><g clip-path="url(#podman-plain-k)"><path d="M957.344-4.393l-4.761 4.76" transform="matrix(-1.69894 0 0 1.6887 1673.004 93.957)" fill="none" stroke-width=".811" stroke="#000"/></g><g clip-path="url(#podman-plain-l)"><path d="M957.544-3.269L955.11.946" transform="matrix(-1.69894 0 0 1.6887 1673.004 93.957)" fill="none" stroke-width=".811" stroke="#000"/></g><g clip-path="url(#podman-plain-m)"><path d="M47.473 83.52c0-3.579-3.067-6.477-6.856-6.477-3.785 0-6.855 2.898-6.855 6.477 0 3.578 3.07 6.48 6.855 6.48 3.79 0 6.856-2.902 6.856-6.48zm0 0" fill="#fff"/></g><g clip-path="url(#podman-plain-n)"><path style="line-height:normal;font-variant-ligatures:normal;font-variant-position:normal;font-variant-caps:normal;font-variant-numeric:normal;font-variant-alternates:normal;font-feature-settings:normal;text-indent:0;text-align:start;text-decoration-line:none;text-decoration-style:solid;text-decoration-color:#000;text-transform:none;text-orientation:mixed;white-space:normal;shape-padding:0;isolation:auto;mix-blend-mode:normal;solid-color:#000;solid-opacity:1" d="M40.615 76.013c-4.316 0-7.89 3.342-7.89 7.505 0 4.164 3.573 7.51 7.89 7.51 4.318 0 7.89-3.347 7.89-7.51 0-4.162-3.574-7.505-7.89-7.505zm0 2.058c3.257 0 5.822 2.454 5.822 5.447 0 2.994-2.563 5.456-5.822 5.456-3.257 0-5.822-2.462-5.822-5.456 0-2.993 2.565-5.447 5.822-5.447z" color="#000" font-weight="400" font-family="sans-serif" overflow="visible" fill="#60605b"/></g><path d="M47.813 77.984c0-1.859 1.476-3.363 3.3-3.363 1.825 0 3.301 1.504 3.301 3.363 0 1.86-1.477 3.364-3.3 3.364-1.825 0-3.301-1.504-3.301-3.364zm0 0"/><g clip-path="url(#podman-plain-o)"><path d="M-952.644 8.86c0-.865-.683-1.564-1.528-1.564-.844 0-1.528.7-1.528 1.564 0 .865.684 1.564 1.528 1.564.845 0 1.528-.7 1.528-1.564zm0 0" transform="matrix(-2.16006 0 0 2.15037 -2009.957 58.932)" fill="none" stroke="#000" stroke-width=".956" stroke-linecap="square"/></g><g clip-path="url(#podman-plain-p)"><path style="line-height:normal;font-variant-ligatures:normal;font-variant-position:normal;font-variant-caps:normal;font-variant-numeric:normal;font-variant-alternates:normal;font-feature-settings:normal;text-indent:0;text-align:start;text-decoration-line:none;text-decoration-style:solid;text-decoration-color:#000;text-transform:none;text-orientation:mixed;white-space:normal;shape-padding:0;isolation:auto;mix-blend-mode:normal;solid-color:#000;solid-opacity:1" d="M51.322 68.474a4.778 4.778 0 00-3.548 1.365l-.73.723 1.452 1.457.734-.722a2.782 2.782 0 012.004-.769c.796.04 1.534.42 2.025 1.046l.637.81 1.624-1.264-.633-.81a4.818 4.818 0 00-3.556-1.836h-.004z" color="#000" font-weight="400" font-family="sans-serif" overflow="visible"/></g><g clip-path="url(#podman-plain-q)"><path d="M962.305-5.784l.101 1.985s1.587 1.422 2.513-.033c0 0-.099-.826-.165-1.092" transform="matrix(1.69894 0 0 1.6887 -1594.283 92.17)" fill="none" stroke-width="1.216" stroke="#000"/></g><g clip-path="url(#podman-plain-r)"><path d="M962.287-5.784l-.1 1.985s-1.586 1.422-2.512-.033c0 0 .098-.826.165-1.092" transform="matrix(1.69894 0 0 1.6887 -1594.283 92.17)" fill="none" stroke-width="1.216" stroke="#000"/></g><g clip-path="url(#podman-plain-s)"><path d="M43.543 82.352c-.23-.59-.23-1.774-.918-1.774-.691 0-1.328-.445-2.008-.445-.676 0-1.312.445-2.004.445-.691 0-.691 1.184-.918 1.774-.23.593 2.922 2.515 2.922 2.515s3.156-1.922 2.926-2.515zm0 0" fill="gray"/></g><g clip-path="url(#podman-plain-t)"><path style="line-height:normal;font-variant-ligatures:normal;font-variant-position:normal;font-variant-caps:normal;font-variant-numeric:normal;font-variant-alternates:normal;font-feature-settings:normal;text-indent:0;text-align:start;text-decoration-line:none;text-decoration-style:solid;text-decoration-color:#000;text-transform:none;text-orientation:mixed;white-space:normal;shape-padding:0;isolation:auto;mix-blend-mode:normal;solid-color:#000;solid-opacity:1" d="M40.615 79.104c-.565 0-1 .167-1.329.278-.329.11-.552.168-.675.168-.469 0-.948.269-1.194.562a2.226 2.226 0 00-.426.828c-.155.498-.23.956-.262 1.041-.205.529-.008.931.131 1.168.139.236.293.404.46.571.334.335.737.647 1.139.94.805.589 1.616 1.084 1.616 1.084l.54.328.54-.328s.815-.495 1.62-1.083c.402-.294.805-.606 1.139-.94.167-.168.317-.336.456-.572.139-.236.339-.638.135-1.168l-.005-.004c-.03-.077-.107-.54-.261-1.037a2.222 2.222 0 00-.422-.824c-.245-.293-.724-.567-1.194-.567-.123 0-.35-.057-.68-.168-.33-.11-.762-.277-1.328-.277zm0 2.054c.114 0 .34.06.67.172.242.082.611.144.975.198.007.016-.002 0 .005.02.045.147.131.454.194.715l-.009.008a8.37 8.37 0 01-.894.73c-.454.332-.656.45-.941.63-.285-.18-.484-.298-.937-.63a8.547 8.547 0 01-.894-.73c-.005-.005-.005-.003-.009-.008.063-.263.144-.572.19-.718l.004-.013c.367-.053.737-.12.98-.202.33-.111.557-.172.666-.172zm1.962 1.55c.002.007.001.01.004.017l-.004-.005c-.002-.008.002-.005 0-.012z" color="#000" font-weight="400" font-family="sans-serif" overflow="visible"/></g><path d="M33.047 77.984c0-1.859-1.477-3.363-3.3-3.363-1.825 0-3.302 1.504-3.302 3.363 0 1.86 1.477 3.364 3.301 3.364s3.3-1.504 3.3-3.364zm0 0"/><g clip-path="url(#podman-plain-u)"><path d="M945.808 8.86c0-.865-.684-1.564-1.528-1.564-.845 0-1.528.7-1.528 1.564 0 .865.683 1.564 1.528 1.564.844 0 1.528-.7 1.528-1.564zm0 0" transform="matrix(2.16006 0 0 2.15037 -2009.957 58.932)" fill="none" stroke-width=".956" stroke-linecap="square" stroke="#000"/></g><path d="M30.266 77.04c0-.927-.727-1.68-1.621-1.68-.899 0-1.625.753-1.625 1.68 0 .925.726 1.675 1.625 1.675.894 0 1.62-.75 1.62-1.676zm0 0" fill="#fff"/><path style="line-height:normal;font-variant-ligatures:normal;font-variant-position:normal;font-variant-caps:normal;font-variant-numeric:normal;font-variant-alternates:normal;font-feature-settings:normal;text-indent:0;text-align:start;text-decoration-line:none;text-decoration-style:solid;text-decoration-color:#000;text-transform:none;text-orientation:mixed;white-space:normal;shape-padding:0;isolation:auto;mix-blend-mode:normal;solid-color:#000;solid-opacity:1" d="M29.524 68.474a4.815 4.815 0 00-3.553 1.836l-.637.81 1.629 1.264.637-.81a2.738 2.738 0 012.02-1.046 2.782 2.782 0 012.009.769l.73.722 1.455-1.457-.734-.723a4.778 4.778 0 00-3.548-1.365h-.004z" color="#000" font-weight="400" font-family="sans-serif" overflow="visible"/><path d="M51.852 77.273c0-.925-.727-1.675-1.625-1.675-.895 0-1.622.75-1.622 1.675 0 .926.727 1.676 1.622 1.676.898 0 1.625-.75 1.625-1.676zm0 0" fill="#fff"/><path style="line-height:normal;font-variant-ligatures:normal;font-variant-position:normal;font-variant-caps:normal;font-variant-numeric:normal;font-variant-alternates:normal;font-feature-settings:normal;text-indent:0;text-align:start;text-decoration-line:none;text-decoration-style:solid;text-decoration-color:#000;text-transform:none;text-orientation:mixed;white-space:normal;shape-padding:0;isolation:auto;mix-blend-mode:normal;solid-color:#000;solid-opacity:1" d="M91.558 0L35.927.167a1.376 1.37 0 00-1.072.52L.29 44.134a1.376 1.37 0 00-.259 1.158L12.57 99.313a1.376 1.37 0 00.747.926l50.195 23.905a1.376 1.37 0 001.194 0l50.048-24.209a1.376 1.37 0 00.742-.93l12.227-54.092a1.376 1.37 0 00-.269-1.158L92.635.515A1.376 1.37 0 0091.558 0zm-.656 2.74l33.99 42.213-11.937 52.808-48.86 23.627-48.991-23.334L2.86 45.317 36.602 2.902z" color="#000" font-weight="400" font-family="sans-serif" overflow="visible"/><path style="line-height:normal;font-variant-ligatures:normal;font-variant-position:normal;font-variant-caps:normal;font-variant-numeric:normal;font-variant-alternates:normal;font-feature-settings:normal;text-indent:0;text-align:start;text-decoration-line:none;text-decoration-style:solid;text-decoration-color:#000;text-transform:none;text-orientation:mixed;white-space:normal;shape-padding:0;isolation:auto;mix-blend-mode:normal;solid-color:#000;solid-opacity:1" d="M15.927 83.322v2.741h51.577v-2.74zm24.506 10.271v2.741h71.531v-2.74z" color="#000" font-weight="400" font-family="sans-serif" overflow="visible"/><path style="line-height:normal;font-variant-ligatures:normal;font-variant-position:normal;font-variant-caps:normal;font-variant-numeric:normal;font-variant-alternates:normal;font-feature-settings:normal;text-indent:0;text-align:start;text-decoration-line:none;text-decoration-style:solid;text-decoration-color:#000;text-transform:none;text-orientation:mixed;white-space:normal;shape-padding:0;isolation:auto;mix-blend-mode:normal;solid-color:#000;solid-opacity:1" d="M84.688 63.91c-3.427 0-6.75.362-8.967 1.235h-.01c-5.778 2.113-10.098 7.76-11.379 14.54v.004c-1.13 5.311-1.426 9.805-2.022 13.837l2.042.298c.615-4.158.9-8.567 2.002-13.73l.005-.015v-.01c1.163-6.166 5.113-11.199 10.089-13.008l.01-.005.015-.005c1.699-.67 4.943-1.082 8.215-1.082 3.27 0 6.629.4 8.64 1.097h.006c4.973 1.813 8.91 6.84 10.078 13.002v.01l.005.01c1.1 5.164 1.387 9.58 2.002 13.736l2.042-.298c-.596-4.03-.894-8.527-2.022-13.837v-.005c-1.288-6.788-5.615-12.444-11.41-14.55l-.004-.005h-.01c-2.431-.844-5.897-1.218-9.327-1.218z" color="#000" font-weight="400" font-family="sans-serif" overflow="visible" fill-rule="evenodd"/><path d="M99.23 90.055c0-1.32-1.023-2.39-2.28-2.39-1.263 0-2.286 1.07-2.286 2.39s1.023 2.386 2.285 2.386c1.258 0 2.281-1.066 2.281-2.386zm-23.066 0c0-1.32-1.023-2.39-2.285-2.39-1.262 0-2.281 1.07-2.281 2.39s1.02 2.386 2.28 2.386c1.263 0 2.286-1.066 2.286-2.386zm0 0" fill="#e7e8e9"/><path style="line-height:normal;font-variant-ligatures:normal;font-variant-position:normal;font-variant-caps:normal;font-variant-numeric:normal;font-variant-alternates:normal;font-feature-settings:normal;text-indent:0;text-align:start;text-decoration-line:none;text-decoration-style:solid;text-decoration-color:#000;text-transform:none;text-orientation:mixed;white-space:normal;shape-padding:0;isolation:auto;mix-blend-mode:normal;solid-color:#000;solid-opacity:1" d="M77.673 88.08l-8.486 2.256.358 1.326 8.483-2.26zm.795 1.382l-8.533 4.894.689 1.185 8.532-4.895zm15.359-1.379l8.486 2.257-.355 1.322-8.486-2.256zm-.79 1.379l8.528 4.894-.689 1.185-8.528-4.894z" color="#000" font-weight="400" font-family="sans-serif" overflow="visible"/><path style="line-height:normal;font-variant-ligatures:normal;font-variant-position:normal;font-variant-caps:normal;font-variant-numeric:normal;font-variant-alternates:normal;font-feature-settings:normal;text-indent:0;text-align:start;text-decoration-line:none;text-decoration-style:solid;text-decoration-color:#000;text-transform:none;text-orientation:mixed;white-space:normal;shape-padding:0;isolation:auto;mix-blend-mode:normal;solid-color:#000;solid-opacity:1" d="M85.653 80.433c-4.58 0-8.367 3.54-8.367 7.95s3.788 7.955 8.367 7.955c4.576 0 8.356-3.546 8.356-7.955 0-4.41-3.78-7.95-8.356-7.95zm0 2.053c3.517 0 6.294 2.657 6.294 5.897 0 3.239-2.777 5.896-6.294 5.896-3.52 0-6.3-2.657-6.3-5.896 0-3.24 2.78-5.897 6.3-5.897z" color="#000" font-weight="400" font-family="sans-serif" overflow="visible" fill="#60605b"/><path d="M-972.432 6.78c0-.767-.608-1.388-1.357-1.388-.75 0-1.356.621-1.356 1.388 0 .767.606 1.389 1.356 1.389.75 0 1.357-.622 1.357-1.39zm0 0" transform="matrix(-2.60096 0 0 2.58929 -2435.917 64.907)" stroke-width=".794" stroke-linecap="square" stroke="#000"/><path style="line-height:normal;font-variant-ligatures:normal;font-variant-position:normal;font-variant-caps:normal;font-variant-numeric:normal;font-variant-alternates:normal;font-feature-settings:normal;text-indent:0;text-align:start;text-decoration-line:none;text-decoration-style:solid;text-decoration-color:#000;text-transform:none;text-orientation:mixed;white-space:normal;shape-padding:0;isolation:auto;mix-blend-mode:normal;solid-color:#000;solid-opacity:1" d="M97.088 72.366a5.068 5.068 0 00-3.729 1.437l-.736.718 1.442 1.466.737-.718a3.003 3.003 0 012.2-.844 3.016 3.016 0 012.22 1.143l.634.809 1.626-1.27-.635-.809a5.082 5.082 0 00-3.749-1.932h-.005zM84.596 87.136l-.156 3.054c-.202.155-.466.391-.979.564-.339.114-.65.145-.9.08-.183-.045-.385-.263-.59-.49.017-.126.017-.139.04-.299.058-.422.145-.94.173-1.05l-2.004-.502c-.092.366-.155.83-.217 1.273-.061.443-.11.822-.11.822l-.042.367.198.307c.534.833 1.277 1.368 2.04 1.562.764.194 1.484.076 2.076-.124.893-.3 1.234-.646 1.518-.878.285.232.625.577 1.518.878.592.2 1.316.318 2.08.124.763-.194 1.506-.73 2.04-1.562l.198-.31-.046-.364s-.145-1.371-.323-2.091l-2.008.494c.043.172.14.888.206 1.36-.201.22-.399.438-.579.484-.25.064-.565.033-.904-.081-.513-.173-.777-.41-.98-.564l-.152-3.05-1.032.049z" color="#000" font-weight="400" font-family="sans-serif" overflow="visible"/><path style="line-height:normal;font-variant-ligatures:normal;font-variant-position:normal;font-variant-caps:normal;font-variant-numeric:normal;font-variant-alternates:normal;font-feature-settings:normal;text-indent:0;text-align:start;text-decoration-line:none;text-decoration-style:solid;text-decoration-color:#000;text-transform:none;text-orientation:mixed;white-space:normal;shape-padding:0;isolation:auto;mix-blend-mode:normal;solid-color:#000;solid-opacity:1" d="M85.653 83.735c-.59 0-1.05.17-1.402.288-.353.119-.602.187-.747.187-.48 0-.967.275-1.22.577-.252.302-.36.592-.441.855-.163.522-.245 1.012-.285 1.117-.21.536-.006.945.137 1.189.144.243.307.42.483.596.353.353.775.689 1.204 1.002a27.124 27.124 0 001.732 1.153l.539.328.538-.328s.87-.532 1.727-1.158c.429-.313.852-.644 1.204-.997a2.87 2.87 0 00.483-.596c.143-.243.337-.652.132-1.184-.04-.104-.117-.593-.28-1.117-.08-.263-.184-.558-.436-.86-.252-.302-.743-.577-1.224-.577-.148 0-.395-.069-.747-.187-.353-.118-.81-.288-1.397-.288zm0 2.053c.135 0 .382.063.736.182.27.09.668.17 1.072.223.013.028.005.006.02.055.053.171.14.508.214.805-.019.02-.012.017-.036.04-.21.21-.582.514-.965.794-.505.37-.74.507-1.041.698-.301-.19-.54-.328-1.047-.698a9.261 9.261 0 01-.97-.794c-.02-.02-.013-.017-.03-.035.074-.3.16-.638.213-.81.016-.05.007-.027.02-.055a6.198 6.198 0 001.072-.223c.354-.118.602-.182.742-.182z" color="#000" font-weight="400" font-family="sans-serif" overflow="visible"/><path d="M966.363 6.78c0-.767-.607-1.388-1.357-1.388-.749 0-1.357.621-1.357 1.388 0 .767.608 1.389 1.357 1.389.75 0 1.357-.622 1.357-1.39zm0 0" transform="matrix(2.60096 0 0 2.58929 -2435.917 64.907)" stroke-width=".794" stroke-linecap="square" stroke="#000"/><path d="M74.586 81.45c0-.99-.777-1.794-1.734-1.794s-1.735.805-1.735 1.793c0 .992.778 1.793 1.735 1.793.957 0 1.734-.8 1.734-1.793zm0 0" fill="#fff"/><path style="line-height:normal;font-variant-ligatures:normal;font-variant-position:normal;font-variant-caps:normal;font-variant-numeric:normal;font-variant-alternates:normal;font-feature-settings:normal;text-indent:0;text-align:start;text-decoration-line:none;text-decoration-style:solid;text-decoration-color:#000;text-transform:none;text-orientation:mixed;white-space:normal;shape-padding:0;isolation:auto;mix-blend-mode:normal;solid-color:#000;solid-opacity:1" d="M73.791 72.366a5.082 5.082 0 00-3.75 1.932l-.634.81 1.626 1.269.64-.81a3.005 3.005 0 012.214-1.147 2.999 2.999 0 012.205.85l.737.717 1.448-1.466-.737-.718a5.076 5.076 0 00-3.734-1.437h-.01z" color="#000" font-weight="400" font-family="sans-serif" overflow="visible"/><path d="M97.793 81.684c0-.989-.777-1.79-1.734-1.79s-1.735.801-1.735 1.79c0 .992.778 1.793 1.735 1.793.957 0 1.734-.801 1.734-1.793zm0 0" fill="#fff"/><path style="line-height:normal;font-variant-ligatures:normal;font-variant-position:normal;font-variant-caps:normal;font-variant-numeric:normal;font-variant-alternates:normal;font-feature-settings:normal;text-indent:0;text-align:start;text-decoration-line:none;text-decoration-style:solid;text-decoration-color:#000;text-transform:none;text-orientation:mixed;white-space:normal;shape-padding:0;isolation:auto;mix-blend-mode:normal;solid-color:#000;solid-opacity:1" d="M34.926 100.446v2.74h33.091v-2.74zm19.268 6.852v2.741h27.25v-2.74z" color="#000" font-weight="400" font-family="sans-serif" overflow="visible"/></svg>
