<svg version="1.1" viewBox="0 0 128 128" xmlns="http://www.w3.org/2000/svg">
 <g fill-rule="evenodd">
  <path d="m100.61 72.875c-1.0625 5.1211-5.7852 18.266-20.852 25.379l-6.0508-6.8008-10.211 10.262c-11.773-0.15625-22.801-5.8125-29.797-15.285 1.0859 0.33984 2.2031 0.55078 3.3359 0.62891 1.6719 0.03125 3.4844-0.58203 3.4844-3.3906v-27.695c0.046874-1.4414-0.58984-2.8242-1.7188-3.7227-1.1328-0.90234-2.6211-1.2148-4.0156-0.84766-4.7266 1.0898-8.5039 12.883-8.5039 12.883-0.10547-11.02 4.6406-21.531 12.98-28.738 5.4219-4.6914 12.062-7.7539 19.148-8.8359-5.1602 2.9414-8.0586 7.7383-8.0586 11.762 0 6.4766 3.8984 5.6914 5.0547 4.7383v37.379c0.19531 0.46875 0.45312 0.91016 0.76172 1.3164 1.0469 1.4453 2.7266 2.2969 4.5156 2.2852 3.9023 0 8.9688-4.457 8.9688-4.457v-30.258c0-3.0781-2.3203-6.793-4.6445-8.0703 0 0 4.3008-0.76172 7.6211 1.7773 0.62109-0.76172 1.2852-1.4883 1.9844-2.1836 7.7461-7.5977 15.039-9.7617 21.117-10.844 0 0-11.047 8.6836-11.047 20.332 0 8.6641 0.22266 29.789 0.22266 29.789 4.0977 3.957 10.195-1.7578 15.703-7.4023z"/>
  <path d="m64 2.3828c-34.027 0-61.617 27.59-61.617 61.617s27.59 61.617 61.617 61.617 61.617-27.59 61.617-61.617-27.59-61.617-61.617-61.617zm0 120.77c-32.668 0-59.152-26.484-59.152-59.152 0.003906-32.668 26.488-59.152 59.156-59.148 32.668 0 59.148 26.484 59.148 59.152s-26.484 59.152-59.152 59.152z"/>
 </g>
</svg>
