<svg id="Layer_1" data-name="Layer 1" xmlns="http://www.w3.org/2000/svg" viewBox="0 0 675.83 543.75"><defs><style>.cls-1{fill-rule:evenodd;}</style></defs><path class="cls-1" d="M218.53,532.89H168.3v-46.1h49.44V497h-36v7.85h34.08v9.63H181.76v7.94h36.77v10.49Zm0,0"/><path class="cls-1" d="M507.53,532.89H458.09V487.52h48.67v10H471.34v7.72h33.54v9.47H471.34v7.82h36.19v10.33Zm0,0"/><path class="cls-1" d="M286.64,532.89H266.32l-26.76-34.48h-.26v34.48H226v-46.1h20.65l26.43,34.52h.26V486.79h13.33v46.1Zm0,0"/><path class="cls-1" d="M447.7,532.89H427.38l-26.76-34.48h-.26v34.48H387v-46.1h20.65l26.43,34.52h.26V486.79H447.7v46.1Zm0,0"/><path class="cls-1" d="M325.91,533.5q-6.39,0-11-.32A41.19,41.19,0,0,1,307,532a15.1,15.1,0,0,1-5.27-2.47,10.38,10.38,0,0,1-3.16-4.1A20.93,20.93,0,0,1,297,519.3a80.42,80.42,0,0,1-.39-8.52v-1.35a78.38,78.38,0,0,1,.41-8.58,20.93,20.93,0,0,1,1.54-6.16,10.55,10.55,0,0,1,3.17-4.09,14.7,14.7,0,0,1,5.28-2.42,41.22,41.22,0,0,1,7.89-1.17q4.65-.3,11-.3h2q5.32,0,9.32.23a48.08,48.08,0,0,1,6.87.84,16.73,16.73,0,0,1,4.75,1.66,8.48,8.48,0,0,1,3,2.67,10.25,10.25,0,0,1,1.51,3.89,29.38,29.38,0,0,1,.42,5.29v1.77h-13v-.56a6.41,6.41,0,0,0-.49-2.64,3.62,3.62,0,0,0-1.91-1.71,13.91,13.91,0,0,0-4-.9q-2.58-.25-6.8-.26h-1.14q-3.83,0-6.54.13a25,25,0,0,0-4.51.57,7.54,7.54,0,0,0-2.85,1.27,4.89,4.89,0,0,0-1.58,2.23,13.21,13.21,0,0,0-.66,3.5c-.1,1.39-.15,3.06-.15,5v.82c0,1.91.05,3.54.15,4.9a12.89,12.89,0,0,0,.66,3.43,4.83,4.83,0,0,0,1.58,2.21,7.54,7.54,0,0,0,2.85,1.27,25.12,25.12,0,0,0,4.51.57q2.71.14,6.54.13h1.14c2.08,0,3.87,0,5.37-.11s2.77-.2,3.8-.36a9.55,9.55,0,0,0,2.46-.69,3.75,3.75,0,0,0,1.43-1.12,3.64,3.64,0,0,0,.67-1.57,13.09,13.09,0,0,0,.16-2.12v-1.28H323.77v-8.9H354.3v10.24a34.54,34.54,0,0,1-.43,5.83,12.47,12.47,0,0,1-1.56,4.33,9.27,9.27,0,0,1-3,3,16.16,16.16,0,0,1-4.83,1.91,44.11,44.11,0,0,1-7,1c-2.72.2-5.88.3-9.5.3Zm0,0"/><path class="cls-1" d="M377.2,533H363.69V487.24H377.2V533Zm0,0"/><path class="cls-1" d="M64.72,462.64q-9.8,0-17.18-.53a79.32,79.32,0,0,1-12.74-1.79,30.35,30.35,0,0,1-8.87-3.44,17.29,17.29,0,0,1-5.61-5.44,21.72,21.72,0,0,1-2.95-7.78,56.33,56.33,0,0,1-.86-10.54v-52h23.7v44.32q0,4.11.29,7.06a17.08,17.08,0,0,0,1.17,5,8.14,8.14,0,0,0,2.55,3.36,12.36,12.36,0,0,0,4.41,2,33.9,33.9,0,0,0,6.75,1c2.68.15,5.86.23,9.57.23h2q5.55,0,9.56-.26a38.23,38.23,0,0,0,6.76-.95,11.87,11.87,0,0,0,4.41-2,8.48,8.48,0,0,0,2.54-3.36,16.76,16.76,0,0,0,1.18-5q.28-3,.28-7V381.11h23.71v52a61.52,61.52,0,0,1-.8,10.51,21.49,21.49,0,0,1-2.87,7.81,17.09,17.09,0,0,1-5.55,5.44,30.1,30.1,0,0,1-8.85,3.44,79.35,79.35,0,0,1-12.79,1.79q-7.45.52-17.35.53Z"/><path class="cls-1" d="M237.26,461.65H201.82l-46.66-60.3h-.46v60.3H131.46V381h36l46.09,60.36H214V381h23.24v80.61Zm0,0"/><path class="cls-1" d="M307.13,421.72c4.09,0,7.34-.12,9.77-.37a13.22,13.22,0,0,0,5.52-1.57,5.46,5.46,0,0,0,2.46-3.29,22.1,22.1,0,0,0,.58-5.59v-1.39a21.78,21.78,0,0,0-.58-5.52,5.2,5.2,0,0,0-2.49-3.24,13.87,13.87,0,0,0-5.55-1.51c-2.43-.25-5.66-.37-9.71-.37H277.59v22.85Zm42.2,39.93H325.91v-6.54a55.9,55.9,0,0,0-.28-6.08,12.37,12.37,0,0,0-1.21-4.31,7.37,7.37,0,0,0-2.57-2.83,12.94,12.94,0,0,0-4.38-1.65,42.55,42.55,0,0,0-6.7-.78q-4-.21-9.48-.21h-23.7v22.4H254.11V381h62.53a88.81,88.81,0,0,1,16.2,1.22,23.13,23.13,0,0,1,10,4.08,14.72,14.72,0,0,1,5.07,7.58,41.65,41.65,0,0,1,1.4,11.66v2.83a41.49,41.49,0,0,1-.74,8.31,18.07,18.07,0,0,1-2.41,6.13,14,14,0,0,1-4.29,4.25,20.43,20.43,0,0,1-6.47,2.55v.46a34.65,34.65,0,0,1,6.95,1.77,9.33,9.33,0,0,1,4.27,3.18,12.84,12.84,0,0,1,2.12,5.53,54.6,54.6,0,0,1,.57,8.73v12.33Zm0,0"/><path class="cls-1" d="M452.32,461.65h-87.6V381h86.22v17.83H388.19v13.71h59.43v16.84H388.19v13.89h64.13v18.34Zm0,0"/><path class="cls-1" d="M531.52,430.41l-16.43-32.35h-.58L498.2,430.41ZM573,461.71H547.44l-7.39-14.47H489.78l-7.27,14.47H457.14l43.29-80.6h29.09L573,461.71Zm0,0"/><path class="cls-1" d="M659.33,461.71H581.69v-80.6h23.7V443h53.94v18.75Zm0,0"/><path class="cls-1" d="M434.82,195h0c-2.81,13.56-15.32,48.34-55.19,67.18l-16-18-27,27.16a99.72,99.72,0,0,1-78.86-40.45,38.88,38.88,0,0,0,8.84,1.66c4.42.08,9.21-1.54,9.21-9V150.3a12.06,12.06,0,0,0-15.18-12.07c-12.5,2.86-22.5,34.07-22.5,34.07a99.25,99.25,0,0,1,34.36-76.06C291.12,80.46,309.31,75,323.13,72.86,309.48,80.64,301.8,93.34,301.8,104c0,17.09,10.32,15.07,13.38,12.55v98.92a16,16,0,0,0,2,3.49A14.59,14.59,0,0,0,329.15,225c10.34,0,23.75-11.8,23.75-11.8v-80.1c0-8.15-6.14-18-12.29-21.36,0,0,11.38-2,20.18,4.71h0a74.2,74.2,0,0,1,5.26-5.79C386.51,90.56,405.82,84.86,421.9,82h0s-29.27,23-29.27,53.8c0,22.93.59,78.84.59,78.84C404.11,225.1,420.24,210,434.82,195Z"/><path class="cls-1" d="M337.92,8.48A163.07,163.07,0,1,0,501,171.54,163.06,163.06,0,0,0,337.92,8.48Zm0,319.61A156.55,156.55,0,1,1,494.46,171.54,156.55,156.55,0,0,1,337.92,328.09Z"/></svg>