<svg version="1.1" viewBox="0 0 128 128" xmlns="http://www.w3.org/2000/svg">
 <g transform="translate(0 10.117)" fill-rule="evenodd">
  <path d="m41.391 100.93h-9.516v-8.73h9.364v1.933h-6.817v1.485h6.453v1.824h-6.449v1.504h6.965v1.988zm54.734 0h-9.363v-8.594h9.219v1.895h-6.711v1.46h6.351v1.794h-6.351v1.48h6.855zm-41.836 0h-3.848l-5.07-6.531h-0.047v6.531h-2.52v-8.73h3.91l5.005 6.535h0.05v-6.535h2.524v8.73zm30.504 0h-3.848l-5.07-6.531h-0.047v6.531h-2.531v-8.73h3.91l5.008 6.535h0.047v-6.535h2.531zm-23.066 0.12c-0.809 0-1.5-0.02-2.082-0.059a8.084 8.084 0 0 1-1.5-0.222c-0.36-0.09-0.7-0.25-0.996-0.469a1.993 1.993 0 0 1-0.602-0.777 3.996 3.996 0 0 1-0.297-1.16 15.873 15.873 0 0 1-0.074-1.614v-0.258c-4e-3 -0.543 0.024-1.082 0.078-1.625 0.04-0.398 0.137-0.793 0.293-1.164 0.133-0.304 0.34-0.57 0.602-0.777a2.81 2.81 0 0 1 1-0.457 8.003 8.003 0 0 1 1.492-0.223 35.248 35.248 0 0 1 2.082-0.054h0.379c0.672 0 1.262 0.015 1.766 0.042 0.437 0.024 0.87 0.075 1.3 0.16 0.317 0.06 0.618 0.165 0.903 0.313 0.226 0.121 0.422 0.293 0.566 0.508 0.145 0.223 0.242 0.473 0.285 0.734 0.059 0.332 0.086 0.668 0.082 1.004v0.332h-2.464v-0.105a1.16 1.16 0 0 0-0.09-0.5 0.702 0.702 0 0 0-0.364-0.324 2.633 2.633 0 0 0-0.757-0.168 15.348 15.348 0 0 0-1.29-0.051h-0.214c-0.485 0-0.895 8e-3 -1.239 0.027-0.289 8e-3 -0.574 0.043-0.855 0.106a1.461 1.461 0 0 0-0.54 0.242 0.899 0.899 0 0 0-0.296 0.422 2.405 2.405 0 0 0-0.125 0.664c-0.02 0.261-0.031 0.578-0.031 0.945v0.156c0 0.36 0.011 0.668 0.031 0.926 0.012 0.223 0.05 0.442 0.125 0.652 0.055 0.165 0.16 0.309 0.297 0.418 0.16 0.118 0.348 0.2 0.539 0.239 0.281 0.062 0.566 0.097 0.855 0.11 0.344 0.015 0.754 0.026 1.239 0.023h0.215c0.394 0 0.734 0 1.019-0.02s0.523-0.04 0.719-0.07c0.16-0.02 0.316-0.067 0.465-0.13 0.109-0.046 0.199-0.12 0.273-0.21a0.766 0.766 0 0 0 0.125-0.297c0.02-0.133 0.031-0.27 0.031-0.402v-0.243h-3.351v-1.687h5.78v1.941c5e-3 0.368-0.019 0.739-0.077 1.102-0.047 0.289-0.149 0.57-0.297 0.82-0.145 0.23-0.336 0.426-0.57 0.57-0.282 0.169-0.59 0.29-0.914 0.36a7.958 7.958 0 0 1-1.325 0.191c-0.515 0.035-1.113 0.055-1.8 0.055zm9.714-0.1h-2.559v-8.668h2.559zm-59.183-13.321c-1.238 0-2.32-0.035-3.254-0.102a14.845 14.845 0 0 1-2.414-0.34 5.787 5.787 0 0 1-1.68-0.648 3.348 3.348 0 0 1-1.062-1.031 4.195 4.195 0 0 1-0.559-1.473 10.701 10.701 0 0 1-0.164-1.996v-9.848h4.492v8.391c0 0.52 0.016 0.965 0.055 1.34 0.023 0.324 0.098 0.64 0.219 0.945 0.105 0.25 0.27 0.469 0.484 0.637 0.25 0.18 0.535 0.308 0.836 0.379 0.418 0.105 0.848 0.168 1.277 0.187 0.508 0.032 1.11 0.043 1.813 0.043h0.379c0.703 0 1.305-0.015 1.812-0.047 0.43-0.023 0.86-0.082 1.278-0.18 0.304-0.066 0.586-0.195 0.836-0.378 0.21-0.168 0.378-0.387 0.48-0.637 0.125-0.3 0.2-0.621 0.227-0.945 0.035-0.38 0.05-0.824 0.05-1.328v-8.41h4.493v9.847c3e-3 0.668-0.047 1.332-0.153 1.992a4.085 4.085 0 0 1-0.543 1.477 3.231 3.231 0 0 1-1.05 1.031 5.771 5.771 0 0 1-1.676 0.653c-0.797 0.18-1.61 0.292-2.426 0.34a49.94 49.94 0 0 1-3.285 0.097zm32.68-0.188h-6.715l-8.836-11.422h-0.086v11.422h-4.401v-15.273h6.816l8.731 11.43h0.086v-11.43h4.402v15.266zm13.23-7.562c0.777 0 1.39-0.023 1.852-0.07a2.523 2.523 0 0 0 1.046-0.297c0.231-0.14 0.399-0.363 0.465-0.625 0.082-0.344 0.118-0.703 0.11-1.059v-0.262a4.113 4.113 0 0 0-0.11-1.046 0.994 0.994 0 0 0-0.472-0.614 2.587 2.587 0 0 0-1.051-0.285c-0.461-0.047-1.07-0.07-1.84-0.07h-5.594v4.328zm7.992 7.563h-4.433v-1.239c4e-3 -0.387-0.016-0.77-0.055-1.152a2.295 2.295 0 0 0-0.227-0.817 1.4 1.4 0 0 0-0.488-0.535 2.343 2.343 0 0 0-0.828-0.312 8.158 8.158 0 0 0-1.27-0.149 34.078 34.078 0 0 0-1.796-0.039h-4.489v4.243h-4.444v-15.273h11.84a16.49 16.49 0 0 1 3.07 0.23 4.366 4.366 0 0 1 1.895 0.773c0.465 0.364 0.8 0.868 0.96 1.434 0.192 0.719 0.282 1.465 0.262 2.207v0.54a7.89 7.89 0 0 1-0.136 1.573c-0.082 0.41-0.235 0.805-0.457 1.16-0.211 0.325-0.489 0.598-0.813 0.805-0.379 0.23-0.793 0.39-1.226 0.48v0.09c0.449 0.067 0.89 0.176 1.316 0.336 0.324 0.118 0.602 0.325 0.809 0.602 0.214 0.313 0.351 0.672 0.402 1.047 0.078 0.547 0.117 1.098 0.105 1.652v2.336zm19.508-1e-3h-16.59v-15.273h16.328v3.375h-11.883v2.598h11.254v3.187h-11.254v2.633h12.145zm15.002-5.918-3.113-6.125h-0.11l-3.086 6.125zm7.856 5.93h-4.84l-1.399-2.743h-9.523l-1.375 2.743h-4.805l8.2-15.266h5.507zm16.354 0h-14.703v-15.266h4.488v11.723h10.215v3.55zm-42.528-50.512c-0.531 2.566-2.898 9.156-10.449 12.723l-3.031-3.41-5.113 5.144a18.89 18.89 0 0 1-14.938-7.66 7.378 7.378 0 0 0 1.675 0.313c0.836 0.015 1.743-0.29 1.743-1.703v-13.871a2.272 2.272 0 0 0-0.86-1.868 2.27 2.27 0 0 0-2.015-0.418c-2.368 0.54-4.262 6.45-4.262 6.45a18.8 18.8 0 0 1 6.508-14.402c3.527-2.989 6.972-4.024 9.59-4.43-2.586 1.473-4.04 3.879-4.04 5.898 0 3.239 1.953 2.856 2.536 2.375v18.734c0.097 0.239 0.222 0.457 0.378 0.664a2.75 2.75 0 0 0 2.266 1.14c1.957 0 4.5-2.234 4.5-2.234v-15.168c0-1.543-1.164-3.41-2.328-4.046 0 0 2.152-0.38 3.82 0.894 0.313-0.383 0.645-0.75 0.996-1.098 3.875-3.808 7.532-4.886 10.578-5.43 0 0-5.543 4.356-5.543 10.192 0 4.34 0.11 14.93 0.11 14.93 2.066 1.98 5.12-0.88 7.879-3.72z"/>
  <path d="m64 1.617c-17.055 0-30.883 13.828-30.883 30.883 0 17.06 13.832 30.883 30.887 30.883 17.059 0 30.887-13.828 30.883-30.887 0-17.055-13.828-30.883-30.887-30.879zm0 60.527c-16.375 4e-3 -29.648-13.27-29.652-29.645 0-16.375 13.273-29.648 29.652-29.648 16.375-4e-3 29.648 13.273 29.648 29.645 0 16.375-13.273 29.648-29.648 29.648z"/>
 </g>
</svg>
