<svg xmlns="http://www.w3.org/2000/svg" width="128" height="128" viewBox="0 0 128 128"><defs><clipPath id="a"><path d="M30 18h64v55H30zm0 0"/></clipPath><clipPath id="b"><path d="M83.863 58.531c-1.656 0-2.32-.957-2.32-.957-.11-.426-.219-6.746-.273-13.011-.055-6.536 0-13.016.332-13.067 1.93-3.453 8-10.41 8-10.41-11.368 2.176-17.547 9.348-17.547 9.348-1.82-1.383-5.57-1.168-5.57-1.168 1.765.902 3.472 3.609 3.472 5.84v21.988s-3.805 3.242-6.73 3.242c-1.766 0-2.813-.902-3.418-1.648-.387-.532-.555-.954-.555-.954v-27.14c-.387.265-.883.476-1.379.476-.605 0-1.27-.32-1.71-1.168-.33-.691-.552-1.648-.552-3.132 0-4.993 5.903-8.34 5.903-8.34-7.446 1.914-14.399 5.629-23.614 15.828-9.21 10.195-7.445 18.59-7.445 18.59s2.48-5.844 8.605-11.953c2.922-2.868 5.075-3.825 6.567-3.875 1.652 0 2.426 1.167 2.426 2.23v20.66c0 2.02-1.38 2.496-2.649 2.445-1.047 0-2.039-.375-2.039-.375 6.29 8.766 21.293 10.04 21.293 10.04l6.621-6.797.168.105 6.067 4.938C88.55 63.946 93.902 52.21 93.902 52.21c-5.02 5.148-8.164 6.32-10.039 6.32"/></clipPath><clipPath id="c"><path d="M17 0h93v90H17zm0 0"/></clipPath><clipPath id="d"><path d="M63.781 2.762c11.696 0 22.73 4.41 31.004 12.48 8.278 8.02 12.856 18.75 12.856 30.117 0 11.364-4.579 22.04-12.856 30.114-8.273 8.02-19.308 12.48-31.004 12.48-11.699 0-22.734-4.406-31.008-12.48-8.277-8.02-12.855-18.75-12.855-30.114 0-11.367 4.578-22.043 12.855-30.117 8.274-8.07 19.254-12.48 31.008-12.48m0-1.965c-25.383 0-45.906 19.918-45.906 44.508 0 24.59 20.523 44.508 45.848 44.508 25.324 0 45.851-19.918 45.851-44.508C109.63 20.715 89.102.797 63.781.797"/></clipPath></defs><g clip-path="url(#a)"><g clip-path="url(#b)"><path style="stroke:none;fill-rule:nonzero;fill:#2e2e2c;fill-opacity:1" d="M29.629 17.793h64.883v54.918H29.629zm0 0"/></g></g><g clip-path="url(#c)"><g clip-path="url(#d)"><path style="stroke:none;fill-rule:nonzero;fill:#2e2e2c;fill-opacity:1" d="M17.215.16h93.02v90.29h-93.02zm0 0"/></g></g></svg>
