<svg id="Layer_1" data-name="Layer 1" xmlns="http://www.w3.org/2000/svg" viewBox="0 0 1724.37 336"><defs><style>.cls-1{fill:#fff;fill-rule:evenodd;}</style></defs><path class="cls-1" d="M1191.16,208.63h-89.52V126.49h88.11v18.16h-64.12v14h60.73v17.16h-60.73v14.15h65.53v18.69Zm0,0"/><path class="cls-1" d="M1706.2,208.63h-88.12V127.78h86.73v17.87h-63.12v13.76h59.78V176.3h-59.78v13.93h64.51v18.4Zm0,0"/><path class="cls-1" d="M1312.54,208.63h-36.22l-47.68-61.44h-.47v61.44h-23.76V126.49h36.81l47.1,61.5h.46v-61.5h23.76v82.14Zm0,0"/><path class="cls-1" d="M1599.57,208.63h-36.22l-47.68-61.44h-.47v61.44h-23.76V126.49h36.81l47.09,61.5h.47v-61.5h23.76v82.14Zm0,0"/><path class="cls-1" d="M1382.52,209.72q-11.4,0-19.68-.56a73,73,0,0,1-14.07-2.13,26.75,26.75,0,0,1-9.4-4.39,18.54,18.54,0,0,1-5.62-7.31,36.83,36.83,0,0,1-2.69-10.92,143.86,143.86,0,0,1-.7-15.18v-2.4a140.26,140.26,0,0,1,.73-15.3,36.8,36.8,0,0,1,2.75-11,18.61,18.61,0,0,1,5.64-7.28,26.6,26.6,0,0,1,9.41-4.33,73.34,73.34,0,0,1,14.07-2.08q8.28-.53,19.56-.52h3.65q9.49,0,16.62.41a83.23,83.23,0,0,1,12.24,1.49,29.78,29.78,0,0,1,8.45,2.95,15.13,15.13,0,0,1,5.27,4.77,18.37,18.37,0,0,1,2.69,6.93,52.1,52.1,0,0,1,.75,9.42v3.16h-23.27v-1a11.49,11.49,0,0,0-.86-4.71,6.37,6.37,0,0,0-3.42-3,23.5,23.5,0,0,0-7.14-1.61q-4.59-.47-12.11-.47h-2q-6.83,0-11.65.23a43.14,43.14,0,0,0-8,1,13.43,13.43,0,0,0-5.09,2.25,8.64,8.64,0,0,0-2.8,4,22.53,22.53,0,0,0-1.19,6.23c-.17,2.47-.26,5.45-.26,8.92v1.46c0,3.4.09,6.3.26,8.72a21.9,21.9,0,0,0,1.19,6.11,8.73,8.73,0,0,0,2.8,4,13.59,13.59,0,0,0,5.09,2.25,44.1,44.1,0,0,0,8,1q4.83.24,11.65.24h2q5.55,0,9.57-.21a63.4,63.4,0,0,0,6.76-.65,16.46,16.46,0,0,0,4.4-1.22,6.66,6.66,0,0,0,2.54-2,6.52,6.52,0,0,0,1.19-2.81,21.81,21.81,0,0,0,.29-3.77v-2.29H1378.7V162.27h54.42v18.25a61.14,61.14,0,0,1-.78,10.39,21.73,21.73,0,0,1-2.78,7.72,16.56,16.56,0,0,1-5.38,5.38,28.72,28.72,0,0,1-8.6,3.4,77.57,77.57,0,0,1-12.48,1.78q-7.26.52-16.93.53Zm0,0"/><path class="cls-1" d="M1473.92,208.78h-24.08v-81.5h24.08v81.5Zm0,0"/><path class="cls-1" d="M427.16,209.65q-10,0-17.55-.53a80.89,80.89,0,0,1-13-1.83,30.93,30.93,0,0,1-9.07-3.52,17.76,17.76,0,0,1-5.74-5.56,22.45,22.45,0,0,1-3-8,58.54,58.54,0,0,1-.88-10.76V126.35h24.23v45.29c0,2.8.09,5.2.29,7.21a17.12,17.12,0,0,0,1.2,5.14,8.26,8.26,0,0,0,2.6,3.43,12.53,12.53,0,0,0,4.5,2,35.43,35.43,0,0,0,6.91,1c2.73.16,6,.23,9.77.23h2.05c3.78,0,7-.08,9.77-.26a38.52,38.52,0,0,0,6.9-1,11.89,11.89,0,0,0,4.5-2,8.54,8.54,0,0,0,2.61-3.43,17.36,17.36,0,0,0,1.2-5.14q.29-3,.29-7.18V126.35h24.22V179.5a61.89,61.89,0,0,1-.82,10.73,22,22,0,0,1-2.92,8,17.56,17.56,0,0,1-5.68,5.56,30.51,30.51,0,0,1-9,3.52,81.22,81.22,0,0,1-13.07,1.83q-7.61.54-17.73.53Z"/><path class="cls-1" d="M603.47,208.65H567.26L519.58,147h-.47v61.61H495.36V126.28h36.8L579.25,188h.47V126.28h23.75v82.37Zm0,0"/><path class="cls-1" d="M674.87,167.85q6.25,0,10-.39a13.28,13.28,0,0,0,5.65-1.59A5.6,5.6,0,0,0,693,162.5a22.51,22.51,0,0,0,.59-5.71v-1.42a22.18,22.18,0,0,0-.59-5.64,5.32,5.32,0,0,0-2.54-3.31,14.21,14.21,0,0,0-5.68-1.54c-2.47-.26-5.78-.39-9.91-.39H644.68v23.36ZM718,208.65H694.06V202a55,55,0,0,0-.3-6.2,12.55,12.55,0,0,0-1.22-4.41,7.6,7.6,0,0,0-2.64-2.9,13.31,13.31,0,0,0-4.47-1.68,45.41,45.41,0,0,0-6.85-.8q-4.07-.21-9.68-.21H644.68v22.89h-24V126.28h63.89a91.53,91.53,0,0,1,16.56,1.24,23.7,23.7,0,0,1,10.23,4.17,15,15,0,0,1,5.18,7.75A42.18,42.18,0,0,1,718,151.35v2.9a41.56,41.56,0,0,1-.76,8.48,18.23,18.23,0,0,1-2.45,6.27,14.46,14.46,0,0,1-4.39,4.35,20.89,20.89,0,0,1-6.61,2.6v.47a36.16,36.16,0,0,1,7.11,1.8,9.59,9.59,0,0,1,4.35,3.26,13,13,0,0,1,2.17,5.64,55.92,55.92,0,0,1,.58,8.93v12.6Zm0,0"/><path class="cls-1" d="M823.22,208.65H733.71V126.28h88.1v18.21H757.69v14h60.73v17.2H757.69V189.9h65.53v18.75Zm0,0"/><path class="cls-1" d="M904.15,176.72l-16.79-33.05h-.59L870.1,176.72Zm42.41,32H920.41l-7.55-14.78H861.5l-7.43,14.78H828.15l44.23-82.36H902.1l44.46,82.36Zm0,0"/><path class="cls-1" d="M1034.74,208.71H955.41V126.35h24.22v63.2h55.11v19.16Zm0,0"/><path class="cls-1" d="M264.11,191.3h0c-2.79,13.44-15.19,47.94-54.74,66.62l-15.88-17.86L166.69,267a98.9,98.9,0,0,1-78.22-40.12,38.53,38.53,0,0,0,8.76,1.65c4.39.08,9.14-1.53,9.14-8.9v-72.7a12,12,0,0,0-15.05-12C78.91,137.79,69,168.75,69,168.75a98.44,98.44,0,0,1,34.07-75.44,99.85,99.85,0,0,1,50.27-23.19c-13.55,7.72-21.16,20.31-21.16,30.87,0,17,10.24,14.94,13.27,12.44v98.12a15.6,15.6,0,0,0,2,3.45,14.49,14.49,0,0,0,11.85,6c10.25,0,23.55-11.7,23.55-11.7V129.88c0-8.08-6.09-17.84-12.19-21.19,0,0,11.29-2,20,4.67h0a74.63,74.63,0,0,1,5.21-5.73C216.2,87.68,235.35,82,251.3,79.16h0s-29,22.79-29,53.37c0,22.74.59,78.2.59,78.2C233.65,221.12,249.65,206.11,264.11,191.3Z"/><path class="cls-1" d="M168,6.26A161.74,161.74,0,1,0,329.74,168,161.74,161.74,0,0,0,168,6.26Zm0,317A155.27,155.27,0,1,1,323.27,168,155.27,155.27,0,0,1,168,323.27Z"/></svg>