<svg xmlns="http://www.w3.org/2000/svg" xmlns:xlink="http://www.w3.org/1999/xlink" width="128" height="128" viewBox="0 0 128 128"><defs><clipPath id="e"><path d="M30 18h64v55H30zm0 0"/></clipPath><clipPath id="f"><path d="M83.863 58.531c-1.656 0-2.32-.957-2.32-.957-.11-.426-.219-6.746-.273-13.011-.055-6.536 0-13.016.332-13.067 1.93-3.453 8-10.41 8-10.41-11.368 2.176-17.547 9.348-17.547 9.348-1.82-1.383-5.57-1.168-5.57-1.168 1.765.902 3.472 3.609 3.472 5.84v21.988s-3.805 3.242-6.73 3.242c-1.766 0-2.813-.902-3.418-1.648-.387-.532-.555-.954-.555-.954v-27.14c-.387.265-.883.476-1.379.476-.605 0-1.27-.32-1.71-1.168-.33-.691-.552-1.648-.552-3.132 0-4.993 5.903-8.34 5.903-8.34-7.446 1.914-14.399 5.629-23.614 15.828-9.21 10.195-7.445 18.59-7.445 18.59s2.48-5.844 8.605-11.953c2.922-2.868 5.075-3.825 6.567-3.875 1.652 0 2.426 1.167 2.426 2.23v20.66c0 2.02-1.38 2.496-2.649 2.445-1.047 0-2.039-.375-2.039-.375 6.29 8.766 21.293 10.04 21.293 10.04l6.621-6.797.168.105 6.067 4.938C88.55 63.946 93.902 52.21 93.902 52.21c-5.02 5.148-8.164 6.32-10.039 6.32"/></clipPath><clipPath id="g"><path d="M17 0h93v90H17zm0 0"/></clipPath><clipPath id="h"><path d="M63.781 2.762c11.696 0 22.73 4.41 31.004 12.48 8.278 8.02 12.856 18.75 12.856 30.117 0 11.364-4.579 22.04-12.856 30.114-8.273 8.02-19.308 12.48-31.004 12.48-11.699 0-22.734-4.406-31.008-12.48-8.277-8.02-12.855-18.75-12.855-30.114 0-11.367 4.578-22.043 12.855-30.117 8.274-8.07 19.254-12.48 31.008-12.48m0-1.965c-25.383 0-45.906 19.918-45.906 44.508 0 24.59 20.523 44.508 45.848 44.508 25.324 0 45.851-19.918 45.851-44.508C109.63 20.715 89.102.797 63.781.797"/></clipPath><clipPath id="i"><path d="M30.785 117.91h9.656v1.91h-9.656zm0 1.91h2.649v1.489h-2.649zm0 1.489h9.27v1.804h-9.27zm0 1.804h2.649v1.489h-2.649zm0 1.489h9.82v1.964h-9.82zm0 0"/></clipPath><clipPath id="j"><path d="M42 117h12v10H42zm0 0"/></clipPath><clipPath id="k"><path d="M53.902 126.566h-3.918l-5.238-6.48h-.055v6.48h-2.593v-8.656h4.027l5.129 6.531h.055v-6.53h2.593zm0 0"/></clipPath><clipPath id="l"><path d="M55 117h13v10H55zm0 0"/></clipPath><clipPath id="m"><path d="M61.574 126.672c-.828 0-1.547 0-2.152-.055-.61-.05-1.106-.105-1.547-.21-.441-.106-.773-.266-1.047-.477-.277-.215-.496-.48-.61-.797-.163-.32-.218-.692-.273-1.168-.054-.426-.054-1.012-.054-1.594v-.215c0-.636 0-1.168.054-1.594.055-.476.164-.847.274-1.167.168-.317.332-.582.61-.743.273-.21.605-.37 1.046-.476.441-.11.938-.16 1.547-.215.605-.05 1.324-.05 2.152-.05h.383c.719 0 1.324 0 1.824.05.496.055.992.105 1.32.16.387.055.665.16.942.32.219.106.441.317.55.477.165.21.22.426.274.742.059.266.059.637.059 1.012v.316h-2.54v-.105c0-.211-.054-.371-.109-.477-.058-.16-.168-.265-.386-.32-.168-.106-.442-.16-.774-.16-.332-.051-.773-.051-1.324-.051h-1.489c-.331 0-.663.05-.882.105-.223.051-.442.16-.555.211-.11.106-.219.266-.328.426-.055.16-.113.371-.113.637s-.055.586-.055.957v.16c0 .371 0 .692.055.902 0 .266.058.477.113.637a.83.83 0 0 0 .328.426c.113.105.332.16.555.21.219.056.55.106.883.106h2.535c.277 0 .555-.05.719-.05.222-.055.386-.055.496-.106.11-.055.222-.11.277-.215.055-.105.11-.16.11-.316 0-.11.054-.266.054-.375v-.266h-3.422v-1.644h5.961v1.91c0 .426-.055.797-.11 1.117-.058.32-.167.586-.331.797-.168.21-.332.426-.61.586-.218.156-.55.265-.937.37-.387.106-.828.157-1.379.212-.55.055-1.156.055-1.875.055h-.219zm0 0"/></clipPath><clipPath id="n"><path d="M.992 97.992h125.63v28.735H.991zm0 0"/></clipPath><clipPath id="b"><path d="M73.543 118H86v8.672H73.543zm0 0"/></clipPath><clipPath id="c"><path d="M85.297 126.566h-3.918l-5.188-6.425h-.054v6.425h-2.535v-8.55h3.972l5.13 6.425h.054v-6.425h2.539zm0 0"/></clipPath><clipPath id="d"><path d="M87.395 118.016h9.543v1.859h-9.543zm0 1.859h2.59v1.484h-2.59zm0 1.484h9.21v1.809h-9.21zm0 1.809h2.59v1.484h-2.59zm0 1.484h9.707v1.914h-9.707zm0 0"/></clipPath><clipPath id="a"><path d="M0 0h128v128H0z"/></clipPath><clipPath id="p"><path d="M1 97h20v17H1zm0 0"/></clipPath><clipPath id="q"><path d="M10.426 113.29c-1.266 0-2.371-.056-3.364-.106-.937-.055-1.765-.16-2.484-.32-.715-.16-1.27-.372-1.71-.637a3.927 3.927 0 0 1-1.102-1.012c-.278-.422-.442-.903-.551-1.485a10.265 10.265 0 0 1-.168-1.964v-9.774h4.637v8.34c0 .531 0 .953.054 1.324.055.375.11.692.219.957.113.266.277.48.5.637.219.16.496.266.883.375.328.105.77.156 1.32.156.5.055 1.16.055 1.88.055h.386c.715 0 1.324 0 1.875-.055.496-.05.937-.105 1.324-.156.332-.11.66-.215.883-.375.219-.156.387-.371.496-.637.11-.265.164-.582.219-.957.058-.37.058-.793.058-1.324v-8.34h4.633v9.774c0 .742-.055 1.379-.164 1.964-.113.582-.277 1.063-.555 1.485a2.825 2.825 0 0 1-1.101 1.012c-.442.265-1.051.476-1.711.636-.719.16-1.543.266-2.485.32a63.26 63.26 0 0 1-3.363.106zm0 0"/></clipPath><clipPath id="r"><path d="M23 97h22v17H23zm0 0"/></clipPath><clipPath id="s"><path d="M44.137 113.129h-6.895l-9.105-11.313h-.11v11.313h-4.523V97.992h7.008l9.047 11.313h.054V97.992h4.524zm0 0"/></clipPath><clipPath id="t"><path d="M47 97h19v17H47zm0 0"/></clipPath><clipPath id="u"><path d="M65.984 113.129h-4.578v-1.223c0-.426 0-.797-.054-1.168-.055-.32-.11-.582-.22-.797-.112-.21-.277-.425-.5-.53-.218-.161-.495-.212-.882-.317-.328-.055-.77-.11-1.324-.16-.496 0-1.156-.055-1.875-.055h-4.633v4.195H47.34V97.938h12.246c1.27 0 2.316.054 3.144.214.829.157 1.489.422 1.93.743.5.37.828.851.996 1.433.164.586.274 1.328.274 2.18v.531c0 .582-.055 1.113-.164 1.54-.11.425-.278.847-.496 1.167a2.89 2.89 0 0 1-.829.797c-.332.21-.773.371-1.27.477v.109c.552.105.993.21 1.38.316.332.16.61.32.828.586.223.266.332.637.387 1.063.054.422.109.953.109 1.644v2.39zm-8.273-7.488c.773 0 1.434 0 1.93-.055.496-.05.828-.16 1.105-.316a1.47 1.47 0 0 0 .496-.641 5.29 5.29 0 0 0 .11-1.059v-.265a5.3 5.3 0 0 0-.11-1.063.777.777 0 0 0-.496-.586c-.277-.16-.61-.21-1.105-.265-.496-.055-1.102-.055-1.875-.055h-5.793v4.305zm0 0"/></clipPath><clipPath id="v"><path d="M68.965 97.992h16.883v3.344H68.965zm0 3.344h4.637v2.55h-4.637zm0 2.55h16.222v3.188H68.965zm0 3.188h4.637v2.602h-4.637zm0 2.602h17.16v3.453h-17.16zm0 0"/></clipPath><clipPath id="w"><path d="M87 97h23v17H87zm0 0"/></clipPath><clipPath id="x"><path d="M109.738 113.129h-5.02l-1.437-2.711h-9.82l-1.434 2.71h-4.965l8.442-15.136h5.683zm-8.11-5.895-3.202-6.109h-.11l-3.199 6.11zm0 0"/></clipPath><clipPath id="y"><path d="M111.45 97.992h4.632v11.633h-4.633zm0 11.633h15.171v3.504H111.45zm0 0"/></clipPath><clipPath id="z"><path d="M68.965 118.016h2.648v8.601h-2.648zm0 0"/></clipPath><g id="o" clip-path="url(#a)"><g clip-path="url(#b)"><g clip-path="url(#c)"><path style="stroke:none;fill-rule:nonzero;fill:#2e2e2c;fill-opacity:1" d="M72.938 117.379h13.019v9.824h-13.02zm0 0"/></g></g><g clip-path="url(#d)"><path style="stroke:none;fill-rule:nonzero;fill:#2e2e2c;fill-opacity:1" d="M86.73 117.379h11.036v9.824H86.73zm0 0"/></g></g></defs><g clip-path="url(#e)"><g clip-path="url(#f)"><path style="stroke:none;fill-rule:nonzero;fill:#2e2e2c;fill-opacity:1" d="M29.629 17.793h64.883v54.918H29.629zm0 0"/></g></g><g clip-path="url(#g)"><g clip-path="url(#h)"><path style="stroke:none;fill-rule:nonzero;fill:#2e2e2c;fill-opacity:1" d="M17.215.16h93.02v90.29h-93.02zm0 0"/></g></g><g clip-path="url(#i)"><path style="stroke:none;fill-rule:nonzero;fill:#2e2e2c;fill-opacity:1" d="M30.125 117.324h11.09v9.934h-11.09zm0 0"/></g><g clip-path="url(#j)"><g clip-path="url(#k)"><path style="stroke:none;fill-rule:nonzero;fill:#2e2e2c;fill-opacity:1" d="M41.434 117.324h13.132v9.934H41.434zm0 0"/></g></g><g clip-path="url(#l)"><g clip-path="url(#m)"><path style="stroke:none;fill-rule:nonzero;fill:#2e2e2c;fill-opacity:1" d="M55.227 117.27h12.582v10.039H55.227zm0 0"/></g></g><g clip-path="url(#n)"><use xlink:href="#o"/></g><g clip-path="url(#p)"><g clip-path="url(#q)"><path style="stroke:none;fill-rule:nonzero;fill:#2e2e2c;fill-opacity:1" d="M.387 97.355H21.02v16.57H.387zm0 0"/></g></g><g clip-path="url(#r)"><g clip-path="url(#s)"><path style="stroke:none;fill-rule:nonzero;fill:#2e2e2c;fill-opacity:1" d="M22.84 97.355H44.8v16.41H22.84zm0 0"/></g></g><g clip-path="url(#t)"><g clip-path="url(#u)"><path style="stroke:none;fill-rule:nonzero;fill:#2e2e2c;fill-opacity:1" d="M46.73 97.355h19.918v16.41H46.73zm0 0"/></g></g><g clip-path="url(#v)"><path style="stroke:none;fill-rule:nonzero;fill:#2e2e2c;fill-opacity:1" d="M68.36 97.355h18.425v16.41H68.36zm0 0"/></g><g clip-path="url(#w)"><g clip-path="url(#x)"><path style="stroke:none;fill-rule:nonzero;fill:#2e2e2c;fill-opacity:1" d="M86.457 97.355h23.941v16.41H86.457zm0 0"/></g></g><g clip-path="url(#y)"><path style="stroke:none;fill-rule:nonzero;fill:#2e2e2c;fill-opacity:1" d="M110.785 97.355h16.442v16.41h-16.442zm0 0"/></g><g clip-path="url(#z)"><path style="stroke:none;fill-rule:nonzero;fill:#2e2e2c;fill-opacity:1" d="M68.305 117.379h3.914v9.824h-3.914zm0 0"/></g></svg>
