<svg viewBox="0 0 128 128" xmlns="http://www.w3.org/2000/svg"><g fill-rule="evenodd"><path d="M100.61 72.875c-1.063 5.121-5.785 18.266-20.852 25.379l-6.05-6.8-10.212 10.261A37.67 37.67 0 0133.7 86.43c1.086.34 2.203.551 3.336.63 1.672.03 3.485-.583 3.485-3.391V55.974a4.57 4.57 0 00-5.735-4.57c-4.726 1.089-8.504 12.882-8.504 12.882a37.509 37.509 0 0112.98-28.738 38.043 38.043 0 0119.148-8.836c-5.16 2.942-8.058 7.739-8.058 11.762 0 6.477 3.898 5.692 5.054 4.739v37.379c.196.468.453.91.762 1.316a5.528 5.528 0 004.516 2.285c3.902 0 8.968-4.457 8.968-4.457V49.478c0-3.078-2.32-6.793-4.644-8.07 0 0 4.3-.762 7.621 1.777a28.338 28.338 0 011.984-2.183c7.747-7.598 15.04-9.762 21.117-10.844 0 0-11.047 8.683-11.047 20.332 0 8.664.223 29.789.223 29.789 4.098 3.957 10.195-1.758 15.703-7.403z"/><path d="M64 2.383C29.973 2.383 2.383 29.973 2.383 64S29.973 125.617 64 125.617 125.617 98.027 125.617 64 98.027 2.383 64 2.383zm0 120.77C31.332 123.153 4.848 96.669 4.848 64 4.852 31.333 31.336 4.849 64.004 4.853c32.668 0 59.148 26.484 59.148 59.152S96.668 123.157 64 123.157z"/></g></svg>
