<svg xmlns="http://www.w3.org/2000/svg" viewBox="0 0 128 128"><path fill="#512fc9" fill-rule="evenodd" d="M15.574 50.531a.583.583 0 0 1 .27.121.59.59 0 0 1 .168.246l.02.07.652 3.407c.875.34 1.703.797 2.453 1.363l.277.219 3.305-1.145c.21-.093.441-.027.601.16 1.137 1.29 2.059 2.848 2.594 4.485a.46.46 0 0 1 .035.29.503.503 0 0 1-.137.257l-.058.05-2.621 2.258c.094.504.12 1.051.12 1.583 0 .43-.019.863-.073 1.277l-.047.305 2.62 2.261a.488.488 0 0 1 .161.598c-.535 1.637-1.457 3.191-2.594 4.484-.144.164-.34.235-.53.184l-.071-.024-3.305-1.144a10 10 0 0 1-2.402 1.445l-.325.137-.656 3.402a.557.557 0 0 1-.457.442 14 14 0 0 1-2.594.25c-.882 0-1.738-.09-2.597-.25a.552.552 0 0 1-.27-.125.59.59 0 0 1-.168-.242l-.015-.075-.657-3.402a10.06 10.06 0 0 1-2.488-1.387l-.242-.195-3.3 1.144c-.216.09-.442.024-.606-.16C1.5 71.527.578 69.973.043 68.336a.488.488 0 0 1-.031-.29.47.47 0 0 1 .133-.257l.058-.05 2.621-2.262a9.322 9.322 0 0 1-.12-1.582c0-.426.019-.86.073-1.274l.047-.309-2.62-2.257a.524.524 0 0 1-.188-.27.498.498 0 0 1 .027-.328c.535-1.637 1.457-3.195 2.594-4.484a.552.552 0 0 1 .238-.172.533.533 0 0 1 .293-.012l.074.023 3.301 1.141a9.643 9.643 0 0 1 2.434-1.46l.296-.122.657-3.402a.545.545 0 0 1 .453-.438 13.05 13.05 0 0 1 5.191 0Zm73.313 9.125a3.9 3.9 0 0 1 1.832.438c.574.3 1.074.734 1.457 1.265.406.551.726 1.223.957 2.024.234.797.347 1.703.347 2.715 0 .949-.128 1.824-.394 2.625a6.632 6.632 0 0 1-1.113 2.093 5.06 5.06 0 0 1-1.711 1.383 4.807 4.807 0 0 1-2.207.5c-.66 0-1.215-.094-1.66-.277a4.63 4.63 0 0 1-1.223-.754v4.836h-3.79V59.898h2.345l.117.004a1 1 0 0 1 .476.157.815.815 0 0 1 .336.472l.281.926.188-.2a6.43 6.43 0 0 1 .602-.53 4.996 4.996 0 0 1 3.16-1.07Zm-33.34.438a6.633 6.633 0 0 0-2.305-.39c-.972 0-1.84.167-2.61.5a5.932 5.932 0 0 0-1.968 1.347 5.845 5.845 0 0 0-1.246 1.984 6.5 6.5 0 0 0-.434 2.395c0 1.117.168 2.097.508 2.941.336.844.797 1.547 1.38 2.113.581.57 1.26.996 2.042 1.286.777.285 1.61.43 2.496.43.434 0 .887-.032 1.363-.09a7.98 7.98 0 0 0 1.434-.329c.473-.16.941-.379 1.39-.656a5.45 5.45 0 0 0 1.098-.902l.168-.188-1.097-1.347c-.157-.22-.383-.333-.688-.333a1.43 1.43 0 0 0-.652.16c-.207.106-.438.223-.684.352-.273.14-.558.258-.851.356-.317.105-.696.156-1.137.156-.824 0-1.496-.238-2.016-.711-.488-.441-.8-1.137-.937-2.086l-.028-.207h7.309c.172 0 .313-.02.422-.059a.497.497 0 0 0 .262-.218c.074-.133.12-.278.136-.426.024-.18.035-.41.035-.692 0-.91-.14-1.722-.421-2.44a5.15 5.15 0 0 0-1.172-1.813 5.026 5.026 0 0 0-1.797-1.133Zm17.96-.39a6.617 6.617 0 0 1 2.305.39 5.003 5.003 0 0 1 1.797 1.129c.5.496.895 1.101 1.176 1.816.278.719.422 1.531.422 2.441 0 .282-.012.512-.039.692a1.177 1.177 0 0 1-.133.426.52.52 0 0 1-.265.218 1.175 1.175 0 0 1-.422.059h-7.309l.027.207c.141.95.454 1.645.938 2.086.523.477 1.195.71 2.02.71.437 0 .816-.05 1.136-.155a6.68 6.68 0 0 0 .848-.352c.25-.133.476-.25.683-.355.211-.106.426-.157.657-.157.3 0 .527.11.683.329l1.102 1.347-.172.188a5.515 5.515 0 0 1-1.094.902 6.845 6.845 0 0 1-1.394.656 7.51 7.51 0 0 1-1.43.328c-.477.059-.93.09-1.363.09-.852.008-1.7-.14-2.5-.43a5.749 5.749 0 0 1-2.043-1.285c-.582-.566-1.043-1.27-1.38-2.113-.339-.844-.507-1.824-.507-2.941 0-.844.145-1.64.434-2.395a5.905 5.905 0 0 1 1.246-1.984 6.017 6.017 0 0 1 1.968-1.348c.77-.332 1.641-.5 2.61-.5Zm30.282.452c-.793-.3-1.668-.453-2.629-.453-.969 0-1.851.152-2.648.453a5.856 5.856 0 0 0-2.051 1.285 5.682 5.682 0 0 0-1.332 2.04c-.317.796-.473 1.695-.473 2.69 0 1.005.156 1.911.473 2.72a5.787 5.787 0 0 0 1.332 2.054 5.886 5.886 0 0 0 2.05 1.297c.798.305 1.68.457 2.65.457.96 0 1.839-.152 2.628-.457a5.859 5.859 0 0 0 2.035-1.297 5.924 5.924 0 0 0 1.32-2.054c.313-.809.47-1.715.47-2.72 0-.995-.157-1.894-.47-2.69a5.828 5.828 0 0 0-1.32-2.04 5.772 5.772 0 0 0-2.035-1.285Zm20.523-3.918v3.684h3.079V62.5h-3.079v6.262l.004.12c.016.24.086.438.211.602.141.192.348.286.618.286.203.003.41-.043.59-.141l.199-.098a.494.494 0 0 1 .21-.039.442.442 0 0 1 .278.078c.07.051.14.137.215.25l1.148 1.785-.187.133c-.45.305-.946.535-1.465.688a6.537 6.537 0 0 1-1.895.273c-.601 0-1.133-.086-1.593-.261a3.139 3.139 0 0 1-1.165-.743 3.178 3.178 0 0 1-.714-1.16c-.168-.488-.25-1-.243-1.52V62.5h-1.078l-.093-.004a.72.72 0 0 1-.407-.184c-.136-.124-.207-.308-.207-.554v-1.469l2.016-.39.746-3.075.031-.094c.114-.328.383-.492.801-.492Zm-78.21 1.813v-3.258H31.945v3.258h5.012v14.453h4.133V58.05Zm18.921-3.742v18.195h-3.789V54.309Zm53.079 5.761c-.352-.277-.817-.414-1.395-.414-.684 0-1.316.207-1.894.621a5.935 5.935 0 0 0-1.407 1.457l-.156.23-.21-1.179a1.89 1.89 0 0 0-.118-.41.622.622 0 0 0-.192-.273.836.836 0 0 0-.32-.153 1.619 1.619 0 0 0-.336-.047l-.133-.004h-2.25v12.606h3.79v-7.73c.57-1.055 1.355-1.583 2.347-1.583.285 0 .524.02.711.055.188.04.348.059.488.059a.66.66 0 0 0 .391-.106.477.477 0 0 0 .172-.261l.023-.098ZM12.98 55.922c-4.359 0-7.886 3.57-7.886 7.969 0 4.402 3.527 7.972 7.886 7.972 4.356 0 7.887-3.57 7.887-7.972 0-4.399-3.531-7.97-7.89-7.97Zm73.836 6.695a3.15 3.15 0 0 1 .75-.082c.301 0 .575.063.82.184.243.12.454.32.63.601.175.282.312.649.41 1.102.097.453.144 1.012.144 1.676 0 .699-.062 1.289-.183 1.777-.121.484-.29.879-.508 1.184a1.975 1.975 0 0 1-.762.664 2.29 2.29 0 0 1-.965.203 3 3 0 0 1-1.054-.188 2.35 2.35 0 0 1-.805-.531l-.121-.129v-5.351c.152-.18.312-.356.488-.516.16-.148.34-.273.531-.371.192-.098.399-.172.625-.223Zm14.344-.117c-.898 0-1.55.305-1.969.914-.414.606-.62 1.535-.62 2.781 0 1.25.206 2.18.62 2.79.414.613 1.07.917 1.97.917.87 0 1.51-.304 1.925-.918.41-.609.617-1.539.617-2.789 0-1.246-.207-2.175-.617-2.78-.414-.61-1.055-.915-1.926-.915Zm-83.191.285V60.41h-9.98v2.375h3.8v5.7h2.379v-5.7Zm35.347-.48c-.726 0-1.293.207-1.703.613-.406.41-.675 1-.804 1.77h4.73c0-.293-.039-.59-.117-.876a2.097 2.097 0 0 0-.379-.757 1.897 1.897 0 0 0-.688-.543c-.289-.137-.632-.207-1.039-.207Zm18.567.613c.406-.406.972-.613 1.699-.613.406 0 .754.07 1.04.207.284.14.515.316.69.543.176.222.301.476.38.758.078.285.113.574.113.874h-4.727c.129-.769.399-1.359.805-1.769Zm0 0"/></svg>
