<svg xmlns="http://www.w3.org/2000/svg" viewBox="0 0 128 128"><path d="M89.2 86.8c6-7.3 8.8-15.7 8.5-25.2-.1-2.4-.5-4.7-1.1-7-1.6-6.1-4.8-11.3-8.9-15.9-3.3-3.7-6.7-7.3-10-10.9L58.7 7c-1.3-1.4-2.6-2.7-4-3.9C52 1 49 .6 45.8 1.6c-.9.3-1.8.7-2.6 1.2-.6.3-1.1.8-1.5 1.3-1.7 2.1-2.1 4.6-1.8 7.1.2 2.1 1.3 3.9 2.7 5.5 2.8 3 5.5 6 8.3 9.1l2.4 2.7c-.1.1-.1.2-.2.2l-.6.3c-5.7 2.7-11 6.1-15.5 10.5-3 2.9-5.7 6.1-7.5 9.9-2.8 6-3.6 12.3-3.1 18.9.2 2.8.9 5.4 1.8 8 1.6 4.2 4.1 7.9 7.2 11.2 6.5 7 14.5 10.7 24 11.3 1.8.1 3.7 0 5.6-.1 2.5-.1 4.9-.6 7.3-1.2 6.9-1.7 12.5-5.3 16.9-10.7zm-5.4-21.3c-1.1 2.9-2.9 5.3-5.1 7.4l-13.8 13c-1 .9-2 1.9-3.1 2.6-2.9 2-7.6.6-8.9-3.1-.4-1.3-.2-2.6.4-3.8.9-1.8 2.1-3.3 3.5-4.7 2.1-2.2 4.3-4.3 6.4-6.4.1-.1.3-.3.4-.5H56l-5.6.1c-2.4 0-4.8-.1-7.3-.2-.9 0-1.8-.1-2.6-.2-2.4-.5-3.7-2.1-4.2-4.5s.1-4.7 1.9-6.5c1-1 2.2-1.4 3.5-1.5 2.2-.1 4.4 0 6.6 0h15.3c-.7-.8-1.5-1.6-2.4-2.4-2.2-2.2-4.4-4.3-6.5-6.5-1.3-1.4-2.2-3-2.3-4.9 0-.9.2-1.8.7-2.6 1.2-2 3.1-3 5.4-3.1 2.2-.1 4 .8 5.5 2.2 2.5 2.3 4.8 4.8 7.2 7.2 2.5 2.5 5 5 7.5 7.6 1.6 1.6 3.1 3.4 4.2 5.4.6 1.1 1.1 2.3 1.1 3.5.1.7 0 1.3-.2 1.9zM15 110.4c-1-1.6-2.8-2.3-4.6-2.3-2 0-3.6.7-5 2.2-1.3 1.5-2 3.6-2 6.5 0 2.8.7 4.9 2.1 6.5 1.4 1.6 3 2.3 5 2.3.9 0 2-.2 2.9-.7.9-.5 1.6-1.2 2.6-2.1v2.3h4v-23h-5v8.3zm-.6 10.3c-.7.9-1.6 1.3-2.6 1.3-1.3 0-2.3-.6-3-1.7-.5-.8-.7-2.1-.7-3.9 0-1.7.4-2.9 1.1-3.8.7-.8 1.6-1.3 2.6-1.3 1.1 0 2 .4 2.7 1.3.7.8 1 2.2 1 4.2 0 1.8-.4 3.1-1.1 3.9zM31.9 108c-1.6 0-3.1.4-4.5 1.1-1.3.7-2.4 1.8-3.1 3.2-.7 1.4-1.1 2.8-1.1 4.3 0 1.9.4 3.6 1.1 4.9.7 1.3 1.8 2.4 3.2 3.1 1.4.7 2.9 1 4.4 1 2.5 0 4.5-.8 6.2-2.5 1.6-1.7 2.5-3.8 2.5-6.3s-.8-4.6-2.4-6.2c-1.7-1.8-3.8-2.6-6.3-2.6zm2.9 12.6c-.8.9-1.8 1.3-2.9 1.3-1.2 0-2.1-.4-2.9-1.3-.8-.9-1.2-2.2-1.2-3.8s.4-2.9 1.2-3.8c.8-.9 1.8-1.3 2.9-1.3 1.2 0 2.1.4 2.9 1.3.8.9 1.2 2.1 1.2 3.8 0 1.6-.4 2.9-1.2 3.8zm18.6.6c-.5.5-1.2.7-2.1.7-1.1 0-2-.4-2.7-1.2-.7-.8-1-2.2-1-4.2 0-1.8.3-3.1 1-3.8.7-.8 1.5-1.1 2.6-1.1.8 0 1.5.2 2 .7s.9 1.1 1 2l4.4-.8c-.5-1.8-1.4-3.1-2.6-4-1.2-.9-2.8-1.3-4.9-1.3-2.5 0-4.5.8-5.9 2.3-1.5 1.5-2.2 3.7-2.2 6.5 0 2.7.7 4.9 2.2 6.4 1.5 1.5 3.4 2.3 5.9 2.3 2.2 0 3.9-.5 5.2-1.5 1.3-1 2.2-2.5 2.6-4.5l-4.4-.7c-.2.9-.6 1.7-1.1 2.2zm14.5.7c-.3 0-.5-.1-.8-.2-.2-.1-.2-.3-.2-.6-.1-.2.1-1 .1-2.4V112h3v-4h-3v-5.5l-5 2.6v2.9h-2v4h2v7.3c0 1.6.2 2.6.2 3.1.1.7.4 1.3.7 1.7.3.4.8.8 1.4 1 .6.3 1.4.4 2.2.4 1.3 0 2.5-.2 3.5-.7l-.4-3.4c-.7.3-1.3.5-1.7.5zm10.9-13.3c-.6.4-1.8 1.1-1.8 2.2V108h-4v17h4v-5c0-2.9.1-4.7.4-5.6s.6-1.5 1-1.9c.4-.3 1-.5 1.6-.5.6 0 1.3.2 2.1.7l1.4-3.9c-.9-.6-1.8-.8-2.9-.8-.7 0-1.3.2-1.8.6zm6.2-.6h5v17h-5zm0-6h5v4h-5zm23.5 7.9c-.4-.5-1-1-1.8-1.4-.8-.4-1.9-.5-2.9-.5-2.2 0-3.8.9-5.8 2.8V108h-4v17h5v-7.4c0-1.9 0-3.2.2-3.9.2-.7.6-1.3 1.2-1.7.6-.4 1.3-.6 2-.6.6 0 1.1.1 1.5.4.4.3.6.7.8 1.2.2.5.2 1.7.2 3.5v8.4h5v-10.2c0-1.3-.3-2.3-.4-3-.1-.6-.6-1.2-1-1.8zm14.3 11.8c-.5.4-1.1.6-1.8.6-1 0-1.9-.4-2.6-1.1-.7-.7-1-2.1-1.1-3.1h11.1c.1-3-.6-5.9-2.1-7.5-1.4-1.6-3.4-2.5-5.9-2.5-2.2 0-4.1.8-5.5 2.4-1.5 1.6-2.2 3.8-2.2 6.5 0 2.3.6 4.3 1.7 5.8 1.4 1.9 3.6 2.9 6.5 2.9 1.8 0 3.4-.4 4.6-1.3 1.2-.8 2.1-2.1 2.7-3.7l-4.4-.7c-.2.7-.6 1.3-1 1.7zm-4.4-9.4c.6-.7 1.4-1 2.4-1 .9 0 1.7.2 2.3.9s1 1.8 1 2.8h-6.6c-.1-1 .3-2 .9-2.7z" fill="#F56D39"/></svg>