<svg xmlns="http://www.w3.org/2000/svg" viewBox="0 0 128 128"><path fill="#ffa116" d="M76.992.002C75.171-.035 73.362.627 72 1.998l-53.432 53.87c-5.19 5.237-7.904 12.464-7.904 20.454s2.715 15.447 7.904 20.674l23.004 23.26c5.19 5.221 12.363 7.744 20.283 7.744s15.095-2.731 20.295-7.969l13.803-14.064c2.72-2.742 2.625-7.281-.207-10.135s-7.334-2.948-10.049-.207l-14.273 13.904c-2.464 2.491-5.878 3.532-9.649 3.532s-7.18-1.04-9.654-3.532L29.197 86.26c-2.47-2.49-3.71-6.134-3.71-9.937s1.24-7.237 3.71-9.728l22.856-23.362c2.47-2.49 5.953-3.439 9.718-3.439 3.766 0 7.18 1.038 9.649 3.53l14.271 13.9c2.72 2.746 7.223 2.65 10.055-.203 2.832-2.86 2.927-7.398.207-10.14L82.15 32.823c-3.461-3.445-7.845-5.952-12.757-7.093l-.182-.04 13.05-13.35c2.732-2.74 2.636-7.284-.197-10.138a7.36 7.36 0 0 0-5.072-2.2M56.937 69.379c-3.712 0-6.718 3.22-6.718 7.178s3.001 7.18 6.718 7.18h53.678c3.712.005 6.72-3.217 6.72-7.18 0-3.958-3.008-7.178-6.72-7.178z"/></svg>
