<?xml version="1.0" encoding="UTF-8" standalone="no"?>
<svg xmlns:rdf="http://www.w3.org/1999/02/22-rdf-syntax-ns#" xmlns="http://www.w3.org/2000/svg" height="100" width="100" version="1.1" xmlns:cc="http://creativecommons.org/ns#" xmlns:dc="http://purl.org/dc/elements/1.1/" viewBox="0 0 80 80">
 <path fill="#000" d="M30.369,1.1947c11.124-2.7878,23.441-0.51995,32.745,6.2209,11.519,8.0134,18.188,22.463,16.673,36.429-0.69,5.656-4.509,10.945-9.914,12.944-3.729,1.551-7.826,1.38-11.779,1.398,9.448-9.08,10.022-25.52,1.094-35.138-7.037-8.319-19.452-10.829-29.402-6.669-6.615-3.909-15.077-4.016-21.854-0.422,5.7189-7.0813,13.491-12.666,22.437-14.763z"/>
 <path fill="#000" d="m33.623,19.813c4.9839-1.3356,10.416-1.2281,15.113,1.0309,7.9958,3.6304,13.285,12.549,12.209,21.334-0.50198,6.0058-4.0248,11.286-8.6054,15.015-3.801-1.776-5.63-5.729-7.306-9.314-4.392-9.125-4.868-19.972-11.411-28.066z"/>
 <path fill="#000" d="m6.1663,25.469c4.3116-4.3116,10.784-5.7369,16.682-4.6971-5.1005,4.8674-8.4888,11.626-8.4709,18.761-0.31374,8.946,4.5895,17.722,12.209,22.347,7.3504,4.6075,16.915,4.8047,24.723,1.2281,6.9112,2.0438,14.217,1.8555,21.2,0.25099-5.612,7.557-13.778,13.249-22.966,15.481-11.358,2.86-23.925,0.359-33.283-6.696-10.219-7.422-16.53-19.954-16.243-32.602-0.25995-5.324,2.492-10.38,6.1493-14.073z"/>
 <path fill="#000" d="m19.289,44.024c-1.7659-8.0137,2.0258-16.503,8.5247-21.298,4.966,3.1105,6.9739,8.8743,9.0536,14.046-3.1822,6.714-7.2697,13.043-9.5107,20.178-3.98-3.2987-7.1532-7.7538-8.0675-12.926z"/>
 <path fill="#000" d="m32.762,59.98c-0.45716-6.7498,2.994-12.8,5.5038-18.824,2.0527,6.5706,3.3435,13.795,8.1303,19.057-4.4909,1.1743-9.188,1.0757-13.634-0.23306z"/>
 <metadata>
  <rdf:RDF>
   <cc:Work rdf:about="">
    <dc:title/>
   </cc:Work>
  </rdf:RDF>
 </metadata>
</svg>
