<svg xmlns="http://www.w3.org/2000/svg" viewBox="0 0 128 128"><g fill="#D82C20"><path d="M21.8 31.9c4.8 2.3 31.6 13.1 35.8 15.1 4.2 2 7.2 2 12.6-.7 5.3-2.8 30.5-13.1 35.3-15.6 2.5-1.3 3.6-2.3 3.6-3.2v-9.1c0-.9-1.2-1.7-3.6-2.6l-34.5-13.4c-4.8-1.8-6.7-1.7-12.3.3-5.7 2-32.3 12.5-37 14.3-2.3.9-3.6 1.8-3.6 2.7h-.1v9.1c0 1 1.4 2 3.8 3.1zm43.6 1.3l-14.7-6.1 21.1-3.2-6.4 9.3zm31.9-14.5l-12.5 4.9-1.3.5-12.4-4.9 13.8-5.5 12.4 5zm-36.5-9l-2-3.8 6.3 2.5 6-2-1.6 3.9 6.1 2.3-7.9.8-1.8 4.2-2.8-4.6-9.1-.8 6.8-2.5zm-15.7 5.3c6.2 0 11.3 2 11.3 4.4 0 2.4-5 4.4-11.3 4.4-6.2 0-11.3-2-11.3-4.4 0-2.4 5.1-4.4 11.3-4.4zM21.8 47.5c4.8 2.3 31.6 13.1 35.8 15.1 4.2 2 7.2 2 12.6-.7 5.3-2.8 30.5-13.1 35.3-15.6 2.5-1.3 3.6-2.3 3.6-3.2v-9.1c0 .9-1.2 1.8-3.5 3.1-4.8 2.5-30 12.9-35.3 15.6-5.3 2.8-8.3 2.8-12.5.7-4.2-2-31.1-12.8-35.9-15.1-2.4-1.1-3.8-2.1-3.8-3v9.2c-.1.9 1.3 1.8 3.7 3zM21.8 62.5c4.8 2.3 31.6 13.1 35.8 15.1 4.2 2 7.2 2 12.6-.7 5.3-2.8 30.5-13.1 35.3-15.6 2.5-1.3 3.6-2.3 3.6-3.2v-9.1c0 .9-1.2 1.8-3.5 3.1-4.8 2.5-30 12.9-35.3 15.6-5.3 2.8-8.3 2.8-12.5.7-4.2-2-31.1-12.8-35.9-15.1-2.4-1.1-3.8-2.1-3.8-3v9.2c-.1.8 1.3 1.8 3.7 3zM21.4 97.6c0-1.9-1.5-3.4-3.5-3.4-3.3-.1-6.2 1.1-8.4 2.6-.5.2-.5.8-1.5 1.2v-.5c0-1.9-1.6-3.4-3.6-3.4-1.9 0-3.4 1.5-3.4 3.4v25.9c0 1.9 1.5 3.5 3.4 3.5 2 0 3.6-1.6 3.6-3.5v-12.4c1-.9 1.2-3.4 2.8-5.5.8-1.3 1.8-2.4 3.1-3.2 1.1-.9 2.5-1.3 4-1.3 2 .1 3.5-1.6 3.5-3.4zM35.3 94.1c-9 0-15.9 7.5-16 16.5.1 9 7.1 16.4 16.1 16.5 4.7 0 8.6-1.4 11.8-4.3 1.5-1.4.9-3.4 0-4.3-.9-1.1-3.5-1.3-4.9.2-1.6 1.3-4.5 1.8-6.8 1.6-2.3-.2-4.9-1.3-6.3-2.9-1.2-1.1-1.9-3.3-2.2-4.3h20.9c1.8 0 3-1.1 3.2-2.7.1-.1-.1-.5-.1-.6v-.3c0-9-7.1-15.4-15.7-15.4zm-8.7 12.9c.5-2 3.3-6.7 8.9-7 5.7.5 9.1 5 9.7 7h-18.6zM85 110.6v-26.1c0-1.9-1.5-3.6-3.5-3.6s-3.5 1.6-3.5 3.6v12.4c-3-1.7-5.7-2.8-8.9-2.8-8.9 0-16.1 7.5-16.1 16.5 0 8.9 7.1 16.4 16 16.4 3.3 0 6.4-1.1 8.9-2.8.3 1.6 1.7 2.8 3.5 2.8 2 0 3.6-1.6 3.6-3.6v-12.8zm-9.9 6.5c-1.6 1.7-3.8 2.7-6.2 2.7-2.4 0-4.5-1-6.2-2.7-1.6-1.6-2.6-4-2.6-6.5 0-2.6 1-5 2.6-6.6 1.6-1.7 3.8-2.7 6.2-2.7 2.4 0 4.5 1 6.2 2.7 1.6 1.6 2.6 4 2.6 6.6.1 2.5-.9 4.9-2.6 6.5zM93.5 80.9c-2 0-3.5 1.6-3.5 3.6v1.4c0 2 1.5 3.6 3.5 3.6s3.5-1.6 3.5-3.6v-1.4c0-2-1.5-3.6-3.5-3.6zM93.5 94.1c-2 0-3.5 1.5-3.5 3.6v25.7c0 2 1.5 3.6 3.5 3.6s3.5-1.6 3.5-3.6v-25.6c0-2.1-1.5-3.7-3.5-3.7zM125.6 112.4c-1.1-1.8-2.9-2.9-4.7-3.7-1.9-.9-3.9-1.7-6.1-1.7h-.1l-.1-.3c-2.2-.4-3.9-1.1-4.8-1.7-.5-.3-.7-.6-.7-.7-.1-.2-.1-.3-.1-.6s.2-.9 1.1-1.5c.9-.7 2.3-1.2 4-1.2 2.1 0 4 1.1 6.1 2.4 1.6 1.1 3.8.7 4.9-.9 1-1.6.5-3.8-1.1-4.9-2.1-1.4-5.3-3.6-9.9-3.6-3 0-5.8.9-8.1 2.4-2.2 1.6-3.9 4.2-3.9 7.2 0 1.5.4 3 1.1 4.1 1.2 1.8 2.8 2.7 4.5 3.6 1.7.8 3.7 1.5 5.7 1.5h.1c2.4 1 4.3 1.4 5.3 2.1.5.3.8.7.9.9.1.2.2.4.2.7 0 .5-.3 1.2-1.2 2-1.1.7-2.7 1.3-4.5 1.3-2.6.1-5.5-1.4-7.2-2.9-1.4-1.3-3.8-1-4.9.5-1.2 1.4-1 3.7.5 4.9 2.6 2.1 6.6 4.5 11.7 4.5 3.2 0 6.2-1 8.6-2.6 2.4-1.7 4.1-4.4 4.1-7.6-.1-1.4-.6-2.9-1.4-4.2z"/></g></svg>
