<svg id="Stylus" xmlns="http://www.w3.org/2000/svg" viewBox="0 0 128 128"><defs><style>.cls-1{fill:#333;}</style></defs><title>Artboard 12</title><g id="original"><path class="cls-1" d="M20.62,85.39c3.25-3.89,3.64-7.91,1.12-15.37-1.59-4.72-4.24-8.36-2.3-11.29,2.07-3.13,6.47-.1,2.81,4.08l.73.51c4.4.51,6.57-5.52,3.28-7.24C17.59,51.55,10,60.26,13.35,70.34c1.44,4.27,3.44,8.8,1.82,12.41-1.4,3.09-4.11,4.91-5.93,5C5.44,87.91,8,79.2,12.33,77c.38-.19.92-.45.41-1.08-5.39-.61-8.55,1.88-10.36,5.36C-2.91,91.42,12.43,95.15,20.62,85.39Z"/><path class="cls-1" d="M115.34,55.67c1.24,3.06,3.13,6.09,2,8.77-.92,2.3-2.14,3.25-3.48,3.48-1.88.32-1.37-5.58,1.85-7.33.29-.16.7-.92.32-1.37-4.08-.22-6.38,1.72-7.62,4.31-3.6,7.56,8.16,9.63,13.94,2.2,2.3-3,2.39-5.9.19-11.23-1.4-3.38-3.54-5.9-2.2-8.13s4.88-.32,2.3,2.84l.57.32c3.35.19,4.72-4.27,2.17-5.39C118.65,41.25,112.37,48.49,115.34,55.67Z"/><path class="cls-1" d="M72.73,47.6C70.4,45.75,63.87,48.84,62,53.44c-2.33,5.84-5.77,14.35-9.15,18.08-3.57,3.92-3.92.89-3.57-1.37.83-5.33,6-17.67,8.87-21.14-1.05-1.56-7.94-1.34-12.72,6.09C43.65,57.9,39.57,67.24,35,74.61c-1,1.59-2.23.48-1.28-3.25,1.08-4.31,4.27-16.14,8.39-25.45,10.78-2.14,22.23-3.64,31-3.67,1.18-.32,2-1.37,0-1.44-7.56-.26-18.91.64-29.53,2,2-4.08,4.24-7.33,6.47-8.71-2.42-1.53-7.33-.92-10.14,3.22a55,55,0,0,0-3.67,6.51C28.5,45,21.84,46.39,18.46,47.66s-3.13,5.58-1,4.78a141.67,141.67,0,0,1,17.09-4.91C30.32,57.1,27,68.39,26.2,73c-2,11.16,4.94,11.1,8.32,6.7C38.2,74.87,45.85,57.93,47,56.15c.35-.61.83-.29.57.26-8.55,17.06-7.81,23.66-.89,22.2,3.13-.67,8.51-6,9.92-8.8.29-.67.89-.61.77-.32C52,83.54,45.08,94.92,40.46,98.5c-4.21,3.22-7.33-3.76,7.56-13.78,2.2-1.5,1.18-3.54-1.31-2.84h0C39,83.09,17,90.08,7.36,96.77c-.73.51-1.4.92-1.37,2,0,.61,1.08.38,1.59.06,12.5-7.49,22.74-10.43,34.47-12.88a.71.71,0,0,0,.51,0c.54-.13.51.16.16.38-.8.45-1.59.86-1.79.92-7.91,3.09-12.69,9.92-11,13.39,1.44,3,9.18,1.91,12.85-.06,9-4.88,15.53-14.45,20-27.65C66.67,61.25,71.58,48,72.73,47.6Z"/><path class="cls-1" d="M125,74.61c-14.64-1.91-46.21.64-60.15,4.34-4.15,1.08-3,3.28-.89,2.87l1-.22c11.45-2.23,39.23-4.18,55.43-1.08C122.29,80.86,128.13,75,125,74.61Z"/><path class="cls-1" d="M76.81,72.89C80.9,70.85,87,58.22,90.94,51.3c.29-.51.8-.1.51.26-10.08,17.35-5.8,19.36-1.82,19.1C95,70.34,99.87,62.68,101,61c.45-.67.7-.13.45.35-.26.8-1.18,2.2-2,4.11-1.21,2.71.06,3.76,1.12,4.24,1.66.8,6.19.29,6.89-2.49-4.53-.1,6.31-21.46,7.43-22.77-3-1.75-7.72.16-9.85,4.37-4.56,9-8.39,16.3-10.78,16.42-4.66.26,5.36-20.12,7-20.76-1-1.44-7.33-.83-10.87,4.66-1.28,2-9.06,15.75-11,18-3.38,4-3.64.57-2.68-3.44a47.34,47.34,0,0,1,1.56-5.07c2.23-5,4.62-6.63,6.09-8.26,9.85-10.94,15.5-19.8,13.27-23.28-2-3.09-8.58-1.72-12.82,4.66-7.81,11.7-15,27.74-15.95,35.08S73.21,74.67,76.81,72.89ZM81,51.43c.35-.8.57-1,1.18-2.36h0C85.65,41.35,90,33.22,93.08,29.42c1.88-2,4.53.7-.26,8a73.73,73.73,0,0,1-9.47,11.83v0c-.89,1-1.69,1.82-2,2.3C81.06,51.94,80.77,51.87,81,51.43Z"/></g></svg>