<svg xmlns="http://www.w3.org/2000/svg" version="1.1" viewBox="0 0 128 128">
  <g transform="translate(0 -263.13)">
    <path d="m105.09 310.1a3.54 3.54 0 0 0-3.54 3.54v1.34a3.54 3.54 0 0 0 3.54 3.54h19.38a3.54 3.54 0 0 0 3.54-3.54v-1.34a3.54 3.54 0 0 0-3.54-3.54z" style="color-rendering:auto;dominant-baseline:auto;fill:#717a83;font-feature-settings:normal;font-variant-alternates:normal;font-variant-caps:normal;font-variant-ligatures:normal;font-variant-numeric:normal;font-variant-position:normal;image-rendering:auto;isolation:auto;mix-blend-mode:normal;shape-padding:0;shape-rendering:auto;solid-color:#000000;text-decoration-color:#000000;text-decoration-line:none;text-decoration-style:solid;text-indent:0;text-orientation:mixed;text-transform:none;white-space:normal"/>
    <path d="m3.54 292.06a3.54 3.54 0 0 0-3.54 3.54v1.35a3.54 3.54 0 0 0 3.54 3.54h19.38a3.54 3.54 0 0 0 3.54-3.54v-1.35a3.54 3.54 0 0 0-3.54-3.54z" style="color-rendering:auto;dominant-baseline:auto;fill:#717a83;font-feature-settings:normal;font-variant-alternates:normal;font-variant-caps:normal;font-variant-ligatures:normal;font-variant-numeric:normal;font-variant-position:normal;image-rendering:auto;isolation:auto;mix-blend-mode:normal;shape-padding:0;shape-rendering:auto;solid-color:#000000;text-decoration-color:#000000;text-decoration-line:none;text-decoration-style:solid;text-indent:0;text-orientation:mixed;text-transform:none;white-space:normal"/>
    <path d="m3.54 328.13a3.54 3.54 0 0 0-3.54 3.54v1.34a3.54 3.54 0 0 0 3.54 3.54h19.38a3.54 3.54 0 0 0 3.54-3.54v-1.34a3.54 3.54 0 0 0-3.54-3.54z" style="color-rendering:auto;dominant-baseline:auto;fill:#717a83;font-feature-settings:normal;font-variant-alternates:normal;font-variant-caps:normal;font-variant-ligatures:normal;font-variant-numeric:normal;font-variant-position:normal;image-rendering:auto;isolation:auto;mix-blend-mode:normal;shape-padding:0;shape-rendering:auto;solid-color:#000000;text-decoration-color:#000000;text-decoration-line:none;text-decoration-style:solid;text-indent:0;text-orientation:mixed;text-transform:none;white-space:normal"/>
    <path d="m29.76 272.72c-4.42-0.09-8.06 2.99-8.06 6.82v69.43c0 5.25 6.56 8.53 11.81 5.91l69.49-34.72c5.25-2.62 5.25-9.18 0-11.8l-69.49-34.72c-1.14-0.57-2.43-0.88-3.75-0.91z" style="color-rendering:auto;dominant-baseline:auto;fill:#ffd500;font-feature-settings:normal;font-variant-alternates:normal;font-variant-caps:normal;font-variant-ligatures:normal;font-variant-numeric:normal;font-variant-position:normal;image-rendering:auto;isolation:auto;mix-blend-mode:normal;shape-padding:0;shape-rendering:auto;solid-color:#000000;text-decoration-color:#000000;text-decoration-line:none;text-decoration-style:solid;text-indent:0;text-orientation:mixed;text-transform:none;white-space:normal"/>
    <path d="m64.54 317.33h-11.95v11.99h-6.15v-11.98h-11.95v-6.08h11.95v-11.98h6.15v11.99h11.95z"/>
    <path d="m93.54 365.65c-0.88 0-0.99 1.84-0.13 2.16 0.23 0.09 0.52 0.28 0.63 0.43 0.12 0.15 0.81 2.58 1.54 5.4 1.84 7.09 3.22 12.14 3.45 12.68 0.18 0.41 0.31 0.45 1.42 0.4l1.22-0.06 1.55-5.23c2.77-9.35 3.2-10.68 3.4-10.68 0.22 0 0.25 0.1 2.72 9.21l1.82 6.7 1.23 0.06c1.12 0.05 1.25 0.02 1.43-0.4 0.22-0.5 1.66-5.79 3.57-13.07 1.15-4.39 1.29-4.78 1.9-5.34 0.51-0.47 0.65-0.76 0.65-1.31 0-0.84-0.38-1.04-1.59-0.83-1.42 0.24-1.73 0.98-3.82 9.17-1.63 6.41-2.08 7.86-2.3 7.47-0.09-0.16-1.11-3.84-2.26-8.17-1.15-4.33-2.19-7.98-2.3-8.12-0.12-0.14-0.6-0.25-1.09-0.25-0.8 0-0.89 0.06-1.14 0.64-0.2 0.48-3.32 10.91-4.62 15.47-0.07 0.24-0.21 0.45-0.32 0.46-0.25 0.02-0.41-0.49-2.18-7.4-1.62-6.31-2.17-8.13-2.58-8.6-0.3-0.34-1.54-0.77-2.22-0.77zm-57.16 0.03c-0.8 0.06-1.06 0.39-1 1.11 0.05 0.66 0.12 0.73 0.69 0.79 1.17 0.11 1.14-0.15 1.22 9.94l0.07 9.25 1.02-0.06c0.99-0.06 1.02-0.08 1.08-0.7 0.08-0.8 0.5-0.84 1.25-0.12 0.3 0.29 1.01 0.68 1.59 0.88 3.07 1.06 6.19-0.27 7.8-3.31 1.83-3.47 1.15-8.17-1.54-10.59-2.12-1.91-5.4-2-7.87-0.23-0.54 0.39-1.02 0.71-1.07 0.71-0.05 0-0.11-1.51-0.15-3.35-0.07-3.99-0.13-4.11-2.07-4.28-0.4-0.04-0.73-0.05-1-0.03zm-30.27 0.01c-0.31 0.02-0.56 0.07-0.72 0.15-0.35 0.19-0.43 0.38-0.38 0.96 0.05 0.66 0.14 0.75 0.87 0.98l0.8 0.26 0.13 2.5c0.07 1.38 0.13 5.4 0.13 8.93 0 5.87 0.03 6.46 0.35 6.73 0.19 0.17 0.48 0.35 0.64 0.41 0.16 0.06 2.6 0.12 5.41 0.13 4.99 0.02 5.12 0 5.57-0.41 0.4-0.38 0.46-0.61 0.46-1.97v-1.54h-0.98c-0.91 0-0.99 0.04-1.1 0.55-0.22 1.04-0.35 1.12-1.98 1.28-1.98 0.2-5.53 0.09-5.79-0.17-0.13-0.13-0.25-3.5-0.35-9.11-0.13-7.87-0.19-8.94-0.47-9.23-0.31-0.31-1.67-0.5-2.59-0.44zm78.16 0c-3.2-0.03-6.01-0.01-6.25 0.05-0.53 0.13-0.79 1.08-0.47 1.68 0.15 0.28 0.41 0.41 0.86 0.41h0.66l0.12 8.78c0.13 9.39 0.17 9.7 1.12 9.97 0.27 0.08 2.86 0.15 5.76 0.16l5.26 0.02 0.41-0.52c0.33-0.42 0.41-0.8 0.41-1.97v-1.45h-0.74c-0.94 0-1.12 0.14-1.35 0.98-0.17 0.61-0.28 0.7-1.07 0.85-0.86 0.16-6.85 0.05-7.03-0.13-0.05-0.05-0.15-1.69-0.21-3.65l-0.11-3.57h7.73l0.06-0.54c0.03-0.3 0.03-0.79-0.01-1.09l-0.07-0.55h-7.65v-7.29h3.25c3.5 0 4.25 0.14 4.25 0.8 0 0.81 0.36 1.17 1.16 1.17h0.75l0.12-0.97c0.17-1.45-0.03-2.35-0.62-2.74-0.44-0.29-1.28-0.34-6.33-0.39zm-13.81 0.01c-2.55 0.05-4.8 0.15-4.98 0.24-0.19 0.08-0.56 0.61-0.83 1.17-0.46 0.95-3.48 9.07-5.14 13.79-0.42 1.21-0.85 2.12-1 2.12-0.14 0-0.39-0.38-0.55-0.84-4.94-13.56-5.77-15.67-6.3-16.01-0.66-0.42-1.86-0.59-2.2-0.3-0.17 0.14-0.3 0.57-0.3 1 0 0.58 0.09 0.78 0.4 0.88 0.6 0.19 1.06 1.24 4.3 9.85 1.64 4.34 3.08 8.18 3.22 8.53 0.24 0.63 0.28 0.63 1.45 0.63h1.2l3.54-9.46 3.54-9.46 2.32-0.01h2.31v16.96h-0.75c-0.88 0-1.23 0.28-1.23 0.99 0 0.91 0.27 0.98 3.29 0.98h2.82v-0.98c0-0.98 0-0.99-0.63-0.99-0.35 0-0.74-0.07-0.86-0.15-0.15-0.1-0.25-2.75-0.33-8.48l-0.11-8.33h0.75c0.84 0 1.24-0.35 1.24-1.09 0-1.11-0.1-1.13-5.17-1.04zm51.11 0.15 0.2 0.79c0.22 0.87 0.48 1.02 0.58 0.35 0.07-0.49 0.56-0.74 0.56-0.29 0 0.39 0.16 0.48 1.12 0.63 0.87 0.14 1.11-0.1 0.9-0.9-0.09-0.35-0.21-0.42-0.66-0.32-0.31 0.06-0.61 0.03-0.67-0.07-0.06-0.11-0.55-0.19-1.08-0.19zm-94.23 5.71c-2.12 0-2.64 0.06-3.34 0.4-1.21 0.58-1.52 1.03-1.62 2.28l-0.09 1.09 0.96-0.06c0.89-0.06 0.99-0.12 1.3-0.78 0.42-0.9 1.21-1.24 2.83-1.23 0.91 0.01 1.45 0.14 2.09 0.49 0.73 0.4 0.91 0.63 1.25 1.6 0.52 1.52 0.35 1.78-1.3 1.97-4.18 0.48-5.49 0.87-6.87 2.03-1.41 1.19-1.83 3.54-0.94 5.23 0.48 0.92 1.87 2.02 2.97 2.33 0.97 0.28 2.56 0.24 3.49-0.09 0.47-0.17 1.32-0.65 1.88-1.08l1.03-0.78 0.24 0.59c0.13 0.32 0.43 0.72 0.66 0.88 0.58 0.4 2.76 0.39 3.17-0.02 0.6-0.6 0.21-1.37-0.85-1.65l-0.75-0.2-0.14-4.48c-0.08-2.47-0.23-4.86-0.35-5.31-0.26-1.02-1.33-2.31-2.35-2.83-0.64-0.33-1.16-0.39-3.27-0.39zm16.86 1.98c1.97 0 3.15 0.77 4.01 2.66 0.66 1.44 0.64 4.48-0.02 5.97-0.54 1.22-1.9 2.51-2.95 2.8-0.94 0.26-1.54 0.24-2.45-0.08-1.3-0.46-2.13-1.33-2.71-2.86-0.61-1.59-0.71-3.31-0.3-4.85 0.67-2.48 2.08-3.64 4.41-3.64zm-13.12 5.65-0.14 1.16c-0.26 2.23-1.63 4.16-3.28 4.62-2.08 0.58-3.86-0.27-4.08-1.94-0.15-1.1 0.03-1.65 0.75-2.36 0.87-0.85 2.09-1.21 4.59-1.36z"/>
  </g>
</svg>
