<?xml version="1.0" encoding="UTF-8" standalone="no"?>
<svg
   xmlns:dc="http://purl.org/dc/elements/1.1/"
   xmlns:cc="http://creativecommons.org/ns#"
   xmlns:rdf="http://www.w3.org/1999/02/22-rdf-syntax-ns#"
   xmlns:svg="http://www.w3.org/2000/svg"
   xmlns="http://www.w3.org/2000/svg"
   xmlns:sodipodi="http://sodipodi.sourceforge.net/DTD/sodipodi-0.dtd"
   xmlns:inkscape="http://www.inkscape.org/namespaces/inkscape"
   version="1.1"
   viewBox="0 0 128 128"
   id="svg6"
   sodipodi:docname="labview-plain.svg"
   inkscape:version="1.0.2-2 (e86c870879, 2021-01-15)">
  <metadata
     id="metadata12">
    <rdf:RDF>
      <cc:Work
         rdf:about="">
        <dc:format>image/svg+xml</dc:format>
        <dc:type
           rdf:resource="http://purl.org/dc/dcmitype/StillImage" />
      </cc:Work>
    </rdf:RDF>
  </metadata>
  <defs
     id="defs10" />
  <sodipodi:namedview
     pagecolor="#ffffff"
     bordercolor="#666666"
     borderopacity="1"
     objecttolerance="10"
     gridtolerance="10"
     guidetolerance="10"
     inkscape:pageopacity="0"
     inkscape:pageshadow="2"
     inkscape:window-width="1440"
     inkscape:window-height="748"
     id="namedview8"
     showgrid="false"
     inkscape:zoom="2.265625"
     inkscape:cx="50.784224"
     inkscape:cy="75.518264"
     inkscape:window-x="-6"
     inkscape:window-y="-6"
     inkscape:window-maximized="1"
     inkscape:current-layer="svg6" />
  <g
     transform="translate(-1.5514932e-7,-266.81699)"
     id="g4">
    <path
       d="m 29.76,289.27733 c -4.42,-0.09 -8.06,2.99 -8.06,6.81 v 12.53 H 3.5400003 c -1.955088,0 -3.54000002848869,1.58491 -3.54000002848869,3.54 v 1.35 C 0.00551211,315.45851 1.5888109,317.03734 3.5400003,317.03733 H 21.7 v 27.65 H 3.5400003 c -1.955088,0 -3.54000002848869,1.58491 -3.54000002848869,3.54 v 1.34 c 0,1.95509 1.58491202848869,3.54 3.54000002848869,3.54 H 21.7 v 12.42 c 0,5.25 6.56,8.53 11.81,5.91 l 69.49,-34.72 c 0.89,-0.44 1.61,-1.01 2.2,-1.64 h 19.26 c 1.95509,0 3.54,-1.58491 3.54,-3.54 v -1.34 c 0,-1.95509 -1.58491,-3.54 -3.54,-3.54 h -19.15 c -0.6,-0.68 -1.37,-1.28 -2.31,-1.75 l -69.49,-34.72 c -1.14,-0.57 -2.43,-0.88 -3.75,-0.91 z m 16.68,26.55 h 6.15 v 11.99 h 11.95 v 6.08 H 52.59 v 11.98 h -6.15 v -11.98 H 34.49 v -6.08 h 11.96 z"
       style="color:#000000;font-variant-ligatures:normal;font-variant-position:normal;font-variant-caps:normal;font-variant-numeric:normal;font-variant-alternates:normal;font-feature-settings:normal;text-indent:0;text-decoration:none;text-decoration-line:none;text-decoration-style:solid;text-decoration-color:#000000;text-transform:none;text-orientation:mixed;dominant-baseline:auto;white-space:normal;shape-padding:0;isolation:auto;mix-blend-mode:normal;solid-color:#000000;color-rendering:auto;image-rendering:auto;shape-rendering:auto"
       id="path2"
       sodipodi:nodetypes="cscssccccsssscscccssssccccccccccccccccc" />
  </g>
</svg>
