<svg xmlns="http://www.w3.org/2000/svg" viewBox="0 0 128 128"><path d="M105.085 59.84a3.54 3.54 0 00-3.54 3.54v1.34a3.54 3.54 0 003.54 3.54h19.38a3.54 3.54 0 003.54-3.54v-1.34a3.54 3.54 0 00-3.54-3.54zM3.535 41.8a3.54 3.54 0 00-3.54 3.54v1.35a3.54 3.54 0 003.54 3.54h19.38a3.54 3.54 0 003.54-3.54v-1.35a3.54 3.54 0 00-3.54-3.54zM3.535 77.87a3.54 3.54 0 00-3.54 3.54v1.34a3.54 3.54 0 003.54 3.54h19.38a3.54 3.54 0 003.54-3.54v-1.34a3.54 3.54 0 00-3.54-3.54z" style="font-variant-ligatures:normal;font-variant-position:normal;font-variant-caps:normal;font-variant-numeric:normal;font-variant-alternates:normal;font-feature-settings:normal;text-indent:0;text-decoration-line:none;text-decoration-style:solid;text-decoration-color:#000;text-transform:none;text-orientation:mixed;white-space:normal;shape-padding:0;isolation:auto;mix-blend-mode:normal;solid-color:#000" opacity=".998" fill="#bec7cc"/><path d="M29.755 22.46c-4.42-.09-8.06 2.99-8.06 6.82v69.43c0 5.25 6.56 8.53 11.81 5.91l69.49-34.72c5.25-2.62 5.25-9.18 0-11.8l-69.49-34.72a8.856 8.856 0 00-3.75-.91z" style="font-variant-ligatures:normal;font-variant-position:normal;font-variant-caps:normal;font-variant-numeric:normal;font-variant-alternates:normal;font-feature-settings:normal;text-indent:0;text-decoration-line:none;text-decoration-style:solid;text-decoration-color:#000;text-transform:none;text-orientation:mixed;white-space:normal;shape-padding:0;isolation:auto;mix-blend-mode:normal;solid-color:#000" opacity=".998" fill="#ffd500"/><path d="M64.535 67.07h-11.95v11.99h-6.15V67.08h-11.95V61h11.95V49.02h6.15v11.99h11.95z" opacity=".998" fill="#727b84"/></svg>