<svg xmlns="http://www.w3.org/2000/svg" viewBox="0 0 128 128"><path d="M105.09 46.97a3.54 3.54 0 00-3.54 3.54v1.34a3.54 3.54 0 003.54 3.54h19.38a3.54 3.54 0 003.54-3.54v-1.34a3.54 3.54 0 00-3.54-3.54zM3.54 28.93A3.54 3.54 0 000 32.47v1.35a3.54 3.54 0 003.54 3.54h19.38a3.54 3.54 0 003.54-3.54v-1.35a3.54 3.54 0 00-3.54-3.54zM3.54 65A3.54 3.54 0 000 68.54v1.34a3.54 3.54 0 003.54 3.54h19.38a3.54 3.54 0 003.54-3.54v-1.34A3.54 3.54 0 0022.92 65z" style="font-variant-ligatures:normal;font-variant-position:normal;font-variant-caps:normal;font-variant-numeric:normal;font-variant-alternates:normal;font-feature-settings:normal;text-indent:0;text-decoration-line:none;text-decoration-style:solid;text-decoration-color:#000;text-transform:none;text-orientation:mixed;white-space:normal;shape-padding:0;isolation:auto;mix-blend-mode:normal;solid-color:#000" fill="#bec7cc"/><path d="M29.76 9.59c-4.42-.09-8.06 2.99-8.06 6.82v69.43c0 5.25 6.56 8.53 11.81 5.91L103 57.03c5.25-2.62 5.25-9.18 0-11.8L33.51 10.51a8.856 8.856 0 00-3.75-.91z" style="font-variant-ligatures:normal;font-variant-position:normal;font-variant-caps:normal;font-variant-numeric:normal;font-variant-alternates:normal;font-feature-settings:normal;text-indent:0;text-decoration-line:none;text-decoration-style:solid;text-decoration-color:#000;text-transform:none;text-orientation:mixed;white-space:normal;shape-padding:0;isolation:auto;mix-blend-mode:normal;solid-color:#000" fill="#ffd500"/><path d="M64.54 54.2H52.59v11.99h-6.15V54.21H34.49v-6.08h11.95V36.15h6.15v11.99h11.95z" fill="#727b84"/><path d="M93.54 102.52c-.88 0-.99 1.84-.13 2.16.23.09.52.28.63.43.12.15.81 2.58 1.54 5.4 1.84 7.09 3.22 12.14 3.45 12.68.18.41.31.45 1.42.4l1.22-.06 1.55-5.23c2.77-9.35 3.2-10.68 3.4-10.68.22 0 .25.1 2.72 9.21l1.82 6.7 1.23.06c1.12.05 1.25.02 1.43-.4.22-.5 1.66-5.79 3.57-13.07 1.15-4.39 1.29-4.78 1.9-5.34.51-.47.65-.76.65-1.31 0-.84-.38-1.04-1.59-.83-1.42.24-1.73.98-3.82 9.17-1.63 6.41-2.08 7.86-2.3 7.47-.09-.16-1.11-3.84-2.26-8.17-1.15-4.33-2.19-7.98-2.3-8.12-.12-.14-.6-.25-1.09-.25-.8 0-.89.06-1.14.64-.2.48-3.32 10.91-4.62 15.47-.07.24-.21.45-.32.46-.25.02-.41-.49-2.18-7.4-1.62-6.31-2.17-8.13-2.58-8.6-.3-.34-1.54-.77-2.22-.77zm-57.16.03c-.8.06-1.06.39-1 1.11.05.66.12.73.69.79 1.17.11 1.14-.15 1.22 9.94l.07 9.25 1.02-.06c.99-.06 1.02-.08 1.08-.7.08-.8.5-.84 1.25-.12.3.29 1.01.68 1.59.88 3.07 1.06 6.19-.27 7.8-3.31 1.83-3.47 1.15-8.17-1.54-10.59-2.12-1.91-5.4-2-7.87-.23-.54.39-1.02.71-1.07.71-.05 0-.11-1.51-.15-3.35-.07-3.99-.13-4.11-2.07-4.28-.4-.04-.73-.05-1-.03zm-30.27.01c-.31.02-.56.07-.72.15-.35.19-.43.38-.38.96.05.66.14.75.87.98l.8.26.13 2.5c.07 1.38.13 5.4.13 8.93 0 5.87.03 6.46.35 6.73.19.17.48.35.64.41.16.06 2.6.12 5.41.13 4.99.02 5.12 0 5.57-.41.4-.38.46-.61.46-1.97v-1.54h-.98c-.91 0-.99.04-1.1.55-.22 1.04-.35 1.12-1.98 1.28-1.98.2-5.53.09-5.79-.17-.13-.13-.25-3.5-.35-9.11-.13-7.87-.19-8.94-.47-9.23-.31-.31-1.67-.5-2.59-.44zm78.16 0c-3.2-.03-6.01-.01-6.25.05-.53.13-.79 1.08-.47 1.68.15.28.41.41.86.41h.66l.12 8.78c.13 9.39.17 9.7 1.12 9.97.27.08 2.86.15 5.76.16l5.26.02.41-.52c.33-.42.41-.8.41-1.97v-1.45h-.74c-.94 0-1.12.14-1.35.98-.17.61-.28.7-1.07.85-.86.16-6.85.05-7.03-.13-.05-.05-.15-1.69-.21-3.65l-.11-3.57h7.73l.06-.54c.03-.3.03-.79-.01-1.09l-.07-.55H81.7v-7.29h3.25c3.5 0 4.25.14 4.25.8 0 .81.36 1.17 1.16 1.17h.75l.12-.97c.17-1.45-.03-2.35-.62-2.74-.44-.29-1.28-.34-6.33-.39zm-13.81.01c-2.55.05-4.8.15-4.98.24-.19.08-.56.61-.83 1.17-.46.95-3.48 9.07-5.14 13.79-.42 1.21-.85 2.12-1 2.12-.14 0-.39-.38-.55-.84-4.94-13.56-5.77-15.67-6.3-16.01-.66-.42-1.86-.59-2.2-.3-.17.14-.3.57-.3 1 0 .58.09.78.4.88.6.19 1.06 1.24 4.3 9.85 1.64 4.34 3.08 8.18 3.22 8.53.24.63.28.63 1.45.63h1.2l3.54-9.46 3.54-9.46 2.32-.01h2.31v16.96h-.75c-.88 0-1.23.28-1.23.99 0 .91.27.98 3.29.98h2.82v-.98c0-.98 0-.99-.63-.99-.35 0-.74-.07-.86-.15-.15-.1-.25-2.75-.33-8.48l-.11-8.33h.75c.84 0 1.24-.35 1.24-1.09 0-1.11-.1-1.13-5.17-1.04zm51.11.15l.2.79c.22.87.48 1.02.58.35.07-.49.56-.74.56-.29 0 .39.16.48 1.12.63.87.14 1.11-.1.9-.9-.09-.35-.21-.42-.66-.32-.31.06-.61.03-.67-.07-.06-.11-.55-.19-1.08-.19zm-94.23 5.71c-2.12 0-2.64.06-3.34.4-1.21.58-1.52 1.03-1.62 2.28l-.09 1.09.96-.06c.89-.06.99-.12 1.3-.78.42-.9 1.21-1.24 2.83-1.23.91.01 1.45.14 2.09.49.73.4.91.63 1.25 1.6.52 1.52.35 1.78-1.3 1.97-4.18.48-5.49.87-6.87 2.03-1.41 1.19-1.83 3.54-.94 5.23.48.92 1.87 2.02 2.97 2.33.97.28 2.56.24 3.49-.09.47-.17 1.32-.65 1.88-1.08l1.03-.78.24.59c.13.32.43.72.66.88.58.4 2.76.39 3.17-.02.6-.6.21-1.37-.85-1.65l-.75-.2-.14-4.48c-.08-2.47-.23-4.86-.35-5.31-.26-1.02-1.33-2.31-2.35-2.83-.64-.33-1.16-.39-3.27-.39zm16.86 1.98c1.97 0 3.15.77 4.01 2.66.66 1.44.64 4.48-.02 5.97-.54 1.22-1.9 2.51-2.95 2.8-.94.26-1.54.24-2.45-.08-1.3-.46-2.13-1.33-2.71-2.86-.61-1.59-.71-3.31-.3-4.85.67-2.48 2.08-3.64 4.41-3.64zm-13.12 5.65l-.14 1.16c-.26 2.23-1.63 4.16-3.28 4.62-2.08.58-3.86-.27-4.08-1.94-.15-1.1.03-1.65.75-2.36.87-.85 2.09-1.21 4.59-1.36z"/></svg>