<svg id="svg2" xmlns:rdf="http://www.w3.org/1999/02/22-rdf-syntax-ns#" xmlns="http://www.w3.org/2000/svg" viewBox="0 0 100 100" version="1.0" xmlns:cc="http://creativecommons.org/ns#" xmlns:dc="http://purl.org/dc/elements/1.1/">
 <metadata id="metadata3">
  <rdf:RDF>
   <cc:Work rdf:about="">
    <dc:title/>
    <dc:description/>
    <dc:subject>
     <rdf:Bag>
      <rdf:li>unsorted</rdf:li>
     </rdf:Bag>
    </dc:subject>
    <dc:publisher>
     <cc:Agent rdf:about="http://www.openclipart.org/">
      <dc:title>Open Clip Art Library, Source: Wikimedia Commons, Source: Wikimedia Commons, Source: Wikimedia Commons, Source: Wikimedia Commons</dc:title>
     </cc:Agent>
    </dc:publisher>
    <dc:creator>
     <cc:Agent>
      <dc:title/>
     </cc:Agent>
    </dc:creator>
    <dc:rights>
     <cc:Agent>
      <dc:title/>
     </cc:Agent>
    </dc:rights>
    <dc:date/>
    <dc:format>image/svg+xml</dc:format>
    <dc:type rdf:resource="http://purl.org/dc/dcmitype/StillImage"/>
    <cc:license rdf:resource="http://creativecommons.org/about/licenses/"/>
    <dc:language>en</dc:language>
   </cc:Work>
  </rdf:RDF>
 </metadata>
 <defs id="defs4"></defs>
 <path id="Geeko" fill="#82bf46" d="m47.593,24.414c-2.4954,0.0015-4.808,0.05888-5.897,0.17939-6.602,0.731-12.4,2.488-18.849,5.708-10.394,5.189-16.92,11.063-20.606,18.549-1.6503,3.352-2.2213,5.701-2.2406,9.212-0.012173,2.222,0.15088,3.4,0.72463,5.207,2.0668,6.509,7.9584,11.154,14.784,11.661,6.6051,0.49099,11.513-2.1231,13.706-7.2971,0.79485-1.8757,1.0336-3.5046,0.81209-5.5573-0.54174-5.0196-3.7893-8.8375-8.5873-10.101-1.4692-0.38683-3.7304-0.39895-5.1724-0.0042-3.9537,1.0824-6.8297,4.6464-5.7721,9.0452,0.89731,3.732,5.258,6.0708,8.9455,4.5893,1.4725-0.59155,2.3297-1.3074,1.9032-2.8788-0.43474-1.6014-1.5096-1.9792-3.569-1.4018-0.81063,0.22726-1.3841,0.08169-1.9906-0.46728-1.0176-0.92099-1.0013-2.3287,0.04164-3.3335,1.2695-1.2232,3.5904-1.3262,5.7096-0.25033,2.0973,1.0647,3.6295,4.0783,3.2983,6.4877-0.35546,2.5864-1.8394,4.3715-4.327,5.2026-0.83052,0.27748-1.1742,0.30946-3.1318,0.30457-2.101-0.007-2.256-0.026-3.437-0.423-4.4299-1.488-7.3563-5.523-7.3834-10.184-0.0171-2.943,1.0278-5.319,3.3484-7.61,2.181-2.153,4.999-3.205,8.587-3.204,4.4604,0.0016,8.1638,1.5608,11.407,4.8063,2.4405,2.4425,4.2832,5.7529,4.9933,8.9617l0.22488,1.018,6.4051,3.1416c0.05137-0.04699,0.03614-0.4782-0.03332-0.77186-0.26248-1.1098-0.30359-4.2001-0.07497-5.5072,0.3325-1.9009,0.78195-2.8902,1.7408-3.8384,1.4783-1.4619,3.303-2.0919,6.0719-2.0944,3.683-0.0033,6.8086,1.3461,9.6035,4.1513,0.62715,0.62945,1.9941,2.1204,3.0401,3.3127s2.0613,2.2819,2.2572,2.4198c0.54956,0.3869,8.0158,3.806,8.1084,3.7132,0.04504-0.04511-0.21967-0.52105-0.5914-1.0597-1.4549-2.1085-2.6886-4.8243-3.1609-6.955-0.32312-1.4576-0.23451-3.609,0.19158-4.5893,0.39892-0.9179,1.2494-1.6933,2.1489-1.9609,0.96347-0.28664,3.0665-0.26933,5.8887,0.05007,3.3848,0.38306,5.256,0.45659,7.4879,0.28785,5.0828-0.38425,8.4102-1.2202,12.136-3.0414,1.9469-0.95186,2.3608-1.3193,2.7819-2.4574,0.40153-1.0852,0.592-2.1236,0.38731-2.1236-0.0724,0-0.7561,0.29402-1.5201,0.65504-2.8666,1.3546-5.3278,1.9566-7.5129,1.8399-2.2715-0.12134-5.992-1.369-10.407-3.4921l-2.0115-0.96794-1.6408-3.9301,1.5325,0.95538c2.521,1.6741,6.598,3.6783,9.0829,4.4642,3.7962,1.2005,6.8173,1.044,9.8742-0.51317,1.0774-0.54883,3.0985-1.936,3.0985-2.1278,0-0.36149-1.0808-3.875-1.6825-5.4697-1.505-3.989-2.531-5.318-5.01-6.501-2.753-1.313-5.787-2.254-11.366-3.526-2.667-0.566-5.347-1.114-8.054-1.451l-0.06664,3.3043c-6.3061-1.9611-11.824-3.2575-17.933-3.8884-1.5786-0.16305-5.0874-0.25229-8.2958-0.25033zm41.783,6.7672c2.0372-0.0052,3.9812,1.0422,5.1182,2.9372,1.9389,3.2312,0.34948,7.4289-3.2775,8.653-2.3936,0.80783-5.2441-0.15759-6.6925-2.2655-1.1887-1.73-1.388-3.9636-0.52473-5.8368,0.49054-1.0644,1.658-2.3236,2.607-2.8078,0.89542-0.45699,1.8434-0.67771,2.7694-0.68007zm-0.06664,1.7273c-0.95467,0.0202-1.9274,0.37487-2.7486,1.1181-1.2538,1.1347-1.6564,3.1868-0.93288,4.7521,0.59403,1.2851,1.7191,2.1719,3.0318,2.3864,1.8615,0.30431,3.6249-0.56404,4.3978-2.1695,0.5287-1.0983,0.62288-1.8519,0.35815-2.8871-0.52547-2.0548-2.2837-3.2386-4.1063-3.2zm0.97451,2.1236c0.7077,0,1.5592,0.44239,1.6658,0.86779,0.14482,0.57809-0.05115,0.97741-0.61219,1.2642-0.86634,0.44279-1.9799,0.31751-2.632-0.29621-0.80395-0.75666,0.12399-1.8357,1.5784-1.8357z"/>
</svg>
