<?xml version="1.0" encoding="UTF-8" standalone="no"?>
<!-- Created with Inkscape (http://www.inkscape.org/) -->

<svg
   version="1.1"
   width="380"
   height="204.26097"
   id="svg3078"
   xml:space="preserve"
   sodipodi:docname="openal-plain.svg"
   inkscape:version="1.1.2 (b8e25be833, 2022-02-05)"
   xmlns:inkscape="http://www.inkscape.org/namespaces/inkscape"
   xmlns:sodipodi="http://sodipodi.sourceforge.net/DTD/sodipodi-0.dtd"
   xmlns="http://www.w3.org/2000/svg"
   xmlns:svg="http://www.w3.org/2000/svg"
   xmlns:rdf="http://www.w3.org/1999/02/22-rdf-syntax-ns#"
   xmlns:cc="http://creativecommons.org/ns#"
   xmlns:dc="http://purl.org/dc/elements/1.1/"><sodipodi:namedview
     id="namedview14"
     pagecolor="#ffffff"
     bordercolor="#666666"
     borderopacity="1.0"
     inkscape:pageshadow="2"
     inkscape:pageopacity="0.0"
     inkscape:pagecheckerboard="0"
     showgrid="false"
     fit-margin-top="0"
     fit-margin-left="0"
     fit-margin-right="0"
     fit-margin-bottom="0"
     inkscape:zoom="1.565"
     inkscape:cx="156.23003"
     inkscape:cy="70.607029"
     inkscape:window-width="1920"
     inkscape:window-height="991"
     inkscape:window-x="-9"
     inkscape:window-y="-9"
     inkscape:window-maximized="1"
     inkscape:current-layer="g3142" /><metadata
     id="metadata3084"><rdf:RDF><cc:Work
         rdf:about=""><dc:format>image/svg+xml</dc:format><dc:type
           rdf:resource="http://purl.org/dc/dcmitype/StillImage" /></cc:Work></rdf:RDF></metadata><defs
     id="defs3082" /><g
     transform="matrix(1.25,0,0,-1.25,-9.9999992,209.63049)"
     id="g3086"
     style="fill:#7e000d;fill-opacity:1"><g
       transform="matrix(0.61991192,0,0,0.61991192,7.5079443,3.7376882)"
       id="g3142"
       style="fill:#7e000d;fill-opacity:1"><path
         id="path3110"
         style="fill:#7e000d;fill-opacity:1;fill-rule:nonzero;stroke:none"
         d="m 451.119,92.407 h 12.019 c 6.638,0 12.019,5.3809 12.019,12.019 h 16.029 c 0,-15.4905 -12.557,-28.0475 -28.048,-28.0475 h -28.047 v 85.9555 h 16.028 V 92.407 m -56.094,69.918 c -15.49,0 -28.05,-12.56 -28.05,-28.05 v -57.9 h 16.075 c -0.0255,0 -0.0438,17.198528 -0.05,33.55 h 24.05 v -33.55 h 16.075 c -0.0255,0 -0.0438,17.198528 -0.05,33.55 -0.003,7.81021 6.6e-4,12.07936 0,16.025 -3.4e-4,2.04977 0,8.325 0,8.325 0,15.49 -12.559,28.05 -28.05,28.05 z m 0,-16.025 c 6.639,0 12.025,-5.387 12.025,-12.025 V 125.95 H 383 c -3.4e-4,2.04977 0,8.325 0,8.325 0,6.638 5.388,12.025 12.025,12.025 z M 122.564,134.287 v -29.861 c 0,-15.4905 -12.557,-28.0475 -28.0472,-28.0475 -4.3012,0 -8.3762,0.968 -12.0191,2.6985 V 51.1516 H 66.4691 V 156.324 c 0,0 6.5579,-0.509 10.6989,0 7.1066,0.874 7.3422,6.01 17.3488,6.01 15.4902,0 28.0472,-12.557 28.0472,-28.047 z m -16.028,0 c 0,6.638 -5.381,12.019 -12.0192,12.019 -6.6379,0 -12.0191,-5.381 -12.0191,-12.019 v -29.861 c 0,-6.6381 5.3812,-12.019 12.0191,-12.019 6.6382,0 12.0192,5.3809 12.0192,12.019 v 29.861 m -49.6473,0 v -29.861 c 0,-15.4905 -12.5571,-28.0475 -28.0473,-28.0475 -15.4906,0 -28.04765,12.557 -28.04765,28.0475 v 29.861 c 0,15.49 12.55705,28.047 28.04765,28.047 15.4902,0 28.0473,-12.557 28.0473,-28.047 z m -16.0285,0 c 0,6.638 -5.3809,12.019 -12.0188,12.019 -6.6383,0 -12.0191,-5.381 -12.0191,-12.019 v -29.861 c 0,-6.6381 5.3808,-12.019 12.0191,-12.019 6.6379,0 12.0188,5.3809 12.0188,12.019 v 29.861 M 251.8,76.3785 h -16.073 v 57.9085 c 0,6.638 -5.381,12.019 -12.018,12.019 -6.638,0 -12.02,-5.381 -12.02,-12.019 0,0 0,-57.9085 0.045,-57.9085 h -16.073 v 57.9085 c 0,15.49 12.557,28.047 28.048,28.047 15.49,0 28.047,-12.557 28.047,-28.047 0,0 0,-57.9085 0.044,-57.9085 m -92.5,85.9465 c -15.49,0 -28.05,-12.56 -28.05,-28.05 v -29.85 c 0,-15.490496 12.56,-28.05 28.05,-28.05 15.49,0 28.05,12.559504 28.05,28.05 h -16.025 c 0,-6.638104 -5.387,-12.025 -12.025,-12.025 -6.638,0 -12.025,5.386896 -12.025,12.025 v 6.925 h 24.05 v 16.025 h -24.05 v 6.9 c 0,6.638 5.387,12.025 12.025,12.025 6.638,0 12.025,-5.387 12.025,-12.025 h 16.025 c 0,15.49 -12.56,28.05 -28.05,28.05 z M 308.875,264.5 c -15.491,0 -28.05,-12.56 -28.05,-28.05 v -74.125 h -6 v -6 h 6 V 76.2 c 0,-15.4902 12.559,-28.05 28.05,-28.05 15.49,0 28.05,12.5598 28.05,28.05 v 80.125 h 6.025 v 6 h -6.025 v 74.125 c 0,15.49 -12.56,28.05 -28.05,28.05 z m 0,-13.025 v -89.15 H 291.85 v 72.125 c 0,9.405 7.62,17.025 17.025,17.025 z m -42.075,-11 -35.725,-0.75 29.35,-19.175 0.65,0.2 v -0.3 z m -5.725,-20.025 -0.075,-0.275 -0.575,0.375 -33.5,-10.35 33.5,-10.375 0.575,0.375 0.075,-0.25 z m 0,-20.5 v -0.325 l -0.65,0.2 -29.35,-19.175 35.725,-0.725 z m 89.875,40.525 5.75,-20.05 v 0.325 l 0.65,-0.2 29.325,19.175 z m 6.4,-19.925 -0.575,-0.375 -0.075,0.25 V 199.95 l 0.075,0.25 0.575,-0.375 33.475,10.375 z m 0,-20.725 -0.65,-0.2 v 0.325 l -5.75,-20.025 35.725,0.725 z m -56.975,20.6 c -3.319,0 -6.025,-2.681 -6.025,-6 0,-3.32 2.706,-6.025 6.025,-6.025 3.319,0 6,2.705 6,6.025 0,3.319 -2.681,6 -6,6 z m 17.025,0 c 3.32,0 6,-2.681 6,-6 0,-3.32 -2.68,-6.025 -6,-6.025 -3.319,0 -6.025,2.705 -6.025,6.025 0,3.319 2.706,6 6.025,6 z M 300.375,204.4 c -3.319,0 -6.025,-2.681 -6.025,-6 0,-3.319 2.706,-6.025 6.025,-6.025 3.319,0 6,2.706 6,6.025 0,3.319 -2.681,6 -6,6 z m 17.025,0 c 3.32,0 6,-2.681 6,-6 0,-3.319 -2.68,-6.025 -6,-6.025 -3.319,0 -6.025,2.706 -6.025,6.025 0,3.319 2.706,6 6.025,6 z m -17.025,-16.025 c -3.319,0 -6.025,-2.681 -6.025,-6 0,-0.17793 0.009,-0.37135 0.025,-0.55 7.4e-4,-0.008 -7.8e-4,-0.0168 0,-0.025 0.29054,-3.04936 2.87537,-5.45 6,-5.45 3.133,0 5.696,2.394 5.975,5.45 v 0.025 c 0.016,0.182 0.025,0.364 0.025,0.55 0,3.319 -2.681,6 -6,6 z m 17.025,0 c 3.32,0 6,-2.681 6,-6 0,-0.17793 -0.0103,-0.37135 -0.025,-0.55 -7.4e-4,-0.008 7.8e-4,-0.0168 0,-0.025 -0.29041,-3.04936 -2.84938,-5.45 -5.975,-5.45 -3.133,0 -5.722,2.394 -6,5.45 v 0.025 c -0.017,0.182 -0.025,0.364 -0.025,0.55 0,3.319 2.706,6 6.025,6 z m -55.6,-26.05 V 75.2 c 0,-26 21.075,-47.1 47.075,-47.1 26,0 47.075,21.1 47.075,47.1 v 87.125 h -6 V 75.2 c 0,-22.6824 -18.393,-41.07504 -41.075,-41.07504 -22.683,0 -41.05,18.39264 -41.05,41.07504 v 87.125 z m 47.075,-6 H 325.9 v -59.95 h -0.1 l 0.1,-0.15 V 79.2 l -0.225,-2.725 -16.8,19.9 H 325.8 l -16.925,19.975 h 16.95 l -16.95,20 h 17 z m 16.8,-79.875 c -0.004,-0.02504 0.004,-0.05 0,-0.07496 -0.688,-4.1324 -2.855,-7.768696 -5.95,-10.325 l -10.85,10.325 z M 283.85,16.92496 V 0.9 h 50.075 v 16.02496 z" /></g></g></svg>
