<?xml version="1.0" encoding="UTF-8" standalone="no"?>
<!-- Created with Inkscape (http://www.inkscape.org/) -->

<svg
   version="1.1"
   width="380"
   height="204.26097"
   id="svg3078"
   xml:space="preserve"
   sodipodi:docname="openal-original.svg"
   inkscape:version="1.1.2 (b8e25be833, 2022-02-05)"
   xmlns:inkscape="http://www.inkscape.org/namespaces/inkscape"
   xmlns:sodipodi="http://sodipodi.sourceforge.net/DTD/sodipodi-0.dtd"
   xmlns="http://www.w3.org/2000/svg"
   xmlns:svg="http://www.w3.org/2000/svg"
   xmlns:rdf="http://www.w3.org/1999/02/22-rdf-syntax-ns#"
   xmlns:cc="http://creativecommons.org/ns#"
   xmlns:dc="http://purl.org/dc/elements/1.1/"><sodipodi:namedview
     id="namedview14"
     pagecolor="#ffffff"
     bordercolor="#666666"
     borderopacity="1.0"
     inkscape:pageshadow="2"
     inkscape:pageopacity="0.0"
     inkscape:pagecheckerboard="0"
     showgrid="false"
     fit-margin-top="0"
     fit-margin-left="0"
     fit-margin-right="0"
     fit-margin-bottom="0"
     inkscape:zoom="1.565"
     inkscape:cx="156.23003"
     inkscape:cy="69.968051"
     inkscape:window-width="1920"
     inkscape:window-height="991"
     inkscape:window-x="-9"
     inkscape:window-y="-9"
     inkscape:window-maximized="1"
     inkscape:current-layer="svg3078" /><metadata
     id="metadata3084"><rdf:RDF><cc:Work
         rdf:about=""><dc:format>image/svg+xml</dc:format><dc:type
           rdf:resource="http://purl.org/dc/dcmitype/StillImage" /></cc:Work></rdf:RDF></metadata><defs
     id="defs3082" /><g
     transform="matrix(1.25,0,0,-1.25,-9.9999992,209.63049)"
     id="g3086"><g
       transform="matrix(0.61991192,0,0,0.61991192,7.5079443,3.7376882)"
       id="g3142"><path
         d="m 386.09375,721.875 c -19.36375,0 -35.0625,15.7 -35.0625,35.0625 v 92.65625 h -7.5 v 7.5 h 7.5 V 957.25 c 0,19.36275 15.69875,35.0625 35.0625,35.0625 19.3625,0 35.0625,-15.69975 35.0625,-35.0625 V 857.09375 h 7.53125 v -7.5 h -7.53125 V 756.9375 c 0,-19.3625 -15.7,-35.0625 -35.0625,-35.0625 z m 0,16.28125 v 111.4375 H 364.8125 V 759.4375 c 0,-11.75625 9.525,-21.28125 21.28125,-21.28125 z m -52.59375,13.75 -44.65625,0.9375 36.6875,23.96875 0.8125,-0.25 v 0.375 z m -7.15625,25.03125 -0.0937,0.34375 -0.71875,-0.46875 -41.875,12.9375 41.875,12.96875 0.71875,-0.46875 0.0937,0.3125 z m 0,25.625 v 0.40625 l -0.8125,-0.25 -36.6875,23.96875 44.65625,0.90625 z m 112.34375,-50.65625 7.1875,25.0625 v -0.40625 l 0.8125,0.25 36.65625,-23.96875 z m 8,24.90625 -0.71875,0.46875 -0.0937,-0.3125 v 25.59375 l 0.0937,-0.3125 0.71875,0.46875 41.84375,-12.96875 z m 0,25.90625 -0.8125,0.25 v -0.40625 l -7.1875,25.03125 44.65625,-0.90625 z m -71.21875,-25.75 c -4.14875,0 -7.53125,3.35125 -7.53125,7.5 0,4.15 3.3825,7.53125 7.53125,7.53125 4.14875,0 7.5,-3.38125 7.5,-7.53125 0,-4.14875 -3.35125,-7.5 -7.5,-7.5 z m 21.28125,0 c 4.15,0 7.5,3.35125 7.5,7.5 0,4.15 -3.35,7.53125 -7.5,7.53125 -4.14875,0 -7.53125,-3.38125 -7.53125,-7.53125 0,-4.14875 3.3825,-7.5 7.53125,-7.5 z M 375.46875,797 c -4.14875,0 -7.53125,3.35125 -7.53125,7.5 0,4.14875 3.3825,7.53125 7.53125,7.53125 4.14875,0 7.5,-3.3825 7.5,-7.53125 0,-4.14875 -3.35125,-7.5 -7.5,-7.5 z m 21.28125,0 c 4.15,0 7.5,3.35125 7.5,7.5 0,4.14875 -3.35,7.53125 -7.5,7.53125 -4.14875,0 -7.53125,-3.3825 -7.53125,-7.53125 0,-4.14875 3.3825,-7.5 7.53125,-7.5 z m -21.28125,20.03125 c -4.14875,0 -7.53125,3.35125 -7.53125,7.5 0,0.22241 0.0118,0.46419 0.0312,0.6875 9.3e-4,0.0102 -9.7e-4,0.021 0,0.0312 0.36318,3.8117 3.59421,6.8125 7.5,6.8125 3.91625,0 7.12,-2.9925 7.46875,-6.8125 v -0.0312 c 0.02,-0.2275 0.0312,-0.455 0.0312,-0.6875 0,-4.14875 -3.35125,-7.5 -7.5,-7.5 z m 21.28125,0 c 4.15,0 7.5,3.35125 7.5,7.5 0,0.22241 -0.0129,0.46419 -0.0312,0.6875 -9.3e-4,0.0102 9.7e-4,0.021 0,0.0312 -0.36301,3.8117 -3.56172,6.8125 -7.46875,6.8125 -3.91625,0 -7.1525,-2.9925 -7.5,-6.8125 v -0.0312 c -0.0213,-0.2275 -0.0312,-0.455 -0.0312,-0.6875 0,-4.14875 3.3825,-7.5 7.53125,-7.5 z m -69.5,32.5625 V 958.5 c 0,32.5 26.34375,58.875 58.84375,58.875 32.5,0 58.84375,-26.375 58.84375,-58.875 V 849.59375 h -7.5 V 958.5 c 0,28.353 -22.99125,51.3438 -51.34375,51.3438 -28.35375,0 -51.3125,-22.9908 -51.3125,-51.3438 V 849.59375 Z m 58.84375,7.5 H 407.375 v 74.9375 h -0.125 l 0.125,0.1875 V 953.5 l -0.28125,3.40625 -21,-24.875 H 407.25 L 386.09375,907.0625 h 21.1875 l -21.1875,-25 h 21.25 z m 21,99.84375 c -0.005,0.0313 0.005,0.0625 0,0.0937 -0.86,5.1655 -3.56875,9.71087 -7.4375,12.90625 l -13.5625,-12.90625 z m -52.28125,74.4063 v 20.0312 h 62.59375 v -20.0312 z"
         transform="matrix(0.8,0,0,-0.8,0,842)"
         id="path3090"
         style="fill:#e3b11a;fill-opacity:1;fill-rule:evenodd;stroke:none" /><path
         d="m 199.125,849.59375 c -19.3625,0 -35.0625,15.7 -35.0625,35.0625 v 37.3125 c 0,19.36312 15.7,35.0625 35.0625,35.0625 19.3625,0 35.0625,-15.69938 35.0625,-35.0625 h -20.03125 c 0,8.29763 -6.73375,15.03125 -15.03125,15.03125 -8.2975,0 -15.03125,-6.73362 -15.03125,-15.03125 v -8.65625 h 30.0625 v -20.03125 h -30.0625 v -8.625 c 0,-8.2975 6.73375,-15.03125 15.03125,-15.03125 8.2975,0 15.03125,6.73375 15.03125,15.03125 h 20.03125 c 0,-19.3625 -15.7,-35.0625 -35.0625,-35.0625 z"
         transform="matrix(0.8,0,0,-0.8,0,842)"
         id="path3096"
         style="fill:#7e000d;fill-opacity:1;fill-rule:nonzero;stroke:none" /><path
         d="m 251.8,76.3785 h -16.073 v 57.9085 c 0,6.638 -5.381,12.019 -12.018,12.019 -6.638,0 -12.02,-5.381 -12.02,-12.019 0,0 0,-57.9085 0.045,-57.9085 h -16.073 v 57.9085 c 0,15.49 12.557,28.047 28.048,28.047 15.49,0 28.047,-12.557 28.047,-28.047 0,0 0,-57.9085 0.044,-57.9085"
         id="path3098"
         style="fill:#7e000d;fill-opacity:1;fill-rule:nonzero;stroke:none" /><path
         d="m 56.8887,134.287 v -29.861 c 0,-15.4905 -12.5571,-28.0475 -28.0473,-28.0475 -15.4906,0 -28.04765,12.557 -28.04765,28.0475 v 29.861 c 0,15.49 12.55705,28.047 28.04765,28.047 15.4902,0 28.0473,-12.557 28.0473,-28.047 z m -16.0285,0 c 0,6.638 -5.3809,12.019 -12.0188,12.019 -6.6383,0 -12.0191,-5.381 -12.0191,-12.019 v -29.861 c 0,-6.6381 5.3808,-12.019 12.0191,-12.019 6.6379,0 12.0188,5.3809 12.0188,12.019 v 29.861"
         id="path3100"
         style="fill:#7e000d;fill-opacity:1;fill-rule:nonzero;stroke:none" /><path
         d="m 122.564,134.287 v -29.861 c 0,-15.4905 -12.557,-28.0475 -28.0472,-28.0475 -4.3012,0 -8.3762,0.968 -12.0191,2.6985 V 51.1516 H 66.4691 V 156.324 c 0,0 6.5579,-0.509 10.6989,0 7.1066,0.874 7.3422,6.01 17.3488,6.01 15.4902,0 28.0472,-12.557 28.0472,-28.047 z m -16.028,0 c 0,6.638 -5.381,12.019 -12.0192,12.019 -6.6379,0 -12.0191,-5.381 -12.0191,-12.019 v -29.861 c 0,-6.6381 5.3812,-12.019 12.0191,-12.019 6.6382,0 12.0192,5.3809 12.0192,12.019 v 29.861"
         id="path3102"
         style="fill:#7e000d;fill-opacity:1;fill-rule:nonzero;stroke:none" /><path
         d="m 493.78125,849.59375 c -19.3625,0 -35.0625,15.7 -35.0625,35.0625 v 72.375 h 20.09375 c -0.0319,0 -0.0548,-21.49816 -0.0625,-41.9375 h 30.0625 v 41.9375 h 20.09375 c -0.0319,0 -0.0548,-21.49816 -0.0625,-41.9375 -0.004,-9.76276 8.3e-4,-15.0992 0,-20.03125 -4.3e-4,-2.56221 0,-10.40625 0,-10.40625 0,-19.3625 -15.69875,-35.0625 -35.0625,-35.0625 z m 0,20.03125 c 8.29875,0 15.03125,6.73375 15.03125,15.03125 V 895.0625 H 478.75 c -4.3e-4,-2.56221 0,-10.40625 0,-10.40625 0,-8.2975 6.735,-15.03125 15.03125,-15.03125 z"
         transform="matrix(0.8,0,0,-0.8,0,842)"
         id="path3106"
         style="fill:#7e000d;fill-opacity:1;fill-rule:nonzero;stroke:none" /><path
         d="m 451.119,92.407 h 12.019 c 6.638,0 12.019,5.3809 12.019,12.019 h 16.029 c 0,-15.4905 -12.557,-28.0475 -28.048,-28.0475 h -28.047 v 85.9555 h 16.028 V 92.407"
         id="path3110"
         style="fill:#7e000d;fill-opacity:1;fill-rule:nonzero;stroke:none" /></g></g></svg>
