<?xml version="1.0" encoding="UTF-8" standalone="no"?>
<svg
   width="128"
   height="128"
   viewBox="0 0 128 128"
   version="1.1"
   id="svg12"
   sodipodi:docname="ActionScript.svg"
   inkscape:version="1.1.1 (3bf5ae0d25, 2021-09-20)"
   xmlns:inkscape="http://www.inkscape.org/namespaces/inkscape"
   xmlns:sodipodi="http://sodipodi.sourceforge.net/DTD/sodipodi-0.dtd"
   xmlns="http://www.w3.org/2000/svg"
   xmlns:svg="http://www.w3.org/2000/svg"
   xmlns:rdf="http://www.w3.org/1999/02/22-rdf-syntax-ns#"
   xmlns:cc="http://creativecommons.org/ns#"
   xmlns:dc="http://purl.org/dc/elements/1.1/">
  <defs
     id="defs16" />
  <sodipodi:namedview
     id="namedview14"
     pagecolor="#505050"
     bordercolor="#ffffff"
     borderopacity="1"
     inkscape:pageshadow="0"
     inkscape:pageopacity="0"
     inkscape:pagecheckerboard="1"
     showgrid="false"
     inkscape:zoom="6.4375"
     inkscape:cx="70.135922"
     inkscape:cy="66.252427"
     inkscape:window-width="1920"
     inkscape:window-height="1009"
     inkscape:window-x="-8"
     inkscape:window-y="-8"
     inkscape:window-maximized="1"
     inkscape:current-layer="svg12" />
  <title
     id="title2">file_type_actionscript</title>
  <path
     d="m 0,60.713143 c 8.768,0 9.6457143,-4.822857 9.6457143,-8.768 a 78.258286,78.258286 0 0 0 -0.8777143,-10.08 85.590857,85.590857 0 0 1 -0.8777143,-10.08 c 0,-10.971429 7.4514283,-15.780572 17.5360003,-15.780572 h 2.628571 v 6.569143 h -2.189714 c -7.012572,0 -9.645714,3.506286 -9.645714,10.08 a 65.883429,65.883429 0 0 0 0.877714,8.768 65.398857,65.398857 0 0 1 0.877714,9.206857 c 0,7.890286 -3.067428,11.396572 -8.7679999,13.152 v 0.457143 c 5.2617139,1.316572 8.7679999,5.261714 8.7679999,13.152 a 65.398857,65.398857 0 0 1 -0.877714,9.206857 59.428571,59.428571 0 0 0 -0.877714,8.768 c 0,6.573719 2.628571,10.514289 9.645714,10.514289 h 2.189714 v 6.57828 h -2.628571 c -10.08,0 -17.5360003,-4.384 -17.5360003,-16.658283 A 85.590857,85.590857 0 0 1 8.768,85.718857 71.68,71.68 0 0 0 9.6457143,76.073143 c 0,-3.945143 -1.3165714,-8.768 -9.6457143,-8.768 z"
     style="fill:#c41718;stroke-width:4.57143"
     id="path4" />
  <path
     d="m 34.189714,73.426286 -5.696,17.088 H 21.028571 L 39.451429,36.164571 h 8.329142 l 18.409143,54.349715 h -7.012571 l -5.691429,-17.088 z M 52.164571,68.164571 46.902857,52.384 a 42.806857,42.806857 0 0 1 -2.628571,-10.08 v 0 c -0.877715,3.067428 -1.755429,6.573714 -2.628572,9.645714 l -5.261714,15.776 h 15.780571 z"
     style="fill:#c41718;stroke-width:4.57143"
     id="path6" />
  <path
     d="M 72.768,82.189714 A 27.158857,27.158857 0 0 0 85.481143,85.696 c 7.012571,0 11.396571,-3.945143 11.396571,-9.206857 0,-5.261715 -3.067428,-7.890286 -10.08,-10.971429 -8.768,-3.067428 -14.464,-7.890286 -14.464,-15.341714 0,-8.329143 7.012572,-14.902857 17.536,-14.902857 a 23.474286,23.474286 0 0 1 11.835426,2.628571 l -1.755426,5.700572 A 25.229714,25.229714 0 0 0 89.435429,41.412571 c -7.451429,0 -10.08,4.384 -10.08,8.329143 0,5.261714 3.506285,7.451429 10.971428,10.514286 9.206857,3.506286 14.025143,7.890286 14.025143,15.780571 0,8.329143 -6.134857,15.780572 -18.848,15.780572 A 26.546286,26.546286 0 0 1 71.478857,88.310857 Z"
     style="fill:#c41718;stroke-width:4.57143"
     id="path8" />
  <path
     d="m 128,66.848 c -8.768,0 -9.64571,5.261714 -9.64571,8.768 a 71.68,71.68 0 0 0 0.87771,9.645714 71.945143,71.945143 0 0 1 0.87771,10.08 C 120.10971,107.616 112.65829,112 102.57371,112 h -2.628567 v -6.57371 h 2.189717 c 6.57371,0 9.64571,-3.94515 9.64571,-10.51429 a 59.428571,59.428571 0 0 0 -0.87771,-8.768 65.398857,65.398857 0 0 1 -0.87772,-9.206857 c 0,-7.890286 3.50629,-11.835429 8.768,-13.152 V 63.328 c -5.26171,-1.316572 -8.768,-5.261714 -8.768,-13.152 a 65.398857,65.398857 0 0 1 0.87772,-9.206857 59.428571,59.428571 0 0 0 0.87771,-8.768 c 0,-6.573715 -2.62857,-10.08 -9.64571,-10.514286 h -2.189717 v -6.144 h 2.628567 c 10.08,0 17.536,4.822857 17.536,15.780571 a 78.258286,78.258286 0 0 1 -0.87771,10.08 78.258286,78.258286 0 0 0 -0.87771,10.08 c 0,4.384 1.31657,8.768 9.64571,8.768 z"
     style="fill:#c41718;stroke-width:4.57143"
     id="path10" />
  <metadata
     id="metadata12">
    <rdf:RDF>
      <cc:Work
         rdf:about="">
        <dc:title>file_type_actionscript</dc:title>
      </cc:Work>
    </rdf:RDF>
  </metadata>
</svg>
