<?xml version="1.0" encoding="UTF-8"?>
<svg version="1.1" viewBox="0 0 128 128" xmlns="http://www.w3.org/2000/svg"><defs><linearGradient id="bs-logo-a" x1="76.079" x2="523.48" y1="10.798" y2="365.95" gradientTransform="matrix(.24566 0 0 .24566 1.11 2.0512)" gradientUnits="userSpaceOnUse"><stop stop-color="#9013fe" offset="0"/><stop stop-color="#6610f2" offset="1"/></linearGradient><linearGradient id="bs-logo-b" x1="193.51" x2="293.51" y1="109.74" y2="278.87" gradientTransform="translate(0,52)" gradientUnits="userSpaceOnUse"><stop stop-color="#fff" offset="0"/><stop stop-color="#f1e5fc" offset="1"/></linearGradient><filter id="bs-logo-c" x="161.9" y="135.46" width="197" height="249" color-interpolation-filters="sRGB" filterUnits="userSpaceOnUse"><feFlood flood-opacity="0" result="BackgroundImageFix"/><feColorMatrix in="SourceAlpha" values="0 0 0 0 0 0 0 0 0 0 0 0 0 0 0 0 0 0 127 0"/><feOffset dy="4"/><feGaussianBlur stdDeviation="8"/><feColorMatrix values="0 0 0 0 0 0 0 0 0 0 0 0 0 0 0 0 0 0 0.15 0"/><feBlend in2="BackgroundImageFix" result="effect1_dropShadow"/><feBlend in="SourceGraphic" in2="effect1_dropShadow" result="shape"/></filter></defs><path d="m14.985 15.15c-0.23731-6.8147 5.0722-13.099 12.249-13.099h73.54c7.1768 0 12.486 6.2841 12.249 13.099-0.22798 6.5462 0.068 15.026 2.2021 21.94 2.141 6.9356 5.7512 11.319 11.664 11.883v6.3872c-5.9129 0.5633-9.5231 4.9472-11.664 11.883-2.1341 6.9142-2.4301 15.394-2.2021 21.94 0.23731 6.8144-5.0722 13.098-12.249 13.098h-73.54c-7.1768 0-12.486-6.2841-12.249-13.098 0.22773-6.5464-0.06829-15.026-2.2026-21.94-2.1407-6.9356-5.7598-11.319-11.673-11.883v-6.3872c5.9129-0.5633 9.5322-4.9472 11.673-11.883 2.1343-6.9142 2.4303-15.394 2.2024-21.94z" fill="url(#bs-logo-a)" stroke-width=".24566"/><path transform="matrix(.24566 0 0 .24566 1.494 -10.359)" d="m267.1 364.46c47.297 0 75.798-23.158 75.798-61.355 0-28.873-20.336-49.776-50.532-53.085v-1.203c22.185-3.609 39.594-24.211 39.594-47.219 0-32.783-25.882-54.138-65.322-54.138h-88.74v217zm-54.692-189.48h45.911c24.958 0 39.131 11.128 39.131 31.279 0 21.505-16.484 33.535-46.372 33.535h-38.67zm0 161.96v-71.431h45.602c32.661 0 49.608 12.03 49.608 35.49 0 23.459-16.484 35.941-47.605 35.941z" fill="url(#bs-logo-b)" filter="url(#bs-logo-c)" stroke="#fff"/><text x="9.0726652" y="121.43112" fill="#7952b3" font-family="'Segoe UI'" font-size="25.333px" style="font-variant-caps:normal;font-variant-east-asian:normal;font-variant-ligatures:normal;font-variant-numeric:normal;line-height:1.25" xml:space="preserve"><tspan x="9.0726652" y="121.43112" fill="#7952b3" font-family="'Segoe UI'" font-size="25.333px" style="font-variant-caps:normal;font-variant-east-asian:normal;font-variant-ligatures:normal;font-variant-numeric:normal">Bootstrap</tspan></text></svg>
