<svg id="svg_resize" version="1.1" xmlns="http://www.w3.org/2000/svg" xmlns:xlink="http://www.w3.org/1999/xlink" width="128" height="128" viewBox="0, 0, 400,318.75"><g id="svgg"><path id="path0" d="M138.667 159.344 L 138.667 244.521 176.375 244.451 C 215.404 244.378,215.123 244.383,220.833 243.668 C 249.780 240.044,266.677 224.150,268.164 199.146 C 269.575 175.419,254.758 158.327,229.375 154.402 C 228.462 154.261,228.762 154.057,230.458 153.669 C 247.407 149.784,259.668 134.167,259.666 116.465 C 259.665 95.723,245.806 80.218,223.212 75.680 C 215.593 74.149,216.339 74.172,174.708 74.169 L 138.667 74.167 138.667 159.344 M207.500 96.645 C 223.591 98.813,231.455 106.084,231.950 119.250 C 232.468 133.038,224.587 141.990,209.148 145.155 C 204.104 146.188,200.863 146.330,182.208 146.332 L 166.333 146.333 166.333 121.444 C 166.333 107.756,166.388 96.500,166.456 96.433 C 166.664 96.225,205.888 96.428,207.500 96.645 M210.667 167.555 C 229.723 169.804,239.108 177.966,239.926 193.000 C 240.797 208.990,231.198 219.113,212.833 221.570 C 208.734 222.118,206.753 222.163,186.625 222.165 L 166.333 222.167 166.333 194.659 L 166.333 167.151 187.292 167.210 C 205.772 167.263,208.536 167.303,210.667 167.555 " stroke="none" fill="#f7f1fb" fill-rule="evenodd"></path><path id="path1" d="M261.576 1.439 C 260.938 2.235,260.257 3.117,260.062 3.401 C 259.866 3.685,259.248 4.434,258.687 5.066 C 258.126 5.699,257.667 6.302,257.667 6.408 C 257.667 6.513,257.385 6.896,257.040 7.258 C 256.096 8.250,255.167 9.428,255.167 9.633 C 255.167 9.733,255.029 9.912,254.861 10.032 C 254.693 10.152,253.704 11.338,252.663 12.667 C 251.622 13.996,250.634 15.181,250.468 15.301 C 250.302 15.421,250.167 15.601,250.167 15.701 C 250.167 15.904,249.040 17.347,248.729 17.541 C 248.620 17.610,248.184 18.191,247.762 18.833 C 247.339 19.475,246.938 20.003,246.871 20.007 C 246.805 20.011,246.412 20.462,246.000 21.010 C 245.588 21.558,244.726 22.662,244.086 23.462 C 242.612 25.303,242.783 25.085,241.911 26.229 C 241.501 26.768,240.941 27.438,240.666 27.719 C 240.391 28.000,240.165 28.309,240.164 28.407 C 240.163 28.504,239.600 29.220,238.914 29.997 C 238.228 30.775,237.667 31.493,237.667 31.594 C 237.667 31.695,237.419 32.034,237.117 32.347 C 236.239 33.257,235.167 34.613,235.167 34.815 C 235.167 34.917,235.110 35.000,235.042 35.000 C 234.973 35.001,234.354 35.725,233.667 36.610 C 232.979 37.495,232.042 38.663,231.583 39.206 C 231.125 39.748,230.412 40.658,230.000 41.228 C 229.588 41.797,229.033 42.485,228.768 42.756 C 228.502 43.028,228.079 43.571,227.826 43.964 C 227.574 44.357,227.178 44.868,226.946 45.100 C 226.714 45.332,226.201 45.948,225.807 46.469 C 224.478 48.226,223.097 49.916,222.881 50.050 C 222.763 50.123,222.667 50.261,222.667 50.355 C 222.667 50.560,221.679 51.821,220.797 52.741 C 220.450 53.103,220.167 53.479,220.167 53.577 C 220.167 53.674,219.638 54.353,218.993 55.086 C 218.347 55.818,217.728 56.575,217.618 56.769 C 217.375 57.195,213.538 62.015,213.255 62.250 C 213.145 62.342,212.864 62.719,212.631 63.089 C 212.398 63.459,211.835 64.171,211.379 64.672 C 210.924 65.173,210.359 65.883,210.125 66.250 C 209.891 66.617,209.355 67.292,208.934 67.750 C 208.513 68.208,208.168 68.627,208.167 68.680 C 208.167 68.733,202.094 68.742,194.671 68.699 L 181.176 68.621 180.764 69.102 C 180.538 69.367,180.217 69.746,180.051 69.945 L 179.750 70.306 163.667 70.477 C 154.023 70.579,147.183 70.717,146.583 70.822 C 146.033 70.918,144.908 71.116,144.083 71.262 C 142.436 71.554,139.742 72.520,138.933 73.111 C 138.649 73.317,138.154 73.632,137.833 73.809 C 136.875 74.339,134.169 77.528,134.167 78.131 C 134.167 78.248,133.989 78.698,133.771 79.131 C 133.554 79.563,133.188 80.592,132.957 81.417 C 131.836 85.434,131.841 85.314,131.837 109.342 L 131.833 130.767 131.000 131.702 L 130.167 132.637 130.167 149.807 L 130.167 166.978 129.196 168.197 C 128.661 168.868,128.099 169.520,127.946 169.645 C 127.792 169.771,127.667 169.948,127.667 170.039 C 127.667 170.208,126.844 171.235,125.769 172.408 C 125.438 172.769,125.167 173.148,125.167 173.250 C 125.167 173.352,124.896 173.731,124.564 174.092 C 123.466 175.291,122.667 176.294,122.667 176.473 C 122.667 176.570,122.573 176.710,122.458 176.783 C 122.242 176.921,120.782 178.709,119.554 180.340 C 119.171 180.848,118.670 181.451,118.441 181.680 C 118.212 181.909,117.750 182.506,117.415 183.007 C 117.079 183.507,116.574 184.142,116.293 184.417 C 116.011 184.692,115.538 185.295,115.241 185.757 C 114.944 186.220,114.573 186.704,114.417 186.833 C 113.998 187.181,112.667 188.946,112.667 189.154 C 112.667 189.253,112.602 189.333,112.523 189.333 C 112.444 189.333,111.939 189.896,111.400 190.583 C 110.862 191.271,110.364 191.833,110.294 191.833 C 110.224 191.833,110.167 191.916,110.167 192.018 C 110.167 192.234,108.730 194.066,108.100 194.654 C 107.862 194.876,107.667 195.140,107.667 195.239 C 107.667 195.339,107.107 196.057,106.423 196.835 C 105.739 197.613,105.177 198.333,105.173 198.434 C 105.170 198.535,104.961 198.835,104.709 199.101 C 104.328 199.503,103.832 200.107,102.538 201.750 C 102.466 201.842,101.959 202.469,101.412 203.144 C 100.864 203.820,100.307 204.532,100.173 204.728 C 99.755 205.340,98.590 206.747,98.451 206.808 C 98.378 206.840,97.978 207.384,97.561 208.017 C 97.144 208.649,96.713 209.223,96.604 209.292 C 96.345 209.454,95.167 210.914,95.167 211.073 C 95.167 211.140,94.731 211.695,94.199 212.306 C 93.668 212.917,92.680 214.129,92.006 215.000 C 91.331 215.871,90.681 216.642,90.562 216.714 C 90.442 216.785,90.229 217.085,90.088 217.380 C 89.948 217.675,89.452 218.329,88.987 218.833 C 88.522 219.338,87.949 220.050,87.714 220.417 C 87.479 220.783,86.971 221.425,86.584 221.842 C 86.198 222.259,85.665 222.930,85.399 223.333 C 85.134 223.735,84.765 224.219,84.579 224.407 C 84.393 224.596,83.483 225.725,82.556 226.917 C 81.628 228.108,80.711 229.226,80.518 229.401 C 80.325 229.575,80.165 229.800,80.164 229.901 C 80.163 230.001,79.600 230.720,78.914 231.497 C 78.228 232.275,77.667 232.994,77.667 233.097 C 77.667 233.199,77.423 233.537,77.125 233.849 C 76.221 234.796,75.167 236.119,75.167 236.307 C 75.167 236.404,75.070 236.543,74.953 236.617 C 74.743 236.748,73.450 238.332,72.030 240.198 C 71.634 240.719,71.133 241.322,70.917 241.538 C 70.701 241.753,70.251 242.336,69.917 242.833 C 69.583 243.330,69.052 244.002,68.738 244.326 C 68.424 244.651,67.923 245.268,67.625 245.698 C 67.327 246.128,66.652 246.986,66.125 247.605 C 65.598 248.225,65.167 248.829,65.167 248.949 C 65.167 249.069,65.102 249.167,65.023 249.167 C 64.944 249.167,64.439 249.729,63.900 250.417 C 63.362 251.104,62.864 251.667,62.794 251.667 C 62.724 251.667,62.667 251.746,62.667 251.842 C 62.667 252.044,61.055 254.092,60.522 254.567 C 60.327 254.742,60.167 254.968,60.167 255.070 C 60.167 255.172,59.605 255.892,58.919 256.670 C 58.233 257.447,57.671 258.168,57.669 258.272 C 57.668 258.376,57.453 258.676,57.192 258.939 C 56.667 259.467,52.907 264.170,52.481 264.832 C 52.332 265.062,51.751 265.767,51.189 266.400 C 50.627 267.032,50.167 267.633,50.167 267.735 C 50.167 267.837,49.882 268.219,49.534 268.585 C 48.604 269.563,47.667 270.758,47.667 270.966 C 47.667 271.066,47.530 271.246,47.363 271.366 C 47.195 271.485,46.475 272.333,45.762 273.250 C 44.249 275.194,44.227 275.211,44.250 274.347 C 44.259 273.985,44.210 273.723,44.140 273.767 C 43.858 273.941,44.037 281.474,44.321 281.385 C 44.533 281.318,44.539 281.333,44.353 281.466 C 44.123 281.630,44.132 282.006,44.418 284.167 C 44.508 284.842,44.793 286.349,44.954 287.000 C 44.988 287.137,45.017 287.460,45.019 287.718 C 45.020 287.980,45.133 288.228,45.275 288.283 C 45.420 288.338,45.457 288.423,45.363 288.482 C 45.272 288.538,45.236 288.789,45.284 289.040 C 45.332 289.291,45.437 289.456,45.517 289.406 C 45.597 289.357,45.621 289.424,45.570 289.557 C 45.467 289.825,46.245 292.209,46.627 292.792 C 46.761 292.998,46.824 293.167,46.766 293.167 C 46.708 293.167,46.836 293.523,47.050 293.958 C 47.265 294.394,47.540 295.069,47.663 295.458 C 47.786 295.848,47.954 296.167,48.037 296.167 C 48.119 296.167,48.151 296.224,48.107 296.294 C 48.064 296.365,48.359 296.983,48.762 297.669 C 49.166 298.355,49.656 299.254,49.852 299.667 C 50.047 300.079,50.498 300.810,50.853 301.292 C 52.513 303.537,52.885 304.000,53.030 304.000 C 53.116 304.000,53.145 304.067,53.094 304.149 C 53.044 304.231,53.381 304.700,53.844 305.191 C 54.306 305.682,54.872 306.326,55.100 306.624 C 56.367 308.273,61.658 312.459,64.250 313.862 C 66.250 314.944,68.512 316.037,69.059 316.184 C 69.347 316.262,70.468 316.632,71.548 317.006 C 72.629 317.380,74.429 317.888,75.548 318.135 L 77.583 318.583 200.000 318.583 L 322.417 318.583 324.500 318.128 C 325.646 317.878,327.805 317.259,329.298 316.752 C 331.735 315.924,332.685 315.499,335.992 313.750 C 339.144 312.084,343.952 307.959,346.874 304.417 C 347.558 303.586,350.000 300.126,350.000 299.986 C 350.000 299.914,350.356 299.266,350.792 298.545 C 351.872 296.756,353.071 294.050,354.133 291.000 C 354.658 289.492,354.758 289.067,355.452 285.417 L 355.895 283.083 355.914 269.000 C 355.935 253.355,356.030 250.962,357.084 239.417 C 357.759 232.011,358.032 230.057,359.580 221.500 C 360.359 217.197,362.603 208.458,363.759 205.230 C 364.181 204.049,364.740 202.442,365.000 201.658 C 365.261 200.874,365.710 199.711,365.999 199.075 C 366.287 198.438,366.750 197.392,367.027 196.750 C 368.774 192.702,371.138 188.520,373.417 185.450 C 375.607 182.498,376.019 182.010,377.949 180.073 C 382.096 175.910,386.851 172.946,391.917 171.366 C 394.440 170.578,396.695 170.041,398.433 169.814 L 400.000 169.609 400.000 159.333 L 400.000 149.058 398.433 148.853 C 395.846 148.514,391.319 147.266,389.201 146.308 C 388.624 146.047,388.115 145.833,388.071 145.833 C 388.026 145.833,387.460 145.533,386.813 145.167 C 386.166 144.800,385.571 144.500,385.491 144.500 C 385.327 144.500,383.035 142.918,381.178 141.522 C 379.733 140.436,376.256 136.991,375.269 135.667 C 374.893 135.162,374.540 134.712,374.485 134.667 C 374.273 134.489,372.371 131.791,371.449 130.359 C 370.097 128.258,368.202 124.639,367.027 121.917 C 366.750 121.275,366.287 120.229,365.999 119.592 C 365.710 118.955,365.261 117.793,365.000 117.009 C 364.740 116.225,364.181 114.617,363.759 113.437 C 362.603 110.209,360.359 101.470,359.580 97.167 C 358.037 88.640,357.777 86.772,357.085 79.250 C 356.035 67.833,355.935 65.308,355.914 49.750 C 355.895 35.988,355.888 35.716,355.520 33.750 C 355.315 32.650,355.072 31.300,354.981 30.750 C 354.580 28.326,352.389 22.767,350.792 20.122 C 350.356 19.401,350.000 18.752,350.000 18.680 C 350.000 18.540,347.558 15.080,346.874 14.250 C 343.993 10.756,338.950 6.418,336.072 4.958 C 335.620 4.729,334.505 4.146,333.593 3.663 C 332.682 3.179,331.707 2.725,331.427 2.653 C 331.146 2.581,329.968 2.184,328.808 1.771 C 327.649 1.358,325.774 0.809,324.642 0.551 L 322.583 0.083 292.660 0.038 L 262.736 -0.007 261.576 1.439 M211.917 74.167 C 217.311 74.446,223.468 75.344,226.917 76.353 C 234.491 78.570,239.311 80.864,244.295 84.622 C 261.096 97.293,264.872 121.654,252.683 138.739 C 247.263 146.337,238.574 152.229,230.514 153.774 C 228.518 154.157,228.545 154.177,231.792 154.706 C 258.107 158.991,272.711 180.790,267.161 207.500 C 262.980 227.621,245.784 240.974,220.385 243.822 C 214.549 244.477,213.016 244.500,175.295 244.500 L 138.500 244.500 138.500 159.250 L 138.500 74.000 173.625 74.002 C 194.378 74.002,210.046 74.070,211.917 74.167 M166.500 121.343 L 166.500 146.186 184.292 146.120 C 203.556 146.048,203.004 146.071,208.620 145.078 C 223.995 142.358,232.178 133.352,231.784 119.584 C 231.451 107.946,225.393 100.814,213.250 97.763 C 208.715 96.623,205.951 96.503,184.208 96.502 L 166.500 96.500 166.500 121.343 M166.500 194.590 L 166.500 222.013 188.375 221.953 C 212.187 221.889,211.169 221.927,216.200 220.915 C 231.523 217.836,239.346 209.430,239.787 195.571 C 240.262 180.629,232.051 171.455,215.500 168.436 C 209.280 167.301,206.129 167.173,184.292 167.170 L 166.500 167.167 166.500 194.590 M40.169 220.264 C 40.171 220.440,40.248 220.696,40.341 220.833 C 40.464 221.016,40.480 220.948,40.398 220.583 C 40.261 219.971,40.166 219.837,40.169 220.264 M42.705 237.000 C 42.705 237.321,42.740 237.452,42.782 237.292 C 42.823 237.131,42.823 236.869,42.782 236.708 C 42.740 236.548,42.705 236.679,42.705 237.000 M42.893 238.979 C 42.952 239.289,43.000 239.832,43.000 240.188 C 43.000 240.543,43.062 240.833,43.137 240.833 C 43.292 240.833,43.067 238.673,42.896 238.517 C 42.835 238.462,42.834 238.670,42.893 238.979 M43.778 248.778 C 43.717 248.839,43.667 249.076,43.667 249.306 C 43.667 249.829,43.843 249.676,43.907 249.098 C 43.958 248.634,43.947 248.608,43.778 248.778 M43.833 252.222 C 43.833 252.558,43.898 252.833,43.978 252.833 C 44.058 252.833,44.095 252.596,44.061 252.306 C 43.974 251.552,43.833 251.501,43.833 252.222 M44.278 258.278 C 44.112 258.444,44.144 259.201,44.313 259.096 C 44.393 259.047,44.458 258.817,44.458 258.586 C 44.458 258.132,44.445 258.110,44.278 258.278 M44.282 259.458 C 44.167 259.664,44.192 261.364,44.309 261.247 C 44.401 261.154,44.474 259.334,44.385 259.334 C 44.367 259.333,44.321 259.390,44.282 259.458 M44.278 261.611 C 44.217 261.672,44.167 261.910,44.167 262.139 C 44.167 262.658,44.362 262.494,44.424 261.922 C 44.473 261.474,44.455 261.434,44.278 261.611 M44.167 263.361 C 44.167 263.743,44.223 263.999,44.292 263.931 C 44.465 263.758,44.477 262.667,44.306 262.667 C 44.229 262.667,44.167 262.979,44.167 263.361 M44.167 264.685 C 44.167 264.980,44.219 265.170,44.282 265.107 C 44.474 264.915,44.506 264.357,44.331 264.249 C 44.236 264.190,44.167 264.374,44.167 264.685 M44.172 267.653 C 44.169 268.516,44.217 269.172,44.279 269.110 C 44.451 268.938,44.487 266.617,44.322 266.333 C 44.232 266.178,44.175 266.678,44.172 267.653 M44.167 270.167 C 44.167 270.819,44.411 270.818,44.434 270.166 C 44.444 269.891,44.388 269.667,44.309 269.667 C 44.231 269.667,44.167 269.892,44.167 270.167 M44.167 271.361 C 44.167 271.975,44.277 271.940,44.395 271.288 C 44.441 271.038,44.408 270.833,44.322 270.833 C 44.237 270.833,44.167 271.071,44.167 271.361 M44.247 272.513 C 44.337 273.221,44.500 273.345,44.500 272.704 C 44.500 272.419,44.428 272.142,44.341 272.088 C 44.247 272.030,44.209 272.206,44.247 272.513 " stroke="none" fill="#7a0bf7" fill-rule="evenodd"></path><path id="path2" d="M77.000 0.332 C 72.570 1.089,68.104 2.654,64.721 4.634 C 64.063 5.018,63.478 5.333,63.420 5.333 C 63.290 5.333,59.686 7.838,59.226 8.247 C 56.148 10.989,55.538 11.581,54.156 13.167 C 53.194 14.271,50.599 17.751,50.303 18.333 C 50.187 18.563,49.780 19.275,49.398 19.917 C 47.440 23.210,45.661 27.865,44.919 31.641 C 44.106 35.778,44.116 35.544,44.090 50.750 C 44.066 64.847,43.975 68.030,43.419 74.250 C 43.370 74.800,43.175 76.938,42.987 79.000 C 42.798 81.063,42.611 83.200,42.572 83.750 C 42.458 85.359,41.561 91.289,40.909 94.750 C 40.403 97.436,40.314 97.937,40.158 98.966 C 39.940 100.406,37.648 109.441,36.978 111.500 C 35.997 114.516,34.239 119.279,33.503 120.917 C 33.215 121.558,32.922 122.233,32.853 122.417 C 30.505 128.621,23.998 137.542,18.917 141.522 C 16.253 143.608,10.299 147.000,9.301 147.000 C 9.164 147.000,8.609 147.153,8.068 147.341 C 6.356 147.934,3.319 148.652,1.629 148.863 L -0.003 149.066 0.040 159.317 L 0.083 169.569 1.917 169.848 C 10.095 171.095,18.194 175.328,22.901 180.815 C 23.184 181.146,23.467 181.440,23.529 181.468 C 23.683 181.538,25.959 184.370,26.770 185.500 C 28.066 187.305,29.804 190.111,30.589 191.667 C 31.029 192.537,31.513 193.438,31.665 193.667 C 32.251 194.548,35.190 201.588,35.036 201.741 C 34.986 201.792,35.019 201.833,35.111 201.833 C 35.203 201.833,35.284 201.927,35.291 202.042 C 35.299 202.156,35.718 203.457,36.223 204.933 C 37.036 207.312,37.481 208.718,37.591 209.255 C 37.611 209.350,37.792 210.025,37.994 210.755 C 38.405 212.238,38.387 212.170,38.750 213.667 C 38.894 214.262,39.082 214.975,39.167 215.250 C 39.532 216.426,40.305 219.990,40.433 221.083 C 40.475 221.450,40.550 221.862,40.599 222.000 C 40.648 222.137,40.727 222.550,40.775 222.917 C 40.822 223.283,40.963 224.108,41.087 224.750 C 41.498 226.870,42.309 232.062,42.428 233.333 C 42.571 234.857,42.605 235.187,42.735 236.250 C 42.791 236.708,42.875 237.524,42.921 238.062 C 42.968 238.601,43.042 239.100,43.086 239.171 C 43.130 239.242,43.179 239.945,43.195 240.733 C 43.210 241.522,43.294 242.167,43.379 242.167 C 43.465 242.167,43.496 242.270,43.448 242.396 C 43.399 242.523,43.447 242.721,43.555 242.837 C 43.705 243.000,43.702 243.022,43.542 242.931 C 43.287 242.788,43.263 243.223,43.500 243.668 C 43.612 243.876,43.612 244.014,43.500 244.083 C 43.401 244.145,43.390 244.302,43.473 244.468 C 43.551 244.623,43.592 245.184,43.564 245.714 C 43.537 246.244,43.567 246.645,43.632 246.605 C 43.697 246.565,43.740 247.049,43.727 247.681 C 43.714 248.313,43.752 248.801,43.810 248.765 C 43.869 248.729,43.929 249.386,43.944 250.225 C 43.959 251.064,44.018 252.987,44.076 254.500 C 44.133 256.012,44.181 257.496,44.183 257.796 C 44.184 258.096,44.247 258.303,44.322 258.257 C 44.397 258.211,44.458 258.360,44.458 258.589 C 44.458 258.819,44.393 259.047,44.313 259.096 C 44.232 259.146,44.167 259.261,44.167 259.353 C 44.167 259.445,44.253 259.466,44.359 259.401 C 44.476 259.328,44.506 259.355,44.436 259.469 C 44.267 259.743,44.205 260.829,44.364 260.731 C 44.573 260.602,44.525 261.075,44.307 261.293 C 44.161 261.439,44.164 261.546,44.319 261.732 C 44.471 261.916,44.477 262.066,44.339 262.323 C 44.238 262.512,44.220 262.667,44.300 262.667 C 44.476 262.667,44.467 263.672,44.289 263.947 C 44.219 264.055,44.236 264.190,44.328 264.247 C 44.510 264.359,44.484 264.793,44.277 265.125 C 44.198 265.252,44.233 265.334,44.365 265.336 C 44.503 265.337,44.520 265.384,44.412 265.461 C 44.317 265.528,44.268 265.771,44.301 266.000 C 44.396 266.647,44.380 268.874,44.278 269.292 C 44.227 269.498,44.252 269.667,44.333 269.667 C 44.530 269.667,44.460 270.551,44.250 270.706 C 44.145 270.783,44.156 270.829,44.281 270.831 C 44.464 270.833,44.435 271.534,44.239 271.852 C 44.196 271.921,44.237 272.024,44.331 272.082 C 44.424 272.139,44.499 272.426,44.497 272.718 C 44.495 273.129,44.457 273.193,44.328 273.000 C 44.210 272.824,44.180 273.045,44.228 273.750 C 44.268 274.347,44.219 274.846,44.106 274.988 C 43.952 275.181,43.968 275.197,44.191 275.071 C 44.341 274.986,45.048 274.167,45.761 273.250 C 46.475 272.333,47.195 271.485,47.363 271.366 C 47.530 271.246,47.667 271.066,47.667 270.966 C 47.667 270.758,48.604 269.563,49.534 268.585 C 49.882 268.219,50.167 267.837,50.167 267.735 C 50.167 267.633,50.627 267.032,51.189 266.400 C 51.751 265.767,52.332 265.062,52.481 264.832 C 52.907 264.170,56.667 259.467,57.192 258.939 C 57.453 258.676,57.668 258.376,57.669 258.272 C 57.671 258.168,58.233 257.447,58.919 256.670 C 59.605 255.892,60.167 255.172,60.167 255.070 C 60.167 254.968,60.327 254.742,60.522 254.567 C 61.055 254.092,62.667 252.044,62.667 251.842 C 62.667 251.746,62.724 251.667,62.794 251.667 C 62.864 251.667,63.362 251.104,63.900 250.417 C 64.439 249.729,64.944 249.167,65.023 249.167 C 65.102 249.167,65.167 249.069,65.167 248.949 C 65.167 248.829,65.598 248.225,66.125 247.605 C 66.652 246.986,67.327 246.128,67.625 245.698 C 67.923 245.268,68.424 244.651,68.738 244.326 C 69.052 244.002,69.583 243.330,69.917 242.833 C 70.251 242.336,70.701 241.753,70.917 241.538 C 71.133 241.322,71.634 240.719,72.030 240.198 C 73.450 238.332,74.743 236.748,74.953 236.617 C 75.070 236.543,75.167 236.404,75.167 236.307 C 75.167 236.119,76.221 234.796,77.125 233.849 C 77.423 233.537,77.667 233.199,77.667 233.097 C 77.667 232.994,78.228 232.275,78.914 231.497 C 79.600 230.720,80.163 230.001,80.164 229.901 C 80.165 229.800,80.325 229.575,80.518 229.401 C 80.711 229.226,81.628 228.108,82.556 226.917 C 83.483 225.725,84.393 224.596,84.579 224.407 C 84.765 224.219,85.134 223.735,85.399 223.333 C 85.665 222.930,86.198 222.259,86.584 221.842 C 86.971 221.425,87.479 220.783,87.714 220.417 C 87.949 220.050,88.522 219.338,88.987 218.833 C 89.452 218.329,89.948 217.675,90.088 217.380 C 90.229 217.085,90.442 216.785,90.562 216.714 C 90.681 216.642,91.331 215.871,92.006 215.000 C 92.680 214.129,93.668 212.917,94.199 212.306 C 94.731 211.695,95.167 211.140,95.167 211.073 C 95.167 210.914,96.345 209.454,96.604 209.292 C 96.713 209.223,97.144 208.649,97.561 208.017 C 97.978 207.384,98.378 206.840,98.451 206.808 C 98.590 206.747,99.755 205.340,100.173 204.728 C 100.307 204.532,100.864 203.820,101.412 203.144 C 101.959 202.469,102.466 201.842,102.538 201.750 C 103.832 200.107,104.328 199.503,104.709 199.101 C 104.961 198.835,105.170 198.535,105.173 198.434 C 105.177 198.333,105.739 197.613,106.423 196.835 C 107.107 196.057,107.667 195.339,107.667 195.239 C 107.667 195.140,107.862 194.876,108.100 194.654 C 108.730 194.066,110.167 192.234,110.167 192.018 C 110.167 191.916,110.224 191.833,110.294 191.833 C 110.364 191.833,110.862 191.271,111.400 190.583 C 111.939 189.896,112.444 189.333,112.523 189.333 C 112.602 189.333,112.667 189.253,112.667 189.154 C 112.667 188.946,113.998 187.181,114.417 186.833 C 114.573 186.704,114.944 186.220,115.241 185.757 C 115.538 185.295,116.011 184.692,116.293 184.417 C 116.574 184.142,117.079 183.507,117.415 183.007 C 117.750 182.506,118.212 181.909,118.441 181.680 C 118.670 181.451,119.171 180.848,119.554 180.340 C 120.782 178.709,122.242 176.921,122.458 176.783 C 122.573 176.710,122.667 176.570,122.667 176.473 C 122.667 176.294,123.466 175.291,124.564 174.092 C 124.896 173.731,125.167 173.352,125.167 173.250 C 125.167 173.148,125.438 172.769,125.769 172.408 C 126.844 171.235,127.667 170.208,127.667 170.039 C 127.667 169.948,127.792 169.771,127.946 169.645 C 128.099 169.520,128.661 168.868,129.196 168.197 L 130.167 166.978 130.167 149.807 L 130.167 132.637 131.000 131.702 L 131.833 130.767 131.837 109.342 C 131.841 85.314,131.836 85.434,132.957 81.417 C 133.188 80.592,133.554 79.563,133.771 79.131 C 133.989 78.698,134.167 78.248,134.167 78.131 C 134.169 77.528,136.875 74.339,137.833 73.809 C 138.154 73.632,138.649 73.317,138.933 73.111 C 139.742 72.520,142.436 71.554,144.083 71.262 C 144.908 71.116,146.033 70.918,146.583 70.822 C 147.183 70.717,154.023 70.579,163.667 70.477 L 179.750 70.306 180.051 69.945 C 180.217 69.746,180.538 69.367,180.764 69.102 L 181.176 68.621 194.671 68.699 C 202.094 68.742,208.167 68.733,208.167 68.680 C 208.168 68.627,208.513 68.208,208.934 67.750 C 209.355 67.292,209.891 66.617,210.125 66.250 C 210.359 65.883,210.924 65.173,211.379 64.672 C 211.835 64.171,212.398 63.459,212.631 63.089 C 212.864 62.719,213.145 62.342,213.255 62.250 C 213.538 62.015,217.375 57.195,217.618 56.769 C 217.728 56.575,218.347 55.818,218.993 55.086 C 219.638 54.353,220.167 53.674,220.167 53.577 C 220.167 53.479,220.450 53.103,220.797 52.741 C 221.679 51.821,222.667 50.560,222.667 50.355 C 222.667 50.261,222.763 50.123,222.881 50.050 C 223.097 49.916,224.478 48.226,225.807 46.469 C 226.201 45.948,226.714 45.332,226.946 45.100 C 227.178 44.868,227.574 44.357,227.826 43.964 C 228.079 43.571,228.502 43.028,228.768 42.756 C 229.033 42.485,229.588 41.797,230.000 41.228 C 230.412 40.658,231.125 39.748,231.583 39.206 C 232.042 38.663,232.979 37.495,233.667 36.610 C 234.354 35.725,234.973 35.001,235.042 35.000 C 235.110 35.000,235.167 34.917,235.167 34.815 C 235.167 34.613,236.239 33.257,237.117 32.347 C 237.419 32.034,237.667 31.695,237.667 31.594 C 237.667 31.493,238.228 30.775,238.914 29.997 C 239.600 29.220,240.163 28.504,240.164 28.407 C 240.165 28.309,240.391 28.000,240.666 27.719 C 240.941 27.438,241.501 26.768,241.911 26.229 C 242.783 25.085,242.612 25.303,244.086 23.462 C 244.726 22.662,245.588 21.558,246.000 21.010 C 246.412 20.462,246.805 20.011,246.871 20.007 C 246.938 20.003,247.339 19.475,247.762 18.833 C 248.184 18.191,248.620 17.610,248.729 17.541 C 249.040 17.347,250.167 15.904,250.167 15.701 C 250.167 15.601,250.302 15.421,250.468 15.301 C 250.634 15.181,251.622 13.996,252.663 12.667 C 253.704 11.338,254.693 10.152,254.861 10.032 C 255.029 9.912,255.167 9.733,255.167 9.633 C 255.167 9.428,256.096 8.250,257.040 7.258 C 257.385 6.896,257.667 6.513,257.667 6.408 C 257.667 6.302,258.126 5.699,258.686 5.066 C 259.247 4.434,259.827 3.729,259.976 3.500 C 260.124 3.271,260.623 2.633,261.084 2.083 C 261.544 1.533,262.094 0.839,262.306 0.541 L 262.690 -0.001 170.720 0.016 C 83.053 0.032,78.668 0.046,77.000 0.332 " stroke="none" fill="#8c0cfb" fill-rule="evenodd"></path><path id="path3" d="M138.583 159.250 C 138.583 206.092,138.602 225.229,138.625 201.778 C 138.648 178.327,138.648 140.002,138.625 116.611 C 138.602 93.221,138.583 112.408,138.583 159.250 M211.958 74.284 C 212.165 74.324,212.502 74.324,212.708 74.284 C 212.915 74.245,212.746 74.212,212.333 74.212 C 211.921 74.212,211.752 74.245,211.958 74.284 M249.500 89.552 C 249.500 89.581,249.744 89.825,250.042 90.094 L 250.583 90.583 250.094 90.042 C 249.638 89.537,249.500 89.423,249.500 89.552 M166.442 96.458 C 166.372 96.571,179.346 96.571,196.667 96.456 C 200.287 96.432,194.986 96.395,184.885 96.373 C 174.784 96.351,166.485 96.390,166.442 96.458 M205.708 96.615 C 205.869 96.657,206.131 96.657,206.292 96.615 C 206.452 96.573,206.321 96.539,206.000 96.539 C 205.679 96.539,205.548 96.573,205.708 96.615 M225.833 104.250 C 226.331 104.754,226.776 105.167,226.822 105.167 C 226.868 105.167,226.498 104.754,226.000 104.250 C 225.502 103.746,225.057 103.333,225.011 103.333 C 224.966 103.333,225.335 103.746,225.833 104.250 M259.718 116.583 C 259.719 117.133,259.750 117.338,259.787 117.039 C 259.825 116.739,259.824 116.289,259.786 116.039 C 259.748 115.788,259.717 116.033,259.718 116.583 M231.879 118.667 C 231.879 119.079,231.911 119.248,231.951 119.042 C 231.991 118.835,231.991 118.498,231.951 118.292 C 231.911 118.085,231.879 118.254,231.879 118.667 M259.539 120.000 C 259.539 120.321,259.573 120.452,259.615 120.292 C 259.657 120.131,259.657 119.869,259.615 119.708 C 259.573 119.548,259.539 119.679,259.539 120.000 M231.879 122.167 C 231.879 122.579,231.911 122.748,231.951 122.542 C 231.991 122.335,231.991 121.998,231.951 121.792 C 231.911 121.585,231.879 121.754,231.879 122.167 M246.573 145.375 L 246.083 145.917 246.625 145.427 C 247.130 144.971,247.243 144.833,247.115 144.833 C 247.086 144.833,246.842 145.077,246.573 145.375 M203.375 145.948 C 203.535 145.990,203.798 145.990,203.958 145.948 C 204.119 145.906,203.987 145.872,203.667 145.872 C 203.346 145.872,203.215 145.906,203.375 145.948 M201.292 146.118 C 201.498 146.157,201.835 146.157,202.042 146.118 C 202.248 146.078,202.079 146.045,201.667 146.045 C 201.254 146.045,201.085 146.078,201.292 146.118 M174.554 146.292 C 179.122 146.316,186.547 146.316,191.054 146.292 C 195.562 146.267,191.825 146.247,182.750 146.247 C 173.675 146.247,169.987 146.267,174.554 146.292 M256.583 167.000 C 257.220 167.642,257.779 168.167,257.824 168.167 C 257.870 168.167,257.387 167.642,256.750 167.000 C 256.113 166.358,255.555 165.833,255.509 165.833 C 255.463 165.833,255.947 166.358,256.583 167.000 M204.961 167.287 C 205.261 167.325,205.711 167.324,205.961 167.286 C 206.212 167.248,205.967 167.217,205.417 167.218 C 204.867 167.219,204.662 167.250,204.961 167.287 M208.042 167.448 C 208.202 167.490,208.465 167.490,208.625 167.448 C 208.785 167.406,208.654 167.372,208.333 167.372 C 208.012 167.372,207.881 167.406,208.042 167.448 M233.167 176.583 C 233.757 177.179,234.278 177.667,234.324 177.667 C 234.370 177.667,233.924 177.179,233.333 176.583 C 232.743 175.987,232.222 175.500,232.176 175.500 C 232.130 175.500,232.576 175.987,233.167 176.583 M239.896 194.500 C 239.896 195.554,239.923 195.985,239.956 195.458 C 239.990 194.931,239.990 194.069,239.956 193.542 C 239.923 193.015,239.896 193.446,239.896 194.500 M268.218 194.083 C 268.219 194.633,268.250 194.838,268.287 194.539 C 268.325 194.239,268.324 193.789,268.286 193.539 C 268.248 193.288,268.217 193.533,268.218 194.083 M268.218 198.417 C 268.219 198.967,268.250 199.172,268.287 198.872 C 268.325 198.572,268.324 198.122,268.286 197.872 C 268.248 197.622,268.217 197.867,268.218 198.417 M233.077 212.875 L 232.250 213.750 233.125 212.923 C 233.606 212.468,234.000 212.074,234.000 212.048 C 234.000 211.924,233.846 212.062,233.077 212.875 M263.283 218.085 C 263.130 218.405,263.040 218.667,263.082 218.667 C 263.196 218.667,263.702 217.646,263.625 217.570 C 263.589 217.534,263.435 217.766,263.283 218.085 M206.375 222.119 C 206.627 222.158,207.040 222.158,207.292 222.119 C 207.544 222.081,207.338 222.050,206.833 222.050 C 206.329 222.050,206.123 222.081,206.375 222.119 M255.909 228.375 L 255.250 229.083 255.958 228.425 C 256.617 227.812,256.743 227.667,256.617 227.667 C 256.590 227.667,256.271 227.985,255.909 228.375 M214.875 244.282 C 215.035 244.323,215.298 244.323,215.458 244.282 C 215.619 244.240,215.487 244.205,215.167 244.205 C 214.846 244.205,214.715 244.240,214.875 244.282 M209.881 244.457 C 210.412 244.490,211.237 244.490,211.714 244.456 C 212.192 244.422,211.758 244.395,210.750 244.396 C 209.742 244.396,209.351 244.424,209.881 244.457 " stroke="none" fill="#a86cef" fill-rule="evenodd"></path><path id="path4" d="M156.292 74.125 C 166.031 74.149,181.969 74.149,191.708 74.125 C 201.448 74.101,193.479 74.082,174.000 74.082 C 154.521 74.082,146.552 74.101,156.292 74.125 M248.583 88.500 C 249.035 88.958,249.442 89.333,249.487 89.333 C 249.533 89.333,249.201 88.958,248.750 88.500 C 248.299 88.042,247.892 87.667,247.846 87.667 C 247.800 87.667,248.132 88.042,248.583 88.500 M203.708 96.621 C 204.052 96.657,204.615 96.657,204.958 96.621 C 205.302 96.585,205.021 96.556,204.333 96.556 C 203.646 96.556,203.365 96.585,203.708 96.621 M166.415 121.417 C 166.415 135.075,166.434 140.638,166.458 133.779 C 166.482 126.919,166.482 115.744,166.458 108.945 C 166.434 102.146,166.415 107.758,166.415 121.417 M259.709 118.083 C 259.711 118.450,259.745 118.580,259.785 118.373 C 259.824 118.166,259.823 117.866,259.781 117.706 C 259.739 117.547,259.707 117.717,259.709 118.083 M231.888 120.417 C 231.889 121.058,231.919 121.300,231.955 120.955 C 231.991 120.609,231.990 120.084,231.954 119.788 C 231.917 119.492,231.887 119.775,231.888 120.417 M225.333 137.250 C 224.928 137.662,224.635 138.000,224.681 138.000 C 224.726 138.000,225.095 137.662,225.500 137.250 C 225.905 136.837,226.199 136.500,226.153 136.500 C 226.107 136.500,225.738 136.837,225.333 137.250 M166.416 194.667 L 166.417 222.083 186.208 222.084 L 206.000 222.085 186.250 222.042 L 166.501 221.999 166.458 194.624 L 166.415 167.250 166.416 194.667 M203.627 167.285 C 203.834 167.324,204.134 167.323,204.294 167.281 C 204.453 167.239,204.283 167.207,203.917 167.209 C 203.550 167.211,203.420 167.245,203.627 167.285 M254.658 229.625 L 254.083 230.250 254.708 229.676 C 255.290 229.141,255.410 229.000,255.283 229.000 C 255.255 229.000,254.974 229.281,254.658 229.625 " stroke="none" fill="#9c3cf4" fill-rule="evenodd"></path></g></svg>
