<svg xmlns="http://www.w3.org/2000/svg" viewBox="0 0 128 128"><path fill="#5B4282" d="M9.531 112.586h4.161c1.896 0 3.273.27 4.129.81.857.54 1.285 1.398 1.285 2.575 0 .799-.188 1.454-.563 1.966s-.874.82-1.496.924v.091c.848.189 1.459.543 1.834 1.061s.563 1.207.563 2.067c0 1.22-.44 2.171-1.322 2.854-.881.683-2.078 1.024-3.59 1.024H9.531v-13.372zm2.835 5.296h1.646c.768 0 1.325-.119 1.669-.356.345-.238.517-.631.517-1.18 0-.512-.187-.879-.562-1.102s-.968-.334-1.779-.334h-1.491v2.972zm0 2.25v3.485h1.848c.78 0 1.356-.149 1.729-.448s.558-.756.558-1.372c0-1.109-.793-1.665-2.378-1.665h-1.757zm21.886-.878c0 2.213-.549 3.915-1.646 5.104s-2.67 1.784-4.719 1.784-3.622-.595-4.719-1.784c-1.098-1.189-1.646-2.896-1.646-5.122s.55-3.925 1.651-5.099 2.678-1.761 4.733-1.761 3.626.592 4.715 1.774c1.087 1.183 1.631 2.885 1.631 5.104zm-9.758 0c0 1.494.283 2.619.851 3.375.567.756 1.414 1.134 2.542 1.134 2.262 0 3.393-1.503 3.393-4.509 0-3.012-1.125-4.518-3.375-4.518-1.128 0-1.979.379-2.552 1.139s-.859 1.885-.859 3.379zm24.667 0c0 2.213-.549 3.915-1.646 5.104s-2.67 1.784-4.719 1.784-3.622-.595-4.719-1.784c-1.098-1.189-1.646-2.896-1.646-5.122s.55-3.925 1.651-5.099 2.678-1.761 4.733-1.761 3.626.592 4.715 1.774c1.086 1.183 1.631 2.885 1.631 5.104zm-9.759 0c0 1.494.283 2.619.851 3.375.567.756 1.414 1.134 2.542 1.134 2.262 0 3.393-1.503 3.393-4.509 0-3.012-1.125-4.518-3.375-4.518-1.128 0-1.979.379-2.552 1.139s-.859 1.885-.859 3.379zm17.688 6.704h-2.835v-11.012h-3.631v-2.36h10.097v2.36H57.09v11.012zm13.581-3.713c0 1.208-.434 2.159-1.303 2.854-.869.695-2.078 1.043-3.626 1.043-1.427 0-2.689-.269-3.786-.805v-2.634c.902.402 1.666.686 2.291.851s1.196.247 1.715.247c.622 0 1.099-.119 1.431-.356.333-.238.499-.591.499-1.061 0-.262-.073-.495-.219-.7-.146-.204-.361-.401-.645-.59s-.861-.491-1.733-.905c-.817-.384-1.43-.753-1.838-1.107a4.158 4.158 0 01-.979-1.234c-.244-.47-.366-1.019-.366-1.646 0-1.183.401-2.113 1.203-2.79s1.91-1.015 3.325-1.015c.695 0 1.358.082 1.989.247.631.165 1.291.396 1.98.695l-.915 2.204c-.713-.292-1.303-.497-1.77-.613a5.69 5.69 0 00-1.376-.174c-.537 0-.948.125-1.235.375-.287.25-.43.576-.43.979 0 .25.058.468.174.654.116.186.3.366.553.54.253.174.852.486 1.797.938 1.25.598 2.107 1.197 2.57 1.797s.694 1.334.694 2.206zm7.583 3.713h-2.835v-11.012h-3.631v-2.36h10.097v2.36h-3.631v11.012zm8.524-5.131v5.131h-2.835v-13.372h3.896c1.817 0 3.161.331 4.033.992.872.662 1.308 1.667 1.308 3.014 0 .787-.216 1.486-.649 2.099s-1.046 1.093-1.838 1.44c2.012 3.006 3.323 4.948 3.933 5.826H91.48l-3.192-5.131h-1.51zm0-2.305h.915c.896 0 1.558-.149 1.985-.448s.64-.769.64-1.409c0-.634-.218-1.085-.654-1.354-.436-.268-1.111-.402-2.026-.402h-.86v3.613zm17.716 7.436l-.97-3.183h-4.875l-.97 3.183h-3.055l4.719-13.426h3.466l4.738 13.426h-3.053zm-1.647-5.561a1027.84 1027.84 0 01-1.514-4.893 13.862 13.862 0 01-.242-.896c-.201.78-.777 2.71-1.729 5.789h3.485zm15.622-3.64c0 1.439-.45 2.54-1.349 3.301-.899.763-2.178 1.144-3.837 1.144h-1.216v4.756h-2.835v-13.372h4.271c1.622 0 2.855.349 3.7 1.047.844.699 1.266 1.74 1.266 3.124zm-6.402 2.122H113c.872 0 1.524-.172 1.957-.517.433-.345.649-.846.649-1.504 0-.665-.182-1.156-.544-1.473-.363-.317-.932-.476-1.706-.476h-1.29v3.97zm-38.116-62.12c-1.983-.653-4.838-.759-8.565-.759H52v20h14.424c2.502 0 4.259-.249 5.271-.437 1.783-.318 3.274-.93 4.472-1.676 1.198-.744 2.183-1.869 2.955-3.293.771-1.424 1.158-3.087 1.158-4.951 0-2.184-.559-3.98-1.677-5.59-1.117-1.611-2.668-2.642-4.652-3.294zm-2.056-8.612c1.97-.586 3.455-1.646 4.452-3.003.999-1.357 1.498-3.103 1.498-5.154 0-1.943-.466-3.675-1.398-5.154-.932-1.478-2.263-2.481-3.992-3.027-1.732-.544-4.7-.809-8.906-.809H52v18h12.507c3.435 0 5.897-.399 7.388-.853zM117 16.126C117 8.324 110.675 2 102.873 2H25.127C17.325 2 11 8.324 11 16.126v77.748C11 101.676 17.325 108 25.127 108h77.746c7.802 0 14.127-6.324 14.127-14.126V16.126zM86.57 73.27c-1.157 2.356-2.589 4.173-4.292 5.451-1.704 1.277-3.841 2.446-6.41 3.098A38.022 38.022 0 0166.424 83H44V24h22.065c4.473 0 8.059.62 10.761 1.804 2.703 1.185 4.818 3.021 6.351 5.483 1.53 2.463 2.296 5.046 2.296 7.735 0 2.502-.68 4.861-2.036 7.071-1.358 2.21-3.408 3.995-6.15 5.352 3.54 1.038 6.263 2.811 8.166 5.313 1.903 2.503 2.855 5.458 2.855 8.866-.001 2.742-.579 5.291-1.738 7.646z"/></svg>