<?xml version="1.0" encoding="UTF-8"?>
<svg fill="#ffffff" version="1.1" viewBox="0 0 128 128" xmlns="http://www.w3.org/2000/svg"><path d="m27.235 13.885c-7.1768 0-12.486 6.284-12.249 13.099 0.22773 6.5462-0.0683 15.026-2.2026 21.94-2.1407 6.9355-5.7598 11.319-11.673 11.883v6.3872c5.9128 0.5633 9.5322 4.9471 11.673 11.883 2.1343 6.9141 2.4303 15.394 2.2024 21.94-0.23731 6.8144 5.0722 13.098 12.249 13.098h73.54c7.1768 0 12.486-6.284 12.249-13.098-0.22798-6.5464 0.0681-15.026 2.2021-21.94 2.1409-6.9355 5.7512-11.319 11.664-11.883v-6.3872c-5.9128-0.5633-9.5231-4.9471-11.664-11.883-2.1341-6.9142-2.4301-15.394-2.2021-21.94 0.23731-6.8147-5.0722-13.099-12.249-13.099zm58.114 61.686c0 9.3836-7.0016 15.073-18.621 15.073h-21.422a0.49132 0.49132 0 0 1-0.49132-0.49132v-52.326a0.49132 0.49132 0 0 1 0.49132-0.49132h21.309c9.6887 0 16.047 5.2459 16.047 13.3 0 5.6522-4.2767 10.713-9.7267 11.6v0.29554c7.418 0.81289 12.414 5.948 12.414 13.041zm-20.778-31.475h-11.278v15.922h9.4995c7.3423 0 11.392-2.9553 11.392-8.2383 0-4.9503-3.482-7.6841-9.6132-7.6841zm-11.278 22.24v17.548h11.695c7.645 0 11.695-3.0664 11.695-8.8293 0-5.7632-4.1632-8.7185-12.187-8.7185z" fill="#7952b3" stroke-width=".24566"/></svg>
