<svg width="128pt" height="128pt" version="1.0" viewBox="0 0 128 128" xmlns="http://www.w3.org/2000/svg"><g fill-rule="evenodd"><path d="m44.375 63.984v34.18l12.066-0.027343c12.488-0.03125 12.398-0.027344 14.227-0.31641 9.2617-1.4531 14.668-7.832 15.145-17.863 0.45312-9.5195-4.2891-16.379-12.41-17.953-0.29297-0.058594-0.19922-0.14062 0.34375-0.29688 5.4258-1.5586 9.3477-7.8242 9.3477-14.926 0-8.3242-4.4336-14.543-11.664-16.367-2.4375-0.61328-2.1992-0.60547-15.523-0.60547h-11.531v34.176m22.027-25.156c5.1484 0.87109 7.6641 3.7852 7.8242 9.0703 0.16406 5.5312-2.3594 9.125-7.2969 10.395-1.6172 0.41406-2.6523 0.47266-8.6211 0.47266h-5.082v-9.9883c0-5.4922 0.019532-10.008 0.039063-10.035 0.066406-0.082032 12.621 0 13.137 0.085937m1.0117 28.453c6.0977 0.90234 9.1016 4.1758 9.3633 10.211 0.27734 6.4141-2.793 10.477-8.668 11.461-1.3125 0.22266-1.9492 0.23828-8.3867 0.23828l-6.4961 0.003906v-22.078l6.707 0.023437c5.9141 0.023437 6.8008 0.039063 7.4805 0.14062" fill="#f6f1fb"/><path d="m83.707 0.62891c-0.20703 0.31641-0.42188 0.67188-0.48438 0.78516s-0.26172 0.41406-0.44141 0.66797-0.32812 0.49609-0.32812 0.53906c0 0.042968-0.089844 0.19531-0.19922 0.33984-0.30078 0.39844-0.59766 0.87109-0.59766 0.95312 0 0.042969-0.046875 0.11328-0.097656 0.16016-0.054688 0.050781-0.37109 0.52344-0.70703 1.0586-0.33203 0.53516-0.64844 1.0078-0.69922 1.0586-0.054688 0.046875-0.097656 0.11719-0.097656 0.16016 0 0.082032-0.35938 0.66016-0.46094 0.73828-0.035156 0.027344-0.17188 0.25781-0.30859 0.51562-0.13672 0.25781-0.26562 0.47266-0.28516 0.47266s-0.14844 0.18359-0.27734 0.40234c-0.13281 0.21875-0.41016 0.66406-0.61328 0.98438-0.47266 0.73828-0.41797 0.65234-0.69531 1.1094-0.13281 0.21484-0.3125 0.48438-0.39844 0.59766-0.089844 0.11328-0.16016 0.23828-0.16016 0.27734-0.003907 0.039062-0.18359 0.32422-0.40234 0.63672s-0.39844 0.60156-0.39844 0.64062c0 0.042969-0.078126 0.17578-0.17578 0.30469-0.28125 0.36328-0.625 0.90625-0.625 0.98828 0 0.042969-0.015625 0.074219-0.039062 0.074219-0.023438 0-0.21875 0.29297-0.44141 0.64453-0.21875 0.35547-0.51953 0.82422-0.66406 1.043-0.14844 0.21875-0.375 0.58203-0.50781 0.8125-0.13281 0.22656-0.30859 0.50391-0.39453 0.61328-0.085937 0.10938-0.21875 0.32422-0.30078 0.48438-0.082031 0.15625-0.20703 0.36328-0.28125 0.45703-0.074219 0.089843-0.23828 0.33984-0.36719 0.54687-0.42187 0.70703-0.86719 1.3828-0.93359 1.4375-0.039063 0.03125-0.070313 0.085938-0.070313 0.12109 0 0.082032-0.31641 0.58984-0.59766 0.95703-0.10938 0.14844-0.20312 0.29687-0.20312 0.33594s-0.16797 0.3125-0.375 0.60547c-0.20703 0.29688-0.40234 0.59766-0.4375 0.67578-0.078125 0.17188-1.3086 2.1055-1.3984 2.1992-0.035157 0.039062-0.125 0.1875-0.19922 0.33594-0.074219 0.14844-0.25391 0.4375-0.40234 0.63672-0.14453 0.19922-0.32422 0.48438-0.39844 0.63281-0.074219 0.14844-0.24609 0.41797-0.38281 0.60156-0.13281 0.18359-0.24609 0.35156-0.24609 0.375 0 0.019531-1.9414 0.023437-4.3164 0.007813l-4.3203-0.03125-0.12891 0.19141c-0.074218 0.10547-0.17578 0.25781-0.23047 0.33984l-0.097657 0.14453-5.1445 0.066406c-3.0859 0.042969-5.2734 0.097656-5.4688 0.14062-0.17578 0.039062-0.53516 0.11719-0.79688 0.17578-0.52734 0.11719-1.3906 0.50391-1.6484 0.74219-0.09375 0.082031-0.25 0.20703-0.35156 0.28125-0.30859 0.21094-1.1758 1.4922-1.1758 1.7344 0 0.046875-0.054688 0.22656-0.125 0.39844-0.070313 0.17578-0.1875 0.58594-0.26172 0.91797-0.35938 1.6133-0.35547 1.5625-0.35938 11.207v8.5938l-0.53125 0.75v13.781l-0.3125 0.48828c-0.17188 0.26953-0.35156 0.53125-0.39844 0.58203-0.050781 0.050781-0.089843 0.12109-0.089843 0.15625 0 0.070312-0.26562 0.48047-0.60938 0.95312-0.10547 0.14453-0.19141 0.29688-0.19141 0.33594 0 0.042969-0.085938 0.19531-0.19141 0.33984-0.35156 0.48047-0.60938 0.88281-0.60938 0.95312 0 0.039063-0.027344 0.097656-0.066406 0.125-0.070312 0.054687-0.53516 0.77344-0.92969 1.4297-0.12109 0.20313-0.28125 0.44531-0.35547 0.53516-0.074219 0.09375-0.22266 0.33203-0.32812 0.53516-0.10938 0.19922-0.26953 0.45312-0.35938 0.5625-0.089844 0.11328-0.24219 0.35547-0.33594 0.53906-0.09375 0.1875-0.21484 0.37891-0.26562 0.43359-0.13281 0.13672-0.55859 0.84766-0.55859 0.92969 0 0.039062-0.019532 0.070312-0.046876 0.070312-0.023437 0-0.1875 0.22656-0.35937 0.50391-0.17188 0.27344-0.33203 0.5-0.35156 0.5-0.023437 0-0.042969 0.035156-0.042969 0.074218 0 0.085938-0.46094 0.82031-0.66016 1.0586-0.078125 0.089844-0.14062 0.19531-0.14062 0.23438s-0.17578 0.32812-0.39844 0.64062c-0.21875 0.3125-0.39844 0.60156-0.39844 0.64062 0 0.042969-0.066406 0.16016-0.14844 0.26953-0.12109 0.16016-0.28125 0.40234-0.69531 1.0625-0.023438 0.035156-0.18359 0.28906-0.35938 0.55859s-0.35547 0.55859-0.39844 0.63672c-0.13281 0.24609-0.50391 0.80859-0.55078 0.83203-0.023437 0.015625-0.14844 0.23438-0.28125 0.48828-0.13672 0.25-0.27344 0.48047-0.30859 0.51172-0.082031 0.0625-0.46094 0.64844-0.46094 0.71094 0 0.027343-0.13672 0.25-0.30859 0.49609-0.16797 0.24609-0.48438 0.73047-0.70312 1.082-0.21484 0.34766-0.42188 0.66016-0.46094 0.6875-0.039063 0.027344-0.10547 0.14844-0.15234 0.26563-0.042969 0.12109-0.20312 0.38281-0.35156 0.58594-0.14844 0.19922-0.33203 0.48828-0.40625 0.63281-0.074218 0.14844-0.23828 0.40625-0.36328 0.57422-0.12109 0.16797-0.29297 0.43359-0.37891 0.59766-0.082031 0.16016-0.20312 0.35547-0.26172 0.42969-0.058594 0.078125-0.35156 0.53125-0.64844 1.0078-0.29688 0.47656-0.58984 0.92578-0.65234 0.99609-0.058594 0.070313-0.11328 0.16016-0.11328 0.20312 0 0.039063-0.17969 0.32812-0.39844 0.63672-0.21875 0.3125-0.39844 0.60156-0.39844 0.64453 0 0.039063-0.078125 0.17578-0.17578 0.30078-0.28906 0.37891-0.625 0.91016-0.625 0.98828 0 0.035156-0.03125 0.09375-0.070313 0.12109-0.066406 0.054687-0.48047 0.69141-0.93359 1.4375-0.125 0.21094-0.28516 0.45312-0.35547 0.53906-0.070312 0.085938-0.21484 0.32031-0.32031 0.51953s-0.27734 0.46875-0.37891 0.59766c-0.097656 0.13281-0.25781 0.37891-0.35547 0.55078-0.09375 0.17188-0.3125 0.51562-0.48047 0.76562s-0.30469 0.49219-0.30469 0.53906-0.023438 0.089844-0.046875 0.089844c-0.023438 0-0.1875 0.22266-0.35938 0.5-0.17188 0.27344-0.33203 0.5-0.35547 0.5-0.019531 0-0.039062 0.03125-0.039062 0.070312 0 0.082032-0.51563 0.90234-0.6875 1.0938-0.0625 0.070313-0.11328 0.16016-0.11328 0.20313 0 0.039062-0.17969 0.32812-0.39844 0.64062s-0.39844 0.60156-0.39844 0.64453c-0.003906 0.039062-0.070312 0.16016-0.15625 0.26562-0.16797 0.21484-1.3711 2.1016-1.5039 2.3672-0.050781 0.089844-0.23438 0.375-0.41406 0.62891-0.17969 0.25391-0.32812 0.49219-0.32812 0.53516 0 0.039062-0.089844 0.19531-0.20313 0.33984-0.29687 0.39453-0.59766 0.87109-0.59766 0.95703 0 0.039062-0.042968 0.11328-0.097656 0.16016-0.050781 0.046875-0.28125 0.38672-0.51172 0.75391-0.48438 0.78125-0.49219 0.78906-0.48438 0.44141 0.003906-0.14453-0.011718-0.25-0.035156-0.23437-0.089844 0.070312-0.03125 3.0938 0.058594 3.0586 0.066406-0.027343 0.070312-0.019531 0.011718 0.03125-0.074218 0.066407-0.070312 0.21875 0.019532 1.0859 0.027344 0.26953 0.12109 0.875 0.17188 1.1367 0.011719 0.054687 0.019531 0.18359 0.019531 0.28906 0 0.10156 0.039062 0.20312 0.082031 0.22656 0.046875 0.019532 0.058594 0.054688 0.027344 0.078126-0.027344 0.023437-0.039063 0.125-0.023437 0.22266 0.015624 0.10156 0.050781 0.16797 0.074218 0.14844 0.027344-0.019531 0.035156 0.007813 0.015625 0.058594-0.03125 0.10938 0.21875 1.0664 0.33984 1.3008 0.042969 0.082032 0.0625 0.14844 0.042969 0.14844-0.015625 0 0.023437 0.14453 0.09375 0.32031 0.066406 0.17188 0.15625 0.44531 0.19531 0.60156 0.039063 0.15625 0.09375 0.28125 0.12109 0.28125 0.023438 0 0.035156 0.023437 0.019531 0.050781-0.011719 0.03125 0.082031 0.27734 0.21094 0.55469 0.12891 0.27344 0.28516 0.63672 0.34766 0.80078s0.20703 0.45703 0.32031 0.65234c0.53125 0.89844 0.65234 1.0859 0.69922 1.0859 0.027344 0 0.035156 0.027344 0.019532 0.058594-0.015626 0.035156 0.089843 0.22266 0.23828 0.41797 0.14844 0.19922 0.32812 0.45703 0.40234 0.57813 0.40625 0.66016 2.0977 2.3398 2.9297 2.9023 0.64062 0.43359 1.3633 0.87109 1.5391 0.93359 0.089844 0.03125 0.44922 0.17969 0.79688 0.32812 0.34375 0.14844 0.92187 0.35547 1.2773 0.45312l0.65234 0.17969h78.348l0.66797-0.18359c0.36719-0.097657 1.0586-0.34766 1.5352-0.55078 0.78125-0.33203 1.082-0.50391 2.1406-1.2031 1.0078-0.67187 2.5469-2.3242 3.4844-3.7461 0.21875-0.33594 1-1.7227 1-1.7773 0-0.03125 0.11328-0.28906 0.25391-0.57812 0.34375-0.71875 0.72656-1.8047 1.0664-3.0273 0.16797-0.60547 0.20312-0.77734 0.42188-2.2422l0.14453-0.9375 0.003906-5.6484c0.007813-6.2773 0.039063-7.2383 0.375-11.871 0.21484-2.9727 0.30469-3.7539 0.80078-7.1875 0.24609-1.7266 0.96484-5.2344 1.3359-6.5312 0.13672-0.47266 0.3125-1.1172 0.39844-1.4336 0.082031-0.3125 0.22656-0.78125 0.31641-1.0352 0.09375-0.25391 0.24219-0.67578 0.33203-0.93359 0.55859-1.625 1.3125-3.3008 2.043-4.5352 0.70312-1.1836 0.83203-1.3789 1.4492-2.1562 1.3281-1.6719 2.8516-2.8594 4.4727-3.4922 0.80469-0.31641 1.5273-0.53125 2.082-0.625l0.50391-0.082031v-8.2461l-0.50391-0.082031c-0.82422-0.13672-2.2734-0.63672-2.9531-1.0195-0.18359-0.10547-0.34766-0.19141-0.35938-0.19141-0.015625 0-0.19531-0.12109-0.40234-0.26562-0.20703-0.14844-0.39844-0.26953-0.42578-0.26953-0.050781 0-0.78516-0.63281-1.3789-1.1953-0.46094-0.43359-1.5742-1.8164-1.8906-2.3477-0.12109-0.20312-0.23438-0.38281-0.25-0.40234-0.070313-0.070313-0.67969-1.1523-0.97266-1.7305-0.43359-0.83984-1.0391-2.293-1.4141-3.3867-0.089844-0.25781-0.23828-0.67578-0.33203-0.93359-0.089844-0.25391-0.23438-0.71875-0.31641-1.0352-0.085938-0.3125-0.26172-0.96094-0.39844-1.4336-0.37109-1.293-1.0898-4.8008-1.3359-6.5273-0.49609-3.4219-0.57812-4.1719-0.80078-7.1914-0.33594-4.5781-0.36719-5.5938-0.375-11.836-0.003906-5.5195-0.007812-5.6289-0.125-6.418-0.066406-0.44141-0.14453-0.98438-0.17188-1.2031-0.12891-0.97266-0.82812-3.207-1.3398-4.2656-0.14062-0.28906-0.25391-0.55078-0.25391-0.57812 0-0.058594-0.78125-1.4453-1-1.7773-0.92188-1.4023-2.5352-3.1445-3.457-3.7305-0.14453-0.089843-0.50391-0.32422-0.79297-0.51953-0.29297-0.19531-0.60547-0.375-0.69531-0.40625-0.089844-0.027343-0.46484-0.1875-0.83594-0.35156-0.37109-0.16797-0.97266-0.38672-1.3359-0.49219l-0.65625-0.1875-9.5742-0.015625-9.5781-0.019531-0.37109 0.58203m-15.891 29.18c1.7266 0.11328 3.6953 0.47266 4.8008 0.87891 2.4219 0.89062 3.9648 1.8086 5.5586 3.3164 5.3789 5.0859 6.5859 14.859 2.6875 21.715-1.7344 3.0508-4.5156 5.4141-7.0938 6.0352-0.64062 0.15234-0.63281 0.16016 0.40625 0.37109 8.4219 1.7227 13.094 10.469 11.32 21.184-1.3398 8.0742-6.8438 13.434-14.969 14.574-1.8672 0.26563-2.3594 0.27344-14.43 0.27344h-11.773v-68.414h11.238c6.6406 0 11.656 0.027343 12.254 0.066406m-14.535 18.93v9.9688l5.6953-0.027343c6.1641-0.027344 5.9883-0.019532 7.7852-0.41797 4.918-1.0898 7.5391-4.7031 7.4141-10.227-0.10938-4.6719-2.0469-7.5312-5.9336-8.7578-1.4492-0.45703-2.3359-0.50391-9.293-0.50391l-5.668-0.003907v9.9688m0 29.391v11.004l7-0.023437c7.6211-0.023437 7.2969-0.011719 8.9062-0.41797 4.9023-1.2344 7.4062-4.6055 7.5469-10.168 0.15234-5.9961-2.4766-9.6758-7.7695-10.887-1.9922-0.45703-3-0.50781-9.9883-0.50781l-5.6953-0.003906v11.004m-40.422 10.305c0 0.070312 0.023437 0.17188 0.054687 0.22656 0.039063 0.074219 0.042969 0.046875 0.015626-0.10156-0.042969-0.24609-0.074219-0.29688-0.070313-0.125m0.80859 6.7148c0 0.12891 0.011719 0.17969 0.027343 0.11719 0.011719-0.066406 0.011719-0.17188 0-0.23438-0.015624-0.066406-0.027343-0.011719-0.027343 0.11719m0.0625 0.79297c0.019531 0.125 0.03125 0.34375 0.03125 0.48438 0 0.14453 0.023437 0.25781 0.046875 0.25781 0.046875 0-0.023438-0.86328-0.078125-0.92578-0.019531-0.023437-0.019531 0.058594 0 0.18359m0.28125 3.9336c-0.019531 0.023438-0.035157 0.11719-0.035157 0.21094 0 0.21094 0.058594 0.14844 0.078126-0.085938 0.015624-0.18359 0.011718-0.19531-0.042969-0.125m0.019531 1.3789c0 0.13672 0.019531 0.24609 0.046875 0.24609 0.023437 0 0.035156-0.09375 0.023437-0.21094-0.027343-0.30078-0.070312-0.32422-0.070312-0.035156m0.14062 2.4297c-0.050781 0.066406-0.042969 0.37109 0.011719 0.32812 0.027344-0.019531 0.046875-0.10938 0.046875-0.20312 0-0.18359-0.003907-0.19141-0.058594-0.125m0 0.47656c-0.035156 0.082032-0.027344 0.76172 0.011719 0.71484 0.027344-0.035156 0.050781-0.76562 0.023437-0.76562-0.007812 0-0.019531 0.023437-0.035156 0.050781m0 0.86328c-0.019531 0.023437-0.035156 0.11719-0.035156 0.21094 0 0.20703 0.0625 0.14062 0.082031-0.085937 0.015625-0.17969 0.011719-0.19531-0.046875-0.125m-0.035156 0.70312c0 0.15234 0.019531 0.25391 0.039062 0.22656 0.054688-0.070313 0.058594-0.50781 0.003907-0.50781-0.023438 0-0.042969 0.125-0.042969 0.28125m0 0.53125c0 0.11719 0.015625 0.19141 0.035156 0.16797 0.0625-0.078125 0.074219-0.30078 0.015625-0.34375-0.027344-0.023437-0.050781 0.050781-0.050781 0.17578m0 1.1875c0 0.34766 0.015625 0.60938 0.035156 0.58594 0.054687-0.070312 0.066406-1 0.015625-1.1133-0.03125-0.0625-0.046875 0.13672-0.050781 0.52734m0 1.0117c0 0.26172 0.078125 0.26172 0.085937 0 0.003906-0.11328-0.015625-0.20312-0.039062-0.20312-0.027344 0-0.046875 0.089844-0.046875 0.20312m0 0.47656c0 0.24609 0.035156 0.23438 0.074219-0.027344 0.015624-0.10156 0.003906-0.18359-0.023438-0.18359s-0.050781 0.097656-0.050781 0.21094m0.027343 0.46484c0.027344 0.28125 0.078126 0.33203 0.078126 0.074218 0-0.11328-0.023438-0.22266-0.050782-0.24609-0.027344-0.023437-0.039062 0.046876-0.027344 0.17188" fill="#790af6"/><path d="m24.641 0.18359c-1.418 0.30469-2.8477 0.92969-3.9297 1.7266-0.21094 0.15234-0.39844 0.28125-0.41797 0.28125-0.039063 0-1.1953 1.0039-1.3398 1.168-0.98438 1.1016-1.1797 1.3359-1.625 1.9727-0.30469 0.44531-1.1367 1.8398-1.2305 2.0742-0.039062 0.09375-0.16797 0.37891-0.28906 0.63672-0.62891 1.3203-1.1953 3.1875-1.4336 4.7031-0.26172 1.6602-0.25781 1.5664-0.26562 7.668-0.007813 5.6562-0.039063 6.9336-0.21484 9.4297-0.015625 0.21875-0.078125 1.0781-0.14062 1.9062-0.058594 0.82812-0.11719 1.6836-0.13281 1.9062-0.035156 0.64453-0.32031 3.0234-0.53125 4.4141-0.16016 1.0781-0.1875 1.2773-0.23828 1.6914-0.070312 0.57812-0.80469 4.2031-1.0195 5.0273-0.3125 1.2109-0.875 3.1211-1.1094 3.7812-0.09375 0.25391-0.1875 0.52734-0.21094 0.60156-0.75 2.4883-2.832 6.0664-4.457 7.6641-0.85547 0.83594-2.7578 2.1992-3.0781 2.1992-0.042968 0-0.22266 0.0625-0.39453 0.13672-0.54688 0.23828-1.5195 0.52734-2.0625 0.60938l-0.51953 0.082031 0.011719 4.1133 0.015625 4.1133 0.58594 0.11328c2.6172 0.5 5.207 2.1992 6.7148 4.3984 0.089844 0.13281 0.17969 0.25391 0.19922 0.26172 0.050781 0.03125 0.78125 1.168 1.0391 1.6211 0.41406 0.72266 0.97266 1.8477 1.2227 2.4727 0.14063 0.34766 0.29688 0.71094 0.34375 0.80469 0.1875 0.35156 1.1289 3.1758 1.0781 3.2383-0.015626 0.019531-0.003907 0.035156 0.023437 0.035156 0.03125 0 0.054687 0.039063 0.058594 0.085938 0.003906 0.046875 0.13672 0.56641 0.29688 1.1602 0.26172 0.95312 0.40234 1.5195 0.4375 1.7344 0.007812 0.035156 0.066406 0.30859 0.12891 0.60156 0.13281 0.59375 0.12891 0.56641 0.24219 1.168 0.046874 0.23828 0.10937 0.52344 0.13672 0.63672 0.11328 0.46875 0.36328 1.8984 0.40234 2.3398 0.015625 0.14453 0.039062 0.3125 0.054688 0.36719 0.015624 0.054688 0.039062 0.21875 0.054687 0.36719s0.0625 0.47656 0.10156 0.73438c0.13281 0.85156 0.39062 2.9336 0.42969 3.4453 0.042969 0.61328 0.054687 0.74219 0.097656 1.1719 0.015625 0.18359 0.042969 0.51172 0.058594 0.72656s0.039063 0.41406 0.054687 0.44531c0.011719 0.027344 0.027344 0.30859 0.035157 0.625 0.003906 0.31641 0.03125 0.57422 0.058593 0.57422 0.027344 0 0.035157 0.042969 0.019532 0.09375s0 0.12891 0.035156 0.17578c0.046875 0.066407 0.046875 0.074219-0.003906 0.039063-0.082032-0.058594-0.089844 0.11719-0.011719 0.29688 0.035156 0.082031 0.035156 0.13672 0 0.16406-0.035156 0.027344-0.035156 0.089844-0.011719 0.15625 0.027344 0.0625 0.039063 0.28516 0.03125 0.5-0.007812 0.21094 0 0.37109 0.019532 0.35547 0.023437-0.015625 0.035156 0.17969 0.03125 0.43359-0.003907 0.25391 0.007812 0.44922 0.027343 0.43359 0.019531-0.011719 0.039063 0.25 0.042969 0.58594s0.023438 1.1094 0.042969 1.7148c0.015625 0.60938 0.03125 1.2031 0.03125 1.3242 0.003906 0.12109 0.023437 0.20312 0.046875 0.18359 0.023437-0.015625 0.042968 0.042969 0.042968 0.13281 0 0.09375-0.019531 0.18359-0.046874 0.20312-0.027344 0.023437-0.046876 0.066406-0.046876 0.10547 0 0.035156 0.027344 0.042968 0.0625 0.019531 0.035157-0.03125 0.046876-0.019531 0.023438 0.027343-0.054688 0.10938-0.074219 0.54297-0.023438 0.50391 0.066407-0.050781 0.050782 0.14062-0.015624 0.22656-0.046876 0.058594-0.046876 0.10156 0.003906 0.17578 0.046875 0.074219 0.050781 0.13672 0.003906 0.23828-0.03125 0.074218-0.035156 0.13672-0.011719 0.13672 0.054688 0 0.054688 0.40234-0.003906 0.51563-0.023437 0.042968-0.015625 0.097656 0.011719 0.12109 0.058594 0.042969 0.050781 0.21875-0.015625 0.35156-0.023438 0.050781-0.011719 0.082031 0.027343 0.082031 0.046876 0.003906 0.050782 0.019531 0.015626 0.050781-0.03125 0.027344-0.046876 0.125-0.035157 0.21875 0.03125 0.25781 0.027344 1.1523-0.007812 1.3203-0.015625 0.082031-0.007813 0.14844 0.019531 0.14844 0.0625 0 0.039062 0.35547-0.027344 0.41797-0.035156 0.03125-0.03125 0.050781 0.007813 0.050781 0.058593 0 0.050781 0.28125-0.011719 0.41016-0.011719 0.027344 0 0.066407 0.03125 0.089844 0.027344 0.023438 0.050781 0.14062 0.050781 0.25781 0 0.16406-0.011719 0.1875-0.054687 0.11328-0.035156-0.070312-0.046875 0.015625-0.03125 0.30078 0.011718 0.23828-0.003906 0.4375-0.039063 0.49609-0.046875 0.078125-0.042969 0.082031 0.027344 0.03125 0.046875-0.03125 0.27344-0.35938 0.50391-0.73047 0.22656-0.36719 0.45703-0.70703 0.51172-0.75391s0.097656-0.12109 0.097656-0.16016c0-0.085938 0.30078-0.5625 0.59766-0.95703 0.10938-0.14453 0.20313-0.30078 0.20313-0.33984 0-0.042969 0.14453-0.28125 0.32422-0.53516s0.36719-0.53906 0.41406-0.62891c0.13672-0.26562 1.3398-2.1523 1.5078-2.3672 0.085938-0.10547 0.15234-0.22656 0.15234-0.26562 0-0.042969 0.17969-0.33203 0.40234-0.64453 0.21875-0.3125 0.39844-0.60156 0.39844-0.64062 0-0.042969 0.050782-0.13281 0.11328-0.20313 0.17187-0.19141 0.6875-1.0117 0.6875-1.0938 0-0.039062 0.015624-0.070312 0.039062-0.070312s0.18359-0.22656 0.35547-0.5c0.17188-0.27734 0.33203-0.5 0.35938-0.5 0.023437 0 0.042968-0.042969 0.042968-0.089844s0.14063-0.28906 0.30859-0.53906c0.16797-0.25 0.38281-0.59375 0.48047-0.76562 0.09375-0.17188 0.25391-0.41797 0.35547-0.55078 0.10156-0.12891 0.26953-0.39844 0.37891-0.59766 0.10547-0.19922 0.25-0.43359 0.32031-0.51953 0.066407-0.085938 0.22656-0.32812 0.35547-0.53906 0.45312-0.74609 0.86719-1.3828 0.93359-1.4375 0.039063-0.027344 0.070313-0.085938 0.070313-0.12109 0-0.078125 0.33594-0.60938 0.625-0.98828 0.09375-0.125 0.17187-0.26172 0.17187-0.30078 0-0.042969 0.17969-0.33203 0.40234-0.64453 0.21875-0.30859 0.39844-0.59766 0.39844-0.63672 0-0.042969 0.050781-0.13281 0.11328-0.20312 0.0625-0.070312 0.35547-0.51953 0.65234-0.99609 0.29688-0.47656 0.58594-0.92969 0.64844-1.0078 0.058594-0.074219 0.17578-0.26953 0.26172-0.42969 0.085937-0.16406 0.25391-0.42969 0.37891-0.59766s0.28516-0.42578 0.36328-0.57422c0.074219-0.14453 0.25781-0.43359 0.40625-0.63281 0.14844-0.20312 0.30859-0.46484 0.35156-0.58594 0.046875-0.11719 0.11328-0.23828 0.15234-0.26563 0.039062-0.027343 0.24609-0.33984 0.46094-0.6875 0.21484-0.35156 0.53125-0.83594 0.70312-1.082 0.16797-0.24609 0.30859-0.46875 0.30859-0.49609 0-0.0625 0.37891-0.64844 0.46094-0.71094 0.035157-0.03125 0.17188-0.26172 0.30469-0.51172 0.13281-0.25391 0.26172-0.47266 0.28516-0.48828 0.042969-0.023438 0.41797-0.58594 0.55078-0.83203 0.042968-0.078125 0.22266-0.36719 0.39844-0.63672 0.17188-0.26953 0.33594-0.52344 0.35938-0.55859 0.41406-0.66016 0.57422-0.90234 0.69531-1.0625 0.078126-0.10938 0.14844-0.22656 0.14844-0.26953 0-0.039063 0.17969-0.32812 0.39844-0.64062s0.39844-0.60156 0.39844-0.64062 0.0625-0.14453 0.14062-0.23438c0.19922-0.23828 0.66016-0.97266 0.66016-1.0586 0-0.039062 0.019532-0.074218 0.039063-0.074218 0.023437 0 0.18359-0.22656 0.35547-0.5 0.17187-0.27734 0.33203-0.50391 0.35937-0.50391 0.023438 0 0.046876-0.03125 0.046876-0.070312 0-0.082031 0.42578-0.79297 0.55859-0.92969 0.050781-0.054687 0.16797-0.24609 0.26562-0.43359 0.09375-0.18359 0.24609-0.42578 0.33594-0.53906 0.089844-0.10938 0.25-0.36328 0.35938-0.5625 0.10547-0.20312 0.25391-0.44141 0.32812-0.53516 0.070312-0.089844 0.23047-0.33203 0.35547-0.53516 0.39063-0.65625 0.85938-1.375 0.92969-1.4297 0.035156-0.027344 0.066406-0.085937 0.066406-0.125 0-0.070313 0.25391-0.47266 0.60547-0.95312 0.10547-0.14453 0.19531-0.29688 0.19531-0.33984 0-0.039062 0.085937-0.19141 0.19141-0.33594 0.34375-0.47266 0.60547-0.88281 0.60547-0.95312 0-0.035156 0.042969-0.10547 0.089844-0.15625 0.050782-0.050782 0.23047-0.3125 0.40234-0.58203l0.30859-0.48828v-13.781l0.26953-0.375 0.26562-0.375v-8.5938c0-9.6445 0-9.5938 0.35938-11.207 0.074219-0.33203 0.19141-0.74219 0.26172-0.91797 0.066406-0.17188 0.125-0.35156 0.125-0.39844 0-0.24219 0.86719-1.5234 1.1719-1.7344 0.10547-0.074219 0.26172-0.19922 0.35156-0.28125 0.26172-0.23828 1.1211-0.625 1.6484-0.74219 0.26562-0.058593 0.625-0.13672 0.80078-0.17578 0.19141-0.042969 2.3828-0.097656 5.4688-0.14062l5.1445-0.066406 0.097657-0.14453c0.050781-0.082032 0.15625-0.23438 0.22656-0.33984l0.13281-0.19141 4.3164 0.03125c2.3789 0.015624 4.3203 0.011718 4.3203-0.007813 0-0.023437 0.10938-0.19141 0.24609-0.375 0.13281-0.18359 0.30469-0.45312 0.37891-0.60156 0.078125-0.14844 0.25781-0.43359 0.40234-0.63281 0.14844-0.19922 0.32812-0.48828 0.40234-0.63672 0.074219-0.14844 0.16406-0.29688 0.19922-0.33594 0.089843-0.09375 1.3164-2.0273 1.3945-2.1992 0.035156-0.078125 0.23438-0.37891 0.44141-0.67578 0.20703-0.29297 0.375-0.56641 0.375-0.60547s0.089844-0.1875 0.20312-0.33594c0.28125-0.36719 0.59766-0.875 0.59766-0.95703 0-0.035156 0.03125-0.089844 0.066406-0.12109 0.070313-0.054687 0.51172-0.73047 0.9375-1.4375 0.125-0.20703 0.28906-0.45703 0.36328-0.54687 0.074218-0.09375 0.20312-0.30078 0.28516-0.45703 0.078125-0.16016 0.21484-0.375 0.30078-0.48438 0.082031-0.10938 0.26172-0.38672 0.39453-0.61328 0.12891-0.23047 0.35938-0.59375 0.50391-0.8125 0.14844-0.21875 0.44922-0.6875 0.66797-1.043 0.21875-0.35156 0.41797-0.64453 0.44141-0.64453 0.019531 0 0.039062-0.03125 0.039062-0.074219 0-0.082031 0.34375-0.625 0.625-0.98828 0.09375-0.12891 0.17578-0.26172 0.17578-0.30469 0-0.039062 0.17969-0.32812 0.39844-0.64062s0.39844-0.59766 0.39844-0.63672c0-0.039063 0.074219-0.16406 0.16016-0.27734 0.089843-0.11328 0.26953-0.38281 0.39844-0.59766 0.28125-0.45703 0.22656-0.37109 0.69922-1.1094 0.20312-0.32031 0.48047-0.76562 0.60938-0.98438 0.13281-0.21875 0.25781-0.40234 0.28125-0.40234 0.019531 0 0.14844-0.21484 0.28516-0.47266 0.13281-0.25781 0.27344-0.48828 0.30859-0.51562 0.097656-0.078125 0.46094-0.65625 0.46094-0.73828 0-0.042968 0.042968-0.11328 0.09375-0.16016 0.054687-0.050781 0.37109-0.52344 0.70312-1.0586s0.64844-1.0078 0.70313-1.0586c0.054687-0.046875 0.097656-0.11719 0.097656-0.16016 0-0.082031 0.29688-0.55469 0.60156-0.95312 0.10938-0.14453 0.19922-0.29688 0.19922-0.33984 0-0.042969 0.14844-0.28516 0.32812-0.53906 0.17969-0.25391 0.36328-0.53516 0.41016-0.62891 0.046875-0.089844 0.20703-0.34766 0.35547-0.56641 0.14844-0.22266 0.32422-0.5 0.39062-0.62109l0.125-0.21484-29.434 0.0039063c-28.051 0.0078125-29.457 0.015625-29.988 0.12891" fill="#8c0bfb"/><path d="m44.344 63.949c0 18.797 0.007812 26.477 0.015625 17.066s0.007813-24.789 0-34.176c-0.007813-9.3828-0.015625-1.6836-0.015625 17.109m23.48-34.094c0.066406 0.015625 0.17578 0.015625 0.24219 0s0.011719-0.027344-0.12109-0.027344c-0.13281 0-0.1875 0.011719-0.12109 0.027344m12.016 6.1289c0 0.011719 0.078125 0.10938 0.17188 0.21484l0.17578 0.19922-0.16016-0.21875c-0.14453-0.20313-0.1875-0.25-0.1875-0.19531m-26.578 2.7695c-0.023438 0.046875 4.1289 0.046875 9.6719 0 1.1562-0.011718-0.53906-0.023437-3.7695-0.035156-3.2344-0.007812-5.8906 0.007812-5.9023 0.035156m12.562 0.0625c0.054687 0.019532 0.13672 0.019532 0.1875 0 0.050781-0.015625 0.011719-0.03125-0.09375-0.03125-0.10156 0-0.14453 0.015625-0.09375 0.03125m6.4414 3.0664c0.16016 0.19922 0.30078 0.36719 0.31641 0.36719s-0.10547-0.16797-0.26172-0.36719c-0.16016-0.20312-0.30469-0.37109-0.31641-0.37109-0.015625 0 0.10156 0.16797 0.26172 0.37109m10.844 4.9453c0 0.22266 0.007813 0.30469 0.023437 0.18359 0.011719-0.12109 0.011719-0.30078-0.003906-0.40234-0.011718-0.097656-0.019531 0-0.019531 0.21875m-8.9102 0.83594c0 0.16797 0.011719 0.23438 0.023437 0.15234 0.011719-0.082031 0.011719-0.21875 0-0.30078-0.011718-0.082031-0.023437-0.015625-0.023437 0.14844m8.8516 0.53516c0 0.12891 0.011719 0.18359 0.023438 0.11719 0.015625-0.0625 0.015625-0.16797 0-0.23438-0.011719-0.0625-0.023438-0.011719-0.023438 0.11719m-8.8516 0.87109c0 0.16406 0.011719 0.23438 0.023437 0.14844 0.011719-0.082031 0.011719-0.21484 0-0.30078-0.011718-0.082031-0.023437-0.011719-0.023437 0.15234m4.7031 9.3125l-0.15625 0.21875 0.17188-0.19922c0.16406-0.18359 0.19922-0.23828 0.15625-0.23828-0.007813 0-0.085938 0.097657-0.17188 0.21875m-13.824 0.23047c0.050781 0.015625 0.13672 0.015625 0.1875 0 0.050781-0.019531 0.007813-0.03125-0.09375-0.03125s-0.14453 0.011719-0.09375 0.03125m-0.66406 0.066407c0.0625 0.015624 0.17188 0.015624 0.23828 0 0.066406-0.015626 0.011718-0.027344-0.12109-0.027344s-0.18359 0.011718-0.11719 0.027344m-8.5586 0.070312c1.4609 0.011719 3.8398 0.011719 5.2812 0 1.4414-0.007812 0.24609-0.019531-2.6562-0.019531-2.9062 0-4.0859 0.011719-2.625 0.019531m26.25 8.3086c0.20312 0.25781 0.38281 0.46875 0.39844 0.46875 0.011719 0-0.14062-0.21094-0.34375-0.46875-0.20312-0.25781-0.38281-0.46875-0.39844-0.46875s0.14062 0.21094 0.34375 0.46875m-16.52 0.11719c0.097656 0.015625 0.24219 0.015625 0.32031 0 0.082031-0.015625 0.003906-0.027343-0.17188-0.027343-0.17969 0-0.24219 0.011718-0.14844 0.027343m0.98828 0.0625c0.050781 0.019531 0.13281 0.019531 0.18359 0 0.050782-0.015625 0.011719-0.03125-0.09375-0.03125-0.10156 0-0.14453 0.015625-0.089843 0.03125m8.0391 3.668c0.1875 0.23828 0.35547 0.43359 0.37109 0.43359 0.011719 0-0.12891-0.19531-0.32031-0.43359-0.1875-0.24219-0.35547-0.4375-0.36719-0.4375-0.015625 0 0.125 0.19531 0.31641 0.4375m2.1523 7.1875c0 0.42188 0.007813 0.59766 0.019531 0.38281 0.011719-0.21094 0.011719-0.55469 0-0.76562-0.011718-0.21094-0.019531-0.039063-0.019531 0.38281m9.0625-0.16797c0 0.22266 0.011719 0.30469 0.023437 0.18359 0.011719-0.12109 0.011719-0.30078 0-0.40234-0.011718-0.097656-0.023437 0-0.023437 0.21875m0 1.7383c0 0.22266 0.011719 0.30469 0.023437 0.18359 0.011719-0.12109 0.011719-0.30078 0-0.40234-0.011718-0.097656-0.023437 0-0.023437 0.21875m-11.246 5.8047l-0.26172 0.34766 0.27734-0.32812c0.15625-0.18359 0.28125-0.34375 0.28125-0.35156 0-0.050781-0.050781 0.003906-0.29688 0.33203m9.668 2.0898c-0.050781 0.12891-0.078125 0.23438-0.066406 0.23438 0.039062 0 0.19922-0.41016 0.17578-0.44141-0.011719-0.015624-0.0625 0.078126-0.10938 0.20703m-18.211 1.6172c0.082032 0.015625 0.21094 0.015625 0.29297 0s0.015625-0.027343-0.14453-0.027343c-0.16406 0-0.23047 0.011718-0.14844 0.027343m15.852 2.5117l-0.21094 0.28125 0.22656-0.26172c0.21094-0.24609 0.25-0.30469 0.21094-0.30469-0.007813 0-0.11328 0.12891-0.22656 0.28516m-13.133 6.3828c0.050782 0.015626 0.13672 0.015626 0.1875 0 0.050782-0.019531 0.007813-0.03125-0.09375-0.03125-0.10156 0-0.14453 0.011719-0.09375 0.03125m-1.5977 0.070313c0.17188 0.011719 0.43359 0.011719 0.58594 0 0.15625-0.015625 0.015625-0.027344-0.30859-0.027344-0.32031 0-0.44531 0.011719-0.27734 0.027344" fill="#a86bee"/><path d="m50.012 29.793c3.1172 0.007812 8.2188 0.007812 11.336 0 3.1133-0.007813 0.56641-0.015625-5.668-0.015625-6.2344 0-8.7852 0.007812-5.668 0.015625m29.535 5.7695c0.14453 0.18359 0.27344 0.33203 0.28906 0.33203 0.015624 0-0.09375-0.14844-0.23828-0.33203s-0.27344-0.33594-0.28906-0.33594c-0.011719 0 0.09375 0.15234 0.23828 0.33594m-14.359 3.2578c0.10938 0.015626 0.28906 0.015626 0.39844 0 0.10937-0.015624 0.019531-0.027343-0.19922-0.027343s-0.3125 0.011719-0.19922 0.027343m-11.934 9.9492c0 5.4805 0.003906 7.7109 0.011719 4.9609 0.007813-2.7539 0.007813-7.2383 0-9.9648-0.007813-2.7305-0.011719-0.47656-0.011719 5.0039m29.852-1.3398c0 0.14844 0.011719 0.19922 0.023437 0.11719 0.015625-0.082031 0.015625-0.20312 0-0.26562-0.011718-0.066406-0.023437 0.003906-0.023437 0.14844m-8.9023 0.9375c0 0.25781 0.011719 0.35547 0.023437 0.21484 0.011719-0.13672 0.007813-0.34766 0-0.46484-0.015624-0.12109-0.023437-0.007813-0.023437 0.25m-2.0977 6.7539c-0.12891 0.16797-0.22266 0.30078-0.20703 0.30078 0.011718 0 0.13281-0.13281 0.26172-0.30078 0.12891-0.16406 0.22266-0.30078 0.20703-0.30078-0.011719 0-0.13281 0.13672-0.26172 0.30078m-18.852 23.039v11l6.332 0.003906h6.332l-6.3203-0.019531-6.3164-0.015625-0.015625-10.984-0.011719-10.984v11m11.906-10.984c0.066406 0.015625 0.16016 0.011719 0.21484-0.003906 0.050781-0.015625-0.003906-0.027344-0.12109-0.027344-0.11719 0-0.16016 0.011719-0.09375 0.03125m16.328 25.012l-0.18359 0.25 0.20312-0.23047c0.18359-0.21484 0.22266-0.26953 0.18359-0.26953-0.011718 0-0.10156 0.11328-0.20312 0.25" fill="#9c3cf4"/></g></svg>
