<svg xmlns="http://www.w3.org/2000/svg" viewBox="0 0 128 128">
    <path fill="#fec514" d="M11.758 47.734v19c0 6.293 5.105 11.395 11.398 11.395h.95V59.133c0-6.293-5.102-11.395-11.395-11.399Zm33.949 5.703v13.856h2.094V53.437Zm61.86 0v13.856h2.09v-4.887c0-1.234.206-2.117.62-2.644a2.3 2.3 0 0 1 1.934-.785 1.766 1.766 0 0 1 1.457.558c.348.496.516 1.098.477 1.7v6.058h2.097l-.015-6.43c0-2.402-1.196-3.601-3.582-3.601a3.824 3.824 0 0 0-1.774.394 2.883 2.883 0 0 0-1.187 1.102h-.133a16.53 16.53 0 0 0 .105-1.813v-3.511h-2.09ZM81.94 55.23l-.71 2.083-1.426.765v.95h1.343v5.308c0 2.09.989 3.137 2.973 3.137.383.004.762-.032 1.137-.106.308-.047.605-.133.894-.25V65.54a5.104 5.104 0 0 1-1.53.246 1.403 1.403 0 0 1-1.009-.387 1.493 1.493 0 0 1-.379-1.12v-5.274h2.809v-1.578h-2.809V55.23Zm10.047 2.028a7.997 7.997 0 0 0-1.8.219 7.395 7.395 0 0 0-1.758.636l.68 1.496a12.21 12.21 0 0 1 1.316-.543c.469-.148.96-.222 1.453-.218.504-.04 1 .132 1.367.476.324.399.48.91.438 1.422v.527l-1.7.055c-1.546.047-2.695.328-3.445.844a2.595 2.595 0 0 0-1.129 2.297c-.05.82.242 1.625.813 2.219a3.119 3.119 0 0 0 2.293.785 4.483 4.483 0 0 0 1.851-.328 3.939 3.939 0 0 0 1.426-1.22h.07l.418 1.368 1.508.004v-6.649c.02-1.164-.3-2.02-.95-2.57-.655-.547-1.605-.82-2.85-.82Zm-37.093.008a4.453 4.453 0 0 0-3.461 1.343c-.825.895-1.23 2.145-1.23 3.743-.02.933.175 1.863.57 2.71a4.122 4.122 0 0 0 1.628 1.79c.743.425 1.586.64 2.442.625a4.45 4.45 0 0 0 3.449-1.36c.82-.918 1.23-2.16 1.23-3.762l.004-.003a5.311 5.311 0 0 0-1.226-3.696 4.359 4.359 0 0 0-3.406-1.39Zm10.363 0a4.242 4.242 0 0 0-2.883.886 3.107 3.107 0 0 0-1.012 2.48 3.17 3.17 0 0 0 .477 1.74c.297.476.73.85 1.242 1.073-.348.2-.66.457-.926.762a1.465 1.465 0 0 0-.039 1.766c.168.257.41.457.692.574a3.092 3.092 0 0 0-1.61.86c-.383.413-.586.96-.57 1.523a2.311 2.311 0 0 0 1.059 2.035c.933.531 2 .781 3.07.71 1.742 0 3.07-.3 3.992-.905a2.913 2.913 0 0 0 1.39-2.56 2.432 2.432 0 0 0-.843-2.007 3.825 3.825 0 0 0-2.477-.691h-1.718a2.742 2.742 0 0 1-1.165-.168.551.551 0 0 1-.312-.512c.012-.445.27-.844.672-1.035.285.05.57.074.855.07a4.369 4.369 0 0 0 2.899-.875 2.946 2.946 0 0 0 1.05-2.375 3.233 3.233 0 0 0-.152-.945 2.717 2.717 0 0 0-.386-.766l1.687-.312v-1.145h-3.426a4.58 4.58 0 0 0-.691-.125 6.585 6.585 0 0 0-.875-.058Zm10.012 0a4.862 4.862 0 0 0-2.778.699 2.245 2.245 0 0 0-1.015 1.969 2.447 2.447 0 0 0 .597 1.707 6.34 6.34 0 0 0 2.278 1.316c.468.172.921.375 1.367.605.261.13.5.305.699.516a.937.937 0 0 1 .215.625c0 .777-.645 1.164-1.934 1.164a7.71 7.71 0 0 1-3.226-.797v1.805c.992.438 2.07.645 3.156.598a5.057 5.057 0 0 0 3.012-.77 2.569 2.569 0 0 0 1.046-2.21c.024-.419-.05-.84-.222-1.223a2.562 2.562 0 0 0-.82-.903 8.339 8.339 0 0 0-1.77-.863 9.471 9.471 0 0 1-1.902-.887.942.942 0 0 1-.43-.781c0-.633.547-.95 1.656-.95a7.328 7.328 0 0 1 2.68.66l.672-1.573a7.786 7.786 0 0 0-3.281-.707Zm26.59 0a4.85 4.85 0 0 0-2.774.699 2.258 2.258 0 0 0-1.02 1.969 2.447 2.447 0 0 0 .606 1.707 6.316 6.316 0 0 0 2.312 1.316c.465.172.918.375 1.36.605.261.13.5.305.703.516a.937.937 0 0 1 .215.625c0 .774-.64 1.164-1.934 1.164a7.71 7.71 0 0 1-3.226-.797v1.805c.992.438 2.07.645 3.156.598a5.057 5.057 0 0 0 3.012-.77 2.582 2.582 0 0 0 1.05-2.21 2.557 2.557 0 0 0-.265-1.216 2.515 2.515 0 0 0-.817-.902 8.745 8.745 0 0 0-1.77-.867 9.62 9.62 0 0 1-1.906-.89.942.942 0 0 1-.43-.782c0-.633.552-.95 1.657-.95a7.427 7.427 0 0 1 2.68.66l.68-1.573a7.834 7.834 0 0 0-3.29-.707Zm-36.606 1.363a1.71 1.71 0 0 1 1.367.523c.324.422.484.95.45 1.48 0 1.298-.602 1.946-1.817 1.946a1.809 1.809 0 0 1-1.367-.5 1.98 1.98 0 0 1-.477-1.426v-.015c-.035-.54.133-1.07.469-1.489a1.76 1.76 0 0 1 1.375-.52Zm-10.41.348c1.672 0 2.508 1.125 2.508 3.375.027 2.277-.797 3.414-2.473 3.41-1.68 0-2.52-1.137-2.52-3.407v-.003a4.467 4.467 0 0 1 .586-2.504 2.146 2.146 0 0 1 1.899-.871Zm38.843 3.617v.851c.04.668-.214 1.32-.695 1.785-.5.442-1.156.672-1.824.637a1.65 1.65 0 0 1-1.176-.379 1.308 1.308 0 0 1-.394-1.02 1.486 1.486 0 0 1 .675-1.343 4.263 4.263 0 0 1 2.145-.477Zm-66.73 4.14V78.13h10.445V66.734Zm37.52.559h1.562a3.693 3.693 0 0 1 1.703.273c.317.188.5.54.473.91a1.473 1.473 0 0 1-.832 1.301 5.16 5.16 0 0 1-2.547.473 3.343 3.343 0 0 1-1.715-.363 1.148 1.148 0 0 1-.613-1.04v-.019a1.38 1.38 0 0 1 .543-1.113c.41-.3.914-.45 1.426-.422Zm0 0"/>
</svg>
