<svg xmlns="http://www.w3.org/2000/svg" viewBox="0 0 128 128">
    <path fill="#221f1f" d="M40.363 94.813c-1.5.335-5.91 2.738-9.722 3.464-3.817.727-7.118 1.11-8.274 1.543-1.152.43-2.055 1.285.219 2.14 2.273.856 13.277 1.157 14.266 0 .984-1.155-.68-1.655-3.09-1.628-1.711.023-1.5-.57-1.492-.644 0 0 .105-.75 2.738-1.11 2.633-.367 14.265-1.457 14.05-2.7-.21-1.245-7.195-1.41-8.695-1.066Zm-5.324 8.675c-.074-.355-1.137-.433-2.371-.16-1.227.266-2.16.77-2.082 1.133.078.355 1.137.43 2.367.16 1.234-.266 2.164-.77 2.086-1.133Zm-5.117-.004c-.024-.351-1.117-.554-2.442-.453-1.316.11-2.367.48-2.34.836.028.356 1.126.555 2.446.45 1.32-.106 2.367-.477 2.34-.833Zm-5.02-.55c-.035-.278-.777-.399-1.656-.286-.879.125-1.558.442-1.523.72.035.277.78.398 1.656.28.879-.12 1.562-.437 1.523-.714Zm-3.168-.489c-.03-.222-.75-.3-1.597-.18-.844.122-1.508.4-1.48.63.034.222.75.3 1.6.18.845-.126 1.505-.407 1.477-.63Zm-.71-.879c-.032-.222-.743-.304-1.594-.175-.852.12-1.512.398-1.477.62.031.227.742.305 1.594.184.848-.12 1.512-.406 1.476-.629Zm-.383-.96c-.028-.196-.649-.266-1.387-.157-.742.106-1.313.352-1.285.547.027.188.648.258 1.39.156.73-.113 1.309-.355 1.282-.547Zm42.601-4.602c-2.617.129-8.531-.172-9.34 1.203-.816 1.371 2.395 1.887 7.45 1.461 5.054-.434 12.21-.988 12.511-2.535.301-1.54-1.328-1.238-1.5-2.227-.172-.984 1.801-.984 2.184-2.441.387-1.453-2.656-1.281-5.352-1.281-2.699 0-7.199.254-7.625 1.668-.43 1.414 2.055 1.414 3.813 1.757 1.754.34 1.242.985 1.242.985-.09.902-.773 1.285-3.39 1.41Zm-4.73 3.762c0-.41-1.008-.739-2.262-.739-1.25 0-2.266.328-2.266.739 0 .406 1.016.738 2.266.738 1.254 0 2.262-.332 2.262-.738Zm5.082-.16c0-.372-.68-.676-1.516-.676-.832 0-1.512.304-1.512.675 0 .372.68.68 1.512.68.836 0 1.516-.308 1.516-.68Zm4.855-.485c0-.297-.746-.543-1.66-.543-.914 0-1.652.242-1.652.543 0 .3.738.547 1.656.547.91 0 1.656-.246 1.656-.547Zm0 0"/>
    <path fill="#221f1f" d="M71.625 98.512c0-.317-.54-.578-1.207-.578-.664 0-1.203.261-1.203.578 0 .32.539.582 1.203.582.668 0 1.207-.262 1.207-.582Zm3.148-.657c0-.312-.55-.562-1.222-.562-.672 0-1.223.25-1.223.562 0 .313.55.563 1.227.563.668 0 1.218-.25 1.218-.563Zm-54.492-15.8c0 .734 1.594 1.422 4.422 2.039-.2-1.465-.074-2.942.11-4.094-2.895.617-4.532 1.316-4.532 2.055Zm83.504-1.887a6.413 6.413 0 0 1-1.62 2.48c-1.278 1.215-2.403 1.942-3.403 2.207 5.535-.777 8.812-1.75 8.812-2.793 0-.68-1.355-1.32-3.789-1.894Zm0 0"/>
    <path fill="#67cfe3" d="M94.324 78.629c-.347-2.578-1.449-3.734-2.422-4.758-.898-.95-1.757-1.844-1.48-3.492.25-1.524 1.465-2.461 3.45-2.7-1.208-8.136-2.97-18.39-5.235-27.14-1.13-4.367-2.918-7.406-5.317-9.422a176.394 176.394 0 0 1-9.738 4.551 271.288 271.288 0 0 1-8.035 3.316c-2.106 2.262-4.406 4.485-5.817 5.118-1.003.453-1.894.632-2.671.632-1.68 0-2.813-.84-3.364-1.59-.488.141-.984.243-1.488.313-.41.043-1.023.094-1.781.148a2.34 2.34 0 0 1-.387 2.34c-.613.742-1.61 1.121-3.02 1.121-2.027 0-4.917-.777-8.785-2.34-.515-.203-1.043-.41-1.566-.609h-.887c-3.691 0-6.574-.117-8.836-.3-2.476 5.128-1.398 10.812-.492 15.507.867 4.496 3.883 12.504 6.676 19.387a436.86 436.86 0 0 0 2.902 6.957c7.559.668 17.258 1.066 27.84 1.066 12.586 0 23.918-.566 31.91-1.48-.586-2.39-1.324-5.727-1.453-6.57Zm-62.351-21.91a8.763 8.763 0 0 1 8.761-8.762 8.76 8.76 0 0 1 8.762 8.762 8.76 8.76 0 0 1-8.762 8.761 8.763 8.763 0 0 1-8.761-8.761Zm23.402 18.543c-1.844.55-2.508-1.57-2.707-2.492l.039-.024c.863-.539 1.855-1.156 2.98-1.582.133.356.333.95.454 1.582.207 1.067.187 2.23-.766 2.516Zm3-.742c-.453-.18-.805-.938-1.05-1.774a16.653 16.653 0 0 1-.434-1.957 7.45 7.45 0 0 1 .668-.117c.109-.016.343-.031.836-.031.457 0 1.007.011 1.585.027l.516.016c.05.394.106.972.168 1.82l.012.242c.027 2.11-1.82 1.95-2.301 1.766Zm7.887-5.336c-.895.406-2.211.574-4.395.574-.742 0-1.508-.024-2.187-.04-.578-.011-1.133-.027-1.594-.027-.422 0-.734.012-.918.032-2.066.277-3.77 1.347-5.137 2.207-.406.25-.785.484-1.133.683a4.272 4.272 0 0 1-2.02.477c-1.386 0-2.694-.543-3.491-1.457a3.36 3.36 0 0 1-.801-2.738c.41-3.102 4.84-4.684 5.344-4.856l.812-.27a1.052 1.052 0 0 1-.062-.242c-.246-1.441 1.644-2.96 4.21-3.386l.344-.051c2.125-.262 3.985.332 4.567 1.41l.992.012c2.254.02 4.113.324 5.523.902 1.426.574 2.297 1.422 2.454 2.375.32 1.91-.618 3.559-2.508 4.395Zm1.625-10.016a8.76 8.76 0 1 1 0-17.52c4.836 0 8.754 3.922 8.754 8.758a8.761 8.761 0 0 1-8.754 8.762Zm0 0"/>
    <path fill="#000" d="m79.102 20.89-.067-.113-.082-.109a1.504 1.504 0 0 0-.43-.336l-.03-.016-.02-.011-.059-.028h-.008l-.015-.004-.082-.035-.184-.054c-.117-.043-.25-.063-.379-.09-.125-.024-.266-.024-.398-.028-.133 0-.274.012-.407.036a2.85 2.85 0 0 0-1.375.664 4.457 4.457 0 0 0-.863 1.011 7.427 7.427 0 0 0-.863 2.016 8.495 8.495 0 0 0-.254 1.496c-.023.176-.016.324-.023.422v.152l.273-.496c.18-.316.422-.762.723-1.273.304-.512.668-1.094 1.105-1.621a4.32 4.32 0 0 1 .715-.696c.23-.18.5-.3.785-.355.066-.012.133-.016.2-.016.066.004.128-.008.198.004.067.024.141.016.215.04l.164.05.055.023-.012-.007h.012c0 .007.004.007.004.011h.008l.015.008h-.015l.023.031c.043.106.067.22.078.332.008.297-.023.63-.078.95-.05.324-.125.636-.191.925-.133.579-.266 1.07-.348 1.415-.094.351-.14.554-.14.554s.152-.14.378-.43a8.203 8.203 0 0 0 1.274-2.19 4.31 4.31 0 0 0 .293-1.204 2.13 2.13 0 0 0-.094-.8 1.482 1.482 0 0 0-.101-.227Zm0 0"/>
    <path fill="#000" d="m78 21.527-.004-.004.012.012v-.008Zm0 0"/>
    <path fill="#221f1f" d="M24.77 37.629h.12a7.577 7.577 0 0 1-.12-.219v.223Zm1.078-3.39c.254.519.527.906.738 1.167.094.133.187.235.246.297l.094.102-.102-.512c-.062-.316-.156-.77-.246-1.3a11.914 11.914 0 0 1-.098-.833 2.632 2.632 0 0 1 .043-.8.832.832 0 0 1 .114-.239.269.269 0 0 1 .12-.07l.044-.008.066-.012c.02-.004-.004.008-.004.008-.011.004-.015.012-.027.004h-.012l.012.008c.012.004.02.004.039.004.059.027.16.078.266.156.21.156.437.398.652.648.21.25.422.52.613.786.399.53.758 1.05 1.074 1.5.36.503.735 1 1.118 1.488l-.016-.133c-.02-.09-.031-.223-.062-.383a11.174 11.174 0 0 0-1.106-3.113 7.53 7.53 0 0 0-.602-.953 4.377 4.377 0 0 0-.87-.91 2.336 2.336 0 0 0-.708-.364 2.115 2.115 0 0 0-.226-.047l-.063-.003h-.078c-.097 0-.199.003-.297.023l-.07.016-.066.02-.086.023-.078.039a1.437 1.437 0 0 0-.684.59 1.748 1.748 0 0 0-.234.738c-.028.398.015.797.14 1.172.098.336.227.629.356.89Zm0 0"/>
    <path fill="#dfcaa3" d="M29.887 88.043c2.054 0 3.5-1.117 4.515-2.566a301.548 301.548 0 0 1-4.886-12.004c-.493.418-1.059 1.05-1.668 2-1.532 2.367-2.79 7.867-1.207 10.773.66 1.211 1.722 1.805 3.246 1.805Zm72.5-13.637c-1.203-3.113-3.77-5.328-6.23-5.379l-.09-.004s-.47-.074-1.102-.074c-1.344 0-2.988.29-3.219 1.653-.16.941.258 1.425 1.129 2.347 1.004 1.051 2.371 2.489 2.777 5.496.473 3.446 1.309 5.196 2.5 5.196.555 0 1.567-.336 3.246-1.918 2.055-1.957 1.86-5.063.989-7.317Zm0 0"/>
    <path fill="#221f1f" d="M42.707 59.793c0 .734-.289 1.437-.809 1.953a2.759 2.759 0 1 1-1.95-4.71 2.757 2.757 0 0 1 2.759 2.757Zm26.75-6.473a2.759 2.759 0 1 1-5.52 0 2.757 2.757 0 0 1 2.758-2.758 2.758 2.758 0 0 1 2.762 2.758Zm0 0"/>
    <path fill="#648c1a" d="M32.453 28.938c2.156.585 4.594.878 7.242.878 4.262 0 13.301-.828 26.02-6.37l.281-.126a7.55 7.55 0 0 1 .18-2.093c.277-1.282.84-2.364 1.52-3.086a9.584 9.584 0 0 0-.317-1.036c-1.465-.78-13.555-5.285-19.86-5.285a8.264 8.264 0 0 0-1.64.14c-5.59 1.138-14.082 10.856-14.387 12.235-.09.594-.062 2.465.004 4.489Zm-.105 13.8a5.389 5.389 0 0 0-.551-.09 2.37 2.37 0 0 1-1.723-.613 2.359 2.359 0 0 1-.762-1.668c-.632.36-1.265.75-1.859 1.16l-1.058.727-.778-1.02a27.067 27.067 0 0 1-2.308-3.683c-1.868.883-3.332 1.847-3.688 2.761-.07.168-.043.266.027.372.305.445 2.114 1.812 12.7 2.054Zm21.96-2.996a2.346 2.346 0 0 1 2.883.281c.211-.039.414-.113.614-.203 1.16-.554 5.332-5.008 8.508-8.832.113-.133.238-.254.378-.36-7.254 3.134-17.386 6.56-27.035 6.56a35.154 35.154 0 0 1-4.394-.266l.218.621-1.21.465c-.008.004-.22.082-.563.226 1.559.36 3.652 1.078 6.29 2.145 4.827 1.945 6.671 2.023 7.132 1.992a2.35 2.35 0 0 1 2.129-.027 85.175 85.175 0 0 0 2.812-.223 8.869 8.869 0 0 0 1.153-.238 2.363 2.363 0 0 1 1.086-2.14Zm28.098-14.336c-.355 2.098-1.027 4.395-1.476 5.024l-.422.586a97.656 97.656 0 0 0 5.043-2.61c5.011-2.812 5.633-4.047 5.707-4.351.05-.203 0-.266-.024-.293-.054-.067-.402-.41-1.988-.41-1.734 0-4.156.39-6.676.941-.05.375-.101.746-.164 1.113Zm-1.953 5.645-.723-.063c-.011 0-1.34-.11-3.14-.11-1.871 0-4.332.118-6.356.595.383.8.297 1.789-.308 2.515a121.59 121.59 0 0 1-2.336 2.735 255.613 255.613 0 0 0 5.457-2.29 191.657 191.657 0 0 0 7.406-3.39Zm0 0"/>
    <path fill="#dfcaa3" d="M66.246 24.68c-5.078 2.207-16.207 6.476-26.55 6.476-2.614 0-5.188-.273-7.594-.922.257.383.5.79.75 1.223a31.997 31.997 0 0 1 1.902 4.04c1.621.241 3.258.358 4.906.347 5.938 0 15.219-1.36 27.965-7.094.2-.629.465-1.418.793-2.29l-.078.005a1.538 1.538 0 0 1-.399-.043c-.796-.172-1.379-.817-1.695-1.742Zm0 0"/>
    <path fill="#67cfe3" d="M24.89 37.629a25.75 25.75 0 0 0 1.801 2.793c3.07-2.129 7.098-3.664 7.098-3.664s-.105-.309-.297-.809a33.27 33.27 0 0 0-1-2.3c-.168-.34-.344-.676-.523-1.008a19.77 19.77 0 0 0-1.028-1.73c-1.238-1.856-2.8-3.427-4.554-3.427-.551 0-1.125.157-1.711.504-3.223 1.95-1.559 6.414.094 9.422l.12.223Zm.462-5.45c.023-.261.101-.519.238-.742a1.41 1.41 0 0 1 .68-.59l.078-.035.09-.023.062-.023.07-.016a1.9 1.9 0 0 1 .297-.023h.078l.063.007c.078.016.156.028.226.043.29.09.512.223.707.364.368.28.641.593.872.91.238.316.43.64.601.953.52.98.895 2.023 1.106 3.113.03.16.043.293.062.383l.016.133s-.13-.145-.325-.406c-.27-.356-.535-.72-.793-1.082-.316-.45-.675-.97-1.074-1.5-.191-.27-.398-.532-.613-.782a4.146 4.146 0 0 0-.656-.652 1.364 1.364 0 0 0-.262-.156c-.02 0-.027 0-.04-.004l-.01-.008h.01c.013 0 .017 0 .028-.004 0 0 .024-.012.004-.008l-.066.012-.043.008a.378.378 0 0 0-.121.07.704.704 0 0 0-.114.238c-.054.262-.07.536-.043.801.016.29.055.574.098.832.09.531.184.985.246 1.301.067.324.102.512.102.512l-.094-.098c-.059-.066-.152-.168-.246-.3a6.397 6.397 0 0 1-.738-1.169 5.602 5.602 0 0 1-.356-.886 3.14 3.14 0 0 1-.14-1.172Zm1.035-5.367v.672Zm0 0"/>
    <path fill="#dfcaa3" d="M69.55 17.207c.141 0 .274.016.407.043.984.215 1.652 1.168 1.871 2.477 1.879-2.633 3.922-3.965 6.117-3.965.918 0 1.73.215 2.414.64.641-.785 1.27-1.578 1.887-2.379-.871.16-2.683.399-2.683.399 6.867-2.527 6.312-9.395 6.312-9.395 0 1.184-3.55 4.028-3.55 4.028.16-1.028-.395-2.367-.395-2.367.156 1.34-4.102 4.812-4.102 4.812.313-.633.078-1.738.078-1.738-.238 1.265-2.133 1.738-2.133 1.738 1.184-1.422 3.395-8.918 1.743-9.395C75.856 1.633 73.57 7 73.57 7c-.086-1.262-.797-1.262-.797-1.262.317 3.946-2.84 7.102-2.84 7.102-.23-.79-1.496-1.184-1.496-1.184.403.875-.058 4.88-.195 6.012.414-.297.86-.461 1.317-.461Zm0 0"/>
    <path fill="#000" d="m67.867 24.883.008.008c.031.035.063.066.098.097l.047.028.078.05a.556.556 0 0 0 .352.05c.25-.053.48-.182.655-.374.41-.949.852-1.875 1.348-2.785.332-1.785-.117-3.246-.785-3.395a.596.596 0 0 0-.117-.011c-.68 0-1.676 1.187-2.067 2.965-.28 1.289-.156 2.433.18 3.074.055.105.121.207.2.293Zm0 0"/>
    <path fill="#67cfe3" d="M77.996 21.516h-.012s.008 0 .008.007H78s-.004 0-.004-.007Zm.027.015-.015-.004H78h.008v.008Zm0 0"/>
    <path fill="#67cfe3" d="M77.945 17.105c-3.91 0-6.789 5.88-8.289 9.88a46.053 46.053 0 0 0-1.07 3.206c.187.036.379.102.555.188 2.277-.684 5.222-.84 7.453-.84 1.879 0 3.242.113 3.242.113.594-.828 4.027-12.547-1.89-12.547Zm1.352 4.817a4.24 4.24 0 0 1-.297 1.2c-.121.32-.266.632-.43.933-.246.441-.527.86-.84 1.258a5.035 5.035 0 0 1-.378.433s.046-.207.14-.558c.082-.344.215-.836.348-1.415.066-.289.14-.601.191-.925.055-.32.086-.653.07-.95a.971.971 0 0 0-.07-.332.217.217 0 0 0-.023-.03H78l-.004-.013-.055-.023-.168-.05c-.07-.024-.144-.024-.21-.04-.07-.012-.133 0-.2-.012-.066.008-.136.012-.203.024a1.84 1.84 0 0 0-.781.355 4.432 4.432 0 0 0-.715.696c-.41.511-.781 1.054-1.105 1.62-.301.512-.543.958-.723 1.274l-.273.496v-.152c.007-.098 0-.246.023-.422.027-.367.094-.883.254-1.492a7.48 7.48 0 0 1 .863-2.02c.223-.351.5-.707.867-1.011a2.9 2.9 0 0 1 1.371-.668c.133-.02.274-.028.407-.032.132.004.273.004.398.028.129.027.262.043.379.09l.184.054.082.035.015.004h.008l.059.028.02.011.03.016c.024 0 .348.207.43.336l.082.11.067.109c.039.074.07.152.101.23.098.305.106.567.094.805Zm0 0"/>
    <path fill="#000" d="M57.059 43.313c.636 0 1.343-.168 2.086-.508 1.562-.7 5.363-4.516 9.69-9.723a.925.925 0 0 0-.12-1.305.93.93 0 0 0-1.313.125c-1.879 2.266-7.168 8.332-8.988 9.196l-.027.02a3.76 3.76 0 0 1-.98.304l-.688.11-.512-.481a.937.937 0 0 0-1.133-.114.927.927 0 0 0-.414.583.93.93 0 0 0 .133.703c.066.109.73 1.093 2.266 1.093Zm-8.825.203a.901.901 0 0 0-.437.113l-.274.144-.312.016c-.07.004-.14.004-.219.004-.867 0-2.996-.27-7.527-2.098-4.996-2.023-6.973-2.324-7.711-2.324-.086 0-.172.008-.258.016a.96.96 0 0 0-.601.386.941.941 0 0 0-.149.692c.09.46.5.785.969.77l.098-.012.101.011c.555.043 2.32.348 6.856 2.184 3.664 1.477 6.437 2.227 8.25 2.227.945 0 1.593-.208 1.925-.606a.896.896 0 0 0 .211-.68.89.89 0 0 0-.332-.625.924.924 0 0 0-.59-.218Zm0 0"/>
    <path fill="#dfcaa3" d="M60.781 62.844s-.261 3.066-4.578 3.699c-.7.113-1.41.168-2.125.172-2.289 0-3.191-.754-3.726-1.403 0 0-4.125 1.391-4.446 3.758-.238 1.77 1.469 2.68 2.973 2.68.508 0 .988-.102 1.367-.313 1.5-.828 3.75-2.644 6.746-3.039a8.49 8.49 0 0 1 1.094-.046c1.023 0 2.422.07 3.777.07 1.547 0 3.028-.09 3.852-.457 1.851-.824 1.851-2.25 1.738-2.961-.133-.781-2.02-2.121-6.672-2.16Zm0 0"/>
    <path fill="#221f1f" d="m55.758 65.367.148-.027.168-.031c2.242-.457 3.895-1.758 3.91-3.055a1.548 1.548 0 0 0-.183-.754c-.582-1.078-2.442-1.672-4.57-1.41l-.344.047c-2.567.43-4.453 1.945-4.211 3.39.015.078.039.16.066.239.438 1.297 2.594 2.007 5.016 1.605Zm-21.672 55.13c0 .6-.133 1.187-.395 1.679-.593 1.164-1.64 1.746-3.109 1.746-.984 0-1.746-.277-2.273-.82-.856-.899-.817-2.243-.817-2.25l-.629-.032c0 .07-.054 1.618.989 2.711.652.68 1.566 1.02 2.73 1.02 2.148 0 3.18-1.133 3.672-2.086.309-.61.465-1.285.46-1.969v-12.129h-.628Zm8.469-12.102a.387.387 0 0 0-.367.261l-5.196 15.715h.653l1.52-4.465h6.8l1.527 4.465h.664l-5.246-15.715a.387.387 0 0 0-.355-.261Zm-3.188 10.882 3.188-9.71 3.203 9.71Zm11.774 5.055h7.601v-.629H51.77v-7.098h6.558v-.628H51.77v-7.098h6.972v-.629h-7.597Zm20.609-11.715c0-.074.063-1.816-1.16-3.09-.813-.851-1.988-1.277-3.488-1.277-1.512 0-2.696.426-3.508 1.277-1.211 1.262-1.149 2.973-1.149 3.035v7.762c0 .93.262 1.805.75 2.528.582.867 1.727 1.894 3.895 1.894.71 0 1.36-.074 1.93-.21A3.622 3.622 0 0 0 71.75 121v-3.898h-4.02v.625h3.391V121a2.986 2.986 0 0 1-2.25 2.922c-.582.133-1.183.2-1.781.195-1.516 0-2.649-.543-3.371-1.617a3.815 3.815 0 0 1-.64-2.176v-7.781c0-.016-.056-1.512.972-2.582.687-.723 1.719-1.082 3.05-1.082 1.32 0 2.34.36 3.032 1.074 1.035 1.078.988 2.617.988 2.637l.629.023Zm4.184 11.715h7.687v-.629h-7.058v-7.098h6.46v-.628h-6.46v-7.098h7.058v-.629h-7.687Zm20.64.031-3.398-6.93c.656-.195 1.254-.488 1.719-.945.699-.687 1.054-1.68 1.054-2.949 0-3.133-1.597-4.566-2.554-4.996-.446-.2-.93-.3-1.418-.293h-4.582v16.082h.628v-6.598c.266 0 .54.004.82.016 1.223.023 2.54.055 3.704-.168l3.332 6.777Zm-7.719-7.242a29.552 29.552 0 0 0-.832-.016v-8.226h3.954c.414 0 .808.074 1.164.238.996.45 2.183 1.785 2.183 4.422 0 1.11-.285 1.93-.867 2.5-1.207 1.176-3.539 1.121-5.602 1.082Zm0 0"/>
</svg>
