<svg xmlns="http://www.w3.org/2000/svg" viewBox="0 0 128 128"><path d="M52.73 55.07c.113.012.219.043.32.086.102.05.196.11.274.187.105.098.203.204.297.317l8.207 10.375a17.657 17.657 0 01-.098-1.848v-9.152h3.535v17.273h-2.09a1.923 1.923 0 01-.78-.14 1.666 1.666 0 01-.618-.524l-8.145-10.277c.024.297.043.59.059.879.016.289.023.558.023.812v9.262h-3.53V55.035h2.109c.144 0 .293.012.437.035zM70.441 60.012v7.8c0 .61.137 1.079.414 1.411.309.348.758.531 1.223.5.39 0 .777-.082 1.133-.25.37-.18.718-.418 1.023-.7v-8.76h3.676v12.292h-2.274a.868.868 0 01-.906-.617l-.223-.711c-.23.227-.476.434-.734.625a4.688 4.688 0 01-1.754.785 4.837 4.837 0 01-1.086.113 4.292 4.292 0 01-1.78-.351 3.624 3.624 0 01-1.31-.977 4.216 4.216 0 01-.808-1.48 6.226 6.226 0 01-.274-1.875v-7.805zM80.281 72.309V60.012h2.277c.203-.008.403.047.575.152.16.114.277.278.328.465l.195.664c.2-.21.414-.41.64-.594.223-.18.462-.332.72-.46a3.872 3.872 0 011.808-.422 2.878 2.878 0 011.844.574c.5.402.883.933 1.105 1.535.196-.363.45-.695.754-.973.29-.261.61-.48.961-.652a4.84 4.84 0 011.09-.367 5.634 5.634 0 011.144-.117 5.196 5.196 0 011.875.312c.52.196.989.508 1.368.914.382.426.668.926.836 1.473.199.637.296 1.305.285 1.977v7.812H94.41v-7.809c0-1.273-.547-1.906-1.637-1.906-.46-.015-.91.164-1.238.492-.328.325-.492.797-.492 1.415v7.812H87.37v-7.812c0-.704-.137-1.2-.414-1.48-.278-.286-.684-.427-1.223-.427-.328 0-.648.074-.941.223-.309.16-.59.363-.836.605v8.895zM104.23 66.535v5.773h-4.008V55.035h6.094a10.027 10.027 0 013.137.43 6.01 6.01 0 012.156 1.184 4.682 4.682 0 011.254 1.793c.27.71.402 1.468.394 2.226a6.637 6.637 0 01-.414 2.375 4.766 4.766 0 01-1.27 1.848c-.628.55-1.366.96-2.163 1.203-1 .313-2.043.461-3.094.442zm0-3.023h2.086c1.043 0 1.797-.246 2.254-.746s.687-1.188.687-2.086a3.15 3.15 0 00-.175-1.078 2.203 2.203 0 00-.54-.836 2.474 2.474 0 00-.914-.543 4.052 4.052 0 00-1.312-.196h-2.086zM120.38 75.5c-.082.21-.219.395-.395.54a1.33 1.33 0 01-.761.17h-2.758l2.375-4.976-4.906-11.223h3.246c.238-.011.472.059.664.2.152.113.266.27.332.449l2.016 5.3c.187.477.34.965.46 1.465.082-.254.168-.504.262-.746s.188-.496.274-.746l1.828-5.277a.875.875 0 01.37-.457c.177-.117.384-.184.595-.184h2.964z" color="#000" fill="#003042" style="-inkscape-stroke:none"/><path d="M19.113 49.414l-7.34-3.703-8.058 4.02 7.543 3.785zM22.48 51.113L30.175 55l-7.984 4.007-7.55-3.789zM32.762 45.766l7.906 3.965-7.07 3.55-7.715-3.89zM29.355 44.059l-7.117-3.57-7.043 3.515L22.53 47.7zM23.793 74.711v9.715l8.621-4.305-.008-9.719zM32.402 67.012l-.008-9.617-8.601 4.277v9.621zM42.758 65.211v9.754l-7.356 3.668-.007-9.707zM42.758 61.801v-9.559l-7.371 3.665.008 9.636z" color="#000" fill="#4cabcf" style="-inkscape-stroke:none"/><path d="M20.746 61.672l-5.805-2.922v12.621S7.836 56.254 7.18 54.898c-.086-.176-.434-.371-.524-.418-1.281-.668-5.012-2.558-5.012-2.558V74.23l5.165 2.765V65.332s7.027 13.508 7.097 13.656c.074.149.778 1.57 1.531 2.07 1.004.664 5.305 3.254 5.305 3.254z" color="#000" fill="#4c75cf" style="-inkscape-stroke:none"/></svg>
