<svg xmlns="http://www.w3.org/2000/svg" viewBox="0 0 128 128"><path fill="#4dabcf" d="m21.037 41.559-7.193 3.59 7.492 3.775 6.973-3.719-7.272-3.646zm-10.69 5.334L2.116 51l7.705 3.865 8.026-4.19-7.498-3.782zm21.44.056-7.025 3.703 7.88 3.973L39.866 51l-8.078-4.05zm-10.502 5.463-8.008 4.194 7.713 3.869 8.155-4.092-7.86-3.97zM0 53.238v22.787l5.275 2.824V66.937s7.179 13.8 7.25 13.95c.076.153.796 1.605 1.565 2.116 1.026.678 5.42 3.322 5.42 3.322l.004-23.127-5.93-2.984v12.892s-7.26-15.443-7.93-16.828c-.088-.18-.443-.377-.535-.425A830.38 830.38 0 0 0 0 53.238zm42 .326-7.531 3.744.01 9.844L42 63.33v-9.765zm7.586 2.854v17.656h3.605v-9.46c0-.26-.007-.536-.023-.83a35.36 35.36 0 0 0-.06-.897l8.32 10.498a1.702 1.702 0 0 0 .63.535 1.964 1.964 0 0 0 .797.142h2.135V56.418h-3.61v9.35a18.037 18.037 0 0 0 .102 1.886l-8.385-10.597a3.516 3.516 0 0 0-.303-.325 1.053 1.053 0 0 0-.28-.191 1.148 1.148 0 0 0-.327-.088 2.845 2.845 0 0 0-.446-.035h-2.154zm51.115 0v17.644h4.094v-5.896h2.13a9.962 9.962 0 0 0 3.16-.451 6.024 6.024 0 0 0 2.212-1.229 4.869 4.869 0 0 0 1.297-1.888 6.78 6.78 0 0 0 .422-2.426 6.22 6.22 0 0 0-.403-2.274 4.783 4.783 0 0 0-1.281-1.832 6.14 6.14 0 0 0-2.201-1.209 10.243 10.243 0 0 0-3.205-.439H100.7zm-69.289 2.41-8.787 4.37v9.827l8.795-4.373-.008-9.824zm73.383.646h2.13a4.14 4.14 0 0 1 1.34.2 2.527 2.527 0 0 1 .934.554 2.25 2.25 0 0 1 .553.856 3.218 3.218 0 0 1 .178 1.1c0 .917-.235 1.62-.702 2.13-.466.511-1.237.764-2.302.764h-2.131v-5.604zm-17.781 1.829a3.955 3.955 0 0 0-1.846.431 3.943 3.943 0 0 0-.736.469 7.115 7.115 0 0 0-.655.607l-.199-.677a.868.868 0 0 0-.334-.477 1.051 1.051 0 0 0-.588-.154H80.33v12.562l3.754.004V64.98a3.522 3.522 0 0 1 .853-.617 2.117 2.117 0 0 1 .963-.228c.551 0 .964.145 1.248.437.283.286.424.793.424 1.512v7.98h3.752v-7.98c0-.631.167-1.113.502-1.445.335-.335.796-.52 1.266-.504 1.113 0 1.672.647 1.672 1.947v7.977h3.756V66.08a6.425 6.425 0 0 0-.294-2.02 4.024 4.024 0 0 0-.853-1.505 3.689 3.689 0 0 0-1.396-.934 5.308 5.308 0 0 0-1.916-.318 5.755 5.755 0 0 0-1.168.119 4.944 4.944 0 0 0-1.114.375 4.281 4.281 0 0 0-.982.666 3.78 3.78 0 0 0-.77.994 3.624 3.624 0 0 0-1.129-1.568 2.94 2.94 0 0 0-1.884-.586zm27.695.197 5.012 11.465-2.426 5.084h2.816a1.359 1.359 0 0 0 .778-.174c.18-.148.32-.336.404-.55L128 61.505h-3.027c-.216 0-.427.068-.608.188a.894.894 0 0 0-.379.466l-1.867 5.39a20.966 20.966 0 0 1-.28.763 13.97 13.97 0 0 0-.267.761 11.349 11.349 0 0 0-.47-1.496l-2.059-5.414a1.003 1.003 0 0 0-.34-.459 1.06 1.06 0 0 0-.678-.205h-3.316zm-48.19.002v7.973a6.36 6.36 0 0 0 .28 1.916 4.307 4.307 0 0 0 .826 1.511 3.702 3.702 0 0 0 1.338.998 4.384 4.384 0 0 0 1.818.358 4.941 4.941 0 0 0 1.11-.115 4.789 4.789 0 0 0 1.79-.801 6.958 6.958 0 0 0 .75-.639l.23.727a.887.887 0 0 0 .925.629h2.322V61.502h-3.756v8.95a4.35 4.35 0 0 1-1.045.714 2.703 2.703 0 0 1-1.156.256 1.53 1.53 0 0 1-1.25-.51c-.283-.339-.422-.818-.422-1.441v-7.969h-3.76zM42 66.812l-7.521 3.796.005 9.915L42 76.778v-9.965zm-10.576 5.303-8.799 4.403v9.923l8.807-4.398-.008-9.928z" /></svg>
