<svg xmlns="http://www.w3.org/2000/svg" viewBox="0 0 128 128"><path fill="#003042" d="M52.186 56.453c.115.013.224.044.327.088.104.051.2.113.28.191.107.1.207.209.303.324l8.384 10.599a18.037 18.037 0 0 1-.1-1.888v-9.35h3.61v17.646h-2.134a1.964 1.964 0 0 1-.797-.143 1.702 1.702 0 0 1-.631-.536l-8.32-10.498c.024.303.043.603.06.898.016.295.023.57.023.83v9.46h-3.606V56.419h2.155c.147 0 .299.012.446.035zm18.092 5.049v7.968c0 .623.14 1.102.423 1.441a1.529 1.529 0 0 0 1.25.51c.398 0 .793-.083 1.157-.254a4.351 4.351 0 0 0 1.045-.715v-8.95h3.755V74.06h-2.323a.887.887 0 0 1-.925-.63l-.228-.726a6.95 6.95 0 0 1-.75.638 4.789 4.789 0 0 1-1.792.802 4.941 4.941 0 0 1-1.11.116 4.384 4.384 0 0 1-1.817-.359 3.702 3.702 0 0 1-1.339-.998 4.307 4.307 0 0 1-.825-1.512 6.36 6.36 0 0 1-.28-1.915v-7.973ZM80.33 74.064V61.502h2.326a1.05 1.05 0 0 1 .588.155.865.865 0 0 1 .335.475l.199.678a7.072 7.072 0 0 1 .654-.606 3.979 3.979 0 0 1 .735-.47 3.955 3.955 0 0 1 1.847-.431 2.94 2.94 0 0 1 1.884.586c.51.41.902.953 1.129 1.568.2-.37.46-.71.77-.994a4.277 4.277 0 0 1 .981-.666 4.944 4.944 0 0 1 1.114-.375 5.755 5.755 0 0 1 1.169-.12 5.308 5.308 0 0 1 1.915.32 3.692 3.692 0 0 1 1.397.933c.39.435.683.946.854 1.505a6.424 6.424 0 0 1 .292 2.02v7.98h-3.756v-7.978c0-1.3-.558-1.947-1.672-1.947-.47-.015-.93.168-1.264.503-.336.332-.503.814-.503 1.445v7.98h-3.752v-7.98c0-.719-.14-1.225-.423-1.512-.284-.292-.699-.436-1.25-.436a2.11 2.11 0 0 0-.96.228 3.528 3.528 0 0 0-.855.618v9.087zm24.465-5.899v5.898H100.7V56.418h6.225a10.243 10.243 0 0 1 3.204.439 6.14 6.14 0 0 1 2.203 1.21 4.783 4.783 0 0 1 1.28 1.831c.277.725.411 1.5.403 2.274a6.78 6.78 0 0 1-.423 2.426 4.869 4.869 0 0 1-1.297 1.888 6.02 6.02 0 0 1-2.21 1.229 9.967 9.967 0 0 1-3.16.451zm0-3.088h2.13c1.066 0 1.836-.251 2.303-.762.467-.51.702-1.213.702-2.13a3.218 3.218 0 0 0-.179-1.102 2.25 2.25 0 0 0-.551-.854 2.527 2.527 0 0 0-.934-.555 4.14 4.14 0 0 0-1.34-.2h-2.131zm16.498 12.246a1.356 1.356 0 0 1-.404.552 1.359 1.359 0 0 1-.777.174h-2.818l2.426-5.084-5.011-11.464h3.316a1.062 1.062 0 0 1 .678.204 1 1 0 0 1 .34.459l2.059 5.414c.19.487.347.986.47 1.496.083-.259.171-.514.267-.762a20.7 20.7 0 0 0 .28-.762l1.867-5.39a.894.894 0 0 1 .378-.467c.181-.12.393-.188.608-.188H128Z" /><path fill="#4DABCF" d="m17.845 50.676-7.498-3.783L2.116 51l7.705 3.866zm3.44 1.735 7.86 3.97-8.156 4.094-7.712-3.87zm10.503-5.462L39.864 51l-7.222 3.627-7.881-3.974zm-3.48-1.744-7.27-3.646-7.195 3.59 7.493 3.776zm-5.682 31.312v9.925l8.806-4.398-.008-9.928zm8.794-7.864-.008-9.824-8.786 4.369v9.828zM42 66.813v9.964l-7.515 3.747-.007-9.916zm0-3.484v-9.764l-7.53 3.744.008 9.843z" /><path fill="#4c75cf" d="m19.513 63.198-5.93-2.985v12.892S6.325 57.663 5.655 56.278c-.088-.18-.443-.38-.535-.427A818.844 818.844 0 0 0 0 53.238v22.788l5.276 2.825V66.935s7.179 13.8 7.25 13.95c.076.153.795 1.604 1.564 2.115 1.026.678 5.42 3.324 5.42 3.324z" /></svg>
