<?xml version="1.0" encoding="UTF-8"?><svg width="128pt" height="128pt" version="1.1" viewBox="0 0 128 128" xmlns="http://www.w3.org/2000/svg"><path d="m52.73 55.07c0.11328 0.01172 0.21875 0.04297 0.32031 0.08594 0.10156 0.05078 0.19531 0.10938 0.27344 0.1875 0.10547 0.09766 0.20312 0.20312 0.29688 0.31641l8.207 10.375c-0.03516-0.33203-0.05859-0.65625-0.07422-0.96484-0.01563-0.30859-0.02344-0.60547-0.02344-0.88281v-9.1523h3.5352v17.273h-2.0898c-0.26562 0.0078-0.53125-0.03906-0.78125-0.14062-0.24609-0.1211-0.45703-0.30078-0.61718-0.52344l-8.1445-10.277c0.02344 0.29687 0.04297 0.58984 0.05859 0.87891 0.01563 0.28906 0.02344 0.55859 0.02344 0.8125v9.2617h-3.5312v-17.285h2.1094c0.14453 0 0.29297 0.01172 0.4375 0.03516z" color="#000000" fill="#003042" style="-inkscape-stroke:none"/><path d="m70.441 60.012v7.8008c0 0.60938 0.13672 1.0781 0.41406 1.4102 0.30859 0.34766 0.75781 0.53125 1.2227 0.5 0.39062 0 0.77734-0.08203 1.1328-0.25 0.37109-0.17969 0.71875-0.41797 1.0234-0.69922v-8.7617h3.6758v12.293h-2.2734c-0.41016 0.03516-0.78906-0.22266-0.90625-0.61719l-0.22266-0.71094c-0.23047 0.22656-0.47656 0.43359-0.73437 0.625-0.25391 0.18359-0.52734 0.34375-0.8125 0.47266-0.30078 0.13672-0.61719 0.24219-0.94141 0.3125-0.35547 0.07813-0.72266 0.11719-1.0859 0.11328-0.61328 0.01172-1.2188-0.10938-1.7812-0.35156-0.50391-0.22266-0.95312-0.55469-1.3086-0.97656-0.36719-0.43359-0.64062-0.9375-0.80859-1.4805-0.1875-0.60938-0.27734-1.2383-0.27344-1.875v-7.8047z" color="#000000" fill="#003042" style="-inkscape-stroke:none"/><path d="m80.281 72.309v-12.297h2.2773c0.20312-0.0078 0.40234 0.04687 0.57422 0.15234 0.16016 0.11328 0.27734 0.27734 0.32813 0.46484l0.19531 0.66406c0.19922-0.21094 0.41406-0.41016 0.64062-0.59375 0.22266-0.17969 0.46094-0.33203 0.71875-0.46094 0.55859-0.28516 1.1797-0.42969 1.8086-0.42188 0.66016-0.02734 1.3125 0.17578 1.8438 0.57422 0.5 0.40234 0.88281 0.93359 1.1055 1.5352 0.19531-0.36328 0.44922-0.69531 0.75391-0.97266 0.28906-0.26172 0.60938-0.48047 0.96094-0.65234 0.34766-0.16406 0.71094-0.28906 1.0898-0.36719 0.375-0.07813 0.76172-0.11719 1.1445-0.11719 0.64062-0.01172 1.2734 0.09375 1.875 0.3125 0.51953 0.19531 0.98828 0.50781 1.3672 0.91406 0.38281 0.42578 0.66797 0.92578 0.83594 1.4727 0.19922 0.63672 0.29688 1.3047 0.28516 1.9766v7.8125h-3.6758v-7.8086c0-1.2734-0.54688-1.9062-1.6367-1.9062-0.46094-0.01563-0.91016 0.16406-1.2383 0.49219-0.32812 0.32422-0.49219 0.79688-0.49219 1.4141v7.8125h-3.6719v-7.8125c0-0.70312-0.13672-1.1992-0.41406-1.4805-0.27734-0.28516-0.68359-0.42578-1.2227-0.42578-0.32812 0-0.64844 0.07422-0.94141 0.22266-0.30859 0.16016-0.58984 0.36328-0.83594 0.60547v8.8945z" color="#000000" fill="#003042" style="-inkscape-stroke:none"/><path d="m104.23 66.535v5.7734h-4.0078v-17.273h6.0938c1.0625-0.02344 2.1211 0.12109 3.1367 0.42969 0.79296 0.24219 1.5273 0.64453 2.1562 1.1836 0.55468 0.49219 0.98437 1.1055 1.2539 1.793 0.26953 0.71094 0.40235 1.4688 0.39453 2.2266 8e-3 0.8125-0.13281 1.6172-0.41406 2.375-0.26953 0.70703-0.70703 1.3438-1.2695 1.8477-0.62891 0.55078-1.3672 0.96094-2.1641 1.2031-1 0.3125-2.043 0.46094-3.0938 0.44141zm0-3.0234h2.0859c1.043 0 1.7969-0.24609 2.2539-0.74609s0.6875-1.1875 0.6875-2.0859c4e-3 -0.36719-0.0547-0.73438-0.17578-1.0781-0.11328-0.31641-0.30078-0.60547-0.53906-0.83594-0.26172-0.24609-0.57422-0.42969-0.91406-0.54297-0.42578-0.13672-0.86719-0.20312-1.3125-0.19531h-2.0859z" color="#000000" fill="#003042" style="-inkscape-stroke:none"/><path d="m120.38 75.5c-0.082 0.21094-0.21875 0.39453-0.39453 0.53906-0.23047 0.13281-0.4961 0.19141-0.76172 0.17188h-2.7578l2.375-4.9766-4.9062-11.223h3.2461c0.23828-0.01172 0.47265 0.05859 0.66406 0.19922 0.15234 0.11328 0.26563 0.26953 0.33203 0.44922l2.0156 5.3008c0.1875 0.47656 0.33984 0.96484 0.46093 1.4648 0.082-0.25391 0.16797-0.50391 0.26172-0.74609 0.0937-0.24219 0.1875-0.49609 0.27344-0.74609l1.8281-5.2773c0.0664-0.19141 0.19921-0.35156 0.37109-0.45703 0.17578-0.11719 0.38281-0.18359 0.59375-0.18359h2.9648z" color="#000000" fill="#003042" style="-inkscape-stroke:none"/><path d="m19.113 49.414-7.3398-3.7031-8.0586 4.0195 7.543 3.7852z" color="#000000" fill="#4cabcf" style="-inkscape-stroke:none"/><path d="m22.48 51.113 7.6953 3.8867-7.9844 4.0078-7.5508-3.7891z" color="#000000" fill="#4cabcf" style="-inkscape-stroke:none"/><path d="m32.762 45.766 7.9062 3.9648-7.0703 3.5508-7.7148-3.8906z" color="#000000" fill="#4cabcf" style="-inkscape-stroke:none"/><path d="m29.355 44.059-7.1172-3.5703-7.043 3.5156 7.3359 3.6953z" color="#000000" fill="#4cabcf" style="-inkscape-stroke:none"/><path d="m23.793 74.711v9.7148l8.6211-4.3047-0.0078-9.7188z" color="#000000" fill="#4cabcf" style="-inkscape-stroke:none"/><path d="m32.402 67.012-0.0078-9.6172-8.6016 4.2773v9.6211z" color="#000000" fill="#4cabcf" style="-inkscape-stroke:none"/><path d="m42.758 65.211v9.7539l-7.3555 3.668-0.0078-9.707z" color="#000000" fill="#4cabcf" style="-inkscape-stroke:none"/><path d="m42.758 61.801v-9.5586l-7.3711 3.6641 0.0078 9.6367z" color="#000000" fill="#4cabcf" style="-inkscape-stroke:none"/><path d="m20.746 61.672-5.8047-2.9219v12.621s-7.1055-15.117-7.7617-16.473c-0.085938-0.17578-0.43359-0.37109-0.52344-0.41797-1.2812-0.66797-5.0117-2.5586-5.0117-2.5586v22.309l5.1641 2.7656v-11.664s7.0273 13.508 7.0977 13.656c0.07422 0.14844 0.77734 1.5703 1.5312 2.0703 1.0039 0.66406 5.3047 3.2539 5.3047 3.2539z" color="#000000" fill="#4c75cf" style="-inkscape-stroke:none"/></svg>