<svg xmlns="http://www.w3.org/2000/svg" viewBox="0 0 128 128"><path fill="#4dabcf" d="m64.112 0-.22.11-21.18 10.573L64.966 21.9 85.71 10.83Zm-.002 1.105 19.445 9.752-18.6 9.93-20.036-10.1zM33.956 15.056l-.222.11L9.618 27.194l22.846 11.471L56.19 26.276Zm60.48.153-.224.12-20.67 10.897 23.306 11.759 21.491-10.789zm-60.484.952 20.07 10.13-21.566 11.261-20.627-10.356Zm60.494.16 21.687 10.875-19.284 9.68-21.15-10.67zM64.808 30.627l-.226.118L41.13 43.02l22.852 11.47 24.113-12.104Zm.007 1.113 21.08 10.644-21.912 11.002L43.3 43.002Zm-60.562.978v65.39l15.872 8.51V74.19l9.222 17.727 7.026 13.51 2.348 4.516.675 1.3c.16.309.268.523.259.503v.002l.002.002c.103.208.673 1.362 1.493 2.645.82 1.283 1.877 2.708 3.086 3.51 2.94 1.952 15.316 9.39 15.316 9.39l.75.452.007-66.435-17.729-8.918V87.36c-1.586-3.375-19.603-41.703-21.431-45.487-.207-.43-.57-.69-.912-.928a8.503 8.503 0 0 0-.804-.489l-.004-.002-.004-.002C15.723 38.52 4.972 33.08 4.972 33.08Zm119.494.924-.715.355-21.519 10.697.018 28.884 22.216-11.287zM5.243 34.33c.976.494 10.228 5.176 13.726 7.001.127.068.42.23.704.427.286.2.546.468.583.545 1.875 3.882 22.37 47.481 22.37 47.481l.944-.21V53.999l15.75 7.924-.008 64.065c-1.111-.668-11.829-7.115-14.527-8.906h-.002c-.968-.642-2.012-1.988-2.8-3.22-.787-1.23-1.33-2.33-1.44-2.549l-.002-.004a34.24 34.24 0 0 0-.266-.52l-.677-1.302-2.346-4.516-7.026-13.51c-5.091-9.787-10.157-19.52-10.157-19.52l-.934.228v32.794L5.243 97.515Zm117.514.908v26.446L102.52 71.966l-.017-26.659ZM93.88 48.492l-.715.355-25.07 12.463v28.833l25.812-12.83zm-.99 1.596.027 26.61-23.833 11.849V61.923Zm30.856 20.923-.716.362-21.494 10.845.018 29.084 22.192-11.072zm-.989 1.608v27l-20.214 10.084-.017-26.875zM93.92 85.984l-.715.357-25.11 12.554V128l25.848-12.9zm-.99 1.6.023 26.906-23.868 11.91V99.505Z"/></svg>
