<svg xmlns="http://www.w3.org/2000/svg" fill="none" viewBox="0 0 128 128"><path stroke="#7B61C1" stroke-width="3.84" d="M96 64v.555l.043.172v.254l.043.171v.13l.043.124.043.172v.13l.043.171.043.125.039.172v.172l.043.129.043.168.043.172.043.128.086.168.086.344.043.168.043.172.086.172.039.21.043.173.086.171.043.169.085.214.043.172.086.211.043.215.086.215.082.168.043.215.086.215.086.21.043.258.086.211.043.215.086.254.082.215.043.258.086.254.086.214.043.254.086.258.086.254.043.3.082.255.043.257.086.297.043.258.086.297.042.3.043.298.086.3.043.297.04.301.042.34.086.297.043.344.043.296.043.344v.34l.043.34.043.344.043.34v.343l.043.34v.727l.043.382v1.11l-.043.383v.77l-.043.425v.383l-.043.386-.086.852-.043.383-.043.43-.043.425-.086.426-.082.383-.043.43-.086.468-.171.852-.13.43-.085.425-.125.47-.13.425-.128.469-.129.43-.125.468-.172.426-.129.469-.172.468-.168.426-.171.473-.172.469-.211.425-.172.47-.215.468-.211.469-.215.43-.254.468-.215.469-.254.469-.257.468-.258.426-.254.473-.3.468-.255.469-.3.426-.594.938-.344.429-.297.469-.344.426-.34.468-.34.426-.386.473-.34.426-.383.425-.386.426-.383.426-.383.473-.43.383-.382.425-.426.426-.426.43-.469.383-.43.425-.468.383-.469.43-.938.765-.468.387-.512.383-.516.34-.468.387-.555.339-.512.383-.511.344-1.11.68-.555.343-.554.297-.555.344-.598.297-.554.297-.598.301-.598.296-.593.258-.598.297-.598.258-.64.254-.64.258-.599.215-.64.253-.64.215-.68.211-.641.215-.64.172-.684.211-.684.172-.637.172-.683.168-.684.128-.683.172-.68.129-.727.125-.683.086-.727.129-.68.086-.726.086-.684.086-.722.039-2.18.129h-.723l-.726.043h-.727l-.723-.043h-.726l-.77-.043-.722-.043-.727-.043-.77-.082-.722-.086-.727-.086-.77-.086-.722-.129-.726-.125-.77-.129-.723-.129-.726-.171-.727-.168-.765-.172-.727-.172-.726-.211-.723-.215-.727-.215-.726-.254-.723-.215-.726-.253-.727-.301-.723-.254-.726-.301-.684-.297-.722-.301-.684-.339-.727-.34-.683-.344-.68-.34-.683-.383-.684-.386-.684-.383-.68-.383-.683-.43-.64-.425-.684-.426-.64-.426-.641-.469-.637-.429-.64-.469-.598-.512-.641-.469-2.39-2.047-.598-.554-.555-.555-.594-.555-1.11-1.109-.515-.598-.554-.597-1.536-1.793-.511-.641-.47-.598-.51-.64-.47-.637-.468-.683-.43-.641-.426-.684-.469-.64-.425-.68-.383-.684-.43-.683-.383-.727-.382-.68-.344-.726-.383-.684-.34-.722-.344-.727-.34-.726-.3-.723-.297-.727-.3-.77-.298-.722-.258-.77-.253-.726-.258-.766-.254-.77-.215-.769-.21-.765-.216-.77-.172-.765-.21-.77-.13-.77-.171-.765-.168-.77-.13-.765-.128-.813-.086-.77-.086-.765-.082-.812-.086-.766-.086-.77-.043-.808-.043-.77v-.77l-.043-.808v-1.535l.043-.813v-.769l.043-.766.086-.77.043-.765.086-.77.082-.769.086-.766.129-.769.129-.766.129-.77.125-.726.171-.765.172-.727.168-.77.172-.722.215-.727.211-.726.215-.723.215-.727.254-.726.214-.723.254-.683.301-.684.254-.726.3-.68.298-.684.3-.683.297-.64.34-.684.344-.637.34-.684.344-.64.382-.641.34-.598.387-.64.383-.594.383-.64.382-.598.43-.598.426-.555.426-.597.425-.555.43-.555.426-.554.937-1.11.426-.512.469-.511.515-.512.938-1.023.512-.473.468-.469 1.536-1.406.511-.426.512-.43.555-.425.511-.426.555-.383.516-.387 1.11-.765.554-.387.512-.34.554-.34.555-.343.598-.34.554-.301.555-.34.555-.297.554-.258.594-.297.555-.257.555-.297.597-.258.555-.215.597-.254.555-.215.598-.21.554-.215.598-.215.555-.168.555-.172.597-.172.555-.168.598-.172 1.109-.258.598-.125 1.109-.257.598-.086.554-.086.555-.082 1.11-.172 2.218-.172.512-.043h.554l.555-.043h1.067l.511.043h1.024l2.558.215.47.086.515.043.468.086.512.082 1.407.258.468.128.43.086.469.125.425.086.47.13.425.128.43.125.425.129.426.172.426.129.387.125.425.172.383.129.383.171.387.168.765.344.387.168.383.172.34.172.344.168.382.172.34.172.344.21.297.172.344.172.34.211.296.172.301.215.34.168.3.215.255.215.3.168.297.214.258.172.297.211.258.215.254.172.257.21.255.216.257.172.254.21.215.215.258.168.21.215.259.215.21.168.43.43.211.168.172.215.211.171.215.211.172.172.168.172.215.211.171.172.168.172.172.21.512.512.129.172.172.172.125.168.172.172.129.172.171.125.125.172.13.172.128.129.172.167.125.172.258.258.129.168.125.13.129.128.086.129.129.125.128.129.125.129.13.129.085.125.13.129.124.085.215.215.129.125.129.086.082.13.258.171.086.086.129.082.125.086.086.086.386.258.082.082.13.043.257.172.125.042.129.087.129.042.129.086.129.04.125.042.129.086.128.043.172.043.125.043.13.043.171.086.129.043.168.043.129.043.172.04.168.042.172.043.128.043.172.043.168.043.172.043h.172l.211.043.344.086.21.043.172.043.212.043.171.039.215.043.211.043.43.086.21.043.216.043.21.043.215.043.258.042.211.087.258.042.21.04.259.085.215.043.253.043.258.086.254.086.258.043.254.086.3.082.255.043.257.086.297.086.258.086.297.129.258.086.297.082.3.129.297.086.258.129.297.086.3.124.298.13.34.128.3.13.297.124.3.172.34.129.302.172.296.125.34.172.301.172.34.168.344.172.296.171.344.211.297.172.34.215.344.211.34.215.3.215.34.21.34.258.344.211.34.258.3.254.34.258.34.254.344.258.34.257.3.297.34.297.34.3.344.298.297.3.344.297.339.344.297.34.344.3.297.34.344.383.297.344.339.34.301.383.297.387.301.382.297.383.3.387.297.426.301.383.297.425.301.426.297.43.257.426.297.468.258.426.254.469.258.472.254.47.258.468.253.469.258.511.211.512.258.469.215.512.211.515.215.551.211.516.214.511.172.555.211.555.344 1.11.168.554.344 1.11.129.597.125.594.129.554.257 1.196.125.597.086.598.086.64.172 1.196.086.64.043.637.039.598.129 1.922v2.601l-.086 1.282-.043.683-.039.637-.043.684-.086.64-.086.684-.086.64-.086.68-.129.684-.125.64-.257 1.368-.172.636-.168.684-.172.683-.172.641-.168.684-.215.68-.215.64-.211.683-.257.641-.254.68-.258.64-.254.684-.258.64-.297.684-.301.64-.296.638-.344.64-.34.64-.297.642-.387.64-.339.641-.383.636-.387.641-.383.598-.383.64-.429.598-.426.598-.426.64-.426.598-.468.555-.43.597-.469.594-.512.555-.468.597-2.047 2.219-.555.555-.555.512-.511.511-.598.516-.555.512-.597.511-.555.512-1.195.938-.64.468-.599.469-.64.469-.637.429-1.281.852-.684.426-.64.43-.68.382-.684.383-.683.387-.684.383-.683.34-.723.343-.684.34-.726.34-.723.301-.726.34-.727.257-.723.297-.77.301-.726.254-.765.258-.727.254-.77.215-.765.214-.77.211-.765.215-.77.168-.77.172-.765.172-.812.168-.766.129-.77.129-.812.129-.766.086-.812.082-.809.085-.77.086-.808.043-.77.043-.808.043-.813.043h-2.39l-.809-.043-.77-.043-.808-.043-.812-.043-.766-.086-.813-.085-.77-.082-.808-.129-.77-.129-.808-.129-.77-.125-.769-.172-.809-.172-.769-.172-.766-.168-.77-.215-.765-.211-.77-.214-.726-.258-.766-.211-.726-.258-.77-.297-.722-.258-.727-.297-.77-.3-.679-.297-.727-.34-.726-.301-.723-.34-.683-.386-.684-.34-.727-.383-.68-.387-.64-.383-.684-.382-.683-.426-.64-.43-.637-.426-1.282-.851-.64-.469-.598-.473-.598-.468-.64-.469-.555-.512-.598-.469-.593-.511-1.11-1.024-.554-.554-.555-.512-.516-.555-.554-.555-.512-.515-.512-.594-.469-.555-.511-.554-.938-1.196-.426-.554-.472-.598-.426-.598-.426-.64-.851-1.196-.387-.64-.383-.598-.383-.637-.386-.64-.68-1.281-.344-.641-.34-.64-.3-.637-.297-.641-.301-.684-.297-.64-.258-.64-.297-.68-.215-.641-.253-.684-.258-.64-.211-.684-.215-.68-.215-.64-.168-.684-.172-.683-.172-.641-.168-.68-.129-.683-.171-.641-.13-.684-.124-.683-.086-.637-.086-.683-.13-.641-.042-.684-.086-.64-.039-.68-.086-.64v-.684l-.086-1.281v-1.961l.043-.641v-.64l.043-.641.043-.637.043-.598.082-.64.043-.598.086-.64.086-.598.086-.64.129-.599.082-.597.129-.594.129-.598.128-.554.168-.598.13-.555.171-.597.172-.555.168-.555.344-1.11.21-.554.173-.511.214-.555.211-.512.215-.512.211-.511.215-.512.258-.516.21-.468.259-.512.253-.469.258-.469.254-.468.258-.47.254-.472.3-.426.255-.468.3-.426.297-.426.258-.43.297-.425.3-.383.298-.426.3-.387.297-.383.301-.382.34-.387.297-.34.3-.383.34-.343.301-.34.34-.34.3-.344.34-.34.34-.3.301-.34.34-.297.344-.301.297-.297.34-.258.343-.297.34-.257.344-.254.297-.301.34-.254.343-.215.34-.258.344-.21.297-.258.34-.211.343-.215.34-.215.301-.21.34-.216.34-.168.3-.172.34-.215.344-.167.297-.172.34-.172.3-.172.34-.125.301-.172.297-.129.344-.129.297-.168.297-.129.3-.129.297-.086.301-.124.297-.13.3-.085.298-.13.257-.085.297-.125.301-.086.254-.086.3-.086.255-.086.258-.086.296-.082.258-.043.254-.086.258-.086.254-.043.258-.086.254-.043.214-.086.258-.043.254-.039.215-.086.254-.042.215-.043.21-.043.43-.086.211-.043.43-.086.21-.043.216-.043.168-.04.215-.042.171-.043.211-.043.344-.086.168-.043.172-.043.215-.043.125-.043h.172l.343-.086.168-.043.13-.039.171-.043.125-.086.172-.043.129-.043.172-.043.125-.043.129-.043.129-.086.172-.043.124-.043.13-.082.257-.086.125-.086.13-.085.085-.043.258-.172.125-.04.129-.085.086-.086.258-.172.124-.086.087-.082.128-.086.215-.215.125-.086.13-.129.085-.082.129-.129.125-.086.086-.128.129-.13.129-.124.129-.086.082-.13.129-.128.128-.125.13-.172.128-.129.125-.129.13-.125.128-.172.129-.129.125-.171.129-.125.129-.172.172-.172.125-.13.129-.167.172-.172.128-.172.34-.34.13-.172.51-.511.169-.211 1.11-1.11.214-.171.172-.215.21-.168.43-.43.212-.168.257-.215.211-.172.258-.21.215-.215.254-.168.258-.215.254-.215.257-.168.254-.215.258-.215.297-.168.258-.215.297-.214.3-.168.297-.215.301-.211.297-.172.297-.215.343-.168.297-.172.344-.215.34-.168.34-.214.344-.172.34-.168.386-.172.34-.172.383-.172.386-.168.34-.172.383-.172.426-.168.387-.128.383-.172.425-.13.387-.167 1.277-.387.426-.125.43-.129.469-.129.425-.129.47-.082.468-.129.473-.085.425-.086.512-.13.469-.085.469-.04.468-.085.512-.086.512-.043.472-.043 2.047-.172h.512l.555-.043h1.023l.555.043h1.066l2.219.172.555.086.554.043.555.086.555.082.554.086.555.129.598.085.554.13.555.124.598.172.554.13.555.171.598.125.555.172.597.215.555.168.598.215.554.214.598.211.555.215.593.254.555.258.555.254.597.258.555.258.555.296.597.297.555.301.555.297.554.344.555.297.555.343.554.383.555.34.555.387.555.383.511.382.555.383.512.387.554.426.512.425.516.426.511.473.512.426 1.535 1.406.469.512.469.472.511.512.469.512.473.511.469.555.425.512.469.554.426.555.43.555.425.597.426.555.426.598.383.597.429.594.383.64.383.599.387.64.34.598.382.64.344.684.34.637.301.64.34.684.297.684.343.64.254.68.301.726.297.684.258.684.254.722.257.727.211.683.215.723.215.727.211.726.215.766.172.726.168.727.172.766.171.726.125.77.129.765.129.77.086.726.086.766.082.77.086.765.086.813.043.77.043.765v.77l.043.765v1.578l-.043.77v.812l-.043.766-.086.77-.043.808-.086.77-.082.769-.086.809-.129.77-.129.765-.125.812-.172.766-.128.77-.172.769-.211.766-.172.77-.215.769-.211.765-.215.77-.254.765-.257.727-.254.77-.301.722-.254.77-.301.726-.297.723-.343.77-.34.726-.34.68-.344.726-.34.727-.386.68-.383.726-.383.684-.426.683-.387.68-.425.684-.469.683-.426.64-.469.684-.472.637-.938 1.281-.469.598-.511.641-1.024 1.195-.554.598-.512.597-.555.594-1.664 1.664-.598.555-.597.515-.598.551-.597.516-.598.511-.598.469-.64.512-.598.469-.637.468-.64.469-.641.43-.684.426-.64.425-.68.426-.64.426-.684.387-1.367.765-.68.344-.684.383-.726.34-.684.301-.68.339-.726.301-.727.297-.68.301-.726.297-.726.258-.723.253-.727.215-.726.254-.727.215-.722.215-.77.211-.727.172-.722.172-.727.168-.765.171-.727.129-.727.125-.765.129-.727.086-.726.129-.766.086-.726.086-.727.039-.766.043-1.453.086h-.722l-.727.043h-.727l-.765-.043h-.727l-.683-.043-.727-.043-.722-.043-.727-.082-.727-.043-.68-.086-.726-.129-.683-.086-.727-.129-.68-.125-1.367-.258-.684-.171-.68-.168-.683-.172-.64-.172-.684-.168-.64-.215-.68-.215-.641-.211-.64-.215-.641-.253-.598-.258-.64-.211-.598-.258-.637-.297-.598-.258-.597-.297-.598-.3-.598-.297-.554-.301-.598-.297-.555-.301-1.109-.679-.555-.344-.511-.34-.555-.344-.512-.34-.511-.382-.512-.344-.512-.383-.469-.383-.472-.386-.512-.383-.469-.383-.426-.426-.468-.387-.426-.382-.473-.426-.425-.43-.426-.426-.383-.425-.43-.426-.383-.426-.382-.43-.383-.425-.387-.426-.34-.426-.383-.469-.343-.429-.34-.469-.301-.426-.34-.469-.297-.426-.3-.472-.297-.469-.301-.469-.297-.425-.258-.469-.254-.469-.3-.473-.212-.425-.515-.938-.211-.469-.215-.468-.21-.43-.216-.469-.172-.469-.21-.468-.172-.426-.172-.469-.168-.472-.172-.426-.129-.47-.168-.425-.129-.469-.129-.43-.129-.468-.129-.426-.082-.469-.129-.425-.085-.43-.172-.852-.086-.468-.082-.426-.043-.387-.086-.426-.086-.851-.043-.387-.043-.426-.043-.383-.043-.425v-.387l-.043-.383v-.426l-.043-.386v-1.493l.043-.34v-.726l.043-.383.043-.343v-.34l.043-.34.043-.344.043-.34.043-.3.086-.68.043-.301.043-.297.043-.3.082-.297.043-.301.043-.297.086-.301.043-.297.085-.258.043-.296.086-.258.043-.297.082-.258.043-.254.086-.258.086-.254.043-.257.086-.211.086-.258.043-.211.082-.258.086-.215.043-.21.086-.259.043-.21.172-.43.039-.168.086-.215.043-.215.086-.168.043-.215.086-.171.043-.211.085-.172.043-.172.082-.211.043-.172.043-.168.043-.172.086-.172.043-.129.043-.168.086-.343.043-.168.043-.13.04-.171v-.129l.042-.168.043-.129.043-.172v-.129l.043-.168v-.129l.043-.128v-.297l.043-.13v-1.023l-.043-.129v-.297l-.043-.128v-.301l-.043-.125-.043-.172v-.129l-.043-.172-.043-.125-.039-.172-.043-.129-.043-.168-.043-.172-.043-.128-.043-.172-.043-.168-.086-.344-.043-.168-.085-.172-.044-.172-.039-.168-.085-.215-.043-.171-.086-.168-.043-.215-.086-.172-.043-.211-.086-.215-.043-.215-.082-.168-.086-.215-.043-.21-.086-.215-.086-.258-.043-.211-.086-.215-.039-.254-.086-.215-.086-.257-.043-.254-.086-.258-.086-.254-.043-.258-.086-.254-.039-.258-.086-.254-.085-.3-.044-.254-.085-.301-.043-.297-.043-.258-.086-.297-.043-.3-.04-.34-.042-.297-.086-.3-.043-.34-.043-.301-.043-.34-.043-.301-.043-.34v-.34l-.043-.343-.043-.34v-.383l-.043-.344v-.727l-.043-.382v-1.11l.043-.383v-.769l.043-.426v-.383l.043-.386.043-.426.043-.383.043-.426.043-.43.086-.425.043-.426.086-.426.082-.425.086-.43.258-1.278.128-.472.125-.426.086-.426.13-.468.128-.426.168-.469.129-.43.172-.468.168-.47.172-.425.172-.469.171-.472.211-.47.172-.425.211-.469.43-.937.254-.43.215-.469.254-.468.257-.47.254-.468.258-.426.297-.472.3-.47.255-.468.3-.426.34-.468.301-.426.34-.473.344-.469.68-.851.343-.469.383-.43.383-.425.386-.426.383-.469.383-.426.426-.43.387-.382.425-.426.47-.426.425-.386.43-.426.468-.383.47-.426.468-.387.469-.382.511-.383.469-.344 1.023-.766.516-.343.512-.34.554-.383.555-.344.512-.297.555-.343.554-.34.598-.3.555-.298.597-.297.594-.3.598-.297.597-.258.598-.297.598-.258.64-.254.64-.258.599-.214.64-.254.637-.215.684-.211.64-.215.64-.172.684-.21.68-.173.684-.171.64-.168.684-.13.722-.128.684-.13.684-.124.683-.13.723-.085.727-.086.683-.086.723-.086.726-.039.727-.086h.683l.723-.043.727-.043h1.492l.727.043h.726l.723.043.726.043.77.082.722.043.727.086.77.086.722.129.727.086.77.125.722.129.727.172.769.129.723.168.726.214.727.172.765.211 1.454.43.722.254.727.258.726.253.723.258.684.297.726.3.723.298.683.3.727.34.684.34.68.344.726.34.683.383.684.386.64.383.68.383.684.426.641.43.683.425.637.426 1.281.938.641.472.597.469.641.469 1.793 1.535.594.555.597.511 1.664 1.664 1.11 1.196.512.554.554.598.512.64.516.598.468.64.512.595.938 1.28.468.684.426.641.473.68.426.64.425.684.383.684.387.726.426.68.382.684.344.726.383.723.34.683.344.727.296.726.34.766.301.727.297.726.258.766.254.726.257.766.258.77.254.726.215.766.211.77.215.769.172.765.168.77.172.766.171.812.125.77.129.765.129.77.129.808.086.77.082.765.043.813.086.77.043.765.043.813.043.765v2.348l-.043.77-.043.808-.043.77-.043.765-.086.77-.043.77-.082.765-.129.77-.086.769-.129.723-.125.77-.172.765-.171.726-.129.77-.211.723-.172.726-.215.77-.211.722-.215.727-.211.726-.257.68-.254.727-.258.683-.258.727-.297.68-.258.683-.297.684-.339.683-.301.68-.34.64-.301.641-.383.684-.339.64-.344.641-.383.594-.383.64-.387.598-.382.64-.383.598-.426.555-.43.598-.425.597-.852 1.11-.43.555-.468.554-.469.512-.469.555-.937 1.023-.473.512-.512.469-.98.98-.512.43-1.023.937-1.024.852-.512.43-.554.382-.512.426-.555.383-.554.387-.512.382-.555.34-.554.387-.555.34-.555.343-.555.297-.554.34-.598.301-.555.297-.554.301-.555.254-.598.3-.554.254-.598.258-.555.211-.554.258-.598.215-.555.211-.597.214-.555.211-.598.172-.554.172-.598.172-.555.168-.554.129-.598.172-.555.125-.597.129-.555.129-1.11.171-.593.125-.555.086-.555.043-.554.086-1.11.086-.511.043-1.11.086h-.554l-.516.043H79.23l-.512-.043h-.555l-.512-.043h-.511l-1.024-.086-.469-.043-.511-.086-.512-.043-.469-.086-.511-.043-.473-.082-.938-.171-.468-.129-.47-.086-.425-.125-.472-.086-.426-.129-.469-.129-.426-.129-.426-.125-.43-.129-.425-.129-.426-.172-.383-.125-.43-.172-.382-.128-.383-.172-.387-.168-.383-.129-.382-.172-.383-.168-.344-.172-.383-.215-.343-.168-.68-.343-.344-.211-.68-.344-.3-.211-.34-.172-.301-.215-.297-.168-.3-.215-.297-.172-.301-.21-.254-.215-.301-.172-.254-.211-.258-.215-.297-.172-.257-.211-.254-.215-.215-.168-.254-.214-.258-.215-.21-.168-.216-.215-.258-.215-.21-.168-.215-.215-.211-.172-.215-.21-.172-.215-.21-.168-.556-.555-.171-.215-.215-.172-.34-.34-.172-.214-.129-.168-.168-.172-.344-.344-.125-.168-.3-.3-.13-.169-.167-.172-.13-.171-.128-.13-.129-.167-.125-.13-.129-.171-.129-.125-.129-.13-.125-.171-.129-.129-.129-.125-.128-.129-.125-.129-.086-.129-.13-.129-.128-.081-.13-.13-.081-.128-.129-.086-.129-.13-.086-.081-.129-.13-.125-.085-.215-.215-.129-.082-.128-.086-.082-.086-.258-.172-.086-.086-.13-.043-.124-.082-.129-.086-.129-.042-.129-.086-.125-.086-.129-.043-.129-.086-.129-.043-.125-.04-.128-.085-.387-.13-.168-.085-.129-.043-.172-.043-.125-.043-.172-.043-.129-.043-.172-.039-.168-.043-.128-.043-.172-.043-.168-.043-.516-.129-.21-.043h-.173l-.168-.043-.215-.043-.171-.043-.211-.043-.172-.039-.215-.043-.211-.043-.43-.086-.21-.043-.215-.042-.211-.043-.215-.086-.258-.043-.211-.043-.258-.043-.21-.082-.259-.043-.254-.043-.214-.086-.258-.043-.254-.086-.258-.086-.297-.043-.258-.082-.253-.086-.258-.086-.297-.086-.258-.086-.297-.086-.3-.086-.255-.125-.3-.086-.297-.129-.297-.085-.3-.13-.298-.124-.3-.13-.297-.128-.301-.13-.297-.124-.344-.129-.297-.172-.3-.129-.34-.168-.297-.172-.344-.171-.297-.168-.344-.172-.34-.172-.296-.211-.344-.172-.34-.215-.3-.21-.68-.43-.344-.211-.34-.258-.3-.211-.34-.258-.34-.254-.344-.258-.34-.254-.3-.257-.34-.297-.34-.258-.344-.297-.297-.3-.344-.298-.34-.3-.297-.34-.343-.301-.34-.34-.3-.34-.34-.343-.302-.34-.34-.383-.296-.344-.301-.383-.34-.383-.3-.386-.297-.383-.301-.383-.297-.43-.297-.382-.3-.426-.255-.426-.3-.43-.254-.425-.301-.47-.254-.468-.258-.426-.258-.468-.297-.473-.215-.469-.253-.512-.258-.468-.211-.512-.258-.512-.21-.511-.43-1.024-.211-.512-.215-.554-.172-.555-.211-.512-.344-1.11-.168-.554-.172-.598-.129-.554-.168-.598-.129-.555-.257-1.195-.125-.598-.086-.597-.13-.598-.085-.64-.086-.598-.043-.598-.086-.636-.039-.641-.043-.598-.129-1.922v-2.601l.086-1.281.043-.68.043-.64.082-.684.043-.641.086-.684.086-.68.129-.64.129-.684.082-.64.172-.684.128-.68.172-.64.125-.684.172-.683.215-.64.168-.68.215-.684.21-.64.259-.684.214-.68.254-.64.258-.684.254-.64.3-.642.298-.68.3-.64.297-.64.301-.641.68-1.281.344-.64.382-.638.383-.64.387-.64.383-.599.383-.64.425-.598.43-.598.426-.597.426-.594.937-1.195.473-.598.469-.555.511-.597.469-.555 1.023-1.11.555-.511.512-.555.555-.511.554-.555.555-.512.598-.512.554-.472.598-.512.598-.469.597-.511.64-.426.599-.469.636-.469.64-.43 1.282-.85.684-.427.64-.425.68-.387 1.367-.766.684-.344.722-.382.684-.34.727-.344.722-.297.684-.344.726-.296.766-.301.727-.297.726-.258.766-.254.726-.258.77-.254.766-.214.77-.211.769-.215.765-.215.77-.168.765-.172.77-.172.77-.125.808-.172.77-.129.808-.085.77-.13.808-.081.77-.086.812-.043.809-.086.77-.043h.808l.813-.043h2.386l.77.043.812.043.809.043.77.086.808.043.813.086.765.125.813.086.765.128.77.13.812.167.766.13.77.171.765.211.77.172.77.215.765.21.77.215.765.254.77.258.726.258.723.254.77.3.726.255.722.3.727.34.727.297.683.344.723.34.683.343.727.383.68.383.683.383.684.387.64.382.684.426.637.43 1.281.851.64.47.641.425.598.469.598.472.597.512.594.469.598.512.554.511.598.512 1.109 1.023.512.555.555.512 1.023 1.11.516.554.469.598.511.554.469.598.469.555.469.597.425.598.43.598.426.597.426.64.425.599.387.636.383.598.383.64.343.641.383.64.34.641.344.637.297.64.344.641.296.641.297.684.258.64.297.637.258.684.258.64.211.684.257.683.211.637.215.684.172.64.211.684.172.684.172.636.168.684.129.683.128.641.129.684.125.68.129.64.172 1.367.086.637.043.683.082.641.043.684.043.64v.64l.043.68v1.922l-.043.641v.637l-.086 1.281-.082.598-.043.64-.086.598-.086.64-.172 1.196-.086.637-.125.597-.129.555-.257 1.195-.125.598-.344 1.11-.129.597-.168.555-.215.554-.172.512-.168.555-.214.555-.211.511-.215.512-.215.555-.211.511-.258.47-.211.51-.258.513-.214.472-.254.469-.258.512-.254.468-.258.426-.297.469-.258.43-.296.468-.258.426-.297.426-.301.426-.254.43-.301.382-.296.426-.34.383-.301.387-.297.382-.301.383-.297.344-.343.383-.297.34-.344.343-.297.34-.34.344-.343.297-.297.34-.344.3-.34.297-.297.301-.344.297-.339.3-.344.255-.297.3-.34.254-.344.258-.339.254-.344.215-.297.254-.34.258-.344.214-.34.211-.343.215-.297.211-.34.215-.344.172-.297.21-.343.173-.34.215-.297.168-.344.171-.297.172-.344.13-.296.167-.301.129-.34.172-.297.125-.3.129-.297.129-.301.129-.297.129-.301.125-.297.086-.3.128-.297.086-.301.13-.254.081-.301.086-.297.086-.258.086-.254.086-.3.086-.254.082-.258.086-.254.043-.258.086-.254.086-.258.043-.253.086-.258.043-.211.043-.258.082-.215.043-.254.043-.215.043-.21.043-.43.085-.211.086-.215.043-.21.043h-.216l-.215.043-.168.04-.214.042-.172.043-.211.043-.344.086-.168.043-.344.086-.168.043-.343.086-.168.043-.13.039-.343.086-.125.043-.172.043-.258.086-.168.043-.129.086-.257.086-.125.082-.258.086-.13.086-.124.043-.258.171-.129.043-.129.086-.082.082-.129.086-.129.043-.129.086-.085.086-.125.086-.13.125-.128.086-.086.086-.125.086-.215.215-.129.125-.129.086-.082.129-.129.129-.129.085-.086.125-.128.13-.125.128-.13.13-.128.124-.13.13-.085.128-.125.172-.13.125-.3.3-.125.13-.129.168-.129.171-.297.297-.128.172-.172.172-.125.172-.172.168-.13.172-.85.851-.173.215-.937.938-.215.171-.172.215-.21.168-.43.43-.254.168-.215.215-.211.168-.258.215-.21.214-.259.168-.257.215-.254.215-.258.168-.254.215-.3.215-.255.168-.3.215-.297.211-.258.171-.297.215-.297.168-.344.215-.297.172-.3.211-.34.172-.344.215-.34.168-.34.171-.344.215-.34.168-.34.172-.386.172-.383.168-.34.172-.386.172-.383.172-.383.125-.43.171-.382.172-.426.125-.383.129-.43.172-.425.129-.426.125-.426.129-.469.129-.43.129-.425.086-.469.125-.469.086-.468.129-.473.085-.938.172-.468.082-.512.043-.469.086-1.023.086-.512.086h-.473l-.511.043-.555.043h-.512l-.511.043h-1.067l-.512-.043h-.554l-.555-.043h-.555l-.511-.043-.555-.043-.555-.086-.554-.043-1.11-.172-.598-.082-1.109-.171-.555-.129-.597-.129-.555-.125-.555-.129-.597-.172-.555-.129-.598-.168-.554-.172-.594-.215-.555-.168-.554-.214-.598-.215-.555-.211-.597-.215-.555-.254-.598-.258-.554-.254-.555-.258-.598-.296-.555-.258-.554-.297-.598-.301-.555-.34-.554-.301-1.11-.679-.554-.344-.555-.383-.555-.344-.511-.382-.555-.383-.512-.426-.555-.387-.511-.425-.555-.426-.512-.426-.511-.469-.512-.43-.512-.468-.47-.469-1.493-1.492-.937-1.024-.469-.515-.473-.512-.425-.555-.469-.554-.852-1.11-.43-.593-.425-.555-.426-.598-.383-.597-.43-.598-.382-.598-.383-.64-.344-.641-.383-.598-.34-.64-.343-.68-.68-1.281-.344-.684-.296-.683-.301-.68-.297-.684-.258-.683-.297-.684-.258-.722-.253-.684-.258-.727-.211-.722-.43-1.453-.21-.723-.216-.727-.168-.726-.172-.766-.171-.726-.13-.77-.124-.766-.13-.726-.128-.77-.13-.765-.085-.77-.082-.766-.043-.769-.086-.77-.043-.765-.043-.813v-.765l-.043-.77v-1.578l.043-.77.043-.765.043-.813.043-.77.086-.765.043-.812.125-.766.086-.77.129-.808.129-.77.125-.77.129-.765.171-.812.172-.766.211-.77.172-.769.215-.766.21-.769.259-.723.21-.77.258-.769.254-.722.301-.77.297-.727.3-.765.298-.727.3-.726.34-.723.34-.727.387-.726.34-.68.383-.726.386-.684.383-.684.426-.68.387-.683.425-.683.47-.684.425-.64.469-.68.468-.64.473-.642.469-.64.512-.598.511-.64.512-.598.512-.594.511-.598.555-.597.555-.555.555-.598 1.109-1.109.598-.512.554-.554 1.195-1.024.641-.511.598-.516.637-.469.597-.469 1.281-.937.641-.426.684-.43.636-.425.684-.426.64-.426.684-.387.684-.382.68-.383.683-.344.727-.34.683-.34.68-.343.727-.34.683-.301.723-.297.726-.258.727-.297.722-.257.727-.254.727-.258.726-.211.723-.215.726-.21.727-.216.723-.172.77-.168.726-.171.722-.13.77-.171.727-.125.722-.086.77-.129.726-.086.723-.086.726-.086.77-.039.723-.086h.726l.766-.043.726-.043h1.453l.723.043h.727l.726.043.723.043.727.043.683.082.723.086.726.086.684.086.727.129.68.086.683.125.683.172.684.129.68.168.683.128.684.215.683.172.637.168.64.215.684.21 1.282.43.64.255.598.257.637.254.597.258.64.254.599.3.597.255.598.3.555.297.597.301.555.297.598.344.554.34.555.296.512.344.554.34.512.383.512.344.511.34.512.386.512.383.469.383.511.383.47.386.472.383.469.383.425.43.47.382.425.426.43.426.425.43.383.425.426.426.387.426.383.426.382.43.344.425.383.469.34.426.343.43.34.468.34.426.3.469.34.468.302.426.296.473.301.469.254.425.3.47.255.468.258.469.254.472.214.426.254.469.43.937.21.426.216.473.172.469.21.468.172.426.172.469.168.469.13.43.171.468.129.469.125.426.172.468.086.43.129.426.125.469.172.851.128.43.086.469.043.425.082.426.086.387.086.851.086.426.043.387.043.426v.383l.043.425.043.387v.766l.043.383v1.152l-.043.386v.723l-.043.344v.34l-.043.383v.343l-.043.34-.043.301-.086.68-.043.343-.043.297-.043.301-.043.34-.082.3-.086.594-.085.301-.043.297-.043.258-.086.297-.043.258-.086.297-.04.257-.085.254-.086.258-.043.258-.086.254-.086.258-.043.21-.086.258-.082.254-.043.215-.086.215-.086.254-.043.215-.086.21-.043.215-.086.215-.082.168-.043.215-.086.211-.043.172-.085.215-.043.168-.086.215-.043.171-.043.168-.082.172-.043.172-.043.168-.086.172-.086.344-.043.168-.086.343-.043.125-.043.172-.04.13-.042.171v.168l-.043.129-.043.172v.125l-.043.129v.172l-.043.129v.296l-.043.13v.425"/></svg>