<svg xmlns="http://www.w3.org/2000/svg" viewBox="0 0 128 128"><path fill="#CC1E4C" d="M124.9 80c-1.7 0-3.1 1.3-3.1 3s1.3 3 3.1 3c1.7 0 3-1.3 3-3S126.6 80 124.9 80zM124.8 80.5L124.8 80.5c1.4 0 2.4 1.1 2.4 2.5s-1 2.5-2.3 2.5c-1.4 0-2.4-1.1-2.4-2.5S123.4 80.6 124.8 80.5L124.8 80.5zM123.8 81.3v3.4h0.6v-1.5h0.6l0.9 1.5h0.6l-0.9-1.6c0.6 0 0.8-0.4 0.8-0.9 0-0.6-0.4-0.9-1.2-0.9H123.8L123.8 81.3zM124.3 82.8v-1.1h0.7c0.5 0 0.7 0.2 0.7 0.6 0 0.4-0.3 0.6-0.6 0.6L124.3 82.8 124.3 82.8zM31.3 93.2c-1.6-1.2-3.5-2.2-6.1-3 -3.3-1.1-8.1-2.2-10-2.9 -1.2-0.5-1.7-1.2-1.7-2.2 0-1.4 1.7-2.2 3.7-2.3 3.3 0.1 4.3 2 4.5 3.3h9.6V93.2L31.3 93.2 31.3 93.2zM43.3 102.1h7.1c6.2-0.1 11.2-3.2 13.7-7.7 0.2-0.4 0.4-0.7 0.6-1.1 0.4 0.5 0.7 0.7 1.1 1.1 1.7 1.5 3.9 2.6 6.2 3.3 3.7 1.3 6.6 2.2 7.6 2.6 1.9 0.8 3.1 1.4 3.1 3.1 0 2-2.2 2.8-4.5 2.9 -3.1-0.1-6.2-1.6-6.1-4.7H59.9c0.6 8.1 8.6 14.4 18 14.5 5.7-0.1 11-1.7 14.4-5.8 3.4 3.5 7.4 5.7 13 5.8 8.9-0.1 18.1-4.5 18.2-13.9 0-3-0.8-5.6-2.7-7.8 -1.7-2-4.1-3.3-7.4-4.2 -3.3-1.1-8.1-2.2-10-2.9 -1.2-0.5-1.7-1.2-1.7-2.2 0-1.4 1.7-2.2 3.7-2.3 3.3 0.1 4.3 2 4.5 3.3h11.6c0.1-8-6.6-13.3-16.1-13.3 -7.1 0-11.9 2.7-14.3 6.6 -2.6-4.1-7.8-6.6-14.3-6.6 -6.8 0-11.5 2.6-14 6.3 -2.8-3.6-7.4-5.9-13-5.9H31.3v6.1c-2.6-4.1-7.8-6.5-14.2-6.5 -9.9 0-15.3 5.5-15.8 11.8 0 3.9 1.9 7.4 4.8 9.9 1.7 1.5 3.7 2.6 6 3.3 3.7 1.3 6.6 2.2 7.6 2.6 1.9 0.8 3.1 1.4 3.1 3.1 0 2-2.3 2.8-4.5 2.9 -3.1-0.1-6.2-1.6-6.1-4.7H-0.1c0.6 8.1 8.6 14.4 18 14.5 5.2-0.1 10-1.5 13.2-4.5v3.8h12L43.3 102.1 43.3 102.1 43.3 102.1zM43.3 83.2h6.5c2.4 0 4.5 2 4.5 4.5s-2 4.5-4.5 4.5h-6.5V83.2zM92.4 94.5c-1.7-2-4.1-3.3-7.4-4.2 -3.3-1.1-8.1-2.2-9.9-2.9 -1.3-0.5-1.9-1.2-1.9-2.2 0-1.4 1.7-2.2 3.7-2.3 3.4 0.1 4.3 2 4.5 3.3h8.2c0.5 3.2 2.1 6.1 4.7 8.3 1.7 1.5 3.8 2.6 6.1 3.3 3.7 1.3 6.6 2.2 7.5 2.6 2 0.8 3.1 1.4 3.1 3.1 0 2-2.3 2.8-4.5 2.9 -3.1-0.1-6.2-1.6-6.1-4.7h-5.5C94.9 98.8 94 96.4 92.4 94.5L92.4 94.5z"/><path fill="#1F70C1" d="M0 10.7v3.5h24.9v-3.5H0zM28.4 10.7v3.5H64c0 0-3.6-3.5-8.4-3.5H28.4zM70.9 10.7v3.5h21.5l-1.3-3.5H70.9zM107.8 10.7l-1.3 3.5h21.3v-3.5H107.8zM0 17.5V21h24.9v-3.5H0zM28.4 17.5V21h39.6c0 0-0.5-2.7-1.3-3.5H28.4zM70.9 17.5V21h23.8l-1.2-3.5H70.9zM105.2 17.5l-1.2 3.5h23.7v-3.5H105.2zM7.2 24.3v3.5H18v-3.5H7.2zM35.6 24.3v3.5h10.8v-3.5H35.6zM56.9 24.3v3.5h10.8c0 0 0.7-1.9 0.7-3.5H56.9zM78.1 24.3v3.5h19.1l-1.3-3.5H78.1zM102.9 24.3l-1.3 3.5h19.2v-3.5H102.9zM7.2 31.2v3.5H18v-3.5H7.2zM35.6 31.2v3.5h27.6c0 0 2.3-1.8 3-3.5H35.6zM78.1 31.2v3.5h10.8v-1.9l0.7 1.9h19.8l0.7-1.9v1.9h10.8v-3.5h-20.3l-1.1 3 -1.1-3H78.1zM7.2 38v3.5H18V38H7.2zM35.6 38v3.5h30.6c-0.7-1.7-3-3.5-3-3.5H35.6zM78.1 38v3.5h10.8V38H78.1zM90.8 38l1.3 3.5h14.8l1.2-3.5H90.8zM110.1 38v3.5h10.8V38H110.1zM7.2 44.8v3.5H18v-3.5H7.2zM35.6 44.8v3.5h10.8v-3.5H35.6zM56.9 44.8v3.5h11.5c0-1.7-0.7-3.5-0.7-3.5H56.9zM78.1 44.8v3.5h10.8v-3.5H78.1zM93.3 44.8l1.3 3.5h9.9l1.3-3.5H93.3zM110.1 44.8v3.5h10.8v-3.5H110.1zM0.2 51.6v3.5h24.9v-3.5H0.2zM28.4 51.6v3.5h38.4c0.8-0.8 1.3-3.5 1.3-3.5H28.4zM71.1 51.6v3.5h17.8v-3.5H71.1zM95.7 51.6l1.3 3.5h5.1l1.2-3.5H95.7zM110.1 51.6v3.5H128v-3.5H110.1zM0.2 58.4v3.5h24.9v-3.5H0.2zM28.4 58.4v3.5h27.1c4.8 0 8.4-3.5 8.4-3.5H28.4zM71.1 58.4v3.5h17.8v-3.5H71.1zM98.2 58.4l1.3 3.5 0.2 0 1.3-3.5H98.2zM110.1 58.4v3.5H128v-3.5H110.1z"/></svg>