<?xml version="1.0" encoding="utf-8"?>
<!-- Generator: Adobe Illustrator 15.1.0, SVG Export Plug-In . SVG Version: 6.00 Build 0)  -->
<!DOCTYPE svg PUBLIC "-//W3C//DTD SVG 1.1//EN" "http://www.w3.org/Graphics/SVG/1.1/DTD/svg11.dtd">
<svg version="1.1" id="Layer_1" xmlns="http://www.w3.org/2000/svg" xmlns:xlink="http://www.w3.org/1999/xlink" x="0px" y="0px"
	 width="351.956px" height="351.956px" viewBox="0 0 351.956 351.956" enable-background="new 0 0 351.956 351.956"
	 xml:space="preserve">
<g>
	<path fill-rule="evenodd" clip-rule="evenodd" d="M262.967,0c0.667,0,1.334,0,2,0c28.233,12.428,57.565,23.758,86.989,34.996
		c0,93.989,0,187.976,0,281.964c-29.424,11.238-58.756,22.567-86.989,34.996c-0.666,0-1.333,0-2,0
		c-45.411-46.911-92.571-92.071-137.982-138.982c-30.444,22.549-59.128,46.858-89.989,68.991C24,275.297,11.552,270.079,0,263.967
		c0-58.659,0-117.319,0-175.978C11.999,81.99,23.997,75.99,35.996,69.991C65.647,93,95.02,116.287,124.984,138.982
		C170.396,92.071,217.556,46.912,262.967,0z M172.979,174.978c23.879,21.796,54.049,43.301,78.99,62.993
		c3.178,2.509,6.552,7.507,10.998,5.999c-0.666-45.661,1.333-93.988-1-137.983C232.417,129.097,203.049,152.388,172.979,174.978z
		 M35.996,225.972c16.581-12.75,33.579-33.745,50.994-48.994c-15.583-18.747-33.745-34.914-50.994-51.994
		C35.996,158.647,35.996,192.31,35.996,225.972z"/>
</g>
</svg>
