<svg xmlns="http://www.w3.org/2000/svg" viewBox="0 0 128 128"><path fill="#68217a" d="M17.6 53.27l5.31 2.14v17.18l-5.36 2.14L9 66.26l-5.4 4.19-2.12-1.07V58.62l2.14-1L9 61.83zm-14 7.55v6.52L6.84 64zM12 64l5.55 4.38v-8.74z"/><g fill="#68217a"><path d="M40.53 57.52l-4.79 12.94h-1.67l-4.7-12.94h1.69l3.58 10.26a6.13 6.13 0 01.26 1.15 5.6 5.6 0 01.3-1.16l3.7-10.25zm1.87 1.35M42.4 58.87a.94.94 0 01-.68-.27.91.91 0 01-.28-.69.95.95 0 011-1 1 1 0 01.69.28 1 1 0 010 1.37 1 1 0 01-.73.31zm.72 11.59h-1.48v-9.24h1.48zM45 70.13v-1.59a4.38 4.38 0 002.66.89q2 0 2-1.3a1.12 1.12 0 00-.17-.63A1.65 1.65 0 0049 67a3.42 3.42 0 00-.67-.36l-.83-.33a10.58 10.58 0 01-1.08-.49 3.27 3.27 0 01-.78-.56 2.08 2.08 0 01-.47-.71 2.51 2.51 0 01-.16-.93 2.21 2.21 0 01.3-1.15 2.65 2.65 0 01.79-.84 3.73 3.73 0 011.13-.51 5 5 0 011.33-.12 5.31 5.31 0 012.15.41v1.5a4.18 4.18 0 00-2.35-.67 2.73 2.73 0 00-.75.09 1.83 1.83 0 00-.57.27 1.24 1.24 0 00-.37.41 1.09 1.09 0 00-.13.53 1.27 1.27 0 00.13.61 1.34 1.34 0 00.38.43 3 3 0 00.61.34l.82.33a11.32 11.32 0 011.1.48 3.81 3.81 0 01.83.56 2.21 2.21 0 01.53.72 2.31 2.31 0 01.18 1 2.27 2.27 0 01-.3 1.19 2.59 2.59 0 01-.82.8 3.7 3.7 0 01-1.16.5 5.76 5.76 0 01-1.38.16 5.22 5.22 0 01-2.46-.53zM60.33 70.46h-1.49V69A3 3 0 0156 70.68q-3.3 0-3.3-3.94v-5.52h1.47v5.29q0 2.92 2.24 2.92a2.27 2.27 0 001.78-.8 3.06 3.06 0 00.7-2.09v-5.32h1.48zM69.38 70.46H67.9V69a3.1 3.1 0 01-2.9 1.68 3 3 0 01-2.16-.73 2.53 2.53 0 01-.77-1.95q0-2.59 3.05-3l2.77-.39q0-2.36-1.9-2.36a4.55 4.55 0 00-3 1.14v-1.52a5.72 5.72 0 013.13-.87q3.26 0 3.26 3.45zm-1.48-4.68l-2.23.31a3.61 3.61 0 00-1.55.51 1.47 1.47 0 00-.52 1.3 1.41 1.41 0 00.47 1.1 1.86 1.86 0 001.29.43 2.38 2.38 0 001.82-.77 2.76 2.76 0 00.72-2zM73.09 70.46h-1.48V56.78h1.48z"/></g><g fill="#68217a"><path d="M77.72 69.94v-1.79a3.43 3.43 0 00.73.49 5.9 5.9 0 00.9.37 7.25 7.25 0 001 .23 5.3 5.3 0 00.88.08 3.46 3.46 0 002.09-.52 1.95 1.95 0 00.46-2.41 2.58 2.58 0 00-.64-.71 6.3 6.3 0 00-1-.61l-1.2-.62q-.68-.34-1.26-.7a5.5 5.5 0 01-1-.78A3.26 3.26 0 0178 62a3.28 3.28 0 01.14-2.8 3.34 3.34 0 011-1.08 4.63 4.63 0 011.44-.63 6.58 6.58 0 011.65-.21 6.3 6.3 0 012.79.46v1.71a5.06 5.06 0 00-2.94-.79 4.87 4.87 0 00-1 .1 2.8 2.8 0 00-.88.34 2 2 0 00-.63.6 1.61 1.61 0 00-.24.9 1.87 1.87 0 00.19.86 2.1 2.1 0 00.55.66 5.37 5.37 0 00.88.58l1.2.61q.69.34 1.32.72a6.05 6.05 0 011.09.84 3.75 3.75 0 01.74 1 2.85 2.85 0 01.28 1.28 3.26 3.26 0 01-.37 1.62 3.07 3.07 0 01-1 1.08 4.42 4.42 0 01-1.47.6 8 8 0 01-1.75.19 7.25 7.25 0 01-.76 0c-.3 0-.61-.08-.92-.14a7.65 7.65 0 01-.89-.23 2.77 2.77 0 01-.7-.33zm13.64.43M91.36 70.37a2.86 2.86 0 01-1.38.29q-2.43 0-2.43-2.71v-5.47H86v-1.26h1.59V59l1.41-.52v2.73h2.33v1.26H89v5.21a2.16 2.16 0 00.34 1.32 1.26 1.26 0 001 .4 1.55 1.55 0 001-.31zM100.53 70.46h-1.48V69a3 3 0 01-2.85 1.68q-3.3 0-3.3-3.94v-5.52h1.47v5.29q0 2.92 2.24 2.92a2.27 2.27 0 001.78-.8 3.06 3.06 0 00.7-2.09v-5.32h1.48v9.24zM111.13 70.46h-1.48v-1.57a3.42 3.42 0 01-3.18 1.79 3.45 3.45 0 01-2.79-1.24 5.1 5.1 0 01-1-3.38 5.54 5.54 0 011.16-3.67 3.81 3.81 0 013-1.39 3 3 0 012.77 1.5v-5.72h1.48zm-1.48-4.18v-1.36a2.65 2.65 0 00-.74-1.9 2.48 2.48 0 00-1.88-.78 2.56 2.56 0 00-2.13 1 4.35 4.35 0 00-.78 2.74 3.91 3.91 0 00.74 2.52 2.43 2.43 0 002 .92 2.53 2.53 0 002-.89 3.33 3.33 0 00.79-2.25zM114.61 58.87a.93.93 0 01-.68-.27.91.91 0 01-.28-.69 1 1 0 011-1 1 1 0 01.69.28 1 1 0 010 1.37 1 1 0 01-.73.31zm.72 11.59h-1.48v-9.24h1.48zM121.91 70.68a4.29 4.29 0 01-3.27-1.3 4.8 4.8 0 01-1.22-3.43 5 5 0 011.27-3.64 4.58 4.58 0 013.44-1.31 4.14 4.14 0 013.23 1.27 5 5 0 011.16 3.53 5 5 0 01-1.25 3.54 4.38 4.38 0 01-3.36 1.34zm.11-8.43a2.82 2.82 0 00-2.26 1 4 4 0 00-.83 2.68 3.77 3.77 0 00.84 2.59 2.85 2.85 0 002.25.95 2.71 2.71 0 002.21-.93 4 4 0 00.77-2.64 4.11 4.11 0 00-.77-2.67 2.69 2.69 0 00-2.23-.98z"/></g></svg>