<svg xmlns="http://www.w3.org/2000/svg" viewBox="0 0 128 128"><path fill="#52218a" d="M79.84 18.621a5.158 4.75 0 0 0-.23.045 5.158 4.75 0 0 0-.413.078 5.158 4.75 0 0 0-.998.307 5.158 4.75 0 0 0-.25.076 5.158 4.75 0 0 0-.13.088 5.158 4.75 0 0 0-1.145.767l-4.645 4.729-22.77 23.185-15.997-12.08-.006-.004a1.9 1.75 0 0 1 .006.002l-.067-.05-1.334-1.057a3.438 3.166 0 0 0-.523-.27 3.438 3.166 0 0 0-.358-.183 3.438 3.166 0 0 0-.566-.158 3.438 3.166 0 0 0-.574-.076 3.438 3.166 0 0 0-.315-.041 3.438 3.166 0 0 0-.162.033 3.438 3.166 0 0 0-.146-.002l-.002.002a3.438 3.166 0 0 0-.912.22l-6.25 2.375a3.438 3.166 0 0 0-.994.616 3.438 3.166 0 0 0-.239.238 3.438 3.166 0 0 0-.492.678 3.438 3.166 0 0 0-.152.297 3.438 3.166 0 0 0-.238 1.078v33.771a3.438 3.166 0 0 0 .238 1.078 3.438 3.166 0 0 0 0 .002 3.438 3.166 0 0 0 .152.295 3.438 3.166 0 0 0 .49.674 3.438 3.166 0 0 0 .002.002 3.438 3.166 0 0 0 .235.238 3.438 3.166 0 0 0 .138.139 3.438 3.166 0 0 0 .86.476l6.25 2.416a3.438 3.166 0 0 0 1.097.22 3.438 3.166 0 0 0 .004 0 3.438 3.166 0 0 0 .334-.005 3.438 3.166 0 0 0 .422-.007 3.438 3.166 0 0 0 .402-.112 3.438 3.166 0 0 0 .323-.09 3.438 3.166 0 0 0 .976-.52l1.4-1.109 15.999-12.08 22.77 23.184 4.644 4.728a3.026 2.786 0 0 0 .724.487 5.158 4.75 0 0 0 5.14.433l17.001-7.529a5.158 4.75 0 0 0 2.752-3.072 5.158 4.75 0 0 0 .006-.024 5.158 4.75 0 0 0 .078-.332 5.158 4.75 0 0 0 .008-.033 5.158 4.75 0 0 0 .004-.012 5.158 4.75 0 0 0 .004-.021 5.158 4.75 0 0 0 .072-.79V30.886a5.158 4.75 0 0 0 0-.008 5.158 4.75 0 0 0-.002-.025 5.158 4.75 0 0 0-.01-.258 5.158 4.75 0 0 0 0-.022 5.158 4.75 0 0 0 0-.002 5.158 4.75 0 0 0 0-.002 5.158 4.75 0 0 0-.008-.093 5.158 4.75 0 0 0-.005-.043 5.158 4.75 0 0 0-.016-.133 5.158 4.75 0 0 0 0-.002 5.158 4.75 0 0 0 0-.002 5.158 4.75 0 0 0-.004-.035 5.158 4.75 0 0 0-.002-.01 5.158 4.75 0 0 0-.025-.154 5.158 4.75 0 0 0-.014-.073 5.158 4.75 0 0 0-.025-.119 5.158 4.75 0 0 0-.055-.213 5.158 4.75 0 0 0-.006-.025 5.158 4.75 0 0 0-.002-.006 5.158 4.75 0 0 0-.008-.031 5.158 4.75 0 0 0-.008-.022 5.158 4.75 0 0 0-.072-.22 5.158 4.75 0 0 0-.012-.03 5.158 4.75 0 0 0 0-.002 5.158 4.75 0 0 0-.003-.011 5.158 4.75 0 0 0-.008-.018 5.158 4.75 0 0 0-.168-.392 5.158 4.75 0 0 0-.01-.022 5.158 4.75 0 0 0-.008-.014 5.158 4.75 0 0 0-.113-.212 5.158 4.75 0 0 0-.002-.002 5.158 4.75 0 0 0-.004-.006 5.158 4.75 0 0 0-2.334-2.084l-17.002-7.532a5.158 4.75 0 0 0-1.512-.417v.001a5.158 4.75 0 0 0-1.185-.025zm1.992 21.686v32.185l-9.803-7.402-11.51-8.69 8.495-6.414 3.015-2.277.041-.031.338-.254 9.424-7.117zM30.254 45.55 40.908 56.4 30.254 67.25v-21.7zM16.373 99.658c-.431 0-.841.055-1.228.166a2.891 2.891 0 0 0-1.002.512 2.437 2.437 0 0 0-.676.85c-.166.339-.248.732-.248 1.183 0 .393.057.731.174 1.012.116.281.267.526.45.734.19.204.402.38.64.53.237.145.484.275.736.392.252.116.495.227.732.334.238.102.449.215.633.336.19.116.343.251.459.406a.86.86 0 0 1 .174.545c0 .184-.034.351-.102.502a.998.998 0 0 1-.299.38c-.126.1-.28.18-.464.24-.184.053-.392.08-.625.08a3.42 3.42 0 0 1-.94-.118 4.516 4.516 0 0 1-.69-.27 6.712 6.712 0 0 1-.48-.26c-.12-.082-.214-.124-.283-.124a.213.213 0 0 0-.13.045.274.274 0 0 0-.087.13c-.02.063-.035.145-.045.247-.01.101-.013.228-.013.379 0 .223.012.393.037.513a.567.567 0 0 0 .136.272c.064.062.165.135.305.217.145.083.326.163.54.24.213.073.458.136.734.19.28.053.583.08.908.08.48 0 .93-.064 1.351-.19a3.343 3.343 0 0 0 1.106-.56c.315-.253.566-.565.75-.938.184-.373.275-.807.275-1.3a2.52 2.52 0 0 0-.174-.981 2.437 2.437 0 0 0-.459-.729 2.858 2.858 0 0 0-.646-.53 7.025 7.025 0 0 0-.742-.4 24.983 24.983 0 0 0-.74-.328 5.846 5.846 0 0 1-.655-.334 1.79 1.79 0 0 1-.459-.408.904.904 0 0 1-.168-.545c0-.14.026-.272.074-.398a.852.852 0 0 1 .233-.32c.107-.093.238-.163.392-.211.156-.054.337-.08.545-.08.266 0 .511.034.735.101.222.063.418.136.588.219.17.077.313.15.43.219.115.067.2.1.253.1a.172.172 0 0 0 .125-.044.244.244 0 0 0 .072-.137c.02-.063.032-.143.038-.24a5.703 5.703 0 0 0 .006-.67 1.033 1.033 0 0 0-.03-.21.448.448 0 0 0-.137-.262 1.25 1.25 0 0 0-.298-.18 3.555 3.555 0 0 0-.516-.197 4.59 4.59 0 0 0-1.295-.19zm35.041 0c-.431 0-.84.055-1.228.166a2.9 2.9 0 0 0-1.004.512 2.437 2.437 0 0 0-.676.85c-.165.339-.248.732-.248 1.183 0 .393.059.731.176 1.012.116.281.265.526.449.734.19.204.403.38.64.53.238.145.483.275.735.392.252.116.497.227.734.334.238.102.447.215.631.336.19.116.343.251.459.406a.86.86 0 0 1 .176.545c0 .184-.036.351-.104.502a.993.993 0 0 1-.297.38c-.126.1-.28.18-.464.24-.185.053-.393.08-.625.08a3.42 3.42 0 0 1-.94-.118 4.516 4.516 0 0 1-.69-.27 6.712 6.712 0 0 1-.48-.26c-.12-.082-.216-.124-.285-.124a.208.208 0 0 0-.129.045.275.275 0 0 0-.088.13 1.29 1.29 0 0 0-.043.247c-.01.101-.013.228-.013.379 0 .223.01.393.035.513a.569.569 0 0 0 .138.272c.064.062.165.135.305.217.145.083.324.163.537.24.214.073.46.136.737.19.28.053.583.08.908.08.48 0 .93-.064 1.351-.19a3.343 3.343 0 0 0 1.106-.56 2.74 2.74 0 0 0 .748-.938c.184-.373.275-.807.275-1.3a2.52 2.52 0 0 0-.174-.981 2.407 2.407 0 0 0-.457-.729 2.858 2.858 0 0 0-.646-.53 6.896 6.896 0 0 0-.742-.4c-.252-.116-.5-.226-.742-.328a5.846 5.846 0 0 1-.655-.334 1.78 1.78 0 0 1-.457-.408.909.909 0 0 1-.168-.545c0-.14.024-.272.072-.398a.857.857 0 0 1 .235-.32c.107-.093.236-.163.39-.211.156-.054.339-.08.547-.08.266 0 .511.034.735.101.222.063.418.136.588.219.17.077.313.15.43.219.115.067.2.1.253.1a.168.168 0 0 0 .123-.044.244.244 0 0 0 .073-.137c.019-.063.031-.143.037-.24a5.976 5.976 0 0 0 .008-.67 1.033 1.033 0 0 0-.03-.21.448.448 0 0 0-.139-.262 1.227 1.227 0 0 0-.296-.18 3.614 3.614 0 0 0-.518-.197 4.59 4.59 0 0 0-1.293-.19zm38.69 0c-.747 0-1.405.115-1.971.344a3.767 3.767 0 0 0-1.418.978 4.202 4.202 0 0 0-.865 1.557c-.194.606-.291 1.29-.291 2.05 0 .83.09 1.545.27 2.151.183.606.457 1.106.82 1.498.363.394.818.686 1.36.88.549.189 1.187.284 1.919.284.742 0 1.395-.112 1.957-.336a3.754 3.754 0 0 0 1.424-.98c.383-.431.671-.955.865-1.57.194-.616.29-1.312.29-2.092v-.002c0-.814-.093-1.519-.282-2.115-.184-.6-.46-1.097-.828-1.49a3.29 3.29 0 0 0-1.368-.874c-.542-.189-1.17-.283-1.882-.283zm11.964 0c-.31 0-.606.03-.892.088a5.36 5.36 0 0 0-.785.219 3.805 3.805 0 0 0-.606.26 1.79 1.79 0 0 0-.334.218.775.775 0 0 0-.123.153.516.516 0 0 0-.058.146 1.339 1.339 0 0 0-.036.195 5.057 5.057 0 0 0 .006.697c.014.113.033.202.053.27.02.068.043.117.072.147.034.03.071.043.115.043.063 0 .15-.037.262-.11a3.981 3.981 0 0 1 .996-.494 2.45 2.45 0 0 1 .764-.11c.203 0 .38.033.531.097a1.002 1.002 0 0 1 .596.625c.053.14.08.29.08.45 0 .175-.022.358-.066.552a2.753 2.753 0 0 1-.225.64 5.618 5.618 0 0 1-.465.764c-.199.276-.46.583-.785.922l-1.629 1.746a2.876 2.876 0 0 0-.24.283c-.058.082-.106.17-.145.262a1.081 1.081 0 0 0-.08.304 3.216 3.216 0 0 0-.021.409c0 .169.008.307.027.414.024.106.06.188.11.246.048.053.112.09.189.11.077.02.169.028.275.028h5.41a.238.238 0 0 0 .131-.037.297.297 0 0 0 .094-.136.93.93 0 0 0 .05-.24c.016-.103.022-.224.022-.364 0-.136-.006-.253-.021-.35a.82.82 0 0 0-.065-.24.316.316 0 0 0-.11-.136.205.205 0 0 0-.13-.045h-3.709l1.1-1.125c.552-.548.995-1.03 1.33-1.442.334-.416.593-.793.777-1.133a3.47 3.47 0 0 0 .363-.96 4.67 4.67 0 0 0 .088-.9c0-.35-.06-.676-.181-.976a1.994 1.994 0 0 0-.54-.785 2.45 2.45 0 0 0-.913-.515c-.364-.127-.792-.19-1.282-.19zm7.758 0c-.63 0-1.165.115-1.605.344a2.79 2.79 0 0 0-1.07.978c-.271.427-.47.946-.596 1.557a10.4 10.4 0 0 0-.182 2.027c0 .757.048 1.437.145 2.038.102.596.276 1.1.523 1.517.247.412.583.73 1.004.953.422.218.955.328 1.6.328.634 0 1.17-.113 1.607-.341a2.73 2.73 0 0 0 1.066-.983c.277-.426.475-.943.596-1.549a10.39 10.39 0 0 0 .184-2.035c0-.756-.05-1.431-.147-2.027-.097-.601-.268-1.108-.515-1.52a2.448 2.448 0 0 0-1.01-.953c-.422-.223-.955-.334-1.6-.334zm7.334 0c-.31 0-.608.03-.894.088a5.36 5.36 0 0 0-.786.219 3.755 3.755 0 0 0-.601.26c-.16.087-.273.16-.336.218a.751.751 0 0 0-.123.153.48.48 0 0 0-.059.146 1.404 1.404 0 0 0-.037.195 4.613 4.613 0 0 0-.006.278c0 .164.004.304.014.42.014.112.033.201.053.27a.36.36 0 0 0 .07.146.17.17 0 0 0 .117.043c.063 0 .15-.037.262-.11a4.051 4.051 0 0 1 .996-.494 2.45 2.45 0 0 1 .764-.11c.203 0 .38.033.531.097a1.002 1.002 0 0 1 .596.625c.053.14.08.29.08.45 0 .175-.023.358-.067.552a2.753 2.753 0 0 1-.224.64 5.62 5.62 0 0 1-.465.764c-.2.276-.46.583-.785.922l-1.63 1.746a2.877 2.877 0 0 0-.24.283 1.45 1.45 0 0 0-.144.262 1.082 1.082 0 0 0-.08.304 3.058 3.058 0 0 0-.023.409c0 .169.01.307.03.414a.574.574 0 0 0 .108.246.38.38 0 0 0 .19.11c.077.02.168.028.275.028h5.41a.238.238 0 0 0 .131-.037.3.3 0 0 0 .096-.136.937.937 0 0 0 .049-.24c.014-.103.021-.224.021-.364 0-.136-.007-.253-.021-.35a.821.821 0 0 0-.065-.24.313.313 0 0 0-.11-.136.213.213 0 0 0-.13-.045h-3.707l1.098-1.125c.552-.548.995-1.03 1.33-1.442.334-.416.593-.793.777-1.133.184-.344.305-.665.363-.96.059-.296.088-.596.088-.9 0-.35-.06-.676-.181-.976a2.008 2.008 0 0 0-.54-.785 2.464 2.464 0 0 0-.916-.515c-.363-.127-.789-.19-1.279-.19zm7.547 0c-.31 0-.608.03-.894.088a5.36 5.36 0 0 0-.786.219 3.783 3.783 0 0 0-.603.26c-.16.087-.27.16-.334.218a.751.751 0 0 0-.123.153.48.48 0 0 0-.059.146 1.405 1.405 0 0 0-.037.195 4.964 4.964 0 0 0 .008.697c.014.113.03.202.05.27.02.068.044.117.073.147a.17.17 0 0 0 .117.043c.063 0 .15-.037.262-.11a4.052 4.052 0 0 1 .996-.494 2.45 2.45 0 0 1 .764-.11c.203 0 .38.033.53.097a1.002 1.002 0 0 1 .596.625c.054.14.08.29.08.45 0 .175-.022.358-.066.552a2.753 2.753 0 0 1-.224.64 5.583 5.583 0 0 1-.467.764c-.199.276-.46.583-.785.922l-1.627 1.746a2.877 2.877 0 0 0-.24.283c-.059.082-.106.17-.145.262-.04.087-.066.188-.08.304a3.06 3.06 0 0 0-.024.409c0 .169.01.307.03.414.024.106.06.188.11.246.048.053.111.09.189.11.077.02.168.028.275.028h5.408a.238.238 0 0 0 .131-.037.3.3 0 0 0 .096-.136.93.93 0 0 0 .05-.24c.015-.103.022-.224.022-.364 0-.136-.007-.253-.021-.35a.815.815 0 0 0-.067-.24.313.313 0 0 0-.11-.136.208.208 0 0 0-.128-.045h-3.71l1.099-1.125a18.57 18.57 0 0 0 1.33-1.442c.334-.416.595-.793.779-1.133.184-.344.303-.665.361-.96.059-.296.088-.596.088-.9 0-.35-.06-.676-.182-.976a2.003 2.003 0 0 0-.537-.785 2.464 2.464 0 0 0-.916-.515c-.363-.127-.79-.19-1.279-.19zM.998 99.781a6.24 6.24 0 0 0-.611.024c-.146.01-.25.04-.313.093-.058.048-.081.123-.072.225.015.102.051.24.11.414l2.798 8.34c.02.063.04.116.059.16a.356.356 0 0 0 .094.102.62.62 0 0 0 .152.072c.063.02.143.035.24.045.097.01.214.014.35.014a15.642 15.642 0 0 0 1.09-.008c.15-.006.268-.02.355-.043.088-.03.15-.07.19-.117a.653.653 0 0 0 .093-.204l2.807-8.345c.059-.17.095-.305.11-.407.019-.1.005-.179-.044-.232-.043-.059-.129-.095-.256-.11a7.395 7.395 0 0 0-1.053-.008c-.13.01-.23.03-.304.06a.287.287 0 0 0-.147.123.68.68 0 0 0-.072.195l-2.246 7.22H4.32l-2.29-7.255a.883.883 0 0 0-.08-.182.236.236 0 0 0-.137-.11 1.161 1.161 0 0 0-.292-.05c-.126-.01-.3-.016-.523-.016zm9.617 0c-.184 0-.335.009-.457.024a1.76 1.76 0 0 0-.299.056.347.347 0 0 0-.16.096.211.211 0 0 0-.043.13v8.884a.21.21 0 0 0 .043.13c.034.04.087.07.16.094.073.025.17.045.291.059.126.015.281.021.465.021.189 0 .345-.006.467-.021a1.45 1.45 0 0 0 .29-.059.308.308 0 0 0 .153-.093.193.193 0 0 0 .05-.131v-8.883a.201.201 0 0 0-.05-.133.31.31 0 0 0-.154-.094 1.558 1.558 0 0 0-.29-.056 3.96 3.96 0 0 0-.466-.024zm11 0c-.19 0-.344.009-.465.024a1.76 1.76 0 0 0-.298.056.302.302 0 0 0-.153.096.213.213 0 0 0-.045.13v5.722c0 .6.085 1.127.254 1.578.175.446.425.818.75 1.119.325.3.724.525 1.194.676.47.145 1 .218 1.591.218.63 0 1.188-.083 1.672-.248a3.242 3.242 0 0 0 1.22-.718c.33-.316.582-.701.75-1.157.17-.455.255-.972.255-1.548v-5.641a.223.223 0 0 0-.043-.133.306.306 0 0 0-.154-.094 1.57 1.57 0 0 0-.291-.056 3.665 3.665 0 0 0-.45-.024c-.184 0-.34.009-.466.024a1.52 1.52 0 0 0-.29.056.309.309 0 0 0-.154.096.211.211 0 0 0-.043.13v5.663c0 .33-.046.625-.138.887a1.807 1.807 0 0 1-.377.654 1.623 1.623 0 0 1-.604.4 2.223 2.223 0 0 1-.807.137c-.296 0-.564-.042-.806-.129a1.722 1.722 0 0 1-.62-.406c-.169-.18-.3-.406-.392-.678a3.093 3.093 0 0 1-.139-.974v-5.553a.2.2 0 0 0-.05-.133.3.3 0 0 0-.153-.094 1.558 1.558 0 0 0-.29-.056 3.873 3.873 0 0 0-.458-.024zm11.776 0c-.248 0-.446.006-.596.016-.15.005-.269.022-.356.05a.332.332 0 0 0-.181.118.665.665 0 0 0-.104.195l-2.9 8.346a2.31 2.31 0 0 0-.108.406c-.014.102.001.182.05.24.048.054.135.088.261.102.126.015.3.021.523.021a6.8 6.8 0 0 0 .502-.013c.131-.01.231-.027.3-.051a.323.323 0 0 0 .152-.11.615.615 0 0 0 .08-.173l.595-1.84h3.536l.63 1.89c.02.064.045.114.075.153a.3.3 0 0 0 .152.094c.073.02.177.032.312.037a9.401 9.401 0 0 0 1.141-.008c.135-.01.23-.037.283-.086.054-.053.074-.131.059-.232a2.472 2.472 0 0 0-.108-.416l-2.91-8.338a.645.645 0 0 0-.11-.217c-.038-.053-.106-.093-.202-.117a1.521 1.521 0 0 0-.393-.051c-.17-.01-.397-.016-.683-.016zm6.574 0c-.184 0-.34.009-.467.024a1.58 1.58 0 0 0-.291.056.34.34 0 0 0-.158.096.213.213 0 0 0-.045.13v8.542c0 .213.053.368.16.465a.62.62 0 0 0 .408.138h4.31a.18.18 0 0 0 .124-.043.314.314 0 0 0 .096-.138.991.991 0 0 0 .048-.248 2.6 2.6 0 0 0 .024-.37c0-.145-.009-.267-.024-.365a.836.836 0 0 0-.05-.24.249.249 0 0 0-.094-.129.183.183 0 0 0-.123-.045h-2.96v-7.566a.202.202 0 0 0-.052-.133.3.3 0 0 0-.152-.094 1.533 1.533 0 0 0-.29-.056 3.96 3.96 0 0 0-.464-.024zm23.916 0a3.96 3.96 0 0 0-.465.024 1.76 1.76 0 0 0-.299.056.302.302 0 0 0-.152.096.211.211 0 0 0-.043.13v5.722c0 .6.084 1.127.254 1.578.175.446.425.818.75 1.119.324.3.721.525 1.191.676.47.145 1 .218 1.592.218.63 0 1.187-.083 1.672-.248a3.242 3.242 0 0 0 1.22-.718c.33-.316.581-.701.75-1.157.17-.455.254-.972.254-1.548v-5.641a.218.218 0 0 0-.043-.133.306.306 0 0 0-.154-.094 1.57 1.57 0 0 0-.29-.056 3.665 3.665 0 0 0-.45-.024c-.184 0-.34.009-.467.024-.12.014-.216.032-.289.056a.302.302 0 0 0-.152.096.213.213 0 0 0-.045.13v5.663c0 .33-.047.625-.139.887a1.807 1.807 0 0 1-.377.654 1.623 1.623 0 0 1-.603.4 2.223 2.223 0 0 1-.807.137 2.38 2.38 0 0 1-.807-.129 1.722 1.722 0 0 1-.619-.406 1.824 1.824 0 0 1-.39-.678 3.07 3.07 0 0 1-.141-.974v-5.553a.201.201 0 0 0-.049-.133.31.31 0 0 0-.154-.094 1.533 1.533 0 0 0-.29-.056 3.909 3.909 0 0 0-.458-.024zm19.111 0c-.184 0-.336.009-.457.024a1.76 1.76 0 0 0-.299.056.354.354 0 0 0-.16.096.215.215 0 0 0-.043.13v8.884c0 .048.016.092.045.13a.34.34 0 0 0 .16.094c.072.025.168.045.29.059.125.015.28.021.464.021.19 0 .346-.006.467-.021.12-.014.216-.034.289-.059a.308.308 0 0 0 .154-.093.191.191 0 0 0 .051-.131l-.002-8.883a.201.201 0 0 0-.049-.133.306.306 0 0 0-.154-.094 1.57 1.57 0 0 0-.291-.056 3.944 3.944 0 0 0-.465-.024zm-28.09.045a.18.18 0 0 0-.123.043.289.289 0 0 0-.088.131 1.046 1.046 0 0 0-.056.24c-.01.102-.016.226-.016.371 0 .141.006.262.016.364.014.096.032.177.056.24a.365.365 0 0 0 .088.13.18.18 0 0 0 .123.044h2.356v7.582c0 .048.015.092.045.13a.34.34 0 0 0 .16.094c.073.025.17.045.29.059.127.015.282.021.466.021.184 0 .335-.006.457-.021.126-.014.226-.034.299-.059a.3.3 0 0 0 .152-.093.191.191 0 0 0 .05-.131v-7.582h2.356a.167.167 0 0 0 .115-.043.314.314 0 0 0 .096-.131.958.958 0 0 0 .05-.24c.015-.102.022-.224.022-.364v-.002c0-.144-.006-.267-.021-.369a.849.849 0 0 0-.05-.24.263.263 0 0 0-.097-.13.173.173 0 0 0-.115-.044h-6.63zm18.313 0a.6.6 0 0 0-.406.145c-.107.092-.16.245-.16.459v8.199c0 .213.053.37.16.467a.615.615 0 0 0 .406.136h2.248c.833 0 1.549-.088 2.15-.267a3.944 3.944 0 0 0 1.541-.86c.422-.388.744-.887.967-1.498.227-.615.342-1.354.342-2.216 0-.747-.105-1.402-.313-1.97a3.695 3.695 0 0 0-.916-1.425 3.755 3.755 0 0 0-1.474-.873c-.582-.199-1.292-.297-2.131-.297h-2.414zm36.531 1.346c.165 0 .315.021.451.064a.895.895 0 0 1 .364.225c.106.102.194.24.267.414.077.175.14.389.19.64.053.253.093.55.117.895.024.339.037.732.037 1.178 0 .368-.01.704-.03 1.01-.014.305-.046.58-.095.822a3.34 3.34 0 0 1-.174.639 1.46 1.46 0 0 1-.277.459 1.048 1.048 0 0 1-.377.275 1.349 1.349 0 0 1-.502.088 1.3 1.3 0 0 1-.647-.152c-.179-.107-.326-.289-.443-.545-.111-.262-.195-.611-.248-1.047-.053-.442-.08-.998-.08-1.666 0-.548.022-1.028.066-1.44a4.1 4.1 0 0 1 .225-1.033c.111-.276.26-.481.443-.617.189-.14.426-.21.713-.21zm-19.709.057c.465 0 .854.08 1.164.24.31.154.556.377.74.668.19.286.323.634.4 1.04a7.1 7.1 0 0 1 .116 1.344c0 .452-.04.878-.121 1.28a2.966 2.966 0 0 1-.408 1.047c-.194.3-.449.538-.764.713-.315.174-.707.261-1.178.261-.47 0-.86-.074-1.17-.224a1.837 1.837 0 0 1-.742-.67 2.975 2.975 0 0 1-.392-1.047 7.57 7.57 0 0 1-.116-1.389c0-.441.038-.858.116-1.25.082-.398.222-.744.416-1.039.193-.296.446-.531.761-.705.315-.18.707-.27 1.178-.27zm-15.484.093h.967c.586 0 1.059.08 1.418.24.363.156.659.374.886.655.233.281.4.613.502.996.107.383.16.797.16 1.242 0 .543-.06 1.02-.181 1.426a2.616 2.616 0 0 1-.54 1.025c-.237.27-.535.476-.894.612s-.799.203-1.322.203h-.996v-6.399zm-41.19.3h.006l1.33 3.997h-2.666l1.33-3.998z"/></svg>
