<svg xmlns="http://www.w3.org/2000/svg" viewBox="0 0 128 128">
  <defs>
    <style>
      .a{fill:#68217a;}.b{isolation:isolate;}
    </style>
  </defs>
  <title>
    visualstudio
  </title>
  <path class="a" d="m17.6 53.27l5.31 2.14v17.18l-5.36 2.14-8.55-8.47-5.4 4.19-2.12-1.07v-10.76l2.14-1 5.38 4.21zm-14 7.55v6.52l3.24-3.34zm8.4 3.18l5.55 4.38v-8.74z"/>
  <g class="b">
    <path class="a" d="m40.53 57.52-4.79 12.94h-1.67l-4.7-12.94h1.69l3.58 10.26a6.13 6.13 0 0 1 0.26 1.15 5.6 5.6 0 0 1 0.3-1.16l3.7-10.25zM42.4 58.87 42.4 58.87"/>
    <path class="a" d="m42.4 58.87a0.94 0.94 0 0 1-0.68-0.27 0.91 0.91 0 0 1-0.28-0.69 0.95 0.95 0 0 1 1-1 1 1 0 0 1 0.69 0.28 1 1 0 0 1 0 1.37 1 1 0 0 1-0.73 0.31zm0.72 11.59h-1.48v-9.24h1.48z"/>
    <path class="a" d="m45 70.13v-1.59a4.38 4.38 0 0 0 2.66 0.89q2 0 2-1.3a1.12 1.12 0 0 0-0.17-0.63 1.65 1.65 0 0 0-0.49-0.5 3.42 3.42 0 0 0-0.67-0.36l-0.83-0.33a10.58 10.58 0 0 1-1.08-0.49 3.27 3.27 0 0 1-0.78-0.56 2.08 2.08 0 0 1-0.47-0.71 2.51 2.51 0 0 1-0.16-0.93 2.21 2.21 0 0 1 0.3-1.15 2.65 2.65 0 0 1 0.79-0.84 3.73 3.73 0 0 1 1.13-0.51 5 5 0 0 1 1.33-0.12 5.31 5.31 0 0 1 2.15 0.41v1.5a4.18 4.18 0 0 0-2.35-0.67 2.73 2.73 0 0 0-0.75 0.09 1.83 1.83 0 0 0-0.57 0.27 1.24 1.24 0 0 0-0.37 0.41 1.09 1.09 0 0 0-0.13 0.53 1.27 1.27 0 0 0 0.13 0.61 1.34 1.34 0 0 0 0.38 0.43 3 3 0 0 0 0.61 0.34l0.82 0.33a11.32 11.32 0 0 1 1.1 0.48 3.81 3.81 0 0 1 0.83 0.56 2.21 2.21 0 0 1 0.53 0.72 2.31 2.31 0 0 1 0.18 1 2.27 2.27 0 0 1-0.3 1.19 2.59 2.59 0 0 1-0.82 0.8 3.7 3.7 0 0 1-1.16 0.5 5.76 5.76 0 0 1-1.38 0.16 5.22 5.22 0 0 1-2.46-0.53z"/>
    <path class="a" d="m60.33 70.46h-1.49v-1.46a3 3 0 0 1-2.84 1.68q-3.3 0-3.3-3.94v-5.52h1.47v5.29q0 2.92 2.24 2.92a2.27 2.27 0 0 0 1.78-0.8 3.06 3.06 0 0 0 0.7-2.09v-5.32h1.48z"/>
    <path class="a" d="m69.38 70.46h-1.48v-1.46a3.1 3.1 0 0 1-2.9 1.68 3 3 0 0 1-2.16-0.73 2.53 2.53 0 0 1-0.77-1.95q0-2.59 3.05-3l2.77-0.39q0-2.36-1.9-2.36a4.55 4.55 0 0 0-3 1.14v-1.52a5.72 5.72 0 0 1 3.13-0.87q3.26 0 3.26 3.45zm-1.48-4.68-2.23 0.31a3.61 3.61 0 0 0-1.55 0.51 1.47 1.47 0 0 0-0.52 1.3 1.41 1.41 0 0 0 0.47 1.1 1.86 1.86 0 0 0 1.29 0.43 2.38 2.38 0 0 0 1.82-0.77 2.76 2.76 0 0 0 0.72-2z"/>
    <path class="a" d="m73.09 70.46h-1.48v-13.68h1.48z"/>
  </g>
  <g class="b">
    <path class="a" d="m77.72 69.94v-1.79a3.43 3.43 0 0 0 0.73 0.49 5.9 5.9 0 0 0 0.9 0.37 7.25 7.25 0 0 0 1 0.23 5.3 5.3 0 0 0 0.88 0.08 3.46 3.46 0 0 0 2.09-0.52 1.95 1.95 0 0 0 0.46-2.41 2.58 2.58 0 0 0-0.64-0.71 6.3 6.3 0 0 0-1-0.61l-1.2-0.62q-0.68-0.34-1.26-0.7a5.5 5.5 0 0 1-1-0.78 3.26 3.26 0 0 1-0.68-0.97 3.28 3.28 0 0 1 0.14-2.8 3.34 3.34 0 0 1 1-1.08 4.63 4.63 0 0 1 1.44-0.63 6.58 6.58 0 0 1 1.65-0.21 6.3 6.3 0 0 1 2.79 0.46v1.71a5.06 5.06 0 0 0-2.94-0.79 4.87 4.87 0 0 0-1 0.1 2.8 2.8 0 0 0-0.88 0.34 2 2 0 0 0-0.63 0.6 1.61 1.61 0 0 0-0.24 0.9 1.87 1.87 0 0 0 0.19 0.86 2.1 2.1 0 0 0 0.55 0.66 5.37 5.37 0 0 0 0.88 0.58l1.2 0.61q0.69 0.34 1.32 0.72a6.05 6.05 0 0 1 1.09 0.84 3.75 3.75 0 0 1 0.74 1 2.85 2.85 0 0 1 0.28 1.28 3.26 3.26 0 0 1-0.37 1.62 3.07 3.07 0 0 1-1 1.08 4.42 4.42 0 0 1-1.47 0.6 8 8 0 0 1-1.75 0.19 7.25 7.25 0 0 1-0.76 0c-0.3 0-0.61-0.08-0.92-0.14a7.65 7.65 0 0 1-0.89-0.23 2.77 2.77 0 0 1-0.7-0.33zM91.36 70.37 91.36 70.37"/>
    <path class="a" d="m91.36 70.37a2.86 2.86 0 0 1-1.38 0.29q-2.43 0-2.43-2.71v-5.47h-1.55v-1.26h1.59v-2.22l1.41-0.52v2.73h2.33v1.26h-2.33v5.21a2.16 2.16 0 0 0 0.34 1.32 1.26 1.26 0 0 0 1 0.4 1.55 1.55 0 0 0 1-0.31z"/>
    <path class="a" d="m100.53 70.46h-1.48v-1.46a3 3 0 0 1-2.85 1.68q-3.3 0-3.3-3.94v-5.52h1.47v5.29q0 2.92 2.24 2.92a2.27 2.27 0 0 0 1.78-0.8 3.06 3.06 0 0 0 0.7-2.09v-5.32h1.48v9.24z"/>
    <path class="a" d="m111.13 70.46h-1.48v-1.57a3.42 3.42 0 0 1-3.18 1.79 3.45 3.45 0 0 1-2.79-1.24 5.1 5.1 0 0 1-1-3.38 5.54 5.54 0 0 1 1.16-3.67 3.81 3.81 0 0 1 3-1.39 3 3 0 0 1 2.77 1.5v-5.72h1.48zm-1.48-4.18v-1.36a2.65 2.65 0 0 0-0.74-1.9 2.48 2.48 0 0 0-1.88-0.78 2.56 2.56 0 0 0-2.13 1 4.35 4.35 0 0 0-0.78 2.74 3.91 3.91 0 0 0 0.74 2.52 2.43 2.43 0 0 0 2 0.92 2.53 2.53 0 0 0 2-0.89 3.33 3.33 0 0 0 0.79-2.25z"/>
    <path class="a" d="m114.61 58.87a0.93 0.93 0 0 1-0.68-0.27 0.91 0.91 0 0 1-0.28-0.69 1 1 0 0 1 1-1 1 1 0 0 1 0.69 0.28 1 1 0 0 1 0 1.37 1 1 0 0 1-0.73 0.31zm0.72 11.59h-1.48v-9.24h1.48z"/>
    <path class="a" d="m121.91 70.68a4.29 4.29 0 0 1-3.27-1.3 4.8 4.8 0 0 1-1.22-3.43 5 5 0 0 1 1.27-3.64 4.58 4.58 0 0 1 3.44-1.31 4.14 4.14 0 0 1 3.23 1.27 5 5 0 0 1 1.16 3.53 5 5 0 0 1-1.25 3.54 4.38 4.38 0 0 1-3.36 1.34zm0.11-8.43a2.82 2.82 0 0 0-2.26 1 4 4 0 0 0-0.83 2.68 3.77 3.77 0 0 0 0.84 2.59 2.85 2.85 0 0 0 2.25 0.95 2.71 2.71 0 0 0 2.21-0.93 4 4 0 0 0 0.77-2.64 4.11 4.11 0 0 0-0.77-2.67 2.69 2.69 0 0 0-2.23-0.98z"/>
  </g>
</svg>
