<svg xmlns="http://www.w3.org/2000/svg" viewBox="0 0 128 128"><path fill="#68b604" d="M6.125 9.734c-.338 0-.62.025-.835.215-.214.191-.27.484-.267.849.031 3.761.015 7.514.015 11.28 0 .268 0 .47.02.645.02.175.064.344.192.468.127.125.293.166.47.185.176.018.384.017.655.017 9.218.001 18.435-.002 27.652.002.22 0 .53.031.815.056L0 70.988l1.06.06h.007c17.494.001 34.986-.002 52.478.018.391 0 .693-.086.87-.315.176-.23.188-.507.186-.819-.018-3.82-.03-7.54.01-11.357v-.002c.003-.42-.048-.744-.29-.951-.241-.207-.558-.224-.974-.223-8.417.03-16.83.211-25.241.211h-.722c11.526-16.174 22.898-31.579 34.35-47.274l.263-.363-.448-.031c-.347-.024-.492-.148-.786-.148-18.213-.002-36.424-.046-54.638-.06Zm0 .497c18.213.014 36.425.058 54.638.06.037 0 .236.037.34.066-11.469 15.717-22.858 31.139-34.41 47.358l-.28.392h1.693c8.418 0 16.832-.182 25.243-.211.389-.001.582.048.648.104.066.057.12.194.117.569a746.188 746.188 0 0 0-.01 11.365c.002.285-.033.451-.081.514-.05.064-.151.121-.476.12h-.002c-17.488-.02-34.975-.016-52.464-.017h-.014l-.126-.008 34.833-47.525-.447-.03c-.55-.04-.915-.09-1.3-.09-9.217-.004-18.434 0-27.652-.002-.272 0-.472 0-.601-.013-.13-.014-.168-.039-.177-.047-.008-.008-.032-.041-.046-.167a6.277 6.277 0 0 1-.016-.592c0-3.764.016-7.517-.015-11.283-.003-.31.047-.424.1-.472.054-.048.204-.091.505-.091Zm120.313.291c-16.5.001-33-.018-49.503.035-1.846.007-3.743.195-5.54.658-6.502 1.668-11.648 8.772-11.399 15.512l-.002.01c.008.206.041.37.124.506a.591.591 0 0 0 .356.258c.259.064.474-.002.654-.002H86.46c4.258 0 8.522.12 12.792.094 4.64-.028 9.302.126 13.952-.15 4.868-.289 8.788-2.582 11.47-6.738 1.805-2.8 2.6-5.91 2.992-9.147.03-.245.017-.443-.052-.613a.662.662 0 0 0-.354-.355c-.29-.12-.579-.068-.823-.068zm0 .497c.282 0 .536-.011.632.029.049.02.063.03.086.085.022.055.04.17.017.365-.387 3.195-1.166 6.222-2.917 8.937-2.607 4.042-6.351 6.23-11.081 6.512-4.62.274-9.271.121-13.925.149-4.258.026-8.522-.093-12.79-.093H61.128c-.256 0-.468.034-.536.017-.034-.008-.03-.006-.049-.035a.619.619 0 0 1-.052-.266v-.002c-.243-6.474 4.794-13.421 11.027-15.021 1.748-.45 3.606-.635 5.419-.642 16.501-.053 33-.034 49.5-.035zm-25.176 21.069c-8.356-.002-16.711-.007-25.066.003-2.725.003-5.364.536-7.775 1.86v-.002c-5.594 3.065-7.756 8.23-8.411 14.192-.024.22-.014.403.046.563.06.16.18.287.313.357.266.14.546.115.811.115 4.399-.008 8.796-.004 13.195-.004 1.492 0 2.99.022 4.49-.004 3.277-.055 6.59.07 9.876-.254 4.307-.427 7.832-2.54 10.32-6.143 1.956-2.83 2.93-6.016 3.269-9.405.024-.244.045-.43.048-.592.003-.16-.008-.316-.112-.454-.105-.137-.266-.19-.423-.211-.158-.021-.34-.021-.58-.022zm0 .496c.239 0 .411.004.513.018.101.014.102.029.095.02-.007-.01.014.023.011.143-.002.12-.022.305-.046.553-.332 3.326-1.283 6.42-3.183 9.17-2.416 3.498-5.785 5.517-9.96 5.93-3.24.322-6.541.198-9.838.253-1.489.026-2.982.004-4.479.004-4.399 0-8.796-.004-13.195.004-.271 0-.495-.012-.578-.056-.042-.022-.059-.037-.08-.093a.76.76 0 0 1-.02-.334c.647-5.877 2.722-10.832 8.158-13.81 2.326-1.278 4.875-1.795 7.536-1.798 8.354-.01 16.71-.005 25.066-.004zM84.517 53.558c-2.539.016-5.086-.024-7.634.021-1.196.02-2.39.123-3.571.307-4.632.722-7.838 3.036-9.935 5.99-2.097 2.952-3.094 6.535-3.371 9.833-.027.324.013.606.208.801.194.195.47.24.79.233 1.435-.029 2.874-.013 4.318-.011l.004.095.25-.01c2.057-.092 4.15-.035 6.222-.303 7.813-1.007 13.766-8.044 13.707-16.022v-.002c-.002-.326-.071-.592-.271-.756-.2-.163-.446-.178-.715-.176zm.005.497c.234-.002.356.032.397.066.041.033.087.113.09.37v.003c.057 7.73-5.72 14.554-13.273 15.527h-.002c-1.939.25-3.935.21-5.931.288l-.002-.074h-.24c-1.52 0-3.042-.02-4.567.011-.264.006-.385-.04-.43-.085-.044-.044-.085-.15-.063-.411.27-3.228 1.252-6.73 3.282-9.588 2.03-2.858 5.097-5.082 9.604-5.785 1.16-.18 2.33-.28 3.503-.3 2.539-.045 5.084-.006 7.631-.022zM31.258 84.742c-.243-.006-.464.027-.617.19-.154.163-.172.372-.171.598.015 3.258.008 6.516.006 9.773-1.658-3.322-3.317-6.641-4.963-9.967-.09-.184-.198-.345-.365-.456a.947.947 0 0 0-.601-.134c-.486.036-.98.032-1.47 0-.233-.015-.454.007-.615.165-.16.158-.189.373-.188.611.018 4.115.01 8.232.01 12.347 0 .285-.002.501.02.685.02.184.068.356.201.483.132.128.305.172.491.192.186.02.407.02.697.024.232.002.446-.037.588-.202.141-.165.152-.36.151-.575-.014-3.558-.021-7.117-.023-10.675 1.694 3.36 3.426 6.7 5.05 10.085.233.488.49.879.86 1.128.37.25.837.33 1.408.24.148-.023.261-.035.363-.054a.6.6 0 0 0 .307-.124.511.511 0 0 0 .159-.32c.016-.11.016-.224.016-.378V86.079c0-.27 0-.475-.02-.65-.02-.175-.065-.342-.19-.466s-.289-.167-.462-.188c-.173-.022-.377-.026-.642-.033zm-18.866.004c-.231-.002-.44.02-.6.174-.16.156-.19.37-.188.606.015 4.31.015 8.622 0 12.933 0 .23.026.442.18.602.155.16.37.19.606.188 2.336-.017 4.672-.003 7.012-.01.278 0 .475.01.634.006.16-.003.32-.011.452-.142.132-.13.142-.287.15-.448.008-.16.003-.36.013-.638.01-.256-.03-.49-.2-.645-.17-.155-.388-.175-.624-.172-1.895.02-3.792 0-5.693.015-.169.001-.231-.029-.238-.035-.007-.006-.038-.045-.035-.223.024-1.422.011-2.843.011-4.26.075.044.15.101.291.101h4.738c.27 0 .482-.01.666-.056a.764.764 0 0 0 .452-.29c.205-.295.171-.646.176-1.177.003-.217-.017-.426-.145-.606s-.363-.273-.617-.27c-1.782.022-3.573-.05-5.372-.039-.134.001-.166-.023-.17-.027-.002-.003-.03-.043-.026-.186.021-1.025.02-2.05-.002-3.076-.003-.16.025-.206.029-.21.004-.004.05-.032.211-.03 1.733.017 3.465.001 5.194.001.279 0 .491.003.671-.017.18-.02.349-.066.476-.194.127-.129.169-.297.188-.476.019-.178.018-.387.02-.662 0-.218-.034-.423-.187-.568-.153-.145-.35-.167-.56-.165a570.16 570.16 0 0 1-7.513-.004zm23.413 0c-.235-.008-.452.014-.613.17-.161.157-.19.375-.189.612.02 2.154.009 4.31.01 6.466 0 2.172.002 4.342-.004 6.514 0 .153-.007.32.1.489.105.17.327.254.562.248h.002c1.612-.047 3.245.002 4.877-.136 2.02-.17 3.61-1.221 4.654-2.97 1.087-1.82 1.274-3.803.93-5.83-.516-3.03-2.696-5.227-6.092-5.456-1.421-.097-2.839-.056-4.237-.107zM9.2 84.748c-2.488.015-4.977.008-7.468.008-.268 0-.472-.002-.646.017-.174.02-.34.064-.464.19s-.167.29-.188.464c-.021.174-.022.378-.027.646-.003.112.001.21.027.307a.5.5 0 0 0 .17.266c.175.133.353.119.563.116 1.994-.02 3.982-.085 5.966-.085h.19c-.037.098-.086.219-.075.204-2.145 3.095-4.273 6.236-6.442 9.307-.472.67-.738 1.384-.692 2.228.013.252.048.47.211.633.163.163.386.194.637.192 2.637-.02 5.28 0 7.924 0h.248v-.008c.125-.001.266.002.365-.01.166-.018.326-.06.446-.182.12-.121.16-.28.18-.444.02-.164.024-.355.03-.606.006-.241-.03-.463-.192-.617-.163-.154-.373-.177-.602-.174-2.154.016-4.31.01-6.466.005-.047 0-.13-.015-.185-.02l.072-.11.002-.002.002-.004c2.155-3.102 4.296-6.216 6.482-9.29v-.002c.494-.697.772-1.42.71-2.298-.015-.223-.05-.423-.205-.568-.155-.146-.356-.165-.573-.163Zm22.043.49c.267.008.466.014.594.03.128.016.164.04.173.048.009.01.032.043.046.17.015.125.018.323.018.593v12.299c0 .151-.005.257-.012.308-.007.052-.006.027.012.012.017-.015.002 0-.072.013-.074.014-.194.028-.351.053-.491.076-.8.01-1.056-.161-.255-.172-.473-.478-.69-.93-1.673-3.49-3.457-6.927-5.195-10.379l-.005-.01-.303-.499-.491.115v.734c.001 3.614.01 7.23.023 10.845a.636.636 0 0 1-.03.248c-.002.001-.032.03-.209.03a7.827 7.827 0 0 1-.648-.022c-.14-.016-.187-.042-.2-.055-.013-.012-.037-.048-.052-.182a6.72 6.72 0 0 1-.016-.629c0-4.114.008-8.232-.01-12.349 0-.186.034-.25.04-.256.005-.005.054-.033.234-.021.51.033 1.027.036 1.54-.002.154-.012.227.011.289.052.06.04.124.12.196.264 1.668 3.371 3.349 6.735 5.028 10.102l.002.002.332.62.489-.056.016-.205.036-.505v-.01c.002-3.324.01-6.65-.006-9.977 0-.183.03-.247.037-.254.007-.007.057-.039.241-.035zm4.543.003c1.42.052 2.832.014 4.221.108 3.202.216 5.15 2.198 5.634 5.044.331 1.945.156 3.786-.863 5.493-.976 1.634-2.397 2.568-4.272 2.726-1.593.135-3.217.088-4.848.136-.145.004-.127-.011-.13-.015a.856.856 0 0 1-.023-.223c.006-2.173.004-4.344.004-6.515-.001-2.156.009-4.314-.01-6.473-.002-.185.031-.24.039-.248.008-.008.065-.04.248-.033zm-23.4.002c2.507.019 5.012.017 7.52.004h.001c.163-.002.213.026.216.029.002.002.031.041.03.205 0 .276-.003.48-.017.612-.014.131-.037.169-.046.178-.01.01-.045.034-.177.049a6.68 6.68 0 0 1-.617.015c-1.732 0-3.463.016-5.19-.002-.213-.001-.416.027-.566.177-.15.15-.18.355-.175.572.022 1.018.023 2.037.002 3.055-.004.204.027.398.167.542.14.144.334.18.53.178 1.784-.01 3.574.061 5.374.04.156-.003.18.023.205.06.026.036.056.143.055.314-.006.534-.037.822-.09.898-.026.038-.053.062-.163.09a2.5 2.5 0 0 1-.545.042h-4.737c.018 0-.037-.014-.125-.064s-.216-.13-.4-.122l-.209.008-.054.442v.016c-.001 1.46.013 2.914-.012 4.366-.004.238.037.456.198.602.161.146.364.165.576.163 1.895-.015 3.793.004 5.695-.016.191-.002.27.03.283.043.014.013.046.064.039.258-.01.293-.007.504-.014.635-.006.13-.032.147-.004.118.029-.028.018-.004-.11-.002-.128.003-.335-.006-.625-.006h-.249c-2.254.006-4.51-.006-6.767.01h-.002c-.184.002-.235-.028-.243-.037-.008-.008-.04-.073-.04-.254v-.002c.014-4.311.014-8.624 0-12.935-.001-.188.031-.241.036-.247.006-.005.064-.036.25-.035zm-3.182.002c.175-.002.223.025.227.029.004.004.04.058.052.24.054.76-.167 1.336-.62 1.976-2.191 3.08-4.333 6.2-6.489 9.302l-.002.002-.516.79.398.046c.236.029.423.072.64.072 2.156.004 4.314.011 6.471-.006.183-.001.247.03.256.04.01.008.041.058.037.244-.006.252-.01.438-.025.557-.015.119-.037.15-.04.155-.005.004-.033.024-.15.037a5.952 5.952 0 0 1-.557.015h-.249c-2.558 0-5.12-.019-7.68 0-.202.002-.263-.029-.28-.046C.66 98.68.62 98.6.608 98.389c-.04-.73.174-1.304.604-1.913 2.172-3.077 4.301-6.22 6.443-9.312v-.002c.105-.151.165-.4.165-.4l-.056-.582h-.63c-1.996 0-3.987.065-5.973.085-.187.003-.26-.024-.248-.013a.761.761 0 0 1-.01-.17c.006-.268.008-.469.024-.597.015-.128.04-.164.048-.173.008-.008.04-.03.165-.044.125-.014.324-.016.592-.016 2.49 0 4.981.007 7.472-.008zm29.957 1.08c-.699-.028-1.395.01-2.076.004l-.208-.002-.08.443v.023c-.003 3.447-.003 6.896-.011 10.34 0 .186.049.37.192.484.143.114.304.12.454.112.87-.036 1.756-.027 2.645-.103 1.949-.166 3.561-1.526 4.097-3.408.337-1.178.379-2.378.183-3.574-.302-1.84-1.287-3.245-3.094-3.932-.7-.266-1.402-.358-2.102-.386zm-.025.5c.668.026 1.32.113 1.95.353 1.658.63 2.499 1.83 2.78 3.545.185 1.133.146 2.257-.17 3.36-.48 1.69-1.917 2.9-3.661 3.049-.86.073-1.736.063-2.624.1h-.002c-.105.005-.136-.014-.122-.003.013.01-.005.018-.004-.093v-.002c.008-3.435.007-6.873.011-10.308.625-.001 1.242-.026 1.842-.002zm52.835 16.414c-1.528.186-2.884.768-3.947 1.927-1.45 1.582-1.864 3.52-1.932 5.547v.02l.003.019c.08.693.107 1.416.26 2.135.478 2.268 1.698 4.05 3.953 4.933 1.039.406 2.114.463 3.179.443 2.678-.051 4.935-1.604 5.845-4.127.79-2.188.796-4.434.068-6.627-.657-1.992-2.039-3.406-4.093-4.014-1.091-.325-2.206-.392-3.336-.256zm-9.498.245c-.236-.01-.45.042-.6.182-.15.14-.206.324-.246.516-.488 2.355-.987 4.708-1.485 7.06-.066.313-.138.624-.208.936-.634-2.694-1.27-5.387-1.888-8.083-.044-.193-.122-.363-.27-.474-.147-.11-.324-.132-.5-.13h-.002c-.818.012-1.636.024-2.446-.006-.222-.008-.43.033-.586.161-.157.129-.233.313-.281.515-.545 2.28-1.103 4.558-1.662 6.835-.097.396-.201.792-.304 1.188-.056-.259-.114-.518-.165-.776v-.002c-.492-2.445-.977-4.891-1.481-7.336v-.002a.72.72 0 0 0-.18-.34c-.083-.096-.157-.206-.367-.212H69.8c-1.065-.028-2.125-.015-3.212-.015h-.282l.086.699.004.015c1.093 4.405 2.188 8.81 3.278 13.217.038.154.1.304.23.413.132.11.304.145.482.142h.002a54.35 54.35 0 0 1 2.855.004c.218.007.42-.025.578-.15.158-.125.235-.308.283-.512v-.002c.54-2.249 1.097-4.494 1.652-6.74.055-.222.118-.447.179-.67.637 2.473 1.279 4.943 1.898 7.421.048.194.116.37.266.495.149.126.345.161.555.156a58.843 58.843 0 0 1 2.812 0c.191.005.374-.02.526-.132.151-.113.232-.285.28-.478l3.263-13.174h.002s.035-.188.03-.283a.461.461 0 0 0-.115-.276c-.143-.152-.321-.154-.487-.153-.837.006-1.67.025-2.492-.01zm-25.985.002c-.248-.002-.47.042-.615.211-.145.17-.157.373-.155.592.018 2.154.008 4.31.008 6.465v6.513c0 .117-.027.262.056.439a.485.485 0 0 0 .223.22.715.715 0 0 0 .326.061c2.868-.013 5.737-.009 8.605 0 .181 0 .363-.043.48-.182.116-.14.127-.302.124-.455-.012-.576-.026-1.15.004-1.71.013-.23-.027-.45-.188-.591-.161-.142-.356-.154-.56-.152-1.65.017-3.304 0-4.962.014-.15.001-.2-.028-.202-.03-.001 0-.026-.03-.021-.182a51.38 51.38 0 0 0-.002-2.748c-.006-.174.024-.228.027-.23.003-.004.052-.035.23-.032h.001c1.493.022 2.98 0 4.464.016.2.002.392-.025.534-.169.142-.144.166-.339.159-.536a21.822 21.822 0 0 1 0-1.663v-.002c.008-.211-.025-.418-.177-.559-.152-.142-.346-.162-.55-.159-1.437.017-2.627.008-4.07.008-.076 0-.092 0-.139-.002.014-.086.03-.191.03-.336v-1.366c0-.129-.01-.257-.03-.384.055-.002.09-.004.193-.004 1.595-.001 3.06-.012 4.652.006.218.003.43-.035.56-.204.132-.17.124-.353.113-.555-.029-.517-.065-1.026-.031-1.518v-.002c.016-.247-.04-.48-.212-.619-.098-.08-.223-.069-.34-.087v-.068h-.248c-2.762.016-5.525.016-8.287 0zm59.655 0c-.236-.01-.457.011-.625.167-.169.156-.207.382-.206.636.018 4.312.012 8.622 0 12.935 0 .211.01.409.154.575.143.165.364.203.603.194a29.627 29.627 0 0 1 2.347-.002c.225.008.438-.006.605-.157.168-.152.204-.375.198-.621-.03-1.157.033-2.331-.027-3.515-.025-.494.251-.823.543-1.192l.04.05c1.032 1.567 2.078 3.122 3.077 4.705.154.242.325.44.55.569.225.129.49.18.795.165 1.072-.05 2.158-.016 3.346-.016H128l-.656-1.017-.002-.002c-1.466-2.158-2.927-4.32-4.41-6.47-.09-.13-.114-.206-.114-.258 0-.053.022-.12.117-.245 1.392-1.823 2.762-3.658 4.14-5.488l.75-.998h-.498c-1.31 0-2.521-.01-3.736.016-.175.003-.282.09-.373.17-.091.08-.166.17-.223.25-1.024 1.434-2.036 2.874-3.051 4.311l-.002.002-.648.957c-.003-1.66-.055-3.313-.033-4.959.003-.237-.043-.457-.208-.603-.164-.146-.372-.165-.592-.157a32.49 32.49 0 0 1-2.315-.002zm-114.458.002c-.222-.001-.43.036-.572.192-.142.156-.16.35-.16.557.017 2.17.009 4.341.009 6.513 0 2.157.009 4.314-.008 6.468-.002.21.005.407.147.575.142.168.365.208.608.198a29.518 29.518 0 0 1 2.395 0c.242.01.464-.029.607-.196.143-.168.152-.368.15-.578-.02-1.696 0-3.396-.016-5.1-.001-.163.029-.214.031-.216.002-.002.04-.031.204-.03h.002l4.372.018c.213.003.414-.03.557-.18.144-.15.166-.348.157-.55a18.436 18.436 0 0 1 .002-1.616c.012-.227-.025-.441-.184-.584-.159-.143-.356-.162-.563-.16h-.002l-4.326.016h-.002c-.162.002-.224-.029-.227-.031-.002-.002-.03-.027-.021-.19.03-.576.008-1.142.008-1.696 0-.153 0-.264.007-.326.007-.063.018-.058-.001-.037-.02.02-.032.012.027.006.104-.008.21-.01.314-.008 1.55-.002 3.097-.01 4.642.006.212.002.414-.013.583-.156.167-.141.214-.37.2-.613v-.004c.049-.688-.035-1.347-.14-1.993-.02-.031-.003-.08-.031-.107-.152-.15-.356-.18-.573-.178-2.732.013-5.464.013-8.196 0zm27.984 0c-.204-.004-.397.032-.55.147-.153.115-.236.283-.298.472v.002c-1.232 3.77-2.481 7.536-3.728 11.3-.157.472-.335.977-.514 1.5l-3.923-5.059.076-.052c1.322-.775 2.237-1.904 2.406-3.497.104-.97.02-1.874-.376-2.647-.396-.773-1.103-1.397-2.176-1.803h-.002l-.002-.002a5.297 5.297 0 0 0-1.721-.317h-.002c-2.053-.042-4.105-.024-6.15-.042-.186-.002-.371.009-.528.141-.157.133-.202.338-.202.561.012 4.372.012 8.745 0 13.118 0 .208.04.407.192.54.152.131.333.14.516.135h.002c.8-.023 1.6-.023 2.4.002.224.008.436-.004.603-.155.167-.152.203-.375.198-.621-.028-1.391-.014-2.788-.004-4.184 0-.054.008-.13.023-.183.014-.051.039-.067.006-.045.046-.03.295-.064.542-.004.246.061.486.206.54.28 1.106 1.486 2.204 2.976 3.327 4.452.173.228.431.434.769.437 2.174.024 4.346.008 6.515.021.18.001.351-.038.48-.147a.768.768 0 0 0 .226-.402l.612-2.094v-.002c.034-.126.071-.177.107-.204.035-.027.093-.05.227-.048 1.186.015 2.373.015 3.559 0 .135-.002.184.02.215.046.032.027.07.087.105.22a37.1 37.1 0 0 0 .639 2.1c.04.119.106.217.19.308.083.091.17.195.367.2 1.049.026 2.097.015 3.179.015h.298l-.122-.646-.006-.016c-1.466-4.423-2.935-8.85-4.392-13.28-.056-.17-.142-.323-.283-.421a.797.797 0 0 0-.477-.124h-.002c-.954.016-1.907.015-2.861-.002zm19.926 0c-.203-.004-.394.026-.557.13-.164.103-.276.264-.36.46-.79 1.852-1.608 3.694-2.417 5.542l-.22.472-.048-.097c-.873-1.98-1.75-3.959-2.609-5.943a.958.958 0 0 0-.31-.42.87.87 0 0 0-.528-.142 97.994 97.994 0 0 1-3.043.002c-.184-.003-.369.005-.528.135-.16.131-.208.34-.208.565.014 4.372.012 8.744 0 13.118v.002c0 .206.038.402.189.535.15.134.335.146.52.14a33.62 33.62 0 0 1 2.216.002c.228.01.45-.007.642-.134.194-.127.305-.37.303-.642-.02-2.448.096-4.906.12-7.371.564 1.385 1.102 2.768 1.664 4.167.082.204.178.38.345.5.168.12.38.155.61.138.437-.032.867-.023 1.317-.002a.807.807 0 0 0 .51-.126.888.888 0 0 0 .3-.415c.404-1.01.829-2.014 1.25-3.022l.663-1.605c.001 2.58.014 5.16 0 7.74 0 .21.009.407.152.574.142.167.366.21.609.2a32.59 32.59 0 0 1 2.352-.002h.002c.199.006.391-.01.545-.148.155-.137.193-.34.193-.555-.01-4.357-.007-8.716.002-13.074 0-.203-.028-.398-.171-.546-.143-.148-.343-.182-.553-.178-.984.02-1.968.02-2.952 0zm52.681.002c-.188-.002-.374.011-.53.145-.155.135-.198.338-.197.56.013 4.37.012 8.743 0 13.115 0 .204.034.4.184.533.15.134.334.147.52.142h.002a38.47 38.47 0 0 1 2.44.004c.24.01.462-.026.607-.192.145-.166.155-.367.151-.58-.02-1.409-.009-2.818 0-4.23v-.001c0-.054.007-.108.02-.161.011-.043.029-.051-.002-.03.021-.014.28-.054.528.003.248.056.49.201.524.246 1.105 1.486 2.212 2.968 3.307 4.46.222.302.545.497.958.485 1.04-.025 2.085-.009 3.135-.01h.008l.984-.054-4.71-6.08-.003-.003c1.448-.815 2.375-2.046 2.51-3.763.127-1.614-.37-3.043-1.902-3.932-.743-.429-1.56-.606-2.385-.619-2.052-.03-4.102-.02-6.147-.039zm-10.245.242c1.072-.13 2.114-.064 3.134.241h.002c1.915.566 3.147 1.827 3.762 3.691.695 2.097.691 4.218-.063 6.306-.844 2.338-2.895 3.749-5.389 3.796-1.04.02-2.043-.04-2.987-.408h-.002c-2.102-.824-3.191-2.418-3.646-4.574-.139-.654-.17-1.355-.25-2.063.066-1.967.453-3.753 1.796-5.219.978-1.066 2.202-1.594 3.643-1.77zm-9.577.249c.843.035 1.683.015 2.515.01.103-.001.107.007.099-.004 0 .02 0 .046-.014.1-1.098 4.389-2.186 8.78-3.264 13.174-.034.137-.069.178-.093.196-.025.019-.08.04-.22.037a59.28 59.28 0 0 0-2.835 0h-.002c-.15.004-.198-.019-.223-.04-.026-.022-.064-.082-.101-.233v-.002c-.642-2.572-1.31-5.134-1.97-7.697l-.002-.006-.167-.54-.487-.072-.056.214c-.12.446-.247.893-.36 1.349-.555 2.246-1.113 4.494-1.653 6.746-.037.155-.078.214-.109.238-.03.025-.092.05-.254.045h-.002c-.96-.026-1.92-.028-2.88-.004h-.002c-.107.002-.138-.016-.151-.027-.014-.012-.04-.05-.066-.153-1.09-4.405-2.185-8.81-3.278-13.213v-.004l-.012-.095c.99-.002 1.96-.012 2.921.014-.101-.003-.035-.004.004.04.039.045.07.118.07.113v.002c.503 2.443.989 4.89 1.48 7.336.103.515.219 1.022.327 1.527l.04.188.526.024.05-.194c.166-.643.338-1.286.498-1.935.558-2.278 1.116-4.558 1.66-6.84.037-.151.08-.215.115-.244.036-.029.095-.054.253-.049.827.03 1.651.018 2.47.006h.002c.129-.002.177.017.196.031.02.015.051.052.082.187.644 2.813 1.309 5.622 1.97 8.43l.002.004c.039.212.14.407.293.56l.32.318.099-.44c.128-.574.26-1.151.384-1.732.498-2.353.995-4.707 1.483-7.062.032-.153.07-.227.1-.255.03-.028.079-.055.241-.048zm-25.97.002h.002c2.68.016 5.36.014 8.04 0v.004l.251-.002c.173-.001.26.029.274.04.014.012.04.036.029.204-.037.537 0 1.066.03 1.578.009.172-.02.239-.009.225.01-.013 0 .012-.163.01-1.596-.018-3.065-.007-4.657-.006-.166 0-.273-.004-.379.012a.419.419 0 0 0-.176.062.36.36 0 0 0-.14.194c-.035.137-.003.199.01.285.012.086.025.19.025.332v1.366c0 .129-.012.22-.026.297-.013.077-.043.128-.019.26.017.08.063.152.128.202.052.035.11.057.173.064.1.015.198.012.35.012 1.44 0 2.633.009 4.077-.008h.002c.154-.003.204.028.204.027-.001 0 .025.025.019.175v.002a22.288 22.288 0 0 0 0 1.702c.004.136-.02.17-.018.167.004-.003-.03.023-.174.021-1.492-.017-2.98.006-4.462-.015-.23-.006-.443.024-.596.182-.153.157-.174.367-.167.59.025.906.026 1.814.002 2.72-.006.214.029.419.179.56.15.141.345.164.545.163 1.652-.014 3.307.003 4.965-.014a.572.572 0 0 1 .225.027c0 .001.028.025.02.19v.003c-.032.586-.017 1.17-.005 1.746.002.109-.019.14-.008.126.012-.013.013.004-.099.004-2.869-.009-5.74-.013-8.609 0a.275.275 0 0 1-.095-.01c0-.008-.01-.085-.01-.213v-6.513c0-2.154.01-4.31-.007-6.469-.002-.182.028-.255.035-.264.007-.008.045-.04.235-.038zm59.641 0c.784.028 1.569.03 2.353.002.17-.006.236.023.246.033.01.009.041.051.039.225-.023 1.708.033 3.408.033 5.104v.65l.438.179 1.114-1.64.004-.004c1.015-1.437 2.026-2.876 3.048-4.305v-.002c.04-.055.096-.122.145-.165.05-.043.092-.047.052-.046h.003c1.043-.023 2.112-.016 3.227-.014l-.15.2c-1.377 1.83-2.75 3.666-4.14 5.486-.128.17-.216.348-.216.544 0 .196.084.37.201.541 1.481 2.147 2.943 4.31 4.41 6.469l.157.244c-1.001-.006-1.965-.028-2.915.016-.241.011-.395-.024-.524-.1-.13-.074-.248-.2-.378-.405h.002c-1.008-1.596-2.062-3.157-3.096-4.726l-.004-.006-.47-.617-.2.224c-.462.518-.849 1.068-.809 1.853.059 1.148-.004 2.319.027 3.501.005.19-.029.237-.035.243-.006.006-.07.036-.252.029a30.013 30.013 0 0 0-2.385 0c-.18.007-.209-.02-.21-.022a.708.708 0 0 1-.03-.248v-.002c.011-4.313.017-8.624 0-12.937v-.002c-.002-.2.034-.257.046-.268.012-.01.08-.042.27-.035zm-114.443.002c2.733.013 5.468.013 8.201 0 .162-.001.216.031.221.037.02.018.026 1.77.026 1.773v.004c.01.174-.017.2-.026.206-.008.007-.085.039-.256.037-1.55-.016-3.101-.008-4.65-.006-.149 0-.264 0-.372.012a.521.521 0 0 0-.326.141.532.532 0 0 0-.132.328c-.012.11-.012.228-.012.38 0 .568.021 1.127-.008 1.672-.011.229.028.446.188.588.161.141.358.157.563.155l4.326-.016a.53.53 0 0 1 .23.031c.002.003.029.03.02.19v.003a18.94 18.94 0 0 0-.001 1.661c.005.144-.022.185-.022.184 0 0-.036.03-.192.027l-4.37-.017h-.002c-.22-.003-.425.03-.57.182-.147.153-.17.353-.168.563.016 1.698-.004 3.4.016 5.102a.646.646 0 0 1-.03.249c-.001.002-.03.033-.209.025a29.983 29.983 0 0 0-2.436 0c-.18.007-.207-.023-.21-.025a.662.662 0 0 1-.028-.249c.017-2.158.007-4.316.007-6.472 0-2.17.009-4.344-.007-6.517-.002-.162.027-.217.029-.22.002-.001.036-.03.202-.028zm27.977 0c.962.02 1.92.014 2.878.002.115-.002.161.017.187.035.025.018.059.054.097.169 1.455 4.425 2.923 8.847 4.388 13.267l.004.02c-.975.002-1.926.01-2.865-.013.08.002.026.004-.013-.039a.537.537 0 0 1-.086-.132c-.23-.684-.44-1.374-.63-2.07-.05-.18-.122-.349-.266-.47-.144-.121-.335-.166-.54-.163a136.09 136.09 0 0 1-3.546 0c-.199-.003-.386.035-.535.15-.15.113-.235.283-.286.47l-.609 2.09v.001c-.029.106-.057.145-.072.157-.015.012-.043.03-.155.03-.9-.005-1.8-.009-2.7-.01.241-.705.453-1.309.654-1.914 1.247-3.765 2.496-7.531 3.729-11.303.047-.143.09-.203.128-.23.037-.029.094-.05.238-.047zm19.926 0c.99.02 1.98.02 2.971 0 .151-.003.184.024.187.027.002.002.03.048.03.2-.008 4.358-.011 8.716-.001 13.074 0 .155-.028.185-.028.185s-.047.025-.2.021a33.129 33.129 0 0 0-2.386.002c-.18.007-.209-.021-.212-.025-.003-.004-.034-.076-.033-.25.015-2.72 0-5.439 0-8.155v-.69l-.542-.088-1.079 2.606h.002c-.42 1.007-.845 2.011-1.251 3.028-.047.117-.09.167-.125.192-.034.024-.082.042-.201.037-.459-.027-.92-.026-1.378.004v-.002c-.167.012-.233-.01-.282-.045-.049-.035-.107-.114-.174-.281-.654-1.628-1.268-3.249-1.945-4.876v-.002a3.38 3.38 0 0 0-.167-.355h-.497v.47c0 2.71-.156 5.426-.134 8.155.001.164-.028.19-.077.223-.05.032-.172.062-.352.054h-.002c-.75-.026-1.5-.027-2.249-.004-.14.004-.183-.021-.177-.015.007.006-.019-.015-.019-.163.012-4.375.014-8.749 0-13.122 0-.156.026-.179.025-.178 0 0 .058-.026.206-.023 1.02.015 2.04.015 3.059-.002.13-.002.188.018.23.048.043.03.09.09.144.216.862 1.99 1.74 3.972 2.614 5.956l.004.008.515 1.019.654-1.411.002-.002c.808-1.847 1.628-3.69 2.42-5.547.06-.143.113-.203.167-.237.053-.034.13-.055.281-.052zm-36.88.002c2.052.018 4.102 0 6.146.042a4.815 4.815 0 0 1 1.563.288c.982.373 1.57.905 1.905 1.562.337.658.422 1.46.325 2.37-.153 1.435-.932 2.399-2.162 3.12l-.008.004-.534.363 4.452 5.743c-1.098-.001-2.197 0-3.293-.012h-.002c-.053 0-.297-.135-.377-.24-1.12-1.472-2.219-2.962-3.324-4.449-.189-.253-.497-.384-.82-.463-.321-.08-.66-.116-.939.071h-.002c-.139.095-.176.218-.205.326-.027.102-.04.207-.041.313-.01 1.396-.024 2.795.004 4.196.004.19-.03.238-.035.242-.005.005-.07.036-.252.03h-.002a40.948 40.948 0 0 0-2.428-.003c-.142.003-.187-.022-.18-.017.005.005-.02-.017-.02-.161v-.002c.012-4.373.012-8.745 0-13.118 0-.16.028-.183.027-.182a.514.514 0 0 1 .202-.023zm89.567 0c2.05.018 4.101.009 6.147.038.759.012 1.484.174 2.142.554 1.38.8 1.773 1.962 1.656 3.462-.123 1.568-.917 2.622-2.269 3.379l-.012.006-.155.108-.025.035-.188.264 4.374 5.65-.033.002.014-.002c-1.045 0-2.095-.014-3.148.011h-.002c-.288.008-.372-.052-.542-.283-1.096-1.495-2.206-2.978-3.31-4.464-.188-.252-.493-.361-.812-.434-.318-.073-.646-.117-.922.073a.49.49 0 0 0-.196.31 1.13 1.13 0 0 0-.035.29c-.009 1.41-.02 2.824 0 4.239v.002c.003.174-.027.24-.029.242-.002.002-.032.033-.211.025h-.002a39.138 39.138 0 0 0-2.473-.004h-.002c-.138.003-.18-.023-.174-.017.006.006-.02-.02-.02-.161v-.002c.012-4.372.013-8.744 0-13.116 0-.158.026-.183.025-.182 0 0 .053-.027.202-.025zm-9.95 1.85c-1.04.224-1.698.95-2.111 1.84-.635 1.366-.675 2.813-.503 4.23v.002c.092.698.29 1.378.588 2.016.514 1.11 1.476 1.771 2.748 1.759 1.25-.012 2.145-.683 2.707-1.737.533-1 .678-2.069.649-3.154.036-1.16-.117-2.307-.685-3.37-.69-1.285-1.986-1.89-3.393-1.587zm-76.366.112c-.184-.008-.378.065-.476.207-.098.143-.105.292-.103.43.01.51.004 1.026.004 1.542 0 .543-.014 1.092.01 1.65v.004c.01.124.054.244.13.343a.72.72 0 0 0 .11.136c.045.043.093.112.251.101.906.039 1.983-.145 2.696-.421.365-.163.7-.38.871-.732.208-.425.274-.942.223-1.498-.077-.851-.636-1.512-1.56-1.65h-.002c-.728-.11-1.457-.085-2.154-.112zm89.509.015c-.118 0-.175.048-.225.086a.698.698 0 0 0-.126.124c-.073.091-.144.18-.152.347-.027.557-.011 1.104-.011 1.646 0 .52.012 1.033-.006 1.537-.007.178.007.359.136.509.128.15.333.192.535.178.484-.033.99-.046 1.498-.089v.02l.28-.036c1.064-.131 1.796-1.017 1.848-2.123.025-.547-.078-1.027-.344-1.397-.266-.37-.689-.61-1.223-.7-.741-.123-1.49-.096-2.208-.102zm-13.038.357c1.22-.263 2.25.216 2.851 1.338.517.966.66 2.02.625 3.128v.016c.028 1.034-.108 2.006-.59 2.91-.505.947-1.19 1.464-2.275 1.474-1.108.011-1.842-.497-2.292-1.47v-.003a6.375 6.375 0 0 1-.545-1.867v-.002c-.166-1.367-.121-2.707.46-3.959.374-.806.893-1.376 1.766-1.564zm-76.537.117c-.004.006-.036.004.046.008.723.028 1.432.006 2.1.107h.002c.745.11 1.078.52 1.14 1.203.044.488-.02.917-.175 1.234-.138.31-.41.54-.74.625l-.011.004c-.71.192-1.508.189-2.312.239l-.004-.004c-.03-.046-.049-.122-.048-.097v-.002c-.023-.535-.01-1.077-.01-1.627 0-.512.005-1.03-.004-1.55-.001-.095.02-.146.016-.14zm89.633.025c.712.004 1.415-.015 2.07.093.44.074.719.245.902.499.182.254.273.613.252 1.085-.042.907-.582 1.547-1.41 1.651h-.003c-.562.068-1.152.063-1.753.105-.125.01-.129-.011-.124-.006.005.006-.02-.04-.015-.167.019-.525.006-1.045.006-1.556 0-.55-.015-1.092.011-1.625-.002.054.012-.019.043-.058zm-74.29.57-.487.381-.023.074c-.46 1.516-.924 3.37-1.378 4.341l-.165.353h.39l3.317.002-.167-.355c-.454-.965-.92-2.928-1.382-4.448zm-.188 1.08c.36 1.258.722 2.621 1.116 3.575l-2.253-.002c.399-.962.77-2.31 1.137-3.573z"/></svg>
