<svg xmlns="http://www.w3.org/2000/svg" viewBox="0 0 128 128"><path fill-rule="evenodd" clip-rule="evenodd" fill="#68B604" d="M53.607 57.793c-8.247.028-16.494.207-24.741.207H27.68c11.396-16 22.632-31.211 33.949-46.722-.384-.026-.569-.144-.754-.144-17.851-.002-35.701-.046-53.552-.06-.627 0-.842.137-.836.798.031 3.689.015 7.367.015 11.057 0 1.052.001 1.047 1.067 1.047 9.034.001 18.068-.003 27.102.001.355 0 .711.046 1.256.086L1.781 70.651l.584.033c17.146.001 34.291-.003 51.436.017.701.001.794-.281.791-.866-.018-3.744-.03-7.393.009-11.136.007-.779-.206-.908-.994-.906zm6.757-30.306c.027.71.442.513.869.513h24.828c4.178 0 8.357.116 12.536.091 4.555-.027 9.12.124 13.662-.146 4.703-.279 8.459-2.475 11.051-6.493 1.743-2.702 2.514-5.711 2.896-8.863.104-.861-.447-.742-.963-.742-16.172.001-32.344-.018-48.517.034-1.793.006-3.633.191-5.37.638-6.242 1.602-11.236 8.491-10.992 14.968zM76 32.988c-2.638.003-5.18.517-7.503 1.791-5.405 2.962-7.481 7.921-8.119 13.723-.084.766.38.745.905.744 4.312-.007 8.623-.004 12.935-.004 1.464 0 2.929.021 4.393-.004 3.222-.054 6.464.069 9.661-.248 4.157-.412 7.536-2.437 9.939-5.917 1.889-2.735 2.833-5.812 3.162-9.103.096-.965.135-.985-.804-.986-8.19-.001-16.38-.006-24.569.004zm8.882 21.711c-.004-.574-.228-.675-.722-.672-2.494.016-4.989-.023-7.482.021-1.157.021-2.323.12-3.466.299-8.958 1.396-12.3 8.892-12.836 15.287-.048.573.158.762.729.75 1.491-.03 2.982-.011 4.473-.011l.003.083c2.027-.09 4.073-.036 6.079-.295 7.531-.971 13.28-7.764 13.222-15.462zM33.72 103.333c-.092-.279-.233-.37-.512-.366-.938.012-1.875.018-2.813-.003-.342-.007-.488.115-.595.44-1.208 3.696-2.433 7.387-3.655 11.077-.199.6-.408 1.195-.649 1.9l-4.28-5.52.303-.206c1.25-.733 2.08-1.759 2.238-3.243.197-1.842-.329-3.343-2.345-4.108a4.948 4.948 0 00-1.61-.295c-2.008-.042-4.018-.025-6.026-.043-.329-.003-.471.07-.47.445.013 4.286.012 8.572.001 12.858-.001.349.125.426.444.418a39.71 39.71 0 012.366.003c.399.014.542-.085.534-.514-.028-1.368-.014-2.738-.004-4.107.001-.146.038-.358.136-.424.319-.214 1.154.007 1.393.327 1.083 1.457 2.16 2.918 3.259 4.362.124.164.37.33.562.332 2.128.023 4.256.009 6.384.021.287.002.39-.114.458-.363l.598-2.051c.083-.306.24-.431.566-.426 1.161.015 2.322.014 3.482 0 .333-.005.469.134.552.44.186.688.395 1.369.621 2.044.046.137.208.33.321.333 1.024.025 2.048.015 3.109.015l-.062-.329c-1.438-4.336-2.878-8.675-4.306-13.017zm-14.434 5.629c-.771.211-1.606.199-2.415.254-.069.005-.215-.218-.221-.34-.024-.535-.01-1.07-.01-1.606 0-.505.006-1.012-.003-1.517-.004-.228.052-.387.313-.376.696.027 1.401.004 2.086.106.817.122 1.257.647 1.324 1.399.093 1.024-.254 1.855-1.074 2.08zM30.304 111c.467-1 .915-2.811 1.362-4.287l.137-.106c.449 1.477.898 3.394 1.368 4.394L30.304 111zm54.295-8.03c-.818.006-1.638.024-2.455-.009-.39-.016-.512.152-.582.491-.478 2.308-.966 4.613-1.454 6.92-.12.566-.25 1.131-.376 1.695a.8.8 0 01-.222-.424c-.648-2.757-1.301-5.513-1.933-8.273-.073-.32-.215-.407-.514-.402-.803.012-1.608.023-2.411-.006-.372-.013-.521.128-.604.475-.533 2.235-1.081 4.468-1.628 6.7-.155.633-.324 1.263-.486 1.894l-.131-.006c-.106-.498-.219-.995-.319-1.495-.482-2.397-.957-4.796-1.45-7.191-.028-.136-.199-.343-.307-.346-1.037-.027-2.075-.016-3.142-.016l.049.398c1.07 4.317 2.144 8.635 3.212 12.954.063.253.174.366.457.36a53.8 53.8 0 012.812.004c.373.012.515-.11.6-.464.528-2.206 1.076-4.408 1.62-6.61.109-.441.233-.878.351-1.317l.111.016.117.377c.647 2.513 1.3 5.024 1.929 7.543.084.338.208.463.562.453a58.052 58.052 0 012.768 0c.324.008.467-.091.547-.413 1.057-4.307 2.124-8.61 3.2-12.912.08-.329-.036-.398-.321-.396zm-31.311.46c0-.347-.108-.472-.461-.465-.967.019-1.935.02-2.902-.001-.347-.007-.528.101-.669.432-.775 1.817-1.577 3.624-2.371 5.434l-.428.924-.276-.546c-.857-1.944-1.718-3.887-2.562-5.837-.124-.286-.273-.411-.594-.405a96.2 96.2 0 01-2.991.002c-.325-.005-.474.064-.473.443.013 4.285.012 8.572.001 12.859-.001.347.122.428.442.419a33.255 33.255 0 012.188.003c.401.017.677-.09.674-.516-.021-2.664.132-5.328.132-7.992v-.461c0 .135.117.285.182.443.663 1.59 1.263 3.177 1.905 4.776.146.364.304.502.691.473.444-.033.876-.023 1.322-.002.3.014.445-.101.556-.378.397-.993.813-1.977 1.225-2.964l.984-2.376.136.022v.469c0 2.664.015 5.328 0 7.992-.002.376.078.531.492.514a32.13 32.13 0 012.323-.002c.343.01.474-.083.473-.445-.009-4.271-.008-8.544.001-12.815zm55.806 7.353l.108-.076c1.376-.771 2.22-1.893 2.347-3.505.12-1.526-.316-2.795-1.744-3.623-.686-.397-1.442-.563-2.218-.575-2.008-.03-4.017-.02-6.025-.037-.33-.004-.47.074-.469.446.013 4.285.012 8.57.001 12.855 0 .345.12.428.441.42a37.97 37.97 0 012.41.004c.411.017.496-.131.49-.511-.021-1.384-.011-2.768-.002-4.151 0-.133.033-.325.122-.387.291-.202 1.149.008 1.366.299 1.083 1.456 2.169 2.909 3.243 4.372.192.262.391.387.735.378 1.026-.026 2.053-.009 3.08-.01l.494-.027-4.459-5.76.08-.112zm-2.544-1.641c-.572.069-1.154.062-1.73.102-.321.022-.408-.123-.397-.421.018-.504.005-1.01.005-1.515 0-.535-.014-1.07.012-1.604.006-.112.164-.312.25-.311.71.005 1.431-.021 2.126.095.952.16 1.378.805 1.332 1.804-.046.988-.67 1.736-1.598 1.85zm-11.886-6.18c-1.035-.308-2.092-.373-3.171-.242-1.455.177-2.72.72-3.72 1.811-1.37 1.495-1.763 3.321-1.828 5.281.081.691.109 1.394.252 2.071.457 2.169 1.59 3.823 3.725 4.659.972.381 1.99.436 3.022.416 2.535-.047 4.646-1.5 5.506-3.882.757-2.096.762-4.235.064-6.338-.624-1.89-1.905-3.2-3.85-3.776zm.29 9.894c-.523.982-1.298 1.563-2.442 1.574-1.167.012-1.998-.561-2.47-1.583a6.497 6.497 0 01-.555-1.904c-.166-1.364-.124-2.731.472-4.015.386-.831.962-1.466 1.899-1.668 1.288-.278 2.428.254 3.06 1.433.533.996.679 2.077.644 3.19.027 1.039-.111 2.04-.608 2.973zm30.976 3.206c-1.438-2.115-2.871-4.234-4.323-6.34-.203-.295-.21-.491.009-.778 1.363-1.785 2.707-3.585 4.058-5.379l.442-.587c-1.285 0-2.472-.01-3.658.015-.133.002-.294.177-.389.31-1.003 1.404-1.995 2.816-2.991 4.225l-.983 1.448-.096-.039v-.473c0-1.667-.055-3.334-.033-5 .005-.403-.149-.512-.532-.499-.758.024-1.528.028-2.287-.002-.418-.016-.565.098-.563.542.017 4.226.012 8.452 0 12.679-.001.38.079.527.489.51.772-.032 1.547-.03 2.319-.001.399.015.545-.086.534-.514-.03-1.146.032-2.294-.026-3.437-.035-.689.287-1.146.731-1.643l.276.363c1.015 1.539 2.045 3.069 3.03 4.628.278.438.565.632 1.101.607 1.063-.049 2.131-.015 3.292-.015l-.4-.62zm-61.121-13.098a687.5 687.5 0 01-8.124-.002c-.429-.003-.514.149-.511.543.017 2.113.008 4.226.008 6.338 0 2.129.001 4.256-.001 6.384 0 .248-.028.464.349.462 2.812-.012 5.624-.009 8.436-.001.287 0 .353-.119.348-.376-.012-.565-.027-1.132.004-1.695.021-.387-.128-.474-.486-.47-1.622.016-3.243-.001-4.865.013-.344.003-.475-.099-.465-.458a49.85 49.85 0 00-.001-2.679c-.012-.389.101-.514.5-.507 1.458.022 2.916-.001 4.374.015.336.004.446-.108.434-.437-.02-.55-.022-1.102 0-1.651.015-.354-.115-.456-.465-.451-1.413.017-2.581.007-3.995.007-.594 0-.349-.001-.349-.573v-1.339c0-.624-.245-.626.402-.626 1.562-.001 3.001-.011 4.563.006.375.005.434-.119.414-.487-.028-.504-.064-1.013-.03-1.517.027-.407-.161-.501-.54-.499zm-53.318.488c.018-.368-.113-.489-.484-.487-2.679.012-5.357.013-8.036-.001-.379-.002-.474.129-.471.49.015 2.128.007 4.257.007 6.385 0 2.114.008 4.228-.008 6.341-.003.376.074.53.488.513a29.168 29.168 0 012.366 0c.413.018.493-.135.489-.513-.019-1.666.001-3.333-.015-5-.003-.365.101-.49.476-.485l4.286.017c.362.005.469-.12.456-.462a18.3 18.3 0 01.002-1.606c.019-.379-.127-.478-.49-.473l-4.241.014c-.359.004-.509-.088-.489-.472.029-.549.007-1.102.007-1.651 0-.597.001-.6.583-.601 1.518-.002 3.036-.01 4.554.006.375.004.547-.086.521-.497a14.234 14.234 0 01-.001-1.518zm19.907-8.068l-.116.014-.246-.46c-1.646-3.299-3.293-6.596-4.928-9.899-.159-.321-.339-.472-.712-.444-.489.036-.983.033-1.473.001-.406-.027-.53.096-.529.517.017 4.033.01 8.067.01 12.1 0 1.118 0 1.102 1.139 1.113.401.004.481-.131.479-.515C25.01 94.268 25 90.726 25 87.183v-.527l.122-.028.2.33c1.705 3.385 3.453 6.752 5.091 10.169.441.92.926 1.367 1.966 1.205.601-.095.621-.019.621-.619V85.658c0-1.06-.005-1.038-1.05-1.066-.422-.011-.525.126-.523.528.015 3.26.008 6.519.006 9.778l-.035.486zm4.478 2.457c0 .286.027.488.399.478 1.59-.047 3.187.001 4.768-.133 1.909-.161 3.384-1.133 4.374-2.791 1.032-1.729 1.209-3.604.878-5.549-.49-2.88-2.513-4.929-5.745-5.146-1.378-.094-2.765-.055-4.146-.106-.41-.014-.537.108-.533.521.018 2.114.008 4.227.009 6.341 0 2.128.002 4.256-.004 6.385zm1.753-11.482l.038-.212c1.355.009 2.706-.135 4.011.36 1.698.646 2.592 1.922 2.877 3.664.187 1.141.147 2.281-.172 3.399-.499 1.75-1.993 3.008-3.803 3.163-.857.073-1.721.065-2.582.102-.25.011-.379-.051-.378-.341.008-3.377.006-6.757.009-10.135zM20.336 98.312c1.113-.003.941.16.982-.964.017-.441-.142-.552-.562-.548-1.86.02-3.72.001-5.58.015-.375.003-.521-.093-.514-.501.024-1.427.009-2.856.011-4.284l.026-.214c.184-.008.343.184.503.184h4.643c1.03 0 1.015-.207 1.026-1.252.004-.381-.099-.618-.501-.613-1.755.021-3.511-.049-5.267-.038-.323.002-.445-.118-.438-.458.02-.996.022-2.006-.001-3.003-.008-.373.114-.489.481-.486 1.696.017 3.393.003 5.089.003 1.094 0 1.079-.001 1.083-1.08.001-.375-.122-.479-.488-.476-2.455.014-4.91.015-7.365-.004-.408-.003-.529.106-.527.521.015 4.226.014 8.451 0 12.678-.001.407.112.535.524.531 2.292-.017 4.583-.003 6.875-.011zm-10.306.002c.997 0 .976-.001 1-.987.01-.419-.129-.529-.532-.526-2.114.017-4.227.009-6.341.005-.178 0-.355-.039-.597-.067l.289-.443c2.114-3.042 4.212-6.096 6.357-9.114.465-.655.708-1.294.652-2.096-.028-.397-.134-.493-.518-.491-2.44.015-4.881.008-7.322.008-1.052 0-1.034 0-1.056 1.053-.008.394.105.433.5.429 1.95-.02 3.9-.084 5.85-.084h.62c-.145 0-.219.453-.307.58-2.101 3.033-4.188 6.112-6.315 9.126-.442.627-.677 1.258-.635 2.029.024.454.143.583.587.579 2.588-.02 5.178-.001 7.768-.001z"/></svg>