<?xml version="1.0" encoding="utf-8"?>
<!-- Generator: Adobe Illustrator 16.0.0, SVG Export Plug-In . SVG Version: 6.00 Build 0)  -->
<!DOCTYPE svg PUBLIC "-//W3C//DTD SVG 1.1//EN" "http://www.w3.org/Graphics/SVG/1.1/DTD/svg11.dtd">
<svg version="1.1" id="Layer_1" xmlns="http://www.w3.org/2000/svg" xmlns:xlink="http://www.w3.org/1999/xlink" x="0px" y="0px"
	 width="500px" height="500px" viewBox="0 0 500 500" enable-background="new 0 0 500 500" xml:space="preserve">
<g>
	<path fill-rule="evenodd" clip-rule="evenodd" fill="#68B604" d="M209.404,315.162C177.189,315.27,144.975,315,112.76,315
		c-1.233,0-2.465,0-4.633,0c44.516-61,88.408-120.95,132.611-181.539c-1.499-0.1-2.221-0.075-2.943-0.075
		c-69.729-0.006-139.459,0.063-209.188,0.008c-2.449-0.001-3.289,0.658-3.268,3.24c0.122,14.412,0.059,28.839,0.06,43.25
		c0,4.109,0.004,4.122,4.168,4.122c35.287,0.003,70.577,0.002,105.865,0.019c1.388,0,2.778,0.19,4.907,0.346
		C95.651,245.34,51.445,305.653,6.957,366.353c1.244,0.074,1.764,0.132,2.281,0.132c66.976,0.004,133.948-0.012,200.922,0.064
		c2.739,0.004,3.102-1.098,3.091-3.383c-0.068-14.625-0.117-29.364,0.034-43.985C213.316,316.14,212.48,315.15,209.404,315.162z"/>
	<path fill-rule="evenodd" clip-rule="evenodd" fill="#68B604" d="M489.23,136.671c-63.172,0.003-126.344-0.08-189.518,0.121
		c-7.006,0.022-14.193,0.929-20.979,2.672c-24.381,6.263-43.891,33.355-42.935,58.658c0.104,2.773,1.726,2.374,3.394,2.376
		c32.328,0.002,64.656,0.001,96.985,0.001c16.322,0,32.646,0.078,48.969-0.021c17.792-0.108,35.624,0.293,53.366-0.761
		c18.37-1.091,33.043-9.759,43.169-25.458c6.808-10.556,9.821-22.356,11.312-34.667C493.401,136.229,491.246,136.671,489.23,136.671
		z"/>
	<path fill-rule="evenodd" clip-rule="evenodd" fill="#68B604" d="M392.85,219.222c-31.99-0.008-63.982-0.027-95.975,0.011
		c-10.305,0.012-20.232,2.019-29.309,6.994c-21.113,11.57-29.226,30.943-31.717,53.607c-0.326,2.988,1.484,2.908,3.535,2.906
		c16.842-0.027,33.684-0.016,50.528-0.016c5.72,0.002,11.442,0.08,17.159-0.016c12.588-0.211,25.25,0.271,37.736-0.967
		c16.238-1.609,29.438-9.518,38.826-23.113c7.379-10.685,11.07-22.703,12.354-35.558
		C396.364,219.302,396.515,219.223,392.85,219.222z"/>
	<path fill-rule="evenodd" clip-rule="evenodd" fill="#68B604" d="M328.754,301.416c-9.742,0.061-19.486-0.094-29.226,0.08
		c-4.521,0.08-9.075,0.467-13.542,1.166c-34.988,5.455-48.047,34.734-50.139,59.715c-0.188,2.238,0.616,2.977,2.846,2.93
		c5.822-0.119,11.647-0.041,17.473-0.041c0.004,0.107,0.009,0.215,0.014,0.322c7.919-0.35,15.911-0.141,23.746-1.15
		c29.416-3.787,51.875-30.326,51.648-60.396C331.557,301.797,330.684,301.404,328.754,301.416z"/>
</g>
</svg>
