<svg xmlns="http://www.w3.org/2000/svg" viewBox="0 0 128 128"><path fill="#68b604" d="M53.31 81.33c-8.483.03-16.966.146-25.449.146h-1.22c11.721-16.458 23.28-32.038 34.92-47.992-.395-.026-.584-.114-.776-.114-18.362-.002-36.722-.03-55.084-.044-.645 0-.866.15-.861.83.032 3.795.016 7.582.016 11.377 0 1.082.001 1.08 1.097 1.08 9.292 0 18.585-.002 27.877 0 .365 0 .733.05 1.293.09L0 94.623l.6.034c17.637 0 35.273-.004 52.91.017.72 0 .817-.29.813-.89-.018-3.85-.03-7.638.01-11.489.007-.8-.213-.968-1.023-.965zm73.685-47.19c-16.634.002-33.27-.02-49.905.033a22.688 22.688 0 0 0-5.524.703c-6.42 1.65-11.557 8.617-11.305 15.28.026.732.453.461.894.461h25.538c4.299 0 8.596.186 12.895.16 4.685-.028 9.38.161 14.052-.117 4.837-.287 8.7-2.528 11.368-6.662 1.792-2.78 2.586-5.866 2.979-9.107.107-.887-.46-.75-.992-.75zm-25.379 21.74c-8.424-.003-16.849-.009-25.273.003-2.714.003-5.328.532-7.719 1.84-5.558 3.048-7.695 8.149-8.351 14.117-.085.788.39.766.93.765 4.436-.007 8.87-.004 13.307-.004 1.506 0 3.013.021 4.519-.004 3.315-.056 6.649.07 9.936-.254 4.276-.424 7.752-2.507 10.224-6.087 1.943-2.814 2.915-5.978 3.253-9.363.099-.993.138-1.013-.826-1.013zM84.737 77.523c-2.564.016-5.13-.025-7.694.021a26.058 26.058 0 0 0-3.567.308c-9.213 1.436-12.652 9.146-13.202 15.724-.05.589.161.784.75.772 1.532-.032 3.066-.011 4.6-.011l.005.084c2.084-.092 4.19-.037 6.252-.303 7.746-.997 13.66-7.986 13.601-15.904-.007-.59-.236-.694-.745-.691z" /></svg>
