<?xml version="1.0" encoding="UTF-8" standalone="no"?>
<!-- Created with Inkscape (http://www.inkscape.org/) -->

<svg
   xmlns:dc="http://purl.org/dc/elements/1.1/"
   xmlns:cc="http://creativecommons.org/ns#"
   xmlns:rdf="http://www.w3.org/1999/02/22-rdf-syntax-ns#"
   xmlns:svg="http://www.w3.org/2000/svg"
   xmlns="http://www.w3.org/2000/svg"
   version="1.1"
   width="100"
   height="100"
   viewBox="0 0 100 100"
   id="Your_Icon"
   xml:space="preserve"><metadata
   id="metadata77"><rdf:RDF><cc:Work
       rdf:about=""><dc:format>image/svg+xml</dc:format><dc:type
         rdf:resource="http://purl.org/dc/dcmitype/StillImage" /><dc:title></dc:title></cc:Work></rdf:RDF></metadata><defs
   id="defs75" />
<polygon
   points="20.547,37.289 28.301,41.766 49.998,54.293 79.246,37.295 49.796,20.291 "
   id="polygon3" />
<polygon
   points="51.24,56.634 51.353,65 80,65 80,65.087 80.342,39.69 "
   id="polygon5" />
<path
   d="M 50,5.886 C 22.386,5.886 0,28.226 0,55.84 0,58.985 0.294,62 0.849,65 H 16 c 0,0 0,0.088 0,0.087 l 0.249,-27.798 c 0,-0.029 0.089,-0.059 0.091,-0.087 0.002,-0.031 0.045,-0.062 0.049,-0.093 0.004,-0.029 0.032,-0.058 0.038,-0.086 0.006,-0.03 0.021,-0.062 0.029,-0.091 0.008,-0.028 0.024,-0.055 0.033,-0.083 0.01,-0.028 0.021,-0.058 0.032,-0.086 0.012,-0.027 0.027,-0.053 0.04,-0.079 0.013,-0.026 0.026,-0.055 0.041,-0.081 0.015,-0.025 0.033,-0.05 0.05,-0.074 0.017,-0.024 0.032,-0.05 0.05,-0.073 0.019,-0.024 0.041,-0.047 0.061,-0.07 0.019,-0.021 0.036,-0.044 0.057,-0.064 0.023,-0.023 0.049,-0.044 0.074,-0.065 0.021,-0.018 0.04,-0.037 0.062,-0.054 0.026,-0.021 0.056,-0.038 0.084,-0.057 0.022,-0.015 0.042,0.016 0.065,0.003 l 0.004,0.044 h 0 0 L 49.1,17.554 c 0.427,-0.248 0.954,-0.272 1.382,-0.025 L 82.685,36.11 c 0.053,0.03 0.104,0.059 0.152,0.096 0.014,0.011 0.025,0.021 0.039,0.032 0.033,0.027 0.066,0.053 0.096,0.083 0.017,0.016 0.03,0.033 0.046,0.051 0.024,0.027 0.05,0.054 0.072,0.083 0.016,0.021 0.028,0.043 0.043,0.064 0.02,0.028 0.039,0.055 0.056,0.084 0.014,0.023 0.024,0.049 0.037,0.073 0.014,0.028 0.03,0.057 0.042,0.087 0.011,0.025 0.019,0.052 0.027,0.078 0.01,0.03 0.022,0.06 0.031,0.092 0.007,0.026 0.011,0.054 0.016,0.081 0.007,0.031 0.015,0.062 0.02,0.096 0.004,0.028 -0.184,0.058 -0.182,0.086 0.003,0.031 -0.18,0.062 -0.18,0.093 0,10e-4 0,0.002 0,0.003 0,10e-4 0,0.002 0,0.003 L 83.295,65 H 99.151 C 99.706,62 100,58.985 100,55.84 100,28.226 77.614,5.886 50,5.886 z"
   id="path7" />
<polygon
   points="42.09,52.996 19.094,39.631 19.096,65 48,65 48,65.087 48.321,56.68 "
   id="polygon9" />
<path
   d="m 81.906,68.444 c -0.677,0 -1.226,0.598 -1.229,1.275 0,0.677 0.545,1.28 1.223,1.28 0.003,0 0.003,0 0.006,0 0.674,0 1.222,-0.598 1.222,-1.274 0.003,-0.677 -0.545,-1.278 -1.222,-1.281 z"
   id="path11" />
<path
   d="m 81.891,73.072 c -0.321,0 -0.64,0.129 -0.866,0.358 -0.228,0.227 -0.358,0.542 -0.358,0.867 0,0.321 0.131,0.637 0.358,0.863 0.227,0.229 0.545,0.361 0.866,0.361 0.321,0 0.638,-0.132 0.867,-0.361 0.227,-0.227 0.358,-0.542 0.358,-0.863 0,-0.325 -0.132,-0.641 -0.358,-0.867 -0.23,-0.229 -0.546,-0.358 -0.867,-0.358 z"
   id="path13" />
<path
   d="m 77.275,75.562 c -0.586,0.34 -0.784,1.09 -0.444,1.676 0.229,0.389 0.64,0.609 1.062,0.609 0.208,0 0.42,-0.056 0.612,-0.169 0.586,-0.34 0.784,-1.09 0.444,-1.675 -0.339,-0.581 -1.089,-0.78 -1.674,-0.441 z"
   id="path15" />
<path
   d="m 73.275,77.884 c -0.586,0.34 -0.785,1.091 -0.441,1.676 0.227,0.392 0.637,0.609 1.06,0.609 0.208,0 0.42,-0.052 0.612,-0.165 0.585,-0.341 0.784,-1.091 0.444,-1.676 -0.34,-0.585 -1.09,-0.784 -1.675,-0.444 z"
   id="path17" />
<path
   d="m 53.277,89.508 c -0.585,0.34 -0.784,1.087 -0.444,1.672 0.23,0.392 0.641,0.613 1.063,0.613 0.208,0 0.419,-0.056 0.612,-0.169 0.585,-0.34 0.784,-1.088 0.444,-1.673 -0.34,-0.585 -1.09,-0.783 -1.675,-0.443 z"
   id="path19" />
<path
   d="m 57.277,87.183 c -0.585,0.34 -0.784,1.091 -0.444,1.676 0.23,0.389 0.641,0.609 1.063,0.609 0.208,0 0.42,-0.056 0.612,-0.166 0.585,-0.34 0.784,-1.09 0.444,-1.675 -0.34,-0.585 -1.09,-0.784 -1.675,-0.444 z"
   id="path21" />
<path
   d="m 61.277,84.858 c -0.585,0.34 -0.784,1.09 -0.443,1.675 0.227,0.393 0.64,0.609 1.06,0.609 0.211,0 0.423,-0.052 0.615,-0.165 0.585,-0.34 0.784,-1.09 0.444,-1.676 -0.34,-0.584 -1.091,-0.782 -1.676,-0.443 z"
   id="path23" />
<path
   d="m 69.274,80.209 c -0.581,0.34 -0.78,1.09 -0.44,1.675 0.227,0.393 0.637,0.609 1.06,0.609 0.208,0 0.42,-0.052 0.615,-0.165 0.585,-0.34 0.781,-1.091 0.441,-1.675 -0.34,-0.586 -1.091,-0.785 -1.676,-0.444 z"
   id="path25" />
<path
   d="m 65.277,82.533 c -0.585,0.34 -0.783,1.091 -0.443,1.676 0.227,0.392 0.637,0.609 1.06,0.609 0.208,0 0.419,-0.052 0.615,-0.166 0.585,-0.34 0.784,-1.09 0.444,-1.675 -0.34,-0.585 -1.091,-0.784 -1.676,-0.444 z"
   id="path27" />
<path
   d="m 49.938,77.789 c 0.674,0 1.223,0.552 1.22,1.228 0.003,-0.676 -0.542,-1.228 -1.22,-1.228 z"
   id="path29" />
<path
   d="m 49.911,87.039 c 0.677,0.003 1.223,0.551 1.223,1.228 0.003,-0.677 -0.546,-1.225 -1.223,-1.228 z"
   id="path31" />
<path
   d="m 48.805,79.488 c 0.184,0.439 0.617,0.749 1.125,0.751 -0.507,-0.002 -0.94,-0.312 -1.125,-0.751 z"
   id="path33" />
<path
   d="m 48.684,88.261 c 0.001,-0.338 0.139,-0.645 0.36,-0.865 -0.223,0.22 -0.36,0.526 -0.36,0.865 z"
   id="path35" />
<path
   d="m 48.684,88.261 c -0.004,0.677 0.545,1.229 1.222,1.229 -0.677,-0.004 -1.226,-0.552 -1.222,-1.229 z"
   id="path37" />
<path
   d="m 48.735,69.759 c -0.003,0.677 0.545,1.228 1.222,1.228 -0.677,-0.004 -1.222,-0.551 -1.222,-1.228 z"
   id="path39" />
<path
   d="m 49.951,73.161 c -0.593,0 -1.088,0.417 -1.203,0.976 -0.017,0.079 -0.025,0.356 -0.025,0.441 C 48.72,75.254 49.269,76 49.945,76 h 0.003 c 0.674,0 1.222,-0.739 1.225,-1.413 0,-0.085 -0.008,-0.265 -0.024,-0.345 -0.114,-0.558 -0.606,-1.078 -1.198,-1.081 z"
   id="path41" />
<path
   d="m 49.924,82.414 c -0.677,-0.003 -1.226,0.612 -1.229,1.29 0,0.676 0.546,1.296 1.223,1.296 h 0.003 c 0.677,0 1.225,-0.612 1.225,-1.29 0.002,-0.678 -0.545,-1.293 -1.222,-1.296 z"
   id="path43" />
<path
   d="m 49.938,77.789 c -0.084,0 -0.167,0.008 -0.247,0.024 -0.559,0.111 -0.981,0.605 -0.983,1.194 0,0.171 0.034,0.212 0.097,0.36 0.185,0.441 0.618,0.633 1.125,0.633 0.003,0 0.003,0 0.003,0 10e-4,0 0.002,0 0.003,0 0.59,0 1.083,-0.3 1.197,-0.856 0.017,-0.08 0.025,-0.103 0.025,-0.187 0.003,-0.676 -0.546,-1.168 -1.22,-1.168 z"
   id="path45" />
<path
   d="m 49.963,68.536 c -0.677,-0.003 -1.225,0.552 -1.228,1.229 0,0.677 0.545,1.235 1.222,1.235 h 0.003 c 0.678,0 1.223,-0.552 1.226,-1.229 0.002,-0.677 -0.545,-1.232 -1.223,-1.235 z"
   id="path47" />
<path
   d="m 49.911,87.039 c -0.339,-0.002 -0.645,0.135 -0.867,0.356 -0.222,0.221 -0.359,0.783 -0.36,1.121 -0.004,0.677 0.545,1.484 1.221,1.484 0,0 0,0 0.003,0 0.674,0 1.223,-0.801 1.226,-1.478 0,-0.676 -0.546,-1.48 -1.223,-1.483 z"
   id="path49" />
<path
   d="m 49.894,91.667 c -0.322,0 -0.638,0.129 -0.864,0.358 -0.229,0.227 -0.358,0.542 -0.358,0.866 0,0.322 0.129,0.638 0.358,0.864 0.227,0.229 0.542,0.358 0.864,0.358 0.324,0 0.64,-0.129 0.866,-0.358 0.229,-0.227 0.361,-0.542 0.361,-0.864 0,-0.324 -0.132,-0.64 -0.361,-0.866 -0.227,-0.229 -0.542,-0.358 -0.866,-0.358 z"
   id="path51" />
<path
   d="m 46.481,89.504 c -0.585,-0.336 -1.335,-0.138 -1.672,0.451 -0.337,0.585 -0.138,1.335 0.447,1.672 0.193,0.113 0.404,0.166 0.613,0.166 0.422,0 0.836,-0.222 1.062,-0.613 0.337,-0.588 0.138,-1.335 -0.45,-1.676 z"
   id="path53" />
<path
   d="m 26.355,77.884 c -0.585,-0.337 -1.335,-0.138 -1.672,0.45 -0.34,0.586 -0.138,1.336 0.447,1.673 0.193,0.11 0.404,0.165 0.612,0.165 0.423,0 0.833,-0.221 1.063,-0.612 0.337,-0.588 0.138,-1.336 -0.45,-1.676 z"
   id="path55" />
<path
   d="m 22.33,75.56 c -0.588,-0.337 -1.335,-0.138 -1.672,0.45 -0.34,0.585 -0.138,1.335 0.447,1.672 0.193,0.113 0.404,0.166 0.613,0.166 0.422,0 0.833,-0.221 1.06,-0.612 0.339,-0.59 0.137,-1.337 -0.448,-1.676 z"
   id="path57" />
<path
   d="m 38.432,84.858 c -0.588,-0.34 -1.335,-0.139 -1.675,0.446 -0.337,0.586 -0.135,1.336 0.45,1.673 0.193,0.113 0.404,0.165 0.609,0.165 0.426,0 0.836,-0.22 1.063,-0.612 0.34,-0.585 0.138,-1.335 -0.447,-1.672 z"
   id="path59" />
<path
   d="m 34.407,82.533 c -0.588,-0.34 -1.335,-0.138 -1.675,0.447 -0.337,0.588 -0.138,1.336 0.45,1.676 0.193,0.11 0.401,0.162 0.609,0.162 0.426,0 0.836,-0.218 1.063,-0.612 0.34,-0.586 0.138,-1.336 -0.447,-1.673 z"
   id="path61" />
<path
   d="m 42.457,87.18 c -0.585,-0.337 -1.335,-0.138 -1.672,0.45 -0.34,0.585 -0.138,1.336 0.447,1.672 0.193,0.113 0.404,0.166 0.612,0.166 0.423,0 0.833,-0.221 1.063,-0.613 0.337,-0.588 0.137,-1.335 -0.45,-1.675 z"
   id="path63" />
<path
   d="m 30.379,80.209 c -0.585,-0.338 -1.335,-0.139 -1.672,0.447 -0.337,0.588 -0.138,1.335 0.447,1.675 0.193,0.11 0.404,0.165 0.613,0.165 0.422,0 0.836,-0.22 1.062,-0.612 0.338,-0.588 0.138,-1.338 -0.45,-1.675 z"
   id="path65" />
<path
   d="m 17.693,73.072 c -0.325,0 -0.64,0.132 -0.867,0.358 -0.229,0.229 -0.358,0.545 -0.358,0.867 0,0.321 0.129,0.637 0.358,0.866 0.227,0.227 0.542,0.358 0.867,0.358 0.322,0 0.637,-0.132 0.867,-0.358 0.227,-0.229 0.358,-0.545 0.358,-0.866 0,-0.322 -0.132,-0.638 -0.358,-0.867 -0.23,-0.226 -0.545,-0.358 -0.867,-0.358 z"
   id="path67" />
<path
   d="m 17.708,68.447 c -0.677,-0.003 -1.229,0.597 -1.229,1.273 -0.002,0.677 0.546,1.28 1.223,1.28 0,0 0,0 0.003,0 0.674,0 1.222,-0.6 1.225,-1.273 0.004,-0.677 -0.545,-1.28 -1.222,-1.28 z"
   id="path69" />
<path
   d="M 97.318,67 H 2.37 c -0.254,0 -0.459,0.246 -0.459,0.5 0,0.254 0.205,0.5 0.459,0.5 h 94.949 c 0.254,0 0.46,-0.246 0.46,-0.5 0,-0.254 -0.207,-0.5 -0.461,-0.5 z"
   id="path71" />
</svg>
