<?xml version="1.0" encoding="UTF-8" standalone="no"?>
<svg
   width="128"
   height="128"
   viewBox="0 0 128 128"
   version="1.1"
   id="svg4"
   sodipodi:docname="Gnuplot.svg"
   inkscape:version="1.3.2 (091e20e, 2023-11-25, custom)"
   xmlns:inkscape="http://www.inkscape.org/namespaces/inkscape"
   xmlns:sodipodi="http://sodipodi.sourceforge.net/DTD/sodipodi-0.dtd"
   xmlns="http://www.w3.org/2000/svg"
   xmlns:svg="http://www.w3.org/2000/svg"
   xmlns:rdf="http://www.w3.org/1999/02/22-rdf-syntax-ns#"
   xmlns:cc="http://creativecommons.org/ns#"
   xmlns:dc="http://purl.org/dc/elements/1.1/">
  <defs
     id="defs4" />
  <sodipodi:namedview
     id="namedview4"
     pagecolor="#ffffff"
     bordercolor="#111111"
     borderopacity="1"
     inkscape:showpageshadow="0"
     inkscape:pageopacity="0"
     inkscape:pagecheckerboard="1"
     inkscape:deskcolor="#d1d1d1"
     inkscape:zoom="4.2592135"
     inkscape:cx="82.526973"
     inkscape:cy="74.779064"
     inkscape:window-width="1920"
     inkscape:window-height="1009"
     inkscape:window-x="-8"
     inkscape:window-y="-8"
     inkscape:window-maximized="1"
     inkscape:current-layer="svg4" />
  <title
     id="title1">file_type_gnuplot</title>
  <rect
     x="2.6102862"
     y="2.6102862"
     width="122.56915"
     height="122.57372"
     style="fill:#eaeaea;stroke-width:4.57143"
     id="rect1" />
  <path
     d="m 13.860571,126.58743 a 2.2857143,2.2857143 0 0 1 -1.677714,-3.83086 L 76.114286,53.485714 a 2.048,2.048 0 0 1 1.718857,-0.736 2.2857143,2.2857143 0 0 1 1.691428,0.790857 L 99.12229,76.288 l 24.448,-27.862857 a 2.2857143,2.2857143 0 1 1 3.43771,3.012571 L 100.82286,81.275429 A 2.2857143,2.2857143 0 0 1 99.104,82.052571 v 0 A 2.2857143,2.2857143 0 0 1 97.380571,81.257143 L 77.723429,58.468571 15.542857,125.85143 a 2.2857143,2.2857143 0 0 1 -1.682286,0.736 z"
     style="fill:#0303fe;stroke-width:4.57143"
     id="path1" />
  <path
     d="m 19.753143,89.494857 v 0 A 2.2857143,2.2857143 0 0 1 18.016,88.685714 L 1.1474286,68.827429 a 2.2880823,2.2880823 0 0 1 3.488,-2.962286 L 19.762286,83.693714 54.752,42.770286 a 2.2857143,2.2857143 0 0 1 1.728,-0.8 v 0 a 2.2857143,2.2857143 0 0 1 1.728,0.786285 l 7.259429,8.374858 36.201141,-48.9965719 a 2.2880559,2.2880559 0 0 1 3.68,2.72 L 67.460571,56.132571 a 2.2857143,2.2857143 0 0 1 -1.750857,0.914286 2.1668571,2.1668571 0 0 1 -1.828571,-0.781714 L 56.502857,47.748571 21.485714,88.685714 a 2.2857143,2.2857143 0 0 1 -1.732571,0.809143 z"
     style="fill:#03fe03;stroke-width:4.57143"
     id="path2" />
  <path
     d="m 125.28914,122.69257 a 2.2857143,2.2857143 0 0 1 -1.72343,-0.78628 L 90.093714,83.474286 67.337143,109.43086 a 2.2857143,2.2857143 0 0 1 -1.718857,0.77257 v 0 a 2.2857143,2.2857143 0 0 1 -1.718857,-0.78629 L 1.184,36.992 A 2.2857143,2.2857143 0 1 1 4.64,34.002286 L 65.632,104.44343 88.379429,78.491429 a 2.2857143,2.2857143 0 0 1 1.718857,-0.777143 v 0 a 2.2857143,2.2857143 0 0 1 1.718857,0.786285 l 35.199997,40.406859 a 2.2857143,2.2857143 0 0 1 -1.72343,3.78514 z"
     style="fill:#fd0303;stroke-width:4.57143"
     id="path3" />
  <path
     d="M 123.42857,4.5714286 V 123.42857 H 4.5714286 V 4.5714286 H 123.42857 M 128,0 H 0 v 128 h 128 z"
     id="path4"
     style="stroke-width:4.57143" />
  <metadata
     id="metadata4">
    <rdf:RDF>
      <cc:Work
         rdf:about="">
        <dc:title>file_type_gnuplot</dc:title>
      </cc:Work>
    </rdf:RDF>
  </metadata>
</svg>
