<svg xmlns="http://www.w3.org/2000/svg" viewBox="0 0 128 128">
    <path fill="#53b9ff" d="m20.613 51.75-5.851 5.848-5.817-5.82L5.18 55.55l15.39 15.414 3.77-3.77-5.809-5.828 5.848-5.855Zm79.059 3.047c-1.14 0-1.961.8-1.961 1.914 0 1.11.82 1.887 1.96 1.887 1.141 0 1.966-.778 1.966-1.891 0-1.11-.825-1.91-1.965-1.91Zm-61.649 1.215c-4.457 0-7.546 3.445-7.546 7.746 0 4.27 3.09 7.715 7.546 7.715 4.489 0 6.758-3.047 7.168-5.696h-3.449c-.41 1.594-1.883 2.703-3.75 2.703-2.476 0-4.258-1.96-4.258-4.722 0-2.793 1.782-4.754 4.258-4.754 1.867 0 3.34 1.11 3.75 2.703h3.45c-.41-2.648-2.684-5.695-7.169-5.695Zm64.723.648v14.531h3.242v-9.074h2.492v-2.57h-2.492V56.66Zm-98.95.242L.028 60.676 5.84 66.5 0 72.36l3.754 3.773 5.851-5.86 5.82 5.817 3.766-3.774Zm47.505 2.383c-3.469 0-5.5 2.703-5.5 6.082 0 3.371 2.031 6.082 5.5 6.082 1.687 0 3.039-.625 3.789-1.687v1.418h2.992V59.555H55.09v1.418c-.758-1.07-2.102-1.688-3.79-1.688Zm14.988 0c-1.687 0-3.043.63-3.793 1.692v-1.422h-2.988v15.558h3.242v-5.168c.621.793 1.852 1.504 3.54 1.504 3.468 0 5.5-2.703 5.5-6.082 0-3.367-2.032-6.082-5.5-6.082Zm11.766 0c-3.47 0-5.5 2.703-5.5 6.082 0 3.371 2.03 6.082 5.5 6.082 1.687 0 3.039-.625 3.789-1.687v1.418h2.992V59.555h-2.992v1.418c-.758-1.07-2.102-1.688-3.79-1.688Zm13.699 0c-3.473 0-5.996 2.617-5.996 6.082s2.523 6.082 5.996 6.082c3.715 0 5.476-2.55 5.703-4.527h-3.332c-.254 1-1.207 1.73-2.395 1.73-1.738 0-2.738-1.332-2.738-3.285 0-1.949 1-3.281 2.738-3.281 1.188 0 2.141.73 2.395 1.727h3.332c-.227-1.973-1.988-4.528-5.703-4.528Zm22.465 0c-3.832 0-6.278 2.778-6.278 6.082 0 3.309 2.446 6.082 6.278 6.082 3.828 0 6.273-2.773 6.273-6.082 0-3.305-2.445-6.082-6.273-6.082Zm13.394.153c-2.008 0-2.91.925-3.336 1.617v-1.508h-2.957v11.648h3.207v-5.797c0-2.132.977-3.043 2.844-3.043.29 0 .629.063.629.063v-2.957s-.273-.023-.387-.023Zm-29.562.109V71.18h3.246V59.547Zm-46.063 2.516c1.809 0 2.95 1.417 2.942 3.304 0 1.887-1.14 3.309-2.942 3.309-1.8 0-2.941-1.422-2.941-3.309 0-1.887 1.14-3.305 2.941-3.305Zm13.614 0c1.8 0 2.941 1.417 2.941 3.304 0 1.887-1.14 3.309-2.941 3.309-1.809 0-2.95-1.422-2.942-3.309 0-1.887 1.14-3.305 2.942-3.305Zm13.14 0c1.809 0 2.95 1.417 2.942 3.304 0 1.887-1.141 3.309-2.942 3.309-1.8 0-2.945-1.422-2.945-3.309 0-1.887 1.144-3.305 2.945-3.305Zm35.477 0c1.71 0 3.031 1.218 3.031 3.304s-1.32 3.309-3.031 3.309-3.031-1.223-3.031-3.309c0-2.086 1.32-3.305 3.03-3.305Zm0 0"/>
</svg>
