<svg xmlns="http://www.w3.org/2000/svg" viewBox="0 0 128 128"><g transform="matrix(.5 0 0 0.5-83.937446-52.995941)"><path d="M247.158569,254.42305c2.270722-7.514725,4.457062-14.640381,6.893113-21.679596.477432-1.379623,1.837768-3.274719,2.943344-3.383545c1.091766-.107483,2.701263,1.532379,3.523651,2.776032c4.94574,7.479034,9.730316,15.064636,14.830261,22.807327c4.120209,5.370514,7.927277,10.588074,11.863373,15.706421c1.576904,2.050598,2.775421,4.085418.123108,5.925811-7.185517,4.985993-14.073944,10.641205-21.84607,14.480561-9.97528,4.927704-17.897796.83902-19.20346-10.132263-1.016098-8.538147.490356-17.376496.87268-26.500748Z" fill="#fc4154"/><path d="M292.649567,254.057983c15.591095-1.273529,30.837371-2.383316,46.067932-3.678085c2.829986-.240585,5.417694-.832901,6.344635,3.255707.723358,6.967544,1.481903,13.561661,1.853027,20.177505.146149,2.605347-.345581,5.311707-.939453,7.881317-1.925262,8.329896-7.731903,12.16034-15.975281,9.661713-5.141021-1.558288-10.581909-3.752319-14.558014-7.196655-8.753814-7.5831-16.727234-16.077576-24.881683-24.335846-2.528748-2.560913-2.07431-4.767975,2.088837-5.765656Z" transform="translate(0 0.000001)" fill="#fc4154"/><path d="M262.689301,196.496628c-5.602906,11.666473-11.110138,22.974609-16.556824,34.311813-.933228,1.94249-1.301422,4.226532-2.514984,5.938568-.755936,1.066422-3.041275,2.262635-3.9039,1.852371-8.951172-4.257141-18.065339-8.316467-26.50409-13.463806-7.821441-4.770767-6.708053-14.377105.101441-20.733886c2.439178-2.277024,5.585418-3.796631,8.566986-5.972886c12.229171-3.702545,24.274337-7.192382,36.395508-10.394607c2.165374-.572067,4.645446.046829,6.980194.115784-.602448,2.219436-1.190339,4.443008-1.819031,6.654983-.133393.469406-.415558.89653-.7453,1.691666Z" fill="#fb4154"/><path d="M366.262146,198.771271c4.114868,2.512405,8.189789,4.748108,11.878052,7.501709c6.863037,5.123916,7.907165,12.681274,1.935608,18.799667-3.847077,3.94162-8.591584,7.806748-13.675507,9.58046-11.687988,4.077804-23.813904,6.91484-35.811005,10.069412-1.16098.305267-3.521362-.370438-3.81134-1.152207-.462982-1.248107.021912-3.122787.666016-4.463546c5.639007-11.73822,11.435058-23.40094,17.090576-35.131363.768066-1.593048,1.017395-3.436234,1.545685-5.551178c4.882904-7.203232,2.135772-6.144577,11.266418-3.249909c1.085877.344254,2.16449.711304,3.815155,1.389405c1.657929.670303,2.747193,1.018966,3.836426,1.367614.349853.265641.699676.531281,1.263916.839936Z" fill="#fb4154"/><path d="M339.07074,196.620209c-1.439514,2.347763-2.909333,4.312896-4.37912,6.27803-1.939087-2.232788-3.878204-4.465561-6.126526-6.84169-6.783203-9.983414-12.997589-20.007385-19.803192-29.612442-6.987061-9.861099-8.952179-7.610352,2.139099-16.052322c5.473724-4.166199,11.640289-7.760224,18.012543-10.321274c7.765716-3.121063,13.087036-.082962,16.08374,7.800506c3.206787,8.436127,2.320862,17.081971.433166,25.547822-1.716522,7.69844-4.228637,15.219482-6.35971,23.20137Z" transform="translate(0 0.000001)" fill="#fc4154"/><path d="M303.886475,174.159088c-1.200287,1.134171-2.343415,2.454315-3.569886,2.536957-7.569732.510025-15.176422.516922-22.73526,1.129898-7.160308.580658-14.330719,1.400528-21.397125,2.669464-6.527695,1.172211-7.770859,1.017349-8.349075-5.408493-.7538-8.376755-1.577317-16.926071-.695542-25.223083.966217-9.091446,7.367173-12.435502,16.358399-10.188874c1.765503.441162,3.579742.906433,5.188415,1.721802c14.766083,7.484436,25.695099,19.172318,35.200074,32.762329Z" fill="#fc4154"/><path d="M320.579956,197.081329c2.812286,4.79567,5.186432,9.485794,7.88916,13.978272c1.828797,3.039841,1.901276,5.736175.10138,8.78952-4.386628,7.441437-8.401612,15.112381-13.047882,22.383103-1.182587,1.85057-4.118897,3.510284-6.325867,3.612823-8.800049.408859-17.641663.411179-26.441284-.002258-2.1987-.103302-5.115387-1.799027-6.299469-3.65683-4.727478-7.417221-9.112366-15.07869-13.134644-22.901413-1.021698-1.987015-1.028168-5.242127-.130432-7.323273c2.253082-5.22316,5.290161-10.108124,8.059692-15.493408.19925-.430084.456391-.462326.489045-.565582c3.198883-10.108155,10.514251-12.249832,20.12915-11.032883c5.221161.660828,10.607666.346329,15.895416.045929c4.235535-.240616,6.8956,1.334427,8.626068,5.130203c1.084503,2.378937,2.580201,4.57045,4.189667,7.035797m-6.565063,1.410248c-2.183777-6.149475-6.595093-7.65068-12.878632-7.426361-23.608612.842926-15.988983-3.470703-28.326874,16.148117-3.81195,6.061508-3.734558,10.62265.041321,16.637421c12.2435,19.503113,4.783661,15.224243,27.860474,16.098923c6.697998.253875,9.914398-2.481965,13.858001-7.729187c8.727295-11.612229,9.508881-22.101502-.55429-33.728913Z" transform="translate(.000001 0)" fill="#f7d34b"/><path d="M314.192108,198.814667c9.885956,11.304321,9.10437,21.793594.377075,33.405823-3.943603,5.247222-7.160003,7.983062-13.858001,7.729187-23.076813-.87468-15.616974,3.40419-27.860474-16.098923-3.775879-6.014771-3.853271-10.575913-.041321-16.637421c12.337891-19.61882,4.718262-15.305191,28.326874-16.148117c6.283539-.224319,10.694855,1.276886,13.055847,7.749451m-1.105255,21.620666c.378387-2.610412,1.847046-5.688461.960205-7.75621-6.265869-14.608948-6.731262-14.742615-22.419983-14.597458-.664642.006149-1.44162-.214584-1.973663.053131-1.828095.919846-4.155396,1.58638-5.253296,3.102112-9.10434,12.569229-8.969147,13.365692-1.226318,26.827881c2.094513,3.641693,4.698974,5.020538,8.849945,4.918579c16.68222-.40976,12.288879,2.08995,21.06311-12.548035Z" transform="translate(.000001 0.000001)" fill="#09283a"/><path d="M312.920105,220.773987c-8.607483,14.299331-4.214142,11.799621-20.896362,12.209381-4.150971.101959-6.755432-1.276886-8.849945-4.918579-7.742829-13.462189-7.878022-14.258652,1.226318-26.827881c1.0979-1.515732,3.425201-2.182266,5.253296-3.102112.532043-.267715,1.309021-.046982,1.973663-.053131c15.688721-.145157,16.154114-.01149,22.419983,14.597458.886841,2.067749-.581818,5.145798-1.126953,8.094864m-26.648193-.544037c1.543792,1.880341,2.739807,4.358536,4.710571,5.504913c3.184723,1.852539,10.785797.317215,12.540558-1.855072c4.613525-5.711303,4.903625-8.47406,1.499664-14.281952-2.57019-4.385406-10.172638-6.59259-14.656067-4.25505-3.925537,2.046661-6.388,9.963424-4.094726,14.887161Z" transform="translate(.000001 0)" fill="#f6d24b"/><path d="M286.106323,219.900879c-2.127685-4.594666.334778-12.511429,4.260315-14.55809c4.483429-2.33754,12.085877-.130356,14.656067,4.25505c3.403961,5.807892,3.113861,8.570649-1.499664,14.281952-1.754761,2.172287-9.355835,3.707611-12.540558,1.855072-1.970764-1.146377-3.166779-3.624572-4.87616-5.833984m5.954682-5.95044c.752319,1.80069,1.187988,3.876557,2.403167,5.27501.53183.61203,3.125397.336578,3.939515-.430649c1.007995-.949921,1.71701-2.90358,1.537658-4.292191-.451385-3.494659-3.843811-3.983307-7.88034-.55217Z" transform="translate(0 0.000001)" fill="#082739"/><path d="M292.22113,213.590607c3.876404-3.071305,7.26883-2.582657,7.720215.912002.179352,1.388611-.529663,3.34227-1.537658,4.292191-.814118.767227-3.407685,1.042679-3.939515.430649-1.215179-1.398453-1.650848-3.47432-2.243042-5.634842Z" transform="translate(0 0.000001)" fill="#f6d24b"/></g><g transform="matrix(.15 0 0 0.15-48.242462 70.935122)"><path d="M755.353577,243.180328c-5.989197-11.601364-7.712647-23.900528-6.030518-36.24971c1.926514-14.14357,7.547669-26.959457,21.443909-33.470382c13.994995-6.557206,28.301147-6.282029,41.181579,2.749527c4.62616,3.243789,7.530274,8.943649,11.589844,14.074844c8.203674,21.426651,8.72699,41.54451-5.587585,60.247208-.551209.720138.187072,2.427261.324463,3.674453c1.541381,2.519837,3.082763,5.039673,4.903442,8.016175-4.60437,3.011596-9.210022,6.024047-14.650757,9.582672-2.858337-11.187012-10.59967-9.976074-19.281738-9.516663-14.696472.777649-26.406006-5.509857-33.892639-19.108124m47.510009-48.472396c-10.357666-10.840485-25.476928-8.04741-30.746398,6.118698-4.025086,10.820984-3.796631,21.918899,1.16278,32.560211c3.249512,6.972534,9.010742,10.260803,16.64563,9.700256-2.37616-3.525558-4.634033-6.875534-6.963074-10.331222c5.095581-3.26062,9.69397-6.203064,14.505738-9.282044c2.44989,3.561264,4.723083,6.865586,7.573669,11.009247c5.08728-14.054123,5.951355-26.792297-2.178345-39.775146Z" fill="#001f34"/><path d="M418.904541,251.456726c-.02417-17.812607.025757-35.17038.001709-52.991562-.073975-9.268402-.073975-18.07341-.073975-27.565582c3.066407,0,5.815644-.001648,8.564881.00029c12.318756.008713,24.638641-.084839,36.955932.053589c15.854493.178177,24.729126,6.440109,28.394532,19.750442c3.892242,14.134186-1.383179,27.344086-13.964905,34.991913-.273987.166534-.488037.43158-.984741.881332c2.417114,5.003586,4.851867,10.043686,7.599487,15.650849.752319,1.298691,1.191772,2.030289,1.631226,2.761886c2.337738,5.187836,4.675506,10.375657,7.216766,16.015091-7.000488,0-13.43161.13852-19.846405-.123535-1.200806-.049042-2.33606-1.70169-3.884705-3.164306-4.593506-8.977677-8.734344-17.44162-13.091308-25.792801-.632538-1.212403-2.2547-2.603424-3.495819-2.68097-4.922883-.307602-9.876313-.12651-14.93628-.12651c0,9.656021,0,18.769501,0,27.882965-.133117,1.145508-.266266,2.291016-.432647,3.722717-6.327729,0-12.705841,0-19.579621,0c0-2.957733,0-5.884369-.074127-9.265808m28.657288-62.164505c-2.787415,0-5.574829,0-8.471161,0c0,7.385651,0,14.247482,0,21.395874c8.496551,0,16.632446.227417,24.748993-.070816c6.685608-.245651,9.825988-4.015427,9.733703-10.720154-.090698-6.586929-3.371368-10.181671-10.052734-10.515106-4.980286-.248535-9.981568-.075409-15.958801-.089798Z" fill="#001f34"/><path d="M1061.798584,237.540955c-5.041138,13.111175-10.044434,25.84671-15.119995,38.952087-1.379151,3.3862-2.686157,6.402557-3.945068,9.308166-6.629761,0-13.062623,0-19.445862,0c2.952575-8.084716,5.843689-16.000885,9.092712-24.44934.3479-1.142304.505859-1.815705.303223-2.35318-6.247437-16.568894-12.514221-33.130539-18.842041-49.668762-.428162-1.119019-1.356629-2.04657-2.421692-3.602829-.652832,3.837982-1.164673,6.847061-1.710938,10.058258-1.554626-.85112-2.824585-1.621766-4.156555-2.263611-10.38678-5.005203-18.516296-.307129-18.721252,11.123581-.19928,11.113632.081543,22.23587.15155,33.354309-.90802,1.002838-1.772034,2.821228-2.731262,2.872925-5.270142.284027-10.563599.135589-16.341309.135589c0-2.579925,0-4.842712-.081482-7.555572-.081421-19.571503-.081421-38.692932-.081421-58.350327c5.802979,0,11.091797-.196991,16.346314.14032c1.292175.082962,2.472534,1.908249,3.921814,3.113419c4.702148-5.726105,11.209534-4.554795,18.13031-3.462555c5.410522.853866,11.069702.398468,16.59967.133529c3.594422-.17218,5.291565.748596,6.607117,4.498795c4.093384,11.668014,8.862915,23.098862,13.752441,35.598816c5.319458-13.817124,10.322632-26.812561,15.363282-39.905274c6.169922,0,12.320678,0,19.265747,0-5.363037,14.150803-10.630249,28.048401-15.935303,42.321656Z" fill="#001f34"/><path d="M555.808105,244.400375c-.167602-14.910293,7.771485-23.480865,22.683167-24.277053c5.89801-.314942,11.856506.502777,17.913086.811172c1.536011-7.384048-2.74115-12.701843-11.193726-11.539856-6.926757.952255-13.63507,3.492996-21.17511,5.527924-1.102722-2.801438-2.850158-6.677201-4.073608-10.711838-.341064-1.124802.457825-3.437943,1.426331-3.989304c12.24292-6.96965,25.312317-8.083954,38.748718-4.451507c9.69165,2.620056,14.11322,9.977264,14.810242,19.359192.66455,8.944793.336303,17.963333.514343,27.41362.069885,6.279083.069885,12.093994.069885,17.843139-10.437744,1.930512-18.781372.955017-19.756653-1.457-4.969665,1.106811-9.783935,2.124084-14.571106,3.256225-11.108398,2.627136-25.529358-5.785675-25.395569-17.784714m24.390259,2.193207c3.730225-.422561,7.559998-.453323,11.164856-1.369263c4.275879-1.08641,7.020386-3.70198,4.551087-10.109725-4.833496,0-10.286682-.529404-15.548645.24327-2.320374.340744-5.350098,2.954682-6.107727,5.195801-1.182373,3.497681,1.951721,5.12616,5.940429,6.039917Z" fill="#001f34"/><path d="M923.859131,194.213654c6.7005.351654,13.583679-.287049,19.753174,1.516143c11.719787,3.425476,17.086425,12.734909,18.259094,24.464615.444092,4.442185.072082,8.965943.072082,14.106903-14.176513,0-28.057861,0-42.081237,0-.423767,5.313065,1.473327,8.828736,5.610839,10.714478c8.399537,3.828308,15.493409.905701,22.020264-5.221893c3.501343,3.718154,6.894409,7.321334,10.227844,11.224304-7.855835,9.189377-18.348816,11.957962-29.410339,11.785476-8.461365-.131988-15.661072-4.277832-21.028137-12.01715-6.994995-10.184052-7.46405-21.328064-5.861939-32.077363c1.839661-12.3432,9.336243-21.116668,21.976136-24.538665c0,0,.322692.155395.462219.043152m9.394287,15.439315c-8.800354.014573-13.15387,3.538742-12.851868,10.484925c7.769959,0,15.541626,0,23.345764,0-.992675-6.7137-3.125183-8.966553-10.493896-10.484925Z" fill="#001f34"/><path d="M493.247192,238.402634c.498749-8.229767.010376-16.67392,1.739808-24.636368c2.290466-10.545441,9.671295-17.385895,20.511047-19.203903c12.086792-2.027161,23.750854-.831131,31.973328,9.661422c6.889343,8.791474,6.910278,19.236847,5.627685,30.182419-14.058899,0-27.805481,0-41.945892,0-.08664,5.173905,1.860565,8.621231,6.083404,10.767853c6.377259,3.241821,14.226868,1.381226,21.522278-5.18222c1.06781.952301,2.160523,1.926834,3.547058,3.027954c2.528992,2.545654,4.764221,4.964721,6.9823,7.365158-11.053894,16.052093-44.432007,19.171783-54.155182-6.469132-.76178-2.27124-1.323791-3.892212-1.885834-5.513183m18.173066-18.469727c7.87442,0,15.748809,0,23.692169,0c.030761-.501907.169311-1.006927.073303-1.462524-1.178345-5.593872-4.757446-8.492386-10.890869-8.864456-6.888001-.417878-10.608582,2.291488-12.874603,10.32698Z" fill="#001f34"/><path d="M894.918274,251.997787c-.160339,2.792267-.320679,5.584549-.499146,8.692124-6.325744,0-12.560974,0-19.151794,0-.158752-1.019013-.348022-2.2341-.584961-3.754608-.69519.265899-1.32074.38269-1.805725.70874-9.210022,6.191315-18.689026,7.151123-28.356934,1.224792-1.842468-1.129455-3.208557-3.035949-5.170959-5.102691-1.707642-5.590286-3.933045-10.617172-4.188721-15.742325-.579956-11.625259-.190552-23.29892-.194702-34.952896-.000977-2.591538-.000122-5.183075-.000122-7.671066c6.607605,0,12.517822,0,18.836121,0c0,1.928085-.007264,3.558044.001281,5.187942.05835,11.153351.011719,22.308762.224182,33.459213.113099,5.930191,2.841614,9.238602,7.296448,10.10791c5.292359,1.032761,11.684021-.970855,13.22992-6.98262.775634-3.016342,1.221008-6.19516,1.264404-9.308166.149963-10.772736.057861-21.548844.057861-32.766495c4.747132,0,9.064026.317017,13.312439-.086472c4.519776-.429245,5.581299,1.247818,5.543701,5.578675-.149047,17.134155.090943,34.271667.186707,51.407943Z" fill="#001f34"/><path d="M622.049133,243.338928c-.773376-5.091949-1.833801-9.835342-1.967529-14.604736-.315918-11.266922,2.604004-21.679627,11.813599-28.804947c3.887085-3.007401,9.211242-5.107132,14.108215-5.677078c13.379639-1.55719,25.358765,1.201553,32.181152,14.651977.207337.408799.710999.667282,1.43335,1.255402.349304.609253.341736.958938.305969,1.726257-.695251,1.330643-1.177551,2.751496-2.059997,3.072541-4.961548,1.805038-10.01941,3.345352-15.185303,5.021682-2.526306-5.46112-6.068482-9.069275-12.416321-8.18103-5.821289.814575-8.803711,4.959564-9.752869,10.015198-.804382,4.284347-.673523,8.993484.194153,13.28183c1.186157,5.862106,5.333679,9.265472,10.196778,9.492584c5.565429.259933,8.972778-2.803772,11.041015-7.696137.235047-.555923.626709-1.045639,1.012268-1.674545c5.907227,1.721314,11.588806,3.376877,17.589051,5.12529-1.45282,3.445557-2.727295,6.468262-4.001831,9.490951-6.906922,10.359284-17.495789,13.656739-28.86731,12.89621-9.396668-.628479-18.014587-4.601562-22.514771-14.126968-.815368-1.725952-1.974853-3.289353-3.109619-5.264481Z" fill="#001f34"/><path d="M679.952087,211.468185c.007569-.349701.015137-.699386.015747-1.311386-.006958-5.051284-.006958-9.840271-.006958-15.050872c3.219361,0,5.958741,0,9.034913,0c0-5.386002-.111756-10.351807.077453-15.306107.048096-1.259522.725586-3.147842,1.671387-3.612549c5.474548-2.689773,11.115845-5.039902,17.346741-7.7901c0,8.960068,0,17.472168,0,26.544327c5.080993,0,9.637878,0,14.467651,0c0,5.649338,0,10.735229,0,16.507843-4.612,0-9.178101,0-14.166199,0c0,10.804367-.13562,20.937607.16803,31.057678.038818,1.294769,2.365112,2.52092,4.413757,3.752838c2.23816-.334976,3.694275-.643905,5.150391-.95282c1.302307-.40242,2.604614-.80484,4.261108-1.201629.028565,4.629776-.223571,9.261413-.694519,13.870697-.078979.773193-.9729,1.872467-1.71466,2.104797-6.738831,2.110626-13.468384,3.837708-20.637329,1.560577-6.430909-2.042724-8.714051-6.738754-9.341919-13.699752-.032837-12.577942-.032837-24.288849-.032837-36.473542-3.761475,0-6.887146,0-10.012757,0Z" fill="#001f34"/></g></svg>
