<svg xmlns="http://www.w3.org/2000/svg" viewBox="0 0 128 128"><path fill="#368ecd" d="M63.7-.3c.3 0 3.5 1.7 7.1 3.8 3.6 2 7.2 4.1 8 4.7 1.2.8 1.4 1.3 1.4 5.9l19.1 11 .2 19.6 5.2 2.8.1 19.4-2.8 1.5c-1.5.8-5 2.9-7.8 4.6-2.8 1.7-5.3 3-5.6 3-.3 0-2-.8-3.7-1.8-1.7-1-3.4-1.8-3.7-1.8-.2 0-4.3 2.2-17.5 9.8l-8.1-4.7c-4.4-2.6-8.3-4.9-8.6-5-.3-.1-2 .6-3.8 1.7-1.8 1-3.5 1.8-3.8 1.8-.3 0-2.2-1-4.3-2.3-2.1-1.2-5.5-3.2-7.7-4.5-2.1-1.2-4.1-2.5-4.3-2.8-.2-.3-.4-4.5-.4-9.2 0-4.7.2-8.9.4-9.2.2-.3 1.4-1.1 4.9-3.1l-.1-19.3 3.5-2.1c2-1.2 6.2-3.6 15.6-9l.3-5.6 8-4.6c4.3-2.5 8.2-4.6 8.4-4.6zm-9.4 10.6c3.3 1.9 5.4 3.1 6.8 3.9l2.6 1.4 9.4-5.3c-4.4-2.4-6.5-3.6-7.6-4.2L63.7 5zM66 19.8v10.7c3.9-2.2 6-3.5 7.2-4.2l2.2-1.3c0-8.3 0-10.7-.1-10.7-.1.1-2.2 1.3-4.7 2.8zm-14.1 5.5c5.5 2.9 7.6 4.1 8.2 4.5l1.2.7V19.8c-6.7-3.8-8.8-5-9-5-.2 0-.4 2.4-.4 5.2zm-19.1 2.8c.2 10.4.5 13.4.7 13.3.3-.1 1.7-.8 3.3-1.6l2.8-1.5 16.2 9.4.3 18.9c-3.7 2.3-4.7 2.9-4.6 3 .1 0 2.9 1.6 6.3 3.5l6.1 3.5 12.8-7.2-4.9-2.8.2-18.9 16.2-9.4c4.4 2.3 5.9 3 6.1 3.1.3.1.5-2.9.5-6.6V28c-11-6.1-14.3-7.9-14.4-7.9-.2 0-.3 1.8-.4 4l-.1 4-16.2 9.3-16.2-9.2c-.3-6.3-.5-8.1-.7-8-.2 0-3.4 1.8-7.2 3.9zm2.4 18.1c-2.3 1.4-4.3 2.6-4.4 2.8-.2.3 1.5 1.5 3.7 2.8 2.2 1.3 4.4 2.3 4.8 2.3.5 0 2.7-1.1 5.1-2.5l4.2-2.4-9.3-5.4zm44 3c6.6 3.8 8.8 4.9 9.2 4.9.3 0 2.1-.8 3.9-1.8 1.8-1 3.7-2.1 4.3-2.5 1-.7.8-.9-3.3-3.2-2.4-1.3-4.6-2.4-4.9-2.4-.4 0-2.6 1.1-5 2.5zm-51 15.1 8.6 5 .2-10.9c-6.4-3.5-8.4-4.6-8.6-4.7-.2-.1-.4 2.3-.3 5.2zm13.9-5.7L42 69.3l8.7-5c.2-8.3.1-10.6-.2-10.6-.2 0-2.2 1.1-4.4 2.5zm35.3 5.7 8.6 5V58.6c-2.7-1.5-4.6-2.7-6.1-3.5l-2.7-1.6zm13.9-6v11l8.6-5c.2-8.3.1-10.6-.1-10.6s-2.3 1.1-4.5 2.3zm14.9 35.1c2.9 0 4.2.3 6 1.3 1.3.7 2.9 2 3.5 3 .7.9 1.4 2.5 1.7 3.5.3 1 .6 2.2.6 2.7 0 .8-.5.9-6.8.9l-.3-1.8c-.2-1.2-.7-2.2-1.7-2.9-.8-.6-2.2-1-3.2-1-1.1 0-2.4.3-3.1.8-.6.4-1.4 1.6-1.8 2.7-.3 1.1-.6 4.7-.6 8 0 3.4.3 6.9.6 8 .4 1 1.2 2.3 1.8 2.7.7.4 2 .8 3.1.8 1 0 2.4-.4 3.2-1 1-.7 1.5-1.7 2-4.8h3.4c3.3 0 3.4.1 3.4 1.5 0 .8-.5 2.4-1 3.5-.5 1.2-1.8 2.9-2.9 3.8-1 .9-2.8 1.9-3.8 2.2-1.1.3-3.3.5-4.9.5-1.9 0-3.6-.4-5.1-1.1-1.3-.7-3-2-3.8-3-.7-1-1.8-3-2.2-4.5-.6-1.8-.9-4.4-.9-8.7 0-4.6.2-6.8.9-8.7.6-1.3 1.6-3.3 2.3-4.4.7-1.1 2.3-2.3 3.6-3 1.7-.7 3.4-1 6-1zm-83.6 2.8.3 6h8.8v5.3h-8.8v6.2c0 5.9 0 6.4 1.1 7.4s1.7 1.1 8.5.7l.2 2.5c.1 2.3 0 2.5-1.3 2.9-.8.2-3.5.4-6 .4-3.8 0-4.8-.2-6-1.1-.8-.6-2-1.9-2.6-2.9-.8-1.5-1-2.9-1.3-16.1h-5.2v-5.3h5.2v-2.8c-.1-1.5.1-2.9.3-3.1.3-.2 1.9-.3 6.8-.1zm23.8-2.8c6.5.2 7.3.4 10.2 1.8 2.3 1.2 3.4 2.1 4.3 3.6.8 1.5 1.1 3 1.1 5 0 1.7-.4 3.8-.9 5-.5 1.1-1.8 2.6-4.8 4.7l3.4 6.4c1.9 3.5 3.4 6.6 3.4 6.9 0 .3-1.6.5-7.3.5l-6-12h-4.5v12h-6.8v-16.6c-.1-9.6.1-16.8.3-17.1.3-.2 3.7-.3 7.6-.2zm-1.1 15.9c5.1-.2 7.1-.6 7.7-.9.7-.4 1.4-1.2 1.7-1.9.3-.6.6-1.7.6-2.4 0-.8-.6-2.1-1.3-2.9-1.3-1.5-1.6-1.6-5-1.6h-3.7zm29.6-15.7c5 .1 7.3.4 8.8 1 1.2.5 2.9 1.7 3.9 2.6 1.1 1.1 2 2.7 2.5 4.5.7 2.5.7 3.3.1 5.5-.4 1.5-1.3 3.3-2 4.2-.7.8-2.5 2-3.9 2.7-2.1.9-3.6 1.2-10.7 1.2v12.1h-6.8l-.1-16.7c-.1-14.2 0-16.8.6-17 .4-.2 3.8-.2 7.6-.1zm-1.3 16c6.5 0 7-.2 8.4-1.6 1-1 1.5-2.1 1.5-3.1 0-.9-.3-2.2-.7-3-.4-.8-1.1-1.6-1.6-1.9-.5-.2-2.4-.3-4.2-.3h-3.4z"/></svg>
