<svg version="1.1" xmlns="http://www.w3.org/2000/svg" xmlns:xlink="http://www.w3.org/1999/xlink" viewBox="0 0 128 128">
	<path fill="#1572B6" d="M18.814,114.123L8.76,1.352h110.48l-10.064,112.754l-45.243,12.543L18.814,114.123z"/>
	<path fill="#33A9DC" d="M64.001,117.062l36.559-10.136l8.601-96.354H64.001V117.062z"/>
	<g transform="translate(55.000000, 142.000000)">
		<path fill="#FFFFFF" d="M9.001-90.571h18.302l1.264-14.163H9.001v-13.831h0.047h34.635l-0.332,3.711L39.951-76.74
			H9.001V-90.571z"/>
		<path fill="#EBEBEB" d="M9.083-54.651l-0.061,0.018l-15.403-4.159l-0.985-11.031h-7.484h-6.398l1.937,21.717
			L9.02-40.243l0.063-0.018V-54.651z"/>
		<path fill="#FFFFFF" d="M26.127-77.325l-1.666,18.522L9.035-54.639v14.39l28.354-7.858l0.208-2.337l2.406-26.881
			H26.127z"/>
		<path fill="#EBEBEB" d="M9.048-118.565v8.59v5.207v0.034h-33.364h-0.044l-0.277-3.108l-0.63-7.012l-0.331-3.711
			H9.048z"/>
		<path fill="#EBEBEB" d="M9.001-90.569v8.591v5.206v0.034H-6.164h-0.044l-0.277-3.108l-0.631-7.012l-0.33-3.711
			H9.001z"/>
	</g>
</svg>
