<?xml version="1.0" encoding="utf-8"?>
<!-- Generator: Adobe Illustrator 16.0.0, SVG Export Plug-In . SVG Version: 6.00 Build 0)  -->
<!DOCTYPE svg PUBLIC "-//W3C//DTD SVG 1.1//EN" "http://www.w3.org/Graphics/SVG/1.1/DTD/svg11.dtd">
<svg version="1.1" id="Layer_1" xmlns="http://www.w3.org/2000/svg" xmlns:xlink="http://www.w3.org/1999/xlink" x="0px" y="0px"
	 width="500px" height="500px" viewBox="0 0 500 500" enable-background="new 0 0 500 500" xml:space="preserve">
<path fill="#1572B6" d="M34.218,5l39.276,440.655l176.241,48.998l176.733-49.103L465.782,5H34.218z M384.183,106.265
	l-13.074,146.484l0,0l-0.01,0.587L371,254.95v-0.015l-9.242,102.711l-0.999,9.125L250,397.412v0.007l-0.086,0.07l-110.59-30.691
	L131.838,282h24.995h29.236l3.848,43.057l60.103,16.232l-0.02-0.03v-0.005l60.326-16.226L316.697,255H250l0,0h-59.234h-0.173
	l-1.082-12.178l-2.465-27.359L185.755,201H250l0,0h71.493l4.938-55h-76.243h-0.187H119.859h-0.173l-1.085-12.358l-2.461-27.269
	L114.849,92h135.153h0.187h135.29L384.183,106.265z"/>
</svg>
