<?xml version="1.0" encoding="utf-8"?>
<!-- Generator: Adobe Illustrator 16.0.0, SVG Export Plug-In . SVG Version: 6.00 Build 0)  -->
<!DOCTYPE svg PUBLIC "-//W3C//DTD SVG 1.1//EN" "http://www.w3.org/Graphics/SVG/1.1/DTD/svg11.dtd">
<svg version="1.1" id="Layer_1" xmlns="http://www.w3.org/2000/svg" xmlns:xlink="http://www.w3.org/1999/xlink" x="0px" y="0px"
	 width="500px" height="500px" viewBox="0 0 500 500" enable-background="new 0 0 500 500" xml:space="preserve">
<g>
	<path fill="#1572B6" d="M76.838,102l31.52,353.416l141.43,39.218l141.826-39.251L423.162,102H76.838z M357.68,182.652
		l-10.492,117.655l-0.059,0.522L347,302.176v-0.012l-7.366,82.424l-0.276,7.322L251,416.5v0.006l-0.569,0.057l-88.997-24.572
		L155.177,324h20.059h23.462l3.087,34.494l48.73,12.997l0.485-0.054v-0.004l47.911-13.129L303.523,302H250h-47.535h-0.139
		l-0.868-9.666l-1.978-21.841L198.443,259H250h57.372l3.963-44h-61.184h-0.15H145.564h-0.14l-0.87-10.045l-1.975-22.153L141.544,171
		h108.457h0.15H358.72L357.68,182.652z"/>
	<polygon fill="#1572B6" points="350,56.436 319.728,24 349,24 349,5 288,5 288,21.24 317.929,53 288,53 288,72 350,72 	"/>
	<polygon fill="#1572B6" points="277,56.436 246.847,24 276,24 276,5 215,5 215,21.24 245.052,53 215,53 215,72 277,72 	"/>
	<polygon fill="#1572B6" points="204,53 172,53 172,24 204,24 204,5 150,5 150,72 204,72 	"/>
</g>
</svg>
