<svg xmlns="http://www.w3.org/2000/svg" viewBox="0 0 128 128"><path fill="#0076B2" d="M97.36 47A2.33 2.33 0 0 0 95 49.34v27.35A2.33 2.33 0 0 0 97.36 79h27.24a2.34 2.34 0 0 0 2.4-2.31V49.34a2.34 2.34 0 0 0-2.4-2.34zm-77.88 4.41a2.75 2.75 0 0 0-2.75 2.75 2.75 2.75 0 1 0 2.75-2.75m83.682.229a2.75 2.75 0 0 1 1.697 2.54 2.75 2.75 0 0 1-2.75 2.75 2.75 2.75 0 1 1 1.053-5.29M.85 51.73v22.54h14.08v-4.56H5.79V51.73zm40.84 0v22.54h4.74v-7.55h.06l5.04 7.55h5.96l-6.09-8.22 6.22-7.07h-5.81l-5.38 6.22V51.73zm43.97 0v8.8h-.06a5.73 5.73 0 0 0-4.87-2c-4.34 0-7 3.92-7 8.19 0 4.65 3 7.94 7.56 7.94a6 6 0 0 0 4.71-2.4v2h4.4V51.73zm-20.53 6.76c-4.74 0-8.54 3.15-8.54 8.06s3.8 8.07 8.54 8.07a8.35 8.35 0 0 0 6.48-3l-3.32-2.45a4 4 0 0 1-3.38 1.87 3.54 3.54 0 0 1-3.57-3h11v-1.49c0-4.9-2.78-8.06-7.21-8.06m-31.58.13a5 5 0 0 0-4.49 2.47H29V59h-4.52v15.31h4.74v-7.55c0-1.99.38-3.92 2.85-3.92s2.47 2.23 2.47 4v7.43h4.7v-8.38c0-4.11-.88-7.27-5.69-7.27m83 .02c4.8 0 5.69 3.16 5.69 7.27v8.36h-4.74v-7.42c0-1.77 0-4-2.46-4s-2.85 1.93-2.85 3.92v7.55h-4.74V59H112v2.1h.06a5 5 0 0 1 4.49-2.46M17.11 59v15.26h4.74V59zm82.63 0h4.74v15.27h-4.74zM64.7 61.94a2.84 2.84 0 0 1 2.91 2.91h-6.26a3.16 3.16 0 0 1 3.35-2.91m17.529.74h.001A3.6 3.6 0 0 1 86 66.57a3.89 3.89 0 1 1-3.771-3.89"/></svg>
