<svg xmlns="http://www.w3.org/2000/svg" viewBox="0 0 128 128"><path fill="#4285F4" d="M7.6 50c1.4 0 2.8.6 3.7 1.8v-1.5h2.5v11.6h-1.7c-.4 0-.8-.3-.8-.8v-.8c-.9 1.1-2.2 1.8-3.7 1.8C4.4 62 2 59.4 2 56.2v-.1c-.1-3.3 2.3-6 5.6-6.1m.4 2.3c-1.9 0-3.5 1.6-3.4 3.5v.2c-.2 1.9 1.3 3.6 3.2 3.7 1.9.2 3.6-1.3 3.7-3.2V56c.1-1.9-1.3-3.5-3.2-3.7H8m8.6-2.1h2.5v1.5c.8-1.2 2.1-1.9 3.5-1.8 2.7 0 4.4 1.9 4.4 4.8v7h-1.7c-.4 0-.8-.3-.8-.8v-5.7c0-1.8-.9-2.9-2.4-2.9-1.7 0-3 1.3-3 3.8v5.7h-1.7c-.4 0-.8-.4-.8-.8V50.2zm18-.3c1.4 0 2.8.6 3.7 1.7v-7.3h2.5v17.3h-1.6c-.4 0-.8-.3-.8-.8V60c-.9 1.1-2.3 1.8-3.7 1.8-3.2-.1-5.7-2.8-5.5-5.9v-.1c-.2-3.1 2.2-5.7 5.4-5.9m.6 2.3c-1.9 0-3.5 1.6-3.4 3.5v.2c-.2 1.9 1.3 3.6 3.2 3.7 1.9.2 3.6-1.3 3.7-3.2v-.5c.1-1.9-1.3-3.5-3.2-3.7h-.3m8.6-2.1h2.5v2.1c.4-1.3 1.7-2.2 3-2.2.3 0 .7 0 1 .1v2.6c-.4-.1-.8-.2-1.3-.2-1.4 0-2.8 1.2-2.8 3.5v5.6h-1.8c-.4 0-.8-.3-.8-.8l.2-10.7zM57.2 62c-3.3 0-5.9-2.7-5.9-6s2.7-5.9 6-5.9 5.9 2.7 5.9 6c0 3.2-2.7 5.9-5.9 5.9h-.1m0-2.4c1.9 0 3.5-1.5 3.5-3.5V56c0-1.9-1.6-3.5-3.5-3.5s-3.5 1.6-3.5 3.5c-.1 1.9 1.4 3.5 3.3 3.6h.2m9.4-11.9c-.9 0-1.7-.8-1.7-1.7 0-.9.8-1.7 1.7-1.7.9 0 1.7.8 1.7 1.7 0 .9-.8 1.7-1.7 1.7m-1.3 2.5h2.5v11.5h-1.7c-.2 0-.4-.1-.6-.2-.1-.2-.2-.4-.2-.6V50.2zm10.2-.2c1.5 0 2.9.6 3.8 1.8v-7.4h2.5v17.3H80c-.4 0-.8-.3-.8-.8v-.8c-.9 1.1-2.2 1.8-3.7 1.8-3.2-.1-5.7-2.7-5.6-5.9v-.1c-.1-3.2 2.3-5.8 5.6-5.9-.1-.1-.1-.1 0 0m.4 2.2c-1.9 0-3.4 1.6-3.4 3.5v.2c-.2 1.9 1.3 3.6 3.2 3.7 1.9.2 3.6-1.3 3.7-3.2v-.5c.1-1.9-1.3-3.5-3.2-3.7h-.3M29.8 79.7v-5.6h-2.4v-2.3h2.4v-3.2h2.6v3.2h3.3v2.3h-3.3v5.2c0 1.5.6 2 2 2 .5 0 .9-.1 1.4-.2v2.3c-.6.2-1.3.3-1.9.3-2 .2-3.8-1.2-4-3.2-.1-.4-.1-.6-.1-.8zm39.7-2.1c0-3.4 2.7-6.1 6.1-6.1 3.4 0 6.1 2.7 6.1 6.1 0 3.4-2.7 6.1-6.1 6.1-3.3 0-6.1-2.6-6.1-5.9v-.2zm9.6 0c-.1-2-1.7-3.6-3.7-3.5-2 .1-3.6 1.7-3.5 3.7.1 2 1.7 3.6 3.7 3.5 1.9-.1 3.5-1.6 3.5-3.5v-.2zm-59.3 2.3c.2 1.1 1.3 1.9 2.4 1.7 1.1 0 1.9-.5 1.9-1.2s-.5-1.2-1.7-1.5l-1.9-.5c-1.7-.3-3-1.8-3-3.5 0-2 1.7-3.3 4.3-3.3s4.2 1.4 4.5 3.5h-2.5c-.2-.9-1-1.5-1.9-1.4-1 0-1.7.4-1.7 1.2 0 .7.5 1.1 1.6 1.4l2 .5c2.1.5 3.1 1.7 3.1 3.5 0 2.2-1.9 3.4-4.6 3.4-1.3 0-2.5-.3-3.5-1.1-.9-.6-1.5-1.6-1.5-2.7h2.5zm25.4 1.9c-.7 1.2-2 1.9-3.4 1.8-2.7 0-4.3-1.9-4.3-4.9v-7h2.6v6.5c0 1.9.8 3 2.3 3 1.7 0 2.8-1.4 2.8-3.8v-5.7h2.6v11.6h-2.6v-1.5zm14 0c-.9 1.1-2.2 1.8-3.6 1.8-3.2-.1-5.7-2.7-5.6-5.8v-.2c-.2-3.1 2.3-5.8 5.4-6h.2c1.4 0 2.8.6 3.7 1.8v-7.3h2.5v17.3h-2.6v-1.6zm-5.7-1.5c.6.7 1.5 1.1 2.5 1.1.9 0 1.8-.4 2.5-1.1 1.3-1.5 1.3-3.8 0-5.3-.6-.7-1.5-1.1-2.5-1.1-.9 0-1.9.3-2.5 1.1-1.3 1.5-1.3 3.7 0 5.3zm12.4-14.4c.9.1 1.6.9 1.6 1.8-.1.8-.7 1.5-1.6 1.6-.6 0-1.2-.3-1.5-.8-.3-.5-.3-1.2 0-1.7.4-.5.9-.9 1.5-.9zm1.3 5.9v11.6h-2.5V71.8h2.5zm30.1-22.5h4.3c-1.6 1.6-2.5 3.5-2.8 5.8h-1.7c-1.8 0-3.1-1.4-3.1-3 .1-1.6 1.5-2.8 3.3-2.8zm12.8 24.5c.3.7 2.2 4.6 2.2 4.6h-5.4s1.8-3.6 2.1-4.6c.3-.7.8-.7 1.1 0z"/><path fill="#4285F4" d="M125.9 58.9c-.3 1.4-1.8 2.4-3.5 2.4h-1.6c-.1 0-.2.1-.1.2v16.9h-2.9l-5.6-11.5c.6-.6.9-1.5.9-2.4 0-1.5-.9-2.9-2.2-3.4v-1.6c0-.7-.6-1.2-1.2-1.2h-.1c-.7 0-1.2.6-1.2 1.2V61c-1.5.5-2.5 1.9-2.5 3.5 0 1 .4 1.8 1 2.5l-5.4 11.4h-4.7c-1.8 0-3.3-1.5-3.3-3.3v-22s0-.2 0 0c.3 1.5 1.6 2.7 3.2 2.7h24.5s4.6-.4 4.7 3.1z"/><path fill="#4285F4" d="M109.5 62.7c1 0 1.8.8 1.8 1.8s-.8 1.8-1.8 1.8-1.8-.8-1.8-1.8c0-.5.2-.9.5-1.3.4-.3.8-.5 1.3-.5zm.7-1.1v-1.9c0-.2-.1-.4-.3-.5-.3-.2-.6-.1-.8.2-.1.1-.1.2-.1.3v1.9c-1.6.2-2.7 1.8-2.5 3.4.1.8.5 1.5 1.2 1.9L101 81.4c-.3.5-.2 1.1.1 1.6.5.7 1.5.9 2.2.4.2-.2.4-.4.6-.7l4.5-9.7c.3-.6 1.1-.9 1.7-.6.3.1.5.3.6.6l4.6 9.6c.4.8 1.3 1.1 2.1.7s1.1-1.3.7-2.1l-7-14.5c1.3-1 1.5-2.9.5-4.2-.2-.3-.7-.7-1.4-.9m4.5-13.8l1.7-2.9c.1-.2 0-.4-.1-.5-.1-.1-.3 0-.4.1l-1.8 3c-2.8-1.3-6-1.3-8.7 0l-1.7-3c-.1-.1-.2-.2-.3-.2-.1 0-.2.1-.3.2-.1.1-.1.3 0 .4l1.7 2.9c-2.8 1.5-4.7 4.2-5.1 7.3H120c-.6-3.1-2.5-5.8-5.3-7.3zm-9.1 4.7l-.1.1c-.2.2-.4.2-.6.2-.5 0-.8-.4-.9-.8 0-.2.1-.4.3-.6.3-.4.8-.4 1.2-.1.4.3.5.9.1 1.2zm8.8.4c-.5 0-.9-.3-.9-.8 0-.2.1-.4.3-.6.3-.3.9-.3 1.2 0 .2.2.2.4.3.6-.1.4-.5.8-.9.8zm8.6 9.2h-1.3c-.1 0-.1.1-.1.2v21.2c0 .1.1.2.2.2h1.4c1.6 0 2.9-1.3 2.9-2.9V60.6c0-.8-.1-.2-.2-.1-.6.9-1.7 1.6-2.9 1.6z"/><circle fill="#4285F4" cx="109.5" cy="64.5" r="1"/></svg>
