<svg xmlns="http://www.w3.org/2000/svg" viewBox="0 0 128 128"><path fill="#4285F4" d="M25.1 17.7l13.4.1c-4.9 4.9-7.8 11.2-8.8 18.3l-5.1-.1c-5.5-.2-9.8-4.3-9.7-9.3 0-5.1 4.5-9 10.2-9zm40.2 77.2c.9 2.2 6.9 14.4 6.9 14.4H55.1s5.5-11.5 6.7-14.4c1-2.2 2.5-2.3 3.5 0z"/><path fill="#4285F4" d="M114.9 47.9c-1.1 4.3-5.5 7.5-10.9 7.5h-5c-.3.1-.5.3-.4.6v53.3h-9.1L72 73.1c1.8-2 2.9-4.7 2.9-7.6 0-4.8-2.8-9.1-7-10.8v-4.9c0-2.1-1.8-3.6-3.9-3.6h-.2c-2.1 0-3.9 1.8-3.9 3.9v4.6c-4.6 1.5-8 5.8-8 11 0 3 1.2 5.8 3.1 7.8l-17 35.9H23.1c-5.7 0-10.2-4.6-10.2-10.3V29.7s0-.6.1 0c.8 4.8 5 8.5 10.1 8.6H100c-.1 0 14.6-1.3 14.9 9.6z"/><path fill="#4285F4" d="M63.3 59.8c3.1 0 5.7 2.6 5.6 5.8 0 3.1-2.6 5.7-5.8 5.6-3.1 0-5.6-2.6-5.6-5.7 0-1.5.6-2.9 1.7-4 1.2-1.1 2.6-1.7 4.1-1.7zm2.3-3.3v-6c0-.7-.3-1.3-.9-1.6-.9-.5-2-.2-2.5.7-.2.3-.3.6-.2 1v5.8c-5 .8-8.5 5.5-7.7 10.6v.1c.4 2.4 1.7 4.6 3.7 6l-21.3 45.7c-.8 1.6-.7 3.6.4 5.1 1.6 2.3 4.7 2.9 7 1.3.8-.5 1.4-1.3 1.8-2.1L60 92.5c.9-2 3.3-2.9 5.4-1.9.8.4 1.5 1.1 1.9 1.9l14.5 30.3c1.2 2.5 4.2 3.5 6.7 2.3s3.5-4.2 2.3-6.7L69 72.9c4-3.2 4.7-9.1 1.5-13.1-1.2-1.6-2.9-2.7-4.9-3.3m14-43.6h-.1l5.3-9.2c.3-.5.1-1.1-.3-1.5-.5-.2-1-.1-1.3.3L77.6 12c-8.7-3.9-18.7-3.9-27.5 0l-5.4-9.4c-.2-.3-.6-.6-1-.6s-.8.2-1 .6c-.2.4-.2.8 0 1.1l5.4 9.2c-8.8 4.9-14.6 13.3-16 23.1h63.8c-1.5-9.8-7.5-18.2-16.3-23.1zM51.2 28l-.4.4c-.5.5-1.2.8-1.9.8h.1c-1.5 0-2.7-1.2-2.7-2.6v-.1c0-.7.3-1.4.8-1.9.9-1.1 2.6-1.3 3.7-.4 1.3.9 1.4 2.6.4 3.8zm27.4 1c-1.5.1-2.7-1.1-2.7-2.6v-.1c0-.7.3-1.4.8-1.9 1-1 2.7-1 3.8 0 .5.5.8 1.2.8 1.9 0 1.6-1.2 2.7-2.7 2.7zm27.1 29h-4.2c-.2.1-.4.3-.4.6v66.5c0 .3.2.5.5.5h4.4c5.1 0 9.2-4.2 9.2-9.2 0 0-.1-61.1 0-63.4.1-2.4-.5-.7-.7-.2-1.5 3.2-4.8 5.3-8.6 5.3h-.2z"/><circle fill="#4285F4" cx="63.3" cy="65.5" r="3.2"/></svg>
