<svg xmlns="http://www.w3.org/2000/svg" viewBox="0 0 128 128"><path d="M81.1 102.1c-5 0-8.4 3.6-8.4 8.6 0 4.7 3.4 8.6 8.4 8.6 4.9 0 8.3-3.9 8.3-8.6 0-5-3.3-8.6-8.3-8.6zm0 14.7c-3.6 0-5.1-3.2-5.1-6.1 0-3.1 1.9-6.1 5.1-6.1 3.2 0 5.1 3 5.1 6.1 0 2.9-1.6 6.1-5.1 6.1zM65 101.2v.8h-4v1.7c0 .7.7 1.2 1.4 1.2H65v14h1.6c.7 0 1.4-.7 1.4-1.3V105h3c.7 0 1-.7 1-1.4V102h-4v-1.1c0-2.2.3-3.9 2.9-3.9h.1c.7.1 1.3-.5 1.4-1.3l.1-1c-.6-.1-1.2-.2-2-.2-4.5.1-5.5 2.7-5.5 6.7zm-32.9 1v.1c-.6 0-1.3.5-1.5 1.1L26.4 116h-.1l-4.1-12.5c-.3-.6-.9-1.3-1.5-1.3v-.2h-2.1l5.6 15.5c.2.5.6 1.5.6 1.9 0 .3-.9 4.1-3.6 4.1H21c-.7 0-1.2.5-1.3 1.2l-.1 1.1c.5.1 1.1.2 2.1.2 4 0 5.2-3.9 6.3-7l6-17h-1.9v.2zm-19.2 3.6c-2.5-1.3-5.2-2.1-5.3-4.7 0-2.7 2.5-3.4 4.4-3.4.8 0 1.5.1 2.2.2.7.1 1.3-.5 1.4-1.2l.1-1c-1.3-.3-2.6-.5-3.7-.5-4.2 0-7.3 2.1-7.3 6.2 0 3.5 2.4 4.9 4.9 6.1 2.5 1.2 5.3 2.2 5.3 5.1 0 3-2.9 4.2-5 4.2-1.2 0-2.5-.3-3.5-.6-.7-.1-1.2.5-1.3 1.3l-.1.8c1.5.5 3 .8 4.5.8 4.7 0 8.4-1.8 8.4-6.7-.1-3.8-2.5-5.3-5-6.6zm41.4-3.7c-1.5 0-4 .8-5.1 3.2-.9-2.2-2.8-3.1-4.7-3.1-2.4 0-4.1.8-5.2 2.8H39v-1.2c0-.7-.5-1.6-1.3-1.6l.1-.2H36v17h2c.8 0 1.2-.7 1.2-1.4l-.2-.1v-6.8c0-3.1 1.6-6.1 4.7-6.1 2.4 0 3.3 2.5 3.3 4.6v9.9h1.3c.7 0 1.7-.7 1.7-1.4v-7c0-3.1 1.1-6.1 4.2-6.1 2.4 0 2.8 2.5 2.8 4.6v9.9h1.6c.7 0 1.4-.6 1.4-1.2v-9.4c0-3.7-1.5-6.4-5.7-6.4zm46.4-.1c-2.3 0-4.6 1-5.5 3H95v-1.2c0-.8-.6-1.6-1.4-1.6v-.2H92v17h1.8c.7 0 1.2-.7 1.2-1.4v-6.3c0-4 1.8-6.8 5.3-6.8 2.6.2 3.7 2 3.7 5.8v8.6h1.3c.7 0 1.7-.7 1.7-1.4v-8.4c0-4.4-2.1-7.1-6.3-7.1zm20.9 0v.3c-.6 0-1.3.5-1.5 1.1l-4.2 12.6h-.1l-4.1-12.5c-.3-.6-.9-1.3-1.5-1.3v-.2h-2.1l5.6 15.5c.2.5.6 1.5.6 1.9 0 .3-.9 4.1-3.6 4.1h-.2c-.7 0-1.2.5-1.3 1.2l-.1 1.1c.5.1 1.1.2 2.1.2 4 0 5.2-3.9 6.3-7l6-17h-1.9zM64 90.2c24.6 0 44.6-20 44.6-44.6S88.6 1 64 1 19.4 21 19.4 45.6s20 44.6 44.6 44.6zM34.4 48.8c.7-2.2 2.4-2.6 4.2-2.1 1.8.6 2.6 2.8 2 4.5-.1.2-.2.5-.3.9l-.8 1.4c-.4 1.4 1.4 2.3 2.7 2.7 2.9.9 5.7-.6 6.4-3 .7-2.2-.7-3.7-1.3-4.2l-2.7-2.9c-1.3-1.4-4-5.3-2.7-9.7.5-1.7 1.6-3.5 3.2-4.7 3.3-2.5 7-2.9 10.4-1.9 4.5 1.3 6.6 4.3 9.4 6.5 1.6-4.6 3.7-9.1 7-12.9 2.9-3.5 6.9-5.9 11.4-6.1 4.5-.1 7.9 1.9 8.1 5.1 0 1.4-.7 4.1-3.5 4.2-2.1.1-3.5-1.2-3.6-3 0-.7.2-1.3.6-2 .5-.9.6-1 .5-1.4 0-1.2-1.8-1.2-2.3-1.2-6.7.2-8.5 9.3-9.9 16.6l-.7 3.9c3.9.6 6.6-.1 8.1-1.1 2.1-1.4-.6-2.8-.3-4.4.4-1.6 1.8-2.4 3-2.4 1.6 0 2.8 1.7 2.8 3.4-.1 2.8-3.8 6.8-11.4 6.6-.9 0-1.8-.1-2.6-.2L71 49.3c-1.3 6-3 14.1-9 21.2-5.2 6.2-10.5 7.2-12.9 7.2-4.4.1-7.4-2.2-7.5-5.4-.1-3.1 2.6-4.7 4.4-4.8 2.4-.1 4 1.6 4.1 3.6.1 1.7-.8 2.2-1.4 2.5-.4.3-1 .6-.9 1.3 0 .3.3 1 1.3.9 1.9-.1 3.1-1 4-1.6 4.3-3.6 6-9.9 8.2-21.3l.5-2.8c.7-3.7 1.6-7.8 2.8-12-3-2.3-4.9-5.1-9-6.2-2.8-.8-4.5-.1-5.7 1.4-1.4 1.8-1 4.1.4 5.5l2.3 2.5c2.8 3.2 4.3 5.7 3.7 9.1-.9 5.4-7.3 9.5-14.9 7.2-6.6-1.7-7.8-6.3-7-8.8z" fill="#1A171B"/></svg>