<?xml version="1.0" encoding="UTF-8" standalone="no"?>
<svg
   xmlns:dc="http://purl.org/dc/elements/1.1/"
   xmlns:cc="http://creativecommons.org/ns#"
   xmlns:rdf="http://www.w3.org/1999/02/22-rdf-syntax-ns#"
   xmlns:svg="http://www.w3.org/2000/svg"
   xmlns="http://www.w3.org/2000/svg"
   xmlns:sodipodi="http://sodipodi.sourceforge.net/DTD/sodipodi-0.dtd"
   xmlns:inkscape="http://www.inkscape.org/namespaces/inkscape"
   viewBox="0 0 128 128"
   version="1.1"
   id="svg50"
   sodipodi:docname="zig-plain-wordmark.svg"
   inkscape:version="1.0.2 (e86c870879, 2021-01-15, custom)">
  <metadata
     id="metadata56">
    <rdf:RDF>
      <cc:Work
         rdf:about="">
        <dc:format>image/svg+xml</dc:format>
        <dc:type
           rdf:resource="http://purl.org/dc/dcmitype/StillImage" />
      </cc:Work>
    </rdf:RDF>
  </metadata>
  <defs
     id="defs54" />
  <sodipodi:namedview
     pagecolor="#ffffff"
     bordercolor="#666666"
     borderopacity="1"
     objecttolerance="10"
     gridtolerance="10"
     guidetolerance="10"
     inkscape:pageopacity="0"
     inkscape:pageshadow="2"
     inkscape:window-width="1920"
     inkscape:window-height="1061"
     id="namedview52"
     showgrid="false"
     inkscape:zoom="2.4769947"
     inkscape:cx="-0.85129256"
     inkscape:cy="120.40429"
     inkscape:window-x="0"
     inkscape:window-y="19"
     inkscape:window-maximized="0"
     inkscape:current-layer="svg50" />
  <g
     fill="#121212"
     id="g48"
     transform="matrix(0.32315072,0,0,0.32315072,0,41.3795)">
    <g
       id="g8">
      <polygon
         points="19,30 46,22 28,44 "
         id="polygon2" />
      <polygon
         points="28,44 22,44 22,95 31,95 20,100 12,117 0,117 0,22 46,22 33,33 "
         shape-rendering="crispEdges"
         id="polygon4" />
      <polygon
         points="4,106 31,95 12,117 "
         id="polygon6" />
    </g>
    <g
       id="g20">
      <polygon
         points="37,44 56,22 62,36 "
         id="polygon10" />
      <polygon
         points="111,44 37,44 56,32 56,22 111,22 "
         shape-rendering="crispEdges"
         id="polygon12" />
      <polygon
         points="90,104 116,95 97,117 "
         id="polygon14" />
      <polygon
         points="97,117 42,117 42,95 116,95 100,104 "
         shape-rendering="crispEdges"
         id="polygon16" />
      <polygon
         points="3,140 101,22 150,0 52,117 "
         id="polygon18" />
    </g>
    <g
       id="g28">
      <polygon
         points="122,45 141,22 140,40 "
         id="polygon22" />
      <polygon
         points="106,117 120,105 125,95 131,95 131,45 122,45 132,36 141,22 153,22 153,117 "
         shape-rendering="crispEdges"
         id="polygon24" />
      <polygon
         points="106,117 125,95 130,110 "
         id="polygon26" />
    </g>
    <g
       id="g36">
      <polygon
         points="229,40 177,40 177,22 260,22 260,37 "
         shape-rendering="crispEdges"
         id="polygon30" />
      <polygon
         points="207,103 176,103 229,40 229,37 260,37 207,99 "
         id="polygon32" />
      <polygon
         points="176,117 176,103 206,99 261,99 261,117 "
         shape-rendering="crispEdges"
         id="polygon34" />
    </g>
    <rect
       x="272"
       y="22"
       shape-rendering="crispEdges"
       width="22"
       height="95"
       id="rect38" />
    <g
       id="g46">
      <polygon
         points="376,106 376,81 360,70 346,67 394,67 394,106 "
         shape-rendering="crispEdges"
         id="polygon40" />
      <polygon
         points="346,67 360,68 376,81 "
         id="polygon42" />
      <path
         d="m 394,106 c -10.2,7.3 -24,12 -37.7,12 -29,0 -51.1,-20.8 -51.1,-48.3 0,-27.3 22.5,-48.1 52,-48.1 14.3,0 29.2,5.5 38.9,14 l -13,15 c -7.1,-6.3 -16.8,-10 -25.9,-10 -17,0 -30.2,12.9 -30.2,29.5 0,16.8 13.3,29.6 30.3,29.6 5.7,0 12.8,-2.3 19,-5.5 z"
         id="path44" />
    </g>
  </g>
</svg>
