<svg xmlns="http://www.w3.org/2000/svg" viewBox="0 0 128 128"><g fill="#f7a41d"><path d="M14.865 48.489l-5.817 7.11-2.908-4.525z"/><path shape-rendering="crispEdges" d="M14.865 48.489l-4.201 3.554-1.616 3.555H7.11v16.48h2.909l-3.555 1.617-2.585 5.493H0v-30.7z"/><path d="M10.018 72.079l-6.14 7.11-2.585-3.556zm8.078-23.59l1.94 4.524-8.08 2.585z"/><path shape-rendering="crispEdges" d="M18.096 48.489H35.87v7.11H11.957l6.14-3.879z"/><path d="M37.485 72.079l-6.14 7.11-2.261-4.202z"/><path shape-rendering="crispEdges" d="M37.485 72.079l-5.17 2.908-.97 4.201H13.573v-7.11z"/><path d="M48.473 41.38l-31.67 37.808L.97 86.621l31.67-38.132zM45.564 48.489l-.323 5.817-5.817 1.615z"/><path shape-rendering="crispEdges" d="M49.442 48.489v30.7H34.254l4.524-3.879 1.616-3.231h1.939V55.92h-2.909l3.232-2.908 2.908-4.524z"/><path d="M40.394 72.079l1.616 4.847-7.756 2.262z"/></g><g fill="#fff"><path shape-rendering="crispEdges" d="M84.02 48.489v4.847l-10.018.97H57.198v-5.817z"/><path d="M84.02 53.336L66.891 73.371v1.293H56.875l17.127-20.358v-.97z"/><path shape-rendering="crispEdges" d="M84.342 73.371v5.817H56.875v-4.524l9.694-1.293zm3.555-24.882h7.11v30.7h-7.11zm39.424 14.541v12.603h-5.816v-8.078L116.335 64l-4.525-.97z"/><path d="M116.334 63.354l5.17 4.2-9.694-4.523z"/><path d="M127.321 75.633c-3.296 2.36-7.755 3.878-12.182 3.878-9.372 0-16.513-6.721-16.513-15.608 0-8.822 7.27-15.543 16.803-15.543 4.621 0 9.436 1.777 12.571 4.524l-4.201 4.847c-2.294-2.036-5.429-3.232-8.37-3.232-5.493 0-9.759 4.17-9.759 9.533 0 5.43 4.298 9.566 9.792 9.566 1.842 0 4.136-.744 6.14-1.778z"/></g></svg>