<svg xmlns="http://www.w3.org/2000/svg" viewBox="0 0 128 128"><g fill="#121212"><path d="M6.14 51.074l8.725-2.585-5.817 7.11z"/><path shape-rendering="crispEdges" d="M9.048 55.598H7.11v16.48h2.909l-3.555 1.617-2.585 5.493H0v-30.7h14.865l-4.201 3.555z"/><path d="M1.293 75.633l8.725-3.554-6.14 7.11zm10.664-20.035l6.14-7.11 1.938 4.525z"/><path shape-rendering="crispEdges" d="M35.87 55.598H11.957l6.14-3.878v-3.23H35.87z"/><path d="M29.084 74.987l8.401-2.908-6.14 7.11z"/><path shape-rendering="crispEdges" d="M31.346 79.188H13.572v-7.11h23.913l-5.17 2.91z"/><path d="M.97 86.62l31.667-38.13 15.835-7.11-31.67 37.81zM39.424 55.921l6.14-7.432-.323 5.817z"/><path shape-rendering="crispEdges" d="M34.254 79.188l4.524-3.878 1.616-3.231h1.939V55.92h-2.909l3.232-2.908 2.908-4.524h3.878v30.7z"/><path d="M34.254 79.188l6.14-7.11 1.616 4.848z"/><path shape-rendering="crispEdges" d="M74.002 54.306H57.198v-5.817h26.821v4.847z"/><path d="M66.892 74.664H56.875l17.127-20.358v-.97h10.017L66.892 73.371z"/><path shape-rendering="crispEdges" d="M56.875 79.188v-4.524l9.694-1.293h17.773v5.817zM87.897 48.489h7.11v30.7h-7.11z"/><g><path shape-rendering="crispEdges" d="M121.505 75.633v-8.078L116.335 64l-4.525-.97h15.511v12.603z"/><path d="M111.81 63.03l4.524.324 5.17 4.2z"/><path d="M127.321 75.633c-3.296 2.36-7.755 3.878-12.182 3.878-9.372 0-16.513-6.721-16.513-15.608 0-8.822 7.27-15.543 16.803-15.543 4.621 0 9.436 1.777 12.571 4.524l-4.201 4.847c-2.294-2.036-5.429-3.232-8.37-3.232-5.493 0-9.759 4.17-9.759 9.533 0 5.43 4.298 9.566 9.792 9.566 1.842 0 4.136-.744 6.14-1.778z"/></g></g></svg>