<svg xmlns="http://www.w3.org/2000/svg" viewBox="0 0 128 128" xml:space="preserve"><path fill="#E24329" d="m108.405 36.409-.129-.33L95.774 3.451a3.26 3.26 0 0 0-1.287-1.55 3.348 3.348 0 0 0-3.826.206 3.35 3.35 0 0 0-1.11 1.684L81.11 29.617H46.927L38.486 3.79a3.277 3.277 0 0 0-1.11-1.688 3.348 3.348 0 0 0-3.826-.206c-.58.369-1.03.911-1.287 1.55L19.737 36.06l-.124.33a23.216 23.216 0 0 0 7.7 26.831l.043.033.115.081 19.045 14.262 9.422 7.131 5.739 4.333a3.858 3.858 0 0 0 4.668 0l5.739-4.333 9.422-7.131 19.16-14.348.048-.038a23.224 23.224 0 0 0 7.691-26.802z"/><path fill="#FC6D26" d="m108.405 36.409-.129-.33a42.223 42.223 0 0 0-16.811 7.557L64.007 64.398c9.35 7.074 17.491 13.22 17.491 13.22l19.16-14.348.048-.038a23.23 23.23 0 0 0 7.699-26.823z"/><path fill="#FCA326" d="m46.516 77.617 9.422 7.131 5.739 4.333a3.858 3.858 0 0 0 4.668 0l5.739-4.333 9.422-7.131s-8.15-6.165-17.5-13.22c-9.35 7.055-17.49 13.22-17.49 13.22z"/><path fill="#FC6D26" d="M36.544 43.636a42.17 42.17 0 0 0-16.807-7.576l-.124.33a23.216 23.216 0 0 0 7.7 26.831l.043.033.115.081 19.045 14.262 17.491-13.22-27.463-20.741z"/><g fill="#171321"><path d="M22.366 105.736h5.785C27.186 99.585 21.86 95.3 14.929 95.3 6.728 95.3.574 101.329.574 111.427c0 9.918 5.877 16.069 14.522 16.069 7.759 0 13.313-4.991 13.313-13.069v-3.764H15.694v4.437h7.223c-.091 4.47-3.076 7.299-7.789 7.299-5.247 0-8.843-3.931-8.843-11.033 0-7.055 3.657-10.972 8.721-10.972 3.779.001 6.365 2.02 7.36 5.342zM32.236 127.067h5.539v-23.492h-5.539v23.492zm2.793-27.225c1.76 0 3.198-1.349 3.198-2.999 0-1.651-1.437-3.015-3.198-3.015-1.76 0-3.213 1.346-3.213 3.015s1.427 2.999 3.203 2.999h.01zM54.362 103.575h-4.638v-5.643h-5.539v5.643H40.85v4.285h3.335v13.069c-.03 4.422 3.185 6.603 7.345 6.474a11.262 11.262 0 0 0 3.261-.551l-.935-4.333a6.758 6.758 0 0 1-1.62.216c-1.394 0-2.512-.49-2.512-2.725v-12.163h4.638v-4.272zM58.649 127.067h19.48v-4.759H64.328V95.727h-5.679v31.34zM88.739 127.542c3.688 0 5.89-1.73 6.9-3.703h.183v3.228h5.333v-15.731c0-6.212-5.064-8.079-9.549-8.079-4.942 0-8.737 2.202-9.961 6.486l5.173.737c.549-1.608 2.111-2.984 4.825-2.984 2.573 0 3.98 1.316 3.98 3.627v.091c0 1.59-1.669 1.669-5.816 2.111-4.559.49-8.92 1.851-8.92 7.147-.013 4.622 3.367 7.07 7.852 7.07zm1.821-4.063c-2.311 0-3.965-1.057-3.965-3.091 0-2.128 1.851-3.015 4.318-3.368 1.455-.198 4.363-.566 5.079-1.145v2.768c.015 2.608-2.098 4.828-5.432 4.828v.008zM105.235 127.067h5.448v-3.703h.32c.874 1.714 2.695 4.117 6.735 4.117 5.539 0 9.687-4.394 9.687-12.135 0-7.835-4.269-12.089-9.702-12.089-4.147 0-5.877 2.494-6.72 4.193h-.234V95.727h-5.534v31.34zm5.432-11.751c0-4.572 1.958-7.515 5.524-7.515 3.688 0 5.587 3.137 5.587 7.515s-1.928 7.619-5.587 7.619c-3.535 0-5.524-3.06-5.524-7.619z"/></g></svg>