<svg xmlns="http://www.w3.org/2000/svg" viewBox="0 0 128 128"><path fill="#E24329" d="M124.755 51.382l-.177-.452L107.47 6.282a4.459 4.459 0 00-1.761-2.121 4.581 4.581 0 00-5.236.281 4.578 4.578 0 00-1.518 2.304L87.404 42.088H40.629L29.077 6.746a4.492 4.492 0 00-1.518-2.31 4.581 4.581 0 00-5.236-.281 4.502 4.502 0 00-1.761 2.121L3.422 50.904l-.17.452c-5.059 13.219-.763 28.192 10.537 36.716l.059.046.157.111 26.061 19.516 12.893 9.758 7.854 5.93a5.283 5.283 0 006.388 0l7.854-5.93 12.893-9.758 26.218-19.634.065-.052c11.273-8.526 15.562-23.472 10.524-36.677z"/><path fill="#FC6D26" d="M124.755 51.382l-.177-.452a57.79 57.79 0 00-23.005 10.341L64 89.682c12.795 9.68 23.934 18.09 23.934 18.09l26.218-19.634.065-.052c11.291-8.527 15.586-23.488 10.538-36.704z"/><path fill="#FCA326" d="M40.066 107.771l12.893 9.758 7.854 5.93a5.283 5.283 0 006.388 0l7.854-5.93 12.893-9.758s-11.152-8.436-23.947-18.09a18379.202 18379.202 0 00-23.935 18.09z"/><path fill="#FC6D26" d="M26.42 61.271A57.73 57.73 0 003.422 50.904l-.17.452c-5.059 13.219-.763 28.192 10.537 36.716l.059.046.157.111 26.061 19.516L64 89.655 26.42 61.271z"/></svg>
