<?xml version="1.0" encoding="UTF-8"?>
<svg xmlns="http://www.w3.org/2000/svg" xmlns:xlink="http://www.w3.org/1999/xlink" width="128px" height="128px" viewBox="0 0 128 128" version="1.1">
<g id="surface1">
<path style=" stroke:none;fill-rule:nonzero;fill:rgb(11.372549%,63.137255%,94.901961%);fill-opacity:1;" d="M 40.253906 127.636719 C 88.558594 127.636719 114.972656 78.679688 114.972656 36.234375 C 114.972656 34.84375 114.972656 33.457031 114.898438 32.078125 C 120.039062 27.53125 124.476562 21.898438 128 15.445312 C 123.210938 18.046875 118.128906 19.75 112.921875 20.507812 C 118.402344 16.488281 122.503906 10.171875 124.460938 2.734375 C 119.304688 6.476562 113.664062 9.113281 107.78125 10.535156 C 99.644531 -0.0507812 86.710938 -2.644531 76.234375 4.214844 C 65.761719 11.074219 60.351562 25.675781 63.035156 39.832031 C 41.921875 38.539062 22.246094 26.335938 8.914062 6.269531 C 1.933594 20.941406 5.488281 39.722656 17.023438 49.160156 C 12.875 48.988281 8.816406 47.605469 5.191406 45.128906 C 5.191406 45.265625 5.191406 45.402344 5.191406 45.539062 C 5.191406 60.8125 13.976562 73.976562 26.210938 77.03125 C 22.34375 78.320312 18.285156 78.503906 14.347656 77.574219 C 17.785156 90.667969 27.644531 99.644531 38.882812 99.902344 C 29.578125 108.820312 18.089844 113.652344 6.265625 113.621094 C 4.171875 113.621094 2.078125 113.472656 0 113.175781 C 12.007812 122.609375 25.980469 127.617188 40.253906 127.597656 "/>
</g>
</svg>
