<?xml version="1.0" encoding="UTF-8"?>
<!-- Generator: Adobe Illustrator 18.0.0, SVG Export Plug-In . SVG Version: 6.00 Build 0)  -->
<!DOCTYPE svg PUBLIC "-//W3C//DTD SVG 1.1//EN" "http://www.w3.org/Graphics/SVG/1.1/DTD/svg11.dtd">
<svg version="1.1" id="Layer_1" xmlns="http://www.w3.org/2000/svg" xmlns:xlink="http://www.w3.org/1999/xlink" x="0px" y="0px" viewBox="0 0 210 279.9" enable-background="new 0 0 210 279.9" xml:space="preserve">
<g>
	<g id="T_1_">
		<path fill="#157DC3" d="M165.5,268.2H94.3l-1.5-0.1c-48.4-4.4-80.8-40.8-80.5-90.3V41.8c0-17.7,14.3-32,32-32s32,14.3,32,32v47.2    l92.9,0.9c17.7,0.2,31.9,14.6,31.7,32.3c-0.2,17.6-14.5,31.7-32,31.7c-0.1,0-0.2,0-0.3,0L76.3,153v24.9    c-0.1,22.7,14.1,25.6,21,26.3h68.2c17.7,0,32,14.3,32,32S183.2,268.2,165.5,268.2z"/>
	</g>
</g>
</svg>