<?xml version="1.0" encoding="utf-8"?>
<!-- Generator: Adobe Illustrator 16.0.0, SVG Export Plug-In . SVG Version: 6.00 Build 0)  -->
<!DOCTYPE svg PUBLIC "-//W3C//DTD SVG 1.1//EN" "http://www.w3.org/Graphics/SVG/1.1/DTD/svg11.dtd">
<svg version="1.1" id="Layer_1" xmlns="http://www.w3.org/2000/svg" xmlns:xlink="http://www.w3.org/1999/xlink" x="0px" y="0px"
	 width="500px" height="500px" viewBox="0 0 500 500" enable-background="new 0 0 500 500" xml:space="preserve">
<g>
	<path fill-rule="evenodd" clip-rule="evenodd" fill="#FD4F31" d="M22.32,85.316c4.177,6.957,8.367,13.908,12.545,20.866
		c3.86,6.428,7.71,12.862,11.563,19.293c6,10.011,12,20.022,18,30.031c4.092,6.829,8.183,13.659,12.278,20.484
		c5.965,9.941,11.944,19.875,17.904,29.822c7.31,12.196,14.602,24.406,21.91,36.605c6.316,10.543,12.645,21.08,18.972,31.613
		c0.274,0.455,0.603,0.878,0.845,1.228c0.919,0.291,1.651,0.042,2.405-0.137c8.335-2.002,16.672-3.992,25.009-5.98
		c13.52-3.229,27.04-6.451,40.561-9.682c7.06-1.687,14.116-3.38,21.177-5.067c13.668-3.267,27.34-6.524,41.008-9.796
		c13.818-3.305,27.632-6.625,41.449-9.936c6.983-1.674,13.969-3.342,20.956-5.01c13.52-3.224,27.039-6.445,40.56-9.666
		c14.723-3.506,29.447-7.009,44.171-10.519c0.74-0.176,1.471-0.397,2.386-0.644c-0.258-0.52-0.403-0.94-0.65-1.292
		c-4.012-5.684-8.04-11.357-12.056-17.038c-3.973-5.616-7.936-11.241-11.907-16.857c-4.24-5.997-8.492-11.985-12.732-17.982
		c-4.063-5.743-8.111-11.496-12.172-17.238c-4.018-5.681-8.044-11.354-12.063-17.034c-4.154-5.868-8.299-11.742-12.454-17.606
		c-4.066-5.741-8.142-11.475-12.212-17.212c-2.146-3.027-4.294-6.054-6.436-9.085c-0.986-1.396-1.769-2.897-2.294-4.529
		c-1.272-3.949,0.183-6.576,2.483-8.519c1.494-1.261,3.213-2.186,5.072-2.734c2.59-0.762,5.202-1.493,7.851-1.993
		c5.31-1.003,10.648-1.856,15.98-2.742c6.019-0.999,12.044-1.957,18.063-2.948c3.81-0.628,7.614-1.287,11.421-1.931
		c5.177-0.874,10.353-1.753,15.53-2.62c5.027-0.842,10.055-1.677,15.083-2.505c5.485-0.903,10.973-1.788,16.458-2.694
		c3.811-0.629,7.615-1.285,11.424-1.92c4.342-0.725,8.683-1.448,13.026-2.158c5.411-0.884,10.821-1.774,16.238-2.621
		c3.225-0.504,6.454-0.682,9.653,0.241c2.402,0.693,4.59,1.819,6.626,3.253c0.928,0.653,1.86,1.298,2.814,1.964
		c0.28-0.648-0.126-1-0.31-1.373c-4.063-8.222-9.604-15.29-16.64-21.181c-6.544-5.477-13.892-9.502-22.018-12.071
		c-4.799-1.518-9.732-2.446-14.759-2.826c-0.847-0.063-1.708-0.067-2.45-0.574C310.709,5,188.828,5,66.945,5
		c-0.658,0.186-1.309,0.486-1.979,0.538c-4.403,0.345-8.729,1.109-12.986,2.276c-9.326,2.558-17.609,7.059-24.918,13.361
		c-4.298,3.706-8.048,7.902-11.231,12.605c-4.915,7.263-8.264,15.168-9.944,23.953c0.673,1.175,1.38,2.458,2.131,3.713
		C12.779,69.407,17.548,77.364,22.32,85.316z"/>
	<path fill-rule="evenodd" clip-rule="evenodd" fill="#FD4F31" d="M198.06,463.56c-7.295-12.648-14.521-25.338-21.706-38.049
		c-7.678-13.584-15.285-27.209-22.903-40.829c-7.24-12.946-14.461-25.901-21.675-38.86c-4.358-7.83-8.686-15.678-13.036-23.512
		c-0.33-0.593-0.735-1.143-1.158-1.794c-0.775,0.152-1.455,0.25-2.115,0.42c-4.186,1.083-8.367,2.172-12.548,3.273
		c-5.82,1.531-11.637,3.091-17.463,4.608c-13.072,3.402-26.148,6.785-39.223,10.177c-13.298,3.453-26.513,6.912-39.817,10.352
		C5.603,349.555,5,349.627,4,349.764c0,27.532,0,55.063,0,82.596c1,0.477,0.818,1.355,0.923,2.2c0.307,2.446,0.491,4.91,0.922,7.334
		c1.607,9.025,5.072,17.286,10.303,24.808c7.676,11.037,17.819,18.931,30.345,23.755c4.472,1.721,9.098,2.929,13.87,3.518
		c1.606,0.2,3.223,0.299,4.828,0.504c0.751,0.099,1.479,0.345,2.219,0.522c49.65,0,99.299,0,148.948,0
		c-0.241-0.481-0.457-0.979-0.729-1.444C209.771,483.556,203.85,473.596,198.06,463.56z"/>
	<path fill-rule="evenodd" clip-rule="evenodd" fill="#FD4F31" d="M18.257,304.139c15.388-3.658,30.777-7.313,46.166-10.966
		c6.758-1.603,13.52-3.186,20.277-4.791c3.378-0.804,6.768-1.572,10.119-2.476c2.984-0.807,3.353-1.793,1.816-4.487
		c-2.219-3.892-4.476-7.759-6.724-11.634c-6.593-11.354-13.188-22.709-19.782-34.063c-6.594-11.355-13.182-22.711-19.775-34.066
		c-6.71-11.554-13.422-23.108-20.135-34.658c-5.744-9.884-11.493-19.764-17.236-29.648c-2.482-4.274-4.864-8.56-7.359-12.829
		C5.167,123.737,5,122.809,4,122.396c0,61.715,0,123.428,0,185.143c0-0.124,1.132-0.23,1.731-0.374
		C9.933,306.159,14.053,305.138,18.257,304.139z"/>
	<path fill-rule="evenodd" clip-rule="evenodd" fill="#FD4F31" d="M491.884,436.477c-6.034,2.145-12.066,4.304-18.097,6.464
		c-13.729,4.922-27.462,9.842-41.19,14.77c-7.628,2.737-15.244,5.507-22.877,8.232c-15.554,5.552-31.116,11.085-46.676,16.624
		c-9.015,3.21-18.037,6.402-27.046,9.628c-2.468,0.887-4.899,1.868-7.347,2.806c34.492,0,68.983,0,103.476,0
		c0.742-0.175,1.48-0.473,2.229-0.501c2.631-0.114,5.221-0.504,7.808-0.978c10.622-1.942,20.135-6.341,28.559-13.057
		c6.471-5.159,11.738-11.368,15.861-18.564c4.243-7.409,6.764-15.372,7.972-23.784c0.106-0.727,0.332-1.526-0.278-2.275
		C493.423,435.772,492.666,436.199,491.884,436.477z"/>
	<path fill-rule="evenodd" clip-rule="evenodd" fill="#FD4F31" d="M482.995,297.527c-4.565-6.238-9.137-12.473-13.691-18.72
		c-6.286-8.62-12.559-17.25-18.836-25.875c-2.55-3.5-5.136-6.972-7.626-10.512c-0.751-1.067-1.605-1.348-2.775-1.034
		c-0.222,0.06-0.442,0.141-0.667,0.192c-11.557,2.807-23.114,5.608-34.671,8.411c-6.903,1.676-13.808,3.35-20.711,5.026
		c-13.505,3.278-27.011,6.559-40.516,9.838c-13.357,3.245-26.713,6.496-40.07,9.737c-13.882,3.367-27.769,6.717-41.649,10.084
		c-13.659,3.316-27.311,6.646-40.967,9.967c-13.206,3.208-26.413,6.412-39.619,9.617c-6.979,1.695-13.959,3.381-20.933,5.088
		c-1.027,0.251-2.135,0.31-3.227,1.139c0.364,0.697,0.629,1.25,0.935,1.778c5.848,10.103,11.695,20.201,17.557,30.295
		c6.637,11.43,13.277,22.855,19.935,34.272c7.32,12.551,14.659,25.096,21.991,37.64c4.213,7.205,8.403,14.425,12.651,21.611
		c4.722,7.982,9.463,15.954,14.27,23.886c1.44,2.374,3.075,4.637,4.726,6.872c1.104,1.493,2.474,2.764,4.086,3.736
		c1.666,1.005,3.459,1.32,5.349,0.893c0.976-0.22,1.933-0.54,2.88-0.87c1.169-0.403,2.307-0.889,3.476-1.289
		c12.643-4.326,25.285-8.648,37.933-12.958c9.869-3.36,19.746-6.701,29.621-10.044c9.803-3.321,19.608-6.632,29.412-9.942
		c9.732-3.288,19.465-6.571,29.196-9.858c9.95-3.363,19.902-6.725,29.851-10.098c12.214-4.143,24.421-8.306,36.637-12.44
		c11.778-3.983,23.565-7.946,35.348-11.92c0.721-0.242,1.519-0.345,2.116-1.138c0.023-0.493,0.073-1.103,0.073-1.716
		c0.004-24.433-0.004-48.87,0.024-73.306c0-1.306-0.35-2.358-1.13-3.407C490.277,307.523,486.646,302.517,482.995,297.527z"/>
	<path fill-rule="evenodd" clip-rule="evenodd" fill="#FD4F31" d="M480.967,67.302c-2.743-3.474-6.234-4.577-10.516-3.457
		c-1.864,0.488-3.777,0.796-5.675,1.144c-6.229,1.14-12.46,2.261-18.688,3.392c-9.118,1.655-18.229,3.327-27.349,4.969
		c-7.219,1.298-14.441,2.573-21.664,3.841c-9.658,1.697-19.32,3.372-28.977,5.07c-1.215,0.213-2.443,0.424-3.612,0.799
		c-1.707,0.546-2.2,1.617-1.421,3.221c0.636,1.313,1.432,2.565,2.29,3.747c5.99,8.259,12.012,16.496,18.029,24.736
		c8.296,11.362,16.596,22.722,24.897,34.079c7.024,9.611,14.054,19.218,21.083,28.824c5.523,7.548,11.048,15.096,16.577,22.64
		c0.314,0.429,0.678,0.821,1.091,1.321c15.904-3.931,31.782-7.854,47.932-11.847c0.045-0.969,0.111-1.727,0.111-2.484
		c0.004-33.247-0.004-66.494,0.026-99.744c0.002-1.468-0.358-2.648-1.28-3.811c-4.033-5.088-7.989-10.236-11.977-15.361
		C481.563,68.014,481.254,67.666,480.967,67.302z"/>
	<path fill-rule="evenodd" clip-rule="evenodd" fill="#FD4F31" d="M493.864,228.398c-7.251,1.742-14.526,3.399-21.95,5.363
		c0.785,1.396,21.149,28.887,22.336,30.189c0.134,0.148,0.365,0.208,0.744,0.411c0.033-0.648,0.083-1.161,0.083-1.675
		c0.007-3.857,0.002-7.716,0.004-11.576c0.005-6.715,0.021-13.43,0.005-20.143c-0.002-0.82,0.228-1.694-0.332-2.524
		C494.462,228.424,494.145,228.33,493.864,228.398z"/>
</g>
</svg>
