<svg xmlns="http://www.w3.org/2000/svg" viewBox="0 0 128 128"><path fill="#FD4F31" d="M14.887 18.316l2.72 4.523 2.507 4.182c1.301 2.17 2.602 4.34 3.901 6.51l2.662 4.44 3.882 6.465 4.749 7.936c1.369 2.285 2.741 4.569 4.112 6.853l.184.267c.199.062.357.009.521-.03 1.807-.434 3.614-.865 5.421-1.296 2.931-.7 5.862-1.398 8.792-2.099l4.592-1.098c2.962-.708 5.926-1.414 8.889-2.124 2.996-.716 5.99-1.436 8.985-2.154 1.514-.363 3.028-.725 4.543-1.086l8.792-2.096 9.575-2.28.517-.14-.141-.28c-.869-1.232-1.742-2.462-2.613-3.693l-2.581-3.654-2.76-3.898-2.639-3.737-2.614-3.693-2.701-3.816-2.646-3.731-1.396-1.969c-.213-.303-.383-.628-.497-.982-.275-.856.039-1.425.538-1.846.324-.274.696-.474 1.1-.593.562-.166 1.128-.324 1.702-.432 1.151-.217 2.309-.402 3.465-.594 1.304-.217 2.609-.424 3.915-.639.825-.136 1.65-.279 2.476-.419l3.367-.567c1.089-.183 2.18-.364 3.269-.543l3.568-.583 2.477-.417c.94-.157 1.882-.314 2.823-.468 1.174-.191 2.346-.384 3.521-.568.698-.109 1.399-.148 2.093.052.521.151.994.395 1.436.706l.61.426c.061-.141-.027-.217-.067-.298-.881-1.782-2.082-3.314-3.606-4.592-1.419-1.187-3.012-2.06-4.773-2.616-1.04-.33-2.109-.483-3.199-.565l-.535-.08h-79.262l-.429.069c-.954.075-1.892.217-2.815.47-2.021.555-3.817 1.519-5.401 2.885-.932.803-1.745 1.707-2.435 2.727-1.065 1.574-1.792 3.285-2.156 5.189l.461.803c1.033 1.726 2.067 3.449 3.101 5.173zM20.128 106.141c.97.373 1.972.635 3.006.762l1.047.047c.163.021.32.05.48.05h32.288c-.052 0-.099-.149-.157-.25-1.271-2.168-2.554-4.296-3.81-6.472-1.581-2.742-3.147-5.477-4.705-8.233-1.664-2.944-3.313-5.89-4.965-8.842-1.569-2.807-3.135-5.611-4.698-8.42-.944-1.698-1.883-3.396-2.825-5.095l-.252-.388-.458.091c-.908.234-1.814.471-2.721.709-1.262.332-2.522.67-3.785 1-2.834.738-5.669 1.471-8.503 2.207-2.883.748-5.704 1.498-8.589 2.243-.175.046.519.062-.481.092v17.905c1 .104.136.294.158.477.066.53.085 1.064.179 1.59.349 1.957 1.089 3.747 2.224 5.378 1.664 2.392 3.852 4.103 6.567 5.149zM14.006 65.751c3.336-.793 6.672-1.585 10.008-2.377l4.396-1.039c.732-.174 1.468-.341 2.194-.537.646-.175.727-.389.394-.973-.481-.844-.97-1.682-1.458-2.522l-4.288-7.383-4.287-7.385c-1.454-2.504-2.909-5.009-4.364-7.513l-3.736-6.427-1.553-2.781c-.1-.17.689-.371-.311-.461v40.135c0-.027.204-.05.333-.081l2.672-.656zM116.677 94.439c-1.308.465-2.615.933-3.923 1.401-2.977 1.067-5.953 2.134-8.93 3.202-1.652.593-3.304 1.193-4.959 1.784-3.371 1.204-6.744 2.403-10.117 3.604-1.955.696-3.91 1.325-5.863 2.024-.535.193-1.063.546-1.593.546h22.431l.484-.046c.569-.024 1.131-.078 1.691-.181 2.303-.421 4.365-1.359 6.191-2.815 1.402-1.118 2.544-2.456 3.438-4.016.92-1.606 1.466-3.329 1.728-5.153.023-.157.072-.328-.06-.491-.184-.014-.349.08-.518.141zM114.75 64.318c-.99-1.353-1.98-2.704-2.968-4.058-1.362-1.869-2.723-3.74-4.083-5.609-.553-.759-1.113-1.512-1.654-2.279-.162-.231-.348-.292-.601-.224l-.145.042c-2.505.608-5.011 1.216-7.517 1.823l-4.489 1.089-8.782 2.133c-2.896.704-5.791 1.408-8.687 2.111-3.01.729-6.02 1.456-9.028 2.186-2.961.719-5.921 1.44-8.881 2.16-2.863.695-5.726 1.391-8.589 2.085-1.513.367-3.025.733-4.537 1.103-.223.054-.463.067-.699.247l.202.385c1.268 2.19 2.535 4.379 3.806 6.567 1.438 2.478 2.878 4.955 4.321 7.43 1.587 2.72 3.178 5.439 4.768 8.159.913 1.562 1.821 3.127 2.742 4.685 1.023 1.73 2.051 3.458 3.094 5.178.312.515.666 1.006 1.023 1.49.24.323.537.599.887.81.36.218.75.286 1.159.194.212-.048.419-.118.624-.189l.754-.279c2.74-.938 5.48-1.875 8.223-2.809 2.139-.729 4.28-1.453 6.421-2.177 2.125-.72 4.251-1.438 6.376-2.155 2.109-.713 4.219-1.425 6.329-2.137 2.157-.729 4.314-1.458 6.471-2.189 2.647-.898 5.294-1.8 7.942-2.696 2.553-.864 5.107-1.723 7.662-2.584.156-.053.329-.075.459-.247l.016-.372c0-5.296-.001-10.594.006-15.891 0-.283-.076-.511-.246-.738-.801-1.077-1.588-2.162-2.379-3.244zM114.311 14.411c-.595-.753-1.352-.992-2.279-.75-.404.106-.819.172-1.23.248-1.351.247-2.701.49-4.052.735-1.976.359-3.951.722-5.928 1.077-1.564.282-3.131.558-4.696.833l-6.281 1.099c-.264.046-.53.092-.783.173-.37.119-.478.351-.309.699.139.284.311.556.497.812 1.298 1.79 2.604 3.576 3.908 5.362 1.798 2.463 3.598 4.926 5.397 7.388 1.522 2.083 3.046 4.166 4.57 6.248 1.197 1.637 2.395 3.272 3.593 4.908l.237.286c3.447-.853 6.889-1.703 10.39-2.568l.024-.538c0-7.208-.001-14.415.006-21.622 0-.318-.078-.574-.277-.826-.875-1.103-1.732-2.219-2.597-3.33l-.19-.234zM117.106 49.333c-1.572.377-3.149.737-4.759 1.163.171.303 4.585 6.262 4.842 6.544l.162.089.018-.363v-2.51c.002-1.455.006-2.911.002-4.366 0-.178.049-.367-.072-.547l-.193-.01zM12.93 127v-17.133h3.633v14.133h6.949v3h-10.582zM36.977 127l-1.242-4.078h-6.246l-1.243 4.078h-3.914l6.047-17.203h4.441l6.071 17.203h-3.914zm-2.11-7.125c-1.148-3.695-1.795-5.785-1.939-6.27s-.248-.867-.311-1.148c-.258 1-.996 3.473-2.215 7.418h4.465zM46.68 120.426v6.574h-3.633v-17.133h4.992c2.328 0 4.051.424 5.168 1.271s1.676 2.135 1.676 3.861c0 1.008-.277 1.904-.832 2.689s-1.34 1.4-2.355 1.846c2.578 3.852 4.258 6.34 5.039 7.465h-4.031l-4.09-6.574h-1.934zm0-2.953h1.172c1.148 0 1.996-.191 2.543-.574s.82-.984.82-1.805c0-.812-.279-1.391-.838-1.734s-1.424-.516-2.596-.516h-1.101v4.629zM69.379 127l-1.242-4.078h-6.246l-1.243 4.078h-3.914l6.047-17.203h4.441l6.071 17.203h-3.914zm-2.109-7.125c-1.148-3.695-1.795-5.785-1.939-6.27s-.248-.867-.311-1.148c-.258 1-.996 3.473-2.215 7.418h4.465zM85.223 109.867h3.668l-5.825 17.133h-3.961l-5.812-17.133h3.668l3.223 10.195c.18.602.365 1.303.557 2.104s.311 1.357.357 1.67c.086-.719.379-1.977.879-3.773l3.246-10.196zM100.914 127h-9.867v-17.133h9.867v2.977h-6.234v3.762h5.801v2.977h-5.801v4.417h6.234v3zM104.488 127v-17.133h3.633v14.133h6.949v3h-10.582z"/></svg>