<?xml version="1.0" standalone="no"?>
<!DOCTYPE svg PUBLIC "-//W3C//DTD SVG 20010904//EN"
 "http://www.w3.org/TR/2001/REC-SVG-20010904/DTD/svg10.dtd">
<svg version="1.0" xmlns="http://www.w3.org/2000/svg"
 width="1200.000000pt" height="1248.000000pt" viewBox="0 0 1200.000000 1248.000000"
 preserveAspectRatio="xMidYMid meet">

<g transform="translate(0.000000,1248.000000) scale(0.100000,-0.100000)"
fill="#F05340" stroke="none">
<path d="M2440 12467 c-19 -7 -557 -314 -1195 -681 -773 -445 -1170 -679
-1191 -701 -17 -19 -36 -52 -42 -73 -16 -54 -17 -7948 -1 -8005 6 -22 25 -54
42 -72 42 -44 4657 -2700 4713 -2713 26 -6 55 -5 84 3 63 16 4666 2666 4707
2709 17 19 36 51 42 73 8 26 11 439 11 1308 l0 1270 1122 645 c1058 609 1123
647 1150 689 l28 45 0 1368 c0 1489 3 1405 -56 1459 -16 14 -555 329 -1199
700 l-1170 674 -65 0 -65 0 -1145 -658 c-630 -363 -1166 -673 -1192 -690 -26
-17 -57 -49 -70 -72 l-23 -40 -5 -1289 -5 -1289 -945 -545 c-520 -299 -953
-547 -962 -549 -17 -5 -18 118 -18 2487 l0 2493 -25 43 c-31 52 109 -31 -1296
777 -1178 678 -1150 664 -1229 634z m1083 -987 c493 -283 896 -517 896 -520 0
-3 -432 -253 -960 -557 l-961 -552 -959 552 c-527 304 -959 554 -959 557 0 3
431 253 958 556 l957 551 66 -36 c37 -20 470 -268 962 -551z m6858 -1270 c519
-299 948 -546 952 -550 11 -10 -1892 -1105 -1918 -1104 -26 1 -1906 1086
-1905 1099 1 15 1892 1104 1911 1101 9 -2 441 -248 960 -546z m-8991 -158
l915 -527 5 -2610 5 -2610 22 -35 c12 -19 34 -44 50 -56 15 -11 524 -301 1131
-644 l1102 -623 0 -1104 c0 -606 -4 -1103 -9 -1103 -4 0 -957 546 -2117 1214
l-2109 1214 -3 3732 -2 3731 47 -26 c27 -14 460 -263 963 -553z m3230 -1837
l0 -2405 -37 -24 c-50 -32 -1882 -1086 -1888 -1086 -3 0 -5 1086 -5 2413 l1
2412 957 551 c526 303 960 549 965 547 4 -2 7 -1086 7 -2408z m3651 553 l959
-552 0 -1094 c0 -1038 -1 -1094 -17 -1088 -10 4 -444 253 -965 553 l-948 545
0 1094 c0 602 3 1094 6 1094 4 0 438 -248 965 -552z m3269 -535 c0 -599 -4
-1093 -8 -1098 -7 -11 -1904 -1105 -1916 -1105 -3 0 -6 492 -6 1094 l0 1094
957 551 c527 303 961 551 965 551 5 0 8 -489 8 -1087z m-3456 -1990 c807 -465
946 -548 932 -559 -9 -6 -315 -182 -679 -390 -364 -208 -1307 -746 -2096
-1196 l-1434 -819 -46 25 c-274 150 -1863 1055 -1863 1062 -1 15 4205 2434
4222 2428 8 -3 442 -251 964 -551z m1144 -1979 l-3 -1096 -2108 -1214 c-1160
-668 -2113 -1214 -2118 -1214 -5 0 -9 446 -9 1103 l0 1104 2113 1206 c1161
663 2115 1206 2120 1207 4 0 6 -493 5 -1096z"/>
</g>
</svg>
