<?xml version="1.0" encoding="UTF-8"?>
<svg xmlns="http://www.w3.org/2000/svg" xmlns:xlink="http://www.w3.org/1999/xlink" width="128px" height="133px" viewBox="0 0 128 128" version="1.1">
<g id="surface1">
<path style=" stroke:none;fill-rule:nonzero;fill:rgb(94.117647%,32.54902%,25.098039%);fill-opacity:1;" d="M 26.027344 0.136719 C 25.824219 0.214844 20.085938 3.484375 13.28125 7.394531 C 5.035156 12.136719 0.800781 14.632812 0.574219 14.867188 C 0.394531 15.070312 0.191406 15.421875 0.128906 15.644531 C -0.0429688 16.21875 -0.0546875 100.347656 0.117188 100.953125 C 0.179688 101.1875 0.382812 101.53125 0.566406 101.722656 C 1.011719 102.191406 50.238281 130.496094 50.835938 130.632812 C 51.113281 130.699219 51.425781 130.6875 51.734375 130.601562 C 52.40625 130.433594 101.503906 102.191406 101.941406 101.730469 C 102.121094 101.53125 102.324219 101.1875 102.390625 100.953125 C 102.476562 100.675781 102.507812 96.277344 102.507812 87.015625 L 102.507812 73.480469 L 114.476562 66.605469 C 125.761719 60.117188 126.453125 59.710938 126.742188 59.265625 L 127.039062 58.785156 L 127.039062 44.207031 C 127.039062 28.335938 127.070312 29.230469 126.441406 28.65625 C 126.273438 28.507812 120.523438 25.152344 113.652344 21.195312 L 101.171875 14.015625 L 99.785156 14.015625 L 87.574219 21.027344 C 80.851562 24.894531 75.136719 28.199219 74.859375 28.378906 C 74.582031 28.5625 74.25 28.902344 74.113281 29.148438 L 73.867188 29.574219 L 73.8125 43.308594 L 73.761719 57.046875 L 63.679688 62.855469 C 58.132812 66.042969 53.515625 68.683594 53.417969 68.707031 C 53.238281 68.757812 53.226562 67.449219 53.226562 42.203125 L 53.226562 15.632812 L 52.960938 15.175781 C 52.628906 14.621094 54.121094 15.507812 39.136719 6.894531 C 26.570312 -0.332031 26.871094 -0.179688 26.027344 0.136719 Z M 37.578125 10.65625 C 42.835938 13.671875 47.136719 16.167969 47.136719 16.199219 C 47.136719 16.230469 42.527344 18.894531 36.894531 22.132812 L 26.644531 28.015625 L 16.414062 22.132812 C 10.792969 18.894531 6.1875 16.230469 6.1875 16.199219 C 6.1875 16.167969 10.785156 13.503906 16.40625 10.273438 L 26.613281 4.402344 L 27.316406 4.785156 C 27.710938 5 32.332031 7.640625 37.578125 10.65625 Z M 110.730469 24.191406 C 116.265625 27.378906 120.84375 30.011719 120.886719 30.054688 C 121.003906 30.160156 100.703125 41.828125 100.425781 41.816406 C 100.148438 41.808594 80.097656 30.246094 80.105469 30.105469 C 80.117188 29.945312 100.289062 18.339844 100.492188 18.371094 C 100.585938 18.394531 105.195312 21.015625 110.730469 24.191406 Z M 14.828125 25.875 L 24.585938 31.492188 L 24.640625 59.304688 L 24.691406 87.121094 L 24.929688 87.496094 C 25.054688 87.695312 25.289062 87.964844 25.460938 88.089844 C 25.621094 88.207031 31.050781 91.300781 37.523438 94.953125 L 49.28125 101.59375 L 49.28125 113.359375 C 49.28125 119.816406 49.238281 125.113281 49.183594 125.113281 C 49.140625 125.113281 38.976562 119.296875 26.601562 112.175781 L 4.105469 99.238281 L 4.074219 59.464844 L 4.054688 19.703125 L 4.554688 19.980469 C 4.84375 20.132812 9.460938 22.785156 14.828125 25.875 Z M 49.28125 45.453125 L 49.28125 71.082031 L 48.886719 71.339844 C 48.351562 71.679688 28.8125 82.910156 28.746094 82.910156 C 28.714844 82.910156 28.691406 71.339844 28.691406 57.195312 L 28.703125 31.492188 L 38.910156 25.621094 C 44.523438 22.390625 49.152344 19.769531 49.207031 19.789062 C 49.246094 19.8125 49.28125 31.363281 49.28125 45.453125 Z M 88.222656 39.558594 L 98.453125 45.441406 L 98.453125 57.101562 C 98.453125 68.164062 98.441406 68.757812 98.273438 68.695312 C 98.164062 68.652344 93.535156 66 87.980469 62.800781 L 77.867188 56.992188 L 77.867188 45.335938 C 77.867188 38.917969 77.898438 33.675781 77.929688 33.675781 C 77.972656 33.675781 82.601562 36.320312 88.222656 39.558594 Z M 123.09375 45.261719 C 123.09375 51.644531 123.050781 56.910156 123.007812 56.960938 C 122.933594 57.078125 102.699219 68.738281 102.570312 68.738281 C 102.539062 68.738281 102.507812 63.496094 102.507812 57.078125 L 102.507812 45.421875 L 112.714844 39.546875 C 118.335938 36.320312 122.964844 33.675781 123.007812 33.675781 C 123.0625 33.675781 123.09375 38.886719 123.09375 45.261719 Z M 86.230469 66.46875 C 94.835938 71.421875 96.320312 72.308594 96.171875 72.425781 C 96.074219 72.488281 92.8125 74.363281 88.929688 76.582031 C 85.046875 78.796875 74.988281 84.53125 66.570312 89.328125 L 51.273438 98.054688 L 50.785156 97.789062 C 47.863281 96.191406 30.910156 86.546875 30.910156 86.472656 C 30.902344 86.3125 75.765625 60.53125 75.945312 60.597656 C 76.03125 60.628906 80.660156 63.269531 86.230469 66.46875 Z M 98.433594 87.558594 L 98.398438 99.238281 L 75.914062 112.175781 C 63.542969 119.296875 53.375 125.113281 53.324219 125.113281 C 53.269531 125.113281 53.226562 120.359375 53.226562 113.359375 L 53.226562 101.59375 L 75.765625 88.742188 C 88.148438 81.675781 98.324219 75.890625 98.378906 75.878906 C 98.421875 75.878906 98.441406 81.132812 98.433594 87.558594 Z M 98.433594 87.558594 "/>
</g>
</svg>
