<?xml version="1.0" encoding="utf-8"?>
<!-- Generator: Adobe Illustrator 16.0.0, SVG Export Plug-In . SVG Version: 6.00 Build 0)  -->
<!DOCTYPE svg PUBLIC "-//W3C//DTD SVG 1.1//EN" "http://www.w3.org/Graphics/SVG/1.1/DTD/svg11.dtd">
<svg version="1.1" id="Layer_1" xmlns="http://www.w3.org/2000/svg" xmlns:xlink="http://www.w3.org/1999/xlink" x="0px" y="0px"
	 width="500px" height="500px" viewBox="0 0 500 500" enable-background="new 0 0 500 500" xml:space="preserve">
<g>
	<path fill="#FD4F31" d="M57.777,71.047c3.536,5.891,7.084,11.777,10.622,17.669c3.269,5.443,6.528,10.892,9.791,16.336
		c5.081,8.477,10.162,16.955,15.242,25.43c3.465,5.782,6.93,11.566,10.398,17.346c5.05,8.418,10.113,16.831,15.16,25.252
		c6.189,10.328,12.364,20.667,18.554,30.997c5.348,8.928,10.706,17.851,16.064,26.77c0.231,0.385,0.51,0.743,0.716,1.04
		c0.777,0.247,1.397,0.036,2.036-0.116c7.058-1.695,14.118-3.381,21.177-5.064c11.448-2.734,22.897-5.463,34.346-8.199
		c5.978-1.428,11.952-2.861,17.933-4.291c11.572-2.766,23.149-5.523,34.724-8.294c11.701-2.799,23.398-5.61,35.099-8.413
		c5.912-1.418,11.828-2.831,17.745-4.243c11.448-2.73,22.896-5.457,34.346-8.185c12.467-2.969,24.934-5.935,37.402-8.907
		c0.626-0.148,1.245-0.336,2.02-0.545c-0.217-0.44-0.341-0.795-0.551-1.094c-3.396-4.813-6.807-9.617-10.208-14.427
		c-3.364-4.756-6.72-9.52-10.083-14.274c-3.59-5.078-7.191-10.149-10.781-15.228c-3.44-4.863-6.868-9.734-10.308-14.597
		c-3.401-4.811-6.811-9.615-10.213-14.425c-3.519-4.968-7.027-9.942-10.547-14.908c-3.443-4.862-6.894-9.717-10.34-14.576
		c-1.818-2.563-3.637-5.126-5.45-7.692c-0.834-1.182-1.498-2.453-1.943-3.835c-1.076-3.344,0.154-5.569,2.104-7.213
		c1.266-1.068,2.721-1.851,4.295-2.315c2.194-0.646,4.405-1.265,6.648-1.688c4.496-0.849,9.017-1.571,13.533-2.321
		c5.095-0.846,10.196-1.657,15.293-2.496c3.227-0.532,6.447-1.09,9.672-1.636c4.384-0.74,8.766-1.484,13.15-2.218
		c4.257-0.713,8.515-1.42,12.771-2.122c4.646-0.764,9.292-1.514,13.937-2.281c3.228-0.532,6.448-1.087,9.674-1.626
		c3.677-0.614,7.353-1.226,11.03-1.827c4.583-0.749,9.164-1.502,13.75-2.219c2.73-0.427,5.466-0.578,8.175,0.204
		c2.034,0.588,3.886,1.542,5.609,2.756c0.786,0.553,1.575,1.099,2.384,1.663c0.237-0.549-0.105-0.847-0.262-1.163
		c-3.44-6.962-8.133-12.947-14.09-17.936c-5.542-4.638-11.763-8.046-18.645-10.222c-4.063-1.286-8.242-1.589-12.497-1.912
		C406.543,3.951,405.813,4,405.185,4C301.979,4,198.772,4,95.564,4c-0.559,0-1.107-0.07-1.676-0.026
		c-3.729,0.292-7.391,0.698-10.996,1.687c-7.898,2.167-14.912,5.857-21.1,11.194c-3.64,3.138-6.816,6.631-9.511,10.614
		c-4.163,6.15-6.998,12.814-8.421,20.253c0.569,0.996,1.168,2.066,1.804,3.128C49.698,57.59,53.735,64.313,57.777,71.047z"/>
	<path fill="#FD4F31" d="M78.25,414.11c3.786,1.457,7.701,2.48,11.741,2.978c1.36,0.171,2.729,0.275,4.089,0.449
		c0.635,0.084,1.251,0.463,1.877,0.463c42.044,0,84.085,0,126.127,0c-0.204,0-0.387-0.85-0.616-1.242
		c-4.962-8.469-9.977-16.914-14.879-25.413c-6.178-10.71-12.296-21.46-18.381-32.225c-6.5-11.501-12.943-23.041-19.393-34.574
		c-6.132-10.962-12.246-21.934-18.354-32.907c-3.69-6.631-7.355-13.276-11.038-19.91c-0.28-0.502-0.623-0.969-0.981-1.52
		c-0.657,0.128-1.232,0.211-1.791,0.354c-3.545,0.917-7.085,1.84-10.625,2.772c-4.929,1.297-9.854,2.617-14.787,3.902
		c-11.069,2.883-22.143,5.745-33.214,8.618c-11.261,2.923-22.581,5.853-33.847,8.765C43.49,294.798,44,294.859,42,294.975
		c0,23.313,0,46.628,0,69.94c2,0.404,0.824,1.148,0.914,1.864c0.26,2.07,0.48,4.157,0.847,6.21
		c1.361,7.643,4.328,14.637,8.757,21.007C59.018,403.342,67.645,410.025,78.25,414.11z"/>
	<path fill="#FD4F31" d="M54.336,256.342c13.029-3.099,26.062-6.193,39.092-9.286c5.723-1.357,11.448-2.698,17.17-4.057
		c2.861-0.681,5.731-1.332,8.569-2.097c2.527-0.683,2.84-1.519,1.539-3.799c-1.88-3.295-3.79-6.57-5.693-9.852
		c-5.582-9.614-11.169-19.229-16.752-28.843c-5.584-9.616-11.161-19.232-16.746-28.847c-5.681-9.784-11.365-19.567-17.05-29.348
		c-4.863-8.369-9.73-16.736-14.596-25.106c-2.101-3.619-4.25-7.249-6.361-10.863c-0.389-0.664,0.492-1.45-1.508-1.8
		c0,52.259,0,104.517,0,156.775c0-0.105,1.092-0.195,1.598-0.316C47.156,258.052,50.776,257.188,54.336,256.342z"/>
	<path fill="#FD4F31" d="M455.394,368.402c-5.109,1.815-10.218,3.645-15.324,5.473c-11.626,4.168-23.254,8.334-34.88,12.507
		c-6.458,2.318-12.908,4.662-19.371,6.971c-13.171,4.701-26.349,9.387-39.524,14.078c-7.634,2.717-15.273,5.44-22.901,8.173
		c-2.09,0.75-4.149,2.396-6.222,2.396c29.208,0,58.414,0,87.621,0c0.629,0,1.254-0.422,1.889-0.445
		c2.227-0.096,4.421-0.438,6.611-0.838c8.994-1.646,17.049-5.374,24.183-11.062c5.479-4.369,9.938-9.629,13.431-15.721
		c3.594-6.275,5.727-13.02,6.75-20.144c0.091-0.614,0.282-1.293-0.234-1.928C456.696,367.806,456.055,368.166,455.394,368.402z"/>
	<path fill="#FD4F31" d="M447.866,250.742c-3.866-5.282-7.736-10.561-11.594-15.851c-5.322-7.299-10.635-14.607-15.95-21.911
		c-2.159-2.964-4.349-5.903-6.458-8.901c-0.636-0.903-1.358-1.142-2.35-0.875c-0.188,0.05-0.375,0.119-0.564,0.162
		c-9.785,2.377-19.573,4.749-29.358,7.122c-5.847,1.419-11.692,2.837-17.538,4.256c-11.435,2.776-22.871,5.554-34.307,8.331
		c-11.311,2.748-22.62,5.5-33.932,8.246c-11.755,2.851-23.513,5.687-35.268,8.539c-11.566,2.808-23.126,5.627-34.689,8.439
		c-11.184,2.716-22.366,5.43-33.549,8.145c-5.91,1.435-11.82,2.862-17.726,4.308c-0.869,0.213-1.808,0.263-2.731,0.965
		c0.309,0.59,0.532,1.059,0.791,1.505c4.95,8.555,9.903,17.106,14.866,25.654c5.619,9.678,11.243,19.354,16.88,29.021
		c6.199,10.627,12.412,21.25,18.622,31.872c3.567,6.102,7.115,12.214,10.714,18.3c3.997,6.759,8.012,13.51,12.082,20.227
		c1.22,2.01,2.604,3.927,4.001,5.819c0.936,1.263,2.097,2.34,3.46,3.163c1.411,0.852,2.931,1.118,4.53,0.757
		c0.826-0.187,1.637-0.458,2.438-0.737c0.99-0.342,1.953-0.752,2.943-1.092c10.706-3.663,21.411-7.323,32.12-10.973
		c8.357-2.846,16.722-5.674,25.083-8.505c8.3-2.812,16.604-5.615,24.905-8.42c8.241-2.783,16.482-5.563,24.723-8.348
		c8.426-2.848,16.854-5.694,25.276-8.55c10.344-3.509,20.68-7.033,31.024-10.534c9.974-3.373,19.954-6.729,29.931-10.094
		c0.611-0.205,1.287-0.292,1.793-0.964c0.021-0.416,0.062-0.934,0.062-1.452c0.003-20.689-0.003-41.382,0.021-62.073
		c0-1.106-0.297-1.997-0.958-2.886C454.032,259.207,450.958,254.968,447.866,250.742z"/>
	<path fill="#FD4F31" d="M446.149,55.793c-2.324-2.941-5.28-3.875-8.905-2.927c-1.578,0.413-3.198,0.674-4.805,0.969
		c-5.274,0.965-10.552,1.914-15.826,2.872c-7.72,1.402-15.435,2.817-23.157,4.208c-6.111,1.1-12.229,2.18-18.344,3.253
		c-8.179,1.437-16.36,2.855-24.537,4.292c-1.029,0.181-2.069,0.359-3.059,0.677c-1.446,0.463-1.864,1.369-1.203,2.728
		c0.539,1.111,1.212,2.172,1.939,3.172c5.071,6.993,10.17,13.968,15.267,20.946c7.024,9.621,14.053,19.24,21.082,28.857
		c5.948,8.138,11.9,16.272,17.853,24.408c4.678,6.391,9.354,12.782,14.037,19.17c0.268,0.363,0.574,0.695,0.925,1.119
		c13.468-3.329,26.912-6.65,40.587-10.032c0.037-0.821,0.094-1.462,0.094-2.104c0.003-28.153-0.003-56.306,0.022-84.461
		c0.002-1.243-0.304-2.242-1.083-3.227c-3.416-4.308-6.766-8.667-10.143-13.007C446.654,56.395,446.392,56.101,446.149,55.793z"/>
	<path fill="#FD4F31" d="M457.07,192.205c-6.14,1.476-12.301,2.879-18.587,4.542c0.665,1.182,17.908,24.46,18.914,25.564
		c0.112,0.125,0.309,0.176,0.629,0.348c0.029-0.549,0.07-0.983,0.07-1.418c0.006-3.267,0.002-6.534,0.003-9.803
		c0.005-5.686,0.02-11.372,0.005-17.056c-0.002-0.694,0.192-1.434-0.28-2.138C457.576,192.228,457.308,192.148,457.07,192.205z"/>
	<polygon fill="#FD4F31" points="65,436 53,436 53,497 97,497 97,486 65,486 	"/>
	<path fill="#FD4F31" d="M123.734,434l-24.257,63h13.339l5.141-14h24.894l5.438,14h13.679l-24.937-63H123.734z M121.822,473
		l8.411-23.109L138.814,473H121.822z"/>
	<path fill="#FD4F31" d="M209.905,474.24c-1.771-1.897-4.015-3.64-6.732-5.226c5.465-0.792,9.572-2.712,12.319-5.756
		s4.12-6.903,4.12-11.576c0-3.681-0.906-6.952-2.719-9.813s-4.228-4.962-7.243-6.079c-3.016-1.12-7.852-1.791-14.507-1.791H169v63
		h12v-26h2.801c2.889,0,4.999-0.016,6.33,0.452c1.332,0.468,2.592,1.207,3.78,2.467c1.189,1.26,3.399,4.499,6.627,9.342L209.63,497
		h15.037l-7.604-12.399C214.062,479.758,211.676,476.138,209.905,474.24z M190.556,461H181v-16h10.065
		c5.098,0,8.156-0.051,9.176,0.093c2.039,0.339,3.617,1.092,4.736,2.381s1.678,2.95,1.678,5.046c0,1.869-0.425,3.413-1.273,4.659
		c-0.851,1.246-2.025,2.335-3.526,2.844C200.354,460.533,196.588,461,190.556,461z"/>
	<path fill="#FD4F31" d="M249.392,434l-24.257,63h13.339l5.141-14h24.894l5.438,14h13.679l-24.937-63H249.392z M247.479,473
		l8.411-23.109L264.472,473H247.479z"/>
	<polygon fill="#FD4F31" points="310.861,480.092 295.1,434 281.464,434 303.724,497 317.147,497 339.449,434 326.11,434 	"/>
	<polygon fill="#FD4F31" points="359,470 389,470 389,460 359,460 359,445 391,445 391,434 346,434 346,497 393,497 393,486 
		359,486 	"/>
	<polygon fill="#FD4F31" points="418,436 405,436 405,497 448,497 448,486 418,486 	"/>
</g>
</svg>
