<svg xmlns="http://www.w3.org/2000/svg" viewBox="0 0 128 128"><path fill="#f0513f" d="m3.634 13.642-.852.526-.26.17-.192.154-.011.011-.01.012-.524.91-.004.014-.004.011-.024.124-.004.076-.01.214-.013.739-.01 81.01.014.74.008.214.006.077.019.111.559.966v.002l.132.105.136.09 48.141 27.704.46.246.143.072.162.06 1.113-.033.156-.058.145-.074.464-.248 46.038-26.445 1.587-.943.446-.274.134-.09.136-.108.004-.006.006-.004.545-.953.018-.066.115-26.524 23.45-13.756.431-.696-.175-29.314-25.371-14.896H99.12L74.73 27.568l-.013.008-.885.924-.303.518v.134l-.099 26.454L54.616 66.39l-.182-50.808v-.134l-.394-.677L27.704.064 27.464 0zM27.457 1.064l25.861 14.44.122.212.187 51.54.015.822.722-.4 19.807-11.352.25-.141.002-.29.1-26.61.177-.302.002-.004.56-.568 24.125-13.906h1.085l24.655 14.483.158 28.46-.148.239-23.726 13.917-.116 26.922-.293.503-.088.056-.428.262-1.578.94-46.009 26.426-.446.24-.109.055-.601.026-.094-.049-.44-.237-48.087-27.67-.097-.063-.293-.497v-.004l-.008-.188-.014-.73.01-80.98.014-.725.008-.167.316-.551.03-.018.23-.151.83-.512 22.417-12.93.81-.454.083-.045zm.575 3.013L7.17 16.126l.725.432 19.917 11.507.249.144.25-.142 18.528-10.66 1.061-.624.28-.167.083-.054.045-.03.048-.042.057-.066.093-.29v-.29l-.249-.141zm.002 1.147L47.03 16.143l-.69.406-18.276 10.513L9.14 16.133zm71.829 12.533-.064.014-.06.021-.082.037-.198.101-.664.357-18.102 10.42-.635.389-.182.118-.072.054-.058.053-.057.07-.083.246v.004l.08.299.06.078.058.052.072.052.178.119.629.382 18.029 10.393.67.365.203.103.08.035.198.046h.002l.108-.01.055-.011.058-.021.085-.035.206-.105.679-.363 18.184-10.453.621-.383.179-.12.08-.062.08-.091.082-.185-.151-.471-.049-.04-.02-.014-.022-.014-.053-.033-.172-.103-.635-.369-18.076-10.366-.66-.368-.191-.103-.066-.033-.125-.047-.021-.006-.02-.002h-.158zm-94.284.928.048 78.562 44.868 25.756.1-24.038-23.4-13.267-.38-.431-.155-.247-.105-54.288-.248-.144zm44.943.11-.732.395-19.965 11.396-.254.142v.29l.023 49.204.01.642.004.173.004.064.01.058.025.089.464.316.186-.037.031-.013.027-.014.053-.029.17-.093.617-.35L49.98 70.227l.004-.002.613-.402v-.27zm49.412.007.033.017.65.363 18.064 10.36.17.1-.125.075-18.147 10.432-.658.353-.037.02-.04-.022-.653-.353-17.998-10.374-.17-.105.182-.11 18.072-10.4.644-.349.013-.007zM6.572 20.404l18.99 10.902.104 54.004.309.487.644.714.023.015L49.6 99.541l-.091 21.75L6.62 96.674zm42.958.078.072 48.803-.16.105-18.738 10.775-.117.066v-.02l-.023-48.905 18.967-10.824zm72.827 11.804L101.409 44.29l.064 23.84 20.884-12.034v-.288zm-44.868.002-.066 23.839 20.852 11.957.183-23.775-.253-.143zm.988 1.711L97.46 44.882l-.167 21.494-18.875-10.824zm42.886.002v21.522l-18.9 10.89-.058-21.549zm-45.44 24.866-.062.02-.062.026-.119.06-.39.21-43.323 24.92-.749.434 20.82 11.841 44.694-25.511-.74-.433-19.728-11.536-.039-.016-.302-.015zm.11 1.046 18.712 10.944-42.71 24.378-18.82-10.705L75.77 60.054zM98.382 73.37 53.44 98.967l.1 24.037 44.863-25.755v-.289zm-.994 1.708.022 21.595-42.885 24.619-.089-21.749zM3.033 99.027l.006.006h-.002z"/></svg>
