<svg xmlns="http://www.w3.org/2000/svg" viewBox="0 0 128 128"><path fill="#ff6c2c" d="M65.085 26.321a7.624 7.624 0 0 0-4.8 1.601 7.97 7.97 0 0 0-2.826 4.24l-18.56 69.517h13.096a7.498 7.498 0 0 0 4.71-1.601 7.97 7.97 0 0 0 2.826-4.145l13.753-51.149h10.55a9.611 9.611 0 0 1 4.506 1.083 10 10 0 0 1 3.391 2.826 10.393 10.393 0 0 1 1.837 4.003 9.263 9.263 0 0 1-.126 4.632 9.91 9.91 0 0 1-9.608 7.441H78.37a7.636 7.636 0 0 0-4.803 1.602 7.97 7.97 0 0 0-2.826 4.144l-3.392 12.717H84.4a27.521 27.521 0 0 0 22.984-12.293 28.221 28.221 0 0 0 3.768-8.336l.377-1.413a26.312 26.312 0 0 0 .377-12.874 28.011 28.011 0 0 0-14.648-19.028 26.626 26.626 0 0 0-12.481-2.967Zm43.984.132v1.033h3.172v8.98h1.165v-8.98h3.17v-1.033zm9.015 0v10.013h1.074V30.09c0-.971-.032-1.809-.094-2.512h.053l3.397 8.89h.94l3.44-8.865h.054a33.69 33.69 0 0 0-.097 2.412v6.452H128V26.453h-1.74l-3.197 8.258h-.056l-3.172-8.258zM28.16 44.878a27.317 27.317 0 0 0-9.058 1.507 28.23 28.23 0 0 0-7.85 4.192 27.848 27.848 0 0 0-9.935 14.836L.94 66.826A27.477 27.477 0 0 0 .607 79.7a27.757 27.757 0 0 0 5.134 11.146 28.19 28.19 0 0 0 9.486 7.866 26.617 26.617 0 0 0 12.481 2.967h6.594l3.768-13.941a3.266 3.266 0 0 0-.628-3.062 3.391 3.391 0 0 0-2.779-1.366h-6.029a9.966 9.966 0 0 1-4.52-1.036 9.51 9.51 0 0 1-3.392-2.779 10.393 10.393 0 0 1-1.825-4.003 10.02 10.02 0 0 1 .142-4.804 10.362 10.362 0 0 1 3.626-5.37 9.586 9.586 0 0 1 5.966-1.977h9.894a7.636 7.636 0 0 0 4.804-1.602 7.97 7.97 0 0 0 2.826-4.238l3.294-12.623z"/></svg>
