<svg xmlns="http://www.w3.org/2000/svg" viewBox="0 0 128 128"><path fill="#333" d="M-132.324 69.912c-.671-.107-2.39-.537-3.813-.926l-2.592-.725 1.33-2.444 1.329-2.444-1.074-1.33c-1.518-1.88-3.478-6.002-3.492-7.33-.013-3.103 4.015-7.601 8.957-10.018 3.397-1.665 6.096-1.705 9.48-.12l2.55 1.194.74-1.06c.402-.578.738-1.343.738-1.679s.336-.631.738-.631c.403 0 .739.107.739.228 0 .296-2.968 7.788-3.156 7.976-.08.08-.886-.295-1.799-.832-2.578-1.518-5.814-2.525-8.325-2.592-5.841-.148-7.869 5.56-3.746 10.554l1.45 1.76 3.961-3.21c4.445-3.585 4.955-3.666 8.42-1.275 3.893 2.685 3.96 6.767.2 11.037-3.33 3.8-6.754 4.848-12.635 3.867zm9.963-4.095c1.934-1.517 1.8-4.324-.295-6.553-2.632-2.793-3.45-2.672-8.083 1.195-4.606 3.84-4.633 3.693.872 5.452 3.64 1.181 5.922 1.141 7.506-.094zM-84.951 80.614c-1.316-.483-4.86-1.947-7.895-3.263-8.191-3.572-9.346-3.639-11.79-.671-.564.685-1.182 1.114-1.356.94-.524-.524 1.034-3.035 2.914-4.686 1.53-1.343 2.04-1.531 3.733-1.343 1.074.12 4.646 1.37 7.935 2.766 7.426 3.155 9.601 3.827 12.434 3.827 3.451 0 5.224-2.417 4.136-5.626-.268-.806-.188-1.075.35-1.075 1.006 0 1.517 3.76.791 5.922-.308.926-1.208 2.242-2 2.9-1.182.994-1.934 1.209-4.15 1.195-1.49-.013-3.786-.402-5.102-.886zm-19.134-11.48c-3.049-1.424-5.801-4.136-7.386-7.305-2.538-5.076-1.759-8.325 3.048-12.716 4.042-3.693 7.345-5.13 11.79-5.13 3.21 0 3.894.175 5.975 1.45 4.928 3.049 6.15 8.863 3.183 15.2-3.478 7.44-10.823 11.186-16.61 8.5zm10.205-3.532c2.282-1.128 3.853-6.338 3.209-10.662-.806-5.33-8.017-8.97-13.307-6.713-5.438 2.323-5.519 8.513-.175 14.085 3.733 3.908 6.943 4.928 10.273 3.29zM-83.528 70.114c0-.229.846-.631 1.894-.887l1.893-.47.403-6.82c.443-7.547.12-14.973-.698-15.966-.296-.35-1.195-.78-2.015-.967-3.33-.739-1.114-1.249 5.345-1.249 6.458 0 8.513.47 5.438 1.249-2.645.658-2.659.698-2.659 11.467 0 5.975.215 10.474.524 11.051.43.806 1.074.98 3.545.98 5.102 0 6.861-1.208 8.244-5.68.417-1.342 1.49-1.1 1.115.256-.175.63-.457 2.55-.631 4.296l-.322 3.156H-72.49c-6.07 0-11.038-.188-11.038-.416z"/><path fill="#ca2727" d="M-58.458 69.791c0-.402.39-.805 1.034-1.114.86-.403 1.423-1.249 3.464-5.237 3.236-6.31 8.339-17.147 8.822-18.772.376-1.235.457-1.302 1.853-1.463.806-.094 1.477-.148 1.49-.121.014.027 1.129 2.47 2.485 5.438 1.343 2.967 4.042 8.607 6.002 12.528 3.276 6.593 3.639 7.184 4.74 7.72.671.323 1.195.82 1.195 1.115 0 .47-.577.524-5.546.524-4.981 0-5.545-.054-5.545-.537 0-.322.43-.671 1.114-.9.631-.201 1.115-.577 1.115-.859 0-.269-.658-2.041-1.464-3.934l-1.463-3.451h-11.092l-1.06 2.336c-1.988 4.378-2.028 5.412-.175 5.908.926.255 1.182.457 1.074.873-.12.484-.604.55-4.095.55-3.747.028-3.948 0-3.948-.604zm18.181-10.863c.188-.335-3.988-9.453-4.377-9.547-.282-.08-4.606 8.836-4.606 9.507 0 .336 8.782.376 8.983.04z"/><g fill="#333"><path d="M-132.324 227.93c-.671-.108-2.39-.538-3.813-.927l-2.592-.725 1.33-2.444 1.329-2.444-1.074-1.33c-1.518-1.879-3.478-6.001-3.492-7.33-.013-3.102 4.015-7.6 8.957-10.018 3.397-1.665 6.096-1.705 9.48-.12l2.55 1.195.74-1.061c.402-.578.738-1.343.738-1.679s.336-.63.738-.63c.403 0 .739.107.739.227 0 .296-2.968 7.788-3.156 7.976-.08.081-.886-.295-1.799-.832-2.578-1.517-5.814-2.524-8.325-2.592-5.841-.147-7.869 5.56-3.746 10.555l1.45 1.759 3.961-3.21c4.445-3.585 4.955-3.665 8.42-1.275 3.893 2.685 3.96 6.767.2 11.037-3.33 3.8-6.754 4.848-12.635 3.868zm9.963-4.096c1.934-1.517 1.8-4.324-.295-6.553-2.632-2.793-3.45-2.672-8.083 1.195-4.606 3.84-4.633 3.693.872 5.452 3.64 1.168 5.922 1.141 7.506-.094zM-84.951 238.631c-1.316-.483-4.86-1.947-7.895-3.263-8.191-3.571-9.346-3.638-11.79-.67-.564.684-1.182 1.114-1.356.939-.524-.524 1.034-3.035 2.914-4.686 1.53-1.343 2.04-1.531 3.733-1.343 1.074.12 4.646 1.37 7.935 2.766 7.426 3.156 9.601 3.827 12.434 3.827 3.451 0 5.224-2.417 4.136-5.626-.268-.806-.188-1.074.35-1.074 1.006 0 1.517 3.76.791 5.921-.308.927-1.208 2.243-2 2.9-1.182.994-1.934 1.21-4.15 1.196-1.49-.014-3.786-.403-5.102-.887zm-19.134-11.48c-3.049-1.424-5.801-4.136-7.386-7.305-2.538-5.076-1.759-8.325 3.048-12.716 4.042-3.693 7.345-5.13 11.79-5.13 3.21 0 3.894.175 5.975 1.45 4.928 3.049 6.15 8.863 3.183 15.201-3.478 7.439-10.823 11.185-16.61 8.5zm10.205-3.532c2.282-1.128 3.853-6.338 3.209-10.661-.806-5.331-8.017-8.97-13.307-6.714-5.438 2.323-5.519 8.513-.175 14.085 3.733 3.908 6.943 4.928 10.273 3.29zM-83.528 228.13c0-.227.846-.63 1.894-.885l1.893-.47.403-6.822c.443-7.546.12-14.971-.698-15.965-.296-.35-1.195-.779-2.015-.967-3.33-.738-1.114-1.249 5.345-1.249 6.458 0 8.513.47 5.438 1.25-2.645.657-2.659.697-2.659 11.466 0 5.976.215 10.474.524 11.051.43.806 1.074.98 3.545.98 5.102 0 6.861-1.208 8.244-5.68.417-1.342 1.49-1.1 1.115.256-.175.63-.457 2.551-.631 4.297l-.322 3.155H-72.49c-6.07 0-11.038-.188-11.038-.416zM-58.458 227.809c0-.403.39-.806 1.034-1.115.86-.403 1.423-1.249 3.464-5.237 3.236-6.31 8.339-17.147 8.822-18.772.376-1.235.457-1.302 1.853-1.463.806-.094 1.477-.148 1.49-.121.014.027 1.129 2.47 2.485 5.438 1.343 2.968 4.042 8.607 6.002 12.528 3.276 6.593 3.639 7.184 4.74 7.721.671.322 1.195.82 1.195 1.115 0 .47-.577.523-5.546.523-4.981 0-5.545-.053-5.545-.537 0-.322.43-.671 1.114-.9.631-.2 1.115-.577 1.115-.859 0-.268-.658-2.04-1.464-3.934l-1.463-3.451h-11.092l-1.06 2.336c-1.988 4.378-2.028 5.412-.175 5.909.926.255 1.182.456 1.074.872-.12.484-.604.55-4.095.55-3.747.028-3.948 0-3.948-.603zm18.181-10.863c.188-.336-3.988-9.453-4.377-9.547-.282-.081-4.606 8.835-4.606 9.506 0 .336 8.782.376 8.983.04z"/></g><g><path fill="#333" d="M9.419 70.92a20.932 20.932 0 01-1.853-.457l-1.262-.35.644-1.18.645-1.183-.524-.644c-.738-.913-1.692-2.927-1.705-3.572 0-1.504 1.96-3.706 4.364-4.888 1.651-.805 2.967-.832 4.619-.067l1.249.578.362-.51c.202-.283.363-.659.363-.82 0-.16.16-.308.362-.308.202 0 .363.053.363.107 0 .148-1.45 3.787-1.544 3.88-.04.04-.43-.147-.873-.402-1.249-.739-2.833-1.236-4.055-1.262-2.847-.068-3.827 2.712-1.826 5.142l.711.86 1.934-1.558c2.162-1.746 2.417-1.786 4.109-.618 1.893 1.303 1.933 3.29.094 5.385-1.638 1.826-3.317 2.336-6.177 1.866zm4.847-2.001c.94-.739.873-2.109-.147-3.196-1.276-1.356-1.679-1.303-3.935.577-2.242 1.867-2.256 1.8.43 2.659 1.772.577 2.887.564 3.652-.04zM32.501 76.13c-.644-.229-2.377-.954-3.84-1.599-3.988-1.745-4.552-1.772-5.747-.322-.282.336-.578.537-.658.457-.255-.255.497-1.477 1.423-2.283.752-.658.994-.739 1.813-.658.524.054 2.27.658 3.867 1.343 3.612 1.53 4.673 1.866 6.056 1.866 1.678 0 2.551-1.181 2.014-2.739-.134-.39-.094-.524.175-.524.497 0 .738 1.826.39 2.887-.149.457-.592 1.088-.981 1.41-.578.484-.94.591-2.028.578-.725.013-1.84-.188-2.484-.417zm-9.319-5.6c-1.49-.685-2.82-2.014-3.598-3.558-1.236-2.471-.86-4.056 1.49-6.204 1.974-1.8 3.572-2.498 5.747-2.498 1.558 0 1.894.081 2.914.712 2.404 1.49 2.994 4.324 1.544 7.399-1.705 3.639-5.277 5.465-8.097 4.149zm4.969-1.719c1.114-.55 1.88-3.088 1.557-5.196-.39-2.592-3.907-4.378-6.485-3.277-2.646 1.128-2.686 4.15-.08 6.862 1.825 1.92 3.383 2.417 5.008 1.611zM33.2 71.013c0-.107.416-.308.926-.43l.926-.228.202-3.316c.215-3.68.054-7.291-.336-7.775-.148-.174-.577-.376-.98-.47-1.625-.362-.537-.618 2.605-.618s4.15.229 2.645.605c-1.289.322-1.289.335-1.289 5.586 0 2.913.108 5.102.255 5.384.215.39.524.47 1.732.47 2.485 0 3.344-.59 4.015-2.766.202-.658.725-.537.537.12-.08.31-.228 1.25-.308 2.096l-.148 1.544H38.61c-2.995 0-5.412-.094-5.412-.202z"/><path fill="#ca2727" d="M61.317 71c0-.255.215-.524.47-.604.336-.108.51-.457.618-1.195.188-1.263-.014-9.803-.242-10.514-.148-.443.094-.631 1.987-1.612 1.45-.752 2.202-1.02 2.31-.846.094.148-.134.51-.524.82l-.685.55-.067 6.07-.067 6.069.631.497c.39.308.578.644.497.859-.107.295-.618.362-2.524.362-2.216 0-2.404-.026-2.404-.456zM69.253 71.04c-.43-.295-1.048-1.02-1.37-1.611-.483-.9-.564-1.343-.483-2.672.067-1.356.201-1.732.805-2.484.82-1.007 2.726-2.404 3.586-2.619 1.114-.282 3.397 1.732 3.075 2.713-.081.241-.618.617-1.209.832l-1.074.403-.363-.698c-.456-.886-1.477-1.585-1.812-1.249-.135.134-.35.698-.47 1.249a4.169 4.169 0 00.859 3.545c.832.993 1.598 1.114 2.766.47.82-.457.98-.484 1.182-.188.174.268-.027.577-.793 1.275-1.785 1.638-3.316 1.974-4.7 1.034zM75.779 70.248c.335-.107.51-.457.617-1.195.188-1.262-.013-9.802-.241-10.514-.148-.443.094-.631 1.987-1.611 2.27-1.169 3.021-1.142 1.719.067-.725.685-.739.698-.739 3.182 0 1.37-.067 2.86-.161 3.303l-.161.806.98-.886c1.06-.954 2.202-1.625 2.766-1.625.497 0 1.773 1.128 2.202 1.96.296.578.336 1.209.202 3.398-.161 2.672-.161 2.699.403 2.994.752.39.725.35.55.792-.12.323-.537.39-2.51.39-2.539 0-2.78-.148-1.787-1.074 1.061-.98 1.155-4.942.148-5.949-.457-.456-.537-.456-1.128-.134-1.06.604-1.517 1.651-1.571 3.692-.054 1.827.12 2.243 1.074 2.552.121.04.148.255.054.483-.134.35-.497.416-2.511.416-.671.35-3.397-.08-1.893-1.047zM89.032 70.973c-3.988-2.967-1.477-8.701 3.008-9.372.322.08 1.034.537 1.557 1.02 1.531 1.383 1.316 1.826-1.45 3.075-1.249.564-2.296 1.182-2.336 1.396-.108.551.792 1.692 1.61 2.028.619.255.833.228 1.68-.255.751-.416 1.033-.483 1.248-.269.618.618-2.444 2.9-3.907 2.9-.336.014-.967-.228-1.41-.523zm1.786-5.72c1.222-.698 1.289-1.007.349-1.504-.752-.39-.792-.39-1.209.134-.416.524-.604 1.92-.255 1.907.094 0 .604-.242 1.115-.537zM95.397 71.013c0-.214.214-.55.483-.778.712-.578.9-3.451.376-5.506-.43-1.692-.483-1.57 1.128-2.43 1.235-.658 1.584-.47 1.584.819v1.047l.846-.779c.47-.43 1.222-.98 1.679-1.222.752-.402.886-.416 1.477-.08.362.201.9.752 1.222 1.235l.564.873 1.181-1.06c.658-.592 1.45-1.129 1.773-1.21.792-.2 1.692.323 2.403 1.41.578.874.591.994.457 3.626-.148 2.726-.148 2.726.47 3.21.376.295.564.63.47.845-.108.282-.604.363-2.417.363-2.081 0-2.27-.04-2.27-.457 0-.255.202-.523.457-.604.604-.188.739-.792.739-3.29 0-1.772-.068-2.162-.47-2.564-.631-.631-.98-.605-1.72.174-1.463 1.544-1.516 5.774-.08 5.774.202 0 .282.175.202.47-.108.43-.323.47-2.484.47-2.619 0-2.86-.188-1.76-1.289.551-.55.591-.765.591-2.726 0-1.786-.08-2.229-.496-2.753-.632-.792-.927-.792-1.733.04-.778.82-1.114 1.88-1.114 3.573 0 1.033.107 1.37.618 1.88 1.02 1.02.658 1.275-1.92 1.275-1.894.04-2.256-.013-2.256-.336z"/><path fill="#ca2727" d="M120.01 77.606c0-.053.16-.496.362-.966s.363-.967.363-1.102c0-.55-7.211-.134-8.38.497-.214.121-.47.43-.55.685-.174.524-.832.658-.832.161 0-.174.174-.819.39-1.437.321-.94.71-1.396 2.322-2.685 1.06-.86 1.974-1.652 2.014-1.76.04-.106-.805-1.866-1.866-3.907l-1.947-3.706 2.027-.953c1.115-.524 2.135-.953 2.283-.953.457 0 .282.51-.336.993-.322.255-.59.618-.59.82 0 .456 2.578 5.585 2.806 5.585.107 0 .483-.456.846-1.007.497-.765.644-1.249.59-1.96-.053-.82-.214-1.034-1.087-1.625-.55-.376-1.007-.832-1.007-1.02 0-.188.443-.632.967-.98l.967-.645.859.456c1.665.9 2.216 2.981 1.276 4.82-.444.86-2.941 3.412-5.385 5.48l-1.195 1.006.953-.16c.524-.095 2.162-.175 3.64-.189 2.792-.013 3.141.094 3.141 1.075 0 .577-1.799 3.424-2.229 3.518-.228.026-.402.013-.402-.04zM45.405 70.852c0-.201.188-.39.497-.537.416-.188.698-.604 1.692-2.551 1.584-3.075 4.055-8.352 4.297-9.144.174-.605.228-.632.9-.712.389-.04.725-.067.725-.054.013.014.55 1.209 1.208 2.645.658 1.45 1.974 4.19 2.927 6.11 1.598 3.21 1.773 3.505 2.31 3.76.322.161.577.403.577.537 0 .228-.282.255-2.699.255-2.43 0-2.699-.027-2.699-.255 0-.161.215-.322.537-.443.31-.108.537-.282.537-.416 0-.135-.322-.994-.711-1.92l-.712-1.68h-5.398l-.523 1.142c-.967 2.135-.98 2.632-.081 2.874.443.12.577.228.524.43-.067.241-.296.268-2.001.268-1.8 0-1.907-.013-1.907-.309zm8.862-5.29c.094-.161-1.947-4.606-2.135-4.66-.134-.04-2.242 4.31-2.242 4.633 0 .174 4.27.188 4.377.027z"/></g></svg>