<?xml version="1.0" encoding="utf-8"?>
<svg version="1.1" id="Layer_1" xmlns="http://www.w3.org/2000/svg" xmlns:xlink="http://www.w3.org/1999/xlink"
	 viewBox="0 0 128 128" xml:space="preserve">
<g transform="matrix(1.3427705,0,0,1.3427705,573.22142,-1004.1027)">
	<path fill="#333333" d="M-415.22,799.85c-0.5-0.08-1.78-0.4-2.84-0.69l-1.93-0.54l0.99-1.82l0.99-1.82l-0.8-0.99
		c-1.13-1.4-2.59-4.47-2.6-5.46c-0.01-2.31,2.99-5.66,6.67-7.46c2.53-1.24,4.54-1.27,7.06-0.09l1.9,0.89l0.55-0.79
		c0.3-0.43,0.55-1,0.55-1.25s0.25-0.47,0.55-0.47s0.55,0.08,0.55,0.17c0,0.22-2.21,5.8-2.35,5.94c-0.06,0.06-0.66-0.22-1.34-0.62
		c-1.92-1.13-4.33-1.88-6.2-1.93c-4.35-0.11-5.86,4.14-2.79,7.86l1.08,1.31l2.95-2.39c3.31-2.67,3.69-2.73,6.27-0.95
		c2.9,2,2.95,5.04,0.15,8.22C-408.29,799.8-410.84,800.58-415.22,799.85L-415.22,799.85z M-407.8,796.8
		c1.44-1.13,1.34-3.22-0.22-4.88c-1.96-2.08-2.57-1.99-6.02,0.89c-3.43,2.86-3.45,2.75,0.65,4.06
		C-410.68,797.75-408.98,797.72-407.8,796.8z"/>
	<path fill="#333333" d="M-379.94,807.82c-0.98-0.36-3.62-1.45-5.88-2.43c-6.1-2.66-6.96-2.71-8.78-0.5
		c-0.42,0.51-0.88,0.83-1.01,0.7c-0.39-0.39,0.77-2.26,2.17-3.49c1.14-1,1.52-1.14,2.78-1c0.8,0.09,3.46,1.02,5.91,2.06
		c5.53,2.35,7.15,2.85,9.26,2.85c2.57,0,3.89-1.8,3.08-4.19c-0.2-0.6-0.14-0.8,0.26-0.8c0.75,0,1.13,2.8,0.59,4.41
		c-0.23,0.69-0.9,1.67-1.49,2.16c-0.88,0.74-1.44,0.9-3.09,0.89C-377.25,808.47-378.96,808.18-379.94,807.82L-379.94,807.82z
		 M-394.19,799.27c-2.27-1.06-4.32-3.08-5.5-5.44c-1.89-3.78-1.31-6.2,2.27-9.47c3.01-2.75,5.47-3.82,8.78-3.82
		c2.39,0,2.9,0.13,4.45,1.08c3.67,2.27,4.58,6.6,2.37,11.32C-384.41,798.48-389.88,801.27-394.19,799.27z M-386.59,796.64
		c1.7-0.84,2.87-4.72,2.39-7.94c-0.6-3.97-5.97-6.68-9.91-5c-4.05,1.73-4.11,6.34-0.13,10.49
		C-391.46,797.1-389.07,797.86-386.59,796.64L-386.59,796.64z"/>
	<path fill="#333333" d="M-378.88,800c0-0.17,0.63-0.47,1.41-0.66l1.41-0.35l0.3-5.08
		c0.33-5.62,0.09-11.15-0.52-11.89c-0.22-0.26-0.89-0.58-1.5-0.72c-2.48-0.55-0.83-0.93,3.98-0.93c4.81,0,6.34,0.35,4.05,0.93
		c-1.97,0.49-1.98,0.52-1.98,8.54c0,4.45,0.16,7.8,0.39,8.23c0.32,0.6,0.8,0.73,2.64,0.73c3.8,0,5.11-0.9,6.14-4.23
		c0.31-1,1.11-0.82,0.83,0.19c-0.13,0.47-0.34,1.9-0.47,3.2l-0.24,2.35h-8.22C-375.18,800.31-378.88,800.17-378.88,800L-378.88,800
		L-378.88,800z"/>
	<path fill="#ca2727" d="M-360.21,799.76c0-0.3,0.29-0.6,0.77-0.83c0.64-0.3,1.06-0.93,2.58-3.9
		c2.41-4.7,6.21-12.77,6.57-13.98c0.28-0.92,0.34-0.97,1.38-1.09c0.6-0.07,1.1-0.11,1.11-0.09c0.01,0.02,0.84,1.84,1.85,4.05
		c1,2.21,3.01,6.41,4.47,9.33c2.44,4.91,2.71,5.35,3.53,5.75c0.5,0.24,0.89,0.61,0.89,0.83c0,0.35-0.43,0.39-4.13,0.39
		c-3.71,0-4.13-0.04-4.13-0.4c0-0.24,0.32-0.5,0.83-0.67c0.47-0.15,0.83-0.43,0.83-0.64c0-0.2-0.49-1.52-1.09-2.93l-1.09-2.57h-4.13
		h-4.13l-0.79,1.74c-1.48,3.26-1.51,4.03-0.13,4.4c0.69,0.19,0.88,0.34,0.8,0.65c-0.09,0.36-0.45,0.41-3.05,0.41
		C-360.06,800.23-360.21,800.21-360.21,799.76L-360.21,799.76z M-346.67,791.67c0.14-0.25-2.97-7.04-3.26-7.11
		c-0.21-0.06-3.43,6.58-3.43,7.08C-353.36,791.89-346.82,791.92-346.67,791.67L-346.67,791.67z"/>
</g>
</svg>
