<svg xmlns="http://www.w3.org/2000/svg" viewBox="0 0 128 128"><g fill="#333"><path d="M15.621 77.422c-.668-.11-2.379-.535-3.8-.926l-2.583-.723 1.325-2.433 1.328-2.438-1.07-1.324c-1.516-1.871-3.47-5.98-3.481-7.305-.016-3.093 4-7.574 8.926-9.984 3.386-1.66 6.074-1.7 9.445-.121l2.543 1.191.738-1.054c.399-.578.735-1.34.735-1.676 0-.332.335-.629.734-.629.402 0 .738.11.738.23 0 .293-2.957 7.762-3.144 7.95-.082.078-.883-.297-1.793-.832-2.57-1.512-5.797-2.516-8.297-2.582-5.82-.149-7.844 5.539-3.735 10.52l1.446 1.75 3.949-3.196c4.43-3.574 4.938-3.656 8.39-1.274 3.88 2.676 3.946 6.746.2 11-3.32 3.79-6.73 4.844-12.594 3.856zm9.93-4.082c1.93-1.512 1.793-4.309-.293-6.531-2.625-2.782-3.442-2.664-8.055 1.191-4.59 3.828-4.617 3.68.867 5.434 3.63 1.175 5.903 1.148 7.48-.094zm0 0M62.832 88.086c-1.309-.48-4.844-1.941-7.867-3.25-8.164-3.563-9.313-3.629-11.75-.672-.563.684-1.176 1.113-1.352.938-.52-.524 1.032-3.024 2.907-4.668 1.523-1.34 2.03-1.528 3.718-1.34 1.07.12 4.63 1.363 7.91 2.758 7.399 3.144 9.567 3.812 12.391 3.812 3.438 0 5.203-2.41 4.121-5.605-.27-.805-.187-1.07.348-1.07 1.004 0 1.512 3.745.789 5.898-.309.925-1.203 2.234-1.992 2.89-1.18.993-1.93 1.207-4.137 1.192-1.484 0-3.773-.403-5.086-.883zM43.766 76.645c-3.04-1.418-5.782-4.122-7.36-7.282-2.531-5.054-1.754-8.297 3.035-12.672 4.028-3.68 7.32-5.109 11.75-5.109 3.2 0 3.88.172 5.954 1.445 4.914 3.035 6.128 8.832 3.171 15.149-3.464 7.41-10.785 11.16-16.55 8.469zm10.168-3.52C56.21 72 57.774 66.809 57.133 62.5c-.805-5.313-7.988-8.938-13.262-6.691-5.418 2.316-5.5 8.484-.172 14.039 3.719 3.894 6.918 4.922 10.235 3.277zm0 0M64.25 77.621c0-.226.844-.629 1.887-.883l1.886-.468.403-6.797c.441-7.52.12-14.922-.696-15.91-.293-.348-1.19-.778-2.007-.965-3.317-.735-1.11-1.246 5.328-1.246 6.433 0 8.484.468 5.418 1.246-2.637.656-2.649.695-2.649 11.43 0 5.952.215 10.437.52 11.011.43.8 1.07.977 3.535.977 5.086 0 6.836-1.204 8.215-5.66.414-1.34 1.484-1.098 1.113.253-.176.63-.457 2.543-.629 4.282l-.324 3.144h-11c-6.047 0-11-.187-11-.414zm0 0M89.234 77.3c0-.402.391-.804 1.032-1.109.855-.402 1.418-1.246 3.453-5.218 3.222-6.293 8.308-17.09 8.793-18.711.37-1.23.453-1.297 1.843-1.457.805-.094 1.473-.149 1.489-.121.011.027 1.12 2.46 2.472 5.421a475.1 475.1 0 005.985 12.485c3.261 6.57 3.625 7.16 4.722 7.695.668.32 1.192.817 1.192 1.11 0 .468-.578.52-5.528.52-4.964 0-5.527-.052-5.527-.536 0-.32.43-.668 1.11-.895.628-.199 1.113-.574 1.113-.855 0-.27-.656-2.035-1.461-3.922l-1.457-3.437H97.41l-1.055 2.328c-1.98 4.359-2.023 5.39-.175 5.886.925.254 1.18.454 1.07.871-.121.48-.602.547-4.082.547-3.73.028-3.934 0-3.934-.601zm18.121-10.827c.188-.332-3.976-9.418-4.363-9.512-.281-.082-4.59 8.805-4.59 9.473 0 .336 8.75.375 8.953.039zm0 0"/></g></svg>