<svg viewBox="0 0 138 130" fill="none" xmlns="http://www.w3.org/2000/svg">
    <path d="M46.09.002h40.685L44.541 125.137a6.485 6.485 0 0 1-6.146 4.413H6.733a6.482 6.482 0 0 1-5.262-2.699 6.474 6.474 0 0 1-.876-5.848L39.944 4.414A6.488 6.488 0 0 1 46.09 0v.002z" fill="url(#a)"/>
    <path d="M105.211 83.934H40.695a2.985 2.985 0 0 0-2.039 5.17l41.456 38.694a6.519 6.519 0 0 0 4.447 1.752h36.532l-15.88-45.616z" fill="#0078D4"/>
    <path d="M46.09.002A6.434 6.434 0 0 0 39.93 4.5L.644 120.897a6.469 6.469 0 0 0 6.106 8.653h32.48a6.942 6.942 0 0 0 5.328-4.531l7.834-23.089 27.985 26.101a6.618 6.618 0 0 0 4.165 1.519h36.396l-15.963-45.616-46.533.011L86.922.002H46.09z" fill="url(#b)"/>
    <path d="M98.055 4.408A6.476 6.476 0 0 0 91.917.002H46.575a6.478 6.478 0 0 1 6.137 4.406l39.35 116.594a6.476 6.476 0 0 1-6.137 8.55h45.344a6.48 6.48 0 0 0 6.136-8.55L98.055 4.408z" fill="url(#c)"/>
    <defs>
        <linearGradient id="a" x1="60.919" y1="9.602" x2="18.667" y2="134.423" gradientUnits="userSpaceOnUse">
            <stop stop-color="#114A8B"/>
            <stop offset="1" stop-color="#0669BC"/>
        </linearGradient>
        <linearGradient id="b" x1="74.117" y1="67.772" x2="64.344" y2="71.076" gradientUnits="userSpaceOnUse">
            <stop stop-opacity=".3"/>
            <stop offset=".071" stop-opacity=".2"/>
            <stop offset=".321" stop-opacity=".1"/>
            <stop offset=".623" stop-opacity=".05"/>
            <stop offset="1" stop-opacity="0"/>
        </linearGradient>
        <linearGradient id="c" x1="68.742" y1="5.961" x2="115.122" y2="129.525" gradientUnits="userSpaceOnUse">
            <stop stop-color="#3CCBF4"/>
            <stop offset="1" stop-color="#2892DF"/>
        </linearGradient>
    </defs>
</svg>
