<svg viewBox="0 0 36.496 34.276" xmlns="http://www.w3.org/2000/svg">
    <path d="M208.041 141.77a6.453 6.453 0 0 1 6.113 4.388l39.2 116.145a6.453 6.453 0 0 1-6.116 8.517h45.172a6.459 6.459 0 0 0 5.24-2.691 6.45 6.45 0 0 0 .871-5.826l-39.197-116.145a6.452 6.452 0 0 0-6.115-4.388zm-1.459.498a6.463 6.463 0 0 0-6.123 4.396l-39.197 116.14a6.451 6.451 0 0 0 6.113 8.514h31.541c1.352 0 2.67-.425 3.768-1.213a6.466 6.466 0 0 0 2.355-3.183l7.662-22.608-14.64-14.035c-.265-.265-1.477-2.485-.403-4.365 1.21-1.814 3.225-1.812 3.225-1.812h18.869l9.906-28.541-16.935-49.807c-.046-.242-.997-1.495-2.49-2.49-1.496-.998-3.651-.994-3.651-.994zm-5.326 82.68a2.974 2.974 0 0 0-2.031 5.15l41.296 38.545c1.202 1.122 2.731 1.78 4.375 1.78 0 0 1.399.097 2.243-.036 1.984-.313 3.848-1.932 4.466-2.612 1.59-2.118.866-5.406.866-5.406l-12.5-37.422z" transform="translate(-42.578 -37.51) scale(.26458)" fill="#474747" />
</svg>
