<svg viewBox="0 0 128 128" xmlns="http://www.w3.org/2000/svg"><path d="M90.605 76.174c-2.718-.174-4.299-1.72-4.717-4.613-.112-.77-.112-.79-.124-5.786l-.01-4.836h2.404l.01 4.678c.008 4.216.013 4.71.054 5.006.163 1.204.49 2.013 1.044 2.594.444.465.965.737 1.684.882.34.068 1.306.068 1.616 0a3.571 3.571 0 001.83-.993c.588-.587 1.023-1.42 1.234-2.362l.071-.318.008-4.717.008-4.717h2.455v14.831h-2.43v-1.177c0-.799-.009-1.173-.027-1.167a.972.972 0 00-.139.212 4.94 4.94 0 01-1.881 1.88c-.916.505-1.836.684-3.091.603zm27.583-.012a6.38 6.38 0 01-2.794-.911c-1.74-1.075-2.77-2.848-3.072-5.287-.104-.843-.117-1.977-.03-2.694.195-1.603.825-3.176 1.723-4.299.23-.288.752-.809 1.04-1.039a6.485 6.485 0 012.655-1.266c.564-.123 1.555-.18 2.154-.125 1.502.139 2.88.846 3.816 1.958.952 1.13 1.474 2.71 1.541 4.655.01.305.013.84.006 1.188l-.014.633-5.264.007-5.263.006v.235a5.8 5.8 0 00.474 2.22c.259.597.705 1.249 1.07 1.564a4.709 4.709 0 002.67 1.127c.371.035 1.319-.002 1.743-.067a7.395 7.395 0 003.287-1.354c.11-.082.214-.159.233-.17.027-.017.033.196.032 1.095v1.116l-.25.154a8.722 8.722 0 01-3.527 1.221c-.38.047-1.775.068-2.23.033zm4.582-9.414c0-1.197-.505-2.526-1.22-3.21a3.351 3.351 0 00-1.858-.9c-.347-.054-1.077-.034-1.443.04a3.774 3.774 0 00-1.969 1.045 5.362 5.362 0 00-1.302 2.084c-.1.288-.216.76-.252 1.024l-.017.125h8.06zM51.365 75.79l3.972-10.424 3.961-10.39h2.546l.105.27c.323.826 7.93 20.554 7.93 20.565 0 .006-.61.012-1.354.012h-1.354l-1.096-2.916-1.097-2.916H56.15l-.038.099c-.021.054-.49 1.366-1.041 2.915l-1.003 2.817h-1.356c-1.074 0-1.355-.006-1.346-.032zm12.807-8.024c0-.005-.737-2.003-1.64-4.44-1.686-4.56-1.78-4.834-1.914-5.567-.062-.343-.094-.352-.13-.04a7.275 7.275 0 01-.231 1.004c-.044.138-.804 2.22-1.688 4.628a699.007 699.007 0 00-1.609 4.4c0 .013 1.623.023 3.606.023 1.984 0 3.606-.004 3.606-.008zm6.526 7.677v-.38l4.398-6.039 4.399-6.04-3.983-.013-3.982-.013-.007-1.01-.007-1.009h11.52v.682l-4.4 6.073c-2.418 3.34-4.398 6.078-4.398 6.084 0 .007 1.956.013 4.346.013h4.346v2.032H70.698zm32.275.362c-.01-.01-.018-3.358-.018-7.441v-7.425h2.405v1.53c0 .843.01 1.532.022 1.532.013 0 .071-.138.13-.307a5.293 5.293 0 011.343-2.066 3.483 3.483 0 011.9-.943c.205-.033.38-.04.792-.029.518.014.788.052 1.103.154l.1.033v2.492l-.285-.142a3.036 3.036 0 00-1.592-.319c-.387.02-.641.07-.95.186a3.009 3.009 0 00-1.516 1.236 7.17 7.17 0 00-1.005 2.887c-.02.177-.031 1.615-.036 4.45l-.007 4.19h-1.184c-.651 0-1.192-.008-1.202-.018zM16.887 44.591a1.934 1.934 0 011.832 1.315l11.746 34.802a1.934 1.934 0 01-1.833 2.552h13.536a1.938 1.938 0 001.911-1.648 1.933 1.933 0 00-.08-.904L32.254 45.906a1.933 1.933 0 00-1.832-1.315zm-.437.15a1.937 1.937 0 00-1.834 1.317L2.87 80.858a1.932 1.932 0 001.831 2.55h9.451a1.936 1.936 0 001.835-1.316l2.296-6.775-4.387-4.205c-.08-.08-.443-.745-.12-1.308.362-.543.966-.543.966-.543h5.654l2.968-8.552-5.075-14.924c-.013-.073-.298-.448-.746-.746-.448-.3-1.094-.298-1.094-.298zm-1.596 24.774a.891.891 0 00-.608 1.543l12.374 11.55c.36.336.818.533 1.31.533 0 0 .42.029.673-.011.594-.094 1.153-.579 1.338-.783.476-.634.26-1.62.26-1.62l-3.746-11.213z" fill="#474747"/></svg>
