<svg viewBox="0 0 128 128" xmlns="http://www.w3.org/2000/svg">
    <path d="M90.708 76.466c-2.728-.179-4.314-1.727-4.736-4.63-.112-.774-.112-.794-.112-5.81l-.011-4.854h2.415l.01 4.696c.008 4.232.014 4.728.044 5.026.157 1.207.492 2.02 1.048 2.604.447.467.97.741 1.69.884.341.067 1.311.067 1.622 0a3.583 3.583 0 0 0 1.836-.996c.59-.59 1.026-1.426 1.238-2.37l.067-.32.008-4.736.008-4.736h2.466v14.891h-2.442v-1.182c0-.802-.009-1.177-.022-1.17a.993.993 0 0 0-.134.223 4.958 4.958 0 0 1-1.889 1.888c-.92.505-1.84.686-3.103.603zm27.692-.011a6.397 6.397 0 0 1-2.806-.916c-1.747-1.08-2.781-2.859-3.084-5.307-.111-.847-.111-1.985-.022-2.706.201-1.609.827-3.187 1.73-4.314.23-.29.755-.814 1.045-1.044a6.511 6.511 0 0 1 2.666-1.271c.566-.134 1.56-.18 2.161-.134 1.508.134 2.893.849 3.832 1.966.954 1.135 1.48 2.72 1.548 4.674a26.02 26.02 0 0 1 .006 1.19l-.013.635-5.286.008-5.284.007v.235c0 .717.179 1.533.476 2.228.261.598.708 1.253 1.077 1.57a4.727 4.727 0 0 0 2.679 1.133c.373.045 1.325-.002 1.75-.067a7.426 7.426 0 0 0 3.3-1.358 8.271 8.271 0 0 1 .234-.179c.022-.018.022.201.022 1.1v1.119l-.25.156a8.751 8.751 0 0 1-3.543 1.227c-.382.045-1.783.067-2.238.045zm4.6-9.452c0-1.202-.507-2.535-1.225-3.223a3.363 3.363 0 0 0-1.868-.903c-.348-.045-1.081-.045-1.448.045a3.792 3.792 0 0 0-1.977 1.05 5.385 5.385 0 0 0-1.307 2.092 6.714 6.714 0 0 0-.253 1.027l-.017.134h8.092zm-71.686 9.078 3.989-10.466 3.976-10.43h2.555l.112.273a22612.712 22612.712 0 0 1 7.96 20.643c0 .008-.612.013-1.358.013h-1.36l-1.1-2.927-1.102-2.928h-8.864l-.045.09c-.02.044-.492 1.372-1.046 2.926l-1.005 2.828-1.363.23c-1.08 0-1.359-.006-1.352-.022zm12.858-8.056c0-.004-.74-2.01-1.645-4.457-1.693-4.577-1.79-4.854-1.924-5.588-.067-.346-.089-.355-.134-.045a7.294 7.294 0 0 1-.23 1.008c-.045.134-.806 2.23-1.696 4.646a700.05 700.05 0 0 0-1.613 4.42c0 .01 1.629.02 3.62.02 1.99 0 3.62-.002 3.62-.007zm6.552 7.708v-.382l4.415-6.063 4.416-6.064-3.999-.012-3.997-.014-.007-1.012-.007-1.014h11.562v.683l-4.415 6.096a2058.98 2058.98 0 0 0-4.416 6.11c0 .006 1.964.012 4.363.012h4.362v2.04l-12.278.227zm32.4.362c-.008-.009-.016-3.372-.016-7.471v-7.453h2.413v1.535c0 .845.01 1.538.022 1.538.013 0 .067-.135.134-.309a5.314 5.314 0 0 1 1.348-2.073 3.494 3.494 0 0 1 1.906-.948c.2-.045.382-.045.795-.022.52.013.791.044 1.109.156l.089.022v2.504l-.284-.134a3.05 3.05 0 0 0-1.598-.32 2.898 2.898 0 0 0-.954.18 3.02 3.02 0 0 0-1.521 1.24 7.2 7.2 0 0 0-1.008 2.899c-.02.179-.022 1.62-.045 4.467l-.008 4.206h-1.189a21.097 21.097 0 0 1-1.206-.018zM17.427 44.527a1.155 1.155 0 0 0-.134.001h-.905a2.34 2.34 0 0 0-2.218 1.593L2.642 80.28a2.337 2.337 0 0 0 2.215 3.086h9.277a2.34 2.34 0 0 0 2.216-1.591l2.192-6.438 7.846 7.59.134.111h.112c.179.112.33.201.548.275.156.045.321.09.482.134h.004a.181.181 0 0 0 .023.007l.011.002h.011a5.332 5.332 0 0 0 .284.023h.001c.179.011.436.015.713-.004.045-.002.09-.01.134-.014l-.022.022h12.365a1.851 1.851 0 0 0 .865-.223 1.914 1.914 0 0 0 .675-.597 1.976 1.976 0 0 0 .335-.847 1.86 1.86 0 0 0-.09-.911l-11.506-35.07-.016-.045-.014-.022a1.937 1.937 0 0 0-.659-.887 1.862 1.862 0 0 0-1.104-.364H17.407l-.01-.003zm-.134.88s.46.067.563.202c.23.281.51.815.523.838l4.48 13.61-3.269 9.38h-4.9a.87.87 0 0 0-.498.157.91.91 0 0 0-.326.422.946.946 0 0 0-.045.539.927.927 0 0 0 .261.47l3.76 3.636-2.324 6.832a1.462 1.462 0 0 1-1.383.994H4.856a1.46 1.46 0 0 1-1.44-1.242 1.46 1.46 0 0 1 .066-.684l11.529-34.159a1.462 1.462 0 0 1 1.385-.992zm1.683 0h10.723a.95.95 0 0 1 .58.202v.002a1.066 1.066 0 0 1 .378.527l.017.045 11.491 35.018c.045.156.067.34.045.509v.001a1.098 1.098 0 0 1-.179.471 1.03 1.03 0 0 1-.362.322.966.966 0 0 1-.456.112l-10.688-.01c.18-.322.233-.686.228-1.012a3.092 3.092 0 0 0-.044-.53 2.6 2.6 0 0 0-.023-.156 2.5 2.5 0 0 0-.009-.045v-.003l-.005-.012-3.727-11.427h-.023l-7.804-23.785-.022-.067c-.02-.067-.067-.112-.09-.179zm4.352 15.973 2.642 8.053h-5.449zm-8.634 8.931h11.565l3.482 10.613a1.996 1.996 0 0 1 .089.912 1.96 1.96 0 0 1-.112.413.536.536 0 0 1-.044.067c-.09.112-.508.257-.997.29h-.001a5.131 5.131 0 0 1-.789-.008l-.018-.002h-.003a3.042 3.042 0 0 1-.09-.02 4.634 4.634 0 0 1-.31-.09c-.257-.089-.487-.227-.451-.2l-.134-.134-12.176-11.775-.002-.004a.052.052 0 0 1-.012-.022.075.075 0 0 1 .004-.046.034.034 0 0 1 .009-.014z" fill="#474747"/>
</svg>
