<svg xmlns="http://www.w3.org/2000/svg" viewBox="0 0 128 128"><path d="M24.821 101.959v-2.891h-2.65v2.903h-1.358v-6.972h1.358v2.921h2.65V95h1.358v6.97zm6.323 0h-1.076l-.096-.343a2.915 2.915 0 0 1-1.557.445c-.955 0-1.364-.601-1.364-1.497 0-1.021.463-1.412 1.526-1.412h1.256v-.529c0-.559-.162-.751-.997-.751a7.855 7.855 0 0 0-1.455.15l-.162-.955a7.134 7.134 0 0 1 1.803-.24c1.647 0 2.128.558 2.128 1.802zm-1.31-1.9h-.968c-.433 0-.547.115-.547.493 0 .38.114.505.523.505a2.08 2.08 0 0 0 .991-.258zm4.056 2.014a6.467 6.467 0 0 1-1.803-.289l.18-.961a6.01 6.01 0 0 0 1.563.216c.601 0 .667-.12.667-.505 0-.384-.066-.462-.913-.66-1.28-.301-1.43-.602-1.43-1.581 0-.98.462-1.455 1.953-1.455a7.092 7.092 0 0 1 1.568.175l-.126 1.003a9.616 9.616 0 0 0-1.442-.144c-.571 0-.668.12-.668.433 0 .312.036.432.746.6 1.46.373 1.598.56 1.598 1.593 0 1.034-.312 1.575-1.893 1.575zm6.01-.102v-3.504c0-.27-.114-.403-.415-.403a3.732 3.732 0 0 0-1.364.421v3.492H36.8V94.89l1.316.192v2.23a4.76 4.76 0 0 1 1.911-.487c.872 0 1.202.601 1.202 1.485v3.648zm2.404-5.74V95.03h1.31v1.202zm0 5.74v-5.03h1.31v5.03zm2.362-4.988c0-1.257.763-1.99 2.548-1.99a8.414 8.414 0 0 1 1.941.223l-.15 1.13a10.41 10.41 0 0 0-1.749-.18c-.937 0-1.238.312-1.238 1.045v2.644c0 .734.3 1.04 1.238 1.04a11.034 11.034 0 0 0 1.75-.174l.15 1.124a8.414 8.414 0 0 1-1.942.228c-1.803 0-2.548-.733-2.548-1.995zm7.398 5.09c-1.803 0-2.284-.95-2.284-1.983v-1.268c0-1.034.487-1.984 2.284-1.984 1.797 0 2.278.95 2.278 1.984v1.268c0 1.021-.487 1.983-2.278 1.983zm0-4.159c-.703 0-.967.3-.967.866v1.352c0 .565.264.865.967.865s.968-.3.968-.865v-1.365c0-.564-.27-.865-.968-.865zm5.968.078a10.854 10.854 0 0 0-1.382.733v3.246h-1.316v-5.03h1.111l.085.558a6.01 6.01 0 0 1 1.376-.66zm5.247 2.278c0 1.118-.517 1.803-1.731 1.803a7.416 7.416 0 0 1-1.4-.144v2.055l-1.31.192v-7.212h1.04l.131.427a2.795 2.795 0 0 1 1.653-.529c1.058 0 1.617.601 1.617 1.743zm-3.131.57a6.064 6.064 0 0 0 1.16.133c.474 0 .655-.216.655-.667v-1.803c0-.409-.157-.637-.643-.637a1.917 1.917 0 0 0-1.202.45zm34.262 16.763c0-3.348 1.49-5.337 4.995-5.337a20.632 20.632 0 0 1 4.038.439V106.4l3.78-.523v21.816h-3.004l-.373-1.274a7.97 7.97 0 0 1-4.808 1.58c-3.041 0-4.652-1.802-4.652-5.24zm9.015-1.707a16.9 16.9 0 0 0-3.353-.403c-1.365 0-1.893.655-1.893 2.02v5.336c0 1.244.462 1.924 1.863 1.924a5.373 5.373 0 0 0 3.383-1.365zm-11.34 11.797h-3.108l-.276-1.027A8.252 8.252 0 0 1 84.199 128c-2.758 0-3.942-1.893-3.942-4.496 0-3.077 1.34-4.255 4.411-4.255h3.606v-1.55c0-1.677-.469-2.266-2.885-2.266a21.293 21.293 0 0 0-4.207.463l-.468-2.885a19.833 19.833 0 0 1 5.222-.721c4.748 0 6.148 1.677 6.148 5.463zm-3.787-5.71h-2.794c-1.238 0-1.581.337-1.581 1.485 0 1.148.343 1.52 1.52 1.52a5.968 5.968 0 0 0 2.855-.774zm-23.24 5.71V117.14c0-.805-.343-1.202-1.202-1.202a10.535 10.535 0 0 0-3.943 1.268v10.493h-3.786v-15.12h2.89l.373 1.273a15.127 15.127 0 0 1 6.04-1.562 2.873 2.873 0 0 1 2.855 1.617 14.796 14.796 0 0 1 6.082-1.617c2.512 0 3.414 1.773 3.414 4.471v10.956h-3.786V117.14c0-.805-.343-1.202-1.202-1.202a10.03 10.03 0 0 0-3.937 1.268v10.493zM46.962 128c-5.18 0-6.575-2.855-6.575-5.956v-3.816c0-3.107 1.394-5.962 6.575-5.962 5.18 0 6.58 2.855 6.58 5.962v3.816c0 3.101-1.394 5.956-6.58 5.956zm0-12.507c-2.014 0-2.789.902-2.789 2.608v4.063c0 1.713.775 2.609 2.789 2.609 2.013 0 2.794-.896 2.794-2.609v-4.063c0-1.706-.78-2.608-2.794-2.608zm-22.37-3.474v15.674h-3.816v-20.668h5.211l7.85 15.698v-15.698h3.821v20.668h-5.216z"/><path fill="#00ca8e" d="M63.706 0 28.457 20.338v40.705l35.249 20.35 35.248-20.35V20.338ZM79.41 44.762l-9.394 5.409-11.347-6.16v12.987l-10.667 6.75V36.63l8.462-5.18 11.743 6.19V24.417l11.209-6.73z"/></svg>
