<svg xmlns="http://www.w3.org/2000/svg" viewBox="0 0 128 128"><path fill="#60a5fa" d="M64 8.35a1.94 1.94 0 0 0-1.68.97L34.68 57.18A1.94 1.94 0 0 0 36.93 60a60.548 60.548 0 0 1 31.69-1.09l7.45 1.75-7.89 33.48-7.47-1.75h-.01c-11.69-2.76-22.9 2.91-28.38 12.31l-5.16-2.49C33.8 90.43 47.7 83.43 62.03 86.83a1.94 1.94 0 0 0 2.34-1.45l4.38-18.57a1.94 1.94 0 0 0-1.44-2.33A54.703 54.703 0 0 0 20.8 74.82 54.728 54.728 0 0 0 .03 117.71a1.94 1.94 0 0 0 1.94 1.94h124.06a1.94 1.94 0 0 0 1.68-2.91L65.68 9.32A1.94 1.94 0 0 0 64 8.35zm0 5.82 58.67 101.6H4.02c.58-14.81 7.51-28.67 19.18-37.91 11.67-9.23 26.76-12.79 41.3-9.94L61 82.77c-16.13-2.9-31.62 5.56-38.33 19.43a1.94 1.94 0 0 0 .91 2.59l8.65 4.18a1.94 1.94 0 0 0 2.59-.9c4.28-8.84 14.4-14.41 24.99-11.9a1.94 1.94 0 0 0 .01 0l9.36 2.19a1.94 1.94 0 0 0 2.33-1.44l8.78-37.25a1.94 1.94 0 0 0-1.44-2.34l-9.35-2.2c-9.63-2.26-19.61-2.13-29.21.1L64 14.17z" class="layer"/></svg>
