<svg xmlns="http://www.w3.org/2000/svg" viewBox="0 0 128 128"><g class="layer"><path fill="#60a5fa" d="m20.24 48.98-7.69 13.38a17.31 17.31 0 0 1 9.1-.31l2.61.61-2.45 10.42-2.6-.62a6.67 6.67 0 0 0-5.71 1.28 6.78 6.78 0 0 0-1.88 2.35l-2.41-1.17a9.46 9.46 0 0 1 2.63-3.29 9.37 9.37 0 0 1 7.98-1.78l1.22-5.19a14.67 14.67 0 0 0-12.5 2.79 14.78 14.78 0 0 0-5.58 11.57h34.57L20.24 48.98zm0 0"/><path fill="#151515" d="M40.51 78.69v-20.4h8.59c1.4 0 2.61.24 3.61.71 1 .48 1.76 1.16 2.29 2.05.53.89.79 1.95.79 3.21 0 .9-.25 1.75-.74 2.57-.49.81-1.3 1.48-2.43 2.03v-2.08c1.08.42 1.91.92 2.49 1.51.58.58.98 1.22 1.2 1.91a6.89 6.89 0 0 1 .33 2.14c0 2.01-.67 3.57-2 4.68-1.32 1.11-3.17 1.67-5.54 1.67h-8.59zm4.23-3.7h4.86c.85 0 1.53-.24 2.04-.74.51-.49.76-1.13.76-1.91 0-.8-.25-1.45-.76-1.95-.51-.49-1.19-.74-2.04-.73h-4.86v5.33zm0-9.03h4.66c.66 0 1.18-.19 1.56-.55.4-.38.6-.89.6-1.51 0-.61-.2-1.11-.6-1.47-.38-.39-.9-.58-1.56-.58h-4.66v4.11zm14.84 12.73V63.74h4.09v14.95h-4.09zm0-16.29v-4.11h4.09v4.11h-4.09zm14.7 16.62c-1.47 0-2.82-.34-4.04-1.01a7.96 7.96 0 0 1-2.89-2.77c-.71-1.18-1.06-2.53-1.06-4.02 0-1.52.35-2.86 1.06-4.03a7.96 7.96 0 0 1 2.89-2.77c1.22-.67 2.57-1.01 4.04-1.01 1.48 0 2.81.34 4.01 1.01a7.74 7.74 0 0 1 2.87 2.77c.73 1.17 1.09 2.51 1.09 4.03 0 1.49-.36 2.84-1.09 4.02a7.74 7.74 0 0 1-2.87 2.77c-1.2.67-2.54 1.01-4.01 1.01zm0-3.7c.75 0 1.4-.17 1.94-.52.56-.35 1-.83 1.31-1.45.33-.62.49-1.33.49-2.13 0-.81-.16-1.51-.49-2.11a3.5 3.5 0 0 0-1.31-1.45c-.54-.37-1.19-.55-1.94-.55s-1.4.18-1.96.55a3.67 3.67 0 0 0-1.34 1.45c-.31.6-.46 1.3-.46 2.11 0 .8.15 1.51.46 2.13a3.67 3.67 0 0 0 1.34 1.45c.56.35 1.22.52 1.96.52zm10.58 3.37V63.74h3.82v3.64l-.4-.6c.21-1.15.74-2 1.58-2.55.83-.55 1.83-.82 3-.82 1.24 0 2.32.32 3.24.96.95.62 1.54 1.46 1.78 2.52l-1.17.11c.49-1.23 1.19-2.13 2.1-2.71.91-.59 1.97-.88 3.19-.88 1.07 0 2.02.24 2.84.71a5.09 5.09 0 0 1 1.96 2c.48.84.71 1.83.71 2.96v9.61h-4.09v-8.73c0-.59-.11-1.09-.33-1.51a2.28 2.28 0 0 0-.87-.99c-.39-.23-.85-.35-1.39-.35-.53 0-1 .12-1.39.35a2.45 2.45 0 0 0-.91.99c-.2.42-.3.92-.3 1.51v8.73h-4.09v-8.73c0-.59-.11-1.09-.32-1.51a2.28 2.28 0 0 0-.88-.99c-.38-.23-.84-.35-1.39-.35-.53 0-.99.12-1.39.35a2.45 2.45 0 0 0-.9.99c-.2.42-.3.92-.3 1.51v8.73h-4.1zm33.07.33c-1.58 0-2.95-.35-4.12-1.04a7.37 7.37 0 0 1-2.7-2.85c-.63-1.18-.95-2.5-.95-3.94 0-1.5.32-2.83.98-4a7.59 7.59 0 0 1 2.7-2.77c1.13-.67 2.4-1.01 3.82-1.01 1.18 0 2.23.19 3.14.57.91.37 1.67.89 2.29 1.57a6.83 6.83 0 0 1 1.45 2.35c.32.88.49 1.83.49 2.88 0 .29-.02.58-.06.87a2.59 2.59 0 0 1-.13.71h-11.16v-3.01h8.84l-1.94 1.43c.18-.79.17-1.48-.03-2.08-.2-.62-.55-1.11-1.06-1.45-.49-.37-1.1-.55-1.83-.55-.71 0-1.32.17-1.83.52-.51.34-.89.86-1.14 1.53-.26.68-.36 1.5-.3 2.47-.08.84.02 1.57.3 2.21a3.29 3.29 0 0 0 1.25 1.51c.56.35 1.25.52 2.05.52.72 0 1.34-.15 1.85-.44a3.09 3.09 0 0 0 1.23-1.2l3.28 1.56a4.92 4.92 0 0 1-1.39 1.91 6.89 6.89 0 0 1-2.22 1.29c-.85.29-1.79.44-2.81.44zm0 0"/></g></svg>
