<svg xmlns="http://www.w3.org/2000/svg" viewBox="0 0 128 128"><path fill="none" stroke="#000" stroke-linejoin="round" d="m20.24 48.98-3.845 6.69-3.845 6.69a17.297 17.297 0 0 1 9.1-.31l1.305.305 1.305.305-1.225 5.21-1.225 5.21-1.3-.31-1.3-.31a6.666 6.666 0 0 0-5.71 1.28 6.773 6.773 0 0 0-1.88 2.35l-1.205-.585-1.205-.585a9.466 9.466 0 0 1 2.63-3.29 9.365 9.365 0 0 1 7.98-1.78l.61-2.595.61-2.595a14.656 14.656 0 0 0-6.571-.041A14.656 14.656 0 0 0 8.54 67.45a14.78 14.78 0 0 0-5.58 11.57h34.57L28.885 64 20.24 48.98Zm20.27 29.71v-20.4h8.59c.7 0 1.353.06 1.955.179A7.07 7.07 0 0 1 52.71 59c.5.24.94.53 1.321.871.382.342.704.734.969 1.179.265.445.463.932.594 1.466.131.534.196 1.114.196 1.744 0 .45-.062.888-.186 1.315a5.338 5.338 0 0 1-.554 1.255c-.245.405-.287.509-.408.581-.122.071-.026.189-.869.345 0 0 .174.016.441.066s.606.173.896.468c.29.29.535.595.735.914.2.318.355.651.465.996a6.848 6.848 0 0 1 .33 2.14c0 1.005-.167 1.897-.501 2.677a5.293 5.293 0 0 1-1.499 2.003c-.66.555-1.452.972-2.376 1.251-.924.279-1.979.419-3.164.419h-8.59Zm4.23-3.7h4.86c.425 0 .808-.06 1.148-.183.34-.122.637-.307.892-.557.255-.245.445-.528.571-.846.127-.319.189-.674.189-1.064 0-.4-.062-.763-.189-1.088a2.42 2.42 0 0 0-.571-.862 2.5 2.5 0 0 0-.892-.553 3.268 3.268 0 0 0-1.148-.177h-4.86v5.33Zm0-9.03h4.66c.33 0 .625-.047.885-.14.26-.093.485-.23.675-.41.2-.19.35-.412.45-.665.1-.253.15-.535.15-.845 0-.305-.05-.583-.15-.829a1.73 1.73 0 0 0-.45-.641 1.8 1.8 0 0 0-.675-.436 2.52 2.52 0 0 0-.885-.144h-4.66v4.11Zm14.84-3.56v-4.11h4.09v4.11h-4.09Zm0 16.29V63.74h4.09v14.95h-4.09Zm14.7.33c-.735 0-1.44-.085-2.114-.254a8.03 8.03 0 0 1-1.926-.756 7.978 7.978 0 0 1-2.89-2.77 7.186 7.186 0 0 1-.796-1.894 8.356 8.356 0 0 1-.264-2.126c0-.76.088-1.475.264-2.146a7.067 7.067 0 0 1 .796-1.884 7.977 7.977 0 0 1 2.89-2.77 8.03 8.03 0 0 1 1.926-.756 8.663 8.663 0 0 1 2.114-.254c.74 0 1.443.085 2.11.254.668.168 1.3.421 1.9.756a7.735 7.735 0 0 1 2.87 2.77c.365.585.638 1.212.819 1.884.181.671.271 1.386.271 2.146 0 .745-.09 1.455-.271 2.126a7.098 7.098 0 0 1-.819 1.894 7.761 7.761 0 0 1-4.774 3.526 8.562 8.562 0 0 1-2.106.254Zm0-3.7a4.08 4.08 0 0 0 1.049-.129c.324-.086.621-.216.891-.391a3.517 3.517 0 0 0 1.31-1.45 4 4 0 0 0 .369-.998c.081-.355.121-.732.121-1.132 0-.405-.04-.782-.121-1.134a3.774 3.774 0 0 0-.369-.976 3.48 3.48 0 0 0-1.31-1.45 3 3 0 0 0-.891-.414 3.868 3.868 0 0 0-1.049-.136c-.375 0-.725.045-1.051.136a3.226 3.226 0 0 0-.909.414 3.666 3.666 0 0 0-1.34 1.45c-.155.3-.27.625-.346.976a5.354 5.354 0 0 0-.114 1.134c0 .4.038.777.114 1.132.076.355.191.688.346.998a3.666 3.666 0 0 0 1.34 1.45c.28.175.585.305.913.391.327.086.677.129 1.047.129Zm10.58 3.37V63.74h3.82v1.546l.02 1.218s-.034-.226.156-.807c.19-.582.584-1.192 1.004-1.467a4.7 4.7 0 0 1 1.373-.616 6.18 6.18 0 0 1 1.627-.204c.62 0 1.2.08 1.74.24.54.16 1.04.4 1.5.72.475.31.541.465.717.636.177.171.443.517.563 1.047 0 0 .145-.415.384-.743.239-.329.591-.73 1.046-1.02a5.268 5.268 0 0 1 1.479-.661A6.43 6.43 0 0 1 102 63.41c.535 0 1.04.06 1.514.179a5.197 5.197 0 0 1 2.446 1.393c.33.337.614.72.84 1.138.24.42.418.878.535 1.371a6.83 6.83 0 0 1 .175 1.589v9.61h-4.09v-8.73c0-.295-.027-.567-.082-.819a2.75 2.75 0 0 0-.248-.691 2.272 2.272 0 0 0-.87-.99 2.391 2.391 0 0 0-.639-.261 3.026 3.026 0 0 0-.751-.089c-.265 0-.515.03-.747.089a2.404 2.404 0 0 0-.643.261 2.423 2.423 0 0 0-.524.432 2.426 2.426 0 0 0-.386.558c-.1.21-.175.44-.225.691-.05.251-.075.524-.075.819v8.73h-4.09v-8.73c0-.295-.027-.568-.081-.819a2.903 2.903 0 0 0-.239-.691 2.255 2.255 0 0 0-1.511-1.251 3.063 3.063 0 0 0-.759-.089c-.265 0-.512.03-.744.089a2.522 2.522 0 0 0-.646.261 2.46 2.46 0 0 0-.9.99c-.1.21-.175.44-.225.691-.05.252-.075.524-.075.819v8.73h-4.1Zm29.527-6.562c.05.368.163.982.303 1.302a3.295 3.295 0 0 0 1.25 1.51c.28.175.593.305.935.391a4.53 4.53 0 0 0 1.115.129c.36 0 .695-.037 1.004-.111.309-.074.591-.184.846-.329a3.086 3.086 0 0 0 1.23-1.2l1.64.78 1.64.78a4.916 4.916 0 0 1-1.39 1.91 6.84 6.84 0 0 1-1.05.749 6.822 6.822 0 0 1-1.17.541 8.013 8.013 0 0 1-1.341.329 9.421 9.421 0 0 1-1.469.111c-.79 0-1.527-.088-2.214-.261a7.228 7.228 0 0 1-1.906-.779 7.353 7.353 0 0 1-2.7-2.85 7.912 7.912 0 0 1-.711-1.872 8.78 8.78 0 0 1-.239-2.068c0-.75.08-1.457.243-2.124a7.316 7.316 0 0 1 .737-1.876 7.617 7.617 0 0 1 2.7-2.77 7.078 7.078 0 0 1 1.801-.756 7.838 7.838 0 0 1 2.019-.254c.59 0 1.147.048 1.671.143a7.079 7.079 0 0 1 1.469.427c.455.185.873.408 1.254.669.381.261.726.561 1.036.901a6.82 6.82 0 0 1 1.45 2.35c.16.44.282.898.365 1.376.082.479.125.979.125 1.504 0 .145-.04.725-.06.87-.005.121-.099.46-.091.452l-10.492.026Zm.136-2.485 6.147-.064c-.047-.575-.02-.579-.12-.879a2.92 2.92 0 0 0-.414-.83 2.526 2.526 0 0 0-.646-.62 2.602 2.602 0 0 0-.825-.414 3.505 3.505 0 0 0-1.005-.136c-.355 0-.685.043-.99.129a2.83 2.83 0 0 0-1.507 1.032 3.61 3.61 0 0 0-.473.889c-.13.34-.117.482-.167.893Z"/></svg>
