<svg xmlns="http://www.w3.org/2000/svg" viewBox="0 0 128 128"><defs><linearGradient id="a" x1="128" x2="128" y1="0" y2="256" gradientTransform="translate(0 50.95) scale(.10032)" gradientUnits="userSpaceOnUse"><stop offset="0" stop-color="#2684ff"/><stop offset="1" stop-color="#0052cc"/></linearGradient></defs><path fill="#293856" d="M88.89 50.95v20.27c0 3.892 2.162 5.537 5.597 5.537a7.703 7.703 0 0 0 2.109-.213v-4.562a5.795 5.795 0 0 1-.782.036c-.905 0-1.645-.4-1.645-1.522V50.95Zm11.007 0v20.27c0 3.892 2.164 5.537 5.6 5.537a7.677 7.677 0 0 0 2.122-.213v-4.562a5.71 5.71 0 0 1-.778.036c-.921 0-1.667-.4-1.667-1.522V50.95Zm-64.111 1.88v4.961h5.877v18.823h5.671V57.791h5.878v-4.96zm41.289 4.88c-5.645 0-9.26 4.092-9.26 9.811 0 5.937 3.117 9.463 10.165 9.463a16.91 16.91 0 0 0 6.122-1.094v-4.435c-1.81.58-3.847 1.156-5.937 1.156-2.806 0-4.76-.922-5.237-3.588a43.556 43.556 0 0 0 4.42.259c4.015 0 7.403-1.076 7.403-4.964 0-3.773-3.484-6.608-7.676-6.608zm42.035.008c-5.67 0-8.962 3.913-8.962 9.632 0 5.682 3.33 9.7 8.962 9.7s8.89-3.969 8.89-9.7-3.22-9.632-8.89-9.632zm-53.775.113c-2.514.023-3.973 1.475-4.906 3.816V58.1h-5.241v18.514h5.24v-9.702c0-2.966 1.72-3.871 5.423-3.583v-5.484a7.039 7.039 0 0 0-.516-.014zm11.632 3.918c1.485 0 2.678 1.01 2.678 2.388 0 1.773-1.871 2.328-4.027 2.328a18.383 18.383 0 0 1-2.74-.22 6.231 6.231 0 0 1 .729-2.467 3.878 3.878 0 0 1 3.36-2.02zm42.143.662c2.625 0 3.755 2.154 3.755 4.939s-1.101 4.994-3.755 4.994-3.822-2.209-3.822-4.994c0-2.79 1.197-4.939 3.822-4.939z"/><path fill="url(#a)" d="M2.508 50.95h20.665a2.502 2.502 0 0 1 2.508 2.508v20.665a2.502 2.502 0 0 1-2.508 2.508H2.508A2.502 2.502 0 0 1 0 74.123V53.458a2.502 2.502 0 0 1 2.508-2.508Z"/><path fill="#fff" d="M15.714 54.288h5.425c.667 0 1.204.538 1.204 1.204v8.828a1.201 1.201 0 0 1-1.204 1.204h-5.425a1.201 1.201 0 0 1-1.204-1.204v-8.828a1.2 1.2 0 0 1 1.204-1.203zm-11.172 0h5.425c.667 0 1.204.538 1.204 1.204V70.74a1.201 1.201 0 0 1-1.204 1.204H4.542a1.201 1.201 0 0 1-1.204-1.204V55.492c0-.667.537-1.204 1.204-1.204z"/></svg>
