<svg xmlns="http://www.w3.org/2000/svg" viewBox="0 0 128 128"><path fill="#1384C8" d="M40.335 78.188h-1.685v-9.65c0-.762.05-1.69.14-2.785h-.038c-.158.64-.303 1.104-.43 1.391l-4.902 11.044h-.821l-4.911-10.964c-.138-.306-.283-.799-.43-1.471h-.036c.052.576.081 1.509.081 2.804v9.631h-1.626v-14.371h2.225l4.409 10.021c.332.754.547 1.328.651 1.72h.069c.288-.785.517-1.375.688-1.762l4.505-9.979h2.11v14.371h.001zM45.523 78.188h-1.639v-10.263h1.639v10.263zm.283-13.942c0 .303-.106.555-.317.763-.207.208-.464.312-.764.312-.293 0-.548-.101-.757-.301-.209-.201-.313-.458-.313-.774 0-.296.104-.549.313-.754s.464-.305.757-.305c.3 0 .557.099.764.305.211.205.317.458.317.754"/><path fill="#1384C8" d="M55.764 77.713c-.786.483-1.726.722-2.812.722-1.472 0-2.655-.488-3.561-1.464-.879-.947-1.321-2.169-1.321-3.667 0-1.681.48-3.042 1.45-4.077.964-1.036 2.261-1.553 3.892-1.553.892 0 1.683.174 2.375.521v1.687c-.766-.538-1.576-.805-2.445-.805-1.045 0-1.896.365-2.555 1.093-.687.745-1.034 1.742-1.034 2.985 0 1.194.317 2.14.948 2.837.633.694 1.476 1.042 2.538 1.042.897 0 1.738-.295 2.524-.882v1.561h.001zM63.604 69.59c-.289-.223-.706-.331-1.255-.331-.668 0-1.229.298-1.683.901-.516.673-.771 1.604-.771 2.795v5.232h-1.644v-10.262h1.644v2.116h.039c.241-.749.614-1.325 1.112-1.733.466-.373.992-.561 1.572-.561.438 0 .762.047.984.14l.002 1.703zM72.758 73.075c0-1.313-.296-2.317-.89-3.006-.575-.662-1.38-.992-2.416-.992-1.021 0-1.841.334-2.453 1.003-.647.715-.971 1.725-.971 3.035 0 1.228.308 2.192.93 2.879.618.692 1.45 1.039 2.494 1.039 1.08 0 1.907-.352 2.474-1.051.555-.684.832-1.652.832-2.907m1.685-.057c0 1.635-.462 2.949-1.382 3.934-.924.989-2.167 1.483-3.73 1.483-1.54 0-2.767-.494-3.665-1.483-.881-.953-1.323-2.211-1.323-3.776 0-1.786.5-3.162 1.503-4.139.929-.906 2.17-1.363 3.726-1.363 1.53 0 2.726.477 3.587 1.422.853.95 1.284 2.258 1.284 3.922M82.589 75.442c0 .84-.313 1.536-.942 2.091-.687.601-1.63.901-2.816.901-.971 0-1.822-.203-2.545-.618v-1.766c.804.654 1.692.983 2.667.983 1.301 0 1.952-.479 1.952-1.434 0-.401-.143-.734-.431-.991-.289-.262-.851-.576-1.685-.943-.859-.376-1.472-.762-1.833-1.163-.434-.476-.652-1.093-.652-1.854 0-.852.341-1.561 1.014-2.125.675-.567 1.542-.85 2.606-.85.815 0 1.546.159 2.194.481v1.654c-.677-.488-1.451-.732-2.329-.732-.544 0-.981.136-1.307.399-.329.27-.494.614-.494 1.034 0 .455.138.808.412 1.061.244.233.761.519 1.541.852.876.367 1.509.748 1.895 1.137.5.494.753 1.121.753 1.883M92.629 73.075c0-1.313-.297-2.317-.892-3.006-.575-.662-1.381-.992-2.415-.992-1.021 0-1.841.334-2.456 1.003-.646.715-.969 1.725-.969 3.035 0 1.228.309 2.192.924 2.879.626.692 1.459 1.039 2.501 1.039 1.082 0 1.906-.352 2.474-1.051.555-.684.833-1.652.833-2.907m1.688-.057c0 1.635-.466 2.949-1.388 3.934-.92.989-2.163 1.483-3.727 1.483-1.542 0-2.768-.494-3.667-1.483-.881-.953-1.323-2.211-1.323-3.776 0-1.786.504-3.162 1.502-4.139.928-.906 2.171-1.363 3.728-1.363 1.531 0 2.725.477 3.584 1.422.855.95 1.291 2.258 1.291 3.922"/><path fill="#1384C8" d="M101.555 64.438c-.323-.179-.682-.27-1.091-.27-1.15 0-1.721.724-1.721 2.175v1.582h2.405v1.392h-2.405v8.871h-1.645v-8.871h-1.745v-1.392h1.745v-1.664c0-1.129.346-2.016 1.05-2.654.603-.555 1.34-.831 2.217-.831.508 0 .902.061 1.189.178v1.484zM108.039 78.085c-.388.222-.904.333-1.543.333-1.791 0-2.687-1.01-2.687-3.029v-6.07h-1.761v-1.394h1.761v-2.504l1.646-.533v3.037h2.583v1.394h-2.583v5.791c0 .688.112 1.18.348 1.465.237.295.625.439 1.173.439.409 0 .763-.109 1.063-.331v1.402zM19.237 118.242c0 .805-.286 1.5-.867 2.087-.577.585-1.278.88-2.102.88-.805 0-1.489-.295-2.05-.88-.562-.587-.841-1.283-.841-2.087 0-.827.279-1.525.841-2.103.561-.58 1.245-.867 2.05-.867.823 0 1.524.292 2.102.878.581.588.867 1.286.867 2.092"/><path fill="#1384C8" d="M56.018 120.606h-5.358l-19.448-30.034c-.454-.723-.847-1.508-1.179-2.365h-.16c.139.804.209 2.531.209 5.175v27.224h-4.416v-37.68h5.732l18.865 29.56c.751 1.173 1.265 2.013 1.525 2.519h.104c-.175-1.083-.266-2.932-.266-5.54v-26.539h4.39v37.68h.002zM84.332 120.606h-19.971v-37.68h19.104v3.993h-14.69v12.534h13.612v3.995h-13.613v13.164h15.558v3.994zM114.623 86.919h-10.854v33.688h-4.415v-33.688h-10.875v-3.995h26.144v3.995z"/><path fill-rule="evenodd" clip-rule="evenodd" fill="#1384C8" d="M82.108 46.33c.479-1.232 1.022-2.445 1.427-3.701 2.288-7.097 4.554-14.2 6.805-21.309.865-2.731 1.813-5.42 3.515-7.767 2.692-3.709 6.442-5.652 10.88-6.331 1.741-.266 3.518-.389 5.28-.406 5.267-.05 10.536-.015 15.804-.01.28 0 .56.029.957.052-.129.304-.199.525-.311.724-1.955 3.494-3.872 7.009-5.885 10.468-3.505 6.022-7.016 12.042-10.631 17.998-2.319 3.819-4.834 7.52-7.687 10.974-2.105 2.548-4.321 4.984-7.146 6.77-1.925 1.217-3.981 1.929-6.315 1.917-8.278-.045-16.556-.012-24.834-.024-2.461-.004-4.568-.941-6.356-2.603-2.563-2.381-4.093-5.412-5.345-8.608-2.284-5.835-3.563-11.951-5.031-18.014-.688-2.838-1.47-5.654-2.215-8.478-.048-.183-.142-.354-.25-.617l-.577.542c-3.228 3.207-6.071 6.741-8.615 10.498-.693 1.024-.926 2.374-1.313 3.591-1.424 4.47-2.722 8.983-4.264 13.411-1.477 4.242-4.125 7.616-8.264 9.61-2.42 1.165-5.004 1.795-7.689 1.855-3.98.088-7.962.098-11.943.134-.952.009-.996-.069-.748-.99 1.707-6.338 3.87-12.514 6.58-18.492 2.794-6.167 6.085-12.048 10.231-17.419 2.823-3.657 5.941-7.031 9.843-9.582 1.979-1.293 4.083-2.315 6.477-2.584.394-.045.793-.073 1.189-.073 8.478-.004 16.956.082 25.433-.039 4.547-.065 7.839 1.855 10.304 5.515 1.533 2.276 2.63 4.761 3.553 7.328 1.861 5.178 3.018 10.547 4.325 15.878.748 3.051 1.581 6.081 2.379 9.12.06.228.157.446.238.668l.199-.006z"/></svg>