<svg version="1.1" xmlns="http://www.w3.org/2000/svg" xmlns:xlink="http://www.w3.org/1999/xlink" viewBox="0 0 128 128">
	<path id="path12265" d="M30.762,77.907h-1.74v-9.963c0-0.787,0.051-1.745,0.144-2.875h-0.039c-0.164,0.661-0.313,1.14-0.444,1.436
		l-5.061,11.402h-0.848l-5.071-11.319c-0.142-0.316-0.292-0.825-0.443-1.519h-0.038c0.054,0.594,0.084,1.558,0.084,2.895v9.943
		h-1.679V63.07h2.296l4.552,10.347c0.343,0.779,0.565,1.372,0.673,1.776h0.071c0.298-0.811,0.534-1.42,0.711-1.82l4.651-10.303
		h2.179V77.907L30.762,77.907z"/>
	<path id="path12267" d="M36.118,77.907h-1.692V67.312h1.692V77.907z M36.41,63.513c0,0.313-0.11,0.573-0.328,0.787
		c-0.213,0.214-0.479,0.322-0.788,0.322c-0.303,0-0.566-0.104-0.782-0.311c-0.216-0.208-0.322-0.473-0.322-0.799
		c0-0.306,0.106-0.567,0.322-0.779c0.216-0.212,0.479-0.314,0.782-0.314c0.31,0,0.575,0.103,0.788,0.314
		C36.3,62.946,36.41,63.207,36.41,63.513"/>
	<path id="path12271" d="M46.691,77.417c-0.812,0.499-1.781,0.746-2.902,0.746c-1.52,0-2.742-0.504-3.676-1.511
		c-0.908-0.978-1.364-2.24-1.364-3.786c0-1.736,0.496-3.141,1.497-4.209c0.996-1.069,2.334-1.603,4.018-1.603
		c0.92,0,1.737,0.18,2.452,0.538v1.741c-0.791-0.555-1.627-0.831-2.525-0.831c-1.079,0-1.957,0.377-2.637,1.128
		c-0.709,0.77-1.068,1.798-1.068,3.082c0,1.232,0.328,2.209,0.979,2.929c0.653,0.717,1.523,1.076,2.621,1.076
		c0.926,0,1.794-0.305,2.606-0.911V77.417L46.691,77.417z"/>
	<path id="path12275" d="M54.786,69.031c-0.299-0.23-0.729-0.341-1.296-0.341c-0.689,0-1.269,0.308-1.737,0.93
		c-0.532,0.694-0.796,1.656-0.796,2.886v5.401h-1.697V67.311h1.697v2.185h0.041c0.249-0.773,0.634-1.368,1.148-1.79
		c0.48-0.385,1.024-0.58,1.623-0.58c0.452,0,0.787,0.049,1.016,0.145v1.759L54.786,69.031z"/>
	<path id="path12279" d="M64.237,72.628c0-1.356-0.306-2.393-0.918-3.103c-0.594-0.683-1.425-1.024-2.495-1.024
		c-1.054,0-1.9,0.345-2.533,1.036c-0.668,0.739-1.002,1.781-1.002,3.134c0,1.268,0.317,2.263,0.96,2.973
		c0.638,0.714,1.497,1.072,2.575,1.072c1.115,0,1.969-0.364,2.554-1.085C63.951,74.923,64.237,73.924,64.237,72.628 M65.976,72.569
		c0,1.688-0.477,3.045-1.427,4.061c-0.954,1.021-2.237,1.531-3.852,1.531c-1.59,0-2.856-0.51-3.784-1.531
		c-0.91-0.983-1.366-2.283-1.366-3.898c0-1.844,0.516-3.264,1.552-4.273c0.958-0.936,2.24-1.407,3.846-1.407
		c1.58,0,2.814,0.493,3.704,1.469C65.531,69.501,65.976,70.851,65.976,72.569"/>
	<path id="path12283" d="M74.387,75.073c0,0.868-0.323,1.585-0.973,2.159c-0.709,0.62-1.683,0.93-2.908,0.93
		c-1.002,0-1.881-0.21-2.628-0.638v-1.824c0.83,0.675,1.748,1.015,2.754,1.015c1.343,0,2.016-0.495,2.016-1.48
		c0-0.414-0.147-0.757-0.445-1.023c-0.298-0.271-0.878-0.594-1.739-0.974c-0.887-0.388-1.52-0.787-1.893-1.2
		c-0.448-0.491-0.673-1.129-0.673-1.915c0-0.879,0.352-1.611,1.046-2.194c0.697-0.585,1.592-0.877,2.691-0.877
		c0.842,0,1.596,0.164,2.266,0.497v1.707c-0.699-0.504-1.498-0.755-2.405-0.755c-0.562,0-1.013,0.14-1.349,0.412
		c-0.34,0.279-0.51,0.634-0.51,1.068c0,0.469,0.142,0.834,0.425,1.096c0.252,0.241,0.786,0.536,1.591,0.879
		c0.904,0.379,1.558,0.772,1.956,1.174C74.126,73.638,74.387,74.286,74.387,75.073"/>
	<path id="path12287" d="M84.753,72.628c0-1.356-0.307-2.393-0.92-3.103c-0.594-0.683-1.426-1.024-2.494-1.024
		c-1.055,0-1.9,0.345-2.536,1.036c-0.667,0.739-1,1.781-1,3.134c0,1.268,0.319,2.263,0.954,2.973
		c0.646,0.714,1.506,1.072,2.582,1.072c1.117,0,1.968-0.364,2.554-1.085C84.465,74.923,84.753,73.924,84.753,72.628 M86.495,72.569
		c0,1.688-0.481,3.045-1.433,4.061c-0.95,1.021-2.233,1.531-3.848,1.531c-1.592,0-2.857-0.51-3.786-1.531
		c-0.909-0.983-1.366-2.283-1.366-3.898c0-1.844,0.521-3.264,1.551-4.273c0.958-0.936,2.241-1.407,3.849-1.407
		c1.581,0,2.813,0.493,3.7,1.469C86.045,69.501,86.495,70.851,86.495,72.569"/>
	<path id="path12291" d="M93.968,63.711c-0.333-0.184-0.704-0.278-1.126-0.278c-1.188,0-1.777,0.747-1.777,2.245v1.633h2.483v1.438
		h-2.483v9.158h-1.698v-9.158h-1.802v-1.438h1.802v-1.717c0-1.166,0.357-2.081,1.084-2.74c0.622-0.573,1.383-0.857,2.289-0.857
		c0.524,0,0.932,0.063,1.228,0.184V63.711z"/>
	<path id="path12295" d="M100.662,77.801c-0.4,0.229-0.934,0.343-1.593,0.343c-1.85,0-2.774-1.042-2.774-3.128V68.75h-1.818v-1.439
		h1.818v-2.585c0.542-0.171,1.105-0.357,1.7-0.55v3.135h2.667v1.439h-2.667v5.979c0,0.71,0.116,1.218,0.359,1.513
		c0.245,0.305,0.646,0.454,1.211,0.454c0.423,0,0.788-0.113,1.097-0.342V77.801L100.662,77.801z"/>
	<path id="path12299" d="M8.978,119.262c0,0.831-0.295,1.548-0.895,2.155c-0.596,0.604-1.32,0.909-2.17,0.909
		c-0.831,0-1.538-0.305-2.116-0.909c-0.58-0.606-0.868-1.324-0.868-2.155c0-0.854,0.289-1.575,0.868-2.171
		c0.579-0.599,1.286-0.896,2.116-0.896c0.85,0,1.574,0.301,2.17,0.907C8.683,117.709,8.978,118.429,8.978,119.262"/>
	<path id="path12303" d="M46.953,121.702h-5.532L21.342,90.694c-0.469-0.746-0.874-1.557-1.217-2.442H19.96
		c0.144,0.831,0.216,2.613,0.216,5.343v28.107h-4.559V82.799h5.918l19.478,30.52c0.775,1.211,1.306,2.079,1.575,2.601h0.108
		c-0.18-1.119-0.274-3.027-0.274-5.72v-27.4h4.532V121.702L46.953,121.702z"/>
	<path id="path12307" d="M76.186,121.702H55.567V82.799h19.724v4.123H60.123v12.941h14.054v4.124H60.123v13.591h16.063V121.702z"/>
	<path id="path12311" d="M107.46,86.922H96.254v34.781h-4.558V86.922H80.468v-4.125h26.992V86.922L107.46,86.922z"/>

		<linearGradient id="path12339_2_" gradientUnits="userSpaceOnUse" x1="62.3936" y1="415.3477" x2="62.7822" y2="415.3477" gradientTransform="matrix(0 149.7346 149.7346 0 -62135.543 -9336.0137)">
		<stop  offset="0" style="stop-color:#0994DC"/>
		<stop  offset="0.35" style="stop-color:#66CEF5"/>
		<stop  offset="0.35" style="stop-color:#66CEF5"/>
		<stop  offset="0.8462" style="stop-color:#127BCA"/>
		<stop  offset="0.8462" style="stop-color:#127BCA"/>
		<stop  offset="1" style="stop-color:#127BCA"/>
	</linearGradient>
	<path id="path12339" fill="url(#path12339_2_)" d="M45.407,15.604c4.399,13.452,6.064,37.449,18.928,37.449l0,0
		c0.979,0,1.969-0.095,2.962-0.285l0,0c-11.693-2.727-13.079-26.462-20.214-38.754l0,0C46.523,14.523,45.968,15.053,45.407,15.604"
		/>

		<linearGradient id="path12367_2_" gradientUnits="userSpaceOnUse" x1="62.4473" y1="415.3403" x2="62.8362" y2="415.3403" gradientTransform="matrix(0 153.5506 153.5506 0 -63717.2344 -9583.9688)">
		<stop  offset="0" style="stop-color:#0E76BC"/>
		<stop  offset="0.36" style="stop-color:#36AEE8"/>
		<stop  offset="0.36" style="stop-color:#36AEE8"/>
		<stop  offset="0.8462" style="stop-color:#00ADEF"/>
		<stop  offset="0.8462" style="stop-color:#00ADEF"/>
		<stop  offset="1" style="stop-color:#00ADEF"/>
	</linearGradient>
	<path id="path12367" fill="url(#path12367_2_)" d="M47.083,14.014c7.135,12.292,8.521,36.027,20.214,38.754l0,0
		c0.918-0.168,1.839-0.424,2.762-0.746l0,0c-10.496-5.143-13.397-28.192-21.5-39.289l0,0C48.068,13.143,47.575,13.57,47.083,14.014"
		/>
	<path id="path12379" fill="#14559A" d="M57.364,6.704c-0.977,0-1.969,0.096-2.964,0.285c-2.603,0.491-5.247,1.611-7.913,3.308
		c0.728,0.719,1.422,1.541,2.073,2.438c2.711-2.249,5.404-3.911,8.087-4.911c1.007-0.373,2.011-0.653,3.017-0.838
		C58.938,6.8,58.172,6.704,57.364,6.704"/>

		<linearGradient id="path12459_2_" gradientUnits="userSpaceOnUse" x1="66.5537" y1="416.9854" x2="66.9425" y2="416.9854" gradientTransform="matrix(0 -122.178 -122.178 0 51016.9453 8183.043)">
		<stop  offset="0" style="stop-color:#1C63B7"/>
		<stop  offset="0.5" style="stop-color:#33BDF2"/>
		<stop  offset="1" style="stop-color:#33BDF2;stop-opacity:0.4196"/>
	</linearGradient>
	<path id="path12459" fill="url(#path12459_2_)" d="M78.251,47.282c1.074-0.854,2.15-1.798,3.228-2.829
		c-4.47-13.389-6.07-37.729-19.023-37.729c-0.926,0-1.861,0.086-2.792,0.259C71.462,9.917,72.973,35.588,78.251,47.282"/>
	<path id="path12521" fill="#3092C4" d="M59.664,6.984c-0.726-0.185-1.492-0.281-2.301-0.281l5.094,0.019
		C61.53,6.722,60.596,6.808,59.664,6.984"/>
	<path id="path12525" fill="#1969BC" d="M78.026,50.126c-0.506-0.483-0.987-1.013-1.46-1.579c-2.179,1.543-4.351,2.713-6.507,3.475
		c0.767,0.375,1.572,0.653,2.426,0.826c0.662,0.136,1.347,0.205,2.067,0.205c2.421,0,4.334-0.286,5.963-1.068
		C79.618,51.5,78.795,50.873,78.026,50.126"/>

		<linearGradient id="path12553_2_" gradientUnits="userSpaceOnUse" x1="62.5679" y1="415.2813" x2="62.9568" y2="415.2813" gradientTransform="matrix(0 159.4252 159.4252 0 -66138.8125 -9976.1162)">
		<stop  offset="0" style="stop-color:#166AB8"/>
		<stop  offset="0.4" style="stop-color:#36AEE8"/>
		<stop  offset="0.4" style="stop-color:#36AEE8"/>
		<stop  offset="0.8462" style="stop-color:#0798DD"/>
		<stop  offset="0.8462" style="stop-color:#0798DD"/>
		<stop  offset="1" style="stop-color:#0798DD"/>
	</linearGradient>
	<path id="path12553" fill="url(#path12553_2_)" d="M56.646,7.825c10.569,5.528,11.487,30.56,19.92,40.723l0,0
		c0.565-0.398,1.125-0.82,1.684-1.265l0,0C72.971,35.588,71.462,9.915,59.665,6.983l0,0C58.658,7.171,57.653,7.45,56.646,7.825"/>

		<linearGradient id="path12581_2_" gradientUnits="userSpaceOnUse" x1="62.6484" y1="415.3677" x2="63.0374" y2="415.3677" gradientTransform="matrix(0 169.5276 169.5276 0 -70353.6563 -10621.3721)">
		<stop  offset="0" style="stop-color:#124379"/>
		<stop  offset="0.39" style="stop-color:#1487CB"/>
		<stop  offset="0.39" style="stop-color:#1487CB"/>
		<stop  offset="0.7802" style="stop-color:#165197"/>
		<stop  offset="0.7802" style="stop-color:#165197"/>
		<stop  offset="1" style="stop-color:#165197"/>
	</linearGradient>
	<path id="path12581" fill="url(#path12581_2_)" d="M48.559,12.734c8.103,11.097,11.004,34.146,21.5,39.289l0,0
		c2.158-0.762,4.328-1.932,6.507-3.475l0,0c-8.433-10.163-9.352-35.195-19.92-40.723l0,0C53.963,8.823,51.27,10.485,48.559,12.734"
		/>

		<linearGradient id="path12651_2_" gradientUnits="userSpaceOnUse" x1="1006.4932" y1="-1588.3154" x2="1008.8008" y2="-1588.3154" gradientTransform="matrix(4.0385 0 0 -4.0385 -4028.6333 -6394.9805)">
		<stop  offset="0" style="stop-color:#33BDF2;stop-opacity:0.698"/>
		<stop  offset="1" style="stop-color:#1DACD8"/>
	</linearGradient>
	<path id="path12651" fill="url(#path12651_2_)" d="M40.222,15.28c-1.271,2.872-2.568,6.646-4.136,11.574
		c3.118-4.395,6.228-8.181,9.32-11.25c-0.427-1.309-0.883-2.517-1.376-3.592C42.766,12.98,41.492,14.069,40.222,15.28"/>
	<path id="path12655" fill="#2B74B1" d="M45.157,11.184c-0.373,0.267-0.749,0.54-1.125,0.828c0.493,1.076,0.949,2.283,1.375,3.592
		c0.562-0.549,1.119-1.082,1.677-1.59C46.483,12.986,45.847,12.036,45.157,11.184"/>
	<path id="path12659" fill="#125A9E" d="M46.486,10.296c-0.443,0.281-0.884,0.577-1.331,0.887c0.691,0.852,1.327,1.802,1.928,2.833
		c0.493-0.446,0.985-0.875,1.476-1.282C47.908,11.837,47.215,11.015,46.486,10.296"/>

		<linearGradient id="path12741_2_" gradientUnits="userSpaceOnUse" x1="66.6069" y1="417.4805" x2="66.9958" y2="417.4805" gradientTransform="matrix(0 -119.0183 -119.0183 0 49793.875 7977.832)">
		<stop  offset="0" style="stop-color:#136AB4"/>
		<stop  offset="0.6" style="stop-color:#59CAF5;stop-opacity:0.549"/>
		<stop  offset="1" style="stop-color:#59CAF5;stop-opacity:0.2353"/>
	</linearGradient>
	<path id="path12741" fill="url(#path12741_2_)" d="M118.572,5.68c-5.977,23.05-18.461,41.565-28.927,46.232h-0.021
		c-0.19,0.086-0.379,0.165-0.565,0.241c-0.025,0.016-0.048,0.018-0.068,0.027c-0.055,0.022-0.106,0.04-0.161,0.062
		c-0.026,0.016-0.049,0.021-0.072,0.03c-0.089,0.031-0.176,0.058-0.261,0.092c-0.038,0.016-0.073,0.026-0.108,0.038
		c-0.04,0.016-0.085,0.03-0.13,0.043c-0.04,0.015-0.081,0.027-0.126,0.044c-0.037,0.015-0.077,0.022-0.112,0.037
		c-0.077,0.022-0.146,0.041-0.223,0.068c-0.032,0-0.062,0.017-0.095,0.025c-0.047,0.015-0.1,0.026-0.151,0.041
		c-0.035,0.015-0.064,0.02-0.102,0.028c-0.053,0.016-0.112,0.029-0.164,0.042c-0.071,0.016-0.134,0.03-0.201,0.044
		c0.473,0.175,0.966,0.263,1.497,0.263c9.924,0,19.932-17.786,36.489-47.363h-6.501L118.572,5.68z"/>

		<linearGradient id="path12803_2_" gradientUnits="userSpaceOnUse" x1="998.3037" y1="-1591.0537" x2="1006.8633" y2="-1591.0537" gradientTransform="matrix(4.0385 0 0 -4.0385 -4028.6333 -6394.9805)">
		<stop  offset="0" style="stop-color:#05A1E6;stop-opacity:0.2471"/>
		<stop  offset="1" style="stop-color:#05A1E6"/>
	</linearGradient>
	<path id="path12803" fill="url(#path12803_2_)" d="M33.931,7.64c0.007,0,0.014-0.017,0.018-0.017c0.008,0,0.02,0,0.023-0.015
		c0,0,0.008,0,0.013,0c0.055-0.02,0.106-0.042,0.161-0.062c0.014,0,0.022,0,0.032-0.016c0.014,0,0.027-0.016,0.041-0.018
		c0.059-0.019,0.117-0.041,0.173-0.062c0,0,0.006,0,0.009,0c0.132-0.039,0.253-0.087,0.381-0.133c0.018,0,0.035-0.015,0.056-0.015
		c0.054-0.018,0.109-0.037,0.164-0.049c0.026-0.016,0.05-0.016,0.075-0.024c0.056-0.017,0.112-0.036,0.164-0.049
		c0.024,0,0.045-0.015,0.063-0.016c0.183-0.051,0.363-0.098,0.545-0.142c0.025,0,0.047-0.016,0.075-0.017
		c0.053-0.016,0.102-0.024,0.159-0.031c0.023-0.016,0.051-0.016,0.079-0.024c0.052-0.015,0.103-0.017,0.16-0.03
		c0.014,0,0.021,0,0.037,0c0.11-0.022,0.222-0.041,0.332-0.062c0.02,0,0.045,0,0.066,0c0.053-0.015,0.101-0.017,0.153-0.026
		c0.029,0,0.06-0.016,0.086-0.016c0.048,0,0.098-0.015,0.146-0.022c0.026,0,0.051,0,0.082-0.015
		c0.116-0.016,0.235-0.021,0.357-0.032c-0.344-0.032-0.697-0.054-1.057-0.054c-11.177,0-26.576,20.738-33.513,47.594
		c0,0,0.506,0,1.337,0c2.22-3.959,4.214-7.705,6.037-11.22c4.859-19.022,14.754-31.996,23.544-35.433"/>
	<path id="path12807" fill="#0D82CA" d="M40.222,15.28c1.271-1.211,2.544-2.3,3.808-3.268c-0.288-0.632-0.587-1.217-0.907-1.753
		C42.101,11.5,41.167,13.136,40.222,15.28"/>
	<path id="path12811" fill="#0D82CA" d="M41.141,7.797c0.73,0.611,1.383,1.454,1.982,2.462c0.188-0.231,0.379-0.444,0.578-0.646
		C42.87,8.839,41.973,8.204,41,7.724c0.038,0.022,0.079,0.039,0.119,0.057C41.119,7.781,41.134,7.796,41.141,7.797"/>

		<linearGradient id="path12831_2_" gradientUnits="userSpaceOnUse" x1="66.5557" y1="416.3574" x2="66.9443" y2="416.3574" gradientTransform="matrix(0 -121.8652 -121.8652 0 50761.6914 8162.4883)">
		<stop  offset="0" style="stop-color:#318ED5"/>
		<stop  offset="1" style="stop-color:#38A7E4"/>
	</linearGradient>
	<path id="path12831" fill="url(#path12831_2_)" d="M10.388,43.072c10.191-19.64,15.02-32.069,23.544-35.433l0,0
		C25.143,11.078,15.246,24.051,10.388,43.072"/>
	<path id="path12843" fill="#127BCA" d="M43.7,9.614c-0.199,0.203-0.387,0.415-0.578,0.646c0.32,0.536,0.618,1.119,0.909,1.753
		c0.376-0.289,0.752-0.561,1.125-0.829C44.695,10.615,44.208,10.087,43.7,9.614"/>

		<linearGradient id="path12923_2_" gradientUnits="userSpaceOnUse" x1="66.6318" y1="416.4082" x2="67.0207" y2="416.4082" gradientTransform="matrix(0 -118.4596 -118.4596 0 49352.6836 7945.0171)">
		<stop  offset="0" style="stop-color:#05A1E6"/>
		<stop  offset="1" style="stop-color:#05A1E6;stop-opacity:0.549"/>
	</linearGradient>
	<path id="path12923" fill="url(#path12923_2_)" d="M15.015,54.203L15.015,54.203c-0.063,0.015-0.126,0.015-0.185,0.022
		c-0.02,0-0.024,0-0.035,0c-0.054,0-0.108,0.016-0.157,0.016c0,0-0.02,0-0.026,0c-0.127,0.016-0.253,0.016-0.374,0.025h-0.039
		c10.314-0.289,15.03-5.453,17.37-12.944c1.777-5.678,3.238-10.462,4.518-14.476c-4.32,6.081-8.661,13.33-13.024,21.451
		c-2.104,3.914-5.304,5.549-8.048,5.898"/>

		<linearGradient id="path12949_2_" gradientUnits="userSpaceOnUse" x1="67.1533" y1="416.5229" x2="67.542" y2="416.5229" gradientTransform="matrix(0 -100.1002 -100.1002 0 41721.7188 6776.3008)">
		<stop  offset="0" style="stop-color:#1959A6"/>
		<stop  offset="0.5" style="stop-color:#05A1E6"/>
		<stop  offset="0.5" style="stop-color:#05A1E6"/>
		<stop  offset="0.9176" style="stop-color:#7EC5EA"/>
		<stop  offset="1" style="stop-color:#7EC5EA"/>
	</linearGradient>
	<path id="path12949" fill="url(#path12949_2_)" d="M15.015,54.199L15.015,54.199c2.744-0.35,5.944-1.983,8.048-5.899l0,0
		c4.363-8.118,8.706-15.369,13.022-21.451l0,0c1.571-4.929,2.866-8.701,4.138-11.573l0,0c-8.604,8.189-17.24,21.806-25.208,38.919"
		/>
	<path id="path12961" fill="#05A1E6" d="M10.388,43.072c-1.824,3.515-3.818,7.26-6.039,11.22c0.96,0,2.351,0,3.889,0
		c0.514-3.932,1.244-7.681,2.149-11.218"/>

		<linearGradient id="path12981_2_" gradientUnits="userSpaceOnUse" x1="66.8735" y1="415.998" x2="67.2622" y2="415.998" gradientTransform="matrix(-19.138 -108.5369 -108.5369 19.138 46460.043 -651.3982)">
		<stop  offset="0" style="stop-color:#165096"/>
		<stop  offset="1" style="stop-color:#0D82CA"/>
	</linearGradient>
	<path id="path12981" fill="url(#path12981_2_)" d="M37.225,6.791c-0.031,0-0.055,0.016-0.083,0.016l0,0
		c-0.046,0.016-0.096,0.016-0.146,0.021l0,0c-0.029,0-0.056,0-0.085,0.015l0,0c-0.054,0.016-0.102,0.017-0.153,0.027l0,0
		c-0.024,0-0.047,0-0.066,0.016l0,0c-0.112,0.018-0.222,0.039-0.332,0.058l0,0c-0.019,0-0.026,0-0.037,0l0,0
		c-0.058,0.016-0.109,0.024-0.162,0.032l0,0C36.134,6.99,36.105,6.99,36.08,6.997l0,0c-0.052,0.015-0.106,0.022-0.157,0.031l0,0
		c-0.027,0.016-0.048,0.016-0.074,0.018l0,0c-0.183,0.044-0.364,0.091-0.546,0.142l0,0c-0.019,0-0.039,0.015-0.063,0.019l0,0
		c-0.055,0.016-0.108,0.032-0.165,0.049l0,0C35.052,7.269,35.024,7.269,35,7.275l0,0c-0.055,0.016-0.11,0.032-0.163,0.048l0,0
		c-0.021,0-0.039,0.016-0.06,0.016l0,0c-0.125,0.047-0.249,0.094-0.379,0.133l0,0l0,0l0,0c-0.054,0.017-0.113,0.039-0.172,0.06l0,0
		c-0.023,0.015-0.044,0.019-0.072,0.03l0,0C34.1,7.58,34.044,7.602,33.994,7.622l0,0c-0.019,0.016-0.04,0.017-0.053,0.026l0,0
		c-8.523,3.364-13.352,15.793-23.543,35.432l0,0c-0.905,3.538-1.638,7.287-2.15,11.218l0,0h0.546c1.538,0,1.971-0.016,3.739-0.016
		l0,0h0.09h0.263h0.091h0.025h0.09h0.051h0.036h0.07h0.22h0.22h0.185h0.048c0.106,0,0.214,0,0.325,0l0,0
		c0.121-0.016,0.247-0.016,0.374-0.025l0,0c0,0,0.02,0,0.024,0l0,0c0.053,0,0.106-0.016,0.157-0.016l0,0c0.02,0,0.021,0,0.038,0l0,0
		c0.056,0,0.121-0.015,0.185-0.022l0,0l0,0c7.967-17.112,16.604-30.729,25.208-38.918l0,0c0.945-2.144,1.878-3.781,2.898-5.02l0,0
		c-0.597-1.008-1.25-1.853-1.98-2.465l0,0c0,0-0.021,0-0.021-0.016l0,0c-0.041-0.017-0.081-0.039-0.122-0.059l0,0
		c-0.042-0.022-0.077-0.038-0.12-0.061l0,0c-0.038-0.016-0.081-0.037-0.117-0.057l0,0c-0.051-0.016-0.093-0.038-0.138-0.058l0,0
		c-0.037-0.016-0.07-0.032-0.108-0.047l0,0c-0.077-0.03-0.153-0.062-0.226-0.094l0,0c-0.033-0.016-0.064-0.024-0.096-0.037l0,0
		c-0.054-0.019-0.114-0.044-0.168-0.067l0,0c-0.028-0.016-0.06-0.019-0.091-0.03l0,0c-0.081-0.027-0.159-0.055-0.234-0.08l0,0
		c-0.019,0-0.019,0-0.019,0l0,0c-0.091-0.03-0.179-0.052-0.271-0.077l0,0c-0.021-0.016-0.039-0.016-0.061-0.019l0,0
		c-0.081-0.022-0.151-0.044-0.228-0.064l0,0c-0.02,0-0.038-0.015-0.053-0.015l0,0c-0.185-0.05-0.375-0.089-0.567-0.124l0,0
		c-0.021,0-0.04-0.016-0.059-0.016l0,0c-0.083-0.016-0.163-0.03-0.246-0.04l0,0c-0.019-0.015-0.031-0.015-0.048-0.015l0,0
		c-0.099-0.016-0.194-0.027-0.291-0.038l0,0c-0.02,0-0.033,0-0.051,0l0,0c-0.079-0.015-0.151-0.017-0.224-0.025l0,0
		c-0.124,0.015-0.242,0.021-0.357,0.033"/>

		<linearGradient id="path13003_2_" gradientUnits="userSpaceOnUse" x1="68.8369" y1="418.8838" x2="69.2259" y2="418.8838" gradientTransform="matrix(0 -56.7206 -56.7206 0 23857.4766 3932.2825)">
		<stop  offset="0" style="stop-color:#05A1E6"/>
		<stop  offset="0.8736" style="stop-color:#0495D6"/>
		<stop  offset="1" style="stop-color:#0495D6"/>
	</linearGradient>
	<path id="path13003" fill="url(#path13003_2_)" d="M95.226,18.441c-1.961,6.281-3.549,11.463-4.931,15.727l0,0
		c5.381-7.404,10.68-16.718,15.728-27.467l0,0C100.134,8.55,96.994,12.782,95.226,18.441"/>

		<linearGradient id="path13093_2_" gradientUnits="userSpaceOnUse" x1="62.48" y1="414.3608" x2="62.8685" y2="414.3608" gradientTransform="matrix(-23.0627 130.7947 130.7947 23.0627 -52646.7344 -17724.5801)">
		<stop  offset="0" style="stop-color:#38A7E4;stop-opacity:0.3294"/>
		<stop  offset="0.9615" style="stop-color:#0E88D3"/>
		<stop  offset="0.9615" style="stop-color:#0E88D3"/>
		<stop  offset="1" style="stop-color:#0E88D3"/>
	</linearGradient>
	<path id="path13093" fill="url(#path13093_2_)" d="M90.465,51.52c-0.274,0.14-0.55,0.272-0.82,0.393
		c10.466-4.668,22.951-23.183,28.927-46.233h-1.211C103.628,30.21,99.212,46.632,90.465,51.52"/>
	<path id="path13097" fill="#079AE1" d="M83.631,49.459c2.277-2.779,4.132-7.504,6.665-15.292
		c-2.921,4.012-5.861,7.462-8.804,10.274c0,0.015,0,0.015-0.015,0.025c0.642,1.923,1.346,3.622,2.149,4.992"/>
	<path id="path13101" fill="#1969BC" d="M83.631,49.459c-0.775,0.946-1.596,1.666-2.509,2.2c-0.2,0.117-0.402,0.227-0.608,0.326
		c0.964,0.52,2.016,0.868,3.193,1.007l0,0l0,0c0.172,0.017,0.343,0.033,0.522,0.046h0.031c0.081,0,0.166,0,0.251,0.016h0.036
		c0.085,0,0.172,0,0.257,0c0.093,0,0.185,0,0.277,0c0.029,0,0.058,0,0.086,0c0.063,0,0.13,0,0.196,0c0.031,0,0.063,0,0.096-0.016
		c0.061,0,0.125,0,0.188-0.016c0.015,0,0.015,0,0.021,0c0.026,0,0.047,0,0.07,0c0.066,0,0.136-0.016,0.205-0.022h0.015
		c0.021,0,0.043-0.015,0.063-0.015c0.072-0.016,0.148-0.023,0.218-0.034c0.024,0,0.04,0,0.064,0c0.08-0.016,0.162-0.025,0.245-0.041
		h0.016c0.015,0,0.016,0,0.023,0c0.166-0.031,0.326-0.063,0.489-0.104c-1.351-0.493-2.481-1.66-3.455-3.32"/>
	<path id="path13105" fill="#1E5CB3" d="M64.335,53.053c0.979,0,1.968-0.096,2.961-0.287c0.919-0.167,1.84-0.422,2.762-0.744
		c0.767,0.375,1.573,0.653,2.425,0.827c0.662,0.135,1.348,0.204,2.069,0.204H64.335z"/>
	<path id="path13109" fill="#1E5CB3" d="M74.552,53.053c2.419,0,4.334-0.287,5.962-1.068c0.964,0.521,2.016,0.868,3.193,1.007l0,0
		l0,0c0.172,0.017,0.344,0.033,0.522,0.045h0.031c0.081,0,0.166,0,0.251,0.016h0.037c0.086,0,0.173,0,0.257,0h-10.26H74.552z"/>
	<path id="path13113" fill="#1D60B5" d="M84.812,53.053c0.095,0,0.188,0,0.279,0c0.026,0,0.058,0,0.086,0c0.063,0,0.127,0,0.194,0
		c0.033,0,0.064,0,0.096-0.016c0.062,0,0.126,0,0.19-0.016c0.016,0,0.016,0,0.021,0c0.025,0,0.049,0,0.072,0
		c0.064,0,0.135-0.016,0.203-0.022c0,0,0.015,0,0.017,0c0.02,0,0.042-0.015,0.062-0.015c0.072-0.016,0.147-0.022,0.218-0.033
		c0.023,0,0.042,0,0.066-0.015c0.081-0.016,0.164-0.024,0.246-0.04h0.015c0.016,0,0.017,0,0.024,0
		c0.165-0.032,0.326-0.063,0.489-0.104l0,0c0.473,0.174,0.966,0.263,1.498,0.263l-3.773,0.016L84.812,53.053z"/>
	<path id="path13117" fill="#175FAB" d="M81.482,44.467v-0.016c-1.078,1.031-2.153,1.976-3.228,2.83
		c-0.561,0.445-1.12,0.867-1.686,1.265c0.473,0.565,0.954,1.096,1.461,1.579c0.77,0.746,1.591,1.374,2.488,1.859
		c0.205-0.1,0.408-0.21,0.607-0.326c0.915-0.534,1.734-1.254,2.51-2.2c-0.803-1.37-1.507-3.069-2.148-4.992"/>

		<linearGradient id="path13139_2_" gradientUnits="userSpaceOnUse" x1="62.0708" y1="414.6533" x2="62.4595" y2="414.6533" gradientTransform="matrix(0 123.7424 123.7424 0 -51209.7539 -7675.189)">
		<stop  offset="0" style="stop-color:#168CD4"/>
		<stop  offset="0.5" style="stop-color:#1C87CC"/>
		<stop  offset="1" style="stop-color:#154B8D"/>
	</linearGradient>
	<path id="path13139" fill="url(#path13139_2_)" d="M113.525,5.68h-5.092c-0.171,0-0.339,0-0.506,0l0,0c-0.164,0-0.321,0-0.479,0
		l0,0h-0.019c-0.33,0.015-0.649,0.027-0.966,0.047l0,0c-0.149,0.32-0.303,0.64-0.45,0.962l0,0
		c-5.046,10.749-10.346,20.063-15.727,27.468l0,0c-2.53,7.786-4.387,12.511-6.664,15.291l0,0c0.973,1.661,2.106,2.829,3.452,3.324
		l0,0c0.04-0.016,0.071-0.016,0.106-0.023l0,0c0,0,0.021,0,0.022,0l0,0c0.024,0,0.049-0.017,0.074-0.017l0,0
		c0.056-0.015,0.114-0.024,0.169-0.042l0,0c0.035-0.016,0.064-0.018,0.1-0.029l0,0c0.051-0.016,0.104-0.027,0.151-0.04l0,0
		c0.031-0.016,0.063-0.021,0.094-0.026l0,0c0.079-0.025,0.149-0.044,0.224-0.068l0,0c0.035-0.015,0.073-0.027,0.112-0.037l0,0
		c0.043-0.016,0.087-0.028,0.126-0.046l0,0c0.044-0.016,0.09-0.024,0.129-0.041l0,0c0.035-0.016,0.072-0.025,0.105-0.04l0,0
		c0.089-0.032,0.175-0.058,0.263-0.092l0,0c0.024,0,0.047-0.022,0.073-0.027l0,0c0.053-0.022,0.108-0.039,0.161-0.063l0,0
		c0.02-0.015,0.043-0.017,0.069-0.025l0,0c0.185-0.077,0.375-0.156,0.565-0.241l0,0h0.019l0,0c0.271-0.12,0.546-0.253,0.819-0.393
		l0,0c8.75-4.888,13.166-21.31,26.898-45.84l0,0h-3.835L113.525,5.68z"/>
	<path id="path13231" fill="#7DCBEC" d="M37.583,6.758c0.022,0,0.042,0,0.063,0.016c0.053,0,0.106,0,0.159,0.017
		c0.021,0,0.038,0,0.054,0c0.096,0.016,0.191,0.023,0.29,0.037c0.019,0,0.034,0,0.05,0.016c0.08,0.015,0.162,0.028,0.245,0.041
		c0.019,0,0.041,0.015,0.061,0.015c0.188,0.038,0.381,0.077,0.566,0.125c0.017,0,0.035,0.016,0.051,0.016
		c0.078,0.019,0.148,0.042,0.227,0.064c0.024,0,0.041,0.016,0.063,0.019c0.093,0.024,0.179,0.047,0.269,0.077
		c0.004,0,0.01,0,0.02,0.016c0.077,0.023,0.155,0.054,0.236,0.081c0.031,0.015,0.061,0.022,0.09,0.029
		c0.056,0.024,0.116,0.047,0.169,0.069c0.031,0,0.063,0.022,0.096,0.034c0.073,0.032,0.149,0.063,0.224,0.094
		c0.039,0.016,0.072,0.033,0.11,0.047c0.043,0.022,0.088,0.043,0.135,0.059c0.04,0.019,0.083,0.039,0.12,0.056
		c0.042,0.022,0.08,0.04,0.119,0.062c0.974,0.479,1.871,1.117,2.702,1.89c0.305-0.322,0.625-0.61,0.958-0.87
		c-1.815-1.288-3.874-2.022-6.246-2.022c-0.275,0-0.549,0.016-0.829,0.037"/>
	<path id="path13235" fill="#5EC5ED" d="M43.7,9.614c0.508,0.473,0.995,1.001,1.456,1.57c0.445-0.31,0.887-0.608,1.331-0.887
		c-0.581-0.582-1.193-1.104-1.831-1.553C44.324,9.001,44.005,9.292,43.7,9.614"/>
	<g transform="matrix(5.0481458,0,0,-5.0481458,-9064.2597,2270.6096)">

			<linearGradient id="path13245_2_" gradientUnits="userSpaceOnUse" x1="1807.2412" y1="366.1516" x2="1807.63" y2="366.1516" gradientTransform="matrix(28.5033 -11.8223 -11.8223 -28.5033 -45380.2734 32251.1699)">
			<stop  offset="0" style="stop-color:#97D6EE"/>
			<stop  offset="0.7033" style="stop-color:#55C1EA"/>
			<stop  offset="1" style="stop-color:#55C1EA"/>
		</linearGradient>
		<path id="path13245" fill="url(#path13245_2_)" d="M1803.007,448.452c0.055,0.005,0.11,0.007,0.164,0.007
			c0.47,0,0.878-0.145,1.237-0.4c0.38,0.299,0.838,0.404,1.476,0.404h-3.086C1802.869,448.463,1802.939,448.458,1803.007,448.452"/>
	</g>
	<g transform="matrix(5.0481458,0,0,-5.0481458,-9064.2597,2270.6096)">

			<linearGradient id="path13255_2_" gradientUnits="userSpaceOnUse" x1="1808.4716" y1="365.3219" x2="1808.8606" y2="365.3219" gradientTransform="matrix(22.5118 10.2054 10.2054 -22.5118 -42635.6289 -9784.3262)">
			<stop  offset="0" style="stop-color:#7ACCEC"/>
			<stop  offset="1" style="stop-color:#3FB7ED"/>
		</linearGradient>
		<path id="path13255" fill="url(#path13255_2_)" d="M1805.884,448.463c-0.637,0-1.096-0.105-1.476-0.404
			c0.126-0.089,0.247-0.192,0.362-0.307c0.528,0.336,1.052,0.558,1.568,0.656c0.197,0.037,0.393,0.056,0.587,0.056H1805.884
			L1805.884,448.463z"/>
	</g>

		<linearGradient id="path13333_2_" gradientUnits="userSpaceOnUse" x1="61.9912" y1="414.7058" x2="62.3802" y2="414.7058" gradientTransform="matrix(0 121.0325 121.0325 0 -50098.9063 -7494.7471)">
		<stop  offset="0" style="stop-color:#1DA7E7"/>
		<stop  offset="1" style="stop-color:#37ABE7;stop-opacity:0"/>
	</linearGradient>
	<path id="path13333" fill="url(#path13333_2_)" d="M90.295,34.172c1.384-4.267,2.968-9.447,4.933-15.73
		c1.771-5.661,4.905-9.894,10.792-11.741c0.156-0.316,0.302-0.642,0.454-0.962c-9.597,0.575-14.082,5.457-16.339,12.687
		c-3.947,12.622-6.339,20.803-8.641,26.017C84.434,41.631,87.374,38.18,90.295,34.172"/>
</svg>
