<?xml version="1.0" encoding="utf-8"?>
<!-- Generator: Adobe Illustrator 16.0.0, SVG Export Plug-In . SVG Version: 6.00 Build 0)  -->
<!DOCTYPE svg PUBLIC "-//W3C//DTD SVG 1.1//EN" "http://www.w3.org/Graphics/SVG/1.1/DTD/svg11.dtd">
<svg version="1.1" id="Layer_1" xmlns="http://www.w3.org/2000/svg" xmlns:xlink="http://www.w3.org/1999/xlink" x="0px" y="0px"
	 width="500px" height="500px" viewBox="0 0 500 500" enable-background="new 0 0 500 500" xml:space="preserve">
<g>
	<path fill="#1384C8" d="M134.046,166.719c0.646-0.291,1.297-0.572,1.954-0.833C135.352,166.142,134.698,166.436,134.046,166.719z"
		/>
	<path fill="#1384C8" d="M39,342h1.971c5.814,0,7.457,0,14.147,0h0.342h0.995h0.343h0.097h0.34h0.193h0.135h0.267h0.832h0.831h0.699
		h0.186c0.4,0,0.809,0,1.225,0c0.46,0,0.936,0,1.418,0c0,0,0.075,0,0.091,0c0.2,0,0.399,0,0.593,0c0.074,0,0.082,0,0.142,0
		c0.083,0,0.175,0.086,0.266,0.074c37.15-1.906,54.378-21.129,63.024-48.808c6.728-21.482,12.254-39.557,17.096-54.745
		c-0.002,0.003-0.004,0.018-0.006,0.021c0.059-0.184,0.115-0.361,0.174-0.544c11.672-16.381,23.729-30.511,34.602-41.985v0.001
		c0,0,0.246,0,0.247-0.001c16.643,50.896,23.069,141.686,71.737,141.686c1.969,0,4.01,0.041,5.996-0.163
		c-1.986,0.205-3.904,0.464-5.872,0.464h38.63h0.025c-2.727,0-5.326-0.412-7.827-0.921c-1.58-0.322-3.116-0.817-4.615-1.326
		c1.499,0.508,3.037,0.89,4.62,1.209c2.501,0.512,5.094,0.754,7.819,0.754c7.17,0,13.153-0.54,18.376-2.246
		c-5.222,1.707-11.208,2.529-18.373,2.529h37.684h0.131c0.002,0,0.004,0,0.006,0c0.324,0,0.65,0,0.967,0c0.002,0,0.004,0,0.006,0
		c0.008,0,0.016,0,0.023,0l0.012-0.08l14.274-0.133c-1.827,0-3.529-0.322-5.166-0.872c0.022-0.024,0.046-0.048,0.069-0.08
		c1.61,0.482,3.284,0.584,5.076,0.584c37.549,0,75.41-67.419,138.054-179.419h-24.596l0.009,1h-4.584
		c-23.097,41-39.226,76.034-52.928,104.036C412.499,235.009,428.625,200,451.713,159h-14.494h-0.018h-19.248
		c-0.646,0-1.285,0-1.916,0c-0.615,0-1.211,0-1.811,0h-0.072c-1.247,0-2.457-0.167-3.653-0.09c-0.008,0.016-0.016-0.101-0.022-0.085
		c-36.269,2.192-53.227,20.59-61.764,47.927c-14.931,47.746-23.978,78.663-32.688,98.39c-0.003,0.003,0.003-0.01-0.001-0.006
		c0,0.045-0.026,0.042-0.026,0.061v-0.041c-4,3.9-8.155,7.473-12.218,10.703c-2.124,1.686-4.245,3.283-6.384,4.789
		c1.789,2.139,3.607,4.145,5.523,5.971c2.911,2.821,6.019,5.198,9.413,7.033c-0.005,0.002-0.009,0.005-0.013,0.007
		c-3.393-1.836-6.505-4.21-9.416-7.034c-1.916-1.826-3.734-3.832-5.524-5.97c0,0,0.001,0,0.001,0
		c2.139-1.508,4.255-3.104,6.371-4.79c-11.697-25.916-18.506-69.974-31.108-104.263c12.606,34.288,19.418,78.346,31.116,104.263
		c4.062-3.23,8.133-6.803,12.21-10.701C299.061,254.507,293.008,162.415,244,162.415c-3.454,0-6.937,0.322-10.412,0.955
		c3.475-0.643,6.959-0.963,10.413-0.963l-19.272-0.269c3.057,0,5.951,0.862,8.698,0.862c-0.001,0-0.003,0-0.003,0
		c-2.745,0-5.637-0.859-8.693-0.859c-0.267,0-0.534-0.055-0.801-0.051c0.266-0.004,0.533-0.09,0.799-0.09h-19.89h-57.614
		c-0.442,0-0.883-0.055-1.33-0.055C103.607,161.945,45.346,241,19.101,342c0,0,1.913,0,5.054,0c0.001,0,0.003,0,0.004,0
		C27.791,342,39,342,39,342 M408.772,162.34c-0.001,0.001-0.001,0.002-0.002,0.003c-12.613,3.975-21.888,10.846-28.775,19.951
		C386.88,173.183,396.152,166.31,408.772,162.34z M349.515,332.12c-0.12,0.06-0.24,0.122-0.36,0.181
		c-0.176,0.087-0.353,0.177-0.528,0.262c-0.013,0.006-0.024,0.012-0.037,0.018C348.897,332.43,349.206,332.275,349.515,332.12z
		 M344.375,334.399c0.07-0.056,0.156-0.064,0.247-0.09c-0.085,0.043-0.163,0.057-0.229,0.088c-0.176,0.07-0.341,0.129-0.512,0.195
		C344.046,334.529,344.213,334.472,344.375,334.399z M343.766,334.638c0.002,0,0.003-0.001,0.005-0.002
		c-0.006,0.003-0.011,0.004-0.017,0.007C343.758,334.642,343.762,334.639,343.766,334.638z M339.859,335.962
		c0.297-0.094,0.564-0.166,0.846-0.256c0.135-0.059,0.276-0.105,0.424-0.141c0.164-0.059,0.326-0.104,0.477-0.174
		c0.17-0.059,0.342-0.09,0.49-0.152c0.133-0.061,0.273-0.098,0.4-0.15c0.334-0.119,0.66-0.219,0.995-0.35
		c0.044,0,0.086-0.021,0.13-0.042c-0.037,0.014-0.076,0.032-0.113,0.046c-0.334,0.119-0.66,0.219-0.986,0.35
		c-0.143,0.061-0.275,0.098-0.41,0.143c-0.147,0.061-0.32,0.113-0.489,0.162c-0.149,0.059-0.305,0.102-0.478,0.166
		c-0.141,0.059-0.288,0.084-0.422,0.143c-0.29,0.084-0.557,0.154-0.846,0.256c-0.021,0-0.043,0.01-0.064,0.013
		C339.828,335.972,339.844,335.965,339.859,335.962z M136,166v-0.124v0.003c0,0,0.09,0.12,0.105,0.12h0.002
		c-0.829,0-1.646,0.583-2.456,0.927c0.132-0.061,0.263-0.136,0.395-0.195c-0.653,0.284-1.309,0.572-1.966,0.884
		c-0.351,0.167-0.7,0.332-1.047,0.51 M138,165L138,165 M143.613,163.315c-0.104,0.061-0.186,0.29-0.281,0.296
		c-0.691,0.166-1.374,0.353-2.066,0.544c-0.072,0-0.148,0.062-0.236,0.075c-0.193,0.054-0.379,0.112-0.576,0.171
		c0.199-0.066,0.394-0.165,0.577-0.21c0.091,0,0.173-0.078,0.238-0.083c0.69-0.191,1.374-0.38,2.064-0.546
		c0.097,0,0.179-0.274,0.283-0.28c0.193-0.059,0.373-0.315,0.58-0.327C143.999,162.967,143.802,163.283,143.613,163.315z
		 M144.513,163.216c-0.1,0.058-0.199,0.125-0.292,0.152c0.088-0.061,0.189-0.167,0.293-0.197c0.198-0.056,0.389-0.216,0.603-0.219
		C144.903,162.955,144.712,163.188,144.513,163.216z M152.068,162.977c-0.373-0.059-0.736-0.026-1.1-0.026c-0.015,0-0.024,0-0.037,0
		c0.362,0,0.727-0.052,1.098-0.001c0.045,0,0.086-0.019,0.126-0.022C152.127,162.949,152.101,162.977,152.068,162.977z
		 M153.025,162.495c-0.9,0-1.803,0.191-2.714,0.254c0.126,0.003,0.252,0.158,0.378,0.189c-0.242-0.031-0.471-0.17-0.699-0.193
		c0.107-0.008,0.214-0.071,0.321-0.079c-0.061-0.002-0.067-0.034-0.128-0.034c-0.082-0.061-0.184-0.09-0.184-0.09v0.083
		c-1,0.055-0.941,0.08-1.369,0.122l-0.065-0.08c-0.119,0-0.222,0.061-0.327,0.061c-0.178,0.059-0.37,0.059-0.556,0.078
		c-0.11,0-0.218,0-0.331,0.057c-0.199,0.061-0.387,0.091-0.578,0.128c-0.017,0-0.032,0.009-0.048,0.009c0.016,0,0.031,0,0.046,0
		c0.201,0,0.379-0.098,0.58-0.135c0.109,0,0.223-0.076,0.326-0.076c0.186,0,0.372-0.067,0.556-0.092
		c0.099,0,0.194-0.004,0.306-0.063c0.368-0.051,0.746-0.077,1.13-0.106c0.072,0.006,0.147,0.009,0.22,0.016
		c1.055-0.09,2.095-0.128,3.135-0.128 M155.551,163.577c-0.698-0.186-1.418-0.324-2.146-0.459c-0.066,0-0.13-0.038-0.194-0.049
		c0.054,0.012,0.11,0.029,0.164,0.029c0.712,0.143,1.44,0.282,2.14,0.466c0.022,0,0.044,0.01,0.066,0.019
		C155.57,163.582,155.56,163.577,155.551,163.577z M170.85,175.794L170.85,175.794c-0.002,0.004-0.005,0.008-0.008,0.011
		c-2.208-3.717-4.621-6.836-7.308-9.129c0.037,0.019,0.073,0.04,0.109,0.06c2.645,2.291,5.023,5.377,7.208,9.057
		C170.851,175.792,170.851,175.793,170.85,175.794z M174.285,182.423L174.285,182.423 M213.521,163.411
		c2.819-0.53,5.634-0.867,8.425-1.002c-2.791,0.135-5.606,0.472-8.43,1.008 M186,189.999c-0.021-0.042-0.047-0.084-0.068-0.127
		c0.021,0.043,0.047,0.083,0.068,0.125V189.999z M222.018,166.581c-4.441,1.651-8.89,3.783-13.348,6.372
		c4.459-2.59,8.908-4.725,13.35-6.379c3.027-1.122,6.046-2.012,9.068-2.686C228.064,164.566,225.043,165.455,222.018,166.581z
		 M233.434,163.396L233.434,163.396L233.434,163.396L233.434,163.396z M267.255,335.497c1.834-0.49,3.669-1.057,5.507-1.697
		c0,0,0.001,0,0.001,0C270.925,334.442,269.089,335.008,267.255,335.497z M314.629,332.42c-0.003,0.002-0.005,0.003-0.008,0.005
		c-0.108,0.063-0.222,0.115-0.331,0.178C314.401,332.539,314.518,332.485,314.629,332.42z M324.402,337.47
		c-4.456-0.527-8.436-1.841-12.082-3.81c3.646,1.967,7.626,3.283,12.082,3.808c0.652,0.064,1.299,0.125,1.975,0.174
		C325.702,337.595,325.056,337.534,324.402,337.47z M324.088,324.21l0.019-0.085c0.003-0.004,0.007-0.01,0.01-0.014
		c2.455,4.175,5.178,7.608,8.228,9.989C329.279,331.772,326.551,328.41,324.088,324.21z M331.06,337.642
		c-0.118,0.059-0.237,0.059-0.362,0.059c-0.01,0-0.019,0-0.028,0c0.119,0,0.243,0,0.362-0.059c0.23,0,0.475,0,0.713-0.061
		c0.021,0,0.027,0,0.037,0C331.535,337.642,331.293,337.642,331.06,337.642z M334.018,337.315c-0.266,0.043-0.551,0.066-0.824,0.125
		c-0.076,0-0.154,0.059-0.231,0.059c-0.006,0-0.065,0-0.065,0c-0.254,0.023-0.521,0.082-0.766,0.082c-0.012,0-0.025,0-0.037,0
		c0.244,0,0.512-0.059,0.773-0.084h0.059c0.079,0,0.161-0.057,0.237-0.057c0.274-0.061,0.56-0.086,0.824-0.127
		c0.023,0,0.043,0,0.063,0C334.04,337.313,334.029,337.315,334.018,337.315z"/>
</g>
</svg>
