<svg xmlns="http://www.w3.org/2000/svg" viewBox="0 0 128 128"><path fill="#9f4cf2" d="M72.96 106.15 34.463 67.663c-1.568-1.631-2.432-3.839-2.432-6.302V6.43c0-3.199-3.2-6.398-6.4-6.398H12.798c-3.2 0-6.4 3.199-6.4 6.398v63.984c0 3.391 1.248 6.655 3.648 9.054l44.801 44.789A12.75 12.75 0 0 0 63.904 128h6.4c3.552 0 6.4-2.879 6.4-6.398v-6.367a12.73 12.73 0 0 0-3.744-9.053Zm48.642-99.752c0-3.231-3.168-6.398-6.4-6.398H102.37c-3.2 0-6.4 3.199-6.4 6.398v54.899a9.06 9.06 0 0 1-2.561 6.334L80.513 80.524a12.74 12.74 0 0 0-3.744 9.054v6.398a6.397 6.397 0 0 0 6.4 6.398h6.4c3.264 0 6.56-1.247 9.057-3.743l19.2-19.195a12.8 12.8 0 0 0 3.745-9.053V6.398Z"/></svg>
