<svg viewBox="0 0 128 128" xmlns="http://www.w3.org/2000/svg"><path d="M.953 9.125L16 35.187 31.047 9.125H.953zm96 0L112 35.187l15.047-26.062H96.953zM32 9.675L16.637 36.288 32 62.897l15.363-26.61L32 9.676zm64 0L80.637 36.288 96 62.897l15.363-26.61L96 9.676zM56.318 22.982l-7.683 13.307L64 62.9l15.363-26.613L71.68 22.98H56.318zM48 37.389L40.29 50.74 32.636 64 48 90.614 63.363 64 48 37.39zm32 .002L64.637 64 80 90.61 95.363 64 80 37.39zM64 65.1L48.637 91.714 64 118.323l15.363-26.61L64 65.102z"/></svg>
