<svg xmlns="http://www.w3.org/2000/svg" viewBox="0 0 128 128"><path fill="#9f4cf2" d="M71.07 83.759 40.693 53.39c-1.237-1.287-1.919-3.029-1.919-4.972V5.074c0-2.524-2.525-5.049-5.05-5.049H23.598c-2.525 0-5.05 2.525-5.05 5.049v50.487c0 2.676.985 5.251 2.879 7.144l35.351 35.341A10.05 10.05 0 0 0 63.924 101h5.05a5.05 5.05 0 0 0 5.051-5.049v-5.023c0-2.6-.985-5.175-2.955-7.144zm38.382-78.71c0-2.55-2.5-5.049-5.05-5.049H94.276c-2.525 0-5.05 2.524-5.05 5.049v43.318a7.15 7.15 0 0 1-2.02 4.998L77.03 63.538a10.05 10.05 0 0 0-2.955 7.144v5.049a5.05 5.05 0 0 0 5.05 5.049h5.051a10.1 10.1 0 0 0 7.146-2.954l15.15-15.146a10.1 10.1 0 0 0 2.955-7.144V5.049zM26.68 128.048l-6-18.75h3.36l3.918 13.164 3.684-13.152H34.9l-5.928 18.738zM44.428 128v-7.38l-5.58-11.31h3.498l3.852 7.8 3.42-7.8h3.354l-5.148 11.328V128zm13.5 0v-18.69h6.378q2.172 0 3.57.747t2.076 1.986.678 2.745q0 1.116-.375 2.091a4.7 4.7 0 0 1-1.134 1.713q-.759.738-1.92 1.155t-2.745.417h-3.072V128zm3.456-10.65h2.832q.966 0 1.617-.324t.987-.906.336-1.326q0-.75-.336-1.32t-.978-.9-1.596-.33h-2.862zM76.186 128v-18.702h12.162v2.76H79.48v4.818h7.29v2.784h-7.29v5.58h8.796V128zm17.952 0v-18.69h5.934q2.292 0 3.747.678t2.148 1.914.693 2.892q0 1.032-.429 2.055a5.8 5.8 0 0 1-1.221 1.83 5.1 5.1 0 0 1-1.872 1.215L107.17 128h-3.564l-3.798-7.764h-2.226V128zm3.444-10.578h2.712q1.434 0 2.163-.687t.729-1.851q0-.732-.318-1.326a2.37 2.37 0 0 0-.96-.954q-.642-.36-1.614-.36h-2.712z"/></svg>
