<svg xmlns="http://www.w3.org/2000/svg" viewBox="0 0 128 128"><path fill="#FBB040" d="M39.677 32.971c-4.6 0-8.45 3.142-9.603 7.389-4.063.572-7.218 4.032-7.218 8.247 0 4.1 2.954 7.522 6.84 8.293l.017.002q2.16.395 4.272.992l.014.004c5.603 1.511 16.501 3.582 28.567 3.28.77 1.572 1.95 2.906 3.442 3.808l-.013-.007c.523.324.946 1.19.946 1.695a5.444 5.444 0 0 0 5.425 5.428c1.417 0 2.755-.428 3.77-1.286 1.014-.858 1.66-2.172 1.66-3.664l-.003-.807-.004-.093a8.75 8.75 0 0 1 1.004-4.75V61.5c.433-.804.707-1.696.883-2.62 1.964-.515 3.918-1.088 5.831-1.81l.006-.002a9.5 9.5 0 0 1 2.08-.54h.005a8.39 8.39 0 0 0 7.229-8.3c0-4.613-3.765-8.379-8.378-8.379-1.329 0-2.567.355-3.682.908-1.607-3.64-5.226-6.192-9.448-6.192-4.792 0-8.802 3.297-9.973 7.729-1.763-2.056-4.317-3.42-7.231-3.42-2.579 0-4.847 1.099-6.577 2.76-.66-4.874-4.811-8.662-9.861-8.662zm0 2.288a7.692 7.692 0 0 1 7.267 10.265 1.144 1.144 0 0 0 .894 1.506l.027.005a1.144 1.144 0 0 0 1.235-.757l.001.003.001-.005.036-.021a7.32 7.32 0 0 1 6.977-5.095 7.32 7.32 0 0 1 6.958 5.042 1.144 1.144 0 0 0 2.224-.476 8.046 8.046 0 0 1 8.022-8.876 8.06 8.06 0 0 1 7.69 5.63 1.144 1.144 0 0 0 1.378.761l.802-.21a1 1 0 0 0 .273-.11 6.04 6.04 0 0 1 2.987-.785 6.07 6.07 0 0 1 6.09 6.09 6.08 6.08 0 0 1-5.255 6.034h-.006a11.8 11.8 0 0 0-2.585.672 57 57 0 0 1-6.272 1.944 1.14 1.14 0 0 0-.862.995 6.8 6.8 0 0 1-.78 2.548l-.002.004a11.04 11.04 0 0 0-1.27 5.996l-.002-.094.005.826c0 .875-.313 1.465-.85 1.918-.535.454-1.34.746-2.293.746a3.123 3.123 0 0 1-3.14-3.141 4.28 4.28 0 0 0-2.024-3.638l-.011-.007a6.85 6.85 0 0 1-2.84-3.395 1.14 1.14 0 0 0-1.105-.732c-12.054.406-23.121-1.72-28.638-3.207l-.015-.005a48 48 0 0 0-4.471-1.038l.017.004c-2.839-.563-4.997-3.046-4.997-6.049a6.07 6.07 0 0 1 5.872-6.08 1.144 1.144 0 0 0 1.085-.938 7.695 7.695 0 0 1 7.578-6.331zM42.135.018a1.14 1.14 0 0 0-.9.811c-1.683 5.888.956 11.472 4.474 15.656a32 32 0 0 0 2.54 2.679 10.9 10.9 0 0 0-3.551.1c-6.317 1.243-11.695 5.254-14.617 13.505-1.198 3.384-1.251 6.903-.865 10.1a6.1 6.1 0 0 1 1.8-.338 1.1 1.1 0 0 0 .437-.173c-.32-2.887-.224-5.977.784-8.826 2.713-7.663 7.224-10.906 12.902-12.024 1.956-.385 3.544-.058 5.28.508.868.283 1.763.632 2.724.965l.178.055c.91.31 1.875.604 2.933.808a1.144 1.144 0 0 0 1.344-1.312 13 13 0 0 1-.002-4.197c.045-.281.087-.564.148-.837.348-1.561.946-2.992 1.65-4.268a19.8 19.8 0 0 1 3.534-4.598c.376.285.754.54 1.128.96.183.205.173.215.312.387-1.77 1.643-5.705 6.102-5.077 13.084a1.144 1.144 0 0 0 1.18 1.04c2.503-.09 4.175-.921 5.634-1.593 1.46-.673 2.712-1.217 4.968-1.147 4.667.147 8.738 3.814 10.34 6.052 1.729 2.633 3.858 5.907 3.512 14.883v.037a6 6 0 0 1 1.524-.196q.389.002.764.053c.316-9.267-2.162-13.402-3.907-16.06l-.025-.037c-1.945-2.722-6.366-6.837-12.136-7.017-2.681-.084-4.49.66-5.996 1.354-1.161.535-2.246.944-3.571 1.174.008-6.857 5.037-10.568 5.037-10.568a1.144 1.144 0 0 0 .261-1.584s-.46-.653-1.112-1.384c-.65-.73-1.438-1.576-2.507-2.022a1.14 1.14 0 0 0-1.2.201 23 23 0 0 0-4.665 5.877c-.257.463-.481.97-.706 1.479-.493-1.63-1.16-3.144-2.035-4.54-2.415-3.849-6.316-6.74-11.888-8.98a1.14 1.14 0 0 0-.627-.066zm1.036 2.775c4.532 2.018 7.624 4.428 9.541 7.486 1.4 2.23 2.21 4.867 2.548 7.988.016.152.025.312.037.466v.002c.085.902.138 1.834.148 2.818-.33-.175-.724-.428-1.097-.655-.243-.148-.456-.254-.711-.423-1.953-1.284-4.252-3.17-6.179-5.46-2.944-3.504-4.989-7.784-4.287-12.222m44.048 51.483a11.8 11.8 0 0 0-2.527.66 53 53 0 0 1-1.928.681l-.153.298c-.034.065-.148.236-.191.314h2.847v3.359a3.07 3.07 0 0 0 3.055 3.052h7.084a7.45 7.45 0 0 1 7.451 7.45v30.955a7.46 7.46 0 0 1-2.193 5.277 7.45 7.45 0 0 1-3.821 2.034 7.5 7.5 0 0 1-1.465.14h-.006c-2.389.005-4.897 0-6.987-.028a3.055 3.055 0 0 0-3.116 3.051c0 2.5 0 6.734-.009 8.553v.005a.76.76 0 0 1-.266.57c-1.156.863-4.513 2.629-10.991 3.83a65 65 0 0 1-4.268.64c-3.104.368-6.737.597-10.957.597-16.572 0-24.462-2.779-26.607-4.009a.76.76 0 0 1-.349-.633l-.14-64.842h4.064c-.057-.106-.087-.177-.142-.281-.327-.083-.699-.17-.996-.25l-.012-.003a48 48 0 0 0-4.473-1.038l.017.004a6 6 0 0 1-.517-.127 1.14 1.14 0 0 0-.228.553s.123 57.551.14 65.987a3.06 3.06 0 0 0 1.412 2.57l.042.024C33.85 125.326 41.904 128 58.777 128c17.268 0 25.066-3.614 27.629-5.55l.039-.032a3.05 3.05 0 0 0 1.1-2.342c.01-1.837.01-6.06.01-8.558a.76.76 0 0 1 .229-.546l.001-.001a.76.76 0 0 1 .552-.218h.008c2.11.03 4.629.033 7.025.027a9.74 9.74 0 0 0 9.772-9.736V70.09a9.74 9.74 0 0 0-9.738-9.739H88.32a.75.75 0 0 1-.764-.764v-4.504a1.14 1.14 0 0 0-.337-.81zm1.58 13.728a3.5 3.5 0 0 0-1.351.269 3.5 3.5 0 0 0-1.146.764v.001a3.5 3.5 0 0 0-.765 1.145 3.5 3.5 0 0 0-.269 1.351v27.781a3.5 3.5 0 0 0 .27 1.352 3.5 3.5 0 0 0 .764 1.146 3.5 3.5 0 0 0 1.146.764 3.5 3.5 0 0 0 1.351.269h6.082a3.5 3.5 0 0 0 1.351-.269 3.5 3.5 0 0 0 1.146-.764 3.5 3.5 0 0 0 .764-1.146 3.5 3.5 0 0 0 .27-1.352v-27.78a3.5 3.5 0 0 0-.269-1.35 3.5 3.5 0 0 0-.764-1.146h-.001a3.5 3.5 0 0 0-1.147-.765 3.5 3.5 0 0 0-1.35-.27zm0 2.288h6.082a1.244 1.244 0 0 1 1.243 1.242v27.781a1.243 1.243 0 0 1-1.243 1.244H88.8a1.24 1.24 0 0 1-.879-.363h-.001a1.24 1.24 0 0 1-.363-.88v-27.78a1.24 1.24 0 0 1 .767-1.15q.226-.092.476-.093z"/></svg>
