<?xml version="1.0" encoding="UTF-8"?>
<svg version="1.1" viewBox="0 0 128 128" xmlns="http://www.w3.org/2000/svg"><path d="m21.602 38.473c-0.054687 0.054688-0.097656 8.7305-0.097656 19.281v19.188l8.8633-0.042968c10.418-0.050782 11.324-0.14844 14.383-1.5742l0.65234-0.30469 0.082031-0.90234c0.37891-4.0742 3.707-7.3281 7.6211-7.4453 0.90234-0.027344 0.85156 0.023437 1.4805-1.5469 1.3398-3.3672 1.6406-9.0781 0.70312-13.223-1.6797-7.4023-6.9414-12.121-14.777-13.254-1.1797-0.16797-18.758-0.33203-18.91-0.17578m40.094 18.469v18.547l-0.30859 1.1992c-1.5078 5.8789-8.4844 8.1133-13.094 4.1914-0.19531-0.16797-0.63672-0.62891-0.98047-1.0312l-0.625-0.72656-0.71875 0.32422c-1.5664 0.70703-5.082 1.707-5.9922 1.707-1.207 0 1.3477 3.9766 3.8555 6 3.1484 2.543 5.7148 3.4023 10.121 3.3984 8.1055-0.011719 13.402-3.9219 15.598-11.512 0.72656-2.5156 0.72656-2.5625 0.69141-22.398l-0.035157-18.176-8.5117-0.070313v18.547m31.297-18.453c-9.2031 0.47656-15.488 6.207-15.488 14.121 0 6.332 2.9648 10.234 10.176 13.402 0.87891 0.38672 2.3203 1.0195 3.1992 1.4102 2.0273 0.89453 2.4336 1.0703 3.457 1.5078 6.4844 2.7656 7.9375 4.125 7.9375 7.4414 0 7.9258-12.508 8.9492-21.109 1.7227-0.51953-0.4375-0.98437-0.75-1.0352-0.69141-0.16797 0.19922-3.5273 4.1797-3.9062 4.6289-0.21094 0.25-0.51172 0.59766-0.67188 0.76562-0.43359 0.47266-0.37891 0.57422 0.87891 1.6445 8.7461 7.4414 22.207 8.3242 29.875 1.9609 5.2109-4.3242 6.5352-12.516 2.9297-18.137-1.4141-2.207-4.4258-4.6133-7.0898-5.668-0.24609-0.097656-0.51172-0.22266-0.58594-0.28125-0.078125-0.058594-0.36719-0.1875-0.64062-0.28906-0.27734-0.10156-0.99219-0.39453-1.5898-0.65234-1.0742-0.46484-1.8594-0.79688-3.2969-1.3906-0.40234-0.16797-1.168-0.48828-1.6953-0.71484-0.52734-0.22266-1.168-0.48438-1.4219-0.57812-4.2812-1.5938-6.4531-3.668-6.6133-6.3242-0.38281-6.2852 8.6484-8.3984 16.355-3.8203 0.24609 0.14844 0.89062 0.60156 1.4375 1.0117 0.54297 0.41016 1.0312 0.74219 1.0859 0.73828 0.089843-0.007813 3.2852-3.8945 4.1719-5.0781l0.35938-0.47656-0.61719-0.55078c-1.1719-1.0508-3.125-2.4414-4.2305-3.0156-0.88672-0.46094-1.1406-0.58594-1.7227-0.84375-2.9961-1.3398-6.75-2.0195-10.148-1.8438m-54.668 8.2383c4.9219 0.68359 7.6289 4.2383 7.8438 10.297 0.21484 6.1641-2.5234 10.418-7.3828 11.473-1.2539 0.27344-7.1055 0.50781-7.8672 0.31641l-0.32422-0.082031v-10.984c0-6.0391 0.035156-11.023 0.082031-11.07 0.14062-0.13672 6.5938-0.09375 7.6484 0.050781m13.621 23.273c-5.25 2.1172-3.9805 9.6992 1.6211 9.6758 5.4062-0.023437 6.9648-7.1641 2.0742-9.5078-0.91797-0.44141-2.8086-0.52734-3.6953-0.16797" fill="#fff" fill-rule="evenodd"/></svg>
