<svg xmlns="http://www.w3.org/2000/svg" viewBox="0 0 128 128"><path fill="#5865f2" d="M30.686 52.723c-1.886 0-3.377.443-4.448 1.328-1.07.908-1.605 2.117-1.605 3.678 0 1.164.324 2.12.953 2.865.629.768 1.655 1.374 3.05 1.863l1.91.629c.677.28 1.141.535 1.397.791.257.256.373.606.373 1.002 0 1.118-.77 1.676-2.33 1.676-.93 0-1.861-.186-2.816-.535-.955-.35-1.792-.793-2.537-1.375v3.632A10.385 10.385 0 0 0 30.43 70c1.932 0 3.468-.465 4.586-1.42 1.094-.93 1.654-2.212 1.654-3.818 0-1.211-.35-2.212-1.049-3.004-.698-.77-1.815-1.421-3.375-1.91l-1.678-.535c-.628-.258-1.07-.512-1.35-.768a1.17 1.17 0 0 1-.44-.955c0-.978.767-1.467 2.327-1.467 1.654 0 3.235.535 4.772 1.629v-3.586c-1.63-.955-3.352-1.443-5.191-1.443zm16.45.023c-1.745 0-3.283.372-4.587 1.117a7.656 7.656 0 0 0-3.049 3.098c-.722 1.327-1.072 2.818-1.072 4.494 0 1.583.35 3.028 1.025 4.309.675 1.304 1.678 2.327 2.98 3.072 1.306.768 2.864 1.143 4.657 1.143 1.002 0 1.979-.14 2.887-.397.908-.256 1.7-.606 2.375-1.049v-3.562a7.988 7.988 0 0 1-2.05 1.002 7.3 7.3 0 0 1-2.327.396c-1.095 0-2.072-.21-2.887-.652-.815-.42-1.444-1-1.887-1.77-.442-.768-.676-1.63-.676-2.61 0-.976.234-1.838.676-2.607.443-.768 1.072-1.35 1.887-1.77.815-.417 1.745-.628 2.84-.628 1.583 0 3.026.49 4.353 1.443v-3.7c-1.513-.887-3.212-1.329-5.144-1.329zm15.548 0c-1.63 0-3.097.372-4.377 1.094a7.94 7.94 0 0 0-3.004 3.074c-.722 1.327-1.094 2.818-1.094 4.47 0 1.655.372 3.144 1.094 4.448.72 1.304 1.723 2.33 3.004 3.05 1.28.724 2.747 1.097 4.377 1.097 1.653 0 3.12-.374 4.423-1.096a7.776 7.776 0 0 0 3.026-3.051c.722-1.304 1.072-2.794 1.072-4.447 0-1.654-.35-3.145-1.072-4.47a7.991 7.991 0 0 0-3.026-3.075c-1.303-.722-2.77-1.094-4.423-1.094zM.5 53.213v16.299h6.17c1.793 0 3.33-.35 4.588-1.07 1.257-.7 2.21-1.68 2.84-2.936.628-1.234.955-2.677.955-4.283 0-1.607-.303-3.004-.908-4.215a6.76 6.76 0 0 0-2.749-2.795c-1.21-.675-2.677-1-4.423-1H.5zm17.281 0v16.299h3.91v-16.3h-3.91zm56.092 0v16.299h3.912v-6.87l4.82 6.87h4.68l-4.842-6.567c1.42-.163 2.491-.675 3.26-1.513.768-.84 1.14-1.91 1.14-3.19 0-1.56-.512-2.77-1.56-3.68-1.048-.907-2.468-1.35-4.238-1.35h-7.172zm15.727.002v16.287h6.166c1.616 0 2.852-.256 4.002-.836-.003-.04-.002-.08-.002-.121a3.392 3.392 0 0 1 3.55-3.393c.587-1.194.825-2.378.825-3.933 0-1.606-.304-3.002-.909-4.211a6.751 6.751 0 0 0-2.744-2.793c-1.21-.675-2.676-1-4.422-1H89.6zm-26.916 3.234c.908 0 1.676.21 2.351.653a4.203 4.203 0 0 1 1.537 1.77c.35.767.512 1.605.512 2.536 0 .932-.186 1.77-.535 2.492a4.105 4.105 0 0 1-1.514 1.746c-.675.42-1.443.63-2.351.63-.885 0-1.653-.21-2.305-.63a4.008 4.008 0 0 1-1.537-1.746c-.35-.72-.535-1.56-.535-2.492 0-.93.186-1.768.535-2.537a4.203 4.203 0 0 1 1.537-1.77c.652-.441 1.42-.652 2.305-.652zm15.101.047h2.516c.769 0 1.35.186 1.746.535.396.373.605.91.605 1.584 0 .722-.233 1.257-.675 1.653-.443.395-1.094.582-1.956.582h-2.236v-4.354zm-73.373.21h2.352c1.373 0 2.42.395 3.119 1.21.698.815 1.049 1.933 1.049 3.377 0 1.467-.374 2.607-1.096 3.445-.722.862-1.793 1.282-3.213 1.282h-2.21v-9.315zm89.096 0h2.35c1.372 0 2.419.396 3.117 1.21s1.046 1.93 1.046 3.373c0 1.466-.372 2.606-1.093 3.443-.721.861-1.79 1.28-3.21 1.28h-2.21v-9.307zm9.654 9.7a2.14 2.14 0 1 0 0 4.278 2.14 2.14 0 0 0 0-4.278z"/><path fill="#b75cff" d="M99.945 70.498c-.28.12-.672.28-.988.38-.67.21-1.206.296-1.756.38.661 2.12 3.253 4.204 6.274 4.007 2.85 0 4.821-1.405 5.87-3.442-2.975-.042-7.31 1.197-9.4-1.325zm27.192.35c-1.04.123-1.784-.086-3.489.461-4.127 1.7-8.212.259-9.512-.023-.427-.045-.623-.67-1.5.364l-.426.504a10.943 10.943 0 0 0 7.645 3.124c3.855 0 6.461-1.862 7.327-4.391z"/><path fill="#5c6cff" d="M127.355 67.535c-2.267-1.574-2.72-.436-3.856.793.105.269.162.574.162.93 0 1.659-1.334 2.733-3.709 2.733-1.985 0-4.034-.976-5.562-2.408l-1.753 2.067c2.373.107 4.776.72 7.179.625 2.63-.104 6.104-.937 7.32-1.428l.047.04a5.928 5.928 0 0 0 .316-1.922c0-.517-.05-.992-.144-1.43zm-17.122.034c-1.284-.98-2.515-.646-3.696.739v.237a3.39 3.39 0 0 1-3.385 3.396 3.381 3.381 0 0 1-2.868-1.59s-.148.065-.34.146c.886 1.115 1.973 1.692 4.13 1.778 1.758.07 3.515-.238 5.273-.452.587-1.139.886-2.475.886-3.875z"/><path fill="#5cff9d" d="M110.233 63.547c-1.2-1.056-2.42-1.269-3.696.342v4.419c1.236-.288 2.47-.581 3.696-.739zm14.305.32c-1.845-.807-7.37.001-8.347.371.41.243.834.45 1.256.626l2.896 1.27c1.557.649 2.74 1.133 3.156 2.194 1.195-.174 2.225-.412 2.912-.57l.944-.223c-.362-1.691-1.388-2.826-2.817-3.667z"/><path fill="#ffdb5c" d="M113.158 59.473c.097 2.346 1.456 3.83 3.04 4.768 1.21.239 2.418.446 3.628.446 1.688 0 3.374-.402 4.713-.818a11.322 11.323 0 0 0-1.334-.664l-2.862-1.204c-1.414-.576-2.744-1.09-3.208-2.134-2.853-1.448-.94-2.362-3.977-.394zm-2.925.284c-1.084-.748-2.308-.524-3.696.678v3.457c1.232-.124 2.465-.288 3.696-.345z"/><path fill="#f79454" d="M114.432 55.682a5.444 5.444 0 0 0-1.274 3.79c1.319-.012 2.646.134 3.976.396a2.083 2.083 0 0 1-.175-.86c0-1.563 1.301-2.507 3.318-2.507 1.822 0 3.286.684 4.62 1.822l1.416-1.746c-4.139-1.279-7.838-2.083-11.88-.896zm-4.199.836c-1.526-1.341-2.698-.352-3.696 1.519v2.398c1.232-.191 2.464-.47 3.696-.678z"/><path fill="#ff5c5c" d="M106.537 53.215v4.822c1.232-.416 2.464-1.031 3.696-1.52v-3.302zm13.74 0c-2.504 0-4.59.958-5.844 2.466 1.786.006 3.584.367 5.383.582 2.572.308 5.136.314 6.497.314l.536-.661c-1.66-1.66-4.067-2.701-6.572-2.701z"/></svg>
