<svg xmlns="http://www.w3.org/2000/svg" viewBox="0 0 128 128"><path d="M17.186 45.67c-.56 0-1.118.16-1.606.48L1.324 55.496A2.93 2.93 0 0 0 0 57.946v12.109a2.93 2.93 0 0 0 1.324 2.449L15.58 81.85c.975.639 2.236.639 3.211 0l14.256-9.346a2.928 2.928 0 0 0 1.322-2.45V57.946c0-.987-.496-1.908-1.322-2.449L18.79 46.15a2.926 2.926 0 0 0-1.605-.48zm-.764 8.02h2.672c.21 0 .383.171.383.382v4.2h5.728c.633 0 1.145.513 1.145 1.146V64h.763c.211 0 .383.172.383.383V68.2c0 .211-.172.381-.383.381h-.763v2.293c0 .633-.512 1.145-1.145 1.145H9.166a1.145 1.145 0 0 1-1.146-1.145v-2.293h-.764a.38.38 0 0 1-.381-.38v-3.82c0-.21.17-.382.38-.382h.765v-4.582c0-.633.513-1.147 1.146-1.147h9.164v-1.144h-1.908a.383.383 0 0 1-.383-.383v-2.672c0-.21.172-.383.383-.383zm23.293 4.581v11.327h3.836c3.449 0 5.496-2.135 5.496-5.674 0-3.528-2.047-5.653-5.418-5.653h-3.914zm53.379 0v4.237h-.084c-.304-.614-.928-1.514-2.426-1.514-1.962 0-3.504 1.538-3.504 4.37 0 2.798 1.497 4.384 3.498 4.384 1.46 0 2.117-.869 2.432-1.488h.12v1.338h1.97V58.27h-2.006zm11.927 0v11.327h1.967V68.26h.116c.315.62.974 1.488 2.433 1.488 2 0 3.498-1.586 3.498-4.385 0-2.831-1.541-4.369-3.504-4.369-1.497 0-2.124.9-2.427 1.514h-.083V58.27h-2zm19.147.797v2.036h-1.203v1.548h1.203v4.723c-.01 1.598 1.15 2.384 2.654 2.34a4.02 4.02 0 0 0 1.178-.2l-.338-1.564c-.11.028-.337.076-.586.076-.503 0-.906-.177-.906-.984v-4.39h1.676v-1.55h-1.676v-2.035h-2.002zm-82.402.979h1.746c2.299 0 3.5 1.283 3.5 3.877 0 2.605-1.199 3.898-3.559 3.898h-1.687v-7.775zm12.591.947c-2.432 0-4.02 1.785-4.02 4.406 0 2.666 1.565 4.364 4.124 4.364 1.979 0 3.34-.967 3.693-2.444l-1.869-.21c-.27.718-.934 1.095-1.797 1.095-1.293 0-2.149-.852-2.166-2.307h5.914v-.613c0-2.98-1.79-4.29-3.879-4.29zm9.922 0c-1.497 0-2.123.9-2.427 1.514h-.116v-1.404h-1.968v11.68h2.002V68.26h.082c.315.62.974 1.488 2.433 1.488 2 0 3.498-1.586 3.498-4.385 0-2.831-1.541-4.369-3.504-4.369zm8.86 0c-2.432 0-4.02 1.785-4.02 4.406 0 2.666 1.566 4.364 4.125 4.364 1.979 0 3.338-.967 3.692-2.444l-1.87-.21c-.27.718-.932 1.095-1.795 1.095-1.293 0-2.15-.852-2.167-2.307h5.914v-.613c0-2.98-1.79-4.29-3.88-4.29zm9.728 0c-1.271 0-2.144.607-2.531 1.553h-.1v-1.443h-1.912v8.494h2V64.62c0-1.228.742-1.935 1.797-1.935 1.034 0 1.652.68 1.652 1.814v5.098h2.002v-5.409c.006-2.035-1.155-3.195-2.908-3.195zm17.268 0c-1.785 0-3.156.795-3.598 2.344l1.87.266c.198-.581.761-1.079 1.74-1.079.928 0 1.437.476 1.437 1.31v.034c0 .575-.603.603-2.102.764-1.647.177-3.222.668-3.222 2.582 0 1.67 1.222 2.555 2.842 2.555 1.332 0 2.127-.625 2.492-1.338h.068v1.166h1.922v-5.684c0-2.245-1.83-2.92-3.45-2.92zm18.205 0c-2.487 0-4.069 1.758-4.069 4.39 0 2.628 1.582 4.38 4.069 4.38s4.068-1.752 4.068-4.38c0-2.632-1.58-4.39-4.068-4.39zm-63.957 1.559c1.15 0 1.924.84 1.935 1.996h-3.99c.06-1.084.861-1.996 2.055-1.996zm18.783 0c1.15 0 1.923.84 1.934 1.996h-3.99c.06-1.084.862-1.996 2.056-1.996zm45.186.027c1.354 0 2.027 1.245 2.027 2.799 0 1.554-.673 2.781-2.027 2.781-1.377 0-2.051-1.227-2.051-2.781s.674-2.799 2.05-2.799zm-54.625.055c1.332 0 2.017 1.135 2.017 2.717 0 1.592-.697 2.753-2.017 2.753-1.277 0-1.997-1.105-1.997-2.753 0-1.648.709-2.717 1.997-2.717zm27.41 0c1.287 0 1.994 1.069 1.994 2.717 0 1.648-.717 2.753-1.994 2.753-1.322 0-2.018-1.16-2.018-2.753 0-1.582.686-2.717 2.018-2.717zm17.842 0c1.332 0 2.017 1.135 2.017 2.717 0 1.592-.697 2.753-2.017 2.753-1.277 0-1.997-1.105-1.997-2.753 0-1.648.708-2.717 1.997-2.717zm-94.086.984a.459.459 0 0 0-.327.135l-1.582 1.582-.629-.627a.46.46 0 0 0-.652 0l-.492.492a.463.463 0 0 0 0 .654l1.445 1.446c.18.18.474.18.655 0l2.402-2.4a.463.463 0 0 0 0-.655l-.494-.492a.459.459 0 0 0-.326-.135zm7.638 0a.463.463 0 0 0-.328.135l-1.582 1.582-.629-.627a.46.46 0 0 0-.652 0l-.492.492a.463.463 0 0 0 0 .654l1.447 1.446c.18.18.472.18.652 0l2.403-2.4a.463.463 0 0 0 0-.655l-.493-.492a.459.459 0 0 0-.326-.135zm79.059 1.932v1c0 .945-.764 1.748-1.969 1.748-.835 0-1.432-.382-1.432-1.117 0-.769.67-1.09 1.565-1.217.525-.072 1.576-.204 1.836-.414z"/></svg>
