<svg xmlns="http://www.w3.org/2000/svg" viewBox="0 0 128 128"><path d="M64.003 0c-1.952 0-3.903.562-5.605 1.678L8.622 34.309a10.228 10.228 0 0 0-4.624 8.552v42.281c0 3.448 1.74 6.662 4.624 8.552l49.776 32.632a10.223 10.223 0 0 0 11.211 0l49.776-32.632a10.222 10.222 0 0 0 4.617-8.552v-42.28c0-3.448-1.734-6.663-4.617-8.553L69.61 1.678A10.217 10.217 0 0 0 64.003 0Zm-2.666 28.001h9.33c.736 0 1.336.6 1.336 1.337V44h20.002A4 4 0 0 1 96 48.003v15.999h2.666c.737 0 1.337.6 1.337 1.336v13.333c0 .736-.6 1.33-1.337 1.33h-2.666v8.006a3.994 3.994 0 0 1-3.996 3.996H36.002A4 4 0 0 1 32 88.007V80h-2.666c-.737 0-1.33-.594-1.33-1.33V65.338c0-.736.593-1.336 1.33-1.336h2.666V48.003A4.005 4.005 0 0 1 36.002 44H68v-3.996h-6.663c-.736 0-1.337-.6-1.337-1.337v-9.33c0-.736.6-1.336 1.337-1.336zm-5.34 34.671c-.413 0-.824.155-1.139.47l-5.524 5.524-2.195-2.189a1.609 1.609 0 0 0-2.278 0l-1.719 1.719c-.63.63-.63 1.654 0 2.284l5.047 5.047c.63.63 1.654.63 2.284 0l8.388-8.381c.63-.63.63-1.655 0-2.285l-1.725-1.718a1.602 1.602 0 0 0-1.139-.471zm26.672 0c-.413 0-.831.155-1.146.47l-5.524 5.524-2.196-2.189a1.609 1.609 0 0 0-2.278 0l-1.718 1.719c-.63.63-.63 1.654 0 2.284l5.053 5.047c.63.63 1.648.63 2.278 0l8.388-8.381c.63-.63.63-1.655 0-2.285l-1.719-1.718a1.602 1.602 0 0 0-1.138-.471z"/></svg>
