<svg xmlns="http://www.w3.org/2000/svg" viewBox="0 0 128 128"><g><g><linearGradient id="SVGID_1_KOTLIN" gradientUnits="userSpaceOnUse" x1="-4.0457" y1="59.1255" x2="13.6935" y2="39.7489"><stop offset="0" style="stop-color:#1C93C1"/><stop offset="0.1625" style="stop-color:#2391C0"/><stop offset="0.4043" style="stop-color:#378BBE"/><stop offset="0.6955" style="stop-color:#587EB9"/><stop offset="0.9952" style="stop-color:#7F6CB1"/></linearGradient><path fill="url(#SVGID_1_KOTLIN)" d="M 0,42.6 22.2,42.6 0,64.5   z"/><linearGradient id="SVGID_2_KOTLIN" gradientUnits="userSpaceOnUse" x1="1.0845" y1="74.4602" x2="30.9575" y2="43.2847"><stop offset="0" style="stop-color:#C757A7"/><stop offset="4.551384e-02" style="stop-color:#CA5A9E"/><stop offset="0.2413" style="stop-color:#D66779"/><stop offset="0.428" style="stop-color:#E17357"/><stop offset="0.6004" style="stop-color:#E97C3A"/><stop offset="0.7556" style="stop-color:#EF8324"/><stop offset="0.8879" style="stop-color:#F28817"/><stop offset="0.9819" style="stop-color:#F48912"/></linearGradient><path fill="url(#SVGID_2_KOTLIN)" d="M 0,85.4 42.8,42.6 21.6,42.6 0,63.9   z"/><linearGradient id="SVGID_3_KOTLIN" gradientUnits="userSpaceOnUse" x1="14.3795" y1="92.4959" x2="31.4869" y2="74.7805"><stop offset="0" style="stop-color:#1C93C1"/><stop offset="0.2156" style="stop-color:#2D8EBF"/><stop offset="0.6399" style="stop-color:#587EB9"/><stop offset="0.9952" style="stop-color:#7F6CB1"/></linearGradient><path fill="url(#SVGID_3_KOTLIN)" d="M 42.4,85.4 21.2,64.2 0,85.4   z"/></g><g><path d="M 50,75.6 50,52.8 55.1,52.8 55.1,62.6 64.4,52.8 70.2,52.8 60.9,62.6 70.2,75.6 64.4,75.6 57.6,66.1 55.1,68.6     55.1,75.6   z"/><path d="M77.5,58.2c-5.1,0-9.2,3.9-9.2,8.7c0,4.8,4.1,8.7,9.2,8.7c5.1,0,9.2-3.9,9.2-8.7C86.7,62.1,82.6,58.2,77.5,58.2z     M77.5,71.8c-2.7,0-4.9-2.2-4.9-4.9c0-2.7,2.2-4.9,4.9-4.9s4.9,2.2,4.9,4.9C82.4,69.6,80.2,71.8,77.5,71.8z"/><path d="M87.9,53.8H93v4.5h4v4.2h-4v8.2c0,0,1.5,2.1,4,0v4.5c0,0-4,2-7.5,0c0,0-1.6-1.6-1.6-3.5c0-1.8,0-9.2,0-9.2h-2v-4.4l2,0.1    V53.8z"/><rect x="98.5" y="51.9" width="4.9" height="23.7"/><rect x="105.2" y="51.9" width="5" height="4.2"/><rect x="105.2" y="58.3" width="5" height="17.3"/><path d="M111.9,58.3h5.1V61c0,0,4.7-7.2,10.4,0l0.5,1.5v13.1h-5V65c0,0-2.8-5.3-5.9,0v10.6h-5.1V58.3z"/></g></g></svg>