<svg version="1.1" xmlns="http://www.w3.org/2000/svg" xmlns:xlink="http://www.w3.org/1999/xlink"
	 viewBox="0 0 128 128"  xml:space="preserve">

	<path fill="#DD80BC" d="M126.2,0.7c-36.2,0-72.3,0-108.5,0c-5.2,0-10.5,0-15.6,0C1.7,0.7,1,0.9,1,1v126h126V1
		C127,0.9,126.6,0.7,126.2,0.7z M113.5,114.7c-32.6,0-65.3,0-97.9,0c-1.6,0-1.6,0-1.6-1.6V15.2c0-1.6,0-1.2,1.6-1.2h97.8
		c1.6,0,1.6-0.4,1.6,1.3v48.8c0,16.3,0,32.6,0,49C115,114.3,114.7,114.7,113.5,114.7z M76.7,87.9c5.6,1.6,11.2,0.8,16.8,0.1
		c1.2-0.1,1.4-0.8,1.4-2c0-15.1,0-30.2,0-45.4v-0.8h-7.5v17.8c-4.2-0.4-8-0.3-11.7,1.3c-6,2.5-9,8.1-8.7,16.1
		C67.2,81.5,70.7,86.2,76.7,87.9z M77.9,66c2.8-1.6,5.7-1.5,8.6-1.1c0.2,0,0.6,0.5,0.6,0.8c0,5.3,0,10.7,0,16.1
		c-2.7,0.5-5.3,0.7-7.8,0c-3.2-0.9-5-3.3-5.4-6.9C73.6,71,75.1,67.6,77.9,66z M44,88.1l8.1-17.5l7.8,17.5h8.9L57.1,63.3l11.8-23.6
		h-8.7l-8.4,16.4L45,39.8l-9.2-0.1l10.8,24.9L35,88.1H44z"/>
</svg>
