<svg xmlns="http://www.w3.org/2000/svg" viewBox="0 0 128 128"><path fill="#DD80BC" d="M127 3.3c0-2.1 0-2.3-2-2.3H3.5C1.5 1 1 1.2 1 3.2v121.5c0 2 .3 2 2.2 2H125c1.6 0 2-.4 2-2-.1-20.2 0-40.5 0-60.7V3.3zM58.7 94L49 72.2 38.8 94H27.6l14.5-29.3-13.5-31 11.5.1 8.5 20.3L59 33.7h10.8L55.2 63.1 69.7 94h-11zm43.6-59.2v56.6c0 1.5-.2 2.4-1.7 2.5-7 .9-14 1.9-20.9-.1-7.5-2.1-11.8-8-12.1-16.1-.4-10 3.4-16.9 10.8-20.1 4.6-2 9.3-2.1 14.6-1.6V33.8h9.3v1zM82.8 86.2c3.3.9 6.6.6 10 0v-20c0-.3-.4-.9-.7-1-3.7-.6-7.5-.6-11 1.3-3.6 2-5.5 6.2-5.1 11.1.3 4.5 2.7 7.4 6.8 8.6z"/></svg>