<svg xmlns="http://www.w3.org/2000/svg" viewBox="0 0 128 128"><path fill="#001e36" d="M22.666 1.6C10.133 1.6 0 11.734 0 24.268v79.464C0 116.266 10.133 126.4 22.666 126.4h82.668c12.533 0 22.666-10.134 22.666-22.668V24.268C128 11.734 117.867 1.6 105.334 1.6H22.666zm23.201 31.734c4.373 0 8 .532 10.986 1.652A19.05 19.05 0 0 1 64 39.361a16.976 16.976 0 0 1 3.894 6.079c.8 2.24 1.225 4.533 1.225 6.933 0 4.587-1.066 8.373-3.2 11.36-2.132 2.986-5.118 5.227-8.585 6.507-3.627 1.334-7.627 1.813-12 1.813-1.28 0-2.135 0-2.668-.053-.533-.053-1.28-.053-2.293-.053v17.12c.053.373-.213.694-.586.747H29.44c-.426 0-.638-.215-.638-.695V34.24c0-.373.16-.588.533-.588.907 0 1.76 0 2.986-.052 1.28-.054 2.613-.052 4.053-.106 1.44-.053 2.987-.054 4.64-.107 1.654-.054 3.254-.053 4.854-.053zm1.19 10.504a18.68 18.68 0 0 0-.817.002c-1.386 0-2.613.001-3.627.055-1.066-.054-1.812-.001-2.185.052v17.92c.746.054 1.438.106 2.078.106h2.828c2.08 0 4.16-.32 6.133-.96 1.707-.48 3.2-1.494 4.373-2.827 1.12-1.334 1.654-3.146 1.654-5.493a8.776 8.776 0 0 0-1.226-4.746c-.907-1.386-2.188-2.454-3.735-3.04-1.727-.7-3.576-1.033-5.476-1.07zm44.73 2.723c2.187 0 4.427.158 6.613.478 1.6.213 3.146.642 4.586 1.229.214.053.427.265.533.478.054.213.108.427.108.64v8.694a.655.655 0 0 1-.266.533c-.48.107-.747.107-.96 0-1.6-.853-3.308-1.439-5.122-1.812-1.973-.427-3.946-.695-5.972-.695-1.067-.054-2.188.108-3.201.374-.694.16-1.28.534-1.653 1.067-.266.427-.426.96-.426 1.44s.214.96.534 1.386c.48.587 1.119 1.068 1.812 1.442a48.8 48.8 0 0 0 3.787 1.757c2.88.96 5.653 2.295 8.213 3.895 1.76 1.12 3.2 2.614 4.213 4.427a11.509 11.509 0 0 1 1.228 5.493 12.412 12.412 0 0 1-2.082 7.093 13.362 13.362 0 0 1-5.972 4.746c-2.614 1.12-5.814 1.707-9.654 1.707-2.454 0-4.852-.213-7.252-.693a21.51 21.51 0 0 1-5.44-1.707c-.373-.213-.641-.587-.588-1.014V78.24c0-.16.053-.374.213-.48.16-.107.32-.052.48.054a22.83 22.83 0 0 0 6.614 2.614c2.027.533 4.161.799 6.295.799 2.026 0 3.466-.267 4.426-.747.853-.373 1.439-1.28 1.439-2.24 0-.746-.426-1.441-1.28-2.135-.853-.693-2.613-1.492-5.226-2.505a32.638 32.638 0 0 1-7.574-3.84 13.81 13.81 0 0 1-4.053-4.533 11.44 11.44 0 0 1-1.226-5.44c0-2.293.639-4.48 1.812-6.453 1.333-2.133 3.308-3.84 5.602-4.906 2.506-1.28 5.652-1.867 9.44-1.867z"/></svg>
