<svg xmlns="http://www.w3.org/2000/svg" viewBox="0 0 128 128"><path fill-rule="evenodd" clip-rule="evenodd" fill="#80B5E2" d="M50.246 41.616c-3.682-.925-7.369-.628-11.26-.022 0 6.805-.014 13.427.037 20.05.002.339.511.929.841.974 4.243.573 8.463.619 12.431-1.315 4.105-2 6.196-6.182 5.654-11.092-.492-4.471-3.139-7.448-7.703-8.595zM127 63.963v-60.678c0-2.096.023-2.285-2.012-2.285h-121.509c-1.979 0-2.479.19-2.479 2.186v121.509c0 2.018.252 2.021 2.209 2.021 40.555.001 81.231-.009 121.786.037 1.573.002 1.995-.417 1.991-1.959-.054-20.277.014-40.556.014-60.831zm-70.648 5.84c-5.557 1.982-11.352 2.093-17.352 1.628v22.569h-11v-1.402c0-18.895-.087-37.788-.14-56.682-.006-1.569.243-2.327 2.011-2.507 8.332-.852 16.617-1.81 24.902.133 8.906 2.087 14.041 7.975 14.431 16.11.483 10.074-3.944 16.974-12.852 20.151zm44.31 12.754c-.424 5.771-3.678 9.56-9.015 11.392-7.142 2.452-14.245 1.883-21.225-.891-1.143-.455-1.364-1.031-.987-2.196.687-2.126 1.19-4.312 1.72-6.286 2.951.866 5.757 1.947 8.664 2.458 2.053.361 4.272.149 6.359-.178 1.871-.294 3.217-1.564 3.524-3.572.312-2.041-.303-3.809-2.105-4.895-1.432-.862-3.01-1.479-4.523-2.202-2.433-1.163-5.026-2.075-7.27-3.53-8.831-5.727-5.956-16.383-.063-20.396 3.153-2.146 6.642-3.098 10.377-3.229 4.393-.154 8.623.604 12.778 2.623l-2.195 7.789c-1.74-.616-3.36-1.416-5.07-1.734-2.029-.378-4.157-.589-6.205-.422-2.746.225-4.354 2.12-4.354 4.47 0 1.392.528 2.57 1.689 3.245 1.666.969 3.434 1.768 5.186 2.579 1.896.877 3.898 1.551 5.723 2.552 4.87 2.67 7.405 6.8 6.992 12.423z"/></svg>