<svg id="CouchDB" xmlns="http://www.w3.org/2000/svg" viewBox="0 0 128 128"><defs><style>.cls-1{fill:#444;}.cls-2{fill:#e42528;}</style></defs><title>Artboard 13</title><g id="original-wordmark"><path id="Shape" class="cls-1" d="M57.9,63.22c-3.19,0-4.71,2.2-4.71,5.56s1.52,5.55,4.71,5.55,4.64-2.26,4.64-5.55S61.08,63.22,57.9,63.22Zm0,9.63c-2.1,0-2.74-1.68-2.74-4.07,0-2.59.7-4.07,2.74-4.07s2.73,1.48,2.73,4.07C60.63,71.17,59.92,72.85,57.9,72.85Z"/><path id="Shape-2" data-name="Shape" class="cls-1" d="M73.92,63.35H72v8.53c-.25.19-.51.32-.82.51a4.8,4.8,0,0,1-2.1.52c-1.53,0-2-1-2-3.36V63.42H65.21v6.2c0,3.29,1.09,4.78,3.44,4.78a5,5,0,0,0,2.67-.71,4.06,4.06,0,0,0,1-.71l.25,1.35,1.4-.13V63.35Z"/><path id="Shape-3" data-name="Shape" class="cls-1" d="M76.6,68.84c0,4.07,2.29,5.49,4.51,5.49a9.53,9.53,0,0,0,2.17-.26,8,8,0,0,0,.82-.26l.2-1.48c-.26.06-.58.19-.9.26a8.58,8.58,0,0,1-2,.26c-1.85,0-2.87-1.23-2.87-4s1-4.13,2.87-4.13a8.58,8.58,0,0,1,2,.26c.32.06.58.19.9.26l-.13-1.43a3,3,0,0,0-.83-.25,8.94,8.94,0,0,0-2.16-.26C78.9,63.22,76.6,64.51,76.6,68.84Z"/><path id="Shape-4" data-name="Shape" class="cls-1" d="M86.78,74.33H88.7V66a7.93,7.93,0,0,1,3-1.1c1.27,0,1.91.71,1.91,3.55v5.88h1.91v-6c0-3.49-1-4.85-3.31-4.85a5.18,5.18,0,0,0-3.56,1.23V59.28l-1.91.2V74.33Z"/><path id="Shape-5" data-name="Shape" class="cls-1" d="M108,60.51a7.33,7.33,0,0,0-4.71-1.23H99v15h4.7c5.16,0,6.37-3.1,6.37-7.82C110.08,63.22,109.24,61.54,108,60.51Zm-4.9,12.34H101v-12h2.8c3.43,0,4.39,1.88,4.39,5.75C108.17,71.43,107.09,72.85,103.08,72.85Z"/><path id="Shape-6" data-name="Shape" class="cls-1" d="M121.59,66.71a5.1,5.1,0,0,0-1.66-.52,2.93,2.93,0,0,0,2.61-3c0-2.84-1.4-3.94-5.22-3.94h-4.07V74.27h4.84c3.43,0,5.15-1.36,5.15-4.33A3.5,3.5,0,0,0,121.59,66.71Zm-6.49-5.88h2c2.61,0,3.63.46,3.63,2.33,0,1.61-.83,2.52-3.19,2.52H115.1V60.83Zm2.48,12H115.1V67h2.48c2.61,0,3.82.65,3.82,3S120.13,72.85,117.59,72.85Z"/><path id="Shape-7" data-name="Shape" class="cls-1" d="M46.94,74.33A15.48,15.48,0,0,0,49.88,74,9.12,9.12,0,0,1,51,73.69l.19-1.62-1.14.39a11.54,11.54,0,0,1-2.86.39c-2.74,0-4.08-1.81-4.08-6.27,0-4.65,1.59-6.13,4.27-6.13a14.42,14.42,0,0,1,2.73.32c.45.06.77.26,1.15.32l-.19-1.68c-.32-.13-.7-.19-1.08-.32a16.12,16.12,0,0,0-2.87-.32c-3.5,0-6.11,1.87-6.11,7.68,0,3,.64,5,1.72,6.2A5.29,5.29,0,0,0,46.94,74.33Z"/><path id="Shape-8" data-name="Shape" class="cls-2" d="M30,67.42a1.82,1.82,0,0,1-2,2H12.52a1.76,1.76,0,0,1-2-2,1.82,1.82,0,0,1,2-2H28.11A1.77,1.77,0,0,1,30,67.42Zm-1.91,3H12.52a1.77,1.77,0,0,0-2,2,1.82,1.82,0,0,0,2,2H28.11a1.77,1.77,0,0,0,2-2C30,71,29.39,70.39,28.11,70.39Zm4.84-10.91h0a1.74,1.74,0,0,0-2,1.93V72.33a1.82,1.82,0,0,0,2,2h0c1.91-.06,2.93-2,2.93-5.94V63.48C35.88,60.83,34.86,59.54,32.95,59.48Zm-25.26,0h0c-1.91.06-2.93,1.35-2.93,4v4.91c0,3.94,1,5.88,2.93,5.94h0a1.76,1.76,0,0,0,2-2V61.48A1.85,1.85,0,0,0,7.69,59.48Zm25.26-1c0-3.3-1.72-4.85-4.84-4.91H12.52c-3.18.06-4.83,1.68-4.83,4.91h0a2.63,2.63,0,0,1,2.92,3,2.64,2.64,0,0,0,2.93,3H27.16a2.64,2.64,0,0,0,2.93-3c-.07-2,1-2.91,2.86-3Z"/></g></svg>