<svg xmlns="http://www.w3.org/2000/svg" width="128" height="128" viewBox="0 0 128 128"><defs><clipPath id="a"><path d="M100 66h23v29h-23Zm0 0"/></clipPath><clipPath id="b"><path d="M-402.402 94.559V33.707H583.68v60.852h-986.082Zm0 0"/></clipPath><clipPath id="c"><path d="M90 69h19v26H90Zm0 0"/></clipPath><clipPath id="d"><path d="M-402.402 94.559V33.707H583.68v60.852h-986.082Zm0 0"/></clipPath><clipPath id="e"><path d="M80 33h21v62H80Zm0 0"/></clipPath><clipPath id="f"><path d="M-402.402 94.559V33.707H583.68v60.852h-986.082Zm0 0"/></clipPath><clipPath id="g"><path d="M72 33h18v27H72Zm0 0"/></clipPath><clipPath id="h"><path d="M-402.402 94.559V33.707H583.68v60.852h-986.082Zm0 0"/></clipPath><clipPath id="i"><path d="M62 33h19v62H62Zm0 0"/></clipPath><clipPath id="j"><path d="M-402.402 94.559V33.707H583.68v60.852h-986.082Zm0 0"/></clipPath><clipPath id="k"><path d="M53 65h18v30H53Zm0 0"/></clipPath><clipPath id="l"><path d="M-402.402 94.559V33.707H583.68v60.852h-986.082Zm0 0"/></clipPath><clipPath id="m"><path d="M43 33h20v62H43Zm0 0"/></clipPath><clipPath id="n"><path d="M-402.402 94.559V33.707H583.68v60.852h-986.082Zm0 0"/></clipPath><clipPath id="o"><path d="M34 33h18v27H34Zm0 0"/></clipPath><clipPath id="p"><path d="M-402.402 94.559V33.707H583.68v60.852h-986.082Zm0 0"/></clipPath><clipPath id="q"><path d="M23 33h21v62H23Zm0 0"/></clipPath><clipPath id="r"><path d="M-402.402 94.559V33.707H583.68v60.852h-986.082Zm0 0"/></clipPath><clipPath id="s"><path d="M15 68h19v27H15Zm0 0"/></clipPath><clipPath id="t"><path d="M-402.402 94.559V33.707H583.68v60.852h-986.082Zm0 0"/></clipPath><clipPath id="u"><path d="M2 66h22v29H2Zm0 0"/></clipPath><clipPath id="v"><path d="M-402.402 94.559V33.707H583.68v60.852h-986.082Zm0 0"/></clipPath><clipPath id="w"><path d="M100 66h23v29h-23Zm0 0"/></clipPath><clipPath id="x"><path d="M-402.402 94.45V33.601H583.68v60.848h-986.082Zm0 0"/></clipPath><clipPath id="y"><path d="M90 69h19v26H90Zm0 0"/></clipPath><clipPath id="z"><path d="M-402.402 94.45V33.601H583.68v60.848h-986.082Zm0 0"/></clipPath><clipPath id="A"><path d="M80 33h21v62H80Zm0 0"/></clipPath><clipPath id="B"><path d="M-402.402 94.45V33.601H583.68v60.848h-986.082Zm0 0"/></clipPath><clipPath id="C"><path d="M72 33h18v27H72Zm0 0"/></clipPath><clipPath id="D"><path d="M-402.402 94.45V33.601H583.68v60.848h-986.082Zm0 0"/></clipPath><clipPath id="E"><path d="M62 33h19v62H62Zm0 0"/></clipPath><clipPath id="F"><path d="M-402.402 94.45V33.601H583.68v60.848h-986.082Zm0 0"/></clipPath><clipPath id="G"><path d="M53 65h18v30H53Zm0 0"/></clipPath><clipPath id="H"><path d="M-402.402 94.45V33.601H583.68v60.848h-986.082Zm0 0"/></clipPath><clipPath id="I"><path d="M43 33h20v62H43Zm0 0"/></clipPath><clipPath id="J"><path d="M-402.402 94.45V33.601H583.68v60.848h-986.082Zm0 0"/></clipPath><clipPath id="K"><path d="M34 33h18v27H34Zm0 0"/></clipPath><clipPath id="L"><path d="M-402.402 94.45V33.601H583.68v60.848h-986.082Zm0 0"/></clipPath><clipPath id="M"><path d="M23 33h21v62H23Zm0 0"/></clipPath><clipPath id="N"><path d="M-402.402 94.45V33.601H583.68v60.848h-986.082Zm0 0"/></clipPath><clipPath id="O"><path d="M15 68h19v27H15Zm0 0"/></clipPath><clipPath id="P"><path d="M-402.402 94.45V33.601H583.68v60.848h-986.082Zm0 0"/></clipPath><clipPath id="Q"><path d="M2 66h22v29H2Zm0 0"/></clipPath><clipPath id="R"><path d="M-402.402 94.45V33.601H583.68v60.848h-986.082Zm0 0"/></clipPath></defs><g clip-path="url(#a)"><g clip-path="url(#b)"><path style="stroke:none;fill-rule:nonzero;fill:#eb7077;fill-opacity:1" d="M104.469 66.398h17.613c-6.16 2.051-8.102 6.149-9.184 17.801-.757 8.309-4.539 10.465-4.539 10.465-2.808 0-5.617-11.977-8.101-24.707.972-2.156 2.265-3.234 4.21-3.559Zm0 0"/></g></g><g clip-path="url(#c)"><g clip-path="url(#d)"><path style="stroke:none;fill-rule:nonzero;fill:#eb7077;fill-opacity:1" d="M108.25 94.559H90.64c3.133 0 5.294-5.938 6.59-13.489.864-5.07 1.73-8.738 2.918-11.218 2.485 12.73 5.293 24.707 8.102 24.707Zm0 0"/></g></g><g clip-path="url(#e)"><g clip-path="url(#f)"><path style="stroke:none;fill-rule:nonzero;fill:#f6a2ad;fill-opacity:1" d="M100.148 69.852c-1.296 2.37-2.16 6.148-2.918 11.218-1.296 7.551-3.457 13.489-6.59 13.489-3.35-.758-6.05-13.489-9.617-32.907-.109-.648-.214-1.187-.324-1.836 2.7-14.027 5.512-26.109 8.32-26.109h.973c3.348.754 6.051 13.488 9.617 32.906.215 1.188.325 2.157.54 3.239Zm0 0"/></g></g><g clip-path="url(#g)"><g clip-path="url(#h)"><path style="stroke:none;fill-rule:nonzero;fill:#eb7077;fill-opacity:1" d="M72.379 33.816h16.64c-2.808 0-5.726 12.082-8.32 26.11-2.484-13.164-5.402-26.11-8.32-26.11Zm0 0"/></g></g><g clip-path="url(#i)"><g clip-path="url(#j)"><path style="stroke:none;fill-rule:nonzero;fill:#eb7077;fill-opacity:1" d="M80.7 59.926c-.216 1.402-.54 2.804-.759 4.312-3.996 21.797-6.375 29.778-9.183 30.426-3.133 0-6.16-14.133-8.645-27.941 0-.22-.11-.434-.11-.649.11-.648.22-1.187.325-1.836 4-21.898 6.375-29.777 9.078-30.422h.973c2.918 0 5.836 12.946 8.32 26.11Zm0 0"/></g></g><g clip-path="url(#k)"><g clip-path="url(#l)"><path style="stroke:none;fill-rule:nonzero;fill:#eb7077;fill-opacity:1" d="M70.758 94.559H53.145c3.027 0 6.05-13.489 8.753-28.594 0 .219.106.433.106.648 2.594 13.918 5.73 27.946 8.754 27.946Zm0 0"/></g></g><g clip-path="url(#m)"><g clip-path="url(#n)"><path style="stroke:none;fill-rule:nonzero;fill:#f6a2ad;fill-opacity:1" d="M62.004 66.074c-2.809 15.106-5.832 28.59-8.75 28.59-3.457-.863-6.05-13.594-9.727-32.906-.105-.649-.215-1.188-.324-1.832 2.703-14.028 5.512-26.11 8.32-26.11h.973c3.352.754 5.945 13.27 9.508 32.258Zm0 0"/></g></g><g clip-path="url(#o)"><g clip-path="url(#p)"><path style="stroke:none;fill-rule:nonzero;fill:#eb7077;fill-opacity:1" d="M34.887 33.816h16.636c-2.808 0-5.617 12.082-8.32 26.11-2.484-13.164-5.402-26.11-8.316-26.11Zm0 0"/></g></g><g clip-path="url(#q)"><g clip-path="url(#r)"><path style="stroke:none;fill-rule:nonzero;fill:#eb7077;fill-opacity:1" d="M43.203 59.926c-.215 1.402-.539 2.804-.754 4.312-4 21.797-6.375 29.778-9.183 30.426-3.137 0-1.946-.539-3.891-9.277-1.945-8.739-3.457-13.918-5.512-16.617.325-1.508.54-3.02.864-4.532 4.105-21.898 6.484-29.777 9.187-30.422h.973c2.914 0 5.832 12.946 8.316 26.11Zm0 0"/></g></g><g clip-path="url(#s)"><g clip-path="url(#t)"><path style="stroke:none;fill-rule:nonzero;fill:#eb7077;fill-opacity:1" d="M33.266 94.559H15.652c2.809 0 5.618-11.977 8.32-25.895 1.946 2.695 3.458 7.875 5.508 16.613 1.946 8.739.649 9.282 3.786 9.282Zm0 0"/></g></g><g clip-path="url(#u)"><g clip-path="url(#v)"><path style="stroke:none;fill-rule:nonzero;fill:#f6a2ad;fill-opacity:1" d="M23.973 68.664C21.27 82.582 18.46 94.56 15.653 94.56c-.325-.434-2.27 0-4.106-10.79-1.621-9.925-4.54-16.183-9.293-17.37h17.613c1.727.105 2.914.753 4.106 2.265Zm0 0"/></g></g><g clip-path="url(#w)"><g clip-path="url(#x)"><path style="stroke:none;fill-rule:nonzero;fill:#eb7077;fill-opacity:1" d="M104.469 66.29h17.613c-6.16 2.05-8.102 6.151-9.184 17.8-.757 8.308-4.539 10.469-4.539 10.469-2.808 0-5.617-11.977-8.101-24.707.972-2.16 2.265-3.239 4.21-3.563Zm0 0"/></g></g><g clip-path="url(#y)"><g clip-path="url(#z)"><path style="stroke:none;fill-rule:nonzero;fill:#eb7077;fill-opacity:1" d="M108.25 94.45H90.64c3.133 0 5.294-5.934 6.59-13.485.864-5.074 1.73-8.742 2.918-11.223 2.485 12.73 5.293 24.707 8.102 24.707Zm0 0"/></g></g><g clip-path="url(#A)"><g clip-path="url(#B)"><path style="stroke:none;fill-rule:nonzero;fill:#f6a2ad;fill-opacity:1" d="M100.148 69.742c-1.296 2.375-2.16 6.149-2.918 11.223-1.296 7.55-3.457 13.484-6.59 13.484-3.35-.754-6.05-13.484-9.617-32.906-.109-.648-.214-1.188-.324-1.836 2.7-13.918 5.512-26 8.32-26h.973c3.348.754 6.051 13.488 9.617 32.906.215.973.325 2.051.54 3.13Zm0 0"/></g></g><g clip-path="url(#C)"><g clip-path="url(#D)"><path style="stroke:none;fill-rule:nonzero;fill:#eb7077;fill-opacity:1" d="M72.379 33.707h16.64c-2.808 0-5.726 12.082-8.32 26.11-2.484-13.165-5.402-26.11-8.32-26.11Zm0 0"/></g></g><g clip-path="url(#E)"><g clip-path="url(#F)"><path style="stroke:none;fill-rule:nonzero;fill:#eb7077;fill-opacity:1" d="M80.7 59.816c-.216 1.403-.54 2.805-.759 4.317-3.996 21.793-6.375 29.777-9.183 30.426-3.133 0-6.16-14.137-8.645-27.946 0-.215-.11-.43-.11-.648.11-.645.22-1.184.325-1.832 4-21.903 6.375-29.778 9.078-30.426h.973c2.918 0 5.836 12.945 8.32 26.11Zm0 0"/></g></g><g clip-path="url(#G)"><g clip-path="url(#H)"><path style="stroke:none;fill-rule:nonzero;fill:#eb7077;fill-opacity:1" d="M70.758 94.45H53.145c3.027 0 6.05-13.485 8.753-28.59 0 .214.106.43.106.644 2.594 13.918 5.73 27.945 8.754 27.945Zm0 0"/></g></g><g clip-path="url(#I)"><g clip-path="url(#J)"><path style="stroke:none;fill-rule:nonzero;fill:#f6a2ad;fill-opacity:1" d="M62.004 65.965c-2.809 15.105-5.832 28.594-8.75 28.594-3.352-.758-6.05-13.489-9.617-32.907-.11-.648-.215-1.187-.325-1.836 2.594-14.027 5.403-26.109 8.211-26.109h.973c3.352.754 5.945 13.164 9.508 32.258Zm0 0"/></g></g><g clip-path="url(#K)"><g clip-path="url(#L)"><path style="stroke:none;fill-rule:nonzero;fill:#eb7077;fill-opacity:1" d="M34.887 33.707h16.636c-2.808 0-5.617 12.082-8.32 26.11-2.484-13.165-5.402-26.11-8.316-26.11Zm0 0"/></g></g><g clip-path="url(#M)"><g clip-path="url(#N)"><path style="stroke:none;fill-rule:nonzero;fill:#eb7077;fill-opacity:1" d="M43.203 59.816c-.215 1.403-.539 2.805-.754 4.317-4 21.793-6.375 29.777-9.183 30.426-3.137 0-1.946-.543-3.891-9.282-1.945-8.738-3.457-13.918-5.512-16.613.325-1.512.54-3.023.864-4.531 4.105-21.903 6.484-29.778 9.187-30.426h.973c2.914 0 5.832 12.945 8.316 26.11Zm0 0"/></g></g><g clip-path="url(#O)"><g clip-path="url(#P)"><path style="stroke:none;fill-rule:nonzero;fill:#eb7077;fill-opacity:1" d="M33.266 94.45H15.652c2.809 0 5.618-11.977 8.32-25.895 1.946 2.699 3.458 7.875 5.508 16.617 1.946 8.738.649 9.277 3.786 9.277Zm0 0"/></g></g><g clip-path="url(#Q)"><g clip-path="url(#R)"><path style="stroke:none;fill-rule:nonzero;fill:#f6a2ad;fill-opacity:1" d="M23.973 68.555c-2.703 13.918-5.512 25.894-8.32 25.894-.325-.433-2.27 0-4.106-10.789-1.621-9.926-4.54-16.183-9.293-17.37h17.613c1.727 0 2.914.757 4.106 2.265Zm0 0"/></g></g></svg>
