<?xml version="1.0" encoding="UTF-8" standalone="no"?>
<svg
   width="128"
   height="128"
   viewBox="0 0 128 128"
   version="1.1"
   id="svg24"
   sodipodi:docname="materializecss-original.svg"
   inkscape:version="1.2.1 (9c6d41e410, 2022-07-14)"
   xmlns:inkscape="http://www.inkscape.org/namespaces/inkscape"
   xmlns:sodipodi="http://sodipodi.sourceforge.net/DTD/sodipodi-0.dtd"
   xmlns="http://www.w3.org/2000/svg"
   xmlns:svg="http://www.w3.org/2000/svg">
  <defs
     id="defs28" />
  <sodipodi:namedview
     id="namedview26"
     pagecolor="#ffffff"
     bordercolor="#000000"
     borderopacity="0.25"
     inkscape:showpageshadow="2"
     inkscape:pageopacity="0.0"
     inkscape:pagecheckerboard="0"
     inkscape:deskcolor="#d1d1d1"
     showgrid="false"
     inkscape:zoom="3.671875"
     inkscape:cx="64"
     inkscape:cy="64"
     inkscape:window-width="1366"
     inkscape:window-height="699"
     inkscape:window-x="0"
     inkscape:window-y="0"
     inkscape:window-maximized="1"
     inkscape:current-layer="svg24" />
  <path
     style="fill:#eb7077;fill-opacity:1;fill-rule:nonzero;stroke:none;stroke-width:1.36853"
     d="m 31.870979,33.441364 c 0.459827,-0.769114 1.053769,-1.539598 1.929629,-1.924155 0.347607,-0.07527 0.700688,-0.03696 1.053769,-0.03696 h 17.480254 c -0.529623,0.421508 -1.015451,0.87586 -1.331582,1.469803 -0.914178,1.475277 -1.506754,3.121621 -2.067851,4.731014 -1.577917,4.940399 -2.663162,10.01765 -3.748407,15.101745 -0.492672,2.310082 -0.945657,4.624267 -1.368532,6.901504 -1.330212,7.532398 -2.69464,15.026477 -4.414883,22.490447 -0.801959,3.430909 -1.646344,6.870029 -2.902655,10.194192 -0.599417,1.368531 -1.160514,2.838333 -2.277237,3.853783 -0.246336,0.246338 -0.529622,0.524148 -0.914179,0.492673 H 17.896903 c -1.053769,-0.03831 -2.069219,0.06843 -3.121621,-0.03831 0.699319,-0.524147 1.298737,-1.190622 1.714771,-1.961106 1.160514,-2.208809 1.892679,-4.587317 2.593367,-6.9713 1.09072,-3.818202 1.92963,-7.708937 2.768539,-11.56409 0.524147,-2.555048 1.122196,-5.077252 1.471172,-7.632301 0.421507,-2.839702 1.053769,-5.678036 1.545072,-8.516371 0.80196,-4.169915 1.646343,-8.371308 2.591999,-12.504272 0.770483,-3.222893 1.539597,-6.484102 2.555048,-9.638568 0.492671,-1.50128 1.053768,-3.046352 1.855729,-4.447729 z m 0,0"
     id="path2" />
  <path
     style="fill:#eb7077;fill-opacity:1;fill-rule:nonzero;stroke:none;stroke-width:1.36853"
     d="m 31.870979,33.441364 c 0.49267,-0.769114 1.090719,-1.539598 1.929629,-1.892678 v -0.03148 0.03148 c 0.17654,-0.03148 0.347607,-0.03148 0.524148,-0.03148 h 18.009875 v -0.07527 c -0.529623,0.422875 -1.015451,0.87586 -1.331582,1.475277 h 0.03284 -0.03284 c -0.914178,1.471172 -1.506754,3.117514 -2.067851,4.726908 -1.577917,4.944503 -2.663162,10.023124 -3.748407,15.101744 a 270.99661,270.99661 0 0 0 -1.368532,6.901506 c -1.330212,7.532397 -2.69464,15.031949 -4.414883,22.494552 -0.801959,3.432276 -1.646344,6.864553 -2.902655,10.195559 h 0.03148 -0.03148 c -0.599417,1.361689 -1.160514,2.832861 -2.277237,3.853785 -0.246336,0.208016 -0.492671,0.485828 -0.807433,0.485828 H 17.92838 v 0.03831 -0.03831 h -1.892679 c -0.416034,0 -0.83891,0 -1.223467,-0.06843 v 0.06843 c 0.700688,-0.524147 1.33158,-1.190621 1.716138,-1.961106 1.15504,-2.208808 1.892678,-4.587317 2.591998,-6.971299 1.085246,-3.818202 1.962475,-7.708937 2.769909,-11.564091 0.524147,-2.555048 1.116722,-5.077252 1.469802,-7.632301 0.422875,-2.839702 1.053769,-5.678036 1.539598,-8.51637 0.807433,-4.169916 1.646343,-8.371308 2.593366,-12.504273 0.769116,-3.222892 1.543705,-6.484103 2.559155,-9.638567 0.487198,-1.50128 1.048295,-3.009401 1.818779,-4.447729 -0.840279,1.401377 -1.363058,2.90813 -1.888574,4.447729 -1.052401,3.154464 -1.821515,6.377357 -2.559155,9.638567 -0.947023,4.132965 -1.785933,8.334357 -2.593367,12.504273 -0.524146,2.838334 -1.15504,5.676668 -1.539597,8.51637 -0.384558,2.555049 -0.983974,5.077253 -1.469803,7.63367 -0.807433,3.890735 -1.683294,7.745889 -2.76854,11.562722 -0.700688,2.383982 -1.438325,4.762491 -2.593367,6.971299 -0.384557,0.769116 -1.01545,1.400009 -1.716137,1.961106 l -0.03696,0.03831 h 0.06843 c 0.424246,0.03148 0.845753,0.06843 1.23031,0.06843 H 33.3093 v -0.03696 0.03696 h 0.06843 c 0.353083,0 0.599418,-0.277813 0.844385,-0.491304 1.118091,-1.01545 1.716139,-2.485254 2.278605,-3.853785 1.256312,-3.32553 2.100697,-6.763283 2.901287,-10.195559 1.721612,-7.462603 3.086039,-14.95805 4.416252,-22.489078 0.422875,-2.315556 0.914179,-4.625637 1.368532,-6.901505 1.048293,-5.084096 2.17049,-10.162715 3.748407,-15.101745 h -0.03285 0.03148 c 0.561097,-1.646344 1.155042,-3.257105 2.06922,-4.731013 0.347607,-0.593943 0.840278,-1.01682 1.331582,-1.471172 l 0.03148,-0.03148 H 34.324756 c -0.17791,0 -0.347608,0 -0.524148,0.03148 -0.87586,0.353081 -1.469802,1.122195 -1.929629,1.892678 z m 0,0"
     id="path4" />
  <path
     style="fill:#f6a2ad;fill-opacity:1;fill-rule:nonzero;stroke:none;stroke-width:1.36853"
     d="m 52.334631,31.517209 h 1.33158 c 0.977132,0.524147 1.822884,1.363057 2.277236,2.378508 0.629525,1.160515 1.122197,2.416828 1.57655,3.678613 1.539597,4.767964 2.591998,9.670044 3.640293,14.577597 0.914179,4.379301 1.753089,8.794184 2.560522,13.20496 0.06979,0.246336 0,0.561099 0.277812,0.629524 -1.122195,5.81626 -2.207441,11.632518 -3.607448,17.380352 -0.770483,3.116146 -1.539599,6.199447 -2.700114,9.17874 -0.625418,1.506753 -1.256311,3.116146 -2.555047,4.201392 -0.840279,0.176541 -1.438327,-0.454352 -1.925525,-1.015451 -0.875859,-1.11809 -1.436958,-2.449671 -1.929629,-3.779884 -1.75172,-4.767963 -2.801384,-9.708362 -3.88663,-14.647393 C 46.586798,73.450384 45.850528,69.59523 45.081412,65.740076 44.732438,63.778972 44.27398,61.853447 44.03175,59.892342 A 0.98534269,0.98534269 0 0 0 43.818259,59.75412 c 0.422875,-2.315556 0.914179,-4.625636 1.368532,-6.901504 1.048294,-5.084096 2.17049,-10.162716 3.748407,-15.101746 0.561097,-1.646343 1.153673,-3.257105 2.067851,-4.731013 0.314762,-0.630893 0.801959,-1.085246 1.331582,-1.502648 z m 0,0"
     id="path6" />
  <path
     style="fill:#f6a2ad;fill-opacity:1;fill-rule:nonzero;stroke:none;stroke-width:1.36853"
     d="m 52.334631,31.517209 c 0.314762,0.03148 0.592574,0 0.908705,0 h 0.454352 v -0.03696 0.03696 c 0.983974,0.524147 1.822884,1.363057 2.277236,2.378508 0.630893,1.160515 1.122195,2.416828 1.576549,3.678613 h 0.03831 -0.03831 c 1.546439,4.767964 2.593366,9.670044 3.645767,14.577597 0.908705,4.379301 1.754458,8.794184 2.556417,13.20496 0.03696,0.10675 0.03696,0.246336 0.06843,0.383189 0.03831,0.10811 0.108108,0.246335 0.246335,0.246335 v -0.03148 h -0.03148 c -1.122196,5.81626 -2.208811,11.632518 -3.608818,17.373508 -0.774589,3.122989 -1.545072,6.202185 -2.700112,9.178741 -0.629525,1.508122 -1.261787,3.122989 -2.555049,4.208235 v 0.03148 -0.03148 c -0.106749,0.03148 -0.213491,0.03148 -0.283286,0.03148 -0.662368,0 -1.19199,-0.524147 -1.646342,-1.048294 h 0.03696 C 52.404432,94.576404 51.880284,93.244823 51.350662,91.914611 49.603047,87.15212 48.549278,82.211723 47.464033,77.271324 46.656599,73.417538 45.918961,69.563753 45.149845,65.708601 h -0.03284 0.03284 c -0.347606,-1.961106 -0.801958,-3.890735 -1.048295,-5.85321 a 1.6572917,1.6572917 0 0 0 -0.21349,-0.13959 v 0.03833 h 0.03696 c 0.422877,-2.315556 0.908705,-4.625636 1.368532,-6.901505 1.048296,-5.084095 2.170491,-10.162715 3.748408,-15.101745 h -0.03832 0.03832 c 0.561098,-1.646344 1.153671,-3.257105 2.062376,-4.731013 0.246337,-0.630893 0.739009,-1.048296 1.230311,-1.502648 -0.529622,0.417402 -1.01545,0.871755 -1.368531,1.469802 h 0.03696 -0.03696 c -0.908705,1.469804 -1.508122,3.117515 -2.063747,4.731014 -1.576547,4.940398 -2.668637,10.017651 -3.752513,15.096271 a 270.75575,270.75575 0 0 0 -1.363057,6.901505 0.82933009,0.82933009 0 0 0 0.208017,0.13959 v -0.03148 h -0.03696 c 0.246335,1.961105 0.737639,3.88663 1.053769,5.847734 0.769115,3.853786 1.469803,7.745889 2.312818,11.564092 1.086614,4.93903 2.13491,9.878061 3.886629,14.640551 0.524148,1.331581 1.05377,2.668637 1.962475,3.785358 0.454353,0.492672 0.983974,1.053769 1.683293,1.053769 0.102636,0 0.209386,0 0.316131,-0.03831 1.331583,-1.085246 1.962475,-2.694638 2.55505,-4.201392 1.155039,-3.014875 1.962474,-6.094071 2.700111,-9.17874 1.400008,-5.747833 2.485254,-11.564091 3.608819,-17.380351 v -0.03148 h -0.03831 c -0.138221,-0.03696 -0.208016,-0.106749 -0.208016,-0.213492 -0.03696,-0.101275 -0.03696,-0.246335 -0.06843,-0.384557 h -0.03831 0.03696 A 542.96488,542.96488 0 0 0 61.161659,52.082133 C 60.111995,47.174578 59.059594,42.272499 57.519997,37.504535 a 34.439096,34.439096 0 0 0 -1.57655,-3.678613 h -0.03831 0.03831 C 55.489095,32.778996 54.643343,31.934611 53.666211,31.410464 H 53.21049 c -0.283285,0.06843 -0.598047,0.06843 -0.875859,0.106749 z m 0,0"
     id="path8" />
  <path
     style="fill:#eb7077;fill-opacity:1;fill-rule:nonzero;stroke:none;stroke-width:1.36853"
     d="m 71.637768,34.179003 c 0.561097,-1.053769 1.224835,-2.244392 2.453776,-2.661794 6.126916,-0.03696 12.257937,0 18.390326,0 -0.561097,0.555624 -1.15504,1.155041 -1.539597,1.85436 -1.19199,2.139015 -1.892679,4.486047 -2.593367,6.833078 -1.822885,6.408833 -3.116147,12.962731 -4.308138,19.549473 a 524.02304,524.02304 0 0 1 -3.715563,19.372932 c -0.700687,3.224259 -1.436957,6.478628 -2.383983,9.670044 -0.593941,1.962474 -1.224834,3.956424 -2.203334,5.816258 -0.491304,0.840279 -1.05377,1.748984 -1.92963,2.170492 -5.847735,0.03831 -11.700945,0 -17.550049,0 -0.314762,0 -0.667842,0 -0.983973,-0.03696 1.300104,-1.048294 1.92963,-2.694638 2.560523,-4.201391 1.15504,-2.977924 1.925523,-6.094071 2.696007,-9.178741 1.400007,-5.747833 2.490727,-11.564092 3.607448,-17.380351 1.331582,-7.494078 2.737063,-14.958049 4.522996,-22.350856 0.732165,-3.222892 1.539599,-6.478628 2.976558,-9.456552 z m 0,0"
     id="path10" />
  <path
     style="fill:#eb7077;fill-opacity:1;fill-rule:nonzero;stroke:none;stroke-width:1.36853"
     d="m 71.637768,34.179003 c 0.561097,-1.053769 1.261785,-2.244392 2.453776,-2.630317 v -0.03148 0.03148 c 3.04772,0 6.126916,-0.03148 9.178741,-0.03148 h 9.178741 v -0.03696 c -0.561098,0.561097 -1.190623,1.153672 -1.576549,1.85436 h 0.03148 -0.03148 c -1.19199,2.139015 -1.892679,4.484678 -2.591998,6.831709 -1.824253,6.415676 -3.122989,12.964098 -4.309505,19.549472 -1.122196,6.485472 -2.347032,12.932624 -3.715564,19.374301 -0.699319,3.222892 -1.436958,6.484103 -2.383982,9.670044 -0.593942,1.962474 -1.223467,3.961898 -2.207442,5.784783 -0.487196,0.838911 -1.01545,1.747615 -1.924155,2.170491 v 0.03148 -0.03148 c -2.06922,0 -4.169916,0.03148 -6.240503,0.03148 H 56.151464 c -0.314762,0 -0.662369,0 -0.9785,-0.03148 v 0.06843 c 1.331583,-1.085246 1.962475,-2.698745 2.555049,-4.201393 1.15504,-3.014874 1.962475,-6.099545 2.700112,-9.182846 1.400007,-5.742358 2.485254,-11.558617 3.608819,-17.374876 1.330212,-7.499553 2.731589,-14.958049 4.516153,-22.350858 0.877228,-3.26121 1.683294,-6.516946 3.084671,-9.49487 -1.469804,2.977924 -2.277236,6.202184 -3.084671,9.425076 -1.784564,7.387333 -3.185941,14.888254 -4.554473,22.350856 -1.122195,5.81626 -2.207441,11.632518 -3.607448,17.373508 -0.770483,3.122989 -1.539599,6.202185 -2.700114,9.178742 -0.625418,1.508121 -1.256311,3.122988 -2.555047,4.208234 l -0.03285,0.03148 h 0.06979 c 0.314762,0.03696 0.66237,0.03696 0.9785,0.03696 h 11.349232 c 2.069219,0 4.169915,0 6.237767,-0.03696 0.910073,-0.417402 1.471171,-1.363056 1.962474,-2.170491 0.983974,-1.85436 1.609393,-3.816834 2.207442,-5.816259 0.947023,-3.185941 1.679188,-6.408834 2.385349,-9.670044 a 519.73817,519.73817 0 0 0 3.708717,-19.374293 c 1.230309,-6.548423 2.490728,-13.102321 4.309505,-19.549473 h -0.03148 0.03148 c 0.700688,-2.347031 1.400007,-4.694063 2.591999,-6.831709 0.385926,-0.732164 0.985343,-1.293263 1.54644,-1.85436 l 0.03148,-0.03831 h -9.248535 c -3.047721,0 -6.131022,0 -9.178742,0.03831 -1.191991,0.421507 -1.892678,1.614867 -2.416826,2.698744 z m 0,0"
     id="path12" />
  <path
     style="fill:#f6a2ad;fill-opacity:1;fill-rule:nonzero;stroke:none;stroke-width:1.36853"
     d="m 92.450394,31.517209 h 1.50128 c 0.807432,0.417402 1.368532,1.116722 1.892678,1.85436 0.844385,1.331582 1.368533,2.839703 1.89268,4.272556 1.298735,3.92358 2.244394,7.992224 3.120258,12.015707 1.15641,5.43307 2.20333,10.934566 3.1873,16.396376 0.24634,1.300104 0.49267,2.630317 0.6309,3.961898 l 0.24633,0.246336 c -0.5611,0.769114 -0.77048,1.677819 -1.08525,2.591999 -0.98533,3.116146 -1.61487,6.377356 -2.139,9.601617 -0.42152,2.518097 -0.98399,5.040301 -1.785941,7.494078 -0.598049,1.822884 -1.298737,3.608818 -2.452409,5.115572 -0.561098,0.733532 -1.300106,1.29463 -2.139014,1.647711 -1.293263,0.138222 -2.030902,-1.085245 -2.661795,-1.999425 -1.300104,-2.240286 -1.962474,-4.725538 -2.731588,-7.179317 -2.453778,-9.040518 -4.031694,-18.256209 -5.747833,-27.466427 0,-0.139589 -0.106749,-0.246335 -0.208016,-0.31613 1.224835,-6.555267 2.485252,-13.102321 4.308137,-19.549473 0.700687,-2.347031 1.401376,-4.694063 2.593366,-6.833078 0.417403,-0.737638 1.015451,-1.298736 1.576549,-1.85436 z m 0,0"
     id="path14" />
  <path
     style="fill:#f6a2ad;fill-opacity:1;fill-rule:nonzero;stroke:none;stroke-width:1.36853"
     d="m 92.450394,31.517209 c 0.314762,0.03148 0.66237,0 1.01545,0 h 0.48583 v -0.03696 0.03696 c 0.807432,0.417402 1.368532,1.116722 1.861202,1.85436 h 0.03148 -0.03284 c 0.840278,1.331582 1.363057,2.801385 1.892679,4.272556 h 0.03285 -0.03285 c 1.294631,3.92358 2.240288,7.992224 3.117515,12.015707 a 518.68438,518.68438 0 0 1 3.18595,16.396376 c 0.24632,1.300104 0.49266,2.630317 0.62952,3.961898 l 0.24633,0.246336 h -0.0315 c -0.5611,0.769114 -0.77596,1.71477 -1.09072,2.591999 -0.9785,3.116146 -1.6094,6.377356 -2.13354,9.601617 -0.42151,2.518097 -0.9826,5.040301 -1.790039,7.494078 -0.593943,1.822884 -1.293262,3.608818 -2.449672,5.115572 -0.561097,0.733532 -1.297368,1.261785 -2.137646,1.647711 v 0.03148 -0.03148 h -0.208017 c -1.160515,0 -1.861203,-1.15504 -2.453777,-1.999425 h -0.03696 0.03696 c -1.300093,-2.240286 -1.962463,-4.725538 -2.700102,-7.179317 h -0.03148 0.03148 C 87.434726,78.496159 85.863652,69.280468 84.142039,60.07025 h -0.03148 0.03148 c 0,-0.139589 -0.101275,-0.284654 -0.240861,-0.354449 v 0.03833 h 0.03284 C 85.157491,53.198864 86.419276,46.65181 88.24216,40.204658 h -0.03148 0.03148 c 0.700688,-2.347032 1.401377,-4.694064 2.593368,-6.833077 0.454352,-0.699321 1.053769,-1.260418 1.614866,-1.854361 -0.599415,0.555624 -1.193358,1.116722 -1.577916,1.854361 h 0.03148 -0.03148 c -1.191991,2.139013 -1.892679,4.486045 -2.591999,6.833077 -1.824252,6.408833 -3.122988,12.962731 -4.309505,19.549473 0.101276,0.06843 0.171065,0.17654 0.208017,0.314762 1.716138,9.17874 3.294054,18.427277 5.747832,27.466427 0.732164,2.455147 1.431484,4.940399 2.731588,7.180685 0.592575,0.87586 1.293263,2.030901 2.485254,2.030901 h 0.21349 c 0.84028,-0.384558 1.609394,-0.945655 2.133542,-1.646343 1.19199,-1.502647 1.892679,-3.292686 2.490719,-5.110096 a 54.868534,54.868534 0 0 0 1.785944,-7.499554 c 0.52415,-3.224259 1.15503,-6.479996 2.13764,-9.602985 h -0.037 0.037 c 0.31476,-0.870387 0.52415,-1.81741 1.08524,-2.555049 l -0.24633,-0.246336 h 0.0383 a 38.900507,38.900507 0 0 0 -0.66784,-3.955061 C 103.09894,60.662831 102.08211,55.161333 100.92844,49.731001 100.05258,45.704781 99.105557,41.642979 97.805454,37.71803 97.282675,36.242754 96.758527,34.740106 95.914143,33.404419 95.389995,32.672255 94.828897,31.971566 94.02557,31.548691 H 93.534266 A 3.7867267,3.7867267 0 0 0 92.449021,31.51721 Z M 0.30853615,66.617306 C 0.69446201,66.585829 1.1104956,66.516034 1.5333718,66.516034 H 18.351255 c 0.700688,0.101276 1.432853,0.03284 2.137647,0.347607 0.9785,0.384558 1.855729,1.085246 2.518099,1.929629 0.07527,-0.03696 0.213489,-0.17654 0.283285,-0.246335 -0.384558,2.556417 -0.983974,5.079989 -1.469803,7.635038 -0.807433,3.890735 -1.683294,7.745888 -2.76854,11.562721 -0.700688,2.383983 -1.438325,4.762491 -2.593367,6.9713 -0.384557,0.769115 -1.01545,1.436959 -1.716137,1.961106 -0.246336,0.03831 -0.454353,-0.138221 -0.667845,-0.277812 C 13.34243,95.944936 12.919554,95.137501 12.498046,94.401232 10.395982,89.599055 10.151015,84.274099 8.8577525,79.233797 8.1885406,76.710225 7.3865811,74.219499 6.1576398,71.910785 5.4254755,70.50941 4.5112964,69.179196 3.317937,68.125428 2.4092321,67.463058 1.3937816,66.863641 0.30853615,66.617306 Z m 0,0"
     id="path16" />
  <path
     style="fill:#f6a2ad;fill-opacity:1;fill-rule:nonzero;stroke:none;stroke-width:1.36853"
     d="m 0.30853615,66.617306 c 0.41740217,0 0.80195945,-0.06843 1.22483565,-0.06843 H 18.351255 v -0.03284 0.03284 c 0.700688,0.106749 1.432853,0.03696 2.137647,0.351713 0.9785,0.385926 1.855729,1.085245 2.518099,1.925524 h 0.03831 c 0.06843,-0.03284 0.208017,-0.177909 0.277812,-0.246336 v -0.03148 h -0.03284 c -0.384558,2.555049 -0.983974,5.077253 -1.469804,7.633669 -0.807432,3.890735 -1.683294,7.745889 -2.768539,11.562722 -0.700688,2.383982 -1.438326,4.762491 -2.593367,6.9713 -0.384557,0.769115 -1.01545,1.400008 -1.716137,1.961106 v 0.03831 -0.03831 h -0.06843 c -0.214859,0 -0.385926,-0.138221 -0.599418,-0.277812 -0.732154,-0.454349 -1.118078,-1.261784 -1.576537,-1.998053 h -0.03285 0.03148 C 10.395982,89.599055 10.151015,84.274099 8.856384,79.233797 8.1885406,76.710225 7.3865811,74.219499 6.1576398,71.910785 5.4254755,70.50941 4.5112964,69.179196 3.317937,68.125428 2.4420767,67.424739 1.4266265,66.863641 0.30853615,66.617306 1.3937816,66.900591 2.4092321,67.463058 3.2864607,68.195222 v -0.03284 c 1.191991,1.048296 2.1006959,2.379877 2.8383344,3.779884 1.1865169,2.314188 2.0322693,4.800809 2.6946385,7.324383 1.3001054,5.008823 1.5450724,10.332411 3.6457674,15.171539 0.454353,0.732165 0.875861,1.539598 1.609393,1.99395 0.17654,0.10675 0.384558,0.283287 0.598049,0.283287 h 0.06979 c 0.700687,-0.524148 1.33158,-1.191992 1.716137,-1.962475 1.155041,-2.207441 1.892679,-4.591423 2.593367,-6.9713 1.085245,-3.822308 1.961107,-7.708937 2.768539,-11.562723 0.524148,-2.555047 1.116722,-5.07725 1.469804,-7.639142 v -0.06843 l -0.03696,0.03696 c -0.06843,0.06843 -0.208017,0.175174 -0.277812,0.246337 v 0.03148 h 0.03148 c -0.66237,-0.840279 -1.539599,-1.539598 -2.518099,-1.925524 v 0.03284 -0.03284 c -0.704787,-0.314774 -1.436952,-0.246347 -2.13764,-0.351724 H 1.5320033 a 4.9540841,4.9540841 0 0 0 -1.22346715,0.06843 z m 0,0"
     id="path18" />
  <path
     style="fill:#eb7077;fill-opacity:1;fill-rule:nonzero;stroke:none;stroke-width:1.36853"
     d="m 106.28488,68.232173 c 0.98397,-1.085247 2.4223,-1.785934 3.89211,-1.716139 h 12.64795 c 1.74763,0.03284 3.53903,-0.06843 5.28664,0.03284 -0.52415,0.351713 -1.15504,0.491304 -1.71613,0.769116 a 10.288619,10.288619 0 0 0 -4.62427,4.169914 c -1.68329,2.94508 -2.27723,6.308931 -2.76854,9.601617 -0.48719,3.222893 -0.48719,6.585374 -1.5396,9.739839 -0.70069,2.207441 -1.78593,4.414883 -3.64577,5.884686 -5.81625,0.06979 -11.59557,0 -17.37487,0.03284 -0.383188,0 -0.769114,0 -1.122194,-0.06843 0.838908,-0.385926 1.576547,-0.910073 2.139014,-1.647713 1.153672,-1.506752 1.89131,-3.292686 2.453777,-5.11557 0.769113,-2.449672 1.363053,-4.940399 1.784573,-7.495447 0.52413,-3.222892 1.15503,-6.478628 2.139,-9.600249 0.31477,-0.877229 0.52279,-1.81741 1.08525,-2.593367 0.45436,-0.629524 0.76911,-1.432853 1.36306,-1.99395 z m 0,0"
     id="path20" />
  <path
     style="fill:#eb7077;fill-opacity:1;fill-rule:nonzero;stroke:none;stroke-width:1.36853"
     d="m 106.28488,68.232173 c 0.94565,-1.01545 2.31418,-1.716139 3.71557,-1.716139 h 16.04739 c 0.70069,0 1.40138,0 2.1007,0.06979 v -0.06843 c -0.52825,0.346238 -1.15915,0.485829 -1.71614,0.769115 v 0.03148 -0.03148 a 10.127134,10.127134 0 0 0 -4.62426,4.201391 c -1.6833,2.94508 -2.27725,6.308931 -2.76854,9.601617 -0.49268,3.255737 -0.49268,6.585374 -1.54508,9.739839 -0.70069,2.207441 -1.78593,4.414883 -3.64029,5.847735 v 0.03831 -0.03831 c -2.52357,0.03831 -5.00883,0.03831 -7.5324,0.03831 H 96.160483 c -0.27918,0 -0.524147,0 -0.803328,-0.06979 v 0.06843 c 0.840279,-0.383188 1.609393,-0.944287 2.133541,-1.646343 1.191991,-1.506754 1.892679,-3.292687 2.49073,-5.115571 0.770474,-2.453777 1.363054,-4.940399 1.785934,-7.494079 0.52415,-3.22426 1.15504,-6.485471 2.13764,-9.601617 h -0.037 0.037 c 0.31477,-0.875859 0.52415,-1.822885 1.08524,-2.560522 0.41741,-0.700689 0.73355,-1.469803 1.29464,-2.063746 -0.59395,0.561098 -0.9087,1.363057 -1.36306,2.0309 -0.5611,0.770483 -0.77048,1.71614 -1.08525,2.593368 -0.98533,3.116146 -1.61487,6.377357 -2.139,9.601617 -0.42152,2.518098 -0.98399,5.040302 -1.785941,7.494079 -0.598049,1.822884 -1.298737,3.608817 -2.452409,5.115571 -0.561098,0.733533 -1.300106,1.261786 -2.139014,1.647712 l -0.06843,0.03148 h 0.06843 c 0.277811,0.07527 0.524146,0.07527 0.807432,0.07527 h 10.157242 c 2.52358,0 5.00882,0 7.53239,-0.03831 1.85984,-1.469804 2.94508,-3.677246 3.67725,-5.884686 1.05377,-3.154466 1.05377,-6.516947 1.54643,-9.741208 0.48994,-3.292686 1.08389,-6.655168 2.76719,-9.600249 a 10.263987,10.263987 0 0 1 4.62562,-4.169914 c 0.55563,-0.277812 1.18653,-0.417403 1.71478,-0.80196 l 0.0698,-0.03696 h -0.0685 c -0.70068,-0.03284 -1.40138,-0.06979 -2.10207,-0.06979 h -15.87225 v 0.03696 -0.03696 h -0.17516 a 4.8938687,4.8938687 0 0 0 -3.71557,1.753089 z m 0,0"
     id="path22" />
</svg>
