<?xml version="1.0" encoding="UTF-8" standalone="no"?>
<svg
   width="128"
   height="128"
   viewBox="0 0 128 128"
   version="1.1"
   id="svg4"
   sodipodi:docname="materializecss-plain.svg"
   inkscape:version="1.2.1 (9c6d41e410, 2022-07-14)"
   xmlns:inkscape="http://www.inkscape.org/namespaces/inkscape"
   xmlns:sodipodi="http://sodipodi.sourceforge.net/DTD/sodipodi-0.dtd"
   xmlns="http://www.w3.org/2000/svg"
   xmlns:svg="http://www.w3.org/2000/svg">
  <defs
     id="defs8" />
  <sodipodi:namedview
     id="namedview6"
     pagecolor="#ffffff"
     bordercolor="#000000"
     borderopacity="0.25"
     inkscape:showpageshadow="2"
     inkscape:pageopacity="0.0"
     inkscape:pagecheckerboard="0"
     inkscape:deskcolor="#d1d1d1"
     showgrid="false"
     inkscape:zoom="3.671875"
     inkscape:cx="64"
     inkscape:cy="64"
     inkscape:window-width="1366"
     inkscape:window-height="699"
     inkscape:window-x="0"
     inkscape:window-y="0"
     inkscape:window-maximized="1"
     inkscape:current-layer="svg4" />
  <path
     style="fill:#eb7077;fill-opacity:1;fill-rule:nonzero;stroke:none;stroke-width:1.3652"
     d="m 31.924208,33.502865 c 0.45871,-0.767245 1.051209,-1.535857 1.924941,-1.919481 0.346764,-0.07508 0.698987,-0.03685 1.05121,-0.03685 h 17.437784 c -0.528335,0.420483 -1.012984,0.873732 -1.328346,1.466232 -0.911958,1.471693 -1.503092,3.114037 -2.062827,4.719519 -1.574083,4.928396 -2.656692,9.993313 -3.739301,15.065056 -0.491474,2.304468 -0.943358,4.613033 -1.365207,6.884737 -1.32698,7.514097 -2.688091,14.989969 -4.404157,22.435806 -0.80001,3.422574 -1.642342,6.853338 -2.895603,10.169425 -0.59796,1.365206 -1.157695,2.831439 -2.271703,3.844422 -0.245738,0.245737 -0.528335,0.522874 -0.911959,0.491474 H 17.984083 c -1.051209,-0.03823 -2.064193,0.06826 -3.114037,-0.03823 0.697621,-0.522875 1.295582,-1.18773 1.710605,-1.956341 1.157695,-2.203444 1.88808,-4.576174 2.587066,-6.954363 1.08807,-3.808927 1.924942,-7.690209 2.761813,-11.535996 0.522874,-2.548841 1.11947,-5.064917 1.467597,-7.613758 0.420484,-2.832804 1.051209,-5.664242 1.541319,-8.495682 0.800011,-4.159784 1.642343,-8.350969 2.585701,-12.473893 0.768611,-3.215061 1.535858,-6.468348 2.54884,-9.61515 0.491475,-1.497632 1.05121,-3.03895 1.851221,-4.436922 z m 0,0 c 0.491475,-0.767245 1.08807,-1.535857 1.924941,-1.888081 v -0.03139 0.03139 c 0.176112,-0.03139 0.346764,-0.03139 0.522875,-0.03139 h 17.966119 v -0.07509 c -0.528335,0.42185 -1.012984,0.873732 -1.328346,1.471693 h 0.03277 -0.03277 c -0.911958,1.467598 -1.503092,3.109941 -2.062827,4.715423 -1.574083,4.932492 -2.656692,9.998775 -3.739301,15.065056 a 270.33822,270.33822 0 0 0 -1.365207,6.884731 c -1.32698,7.514097 -2.688091,14.995429 -4.404157,22.439901 -0.80001,3.423939 -1.642342,6.847877 -2.895603,10.17079 h 0.03141 -0.03141 c -0.59796,1.358381 -1.157695,2.825979 -2.271703,3.844422 -0.245738,0.207512 -0.491475,0.484649 -0.805472,0.484649 H 18.015483 v 0.03823 -0.03823 h -1.888081 c -0.415023,0 -0.836872,0 -1.220494,-0.06826 v 0.06826 c 0.698985,-0.522875 1.328345,-1.18773 1.711969,-1.956341 1.152234,-2.203444 1.888079,-4.576174 2.585701,-6.954363 1.082609,-3.808927 1.957706,-7.690209 2.763178,-11.535996 0.522874,-2.548841 1.114008,-5.064917 1.466231,-7.613758 0.42185,-2.832804 1.05121,-5.664242 1.535858,-8.495682 0.805472,-4.159784 1.642344,-8.350969 2.587067,-12.473893 0.767246,-3.215061 1.539953,-6.468348 2.552937,-9.61515 0.486013,-1.497632 1.045747,-3.00209 1.814359,-4.436922 -0.838237,1.397972 -1.359746,2.901065 -1.883985,4.436922 -1.049845,3.146802 -1.81709,6.361864 -2.552937,9.61515 -0.944722,4.122924 -1.781594,8.314109 -2.587066,12.473893 -0.522874,2.83144 -1.152234,5.662878 -1.535858,8.495682 -0.383622,2.548841 -0.981583,5.064917 -1.466231,7.615123 -0.805472,3.881282 -1.679205,7.727069 -2.761814,11.534631 -0.698986,2.378189 -1.434832,4.750919 -2.587067,6.954363 -0.383622,0.767246 -1.012982,1.396606 -1.711969,1.956341 l -0.03685,0.03823 h 0.06826 c 0.423214,0.03141 0.843698,0.06826 1.227321,0.06826 H 33.35905 v -0.03685 0.03685 h 0.06826 c 0.352224,0 0.597961,-0.277137 0.842332,-0.490109 1.115374,-1.012983 1.71197,-2.479214 2.27307,-3.844421 1.25326,-3.317452 2.095592,-6.746852 2.894238,-10.17079 1.717431,-7.444472 3.078541,-14.92171 4.405522,-22.434442 0.421849,-2.309929 0.911959,-4.614397 1.365207,-6.884737 1.045748,-5.071742 2.165218,-10.138024 3.739301,-15.065055 h -0.03276 0.03139 c 0.559735,-1.642343 1.152234,-3.249192 2.064192,-4.719519 0.346762,-0.592501 0.838237,-1.014349 1.328346,-1.467598 l 0.03141,-0.03139 H 34.372024 c -0.177478,0 -0.346763,0 -0.522875,0.03139 -0.873732,0.352223 -1.466231,1.119469 -1.924941,1.888081 z m 20.413935,-1.919481 h 1.328346 c 0.974758,0.522875 1.818456,1.359746 2.271704,2.37273 0.627996,1.157695 1.119469,2.410955 1.572718,3.669675 1.535858,4.756381 2.585702,9.646551 3.63145,14.542182 0.911959,4.368661 1.748829,8.772818 2.554301,13.172879 0.06963,0.245738 0,0.559735 0.277137,0.627995 -1.119469,5.802128 -2.202078,11.604257 -3.598684,17.338125 -0.768611,3.108575 -1.535857,6.184386 -2.693552,9.156441 -0.623901,1.503093 -1.253261,3.108575 -2.548842,4.191184 -0.838237,0.176112 -1.434832,-0.453248 -1.920846,-1.012983 -0.873732,-1.115374 -1.433467,-2.44372 -1.924941,-3.770701 C 49.53947,87.114531 48.492356,82.186135 47.409747,77.259104 46.604275,73.414682 45.869794,69.568895 45.102548,65.723108 44.754421,63.766767 44.297076,61.845921 44.055434,59.88958 a 0.98294879,0.98294879 0 0 0 -0.212972,-0.137887 c 0.421849,-2.309929 0.911959,-4.614397 1.365207,-6.884736 1.045748,-5.071743 2.165218,-10.138025 3.739301,-15.065056 0.559735,-1.642343 1.150869,-3.249192 2.062827,-4.719519 0.313998,-0.62936 0.800011,-1.082609 1.328346,-1.498998 z m 0,0 c 0.313998,0.03139 0.591135,0 0.906498,0 h 0.453248 v -0.03685 0.03685 c 0.981584,0.522875 1.818456,1.359746 2.271704,2.37273 0.629361,1.157695 1.119469,2.410955 1.572718,3.669675 h 0.03823 -0.03823 c 1.542684,4.756381 2.587066,9.646551 3.63691,14.542182 0.906498,4.368661 1.750196,8.772818 2.550207,13.172879 0.03686,0.106491 0.03686,0.245738 0.06826,0.382258 0.03823,0.107856 0.107856,0.245737 0.245738,0.245737 v -0.0314 h -0.0314 c -1.119469,5.802129 -2.203444,11.604257 -3.60005,17.331299 -0.772707,3.115401 -1.541319,6.187116 -2.693553,9.156441 -0.627996,1.504457 -1.258721,3.115401 -2.54884,4.19801 v 0.03141 -0.03141 c -0.106491,0.03141 -0.212973,0.03141 -0.282598,0.03141 -0.660761,0 -1.189096,-0.522874 -1.642344,-1.045749 h 0.03686 C 52.407768,94.489377 51.884895,93.161032 51.35656,91.834051 49.613191,87.083132 48.561982,82.154736 47.479373,77.226339 46.673901,73.381917 45.938055,69.537495 45.170808,65.691708 h -0.03277 0.03277 c -0.346762,-1.956341 -0.800011,-3.881282 -1.045747,-5.838989 a 1.6532653,1.6532653 0 0 0 -0.212973,-0.139251 v 0.03823 h 0.03687 c 0.421849,-2.309929 0.906498,-4.614397 1.365206,-6.884737 1.045749,-5.071742 2.165218,-10.138024 3.739302,-15.065055 h -0.03823 0.03823 c 0.559735,-1.642343 1.150869,-3.249192 2.057366,-4.719519 0.245737,-0.629361 0.737212,-1.045749 1.227321,-1.498998 -0.528335,0.416389 -1.012984,0.869637 -1.365207,1.466232 h 0.03687 -0.03687 c -0.906496,1.466233 -1.504458,3.109942 -2.058732,4.719519 -1.572717,4.928397 -2.662152,9.993314 -3.743396,15.059595 a 270.09795,270.09795 0 0 0 -1.359746,6.884738 0.82731524,0.82731524 0 0 0 0.207512,0.139251 v -0.03139 h -0.03687 c 0.245738,1.956341 0.735847,3.877187 1.05121,5.833528 0.767245,3.844422 1.466231,7.727069 2.307199,11.535996 1.083974,4.927031 2.129722,9.854062 3.877187,14.604981 0.522874,1.328346 1.051209,2.662153 1.957706,3.776162 0.453249,0.491475 0.981584,1.051209 1.679204,1.051209 0.102397,0 0.208877,0 0.315364,-0.03823 1.328345,-1.082609 1.957706,-2.688093 2.54884,-4.191186 1.152234,-3.007549 1.957706,-6.079265 2.693553,-9.156441 1.396606,-5.733868 2.479214,-11.535996 3.60005,-17.338124 v -0.03139 h -0.03823 c -0.137886,-0.03687 -0.207511,-0.106491 -0.207511,-0.212972 -0.03687,-0.101031 -0.03687,-0.245738 -0.06826,-0.383623 h -0.03823 0.03687 A 541.64574,541.64574 0 0 0 61.143726,52.098346 C 60.096613,47.202714 59.046769,42.312544 57.510911,37.556164 a 34.355426,34.355426 0 0 0 -1.572718,-3.669675 h -0.03823 0.03823 c -0.453248,-1.044384 -1.296946,-1.886716 -2.271704,-2.40959 h -0.454614 c -0.282597,0.06826 -0.596595,0.06826 -0.873732,0.106491 z m 19.25624,2.655328 c 0.559735,-1.05121 1.221861,-2.238939 2.447816,-2.655328 6.11203,-0.03685 12.228156,0 18.345648,0 -0.559736,0.554274 -1.152236,1.152236 -1.535858,1.849856 -1.189095,2.133818 -1.888081,4.475147 -2.587068,6.816477 -1.818454,6.393263 -3.108575,12.931238 -4.29767,19.501976 A 522.74992,522.74992 0 0 1 80.260716,79.07756 c -0.698986,3.216426 -1.433468,6.462888 -2.378191,9.64655 -0.592499,1.957706 -1.22186,3.946812 -2.197982,5.802128 -0.49011,0.838237 -1.05121,1.744734 -1.924942,2.165217 -5.833528,0.03823 -11.672516,0 -17.507411,0 -0.313997,0 -0.66622,0 -0.981583,-0.03685 1.296947,-1.045749 1.924942,-2.688092 2.554302,-4.191184 1.152234,-2.97069 1.920846,-6.079266 2.689457,-9.156441 1.396607,-5.733868 2.484676,-11.535997 3.598685,-17.338125 1.328346,-7.475872 2.730413,-14.921709 4.512008,-22.296555 0.730386,-3.215062 1.535858,-6.462888 2.969324,-9.433578 z m 0,0 c 0.559735,-1.05121 1.258721,-2.238939 2.447816,-2.623928 v -0.03139 0.03139 c 3.040315,0 6.11203,-0.03139 9.156441,-0.03139 h 9.156441 v -0.03685 c -0.559735,0.559735 -1.18773,1.150869 -1.572718,1.849854 h 0.03141 -0.03141 c -1.189095,2.133819 -1.888081,4.473783 -2.585702,6.815112 -1.81982,6.400089 -3.115401,12.932603 -4.299035,19.501978 -1.119469,6.469714 -2.34133,12.901203 -3.706536,19.32723 -0.697621,3.215062 -1.433467,6.468349 -2.37819,9.646551 -0.592499,1.957706 -1.220495,3.952273 -2.202078,5.770728 -0.486014,0.836872 -1.012984,1.743369 -1.919481,2.165218 v 0.03141 -0.03141 c -2.064193,0 -4.159784,0.03141 -6.225343,0.03141 H 56.145705 c -0.313998,0 -0.66076,0 -0.976122,-0.03141 v 0.06826 c 1.328345,-1.082609 1.957706,-2.692187 2.54884,-4.191184 1.152234,-3.00755 1.957706,-6.084726 2.693553,-9.160536 1.396606,-5.728408 2.479214,-11.530536 3.60005,-17.332664 1.32698,-7.481333 2.724953,-14.921709 4.505182,-22.296556 0.875097,-3.253287 1.679204,-6.501114 3.077175,-9.471803 -1.466231,2.970689 -2.271703,6.187116 -3.077175,9.402178 -1.780229,7.369385 -3.178202,14.852082 -4.543409,22.296554 -1.119469,5.80213 -2.202078,11.604258 -3.598684,17.331299 -0.768611,3.115402 -1.535857,6.187117 -2.693552,9.156442 -0.623901,1.504457 -1.253261,3.115401 -2.548842,4.19801 l -0.03277,0.03141 h 0.06963 c 0.313997,0.03685 0.660759,0.03685 0.976122,0.03685 h 11.321659 c 2.064193,0 4.159784,0 6.222612,-0.03685 0.907862,-0.416389 1.467597,-1.359746 1.957706,-2.165218 0.981583,-1.849855 1.605483,-3.807562 2.202079,-5.802128 0.944722,-3.178202 1.675108,-6.393263 2.379554,-9.646551 A 518.47546,518.47546 0 0 0 83.929031,59.71348 c 1.22732,-6.532513 2.484676,-13.070488 4.299035,-19.501977 h -0.03139 0.03139 c 0.698986,-2.34133 1.396606,-4.682659 2.585702,-6.815112 0.384988,-0.730386 0.982948,-1.29012 1.542683,-1.849855 l 0.03139,-0.03823 h -9.226068 c -3.040315,0 -6.116125,0 -9.15644,0.03823 -1.189095,0.420484 -1.888081,1.610944 -2.410956,2.692188 z m 20.762063,-2.655328 h 1.497632 c 0.805472,0.416389 1.365207,1.114009 1.888081,1.849856 0.842333,1.328346 1.365207,2.832803 1.88808,4.262174 1.295582,3.914049 2.23894,7.972807 3.112671,11.986516 1.1536,5.41987 2.19798,10.908001 3.17957,16.35654 0.24573,1.296947 0.49147,2.623928 0.62936,3.952274 l 0.24573,0.245738 c -0.55973,0.767245 -0.76861,1.673743 -1.0826,2.585701 -0.98295,3.108575 -1.61095,6.361863 -2.13382,9.57829 -0.42049,2.51198 -0.98159,5.028056 -1.781597,7.475871 -0.596595,1.818455 -1.295581,3.60005 -2.446451,5.103142 -0.559733,0.731752 -1.296945,1.291486 -2.133817,1.643709 -1.290121,0.137887 -2.025967,-1.082609 -2.655327,-1.994566 -1.296947,-2.234844 -1.957707,-4.714059 -2.724953,-7.161875 -2.447816,-9.018555 -4.021898,-18.211856 -5.733868,-27.399697 0,-0.139252 -0.106491,-0.245737 -0.207511,-0.315364 1.22186,-6.539339 2.479215,-13.070488 4.29767,-19.501976 0.698986,-2.34133 1.397972,-4.682659 2.587067,-6.816477 0.416388,-0.735847 1.012983,-1.295582 1.572718,-1.849856 z m 0,0 c 0.313997,0.03139 0.660761,0 1.012984,0 h 0.484648 v -0.03685 0.03685 c 0.805472,0.416389 1.365207,1.114009 1.856682,1.849856 h 0.03139 -0.03276 c 0.838237,1.328346 1.359746,2.794578 1.88808,4.262174 h 0.03276 -0.03276 c 1.291486,3.914049 2.234845,7.972807 3.10995,11.986516 a 517.42425,517.42425 0 0 1 3.1782,16.35654 c 0.24574,1.296947 0.49147,2.623928 0.62799,3.952274 l 0.24574,0.245738 h -0.0314 c -0.55973,0.767245 -0.77407,1.710603 -1.08807,2.585701 -0.97612,3.108575 -1.60548,6.361863 -2.12835,9.57829 -0.42049,2.51198 -0.98022,5.028056 -1.785697,7.475871 -0.592501,1.818455 -1.290121,3.60005 -2.44372,5.103142 -0.559735,0.731752 -1.294216,1.258721 -2.132453,1.643709 v 0.03141 -0.03141 h -0.207507 c -1.157695,0 -1.856681,-1.152234 -2.447816,-1.994566 h -0.03685 0.03685 C 91.197386,92.393785 90.536626,89.91457 89.800779,87.466754 h -0.03139 0.03139 C 87.352964,78.448199 85.785707,69.254898 84.068276,60.067057 h -0.03139 0.03139 c 0,-0.139252 -0.101019,-0.283963 -0.240276,-0.353589 v 0.03823 h 0.03276 c 1.220494,-6.539339 2.479215,-13.070488 4.29767,-19.501976 h -0.03141 0.03141 c 0.698986,-2.34133 1.397971,-4.682659 2.587067,-6.816477 0.453248,-0.697621 1.051209,-1.257356 1.610944,-1.849856 -0.597961,0.554274 -1.190461,1.114009 -1.574084,1.849856 h 0.03141 -0.03141 c -1.189094,2.133818 -1.888081,4.475147 -2.585702,6.816477 -1.81982,6.393263 -3.115401,12.931238 -4.299035,19.501976 0.101031,0.06826 0.17065,0.176112 0.207512,0.313998 1.711969,9.156442 3.286052,18.382508 5.733867,27.399698 0.730386,2.449181 1.428007,4.928396 2.724953,7.16324 0.591134,0.873732 1.29012,2.025966 2.479215,2.025966 h 0.212972 c 0.838237,-0.383623 1.605484,-0.943357 2.128358,-1.642344 1.189095,-1.498996 1.888081,-3.284687 2.484676,-5.097681 a 54.73523,54.73523 0 0 0 1.781597,-7.481332 c 0.52287,-3.216428 1.15223,-6.464254 2.13245,-9.579656 h -0.0369 0.0369 c 0.314,-0.868271 0.52287,-1.812995 1.08261,-2.54884 l -0.24573,-0.245744 h 0.0382 a 38.806,38.806 0 0 0 -0.6662,-3.945446 C 102.97912,60.658191 101.96477,55.17006 100.8139,49.75292 99.94017,45.736483 98.995446,41.684549 97.6985,37.769136 97.176991,36.297443 96.654117,34.798446 95.811785,33.466005 95.28891,32.73562 94.729176,32.036633 93.927799,31.614784 H 93.43769 A 3.7775268,3.7775268 0 0 0 92.355081,31.58339 Z M 0.43844681,66.598205 C 0.82343509,66.566805 1.2384579,66.49718 1.6603067,66.49718 H 18.437331 c 0.698986,0.101031 1.429371,0.03277 2.132453,0.346762 0.976124,0.383624 1.851221,1.082609 2.51198,1.924942 0.07509,-0.03687 0.212973,-0.176111 0.282598,-0.245738 -0.383622,2.550207 -0.981583,5.067648 -1.466231,7.616489 -0.805472,3.881282 -1.679205,7.727069 -2.761814,11.534631 -0.698986,2.378189 -1.434832,4.750919 -2.587067,6.954363 -0.383622,0.767246 -1.012982,1.433466 -1.711969,1.956341 -0.245737,0.03823 -0.453248,-0.137886 -0.66622,-0.277137 -0.730386,-0.453249 -1.152234,-1.25872 -1.572719,-1.993202 C 10.501385,89.52412 10.257013,84.212101 8.9668928,79.184046 8.2993068,76.666605 7.4992957,74.181928 6.2733401,71.878824 5.5429545,70.480853 4.6309965,69.153873 3.4405363,68.102663 2.534039,67.441903 1.5210557,66.843942 0.43844681,66.598205 Z m 0,0 c 0.41638803,0 0.80001109,-0.06826 1.22185989,-0.06826 H 18.437331 v -0.03277 0.03277 c 0.698986,0.106491 1.429371,0.03685 2.132453,0.350858 0.976124,0.384989 1.851221,1.082609 2.51198,1.920846 h 0.03823 c 0.06826,-0.03277 0.207512,-0.177477 0.277137,-0.245738 v -0.03139 h -0.03276 c -0.383623,2.54884 -0.981584,5.064916 -1.466232,7.615123 -0.805472,3.881282 -1.679205,7.727069 -2.761814,11.53463 -0.698985,2.37819 -1.434832,4.75092 -2.587066,6.954364 -0.383622,0.767245 -1.012983,1.396606 -1.711969,1.956341 v 0.03823 -0.03823 h -0.06826 c -0.214336,0 -0.384988,-0.137887 -0.59796,-0.277137 -0.730385,-0.453249 -1.115374,-1.258721 -1.572719,-1.993203 h -0.03276 0.03139 C 10.501385,89.52412 10.257013,84.212101 8.9655276,79.184046 8.2993068,76.666605 7.4992957,74.181928 6.2733401,71.878824 5.5429545,70.480853 4.6309965,69.153873 3.4405363,68.102663 2.566804,67.403677 1.5538206,66.843942 0.43844681,66.598205 1.5210557,66.880803 2.534039,67.441903 3.4091365,68.172289 v -0.03277 c 1.189095,1.045748 2.0955923,2.374094 2.8314386,3.770701 1.1836342,2.308564 2.0273319,4.789144 2.688092,7.306585 1.2969459,4.996657 1.5413179,10.307311 3.6369109,15.134682 0.453249,0.730386 0.873732,1.535858 1.605483,1.989106 0.176111,0.106492 0.383623,0.282597 0.596595,0.282597 h 0.06963 c 0.698987,-0.522873 1.328347,-1.189094 1.711969,-1.957706 1.152235,-2.202078 1.888081,-4.580268 2.587067,-6.954363 1.082609,-3.813022 1.956342,-7.690209 2.761814,-11.534631 0.522874,-2.54884 1.114008,-5.064916 1.466231,-7.620583 v -0.06826 l -0.03687,0.03687 c -0.06826,0.06826 -0.207512,0.174746 -0.277137,0.245737 v 0.03141 h 0.03139 c -0.660749,-0.838242 -1.535846,-1.535862 -2.51197,-1.920851 v 0.03277 -0.03277 C 19.866702,66.566805 19.136317,66.635065 18.437331,66.529945 H 1.6589415 a 4.9420481,4.9420481 0 0 0 -1.22049469,0.06826 z M 106.15732,68.209149 c 0.98158,-1.082609 2.41642,-1.781594 3.88265,-1.711969 h 12.61724 c 1.74336,0.03277 3.53043,-0.06826 5.27379,0.03277 -0.52287,0.350858 -1.15224,0.490109 -1.71197,0.767246 a 10.263624,10.263624 0 0 0 -4.61303,4.159785 c -1.67921,2.937924 -2.27171,6.293603 -2.76182,9.578289 -0.48601,3.215062 -0.48601,6.569375 -1.53586,9.716177 -0.69898,2.202078 -1.78159,4.404156 -3.6369,5.870388 -5.80213,0.06963 -11.5674,0 -17.332666,0.03277 -0.382258,0 -0.767246,0 -1.119469,-0.06826 0.836872,-0.384989 1.572717,-0.907863 2.133817,-1.643709 1.15087,-1.503093 1.886716,-3.284687 2.447816,-5.103143 0.767242,-2.44372 1.359742,-4.928396 1.780232,-7.477237 0.52287,-3.215062 1.15223,-6.462888 2.13382,-9.576925 0.31399,-0.875097 0.5215,-1.812994 1.0826,-2.587066 0.45325,-0.627995 0.76725,-1.429371 1.35975,-1.989106 z m 0,0 c 0.94336,-1.012984 2.30856,-1.711969 3.70654,-1.711969 h 16.00841 c 0.69898,0 1.39798,0 2.09559,0.06963 v -0.06826 c -0.52697,0.345397 -1.15633,0.484649 -1.71196,0.767247 v 0.03139 -0.03139 a 10.102529,10.102529 0 0 0 -4.61303,4.191184 c -1.67921,2.937925 -2.27171,6.293603 -2.76182,9.57829 -0.49148,3.247826 -0.49148,6.569375 -1.54132,9.716176 -0.69898,2.202078 -1.7816,4.404156 -3.63145,5.833528 v 0.03823 -0.03823 c -2.51744,0.03823 -4.99666,0.03823 -7.5141,0.03823 H 96.057522 c -0.278502,0 -0.522874,0 -0.801377,-0.06962 v 0.06826 c 0.838237,-0.382257 1.605484,-0.941992 2.128358,-1.642344 1.189095,-1.503092 1.88808,-3.284687 2.484676,-5.103143 0.768611,-2.447814 1.359741,-4.928395 1.781591,-7.475871 0.52288,-3.216426 1.15224,-6.469714 2.13246,-9.578289 h -0.0369 0.0369 c 0.31399,-0.873734 0.52287,-1.818456 1.0826,-2.554303 0.41639,-0.698985 0.73176,-1.466231 1.29149,-2.058731 -0.5925,0.559735 -0.9065,1.359746 -1.35975,2.025966 -0.55973,0.768612 -0.76861,1.711969 -1.0826,2.587068 -0.98295,3.108575 -1.61095,6.361863 -2.13382,9.578289 -0.42049,2.511981 -0.98159,5.028057 -1.781597,7.475871 -0.596595,1.818456 -1.295581,3.600051 -2.446451,5.103143 -0.559733,0.731752 -1.296945,1.258721 -2.133817,1.643709 l -0.06826,0.03141 h 0.06826 c 0.277137,0.07507 0.522874,0.07507 0.805472,0.07507 h 10.132563 c 2.51744,0 4.99666,0 7.5141,-0.03823 1.85531,-1.466232 2.93792,-3.668311 3.66831,-5.870389 1.0512,-3.146801 1.0512,-6.501114 1.54269,-9.717541 0.48874,-3.284687 1.08124,-6.639 2.76045,-9.576925 a 10.23905,10.23905 0 0 1 4.61439,-4.159784 c 0.55427,-0.277137 1.18363,-0.416388 1.7106,-0.800012 l 0.0696,-0.03685 h -0.0682 c -0.69898,-0.03277 -1.39797,-0.06963 -2.09696,-0.06963 h -15.8337 v 0.03685 -0.03685 h -0.17474 a 4.881979,4.881979 0 0 0 -3.70654,1.748829 z m 0,0"
     id="path2" />
</svg>
