<?xml version="1.0" encoding="UTF-8"?>
<svg xmlns="http://www.w3.org/2000/svg" xmlns:xlink="http://www.w3.org/1999/xlink" width="128px" height="128px" viewBox="0 0 128 128" version="1.1">
<g id="surface1">
<path style=" stroke:none;fill-rule:nonzero;fill:rgb(0%,65.882353%,9.411765%);fill-opacity:1;" d="M 111.207031 66.503906 C 109.902344 66.503906 108.703125 67.210938 108.101562 68.375 C 108.101562 68.09375 108.242188 67.738281 108.242188 67.492188 L 108.242188 66.964844 L 105.773438 66.964844 L 105.773438 79.277344 L 108.242188 79.277344 L 108.242188 72.183594 C 108.242188 70.210938 109.335938 68.9375 111.242188 68.9375 L 111.734375 68.9375 L 111.734375 66.46875 L 111.207031 66.46875 Z M 11.21875 71.019531 C 10.585938 69.890625 9.421875 69.1875 8.113281 69.1875 C 5.960938 69.1875 4.234375 70.949219 4.234375 73.101562 C 4.234375 75.253906 5.960938 76.984375 8.113281 76.984375 C 9.386719 77.019531 10.585938 76.3125 11.21875 75.21875 L 13.476562 76.558594 C 12.277344 78.359375 10.265625 79.453125 8.113281 79.488281 C 4.621094 79.699219 1.660156 77.019531 1.445312 73.527344 C 1.234375 70.03125 3.917969 67.070312 7.410156 66.859375 C 7.65625 66.859375 7.867188 66.859375 8.113281 66.859375 C 10.300781 66.824219 12.3125 67.917969 13.476562 69.785156 Z M 15.628906 67.140625 L 18.167969 67.140625 L 18.167969 73.84375 C 18.097656 75.429688 19.335938 76.773438 20.921875 76.808594 C 20.957031 76.808594 21.027344 76.808594 21.0625 76.808594 C 22.6875 76.773438 23.957031 75.429688 23.957031 73.808594 L 23.957031 67.105469 L 26.496094 67.105469 L 26.496094 74.019531 C 26.566406 76.949219 24.238281 79.347656 21.308594 79.417969 C 21.203125 79.417969 21.132812 79.417969 21.027344 79.417969 C 18.097656 79.523438 15.664062 77.230469 15.558594 74.335938 C 15.558594 74.230469 15.558594 74.160156 15.558594 74.054688 L 15.558594 67.140625 Z M 38.5625 71.019531 C 37.925781 69.890625 36.761719 69.1875 35.457031 69.1875 C 33.304688 69.1875 31.578125 70.949219 31.578125 73.101562 C 31.578125 75.253906 33.304688 76.984375 35.457031 76.984375 C 36.726562 77.019531 37.925781 76.3125 38.5625 75.21875 L 40.820312 76.558594 C 39.621094 78.359375 37.609375 79.453125 35.457031 79.488281 C 31.964844 79.699219 29 77.019531 28.789062 73.527344 C 28.578125 70.03125 31.257812 67.070312 34.75 66.859375 C 35 66.859375 35.210938 66.859375 35.457031 66.859375 C 37.644531 66.824219 39.65625 67.917969 40.820312 69.785156 Z M 42.972656 67.140625 L 45.511719 67.140625 L 45.511719 73.84375 C 45.441406 75.429688 46.675781 76.773438 48.265625 76.808594 C 48.300781 76.808594 48.371094 76.808594 48.40625 76.808594 C 50.027344 76.773438 51.296875 75.429688 51.296875 73.808594 L 51.296875 67.105469 L 53.839844 67.105469 L 53.839844 74.019531 C 53.839844 77.054688 51.40625 79.488281 48.371094 79.488281 C 45.335938 79.488281 42.902344 77.054688 42.902344 74.019531 Z M 57.085938 71.621094 C 57.085938 68.550781 59.0625 66.824219 61.460938 66.824219 C 62.976562 66.714844 64.386719 67.5625 65.023438 68.9375 C 65.621094 67.527344 67.070312 66.679688 68.621094 66.824219 C 70.984375 66.824219 72.996094 68.585938 72.996094 71.621094 L 72.996094 79.101562 L 70.527344 79.101562 L 70.527344 71.621094 C 70.667969 70.527344 69.925781 69.539062 68.832031 69.363281 C 68.726562 69.363281 68.621094 69.328125 68.550781 69.328125 C 67.316406 69.328125 66.433594 70.066406 66.433594 71.9375 L 66.433594 79.03125 L 63.894531 79.03125 L 63.894531 71.902344 C 63.894531 70.03125 63.011719 69.292969 61.777344 69.292969 C 60.683594 69.292969 59.765625 70.175781 59.765625 71.269531 C 59.765625 71.375 59.765625 71.480469 59.800781 71.550781 L 59.800781 79.03125 L 57.085938 79.03125 Z M 76.242188 63.578125 L 78.78125 63.578125 L 78.78125 68.621094 C 79.734375 67.457031 81.183594 66.789062 82.664062 66.859375 C 86.15625 66.859375 88.980469 69.679688 88.980469 73.171875 C 88.980469 76.664062 86.15625 79.488281 82.664062 79.488281 C 81.148438 79.558594 79.699219 78.886719 78.78125 77.722656 L 78.78125 79.207031 L 76.242188 79.207031 Z M 82.488281 69.257812 C 80.335938 69.1875 78.535156 70.84375 78.429688 72.996094 C 78.359375 75.148438 80.019531 76.949219 82.167969 77.054688 C 84.320312 77.160156 86.121094 75.464844 86.226562 73.3125 C 86.226562 73.277344 86.226562 73.207031 86.226562 73.171875 C 86.332031 71.125 84.746094 69.398438 82.699219 69.292969 C 82.628906 69.257812 82.558594 69.257812 82.488281 69.257812 Z M 102.703125 76.488281 C 101.398438 78.289062 99.351562 79.347656 97.128906 79.417969 C 93.671875 79.558594 90.742188 76.84375 90.601562 73.386719 C 90.460938 69.925781 93.175781 67 96.636719 66.859375 C 96.8125 66.859375 96.953125 66.859375 97.128906 66.859375 C 100.691406 67 103.480469 69.996094 103.339844 73.5625 L 103.339844 74.019531 L 93.460938 74.019531 C 93.707031 75.855469 95.257812 77.195312 97.09375 77.195312 C 98.46875 77.160156 99.773438 76.453125 100.550781 75.324219 Z M 100.339844 71.867188 C 99.988281 70.210938 98.503906 69.046875 96.8125 69.046875 C 95.152344 69.046875 93.742188 70.246094 93.425781 71.867188 Z M 122.707031 49.570312 L 122.25 49.324219 L 121.753906 49.074219 L 121.578125 49.074219 L 121.15625 48.898438 C 120.34375 48.617188 119.496094 48.511719 118.652344 48.511719 C 114.203125 48.511719 110.570312 52.144531 110.570312 56.589844 C 110.570312 60.4375 113.324219 63.789062 117.097656 64.492188 L 117.097656 66.824219 C 121.933594 66.082031 126.199219 62.269531 126.519531 57.226562 C 126.765625 54.15625 125.285156 51.226562 122.707031 49.570312 Z M 116.746094 51.546875 C 117.027344 51.511719 117.308594 51.617188 117.484375 51.863281 C 118.121094 52.570312 118.15625 53.59375 117.628906 54.367188 C 116.921875 54.226562 116.320312 53.699219 116.039062 53.027344 C 115.933594 52.816406 115.898438 52.605469 115.898438 52.390625 C 115.933594 51.933594 116.285156 51.582031 116.746094 51.546875 Z M 114.3125 53.945312 L 114.453125 53.945312 C 114.699219 53.945312 114.945312 54.015625 115.15625 54.121094 C 115.828125 54.402344 116.320312 54.96875 116.5 55.636719 C 115.898438 56.0625 115.085938 56.132812 114.417969 55.851562 C 114.203125 55.746094 114.027344 55.636719 113.816406 55.496094 C 113.429688 55.25 113.324219 54.722656 113.570312 54.332031 C 113.78125 54.050781 114.0625 53.875 114.3125 53.945312 Z M 115.15625 58.917969 C 114.945312 59.023438 114.699219 59.097656 114.453125 59.097656 C 113.957031 59.132812 113.535156 58.8125 113.5 58.320312 C 113.464844 58.039062 113.570312 57.753906 113.78125 57.578125 C 113.957031 57.4375 114.132812 57.296875 114.382812 57.226562 C 114.628906 57.121094 114.910156 57.050781 115.191406 57.050781 C 115.652344 57.050781 116.074219 57.15625 116.464844 57.402344 C 116.320312 58.074219 115.863281 58.601562 115.226562 58.847656 Z M 117.875 60.507812 C 117.769531 60.71875 117.664062 60.894531 117.523438 61.105469 C 117.167969 61.460938 116.605469 61.496094 116.214844 61.140625 C 116.039062 60.964844 115.933594 60.71875 115.933594 60.472656 C 115.933594 60.261719 116.003906 60.046875 116.074219 59.835938 C 116.355469 59.132812 116.957031 58.636719 117.699219 58.496094 C 118.085938 59.097656 118.15625 59.835938 117.875 60.472656 Z M 119.214844 52.464844 C 119.320312 52.25 119.425781 52.074219 119.566406 51.863281 C 119.746094 51.652344 120.027344 51.511719 120.34375 51.546875 C 120.839844 51.582031 121.226562 52.003906 121.226562 52.5 C 121.226562 52.710938 121.15625 52.957031 121.085938 53.132812 C 120.800781 53.804688 120.203125 54.261719 119.496094 54.402344 C 119.039062 53.804688 118.933594 53.027344 119.285156 52.355469 Z M 119.671875 61 C 119.039062 60.296875 119.003906 59.273438 119.53125 58.496094 C 120.238281 58.636719 120.839844 59.132812 121.15625 59.765625 C 121.261719 59.976562 121.296875 60.191406 121.296875 60.402344 C 121.191406 60.929688 120.695312 61.320312 120.132812 61.210938 C 119.957031 61.175781 119.816406 61.105469 119.671875 61 Z M 122.636719 58.917969 C 122.390625 58.917969 122.144531 58.847656 121.933594 58.742188 C 121.261719 58.460938 120.765625 57.894531 120.589844 57.226562 C 120.980469 56.980469 121.402344 56.839844 121.859375 56.875 C 122.144531 56.875 122.390625 56.945312 122.671875 57.050781 C 122.882812 57.15625 123.0625 57.261719 123.273438 57.402344 C 123.660156 57.683594 123.730469 58.214844 123.449219 58.601562 C 123.273438 58.847656 122.988281 58.988281 122.707031 58.953125 Z M 122.636719 58.917969 "/>
</g>
</svg>
