<svg xmlns="http://www.w3.org/2000/svg" viewBox="0 0 128 128"><path d="M111.207 66.504a3.477 3.477 0 00-3.105 1.871c0-.281.14-.637.14-.883v-.527h-2.469v12.312h2.47v-7.093c0-1.973 1.093-3.246 3-3.246h.491v-2.47h-.527zM11.219 71.02a3.54 3.54 0 00-3.106-1.832c-2.152 0-3.879 1.761-3.879 3.914a3.87 3.87 0 003.88 3.882c1.273.036 2.472-.671 3.105-1.765l2.258 1.34a6.58 6.58 0 01-5.364 2.93c-3.492.21-6.453-2.47-6.668-5.962-.21-3.496 2.473-6.457 5.965-6.668h.703a6.165 6.165 0 015.364 2.926zm4.41-3.88h2.539v6.704c-.07 1.586 1.168 2.93 2.754 2.965h.14c1.625-.036 2.895-1.38 2.895-3v-6.704h2.54v6.915c.07 2.93-2.259 5.328-5.188 5.398h-.282a5.282 5.282 0 01-5.468-5.082V67.14zm22.934 3.88a3.55 3.55 0 00-3.106-1.832c-2.152 0-3.879 1.761-3.879 3.914a3.87 3.87 0 003.879 3.882c1.27.036 2.469-.671 3.105-1.765l2.258 1.34a6.58 6.58 0 01-5.363 2.93c-3.492.21-6.457-2.47-6.668-5.962-.21-3.496 2.469-6.457 5.961-6.668h.707a6.165 6.165 0 015.363 2.926zm4.41-3.88h2.539v6.704c-.07 1.586 1.164 2.93 2.754 2.965h.14c1.621-.036 2.89-1.38 2.89-3v-6.704h2.544v6.915a5.45 5.45 0 01-5.469 5.468 5.45 5.45 0 01-5.469-5.468zm14.113 4.481c0-3.07 1.977-4.797 4.375-4.797a3.639 3.639 0 013.562 2.114c.598-1.41 2.047-2.258 3.598-2.114 2.363 0 4.375 1.762 4.375 4.797v7.48h-2.469v-7.48a2.016 2.016 0 00-1.695-2.258c-.105 0-.21-.035-.281-.035-1.235 0-2.117.738-2.117 2.61v7.093h-2.54v-7.129c0-1.87-.882-2.609-2.117-2.609-1.093 0-2.011.883-2.011 1.977 0 .105 0 .21.035.28v7.481h-2.715zm19.156-8.043h2.54v5.043c.952-1.164 2.402-1.832 3.882-1.762a6.308 6.308 0 016.316 6.313 6.312 6.312 0 01-6.316 6.316 4.68 4.68 0 01-3.883-1.765v1.484h-2.539zm6.246 5.68a3.925 3.925 0 00-4.058 3.738 3.928 3.928 0 003.738 4.059c2.152.105 3.953-1.59 4.059-3.743v-.14c.105-2.047-1.48-3.774-3.528-3.879-.07-.035-.14-.035-.21-.035zm20.215 7.23c-1.305 1.801-3.351 2.86-5.574 2.93-3.457.14-6.387-2.574-6.527-6.031-.141-3.461 2.574-6.387 6.035-6.528h.492c3.562.141 6.351 3.137 6.21 6.704v.457h-9.878a3.651 3.651 0 003.633 3.175 4.366 4.366 0 003.457-1.87zm-2.363-4.62c-.352-1.657-1.836-2.821-3.528-2.821-1.66 0-3.07 1.2-3.386 2.82zm22.367-22.298l-.457-.246-.496-.25h-.176l-.422-.176c-.812-.28-1.66-.386-2.504-.386-4.449 0-8.082 3.633-8.082 8.078 0 3.847 2.754 7.2 6.528 7.902v2.332c4.836-.742 9.101-4.554 9.422-9.597.246-3.07-1.235-6-3.813-7.657zm-5.96 1.977a.773.773 0 01.737.316c.637.707.672 1.73.145 2.504-.707-.14-1.309-.668-1.59-1.34a1.384 1.384 0 01-.14-.636.908.908 0 01.847-.844zm-2.434 2.398h.14c.246 0 .492.07.703.176a2.306 2.306 0 011.344 1.516 2.19 2.19 0 01-2.082.215 5.05 5.05 0 01-.602-.356c-.386-.246-.492-.773-.246-1.164.211-.281.493-.457.743-.387zm.843 4.973c-.21.105-.457.18-.703.18-.496.035-.918-.285-.953-.778a.835.835 0 01.281-.742c.176-.14.352-.281.602-.351.246-.106.527-.176.808-.176.461 0 .883.105 1.274.351a1.977 1.977 0 01-1.238 1.446zm2.719 1.59c-.105.21-.21.387-.352.597a.936.936 0 01-1.308.036.96.96 0 01-.281-.668c0-.211.07-.426.14-.637a2.17 2.17 0 011.625-1.34c.387.602.457 1.34.176 1.977zm1.34-8.043c.105-.215.21-.39.351-.602.18-.21.461-.351.778-.316a.958.958 0 01.883.953c0 .21-.07.457-.141.633a2.161 2.161 0 01-1.59 1.27c-.457-.598-.562-1.376-.21-2.048zm.457 8.535c-.633-.703-.668-1.727-.14-2.504.706.14 1.308.637 1.624 1.27.106.21.14.425.14.636-.105.528-.6.918-1.163.809a1.128 1.128 0 01-.461-.211zm2.965-2.082a1.6 1.6 0 01-.703-.176 2.296 2.296 0 01-1.344-1.515c.39-.247.812-.387 1.27-.352.285 0 .53.07.812.176.21.105.39.21.601.351a.85.85 0 01.176 1.2c-.176.246-.46.386-.742.351zm0 0" fill="#00a818"/></svg>