<!DOCTYPE svg PUBLIC "-//W3C//DTD SVG 20010904//EN" "http://www.w3.org/TR/2001/REC-SVG-20010904/DTD/svg10.dtd">
<svg version="1.0" xmlns="http://www.w3.org/2000/svg" width="128px" height="128px" viewBox="0 0 128 128" preserveAspectRatio="xMidYMid meet">
 <g id="layer101" fill="#1f1f1f" stroke="none">
  <path d="M65.125 127.8 c-2.4125 -0.225 -5.3375 -0.725 -6.7875 -1.175 l-0.8125 -0.25 -0.775 -2.1625 c-0.425 -1.175 -1.25 -3.75 -1.8375 -5.7125 -0.5875 -1.9625 -1.1875 -3.9875 -1.3375 -4.5 l-0.2875 -0.9375 -0.925 0.0375 c-1.7125 0.075 -4.2 -0.3625 -6.175 -1.0875 -1.4625 -0.5375 -2.7375 -1.1 -5.1875 -2.3125 -1.2 -0.5875 -2.85 -1.3375 -3.65 -1.65 -2.8625 -1.125 -2.95 -1.2625 -3.1125 -5.275 -0.05 -1.5625 -0.1375 -3.3 -0.1875 -3.8625 l-0.0875 -1.0375 -1.2125 -1.125 c-1.4625 -1.35 -3.625 -3.725 -5.025 -5.5125 -6.0375 -7.75 -9.575 -17.4125 -9.95 -27.1375 -0.2625 -6.8125 0.625 -12.6125 2.925 -18.925 2.4625 -6.8125 6.9875 -13.5625 12.35 -18.425 l1.5375 -1.3875 0.075 -1.0875 c0.1625 -2.25 0.8 -4.625 1.6 -5.9875 0.5375 -0.9125 1.6375 -2.0125 2.4 -2.4125 0.5125 -0.275 0.6125 -0.3875 0.775 -0.9375 0.275 -0.95 1.0875 -2.5375 1.7375 -3.4 1.0375 -1.375 3.075 -3.025 5.3875 -4.375 2.2625 -1.3125 5.3625 -3.0125 6.375 -3.4875 1.8875 -0.9 6.7625 -2.65 6.9125 -2.4875 0.0375 0.0375 0.125 0.0125 0.2 -0.05 0.4125 -0.3375 4.225 -0.8625 6.95 -0.9625 6.1125 -0.225 12.175 1.2125 15.95 3.7625 2.6625 1.825 6.5125 5.725 8.4875 8.625 2 2.925 3.2875 7.55 3.8875 13.875 l0.075 0.875 1.4625 1.5125 c1.4375 1.475 3.2125 3.6125 4.475 5.3875 0.8625 1.2 2.4125 3.675 2.4125 3.8625 0 0.0875 0.05 0.175 0.1 0.2 0.25 0.0875 2.6875 5.0625 2.825 5.725 0.025 0.1 0.15 0.45 0.2875 0.7625 0.15 0.3125 0.4875 1.275 0.7625 2.125 2.8125 8.6375 3.15 17.9125 0.9625 26.6375 -0.825 3.3 -1.85 6.1125 -3.3375 9.225 -0.4625 0.9875 -0.9 1.8375 -0.95 1.875 -0.05 0.0375 -0.2375 0.3625 -0.425 0.7125 l-0.35 0.6625 0.5125 0.25 c1.2875 0.6625 2.1375 2.075 3.325 5.5625 0.9875 2.8875 1.3 4.1875 1.375 5.625 0.15 3.025 -0.8875 6.2625 -2.5125 7.8875 -0.65 0.6375 -0.8875 0.7875 -1.6375 1.0125 -0.475 0.15 -1.2625 0.3375 -1.75 0.4125 -1.2625 0.2125 -4.075 0.175 -5.65 -0.0625 -1.475 -0.2375 -1.7875 -0.4125 -2.2375 -1.275 l-0.2375 -0.4375 -1.75 0.075 c-1.7375 0.0625 -2.6125 0.225 -3.95 0.7125 l-0.7125 0.2625 -0.075 0.625 c-0.1125 0.7875 -0.5125 1.225 -1.425 1.55 -0.575 0.2 -0.6625 0.2875 -0.725 0.65 -0.175 0.9125 0.05 2.9625 0.55 5.2125 0.65 2.8375 0.75 3.9 0.475 4.85 -0.3625 1.2375 -1.3375 1.9 -3.575 2.4 l-1.1875 0.2625 -0.0375 0.4375 c-0.025 0.2375 0.0125 0.95 0.0875 1.6 0.1375 1.15 0.1375 1.175 -0.175 1.7125 -1.1125 1.9 -3.6375 2.425 -12 2.4875 -2.5375 0.0125 -4.875 0.0125 -5.1875 -0.0125z m7.2875 -2.4375 c0.325 -0.075 0.85 -0.1125 1.15 -0.075 0.3125 0.025 0.5625 0.0125 0.5625 -0.05 0 -0.0625 0.2375 -0.1125 0.5375 -0.1125 1.2875 0 5.5625 -0.9125 5.675 -1.2125 0.0375 -0.0875 -0.025 -0.75 -0.1375 -1.45 -0.3125 -1.975 -0.4375 -3.6375 -0.6375 -8.9 -0.1 -2.675 -0.275 -5.825 -0.375 -7 -0.1 -1.1625 -0.3 -4.2375 -0.4375 -6.8125 -0.2875 -5.4125 -0.4375 -6.8375 -0.7375 -6.925 -0.1125 -0.0375 -0.7625 -0.15 -1.45 -0.25 -5.2875 -0.8 -13.3 -0.475 -21.375 0.8625 -2.5875 0.425 -2.4 0.3625 -2.4625 0.8875 -0.025 0.2375 -0.0125 0.4625 0.025 0.4875 0.1125 0.075 0.4125 2.8875 0.325 3.0375 -0.0375 0.075 -0.025 0.15 0.05 0.175 0.0625 0.0125 0.15 0.4 0.175 0.85 0.025 0.45 0.1 0.9125 0.1375 1.0375 0.05 0.1125 0.0625 0.35 0.0375 0.525 -0.0375 0.1625 -0.025 0.325 0.0125 0.3375 0.125 0.05 0.6625 3.7125 0.575 3.85 -0.0375 0.075 -0.0125 0.125 0.05 0.125 0.075 0 0.1375 0.125 0.1375 0.275 0 0.3375 0.6375 3.7125 1.1375 6.0125 0.2 0.95 0.3375 1.775 0.3 1.85 -0.05 0.0625 -0.025 0.1125 0.0375 0.1125 0.0625 0 0.2375 0.575 0.4 1.2875 0.35 1.575 1.475 5.6125 2.1375 7.7375 l0.5 1.6 0.65 0.1875 c1.075 0.3125 3.3375 0.8 4.4375 0.9625 0.5625 0.0875 1.025 0.175 1.025 0.225 0 0.0375 0.4125 0.075 0.9 0.0875 0.5 0.025 1 0.075 1.1 0.1125 0.1 0.05 0.625 0.075 1.15 0.0625 0.525 -0.025 1.0375 0.0125 1.125 0.0625 0.0875 0.0625 0.5625 0.0875 1.0375 0.075 0.4875 -0.0125 0.9625 0.025 1.0625 0.0875 0.1 0.075 0.275 0.1125 0.375 0.075 0.1 -0.025 0.4625 -0.1125 0.7875 -0.2z m9.9125 -6.2375 c0.55 -0.075 1.4 -0.2625 1.875 -0.425 l0.8625 -0.2875 -0.0125 -1.3 c-0.0125 -1.2875 -0.15 -2.2875 -0.7375 -5.1125 -0.1625 -0.7875 -0.35 -1.85 -0.4375 -2.3375 l-0.15 -0.9125 -0.4625 0 c-0.25 0 -0.7875 0.0875 -1.175 0.1875 -0.4 0.1 -0.9 0.1875 -1.1125 0.1875 l-0.3875 0 0.075 2.475 c0.125 4.175 0.3625 7.65 0.5125 7.65 0.0875 0 0.6 -0.0625 1.15 -0.125z m-28.7 -8.9875 c0 -0.1875 -0.225 -1.9625 -0.5 -3.95 -0.675 -4.8375 -1.1125 -8.5 -1.2125 -9.9125 -0.0375 -0.6375 -0.125 -1.1875 -0.1875 -1.225 -0.05 -0.0375 -0.1 -0.275 -0.1 -0.55 0 -0.475 -0.0125 -0.475 -0.65 -0.625 -0.475 -0.125 -1.275 -0.1375 -2.9375 -0.075 -2.1625 0.075 -2.2875 0.075 -2.2875 -0.1375 0 -0.4 0.375 -0.775 0.9125 -0.925 1.1875 -0.3125 1.6 -0.5125 1.725 -0.825 0.15 -0.4 0.025 -0.9 -0.325 -1.2875 -0.15 -0.175 -0.35 -0.4375 -0.425 -0.5875 -0.1625 -0.3125 -0.1875 -0.7875 -0.0375 -0.7875 0.0625 0 0.625 0.325 1.25 0.7375 1.3875 0.8875 1.8625 1.1 2.05 0.9125 0.2 -0.2 0.4625 -1.475 0.55 -2.65 0.05 -0.625 -0.0125 -2 -0.125 -3.3125 -0.325 -3.6625 -0.2375 -5.2625 0.3125 -5.7625 0.2875 -0.2625 0.6125 -0.15 0.6125 0.2375 0 0.1625 0.0625 0.35 0.1375 0.425 0.125 0.125 -0.0375 3.75 -0.2125 4.5375 -0.0375 0.1625 -0.0625 1.4125 -0.0625 2.775 0.0125 2.3625 0.1 3.2375 0.4125 4.0125 l0.1375 0.35 1.0125 -0.075 c0.5625 -0.0375 1.9375 -0.1875 3.075 -0.3125 1.1375 -0.1375 2.425 -0.275 2.875 -0.3 0.45 -0.0375 1.625 -0.15 2.625 -0.25 1 -0.1 1.9 -0.175 2 -0.175 0.1 0 1.0375 -0.0625 2.0625 -0.1375 1.4875 -0.1125 6.675 -0.3875 7.4125 -0.3875 0.3375 0 0.125 -0.3375 -0.3125 -0.4875 -1.825 -0.65 -8.25 -3.7625 -9.35 -4.5125 -1.1125 -0.7625 -1.15 -1.6 -0.1375 -2.975 0.675 -0.9 0.95 -1.425 0.95 -1.775 0 -0.3125 -0.075 -0.3125 -0.8125 0.0125 -1.25 0.55 -2.1375 0.075 -2.9375 -1.55 -0.5375 -1.1125 -1.9875 -5.9875 -2.2625 -7.6 l-0.15 -0.95 -2.975 -1.475 c-4.7 -2.325 -5.8875 -3.1625 -8.025 -5.625 -0.5375 -0.6125 -1.175 -1.275 -1.4125 -1.4625 l-0.4375 -0.325 -1.1 0.475 c-3.6625 1.5875 -7.4125 3.875 -12.225 7.475 l-2.5375 1.8875 0.375 0.825 c0.2 0.45 0.3375 0.8125 0.3 0.8125 -0.025 0 0.025 0.125 0.125 0.2875 0.775 1.2 2.675 7.2875 3.6375 11.6625 0.425 1.9375 1.0875 5.5625 1.05 5.7625 -0.0125 0.05 0.0125 0.2 0.075 0.325 0.05 0.1125 0.0625 0.35 0.0375 0.525 -0.0375 0.1625 -0.025 0.325 0.0125 0.3375 0.2 0.0875 0.8375 6.7 0.95 9.7875 0.1125 2.775 0.125 2.8875 0.575 3.075 0.2125 0.075 0.45 0.2125 0.525 0.3 0.225 0.2125 4.7375 2.5625 6.475 3.375 2.7125 1.25 5.9125 2.2125 8.05 2.4 0.4125 0.0375 0.7625 0.075 0.7875 0.1 0.0125 0.0125 0.175 0 0.3375 -0.0375 0.2375 -0.0375 0.3125 -0.1375 0.3125 -0.3875z m29.375 -3.45 c2.5375 -0.45 2.3 -0.2875 2.2125 -1.425 -0.05 -0.525 -0.1625 -2.05 -0.275 -3.3875 -0.2875 -3.6875 -0.5625 -6.4125 -0.6875 -6.6875 -0.05 -0.1375 -0.1625 -0.5875 -0.2375 -1 -0.075 -0.4125 -0.2 -0.975 -0.275 -1.2375 l-0.1375 -0.4875 -1.2 0.075 c-0.675 0.0375 -1.55 0.15 -1.95 0.2375 l-0.7375 0.1625 0.0875 3.25 c0.075 2.975 0.35 8.125 0.525 10.0375 0.075 0.775 0.075 0.775 0.475 0.775 0.2125 0 1.2125 -0.1375 2.2 -0.3125z m17.75 -1.4625 c0 -0.0625 0.1875 -0.1 0.4125 -0.1 0.5875 0 2.0125 -0.325 2.5375 -0.575 1.6875 -0.8 2.925 -3.0625 2.925 -5.35 0 -1.9125 -1.5625 -8.025 -2.425 -9.5 -0.625 -1.075 -2.0125 -1.9375 -3.1125 -1.95 -0.4625 0 -0.85 0.1375 -1.8125 0.6125 -0.6625 0.325 -2.1375 0.925 -3.275 1.3125 -2.3875 0.8375 -3.9375 1.55 -4.4375 2.075 l-0.35 0.3625 0.2625 1.1625 c0.3875 1.675 0.625 3.2625 0.9625 6.6625 0.175 1.65 0.3125 3.05 0.3125 3.1125 0 0.075 1.0375 0.075 2.6 0 1.425 -0.0625 3.175 -0.1125 3.9 -0.1 1.4 0 2.925 0.25 2.6125 0.425 -0.1 0.05 -1.075 0.275 -2.175 0.5 -1.1 0.2125 -2.25 0.5125 -2.5625 0.65 l-0.5625 0.25 0.375 0.175 c0.2125 0.0875 0.5 0.1625 0.65 0.175 0.15 0 0.3 0.0375 0.325 0.1 0.0375 0.05 0.6875 0.0875 1.45 0.0875 0.7625 0 1.3875 -0.0375 1.3875 -0.0875z m-11.9375 -0.975 c0.275 -0.0375 0.9125 -0.2125 1.4125 -0.375 l0.9 -0.3 0 -1.4375 c0 -1.3875 -0.35 -4.725 -0.6375 -5.9875 -0.2375 -1.125 -0.6375 -2.3375 -1.0125 -3.175 l-0.3875 -0.85 -1.35 0 -1.3625 0 0 0.35 c0 0.4125 0.2375 2.2125 0.7 5.1875 0.175 1.1625 0.2875 2.1375 0.25 2.175 -0.0375 0.05 -0.0125 0.15 0.0625 0.2375 0.075 0.0875 0.1625 0.575 0.2 1.075 0.025 0.5 0.125 1.4625 0.2 2.1375 0.1125 1.0375 0.1625 1.2125 0.325 1.1375 0.1125 -0.05 0.425 -0.125 0.7 -0.175z m-55.3625 -12.0875 c-0.5875 -4.625 -1.275 -7.4625 -2.6375 -10.975 -0.8125 -2.1 -2.45 -6.6375 -2.9375 -8.125 -0.275 -0.8375 -0.425 -1.6 -0.4625 -2.3125 -0.1125 -1.775 0.3 -2.3 2.7625 -3.575 0.7625 -0.3875 1.975 -1.1125 2.7 -1.6125 1.4375 -0.9875 3.3125 -2.125 6.5625 -4 3.85 -2.225 4.5 -2.6125 4.925 -3.0125 0.3875 -0.35 0.425 -0.45 0.4125 -1 -0.0125 -0.75 -0.2 -1.2125 -1.025 -2.5375 -0.9875 -1.5875 -1.625 -3.35 -1.85 -5.0625 l-0.0875 -0.725 -0.9375 -0.2875 c-1.7375 -0.5125 -2.775 -1.125 -3.9875 -2.325 -3.5 -3.4875 -4.7625 -11.3125 -2.3875 -14.7875 0.425 -0.625 0.5 -0.825 0.5 -1.375 0 -0.85 -0.125 -1.575 -0.275 -1.575 -0.0625 0 -0.7 0.5875 -1.4125 1.3 -6.0375 6.125 -10.15 13.775 -11.9375 22.1875 -0.7375 3.475 -0.925 5.3375 -0.925 9.3875 -0.0125 3.75 0.0625 4.725 0.5625 7.8125 1.175 7.1 4.3 14.2375 8.7625 19.975 1.125 1.45 3.725 4.375 3.8125 4.2875 0.0375 -0.025 -0.025 -0.775 -0.1375 -1.6625z m49.2375 -2.4375 c0.2125 -0.0625 1.3625 -0.1625 2.5625 -0.225 2.6125 -0.1375 3.6125 -0.3625 4.075 -0.9 0.45 -0.55 0.6375 -0.95 1.925 -4.1625 2.6 -6.5125 4.75 -14 4.75 -16.575 0 -1.5 -0.275 -1.9125 -2.5 -3.7 -0.5125 -0.4125 -2.025 -1.8 -3.3625 -3.0875 -1.325 -1.275 -2.4625 -2.325 -2.5125 -2.325 -0.05 0 -0.3375 0.2375 -0.6375 0.5375 -0.3 0.2875 -1 0.8875 -1.5375 1.3375 -0.55 0.45 -1.0125 0.875 -1.0375 0.9625 -0.05 0.15 0.2625 0.15 0.4125 0 0.05 -0.05 0.3875 -0.0875 0.7375 -0.0875 0.525 0 0.75 0.075 1.15 0.3625 0.5125 0.375 1.1125 1.1 1 1.2125 -0.0375 0.0375 0.1 0.425 0.2875 0.85 1.025 2.25 1.1125 7.0375 0.175 9.275 -0.1 0.225 -0.175 0.5375 -0.175 0.7 0 0.325 0.55 1.1625 1.025 1.575 0.1875 0.15 0.375 0.4 0.4125 0.5375 0.1 0.3 -0.675 1.6875 -4.0625 7.2375 -3.1 5.0875 -4 6.6125 -4 6.825 0 0.15 0.075 0.15 0.475 -0.025 0.25 -0.1125 0.6375 -0.25 0.8375 -0.325z m-4.6875 -1.2125 c0 -0.1875 -2.3625 -5.65 -3.125 -7.2 -1.2125 -2.5 -3.05 -5.35 -3.3625 -5.2375 -0.0875 0.025 -0.875 0.55 -1.7375 1.15 -2.55 1.7625 -3.875 3.25 -4.4625 5.0125 -0.1125 0.3625 -0.1875 0.675 -0.175 0.6875 0.2125 0.175 3.5375 1.9125 4.95 2.575 0.975 0.4625 1.7375 0.8875 1.6875 0.9375 -0.05 0.0625 -0.025 0.0625 0.05 0.025 0.0875 -0.05 0.7 0.15 1.375 0.4375 1.1375 0.475 4.4875 1.7 4.7125 1.7125 0.05 0.0125 0.0875 -0.0375 0.0875 -0.1z m3.9 -1.3875 c1.2625 -1.775 2.175 -3.225 4.4375 -7.05 1.4875 -2.5375 1.875 -3.2875 1.7875 -3.4625 -0.2625 -0.475 -1.35 -1.425 -2 -1.725 -0.575 -0.275 -0.8625 -0.325 -1.75 -0.325 -0.7 0 -1.1875 0.0625 -1.4375 0.1875 l-0.375 0.1875 -0.15 2.3125 c-0.2625 4.2125 -0.7125 7.6 -1.35 10.05 -0.175 0.6625 -0.3125 1.2375 -0.3125 1.2875 0 0.125 0.1125 -0.025 1.15 -1.4625z m11.4875 0.6125 c2.65 -1.2 4.925 -1.925 6.8875 -2.175 l0.5875 -0.075 0.6375 -1.1125 c7.275 -12.7125 7.9 -28.6875 1.625 -41.825 -1.925 -4.0375 -4.0875 -7.3 -7.175 -10.85 l-0.425 -0.5 -0.0625 0.8125 c-0.0375 0.4375 -0.125 1.7625 -0.2 2.925 -0.2875 4.6 -1.2 9.3375 -2.6625 13.875 -0.5 1.5375 -0.725 2.0375 -2.4 5.225 -0.8625 1.65 -0.8875 1.9625 -0.2125 2.8 0.5125 0.65 0.8625 0.975 4.7625 4.375 3.3875 2.9625 3.75 3.45 3.75 5.0375 -0.0125 0.5125 -0.1125 1.3625 -0.2375 1.875 -0.6 2.4375 -4.9 15.8 -6.2375 19.35 -0.2125 0.5625 -0.3625 1.025 -0.35 1.025 0.025 0 0.7875 -0.3375 1.7125 -0.7625z m-13.15 -0.825 c0.5125 -2.1125 0.7625 -4.4625 0.95 -8.6 0.0375 -0.8875 0.1 -2.05 0.1375 -2.575 l0.075 -0.9375 -0.7 -0.1625 c-0.4375 -0.1 -1.075 -0.4 -1.75 -0.8375 -1.3625 -0.8875 -1.65 -0.9375 -2.8375 -0.425 -0.7 0.2875 -1.075 0.3875 -1.5375 0.3625 -0.5875 -0.0375 -0.6375 -0.0125 -1.075 0.5 l-0.4625 0.5375 0.6625 0.9375 c0.375 0.525 0.9875 1.5 1.375 2.1625 0.6875 1.225 2.5 5.1375 2.575 5.575 0.025 0.1375 0.075 0.2625 0.1125 0.3 0.1125 0.1 1.6375 3.4125 1.65 3.6 0 0.075 0.0625 0.15 0.125 0.15 0.075 0 0.1 0.0375 0.05 0.075 -0.075 0.075 0.1625 0.4125 0.3 0.425 0.05 0 0.2 -0.4875 0.35 -1.0875z m-15.05 -8.975 c2.2625 -0.775 3.5875 -1.55 5.8125 -3.4 0.725 -0.6125 1.4625 -1.2125 1.65 -1.35 0.2875 -0.225 0.3375 -0.35 0.375 -1.125 l0.0375 -0.875 -0.75 -0.3 c-0.4125 -0.1625 -1.1375 -0.3625 -1.625 -0.4375 -0.475 -0.0875 -0.8125 -0.1875 -0.7375 -0.225 0.0625 -0.05 0.5875 -0.2 1.175 -0.35 1.425 -0.3625 1.75 -0.55 1.75 -0.975 0 -0.325 -0.05 -0.3625 -0.7375 -0.5 -0.45 -0.1 -1.1125 -0.3875 -1.7625 -0.775 -2.95 -1.775 -7.4375 -3.325 -8.65 -2.9875 -1.2 0.325 -1.625 1.625 -1.6125 4.925 0.0125 2.5125 0.1875 3.375 1.325 6.4625 0.975 2.6125 0.8 2.3875 1.8625 2.3125 0.4875 -0.025 1.3375 -0.2125 1.8875 -0.4z m21.7125 -4.9625 c0.4125 -0.7875 0.5125 -1.55 0.4375 -3.325 -0.125 -2.85 -0.7375 -5.0875 -1.55 -5.6125 -0.5125 -0.3375 -1.55 -0.275 -2.6 0.175 -0.4875 0.2 -1.6625 0.875 -2.625 1.4875 -0.9625 0.625 -1.8875 1.2125 -2.0625 1.3 -0.175 0.0875 -0.325 0.175 -0.35 0.1875 -0.0125 0.0125 0.0875 0.4 0.2375 0.8375 l0.2625 0.825 0.775 -0.0625 c0.4625 -0.0375 0.9875 0.0125 1.325 0.125 l0.5625 0.175 -0.75 0.1 c-0.4125 0.05 -0.95 0.175 -1.2125 0.275 -0.525 0.2125 -0.6 0.45 -0.55 1.9 0.0375 1.1 -0.1875 0.9625 2.45 1.45 1.5625 0.2875 3.5 0.5 4.875 0.55 0.525 0.0125 0.5875 -0.025 0.775 -0.3875z m-10.475 -1.3375 c1.1625 -0.65 1.0625 -2.8875 -0.15 -3.4625 -0.5125 -0.2375 -1.2875 -0.175 -1.875 0.1625 -0.2875 0.1625 -0.3875 0.325 -0.4375 0.6625 -0.05 0.4625 0.325 2.6 0.5 2.7625 0.275 0.2625 1.4 0.2 1.9625 -0.125z m-17.8875 -4.8625 c0.2875 -1.3375 0.275 -1.625 -0.0625 -1.7125 -0.1625 -0.025 -1.1875 -0.1375 -2.3 -0.2375 -1.35 -0.125 -2.25 -0.275 -2.75 -0.45 -1.125 -0.4 -1.225 -0.4 -1.275 0.1375 -0.025 0.375 0.0375 0.525 0.35 0.85 0.75 0.75 2.6375 1.6375 4.5625 2.1375 1.3 0.35 1.2375 0.3875 1.475 -0.725z m19.375 -1.35 c0.8375 -0.6625 1.6 -1.2375 1.675 -1.2625 0.0875 -0.0375 0.1625 -0.1 0.1625 -0.1625 0 -0.125 -1.1125 0.0625 -3.0625 0.5 -2.425 0.5625 -3.625 0.6875 -4.7125 0.5 -1.725 -0.2875 -1.9 -0.175 -0.85 0.525 1.15 0.7625 2.325 1.0875 3.9125 1.1 l1.3375 0 1.5375 -1.2z m-18.0625 -2.1125 c0.75 -0.7625 2.075 -1 4.275 -0.775 0.6375 0.0625 0.85 0.05 0.65 -0.0375 -2.375 -1.025 -7.6875 -6.4375 -9.125 -9.325 -0.4125 -0.8125 -0.825 -2.1 -0.75 -2.325 0.025 -0.075 0.575 0.5875 1.225 1.475 4.15 5.6875 7.5125 8.4625 12.1875 10.025 2.75 0.9125 5.8875 0.7875 9.425 -0.4125 2.7 -0.9 6.15 -2.9125 7.3875 -4.2875 0.8625 -0.95 3.475 -4.85 4.325 -6.45 1.925 -3.65 3.2375 -7.95 3.9375 -12.8875 0.325 -2.3375 0.45 -7.4125 0.25 -10.8125 -0.325 -5.6125 -0.775 -7.2875 -2.45 -8.95 -1.8875 -1.875 -4.45 -2.525 -6.2875 -1.6 -0.325 0.1625 -0.6 0.3 -0.6125 0.3 -0.125 0 0 -0.85 0.1625 -1.2 0.6375 -1.35 2.3625 -1.9875 4.3375 -1.625 l0.6125 0.1125 -0.175 -0.325 c-0.325 -0.625 -3.3875 -4.35 -4.3875 -5.35 -1.3375 -1.325 -2.175 -1.95 -3.675 -2.7125 -3.075 -1.575 -6.8375 -2.7375 -10.2 -3.15 -1.55 -0.2 -5.325 -0.0875 -6.4875 0.175 -1.95 0.45 -4.875 1.9125 -8.0375 4.0125 -3.5125 2.3375 -5.7125 4.5 -7 6.85 l-0.4625 0.8375 0.3125 1.1625 c0.625 2.2375 0.575 3.325 -0.3625 7.925 -0.5125 2.5125 -0.5875 3.05 -0.6 4.5375 0 1.5875 0.025 1.825 0.525 3.825 0.6375 2.6125 0.725 3.175 0.525 3.5375 -0.2625 0.5 -1.3625 0.9 -2.675 0.975 l-1.1625 0.075 -0.2875 -1.1625 c-0.7125 -2.8875 -2.05 -4.25 -4.1375 -4.25 -2.5 0 -4.5875 1.5875 -5.4375 4.125 -0.2875 0.85 -0.3125 2.6 -0.0625 3.75 0.25 1.125 0.9875 2.925 1.575 3.8125 1.0875 1.6625 2.6875 2.825 4.125 3 1.175 0.15 1.6875 0 2.8125 -0.8125 0.9 -0.65 1.6625 -1 1.825 -0.8375 0.1375 0.1375 0.1625 1 0.025 1.25 -0.075 0.15 -0.4625 0.6375 -0.8625 1.075 -0.85 0.925 -0.95 1.25 -0.7375 2.5375 0.5 2.9875 2.4625 7.9625 4.1375 10.425 1.05 1.5625 2.4 2.4875 4.525 3.1 1.3625 0.4 3.9 0.7625 5.65 0.8 0.7 0.025 0.775 0 1.1625 -0.4125z m-13.975 -31.85 c0 -0.025 -0.2375 -0.2625 -0.525 -0.525 l-0.5375 -0.5 0.5 0.5375 c0.45 0.4875 0.5625 0.5875 0.5625 0.4875z m-4.5875 -2.3 c-0.1625 -0.025 -0.4375 -0.025 -0.625 0 -0.2 0.025 -0.0625 0.05 0.275 0.05 0.35 0 0.5 -0.025 0.35 -0.05z"/>
  <path d="M96.4375 98.875 l-1.25 -0.0625 0.5 -0.25 c0.275 -0.125 0.7625 -0.2375 1.1 -0.2375 0.325 -0.0125 0.5875 -0.05 0.5875 -0.1 0 -0.1375 1.1 -0.125 1.175 0.0125 0.0375 0.0625 0.3375 0.075 0.65 0.0375 0.45 -0.05 0.5625 -0.025 0.4875 0.1 -0.0625 0.1125 -0.025 0.125 0.1625 0.075 0.2375 -0.075 2.525 0.375 2.525 0.5 0 0.075 -4.3875 0.0125 -5.9375 -0.075z"/>
  <path d="M95.55 95.6375 c0.275 -0.3 1.5 -0.6875 1.8875 -0.5875 0.1625 0.0375 0.3375 0.025 0.375 -0.05 0.0875 -0.1375 0.725 -0.175 0.8375 -0.05 0.0375 0.0375 0.425 0.0875 0.8625 0.1125 0.4375 0.025 1.1125 0.1125 1.4875 0.2 l0.6875 0.1625 -0.625 0.0875 c-1.1875 0.1875 -3.5 0.3625 -4.6125 0.3625 -1.0875 0 -1.1125 -0.0125 -0.9 -0.2375z"/>
  <path d="M94.2125 93.9625 c0.975 -1.25 3.0125 -2.2 5.1 -2.4 l0.75 -0.0625 -0.5 0.2375 c-0.275 0.125 -1.1625 0.625 -1.975 1.1125 -1.4625 0.875 -2.175 1.175 -3.1375 1.35 l-0.5 0.0875 0.2625 -0.325z"/>
  <path d="M78.4875 81.775 c-0.575 -0.475 -0.2125 -1.525 0.5375 -1.525 0.7625 0 1.1375 0.975 0.575 1.5 -0.3375 0.3125 -0.7375 0.325 -1.1125 0.025z"/>
  <path d="M77.525 77.375 c-0.1625 -0.15 -0.275 -0.4125 -0.275 -0.6125 0 -0.4125 0.4625 -0.8875 0.8625 -0.8875 0.35 0 0.8875 0.525 0.8875 0.875 0 0.35 -0.5375 0.875 -0.9125 0.875 -0.1625 0 -0.4125 -0.1125 -0.5625 -0.25z"/>
  <path d="M73.725 55.45 c-2.0875 -0.475 -3 -1.175 -4.7125 -3.575 -0.375 -0.5125 -0.975 -1.2625 -1.3375 -1.65 -0.375 -0.3875 -0.675 -0.7625 -0.675 -0.85 0 -0.15 0.5125 -0.375 0.85 -0.375 0.1375 0 0.35 0.275 0.5875 0.725 0.9875 1.9 3.0375 3.0375 6.275 3.4625 0.95 0.125 2.5125 0.1875 4.7375 0.1875 l3.3125 0 -0.4 0.575 c-0.45 0.6625 -1.175 1.05 -2.55 1.3625 -1.1875 0.275 -5.1 0.3625 -6.0875 0.1375z"/>
  <path d="M78.375 50.55 c-3.6 -0.25 -6.9125 -1.3625 -8.3875 -2.8375 -0.375 -0.375 -0.775 -0.8625 -0.9 -1.075 l-0.225 -0.3875 0.55 0.2375 c1.6625 0.7125 4.475 1.125 8.475 1.225 l2.9625 0.075 0.075 0.45 c0.0375 0.25 0.075 0.8875 0.075 1.425 l0 0.9625 -1.025 -0.025 c-0.575 -0.0125 -1.2875 -0.0375 -1.6 -0.05z"/>
  <path d="M82.275 49 l0.0375 -1.4125 1.1625 -0.2375 c1.4625 -0.2875 2.6125 -0.75 4.8375 -1.925 0.975 -0.5125 1.8125 -0.925 1.85 -0.925 0.1125 0 -0.575 1.15 -1.2375 2.075 -0.6625 0.95 -2.1125 2.3 -2.975 2.7875 -0.825 0.475 -2 0.85 -2.9625 0.9625 l-0.75 0.0875 0.0375 -1.4125z"/>
  <path d="M75.65 45.4375 c-0.5 -0.6125 -0.775 -1.425 -0.775 -2.275 0 -0.6375 0.3 -1.6625 0.5 -1.6625 0.05 0 0.2125 0.475 0.3625 1.05 0.2125 0.775 0.375 1.1375 0.65 1.4 0.375 0.3625 0.3875 0.3625 1.9625 0.3625 1.45 -0.0125 1.6875 -0.0375 2.7125 -0.4 0.625 -0.225 2.05 -0.825 3.1875 -1.3375 2.275 -1.05 2.4375 -1.1875 2.5875 -2.4375 0.1 -0.8625 -0.25 -1.5375 -1.5625 -3.05 -3.0875 -3.5625 -4.3875 -5.425 -5.3375 -7.6875 -0.7375 -1.7625 -1.0625 -3.9375 -0.6125 -4.1125 0.2625 -0.1 0.5125 0.2375 0.675 0.9 0.5375 2.1375 3.9625 6.975 7.475 10.5625 0.8375 0.8625 1.5625 1.7 1.6125 1.85 0.0375 0.1625 -0.05 0.7 -0.2125 1.1875 -0.15 0.5 -0.3375 1.175 -0.4125 1.5 -0.1375 0.5875 -0.1625 0.6125 -1.5375 1.4625 -3.525 2.1625 -5.8125 2.95 -9.0625 3.0875 l-1.8125 0.075 -0.4 -0.475z"/>
  <path d="M39.95 40.975 c-0.6 -1.2625 -0.7125 -3.2125 -0.25 -4.5375 0.2875 -0.8375 0.25 -0.9375 -0.35 -0.9375 -0.425 0 -0.6125 0.075 -0.95 0.4125 -0.4125 0.3875 -0.425 0.3875 -0.3375 0.0875 0.175 -0.625 0.7125 -1.3875 1.1875 -1.7 0.6375 -0.425 1.3125 -0.5 2.1 -0.25 1.775 0.5875 3.025 2.4625 3.025 4.525 0 0.6 -0.0375 0.8125 -0.15 0.775 -0.0875 -0.025 -0.4625 -0.6125 -0.8125 -1.3 -0.775 -1.4625 -1 -1.675 -1.725 -1.675 -0.4375 0 -0.6 0.0625 -0.7875 0.3125 -0.4 0.5 -0.575 1.5 -0.575 3.275 -0.0125 0.9125 -0.025 1.6625 -0.0375 1.6625 -0.0125 0 -0.1625 -0.3 -0.3375 -0.65z"/>
  <path d="M67.6875 33.175 c-1.975 -0.4875 -2.725 -1.1875 -2.3125 -2.1875 0.1875 -0.425 0.3375 -0.45 1.875 -0.175 1.55 0.275 2.8 0.25 3.4625 -0.075 0.3 -0.1375 0.5375 -0.325 0.5375 -0.4 0 -0.0875 -0.1875 -0.4625 -0.4125 -0.8375 -1.0375 -1.7375 -1.7875 -3.6625 -1.925 -4.875 -0.0875 -0.9375 0.075 -0.9625 0.4625 -0.0875 1.2625 2.8375 1.4625 3.1875 2.4875 4.2625 1.0625 1.1375 1.25 1.5375 1.0875 2.4 -0.1125 0.55 -0.9125 1.3625 -1.7 1.7125 -0.4375 0.2 -0.875 0.2625 -1.9375 0.2875 -0.75 0.025 -1.4875 0.0125 -1.625 -0.025z"/>
  <path d="M87.5375 31.8625 c-0.5375 -0.1625 -1.1375 -0.7875 -1.2375 -1.3 -0.125 -0.7 -0.1 -0.7125 2.275 -0.9375 1.45 -0.1375 2.175 -0.3125 2.175 -0.525 0 -0.075 -0.225 -0.725 -0.5 -1.4625 -0.65 -1.7375 -0.875 -2.6625 -0.875 -3.5125 l0.0125 -0.6875 1.175 2.4 c0.6375 1.325 1.375 2.75 1.625 3.15 0.3625 0.6 0.425 0.8 0.325 1 -0.3375 0.625 -1.8 1.475 -3.1 1.8125 -0.8375 0.225 -1.275 0.2375 -1.875 0.0625z"/>
  <path d="M57.7 22.6 c-0.4375 -0.6125 -0.0625 -2.275 0.7625 -3.5125 1.475 -2.1875 3.9 -3.75 5.8 -3.7375 1.3875 0.0125 2.7375 1.2125 2.3875 2.1375 -0.1 0.2875 -0.1375 0.2875 -1.85 0.3125 -1.6625 0.0125 -1.775 0.025 -2.55 0.4 -1.4875 0.7125 -2.6 1.85 -3.65 3.7625 -0.275 0.5 -0.55 0.9125 -0.6 0.9125 -0.0625 0 -0.2 -0.125 -0.3 -0.275z"/>
</g>

</svg>