<svg xmlns="http://www.w3.org/2000/svg" viewBox="0 0 128 128"><path d="M69.377.016c-.76-.023-1.525-.02-2.291.007-2.732.1-6.555.627-6.969.965-.075.063-.16.087-.199.05-.15-.163-5.038 1.59-6.93 2.493-1.015.476-4.124 2.18-6.392 3.496-2.32 1.354-4.362 3.008-5.403 4.387-.651.865-1.464 2.458-1.74 3.41-.163.552-.264.664-.777.94-.765.4-1.868 1.503-2.406 2.418-.803 1.366-1.442 3.748-1.604 6.004l-.076 1.09-1.541 1.392c-5.376 4.875-9.914 11.642-12.383 18.473-2.306 6.328-3.196 12.142-2.934 18.972.376 9.75 3.924 19.44 9.977 27.21 1.404 1.792 3.573 4.173 5.039 5.527l1.215 1.127.088 1.039c.05.564.137 2.306.187 3.873.163 4.022.252 4.16 3.121 5.289.802.313 2.457 1.065 3.66 1.654 2.457 1.216 3.735 1.779 5.202 2.318 1.98.727 4.472 1.165 6.19 1.09l.927-.037.289.94c.15.514.75 2.544 1.34 4.511.588 1.967 1.415 4.552 1.842 5.729l.777 2.168.816.25c1.453.45 4.386.952 6.805 1.178.314.025 2.657.026 5.201.013 8.384-.062 10.916-.589 12.031-2.494.313-.54.314-.564.176-1.717-.075-.651-.115-1.366-.09-1.603l.04-.44 1.189-.263c2.244-.502 3.221-1.166 3.584-2.407.276-.952.177-2.017-.475-4.861-.501-2.257-.728-4.312-.552-5.227.063-.363.15-.451.726-.652.915-.326 1.318-.764 1.43-1.553l.074-.627.715-.263c1.34-.488 2.218-.653 3.96-.715l1.755-.074.238.437c.451.865.765 1.04 2.244 1.278 1.58.238 4.398.277 5.664.064a14.269 14.269 0 0 0 1.754-.414c.752-.226.991-.377 1.643-1.016 1.629-1.629 2.67-4.875 2.52-7.908-.076-1.44-.39-2.743-1.38-5.639-1.19-3.496-2.043-4.912-3.334-5.576l-.513-.252.35-.664c.188-.35.377-.677.427-.715.05-.038.488-.889.951-1.879 1.492-3.12 2.52-5.94 3.348-9.25 2.192-8.747 1.853-18.046-.967-26.707-.276-.852-.613-1.815-.764-2.128a6.888 6.888 0 0 1-.289-.766c-.137-.665-2.581-5.651-2.832-5.738-.05-.025-.1-.114-.1-.202 0-.188-1.553-2.67-2.417-3.873-1.267-1.78-3.046-3.921-4.487-5.4l-1.466-1.518-.077-.876c-.601-6.342-1.89-10.98-3.896-13.913-1.98-2.907-5.84-6.816-8.51-8.646-3.312-2.237-8.38-3.62-13.701-3.78zm.174 2.746c.591.013 1.12.043 1.508.093 3.37.414 7.143 1.58 10.226 3.159 1.504.764 2.344 1.39 3.686 2.718 1.002 1.003 4.072 4.737 4.398 5.364l.176.326-.615-.111c-1.981-.364-3.71.275-4.348 1.628-.163.351-.288 1.204-.164 1.204.013 0 .29-.139.615-.301 1.843-.928 4.41-.277 6.303 1.603 1.678 1.667 2.13 3.347 2.457 8.975.2 3.409.075 8.497-.25 10.84-.703 4.95-2.02 9.26-3.95 12.92-.851 1.604-3.47 5.514-4.335 6.466-1.24 1.38-4.7 3.397-7.406 4.3-3.548 1.202-6.693 1.328-9.45.413-4.687-1.567-8.058-4.349-12.218-10.05-.652-.89-1.204-1.554-1.229-1.479-.075.226.338 1.515.752 2.33 1.44 2.895 6.767 8.322 9.148 9.35.201.087-.013.1-.652.037-2.206-.226-3.533.013-4.285.777-.388.414-.464.44-1.166.414-1.755-.038-4.299-.401-5.664-.802-2.13-.615-3.484-1.542-4.537-3.108-1.68-2.47-3.647-7.458-4.149-10.453-.212-1.291-.112-1.616.74-2.543.402-.438.789-.928.864-1.078.138-.25.115-1.116-.024-1.254-.162-.162-.927.188-1.83.84-1.128.814-1.642.965-2.82.814-1.442-.175-3.045-1.34-4.135-3.008-.59-.889-1.33-2.694-1.58-3.822-.25-1.153-.225-2.907.063-3.76.852-2.544 2.946-4.134 5.453-4.134 2.092 0 3.432 1.364 4.146 4.26l.29 1.165 1.165-.076c1.317-.075 2.42-.475 2.682-.976.2-.363.112-.928-.527-3.547-.502-2.005-.526-2.243-.526-3.834.013-1.492.089-2.031.602-4.55.94-4.613.99-5.702.363-7.946l-.314-1.164.465-.84c1.29-2.356 3.495-4.525 7.017-6.87 3.17-2.105 6.104-3.57 8.059-4.02.874-.199 3.221-.31 4.996-.27zm-5.21 12.476c-1.904-.013-4.336 1.554-5.816 3.746-.827 1.242-1.202 2.907-.763 3.522.1.15.238.275.3.275.05 0 .326-.413.602-.914 1.053-1.918 2.17-3.056 3.66-3.771.777-.376.89-.39 2.557-.403 1.716-.025 1.753-.024 1.853-.312.351-.928-1-2.13-2.392-2.143zm25.19 8.108-.011.69c0 .851.225 1.778.876 3.52.276.74.502 1.392.502 1.467 0 .213-.727.387-2.181.526-2.381.225-2.407.24-2.281.941.1.514.701 1.14 1.24 1.303h.002c.601.174 1.04.163 1.879-.063 1.303-.337 2.77-1.19 3.107-1.816.1-.2.039-.402-.324-1.004-.25-.4-.991-1.83-1.631-3.158l-1.178-2.406zm-20.474.465c-.079.014-.097.256-.053.726.137 1.215.889 3.144 1.93 4.887.224.376.414.752.414.84 0 .075-.239.263-.54.4-.663.326-1.918.352-3.472.076-1.541-.275-1.69-.25-1.879.176-.414 1.003.337 1.705 2.318 2.193.138.038.877.049 1.63.024 1.064-.025 1.505-.087 1.943-.287.79-.35 1.59-1.166 1.703-1.717.163-.864-.025-1.266-1.09-2.406-1.028-1.078-1.228-1.43-2.494-4.274-.194-.439-.332-.652-.41-.638zm10.386 1.39c-.45.175-.124 2.357.616 4.123.952 2.268 2.254 4.136 5.35 7.707 1.316 1.517 1.668 2.193 1.568 3.057-.15 1.253-.315 1.392-2.596 2.445-1.14.514-2.569 1.114-3.195 1.34-1.028.364-1.267.39-2.721.402-1.58 0-1.59 0-1.967-.363-.275-.264-.439-.627-.652-1.404-.15-.577-.313-1.053-.364-1.053-.2 0-.5 1.027-.5 1.666 0 .852.275 1.669.776 2.283l.402.475 1.817-.076c3.258-.138 5.551-.925 9.085-3.094 1.38-.852 1.405-.878 1.543-1.467.075-.326.262-1.002.413-1.504.163-.489.25-1.028.212-1.191-.05-.15-.777-.988-1.617-1.854-3.52-3.597-6.954-8.447-7.494-10.59-.162-.664-.412-1.002-.676-.902zm-44.716 3.596c.15 0 .277.728.277 1.58 0 .551-.076.752-.502 1.379-2.381 3.484-1.117 11.328 2.393 14.824 1.216 1.203 2.255 1.819 3.998 2.332l.939.29.09.726c.225 1.716.863 3.483 1.853 5.074.828 1.33 1.015 1.793 1.028 2.545.012.551-.025.65-.414 1.002-.426.4-1.078.792-4.938 3.021-3.258 1.881-5.137 3.02-6.578 4.01a28.56 28.56 0 0 1-2.707 1.617c-2.47 1.279-2.884 1.805-2.771 3.584.038.715.189 1.478.464 2.319.489 1.49 2.132 6.04 2.946 8.146 1.366 3.522 2.055 6.365 2.644 11.002.113.89.175 1.643.137 1.668-.087.087-2.694-2.845-3.822-4.299-4.475-5.752-7.607-12.909-8.785-20.027-.502-3.095-.576-4.072-.563-7.832 0-4.06.186-5.928.926-9.412A44.861 44.861 0 0 1 33.31 30.102c.714-.715 1.352-1.305 1.416-1.305zm5.953.289a2.618 2.618 0 0 1 .627 0c.15.025-.001.049-.352.049-.338 0-.476-.024-.275-.05zm4.16 1.277.54.502c.289.264.526.5.526.526 0 .1-.113 0-.564-.489l-.502-.539zm50.846.766.425.502c3.095 3.56 5.264 6.828 7.194 10.877 6.291 13.17 5.665 29.187-1.63 41.933l-.64 1.116-.588.074c-1.967.25-4.25.979-6.906 2.181-.926.426-1.692.766-1.717.766-.012 0 .14-.466.352-1.03 1.341-3.558 5.652-16.954 6.254-19.398a10.717 10.717 0 0 0 .238-1.88c0-1.593-.363-2.08-3.76-5.051-3.91-3.41-4.262-3.735-4.775-4.387-.677-.84-.653-1.152.213-2.807 1.679-3.195 1.905-3.696 2.406-5.238 1.466-4.549 2.382-9.3 2.67-13.912.076-1.165.162-2.493.2-2.932l.064-.814zM40.26 33.857a2.234 2.234 0 0 0-.996.38c-.477.313-1.015 1.078-1.192 1.704-.087.301-.073.302.34-.087.338-.338.527-.415.953-.415.602 0 .638.102.35.942-.464 1.328-.35 3.283.252 4.549.175.35.326.65.338.65.013 0 .024-.75.037-1.666 0-1.779.175-2.782.576-3.283.188-.25.352-.315.791-.315.726 0 .952.214 1.728 1.68.351.689.728 1.278.815 1.303.113.037.15-.174.15-.776 0-2.068-1.253-3.947-3.033-4.537a2.63 2.63 0 0 0-1.11-.129zm50.049 10.606c-.039 0-.877.414-1.854.928-2.232 1.178-3.386 1.642-4.851 1.93l-1.166.238-.038 1.416-.037 1.416.752-.088c.965-.113 2.144-.489 2.97-.965.866-.49 2.32-1.843 2.983-2.795.664-.927 1.353-2.08 1.24-2.08zm-21.356 1.754.227.388c.124.214.525.702.902 1.079 1.479 1.477 4.799 2.595 8.408 2.845.313.012 1.03.036 1.606.05l1.027.025v-.965c0-.539-.039-1.18-.076-1.43l-.074-.451-2.971-.074c-4.01-.1-6.83-.514-8.498-1.229l-.55-.238zm-1.016 2.758c-.338 0-.851.226-.851.377 0 .088.302.462.678.851.363.39.964 1.141 1.34 1.654 1.717 2.407 2.632 3.108 4.724 3.584.99.226 4.914.138 6.104-.136 1.378-.314 2.105-.704 2.556-1.367l.4-.577h-3.32c-2.23 0-3.797-.063-4.75-.19-3.245-.424-5.3-1.565-6.29-3.47-.238-.451-.453-.726-.59-.726zm19.827 9.775c.05 0 1.19 1.054 2.52 2.332 1.34 1.29 2.856 2.68 3.37 3.094 2.231 1.792 2.508 2.207 2.508 3.71 0 2.583-2.157 10.088-4.764 16.618-1.29 3.22-1.478 3.622-1.93 4.174-.463.54-1.466.764-4.085.902-1.203.062-2.355.162-2.569.225-.2.075-.589.213-.84.326-.4.175-.476.176-.476.025 0-.213.904-1.741 4.012-6.842 3.396-5.564 4.172-6.957 4.072-7.257-.037-.138-.227-.389-.414-.54-.476-.413-1.027-1.252-1.027-1.578 0-.163.075-.475.175-.7.94-2.245.852-7.044-.175-9.3-.189-.426-.327-.816-.29-.853.114-.113-.487-.839-1.001-1.215-.401-.288-.626-.363-1.153-.363-.35 0-.69.036-.74.086-.15.15-.464.15-.414 0 .025-.087.49-.512 1.041-.963a41.04 41.04 0 0 0 1.541-1.342c.3-.3.589-.539.639-.539zm-41.871 2.406.439.326c.238.188.878.853 1.416 1.467 2.144 2.469 3.333 3.309 8.045 5.639l2.984 1.478.15.954c.276 1.617 1.73 6.504 2.268 7.619.802 1.629 1.692 2.106 2.946 1.554.74-.325.814-.327.814-.013 0 .35-.274.879-.951 1.78-1.016 1.38-.978 2.218.137 2.983 1.102.752 7.545 3.872 9.375 4.524.439.15.651.488.312.488-.74 0-5.94.276-7.432.389a97.769 97.769 0 0 1-2.068.138c-.1 0-1.001.076-2.004.176-1.002.1-2.181.212-2.633.25-.45.025-1.742.163-2.882.301-1.141.125-2.519.275-3.082.312l-1.016.077-.137-.352c-.314-.777-.4-1.653-.414-4.021 0-1.367.025-2.621.063-2.784.175-.79.338-4.423.213-4.548-.076-.076-.14-.265-.14-.428 0-.388-.324-.5-.612-.236-.552.5-.639 2.105-.313 5.777.112 1.316.175 2.694.125 3.32-.088 1.178-.352 2.458-.553 2.658-.188.189-.664-.026-2.054-.916-.627-.414-1.19-.738-1.252-.738-.15 0-.126.475.037.79.075.15.275.412.426.587.35.389.474.892.324 1.293-.125.313-.538.512-1.729.826-.538.15-.914.527-.914.928 0 .212.126.212 2.293.137 1.668-.063 2.47-.05 2.946.076.638.15.652.15.652.627 0 .275.05.513.1.55.062.038.15.59.187 1.229.1 1.416.54 5.088 1.217 9.938.275 1.993.5 3.771.5 3.959 0 .25-.075.353-.313.39-.163.037-.325.05-.338.037-.025-.024-.376-.063-.789-.101-2.143-.188-5.353-1.153-8.072-2.407-1.742-.814-6.265-3.17-6.49-3.382-.075-.089-.315-.227-.528-.301-.45-.189-.464-.3-.578-3.084-.112-3.095-.75-9.725-.95-9.813-.038-.012-.05-.174-.013-.338.026-.175.012-.414-.039-.527-.062-.125-.086-.274-.074-.324.038-.2-.626-3.835-1.053-5.777-.964-4.387-2.869-10.49-3.646-11.694-.1-.162-.152-.289-.127-.289.037 0-.1-.361-.3-.812l-.376-.828 2.543-1.893c4.826-3.61 8.587-5.903 12.258-7.494l1.102-.477zm38.927 2.686c.456-.03.845.04 1.102.209.815.526 1.43 2.77 1.555 5.627.075 1.78-.027 2.544-.44 3.334-.187.363-.249.401-.775.388-1.379-.05-3.322-.264-4.889-.552-2.645-.489-2.42-.35-2.457-1.453-.05-1.454.026-1.691.553-1.905.263-.1.8-.225 1.215-.275l.752-.102-.565-.174c-.338-.112-.864-.164-1.328-.126l-.777.064-.264-.828c-.15-.44-.25-.827-.236-.84.025-.012.174-.1.35-.188.175-.088 1.103-.676 2.068-1.302.965-.615 2.142-1.292 2.63-1.492a4.69 4.69 0 0 1 1.506-.385zm-5.156.135c.135-.007.205.005.205.037 0 .062-.076.125-.164.162-.075.025-.837.603-1.678 1.267l-1.54 1.203h-1.342c-1.592-.013-2.77-.34-3.922-1.103-1.053-.702-.878-.816.851-.527 1.09.187 2.294.063 4.725-.5 1.466-.33 2.46-.519 2.865-.54zm-27.232.128c.172-.017.48.085 1.045.286.5.175 1.402.325 2.755.45a70.347 70.347 0 0 1 2.307.237c.338.088.351.377.063 1.719-.238 1.115-.176 1.077-1.479.726-1.93-.5-3.822-1.392-4.574-2.144-.314-.326-.377-.476-.352-.852.025-.269.062-.404.235-.422zm9.966.506c1.716.095 5.485 1.48 8.073 3.037.651.388 1.314.678 1.765.778.69.138.74.174.74.5 0 .426-.325.615-1.753.978-.59.15-1.118.302-1.18.352-.075.037.264.136.74.224a9.117 9.117 0 0 1 1.63.438l.751.3-.037.878c-.038.777-.09.903-.377 1.129a52.175 52.175 0 0 0-1.654 1.353c-2.231 1.855-3.56 2.631-5.828 3.408v.002c-.552.188-1.403.376-1.891.4-1.066.076-.892.301-1.87-2.318-1.14-3.095-1.314-3.96-1.327-6.48-.012-3.309.414-4.61 1.617-4.936.152-.042.356-.056.601-.043zm13.075 3.453c.332-.028.655.016.912.135 1.215.577 1.315 2.82.15 3.47-.564.327-1.69.39-1.967.126-.175-.162-.552-2.304-.502-2.768.05-.339.151-.502.44-.666a2.38 2.38 0 0 1 .967-.297zm2.105 5.036c.392.06.805.295 1.488.74.677.438 1.317.737 1.756.838l.701.164-.074.94c-.038.526-.1 1.692-.138 2.581-.188 4.149-.44 6.504-.954 8.621-.15.602-.301 1.092-.351 1.092-.137-.013-.376-.35-.3-.426.05-.038.025-.076-.05-.076-.062 0-.125-.075-.125-.15-.012-.189-1.54-3.51-1.654-3.61-.037-.038-.088-.163-.113-.3-.076-.44-1.894-4.362-2.582-5.59a34.753 34.753 0 0 0-1.38-2.168l-.663-.94.465-.539c.438-.513.488-.539 1.078-.502.463.025.839-.075 1.54-.363.596-.257.964-.372 1.356-.312zm6.928 1.504c.89 0 1.18.05 1.756.326.651.3 1.74 1.252 2.004 1.728.087.176-.301.928-1.793 3.473-2.268 3.835-3.182 5.289-4.448 7.068-1.04 1.441-1.154 1.59-1.154 1.465 0-.05.14-.625.315-1.289.64-2.456 1.09-5.853 1.353-10.076l.15-2.32.375-.188c.251-.125.74-.187 1.442-.187zm-6.277 1.316c-.402 0-.866.476-.866.889a.924.924 0 0 0 .276.615c.15.137.4.25.564.25.376 0 .914-.526.914-.877s-.538-.877-.888-.877zm-6.62.2c.314-.113 2.157 2.745 3.373 5.251.764 1.554 3.133 7.03 3.133 7.219 0 .063-.038.112-.088.1-.225-.013-3.584-1.241-4.724-1.717-.677-.29-1.292-.49-1.38-.44-.074.038-.1.039-.05-.023.05-.051-.714-.475-1.691-.94-1.416-.663-4.75-2.406-4.963-2.582-.012-.013.063-.326.176-.69.59-1.767 1.918-3.258 4.474-5.025.864-.601 1.653-1.129 1.74-1.154zm7.534 4.187c-.752 0-1.115 1.05-.54 1.527.376.3.777.29 1.116-.023.563-.527.188-1.504-.576-1.504zm22.119 7.52c1.103.011 2.494.876 3.12 1.954.865 1.48 2.432 7.608 2.432 9.526 0 2.293-1.242 4.56-2.933 5.363-.526.25-1.956.576-2.545.576-.226 0-.412.038-.412.102 0 .05-.628.086-1.393.086-.764 0-1.415-.036-1.453-.086-.025-.064-.176-.102-.326-.102a2.733 2.733 0 0 1-.65-.176l-.377-.174.564-.251c.313-.139 1.466-.438 2.568-.65 1.103-.226 2.082-.453 2.182-.503.314-.175-1.215-.426-2.62-.426-.726-.013-2.48.037-3.91.1-1.566.075-2.607.075-2.607 0 0-.063-.137-1.467-.312-3.121-.338-3.409-.577-5-.965-6.68l-.264-1.166.35-.363c.501-.526 2.057-1.24 4.451-2.08 1.14-.39 2.619-.99 3.283-1.315.965-.476 1.354-.615 1.817-.615zm-1.028 3.759-.752.062c-2.092.2-4.135 1.154-5.113 2.407l-.264.324.502-.086c.966-.175 1.68-.476 3.145-1.354.815-.488 1.706-.99 1.982-1.117l.5-.236zm-13.722.627h2.718l.39.851c.375.84.777 2.056 1.015 3.184.289 1.266.638 4.611.638 6.002v1.443l-.902.301c-.501.164-1.14.338-1.416.375-.275.05-.59.126-.703.176-.162.075-.211-.101-.324-1.14-.075-.678-.176-1.642-.201-2.143-.038-.502-.126-.991-.202-1.078-.075-.088-.1-.189-.062-.239.037-.038-.075-1.014-.25-2.18-.464-2.982-.701-4.786-.701-5.2v-.352zm-16.815.017c2.616-.01 4.99.131 6.977.432.69.1 1.34.214 1.453.252.3.087.451 1.516.74 6.943.138 2.582.337 5.664.438 6.83.1 1.178.276 4.335.377 7.018.2 5.276.325 6.943.638 8.924.113.702.175 1.365.137 1.453-.112.3-4.398 1.215-5.69 1.215-.3 0-.537.05-.537.113 0 .062-.25.075-.564.05-.3-.037-.828.001-1.154.075-.325.088-.69.176-.79.201-.1.038-.274 0-.374-.076-.1-.062-.577-.1-1.065-.088-.476.012-.954-.012-1.04-.074-.088-.05-.603-.088-1.13-.062-.526.013-1.052-.013-1.152-.063-.1-.038-.602-.088-1.104-.113-.489-.012-.902-.051-.902-.088 0-.05-.464-.138-1.027-.225-1.103-.163-3.372-.653-4.45-.967l-.652-.187-.5-1.604c-.664-2.13-1.791-6.178-2.142-7.757-.164-.714-.34-1.291-.403-1.291s-.087-.05-.037-.114c.038-.075-.1-.903-.3-1.855-.502-2.306-1.141-5.69-1.141-6.027 0-.15-.064-.276-.139-.276-.062 0-.086-.05-.049-.125.088-.138-.453-3.81-.578-3.86-.037-.012-.05-.176-.012-.34.025-.175.013-.411-.037-.524a6.349 6.349 0 0 1-.138-1.041c-.025-.452-.112-.84-.174-.852-.075-.025-.09-.1-.051-.176.087-.15-.214-2.97-.326-3.045-.038-.025-.05-.25-.026-.488.063-.526-.125-.465 2.47-.89 5.06-.838 10.095-1.28 14.454-1.298zm14.032.32.138.49c.075.263.2.826.276 1.24a8.651 8.651 0 0 0 .238 1.003c.125.277.402 3.008.69 6.705.113 1.342.225 2.87.275 3.397.088 1.14.325.976-2.219 1.427-.99.176-1.993.315-2.205.315-.401 0-.401 0-.477-.777-.175-1.918-.45-7.081-.525-10.063l-.088-3.26.738-.162c.401-.087 1.279-.2 1.955-.238l1.204-.076zm14.66 2.42c-.185.012-.367.055-.41.124-.039.075-.214.088-.377.05-.388-.1-1.615.29-1.891.59-.214.225-.188.237.902.237 1.115 0 3.433-.175 4.623-.364l.627-.087-.69-.163a10.495 10.495 0 0 0-1.49-.199c-.439-.026-.828-.076-.865-.113-.056-.063-.245-.085-.43-.074zm-.287 3.26c-.286-.003-.563.03-.563.098 0 .05-.263.087-.588.1a3.15 3.15 0 0 0-1.103.238l-.5.25 1.252.063c1.554.088 5.953.15 5.953.076 0-.126-2.294-.577-2.532-.502-.187.05-.226.039-.164-.074.077-.126-.037-.152-.488-.102-.313.038-.613.025-.65-.037-.038-.07-.332-.106-.617-.11zM83.39 108.88h.464l.15.915c.088.488.276 1.555.438 2.344.59 2.832.728 3.833.74 5.125l.012 1.304-.865.287c-.476.163-1.327.351-1.879.426-.551.063-1.065.125-1.152.125-.15 0-.39-3.484-.516-7.67l-.074-2.48h.389c.212 0 .714-.087 1.115-.188.389-.1.927-.187 1.178-.187z"/></svg>
