<svg xmlns="http://www.w3.org/2000/svg" viewBox="0 0 128 128"><path fill="#d00000" d="M125.87 125.86H2.14V2.14h123.72v123.72Z"/><path fill="#fff" d="M35.11 98.08c0 .09.05.22.12.29l2.12 2.12c.07.07.2.12.29.12h7.25c.09 0 .22-.05.29-.12l2.12-2.12c.07-.07.12-.2.12-.29v-23c0-.09.06-.22.12-.29L56.75 66c.07-.06.17-.05.22.02l23.26 34.44c.05.08.17.14.26.14h10.27c.09 0 .21-.07.25-.15l1.86-3.61a.33.33 0 0 0-.02-.29L65.64 57.11a.226.226 0 0 1 .02-.26l25.03-24.91c.07-.07.12-.2.12-.29v-.46c0-.09-.03-.24-.07-.33l-1.44-3.32a.277.277 0 0 0-.24-.16H78.91c-.09 0-.22.05-.29.12L47.53 58.71c-.07.07-.12.04-.12-.05V30.03c0-.09-.05-.23-.12-.29l-2.08-2.23a.425.425 0 0 0-.29-.12h-7.3c-.09 0-.22.06-.29.12l-2.13 2.3a.52.52 0 0 0-.11.29v67.97Z"/></svg>
