<?xml version="1.0" encoding="UTF-8"?>
<svg id="plain" xmlns="http://www.w3.org/2000/svg" viewBox="0 0 128 128">
  <path id="K" d="m125.86,2.13H2.14s0,0,0,0v123.72s0,0,0,0h123.72s0,0,0,0h0V2.14s0,0,0,0Zm-33,94.71l-1.86,3.61c-.04.08-.15.15-.25.15h-10.27c-.09,0-.21-.06-.26-.14l-23.26-34.44c-.05-.08-.15-.09-.22-.02l-9.21,8.79c-.07.06-.12.19-.12.29v23c0,.09-.05.22-.12.29l-2.12,2.12c-.07.07-.2.12-.29.12h-7.25c-.09,0-.22-.05-.29-.12l-2.12-2.12c-.07-.07-.12-.2-.12-.29h0V30.11c0-.09.05-.23.11-.29l2.13-2.3c.06-.07.19-.12.29-.12h7.3c.09,0,.22.06.29.12l2.08,2.23c.06.07.12.2.12.29v28.63c0,.09.05.12.12.05l31.09-31.21c.07-.07.2-.12.29-.12h10.15c.09,0,.2.07.24.16l1.44,3.32c.04.09.07.23.07.33v.46c0,.09-.05.22-.12.29l-25.03,24.91c-.07.07-.08.18-.02.26l27.21,39.44c.05.08.06.21.02.29Z"/>
</svg>