<?xml version="1.0" encoding="utf-8"?>
<!-- Generator: Adobe Illustrator 16.0.4, SVG Export Plug-In . SVG Version: 6.00 Build 0)  -->
<!DOCTYPE svg PUBLIC "-//W3C//DTD SVG 1.1//EN" "http://www.w3.org/Graphics/SVG/1.1/DTD/svg11.dtd">
<svg version="1.1" id="Layer_1" xmlns="http://www.w3.org/2000/svg" xmlns:xlink="http://www.w3.org/1999/xlink" x="0px" y="0px"
	 width="2560px" height="1440px" viewBox="0 0 2560 1440" enable-background="new 0 0 2560 1440" xml:space="preserve">
<g>
	<g>
		<path fill="#C12C4C" d="M825.938,807.54c-3.783-5.893-38.976-53.979-41.845-59.735l-1.049-2.032l1.896-1.374
			c30.271-21.351,48.352-56.088,48.352-92.944v-3.14c0-25.719-8.994-50.268-24.689-67.375
			c-18.341-20.005-44.723-31.742-74.937-33.958v74.414c15.898,4.553,26.691,19.284,26.691,38.598c0,21.912-16.962,33.553-31.2,42
			l-5.646,3.42c-12.709,8.491-19.197,20.315-19.197,35.183c0,12.312,4.577,22.517,5.486,24.471l4.945,8.646l51.611,73.814
			c0.039,0.034,0.843,1.287,0.843,1.287c-0.024-0.034,6.947,10.111,6.947,10.111c4.122,5.395,9.768,9.478,17.857,11.48
			c10.136,2.507,21.471,0.18,29.628-5.307c8.064-5.419,12.782-12.381,14.538-21.806l0.61-6.154
			C836.757,829.979,833.52,817.82,825.938,807.54z"/>
		<path fill="#FA930D" d="M717.053,546.217c-9.356,0.73-18.394,2.506-26.957,5.419v-0.111c-0.774,0.266-1.495,0.609-2.274,0.885
			c-2.622,0.953-5.22,1.911-7.75,3.053c-0.973,0.436-1.911,0.968-2.889,1.457c-2.53,1.233-5.104,2.365-7.514,3.783v0.111
			c-6.086,3.551-11.8,7.634-17.059,12.255c-19.289-16.973-44.549-27.354-72.271-27.354c-60.534,0-109.621,49.077-109.621,109.649
			c0,0.111,0,0.247,0.024,0.358h-0.024v101.667v36.904v70.811h74.555l0.033-70.811h0.131v-36.904h-0.106l0.02-17.117l0.087-84.55
			h-0.039c-0.019-0.111-0.048-0.247-0.048-0.358c0-19.338,15.665-34.993,34.984-34.993c19.226,0,34.78,15.496,34.94,34.693
			c0,0.097,0,0.208,0,0.3c0,0.111,0,0.247,0.023,0.358h-0.023h-0.044v83.993h-0.072l0.067,125.393h74.574l0.062-127.438h0.044
			l0.097-81.942h-0.049c-0.023-0.015-0.023-0.068-0.023-0.111c0-0.092,0.023-0.164,0.023-0.247c0-0.092-0.023-0.203-0.023-0.3
			c0-0.934,0.207-1.8,0.3-2.709v-1.8c2.008-14.476,12.786-25.99,26.812-29.149v-75.193H717.053z"/>
	</g>
</g>
</svg>
