<?xml version="1.0" encoding="UTF-8" standalone="no"?>
<svg
   width="128"
   height="128"
   viewBox="0 0 128 128"
   version="1.1"
   id="svg3"
   sodipodi:docname="SQL.svg"
   inkscape:version="1.3.2 (091e20e, 2023-11-25, custom)"
   xmlns:inkscape="http://www.inkscape.org/namespaces/inkscape"
   xmlns:sodipodi="http://sodipodi.sourceforge.net/DTD/sodipodi-0.dtd"
   xmlns="http://www.w3.org/2000/svg"
   xmlns:svg="http://www.w3.org/2000/svg"
   xmlns:rdf="http://www.w3.org/1999/02/22-rdf-syntax-ns#"
   xmlns:cc="http://creativecommons.org/ns#"
   xmlns:dc="http://purl.org/dc/elements/1.1/">
  <defs
     id="defs3" />
  <sodipodi:namedview
     id="namedview3"
     pagecolor="#ffffff"
     bordercolor="#111111"
     borderopacity="1"
     inkscape:showpageshadow="0"
     inkscape:pageopacity="0"
     inkscape:pagecheckerboard="1"
     inkscape:deskcolor="#d1d1d1"
     inkscape:zoom="3.0117188"
     inkscape:cx="104.42542"
     inkscape:cy="49.639429"
     inkscape:window-width="1920"
     inkscape:window-height="1009"
     inkscape:window-x="-8"
     inkscape:window-y="-8"
     inkscape:window-maximized="1"
     inkscape:current-layer="svg3" />
  <title
     id="title1">file_type_sql</title>
  <path
     d="m 29.997713,60.598857 a 96.726857,96.726857 0 0 0 34.002286,5.453714 96.726857,96.726857 0 0 0 34.002286,-5.458285 c 8.521145,-3.323429 11.542855,-7.017143 11.542855,-9.142857 V 35.2 a 47.346286,47.346286 0 0 1 -9.52685,4.918857 101.91086,101.91086 0 0 1 -36.018291,5.952 A 102.21714,102.21714 0 0 1 27.981713,40.128 46.994286,46.994286 0 0 1 18.454856,35.2 v 16.228571 c 0,2.166858 3.030857,5.842286 11.542857,9.170286 z"
     style="fill:#ffda44;stroke-width:4.57143"
     id="path1" />
  <path
     d="m 29.997713,91.250286 a 71.364571,71.364571 0 0 0 11.885714,3.387428 113.82857,113.82857 0 0 0 22.116572,2.070857 113.82857,113.82857 0 0 0 22.116571,-2.066285 71.378286,71.378286 0 0 0 11.885715,-3.387429 C 106.52343,87.931429 109.54514,84.237714 109.54514,82.112 V 66.614857 A 48.941714,48.941714 0 0 1 101.81029,70.386286 107.38286,107.38286 0 0 1 63.999999,76.525714 107.38286,107.38286 0 0 1 26.189713,70.363429 49.504,49.504 0 0 1 18.454856,66.592 v 15.510857 c 0,2.130286 3.030857,5.810286 11.542857,9.147429 z"
     style="fill:#ffda44;stroke-width:4.57143"
     id="path2" />
  <path
     d="m 63.999999,128 c 25.142857,0 45.545141,-7.97257 45.545141,-17.80114 V 97.229714 a 48,48 0 0 1 -7.01714,3.483426 l -0.71771,0.288 a 107.36914,107.36914 0 0 1 -37.810291,6.176 107.072,107.072 0 0 1 -37.810286,-6.176 c -0.246857,-0.0914 -0.484571,-0.19657 -0.717714,-0.288 a 48,48 0 0 1 -7.017143,-3.483426 v 12.969146 c 0,9.82857 20.402286,17.80114 45.545143,17.80114 z"
     style="fill:#ffda44;stroke-width:4.57143"
     id="path3" />
  <ellipse
     cx="64"
     cy="17.801144"
     rx="45.545143"
     ry="17.801144"
     style="fill:#ffda44;stroke-width:4.57143"
     id="ellipse3" />
  <metadata
     id="metadata3">
    <rdf:RDF>
      <cc:Work
         rdf:about="">
        <dc:title>file_type_sql</dc:title>
      </cc:Work>
    </rdf:RDF>
  </metadata>
</svg>
