<svg xmlns="http://www.w3.org/2000/svg" viewBox="0 0 128 128"><path fill="#1A1918" d="M40.1 125.86c-.2 0-.4-.1-.6-.3l-6.9-9v9.2H31v-11.3c0-.5.4-.8.8-.8.2 0 .5.1.6.3l6.9 9v-9.2h1.6v11.3c0 .5-.4.8-.8.8zm12.9.1c-1.6 0-3.2-.3-4.7-.9l.4-1.3c1.4.5 2.9.8 4.4.8 2 0 3-.7 3-1.7 0-.9-.8-1.4-3.6-2.7-2.8-1.3-3.8-2.1-3.8-3.8 0-2 1.6-2.9 4.5-2.9 1.2 0 3.1.3 4.2.6l-.2 1.3c-1.2-.3-2.7-.5-3.9-.5-2.1 0-2.9.4-2.9 1.4 0 1 .6 1.4 3.5 2.7 3.1 1.4 3.9 2.1 3.9 3.6-.1 2.4-2.2 3.4-4.8 3.4zm12.1-12.2h1.6v12h-1.6v-12zm16.9 5.7c.9-.6 1.5-1.5 1.5-2.5 0-1.9-1.5-3.1-3.9-3.1h-4c-.5 0-.8.4-.8.8v10.4c0 .5.4.8.8.8h4.8c2.3 0 3.8-1.5 3.8-3.5.1-1.4-.8-2.5-2.2-2.9zm-5.5-4.3h3.2c1.4 0 2.2.7 2.2 1.9s-.9 2-2.2 2h-3.2v-3.9zm4 9.3h-4v-4.1h4c1.3 0 2.2.9 2.2 2 0 1.2-.9 2.1-2.2 2.1zm11.6 1.3c-.4 0-.8-.4-.8-.8v-11.2h1.6v10.6h6.4v1.5l-7.2-.1zm18.3.2c-3.3 0-5.3-1.2-5.3-3.7 0-1.2.7-2.3 1.9-2.8-1-.7-1.6-1.6-1.6-2.6 0-2.2 1.7-3.3 5-3.3 1.1 0 2.6.1 3.9.4l-.2 1.3c-1.4-.2-2.6-.3-3.8-.3-2.1 0-3.2.6-3.2 2 0 1.1 1 2 2.4 2h2.8c.4 0 .7.3.7.7 0 .4-.3.7-.7.7h-3c-1.6 0-2.6.8-2.6 2 0 1.8 1.6 2.3 3.6 2.3 1.1 0 2.6-.1 3.8-.4l.2 1.3c-1 .2-2.6.4-3.9.4zm-86.4-1.2l-4.4-10.7c-.1-.3-.4-.5-.7-.5-.3 0-.6.2-.7.5l-4.8 11.7H15l1.9-4.8 5.7 4.6c.2.2.4.3.6.3.4 0 .8-.3.8-.8.1 0 .1-.2 0-.3zm-6.5-5.1l1.4-3.7 2.8 7.1-4.2-3.4zM64.1 2C36.3 2 13.7 24.6 13.7 52.4c0 27.8 22.6 50.4 50.4 50.4 27.8 0 50.4-22.6 50.4-50.4C114.5 24.6 91.9 2 64.1 2zm20.7 75.5c-1 0-1.7-.4-2.8-1.2l-26-21-8.7 21.8h-7.5l22-53c.6-1.4 1.8-2.1 3.2-2.1s2.5.7 3.1 2.1l20.1 48.3c.2.6.4 1.1.4 1.5-.1 2.1-1.9 3.6-3.8 3.6z"/><path fill="#1A1918" d="M64.9 32.8L78 65 58.3 49.5z"/></svg>
