<svg xmlns="http://www.w3.org/2000/svg" viewBox="0 0 128 128"><path fill="#343434" d="M20.48 110.078h-2.433a.572.572 0 00-.445.195c-1.41 2.11-3.84 3.454-6.532 3.454-4.351 0-7.933-3.52-7.933-7.934a7.893 7.893 0 017.933-7.938c2.754 0 5.121 1.41 6.532 3.457a.568.568 0 00.445.192h2.433c.32 0 .512-.258.512-.512 0-.062 0-.191-.062-.258-1.793-3.582-5.57-6.078-9.86-6.078-6.14 0-11.07 4.93-11.07 11.07 0 6.145 4.93 11.075 11.07 11.075 4.356 0 8.067-2.496 9.86-6.082.062-.063.062-.125.062-.254 0-.13-.191-.387-.512-.387zm7.36-18.941a2.13 2.13 0 01-2.113 2.11 2.126 2.126 0 01-2.11-2.11 2.13 2.13 0 012.11-2.114 2.09 2.09 0 012.113 2.114zm-.512 24.765V95.36h-3.137v20.543c0 .32.258.512.512.512h2.113c.32 0 .512-.254.512-.512zm13.695-21.054c-3.199.129-5.757 1.664-7.359 4.03v-2.94a.505.505 0 00-.512-.512H31.04a.503.503 0 00-.512.511v20.032c0 .32.258.511.512.511h2.113c.32 0 .512-.257.512-.511v-10.047c0-4.16 3.266-7.617 7.36-7.875.32 0 .511-.254.511-.512V95.36c.067-.32-.191-.511-.512-.511zm21.055 15.23h-2.43a.586.586 0 00-.449.195c-1.406 2.11-3.84 3.454-6.527 3.454-4.352 0-7.938-3.52-7.938-7.934a7.897 7.897 0 017.938-7.938c2.754 0 5.121 1.41 6.527 3.457a.582.582 0 00.45.192h2.43c.32 0 .515-.258.515-.512 0-.062 0-.191-.067-.258-1.793-3.582-5.566-6.078-9.855-6.078-6.145 0-11.07 4.93-11.07 11.07a11.035 11.035 0 0011.07 11.075c4.351 0 8.062-2.496 9.855-6.082.067-.063.067-.125.067-.254 0-.13-.258-.387-.516-.387zm6.336-21.566h-2.11a.505.505 0 00-.511.511v26.88c0 .32.254.511.512.511h2.11c.32 0 .515-.254.515-.512V89.023a.506.506 0 00-.516-.511zm14.723 6.273a11.035 11.035 0 00-11.075 11.07c0 6.145 4.93 11.075 11.075 11.075 4.351 0 8.062-2.496 9.855-6.082.063-.063.063-.13.063-.254a.506.506 0 00-.512-.516h-2.43a.586.586 0 00-.449.195c-1.406 2.11-3.84 3.454-6.527 3.454-4.032 0-7.297-3.008-7.809-6.848h18.367a.503.503 0 00.512-.512v-.574c0-6.016-4.926-11.008-11.07-11.008zm-7.617 9.024c.894-3.329 3.968-5.825 7.617-5.825 3.648 0 6.718 2.43 7.617 5.825zm49.343-15.871a3.14 3.14 0 00-3.136 3.132c0 1.73 1.41 3.137 3.136 3.137A3.14 3.14 0 00128 91.07c0-1.664-1.406-3.132-3.137-3.132zm2.625 7.421v20.543c0 .32-.258.512-.511.512h-4.223a.506.506 0 01-.516-.512V95.36zm-19.008 21.57c5.184 0 9.473-3.523 10.75-8.32v-.129a.503.503 0 00-.511-.511h-4.48a.478.478 0 00-.446.32c-.898 1.984-2.945 3.39-5.25 3.39-3.2 0-5.824-2.624-5.824-5.824 0-3.199 2.625-5.824 5.824-5.824 2.367 0 4.352 1.41 5.25 3.395a.474.474 0 00.445.316h4.48c.321 0 .512-.254.512-.512v-.125c-1.214-4.8-5.566-8.32-10.75-8.32a11.035 11.035 0 00-11.074 11.07c0 6.145 4.93 11.075 11.074 11.075zM55.488 44.735c0-4.414 3.582-8 8-8 4.414 0 8 3.586 8 8 0 4.418-3.586 8-8 8-4.418.067-8-3.582-8-8zm8-33.664c-15.746 0-28.93 10.754-32.64 25.344 0 .129-.063.195-.063.32 0 .899.703 1.602 1.598 1.602h13.57c.64 0 1.215-.383 1.473-.961 2.812-6.078 8.894-10.305 16.062-10.305 9.727 0 17.664 7.938 17.664 17.664 0 9.73-7.937 17.664-17.664 17.664-7.105 0-13.25-4.222-16.062-10.3a1.617 1.617 0 00-1.473-.961h-13.57c-.895 0-1.598.703-1.598 1.597 0 .13 0 .196.063.32 3.71 14.594 16.894 25.344 32.64 25.344 18.625 0 33.727-15.101 33.727-33.726 0-18.559-15.102-33.602-33.727-33.602zm0 0"/></svg>