<svg xmlns="http://www.w3.org/2000/svg" viewBox="0 0 128 128"><path d="M47.344 38.375c-.82 0-1.64.262-2.328.79l-33.45 25.562a1.277 1.277 0 0 0 0 2.023l1.383 1.047a1.8 1.8 0 0 0 2.176 0l16.582-12.64c.922-.692 2.2-.692 3.098 0L45.78 63.55c.922.691 2.2.691 3.098 0l14.508-11.082c.949-.692.949-2.098 0-2.813L49.672 39.164a3.833 3.833 0 0 0-2.328-.789Zm38.383 0c-.817 0-1.637.262-2.329.79L49.953 64.753a1.273 1.273 0 0 0 0 2.02l1.383 1.05a1.805 1.805 0 0 0 2.172 0l19.144-14.586a2.566 2.566 0 0 1 3.094 0L94.43 67.492c.894.692 2.175.692 3.093 0l11.926-9.137c.95-.714.95-2.125 0-2.84l-21.39-16.35a3.836 3.836 0 0 0-2.332-.79Zm-3.657 35.82c-4.812 0-9.187 2.84-9.187 7.703 0 4.864 4.375 7.653 9.187 7.653 1.739 0 3.325-.332 4.735-1 1.406-.688 2.53-1.739 3.425-3.016.258-.36.157-.719-.074-.922-.23-.207-1.64-1.101-1.867-1.254-.512-.308-.973-.207-1.309.254-.332.461-1.996 2.407-4.91 2.407-2.613 0-5.222-1.434-5.222-4.145 0-2.738 2.609-4.148 5.222-4.148 1.766 0 3.555.562 4.63 1.945.257.332.82.308 1.202.078.383-.23 1.512-.973 1.743-1.152.41-.36.433-.715.18-1.024-1.794-2.328-4.763-3.379-7.755-3.379Zm-55.355.028c-4.836 0-9.29 2.738-9.29 7.652 0 2.2.9 4.066 2.665 5.527 1.765 1.457 3.992 2.149 6.625 2.176 4.84 0 9.316-2.789 9.316-7.703 0-4.941-4.476-7.652-9.316-7.652Zm75.16 0c-4.836 0-9.29 2.738-9.29 7.652 0 2.2.895 4.066 2.661 5.527 1.766 1.457 3.992 2.149 6.629 2.176 4.836 0 9.316-2.789 9.316-7.703 0-4.941-4.48-7.652-9.316-7.652Zm-64.563.304c-.82 0-1.128.668-.898 1.078 1.129 2.098 4.121 7.473 7.219 13.075.101.18.46.46.816.46h1.36a.956.956 0 0 0 .816-.46c2.84-5.477 6.68-12.41 7.04-13.024.202-.36-.028-1.101-.743-1.101h-2.559c-.308 0-.64.05-.82.46l-4.426 8.188-4.504-8.215c-.18-.332-.386-.46-.82-.46Zm19.5.028c-.46 0-.87.382-.87.82V88.27c0 .437.41.82.87.82h13.485c.46 0 .871-.383.871-.82v-1.61c0-.437-.41-.82-.871-.82H59.832v-2.688h6.164c.461 0 .871-.382.871-.816v-1.613c0-.434-.41-.82-.87-.82h-6.165v-2.048h9.852c.46 0 .87-.382.87-.82v-1.66c0-.438-.41-.82-.87-.82Zm-49.402.023H.871c-.46 0-.871.387-.871.82v12.95c0 .433.41.816.871.816h6.09c4.734 0 8.367-2.582 8.367-7.266 0-2.148-.765-3.941-2.328-5.324-1.465-1.293-3.355-1.96-5.59-1.996Zm105.93 0c-.461 0-.871.387-.871.82v1.793c0 .434.41.817.87.817h4.938V88.32c0 .438.41.82.871.82h2.149c.46 0 .871-.382.871-.82V78.008h4.914c.461 0 .871-.383.871-.817v-1.793c0-.433-.41-.82-.871-.82Zm-86.625 3.125c2.664 0 5.351 1.356 5.351 4.145 0 1.203-.46 2.175-1.433 2.941-.973.793-2.254 1.203-3.918 1.203-2.66 0-5.32-1.328-5.32-4.144 0-2.817 2.66-4.145 5.32-4.145Zm75.16 0c2.66 0 5.348 1.356 5.348 4.145 0 1.203-.457 2.175-1.43 2.941-.973.793-2.254 1.203-3.918 1.203-2.66 0-5.32-1.328-5.32-4.144 0-2.817 2.66-4.145 5.32-4.145Zm-97.984.383h3.097c2.48 0 4.375 1.355 4.375 3.785 0 2.535-1.793 3.762-4.375 3.762H3.891Zm0 0"/></svg>
