<svg xmlns="http://www.w3.org/2000/svg" viewBox="0 0 128 128"><path fill="#54bbab" d="M47.361 38.39c-.82 0-1.64.261-2.328.79L11.57 64.75a1.277 1.277 0 0 0 0 2.025l1.384 1.047a1.8 1.8 0 0 0 2.177 0l16.588-12.645c.922-.692 2.2-.692 3.099 0l10.979 8.396c.922.692 2.2.692 3.099 0l14.513-11.086c.95-.692.95-2.098 0-2.814L49.69 39.178a3.834 3.834 0 0 0-2.329-.789zm38.397 0c-.817 0-1.637.261-2.33.79L49.972 64.776a1.273 1.273 0 0 0 0 2.02l1.384 1.05a1.806 1.806 0 0 0 2.173 0l19.15-14.59a2.567 2.567 0 0 1 3.096 0l18.69 14.26c.895.692 2.176.692 3.095 0l11.93-9.14c.95-.715.95-2.126 0-2.842L88.091 39.18a3.837 3.837 0 0 0-2.333-.79zM82.1 74.221c-4.814 0-9.19 2.841-9.19 7.706 0 4.866 4.376 7.656 9.19 7.656 1.74 0 3.326-.332 4.737-1 1.406-.689 2.53-1.74 3.426-3.018.258-.36.157-.719-.074-.922-.23-.207-1.64-1.101-1.868-1.254-.512-.308-.973-.207-1.31.254-.331.46-1.996 2.408-4.91 2.408-2.615 0-5.225-1.435-5.225-4.147 0-2.739 2.61-4.15 5.224-4.15 1.767 0 3.556.563 4.632 1.946.257.332.82.308 1.202.078.383-.23 1.513-.973 1.744-1.152.41-.36.433-.715.18-1.025-1.795-2.328-4.765-3.38-7.758-3.38zm-55.375.028c-4.838 0-9.294 2.74-9.294 7.655 0 2.2.9 4.068 2.666 5.53 1.766 1.457 3.994 2.149 6.628 2.176 4.842 0 9.32-2.79 9.32-7.706 0-4.943-4.478-7.655-9.32-7.655zm75.187 0c-4.837 0-9.293 2.74-9.293 7.655 0 2.2.895 4.068 2.662 5.53 1.767 1.457 3.993 2.149 6.631 2.176 4.838 0 9.32-2.79 9.32-7.706 0-4.943-4.482-7.655-9.32-7.655zm-64.586.304c-.82 0-1.129.669-.899 1.079 1.13 2.099 4.123 7.476 7.222 13.08.101.18.46.46.816.46h1.36a.956.956 0 0 0 .817-.46c2.841-5.48 6.683-12.415 7.043-13.03.202-.36-.028-1.1-.744-1.1h-2.56c-.308 0-.64.05-.82.46l-4.427 8.19-4.506-8.217c-.18-.333-.386-.46-.82-.46zm19.507.028c-.46 0-.87.383-.87.82v12.9c0 .438.41.82.87.82h13.49c.46 0 .871-.382.871-.82v-1.61c0-.437-.41-.82-.871-.82H59.854v-2.69h6.166c.461 0 .872-.382.872-.816v-1.613c0-.435-.41-.82-.87-.82h-6.168v-2.05h9.856c.46 0 .87-.382.87-.82v-1.66c0-.438-.41-.82-.87-.82zm-49.42.023H.87c-.46 0-.871.388-.871.82V88.38c0 .434.41.817.871.817h6.093c4.735 0 8.37-2.583 8.37-7.269 0-2.149-.766-3.942-2.33-5.326-1.465-1.293-3.355-1.96-5.591-1.997zm105.969 0c-.462 0-.872.388-.872.82v1.794c0 .435.41.818.87.818h4.94v10.315c0 .439.41.82.872.82h2.15c.46 0 .87-.381.87-.82V78.037h4.917c.46 0 .871-.383.871-.818v-1.793c0-.433-.41-.82-.871-.82zm-86.657 3.127c2.665 0 5.353 1.356 5.353 4.146 0 1.204-.46 2.176-1.434 2.942-.973.793-2.255 1.204-3.92 1.204-2.66 0-5.321-1.329-5.321-4.146 0-2.818 2.66-4.146 5.322-4.146zm75.187 0c2.661 0 5.35 1.356 5.35 4.146 0 1.204-.457 2.176-1.43 2.942-.974.793-2.255 1.204-3.92 1.204-2.66 0-5.322-1.329-5.322-4.146 0-2.818 2.661-4.146 5.322-4.146zm-98.02.383h3.099c2.48 0 4.376 1.355 4.376 3.786 0 2.536-1.793 3.763-4.376 3.763H3.892Zm0 0"/></svg>
