<svg xmlns="http://www.w3.org/2000/svg" viewBox="0 0 128 128"><defs><linearGradient id="a" x1="9" x2="63.4" y1="1046.1" y2="981.3" gradientTransform="translate(0 -952)" gradientUnits="userSpaceOnUse"><stop offset="0" stop-color="#36a3d8"/><stop offset=".2" stop-color="#359cd3"/><stop offset=".4" stop-color="#328bc8"/><stop offset=".6" stop-color="#2e71b6"/><stop offset="1" stop-color="#2e71b6"/></linearGradient><linearGradient id="b" x1="89.1" x2="44.5" y1="1016" y2="1016" gradientTransform="translate(0 -952)" gradientUnits="userSpaceOnUse"><stop offset="0" stop-color="#36a3d8"/><stop offset=".2" stop-color="#359cd3"/><stop offset=".4" stop-color="#328bc8"/><stop offset=".6" stop-color="#2e71b6"/><stop offset="1" stop-color="#2e71b6"/></linearGradient><linearGradient id="c" x1="46.8" x2="23.2" y1="983" y2="1041.5" gradientTransform="translate(0 -952)" gradientUnits="userSpaceOnUse"><stop offset="0" stop-color="#36a3d8"/><stop offset=".2" stop-color="#359cd3"/><stop offset=".4" stop-color="#328bc8"/><stop offset=".6" stop-color="#2e71b6"/><stop offset="1" stop-color="#2e71b6"/></linearGradient><linearGradient id="d" x1="89.1" x2="45.4" y1="1013.3" y2="1016" gradientTransform="translate(0 -952)" gradientUnits="userSpaceOnUse"><stop offset="0" stop-color="#36a0d6"/><stop offset="1" stop-color="#2e71b6"/></linearGradient><linearGradient id="e" x1="36.9" x2="57.7" y1="984.4" y2="997.9" gradientTransform="translate(0 -952)" gradientUnits="userSpaceOnUse"><stop offset="0" stop-color="#36a3d8"/><stop offset=".2" stop-color="#359cd3"/><stop offset=".4" stop-color="#328bc8"/><stop offset=".6" stop-color="#2e71b6"/><stop offset="1" stop-color="#2e71b6"/></linearGradient><linearGradient id="f" x1="53.8" x2="113.2" y1="1016" y2="1016" gradientTransform="translate(0 -952)" gradientUnits="userSpaceOnUse"><stop offset="0" stop-color="#4a9240"/><stop offset=".3" stop-color="#4a9240"/><stop offset=".3" stop-color="#4a9240"/><stop offset=".4" stop-color="#64a150"/><stop offset=".5" stop-color="#74ab5b"/><stop offset=".6" stop-color="#70a858"/><stop offset=".8" stop-color="#66a252"/><stop offset=".9" stop-color="#549846"/><stop offset=".9" stop-color="#4a9240"/><stop offset="1" stop-color="#4a9240"/></linearGradient><linearGradient id="g" x1="83.5" x2="128" y1="1045.8" y2="1045.8" gradientTransform="translate(0 -952)" gradientUnits="userSpaceOnUse"><stop offset="0" stop-color="#6b9d3c"/><stop offset="0" stop-color="#61963b"/><stop offset=".3" stop-color="#538d39"/><stop offset=".6" stop-color="#4a8739"/><stop offset="1" stop-color="#488639"/></linearGradient><linearGradient id="h" x1="90" x2="46.3" y1="1027.6" y2="1030.3" gradientTransform="translate(0 -952)" gradientUnits="userSpaceOnUse"><stop offset="0" stop-color="#36a0d6"/><stop offset="1" stop-color="#2e71b6"/></linearGradient><linearGradient id="i" x1="44.9" x2="23.2" y1="987.6" y2="1041.4" gradientTransform="translate(0 -952)" gradientUnits="userSpaceOnUse"><stop offset="0" stop-color="#36a3d8"/><stop offset=".2" stop-color="#359cd3"/><stop offset=".4" stop-color="#328bc8"/><stop offset=".6" stop-color="#2e71b6"/><stop offset="1" stop-color="#2e71b6"/></linearGradient><linearGradient id="j" x1="54.8" x2="131.8" y1="1033.2" y2="1033.2" gradientTransform="translate(0 -952)" gradientUnits="userSpaceOnUse"><stop offset="0" stop-color="#8cbf60"/><stop offset=".3" stop-color="#74ab5b"/><stop offset="1" stop-color="#4a9240"/></linearGradient><linearGradient id="k" x1="44.5" x2="89.1" y1="1045.8" y2="1045.8" gradientTransform="translate(0 -952)" gradientUnits="userSpaceOnUse"><stop offset="0" stop-color="#36a3d8"/><stop offset="0" stop-color="#3396cf"/><stop offset="0" stop-color="#3185c3"/><stop offset="0" stop-color="#2f79bb"/><stop offset="0" stop-color="#2e72b7"/><stop offset="0" stop-color="#2e71b6"/><stop offset=".2" stop-color="#2e71b6"/><stop offset="1" stop-color="#2e71b6"/></linearGradient></defs><path fill="url(#a)" d="M44.5 97.9c-.4 0-.9 0-1.2-.4L16 80c-.7-.4-1.1-1.2-1.1-2V50.1c0-.8.4-1.6 1.1-2l27.3-17.5c.4-.2.8-.4 1.2-.4V13.4c-.9 0-1.7.3-2.5.8L2.3 39.6C.9 40.5 0 42.1 0 43.8v40.4c0 1.7.9 3.2 2.3 4.2L42 113.8c.8.5 1.7.8 2.5.8z"/><path fill="url(#b)" d="M89.1 86.9V41.2c0-1.8-.9-3.4-2.5-4.3L47.1 14.1c-.8-.5-1.7-.7-2.6-.7v16.7c.4 0 .9 0 1.3.3L73 46.1c.8.4 1.2 1.2 1.2 2.1v31.5c0 .9-.5 1.7-1.2 2.1L45.8 97.5c-.4.2-.8.3-1.3.3v16.7c.9 0 1.8-.2 2.6-.7L86.6 91c1.5-.9 2.5-2.5 2.5-4.3z"/><path fill="url(#c)" d="M44.5 80.8c-.3 0-.7 0-.9-.3l-13.1-8.4c-.5-.3-.8-.9-.8-1.6V57.2c0-.6.3-1.2.8-1.6l13.1-8.4q.45-.3.9-.3v-17c-.4 0-.9.1-1.2.4L16 47.8c-.7.4-1.1 1.2-1.1 2v27.9c0 .8.4 1.6 1.1 2l27.3 17.5c.4.2.8.4 1.2.4v-17z"/><path fill="url(#d)" d="M73 46.1 45.8 30.4c-.4-.2-.8-.3-1.3-.3v17c.3 0 .7 0 1 .3l13 7.5c.6.3.9.9.9 1.6v15c0 .7-.3 1.3-.9 1.6l-13 7.5c-.3.2-.6.3-1 .3v17c.4 0 .9 0 1.3-.3L73 81.9c.8-.4 1.2-1.2 1.2-2.1V48.3c0-.9-.5-1.7-1.2-2.1Z"/><path fill="url(#e)" d="M56.3 53.6 73 46.1 45.8 30.4c-.4-.2-.8-.3-1.3-.3v17c.3 0 .7 0 1 .3z"/><path fill="url(#f)" d="M112 46.1 84.8 30.4c-.4-.2-.8-.3-1.3-.3s-.9.1-1.2.4L55 48c-.7.4-1.1 1.2-1.1 2v27.9c0 .8.4 1.6 1.1 2l27.3 17.5c.4.2.8.4 1.2.4v-17c-.3 0-.7 0-.9-.3l-13.1-8.4c-.5-.3-.8-.9-.8-1.6V57.2c0-.6.3-1.2.8-1.6l13.1-8.4q.45-.3.9-.3c.45 0 .7 0 1 .3l10.8 6.2c2.5 1.5 5.6 1.5 8.2 0l9.8-5.5c0-.9-.5-1.7-1.2-2.1v.3Z"/><path fill="url(#g)" d="M128 86.9v-14l-16 9-27.2 15.7c-.4.2-.8.3-1.3.3v16.7c.9 0 1.8-.2 2.6-.7l39.5-22.8c1.5-.9 2.5-2.5 2.5-4.3h-.1Z"/><path fill="#77ae42" d="M124.9 41.7c2.3-1.2 2.3-4.5 0-5.7L86 14.1c-.8-.5-1.7-.7-2.6-.7s-1.7.3-2.5.8L41.2 39.6c-1.4.9-2.3 2.5-2.3 4.2v40.4c0 1.7.9 3.2 2.3 4.2l39.7 25.4c.8.5 1.7.8 2.5.8V97.9c-.4 0-.9 0-1.2-.4L54.9 80c-.7-.4-1.1-1.2-1.1-2V50.1c0-.8.4-1.6 1.1-2l27.3-17.5c.4-.2.8-.4 1.2-.4s.9 0 1.3.3l27.2 15.7c.7.4 1.2 1.2 1.2 2.1l12.3-6.8-7.5 4.2 6.9-3.8v-.2Z"/><path fill="url(#h)" d="M89.1 56.2 54.3 75.5l-8.8 5.1c-.3 0-.5.2-.8.2h-.2v17h1s.2 0 .3-.2L73 81.9l16-9V56.3Z"/><path fill="url(#i)" d="M30.5 72.2c-.5-.3-.8-.9-.8-1.6V57.3c0-.6.3-1.2.8-1.6l8.4-5.4V33.2l-23 14.7c-.7.4-1.1 1.2-1.1 2v27.9c0 .8.4 1.6 1.1 2l27.3 17.5c.4.2.8.4 1.2.4v-17c-.3 0-.7 0-.9-.3L30.4 72v.2Z"/><path fill="url(#j)" d="m128 72.8-11-7.3c-1.6-1.1-3.7-1.2-5.4-.2L93.3 75.5l-8.8 5.1c-.3 0-.5.2-.8.2h-.2v17c.4 0 .9 0 1.3-.3L112 81.8z"/><path fill="url(#k)" d="M89.1 86.9v-14l-16 9-27.2 15.7c-.4.2-.8.3-1.3.3v16.7c.9 0 1.8-.2 2.6-.7l39.5-22.8c1.5-.9 2.5-2.5 2.5-4.3Z"/></svg>
