<svg xmlns="http://www.w3.org/2000/svg" viewBox="0 0 128 128"><path d="m20.906 35.197 43.091 26.757 43.095-26.835-43.09-26.682-43.096 26.76M63.993.64a3.561 3.561 0 0 0-1.883.533L12.216 32.146a3.605 3.605 0 0 0-1.693 3.058v57.592c0 1.242.64 2.403 1.693 3.058l49.893 30.973c.024.013.044.027.068.041.027.016.055.038.082.055.058.03.12.041.178.068.059.03.118.072.177.096.093.04.192.065.287.096.056.018.107.039.164.054.107.03.218.049.327.068.047.006.09.02.137.027.156.022.307.028.464.028a3.481 3.481 0 0 0 .97-.137h.013a3.018 3.018 0 0 0 .355-.122c.035-.013.072-.026.109-.041.098-.044.19-.097.287-.15.052-.03.112-.053.163-.083l.096-.068 49.798-30.905a3.585 3.585 0 0 0 1.693-3.058l-.096-28.871a3.58 3.58 0 0 0-1.843-3.126 3.583 3.583 0 0 0-3.631.095l-21.24 13.228-16.368-10.143 41.485-25.827a3.58 3.58 0 0 0 1.693-3.044 3.596 3.596 0 0 0-1.707-3.044L65.89 1.173A3.607 3.607 0 0 0 63.993.64ZM17.568 41.565 53.7 64.007 17.567 86.435Zm49.934 26.646 16.38 10.143-21.868 13.61a3.556 3.556 0 0 0-1.68 3.044l.055 22.318-39.477-24.53 39.587-24.571 1.61.996a3.558 3.558 0 0 0 1.884.533 3.57 3.57 0 0 0 1.898-.533zm42.74 2.17.054 20.436-42.727 26.537-.068-20.366z"/></svg>
