<svg xmlns="http://www.w3.org/2000/svg" viewBox="0 0 128 128"><path fill="#fff" d="m23.134 31.512.537 45.107 39.2 23.36 1.88-21.749s22.017-13.425 20.406-14.498c-1.61-1.074-62.023-32.22-62.023-32.22Z"/><path d="m22.95 31.215.004.298.54 45.21 39.534 23.558 1.894-21.946c.078-.047 5.467-3.333 10.736-6.8 2.653-1.747 5.255-3.528 7.1-4.943.922-.707 1.654-1.322 2.115-1.806.23-.242.395-.447.484-.64a.563.563 0 0 0 .064-.296.382.382 0 0 0-.163-.268 18.28 18.28 0 0 0-.976-.548c-.532-.287-1.265-.677-2.168-1.154-1.807-.955-4.3-2.26-7.245-3.796A8565.274 8565.274 0 0 0 53.624 47.06C38.32 39.14 23.217 31.353 23.217 31.353Zm.367.594c.26.134 14.97 7.718 30.141 15.57 7.652 3.96 15.355 7.954 21.244 11.024 2.945 1.536 5.438 2.84 7.244 3.794.902.477 1.633.868 2.163 1.155.53.286.872.479.948.53.013.008.003-.007.004.003 0 .01-.003.05-.031.11-.056.123-.2.316-.418.544-.434.456-1.157 1.067-2.073 1.77-1.83 1.403-4.43 3.18-7.08 4.924a425.015 425.015 0 0 1-10.801 6.843l-.078.048-1.862 21.554-38.867-23.162z"/><path fill="#231f20" d="m61.116 56.337 1.329.825a2.961 2.961 0 0 0 1.56.444c.541 0 1.083-.148 1.561-.447l1.33-.828 13.498 8.36-18.021 11.221a2.952 2.952 0 0 0-1.393 2.517l.053 18.393-32.56-20.217ZM25.721 34.358l29.792 18.5-29.792 18.5Zm82.3 18.441a2.956 2.956 0 0 0-4.517-2.5L85.992 61.203l-13.498-8.357 34.204-21.299a2.958 2.958 0 0 0 1.394-2.513 2.957 2.957 0 0 0-1.4-2.508L65.56 1.056a2.955 2.955 0 0 0-3.115.002L21.312 26.6a2.955 2.955 0 0 0-1.396 2.51v47.496a2.956 2.956 0 0 0 1.396 2.512l41.133 25.541c.02.01.041.02.061.032.022.012.042.028.065.042.047.025.096.044.144.067.049.024.096.05.145.069a2.3 2.3 0 0 0 .234.084c.046.015.092.033.138.046.089.024.178.04.268.056.038.005.077.016.115.021.129.018.259.028.388.028h.002c.268 0 .538-.037.8-.113h.003c.1-.028.199-.066.297-.107l.09-.031c.08-.036.158-.081.237-.125.043-.025.088-.044.13-.069l.003-.002.001-.002.079-.049 41.05-25.489a2.956 2.956 0 0 0 1.397-2.52l-.07-23.797"/><path fill="#fff" d="m66.895 80.059.048 16.784 35.233-21.879-.05-16.845-35.23 21.94"/><path fill="#f58113" d="m28.474 29.11 35.529 22.06 35.53-22.125L64.008 7.046 28.474 29.11"/><path fill="#231f20" d="M33.933 121.08c-.302 3.913-3.717 6.28-6.955 6.28-3.93 0-7.062-3.185-7.062-6.815 0-3.415 2.829-6.813 7.044-6.813 3.487 0 5.71 2.403 6.226 3.738h-1.53c-.746-1.3-2.49-2.545-4.678-2.545-3.326 0-5.746 2.704-5.746 5.64 0 2.935 2.42 5.603 5.8 5.603 2.792 0 4.856-2.063 5.318-3.896h-7.346v-1.192h8.93m7.503.427h5.106l-2.526-6.048zm1.832-7.542h1.477l5.657 13.163h-1.441l-1.904-4.428H40.94l-1.92 4.428h-1.37l5.62-13.163m11.602 11.97 6.476-10.778h-6.28v-1.192h7.756v1.192l-6.458 10.779h6.654v1.192H54.87v-1.192m13.095-11.971h7.205v1.192h-5.888v4.73h5.693v1.193h-5.693v4.856h5.888v1.192h-7.205v-13.163m14.145 11.97h1.85c1.104 0 1.78-.053 2.49-.337.818-.336 1.388-1.244 1.388-2.24 0-1.015-.676-1.888-1.546-2.225-.625-.248-1.158-.3-2.563-.3h-1.619Zm0-6.297h1.654c1.032 0 1.62-.053 2.26-.373.623-.32 1.068-1.066 1.068-1.85 0-.605-.215-1.03-.553-1.44-.515-.588-1.317-.818-2.667-.818H82.11Zm-1.317-5.673h3.309c4.145 0 4.305 2.97 4.305 3.505 0 1.547-.979 2.275-1.44 2.65 1.315.533 2.187 1.725 2.187 3.237 0 1.263-.587 2.42-1.511 3.043-1.121.658-1.993.745-3.541.728h-3.309v-13.163m20.094 12.203c3.041 0 5.656-2.473 5.656-5.603 0-3.078-2.543-5.64-5.656-5.64a5.674 5.674 0 0 0-5.64 5.692c0 3.006 2.58 5.55 5.64 5.55zm0-12.436c3.699 0 6.972 2.936 6.972 6.813 0 3.88-3.29 6.815-6.972 6.815-3.736 0-6.956-3.042-6.956-6.743 0-4.145 3.45-6.885 6.956-6.885"/></svg>
