<svg xmlns="http://www.w3.org/2000/svg" viewBox="0 0 128 128"><defs><clipPath id="a"><path d="M0 0h1958.59v2815H0Z"/></clipPath></defs><path d="m23.134 31.512.537 45.107 39.2 23.36 1.88-21.749s22.017-13.425 20.406-14.498c-1.61-1.074-62.023-32.22-62.023-32.22Z" style="color:#000;fill:#fff;stroke-width:.360128px;-inkscape-stroke:none"/><path d="m22.95 31.215.004.298.54 45.21 39.534 23.558 1.894-21.946c.078-.047 5.467-3.333 10.736-6.8 2.653-1.747 5.255-3.528 7.1-4.943.922-.707 1.654-1.322 2.115-1.806.23-.242.395-.447.484-.64a.563.563 0 0 0 .064-.296.382.382 0 0 0-.163-.268 18.28 18.28 0 0 0-.976-.548c-.532-.287-1.265-.677-2.168-1.154-1.807-.955-4.3-2.26-7.245-3.796A8565.274 8565.274 0 0 0 53.624 47.06C38.32 39.14 23.217 31.353 23.217 31.353Zm.367.594c.26.134 14.97 7.718 30.141 15.57 7.652 3.96 15.355 7.954 21.244 11.024 2.945 1.536 5.438 2.84 7.244 3.794.902.477 1.633.868 2.163 1.155.53.286.872.479.948.53.013.008.003-.007.004.003 0 .01-.003.05-.031.11-.056.123-.2.316-.418.544-.434.456-1.157 1.067-2.073 1.77-1.83 1.403-4.43 3.18-7.08 4.924a425.015 425.015 0 0 1-10.801 6.843l-.078.048-1.862 21.554-38.867-23.162z" style="color:#000;fill:#000;stroke-width:.99;-inkscape-stroke:none"/><g clip-path="url(#a)" transform="matrix(.04502 0 0 -.04502 19.916 127.36)"><path d="m915.156 1577.59 29.512-18.33a65.77 65.77 0 0 1 34.641-9.86c12.039 0 24.071 3.29 34.691 9.93l29.55 18.39 299.81-185.68-400.294-249.26c-19.316-12-31.023-33.17-30.949-55.9l1.184-408.56-723.211 449.07Zm-786.211 488.2 661.758-410.92-661.758-410.92Zm1828.085-409.62c-.08 23.81-13.03 45.72-33.87 57.24-20.82 11.54-46.25 10.89-66.48-1.7L1467.7 1469.5l-299.81 185.64 759.75 473.09a65.695 65.695 0 0 1 30.95 55.82 65.675 65.675 0 0 1-31.09 55.72l-913.63 565.73a65.627 65.627 0 0 1-69.202-.04l-913.66-567.33A65.643 65.643 0 0 1 0 2182.37V1127.39a65.668 65.668 0 0 1 31.008-55.79l913.66-567.338c.437-.231.918-.434 1.367-.703.488-.278.93-.629 1.426-.938 1.055-.551 2.141-.98 3.203-1.48 1.082-.551 2.141-1.102 3.231-1.532 1.703-.738 3.441-1.328 5.187-1.871 1.023-.347 2.039-.738 3.074-1.019 1.965-.551 3.938-.899 5.942-1.25.855-.117 1.707-.348 2.566-.469 2.859-.391 5.742-.621 8.621-.621h.024c5.972 0 11.961.82 17.761 2.5h.078c2.247.621 4.422 1.48 6.602 2.383.65.238 1.34.429 1.99.699 1.8.789 3.52 1.801 5.28 2.777.95.543 1.95.973 2.89 1.524l.05.039c.02.039.02.039.04.039l1.74 1.09 911.84 566.17c19.33 12.04 31.09 33.17 31.01 55.98l-1.56 528.59" style="fill:#231f20"/><path d="m1043.52 1050.67 1.07-372.818 782.6 485.978-1.1 374.18-782.57-487.34" style="fill:#fff"/><path d="m190.098 2182.37 789.172-490.02 789.23 491.45-789.137 488.65-789.265-490.08" style="fill:#f58113"/><path d="M311.355 139.5C304.648 52.578 228.789 0 156.863 0 69.551 0 0 70.75 0 151.371c0 75.859 62.832 151.328 156.465 151.328 77.461 0 126.847-53.359 138.301-83.008h-33.985c-16.582 28.868-55.32 56.52-103.918 56.52-73.886 0-127.625-60.07-127.625-125.27 0-65.191 53.739-124.453 128.821-124.453 62.031 0 107.859 45.82 118.132 86.524H113.008V139.5h198.347m166.68-9.5h113.41l-56.113 134.34zm40.695 167.539h32.801L677.188 5.16h-32.012l-42.278 98.36H466.98L424.309 5.16h-30.43L518.73 297.54m257.708-265.9 143.835 239.42h-139.48v26.48h172.273v-26.48L809.629 31.641H957.41V5.16H776.438v26.48M1067.3 297.539h160.04v-26.48h-130.78V165.98h126.45V139.5h-126.45V31.64h130.78V5.16H1067.3v292.38m314.2-265.9h41.1c24.51 0 39.51 1.18 55.29 7.5 18.18 7.462 30.84 27.622 30.84 49.77 0 22.539-15.02 41.91-34.35 49.41-13.87 5.508-25.71 6.68-56.92 6.68h-35.96zm0 139.891h36.74c22.93 0 35.96 1.168 50.2 8.278 13.83 7.109 23.71 23.671 23.71 41.089 0 13.442-4.77 22.891-12.27 31.993-11.44 13.05-29.25 18.168-59.25 18.168h-39.13zm-29.25 126.008h73.49c92.07 0 95.63-65.969 95.63-77.848 0-34.371-21.74-50.55-31.99-58.871 29.21-11.832 48.59-38.32 48.59-71.91 0-28.05-13.05-53.75-33.58-67.582-24.9-14.61-44.27-16.558-78.65-16.168h-73.49v292.38m446.32-271.052c67.56 0 125.65 54.922 125.65 124.453 0 68.36-56.49 125.27-125.65 125.27-65.99 0-125.25-53.75-125.25-126.441 0-66.758 57.27-123.282 125.25-123.282zm0 276.211c82.17 0 154.87-65.199 154.87-151.328C1953.44 65.199 1880.35 0 1798.57 0c-82.98 0-154.51 67.578-154.51 149.77 0 92.07 76.66 152.929 154.51 152.929" style="fill:#231f20"/></g></svg>