<svg xmlns="http://www.w3.org/2000/svg" viewBox="0 0 128 128"><path d="M10.3 67.8C8.7 65.2 7.1 62 5.5 60H1v19h4V66c1 .8 1.2 1.8 1.8 2.6.6.9 1.2 1.8 1.8 2.6.6.8.9 1.7 1.5 2.6 1.7-2.7 2.9-5.2 4.9-8V79h5V60h-4.8c-1.6 2-3.2 5.2-4.9 7.8zM123 71.9c.6-.4 1.2-.9 1.7-1.3 1.4-.9 2-2.4 2.2-4 .1-.7 0-1.5 0-2.2l-.1-.7c-.2-.8-.6-1.5-1.1-2.2-.5-.8-1.3-1-1.9-1.5-1.1-.3-2.2-.7-3.4-.7-2.7.1-5.6 0-8.4 0h-.9v19.6h5v-6h2.7c1.3 2 2.7 4 3.9 6h4.7c-1.4-1.9-3-4.8-4.4-7zm-.6-5c-.4.7-.9 1.2-1.8 1.3-.6.1-.9.2-1.5.2h-3.2v-5.5h3.9c.5 0 .9.1 1.3.3.7.3 1.2.9 1.5 1.6.5.8.4 1.2-.2 2.1zM25 79h14v-4H29v-4.4c0-.1.1.4.2.4H38v-3h-9v-4h10v-4H25v19zm43.9-4.7c.1-1.3.1-2.5.1-3.7 0-.1-.1.4 0 .4h9v-3h-9v-4h10v-4H65v19h14v-4.7H68.9zM44 63.1h5.7s.2 0 .2.1v14.6h4V63.9h5v-4h-15c.1 1.1.1 2 .1 3.2z"/><path d="M105.7 64.3c.3 0 .5-.2.5-.5 0-.1 0-.2-.1-.3l-6.6-6.1 5.8 6.6c.1.2.2.3.4.3zm1.4 3.4L92.7 54.6l13.1 14.3c.2.1.4.2.6.2.5 0 .8-.4.8-.8.1-.3 0-.5-.1-.6zm-6.3 8.8L80.1 57.4l19.1 20.8c.2.2.5.4.9.4.6 0 1.2-.5 1.2-1.2-.1-.3-.3-.7-.5-.9zM77.7 49.4l25.3 27c.2.2.5.3.8.3.6 0 1.2-.5 1.2-1.2 0-.2-.1-.5-.2-.7-.1 0-27.1-25.4-27.1-25.4zm28.8 21.8L85.8 52.1l19.1 20.8c.2.2.5.4.9.4.6 0 1.2-.5 1.2-1.2-.1-.3-.3-.7-.5-.9zm-10 5.9c0-.1-.1-.1 0 0L82.1 64l13.1 14.3c.2.1.4.2.6.2.5 0 .8-.4.8-.8.1-.3 0-.5-.1-.6zm-11-6.6l5.8 6.6c.1.1.2.3.4.3.3 0 .5-.2.5-.5 0-.1 0-.2-.1-.3-.1-.1-6.6-6.1-6.6-6.1z" fill="#DF5052"/></svg>