<?xml version="1.0" encoding="utf-8"?>
<!-- Generator: Adobe Illustrator 16.0.0, SVG Export Plug-In . SVG Version: 6.00 Build 0)  -->
<!DOCTYPE svg PUBLIC "-//W3C//DTD SVG 1.1//EN" "http://www.w3.org/Graphics/SVG/1.1/DTD/svg11.dtd">
<svg version="1.1" id="Layer_1" xmlns="http://www.w3.org/2000/svg" xmlns:xlink="http://www.w3.org/1999/xlink" x="0px" y="0px"
	 width="500px" height="500px" viewBox="0 0 500 500" enable-background="new 0 0 500 500" xml:space="preserve">
<g>
	<path fill-rule="evenodd" clip-rule="evenodd" fill="#008CBA" d="M453.803,250.39c2.227,0.716,3.977,1.28,5.727,1.843
		c0.113-0.206,0.227-0.414,0.34-0.621c-3.125-4.124-6.156-8.561-11.854-9.36c-4.143-0.582-8.389-0.421-12.59-0.59
		c0.137-1.99-0.598-2.696-2.576-1.883c-1.873,0.769-3.803,1.394-5.697,2.104c-4.543,1.707-9.066,3.473-13.639,5.098
		c-0.799,0.284-1.801-0.004-2.707-0.028c0.066-0.852,0.002-1.742,0.225-2.552c0.836-3.041,1.787-6.05,2.648-9.084
		c0.287-1.014,0.432-2.067,0.641-3.092c1.479,1.176,2.736,2.175,4.318,3.431c0.877-10.707-1.273-20.061-6.855-29.098
		c2.084,0.116,3.699,0.207,5.6,0.313c-2.514-5.816-6.258-10.222-11.504-13.329c-6.619-3.92-14.08-3.852-21.395-4.445
		c-1.154-0.095-2.322-0.014-3.734-0.014c5.561,9.271,7.885,24.845,4.514,30.118c-0.742-1.249-1.424-2.394-1.873-3.149
		c-4.189,6.784-8.162,13.905-12.814,20.552c-4.668,6.672-10.438,12.369-18.418,16.079c0.371-1.836,0.631-3.113,0.967-4.779
		c-1.188,0.315-1.93,0.583-2.695,0.698c-1.986,0.301-4.051,0.987-5.959,0.695c-3.572-0.546-7.066-1.634-10.572-2.574
		c-2.406-0.646-4.777-1.421-7.166-2.139l0.006,0.012c-0.168-0.179-0.336-0.358-0.506-0.538c-2.785-1.948-2.336-4.274-0.961-6.868
		c0.939-1.775,1.609-3.698,2.346-5.577c1.67-4.27,3.309-8.554,4.959-12.832c1.648-1.845,3.518-3.54,4.885-5.572
		c1.521-2.265,2.678-4.795,3.818-7.289c0.818-1.789,1.926-3.02,3.797-3.806c1.082-0.455,2.176-1.486,2.697-2.539
		c0.959-1.938,1.557-4.066,2.195-6.148c0.506-1.656-0.121-2.843-1.811-3.396c-0.689-0.227-1.379-0.453-2.068-0.68
		c0.182-0.702,0.264-1.45,0.564-2.096c5.111-10.93,10.07-21.936,15.436-32.742c5.475-11.027,11.305-21.879,17.092-32.748
		c1.229-2.307,2.939-4.357,4.428-6.525c2.588,0.174,5.176,0.451,7.766,0.505c11.629,0.241,22.186-2.701,30.754-10.957
		c8.984-8.653,15.172-19.111,19.303-30.831c0.215-0.543,0.43-1.085,0.838-2.12c-0.85,0.534-1.246,0.766-1.623,1.024
		c-11.451,7.837-23.818,12.161-37.908,9.889c0.162-0.454,0.227-0.979,0.5-1.35c4.938-6.683,9.873-13.368,14.875-20.003
		c1.768-2.345,3.715-4.556,5.748-7.033c-1.266-0.482-2.148-0.869-3.063-1.157c-4.695-1.479-9.381-2.999-14.111-4.362
		c-2.01-0.579-2.434-1.573-1.586-3.386c1.99-4.251,3.934-8.526,5.912-12.783c0.568-1.225,1.506-2.425,2.26-3.957
		C401.682,26.522,391,26.277,379,27.732c0-2.296,0-4.429,0-6.938c-5,0.71-9.496,1.126-13.789,2.073
		c-4.266,0.939-8.578,2.412-12.779,3.65c-0.184-0.132-0.448-0.263-0.632-0.395c3.221-5.563,6.404-11.125,9.842-17.062
		c-5.1,0.583-9.875,0.876-14.535,1.709c-9.348,1.671-18.29,3.553-27.579,5.522c-4.014,0.85-7.527,2.131-11.527,3.216
		c0-2.319,0-4.638,0-7.35c-7,1.055-12.504,4.119-19.191,6.61c1.365-4.103,2.352-7.514,3.422-10.958
		c0.234-0.751-0.009-1.621,0.019-2.436c-0.354-0.13-0.775-0.415-1.102-0.367c-2.863,0.415-5.756,0.806-8.592,1.361
		c-14.76,2.893-28.823,7.781-42.019,15.049c-1.5,0.827-3.033,1.606-5.16,2.732c-0.361-5.631-0.688-10.667-1.017-15.77
		c-7.949,2.804-15.577,6.483-21.073,13.539c-1.043-4.055-2.09-8.11-3.135-12.165c-0.01-0.317-0.02-0.634-0.029-0.951
		c-0.049-0.151-0.096-0.301-0.145-0.452c-0.08,0.09-0.158,0.179-0.238,0.271c-0.684,0.789-1.438,1.528-2.041,2.376
		c-6.26,8.82-9.555,18.67-10.164,29.446c-1.648-3.615-3.295-7.23-5.039-11.052c-2.369,11.208-4.684,22.154-7.098,33.583
		c-4.17-5.312-7.947-10.125-11.971-15.25c-4.119,11.155-6.813,22.319-8.088,34.241c-2.984-3.368-5.588-6.303-8.406-9.48
		c-5.609,17.164-10.373,34.033-12.141,51.851c-4.225-2.575-6.811-5.963-8.582-10.086c-2.555-5.939-3.174-12.161-2.928-18.536
		c0.035-0.968-0.094-1.942-0.145-2.913c-0.238,0.003-0.475,0.006-0.711,0.01c-8.342,29.075-10.51,58.813-9.385,89.009
		c-3.449-6.563-6.896-13.127-10.344-19.689c-0.232,0.02-0.465,0.04-0.697,0.061c-0.697,7.611-1.529,15.213-2.041,22.838
		c-0.314,4.71,0.473,3.872-4.029,4.995c-14.172,3.535-27.643,8.621-39.418,17.544c-0.742,0.563-1.656,0.896-2.492,1.336
		c0.283,0.266,0.566,0.532,0.85,0.8c4.121,1.54,8.242,3.08,12.059,4.506c-5.197,5.778-10.34,11.218-15.158,16.933
		c-4.879,5.791-8.633,12.299-11.457,19.721c2.701-1.125,4.893-2.136,7.154-2.95c2.152-0.775,4.381-1.346,6.576-2.007
		c-4.299,4.416-7.525,9.249-10.191,14.429c-9.48,18.417-12.842,38.385-13.975,58.739c-0.733,13.161-0.361,26.382,1.854,39.459
		c0.378,2.23,0.862,4.445,1.296,6.667c0.326,0.057,0.65,0.114,0.975,0.171c1.96-4.632,3.92-9.264,5.879-13.897
		c2.669,14.899,3.178,29.781,3.02,44.708c0.212,0.128,0.426,0.258,0.639,0.388c1.668-2.034,3.336-4.067,5.314-6.479
		c0.732,1.51,1.148,2.117,1.334,2.789c2.791,10.086,3.535,20.416,2.789,30.772c-0.387,5.398-0.303,10.636,0.922,15.865
		c3.006,12.827,9.359,23.889,18.131,33.58c1.748,1.933,4.176,3.264,6.338,4.807c1.021,0.728,1.662,0.454,1.572-0.909
		c-0.068-0.039-0.137-0.075-0.205-0.112c0.068,0.037,0.139,0.073,0.209,0.107c1.371,0.446,2.75,0.875,4.115,1.341
		c2.223,0.76,4.436,1.545,6.65,2.319c0.102-0.208,0.203-0.417,0.305-0.625c-1.42-2.959-2.838-5.917-4.258-8.876
		c-0.121-0.175-0.242-0.349-0.363-0.521c0.063-0.042,0.125-0.082,0.188-0.123c0.063,0.211,0.125,0.424,0.188,0.635
		c0.307,0.091,0.703,0.086,0.904,0.284c4.152,4.062,9.434,6.168,14.598,8.481c1.436,3.428,3.795,6.098,6.547,8.44
		c1.668-1.157,3.113-2.159,4.648-3.225c0.639,0.794,1.176,1.386,1.631,2.037c3.846,5.502,9.109,8.085,15.818,7.817
		c4.215-0.168,8.434-0.253,12.65-0.352c14.52-0.341,29.043-0.617,43.561-1.023c10.055-0.282,20.107-0.696,30.156-1.133
		c4.676-0.205,9.344-0.607,14.465-0.949c-7.533-19.855-23.213-30.347-40.594-37.786c4.662-1.271,9.781-2.666,14.9-4.061
		c21.572,11.97,45.369,19.834,64.83,35.696c0.305-0.157,0.611-0.313,0.916-0.471c-0.572-5.825-1.146-11.65-1.727-17.564
		c1.203,0.82,2.484,1.634,3.703,2.535c4.771,3.526,9.523,7.079,14.281,10.623c0.295,0.135,0.589,0.271,0.882,0.408
		c0.105,0.208,0.165,0.473,0.329,0.614c7.15,6.145,14.768,10.856,24.809,10.645c13.869-0.292,27.752,0.007,41.629-0.076
		c1.059-0.005,2.553-0.752,3.094-1.622c3.125-5.021,6.203-10.087,8.969-15.312c6.939-13.114,13.701-26.321,20.539-39.489
		c0.641-1.235,1.305-2.459,1.957-3.689c-3.082,0.923-5.744,2.242-8.393,3.594c-2.871,1.466-5.727,2.961-8.59,4.443
		c-0.086,0.072-0.17,0.144-0.256,0.216c0.064-0.093,0.129-0.187,0.191-0.28c0.303-0.91,0.445-1.916,0.93-2.716
		c6.238-10.312,12.277-20.757,18.873-30.84c6.553-10.017,14.184-19.379,18.213-30.849c1.84-5.241,3.295-10.616,4.924-15.932
		l-0.074-0.063c-0.16-0.039-0.32-0.032-0.477,0.022c-2.928,2.059-5.717,4.364-8.818,6.115c-3.734,2.108-7.734,3.746-11.619,5.588
		l-0.113,0.203l-0.09-0.092l0.203-0.111c0.219-0.768,0.449-1.533,0.652-2.305c1.002-3.813,1.996-7.627,2.994-11.441
		c-1.199-0.068-1.701,0.159-2.193,0.407c-8.383,4.242-16.625,8.792-25.178,12.657c-11.717,5.296-22.684,11.721-32.658,19.818
		c-3.373,2.738-6.596,5.659-9.955,8.554c-0.25-0.172-0.531-0.324-0.762-0.532c-3.309-2.97-6.602-5.956-9.916-8.919
		c-2.078-1.857-4.186-3.678-6.281-5.518c7.225-9.255,13.02-19.348,16.521-30.553c2.256-7.219,3.668-14.702,5.457-22.066
		c0.689-0.206,1.389-0.38,2.064-0.622c5.623-2.015,11.342-3.685,17.387-3.278c2.606,0.175,5.176,0.922,7.761,1.41
		c-0.652-1.459-1.302-2.919-1.954-4.378c-0.064-0.077-0.131-0.153-0.197-0.228c0.049,0.011,0.115,0.007,0.139,0.038
		c0.039,0.049,0.049,0.118,0.07,0.178c0.467,0.096,0.973,0.109,1.395,0.301c4.49,2.031,8.877,4.321,13.465,6.087
		c7.535,2.9,15.387,4.273,23.506,3.867c1.092-0.056,1.865-0.151,1.023-1.471c0.771,0.205,1.566,0.347,2.311,0.627
		c5.994,2.261,12.23,3.378,18.564,2.679c5.834-0.643,10.539-3.543,13.145-9.262c0.734,0.345,1.27,0.595,1.855,0.87
		c1.604-4.5,0.193-8.709-0.629-12.964c-0.143-0.736-0.141-1.823,0.291-2.287c1.572-1.691,3.354-3.187,5.143-4.835
		c0.352,0.81,0.688,1.581,1.096,2.519c2.508-4.17,2.572-8.753,2.873-13.851c1.123,1.382,1.768,2.176,2.412,2.97
		c0.314-0.125,0.629-0.25,0.943-0.375c-0.754-3.705-0.818-7.748-2.43-11.033c-2.252-4.596-2.379-8.291,0.639-12.541
		c1.787-2.515,2.539-5.768,4.117-9.555c0.289,0.776,0.363,1.219,0.604,1.538c0.188,0.251,0.58,0.348,1.02,0.588
		C460.252,261.646,457.201,256.194,453.803,250.39z"/>
	<path fill-rule="evenodd" clip-rule="evenodd" fill="#008CBA" d="M426.412,358.926c-0.072-0.021-0.146-0.042-0.219-0.062
		c-0.037,0.228-0.072,0.455-0.109,0.682c0,0,0.074,0.063,0.074,0.062C426.242,359.38,426.328,359.152,426.412,358.926z"/>
	<path fill-rule="evenodd" clip-rule="evenodd" fill="#008CBA" d="M371.268,328.997c-0.066-0.038-0.135-0.076-0.201-0.114
		c-0.001,0-0.002,0-0.003,0c0,0,0.001,0.001,0.001,0.002C371.131,328.922,371.199,328.96,371.268,328.997z"/>
</g>
</svg>
