<svg xmlns="http://www.w3.org/2000/svg" viewBox="0 0 128 128"><path fill-rule="evenodd" clip-rule="evenodd" fill="#D3EDF6" d="M29.205 103.762c.019.297-.12.355-.342.197-.47-.335-.998-.624-1.378-1.045-1.907-2.106-3.288-4.511-3.941-7.3-.266-1.137-.285-2.275-.2-3.448.162-2.252 0-4.498-.606-6.69-.041-.146-.131-.278-.29-.607l-1.155 1.409-.139-.084c.035-3.245-.076-6.48-.656-9.719l-1.278 3.021-.212-.037c-.094-.483-.2-.965-.282-1.45-.481-2.843-.563-5.717-.403-8.578.247-4.425.977-8.766 3.038-12.77.58-1.126 1.281-2.177 2.215-3.137-.477.144-.961.268-1.43.437-.492.177-.968.397-1.555.641.614-1.613 1.43-3.028 2.491-4.287 1.047-1.242 2.166-2.425 3.295-3.681l-2.622-.979-.185-.174c.182-.096.38-.168.542-.291 2.56-1.94 5.488-3.045 8.569-3.814.979-.244.808-.062.876-1.086.111-1.657.292-3.31.444-4.965l.151-.013 2.249 4.28c-.245-6.564.227-13.029 2.041-19.35l.154-.002c.011.211.039.423.031.633-.054 1.386.082 2.738.637 4.029.385.896.947 1.633 1.866 2.192.384-3.874 1.419-7.541 2.639-11.271l1.828 2.061c.277-2.592.863-5.019 1.758-7.444l2.603 3.315 1.543-7.301 1.096 2.403c-.077 3.817 1.789 6.741 4.405 9.4l-2.895 1.462c3.035-.247 5.217-1.294 6.772-3.231.459-.719.991-1.403 1.361-2.165.556-1.144.514-1.175-.531-1.875-2.793-1.872-4.687-4.412-5.688-7.619 1.194-1.534 2.853-2.334 4.581-2.943l.221 3.428 1.121-.594c2.869-1.58 5.923-2.642 9.131-3.271.617-.121 1.24-.205 1.863-.295.071-.011.153.051.229.08l-3 2.392c-1.096.874-1.967 1.944-2.724 3.115l-.105.106-.002.105c-.108.112-.249.207-.319.338-.571 1.067-1.161 2.127-1.68 3.22-.302.637-.484 1.331-.73 2.028l4.821.459.085.185c-3.464 3.119-6.934 6.232-10.153 9.737l3.448.472c-.978.4-1.857.704-2.687 1.111-2.415 1.185-4.672 2.579-6.305 4.807-1.264 1.725-2.577 3.415-3.868 5.119l-3.032-3.041-.774 3.535 2.152 1.938-.341.655c-.672 1.412-1.402 2.8-1.995 4.245-.618 1.505-.757 3.127-.872 4.741-.132 1.854-.339 3.704-.397 5.56-.07 2.249-.083 4.503.296 6.737.333 1.967.589 3.949.98 5.903.241 1.207.673 2.375 1.02 3.561l.146-.029 1.436-2.881.144.037c.519 2.485 1.256 4.902 2.313 7.207 1.052 2.294 2.264 4.496 4.172 6.276v-3.04l.211.002c.39.204.782.405 1.164.623 2.681 1.528 5.456 2.866 8.32 4.011 3.467 1.386 6.919 2.807 10.212 4.576 1.02.548 2.045 1.132 2.936 1.861 2.022 1.656 3.962 3.413 5.936 5.129l-.164.386c-.646 1.293-1.304 2.58-1.94 3.877-.563 1.146-1.103 2.302-1.652 3.453l-.143-.021v-3.991c-.227.512-.317 1.031-.455 1.536-.558 2.052-1.121 4.102-1.702 6.146-.175.616-.617.972-1.223 1.213-.71.281-1.373.191-2.054-.023l.006.004-.197-.091c-1.035-.771-2.068-1.543-3.105-2.31-.265-.195-.543-.372-.805-.551l.375 3.818-.199.103c-4.23-3.448-9.404-5.158-14.093-7.761-1.524-.97-3.053-1.934-4.57-2.915-.405-.262-.773-.579-1.249-.939l.232 1.879-.127.09-4.333-2.975c.076-.591.189-1.179.22-1.771.056-1.081.19-2.179.067-3.244-.298-2.573-1.634-4.545-3.769-6.008-.867-.595-1.704-1.241-2.501-1.927-.439-.377-.779-.877-.876-1.419l2.49.223c-.74-1.381-1.478-2.603-2.063-3.894-.586-1.294-1.144-2.628-1.073-4.266.436.592.719 1.143 1.367 1.405-.222-2.183.097-4.249.452-6.298.354-2.047.847-4.071 1.279-6.105-1.509 2.643-3.049 5.264-3.512 8.455l-1.246-1.312c-.055.791-.159 1.506-.143 2.219.035 1.599.096 3.198.208 4.792.128 1.819.625 3.552 1.343 5.229.819 1.915 2.222 3.404 3.521 4.974.826.998 1.534 2.078 1.722 3.391.203 1.42.336 2.851.5 4.277l.329 4.827c-.945.195-3.583-.443-4.137-1.044l.444-.237c-.475-.41-.999-.768-1.398-1.232-.607-.706-.725-1.617-.867-2.509-.037-.229-.222-.434-.339-.649-.221.2-.511.364-.641.612-.108.208-.082.525-.023.772.109.46.25.92.44 1.352.577 1.304 1.202 2.586 1.773 3.893.701 1.603 1.278 3.242 1.239 5.029-.012.523-.119.623-.601.43-.651-.261-1.288-.564-1.913-.884-.491-.251-.955-.554-1.491-.869v.563l-.043.037c-.153-.077-.327-.129-.457-.235-.552-.451-1.091-.919-1.635-1.38l.004.005-.11-.222-.975-2.424-.089.357-.157.331c-.731-1.342-1.117-2.685-1.315-4.099-.356 1.21.025 2.362.185 3.6l.321-.349c.277.56.518 1.103.809 1.616.294.518.62 1.021.969 1.503.177.244.436.431.657.644.514 1.295 1.043 2.584 1.302 4.1l-2.784-.825c-1.123-.503-2.271-.961-3.173-1.844l-.196-.062-.041-.139-.041.027.079.113.925 1.93-.066.136-1.446-.505-.896-.29-.045-.024.045.024zm1.132-1.745l-1.089-2.627-.358.243-.731-3.423c-.7 1.341.676 5.166 2.178 5.807zm11.975-42.722l-.015-.044-.038.01.015.045.038-.011z"/><path fill-rule="evenodd" clip-rule="evenodd" fill="#E9F5FA" d="M83.972 92.034c-1.974-1.716-3.914-3.473-5.936-5.129-.89-.729-1.916-1.313-2.936-1.861-3.293-1.769-6.745-3.189-10.212-4.576-2.865-1.146-5.639-2.483-8.32-4.011-.382-.218-.773-.419-1.164-.623l-.211-.002v3.04c-1.908-1.78-3.12-3.982-4.172-6.276-1.057-2.305-1.795-4.722-2.313-7.207l-.144-.037-1.436 2.881-.146.029c-.347-1.186-.778-2.354-1.02-3.561-.392-1.955-.647-3.937-.98-5.903-.379-2.234-.366-4.488-.296-6.737.058-1.855.265-3.706.397-5.56.115-1.614.254-3.235.872-4.741.593-1.445 1.323-2.833 1.995-4.245l.341-.655.213.156c1.346 1.108 2.706 2.201 4.025 3.339.251.217.44.602.493.936.102.641.093 1.3.115 1.952.037 1.093.32 1.558 1.352 1.888 3.524 1.126 7.112 1.763 10.833 1.329 1.036-.121 1.903-.513 2.506-1.383.531-.768 1.052-1.543 1.55-2.333.57-.903.725-.964 1.769-.806.47.071.623.29.612.729-.017.669-.003 1.339-.011 2.009-.017 1.49.802 2.342 2.167 2.657 1.163.269 2.352.465 3.539.576 1.505.141 3.029.277 4.499-.281-.359.93-.715 1.862-1.079 2.79-.16.408-.306.826-.51 1.212-.299.564-.396 1.07.209 1.494l.11.117-.001-.003.289.553c.681 1.387 1.438 2.743 2.022 4.169.92 2.25 1.247 4.636 1.311 7.058.104 2.845-.439 5.573-1.512 8.197-.313.763-.59 1.601-1.114 2.204-2.363 2.72-5.368 3.957-8.988 3.584l-1.043-.121c.067.139.153.192.24.243 2.436 1.417 4.872 2.835 7.31 4.249.132.076.286.114.429.169.456.4.914.796 1.366 1.2l2.155 1.938.166.116c.73-.63 1.431-1.265 2.165-1.86 2.168-1.76 4.552-3.157 7.1-4.309 1.859-.84 3.651-1.829 5.473-2.751.107-.054.216-.103.477-.088l-.651 2.487-.142.501-.044.024.02.02.024-.044c.845-.4 1.714-.756 2.526-1.215.674-.38 1.28-.882 1.917-1.329-.121.271-.219.556-.367.813-1.101 1.916-2.571 3.529-4.173 5.028-.456.426-.947.814-1.484 1.272l.137-2.422c-2.349 1.954-4.316 4.053-6.221 6.217l-.143-.046-.198-2.84c-2.073 1.866-4.12 3.615-5.757 5.779zm-27.897-43.206c.031.292.036.501.077.703.289 1.458 1.119 2.577 2.264 3.468 2.361 1.836 5.124 2.712 8.019 3.196 2.609.436 5.246.253 7.874.185l.46-.083-.604-1.263c-.3-.615-.615-1.223-.901-1.846-.207-.451-.066-.765.363-1.062.904-.625 1.76-1.321 2.672-2.015-.691-.567-1.438-.821-2.205-.88-2.249-.173-4.501-.348-6.754-.386-3.722-.063-7.445-.017-11.265-.017zm11.841 15.338l.208-.042c.302-.61.645-1.204.896-1.833.309-.774.6-1.513 1.471-1.85.472-.182.901-.477 1.349-.721l-.043-.167c-3.907.242-7.735-.184-11.583-1.428.103 1.651.521 3.049 1.21 4.455l1.485-1.654c.467 1.262.78 2.49 1.729 3.555l1.816-2.683 1.462 2.368zm3.487 14.667l-.01-.031-.045-.009.013.053.042-.013zM49.944 34.429c1.292-1.705 2.605-3.394 3.869-5.119 1.632-2.228 3.89-3.623 6.305-4.807.829-.407 1.709-.71 2.687-1.111l-3.448-.472c3.22-3.504 6.689-6.618 10.153-9.737l-.085-.185-4.821-.459c.247-.697.428-1.392.73-2.028.519-1.093 1.108-2.152 1.68-3.22.071-.132.211-.226.319-.338.179.071.352.167.537.208l7.85 1.689c.713.154.724.158.724-.606v-3.937c.861-.236 1.714-.515 2.586-.699 2.02-.428 4.044-.837 6.076-1.2 1.013-.181 2.046-.245 3.155-.372l-2.148 3.709.121.086c.913-.27 1.816-.589 2.743-.793.933-.206 1.891-.296 2.928-.451v1.508c2.547-.316 5-.263 7.52.215l-.422.86c-.43.926-.853 1.855-1.285 2.779-.185.394-.092.61.345.736 1.028.296 2.047.627 3.068.948.199.063.391.146.666.251-.442.539-.865 1.019-1.25 1.529-1.087 1.442-2.16 2.896-3.233 4.349-.06.081-.074.195-.109.293l-2.165 3.373c-.661 1.123-1.324 2.244-1.976 3.372-.047.082-.014.21-.019.318-.324.471-.695.917-.962 1.418-1.258 2.363-2.526 4.722-3.716 7.119-1.166 2.349-2.244 4.742-3.355 7.118-.065.141-.083.303-.123.456l-5.366-1.098c-.587-.801-1.459-.874-2.125-.176-1.495.048-2.991.121-4.487.133-.768.006-1.557-.007-2.301-.171-2.301-.508-4.586-1.093-6.877-1.648-.378-.917-1.692-1.058-2.336-.479l-.158-.005c-2.839-.484-5.69-.817-8.58-.701-.134.006-.309-.083-.405-.184-.778-.814-1.542-1.645-2.31-2.471zm9.765 1.653l.283-.123c1.221-.639 2.488-1.024 3.886-.74.271.055.551.069.877.108-.821-1.252-2.891-1.363-4.038-.619-.498.325-.98.689-1.008 1.374l-.025.044.025-.044zm5.261-2.811c-.492-1.18-2.046-1.765-3.437-1.382-1.167.321-2.266 1.57-2.145 2.543 1.559-1.758 3.441-1.915 5.582-1.161zm15.344 2.253c1.517.142 2.833.642 3.773 1.976.067-1.103-.361-1.749-1.253-2.238-.835-.458-1.852-.331-2.52.262zm2.676 4.235c-.128-1.228-.512-2.22-1.733-2.57-.629-.18-1.264-.077-1.798.43 1.599.442 2.165.491 3.531 2.14z"/><path fill-rule="evenodd" clip-rule="evenodd" fill="#B3E0EE" d="M84.303 65.018c-.064-2.422-.39-4.808-1.311-7.058-.584-1.427-1.341-2.783-2.022-4.169l-.289-.553c.519.156 1.035.325 1.558.465.762.205 1.521.441 2.298.56.415.063.864-.086 1.295-.151.166-.025.328-.083.586-.152l-.21 1.039c1.735-.807 2.989-2.045 4.004-3.496 1.011-1.445 1.875-2.993 2.785-4.467l.408.684c.733-1.146.228-4.532-.981-6.547.307 0 .561-.018.812.003 1.59.129 3.212.114 4.651.966 1.141.675 1.955 1.633 2.501 2.897l-1.218-.068c1.214 1.964 1.681 3.998 1.49 6.325l-.938-.746c-.045.223-.077.452-.139.672-.188.66-.394 1.314-.576 1.975-.049.176-.034.37-.049.555.197.006.415.068.588.006.994-.353 1.977-.737 2.965-1.108.412-.154.832-.29 1.239-.458.43-.176.59-.023.56.41-1.119.39-2.239.777-3.355 1.172-.143.051-.273.138-.41.208 1.415-.157 1.976-.082 2.699.423.527.368.604.825.135 1.272-.363.347-.799.622-1.22.903-.253.168-.539.287-.888.47l.486.184c-.771.506-1.514.942-2.197 1.457-.85.639-1.703 1.291-2.457 2.037-.601.594-.417 1.008.423 1.075 1.032.083 2.07.087 3.105.123l.665.001-.49.635-.024.041.021-.044c.388 0 .781.038 1.162-.015.239-.034.575-.147.665-.326.195-.389.509-.438.853-.502.671-.127 1.345-.239 2.011-.39.533-.12 1.055-.288 1.583-.435l.078.11-1.179 1.099-.176-.648c-1.871.86-3.718 1.638-5.494 2.555-.857.442-1.58 1.144-2.363 1.729l-.043.049.049-.043.502.036-1.964 1.657c.313.272.564.631.901.753.635.231 1.313.41 1.983.458 1.011.072 2.032.013 3.049.01l.027-.223-.795-.326 4.054-.488c-2.765 1.702-5.958 1.523-9.016 2.036.005.827.698 1.216 1.141 1.785l-.33.273.959.806c.183.287.015.308-.223.32-1.765.088-3.472-.21-5.109-.841-.998-.384-1.952-.882-2.927-1.323l-.303-.065-.015-.039-.03-.008.043.05.425.952c-.563-.106-1.121-.269-1.688-.307-1.314-.088-2.557.275-3.78.713l-.448.135c.035-.454.099-.906.1-1.359.004-1.84-.008-3.68-.026-5.52-.002-.071-.115-.14-.176-.209z"/><path fill-rule="evenodd" clip-rule="evenodd" fill="#65C1DD" d="M83.972 92.034c1.637-2.164 3.684-3.913 5.754-5.778l.198 2.84.143.046c1.905-2.164 3.872-4.263 6.221-6.217l-.137 2.422c.537-.458 1.029-.846 1.484-1.272 1.602-1.5 3.073-3.112 4.173-5.028.147-.256.246-.541.367-.813l.104-.005.016.014c-.354 1.156-.67 2.324-1.071 3.463-.876 2.494-2.535 4.529-3.959 6.707-1.434 2.191-2.747 4.463-4.103 6.704-.105.174-.136.393-.202.591l-.042.061.056-.047c.623-.322 1.243-.647 1.868-.966.575-.294 1.154-.581 1.824-.781l-.426.802c-1.486 2.862-2.957 5.733-4.465 8.585-.601 1.136-1.27 2.237-1.95 3.328-.118.189-.442.352-.672.353-3.017.019-6.035-.047-9.05.017-2.183.046-3.839-.979-5.394-2.314l-.072-.135c.682.215 1.344.305 2.054.023.606-.241 1.048-.597 1.223-1.213.581-2.045 1.145-4.095 1.702-6.146.137-.505.228-1.024.455-1.536v3.991l.143.021c.55-1.151 1.09-2.308 1.652-3.453.636-1.297 1.294-2.584 1.94-3.877l.166-.387z"/><path fill-rule="evenodd" clip-rule="evenodd" fill="#65C2DD" d="M46.573 92.961l4.333 2.975.127-.09-.232-1.879c.475.36.844.678 1.249.939 1.517.981 3.046 1.945 4.57 2.915l-3.239.883c3.778 1.617 7.187 3.898 8.825 8.215-1.113.074-2.128.162-3.145.206-2.185.095-4.37.186-6.556.246-3.156.089-6.313.148-9.47.223-.917.021-1.834.04-2.75.076-1.458.059-2.603-.503-3.439-1.699l-.354-.442-1.01.701c-.599-.51-1.111-1.09-1.423-1.835l2.784.825c-.259-1.516-.789-2.805-1.302-4.1l-.299-.963c.544.461 1.083.929 1.635 1.38.13.106.304.158.458.235l.072.116-.03-.153v-.563c.536.315 1 .618 1.491.869.625.319 1.261.623 1.913.884.482.193.589.094.601-.43.039-1.787-.539-3.427-1.239-5.029-.571-1.307-1.196-2.589-1.773-3.893-.19-.432-.331-.892-.44-1.352-.059-.247-.085-.564.023-.772.13-.248.42-.412.641-.612.117.216.302.421.339.649.142.892.26 1.803.867 2.509.399.465.924.822 1.398 1.232l-.444.237c.554.601 3.192 1.239 4.137 1.044l-.329-4.827.317.165 1.694 1.115z"/><path fill-rule="evenodd" clip-rule="evenodd" fill="#EBF7FE" d="M98.458 72.518l-.959-.806.33-.273c-.442-.569-1.135-.958-1.141-1.785 3.058-.513 6.25-.333 9.016-2.036l-4.054.488.795.326-.027.223c-1.017.003-2.038.062-3.049-.01-.671-.048-1.349-.228-1.983-.458-.337-.123-.588-.481-.901-.753l1.964-1.657-.502-.036-.006-.006c.784-.584 1.506-1.287 2.363-1.729 1.776-.917 3.623-1.695 5.494-2.555l.176.648 1.179-1.099-.078-.11c-.527.146-1.05.314-1.583.435-.666.151-1.34.263-2.011.39-.344.064-.658.113-.853.502-.09.179-.426.292-.665.326-.38.053-.774.015-1.162.015l.003.003.49-.635-.665-.001c-1.036-.036-2.074-.039-3.105-.123-.841-.067-1.024-.481-.423-1.075.754-.746 1.607-1.397 2.457-2.037.683-.514 1.426-.951 2.197-1.457l-.486-.184c.35-.183.635-.301.888-.47.421-.281.857-.556 1.22-.903.468-.447.392-.905-.135-1.272-.723-.505-1.285-.58-2.699-.423.136-.07.267-.158.41-.208 1.117-.395 2.236-.783 3.355-1.172.913.037 1.836.001 2.737.128 1.239.174 1.897 1.138 2.577 2.035l-.074.135-1.245-.4c.739 1.262 1.402 2.447 1.448 3.907l-.221-.127-.131-.334c-.343.823-.506 1.53-.895 2.077-.656.924-.628 1.727-.139 2.727.35.714.364 1.593.528 2.398l-.206.082-.524-.646c-.065 1.108-.079 2.105-.625 3.011l-.238-.547c-.389.358-.776.683-1.118 1.051-.094.101-.094.337-.063.498.179.925.485 1.84.137 2.818l-.404-.189c-.566 1.243-1.589 1.874-2.857 2.014-1.377.152-2.733-.091-4.036-.583-.16-.063-.333-.093-.501-.138z"/><path fill-rule="evenodd" clip-rule="evenodd" fill="#515053" d="M79.523 40.132l5.366 1.098.45.147c.367.121.503.378.394.739-.139.453-.269.915-.478 1.336-.113.229-.351.453-.586.552-.407.171-.647.439-.825.828-.248.542-.499 1.092-.83 1.584-.297.442-.704.811-1.062 1.211-1.47.559-2.994.422-4.499.281-1.188-.111-2.376-.308-3.539-.576-1.365-.315-2.183-1.167-2.167-2.657.007-.669-.006-1.339.011-2.009.011-.439-.142-.658-.612-.729-1.044-.158-1.198-.097-1.769.806-.498.79-1.019 1.566-1.55 2.333-.603.87-1.471 1.263-2.506 1.383-3.721.434-7.309-.203-10.833-1.329-1.032-.33-1.315-.794-1.352-1.888-.022-.652-.014-1.311-.115-1.952-.053-.333-.241-.718-.493-.936-1.319-1.139-2.679-2.231-4.025-3.339l-.213-.156-2.152-1.938.774-3.535 3.032 3.041c.768.826 1.531 1.657 2.309 2.474.096.101.271.189.405.184 2.889-.116 5.74.217 8.58.701l.158.005 2.336.479c2.292.555 4.576 1.14 6.877 1.648.744.164 1.533.177 2.301.171 1.496-.012 2.992-.085 4.487-.133l2.126.176zm-19.274-1.433c-1.564-.09-3.127-.21-4.692-.255-.628-.018-.983.34-1.058.962-.132 1.103-.24 2.209-.309 3.316-.07 1.128.04 1.266 1.13 1.634 3.009 1.017 6.114 1.34 9.276 1.288 1.155-.02 2.005-.534 2.583-1.477.478-.778.885-1.602 1.282-2.426.346-.717.237-1.042-.53-1.295-1.168-.384-2.367-.675-3.552-1.006l-4.13-.741zm17.409 2.258l-.018.115c-.599 0-1.2-.025-1.798.008-.526.029-1.051.105-1.57.193-.684.117-1.119.519-1.186 1.225-.07.735-.13 1.474-.128 2.211.002 1.284.237 1.568 1.471 1.865 1.758.423 3.545.591 5.351.506.437-.021.871-.119 1.303-.202.573-.109.983-.413 1.218-.975.421-1.006.896-1.989 1.309-2.999.343-.84.259-1.06-.623-1.206-1.77-.293-3.552-.499-5.329-.741z"/><path fill-rule="evenodd" clip-rule="evenodd" fill="#4F4E51" d="M60.877 16.491c-1.555 1.938-3.737 2.984-6.772 3.231l2.895-1.462c-2.616-2.659-4.482-5.583-4.405-9.4.132-2.343.849-4.484 2.209-6.401.131-.185.295-.345.443-.517l.083.04.006.207c-.093.154-.234.298-.272.465-.532 2.323-.524 4.636.236 6.911.824 2.465 2.378 4.402 4.416 5.978.396.304.775.631 1.161.948z"/><path fill-rule="evenodd" clip-rule="evenodd" fill="#66C2DD" d="M84.303 65.018c.061.069.174.138.174.208.018 1.839.03 3.679.026 5.52-.001.453-.065.905-.1 1.359-.389 1.601-.696 3.228-1.187 4.797-.761 2.436-2.021 4.63-3.592 6.642-.143-.056-.297-.093-.429-.169-2.438-1.414-4.874-2.832-7.31-4.249-.087-.051-.173-.104-.24-.243l1.043.121c3.62.373 6.625-.864 8.988-3.584.524-.604.801-1.441 1.114-2.204 1.074-2.625 1.617-5.354 1.513-8.198z"/><path fill-rule="evenodd" clip-rule="evenodd" fill="#EBF7FD" d="M76.443 4.308v3.937c0 .764-.011.76-.724.606-2.616-.568-5.234-1.123-7.85-1.689-.186-.04-.358-.137-.537-.208l.002-.105.105-.106c.757-1.17 1.628-2.241 2.724-3.115l3-2.392c-.006.177.026.366-.025.529-.232.749-.489 1.49-.786 2.382 1.454-.542 2.719-1.208 4.09-1.437l.001 1.598z"/><path fill-rule="evenodd" clip-rule="evenodd" fill="#737F84" d="M60.877 16.491c-.386-.316-.765-.644-1.16-.95-2.038-1.576-3.592-3.513-4.416-5.978-.761-2.275-.769-4.588-.236-6.911.038-.167.179-.311.272-.465l.681 2.645c1.001 3.208 2.895 5.748 5.688 7.619 1.045.7 1.087.731.531 1.875-.369.761-.901 1.446-1.36 2.165z"/><path fill-rule="evenodd" clip-rule="evenodd" fill="#4F4E51" d="M93.045 25.119c.004-.107-.029-.236.019-.318.652-1.128 1.315-2.249 1.976-3.372 1.149-.235 2.319-.401 3.444-.72 2.502-.708 4.715-1.935 6.483-3.885l.648-.68c-.898 2.548-2.243 4.821-4.196 6.702-1.863 1.795-4.158 2.435-6.686 2.382-.563-.011-1.125-.071-1.688-.109z"/><path fill-rule="evenodd" clip-rule="evenodd" fill="#737F84" d="M105.615 16.145l-.648.68c-1.769 1.951-3.981 3.178-6.483 3.885-1.125.318-2.295.485-3.444.72l2.165-3.373c3.063.494 5.751-.446 8.241-2.15l.353-.222-.184.46z"/><path fill-rule="evenodd" clip-rule="evenodd" fill="#65C1DD" d="M102.279 78.229l.023-.148.048.013-.056.148-.015-.013zM74.448 104.522l.197.091-.197-.091z"/><path fill-rule="evenodd" clip-rule="evenodd" fill="#B3E0EE" d="M90.318 71.563l.044.024-.044-.024zM80.682 53.24l-.11-.117.11.117z"/><path fill-rule="evenodd" clip-rule="evenodd" fill="#737F84" d="M55.248 1.941l.052-.059.032.098-.084-.039z"/><path fill-rule="evenodd" clip-rule="evenodd" fill="#B3E0EE" d="M46.573 92.961c-.565-.372-1.129-.745-1.695-1.113l-.317-.165c-.164-1.426-.297-2.856-.5-4.277-.188-1.313-.896-2.394-1.722-3.391-1.299-1.57-2.702-3.06-3.521-4.974-.717-1.677-1.215-3.41-1.343-5.229-.112-1.595-.174-3.194-.208-4.792-.016-.713.088-1.428.143-2.219l1.246 1.312c.463-3.191 2.002-5.812 3.512-8.455-.432 2.034-.924 4.058-1.279 6.105-.355 2.05-.674 4.116-.452 6.298-.648-.262-.932-.813-1.367-1.405-.071 1.638.486 2.971 1.073 4.266.585 1.291 1.322 2.512 2.063 3.894l-2.49-.223c.097.542.437 1.042.876 1.419.797.686 1.634 1.332 2.501 1.927 2.134 1.463 3.471 3.436 3.769 6.008.124 1.065-.011 2.163-.067 3.244-.033.592-.146 1.18-.222 1.77zM35.242 100.158l.299.963c-.222-.213-.48-.399-.657-.644-.349-.482-.675-.985-.969-1.503-.292-.514-.532-1.057-.809-1.616l-.321.349c-.16-1.237-.541-2.39-.185-3.6.198 1.414.584 2.757 1.315 4.099l.157-.331.089-.357.975 2.424.11.222-.004-.006z"/><path fill-rule="evenodd" clip-rule="evenodd" fill="#B4E1EE" d="M30.337 102.017c-1.502-.641-2.878-4.466-2.178-5.807l.731 3.423.358-.243 1.089 2.627z"/><path fill-rule="evenodd" clip-rule="evenodd" fill="#B3E0EE" d="M42.312 59.295l-.038.01-.015-.045.038-.01.015.045z"/><path fill-rule="evenodd" clip-rule="evenodd" fill="#65C2DD" d="M35.246 100.163l-.11-.222.11.222z"/><path fill-rule="evenodd" clip-rule="evenodd" fill="#E9F5FA" d="M67.44 6.742l-.105.106.105-.106z"/><path fill-rule="evenodd" clip-rule="evenodd" fill="#4F4E51" d="M56.075 48.828c3.819 0 7.543-.045 11.265.017 2.253.038 4.506.213 6.754.386.767.059 1.514.313 2.205.88-.912.694-1.768 1.39-2.672 2.015-.429.297-.569.61-.363 1.062.286.623.601 1.23.901 1.846l.604 1.263-.46.083c-2.628.068-5.265.25-7.874-.185-2.895-.484-5.658-1.359-8.019-3.196-1.145-.891-1.975-2.009-2.264-3.468-.041-.202-.046-.412-.077-.703z"/><path fill-rule="evenodd" clip-rule="evenodd" fill="#D3EDF6" d="M67.916 64.166l-1.462-2.368-1.816 2.683c-.949-1.065-1.262-2.293-1.729-3.555l-1.485 1.654c-.689-1.406-1.108-2.803-1.21-4.455 3.849 1.244 7.677 1.67 11.583 1.428l.043.167c-.448.244-.877.539-1.349.721-.871.337-1.162 1.076-1.471 1.85-.252.629-.594 1.224-.896 1.833l-.208.042z"/><path fill-rule="evenodd" clip-rule="evenodd" fill="#66C2DD" d="M71.403 78.833l-.042.013-.013-.053.045.009.01.031z"/><path fill-rule="evenodd" clip-rule="evenodd" fill="#D4EDF6" d="M64.97 33.271c-2.141-.755-4.023-.597-5.581 1.161-.122-.973.978-2.222 2.145-2.543 1.39-.382 2.944.202 3.436 1.382zM59.708 36.082c.028-.684.51-1.048 1.01-1.373 1.147-.745 3.216-.634 4.038.619-.326-.039-.606-.053-.877-.108-1.398-.284-2.666.101-3.886.74l-.285.122zM80.314 35.524c.668-.593 1.685-.72 2.52-.263.893.489 1.321 1.136 1.253 2.238-.939-1.333-2.255-1.833-3.773-1.975z"/><path fill-rule="evenodd" clip-rule="evenodd" fill="#CDEBF4" d="M82.99 39.759c-1.366-1.649-1.932-1.699-3.532-2.14.534-.507 1.169-.61 1.798-.43 1.222.351 1.605 1.343 1.734 2.57z"/><path fill-rule="evenodd" clip-rule="evenodd" fill="#D4EDF6" d="M59.709 36.082l-.025.044.025-.044z"/><path fill-rule="evenodd" clip-rule="evenodd" fill="#EBF7FE" d="M100.803 62.559l-.021.044.024-.041-.003-.003zM97.947 65.741l-.049.043.043-.049.006.006z"/><path fill-rule="evenodd" clip-rule="evenodd" fill="#D3EDF6" d="M37.376 101.736l.03.153-.072-.116.042-.037z"/><path fill-rule="evenodd" clip-rule="evenodd" fill="#E8F4F8" d="M64.378 39.439c1.186.331 2.384.622 3.552 1.006.768.252.876.578.53 1.295-.397.824-.805 1.648-1.282 2.426-.579.943-1.428 1.458-2.583 1.477-3.162.052-6.267-.271-9.276-1.288-1.09-.368-1.2-.506-1.13-1.634.069-1.107.177-2.213.309-3.316.075-.622.429-.98 1.058-.962 1.565.045 3.128.166 4.692.256l-.431 1.348c-.393.995-.456 2.02-.199 3.046.276 1.099 1.23 1.682 2.226 1.419.906-.239 1.897-1.426 1.992-2.383.467-.838.527-1.759.542-2.69z"/><path fill-rule="evenodd" clip-rule="evenodd" fill="#ECF5F9" d="M77.658 40.957c1.777.242 3.56.448 5.328.742.882.146.966.366.623 1.206-.412 1.01-.888 1.993-1.309 2.999-.235.562-.646.865-1.218.975-.432.083-.867.181-1.303.202-1.806.085-3.593-.083-5.351-.506-1.233-.296-1.468-.581-1.471-1.865-.002-.737.059-1.477.128-2.211.067-.706.502-1.108 1.186-1.225.52-.088 1.044-.164 1.57-.193.598-.033 1.199-.008 1.798-.008l.019-.116zm2.358 2.217c-.088.187-.129.318-.205.425-.332.473-.611 1.005-1.025 1.393-.89.834-1.999.586-2.501-.526-.2-.444-.304-.932-.456-1.415-.115 1.275.009 2.173.382 2.801.375.631.901.875 1.6.743 1.242-.237 2.301-1.835 2.205-3.421zm-3.483-.241l-.102.097c.209.263.369.644.641.762.38.165.623-.208.8-.52.077-.134.129-.291.155-.442.087-.507-.143-1.034-.473-1.123-.361-.097-.791.271-.944.815l-.077.411z"/><path fill-rule="evenodd" clip-rule="evenodd" fill="#778287" d="M59.817 40.047c.042.612.023 1.236.14 1.833.141.713.499 1.321 1.277 1.537.78.215 1.414-.074 1.965-.602.225-.215.424-.456.636-.686-.094.957-1.086 2.144-1.992 2.383-.995.263-1.95-.32-2.226-1.419-.256-1.026-.192-2.051.2-3.046zM80.016 43.174c.097 1.585-.962 3.184-2.205 3.42-.698.133-1.224-.111-1.6-.743-.374-.628-.497-1.525-.382-2.801.152.483.255.971.456 1.415.502 1.112 1.611 1.361 2.501.526.414-.388.693-.92 1.025-1.393.075-.106.116-.237.205-.424z"/><path fill-rule="evenodd" clip-rule="evenodd" fill="#1C1C1C" d="M76.533 42.933l.077-.411c.153-.544.583-.912.944-.815.33.089.56.616.473 1.123-.026.152-.078.308-.155.442-.177.312-.42.684-.8.52-.272-.119-.432-.499-.641-.762l.102-.097zM60.526 40.905c.023-.59.417-1.082.869-1.085.379-.003.694.455.671.975-.025.582-.477 1.122-.923 1.105-.401-.014-.641-.4-.617-.995z"/><path fill="#4F4E51" d="M14.044 126.805h-1.66v-14.277h7.959v1.475h-6.299v5.225h5.918v1.475h-5.918v6.102zM31.7 121.443c0 1.745-.439 3.107-1.318 4.087s-2.093 1.47-3.643 1.47c-.957 0-1.807-.225-2.549-.674s-1.315-1.094-1.719-1.934-.605-1.823-.605-2.949c0-1.745.436-3.104 1.309-4.077s2.083-1.46 3.633-1.46c1.498 0 2.687.498 3.569 1.494s1.323 2.344 1.323 4.043zm-8.154 0c0 1.367.273 2.409.82 3.125s1.351 1.074 2.412 1.074 1.867-.356 2.417-1.069.825-1.756.825-3.13c0-1.361-.275-2.394-.825-3.101s-1.362-1.06-2.437-1.06c-1.061 0-1.862.348-2.402 1.045s-.81 1.736-.81 3.116zM36.065 116.102v6.943c0 .873.199 1.523.596 1.953s1.019.645 1.865.645c1.12 0 1.938-.306 2.456-.918s.776-1.611.776-2.998v-5.625h1.621v10.703h-1.338l-.234-1.436h-.087c-.332.527-.792.931-1.382 1.211s-1.261.42-2.017.42c-1.302 0-2.277-.309-2.925-.928s-.972-1.608-.972-2.969v-7.002h1.641zM54.142 126.805v-6.924c0-.873-.199-1.523-.596-1.953s-1.019-.645-1.865-.645c-1.12 0-1.94.303-2.461.908s-.781 1.605-.781 2.998v5.615h-1.621v-10.703h1.318l.264 1.465h.078c.332-.527.797-.936 1.396-1.226s1.266-.435 2.002-.435c1.289 0 2.259.311 2.91.933s.977 1.616.977 2.983v6.982h-1.621zM66.378 125.369h-.088c-.749 1.087-1.869 1.631-3.359 1.631-1.4 0-2.489-.479-3.267-1.436s-1.167-2.318-1.167-4.082.391-3.135 1.172-4.111 1.869-1.465 3.262-1.465c1.452 0 2.565.527 3.34 1.582h.127l-.068-.771-.039-.752v-4.355h1.621v15.195h-1.318l-.216-1.436zm-3.242.274c1.107 0 1.909-.301 2.407-.903s.747-1.574.747-2.915v-.342c0-1.517-.252-2.599-.757-3.247s-1.31-.972-2.417-.972c-.951 0-1.678.37-2.183 1.108s-.757 1.782-.757 3.13c0 1.367.25 2.399.752 3.096s1.238 1.045 2.208 1.045zM77.931 126.805l-.322-1.523h-.079c-.534.67-1.066 1.125-1.597 1.362s-1.192.356-1.987.356c-1.061 0-1.893-.273-2.495-.82s-.903-1.325-.903-2.334c0-2.162 1.729-3.294 5.186-3.398l1.816-.059v-.664c0-.84-.181-1.46-.542-1.86s-.939-.601-1.733-.601c-.892 0-1.901.273-3.027.82l-.498-1.24c.527-.287 1.105-.511 1.733-.674s1.258-.244 1.89-.244c1.276 0 2.222.283 2.837.85s.923 1.475.923 2.725v7.305h-1.202zm-3.662-1.143c1.009 0 1.802-.277 2.378-.83s.864-1.328.864-2.324v-.967l-1.621.068c-1.289.045-2.218.246-2.788.601s-.854.907-.854 1.655c0 .586.177 1.032.532 1.338s.85.459 1.489.459zM85.929 125.662c.287 0 .563-.021.83-.063s.479-.086.635-.132v1.24c-.176.084-.435.155-.776.21s-.65.083-.924.083c-2.07 0-3.105-1.09-3.105-3.271v-6.367h-1.533v-.781l1.533-.674.684-2.285h.938v2.48h3.105v1.26h-3.106v6.299c0 .645.153 1.139.459 1.484s.726.517 1.26.517zM89.396 113.201c0-.371.091-.643.273-.815s.41-.259.684-.259c.26 0 .485.088.674.264s.283.446.283.811-.094.636-.283.815-.414.269-.674.269c-.273 0-.501-.089-.684-.269s-.273-.451-.273-.816zm1.757 13.604h-1.621v-10.703h1.621v10.703zM103.829 121.443c0 1.745-.439 3.107-1.318 4.087s-2.093 1.47-3.643 1.47c-.957 0-1.807-.225-2.549-.674s-1.315-1.094-1.719-1.934-.605-1.823-.605-2.949c0-1.745.436-3.104 1.309-4.077s2.083-1.46 3.633-1.46c1.498 0 2.687.498 3.569 1.494s1.323 2.344 1.323 4.043zm-8.154 0c0 1.367.273 2.409.82 3.125s1.351 1.074 2.412 1.074 1.867-.356 2.417-1.069.825-1.756.825-3.13c0-1.361-.275-2.394-.825-3.101s-1.362-1.06-2.437-1.06c-1.061 0-1.862.348-2.402 1.045s-.81 1.736-.81 3.116zM113.995 126.805v-6.924c0-.873-.199-1.523-.596-1.953s-1.019-.645-1.865-.645c-1.12 0-1.94.303-2.461.908s-.781 1.605-.781 2.998v5.615h-1.621v-10.703h1.318l.264 1.465h.078c.332-.527.797-.936 1.396-1.226s1.266-.435 2.002-.435c1.289 0 2.259.311 2.91.933s.977 1.616.977 2.983v6.982h-1.621z"/></svg>