<?xml version="1.0" encoding="utf-8"?>
<!-- Generator: Adobe Illustrator 16.0.0, SVG Export Plug-In . SVG Version: 6.00 Build 0)  -->
<!DOCTYPE svg PUBLIC "-//W3C//DTD SVG 1.1//EN" "http://www.w3.org/Graphics/SVG/1.1/DTD/svg11.dtd">
<svg version="1.1" id="Layer_1" xmlns="http://www.w3.org/2000/svg" xmlns:xlink="http://www.w3.org/1999/xlink" x="0px" y="0px"
	 width="500px" height="500px" viewBox="0 0 500 500" enable-background="new 0 0 500 500" xml:space="preserve">
<g>
	<g>
		<path fill-rule="evenodd" clip-rule="evenodd" fill="#D3EDF6" d="M114.081,404.717c0.076,1.157-0.467,1.39-1.335,0.771
			c-1.836-1.311-3.897-2.44-5.382-4.082c-7.448-8.229-12.844-17.623-15.396-28.516c-1.04-4.439-1.112-8.888-0.782-13.472
			c0.632-8.795,0-17.566-2.369-26.132c-0.158-0.57-0.511-1.086-1.134-2.369c-1.68,2.049-3.096,3.775-4.512,5.504
			c-0.181-0.111-0.363-0.221-0.543-0.33c0.134-12.675-0.297-25.313-2.563-37.965c-1.664,3.934-3.328,7.868-4.992,11.801
			c-0.275-0.048-0.551-0.097-0.828-0.145c-0.369-1.888-0.779-3.769-1.101-5.662c-1.881-11.105-2.198-22.333-1.575-33.508
			c0.962-17.286,3.816-34.242,11.867-49.882c2.264-4.398,5.004-8.503,8.655-12.253c-1.864,0.562-3.756,1.046-5.585,1.705
			c-1.92,0.691-3.78,1.551-6.075,2.505c2.399-6.302,5.587-11.83,9.73-16.747c4.091-4.853,8.458-9.473,12.871-14.379
			c-3.24-1.211-6.74-2.519-10.24-3.827c-0.24-0.227-0.48-0.453-0.721-0.679c0.71-0.373,1.487-0.657,2.116-1.135
			c9.999-7.578,21.438-11.896,33.473-14.898c3.823-0.954,3.154-0.242,3.422-4.241c0.434-6.475,1.142-12.931,1.734-19.394
			c0.197-0.019,0.395-0.035,0.592-0.052c2.928,5.572,5.855,11.146,8.783,16.72c-0.955-25.643,0.887-50.895,7.971-75.585
			c0.201-0.004,0.401-0.006,0.603-0.009c0.044,0.824,0.154,1.651,0.123,2.473c-0.209,5.414,0.318,10.696,2.486,15.74
			c1.505,3.501,3.701,6.379,7.289,8.564c1.5-15.131,5.545-29.455,10.309-44.03c2.394,2.698,4.604,5.19,7.139,8.051
			c1.083-10.125,3.371-19.604,6.867-29.077c3.417,4.353,6.624,8.439,10.166,12.95c2.051-9.704,4.017-19,6.028-28.518
			c1.48,3.245,2.879,6.315,4.279,9.386c-0.3,14.911,6.988,26.333,17.206,36.72c-3.886,1.965-7.531,3.806-11.306,5.713
			c11.854-0.965,20.379-5.054,26.452-12.622c1.795-2.809,3.87-5.481,5.318-8.458c2.173-4.466,2.007-4.588-2.075-7.322
			c-10.912-7.312-18.309-17.232-22.221-29.763c4.666-5.991,11.143-9.116,17.893-11.497c0.278,4.333,0.554,8.61,0.861,13.392
			c1.807-0.956,3.104-1.617,4.377-2.32c11.206-6.172,23.137-10.322,35.67-12.779c2.409-0.472,4.845-0.803,7.276-1.155
			c0.278-0.041,0.597,0.201,0.896,0.312c-3.906,3.114-7.812,6.229-11.716,9.343c-4.282,3.413-7.686,7.595-10.642,12.167
			c-0.138,0.139-0.275,0.278-0.413,0.416c-0.002,0.137-0.005,0.273-0.008,0.41c-0.423,0.438-0.972,0.806-1.248,1.321
			c-2.232,4.169-4.535,8.308-6.561,12.577c-1.18,2.487-1.891,5.198-2.854,7.923c6.521,0.621,12.678,1.207,18.833,1.793
			c0.111,0.24,0.221,0.48,0.331,0.721c-13.529,12.185-27.083,24.346-39.662,38.035c4.694,0.643,8.849,1.211,13.469,1.843
			c-3.82,1.565-7.256,2.752-10.495,4.341c-9.431,4.627-18.251,10.074-24.627,18.777c-4.937,6.739-10.067,13.337-15.111,19.996
			c-3.938-3.949-7.876-7.899-11.842-11.877c-1.054,4.813-2.027,9.255-3.025,13.81c2.701,2.432,5.555,4.999,8.408,7.568
			c-0.445,0.851-0.918,1.689-1.332,2.557c-2.626,5.516-5.479,10.94-7.793,16.584c-2.413,5.88-2.957,12.214-3.406,18.519
			c-0.517,7.239-1.326,14.469-1.552,21.717c-0.273,8.784-0.324,17.589,1.156,26.316c1.304,7.684,2.301,15.425,3.83,23.062
			c0.944,4.712,2.63,9.275,3.982,13.907c0.19-0.037,0.38-0.074,0.57-0.111c1.87-3.752,3.74-7.505,5.609-11.256
			c0.188,0.048,0.375,0.095,0.563,0.143c2.025,9.708,4.907,19.148,9.036,28.152c4.111,8.962,8.844,17.562,16.296,24.515
			c0-3.951,0-7.902,0-11.874c0.435,0,0.67-0.071,0.827,0.01c1.524,0.795,3.053,1.58,4.545,2.431
			c10.474,5.97,21.31,11.194,32.501,15.669c13.543,5.415,27.029,10.964,39.892,17.875c3.982,2.14,7.99,4.42,11.468,7.269
			c7.9,6.469,15.478,13.332,23.188,20.034c-0.212,0.503-0.397,1.021-0.642,1.508c-2.524,5.05-5.092,10.077-7.579,15.144
			c-2.196,4.475-4.307,8.992-6.455,13.489c-0.187-0.028-0.373-0.057-0.559-0.086c0-5.195,0-10.392,0-15.588
			c-0.887,1.998-1.238,4.025-1.775,5.999c-2.179,8.014-4.379,16.021-6.649,24.009c-0.685,2.41-2.41,3.797-4.779,4.737
			c-2.773,1.102-5.36,0.75-8.023-0.088l0.024,0.015c-0.257-0.119-0.513-0.238-0.77-0.355c-4.042-3.01-8.076-6.026-12.128-9.021
			c-1.035-0.766-2.123-1.457-3.145-2.152c0.494,5.021,0.98,9.968,1.467,14.914c-0.26,0.134-0.519,0.267-0.778,0.4
			c-16.526-13.471-36.733-20.148-55.052-30.313c-5.955-3.79-11.926-7.555-17.853-11.389c-1.581-1.022-3.021-2.262-4.878-3.668
			c0.338,2.733,0.623,5.036,0.908,7.34c-0.167,0.116-0.333,0.232-0.499,0.348c-5.642-3.872-11.284-7.745-16.927-11.618
			c0.297-2.307,0.738-4.604,0.858-6.919c0.22-4.222,0.743-8.511,0.262-12.672c-1.164-10.049-6.385-17.755-14.721-23.47
			c-3.388-2.322-6.658-4.849-9.772-7.525c-1.716-1.475-3.043-3.429-3.423-5.545c3.289,0.294,6.46,0.578,9.725,0.871
			c-2.891-5.396-5.772-10.167-8.056-15.209c-2.291-5.057-4.47-10.266-4.19-16.662c1.7,2.313,2.807,4.462,5.339,5.486
			c-0.867-8.524,0.379-16.596,1.766-24.602c1.385-7.999,3.308-15.903,4.996-23.85c-5.895,10.321-11.909,20.561-13.717,33.025
			c-1.571-1.654-3.142-3.308-4.866-5.123c-0.214,3.09-0.619,5.884-0.557,8.669c0.137,6.244,0.375,12.491,0.814,18.721
			c0.5,7.106,2.444,13.876,5.246,20.427c3.199,7.479,8.678,13.298,13.755,19.432c3.227,3.896,5.991,8.117,6.724,13.245
			c0.793,5.549,1.314,11.137,1.955,16.708c0.427,6.275,0.854,12.551,1.285,18.856c-3.691,0.76-14-1.733-16.162-4.081
			c0.656-0.35,1.282-0.684,1.736-0.925c-1.854-1.604-3.903-2.999-5.464-4.814c-2.37-2.757-2.833-6.315-3.387-9.799
			c-0.142-0.894-0.867-1.696-1.324-2.539c-0.862,0.782-1.996,1.423-2.502,2.392c-0.424,0.813-0.32,2.054-0.09,3.021
			c0.427,1.795,0.976,3.591,1.721,5.277c2.251,5.093,4.693,10.104,6.925,15.205c2.738,6.26,4.993,12.665,4.84,19.647
			c-0.045,2.045-0.462,2.432-2.348,1.679c-2.545-1.019-5.03-2.206-7.472-3.455c-1.916-0.979-3.728-2.162-5.822-3.395
			c0,0.986,0,1.593,0,2.199c-0.056,0.046-0.112,0.096-0.169,0.144c-0.599-0.301-1.277-0.505-1.784-0.92
			c-2.156-1.763-4.262-3.588-6.387-5.391l0.015,0.019c-0.144-0.288-0.287-0.575-0.43-0.862c-1.199-2.981-2.397-5.963-3.808-9.469
			c-0.215,0.883-0.253,1.149-0.347,1.394c-0.112,0.3-0.271,0.582-0.613,1.294c-2.859-5.242-4.365-10.487-5.14-16.008
			c-1.39,4.724,0.098,9.226,0.721,14.059c0.604-0.655,0.976-1.06,1.255-1.362c1.083,2.187,2.023,4.307,3.161,6.314
			c1.149,2.022,2.423,3.985,3.786,5.87c0.693,0.956,1.701,1.685,2.567,2.516c2.006,5.056,4.077,10.092,5.088,16.012
			c-3.942-1.168-7.409-2.195-10.875-3.223c-4.385-1.964-8.87-3.753-12.396-7.201c-0.171-0.169-0.508-0.164-0.768-0.242
			c-0.054-0.18-0.106-0.36-0.16-0.539c-0.053,0.035-0.105,0.069-0.158,0.104c0.103,0.147,0.206,0.295,0.309,0.442
			c1.205,2.513,2.41,5.025,3.615,7.538c-0.086,0.176-0.173,0.354-0.258,0.53c-1.882-0.657-3.761-1.323-5.647-1.97
			c-1.159-0.396-2.331-0.76-3.496-1.139c-0.06-0.028-0.118-0.061-0.178-0.091C113.964,404.653,114.022,404.684,114.081,404.717z
			 M118.505,397.898c-1.437-3.467-2.839-6.849-4.253-10.261c-0.349,0.238-0.744,0.506-1.397,0.951
			c-1.007-4.718-1.956-9.162-2.855-13.373C107.264,380.456,112.64,395.398,118.505,397.898z M165.28,231.019
			c-0.017-0.061-0.023-0.128-0.059-0.175c-0.012-0.017-0.098,0.025-0.15,0.039c0.018,0.061,0.024,0.129,0.059,0.175
			C165.143,231.073,165.228,231.033,165.28,231.019z"/>
		<path fill-rule="evenodd" clip-rule="evenodd" fill="#E9F5FA" d="M328.016,358.901c-7.709-6.702-15.288-13.565-23.188-20.034
			c-3.478-2.849-7.486-5.129-11.468-7.269c-12.863-6.911-26.349-12.46-39.892-17.875c-11.191-4.475-22.027-9.699-32.501-15.669
			c-1.492-0.851-3.021-1.636-4.545-2.431c-0.156-0.081-0.392-0.01-0.827-0.01c0,3.972,0,7.923,0,11.874
			c-7.452-6.953-12.185-15.553-16.296-24.515c-4.129-9.004-7.011-18.444-9.036-28.152c-0.188-0.048-0.375-0.095-0.563-0.143
			c-1.87,3.751-3.74,7.504-5.609,11.256c-0.189,0.037-0.38,0.074-0.57,0.111c-1.353-4.632-3.039-9.195-3.982-13.907
			c-1.529-7.637-2.526-15.378-3.83-23.062c-1.48-8.728-1.43-17.532-1.156-26.316c0.226-7.248,1.035-14.478,1.552-21.717
			c0.449-6.305,0.993-12.639,3.406-18.519c2.315-5.644,5.167-11.068,7.793-16.584c0.414-0.867,0.886-1.706,1.332-2.557
			c0.277,0.2,0.566,0.39,0.831,0.607c5.259,4.328,10.568,8.597,15.723,13.046c0.983,0.849,1.719,2.352,1.925,3.653
			c0.396,2.504,0.364,5.078,0.45,7.626c0.144,4.271,1.25,6.085,5.281,7.373c13.767,4.398,27.783,6.888,42.317,5.192
			c4.046-0.471,7.436-2.004,9.791-5.403c2.076-2.998,4.109-6.029,6.055-9.114c2.227-3.529,2.83-3.767,6.908-3.149
			c1.836,0.278,2.434,1.132,2.39,2.848c-0.066,2.614-0.014,5.231-0.043,7.847c-0.063,5.818,3.132,9.147,8.464,10.378
			c4.543,1.048,9.185,1.817,13.825,2.251c5.879,0.55,11.832,1.083,17.573-1.099c-1.403,3.633-2.793,7.271-4.212,10.897
			c-0.625,1.595-1.194,3.228-1.993,4.734c-1.167,2.204-1.549,4.179,0.817,5.834c0.143,0.152,0.287,0.305,0.429,0.456l-0.005-0.011
			c0.376,0.721,0.769,1.432,1.127,2.16c2.661,5.417,5.62,10.714,7.9,16.287c3.595,8.79,4.869,18.109,5.12,27.57
			c0.408,11.112-1.715,21.771-5.908,32.02c-1.219,2.979-2.303,6.253-4.35,8.61c-9.23,10.626-20.967,15.454-35.109,14
			c-1.36-0.142-2.717-0.315-4.076-0.473c0.264,0.545,0.599,0.753,0.939,0.95c9.516,5.538,19.031,11.077,28.555,16.598
			c0.514,0.299,1.114,0.445,1.674,0.662c1.779,1.563,3.569,3.109,5.334,4.687c2.815,2.516,5.61,5.051,8.419,7.572
			c0.197,0.178,0.435,0.307,0.647,0.453c2.852-2.459,5.59-4.939,8.454-7.265c8.471-6.875,17.783-12.331,27.734-16.829
			c7.262-3.282,14.262-7.146,21.38-10.748c0.417-0.21,0.843-0.403,1.863-0.346c-0.847,3.238-1.692,6.478-2.543,9.716
			c-0.173,0.655-0.369,1.305-0.554,1.957l-0.172,0.094l0.077,0.078l0.095-0.172c3.299-1.564,6.696-2.954,9.868-4.746
			c2.633-1.485,5.001-3.443,7.487-5.191c-0.473,1.061-0.857,2.172-1.433,3.174c-4.298,7.485-10.043,13.784-16.301,19.642
			c-1.78,1.666-3.701,3.182-5.798,4.971c0.183-3.241,0.342-6.063,0.535-9.461c-9.176,7.633-16.861,15.834-24.302,24.286
			c-0.186-0.061-0.373-0.12-0.559-0.181c-0.248-3.563-0.496-7.128-0.771-11.095C342.405,343.616,334.41,350.449,328.016,358.901z
			 M219.045,190.128c0.12,1.14,0.141,1.957,0.298,2.747c1.127,5.697,4.373,10.065,8.843,13.545
			c9.223,7.175,20.016,10.595,31.326,12.483c10.191,1.702,20.49,0.991,30.755,0.725c0.459-0.013,0.917-0.161,1.798-0.326
			c-0.849-1.778-1.592-3.361-2.357-4.935c-1.17-2.404-2.404-4.779-3.518-7.211c-0.808-1.763-0.261-2.986,1.416-4.146
			c3.532-2.442,6.875-5.158,10.438-7.871c-2.699-2.216-5.618-3.209-8.613-3.438c-8.782-0.675-17.582-1.36-26.384-1.507
			C248.508,189.951,233.964,190.128,219.045,190.128z M265.295,250.042c0.27-0.055,0.542-0.108,0.812-0.163
			c1.18-2.381,2.517-4.702,3.501-7.162c1.207-3.022,2.345-5.909,5.747-7.224c1.844-0.713,3.519-1.863,5.27-2.815
			c-0.056-0.218-0.111-0.435-0.168-0.653c-15.262,0.947-30.214-0.719-45.249-5.577c0.4,6.45,2.036,11.91,4.729,17.401
			c2.004-2.232,3.829-4.264,5.8-6.461c1.823,4.929,3.047,9.727,6.752,13.887c2.549-3.767,4.834-7.143,7.095-10.481
			C261.477,243.858,263.386,246.95,265.295,250.042z M278.918,307.334c-0.013-0.042-0.013-0.106-0.041-0.122
			c-0.05-0.027-0.115-0.025-0.174-0.036c0.016,0.07,0.032,0.14,0.048,0.209C278.807,307.367,278.862,307.351,278.918,307.334z"/>
		<path fill-rule="evenodd" clip-rule="evenodd" fill="#E9F5FA" d="M195.094,133.884c5.044-6.659,10.175-13.257,15.111-19.996
			c6.376-8.703,15.196-14.15,24.627-18.777c3.239-1.589,6.675-2.775,10.495-4.341c-4.62-0.632-8.775-1.2-13.469-1.843
			c12.579-13.689,26.132-25.851,39.662-38.035c-0.11-0.24-0.22-0.48-0.331-0.721c-6.155-0.586-12.312-1.172-18.833-1.793
			c0.962-2.725,1.673-5.436,2.854-7.923c2.026-4.27,4.329-8.408,6.561-12.577c0.276-0.516,0.825-0.884,1.249-1.321
			c0.698,0.275,1.373,0.653,2.097,0.81c10.218,2.215,20.445,4.382,30.662,6.599c2.788,0.604,2.828,0.618,2.83-2.366
			c0.001-5.126,0-10.251,0-15.377c3.365-0.921,6.695-2.01,10.103-2.73c7.889-1.672,15.797-3.271,23.735-4.689
			c3.957-0.708,7.995-0.957,12.327-1.452c-2.919,5.042-5.656,9.766-8.392,14.489c0.157,0.112,0.313,0.223,0.47,0.335
			c3.568-1.052,7.093-2.302,10.717-3.1c3.645-0.804,7.387-1.157,11.438-1.761c0,2.131,0,3.942,0,5.892
			c9.948-1.235,19.531-1.027,29.375,0.839c-0.64,1.3-1.166,2.319-1.649,3.359c-1.68,3.615-3.331,7.246-5.02,10.855
			c-0.721,1.54-0.36,2.384,1.347,2.876c4.017,1.157,7.995,2.449,11.983,3.704c0.776,0.245,1.526,0.573,2.601,0.982
			c-1.726,2.104-3.38,3.981-4.882,5.972c-4.248,5.636-8.438,11.312-12.631,16.987c-0.233,0.314-0.287,0.762-0.425,1.146
			c-2.818,4.392-5.636,8.785-8.454,13.177c-2.581,4.386-5.171,8.766-7.719,13.171c-0.185,0.32-0.055,0.822-0.072,1.242
			c-1.264,1.841-2.716,3.581-3.76,5.541c-4.914,9.229-9.865,18.445-14.515,27.809c-4.555,9.176-8.766,18.522-13.106,27.804
			c-0.256,0.549-0.325,1.184-0.48,1.779c-6.987-1.43-13.974-2.857-20.961-4.287c-2.294-3.13-5.699-3.412-8.3-0.687
			c-5.842,0.188-11.684,0.474-17.526,0.519c-3,0.023-6.082-0.026-8.989-0.668c-8.989-1.985-17.914-4.271-26.863-6.438
			c-1.478-3.581-6.609-4.133-9.128-1.869c-0.206-0.005-0.416,0.016-0.617-0.02c-11.092-1.889-22.229-3.189-33.514-2.735
			c-0.525,0.022-1.208-0.322-1.584-0.719C201.077,140.355,198.094,137.111,195.094,133.884z M233.238,140.338
			c0.37-0.158,0.752-0.291,1.107-0.478c4.769-2.498,9.719-4.001,15.181-2.89c1.06,0.216,2.152,0.271,3.426,0.423
			c-3.208-4.892-11.291-5.326-15.77-2.417C235.229,136.244,233.348,137.666,233.238,140.338c-0.032,0.058-0.065,0.116-0.096,0.174
			C233.173,140.454,233.206,140.396,233.238,140.338z M253.789,129.362c-1.923-4.61-7.991-6.895-13.424-5.399
			c-4.558,1.252-8.853,6.134-8.377,9.934C238.073,127.029,245.426,126.412,253.789,129.362z M313.728,138.161
			c5.927,0.553,11.07,2.507,14.74,7.716c0.264-4.307-1.409-6.831-4.895-8.742C320.309,135.347,316.339,135.843,313.728,138.161z
			 M324.179,154.705c-0.502-4.796-2.001-8.671-6.772-10.039c-2.455-0.703-4.938-0.302-7.024,1.682
			C316.632,148.068,318.843,148.262,324.179,154.705z"/>
		<path fill-rule="evenodd" clip-rule="evenodd" fill="#B3E0EE" d="M329.309,253.369c-0.251-9.461-1.525-18.78-5.12-27.57
			c-2.28-5.573-5.24-10.87-7.9-16.287c-0.358-0.729-0.751-1.439-1.127-2.16c2.027,0.61,4.042,1.269,6.085,1.816
			c2.978,0.798,5.944,1.722,8.978,2.187c1.62,0.247,3.375-0.335,5.061-0.591c0.649-0.098,1.28-0.325,2.289-0.593
			c-0.286,1.415-0.505,2.499-0.82,4.059c6.776-3.15,11.676-7.988,15.641-13.654c3.949-5.645,7.323-11.691,10.88-17.451
			c0.382,0.641,0.961,1.613,1.591,2.673c2.863-4.477,0.889-17.702-3.833-25.575c1.199,0,2.191-0.069,3.171,0.012
			c6.211,0.505,12.548,0.446,18.168,3.775c4.455,2.639,7.635,6.38,9.77,11.318c-1.614-0.09-2.986-0.167-4.756-0.266
			c4.74,7.674,6.566,15.617,5.821,24.709c-1.343-1.066-2.411-1.915-3.667-2.913c-0.177,0.87-0.3,1.765-0.544,2.625
			c-0.731,2.577-1.539,5.133-2.249,7.715c-0.189,0.688-0.134,1.443-0.191,2.166c0.771,0.022,1.621,0.266,2.298,0.025
			c3.884-1.38,7.724-2.879,11.583-4.329c1.609-0.604,3.248-1.134,4.838-1.788c1.68-0.689,2.304-0.09,2.188,1.6
			c-4.371,1.523-8.744,3.038-13.107,4.58c-0.558,0.199-1.067,0.539-1.599,0.814c5.525-0.611,7.719-0.319,10.544,1.651
			c2.057,1.438,2.356,3.224,0.527,4.971c-1.418,1.356-3.123,2.431-4.767,3.528c-0.987,0.659-2.104,1.122-3.469,1.835
			c0.828,0.313,1.229,0.466,1.898,0.72c-3.011,1.977-5.912,3.682-8.582,5.69c-3.321,2.496-6.652,5.042-9.597,7.954
			c-2.347,2.32-1.631,3.937,1.653,4.201c4.03,0.326,8.086,0.339,12.132,0.479c0.713,0.024,1.427,0.003,2.595,0.003
			c-0.86,1.113-1.388,1.796-1.916,2.479c-0.032,0.053-0.064,0.106-0.095,0.159c0.027-0.058,0.054-0.116,0.082-0.173
			c1.515-0.001,3.052,0.149,4.538-0.059c0.935-0.132,2.248-0.573,2.598-1.272c0.76-1.518,1.988-1.709,3.329-1.961
			c2.621-0.496,5.254-0.935,7.855-1.522c2.082-0.47,4.123-1.126,6.181-1.699c0.102,0.144,0.203,0.287,0.305,0.432
			c-1.458,1.359-2.917,2.718-4.605,4.291c-0.275-1.01-0.438-1.607-0.689-2.529c-7.306,3.357-14.521,6.397-21.458,9.979
			c-3.347,1.727-6.17,4.47-9.23,6.752c-0.057,0.063-0.112,0.127-0.168,0.19c0.063-0.056,0.127-0.111,0.192-0.167
			c0.451,0.032,0.902,0.063,1.96,0.139c-2.677,2.26-4.954,4.182-7.671,6.474c1.225,1.064,2.206,2.465,3.521,2.942
			c2.479,0.902,5.126,1.604,7.747,1.791c3.951,0.282,7.938,0.053,11.91,0.04c0.035-0.29,0.069-0.581,0.104-0.871
			c-1.028-0.421-2.055-0.843-3.106-1.274c5.291-0.638,10.563-1.272,15.834-1.907c-10.802,6.648-23.271,5.948-35.217,7.952
			c0.021,3.229,2.727,4.751,4.457,6.973c-0.418,0.347-0.788,0.652-1.289,1.067c1.344,1.128,2.545,2.137,3.747,3.146
			c0.716,1.121,0.058,1.202-0.869,1.25c-6.894,0.345-13.562-0.821-19.96-3.284c-3.897-1.5-7.622-3.444-11.435-5.17
			c-0.359-0.162-0.787-0.173-1.184-0.255c-0.019-0.051-0.027-0.109-0.06-0.151c-0.021-0.025-0.077-0.022-0.117-0.031
			c0.056,0.063,0.112,0.128,0.167,0.193c0.553,1.239,1.105,2.48,1.659,3.72l0.002-0.001c-2.196-0.414-4.378-1.05-6.592-1.198
			c-5.133-0.345-9.989,1.073-14.765,2.784c-0.574,0.206-1.167,0.354-1.752,0.528c0.136-1.771,0.386-3.54,0.391-5.309
			c0.017-7.188-0.032-14.375-0.1-21.561C329.987,253.909,329.546,253.641,329.309,253.369z"/>
		<path fill-rule="evenodd" clip-rule="evenodd" fill="#65C1DD" d="M328.016,358.901c6.395-8.452,14.39-15.285,22.478-22.569
			c0.275,3.967,0.524,7.531,0.771,11.095c0.186,0.061,0.373,0.12,0.559,0.181c7.441-8.452,15.126-16.653,24.302-24.286
			c-0.193,3.397-0.352,6.22-0.535,9.461c2.097-1.789,4.019-3.305,5.798-4.971c6.258-5.857,12.003-12.156,16.301-19.642
			c0.576-1.002,0.96-2.113,1.433-3.174c0.133-0.047,0.269-0.053,0.406-0.02l0.063,0.054c-1.384,4.515-2.619,9.079-4.183,13.528
			c-3.421,9.741-9.901,17.691-15.466,26.197c-5.6,8.562-10.729,17.433-16.027,26.188c-0.411,0.68-0.532,1.534-0.789,2.307
			c-0.054,0.079-0.109,0.158-0.163,0.238c0.073-0.062,0.145-0.123,0.217-0.185c2.432-1.258,4.857-2.527,7.295-3.772
			c2.248-1.147,4.509-2.268,7.127-3.052c-0.555,1.044-1.119,2.084-1.664,3.133c-5.806,11.182-11.548,22.397-17.441,33.534
			c-2.348,4.437-4.961,8.739-7.616,13.002c-0.459,0.739-1.728,1.373-2.626,1.378c-11.784,0.069-23.572-0.185-35.351,0.063
			c-8.526,0.18-14.995-3.821-21.067-9.039c-0.141-0.121-0.19-0.349-0.282-0.526c2.663,0.838,5.25,1.189,8.023,0.088
			c2.369-0.94,4.094-2.327,4.779-4.737c2.27-7.987,4.47-15.995,6.649-24.009c0.537-1.974,0.888-4.001,1.775-5.999
			c0,5.196,0,10.393,0,15.588c0.186,0.029,0.372,0.058,0.559,0.086c2.148-4.497,4.258-9.015,6.455-13.489
			c2.487-5.066,5.055-10.094,7.579-15.144C327.619,359.922,327.803,359.404,328.016,358.901z"/>
		<path fill-rule="evenodd" clip-rule="evenodd" fill="#65C2DD" d="M181.927,362.525c5.643,3.873,11.285,7.746,16.927,11.618
			c0.166-0.115,0.332-0.231,0.499-0.348c-0.285-2.304-0.57-4.606-0.908-7.34c1.857,1.406,3.297,2.646,4.878,3.668
			c5.926,3.834,11.898,7.599,17.853,11.389c-4.347,1.185-8.695,2.369-12.653,3.448c14.759,6.317,28.074,15.228,34.471,32.088
			c-4.348,0.289-8.312,0.632-12.282,0.805c-8.534,0.372-17.07,0.724-25.608,0.962c-12.329,0.346-24.662,0.581-36.992,0.869
			c-3.581,0.085-7.163,0.156-10.742,0.299c-5.697,0.229-10.168-1.966-13.433-6.638c-0.386-0.553-0.843-1.056-1.385-1.729
			c-1.304,0.905-2.531,1.756-3.947,2.738c-2.337-1.989-4.341-4.256-5.56-7.167c3.466,1.027,6.933,2.055,10.875,3.223
			c-1.011-5.92-3.082-10.956-5.088-16.012c-0.388-1.254-0.778-2.509-1.167-3.764c2.125,1.803,4.23,3.628,6.387,5.391
			c0.507,0.415,1.185,0.619,1.786,0.919c0.096,0.151,0.19,0.302,0.284,0.454c-0.039-0.2-0.078-0.397-0.117-0.597
			c0-0.606,0-1.213,0-2.199c2.094,1.232,3.906,2.415,5.822,3.395c2.441,1.249,4.927,2.437,7.472,3.455
			c1.885,0.753,2.303,0.366,2.348-1.679c0.152-6.982-2.103-13.388-4.84-19.647c-2.232-5.102-4.674-10.112-6.925-15.205
			c-0.745-1.687-1.294-3.482-1.721-5.277c-0.229-0.967-0.334-2.208,0.09-3.021c0.506-0.969,1.64-1.609,2.502-2.392
			c0.457,0.843,1.182,1.646,1.324,2.539c0.555,3.483,1.018,7.042,3.387,9.799c1.561,1.815,3.609,3.211,5.464,4.814
			c-0.454,0.241-1.081,0.575-1.736,0.925c2.162,2.348,12.471,4.841,16.162,4.081c-0.43-6.306-0.857-12.581-1.285-18.856
			c0.415,0.213,0.851,0.391,1.239,0.643C177.518,359.616,179.721,361.073,181.927,362.525z"/>
		<path fill-rule="evenodd" clip-rule="evenodd" fill="#EBF7FE" d="M384.604,282.668c-1.201-1.009-2.403-2.018-3.747-3.146
			c0.501-0.415,0.87-0.721,1.289-1.067c-1.729-2.222-4.436-3.744-4.457-6.973c11.946-2.004,24.416-1.304,35.217-7.952
			c-5.271,0.635-10.543,1.27-15.834,1.907c1.051,0.432,2.079,0.854,3.106,1.274c-0.035,0.29-0.07,0.581-0.104,0.871
			c-3.972,0.013-7.959,0.242-11.91-0.04c-2.62-0.188-5.268-0.889-7.747-1.791c-1.316-0.478-2.297-1.878-3.521-2.942
			c2.717-2.292,4.994-4.214,7.671-6.474c-1.058-0.075-1.509-0.106-1.96-0.139l-0.024-0.023c3.061-2.282,5.884-5.025,9.231-6.752
			c6.938-3.581,14.153-6.621,21.458-9.979c0.251,0.922,0.415,1.52,0.689,2.529c1.688-1.573,3.146-2.932,4.605-4.291
			c-0.102-0.145-0.203-0.288-0.305-0.432c-2.059,0.573-4.099,1.229-6.181,1.699c-2.601,0.588-5.234,1.026-7.855,1.522
			c-1.341,0.252-2.569,0.443-3.329,1.961c-0.351,0.699-1.663,1.141-2.598,1.272c-1.486,0.208-3.023,0.058-4.538,0.059l0.013,0.014
			c0.527-0.684,1.055-1.366,1.916-2.479c-1.168,0-1.882,0.021-2.595-0.003c-4.045-0.14-8.102-0.152-12.132-0.479
			c-3.285-0.265-4-1.881-1.653-4.201c2.945-2.912,6.276-5.458,9.597-7.954c2.67-2.009,5.571-3.714,8.582-5.69
			c-0.669-0.254-1.07-0.406-1.898-0.72c1.366-0.713,2.482-1.176,3.469-1.835c1.645-1.098,3.349-2.172,4.767-3.528
			c1.829-1.747,1.53-3.533-0.527-4.971c-2.825-1.971-5.019-2.263-10.544-1.651c0.532-0.275,1.041-0.615,1.599-0.814
			c4.363-1.542,8.737-3.057,13.107-4.58c3.567,0.144,7.174,0.006,10.691,0.501c4.839,0.678,7.412,4.446,10.067,7.948
			c-0.097,0.176-0.193,0.353-0.29,0.527c-1.485-0.478-2.972-0.956-4.862-1.564c2.887,4.929,5.477,9.559,5.655,15.262
			c-0.373-0.204-0.705-0.285-0.865-0.499c-0.203-0.271-0.266-0.647-0.513-1.306c-1.34,3.216-1.978,5.978-3.496,8.114
			c-2.563,3.608-2.455,6.746-0.542,10.649c1.368,2.79,1.422,6.223,2.063,9.368c-0.267,0.107-0.535,0.213-0.802,0.319
			c-0.547-0.675-1.095-1.349-2.048-2.522c-0.254,4.329-0.309,8.222-2.44,11.763c-0.346-0.797-0.631-1.451-0.931-2.139
			c-1.519,1.4-3.032,2.669-4.367,4.105c-0.366,0.395-0.368,1.316-0.247,1.942c0.698,3.612,1.896,7.187,0.535,11.009
			c-0.497-0.233-0.952-0.445-1.577-0.739c-2.211,4.856-6.207,7.319-11.161,7.865c-5.379,0.594-10.675-0.355-15.766-2.275
			C385.935,282.963,385.259,282.843,384.604,282.668z"/>
		<path fill-rule="evenodd" clip-rule="evenodd" fill="#515053" d="M310.637,156.162c6.987,1.43,13.974,2.857,20.961,4.287
			c0.585,0.192,1.171,0.385,1.757,0.577c1.435,0.472,1.967,1.478,1.537,2.885c-0.542,1.768-1.05,3.575-1.864,5.221
			c-0.442,0.895-1.372,1.77-2.291,2.156c-1.589,0.668-2.528,1.713-3.224,3.231c-0.969,2.117-1.95,4.267-3.243,6.189
			c-1.16,1.727-2.748,3.166-4.147,4.731c-5.741,2.182-11.694,1.648-17.573,1.099c-4.64-0.434-9.282-1.203-13.825-2.251
			c-5.333-1.23-8.528-4.56-8.464-10.378c0.029-2.615-0.023-5.232,0.043-7.847c0.044-1.716-0.554-2.569-2.39-2.848
			c-4.079-0.617-4.682-0.38-6.908,3.149c-1.945,3.085-3.979,6.116-6.055,9.114c-2.355,3.399-5.744,4.933-9.791,5.403
			c-14.534,1.695-28.55-0.794-42.317-5.192c-4.03-1.288-5.137-3.102-5.281-7.373c-0.086-2.548-0.054-5.122-0.45-7.626
			c-0.206-1.302-0.942-2.805-1.925-3.653c-5.155-4.449-10.464-8.718-15.723-13.046c-0.264-0.218-0.553-0.407-0.831-0.607
			c-2.853-2.569-5.707-5.137-8.408-7.568c0.998-4.555,1.971-8.996,3.025-13.81c3.965,3.978,7.903,7.928,11.842,11.877
			c2.999,3.228,5.982,6.472,9.02,9.662c0.376,0.396,1.059,0.741,1.584,0.719c11.285-0.454,22.422,0.847,33.514,2.735
			c0.201,0.035,0.411,0.015,0.617,0.02c3.043,0.623,6.085,1.247,9.128,1.869c8.95,2.167,17.874,4.452,26.863,6.438
			c2.908,0.642,5.99,0.691,8.989,0.668c5.843-0.045,11.685-0.331,17.526-0.519C305.104,155.705,307.871,155.934,310.637,156.162z
			 M235.346,150.563c-6.109-0.352-12.215-0.821-18.33-0.998c-2.455-0.071-3.84,1.33-4.131,3.758
			c-0.515,4.306-0.937,8.628-1.208,12.953c-0.275,4.405,0.156,4.943,4.413,6.382c11.756,3.973,23.885,5.235,36.234,5.03
			c4.513-0.075,7.831-2.084,10.092-5.769c1.866-3.039,3.458-6.259,5.009-9.477c1.35-2.801,0.927-4.072-2.071-5.058
			c-4.562-1.502-9.244-2.639-13.875-3.93C246.101,152.491,240.724,151.527,235.346,150.563z M303.351,159.384
			c-0.022,0.15-0.045,0.3-0.067,0.45c-2.342,0-4.69-0.099-7.025,0.03c-2.054,0.112-4.105,0.409-6.135,0.754
			c-2.669,0.455-4.371,2.027-4.632,4.785c-0.272,2.87-0.508,5.759-0.502,8.639c0.011,5.015,0.927,6.125,5.745,7.284
			c6.869,1.651,13.848,2.31,20.903,1.975c1.706-0.081,3.404-0.464,5.092-0.787c2.236-0.427,3.841-1.614,4.758-3.807
			c1.644-3.93,3.503-7.771,5.113-11.715c1.339-3.282,1.01-4.142-2.435-4.712C317.256,161.133,310.292,160.33,303.351,159.384z"/>
		<path fill-rule="evenodd" clip-rule="evenodd" fill="#4F4E51" d="M237.801,63.813c-6.073,7.568-14.599,11.657-26.452,12.622
			c3.774-1.907,7.419-3.748,11.306-5.713c-10.218-10.387-17.506-21.809-17.206-36.72c0.517-9.151,3.315-17.516,8.631-25.006
			c0.511-0.72,1.152-1.348,1.732-2.018c0.064,0.146,0.172,0.198,0.326,0.154c0.008,0.269,0.016,0.537,0.025,0.807
			c-0.365,0.603-0.916,1.163-1.065,1.815c-2.078,9.074-2.047,18.108,0.923,26.996c3.218,9.628,9.29,17.195,17.248,23.352
			C234.813,61.297,236.292,62.575,237.801,63.813z"/>
		<path fill-rule="evenodd" clip-rule="evenodd" fill="#66C2DD" d="M329.309,253.369c0.237,0.271,0.679,0.54,0.681,0.814
			c0.068,7.186,0.117,14.373,0.1,21.561c-0.005,1.769-0.255,3.538-0.391,5.309c-1.52,6.254-2.719,12.607-4.634,18.738
			c-2.974,9.516-7.895,18.086-14.03,25.945c-0.56-0.217-1.16-0.363-1.674-0.662c-9.524-5.521-19.039-11.06-28.555-16.598
			c-0.34-0.197-0.676-0.405-0.939-0.95c1.359,0.157,2.715,0.331,4.076,0.473c14.143,1.454,25.879-3.374,35.109-14
			c2.047-2.357,3.131-5.631,4.35-8.61C327.593,275.141,329.716,264.481,329.309,253.369z"/>
		<path fill-rule="evenodd" clip-rule="evenodd" fill="#EBF7FD" d="M298.607,16.222c0,5.126,0.002,10.251,0,15.377
			c-0.001,2.984-0.042,2.97-2.83,2.366c-10.217-2.217-20.444-4.384-30.662-6.599c-0.724-0.156-1.398-0.534-2.097-0.81
			c0.003-0.137,0.005-0.273,0.008-0.41c0.138-0.138,0.275-0.277,0.413-0.416c2.956-4.572,6.36-8.754,10.642-12.167
			c3.905-3.114,7.811-6.229,11.716-9.343c-0.023,0.692,0.102,1.431-0.096,2.068c-0.91,2.925-1.91,5.821-3.069,9.305
			c5.68-2.115,10.622-4.717,15.975-5.613C298.607,12.283,298.607,14.253,298.607,16.222z"/>
		<path fill-rule="evenodd" clip-rule="evenodd" fill="#737F84" d="M237.801,63.813c-1.509-1.237-2.988-2.516-4.532-3.71
			c-7.958-6.156-14.03-13.724-17.248-23.352c-2.97-8.888-3.001-17.922-0.923-26.996c0.149-0.652,0.701-1.213,1.065-1.815
			c0.887,3.443,1.773,6.887,2.661,10.33c3.912,12.53,11.309,22.451,22.221,29.763c4.083,2.734,4.248,2.856,2.075,7.322
			C241.67,58.331,239.596,61.004,237.801,63.813z"/>
		<path fill-rule="evenodd" clip-rule="evenodd" fill="#4F4E51" d="M363.459,97.517c0.017-0.42-0.113-0.922,0.072-1.242
			c2.547-4.405,5.138-8.785,7.719-13.171c4.49-0.919,9.057-1.568,13.455-2.813c9.773-2.764,18.417-7.557,25.326-15.177
			c0.821-0.905,1.686-1.771,2.531-2.654c-3.507,9.953-8.761,18.833-16.39,26.181c-7.277,7.01-16.242,9.51-26.116,9.304
			C367.854,97.899,365.658,97.664,363.459,97.517z"/>
		<path fill-rule="evenodd" clip-rule="evenodd" fill="#737F84" d="M412.561,62.46c-0.845,0.884-1.709,1.749-2.531,2.654
			c-6.909,7.62-15.553,12.413-25.326,15.177c-4.398,1.244-8.965,1.894-13.455,2.813c2.818-4.392,5.636-8.785,8.454-13.177
			c11.964,1.93,22.466-1.742,32.191-8.397c0.32-0.219,0.657-0.416,1.378-0.869C412.926,61.537,412.744,61.998,412.561,62.46z"/>
		<path fill-rule="evenodd" clip-rule="evenodd" fill="#65C1DD" d="M399.529,304.977c0.031-0.192,0.062-0.386,0.092-0.578
			c0.062,0.016,0.124,0.034,0.186,0.052c-0.072,0.192-0.144,0.386-0.216,0.58C399.592,305.03,399.529,304.977,399.529,304.977z"/>
		<path fill-rule="evenodd" clip-rule="evenodd" fill="#65C1DD" d="M290.812,407.685c0.257,0.117,0.513,0.236,0.77,0.355
			C291.324,407.921,291.068,407.802,290.812,407.685z"/>
		<path fill-rule="evenodd" clip-rule="evenodd" fill="#B3E0EE" d="M352.806,278.939c0.058,0.032,0.116,0.064,0.173,0.096
			c-0.057-0.032-0.114-0.064-0.171-0.097L352.806,278.939z"/>
		<path fill-rule="evenodd" clip-rule="evenodd" fill="#B3E0EE" d="M315.166,207.362c-0.143-0.151-0.286-0.304-0.429-0.456
			C314.879,207.057,315.022,207.211,315.166,207.362z"/>
		<path fill-rule="evenodd" clip-rule="evenodd" fill="#737F84" d="M215.812,6.979c0.068-0.077,0.135-0.153,0.202-0.229
			c0.041,0.128,0.082,0.255,0.124,0.384C215.984,7.177,215.876,7.124,215.812,6.979z"/>
		<path fill-rule="evenodd" clip-rule="evenodd" fill="#B3E0EE" d="M181.927,362.525c-2.207-1.452-4.409-2.909-6.623-4.35
			c-0.388-0.252-0.825-0.43-1.239-0.643c-0.641-5.571-1.162-11.159-1.955-16.708c-0.733-5.128-3.498-9.35-6.724-13.245
			c-5.077-6.134-10.556-11.953-13.755-19.432c-2.802-6.551-4.746-13.32-5.246-20.427c-0.438-6.229-0.677-12.477-0.814-18.721
			c-0.062-2.785,0.343-5.579,0.557-8.669c1.724,1.815,3.295,3.469,4.866,5.123c1.808-12.465,7.822-22.704,13.717-33.025
			c-1.688,7.946-3.611,15.851-4.996,23.85c-1.387,8.006-2.633,16.077-1.766,24.602c-2.533-1.024-3.639-3.174-5.339-5.486
			c-0.28,6.396,1.9,11.605,4.19,16.662c2.284,5.042,5.165,9.813,8.056,15.209c-3.265-0.293-6.437-0.577-9.725-0.871
			c0.38,2.116,1.707,4.07,3.423,5.545c3.114,2.677,6.384,5.203,9.772,7.525c8.336,5.715,13.558,13.421,14.721,23.47
			c0.481,4.161-0.042,8.45-0.262,12.672C182.665,357.922,182.224,360.219,181.927,362.525z"/>
		<path fill-rule="evenodd" clip-rule="evenodd" fill="#B3E0EE" d="M137.663,390.635c0.389,1.255,0.779,2.51,1.167,3.764
			c-0.866-0.831-1.874-1.56-2.567-2.516c-1.363-1.885-2.637-3.848-3.786-5.87c-1.138-2.008-2.078-4.128-3.161-6.314
			c-0.279,0.303-0.651,0.707-1.255,1.362c-0.624-4.833-2.111-9.335-0.721-14.059c0.775,5.521,2.281,10.766,5.14,16.008
			c0.342-0.712,0.501-0.994,0.613-1.294c0.093-0.244,0.132-0.511,0.347-1.394c1.41,3.506,2.609,6.487,3.808,9.469
			c0.143,0.287,0.287,0.574,0.43,0.862L137.663,390.635z"/>
		<path fill-rule="evenodd" clip-rule="evenodd" fill="#B4E1EE" d="M118.505,397.898c-5.866-2.5-11.241-17.442-8.506-22.683
			c0.899,4.211,1.848,8.655,2.855,13.373c0.654-0.445,1.048-0.713,1.397-0.951C115.667,391.05,117.068,394.432,118.505,397.898z"/>
		<path fill-rule="evenodd" clip-rule="evenodd" fill="#B3E0EE" d="M165.28,231.019c-0.052,0.015-0.138,0.055-0.149,0.039
			c-0.035-0.046-0.042-0.114-0.059-0.175c0.052-0.014,0.138-0.056,0.15-0.039C165.257,230.891,165.263,230.958,165.28,231.019z"/>
		<path fill-rule="evenodd" clip-rule="evenodd" fill="#65C2DD" d="M137.678,390.653c-0.143-0.288-0.287-0.575-0.43-0.862
			C137.391,390.078,137.534,390.365,137.678,390.653z"/>
		<path fill-rule="evenodd" clip-rule="evenodd" fill="#E9F5FA" d="M263.439,25.73c-0.138,0.139-0.275,0.278-0.413,0.416
			C263.165,26.009,263.302,25.869,263.439,25.73z"/>
		<path fill-rule="evenodd" clip-rule="evenodd" fill="#4F4E51" d="M219.045,190.128c14.919,0,29.463-0.177,44.001,0.065
			c8.802,0.146,17.602,0.832,26.384,1.507c2.995,0.229,5.914,1.223,8.613,3.438c-3.563,2.713-6.906,5.429-10.438,7.871
			c-1.676,1.16-2.223,2.384-1.416,4.146c1.114,2.432,2.348,4.807,3.518,7.211c0.765,1.573,1.508,3.156,2.357,4.935
			c-0.882,0.165-1.339,0.313-1.798,0.326c-10.265,0.267-20.564,0.978-30.755-0.725c-11.31-1.889-22.103-5.309-31.326-12.483
			c-4.47-3.479-7.715-7.848-8.843-13.545C219.186,192.085,219.165,191.268,219.045,190.128z"/>
		<path fill-rule="evenodd" clip-rule="evenodd" fill="#D3EDF6" d="M265.295,250.042c-1.909-3.092-3.818-6.184-5.712-9.249
			c-2.26,3.339-4.546,6.715-7.095,10.481c-3.705-4.16-4.929-8.958-6.752-13.887c-1.972,2.197-3.796,4.229-5.8,6.461
			c-2.693-5.491-4.329-10.951-4.729-17.401c15.035,4.858,29.987,6.524,45.249,5.577c0.057,0.219,0.112,0.436,0.168,0.653
			c-1.751,0.952-3.426,2.103-5.27,2.815c-3.401,1.314-4.54,4.201-5.747,7.224c-0.984,2.46-2.321,4.781-3.501,7.162
			C265.837,249.934,265.565,249.987,265.295,250.042z"/>
		<path fill-rule="evenodd" clip-rule="evenodd" fill="#66C2DD" d="M278.918,307.334c-0.056,0.017-0.112,0.033-0.167,0.051
			c-0.017-0.069-0.032-0.139-0.048-0.209c0.059,0.011,0.125,0.009,0.174,0.036C278.905,307.228,278.905,307.292,278.918,307.334z"/>
		<path fill-rule="evenodd" clip-rule="evenodd" fill="#D4EDF6" d="M253.789,129.362c-8.362-2.95-15.715-2.333-21.801,4.534
			c-0.476-3.8,3.819-8.682,8.377-9.934C245.797,122.468,251.865,124.752,253.789,129.362z"/>
		<path fill-rule="evenodd" clip-rule="evenodd" fill="#D4EDF6" d="M233.237,140.338c0.111-2.672,1.993-4.094,3.945-5.361
			c4.479-2.909,12.562-2.475,15.77,2.417c-1.274-0.152-2.367-0.207-3.426-0.423c-5.462-1.111-10.412,0.392-15.181,2.89
			C233.99,140.047,233.607,140.18,233.237,140.338L233.237,140.338z"/>
		<path fill-rule="evenodd" clip-rule="evenodd" fill="#D4EDF6" d="M313.728,138.161c2.611-2.318,6.581-2.814,9.845-1.026
			c3.486,1.911,5.159,4.436,4.895,8.742C324.798,140.668,319.655,138.714,313.728,138.161z"/>
		<path fill-rule="evenodd" clip-rule="evenodd" fill="#CDEBF4" d="M324.179,154.705c-5.336-6.443-7.547-6.637-13.796-8.357
			c2.086-1.983,4.569-2.385,7.024-1.682C322.178,146.034,323.677,149.909,324.179,154.705z"/>
		<path fill-rule="evenodd" clip-rule="evenodd" fill="#D4EDF6" d="M233.238,140.338c-0.032,0.058-0.064,0.116-0.096,0.174
			C233.173,140.454,233.206,140.396,233.238,140.338L233.238,140.338z"/>
		<path fill-rule="evenodd" clip-rule="evenodd" fill="#EBF7FE" d="M393.761,243.764c-0.027,0.057-0.055,0.115-0.082,0.173
			c0.031-0.053,0.063-0.106,0.095-0.159L393.761,243.764z"/>
		<path fill-rule="evenodd" clip-rule="evenodd" fill="#EBF7FE" d="M382.607,256.197c-0.064,0.056-0.128,0.111-0.192,0.167
			c0.056-0.063,0.111-0.128,0.168-0.19C382.583,256.174,382.607,256.197,382.607,256.197z"/>
		<path fill-rule="evenodd" clip-rule="evenodd" fill="#D3EDF6" d="M146.003,396.802c0.039,0.199,0.078,0.396,0.117,0.597
			c-0.094-0.152-0.188-0.303-0.284-0.454C145.891,396.897,145.947,396.848,146.003,396.802z"/>
		<path fill-rule="evenodd" clip-rule="evenodd" fill="#E8F4F8" d="M251.479,153.455c4.631,1.291,9.313,2.428,13.875,3.93
			c2.999,0.985,3.421,2.257,2.071,5.058c-1.551,3.218-3.143,6.438-5.009,9.477c-2.261,3.685-5.579,5.693-10.092,5.769
			c-12.35,0.205-24.478-1.058-36.234-5.03c-4.257-1.438-4.688-1.977-4.413-6.382c0.271-4.325,0.693-8.647,1.208-12.953
			c0.291-2.428,1.676-3.829,4.131-3.758c6.114,0.177,12.22,0.646,18.33,0.999c-0.562,1.756-1.122,3.511-1.684,5.265
			c-1.533,3.885-1.783,7.891-0.776,11.9c1.077,4.293,4.806,6.571,8.692,5.545c3.539-0.936,7.413-5.569,7.78-9.308
			C251.185,160.688,251.419,157.089,251.479,153.455z"/>
		<path fill-rule="evenodd" clip-rule="evenodd" fill="#ECF5F9" d="M303.351,159.384c6.941,0.946,13.906,1.749,20.813,2.896
			c3.445,0.57,3.774,1.43,2.435,4.712c-1.609,3.944-3.469,7.785-5.113,11.715c-0.917,2.192-2.521,3.38-4.758,3.807
			c-1.688,0.323-3.386,0.706-5.092,0.787c-7.055,0.335-14.034-0.323-20.903-1.975c-4.817-1.159-5.734-2.27-5.745-7.284
			c-0.006-2.88,0.229-5.769,0.502-8.639c0.261-2.758,1.963-4.33,4.632-4.785c2.03-0.345,4.082-0.642,6.135-0.754
			c2.335-0.129,4.684-0.03,7.025-0.03C303.306,159.684,303.328,159.534,303.351,159.384z M312.562,168.044
			c-0.346,0.73-0.506,1.242-0.8,1.66c-1.297,1.846-2.388,3.925-4.004,5.441c-3.478,3.261-7.81,2.289-9.77-2.057
			c-0.782-1.735-1.187-3.641-1.781-5.527c-0.447,4.983,0.036,8.489,1.494,10.941c1.467,2.466,3.522,3.42,6.249,2.9
			C308.801,180.481,312.939,174.237,312.562,168.044z M298.958,167.103c-0.133,0.127-0.266,0.251-0.398,0.378
			c0.818,1.028,1.439,2.514,2.504,2.977c1.484,0.644,2.434-0.81,3.125-2.028c0.298-0.524,0.502-1.135,0.604-1.729
			c0.338-1.979-0.559-4.037-1.848-4.384c-1.408-0.38-3.089,1.057-3.687,3.184C299.113,166.021,299.056,166.567,298.958,167.103z"/>
		<path fill-rule="evenodd" clip-rule="evenodd" fill="#778287" d="M233.663,155.828c0.163,2.391,0.088,4.828,0.548,7.16
			c0.55,2.785,1.948,5.162,4.989,6.004c3.046,0.842,5.522-0.29,7.676-2.35c0.878-0.84,1.659-1.781,2.483-2.677
			c-0.367,3.738-4.241,8.372-7.78,9.308c-3.887,1.026-7.616-1.252-8.692-5.545C231.88,163.719,232.129,159.713,233.663,155.828z"/>
		<path fill-rule="evenodd" clip-rule="evenodd" fill="#778287" d="M312.562,168.044c0.377,6.193-3.76,12.438-8.612,13.359
			c-2.726,0.52-4.781-0.435-6.249-2.9c-1.458-2.452-1.941-5.958-1.494-10.941c0.594,1.887,0.999,3.792,1.781,5.527
			c1.96,4.346,6.292,5.317,9.77,2.057c1.616-1.517,2.707-3.596,4.004-5.441C312.056,169.286,312.216,168.774,312.562,168.044z"/>
		<path fill-rule="evenodd" clip-rule="evenodd" fill="#1C1C1C" d="M298.958,167.103c0.099-0.535,0.155-1.081,0.302-1.604
			c0.598-2.127,2.278-3.563,3.687-3.184c1.289,0.347,2.186,2.404,1.848,4.384c-0.102,0.595-0.307,1.205-0.604,1.729
			c-0.691,1.219-1.641,2.672-3.125,2.028c-1.065-0.463-1.687-1.948-2.504-2.977C298.692,167.354,298.825,167.229,298.958,167.103z"
			/>
		<path fill-rule="evenodd" clip-rule="evenodd" fill="#1C1C1C" d="M236.431,159.181c0.091-2.304,1.63-4.225,3.394-4.237
			c1.479-0.011,2.71,1.776,2.623,3.81c-0.098,2.271-1.861,4.382-3.605,4.317C237.274,163.012,236.338,161.503,236.431,159.181z"/>
	</g>
	<g>
		<polygon fill="#4F4E51" points="86,494 92,494 92,471 115,471 115,465 92,465 92,451 119,451 119,446 86,446 		"/>
		<path fill="#4F4E51" d="M140.892,458.411c-4.315,0-7.974,1.293-10.975,3.877c-3.593,3.11-5.39,7.896-5.39,14.359
			c0,5.893,1.506,10.405,4.519,13.538c3.012,3.133,6.961,4.698,11.846,4.698c3.044,0,5.854-0.713,8.428-2.137
			c2.574-1.423,4.535-3.422,5.882-5.996s2.021-6.106,2.021-10.597c0-5.542-1.522-9.885-4.567-13.028
			C149.609,459.982,145.688,458.411,140.892,458.411z M148.219,486.669c-1.949,2.234-4.392,3.352-7.327,3.352
			c-2.957,0-5.411-1.111-7.36-3.334c-1.95-2.225-2.924-5.57-2.924-10.039s0.974-7.81,2.924-10.021
			c1.949-2.213,4.403-3.318,7.36-3.318c2.913,0,5.351,1.11,7.311,3.334c1.961,2.225,2.941,5.494,2.941,9.809
			C151.144,481.028,150.168,484.435,148.219,486.669z"/>
		<path fill="#4F4E51" d="M186,477.896c0,2.98-0.123,5.252-0.77,6.818c-0.645,1.566-1.646,2.805-3.201,3.713
			c-1.556,0.909-3.171,1.364-4.945,1.364c-1.775,0-3.238-0.444-4.443-1.331c-1.205-0.888-1.951-2.108-2.322-3.663
			c-0.241-1.073-0.318-3.155-0.318-6.243V459h-7v21.82c0,2.52,0.633,4.359,0.875,5.521c0.35,1.73,1.213,3.192,2.077,4.386
			c0.865,1.194,2.319,2.186,4.104,2.975c1.784,0.788,3.76,1.183,5.818,1.183c4.668,0,7.125-1.972,11.125-5.914V494h6v-35h-7V477.896
			z"/>
		<path fill="#4F4E51" d="M227.77,462.519c-0.877-1.227-2.196-2.218-3.96-2.975c-1.763-0.755-3.649-1.133-5.751-1.133
			c-4.842,0-9.059,1.916-11.059,5.75V459h-5v35h5v-18.963c0-4.469,1.164-7.502,2.992-9.102c1.83-1.6,4.126-2.398,6.645-2.398
			c1.579,0,3.014,0.355,4.186,1.068c1.173,0.711,2.008,1.664,2.469,2.858c0.459,1.193,0.709,2.995,0.709,5.405V494h6v-21.361
			c0-2.738-0.141-4.655-0.359-5.75C229.291,465.202,228.646,463.745,227.77,462.519z"/>
		<path fill="#4F4E51" d="M261,463.208c-1-1.424-2.24-2.579-3.883-3.466c-1.643-0.888-3.451-1.331-5.555-1.331
			c-2.871,0-5.435,0.755-7.757,2.267c-2.322,1.513-4.048,3.687-5.208,6.522c-1.162,2.837-1.734,5.997-1.734,9.479
			c0,3.571,0.645,6.731,1.926,9.479c1.281,2.75,3.091,4.892,5.424,6.425s4.567,2.3,7.351,2.3c4.293,0,7.437-1.73,9.437-5.192V494h5
			v-48h-5V463.208z M259.034,486.85c-1.808,2.113-4.004,3.171-6.589,3.171c-2.563,0-4.785-1.106-6.67-3.318
			c-1.884-2.212-2.826-5.553-2.826-10.022c0-4.621,0.883-8.006,2.646-10.153c1.764-2.146,3.96-3.219,6.589-3.219
			c2.693,0,4.961,1.116,6.801,3.351c1.841,2.234,2.761,5.74,2.761,10.516C261.745,481.51,260.841,484.735,259.034,486.85z"/>
		<path fill="#4F4E51" d="M304,479.474v-7.887c0-2.628,0.245-4.446,0.049-5.454c-0.351-1.62-0.789-2.963-1.666-4.024
			c-0.877-1.063-2.16-1.945-4.022-2.646c-1.861-0.7-4.239-1.051-7.218-1.051c-3,0-5.618,0.41-7.896,1.231s-4.009,1.994-5.214,3.517
			c-1.205,1.521-2.066,3.521-2.592,5.996l5.787,0.789c0.634-2.476,1.616-4.2,2.942-5.176c1.324-0.975,3.379-1.461,6.16-1.461
			c2.98,0,5.226,0.667,6.737,2.004c1.117,0.985,1.676,2.683,1.676,5.093c0,0.219-0.011,0.733-0.032,1.544
			c-2.257,0.789-5.772,1.468-10.548,2.038c-2.345,0.284-4.097,0.58-5.257,0.887c-1.578,0.438-2.996,1.084-4.256,1.938
			s-2.278,1.987-3.056,3.4s-1.166,2.974-1.166,4.683c0,2.914,1.028,5.307,3.088,7.18s5.006,2.81,8.84,2.81
			c2.321,0,4.495-0.384,6.521-1.15s4.135-2.128,6.325-3.989c0.175,1.643,0.569,3.256,1.184,4.256h6.177
			c-0.744-1-1.588-2.684-1.84-4.141S304,484.972,304,479.474z M297.402,484.665c-0.832,1.73-1.957,3.094-3.732,4.091
			c-1.773,0.997-3.713,1.494-5.99,1.494c-2.3,0-4.002-0.525-5.197-1.576c-1.193-1.052-1.768-2.366-1.768-3.943
			c0-1.03,0.284-1.967,0.832-2.81c0.548-0.844,1.333-1.484,2.339-1.922c1.008-0.438,2.375-0.832,4.808-1.183
			c4.292-0.613,8.307-1.358,9.307-2.234v2.168C298,481.357,298.038,483.329,297.402,484.665z"/>
		<path fill="#4F4E51" d="M324.176,489.035c-0.876,0-1.55-0.143-2.021-0.428c-0.471-0.284-0.723-0.667-0.931-1.15
			c-0.208-0.481-0.224-1.565-0.224-3.252V463h5v-4h-5v-11.991l-7,3.549V459h-4v4h4v20.876c0,3.549,0.712,5.877,1.194,6.982
			c0.48,1.106,1.55,1.999,2.733,2.679c1.182,0.679,2.965,1.018,5.111,1.018c1.313,0,2.863-0.175,4.527-0.525l-0.824-5.224
			C325.669,488.958,324.832,489.035,324.176,489.035z"/>
		<rect x="333" y="446" fill="#4F4E51" width="5" height="6"/>
		<rect x="333" y="459" fill="#4F4E51" width="5" height="35"/>
		<path fill="#4F4E51" d="M361.667,458.411c-4.315,0-7.974,1.293-10.975,3.877c-3.592,3.11-5.389,7.896-5.389,14.359
			c0,5.893,1.506,10.405,4.518,13.538c3.013,3.133,6.961,4.698,11.846,4.698c3.045,0,5.854-0.713,8.429-2.137
			c2.574-1.423,4.534-3.422,5.881-5.996c1.348-2.574,2.021-6.106,2.021-10.597c0-5.542-1.521-9.885-4.567-13.028
			C370.386,459.982,366.465,458.411,361.667,458.411z M368.994,486.669c-1.949,2.234-4.392,3.352-7.327,3.352
			c-2.958,0-5.411-1.111-7.36-3.334c-1.949-2.225-2.925-5.57-2.925-10.039s0.976-7.81,2.925-10.021
			c1.949-2.213,4.402-3.318,7.36-3.318c2.914,0,5.351,1.11,7.312,3.334c1.961,2.225,2.94,5.494,2.94,9.809
			C371.919,481.028,370.944,484.435,368.994,486.669z"/>
		<path fill="#4F4E51" d="M411.234,462.519c-0.877-1.227-2.254-2.218-4.017-2.975c-1.764-0.755-3.853-1.133-5.956-1.133
			c-4.842,0-9.262,1.916-11.262,5.75V459h-6v35h7v-18.963c0-4.469,0.838-7.502,2.668-9.102c1.828-1.6,3.963-2.398,6.482-2.398
			c1.577,0,2.932,0.355,4.104,1.068c1.173,0.711,1.793,1.664,2.252,2.858c0.459,1.193,0.494,2.995,0.494,5.405V494h7v-21.361
			c0-2.738-0.465-4.655-0.684-5.75C412.965,465.202,412.11,463.745,411.234,462.519z"/>
	</g>
</g>
</svg>
