<svg version="1.1" xmlns="http://www.w3.org/2000/svg" xmlns:xlink="http://www.w3.org/1999/xlink" viewBox="0 0 128 128">
		<path fill-rule="evenodd" clip-rule="evenodd" fill="#D3EDF6" d="M29.205,103.762c0.019,0.297-0.12,0.355-0.342,0.197
			c-0.47-0.335-0.998-0.624-1.378-1.045c-1.907-2.106-3.288-4.511-3.941-7.3c-0.266-1.137-0.285-2.275-0.2-3.448
			c0.162-2.252,0-4.498-0.606-6.69c-0.041-0.146-0.131-0.278-0.29-0.607c-0.43,0.525-0.793,0.967-1.155,1.409
			c-0.046-0.028-0.093-0.057-0.139-0.084c0.035-3.245-0.076-6.48-0.656-9.719c-0.426,1.007-0.852,2.014-1.278,3.021
			c-0.07-0.013-0.141-0.025-0.212-0.037c-0.094-0.483-0.2-0.965-0.282-1.45c-0.481-2.843-0.563-5.717-0.403-8.578
			c0.247-4.425,0.977-8.766,3.038-12.77c0.58-1.126,1.281-2.177,2.215-3.137c-0.477,0.144-0.961,0.268-1.43,0.437
			c-0.492,0.177-0.968,0.397-1.555,0.641c0.614-1.613,1.43-3.028,2.491-4.287c1.047-1.242,2.166-2.425,3.295-3.681
			c-0.83-0.31-1.726-0.645-2.622-0.979c-0.062-0.058-0.123-0.116-0.185-0.174c0.182-0.096,0.38-0.168,0.542-0.291
			c2.56-1.94,5.488-3.045,8.569-3.814c0.979-0.244,0.808-0.062,0.876-1.086c0.111-1.657,0.292-3.31,0.444-4.965
			c0.05-0.004,0.101-0.009,0.151-0.013c0.75,1.427,1.499,2.854,2.249,4.28c-0.245-6.564,0.227-13.029,2.041-19.35
			c0.051-0.001,0.103-0.001,0.154-0.002c0.011,0.211,0.039,0.423,0.031,0.633c-0.054,1.386,0.082,2.738,0.637,4.029
			c0.385,0.896,0.947,1.633,1.866,2.192c0.384-3.874,1.419-7.541,2.639-11.271c0.613,0.69,1.179,1.329,1.828,2.061
			c0.277-2.592,0.863-5.019,1.758-7.444c0.875,1.114,1.696,2.161,2.603,3.315c0.525-2.484,1.028-4.864,1.543-7.301
			c0.379,0.831,0.737,1.617,1.096,2.403c-0.077,3.817,1.789,6.741,4.405,9.4c-0.995,0.503-1.928,0.974-2.895,1.462
			c3.035-0.247,5.217-1.294,6.772-3.231c0.459-0.719,0.991-1.403,1.361-2.165c0.556-1.144,0.514-1.175-0.531-1.875
			c-2.793-1.872-4.687-4.412-5.688-7.619c1.194-1.534,2.853-2.334,4.581-2.943c0.071,1.109,0.142,2.204,0.221,3.428
			c0.462-0.245,0.794-0.414,1.121-0.594c2.869-1.58,5.923-2.642,9.131-3.271c0.617-0.121,1.24-0.205,1.863-0.295
			c0.071-0.011,0.153,0.051,0.229,0.08c-1,0.797-2,1.595-3,2.392c-1.096,0.874-1.967,1.944-2.724,3.115
			c-0.035,0.036-0.07,0.071-0.105,0.106c-0.001,0.035-0.001,0.07-0.002,0.105c-0.108,0.112-0.249,0.207-0.319,0.338
			c-0.571,1.067-1.161,2.127-1.68,3.22c-0.302,0.637-0.484,1.331-0.73,2.028c1.669,0.159,3.246,0.309,4.821,0.459
			c0.028,0.062,0.057,0.123,0.085,0.185c-3.464,3.119-6.934,6.232-10.153,9.737c1.201,0.165,2.265,0.31,3.448,0.472
			c-0.978,0.4-1.857,0.704-2.687,1.111c-2.415,1.185-4.672,2.579-6.305,4.807c-1.264,1.725-2.577,3.415-3.868,5.119
			c-1.008-1.011-2.017-2.022-3.032-3.041c-0.27,1.232-0.519,2.369-0.774,3.535c0.691,0.623,1.422,1.28,2.152,1.938
			c-0.114,0.218-0.235,0.433-0.341,0.655c-0.672,1.412-1.402,2.8-1.995,4.245c-0.618,1.505-0.757,3.127-0.872,4.741
			c-0.132,1.854-0.339,3.704-0.397,5.56c-0.07,2.249-0.083,4.503,0.296,6.737c0.333,1.967,0.589,3.949,0.98,5.903
			c0.241,1.207,0.673,2.375,1.02,3.561c0.048-0.01,0.097-0.019,0.146-0.029c0.479-0.96,0.958-1.921,1.436-2.881
			c0.048,0.012,0.096,0.024,0.144,0.037c0.519,2.485,1.256,4.902,2.313,7.207c1.052,2.294,2.264,4.496,4.172,6.276
			c0-1.012,0-2.023,0-3.04c0.111,0,0.171-0.018,0.211,0.002c0.39,0.204,0.782,0.405,1.164,0.623c2.681,1.528,5.456,2.866,8.32,4.011
			c3.467,1.386,6.919,2.807,10.212,4.576c1.02,0.548,2.045,1.132,2.936,1.861c2.022,1.656,3.962,3.413,5.936,5.129
			c-0.054,0.129-0.102,0.261-0.164,0.386c-0.646,1.293-1.304,2.58-1.94,3.877c-0.563,1.146-1.103,2.302-1.652,3.453
			c-0.048-0.007-0.096-0.015-0.143-0.021c0-1.33,0-2.661,0-3.991c-0.227,0.512-0.317,1.031-0.455,1.536
			c-0.558,2.052-1.121,4.102-1.702,6.146c-0.175,0.616-0.617,0.972-1.223,1.213c-0.71,0.281-1.373,0.191-2.054-0.023l0.006,0.004
			c-0.065-0.03-0.131-0.061-0.197-0.091c-1.035-0.771-2.068-1.543-3.105-2.31c-0.265-0.195-0.543-0.372-0.805-0.551
			c0.126,1.286,0.251,2.552,0.375,3.818c-0.066,0.034-0.133,0.068-0.199,0.103c-4.23-3.448-9.404-5.158-14.093-7.761
			c-1.524-0.97-3.053-1.934-4.57-2.915c-0.405-0.262-0.773-0.579-1.249-0.939c0.086,0.7,0.159,1.29,0.232,1.879
			c-0.042,0.03-0.085,0.06-0.127,0.09c-1.445-0.991-2.889-1.983-4.333-2.975c0.076-0.591,0.189-1.179,0.22-1.771
			c0.056-1.081,0.19-2.179,0.067-3.244c-0.298-2.573-1.634-4.545-3.769-6.008c-0.867-0.595-1.704-1.241-2.501-1.927
			c-0.439-0.377-0.779-0.877-0.876-1.419c0.842,0.075,1.654,0.148,2.49,0.223c-0.74-1.381-1.478-2.603-2.063-3.894
			c-0.586-1.294-1.144-2.628-1.073-4.266c0.436,0.592,0.719,1.143,1.367,1.405c-0.222-2.183,0.097-4.249,0.452-6.298
			c0.354-2.047,0.847-4.071,1.279-6.105c-1.509,2.643-3.049,5.264-3.512,8.455c-0.402-0.423-0.804-0.847-1.246-1.312
			c-0.055,0.791-0.159,1.506-0.143,2.219c0.035,1.599,0.096,3.198,0.208,4.792c0.128,1.819,0.625,3.552,1.343,5.229
			c0.819,1.915,2.222,3.404,3.521,4.974c0.826,0.998,1.534,2.078,1.722,3.391c0.203,1.42,0.336,2.851,0.5,4.277
			c0.109,1.606,0.219,3.213,0.329,4.827c-0.945,0.195-3.583-0.443-4.137-1.044c0.168-0.09,0.328-0.176,0.444-0.237
			c-0.475-0.41-0.999-0.768-1.398-1.232c-0.607-0.706-0.725-1.617-0.867-2.509c-0.037-0.229-0.222-0.434-0.339-0.649
			c-0.221,0.2-0.511,0.364-0.641,0.612c-0.108,0.208-0.082,0.525-0.023,0.772c0.109,0.46,0.25,0.92,0.44,1.352
			c0.577,1.304,1.202,2.586,1.773,3.893c0.701,1.603,1.278,3.242,1.239,5.029c-0.012,0.523-0.119,0.623-0.601,0.43
			c-0.651-0.261-1.288-0.564-1.913-0.884c-0.491-0.251-0.955-0.554-1.491-0.869c0,0.252,0,0.407,0,0.563
			c-0.014,0.012-0.029,0.024-0.043,0.037c-0.153-0.077-0.327-0.129-0.457-0.235c-0.552-0.451-1.091-0.919-1.635-1.38l0.004,0.005
			c-0.037-0.074-0.074-0.147-0.11-0.222c-0.307-0.763-0.614-1.526-0.975-2.424c-0.055,0.227-0.065,0.295-0.089,0.357
			c-0.029,0.076-0.069,0.148-0.157,0.331c-0.731-1.342-1.117-2.685-1.315-4.099c-0.356,1.21,0.025,2.362,0.185,3.6
			c0.155-0.168,0.25-0.271,0.321-0.349c0.277,0.56,0.518,1.103,0.809,1.616c0.294,0.518,0.62,1.021,0.969,1.503
			c0.177,0.244,0.436,0.431,0.657,0.644c0.514,1.295,1.043,2.584,1.302,4.1c-1.009-0.3-1.896-0.563-2.784-0.825
			c-1.123-0.503-2.271-0.961-3.173-1.844c-0.043-0.043-0.13-0.042-0.196-0.062c-0.014-0.046-0.027-0.093-0.041-0.139
			c-0.014,0.01-0.027,0.018-0.041,0.027c0.026,0.037,0.053,0.075,0.079,0.113c0.309,0.643,0.617,1.286,0.925,1.93
			c-0.022,0.045-0.044,0.09-0.066,0.136c-0.482-0.169-0.963-0.339-1.446-0.505C29.803,103.951,29.503,103.858,29.205,103.762
			c-0.015-0.009-0.03-0.017-0.045-0.024C29.175,103.747,29.189,103.753,29.205,103.762z M30.337,102.017
			c-0.368-0.888-0.727-1.754-1.089-2.627c-0.089,0.061-0.19,0.13-0.358,0.243c-0.258-1.207-0.501-2.345-0.731-3.423
			C27.459,97.551,28.835,101.376,30.337,102.017z M42.312,59.295c-0.004-0.015-0.006-0.033-0.015-0.044
			c-0.003-0.004-0.025,0.006-0.038,0.01c0.004,0.016,0.006,0.033,0.015,0.045C42.276,59.31,42.298,59.299,42.312,59.295z"/>
		<path fill-rule="evenodd" clip-rule="evenodd" fill="#E9F5FA" d="M83.972,92.034c-1.974-1.716-3.914-3.473-5.936-5.129
			c-0.89-0.729-1.916-1.313-2.936-1.861c-3.293-1.769-6.745-3.189-10.212-4.576c-2.865-1.146-5.639-2.483-8.32-4.011
			c-0.382-0.218-0.773-0.419-1.164-0.623c-0.04-0.021-0.1-0.002-0.211-0.002c0,1.017,0,2.028,0,3.04
			c-1.908-1.78-3.12-3.982-4.172-6.276c-1.057-2.305-1.795-4.722-2.313-7.207c-0.048-0.012-0.096-0.024-0.144-0.037
			c-0.479,0.96-0.957,1.921-1.436,2.881c-0.048,0.01-0.097,0.019-0.146,0.029c-0.347-1.186-0.778-2.354-1.02-3.561
			c-0.392-1.955-0.647-3.937-0.98-5.903c-0.379-2.234-0.366-4.488-0.296-6.737c0.058-1.855,0.265-3.706,0.397-5.56
			c0.115-1.614,0.254-3.235,0.872-4.741c0.593-1.445,1.323-2.833,1.995-4.245c0.106-0.222,0.227-0.437,0.341-0.655
			c0.071,0.051,0.145,0.1,0.213,0.156c1.346,1.108,2.706,2.201,4.025,3.339c0.251,0.217,0.44,0.602,0.493,0.936
			c0.102,0.641,0.093,1.3,0.115,1.952c0.037,1.093,0.32,1.558,1.352,1.888c3.524,1.126,7.112,1.763,10.833,1.329
			c1.036-0.121,1.903-0.513,2.506-1.383c0.531-0.768,1.052-1.543,1.55-2.333c0.57-0.903,0.725-0.964,1.769-0.806
			c0.47,0.071,0.623,0.29,0.612,0.729c-0.017,0.669-0.003,1.339-0.011,2.009c-0.017,1.49,0.802,2.342,2.167,2.657
			c1.163,0.269,2.352,0.465,3.539,0.576c1.505,0.141,3.029,0.277,4.499-0.281c-0.359,0.93-0.715,1.862-1.079,2.79
			c-0.16,0.408-0.306,0.826-0.51,1.212c-0.299,0.564-0.396,1.07,0.209,1.494c0.037,0.039,0.073,0.078,0.11,0.117l-0.001-0.003
			c0.096,0.185,0.197,0.367,0.289,0.553c0.681,1.387,1.438,2.743,2.022,4.169c0.92,2.25,1.247,4.636,1.311,7.058
			c0.104,2.845-0.439,5.573-1.512,8.197c-0.313,0.763-0.59,1.601-1.114,2.204c-2.363,2.72-5.368,3.957-8.988,3.584
			c-0.349-0.036-0.696-0.081-1.043-0.121c0.067,0.139,0.153,0.192,0.24,0.243c2.436,1.417,4.872,2.835,7.31,4.249
			c0.132,0.076,0.286,0.114,0.429,0.169c0.456,0.4,0.914,0.796,1.366,1.2c0.721,0.644,1.436,1.293,2.155,1.938
			c0.05,0.045,0.111,0.079,0.166,0.116c0.73-0.63,1.431-1.265,2.165-1.86c2.168-1.76,4.552-3.157,7.1-4.309
			c1.859-0.84,3.651-1.829,5.473-2.751c0.107-0.054,0.216-0.103,0.477-0.088c-0.217,0.829-0.433,1.658-0.651,2.487
			c-0.044,0.168-0.095,0.334-0.142,0.501l-0.044,0.024l0.02,0.02l0.024-0.044c0.845-0.4,1.714-0.756,2.526-1.215
			c0.674-0.38,1.28-0.882,1.917-1.329c-0.121,0.271-0.219,0.556-0.367,0.813c-1.101,1.916-2.571,3.529-4.173,5.028
			c-0.456,0.426-0.947,0.814-1.484,1.272c0.047-0.83,0.088-1.552,0.137-2.422c-2.349,1.954-4.316,4.053-6.221,6.217
			c-0.048-0.016-0.096-0.03-0.143-0.046c-0.063-0.912-0.127-1.825-0.198-2.84C87.656,88.121,85.609,89.87,83.972,92.034z
			 M56.075,48.828c0.031,0.292,0.036,0.501,0.077,0.703c0.289,1.458,1.119,2.577,2.264,3.468c2.361,1.836,5.124,2.712,8.019,3.196
			c2.609,0.436,5.246,0.253,7.874,0.185c0.118-0.003,0.234-0.041,0.46-0.083c-0.217-0.455-0.408-0.86-0.604-1.263
			c-0.3-0.615-0.615-1.223-0.901-1.846c-0.207-0.451-0.066-0.765,0.363-1.062c0.904-0.625,1.76-1.321,2.672-2.015
			c-0.691-0.567-1.438-0.821-2.205-0.88c-2.249-0.173-4.501-0.348-6.754-0.386C63.618,48.782,59.895,48.828,56.075,48.828z
			 M67.916,64.166c0.069-0.014,0.139-0.028,0.208-0.042c0.302-0.61,0.645-1.204,0.896-1.833c0.309-0.774,0.6-1.513,1.471-1.85
			c0.472-0.182,0.901-0.477,1.349-0.721c-0.015-0.056-0.029-0.111-0.043-0.167c-3.907,0.242-7.735-0.184-11.583-1.428
			c0.103,1.651,0.521,3.049,1.21,4.455c0.513-0.571,0.98-1.091,1.485-1.654c0.467,1.262,0.78,2.49,1.729,3.555
			c0.652-0.964,1.237-1.828,1.816-2.683C66.938,62.583,67.427,63.374,67.916,64.166z M71.403,78.833
			c-0.003-0.011-0.003-0.027-0.01-0.031c-0.013-0.007-0.03-0.007-0.045-0.009c0.004,0.018,0.008,0.036,0.013,0.053
			C71.375,78.841,71.389,78.836,71.403,78.833z"/>
		<path fill-rule="evenodd" clip-rule="evenodd" fill="#E9F5FA" d="M49.944,34.429c1.292-1.705,2.605-3.394,3.869-5.119
			c1.632-2.228,3.89-3.623,6.305-4.807c0.829-0.407,1.709-0.71,2.687-1.111c-1.183-0.162-2.247-0.308-3.448-0.472
			c3.22-3.504,6.689-6.618,10.153-9.737c-0.028-0.062-0.057-0.123-0.085-0.185c-1.576-0.15-3.152-0.3-4.821-0.459
			c0.247-0.697,0.428-1.392,0.73-2.028c0.519-1.093,1.108-2.152,1.68-3.22c0.071-0.132,0.211-0.226,0.319-0.338
			c0.179,0.071,0.352,0.167,0.537,0.208c2.616,0.567,5.234,1.122,7.85,1.689c0.713,0.154,0.724,0.158,0.724-0.606
			c0-1.313,0-2.625,0-3.937c0.861-0.236,1.714-0.515,2.586-0.699c2.02-0.428,4.044-0.837,6.076-1.2
			c1.013-0.181,2.046-0.245,3.155-0.372c-0.747,1.291-1.448,2.5-2.148,3.709c0.041,0.029,0.081,0.057,0.121,0.086
			c0.913-0.27,1.816-0.589,2.743-0.793c0.933-0.206,1.891-0.296,2.928-0.451c0,0.546,0,1.009,0,1.508
			c2.547-0.316,5-0.263,7.52,0.215c-0.164,0.333-0.298,0.594-0.422,0.86c-0.43,0.926-0.853,1.855-1.285,2.779
			c-0.185,0.394-0.092,0.61,0.345,0.736c1.028,0.296,2.047,0.627,3.068,0.948c0.199,0.063,0.391,0.146,0.666,0.251
			c-0.442,0.539-0.865,1.019-1.25,1.529c-1.087,1.442-2.16,2.896-3.233,4.349c-0.06,0.081-0.074,0.195-0.109,0.293
			c-0.722,1.124-1.443,2.249-2.165,3.373c-0.661,1.123-1.324,2.244-1.976,3.372c-0.047,0.082-0.014,0.21-0.019,0.318
			c-0.324,0.471-0.695,0.917-0.962,1.418c-1.258,2.363-2.526,4.722-3.716,7.119c-1.166,2.349-2.244,4.742-3.355,7.118
			c-0.065,0.141-0.083,0.303-0.123,0.456c-1.789-0.366-3.578-0.731-5.366-1.098c-0.587-0.801-1.459-0.874-2.125-0.176
			c-1.495,0.048-2.991,0.121-4.487,0.133c-0.768,0.006-1.557-0.007-2.301-0.171c-2.301-0.508-4.586-1.093-6.877-1.648
			c-0.378-0.917-1.692-1.058-2.336-0.479c-0.053-0.001-0.107,0.004-0.158-0.005c-2.839-0.484-5.69-0.817-8.58-0.701
			c-0.134,0.006-0.309-0.083-0.405-0.184C51.476,36.086,50.712,35.255,49.944,34.429z M59.709,36.082
			c0.094-0.041,0.192-0.075,0.283-0.123c1.221-0.639,2.488-1.024,3.886-0.74c0.271,0.055,0.551,0.069,0.877,0.108
			c-0.821-1.252-2.891-1.363-4.038-0.619C60.219,35.033,59.737,35.397,59.709,36.082c-0.008,0.015-0.017,0.03-0.025,0.044
			C59.692,36.111,59.701,36.096,59.709,36.082z M64.97,33.271c-0.492-1.18-2.046-1.765-3.437-1.382
			c-1.167,0.321-2.266,1.57-2.145,2.543C60.947,32.674,62.829,32.517,64.97,33.271z M80.314,35.524
			c1.517,0.142,2.833,0.642,3.773,1.976c0.067-1.103-0.361-1.749-1.253-2.238C81.999,34.804,80.982,34.931,80.314,35.524z
			 M82.99,39.759c-0.128-1.228-0.512-2.22-1.733-2.57c-0.629-0.18-1.264-0.077-1.798,0.43C81.058,38.061,81.624,38.11,82.99,39.759z
			"/>
		<path fill-rule="evenodd" clip-rule="evenodd" fill="#B3E0EE" d="M84.303,65.018c-0.064-2.422-0.39-4.808-1.311-7.058
			c-0.584-1.427-1.341-2.783-2.022-4.169c-0.092-0.187-0.192-0.369-0.289-0.553c0.519,0.156,1.035,0.325,1.558,0.465
			c0.762,0.205,1.521,0.441,2.298,0.56c0.415,0.063,0.864-0.086,1.295-0.151c0.166-0.025,0.328-0.083,0.586-0.152
			c-0.073,0.362-0.129,0.64-0.21,1.039c1.735-0.807,2.989-2.045,4.004-3.496c1.011-1.445,1.875-2.993,2.785-4.467
			c0.098,0.164,0.246,0.413,0.408,0.684c0.733-1.146,0.228-4.532-0.981-6.547c0.307,0,0.561-0.018,0.812,0.003
			c1.59,0.129,3.212,0.114,4.651,0.966c1.141,0.675,1.955,1.633,2.501,2.897c-0.413-0.023-0.765-0.042-1.218-0.068
			c1.214,1.964,1.681,3.998,1.49,6.325c-0.344-0.273-0.617-0.49-0.938-0.746c-0.045,0.223-0.077,0.452-0.139,0.672
			c-0.188,0.66-0.394,1.314-0.576,1.975c-0.049,0.176-0.034,0.37-0.049,0.555c0.197,0.006,0.415,0.068,0.588,0.006
			c0.994-0.353,1.977-0.737,2.965-1.108c0.412-0.154,0.832-0.29,1.239-0.458c0.43-0.176,0.59-0.023,0.56,0.41
			c-1.119,0.39-2.239,0.777-3.355,1.172c-0.143,0.051-0.273,0.138-0.41,0.208c1.415-0.157,1.976-0.082,2.699,0.423
			c0.527,0.368,0.604,0.825,0.135,1.272c-0.363,0.347-0.799,0.622-1.22,0.903c-0.253,0.168-0.539,0.287-0.888,0.47
			c0.212,0.08,0.314,0.119,0.486,0.184c-0.771,0.506-1.514,0.942-2.197,1.457c-0.85,0.639-1.703,1.291-2.457,2.037
			c-0.601,0.594-0.417,1.008,0.423,1.075c1.032,0.083,2.07,0.087,3.105,0.123c0.183,0.006,0.366,0.001,0.665,0.001
			c-0.22,0.285-0.355,0.459-0.49,0.635c-0.008,0.013-0.017,0.027-0.024,0.041c0.007-0.015,0.014-0.03,0.021-0.044
			c0.388,0,0.781,0.038,1.162-0.015c0.239-0.034,0.575-0.147,0.665-0.326c0.195-0.389,0.509-0.438,0.853-0.502
			c0.671-0.127,1.345-0.239,2.011-0.39c0.533-0.12,1.055-0.288,1.583-0.435c0.026,0.037,0.052,0.073,0.078,0.11
			c-0.373,0.348-0.747,0.696-1.179,1.099c-0.07-0.259-0.112-0.412-0.176-0.648c-1.871,0.86-3.718,1.638-5.494,2.555
			c-0.857,0.442-1.58,1.144-2.363,1.729c-0.015,0.016-0.029,0.033-0.043,0.049c0.016-0.014,0.032-0.028,0.049-0.043
			c0.116,0.008,0.231,0.017,0.502,0.036c-0.686,0.579-1.269,1.07-1.964,1.657c0.313,0.272,0.564,0.631,0.901,0.753
			c0.635,0.231,1.313,0.41,1.983,0.458c1.011,0.072,2.032,0.013,3.049,0.01c0.009-0.074,0.018-0.149,0.027-0.223
			c-0.263-0.108-0.526-0.216-0.795-0.326c1.354-0.163,2.704-0.326,4.054-0.488c-2.765,1.702-5.958,1.523-9.016,2.036
			c0.005,0.827,0.698,1.216,1.141,1.785c-0.107,0.089-0.202,0.167-0.33,0.273c0.344,0.289,0.651,0.547,0.959,0.806
			c0.183,0.287,0.015,0.308-0.223,0.32c-1.765,0.088-3.472-0.21-5.109-0.841c-0.998-0.384-1.952-0.882-2.927-1.323
			c-0.092-0.042-0.202-0.044-0.303-0.065c-0.005-0.013-0.007-0.028-0.015-0.039c-0.005-0.007-0.02-0.006-0.03-0.008
			c0.015,0.016,0.029,0.033,0.043,0.05c0.142,0.317,0.283,0.635,0.425,0.952l0,0c-0.563-0.106-1.121-0.269-1.688-0.307
			c-1.314-0.088-2.557,0.275-3.78,0.713c-0.147,0.053-0.299,0.09-0.448,0.135c0.035-0.454,0.099-0.906,0.1-1.359
			c0.004-1.84-0.008-3.68-0.026-5.52C84.477,65.156,84.364,65.087,84.303,65.018z"/>
		<path fill-rule="evenodd" clip-rule="evenodd" fill="#65C1DD" d="M83.972,92.034c1.637-2.164,3.684-3.913,5.754-5.778
			c0.071,1.016,0.134,1.928,0.198,2.84c0.047,0.016,0.095,0.03,0.143,0.046c1.905-2.164,3.872-4.263,6.221-6.217
			c-0.049,0.87-0.09,1.592-0.137,2.422c0.537-0.458,1.029-0.846,1.484-1.272c1.602-1.5,3.073-3.112,4.173-5.028
			c0.147-0.256,0.246-0.541,0.367-0.813c0.034-0.012,0.069-0.014,0.104-0.005l0.016,0.014c-0.354,1.156-0.67,2.324-1.071,3.463
			c-0.876,2.494-2.535,4.529-3.959,6.707c-1.434,2.191-2.747,4.463-4.103,6.704c-0.105,0.174-0.136,0.393-0.202,0.591
			c-0.014,0.02-0.028,0.04-0.042,0.061c0.019-0.016,0.037-0.031,0.056-0.047c0.623-0.322,1.243-0.647,1.868-0.966
			c0.575-0.294,1.154-0.581,1.824-0.781c-0.142,0.267-0.287,0.533-0.426,0.802c-1.486,2.862-2.957,5.733-4.465,8.585
			c-0.601,1.136-1.27,2.237-1.95,3.328c-0.118,0.189-0.442,0.352-0.672,0.353c-3.017,0.019-6.035-0.047-9.05,0.017
			c-2.183,0.046-3.839-0.979-5.394-2.314c-0.036-0.03-0.048-0.089-0.072-0.135c0.682,0.215,1.344,0.305,2.054,0.023
			c0.606-0.241,1.048-0.597,1.223-1.213c0.581-2.045,1.145-4.095,1.702-6.146c0.137-0.505,0.228-1.024,0.455-1.536
			c0,1.33,0,2.661,0,3.991c0.047,0.007,0.095,0.015,0.143,0.021c0.55-1.151,1.09-2.308,1.652-3.453
			c0.636-1.297,1.294-2.584,1.94-3.877C83.87,92.294,83.917,92.163,83.972,92.034z"/>
		<path fill-rule="evenodd" clip-rule="evenodd" fill="#65C2DD" d="M46.573,92.961c1.444,0.991,2.889,1.983,4.333,2.975
			c0.042-0.03,0.085-0.06,0.127-0.09c-0.073-0.589-0.146-1.179-0.232-1.879c0.475,0.36,0.844,0.678,1.249,0.939
			c1.517,0.981,3.046,1.945,4.57,2.915c-1.113,0.304-2.226,0.606-3.239,0.883c3.778,1.617,7.187,3.898,8.825,8.215
			c-1.113,0.074-2.128,0.162-3.145,0.206c-2.185,0.095-4.37,0.186-6.556,0.246c-3.156,0.089-6.313,0.148-9.47,0.223
			c-0.917,0.021-1.834,0.04-2.75,0.076c-1.458,0.059-2.603-0.503-3.439-1.699c-0.099-0.142-0.215-0.271-0.354-0.442
			c-0.334,0.231-0.648,0.449-1.01,0.701c-0.599-0.51-1.111-1.09-1.423-1.835c0.887,0.263,1.774,0.525,2.784,0.825
			c-0.259-1.516-0.789-2.805-1.302-4.1c-0.1-0.32-0.199-0.642-0.299-0.963c0.544,0.461,1.083,0.929,1.635,1.38
			c0.13,0.106,0.304,0.158,0.458,0.235c0.024,0.038,0.048,0.077,0.072,0.116c-0.01-0.052-0.02-0.102-0.03-0.153
			c0-0.155,0-0.311,0-0.563c0.536,0.315,1,0.618,1.491,0.869c0.625,0.319,1.261,0.623,1.913,0.884
			c0.482,0.193,0.589,0.094,0.601-0.43c0.039-1.787-0.539-3.427-1.239-5.029c-0.571-1.307-1.196-2.589-1.773-3.893
			c-0.19-0.432-0.331-0.892-0.44-1.352c-0.059-0.247-0.085-0.564,0.023-0.772c0.13-0.248,0.42-0.412,0.641-0.612
			c0.117,0.216,0.302,0.421,0.339,0.649c0.142,0.892,0.26,1.803,0.867,2.509c0.399,0.465,0.924,0.822,1.398,1.232
			c-0.116,0.062-0.276,0.147-0.444,0.237c0.554,0.601,3.192,1.239,4.137,1.044c-0.11-1.614-0.219-3.221-0.329-4.827
			c0.106,0.055,0.218,0.101,0.317,0.165C45.444,92.216,46.008,92.589,46.573,92.961z"/>
		<path fill-rule="evenodd" clip-rule="evenodd" fill="#EBF7FE" d="M98.458,72.518c-0.308-0.258-0.615-0.517-0.959-0.806
			c0.128-0.106,0.223-0.184,0.33-0.273c-0.442-0.569-1.135-0.958-1.141-1.785c3.058-0.513,6.25-0.333,9.016-2.036
			c-1.35,0.163-2.699,0.325-4.054,0.488c0.269,0.11,0.532,0.218,0.795,0.326c-0.009,0.074-0.018,0.149-0.027,0.223
			c-1.017,0.003-2.038,0.062-3.049-0.01c-0.671-0.048-1.349-0.228-1.983-0.458c-0.337-0.123-0.588-0.481-0.901-0.753
			c0.695-0.587,1.278-1.079,1.964-1.657c-0.271-0.019-0.386-0.027-0.502-0.036l-0.006-0.006c0.784-0.584,1.506-1.287,2.363-1.729
			c1.776-0.917,3.623-1.695,5.494-2.555c0.064,0.236,0.106,0.389,0.176,0.648c0.432-0.403,0.806-0.75,1.179-1.099
			c-0.026-0.037-0.052-0.074-0.078-0.11c-0.527,0.146-1.05,0.314-1.583,0.435c-0.666,0.151-1.34,0.263-2.011,0.39
			c-0.344,0.064-0.658,0.113-0.853,0.502c-0.09,0.179-0.426,0.292-0.665,0.326c-0.38,0.053-0.774,0.015-1.162,0.015l0.003,0.003
			c0.135-0.175,0.27-0.35,0.49-0.635c-0.299,0-0.482,0.005-0.665-0.001c-1.036-0.036-2.074-0.039-3.105-0.123
			c-0.841-0.067-1.024-0.481-0.423-1.075c0.754-0.746,1.607-1.397,2.457-2.037c0.683-0.514,1.426-0.951,2.197-1.457
			c-0.171-0.065-0.274-0.104-0.486-0.184c0.35-0.183,0.635-0.301,0.888-0.47c0.421-0.281,0.857-0.556,1.22-0.903
			c0.468-0.447,0.392-0.905-0.135-1.272c-0.723-0.505-1.285-0.58-2.699-0.423c0.136-0.07,0.267-0.158,0.41-0.208
			c1.117-0.395,2.236-0.783,3.355-1.172c0.913,0.037,1.836,0.001,2.737,0.128c1.239,0.174,1.897,1.138,2.577,2.035
			c-0.025,0.045-0.05,0.09-0.074,0.135c-0.38-0.122-0.761-0.245-1.245-0.4c0.739,1.262,1.402,2.447,1.448,3.907
			c-0.095-0.052-0.18-0.073-0.221-0.127c-0.052-0.069-0.068-0.166-0.131-0.334c-0.343,0.823-0.506,1.53-0.895,2.077
			c-0.656,0.924-0.628,1.727-0.139,2.727c0.35,0.714,0.364,1.593,0.528,2.398c-0.068,0.028-0.137,0.055-0.206,0.082
			c-0.14-0.173-0.28-0.345-0.524-0.646c-0.065,1.108-0.079,2.105-0.625,3.011c-0.088-0.204-0.162-0.372-0.238-0.547
			c-0.389,0.358-0.776,0.683-1.118,1.051c-0.094,0.101-0.094,0.337-0.063,0.498c0.179,0.925,0.485,1.84,0.137,2.818
			c-0.127-0.06-0.244-0.114-0.404-0.189c-0.566,1.243-1.589,1.874-2.857,2.014c-1.377,0.152-2.733-0.091-4.036-0.583
			C98.799,72.593,98.626,72.563,98.458,72.518z"/>
		<path fill-rule="evenodd" clip-rule="evenodd" fill="#515053" d="M79.523,40.132c1.789,0.366,3.577,0.731,5.366,1.098
			c0.15,0.049,0.3,0.099,0.45,0.147c0.367,0.121,0.503,0.378,0.394,0.739c-0.139,0.453-0.269,0.915-0.478,1.336
			c-0.113,0.229-0.351,0.453-0.586,0.552c-0.407,0.171-0.647,0.439-0.825,0.828c-0.248,0.542-0.499,1.092-0.83,1.584
			c-0.297,0.442-0.704,0.811-1.062,1.211c-1.47,0.559-2.994,0.422-4.499,0.281c-1.188-0.111-2.376-0.308-3.539-0.576
			c-1.365-0.315-2.183-1.167-2.167-2.657c0.007-0.669-0.006-1.339,0.011-2.009c0.011-0.439-0.142-0.658-0.612-0.729
			c-1.044-0.158-1.198-0.097-1.769,0.806c-0.498,0.79-1.019,1.566-1.55,2.333c-0.603,0.87-1.471,1.263-2.506,1.383
			c-3.721,0.434-7.309-0.203-10.833-1.329c-1.032-0.33-1.315-0.794-1.352-1.888c-0.022-0.652-0.014-1.311-0.115-1.952
			c-0.053-0.333-0.241-0.718-0.493-0.936c-1.319-1.139-2.679-2.231-4.025-3.339c-0.068-0.056-0.142-0.104-0.213-0.156
			c-0.73-0.658-1.461-1.315-2.152-1.938c0.255-1.166,0.505-2.303,0.774-3.535c1.015,1.018,2.023,2.029,3.032,3.041
			c0.768,0.826,1.531,1.657,2.309,2.474c0.096,0.101,0.271,0.189,0.405,0.184c2.889-0.116,5.74,0.217,8.58,0.701
			c0.051,0.009,0.105,0.003,0.158,0.005c0.779,0.159,1.558,0.319,2.336,0.479c2.292,0.555,4.576,1.14,6.877,1.648
			c0.744,0.164,1.533,0.177,2.301,0.171c1.496-0.012,2.992-0.085,4.487-0.133C78.106,40.015,78.815,40.074,79.523,40.132z
			 M60.249,38.699c-1.564-0.09-3.127-0.21-4.692-0.255c-0.628-0.018-0.983,0.34-1.058,0.962c-0.132,1.103-0.24,2.209-0.309,3.316
			c-0.07,1.128,0.04,1.266,1.13,1.634c3.009,1.017,6.114,1.34,9.276,1.288c1.155-0.02,2.005-0.534,2.583-1.477
			c0.478-0.778,0.885-1.602,1.282-2.426c0.346-0.717,0.237-1.042-0.53-1.295c-1.168-0.384-2.367-0.675-3.552-1.006
			C63.002,39.192,61.625,38.946,60.249,38.699z M77.658,40.957c-0.006,0.039-0.012,0.077-0.018,0.115
			c-0.599,0-1.2-0.025-1.798,0.008c-0.526,0.029-1.051,0.105-1.57,0.193c-0.684,0.117-1.119,0.519-1.186,1.225
			c-0.07,0.735-0.13,1.474-0.128,2.211c0.002,1.284,0.237,1.568,1.471,1.865c1.758,0.423,3.545,0.591,5.351,0.506
			c0.437-0.021,0.871-0.119,1.303-0.202c0.573-0.109,0.983-0.413,1.218-0.975c0.421-1.006,0.896-1.989,1.309-2.999
			c0.343-0.84,0.259-1.06-0.623-1.206C81.217,41.405,79.435,41.199,77.658,40.957z"/>
		<path fill-rule="evenodd" clip-rule="evenodd" fill="#4F4E51" d="M60.877,16.491c-1.555,1.938-3.737,2.984-6.772,3.231
			c0.966-0.488,1.899-0.959,2.895-1.462c-2.616-2.659-4.482-5.583-4.405-9.4c0.132-2.343,0.849-4.484,2.209-6.401
			c0.131-0.185,0.295-0.345,0.443-0.517c0.017,0.037,0.044,0.051,0.083,0.04c0.002,0.069,0.004,0.137,0.006,0.207
			c-0.093,0.154-0.234,0.298-0.272,0.465c-0.532,2.323-0.524,4.636,0.236,6.911c0.824,2.465,2.378,4.402,4.416,5.978
			C60.112,15.847,60.491,16.174,60.877,16.491z"/>
		<path fill-rule="evenodd" clip-rule="evenodd" fill="#66C2DD" d="M84.303,65.018c0.061,0.069,0.174,0.138,0.174,0.208
			c0.018,1.839,0.03,3.679,0.026,5.52c-0.001,0.453-0.065,0.905-0.1,1.359c-0.389,1.601-0.696,3.228-1.187,4.797
			c-0.761,2.436-2.021,4.63-3.592,6.642c-0.143-0.056-0.297-0.093-0.429-0.169c-2.438-1.414-4.874-2.832-7.31-4.249
			c-0.087-0.051-0.173-0.104-0.24-0.243c0.348,0.04,0.695,0.084,1.043,0.121c3.62,0.373,6.625-0.864,8.988-3.584
			c0.524-0.604,0.801-1.441,1.114-2.204C83.864,70.591,84.407,67.862,84.303,65.018z"/>
		<path fill-rule="evenodd" clip-rule="evenodd" fill="#EBF7FD" d="M76.443,4.308c0,1.312,0,2.624,0,3.937
			c0,0.764-0.011,0.76-0.724,0.606c-2.616-0.568-5.234-1.123-7.85-1.689c-0.186-0.04-0.358-0.137-0.537-0.208
			c0.001-0.035,0.001-0.07,0.002-0.105c0.035-0.035,0.07-0.071,0.105-0.106c0.757-1.17,1.628-2.241,2.724-3.115
			c1-0.797,2-1.594,3-2.392c-0.006,0.177,0.026,0.366-0.025,0.529c-0.232,0.749-0.489,1.49-0.786,2.382
			c1.454-0.542,2.719-1.208,4.09-1.437C76.443,3.299,76.443,3.804,76.443,4.308z"/>
		<path fill-rule="evenodd" clip-rule="evenodd" fill="#737F84" d="M60.877,16.491c-0.386-0.316-0.765-0.644-1.16-0.95
			c-2.038-1.576-3.592-3.513-4.416-5.978c-0.761-2.275-0.769-4.588-0.236-6.911c0.038-0.167,0.179-0.311,0.272-0.465
			c0.227,0.881,0.454,1.763,0.681,2.645c1.001,3.208,2.895,5.748,5.688,7.619c1.045,0.7,1.087,0.731,0.531,1.875
			C61.868,15.087,61.336,15.772,60.877,16.491z"/>
		<path fill-rule="evenodd" clip-rule="evenodd" fill="#4F4E51" d="M93.045,25.119c0.004-0.107-0.029-0.236,0.019-0.318
			c0.652-1.128,1.315-2.249,1.976-3.372c1.149-0.235,2.319-0.401,3.444-0.72c2.502-0.708,4.715-1.935,6.483-3.885
			c0.21-0.232,0.432-0.453,0.648-0.68c-0.898,2.548-2.243,4.821-4.196,6.702c-1.863,1.795-4.158,2.435-6.686,2.382
			C94.17,25.217,93.608,25.157,93.045,25.119z"/>
		<path fill-rule="evenodd" clip-rule="evenodd" fill="#737F84" d="M105.615,16.145c-0.216,0.227-0.438,0.448-0.648,0.68
			c-1.769,1.951-3.981,3.178-6.483,3.885c-1.125,0.318-2.295,0.485-3.444,0.72c0.722-1.124,1.443-2.249,2.165-3.373
			c3.063,0.494,5.751-0.446,8.241-2.15c0.082-0.056,0.168-0.106,0.353-0.222C105.709,15.908,105.662,16.026,105.615,16.145z"/>
		<path fill-rule="evenodd" clip-rule="evenodd" fill="#65C1DD" d="M102.279,78.229c0.008-0.049,0.016-0.099,0.023-0.148
			c0.016,0.004,0.032,0.009,0.048,0.013c-0.019,0.049-0.037,0.099-0.056,0.148C102.295,78.243,102.279,78.229,102.279,78.229z"/>
		<path fill-rule="evenodd" clip-rule="evenodd" fill="#65C1DD" d="M74.448,104.522c0.065,0.03,0.131,0.061,0.197,0.091
			C74.579,104.583,74.513,104.552,74.448,104.522z"/>
		<path fill-rule="evenodd" clip-rule="evenodd" fill="#B3E0EE" d="M90.318,71.563c0.015,0.008,0.029,0.017,0.044,0.024
			C90.348,71.58,90.333,71.571,90.318,71.563L90.318,71.563z"/>
		<path fill-rule="evenodd" clip-rule="evenodd" fill="#B3E0EE" d="M80.682,53.24c-0.037-0.039-0.073-0.078-0.11-0.117
			C80.609,53.161,80.646,53.201,80.682,53.24z"/>
		<path fill-rule="evenodd" clip-rule="evenodd" fill="#737F84" d="M55.248,1.941c0.018-0.02,0.035-0.039,0.052-0.059
			c0.011,0.033,0.021,0.065,0.032,0.098C55.292,1.992,55.264,1.979,55.248,1.941z"/>
		<path fill-rule="evenodd" clip-rule="evenodd" fill="#B3E0EE" d="M46.573,92.961c-0.565-0.372-1.129-0.745-1.695-1.113
			c-0.1-0.064-0.211-0.11-0.317-0.165c-0.164-1.426-0.297-2.856-0.5-4.277c-0.188-1.313-0.896-2.394-1.722-3.391
			c-1.299-1.57-2.702-3.06-3.521-4.974c-0.717-1.677-1.215-3.41-1.343-5.229c-0.112-1.595-0.174-3.194-0.208-4.792
			c-0.016-0.713,0.088-1.428,0.143-2.219c0.441,0.465,0.843,0.888,1.246,1.312c0.463-3.191,2.002-5.812,3.512-8.455
			c-0.432,2.034-0.924,4.058-1.279,6.105c-0.355,2.05-0.674,4.116-0.452,6.298c-0.648-0.262-0.932-0.813-1.367-1.405
			c-0.071,1.638,0.486,2.971,1.073,4.266c0.585,1.291,1.322,2.512,2.063,3.894c-0.836-0.075-1.648-0.148-2.49-0.223
			c0.097,0.542,0.437,1.042,0.876,1.419c0.797,0.686,1.634,1.332,2.501,1.927c2.134,1.463,3.471,3.436,3.769,6.008
			c0.124,1.065-0.011,2.163-0.067,3.244C46.762,91.783,46.649,92.371,46.573,92.961z"/>
		<path fill-rule="evenodd" clip-rule="evenodd" fill="#B3E0EE" d="M35.242,100.158c0.1,0.321,0.199,0.643,0.299,0.963
			c-0.222-0.213-0.48-0.399-0.657-0.644c-0.349-0.482-0.675-0.985-0.969-1.503c-0.292-0.514-0.532-1.057-0.809-1.616
			c-0.071,0.077-0.167,0.181-0.321,0.349c-0.16-1.237-0.541-2.39-0.185-3.6c0.198,1.414,0.584,2.757,1.315,4.099
			c0.088-0.183,0.128-0.255,0.157-0.331c0.024-0.063,0.034-0.131,0.089-0.357c0.361,0.897,0.667,1.661,0.975,2.424
			c0.037,0.074,0.074,0.147,0.11,0.222L35.242,100.158z"/>
		<path fill-rule="evenodd" clip-rule="evenodd" fill="#B4E1EE" d="M30.337,102.017c-1.502-0.641-2.878-4.466-2.178-5.807
			c0.23,1.078,0.473,2.216,0.731,3.423c0.167-0.113,0.269-0.183,0.358-0.243C29.61,100.263,29.969,101.129,30.337,102.017z"/>
		<path fill-rule="evenodd" clip-rule="evenodd" fill="#B3E0EE" d="M42.312,59.295c-0.013,0.004-0.035,0.014-0.038,0.01
			c-0.009-0.012-0.011-0.029-0.015-0.045c0.013-0.003,0.035-0.014,0.038-0.01C42.306,59.263,42.307,59.28,42.312,59.295z"/>
		<path fill-rule="evenodd" clip-rule="evenodd" fill="#65C2DD" d="M35.246,100.163c-0.037-0.074-0.074-0.147-0.11-0.222
			C35.172,100.015,35.208,100.088,35.246,100.163z"/>
		<path fill-rule="evenodd" clip-rule="evenodd" fill="#E9F5FA" d="M67.44,6.742c-0.035,0.036-0.07,0.071-0.105,0.106
			C67.37,6.813,67.405,6.777,67.44,6.742z"/>
		<path fill-rule="evenodd" clip-rule="evenodd" fill="#4F4E51" d="M56.075,48.828c3.819,0,7.543-0.045,11.265,0.017
			c2.253,0.038,4.506,0.213,6.754,0.386c0.767,0.059,1.514,0.313,2.205,0.88c-0.912,0.694-1.768,1.39-2.672,2.015
			c-0.429,0.297-0.569,0.61-0.363,1.062c0.286,0.623,0.601,1.23,0.901,1.846c0.196,0.403,0.386,0.808,0.604,1.263
			c-0.226,0.042-0.343,0.081-0.46,0.083c-2.628,0.068-5.265,0.25-7.874-0.185c-2.895-0.484-5.658-1.359-8.019-3.196
			c-1.145-0.891-1.975-2.009-2.264-3.468C56.111,49.329,56.106,49.119,56.075,48.828z"/>
		<path fill-rule="evenodd" clip-rule="evenodd" fill="#D3EDF6" d="M67.916,64.166c-0.489-0.792-0.978-1.583-1.462-2.368
			c-0.579,0.855-1.164,1.719-1.816,2.683c-0.949-1.065-1.262-2.293-1.729-3.555c-0.504,0.563-0.972,1.083-1.485,1.654
			c-0.689-1.406-1.108-2.803-1.21-4.455c3.849,1.244,7.677,1.67,11.583,1.428c0.015,0.056,0.029,0.111,0.043,0.167
			c-0.448,0.244-0.877,0.539-1.349,0.721c-0.871,0.337-1.162,1.076-1.471,1.85c-0.252,0.629-0.594,1.224-0.896,1.833
			C68.054,64.138,67.985,64.152,67.916,64.166z"/>
		<path fill-rule="evenodd" clip-rule="evenodd" fill="#66C2DD" d="M71.403,78.833c-0.014,0.004-0.028,0.008-0.042,0.013
			c-0.004-0.018-0.008-0.035-0.013-0.053c0.015,0.002,0.032,0.002,0.045,0.009C71.399,78.805,71.399,78.822,71.403,78.833z"/>
		<path fill-rule="evenodd" clip-rule="evenodd" fill="#D4EDF6" d="M64.97,33.271c-2.141-0.755-4.023-0.597-5.581,1.161
			c-0.122-0.973,0.978-2.222,2.145-2.543C62.924,31.507,64.478,32.091,64.97,33.271z"/>
		<path fill-rule="evenodd" clip-rule="evenodd" fill="#D4EDF6" d="M59.708,36.082c0.028-0.684,0.51-1.048,1.01-1.373
			c1.147-0.745,3.216-0.634,4.038,0.619c-0.326-0.039-0.606-0.053-0.877-0.108c-1.398-0.284-2.666,0.101-3.886,0.74
			C59.901,36.007,59.803,36.041,59.708,36.082L59.708,36.082z"/>
		<path fill-rule="evenodd" clip-rule="evenodd" fill="#D4EDF6" d="M80.314,35.524c0.668-0.593,1.685-0.72,2.52-0.263
			c0.893,0.489,1.321,1.136,1.253,2.238C83.148,36.166,81.832,35.666,80.314,35.524z"/>
		<path fill-rule="evenodd" clip-rule="evenodd" fill="#CDEBF4" d="M82.99,39.759c-1.366-1.649-1.932-1.699-3.532-2.14
			c0.534-0.507,1.169-0.61,1.798-0.43C82.478,37.54,82.861,38.532,82.99,39.759z"/>
		<path fill-rule="evenodd" clip-rule="evenodd" fill="#D4EDF6" d="M59.709,36.082c-0.008,0.015-0.017,0.03-0.025,0.044
			C59.692,36.111,59.701,36.096,59.709,36.082L59.709,36.082z"/>
		<path fill-rule="evenodd" clip-rule="evenodd" fill="#EBF7FE" d="M100.803,62.559c-0.007,0.014-0.014,0.029-0.021,0.044
			c0.008-0.013,0.016-0.027,0.024-0.041L100.803,62.559z"/>
		<path fill-rule="evenodd" clip-rule="evenodd" fill="#EBF7FE" d="M97.947,65.741c-0.017,0.015-0.033,0.029-0.049,0.043
			c0.014-0.016,0.028-0.033,0.043-0.049L97.947,65.741z"/>
		<path fill-rule="evenodd" clip-rule="evenodd" fill="#D3EDF6" d="M37.376,101.736c0.01,0.052,0.02,0.102,0.03,0.153
			c-0.024-0.039-0.048-0.078-0.072-0.116C37.348,101.76,37.362,101.748,37.376,101.736z"/>
		<path fill-rule="evenodd" clip-rule="evenodd" fill="#E8F4F8" d="M64.378,39.439c1.186,0.331,2.384,0.622,3.552,1.006
			c0.768,0.252,0.876,0.578,0.53,1.295c-0.397,0.824-0.805,1.648-1.282,2.426c-0.579,0.943-1.428,1.458-2.583,1.477
			c-3.162,0.052-6.267-0.271-9.276-1.288c-1.09-0.368-1.2-0.506-1.13-1.634c0.069-1.107,0.177-2.213,0.309-3.316
			c0.075-0.622,0.429-0.98,1.058-0.962c1.565,0.045,3.128,0.166,4.692,0.256c-0.144,0.449-0.287,0.898-0.431,1.348
			c-0.393,0.995-0.456,2.02-0.199,3.046c0.276,1.099,1.23,1.682,2.226,1.419c0.906-0.239,1.897-1.426,1.992-2.383
			C64.303,41.291,64.363,40.37,64.378,39.439z"/>
		<path fill-rule="evenodd" clip-rule="evenodd" fill="#ECF5F9" d="M77.658,40.957c1.777,0.242,3.56,0.448,5.328,0.742
			c0.882,0.146,0.966,0.366,0.623,1.206c-0.412,1.01-0.888,1.993-1.309,2.999c-0.235,0.562-0.646,0.865-1.218,0.975
			c-0.432,0.083-0.867,0.181-1.303,0.202c-1.806,0.085-3.593-0.083-5.351-0.506c-1.233-0.296-1.468-0.581-1.471-1.865
			c-0.002-0.737,0.059-1.477,0.128-2.211c0.067-0.706,0.502-1.108,1.186-1.225c0.52-0.088,1.044-0.164,1.57-0.193
			c0.598-0.033,1.199-0.008,1.798-0.008C77.646,41.034,77.652,40.996,77.658,40.957z M80.016,43.174
			c-0.088,0.187-0.129,0.318-0.205,0.425c-0.332,0.473-0.611,1.005-1.025,1.393c-0.89,0.834-1.999,0.586-2.501-0.526
			c-0.2-0.444-0.304-0.932-0.456-1.415c-0.115,1.275,0.009,2.173,0.382,2.801c0.375,0.631,0.901,0.875,1.6,0.743
			C79.053,46.358,80.112,44.76,80.016,43.174z M76.533,42.933c-0.034,0.033-0.068,0.064-0.102,0.097
			c0.209,0.263,0.369,0.644,0.641,0.762c0.38,0.165,0.623-0.208,0.8-0.52c0.077-0.134,0.129-0.291,0.155-0.442
			c0.087-0.507-0.143-1.034-0.473-1.123c-0.361-0.097-0.791,0.271-0.944,0.815C76.573,42.656,76.558,42.796,76.533,42.933z"/>
		<path fill-rule="evenodd" clip-rule="evenodd" fill="#778287" d="M59.817,40.047c0.042,0.612,0.023,1.236,0.14,1.833
			c0.141,0.713,0.499,1.321,1.277,1.537c0.78,0.215,1.414-0.074,1.965-0.602c0.225-0.215,0.424-0.456,0.636-0.686
			c-0.094,0.957-1.086,2.144-1.992,2.383c-0.995,0.263-1.95-0.32-2.226-1.419C59.361,42.067,59.425,41.042,59.817,40.047z"/>
		<path fill-rule="evenodd" clip-rule="evenodd" fill="#778287" d="M80.016,43.174c0.097,1.585-0.962,3.184-2.205,3.42
			c-0.698,0.133-1.224-0.111-1.6-0.743c-0.374-0.628-0.497-1.525-0.382-2.801c0.152,0.483,0.255,0.971,0.456,1.415
			c0.502,1.112,1.611,1.361,2.501,0.526c0.414-0.388,0.693-0.92,1.025-1.393C79.886,43.492,79.927,43.361,80.016,43.174z"/>
		<path fill-rule="evenodd" clip-rule="evenodd" fill="#1C1C1C" d="M76.533,42.933c0.025-0.137,0.04-0.277,0.077-0.411
			c0.153-0.544,0.583-0.912,0.944-0.815c0.33,0.089,0.56,0.616,0.473,1.123c-0.026,0.152-0.078,0.308-0.155,0.442
			c-0.177,0.312-0.42,0.684-0.8,0.52c-0.272-0.119-0.432-0.499-0.641-0.762C76.465,42.998,76.499,42.966,76.533,42.933z"/>
		<path fill-rule="evenodd" clip-rule="evenodd" fill="#1C1C1C" d="M60.526,40.905c0.023-0.59,0.417-1.082,0.869-1.085
			c0.379-0.003,0.694,0.455,0.671,0.975c-0.025,0.582-0.477,1.122-0.923,1.105C60.742,41.886,60.502,41.5,60.526,40.905z"/>
		<path fill="#4F4E51" d="M14.044,126.805h-1.66v-14.277h7.959v1.475h-6.299v5.225h5.918v1.475h-5.918V126.805z"/>
		<path fill="#4F4E51" d="M31.7,121.443c0,1.745-0.439,3.107-1.318,4.087S28.289,127,26.739,127c-0.957,0-1.807-0.225-2.549-0.674
			s-1.315-1.094-1.719-1.934s-0.605-1.823-0.605-2.949c0-1.745,0.436-3.104,1.309-4.077s2.083-1.46,3.633-1.46
			c1.498,0,2.687,0.498,3.569,1.494S31.7,119.744,31.7,121.443z M23.546,121.443c0,1.367,0.273,2.409,0.82,3.125
			s1.351,1.074,2.412,1.074s1.867-0.356,2.417-1.069s0.825-1.756,0.825-3.13c0-1.361-0.275-2.394-0.825-3.101
			s-1.362-1.06-2.437-1.06c-1.061,0-1.862,0.348-2.402,1.045S23.546,120.063,23.546,121.443z"/>
		<path fill="#4F4E51" d="M36.065,116.102v6.943c0,0.873,0.199,1.523,0.596,1.953s1.019,0.645,1.865,0.645
			c1.12,0,1.938-0.306,2.456-0.918s0.776-1.611,0.776-2.998v-5.625h1.621v10.703h-1.338l-0.234-1.436H41.72
			c-0.332,0.527-0.792,0.931-1.382,1.211S39.077,127,38.321,127c-1.302,0-2.277-0.309-2.925-0.928s-0.972-1.608-0.972-2.969v-7.002
			H36.065z"/>
		<path fill="#4F4E51" d="M54.142,126.805v-6.924c0-0.873-0.199-1.523-0.596-1.953s-1.019-0.645-1.865-0.645
			c-1.12,0-1.94,0.303-2.461,0.908s-0.781,1.605-0.781,2.998v5.615h-1.621v-10.703h1.318l0.264,1.465h0.078
			c0.332-0.527,0.797-0.936,1.396-1.226s1.266-0.435,2.002-0.435c1.289,0,2.259,0.311,2.91,0.933s0.977,1.616,0.977,2.983v6.982
			H54.142z"/>
		<path fill="#4F4E51" d="M66.378,125.369H66.29c-0.749,1.087-1.869,1.631-3.359,1.631c-1.4,0-2.489-0.479-3.267-1.436
			s-1.167-2.318-1.167-4.082s0.391-3.135,1.172-4.111s1.869-1.465,3.262-1.465c1.452,0,2.565,0.527,3.34,1.582h0.127l-0.068-0.771
			l-0.039-0.752v-4.355h1.621v15.195h-1.318L66.378,125.369z M63.136,125.643c1.107,0,1.909-0.301,2.407-0.903
			s0.747-1.574,0.747-2.915v-0.342c0-1.517-0.252-2.599-0.757-3.247s-1.31-0.972-2.417-0.972c-0.951,0-1.678,0.37-2.183,1.108
			s-0.757,1.782-0.757,3.13c0,1.367,0.25,2.399,0.752,3.096S62.166,125.643,63.136,125.643z"/>
		<path fill="#4F4E51" d="M77.931,126.805l-0.322-1.523H77.53c-0.534,0.67-1.066,1.125-1.597,1.362S74.741,127,73.946,127
			c-1.061,0-1.893-0.273-2.495-0.82s-0.903-1.325-0.903-2.334c0-2.162,1.729-3.294,5.186-3.398l1.816-0.059v-0.664
			c0-0.84-0.181-1.46-0.542-1.86s-0.939-0.601-1.733-0.601c-0.892,0-1.901,0.273-3.027,0.82l-0.498-1.24
			c0.527-0.287,1.105-0.511,1.733-0.674s1.258-0.244,1.89-0.244c1.276,0,2.222,0.283,2.837,0.85s0.923,1.475,0.923,2.725v7.305
			H77.931z M74.269,125.662c1.009,0,1.802-0.277,2.378-0.83s0.864-1.328,0.864-2.324v-0.967l-1.621,0.068
			c-1.289,0.045-2.218,0.246-2.788,0.601s-0.854,0.907-0.854,1.655c0,0.586,0.177,1.032,0.532,1.338S73.63,125.662,74.269,125.662z"
			/>
		<path fill="#4F4E51" d="M85.929,125.662c0.287,0,0.563-0.021,0.83-0.063s0.479-0.086,0.635-0.132v1.24
			c-0.176,0.084-0.435,0.155-0.776,0.21S85.968,127,85.694,127c-2.07,0-3.105-1.09-3.105-3.271v-6.367h-1.533v-0.781l1.533-0.674
			l0.684-2.285h0.938v2.48h3.105v1.26H84.21v6.299c0,0.645,0.153,1.139,0.459,1.484S85.395,125.662,85.929,125.662z"/>
		<path fill="#4F4E51" d="M89.396,113.201c0-0.371,0.091-0.643,0.273-0.815s0.41-0.259,0.684-0.259c0.26,0,0.485,0.088,0.674,0.264
			s0.283,0.446,0.283,0.811s-0.094,0.636-0.283,0.815s-0.414,0.269-0.674,0.269c-0.273,0-0.501-0.089-0.684-0.269
			S89.396,113.566,89.396,113.201z M91.153,126.805h-1.621v-10.703h1.621V126.805z"/>
		<path fill="#4F4E51" d="M103.829,121.443c0,1.745-0.439,3.107-1.318,4.087s-2.093,1.47-3.643,1.47
			c-0.957,0-1.807-0.225-2.549-0.674s-1.315-1.094-1.719-1.934s-0.605-1.823-0.605-2.949c0-1.745,0.436-3.104,1.309-4.077
			s2.083-1.46,3.633-1.46c1.498,0,2.687,0.498,3.569,1.494S103.829,119.744,103.829,121.443z M95.675,121.443
			c0,1.367,0.273,2.409,0.82,3.125s1.351,1.074,2.412,1.074s1.867-0.356,2.417-1.069s0.825-1.756,0.825-3.13
			c0-1.361-0.275-2.394-0.825-3.101s-1.362-1.06-2.437-1.06c-1.061,0-1.862,0.348-2.402,1.045S95.675,120.063,95.675,121.443z"/>
		<path fill="#4F4E51" d="M113.995,126.805v-6.924c0-0.873-0.199-1.523-0.596-1.953s-1.019-0.645-1.865-0.645
			c-1.12,0-1.94,0.303-2.461,0.908s-0.781,1.605-0.781,2.998v5.615h-1.621v-10.703h1.318l0.264,1.465h0.078
			c0.332-0.527,0.797-0.936,1.396-1.226s1.266-0.435,2.002-0.435c1.289,0,2.259,0.311,2.91,0.933s0.977,1.616,0.977,2.983v6.982
			H113.995z"/>
</svg>
