<svg version="1.1" xmlns="http://www.w3.org/2000/svg" xmlns:xlink="http://www.w3.org/1999/xlink" viewBox="0 0 128 128">
	<path fill-rule="evenodd" clip-rule="evenodd" fill="#D3EDF6" d="M23.025,122.111c0.023,0.349-0.141,0.419-0.402,0.233
		c-0.554-0.395-1.175-0.736-1.623-1.23c-2.246-2.481-3.872-5.313-4.642-8.597c-0.313-1.338-0.335-2.679-0.236-4.062
		c0.191-2.651,0-5.295-0.714-7.877c-0.047-0.172-0.154-0.328-0.342-0.714c-0.506,0.618-0.934,1.138-1.36,1.659
		c-0.055-0.033-0.109-0.066-0.164-0.099c0.041-3.821-0.09-7.631-0.773-11.445c-0.501,1.186-1.003,2.372-1.505,3.558
		c-0.083-0.015-0.167-0.029-0.25-0.044c-0.111-0.569-0.235-1.136-0.332-1.707c-0.567-3.348-0.662-6.733-0.475-10.102
		c0.29-5.21,1.15-10.322,3.577-15.037c0.683-1.326,1.509-2.563,2.609-3.694c-0.562,0.169-1.132,0.315-1.684,0.514
		c-0.579,0.208-1.14,0.467-1.832,0.755c0.723-1.9,1.684-3.566,2.933-5.048c1.233-1.463,2.55-2.856,3.88-4.335
		c-0.977-0.365-2.032-0.76-3.087-1.154c-0.072-0.068-0.145-0.136-0.218-0.205c0.214-0.112,0.448-0.198,0.638-0.342
		c3.014-2.285,6.463-3.586,10.091-4.492c1.153-0.287,0.951-0.073,1.032-1.279c0.131-1.952,0.344-3.898,0.523-5.847
		c0.059-0.005,0.119-0.01,0.178-0.015c0.882,1.68,1.765,3.36,2.647,5.041c-0.288-7.73,0.268-15.343,2.403-22.787
		c0.06-0.001,0.121-0.001,0.181-0.002c0.014,0.249,0.046,0.498,0.037,0.746c-0.063,1.632,0.096,3.225,0.75,4.745
		c0.454,1.056,1.116,1.923,2.197,2.582c0.453-4.562,1.672-8.88,3.108-13.274c0.722,0.813,1.388,1.565,2.152,2.427
		c0.326-3.052,1.016-5.91,2.07-8.766c1.03,1.313,1.997,2.544,3.064,3.904c0.618-2.926,1.211-5.728,1.817-8.597
		c0.446,0.979,0.868,1.904,1.29,2.83c-0.09,4.495,2.107,7.938,5.188,11.07c-1.172,0.592-2.271,1.147-3.409,1.722
		c3.574-0.291,6.144-1.523,7.975-3.805c0.541-0.847,1.167-1.652,1.603-2.55c0.655-1.346,0.605-1.383-0.625-2.208
		c-3.29-2.204-5.52-5.195-6.699-8.972c1.407-1.806,3.359-2.748,5.394-3.466c0.084,1.306,0.167,2.595,0.26,4.037
		c0.545-0.289,0.936-0.488,1.32-0.7c3.378-1.86,6.975-3.112,10.753-3.853c0.727-0.142,1.461-0.242,2.194-0.349
		c0.083-0.012,0.18,0.061,0.27,0.094c-1.177,0.939-2.355,1.877-3.532,2.816c-1.291,1.029-2.317,2.29-3.208,3.668
		c-0.042,0.042-0.083,0.084-0.125,0.125c0,0.041-0.001,0.083-0.002,0.124c-0.127,0.132-0.293,0.243-0.376,0.398
		c-0.673,1.257-1.367,2.504-1.978,3.792c-0.356,0.75-0.57,1.567-0.86,2.389c1.966,0.187,3.822,0.364,5.678,0.541
		c0.033,0.072,0.066,0.145,0.1,0.217c-4.079,3.673-8.165,7.339-11.957,11.466c1.415,0.193,2.668,0.365,4.061,0.556
		c-1.151,0.471-2.188,0.829-3.164,1.308c-2.843,1.395-5.502,3.037-7.424,5.661c-1.488,2.032-3.035,4.021-4.556,6.028
		c-1.188-1.19-2.375-2.381-3.57-3.581c-0.318,1.451-0.611,2.79-0.912,4.163c0.814,0.733,1.675,1.507,2.535,2.281
		c-0.134,0.257-0.276,0.51-0.401,0.771c-0.792,1.663-1.651,3.298-2.35,4.999c-0.727,1.772-0.891,3.682-1.027,5.583
		c-0.156,2.183-0.399,4.362-0.468,6.547c-0.083,2.647-0.098,5.302,0.349,7.933c0.393,2.316,0.694,4.65,1.155,6.952
		c0.285,1.421,0.792,2.797,1.201,4.193c0.057-0.011,0.114-0.022,0.171-0.034c0.564-1.131,1.127-2.262,1.691-3.393
		c0.056,0.014,0.113,0.029,0.169,0.043c0.61,2.926,1.479,5.772,2.724,8.487c1.239,2.702,2.666,5.294,4.913,7.391
		c0-1.191,0-2.383,0-3.58c0.131,0,0.202-0.021,0.25,0.003c0.459,0.239,0.92,0.476,1.37,0.732c3.157,1.8,6.424,3.375,9.798,4.724
		c4.083,1.632,8.148,3.305,12.026,5.389c1.201,0.645,2.409,1.333,3.458,2.191c2.381,1.95,4.666,4.019,6.99,6.04
		c-0.064,0.151-0.12,0.308-0.193,0.455c-0.761,1.522-1.535,3.037-2.285,4.565c-0.662,1.349-1.298,2.71-1.946,4.066
		c-0.056-0.008-0.112-0.017-0.168-0.026c0-1.566,0-3.133,0-4.699c-0.267,0.603-0.373,1.213-0.535,1.808
		c-0.657,2.416-1.32,4.831-2.004,7.238c-0.207,0.726-0.727,1.144-1.441,1.428c-0.836,0.332-1.616,0.226-2.418-0.027l0.007,0.004
		c-0.078-0.036-0.155-0.072-0.232-0.107c-1.218-0.907-2.435-1.816-3.656-2.72c-0.312-0.23-0.64-0.439-0.948-0.649
		c0.149,1.514,0.295,3.005,0.442,4.497c-0.078,0.04-0.156,0.081-0.235,0.121c-4.982-4.061-11.074-6.074-16.596-9.138
		c-1.795-1.143-3.595-2.277-5.382-3.434c-0.477-0.309-0.911-0.682-1.471-1.106c0.102,0.824,0.188,1.519,0.274,2.213
		c-0.05,0.035-0.1,0.07-0.15,0.105c-1.701-1.167-3.402-2.335-5.103-3.503c0.089-0.695,0.222-1.388,0.259-2.085
		c0.066-1.273,0.224-2.566,0.079-3.82c-0.351-3.029-1.925-5.353-4.438-7.075c-1.021-0.7-2.007-1.461-2.946-2.269
		c-0.517-0.444-0.917-1.034-1.032-1.672c0.991,0.089,1.947,0.174,2.932,0.263c-0.872-1.626-1.74-3.065-2.429-4.585
		c-0.69-1.525-1.348-3.095-1.263-5.023c0.513,0.697,0.846,1.345,1.609,1.654c-0.261-2.57,0.114-5.003,0.533-7.417
		c0.417-2.411,0.997-4.794,1.506-7.19c-1.777,3.112-3.59,6.199-4.135,9.956c-0.474-0.498-0.947-0.997-1.467-1.544
		c-0.064,0.932-0.187,1.774-0.168,2.614c0.042,1.882,0.113,3.766,0.246,5.644c0.151,2.142,0.736,4.183,1.582,6.158
		c0.964,2.255,2.616,4.009,4.146,5.858c0.973,1.174,1.806,2.447,2.027,3.993c0.239,1.673,0.396,3.357,0.589,5.037
		c0.129,1.892,0.258,3.783,0.388,5.684c-1.113,0.229-4.221-0.522-4.873-1.23c0.198-0.105,0.387-0.206,0.523-0.279
		c-0.559-0.483-1.177-0.904-1.647-1.452c-0.714-0.831-0.854-1.904-1.021-2.954c-0.043-0.27-0.262-0.511-0.399-0.765
		c-0.26,0.236-0.602,0.429-0.754,0.721c-0.128,0.245-0.097,0.62-0.027,0.911c0.129,0.541,0.294,1.083,0.519,1.59
		c0.679,1.536,1.415,3.046,2.087,4.584c0.826,1.887,1.505,3.818,1.459,5.922c-0.014,0.617-0.14,0.733-0.708,0.506
		c-0.767-0.307-1.516-0.665-2.252-1.041c-0.578-0.296-1.124-0.653-1.755-1.024c0,0.298,0,0.48,0,0.663
		c-0.017,0.015-0.034,0.029-0.051,0.043c-0.18-0.091-0.385-0.152-0.538-0.277c-0.65-0.531-1.285-1.082-1.925-1.625l0.004,0.005
		c-0.043-0.087-0.086-0.174-0.13-0.26c-0.361-0.898-0.723-1.797-1.147-2.854c-0.065,0.266-0.077,0.346-0.104,0.42
		c-0.034,0.09-0.082,0.175-0.185,0.39c-0.862-1.58-1.316-3.162-1.549-4.826c-0.419,1.423,0.029,2.781,0.217,4.238
		c0.182-0.197,0.294-0.319,0.378-0.41c0.327,0.659,0.609,1.298,0.953,1.903c0.347,0.61,0.73,1.202,1.142,1.77
		c0.208,0.289,0.513,0.508,0.773,0.758c0.605,1.524,1.229,3.043,1.534,4.827c-1.188-0.353-2.234-0.662-3.279-0.972
		c-1.322-0.592-2.674-1.131-3.737-2.171c-0.052-0.05-0.153-0.049-0.231-0.072c-0.016-0.054-0.032-0.108-0.048-0.163
		c-0.016,0.011-0.031,0.021-0.047,0.032c0.031,0.044,0.062,0.088,0.093,0.133c0.363,0.757,0.727,1.515,1.09,2.272
		c-0.026,0.053-0.052,0.106-0.078,0.16c-0.567-0.198-1.134-0.399-1.703-0.594C23.73,122.334,23.377,122.225,23.025,122.111
		c-0.017-0.01-0.035-0.019-0.053-0.029C22.99,122.092,23.007,122.102,23.025,122.111z M24.359,120.056
		c-0.433-1.045-0.856-2.064-1.282-3.093c-0.105,0.072-0.224,0.152-0.421,0.287c-0.304-1.422-0.59-2.762-0.861-4.031
		C20.97,114.798,22.59,119.302,24.359,120.056z M38.46,69.748c-0.005-0.018-0.007-0.039-0.018-0.053
		c-0.003-0.004-0.029,0.007-0.045,0.012c0.005,0.018,0.007,0.039,0.018,0.053C38.418,69.764,38.444,69.752,38.46,69.748z"/>
	<path fill-rule="evenodd" clip-rule="evenodd" fill="#E9F5FA" d="M87.519,108.3c-2.324-2.021-4.609-4.089-6.99-6.04
		c-1.049-0.858-2.257-1.546-3.458-2.191c-3.877-2.083-7.943-3.756-12.026-5.389c-3.374-1.349-6.641-2.924-9.798-4.724
		c-0.45-0.256-0.911-0.493-1.37-0.732c-0.047-0.024-0.118-0.003-0.25-0.003c0,1.197,0,2.389,0,3.58
		c-2.247-2.096-3.673-4.689-4.913-7.391c-1.245-2.714-2.114-5.561-2.724-8.487c-0.057-0.014-0.113-0.029-0.169-0.043
		c-0.564,1.131-1.127,2.262-1.691,3.393c-0.057,0.011-0.114,0.022-0.171,0.034c-0.408-1.396-0.916-2.772-1.201-4.193
		c-0.461-2.302-0.762-4.636-1.155-6.952c-0.446-2.631-0.431-5.286-0.349-7.933c0.068-2.185,0.312-4.365,0.468-6.547
		c0.136-1.9,0.3-3.81,1.027-5.583c0.698-1.701,1.558-3.336,2.35-4.999c0.125-0.262,0.267-0.514,0.401-0.771
		c0.084,0.061,0.171,0.118,0.25,0.184c1.585,1.305,3.186,2.591,4.74,3.933c0.296,0.255,0.518,0.708,0.58,1.102
		c0.12,0.754,0.11,1.531,0.136,2.299c0.043,1.288,0.377,1.834,1.592,2.223c4.15,1.326,8.375,2.076,12.757,1.565
		c1.22-0.143,2.242-0.604,2.952-1.629c0.626-0.904,1.239-1.817,1.825-2.747c0.671-1.064,0.853-1.136,2.083-0.95
		c0.554,0.084,0.734,0.341,0.721,0.858c-0.02,0.788-0.004,1.577-0.013,2.365c-0.019,1.754,0.944,2.758,2.552,3.129
		c1.37,0.315,2.769,0.547,4.168,0.679c1.772,0.166,3.567,0.326,5.297-0.331c-0.423,1.095-0.842,2.191-1.27,3.285
		c-0.188,0.481-0.36,0.973-0.601,1.428c-0.352,0.664-0.467,1.259,0.247,1.758c0.043,0.046,0.086,0.092,0.129,0.138l-0.001-0.003
		c0.113,0.216,0.232,0.431,0.34,0.651c0.802,1.633,1.694,3.23,2.382,4.91c1.084,2.65,1.468,5.459,1.543,8.312
		c0.123,3.35-0.517,6.563-1.781,9.653c-0.368,0.897-0.694,1.885-1.312,2.595c-2.782,3.204-6.32,4.659-10.584,4.22
		c-0.41-0.042-0.819-0.095-1.229-0.143c0.079,0.165,0.181,0.227,0.283,0.287c2.869,1.669,5.737,3.339,8.609,5.003
		c0.155,0.09,0.336,0.134,0.504,0.2c0.536,0.471,1.076,0.937,1.608,1.413c0.849,0.758,1.691,1.523,2.539,2.283
		c0.059,0.053,0.131,0.092,0.195,0.136c0.86-0.741,1.686-1.489,2.549-2.189c2.553-2.073,5.361-3.718,8.36-5.074
		c2.189-0.989,4.3-2.154,6.446-3.24c0.125-0.063,0.254-0.122,0.562-0.104c-0.255,0.976-0.51,1.952-0.767,2.929
		c-0.052,0.198-0.111,0.394-0.167,0.59l-0.052,0.028l0.023,0.023l0.028-0.052c0.995-0.472,2.019-0.891,2.975-1.431
		c0.794-0.449,1.507-1.039,2.257-1.565c-0.142,0.32-0.258,0.655-0.432,0.957c-1.296,2.256-3.028,4.155-4.915,5.921
		c-0.537,0.502-1.116,0.959-1.748,1.499c0.055-0.978,0.104-1.828,0.162-2.853c-2.766,2.301-5.083,4.773-7.326,7.321
		c-0.056-0.018-0.112-0.036-0.168-0.054c-0.075-1.075-0.149-2.149-0.232-3.345C91.857,103.692,89.447,105.752,87.519,108.3z
		 M54.668,57.42c0.036,0.344,0.042,0.59,0.09,0.828c0.34,1.718,1.318,3.035,2.666,4.083c2.78,2.164,6.034,3.194,9.443,3.764
		c3.072,0.514,6.177,0.299,9.271,0.218c0.139-0.003,0.276-0.048,0.542-0.098c-0.256-0.536-0.48-1.013-0.71-1.487
		c-0.353-0.725-0.725-1.441-1.061-2.174c-0.244-0.532-0.079-0.9,0.427-1.25c1.064-0.736,2.073-1.556,3.146-2.373
		c-0.813-0.668-1.693-0.967-2.596-1.037c-2.647-0.204-5.3-0.41-7.954-0.454C63.55,57.367,59.166,57.42,54.668,57.42z M68.611,75.482
		c0.082-0.016,0.163-0.033,0.245-0.049c0.356-0.718,0.759-1.417,1.056-2.159c0.364-0.912,0.707-1.781,1.732-2.178
		c0.556-0.215,1.061-0.562,1.588-0.849c-0.017-0.065-0.034-0.131-0.051-0.196c-4.601,0.285-9.108-0.217-13.641-1.682
		c0.121,1.944,0.614,3.59,1.426,5.246c0.604-0.673,1.154-1.285,1.749-1.948c0.55,1.486,0.919,2.933,2.036,4.186
		c0.769-1.135,1.458-2.153,2.139-3.159C67.46,73.619,68.035,74.55,68.611,75.482z M72.718,92.754
		c-0.004-0.013-0.004-0.032-0.012-0.037c-0.015-0.008-0.035-0.008-0.053-0.011c0.005,0.021,0.01,0.042,0.015,0.063
		C72.684,92.764,72.701,92.759,72.718,92.754z"/>
	<path fill-rule="evenodd" clip-rule="evenodd" fill="#E9F5FA" d="M47.448,40.465c1.521-2.008,3.067-3.997,4.556-6.028
		c1.922-2.624,4.581-4.266,7.424-5.661c0.976-0.479,2.012-0.837,3.164-1.308c-1.393-0.191-2.646-0.362-4.061-0.556
		c3.792-4.127,7.878-7.793,11.957-11.466c-0.033-0.073-0.066-0.145-0.1-0.217c-1.855-0.177-3.711-0.354-5.678-0.541
		c0.291-0.821,0.504-1.639,0.86-2.389c0.611-1.287,1.305-2.535,1.978-3.792c0.083-0.155,0.249-0.267,0.376-0.398
		c0.21,0.083,0.414,0.197,0.632,0.244c3.081,0.667,6.164,1.321,9.244,1.989c0.84,0.182,0.853,0.187,0.853-0.713
		c0-1.545,0-3.09,0-4.635c1.014-0.278,2.018-0.606,3.045-0.824c2.378-0.504,4.762-0.985,7.155-1.414
		c1.193-0.213,2.41-0.288,3.716-0.438c-0.88,1.52-1.705,2.944-2.53,4.368c0.047,0.034,0.095,0.067,0.142,0.101
		c1.076-0.317,2.139-0.694,3.231-0.934c1.099-0.243,2.227-0.349,3.448-0.531c0,0.642,0,1.188,0,1.776
		c2.999-0.373,5.888-0.31,8.855,0.253c-0.193,0.392-0.352,0.699-0.497,1.013c-0.506,1.09-1.004,2.185-1.513,3.272
		c-0.217,0.464-0.108,0.719,0.406,0.867c1.21,0.349,2.41,0.738,3.612,1.117c0.234,0.074,0.46,0.173,0.784,0.296
		c-0.52,0.634-1.019,1.2-1.471,1.801c-1.281,1.698-2.544,3.41-3.808,5.121c-0.07,0.095-0.086,0.229-0.128,0.346
		c-0.85,1.324-1.699,2.648-2.549,3.972c-0.778,1.322-1.559,2.643-2.327,3.971c-0.056,0.097-0.017,0.248-0.021,0.375
		c-0.381,0.555-0.819,1.08-1.134,1.67c-1.481,2.782-2.974,5.561-4.375,8.383c-1.373,2.767-2.643,5.584-3.951,8.382
		c-0.078,0.166-0.098,0.357-0.145,0.537c-2.106-0.431-4.212-0.862-6.319-1.292c-0.691-0.944-1.718-1.029-2.502-0.207
		c-1.761,0.056-3.522,0.143-5.284,0.156c-0.904,0.007-1.833-0.008-2.71-0.202c-2.71-0.598-5.4-1.287-8.099-1.94
		c-0.445-1.08-1.992-1.246-2.751-0.563c-0.062-0.001-0.125,0.004-0.186-0.006c-3.344-0.569-6.701-0.962-10.104-0.825
		c-0.158,0.006-0.364-0.097-0.478-0.216C49.251,42.416,48.352,41.438,47.448,40.465z M58.947,42.411
		c0.111-0.047,0.227-0.088,0.333-0.144c1.438-0.753,2.93-1.206,4.577-0.872c0.319,0.065,0.649,0.082,1.033,0.128
		c-0.967-1.475-3.403-1.606-4.754-0.729C59.547,41.176,58.98,41.605,58.947,42.411c-0.01,0.017-0.02,0.035-0.029,0.052
		C58.927,42.445,58.937,42.428,58.947,42.411z M65.142,39.102c-0.58-1.39-2.409-2.078-4.047-1.627
		c-1.374,0.377-2.669,1.849-2.525,2.995C60.404,38.398,62.621,38.212,65.142,39.102z M83.211,41.754
		c1.787,0.167,3.337,0.756,4.444,2.326c0.08-1.298-0.425-2.06-1.476-2.635C85.195,40.906,83.999,41.056,83.211,41.754z
		 M86.362,46.742c-0.151-1.446-0.603-2.614-2.042-3.026c-0.74-0.212-1.489-0.091-2.117,0.507
		C84.087,44.741,84.753,44.8,86.362,46.742z"/>
	<path fill-rule="evenodd" clip-rule="evenodd" fill="#B3E0EE" d="M87.909,76.486c-0.076-2.853-0.459-5.662-1.543-8.312
		c-0.688-1.68-1.58-3.277-2.382-4.91c-0.108-0.22-0.227-0.435-0.34-0.651c0.611,0.184,1.218,0.382,1.834,0.547
		c0.897,0.241,1.792,0.519,2.707,0.659c0.488,0.075,1.017-0.101,1.525-0.178c0.196-0.03,0.386-0.099,0.69-0.179
		c-0.086,0.426-0.152,0.753-0.247,1.223c2.042-0.949,3.52-2.408,4.715-4.116c1.19-1.702,2.208-3.524,3.28-5.262
		c0.115,0.194,0.29,0.487,0.479,0.807c0.863-1.35,0.268-5.337-1.156-7.71c0.362,0,0.661-0.021,0.956,0.003
		c1.873,0.152,3.783,0.134,5.477,1.138c1.343,0.795,2.302,1.923,2.945,3.412c-0.487-0.027-0.9-0.05-1.434-0.08
		c1.429,2.313,1.979,4.708,1.755,7.449c-0.405-0.322-0.727-0.578-1.105-0.878c-0.053,0.262-0.091,0.532-0.164,0.792
		c-0.221,0.777-0.464,1.547-0.678,2.326c-0.057,0.208-0.04,0.435-0.057,0.653c0.232,0.006,0.488,0.08,0.693,0.007
		c1.171-0.416,2.329-0.868,3.492-1.305c0.485-0.182,0.979-0.342,1.458-0.539c0.506-0.208,0.694-0.028,0.659,0.482
		c-1.317,0.459-2.636,0.916-3.951,1.381c-0.168,0.06-0.322,0.163-0.482,0.246c1.666-0.185,2.327-0.097,3.179,0.498
		c0.62,0.433,0.71,0.972,0.159,1.499c-0.428,0.409-0.941,0.733-1.437,1.063c-0.297,0.199-0.634,0.338-1.046,0.553
		c0.25,0.095,0.371,0.141,0.572,0.217c-0.908,0.596-1.782,1.11-2.587,1.715c-1.001,0.753-2.006,1.521-2.894,2.398
		c-0.708,0.699-0.492,1.187,0.499,1.267c1.215,0.098,2.438,0.102,3.657,0.144c0.215,0.007,0.431,0.001,0.783,0.001
		c-0.26,0.335-0.418,0.542-0.578,0.747c-0.01,0.016-0.019,0.032-0.029,0.048c0.008-0.017,0.017-0.034,0.025-0.051
		c0.457,0,0.92,0.044,1.368-0.018c0.282-0.04,0.678-0.173,0.784-0.384c0.229-0.458,0.599-0.515,1.003-0.591
		c0.79-0.149,1.584-0.281,2.368-0.458c0.627-0.142,1.243-0.34,1.863-0.513c0.031,0.043,0.061,0.087,0.092,0.13
		c-0.439,0.41-0.879,0.819-1.388,1.293c-0.083-0.304-0.132-0.484-0.208-0.762c-2.202,1.012-4.377,1.929-6.469,3.008
		c-1.009,0.521-1.86,1.347-2.783,2.036c-0.017,0.019-0.034,0.038-0.051,0.058c0.02-0.017,0.039-0.034,0.058-0.05
		c0.136,0.009,0.271,0.019,0.591,0.042c-0.807,0.681-1.494,1.26-2.313,1.951c0.369,0.321,0.665,0.743,1.062,0.887
		c0.747,0.272,1.545,0.483,2.335,0.54c1.191,0.085,2.393,0.016,3.59,0.012c0.01-0.087,0.021-0.175,0.031-0.262
		c-0.31-0.127-0.619-0.254-0.937-0.385c1.595-0.192,3.185-0.383,4.774-0.575c-3.257,2.004-7.016,1.793-10.617,2.397
		c0.006,0.974,0.822,1.433,1.344,2.102c-0.126,0.104-0.237,0.197-0.389,0.322c0.405,0.34,0.768,0.644,1.13,0.948
		c0.215,0.338,0.017,0.362-0.262,0.376c-2.078,0.104-4.089-0.248-6.017-0.99c-1.175-0.452-2.298-1.039-3.447-1.559
		c-0.108-0.049-0.237-0.052-0.357-0.077c-0.006-0.016-0.008-0.033-0.018-0.046c-0.006-0.008-0.023-0.007-0.036-0.01
		c0.017,0.02,0.034,0.039,0.051,0.059c0.167,0.374,0.333,0.748,0.5,1.122l0,0c-0.662-0.125-1.32-0.316-1.987-0.361
		c-1.547-0.104-3.011,0.324-4.451,0.839c-0.173,0.062-0.352,0.106-0.528,0.159c0.042-0.533,0.117-1.067,0.118-1.601
		c0.005-2.167-0.01-4.333-0.03-6.5C88.113,76.649,87.98,76.567,87.909,76.486z"/>
	<path fill-rule="evenodd" clip-rule="evenodd" fill="#65C1DD" d="M87.519,108.3c1.928-2.547,4.338-4.608,6.776-6.804
		c0.083,1.196,0.158,2.271,0.232,3.345c0.056,0.018,0.112,0.036,0.168,0.054c2.243-2.547,4.56-5.02,7.326-7.321
		c-0.058,1.024-0.106,1.875-0.162,2.853c0.632-0.54,1.211-0.997,1.748-1.499c1.887-1.766,3.619-3.665,4.915-5.921
		c0.173-0.302,0.29-0.637,0.432-0.957c0.041-0.014,0.081-0.016,0.123-0.006l0.019,0.016c-0.417,1.361-0.79,2.737-1.261,4.079
		c-1.032,2.936-2.985,5.333-4.663,7.897c-1.688,2.581-3.234,5.255-4.832,7.895c-0.124,0.205-0.161,0.462-0.238,0.695
		c-0.016,0.024-0.033,0.048-0.049,0.072c0.022-0.019,0.044-0.037,0.066-0.055c0.733-0.379,1.464-0.762,2.199-1.137
		c0.677-0.346,1.359-0.684,2.148-0.92c-0.167,0.315-0.337,0.628-0.501,0.945c-1.75,3.371-3.481,6.752-5.258,10.109
		c-0.708,1.338-1.496,2.635-2.296,3.92c-0.138,0.223-0.521,0.414-0.792,0.415c-3.553,0.021-7.106-0.056-10.657,0.02
		c-2.57,0.054-4.521-1.152-6.351-2.725c-0.042-0.036-0.057-0.105-0.085-0.159c0.803,0.253,1.583,0.359,2.418,0.027
		c0.714-0.284,1.234-0.702,1.441-1.428c0.684-2.408,1.348-4.822,2.004-7.238c0.162-0.595,0.268-1.206,0.535-1.808
		c0,1.566,0,3.133,0,4.699c0.056,0.009,0.112,0.018,0.168,0.026c0.648-1.356,1.284-2.718,1.946-4.066
		c0.75-1.528,1.524-3.043,2.285-4.565C87.399,108.607,87.455,108.451,87.519,108.3z"/>
	<path fill-rule="evenodd" clip-rule="evenodd" fill="#65C2DD" d="M43.479,109.392c1.701,1.168,3.402,2.335,5.103,3.503
		c0.05-0.035,0.1-0.07,0.15-0.105c-0.086-0.694-0.172-1.389-0.274-2.213c0.56,0.424,0.994,0.797,1.471,1.106
		c1.787,1.156,3.587,2.291,5.382,3.434c-1.311,0.357-2.621,0.714-3.814,1.039c4.449,1.905,8.463,4.59,10.392,9.673
		c-1.311,0.087-2.506,0.19-3.703,0.243c-2.573,0.112-5.146,0.218-7.72,0.29c-3.717,0.104-7.435,0.174-11.152,0.262
		c-1.08,0.025-2.16,0.047-3.238,0.09c-1.718,0.068-3.065-0.593-4.05-2.001c-0.116-0.167-0.254-0.318-0.417-0.521
		c-0.393,0.273-0.763,0.53-1.19,0.826c-0.705-0.6-1.309-1.283-1.676-2.161c1.045,0.31,2.09,0.619,3.279,0.972
		c-0.305-1.784-0.929-3.303-1.534-4.827c-0.117-0.378-0.234-0.756-0.352-1.134c0.64,0.543,1.275,1.093,1.925,1.625
		c0.153,0.125,0.357,0.187,0.538,0.277c0.029,0.045,0.058,0.092,0.086,0.137c-0.012-0.06-0.023-0.12-0.035-0.18
		c0-0.183,0-0.365,0-0.663c0.631,0.371,1.177,0.728,1.755,1.024c0.736,0.376,1.485,0.734,2.252,1.041
		c0.568,0.227,0.694,0.11,0.708-0.506c0.046-2.104-0.634-4.036-1.459-5.922c-0.673-1.539-1.409-3.048-2.087-4.584
		c-0.225-0.508-0.39-1.049-0.519-1.59c-0.069-0.292-0.101-0.666,0.027-0.911c0.152-0.292,0.494-0.484,0.754-0.721
		c0.138,0.254,0.356,0.496,0.399,0.765c0.167,1.05,0.307,2.123,1.021,2.954c0.47,0.547,1.088,0.968,1.647,1.452
		c-0.137,0.073-0.326,0.173-0.523,0.279c0.652,0.708,3.76,1.459,4.873,1.23c-0.13-1.901-0.259-3.792-0.388-5.684
		c0.125,0.064,0.257,0.118,0.374,0.193C42.149,108.516,42.813,108.955,43.479,109.392z"/>
	<path fill-rule="evenodd" clip-rule="evenodd" fill="#EBF7FE" d="M104.579,85.318c-0.362-0.304-0.725-0.608-1.13-0.948
		c0.151-0.125,0.262-0.218,0.389-0.322c-0.521-0.669-1.337-1.128-1.344-2.102c3.602-0.604,7.36-0.393,10.617-2.397
		c-1.589,0.191-3.179,0.383-4.774,0.575c0.317,0.13,0.627,0.257,0.937,0.385c-0.01,0.087-0.021,0.175-0.031,0.262
		c-1.197,0.004-2.399,0.073-3.59-0.012c-0.79-0.057-1.588-0.268-2.335-0.54c-0.397-0.145-0.692-0.566-1.062-0.887
		c0.819-0.691,1.505-1.271,2.313-1.951c-0.319-0.023-0.455-0.033-0.591-0.042l-0.007-0.008c0.922-0.688,1.773-1.515,2.783-2.035
		c2.091-1.079,4.267-1.996,6.469-3.008c0.076,0.278,0.125,0.458,0.208,0.762c0.509-0.474,0.949-0.884,1.388-1.293
		c-0.031-0.043-0.061-0.087-0.092-0.13c-0.621,0.173-1.236,0.371-1.863,0.513c-0.784,0.177-1.578,0.309-2.368,0.458
		c-0.404,0.076-0.774,0.134-1.003,0.591c-0.106,0.211-0.501,0.344-0.784,0.384c-0.448,0.063-0.911,0.018-1.368,0.018l0.004,0.003
		c0.159-0.206,0.318-0.412,0.578-0.747c-0.352,0-0.568,0.006-0.783-0.001c-1.219-0.042-2.442-0.046-3.657-0.144
		c-0.99-0.08-1.206-0.567-0.499-1.267c0.888-0.878,1.892-1.646,2.894-2.398c0.805-0.605,1.679-1.119,2.587-1.715
		c-0.202-0.076-0.323-0.122-0.572-0.217c0.412-0.215,0.749-0.354,1.046-0.553c0.496-0.331,1.009-0.655,1.437-1.063
		c0.551-0.527,0.461-1.065-0.159-1.499c-0.852-0.595-1.513-0.682-3.179-0.498c0.161-0.083,0.314-0.186,0.482-0.246
		c1.315-0.465,2.634-0.922,3.951-1.381c1.076,0.043,2.163,0.002,3.223,0.151c1.458,0.205,2.234,1.34,3.035,2.396
		c-0.029,0.053-0.058,0.106-0.087,0.159c-0.448-0.144-0.896-0.289-1.466-0.472c0.87,1.486,1.651,2.882,1.705,4.601
		c-0.112-0.062-0.213-0.086-0.261-0.151c-0.061-0.082-0.08-0.195-0.154-0.394c-0.404,0.969-0.596,1.802-1.054,2.446
		c-0.772,1.088-0.74,2.034-0.164,3.21c0.412,0.841,0.429,1.876,0.622,2.825c-0.081,0.032-0.161,0.064-0.242,0.096
		c-0.165-0.203-0.33-0.406-0.618-0.76c-0.077,1.305-0.093,2.478-0.735,3.546c-0.104-0.24-0.19-0.438-0.281-0.645
		c-0.458,0.422-0.914,0.805-1.316,1.238c-0.11,0.118-0.111,0.397-0.074,0.585c0.21,1.089,0.571,2.167,0.161,3.319
		c-0.15-0.07-0.287-0.134-0.476-0.222c-0.667,1.463-1.871,2.206-3.364,2.371c-1.622,0.179-3.218-0.107-4.753-0.686
		C104.979,85.407,104.776,85.371,104.579,85.318z"/>
	<path fill-rule="evenodd" clip-rule="evenodd" fill="#515053" d="M82.28,47.181c2.106,0.431,4.213,0.861,6.319,1.292
		c0.177,0.058,0.353,0.116,0.53,0.174c0.433,0.141,0.593,0.445,0.463,0.869c-0.163,0.533-0.316,1.078-0.562,1.574
		c-0.133,0.27-0.414,0.534-0.69,0.65c-0.479,0.202-0.762,0.517-0.972,0.975c-0.292,0.638-0.587,1.286-0.978,1.866
		c-0.35,0.52-0.828,0.954-1.25,1.427c-1.73,0.657-3.525,0.497-5.297,0.331c-1.399-0.131-2.798-0.363-4.168-0.679
		c-1.607-0.371-2.571-1.375-2.552-3.129c0.009-0.788-0.007-1.577,0.013-2.365c0.013-0.517-0.167-0.774-0.721-0.858
		c-1.229-0.186-1.411-0.115-2.083,0.95c-0.586,0.93-1.199,1.843-1.825,2.747c-0.71,1.025-1.731,1.487-2.952,1.629
		c-4.381,0.51-8.606-0.24-12.757-1.565c-1.215-0.389-1.548-0.935-1.592-2.223c-0.026-0.768-0.016-1.544-0.136-2.299
		c-0.062-0.393-0.284-0.846-0.58-1.102c-1.554-1.342-3.155-2.628-4.74-3.933c-0.08-0.066-0.167-0.123-0.25-0.184
		c-0.86-0.774-1.72-1.548-2.535-2.281c0.301-1.373,0.594-2.712,0.912-4.163c1.195,1.199,2.382,2.39,3.57,3.581
		c0.904,0.973,1.803,1.951,2.719,2.913c0.114,0.119,0.319,0.223,0.478,0.216c3.402-0.137,6.76,0.255,10.104,0.825
		c0.061,0.01,0.124,0.004,0.186,0.006c0.917,0.188,1.834,0.376,2.751,0.563c2.698,0.653,5.389,1.342,8.099,1.94
		c0.876,0.194,1.806,0.209,2.71,0.202c1.761-0.013,3.522-0.1,5.284-0.156C80.612,47.043,81.446,47.112,82.28,47.181z M59.582,45.493
		c-1.841-0.106-3.682-0.248-5.525-0.301c-0.74-0.021-1.158,0.401-1.246,1.133c-0.155,1.297-0.282,2.601-0.364,3.905
		c-0.083,1.328,0.047,1.49,1.33,1.924c3.544,1.198,7.201,1.579,10.923,1.517c1.36-0.022,2.361-0.628,3.042-1.739
		c0.563-0.917,1.042-1.887,1.51-2.857c0.407-0.844,0.28-1.228-0.624-1.525c-1.375-0.453-2.787-0.795-4.183-1.185
		C62.825,46.074,61.204,45.784,59.582,45.493z M80.083,48.152c-0.006,0.045-0.013,0.09-0.02,0.136c-0.706,0-1.414-0.03-2.118,0.009
		c-0.619,0.034-1.237,0.124-1.849,0.228c-0.805,0.137-1.318,0.611-1.396,1.442c-0.083,0.865-0.153,1.736-0.151,2.604
		c0.003,1.512,0.279,1.846,1.731,2.196c2.071,0.498,4.175,0.696,6.302,0.595c0.514-0.024,1.026-0.14,1.535-0.237
		c0.674-0.129,1.158-0.487,1.435-1.147c0.496-1.185,1.056-2.343,1.541-3.531c0.404-0.99,0.305-1.249-0.734-1.421
		C84.275,48.68,82.176,48.437,80.083,48.152z"/>
	<path fill-rule="evenodd" clip-rule="evenodd" fill="#4F4E51" d="M60.322,19.341c-1.831,2.282-4.401,3.514-7.975,3.805
		c1.138-0.575,2.237-1.13,3.409-1.722c-3.081-3.131-5.278-6.575-5.188-11.07c0.156-2.759,1-5.28,2.602-7.539
		c0.154-0.217,0.348-0.406,0.522-0.608c0.019,0.044,0.052,0.06,0.098,0.046c0.002,0.081,0.005,0.162,0.007,0.243
		c-0.11,0.182-0.276,0.351-0.321,0.547c-0.626,2.735-0.617,5.459,0.278,8.138c0.97,2.903,2.8,5.184,5.2,7.04
		C59.421,18.583,59.867,18.968,60.322,19.341z"/>
	<path fill-rule="evenodd" clip-rule="evenodd" fill="#66C2DD" d="M87.909,76.486c0.072,0.082,0.205,0.163,0.205,0.245
		c0.021,2.166,0.035,4.333,0.03,6.5c-0.001,0.534-0.077,1.067-0.118,1.601c-0.458,1.886-0.819,3.801-1.397,5.649
		c-0.896,2.869-2.38,5.452-4.229,7.822c-0.168-0.065-0.35-0.109-0.504-0.2c-2.872-1.665-5.74-3.334-8.609-5.003
		c-0.102-0.06-0.204-0.123-0.283-0.287c0.41,0.048,0.818,0.101,1.229,0.143c4.264,0.439,7.802-1.017,10.584-4.22
		c0.617-0.71,0.944-1.698,1.312-2.595C87.392,83.049,88.032,79.836,87.909,76.486z"/>
	<path fill-rule="evenodd" clip-rule="evenodd" fill="#EBF7FD" d="M78.653,4.994c0,1.545,0,3.09,0,4.635
		c0,0.9-0.013,0.896-0.853,0.713c-3.08-0.668-6.163-1.322-9.244-1.989c-0.218-0.047-0.421-0.161-0.632-0.244
		c0-0.041,0.001-0.083,0.002-0.124c0.042-0.042,0.083-0.083,0.125-0.125c0.891-1.378,1.917-2.639,3.208-3.668
		c1.177-0.939,2.355-1.877,3.532-2.816C74.785,1.584,74.822,1.807,74.763,2c-0.274,0.881-0.576,1.755-0.925,2.805
		c1.712-0.638,3.202-1.422,4.816-1.692C78.653,3.807,78.653,4.4,78.653,4.994z"/>
	<path fill-rule="evenodd" clip-rule="evenodd" fill="#737F84" d="M60.322,19.341c-0.455-0.373-0.901-0.758-1.366-1.119
		c-2.399-1.855-4.23-4.137-5.2-7.04c-0.896-2.679-0.905-5.403-0.278-8.138c0.045-0.197,0.211-0.366,0.321-0.547
		c0.268,1.038,0.535,2.076,0.802,3.114c1.179,3.777,3.409,6.768,6.699,8.972c1.231,0.824,1.281,0.861,0.625,2.208
		C61.489,17.688,60.863,18.494,60.322,19.341z"/>
	<path fill-rule="evenodd" clip-rule="evenodd" fill="#4F4E51" d="M98.204,29.501c0.005-0.126-0.035-0.278,0.021-0.375
		c0.768-1.328,1.549-2.648,2.327-3.971c1.354-0.277,2.73-0.473,4.056-0.848c2.946-0.833,5.552-2.278,7.635-4.575
		c0.248-0.273,0.508-0.534,0.763-0.8c-1.058,3-2.641,5.677-4.941,7.893c-2.193,2.113-4.896,2.867-7.873,2.805
		C99.529,29.617,98.867,29.546,98.204,29.501z"/>
	<path fill-rule="evenodd" clip-rule="evenodd" fill="#737F84" d="M113.006,18.933c-0.255,0.266-0.516,0.527-0.763,0.8
		c-2.083,2.297-4.688,3.742-7.635,4.575c-1.326,0.375-2.703,0.571-4.056,0.848c0.85-1.324,1.699-2.648,2.549-3.972
		c3.606,0.582,6.773-0.525,9.705-2.532c0.097-0.066,0.198-0.125,0.416-0.262C113.116,18.655,113.062,18.794,113.006,18.933z"/>
	<path fill-rule="evenodd" clip-rule="evenodd" fill="#65C1DD" d="M109.078,92.043c0.009-0.058,0.019-0.116,0.028-0.174
		c0.019,0.005,0.037,0.01,0.056,0.016c-0.021,0.058-0.043,0.116-0.065,0.174C109.097,92.06,109.078,92.043,109.078,92.043z"/>
	<path fill-rule="evenodd" clip-rule="evenodd" fill="#65C1DD" d="M76.303,123.006c0.077,0.035,0.154,0.071,0.232,0.107
		C76.458,123.078,76.38,123.042,76.303,123.006z"/>
	<path fill-rule="evenodd" clip-rule="evenodd" fill="#B3E0EE" d="M94.992,84.194c0.018,0.009,0.035,0.019,0.052,0.029
		C95.027,84.213,95.01,84.204,94.992,84.194L94.992,84.194z"/>
	<path fill-rule="evenodd" clip-rule="evenodd" fill="#B3E0EE" d="M83.645,62.616c-0.043-0.046-0.086-0.092-0.129-0.138
		C83.559,62.524,83.602,62.57,83.645,62.616z"/>
	<path fill-rule="evenodd" clip-rule="evenodd" fill="#737F84" d="M53.693,2.208c0.021-0.023,0.041-0.046,0.061-0.069
		c0.012,0.039,0.025,0.077,0.037,0.116C53.745,2.267,53.712,2.251,53.693,2.208z"/>
	<path fill-rule="evenodd" clip-rule="evenodd" fill="#B3E0EE" d="M43.479,109.392c-0.666-0.438-1.33-0.876-1.997-1.311
		c-0.117-0.076-0.249-0.129-0.374-0.193c-0.193-1.68-0.35-3.364-0.589-5.037c-0.221-1.546-1.054-2.819-2.027-3.993
		c-1.531-1.849-3.182-3.603-4.146-5.858c-0.845-1.975-1.431-4.016-1.582-6.158c-0.132-1.878-0.204-3.761-0.246-5.644
		c-0.019-0.839,0.104-1.682,0.168-2.614c0.52,0.548,0.993,1.046,1.467,1.544c0.545-3.757,2.358-6.844,4.135-9.956
		c-0.509,2.396-1.088,4.779-1.506,7.19c-0.418,2.414-0.794,4.847-0.533,7.417c-0.763-0.309-1.097-0.957-1.609-1.654
		c-0.084,1.928,0.573,3.498,1.263,5.023c0.688,1.52,1.557,2.958,2.429,4.585c-0.984-0.088-1.94-0.174-2.932-0.263
		c0.114,0.638,0.515,1.228,1.032,1.672c0.939,0.807,1.925,1.568,2.946,2.269c2.513,1.723,4.087,4.046,4.438,7.075
		c0.145,1.254-0.013,2.547-0.079,3.82C43.701,108.004,43.568,108.697,43.479,109.392z"/>
	<path fill-rule="evenodd" clip-rule="evenodd" fill="#B3E0EE" d="M30.134,117.867c0.117,0.378,0.235,0.756,0.352,1.134
		c-0.261-0.25-0.565-0.47-0.773-0.758c-0.411-0.568-0.795-1.16-1.142-1.77c-0.343-0.605-0.626-1.244-0.953-1.903
		c-0.084,0.091-0.196,0.213-0.378,0.41c-0.188-1.457-0.637-2.814-0.217-4.238c0.233,1.664,0.688,3.246,1.549,4.826
		c0.103-0.215,0.151-0.3,0.185-0.39c0.028-0.074,0.04-0.154,0.104-0.42c0.425,1.057,0.786,1.956,1.147,2.854
		c0.043,0.086,0.087,0.173,0.13,0.26L30.134,117.867z"/>
	<path fill-rule="evenodd" clip-rule="evenodd" fill="#B4E1EE" d="M24.359,120.056c-1.769-0.753-3.389-5.257-2.564-6.837
		c0.271,1.269,0.557,2.609,0.861,4.031c0.197-0.134,0.316-0.215,0.421-0.287C23.503,117.992,23.926,119.011,24.359,120.056z"/>
	<path fill-rule="evenodd" clip-rule="evenodd" fill="#B3E0EE" d="M38.46,69.748c-0.016,0.005-0.042,0.017-0.045,0.012
		c-0.01-0.015-0.012-0.035-0.018-0.053c0.016-0.004,0.042-0.016,0.045-0.012C38.453,69.708,38.455,69.729,38.46,69.748z"/>
	<path fill-rule="evenodd" clip-rule="evenodd" fill="#65C2DD" d="M30.139,117.872c-0.043-0.087-0.086-0.174-0.13-0.26
		C30.052,117.698,30.095,117.785,30.139,117.872z"/>
	<path fill-rule="evenodd" clip-rule="evenodd" fill="#E9F5FA" d="M68.051,7.86c-0.042,0.042-0.083,0.084-0.125,0.125
		C67.968,7.944,68.01,7.902,68.051,7.86z"/>
	<path fill-rule="evenodd" clip-rule="evenodd" fill="#4F4E51" d="M54.668,57.42c4.498,0,8.882-0.053,13.265,0.02
		c2.653,0.044,5.306,0.25,7.954,0.454c0.903,0.069,1.783,0.369,2.596,1.037c-1.074,0.817-2.082,1.637-3.146,2.373
		c-0.505,0.35-0.67,0.718-0.427,1.25c0.336,0.733,0.708,1.449,1.061,2.174c0.23,0.474,0.455,0.951,0.71,1.487
		c-0.266,0.05-0.403,0.095-0.542,0.098c-3.095,0.081-6.199,0.295-9.271-0.218c-3.41-0.569-6.663-1.6-9.443-3.764
		c-1.348-1.048-2.326-2.365-2.666-4.083C54.71,58.011,54.704,57.764,54.668,57.42z"/>
	<path fill-rule="evenodd" clip-rule="evenodd" fill="#D3EDF6" d="M68.611,75.482c-0.576-0.932-1.151-1.864-1.722-2.788
		c-0.682,1.006-1.371,2.024-2.139,3.159c-1.117-1.253-1.486-2.7-2.036-4.186c-0.594,0.663-1.144,1.275-1.749,1.948
		c-0.812-1.656-1.305-3.301-1.426-5.246c4.533,1.464,9.04,1.967,13.641,1.682c0.017,0.065,0.034,0.131,0.051,0.196
		c-0.528,0.288-1.033,0.634-1.588,0.849c-1.025,0.396-1.369,1.266-1.732,2.178c-0.297,0.742-0.7,1.441-1.056,2.159
		C68.774,75.45,68.692,75.466,68.611,75.482z"/>
	<path fill-rule="evenodd" clip-rule="evenodd" fill="#66C2DD" d="M72.718,92.754c-0.017,0.004-0.034,0.01-0.05,0.015
		c-0.005-0.021-0.01-0.042-0.015-0.063c0.018,0.003,0.038,0.002,0.053,0.011C72.714,92.722,72.714,92.741,72.718,92.754z"/>
	<path fill-rule="evenodd" clip-rule="evenodd" fill="#D4EDF6" d="M65.142,39.102c-2.521-0.889-4.738-0.703-6.572,1.367
		c-0.144-1.146,1.151-2.617,2.525-2.995C62.733,37.023,64.562,37.712,65.142,39.102z"/>
	<path fill-rule="evenodd" clip-rule="evenodd" fill="#D4EDF6" d="M58.946,42.41c0.034-0.805,0.601-1.234,1.189-1.616
		c1.351-0.877,3.787-0.746,4.754,0.729c-0.384-0.046-0.713-0.063-1.033-0.128c-1.646-0.334-3.139,0.118-4.577,0.872
		C59.173,42.323,59.058,42.363,58.946,42.41L58.946,42.41z"/>
	<path fill-rule="evenodd" clip-rule="evenodd" fill="#D4EDF6" d="M83.211,41.754c0.787-0.699,1.984-0.849,2.968-0.309
		c1.051,0.575,1.555,1.337,1.476,2.635C86.549,42.51,84.999,41.921,83.211,41.754z"/>
	<path fill-rule="evenodd" clip-rule="evenodd" fill="#CDEBF4" d="M86.362,46.742c-1.609-1.942-2.275-2.001-4.159-2.52
		c0.628-0.598,1.377-0.719,2.117-0.507C85.759,44.128,86.211,45.296,86.362,46.742z"/>
	<path fill-rule="evenodd" clip-rule="evenodd" fill="#D4EDF6" d="M58.947,42.411c-0.01,0.018-0.02,0.035-0.029,0.052
		C58.927,42.445,58.937,42.428,58.947,42.411L58.947,42.411z"/>
	<path fill-rule="evenodd" clip-rule="evenodd" fill="#EBF7FE" d="M107.339,73.59c-0.008,0.017-0.017,0.034-0.025,0.051
		c0.01-0.016,0.019-0.032,0.029-0.048L107.339,73.59z"/>
	<path fill-rule="evenodd" clip-rule="evenodd" fill="#EBF7FE" d="M103.977,77.338c-0.02,0.017-0.039,0.033-0.058,0.05
		c0.017-0.02,0.034-0.039,0.051-0.058C103.969,77.331,103.977,77.338,103.977,77.338z"/>
	<path fill-rule="evenodd" clip-rule="evenodd" fill="#D3EDF6" d="M32.648,119.725c0.012,0.06,0.023,0.12,0.035,0.18
		c-0.028-0.045-0.057-0.092-0.086-0.137C32.614,119.754,32.631,119.74,32.648,119.725z"/>
	<path fill-rule="evenodd" clip-rule="evenodd" fill="#E8F4F8" d="M64.446,46.365c1.396,0.39,2.808,0.732,4.183,1.185
		c0.904,0.297,1.031,0.681,0.624,1.525c-0.467,0.97-0.947,1.94-1.51,2.857c-0.682,1.111-1.682,1.717-3.042,1.739
		c-3.723,0.062-7.379-0.319-10.923-1.517c-1.283-0.434-1.413-0.596-1.33-1.924c0.082-1.304,0.209-2.607,0.364-3.905
		c0.088-0.732,0.505-1.155,1.246-1.133c1.843,0.054,3.684,0.195,5.525,0.301c-0.169,0.529-0.338,1.058-0.507,1.587
		c-0.462,1.171-0.538,2.378-0.234,3.587c0.325,1.294,1.449,1.981,2.621,1.671c1.066-0.282,2.234-1.679,2.345-2.806
		C64.357,48.546,64.428,47.461,64.446,46.365z"/>
	<path fill-rule="evenodd" clip-rule="evenodd" fill="#ECF5F9" d="M80.083,48.152c2.093,0.285,4.192,0.527,6.274,0.873
		c1.039,0.172,1.138,0.431,0.734,1.421c-0.485,1.188-1.045,2.346-1.541,3.531c-0.276,0.661-0.76,1.019-1.435,1.147
		c-0.508,0.097-1.021,0.213-1.535,0.237c-2.127,0.101-4.231-0.097-6.302-0.595c-1.452-0.35-1.729-0.684-1.731-2.196
		c-0.002-0.869,0.069-1.739,0.151-2.604c0.079-0.831,0.591-1.305,1.396-1.442c0.612-0.104,1.23-0.194,1.849-0.228
		c0.704-0.039,1.412-0.009,2.118-0.009C80.07,48.243,80.077,48.197,80.083,48.152z M82.86,50.763c-0.104,0.22-0.152,0.375-0.241,0.5
		c-0.391,0.557-0.72,1.184-1.207,1.641c-1.049,0.983-2.355,0.69-2.946-0.62c-0.235-0.523-0.357-1.098-0.537-1.666
		c-0.135,1.502,0.011,2.559,0.45,3.298c0.442,0.744,1.062,1.032,1.884,0.875C81.727,54.512,82.974,52.63,82.86,50.763z
		 M78.759,50.479c-0.04,0.038-0.08,0.076-0.12,0.114c0.247,0.311,0.434,0.758,0.755,0.897c0.447,0.194,0.733-0.244,0.942-0.611
		c0.09-0.158,0.151-0.342,0.182-0.522c0.102-0.597-0.168-1.217-0.557-1.322c-0.425-0.114-0.932,0.319-1.111,0.96
		C78.806,50.153,78.789,50.318,78.759,50.479z"/>
	<path fill-rule="evenodd" clip-rule="evenodd" fill="#778287" d="M59.075,47.081c0.049,0.721,0.027,1.455,0.165,2.158
		c0.166,0.84,0.587,1.557,1.504,1.81c0.918,0.254,1.665-0.087,2.314-0.708c0.265-0.253,0.5-0.537,0.749-0.807
		c-0.111,1.127-1.279,2.524-2.345,2.806c-1.172,0.31-2.296-0.377-2.621-1.671C58.537,49.458,58.612,48.251,59.075,47.081z"/>
	<path fill-rule="evenodd" clip-rule="evenodd" fill="#778287" d="M82.86,50.763c0.114,1.867-1.133,3.749-2.596,4.027
		c-0.822,0.157-1.441-0.131-1.884-0.875c-0.439-0.739-0.585-1.796-0.45-3.298c0.179,0.568,0.301,1.143,0.537,1.666
		c0.591,1.31,1.897,1.604,2.946,0.62c0.487-0.457,0.816-1.084,1.207-1.641C82.708,51.138,82.756,50.983,82.86,50.763z"/>
	<path fill-rule="evenodd" clip-rule="evenodd" fill="#1C1C1C" d="M78.759,50.479c0.03-0.161,0.047-0.326,0.091-0.483
		c0.18-0.641,0.687-1.074,1.111-0.96c0.388,0.105,0.659,0.725,0.557,1.322c-0.031,0.18-0.092,0.364-0.182,0.522
		c-0.208,0.367-0.495,0.805-0.942,0.611c-0.321-0.139-0.509-0.587-0.755-0.897C78.679,50.555,78.719,50.517,78.759,50.479z"/>
	<path fill-rule="evenodd" clip-rule="evenodd" fill="#1C1C1C" d="M59.909,48.091c0.027-0.694,0.492-1.273,1.023-1.277
		c0.446-0.003,0.817,0.536,0.791,1.149c-0.03,0.684-0.561,1.321-1.087,1.301C60.164,49.246,59.881,48.791,59.909,48.091z"/>
</svg>
