<?xml version="1.0" encoding="UTF-8" standalone="no"?>
<svg
   width="128"
   height="128"
   version="1.1"
   id="svg45"
   sodipodi:docname="dropwizard-logo.svg"
   inkscape:version="1.1 (c68e22c387, 2021-05-23)"
   viewBox="0 0 128 128"
   xmlns:inkscape="http://www.inkscape.org/namespaces/inkscape"
   xmlns:sodipodi="http://sodipodi.sourceforge.net/DTD/sodipodi-0.dtd"
   xmlns="http://www.w3.org/2000/svg"
   xmlns:svg="http://www.w3.org/2000/svg">
  <sodipodi:namedview
     id="namedview47"
     pagecolor="#ffffff"
     bordercolor="#666666"
     borderopacity="1.0"
     inkscape:pageshadow="2"
     inkscape:pageopacity="0.0"
     inkscape:pagecheckerboard="true"
     showgrid="false"
     height="509px"
     fit-margin-left="0"
     fit-margin-right="0"
     fit-margin-top="4"
     fit-margin-bottom="4"
     inkscape:zoom="2.2072671"
     inkscape:cx="0.22652446"
     inkscape:cy="76.112219"
     inkscape:window-width="1440"
     inkscape:window-height="748"
     inkscape:window-x="-6"
     inkscape:window-y="-6"
     inkscape:window-maximized="1"
     inkscape:current-layer="svg45"
     viewbox-width="128" />
  <defs
     id="defs29">
    <clipPath
       id="a">
      <path
         d="M 1166.39,0 C 522.219,0 0,136.859 0,305.922 c 0,168.84 522.219,305.797 1166.39,305.797 644.13,0 1166.34,-136.957 1166.34,-305.797 C 2332.73,136.859 1810.52,0 1166.39,0"
         id="path2" />
    </clipPath>
    <clipPath
       id="b">
      <path
         d="m 180.895,285.039 c 0,0 1139.805,-565.621 2011.855,106.641 -227.41,610.38 -626.72,2371.23 -862.53,3148.89 -50.27,165.81 -58.48,182.34 -79.05,227.87 C 1136.08,4023.15 1015.01,3274.14 818.109,2520.16 747.602,2249.91 180.895,285.039 180.895,285.039 Z"
         id="path5" />
    </clipPath>
    <linearGradient
       id="c"
       x2="1"
       gradientTransform="matrix(-3070,-1630,-1630,3070,3221.19,2903.28)"
       gradientUnits="userSpaceOnUse">
      <stop
         offset="0"
         stop-color="#3871c1"
         id="stop8" />
      <stop
         offset=".515"
         stop-color="#2c3792"
         id="stop10" />
      <stop
         offset=".865"
         stop-color="#24265d"
         id="stop12" />
      <stop
         offset="1"
         stop-color="#252761"
         id="stop14" />
    </linearGradient>
    <clipPath
       id="d">
      <path
         d="m 410.777,410.078 c 0,0 975.133,-572.168 1781.973,-18.398 -21.6,96.371 -76.64,251.09 -114.02,395.218 C 1880.09,1552.62 1520.59,2845.49 1345.41,3487.33 1155.54,4182.28 1094.12,3369.68 872.629,2505 805.336,2242.07 410.777,410.078 410.777,410.078 Z"
         id="path17" />
    </clipPath>
    <linearGradient
       id="e"
       x2="1"
       gradientTransform="matrix(-1791.5791,-467.37267,-467.37267,1791.5791,1735.7918,2037.4307)"
       gradientUnits="userSpaceOnUse">
      <stop
         offset="0"
         stop-color="#3871c1"
         id="stop20" />
      <stop
         offset=".515"
         stop-color="#2c3792"
         id="stop22" />
      <stop
         offset=".865"
         stop-color="#24265d"
         id="stop24" />
      <stop
         offset="1"
         stop-color="#252761"
         id="stop26" />
    </linearGradient>
  </defs>
  <g
     clip-path="url(#b)"
     transform="matrix(0.03194312,0,0,-0.03194312,26.221649,125.99651)"
     id="g33">
    <path
       fill="url(#c)"
       d="m 180.895,285.039 c 0,0 1139.805,-565.621 2011.855,106.641 -227.41,610.38 -626.72,2371.23 -862.53,3148.89 -50.27,165.81 -58.48,182.34 -79.05,227.87 C 1136.08,4023.15 1015.01,3274.14 818.109,2520.16 747.602,2249.91 180.895,285.039 180.895,285.039"
       id="path31"
       style="fill:url(#c)" />
  </g>
  <g
     clip-path="url(#d)"
     transform="matrix(0.03194312,0,0,-0.03194312,26.221649,125.99651)"
     id="g37">
    <path
       fill="url(#e)"
       d="m 410.777,410.078 c 0,0 975.133,-572.168 1781.973,-18.398 -21.6,96.371 -76.64,251.09 -114.02,395.218 C 1880.09,1552.62 1520.59,2845.49 1345.41,3487.33 1155.54,4182.28 1094.12,3369.68 872.629,2505 805.336,2242.07 410.777,410.078 410.777,410.078"
       id="path35"
       style="fill:url(#e)" />
  </g>
  <path
     fill="#f9a72b"
     d="m 47.784519,97.061552 3.23744,-5.58555 3.025171,5.88407 -3.461441,7.589388 -2.80117,-7.887908 m 26.436871,-21.13977 3.23744,-5.58579 3.02541,5.88455 -3.46313,7.5894 -2.79948,-7.88816 m -18.09975,-22.30699 3.23744,-5.5846 3.02349,5.88479 -3.46144,7.58747 -2.79949,-7.88766"
     id="path39"
     style="stroke-width:0.23958" />
  <path
     fill="#fff200"
     d="m 47.784519,97.061552 3.24223,-6.541 3.020381,6.83952 -3.456411,5.596088 -2.8062,-5.894608 m 26.436871,-21.13977 3.24391,-6.54076 3.0187,6.83952 -3.45618,5.59585 -2.80619,-5.89461 m -18.09975,-22.30699 3.24223,-6.54004 3.0187,6.84023 -3.45641,5.59418 -2.80452,-5.89437"
     id="path41"
     style="stroke-width:0.23958" />
  <path
     fill="#24265d"
     d="m 51.011899,112.35989 c 0,0 23.189611,3.86777 38.454881,-5.90419 -1.91424,5.90419 -19.030269,12.63134 -38.454881,5.90419"
     id="path43"
     style="stroke-width:0.23958" />
</svg>
