<?xml version="1.0" encoding="UTF-8"?>
<svg xmlns="http://www.w3.org/2000/svg" xmlns:xlink="http://www.w3.org/1999/xlink" width="128px" height="128px" viewBox="0 0 128 128" version="1.1">
<defs>
<clipPath id="clip1">
  <path d="M 9 0 L 121 0 L 121 126 L 9 126 Z M 9 0 "/>
</clipPath>
<clipPath id="clip2">
  <path d="M 9.925781 118.5 C 9.925781 118.5 72.472656 137.464844 120.328125 114.925781 C 107.847656 94.460938 85.9375 35.417969 72.996094 9.34375 C 70.238281 3.785156 69.789062 3.230469 68.660156 1.707031 C 62.34375 -6.835938 55.699219 18.277344 44.894531 43.558594 C 41.023438 52.621094 9.925781 118.5 9.925781 118.5 Z M 9.925781 118.5 "/>
</clipPath>
<linearGradient id="linear0" gradientUnits="userSpaceOnUse" x1="0" y1="0" x2="1" y2="0" gradientTransform="matrix(-168.467385,54.652203,-89.446853,-102.933903,176.763992,30.713129)">
<stop offset="0" style="stop-color:rgb(21.960784%,44.313725%,75.686275%);stop-opacity:1;"/>
<stop offset="0.515" style="stop-color:rgb(17.254902%,21.568627%,57.254902%);stop-opacity:1;"/>
<stop offset="0.865" style="stop-color:rgb(14.117647%,14.901961%,36.470588%);stop-opacity:1;"/>
<stop offset="1" style="stop-color:rgb(14.509804%,15.294118%,38.039216%);stop-opacity:1;"/>
</linearGradient>
<clipPath id="clip3">
  <path d="M 22 2 L 121 2 L 121 124 L 22 124 Z M 22 2 "/>
</clipPath>
<clipPath id="clip4">
  <path d="M 22.542969 114.308594 C 22.542969 114.308594 76.050781 133.492188 120.328125 114.925781 C 119.144531 111.691406 116.121094 106.503906 114.070312 101.671875 C 103.171875 76 83.441406 32.652344 73.828125 11.128906 C 63.410156 -12.171875 60.039062 15.074219 47.886719 44.066406 C 44.191406 52.882812 22.542969 114.308594 22.542969 114.308594 Z M 22.542969 114.308594 "/>
</clipPath>
<linearGradient id="linear1" gradientUnits="userSpaceOnUse" x1="0" y1="0" x2="1" y2="0" gradientTransform="matrix(-98.313567,15.670519,-25.647248,-60.069782,95.252217,59.744153)">
<stop offset="0" style="stop-color:rgb(21.960784%,44.313725%,75.686275%);stop-opacity:1;"/>
<stop offset="0.515" style="stop-color:rgb(17.254902%,21.568627%,57.254902%);stop-opacity:1;"/>
<stop offset="0.865" style="stop-color:rgb(14.117647%,14.901961%,36.470588%);stop-opacity:1;"/>
<stop offset="1" style="stop-color:rgb(14.509804%,15.294118%,38.039216%);stop-opacity:1;"/>
</linearGradient>
</defs>
<g id="surface1">
<g clip-path="url(#clip1)" clip-rule="nonzero">
<g clip-path="url(#clip2)" clip-rule="nonzero">
<path style=" stroke:none;fill-rule:nonzero;fill:url(#linear0);" d="M 9.925781 118.5 C 9.925781 118.5 72.472656 137.464844 120.328125 114.925781 C 107.847656 94.460938 85.9375 35.417969 72.996094 9.34375 C 70.238281 3.785156 69.789062 3.230469 68.660156 1.707031 C 62.34375 -6.835938 55.699219 18.277344 44.894531 43.558594 C 41.023438 52.621094 9.925781 118.5 9.925781 118.5 "/>
</g>
</g>
<g clip-path="url(#clip3)" clip-rule="nonzero">
<g clip-path="url(#clip4)" clip-rule="nonzero">
<path style=" stroke:none;fill-rule:nonzero;fill:url(#linear1);" d="M 22.542969 114.308594 C 22.542969 114.308594 76.050781 133.492188 120.328125 114.925781 C 119.144531 111.691406 116.121094 106.503906 114.070312 101.671875 C 103.171875 76 83.441406 32.652344 73.828125 11.128906 C 63.410156 -12.171875 60.039062 15.074219 47.886719 44.066406 C 44.191406 52.882812 22.542969 114.308594 22.542969 114.308594 "/>
</g>
</g>
<path style=" stroke:none;fill-rule:nonzero;fill:rgb(97.647059%,65.490196%,16.862745%);fill-opacity:1;" d="M 37.042969 97.6875 L 42.605469 91.824219 L 47.800781 98 L 41.855469 105.964844 L 37.042969 97.6875 M 82.460938 75.496094 L 88.019531 69.632812 L 93.21875 75.808594 L 87.269531 83.777344 L 82.460938 75.496094 M 51.367188 52.082031 L 56.925781 46.21875 L 62.121094 52.398438 L 56.175781 60.359375 L 51.367188 52.082031 "/>
<path style=" stroke:none;fill-rule:nonzero;fill:rgb(100%,94.901961%,0%);fill-opacity:1;" d="M 37.042969 97.6875 L 42.613281 90.820312 L 47.800781 98 L 41.863281 103.871094 L 37.042969 97.6875 M 82.460938 75.496094 L 88.03125 68.632812 L 93.21875 75.808594 L 87.28125 81.683594 L 82.460938 75.496094 M 51.367188 52.082031 L 56.9375 45.21875 L 62.121094 52.398438 L 56.183594 58.269531 L 51.367188 52.082031 "/>
<path style=" stroke:none;fill-rule:nonzero;fill:rgb(14.117647%,14.901961%,36.470588%);fill-opacity:1;" d="M 42.585938 113.742188 C 42.585938 113.742188 82.425781 117.804688 108.648438 107.546875 C 105.359375 113.742188 75.957031 120.804688 42.585938 113.742188 "/>
</g>
</svg>
