<svg xmlns="http://www.w3.org/2000/svg" viewBox="0 0 128 128"><path fill="#e0684b" d="m23.388 53.49-4.174 2.41 4.34 2.506 4.174-2.41zM18.039 50.401l-4.175-2.41L0 55.996l4.175 2.41zM13.864 69.01l4.34-2.505L13.864 64l-4.339 2.505z" class="cls-3"/><path fill="#bb464b" d="M32.887 55.969v12.3c0 1.251 0 2.499-.022 3.727h2.61a8.465 8.465 0 0 0 .109-1.207c.549.9 1.36 1.47 3.07 1.47 3.223 0 4.912-2.806 4.912-6.116 0-3.223-1.623-5.68-4.605-5.68-1.907 0-2.873.79-3.356 1.601V55.97h-2.718zm5.285 6.709c1.776 0 2.607 1.468 2.607 3.529 0 2.325-.942 3.86-2.652 3.86-2.017 0-2.652-1.602-2.652-3.663 0-2.411.723-3.726 2.697-3.726zM50.121 60.463c-3.354-.021-4.516 1.667-4.67 3.508h2.604c.154-.833.46-1.512 1.953-1.512 1.687 0 1.972.921 1.972 1.797v.767h-1.707c-3.31 0-5.35 1.185-5.35 3.729 0 1.732 1.142 3.508 3.839 3.508 2.06 0 2.871-.811 3.265-1.49.023.416.089.985.176 1.226h2.61c-.067-.285-.155-1.71-.155-2.762V64.28c0-2.631-1.599-3.794-4.537-3.816zm.416 6.27h1.469l-.004.33c0 1.665-.285 3.2-2.522 3.2-1.205 0-1.82-.746-1.82-1.667 0-1.272.876-1.864 2.877-1.864zM57.115 55.969v12.3c0 1.251 0 2.499-.021 3.727H59.7a8.443 8.443 0 0 0 .111-1.207c.548.9 1.36 1.47 3.069 1.47 3.223 0 4.912-2.806 4.912-6.116 0-3.223-1.623-5.68-4.606-5.68-1.907 0-2.87.79-3.353 1.601V55.97h-2.719zm5.283 6.709c1.776 0 2.61 1.468 2.61 3.529 0 2.325-.942 3.86-2.653 3.86-2.017 0-2.654-1.602-2.654-3.663 0-2.411.725-3.726 2.697-3.726zM71.213 60.727c1.404 4.406 2.412 7.695 2.627 8.792h.027c.286-1.184.987-3.728 2.502-8.792h2.719L75.21 72.39c-1.104 3.267-1.982 4.194-4.547 4.194a11.757 11.757 0 0 1-1.375-.088v-2.243c.24.023.57.044.855.044 1.227 0 1.797-.46 2.301-1.928l-4.143-11.643zM80.29 71.997V55.968h2.719v16.029zM90.51 60.46c-3.508 0-5.55 2.5-5.55 5.92 0 3.378 1.998 5.88 5.417 5.88 3.53 0 5.502-2.566 5.502-5.92 0-3.53-2.104-5.877-5.37-5.88zm-.112 2.17c1.754 0 2.696 1.32 2.696 3.755 0 2.28-.943 3.703-2.653 3.703-1.688 0-2.718-1.447-2.718-3.727 0-2.455 1.01-3.728 2.675-3.73zM97.852 63.555c0-.965 0-1.974-.021-2.828h2.626a12.057 12.057 0 0 1 .11 1.578c.395-.789 1.316-1.842 3.355-1.842 2.215 0 3.752 1.447 3.752 4.341v7.193h-2.718v-6.879c0-1.403-.5-2.412-2.001-2.412-1.601 0-2.39 1.03-2.39 3.114v6.183h-2.713zM110.263 71.997v-3.64h2.915v3.64zM116.203 58.117v-2.258h1.47v2.258zM117.673 60.968v11.62c0 3.002-.724 4.013-2.877 4.013-.087 0-.525-.023-.679-.044v-1.316a3.31 3.31 0 0 0 .46.023c1.47 0 1.626-.79 1.626-2.457V60.968zM121.005 68.905c.351 1.316 1.316 2.126 2.939 2.126 1.797 0 2.521-.81 2.521-1.95 0-1.163-.5-1.71-2.806-2.26-3.002-.722-3.685-1.644-3.685-3.112 0-1.535 1.163-3.002 3.794-3.002 2.654 0 3.837 1.578 4.012 3.135h-1.447c-.175-.833-.833-1.907-2.61-1.907-1.75 0-2.257.856-2.257 1.666 0 .922.482 1.382 2.587 1.886 3.223.767 3.947 1.841 3.947 3.486 0 1.973-1.578 3.29-4.1 3.29-2.675 0-4.078-1.383-4.363-3.355z"/><path fill="#bb464b" d="M9.525 61.494v5.011L13.864 64l4.34 2.505v-5.011l-4.34-2.506z" class="cls-1"/><path fill="#e0ded8" d="M18.204 61.494v5.011l-4.34 2.505v6.177l9.69-5.594V58.406z" class="cls-4"/><path fill="#d5d2ca" d="M9.525 61.494v5.011l4.339 2.505v6.177l-9.69-5.594V58.406z" class="cls-5"/><path fill="#fff" d="m13.864 58.988-4.339 2.506-5.35-3.088L18.039 50.4l5.349 3.09-4.174 2.41 4.34 2.505-5.35 3.088z" class="cls-2"/><path fill="#bb464b" d="M4.175 69.593V58.406L0 55.996v16.007l13.864 8.005 13.864-8.005V55.996l-4.175 2.41v11.187l-9.689 5.594z"/></svg>
