<svg xmlns="http://www.w3.org/2000/svg" viewBox="0 0 128 128"><path d="M61.869141.03711C53.611886.315144 45.741087 2.101997 38.3125 5.384765 18.050643 14.338685 3.766851 33.082002.660156 54.794922-.687664 64.214941.03031 73.704997 2.775391 82.734375c1.138555 3.745026 2.78544 7.714986 4.640625 11.189453 10.665257 19.974402 30.793489 32.835082 53.21875 33.998052 7.910773.41025 16.32731-.7938 24.068359-3.44141 18.263795-6.24668 32.832635-20.52502 39.466795-38.683595 5.3232-14.57029 5.09071-31.045001-.63867-45.378906-2.47553-6.193379-6.03235-12.205039-10.15039-17.15625C100.53411 7.815791 81.794189-.633799 61.869141.037109Zm.01172.330078c19.825102-.667544 38.464261 7.735244 51.248051 23.105468 4.09381 4.922075 7.63327 10.907769 10.0957 17.06836 5.6982 14.255898 5.92942 30.65042.63477 45.142578C117.25947 103.7484 102.7667 117.9537 84.597656 124.16797c-7.700751 2.63382-16.079933 3.83173-23.945312 3.42383-22.309959-1.15699-42.33353-13.94802-52.945313-33.822269-1.844199-3.453891-3.485503-7.408432-4.617187-11.130859C.358802 73.655469-.35477 64.214831.986328 54.841797c3.090397-21.599015 17.300297-40.247923 37.458984-49.15625C45.835611 2.419699 53.664022.643862 61.880859.367187Zm-.185549 11.486328c-4.208265.185662-8.398403.876051-12.419921 2.0625-3.042693.89767-5.578944 1.89466-8.441407 3.322265-5.344673 2.665566-9.443197 5.625046-13.748047 9.927735-3.309831 3.308174-5.616669 6.253181-7.966796 10.167968-3.974502 6.62062-6.336318 13.872973-7.154297 21.960938-.221138 2.186557-.222335 7.260752-.002 9.460937.264169 2.637175.73577 5.420649 1.308593 7.730469 2.794601 11.268713 9.238126 21.246063 18.416016 28.515622.571248.45248 1.400015 1.07077 2.09375 1.57227.346867.25075.659992.4721.890625.62891.115317.0784.208788.14047.279297.18359.03525.0216.06444.0392.0918.0527.01368.007.02547.013.04687.0195.0107.003.02208.007.04687.008.0062.00025.02111.00003.02148 0 .000372-.00003.02899-.006.0293-.006.000615-.00016.07582-.0426.07617-.043h.002c.00006-.00006.02728-.0389.02734-.0391.000065-.00012.0097-.0194.0098-.0195.000141-.00037.0048-.0134.0059-.0176.0022-.008.0031-.0131.0039-.0176.0017-.009.0026-.0179.0039-.0273.0027-.0189.0061-.0426.0098-.0742.0073-.0632.01551-.15371.02734-.26953.02367-.23165.05697-.5638.0957-.97266.07746-.81773.179212-1.94121.289062-3.17383.109809-1.23216.21244-2.35575.289063-3.171874.03831-.408064.07072-.73901.09375-.96875.0063-.06254.01072-.09764.01563-.144532.02977.01259.04729.0195.08398.03516.184216.0786.453723.194759.796875.34375.686304.297981 1.665506.725753 2.839844 1.240239 2.348676 1.02896 5.477852 2.40538 8.609375 3.78515 3.131523 1.37977 6.264847 2.76258 8.621094 3.80664 1.178123.52203 2.161526.96023 2.853515 1.26953.345995.15466.619075.27612.806641.36133.09378.0426.165926.0767.214844.0996.0053.002.007.004.01172.006.0074.043.01493.10479.02539.18555.02182.16843.04984.41125.08008.70703.06047.59155.13192 1.39777.203125 2.27734.07132.88099.142704 1.6957.197266 2.29883.02728.30156.05013.55024.06836.72852.0091.0891.01705.16029.02344.21289.0032.0263.0051.0486.0078.0664.0027.0178.0011.0198.01367.0566.000224.00066.008.0236.01367.0332.0057.01.01166.0184.01758.0254.01183.0139.02322.024.0332.0312.01996.0144.03664.0197.05078.0254.02828.0113.05097.018.07813.0234.0543.0108.119738.0184.201172.0254.162869.0139.387307.023.660156.0293.5457.0126 1.283466.0108 2.078125-.002 1.589319-.0255 3.399263-.0961 4.345704-.19727 1.727393-.18461 3.918568-.52369 5.519531-.85546 12.315812-2.55222 23.357138-9.56187 31.042973-19.705083 3.28339-4.333174 5.97109-9.380412 7.71289-14.490235.3537-1.037632.74016-2.304228 1.03906-3.367187.14945-.53148.27664-1.011354.36719-1.388672.0905-.377318.14648-.628745.14648-.791016 0-.000277-.0349-.103133-.0352-.103515-.0003-.000382-.0208-.02206-.0273-.02734-.0131-.01056-.0208-.01383-.0273-.01758-.0131-.0075-.0231-.01206-.0352-.01758-.024-.01103-.0541-.02507-.0937-.04102-.0794-.03189-.19473-.07577-.34766-.132812-.30584-.11409-.76132-.277743-1.35937-.492188-1.19611-.428889-2.96553-1.055649-5.26563-1.863281-4.6003-1.615204-11.319049-3.957237-19.791131-6.896423-7.389572-2.563629-14.104468-4.894832-18.970703-6.587891-2.433118-.84653-4.4039-1.53416-5.765625-2.009766-.423673-.147974-.673317-.236223-.97461-.341797.290337.02015.518715.03658.916016.06445 1.360422.09544 3.326754.233649 5.751953.40625 4.850399.3452 11.537591.824517 18.890625 1.353515 7.35311.528991 14.067805 1.010111 18.962895 1.359375 2.44754.174632 4.44007.315975 5.83007.414063.69501.04904 1.23991.08732 1.61524.113281.18766.01298.33261.02257.43359.0293.0505.0034.089.0061.11719.0078.0282.0018.0354.0036.0566.0039.0648.000958.11781.000721.17383-.0078.056-.0085.12712-.031.17773-.08984.0506-.05884.0632-.127048.0664-.183593.003-.05654-.002-.113132-.008-.181641-.14401-1.669489-.35041-3.383471-.56641-4.677734-.13156-.78825-.27208-1.552101-.38867-2.128907-.0583-.288402-.11158-.528752-.1543-.705078-.0214-.08816-.0396-.161189-.0566-.216797-.008-.0278-.0164-.05185-.0254-.07422-.009-.02237-.007-.03654-.0527-.08203v-.002c-.00009-.000081-.0914-.04485-.0918-.04492-.00044-.000068-.0123-.0017-.0156-.002-.007-.000481-.009-.0019-.0137-.002-.009-.00019-.0189-.000068-.0312 0-.0247.000137-.06.0011-.10547.002-.091.0018-.22552.0051-.40039.0098-.34973.0094-.86275.02473-1.52343.04492-1.32138.04039-3.22882.101055-5.58204.177734-4.70642.153359-11.193904.370255-18.324215.613281-7.13019.243028-13.615839.460151-18.320313.615235-2.352236.07754-4.258261.140125-5.578125.18164-.407485.01282-.648118.0205-.939453.0293.248268-.08106.438248-.144361.775391-.253906 1.185236-.385109 2.900616-.939127 5.019531-1.623047 4.237831-1.367839 10.087737-3.2507 16.525391-5.318359 6.437744-2.06769 12.293612-3.950288 16.542973-5.31836 2.12467-.684036 3.848-1.239681 5.04101-1.625.5965-.192659 1.05938-.342774 1.375-.445312.15781-.05127.27953-.09031.36133-.117188.0409-.01344.0722-.02401.0937-.03125.0108-.0036.0187-.0074.0254-.0098.003-.0012.006-.0026.01-.0039.002-.000675.004-.000358.008-.002.004-.0016.0429-.02533.043-.02539.00044-.000376.0466-.06186.0469-.0625.00028-.000642.0102-.03612.0117-.04883.003-.02542.002-.04067 0-.05273-.004-.02414-.0103-.03777-.0156-.05273-.0106-.02993-.0233-.05883-.041-.0957-.0355-.07375-.0881-.171374-.1543-.291016-.13245-.239284-.3215-.564546-.53906-.927734-.43511-.726376-.98175-1.604294-1.4082-2.244141-.97476-1.462512-2.02104-2.880509-3.17578-4.304687l-.95703-1.181641-.75.378906c-.20616.103638-2.659424 1.369981-6.277349 3.240235-3.617924 1.870253-8.38878 4.337726-13.191406 6.822265-9.605251 4.96908-19.334354 10.005234-20.238281 10.478516l-.465174.242312c.06131-.06494.06522-.07017.160156-.169922.223582-.234918.54001-.56687.939453-.984375.798887-.835009 1.929419-2.012272 3.306641-3.447265 2.754444-2.869986 6.498163-6.767565 10.568359-10.998047 4.070278-4.230557 7.774178-8.082957 10.460938-10.882813 1.34338-1.399927 2.43311-2.537265 3.1875-3.326171.377195-.394454.669439-.701929.86914-.91211.09985-.10509.176546-.184857.228516-.240234.02599-.02769.04647-.04909.06055-.06445.007-.0077.01266-.01393.01758-.01953.0025-.0028.0046-.0058.0078-.0098.0016-.002.0025-.0032.0059-.0078.0033-.0046.02339-.04283.02344-.04297.000218-.00062.0078-.04616.0078-.04687.00004-.000715-.000071-.02785-.002-.03906-.0038-.02243-.0096-.0385-.01563-.05078-.01197-.02457-.02298-.03694-.0332-.04883-.02044-.02377-.0408-.04099-.06445-.06055-.0473-.03912-.109555-.08462-.189454-.138672-.159796-.108113-.386721-.250608-.666015-.417969-.558588-.334721-1.321685-.767153-2.132813-1.205078-4.192659-2.263594-9.336569-4.108318-14.205078-5.09375-4.093115-.828485-8.319078-1.1466-12.527344-.960937zm.01367.330078c4.181987-.184503 8.383274.130139 12.449219.953125 4.83434.978516 9.953994 2.81497 14.113281 5.060547.807211.43581 1.566545.868087 2.119141 1.199218.276298.165566.501805.306354.652344.408203.04147.02806.06058.04495.08984.06641-.04968.05277-.107213.114514-.191406.203125-.199226.209681-.492071.517787-.86914.912109-.75414.788645-1.844195 1.924369-3.1875 3.324219-2.686611 2.799699-6.388789 6.65234-10.458985 10.882812-4.070275 4.230564-7.81573 8.127917-10.570312 10.998047-1.377291 1.435065-2.507538 2.613983-3.306641 3.449219-.399551.417618-.715504.749071-.939453.984375-.223949.235304-.347584.363676-.386719.408203l-.396484.451172.201172.255859 1.277343-.669922c.894059-.468114 10.631122-5.507506 20.236329-10.476562 4.802603-2.484528 9.57353-4.952037 13.191406-6.822266 3.617876-1.870228 6.094918-3.15049 6.273438-3.240234l.51367-.257813.79102.97461c1.14867 1.416683 2.18732 2.825528 3.15625 4.279297.42145.632339.96774 1.51016 1.40039 2.232422.21632.36113.40592.682555.53515.916015.0508.09181.0831.157018.11329.216797-.0797.02612-.17758.05841-.31641.103516-.31527.102423-.77859.252683-1.375.445312-1.19282.385259-2.91639.940982-5.04102 1.625-4.249243 1.368037-10.105281 3.250689-16.542966 5.31836-6.437776 2.067698-12.287332 3.950446-16.52539 5.318359-2.11903.683957-3.833909 1.239766-5.019532 1.625-.592811.192617-1.053482.342773-1.365234.445312-.155876.05127-.275364.09021-.355469.117188-.04005.01349-.07045.02372-.0918.03125-.01067.0038-.01748.0067-.02539.0098-.004.0015-.0082.0025-.01563.0059-.0037.0017-.01927.01156-.01953.01172-.000261.000163-.02936.255799-.0293.255859.00006.00006.09724.04683.09766.04687.000416.000048.01086.0018.01367.002.0056.000263.0096-.000032.01367 0 .0081.000065.01723.000153.0293 0 .02414-.000305.05828-.000901.103515-.002.09047-.0021.223931-.0067.398438-.01172.349014-.01001.861396-.02416 1.521484-.04492 1.320177-.04152 3.227748-.104095 5.580078-.18164 4.70466-.15509 11.190022-.372204 18.320313-.615235 7.130176-.243021 13.616096-.45993 18.322266-.613281 2.35309-.07668 4.26108-.137361 5.58203-.177734.66048-.02019 1.17451-.03555 1.52344-.04492.17446-.0047.30707-.008.39648-.0098.009-.000185.013.000152.0215 0 .0127.04372.0273.09529.0449.167969.041.16912.0926.409406.15039.695313.11558.571812.25574 1.332424.38672 2.117187.21387 1.281524.42112 2.990712.56445 4.652344.004.04947.006.07609.006.101562-.0221.0013-.0406.0026-.082.002.012.00015-.0137-.000254-.041-.002-.0273-.0017-.067-.0045-.11718-.0078-.10046-.0067-.24608-.01633-.4336-.0293-.37503-.02594-.91836-.06424-1.61328-.113281-1.38984-.09808-3.38258-.239434-5.83008-.414063-4.89499-.349257-11.60983-.830388-18.962888-1.359375-7.353105-.529003-14.040101-1.008306-18.890625-1.353515-2.425261-.172605-4.391323-.312744-5.751953-.408204-.680315-.04773-1.208955-.08482-1.568359-.109375-.179702-.01228-.317288-.02133-.410156-.02734-.04643-.003-.08306-.0045-.107422-.0059-.01218-.000702-.01982-.0016-.02734-.002-.0038-.000165-.0074.000077-.01172 0-.0022-.000038-.0044-.000163-.0098 0-.0054.000164-.09956.03707-.09961.03711h-.002c-.000049.00004.02898.273269.0293.273437.00032.000168.01109.0047.01367.0059.0052.0022.008.0044.01172.0059.0075.0029.01541.0054.02734.0098.02386.0087.05954.02268.105469.03906.09187.03277.229072.07957.408203.142578.358262.126023.885426.310984 1.566407.548828 1.361961.475688 3.33439 1.163212 5.767578 2.009766 4.866374 1.693108 11.581056 4.026189 18.970703 6.589844 8.471853 2.939107 15.189583 5.279517 19.789063 6.894531 2.29974.807507 4.0689 1.432919 5.26367 1.861328.59739.214205 1.05223.379068 1.35547.492187.14905.0556.25959.09909.33398.128907-.0113.100961-.0423.296926-.11914.617187-.089.370814-.21658.848325-.36523 1.376953-.2973 1.057257-.68224 2.318059-1.0332 3.347657-1.72979 5.074587-4.40088 10.094515-7.66211 14.398437-7.638201 10.080352-18.610932 17.046212-30.847659 19.582032-1.586199.32872-3.77219.66641-5.486329.84961h-.002c-.918097.0981-2.730998.17189-4.314453.19726-.791727.0127-1.528077.0124-2.066406 0-.269164-.006-.488793-.0145-.638672-.0273-.05466-.005-.08804-.0106-.121094-.0156-.0057-.048-.0113-.10895-.01953-.18946-.018-.17597-.04115-.4238-.06836-.72461-.05443-.60162-.12406-1.41481-.195313-2.29492-.07136-.88151-.146209-1.69019-.207031-2.28515-.03041-.29749-.05756-.54299-.08008-.7168-.01126-.0869-.02013-.15498-.0293-.20703-.0046-.026-.0084-.0478-.01367-.0684-.0026-.0103-.0067-.0199-.01172-.0332-.0025-.007-.0042-.015-.0098-.0254-.0028-.005-.0066-.0103-.01172-.0176-.0051-.007-.02311-.0251-.02344-.0254v-.002c-.000364-.00034-.02436-.0185-.0293-.0215-.0049-.003-.0084-.006-.01172-.008-.0067-.004-.01382-.006-.02148-.01-.01534-.008-.03499-.0173-.06055-.0293-.05112-.0239-.124373-.0567-.21875-.0996-.188755-.0857-.462286-.20848-.808594-.36328-.692616-.30959-1.677172-.74742-2.855469-1.26953-2.356594-1.04422-5.489413-2.42875-8.621094-3.80859-3.131681-1.37984-6.262299-2.75604-8.611328-3.785159-1.174514-.514559-2.152894-.941973-2.839844-1.240235-.343474-.149131-.613344-.264606-.798828-.34375-.09274-.03957-.165341-.0714-.214843-.0918-.02475-.0102-.0436-.01769-.05859-.02344-.0075-.0029-.01337-.0051-.02148-.0078-.0041-.0013-.0077-.0016-.01758-.0039-.0099-.0023-.156122.04284-.15625.04297-.00005.000051-.03119.04286-.03125.04297-.000056.000112-.0078.01936-.0078.01953-.000123.000346-.003.01374-.0039.01758-.0019.0077-.0032.01145-.0039.01563-.0015.0083-.0027.01617-.0039.02539-.0025.01843-.0043.04287-.0078.07422-.007.0627-.01772.15206-.0293.267578-.02316.231037-.0554.56225-.09375.970704-.0767.816904-.179216 1.941244-.289063 3.173824-.109805 1.23213-.211691 2.35507-.289062 3.17188-.03869.40841-.07218.74057-.0957.9707-.0051.0499-.0075.0752-.01172.11524-.05031-.0327-.09125-.058-.158203-.10352-.226004-.15366-.535652-.37545-.88086-.625-.690416-.4991-1.519758-1.11559-2.083984-1.5625-9.121698-7.225053-15.52373-17.13799-18.300781-28.335937-.568077-2.290679-1.03624-5.064156-1.298828-7.685547-.21529-2.149344-.213977-7.259461.002-9.394531.813574-8.044409 3.159868-15.245234 7.109375-21.824219 2.338695-3.895744 4.623087-6.810284 7.917968-10.103515 4.28437-4.28222 8.342401-7.215047 13.660157-9.867188 2.847851-1.420318 5.361904-2.409762 8.388672-3.302734 3.995144-1.178668 8.157857-1.862373 12.339843-2.046875zM47.957031 31.484375c-.383413 0-.707864.137125-.917969.404297-.210104.267172-.304687.641956-.304687 1.105469v.40039l-5.585938 5.453125-5.683593 5.548828-.0039 1.853516-.0039 1.949219h2.025391V59.939453h-2.025391v6.232422h3.171875v.06055c0-.0049-.0093.158223-.02734.386719-.01806.228495-.04584.54668-.07813.927734-.06458.762107-.151988 1.781977-.25 2.876953-.144112 1.610027-.229275 2.608383-.265625 3.216797-.01817.304207-.02399.510419-.01953.652344.0022.07096.007.125699.01758.175781.01057.05008.01631.110789.09961.164062.03214.02053.02501.01378.03711.01953.0121.0058.0288.01227.04883.02148.04005.01842.09676.04515.169922.07813.146317.06595.357178.161016.626953.28125.539551.240468 1.313169.58386 2.261719 1.003906 1.897099.840094 4.496924 1.987684 7.34375 3.242188l.02344.0098c4.110699 1.811417 6.701362 2.945056 8.257813 3.607422.780418.332116 1.303633.547909 1.636719.673828.166543.06296.284907.103657.371093.126954.04309.01165.07594.01916.117188.02148.02063.0012.04308.0032.08203-.0098.0097-.0032.02154-.0071.0332-.01367.01167-.0066.03448-.02669.03516-.02734.0014-.0013.05046-.09194.05078-.09375.000221-.0012.0018-.02667.002-.0332.000137-.0065.000112-.01126 0-.01758-.000224-.01263-.0011-.02678-.002-.04492-.0016-.03628-.0039-.08729-.0078-.150391-.0079-.1262-.02064-.306513-.03711-.535156-.03294-.457286-.08264-1.106895-.144531-1.904297-.123782-1.594804-.297318-3.774928-.492188-6.154297-.383213-4.679102-.684958-8.387036-.695312-8.537109.06246-.0039.130415-.0085.228515-.01172.244794-.008.584912-.01367.958985-.01367H60.543v-6.232422h-2.027344V48.199227H60.543v-3.746094l-5.6875-5.574219-5.589844-5.476562v-.355469c0-.47915-.104245-.868487-.330078-1.144531-.225834-.276045-.570221-.417969-.978516-.417969zm0 .328125c.336234 0 .564561.103195.72461.298828.160049.195634.253906.504627.253906.935547v.494141L54.625 39.115234l5.587891 5.476563V47.871094H58.1875V60.269531h2.025391V65.841797h-1.201172c-.37699 0-.71853.0055-.96875.01367-.12511.0041-.226881.01-.300782.01563-.03695.0028-.06693.0055-.09375.0098-.01341.0021-.02502.0034-.04492.0098-.005.0016-.01061.0029-.01758.0059-.007.003-.0248.01329-.02539.01367-.000593.000379-.04267.03868-.04297.03906-.000149.00019-.02336.04278-.02344.04297-.000075.000192-.01172.06036-.01172.06055 0 .02442.319278 3.950594.708984 8.708985.194838 2.378982.36846 4.558235.492188 6.152343.06186.797055.111672 1.448138.144531 1.904297.01625.225577.02935.401365.03711.525391-.06567-.02113-.123672-.03944-.236328-.08203-.323773-.122399-.846295-.336582-1.625-.667969-1.557409-.662774-4.146728-1.794997-8.277344-3.615234l-.02148-.0098c-2.836862-1.250128-5.431014-2.396871-7.322266-3.234375-.948413-.419986-1.72066-.761684-2.259765-1.001953-.269553-.120135-.481446-.215665-.626953-.28125-.07275-.03279-.129352-.05841-.167969-.07617-.0011-.000487-.000922-.0015-.002-.002-.003-.02113-.0064-.04345-.0078-.08984-.0038-.121002.0016-.323174.01953-.623047.03583-.599745.119629-1.597783.263671-3.207031.09805-1.095424.187311-2.116054.251954-2.878906.03232-.381426.05803-.698143.07617-.927735.01815-.229591.02734-.347503.02734-.414062v-.390625H35.787068V60.26957h2.025391V47.871133h-2.025391l.0039-1.619141.0039-1.714844 5.583984-5.453125 5.683594-5.548828v-.541015c0-.417985.08854-.716901.234375-.902344.145833-.185443.350361-.279297.660156-.279297zm-7.214844 16.058594V60.269531h3.664063l.03125-3.179687c.0135-1.361192.02615-2.127111.05273-2.587891.02659-.46078.06162-.599341.13086-.763672.589685-1.399526 1.680551-2.224127 3.083984-2.341797 1.829615-.153375 3.491763 1.14716 3.789063 2.964844.01805.110354.04288.551778.05859 1.121094.01571.569316.02526 1.284084.02539 2.003906l.002 2.789063 1.818359-.02539 1.8125-.02734.02344-6.173828.02344-6.177734H48Zm.330079.328125h13.855468l-.02148 5.847656-.02344 5.851562-1.490234.02148-1.484375.02148v-2.455078c-.000135-.722783-.0096-1.440558-.02539-2.013672-.01582-.573113-.03495-.985633-.06445-1.166015-.324841-1.986078-2.140033-3.40599-4.140625-3.238282-1.518848.127347-2.730427 1.048305-3.359375 2.541016-.08151.19344-.130738.399035-.158203.875-.02746.475965-.03923 1.239728-.05273 2.601562l-.02734 2.853516H41.07228v-5.869141zm-3.195313 29.117187c-.000391-.00003-.03686.0019-.03711.002-.000246.000035-.09365.04678-.09375.04687-.000261.000261-.01318.01341-.01758.01953-.0044.0061-.0091.01296-.01172.01758-.0053.0092-.0073.01546-.0098.02148-.005.01206-.0074.02084-.0098.0293-.0048.01692-.0081.03239-.01172.05078a2.760516 2.760516 0 0 0-.02344.140625c-.01595.113656-.03451.268707-.05469.453125-.04036.368837-.08598.851767-.128906 1.335938-.04293.48417-.08249.96843-.107422 1.335937-.01247.183754-.02127.338394-.02539.451172-.0021.05639-.0026.101977-.002.138672.000348.01835-.000086.03472.002.05273.001.009.0021.01661.0059.03125.0019.0073.0043.01682.0098.0293.0027.0062.01151.02115.01172.02148.000207.000332.02517.03103.02539.03125.000101.0001.02514.02132.02539.02148.000252.000167.0075.0045.0098.0059.0045.0026.007.0044.0098.0059.0054.0028.0096.0049.01563.0078.01197.0058.02868.01215.04883.02148.0403.01866.09826.04591.173829.08008.15114.06833.371207.166619.654296.292968.56618.2527 1.382441.615503 2.386719 1.060547 2.008556.890089 4.77224 2.111726 7.806641 3.449219 3.034453 1.337515 5.796825 2.549332 7.802734 3.425781 1.002955.438225 1.816329.793354 2.38086 1.03711.282265.121878.501865.215736.652343.279297.07524.03178.133358.0559.173828.07227.02024.0082.03566.01466.04883.01953.0066.0024.01103.0033.01953.0059.0043.0013.0084.0037.01953.0059.0056.0011.02908.0019.0293.002.000219.000006.113213-.04095.113281-.04102h.002c.000211-.000189.02714-.0329.02734-.0332.0002-.000306.0107-.01874.01367-.02539.0059-.01331.0079-.02184.0098-.0293.0038-.01491.0049-.02429.0059-.0332.002-.01784.0035-.03241.0039-.05078.000739-.03675-.000085-.08329-.002-.140625-.0037-.114671-.01176-.272424-.02344-.460938-.02335-.377027-.06071-.875961-.101563-1.378906-.04085-.502945-.08571-1.010023-.125-1.404297-.01965-.197137-.03883-.365117-.05469-.492187-.0079-.06354-.0146-.115912-.02148-.158204-.0069-.04229-.0069-.06397-.02539-.111328-.02014-.05163-.03918-.06398-.05469-.07813-.01551-.01415-.03069-.02394-.04687-.03516-.03236-.02243-.0709-.04607-.121094-.07422-.10039-.0563-.243987-.128992-.439453-.224609-.390931-.191234-.986969-.470481-1.830078-.853516-1.686218-.76607-4.360366-1.952159-8.337891-3.705078-2.935475-1.293676-5.609357-2.464206-7.552734-3.308594-.971688-.422193-1.760376-.764412-2.308594-.998046-.274108-.116817-.487676-.205164-.634765-.265625-.07355-.03023-.131193-.05476-.171875-.07031-.02034-.0078-.03584-.01267-.05078-.01758-.0075-.0025-.0136-.0051-.02539-.0078-.0059-.0014-.02656-.0038-.02734-.0039zm.109375.388672c.01579.0064.0231.0083.04102.01563.144518.0594.35742.149094.630859.265625.546878.233063 1.33535.57212 2.306641.994141 1.942581.844042 4.615735 2.015106 7.550781 3.308593 3.97713 1.752745 6.65043 2.940218 8.333984 3.705079.841778.38243 1.437078.659232 1.822266.847656.192594.09421.331716.166235.421875.216797.03876.02174.06352.03857.08203.05078.002.0087.000195.0029.002.01367.0058.03546.01386.08535.02148.146484.01526.12227.03325.288814.05273.484375.03898.391122.08428.897061.125 1.398438.04072.501376.07647.99755.09961 1.371093.0099.159391.01538.28249.01953.386719-.001-.000438-.000908-.0015-.002-.002-.148895-.06289-.368538-.155644-.650391-.277344-.563706-.243399-1.37815-.598991-2.380859-1.037109-2.00542-.876236-4.766595-2.088383-7.800782-3.425781-3.034236-1.337421-5.798385-2.55731-7.80664-3.447266-1.004128-.444978-1.819087-.80807-2.384766-1.060547-.282839-.126238-.504094-.225063-.654297-.292969-.06224-.02814-.105264-.04729-.142578-.06445.000291-.02224.000826-.03945.002-.07031.0039-.106283.0111-.259518.02344-.441406.02468-.363777.06464-.845666.107422-1.328125.04278-.48246.08895-.964905.128906-1.330079.01927-.176147.03601-.320967.05078-.427734zm-.710937 6.509766c-.0079-.0022-.142465.02531-.142579.02539-.000154.000113-.03695.03883-.03711.03906-.000164.000231-.01075.01754-.01367.02344-.0058.01179-.0078.01758-.0098.02344-.0039.01172-.0062.02008-.0078.02734-.0032.01452-.0052.02796-.0078.04492-.0052.03392-.01095.07879-.01758.134766-.01327.111951-.0303.268558-.04883.455078-.03705.37304-.08207.865164-.125 1.359375-.04293.494211-.08352.989591-.111328 1.363281-.0139.186846-.02502.342628-.03125.455079-.0031.05622-.0052.102456-.0059.136718-.000351.01713-.000629.03005 0 .04492.000314.0074.0021.01501.0039.02734.000907.0062.002.01253.0059.02539.0019.0064.0096.02514.0098.02539.000122.000252.03112.04674.03125.04687.000073.000073.03102.0233.03125.02344.000232.000143.0059.0048.0078.0059.0039.0021.0054.0027.0078.0039.0048.0024.0097.005.01563.0078.01185.0056.02795.01196.04883.02148.04176.01905.104311.04646.183594.08203.158565.07114.389245.175968.6875.308594.59651.265253 1.457432.646114 2.517578 1.115235 2.120292.938241 5.040432 2.22641 8.248047 3.640625 4.624122 2.038736 7.541565 3.317542 9.306641 4.072265.882538.377362 1.475414.623396 1.853515.769531.189051.07307.324711.12048.419922.148438.0476.01398.08237.02491.123047.0293.02034.0022.04161.0052.08008-.0039.0096-.0023.02087-.0062.0332-.01172.01233-.0055.03832-.02478.03906-.02539.000743-.000613.03862-.04417.03906-.04492.000444-.000756.02134-.0577.02148-.05859.0077-.04656.0046-.06105.0039-.09961-.000698-.03856-.0031-.08862-.0059-.148437-.0056-.119629-.01454-.281555-.02734-.47461-.0256-.386108-.06399-.896607-.109375-1.441406-.06701-.804712-.115081-1.305029-.16211-1.621094-.02351-.158032-.04482-.268949-.07422-.357422-.0294-.08847-.06925-.164858-.148438-.214843-.02731-.01723-.02628-.01442-.04102-.02148-.01474-.0071-.03243-.01615-.05664-.02734-.04843-.02238-.117936-.05438-.205078-.09375-.174285-.07874-.42351-.189647-.738282-.330079-.629543-.280862-1.519924-.675912-2.582031-1.146484-2.124214-.941145-4.939136-2.186067-7.75-3.425781-2.810863-1.239714-5.617309-2.474159-7.722656-3.398438-1.052674-.462139-1.929517-.847018-2.544922-1.115234-.307702-.134108-.550709-.23917-.716797-.310547-.08304-.03569-.14523-.06355-.189453-.08203-.02211-.0092-.03954-.01627-.05273-.02148-.0066-.0026-.01275-.0035-.01953-.0059-.0034-.0012-.0058-.0037-.01367-.0059zm.08594.392578c.02238.0096.0342.01407.06055.02539.165062.07094.407403.176553.714844.310547.614882.267988 1.490437.651205 2.542968 1.113282 2.105063.924153 4.911921 2.160732 7.722657 3.40039 2.810735 1.239658 5.626065 2.482807 7.75 3.423828 1.061967.470511 1.951029.865843 2.580078 1.146485.314524.140321.564905.251747.738281.330078.08669.03916.154335.07015.201172.0918.02342.01082.0405.01953.05273.02539.01223.0059.02949.01563.0078.002-.02106-.01329-.0085-.01399.0098.04102.01828.05501.04034.153824.0625.302734.04431.297821.09329.796614.160157 1.59961.04525.543175.08395 1.05401.109375 1.4375.01271.191745.02193.350883.02734.466797.000039.000815-.000037.0011 0 .002-.07841-.02573-.162151-.05353-.30664-.109375-.370144-.14306-.962701-.3889-1.84375-.765625-1.762098-.75345-4.678906-2.031705-9.302735-4.070313-3.207504-1.414165-6.12796-2.704427-8.248046-3.642578-1.060044-.469075-1.919459-.850133-2.515625-1.115234-.298084-.13255-.529584-.235794-.6875-.306641-.06437-.02888-.109438-.04675-.148438-.06445.000923-.02191.0023-.03712.0039-.06641.006-.108465.01548-.265447.0293-.451172.02764-.371451.06849-.864232.111328-1.357422.04284-.49319.08817-.986615.125-1.357422.01697-.17082.03067-.305893.04297-.412109zm-.708984 6.5625c-.0097-.0023-.148307.03699-.148438.03711-.000123.000111-.03307.04079-.0332.04102-.000132.000229-.0076.01632-.0098.02148-.0042.01034-.0064.01648-.0078.02148-.0028.01001-.0046.01487-.0059.02148-.0025.01322-.0035.0264-.0059.04297-.0047.03314-.01124.07898-.01758.134765-.01268.111563-.02846.266628-.04687.453125-.03682.372996-.08297.867206-.126953 1.361328-.04398.494123-.08568.988569-.115234 1.361329-.01478.18638-.02604.341718-.0332.453125-.0036.0557-.0066.09968-.0078.132812-.000606.01657-.000194.03141 0 .04492.000097.0068-.0011.01247 0 .02344.000563.0055.0057.02276.0059.02344.000081.000339.0077.02712.0078.02734.000092.000221.03505.05263.03516.05273.000049.000049.03338.02524.03711.02734.0037.0021.0043.0031.0059.0039.0032.0016.0057.0029.0078.0039.0043.0021.0078.0031.01367.0059.01183.0054.02912.01368.05078.02344.04332.01952.106397.04697.189454.08398.166112.07403.411144.183354.724609.322265.626929.277822 1.53061.67697 2.646484 1.169922 2.23175.985904 5.307714 2.344392 8.6875 3.833987 4.871168 2.14691 7.945038 3.49292 9.804688 4.28906.929825.39807 1.555241.65768 1.953125.8125.198942.0774.340225.12835.439453.1582.04961.0149.08619.0262.126953.0312.02038.003.04193.006.08008-.002.0095-.002.02073-.007.0332-.0117.01248-.005.04024-.0228.04102-.0234.000771-.0006.04056-.0461.04102-.0469.000454-.00075.02329-.0596.02344-.0605.01278-.0802.0056-.15565 0-.28906-.0056-.13341-.01523-.30666-.0293-.50586-.02813-.3984-.07097-.90258-.117187-1.40039-.04621-.49781-.09518-.98837-.138672-1.36133-.02175-.18648-.04305-.34395-.06055-.45898-.0087-.0575-.01537-.10282-.02344-.14063-.004-.0189-.0081-.0369-.01367-.0547-.0028-.009-.0061-.0169-.01172-.0293-.0028-.006-.0061-.0144-.01172-.0234-.0056-.009-.02869-.0326-.0293-.0332-.000339-.00033-.02435-.0205-.0293-.0234-.0049-.003-.0084-.006-.01172-.008-.0065-.004-.01219-.006-.01953-.01-.01467-.007-.03428-.0159-.05859-.0273-.04863-.0228-.11926-.0549-.208985-.0957-.17945-.0816-.438302-.19834-.767578-.3457-.658552-.29471-1.594352-.71192-2.714844-1.20898-2.240983-.994123-5.220864-2.311274-8.199218-3.625003-2.978354-1.313729-5.95514-2.623614-8.189454-3.603516-1.117156-.489951-2.049566-.89759-2.703125-1.18164-.326779-.142026-.583195-.252716-.759765-.328125-.08828-.03771-.155907-.06647-.203125-.08594-.02361-.0097-.04222-.0179-.05664-.02344-.0072-.0028-.01354-.0032-.02148-.0059-.004-.0013-.0079-.0036-.01758-.0059zm.0957.392578c.02672.01132.04184.01742.07422.03125.175295.07487.431358.186241.757812.328125.652908.283768 1.584192.691767 2.701172 1.181641 2.23396.979746 5.211258 2.289856 8.189453 3.603515 2.978195 1.313659 5.956633 2.631036 8.197266 3.624999 1.120316.49698 2.056923.9126 2.714843 1.20703.328961.14722.589326.26462.767579.34571.08913.0405.156717.072.203125.0937.0025.001.0035.00085.0059.002.0051.0261.01093.0559.01758.0996.01642.10796.03709.26093.05859.44531.043.36875.09264.85959.138672 1.35547.04604.49588.08932.99791.117187 1.39258.01393.19733.02388.36799.0293.49609.0011.027-.000407.0228 0 .0469-.08357-.0276-.179234-.0613-.337891-.12305-.390348-.15189-1.014946-.41113-1.943359-.80859-1.856825-.79493-4.929892-2.14228-9.800781-4.28907-3.379716-1.489558-6.453928-2.846183-8.685547-3.832028-1.115809-.492923-2.021728-.892197-2.648438-1.169922-.313354-.138862-.556962-.248418-.722656-.322266-.06747-.03007-.113412-.05-.154297-.06836.0011-.02083.000214-.03545.002-.0625.007-.108268.0185-.263714.0332-.449219.02941-.371009.07133-.864094.115234-1.357422.04391-.493327.09031-.986165.126953-1.357422.01689-.17109.03108-.307428.04297-.414062z" style="color:#000;fill:#666;stroke-linecap:round;-inkscape-stroke:none"/></svg>
