<svg xmlns="http://www.w3.org/2000/svg" viewBox="0 0 128 128"><path d="M62.837891.029297c-6.614597.222725-12.922266 1.655446-18.873047 4.285156-16.231064 7.172671-27.673445 22.186618-30.16211 39.580078-1.079691 7.546047-.503675 15.147741 1.695313 22.38086.912057 3.000008 2.230673 6.181569 3.716797 8.964843 8.543564 16.000797 24.668721 26.300806 42.632812 27.232426 6.337044.32864 13.080167-.63495 19.28125-2.755863 14.630483-5.003992 26.298884-16.44208 31.613284-30.988281 4.26423-11.671749 4.07984-24.869173-.50977-36.351563-1.98307-4.961299-4.83203-9.775945-8.13086-13.742187C93.810481 6.261575 78.799149-.508144 62.837891.029296Zm.0078.263672c15.881207-.534746 30.812104 6.197218 41.052749 18.509765 3.27941 3.942902 6.11532 8.736842 8.08789 13.671875 4.56462 11.419902 4.74917 24.554903.50781 36.164063-5.28695 14.471088-16.896591 25.850093-31.451171 30.828125-6.168802 2.109873-12.880961 3.068943-19.181641 2.742183-17.871727-.92682-33.911382-11.173176-42.412109-27.093746-1.477323-2.766791-2.792666-5.93411-3.699219-8.916015-2.187742-7.196129-2.759853-14.759169-1.685547-22.267578 2.475609-17.302215 13.859394-32.240804 30.007813-39.376953C49.992375 1.93853 56.263483.514602 62.845703.292967Zm-.148425 9.203125c-3.371094.148727-6.727722.699968-9.949219 1.65039-2.437394.719092-4.468701 1.518505-6.761719 2.66211-4.281431 2.135292-7.565208 4.506392-11.013672 7.953125-2.65139 2.650062-4.498254 5.008532-6.380859 8.144531C25.407963 35.209797 23.51463 41.021014 22.859375 47.5c-.177145 1.751575-.178495 5.815633-.002 7.578125.211617 2.112548.589959 4.343043 1.048828 6.193359 2.238657 9.026971 7.399867 17.018403 14.751953 22.841797.457607.362463 1.122008.85803 1.677734 1.259766.277864.200868.528139.378293.712891.503906.09238.06281.168127.111942.224609.146484.02824.01727.05035.0302.07227.04102.01096.0054.02191.01041.03906.01563.0043.0013.0095.0027.01563.0039.0061.0012.02079.0039.02148.0039.000697.000028.04052-.0038.04102-.0039.000492-.000127.06026-.03487.06055-.03516h.002c.000047-.000048.02143-.03115.02148-.03125.000052-.000097.0078-.01548.0078-.01563.000113-.000292.003-.01231.0039-.01563.0018-.0066.0032-.01009.0039-.01367.0013-.0072.0028-.01195.0039-.01953.0021-.01516.0029-.03524.0059-.06055.0059-.05061.01396-.124014.02344-.216797.01896-.185564.04515-.451772.07617-.779297.06205-.65505.144425-1.553606.232422-2.541015.08796-.987039.171042-1.887243.232422-2.541016.03069-.326886.05577-.593307.07422-.777344.005-.05027.0078-.07759.01172-.115234.02366.01001.03731.01493.06641.02734.147569.06297.363785.157992.638672.277343.549775.238703 1.33467.580055 2.275391.992188 1.881443.824266 4.387931 1.927916 6.896484 3.033203s5.018744 2.212465 6.90625 3.048828c.943753.418182 1.732781.767849 2.28711 1.015625.277164.123888.496231.222757.646484.291016.07513.03413.132689.06173.171875.08008.0029.0014.0032.0026.0059.0039.0059.03441.01502.08348.02344.148438.01748.134922.03828.329468.0625.566406.04844.473875.107023 1.121577.164062 1.826172.05714.705723.112543 1.356697.15625 1.839844.02185.241573.04203.441175.05664.583984.0073.0714.01246.129741.01758.171875.0026.02107.0057.03653.0078.05078.0022.01425-.000295.01738.0098.04687.00018.000527.01141.02682.01172.02734.00031.000521.0089.01397.01367.01953.0095.01112.01935.01765.02734.02344.01599.01158.02774.01695.03906.02148.02265.0091.0427.01325.06445.01758.0435.0087.09492.01591.160157.02148.130468.01116.310726.0184.529296.02344.437141.01007 1.027489.0082 1.664063-.002 1.261001-.02021 2.685293-.07644 3.449219-.15625l.0098.002.02344-.0039c1.383754-.147893 3.137446-.419769 4.419922-.685547 9.865764-2.044481 18.712291-7.659784 24.86914-15.785156 2.630216-3.471154 4.782446-7.514122 6.177736-11.607422.28334-.831212.59259-1.843813.83203-2.695313.11972-.425749.22239-.811025.29492-1.113281.0725-.302256.11719-.504777.11719-.634766 0-.000222-.029-.08172-.0293-.08203-.00024-.000306-.0162-.01725-.0215-.02148-.0105-.0085-.0163-.01262-.0215-.01563-.0104-.006-.0177-.0093-.0273-.01367-.0192-.0088-.0444-.01848-.0762-.03125-.0636-.02554-.1568-.06173-.2793-.107422-.245-.09139-.60881-.222747-1.08789-.394531-.958255-.343544-2.376315-.845198-4.218844-1.492164-3.685051-1.293932-9.06683-3.168958-15.853516-5.523437-5.919527-2.053634-11.299095-3.923047-15.197266-5.279297-1.949085-.678125-3.526357-1.228384-4.617187-1.609375-.340058-.118771-.541573-.188769-.783203-.273438.232736.01615.415762.02843.734375.05078 1.089787.07646 2.664679.187908 4.607422.326172 3.885484.276526 9.242553.660222 15.132812 1.083984 5.890319.423756 11.270124.810061 15.191406 1.089844 1.960646.139891 3.556436.251503 4.669926.330078.55674.03929.99231.071 1.29297.0918.15032.0104.26676.01805.34765.02344.0404.0027.0731.0045.0957.0059.0226.0014.0279.0017.0449.002.0519.000777.0938.0029.13867-.0039.0449-.0068.10204-.02708.14258-.07422.0405-.04714.0501-.101187.0527-.146485.003-.0453-.001-.08965-.006-.144531-.11536-1.337369-.28205-2.711258-.45508-3.748047-.10538-.631439-.21714-1.243019-.31054-1.705078-.0467-.231029-.0888-.423205-.12305-.564453-.0171-.07062-.0313-.129283-.0449-.173828-.007-.02227-.0142-.04067-.0215-.05859-.007-.01792-.005-.03191-.041-.06836-.00007-.000065-.0739-.03706-.0742-.03711-.00035-.000055-.009.000193-.0117 0-.005-.000385-.008-.0019-.0117-.002-.007-.000152-.0155-.000055-.0254 0-.0198.00011-.0475.0012-.084.002-.0729.0014-.18024.0041-.32032.0078-.28016.0075-.69145.01898-1.2207.03516-1.0585.03235-2.58758.08115-4.472656.142578-3.770147.12285-8.965894.297508-14.677734.492188-5.711746.194681-10.907192.367955-14.675781.492187-1.884295.06212-3.411454.113228-4.46875.146485-.327023.01029-.520277.01638-.753907.02344.199079-.065.352542-.115232.623047-.203125.949452-.308497 2.324096-.752917 4.021485-1.300781 3.394778-1.095728 8.079349-2.605389 13.236328-4.261719 5.157052-1.656353 9.847943-3.163851 13.251953-4.259766 1.702005-.547957 3.083388-.994069 4.039062-1.302734.477838-.154333.848731-.273329 1.101563-.355469.12642-.04107.22353-.07222.28906-.09375.0328-.01076.0569-.01959.0742-.02539.009-.0029.0162-.006.0215-.0078.003-.00093.005-.00087.008-.002.001-.000541.003-.000675.006-.002.003-.0013.0351-.02143.0352-.02148.00036-.000301.0369-.05027.0371-.05078.00023-.000513.009-.02693.01-.03711.002-.02036.002-.0333 0-.04297-.003-.01933-.007-.02903-.0117-.04102-.009-.02397-.019-.04859-.0332-.07813-.0284-.05907-.07-.136582-.12305-.232422-.10611-.191682-.25932-.453204-.433594-.744141-.34855-.581874-.787289-1.284316-1.128906-1.796875-.780845-1.171568-1.617942-2.30836-2.542969-3.449219l-.767578-.945312-.599609.302734c-.16515.08302-2.131104 1.097509-5.029297 2.595703-2.898193 1.498195-6.719191 3.474566-10.566406 5.464844-7.694431 3.980556-15.488786 8.015402-16.212891 8.394531l-.369141.19336c.0489-.05179.05172-.05571.126953-.134766.179104-.188185.431974-.454614.751954-.789062.639959-.668897 1.545193-1.612197 2.648437-2.761719 2.206488-2.299045 5.206305-5.421656 8.466797-8.810547 3.260557-3.388951 6.226637-6.475884 8.378906-8.71875 1.076135-1.121433 1.94842-2.030144 2.552735-2.662109.302157-.315983.537292-.564054.697265-.732422.07999-.08418.141962-.147046.183594-.191407.02082-.02218.0356-.04043.04687-.05273.0056-.0062.0097-.01113.01367-.01563.002-.0022.0052-.0046.0078-.0078.0013-.0016.0012-.0022.0039-.0059.0027-.0037.01949-.03505.01953-.03516.000174-.000497.0058-.03654.0059-.03711.000032-.000573-.000443-.02227-.002-.03125-.003-.01796-.0069-.03118-.01172-.04102-.0096-.01967-.01915-.02955-.02734-.03906-.01638-.01904-.03184-.03316-.05078-.04883-.03789-.03133-.08834-.06607-.152343-.109375-.128008-.0866-.309473-.20187-.533204-.335937-.447892-.268103-1.059645-.614006-1.709415-.964813-3.35859-1.813287-7.478914-3.290683-11.378906-4.080078-3.278852-.66367-6.664063-.918259-10.035156-.769531Zm.01172.263672c3.350043-.147799 6.713617.104407 9.970703.763672 3.872621.783855 7.974784 2.255833 11.306641 4.054687.646631.349112 1.254604.693727 1.697266.958984.221331.132629.402845.246537.523437.328125.03351.02267.04871.03546.07227.05274-.03984.04231-.08662.09088-.154297.162109-.159593.167968-.395209.414591-.697266.730469-.604114.631755-1.476659 1.542692-2.552734 2.664062-2.152149 2.242741-5.118415 5.329867-8.378906 8.71875-3.260555 3.388957-6.260198 6.509433-8.466797 8.808594-1.1033 1.14958-2.008304 2.094593-2.648438 2.763672-.320066.334539-.572555.598615-.751953.787109-.179398.188494-.279198.292457-.310547.328125l-.316406.361328.160156.205079 1.023438-.535157c.716199-.37499 8.516543-4.413994 16.210937-8.394531 3.847197-1.990268 7.668253-3.966669 10.566407-5.464844 2.898154-1.498174 4.882387-2.52186 5.02539-2.59375l.41211-.207031.632812.779297c.920158 1.134855 1.75312 2.265124 2.529297 3.429687.337608.506545.774518 1.208531 1.121094 1.78711.173288.289289.324206.547358.427736.734375.0407.07356.0676.125936.0918.173828-.0638.02091-.14304.04601-.253911.08203-.252549.08205-.623799.203113-1.101563.357422-.955527.308618-2.335148.752838-4.037109 1.300781-3.403922 1.095887-8.094949 2.605381-13.251953 4.261719-5.157078 1.656361-9.843321 3.163979-13.238282 4.259766-1.69748.547893-3.071724.992184-4.021484 1.300781-.47488.154299-.844017.275281-1.09375.357422-.124866.04107-.219034.07214-.283203.09375-.03208.01081-.05712.01936-.07422.02539-.0085.003-.01515.0054-.02148.0078-.0032.0012-.0058.0012-.01172.0039-.003.0014-.01542.0096-.01563.0098-.000209.000131-.02349.20503-.02344.205078.000048.000048.07779.03707.07813.03711.000333.000039.0075.0018.0098.002.0045.000211.0085-.000025.01172 0 .0065.000052.01377.000123.02344 0 .01934-.000244.04775-.0011.08398-.002.07247-.0017.178568-.0038.318359-.0078.279583-.008.689977-.02048 1.21875-.03711 1.057548-.03326 2.586334-.08436 4.470703-.146484 3.768739-.124237 8.963955-.297504 14.675782-.492187 5.711732-.194676 10.907786-.369344 14.677734-.492188 1.88497-.06142 3.41253-.110236 4.4707-.142578.52909-.01617.94119-.02765 1.22071-.03516.13976-.0038.24673-.0064.31836-.0078.007-.000137.009.000114.0156 0 .0102.03505.023.07634.0371.134766.0328.135476.0748.327611.12109.55664.0926.458059.20368 1.066667.3086 1.695313.17133 1.026585.3383 2.397441.45312 3.728516.003.03937.004.05967.004.08008-.0177.001-.0329.0025-.0664.002.01.000119-.0113-.000592-.0332-.002-.0219-.0014-.0535-.0032-.0937-.0059-.0805-.0054-.19549-.01305-.3457-.02344-.30043-.02078-.7363-.05056-1.29297-.08984-1.11336-.07857-2.70932-.192142-4.669924-.332031-3.921205-.279778-9.30113-.666091-15.191407-1.089844-5.890315-.423766-11.247227-.80745-15.132812-1.083984-1.942792-.138267-3.517469-.249703-4.607422-.326172-.544976-.03824-.967954-.06822-1.255859-.08789-.143953-.0098-.255685-.01667-.330079-.02148-.0372-.0024-.06446-.0047-.08398-.0059-.0098-.000562-.01741.000265-.02344 0-.003-.000132-.0063.000062-.0098 0-.0017-.00003-.0035-.00013-.0078 0-.0043.000131-.07809.02731-.07813.02734v.002h-.002c-.000039.000033.02318.218616.02344.21875.000256.000135.0077.005.0098.0059.0041.0018.0068.0027.0098.0039.006.0023.01388.0043.02344.0078.01911.007.04719.01813.08398.03125.07359.02625.182676.06476.326172.115235.286991.100952.71035.248924 1.255859.439453 1.09102.381057 2.67.93123 4.619141 1.609375 3.898282 1.356289 9.277678 3.223689 15.197265 5.277344 6.786503 2.354416 12.167084 4.229706 15.851563 5.523437 1.84224.646866 3.26166 1.149004 4.21875 1.492188.47854.171592.84107.303915 1.08398.394531.1189.04435.20798.07769.26758.101562-.009.08094-.0342.237689-.0957.494141-.0713.297046-.17194.68005-.29102 1.103516-.23815.846931-.54698 1.858819-.82812 2.683593-1.38567 4.065075-3.52622 8.085482-6.138673 11.533204-6.118693 8.075015-14.908526 13.654194-24.710938 15.685546-1.270648.263328-3.021394.534883-4.394531.681641-.735454.07862-2.190534.135924-3.458984.15625-.634225.01016-1.223061.01189-1.654297.002-.215618-.005-.391656-.01317-.511719-.02344-.04415-.0038-.07113-.0077-.09766-.01172-.0046-.03847-.009-.08769-.01563-.152344-.01442-.140963-.03289-.339109-.05469-.580078-.0436-.481938-.09917-1.13287-.15625-1.837891-.05716-.706147-.115339-1.355422-.164062-1.832031-.02436-.238304-.04641-.433032-.06445-.572265-.009-.06962-.01805-.124317-.02539-.166016-.0037-.02085-.0056-.03823-.0098-.05469-.0021-.0082-.0058-.01672-.0098-.02734-.002-.0053-.0033-.01117-.0078-.01953-.0022-.0042-.0095-.01524-.0098-.01563-.00027-.000385-.01732-.01928-.01758-.01953-.000292-.000276-.02143-.01714-.02539-.01953-.004-.0024-.0051-.0044-.0078-.0059-.0054-.0029-.01143-.0048-.01758-.0078-.01228-.0061-.02835-.01385-.04883-.02344-.04095-.01917-.09822-.04573-.173828-.08008-.151205-.06869-.371022-.167015-.648437-.291015-.554831-.248001-1.343217-.599335-2.28711-1.017578-1.887785-.836488-4.39757-1.943485-6.90625-3.048828-2.508679-1.105343-5.016713-2.208814-6.898437-3.033204-.940863-.412194-1.725099-.75326-2.275391-.992187-.275146-.119464-.49204-.213945-.640625-.277344-.07429-.0317-.130267-.05593-.169922-.07227-.01983-.0082-.03487-.01492-.04687-.01953-.006-.0023-.01108-.0037-.01758-.0059-.0032-.0011-.0077-.0021-.01563-.0039-.0079-.0019-.122944.03505-.123047.03516h-.002a31.560207 31.560207 0 0 0-.02344.03516c-.000045.00009-.0078.01549-.0078.01563-.000098.000278-.0032.0106-.0039.01367-.0015.0061-.0014.0084-.002.01172-.0012.0067-.0029.01215-.0039.01953-.002.01477-.0031.03543-.0059.06055-.0056.05023-.01416.122306-.02344.214844-.01856.185075-.0435.450145-.07422.777343-.06144.654398-.142475 1.55559-.230469 2.542969-.08796.987009-.170443 1.886699-.232422 2.541016-.03099.327158-.05733.592994-.07617.777344-.0041.04009-.0064.05965-.0098.0918-.04048-.0263-.07295-.04726-.126953-.08398-.181044-.123092-.430498-.29814-.707032-.498047-.552983-.399843-1.215902-.895928-1.667883-1.253935-7.307074-5.78774-12.435558-13.728936-14.660157-22.699219-.455066-1.834984-.830665-4.056346-1.041015-6.15625-.172462-1.721765-.171021-5.815061.002-7.52539.651726-6.444095 2.529547-12.212228 5.693359-17.482422 1.873447-3.120745 3.704336-5.455658 6.34375-8.09375 3.432059-3.430336 6.683491-5.779759 10.94336-7.904297 2.281313-1.137767 4.294112-1.929203 6.71875-2.644531 3.20037-.94419 6.536675-1.492827 9.886718-1.640625zm-11.01758 15.460937c-.307138 0-.56802.110197-.736328.324219-.168307.214022-.242187.513462-.242187.884765v.322266l-4.47461 4.367188-4.552734 4.445312-.0039 1.484375-.0039 1.5625H43.300794v9.404297H41.677747V53.007812h2.541016v.04883c0-.0039-.007.127507-.02148.310546-.01447.18304-.03663.436939-.0625.742188-.05173.610498-.122659 1.427541-.201172 2.304687-.115443 1.289737-.181819 2.090746-.210938 2.578125-.01456.24369-.01919.407794-.01563.521485.0018.05685.0052.100506.01367.140625.0085.04012.01335.08818.08008.130859.0016.001.01961.01102.0293.01563.0097.0046.02302.01215.03906.01953.03209.01476.07616.03413.134765.06055.11721.05283.287799.128295.503906.22461.432215.19263 1.050698.468202 1.810547.804687 1.519699.67297 3.602327 1.592717 5.882813 2.597656h.002l.01953.0098c.0016.00072.0023-.000719.0039 0 3.288917 1.449282 5.36343 2.358445 6.609375 2.888672.625166.266047 1.043724.438193 1.310547.539062.133412.05043.227835.0829.296875.101563.03452.0093.0607.01572.09375.01758.01652.000931.0352.0026.06641-.0078.0078-.0026.01604-.0064.02539-.01172.0093-.0053.02876-.02096.0293-.02148.0011-.0011.04076-.07472.04102-.07617.000177-.001.0018-.02015.002-.02539.000109-.0052.00009-.0086 0-.01367-.00018-.01012-.0013-.02258-.002-.03711-.0013-.02906-.0027-.06859-.0059-.119141-.0063-.101094-.0161-.244576-.0293-.427734-.02639-.366316-.06565-.888573-.115234-1.527344-.09916-1.277542-.240381-3.023658-.396484-4.929688-.307002-3.748549-.548383-6.720067-.556641-6.839843.05007-.0031.104821-.0052.183594-.0078.196096-.0064.469874-.01172.769531-.01172h1.224609v-4.992262h-1.623065v-9.404297h1.623046v-3.001953l-4.55664-4.464844-4.476563-4.386719v-.285156c0-.38383-.08276-.696839-.263672-.917969-.180907-.221129-.458085-.333984-.785156-.333984zm0 .263672c.269346 0 .451869.08157.580078.238281.12821.156715.205078.404805.205078.75v.396485l4.556641 4.464843 4.476563 4.386719V38.347656h-1.623047V48.279297h1.623047v4.464844h-.960938c-.301993 0-.576901.0032-.777344.0098-.100221.0033-.182988.0072-.242187.01172-.0296.0023-.05274.0044-.07422.0078-.01074.0017-.01922.0047-.03516.0098-.004.0013-.0081.0015-.01367.0039-.0056.0024-.02101.01142-.02148.01172-.000475.000304-.03492.03095-.03516.03125-.000119.000153-.01752.03305-.01758.0332-.00006.000153-.0098.04868-.0098.04883 0 .01956.256179 3.164783.568359 6.976563.156078 1.905719.295418 3.65075.394531 4.927734.04956.638492.08891 1.159977.115235 1.525391.01298.180204.02308.320605.0293.419922-.05262-.01693-.0991-.0303-.189453-.06445-.259363-.09805-.676988-.269694-1.300781-.535157-1.247586-.530924-3.321968-1.438355-6.630859-2.896484l-.01953-.0078c-2.271622-1.001046-4.348768-1.91917-5.863281-2.589843-.75974-.336437-1.378688-.610263-1.810547-.802735-.215929-.09624-.385392-.172071-.501953-.224609-.05828-.02627-.103831-.04632-.134765-.06055-.000688-.000316-.0013.00031-.002 0-.0024-.01673-.0047-.03586-.0059-.07422-.003-.09693.0013-.257829.01563-.498047.0287-.480435.09555-1.2812.210938-2.570312.07854-.877505.149388-1.695546.201171-2.306641.02589-.305547.04796-.55827.0625-.742187.01454-.183918.02148-.278714.02148-.332031v-.3125h-2.541016v-4.464844h1.625V38.347656h-1.625l.0039-1.296875.0039-1.375 4.472656-4.367187 4.554687-4.445313v-.433594c.000001-.334832.07068-.57215.1875-.720703.116823-.148552.279178-.224609.527344-.224609zm-5.779297 12.863281V48.279297H48.847656l.02539-2.546875c.01081-1.090403.01972-1.703151.04102-2.072266.0213-.369114.05-.481642.105469-.613281.472376-1.121111 1.346462-1.780739 2.470703-1.875 1.46564-.122863 2.797.918917 3.035157 2.375.01446.0884.03429.442378.04687.898437.01259.45606.02137 1.026892.02148 1.603516v2.236328l1.457031-.02148 1.453125-.02148.01758-4.945312.01953-4.949219h-5.814454zm.265625.263672h11.097657l-.01758 4.683594-.01758 4.6875L56.046875 48l-1.189453.01758v-1.96875c-.00011-.578996-.0088-1.152227-.02148-1.611328-.01267-.459101-.02715-.789096-.05078-.933594-.260219-1.590977-1.713803-2.730048-3.316406-2.595703-1.216696.102013-2.187579.841351-2.691406 2.037109-.0653.154959-.104953.31794-.126953.699219-.022.381279-.0302.993067-.04102 2.083985l-.02344 2.287109H46.177734v-4.701172zm-2.589843 23.324219c-.000197.000028-.07609.03898-.07617.03906-.000209.00021-.01346.01532-.01367.01563-.000216.000301-.0057.01-.0078.01367-.0042.0074-.0078.01275-.0098.01758-.004.0097-.0059.01666-.0078.02344-.0038.01355-.0069.02628-.0098.04102-.0057.02947-.01119.06581-.01758.111329-.01278.09105-.0268.21555-.04297.363281-.03233.295462-.07108.684413-.105469 1.072265-.03439.387853-.06597.773963-.08594 1.06836-.01.147198-.01623.270985-.01953.361328-.0016.04517-.0025.08193-.002.111328.000279.0147.00032.02658.002.04102.000817.0072.0029.01562.0059.02734.0015.0059.0034.01344.0078.02344.0022.005.0076.01731.0078.01758.000165.000266.01936.02326.01953.02344.000081.00008.02128.01744.02148.01758.000202.000134.006.0029.0078.0039.0036.0021.0056.0047.0078.0059.0044.0023.0089.0035.01367.0059.0096.0046.02097.0101.03711.01758.03229.01495.08009.03709.140625.06445.121074.05474.296665.13316.523438.234375.453546.202429 1.107617.4931 1.912109.849609 1.608984.71302 3.823155 1.6903 6.253907 2.761719 2.430794 1.071437 4.643135 2.044001 6.25 2.746094.803432.351046 1.455978.634814 1.908203.830078.226112.09763.400942.17174.521484.222656.06027.02546.106253.04549.138672.05859.01621.0066.02851.01172.03906.01563.0053.0019.01077.0038.01758.0059.0034.001.01503.0038.01563.0039.000296.000058.02131.0019.02148.002.000176.000005.09174-.03315.0918-.0332h.002c.000169-.000151.02132-.0271.02148-.02734.00016-.000245.01157-.01919.01172-.01953.000302-.000676.0063-.01747.0078-.02344.003-.01194.0031-.01825.0039-.02539.0016-.01429.0017-.02825.002-.04297.000592-.02944.0015-.0654 0-.111328-.003-.09186-.01018-.218129-.01953-.369141-.01871-.302023-.04735-.702577-.08008-1.105469-.03272-.402891-.07009-.809161-.101563-1.125-.01574-.157919-.03027-.29274-.04297-.394531-.0063-.0509-.01207-.09307-.01758-.126953-.0055-.03388-.0047-.04995-.01953-.08789-.01613-.04136-.0325-.05117-.04492-.0625s-.02415-.02031-.03711-.0293c-.02593-.01796-.05745-.03604-.09766-.05859-.08042-.0451-.194981-.105045-.351562-.181641-.313162-.153191-.791412-.374805-1.466797-.681641-1.35077-.613671-3.491479-1.564548-6.677734-2.96875-2.351507-1.036318-4.494011-1.973981-6.050782-2.65039-.778385-.338205-1.410451-.611672-1.849609-.798828-.219579-.09358-.389984-.166411-.507812-.214844-.05891-.02422-.10413-.04223-.136719-.05469-.01629-.0062-.02905-.0097-.04102-.01367-.006-.002-.01204-.0037-.02148-.0059-.0047-.0011-.02086-.0039-.02148-.0039-.000313-.000024-.0291-.000028-.0293 0zm.117187.310547c.0122.005.01749.0061.03125.01172.115769.04759.286817.119542.505859.212891.438085.186699 1.06959.460762 1.847657.798828 1.556134.676133 3.697665 1.614224 6.048828 2.650391 3.185939 1.404062 5.327144 2.354094 6.675781 2.966797.674319.306351 1.150424.528747 1.458984.679687.154281.07547.267621.133325.339844.173828.03146.01764.05162.02928.06641.03906.0017.0073.000413.0023.002.01172.0046.02841.0095.06821.01563.117187.01222.09795.02736.232015.04297.388672.03122.313314.06699.717505.09961 1.119141.03262.401635.06155.800376.08008 1.099609.008.128607.01427.226832.01758.310547-.0018-.00074-.0021-.0012-.0039-.002-.119275-.05038-.295702-.125167-.521485-.222657-.451564-.194979-1.103014-.479117-1.90625-.830078-1.606471-.701921-3.819419-1.672797-6.25-2.74414-2.43062-1.071361-4.645163-2.05076-6.253906-2.763672-.804371-.356456-1.45701-.645406-1.910156-.847656-.226573-.101126-.403116-.181931-.523438-.236329-.05072-.02293-.08519-.03891-.115234-.05273.000247-.01745.0011-.03084.002-.05469.0031-.08514.0096-.207812.01953-.353516.01977-.291408.05167-.676018.08594-1.0625s.07151-.773878.103515-1.066406c.01547-.141416.02917-.258184.04102-.34375zm-.570312 5.216797c-.0063-.0017-.11319.01946-.113282.01953-.000124.00009-.03112.03106-.03125.03125-.000131.000185-.0096.0173-.0098.01758-.000277.000559-.0063.01484-.0078.01953-.0031.0094-.0046.01567-.0059.02148-.0025.01163-.0057.02352-.0078.03711-.0042.02717-.0084.06258-.01367.107422-.01063.08968-.02422.213867-.03906.363281-.02968.298829-.06522.693949-.09961 1.089844-.03439.395895-.06757.792446-.08984 1.091797-.01114.149675-.01845.275154-.02344.365234-.0025.04504-.0053.08193-.0059.109375-.000281.01372-.000504.0252 0 .03711.000252.006.000499.01161.002.02148.000727.0049.0057.01894.0059.01953.000089.000295.0077.02128.0078.02148.000098.000202.02528.03505.02539.03516.000058.000058.0252.01942.02539.01953.000186.000114.0043.0031.0059.0039.0031.0017.0059.0029.0078.0039.0039.0019.007.0036.01172.0059.0095.0045.02234.0099.03906.01758.03345.01526.08102.03791.144532.06641.127021.05699.313813.139852.552734.246094.477843.212485 1.166379.518735 2.015625.894531 1.698491.751593 4.037913 1.783138 6.607422 2.916016 3.704222 1.633161 6.041137 2.657136 7.455078 3.261719.70697.302291 1.183445.500123 1.486328.617187.151442.05853.257715.09674.333984.119141.03813.0112.06703.01992.09961.02344.01629.0018.03364.0034.06445-.0039.0077-.0018.01747-.0034.02734-.0078.0099-.0044.03066-.02099.03125-.02148.000595-.000491.0309-.03455.03125-.03516.000355-.000606.01746-.04811.01758-.04883.0062-.0373.0025-.04723.002-.07813-.000559-.03089-.0017-.07123-.0039-.119141-.0045-.09583-.01123-.224257-.02148-.378906-.02051-.309298-.05154-.719831-.08789-1.15625-.05368-.644626-.09319-1.04564-.13086-1.298828-.01884-.126595-.03699-.216237-.06055-.28711-.02355-.07087-.05375-.131834-.117187-.171875-.02188-.0138-.0214-.01192-.0332-.01758-.01181-.0057-.02748-.01252-.04687-.02148-.03879-.01793-.0923-.04268-.16211-.07422-.139613-.06308-.339644-.15313-.591796-.265625-.504305-.224989-1.217543-.54101-2.06836-.917969-1.701633-.753918-3.9573-1.751049-6.208984-2.74414-2.251684-.993092-4.499027-1.982249-6.185547-2.722657-.84326-.370203-1.546083-.677719-2.039063-.892578-.246489-.107429-.441171-.190869-.574218-.248047-.06652-.02859-.116919-.0516-.152344-.06641-.01771-.0074-.03045-.01341-.04102-.01758-.0053-.0021-.01019-.004-.01563-.0059-.0027-.000955-.0054-.000224-.01172-.002zm.07031.314453c.01752.0075.02636.01071.04687.01953.132226.05683.325985.140709.572266.248047.49256.214676 1.195916.522425 2.039062.892578 1.686292.740307 3.933965 1.72961 6.185547 2.722656 2.251582.993047 4.507574 1.990322 6.208984 2.744141.850706.376909 1.562498.693156 2.066407.917969.251954.112406.450958.200923.589843.263671.06944.03137.124591.05688.16211.07422.01876.0087.03317.01483.04297.01953.0098.0047.02323.01291.0059.002-.01687-.01065-.0068-.01086.0078.0332.01465.04407.03303.1229.05078.242187.0355.238574.07339.637999.126953 1.28125.03625.435119.06752.843191.08789 1.150391.01019.1536.01715.282145.02148.375-.06275-.02063-.12911-.04148-.244141-.08594-.296509-.1146-.772738-.3115-1.478515-.613281-1.411555-.603562-3.747186-1.626708-7.451172-3.259766-2.56942-1.132838-4.909095-2.166448-6.607422-2.917968-.849164-.37576-1.538057-.680216-2.015625-.892578-.238784-.106182-.42428-.189341-.550781-.246094-.05213-.02339-.08779-.04045-.119141-.05469.000733-.01714.0027-.02817.0039-.05078.0048-.08689.01237-.21255.02344-.361328.02214-.297556.05553-.692813.08984-1.087891.03432-.395077.0701-.788897.09961-1.085937.01355-.136458.02532-.245056.03516-.330078zm-.568359 5.255859c-.0078-.0018-.120989.0292-.121094.0293-.000098.000089-.02528.03302-.02539.0332-.000106.000184-.0077.0173-.0078.01758-.000228.000556-.0047.01162-.0059.01563-.0022.008-.0029.01423-.0039.01953-.002.01059-.004.01993-.0059.0332-.0037.02654-.0086.06274-.01367.107421-.01015.08937-.02236.213885-.03711.363282-.02949.298794-.06633.695972-.101563 1.091797-.03523.395824-.07008.791239-.09375 1.089843-.01184.149303-.01965.274038-.02539.363282-.0029.04462-.0049.07893-.0059.105468-.000486.01327-.0021.02433-.002.03516.000078.0054.0011.01074.002.01953.000451.0044.0038.01899.0039.01953.000065.000272.0058.02131.0059.02148.000074.000178.02921.04289.0293.04297.000039.000039.02717.02139.02734.02148.000174.000098.0046.0013.0059.002.0025.0013.0041.0031.0059.0039.0034.0016.007.0037.01172.0059.0095.0044.02366.0098.04102.01758.03471.01564.08581.03871.152344.06836.133067.05931.328973.146536.580078.257812.502211.222554 1.227206.542614 2.121094.9375 1.787776.789773 4.249603 1.877052 6.957031 3.070313 3.902123 1.719814 6.365769 2.79779 7.855469 3.435547.74485.318878 1.245722.528322 1.564453.652343.159366.06201.272075.101086.351563.125.03974.01196.06891.02135.101562.02539.01633.002.0339.0044.06445-.002.0076-.0016.0154-.0037.02539-.0078.01-.0041.03259-.01905.0332-.01953.000618-.000481.03284-.03651.0332-.03711.000364-.000602.01942-.05006.01953-.05078.01024-.06428.0045-.123597 0-.230469-.0045-.106873-.01217-.244724-.02344-.404297-.02253-.319146-.05673-.722317-.09375-1.121094-.03702-.398777-.07844-.793032-.113281-1.091797-.01742-.149382-.03286-.275037-.04687-.367187-.007-.04608-.01306-.083-.01953-.113281-.0032-.01514-.0073-.02876-.01172-.04297-.0022-.0071-.0033-.01351-.0078-.02344-.0023-.005-.0053-.0123-.0098-.01953-.0045-.0072-.02295-.02688-.02344-.02734-.000272-.000261-.01948-.01518-.02344-.01758-.004-.0024-.0071-.0044-.0098-.0059-.0052-.0028-.0097-.0049-.01563-.0078-.01175-.0058-.0274-.0143-.04687-.02344-.03896-.01827-.09414-.04348-.166016-.07617-.143751-.06539-.351462-.159301-.615234-.277344-.527543-.236085-1.278195-.568619-2.175781-.966797-1.795173-.796355-4.182504-1.851913-6.56836-2.904297-2.385855-1.052383-4.770716-2.101753-6.560547-2.886718-.894915-.392483-1.640519-.719723-2.164062-.947266-.261771-.113771-.467931-.201311-.609375-.261719-.07072-.0302-.124285-.05472-.162109-.07031-.01891-.0078-.03337-.01314-.04492-.01758-.0058-.0022-.01121-.0038-.01758-.0059-.0032-.0011-.0059-.0021-.01367-.0039zm.07617.314453c.02128.009.03285.01439.05859.02539.140423.05997.345911.14806.607422.261719.523022.227316 1.269289.554845 2.164063.947265 1.789547.784841 4.174819 1.834392 6.560547 2.886719 2.385727 1.052327 4.771514 2.106113 6.566406 2.902344.897446.398115 1.646791.732891 2.173828.96875.263519.117929.472443.210436.615234.27539.0714.03248.126887.05874.164063.07617.0025.0012.0035.000849.0059.002.004.02085.0065.04358.01172.07813.01316.08648.02965.211679.04687.359375.03444.295393.07445.686749.111328 1.083985.03688.397235.07143.799075.09375 1.115234.01116.158079.0191.295815.02344.398438.000905.02142-.000328.01797 0 .03711-.06695-.02207-.142473-.04822-.269532-.09766-.312694-.121673-.812921-.330044-1.55664-.648438-1.487438-.636788-3.949664-1.715831-7.851563-3.435547-2.707372-1.193235-5.171313-2.280586-6.958984-3.070312-.893836-.394863-1.619059-.715024-2.121094-.9375-.251017-.111238-.445393-.198656-.578125-.257813-.05449-.02428-.09216-.03994-.125-.05469.000924-.01693.0025-.02865.0039-.05078.0056-.08673.01361-.210774.02539-.359375.02356-.297203.05858-.69075.09375-1.085938.03517-.395187.07025-.79049.09961-1.087891.01349-.136611.02564-.246687.03516-.332031zm-5.574219 36.984374c-.539633 0-.984397.20014-1.216797.57617-.029.0469-.06844.12499-.134766.26172-.06633.13673-.154149.32397-.261718.55274-.215138.45752-.505827 1.08484-.847657 1.82617-.683658 1.48266-1.570038 3.41857-2.447265 5.34765-.877227 1.92909-1.745915 3.85095-2.398438 5.30665-.326261.72784-.599217 1.33998-.791015 1.77734-.0959.21868-.171853.39241-.22461.51758-.02638.0626-.04578.11281-.06055.15039-.0074.0188-.01282.0353-.01758.0488-.0048.0136-.0094.0181-.01367.0469-.0598.40318.165273.82109.535157 1.00586.152641.0763.323091.13665.466796.13672.161597.00012.332664-.0527.488282-.13086.155617-.0782.295459-.17826.380859-.30859.03201-.0489.06484-.11819.125-.24219.06016-.124.138385-.29069.230469-.48828.184168-.3952.421494-.91572.667969-1.46485l.861328-1.91601h9.175781l.873047 1.93359c.483676 1.07071.770184 1.67845 1.001953 2.04297.115884.18226.220833.30482.333984.39063.113152.0858.233818.12915.357422.15234.639611.11998 1.248047-.38644 1.248047-1.03711 0-.065-.01553-.11332-.04297-.19727-.02744-.0839-.06959-.19415-.126953-.33789-.114735-.28748-.295828-.71099-.5625-1.31445-.533344-1.20692-1.409393-3.13657-2.789062-6.14844-.965481-2.10767-1.859087-4.04868-2.521485-5.47656-.331199-.71394-.605171-1.29981-.800781-1.71484-.09781-.20752-.175789-.3712-.232422-.48828-.02832-.0585-.05094-.10608-.06836-.14063-.01742-.0345-.02459-.0489-.04297-.0762-.268047-.39776-.645689-.5918-1.144531-.5918zm54.203125.0332c-1.00378-.18442-2.953975-.12046-3.904297.13086-3.214669.85015-5.591155 3.35904-6.34375 6.69141-.181728.80459-.216876 2.6155-.07227 3.49609.381698 2.3243 1.583554 4.32944 3.427735 5.71289 1.00506.75398 2.382284 1.29704 3.769531 1.5293l.01367.0215.05664.008c.128089.0202.358588.0322.650391.0391.291803.007.638621.007.970703 0 1.369751-.0291 2.182075-.188 3.25-.63867 3.241976-1.36808 5.309459-4.57809 5.3125-8.23633.0026-4.41218-2.898942-7.97641-7.130859-8.75391zm-66.470703.0527c-.363239.0479-.703362.28799-.871094.68164-.06185.14517-.07331.36107-.08789.90625-.01459.54518-.01758 1.40436-.01758 2.76172v3.25781h-9.476557v-3.27344c-.00005-1.55068-.0026-2.40646-.01953-2.9082-.01697-.50174-.05023-.6675-.117188-.80078-.347594-.69184-1.249928-.85107-1.757812-.29688-.186815.20385-.270411.39698-.306641.70118-.0057.0476-.0071.11675-.0098.24414-.0027.12738-.0057.30118-.0078.51757-.0043.4328-.0076 1.03458-.0098 1.75977-.0043 1.45039-.0039 3.39787.002 5.49414l.02149 7.66406.193359.27149c.110362.15472.281021.3083.441406.38086.01791.008.03842-.005.05664.002.474703.18211 1.044808.0104 1.332031-.42773.03789-.0578.06862-.1345.08789-.25.01927-.11551.03308-.27757.04297-.53321.01977-.51127.02593-1.40122.03516-3.02734l.01953-3.41797h9.472656v3.27344c.000125 1.05304.007 1.92794.01953 2.5625.0063.31727.01445.57484.02344.76367.0045.0944.0084.17182.01367.23242.0053.0606.0078.0984.01953.14063.235015.84616 1.419742 1.04022 1.910156.3125l.181641-.26953V111.07423l-.175781-.22461c-.264718-.33654-.652387-.47952-1.015625-.43164zm77.287106.11914-.3164.31641-.31641.3164v7.98438c.00013 3.80934.002 5.79459.0195 6.85547.009.53043.0199.82861.0391 1.01562.0192.18701.0545.27931.0937.34375.0933.15298.25884.3038.42188.38672.50594.25727 1.12971.0575 1.4375-.44727h.002c.036-.0593.07-.13178.0918-.23437.0218-.10259.0337-.23736.043-.45117.0185-.42762.0215-1.17571.0215-2.5918v-2.84961l2.31446.0176 2.38281.0176 2.40039 3.11914c.67129.87181 1.30146 1.67963 1.77734 2.27929.23794.29983.4374.54641.58399.72461.0733.0891.13382.16205.17968.21485.0459.0528.0605.0764.10743.11133.4946.36821 1.21636.21144 1.57422-.32422.1337-.20017.20072-.41053.18164-.625-.0191-.21448-.11944-.42291-.28516-.64063-.14556-.19122-1.12914-1.46293-2.19141-2.83203-.5309-.68426-1.01742-1.3148-1.37304-1.78125-.17781-.23322-.32237-.42641-.42383-.5625-.0421-.0565-.0716-.0969-.0977-.13281.001-.00062.00056-.001.002-.002.0797-.0355.21867-.0832.4082-.13477 1.32752-.36097 2.55249-1.18188 3.20703-2.16797.88523-1.33368 1.00206-3.42768.2832-4.94141-.48458-1.0204-1.19648-1.71289-2.31836-2.26171-.67443-.32994-1.03103-.50519-1.79297-.5918-.76193-.0866-1.92811-.091-4.28515-.10547zm-.0586 17.21875.0469.0234.0488-.0137zm-49.367174-17.2109c-2.10354 0-3.11041-.005-3.650391.0508-.26999.0281-.43243.0712-.552734.15625-.120305.0851-.174135.19424-.242188.30664-.03883.0641-.07236.15713-.0918.3418-.01943.18467-.03238.4788-.04102 1.00391-.01728 1.05021-.01758 3.01996-.01758 6.8125v7.91015l.193359.27149c.110361.15472.28102.3083.441406.38086.484532.21905 1.090404.0292 1.388672-.42578.037-.0564.06642-.13055.08594-.23633.01952-.10579.03296-.24919.04297-.47071.02001-.44302.02779-1.20119.03711-2.57421l.01953-2.88868h4.646484l2.283204 2.96485c.638624.82985 1.245518 1.61263 1.708984 2.20703.231733.2972.428019.54762.574219.73242.146199.1848.237299.29889.279297.3457.234248.26112.516343.41257.808593.4336.292251.021.587792-.09.832032-.32031.349011-.32918.439029-.76681.234375-1.17383-.01838-.0366-.04184-.0697-.08008-.125-.03824-.0553-.08983-.12508-.152343-.21094-.12502-.17172-.296303-.4034-.501953-.67578-.411302-.54477-.958069-1.25883-1.544922-2.01172-.586353-.75225-1.119554-1.43965-1.50586-1.94141-.193152-.25087-.35108-.45517-.458984-.59765-.02055-.0271-.02994-.04-.04687-.0625.02445-.004.04729-.005.07813-.0117.05716-.0128.125226-.0309.203125-.0527.155798-.0437.346699-.10232.537109-.16796 1.81297-.62504 3.009144-1.82098 3.435547-3.45313v-.002c.175502-.67327.175434-2.01063-.002-2.67774-.523176-1.96758-2.173739-3.3254-4.507812-3.73242-.504676-.088-1.381399-.10547-4.433594-.10547zm-3.960938 17.23438.01953.008.02344.002zm17.423828-17.2168c-.27351.008-.433409.0203-.548828.043-.115418.0226-.189997.0625-.25.0996-.05128.0317-.103612.056-.160156.0977-.05654.0417-.112682.10365-.152344.1875-.07932.16772-.114481.41464-.140625.91407-.05229.99885-.04687 3.01155-.04687 7.25781 0 3.60593.0031 5.53783.01953 6.59766.0082.52991.01948.8406.03711 1.03906.01763.19846.04495.29657.08398.36914.0837.15561.233141.32.378907.41601l.0332.0215h.02148c.05133.0288.102928.059.191406.0762.113714.022.269947.0358.535157.0449.530418.0182 1.49403.0195 3.349609.0195 2.046504.00003 3.216305-.009 4.015625-.0586.79932-.0498 1.232307-.14426 1.771484-.30664 1.78236-.53681 3.045332-1.74215 3.408203-3.28125.131716-.55852.145722-1.54331.0293-2.10156-.290306-1.39213-1.422563-2.49204-3.201172-3.1543l-.07031-.0273.125-.0703c1.442758-.81798 2.175671-1.95449 2.283203-3.54492.07272-1.07553-.21916-2.03112-.832031-2.79492-.612871-.7638-1.540799-1.33268-2.730469-1.66016-.275661-.0759-.473421-.11948-1.070312-.14257-.596892-.0231-1.606863-.0303-3.552735-.041-1.975532-.0109-2.980322-.0157-3.527344 0zm-29.05664.0352c.437122 0 .695775.1333.925781.47461-.0085-.0127.0091.0146.02539.0469.01627.0323.03845.0789.06641.13672.05592.1156.134824.27925.232422.48633.195195.41415.46776.99923.798828 1.71289.662136 1.42731 1.556152 3.36726 2.521484 5.47461 1.379531 3.01156 2.256921 4.94228 2.789063 6.14648.266071.6021.446222 1.02313.558594 1.30469.05619.14078.09471.2475.11914.32227.02443.0748.03125.12517.03125.11523 0 .48515-.458534.86682-.935547.77734-.100018-.0188-.17103-.0431-.248047-.10156-.07702-.0584-.163118-.15685-.269531-.32422-.212826-.33473-.499487-.9407-.982422-2.00976l-.943359-2.08789h-9.519531l-.929688 2.07226c-.246015.5481-.482576 1.06731-.666015 1.46094-.09172.19681-.171322.36246-.230469.48437-.05915.12191-.1068.21195-.107422.21289-.04245.0648-.152821.15327-.279297.2168-.126476.0635-.270532.10359-.369141.10352-.03347-.00002-.230541-.0499-.349609-.10938-.260238-.13-.430601-.45482-.390625-.73047v-.002c.003-.008.0093-.0189.01563-.0352.01334-.0339.03268-.083.05859-.14453.05183-.12297.127028-.29756.222656-.51562.191256-.43612.46296-1.0479.789063-1.77539.652204-1.45499 1.521358-3.37593 2.398437-5.30469.877079-1.92876 1.761966-3.86567 2.445313-5.34766.341673-.74099.633031-1.36778.847656-1.82422.107312-.22821.196217-.4138.261719-.54882.0655-.13503.114389-.22744.121093-.23828.175416-.28383.515735-.44922.992188-.44922zm54.15625.0273c4.112333.75552 6.914679 4.19735 6.912109 8.49414-.003 3.55907-2.007606 6.66792-5.15039 7.99414-1.044847.44093-1.800362.58845-3.152344.61719-.327783.007-.671652.007-.958985 0-.287332-.007-.524494-.0208-.615234-.0352-1.372025-.2174-2.741621-.77381-3.722656-1.50976-1.790426-1.34313-2.954886-3.28403-3.326172-5.54492-.133473-.81279-.09326-2.67033.07031-3.39454.732614-3.24388 3.032407-5.66853 6.154297-6.49414.870955-.23033 2.85944-.29775 3.789063-.12695zm-77.871094.0547c.248863.0434.48374.20708.621094.48047.04541.0904.07318.19893.08984.6914.01666.49248.01948 1.35002.01953 2.90039v3.53711h10.003906v-3.52148c0-1.35674.0051-2.21461.01953-2.75391.01443-.53929.05079-.77389.06641-.81054.133179-.31256.386705-.48544.660156-.52149.273451-.0361.565066.0647.77539.33203l.119141.15039v15.89453l-.136719.20508c-.368058.54616-1.258986.39937-1.435547-.23633.000557.002-.0069-.0388-.01172-.0937-.0048-.0549-.0093-.1284-.01367-.2207-.0088-.18459-.01718-.44002-.02344-.75586-.01252-.63167-.01941-1.50866-.01953-2.56055v-3.5371h-9.998047l-.02148 3.68164c-.0092 1.62584-.01574 2.51756-.03516 3.01953-.0097.25098-.02341.40421-.03906.49804-.01566.0938-.0297.12121-.04883.15039-.224908.3431-.70533.48784-1.058594.32813-.08056-.0365-.25832-.18494-.333984-.29102l-.146484-.20312-.01953-7.58008c-.0059-2.09583-.0062-4.04449-.002-5.49414.0021-.72483.0055-1.32415.0098-1.75586.0021-.21585.0032-.38995.0059-.51562.0026-.12568.0073-.21442.0078-.21875.03299-.277.07705-.37468.240234-.55274.194012-.2117.456215-.28947.705078-.24609zm88.843752.12109 4.06055.0254c2.35712.0144 3.52516.0222 4.25781.10547.73265.0833 1.02989.2361 1.70508.56641 1.08363.53011 1.73333 1.16392 2.19531 2.13672.67276 1.41664.55573 3.44714-.26367 4.68164-.60746.91516-1.78628 1.71565-3.05469 2.06054-.19616.0533-.34311.10003-.44727.14649-.0521.0232-.0926.0453-.13086.0781-.0191.0164-.0392.0356-.0547.0684s-.0214.0857-.006.12696c.00028.00074.007.0153.01.0195.002.004.004.007.006.01.004.006.007.0129.0117.0195.009.0134.0207.0288.0352.0488.0288.0401.0698.0953.12109.16406.10249.13748.24764.32884.42578.5625.35629.46733.84176 1.1004 1.37305 1.78516 1.06215 1.36896 2.05175 2.64466 2.19141 2.82813.14709.19324.21727.35762.23046.50585.0132.14824-.0267.29034-.13671.45508-.28037.41966-.83086.5306-1.19727.25782.0218.0162-.0233-.0226-.0664-.0723-.0431-.0496-.1014-.12094-.17382-.20898-.14486-.1761-.34467-.4216-.58204-.72071-.47472-.59821-1.10478-1.40641-1.77539-2.27734l-2.47851-3.21875-2.51172-.0195-2.58008-.0195v3.11523c0 1.41584-.004 2.16511-.0215 2.58008-.009.20748-.0209.33167-.0371.4082-.0162.0765-.0316.10461-.0606.15235-.24229.39736-.7129.54227-1.0918.3496h-.002c-.00064-.00032-.001-.002-.002-.002-.0995-.0515-.26308-.20287-.31446-.28711-.024-.0394-.0373-.0649-.0547-.23437-.0174-.1695-.0305-.46431-.0391-.99219-.0171-1.05575-.0194-3.04228-.0195-6.85156v-7.875l.24024-.23828zm-49.535158.008c3.050995 0 3.930154.0235 4.388672.10352 2.257789.39372 3.8012 1.67491 4.296875 3.53906.152816.57471.155826 1.96016.0039 2.54297-.404066 1.54665-1.518119 2.66834-3.267578 3.27149-.185595.064-.371899.12209-.521485.16406-.07479.021-.141174.0376-.191406.0488-.05023.0113-.09247.0156-.08789.0156-.05088.00011-.09701.005-.138672.0137-.02112.005-.04131.0106-.06641.0234-.01255.006-.02745.013-.04492.0312-.0087.009-.02485.0379-.02539.0391-.000545.001-.01367.0594-.01367.0605 0 .00007.0039.0331.0039.0332.00003.00011.0058.0155.0059.0156.000117.00029.0043.0106.0059.0137.0032.006.0039.009.0059.0117.0039.006.0074.0114.01172.0176.0086.0124.02053.0289.03516.0488.02925.0398.07261.0962.126954.16797.108695.14353.263637.34842.457031.59961.386788.50238.921194 1.18882 1.507812 1.94141.586114.75194 1.134764 1.46651 1.544922 2.00976.205079.27163.37457.50033.498047.66993.06174.0848.112278.15469.148438.20703.03616.0523.06058.0938.06055.0937.161459.32111.108821.58922-.179687.86133-.199618.18825-.416237.26544-.630859.25-.214623-.0155-.434981-.12518-.632813-.34571-.02236-.0249-.122033-.15001-.267578-.33398-.145545-.18397-.342724-.43358-.574219-.73047-.462988-.59379-1.068711-1.37562-1.707031-2.20508l-2.361328-3.07031H50.084104l-.02148 3.15234c-.0093 1.37267-.01758 2.13199-.03711 2.56446-.0098.21623-.0237.35031-.03906.43359-.01537.0833-.02729.11076-.04687.14062-.224927.34308-.707295.48783-1.060547.32813-.08056-.0365-.258323-.18494-.333984-.29102l-.144531-.20312v-7.82617c0-3.79249.000387-5.76362.01758-6.8086.0086-.52248.02152-.81378.03906-.98047.01754-.16668.03134-.19063.05664-.23242.07333-.12113.106851-.1853.167969-.22851.06112-.0432.175902-.0832.427734-.10938.503664-.0524 1.519164-.0488 3.623047-.0488zm13.470703.0176c.536033-.0154 1.542104-.0109 3.517578 0 1.945762.0108 2.957609.0183 3.544922.041s.739225.0583 1.009766.13281c1.148036.31602 2.022224.85999 2.59375 1.57227.571525.71227.844219 1.59332.77539 2.61132-.102794 1.52036-.761826 2.54588-2.148437 3.33204l-.619141.35156.601563.22461c1.723911.64189 2.767096 1.67353 3.035156 2.95898.101846.48835.08822 1.49824-.02734 1.98828-.338559 1.43598-1.517356 2.57448-3.228516 3.08985-.529004.15931-.925706.24597-1.710937.29492-.785231.049-1.954285.0567-4 .0566-1.855461-.00003-2.820085.00028-3.339844-.0176-.259879-.009-.409629-.0223-.496094-.0391-.08646-.0167-.104905-.0306-.15039-.0605-.08713-.0574-.238858-.22334-.291016-.32031-.0187-.0348-.03638-.0834-.05273-.26758-.01636-.18418-.02891-.49195-.03711-1.01953-.01641-1.05516-.01758-2.98792-.01758-6.59375 0-4.2465-.0063-6.26499.04492-7.24414.02563-.48957.07152-.71791.117188-.81445.02283-.0483.04014-.0657.07031-.0879.03017-.0222.07702-.0466.140625-.0859.05472-.0339.0753-.0474.16211-.0645.08681-.017.237843-.0314.505859-.0391zm23.457031 1.24219c-1.143699 0-1.316916.0194-1.894531.19727-2.328147.71686-3.984159 2.47819-4.636719 4.92578-.161203.60467-.187067.86154-.191406 1.88281-.004 1.00458.02103 1.27937.164062 1.82617.731009 2.79353 2.578457 4.63185 5.259766 5.22656.828593.1838 2.204657.14944 3.060547-.0742l.09961-.0254v-.0195c.635793-.18188 1.497374-.55874 1.988282-.89648 3.333095-2.29324 3.970368-7.40745 1.335937-10.6543-.861281-1.0615-1.929492-1.7722-3.291016-2.1914-.57826-.17805-.750576-.19727-1.894531-.19727zm-22.857422.16016v6.13086h2.773438c.746515 0 1.466295-.008 2.039062-.0215.572768-.0136.988502-.0303 1.164063-.0547l.113281-.0156v-.0352c.980904-.15866 1.781937-.48416 2.300781-1.01953.544439-.56178.803927-1.32099.751953-2.21875-.03717-.64218-.248436-1.18547-.636718-1.61719-.388283-.43171-.947532-.74914-1.671875-.96289-.389149-.11483-.86272-.13407-3.578125-.1582zm-16.726562.0723V119.41823h3.054687c2.039282 0 2.721482-.0284 3.175782-.0937l-.04102.0566.332031-.0644c1.514371-.29138 2.619441-1.09942 3.064453-2.27149.127182-.33498.182956-.80835.181641-1.2832-.0013-.47486-.05984-.94663-.189453-1.27539-.251526-.63785-.900649-1.30314-1.580078-1.63477-.496198-.2422-.775506-.37359-1.363282-.43945-.587775-.0659-1.483488-.0722-3.271484-.0859zm53.355468 0v7.12695l3.32617-.0254c1.56019-.0121 2.36008-.0185 2.83789-.043.38542-.0198.53234-.0681.7168-.12305v.0273l.17188-.0566c1.60518-.53342 2.56123-1.54017 2.72851-2.91015.18711-1.53241-.47928-2.83512-1.77734-3.44727-.51356-.2422-.79669-.37417-1.38282-.43945-.58612-.0653-1.47496-.0702-3.25976-.084zm-13.771484.0312c1.141759 0 1.245742.01 1.816406.18555 1.318835.40606 2.333482 1.08181 3.164063 2.10547 2.53552 3.12494 1.91314 8.07368-1.28125 10.27148-.471299.32425-1.407656.74645-2.003906.90235l-.0078.002c-.793615.20563-2.173337.23808-2.929687.0703-2.594884-.57554-4.35167-2.31873-5.0625-5.03516-.139694-.53405-.158289-.75725-.154297-1.75781.0043-1.0174.02508-1.22182.183594-1.8164.632183-2.37117 2.212908-4.0506 4.458984-4.74219.569994-.1755.67491-.18555 1.816406-.18555zm-22.59375.16211 2.990235.0273c2.714389.0241 3.166494.0444 3.505859.14454.691809.20415 1.203908.50104 1.550781.88671.346873.38568.533978.863.56836 1.45704.0486.83944-.186004 1.51214-.677735 2.01953s-1.250862.85159-2.261719.99218c-.130965.0182-.562764.0392-1.132812.0527-.570048.0135-1.28863.0215-2.033203.0215h-2.509766v-2.80078zm-16.726562.0723 3.095703.0234c1.787968.0138 2.686406.0213 3.246094.084.559687.0627.781409.17394 1.277343.41601.610802.29813 1.233246.94645 1.449219 1.49414.106856.27105.168668.72517.169922 1.17774.0013.45257-.0581.91036-.164063 1.18945-.407984 1.07455-1.417759 1.82659-2.867187 2.10547-.36596.0704-1.19176.0977-3.416016.0977h-2.791015v-3.29492zm53.355466 0 3.09571.0234c1.78482.0138 2.67424.0218 3.23242.084.55818.0622.78504.17176 1.29883.41406 1.20045.56613 1.80489 1.7364 1.6289 3.17774-.15474 1.26731-1.00664 2.17892-2.54883 2.6914-.23949.0796-.35511.11483-.82031.13867-.46519.0239-1.26608.0308-2.82617.043l-3.06055.0234v-3.29883zm-66.646482.15429c-.000256.00009-.04651.027-.04687.0274-.000361.00031-.01237.01-.01563.0137-.0033.004-.0058.007-.0078.01-.0079.0108-.01058.0187-.01563.0273-.01009.0174-.02259.0382-.03711.0664-.02903.0565-.06854.13929-.11914.24415-.10121.2097-.243539.50982-.414063.875-.341048.73034-.795853 1.7164-1.257812 2.72656-.46196 1.01016-.931739 2.04406-1.304688 2.875-.372949.83094-.646007 1.45141-.724609 1.65625-.0078.0204-.01611.0507-.0098.0879.0063.0372.03104.0731.05469.0937.0473.0412.08739.047.136718.0566.09865.0194.245347.0293.507813.0371.524931.0157 1.496231.0176 3.277344.0176h4.08789l-.210937-.48438c-.241752-.55903-1.163732-2.6087-2.033203-4.5293-.434736-.96029-.856801-1.88835-1.171875-2.57812-.157538-.34488-.287754-.63103-.38086-.83203-.04655-.1005-.08303-.17894-.109375-.23438-.01317-.0277-.0252-.0484-.0332-.0644-.004-.008-.0064-.0153-.0098-.0215-.0017-.003-.0034-.006-.0059-.01-.0012-.002-.0034-.004-.0059-.008-.0024-.004-.01351-.0194-.01367-.0195-.00015-.00016-.136463-.0333-.136719-.0332zm.03711.41993c.01388.0298.02081.0468.03711.082.09273.20018.223426.48542.380859.83007.314867.68932.737228 1.61607 1.171875 2.57618.869295 1.9202 1.793318 3.97714 2.03125 4.52734l.05078.11523h-3.685546c-1.780876 0-2.753596-.002-3.269532-.0176-.223294-.007-.328835-.0169-.402343-.0273.08953-.22201.324209-.75664.671875-1.53125.372568-.83009.840985-1.8653 1.302734-2.875.461749-1.00969.915313-1.99534 1.255859-2.72461.170274-.36463.313811-.66533.414063-.87304.01743-.0361.02619-.0517.04102-.082zm29.716797 6.64843v6.27735l3.46875-.0332c2.749437-.0256 3.422132-.0477 3.855469-.14843l.103516-.0234v-.0156c.293511-.0794.69865-.22449.996093-.37109.949009-.46774 1.475541-1.16056 1.652344-2.17578.239616-1.37599-.519977-2.57312-1.955078-3.11328-.456395-.17179-.851914-.2731-1.542969-.32813-.691055-.055-1.682663-.0682-3.359375-.0684zm.263672.26563h2.955078c1.675449.00015 2.663863.0127 3.337891.0664.674028.0537 1.030679.14419 1.472656.31055 1.345911.50659 2.006564 1.56206 1.78711 2.82227-.165569.95071-.616185 1.54395-1.509766 1.98437-.305186.15042-.789554.33027-1.041016.38867-.381137.0886-1.052583.11699-3.800781.14258l-3.201172.0293v-2.8711z" style="color:#000;fill:#666;stroke-linecap:round;-inkscape-stroke:none"/></svg>
