<svg xmlns="http://www.w3.org/2000/svg" viewBox="0 0 128 128"><path fill="#666666" d="M60.602 127.848c-22.414-1.164-42.532-14.016-53.192-33.98a64.268 64.268 0 0 1-4.637-11.18C.031 73.663-.687 64.18.66 54.761c3.106-21.7 17.38-40.43 37.633-49.38C45.715 2.103 53.582.317 61.836.04c19.914-.672 38.64 7.77 51.48 23.211 4.114 4.945 7.672 10.957 10.145 17.145 5.727 14.324 5.957 30.789.637 45.351-6.63 18.149-21.188 32.418-39.442 38.66-7.738 2.649-16.152 3.852-24.054 3.442Zm8.43-11.95a62.547 62.547 0 0 0 5.511-.855c12.3-2.55 23.332-9.55 31.008-19.684a52.403 52.403 0 0 0 7.703-14.472c.703-2.07 1.547-5.063 1.547-5.504 0-.07-9.95-3.563-26.926-9.453-14.809-5.137-26.914-9.352-26.902-9.36.011-.011 12.078.848 26.816 1.907 14.734 1.062 26.91 1.93 27.059 1.933.25.004.27-.02.246-.285a64.163 64.163 0 0 0-.567-4.676c-.265-1.574-.562-3.054-.632-3.12-.02-.024-11.73.358-26.02.847-14.29.484-25.992.87-26.008.855-.015-.015 10.528-3.418 23.43-7.562 12.902-4.145 23.473-7.547 23.492-7.563.055-.047-1.285-2.289-2.137-3.562a57.605 57.605 0 0 0-3.172-4.305l-.875-1.078-.632.32c-.774.387-37.985 19.637-39.785 20.578l-1.282.672.399-.453c.218-.246 7.07-7.387 15.226-15.863 8.16-8.48 14.844-15.445 14.856-15.48.027-.079-1.403-.934-3.024-1.813-4.187-2.258-9.328-4.102-14.187-5.086-8.176-1.652-16.887-1.27-24.918 1.101-3.043.895-5.57 1.891-8.434 3.32-5.34 2.665-9.426 5.614-13.73 9.915-3.309 3.308-5.61 6.242-7.957 10.156-3.973 6.613-6.332 13.856-7.149 21.938-.218 2.164-.218 7.265 0 9.445.262 2.633.735 5.418 1.305 7.723 2.793 11.257 9.227 21.222 18.395 28.484 1.14.898 3.32 2.477 3.367 2.43.015-.012.207-2.047.425-4.516.223-2.469.415-4.5.426-4.516.032-.03 25.07 11 25.164 11.09.043.04.196 1.516.336 3.278.145 1.765.278 3.265.301 3.332.059.168 5.453.082 7.324-.118Zm-20.528-15.117a3870.508 3870.508 0 0 1-12.336-5.449c-.027-.027.324-3.957.355-3.984.032-.032 23.848 10.472 23.934 10.554.078.075.43 3.883.387 4.16-.02.118-2.578-.976-12.34-5.28Zm.012-7.226c-6.43-2.836-11.703-5.168-11.723-5.188-.035-.035.309-3.96.348-3.988.027-.024 22.457 9.867 22.636 9.98.118.075.172.461.309 2.075.09 1.09.152 2.046.14 2.125-.019.117-2.445-.922-11.71-5.004Zm.011-7.23c-6.078-2.68-11.078-4.895-11.101-4.919-.059-.054.281-3.87.347-3.937.028-.024 4.86 2.074 10.743 4.668 7.968 3.511 10.71 4.758 10.761 4.89.075.188.391 4.094.34 4.145-.02.016-5.008-2.164-11.09-4.848Zm.067-7.204c-5.703-2.516-10.426-4.605-10.489-4.644-.09-.059-.042-.836.243-4.063.199-2.195.359-4.094.359-4.215v-.226h-3.18v-5.914h2.032V47.965h-2.032l.004-1.785.004-1.79 5.649-5.511 5.644-5.512v-.472c0-.883.367-1.348 1.059-1.348.746 0 1.148.488 1.148 1.402v.426l5.649 5.535 5.652 5.535v3.52h-2.031v12.094h2.03v5.914h-1.37c-.75 0-1.367.02-1.367.047 0 .023.32 3.945.71 8.71.391 4.77.7 8.735.684 8.817-.02.117-2.12-.777-10.398-4.426Zm-4.395-22.086c.024-2.726.043-3.062.196-3.422.609-1.445 1.765-2.32 3.226-2.445a3.728 3.728 0 0 1 3.973 3.11c.05.292.09 1.71.09 3.156v2.629l1.656-.024 1.652-.023.024-6.024.023-6.027H40.824v12.094h3.344Zm0 0"/></svg>
