<svg xmlns="http://www.w3.org/2000/svg" viewBox="0 0 128 128"><path d="M60.6357 127.9215C38.2103 126.7585 18.0812 113.9 7.4152 93.9242c-1.8545-3.4731-3.5017-7.4454-4.6398-11.1888C.0303 73.706-.6884 64.2158.6596 54.795 3.766 33.083 18.0502 14.3387 38.3126 5.3845 45.7412 2.1018 53.6118.3152 61.8701.0371c19.9264-.671 38.6635 7.777 51.5119 23.2248 4.1165 4.9494 7.6746 10.9636 10.15 17.1566 5.7285 14.3318 5.96 30.8088.6373 45.3775-6.6341 18.1585-21.2016 32.4378-39.465 38.6843-7.7409 2.6476-16.1602 3.8513-24.0686 3.4412zm8.4332-11.955c1.7252-.1845 3.9192-.5248 5.5169-.856 12.308-2.5505 23.3439-9.5556 31.0257-19.6935 3.2808-4.3297 5.9664-9.3762 7.7067-14.4816.7064-2.0725 1.5487-5.0677 1.5487-5.5075 0-.0714-9.953-3.5662-26.9407-9.4597-14.8174-5.1405-26.9305-9.3549-26.918-9.3653.0126-.01 12.0862.849 26.8303 1.9098 14.7442 1.0607 26.9288 1.93 27.0769 1.932.2506.0036.2676-.0167.2445-.2838-.144-1.6699-.3524-3.386-.568-4.6773-.2631-1.577-.5622-3.0569-.6319-3.1265-.0207-.0208-11.7355.361-26.0329.8483-14.2973.4873-26.0077.8733-26.0232.8578-.0155-.0155 10.5335-3.4203 23.4422-7.5664 12.9087-4.146 23.4859-7.5513 23.505-7.5674.0573-.0482-1.2863-2.291-2.1364-3.5666-.9744-1.4619-2.0202-2.8796-3.175-4.3037l-.8754-1.0798-.6337.3186c-.7714.3878-38.0045 19.6496-39.8072 20.5934l-1.2807.6706.3975-.4523c.2186-.2487 7.075-7.3928 15.2365-15.8757s14.8491-15.452 14.8614-15.487c.0279-.0795-1.4029-.9368-3.0254-1.8128-4.1868-2.2604-9.3323-4.1052-14.1962-5.0897-8.1802-1.6558-16.8953-1.2713-24.9326 1.1-3.0426.8976-5.5733 1.8941-8.4358 3.3217-5.345 2.6658-9.4343 5.6189-13.74 9.9224-3.311 3.3092-5.6125 6.2464-7.963 10.1617-3.9722 6.6169-6.3326 13.8625-7.1505 21.9495-.2191 2.1664-.22 7.2707-.0015 9.451.264 2.6361.7354 5.4226 1.3073 7.7288 2.793 11.2623 9.2323 21.2327 18.4057 28.4987 1.1384.9018 3.3218 2.4801 3.3675 2.4344.0153-.0154.208-2.0496.4283-4.5207.2202-2.4711.411-4.5036.424-4.5166.0328-.0327 25.0872 11.0064 25.1806 11.0948.0416.0393.1926 1.516.3355 3.2817.143 1.7656.2786 3.265.3014 3.332.0576.169 5.456.0824 7.3254-.1174zm-20.5363-15.125c-6.777-2.9868-12.332-5.4408-12.3445-5.4533-.0267-.0265.3233-3.959.3549-3.9875.0336-.0303 23.861 10.4797 23.9481 10.5634.0776.0744.4311 3.882.3864 4.1625-.0183.1154-2.5777-.9802-12.3449-5.285zm.0095-7.2336c-6.4317-2.8357-11.7092-5.171-11.7278-5.1896-.0342-.0342.307-3.9624.3467-3.9914.0292-.0214 22.4688 9.8754 22.6494 9.9893.1165.0736.1743.4618.3085 2.0737.0909 1.0908.1544 2.0486.1412 2.1285-.019.1152-2.4462-.9226-11.718-5.0105zm.0133-7.231c-6.0843-2.6819-11.0836-4.8973-11.1095-4.9232-.056-.056.2822-3.871.3492-3.938.0255-.0255 4.8619 2.0759 10.7476 4.6697 7.9752 3.5147 10.7188 4.7612 10.7703 4.893.0733.1882.3908 4.0976.3367 4.146-.0175.0156-5.01-2.1657-11.0943-4.8475zm.0656-7.2092c-5.7082-2.5154-10.43-4.6064-10.493-4.6466-.0926-.0592-.046-.8384.2428-4.066.1966-2.196.3574-4.094.3574-4.2176v-.2249h-3.1798v-5.918H37.58V47.9937h-2.0316l.0041-1.7886.0041-1.7887 5.649-5.5152 5.649-5.5152v-.4718c0-.8838.3662-1.3495 1.0612-1.3495.7464 0 1.147.4896 1.147 1.402v.4269l5.653 5.539 5.653 5.539v3.5221h-2.0316v12.1009H60.3687v5.918h-1.369c-.753 0-1.3691.02-1.3691.0446 0 .0245.3196 3.9478.7104 8.7185.3907 4.7706.6987 8.7395.6845 8.8197-.0207.1164-2.1215-.7777-10.4044-4.4277Zm-4.3988-22.0983c.027-2.73.0463-3.064.1975-3.4227.6109-1.4498 1.7649-2.3242 3.2298-2.447 1.92-.161 3.6634 1.2027 3.9752 3.1095.0477.2915.087 1.7133.0872 3.1596l.0005 2.6297 1.6562-.024 1.6561-.024.0227-6.0283.0227-6.0284h-14.222v12.1009h3.344z" fill="#666666"/></svg>
