<?xml version="1.0" encoding="UTF-8" standalone="no"?>
<svg
   width="128"
   height="128"
   viewBox="0 0 128 128"
   version="1.1"
   id="svg44"
   sodipodi:docname="Ada.svg"
   inkscape:version="1.1.1 (3bf5ae0d25, 2021-09-20)"
   xmlns:inkscape="http://www.inkscape.org/namespaces/inkscape"
   xmlns:sodipodi="http://sodipodi.sourceforge.net/DTD/sodipodi-0.dtd"
   xmlns="http://www.w3.org/2000/svg"
   xmlns:svg="http://www.w3.org/2000/svg"
   xmlns:rdf="http://www.w3.org/1999/02/22-rdf-syntax-ns#"
   xmlns:cc="http://creativecommons.org/ns#"
   xmlns:dc="http://purl.org/dc/elements/1.1/">
  <defs
     id="defs48" />
  <sodipodi:namedview
     id="namedview46"
     pagecolor="#505050"
     bordercolor="#ffffff"
     borderopacity="1"
     inkscape:pageshadow="0"
     inkscape:pageopacity="0"
     inkscape:pagecheckerboard="1"
     showgrid="false"
     inkscape:zoom="3.21875"
     inkscape:cx="89.631068"
     inkscape:cy="23.456311"
     inkscape:window-width="1920"
     inkscape:window-height="1009"
     inkscape:window-x="-8"
     inkscape:window-y="-8"
     inkscape:window-maximized="1"
     inkscape:current-layer="svg44" />
  <title
     id="title2">file_type_ada</title>
  <path
     d="m 103.14708,82.577769 c 0.95648,1.235646 6.20569,4.397984 6.26976,5.702276 A 31.673717,31.673717 0 0 0 103.00979,86.79727 C 100.868,86.147412 98.657571,85.456366 96.547821,84.600567 a 42.103482,42.103482 0 0 1 -10.869106,-5.949405 14.39756,14.39756 0 0 1 -6.576381,-11.29014 7.8806734,7.8806734 0 0 1 8.086615,-8.33832 16.402052,16.402052 0 0 1 7.290309,1.469045 c 0.668164,0.302047 5.995172,2.773338 5.748042,3.702361 a 25.17056,25.17056 0 0 0 -6.452817,-0.512564 c -2.970127,1.116657 -1.830587,3.789313 -0.768847,5.999746 a 36.048818,36.048818 0 0 0 4.93343,7.111827 c 0.75054,0.887834 4.045594,5.816688 5.208014,5.784652 z"
     style="fill:#0f23c3;stroke-width:4.57647"
     id="path4" />
  <path
     d="m 101.257,65.191777 c 0.58579,-2.700114 3.74813,-6.333828 6.15077,-3.537608 a 19.221155,19.221155 0 0 1 2.6452,8.777661 c 0.54918,3.002161 0.91529,6.07297 1.19446,9.070555 0.1739,1.73448 1.556,8.210178 0.5629,9.496165 A 106.35706,106.35706 0 0 1 98.437901,76.010541 17.221239,17.221239 0 0 1 94.20467,68.23055 c -0.457646,-4.910547 4.022713,-3.34082 7.05233,-3.038773 z"
     style="fill:#1a1978;stroke-width:4.57647"
     id="path6" />
  <path
     d="m 111.13759,72.079358 c 0.64528,-3.349973 -1.85804,-11.862199 -4.88309,-13.495997 a 0.27458792,0.27458792 0 0 0 0.20137,-0.03203 c -0.71393,-2.031951 -6.21942,5.107335 -5.6199,5.37277 -1.446164,-0.631552 3.54218,-9.079707 4.52155,-9.885165 3.20352,-2.645197 6.27891,-0.393576 8.44358,2.485021 a 27.623545,27.623545 0 0 1 3.35454,20.292047 20.594094,20.594094 0 0 1 -1.92669,6.004323 c -0.45764,1.006822 -2.05941,5.034112 -3.12115,5.37277 a 67.521171,67.521171 0 0 0 -0.97021,-16.113734 z"
     style="fill:#0f23c3;stroke-width:4.57647"
     id="path8" />
  <path
     d="m 7.64998,29.147535 c 0.8191873,-0.860375 -0.1876351,-6.988262 1.4827748,-7.084368 1.1990342,-0.06865 2.5307852,7.967626 2.8694442,9.006484 a 42.103482,42.103482 0 0 0 5.157676,10.658588 34.456208,34.456208 0 0 0 18.379085,13.628714 20.822918,20.822918 0 0 0 10.827917,0.915293 c 4.26069,-0.951905 8.329167,-2.64062 12.617315,-3.500996 6.178229,-1.235646 15.294548,-1.610916 20.310354,2.960973 3.203526,2.933515 1.720751,3.478114 0.196788,6.503158 a 11.189458,11.189458 0 0 0 0.814611,11.724904 c 1.075469,1.565151 4.727489,3.784737 3.089114,5.006653 -2.594856,1.940421 -5.844146,-2.068562 -7.487097,-3.551337 C 69.50091,69.630949 63.501164,69.406702 55.350479,70.500477 A 41.128695,41.128695 0 0 1 33.003598,67.26034 43.334551,43.334551 0 0 1 7.64998,29.147535 Z"
     style="fill:#d2d2d2;stroke-width:4.57647"
     id="path10" />
  <path
     d="m 82.035849,127.99919 a 16.543922,16.543922 0 0 1 -10.640282,-3.73897 c 2.146362,-0.42104 4.672571,0.11441 6.90131,-0.20137 a 44.391714,44.391714 0 0 0 8.02712,-1.96788 48.222216,48.222216 0 0 0 13.830073,-7.11183 29.975848,29.975848 0 0 0 12.61732,-23.861686 c 0.68189,-0.402729 1.44616,4.732065 1.45989,4.992924 a 26.493158,26.493158 0 0 1 -0.86953,7.903552 31.426588,31.426588 0 0 1 -6.51231,12.69512 33.344127,33.344127 0 0 1 -24.813591,11.29014 z"
     style="fill:#d2d2d2;stroke-width:4.57647"
     id="path12" />
  <path
     d="M 77.555489,78.156904 A 26.360441,26.360441 0 0 1 68.173735,82.088088 61.233107,61.233107 0 0 1 57.995676,84.600567 40.55206,40.55206 0 0 1 37.699052,82.26657 45.48549,45.48549 0 0 1 20.084237,71.283053 c -1.610916,-1.679563 -9.628884,-11.061317 -7.084369,-13.95822 1.134964,-1.290563 4.004407,3.87169 4.576465,4.539854 a 22.882327,22.882327 0 0 0 6.210264,5.079876 49.961273,49.961273 0 0 0 18.466038,6.663334 30.630283,30.630283 0 0 0 10.708929,-0.430188 58.317899,58.317899 0 0 1 7.752532,-2.219585 18.305862,18.305862 0 0 1 9.670072,2.091444 c 1.574304,0.777999 6.969957,3.400314 7.171321,5.107336 z"
     style="fill:#d2d2d2;stroke-width:4.57647"
     id="path14" />
  <path
     d="m 120.35002,59.709172 a 88.220524,88.220524 0 0 1 -2.07314,17.27158 c -0.80546,-1.107505 0.0732,-6.727404 0,-8.201026 a 27.605239,27.605239 0 0 0 -1.75736,-9.551083 22.539092,22.539092 0 0 0 -6.29722,-7.601509 67.402183,67.402183 0 0 1 -5.81211,-7.029452 C 96.003221,33.696542 89.559558,20.749721 91.138438,6.6130195 c 0.1556,-1.4095513 0.315777,-6.62672185 1.880928,-6.612992453164 0.695622,0 1.21734,7.143862453164 1.327175,7.862367553164 a 57.329382,57.329382 0 0 0 5.601593,18.8367314 c 3.066236,5.592441 8.910376,9.25819 12.928516,14.187043 a 30.108566,30.108566 0 0 1 7.47337,18.823003 z"
     style="fill:#d2d2d2;stroke-width:4.57647"
     id="path16" />
  <path
     d="m 62.627059,113.97232 a 49.631767,49.631767 0 0 0 29.454131,-3.14403 31.765246,31.765246 0 0 0 19.57812,-20.218824 c 1.45989,0.915293 -0.21967,6.997416 -0.58579,8.150685 a 26.204841,26.204841 0 0 1 -4.62223,8.297129 40.881566,40.881566 0 0 1 -14.905546,11.50524 c -7.793721,3.53303 -25.911947,7.56032 -28.918685,-4.5902 z"
     style="fill:#d2d2d2;stroke-width:4.57647"
     id="path18" />
  <path
     d="M 78.420441,79.37882 C 80.100004,89.021433 64.887833,93.675698 57.927029,94.083003 49.41938,94.586415 35.369631,92.746675 30.193649,84.788202 27.113687,80.05156 33.767868,84.37632 35.63049,85.053637 a 39.64592,39.64592 0 0 0 14.003984,2.288233 53.086999,53.086999 0 0 0 15.125218,-2.288233 62.811988,62.811988 0 0 0 7.015721,-2.636044 C 73.152929,81.8135 76.91936,79.255255 78.420441,79.37882 Z"
     style="fill:#d2d2d2;stroke-width:4.57647"
     id="path20" />
  <path
     d="m 101.26158,98.069105 c 1.83059,-4.32476 -8.617484,-7.221663 -11.189458,-8.503073 A 22.227892,22.227892 0 0 1 84.05407,85.598236 c -0.82834,-0.82834 -3.990678,-4.210348 -3.693208,-5.578711 a 22.479598,22.479598 0 0 1 4.974618,-0.800881 27.13844,27.13844 0 0 1 3.912878,2.690961 47.242852,47.242852 0 0 0 4.411713,2.288233 71.461507,71.461507 0 0 0 9.697529,3.528455 c 1.40955,0.411882 7.08895,0.951905 7.90356,1.958727 -0.18306,1.354634 -9.01564,9.249037 -9.99958,8.384085 z"
     style="fill:#d2d2d2;stroke-width:4.57647"
     id="path22" />
  <path
     d="m 110.2223,92.174617 c 1.21276,1.96788 -4.94258,8.379513 -6.23772,9.633463 a 42.744187,42.744187 0 0 1 -11.743213,7.90813 35.458454,35.458454 0 0 1 -11.715752,3.44608 c -3.10742,0.26543 -8.997331,-0.56748 -9.798212,-4.48036 a 31.811011,31.811011 0 0 1 5.3865,-0.39358 c 2.114327,-0.27001 4.214924,-0.68189 6.297216,-1.12581 a 59.791521,59.791521 0 0 0 9.995,-2.95182 52.656811,52.656811 0 0 0 9.537351,-5.079875 49.755332,49.755332 0 0 0 4.93343,-3.761855 c 0.48053,-0.407305 2.82368,-3.212679 3.3454,-3.194373 z"
     style="fill:#d2d2d2;stroke-width:4.57647"
     id="path24" />
  <path
     d="m 76.62189,45.462634 c -0.457646,-5.986016 11.953728,-5.949405 14.969619,-4.9975 a 27.348957,27.348957 0 0 1 13.647021,11.326752 c -4.95174,3.661173 -11.207765,0.430188 -15.102337,-2.993008 a 19.788636,19.788636 0 0 0 -6.777746,-4.709183 c -3.70236,-1.212764 -3.743548,0.430188 -6.736557,1.372939 z"
     style="fill:#d2d2d2;stroke-width:4.57647"
     id="path26" />
  <path
     d="m 108.77156,51.759851 c -2.03195,-0.132717 -1.44616,0.324929 -2.96097,-0.97021 -1.63838,-1.404975 -2.80995,-3.63829 -4.32476,-5.221748 -2.443836,-2.553668 -5.683973,-4.095936 -7.885253,-6.796051 a 33.266327,33.266327 0 0 1 -7.43218,-22.186704 c 0.08238,-6.8143573 1.862621,0.855799 2.521632,3.089114 a 56.180689,56.180689 0 0 0 5.153101,12.393068 210.76911,210.76911 0 0 0 15.55998,19.774908 c -0.17848,0.0092 -0.44392,-0.09611 -0.63155,-0.08238 z"
     style="fill:#d2d2d2;stroke-width:4.57647"
     id="path28" />
  <path
     d="m 82.61706,58.23555 c 0.151023,-2.860291 -4.16916,-3.624561 -5.5421,-6.498581 -0.75054,-1.569728 -0.965634,-2.604009 0.132718,-3.203526 0.37527,-0.205941 1.752786,0.05492 2.288232,-0.09153 1.240223,-0.347812 1.533116,-1.249375 2.658927,-1.830586 a 5.4597232,5.4597232 0 0 1 7.473368,4.672571 8.3337435,8.3337435 0 0 1 -7.011145,6.951652 z"
     style="fill:#d2d2d2;stroke-width:4.57647"
     id="path30" />
  <path
     d="m 84.594093,58.185209 a 8.8371547,8.8371547 0 0 0 6.054664,-7.779992 c 2.398068,0.636129 4.24696,3.011315 6.960804,3.528455 a 11.825587,11.825587 0 0 0 4.709179,-0.0778 c 0.94733,-0.205941 2.4713,-1.253951 3.29964,-1.185304 -0.15103,0.745964 -2.12348,2.49875 -2.58571,3.281326 a 19.413366,19.413366 0 0 0 -1.77567,4.118818 c -1.04801,3.391161 -0.27916,3.382008 -3.24471,1.423281 a 19.605578,19.605578 0 0 0 -8.956143,-3.295055 c -1.21734,-0.118988 -4.031866,0.08695 -4.462054,-0.01373 z"
     style="fill:#d2d2d2;stroke-width:4.57647"
     id="path32" />
  <path
     d="m 81.871096,85.59366 a 9.1895425,9.1895425 0 0 1 -6.407052,7.834909 c -0.938175,0.416458 -9.235307,3.354549 -9.299377,1.59261 -0.03204,-0.915293 7.43218,-4.365948 8.278826,-5.079877 a 15.354041,15.354041 0 0 0 3.967795,-4.901394 c 0.251706,-0.512564 1.06174,-4.233231 1.240222,-4.315607 1.025129,-0.485106 2.233315,4.256113 2.219586,4.869359 z"
     style="fill:#d2d2d2;stroke-width:4.57647"
     id="path34" />
  <path
     d="m 42.824693,48.057491 a 48.624945,48.624945 0 0 1 16.978687,-4.18289 47.055217,47.055217 0 0 1 8.535108,0.109835 c 1.674986,0.178482 6.722827,0.247129 7.96305,1.569728 a 1.1669987,1.1669987 0 0 1 -1.249375,0.791729 c -0.16933,0.352387 1.148692,1.697868 1.372939,1.944997 -0.1556,0.1556 -6.612992,-1.830586 -7.194203,-1.940421 a 48.65698,48.65698 0 0 0 -10.443495,-0.613247 73.223447,73.223447 0 0 0 -8.425272,0.887835 28.483921,28.483921 0 0 1 -7.537439,1.432434 z"
     style="fill:#d2d2d2;stroke-width:4.57647"
     id="path36" />
  <path
     d="m 93.801941,39.815276 a 8.6403667,8.6403667 0 0 1 -6.942498,-2.745879 c -1.130387,-1.597187 -3.372855,-7.74338 -1.761939,-9.249037 0.956481,-0.915293 1.757363,3.02962 2.215009,3.87169 a 49.526509,49.526509 0 0 0 6.489428,8.123226 z"
     style="fill:#d2d2d2;stroke-width:4.57647"
     id="path38" />
  <path
     d="m 117.94737,78.573362 a 87.923053,87.923053 0 0 1 -3.42777,15.16183 c -0.79173,-0.352388 -1.25853,-3.56049 -2.57197,-4.347642 a 18.626214,18.626214 0 0 0 3.47811,-5.281241 c 0.69562,-1.382093 1.38667,-4.786983 2.52163,-5.532947 z"
     style="fill:#d2d2d2;stroke-width:4.57647"
     id="path40" />
  <path
     d="m 82.218907,44.904306 c -0.604093,1.226493 -4.265265,5.034112 -5.116488,2.20128 -0.489682,-1.629222 4.008984,-3.848808 5.116488,-2.20128 z m -3.418619,2.059409 c 1.043434,0.02746 0.05492,-1.134963 0.05492,-1.21734 -0.0046,-0.196788 -1.684139,1.21734 -0.05492,1.21734 z"
     style="fill:#d2d2d2;stroke-width:4.57647"
     id="path42" />
  <metadata
     id="metadata74">
    <rdf:RDF>
      <cc:Work
         rdf:about="">
        <dc:title>file_type_ada</dc:title>
      </cc:Work>
    </rdf:RDF>
  </metadata>
</svg>
