<?xml version="1.0" encoding="UTF-8" standalone="no"?>

<svg
   version="1.1"
   id="Layer_1"
   x="0px"
   y="0px"
   viewBox="0 0 1024 1024"
   style="enable-background:new 0 0 1024 1024;"
   xml:space="preserve"
   sodipodi:docname="icon.svg"
   inkscape:version="1.2.1 (9c6d41e410, 2022-07-14)"
   xmlns:inkscape="http://www.inkscape.org/namespaces/inkscape"
   xmlns:sodipodi="http://sodipodi.sourceforge.net/DTD/sodipodi-0.dtd"
   xmlns="http://www.w3.org/2000/svg"
   xmlns:svg="http://www.w3.org/2000/svg"><defs
   id="defs14" /><sodipodi:namedview
   id="namedview12"
   pagecolor="#505050"
   bordercolor="#ffffff"
   borderopacity="1"
   inkscape:showpageshadow="0"
   inkscape:pageopacity="0"
   inkscape:pagecheckerboard="1"
   inkscape:deskcolor="#505050"
   showgrid="false"
   inkscape:zoom="0.74023438"
   inkscape:cx="512"
   inkscape:cy="512"
   inkscape:window-width="1920"
   inkscape:window-height="1027"
   inkscape:window-x="1912"
   inkscape:window-y="82"
   inkscape:window-maximized="1"
   inkscape:current-layer="Layer_1" />
<path
   d="M888.9,861.6c375.6-515.1-294.5-769.4-577.8-322.1c-35.8-59.6-51-136.8-19.5-254.4c-131,152.4-147.6,310.8-4.7,477.6  c114-213.5,257.5-249,406.6-249.7l-0.1,109c-67.5-6.8-113.8,43.8-161.5,89.8c-79,58.8-147,144.2-191.5,282.1  C-215.7,784.9-35.3-33.4,554.4,4.1c-60.8,64.9-112.9,133-109.8,221.5C897.9-95.2,1215,526.2,892.2,858.4 M693.2,711.7  c-11-89.2-98.5-65.1-161.3,0.1c47.7-46,93.9-96.6,161.5-89.8L693.2,711.7 M693.3,711.8l-0.1,118.7  c123.2-60.1,179.6-254.3,174.7-383.8l0,0c104.9,139.7,91.2,276.6,24.2,411.7h0.1c-91.6,97.3-221.9,160-360.2,165.1l-0.1-311.7  C594.7,646.6,682.2,622.5,693.3,711.8 M892.1,858.4c67-135,80.6-272-24.2-411.7l0,0c-2.4-25-9.2-49-24.4-66.2  C998.9,490,1005.7,701.5,892.1,858.4 M892.2,858.4c113.5-156.9,106.7-368.5-48.7-477.9c-176.6-110.9-422.6-0.1-532.4,158.9  c284.2-447.9,953-192.2,577.8,322.1"
   id="path9"
   style="fill:#000000;fill-opacity:1" />
</svg>
