<?xml version="1.0" encoding="utf-8"?>
<!-- Generator: Adobe Illustrator 16.0.0, SVG Export Plug-In . SVG Version: 6.00 Build 0)  -->
<!DOCTYPE svg PUBLIC "-//W3C//DTD SVG 1.1//EN" "http://www.w3.org/Graphics/SVG/1.1/DTD/svg11.dtd">
<svg version="1.1" id="Layer_1" xmlns="http://www.w3.org/2000/svg" xmlns:xlink="http://www.w3.org/1999/xlink" x="0px" y="0px"
	 width="500px" height="500px" viewBox="0 0 500 500" enable-background="new 0 0 500 500" xml:space="preserve">
<g>
	<polygon fill="#E44D26" points="108.805,456.171 77.387,103.784 422.613,103.784 391.162,456.116 249.789,495.308 	"/>
	<polygon fill="#F16529" points="250.001,465.352 364.236,433.68 391.114,132.598 250.001,132.598 	"/>
	<polygon fill="#EBEBEB" points="250.001,263.293 192.81,263.293 188.86,219.035 250.001,219.035 250.001,175.815 249.851,175.815 
		141.628,175.815 142.663,187.411 153.285,306.512 250.001,306.512 	"/>
	<polygon fill="#EBEBEB" points="250.001,375.536 249.811,375.586 201.678,362.588 198.602,328.121 175.212,328.121 
		155.216,328.121 161.271,395.98 249.801,420.558 250.001,420.5 	"/>
	<path d="M109.507,8.021h21.964V29.72h20.09V8.021h21.965v65.711h-21.963V51.729h-20.091v22.003h-21.963V8.021H109.507z"/>
	<path d="M202.407,29.811h-19.335V8.021h60.645v21.79h-19.344v43.921h-21.965L202.407,29.811L202.407,29.811z"/>
	<path d="M253.342,8.021h22.901l14.088,23.09l14.073-23.09h22.91v65.711H305.44V41.162l-15.109,23.362h-0.379l-15.12-23.362v32.569
		h-21.49V8.021z"/>
	<path d="M338.244,8.021h21.971v43.991h30.887v21.72h-52.857V8.021z"/>
	<polygon fill="#FFFFFF" points="249.851,263.293 249.851,306.512 303.069,306.512 298.053,362.562 249.851,375.572 
		249.851,420.537 338.451,395.98 339.102,388.678 349.258,274.899 350.312,263.293 338.665,263.293 	"/>
	<polygon fill="#FFFFFF" points="249.851,175.815 249.851,202.659 249.851,218.928 249.851,219.035 354.105,219.035 
		354.105,219.035 354.245,219.035 355.111,209.32 357.081,187.411 358.114,175.815 	"/>
</g>
</svg>
