<?xml version="1.0" encoding="utf-8"?>
<!-- Generator: Adobe Illustrator 16.0.0, SVG Export Plug-In . SVG Version: 6.00 Build 0)  -->
<!DOCTYPE svg PUBLIC "-//W3C//DTD SVG 1.1//EN" "http://www.w3.org/Graphics/SVG/1.1/DTD/svg11.dtd">
<svg version="1.1" id="Layer_1" xmlns="http://www.w3.org/2000/svg" xmlns:xlink="http://www.w3.org/1999/xlink" x="0px" y="0px"
	 width="500px" height="500px" viewBox="0 0 500 500" enable-background="new 0 0 500 500" xml:space="preserve">
<path fill="#E44D26" d="M35.565,8l39.081,438.329l175.373,48.677l175.858-48.742L465,8H35.565z M383.714,112.212l-2.45,26.979
	L380.186,151h-0.172H250.515h-0.187h-75.867l4.912,55h70.955h0.187h110.292h14.486l-1.311,14.633L361.35,362.263l-0.568,9.133
	L251,401.939v0.006l-0.492,0.071l-110.246-30.589L132.609,287h24.873h29.096l3.826,42.891l59.709,16.176L250,346.062v-0.003
	l60.123-16.261L316.528,260h-66.014h-0.187H130.207l-13.213-147.864L115.707,98h134.621h0.187H385L383.714,112.212z"/>
</svg>
