<svg version="1.1" xmlns="http://www.w3.org/2000/svg" xmlns:xlink="http://www.w3.org/1999/xlink" viewBox="0 0 128 128">
	<polygon fill="#E44D26" points="27.854,116.354 19.811,26.143 108.189,26.143 100.138,116.34 63.946,126.373 	"/>
	<polygon fill="#F16529" points="64,118.704 93.244,110.596 100.125,33.52 64,33.52 	"/>
	<polygon fill="#EBEBEB" points="64,66.978 49.359,66.978 48.349,55.647 64,55.647 64,44.583 63.962,44.583 36.257,44.583
		36.521,47.552 39.241,78.041 64,78.041 	"/>
	<polygon fill="#EBEBEB" points="64,95.711 63.951,95.724 51.63,92.396 50.842,83.573 44.854,83.573 39.735,83.573 41.285,100.945
		63.949,107.237 64,107.222 	"/>
	<path d="M28.034,1.627h5.622v5.556H38.8V1.627h5.623v16.822H38.8v-5.633h-5.143v5.633h-5.623V1.627L28.034,1.627z"/>
	<path d="M51.816,7.206h-4.95V1.627h15.525v5.579h-4.952v11.243h-5.623V7.206L51.816,7.206z"/>
	<path d="M64.855,1.627h5.862l3.607,5.911l3.603-5.911h5.865v16.822h-5.601v-8.338l-3.867,5.981h-0.098l-3.87-5.981v8.338h-5.502
		V1.627z"/>
	<path d="M86.591,1.627h5.624v11.262h7.907v5.561H86.591V1.627z"/>
	<polygon fill="#FFFFFF" points="63.962,66.978 63.962,78.041 77.586,78.041 76.302,92.39 63.962,95.721 63.962,107.231
		86.644,100.945 86.81,99.075 89.41,69.948 89.68,66.978 86.698,66.978 	"/>
	<polygon fill="#FFFFFF" points="63.962,44.583 63.962,51.455 63.962,55.619 63.962,55.647 90.651,55.647 90.651,55.647
		90.687,55.647 90.908,53.16 91.413,47.552 91.678,44.583 	"/>
</svg>
