<svg xmlns="http://www.w3.org/2000/svg" viewBox="0 0 128 128">
    <path d="m64.258 100.832 29.754-17.18-11.403-6.597-11.66 6.734a.661.661 0 0 1-.648-.004.66.66 0 0 1-.328-.562V67.227c0-.47.246-.899.652-1.133l13.855-8a.651.651 0 0 1 .649.004.652.652 0 0 1 .332.558v13.465l11.41 6.59V44.348L64.258 63.176Zm0 0"/>
    <path fill="#4d4d4d" d="m57.586 83.797-11.664-6.742-11.414 6.593 29.75 17.184V63.176L31.656 44.348V78.71l11.41-6.59V58.656a.652.652 0 0 1 .329-.558.651.651 0 0 1 .648-.004l13.863 8c.403.234.653.664.653 1.133v16a.66.66 0 0 1-.325.562.652.652 0 0 1-.648.008"/>
    <path fill="gray" d="M67.117 27.168v13.18l11.66 6.73c.2.117.32.332.32.567a.65.65 0 0 1-.32.562l-13.859 8.004a1.32 1.32 0 0 1-1.305 0l-13.855-8.004a.648.648 0 0 1-.324-.562.65.65 0 0 1 .324-.567l11.656-6.73v-13.18l-29.758 17.18 32.602 18.828 32.61-18.828Zm0 0"/>
</svg>
