<svg xmlns="http://www.w3.org/2000/svg" viewBox="0 0 128 128">
    <path d="m29.18 47.3-13.617 7.86v15.727l5.222-3.016v-6.16c-.004-.219.254-.375.445-.258l6.34 3.664c.192.11.301.309.301.516v7.32c.004.219-.254.375-.445.258l-5.34-3.078-5.219 3.012 13.617 7.863 13.614-7.863-5.22-3.012-5.335 3.078c-.191.117-.453-.035-.45-.258v-7.32c0-.219.126-.414.302-.516l6.34-3.664c.19-.113.453.031.449.258v6.16l5.218 3.016V55.16L31.79 47.3v6.032l5.336 3.078c.191.11.2.41 0 .516l-6.344 3.664a.587.587 0 0 1-.593 0l-6.344-3.664c-.196-.106-.196-.41 0-.516l5.336-3.078Zm52.629 7.86v2.996H85.5V55.16Zm-28.567.926v9.559c0 3.785 2.266 6.003 6.797 6.003 4.504 0 6.746-2.261 6.746-6.003V56.09h-4.008v9.625h.004c0 1.59-.883 2.719-2.738 2.719-1.973 0-2.79-1.063-2.79-2.653v-9.695Zm35.16.004v3.668h-1.539v2.992h1.54v5.55c0 2.49 1.542 3.196 3.695 3.196.996 0 1.699-.09 2.015-.183v-2.696c-.136 0-.5.024-.816.024-.793 0-1.29-.227-1.29-1.133V62.75h2.106v-2.992h-2.105V56.09ZM75.88 59.422c-1.61 0-2.715.68-3.578 1.926h-.07v-1.59h-3.56v11.597h3.696V64.95c0-1.426.817-2.445 2.035-2.445 1.203 0 1.817.836 1.817 2.062v6.793h3.691v-7.543c0-2.582-1.496-4.394-4.031-4.394Zm5.93.336v11.597h3.69V59.758Zm13.257 0 3.422 8.926c.473 1.226.7 1.906.7 2.398 0 .793-.43 1.227-1.516 1.227h-1.27v2.875h2.399c2.332 0 3.441-.95 4.37-3.668l4.013-11.758h-3.696l-1.515 4.941c-.36 1.133-.68 2.672-.68 2.672h-.043s-.363-1.543-.727-2.672l-1.562-4.941Zm15.844 0a1.4 1.4 0 0 0-.574.117c-.18.074-.336.18-.473.316a1.5 1.5 0 0 0-.433 1.047 1.5 1.5 0 0 0 .434 1.047 1.5 1.5 0 0 0 .472.317c.176.078.367.113.574.113.207 0 .399-.035.574-.113a1.5 1.5 0 0 0 .473-.317 1.5 1.5 0 0 0 .434-1.047 1.5 1.5 0 0 0-.434-1.047 1.436 1.436 0 0 0-.473-.316 1.438 1.438 0 0 0-.574-.117Zm0 .355c.207 0 .395.051.567.153.168.101.304.234.406.406.101.172.148.36.148.566 0 .207-.047.395-.148.563a1.167 1.167 0 0 1-.406.41c-.172.102-.36.148-.567.148a1.106 1.106 0 0 1-.973-.559 1.086 1.086 0 0 1-.152-.562c0-.207.05-.394.153-.566.101-.172.238-.305.406-.406a1.09 1.09 0 0 1 .566-.153Zm-.515.426v1.363h.3v-.46h.297l.238.46h.329l-.282-.527a.55.55 0 0 0 .153-.148.416.416 0 0 0 .074-.254.418.418 0 0 0-.238-.387.424.424 0 0 0-.18-.047Zm.296.223h.286c.035 0 .078.011.125.043.05.03.07.086.07.172 0 .078-.02.14-.07.18a.191.191 0 0 1-.133.058h-.278Zm0 0"/>
</svg>
