<svg viewBox="0 0 128 128" xmlns="http://www.w3.org/2000/svg"><path d="M1.008 39.982a.247.247 0 00-.244.164.249.249 0 00.06.29l13.766 13.43c.246-.195.56-.302.912-.31 1.116-.022 2.641.808 4.313 2.51 1.49 1.518 3.077 3.775 4.533 6.766.116-.036.236-.06.363-.06.11 0 .215.019.317.046 2.18-4.781 3.058-8.424 3.054-11.143-.003-2.908-.953-4.798-2.252-6.08l-.035-.033c-2.42-2.363-6.337-3.738-10.793-4.525-4.455-.788-9.444-.993-13.994-1.055zm47.482.057a.247.247 0 00-.217.08L34.849 53.88c.33.416.387 1.022.191 1.713-.214.76-.723 1.644-1.539 2.6-1.48 1.732-4.017 3.685-7.625 5.443.036.115.063.234.063.36a1.2 1.2 0 01-.049.32c4.784 2.182 8.43 3.06 11.148 3.056 2.896-.003 4.78-.948 6.062-2.238l.045-.045c2.364-2.42 3.738-6.337 4.526-10.793.788-4.456.994-9.445 1.056-13.994a.25.25 0 00-.166-.244.29.29 0 00-.072-.02zm-21.105 7.074c.644 1.191 1.076 2.66 1.078 4.562.003 2.795-.896 6.486-3.088 11.295.131.085.246.193.336.32 3.568-1.739 6.068-3.666 7.502-5.345.79-.926 1.27-1.774 1.463-2.455.168-.594.12-1.038-.092-1.336l-.039.039-.129-.213a.183.183 0 00-.031-.04h-.002l-6.998-6.827zm50.244 1.89a.282.282 0 00-.207.082l.054.055a.198.198 0 00-.001.002l-.053-.053a.268.268 0 00-.074.196h-.002v6.086a.302.302 0 00.072.2l.008.007.037-.043.012-.01-.05.057a.302.302 0 00.202.072v-.072a.192.192 0 00.004 0v.074h.459a.269.269 0 00.197-.074.283.283 0 00.082-.208h.002v-2.539a1.323 1.323 0 01.32-.95 1.151 1.151 0 01.875-.346 1.07 1.07 0 01.854.334h.002a1.39 1.39 0 01.302.96v2.54l.073.001h-.073a.303.303 0 00.07.202l.003-.002.004.004.021-.026.027-.023-.046.054a.302.302 0 00.2.073v-.069a.192.192 0 00.003 0v.069h.457a.269.269 0 00.197-.076.284.284 0 00.082-.206h.002V52.79a2.243 2.243 0 00-.514-1.541l.002-.002a1.77 1.77 0 00-1.42-.592l-.002.074v-.074a2.005 2.005 0 00-.921.191 1.849 1.849 0 00-.522.389v-1.95a.254.254 0 00-.08-.193.253.253 0 00-.201-.088h-.457zm-19.902.088a.387.387 0 00-.184.063.373.373 0 00-.137.185h.002l-2.273 5.934-.004-.002a.423.423 0 00-.012.123l.075.002a.377.377 0 000 .002h-.077a.247.247 0 00.077.178l-.002.004a.247.247 0 00.002.002.247.247 0 00.175.074v.008h.47a.291.291 0 00.19-.063l-.044-.055.047.053a.329.329 0 00.103-.14h-.002l.486-1.258h2.913l.486 1.256h.002a.354.354 0 00.088.132h.002l.004.002-.002.002a.307.307 0 00.203.063h.467a.247.247 0 00.177-.076l-.045-.047.05.047a.247.247 0 00.075-.178h-.002v-.012l-.06.01h-.006v-.002l.066-.012-.017-.101h-.002a.053.053 0 000-.002.053.053 0 000-.006l-.05.018-.019.001.067-.025-2.266-5.932a.37.37 0 00-.136-.185.387.387 0 00-.223-.063h-.623v.077a.285.285 0 00-.002 0v-.077a.387.387 0 00-.04 0zm-.291.258l.043.016a.285.285 0 000 .002l-.043-.018zm.646.735l.002.003-.004.002.002-.005zm-.008.203l1.14 2.99h-2.276l1.136-2.99zm15.984.365a2.152 2.152 0 00-1.375.582h-.002a2.286 2.286 0 00-.605 1.596l.076.004v.001h-.076l-.01.366.01.363h.076a2.252 2.252 0 000 .002l-.076.004a2.32 2.32 0 00.605 1.605h.002a2.171 2.171 0 001.59.573v-.006a2.434 2.434 0 001.15-.246 1.778 1.778 0 00.706-.612 1.512 1.512 0 00.002-.002 1.512 1.512 0 00.257-.728l-.064-.004a1.44 1.44 0 000-.004l.063.006a.231.231 0 00-.075-.2.283.283 0 00-.006-.005.231.231 0 00-.001-.002.283.283 0 00-.198-.074v-.002h-.441a.255.255 0 00-.18.062l-.002-.002a.438.438 0 00-.004.006h-.002a.438.438 0 00-.105.17l.037.016-.04-.014a1.159 1.159 0 01-.411.6v-.002a1.226 1.226 0 01-.678.172 1.121 1.121 0 01-.855-.329 1.554 1.554 0 01-.34-1.033v-.002l-.008-.31-.063.002v-.002h.063l.008-.33a1.54 1.54 0 01.34-1.022 1.122 1.122 0 01.855-.336 1.18 1.18 0 01.676.178l.043-.059-.041.063a1.105 1.105 0 01.41.588l.074-.028a1.174 1.174 0 010 .002l-.07.03a.438.438 0 00.111.173.284.284 0 00.182.053v-.002h.441a.303.303 0 00.201-.07.231.231 0 00.082-.207h-.002a1.471 1.471 0 00-.257-.725 1.775 1.775 0 00-.707-.611 2.467 2.467 0 00-1.15-.248v.002a2.152 2.152 0 00-.216-.002zm11.033.002a2.037 2.037 0 00-.197.002 2.056 2.056 0 00-1.545.607 2.502 2.502 0 00-.642 1.621l.072.006-.074-.002-.008.301.01.312h.074v.002l-.076.004a2.49 2.49 0 00.635 1.641h.001a2.097 2.097 0 001.563.6v-.004a2.577 2.577 0 001.066-.207 2.138 2.138 0 00.729-.512.868.868 0 00.002-.002.868.868 0 00.273-.531.228.228 0 00-.082-.182l.002-.002a.277.277 0 00-.183-.062v.002h-.45a.385.385 0 00-.187.035.268.268 0 00-.002 0 .385.385 0 00-.004.002.268.268 0 00-.06.052 1.275 1.275 0 00-.077.092l.057.043-.059-.04a1.327 1.327 0 01-.382.337 1.218 1.218 0 01-.65.156l-.003.073v-.073a1.026 1.026 0 01-.834-.386 1.667 1.667 0 01-.342-.971v-.012h3.104a.269.269 0 00.193-.074h.002a.269.269 0 000-.002.284.284 0 00.082-.205h.004v-.156a2.632 2.632 0 00-.576-1.79h-.002a2.037 2.037 0 00-1.434-.675zm-15.732.008a2.003 2.003 0 00-.255.006 2.287 2.287 0 00-1.051.218 1.66 1.66 0 00-.64.506 1.66 1.66 0 000 .002 1.03 1.03 0 00-.214.531l.07.004h-.07a.29.29 0 000 .002.29.29 0 00.07.192l.008.007a.29.29 0 00.194.073h.394a.219.219 0 00.153-.053.322.322 0 00.097-.152 1.058 1.058 0 01.352-.356l-.037-.06a1.132 1.132 0 01.002 0l.04.058a1.082 1.082 0 01.618-.164v.002a1.127 1.127 0 01.76.217.81.81 0 01.246.648h-.002v.203l-1.307.186a2.863 2.863 0 00-1.39.527 1.27 1.27 0 00-.522 1.045 1.292 1.292 0 000 .002 1.292 1.292 0 00.233.744h.001a1.665 1.665 0 00.641.518v.002a1.984 1.984 0 00.863.19l.002-.085a1.915 1.915 0 00.002 0v.086a2.175 2.175 0 001.014-.209 1.655 1.655 0 00.002 0 1.655 1.655 0 00.482-.363v.2a.301.301 0 00.073.2l-.002.002a.035.035 0 00.002.002.035.035 0 00.004.006.035.035 0 00.001 0l.002-.002a.302.302 0 00.202.072h.421a.268.268 0 00.196-.074.268.268 0 00.002-.002.283.283 0 00.082-.205h.002v-2.97a1.741 1.741 0 00-.469-1.24 2.003 2.003 0 00-1.272-.516zm-5.105.002a1.79 1.79 0 00-.074.004v.001a1.81 1.81 0 00-1.434.58v-.206a.254.254 0 00-.08-.194.254.254 0 00-.201-.088v-.002h-.422a.281.281 0 00-.205.082l.049.053-.05-.049a.266.266 0 00-.075.198v6.085a.267.267 0 00.074.196h.002a.281.281 0 00.205.082v.002h.45a.253.253 0 00.2-.088l-.002-.002a.267.267 0 00.075-.192v-1.939a1.841 1.841 0 001.414.568 1.81 1.81 0 001.492-.629l.002.002a2.673 2.673 0 00.539-1.6h-.002c.008-.07.01-.176.01-.316 0-.139 0-.243-.01-.314h.002a2.647 2.647 0 00-.537-1.6 1.79 1.79 0 00-.002-.002 1.79 1.79 0 00-1.42-.632zm20.629.8a1.07 1.07 0 01.012 0v.002a1.07 1.07 0 01.863.38l.004-.003a1.424 1.424 0 01.328.936h-2.371a1.475 1.475 0 01.312-.938l.002.002a1.07 1.07 0 01.85-.379zm-20.967.079a1.054 1.054 0 01.07.001v.002a1.051 1.051 0 01.905.405 2.11 2.11 0 01.308 1.26c0 .115.001.202-.008.26l.07.005-.07-.002a1.794 1.794 0 01-.316 1.024l.057.043-.057-.041a1.02 1.02 0 01-.887.373v.062a1.151 1.151 0 01-.002 0v-.06a1.08 1.08 0 01-.89-.377h.002v-.002a1.46 1.46 0 01-.33-.905h-.004l-.008-.351h-.065v-.004h.063l.01-.348a1.668 1.668 0 01.33-.947l-.004-.004a1.054 1.054 0 01.826-.395zm12.447.697l-.04.004a.164.164 0 000-.002l.04-.002zm9.797.61h.006v.001h-.006v-.002zm-15.994.382h.008v.002h-.008v-.002zm-.069.082v.178a1.48 1.48 0 01-.365 1.078 1.228 1.228 0 01-.922.363v.057a1.304 1.304 0 01-.002 0v-.059a1.234 1.234 0 01-.675-.181.576.576 0 01-.272-.51.556.556 0 01.299-.483 2.333 2.333 0 01.953-.299v-.001l.984-.143zm-3.947.21l.014.003h-.014a2.606 2.606 0 000-.002zm-50.643.413a1.116 1.116 0 00-.644.193l.033.032-.21.129a.193.193 0 00-.028.023L7.814 61.33c1.192-.646 2.664-1.078 4.568-1.08 2.796-.004 6.487.895 11.3 3.09.085-.134.193-.25.322-.34-1.441-2.959-3.008-5.186-4.461-6.667-1.632-1.662-3.126-2.415-4.036-2.396zm44.072.191h.006l-.006.002v-.002zm30 5.754c-2.671 0-4.006 1.319-4.006 3.96v1.165h-1.98a.538.538 0 00-.397.164.503.503 0 00-.138.373v.793a.487.487 0 00.535.536h1.98v9.714a.488.488 0 00.535.537l1.09-.001a.505.505 0 00.375-.14.54.54 0 00.164-.396v-9.714h4.985v9.712a.487.487 0 00.537.538h1.068a.504.504 0 00.373-.141.539.539 0 00.166-.396V60.418a.558.558 0 00-.537-.536h-1.068a.54.54 0 00-.397.164.504.504 0 00-.14.373v4.588h-4.985V63.96a2.671 2.671 0 01.418-1.655 1.727 1.727 0 011.47-.558h1.257a.504.504 0 00.373-.141.54.54 0 00.164-.396v-.791a.558.558 0 00-.537-.536h-1.305zm-19.37.512a.54.54 0 00-.388.164.587.587 0 00-.14.397v1.26a.487.487 0 00.537.535l1.467-.002a.586.586 0 00.396-.141.539.539 0 00.164-.395v-1.257a.557.557 0 00-.56-.56h-1.467a.54.54 0 00-.01 0zm-57.827.236c-2.93.004-4.829.967-6.111 2.282-2.363 2.42-3.74 6.339-4.527 10.795C.956 78.162.75 83.149.689 87.699a.25.25 0 00.164.246c.095.038.2.031.289-.06l13.426-13.763c-.33-.416-.387-1.023-.191-1.713.214-.76.725-1.645 1.54-2.6 1.481-1.734 4.02-3.688 7.631-5.447a1.2 1.2 0 01-.062-.365c0-.108.019-.21.045-.31-4.785-2.183-8.43-3.06-11.148-3.057zm47.061.184a.725.725 0 00-.638.514L53.025 76.4a.947.947 0 00-.021.257.478.478 0 00.465.465h1.191a.566.566 0 00.371-.115.658.658 0 00.211-.281l1.281-3.309h7.643l1.281 3.309a.74.74 0 00.186.281.604.604 0 00.396.115h1.188a.48.48 0 00.466-.465l-.047-.257-5.757-15.072a.725.725 0 00-.746-.514h-1.584a.725.725 0 00-.106 0zm.899 2.332l3.146 8.27H57.2l3.143-8.27zm-35.631.006a.841.841 0 00-.844.846c0 .469.374.845.844.845.469 0 .845-.376.845-.845a.843.843 0 00-.845-.846zm1.029 1.512c-.085.13-.195.242-.32.332 1.74 3.571 3.667 6.07 5.347 7.505.926.79 1.776 1.27 2.457 1.463.592.168 1.036.122 1.334-.09l-.037-.035.207-.129a.189.189 0 00.041-.03v-.003l6.83-7.002c-1.19.644-2.66 1.076-4.56 1.078-2.796.004-6.487-.895-11.3-3.09zm-2.023.043c-3.573 1.74-6.075 3.67-7.51 5.351-.79.926-1.27 1.774-1.463 2.455-.168.593-.122 1.038.09 1.336l.037-.037.129.207c.008.014.019.028.03.04l.003.001 7.002 6.83c-.645-1.191-1.076-2.662-1.078-4.564-.004-2.796.895-6.488 3.09-11.301a1.236 1.236 0 01-.33-.319zm79.52.07a6.077 6.077 0 00-3.9 1.467 5.537 5.537 0 00-1.515 3.82l-.024 1.002.024 1.002a5.623 5.623 0 001.492 3.844 5.335 5.335 0 003.98 1.445h.004a5.256 5.256 0 003.96-1.445 5.57 5.57 0 001.513-3.844c.015-.17.023-.505.023-1.002s-.008-.832-.023-1.002a5.54 5.54 0 00-1.514-3.82 6.077 6.077 0 00-4.02-1.467zm-22.61.215a3.5 3.5 0 00-2.95 1.6v-1.026a.557.557 0 00-.56-.559h-1.069a.54.54 0 00-.396.164.588.588 0 00-.14.397v11.02a.487.487 0 00.534.537l1.133-.002a.589.589 0 00.397-.14.54.54 0 00.164-.397v-6.85a2.675 2.675 0 01.722-1.98 2.632 2.632 0 011.98-.746h1.4a.503.503 0 00.372-.139.466.466 0 00.164-.373v-.955a.558.558 0 00-.535-.535h-.904a3.5 3.5 0 00-.313-.016zm-10.232.015a.54.54 0 00-.387.164.503.503 0 00-.139.373v11.043a.488.488 0 00.535.538l1.117-.002a.504.504 0 00.374-.141.539.539 0 00.164-.397V65.542a.558.558 0 00-.536-.535h-1.119a.54.54 0 00-.01 0zm48.156 0a.597.597 0 00-.375.164.626.626 0 00-.21.33l-2.773 8.69-2.586-8.783a.531.531 0 00-.209-.256.503.503 0 00-.373-.14H111a.527.527 0 00-.35.14.473.473 0 00-.138.35l.044.232 3.31 10.81a1.086 1.086 0 00.278.442.696.696 0 00.467.14h.912a.763.763 0 00.793-.581l2.703-8.342 2.702 8.342a.707.707 0 00.77.582h.903a.74.74 0 00.495-.14 1.088 1.088 0 00.279-.442l3.285-10.811.047-.233a.474.474 0 00-.14-.35.446.446 0 00-.329-.14h-1.049a.587.587 0 00-.396.14.539.539 0 00-.164.257l-2.586 8.783-2.774-8.69a.625.625 0 00-.208-.33.599.599 0 00-.444-.164h-.79a.597.597 0 00-.07 0zm-93.477.155a1.205 1.205 0 01-.364.062c-.11 0-.214-.019-.316-.047-2.183 4.786-3.06 8.429-3.057 11.148.004 2.913.957 4.806 2.26 6.088l.022.022c2.42 2.363 6.338 3.74 10.795 4.527 4.455.787 9.442.992 13.992 1.055a.25.25 0 00.244-.164.249.249 0 00-.06-.288L34.83 74.141c-.416.33-1.022.385-1.71.19-.76-.215-1.646-.726-2.6-1.541-1.734-1.48-3.69-4.018-5.448-7.629zm78.432 1.406a2.946 2.946 0 012.095.935 4.055 4.055 0 01.932 2.68c.015.155.023.45.023.885s-.008.73-.023.885a4.055 4.055 0 01-.932 2.68 2.946 2.946 0 01-2.302.93l-.004-.001a3.02 3.02 0 01-2.327-.93 3.972 3.972 0 01-.904-2.68l-.023-.884.023-.885a3.972 3.972 0 01.904-2.68 3.02 3.02 0 012.33-.931 2.946 2.946 0 01.208-.004z"/></svg>
