<svg xmlns="http://www.w3.org/2000/svg" viewBox="0 0 128 128"><defs><linearGradient id="a" x1="56.379" x2="2.753" y1="-.717" y2="24.146" gradientTransform="matrix(.46618 0 0 .46618 0 45.763)" gradientUnits="userSpaceOnUse"><stop offset=".16" stop-color="#D249FC"/><stop offset=".55" stop-color="#FF2D90"/></linearGradient><linearGradient id="b" x1="3.982" x2="62.687" y1="4.224" y2="62.93" gradientTransform="matrix(.46618 0 0 .46618 0 45.763)" gradientUnits="userSpaceOnUse"><stop offset=".3" stop-color="#FF2D90"/><stop offset=".7" stop-color="#7256FF"/></linearGradient></defs><path fill="#000" fill-rule="evenodd" d="M45.092 53.689c.961 0 1.801.172 2.53.527h-.005c.728.355 1.288.854 1.685 1.498.397.645.593 1.382.593 2.236 0 .855-.2 1.606-.602 2.255-.402.649-.971 1.153-1.709 1.512-.737.36-1.591.542-2.572.542h-3.365v5.415h-2.488V53.689Zm1.11 6.203c.36-.182.636-.434.832-.765v.004c.196-.326.293-.723.293-1.162 0-.439-.097-.821-.293-1.148a2.006 2.006 0 0 0-.831-.756c-.36-.178-.78-.267-1.265-.267h-3.296v4.365h3.296c.485 0 .91-.089 1.265-.27zM56.71 57.2c.733 0 1.377.159 1.928.48l.005.01c.551.317.985.784 1.288 1.386.304.603.458 1.326.458 2.166v6.433H58.04V61.6c0-.495-.084-.915-.252-1.26a1.804 1.804 0 0 0-.72-.794c-.312-.182-.686-.276-1.12-.276-.462 0-.877.103-1.236.313-.36.21-.64.5-.836.873a2.734 2.734 0 0 0-.294 1.288v5.924h-2.357V53.684h2.305v3.165l-.028 1.886V59a3.499 3.499 0 0 1 1.168-1.251c.583-.37 1.26-.551 2.04-.551zm11.736 0c.91 0 1.727.229 2.441.686l.005-.014c.719.458 1.279 1.092 1.685 1.91.406.816.607 1.736.607 2.763s-.201 1.946-.607 2.763c-.406.817-.971 1.452-1.69 1.91-.719.457-1.53.686-2.437.686-.844 0-1.586-.187-2.221-.56a3.743 3.743 0 0 1-1.266-1.214v4.733h-2.357V57.437h2.306v1.62c.336-.542.77-.98 1.317-1.298.64-.373 1.377-.56 2.217-.56zm.929 8.197a2.78 2.78 0 0 0 1.022-1.148c.242-.49.364-1.055.364-1.695 0-.64-.122-1.204-.364-1.694a2.78 2.78 0 0 0-1.022-1.149 2.739 2.739 0 0 0-1.499-.415c-.57 0-1.078.14-1.517.415-.439.276-.78.658-1.027 1.149-.247.49-.369 1.055-.369 1.694 0 .64.122 1.204.37 1.7.242.494.587.877 1.026 1.148.439.275.957.41 1.517.41.56 0 1.06-.14 1.499-.415zm11.805-5.807a4.89 4.89 0 0 1 1.816.807l-.019.014c.537.388.948.86 1.246 1.42.295.56.444 1.171.444 1.839 0 .807-.215 1.536-.644 2.18-.43.644-1.032 1.153-1.807 1.521-.775.37-1.652.556-2.651.556-1 0-1.886-.182-2.656-.546-.77-.36-1.377-.868-1.811-1.522-.434-.653-.659-1.405-.663-2.26h2.497c0 .435.112.813.34 1.144.225.332.542.589.944.775.406.187.887.28 1.396.28.509 0 .952-.088 1.335-.256.382-.168.677-.407.887-.71.21-.303.312-.653.312-1.046 0-.485-.144-.891-.439-1.204-.294-.313-.695-.537-1.208-.663l-2.437-.55a4.798 4.798 0 0 1-1.727-.762 3.716 3.716 0 0 1-1.149-1.307 3.7 3.7 0 0 1-.41-1.75c0-.789.205-1.49.611-2.11.406-.616.976-1.102 1.7-1.456.727-.35 1.53-.528 2.469-.528.938 0 1.773.173 2.506.514.733.34 1.303.816 1.709 1.428.406.607.616 1.307.62 2.091h-2.497c0-.369-.098-.695-.284-.99a1.821 1.821 0 0 0-.808-.68 2.934 2.934 0 0 0-1.214-.239c-.452 0-.854.075-1.2.229a1.874 1.874 0 0 0-.807.649c-.191.28-.29.607-.29.98 0 .415.14.76.412 1.032.275.266.648.466 1.12.592zm6.498-4.645h2.194v2.498h2.716l-.009 2.049h-2.716l.009 5.163c0 .28.093.513.275.695a.947.947 0 0 0 .696.276h1.736v2.049h-2.208a3.074 3.074 0 0 1-1.475-.35 2.582 2.582 0 0 1-1.017-.971 2.723 2.723 0 0 1-.364-1.4l-.01-5.467h-1.797l.01-2.05h1.12c.257 0 .457-.074.611-.232a.832.832 0 0 0 .229-.603zM98.592 57.2c1.003 0 1.918.233 2.735.7a5.13 5.13 0 0 1 1.933 1.923c.47.812.704 1.727.704 2.731 0 1.004-.233 1.914-.704 2.73a5.097 5.097 0 0 1-1.933 1.924c-.822.467-1.745.7-2.75.7-1.003 0-1.918-.233-2.735-.7a5.131 5.131 0 0 1-1.932-1.923c-.472-.812-.705-1.727-.705-2.731 0-1.004.233-1.914.7-2.73a5.066 5.066 0 0 1 1.933-1.924c.826-.467 1.75-.7 2.754-.7zm1.517 8.192c.443-.27.789-.653 1.031-1.148.243-.495.364-1.05.364-1.69 0-.64-.12-1.204-.368-1.694a2.769 2.769 0 0 0-1.032-1.149 2.83 2.83 0 0 0-1.522-.415c-.57 0-1.078.14-1.522.41-.443.271-.784.654-1.027 1.149-.242.495-.364 1.064-.364 1.699s.122 1.195.364 1.69c.243.49.584.877 1.027 1.148.44.276.953.411 1.522.411.57 0 1.083-.14 1.527-.41zm7.893-6.4c.266-.434.593-.789.98-1.055l-.004.005c.546-.378 1.18-.565 1.909-.565h.378v2.376h-.658c-.523 0-.985.098-1.373.29a2.1 2.1 0 0 0-.9.83c-.21.36-.313.785-.313 1.28v5.522h-2.358V57.442h2.34zm18.285-1.297c.55.331.976.798 1.27 1.405v.014c.294.607.443 1.311.443 2.119v6.456h-2.357v-6.176c0-.462-.075-.859-.234-1.19a1.724 1.724 0 0 0-.672-.77c-.294-.183-.649-.271-1.06-.271-.439 0-.826.098-1.162.299-.336.2-.597.485-.78.858-.181.374-.275.808-.275 1.307v5.934h-2.306v-6.176c0-.462-.079-.86-.233-1.19a1.74 1.74 0 0 0-.682-.77c-.299-.183-.653-.272-1.064-.272-.443 0-.835.098-1.167.3-.336.2-.593.485-.77.858-.182.374-.27.808-.27 1.307v5.933h-2.358V57.437h2.287v1.568c.28-.532.644-.957 1.102-1.265.541-.364 1.2-.546 1.923-.546.723 0 1.354.164 1.881.495.527.331.938.798 1.223 1.405l.028.07c.313-.593.728-1.064 1.26-1.405.589-.373 1.275-.56 2.06-.56.727 0 1.362.163 1.913.495zM40.888 80.349a1 1 0 0 0 .117-.49h.004v-4.265h1.446v4.368c0 .41-.094.778-.285 1.11a2.047 2.047 0 0 1-.783.773c-.33.187-.709.28-1.123.28h-1.105v-1.329h.909c.186 0 .35-.037.49-.116a.809.809 0 0 0 .33-.331zm7.114-.886h-3.03v1.408h3.44v1.259h-4.848v-6.536h4.755v1.263h-3.347v1.385h3.03zm2.872-2.573h-1.94v-1.296h5.31v1.296H52.32v5.235h-1.445zm8.018 1.818c.135.037.26.084.377.144h.005c.266.145.476.34.625.597.149.256.224.545.224.867a1.6 1.6 0 0 1-.285.937 1.88 1.88 0 0 1-.802.643 2.856 2.856 0 0 1-1.174.234h-2.96v-6.536h2.904c.415 0 .788.074 1.114.219.326.144.578.35.76.61.182.262.27.56.27.891 0 .289-.07.545-.205.77-.135.223-.326.4-.564.521-.084.044-.18.072-.273.098zm-1.305-2.019h-1.282v1.609h1.282c.177 0 .335-.038.47-.103a.734.734 0 0 0 .322-.284.806.806 0 0 0 .117-.434.76.76 0 0 0-.117-.415.772.772 0 0 0-.322-.275 1.076 1.076 0 0 0-.47-.098zm.578 4.242a.825.825 0 0 0 .35-.289v.01a.753.753 0 0 0 .125-.434.81.81 0 0 0-.126-.447.835.835 0 0 0-.354-.303 1.237 1.237 0 0 0-.517-.108h-1.338v1.674h1.338c.195 0 .372-.033.522-.103zm7.72-2.177c-.2.313-.48.56-.844.732h-.005c-.065.033-.14.06-.214.089l1.491 2.555h-1.65l-1.324-2.383h-.942v2.383h-1.445v-6.536h2.863c.47 0 .885.084 1.244.256.36.173.634.415.83.727.196.313.294.667.294 1.082 0 .415-.098.783-.299 1.095zm-1.66-.284a.813.813 0 0 0 .345-.317v.005a.93.93 0 0 0 .121-.48.93.93 0 0 0-.121-.48.803.803 0 0 0-.345-.313 1.235 1.235 0 0 0-.527-.107h-1.3v1.804h1.3c.2 0 .378-.037.527-.112zm2.569 3.66 2.335-6.536h1.566l2.387 6.536h-1.44l-.494-1.44h-2.424l-.462 1.44zm3.011-4.844-.75 2.308h1.729l-.802-2.308-.088-.42zm5.328 4.844h-1.491v-6.536h1.491zm2.536-6.536 2.807 4.42h.004v-4.42h1.32v6.536h-1.422l-2.797-4.42v4.42h-1.32v-6.536zm8.289 2.638c.331.06.62.187.876.369v-.01c.257.187.453.41.597.686.145.275.215.573.215.895 0 .396-.108.75-.317 1.063-.21.312-.504.559-.877.736a3.016 3.016 0 0 1-1.291.266c-.48 0-.91-.089-1.282-.261a2.158 2.158 0 0 1-.881-.728 1.887 1.887 0 0 1-.331-1.076h1.445a.78.78 0 0 0 .135.447.84.84 0 0 0 .378.299c.163.07.35.107.55.107.2 0 .373-.033.522-.093.15-.061.261-.15.345-.266a.654.654 0 0 0 .126-.392.639.639 0 0 0-.168-.452.893.893 0 0 0-.457-.252l-1.175-.242a2.124 2.124 0 0 1-.81-.35 1.727 1.727 0 0 1-.542-.634 1.91 1.91 0 0 1-.19-.853c0-.391.102-.736.298-1.04.2-.302.475-.54.83-.713a2.725 2.725 0 0 1 1.212-.256 2.9 2.9 0 0 1 1.22.247c.355.163.635.392.835.685.2.29.308.63.317 1.007h-1.445a.67.67 0 0 0-.116-.377.766.766 0 0 0-.322-.257 1.097 1.097 0 0 0-.476-.093c-.177 0-.335.033-.47.089a.732.732 0 0 0-.317.242.626.626 0 0 0-.112.368c0 .159.051.285.154.392a.827.827 0 0 0 .415.219zm6.704 3.898H91.17v-6.536h1.492zm3.673-6.536c.62 0 1.18.144 1.674.424.494.284.885.671 1.165 1.17.284.494.424 1.058.424 1.674a3.37 3.37 0 0 1-.424 1.673c-.28.499-.667.886-1.165 1.17a3.309 3.309 0 0 1-1.674.425h-2.55v-6.536zm.937 5.062c.27-.163.48-.396.625-.699v-.005c.144-.303.219-.67.219-1.095 0-.424-.075-.793-.22-1.096a1.602 1.602 0 0 0-.624-.699c-.27-.163-.587-.242-.956-.242h-1.081v4.079h1.081c.369 0 .686-.08.956-.243zm4.569-1.193v1.408h3.44v1.259h-4.848v-6.536h4.755v1.263h-3.347v1.385h3.03v1.221z" clip-rule="evenodd"/><path fill="#d249fc" d="M27.123 53.198v-5.536c-.001-1.049-.851-1.899-1.9-1.899H19.86a1.9 1.9 0 0 0-1.441.663L3.169 64.216a1.9 1.9 0 0 0-.457 1.236v5.536c0 1.048.85 1.898 1.899 1.898h5.365a1.9 1.9 0 0 0 1.441-.662l15.249-17.79c.295-.345.457-.783.457-1.236z"/><path fill="url(#a)" d="M27.123 52.532v-4.87c0-1.049-.85-1.899-1.899-1.899h-6.103c-.09 0-.18.007-.269.02L1.63 48.242A1.899 1.899 0 0 0 0 50.122v7.306c0 1.05.85 1.9 1.9 1.899l8.641-.002c.204 0 .407-.033.6-.098l14.684-4.894a1.899 1.899 0 0 0 1.298-1.802Z"/><path fill="url(#b)" d="M29.835 73.7V57.867c0-.76-.453-1.446-1.15-1.745L11.207 48.63a1.901 1.901 0 0 0-.748-.153H1.9C.85 48.477 0 49.327 0 50.375v8.375c0 .376.111.742.32 1.054l9.977 14.95c.352.528.945.845 1.58.845h16.06c1.048 0 1.898-.85 1.898-1.898z"/><path fill="#000" d="M24.241 51.357H5.594v18.647h18.647Z"/><path fill="#fff" d="M16.333 53.725c-.473 0-.898.085-1.276.258-.375.173-.67.414-.884.723-.212.31-.317.663-.317 1.06 0 .323.064.617.195.88.13.261.316.478.557.654.244.173.53.29.86.353l1.402.268a.932.932 0 0 1 .541.293c.134.147.2.33.2.548a.738.738 0 0 1-.16.468 1.064 1.064 0 0 1-.45.323 1.738 1.738 0 0 1-.645.112 1.75 1.75 0 0 1-.684-.127 1.168 1.168 0 0 1-.473-.351.853.853 0 0 1-.171-.523h-1.339c.007.417.124.788.352 1.114.228.322.542.573.943.752.4.179.851.268 1.353.268.505 0 .957-.088 1.358-.267.4-.18.713-.429.937-.748.225-.322.338-.69.338-1.1 0-.332-.071-.637-.215-.918a1.931 1.931 0 0 0-.61-.708 2.174 2.174 0 0 0-.904-.376l-1.358-.254a.915.915 0 0 1-.504-.254.678.678 0 0 1-.18-.479c0-.163.049-.306.147-.43a.958.958 0 0 1 .41-.298c.176-.072.37-.108.591-.108.222 0 .42.037.596.112a.944.944 0 0 1 .41.303c.101.13.151.28.151.45h1.334a1.738 1.738 0 0 0-.332-1.036 2.117 2.117 0 0 0-.893-.708 3.109 3.109 0 0 0-1.28-.254zm-8.41.117v6.839h1.333v-2.584h1.563c.489 0 .917-.088 1.285-.264a1.99 1.99 0 0 0 .855-.752 2.09 2.09 0 0 0 .303-1.124c0-.42-.1-.79-.298-1.109a1.948 1.948 0 0 0-.84-.742c-.366-.176-.787-.264-1.265-.264Zm1.332 1.11h1.515c.225 0 .42.042.587.127.169.08.299.198.39.351.092.15.137.332.137.537 0 .205-.046.387-.137.543a.92.92 0 0 1-.39.356 1.319 1.319 0 0 1-.587.122H9.255ZM7.922 66.275v1.398h7.459v-1.398z"/></svg>
