<svg xmlns="http://www.w3.org/2000/svg" viewBox="0 0 128 128"><path fill="#000000" d="M81.447 0c-.45 0-.926.021-1.41.09v.007L8.552 10.313C3.664 11.01 0 15.223 0 20.163V55.982c0 1.97.587 3.894 1.678 5.53l11.18 16.757.722-.851a9.971 9.971 0 0 0-2.319 6.38v22.985c0 5.474 4.482 9.956 9.956 9.956h17.318l4.556 6.826a9.964 9.964 0 0 0 8.286 4.427l66.667.008c5.474 0 9.956-4.482 9.956-9.956V52.309a9.96 9.96 0 0 0-6.032-9.145l-7.929-3.397.3-.349a9.972 9.972 0 0 0 2.4-6.486V9.956a9.948 9.948 0 0 0-1.208-4.75v-.009a10.048 10.048 0 0 0-1.079-1.58 9.771 9.771 0 0 0-.632-.706 9.959 9.959 0 0 0-5.027-2.708h-.016l-.194-.04h-.065c-.235-.043-.466-.088-.722-.114a9.95 9.95 0 0 0-1.013-.048h-.008zm0 4.151h25.336a5.767 5.767 0 0 1 1.167.122c.217.044.4.082.552.13a5.838 5.838 0 0 1 2.756 1.856c.235.285.45.612.624.932a5.79 5.79 0 0 1 .706 2.765v22.976a5.797 5.797 0 0 1-1.395 3.778l-3.98 4.646 13.117 5.618a5.792 5.792 0 0 1 3.519 5.335v65.735a5.773 5.773 0 0 1-5.805 5.805l-66.667-.008a5.801 5.801 0 0 1-4.832-2.578l-5.789-8.675H21.217a5.773 5.773 0 0 1-5.805-5.805V83.798c0-1.386.49-2.715 1.395-3.77l.008-.008 1.232-1.459L5.132 59.209a5.826 5.826 0 0 1-.981-3.227V20.163a5.786 5.786 0 0 1 4.986-5.748L80.62 4.2v.008c.254-.036.533-.057.827-.057zM25.295 25.295v77.402h77.402V25.295Zm44.575 9.826c1.96 0 3.75.351 5.318 1.054 1.582.702 2.813 1.685 3.705 2.943.906 1.245 1.366 2.675 1.379 4.297h-5.538c0-.702-.205-1.325-.624-1.865-.405-.54-.973-.96-1.703-1.256-.73-.312-1.553-.47-2.472-.47-.92 0-1.727.149-2.457.445-.73.297-1.297.713-1.702 1.24a2.798 2.798 0 0 0-.609 1.785c0 .783.246 1.454.746 1.994.5.527 1.2.879 2.092 1.054l5.635 1.054c1.42.256 2.673.773 3.753 1.557a8.03 8.03 0 0 1 2.538 2.943c.594 1.163.892 2.431.892 3.81 0 1.703-.47 3.226-1.403 4.565-.933 1.325-2.228 2.362-3.891 3.105-1.663.743-3.54 1.11-5.635 1.11-2.082 0-3.955-.375-5.618-1.118-1.664-.744-2.97-1.783-3.916-3.122-.946-1.351-1.432-2.89-1.46-4.621h5.554c0 .812.24 1.537.713 2.173.487.621 1.137 1.107 1.962 1.46.838.351 1.784.518 2.838.518 1 0 1.9-.15 2.684-.462.797-.325 1.42-.77 1.864-1.338a3.057 3.057 0 0 0 .665-1.946c0-.905-.273-1.662-.827-2.27-.54-.621-1.294-1.026-2.254-1.216l-5.82-1.119c-1.366-.256-2.555-.742-3.568-1.459-1-.73-1.77-1.634-2.31-2.716-.542-1.095-.811-2.31-.811-3.648 0-1.65.434-3.118 1.313-4.403.892-1.285 2.117-2.29 3.673-3.008 1.567-.717 3.333-1.07 5.294-1.07zm-34.903.487h12.186c1.987 0 3.73.364 5.245 1.094 1.515.73 2.675 1.756 3.486 3.081.825 1.325 1.24 2.862 1.24 4.605 0 1.744-.418 3.324-1.256 4.662-.824 1.338-2.01 2.378-3.55 3.121-1.528.73-3.3 1.103-5.327 1.103h-6.494V64h-5.53zm5.53 4.605v8.456h6.283c.933 0 1.75-.173 2.44-.51.703-.353 1.244-.84 1.622-1.476.378-.649.567-1.403.567-2.254 0-.852-.188-1.61-.567-2.23a3.69 3.69 0 0 0-1.622-1.46c-.69-.351-1.507-.526-2.44-.526ZM34.959 87.22h30.962v5.805H34.96Z"/></svg>
