<svg xmlns="http://www.w3.org/2000/svg" viewBox="0 0 128 128"><g fill="#5058A6"><path d="M72 82.433v-11.27c0-2.497-.76-3.83-2.497-3.83-1.747 0-2.503 1.333-2.503 3.83v11.27c0 2.5.756 3.662 2.503 3.662 1.738 0 2.497-1.162 2.497-3.662z"/><path d="M84.148 99.97c1.053-1.217 1.933-2.163 2.776-3.075 1.68-1.808 3.132-3.37 5.778-6.98 2.6-3.54 4.283-6.2 4.012-10.778-.138-2.35-.234-3.967-1.765-5.86-.924-1.138-2.633-2.792-4.452-4.536-1.964-1.895-3.67-3.697-5.982-6.1-2.32-2.412-5.312-8.552-5.312-8.552-1.042-2.38-3.15-7.743-3.15-12.116l-.1-2.814c0-.122.01-.158.016-.158H42v24.09c2-2.203 4.437-2.956 6.763-2.956 3.778 0 7.237 2.204 7.237 7.083V92h-9V70.237c0-1.976-.926-2.903-2.44-2.903-1.693 0-2.56 1.1-2.56 2.903V92h-9V39H2v70h6V61h8v3.712c2-3.132 4.684-4.578 7.24-4.578 4.536 0 7.76 3.48 7.76 9.81V84.23c0 5.35-3.57 8.89-7.697 8.89-2.38 0-4.303-1.097-6.303-3.658V109h41V61h8v3.712c2-3.132 4.686-4.578 7.238-4.578 4.536 0 7.762 3.48 7.762 9.81V84.23c0 5.35-3.572 8.89-7.7 8.89-2.378 0-4.3-1.097-6.3-3.658V109h9.252l2.712-2.917c1.212-1.52 2.643-3.18 4.337-5.13l.848-.982z"/><path d="M22 82.433v-11.27c0-2.497-.756-3.83-2.495-3.83-1.744 0-2.505 1.333-2.505 3.83v11.27c0 2.5.76 3.662 2.505 3.662 1.74 0 2.495-1.162 2.495-3.662zm104.285-6.399c0-4.64-3.318-11.588-3.318-11.588-.52-1.21-2.276-3.446-3.406-5.446h.025c-.362 0-.612-.685-.612-.685-3.307-3.797-8.333-7.98-10.54-10.707-2.59-3.196-2.663-6.16-2.8-8.496-.376-6.302 2.174-10.088 4.902-13.81 4.126-5.618 5.613-6.66 8.785-10.332 2.03-2.348 3.7-4.24 5.073-5.97H93.63c-1.83 2.338-5.547 6.842-7.67 10.838-2.8 5.29-5.11 9.258-5.335 18.994l.098 3.14c0 4.64 3.326 11.58 3.326 11.58.518 1.212 2.273 3.448 3.395 5.448h-.026c.37 0 .613.685.613.685 3.315 3.797 8.332 7.98 10.547 10.707 2.59 3.2 2.656 6.164 2.792 8.493.38 6.3-2.175 10.088-4.903 13.81-4.122 5.624-5.61 6.662-8.783 10.34-2.026 2.344-3.69 4.237-5.065 5.965H114.4c1.867-2.4 4.515-6.817 6.65-10.837 2.802-5.288 5.113-9.26 5.336-18.99l-.1-3.14z"/></g></svg>