<svg xmlns:xlink="http://www.w3.org/1999/xlink" xmlns="http://www.w3.org/2000/svg" class="sprite-img phpstorm" width="128"  height="128" ><defs><symbol xmlns="http://www.w3.org/2000/svg" fill="none" viewBox="0 0 70 70" id="phpstorm"><defs><linearGradient id="phpstorm_phpstorm_svg__a" x1="17.617" x2="23.56" y1="21.533" y2="9.655" gradientUnits="userSpaceOnUse"><stop offset="0" stop-color="#AF1DF5"></stop><stop offset=".21" stop-color="#BC20E4"></stop><stop offset=".63" stop-color="#DD29B8"></stop><stop offset="1" stop-color="#FF318C"></stop></linearGradient><linearGradient id="phpstorm_phpstorm_svg__b" x1="2.258" x2="31.498" y1="48.027" y2="9.401" gradientUnits="userSpaceOnUse"><stop offset=".02" stop-color="#6B57FF"></stop><stop offset=".42" stop-color="#B74AF7"></stop><stop offset=".75" stop-color="#FF318C"></stop></linearGradient><linearGradient id="phpstorm_phpstorm_svg__c" x1="53.04" x2="35.657" y1="47.667" y2="6.426" gradientUnits="userSpaceOnUse"><stop offset="0" stop-color="#293896"></stop><stop offset=".08" stop-color="#3B3AA2"></stop><stop offset=".29" stop-color="#6740C0"></stop><stop offset=".49" stop-color="#8A44D8"></stop><stop offset=".68" stop-color="#A347E9"></stop><stop offset=".86" stop-color="#B249F3"></stop><stop offset="1" stop-color="#B74AF7"></stop></linearGradient><linearGradient id="phpstorm_phpstorm_svg__d" x1="50.044" x2="23.634" y1="61.283" y2="22.588" gradientUnits="userSpaceOnUse"><stop offset=".02" stop-color="#6B57FF"></stop><stop offset=".78" stop-color="#B74AF7"></stop></linearGradient></defs><path fill="url(&quot;#phpstorm_phpstorm_svg__a&quot;)" d="M38.6458 12.3228L36.3125 5.24996L11.9583 0L0 13.4895L13.125 20.1978L34.9271 30.0415L38.6458 12.3228Z"></path><path fill="url(&quot;#phpstorm_phpstorm_svg__b&quot;)" d="M26.9792 20.489L0 13.489L6.63542 53.5929L26.4687 53.52L26.9792 20.489Z"></path><path fill="url(&quot;#phpstorm_phpstorm_svg__c&quot;)" d="M18.9582 25.6665L34.0519 12.2499L43.2394 4.15625L60.8853 7.43748L69.9999 30.0415L56.8749 43.0935L18.9582 25.6665Z"></path><path fill="url(&quot;#phpstorm_phpstorm_svg__d&quot;)" d="M49.9479 17.0628L14.2188 16.917L19.25 56.073L20.1979 61.7604L43.8958 70L70 54.323L49.9479 17.0628Z"></path><path fill="#000" d="M56 14H14V56H56V14Z"></path><path fill="#FFFFFF" d="M34.4166 48.6499H18.6666V51.3332H34.4166V48.6499Z"></path><path fill="#FFFFFF" d="M32.97 32.76L35 30.31C36.4 31.5 37.94 32.2 39.69 32.2C41.09 32.2 42 31.64 42 30.73V30.66C42 29.75 41.44 29.33 38.85 28.63C35.63 27.86 33.6 26.95 33.6 23.8V23.73C33.6 20.86 35.91 18.97 39.13 18.97C41.44 18.97 43.4 19.67 45.01 21L43.19 23.59C41.79 22.61 40.39 22.05 39.06 22.05C37.73 22.05 37.03 22.68 37.03 23.45V23.52C37.03 24.57 37.73 24.92 40.46 25.62C43.68 26.46 45.5 27.58 45.5 30.38V30.45C45.5 33.6 43.12 35.35 39.69 35.35C37.31 35.28 34.86 34.44 32.97 32.76Z"></path><path fill="#FFFFFF" d="M19.25 19.25H25.69C29.47 19.25 31.71 21.49 31.71 24.71V24.78C31.71 28.42 28.91 30.31 25.34 30.31H22.68V35H19.25V19.25ZM25.48 27.16C27.23 27.16 28.21 26.11 28.21 24.78V24.71C28.21 23.17 27.16 22.33 25.41 22.33H22.75V27.16H25.48Z"></path></symbol></defs><use xlink:href="#phpstorm"></use></svg>