<svg xmlns="http://www.w3.org/2000/svg" viewBox="0 0 128 128"><g fill="#5058A6"><path d="M13.836 100.063c-1.14-1.026-2.778-1.598-5.23-1.598-2 0-3.606.172-4.606.372V118h2v-7.864c1 .143 1.335.17 2.078.17 2.425 0 4.605-.712 5.918-2.11.97-1 1.504-2.37 1.504-4.11 0-1.71-.608-3.11-1.664-4.023zm-5.7 8.246c-.828 0-1.136-.057-2.136-.2v-7.476c1-.114 1.335-.2 2.42-.2 2.74 0 4.538 1.227 4.538 3.766 0 2.655-1.827 4.11-4.823 4.11zM25.37 103.716c-.943 0-1.732.186-2.474.615-.77.43-1.302.67-1.7 1.67H21v-8h-2v20h2v-8.49c0-.486.096-.857.24-1.2.457-1.37 1.84-2.51 3.466-2.51 2.368 0 3.294 1.882 3.294 4.108V118h2v-8.378c0-4.765-2.776-5.906-4.63-5.906zM41.677 103.516c-2.254 0-3.88 1.484-4.907 2.484h-.057l-.114-2h-2.256c.056 1-.344 2.77-.344 4.538V123h3v-7h-.003c.83 1 2.426 2.16 4.253 2.16 3.252 0 6.276-2.557 6.276-7.52 0-4.195-2.51-7.124-5.85-7.124zm-.857 12.67c-1.797 0-3.28-1.2-3.736-2.94A5.762 5.762 0 0 1 37 112.22v-2.37c0-.342.056-.712.14-1.026.487-1.883 2.07-3.11 3.782-3.11 2.653 0 4.1 2.37 4.1 5.136 0 3.166-1.548 5.335-4.202 5.335zM57.965 106.427c-2.482-.942-3.567-1.484-3.567-2.71 0-1 .914-1.856 2.797-1.856a9.14 9.14 0 0 1 4.023.915l.97-3.51c-1.14-.513-2.74-.97-4.908-.97-4.537 0-7.275 2.51-7.275 5.792 0 2.796 2.082 4.565 5.278 5.678 2.312.827 3.225 1.512 3.225 2.71 0 1.257-1.056 2.084-3.053 2.084-1.854 0-3.652-.6-4.822-1.2l-.884 3.595c1.084.6 3.253 1.17 5.45 1.17 5.278 0 7.76-2.74 7.76-5.964 0-2.71-1.6-4.478-4.995-5.733zM70 99.893l-4 .97V104h-2v3h2v5.79c0 1.968.504 3.31 1.302 4.137.685.713 1.907 1.2 3.305 1.2 1.227 0 2.28-.144 2.85-.372l-.014-3.28c-.315.056-.966.113-1.507.113-1.312 0-1.935-.77-1.935-2.454V107h4v-3h-4v-4.107zM82.583 103.574c-4.48 0-7.446 2.88-7.446 7.39 0 4.508 3.138 7.19 7.22 7.19 3.736 0 7.36-2.34 7.36-7.447 0-4.195-2.853-7.133-7.134-7.133zm-.114 11.47c-1.855 0-2.854-1.8-2.854-4.195 0-2.056.77-4.196 2.853-4.196 1.97 0 2.767 2.112 2.767 4.195 0 2.51-1.084 4.193-2.768 4.193zM96.275 106h-.114l-.14-2H92.28c.057 1-.282 2.427-.282 4.48V118h5v-7.236c0-.343-.105-.685-.048-.97.284-1.34 1.325-2.197 2.922-2.197.485 0 1.125.057 1.125.114v-4.08c0-.056-.537-.284-.937-.284-1.34 0-3.073.654-3.788 2.654zM119.453 103.574c-1.028 0-1.803.257-2.573.714-.657.4-1.204.713-1.718 1.713h-.057c-.6-2-2.025-2.28-3.823-2.28-2.397 0-3.623 1.28-4.223 2.28h-.086l-.2-2h-3.65c.056 1-.122 2.6-.122 4.34V118h4v-8.292c0-.343.258-.742.4-1.084.256-.713 1.202-1.57 2.315-1.57 1.37 0 2.285 1.2 2.285 2.97V118h4v-8.32c0-.344-.005-.8.11-1.114.285-.827.917-1.512 1.916-1.512 1.4 0 1.974 1.17 1.974 3.195V118h4v-8.378c-.002-4.165-1.868-6.048-4.55-6.048zM34 64.947V56.86c0-1.79-.75-2.746-1.996-2.746-1.25 0-2.004.956-2.004 2.747v8.087c0 1.793.752 2.627 2.004 2.627 1.247 0 1.996-.833 1.996-2.627z"/><path d="M78.456 77.53c.755-.874 1.387-1.553 1.992-2.207 1.206-1.297 2.247-2.417 4.145-5.007 1.866-2.54 3.073-4.448 2.878-7.733-.098-1.686-.167-2.846-1.266-4.204-.662-.818-1.89-2.004-3.193-3.255-1.408-1.36-2.63-2.653-4.29-4.378-1.665-1.73-3.812-6.135-3.812-6.135-.748-1.707-2.26-5.555-2.26-8.693l-.07-1.913c0-.088.007-.006.01-.006H48v17.07c1-1.58 3.16-2.12 4.83-2.12 2.71 0 5.17 1.58 5.17 5.082V72h-6V56.197c0-1.417-.87-2.083-1.956-2.083-1.215 0-2.044.79-2.044 2.083V72h-6V34H19v50h5V50h6v2.233c1-2.247 2.98-3.285 4.813-3.285 3.254 0 5.187 2.497 5.187 7.04v10.248c0 3.838-2.54 6.38-5.5 6.38-1.707 0-2.5-.79-4.5-2.626V84h30V50h6v2.233c1-2.247 2.98-3.285 4.812-3.285 3.254 0 5.188 2.497 5.188 7.04v10.248c0 3.838-2.54 6.38-5.503 6.38-1.705 0-2.497-.79-4.497-2.626V84h6.79l1.946-2.09c.87-1.09 1.896-2.278 3.11-3.68l.61-.7z"/><path d="M70 64.947V56.86c0-1.79-.75-2.746-1.998-2.746-1.253 0-2.002.956-2.002 2.747v8.087c0 1.793.748 2.627 2.002 2.627 1.247 0 1.998-.833 1.998-2.627zM78.385 44.158c.372.87 1.63 2.842 2.436 3.842h-.018c.267 0 .44.56.44.56 2.38 2.723 5.98 5.757 7.568 7.714 1.858 2.297 1.906 4.44 2.003 6.11.273 4.522-1.56 7.247-3.518 9.918-2.957 4.034-4.025 4.78-6.3 7.42C79.54 81.4 78.346 83 77.36 84h22.8c1.34-2 3.24-4.887 4.77-7.77 2.012-3.795 3.67-6.643 3.83-13.623l-.072-2.252c0-3.33-2.38-8.38-2.38-8.38-.375-.87-1.634-2.975-2.445-3.975h.017c-.26 0-.44-.424-.44-.424-2.372-2.724-5.977-5.69-7.56-7.648-1.86-2.293-1.912-4.402-2.012-6.08-.27-4.52 1.56-7.228 3.518-9.9 2.96-4.03 4.027-4.904 6.303-7.54 1.454-1.683 2.654-2.408 3.64-4.408H85.257c-1.312 2-3.98 5.04-5.502 7.906-2.01 3.794-3.666 6.708-3.828 13.693l.07 2.295c0 3.33 2.387 8.263 2.387 8.263z"/></g></svg>