<svg xmlns="http://www.w3.org/2000/svg" viewBox="0 0 128 128"><path fill="#5058A6" d="M67.145 94.463c1.973 2.56 3.948 3.66 6.325 3.66 4.13 0 7.726-3.543 7.726-8.892V74.946c0-6.33-3.19-9.81-7.726-9.81-2.552 0-5.34 1.445-7.203 4.577v-3.714h-7.95V114H16.833V94.463c1.973 2.56 3.95 3.66 6.33 3.66 4.127 0 7.725-3.543 7.725-8.892V74.946c0-6.33-3.188-9.81-7.724-9.81-2.555 0-5.344 1.445-7.203 4.577v-3.714H8.01V114H1.614V43.646h31.533v53.607h8.827V75.237c0-1.803.747-2.903 2.44-2.903 1.514 0 2.32.928 2.32 2.903v22.015h8.832V72.217c0-4.88-3.255-7.083-7.033-7.083-2.326 0-4.82.752-6.56 2.957V43.647H75.97c-.005.12-.016.213-.016.335l.1 2.992c0 4.374 2.107 9.736 3.15 12.116 0 0 2.994 6.14 5.312 8.55 2.313 2.405 4.018 4.207 5.982 6.103 1.82 1.745 3.528 3.4 4.45 4.537 1.532 1.893 1.628 3.51 1.766 5.86.27 4.58-1.412 7.237-4.012 10.78-2.646 3.61-4.097 5.17-5.778 6.978-.843.912-1.723 1.858-2.776 3.076l-.848.982c-1.694 1.952-3.124 3.61-4.337 5.13L76.253 114h-9.107V94.463zm5.222-7.03v-11.27c0-2.497-.87-3.83-2.608-3.83-1.748 0-2.614 1.333-2.614 3.83v11.27c0 2.5.867 3.662 2.613 3.662 1.738 0 2.607-1.162 2.607-3.662zm-50.312 0v-11.27c0-2.497-.867-3.83-2.606-3.83-1.745 0-2.617 1.333-2.617 3.83v11.27c0 2.5.872 3.662 2.616 3.662 1.738 0 2.605-1.162 2.605-3.662z"/><path fill="#F58A1F" d="M119.32 19.977c2.028-2.348 3.7-4.25 5.072-5.977H93.63c-1.83 2.337-5.547 6.84-7.67 10.837-2.8 5.288-5.11 9.258-5.335 18.994l.098 3.14c0 4.64 3.326 11.458 3.326 11.458.517 1.212 2.272 3.765 3.394 5.325h-.026c.372.492.614.808.614.808 3.315 3.798 8.333 8.04 10.547 10.77 2.59 3.2 2.655 6.194 2.79 8.523.38 6.3-2.174 10.103-4.902 13.826-4.12 5.622-5.61 6.667-8.782 10.347-2.026 2.343-3.69 4.243-5.065 5.972h31.78c1.867-2.402 4.515-6.818 6.65-10.838 2.802-5.288 5.113-9.26 5.336-18.99l-.1-3.14c0-4.64-3.32-11.464-3.32-11.464-.52-1.21-2.275-3.752-3.405-5.323h.025a49.958 49.958 0 0 0-.612-.808c-3.307-3.797-8.333-8.04-10.54-10.768-2.59-3.197-2.663-6.19-2.8-8.528-.376-6.302 2.174-10.103 4.902-13.826 4.126-5.617 5.612-6.667 8.784-10.34z"/></svg>