<svg xmlns="http://www.w3.org/2000/svg" viewBox="0 0 128 128"><path fill="#3d4c73" d="M3.516 41.924C1.574 41.924 0 43.55 0 45.554v36.891c0 2.005 1.574 3.631 3.512 3.631h36.713c1.937 0 3.511-1.626 3.511-3.63V45.554c0-2.005-1.57-3.631-3.511-3.631H3.515zm68.236 9.972c-.983 0-1.781.8-1.781 1.795v17.97c-.004.99.79 1.794 1.781 1.798a1.785 1.785 0 0 0 1.775-1.799V53.691c0-.994-.796-1.795-1.775-1.795zm24.877 0a1.784 1.784 0 0 0-1.775 1.795V66.27c0 3.966 3.186 7.189 7.105 7.189a1.79 1.79 0 0 0 1.781-1.799 1.794 1.794 0 0 0-1.781-1.797c-1.957 0-3.55-1.608-3.55-3.593v-7.188h3.55a1.792 1.792 0 0 0 1.781-1.795 1.795 1.795 0 0 0-1.781-1.799h-3.55v-1.797a1.788 1.788 0 0 0-1.78-1.795zm12.437 0c-.978 0-1.775.8-1.775 1.795v17.97a1.785 1.785 0 0 0 1.775 1.798 1.788 1.788 0 0 0 1.782-1.799V53.691c0-.994-.799-1.795-1.782-1.795zm-55.09 3.592a1.79 1.79 0 0 0-1.775 1.8v17.966c0 .994.797 1.8 1.776 1.8a1.79 1.79 0 0 0 1.775-1.8v-2.828a6.645 6.645 0 0 0 3.557 1.033c3.926 0 7.107-3.45 7.107-7.703V63.19c0-4.254-3.18-7.703-7.107-7.703a6.697 6.697 0 0 0-3.686 1.117 1.787 1.787 0 0 0-1.646-1.117zm30.213 0c-3.926 0-7.107 3.45-7.107 7.703v2.565c0 4.254 3.18 7.703 7.107 7.703s7.108-3.45 7.108-7.703V63.19c0-4.254-3.181-7.703-7.108-7.703zm31.375.002a1.786 1.786 0 0 0-.68.145 1.806 1.806 0 0 0-.93 2.36l5.019 11.833-.6 1.41a3.56 3.56 0 0 1-3.201 2.217 1.79 1.79 0 0 0-1.736 1.84c.02.967.804 1.748 1.775 1.752h.043a7.113 7.113 0 0 0 6.394-4.412l6.207-14.64a1.806 1.806 0 0 0-.931-2.36 1.78 1.78 0 0 0-1.365-.018c-.438.178-.79.525-.971.96l-3.686 8.694-3.681-8.695a1.766 1.766 0 0 0-1.656-1.086zM59.31 59.082c1.965 0 3.554 1.757 3.554 3.924v2.94c0 2.162-1.59 3.917-3.554 3.917-1.962 0-3.557-1.755-3.557-3.918v-2.94c0-2.166 1.595-3.923 3.557-3.923zm24.88 0c1.962 0 3.557 1.757 3.557 3.924v2.94c0 2.162-1.595 3.917-3.557 3.917-1.965 0-3.554-1.755-3.554-3.918v-2.94c0-2.166 1.59-3.923 3.554-3.923z"/><path fill="#7fcfbd" d="M18.238 50.474a.492.492 0 0 0-.346.192c-.098-.008-.193-.016-.292-.016-.059 0-.114.004-.165.012-.312-.123-.64-.127-.782.272-.055.154-.087.32-.09.485a.65.65 0 0 0-.154.158c-.296.43-.257 1.188-.139 1.67.206.816 1.074 1.46 1.832 1.219a.45.45 0 0 0 .173-.071c.403.075.845-.06 1.196-.486.52-.639.572-1.5.268-2.213a.39.39 0 0 0-.15-.296 2.192 2.192 0 0 0-.655-.691c-.23-.153-.479-.257-.696-.235zm15.507 0a.5.5 0 0 0-.348.192 3.52 3.52 0 0 0-.292-.016c-.059 0-.114.004-.165.012-.308-.123-.64-.127-.782.272-.055.154-.083.32-.09.485a.572.572 0 0 0-.15.158c-.3.43-.257 1.188-.139 1.67.202.816 1.07 1.46 1.827 1.219a.45.45 0 0 0 .174-.071c.407.075.845-.06 1.196-.486.52-.639.576-1.5.272-2.213a.394.394 0 0 0-.154-.296 2.234 2.234 0 0 0-.655-.691c-.23-.153-.477-.257-.694-.235zm-23.913.296c-.468-.016-.924.164-1.205.606a.724.724 0 0 0-.071.118 1.906 1.906 0 0 0-.624 1.105.237.237 0 0 0-.17.233c-.015.497.241.888.608 1.148.387.348.955.486 1.511.502.825.023 1.393-.43 1.646-1.026l.012-.012c.438-.576.49-1.378-.142-1.827-.032-.024-.071-.048-.107-.071a2.003 2.003 0 0 0-.422-.415 1.91 1.91 0 0 0-1.036-.36zm15.967.002c-.468-.017-.924.162-1.206.604l-.07.118a1.906 1.906 0 0 0-.624 1.105.242.242 0 0 0-.17.233c-.016.497.24.888.612 1.152.382.344.95.482 1.507.498.825.023 1.393-.43 1.646-1.026l.012-.012c.438-.576.489-1.377-.139-1.827l-.106-.071a2 2 0 0 0-.426-.41c-.3-.218-.672-.35-1.036-.364zm-15.389.916c.186.047.363.118.517.205.055.079.107.162.146.252a1.072 1.072 0 0 0-.418-.236c-.032-.067-.09-.127-.162-.139l-.02-.007c-.02-.024-.04-.052-.063-.075zm15.967 0c.185.047.363.118.517.205.059.079.106.162.146.252a1.06 1.06 0 0 0-.415-.236c-.031-.067-.09-.127-.161-.139l-.024-.007c-.02-.024-.04-.052-.063-.075zm-8.374.22a.45.45 0 0 1 .067.036.352.352 0 0 1 .04.024c.031.173.02.406-.119.481a3.533 3.533 0 0 1 .012-.54zm15.505 0c.023.009.047.02.07.036l.036.024c.032.173.024.406-.118.481a4.129 4.129 0 0 1 .012-.54zM10 52.32c.016.012.027.02.043.028.044.02.091.035.138.043a.973.973 0 0 1 .004.107c-.075-.103-.217-.11-.323-.052l-.016-.075zm15.97 0c.012.012.024.02.04.028a.54.54 0 0 0 .138.043c.004.036.008.071.004.107-.075-.103-.217-.11-.324-.052l-.015-.075zm-16.617.166c.008.031.012.063.02.094.011.048.027.095.043.143-.048-.052-.071-.13-.063-.237zm15.97 0a1.3 1.3 0 0 0 .06.237c-.048-.052-.072-.13-.06-.237zm-5.852.035c.008.34-.075.675-.26.963h.003a1.068 1.068 0 0 1-.402.379c.098-.15.19-.328.272-.525.02-.04.04-.079.055-.118a.222.222 0 0 0 .071-.221s.004-.004.004-.008c.123-.09.206-.257.237-.438zm15.505 0c.012.34-.075.675-.257.963a1.032 1.032 0 0 1-.398.379c.094-.15.19-.328.268-.525.02-.04.04-.079.055-.118a.214.214 0 0 0 .071-.221c.004 0 .004-.004.004-.008.123-.09.205-.257.237-.438zm-18.323.071c.08.284.19.56.308.805.067.178.154.371.264.51a1.67 1.67 0 0 1-.157-.123c-.26-.24-.371-.604-.403-.943a2.618 2.618 0 0 1-.012-.249zm15.51 0c.074.284.189.56.303.805.067.178.154.371.264.51a1.67 1.67 0 0 1-.157-.123c-.257-.24-.371-.604-.403-.943a1.727 1.727 0 0 1-.008-.249zm-21.465.273a.471.471 0 0 1 .012.244l-.067-.126a.731.731 0 0 0 .055-.118zm15.967 0a.435.435 0 0 1 .012.244l-.067-.126a.828.828 0 0 0 .055-.118zm-16.72.753c.02.024.04.048.063.071a.999.999 0 0 1-.419.028l.024-.032c.11-.003.225-.027.332-.067zm15.966 0c.02.024.04.048.063.071a.994.994 0 0 1-.418.028l.024-.032c.11-.003.225-.027.331-.067zm-16.079 4.42c-.468-.017-.924.162-1.205.604a.76.76 0 0 0-.071.122 1.896 1.896 0 0 0-.624 1.101.237.237 0 0 0-.17.233c-.015.501.241.892.608 1.152.387.344.955.486 1.511.498.825.023 1.393-.43 1.646-1.026l.012-.012c.438-.576.49-1.377-.142-1.827a.973.973 0 0 0-.107-.067 1.83 1.83 0 0 0-.422-.415 1.92 1.92 0 0 0-1.036-.363zm15.967 0c-.468-.017-.924.162-1.206.604-.024.04-.047.079-.07.122a1.896 1.896 0 0 0-.624 1.101.242.242 0 0 0-.17.233c-.016.501.24.892.612 1.152.382.344.95.486 1.507.498.825.023 1.393-.43 1.646-1.026l.012-.012c.438-.576.489-1.377-.139-1.827a1.585 1.585 0 0 0-.106-.067 1.928 1.928 0 0 0-.426-.415 1.92 1.92 0 0 0-1.036-.363zm-15.389.916c.186.051.363.118.517.205.055.079.107.162.146.252a1.106 1.106 0 0 0-.418-.236c-.032-.067-.09-.127-.162-.138l-.02-.004c-.02-.028-.04-.056-.063-.08zm15.967 0c.185.051.363.118.517.205.059.079.106.162.146.252a1.06 1.06 0 0 0-.415-.236c-.031-.067-.09-.127-.161-.138l-.024-.004c-.02-.028-.04-.056-.063-.08zM10 59.588l.043.024a.625.625 0 0 0 .138.047.868.868 0 0 1 .004.103c-.075-.103-.217-.11-.323-.052l-.016-.075zm15.97 0a.571.571 0 0 0 .178.071.438.438 0 0 1 .004.103c-.075-.103-.217-.11-.324-.052l-.015-.075zm-16.617.162a.953.953 0 0 0 .063.237c-.048-.052-.071-.13-.063-.237zm15.97 0a.803.803 0 0 0 .06.237c-.048-.052-.072-.13-.06-.237zm-14.625.379a.473.473 0 0 1 .012.244c-.024-.043-.043-.082-.067-.126a.731.731 0 0 0 .055-.118zm15.967 0a.435.435 0 0 1 .012.244c-.024-.043-.044-.082-.067-.126a.828.828 0 0 0 .055-.118zm-16.72.753c.02.024.04.048.063.071a.999.999 0 0 1-.419.028l.024-.028v-.003c.11-.004.225-.028.332-.068zm15.966 0c.02.024.04.048.063.071a.994.994 0 0 1-.418.028l.024-.028v-.003c.11-.004.225-.028.331-.068z"/><path fill="#fff" d="M10.229 65.736c-1.074 0-1.938.884-1.938 1.973v7.893c0 1.09.864 1.97 1.938 1.97 1.07 0 1.937-.88 1.937-1.97v-7.893c0-1.089-.868-1.973-1.937-1.973m15.509 0c-1.07 0-1.938.884-1.938 1.973v7.893c0 1.09.868 1.97 1.938 1.97 1.073 0 1.941-.88 1.941-1.97v-7.893c0-1.089-.868-1.973-1.941-1.973m-7.755-7.888c-1.07 0-1.937.884-1.937 1.973v15.781c0 1.09.868 1.97 1.937 1.97 1.07 0 1.938-.88 1.938-1.97V59.821c0-1.09-.868-1.973-1.938-1.973m15.513 0c-1.073 0-1.942.884-1.942 1.973v15.781c0 1.09.869 1.97 1.942 1.97 1.07 0 1.938-.88 1.938-1.97V59.821c0-1.09-.869-1.973-1.938-1.973"/></svg>
