<?xml version="1.0" encoding="UTF-8"?>
<svg xmlns="http://www.w3.org/2000/svg" xmlns:xlink="http://www.w3.org/1999/xlink" width="128px" height="128px" viewBox="0 0 128 128" version="1.1">
<g id="surface1">
<path style=" stroke:none;fill-rule:evenodd;fill:rgb(24.705882%,30.980392%,45.882353%);fill-opacity:1;" d="M 115.800781 126.300781 L 12.195312 126.300781 C 6.722656 126.300781 2.28125 121.714844 2.28125 116.0625 L 2.28125 11.9375 C 2.28125 6.28125 6.722656 1.699219 12.199219 1.699219 L 115.800781 1.699219 C 121.28125 1.699219 125.71875 6.28125 125.71875 11.9375 L 125.71875 116.0625 C 125.71875 121.714844 121.277344 126.300781 115.800781 126.300781 "/>
<path style=" stroke:none;fill-rule:evenodd;fill:rgb(50.196078%,81.176471%,74.509804%);fill-opacity:1;" d="M 33.113281 50.335938 C 33.28125 50.554688 33.417969 50.792969 33.527344 51.042969 C 33.191406 50.738281 32.789062 50.515625 32.355469 50.382812 C 32.265625 50.1875 32.097656 50.023438 31.898438 49.984375 L 31.839844 49.972656 C 31.78125 49.898438 31.722656 49.824219 31.660156 49.753906 C 32.179688 49.894531 32.683594 50.089844 33.113281 50.335938 M 29.410156 55.394531 C 29.726562 55.375 30.039062 55.3125 30.339844 55.203125 C 30.398438 55.269531 30.460938 55.339844 30.523438 55.40625 C 30.140625 55.511719 29.738281 55.535156 29.34375 55.476562 L 29.410156 55.398438 M 30.621094 51.617188 C 30.746094 51.675781 30.875 51.71875 31.007812 51.746094 C 31.023438 51.84375 31.027344 51.9375 31.027344 52.035156 C 30.808594 51.746094 30.410156 51.726562 30.117188 51.894531 L 30.0625 51.679688 L 30.503906 51.542969 C 30.539062 51.570312 30.578125 51.597656 30.621094 51.617188 M 28.679688 52.003906 C 28.710938 52.234375 28.769531 52.460938 28.851562 52.675781 C 28.714844 52.527344 28.652344 52.304688 28.679688 52.003906 M 32.503906 53.765625 C 32.445312 53.644531 32.382812 53.527344 32.320312 53.40625 C 32.378906 53.300781 32.429688 53.191406 32.46875 53.074219 C 32.550781 53.3125 32.554688 53.542969 32.503906 53.765625 M 34.449219 49.558594 C 34.347656 49.492188 34.25 49.425781 34.144531 49.359375 C 33.808594 48.914062 33.40625 48.519531 32.953125 48.191406 C 31.007812 46.792969 28.035156 46.65625 26.621094 48.875 C 26.550781 48.984375 26.484375 49.097656 26.425781 49.214844 C 25.5 50.023438 24.878906 51.121094 24.660156 52.332031 C 24.375 52.421875 24.179688 52.6875 24.183594 52.988281 C 24.144531 54.394531 24.867188 55.496094 25.90625 56.234375 C 26.988281 57.210938 28.597656 57.601562 30.167969 57.644531 C 32.492188 57.703125 34.09375 56.433594 34.816406 54.746094 L 34.84375 54.710938 C 36.078125 53.082031 36.222656 50.828125 34.449219 49.558594 M 33.113281 29.832031 C 33.28125 30.050781 33.417969 30.285156 33.527344 30.535156 C 33.191406 30.234375 32.789062 30.007812 32.355469 29.878906 C 32.265625 29.679688 32.097656 29.519531 31.898438 29.480469 L 31.839844 29.464844 C 31.78125 29.390625 31.722656 29.320312 31.660156 29.25 C 32.179688 29.386719 32.683594 29.582031 33.113281 29.832031 M 29.410156 34.890625 C 29.726562 34.871094 30.039062 34.808594 30.339844 34.695312 C 30.398438 34.765625 30.460938 34.832031 30.523438 34.898438 C 30.140625 35.007812 29.738281 35.035156 29.34375 34.972656 L 29.410156 34.890625 M 30.621094 31.113281 C 30.746094 31.171875 30.875 31.210938 31.007812 31.238281 C 31.023438 31.335938 31.027344 31.433594 31.027344 31.53125 C 30.808594 31.242188 30.410156 31.21875 30.117188 31.390625 L 30.0625 31.171875 L 30.503906 31.039062 C 30.539062 31.066406 30.578125 31.09375 30.621094 31.113281 M 28.679688 31.496094 C 28.691406 31.585938 28.707031 31.675781 28.730469 31.765625 C 28.765625 31.898438 28.804688 32.03125 28.851562 32.167969 C 28.714844 32.019531 28.652344 31.796875 28.679688 31.496094 M 32.503906 33.257812 L 32.320312 32.898438 C 32.378906 32.789062 32.429688 32.683594 32.46875 32.566406 C 32.550781 32.804688 32.554688 33.035156 32.503906 33.257812 M 34.449219 29.050781 C 34.351562 28.980469 34.25 28.914062 34.144531 28.847656 C 33.808594 28.402344 33.40625 28.011719 32.953125 27.683594 C 31.007812 26.28125 28.035156 26.148438 26.621094 28.367188 C 26.550781 28.476562 26.484375 28.589844 26.425781 28.707031 C 25.5 29.511719 24.878906 30.613281 24.660156 31.820312 C 24.375 31.910156 24.179688 32.175781 24.183594 32.476562 C 24.144531 33.882812 24.867188 34.988281 25.90625 35.726562 C 26.988281 36.699219 28.597656 37.089844 30.167969 37.136719 C 32.492188 37.199219 34.09375 35.925781 34.816406 34.238281 L 34.84375 34.203125 C 36.078125 32.578125 36.222656 30.320312 34.449219 29.050781 M 78.179688 50.335938 C 78.34375 50.554688 78.484375 50.792969 78.59375 51.042969 C 78.253906 50.738281 77.855469 50.515625 77.421875 50.382812 C 77.332031 50.1875 77.164062 50.023438 76.960938 49.984375 L 76.902344 49.972656 C 76.847656 49.898438 76.789062 49.824219 76.726562 49.753906 C 77.246094 49.894531 77.746094 50.089844 78.179688 50.335938 M 74.472656 55.394531 C 74.789062 55.375 75.105469 55.3125 75.40625 55.203125 C 75.464844 55.269531 75.523438 55.339844 75.589844 55.40625 C 75.203125 55.511719 74.800781 55.535156 74.410156 55.476562 L 74.472656 55.398438 M 75.6875 51.617188 C 75.8125 51.675781 75.941406 51.71875 76.078125 51.746094 C 76.089844 51.84375 76.09375 51.9375 76.09375 52.035156 C 75.875 51.746094 75.476562 51.726562 75.179688 51.894531 L 75.125 51.679688 L 75.570312 51.542969 C 75.605469 51.570312 75.644531 51.597656 75.6875 51.617188 M 73.746094 52.003906 C 73.773438 52.234375 73.832031 52.460938 73.914062 52.675781 C 73.78125 52.527344 73.71875 52.304688 73.746094 52.003906 M 77.570312 53.765625 C 77.507812 53.644531 77.445312 53.527344 77.386719 53.40625 C 77.445312 53.300781 77.496094 53.191406 77.535156 53.074219 C 77.617188 53.3125 77.621094 53.542969 77.570312 53.765625 M 79.515625 49.558594 C 79.414062 49.492188 79.316406 49.425781 79.214844 49.359375 C 78.875 48.914062 78.472656 48.519531 78.019531 48.191406 C 76.078125 46.792969 73.101562 46.65625 71.6875 48.875 C 71.617188 48.984375 71.550781 49.097656 71.492188 49.214844 C 70.566406 50.023438 69.941406 51.121094 69.726562 52.332031 C 69.4375 52.421875 69.246094 52.6875 69.25 52.988281 C 69.207031 54.394531 69.929688 55.496094 70.972656 56.234375 C 72.054688 57.210938 73.664062 57.601562 75.230469 57.644531 C 77.554688 57.703125 79.160156 56.433594 79.878906 54.746094 L 79.90625 54.710938 C 81.144531 53.082031 81.289062 50.828125 79.515625 49.558594 M 78.179688 29.832031 C 78.34375 30.050781 78.484375 30.285156 78.59375 30.535156 C 78.253906 30.234375 77.855469 30.007812 77.421875 29.878906 C 77.332031 29.679688 77.164062 29.519531 76.960938 29.480469 L 76.902344 29.464844 C 76.847656 29.390625 76.789062 29.320312 76.726562 29.25 C 77.246094 29.386719 77.746094 29.582031 78.179688 29.832031 M 74.472656 34.890625 C 74.789062 34.871094 75.105469 34.808594 75.40625 34.695312 C 75.464844 34.765625 75.523438 34.832031 75.589844 34.898438 C 75.207031 35.007812 74.800781 35.035156 74.410156 34.972656 L 74.472656 34.890625 M 75.6875 31.113281 C 75.8125 31.171875 75.941406 31.210938 76.078125 31.238281 C 76.089844 31.335938 76.09375 31.433594 76.09375 31.53125 C 75.875 31.242188 75.476562 31.21875 75.179688 31.390625 L 75.125 31.171875 L 75.570312 31.039062 C 75.605469 31.066406 75.644531 31.09375 75.6875 31.113281 M 73.746094 31.5 C 73.785156 31.726562 73.839844 31.949219 73.914062 32.167969 C 73.78125 32.019531 73.71875 31.800781 73.746094 31.5 M 77.570312 33.257812 L 77.386719 32.902344 C 77.445312 32.792969 77.492188 32.683594 77.535156 32.570312 C 77.617188 32.808594 77.621094 33.039062 77.570312 33.257812 M 79.515625 29.054688 C 79.414062 28.984375 79.316406 28.917969 79.214844 28.851562 C 78.875 28.40625 78.472656 28.011719 78.019531 27.6875 C 76.078125 26.285156 73.101562 26.152344 71.6875 28.371094 C 71.617188 28.476562 71.550781 28.589844 71.492188 28.707031 C 70.566406 29.515625 69.941406 30.613281 69.726562 31.824219 C 69.4375 31.914062 69.246094 32.179688 69.25 32.480469 C 69.207031 33.886719 69.929688 34.988281 70.972656 35.730469 C 72.054688 36.703125 73.664062 37.09375 75.230469 37.136719 C 77.554688 37.199219 79.160156 35.925781 79.878906 34.238281 L 79.90625 34.203125 C 81.144531 32.578125 81.289062 30.324219 79.515625 29.054688 "/>
<path style=" stroke:none;fill-rule:evenodd;fill:rgb(100%,100%,100%);fill-opacity:1;" d="M 31.144531 68.902344 C 28.121094 68.902344 25.671875 71.394531 25.671875 74.472656 L 25.671875 96.738281 C 25.671875 99.816406 28.121094 102.304688 31.144531 102.304688 C 34.167969 102.304688 36.617188 99.816406 36.617188 96.738281 L 36.617188 74.472656 C 36.617188 71.398438 34.167969 68.90625 31.144531 68.90625 M 74.921875 68.902344 C 71.898438 68.902344 69.453125 71.394531 69.453125 74.472656 L 69.453125 96.738281 C 69.453125 99.816406 71.898438 102.304688 74.921875 102.304688 C 77.941406 102.304688 80.394531 99.816406 80.394531 96.738281 L 80.394531 74.472656 C 80.394531 71.398438 77.941406 68.90625 74.921875 68.90625 M 53.035156 46.636719 C 50.011719 46.636719 47.5625 49.128906 47.5625 52.199219 L 47.5625 96.738281 C 47.5625 99.816406 50.011719 102.304688 53.035156 102.304688 C 56.058594 102.304688 58.503906 99.816406 58.503906 96.738281 L 58.503906 52.199219 C 58.503906 49.125 56.058594 46.632812 53.035156 46.632812 M 96.8125 46.636719 C 93.789062 46.636719 91.339844 49.128906 91.339844 52.199219 L 91.339844 96.738281 C 91.339844 99.816406 93.789062 102.304688 96.8125 102.304688 C 99.832031 102.304688 102.285156 99.816406 102.285156 96.738281 L 102.285156 52.199219 C 102.285156 49.125 99.832031 46.632812 96.8125 46.632812 "/>
<path style=" stroke:none;fill-rule:evenodd;fill:rgb(50.196078%,81.176471%,74.509804%);fill-opacity:1;" d="M 100.265625 34.320312 C 99.941406 34.828125 99.554688 35.175781 99.140625 35.386719 C 99.410156 34.964844 99.675781 34.460938 99.90625 33.910156 C 99.960938 33.796875 100.011719 33.683594 100.058594 33.566406 C 100.230469 33.410156 100.328125 33.175781 100.261719 32.953125 C 100.265625 32.945312 100.265625 32.933594 100.269531 32.925781 C 100.609375 32.671875 100.851562 32.199219 100.941406 31.691406 L 100.996094 31.605469 C 101.023438 32.554688 100.785156 33.507812 100.265625 34.320312 M 93.070312 32.496094 C 93.050781 32.265625 93.042969 32.035156 93.046875 31.800781 C 93.261719 32.601562 93.582031 33.382812 93.914062 34.070312 C 94.101562 34.578125 94.347656 35.113281 94.65625 35.503906 C 94.496094 35.402344 94.347656 35.289062 94.207031 35.160156 C 93.480469 34.484375 93.164062 33.460938 93.070312 32.496094 M 96.820312 31.402344 C 96.789062 30.890625 96.800781 30.378906 96.847656 29.871094 C 96.914062 29.898438 96.976562 29.929688 97.042969 29.96875 L 97.152344 30.042969 C 97.242188 30.527344 97.210938 31.183594 96.820312 31.398438 M 101.757812 29.273438 C 101.746094 28.941406 101.585938 28.632812 101.324219 28.433594 C 100.859375 27.65625 100.226562 26.996094 99.476562 26.488281 C 98.441406 25.800781 97.269531 25.460938 96.539062 26.363281 C 96.265625 26.335938 95.988281 26.324219 95.714844 26.320312 C 95.546875 26.320312 95.390625 26.332031 95.246094 26.355469 C 94.375 26.011719 93.441406 26.003906 93.039062 27.117188 C 92.886719 27.5625 92.800781 28.023438 92.785156 28.492188 C 92.621094 28.617188 92.476562 28.765625 92.359375 28.9375 C 91.511719 30.152344 91.632812 32.292969 91.96875 33.648438 C 92.539062 35.957031 94.996094 37.773438 97.125 37.089844 C 97.300781 37.058594 97.472656 36.992188 97.621094 36.886719 C 98.757812 37.101562 100 36.71875 100.988281 35.515625 C 102.464844 33.71875 102.617188 31.289062 101.757812 29.273438 M 56.503906 34.320312 C 56.179688 34.828125 55.789062 35.175781 55.375 35.386719 C 55.648438 34.964844 55.910156 34.460938 56.144531 33.910156 C 56.199219 33.796875 56.246094 33.683594 56.292969 33.566406 C 56.464844 33.410156 56.5625 33.175781 56.5 32.953125 C 56.5 32.945312 56.503906 32.933594 56.507812 32.925781 C 56.847656 32.671875 57.085938 32.199219 57.179688 31.691406 L 57.230469 31.605469 C 57.257812 32.554688 57.023438 33.507812 56.5 34.320312 M 49.308594 32.496094 C 49.289062 32.265625 49.28125 32.035156 49.28125 31.800781 C 49.5 32.601562 49.820312 33.382812 50.148438 34.070312 C 50.339844 34.578125 50.582031 35.113281 50.894531 35.503906 C 50.734375 35.402344 50.585938 35.289062 50.445312 35.160156 C 49.71875 34.484375 49.398438 33.460938 49.308594 32.496094 M 53.058594 31.402344 C 53.027344 30.890625 53.035156 30.378906 53.085938 29.871094 C 53.148438 29.898438 53.210938 29.929688 53.28125 29.96875 C 53.316406 29.992188 53.351562 30.015625 53.386719 30.042969 C 53.476562 30.527344 53.449219 31.183594 53.058594 31.398438 M 57.992188 29.273438 C 57.984375 28.941406 57.824219 28.632812 57.5625 28.433594 C 57.09375 27.65625 56.464844 26.996094 55.710938 26.488281 C 54.679688 25.800781 53.503906 25.460938 52.777344 26.363281 C 52.503906 26.335938 52.226562 26.324219 51.953125 26.320312 C 51.785156 26.320312 51.628906 26.332031 51.484375 26.355469 C 50.609375 26.011719 49.675781 26.003906 49.273438 27.117188 C 49.125 27.5625 49.039062 28.023438 49.023438 28.492188 C 48.855469 28.617188 48.710938 28.765625 48.59375 28.9375 C 47.75 30.152344 47.867188 32.292969 48.203125 33.648438 C 48.773438 35.957031 51.234375 37.773438 53.363281 37.089844 C 53.539062 37.058594 53.710938 36.992188 53.859375 36.886719 C 54.996094 37.101562 56.234375 36.71875 57.226562 35.515625 C 58.699219 33.71875 58.851562 31.289062 57.992188 29.273438 "/>
</g>
</svg>
