<?xml version="1.0" encoding="UTF-8"?>
<svg xmlns="http://www.w3.org/2000/svg" xmlns:xlink="http://www.w3.org/1999/xlink" width="128px" height="128px" viewBox="0 0 128 128" version="1.1">
<g id="surface1">
<path style=" stroke:none;fill-rule:evenodd;fill:rgb(24.705882%,30.980392%,45.882353%);fill-opacity:1;" d="M 40.464844 85.851562 L 4.125 85.851562 C 2.207031 85.851562 0.648438 84.242188 0.648438 82.257812 L 0.648438 45.742188 C 0.648438 43.757812 2.207031 42.148438 4.128906 42.148438 L 40.464844 42.148438 C 42.386719 42.148438 43.941406 43.757812 43.941406 45.742188 L 43.941406 82.257812 C 43.941406 84.242188 42.382812 85.851562 40.464844 85.851562 "/>
<path style=" stroke:none;fill-rule:evenodd;fill:rgb(50.196078%,81.176471%,74.509804%);fill-opacity:1;" d="M 11.464844 59.207031 C 11.519531 59.285156 11.570312 59.367188 11.609375 59.457031 C 11.488281 59.347656 11.347656 59.269531 11.195312 59.222656 C 11.164062 59.15625 11.105469 59.097656 11.035156 59.085938 L 11.015625 59.082031 C 10.996094 59.054688 10.976562 59.027344 10.953125 59.003906 C 11.136719 59.054688 11.3125 59.121094 11.464844 59.207031 M 10.164062 60.980469 C 10.273438 60.976562 10.386719 60.953125 10.492188 60.914062 C 10.511719 60.9375 10.53125 60.960938 10.554688 60.984375 C 10.421875 61.023438 10.277344 61.03125 10.140625 61.011719 L 10.164062 60.984375 M 10.589844 59.65625 C 10.632812 59.679688 10.679688 59.691406 10.726562 59.703125 C 10.730469 59.734375 10.730469 59.769531 10.730469 59.804688 C 10.65625 59.703125 10.515625 59.695312 10.410156 59.753906 L 10.394531 59.679688 L 10.546875 59.632812 C 10.5625 59.640625 10.574219 59.648438 10.589844 59.65625 M 9.90625 59.792969 C 9.917969 59.875 9.9375 59.953125 9.96875 60.027344 C 9.921875 59.976562 9.898438 59.898438 9.90625 59.792969 M 11.25 60.410156 C 11.226562 60.367188 11.207031 60.328125 11.183594 60.285156 C 11.207031 60.246094 11.222656 60.207031 11.238281 60.167969 C 11.265625 60.253906 11.265625 60.332031 11.25 60.410156 M 11.929688 58.933594 C 11.898438 58.910156 11.859375 58.886719 11.824219 58.867188 C 11.707031 58.707031 11.566406 58.570312 11.40625 58.457031 C 10.726562 57.964844 9.683594 57.917969 9.1875 58.695312 C 9.160156 58.734375 9.136719 58.773438 9.117188 58.816406 C 8.792969 59.097656 8.574219 59.484375 8.5 59.90625 C 8.398438 59.9375 8.328125 60.03125 8.332031 60.136719 C 8.316406 60.632812 8.570312 61.019531 8.933594 61.277344 C 9.316406 61.617188 9.878906 61.757812 10.429688 61.769531 C 11.246094 61.792969 11.808594 61.34375 12.058594 60.753906 L 12.070312 60.742188 C 12.503906 60.171875 12.554688 59.378906 11.929688 58.933594 M 11.464844 52.015625 C 11.519531 52.09375 11.570312 52.175781 11.609375 52.265625 C 11.488281 52.15625 11.351562 52.078125 11.195312 52.03125 C 11.164062 51.964844 11.105469 51.90625 11.035156 51.894531 L 11.015625 51.886719 C 10.996094 51.863281 10.976562 51.835938 10.953125 51.8125 C 11.136719 51.859375 11.3125 51.929688 11.464844 52.015625 M 10.164062 53.789062 C 10.273438 53.785156 10.386719 53.761719 10.492188 53.722656 C 10.511719 53.746094 10.53125 53.769531 10.554688 53.792969 C 10.421875 53.832031 10.277344 53.839844 10.140625 53.820312 L 10.164062 53.789062 M 10.589844 52.464844 C 10.632812 52.484375 10.679688 52.5 10.726562 52.507812 C 10.730469 52.542969 10.730469 52.578125 10.730469 52.613281 C 10.65625 52.511719 10.515625 52.503906 10.410156 52.5625 L 10.394531 52.488281 L 10.546875 52.4375 C 10.5625 52.449219 10.574219 52.457031 10.589844 52.464844 M 9.90625 52.601562 C 9.914062 52.632812 9.917969 52.664062 9.925781 52.695312 C 9.9375 52.742188 9.953125 52.789062 9.96875 52.835938 C 9.921875 52.785156 9.898438 52.707031 9.90625 52.601562 M 11.25 53.21875 L 11.183594 53.09375 C 11.207031 53.054688 11.222656 53.015625 11.238281 52.976562 C 11.265625 53.058594 11.265625 53.140625 11.25 53.21875 M 11.929688 51.742188 C 11.898438 51.71875 11.859375 51.695312 11.824219 51.671875 C 11.707031 51.515625 11.566406 51.378906 11.40625 51.261719 C 10.726562 50.769531 9.683594 50.726562 9.1875 51.503906 C 9.160156 51.539062 9.136719 51.582031 9.117188 51.621094 C 8.792969 51.90625 8.574219 52.289062 8.5 52.714844 C 8.398438 52.746094 8.328125 52.839844 8.332031 52.945312 C 8.316406 53.4375 8.570312 53.824219 8.933594 54.082031 C 9.316406 54.425781 9.878906 54.5625 10.429688 54.578125 C 11.246094 54.601562 11.808594 54.152344 12.058594 53.5625 L 12.070312 53.550781 C 12.503906 52.980469 12.554688 52.1875 11.929688 51.742188 M 27.269531 59.207031 C 27.328125 59.285156 27.375 59.367188 27.414062 59.457031 C 27.296875 59.347656 27.15625 59.269531 27.003906 59.222656 C 26.972656 59.15625 26.914062 59.097656 26.84375 59.085938 L 26.820312 59.082031 C 26.800781 59.054688 26.78125 59.027344 26.757812 59.003906 C 26.941406 59.054688 27.117188 59.121094 27.269531 59.207031 M 25.96875 60.980469 C 26.078125 60.976562 26.191406 60.953125 26.296875 60.914062 C 26.316406 60.9375 26.335938 60.960938 26.359375 60.984375 C 26.226562 61.023438 26.085938 61.03125 25.945312 61.011719 L 25.96875 60.984375 M 26.394531 59.65625 C 26.4375 59.679688 26.484375 59.691406 26.53125 59.703125 C 26.535156 59.734375 26.539062 59.769531 26.535156 59.804688 C 26.460938 59.703125 26.320312 59.695312 26.214844 59.753906 L 26.199219 59.679688 L 26.355469 59.632812 C 26.367188 59.640625 26.378906 59.648438 26.394531 59.65625 M 25.714844 59.792969 C 25.722656 59.875 25.742188 59.953125 25.773438 60.027344 C 25.726562 59.976562 25.703125 59.898438 25.714844 59.792969 M 27.054688 60.410156 C 27.03125 60.367188 27.011719 60.328125 26.988281 60.285156 C 27.011719 60.246094 27.027344 60.207031 27.042969 60.167969 C 27.070312 60.253906 27.074219 60.332031 27.054688 60.410156 M 27.738281 58.933594 C 27.703125 58.910156 27.667969 58.886719 27.632812 58.867188 C 27.511719 58.707031 27.371094 58.570312 27.210938 58.457031 C 26.53125 57.964844 25.488281 57.917969 24.992188 58.695312 C 24.96875 58.734375 24.945312 58.773438 24.921875 58.816406 C 24.597656 59.097656 24.378906 59.484375 24.304688 59.90625 C 24.203125 59.9375 24.136719 60.03125 24.136719 60.136719 C 24.121094 60.632812 24.375 61.019531 24.742188 61.277344 C 25.121094 61.617188 25.683594 61.757812 26.234375 61.769531 C 27.050781 61.792969 27.613281 61.34375 27.863281 60.753906 L 27.875 60.742188 C 28.308594 60.171875 28.359375 59.378906 27.738281 58.933594 M 27.269531 52.015625 C 27.328125 52.09375 27.375 52.175781 27.414062 52.265625 C 27.296875 52.15625 27.15625 52.078125 27.003906 52.03125 C 26.972656 51.964844 26.914062 51.90625 26.84375 51.894531 L 26.820312 51.886719 C 26.800781 51.863281 26.78125 51.835938 26.757812 51.8125 C 26.941406 51.859375 27.117188 51.929688 27.269531 52.015625 M 25.96875 53.789062 C 26.078125 53.785156 26.191406 53.761719 26.296875 53.722656 C 26.316406 53.746094 26.335938 53.769531 26.359375 53.792969 C 26.226562 53.832031 26.085938 53.839844 25.945312 53.820312 L 25.96875 53.789062 M 26.394531 52.464844 C 26.4375 52.484375 26.484375 52.5 26.53125 52.507812 C 26.535156 52.542969 26.539062 52.578125 26.535156 52.613281 C 26.460938 52.511719 26.320312 52.503906 26.214844 52.5625 L 26.199219 52.488281 L 26.355469 52.4375 C 26.367188 52.449219 26.378906 52.457031 26.394531 52.464844 M 25.714844 52.601562 C 25.726562 52.679688 25.746094 52.757812 25.773438 52.835938 C 25.726562 52.785156 25.703125 52.707031 25.714844 52.601562 M 27.054688 53.21875 L 26.988281 53.09375 C 27.011719 53.054688 27.027344 53.015625 27.042969 52.976562 C 27.070312 53.0625 27.074219 53.140625 27.054688 53.21875 M 27.738281 51.742188 C 27.703125 51.71875 27.667969 51.695312 27.632812 51.671875 C 27.511719 51.515625 27.371094 51.378906 27.210938 51.265625 C 26.53125 50.773438 25.488281 50.726562 24.992188 51.503906 C 24.96875 51.542969 24.945312 51.582031 24.921875 51.621094 C 24.597656 51.90625 24.378906 52.289062 24.304688 52.714844 C 24.203125 52.746094 24.136719 52.839844 24.136719 52.945312 C 24.121094 53.4375 24.375 53.824219 24.742188 54.085938 C 25.121094 54.425781 25.683594 54.5625 26.234375 54.578125 C 27.050781 54.601562 27.613281 54.152344 27.863281 53.5625 L 27.875 53.550781 C 28.308594 52.980469 28.359375 52.1875 27.738281 51.742188 "/>
<path style=" stroke:none;fill-rule:evenodd;fill:rgb(100%,100%,100%);fill-opacity:1;" d="M 10.773438 65.71875 C 9.710938 65.71875 8.855469 66.59375 8.855469 67.671875 L 8.855469 75.484375 C 8.855469 76.5625 9.710938 77.433594 10.773438 77.433594 C 11.832031 77.433594 12.691406 76.5625 12.691406 75.484375 L 12.691406 67.671875 C 12.691406 66.59375 11.832031 65.71875 10.773438 65.71875 M 26.125 65.71875 C 25.066406 65.71875 24.207031 66.59375 24.207031 67.671875 L 24.207031 75.484375 C 24.207031 76.5625 25.066406 77.433594 26.125 77.433594 C 27.1875 77.433594 28.046875 76.5625 28.046875 75.484375 L 28.046875 67.671875 C 28.046875 66.59375 27.1875 65.71875 26.125 65.71875 M 18.449219 57.910156 C 17.390625 57.910156 16.53125 58.785156 16.53125 59.863281 L 16.53125 75.484375 C 16.53125 76.5625 17.390625 77.433594 18.449219 77.433594 C 19.507812 77.433594 20.367188 76.5625 20.367188 75.484375 L 20.367188 59.863281 C 20.367188 58.785156 19.507812 57.910156 18.449219 57.910156 M 33.804688 57.910156 C 32.742188 57.910156 31.882812 58.785156 31.882812 59.863281 L 31.882812 75.484375 C 31.882812 76.5625 32.742188 77.433594 33.804688 77.433594 C 34.863281 77.433594 35.722656 76.5625 35.722656 75.484375 L 35.722656 59.863281 C 35.722656 58.785156 34.863281 57.910156 33.804688 57.910156 "/>
<path style=" stroke:none;fill-rule:evenodd;fill:rgb(50.196078%,81.176471%,74.509804%);fill-opacity:1;" d="M 35.015625 53.589844 C 34.902344 53.769531 34.765625 53.890625 34.621094 53.964844 C 34.714844 53.816406 34.808594 53.640625 34.886719 53.445312 C 34.90625 53.40625 34.925781 53.367188 34.941406 53.328125 C 35.003906 53.273438 35.035156 53.191406 35.011719 53.109375 C 35.015625 53.109375 35.015625 53.105469 35.015625 53.101562 C 35.136719 53.011719 35.21875 52.847656 35.25 52.667969 L 35.269531 52.636719 C 35.28125 52.972656 35.195312 53.304688 35.015625 53.589844 M 32.492188 52.953125 C 32.484375 52.871094 32.480469 52.789062 32.484375 52.707031 C 32.558594 52.988281 32.671875 53.261719 32.785156 53.503906 C 32.851562 53.679688 32.9375 53.871094 33.046875 54.007812 C 32.992188 53.96875 32.9375 53.929688 32.890625 53.886719 C 32.636719 53.648438 32.523438 53.289062 32.492188 52.953125 M 33.804688 52.566406 C 33.796875 52.386719 33.800781 52.210938 33.816406 52.03125 C 33.839844 52.039062 33.863281 52.050781 33.886719 52.066406 L 33.921875 52.089844 C 33.953125 52.261719 33.945312 52.492188 33.804688 52.566406 M 35.539062 51.820312 C 35.535156 51.703125 35.476562 51.597656 35.386719 51.527344 C 35.222656 51.253906 35 51.023438 34.738281 50.84375 C 34.375 50.601562 33.964844 50.484375 33.707031 50.800781 C 33.613281 50.792969 33.515625 50.785156 33.417969 50.785156 C 33.359375 50.785156 33.304688 50.789062 33.253906 50.796875 C 32.949219 50.675781 32.621094 50.671875 32.480469 51.066406 C 32.425781 51.21875 32.398438 51.382812 32.390625 51.546875 C 32.332031 51.589844 32.28125 51.640625 32.242188 51.703125 C 31.945312 52.128906 31.988281 52.878906 32.105469 53.355469 C 32.304688 54.164062 33.164062 54.800781 33.914062 54.5625 C 33.976562 54.550781 34.035156 54.527344 34.085938 54.492188 C 34.488281 54.566406 34.921875 54.433594 35.269531 54.011719 C 35.785156 53.378906 35.839844 52.527344 35.539062 51.820312 M 19.667969 53.589844 C 19.550781 53.769531 19.414062 53.890625 19.269531 53.964844 C 19.367188 53.816406 19.457031 53.640625 19.539062 53.445312 C 19.558594 53.40625 19.578125 53.367188 19.59375 53.328125 C 19.652344 53.273438 19.6875 53.191406 19.664062 53.109375 C 19.664062 53.109375 19.667969 53.105469 19.667969 53.101562 C 19.789062 53.011719 19.871094 52.847656 19.902344 52.667969 L 19.921875 52.636719 C 19.929688 52.972656 19.847656 53.304688 19.664062 53.589844 M 17.144531 52.953125 C 17.136719 52.871094 17.132812 52.789062 17.132812 52.707031 C 17.210938 52.988281 17.320312 53.261719 17.4375 53.503906 C 17.503906 53.679688 17.589844 53.871094 17.699219 54.007812 C 17.644531 53.96875 17.589844 53.929688 17.542969 53.886719 C 17.285156 53.648438 17.175781 53.289062 17.144531 52.953125 M 18.457031 52.566406 C 18.449219 52.386719 18.449219 52.210938 18.46875 52.03125 C 18.488281 52.039062 18.511719 52.050781 18.535156 52.066406 C 18.550781 52.074219 18.5625 52.082031 18.574219 52.089844 C 18.605469 52.261719 18.59375 52.492188 18.457031 52.566406 M 20.1875 51.820312 C 20.183594 51.703125 20.128906 51.597656 20.039062 51.527344 C 19.875 51.253906 19.652344 51.019531 19.390625 50.84375 C 19.027344 50.601562 18.613281 50.484375 18.359375 50.800781 C 18.261719 50.792969 18.167969 50.785156 18.070312 50.785156 C 18.011719 50.785156 17.957031 50.789062 17.90625 50.796875 C 17.597656 50.675781 17.273438 50.671875 17.132812 51.066406 C 17.078125 51.21875 17.046875 51.382812 17.042969 51.546875 C 16.984375 51.589844 16.933594 51.640625 16.890625 51.703125 C 16.597656 52.128906 16.636719 52.878906 16.753906 53.355469 C 16.957031 54.164062 17.816406 54.800781 18.566406 54.5625 C 18.628906 54.550781 18.6875 54.527344 18.738281 54.492188 C 19.136719 54.566406 19.574219 54.433594 19.921875 54.011719 C 20.4375 53.378906 20.488281 52.527344 20.1875 51.820312 "/>
<path style=" stroke:none;fill-rule:evenodd;fill:rgb(24.705882%,30.980392%,45.882353%);fill-opacity:1;" d="M 71.671875 73.363281 C 70.691406 73.359375 69.90625 72.5625 69.910156 71.582031 L 69.910156 53.796875 C 69.910156 52.8125 70.699219 52.019531 71.671875 52.019531 C 72.640625 52.019531 73.429688 52.8125 73.429688 53.796875 L 73.429688 71.582031 C 73.433594 72.5625 72.648438 73.359375 71.671875 73.363281 M 108.609375 73.363281 C 107.632812 73.359375 106.847656 72.5625 106.851562 71.582031 L 106.851562 53.796875 C 106.851562 52.8125 107.640625 52.019531 108.609375 52.019531 C 109.582031 52.019531 110.371094 52.8125 110.371094 53.796875 L 110.371094 71.582031 C 110.375 72.5625 109.589844 73.359375 108.609375 73.363281 M 62.875 65.925781 C 62.875 68.066406 61.300781 69.804688 59.355469 69.804688 C 57.414062 69.804688 55.835938 68.066406 55.835938 65.925781 L 55.835938 63.015625 C 55.835938 60.871094 57.414062 59.132812 59.355469 59.132812 C 61.300781 59.132812 62.875 60.871094 62.875 63.015625 Z M 59.355469 55.574219 C 58.058594 55.578125 56.789062 55.960938 55.707031 56.679688 C 55.4375 56.015625 54.796875 55.578125 54.078125 55.574219 C 53.101562 55.582031 52.316406 56.378906 52.320312 57.355469 L 52.320312 75.140625 C 52.320312 76.125 53.109375 76.921875 54.078125 76.921875 C 55.054688 76.914062 55.84375 76.117188 55.835938 75.140625 L 55.835938 72.339844 C 56.890625 73.007812 58.109375 73.363281 59.355469 73.363281 C 63.242188 73.363281 66.390625 69.949219 66.390625 65.738281 L 66.390625 63.199219 C 66.390625 58.988281 63.242188 55.574219 59.355469 55.574219 Z M 87.503906 65.925781 C 87.503906 68.066406 85.925781 69.804688 83.984375 69.804688 C 82.039062 69.804688 80.464844 68.066406 80.464844 65.925781 L 80.464844 63.015625 C 80.464844 60.871094 82.039062 59.132812 83.984375 59.132812 C 85.925781 59.132812 87.503906 60.871094 87.503906 63.015625 Z M 83.984375 55.574219 C 80.097656 55.574219 76.949219 58.988281 76.949219 63.199219 L 76.949219 65.738281 C 76.949219 69.949219 80.097656 73.363281 83.984375 73.363281 C 87.871094 73.363281 91.019531 69.949219 91.019531 65.738281 L 91.019531 63.199219 C 91.019531 58.988281 87.871094 55.574219 83.984375 55.574219 Z M 101.574219 69.804688 C 99.636719 69.804688 98.058594 68.210938 98.058594 66.246094 L 98.058594 59.132812 L 101.574219 59.132812 C 102.550781 59.125 103.339844 58.332031 103.335938 57.355469 C 103.339844 56.378906 102.550781 55.582031 101.574219 55.574219 L 98.058594 55.574219 L 98.058594 53.796875 C 98.0625 52.820312 97.273438 52.023438 96.296875 52.019531 C 95.320312 52.023438 94.535156 52.820312 94.539062 53.796875 L 94.539062 66.246094 C 94.539062 70.171875 97.695312 73.363281 101.574219 73.363281 C 102.550781 73.359375 103.339844 72.5625 103.335938 71.582031 C 103.339844 70.605469 102.550781 69.8125 101.574219 69.804688 M 126.285156 55.71875 C 125.855469 55.535156 125.367188 55.527344 124.933594 55.703125 C 124.5 55.878906 124.152344 56.222656 123.972656 56.652344 L 120.324219 65.257812 L 116.679688 56.652344 C 116.5 56.222656 116.152344 55.878906 115.71875 55.703125 C 115.285156 55.527344 114.796875 55.535156 114.367188 55.71875 C 113.472656 56.113281 113.0625 57.15625 113.445312 58.054688 L 118.414062 69.769531 L 117.820312 71.164062 C 117.292969 72.460938 116.050781 73.320312 114.652344 73.359375 C 113.675781 73.386719 112.90625 74.203125 112.933594 75.179688 C 112.953125 76.136719 113.730469 76.910156 114.691406 76.914062 L 114.734375 76.914062 C 117.523438 76.839844 120.003906 75.128906 121.0625 72.546875 L 127.207031 58.054688 C 127.589844 57.15625 127.179688 56.113281 126.285156 55.71875 "/>
</g>
</svg>
