<svg xmlns="http://www.w3.org/2000/svg" viewBox="0 0 128 128"><path fill="#5cd8e5" d="M4.513 64a9.614 9.614 0 0 1 .994-4.267c.196-.396.293-.595.274-.724a.392.392 0 0 0-.174-.279c-.107-.075-.312-.075-.723-.075H.666c-.233 0-.35 0-.439.046a.416.416 0 0 0-.182.182C0 58.972 0 59.088 0 59.32v17.965a.864.864 0 0 0 .869.864h26.567a.864.864 0 0 0 .864-.864v-2.983c0-.233 0-.35-.045-.439a.416.416 0 0 0-.182-.182c-.09-.045-.206-.045-.439-.045H14.15A9.637 9.637 0 0 1 4.513 64Z"/><path fill="#5cd8e5" d="M18.466 64.408a10.86 10.86 0 0 0 2.691-.652v-.033a1.042 1.042 0 0 1 .71 1.959 11.74 11.74 0 0 1-3.95.812h-.24a4.407 4.407 0 0 1-.855.892 10.49 10.49 0 0 0 1.827 1.433 1.04 1.04 0 1 1-1.113 1.756 11.456 11.456 0 0 1-2.724-2.316 4.395 4.395 0 0 1-.662.047h-.422c.033.347.09.69.168 1.03.066.295.15.605.254.938.053.193.115.363.18.544l.065.18a1.033 1.033 0 0 1-.245 1.09 1.085 1.085 0 0 1-.376.243 1.054 1.054 0 0 1-.356.061 1.033 1.033 0 0 1-.972-.662 14.19 14.19 0 0 1-.663-2.371 8.273 8.273 0 0 1-.15-1.818 4.662 4.662 0 0 1-.893-.855 10.143 10.143 0 0 0-1.408 1.827 1.033 1.033 0 0 1-.883.47 1.038 1.038 0 0 1-.879-1.597 11.393 11.393 0 0 1 2.321-2.728A4.329 4.329 0 0 1 9.839 64c0-.07.006-.141.011-.211.007-.071.012-.141.012-.212a10.931 10.931 0 0 0-2.733.672 1.04 1.04 0 1 1-.714-1.954 11.201 11.201 0 0 1 4.194-.812 4.391 4.391 0 0 1 .855-.893 10.365 10.365 0 0 0-1.831-1.409 1.042 1.042 0 0 1 1.113-1.76 11.515 11.515 0 0 1 2.733 2.32 4.05 4.05 0 0 1 1.08-.029 8.883 8.883 0 0 0-.15-1.075 15.428 15.428 0 0 0-.259-.94c-.07-.249-.15-.47-.244-.718a1.047 1.047 0 0 1 .244-1.095.992.992 0 0 1 .38-.239 1.038 1.038 0 0 1 1.334.62 14.665 14.665 0 0 1 .662 2.372 8.566 8.566 0 0 1 .146 1.822 4.261 4.261 0 0 1 .893.85 10.334 10.334 0 0 0 1.432-1.827 1.04 1.04 0 1 1 1.757 1.113 11.487 11.487 0 0 1-2.316 2.729c.052.359.061.723.028 1.084zm-2.005-.22V64h.019a2.348 2.348 0 0 0-.362-1.216 2.12 2.12 0 0 0-.207-.287 2.348 2.348 0 0 0-1.235-.76 2.26 2.26 0 0 0-.357-.057h-.188a2.348 2.348 0 0 0-1.216.343 3.278 3.278 0 0 0-.291.211 2.348 2.348 0 0 0-.813 1.588v.187a2.354 2.354 0 0 0 .554 1.508 2.3 2.3 0 0 0 1.588.813h.188a2.348 2.348 0 0 0 1.503-.55 2.301 2.301 0 0 0 .817-1.592z"/><path fill="#5cd8e5" d="M27.436 49.85H.87a.869.869 0 0 0-.869.869v2.978c0 .233 0 .35.045.439.04.078.104.141.182.181.09.046.206.046.439.046H14.15a9.641 9.641 0 0 1 8.641 13.905c-.195.396-.292.594-.272.723a.393.393 0 0 0 .173.279c.107.075.312.075.722.075h4.197c.233 0 .35 0 .438-.046a.416.416 0 0 0 .183-.182c.045-.089.045-.205.045-.438v-17.96a.864.864 0 0 0-.84-.87z"/><path fill-rule="evenodd" d="M126.871 53.61a2.776 2.776 0 0 1 .973 1.47c.196.786.208 1.605.033 2.395l-2.302 13.042a7.17 7.17 0 0 1-.84 2.49 4.519 4.519 0 0 1-1.456 1.53 5.783 5.783 0 0 1-2.029.775c-.847.15-1.705.222-2.564.216h-5.392a13.048 13.048 0 0 1-2.493-.216 3.83 3.83 0 0 1-1.738-.775 2.747 2.747 0 0 1-.892-1.53 6.326 6.326 0 0 1 .023-2.49l2.278-13.042a6.904 6.904 0 0 1 .855-2.395 4.37 4.37 0 0 1 1.46-1.47 5.66 5.66 0 0 1 2.015-.733 14.58 14.58 0 0 1 2.48-.197h5.391a13.509 13.509 0 0 1 2.428.197 4.03 4.03 0 0 1 1.77.733zm-12.079 16.193h4.4l2.01-11.388h-4.4l-2.01 11.388zm-27.304-15.84a2.86 2.86 0 0 1 .939 1.53 6.05 6.05 0 0 1 0 2.48l-.747 4.34a7.608 7.608 0 0 1-.502 1.672 4.813 4.813 0 0 1-.799 1.259 4 4 0 0 1-1.108.869 7.758 7.758 0 0 1-1.357.568h-.188l3.236 8.594h-7.096l-2.47-7.637h-.898l-1.32 7.637h-6.476l3.87-22.326h10.731c.82-.01 1.638.066 2.442.225a3.954 3.954 0 0 1 1.743.789zm-6.134 7.74.442-2.424h-.024c.03-.14.037-.284.019-.427a.697.697 0 0 0-.15-.32.811.811 0 0 0-.306-.202 1.332 1.332 0 0 0-.469-.07h-2.729l-.78 4.48h2.725c.159 0 .317-.023.47-.07a1.15 1.15 0 0 0 .38-.202.897.897 0 0 0 .267-.324c.065-.142.116-.29.155-.442zm-18.288-8.754-2.935 16.855h-3.827l2.935-16.855h-6.472l-3.062 17.62a6.283 6.283 0 0 0-.042 2.504 2.716 2.716 0 0 0 .911 1.526 3.83 3.83 0 0 0 1.752.747c.81.14 1.63.208 2.451.201h4.828c.854.006 1.708-.062 2.55-.201a5.43 5.43 0 0 0 2.02-.747 4.54 4.54 0 0 0 1.451-1.526 7.37 7.37 0 0 0 .855-2.504l3.062-17.62zm-12.036.004H34.475l-.986 5.66h5.04l-2.904 16.662h6.472l2.902-16.663h5.04l.99-5.66zm57.06 2.668a2.946 2.946 0 0 0-.84-1.564 3.756 3.756 0 0 0-1.625-.846 9.164 9.164 0 0 0-2.297-.262h-11.27l-3.875 22.326h11.515c.803.007 1.604-.081 2.386-.263a5.665 5.665 0 0 0 1.92-.86 4.786 4.786 0 0 0 1.41-1.587 7.574 7.574 0 0 0 .803-2.409l.24-1.47a9.33 9.33 0 0 0 .15-1.672 4.007 4.007 0 0 0-.24-1.408 2.692 2.692 0 0 0-.7-1.048 3.564 3.564 0 0 0-1.24-.7c.472-.166.916-.4 1.32-.695a4.605 4.605 0 0 0 .996-.99 5.274 5.274 0 0 0 .681-1.24 8.146 8.146 0 0 0 .404-1.518l.258-1.409a6.585 6.585 0 0 0 .005-2.385zm-7.922 11.905-.3 1.69a2.231 2.231 0 0 1-.151.545 1.086 1.086 0 0 1-.277.39 1.225 1.225 0 0 1-.432.23 2.036 2.036 0 0 1-.606.08H95.5l.732-4.194h2.903a1.155 1.155 0 0 1 .939.287 1.256 1.256 0 0 1 .094.972zm1.357-8.533-.225 1.409a2.578 2.578 0 0 1-.174.596 1.082 1.082 0 0 1-.277.39 1.174 1.174 0 0 1-.432.225 2.173 2.173 0 0 1-.615.08h-2.757l.671-3.926h2.757a1.939 1.939 0 0 1 .592.08.762.762 0 0 1 .357.235c.083.11.134.242.145.38a1.94 1.94 0 0 1-.056.53h.014z" clip-rule="evenodd"/><path d="M126.555 53.473a2.785 2.785 0 0 1 .976 1.475c.197.788.208 1.61.033 2.403l-2.309 13.083a7.182 7.182 0 0 1-.843 2.496 4.536 4.536 0 0 1-1.46 1.536 5.797 5.797 0 0 1-2.036.777c-.849.15-1.71.223-2.572.217h-5.408a13.09 13.09 0 0 1-2.502-.217 3.845 3.845 0 0 1-1.743-.777 2.754 2.754 0 0 1-.895-1.536 6.355 6.355 0 0 1 .023-2.496l2.285-13.083a6.925 6.925 0 0 1 .858-2.403 4.381 4.381 0 0 1 1.465-1.475 5.676 5.676 0 0 1 2.021-.735 14.644 14.644 0 0 1 2.487-.198h5.409c.816-.007 1.63.06 2.436.198a4.042 4.042 0 0 1 1.775.735zM114.44 69.718h4.414l2.016-11.425h-4.414l-2.016 11.424ZM51.068 52.797H34.451l-.99 5.681h5.058l-2.914 16.726h6.497l2.913-16.726h5.058l.995-5.68zm12.045 0L60.17 69.716h-3.828l2.947-16.92h-6.492L49.725 70.48a6.406 6.406 0 0 0-.038 2.517 2.707 2.707 0 0 0 .91 1.527 3.864 3.864 0 0 0 1.763.75c.81.143 1.633.211 2.456.203h4.85a14.682 14.682 0 0 0 2.56-.203 5.519 5.519 0 0 0 2.028-.75 4.532 4.532 0 0 0 1.456-1.527 7.47 7.47 0 0 0 .853-2.518l3.064-17.682zm9.152 0-3.896 22.386 6.486.02 1.324-7.675h.895l2.476 7.675h7.112l-3.243-8.609h.192a7.976 7.976 0 0 0 1.356-.57 4.123 4.123 0 0 0 1.113-.869 4.855 4.855 0 0 0 .793-1.28 7.435 7.435 0 0 0 .505-1.681l.748-4.343a5.931 5.931 0 0 0 0-2.481 2.858 2.858 0 0 0-.927-1.555 3.971 3.971 0 0 0-1.746-.793 12.152 12.152 0 0 0-2.443-.224H72.265Zm7.509 9.831h-2.732l.787-4.49h2.737a1.391 1.391 0 0 1 .46.07.758.758 0 0 1 .308.205.703.703 0 0 1 .147.32 1.19 1.19 0 0 1 0 .429l-.41 2.43a2.647 2.647 0 0 1-.16.435.834.834 0 0 1-.268.326 1.222 1.222 0 0 1-.384.205 1.59 1.59 0 0 1-.485.07zm27.942-7.149a2.957 2.957 0 0 0-.843-1.569 3.768 3.768 0 0 0-1.63-.848 9.188 9.188 0 0 0-2.304-.264H91.632l-3.887 22.404h11.552c.805.007 1.608-.081 2.393-.264a5.682 5.682 0 0 0 1.927-.862 4.8 4.8 0 0 0 1.413-1.593 7.6 7.6 0 0 0 .806-2.418l.24-1.475c.1-.553.151-1.115.15-1.677a4.023 4.023 0 0 0-.24-1.415 2.702 2.702 0 0 0-.701-1.05 3.573 3.573 0 0 0-1.244-.702 5.19 5.19 0 0 0 1.324-.698 4.628 4.628 0 0 0 .999-.994 5.288 5.288 0 0 0 .683-1.244c.184-.494.32-1.003.405-1.522l.26-1.415a6.616 6.616 0 0 0 .004-2.394zm-7.948 11.947-.302 1.697a2.265 2.265 0 0 1-.15.547 1.106 1.106 0 0 1-.278.391 1.225 1.225 0 0 1-.434.23 2.082 2.082 0 0 1-.607.08h-2.912l.735-4.208h2.911a1.159 1.159 0 0 1 .943.288 1.255 1.255 0 0 1 .094.975zm1.361-8.563-.225 1.414a2.594 2.594 0 0 1-.175.599c-.062.15-.157.283-.278.391a1.192 1.192 0 0 1-.433.226 2.185 2.185 0 0 1-.618.08h-2.765l.674-3.94h2.765c.2-.004.401.023.594.08.14.043.263.125.358.236.084.11.135.243.146.382.006.18-.013.358-.057.532z"/></svg>
