<svg xmlns="http://www.w3.org/2000/svg" viewBox="0 0 128 128"><path d="M87.57 273.4c-1.74-.02-4.885.14-6.897.018-2.012-.121-5.542-.476-7.921-.77-2.38-.294-5.924-.838-7.837-1.208-1.914-.37-5.164-1.193-7.193-1.696a143.63 143.63 0 0 1-6.714-1.857c-1.667-.518-4.396-1.433-6.063-2.057-1.666-.624-4.16-1.641-5.61-2.248-1.45-.607-4.816-1.961-7.208-3.156-2.39-1.195-5.743-2.998-7.41-3.984-1.666-.985-4.297-2.893-6.034-4.049-1.738-1.156-4.54-3.1-6.216-4.379-1.677-1.278-4.48-3.557-6.138-4.975-1.658-1.417-4.657-4.194-6.686-6.225-2.029-2.032-4.35-4.634-5.288-5.72-.939-1.088-3.543-4.133-3.256-3.902.286.23 3.72 3.374 4.895 4.334 1.174.96 3.825 3.026 5.92 4.525 2.096 1.5 5.264 3.534 6.994 4.63 1.73 1.095 4.71 2.972 6.644 4.084 1.935 1.111 5.39 2.917 7.73 4.115 2.341 1.197 5.806 2.872 7.69 3.718 1.884.845 5.096 2.22 7.2 3.06 2.104.838 5.5 2.017 7.453 2.689 1.954.671 5.582 1.798 8.083 2.51 2.502.711 6.505 1.696 8.858 2.202 2.353.505 6.368 1.133 8.904 1.496 2.536.362 6.534.908 8.997 1.08 2.649.183 6.62.223 9.737.13 2.898-.087 6.811-.307 8.695-.53 1.884-.222 4.73-.631 6.324-.93a188.54 188.54 0 0 0 5.797-1.206c1.594-.362 4.749-1.187 7.036-1.832 2.287-.644 5.705-1.795 7.548-2.46 1.844-.667 4.437-1.652 5.814-2.233 1.376-.58 4.445-2.094 6.873-3.327 2.428-1.232 6.052-3.03 7.972-4.292 1.92-1.262 4.694-3.256 6.164-4.431 1.471-1.175 3.768-3.424 5.252-4.847 1.484-1.424 3.55-3.813 4.772-5.262 1.222-1.45 3.675-4.247 5.123-6.414 1.489-2.229 3.37-5.831 4.545-8.223 1.143-2.326 2.545-5.771 3.204-7.613.66-1.84 1.561-4.997 2.066-6.924.504-1.926 1.305-5.05 1.658-7.007.354-1.956.794-4.808.988-6.402.228-1.867.543-5.7.536-10.877-.01-6.995-.358-8.408-.873-11.7-.325-2.08-.932-5.477-1.426-7.403-.493-1.926-1.274-4.545-1.802-5.974-.528-1.428-1.777-4.197-2.692-6.081-.915-1.884-2.622-4.822-3.78-6.561-1.156-1.74-3.1-4.26-4.467-5.854-1.366-1.594-3.704-4.075-5.12-5.38-1.417-1.304-1.952-2.012-2.708-2.664-1.428-1.154-3.555-1.61-5.71-2.487-1.956-.799-4.926-1.867-6.6-2.374-1.674-.507-4.384-1.191-6.022-1.52-1.639-.33-3.012-.724-3.052-.877-.04-.153-.451-1.48-.914-2.948-.463-1.469-1.525-4.077-2.36-5.797-.888-1.827-2.174-3.95-3.094-5.104-.865-1.087-2.701-3.102-4.08-4.48-1.378-1.376-3.504-3.342-4.726-4.369-1.22-1.027-3.347-2.557-4.723-3.4a686.69 686.69 0 0 1-4.573-2.83c-1.138-.712-1.977-1.138-1.864-.947.113.192 1.001 1.475 1.974 2.852a125.756 125.756 0 0 1 3.556 5.401c.983 1.594 2.307 3.991 2.94 5.326.634 1.335 1.344 3.292 1.577 4.348.3 1.36.429 3.342.441 6.795.016 4.439-.05 5.168-.73 8.168-.41 1.811-1.094 4.36-1.52 5.665-.425 1.304-1.352 3.586-2.06 5.07-.709 1.485-1.905 3.592-2.66 4.683-.754 1.091-2.076 2.636-2.937 3.434-.861.797-2.475 1.983-3.586 2.634-1.111.651-2.967 1.55-4.124 1.997-1.157.447-2.935.988-3.952 1.204-1.223.259-2.607.344-4.089.252-1.232-.077-2.536-.21-2.898-.295-.646-.153-.753.074-5.377 11.38a4846.795 4846.795 0 0 1-9.656 23.394 2678.473 2678.473 0 0 1-8.152 19.366c-1.768 4.13-3.913 8.96-4.767 10.731-1.325 2.752-1.713 3.329-2.656 3.953-.933.618-1.433.745-3.232.82-1.802.074-2.51-.036-4.633-.718-1.378-.442-4.106-1.5-6.06-2.35-1.955-.851-3.962-1.798-4.46-2.104-.498-.306-1.658-1.422-2.577-2.48-.92-1.058-2.217-2.715-2.884-3.683-.882-1.282-1.22-2.035-1.244-2.767-.03-.963.03-1.037 1.4-1.73 1.064-.54 1.816-.725 2.936-.725.828 0 2.734-.125 4.234-.277 1.501-.152 3.44-.458 4.31-.679.87-.22 2.097-.7 2.727-1.067.83-.481 1.293-.997 1.675-1.86.29-.656.75-2.274 1.021-3.596.272-1.321.67-4.3.887-6.618.216-2.32.58-8.64.811-14.047.343-8.037.359-10.101.088-11.313-.185-.828-1.567-3.936-3.127-7.033-1.537-3.053-2.997-6.203-3.243-7-.247-.797-.628-2.457-.848-3.689-.22-1.231-.469-3.544-.554-5.138-.137-2.564-.089-3.071.416-4.4.315-.83 1.102-2.094 1.758-2.823.653-.727 1.667-1.7 2.253-2.165.98-.776 1.284-.862 3.74-1.057 1.517-.12 4.482-.1 6.86.049 2.303.143 4.497.319 4.875.39.377.07-.028-.226-.9-.659-.873-.433-2.507-1.023-3.63-1.31-1.125-.288-3.078-.6-4.342-.694-1.669-.124-2.948-.05-4.67.274-1.304.245-3.913.977-5.797 1.626-1.884.65-4.255 1.417-5.27 1.705-1.014.288-2.462.945-3.217 1.46-.927.631-2.041 1.843-3.44 3.742a124.878 124.878 0 0 1-4.075 5.197c-1.105 1.314-2.488 2.823-3.075 3.353-.587.53-1.376 1.042-1.755 1.137-.378.095-1.947-.023-3.486-.26-1.54-.239-4.285-.8-6.103-1.246l-3.304-.813-.852.986c-.47.542-1.118 1.532-1.441 2.2-.346.712-.632 1.886-.694 2.845-.062.96.079 2.456.34 3.632.323 1.45.76 2.47 1.588 3.704l1.142 1.704h-1.502c-.827 0-2.2-.182-3.053-.404-.853-.222-2.122-.715-2.82-1.094-.697-.38-1.982-1.435-2.856-2.345a14.015 14.015 0 0 1-2.555-3.69l-.967-2.037-.77.898c-.425.494-1.172 1.729-1.662 2.743-.49 1.014-1.024 2.556-1.186 3.425-.165.879-.236 2.694-.16 4.085.09 1.642.338 3.046.722 4.084.321.87.688 1.693.815 1.831.127.138.231.464.231.725 0 .26-.182.474-.404.474-.222 0-1.14-.248-2.042-.55-.9-.302-2.444-.972-3.429-1.488-1.026-.538-2.237-1.446-2.837-2.128-.655-.744-1.206-1.735-1.47-2.646-.319-1.093-.385-2.053-.268-3.844.086-1.313.237-2.731.335-3.152.176-.752.163-.762-.716-.591-.492.096-1.665.55-2.607 1.01-1.002.489-2.277 1.412-3.072 2.225-.968.99-1.777 2.246-2.811 4.366-.799 1.638-1.745 3.926-2.104 5.085-.358 1.16-.79 2.79-.962 3.623-.17.834-.37 1.515-.442 1.515-.072 0-.647-1.103-1.277-2.452-.63-1.349-1.59-3.75-2.13-5.336-.789-2.307-1.009-3.384-1.1-5.386-.086-1.883.026-3.19.45-5.27.311-1.522 1.037-4.185 1.614-5.918.577-1.734 1.585-4.283 2.24-5.665.655-1.383 1.715-3.357 2.357-4.386.641-1.03 1.693-2.358 2.337-2.952.644-.593 2.099-1.545 3.233-2.115 1.134-.57 3.307-1.458 4.829-1.974 1.521-.515 6.086-1.845 10.144-2.955s8.979-2.542 10.935-3.181c1.957-.64 4.877-1.809 6.49-2.597 1.612-.788 3.805-2.129 4.874-2.98 1.068-.85 2.758-2.426 3.755-3.503.996-1.076 2.285-2.653 2.863-3.504.579-.85 1.623-2.748 2.32-4.216.763-1.607 2.119-5.447 3.408-9.651 1.253-4.089 2.624-7.986 3.309-9.402.764-1.58 1.688-2.98 2.667-4.037.824-.89 2.1-1.926 2.836-2.303 1.009-.517 1.855-.714 3.448-.801 1.27-.07 3.106.05 4.61.304 1.376.232 4.925.717 7.888 1.078 2.962.36 5.41.629 5.441.596.031-.033 1.166-1.724 2.524-3.76 1.357-2.034 3.645-5.176 5.086-6.982 1.44-1.805 4.279-5.165 6.48-7.323 2.23-2.187 5.237-4.927 6.654-6.056 1.417-1.13 3.734-2.714 5.142-3.657 1.41-.943 4.675-2.936 4.965-3.072.332-.156-1.594 1.103-2.003 1.398-.358.258-1.502 1.135-2.58 1.906-1.079.771-3.075 2.305-4.452 3.412-1.377 1.108-3.755 3.009-5.217 4.338-1.462 1.329-3.132 2.916-3.712 3.528-.853.899-.46.68 2.058-1.15a129.685 129.685 0 0 1 6.455-4.338 155.61 155.61 0 0 1 6.77-3.924c1.883-1.016 4.789-2.471 6.455-3.234a170.627 170.627 0 0 1 5.929-2.554 83.862 83.862 0 0 1 5.797-2.046c1.594-.484 4.558-1.238 6.587-1.676a156.76 156.76 0 0 1 7.114-1.339c1.884-.298 5.773-.781 8.641-1.075 2.869-.294 7.493-.604 10.276-.69l5.061-.158 3.641.946c2.003.52 3.83 1.052 4.06 1.181.269.15-1.041.299-3.64.413-2.234.098-5.446.35-7.138.56-1.693.209-4.144.626-5.447.926-1.303.3-3.258.877-4.345 1.282-1.087.406-2.731 1.16-3.654 1.676-.924.517-2.642 1.629-3.82 2.472a79.576 79.576 0 0 0-4.308 3.378c-1.192 1.014-3.169 2.97-4.392 4.347-1.224 1.377-3.098 3.808-4.164 5.402-1.066 1.594-2.603 4.282-3.416 5.973-.813 1.69-1.551 3.526-1.64 4.077l-.163 1.003.761-.518c.418-.285 1.778-1.084 3.002-1.805 1.225-.722 3.774-2.021 5.665-2.887a127.696 127.696 0 0 1 7.128-2.946c2.03-.755 5.527-1.917 7.773-2.583 2.247-.665 5.27-1.505 6.72-1.866 1.449-.36 4.354-1.01 6.455-1.443a170.161 170.161 0 0 1 7.378-1.324c1.956-.295 5.217-.675 7.246-.845 2.337-.196 5.861-.248 9.617-.142 3.261.092 6.894.265 7.328.383.533.145 1.187 1.089 2.926 3.03 1.419 1.585 3.67 4.08 4.687 5.538l1.89 2.709-2.379 2.442c-1.308 1.344-2.317 2.504-2.243 2.579.075.074 2.084.525 4.45 1.025 2.366.5 4.532.818 4.702.97 1.323 1.187 1.543 1.552 2.678 3.424 1.134 1.871 2.942 5.235 4.083 7.448 1.14 2.213 2.898 5.803 3.827 7.978.93 2.174 2.423 5.695 3.168 7.848.745 2.153 1.792 5.595 2.367 7.624.575 2.03 1.464 5.69 1.957 8.081.492 2.391 1.039 6.023 1.329 8.124.29 2.102.631 5.422.807 7.378.175 1.957.263 6.522.264 10.145.002 3.623.098 8.302-.08 10.259-.176 1.956-.447 5.304-.736 7.405-.29 2.102-1.115 5.525-1.552 7.679a140.946 140.946 0 0 1-1.821 7.666c-.566 2.062-1.688 5.682-2.505 8.06-.816 2.377-2.32 6.039-3.187 8.068-.866 2.028-2.453 5.607-3.598 7.853a151.931 151.931 0 0 1-4.253 7.68c-1.197 1.992-3.19 5.188-4.423 6.96-1.232 1.772-3.647 4.958-5.332 7.063-1.686 2.105-4.39 5.317-6.038 7.076-1.647 1.759-4.43 4.45-6.17 6.078-1.739 1.628-5.08 4.342-7.326 6.15-2.246 1.806-6.106 4.647-8.57 6.283-2.463 1.635-5.786 3.782-7.362 4.684-1.576.902-4.924 2.536-7.395 3.751-2.472 1.216-6.314 3.013-8.557 3.9-2.243.888-5.675 2.042-7.573 2.66-1.898.617-5.347 1.712-7.666 2.302-2.319.589-5.725 1.247-7.609 1.608-1.884.361-5.457 1.026-7.848 1.324-2.391.298-6.32.613-8.785.758-2.463.145-5.902.003-7.64-.017zm-30.402-57.94c.38.008 1.079-.064 1.552-.158.49-.098 1.34-.639 1.968-1.252.88-.859 1.435-1.86 2.717-4.9.885-2.101 3.202-7.911 5.149-12.911 1.946-5 6.033-15.73 9.083-23.846s5.617-14.993 5.705-15.283c.089-.29-.02-.171-.242.263-.221.435-1.401 3.177-2.622 6.092a774.086 774.086 0 0 1-4.762 11.067c-1.399 3.171-4.189 9.085-6.2 13.143-2.012 4.058-4.589 8.925-5.727 10.816-1.138 1.89-2.516 4.025-3.06 4.743a35.537 35.537 0 0 1-2.064 2.436c-.59.621-1.435 1.318-1.88 1.548-.683.353-1.548.397-5.565.28-2.8-.082-5.663-.319-6.96-.576-1.21-.241-2.251-.388-2.313-.327-.061.062.6.771 1.471 1.577.87.806 2.646 2.123 3.946 2.927 1.3.804 3.224 1.9 4.276 2.436 1.051.536 2.57 1.185 3.374 1.443.804.257 1.773.474 2.154.482zm36.131-69.47c.761-.06 2.66-.283 4.22-.498 1.562-.215 3.963-.676 5.338-1.025 1.374-.348 3.218-1.017 4.097-1.486.991-.528 2.232-1.535 3.264-2.65.957-1.034 2.136-2.703 2.771-3.925.609-1.169 1.447-3.133 1.864-4.366a52.505 52.505 0 0 0 1.29-4.701c.293-1.354.605-3.272.694-4.263.101-1.141.009-2.726-.253-4.325-.227-1.388-.84-3.75-1.36-5.246-.522-1.497-1.488-3.8-2.147-5.117-.66-1.318-1.496-2.905-1.858-3.528-.363-.622-.7-1.091-.748-1.043-.049.05.087 1.151.303 2.45.22 1.326.394 4.091.398 6.313.004 2.173-.126 4.841-.29 5.928-.162 1.087-.578 3.116-.924 4.508-.345 1.393-.997 3.468-1.448 4.611a46.567 46.567 0 0 1-1.881 4.056c-.583 1.087-1.606 2.741-2.273 3.676s-2.043 2.574-3.058 3.643c-1.015 1.068-2.769 2.638-3.898 3.489-1.128.85-2.824 1.978-3.768 2.506-.944.528-1.716.992-1.716 1.03 0 .039.622.022 1.383-.037zm-107.966-6.522c.724-.08 3.214-.334 5.533-.565 2.319-.231 4.235-.438 4.26-.46.023-.023.13-.918.235-1.99.111-1.131.093-1.89-.044-1.81-.13.077-2.192.976-4.583 1.997-2.391 1.02-4.881 2.107-5.533 2.414l-1.186.558zm51.59-28.865c.06 0 2.883-1.135 6.273-2.522 3.391-1.387 6.26-2.614 6.375-2.726.116-.112.076-3.631-.087-7.82-.164-4.189-.377-8.072-.474-8.63-.175-1.007-.184-.994-1.165 1.713-.545 1.5-1.736 4.386-2.649 6.415-.912 2.03-2.358 4.812-3.212 6.185a76.878 76.878 0 0 1-3.198 4.677c-.905 1.199-1.719 2.299-1.808 2.444-.09.145-.115.264-.055.264zm81.38-39.598c-1.25.8-3.66 2.52-3.442 2.306.217-.214 3.378-2.624 5.117-3.823 1.739-1.2 3.992-2.629 5.006-3.177 1.015-.548 3.386-1.667 5.27-2.488 1.884-.82 5.134-2.226 7.236-3.065 2.101-.839 4.644-1.728 5.637-2.034.994-.306 5.52-1.426 5.685-1.419.166.008-5.054 1.516-7.228 2.28-2.173.764-5.128 1.893-6.565 2.51a125.091 125.091 0 0 0-5.533 2.581c-1.606.805-4.27 2.228-5.918 3.162a139.17 139.17 0 0 0-5.265 3.167z" style="fill:none;stroke:#df241a;stroke-width:1.09656;stroke-miterlimit:4;stroke-dasharray:none;stroke-opacity:1" transform="translate(21.504 -7.193) scale(.48058)"/><path d="M57.169 215.459c-.38-.008-1.35-.225-2.154-.482-.805-.258-2.323-.907-3.374-1.443-1.052-.536-2.976-1.632-4.276-2.436-1.3-.804-3.076-2.121-3.946-2.927-.87-.806-1.532-1.515-1.47-1.577.06-.06 1.102.086 2.313.327 1.296.257 4.16.494 6.959.576 4.017.117 4.882.073 5.565-.28.445-.23 1.29-.927 1.88-1.548a35.537 35.537 0 0 0 2.063-2.436c.545-.718 1.923-2.852 3.061-4.743 1.138-1.89 3.715-6.758 5.727-10.816 2.011-4.058 4.801-9.972 6.2-13.143a772.8 772.8 0 0 0 4.762-11.067c1.22-2.915 2.4-5.657 2.622-6.092.222-.434.33-.553.242-.263-.088.29-2.656 7.167-5.705 15.283-3.05 8.115-7.137 18.846-9.083 23.846-1.947 5-4.264 10.81-5.15 12.911-1.281 3.04-1.836 4.041-2.716 4.9-.629.613-1.479 1.154-1.968 1.252a8.904 8.904 0 0 1-1.552.158zm36.131-69.47c-.76.06-1.383.076-1.383.037 0-.038.772-.502 1.716-1.03s2.64-1.655 3.768-2.506c1.13-.85 2.883-2.42 3.898-3.49 1.015-1.068 2.391-2.707 3.058-3.642.667-.935 1.69-2.59 2.273-3.676a46.567 46.567 0 0 0 1.88-4.056c.452-1.143 1.104-3.218 1.45-4.61.345-1.393.76-3.422.924-4.509.163-1.087.293-3.755.289-5.928-.004-2.222-.179-4.987-.398-6.313-.216-1.299-.352-2.4-.303-2.45.049-.048.385.421.748 1.043.362.623 1.198 2.21 1.858 3.528.66 1.317 1.625 3.62 2.146 5.117.521 1.497 1.134 3.858 1.361 5.246.262 1.6.354 3.184.253 4.325-.088.991-.4 2.91-.694 4.263a52.505 52.505 0 0 1-1.29 4.701c-.417 1.233-1.255 3.197-1.864 4.366-.635 1.222-1.814 2.89-2.77 3.925-1.033 1.115-2.274 2.122-3.265 2.65-.879.47-2.723 1.138-4.097 1.486-1.375.35-3.776.81-5.337 1.025-1.56.215-3.46.439-4.22.498zm17.522-68.74c-.721.441-.951.81-.792.267.101-.344.98-1.477 3.032-2.945 1.63-1.165 3.917-3.246 5.167-4.048s3.606-2.479 5.254-3.413a157.583 157.583 0 0 1 5.912-3.157c1.606-.804 4.307-1.776 5.889-2.453 1.582-.677 4.837-1.911 7.373-2.757 2.536-.845 6.462-1.607 8.636-2.047 2.174-.44 5.017-.824 6.322-.985 1.304-.161 4.527-.421 6.99-.414 2.464.008 5.284.11 6.425.174l1.744.084 2.745 2.344c1.17 1 2.199 2.316 2.706 2.884.88.985 1.722 1.411 1.094 1.244-.363-.097-4.303-.508-7.564-.601-3.763-.107-7.275-.056-9.617.14-2.029.17-5.29.55-7.246.846a170.16 170.16 0 0 0-7.378 1.324 202.616 202.616 0 0 0-6.456 1.443c-1.449.36-4.472 1.2-6.719 1.866-2.246.666-5.744 1.828-7.773 2.583-2.029.754-5.236 2.08-7.128 2.946-1.89.865-4.44 2.164-5.665 2.886-1.224.722-1.887 1.14-2.294 1.388zM79.351 65.181c-7.79 5.718-2.91 2.05-2.058 1.15.58-.611 2.29-2.234 3.8-3.606a135.013 135.013 0 0 1 5.62-4.778c1.582-1.256 3.95-3.032 5.263-3.947 1.312-.915 3.469-2.478 4.862-3.32 1.392-.84 3.664-2.114 5.113-2.836a72.219 72.219 0 0 1 5.195-2.281c1.377-.529 3.695-1.312 5.079-1.678 1.335-.353 3.112-.652 5.212-.798 1.876-.131 8.926-.385 16.53-.294 6.043.073 7.66.33 9.398.504 1.74.175 4.513.793 5.02.898.555.115-.519.033-4.165.14-3.333.098-8.372.366-11.198.66-2.826.294-6.68.778-8.564 1.076-1.884.298-5.085.9-7.114 1.339-2.029.438-4.993 1.192-6.587 1.675a83.862 83.862 0 0 0-5.797 2.047 170.627 170.627 0 0 0-5.929 2.554c-1.666.762-4.572 2.217-6.455 3.234a155.61 155.61 0 0 0-6.77 3.924c-1.839 1.142-4.75 3.086-6.455 4.337z" style="fill:none;stroke:#df241a;stroke-width:1.09656;stroke-miterlimit:4;stroke-dasharray:none;stroke-opacity:1" transform="translate(21.504 -7.193) scale(.48058)"/><path d="M89.414 265.898c-2.899.059-5.922.063-6.72.009a549.86 549.86 0 0 1-4.874-.375c-1.884-.152-5.382-.578-7.773-.946-2.391-.369-6.364-1.124-8.827-1.678-2.464-.555-6.155-1.493-8.203-2.085a194.736 194.736 0 0 1-7.641-2.424 197.843 197.843 0 0 1-7.87-2.94 216.049 216.049 0 0 1-7.642-3.28c-2.029-.93-5.645-2.706-8.037-3.95-2.39-1.242-6.422-3.503-8.958-5.024-2.536-1.52-6.094-3.773-7.905-5.005a198.453 198.453 0 0 1-6.192-4.414c-1.594-1.197-3.838-2.99-4.987-3.986-1.148-.996-2.964-2.776-3.027-2.969-.065-.197 1.398.785 2.192 1.245.777.45 3.361 1.768 5.714 3.005 2.352 1.237 5.803 2.864 7.654 3.743 1.85.88 5.07 2.388 7.172 3.323 2.102.935 6.374 2.705 9.417 3.911 3.044 1.207 8.182 3.082 11.225 4.105 3.044 1.023 7.14 2.304 9.399 2.947 2.259.643 5.893 1.598 8.127 2.116 2.234.519 5.652 1.297 7.579 1.66 1.927.362 5.348.899 7.55 1.184 2.204.286 6.097.594 8.705.764 2.72.177 6.517.178 9.021.083 2.401-.092 5.94-.305 7.742-.526 1.801-.22 4.964-.772 7.138-1.214 2.174-.443 5.586-1.162 7.543-1.667 1.956-.504 5.395-1.464 7.641-2.196 2.247-.73 5.69-2.067 7.72-2.864 2.028-.797 5.411-2.325 7.513-3.37 2.102-1.043 4.739-2.395 5.825-3.026a113.844 113.844 0 0 0 4.848-3.018c1.614-1.072 4.2-2.98 5.774-4.237 1.574-1.257 4.27-3.727 6.012-5.468 1.74-1.742 4.016-4.18 5.003-5.412.988-1.232 2.67-3.692 3.795-5.368 1.127-1.676 2.696-4.265 3.528-5.817.833-1.552 2.156-4.335 2.95-6.252.793-1.916 1.865-4.703 2.348-6.298.483-1.594 1.16-4.294 1.542-6 .381-1.706.865-4.7 1.158-6.69.342-2.325.827-5.738.926-9.563.1-3.828-.238-7.008-.438-8.926-.172-1.64-.482-3.97-.698-5.219-.215-1.25-.62-3.706-1.052-5.42-.432-1.712-1.424-4.555-2.085-6.392-.662-1.838-1.984-4.91-2.976-6.941-.991-2.031-2.8-5.304-4.098-7.258-1.3-1.954-3.2-4.27-3.953-5.29l-1.351-1.833 1.38 1.142c.76.628 2.423 2.17 3.696 3.425a79.831 79.831 0 0 1 4.398 4.787c1.146 1.377 2.904 3.748 3.908 5.27 1.005 1.522 2.642 4.427 3.638 6.456.997 2.029 2.228 4.85 2.737 6.268.509 1.419 1.27 3.909 1.692 5.533.421 1.625 1.01 4.436 1.31 6.248.298 1.812.664 4.657.814 6.324.15 1.666.272 4.755.272 6.864s-.123 5.429-.275 7.378c-.152 1.949-.508 5.13-.792 7.07a110.17 110.17 0 0 1-1.335 7.11c-.45 1.97-1.28 5.022-1.843 6.783-.562 1.761-1.51 4.372-2.105 5.803-.595 1.43-1.773 3.981-2.617 5.67-.844 1.688-2.151 4.06-2.905 5.27a82.061 82.061 0 0 1-2.712 4.044 110.794 110.794 0 0 1-3.176 4.084c-1.01 1.232-3.107 3.497-4.662 5.032-1.555 1.536-3.91 3.819-5.334 4.964-1.423 1.145-4.096 3.233-6.055 4.537-1.959 1.305-5.138 2.957-6.85 3.882-1.713.926-4.795 2.425-6.85 3.331-2.056.907-5.279 2.207-7.163 2.89-1.884.682-5.227 1.758-7.43 2.39-2.203.633-5.523 1.5-7.378 1.928a165.137 165.137 0 0 1-6.403 1.324c-1.667.3-4.63.723-6.587.94-1.957.215-5.929.44-8.827.5zm-99.834-42.52c-.614 0-1.296-.149-1.517-.33-.22-.18-.836-.938-1.368-1.682-.795-1.113-.966-1.58-.966-2.635 0-.705.208-1.695.461-2.199.254-.504.876-1.197 1.383-1.539.742-.5 1.17-.598 2.183-.504.846.08 1.485.325 1.944.748.376.347.847 1.013 1.045 1.479.199.466.362 1.448.362 2.182s-.162 1.722-.36 2.195c-.197.473-.74 1.18-1.206 1.572-.628.529-1.134.713-1.961.713zm-.292-1.318c.337 0 .806-.074 1.04-.163.235-.09.6-.5.812-.91.212-.41.385-1.314.385-2.01 0-.777-.194-1.58-.502-2.086-.276-.452-.811-.9-1.19-.994-.38-.096-.924-.048-1.211.106-.287.153-.69.541-.897.862-.206.321-.402.94-.435 1.375a13.738 13.738 0 0 0-.02 1.494c.022.388.347 1.07.722 1.515.402.478.934.811 1.296.811zm1.08-9.75c-.347 0-.702-.187-.79-.416-.088-.23-.16-1.88-.16-3.67v-3.254l-.772.221c-.588.169-.807.128-.922-.172-.083-.216-.15-.49-.15-.61s.554-.406 1.232-.637c.678-.23 1.449-.42 1.713-.42.445 0 .48.322.48 4.48v4.479zm10.9-.111c-.63.095-1.26-.037-2.022-.423-.8-.406-1.264-.887-1.677-1.74-.45-.928-.547-1.515-.458-2.75.074-1.016.3-1.818.64-2.274.29-.388.854-.95 1.254-1.248.5-.374 1.097-.536 1.91-.518.728.016 1.445.223 1.872.542.38.284.927.97 1.215 1.524.344.663.523 1.526.523 2.52 0 1.016-.166 1.797-.505 2.376-.278.474-.805 1.085-1.17 1.358-.366.272-1.077.557-1.581.633zm-.42-1.206c.196 0 .665-.243 1.044-.54.384-.303.818-1.025.983-1.637.22-.815.217-1.355-.01-2.109-.166-.558-.533-1.244-.815-1.526-.281-.281-.847-.511-1.256-.511-.46 0-.99.26-1.383.68-.541.575-.64.942-.64 2.393 0 1.601.057 1.763.861 2.482.474.422 1.02.768 1.216.768zm-22.047-2.108c-.042 0-.398-.654-.79-1.455-.393-.8-.714-1.57-.714-1.712 0-.142-.237-.495-.527-.785-.29-.29-.527-.632-.527-.76s.267-.304.593-.391c.326-.088.919-.16 1.317-.163l.725-.004v2.635c0 1.45-.035 2.635-.077 2.635zm-.686-8.168h-.818v-7.173l-.89.167c-.793.149-.904.097-1.012-.468-.11-.576.023-.68 1.419-1.103.847-.256 1.629-.378 1.736-.27.108.107.238 2.142.29 4.521l.092 4.326zm11.412-.109c-.575.065-1.393-.048-1.85-.254-.45-.203-1.097-.763-1.44-1.244-.45-.633-.651-1.331-.728-2.534-.061-.97.03-1.99.221-2.45.18-.434.732-1.144 1.226-1.578.736-.647 1.132-.79 2.187-.79 1.016 0 1.467.151 2.135.713.465.391 1.008 1.1 1.206 1.572.197.473.36 1.489.36 2.256 0 .856-.19 1.748-.489 2.306-.268.5-.782 1.13-1.142 1.398-.36.27-1.12.541-1.686.605zm-.338-1.208c.293 0 .893-.36 1.333-.8.76-.76.795-.888.69-2.54-.096-1.497-.211-1.824-.836-2.36-.398-.344-.992-.624-1.319-.624-.326 0-.852.24-1.167.534-.316.294-.65.834-.741 1.2-.092.366-.109 1.275-.037 2.02.1 1.046.29 1.49.837 1.961.39.335.947.609 1.24.609zm11.59 1.053c-.725 0-1.545-.201-2.028-.496-.447-.272-1-.894-1.23-1.383a9.05 9.05 0 0 1-.593-1.833c-.097-.52-.04-1.449.125-2.063.166-.615.684-1.535 1.15-2.045.669-.728 1.102-.953 2.027-1.048.844-.088 1.436.02 2.092.383.531.293 1.168.98 1.515 1.638.377.712.598 1.583.594 2.344-.003.665-.225 1.694-.494 2.285-.268.59-.815 1.332-1.215 1.647-.509.4-1.094.571-1.944.57zm-.089-1.317c.464 0 .993-.252 1.367-.65.409-.435.652-1.077.735-1.939.084-.876-.016-1.585-.314-2.212-.24-.507-.738-1.06-1.105-1.227-.514-.234-.83-.227-1.371.03-.387.183-.923.784-1.192 1.334-.372.761-.446 1.29-.309 2.207.11.737.425 1.45.807 1.832.368.368.937.625 1.382.625zm11.497 1.219a3.302 3.302 0 0 1-1.953-.349c-.591-.304-1.136-.897-1.515-1.65a5.694 5.694 0 0 1-.593-2.486c0-.767.216-1.757.521-2.387.287-.593.896-1.298 1.353-1.569.458-.27 1.265-.491 1.794-.491.529 0 1.342.197 1.806.437.471.243 1.079.895 1.374 1.474.35.687.53 1.556.53 2.568 0 .986-.174 1.853-.488 2.44-.269.5-.783 1.129-1.143 1.398-.36.269-1.119.546-1.686.615zm-.19-1.235c.174.009.625-.25 1.002-.577.378-.326.788-1.037.91-1.58.122-.544.125-1.415.008-1.936-.118-.522-.481-1.233-.809-1.581-.347-.37-.895-.634-1.316-.634-.482 0-.947.27-1.403.811-.534.634-.682 1.096-.682 2.121 0 .72.184 1.666.409 2.101.225.435.67.896.988 1.025.318.128.72.24.894.25zM.446 188.859c-.486 0-1.275-.24-1.754-.532-.504-.307-1.086-1.003-1.378-1.646-.279-.615-.508-1.708-.512-2.436-.003-.79.19-1.691.482-2.24.269-.505.88-1.185 1.357-1.511a3.525 3.525 0 0 1 1.995-.593c.83 0 1.342.181 1.947.69.45.38 1.013 1.062 1.248 1.515.245.472.429 1.455.43 2.292 0 1.05-.173 1.778-.613 2.56-.35.624-.98 1.266-1.467 1.497-.47.223-1.25.405-1.735.404zm.191-1.325c.3.004.808-.269 1.126-.608.319-.34.695-1.02.837-1.513.141-.493.183-1.292.092-1.774-.09-.482-.457-1.224-.814-1.649-.435-.517-.894-.771-1.393-.771-.506 0-.96.258-1.425.81-.534.635-.683 1.096-.683 2.121 0 .721.178 1.655.396 2.075.217.42.602.885.856 1.033.254.148.707.272 1.008.276zm11.047 1.06c-.582 0-1.432-.23-1.898-.514-.464-.283-1.052-.905-1.308-1.382-.305-.57-.468-1.463-.474-2.6-.007-1.423.109-1.905.65-2.7.362-.532 1.032-1.146 1.489-1.364.456-.218 1.17-.396 1.585-.396.415 0 1.162.218 1.66.485.503.27 1.144.942 1.445 1.515.377.72.536 1.507.527 2.61-.009.976-.19 1.914-.474 2.45-.254.477-.84 1.1-1.305 1.382-.465.284-1.315.514-1.897.514zm-.027-1.315c.573 0 1.062-.218 1.474-.657.439-.466.65-1.057.728-2.042.092-1.138 0-1.55-.513-2.307-.469-.692-.844-.944-1.502-1.007-.625-.06-1.056.083-1.502.503-.345.323-.7.984-.791 1.468a5.77 5.77 0 0 0 .003 1.776c.092.492.41 1.204.707 1.58.383.488.787.686 1.396.686zm10.171-2.108h-.79v-7.604l-.839.24c-.461.132-.862.213-.89.18-.027-.034-.128-.316-.223-.627-.15-.49-.01-.621 1.068-.988.683-.233 1.517-.423 1.853-.423h.612v9.221zm11.554-10.013c-.34 0-1.031-.208-1.536-.461-.504-.254-1.18-.855-1.501-1.337-.322-.481-.665-1.405-.762-2.052a6.24 6.24 0 0 1 .146-2.326c.184-.66.701-1.518 1.209-2.01.73-.708 1.144-.88 2.342-.98 1.407-.117 1.491-.086 2.487.91.646.645 1.148 1.468 1.348 2.205.24.888.245 1.49.023 2.456-.162.703-.528 1.608-.814 2.01-.286.401-.926.922-1.421 1.158-.496.235-1.18.427-1.52.427zm.435-1.504c.29-.076.736-.322.99-.546.256-.224.597-.85.76-1.393.162-.542.215-1.408.118-1.925-.097-.517-.478-1.3-.848-1.738-.469-.558-.906-.799-1.45-.799-.5 0-1.006.244-1.406.676-.344.371-.703 1.128-.796 1.683-.094.554-.044 1.476.11 2.05.154.572.488 1.222.743 1.444.254.221.64.467.857.545.218.079.633.08.922.003z" style="fill:none;stroke:#df241a;stroke-width:1.09656;stroke-miterlimit:4;stroke-dasharray:none;stroke-opacity:1" transform="translate(21.504 -7.193) scale(.48058)"/><path d="M83.88 255.083c-1.739.06-5.118.014-7.51-.1-2.39-.115-5.888-.398-7.772-.63a224.088 224.088 0 0 1-6.72-.953c-1.811-.292-5.206-.942-7.544-1.445-2.339-.503-6.562-1.558-9.387-2.345-2.824-.787-6.84-1.986-8.923-2.663a264.56 264.56 0 0 1-8.4-2.944 307.429 307.429 0 0 1-8.432-3.289 300.509 300.509 0 0 1-8.168-3.557c-2.391-1.09-6.66-3.149-9.486-4.576-2.826-1.428-6.264-3.223-7.641-3.99-1.378-.766-2.597-1.419-2.711-1.45-.114-.032-.528-.439-.92-.904l-.712-.847.656.422c.362.232 5.4 2.045 11.197 4.028a4609.832 4609.832 0 0 0 21.87 7.406c6.231 2.09 14.531 4.742 18.444 5.894 3.913 1.15 9.071 2.566 11.462 3.145 2.391.58 6.423 1.404 8.959 1.833 2.536.43 6.034.937 7.773 1.129 1.983.218 6.355.346 11.726.343 6.618-.004 9.461-.115 12.515-.484 2.174-.263 5.672-.83 7.774-1.26 2.1-.43 5.48-1.258 7.51-1.841a121.035 121.035 0 0 0 7.245-2.383c1.957-.728 5.604-2.312 8.106-3.52 2.502-1.21 5.94-3.023 7.641-4.03 1.701-1.007 4.634-2.867 6.518-4.133 1.884-1.265 4.43-3.085 5.659-4.043 1.228-.957 3.053-2.514 4.055-3.46 1.002-.944 2.765-2.844 3.917-4.22 1.153-1.377 2.894-3.694 3.87-5.15.976-1.455 2.612-4.3 3.636-6.323 1.024-2.023 2.514-5.338 3.312-7.367.797-2.029 1.759-4.715 2.137-5.969.378-1.254 1.032-3.744 1.453-5.533.422-1.79.956-4.44 1.187-5.889.23-1.449.538-3.702.683-5.006.145-1.304.337-4.506.428-7.114.097-2.821.04-6.292-.14-8.564-.167-2.101-.485-5.066-.705-6.587-.221-1.522-.745-4.095-1.166-5.719-.42-1.623-1.082-3.757-1.47-4.743-.39-.985-1.237-2.858-1.885-4.162-.647-1.304-1.807-3.142-2.578-4.084-.771-.942-2.034-2.256-2.807-2.92a47.1 47.1 0 0 0-2.722-2.148c-.725-.518-2.22-1.416-3.323-1.995-1.103-.58-3.484-1.535-5.29-2.123-1.806-.587-4.757-1.375-6.558-1.75a40.398 40.398 0 0 0-6.83-.805l-3.558-.125-3.378 1.124-3.377 1.124-1.007 3.09c-.554 1.7-1.546 4.19-2.204 5.534-.657 1.344-1.774 3.304-2.481 4.356a55.617 55.617 0 0 1-2.838 3.777c-.854 1.025-2.366 2.566-3.36 3.424-.996.859-2.484 2.018-3.308 2.576-.824.558-1.993 1.267-2.598 1.574-.605.308-2.027.876-3.162 1.262-1.582.54-2.794.74-5.21.861l-3.148.159-3.34 8.827a1231.146 1231.146 0 0 1-7.357 18.84c-2.21 5.507-5.002 12.325-6.205 15.15a388.864 388.864 0 0 1-4.079 9.223c-1.041 2.246-2.65 5.8-3.576 7.898-.925 2.098-2.117 4.445-2.647 5.216-.531.77-1.546 1.923-2.256 2.561-.71.638-1.94 1.404-2.736 1.701-.898.336-2.077.542-3.108.542-.913 0-2.243-.185-2.954-.41a69.013 69.013 0 0 0-3.338-.92c-1.125-.28-3.2-.938-4.611-1.463-1.412-.525-3.592-1.48-4.844-2.123-1.253-.643-3.344-1.905-4.648-2.804-1.303-.899-3.545-2.606-4.983-3.794-1.437-1.188-3.615-3.204-4.838-4.48-1.224-1.276-4.214-4.661-6.644-7.523-3.559-4.192-4.306-5.204-3.84-5.204.318 0 4.145.365 8.503.812 5.11.524 9.561.826 12.535.853 3.003.027 5.254-.085 6.456-.32 1.014-.2 2.168-.526 2.564-.726.396-.2.887-.689 1.091-1.085.204-.396.503-1.194.666-1.774.162-.58.476-3.603.698-6.719.221-3.116.576-7.308.788-9.316.212-2.008.383-5.328.38-7.378-.002-2.155-.162-4.504-.378-5.571-.278-1.373-1.117-3.302-3.281-7.549-1.6-3.137-3.258-6.587-3.687-7.665-.428-1.08-.966-2.865-1.194-3.969-.228-1.103-.411-2.87-.408-3.928.004-1.056.127-2.455.274-3.107.146-.652.33-1.392.406-1.645.107-.354.029-.42-.34-.29-.263.094-.698.36-.967.592-.27.231-.757.954-1.084 1.607-.326.652-.862 2.015-1.19 3.03a28.242 28.242 0 0 1-1.486 3.563c-.49.945-1.424 2.327-2.075 3.072-.651.744-1.945 1.834-2.874 2.42-.93.588-2.442 1.326-3.36 1.64a11.3 11.3 0 0 1-3.515.581c-1.014.004-2.497-.146-3.294-.334-.797-.188-2.327-.688-3.4-1.11-1.52-.599-2-.694-2.162-.432-.115.186-.285.79-.378 1.343-.112.66-.049 1.18.184 1.517.195.283 2.605 2.175 5.354 4.206 2.75 2.03 4.898 3.691 4.773 3.691s-3.086.366-6.58.814c-4.255.544-6.964.769-8.199.68-1.014-.074-2.802-.439-3.973-.811-1.17-.373-2.83-1.15-3.689-1.726a92.429 92.429 0 0 1-2.153-1.485l-.593-.435.015 1.416c.008.778.215 1.925.46 2.549.247.623 1.798 2.972 3.449 5.22 1.65 2.247 3.409 4.362 3.906 4.7.565.384.794.685.61.8-.219.134-.215.28.012.554.17.204.23.372.136.372s-1.74-.29-3.655-.645c-1.916-.355-5.108-1-7.093-1.435-1.985-.435-4.505-1.149-5.6-1.587-1.094-.439-2.665-1.23-3.49-1.757-.826-.528-2.147-1.621-2.935-2.428-.892-.913-1.779-2.197-2.348-3.396-.504-1.06-.96-1.927-1.014-1.927-.055 0-.46.715-.9 1.588-.442.874-1.147 2.623-1.568 3.887-.444 1.333-1.236 5.095-1.885 8.957-.615 3.662-1.2 6.567-1.3 6.455-.1-.111-1.814-2.515-3.81-5.34-2.031-2.877-4.127-6.183-4.761-7.51-.623-1.305-1.428-3.393-1.789-4.641-.36-1.248-.783-3.183-.938-4.3a36.12 36.12 0 0 1-.283-4.112c0-1.144.182-3.382.404-4.973.222-1.59.81-4.378 1.308-6.194.498-1.815 1.26-4.137 1.695-5.157.434-1.021 1.309-2.655 1.943-3.63.635-.976 1.736-2.419 2.448-3.206.71-.787 2.14-2.105 3.176-2.929 1.035-.823 2.933-2.098 4.216-2.832 1.283-.734 3.222-1.69 4.309-2.125 1.087-.435 3.873-1.264 6.192-1.843 2.319-.58 5.224-1.37 6.455-1.759 1.232-.388 3.604-1.242 5.27-1.897a85.972 85.972 0 0 0 5.807-2.581c1.527-.765 3.89-2.135 5.25-3.044 1.36-.91 3.683-2.821 5.164-4.247 1.48-1.426 3.307-3.482 4.058-4.569.75-1.086 1.898-3.1 2.55-4.474.82-1.734 1.536-3.918 2.337-7.134.825-3.31 1.49-5.325 2.33-7.048.646-1.328 1.794-3.216 2.551-4.196.758-.98 2.1-2.325 2.983-2.989.883-.664 2.024-1.42 2.535-1.68.511-.26 1.756-.727 2.766-1.038 1.107-.341 2.94-.629 4.612-.724 1.583-.09 3.735-.028 5.013.145 1.232.165 3.485.585 5.007.932 1.521.347 3.066.707 3.433.801.61.157.818-.051 2.42-2.412.963-1.42 2.79-3.887 4.06-5.481 1.271-1.595 4.037-4.621 6.146-6.726 2.109-2.105 5.139-4.87 6.733-6.144a114.77 114.77 0 0 1 5.938-4.382c1.672-1.135 4.572-2.921 6.445-3.97 1.872-1.047 4.713-2.496 6.314-3.218 1.6-.722 4.318-1.84 6.039-2.484a90.33 90.33 0 0 1 6.424-2.074c1.812-.497 4.495-1.134 5.961-1.417 1.467-.282 4.386-.712 6.487-.954 2.955-.34 5.224-.41 10.013-.307 4.557.098 7.027.277 9.354.678 1.739.3 4.644.922 6.455 1.384 1.812.462 3.515.764 3.717.88 3.344 1.938 1.765.873 3.344 1.938a195.287 195.287 0 0 1 5.713 4.038c1.563 1.157 3.131 2.247 3.077 2.3-.054.055-3.14.154-6.388.294-4.037.173-6.703.422-8.424.784-1.386.292-3.698.928-5.139 1.413a59.6 59.6 0 0 0-5.06 2.022c-1.343.625-2.391 1.187-2.33 1.248.061.061 1.562-.254 3.334-.7a103.578 103.578 0 0 1 6.228-1.333c1.652-.286 4.748-.705 6.88-.93 2.131-.224 6.046-.45 8.698-.502l4.822-.096 1.107.995c.608.546 1.511 1.292 1.985 1.632l.798.766-4.312-.153c-2.32-.083-5.893-.037-7.943.114-2.05.152-5.319.57-7.265.93-1.946.359-5.042 1.01-6.88 1.447-1.84.437-4.5 1.227-5.91 1.755-1.413.53-4.392 1.721-6.621 2.65-2.23.928-5.24 2.287-6.748 2.998-1.508.712-4.06 2.134-5.612 3.182-1.552 1.048-4.307 3.152-6.191 4.525-1.884 1.373-3.968 2.87-4.249 3.24l-1.06 1.395.234-1.2c.152-.782 1.448-3.493 2.095-4.781.646-1.288 2.004-3.575 3.017-5.083s2.842-3.868 4.065-5.245c1.223-1.377 3.2-3.333 4.391-4.348a79.577 79.577 0 0 1 4.308-3.377c1.178-.843 2.896-1.956 3.82-2.472.923-.516 2.567-1.27 3.654-1.676 1.087-.405 3.042-.983 4.345-1.283 1.303-.3 3.754-.717 5.447-.926 1.692-.21 4.904-.462 7.137-.56 2.604-.114 3.91-.262 3.641-.412-.231-.13-1.999-.644-3.929-1.144-2.403-.623-3.493-.848-3.721-.9-1.293-.3-1.415-.28-3.281-.598-1.812-.156-5.083-.6-7.837-.738-3.058-.152-8.185-.157-13.174-.014-7.232.207-8.486.308-10.937.881-1.523.356-3.954 1.088-5.402 1.627-1.448.54-3.937 1.626-5.531 2.414-1.594.789-4.989 2.687-7.543 4.22-2.555 1.531-5.756 3.617-7.115 4.636a110.288 110.288 0 0 0-5.024 4.066c-1.405 1.218-3.8 3.514-5.322 5.102-1.522 1.589-3.927 4.334-5.345 6.1-1.419 1.768-3.69 4.878-5.046 6.913a396.754 396.754 0 0 1-2.524 3.76c-.03.032-2.48-.236-5.441-.597-2.963-.36-6.512-.845-7.887-1.077-1.505-.254-3.341-.375-4.611-.305-1.593.088-2.44.285-3.448.802-.736.376-2.012 1.413-2.836 2.302-.979 1.058-1.903 2.457-2.667 4.037-.685 1.417-2.056 5.314-3.31 9.402-1.288 4.205-2.644 8.045-3.407 9.652-.697 1.468-1.741 3.365-2.32 4.216-.578.85-1.867 2.427-2.863 3.504-.997 1.077-2.687 2.653-3.755 3.503-1.069.85-3.262 2.191-4.875 2.98-1.612.788-4.532 1.956-6.489 2.596-1.956.64-6.877 2.072-10.935 3.182-4.058 1.11-8.623 2.44-10.144 2.955-1.522.515-3.695 1.403-4.829 1.973-1.134.57-2.589 1.522-3.233 2.116-.644.594-1.696 1.922-2.337 2.951-.642 1.03-1.702 3.004-2.357 4.386-.655 1.383-1.663 3.932-2.24 5.665-.577 1.733-1.303 4.397-1.613 5.918-.425 2.081-.537 3.388-.45 5.27.09 2.003.31 3.08 1.098 5.387.542 1.586 1.5 3.987 2.131 5.336.63 1.348 1.205 2.452 1.277 2.452.072 0 .271-.682.442-1.515.171-.834.604-2.464.962-3.623.359-1.16 1.305-3.448 2.104-5.085 1.034-2.12 1.843-3.377 2.81-4.367.796-.812 2.07-1.736 3.073-2.225.942-.46 2.115-.914 2.607-1.01.88-.17.892-.16.716.591-.098.421-.249 1.84-.335 3.153-.117 1.79-.05 2.75.267 3.843.265.911.816 1.902 1.47 2.647.601.682 1.812 1.59 2.838 2.128.985.516 2.528 1.185 3.43 1.488.9.302 1.82.55 2.041.55.222 0 .404-.214.404-.475 0-.26-.104-.587-.231-.724-.127-.138-.494-.962-.815-1.832-.384-1.037-.632-2.441-.722-4.084-.076-1.39-.005-3.206.16-4.084.162-.87.697-2.411 1.186-3.425.49-1.015 1.237-2.249 1.661-2.743l.77-.898.968 2.036a14.015 14.015 0 0 0 2.555 3.69c.874.91 2.16 1.966 2.857 2.345.697.38 1.966.872 2.819 1.094.853.222 2.226.404 3.053.404h1.502l-1.143-1.703c-.827-1.235-1.264-2.255-1.587-3.704-.261-1.176-.402-2.673-.34-3.632.062-.959.348-2.133.694-2.846.323-.667.972-1.657 1.44-2.2l.853-.986 3.304.813c1.818.447 4.564 1.008 6.103 1.246 1.54.238 3.108.355 3.486.26.379-.095 1.168-.606 1.755-1.136.587-.53 1.97-2.04 3.075-3.353a124.885 124.885 0 0 0 4.075-5.197c1.399-1.9 2.513-3.111 3.44-3.743.755-.515 2.203-1.171 3.217-1.46 1.015-.287 3.386-1.054 5.27-1.704 1.884-.65 4.493-1.381 5.797-1.626 1.722-.324 3.001-.399 4.67-.275 1.264.095 3.217.407 4.341.694 1.124.288 2.758.877 3.63 1.31.873.434 1.278.73.9.66-.377-.072-2.57-.247-4.874-.39-2.378-.149-5.343-.17-6.86-.05-2.456.196-2.76.282-3.74 1.057-.586.465-1.6 1.439-2.253 2.165-.656.73-1.443 1.993-1.758 2.823-.505 1.33-.553 1.836-.416 4.4.085 1.595.335 3.907.554 5.139.22 1.232.601 2.892.848 3.689.246.797 1.706 3.947 3.243 7 1.56 3.097 2.942 6.205 3.127 7.032.27 1.212.255 3.277-.088 11.314-.23 5.407-.595 11.728-.811 14.046-.216 2.319-.615 5.297-.887 6.619-.27 1.321-.73 2.94-1.021 3.596-.382.863-.846 1.378-1.675 1.86-.63.366-1.857.846-2.727 1.067-.87.22-2.809.526-4.31.678-1.5.153-3.406.277-4.234.277-1.12 0-1.872.186-2.937.725-1.37.693-1.429.767-1.399 1.73.024.733.362 1.485 1.244 2.767.667.968 1.965 2.626 2.884 3.684.92 1.057 2.079 2.173 2.577 2.48.498.306 2.505 1.252 4.46 2.103 1.954.85 4.682 1.908 6.06 2.35 2.123.683 2.83.792 4.633.718 1.799-.075 2.299-.202 3.232-.82.943-.624 1.33-1.2 2.656-3.952.854-1.772 3-6.6 4.767-10.73a2667.105 2667.105 0 0 0 8.152-19.368c2.716-6.521 7.06-17.048 9.656-23.393 4.624-11.307 4.731-11.533 5.377-11.38.362.085 1.666.218 2.898.295 1.482.092 2.866.007 4.089-.253 1.017-.215 2.795-.757 3.952-1.204 1.157-.447 3.013-1.345 4.124-1.996 1.11-.652 2.725-1.837 3.586-2.634.861-.798 2.183-2.343 2.937-3.434.755-1.091 1.951-3.199 2.66-4.683.708-1.484 1.635-3.766 2.06-5.07.426-1.305 1.11-3.854 1.52-5.665.68-3 .746-3.73.73-8.169-.012-3.453-.14-5.434-.441-6.795-.233-1.056-.943-3.012-1.577-4.347-.633-1.335-1.957-3.732-2.94-5.326a125.756 125.756 0 0 0-3.556-5.402c-.973-1.377-1.861-2.66-1.974-2.851-.113-.192.726.234 1.864.947a711.77 711.77 0 0 0 4.573 2.83c1.376.843 3.502 2.373 4.723 3.4 1.222 1.026 3.348 2.993 4.727 4.37 1.378 1.376 3.214 3.392 4.08 4.479.92 1.154 2.205 3.277 3.093 5.103.835 1.72 1.897 4.329 2.36 5.797.463 1.469.878 2.806.923 2.973.718.197.632.182 1.237.371.6.187 2.703.568 4.506 1.004 1.804.435 4.7 1.278 6.457 1.898 1.758.62 4.19 1.501 5.484 2.049 1.294.547 2.648.989 3.06 1.367.413.378 1.63 2.244 2.682 3.548 1.053 1.305 2.537 3.321 3.297 4.48.76 1.159 2.25 3.886 3.31 6.06 1.06 2.173 2.358 5.12 2.885 6.55.527 1.429 1.372 4.097 1.877 5.928.505 1.832 1.143 4.636 1.418 6.23.276 1.596.643 4.5.817 6.456.195 2.186.253 5.282.152 8.036-.09 2.463-.346 6.013-.568 7.888a98.607 98.607 0 0 1-1.047 6.59 97.406 97.406 0 0 1-1.6 6.473c-.526 1.81-1.493 4.654-2.15 6.32-.655 1.667-1.944 4.512-2.863 6.324-.92 1.812-2.521 4.598-3.56 6.192-1.037 1.594-2.668 3.906-3.622 5.138-.955 1.232-3.223 3.766-5.04 5.63-1.819 1.866-4.492 4.363-5.941 5.55-1.45 1.187-3.643 2.872-4.875 3.745-1.232.873-3.34 2.263-4.687 3.089-1.346.825-3.895 2.259-5.665 3.186s-4.878 2.392-6.907 3.255-5.052 2.047-6.719 2.632a203.427 203.427 0 0 1-6.06 1.998c-1.667.515-4.987 1.412-7.378 1.993-2.391.582-5.948 1.348-7.905 1.703-1.956.355-4.98.768-6.719.917-1.739.15-4.585.32-6.324.38zM-8.11 68.18a.1.1 0 0 1-.1-.1c0-.054.208-.262.461-.46.418-.329.427-.32.1.099-.2.253-.407.46-.461.46z" style="fill:none;stroke:#df241a;stroke-width:1.09656;stroke-miterlimit:4;stroke-dasharray:none;stroke-opacity:1" transform="translate(21.504 -7.193) scale(.48058)"/><path d="M89.94 280.686c-6.31.258-12.965-.164-18.971-.932-2.319-.298-5.757-.84-7.641-1.205-1.884-.364-5.323-1.134-7.642-1.712-2.318-.577-6.646-1.863-9.617-2.856-2.971-.994-6.995-2.48-8.941-3.303-1.947-.823-5.504-2.478-7.905-3.678-2.401-1.2-5.551-2.868-7-3.705a181.494 181.494 0 0 1-5.138-3.106 150.999 150.999 0 0 1-5.492-3.706c-1.643-1.168-4.517-3.348-6.387-4.846-1.87-1.498-4.734-3.945-6.366-5.438-1.632-1.492-4.433-4.233-6.225-6.09-1.793-1.858-4.413-4.763-5.822-6.456a183.434 183.434 0 0 1-4.53-5.689 178.308 178.308 0 0 1-3.691-5.113 143.278 143.278 0 0 1-3.593-5.578 183.2 183.2 0 0 1-3.838-6.719c-1.083-2.004-2.796-5.483-3.807-7.729a165.37 165.37 0 0 1-3.411-8.3c-.865-2.319-2.117-6.054-2.781-8.3-.665-2.246-1.443-5.033-1.73-6.192-.288-1.16-.819-3.59-1.18-5.402a172.37 172.37 0 0 1-1.188-6.85c-.292-1.957-.686-4.98-.876-6.72-.222-2.031-.346-6.647-.346-12.91 0-6.264.124-10.88.346-12.912.19-1.74.584-4.763.875-6.72.292-1.956.878-5.276 1.303-7.377a140.537 140.537 0 0 1 1.701-7.246c.51-1.884 1.47-5.085 2.134-7.114.664-2.03 1.86-5.35 2.66-7.378a156.705 156.705 0 0 1 3.15-7.328c.935-2 2.45-5.029 3.366-6.729.917-1.7 2.347-4.212 3.178-5.583a192.11 192.11 0 0 1 3.206-5.068c.932-1.415 2.737-3.971 4.011-5.68a185.117 185.117 0 0 1 5.047-6.384c1.5-1.804 4.987-5.537 7.746-8.296 2.76-2.76 6.494-6.246 8.299-7.749 1.805-1.502 4.591-3.705 6.192-4.896 1.6-1.19 4.63-3.29 6.731-4.667 2.101-1.377 5.12-3.25 6.707-4.162 1.587-.912 5.263-2.811 8.168-4.22 2.905-1.41 6.942-3.215 8.971-4.012 2.03-.798 5.562-2.055 7.85-2.794 2.289-.74 6.32-1.878 8.959-2.531 2.639-.653 6.873-1.537 9.409-1.963 2.536-.427 6.39-.973 8.563-1.214 2.205-.244 7.24-.5 11.384-.576 4.602-.086 9.066-.019 11.725.176 2.362.173 6.054.547 8.205.832 2.15.284 5.47.805 7.379 1.158 1.908.352 5.425 1.13 7.815 1.728 2.39.598 6.6 1.84 9.353 2.759 2.754.919 6.666 2.356 8.695 3.193 2.03.836 5.883 2.612 8.564 3.945 2.681 1.333 6.594 3.46 8.695 4.727 2.102 1.267 4.869 3.008 6.15 3.868 1.28.861 3.948 2.786 5.928 4.278 1.98 1.492 4.964 3.88 6.63 5.306 1.667 1.426 4.931 4.494 7.254 6.817 2.323 2.323 5.391 5.587 6.818 7.253 1.427 1.667 3.93 4.81 5.561 6.983 1.632 2.174 3.858 5.321 4.947 6.995 1.089 1.673 2.9 4.637 4.025 6.587 1.126 1.95 3.082 5.68 4.347 8.288 1.265 2.609 2.981 6.462 3.813 8.564.831 2.101 2.079 5.54 2.771 7.64a154.252 154.252 0 0 1 2.197 7.379c.516 1.956 1.352 5.632 1.859 8.168.506 2.536 1.158 6.508 1.448 8.827.29 2.319.65 5.81.8 7.76.15 1.95.272 6.164.272 9.367 0 3.203-.122 7.418-.271 9.367-.15 1.95-.508 5.442-.796 7.76-.29 2.319-.941 6.291-1.45 8.827-.508 2.536-1.346 6.212-1.862 8.169a154.252 154.252 0 0 1-2.197 7.377 174.43 174.43 0 0 1-2.762 7.642c-.827 2.101-2.727 6.31-4.223 9.354-1.495 3.043-3.862 7.43-5.26 9.75-1.397 2.318-3.622 5.756-4.943 7.64-1.322 1.884-3.733 5.086-5.357 7.115a166.173 166.173 0 0 1-6.104 7.114c-1.732 1.884-4.564 4.75-6.294 6.37-1.729 1.62-4.448 4.03-6.042 5.358a181.68 181.68 0 0 1-5.854 4.634c-1.625 1.221-4.649 3.328-6.719 4.682-2.07 1.354-5.009 3.176-6.53 4.05-1.522.872-4.587 2.497-6.812 3.61a159.58 159.58 0 0 1-8.169 3.745c-2.267.948-6.375 2.473-9.129 3.391-2.753.918-7.14 2.199-9.75 2.846-2.608.648-6.461 1.488-8.563 1.867-2.101.38-5.836.934-8.3 1.233-3.518.426-6.458.563-13.701.635zm-2.212-7.292c3.421.026 7.75-.07 9.618-.215 1.869-.145 4.465-.39 5.77-.546 1.304-.155 4.125-.574 6.269-.93 2.143-.356 5.422-1 7.286-1.43 1.863-.43 4.797-1.192 6.519-1.693a166.6 166.6 0 0 0 6.679-2.141c1.951-.677 5.208-1.94 7.237-2.806 2.029-.865 5.557-2.518 7.84-3.673 2.283-1.154 6.013-3.223 8.288-4.597 2.275-1.374 5.565-3.518 7.31-4.764a171.58 171.58 0 0 0 6.303-4.774c1.72-1.38 4.448-3.715 6.06-5.19a151.37 151.37 0 0 0 5.831-5.702 147.879 147.879 0 0 0 5.429-6.037c1.392-1.658 3.42-4.2 4.506-5.65 1.086-1.45 2.848-3.94 3.914-5.533a161.205 161.205 0 0 0 3.743-5.93c.992-1.666 2.739-4.876 3.881-7.132a149.582 149.582 0 0 0 3.827-8.3c.962-2.309 2.438-6.272 3.282-8.808.843-2.537 2.017-6.568 2.608-8.96.59-2.39 1.368-5.954 1.727-7.919.36-1.965.903-5.7 1.208-8.3.34-2.893.615-7.285.71-11.315.096-4.124.035-8.214-.164-10.935-.174-2.392-.55-6.186-.834-8.432a137.437 137.437 0 0 0-1.31-8.037 159.386 159.386 0 0 0-1.726-7.51c-.514-1.956-1.57-5.454-2.348-7.772-.778-2.32-2.095-5.876-2.928-7.905-.833-2.03-2.59-5.826-3.902-8.438-1.314-2.612-3.337-6.325-4.496-8.251-1.16-1.927-3.689-5.716-5.62-8.421-1.933-2.705-4.649-6.263-6.035-7.907-1.387-1.643-4.014-4.537-5.839-6.431-1.824-1.894-4.563-4.518-6.086-5.832-1.523-1.314-3.066-2.678-3.428-3.031-.362-.353-2.26-1.846-4.216-3.318a214.849 214.849 0 0 0-6.902-4.951c-1.84-1.25-4.657-3.053-6.262-4.006-1.605-.952-4.796-2.672-7.092-3.822-2.296-1.15-5.763-2.761-7.703-3.581-1.94-.82-5.8-2.251-8.577-3.18-2.777-.93-7.223-2.218-9.881-2.863-2.658-.646-6.611-1.467-8.785-1.825-2.174-.358-5.02-.778-6.324-.934-1.304-.155-3.9-.4-5.769-.545-1.869-.145-5.906-.263-8.972-.263s-7.169.122-9.118.271c-1.95.15-4.967.448-6.706.663-1.74.216-4.82.698-6.847 1.073-2.026.375-5.565 1.145-7.863 1.711-2.298.566-5.857 1.576-7.909 2.244a165.259 165.259 0 0 0-7.288 2.601 152.842 152.842 0 0 0-7.28 3.113c-2.049.95-5.357 2.633-7.353 3.739a162.764 162.764 0 0 0-6.747 3.986 147.397 147.397 0 0 0-5.56 3.72c-1.341.96-3.566 2.633-4.942 3.72a160.03 160.03 0 0 0-5.27 4.4c-1.522 1.334-4.607 4.307-6.856 6.606-2.25 2.3-5.075 5.366-6.28 6.815a171.284 171.284 0 0 0-4.362 5.533 152.998 152.998 0 0 0-4.02 5.666 148.588 148.588 0 0 0-3.559 5.665 178.202 178.202 0 0 0-3.32 5.928c-.883 1.667-2.342 4.69-3.241 6.72-.9 2.028-2.255 5.351-3.014 7.383-.758 2.033-1.806 5.096-2.33 6.808a159.273 159.273 0 0 0-1.876 6.845 145.771 145.771 0 0 0-1.584 7.364 155.61 155.61 0 0 0-1.053 6.72 164.553 164.553 0 0 0-.66 6.484c-.147 1.869-.268 6.15-.268 9.513 0 3.364.12 7.645.268 9.514.148 1.868.452 4.88.678 6.691.225 1.812.763 5.132 1.194 7.378a160.823 160.823 0 0 0 1.823 8.105c.571 2.212 1.579 5.64 2.24 7.617.66 1.978 1.744 4.971 2.407 6.65.663 1.68 1.996 4.774 2.962 6.876.967 2.101 2.747 5.599 3.957 7.773 1.21 2.174 3.32 5.662 4.687 7.753 1.368 2.09 3.385 4.995 4.482 6.455a177 177 0 0 0 4.518 5.686c1.388 1.666 4.068 4.618 5.955 6.559 1.887 1.94 4.648 4.632 6.135 5.98a149.43 149.43 0 0 0 5.797 4.923 152.314 152.314 0 0 0 5.991 4.519 154.092 154.092 0 0 0 6.193 4.093 133.155 133.155 0 0 0 6.455 3.727c1.74.924 4.822 2.466 6.85 3.426 2.03.961 5.41 2.405 7.51 3.209a164.02 164.02 0 0 0 7.642 2.665c2.101.662 5.777 1.676 8.168 2.252 2.391.577 6.086 1.346 8.21 1.71 2.125.365 5.623.841 7.773 1.06 2.151.217 4.504.436 5.228.486.725.049 4.117.11 7.537.137z" style="fill:none;stroke:#df241a;stroke-width:1.09656;stroke-miterlimit:4;stroke-dasharray:none;stroke-opacity:1" transform="translate(21.504 -7.193) scale(.48058)"/></svg>
