<svg xmlns="http://www.w3.org/2000/svg" viewBox="0 0 128 128"><path d="M249.082.035c-3.69-.055-7.824-.047-12.021.031-7.56.14-16.742.606-20.762 1.051-3.965.44-10.994 1.435-15.62 2.213-4.625.778-12.347 2.391-17.16 3.582-4.812 1.191-12.165 3.268-16.34 4.615-4.173 1.348-10.617 3.641-14.318 5.096-3.7 1.455-11.062 4.748-16.361 7.318-5.299 2.57-12.003 6.034-14.898 7.698-2.896 1.663-8.4 5.079-12.233 7.59-3.833 2.51-9.357 6.342-12.277 8.513-2.92 2.171-8.001 6.19-11.293 8.93-3.292 2.74-10.104 9.1-15.137 14.133-5.033 5.032-11.39 11.841-14.129 15.13-2.738 3.29-6.88 8.53-9.203 11.645-2.324 3.116-5.615 7.777-7.316 10.36a350.441 350.441 0 0 0-5.848 9.242c-1.515 2.5-4.122 7.083-5.795 10.183-1.672 3.1-4.435 8.624-6.139 12.274-1.704 3.65-4.29 9.664-5.748 13.365-1.457 3.7-3.639 9.755-4.85 13.455-1.21 3.7-2.962 9.54-3.892 12.977-.93 3.436-2.326 9.382-3.101 13.214-.776 3.833-1.846 9.89-2.377 13.457-.532 3.569-1.25 9.082-1.596 12.254-.405 3.705-.63 12.125-.63 23.55 0 11.423.225 19.843.63 23.548.347 3.172 1.066 8.688 1.598 12.256.532 3.568 1.506 9.19 2.166 12.494.659 3.304 1.626 7.737 2.15 9.852.524 2.114 1.945 7.198 3.156 11.294 1.212 4.097 3.494 10.91 5.073 15.14 1.578 4.228 4.378 11.039 6.222 15.136 1.844 4.097 4.97 10.441 6.944 14.098 1.974 3.656 5.122 9.172 6.998 12.255 1.875 3.084 4.826 7.661 6.554 10.172a325.189 325.189 0 0 0 6.73 9.326c1.974 2.619 5.693 7.287 8.264 10.375 2.572 3.089 7.35 8.388 10.62 11.776 3.268 3.387 8.377 8.387 11.353 11.11 2.976 2.722 8.202 7.183 11.611 9.915 3.41 2.732 8.651 6.71 11.649 8.84 2.997 2.13 7.504 5.171 10.015 6.76a331.05 331.05 0 0 0 9.372 5.664c2.643 1.527 8.388 4.566 12.767 6.756 4.38 2.19 10.867 5.208 14.418 6.709 3.55 1.5 10.89 4.213 16.309 6.025 5.418 1.813 13.312 4.156 17.54 5.21 4.23 1.052 10.502 2.458 13.938 3.122 3.436.664 9.707 1.653 13.936 2.197 10.953 1.402 23.092 2.17 34.601 1.7 13.212-.132 18.574-.38 24.99-1.159 4.494-.545 11.307-1.556 15.14-2.248 3.832-.691 10.86-2.223 15.618-3.404 4.758-1.18 12.76-3.517 17.782-5.191s12.516-4.457 16.652-6.184c4.136-1.727 10.838-4.802 14.896-6.832 4.059-2.03 9.65-4.994 12.426-6.586 2.776-1.592 8.135-4.915 11.91-7.385 3.776-2.47 9.29-6.313 12.254-8.54a332.525 332.525 0 0 0 10.678-8.452c2.908-2.42 7.866-6.817 11.02-9.771 3.153-2.954 8.32-8.183 11.48-11.62 3.16-3.436 8.17-9.274 11.133-12.974 2.963-3.7 7.359-9.54 9.77-12.977 2.41-3.436 6.468-9.708 9.017-13.937 2.549-4.23 6.864-12.23 9.592-17.781 2.727-5.551 6.193-13.228 7.7-17.06 1.509-3.834 3.777-10.104 5.04-13.936 1.263-3.833 3.067-9.89 4.008-13.458.94-3.568 2.47-10.272 3.396-14.898.927-4.626 2.116-11.87 2.643-16.1.526-4.229 1.179-10.597 1.451-14.152.272-3.555.494-11.244.494-17.086 0-5.841-.222-13.529-.494-17.084-.272-3.555-.93-9.923-1.459-14.152-.53-4.23-1.72-11.474-2.643-16.1-.923-4.625-2.447-11.33-3.388-14.898-.941-3.569-2.745-9.625-4.008-13.457-1.263-3.833-3.538-10.105-5.055-13.938-1.517-3.832-4.647-10.86-6.955-15.617-2.308-4.758-5.875-11.56-7.928-15.117-2.052-3.556-5.356-8.962-7.341-12.014-1.986-3.052-6.045-8.793-9.022-12.758-2.976-3.964-7.54-9.696-10.142-12.736-2.603-3.04-8.2-8.994-12.436-13.23-4.237-4.237-10.19-9.83-13.23-12.432-3.04-2.601-8.483-6.957-12.094-9.678-3.612-2.721-8.477-6.233-10.813-7.803-2.335-1.57-7.382-4.744-11.214-7.054-3.833-2.31-10.97-6.19-15.86-8.621-4.89-2.432-11.919-5.671-15.619-7.198-3.7-1.526-10.837-4.146-15.86-5.822-5.021-1.676-12.698-3.94-17.058-5.031-4.36-1.091-10.774-2.51-14.254-3.152-3.48-.643-9.537-1.595-13.459-2.114-3.922-.519-10.655-1.2-14.963-1.515-2.425-.178-5.674-.298-9.365-.354zm-7.287 13.36c5.592 0 12.957.214 16.365.478 3.409.264 8.143.713 10.522.996 2.379.284 7.57 1.05 11.535 1.703 3.965.654 11.174 2.15 16.021 3.326 4.848 1.177 12.96 3.528 18.024 5.223 5.064 1.695 12.103 4.306 15.642 5.8 3.54 1.496 9.861 4.435 14.05 6.532 4.187 2.097 10.008 5.234 12.935 6.97 1.398.83 3.484 2.232 5.457 3.491-.27-.07-.311-.102-.621-.18-.414-.103-3.474-.764-6.778-1.607-3.304-.843-8.603-1.977-11.775-2.523-4.245-.731-8.748-1.06-17.06-1.239-8.735-.188-12.873-.06-18.262.56-3.833.443-9.158 1.226-11.832 1.741-2.675.515-7.567 1.678-10.872 2.584-3.304.906-8.577 2.608-11.716 3.783-3.14 1.175-8.097 3.214-11.016 4.531-2.919 1.318-8.1 3.958-11.516 5.87-3.415 1.911-8.704 5.171-11.753 7.242-3.05 2.07-7.925 5.666-10.833 7.99-2.907 2.324-8.432 7.368-12.279 11.207-3.847 3.84-8.89 9.358-11.207 12.266-2.317 2.907-5.65 7.406-7.408 9.998-2.92 4.305-3.3 4.685-4.412 4.4-.67-.171-3.488-.83-6.264-1.463-2.775-.632-6.884-1.397-9.13-1.699-2.333-.314-6.257-.427-9.145-.264-3.047.173-6.392.697-8.41 1.319-1.843.568-4.113 1.42-5.045 1.894-.932.474-3.012 1.854-4.623 3.065-1.611 1.21-4.059 3.663-5.44 5.45-1.38 1.788-3.475 5.232-4.654 7.653-1.53 3.143-2.747 6.82-4.25 12.856-1.46 5.865-2.766 9.849-4.264 13.011-1.187 2.507-3.28 6.179-4.65 8.16-1.37 1.982-4.7 5.731-7.4 8.333-2.701 2.6-6.94 6.087-9.42 7.746-2.48 1.659-6.79 4.158-9.575 5.552-2.785 1.395-7.55 3.514-10.59 4.71-3.04 1.194-7.366 2.75-9.613 3.458-2.247.708-7.544 2.151-11.773 3.207-4.23 1.056-9.31 2.569-11.293 3.362-1.983.793-5.52 2.538-7.86 3.877-2.34 1.339-5.8 3.663-7.689 5.166-1.889 1.502-4.496 3.906-5.793 5.341-1.297 1.436-3.305 4.067-4.463 5.846-1.157 1.78-2.754 4.76-3.547 6.621-.792 1.862-2.182 6.095-3.09 9.407-.907 3.311-1.982 8.397-2.386 11.298-.405 2.902-.737 6.982-.737 9.069 0 2.086.233 5.46.516 7.498.283 2.038 1.055 5.57 1.713 7.845.658 2.277 2.126 6.084 3.262 8.463 1.156 2.422 4.978 8.451 8.683 13.698 3.64 5.154 6.767 9.536 6.95 9.74.181.203 1.248-5.094 2.37-11.774 1.184-7.043 2.628-13.904 3.438-16.336.768-2.305 2.055-5.496 2.86-7.09.804-1.593 1.541-2.896 1.64-2.896.099 0 .931 1.582 1.85 3.516 1.038 2.187 2.657 4.528 4.283 6.193 1.437 1.473 3.846 3.465 5.351 4.428 1.506.963 4.371 2.406 6.368 3.205 1.996.8 6.593 2.102 10.214 2.894 3.621.793 9.442 1.97 12.936 2.618 3.494.646 6.495 1.175 6.668 1.175.173 0 .06-.304-.25-.677-.414-.5-.42-.766-.022-1.012.337-.208-.082-.758-1.11-1.457-.91-.617-4.115-4.475-7.126-8.574-3.01-4.1-5.84-8.383-6.289-9.52-.448-1.137-.827-3.228-.842-4.648l-.025-2.582 1.082.793c.595.436 2.36 1.654 3.926 2.707 1.565 1.052 4.593 2.469 6.728 3.148 2.135.68 5.396 1.345 7.246 1.479 2.253.163 7.194-.247 14.953-1.24 6.374-.817 11.775-1.485 12.002-1.485.228 0-3.69-3.03-8.705-6.732-5.015-3.703-9.408-7.155-9.763-7.67-.426-.617-.542-1.562-.338-2.768.17-1.007.482-2.108.691-2.447.296-.48 1.17-.306 3.94.785 1.958.771 4.75 1.682 6.205 2.025 1.453.344 4.155.617 6.005.61 2.165-.01 4.45-.387 6.41-1.059 1.676-.574 4.434-1.92 6.13-2.99 1.695-1.07 4.054-3.058 5.242-4.416 1.188-1.358 2.892-3.88 3.785-5.604.893-1.723 2.113-4.647 2.71-6.498.599-1.85 1.575-4.337 2.17-5.527.596-1.19 1.486-2.507 1.977-2.93.491-.422 1.286-.907 1.766-1.078.672-.239.813-.118.617.528-.14.46-.472 1.81-.74 3s-.492 3.74-.498 5.668c-.007 1.927.328 5.15.744 7.164.416 2.013 1.396 5.27 2.178 7.238.781 1.968 3.806 8.258 6.722 13.98 3.949 7.746 5.477 11.263 5.985 13.768.394 1.946.686 6.231.691 10.162.005 3.738-.307 9.793-.693 13.455-.386 3.663-1.033 11.31-1.438 16.992-.404 5.683-.977 11.199-1.273 12.256-.296 1.057-.843 2.512-1.215 3.235-.372.722-1.268 1.613-1.99 1.978-.723.365-2.826.961-4.676 1.324-2.19.43-6.298.634-11.775.584-5.425-.048-13.542-.601-22.864-1.556-7.949-.815-14.925-1.48-15.506-1.48-.85 0 .511 1.844 7.002 9.49 4.433 5.22 9.886 11.395 12.118 13.722 2.232 2.327 6.202 6.004 8.824 8.17 2.622 2.166 6.712 5.282 9.09 6.922 2.377 1.64 6.192 3.94 8.476 5.113 2.285 1.173 6.26 2.916 8.834 3.873 2.575.958 6.36 2.158 8.41 2.668 2.051.51 4.79 1.264 6.088 1.676 1.298.411 3.723.748 5.389.748 1.88 0 4.032-.374 5.668-.986 1.45-.543 3.696-1.938 4.99-3.102 1.294-1.163 3.147-3.268 4.115-4.674.969-1.406 3.14-5.685 4.829-9.511a1033.8 1033.8 0 0 1 6.521-14.407c1.899-4.097 5.248-11.666 7.441-16.82 2.194-5.154 7.286-17.589 11.317-27.633 4.03-10.044 10.07-25.506 13.42-34.361l6.09-16.1 5.742-.289c4.407-.222 6.615-.587 9.502-1.57 2.068-.705 4.664-1.742 5.767-2.303 1.104-.56 3.236-1.853 4.739-2.87 1.502-1.02 4.216-3.133 6.03-4.698 1.815-1.566 4.575-4.377 6.132-6.246 1.557-1.87 3.886-4.97 5.175-6.889 1.29-1.92 3.326-5.495 4.526-7.945 1.2-2.45 3.007-6.992 4.017-10.092l1.838-5.637 6.16-2.05 6.16-2.05 6.489.227c4.33.152 8.474.642 12.459 1.47 3.284.684 8.666 2.12 11.96 3.192 3.295 1.072 7.637 2.812 9.65 3.87 2.011 1.056 4.738 2.694 6.06 3.638 1.321.944 3.555 2.707 4.965 3.918 1.409 1.21 3.713 3.608 5.119 5.326 1.406 1.718 3.522 5.07 4.703 7.45 1.18 2.378 2.726 5.794 3.435 7.591.71 1.797 1.918 5.69 2.684 8.65.766 2.962 1.723 7.655 2.125 10.43.403 2.776.982 8.183 1.287 12.016.33 4.144.432 10.474.254 15.62-.165 4.757-.515 10.595-.78 12.974a236.063 236.063 0 0 1-1.245 9.13c-.422 2.644-1.396 7.477-2.164 10.74-.769 3.264-1.963 7.806-2.653 10.093s-2.442 7.186-3.896 10.886c-1.454 3.7-4.173 9.748-6.041 13.438-1.868 3.69-4.852 8.879-6.631 11.533-1.78 2.654-4.957 6.88-7.059 9.39-2.102 2.512-5.317 5.976-7.144 7.7-1.828 1.723-5.156 4.563-7.397 6.31-2.24 1.747-6.884 5.065-10.32 7.373-3.436 2.309-8.786 5.7-11.889 7.538-3.102 1.837-9.372 5.144-13.935 7.35-4.563 2.204-11.217 5.094-14.785 6.421-3.569 1.327-9.515 3.283-13.215 4.346-3.7 1.063-9.865 2.573-13.697 3.357-3.833.784-10.213 1.82-14.178 2.299-5.571.674-10.756.876-22.826.883-9.796.006-17.77-.229-21.387-.627-3.172-.35-9.552-1.276-14.178-2.059-4.625-.782-11.978-2.286-16.34-3.342-4.361-1.055-13.767-3.638-20.904-5.738-7.137-2.1-22.275-6.936-33.64-10.748a8409.501 8409.501 0 0 1-39.89-13.508c-10.572-3.617-19.763-6.924-20.421-7.347l-.668-.43c-1.362-1.719-2.869-3.543-3.79-4.768-2-2.663-5.68-7.96-8.175-11.773-2.495-3.813-6.34-10.176-8.547-14.14-2.207-3.965-5.454-10.346-7.217-14.178-1.762-3.833-4.194-9.476-5.404-12.54-1.21-3.063-3.185-8.52-4.39-12.128-1.206-3.608-3.044-9.861-4.085-13.895-1.04-4.033-2.536-10.684-3.324-14.781-.787-4.097-1.769-10.153-2.18-13.457-.41-3.304-.965-8.797-1.234-12.205-.269-3.409-.49-11.217-.49-17.352s.22-13.943.488-17.351c.268-3.409.811-8.73 1.205-11.827.394-3.096 1.258-8.612 1.92-12.255.663-3.644 1.965-9.688 2.89-13.432.927-3.744 2.466-9.36 3.42-12.482.956-3.123 2.868-8.71 4.25-12.417 1.383-3.706 3.857-9.768 5.497-13.468 1.64-3.7 4.3-9.214 5.912-12.254a325.11 325.11 0 0 1 6.057-10.815 270.977 270.977 0 0 1 6.49-10.332c1.851-2.775 5.15-7.424 7.33-10.332 1.932-2.576 4.859-6.26 7.053-8.945.025.013.024.055.054.055.1 0 .477-.38.84-.842.54-.69.495-.695-.066-.262.022-.026.056-.073.078-.1 2.196-2.643 7.349-8.236 11.451-12.43 4.102-4.192 9.73-9.614 12.506-12.048 2.775-2.434 7.1-6.045 9.611-8.025a290.804 290.804 0 0 1 9.016-6.784c2.448-1.75 7.01-4.803 10.139-6.785 3.128-1.982 8.666-5.254 12.306-7.271 3.64-2.017 9.675-5.084 13.41-6.817 3.736-1.733 9.711-4.289 13.28-5.68 3.568-1.39 9.55-3.523 13.293-4.741 3.742-1.219 10.232-3.061 14.423-4.094 4.192-1.033 10.646-2.438 14.342-3.121 3.697-.684 9.317-1.565 12.489-1.957 3.171-.393 8.675-.937 12.23-1.21 3.555-.272 11.037-.493 16.629-.493zm78.67 36.328c.443 0 .702.021 1.135.023-.816-.004-1.609-.006-2.41-.006.406 0 .876-.018 1.275-.017zm9.23 3.529c-2.228.17-4.57.338-6.326.518-5.232.535-12.323 1.417-15.76 1.96-3.436.544-9.276 1.642-12.976 2.442-3.7.8-9.106 2.175-12.014 3.057-2.907.88-7.665 2.56-10.572 3.732 2.907-1.172 7.665-2.853 10.572-3.734 2.908-.882 8.313-2.255 12.014-3.055 3.7-.8 9.54-1.898 12.976-2.442 3.437-.543 10.465-1.426 15.62-1.962 1.759-.183 4.05-.355 6.466-.516zm28.457.746.07.018c3.52.912 6.745 1.85 7.167 2.086v.002c-.411-.23-3.684-1.178-7.237-2.106zm25.393 8.844c2.083 1.614 4.61 3.548 5.043 3.97l.031.028-8.777.174c-4.838.095-11.977.508-15.865.918-3.889.409-9.534 1.172-12.547 1.695-3.014.523-8.124 1.618-11.358 2.432-3.233.813-5.97 1.387-6.082 1.275-.111-.112 1.801-1.136 4.25-2.277 2.45-1.142 6.601-2.8 9.229-3.686 2.627-.886 6.844-2.046 9.37-2.578 3.141-.66 8.004-1.115 15.366-1.432 5.765-.248 10.959-.419 11.34-.52zm-129.592 3.47c-.168.115-.307.2-.476.317-.82.468-2.85 1.75-4.971 3.074 1.681-1.07 3.39-2.167 4.976-3.119.146-.087.323-.183.471-.272zm135.793 1.526c.248.225.772.679 1.12.988-.069-.06-.147-.116-.212-.174l-.908-.814zM243.256 79.01a251.323 251.323 0 0 0-6.143 3.666 211.445 211.445 0 0 1 0-.002 251.787 251.787 0 0 1 6.143-3.664zm140.875 4.646c-2.995.044-5.668.158-7.799.336 2.136-.179 4.805-.292 7.799-.336zm-21.014 1.88c-3.568.538-9.624 1.623-13.457 2.413-3.832.79-9.13 1.975-11.773 2.633-2.643.658-8.16 2.188-12.256 3.402 4.097-1.214 9.613-2.746 12.256-3.404 2.643-.658 7.94-1.841 11.773-2.63 3.833-.79 9.889-1.876 13.457-2.415zm-134.707.667-.246.229c.076-.07.116-.114.191-.182l.055-.047zm83.045 12.492c-3.7 1.377-9.552 3.794-13.002 5.373 3.45-1.579 9.302-3.996 13.002-5.373zm113.098 6.323c1.037 1.398 2.13 2.832 3.043 4.109 1.924 2.693 4.087 5.872 6.076 8.87a3.658 3.658 0 0 0-.84-.2c-.413-.047-4.26-.855-8.574-1.768-4.315-.912-7.98-1.735-8.115-1.87-.136-.137 1.704-2.254 4.09-4.704l4.32-4.437zm-131.721 1.78c-1.873.955-3.594 1.878-4.71 2.536-.214.126-.308.187-.524.314.248-.147.244-.151.523-.316 1.117-.658 2.838-1.579 4.711-2.533zm-9.592 3.884c-.039.038-.09.081-.129.119l.032-.04c.009-.011.086-.066.097-.08zm-1.908 2.84-.074.05.006-.04c.014.008.042-.003.068-.01zm-115.97 5.224c-1.453.08-2.565.21-3.544.438.98-.228 2.091-.358 3.543-.438zm4.044.057c1.47.097 2.993.267 4.365.498 2.509.422 8.982 1.307 14.385 1.965 5.403.658 9.87 1.147 9.926 1.088v.001c-.056.06-4.523-.43-9.926-1.087-5.403-.658-11.876-1.543-14.385-1.965a44.627 44.627 0 0 0-4.365-.5zm-8.982.8c-.45.17-.892.37-1.352.606-.67.344-1.588.987-2.525 1.748.937-.761 1.854-1.406 2.525-1.75.46-.236.903-.435 1.352-.603zm-9.102 8.13zm18.34 5c.144.004.22.43.34 1.119.177 1.017.565 8.102.863 15.742.298 7.64.37 14.057.16 14.261-.21.205-5.442 2.443-11.627 4.973-6.184 2.53-11.332 4.6-11.441 4.6-.109 0-.064-.218.1-.483.163-.265 1.647-2.27 3.297-4.457 1.65-2.187 4.275-6.025 5.833-8.529 1.559-2.504 4.196-7.58 5.86-11.281 1.664-3.7 3.838-8.966 4.83-11.701 1.12-3.086 1.545-4.252 1.785-4.245zm115.15 12.341c1.775 2.511 4.694 6.944 6.487 9.852-1.793-2.908-4.712-7.34-6.486-9.852zm-2.16 20.444c.2 1.21.38 3.076.51 5.146-.13-2.07-.31-3.937-.51-5.146zm17.239 9.15c.298 2.358.434 5.57.45 10.293-.016-4.722-.152-7.935-.45-10.293zm-172.559 5.934v.002c-.909.981-2.134 2.19-3.375 3.35-1.241 1.157-2.5 2.265-3.475 3.04-.974.776-2.46 1.773-4.072 2.758 1.612-.985 3.098-1.984 4.072-2.76.975-.775 2.234-1.88 3.475-3.039 1.241-1.158 2.466-2.37 3.375-3.351zm155.52 7.244c-.298 1.982-1.056 5.68-1.686 8.22.63-2.54 1.388-6.238 1.686-8.22zm-171.26 4.58c-2.941 1.437-8.266 3.57-11.834 4.736 3.568-1.167 8.893-3.299 11.834-4.736zm217.654 1.937c.006.02.105.055.133.078-.061-.017-.05-.016-.12-.035l-.013-.043zM68.828 206.066c-3.353.977-6.13 1.82-7.517 2.29a85.494 85.494 0 0 0-4.668 1.761c-1.597.653-3.105 1.318-4.14 1.838a34.95 34.95 0 0 1 0-.002c1.035-.52 2.543-1.183 4.14-1.836a85.593 85.593 0 0 1 4.668-1.763c1.387-.47 4.164-1.31 7.517-2.288zm299.371 1.506c.014.011.032.017.045.028.02.016.038.038.057.054l-.102-.082zm-178.5 1.211c2.24.016 4.676.094 6.844.229 4.2.261 8.202.581 8.89.71.172.033.254.023.258-.02h.002c-.002.044-.086.055-.26.023-.688-.13-4.69-.45-8.89-.711-4.336-.27-9.744-.31-12.512-.09 1.384-.11 3.428-.157 5.668-.14zm-10.088.707c-.922.26-1.507.654-2.4 1.362-.535.423-1.265 1.079-2.01 1.794.745-.715 1.475-1.373 2.01-1.796.893-.708 1.478-1.1 2.4-1.36zm-107.539 7.783c.25-.148.283 1.238.08 3.301-.192 1.956-.386 3.588-.43 3.63-.043.04-3.54.417-7.769.839s-8.77.886-10.092 1.031l-2.402.264 2.162-1.02c1.19-.56 5.73-2.54 10.092-4.402 4.361-1.862 8.123-3.502 8.36-3.643zm76.282 3.73c-2.062 2.796-5.317 6.947-7.32 9.335 2.003-2.388 5.258-6.539 7.32-9.334zm321.734 12.491c.066 2.296.09 4.643.086 7.252-.007-2.366-.04-4.831-.086-7.252zM85.494 248.137zm-54.476 2.185c-.387 1.897-.632 3.44-.76 4.94.128-1.5.373-3.043.76-4.94zm-.76 4.942c-.128 1.499-.14 2.953-.063 4.67-.078-1.716-.065-3.172.063-4.67zM61.484 265.3zm1.082 2.533zm1.618 2.3c.547.62 1.362 1.336 2.277 2.022-.914-.685-1.73-1.403-2.277-2.021zm78.662 4.231c-.404-.003-.894.033-1.535.086-2.187.181-2.943.499-4.274 1.79-.926.897-1.869 2.462-2.205 3.663-.345 1.232-.454 2.985-.266 4.244.177 1.18.802 2.864 1.39 3.743.586.878 1.818 1.975 2.737 2.437.92.462 2.182.842 2.803.842.62 0 1.867-.35 2.772-.78.904-.428 2.072-1.38 2.593-2.113.522-.732 1.19-2.38 1.485-3.664.405-1.76.394-2.86-.043-4.478-.364-1.346-1.28-2.845-2.46-4.024-1.36-1.361-1.787-1.735-2.997-1.746zm-67.198 2.364c1.62.54 3.272.986 3.67.986-.4 0-2.045-.444-3.67-.986zm65.854.025c.993 0 1.793.438 2.648 1.455.674.8 1.368 2.227 1.545 3.17.177.943.08 2.523-.216 3.512-.297.988-.918 2.132-1.383 2.54-.465.409-1.278.857-1.807.997-.529.14-1.285.137-1.682-.006-.396-.143-1.1-.59-1.564-.994-.464-.404-1.074-1.59-1.356-2.635-.28-1.045-.371-2.727-.2-3.738.17-1.011.825-2.393 1.452-3.07.73-.788 1.654-1.231 2.563-1.231zm255.59 13.904c-.004.649.017 1.25 0 1.922a109.65 109.65 0 0 1-.342 6.047c.13-2.003.262-4.066.324-5.773.026-.715.003-1.463.018-2.196zm-276.344 1.955c-.614 0-2.135.347-3.38.772-1.965.669-2.222.907-1.948 1.8.174.567.357 1.082.408 1.143.05.062.782-.085 1.623-.326l1.53-.44v13.872h2.881v-16.82h-1.115zM102 299.34c-.757 0-2.058.327-2.89.724-.834.398-2.057 1.516-2.717 2.487-.987 1.45-1.197 2.329-1.184 4.924.01 2.073.307 3.703.863 4.742.467.87 1.54 2.005 2.387 2.521.849.518 2.4.938 3.46.938 1.062 0 2.613-.42 3.462-.938.846-.516 1.917-1.65 2.379-2.521.518-.977.848-2.688.863-4.467.017-2.013-.273-3.45-.96-4.762-.55-1.046-1.717-2.27-2.636-2.763-.907-.487-2.27-.885-3.027-.885zm-20.23.48c-1.341 0-2.605.377-3.64 1.082-.87.595-1.984 1.835-2.474 2.756-.532 1.001-.885 2.645-.879 4.086.006 1.329.425 3.321.934 4.442.533 1.173 1.594 2.442 2.512 3.002.874.533 2.314.97 3.199.97.885.001 2.31-.33 3.166-.736.889-.422 2.036-1.592 2.676-2.73.801-1.427 1.119-2.754 1.117-4.669-.002-1.528-.337-3.32-.783-4.18-.43-.827-1.455-2.07-2.278-2.763-1.103-.928-2.035-1.26-3.55-1.26zm-.274 2.405c.91 0 1.745.462 2.54 1.406.65.774 1.318 2.128 1.484 3.008.165.88.09 2.335-.168 3.234-.258.9-.945 2.141-1.526 2.76-.58.618-1.506 1.118-2.055 1.111-.548-.008-1.375-.236-1.837-.506-.463-.27-1.166-1.116-1.563-1.883-.396-.766-.72-2.47-.72-3.785 0-1.87.27-2.71 1.244-3.867.848-1.008 1.677-1.478 2.601-1.478zm19.922.074c.247-.021.51-.016.795.012 1.2.115 1.883.574 2.738 1.835.936 1.382 1.104 2.134.938 4.21-.144 1.795-.529 2.873-1.328 3.724-.753.8-1.645 1.197-2.69 1.197-1.111 0-1.848-.36-2.547-1.25-.54-.687-1.12-1.984-1.289-2.882-.168-.899-.171-2.358-.006-3.24.166-.884.816-2.087 1.444-2.676.61-.574 1.205-.867 1.945-.93zm.705 18.537c-.965 0-2.437.404-3.271.896-.835.493-1.946 1.78-2.47 2.86-.556 1.15-.95 2.954-.95 4.353 0 1.523.393 3.17 1.082 4.535.692 1.374 1.686 2.455 2.763 3.01a6.02 6.02 0 0 0 3.563.637c1.034-.127 2.417-.633 3.074-1.123s1.595-1.638 2.084-2.55c.573-1.07.89-2.653.89-4.45 0-1.846-.327-3.429-.966-4.682-.539-1.056-1.647-2.245-2.506-2.69-.847-.437-2.328-.796-3.293-.796zm-20.016.244a8.801 8.801 0 0 0-1.076.05c-1.687.175-2.477.584-3.695 1.913-.852.93-1.796 2.608-2.098 3.728-.301 1.121-.406 2.815-.23 3.764.175.95.662 2.454 1.082 3.344.42.89 1.43 2.025 2.244 2.521.882.538 2.376.904 3.697.905 1.55 0 2.618-.312 3.545-1.041.73-.574 1.727-1.926 2.217-3.004s.895-2.954.9-4.168c.007-1.387-.395-2.974-1.082-4.274-.634-1.199-1.795-2.454-2.763-2.988-.898-.495-1.732-.73-2.74-.75zm-21.296.367c-1.925 0-2.648.26-3.99 1.44-.902.791-1.907 2.087-2.235 2.879-.348.84-.517 2.7-.404 4.468.14 2.194.506 3.469 1.328 4.623.624.877 1.806 1.897 2.627 2.268.831.376 2.324.58 3.373.463 1.034-.116 2.417-.613 3.074-1.104.657-.49 1.595-1.638 2.084-2.55.545-1.017.89-2.645.89-4.205 0-1.4-.295-3.25-.656-4.114-.36-.863-1.35-2.154-2.199-2.869-1.217-1.024-2.04-1.299-3.892-1.299zm-19.682.131c-.556.002-1.648.216-2.807.567-2.545.77-2.788.959-2.588 2.01.198 1.031.401 1.126 1.846.855l1.623-.305v13.082h2.982l-.167-7.89c-.094-4.34-.331-8.05-.528-8.247-.049-.049-.176-.072-.361-.072zm60.99 1.791c.768 0 1.767.482 2.4 1.156.597.636 1.26 1.933 1.475 2.883.214.95.21 2.54-.014 3.531-.222.992-.968 2.289-1.658 2.883-.69.595-1.512 1.067-1.828 1.051-.316-.017-1.05-.221-1.63-.455-.582-.234-1.391-1.076-1.802-1.87-.41-.793-.746-2.517-.746-3.831 0-1.87.271-2.712 1.245-3.87.83-.987 1.68-1.478 2.558-1.478zm-20.234.23c.384-.008.762.098 1.23.311.67.305 1.577 1.31 2.016 2.236.543 1.144.726 2.438.572 4.036-.15 1.572-.595 2.744-1.34 3.537-.682.726-1.646 1.185-2.492 1.185-.811 0-1.85-.471-2.521-1.142-.697-.697-1.27-1.997-1.471-3.34-.25-1.672-.116-2.638.562-4.026.491-1.004 1.469-2.099 2.174-2.433.494-.234.885-.355 1.27-.363zm-21.23.25c.596 0 1.677.512 2.404 1.137 1.138.98 1.35 1.577 1.523 4.309.192 3.012.129 3.242-1.258 4.629-.803.803-1.895 1.46-2.43 1.46-.534 0-1.552-.498-2.261-1.109-.998-.858-1.344-1.67-1.528-3.58-.13-1.357-.099-3.013.069-3.681.167-.668.774-1.654 1.35-2.19.575-.536 1.534-.974 2.13-.974zm140.927 1.495c-1.893 3.575-3.587 6.656-4.625 8.38 1.038-1.724 2.732-4.805 4.625-8.38zm-24.611 11.164c-.488.542-1.078.996-1.834 1.435-1.15.668-3.389 1.545-4.975 1.948-1.586.402-5.122.958-7.86 1.236 2.738-.278 6.274-.834 7.86-1.236 1.586-.403 3.825-1.28 4.975-1.948.755-.439 1.346-.894 1.834-1.435zm-22.39 5.125c-1.022 0-1.877.083-2.718.29.841-.207 1.696-.29 2.717-.29zm36.794.742c-.995 1.309-2.689 3.31-3.764 4.443 1.075-1.134 2.77-3.134 3.764-4.443zm-109.096.023c-1.482-.032-2.57.264-3.482.946-.73.545-1.76 1.568-2.287 2.275-.621.832-1.032 2.296-1.166 4.149-.163 2.252.015 3.323.834 5.015.753 1.557 1.598 2.434 3.058 3.174 1.39.704 2.54.944 3.69.772.919-.139 2.216-.658 2.883-1.155.667-.497 1.628-1.613 2.134-2.478.618-1.056.92-2.48.92-4.33 0-1.814-.325-3.39-.953-4.598-.525-1.011-1.521-2.261-2.215-2.78-.778-.58-2.086-.96-3.416-.99zm-18.96.196c-.482 0-1.887.344-3.124.765-1.236.422-2.248.945-2.248 1.162 0 .218.124.72.276 1.114.21.546.609.62 1.681.312l1.407-.404v5.936c0 3.263.13 6.275.29 6.693.161.418.811.762 1.444.762h1.148v-8.17c0-7.584-.062-8.17-.875-8.17zm85.904.36c-1.25.632-1.9.982-2.233 1.394.333-.412.984-.762 2.233-1.395zm-107.135.118-1.322.008c-.727.004-1.808.138-2.403.297-.594.16-1.082.48-1.082.713 0 .233.433.858.961 1.387.529.528.961 1.173.961 1.431 0 .259.587 1.664 1.303 3.123.715 1.459 1.364 2.651 1.441 2.653.077 0 .14-2.162.14-4.805v-4.807zm163.883.483c-3.225 7.533-7.137 16.34-8.694 19.572 1.557-3.232 5.469-12.04 8.694-19.572zm-123.91 1.441c.746 0 1.777.42 2.29.934.514.513 1.182 1.764 1.487 2.78.412 1.377.418 2.362.017 3.849-.3 1.115-1.092 2.433-1.793 2.984-.69.543-1.547.986-1.904.986-.356 0-1.353-.63-2.217-1.402-1.467-1.311-1.57-1.604-1.57-4.525 0-2.646.18-3.316 1.166-4.366.72-.765 1.685-1.24 2.524-1.24zm79.279 4.106c1.182.235 3.079.46 5.318.646-2.24-.185-4.136-.411-5.318-.646zm12.693 1.05c3.664.107 5.89.14 7.356.067-1.466.073-3.692.04-7.356-.067zM60.717 362.85c-1.063.02-1.755.293-2.77.976-.925.624-2.061 1.885-2.523 2.805-.462.92-.84 2.725-.84 4.012 0 1.925.31 2.775 1.762 4.806.97 1.357 2.091 2.736 2.494 3.067.402.33 1.647.601 2.765.601 1.51 0 2.433-.335 3.579-1.299.849-.714 1.838-2.006 2.199-2.869.36-.863.656-2.663.656-4.002 0-1.338-.296-3.13-.658-3.98-.363-.85-1.222-2.065-1.908-2.697-.838-.773-2.002-1.22-3.545-1.364a10.874 10.874 0 0 0-1.211-.056zm.183 2.548c.4-.035.823-.012 1.168.075.692.173 1.668.99 2.17 1.814.562.921.915 2.387.916 3.805.001 1.268-.314 2.918-.7 3.666-.388.748-1.055 1.494-1.483 1.658-.428.164-1.281.299-1.897.299-.66 0-1.63-.607-2.363-1.479-.684-.813-1.277-2.057-1.316-2.763-.04-.707-.024-1.934.037-2.727.06-.793.417-1.92.793-2.506.376-.585 1.111-1.294 1.634-1.574.262-.14.641-.232 1.041-.268zm47.276 52.245c.49.282.934.54 1.44.83-.179-.101-.473-.252-.64-.348-.227-.13-.558-.34-.8-.482zm181.715 8.671c-.088.03-.217.08-.303.108-.083.027-.206.06-.291.088l.594-.196z" style="fill:#df241a" transform="scale(.26458)"/></svg>
