<svg xmlns="http://www.w3.org/2000/svg" viewBox="0 0 128 128"><path fill-rule="evenodd" clip-rule="evenodd" fill="#0081C2" d="M109.629 24.573c-4.109-2.039-8.184-4.111-12.34-6.064-8.096-3.804-15.935-8.12-24.076-11.843-2.642-1.208-5.193-2.604-7.773-3.943-.863-.448-1.644-.451-2.519-.004-3.361 1.717-6.773 3.33-10.171 4.97-8.057 3.889-16.109 8.078-24.204 11.9C25.027 21.25 22 23.025 18 24.713V77.98c1 .035.443.035.546.085 2.554 1.258 5.191 2.491 7.723 3.793 2.583 1.329 5.255 2.539 7.875 3.788 8.129 3.875 16.164 7.987 24.229 11.998 1.559.776 3.175 1.459 4.706 2.285.777.419 1.374.381 2.163.004 2.409-1.148 4.83-2.289 7.225-3.458 9.292-4.537 18.458-9.263 27.804-13.693C103.525 81.239 106 79.564 110 77.9V24.657l-.371-.084zM97.648 73.802c-1.935 2.021-4.201 3.551-6.69 4.776-.623.306-1.262.669-1.93.774-1.027.16-1.384.971-1.862 1.644-.818 1.153-2.786 2.32-4.15 2.338-.376.005-.755-.025-1.129.005-1.477.119-2.819-.246-4.145-.912-1.816-.912-3.786-1.064-5.808-1.009-1.064.03-1.995.275-2.887.788-1.186.682-1.823 2.242-1.567 3.526.063.314-.243.702-.446 1.231-.44-.371-.92-.579-.939-.823-.134-1.636-.232-3.336.924-4.676 1.583-1.835 3.644-2.845 6.079-3.02.625-.044 1.256.01 1.883-.01 1.518-.048 2.953.235 4.431.645 1.225.339 2.668.41 3.902-.38.433-1.626-.426-2.804-1.614-3.568-1.253-.807-2.513-1.659-4.059-2.015-1.104-.253-2.077-1.031-3.16-1.438-1.086-.406-2.172-.847-3.257-1.241-1.036-.377-2.215-.361-3.142-1.039-1.721.081-3.39-.688-5.114-.367-2.25.419-4.521.787-6.656 1.653-1.611.654-3.242 1.26-4.788 2.083-.915.487-1.96.723-2.903 1.166-.739.347-1.459.776-2.101 1.28-1.104.867-1.842 1.948-1.495 3.479 1.361.634 2.732.717 4.189.228 1.576-.53 3.241-.418 4.882-.518 2.08-.125 3.9.525 5.574 1.569 1.591.992 2.684 2.416 2.624 4.451-.013.439.065.893-.022 1.313-.077.372-.326.708-.586 1.239-.522-.543-1.365-.672-.596-1.496-.492-.905-.204-2.154-1.191-2.83-.874-.597-1.727-1.265-2.892-1.204-.688.036-1.385.061-2.069-.004-1.617-.15-3.072.396-4.442 1.103-1.892.978-3.895.763-5.887.791-1.124-.633-2.466-.924-3.309-1.992-.427-.541-.612-1.509-1.12-1.692-.663-.239-1.269-.694-1.924-.798-1.656-.263-2.816-1.425-4.188-2.167-1.155-.625-2.079-1.695-3.062-2.615-1.076-1.008-1.632-2.272-1.88-3.741-.369-2.178.479-4.201 1.648-5.433 1.539-1.621 3.455-2.458 5.521-3.22-.505-1.002-.895-2.125-1.577-3.026-.654-.863-.719-1.878-.983-2.797-.299-1.044-.274-2.29-.011-3.355.257-1.042.899-2.031 1.542-2.92.581-.803 1.368-1.467 2.117-2.133.239-.213.646-.237.952-.34.412.574.284.966-.122 1.379-.422.431-.772.932-1.158 1.398-1.09 1.322-.746 2.9-.73 4.395.011.961.583 1.762 1.134 2.535 1.056 1.481 2.135 2.875 3.934 3.611.964.394 1.872.729 2.915.696.932-.03 1.865-.006 3.256-.006-.816-.365-1.228-.543-1.635-.733-2.861-1.331-4.351-3.593-4.353-6.604-.001-1.067.106-2.148-.032-3.196-.12-.908.405-1.631.431-2.483.022-.767-.353-1.624.354-2.293-.192-1.458.358-2.954-.291-4.398-.342-.761-.057-1.609-.398-2.469-.656-1.656-1.127-3.268-3.271-3.469-.229-.021-.425-.398-.627-.6.374-.811.756-.973 1.606-.704 2.172.686 3.472 2.152 4.517 4.087 1.122 2.078 1.499 4.291 1.911 6.567.415 2.287.182 4.552.338 6.819.052.756.257 1.514.488 2.24.224.706.815 1.125 1.54 1.195 1.049.103 1.858.03 2.858-.937v-1.912c-1-.39-.911-1.368-2.029-1.331-.424.014-.639-.615-.624-1.185.045-1.63.125-3.272-.018-4.892-.155-1.748.243-3.442.502-5.103.229-1.468.396-3.013.995-4.458.554-1.34.659-2.863 1.196-4.212.988-2.484 2.099-4.912 3.484-7.225.791-1.321 1.849-2.454 2.516-3.845.051-.105.115-.208.192-.296.974-1.104 1.896-2.261 2.941-3.293 1.26-1.242 2.625-2.377 3.997-3.606 1.435 1.274 2.93 2.378 4.15 3.729 3.314 3.668 6.225 7.658 8.099 12.26.873 2.143 1.702 4.326 2.143 6.656.397 2.103.81 4.192 1.159 6.306.451 2.735.087 5.437.305 8.141.043.536-.486 1.047-.771 1.024-1.124-.086-1.237.928-2.237 1.329v1.932c1 .723 1.661.981 2.639.95 1.179-.038 1.867-.672 2.188-1.892a11.61 11.61 0 00.355-3.995c-.168-1.929.227-3.812.49-5.674a16.806 16.806 0 012.208-6.228c.767-1.286 3.054-3.045 4.397-3.312.591-.117 1.09.087 1.308.903-.225.174-.478.539-.765.567-1.898.186-2.462 1.664-3.025 3.093-.306.773-.235 1.699-.465 2.451-.396 1.292-.279 2.55-.284 3.819-.002.764.216 1.529.356 2.291.129.701-.309 1.475.339 2.131.158.16.033.602.033.914.001 1.192-.024 2.386.006 3.577.074 2.987-1.998 6.306-5.616 7.212 2.249.191 4.437.372 6.557-.928 2.065-1.267 3.169-3.209 4.327-5.167.028-2.252.336-4.59-1.757-6.232-.454-.356-.583-.764-.436-1.496.389.055.8-.013.956.155 1.152 1.241 2.675 2.181 3.224 3.927.155.495.631.96.611 1.423-.052 1.217.2 2.42-.171 3.673-.283.958-.583 1.899-1.009 2.789-.403.842-.939 1.62-1.446 2.475.71.346 1.389.796 2.135 1.017 1.591.47 2.682 1.573 3.779 2.702 1.092 1.125 1.227 2.632 1.647 4.026-.584 1.517-.714 3.205-1.933 4.477zm-58.602-6.295c-.622.055-1.256-.028-1.88.017-1.012.072-1.952.437-2.781.993-.835.56-.897 1.079-.502 2.047.392.962.977 1.759 1.719 2.495 1.324 1.313 2.704 2.535 4.33 3.447.579-3.218 2.38-5.551 5.124-7.266-.479-.235-.855-.396-1.207-.597-1.49-.855-3.069-1.291-4.803-1.136zm55.063 1.127c-.461-.41-2.231-1.103-2.923-1.115-.877-.016-1.761.056-2.633-.018-1.312-.111-2.443.403-3.588.892-.533.228-1.036.526-1.664.849 2.738 1.711 4.539 4.044 5.129 7.328.721-.517 1.47-.966 2.114-1.534a57.01 57.01 0 003.368-3.209c.343-.355.486-.917.679-1.401.274-.689.1-1.275-.482-1.792zM58.458 50.566c-.853.024-1.104.381-1.062 1.511.032.861.4 1.19 1.26 1.126.699-.052 1.451-.827 1.376-1.417-.076-.612-.887-1.239-1.574-1.22zm11.471 0c-.807-.038-1.65.681-1.609 1.371.037.623.816 1.269 1.528 1.266.827-.004 1.1-.317 1.108-1.277.009-1.003-.233-1.323-1.027-1.36z"/><path d="M26.053 114.115h.048c.292-.413.681-.947 1.021-1.337l3.476-4.06h2.553l-4.546 4.838 5.178 6.929h-2.601l-4.036-5.665-1.094 1.24v4.425h-2.139v-17.261h2.139v10.891zm9.7-1.726c0-1.386-.024-2.577-.097-3.671h1.872l.097 2.31h.073c.535-1.58 1.848-2.577 3.282-2.577.219 0 .389.024.583.073v1.993c-.243-.024-.462-.048-.753-.048-1.507 0-2.577 1.143-2.869 2.723a6.68 6.68 0 00-.073 1.021v6.272h-2.139l.024-8.096zm16.07 5.276c0 1.021.049 2.018.17 2.82h-1.92l-.195-1.483h-.072c-.632.924-1.921 1.75-3.599 1.75-2.382 0-3.598-1.677-3.598-3.379 0-2.844 2.528-4.4 7.074-4.376v-.242c0-.973-.267-2.748-2.674-2.724-1.118 0-2.261.316-3.087.875l-.486-1.434c.972-.608 2.407-1.021 3.89-1.021 3.623 0 4.498 2.455 4.498 4.814v4.4zm-2.091-3.185c-2.334-.049-4.984.364-4.984 2.649 0 1.41.924 2.043 1.994 2.043 1.556 0 2.553-.973 2.893-1.97.073-.219.097-.462.097-.681v-2.041zm7.659-.365h.049c.292-.413.681-.947 1.021-1.337l3.477-4.06h2.552l-4.546 4.838 5.178 6.929h-2.601l-4.036-5.665-1.094 1.24v4.425h-2.139v-17.261h2.139v10.891zm10.648.851c.049 2.893 1.872 4.084 4.011 4.084 1.531 0 2.479-.268 3.257-.583l.389 1.507c-.753.34-2.066.754-3.938.754-3.598 0-5.786-2.407-5.786-5.932 0-3.574 2.115-6.37 5.543-6.37 3.841 0 4.838 3.38 4.838 5.543 0 .438-.024.778-.073 1.021l-8.241-.024zm6.248-1.531c.024-1.337-.56-3.477-2.942-3.477-2.188 0-3.112 1.994-3.282 3.477h6.224zm4.716-1.532c0-1.239-.024-2.212-.097-3.185h1.896l.121 1.921h.049c.583-1.094 1.945-2.188 3.89-2.188 1.629 0 4.157.973 4.157 5.008v7.026H86.88v-6.783c0-1.896-.706-3.5-2.723-3.5-1.386 0-2.479.997-2.869 2.188-.097.268-.146.656-.146.997v7.099h-2.139v-8.583z"/><path fill="#0081C2" d="M89.604 123.937c.997-.073 1.823-.341 2.334-.9.583-.656.826-1.604.826-4.424v-9.895h2.14v10.721c0 2.286-.365 3.769-1.41 4.838-.948.948-2.504 1.337-3.646 1.337l-.244-1.677zm4.181-17.383c-.802 0-1.337-.632-1.337-1.385s.559-1.361 1.386-1.361 1.361.608 1.361 1.361-.51 1.385-1.386 1.385h-.024zm4.327 11.767c.656.389 1.774.827 2.844.827 1.532 0 2.261-.753 2.261-1.75 0-1.021-.607-1.58-2.164-2.163-2.139-.778-3.136-1.921-3.136-3.331 0-1.896 1.556-3.452 4.06-3.452 1.191 0 2.237.316 2.869.729l-.51 1.531c-.462-.267-1.313-.681-2.407-.681-1.264 0-1.945.729-1.945 1.604 0 .997.681 1.435 2.212 2.018 2.018.753 3.088 1.775 3.088 3.549 0 2.091-1.629 3.549-4.376 3.549-1.289 0-2.48-.34-3.307-.826l.511-1.604z"/></svg>