<svg xmlns="http://www.w3.org/2000/svg" viewBox="0 0 128 128"><path fill="#346ddb" fill-rule="evenodd" d="M21.041 49.951a3.315 3.315 0 0 0-1.514.384L2.067 59.55a3.881 3.881 0 0 0-1.923 2.38 3.87 3.87 0 0 0-.145 1.047v1.051a4.998 4.998 0 0 0 .745 2.62 4.988 4.988 0 0 0 2.01 1.836l10.85 5.426a3.624 3.624 0 0 0 .394 2.256 3.602 3.602 0 0 0 6.6-.646 3.572 3.572 0 0 0 .149-1.383 3.59 3.59 0 0 0-.04-.306l13.329-7.035a3.622 3.622 0 0 0 1.453.856 3.573 3.573 0 0 0 1.416.136 3.591 3.591 0 0 0 3.23-3.58 3.653 3.653 0 0 0-.162-1.07 3.572 3.572 0 0 0-.892-1.474 3.619 3.619 0 0 0-1.474-.892 3.569 3.569 0 0 0-1.438-.143 3.592 3.592 0 0 0-3.216 3.9c.009.106.023.21.041.313l-13.322 7.03a3.62 3.62 0 0 0-1.458-.864 3.572 3.572 0 0 0-1.425-.137 3.589 3.589 0 0 0-2.195 1.058L3.899 66.581a3.052 3.052 0 0 1-1.685-2.727 2.077 2.077 0 0 1 .065-.514 1.972 1.972 0 0 1 .634-1.01 2.043 2.043 0 0 1 1.317-.488 1.959 1.959 0 0 1 .736.145l10.668 5.334a3.324 3.324 0 0 0 3.036-.034l16.991-8.967a.845.845 0 0 0 .335-.322.824.824 0 0 0 .108-.422.847.847 0 0 0-.117-.42.807.807 0 0 0-.342-.313L22.563 50.3a3.325 3.325 0 0 0-1.522-.35zm15.496 12.874a1.387 1.387 0 0 1 1.148.61 1.38 1.38 0 0 1-.374 1.922 1.38 1.38 0 0 1-1.922-.374 1.382 1.382 0 0 1 .61-2.05 1.374 1.374 0 0 1 .538-.108zM17.162 73.067a1.387 1.387 0 0 1 1.148.61 1.38 1.38 0 0 1-.374 1.922 1.381 1.381 0 0 1-2.13-.87 1.39 1.39 0 0 1 .817-1.553 1.374 1.374 0 0 1 .539-.109z M68.244 58.634a1.463 1.463 0 1 1-2.927 0 1.463 1.463 0 0 1 2.927 0zM65.561 61.073v10.732H68V61.073zM71.414 68.757c0 2.039.92 3.047 3.07 3.047h1.808v-2.082h-1.277c-.855 0-1.162-.33-1.162-1.206v-5.492h2.44v-1.951h-2.44v-3.415h-2.439v3.415h-1.95v1.95h1.95zM78.244 56.195v15.61h5.832c3.705 0 5.657-1.894 5.657-4.503 0-2.236-1.28-3.073-3.318-3.424 1.82-.395 2.77-1.698 2.77-3.561 0-2.521-1.93-4.122-5.307-4.122zm2.521 2.105h3.18c1.753 0 2.718.964 2.718 2.324 0 1.38-.987 2.4-2.719 2.4h-3.179zm0 6.676h3.333c1.95 0 3.048.682 3.048 2.195 0 1.556-1.031 2.507-3.048 2.507h-3.333zM97.024 71.805c3.498 0 5.854-2.346 5.854-5.854 0-3.485-2.356-5.853-5.854-5.853s-5.854 2.368-5.854 5.853c0 3.508 2.356 5.854 5.854 5.854zm0-2.055c-2.04 0-3.364-1.587-3.364-3.799 0-2.212 1.323-3.798 3.364-3.798 2.04 0 3.387 1.586 3.387 3.798 0 2.212-1.346 3.799-3.387 3.799zM110.2 71.805c3.498 0 5.854-2.346 5.854-5.854 0-3.485-2.356-5.853-5.854-5.853-3.5 0-5.854 2.368-5.854 5.853 0 3.508 2.355 5.854 5.854 5.854zm0-2.055c-2.04 0-3.364-1.587-3.364-3.799 0-2.212 1.323-3.798 3.364-3.798s3.387 1.586 3.387 3.798c0 2.212-1.346 3.799-3.387 3.799zM121.75 66.697l-1.873 2.105v3.003h-2.368v-15.61h2.368v9.735l5.38-5.832h2.74l-4.559 4.867 4.559 6.84h-2.806zM56.72 71.805c-4.297 0-7.257-3.135-7.257-7.805s2.894-7.805 7.455-7.805c3.376 0 5.782 1.902 6.463 4.878h-2.554c-.61-1.669-2.026-2.663-3.975-2.663-2.916 0-4.802 2.302-4.802 5.59 0 3.289 1.842 5.59 4.78 5.59 2.367 0 4.275-1.337 4.407-3.814v-.8H56.78v-1.952h6.83v8.781H61.74l-.263-2.324c-.746 1.096-2.325 2.324-4.758 2.324z"/></svg>
