<svg data-name="Layer 1" xmlns="http://www.w3.org/2000/svg" viewBox="0 0 128 128"><g fill="#8a4182"><path d="M67.17 42.93H60.5l-1.79-2.31V22.46h10.15v18.16l-1.69 2.31zM58.16 44.62l-2.06 6.34-2.76.99-17.26-5.6 3.13-9.65 17.27 5.61 1.68 2.31zM56.97 53.54l5.4 3.92.09 2.93-10.67 14.68-8.21-5.96 10.67-14.69 2.72-.88zM65.24 57.49l5.4-3.91 2.81.81 10.67 14.69-8.21 5.96-10.67-14.69v-2.86zM71.65 51.07l-2.06-6.34 1.64-2.42L88.5 36.7l3.13 9.65-17.26 5.6-2.72-.88z"/><path d="M64 6.74a44.17 44.17 0 1044.17 44.17A44.17 44.17 0 0064 6.74zm-.24 78.69A34.93 34.93 0 1198.69 50.5a34.93 34.93 0 01-34.93 34.93z"/><path d="M62.29 64.31h2.76v13.77h-2.76zM77.29 55.807l.853-2.624 13.096 4.255-.853 2.625zM73.708 38.948l-2.233-1.623 8.094-11.14 2.233 1.623zM56.481 37.323l-2.232 1.622-8.094-11.14 2.233-1.623zM49.458 53.177l.853 2.625-13.096 4.255-.853-2.625zM5.07 114.65a2.56 2.56 0 002.4 2.74 2.28 2.28 0 002.06-1.2 6 6 0 00.43-2.77v-11H7.57v-3.56h9v3.51h-2.42v11.57c0 2-.12 3.51-1.51 5.11a7 7 0 01-5.14 2.22c-3.94 0-7-2.62-6.8-6.62h4.37M30.49 112.52a4.94 4.94 0 00-5-4.89 5 5 0 00-5 5.08 5 5 0 004.89 4.89 5 5 0 005.11-5.08zm-.06 6.09a6.08 6.08 0 01-5.29 2.65 8.51 8.51 0 01-8.43-8.55 8.69 8.69 0 018.61-8.71 5.9 5.9 0 015.11 2.77v-2.37h5.88v3.51h-2.06v9.42h2.06v3.51h-5.88v-2.22M41.26 116.06a2.51 2.51 0 002.65 2.46 2.14 2.14 0 002.25-2c0-1.63-1.54-1.91-2.8-2.25-2.86-.74-6-1.63-6-5.23 0-3.14 2.65-5 5.57-5a4.38 4.38 0 013.72 1.48v-1.12h2.77v4.46h-3.63a2 2 0 00-2.12-1.94 1.89 1.89 0 00-2.09 1.72c0 1.54 1.51 1.88 2.71 2.15 3 .68 6.12 1.6 6.12 5.29 0 3.32-2.8 5.17-5.88 5.17a5.35 5.35 0 01-4.25-1.78v1.35h-2.86v-4.77h3.85M53.54 107.91h-2.12v-3.51H57v2.46a5.45 5.45 0 014.69-2.86 5.59 5.59 0 015.11 3.45 5.9 5.9 0 015.39-3.45 6.34 6.34 0 014.74 2.09c1.29 1.51 1.29 3.14 1.29 5v6.22h2.12v3.51h-8v-3.51h2.12V112a6.13 6.13 0 00-.49-3 3.22 3.22 0 00-2.68-1.35 3.64 3.64 0 00-2.77 1.23 4.43 4.43 0 00-.77 3.11v5.29h2.12v3.51h-8v-3.51H64v-5a6.5 6.5 0 00-.49-3.08 3 3 0 00-2.71-1.51 3.21 3.21 0 00-2.62 1.2 4.8 4.8 0 00-.89 3.35v5.08h2.12v3.51h-8v-3.51h2.12v-9.42M87.45 102.83H83.7v-4h3.75zm0 14.49h2.12v3.51h-8v-3.51h2.13v-9.42h-2.13v-3.5h5.88v12.92M92.84 107.91h-2.13v-3.51h5.88v2.34a5.32 5.32 0 014.86-2.71 6.51 6.51 0 014.74 2c1.35 1.51 1.38 3 1.38 4.83v6.43h2.12v3.51h-8v-3.51h2.12V112a4.76 4.76 0 00-.65-3 3.59 3.59 0 00-2.89-1.32 3.69 3.69 0 00-3 1.38 5.79 5.79 0 00-.71 3.45v4.77h2.12v3.51h-8v-3.51h2.12v-9.42M123.82 111.14a5.25 5.25 0 00-5.17-3.88 5.09 5.09 0 00-4.8 3.88zm2.86 4.86a8.43 8.43 0 01-7.75 5.26 8.68 8.68 0 01-.09-17.36 8.8 8.8 0 016.15 2.65 8.58 8.58 0 012.31 6.15l-.12 1.32h-13.3a5.07 5.07 0 004.92 3.94 4.57 4.57 0 004-2h3.91"/></g></svg>