<svg xmlns="http://www.w3.org/2000/svg" fill="none" viewBox="0 0 128 128"><path fill="#0e1017" d="M73.598 24.622a1.605 1.605 0 0 0-1.606 1.01l-18.72 45.045a1.61 1.61 0 0 0 .884 2.173c.232.082.477.115.722.097h22.027c.67.015 1.28-.387 1.529-1.01l9.653-22.941a1.61 1.61 0 0 1 1.52-1.02h28.411a1.605 1.605 0 0 0 1.606-1.009l8.23-20.037a1.605 1.605 0 0 0-.904-2.173 1.61 1.61 0 0 0-.625-.135zm-63.535.01a1.605 1.605 0 0 0-1.606 1.01L.14 45.679a1.61 1.61 0 0 0 .904 2.163c.197.084.409.125.625.125h25.326a1.605 1.605 0 0 1 1.48 2.25L7.352 101.08a1.61 1.61 0 0 0 .913 2.173c.197.083.408.125.625.125h55.42a1.61 1.61 0 0 0 1.615-1.03l8.384-20.229a1.61 1.61 0 0 0-.98-2.105 1.6 1.6 0 0 0-.626-.135h-28.7a1.605 1.605 0 0 1-1.615-1.606 1.77 1.77 0 0 1 .106-.76L63.877 26.93a1.605 1.605 0 0 0-.884-2.173 1.772 1.772 0 0 0-.645-.125z"/></svg>
