<svg xmlns="http://www.w3.org/2000/svg" viewBox="0 0 128 128"><path fill="#0e1017" d="M19.527 53.553a.426.426 0 0 0-.426.268l-4.967 11.95a.427.427 0 0 0 .235.577.471.471 0 0 0 .191.026h5.844a.426.426 0 0 0 .406-.268l2.56-6.087a.427.427 0 0 1 .404-.27h7.538a.426.426 0 0 0 .426-.268l2.183-5.316a.426.426 0 0 0-.24-.576.427.427 0 0 0-.165-.036zm-16.856.003a.426.426 0 0 0-.426.268L.038 59.139a.427.427 0 0 0 .24.574.422.422 0 0 0 .166.034h6.719a.426.426 0 0 1 .393.596L1.952 73.837a.427.427 0 0 0 .242.577.422.422 0 0 0 .166.033h14.703a.427.427 0 0 0 .428-.273l2.225-5.367a.427.427 0 0 0-.26-.559.424.424 0 0 0-.166-.035h-7.615a.426.426 0 0 1-.428-.426.47.47 0 0 1 .028-.202l5.673-13.42a.426.426 0 0 0-.235-.576.47.47 0 0 0-.17-.033zm39.517 2.61a.392.392 0 0 0-.392.392v3.247a.392.392 0 0 0 .392.393h4.332a.392.392 0 0 1 .393.39v10.839a.392.392 0 0 0 .392.39h3.972a.392.392 0 0 0 .393-.39V60.588a.392.392 0 0 1 .39-.39h4.34a.392.392 0 0 0 .39-.393v-3.247a.392.392 0 0 0-.39-.393zm17.448 0a.392.392 0 0 0-.393.392v14.869a.392.392 0 0 0 .393.39h11.68a.392.392 0 0 0 .39-.39v-3.112a.393.393 0 0 0-.39-.39h-7.285a.157.157 0 0 1-.155-.159v-1.982a.16.16 0 0 1 .155-.158H68.1a.392.392 0 0 0 .39-.39V62.16a.392.392 0 0 0-.39-.393H64.03a.157.157 0 0 1-.155-.156v-1.39a.157.157 0 0 1 .155-.153h7.12a.392.392 0 0 0 .392-.393v-3.117a.392.392 0 0 0-.392-.393zm15.07 0a.392.392 0 0 0-.39.392v14.887a.392.392 0 0 0 .39.393h3.38a.392.392 0 0 0 .393-.393l-.12-8.048c-.012-.216.08-.242.194-.061l5.734 8.185a.849.849 0 0 0 .62.316h2.75a.392.392 0 0 0 .39-.392V56.558a.392.392 0 0 0-.39-.393H84.28a.392.392 0 0 0-.393.393l.117 7.538c.008.215-.074.242-.191.058l-5.438-7.675a.884.884 0 0 0-.628-.314Zm17.058 0a.392.392 0 0 0-.39.392v3.005a.392.392 0 0 0 .39.39h2.742l3.47-.043c.215 0 .273.121.124.278l-2.288 2.55c-.141.161-.372.43-.513.598l-4.122 4.918a1.267 1.267 0 0 0-.252.69v2.483a.392.392 0 0 0 .392.39h12.375a.392.392 0 0 0 .39-.39v-3.003a.392.392 0 0 0-.39-.39h-3.23l-3.451.041c-.216 0-.27-.121-.125-.278l2.288-2.55c.144-.161.372-.426.513-.59l4.114-4.923a1.267 1.267 0 0 0 .25-.694v-2.482a.392.392 0 0 0-.393-.393zm15.642 0a.392.392 0 0 0-.393.392v14.876a.392.392 0 0 0 .393.39h3.971a.392.392 0 0 0 .393-.39V56.558a.392.392 0 0 0-.393-.393zm7.698 0a.392.392 0 0 0-.393.392v14.854a.392.392 0 0 0 .393.39h3.487a.392.392 0 0 0 .39-.39v-4.704a.201.201 0 0 1 .197-.194h1.341a.353.353 0 0 1 .281.176l.694 1.444 1.594 3.3a.683.683 0 0 0 .566.352h4.072a.214.214 0 0 0 .232-.079.214.214 0 0 0 .005-.244l-2.35-4.518-.487-.929a1.602 1.602 0 0 1-.069-.137.059.059 0 0 1 0-.059s.059-.071.125-.138c0 0 .352-.368.783-.92a5.282 5.282 0 0 0 1.214-3.383 5.193 5.193 0 0 0-4.438-5.17 10.965 10.965 0 0 0-.525-.044zm3.91 3.558h2.352c1.309 0 1.822.683 1.822 1.655.011 1.105-.526 1.724-1.885 1.724h-2.289a.157.157 0 0 1-.153-.153v-3.073a.157.157 0 0 1 .153-.153z"/></svg>
