<svg xmlns="http://www.w3.org/2000/svg" xmlns:xlink="http://www.w3.org/1999/xlink" viewBox="0 0 128 128" width="128" height="128"><defs><path d="M54.74 128L32.9 115.32V40.55L0 59.56l.08-28.32L54.74 0v128zM59.65 0v128l21.84-12.68V79.31l16.49 9.53-.1-24.63-16.39-9.36v-14.3l32.89 19.01-.08-28.32L59.65 0z" id="a"/><path d="M54.74 128L32.9 115.32V40.55L0 59.56l.08-28.32L54.74 0v128zM59.65 0v128l21.84-12.68V79.31l16.49 9.53-.1-24.63-16.39-9.36v-14.3l32.89 19.01-.08-28.32L59.65 0z" id="b"/></defs><use xlink:href="#a" fill-opacity="0"/><use xlink:href="#a" fill-opacity="0" stroke="#000"/><g><use xlink:href="#b" fill-opacity="0"/><use xlink:href="#b" fill-opacity="0" stroke="#000"/></g></svg>