<?xml version="1.0" encoding="UTF-8" standalone="no"?>
<svg xmlns:sketch="http://www.bohemiancoding.com/sketch/ns" xmlns="http://www.w3.org/2000/svg" height="128px" width="128px" version="1.1" xmlns:xlink="http://www.w3.org/1999/xlink" viewBox="0 0 128 128"><!-- Generator: Sketch 3.3.3 (12072) - http://www.bohemiancoding.com/sketch -->
 <title>Bootflat-Logo-Coloured</title>
 <desc>Created with Sketch.</desc>
 <g id="Page-1" fill-rule="evenodd" sketch:type="MSPage" fill="none">
  <g id="Bootflat-Logo-Coloured" fill="#50C1E9" sketch:type="MSArtboardGroup">
   <path transform="translate(63.711 63.711) rotate(45) translate(-63.711 -63.711)" d="m13.711 30.703c0-9.385 7.619-16.992 16.992-16.992h66.016c9.381 0 16.991 7.619 16.991 16.992v66.016c0 9.381-7.62 16.991-16.991 16.991h-66.016c-9.385 0-16.992-7.62-16.992-16.991v-66.016zm29.197 0.889c0-2.619 2.129-4.743 4.744-4.743 2.621 0 4.745 2.128 4.745 4.743v64.968c0 2.619-2.13 4.74-4.745 4.74-2.62 0-4.744-2.126-4.744-4.74v-64.968zm20.438 0c0-2.619 2.129-4.743 4.744-4.743 2.621 0 4.745 2.128 4.745 4.743v64.968c0 2.619-2.13 4.74-4.745 4.74-2.62 0-4.744-2.126-4.744-4.74v-64.968zm19.235 1.416c0-3.023 2.457-5.474 5.474-5.474 3.023 0 5.474 2.457 5.474 5.474 0 3.024-2.457 5.475-5.474 5.475-3.023 0-5.474-2.458-5.474-5.475zm0.516 62.195c0-2.822 2.293-5.109 5.109-5.109 2.822 0 5.11 2.293 5.11 5.109 0 2.822-2.294 5.107-5.11 5.107-2.822 0-5.109-2.291-5.109-5.107z" sketch:type="MSShapeGroup"/>
  </g>
 </g>
</svg>
