<?xml version="1.0" encoding="UTF-8" standalone="no"?>
<svg
   width="128"
   height="128"
   viewBox="0 0 128 128"
   version="1.1"
   id="svg2"
   sodipodi:docname="Gherkin.svg"
   inkscape:version="1.3.2 (091e20e, 2023-11-25, custom)"
   xmlns:inkscape="http://www.inkscape.org/namespaces/inkscape"
   xmlns:sodipodi="http://sodipodi.sourceforge.net/DTD/sodipodi-0.dtd"
   xmlns="http://www.w3.org/2000/svg"
   xmlns:svg="http://www.w3.org/2000/svg"
   xmlns:rdf="http://www.w3.org/1999/02/22-rdf-syntax-ns#"
   xmlns:cc="http://creativecommons.org/ns#"
   xmlns:dc="http://purl.org/dc/elements/1.1/">
  <defs
     id="defs2" />
  <sodipodi:namedview
     id="namedview2"
     pagecolor="#ffffff"
     bordercolor="#111111"
     borderopacity="1"
     inkscape:showpageshadow="0"
     inkscape:pageopacity="0"
     inkscape:pagecheckerboard="1"
     inkscape:deskcolor="#d1d1d1"
     inkscape:zoom="4.2592135"
     inkscape:cx="48.9527"
     inkscape:cy="53.413617"
     inkscape:window-width="1920"
     inkscape:window-height="1009"
     inkscape:window-x="-8"
     inkscape:window-y="-8"
     inkscape:window-maximized="1"
     inkscape:current-layer="svg2" />
  <title
     id="title1">file_type_cucumber</title>
  <path
     d="M 64.588509,4.9708628e-5 A 56.447978,56.447978 0 0 0 53.845656,111.84001 V 128 C 87.541643,122.90743 117.38848,96.082298 119.60106,60.873169 A 58.514263,58.514263 0 0 0 92.629641,7.5383325 C 91.610213,6.9349042 90.577071,6.3406187 89.511928,5.8149046 88.446786,5.2891905 87.313072,4.758905 86.179358,4.3063338 85.818215,4.1554767 85.466215,4.0183339 85.105073,3.8766196 84.117645,3.5109055 83.116502,3.0994771 82.097074,2.7977629 A 55.71655,55.71655 0 0 0 64.588509,4.9708628e-5 Z"
     style="fill:#00a818;stroke-width:4.57143"
     id="path1" />
  <path
     d="m 76.250219,20.859471 a 6.148569,6.148569 0 0 0 -5.385141,2.157713 25.110847,25.110847 0 0 0 -2.367999,4.114284 13.257138,13.257138 0 0 0 1.723428,13.819423 15.163423,15.163423 0 0 0 10.980567,-8.950853 10.916567,10.916567 0 0 0 1.083428,-4.571427 6.4502832,6.4502832 0 0 0 -6.034283,-6.56914 z m -25.08799,0.324571 a 6.587426,6.587426 0 0 0 -6.134855,6.244569 10.916567,10.916567 0 0 0 1.074285,4.571427 15.66628,15.66628 0 0 0 11.305139,8.959996 14.358852,14.358852 0 0 0 -0.969143,-17.599993 6.0434262,6.0434262 0 0 0 -5.275426,-2.157713 z M 34.24795,37.810321 a 5.9428548,5.9428548 0 0 0 -3.337142,10.687996 25.88799,25.88799 0 0 0 4.091427,2.482285 15.478851,15.478851 0 0 0 14.532566,-1.403428 15.963422,15.963422 0 0 0 -9.366853,-10.687996 12.297138,12.297138 0 0 0 -4.845713,-1.078857 6.2582833,6.2582833 0 0 0 -1.078857,0 z m 53.078836,20.946278 a 15.725708,15.725708 0 0 0 -8.937139,2.591999 15.963422,15.963422 0 0 0 9.380568,10.687995 12.297138,12.297138 0 0 0 4.845712,1.078857 A 6.0754262,6.0754262 0 0 0 97.031925,62.31774 25.005704,25.005704 0 0 0 92.940498,59.940598 14.843423,14.843423 0 0 0 87.3405,58.752027 Z M 40.277662,59.08117 a 14.843423,14.843423 0 0 0 -5.599998,1.188571 11.771424,11.771424 0 0 0 -4.091427,2.482285 6.1257119,6.1257119 0 0 0 4.749712,10.687995 11.090281,11.090281 0 0 0 4.845713,-1.078856 14.559994,14.559994 0 0 0 8.937139,-10.687996 15.387423,15.387423 0 0 0 -8.827425,-2.591999 z m 17.439993,10.578281 a 15.163423,15.163423 0 0 0 -10.971424,8.959997 10.450282,10.450282 0 0 0 -1.078857,4.425141 6.3999975,6.3999975 0 0 0 11.090281,4.534855 25.106276,25.106276 0 0 0 2.367999,-4.114284 14.212566,14.212566 0 0 0 -1.398856,-13.819423 z M 70.51765,69.984023 A 14.358852,14.358852 0 0 0 71.486792,87.584016 6.7199974,6.7199974 0 0 0 82.915359,83.469732 10.916567,10.916567 0 0 0 81.836503,78.934876 15.66628,15.66628 0 0 0 70.531364,69.97488 Z"
     style="fill:#ffffff;stroke-width:4.57143"
     id="path2" />
  <metadata
     id="metadata2">
    <rdf:RDF>
      <cc:Work
         rdf:about="">
        <dc:title>file_type_cucumber</dc:title>
      </cc:Work>
    </rdf:RDF>
  </metadata>
</svg>
