<?xml version="1.0" encoding="UTF-8" standalone="no"?>
<svg
   width="128"
   height="128"
   viewBox="0 0 128 128"
   version="1.1"
   id="svg1"
   sodipodi:docname="Mustache.svg"
   inkscape:version="1.3.2 (091e20e, 2023-11-25, custom)"
   xmlns:inkscape="http://www.inkscape.org/namespaces/inkscape"
   xmlns:sodipodi="http://sodipodi.sourceforge.net/DTD/sodipodi-0.dtd"
   xmlns="http://www.w3.org/2000/svg"
   xmlns:svg="http://www.w3.org/2000/svg"
   xmlns:rdf="http://www.w3.org/1999/02/22-rdf-syntax-ns#"
   xmlns:cc="http://creativecommons.org/ns#"
   xmlns:dc="http://purl.org/dc/elements/1.1/">
  <defs
     id="defs1" />
  <sodipodi:namedview
     id="namedview1"
     pagecolor="#ffffff"
     bordercolor="#111111"
     borderopacity="1"
     inkscape:showpageshadow="0"
     inkscape:pageopacity="0"
     inkscape:pagecheckerboard="1"
     inkscape:deskcolor="#d1d1d1"
     inkscape:zoom="4.2592135"
     inkscape:cx="49.42227"
     inkscape:cy="82.996544"
     inkscape:window-width="1920"
     inkscape:window-height="1009"
     inkscape:window-x="-8"
     inkscape:window-y="-8"
     inkscape:window-maximized="1"
     inkscape:current-layer="svg1" />
  <title
     id="title1">file_type_mustache</title>
  <path
     d="m 0.0032015,89.386286 a 76.476559,76.476559 0 0 1 0.9919554,-12.936561 23.555512,23.555512 0 0 1 3.7301178,-9.649851 17.370647,17.370647 0 0 1 7.4968053,-5.988302 31.870566,31.870566 0 0 1 12.424584,-2.020481 82.935697,82.935697 0 0 1 8.8636,0.511977 80.25696,80.25696 0 0 0 8.52076,0.511977 20.287087,20.287087 0 0 0 8.177918,-1.435364 12.438297,12.438297 0 0 0 5.23405,-4.242094 18.010618,18.010618 0 0 0 2.875299,-6.774553 A 61.396095,61.396095 0 0 0 59.552521,38.6 h 8.831603 a 60.527562,60.527562 0 0 0 1.403365,8.93217 18.623162,18.623162 0 0 0 2.83873,6.673985 12.264591,12.264591 0 0 0 5.371187,4.278664 20.826491,20.826491 0 0 0 7.903644,1.334798 80.357527,80.357527 0 0 0 8.625898,-0.511977 81.994024,81.994024 0 0 1 8.831602,-0.511977 31.28545,31.28545 0 0 1 11.9766,2.02048 17.690633,17.690633 0 0 1 7.73451,5.988302 23.70179,23.70179 0 0 1 3.86725,9.71842 71.951048,71.951048 0 0 1 1.06053,12.863421 h -5.61346 a 59.311617,59.311617 0 0 0 -0.71769,-6.344857 18.01976,18.01976 0 0 0 -1.7462,-5.727743 10.116116,10.116116 0 0 0 -4.34724,-3.990677 17.800342,17.800342 0 0 0 -8.04078,-1.526788 H 91.532796 A 35.372122,35.372122 0 0 1 79.624761,70.086583 18.353459,18.353459 0 0 1 71.95882,65.007954 23.468658,23.468658 0 0 1 67.611588,57.661999 54.676396,54.676396 0 0 1 65.047131,48.204139 h -2.143903 a 62.045208,62.045208 0 0 1 -2.532457,9.284154 22.897256,22.897256 0 0 1 -4.379232,7.519661 19.039143,19.039143 0 0 1 -7.597373,5.028345 34.357311,34.357311 0 0 1 -11.976604,1.778206 H 20.468566 A 18.380887,18.380887 0 0 0 12.59692,73.249869 10.28068,10.28068 0 0 0 8.0256975,77.331971 16.547827,16.547827 0 0 0 6.1103552,83.228849 C 5.7903696,85.477891 5.5846646,87.539512 5.4932402,89.4 Z"
     style="fill:#cfcfcf;stroke-width:4.57122"
     id="path1" />
  <metadata
     id="metadata1">
    <rdf:RDF>
      <cc:Work
         rdf:about="">
        <dc:title>file_type_mustache</dc:title>
      </cc:Work>
    </rdf:RDF>
  </metadata>
</svg>
