<svg xmlns="http://www.w3.org/2000/svg" viewBox="0 0 128 128"><defs><linearGradient id="a" x1="75.543" x2="81.2" y1="145.986" y2="143.227" gradientTransform="translate(-109.09 -291.172) scale(2.73936)" gradientUnits="userSpaceOnUse"><stop offset="0" stop-color="#fff" stop-opacity=".365"/><stop offset="1" stop-color="#fff" stop-opacity="0"/></linearGradient><linearGradient id="b" x1="105.834" x2="80.209" y1="15.354" y2="30.531" gradientTransform="translate(-218.147 44.362) scale(2.73936)" gradientUnits="userSpaceOnUse"><stop offset="0" stop-opacity=".102"/><stop offset="1" stop-opacity=".306"/></linearGradient><linearGradient id="c" x1="70.725" x2="87.092" y1="12.292" y2="26.895" gradientTransform="translate(-136.013 5.393) scale(2.73936)" gradientUnits="userSpaceOnUse"><stop offset="0" stop-opacity=".102"/><stop offset="1" stop-opacity=".306"/></linearGradient><linearGradient id="d" x1="70.725" x2="81.158" y1="12.292" y2="19.324" gradientTransform="translate(-95.891 75.061) scale(2.73936)" gradientUnits="userSpaceOnUse"><stop offset="0" stop-opacity=".102"/><stop offset="1" stop-opacity=".306"/></linearGradient><linearGradient id="e" x1="70.513" x2="55.281" y1="62.847" y2="56.394" gradientTransform="translate(-121.388 -85.738) scale(2.73936)" gradientUnits="userSpaceOnUse"><stop offset="0" stop-color="#fff" stop-opacity=".365"/><stop offset="1" stop-color="#fff" stop-opacity="0"/></linearGradient><linearGradient id="f" x1="70.513" x2="63.044" y1="62.847" y2="59.204" gradientTransform="matrix(-2.73936 0 0 2.73936 250.886 -133.095)" gradientUnits="userSpaceOnUse"><stop offset="0" stop-color="#fff" stop-opacity=".365"/><stop offset="1" stop-color="#fff" stop-opacity="0"/></linearGradient></defs><path fill="#10a0cc" d="m64.002 0-22.01 45.13 60.572 33.936ZM35.341 58.764 1.573 127.999l100.2-41.397Zm73.842 33.876-31.602 18.142 48.846 17.217Zm0 0"/><path fill="url(#a)" d="m97.849 108.735 11.334-16.098L126.427 128Zm0 0"/><path fill="url(#b)" d="m1.573 127.999 70.2-41.578 30 .18zm0 0"/><path fill="url(#c)" d="M102.564 79.067 41.99 45.125l15.737-6.059Zm0 0"/><path fill="url(#d)" d="m126.427 127.999-48.846-17.217 20.268-2.048Zm0 0"/><path fill="url(#e)" d="m1.573 127.999 70.2-41.578L35.34 58.764Zm0 0"/><path fill="url(#f)" d="m102.564 79.067-44.836-40L64.002 0Zm0 0"/></svg>
