<svg xmlns="http://www.w3.org/2000/svg" viewBox="0 0 128 128">
    <defs>
        <linearGradient id="a" x1="75.543" x2="81.2" y1="145.986" y2="143.227"
            gradientTransform="translate(-55.036 -200.718) scale(1.88976)" gradientUnits="userSpaceOnUse">
            <stop offset="0" stop-color="#fff" stop-opacity=".365" />
            <stop offset="1" stop-color="#fff" stop-opacity="0" />
        </linearGradient>
        <linearGradient id="b" x1="105.834" x2="80.209" y1="15.354" y2="30.531"
            gradientTransform="translate(-130.27 30.754) scale(1.88976)" gradientUnits="userSpaceOnUse">
            <stop offset="0" stop-opacity=".102" />
            <stop offset="1" stop-opacity=".306" />
        </linearGradient>
        <linearGradient id="c" x1="70.725" x2="87.092" y1="12.292" y2="26.895"
            gradientTransform="translate(-73.61 3.87) scale(1.88976)" gradientUnits="userSpaceOnUse">
            <stop offset="0" stop-opacity=".102" />
            <stop offset="1" stop-opacity=".306" />
        </linearGradient>
        <linearGradient id="d" x1="70.725" x2="81.158" y1="12.292" y2="19.324"
            gradientTransform="translate(-45.932 51.932) scale(1.88976)" gradientUnits="userSpaceOnUse">
            <stop offset="0" stop-opacity=".102" />
            <stop offset="1" stop-opacity=".306" />
        </linearGradient>
        <linearGradient id="e" x1="70.513" x2="55.281" y1="62.847" y2="56.394"
            gradientTransform="translate(-63.52 -58.997) scale(1.88976)" gradientUnits="userSpaceOnUse">
            <stop offset="0" stop-color="#fff" stop-opacity=".365" />
            <stop offset="1" stop-color="#fff" stop-opacity="0" />
        </linearGradient>
        <linearGradient id="f" x1="70.513" x2="63.044" y1="62.847" y2="59.204"
            gradientTransform="matrix(-1.88976 0 0 1.88976 193.295 -91.667)" gradientUnits="userSpaceOnUse">
            <stop offset="0" stop-color="#fff" stop-opacity=".365" />
            <stop offset="1" stop-color="#fff" stop-opacity="0" />
        </linearGradient>
    </defs>
    <path fill="#10a0cc"
        d="M83.285 95.984c-.879 0-1.59.274-2.14.825-.547.546-.825 1.261-.825 2.14 0 .88.278 1.59.825 2.14.55.552 1.261.825 2.14.825s1.598-.273 2.145-.824c.55-.55.824-1.262.824-2.14 0-.88-.274-1.595-.824-2.141-.547-.551-1.266-.825-2.145-.825Zm-21.351 1.758v21.695c0 2.86.62 4.907 1.867 6.153 1.281 1.246 3.367 1.867 6.261 1.867h2.965v-3.516h-2.965c-1.503 0-2.582-.347-3.242-1.043-.62-.695-1.035-1.851-.933-3.46v-9.891h7.14v-3.512h-7.14v-8.293Zm-45.36 7.852v3.46h9.813c1.574 0 2.836.493 3.789 1.485.949.95 1.43 2.195 1.43 3.734v.332c-.919-.625-2.016-1.117-3.297-1.48-1.282-.367-2.528-.55-3.735-.55H21.06c-2.711 0-4.891.695-6.536 2.085-1.648 1.39-2.472 3.238-2.472 5.567 0 2.324.789 4.191 2.363 5.585 1.61 1.391 3.75 2.086 6.422 2.086h3.297c1.465 0 2.875-.386 4.23-1.156a9.136 9.136 0 0 0 3.348-3.129v3.844h3.738v-13.184c0-2.601-.844-4.687-2.527-6.261-1.649-1.614-3.828-2.418-6.535-2.418Zm26.926.441v21.422h3.957v-9.777c0-2.453.715-4.414 2.14-5.88 1.465-1.503 3.368-2.253 5.712-2.253v-3.512c-1.61 0-3.164.403-4.668 1.207-1.461.805-2.563 1.848-3.293 3.133v-4.34Zm37.809 0v21.422h3.957v-21.422Zm10.425 0 9.496 10.711-9.496 10.711h5.282l6.855-7.73 6.86 7.73h5.285l-9.5-10.71 9.5-10.712h-5.286l-6.859 7.73-6.855-7.73Zm-70.675 10h3.515c1.352 0 2.672.219 3.953.656 1.32.403 2.344.954 3.078 1.649v.273c-.476 1.758-1.394 3.172-2.746 4.23a7.282 7.282 0 0 1-4.613 1.594h-3.41c-1.461 0-2.633-.382-3.512-1.152-.879-.77-1.32-1.797-1.32-3.058 0-1.266.46-2.27 1.375-3.04.953-.769 2.18-1.152 3.68-1.152ZM64.37.148 49.188 31.281l41.789 23.414ZM44.6 40.688l-23.294 47.76L90.43 59.891Zm50.942 23.37-21.8 12.516 33.695 11.875Zm0 0" />
    <path fill="url(#a)" d="m87.723 75.16 7.82-11.101 11.894 24.39Zm0 0" />
    <path fill="url(#b)" d="M21.305 88.45 69.73 59.77l20.7.12Zm0 0" />
    <path fill="url(#c)" d="m90.977 54.695-41.79-23.414 10.856-4.18Zm0 0" />
    <path fill="url(#d)" d="M107.438 88.45 73.742 76.573l13.98-1.414Zm0 0" />
    <path fill="url(#e)" d="M21.305 88.45 69.73 59.77 44.602 40.687Zm0 0" />
    <path fill="url(#f)" d="M90.977 54.695 60.043 27.102 64.371.148Zm0 0" />
</svg>
