<svg xmlns="http://www.w3.org/2000/svg" viewBox="0 0 128 128"><defs><linearGradient id="a" x1="75.543" x2="81.2" y1="145.986" y2="143.227" gradientTransform="translate(-55.303 -201.26) scale(1.89346)" gradientUnits="userSpaceOnUse"><stop offset="0" stop-color="#fff" stop-opacity=".365"/><stop offset="1" stop-color="#fff" stop-opacity="0"/></linearGradient><linearGradient id="b" x1="105.834" x2="80.209" y1="15.354" y2="30.531" gradientTransform="translate(-130.684 30.666) scale(1.89346)" gradientUnits="userSpaceOnUse"><stop offset="0" stop-opacity=".102"/><stop offset="1" stop-opacity=".306"/></linearGradient><linearGradient id="c" x1="70.725" x2="87.092" y1="12.292" y2="26.895" gradientTransform="translate(-73.913 3.73) scale(1.89346)" gradientUnits="userSpaceOnUse"><stop offset="0" stop-opacity=".102"/><stop offset="1" stop-opacity=".306"/></linearGradient><linearGradient id="d" x1="70.725" x2="81.158" y1="12.292" y2="19.324" gradientTransform="translate(-46.181 51.885) scale(1.89346)" gradientUnits="userSpaceOnUse"><stop offset="0" stop-opacity=".102"/><stop offset="1" stop-opacity=".306"/></linearGradient><linearGradient id="e" x1="70.513" x2="55.281" y1="62.847" y2="56.394" gradientTransform="translate(-63.804 -59.26) scale(1.89346)" gradientUnits="userSpaceOnUse"><stop offset="0" stop-color="#fff" stop-opacity=".365"/><stop offset="1" stop-color="#fff" stop-opacity="0"/></linearGradient><linearGradient id="f" x1="70.513" x2="63.044" y1="62.847" y2="59.204" gradientTransform="matrix(-1.89346 0 0 1.89346 193.514 -91.995)" gradientUnits="userSpaceOnUse"><stop offset="0" stop-color="#fff" stop-opacity=".365"/><stop offset="1" stop-color="#fff" stop-opacity="0"/></linearGradient></defs><path fill="#10a0cc" d="M83.289 96.024c-.881 0-1.593.274-2.145.826-.548.547-.826 1.264-.826 2.144 0 .882.278 1.593.826 2.145.552.553 1.264.826 2.145.826.88 0 1.6-.273 2.149-.825.55-.552.825-1.265.825-2.145 0-.881-.274-1.598-.825-2.145-.548-.552-1.269-.826-2.15-.826zm-21.393 1.761v21.737c0 2.866.621 4.917 1.87 6.165 1.284 1.249 3.374 1.871 6.274 1.871h2.97v-3.523h-2.97c-1.506 0-2.587-.347-3.249-1.045-.62-.696-1.037-1.854-.934-3.467v-9.91h7.154v-3.519h-7.154v-8.309zm-45.449 7.867v3.467h9.832c1.577 0 2.842.494 3.797 1.488.95.952 1.433 2.2 1.433 3.741v.333c-.921-.626-2.02-1.12-3.304-1.483-1.284-.368-2.533-.551-3.742-.551h-3.521c-2.716 0-4.9.696-6.549 2.09-1.651 1.392-2.477 3.243-2.477 5.577 0 2.329.79 4.2 2.368 5.596 1.613 1.394 3.757 2.09 6.434 2.09h3.304c1.468 0 2.88-.387 4.238-1.158a9.154 9.154 0 0 0 3.355-3.135v3.851h3.745v-13.21c0-2.606-.846-4.696-2.532-6.273-1.652-1.617-3.835-2.423-6.548-2.423zm26.979.442v21.464h3.965v-9.796c0-2.458.716-4.423 2.144-5.892 1.468-1.505 3.374-2.257 5.723-2.257v-3.519c-1.613 0-3.17.404-4.677 1.21-1.464.806-2.568 1.851-3.3 3.139v-4.349zm37.883 0v21.464h3.965v-21.464zm10.445 0 9.515 10.732-9.515 10.732h5.293l6.868-7.745 6.873 7.745h5.296l-9.519-10.73 9.519-10.734h-5.297l-6.872 7.745-6.868-7.745zm-70.813 10.02h3.522c1.354 0 2.677.22 3.96.657 1.323.404 2.35.956 3.085 1.652v.274c-.477 1.761-1.397 3.178-2.752 4.238a7.296 7.296 0 0 1-4.622 1.597h-3.417c-1.463 0-2.638-.383-3.518-1.154-.881-.772-1.323-1.8-1.323-3.064 0-1.268.46-2.274 1.378-3.046.955-.77 2.184-1.154 3.687-1.154zM64.337 0 49.125 31.194l41.87 23.46ZM44.528 40.62l-23.34 47.853 69.26-28.613ZM95.57 64.034l-21.843 12.54 33.76 11.899zm0 0"/><path fill="url(#a)" d="m87.735 75.159 7.836-11.123 11.917 24.438Zm0 0"/><path fill="url(#b)" d="m21.187 88.475 48.52-28.736 20.74.12zm0 0"/><path fill="url(#c)" d="m90.996 54.654-41.872-23.46L60 27.006Zm0 0"/><path fill="url(#d)" d="m107.489 88.475-33.762-11.9 14.007-1.417Zm0 0"/><path fill="url(#e)" d="m21.187 88.475 48.52-28.736-25.177-19.12Zm0 0"/><path fill="url(#f)" d="M90.996 54.654 60 27.007 64.338 0Zm0 0"/></svg>
