<svg version="1.1" xmlns="http://www.w3.org/2000/svg" xmlns:xlink="http://www.w3.org/1999/xlink" viewBox="0 0 128 128">
	<g transform="matrix(0.17893165,0,0,0.17893165,-129.37356,1149.0013)">
			<path fill="#002A41" d="M849.223-6407.469v310.998l231.487,131.951v-89.695l-154.866-88.273v-138.659
				l154.866,88.276v-82.641L849.223-6407.469z"/>
			<path fill="#0071B5" d="M1312.197-6407.469v310.998L1080.71-5964.52v-89.695l154.858-88.273v-138.659
				l-154.858,88.276v-82.641L1312.197-6407.469z"/>
			<path fill="#0071B5" d="M849.223-5832.421v-311l231.487-131.957v89.703l-154.866,88.271v131.605l154.866-88.273
				v89.695L849.223-5832.421z"/>
			<path fill="#002A41" d="M1312.197-5832.421v-311l-231.487-131.957v89.703l154.858,88.271v131.605
				l-154.858-88.273v89.695L1312.197-5832.421z"/>
	</g>
		<path fill="#002A41" d="M11.911,111.622h3.39c1.592,0,2.744,0.238,3.455,0.714s1.067,1.228,1.067,2.257
			c0,0.711-0.199,1.298-0.596,1.76s-0.975,0.762-1.735,0.898v0.082c1.822,0.312,2.732,1.27,2.732,2.873
			c0,1.072-0.362,1.91-1.087,2.511c-0.726,0.602-1.738,0.903-3.041,0.903h-4.186V111.622z M13.307,116.759h2.298
			c0.985,0,1.693-0.155,2.126-0.464c0.432-0.309,0.648-0.83,0.648-1.563c0-0.673-0.241-1.158-0.723-1.457
			c-0.481-0.298-1.247-0.447-2.298-0.447h-2.052V116.759z M13.307,117.941v4.489h2.503c0.969,0,1.697-0.188,2.188-0.562
			c0.489-0.375,0.734-0.962,0.734-1.761c0-0.744-0.25-1.291-0.751-1.641s-1.263-0.525-2.285-0.525H13.307z"/>
		<path fill="#002A41" d="M30.344,123.62l-1.493-3.816h-4.81l-1.477,3.816h-1.412l4.744-12.047h1.173l4.72,12.047H30.344z
			 M28.416,118.548l-1.396-3.718c-0.181-0.47-0.366-1.047-0.559-1.731c-0.12,0.525-0.292,1.103-0.517,1.731l-1.411,3.718H28.416z"/>
		<path fill="#002A41" d="M38.575,112.697c-1.318,0-2.359,0.439-3.122,1.317c-0.764,0.878-1.146,2.081-1.146,3.607
			c0,1.57,0.368,2.783,1.104,3.64c0.735,0.856,1.784,1.284,3.146,1.284c0.838,0,1.792-0.15,2.864-0.451v1.223
			c-0.831,0.312-1.857,0.468-3.077,0.468c-1.768,0-3.131-0.536-4.091-1.608c-0.961-1.072-1.44-2.596-1.44-4.571
			c0-1.236,0.23-2.32,0.693-3.25c0.462-0.93,1.13-1.646,2.002-2.15c0.873-0.503,1.9-0.755,3.082-0.755
			c1.258,0,2.358,0.23,3.299,0.689l-0.591,1.198C40.392,112.91,39.483,112.697,38.575,112.697z"/>
		<path fill="#002A41" d="M52.707,123.62h-1.641l-4.375-5.819l-1.255,1.116v4.703h-1.396v-11.999h1.396v5.95l5.44-5.95h1.649
			l-4.825,5.211L52.707,123.62z"/>
		<path fill="#002A41" d="M54.356,111.622h3.39c1.592,0,2.744,0.238,3.455,0.714s1.067,1.228,1.067,2.257
			c0,0.711-0.199,1.298-0.596,1.76s-0.975,0.762-1.735,0.898v0.082c1.822,0.312,2.732,1.27,2.732,2.873
			c0,1.072-0.362,1.91-1.087,2.511c-0.726,0.602-1.738,0.903-3.041,0.903h-4.186V111.622z M55.752,116.759h2.298
			c0.985,0,1.693-0.155,2.126-0.464c0.432-0.309,0.648-0.83,0.648-1.563c0-0.673-0.241-1.158-0.723-1.457
			c-0.481-0.298-1.247-0.447-2.298-0.447h-2.052V116.759z M55.752,117.941v4.489h2.503c0.969,0,1.697-0.188,2.188-0.562
			c0.489-0.375,0.734-0.962,0.734-1.761c0-0.744-0.25-1.291-0.751-1.641s-1.263-0.525-2.285-0.525H55.752z"/>
		<path fill="#002A41" d="M75.662,117.605c0,1.92-0.485,3.431-1.457,4.53c-0.971,1.1-2.321,1.649-4.05,1.649
			c-1.768,0-3.131-0.54-4.091-1.621c-0.961-1.081-1.44-2.606-1.44-4.576c0-1.953,0.481-3.467,1.444-4.542
			c0.963-1.075,2.33-1.613,4.104-1.613c1.723,0,3.069,0.547,4.037,1.641C75.178,114.169,75.662,115.679,75.662,117.605z
			 M66.101,117.605c0,1.625,0.347,2.857,1.038,3.697c0.692,0.84,1.698,1.26,3.017,1.26c1.329,0,2.333-0.418,3.012-1.256
			c0.679-0.837,1.018-2.071,1.018-3.701c0-1.614-0.338-2.838-1.014-3.672s-1.676-1.251-2.999-1.251c-1.33,0-2.341,0.42-3.033,1.26
			C66.447,114.78,66.101,116.002,66.101,117.605z"/>
		<path fill="#002A41" d="M87.709,123.62h-1.592l-6.557-10.07h-0.066c0.088,1.182,0.132,2.265,0.132,3.25v6.82h-1.289v-11.999h1.576
			l6.541,10.029h0.065c-0.011-0.147-0.036-0.622-0.074-1.424c-0.038-0.801-0.052-1.375-0.041-1.719v-6.886h1.305V123.62z"/>
		<path fill="#002A41" d="M97.697,123.62h-6.688v-11.999h6.688v1.239h-5.293v3.866h4.973v1.231h-4.973v4.415h5.293V123.62z"/>
		<path fill="#002A41" d="M99.954,122.75c0-0.366,0.083-0.644,0.25-0.833c0.167-0.188,0.406-0.283,0.718-0.283
			c0.317,0,0.565,0.094,0.743,0.283c0.178,0.189,0.267,0.467,0.267,0.833c0,0.356-0.091,0.629-0.271,0.821
			c-0.181,0.191-0.427,0.287-0.739,0.287c-0.278,0-0.51-0.086-0.693-0.258S99.954,123.144,99.954,122.75z"/>
		<path fill="#002A41" d="M103.081,126.78c-0.515,0-0.919-0.074-1.215-0.222v-1.19c0.389,0.109,0.794,0.164,1.215,0.164
			c0.542,0,0.953-0.164,1.235-0.492c0.281-0.329,0.422-0.802,0.422-1.42v-11.999h1.396v11.884c0,1.039-0.263,1.845-0.788,2.417
			C104.821,126.494,104.065,126.78,103.081,126.78z"/>
		<path fill="#002A41" d="M116.089,120.428c0,1.056-0.384,1.879-1.149,2.47s-1.806,0.886-3.118,0.886
			c-1.423,0-2.518-0.183-3.283-0.55v-1.346c0.492,0.208,1.028,0.372,1.608,0.492c0.58,0.121,1.154,0.181,1.724,0.181
			c0.93,0,1.63-0.177,2.101-0.529c0.471-0.353,0.706-0.844,0.706-1.473c0-0.416-0.083-0.756-0.25-1.022
			c-0.167-0.265-0.446-0.51-0.837-0.734c-0.392-0.224-0.986-0.479-1.785-0.763c-1.116-0.399-1.914-0.873-2.393-1.42
			c-0.479-0.547-0.718-1.261-0.718-2.142c0-0.924,0.347-1.66,1.042-2.208c0.694-0.547,1.614-0.821,2.758-0.821
			c1.192,0,2.289,0.219,3.291,0.657l-0.436,1.215c-0.99-0.416-1.953-0.624-2.889-0.624c-0.738,0-1.315,0.159-1.731,0.476
			s-0.624,0.758-0.624,1.321c0,0.416,0.077,0.756,0.229,1.022c0.153,0.265,0.412,0.509,0.776,0.73
			c0.363,0.222,0.92,0.467,1.67,0.735c1.258,0.449,2.124,0.93,2.598,1.444C115.852,118.94,116.089,119.607,116.089,120.428z"/>
</svg>
