<?xml version="1.0" encoding="UTF-8" standalone="no"?>
<svg
   width="128"
   height="128"
   viewBox="0 0 128 128"
   version="1.1"
   id="svg1"
   sodipodi:docname="HTML+Razor.svg"
   inkscape:version="1.3.2 (091e20e, 2023-11-25, custom)"
   xmlns:inkscape="http://www.inkscape.org/namespaces/inkscape"
   xmlns:sodipodi="http://sodipodi.sourceforge.net/DTD/sodipodi-0.dtd"
   xmlns="http://www.w3.org/2000/svg"
   xmlns:svg="http://www.w3.org/2000/svg"
   xmlns:rdf="http://www.w3.org/1999/02/22-rdf-syntax-ns#"
   xmlns:cc="http://creativecommons.org/ns#"
   xmlns:dc="http://purl.org/dc/elements/1.1/">
  <defs
     id="defs1" />
  <sodipodi:namedview
     id="namedview1"
     pagecolor="#ffffff"
     bordercolor="#111111"
     borderopacity="1"
     inkscape:showpageshadow="0"
     inkscape:pageopacity="0"
     inkscape:pagecheckerboard="1"
     inkscape:deskcolor="#d1d1d1"
     inkscape:zoom="4.2592135"
     inkscape:cx="58.344105"
     inkscape:cy="64.448518"
     inkscape:window-width="1920"
     inkscape:window-height="1009"
     inkscape:window-x="-8"
     inkscape:window-y="-8"
     inkscape:window-maximized="1"
     inkscape:current-layer="svg1" />
  <title
     id="title1">file_type_razor</title>
  <path
     d="m 102.59438,121.5904 a 80.401186,80.401186 0 0 1 -32.712828,6.3998 q -31.329485,0 -49.293233,-15.96504 A 55.629035,55.629035 0 0 1 2.6245709,68.211147 67.522818,67.522818 0 0 1 21.257837,19.484051 62.599895,62.599895 0 0 1 68.409598,0.07296317 57.480054,57.480054 0 0 1 109.88523,14.871271 49.199697,49.199697 0 0 1 125.35306,51.955654 50.149821,50.149821 0 0 1 113.94172,86.977332 37.07946,37.07946 0 0 1 85.305071,99.516013 12.863599,12.863599 0 0 1 76.222277,96.355501 11.435951,11.435951 0 0 1 72.461164,88.478823 24.122325,24.122325 0 0 1 52.040877,99.520943 22.645448,22.645448 0 0 1 34.776184,92.239937 28.090201,28.090201 0 0 1 27.962858,72.238099 48.80094,48.80094 0 0 1 38.79329,40.943074 Q 49.623722,27.341037 62.423323,27.341037 a 24.924762,24.924762 0 0 1 20.951962,8.447736 l 1.531029,-6.586871 H 96.745945 L 86.501341,73.902047 a 52.754048,52.754048 0 0 0 -1.732869,11.042117 q 0,4.785082 3.662655,4.785082 A 23.723568,23.723568 0 0 0 107.5173,79.652021 43.961707,43.961707 0 0 0 115.49736,51.684893 39.284929,39.284929 0 0 0 102.32854,21.285841 48.672944,48.672944 0 0 0 68.266833,9.3132908 52.182989,52.182989 0 0 0 28.105623,26.381067 59.399995,59.399995 0 0 0 12.352268,68.201301 47.068071,47.068071 0 0 0 27.416414,105.4826 q 15.064146,13.29189 42.268221,13.29189 a 67.724658,67.724658 0 0 0 27.937591,-5.18876 z M 81.041819,45.570622 A 19.578467,19.578467 0 0 0 63.319295,37.122886 q -8.979413,0 -16.0635,10.978119 a 42.95743,42.95743 0 0 0 -7.084086,23.748183 q 0,17.894827 14.301092,17.894827 a 18.564344,18.564344 0 0 0 13.05067,-5.823819 31.058724,31.058724 0 0 0 8.36897,-15.753355 z"
     style="fill:#368832;stroke-width:4.92292"
     id="path1" />
  <metadata
     id="metadata1">
    <rdf:RDF>
      <cc:Work
         rdf:about="">
        <dc:title>file_type_razor</dc:title>
      </cc:Work>
    </rdf:RDF>
  </metadata>
</svg>
