<svg xmlns="http://www.w3.org/2000/svg" viewBox="0 0 128 128"><path fill="#46c0bc" d="M29.081 0a.677.677 0 0 0-.678.678v35.545a.68.68 0 0 0 .434.634L58.6 48.238a.68.68 0 0 0 .922-.633V.678a.679.679 0 0 0-.68-.678zm40.077 0a.679.679 0 0 0-.68.678v46.927a.68.68 0 0 0 .92.633L99.16 36.857a.68.68 0 0 0 .437-.634V.678A.677.677 0 0 0 98.919 0zM29.76 1.356h28.405v45.262L29.759 35.755Zm40.077 0h28.405v34.399L69.836 46.618ZM29.323 46.714a.68.68 0 0 0-.629.077.681.681 0 0 0-.293.56v15.58a.68.68 0 0 0 .92.636l20.373-7.794a.68.68 0 0 0 0-1.267zm69.354.003-20.371 7.789a.68.68 0 0 0 0 1.267l20.371 7.794a.68.68 0 0 0 .922-.636v-15.58a.68.68 0 0 0-.293-.558.68.68 0 0 0-.629-.076zm-68.918 1.62 17.793 6.803-17.793 6.805zm68.482 0v13.608l-17.793-6.803ZM58.603 62.043 28.84 73.425a.678.678 0 0 0-.437.634v53.263a.68.68 0 0 0 .678.678h15.292a.68.68 0 0 0 .651-.48l14.469-47.428a.678.678 0 0 0 .03-.2V62.677a.678.678 0 0 0-.294-.56.68.68 0 0 0-.626-.074zm10.797 0a.68.68 0 0 0-.629.074.678.678 0 0 0-.293.56v17.215a.68.68 0 0 0 .03.2l14.468 47.427a.68.68 0 0 0 .65.481H98.92a.68.68 0 0 0 .68-.678V74.059a.679.679 0 0 0-.436-.634zm-11.234 1.62v16.128l-14.293 46.85H29.759V74.527Zm11.67 0 28.405 10.864v52.114H84.127l-14.29-46.85Z"/></svg>
