<?xml version="1.0" encoding="utf-8"?>
<svg xmlns="http://www.w3.org/2000/svg" id="Layer_2" viewBox="0 0 128 128">
  <defs>
    <style>.cls-1{fill:#50d18d;}.cls-2{fill:#f5f1e3;}</style>
  </defs>
  <g id="Logos" style="transform-origin: 124.187px 30.7539px;" transform="matrix(0.514424, 0, 0, 0.514424, -60.1874, 33.2461)">
    <g>
      <g>
        <rect class="cls-1" x="211.10433" y="47.57303" width="11.85403" height="11.85403" rx=".90357" ry=".90357" transform="translate(332.66544 244.79463) rotate(-135)"/>
        <rect class="cls-1" x="222.58503" y="36.09234" width="11.85403" height="11.85403" rx=".90357" ry=".90357" transform="translate(360.38229 233.31394) rotate(-135)"/>
        <rect class="cls-1" x="234.06572" y="24.61164" width="11.85403" height="11.85403" rx=".90357" ry=".90357" transform="translate(388.09913 221.83324) rotate(-135)"/>
        <rect class="cls-1" x="211.31959" y="24.82691" width="11.85403" height="11.85403" rx=".90357" ry=".90357" transform="translate(349.11685 206.11678) rotate(-135)"/>
        <rect class="cls-1" x="222.80029" y="13.34621" width="11.85403" height="11.85403" rx=".90357" ry=".90357" transform="translate(376.8337 194.63609) rotate(-135)"/>
        <rect class="cls-1" x="211.53486" y="2.08078" width="11.85403" height="11.85403" rx=".90357" ry=".90357" transform="translate(365.56827 167.43893) rotate(-135)"/>
      </g>
      <g>
        <g>
          <path class="cls-2" d="M22.47607,14.94557V52.88551H14.4624V14.94557H0V7.93385H36.93799v7.01172h-14.46191Z"/>
          <path class="cls-2" d="M26.85352,36.48268c0-9.6416,6.51074-17.0918,15.65137-17.0918,9.5166,0,14.5874,7.19971,14.5874,16.21533v2.50391h-23.03906c.56348,5.63477,3.94385,9.07812,8.76465,9.07812,3.69385,0,6.63672-1.87793,7.63818-5.25879l6.44873,2.44141c-2.31689,5.75977-7.51318,9.20312-14.08691,9.20312-9.39062,0-15.96436-6.94922-15.96436-17.09131Zm7.5752-4.00684h15.08838c-.0625-3.63135-2.31641-6.76172-7.07471-6.76172-3.88184,0-6.88672,2.31641-8.01367,6.76172Z"/>
          <path class="cls-2" d="M63.01514,42.11696c1.94092,3.19336,5.69727,5.32178,9.5166,5.32178,3.19287,0,6.13525-1.12695,6.13525-4.06934,0-2.81738-2.75488-3.13037-7.95117-4.19482s-11.14404-2.37891-11.14404-9.39111c0-6.01025,5.25928-10.39258,12.83447-10.39258,5.75977,0,10.89355,2.56689,13.27295,6.19824l-5.07129,4.57031c-1.87842-2.94287-5.00879-4.6333-8.63965-4.6333-3.06787,0-5.07129,1.37744-5.07129,3.56885,0,2.37891,2.37891,2.81738,6.51123,3.69385,5.57178,1.18945,12.58398,2.37891,12.58398,9.8916,0,6.63672-6.07324,10.89355-13.52344,10.89355-6.07275,0-12.14551-2.44141-15.08789-6.94922l5.63428-4.50781Z"/>
          <path class="cls-2" d="M90.87549,26.4026h-4.57031v-6.38574h4.57031V10.37526h7.3877v9.6416h6.88672v6.38574h-6.88672v17.0293c0,2.94238,1.69043,3.25537,4.38232,3.25537,1.25244,0,1.94092-.0625,3.06787-.1875v6.32324c-1.37744,.25049-3.25537,.43799-5.19629,.43799-6.26074,0-9.6416-1.94043-9.6416-8.63965V26.4026Z"/>
          <path class="cls-2" d="M116.83252,52.88551h-8.01367V7.93385h17.96826c10.01709,0,16.27783,4.69531,16.27783,13.77344,0,7.07471-3.88184,11.58252-10.45557,13.14746l11.58203,18.03076h-9.14014l-10.95654-17.40479h-7.26221v17.40479Zm9.51611-24.2915c5.75977,0,8.82764-2.50439,8.82764-6.88672,0-4.44482-3.06787-6.88672-8.82764-6.88672h-9.51611v13.77344h9.51611Z"/>
          <path class="cls-2" d="M144.02295,43.74489c0-6.26074,4.6958-9.01514,11.01904-10.33008l9.07812-1.87842v-.56348c0-3.13037-1.62793-5.0708-5.63477-5.0708-3.56836,0-5.44678,1.62744-6.32324,4.8208l-7.07471-1.62793c1.62793-5.44678,6.44873-9.7041,13.71094-9.7041,7.88867,0,12.64648,3.75635,12.64648,11.33203v14.14893c0,1.87842,.81396,2.44189,2.87988,2.19141v5.82227c-5.44678,.62598-8.32666-.43848-9.45361-3.13037-2.06592,2.31641-5.50928,3.69385-9.7666,3.69385-6.26074,0-11.08154-3.81885-11.08154-9.7041Zm20.09717-6.44824l-7.07471,1.50244c-3.19287,.68848-5.57178,1.69043-5.57178,4.63281,0,2.56689,1.87793,4.00684,4.75781,4.00684,4.00684,0,7.88867-2.12842,7.88867-6.13525v-4.00684Z"/>
          <path class="cls-2" d="M184.53613,52.88551h-7.5127V20.01686h7.5127V52.88551Z"/>
          <path class="cls-2" d="M197.01367,52.88551h-7.5127V7.93385h7.5127V52.88551Z"/>
        </g>
        <rect class="cls-2" x="176.89819" y="7.93385" width="7.76318" height="7.70068"/>
      </g>
    </g>
  </g>
</svg>