<svg xmlns="http://www.w3.org/2000/svg" viewBox="0 0 128 128"><path fill="#000000" d="M8.611 52.768c-.29.006-.87.084-1.424.613-.801.77-4.875 4.635-6.511 6.191-.738.706-.674 1.493-.674 1.557v.353l.002-.003v.003l-.002.016.002-.006c.004 1.134.05 2.912.174 4.946.224 3.416.658 6.449.658 6.449l5.693-5.407s-.208-2.71.13-6.751q.053-.636.12-1.262a49 49 0 0 1 1.258-.055c4.058-.128 6.736.21 6.736.21l5.696-5.405s-2.985-.562-6.385-.963a87 87 0 0 0-5.293-.483c-.02 0-.083-.005-.18-.003m26.405.003v4.204H31.31c-2.246 0-3.61.674-4.46 1.492-1.299 1.267-1.298 3.079-1.298 3.271v4.524c0 .192 0 2.004 1.299 3.271.834.818 2.197 1.492 4.459 1.492h1.652c1.075 0 2.518-.24 3.271-1.427.401-.642.547-1.492.563-2.278V52.771zm42.183 0v14.534c.016.786.146 1.635.563 2.277.754 1.203 2.197 1.428 3.271 1.428h3.192v-1.588h-2.967c-.834 0-1.411-.16-1.764-.514-.353-.337-.53-.899-.53-1.701v-8.629h3.706V56.99h-3.705v-4.219zm-55.865 2.342-5.693 5.422s.192 2.695-.13 6.736q-.05.633-.116 1.254a49 49 0 0 1-1.247.063c-4.058.128-6.752-.21-6.752-.21l-5.695 5.423s3.016.593 6.416.978c2.03.235 3.822.36 4.951.426l-.027.006c.128 0 .241.018.354.018.08 0 .866.096 1.636-.61 1.62-1.556 5.694-5.439 6.496-6.209.738-.706.672-1.49.672-1.57-.016-1.09-.062-3.064-.207-5.293-.24-3.417-.658-6.434-.658-6.434m16.857 1.862 5.39 14.035-1.62 4.219h1.844l7.01-18.254H48.97l-4.477 11.644-4.474-11.644H38.19zm18.846 0c-2.117.032-3.416.69-4.234 1.492-1.283 1.267-1.283 3.079-1.283 3.271v9.287h1.765V61.69c0-.657.208-1.506.865-2.148.546-.53 1.59-.947 2.985-.963 1.395.016 2.437.434 2.982.963.642.642.867 1.49.867 2.148v9.336h1.764v-9.287c0-.192 0-2.004-1.283-3.271-.818-.802-2.117-1.46-4.235-1.492zm8.647 0v1.587h4.105c1.46 0 2.375.418 2.92.963.658.642.883 1.491.883 2.149v1.363H67.96c-1.075 0-2.518.24-3.272 1.428-.4.641-.546 1.491-.562 2.277v.563c.016.786.145 1.635.562 2.277.754 1.203 2.197 1.428 3.272 1.428h3.576c1.075 0 2.52-.241 3.274-1.428.4-.642.544-1.491.56-2.277v-5.567c0-.192 0-2.004-1.299-3.271-.834-.818-2.197-1.492-4.459-1.492h-3.93zm29.191 0v1.587h4.105c1.46 0 2.375.418 2.92.963.658.642.883 1.491.883 2.149v1.363h-5.63c-1.075 0-2.518.24-3.272 1.428-.401.641-.545 1.491-.56 2.277v.563c.015.786.143 1.635.56 2.277.754 1.203 2.197 1.428 3.271 1.428h3.578c1.075 0 2.518-.241 3.272-1.428.4-.642.544-1.491.56-2.277v-5.567c0-.192 0-2.004-1.298-3.271-.834-.818-2.198-1.492-4.46-1.492zm27.412 0c-2.117.032-3.416.69-4.234 1.492-1.283 1.267-1.283 3.079-1.283 3.271v4.524c0 .192 0 2.004 1.283 3.271.818.802 2.117 1.46 4.234 1.492h4.17v-1.603h-4.074c-1.396-.016-2.437-.434-2.983-.963-.641-.642-.867-1.49-.867-2.148v-1.653h9.463v-2.92c.016-.192.016-2.004-1.283-3.271-.818-.802-2.117-1.46-4.234-1.492zm-32.816.015c-1.075 0-2.52.225-3.274 1.428-.417.642-.544 1.491-.56 2.277v10.33H87.4v-10.2c0-.803.177-1.396.53-1.733.353-.353.931-.514 1.765-.514h2.967V56.99zm22.246 0c-2.246 0-3.61.674-4.46 1.492-1.298 1.268-1.298 3.08-1.298 3.272v4.523c0 .193 0 2.005 1.299 3.272.834.818 2.197 1.492 4.459 1.492h4.074v-1.588h-4.25c-1.46 0-2.375-.417-2.92-.963-.658-.641-.883-1.49-.883-2.148v-4.653c0-.657.225-1.522.883-2.148.561-.545 1.46-.963 2.92-.963h4.25V56.99zm-80.6 1.588H35v8.647c.016.786-.16 1.346-.514 1.699-.353.337-.93.513-1.763.513h-1.606c-1.46 0-2.372-.417-2.918-.962-.657-.642-.883-1.491-.883-2.149V61.69c0-.657.226-1.506.883-2.148.562-.545 1.459-.963 2.918-.963zm91.281 0c1.396.016 2.44.434 2.985.963.641.642.865 1.49.865 2.148v1.381h-7.7v-1.38c0-.658.21-1.507.868-2.149.545-.53 1.587-.947 2.982-.963m-54.181 6.047h5.39v2.6c0 .786-.176 1.346-.529 1.699-.353.337-.931.513-1.766.513h-3.11c-.835 0-1.412-.16-1.764-.513s-.514-.913-.514-1.7v-.384c0-.802.176-1.364.53-1.701.352-.337.929-.514 1.763-.514m29.193 0h5.389v2.6c0 .786-.177 1.346-.53 1.699-.352.337-.93.513-1.763.513h-3.113c-.834 0-1.411-.16-1.764-.513s-.514-.913-.514-1.7v-.384c0-.802.177-1.364.53-1.701.352-.337.931-.514 1.765-.514"/></svg>
