<?xml version="1.0" encoding="UTF-8" standalone="no"?>
<svg
   viewBox="0 0 128 128"
   version="1.1"
   id="svg14"
   xmlns="http://www.w3.org/2000/svg"
   xmlns:svg="http://www.w3.org/2000/svg">
  <defs
     id="defs18" />
  <g
     id="g34"
     transform="matrix(0.88587508,0,0,0.88550893,7.7595109,19.685929)">
    <path
       fill="#558d6c"
       d="M 4.92,8 15.09,95.05 64,119.95 V 8 Z"
       id="path2" />
    <path
       fill="#5aa579"
       d="M 64,8 V 119.95 L 64.05,120 112.98,95.09 123.08,8 Z"
       id="path4" />
    <path
       fill="#60be86"
       d="M 18.84,22.11 25.33,87.29 64,105.97 V 22.11 Z"
       id="path6" />
    <path
       fill="#65d693"
       d="m 64,22.11 v 83.86 l 0.05,0.05 38.69,-18.76 6.42,-65.15 z"
       id="path8" />
    <path
       fill="#5aa579"
       d="M 105.72,54.9 73.14,39.42 71.31,38.52 70.19,40.8 64,53.41 V 68.3 l 9.15,-18.08 21.5,9.57 -23.09,10.37 -0.87,0.47 V 81.51 L 73,80.38 105.78,64.69 a 2,2 0 0 0 0.92,-2 v -5.78 a 2,2 0 0 0 -0.98,-2.01 z"
       id="path10" />
    <path
       fill="#558d6c"
       d="m 56,69.39 -21.79,-9.6 23.3,-10.37 1.76,-0.7 V 37.76 l -3.4,1.44 -33.93,15.69 a 2.26,2.26 0 0 0 -1.28,2 v 5.77 a 2.22,2.22 0 0 0 1.24,2 l 33.44,15.52 2,0.9 1.21,-2.26 L 64,68.3 V 53.41 Z"
       id="path12" />
  </g>
  <path
     id="path6219"
     style="font-size:29.3333px;line-height:1.25;font-family:Damion;-inkscape-font-specification:'Damion, Normal';fill:#ffffff;fill-opacity:1;stroke:none;stroke-opacity:1"
     d="m 33.52737,1.842 c -1.05034,0 -2.0714,0.1104603 -3.06445,0.3300781 C 29.46987,2.3916959 28.53475,2.6883546 27.65628,3.06075 26.77781,3.423597 25.96965,3.847209 25.2344,4.334188 24.50871,4.811617 23.8785,5.312921 23.34378,5.838094 22.81861,6.353718 22.40932,6.879544 22.11331,7.414266 21.8173,7.939439 21.668,8.430542 21.668,8.888875 c 0,0.725694 0.41124,1.089844 1.23242,1.089844 0.43924,0 0.82183,-0.106337 1.14648,-0.316407 0.32466,-0.210069 0.62544,-0.482205 0.90235,-0.816406 0.28646,-0.334201 0.57292,-0.710721 0.85937,-1.130859 0.29601,-0.420138 0.63368,-0.839627 1.01563,-1.259766 0.34375,-0.315104 0.75499,-0.607639 1.23242,-0.875 0.48698,-0.276909 1.01693,-0.514323 1.58984,-0.714843 0.57292,-0.200521 1.17036,-0.358074 1.79102,-0.472657 0.63021,-0.124132 1.25434,-0.1875 1.875,-0.1875 0.6684,0 1.25152,0.110461 1.74805,0.330078 0.49652,0.219618 0.90169,0.524523 1.21679,0.916016 0.32466,0.391493 0.56402,0.855903 0.7168,1.390625 0.16233,0.534722 0.24414,1.115886 0.24414,1.746094 0,0.74479 -0.13911,1.538629 -0.41601,2.378906 -0.26737,0.840277 -0.64996,1.679254 -1.14649,2.519531 -0.48698,0.830729 -1.07834,1.63889 -1.77539,2.421875 -0.6875,0.773437 -1.45074,1.475261 -2.29102,2.105469 -0.83072,0.620659 -1.72482,1.140408 -2.67968,1.560547 -0.95486,0.420138 -1.94727,0.682075 -2.97852,0.787109 0.42014,-0.572916 0.84983,-1.192926 1.28906,-1.861328 0.44879,-0.677951 0.8826,-1.365453 1.30274,-2.0625 0.42968,-0.697048 0.84093,-1.388673 1.23242,-2.076172 0.40104,-0.697047 0.76932,-1.347657 1.10352,-1.949219 0.34375,-0.601562 0.64453,-1.145833 0.90234,-1.632812 0.26736,-0.486979 0.4822,-0.877822 0.64453,-1.173828 0.16233,-0.276909 0.29123,-0.567492 0.38672,-0.873047 0.0955,-0.305555 0.14258,-0.598091 0.14258,-0.875 0,-0.34375 -0.0901,-0.638455 -0.27149,-0.886719 -0.18142,-0.248263 -0.48828,-0.373047 -0.91797,-0.373047 -0.0955,0 -0.23263,0.02452 -0.41406,0.07227 -0.18142,0.03819 -0.39214,0.128256 -0.63086,0.271485 -0.22916,0.143229 -0.48285,0.34375 -0.75976,0.601562 -0.26736,0.257812 -0.5395,0.601563 -0.81641,1.03125 l -5.88672,11.701172 c -0.15278,0.219618 -0.27561,0.458984 -0.37109,0.716797 -0.0955,0.257811 -0.14453,0.525825 -0.14453,0.802734 0,0.353299 0.11046,0.648004 0.33008,0.886719 0.21961,0.248264 0.5204,0.373047 0.90234,0.373047 1.75694,-10e-7 3.38976,-0.210721 4.89844,-0.63086 1.51823,-0.420139 2.89735,-0.98698 4.13867,-1.703125 1.25086,-0.716145 2.35373,-1.546876 3.30859,-2.492187 0.96441,-0.945312 1.77257,-1.943795 2.421878,-2.994141 0.658853,-1.050346 1.15408,-2.120444 1.488281,-3.208984 0.34375,-1.088541 0.515625,-2.12804 0.515625,-3.121094 0,-0.993055 -0.147353,-1.919923 -0.44336,-2.779297 C 40.016306,5.265833 39.572295,4.52104 38.970733,3.890832 38.37872,3.2510759 37.6298,2.7497726 36.72269,2.3869259 35.81557,2.0240791 34.74959,1.842004 33.52737,1.842004 Z m 34.074222,6.302734 c -0.334201,0 -0.624783,0.06142 -0.873046,0.185547 -0.238716,0.124132 -0.439237,0.281684 -0.601563,0.472657 -0.162326,0.190972 -0.287109,0.405816 -0.373047,0.644531 -0.07639,0.229166 -0.113281,0.45421 -0.113281,0.673828 0.02865,0.305555 0.161676,0.553168 0.400391,0.74414 0.238715,0.181424 0.65408,0.273438 1.246093,0.273438 0.315104,0 0.58724,-0.06337 0.816407,-0.1875 0.229166,-0.124132 0.415365,-0.275608 0.558593,-0.457031 0.14323,-0.190972 0.247614,-0.39757 0.314453,-0.617188 0.07639,-0.219618 0.115235,-0.420139 0.115235,-0.601562 0,-0.324653 -0.110461,-0.590712 -0.330078,-0.800781 C 68.542131,8.255195 68.155411,8.144734 67.601592,8.144734 Z m -20.523437,3.939453 c -0.754339,0 -1.466364,0.108507 -2.134766,0.328125 -0.658853,0.219618 -1.26454,0.512154 -1.818359,0.875 -0.553819,0.362847 -1.055122,0.782336 -1.503906,1.259766 -0.439236,0.467881 -0.811632,0.950738 -1.117188,1.447266 -0.305555,0.496527 -0.540799,0.991754 -0.703125,1.488281 -0.162326,0.486979 -0.242187,0.937066 -0.242187,1.347656 0,0.534722 0.07986,1.044272 0.242187,1.53125 0.162326,0.486979 0.39757,0.916667 0.703125,1.289063 0.315104,0.372396 0.691624,0.669054 1.13086,0.888671 0.448784,0.219619 0.960287,0.330079 1.533203,0.330079 0.668402,0 1.345704,-0.09201 2.033203,-0.273438 0.687499,-0.171875 1.346354,-0.390842 1.976562,-0.658203 0.639756,-0.267361 1.241321,-0.557944 1.804688,-0.873047 0.502852,-0.284949 0.947331,-0.555021 1.339844,-0.810547 0.01818,0.376332 0.08138,0.71383 0.193359,1.009766 0.143229,0.353298 0.329428,0.649956 0.558594,0.888672 0.229166,0.238714 0.495226,0.414713 0.800781,0.529297 0.305555,0.124132 0.626737,0.1875 0.960938,0.1875 0.687499,0 1.346355,-0.214844 1.976562,-0.644532 0.639757,-0.429686 1.27409,-1.059897 1.904297,-1.890625 0.429687,0.267361 0.77756,0.453559 1.044922,0.558594 0.26736,0.105035 0.545573,0.15625 0.832031,0.15625 0.868923,0 1.660808,-0.151476 2.376953,-0.457031 0.104699,-0.04607 0.209755,-0.09747 0.314453,-0.148438 0.0042,0.828033 0.225138,1.4407 0.660156,1.837891 0.448785,0.391493 1.058595,0.587891 1.832032,0.587891 0.54427,0 1.084419,-0.106337 1.61914,-0.316407 0.534722,-0.210069 1.064671,-0.486328 1.589844,-0.830078 0.412815,-0.272753 0.817149,-0.574632 1.212891,-0.904297 0.02542,0.09274 0.0557,0.183191 0.08984,0.273438 0.133681,0.353299 0.330079,0.66428 0.587891,0.931641 0.257812,0.257811 0.572917,0.462456 0.945313,0.615234 0.381944,0.152777 0.815755,0.230469 1.302734,0.230469 0.639757,0 1.290365,-0.100261 1.949219,-0.300782 0.658853,-0.190972 1.293187,-0.434462 1.904297,-0.730468 0.620659,-0.296007 1.1977,-0.621312 1.732422,-0.97461 0.231129,-0.154086 0.445321,-0.301789 0.652343,-0.447265 0.05204,0.305321 0.144397,0.579839 0.279297,0.820312 0.219618,0.391493 0.487631,0.710721 0.802734,0.958984 0.324653,0.238715 0.662328,0.410591 1.015626,0.515626 0.353298,0.105034 0.664279,0.158203 0.93164,0.158203 0.706597,0 1.369576,-0.09201 1.990234,-0.273438 0.630208,-0.171875 1.213325,-0.415365 1.748047,-0.730469 0.54427,-0.315104 1.035374,-0.691624 1.47461,-1.130859 0.439235,-0.439236 0.832032,-0.926216 1.175781,-1.460937 0.238715,0.171874 0.472005,0.296658 0.701172,0.373046 0.238715,0.07639 0.482205,0.113282 0.730469,0.113282 0.362847,0 0.725044,-0.100261 1.08789,-0.300782 0.362847,-0.20052 0.712674,-0.44401 1.046875,-0.730468 0.006,-0.0051 0.01162,-0.0105 0.01758,-0.01563 -0.163599,0.352823 -0.321055,0.697179 -0.46289,1.019531 -0.21007,0.47743 -0.381945,0.896919 -0.515625,1.259766 -0.133681,0.362846 -0.199219,0.624782 -0.199219,0.787109 0,0.305555 0.09418,0.563368 0.285156,0.773437 0.190972,0.21007 0.454861,0.316407 0.789063,0.316407 0.324652,0 0.590712,-0.106337 0.800781,-0.316407 0.219618,-0.20052 0.416016,-0.452257 0.587891,-0.757812 0.171874,-0.315103 0.33355,-0.650608 0.486328,-1.003906 0.162326,-0.362847 0.340278,-0.700522 0.53125,-1.015625 0.305555,-0.467882 0.657553,-0.997831 1.058593,-1.589844 0.401042,-0.592013 0.84093,-1.150608 1.31836,-1.675781 0.47743,-0.534722 0.988932,-0.98481 1.533203,-1.347657 0.553819,-0.362847 1.134984,-0.542968 1.746094,-0.542968 0.162326,0 0.282986,0.05121 0.359375,0.15625 0.08594,0.09549 0.128906,0.216145 0.128906,0.359375 0,0.162326 -0.06337,0.371094 -0.1875,0.628906 -0.124131,0.257813 -0.281684,0.554471 -0.472656,0.888672 -0.181424,0.324652 -0.381945,0.672526 -0.601563,1.044922 -0.219618,0.362846 -0.428385,0.73112 -0.628906,1.103515 -0.190972,0.372396 -0.358724,0.734592 -0.501953,1.087891 -0.133678,0.353298 -0.209416,0.678603 -0.228516,0.974609 -0.0096,0.07639 -0.01975,0.148004 -0.0293,0.214844 v 0.185547 c 0,0.506076 0.114584,0.902995 0.34375,1.189453 0.238716,0.276909 0.611113,0.416016 1.117188,0.416016 0.171875,0 0.358073,-0.0204 0.558594,-0.05859 0.210069,-0.03819 0.439236,-0.09549 0.6875,-0.171875 0.725693,-0.210069 1.355913,-0.43316 1.890633,-0.671875 0.54427,-0.248263 1.04969,-0.512153 1.51757,-0.789063 0.47744,-0.286458 0.94185,-0.591363 1.39063,-0.916015 0.45833,-0.324652 0.95963,-0.682726 1.50391,-1.074219 0.40104,-0.315104 0.69162,-0.654731 0.87304,-1.017578 0.19098,-0.362847 0.28711,-0.692275 0.28711,-0.988281 0,-0.190972 -0.049,-0.348525 -0.14453,-0.472657 -0.0859,-0.124132 -0.20877,-0.185546 -0.37109,-0.185546 -0.0668,-1e-6 -0.13845,0.01432 -0.21485,0.04297 -0.0764,0.02865 -0.15408,0.07574 -0.23047,0.142578 -0.27691,0.257812 -0.62478,0.550348 -1.04492,0.875 -0.41059,0.315104 -0.8648,0.634332 -1.36133,0.958985 -0.49652,0.315104 -1.01627,0.615886 -1.56054,0.902343 -0.53472,0.286459 -1.06055,0.525825 -1.576179,0.716797 -0.124132,0.08593 -0.228516,0.13715 -0.314453,0.15625 -0.08594,0.0095 -0.161676,0.01563 -0.228516,0.01563 -0.105031,0 -0.182722,-0.02864 -0.230468,-0.08594 -0.04774,-0.05729 -0.07031,-0.124783 -0.07031,-0.201172 0,-0.200521 0.06141,-0.376519 0.185547,-0.529297 0.09549,-0.171875 0.224393,-0.386719 0.386719,-0.644531 0.171874,-0.267361 0.358075,-0.559896 0.55859,-0.875 0.20052,-0.315104 0.40105,-0.648655 0.60157,-1.001953 0.21007,-0.362847 0.39626,-0.731121 0.55859,-1.103516 0.17187,-0.372396 0.31098,-0.744792 0.41602,-1.117187 0.10503,-0.372396 0.15625,-0.73047 0.15625,-1.074219 0,-0.582465 -0.17188,-0.991754 -0.51563,-1.230469 -0.3342,-0.248263 -0.75368,-0.373047 -1.25976,-0.373047 -0.448787,0 -0.92557,0.07161 -1.431646,0.214844 -0.496527,0.143229 -0.983508,0.329427 -1.460937,0.558594 -0.467882,0.219617 -0.89757,0.473307 -1.289063,0.759765 -0.391493,0.27691 -0.692275,0.549045 -0.902344,0.816407 0.07639,-0.162327 0.127604,-0.315756 0.15625,-0.458985 0.02865,-0.143229 0.04297,-0.276259 0.04297,-0.40039 0,-0.324653 -0.09006,-0.568143 -0.271484,-0.730469 -0.181424,-0.171875 -0.386068,-0.257813 -0.615235,-0.257813 -0.276909,0 -0.559245,0.100262 -0.845703,0.300782 -0.286458,0.20052 -0.525825,0.505425 -0.716797,0.916015 -0.06725,0.147106 -0.14657,0.313426 -0.230469,0.488282 -0.05261,0.01572 -0.09908,0.04244 -0.140624,0.08398 -0.124132,0.143229 -0.281685,0.321181 -0.472657,0.53125 -0.181423,0.200521 -0.388021,0.415364 -0.617187,0.644531 -0.229167,0.229166 -0.472657,0.458333 -0.730469,0.6875 -0.257812,0.229167 -0.515625,0.433811 -0.773437,0.615235 -0.257813,0.181423 -0.50955,0.328776 -0.757813,0.443359 -0.238715,0.114583 -0.459636,0.171875 -0.660156,0.171875 -0.143229,0 -0.276259,-0.02257 -0.400391,-0.07031 -0.124131,-0.04774 -0.234592,-0.129558 -0.330078,-0.24414 0.152777,-0.401042 0.267361,-0.783638 0.34375,-1.146485 0.07639,-0.372395 0.115234,-0.701823 0.115234,-0.988281 0,-0.553819 -0.118707,-1.016276 -0.357422,-1.388672 -0.229166,-0.381944 -0.521702,-0.686849 -0.875,-0.916015 -0.353297,-0.229167 -0.740017,-0.392796 -1.160156,-0.488282 -0.41059,-0.09549 -0.797309,-0.142578 -1.160156,-0.142578 -0.840277,0 -1.603516,0.139107 -2.291016,0.416016 -0.687499,0.267361 -1.299263,0.625434 -1.833984,1.074219 -0.534722,0.439235 -0.997179,0.940539 -1.388672,1.503906 -0.381944,0.553819 -0.701172,1.116537 -0.958984,1.689453 -0.19554,0.443724 -0.35217,0.878734 -0.470703,1.304688 -0.06542,0.04205 -0.104053,0.06855 -0.173829,0.113281 -0.362847,0.229166 -0.769966,0.472656 -1.21875,0.730469 -0.448784,0.257812 -0.915365,0.497179 -1.402343,0.716796 -0.47743,0.219618 -0.960287,0.39974 -1.447266,0.542969 -0.486979,0.143229 -0.945313,0.214844 -1.375,0.214844 -0.401041,0 -0.720269,-0.09418 -0.958984,-0.285156 -0.229166,-0.190972 -0.34375,-0.454862 -0.34375,-0.789063 0,-0.229167 0.05729,-0.505425 0.171875,-0.830078 0.124132,-0.324652 0.285807,-0.658203 0.486328,-1.001953 0.210069,-0.353298 0.44336,-0.697049 0.701172,-1.03125 0.257812,-0.34375 0.521701,-0.650608 0.789062,-0.917969 0.27691,-0.267361 0.549046,-0.482204 0.816406,-0.644531 0.27691,-0.171875 0.524523,-0.257813 0.744141,-0.257813 0.190975,0 0.309682,0.06337 0.357422,0.1875 0.04774,0.114584 0.07227,0.257813 0.07227,0.429688 0,0.152777 -0.0041,0.314453 -0.01367,0.486328 v 0.373047 c 0,0.143227 0.02257,0.243488 0.07031,0.300781 0.05729,0.05729 0.182075,0.08594 0.373047,0.08594 0.353298,0 0.649957,-0.106337 0.888672,-0.316407 0.238715,-0.210068 0.43316,-0.472005 0.585938,-0.787109 0.152777,-0.315104 0.263238,-0.648655 0.330078,-1.001953 0.06684,-0.362847 0.09961,-0.692275 0.09961,-0.988281 0,-0.238716 -0.04297,-0.445313 -0.128906,-0.617188 -0.07639,-0.171875 -0.184897,-0.304905 -0.328125,-0.40039 -0.133681,-0.105038 -0.297309,-0.180776 -0.488282,-0.228516 -0.181423,-0.04774 -0.375868,-0.07227 -0.585937,-0.07227 -0.620659,0 -1.236546,0.13303 -1.847656,0.400391 -0.601562,0.267361 -1.18468,0.621311 -1.748047,1.060547 -0.553819,0.439235 -1.069445,0.940539 -1.546875,1.503906 -0.47743,0.563367 -0.892796,1.136285 -1.246094,1.71875 -0.306561,0.505411 -0.552609,1.003108 -0.744141,1.494141 -0.04881,0.04616 -0.09388,0.09177 -0.144531,0.138671 -0.248263,0.238716 -0.514323,0.478083 -0.800781,0.716797 -0.286458,0.229167 -0.578993,0.433811 -0.875,0.615235 -0.296007,0.181423 -0.590712,0.328776 -0.886719,0.443359 -0.286458,0.114583 -0.56467,0.171875 -0.832031,0.171875 -0.238715,0 -0.424913,-0.03689 -0.558594,-0.113281 -0.124132,-0.08594 -0.185547,-0.257813 -0.185547,-0.515625 0,-0.238715 0.04297,-0.502605 0.128907,-0.789063 0.09549,-0.286458 0.205946,-0.57704 0.330078,-0.873047 0.13368,-0.296006 0.270834,-0.582465 0.414062,-0.859374 0.14323,-0.286459 0.272136,-0.548395 0.386719,-0.78711 0.09549,-0.200521 0.177301,-0.372396 0.244141,-0.515625 l 0.201172,-0.429687 0.242187,-0.488282 c 0.08594,-0.171874 0.196398,-0.380642 0.330078,-0.628906 0.04775,-0.08594 0.07639,-0.171875 0.08594,-0.257812 0.0191,-0.08594 0.03342,-0.171876 0.04297,-0.257813 0,-0.362847 -0.133029,-0.659505 -0.40039,-0.888672 -0.257812,-0.238714 -0.568794,-0.357422 -0.931641,-0.357422 -0.219618,0 -0.434462,0.05729 -0.644531,0.171875 -0.210069,0.114584 -0.396267,0.304905 -0.558594,0.572266 -0.171875,0.353299 -0.333551,0.68685 -0.486328,1.001953 -0.133681,0.267361 -0.262587,0.531251 -0.386719,0.789063 -0.114586,0.257812 -0.1964,0.448133 -0.24414,0.572265 -0.133681,0.334201 -0.295356,0.688152 -0.486328,1.060547 -0.164246,0.312067 -0.320584,0.640151 -0.470704,0.980469 -0.326047,0.198072 -0.65609,0.373952 -0.990234,0.523437 -0.362847,0.152778 -0.73112,0.271484 -1.103516,0.357422 -0.362846,0.08594 -0.716796,0.128906 -1.060546,0.128906 -0.324653,0 -0.562066,-0.10026 -0.714844,-0.300781 0.353298,-0.601562 0.67665,-1.117187 0.972656,-1.546875 0.305555,-0.439235 0.569445,-0.836155 0.789062,-1.189453 0.219618,-0.362847 0.391494,-0.71072 0.515626,-1.044922 0.13368,-0.3342 0.199218,-0.702474 0.199218,-1.103515 0,-0.353299 -0.07986,-0.654081 -0.242187,-0.902344 -0.162327,-0.257812 -0.440539,-0.386719 -0.832031,-0.386719 -0.229166,0 -0.452257,0.114584 -0.671876,0.34375 -0.219617,0.219618 -0.444662,0.516277 -0.673828,0.888672 -0.219618,0.362847 -0.448785,0.778212 -0.6875,1.246094 -0.229166,0.458333 -0.472656,0.926867 -0.730468,1.404297 -0.248264,0.47743 -0.516277,0.944011 -0.802735,1.402343 -0.276909,0.448784 -0.571614,0.84158 -0.886719,1.175782 -0.362846,0.486978 -0.69835,0.867622 -1.003906,1.144531 -0.305554,0.276909 -0.581814,0.416016 -0.830078,0.416016 -0.0573,0 -0.110463,-0.03277 -0.158203,-0.09961 -0.04774,-0.07639 -0.08463,-0.162326 -0.113281,-0.257812 -0.02865,-0.105035 -0.05317,-0.211373 -0.07227,-0.316407 -0.0191,-0.114583 -0.0293,-0.204643 -0.0293,-0.271484 0,-0.429687 0.05729,-0.902344 0.171875,-1.417969 0.124132,-0.525172 0.273437,-1.059245 0.445313,-1.603515 0.171874,-0.54427 0.351996,-1.08442 0.542969,-1.619141 0.20052,-0.544271 0.372396,-1.045574 0.515624,-1.503906 0.03819,-0.07639 0.05859,-0.16645 0.05859,-0.271485 0,-0.124132 -0.03472,-0.238716 -0.101562,-0.34375 -0.06684,-0.105034 -0.152778,-0.197048 -0.257813,-0.273437 -0.105034,-0.07639 -0.223742,-0.133682 -0.357422,-0.171875 -0.124132,-0.04775 -0.248914,-0.07031 -0.373047,-0.07031 -0.276909,0 -0.563368,0.09006 -0.859374,0.271485 -0.286458,0.171874 -0.523872,0.458333 -0.714844,0.859375 -0.105035,0.315104 -0.248264,0.740669 -0.429688,1.27539 -0.171874,0.534722 -0.349826,1.115887 -0.53125,1.746094 -0.174496,0.606144 -0.326701,1.23157 -0.457031,1.873047 -0.216554,0.128976 -0.461917,0.269777 -0.759766,0.433594 -0.372395,0.210069 -0.791883,0.435113 -1.259765,0.673828 -0.467882,0.229167 -0.950739,0.44401 -1.447266,0.644531 -0.486979,0.200521 -0.984158,0.36632 -1.490234,0.5 -0.496528,0.124132 -0.963109,0.1875 -1.402344,0.1875 -0.41059,0 -0.740018,-0.07769 -0.988281,-0.230469 -0.248267,-0.162326 -0.397573,-0.381293 -0.445313,-0.658203 1.29861,-0.47743 2.378907,-0.950087 3.238282,-1.417968 0.868922,-0.477431 1.560547,-0.939888 2.076171,-1.388672 0.515624,-0.458333 0.877822,-0.908421 1.087891,-1.347657 0.210069,-0.439235 0.316406,-0.858724 0.316406,-1.259765 0,-0.677951 -0.196398,-1.2079 -0.58789,-1.589844 -0.391493,-0.381944 -0.982857,-0.572266 -1.775391,-0.572266 z m -0.773437,1.960938 h 0.128906 c 0.0382,0 0.08117,0.0061 0.128906,0.01563 0.114583,0.0191 0.214844,0.07031 0.300781,0.15625 0.09549,0.08594 0.142578,0.200521 0.142578,0.34375 0,0.171875 -0.08181,0.378472 -0.24414,0.617187 -0.162327,0.229166 -0.457032,0.47678 -0.886719,0.744141 -0.09549,0.05729 -0.263238,0.167752 -0.501953,0.330078 -0.229166,0.162326 -0.501302,0.342448 -0.816406,0.542969 -0.315104,0.200521 -0.654732,0.411241 -1.017579,0.630859 -0.353297,0.219618 -0.697048,0.416016 -1.03125,0.587891 0.05729,-0.181423 0.139107,-0.406467 0.244141,-0.673828 0.114583,-0.267361 0.253689,-0.54362 0.416016,-0.830078 0.162326,-0.296007 0.342448,-0.592666 0.542969,-0.888672 0.210069,-0.296006 0.445312,-0.557943 0.703124,-0.78711 0.267361,-0.238715 0.557943,-0.43099 0.873047,-0.574218 0.315104,-0.14323 0.654732,-0.214844 1.017579,-0.214844 z m 37.482421,0.574219 c 0.296007,0 0.529298,0.05729 0.701172,0.171875 0.171876,0.105034 0.300782,0.242187 0.386719,0.414062 0.09549,0.171875 0.152782,0.36415 0.171875,0.574219 0.02865,0.200521 0.04297,0.394965 0.04297,0.585937 0,0.486979 -0.09418,0.969836 -0.285156,1.447266 -0.190973,0.47743 -0.448786,0.907119 -0.773438,1.289062 -0.324653,0.372396 -0.697049,0.677301 -1.117188,0.916016 -0.410589,0.229166 -0.836154,0.34375 -1.27539,0.34375 -0.286458,0 -0.515625,-0.06142 -0.6875,-0.185547 -0.171875,-0.124132 -0.304905,-0.277561 -0.400391,-0.458984 -0.08594,-0.190972 -0.143228,-0.391493 -0.171875,-0.601563 -0.02865,-0.219618 -0.04297,-0.420139 -0.04297,-0.601562 0,-0.486979 0.09418,-0.959636 0.285156,-1.417969 0.190972,-0.467881 0.444661,-0.883247 0.759765,-1.246094 0.324653,-0.372395 0.692927,-0.6671 1.103516,-0.886718 0.420139,-0.229167 0.85395,-0.34375 1.302735,-0.34375 z" />
</svg>
