<svg xmlns="http://www.w3.org/2000/svg" viewBox="0 0 128 128"><path fill="#558d6c" d="M12.69 26.57l8.82 75.57 42.47 21.6V26.57H12.69z"/><path fill="#5aa579" d="M63.98 26.57v-.05 97.22l.05.04 42.51-21.61 8.77-75.6H63.98z"/><path fill="#60be86" d="M24.78 38.98l5.63 56.5 33.57 16.11V38.98h-39.2z"/><path fill="#65d693" d="M63.98 38.98v72.61l.05.04 33.61-16.18 5.58-56.47H63.98z"/><path fill="#5aa579" d="M100.15 67.23L71.9 53.79 70.33 53l-1 2L64 65.94v12.94l8-15.7 18.68 8.31-20 9-.89.41-.11 1.36v5.37l.15 2.73 2-1 28.42-13.63c.64-.3.75-1 .75-1.75V69c-.11-.78-.21-1.46-.85-1.77z"/><path fill="#558d6c" d="M57 79.82l-18.91-8.34 20.27-9 1.4-.6-.12-1.16v-8.37L56.8 53.6 27.29 67.23A2 2 0 0026.14 69v5a2 2 0 001.19 1.75l29.1 13.45 1.77.8 1.05-2L64 78.88V65.94zM14.57 20.49v-16h5.51a13.36 13.36 0 012.85.23 5.42 5.42 0 012.34 1.15 6.51 6.51 0 011.89 2.73 10.73 10.73 0 01.63 3.8 11.17 11.17 0 01-.43 3.23A7.83 7.83 0 0126.27 18a5.79 5.79 0 01-1.46 1.45 5.92 5.92 0 01-1.91.8 10.89 10.89 0 01-2.57.27zm2.12-1.89h3.41a8.28 8.28 0 002.48-.29 3.55 3.55 0 001.42-.83 5 5 0 001.17-2 9.89 9.89 0 00.42-3.08 7.44 7.44 0 00-.82-3.86 4.14 4.14 0 00-2-1.8A8.27 8.27 0 0020 6.39h-3.32zM30.74 20.49v-16H42.3v1.9h-9.44v4.9h8.84v1.88h-8.84v5.44h9.81v1.89zM50.16 20.49L44 4.51h2.29l4.15 11.61q.5 1.4.84 2.62.37-1.31.86-2.62l4.29-11.61h2.16l-6.26 16zM60.85 20.49v-16H63v16zM78.1 14.89l2.12.53a7.12 7.12 0 01-2.39 4 6.6 6.6 0 01-4.23 1.37 7.59 7.59 0 01-4.2-1.05 6.57 6.57 0 01-2.46-3 10.88 10.88 0 01-.85-4.29A9.42 9.42 0 0167 8a6.54 6.54 0 012.76-2.8 7.93 7.93 0 013.88-1 6.56 6.56 0 014 1.22 6.34 6.34 0 012.28 3.44l-2.08.49a4.94 4.94 0 00-1.61-2.54A4.3 4.3 0 0073.59 6a5.17 5.17 0 00-3.08.88 4.66 4.66 0 00-1.74 2.42 9.55 9.55 0 00-.5 3.07 9.76 9.76 0 00.59 3.56 4.43 4.43 0 001.85 2.27 5.18 5.18 0 002.72.75 4.55 4.55 0 003-1 5.24 5.24 0 001.67-3.06zM82.18 12.71a8.69 8.69 0 012.14-6.23 7.27 7.27 0 015.52-2.25 7.66 7.66 0 014 1.06 6.91 6.91 0 012.71 2.95 9.58 9.58 0 01.93 4.29 9.42 9.42 0 01-1 4.35 6.7 6.7 0 01-2.78 2.91 7.94 7.94 0 01-3.88 1 7.56 7.56 0 01-4-1.09 7 7 0 01-2.69-3 9 9 0 01-.95-3.99zm2.18 0a6.4 6.4 0 001.55 4.55 5.42 5.42 0 007.83 0 6.79 6.79 0 001.54-4.77 8.19 8.19 0 00-.66-3.41 5.07 5.07 0 00-1.92-2.24A5.23 5.23 0 0089.85 6 5.41 5.41 0 0086 7.59q-1.64 1.54-1.64 5.15zM100.18 20.49v-16h2.17l8.4 12.55V4.51h2v16h-2.15l-8.4-12.58v12.56z"/></svg>