<svg xmlns="http://www.w3.org/2000/svg" viewBox="0 0 128 128"><g fill="#60be86"><path d="M64 24.2H11.6l9 77.23L64 123.55h.05l43.41-22.12 9-77.27zm37.84 48.53c0 .78 0 1.48-.68 1.79l-29 13.92-2.14 1-.24-2.79v-5.47l.22-1.39 1-.41 20.5-9.19-19.07-8.49-8.12 16-4.82 9.32-1.08 2-1.82-.8L26.8 74.53a2.14 2.14 0 01-1.29-1.79v-5.12a2.11 2.11 0 011.25-1.79l30.1-13.91 2.84-1.28v8.55l.21 1.18-1.38.63-20.68 9.17 19.33 8.52 7.12-14.17 5.5-11.2 1-2 1.6.8 28.77 13.73c.65.31.67 1 .67 1.79zM14.29 20.55V4.69h5.57a13.76 13.76 0 012.88.23 5.53 5.53 0 012.36 1.14A6.45 6.45 0 0127 8.77a10.45 10.45 0 01.63 3.77 10.87 10.87 0 01-.43 3.2A7.7 7.7 0 0126.12 18a5.8 5.8 0 01-1.47 1.44 6 6 0 01-1.93.79 11.22 11.22 0 01-2.6.27zm2.14-1.87h3.45a8.53 8.53 0 002.51-.29 3.6 3.6 0 001.45-.82 5 5 0 001.19-2 9.63 9.63 0 00.42-3.06 7.26 7.26 0 00-.83-3.82 4.16 4.16 0 00-2-1.79 8.52 8.52 0 00-2.77-.32h-3.4zM30.64 20.55V4.69h11.69v1.87h-9.55v4.86h8.94v1.86h-8.94v5.4h9.92v1.87zM50.28 20.55L44 4.69h2.32l4.2 11.52q.51 1.38.85 2.6.37-1.3.87-2.6l4.38-11.52h2.18l-6.33 15.86zM61.08 20.55V4.69h2.14v15.86zM78.52 15l2.14.53a7 7 0 01-2.42 3.94A6.76 6.76 0 0174 20.82a7.79 7.79 0 01-4.25-1 6.54 6.54 0 01-2.49-3 10.61 10.61 0 01-.85-4.25 9.19 9.19 0 011-4.32 6.54 6.54 0 012.75-2.8 8.15 8.15 0 013.92-1 6.72 6.72 0 014.08 1.21A6.28 6.28 0 0180.39 9l-2.11.49A4.89 4.89 0 0076.65 7 4.41 4.41 0 0074 6.22a5.3 5.3 0 00-3.11.88 4.63 4.63 0 00-1.76 2.35 9.31 9.31 0 00-.51 3 9.51 9.51 0 00.6 3.53 4.41 4.41 0 001.78 2.3 5.32 5.32 0 002.75.75 4.66 4.66 0 003-1A5.18 5.18 0 0078.52 15zM82.65 12.83a8.51 8.51 0 012.16-6.18 7.42 7.42 0 015.58-2.23 7.86 7.86 0 014 1 6.9 6.9 0 012.74 2.93 9.35 9.35 0 01.94 4.26 9.19 9.19 0 01-1 4.31 6.7 6.7 0 01-2.81 2.88 8.15 8.15 0 01-3.93 1 7.76 7.76 0 01-4.08-1.08 7 7 0 01-2.72-3 8.81 8.81 0 01-.88-3.89zm2.21 0a6.28 6.28 0 001.57 4.51 5.56 5.56 0 007.92 0 6.65 6.65 0 001.56-4.73 8 8 0 00-.67-3.38 5.06 5.06 0 00-2-2.24 5.37 5.37 0 00-2.88-.79 5.53 5.53 0 00-3.91 1.53q-1.6 1.55-1.6 5.13zM100.84 20.55V4.69H103l8.49 12.45V4.69h2.05v15.86h-2.19l-8.46-12.46v12.46z"/></g></svg>