<?xml version="1.0" encoding="utf-8"?>
<!-- Generator: Adobe Illustrator 16.0.0, SVG Export Plug-In . SVG Version: 6.00 Build 0)  -->
<!DOCTYPE svg PUBLIC "-//W3C//DTD SVG 1.1//EN" "http://www.w3.org/Graphics/SVG/1.1/DTD/svg11.dtd">
<svg version="1.1" xmlns="http://www.w3.org/2000/svg" xmlns:xlink="http://www.w3.org/1999/xlink" x="0px" y="0px" width="500px"
	 height="500px" viewBox="0 0 500 500" enable-background="new 0 0 500 500" xml:space="preserve">
<g id="Layer_1">
	<path fill="#60BE86" d="M489.459,223.04l-185.418-88.087l-10.443-5.145l-6.404,12.961l-35.235,71.798l-45.724,90.906
		L82.264,250.825l132.765-58.924l9.946-3.957L225,180.36v-35.153V125.54l-19.376,8.192l-193.21,89.286
		C8.179,224.981,5,229.496,5,234.493v32.808c0,5.003,2.988,9.525,7.225,11.479l190.357,88.085l11.51,5.113l6.907-12.875
		l30.942-59.775l52.05-102.857l122.314,54.449l-131.341,58.965l-5.063,2.654l0.099,8.898v35.148l0.186,17.875l12.774-6.422
		l186.643-89.286c4.167-1.986,5.398-6.478,5.398-11.451v-32.808C495,229.516,493.63,225.011,489.459,223.04z"/>
</g>
<g id="Layer_2">
</g>
</svg>
