<?xml version="1.0" encoding="utf-8"?>
<!-- Generator: Adobe Illustrator 16.0.0, SVG Export Plug-In . SVG Version: 6.00 Build 0)  -->
<!DOCTYPE svg PUBLIC "-//W3C//DTD SVG 1.1//EN" "http://www.w3.org/Graphics/SVG/1.1/DTD/svg11.dtd">
<svg version="1.1" xmlns="http://www.w3.org/2000/svg" xmlns:xlink="http://www.w3.org/1999/xlink" x="0px" y="0px" width="500px"
	 height="500px" viewBox="0 0 500 500" enable-background="new 0 0 500 500" xml:space="preserve">
<g id="Layer_1">
	<path fill="#60BE86" d="M249.908,19H6.245l41.901,359.229l201.762,102.852l0.24,0.192l201.926-102.872L493.755,19H249.908z
		 M426,244.753c0,3.609-0.132,6.866-3.153,8.305l-134.79,64.748l-9.948,4.655L277,309.501v-25.49l1.001-6.453l4.495-1.926
		l95.357-42.755l-88.655-39.485l-37.757,74.587l-22.433,43.347l-5.002,9.335l-8.444-3.705L76.981,253.078
		C73.91,251.66,71,248.383,71,244.753v-23.79c0-3.621,2.756-6.895,5.826-8.32l139.961-64.744L230,141.957v14.261v25.491l0.987,5.499
		l-6.419,2.872l-96.182,42.729l89.926,39.627l33.135-65.922L277,154.451l4.637-9.4l7.452,3.733l133.799,63.874
		c3.022,1.432,3.112,4.697,3.112,8.305V244.753z"/>
</g>
<g id="Layer_2">
</g>
</svg>
