<svg xmlns="http://www.w3.org/2000/svg" viewBox="0 0 128 128">
    <path fill="#3a1ab6" d="M0 47.059s1.066 7.078 1.438 9.683c.261 1.836.707 2.66 2.12 3.496l.57.309 2.438 1.316-1.449-.77 6.688 3.727-.043.102-7.2-3.406c.383 1.336 1.122 3.906 1.438 5.043.336 1.222.719 1.668 1.883 2.101l2.148.805 1.324-.535-1.687 1.144L1.23 81.016c5.606-5.32 10.356-7.211 13.832-8.758 4.43-1.957 7.098-3.219 8.84-7.735 1.243-3.171 2.211-7.234 3.442-8.804l2.625-3.426s-5.434 1.469-6.688 1.89c-2.058.7-3.05 1.958-3.722 3.919-.176.523-.61 1.101-1.102 1.492l1.688 1.847-5.36-3.832Zm47.848 5.363c-4.02 0-7.438 3.008-7.438 7.07v1.235h-2.332v3.039h2.332v15.457h3.942V63.777h4.824v-3.039h-4.824v-1.234c0-1.816 1.406-3.375 3.496-3.375.359 0 .718.043 1.047.168l.921-3.629c-.359-.121-1.164-.246-1.968-.246Zm52.05 8.094a6.867 6.867 0 0 0-5.511 2.714v-2.503h-3.899V79.19h3.899V68.473c0-1.817 1.656-4.688 4.867-4.688 2.418 0 4.305 1.938 4.305 4.445v10.973h3.894V68.484c0-4.308-2.851-7.968-7.555-7.968Zm-41.16.011c-4.988 0-8.765 4.106-8.765 9.45 0 5.296 3.777 9.449 8.754 9.457 2.535 0 4.78-1.403 6.152-3.493v3.282h3.941V60.738h-3.933v3.282c-1.328-2.094-3.578-3.493-6.149-3.493Zm59.246 0c-4.988 0-8.765 4.106-8.765 9.45 0 5.296 3.777 9.449 8.765 9.457 2.536 0 4.782-1.403 6.153-3.493v3.282h3.941V60.738h-3.941v3.282c-1.328-2.094-3.582-3.493-6.153-3.493Zm-46.629.207v10.72c0 4.308 2.81 7.972 7.547 7.991 2.297 0 4.27-1.113 5.512-2.715v2.504h3.898V60.746h-3.898v10.719c0 1.937-1.723 4.683-4.902 4.683-2.492 0-4.258-2.054-4.258-4.437V60.734ZM59.38 63.61c3.137 0 5.508 2.84 5.508 6.368 0 4.183-2.938 6.363-5.508 6.363-3.016 0-5.469-2.79-5.469-6.363 0-3.497 2.453-6.368 5.469-6.368Zm59.246 0c3.137 0 5.512 2.84 5.512 6.368 0 4.183-2.942 6.363-5.512 6.363-3.016 0-5.465-2.79-5.465-6.363 0-3.497 2.45-6.368 5.465-6.368Zm0 0"/>
</svg>
