<svg viewBox="0 0 128 128" xmlns="http://www.w3.org/2000/svg">
  <path fill="#3a1ab6" d="M6.438-1.092 6.614.074s4.035 26.746 5.428 36.578h.002c.498 3.496 1.176 6.08 2.441 8.205 1.265 2.126 3.106 3.756 5.823 5.358l.007.006 2.149 1.176 3.754 2.021-.022.04 17.565 9.796-20.198-9.56.303 1.062c1.442 5.047 4.236 14.763 5.43 19.047.647 2.34 1.35 4.002 2.494 5.289 1.144 1.287 2.694 2.159 4.93 2.99l8.285 3.096.88-.354-2.591 1.76-31.934 41.397.74.667c21.128-20.044 38.964-27.148 52.106-33 8.373-3.702 15.114-6.75 20.615-11.048 5.5-4.299 9.733-9.853 13.05-18.454l.001-.002c2.356-6.015 4.443-12.85 6.522-18.914 2.078-6.063 4.17-11.362 6.404-14.21l.002-.003 10.812-14.126-1.423.384s-20.475 5.53-25.288 7.157l-.34.115v.049c-7.648 2.723-11.507 7.591-14.042 14.95v.003l-.002.004c-.613 1.844-2.216 3.991-3.989 5.404l-.42.334 3.534 3.867-16.375-11.7zM7.774 1.09l54.91 39.181 20.239 14.46.66-.745-6.06-6.632c1.75-1.511 3.288-3.522 3.94-5.481l.003-.006c2.522-7.317 6.108-11.876 13.758-14.484l.076-.026c4.46-1.498 21.615-6.14 23.71-6.709l-9.001 11.758c-2.413 3.078-4.475 8.415-6.56 14.5-2.087 6.087-4.173 12.914-6.509 18.877h-.002v.002c-3.265 8.472-7.363 13.83-12.732 18.026-5.369 4.195-12.036 7.223-20.404 10.923H63.8c-12.265 5.46-28.876 12.252-48.358 29.59l28.545-37.002 6.309-4.283-.467-.879-4.836 1.945-7.924-2.96h-.002c-2.163-.805-3.533-1.597-4.529-2.717s-1.65-2.614-2.28-4.893v-.002c-1.13-4.057-3.634-12.767-5.128-17.992l26.662 12.62.549-1.266L32.092 55.6l.062-.118-.002-.002-.101-.052-9.11-4.91-2.125-1.165-.002-.002c-2.63-1.55-4.306-3.052-5.468-5.005-1.163-1.955-1.823-4.396-2.313-7.834-1.35-9.535-5.016-33.818-5.258-35.422Z"/>
</svg>
