<svg xmlns="http://www.w3.org/2000/svg" viewBox="0 0 128 128"><path fill="#FB5B62" d="M68.232 53.06c1.629-1.744.195-4.571-2.175-4.288l-41.44 4.963c-1.253.15-2.296 1.054-2.55 2.29-1.593 7.79-.957 15.636 2.041 23.488 1.123 2.942 1.193 3.026-1.838 3.399a94.57 94.57 0 0 0-1.188.156c-2.285.31-4.591.623-6.89-.03-5.559-1.584 2.99-6.848 3.635-9.098.477-1.661-1.781-2.283-3.193-1.286-4.524 3.194-8.83 6.923-11.501 11.853-.571 1.14-.5 2.568-.286 3.34 1.582 5.681 13.825 4.65 17.858 3.926 5.285-.95 9.102-1.294 14.237-2.863 1.4-.428 1.426-.57 3.566-2.775 10.84-10.063 20.761-23.782 29.724-33.074zm38.589 13.313c-.369 6.9-2.439 13.782-5.965 19.73-5.905 9.964-15.8 17.746-28.375 20.106-6.279 1.127-10.845.984-15.973.198-3.7-.824-6.028-3.829-3.544-7.4 3.043-4.38 7.357-7.256 11.663-10.134 12.56-8.393 25.9-15.408 39.365-22.206 1.506-.76 2.934-2.26 2.829-.294zm8.935-16.101c3.163-2.502 6.219-5.717 8.383-9.16l.004-.003.004-.003c2.382-3.792 1.029-7.216-3.335-8.254-5.017-1.194-9.271-.713-14.406 0-1.251.174-1.57.443-1.997.713-.867.547-.963 2.217.285 2.425 2.283.143 9.761-.368 11.554.428 5.11 2.268-8.873 9.821-10.71 11.283-1.102.876-1.631.771-2.251-.608-4.862-10.81-12.781-18.476-23.847-22.829-6.936-2.727-14.08-3.35-21.463-2.418-3.977.503-7.098 1.595-10.753 3.019-1.205.47-2.8 1.27-3.908 1.906a46.82 46.82 0 0 0-7.168 5.025c-1.897 1.623-.783 4.527 1.702 4.76l45.747 4.295c2.03.19 3.033 2.562 1.757 4.152L59.839 77.628c-.928 1.155.257 3.06 1.633 2.51 10.38-4.166 20.471-9.222 30.462-14.245 8.332-4.19 16.527-9.851 23.822-15.621z"/></svg>
