<svg xmlns="http://www.w3.org/2000/svg" viewBox="0 0 128 128"><path fill="#fb5b62" d="M68.417 52.337c1.7-1.82.204-4.772-2.27-4.476l-43.258 5.18c-1.308.157-2.397 1.1-2.662 2.39-1.663 8.133-.999 16.323 2.13 24.52 1.173 3.07 1.246 3.158-1.918 3.547a98.718 98.718 0 0 0-1.24.163c-2.385.324-4.792.65-7.192-.031-5.803-1.654 3.121-7.149 3.794-9.497.498-1.734-1.859-2.383-3.333-1.343C7.746 76.124 3.251 80.017.463 85.163c-.596 1.19-.522 2.68-.299 3.487 1.652 5.93 14.432 4.854 18.642 4.098 5.516-.992 9.5-1.35 14.861-2.989 1.461-.446 1.489-.595 3.722-2.896 11.316-10.505 21.672-24.826 31.028-34.525ZM108.7 66.234c-.385 7.202-2.546 14.386-6.227 20.595-6.164 10.401-16.493 18.525-29.62 20.988-6.554 1.177-11.32 1.027-16.673.207-3.862-.86-6.292-3.997-3.7-7.725 3.177-4.572 7.68-7.574 12.175-10.578 13.111-8.761 27.036-16.084 41.092-23.18 1.572-.794 3.063-2.36 2.953-.307zm9.327-16.808c3.302-2.611 6.492-5.967 8.75-9.561l.005-.003.004-.004c2.486-3.958 1.074-7.532-3.482-8.616-5.237-1.246-9.677-.744-15.037 0-1.306.182-1.64.463-2.085.745-.905.57-1.005 2.314.297 2.531 2.384.15 10.19-.384 12.061.447 5.334 2.367-9.262 10.252-11.18 11.778-1.15.914-1.702.805-2.35-.635-5.074-11.284-13.34-19.286-24.892-23.83-7.24-2.847-14.698-3.497-22.405-2.525-4.151.526-7.409 1.665-11.224 3.152-1.258.49-2.923 1.326-4.08 1.99a48.874 48.874 0 0 0-7.482 5.245c-1.98 1.694-.817 4.726 1.777 4.969l47.753 4.483c2.12.198 3.166 2.675 1.834 4.334L59.656 77.982c-.969 1.206.268 3.195 1.705 2.62 10.835-4.348 21.369-9.626 31.798-14.87 8.698-4.373 17.252-10.282 24.867-16.306Z" style="stroke-width:1.04387"/></svg>
