<svg xmlns="http://www.w3.org/2000/svg" viewBox="0 0 128 128"><path fill="#a13974" d="M108.699 66.234c-.385 7.202-2.546 14.386-6.227 20.595-6.164 10.401-16.493 18.525-29.62 20.988-6.553 1.177-11.32 1.027-16.673.207-3.862-.86-6.293-3.997-3.7-7.725 3.177-4.572 7.68-7.574 12.175-10.578 13.111-8.761 27.037-16.084 41.092-23.181 1.572-.792 3.064-2.36 2.953-.306z"/><path fill="#fb5b62" d="M118.026 49.426c3.302-2.611 6.492-5.967 8.75-9.561l.005-.004.004-.003c2.486-3.958 1.074-7.532-3.481-8.616-5.237-1.246-9.678-.744-15.038 0-1.306.182-1.64.463-2.085.745-.905.57-1.005 2.314.298 2.53 2.383.15 10.189-.383 12.06.448 5.335 2.367-9.262 10.252-11.18 11.778-1.15.914-1.702.804-2.35-.635-5.074-11.284-13.34-19.286-24.892-23.83-7.24-2.847-14.698-3.497-22.405-2.525-4.151.526-7.409 1.665-11.224 3.152-1.258.49-2.923 1.326-4.08 1.99a48.874 48.874 0 0 0-7.482 5.245c-1.98 1.694-.818 4.726 1.776 4.969l47.754 4.483c2.12.198 3.166 2.675 1.834 4.334L59.656 77.982c-.969 1.206.268 3.195 1.705 2.62 10.835-4.348 21.369-9.626 31.799-14.87 8.697-4.373 17.25-10.282 24.866-16.306z"/><path fill="#efa16d" fill-rule="evenodd" d="M68.417 52.337c1.7-1.82.204-4.772-2.27-4.476l-43.258 5.18c-1.308.157-2.397 1.1-2.662 2.39-1.663 8.133-.999 16.323 2.13 24.52 1.173 3.07 1.246 3.158-1.918 3.547-.412.051-.825.107-1.24.163-2.385.324-4.793.65-7.192-.031-5.803-1.654 3.12-7.149 3.794-9.497.498-1.734-1.859-2.383-3.333-1.343C7.746 76.124 3.251 80.017.463 85.163c-.597 1.191-.522 2.68-.299 3.487 1.651 5.93 14.431 4.854 18.641 4.098 5.517-.992 9.502-1.35 14.862-2.989 1.461-.446 1.488-.595 3.722-2.896 11.316-10.505 21.672-24.826 31.028-34.525z"/></svg>
