<svg xmlns="http://www.w3.org/2000/svg" xml:space="preserve" viewBox="0 0 128 128"><linearGradient id="a" x1="14.704" x2="110.985" y1="46.27" y2="92.024" gradientTransform="matrix(1 0 0 -1 0 130)" gradientUnits="userSpaceOnUse"><stop offset="0" stop-color="#e40035"/><stop offset=".24" stop-color="#f60a48"/><stop offset=".352" stop-color="#f20755"/><stop offset=".494" stop-color="#dc087d"/><stop offset=".745" stop-color="#9717e7"/><stop offset="1" stop-color="#6c00f5"/></linearGradient><path fill="url(#a)" d="m124.5 21.3-4.4 68.6L78.3 0l46.2 21.3zm-29 88.7L64 128l-31.5-18 6.4-15.5h50.3l6.3 15.5zM64 34.1l16.5 40.2h-33L64 34.1zM7.9 89.9 3.5 21.3 49.7 0 7.9 89.9z"/><linearGradient id="b" x1="28.733" x2="91.742" y1="117.071" y2="45.195" gradientTransform="matrix(1 0 0 -1 0 130)" gradientUnits="userSpaceOnUse"><stop offset="0" stop-color="#ff31d9"/><stop offset="1" stop-color="#ff5be1" stop-opacity="0"/></linearGradient><path fill="url(#b)" d="m124.5 21.3-4.4 68.6L78.3 0l46.2 21.3zm-29 88.7L64 128l-31.5-18 6.4-15.5h50.3l6.3 15.5zM64 34.1l16.5 40.2h-33L64 34.1zM7.9 89.9 3.5 21.3 49.7 0 7.9 89.9z"/></svg>
