<svg xmlns="http://www.w3.org/2000/svg" viewBox="0 0 128 128">
  <defs>
    <linearGradient id="b" x1="64" y1="0" x2="64" y2="128" gradientUnits="userSpaceOnUse">
      <stop offset="0" stop-color="#7acbd4" />
      <stop offset="1" stop-color="#29c6b7" />
    </linearGradient>
  </defs>
  <circle cx="64" cy="64" r="64" fill="url(#b)" />
  <path
    d="M93.56,57.89c.15-.16,.25-.38,.25-.62,0-.51-.41-.92-.92-.92h-28.02c-1.71,0-1.43-.92-.82-2.04,.61-1.13,16.11-29.4,16.11-29.4h0c.07-.15,.11-.3,.11-.47,0-.6-.49-1.08-1.08-1.08-.3,0-.57,.12-.76,.31h0s0,0,0,0h0s-43.93,43.78-43.93,43.78h0c-.19,.18-.3,.42-.3,.7,0,.53,.43,.96,.96,.96h29.97c1.88,0,1.21,1.08,.75,1.71-.46,.63-23.15,32-23.15,32-.14,.19-.23,.42-.23,.68,0,.62,.5,1.13,1.13,1.13,.31,0,.59-.12,.79-.32h0s49.13-46.38,49.13-46.38c0,0,0,0,.01-.01l.02-.02h0Z"
    fill="#fff" />
</svg>