<svg viewBox="0 0 128 128" xmlns="http://www.w3.org/2000/svg"><defs><linearGradient id="prefix__a" x1="64" x2="64" y1="0" y2="128" gradientUnits="userSpaceOnUse" gradientTransform="matrix(.25859 0 0 .25859 0 47.45)"><stop offset="0" stop-color="#7acbd4"/><stop offset="1" stop-color="#29c6b7"/></linearGradient></defs><path d="M58.382 52.674v22.192h3.556V66.1c.061-1.9 1.134-3.372 3.096-3.372 2.238 0 3.065 1.471 3.065 3.31v8.828h3.556v-9.44c0-3.28-1.778-5.917-5.456-5.917-1.564 0-3.25.552-4.261 1.87v-8.705zm31.463 0v22.192h3.525v-4.168l1.84-1.931 4.383 6.1h4.352l-6.253-8.614 6.13-6.314h-4.72l-5.732 6.038V52.674zm-40.352 6.805c-4.292 0-7.633 3.31-7.633 7.908 0 4.537 3.341 7.94 7.725 7.94 3.923 0 6.16-2.545 6.866-4.875l-3.127-1.134c-.337 1.134-1.41 2.759-3.74 2.759-2.237 0-4.168-1.686-4.168-4.69 0-3.004 1.931-4.628 4.107-4.628 2.269 0 3.28 1.471 3.617 2.789l3.188-1.165c-.613-2.39-2.82-4.904-6.835-4.904zm30.935 0c-3.678 0-6.008 2.299-6.284 4.873l3.25.736c.153-1.502 1.195-2.697 3.065-2.697 1.961 0 2.82 1.011 2.82 2.268 0 .521-.245.95-1.104 1.073l-3.831.582c-2.544.368-4.506 1.84-4.506 4.506 0 2.36 1.93 4.506 5.057 4.506 2.422 0 3.893-1.226 4.598-2.36 0 1.195.123 1.808.154 1.9h3.31c-.03-.153-.184-1.042-.184-2.39v-7.419c0-2.973-1.747-5.578-6.345-5.578zm41.043 0c-3.678 0-6.008 2.299-6.284 4.873l3.25.736c.153-1.502 1.195-2.697 3.065-2.697 1.961 0 2.82 1.011 2.82 2.268 0 .521-.246.95-1.104 1.073l-3.831.582c-2.545.368-4.506 1.84-4.506 4.506 0 2.36 1.93 4.506 5.057 4.506 2.422 0 3.893-1.226 4.598-2.36 0 1.195.123 1.808.153 1.9H128c-.03-.153-.184-1.042-.184-2.39v-7.419c0-2.973-1.747-5.578-6.345-5.578zm-8.393.276c-1.962 0-3.617.95-4.322 2.574v-2.39h-3.464v14.927h3.556v-7.11c0-2.79 1.257-4.384 4.016-4.384.367 0 .766.03 1.164.092v-3.617a5.087 5.087 0 00-.95-.092zM83.278 68v.674c0 2.912-1.716 3.863-3.708 3.863-1.41 0-2.177-.92-2.177-1.931 0-1.227.89-1.84 1.993-2.023zm41.044 0v.674c0 2.912-1.717 3.863-3.71 3.863-1.41 0-2.175-.92-2.175-1.931 0-1.227.888-1.84 1.992-2.023z" fill="#374152"/><circle cx="16.55" cy="64" r="16.55" fill="url(#prefix__a)"/><path fill="#fff" d="M24.194 62.42a.236.236 0 00-.174-.398h-7.245c-.443 0-.37-.238-.212-.528.157-.292 4.165-7.602 4.165-7.602a.28.28 0 00.029-.122.28.28 0 00-.476-.199L8.921 64.892a.248.248 0 00.17.43h7.75c.487 0 .314.279.195.442-.12.162-5.987 8.274-5.987 8.274a.292.292 0 00.233.468c.08 0 .153-.03.204-.082.052-.052 12.705-11.994 12.705-11.994l.003-.002.005-.005z"/></svg>
