<svg viewBox="0 0 128 128" xmlns="http://www.w3.org/2000/svg"><path d="M16.549 47.451A16.55 16.55 0 000 64a16.55 16.55 0 0016.549 16.549A16.55 16.55 0 0033.099 64a16.55 16.55 0 00-16.55-16.549zm41.834 5.223v22.193h3.554V66.1c.062-1.9 1.134-3.371 3.096-3.371 2.238 0 3.067 1.47 3.067 3.31v8.828h3.554v-9.441c0-3.28-1.777-5.916-5.455-5.916-1.563 0-3.25.55-4.261 1.869v-8.705h-3.555zm31.463 0v22.193h3.525v-4.17l1.838-1.931 4.383 6.101h4.353l-6.254-8.613 6.131-6.315h-4.72l-5.73 6.038V52.674h-3.526zm-69.367.816a.28.28 0 01.279.28.287.287 0 01-.03.123s-4.008 7.309-4.166 7.601c-.157.29-.229.527.213.527h7.245a.236.236 0 01.173.399l.006.002-.006.006-.002.002S11.538 74.372 11.486 74.424a.288.288 0 01-.205.082.292.292 0 01-.232-.467l5.986-8.275c.12-.163.293-.442-.193-.442h-7.75a.25.25 0 01-.17-.43l11.36-11.322a.28.28 0 01.197-.08zm29.013 5.989c-4.291 0-7.63 3.31-7.63 7.908 0 4.536 3.339 7.94 7.722 7.94 3.923 0 6.162-2.544 6.867-4.874l-3.127-1.135c-.337 1.134-1.41 2.758-3.74 2.758-2.238 0-4.168-1.685-4.168-4.69 0-3.003 1.931-4.628 4.107-4.628 2.269 0 3.28 1.473 3.618 2.79l3.187-1.165c-.613-2.391-2.82-4.904-6.836-4.904zm30.936 0c-3.679 0-6.008 2.298-6.283 4.873l3.248.736c.153-1.502 1.196-2.697 3.066-2.697 1.962 0 2.82 1.01 2.82 2.267 0 .521-.245.952-1.103 1.074l-3.832.582c-2.544.368-4.506 1.84-4.506 4.506 0 2.36 1.93 4.506 5.057 4.506 2.421 0 3.894-1.225 4.6-2.36 0 1.196.12 1.81.151 1.901h3.311c-.03-.153-.184-1.044-.184-2.392v-7.418c0-2.974-1.747-5.578-6.345-5.578zm41.043 0c-3.679 0-6.008 2.298-6.284 4.873l3.249.736c.153-1.502 1.196-2.697 3.066-2.697 1.962 0 2.82 1.01 2.82 2.267 0 .521-.245.952-1.103 1.074l-3.832.582c-2.544.368-4.506 1.84-4.506 4.506 0 2.36 1.932 4.506 5.058 4.506 2.422 0 3.893-1.225 4.598-2.36 0 1.196.122 1.81.152 1.901H128c-.03-.153-.184-1.044-.184-2.392v-7.418c0-2.974-1.747-5.578-6.345-5.578zm-8.393.275c-1.962 0-3.617.952-4.322 2.576v-2.39h-3.463v14.927h3.555v-7.111c0-2.79 1.257-4.385 4.015-4.385.368 0 .766.03 1.164.092v-3.615a5.036 5.036 0 00-.949-.094zM83.28 68v.674c0 2.912-1.716 3.863-3.709 3.863-1.41 0-2.177-.92-2.177-1.932 0-1.226.89-1.84 1.994-2.023L83.279 68zm41.043 0v.674c0 2.912-1.716 3.863-3.709 3.863-1.41 0-2.177-.92-2.177-1.932 0-1.226.89-1.84 1.994-2.023l3.892-.582z"/></svg>
