<svg xmlns="http://www.w3.org/2000/svg" viewBox="0 0 128 128"><path d="M21.023 43.973c.344.425.52 1.004.872 2.156l7.664 25.2a31.983 31.983 0 0 0-9.164-3.106l-4.993-16.875a.652.652 0 0 0-.62-.47.653.653 0 0 0-.626.47l-4.93 16.867a31.842 31.842 0 0 0-9.203 3.11l7.7-25.2c.351-1.152.53-1.727.875-2.156a2.854 2.854 0 0 1 1.144-.848c.512-.203 1.113-.203 2.317-.203h5.5c1.207 0 1.808 0 2.316.203.45.18.844.473 1.148.852Zm.918 28.554c-1.265 1.082-3.785 1.82-6.691 1.82-3.566 0-6.555-1.109-7.348-2.605-.285.856-.347 1.836-.347 2.461 0 0-.188 3.074 1.949 5.215 0-1.11.902-2.012 2.008-2.012 1.902 0 1.902 1.66 1.898 3.008v.121a4.912 4.912 0 0 0 3.027 4.535 4.13 4.13 0 0 1-.417-1.808c0-1.95 1.144-2.676 2.472-3.52 1.059-.672 2.235-1.418 3.047-2.914.422-.777.66-1.672.66-2.625 0-.582-.09-1.144-.258-1.676Zm25.215-1.59c3.207 0 5.614-1.144 6.598-3.085 0 .925.062 1.878.215 2.62h5.273c-.246-1.077-.37-2.558-.37-4.503v-4.754c0-4.504-2.653-6.633-8.54-6.633-5.148 0-8.602 2.129-9 5.617h5.484c.188-1.511 1.45-2.344 3.516-2.344 2.035 0 3.176.833 3.176 2.56v.464l-5.578.492c-2.715.277-4.254.742-5.336 1.48-1.14.774-1.727 1.946-1.727 3.395 0 2.899 2.406 4.688 6.29 4.688Zm2.035-3.21c-1.789 0-2.867-.711-2.867-1.852 0-1.172.895-1.79 3.145-2.066l4.133-.434v.93c0 2.066-1.79 3.422-4.41 3.422Zm21.168 3.21c5.368 0 8.11-2.007 8.11-5.246 0-2.683-1.54-4.164-5.274-4.66l-4.652-.523c-1.328-.188-1.883-.524-1.883-1.266 0-.894.895-1.297 2.93-1.297 2.805 0 4.746.649 6.32 1.914l2.496-2.5c-1.722-1.789-4.715-2.777-8.414-2.777-5.21 0-8.11 1.855-8.11 4.969 0 2.715 1.79 4.226 5.49 4.722l4.19.493c1.665.214 2.16.523 2.16 1.324 0 .926-.925 1.422-3.085 1.422-3.203 0-5.364-.864-6.813-2.469l-2.836 2.344c1.883 2.343 5.086 3.55 9.371 3.55ZM82.82 58.535v6.508c0 3.824 2.16 5.77 6.785 5.77 1.418 0 2.528-.157 3.575-.465V66.34a9.507 9.507 0 0 1-2.125.246c-1.946 0-2.899-.863-2.899-2.684v-5.367h5.055v-3.488h-5.055v-5.645l-5.336 1.973v3.672h-3.453v3.488Zm18.047-3.488h-4.87v15.426h5.331v-5.77c0-1.664.371-3.176 1.39-4.133.802-.742 1.942-1.14 3.544-1.14.586 0 1.05.058 1.574.12v-4.843c-.34-.062-.586-.062-1.02-.062-3.05 0-5.117 1.761-5.949 4.628Zm17.508 15.89c5.64 0 9.617-2.996 9.617-8.207 0-5.183-3.976-8.148-9.617-8.148-5.672 0-9.648 2.965-9.648 8.148 0 5.211 3.976 8.208 9.648 8.208Zm0-3.55c-2.59 0-4.223-1.664-4.223-4.657 0-2.996 1.633-4.597 4.223-4.597 2.559 0 4.191 1.601 4.191 4.597 0 2.993-1.632 4.657-4.191 4.657Zm0 0"/></svg>
