<?xml version="1.0" encoding="UTF-8"?>
<svg xmlns="http://www.w3.org/2000/svg" xmlns:xlink="http://www.w3.org/1999/xlink" width="128px" height="128px"
  viewBox="0 0 128 128" version="1.1">
  <path fill-rule="evenodd" fill="#000000" fill-opacity="1"
    d="M 81.503906 9.464844 C 82.476562 10.671875 82.972656 12.300781 83.960938 15.554688 L 105.617188 86.691406 C 97.609375 82.535156 88.90625 79.542969 79.726562 77.925781 L 65.628906 30.28125 C 65.398438 29.5 64.683594 28.964844 63.871094 28.964844 C 63.054688 28.964844 62.335938 29.503906 62.109375 30.285156 L 48.179688 77.902344 C 38.957031 79.511719 30.214844 82.511719 22.175781 86.679688 L 43.933594 15.539062 C 44.929688 12.289062 45.425781 10.664062 46.398438 9.457031 C 47.257812 8.394531 48.371094 7.570312 49.640625 7.058594 C 51.074219 6.484375 52.777344 6.484375 56.175781 6.484375 L 71.71875 6.484375 C 75.121094 6.484375 76.824219 6.484375 78.261719 7.0625 C 79.527344 7.570312 80.644531 8.398438 81.503906 9.464844 Z M 81.503906 9.464844 M 84.09375 90.074219 C 80.523438 93.128906 73.398438 95.210938 65.191406 95.210938 C 55.121094 95.210938 46.675781 92.074219 44.4375 87.855469 C 43.636719 90.273438 43.457031 93.039062 43.457031 94.808594 C 43.457031 94.808594 42.929688 103.484375 48.964844 109.519531 C 48.964844 106.386719 51.503906 103.847656 54.636719 103.847656 C 60.007812 103.847656 60.003906 108.53125 60 112.335938 C 60 112.449219 60 112.5625 60 112.671875 C 60 118.445312 63.527344 123.390625 68.542969 125.476562 C 67.792969 123.9375 67.371094 122.203125 67.371094 120.378906 C 67.371094 114.871094 70.601562 112.824219 74.359375 110.441406 C 77.347656 108.546875 80.667969 106.441406 82.953125 102.21875 C 84.148438 100.011719 84.828125 97.488281 84.828125 94.808594 C 84.828125 93.15625 84.570312 91.566406 84.09375 90.074219 Z M 84.09375 90.074219 " />
</svg>
