<svg viewBox="0 0 128 128" xmlns="http://www.w3.org/2000/svg">
<path d="m64.053 1.5586c-8.3789 0.023667-16.67 1.6999-24.4 4.9316-7.7306 3.2317-14.75 7.9557-20.652 13.902-5.9028 5.9466-10.576 13-13.75 20.754-3.1744 7.7544-4.7883 16.057-4.75 24.436-0.030241 13.4 4.1485 26.471 11.945 37.369 7.7968 10.898 18.818 19.072 31.51 23.369 3.1565 0.63606 4.3145-1.3781 4.3145-3.0742 0-1.4839-0.10547-6.571-0.10547-11.871-17.677 3.8161-21.359-7.6328-21.359-7.6328-2.8409-7.4201-7.0488-9.3281-7.0488-9.3281-5.7872-3.922 0.41992-3.9219 0.41992-3.9219 6.4184 0.42399 9.7852 6.5723 9.7852 6.5723 5.6818 9.752 14.837 6.9969 18.52 5.3008 0.26471-3.2476 1.6827-6.2933 3.998-8.5859-14.099-1.4842-28.936-6.9958-28.936-31.588-0.07633-6.3432 2.2547-12.479 6.5234-17.172-0.63129-1.5901-2.8394-8.1631 0.63281-16.961 0 0 5.3648-1.6959 17.465 6.5723 5.18-1.4012 10.523-2.1132 15.889-2.1191 5.3663 6e-3 10.709 0.71791 15.889 2.1191 12.1-8.2682 17.467-6.5723 17.467-6.5723 3.4724 8.7979 1.2623 15.371 0.63086 16.961 2.442 2.6355 4.2638 5.7826 5.332 9.2129 1.6384-1.2193 3.6257-1.8774 5.668-1.875 1.4437 2e-3 2.868 0.32931 4.168 0.95703l9.0078 4.3555c0.50575 0.24315 1.0686 0.34307 1.627 0.28711 0.55827-0.05596 1.0897-0.26485 1.5371-0.60352 0.44754-0.33853 0.79232-0.79426 0.99804-1.3164 0.20558-0.52202 0.26441-1.0899 0.16797-1.6426-2.5274-14.755-10.181-28.145-21.613-37.811-11.432-9.6655-25.909-14.987-40.879-15.025zm45.012 56.09c-0.21133-0.001018-0.42386 0.014098-0.63476 0.044921-0.84349 0.1233-1.6302 0.4973-2.2578 1.0742-0.60417 0.55919-27.27 25.01-27.27 25.01l-11.811-9.0117c-0.53181-0.40653-1.1887-0.61362-1.8574-0.58398-0.66873 0.02963-1.3051 0.29419-1.7988 0.74609l-3.7891 3.4648c-0.29501 0.27067-0.5321 0.60022-0.69336 0.9668-0.1614 0.36645-0.24388 0.76362-0.24414 1.1641-2.65e-4 0.40044 0.083273 0.7954 0.24414 1.1621 0.16073 0.36671 0.39471 0.69573 0.68945 0.9668l10.242 9.3926-10.242 9.3906c-0.29474 0.27107-0.53054 0.60008-0.69141 0.96679-0.16073 0.36671-0.24245 0.76362-0.24219 1.1641 2.65e-4 0.40031 0.08288 0.79567 0.24414 1.1621 0.16126 0.36658 0.39835 0.69612 0.69336 0.96679l3.7891 3.4648c0.49371 0.45204 1.1301 0.71646 1.7988 0.74609 0.66873 0.0296 1.3256-0.17745 1.8574-0.58398l11.811-9.0098s26.665 24.451 27.27 25.01c0.62758 0.57706 1.4143 0.95078 2.2578 1.0742 0.84362 0.12329 1.7042-0.0096 2.4707-0.38281l14.164-6.8496c0.73064-0.35507 1.3466-0.90881 1.7774-1.5976 0.43087-0.68884 0.65873-1.4864 0.6582-2.2988v-46.447c5.3e-4 -0.8124-0.22746-1.608-0.6582-2.2969-0.43087-0.68884-1.0467-1.2425-1.7774-1.5977l-14.164-6.8496c-0.57487-0.2798-1.2019-0.42468-1.8359-0.42773zm1.248 18.701v31.391l-20.572-15.695 20.572-15.695z"/>
</svg>