<svg viewBox="0 0 128 128" xmlns="http://www.w3.org/2000/svg">
<defs>
<linearGradient id="c" x1="11.622" x2="11.622" y1="7.0233" y2="13.825" gradientTransform="matrix(7.9375 0 0 7.9375 .5 .59189)" gradientUnits="userSpaceOnUse">
<stop stop-color="#0196CA" offset="0"/>
<stop stop-color="#0065A9" offset="1"/>
</linearGradient>
<linearGradient id="b" x1="11.622" x2="11.622" y1="8.6747" y2="15.977" gradientTransform="matrix(7.9375 0 0 7.9375 .5 .59189)" gradientUnits="userSpaceOnUse">
<stop stop-color="#01A7DE" offset="0"/>
<stop stop-color="#007ACC" offset="1"/>
</linearGradient>
<linearGradient id="a" x1="14.594" x2="14.594" y1="7.0232" y2="15.977" gradientTransform="matrix(7.9375 0 0 7.9375 .5 .59189)" gradientUnits="userSpaceOnUse">
<stop stop-color="#2EC2F6" offset="0"/>
<stop stop-color="#1F9CF0" offset="1"/>
</linearGradient>
</defs>
<path d="m0.5 64.092c0-35.084 28.416-63.5 63.5-63.5 29.601 0 54.457 20.23 61.501 47.625h-24.065c-0.92869-1.6278-2.0391-3.1343-3.3052-4.5244 0.635-1.5875 2.8575-8.0962-0.635-16.828 0 0-5.3181-1.7462-17.462 6.5088-5.08-1.4288-10.478-2.1431-15.875-2.1431s-10.795 0.71438-15.875 2.1431c-12.144-8.1756-17.462-6.5088-17.462-6.5088-3.4925 8.7312-1.27 15.24-0.635 16.828-4.0481 4.445-6.5088 10.16-6.5088 17.066 0 17.057 7.2811 24.836 16.51 28.507v12.959c-3.4919-0.28337-7.2642-1.9915-10.16-6.858-1.1906-1.905-4.7625-6.5881-9.7631-6.5088-5.3181 0.07937-2.1431 3.0162 0.07937 4.2069 2.6988 1.5081 5.7944 7.1437 6.5088 8.9694 1.0235 2.8789 3.9033 7.8716 13.335 8.1629v12.767c-23.282-9.4226-39.687-32.176-39.687-58.871z" fill="#24292e"/>
<path d="m124.97 63.867-14.719-7.0871c-1.7034-0.82034-3.7394-0.47426-5.0768 0.86281l-46.201 39.965c-1.296 1.1819-1.2946 3.2226 0.0033 4.4021l7.9046 7.547c1.061 0.9644 2.6589 1.0358 3.8013 0.16906l40.941-31.744 9.6464-10.638c0.98822-1.0901 2.0995-2.3818 3.5631-2.2293 1.4121 0.14716 2.6654 1.3101 2.6654 2.9458v-0.17089c0-1.7151-0.98266-3.2787-2.5281-4.0228z" fill="url(#c)"/>
<path d="m124.97 119.88-14.719 7.0866c-1.7034 0.82074-3.7394 0.47467-5.0768-0.8628l-46.201-43.933c-1.296-1.1819-1.2946-3.2225 0.0033-4.4024l7.9046-7.5469c1.061-0.96456 2.6589-1.0356 3.8013-0.16899l40.941 35.712 9.6464 10.639c0.98822 1.0898 2.0995 2.382 3.5631 2.2296 1.4129-0.14764 2.6654-1.3105 2.6654-2.9464v0.17145c0 1.7153-0.98266 3.2782-2.5281 4.0227z" fill="url(#b)"/>
<path d="m110.25 126.97c-1.7042 0.81995-3.7402 0.47308-5.0776-0.86439 1.6478 1.6478 6.4492 0.48101 6.4492-1.8494v-64.762c0-2.3301-4.8014-3.497-6.4492-1.8494 1.3375-1.3372 3.3734-1.6837 5.0776-0.86416l14.717 5.093c1.5462 0.74366 2.5297 2.3077 2.5297 4.0237v51.956c0 1.7153-0.98346 3.2798-2.5297 4.0235z" fill="url(#a)"/>
</svg>