<svg xmlns="http://www.w3.org/2000/svg" viewBox="0 0 128 128"> <path d="M22.321 44.446v21.839L8.307 44.865l-.433.44-6.034 6.1 21.067 32.106 6.455-6.465-1.99-3.043 2.068 3.117 1.922-2.094-.05-21.533-.147-.146Zm-14.173 2 19.936 30.467-5.016 5.024-19.95-30.405Zm15.171.419 6.994 7.039.05 20.735-.795.868-6.249-9.413zM97.7 50.248V54.563h5.012v-4.315zm.998.998h3.016v2.32h-3.016Zm-96.965.48L0 53.477v21.5l8.58 8.578V61.94Zm-.105 1.098 6.253 9.33v19.713l-7.183-7.18V53.765Zm111.164 2.492a5.617 5.617 0 0 0-1.457.177l-.002.002h-.004c-.43.117-.845.281-1.238.49h-.002v.002a6.376 6.376 0 0 0-1.076.736l-.002.002-.002.002c-.09.078-.172.173-.26.255l-.072-.34-.008-.026a1.55 1.55 0 0 0-1.465-1.05h-2.876v17.167h4.887V60.62c.35-.382.717-.707 1.11-.932h.001c.4-.23.854-.353 1.316-.352h.002c.753 0 1.222.197 1.548.57l.002.002c.317.36.53 1.018.53 2.035v10.79h4.902v-10.79c0-.461.063-.842.185-1.164.129-.334.293-.592.494-.794.21-.21.445-.365.728-.478h.002c.276-.112.581-.171.92-.171.774 0 1.264.21 1.607.607.346.4.556 1.044.556 2v10.79H128V61.944c0-1.02-.125-1.94-.395-2.761-.264-.812-.655-1.516-1.177-2.097l-.002-.002a5.048 5.048 0 0 0-1.932-1.325h-.002c-.76-.3-1.615-.444-2.556-.444h-.002a7.338 7.338 0 0 0-1.646.183h-.002a6.218 6.218 0 0 0-1.562.586c-.504.27-.963.616-1.362 1.025-.239.243-.4.567-.592.86-.326-.627-.63-1.279-1.148-1.712-.754-.634-1.72-.94-2.825-.942zm-32.42.17 6.766 17.071h4.173l.125-.315L97.7 56.396v16.336h5.012v-17.07H97.99l.07-.177h-3.776c-.351 0-.691.107-.965.302h-.002l-.002.002c-.259.188-.456.45-.562.745v.002l-.002.002-3.168 8.58c-.125.336-.214.664-.31.994-.094-.328-.178-.652-.298-.988v-.002l-3.09-8.584a1.597 1.597 0 0 0-.576-.75l-.002-.003-.002-.002a1.732 1.732 0 0 0-1-.298zm-35.31.527c-1.233 0-2.38.301-3.397.895-.69.404-1.224 1.003-1.784 1.57L39.8 57.1l-.004-.025a.981.981 0 0 0-.321-.597 1.003 1.003 0 0 0-.644-.216h-1.31v16.642H40.006V60.882c.63-.819 1.323-1.487 2.101-1.957a4.91 4.91 0 0 1 2.58-.718h.002c1.275 0 2.107.36 2.669 1.06.577.724.893 1.748.893 3.14v10.497h2.48V62.408c0-.951-.113-1.818-.352-2.596v-.002c-.235-.777-.585-1.462-1.062-2.033l-.002-.002a4.685 4.685 0 0 0-1.803-1.315h-.002c-.722-.302-1.542-.447-2.448-.447zm14.522 0c-1.171 0-2.239.205-3.187.622a6.832 6.832 0 0 0-2.403 1.736l-.002.002a7.594 7.594 0 0 0-1.484 2.616c-.338 1.004-.506 2.091-.506 3.261 0 1.372.176 2.602.543 3.697.36 1.082.884 2.018 1.566 2.782a6.729 6.729 0 0 0 2.453 1.755h.002c.952.402 2.001.595 3.129.595.622 0 1.244-.062 1.856-.181h.002c.607-.121 1.179-.28 1.72-.486a7.747 7.747 0 0 0 1.482-.744l.002-.002c.42-.267.796-.598 1.115-.98l.262-.317-.648-.786a.926.926 0 0 0-.727-.374c-.382 0-.543.165-.806.366-.2.149-.496.333-.873.539v-.002c-.351.19-.808.372-1.366.54-.516.154-1.155.238-1.906.238-.827 0-1.557-.14-2.207-.416a4.343 4.343 0 0 1-1.644-1.218c-.453-.542-.814-1.227-1.07-2.062v-.002c-.24-.772-.349-1.708-.366-2.744H65.33c.244 0 .53-.086.71-.307.206-.253.216-.508.216-.788 0-1.145-.162-2.178-.498-3.09v-.001c-.331-.903-.796-1.679-1.401-2.314a6.023 6.023 0 0 0-2.13-1.443h-.002a6.982 6.982 0 0 0-2.638-.492Zm14.815 0c-1.196 0-2.282.201-3.251.612a6.803 6.803 0 0 0-2.463 1.751v.002c-.669.757-1.178 1.666-1.52 2.709-.347 1.048-.513 2.209-.513 3.474 0 1.268.166 2.427.513 3.47.342 1.04.851 1.947 1.518 2.7h.002a6.684 6.684 0 0 0 2.463 1.745h.002c.969.407 2.054.603 3.249.603 1.192 0 2.277-.195 3.247-.603h.002a6.629 6.629 0 0 0 2.455-1.747h.002c.664-.753 1.168-1.66 1.51-2.699.347-1.042.512-2.201.512-3.469 0-1.265-.166-2.426-.512-3.474v-.002c-.343-1.042-.848-1.95-1.512-2.705v-.002a6.745 6.745 0 0 0-2.453-1.753c-.97-.411-2.058-.612-3.251-.612zm38.389.3h.004c.928 0 1.627.237 2.189.71h.002c.58.486 1.02 1.14 1.319 1.982l.404 1.136.516-1.09c.232-.489.516-.901.852-1.245h.002c.329-.336.706-.62 1.12-.842v-.002h.003c.408-.22.843-.382 1.311-.49.467-.107.945-.161 1.424-.16.841 0 1.57.13 2.195.376h.002l.002.002a4.053 4.053 0 0 1 1.554 1.064c.42.469.744 1.043.971 1.741v.002c.23.698.346 1.51.346 2.448v9.791h-2.887v-9.793c0-1.102-.242-2.007-.8-2.652-.552-.64-1.39-.951-2.361-.951-.456 0-.89.079-1.292.24-.402.161-.759.395-1.062.7a3.246 3.246 0 0 0-.722 1.143v.002h-.002c-.174.459-.25.965-.25 1.518v9.793h-2.906v-9.793c0-1.15-.224-2.063-.778-2.693-.54-.617-1.354-.91-2.3-.91a3.616 3.616 0 0 0-1.815.482c-.54.31-1.04.726-1.49 1.247l-.12.142v11.525h-2.892V56.563h1.878c.342 0 .41.051.513.362l.446 2.111.655-.73c.269-.298.549-.57.839-.82l.004-.004c.282-.238.581-.443.899-.615l.004-.002a4.956 4.956 0 0 1 1.021-.405 4.63 4.63 0 0 1 1.202-.148zm-30.948.17h2.465c.202 0 .32.044.425.117h.002a.55.55 0 0 1 .214.275l3.09 8.583c.173.486.317.961.429 1.422v.004c.119.47.227.947.32 1.417h.978c.092-.472.196-.946.313-1.417v-.002c.112-.456.262-.931.444-1.418l3.169-8.587v-.002a.546.546 0 0 1 .214-.277v-.002a.597.597 0 0 1 .381-.113h2.31L90.631 71.56h-2.817zm16.858.176h3.016v15.077h-3.016Zm-53.636.352c.8 0 1.486.127 2.064.37h.002l.002.001a3.686 3.686 0 0 1 1.423 1.037c.38.456.668 1.01.871 1.681l.002.002c.204.664.308 1.434.308 2.306v9.498h-.487v-9.498c0-1.546-.354-2.82-1.109-3.765h-.002c-.77-.959-1.97-1.433-3.445-1.434h-.002c-.973-.004-1.9.316-2.757.769.09-.058.145-.156.237-.21.863-.504 1.82-.757 2.893-.757zm14.522 0h.002c.826 0 1.579.14 2.266.418v.002h.002c.673.269 1.28.679 1.78 1.204v.002c.502.526.896 1.175 1.187 1.97v.001c.288.78.438 1.694.438 2.745 0 .11.005.083.004.098H53.498v.8c0 1.207.14 2.289.436 3.237.288.94.707 1.749 1.259 2.408a5.328 5.328 0 0 0 2.02 1.496c.784.333 1.654.496 2.594.496.825 0 1.554-.088 2.191-.278H62v-.002c.602-.182 1.12-.381 1.556-.619.406-.221.738-.424.999-.618l.002-.002.003-.002c.1-.076.159-.106.181-.12l.059.07c-.186.179-.361.372-.58.51h-.004a6.759 6.759 0 0 1-1.296.653h-.002c-.48.183-1 .327-1.562.44a8.74 8.74 0 0 1-1.661.163c-1.015 0-1.925-.172-2.742-.518l-.002-.002a5.733 5.733 0 0 1-2.093-1.496l-.002-.002c-.582-.652-1.04-1.46-1.364-2.434v-.002c-.326-.972-.494-2.094-.494-3.38 0-1.074.153-2.051.453-2.943.3-.889.73-1.64 1.288-2.274l.002-.002a5.828 5.828 0 0 1 2.05-1.48h.003l.002-.003c.807-.354 1.733-.537 2.788-.537zm14.815 0c1.081 0 2.03.18 2.862.533.836.355 1.526.85 2.095 1.496.568.646 1.006 1.428 1.311 2.358.308.93.461 1.984.461 3.163 0 1.18-.154 2.233-.46 3.154v.002c-.305.926-.745 1.709-1.312 2.352a5.63 5.63 0 0 1-2.09 1.485h-.001l-.004.002c-.831.35-1.779.527-2.862.527-1.087 0-2.034-.179-2.864-.527h-.004l-.002-.002a5.69 5.69 0 0 1-2.099-1.487c-.57-.643-1.013-1.425-1.317-2.35v-.002c-.307-.921-.463-1.973-.463-3.154 0-1.18.154-2.233.463-3.163.304-.928.745-1.71 1.317-2.358l.002-.002a5.805 5.805 0 0 1 2.101-1.494h.004c.83-.353 1.776-.533 2.862-.533zm-14.718.048c-.868.001-1.662.132-2.372.401a5.31 5.31 0 0 0-1.854 1.167h-.002v.002a5.832 5.832 0 0 0-1.257 1.806v.002h-.002a7.843 7.843 0 0 0-.622 2.31l-.062.554H65.03v-.5c0-.866-.124-1.656-.38-2.37a5.165 5.165 0 0 0-1.093-1.817h-.002v-.002a4.765 4.765 0 0 0-1.71-1.158h-.002l-.002-.002a5.79 5.79 0 0 0-2.156-.393zm14.628.177c-.989 0-1.879.175-2.65.535a5.222 5.222 0 0 0-1.927 1.545h-.002c-.509.661-.887 1.452-1.139 2.356v.002c-.247.904-.367 1.895-.367 2.977 0 1.09.12 2.084.367 2.98v.002l.002.002c.253.897.63 1.683 1.139 2.34a5.162 5.162 0 0 0 1.93 1.532c.77.355 1.66.523 2.647.523.989 0 1.878-.169 2.652-.523h.002a5.18 5.18 0 0 0 1.926-1.531c.513-.659.887-1.447 1.13-2.346.243-.895.366-1.89.366-2.98 0-1.08-.122-2.071-.365-2.974-.244-.906-.618-1.697-1.13-2.36a5.224 5.224 0 0 0-1.927-1.544v-.002c-.774-.36-1.664-.534-2.654-.534zm-35.79.024h.29l.199 3.323v11.323h-.489zm21.168.797h.006a4.785 4.785 0 0 1 1.786.325c.512.203.973.514 1.352.915.392.422.692.92.881 1.465v.002l.002.004c.16.444.203.988.243 1.535h-9.245c.098-.497.19-.998.395-1.461v-.002a4.85 4.85 0 0 1 1.043-1.499 4.32 4.32 0 0 1 1.508-.947h.002l.002-.002c.58-.22 1.252-.335 2.025-.335zm14.622.175c.874 0 1.613.153 2.234.442a4.225 4.225 0 0 1 1.556 1.251h.002c.421.544.74 1.212.955 2.012.218.805.331 1.707.331 2.714 0 1.015-.113 1.922-.329 2.718-.215.792-.536 1.454-.957 1.994v.002a4.183 4.183 0 0 1-1.556 1.235c-.622.284-1.362.434-2.236.434-.873 0-1.613-.15-2.23-.434h-.001a4.164 4.164 0 0 1-1.559-1.235c-.418-.541-.742-1.204-.966-1.998v-.002c-.22-.793-.331-1.7-.331-2.714 0-1.007.113-1.908.332-2.712.223-.8.547-1.467.965-2.012l.002-.002a4.183 4.183 0 0 1 1.56-1.25c.617-.289 1.356-.443 2.228-.443z" /> </svg>
