<svg xmlns="http://www.w3.org/2000/svg" viewBox="0 0 128 128"> <path d="m8.26 44.977-5.77 5.837L23.078 82.19l5.758-5.765L8.26 44.977zm14.65 0v20.67l6.71 10.109 1.364-1.486-.05-21.217-8.024-8.076zm75.674 5.113v3.33h4.03v-3.33h-4.03zm-96.844.982L0 52.828v21.585l8.613 8.61V61.326L1.74 51.072zm-.105 1.102 6.277 9.367v19.79l-7.21-7.208V53.117l.933-.943zm111.597 3.002a5.137 5.137 0 0 0-1.337.164 5.478 5.478 0 0 0-1.137.45c-.353.19-.684.418-.994.68a9.751 9.751 0 0 0-.893.874l-.254-1.207c-.156-.473-.49-.711-.994-.711h-2.385V71.66h3.903V59.775a5.3 5.3 0 0 1 1.367-1.146 3.134 3.134 0 0 1 1.572-.418c.853 0 1.497.247 1.932.744.437.497.658 1.286.658 2.373V71.66h3.918V61.328c0-.509.07-.954.219-1.346.15-.39.353-.714.611-.972.258-.259.555-.455.898-.592.34-.137.713-.207 1.112-.207.876 0 1.542.262 1.992.783.454.525.68 1.302.68 2.334V71.66h3.9V61.33c0-.982-.12-1.851-.371-2.613-.246-.76-.607-1.402-1.08-1.93a4.572 4.572 0 0 0-1.752-1.201c-.696-.274-1.492-.41-2.387-.41a6.87 6.87 0 0 0-1.54.172 5.738 5.738 0 0 0-1.444.54 5.123 5.123 0 0 0-1.248.938c-.38.388-.695.85-.95 1.385-.325-.915-.82-1.654-1.476-2.205-.661-.556-1.498-.83-2.52-.83zm-31.81.172 6.396 16.136h3.508l6.381-16.136h-3.055c-.262 0-.485.07-.677.207a1.073 1.073 0 0 0-.391.515l-3.18 8.62c-.187.503-.344.997-.463 1.478-.12.482-.226.967-.32 1.447-.094-.48-.203-.966-.324-1.447-.117-.48-.265-.975-.445-1.479l-3.104-8.619a1.074 1.074 0 0 0-.398-.515 1.204 1.204 0 0 0-.715-.207h-3.213zm17.162.175V71.66h4.03V55.523h-4.03zm-53.346.352c-1.157 0-2.215.28-3.158.83a8.67 8.67 0 0 0-2.482 2.188l-.143-2.372c-.042-.26-.2-.394-.473-.394h-.812v15.705h1.492V60.059c.688-.924 1.47-1.656 2.35-2.188a5.428 5.428 0 0 1 2.851-.795c1.381 0 2.402.419 3.07 1.252.67.837 1.006 1.992 1.006 3.467v10.037h1.489V61.795c0-.915-.108-1.737-.33-2.461-.22-.728-.542-1.35-.973-1.865a4.206 4.206 0 0 0-1.621-1.182c-.653-.273-1.41-.412-2.266-.412zm14.578 0c-1.117 0-2.118.196-3 .584a6.352 6.352 0 0 0-2.236 1.615 7.12 7.12 0 0 0-1.394 2.457c-.32.952-.48 1.987-.48 3.114 0 1.333.171 2.515.519 3.552.344 1.033.837 1.908 1.472 2.62a6.25 6.25 0 0 0 2.283 1.632c.889.376 1.872.559 2.948.559a9.276 9.276 0 0 0 1.767-.172 10.25 10.25 0 0 0 1.647-.465 7.28 7.28 0 0 0 1.396-.701 4.336 4.336 0 0 0 1.006-.885l-.416-.504a.361.361 0 0 0-.316-.156c-.102 0-.274.085-.504.262a8.233 8.233 0 0 1-.944.584c-.395.215-.884.405-1.466.582-.58.172-1.266.258-2.057.258-.887 0-1.69-.152-2.41-.457a4.853 4.853 0 0 1-1.838-1.362c-.505-.603-.897-1.355-1.17-2.246-.277-.891-.416-1.928-.416-3.101v-.301h11.377c.15 0 .257-.043.324-.125.07-.086.106-.245.106-.475 0-1.102-.156-2.08-.47-2.93-.312-.852-.742-1.567-1.298-2.15a5.549 5.549 0 0 0-1.965-1.33 6.502 6.502 0 0 0-2.463-.459h-.002zm14.873 0c-1.145 0-2.167.193-3.07.576a6.325 6.325 0 0 0-2.29 1.63c-.624.704-1.1 1.555-1.425 2.544-.33.993-.49 2.104-.49 3.332 0 1.229.162 2.339.49 3.324.325.987.801 1.836 1.422 2.537a6.215 6.215 0 0 0 2.293 1.623c.903.38 1.925.567 3.07.567 1.143 0 2.165-.188 3.069-.569a6.155 6.155 0 0 0 2.283-1.62c.618-.702 1.092-1.551 1.416-2.538.328-.985.49-2.095.49-3.324 0-1.228-.162-2.339-.49-3.332-.325-.99-.797-1.839-1.416-2.543a6.255 6.255 0 0 0-2.283-1.63c-.904-.384-1.927-.577-3.069-.577zm-14.77 1.053a5.31 5.31 0 0 1 1.983.36 4.283 4.283 0 0 1 1.537 1.04 4.68 4.68 0 0 1 .995 1.65c.234.654.351 1.39.351 2.211H54.277a7.376 7.376 0 0 1 .588-2.17 5.364 5.364 0 0 1 1.155-1.66 4.834 4.834 0 0 1 1.689-1.064c.649-.246 1.386-.367 2.21-.367zm14.68.176c.936 0 1.754.164 2.454.49a4.743 4.743 0 0 1 1.75 1.404c.468.606.816 1.337 1.047 2.193.23.858.347 1.807.347 2.856 0 1.056-.117 2.011-.347 2.86-.23.848-.579 1.577-1.047 2.179a4.702 4.702 0 0 1-1.75 1.389c-.701.32-1.518.48-2.453.48-.935 0-1.752-.16-2.448-.48a4.684 4.684 0 0 1-1.754-1.39c-.465-.6-.817-1.33-1.056-2.179-.235-.848-.352-1.803-.352-2.86 0-1.048.117-1.997.352-2.855.238-.856.59-1.587 1.056-2.193a4.727 4.727 0 0 1 1.754-1.404c.696-.326 1.513-.49 2.448-.49z" /> </svg>
