<svg xmlns="http://www.w3.org/2000/svg" viewBox="0 0 128 128"><path fill="#5FB950" d="m8.26 44.977-5.77 5.837L23.078 82.19l5.758-5.765zm14.65 0v20.67l6.71 10.109 1.364-1.486-.05-21.217zm75.674 5.113v3.33h4.03v-3.33zm-96.844.982L0 52.828v21.585l8.613 8.61V61.326zm-.105 1.102 6.277 9.367v19.79l-7.21-7.208V53.117zm111.597 3.002a5 5 0 0 0-1.337.164 5.5 5.5 0 0 0-1.137.45q-.53.286-.994.68a10 10 0 0 0-.893.874l-.254-1.207q-.236-.71-.994-.711h-2.385V71.66h3.903V59.775a5.3 5.3 0 0 1 1.367-1.146 3.13 3.13 0 0 1 1.572-.418q1.28 0 1.932.744.657.744.658 2.373V71.66h3.918V61.328c0-.509.07-.954.219-1.346q.225-.585.611-.972.385-.388.898-.592.512-.206 1.112-.207 1.316 0 1.992.783.68.787.68 2.334V71.66h3.9V61.33c0-.982-.12-1.851-.371-2.613q-.37-1.139-1.08-1.93a4.6 4.6 0 0 0-1.752-1.201q-1.044-.41-2.387-.41a7 7 0 0 0-1.54.172 5.7 5.7 0 0 0-1.444.54 5.1 5.1 0 0 0-1.248.938q-.569.582-.95 1.385c-.325-.915-.82-1.654-1.476-2.205-.661-.556-1.498-.83-2.52-.83m-31.81.172 6.396 16.136h3.508l6.381-16.136h-3.055c-.262 0-.485.07-.677.207a1.07 1.07 0 0 0-.391.515l-3.18 8.62q-.282.755-.463 1.478-.18.725-.32 1.447c-.094-.48-.203-.966-.324-1.447a15 15 0 0 0-.445-1.479l-3.104-8.619a1.07 1.07 0 0 0-.398-.515 1.2 1.2 0 0 0-.715-.207zm17.162.175V71.66h4.03V55.523zm-53.346.352c-1.157 0-2.215.28-3.158.83a8.7 8.7 0 0 0-2.482 2.188l-.143-2.372q-.063-.392-.473-.394h-.812v15.705h1.492V60.059q1.031-1.388 2.35-2.188a5.43 5.43 0 0 1 2.851-.795q2.07.001 3.07 1.252 1.005 1.255 1.006 3.467v10.037h1.489V61.795q.002-1.374-.33-2.461-.328-1.092-.973-1.865a4.2 4.2 0 0 0-1.621-1.182q-.98-.41-2.266-.412m14.578 0q-1.676.001-3 .584a6.35 6.35 0 0 0-2.236 1.615 7.1 7.1 0 0 0-1.394 2.457c-.32.952-.48 1.987-.48 3.114q-.002 1.998.519 3.552.518 1.55 1.472 2.62a6.25 6.25 0 0 0 2.283 1.632c.889.376 1.872.559 2.948.559a9.3 9.3 0 0 0 1.767-.172 10 10 0 0 0 1.647-.465 7.3 7.3 0 0 0 1.396-.701 4.3 4.3 0 0 0 1.006-.885l-.416-.504a.36.36 0 0 0-.316-.156c-.102 0-.274.085-.504.262a8 8 0 0 1-.944.584c-.395.215-.884.405-1.466.582q-.87.258-2.057.258-1.33 0-2.41-.457a4.85 4.85 0 0 1-1.838-1.362c-.505-.603-.897-1.355-1.17-2.246-.277-.891-.416-1.928-.416-3.101v-.301h11.377q.224-.001.324-.125.105-.13.106-.475 0-1.654-.47-2.93-.466-1.277-1.298-2.15a5.55 5.55 0 0 0-1.965-1.33 6.5 6.5 0 0 0-2.463-.459zm14.873 0q-1.716 0-3.07.576a6.3 6.3 0 0 0-2.29 1.63c-.624.704-1.1 1.555-1.425 2.544-.33.993-.49 2.104-.49 3.332q-.001 1.845.49 3.324c.325.987.801 1.836 1.422 2.537a6.2 6.2 0 0 0 2.293 1.623q1.354.569 3.07.567 1.714.001 3.069-.569a6.16 6.16 0 0 0 2.283-1.62c.618-.702 1.092-1.551 1.416-2.538q.491-1.479.49-3.324.001-1.842-.49-3.332-.487-1.486-1.416-2.543a6.26 6.26 0 0 0-2.283-1.63q-1.356-.577-3.069-.577m-14.77 1.053a5.3 5.3 0 0 1 1.983.36 4.3 4.3 0 0 1 1.537 1.04 4.7 4.7 0 0 1 .995 1.65q.351.98.351 2.211H54.277a7.4 7.4 0 0 1 .588-2.17 5.4 5.4 0 0 1 1.155-1.66 4.8 4.8 0 0 1 1.689-1.064q.974-.368 2.21-.367m14.68.176q1.404 0 2.454.49a4.74 4.74 0 0 1 1.75 1.404q.701.909 1.047 2.193c.23.858.347 1.807.347 2.856q-.001 1.585-.347 2.86-.345 1.274-1.047 2.179a4.7 4.7 0 0 1-1.75 1.389q-1.051.48-2.453.48-1.403 0-2.448-.48a4.7 4.7 0 0 1-1.754-1.39c-.465-.6-.817-1.33-1.056-2.179q-.352-1.273-.352-2.86c0-1.048.117-1.997.352-2.855q.357-1.284 1.056-2.193a4.7 4.7 0 0 1 1.754-1.404q1.045-.49 2.448-.49z"/></svg>
