<svg xmlns="http://www.w3.org/2000/svg" viewBox="0 0 128 128"><path fill="#fff" d="M14.6139 48.8967v.0677c-5.4292.1814-10.149 3.1727-12.6658 7.6184l-.4178.741h.8512c1.9611-.0042 5.7825-.0078 5.7825-.0078h.1857c4.0866.0013 4.5031.0203 5.3607.0561h.002l.5474.0194h.0019c1.8812.0627 4.1019.2765 5.7999 1.5612.9023.6821 2.3632 2.3527 3.1979 3.5055.7147.9885.9 2.0333.4333 3.0779-.4193.9371-1.2852 1.4819-2.4124 1.4819H.3676l.1431.6094s.1234.5274.3115 1.1143l.1103.3444h28.4132l.1122-.3405a15.067 15.067 0 0 0 .77-4.7398c.0004-8.3382-6.7748-15.109-15.1188-15.109Zm.4952.9905c7.809 0 14.1287 6.3161 14.1283 14.1186-.0014 1.3899-.2597 2.7617-.6655 4.0897H1.6695c-.0108-.0387-.0134-.0513-.0232-.087h19.6342c1.465 0 2.7402-.7815 3.3158-2.0681.614-1.3745.3402-2.8567-.534-4.0646-.885-1.2223-2.307-2.886-3.4029-3.7144-1.9828-1.5002-4.4398-1.6963-6.3647-1.7605v.002l-.5437-.0213h-.0019c-.8766-.0367-1.0685-.058-5.5851-.058h-.4953v.0018c-.4544.0003-2.4932.0032-4.3025.0058 2.5232-3.845 6.7941-6.444 11.743-6.444Zm58.6644 2.4898c-1.2568 0-2.3253.9755-2.3253 2.2054 0 1.2356 1.0685 2.2132 2.3253 2.2132 1.263 0 2.3331-.9776 2.3331-2.2132 0-1.23-1.07-2.2054-2.333-2.2054zm-29.841.9305V70.595h4.438v-5.7767h1.7218l3.0876 5.7767h4.937l-3.6796-6.7324c1.692-.9455 2.7588-2.5705 2.7588-4.7358 0-1.7286-.5864-3.2136-1.6928-4.2406-1.1064-1.027-2.7017-1.5787-4.645-1.5787zm33.7489 0V70.595h4.3799V53.3075h-.4953zm-3.9079.06c.7588 0 1.3426.5669 1.3426 1.215 0 .6584-.5838 1.2226-1.3426 1.2226-.7484 0-1.3348-.5641-1.3348-1.2227 0-.648.5864-1.2149 1.3348-1.2149zm-28.8505.9305h5.9353c1.7573 0 3.0827.4903 3.9718 1.3156.889.8252 1.3754 2.0028 1.3754 3.5132 0 2.076-.8908 3.4584-2.5826 4.1845l-.4992.2147 3.3217 6.0785h-2.6716l-3.0876-5.7767H47.38v5.7767h-2.457zm33.7489 0h2.3989v15.3065h-2.3989zm-31.292 1.8263v5.9237h2.8343c1.0547 0 1.9117-.2125 2.5246-.7216.6128-.509.9073-1.2935.9073-2.1996 0-.9096-.2902-1.707-.9015-2.2364-.6113-.5293-1.4779-.7661-2.546-.7661zm.9906.9905h1.8282c.9214 0 1.5303.206 1.8978.5243.3675.3182.559.7739.559 1.4877 0 .7093-.1874 1.1367-.5493 1.4374-.362.3006-.9731.4933-1.892.4933h-1.8437Zm15.881.1083c-3.0865 0-5.2901 1.5675-5.8076 4.022l-.1161.5495 4.1013.3327.1103-.3908c.1737-.611.6409-1.0485 1.6966-1.0485.4937 0 .8188.1236 1.0137.294.195.1705.3057.4026.3057.7952v.0464c0 .1094-.0107.1143-.0368.1431-.026.0289-.1117.0927-.3018.1529-.38.1203-1.1137.2062-2.1744.3095-1.25.1153-2.472.376-3.432 1.0253-.9604.6498-1.6076 1.7366-1.6076 3.2327 0 1.3275.4958 2.404 1.331 3.107.8351.703 1.9703 1.033 3.223 1.033 1.4158 0 2.4095-.5715 3.1746-1.3251v1.093h4.2039v-8.7385c0-1.5962-.7125-2.817-1.7837-3.5674-1.0711-.7505-2.465-1.066-3.9001-1.066zm44.273 0c-3.0865 0-5.2906 1.5674-5.8076 4.022l-.1161.5495 4.1013.3327.1103-.3908c.1737-.611.6409-1.0485 1.6966-1.0485.494 0 .8188.1236 1.0137.294.195.1705.3057.4026.3057.7952v.0464c0 .1094-.0108.1143-.0368.1431-.026.0289-.1117.0927-.3018.1529-.38.1203-1.1138.2062-2.1744.3095-1.2503.1153-2.474.376-3.434 1.0253-.9604.6498-1.6056 1.7366-1.6056 3.2327 0 1.3275.4958 2.404 1.331 3.107.8351.703 1.9705 1.033 3.223 1.033.01 0 .0153-.0056.025-.0057 1.4016-.0065 2.3878-.5712 3.1476-1.3194v1.093h4.2058v-8.7385c0-1.5962-.7125-2.817-1.7837-3.5674-1.0711-.7505-2.465-1.066-3.9-1.066zm14.815.1567-2.244 7.8815-2.221-7.8795h-4.6372l4.554 13.0604-.1334.3482c-.1847.4728-.3643.6124-.6288.683-.2653.0706-.6951.028-1.2536-.1433l-.4759-.145-1.035 3.43.4063.174c.5873.2506 1.4128.3909 2.3273.3909 1.3457 0 2.4354-.3527 3.2656-.9944.8301-.6417 1.3865-1.5512 1.7546-2.6L128 57.401Zm-51.7637.002V70.595h4.3799V57.3818Zm11.1433 0 3.5964 13.2132h4.3373l1.7992-6.5776 1.7972 6.5776h4.347l3.5867-13.2132h-4.465l-1.5341 6.7304-1.6522-6.7304h-4.1458l-1.6289 6.7826-1.565-6.7826Zm-74.559.4101c-2.0744 0-4.3301.0038-6.5254.0097l-.3424.002-.12.321c-.2843.7676-.5641 1.5216-.71 2.1823l-.1334.6016h11.4934v.4895H.2225l-.06.4256a15.3574 15.3574 0 0 0-.1412 1.5206L0 63.8607h23.5188l-.3695-.7216c-.104-.203-.229-.3621-.3367-.4991l-.0019-.002c-1.9265-2.4883-3.4568-3.6839-4.9158-4.2483-1.4594-.5646-2.775-.4807-4.2058-.5417h-.0019c-.977-.0402-1.6516-.056-5.527-.056zm56.0914.4218c1.2864 0 2.4885.2955 3.3314.886.8428.5905 1.3619 1.4403 1.3619 2.7568v7.748H66.722v-1.6947h-.892l-.1373.265c-.5173.9857-1.4735 1.6618-3.136 1.6618-1.0792 0-1.9734-.2844-2.5846-.799-.6112-.5145-.979-1.2587-.979-2.3505 0-1.2334.4419-1.9182 1.1724-2.4124.7306-.4942 1.8013-.7513 2.9696-.859h.002c1.064-.1036 1.8105-.172 2.3795-.352.2845-.09.54-.2148.737-.4334.1972-.2186.2922-.5222.2922-.8067v-.0464c0-.6102-.2204-1.1712-.6442-1.542-.4239-.3706-1.0057-.5377-1.6657-.5377-1.1736 0-1.9603.6042-2.3757 1.391l-2.2286-.1819c.5998-1.6582 2.127-2.693 4.6198-2.693zm44.273 0c1.2864 0 2.4886.2955 3.3314.886s1.362 1.4403 1.362 2.7568v7.748h-2.2248v-1.6947h-.89l-.1393.265c-.5168.9855-1.4715 1.6618-3.134 1.6618-1.079 0-1.9733-.2844-2.5846-.799-.6113-.5145-.9789-1.2587-.9789-2.3505 0-1.2334.4398-1.9182 1.1704-2.4124.7307-.4942 1.803-.7513 2.9716-.859h.002c1.064-.1036 1.8105-.172 2.3795-.352.2845-.09.54-.2148.737-.4334.1972-.2186.2922-.5222.2922-.8067v-.0464c0-.6102-.2203-1.1712-.6442-1.542-.424-.3706-1.0055-.5377-1.6657-.5377-1.1736 0-1.9602.6042-2.3757 1.391l-2.2286-.1819c.5996-1.6581 2.127-2.693 4.6198-2.693zm-35.9582.1586h2.399v11.2322h-2.399zm11.449 0h2.3872l1.894 8.2123h.8957l1.9752-8.2123h2.5865l2.0062 8.164h.886l1.863-8.164h2.3777l-3.049 11.2322h-2.8322l-2.101-7.6861h-.9073l-2.101 7.6861h-2.8225zm31.6169 0h2.4937l2.5304 8.9765h.8764l2.5536-8.9746 2.517.0097-4.5193 12.8728c-.3245.9246-.7837 1.6491-1.4258 2.1454-.642.4963-1.483.7874-2.66.7874-.6213 0-1.0848-.1247-1.4974-.2399l.4914-1.629c.44.096.881.2195 1.2904.1104.5703-.1521 1.0395-.613 1.3-1.2827v-.0019l.265-.6868zM8.16 58.7824c3.8728 0 4.517.0143 5.4865.0542 1.4885.0635 2.6512-.0035 3.8904.4759 1.1527.446 2.4706 1.4889 4.1458 3.5577H1.0602c.0126-.1608.0264-.3214.0444-.4817h11.7082V59.918H1.627c.1075-.3538.2163-.7128.3676-1.126a2431.813 2431.813 0 0 1 6.1655-.0096zm58.409 4.7262-.77.5146c-.055.0367-.4512.1768-.8763.2631-.4251.0864-.9041.1555-1.273.207-.645.0903-1.2163.2595-1.6656.594-.4494.3344-.743.874-.743 1.4876 0 .5982.2728 1.1316.7043 1.4548.4315.3233.9844.4566 1.5825.4566 1.7053 0 3.0411-1.2009 3.0411-2.7548zm44.273 0-.77.5146c-.055.0367-.4511.1768-.8763.2631-.4252.0864-.9043.1555-1.273.207-.645.0903-1.2163.2595-1.6656.594-.4494.3344-.7429.874-.7429 1.4876 0 .5982.2707 1.1316.7023 1.4548.4315.3233.9863.4566 1.5844.4566 1.7053 0 3.0411-1.2009 3.0411-2.7548zm-110.84.8435.031.5243c.024.4066.0628.8102.118 1.209l.06.4276h21.0696c1.1074 0 1.8689-.7182 2.0816-1.5418l.1605-.6191h-.6403Zm65.5767.7525v.6269c0 1.0085-.7796 1.7643-2.0506 1.7643-.4444 0-.7854-.107-.9886-.2592-.2032-.1523-.3076-.3288-.3076-.6617 0-.3412.1013-.5136.3443-.6945.243-.1809.6626-.3294 1.211-.4062.3716-.052.867-.122 1.333-.2167.174-.0353.3001-.1125.4585-.1529zm44.273 0v.6269c0 1.0085-.7796 1.7643-2.0506 1.7643-.4444 0-.7873-.107-.9905-.2592-.2033-.1523-.3057-.3288-.3057-.6617 0-.3412.1013-.5136.3443-.6945.2431-.1809.6626-.3294 1.2111-.4062.3713-.052.8668-.122 1.333-.2167.1739-.0353.3-.1125.4584-.1529zm-108.7798.238h20.849c-.1655.095-.3439.18-.6403.18H1.0892c-.0064-.0598-.0118-.12-.0174-.18zm-.0078 4.2193.2786.683s3.5935 8.7049 13.7588 8.8584h.0078c6.1051 0 11.3588-3.627 13.7433-8.8391l.3211-.7023zm1.5496.9905h24.8885c-2.3713 4.4625-6.9768 7.559-12.3891 7.5604-8.3122-.1275-11.6942-5.9265-12.4994-7.5604Z"/></svg>
