<?xml version="1.0" encoding="UTF-8" standalone="no"?>
<svg
   width="128"
   height="128"
   viewBox="0 0 128 128"
   version="1.1"
   id="svg5"
   sodipodi:docname="YANG.svg"
   inkscape:version="1.3.2 (091e20e, 2023-11-25, custom)"
   xmlns:inkscape="http://www.inkscape.org/namespaces/inkscape"
   xmlns:sodipodi="http://sodipodi.sourceforge.net/DTD/sodipodi-0.dtd"
   xmlns="http://www.w3.org/2000/svg"
   xmlns:svg="http://www.w3.org/2000/svg"
   xmlns:rdf="http://www.w3.org/1999/02/22-rdf-syntax-ns#"
   xmlns:cc="http://creativecommons.org/ns#"
   xmlns:dc="http://purl.org/dc/elements/1.1/">
  <defs
     id="defs5" />
  <sodipodi:namedview
     id="namedview5"
     pagecolor="#ffffff"
     bordercolor="#111111"
     borderopacity="1"
     inkscape:showpageshadow="0"
     inkscape:pageopacity="0"
     inkscape:pagecheckerboard="1"
     inkscape:deskcolor="#d1d1d1"
     inkscape:zoom="4.2592135"
     inkscape:cx="78.535626"
     inkscape:cy="57.63975"
     inkscape:window-width="1920"
     inkscape:window-height="1009"
     inkscape:window-x="-8"
     inkscape:window-y="-8"
     inkscape:window-maximized="1"
     inkscape:current-layer="svg5" />
  <title
     id="title1">file_type_yang</title>
  <path
     d="m 31.468419,96.726857 c 0,-25.302857 18.249142,-32.768 36.086857,-32.768 15.346285,0 27.373714,-17.421714 27.373714,-30.281143 0,-16.553143 -11.369143,-26.6559997 -22.317714,-32.5485711 A 63.456,63.456 0 1 0 57.173561,127.08571 C 38.846704,119.99086 31.468419,106.624 31.468419,96.726857 Z"
     style="fill:#ffffff;stroke-width:4.57143"
     id="path1" />
  <path
     d="M 57.091276,127.62057 A 64,64 0 0 1 64.030704,0 64.704,64.704 0 0 1 72.684419,0.5988571 l 0.182857,0.059429 C 83.175847,6.203429 95.468419,16.438857 95.468419,33.677714 c 0,12.411429 -11.721143,30.816 -27.913143,30.816 -13.257143,0 -35.547429,4.187429 -35.547429,32.228572 0,9.243424 6.633143,22.610284 25.334857,29.856004 z M 64.030704,1.0788571 A 62.925714,62.925714 0 0 0 53.228419,125.98857 C 36.858133,118.29029 30.933561,105.65943 30.933561,96.731429 c 0,-30.061715 25.6,-33.307429 36.626286,-33.307429 15.570286,0 26.834286,-17.764571 26.834286,-29.741714 0,-16.662857 -11.913143,-26.6057146 -21.942857,-32.0274289 a 63.670857,63.670857 0 0 0 -8.420572,-0.576 z"
     style="fill:#231f20;stroke-width:4.57143"
     id="path2" />
  <path
     d="M 127.49127,64 A 63.460571,63.460571 0 0 0 72.634133,1.1337143 c 10.971428,5.8925714 22.317714,15.9999997 22.317714,32.5485717 0,12.859428 -12.027428,30.281143 -27.373714,30.281143 -17.828572,0 -36.086857,7.465142 -36.086857,32.768 0,9.901711 7.373714,23.264001 25.682285,30.358861 A 63.428571,63.428571 0 0 0 127.49127,64 Z"
     style="fill:#231f20;stroke-width:4.57143"
     id="path3" />
  <path
     d="m 64.030704,128 a 64.914286,64.914286 0 0 1 -6.939428,-0.37943 l -0.137143,-0.032 c -19.2,-7.44228 -26.025143,-21.27543 -26.025143,-30.857141 0,-30.061715 25.6,-33.307429 36.626286,-33.307429 15.570285,0 26.834285,-17.764571 26.834285,-29.741714 0,-16.708572 -11.981714,-26.6651431 -22.034285,-32.0731431 L 72.684419,0.5988571 A 64,64 0 0 1 64.030704,128 Z m -6.752,-1.44457 A 62.884571,62.884571 0 0 0 126.95184,64 63.117714,63.117714 0 0 0 75.459276,2.1302857 c 9.668571,5.8148572 20.009143,15.7302853 20.009143,31.5428573 0,12.411428 -11.721143,30.816 -27.913143,30.816 -13.257143,0 -35.547429,4.187428 -35.547429,32.228571 0.02286,9.238856 6.619429,22.596576 25.270857,29.837716 z"
     style="fill:#231f20;stroke-width:4.57143"
     id="path4" />
  <circle
     cx="63.77013"
     cy="95.026291"
     r="6.8845716"
     style="fill:#ffffff;stroke-width:4.57143"
     id="circle4" />
  <circle
     cx="64.062706"
     cy="32.649143"
     r="6.8845716"
     style="fill:#231f20;stroke-width:4.57143"
     id="circle5" />
  <metadata
     id="metadata5">
    <rdf:RDF>
      <cc:Work
         rdf:about="">
        <dc:title>file_type_yang</dc:title>
      </cc:Work>
    </rdf:RDF>
  </metadata>
</svg>
