<svg xmlns="http://www.w3.org/2000/svg" viewBox="0 0 128 128"><path fill="#2a9790" d="M41.475 0C5.185 0 0 5.188 0 41.512v44.976C0 122.812 5.184 128 41.47 128h45.06c36.286 0 41.47-5.188 41.47-41.512V41.512C128 5.188 122.82 0 86.533 0zm40.707 24.133h18.209c6.293 39.875 3 77.21 3 77.21H83.725c1.867-9.956 8.582-55.433 2.996-55.585-2.993.476-16.668 38.586-16.668 38.586s-3.012-.38-6.043-.38c-3.028 0-6.04.38-6.04.38s-13.675-38.11-16.667-38.586c-5.586.152 1.129 45.629 3 55.586h-19.67s-3.29-37.332 3-77.207h18.213C49.31 24.176 62.498 47.3 64.014 47.3s14.703-23.125 18.168-23.168zM55.479 92.035a4.654 4.654 0 0 1 0 9.309 4.654 4.654 0 0 1 0-9.309m17.07 0a4.65 4.65 0 0 1 4.652 4.656h-.004a4.65 4.65 0 1 1-9.3 0 4.65 4.65 0 0 1 4.652-4.656"/></svg>
