<svg xmlns="http://www.w3.org/2000/svg" viewBox="0 0 128 128"><path fill="#2a9790" d="M11.047 47.09c-4.736 0-7.51.318-9.119 1.93C.318 50.63 0 53.405 0 58.145v11.708c0 4.74.319 7.515 1.928 9.127 1.61 1.61 4.381 1.93 9.117 1.93h11.731c4.736 0 7.508-.32 9.117-1.93 1.61-1.612 1.928-4.387 1.928-9.127V58.146c0-4.74-.319-7.515-1.928-9.127-1.61-1.61-4.381-1.93-9.117-1.93zm0 .498h11.73c4.71 0 7.337.355 8.764 1.784 1.427 1.428 1.782 4.057 1.782 8.774v11.708c0 4.717-.355 7.346-1.782 8.774-1.427 1.429-4.053 1.784-8.765 1.784H11.045c-4.712 0-7.338-.355-8.765-1.784C.853 77.2.498 74.571.498 69.854V58.146c0-4.717.357-7.346 1.784-8.774 1.427-1.429 4.053-1.784 8.765-1.784M7.23 53.372l-.033.21C5.555 64 6.414 73.743 6.414 73.743l.022.228h5.646l-.055-.296c-.06-.318-.14-.782-.231-1.348v-.004q-.013-.07-.002-.004c-.034-.21-.072-.497-.11-.741-.061-.404-.12-.78-.186-1.24-.103-.724-.21-1.511-.31-2.317v-.002l-.003-.033v-.002a85 85 0 0 1-.14-1.196l-.004-.043a88 88 0 0 1-.125-1.19q-.037-.403-.07-.8l-.039-.448a40 40 0 0 1-.113-2.068c0-.038-.003-.072-.003-.091q-.012-.497 0-.926c.002-.085.006-.163.01-.247.003-.072.005-.144.01-.205.003-.053.008-.104.013-.163l.011-.161q.016-.148.037-.28l.002-.003q.008-.057.002-.033a3 3 0 0 1 .057-.262c.01-.036.02-.068.035-.113v-.002l.031-.086v-.002c.004-.01.013-.023.031-.058.024-.046.04-.074.03-.06l.02-.018c.013.009-.008-.004.01.018.054.061.127.167.209.301.163.27.364.661.583 1.13.44.94.957 2.187 1.45 3.432.985 2.491 1.875 4.97 1.875 4.97l.059.165h.192l.016-.002c.003 0 .774-.096 1.54-.096.385 0 .771.025 1.061.049s.479.046.48.047l.016.002h.193l.06-.166s.495-1.382 1.158-3.122a155 155 0 0 1 .704-1.821l.01-.026c.04-.103.083-.204.126-.313.33-.827.667-1.648.98-2.362a36 36 0 0 1 .343-.757c.11-.234.215-.45.313-.64s.189-.357.27-.492a4 4 0 0 1 .201-.29c.003-.003-.005.004 0-.002h.002v-.002c-.004.005.008-.005.022-.02.005.007.002-.002.01.009a1 1 0 0 1 .126.301c.08.297.131.761.148 1.329.032 1.135-.063 2.694-.22 4.333-.315 3.277-.874 6.886-1.115 8.169l-.004.023v.275h5.595l.02-.228s.056-.612.11-1.689a98 98 0 0 0 .115-4.49 97 97 0 0 0-.325-8.255 79 79 0 0 0-.683-5.728l-.033-.21h-4.955c-.25.003-.416.147-.613.327a6.5 6.5 0 0 0-.644.712c-.464.577-.99 1.335-1.502 2.09-.511.755-1.006 1.508-1.395 2.068-.194.28-.363.512-.488.667-.036.045-.058.065-.086.096-.043-.048-.09-.1-.151-.18-.002-.001-.014-.02-.028-.036h-.002a13 13 0 0 1-.293-.407c-.03-.043-.058-.078-.084-.115l-.053-.077c-.408-.592-.923-1.374-1.455-2.156q-.146-.212-.288-.414c-.095-.138-.19-.279-.286-.415l-.002-.004-.002-.002a28 28 0 0 0-.554-.757 13 13 0 0 0-.516-.644l-.002-.003q-.098-.111-.183-.199l-.107-.11a2.5 2.5 0 0 0-.342-.294c-.112-.077-.224-.143-.377-.144h-.002zm.434.498 4.516.002c-.02 0 .03.006.103.056s.169.132.274.237l.096.1.107.116v.008l.074.076q.225.262.484.603c.176.231.358.483.545.747h.002v.002l.006.008-.006-.006.286.41.284.411c.53.779 1.045 1.56 1.459 2.16l.052.078.084.118q.168.24.31.422h-.003l.032.041q.127.165.233.275a1 1 0 0 0 .113.097c.041.03.086.07.198.07.183 0 .217-.076.279-.134q.09-.087.194-.216a13 13 0 0 0 .51-.699c.394-.569.89-1.32 1.399-2.072.508-.751 1.032-1.501 1.478-2.056.223-.278.427-.507.592-.658.164-.15.301-.196.278-.196h4.521c.289 1.866.502 3.715.65 5.482a97 97 0 0 1 .286 10.74 87 87 0 0 1-.076 1.935c-.047.925-.081 1.307-.093 1.446h-4.6c.259-1.42.775-4.742 1.08-7.922.159-1.65.256-3.22.222-4.395-.017-.588-.065-1.075-.165-1.444a1.4 1.4 0 0 0-.208-.47.58.58 0 0 0-.43-.24h-.022l-.023.004c-.089.014-.137.05-.177.078q.04-.03-.016.01h-.002c-.049.037-.073.068-.095.091a.3.3 0 0 0-.043.045s.008-.01-.002.002l-.002.002h-.002q-.058.07-.113.152a9 9 0 0 0-.42.724 20 20 0 0 0-.335.686q-.162.349-.332.741a77 77 0 0 0-.989 2.378l-.126.313-.01.025a157 157 0 0 0-.708 1.825 161 161 0 0 0-1.093 2.951c-.087-.01-.122-.016-.304-.03-.3-.025-.698-.05-1.103-.05-.709 0-1.244.07-1.407.088-.06-.165-.858-2.396-1.813-4.81-.494-1.25-1.014-2.504-1.46-3.46-.225-.478-.43-.88-.61-1.177a3 3 0 0 0-.257-.368c-.084-.097-.158-.19-.327-.216l-.023-.004h-.021a.5.5 0 0 0-.142.024c-.042.013-.061.025-.068.029h-.002v.002l-.057.03c-.071.048-.083.075-.07.063v.002h-.002c-.009.008-.054.04-.101.107-.045.063-.057.101-.064.115-.01.017-.03.05-.05.101q-.029.074-.044.12v.003q-.02.056-.046.146l-.01.048a4 4 0 0 0-.06.298l.002-.002a6 6 0 0 0-.057.48c-.004.054-.01.107-.014.172l-.01.212-.009.259a20 20 0 0 0 0 .949l.004.091q.011.469.039.983.03.54.074 1.113l.039.451a88 88 0 0 0 .198 2.002l.004.043c.045.402.091.807.14 1.204l.004.033v.002c.1.81.206 1.6.31 2.327.065.463.125.841.186 1.243.037.238.078.526.113.745l.002.012c.071.443.127.763.18 1.064h-4.58c-.03-.347-.796-9.532.76-19.603m98.504 5.89v3.442h-4.944V59.8h-1.651v8.42h1.651v-3.366h4.944v3.366h1.652v-8.46zm-56.587.05v8.42h7.544v-1.652H51.23v-1.724h2.66v-1.652h-2.66V61.47h5.895v-1.66zm20.048 0v8.42H77.1v-1.652h-5.82v-5.11h5.823L77.1 59.81zm-30.465.01v8.4h1.65l.002-6.751h1.547v6.75h1.651v-6.75h1.55v6.75h1.649v-8.4zm19.938 0v8.4h1.65v-6.751h1.511v6.75h1.652v-6.75h1.51v6.75h1.652v-8.4zm20.496 0v8.4h1.65v-3.366h4.599v3.366H87.5v-8.4zm39.951 0v8.418h6.214l.22-.18.002-.003c.074-.058.522-.426.998-1.085.477-.66.962-1.6 1.012-2.743.064-1.474-.61-2.89-1.952-4.18l-.237-.229zm-30.056.001v8.42h7.918V66.59h-6.268v-5.11h6.268v-1.659zm19.975 0v8.42h7.77V66.59h-6.12v-1.736h2.77v-1.652h-2.77v-1.721h6.12v-1.66zm-2.802.438h.656v7.463h-.656v-3.366h-5.94v3.366h-.655v-7.424h.655V63.7h5.94zm-56.587.049h6.548v.663h-5.895v2.73h2.66v.655h-2.66v2.72h5.895v.656H50.08zm20.048 0h6.475l.002.663h-5.823v6.105h5.821v.656h-6.475zm-30.465.01h7.053v7.404h-.654v-6.751h-2.545v6.75h-.655v-6.75h-2.543l-.002 6.75h-.654zm19.938 0h6.979v7.404h-.656v-6.751h-2.506v6.751h-.656v-6.751h-2.507v6.751H59.6zm20.496 0h6.905v7.404h-.656v-3.366H80.75v3.366h-.654Zm39.951 0h5.557l.093.089c1.27 1.222 1.857 2.487 1.8 3.797-.044 1.014-.48 1.867-.919 2.475a5.7 5.7 0 0 1-.902.987l-.002.002-.09.073h-5.537zm-30.056.001h6.922v.664h-6.268v6.105h6.268v.655h-6.922zm19.975 0h6.774v.664h-6.12V63.7h2.77v.655h-2.77v2.732h6.12v.655h-6.774zm-29.216.652v2.73h5.595v-2.73zm39.949 0v.25l.002 5.865h4.648l.074-.072c.366-.36 1.36-1.415 1.416-2.848.044-1.071-.457-2.137-1.434-3.121l-.074-.074zm-39.451.498h4.599v1.734h-4.6zm39.95 0h3.908c.86.894 1.271 1.799 1.235 2.677-.046 1.161-.85 2.078-1.21 2.442H121.2zM14.616 71.051c-.77.04-1.386.683-1.386 1.46 0 .804.658 1.46 1.462 1.46s1.46-.655 1.46-1.46-.657-1.46-1.46-1.46h-.074zm4.443 0c-.77.04-1.385.683-1.385 1.46 0 .804.658 1.46 1.461 1.46.706 0 1.223-.542 1.356-1.21h.105v-.25c0-.803-.657-1.46-1.46-1.46h-.075zm-4.418.498h.052a.96.96 0 0 1 .963.963.96.96 0 0 1-.963.96.962.962 0 0 1-.05-1.924zm4.444 0h.05c.534 0 .959.426.961.959v.004a.956.956 0 0 1-.96.96.96.96 0 0 1-.964-.96c0-.517.403-.938.913-.963"/></svg>
