<svg xmlns="http://www.w3.org/2000/svg" viewBox="0 0 128 128"><path fill="#2a9790" d="M10.84 47.273C1.356 47.273 0 48.63 0 58.123v11.754c0 9.494 1.354 10.85 10.838 10.85h11.777c9.484 0 10.838-1.356 10.838-10.85V58.123c0-9.494-1.354-10.85-10.838-10.85zM7.223 53.58l4.76.002c.133.002.325.143.55.367q.05.05.102.106.084.089.176.191v.002l.002.002q.239.278.507.633.269.354.553.756l.002.004c.095.134.191.275.287.414s.192.273.287.414c.533.783 1.05 1.568 1.463 2.166.017.023.037.055.053.078l.084.117c.111.158.214.3.303.416l.029.04c.166.213.293.347.35.347.396 0 3.842-6.044 4.748-6.055h4.759c.309 1.954.527 3.885.682 5.733a97 97 0 0 1 .287 10.81 88 88 0 0 1-.076 1.95 48 48 0 0 1-.11 1.687h-5.138v-.002c.489-2.605 2.241-14.486.781-14.526a.2.2 0 0 0-.072.036l-.01.005a1 1 0 0 0-.066.065c-.012.012-.023.02-.036.035q0 .002-.003.004a2 2 0 0 0-.1.133q-.06.084-.123.191a8 8 0 0 0-.281.508 19 19 0 0 0-.319.652l-.013.028q-.161.346-.332.738a78 78 0 0 0-.989 2.379c-.042.107-.084.208-.127.314l-.01.026c-.244.617-.482 1.235-.703 1.812l-.005.018a186 186 0 0 0-1.164 3.14h-.002c-.002 0-.197-.024-.493-.048-.295-.025-.69-.05-1.086-.05-.79 0-1.575.098-1.578.098h-.002s-3.573-9.96-4.355-10.084a.3.3 0 0 0-.055.008l-.017.004a.3.3 0 0 0-.064.033c-.015.01-.028.027-.042.04-.023.02-.048.039-.068.068-.018.024-.031.058-.047.088-.014.026-.028.05-.041.08-.013.031-.025.07-.037.105-.014.043-.029.082-.041.131l-.01.045a3 3 0 0 0-.05.24l-.005.037q-.022.139-.039.295l-.013.168-.014.168-.01.21-.01.253q-.01.437 0 .941l.004.092q.011.468.04.979.03.539.074 1.111.018.223.039.451a71 71 0 0 0 .197 2.004l.004.043q.068.606.14 1.205l.004.035c.1.812.207 1.603.31 2.332.067.464.127.842.188 1.247.037.241.077.53.112.746l.002.007c.091.57.171 1.038.232 1.362H6.44s-.86-9.758.784-20.18zm99.361 6.414v3.455h-5.463v-3.416h-1.158v7.953h1.158v-3.379h5.463v3.38h1.158v-7.993zm-56.809.049v7.953h7.075v-1.158h-5.918v-2.23h2.67v-1.159h-2.67v-2.24h5.918v-1.166zm20.127 0v7.953h7v-1.158H71.06v-5.629h5.845l-.002-1.166h-7zm-30.584.01v7.933h1.157l.002-6.777h2.052v6.777h1.158V61.21h2.055v6.777h1.156v-7.933zm20.016 0v7.933h1.156V61.21h2.018v6.777h1.158V61.21h2.016v6.777h1.158v-7.933zm20.576 0v7.933h1.156v-3.379h5.118v3.38h1.158v-7.934zm40.108 0v7.953h5.898l.156-.129c.075-.059 1.83-1.496 1.924-3.66.061-1.398-.572-2.744-1.883-4.004l-.166-.16zm-30.174.002v7.953h7.449V66.85H91v-5.63h6.293v-1.165zm20.052 0v7.953h7.301V66.85h-6.144v-2.243h2.781V63.45h-2.781v-2.228h6.144v-1.166h-7.3zm-28.83 1.154h5.118v2.24h-5.118zm40.106 0h4.297c.947.954 1.408 1.957 1.367 2.947-.053 1.326-.996 2.346-1.348 2.692h-4.314zM14.438 71.329q.03-.002.062 0a1.215 1.215 0 1 1 0 2.432 1.216 1.216 0 0 1-.063-2.433zm4.46 0q.032-.002.063 0c.672 0 1.217.544 1.217 1.216h-.002a1.216 1.216 0 1 1-1.277-1.217z"/></svg>
