<svg xmlns="http://www.w3.org/2000/svg" fill="none" viewBox="0 0 128 128"><path fill="#000" d="M23.87 51.269c-6.988 0-11.678 4.237-11.678 12.46v5.86a5.112 5.112 0 0 1 2.279-.564c.792 0 1.574.19 2.285.551V63.7c0-5.331 2.827-8.07 7.133-8.07s7.094 2.739 7.094 8.07v12.811h4.55v-12.81c.013-8.27-4.676-12.432-11.664-12.432Zm14.153 12.934c0-7.479 5.284-12.962 12.728-12.962 7.443 0 12.634 5.504 12.634 12.962v1.74h-20.58c.66 4.39 3.831 6.833 7.926 6.833 3.065 0 5.218-.998 6.605-3.138h5.02c-1.817 4.582-6.124 7.527-11.625 7.527-7.444 0-12.708-5.483-12.708-12.962zm20.574-2.49c-.912-3.943-4.015-6.083-7.846-6.083-3.831 0-6.889 2.195-7.8 6.083zm7.22 2.49c0-7.472 5.283-12.955 12.726-12.955 7.444 0 12.727 5.504 12.727 12.955 0 7.45-5.283 12.962-12.727 12.962-7.443 0-12.726-5.483-12.726-12.962zm20.863 0c0-4.982-3.256-8.573-8.137-8.573s-8.13 3.591-8.13 8.573c0 4.981 3.25 8.573 8.124 8.573 4.874 0 8.143-3.586 8.143-8.573zm30.587 17.213h.529c2.918 0 4.015-1.375 4.015-4.816V52.067h4.55v24.217c0 6.082-2.298 9.219-8.136 9.219h-.958zm-2.272-2.531h-4.551v-5.841H98.919a5.525 5.525 0 0 1-3.01-.768 5.834 5.834 0 0 1-2.181-2.294 5.507 5.507 0 0 1-.466-2.9 5.43 5.43 0 0 1 1.087-2.714l10.343-14.138a5.725 5.725 0 0 1 2.86-2.13 5.495 5.495 0 0 1 3.514.02 5.734 5.734 0 0 1 2.84 2.157 6.125 6.125 0 0 1 1.089 3.482v15.08h3.415v4.205h-3.415zm-16.863-11.93a1.246 1.246 0 0 0-.125 1.145c.057.144.14.276.248.387a1.1 1.1 0 0 0 .81.346h11.379v-15.19a1.201 1.201 0 0 0-.206-.717 1.128 1.128 0 0 0-.58-.44 1.497 1.497 0 0 0-.415-.061c-.179 0-.354.045-.51.133a1.094 1.094 0 0 0-.39.368l-10.21 14.03Z"/><path fill="#018bff" d="M124.11 42.002a3.787 3.787 0 0 0-2.168.68 4.033 4.033 0 0 0-1.437 1.82 4.215 4.215 0 0 0-.225 2.346 4.114 4.114 0 0 0 1.065 2.08c.545.568 1.24.956 1.996 1.113a3.75 3.75 0 0 0 2.251-.23 3.937 3.937 0 0 0 1.75-1.496A4.183 4.183 0 0 0 128 46.06a4.145 4.145 0 0 0-1.14-2.867 3.82 3.82 0 0 0-2.75-1.191zM14.272 70.532a3.76 3.76 0 0 0-2.339.826l-4.28-3.048c.097-.356.145-.724.146-1.094a4.176 4.176 0 0 0-.632-2.263 3.933 3.933 0 0 0-1.735-1.514 3.746 3.746 0 0 0-2.25-.252 3.842 3.842 0 0 0-2.005 1.096A4.105 4.105 0 0 0 .1 66.356a4.21 4.21 0 0 0 .21 2.346 4.03 4.03 0 0 0 1.43 1.829 3.78 3.78 0 0 0 2.163.69c.847 0 1.668-.29 2.339-.826l4.266 3.068a4.215 4.215 0 0 0 0 2.195l-4.28 3.047a3.74 3.74 0 0 0-2.325-.825 3.787 3.787 0 0 0-2.167.68 4.028 4.028 0 0 0-1.438 1.822 4.217 4.217 0 0 0-.223 2.347 4.115 4.115 0 0 0 1.067 2.08c.545.568 1.24.955 1.997 1.112a3.751 3.751 0 0 0 2.253-.233A3.936 3.936 0 0 0 7.14 84.19a4.19 4.19 0 0 0 .654-2.258c0-.364-.047-.728-.14-1.08l4.28-3.048a3.754 3.754 0 0 0 2.339.826 3.836 3.836 0 0 0 2.574-1.283 4.153 4.153 0 0 0 1.045-2.766 4.149 4.149 0 0 0-1.045-2.765 3.836 3.836 0 0 0-2.574-1.284z"/></svg>
