<?xml version="1.0" encoding="UTF-8"?>
<svg xmlns="http://www.w3.org/2000/svg" xmlns:xlink="http://www.w3.org/1999/xlink" width="128px" height="128px" viewBox="0 0 128 128" version="1.1">
<g id="surface1">
<path style=" stroke:none;fill-rule:nonzero;fill:rgb(0%,0%,0%);fill-opacity:1;" d="M 115.953125 2.78125 C 110.449219 -2.125 103.792969 -0.152344 97.214844 5.683594 C 96.203125 6.59375 95.230469 7.542969 94.296875 8.539062 C 83.050781 20.46875 72.613281 42.558594 69.371094 59.433594 C 70.632812 61.996094 71.621094 65.265625 72.273438 67.761719 C 72.597656 69 72.890625 70.25 73.148438 71.507812 C 73.148438 71.507812 73.046875 71.128906 72.632812 69.929688 L 72.367188 69.152344 C 72.3125 69.007812 72.253906 68.867188 72.191406 68.726562 C 71.457031 67.019531 69.429688 63.417969 68.535156 61.851562 C 67.769531 64.105469 67.09375 66.214844 66.527344 68.121094 C 69.109375 72.835938 70.675781 80.921875 70.675781 80.921875 C 70.675781 80.921875 70.542969 80.394531 69.894531 78.566406 C 69.324219 76.949219 66.457031 71.929688 65.777344 70.757812 C 64.617188 75.046875 64.15625 77.9375 64.570312 78.640625 C 65.382812 80.003906 66.148438 82.363281 66.820312 84.964844 C 68.347656 90.832031 69.40625 97.980469 69.40625 97.980469 L 69.5 99.171875 C 69.296875 104.058594 69.398438 108.953125 69.796875 113.828125 C 70.304688 119.941406 71.253906 125.1875 72.464844 128 L 73.289062 127.550781 C 71.507812 122.015625 70.785156 114.757812 71.105469 106.394531 C 71.582031 93.605469 74.527344 78.179688 79.960938 62.105469 C 89.152344 37.84375 101.898438 18.371094 113.5625 9.070312 C 102.933594 18.671875 88.539062 49.765625 84.230469 61.273438 C 79.40625 74.160156 75.992188 86.25 73.933594 97.839844 C 77.488281 86.976562 88.976562 82.3125 88.976562 82.3125 C 88.976562 82.3125 94.613281 75.359375 101.199219 65.429688 C 97.253906 66.328125 90.773438 67.871094 88.601562 68.78125 C 85.402344 70.121094 84.539062 70.578125 84.539062 70.578125 C 84.539062 70.578125 94.910156 64.265625 103.808594 61.40625 C 116.042969 42.136719 129.375 14.761719 115.953125 2.78125 M 16.898438 5.679688 C 11.5 5.699219 7.128906 10.070312 7.113281 15.46875 L 7.113281 104.042969 C 7.128906 109.441406 11.503906 113.808594 16.898438 113.828125 L 67.125 113.828125 C 66.75 109.023438 66.65625 104.203125 66.847656 99.390625 C 66.816406 99.058594 66.789062 98.636719 66.761719 98.324219 C 66.113281 94.0625 65.269531 89.828125 64.238281 85.640625 C 63.59375 83.132812 62.773438 80.851562 62.273438 80.003906 C 61.652344 78.953125 61.75 78.351562 61.753906 77.699219 C 61.753906 77.058594 61.835938 76.394531 61.953125 75.640625 C 62.269531 73.761719 62.683594 71.902344 63.199219 70.066406 L 64.355469 69.917969 C 64.265625 69.730469 64.28125 69.570312 64.191406 69.402344 L 63.972656 67.371094 C 64.613281 65.234375 65.289062 63.109375 66.011719 61 L 67.078125 60.898438 C 67.035156 60.816406 67.023438 60.695312 66.980469 60.617188 L 66.75 58.933594 C 70.113281 41.4375 80.550781 19.234375 92.351562 6.714844 C 92.703125 6.34375 93.0625 6.03125 93.40625 5.679688 Z M 16.898438 5.679688 "/>
</g>
</svg>
