<svg version="1.1" viewBox="0 0 128 128" xmlns="http://www.w3.org/2000/svg">
 <path d="m115.95 2.7812c-5.5039-4.9062-12.16-2.9336-18.738 2.9023-1.0117 0.91016-1.9844 1.8594-2.918 2.8555-11.246 11.93-21.684 34.02-24.926 50.895 1.2617 2.5625 2.25 5.832 2.9023 8.3281 0.32422 1.2383 0.61719 2.4883 0.875 3.7461 0 0-0.10156-0.37891-0.51563-1.5781l-0.26562-0.77734c-0.054688-0.14453-0.11328-0.28516-0.17578-0.42578-0.73438-1.707-2.7617-5.3086-3.6562-6.875-0.76562 2.2539-1.4414 4.3633-2.0078 6.2695 2.582 4.7148 4.1484 12.801 4.1484 12.801s-0.13281-0.52734-0.78125-2.3555c-0.57031-1.6172-3.4375-6.6367-4.1172-7.8086-1.1602 4.2891-1.6211 7.1797-1.207 7.8828 0.8125 1.3633 1.5781 3.7227 2.25 6.3242 1.5273 5.8672 2.5859 13.016 2.5859 13.016l0.09375 1.1914c-0.20312 4.8867-0.10156 9.7812 0.29688 14.656 0.50781 6.1133 1.457 11.359 2.668 14.172l0.82422-0.44922c-1.7812-5.5352-2.5039-12.793-2.1836-21.156 0.47656-12.789 3.4219-28.215 8.8555-44.289 9.1914-24.262 21.938-43.734 33.602-53.035-10.629 9.6016-25.023 40.695-29.332 52.203-4.8242 12.887-8.2383 24.977-10.297 36.566 3.5547-10.863 15.043-15.527 15.043-15.527s5.6367-6.9531 12.223-16.883c-3.9453 0.89844-10.426 2.4414-12.598 3.3516-3.1992 1.3398-4.0625 1.7969-4.0625 1.7969s10.371-6.3125 19.27-9.1719c12.234-19.27 25.566-46.645 12.145-58.625m-99.055 2.8984c-5.3984 0.019531-9.7695 4.3906-9.7852 9.7891v88.574c0.015625 5.3984 4.3906 9.7656 9.7852 9.7852h50.227c-0.375-4.8047-0.46875-9.625-0.27734-14.438-0.03125-0.33203-0.058594-0.75391-0.085937-1.0664-0.64844-4.2617-1.4922-8.4961-2.5234-12.684-0.64453-2.5078-1.4648-4.7891-1.9648-5.6367-0.62109-1.0508-0.52344-1.6523-0.51953-2.3047 0-0.64062 0.082032-1.3047 0.19922-2.0586 0.31641-1.8789 0.73047-3.7383 1.2461-5.5742l1.1562-0.14844c-0.089844-0.1875-0.074219-0.34766-0.16406-0.51562l-0.21875-2.0312c0.64062-2.1367 1.3164-4.2617 2.0391-6.3711l1.0664-0.10156c-0.042969-0.082032-0.054687-0.20313-0.097656-0.28125l-0.23047-1.6836c3.3633-17.496 13.801-39.699 25.602-52.219 0.35156-0.37109 0.71094-0.68359 1.0547-1.0352z"/>
</svg>
