<svg version="1.1" viewBox="0 0 128 128" xmlns="http://www.w3.org/2000/svg">
 <defs>
  <linearGradient id="a" x1="-15.615" x2="-6.741" y1="-9.1083" y2="-9.1083" gradientTransform="matrix(-4.0559e-7 9.2712 -9.2712 -4.0559e-7 -25.853 155.12)" gradientUnits="userSpaceOnUse">
   <stop stop-color="#95d7f4" offset="0"/>
   <stop stop-color="#0f7fcc" offset=".92024"/>
   <stop stop-color="#0f7fcc" offset="1"/>
  </linearGradient>
 </defs>
 <g>
  <path d="m69.5 99.176c-0.058594-0.73047-0.09375-1.1992-0.09375-1.1992s-2.207-14.891-4.8359-19.336c-0.41406-0.70703 0.042969-3.5938 1.207-7.8789 0.67969 1.168 3.5391 6.1914 4.1172 7.8086 0.64844 1.8242 0.78125 2.3477 0.78125 2.3477s-1.5703-8.082-4.1445-12.797c0.5625-1.9062 1.2383-4.0156 2.0039-6.2656 0.97266 1.7109 3.3125 5.8594 3.8281 7.3008 0.10156 0.29297 0.19141 0.54297 0.26953 0.77344 0.023438-0.13672 0.050782-0.27344 0.074219-0.41406-0.58984-2.5039-1.75-6.8594-3.3359-10.082 3.5195-18.328 15.531-42.824 27.84-53.754h-80.312c-5.3867 0-9.7891 4.4062-9.7891 9.7891v88.57c0 5.3828 4.4062 9.7891 9.7891 9.7891h52.898c-0.38281-4.6172-0.51172-9.7266-0.29688-14.652" fill="#0b7fcc"/>
  <path d="m65.777 70.762c0.67969 1.168 3.5391 6.1875 4.1172 7.8086 0.64844 1.8242 0.78125 2.3477 0.78125 2.3477s-1.5703-8.082-4.1445-12.797c0.5625-1.9062 1.2383-4.0156 2.0039-6.2695 0.88672 1.5664 2.9219 5.168 3.6523 6.8711 0.027344-0.32031 0.054688-0.64062 0.082031-0.96094-0.64844-2.4961-1.6328-5.7656-2.8984-8.3281 3.2422-16.871 13.68-38.969 24.926-50.898h-77.398c-3.8242 0-6.9336 3.1094-6.9336 6.9336v82.109c17.527-6.7305 38.664-12.879 56.855-12.613-0.67187-2.6055-1.4414-4.9609-2.25-6.3242-0.41406-0.70703 0.042969-3.5977 1.207-7.8789" fill="url(#a)"/>
  <path d="m115.95 2.7812c-5.5-4.9062-12.164-2.9336-18.734 2.8984-0.97656 0.86719-1.9492 1.8281-2.9141 2.8594-11.25 11.926-21.684 34.023-24.926 50.895 1.2617 2.5625 2.25 5.832 2.8945 8.3281 0.16797 0.64062 0.32031 1.2422 0.44141 1.7539 0.28516 1.207 0.4375 1.9961 0.4375 1.9961s-0.10156-0.38281-0.51563-1.582c-0.078124-0.23047-0.16797-0.48438-0.26953-0.77344-0.042969-0.125-0.10547-0.27344-0.17188-0.43359-0.73438-1.7031-2.7656-5.3047-3.6562-6.8672-0.76172 2.25-1.4375 4.3594-2.0039 6.2656 2.5781 4.7148 4.1484 12.797 4.1484 12.797s-0.13672-0.52344-0.78125-2.3477c-0.57813-1.6211-3.4414-6.6406-4.1172-7.8086-1.1641 4.2812-1.625 7.1719-1.207 7.8789 0.80859 1.3633 1.5742 3.7227 2.25 6.3242 1.5234 5.8672 2.5859 13.012 2.5859 13.012s0.03125 0.46875 0.09375 1.1992c-0.21484 4.9258-0.085937 10.035 0.29688 14.652 0.50391 6.1094 1.4531 11.363 2.6641 14.172l0.82812-0.44922c-1.7812-5.5352-2.5039-12.793-2.1875-21.156 0.48047-12.793 3.4219-28.215 8.8555-44.289 9.1914-24.27 21.938-43.738 33.602-53.035-10.633 9.6016-25.023 40.684-29.332 52.195-4.8203 12.891-8.2383 24.984-10.301 36.574 3.5508-10.863 15.047-15.531 15.047-15.531s5.6367-6.957 12.227-16.887c-3.9492 0.90234-10.43 2.4414-12.598 3.3516-3.1992 1.3438-4.0664 1.8008-4.0664 1.8008s10.371-6.3125 19.27-9.1719c12.234-19.27 25.562-46.648 12.141-58.621" fill="#003956"/>
 </g>
</svg>
