<?xml version="1.0" encoding="UTF-8" standalone="no"?>
<!-- Created with Inkscape (http://www.inkscape.org/) -->

<svg
   width="180"
   height="180"
   viewBox="0 0 180 180"
   version="1.1"
   id="svg5"
   sodipodi:docname="sqlite-original-wordmark.svg"
   inkscape:version="1.1.1 (3bf5ae0d25, 2021-09-20)"
   xmlns:inkscape="http://www.inkscape.org/namespaces/inkscape"
   xmlns:sodipodi="http://sodipodi.sourceforge.net/DTD/sodipodi-0.dtd"
   xmlns="http://www.w3.org/2000/svg"
   xmlns:svg="http://www.w3.org/2000/svg">
  <sodipodi:namedview
     id="namedview51"
     pagecolor="#505050"
     bordercolor="#eeeeee"
     borderopacity="1"
     inkscape:pageshadow="0"
     inkscape:pageopacity="0"
     inkscape:pagecheckerboard="0"
     showgrid="false"
     inkscape:zoom="4.6222222"
     inkscape:cx="89.891827"
     inkscape:cy="89.891827"
     inkscape:window-width="1920"
     inkscape:window-height="1017"
     inkscape:window-x="-8"
     inkscape:window-y="-8"
     inkscape:window-maximized="1"
     inkscape:current-layer="svg5" />
  <defs
     id="defs2">
    <linearGradient
       id="linear0"
       gradientUnits="userSpaceOnUse"
       x1="-15.614694"
       y1="-9.1082983"
       x2="-6.7410069"
       y2="-9.1082983"
       gradientTransform="matrix(-1.68377e-7,3.871086,-3.848825,-1.69351e-7,-10.333701,68.140363)">
      <stop
         offset="0"
         style="stop-color:rgb(59.215686%,85.098039%,96.470588%);stop-opacity:1;"
         id="stop40" />
      <stop
         offset="0.920245"
         style="stop-color:rgb(5.882353%,50.196078%,80%);stop-opacity:1;"
         id="stop42" />
      <stop
         offset="1"
         style="stop-color:rgb(5.882353%,50.196078%,80%);stop-opacity:1;"
         id="stop44" />
    </linearGradient>
  </defs>
  <g
     id="layer1"
     transform="matrix(1,0,0,0.9999987,0,-0.17393487)">
    <g
       id="surface1"
       transform="matrix(1.4845839,0,0,1.4845839,-4.9756748,44.996128)">
      <path
         style="fill:#003a57;fill-opacity:1;fill-rule:nonzero;stroke:none"
         d="m 49.433594,30.066406 c -1.613282,0 -2.929688,0.484375 -3.9375,1.445313 -1.007813,0.960937 -1.515625,2.222656 -1.515625,3.769531 0,0.800781 0.125,1.53125 0.375,2.203125 0.25,0.667969 0.640625,1.289063 1.164062,1.851563 0.523438,0.5625 1.570313,1.324218 3.128907,2.296874 1.914062,1.175782 3.167968,2.128907 3.769531,2.875 0.601562,0.742188 0.902343,1.523438 0.902343,2.335938 0,1.089844 -0.355468,1.960938 -1.089843,2.613281 -0.734375,0.652344 -1.714844,0.980469 -2.933594,0.980469 -1.28125,0 -2.398437,-0.457031 -3.359375,-1.359375 -0.960938,-0.90625 -1.445312,-2.101563 -1.457031,-3.601563 h -0.59375 v 5.445313 h 0.59375 c 0.183593,-0.515625 0.4375,-0.78125 0.765625,-0.78125 0.160156,0 0.53125,0.109375 1.109375,0.316406 1.410156,0.503907 2.566406,0.75 3.476562,0.75 1.566407,0 2.90625,-0.554687 4.019531,-1.675781 1.113282,-1.121094 1.675782,-2.476562 1.675782,-4.054688 0,-1.226562 -0.371094,-2.316406 -1.097656,-3.265624 -0.730469,-0.949219 -2.144532,-2.058594 -4.261719,-3.328126 -1.820313,-1.101562 -3.003907,-1.996093 -3.550781,-2.695312 -0.546876,-0.699219 -0.828126,-1.46875 -0.828126,-2.316406 0,-0.917969 0.335938,-1.652344 0.996094,-2.203125 0.660156,-0.546875 1.523438,-0.820313 2.609375,-0.820313 1.214844,0 2.230469,0.363282 3.035157,1.09375 0.800781,0.734375 1.265624,1.75 1.402343,3.054688 h 0.597657 v -4.71875 H 53.875 c -0.07031,0.242187 -0.132812,0.394531 -0.1875,0.464844 -0.05859,0.07031 -0.164062,0.105468 -0.328125,0.105468 -0.191406,0 -0.535156,-0.08203 -1.023437,-0.242187 C 51.289062,30.25 50.324219,30.066406 49.433594,30.066406 Z m 19.507812,0 c -1.96875,0 -3.753906,0.46875 -5.371094,1.402344 -1.617187,0.933594 -2.898437,2.226562 -3.84375,3.875 -0.941406,1.648438 -1.414062,3.402344 -1.414062,5.265625 0,2.507813 0.816406,4.742187 2.460938,6.699219 1.648437,1.957031 3.617187,3.175781 5.90625,3.644531 0.523437,0.273437 1.273437,0.980469 2.253906,2.128906 1.101562,1.289063 2.035156,2.222657 2.804687,2.777344 0.765625,0.558594 1.597657,0.964844 2.472657,1.234375 0.875,0.265625 1.820312,0.398438 2.847656,0.398438 1.238281,0 2.351562,-0.214844 3.328125,-0.664063 l -0.21875,-0.546875 c -0.570313,0.207031 -1.175781,0.304688 -1.8125,0.304688 -0.863281,0 -1.738281,-0.285157 -2.617188,-0.863282 -0.875,-0.578125 -1.972656,-1.679687 -3.277343,-3.304687 -0.613282,-0.78125 -1.039063,-1.273438 -1.277344,-1.464844 2.503906,-0.492187 4.5625,-1.710937 6.167968,-3.664063 1.605469,-1.953124 2.40625,-4.179687 2.40625,-6.679687 0,-2.964844 -1.046874,-5.457031 -3.128906,-7.488281 -2.085937,-2.03125 -4.648437,-3.054688 -7.6875,-3.054688 z m 12.179688,0 0.03125,0.644532 c 1.308594,0 2.042968,0.386718 2.207031,1.167968 0.0625,0.28125 0.08984,0.796875 0.09766,1.539063 L 83.445312,47.625 c -0.01172,1.0625 -0.160156,1.738281 -0.449218,2.03125 -0.289063,0.292969 -0.78125,0.476562 -1.488282,0.546875 l -0.03125,0.644531 H 94.542969 L 94.878906,47.625 H 94.28125 c -0.167969,0.878906 -0.558594,1.507812 -1.183594,1.863281 -0.621094,0.359375 -1.726562,0.539063 -3.316406,0.539063 h -1.238281 c -1.433594,0 -2.261719,-0.523438 -2.480469,-1.570313 C 86.019531,48.25 86.003906,48.027344 86,47.78125 l 0.05078,-14.363281 c 0,-1.058594 0.132813,-1.769531 0.410157,-2.117188 0.277343,-0.347656 0.78125,-0.539062 1.507812,-0.589843 L 87.9375,30.066406 Z m -11.96875,0.78125 c 2.21875,0 4.035156,0.878906 5.433594,2.652344 1.402343,1.777344 2.09375,4.210938 2.09375,7.289062 0,2.917969 -0.703126,5.257813 -2.113282,7.015626 -1.410156,1.757812 -3.289062,2.632812 -5.625,2.632812 -2.242187,0 -4.058594,-0.902344 -5.453125,-2.71875 -1.394531,-1.8125 -2.085937,-4.167969 -2.085937,-7.066406 0,-2.976563 0.699218,-5.359375 2.105468,-7.140625 1.40625,-1.777344 3.289063,-2.664063 5.644532,-2.664063 z m 30.050781,3.054688 c -0.316406,0 -0.5625,0.109375 -0.742187,0.324218 -0.1875,0.21875 -0.242188,0.480469 -0.179688,0.800782 0.0625,0.3125 0.238281,0.582031 0.515625,0.8125 0.273437,0.226562 0.570313,0.347656 0.890625,0.347656 0.304688,0 0.54297,-0.121094 0.71094,-0.347656 0.16797,-0.230469 0.21875,-0.5 0.15625,-0.8125 -0.0664,-0.320313 -0.23438,-0.582032 -0.49219,-0.800782 -0.261719,-0.214843 -0.550781,-0.324218 -0.859375,-0.324218 z m 8.617185,2.179687 c -0.53906,2.09375 -1.71484,3.230469 -3.51562,3.410157 l 0.0195,0.601562 h 2.10547 l -0.043,7.097656 c 0.004,1.214844 0.0391,2.023438 0.125,2.433594 0.20703,0.984375 0.84766,1.484375 1.91797,1.484375 1.54687,0 3.17187,-0.945313 4.86719,-2.84375 l -0.51172,-0.441406 c -1.22657,1.25 -2.3086,1.875 -3.25782,1.875 -0.58203,0 -0.9414,-0.335938 -1.07812,-1 -0.0352,-0.160157 -0.0508,-0.351563 -0.0508,-0.570313 l 0.0195,-8.035156 h 3.21484 l -0.0312,-0.957031 h -3.17187 V 36.082031 Z M 120.25,38.757812 c -1.79687,0 -3.25781,0.878907 -4.39844,2.621094 -1.1289,1.746094 -1.48047,3.683594 -1.03515,5.8125 0.26172,1.25 0.78515,2.214844 1.58203,2.898438 0.79687,0.679687 1.80859,1.019531 3.01562,1.019531 1.125,0 2.69141,-0.285156 3.35157,-0.863281 0.66015,-0.574219 1.26953,-1.511719 1.83203,-2.789063 l -0.44922,-0.476562 c -0.89844,1.660156 -2.71094,2.496093 -4.07422,2.496093 -1.87891,0 -3.02734,-1.035156 -3.45703,-3.09375 -0.0547,-0.265624 -0.0977,-0.546874 -0.125,-0.84375 2.23437,-0.355468 3.92578,-0.984374 5.0664,-1.894531 1.14454,-0.910156 2.28907,-1.878906 2.07422,-2.898437 -0.125,-0.605469 -0.4414,-1.082032 -0.92187,-1.441406 -0.48828,-0.359376 -1.75391,-0.546876 -2.46094,-0.546876 z m -19.65234,0.07422 -3.875004,0.894531 v 0.695313 l 1.339844,-0.16797 c 0.648438,0 1.03125,0.292969 1.152344,0.882813 0.03906,0.199219 0.06641,0.472656 0.07422,0.820312 l -0.04297,6.375 c -0.01172,0.878907 -0.109375,1.390625 -0.304688,1.546875 -0.195312,0.152344 -0.714844,0.230469 -1.558594,0.230469 l -0.02344,0.601563 h 6.148438 l -0.0117,-0.601563 c -0.85156,0 -1.40625,-0.06641 -1.65234,-0.199219 -0.24219,-0.132812 -0.41016,-0.371094 -0.48437,-0.738281 -0.0547,-0.261719 -0.0781,-0.71875 -0.082,-1.347656 l 0.0195,-8.992188 z m 18.66797,1.179688 c 0.375,0 0.73828,0.144531 1.10156,0.429687 0.35937,0.285156 0.57812,0.605469 0.64844,0.949219 0.35156,1.691406 -1.14063,2.863281 -4.50391,3.515625 -0.0937,-1.234375 0.11719,-2.355469 0.66016,-3.367188 0.53906,-1.015624 1.24218,-1.527343 2.09375,-1.527343 z m 0,0"
         id="path49" />
      <path
         style="fill:#0c7fcc;fill-opacity:1;fill-rule:nonzero;stroke:none"
         d="M 40.757812,5.742188 H 7.414062 c -2.234374,0 -4.0625,1.839843 -4.0625,4.085937 V 46.8125 c 0,2.246094 1.828126,4.085938 4.0625,4.085938 H 29.375 C 29.125,39.90625 32.855469,18.578125 40.757812,5.742188 Z m 0,0"
         id="path51" />
      <path
         style="fill:url(#linear0);fill-rule:nonzero;stroke:none"
         d="M 39.542969,6.933594 H 7.414062 c -1.585937,0 -2.878906,1.296875 -2.878906,2.894531 v 34.285156 c 7.277344,-2.808593 18.199219,-5.234375 25.75,-5.121093 1.519532,-7.984376 5.980469,-23.625 9.257813,-32.058594 z m 0,0"
         id="path53" />
      <path
         style="fill:#003a57;fill-opacity:1;fill-rule:nonzero;stroke:none"
         d="M 48.535156,4.53125 C 46.25,2.484375 43.484375,3.304688 40.757812,5.742188 c -0.40625,0.359374 -0.8125,0.761718 -1.214843,1.191406 -4.667969,4.980468 -9,14.207031 -10.34375,21.253906 0.523437,1.066406 0.933593,2.433594 1.203125,3.476562 0.06641,0.265626 0.128906,0.519532 0.179687,0.730469 0.121094,0.507813 0.183594,0.835938 0.183594,0.835938 0,0 -0.04297,-0.160157 -0.214844,-0.660157 -0.03125,-0.09766 -0.07031,-0.203124 -0.113281,-0.328124 -0.01563,-0.05078 -0.04297,-0.109376 -0.07031,-0.175782 -0.304688,-0.714844 -1.148438,-2.214844 -1.519532,-2.871094 -0.316406,0.941407 -0.59375,1.820313 -0.828125,2.617188 1.066407,1.96875 1.71875,5.34375 1.71875,5.34375 0,0 -0.05469,-0.21875 -0.324219,-0.980469 C 29.175781,35.5 27.988281,33.40625 27.703125,32.914062 c -0.480469,1.789063 -0.671875,2.996094 -0.5,3.292969 0.335937,0.570313 0.65625,1.550781 0.9375,2.640625 0.632813,2.449219 1.070313,5.429688 1.070313,5.429688 0,0 0.01562,0.199218 0.03906,0.503906 -0.08594,2.054688 -0.03516,4.1875 0.125,6.117188 0.207031,2.550781 0.605469,4.742187 1.105469,5.917968 l 0.34375,-0.1875 c -0.738281,-2.3125 -1.039063,-5.34375 -0.910157,-8.835937 0.199219,-5.339844 1.421876,-11.78125 3.679688,-18.492188 C 37.410156,19.167969 42.699219,11.039062 47.542969,7.15625 43.128906,11.167969 37.15625,24.144531 35.367188,28.953125 c -2.003907,5.378906 -3.421876,10.429687 -4.277344,15.269531 1.476562,-4.535156 6.246094,-6.484375 6.246094,-6.484375 0,0 2.339843,-2.902343 5.074218,-7.050781 -1.636718,0.375 -4.328125,1.019531 -5.226562,1.398438 -1.332032,0.5625 -1.6875,0.753906 -1.6875,0.753906 0,0 4.304687,-2.636719 7.996094,-3.832032 C 48.570312,20.960938 54.105469,9.53125 48.535156,4.53125"
         id="path55" />
    </g>
  </g>
</svg>
