<?xml version="1.0" encoding="UTF-8"?>
<svg xmlns="http://www.w3.org/2000/svg" xmlns:xlink="http://www.w3.org/1999/xlink" width="128px" height="px" viewBox="0 0 128 128" version="1.1">
<g id="surface1">
<path style=" stroke:none;fill-rule:nonzero;fill:rgb(0%,0%,0%);fill-opacity:1;" d="M 115.617188 2.777344 C 110.113281 -2.128906 103.457031 -0.15625 96.878906 5.679688 C 95.867188 6.589844 94.894531 7.539062 93.960938 8.535156 C 82.714844 20.464844 72.277344 42.558594 69.035156 59.433594 C 70.296875 61.996094 71.285156 65.265625 71.9375 67.761719 C 72.261719 69 72.554688 70.25 72.8125 71.507812 C 72.8125 71.507812 72.710938 71.128906 72.296875 69.929688 L 72.03125 69.152344 C 71.976562 69.007812 71.917969 68.867188 71.855469 68.726562 C 71.121094 67.019531 69.09375 63.417969 68.199219 61.851562 C 67.433594 64.105469 66.757812 66.214844 66.191406 68.121094 C 68.773438 72.835938 70.339844 80.921875 70.339844 80.921875 C 70.339844 80.921875 70.207031 80.394531 69.558594 78.566406 C 68.988281 76.949219 66.121094 71.929688 65.441406 70.757812 C 64.28125 75.046875 63.820312 77.9375 64.234375 78.640625 C 65.046875 80.003906 65.8125 82.363281 66.484375 84.964844 C 68.011719 90.832031 69.070312 97.980469 69.070312 97.980469 L 69.164062 99.171875 C 68.960938 104.058594 69.0625 108.953125 69.460938 113.828125 C 69.96875 119.941406 70.917969 125.1875 72.128906 128 L 72.953125 127.550781 C 71.171875 122.015625 70.449219 114.757812 70.769531 106.394531 C 71.246094 93.605469 74.191406 78.179688 79.625 62.105469 C 88.816406 37.839844 101.5625 18.367188 113.226562 9.066406 C 102.597656 18.667969 88.203125 49.761719 83.894531 61.269531 C 79.070312 74.15625 75.652344 86.25 73.59375 97.839844 C 77.148438 86.976562 88.640625 82.308594 88.640625 82.308594 C 88.640625 82.308594 94.277344 75.355469 100.863281 65.425781 C 96.917969 66.324219 90.4375 67.867188 88.265625 68.777344 C 85.066406 70.117188 84.203125 70.574219 84.203125 70.574219 C 84.203125 70.574219 94.574219 64.261719 103.472656 61.402344 C 115.707031 42.132812 129.039062 14.757812 115.617188 2.777344 M 16.558594 5.675781 C 11.160156 5.695312 6.789062 10.066406 6.773438 15.464844 L 6.773438 104.042969 C 6.789062 109.441406 11.164062 113.808594 16.558594 113.824219 L 66.789062 113.824219 C 66.414062 109.019531 66.320312 104.199219 66.511719 99.386719 C 66.480469 99.054688 66.453125 98.632812 66.425781 98.320312 C 65.777344 94.058594 64.933594 89.824219 63.902344 85.636719 C 63.257812 83.128906 62.4375 80.847656 61.9375 80 C 61.316406 78.949219 61.414062 78.347656 61.417969 77.695312 C 61.417969 77.054688 61.5 76.390625 61.617188 75.636719 C 61.933594 73.757812 62.347656 71.898438 62.863281 70.0625 L 64.019531 69.914062 C 63.929688 69.726562 63.945312 69.566406 63.855469 69.398438 L 63.636719 67.367188 C 64.277344 65.230469 64.953125 63.105469 65.675781 60.996094 L 66.742188 60.894531 C 66.699219 60.8125 66.6875 60.691406 66.644531 60.613281 L 66.414062 58.929688 C 69.777344 41.433594 80.214844 19.230469 92.015625 6.710938 C 92.367188 6.339844 92.726562 6.027344 93.070312 5.675781 Z M 16.558594 5.675781 "/>
</g>
</svg>