<?xml version="1.0" encoding="UTF-8" standalone="no"?>
<!-- Created with Inkscape (http://www.inkscape.org/) -->

<svg
   width="180"
   height="180"
   viewBox="0 0 180 180"
   version="1.1"
   id="svg5"
   xmlns="http://www.w3.org/2000/svg"
   xmlns:svg="http://www.w3.org/2000/svg">
  <defs
     id="defs2" />
  <g
     id="layer1">
    <path
       style="fill:#000000;fill-opacity:1;fill-rule:nonzero;stroke:none;stroke-width:1.40622"
       d="m 163.05792,3.9097774 c -7.73969,-6.8992519 -17.09982,-4.12526953 -26.35008,4.0813252 -1.4227,1.2798768 -2.79047,2.6146834 -4.1033,4.0154074 -15.81445,16.77573 -30.49184,47.844335 -35.051058,71.574246 1.774251,3.603431 3.163988,8.201101 4.081328,11.71115 0.45592,1.741292 0.8679,3.499063 1.23044,5.267824 0,0 -0.14282,-0.53283 -0.72508,-2.219189 l -0.37353,-1.093114 c -0.0769,-0.203243 -0.1593,-0.400991 -0.24719,-0.598742 -1.03269,-2.400456 -3.883572,-7.465033 -5.141477,-9.667741 -1.076635,3.169482 -2.026931,6.135721 -2.82342,8.816322 3.630897,6.630094 5.833603,18.000674 5.833603,18.000674 0,0 -0.186763,-0.74156 -1.098607,-3.3123 -0.801983,-2.27412 -4.83387,-9.33266 -5.789659,-10.980577 -1.631431,6.031357 -2.27961,10.096197 -1.697347,11.084947 1.142551,1.91707 2.219186,5.23486 3.163988,8.89322 2.147777,8.25054 3.636388,18.3028 3.636388,18.3028 l 0.131833,1.67536 c -0.285637,6.87179 -0.142818,13.75458 0.417472,20.60989 0.714094,8.59659 2.048906,15.97373 3.751746,19.92872 l 1.15903,-0.6317 c -2.50483,-7.78362 -3.521039,-17.98969 -3.07061,-29.75028 0.67015,-17.98419 4.8119,-39.67619 12.45271,-62.280028 12.92512,-34.122733 30.84888,-61.505511 47.25108,-74.584429 -14.94654,13.501881 -35.18838,57.226439 -41.24719,73.408919 -6.7839,18.121518 -11.59031,35.127958 -14.48514,51.425788 4.99867,-15.27613 21.15917,-21.8403 21.15917,-21.8403 0,0 7.92645,-9.7776 17.18771,-23.740899 -5.54797,1.263399 -14.66091,3.433148 -17.71504,4.713025 -4.49879,1.884111 -5.71276,2.526796 -5.71276,2.526796 0,0 14.58402,-8.876745 27.09715,-12.897646 17.20418,-27.097142 35.9519,-65.592331 17.07784,-82.4394686 M 23.760052,7.9856086 C 16.168677,8.013072 10.021971,14.15978 10,21.751155 V 146.31122 c 0.02196,7.59138 6.17417,13.73258 13.760052,13.75456 h 70.634935 c -0.527332,-6.75644 -0.659165,-13.53484 -0.390005,-20.30226 -0.04394,-0.46691 -0.08239,-1.06016 -0.12085,-1.4996 -0.91184,-5.99291 -2.098336,-11.94735 -3.548497,-17.83588 -0.906352,-3.52653 -2.059889,-6.73447 -2.762997,-7.92646 -0.873393,-1.47762 -0.736067,-2.32355 -0.730573,-3.24089 0,-0.90085 0.115352,-1.83467 0.280145,-2.89483 0.444935,-2.64215 1.027196,-5.25683 1.752277,-7.838556 l 1.625938,-0.208736 c -0.126334,-0.263666 -0.104369,-0.48888 -0.230707,-0.72508 L 89.962109,94.73711 c 0.900857,-3.00469 1.851152,-5.992901 2.867363,-8.95914 l 1.4996,-0.14282 c -0.06043,-0.115352 -0.07691,-0.285637 -0.137332,-0.395498 L 93.867655,82.872155 C 98.597159,58.268851 113.27455,27.046441 129.869,9.4412639 c 0.49438,-0.5218387 0.99974,-0.9612815 1.48312,-1.4556553 z m 0,0"
       id="path9" />
  </g>
</svg>
