<svg version="1.1" viewBox="0 0 180 180" xmlns="http://www.w3.org/2000/svg">
 <path d="m163.06 3.9098c-7.7397-6.8993-17.1-4.1253-26.35 4.0813-1.4227 1.2799-2.7905 2.6147-4.1033 4.0154-15.814 16.776-30.492 47.844-35.051 71.574 1.7743 3.6034 3.164 8.2011 4.0813 11.711 0.45592 1.7413 0.8679 3.4991 1.2304 5.2678 0 0-0.14282-0.53283-0.72508-2.2192l-0.37353-1.0931c-0.0769-0.20324-0.1593-0.40099-0.24719-0.59874-1.0327-2.4005-3.8836-7.465-5.1415-9.6677-1.0766 3.1695-2.0269 6.1357-2.8234 8.8163 3.6309 6.6301 5.8336 18.001 5.8336 18.001s-0.18676-0.74156-1.0986-3.3123c-0.80198-2.2741-4.8339-9.3327-5.7897-10.981-1.6314 6.0314-2.2796 10.096-1.6973 11.085 1.1426 1.9171 2.2192 5.2349 3.164 8.8932 2.1478 8.2505 3.6364 18.303 3.6364 18.303l0.13183 1.6754c-0.28564 6.8718-0.14282 13.755 0.41747 20.61 0.71409 8.5966 2.0489 15.974 3.7517 19.929l1.159-0.6317c-2.5048-7.7836-3.521-17.99-3.0706-29.75 0.67015-17.984 4.8119-39.676 12.453-62.28 12.925-34.123 30.849-61.506 47.251-74.584-14.947 13.502-35.188 57.226-41.247 73.409-6.7839 18.122-11.59 35.128-14.485 51.426 4.9987-15.276 21.159-21.84 21.159-21.84s7.9264-9.7776 17.188-23.741c-5.548 1.2634-14.661 3.4331-17.715 4.713-4.4988 1.8841-5.7128 2.5268-5.7128 2.5268s14.584-8.8767 27.097-12.898c17.204-27.097 35.952-65.592 17.078-82.439m-139.3 4.0758c-7.5914 0.027463-13.738 6.1742-13.76 13.766v124.56c0.02196 7.5914 6.1742 13.733 13.76 13.755h70.635c-0.52733-6.7564-0.65916-13.535-0.39-20.302-0.04394-0.46691-0.08239-1.0602-0.12085-1.4996-0.91184-5.9929-2.0983-11.947-3.5485-17.836-0.90635-3.5265-2.0599-6.7345-2.763-7.9265-0.87339-1.4776-0.73607-2.3236-0.73057-3.2409 0-0.90085 0.11535-1.8347 0.28014-2.8948 0.44494-2.6422 1.0272-5.2568 1.7523-7.8386l1.6259-0.20874c-0.12633-0.26367-0.10437-0.48888-0.23071-0.72508l-0.30761-2.8564c0.90086-3.0047 1.8512-5.9929 2.8674-8.9591l1.4996-0.14282c-0.06043-0.11535-0.07691-0.28564-0.13733-0.3955l-0.32408-2.3675c4.7295-24.603 19.407-55.826 36.001-73.431 0.49438-0.52184 0.99974-0.96128 1.4831-1.4557z"/>
</svg>
