<svg viewBox="0 0 128 128" xmlns="http://www.w3.org/2000/svg"><defs><linearGradient id="sqlite-original-wordmark-a" x1="-15.615" x2="-6.741" y1="-9.108" y2="-9.108" gradientTransform="matrix(0 4.0868 -4.0632 0 -14.448 103.81)" gradientUnits="userSpaceOnUse"><stop stop-color="#95d7f4" offset="0"/><stop stop-color="#0f7fcc" offset=".92"/><stop stop-color="#0f7fcc" offset="1"/></linearGradient></defs><path d="M48.648 63.613c-1.703 0-3.09.512-4.156 1.527-1.063 1.016-1.598 2.348-1.598 3.98 0 .845.129 1.618.395 2.325a5.894 5.894 0 001.23 1.957c.55.594 1.656 1.395 3.3 2.422 2.024 1.242 3.345 2.25 3.981 3.035s.954 1.61.954 2.469c0 1.148-.375 2.07-1.153 2.758-.773.687-1.808 1.035-3.097 1.035-1.352 0-2.532-.484-3.543-1.438-1.016-.953-1.528-2.214-1.54-3.8h-.628v5.75h.628c.192-.547.461-.825.809-.825.168 0 .559.114 1.172.332 1.488.532 2.707.793 3.668.793 1.652 0 3.07-.586 4.242-1.77 1.176-1.183 1.77-2.612 1.77-4.28 0-1.293-.391-2.446-1.157-3.446-.773-1.004-2.265-2.175-4.5-3.515-1.921-1.164-3.171-2.106-3.75-2.844s-.875-1.55-.875-2.445c0-.973.356-1.746 1.055-2.328.695-.579 1.606-.868 2.754-.868 1.281 0 2.356.387 3.203 1.157.848.777 1.336 1.847 1.48 3.226h.633v-4.984h-.585c-.075.258-.141.418-.2.492-.062.074-.172.11-.347.11-.2 0-.563-.087-1.078-.255-1.106-.375-2.125-.57-3.067-.57zm20.598 0c-2.078 0-3.965.496-5.672 1.48-1.707.989-3.058 2.352-4.058 4.094-.993 1.739-1.493 3.59-1.493 5.559 0 2.644.864 5.004 2.598 7.07 1.742 2.067 3.82 3.356 6.234 3.848.555.289 1.348 1.035 2.383 2.25 1.16 1.36 2.149 2.344 2.961 2.93a8.746 8.746 0 002.61 1.304c.921.282 1.921.418 3.003.418 1.309 0 2.485-.226 3.516-.699l-.23-.578a5.566 5.566 0 01-1.915.324c-.91 0-1.835-.305-2.761-.914s-2.086-1.773-3.461-3.488c-.649-.824-1.098-1.344-1.348-1.547 2.64-.52 4.817-1.805 6.512-3.867s2.539-4.414 2.539-7.051c0-3.133-1.106-5.762-3.305-7.906-2.199-2.145-4.906-3.227-8.113-3.227zm12.855 0l.035.684c1.383 0 2.156.406 2.328 1.23.067.297.098.844.106 1.625l-.012 15c-.016 1.121-.172 1.836-.477 2.145-.304.308-.824.503-1.57.578l-.031.68h13.793l.355-3.403h-.632c-.176.926-.59 1.59-1.25 1.965-.657.379-1.82.57-3.5.57h-1.309c-1.512 0-2.387-.55-2.617-1.656a3.677 3.677 0 01-.067-.715l.055-15.164c0-1.117.14-1.867.434-2.234.289-.367.824-.57 1.59-.621l-.032-.684zm-12.633.824c2.34 0 4.258.93 5.734 2.801 1.48 1.879 2.211 4.445 2.211 7.695 0 3.082-.742 5.551-2.23 7.407-1.489 1.855-3.473 2.78-5.938 2.78-2.367 0-4.285-.952-5.758-2.87-1.472-1.914-2.203-4.399-2.203-7.461 0-3.14.739-5.656 2.223-7.54 1.485-1.874 3.473-2.812 5.961-2.812zm31.723 3.227c-.332 0-.594.117-.781.344-.2.23-.258.507-.192.843.067.332.254.614.547.86.285.238.602.367.938.367a.884.884 0 00.75-.367c.18-.246.234-.528.168-.86a1.497 1.497 0 00-.52-.843 1.415 1.415 0 00-.91-.344zm9.098 2.3c-.567 2.212-1.809 3.41-3.711 3.602l.02.633h2.222l-.043 7.496c.004 1.281.04 2.133.133 2.567.219 1.039.894 1.57 2.023 1.57 1.633 0 3.348-1 5.137-3.004l-.54-.465c-1.292 1.316-2.437 1.977-3.437 1.977-.617 0-.996-.352-1.14-1.055a3.007 3.007 0 01-.051-.602l.02-8.484h3.394l-.035-1.008h-3.348v-3.226zm13.125 2.825c-1.899 0-3.442.93-4.645 2.77-1.191 1.843-1.562 3.886-1.094 6.136.278 1.316.829 2.336 1.672 3.059.84.718 1.91 1.074 3.184 1.074 1.187 0 2.84-.301 3.539-.91.695-.606 1.34-1.594 1.934-2.946l-.477-.5c-.95 1.75-2.86 2.633-4.3 2.633-1.985 0-3.196-1.094-3.65-3.265a7.612 7.612 0 01-.132-.891c2.36-.375 4.145-1.04 5.348-2 1.21-.961 2.418-1.984 2.191-3.059a2.469 2.469 0 00-.973-1.523c-.515-.379-1.851-.578-2.597-.578zm-20.75.078l-4.09.945v.735l1.414-.176c.688 0 1.09.308 1.219.93.039.21.07.5.078.867l-.047 6.73c-.012.926-.113 1.469-.32 1.633-.207.16-.754.242-1.645.242l-.027.637h6.492l-.012-.637c-.898 0-1.484-.07-1.746-.21-.254-.141-.433-.391-.511-.778-.055-.277-.082-.758-.086-1.422l.02-9.496zm19.71 1.246c.395 0 .778.152 1.16.453.384.3.614.64.688 1.004.371 1.785-1.207 3.023-4.757 3.711-.098-1.305.125-2.488.699-3.555.57-1.07 1.312-1.613 2.21-1.613z" fill="#003956"/><path d="M39.492 37.938H4.289c-2.36 0-4.29 1.941-4.29 4.313v39.043c0 2.37 1.93 4.312 4.29 4.312h23.184c-.262-11.602 3.676-34.117 12.02-47.672z" fill="#0b7fcc"/><path d="M38.207 39.195H4.289a3.048 3.048 0 00-3.04 3.055v36.195c7.685-2.965 19.212-5.528 27.185-5.406 1.605-8.43 6.312-24.942 9.773-33.849z" fill="url(#sqlite-original-wordmark-a)"/><path d="M47.699 36.656c-2.41-2.16-5.332-1.293-8.207 1.277-.43.383-.86.805-1.285 1.258-4.926 5.262-9.5 15-10.918 22.441.55 1.125.984 2.566 1.27 3.668a40.633 40.633 0 01.382 1.656s-.047-.172-.226-.699l-.122-.348a1.81 1.81 0 00-.074-.183c-.32-.754-1.21-2.34-1.601-3.031a70.465 70.465 0 00-.875 2.761c1.125 2.078 1.812 5.645 1.812 5.645s-.055-.234-.34-1.035c-.254-.715-1.507-2.926-1.808-3.446-.508 1.891-.707 3.164-.528 3.477.356.602.696 1.637.993 2.79.668 2.585 1.128 5.73 1.128 5.73l.04.53a53.477 53.477 0 00.132 6.462c.22 2.691.64 5.004 1.168 6.246l.364-.2c-.782-2.44-1.098-5.64-.961-9.327.21-5.637 1.5-12.438 3.882-19.52 4.032-10.7 9.614-19.281 14.727-23.38-4.66 4.235-10.965 17.935-12.855 23.013-2.113 5.675-3.609 11.008-4.515 16.12 1.562-4.789 6.598-6.847 6.598-6.847s2.468-3.063 5.355-7.445c-1.727.398-4.57 1.078-5.52 1.476-1.406.594-1.78.797-1.78.797s4.546-2.781 8.44-4.047c5.364-8.492 11.208-20.559 5.325-25.84" fill="#003956"/></svg>
