<?xml version="1.0" encoding="UTF-8" standalone="no"?>
<!-- Created with Inkscape (http://www.inkscape.org/) -->

<svg
   width="180"
   height="180"
   viewBox="0 0 180 180"
   version="1.1"
   id="svg5"
   xmlns="http://www.w3.org/2000/svg"
   xmlns:svg="http://www.w3.org/2000/svg">
  <defs
     id="defs2">
    <linearGradient
       id="linear0"
       gradientUnits="userSpaceOnUse"
       x1="-15.614694"
       y1="-9.108298"
       x2="-6.741007"
       y2="-9.108298"
       gradientTransform="matrix(-3.8975e-7,8.909052,-8.909052,-3.8975e-7,-22.664757,151.56438)">
      <stop
         offset="0"
         style="stop-color:rgb(59.215686%,85.098039%,96.470588%);stop-opacity:1;"
         id="stop9" />
      <stop
         offset="0.920245"
         style="stop-color:rgb(5.882353%,50.196078%,80%);stop-opacity:1;"
         id="stop11" />
      <stop
         offset="1"
         style="stop-color:rgb(5.882353%,50.196078%,80%);stop-opacity:1;"
         id="stop13" />
    </linearGradient>
  </defs>
  <g
     id="layer1">
    <g
       id="surface1"
       transform="matrix(1.463408,0,0,1.4634079,-3.1878217,-3.6576898)">
      <path
         style="fill:#0c7fcc;fill-opacity:1;fill-rule:nonzero;stroke:none"
         d="M 68.964844,97.800781 C 68.90625,97.101562 68.875,96.648438 68.875,96.648438 c 0,0 -2.121094,-14.308594 -4.648438,-18.578126 -0.398437,-0.679687 0.04297,-3.457031 1.160157,-7.574218 0.652343,1.125 3.402343,5.949218 3.957031,7.503906 0.621094,1.753906 0.75,2.257812 0.75,2.257812 0,0 -1.507812,-7.765624 -3.984375,-12.296874 0.542969,-1.832032 1.191406,-3.859376 1.925781,-6.023438 0.9375,1.644531 3.183594,5.632812 3.679688,7.015625 0.09766,0.28125 0.183594,0.523437 0.257812,0.746094 0.02344,-0.132813 0.05078,-0.265625 0.07422,-0.398438 -0.566406,-2.40625 -1.683594,-6.59375 -3.207031,-9.6875 C 72.222656,42 83.765625,18.460938 95.59375,7.957031 H 18.417969 c -5.175781,0 -9.40625,4.234375 -9.40625,9.40625 v 85.113279 c 0,5.17188 4.230469,9.40625 9.40625,9.40625 H 69.25 c -0.367188,-4.4375 -0.492188,-9.34765 -0.285156,-14.082029"
         id="path18" />
      <path
         style="fill:url(#linear0);fill-rule:nonzero;stroke:none"
         d="m 65.386719,70.496094 c 0.652343,1.125 3.402343,5.949218 3.957031,7.503906 0.621094,1.753906 0.75,2.257812 0.75,2.257812 0,0 -1.507812,-7.765624 -3.984375,-12.296874 0.542969,-1.832032 1.191406,-3.859376 1.925781,-6.023438 0.855469,1.503906 2.808594,4.964844 3.511719,6.601562 0.02734,-0.308593 0.05078,-0.617187 0.07813,-0.925781 -0.621094,-2.398437 -1.570312,-5.539062 -2.785156,-8 C 71.957036,43.398438 81.98438,22.164062 92.792974,10.703125 h -74.375 c -3.675781,0 -6.664063,2.984375 -6.664063,6.660156 v 78.902344 c 16.84375,-6.464844 37.15625,-12.375 54.636719,-12.121094 -0.648437,-2.5 -1.386719,-4.765625 -2.164063,-6.074219 -0.398437,-0.679687 0.04297,-3.457031 1.160157,-7.574218"
         id="path20" />
      <path
         style="fill:#003a57;fill-opacity:1;fill-rule:nonzero;stroke:none"
         d="M 113.59766,5.171875 C 108.3125,0.457031 101.91016,2.351562 95.59375,7.957031 94.65625,8.789062 93.722656,9.714844 92.792969,10.703125 81.984375,22.164062 71.957031,43.398438 68.839844,59.613281 c 1.214844,2.460938 2.164062,5.601563 2.785156,8 0.160156,0.617188 0.304688,1.195313 0.421875,1.6875 0.273437,1.160157 0.421875,1.917969 0.421875,1.917969 0,0 -0.09766,-0.367188 -0.496094,-1.519531 -0.07422,-0.222657 -0.160156,-0.464844 -0.257812,-0.746094 -0.04297,-0.117187 -0.101563,-0.261719 -0.167969,-0.414063 -0.703125,-1.636718 -2.65625,-5.097656 -3.511719,-6.601562 -0.734375,2.164062 -1.382812,4.191406 -1.925781,6.023438 2.476563,4.53125 3.984375,12.296874 3.984375,12.296874 0,0 -0.128906,-0.503906 -0.75,-2.257812 -0.554688,-1.554688 -3.304688,-6.378906 -3.957031,-7.503906 -1.117188,4.117187 -1.558594,6.894531 -1.160157,7.574218 0.777344,1.308594 1.515626,3.574219 2.164063,6.074219 1.464844,5.640625 2.484375,12.503907 2.484375,12.503907 0,0 0.03125,0.453124 0.08984,1.152343 -0.207032,4.734379 -0.08203,9.644529 0.285156,14.082029 0.484375,5.8711 1.398438,10.91797 2.5625,13.61719 l 0.792969,-0.42969 C 70.894531,119.75 70.199219,112.77734 70.503906,104.73828 70.964844,92.445312 73.792969,77.625 79.015625,62.179688 87.847656,38.859375 100.09375,20.148438 111.30469,11.214844 101.08594,20.441406 87.257812,50.3125 83.117188,61.375 78.484375,73.761719 75.199219,85.382812 73.21875,96.519531 76.632812,86.082031 87.679688,81.59375 87.679688,81.59375 c 0,0 5.414062,-6.683594 11.746093,-16.226562 -3.792969,0.867187 -10.019531,2.347656 -12.105469,3.222656 -3.074218,1.289062 -3.90625,1.730468 -3.90625,1.730468 0,0 9.964844,-6.066406 18.515628,-8.816406 11.75781,-18.515625 24.5664,-44.824218 11.66797,-56.332031"
         id="path22" />
    </g>
  </g>
</svg>
