<svg xmlns="http://www.w3.org/2000/svg" viewBox="0 0 128 128"><path fill="#0F80CC" d="M44.813 35.434c-1.697-.048-3.513.895-5.317 2.504q-.661.601-1.277 1.261c-4.93 5.262-9.504 15.008-10.926 22.45.55 1.132.983 2.573 1.27 3.675.143.543.273 1.098.386 1.653 0 0-.047-.17-.226-.702l-.118-.338a2 2 0 0 0-.078-.187c-.32-.754-1.21-2.343-1.601-3.035a73 73 0 0 0-.88 2.765c1.13 2.082 1.817 5.649 1.817 5.649s-.057-.234-.343-1.04c-.25-.714-1.505-2.93-1.805-3.444-.508 1.89-.706 3.167-.527 3.476.356.601.69 1.64.984 2.79.672 2.59 1.137 5.741 1.137 5.741l.039.524a53 53 0 0 0 .132 6.465c.22 2.7.637 5.012 1.168 6.254l.36-.202c-.778-2.44-1.098-5.643-.957-9.33.21-5.64 1.5-12.445 3.883-19.535 4.032-10.703 9.616-19.292 14.728-23.394-4.66 4.234-10.967 17.947-12.857 23.021-2.113 5.687-3.614 11.022-4.516 16.135 1.558-4.793 6.598-6.854 6.598-6.854s2.468-3.064 5.355-7.443c-1.727.394-4.57 1.073-5.52 1.475-1.401.594-1.78.793-1.78.793s4.546-2.784 8.445-4.045c5.363-8.5 11.207-20.575 5.324-25.856-.905-.811-1.88-1.198-2.898-1.226M4.288 37.938c-2.367.008-4.282 1.937-4.291 4.316v39.072c.009 2.38 1.928 4.307 4.291 4.315h22.02a54 54 0 0 1-.122-6.368c-.015-.149-.027-.332-.039-.472a65 65 0 0 0-1.105-5.596c-.285-1.105-.644-2.111-.863-2.482-.27-.465-.23-.732-.227-1.022 0-.28.036-.572.086-.904q.208-1.242.547-2.461l.508-.063c-.04-.083-.031-.156-.074-.23l-.094-.895q.42-1.414.894-2.81l.465-.045c-.015-.035-.023-.09-.043-.125l-.097-.742c1.472-7.715 6.046-17.512 11.218-23.031.156-.164.312-.3.465-.458zm44.36 25.675v.004c-1.704 0-3.095.509-4.157 1.524s-1.601 2.346-1.601 3.978q0 1.266.398 2.326c.261.707.676 1.36 1.227 1.953.555.594 1.66 1.4 3.304 2.426 2.02 1.242 3.345 2.25 3.98 3.035q.955 1.179.954 2.47c0 1.147-.374 2.069-1.152 2.757-.773.687-1.81 1.035-3.098 1.035q-2.026 0-3.547-1.433c-1.012-.957-1.523-2.22-1.539-3.805h-.625v5.75h.625c.195-.543.465-.824.809-.824q.257.002 1.175.332c1.488.535 2.707.793 3.668.793 1.652 0 3.067-.586 4.243-1.77 1.175-1.184 1.769-2.613 1.769-4.281 0-1.293-.39-2.446-1.156-3.445-.773-1.003-2.265-2.176-4.5-3.516-1.921-1.164-3.171-2.106-3.75-2.844s-.875-1.55-.875-2.445c0-.97.356-1.746 1.05-2.328.7-.578 1.61-.868 2.758-.868 1.281 0 2.357.387 3.203 1.157.848.777 1.337 1.847 1.481 3.226h.633v-4.984h-.586c-.075.258-.14.418-.2.492-.061.074-.172.11-.347.11q-.305-.002-1.078-.254c-1.106-.375-2.125-.57-3.067-.57m20.593.004c-2.078 0-3.96.493-5.668 1.48q-2.56 1.478-4.058 4.09-1.49 2.607-1.493 5.56c0 2.643.863 5.003 2.598 7.07 1.742 2.066 3.82 3.355 6.234 3.847.555.29 1.343 1.035 2.38 2.25 1.162 1.36 2.148 2.344 2.96 2.93a8.8 8.8 0 0 0 2.614 1.304q1.38.423 3.004.422c1.308 0 2.484-.23 3.515-.703l-.23-.578a5.6 5.6 0 0 1-1.914.324c-.91 0-1.837-.3-2.762-.914q-1.39-.915-3.461-3.488c-.65-.824-1.098-1.344-1.348-1.547 2.64-.52 4.816-1.805 6.512-3.867q2.537-3.095 2.54-7.05c0-3.134-1.107-5.763-3.306-7.907-2.2-2.145-4.906-3.223-8.117-3.223m12.86 0 .035.68c1.38 0 2.156.406 2.328 1.23.067.297.097.844.105 1.625l-.015 15q-.018 1.681-.475 2.145c-.304.308-.822.504-1.568.578l-.035.68h13.796l.356-3.403h-.633c-.18.926-.59 1.59-1.25 1.965q-.986.57-3.5.57h-1.308q-2.27 0-2.618-1.656a3.7 3.7 0 0 1-.066-.715l.05-15.164c0-1.117.14-1.867.434-2.234.293-.367.824-.567 1.594-.621l-.035-.68zm-12.633.82c2.34 0 4.256.93 5.732 2.801 1.48 1.88 2.211 4.446 2.211 7.696q.001 4.623-2.228 7.406c-1.49 1.859-3.475 2.78-5.944 2.78-2.367 0-4.285-.952-5.754-2.87-1.472-1.914-2.203-4.399-2.203-7.46q-.001-4.714 2.225-7.542 2.228-2.81 5.96-2.81m31.722 3.227c-.336 0-.594.117-.785.344-.195.23-.253.505-.187.844q.102.492.543.859c.29.238.605.367.941.367a.89.89 0 0 0 .75-.367q.263-.367.164-.86a1.46 1.46 0 0 0-.52-.843 1.4 1.4 0 0 0-.906-.344m9.098 2.3c-.57 2.213-1.813 3.41-3.71 3.602l.019.633h2.222l-.043 7.492c.004 1.286.04 2.138.13 2.57.218 1.04.898 1.567 2.027 1.567 1.633 0 3.347-.996 5.136-3l-.54-.469c-1.297 1.32-2.437 1.985-3.44 1.985-.614 0-.993-.356-1.137-1.059a2.7 2.7 0 0 1-.055-.601l.024-8.485h3.39l-.03-1.008h-3.348v-3.226zm13.12 2.825c-1.899 0-3.436.93-4.643 2.77-1.191 1.843-1.562 3.886-1.09 6.132q.41 1.98 1.668 3.063c.844.718 1.91 1.074 3.183 1.074 1.188 0 2.843-.3 3.54-.91.693-.606 1.339-1.593 1.933-2.945l-.473-.5c-.95 1.75-2.863 2.632-4.3 2.632-1.985 0-3.196-1.09-3.653-3.265a9 9 0 0 1-.129-.89q3.542-.562 5.348-2c1.207-.96 2.418-1.984 2.191-3.06a2.47 2.47 0 0 0-.976-1.523c-.516-.379-1.852-.578-2.598-.578zm-20.745.078-4.09.945v.735l1.414-.176c.684 0 1.086.309 1.215.93q.065.316.078.867l-.043 6.73c-.016.926-.117 1.47-.324 1.633q-.306.241-1.644.242l-.024.637h6.488l-.011-.637c-.898 0-1.485-.07-1.743-.21-.258-.138-.432-.39-.511-.778-.058-.277-.083-.758-.086-1.422l.02-9.496zm19.705 1.246h.002q.59 0 1.164.453.571.458.684 1.004c.37 1.785-1.203 3.024-4.754 3.711-.097-1.305.124-2.487.695-3.554.57-1.07 1.311-1.614 2.21-1.614"/></svg>
