<svg xmlns="http://www.w3.org/2000/svg" viewBox="0 0 128 128"><path fill="#0053CC" d="M71.4,38.8c-1.5-0.6-3.9-1-6.9-1.1c-4.2-0.1-9,0.4-9.2,0.5v20c13.3,0.6,15.5-1.7,15.5-1.7C82.4,50.6,75.1,40.3,71.4,38.8z"/><path fill="#0053CC" d="M64,0C28.6,0,0,28.6,0,64s28.6,64,64,64s64-28.6,64-64S99.3,0,64,0z M92.6,89.8H82L64.4,63.5h-9V84h9v5.8H41.5v-5.7l7.6-0.1L49,38.1c-0.8-0.2-7.5-0.8-7.5-0.8V32c1,1,7.9,1.2,7.9,1.2c1.6,0.1,3.9,0.2,5.2-0.1c9.3-1.7,16.4-0.4,16.4-0.4c14,3.2,14.2,15.8,10.3,22.6C77.8,61.1,71,62.5,71,62.5l14.4,21.8l7.2-0.1L92.6,89.8L92.6,89.8z"/></svg>