<svg xmlns="http://www.w3.org/2000/svg" viewBox="0 0 128 128"><path fill="#D1A41A" d="M67.521 2.633c-2.014 3.398-2.906 11.276-2.68 16.865l-.027.018c.191 5.057.901 9.68 2.008 13.945-16.517 4.085-34.505 14.9-44.566 25.36-4.706-6.353-6.573-11.564-7.127-15.514-.7-4.99.488-9.566 3.441-13.235 4.624-5.744 11.194-6.147 17.948-5.011-.132 1.067.007 2.085.435 2.716 1.786 2.638 11.386 3.564 17.117 1.008-4.23-5.926-12.794-8.818-15.168-7.658-.786.384-1.38 1.088-1.787 1.91-2.334-.417-4.652-.728-6.347-.715-5.956.043-10.51 2.126-13.92 6.364-3.347 4.157-4.7 9.32-3.912 14.93.746 5.313 3.376 10.964 7.785 16.825q-1.1 1.179-2.121 2.323C7.853 74.79-.004 87.685-.004 89.822v1.108h14.178l-.248-1.315c-.8-4.23.797-9.52 4.072-13.472 2.056-2.482 5.462-5.315 10.809-6.622 4.755 4.64 10.811 9.568 17.554 14.323h10.535v-1.108c0-1.25-.62-2.342-1.744-3.078-1.664-1.088-4.233-1.238-6.593-.433-2.25-2.506-3.51-5.853-3.784-10.01 22.866 2.024 44.738 11.257 69.413 24.148h13.578l.177-.888c.253-1.267-.436-2.965-1.845-4.541h.006c-2.431-2.72-7.195-4.008-11.172-3.913-2.746-3.268-17.876-19.207-18.725-20.101a51.3 51.3 0 0 0 14.215-15.125h7.457V47.2h-6.488c.413-.728.799-1.478 1.18-2.232h5.308v-1.594h-4.541c3.363-7.258 5.237-15.583 5.057-24.705l.017.01c-.01-2.494-.785-13.037-2.213-15.94-3.872 1.471-10.916 6.239-12.511 11.114-7.642-1.141-16.258-1.008-23.805.298-1.26-5.245-7.588-9.258-12.362-11.52m.874 3.074c1.123 6.128 3.16 9.972 7.574 11.857 3.909-1.118 8.422-1.795 13.05-2.05l3.83 8.4 2.456-8.47c4.674.15 9.257.738 13.25 1.84 4.06-2.954 5.636-7.463 6.496-11.403 1.074 4.586.949 14.49.953 14.492.075 3.7-.225 7.255-.85 10.645l-4.377 1.86 3.846.585a49 49 0 0 1-1.05 3.816l-3.735 1.086 2.959 1.065a48 48 0 0 1-1.668 3.945h-6.162v1.594h5.324a47 47 0 0 1-1.264 2.232h-4.06v1.594h3.076c-4.051 6.135-9.414 11.112-15.553 14.62-7.092-3.535-12.447-8.698-16.379-14.62h2.338V47.2h-3.351a49 49 0 0 1-1.28-2.232h4.631v-1.594h-5.453a54 54 0 0 1-2.463-5.838l2.778-.777-3.502-1.403a59 59 0 0 1-.963-3.449l5.406-.367-6.172-3.273c-1.516-8.353-1.222-16.46.315-22.561m15.712 15.879c-4.747 0-6.62 4.85-6.697 5.057l1.344.503c.069-.177 1.614-4.125 5.353-4.125.82 0 1.392.332 1.807 1.043.972 1.673.814 4.973.008 8.426h-6.549v1.434h19.371l1.096-.006-.002.006h.578l-.002.002 6.223-.008.015-1.428h-6.27c1.155-2.718 2.772-5.166 8.544-5.166V25.89c-5.326 0-8.512 2.114-10.04 6.6h-11.49c.804-3.586.942-7.11-.244-9.147-.668-1.15-1.72-1.758-3.045-1.758m15.73 12.338h-1.093l-.365.002c-.51 1.624-.306 4.07.95 6.17h-14.6c.888-1.78 1.71-3.95 2.312-6.17h-1.486c-.663 2.355-1.595 4.685-2.643 6.531l-.34.598 8.194 5.156-4.614 3.041.791 1.197 5.155-3.4 5.566 3.633.764-1.215-5.16-3.192s7.716-5.011 8.1-5.255l-.007-.01h.008c-1.7-2.508-2.24-4.649-1.531-7.086m-32.442 1.68a53 53 0 0 0 3.039 7.771h-4.897v1.594h5.69a50 50 0 0 0 1.261 2.232h-6.95v1.594h7.915c4.85 7.527 11.4 13.295 18.817 17.658.826-.472 1.631-.98 2.431-1.5l1.947 2.098-3.267 5.03 5.574-2.548 3.227 3.473-5.455 4.156 7.511-1.941 10.13 10.906.857-.074c5.369-.46 8.42 2.451 9.228 3.355.592.662.95 1.267 1.145 1.74h-10.862c-24.91-12.998-46.78-22.163-70.011-24.16q.075-4.851 1.73-10.97l-2.137-.58q-1.701 6.29-1.8 11.38c-2.421-.16-4.859-.244-7.317-.244a30 30 0 0 0-5.713.531c-2.258-2.256-4.181-4.407-5.816-6.449 2.907-3.029 6.336-5.972 10.08-8.74l5.176 3.574-1.69-6.035a105 105 0 0 1 4.854-3.084l7.672 3.899-3.602-6.213q1.58-.854 3.18-1.65L60.066 49.6l-3.521-10.434c3.663-1.476 7.316-2.689 10.85-3.562m18.626 5.923 11.842.004-5.783 3.813zM22.148 62.262a80 80 0 0 0 4.858 5.447c-5.185 1.56-8.585 4.458-10.707 7.018-3.353 4.047-5.132 9.394-4.725 13.984H2.643c1.795-3.883 8.943-15.11 19.505-26.45m-10.285 36.3v3.21h6.783v19.207h3.49v-19.206h6.782v-3.21zm97.219 1.641-1.066 3.563-2.387 1.048v1.999h2.3v9.048c0 1.716.41 3.09 1.301 4.028.891.939 2.217 1.382 3.858 1.382q.663 0 1.451-.138l.01-.002c.54-.082.965-.188 1.305-.352l.283-.134v-2.84l-.64.185a9 9 0 0 1-.886.192h-.004a8 8 0 0 1-1.168.082c-.693 0-1.152-.199-1.515-.608-.356-.402-.563-1.006-.563-1.894v-8.951h4.659v-2.887h-4.659v-3.72zm-71.303 3.428c-2.43 0-4.416.79-5.822 2.363-1.407 1.565-2.09 3.743-2.09 6.442 0 1.75.314 3.3.957 4.638.642 1.337 1.572 2.389 2.77 3.114 1.194.722 2.57 1.083 4.084 1.083 2.43 0 4.418-.79 5.834-2.363h.002v-.002c1.417-1.585 2.105-3.77 2.105-6.47 0-2.635-.699-4.797-2.121-6.397-1.41-1.6-3.362-2.408-5.719-2.408m18.825 0c-1.106 0-2.13.237-3.045.715l-.002.002c-.623.33-1.03.875-1.467 1.388l-.328-1.812h-2.895v17.055H52.3v-8.924c0-2.024.359-3.414.949-4.176.607-.782 1.534-1.184 2.957-1.184 1.07 0 1.75.28 2.184.791h.002l.002.002c.439.51.699 1.337.699 2.545v10.946h3.43v-9.465c0-1.74.354-2.958.968-3.696.613-.737 1.553-1.123 2.97-1.123 1.06 0 1.735.28 2.169.791l.002.002c.439.51.7 1.337.7 2.545v10.946h3.43v-10.975c0-2.124-.467-3.758-1.503-4.818-1.015-1.057-2.53-1.555-4.432-1.555-1.23 0-2.356.259-3.342.789-.78.42-1.315 1.068-1.812 1.74-.945-1.642-2.686-2.53-5.068-2.53m27.228 0c-2.495 0-4.508.786-5.908 2.365h-.002c-1.39 1.578-2.06 3.79-2.06 6.557 0 2.698.66 4.862 2.03 6.41l.003.002v.002c1.38 1.538 3.352 2.304 5.779 2.304 1.688 0 3.12-.287 4.287-.892l.27-.139v-3.203l-.692.283c-1.355.555-2.66.826-3.926.826-1.45 0-2.44-.454-3.146-1.384-.7-.935-1.084-2.334-1.084-4.239 0-2.015.399-3.458 1.115-4.37.716-.914 1.75-1.372 3.275-1.372q.66 0 1.575.21h.004l.002.001q.915.195 1.677.502l.48.194 1.075-2.967-.395-.201c-.5-.257-1.14-.457-1.939-.63a11.5 11.5 0 0 0-2.42-.26m13.758.027v.002q-1.487 0-2.969.38h-.002a12 12 0 0 0-2.705 1.058l-.389.21 1.11 2.77.482-.232c1.643-.798 3.09-1.182 4.324-1.182 1.107 0 1.805.272 2.221.74v.006l.006.002c.428.466.687 1.258.687 2.445v.512l-2.24.072c-2.645.08-4.674.543-6.092 1.473-1.419.93-2.17 2.37-2.17 4.125 0 1.612.498 2.946 1.51 3.87v.003c1.016.917 2.41 1.36 4.086 1.36 1.241 0 2.302-.182 3.178-.57l.002-.003c.69-.312 1.332-.99 1.978-1.68l.414 1.96h2.706v-11.46c0-1.955-.487-3.482-1.55-4.455-1.044-.967-2.6-1.406-4.587-1.406m-59.885 3.037c1.501 0 2.526.464 3.25 1.403l.002.002.004.002c.733.932 1.139 2.36 1.139 4.334 0 1.994-.409 3.444-1.145 4.396-.725.94-1.739 1.402-3.219 1.402s-2.497-.464-3.222-1.414c-.727-.952-1.127-2.4-1.127-4.384 0-2.005.396-3.449 1.11-4.368.712-.92 1.726-1.373 3.208-1.373m62.592 6.409v.93c0 1.396-.389 2.395-1.149 3.122l-.002.002c-.754.728-1.79 1.106-3.212 1.106-.876 0-1.488-.205-1.913-.567-.409-.355-.62-.85-.62-1.63 0-.997.323-1.605 1.038-2.05h.002c.724-.452 2.052-.766 3.942-.833h.002z"/></svg>
