<svg xmlns="http://www.w3.org/2000/svg" viewBox="0 0 128 128"><path fill="#D1A41A" d="M67.521 18.635c-2.014 3.398-2.905 11.276-2.68 16.865l-.025.018c.191 5.056.902 9.678 2.008 13.943-16.518 4.086-34.508 14.9-44.568 25.361-4.706-6.352-6.572-11.563-7.127-15.513-.7-4.99.49-9.565 3.443-13.235 4.623-5.743 11.192-6.147 17.946-5.011-.131 1.066.008 2.086.435 2.716 1.786 2.64 11.387 3.565 17.117 1.008-4.229-5.926-12.795-8.818-15.168-7.658-.786.384-1.379 1.088-1.785 1.91-2.335-.418-4.653-.728-6.347-.715-5.957.044-10.511 2.126-13.922 6.364-3.347 4.156-4.7 9.32-3.912 14.93.746 5.313 3.376 10.965 7.785 16.825a155 155 0 0 0-2.121 2.325C7.854 90.793-.004 103.688-.004 105.824v1.108h14.178l-.248-1.315c-.8-4.232.797-9.518 4.072-13.472 2.057-2.481 5.464-5.316 10.81-6.622 4.755 4.64 10.811 9.569 17.553 14.323h10.537v-1.108c0-1.249-.62-2.342-1.744-3.078-1.665-1.088-4.233-1.238-6.593-.433-2.25-2.506-3.514-5.852-3.786-10.01 22.865 2.024 44.737 11.256 69.413 24.148h13.578l.177-.888c.254-1.267-.436-2.965-1.845-4.541h.007c-2.432-2.72-7.195-4.008-11.173-3.913-2.746-3.268-17.874-19.207-18.723-20.101a51.3 51.3 0 0 0 14.213-15.125h7.459v-1.594h-6.49c.413-.728.797-1.479 1.177-2.232h5.313v-1.594h-4.543c3.363-7.259 5.237-15.583 5.057-24.705l.02.01c-.01-2.495-.788-13.039-2.216-15.942-3.872 1.471-10.916 6.24-12.511 11.114-7.642-1.14-16.256-1.006-23.803.3-1.26-5.245-7.59-9.257-12.364-11.52m.874 3.076c1.123 6.127 3.16 9.97 7.574 11.855 3.908-1.118 8.422-1.795 13.05-2.05l3.83 8.4 2.456-8.47c4.674.15 9.256.738 13.25 1.84 4.06-2.954 5.636-7.462 6.496-11.403 1.074 4.584.95 14.486.955 14.494.075 3.7-.227 7.254-.852 10.643l-4.377 1.86 3.848.585a49 49 0 0 1-1.053 3.816l-3.734 1.084 2.96 1.067a48 48 0 0 1-1.67 3.945h-6.16v1.594h5.323a47 47 0 0 1-1.264 2.232h-4.058v1.594h3.076c-4.051 6.134-9.415 11.11-15.553 14.617-7.092-3.534-12.45-8.696-16.38-14.617h2.34v-1.594h-3.354a49 49 0 0 1-1.278-2.232h4.631v-1.594h-5.453a54 54 0 0 1-2.465-5.84l2.78-.777-3.502-1.4a59 59 0 0 1-.963-3.45l5.404-.367-6.172-3.275c-1.515-8.352-1.222-16.458.315-22.557m37.13 8.445.17.032-.17-.03zm-21.418 7.43c-4.747 0-6.62 4.85-6.697 5.057l1.344.503c.068-.174 1.613-4.125 5.353-4.125.818 0 1.393.333 1.809 1.043.972 1.673.813 4.973.006 8.426h-6.549v1.436h6.184c-.664 2.355-1.596 4.685-2.645 6.531l-.34.598 8.194 5.158-4.612 3.039.79 1.197L92.1 63.05l5.564 3.633.766-1.215-5.16-3.192s7.714-5.012 8.097-5.257l-.004-.008.008-.002c-1.7-2.508-2.24-4.648-1.531-7.084h-1.461c-.51 1.624-.306 4.07.95 6.17h-14.6c.888-1.78 1.712-3.95 2.314-6.17h11.336l1.463-.006-.002.006h.578l6.22-.008.014-1.428h-6.27c1.155-2.718 2.774-5.166 8.546-5.166V41.89c-5.326 0-8.514 2.114-10.041 6.6h-11.49c.803-3.586.943-7.11-.243-9.147-.668-1.15-1.722-1.758-3.047-1.758m-16.71 14.02a53 53 0 0 0 3.037 7.771h-4.897v1.594h5.692a50 50 0 0 0 1.261 2.232h-6.953v1.594h7.92c4.85 7.526 11.397 13.294 18.813 17.656a50 50 0 0 0 2.431-1.498l1.95 2.098-3.27 5.029 5.576-2.545 3.225 3.473-5.455 4.154 7.511-1.941 10.13 10.906.857-.074c5.369-.46 8.42 2.452 9.228 3.355.592.663.95 1.267 1.145 1.742h-10.86c-24.91-13-46.78-22.166-70.013-24.164q.075-4.851 1.73-10.968l-2.137-.58q-1.701 6.29-1.8 11.38-3.63-.241-7.315-.244a30 30 0 0 0-5.715.531c-2.259-2.257-4.181-4.409-5.816-6.45 2.907-3.03 6.336-5.974 10.08-8.741l5.176 3.576-1.69-6.035a105 105 0 0 1 4.852-3.082l7.676 3.896-3.602-6.212q1.576-.853 3.174-1.65l10.728 7.195-3.521-10.438c3.664-1.477 7.317-2.687 10.851-3.56m18.624 5.923 11.844.004-5.783 3.813zM22.148 78.264a80 80 0 0 0 4.858 5.449c-5.186 1.559-8.586 4.456-10.707 7.016-3.354 4.048-5.133 9.396-4.725 13.986H2.643c1.795-3.883 8.943-15.111 19.505-26.451"/></svg>
