<?xml version="1.0" encoding="utf-8"?>
<!-- Generator: Adobe Illustrator 16.0.0, SVG Export Plug-In . SVG Version: 6.00 Build 0)  -->
<!DOCTYPE svg PUBLIC "-//W3C//DTD SVG 1.1//EN" "http://www.w3.org/Graphics/SVG/1.1/DTD/svg11.dtd">
<svg version="1.1" id="Layer_1" xmlns="http://www.w3.org/2000/svg" xmlns:xlink="http://www.w3.org/1999/xlink" x="0px" y="0px"
	 width="500px" height="500px" viewBox="0 0 500 500" enable-background="new 0 0 500 500" xml:space="preserve">
<g>
	<path fill="#EA2D2E" d="M195.396,264.91c-51.651,14.432,31.424,44.24,97.189,16.064c-10.771-4.186-18.497-9.018-18.497-9.018
		c-29.327,5.543-42.931,5.98-69.552,2.939C182.567,272.377,195.396,264.91,195.396,264.91z"/>
	<path fill="#EA2D2E" d="M284.713,236.76c-38.871,7.48-61.322,7.24-89.762,4.305c-21.987-2.273-7.596-12.93-7.596-12.93
		c-56.883,18.881,31.666,40.305,111.169,17.051C290.077,242.209,284.713,236.76,284.713,236.76z"/>
	<path fill="#EA2D2E" d="M315.177,73.744c0,0-114.997,28.713-60.077,92.002c16.214,18.662-4.251,35.443-4.251,35.443
		s41.145-21.236,22.252-47.842C255.45,128.549,241.918,116.23,315.177,73.744z"/>
	<path fill="#EA2D2E" d="M132.449,317.596c134.077,21.732,244.403-9.789,209.63-25.48c0,0,9.498,7.83-10.462,13.885
		c-37.95,11.496-157.986,14.963-191.326,0.459c-11.977-5.217,10.494-12.447,17.563-13.973c7.371-1.596,11.58-1.305,11.58-1.305
		C156.106,281.797,83.283,309.615,132.449,317.596z"/>
	<path fill="#EA2D2E" d="M295.997,210.486c6.446-4.398,15.35-8.217,15.35-8.217s-25.36,4.535-50.629,6.656
		c-30.931,2.594-64.11,3.105-80.765,0.877c-39.432-5.271,21.618-19.775,21.618-19.775s-23.714-1.604-52.863,12.498
		C114.225,219.199,233.989,226.797,295.997,210.486z"/>
	<path fill="#EA2D2E" d="M311.094,251.24c-0.291,0.781-1.259,1.658-1.259,1.658c84.162-22.125,53.22-77.988,12.979-63.848
		c-3.53,1.25-5.383,4.154-5.383,4.154s2.231-0.9,7.205-1.938C344.978,187.029,374.123,218.498,311.094,251.24z"/>
	<path fill="#EA2D2E" d="M239.972,189.422c-12.416-28.066-54.52-52.619,0.02-95.695c68.009-53.68,33.11-88.6,33.11-88.6
		c14.077,55.459-49.654,72.211-72.657,106.75C184.781,135.408,208.134,160.697,239.972,189.422z"/>
	<path fill="#EA2D2E" d="M313.37,328.682c-51.633,9.721-115.327,8.59-153.092,2.354c0,0,7.736,6.404,47.49,8.963
		c60.485,3.865,153.395-2.152,155.594-30.775C363.362,309.223,359.136,320.072,313.37,328.682z"/>
	<path fill="#EA2D2E" d="M186.469,388.811c-11.271,0-21.254,2.785-29.287,6.334l2.262,9.74c6.327-2.324,14.557-4.482,22.59-4.482
		c11.131,0,15.967,4.482,15.967,13.752V421h-5.706c-27.036,0-39.234,10.537-39.234,26.311c0,13.59,8.039,21.341,23.174,21.341
		c9.727,0,16.995-4.067,23.78-9.944L201.25,467H214v-54.861C214,398.084,205.785,388.811,186.469,388.811z M198,449.363
		c-6,4.945-11.807,7.727-17.223,7.727c-7.711,0-11.93-4.7-11.93-12.118c0-8.027,4.442-13.972,22.378-13.972H198V449.363z"/>
	<path fill="#EA2D2E" d="M257.96,451.566l-3.263-14.251L240.026,390h-17.148l23.636,77h19.635c11.267-24,19.313-51,23.773-77h-16.68
		C270.617,410,265.365,431.029,257.96,451.566z"/>
	<path fill="#EA2D2E" d="M329.784,388.811c-11.285,0-21.104,2.785-29.138,6.334l2.345,9.74c6.331-2.324,14.293-4.482,22.326-4.482
		c11.117,0,15.683,4.482,15.683,13.752V421h-5.068c-27.043,0-39.236,10.537-39.236,26.311c0,13.59,8.027,21.341,23.161,21.341
		c9.733,0,16.988-4.067,23.793-9.944l1.244,8.293H357v-54.861C357,398.084,349.083,388.811,329.784,388.811z M324.338,456.908
		c-7.714,0-11.897-4.609-11.897-12.027c0-8.027,4.489-13.881,22.408-13.881H341v18h0.248
		C335.525,454,329.738,456.908,324.338,456.908z"/>
	<path fill="#EA2D2E" d="M125,450.676c0,12.779-0.906,18.117-2.984,22.271c-2.409,4.66-7.607,9.664-13.652,12.768l7.763,9.158
		c7.937-2.928,15.36-8.119,19.846-14.676c4.494-6.729,6.028-13.639,6.028-30.732V363h-17V450.676z"/>
</g>
</svg>
