<svg version="1.1" xmlns="http://www.w3.org/2000/svg" xmlns:xlink="http://www.w3.org/1999/xlink" viewBox="0 0 128 128">
  <path fill="#EA2D2E" d="M53.595,67.817c-13.224,3.694,8.044,11.325,24.88,4.112c-2.757-1.071-4.735-2.309-4.735-2.309c-7.508,1.419-10.99,1.531-17.805,0.753C50.31,69.729,53.595,67.817,53.595,67.817z" />
  <path fill="#EA2D2E" d="M76.459,60.61c-9.95,1.915-15.698,1.854-22.979,1.103c-5.629-0.582-1.944-3.311-1.944-3.311c-14.563,4.834,8.106,10.318,28.459,4.365C77.833,62.006,76.459,60.61,76.459,60.61z" />
  <path fill="#EA2D2E" d="M84.258,18.879c0,0-29.439,7.351-15.38,23.552c4.151,4.778-1.088,9.074-1.088,9.074s10.533-5.437,5.696-12.248C68.968,32.908,65.504,29.755,84.258,18.879z" />
  <path fill="#EA2D2E" d="M37.48,81.305c34.324,5.563,62.567-2.506,53.666-6.523c0,0,2.431,2.005-2.679,3.555c-9.715,2.943-40.444,3.831-48.979,0.117c-3.066-1.335,2.687-3.187,4.496-3.576c1.887-0.409,2.965-0.334,2.965-0.334C43.537,72.14,24.894,79.262,37.48,81.305z"
  />
  <path fill="#EA2D2E" d="M79.348,53.885c1.65-1.126,3.93-2.104,3.93-2.104s-6.492,1.161-12.961,1.704c-7.918,0.664-16.412,0.795-20.676,0.225c-10.095-1.35,5.534-5.063,5.534-5.063s-6.07-0.411-13.533,3.199C32.815,56.115,63.474,58.06,79.348,53.885z" />
  <path fill="#EA2D2E" d="M83.213,64.317c-0.074,0.2-0.322,0.425-0.322,0.425c21.546-5.664,13.624-19.965,3.322-16.345c-0.903,0.319-1.378,1.063-1.378,1.063s0.571-0.23,1.845-0.496C91.887,47.88,99.349,55.936,83.213,64.317z" />
  <path fill="#EA2D2E" d="M65.006,48.492c-3.179-7.186-13.957-13.471,0.005-24.498c17.41-13.742,8.476-22.682,8.476-22.682c3.604,14.197-12.711,18.486-18.6,27.328C50.877,34.664,56.856,41.139,65.006,48.492z" />
  <path fill="#EA2D2E" d="M83.796,84.143c-13.219,2.488-29.524,2.199-39.191,0.603c0,0,1.98,1.64,12.157,2.294c15.484,0.99,39.269-0.551,39.832-7.878C96.594,79.161,95.512,81.938,83.796,84.143z" />
  <path fill="#EA2D2E" d="M51.131,99.535c-2.887,0-5.351,0.714-7.408,1.622l0.624,2.493c1.619-0.595,3.618-1.147,5.674-1.147c2.85,0,3.979,1.147,3.979,3.521V108h-1.2c-6.921,0-10.044,2.585-10.044,6.624c0,3.479,2.059,5.407,5.933,5.407c2.49,0,4.351-0.845,6.088-2.35L55.093,120H58v-14.492C58,101.909,56.076,99.535,51.131,99.535z M54,115.037c-1,1.266-2.893,1.978-4.279,1.978c-1.973,0-2.988-1.371-2.988-3.27c0-2.056,1.202-3.745,5.794-3.745H54V115.037z"
  />
  <path fill="#EA2D2E" d="M69.611,115.681l-0.835-3.608L65.02,100h-4.39l6.051,20h5.026c2.884-7,4.943-14,6.086-20h-4.271C72.851,105,71.506,110.424,69.611,115.681z" />
  <path fill="#EA2D2E" d="M88.015,99.535c-2.889,0-5.411,0.714-7.467,1.622l0.596,2.493c1.621-0.595,3.722-1.147,5.778-1.147c2.846,0,4.078,1.147,4.078,3.521V108h-1.428c-6.923,0-10.045,2.585-10.045,6.624c0,3.479,2.056,5.407,5.93,5.407c2.492,0,4.349-0.845,6.091-2.35L91.866,120H95v-14.492C95,101.909,92.956,99.535,88.015,99.535z M86.604,116.997c-1.975,0-3.046-1.363-3.046-3.261c0-2.055,1.149-3.736,5.736-3.736H91v5h-0.067C89.468,116,87.986,116.997,86.604,116.997z"
  />
  <path fill="#EA2D2E" d="M36,115.373c0,3.271-0.445,4.638-0.979,5.701c-0.615,1.193-2.053,2.475-3.601,3.269l1.934,2.345c2.032-0.749,3.943-2.078,5.092-3.757c1.15-1.723,1.554-3.491,1.554-7.867V93h-4V115.373z" />
</svg>
