<svg version="1.1" xmlns="http://www.w3.org/2000/svg" xmlns:xlink="http://www.w3.org/1999/xlink" viewBox="0 0 128 128">
  <path fill="#0074BD" d="M52.581,67.817c0,0-3.284,1.911,2.341,2.557c6.814,0.778,10.297,0.666,17.805-0.753c0,0,1.979,1.237,4.735,2.309C60.626,79.143,39.358,71.512,52.581,67.817L52.581,67.817z" />
  <path fill="#0074BD" d="M50.522,58.402c0,0-3.684,2.729,1.945,3.311c7.28,0.751,13.027,0.813,22.979-1.103c0,0,1.373,1.396,3.536,2.157C58.63,68.721,35.961,63.236,50.522,58.402L50.522,58.402z" />
  <path fill="#EA2D2E" d="M67.865,42.431c4.151,4.778-1.088,9.074-1.088,9.074s10.533-5.437,5.696-12.248c-4.519-6.349-7.982-9.502,10.771-20.378C83.245,18.879,53.806,26.229,67.865,42.431L67.865,42.431z" />
  <path fill="#0074BD" d="M90.132,74.781c0,0,2.432,2.005-2.678,3.555c-9.716,2.943-40.444,3.831-48.979,0.117c-3.066-1.335,2.687-3.187,4.496-3.576c1.887-0.409,2.965-0.334,2.965-0.334c-3.412-2.403-22.055,4.719-9.469,6.762C70.791,86.868,99.034,78.799,90.132,74.781L90.132,74.781z"
  />
  <path fill="#0074BD" d="M54.162,48.647c0,0-15.629,3.713-5.534,5.063c4.264,0.57,12.758,0.439,20.676-0.225c6.469-0.543,12.961-1.704,12.961-1.704s-2.279,0.978-3.93,2.104c-15.874,4.175-46.533,2.23-37.706-2.038C48.092,48.236,54.162,48.647,54.162,48.647L54.162,48.647z"
  />
  <path fill="#0074BD" d="M82.2,64.317c16.135-8.382,8.674-16.438,3.467-15.353c-1.273,0.266-1.845,0.496-1.845,0.496s0.475-0.744,1.378-1.063c10.302-3.62,18.223,10.681-3.322,16.345C81.878,64.742,82.125,64.518,82.2,64.317L82.2,64.317z" />
  <path fill="#EA2D2E" d="M72.474,1.313c0,0,8.935,8.939-8.476,22.682c-13.962,11.027-3.184,17.313-0.006,24.498c-8.15-7.354-14.128-13.828-10.118-19.852C59.763,19.799,76.078,15.51,72.474,1.313L72.474,1.313z" />
  <path fill="#0074BD" d="M55.749,87.039c15.484,0.99,39.269-0.551,39.832-7.878c0,0-1.082,2.777-12.799,4.981c-13.218,2.488-29.523,2.199-39.191,0.603C43.591,84.745,45.571,86.385,55.749,87.039L55.749,87.039z" />
  <path fill="#EA2D2E" d="M94.866,100.181h-0.472v-0.264h1.27v0.264h-0.47v1.317h-0.329L94.866,100.181L94.866,100.181L94.866,100.181z M97.401,100.247h-0.006l-0.468,1.251h-0.216l-0.465-1.251h-0.005v1.251h-0.312v-1.581h0.457l0.431,1.119l0.432-1.119h0.454v1.581h-0.302L97.401,100.247L97.401,100.247z"
  />
  <path fill="#EA2D2E" d="M53.211,115.037c-1.46,1.266-3.004,1.978-4.391,1.978c-1.974,0-3.045-1.186-3.045-3.085c0-2.055,1.146-3.56,5.738-3.56h1.697V115.037L53.211,115.037L53.211,115.037z M57.242,119.585v-14.077c0-3.599-2.053-5.973-6.997-5.973c-2.886,0-5.416,0.714-7.473,1.622l0.592,2.493c1.62-0.595,3.715-1.147,5.771-1.147c2.85,0,4.075,1.147,4.075,3.521v1.779h-1.424c-6.921,0-10.044,2.685-10.044,6.723c0,3.479,2.058,5.456,5.933,5.456c2.49,0,4.351-1.028,6.088-2.533l0.316,2.137H57.242L57.242,119.585z"
  />
  <path fill="#EA2D2E" d="M70.694,119.585h-5.027l-6.051-19.689h4.391l3.756,12.099l0.835,3.635c1.896-5.258,3.24-10.596,3.912-15.733h4.271C75.638,106.378,73.578,113.495,70.694,119.585L70.694,119.585z" />
  <path fill="#EA2D2E" d="M89.982,115.037c-1.465,1.266-3.01,1.978-4.392,1.978c-1.976,0-3.046-1.186-3.046-3.085c0-2.055,1.149-3.56,5.736-3.56h1.701V115.037L89.982,115.037L89.982,115.037z M94.015,119.585v-14.077c0-3.599-2.059-5.973-6.999-5.973c-2.889,0-5.418,0.714-7.475,1.622l0.593,2.493c1.62-0.595,3.718-1.147,5.774-1.147c2.846,0,4.074,1.147,4.074,3.521v1.779h-1.424c-6.923,0-10.045,2.685-10.045,6.723c0,3.479,2.056,5.456,5.93,5.456c2.491,0,4.349-1.028,6.091-2.533l0.318,2.137H94.015L94.015,119.585z"
  />
  <path fill="#EA2D2E" d="M37.322,122.931c-1.147,1.679-3.005,3.008-5.037,3.757l-1.989-2.345c1.547-0.794,2.872-2.075,3.489-3.269c0.532-1.063,0.753-2.43,0.753-5.701V92.891h4.284v22.173C38.822,119.439,38.474,121.208,37.322,122.931L37.322,122.931z" />
</svg>
