<?xml version="1.0" encoding="utf-8"?>
<!-- Generator: Adobe Illustrator 16.0.0, SVG Export Plug-In . SVG Version: 6.00 Build 0)  -->
<!DOCTYPE svg PUBLIC "-//W3C//DTD SVG 1.1//EN" "http://www.w3.org/Graphics/SVG/1.1/DTD/svg11.dtd">
<svg version="1.1" id="Layer_1" xmlns="http://www.w3.org/2000/svg" xmlns:xlink="http://www.w3.org/1999/xlink" x="0px" y="0px"
	 width="500px" height="500px" viewBox="0 0 500 500" enable-background="new 0 0 500 500" xml:space="preserve">
<g>
	<path fill="#EA2D2E" d="M186.194,383.28c-74.973,20.948,45.612,64.215,141.072,23.318c-15.634-6.076-26.849-13.089-26.849-13.089
		c-42.568,8.046-62.314,8.681-100.955,4.267C167.572,394.118,186.194,383.28,186.194,383.28z"/>
	<path fill="#EA2D2E" d="M315.839,342.419c-56.422,10.858-89.011,10.509-130.29,6.249c-31.916-3.3-11.025-18.768-11.025-18.768
		c-82.566,27.406,45.963,58.503,161.363,24.75C323.625,350.329,315.839,342.419,315.839,342.419z"/>
	<path fill="#EA2D2E" d="M360.058,105.799c0.001,0-166.92,41.677-87.203,133.542c23.535,27.088-6.17,51.447-6.17,51.447
		s59.722-30.825,32.299-69.443C273.363,185.349,253.721,167.469,360.058,105.799z"/>
	<path fill="#EA2D2E" d="M399.107,422.769c0,0,13.786,11.365-15.186,20.154c-55.086,16.687-229.32,21.719-277.714,0.666
		c-17.384-7.572,15.232-18.067,25.493-20.281c10.699-2.316,16.809-1.894,16.809-1.894c-19.346-13.622-125.05,26.757-53.684,38.341
		C289.441,491.299,449.581,445.545,399.107,422.769z"/>
	<path fill="#EA2D2E" d="M332.219,304.283c9.356-6.385,22.279-11.927,22.279-11.927s-36.811,6.583-73.488,9.662
		c-44.896,3.765-93.058,4.507-117.231,1.273c-57.235-7.652,31.379-28.705,31.379-28.705s-34.421-2.328-76.731,18.141
		C68.372,316.93,242.213,327.958,332.219,304.283z"/>
	<path fill="#EA2D2E" d="M354.131,363.438c-0.422,1.134-1.826,2.407-1.826,2.407c122.162-32.115,77.249-113.201,18.838-92.676
		c-5.124,1.814-7.813,6.03-7.813,6.03s3.238-1.307,10.457-2.813C403.314,270.235,445.619,315.912,354.131,363.438z"/>
	<path fill="#EA2D2E" d="M250.896,273.708c-18.022-40.739-79.137-76.377,0.028-138.903C349.641,56.887,298.984,6.2,298.984,6.2
		c20.434,80.5-72.074,104.815-105.463,154.95C170.786,195.306,204.684,232.013,250.896,273.708z"/>
	<path fill="#EA2D2E" d="M357.436,475.846c-74.946,14.11-167.399,12.468-222.216,3.416c0,0,11.229,9.296,68.933,13.01
		c87.796,5.61,222.655-3.124,225.848-44.671C430,447.601,423.865,463.349,357.436,475.846z"/>
</g>
</svg>
