<svg xmlns="http://www.w3.org/2000/svg" viewBox="0 0 128 128"><path d="M64 0C28.658 0 0 28.658 0 64s28.658 64 64 64a63.683 63.683 0 0 0 35.273-10.605l.008.012.274-.185.145-.101c.114-.077.225-.158.338-.235a64.421 64.421 0 0 0 1.933-1.375c.189-.14.378-.278.565-.42a64.045 64.045 0 0 0 3.78-3.076l.25-.222-.01-.011C119.708 100.059 128 83 128 64c0-35.342-28.658-64-64-64Zm0 .707C98.96.707 127.293 29.04 127.293 64c0 18.778-8.182 35.635-21.168 47.226L89.501 89.812h1.018V38.188h-9.193V79.28L49.423 38.188H38.188V89.79h9.273V50.454l51.379 66.383A62.988 62.988 0 0 1 64 127.293C29.04 127.293.707 98.96.707 64S29.04.707 64 .707ZM38.895 38.895h10.182l32.956 42.45v-42.45h7.779v50.21h-1.756l17.53 22.581a63.512 63.512 0 0 1-6.164 4.75l-52.668-68.05v40.697h-7.859z"/></svg>
