<svg xmlns="http://www.w3.org/2000/svg" viewBox="0 0 128 128"><path d="M0 50.702v26.556h5.38V58.07l15.448 19.2H49.04v-5.076H31.306V66.44h14.262v-5.076H31.306v-5.577h17.735V50.71H25.925v5.076h.001v19.387L6.22 50.702Zm84.43.01v5.075h8.96v21.482h5.38V55.787h8.777V50.71zm-31.618.01L74.178 77.28h7.033L70.527 64.01l10.669-13.27-7.018.012-7.162 8.895-7.188-8.924h-.237Zm-51.82.972h4.752l19.797 24.583h-4.239L4.388 55.254v21.011H.992Zm25.925.01h21.131v3.09H30.314v7.563h14.262v3.09H30.314v7.74h17.734v3.09h-21.13V54.795h-.001zm58.505 0h21.132v3.09h-8.777v21.483h-3.395V54.795h-8.96zm-30.538.011h4.469l7.663 9.516 7.637-9.489 4.467-.006-9.866 12.274 9.884 12.277h-4.485zm7.723 13.397-9.812 12.186h7.033l6.292-7.82-.25-.31zm60.852.095c-.811 0-1.56.14-2.232.434-.664.29-1.215.712-1.615 1.258a3.23 3.23 0 0 0-.618 1.944c0 .875.321 1.655.94 2.205.591.529 1.371.9 2.316 1.14l1.233.31c.365.091.679.195.941.306.239.102.4.218.504.334.076.086.115.183.119.358a.712.712 0 0 1-.165.483l-.004.004-.002.001c-.12.15-.29.277-.547.378v-.002a2.59 2.59 0 0 1-.944.157c-.355 0-.661-.052-.93-.149l-.002-.002a1.361 1.361 0 0 1-.589-.4 1.096 1.096 0 0 1-.236-.646l-.035-.46h-2.903l.02.514c.029.783.243 1.487.652 2.066.404.572.972 1.009 1.665 1.295.69.288 1.486.424 2.374.424.92 0 1.724-.14 2.41-.438h.003v-.002c.681-.297 1.233-.726 1.614-1.28.382-.56.572-1.218.572-1.927 0-.527-.104-1.013-.32-1.434a3.214 3.214 0 0 0-.843-1.04 4.67 4.67 0 0 0-1.14-.674 7.513 7.513 0 0 0-1.253-.405l-.008-.002-1.008-.248a6.543 6.543 0 0 1-.612-.18h-.002a2.336 2.336 0 0 1-.489-.232l-.006-.002-.004-.004a.776.776 0 0 1-.265-.256v-.002l-.002-.002a.54.54 0 0 1-.076-.302.68.68 0 0 1 .138-.42c.09-.123.236-.237.465-.334.217-.09.502-.143.858-.143.508 0 .87.106 1.134.29v.002c.257.178.374.372.409.704l.047.445h2.835l-.008-.504a3.275 3.275 0 0 0-.603-1.874c-.383-.538-.916-.96-1.564-1.252h-.002c-.655-.297-1.4-.436-2.223-.436zm-8.43.144v7.986c-.003.322-.057.572-.134.746a.725.725 0 0 1-.298.355l-.002.002h-.002c-.124.075-.295.124-.539.124-.224 0-.4-.041-.546-.114a.722.722 0 0 1-.314-.29.95.95 0 0 1-.122-.493l-.004-.49h-2.936v.495c0 .73.166 1.385.529 1.921.345.515.827.915 1.41 1.172.574.253 1.214.38 1.907.38.758 0 1.448-.15 2.047-.453h.002a3.472 3.472 0 0 0 1.426-1.328v-.002c.341-.58.509-1.262.512-2.02V65.35zm8.43.849c.712 0 1.31.117 1.814.347l.002.001c.511.23.89.536 1.165.923.169.236.19.533.258.81h-.994c-.14-.36-.247-.75-.568-.973-.468-.325-1.05-.469-1.702-.469-.457 0-.872.068-1.238.22h-.002l-.002.001c-.353.149-.66.362-.878.655v.002c-.215.29-.327.64-.335.996v.01c0 .3.075.595.234.843l.002.002c.144.225.343.42.582.568l.002.001c.213.136.445.244.69.33h.001c.235.081.47.15.706.207l-.002-.002 1.017.25.004.002a6.51 6.51 0 0 1 1.097.353v.002h.002c.337.141.638.32.9.53.248.202.44.437.585.72.135.264.209.583.209.982 0 .54-.132.976-.4 1.367-.266.387-.647.696-1.19.932-.531.23-1.2.356-2.017.356-.787 0-1.453-.12-1.994-.346v-.002h-.002c-.544-.225-.94-.537-1.232-.95-.19-.269-.236-.654-.312-1.015h.951c.078.258.118.538.283.742l.002.002.002.002c.264.317.612.549 1.006.697l.004.002h.002c.39.142.818.211 1.275.211.475 0 .913-.072 1.304-.224h.002a2.26 2.26 0 0 0 .96-.683c.252-.31.385-.7.39-1.1v-.012a1.552 1.552 0 0 0-.373-1.014v-.001l-.002-.002a2.384 2.384 0 0 0-.853-.582h-.002a7.43 7.43 0 0 0-1.087-.356h-.002l-1.228-.31c-.834-.212-1.462-.525-1.9-.917h-.002c-.415-.37-.606-.811-.606-1.465 0-.536.14-.969.424-1.355l.002-.002c.29-.396.684-.705 1.213-.936.53-.232 1.135-.35 1.834-.35zm-7.438.143h.952v6.994c-.003.617-.133 1.111-.374 1.522a2.428 2.428 0 0 1-1.023.95c-.442.222-.97.344-1.597.344a3.678 3.678 0 0 1-1.506-.294 2.23 2.23 0 0 1-.988-.82h-.002v-.002c-.148-.219-.173-.56-.23-.868h.956c.044.169.045.354.134.502.171.285.423.517.719.666h.002c.3.15.638.22.99.22.379 0 .74-.08 1.049-.266.308-.183.548-.467.7-.803v-.001l.001-.002c.148-.335.214-.718.217-1.144v-.002zm-53.414.353 2.24 2.783-5.494 6.827h-4.485zm45.43 7.145c-.436 0-.86.172-1.17.475-.312.303-.49.723-.487 1.155-.003.437.174.862.486 1.167.311.302.735.474 1.17.474.29 0 .574-.078.819-.222.246-.141.45-.342.597-.578l.002-.002c.155-.25.234-.54.238-.831v-.014a1.626 1.626 0 0 0-.502-1.15 1.662 1.662 0 0 0-1.153-.474zm0 .992c.19 0 .313.05.461.194h.002v.002a.55.55 0 0 1 .198.442.661.661 0 0 1-.335.558l-.007.004-.004.002a.575.575 0 0 1-.315.085.603.603 0 0 1-.48-.194.536.536 0 0 1-.187-.451v-.008a.525.525 0 0 1 .188-.44.603.603 0 0 1 .479-.194z"/></svg>
