<svg xmlns="http://www.w3.org/2000/svg" viewBox="0 0 128 128"><path fill="#f7f7f4" d="m55.03 29.47-18.396 6.668 18.127 6.575 18.402-6.677zM36.818 44.295l-18.393 6.677 18.127 6.566 18.4-6.668z"/><path fill="#efeeea" d="m36.634 36.138-.006 21.212 18.133 6.575V42.713zM18.425 50.972v21.212l18.127 6.577V57.538Z"/><path fill="#f7f7f4" d="m36.818 57.48-18.393 6.674 18.127 6.575 18.4-6.673zm-18.21 14.841L.213 78.988l18.127 6.575 18.39-6.665Z"/><path fill="#efeeea" d="M18.425 64.154v21.218l18.127 6.575V70.729ZM.214 78.988l-.006 21.218 18.133 6.575V85.563Zm18.211 6.599v21.218l18.127 6.563V92.156Zm18.21 6.593-.007 21.212 18.133 6.577V98.75Z"/><path fill="#2f6491" d="m91.45 8.031-18.203 6.6-.008-.001-18.396 6.667-.004 21.212 18.134 6.575V27.872l18.193-6.604.016.006 18.401-6.668zm-36.42 34.61-18.396 6.672 18.127 6.575 18.402-6.673Zm-18.396 6.678-.006 21.218 18.133 6.575V55.894Zm0 21.428-.006 21.223 18.133 6.565V77.324Z"/><path fill="#ffc91d" d="m91.26 29.539 18.132 6.575 18.4-6.672-18.132-6.575zm0 0"/><path fill="#ffd242" d="m127.793 29.449-18.402 6.665v21.218l18.402-6.671zm0 21.421-18.402 6.662v.002l-18.025 6.53v-.008l-18.393 6.673v21.218l18.209-6.607v.014l18.21-6.597v.004l18.4-6.667zm-18.21 28.028-18.217 6.599v-.006l-18.393 6.665v21.212l18.209-6.599v.012l18.401-6.671z"/><path fill="#3775a9" d="m109.583 14.612-18.217 6.6v-.01l-18.393 6.67V49.09l18.209-6.604v.011l18.401-6.673zm0 21.424L91.366 42.64v-.012L72.973 49.29 54.76 55.894v21.218l18.212-6.599v.004l18.209-6.598v.006l18.401-6.667Zm-36.42 34.62L54.76 77.324v21.211l18.402-6.667z"/><path fill="#fff" d="M80.89 32.009a3.41 3.41 0 0 0-1.05.213c-1.95.71-3.534 2.958-3.534 5.026 0 2.069 1.583 3.17 3.534 2.464 1.951-.709 3.533-2.958 3.533-5.026 0-1.68-1.045-2.725-2.484-2.677zm46.903 40.289L109.39 78.97v21.218l18.402-6.672zm-24.03 15.763a3.41 3.41 0 0 0-1.05.213c-1.951.705-3.534 2.953-3.534 5.022 0 2.068 1.583 3.173 3.533 2.464 1.95-.705 3.534-2.957 3.534-5.026 0-1.677-1.046-2.721-2.484-2.673zm-30.6 4.023L54.76 98.75v21.218l18.402-6.673z"/><path fill="#ccc" d="M91.38 7.836 54.773 21.1a.208.208 0 0 0-.137.196l-.002 8.097-18.07 6.548a.208.208 0 0 0-.137.196l-.002 8.079-18.07 6.56a.208.208 0 0 0-.138.195V72.04L.141 78.794a.208.208 0 0 0-.135.194L0 100.206c0 .088.055.166.137.196l54.554 19.763a.208.208 0 0 0 .14 0l73.032-26.452a.208.208 0 0 0 .137-.196V29.443a.208.208 0 0 0-.137-.196l-17.998-6.528-.074-8.107v-.006a.208.208 0 0 0-.137-.195L91.52 7.835a.208.208 0 0 0-.141 0zm.07.417 17.524 6.353-17.59 6.374-17.53-6.346zm17.924 6.655V35.68l-17.986 6.523V21.426Zm-36.327.014 17.512 6.346-17.586 6.383-17.518-6.354Zm17.927 6.636v20.94l.051.035-17.845 6.461V28.019Zm-35.92.035 17.711 6.424V48.79l-17.718-6.426Zm54.555 1.477 17.576 6.373-17.396 6.309c.122-4.369-.027-8.513-.18-12.682zm17.976 6.675v20.77l-17.796 6.455V36.192Zm-72.949.09-.004 12.61-17.387-6.307zm54.548 6.565v20.783l-17.61 6.381V42.787Zm-72.342.033 17.346 6.293-17.35 6.292.002-4.648v-.006zm18.188 6.429 17.525 6.353-17.794 6.452-17.52-6.354zm35.944.129v20.783l-17.606 6.381V49.368Zm-54.55 1.67-.003 12.608-17.389-6.297zm36.34 4.926v20.785l-17.795 6.446V56.041Zm-35.922.028 17.712 6.424v20.78l-17.718-6.427Zm90.743 1.551V71.95l-17.796 6.45V57.61Zm-108.952.102 17.369 6.291-17.37 6.299Zm90.55 6.56v20.784l-17.61 6.382V64.21zm-72.839.046v12.56l-17.31-6.28zm54.63 6.546v20.777l-17.796 6.454V70.876Zm-72.341.031 17.711 6.425V91.65l-17.711-6.424V72.184Zm54.13 6.36v21.136l.059.04-17.853 6.47V77.324l-.037-.053zm-35.921.231 17.714 6.426v20.774l-17.72-6.415zm90.743 1.551v20.78l-17.796 6.445V79.05Zm-109.368.09V85.3L.823 78.99Zm90.967 6.58v20.77c-7.48 2.713-4.114 1.493.515-.183l-18.125 6.565V85.644ZM.42 79.286l17.712 6.424v20.77L.415 100.06Zm90.553 6.567v20.771l-17.606 6.382V92.235Zm-72.341.03 17.711 6.42v20.767l.492.179.006-20.774 17.712 6.42v20.778l-35.92-13.013Zm0 20.777 17.711 6.414v-.004c22.528 8.173-8.968-3.247-17.711-6.41zm54.13-14.21v20.771l-15.888 5.76-1.906.692V98.898Z"/></svg>
