<svg xmlns="http://www.w3.org/2000/svg" viewBox="0 0 128 112"><path fill="#e9e9ff" stroke="#ccc" stroke-linejoin="bevel" stroke-width=".073" d="m-186.329 59.726 3.185 1.16v3.743l-3.185-1.16Zm0 0" transform="matrix(5.67725 0 0 5.65278 1094.55 -301.265)"/><path fill="#353564" stroke="#ccc" stroke-linejoin="bevel" stroke-width=".073" d="M-189.56 60.903v3.743l3.231-1.177v-3.743Zm0 0" transform="matrix(5.67725 0 0 5.65278 1094.55 -301.265)"/><path fill="#afafde" stroke="#ccc" stroke-linejoin="bevel" stroke-width=".073" d="m-189.56 64.646 3.184 1.159 3.232-1.176-3.185-1.16Zm0 0" transform="matrix(5.67725 0 0 5.65278 1094.55 -301.265)"/><path fill="#f7f7f4" stroke="#ccc" stroke-linejoin="bevel" stroke-width=".073" d="m-189.56 60.903 3.184 1.158 3.232-1.176-3.185-1.16Zm0 0" transform="matrix(5.67725 0 0 5.65278 1094.55 -301.265)"/><path fill="#fff" stroke="#ccc" stroke-linejoin="bevel" stroke-width=".073" d="M-186.376 62.06v3.745l3.232-1.176v-3.744Zm0 0" transform="matrix(5.67725 0 0 5.65278 1094.55 -301.265)"/><path fill="#efeeea" stroke="#ccc" stroke-linejoin="bevel" stroke-width=".073" d="m-189.56 60.903 3.184 1.158v3.744l-3.184-1.16Zm0 0" transform="matrix(5.67725 0 0 5.65278 1094.55 -301.265)"/><path fill="#e9e9ff" stroke="#ccc" stroke-linejoin="bevel" stroke-width=".073" d="m-186.33 59.727 3.186 1.158v3.744l-3.185-1.16Zm0 0" transform="matrix(5.67725 0 0 5.65278 1112.709 -316.059)"/><path fill="#353564" stroke="#ccc" stroke-linejoin="bevel" stroke-width=".073" d="M-189.56 60.903v3.742l3.23-1.176v-3.742Zm0 0" transform="matrix(5.67725 0 0 5.65278 1112.709 -316.059)"/><path fill="#afafde" stroke="#ccc" stroke-linejoin="bevel" stroke-width=".073" d="m-189.56 64.645 3.184 1.16 3.232-1.176-3.185-1.16Zm0 0" transform="matrix(5.67725 0 0 5.65278 1112.709 -316.059)"/><path fill="#f7f7f4" stroke="#ccc" stroke-linejoin="bevel" stroke-width=".073" d="m-189.56 60.903 3.184 1.16 3.232-1.178-3.185-1.158Zm0 0" transform="matrix(5.67725 0 0 5.65278 1112.709 -316.059)"/><path fill="#fff" stroke="#ccc" stroke-linejoin="bevel" stroke-width=".073" d="M-186.376 62.062v3.743l3.232-1.176v-3.744Zm0 0" transform="matrix(5.67725 0 0 5.65278 1112.709 -316.059)"/><path fill="#efeeea" stroke="#ccc" stroke-linejoin="bevel" stroke-width=".073" d="m-189.56 60.903 3.184 1.16v3.742l-3.185-1.16Zm0 0" transform="matrix(5.67725 0 0 5.65278 1112.709 -316.059)"/><path fill="#e9e9ff" stroke="#ccc" stroke-linejoin="bevel" stroke-width=".073" d="m-186.329 59.726 3.184 1.16v3.742l-3.184-1.158Zm0 0" transform="matrix(5.67725 0 0 5.65278 1076.39 -273.322)"/><path fill="#353564" stroke="#ccc" stroke-linejoin="bevel" stroke-width=".073" d="M-189.56 60.902v3.744l3.231-1.176v-3.744Zm0 0" transform="matrix(5.67725 0 0 5.65278 1076.39 -273.322)"/><path fill="#afafde" stroke="#ccc" stroke-linejoin="bevel" stroke-width=".073" d="m-189.56 64.646 3.184 1.16 3.23-1.178-3.183-1.158Zm0 0" transform="matrix(5.67725 0 0 5.65278 1076.39 -273.322)"/><path fill="#f7f7f4" stroke="#ccc" stroke-linejoin="bevel" stroke-width=".073" d="m-189.56 60.902 3.184 1.16 3.23-1.176-3.183-1.16Zm0 0" transform="matrix(5.67725 0 0 5.65278 1076.39 -273.322)"/><path fill="#fff" stroke="#ccc" stroke-linejoin="bevel" stroke-width=".073" d="M-186.376 62.062v3.743l3.23-1.177v-3.742Zm0 0" transform="matrix(5.67725 0 0 5.65278 1076.39 -273.322)"/><path fill="#efeeea" stroke="#ccc" stroke-linejoin="bevel" stroke-width=".073" d="m-189.56 60.902 3.184 1.16v3.743l-3.185-1.16Zm0 0" transform="matrix(5.67725 0 0 5.65278 1076.39 -273.322)"/><path fill="#e9e9ff" stroke="#ccc" stroke-linejoin="bevel" stroke-width=".073" d="m-186.329 59.726 3.185 1.16v3.742l-3.185-1.16Zm0 0" transform="matrix(5.67725 0 0 5.65278 1094.55 -266.748)"/><path fill="#353564" stroke="#ccc" stroke-linejoin="bevel" stroke-width=".073" d="M-189.56 60.903v3.743l3.231-1.177v-3.743Zm0 0" transform="matrix(5.67725 0 0 5.65278 1094.55 -266.748)"/><path fill="#afafde" stroke="#ccc" stroke-linejoin="bevel" stroke-width=".073" d="m-189.56 64.646 3.184 1.158 3.232-1.176-3.185-1.16Zm0 0" transform="matrix(5.67725 0 0 5.65278 1094.55 -266.748)"/><path fill="#f7f7f4" stroke="#ccc" stroke-linejoin="bevel" stroke-width=".073" d="m-189.56 60.903 3.184 1.159 3.232-1.176-3.185-1.16Zm0 0" transform="matrix(5.67725 0 0 5.65278 1094.55 -266.748)"/><path fill="#fff" stroke="#ccc" stroke-linejoin="bevel" stroke-width=".073" d="M-186.376 62.062v3.742l3.232-1.176v-3.742Zm0 0" transform="matrix(5.67725 0 0 5.65278 1094.55 -266.748)"/><path fill="#efeeea" stroke="#ccc" stroke-linejoin="bevel" stroke-width=".073" d="m-189.56 60.903 3.184 1.159v3.742l-3.184-1.158Zm0 0" transform="matrix(5.67725 0 0 5.65278 1094.55 -266.748)"/><path fill="#e9e9ff" stroke="#ccc" stroke-linejoin="bevel" stroke-width=".073" d="m-186.329 59.726 3.185 1.16v3.742l-3.185-1.158Zm0 0" transform="matrix(5.67725 0 0 5.65278 1094.55 -288.116)"/><path fill="#353564" stroke="#ccc" stroke-linejoin="bevel" stroke-width=".073" d="M-189.56 60.902v3.744l3.231-1.176v-3.744Zm0 0" transform="matrix(5.67725 0 0 5.65278 1094.55 -288.116)"/><path fill="#afafde" stroke="#ccc" stroke-linejoin="bevel" stroke-width=".073" d="m-189.56 64.646 3.184 1.159 3.232-1.177-3.185-1.158Zm0 0" transform="matrix(5.67725 0 0 5.65278 1094.55 -288.116)"/><path fill="#f7f7f4" stroke="#ccc" stroke-linejoin="bevel" stroke-width=".073" d="m-189.56 60.902 3.184 1.16 3.232-1.177-3.185-1.16Zm0 0" transform="matrix(5.67725 0 0 5.65278 1094.55 -288.116)"/><path fill="#fff" stroke="#ccc" stroke-linejoin="bevel" stroke-width=".073" d="M-186.376 62.062v3.743l3.232-1.177v-3.743Zm0 0" transform="matrix(5.67725 0 0 5.65278 1094.55 -288.116)"/><path fill="#efeeea" stroke="#ccc" stroke-linejoin="bevel" stroke-width=".073" d="m-189.56 60.902 3.184 1.16v3.743l-3.184-1.16Zm0 0" transform="matrix(5.67725 0 0 5.65278 1094.55 -288.116)"/><path fill="#e9e9ff" stroke="#ccc" stroke-linejoin="bevel" stroke-width=".073" d="m-186.33 59.726 3.186 1.16v3.742l-3.185-1.158Zm0 0" transform="matrix(5.67725 0 0 5.65278 1167.186 -279.897)"/><path fill="#353564" stroke="#ccc" stroke-linejoin="bevel" stroke-width=".073" d="M-189.561 60.902v3.744l3.232-1.176v-3.744Zm0 0" transform="matrix(5.67725 0 0 5.65278 1167.186 -279.897)"/><path fill="#afafde" stroke="#ccc" stroke-linejoin="bevel" stroke-width=".073" d="m-189.561 64.646 3.185 1.16 3.232-1.178-3.185-1.158Zm0 0" transform="matrix(5.67725 0 0 5.65278 1167.186 -279.897)"/><path fill="#f7f7f4" stroke="#ccc" stroke-linejoin="bevel" stroke-width=".073" d="m-189.561 60.902 3.185 1.16 3.232-1.177-3.185-1.159Zm0 0" transform="matrix(5.67725 0 0 5.65278 1167.186 -279.897)"/><path fill="#fff" stroke="#ccc" stroke-linejoin="bevel" stroke-width=".073" d="M-186.376 62.062v3.743l3.232-1.177v-3.743Zm0 0" transform="matrix(5.67725 0 0 5.65278 1167.186 -279.897)"/><path fill="#efeeea" stroke="#ccc" stroke-linejoin="bevel" stroke-width=".073" d="m-189.561 60.902 3.185 1.16v3.743l-3.185-1.16Zm0 0" transform="matrix(5.67725 0 0 5.65278 1167.186 -279.897)"/><path fill="#e9e9ff" stroke="#ccc" stroke-linejoin="bevel" stroke-width=".073" d="m-186.329 59.726 3.185 1.16v3.742l-3.185-1.158Zm0 0" transform="matrix(5.67725 0 0 5.65278 1149.027 -273.322)"/><path fill="#353564" stroke="#ccc" stroke-linejoin="bevel" stroke-width=".073" d="M-189.56 60.902v3.744l3.231-1.176v-3.744Zm0 0" transform="matrix(5.67725 0 0 5.65278 1149.027 -273.322)"/><path fill="#afafde" stroke="#ccc" stroke-linejoin="bevel" stroke-width=".073" d="m-189.56 64.646 3.184 1.16 3.232-1.178-3.185-1.158Zm0 0" transform="matrix(5.67725 0 0 5.65278 1149.027 -273.322)"/><path fill="#f7f7f4" stroke="#ccc" stroke-linejoin="bevel" stroke-width=".073" d="m-189.56 60.902 3.184 1.16 3.232-1.176-3.185-1.16Zm0 0" transform="matrix(5.67725 0 0 5.65278 1149.027 -273.322)"/><path fill="#ffd242" stroke="#ccc" stroke-linejoin="bevel" stroke-width=".073" d="M-186.376 62.062v3.743l3.232-1.177v-3.742Zm0 0" transform="matrix(5.67725 0 0 5.65278 1149.027 -273.322)"/><path fill="#efeeea" stroke="#ccc" stroke-linejoin="bevel" stroke-width=".073" d="m-189.56 60.902 3.184 1.16v3.743l-3.185-1.16Zm0 0" transform="matrix(5.67725 0 0 5.65278 1149.027 -273.322)"/><path fill="#fff" d="M105.945 82.656c0 2.063-1.578 4.309-3.523 5.012-1.945.707-3.524-.395-3.524-2.457 0-2.063 1.579-4.305 3.524-5.008 1.945-.707 3.523.395 3.523 2.453Zm0 0"/><path fill="#e9e9ff" stroke="#ccc" stroke-linejoin="bevel" stroke-width=".073" d="m-186.33 59.726 3.185 1.16v3.742l-3.184-1.16Zm0 0" transform="matrix(5.67725 0 0 5.65278 1130.868 -266.748)"/><path fill="#353564" stroke="#ccc" stroke-linejoin="bevel" stroke-width=".073" d="M-189.56 60.903v3.743l3.23-1.177v-3.743Zm0 0" transform="matrix(5.67725 0 0 5.65278 1130.868 -266.748)"/><path fill="#afafde" stroke="#ccc" stroke-linejoin="bevel" stroke-width=".073" d="m-189.56 64.646 3.184 1.158 3.231-1.176-3.184-1.16Zm0 0" transform="matrix(5.67725 0 0 5.65278 1130.868 -266.748)"/><path fill="#f7f7f4" stroke="#ccc" stroke-linejoin="bevel" stroke-width=".073" d="m-189.56 60.903 3.184 1.159 3.231-1.176-3.184-1.16Zm0 0" transform="matrix(5.67725 0 0 5.65278 1130.868 -266.748)"/><path fill="#ffd242" stroke="#ccc" stroke-linejoin="bevel" stroke-width=".073" d="M-186.376 62.062v3.742l3.231-1.176v-3.742Zm0 0" transform="matrix(5.67725 0 0 5.65278 1130.868 -266.748)"/><path fill="#efeeea" stroke="#ccc" stroke-linejoin="bevel" stroke-width=".073" d="m-189.56 60.903 3.184 1.159v3.742l-3.185-1.158Zm0 0" transform="matrix(5.67725 0 0 5.65278 1130.868 -266.748)"/><path fill="#e9e9ff" stroke="#ccc" stroke-linejoin="bevel" stroke-width=".073" d="m-186.33 59.726 3.186 1.16v3.742l-3.185-1.16Zm0 0" transform="matrix(5.67725 0 0 5.65278 1112.709 -260.173)"/><path fill="#353564" stroke="#ccc" stroke-linejoin="bevel" stroke-width=".073" d="M-189.56 60.903v3.742l3.23-1.176v-3.743Zm0 0" transform="matrix(5.67725 0 0 5.65278 1112.709 -260.173)"/><path fill="#afafde" stroke="#ccc" stroke-linejoin="bevel" stroke-width=".073" d="m-189.56 64.645 3.184 1.16 3.232-1.177-3.185-1.16Zm0 0" transform="matrix(5.67725 0 0 5.65278 1112.709 -260.173)"/><path fill="#f7f7f4" stroke="#ccc" stroke-linejoin="bevel" stroke-width=".073" d="m-189.56 60.903 3.184 1.159 3.232-1.176-3.185-1.16Zm0 0" transform="matrix(5.67725 0 0 5.65278 1112.709 -260.173)"/><path fill="#fff" stroke="#ccc" stroke-linejoin="bevel" stroke-width=".073" d="M-186.376 62.062v3.743l3.232-1.177v-3.742Zm0 0" transform="matrix(5.67725 0 0 5.65278 1112.709 -260.173)"/><path fill="#efeeea" stroke="#ccc" stroke-linejoin="bevel" stroke-width=".073" d="m-189.56 60.903 3.184 1.159v3.743l-3.185-1.16Zm0 0" transform="matrix(5.67725 0 0 5.65278 1112.709 -260.173)"/><path fill="#e9e9ff" stroke="#ccc" stroke-linejoin="bevel" stroke-width=".073" d="m-186.33 59.726 3.186 1.16v3.743l-3.185-1.16Zm0 0" transform="matrix(5.67725 0 0 5.65278 1167.186 -301.265)"/><path fill="#353564" stroke="#ccc" stroke-linejoin="bevel" stroke-width=".073" d="M-189.561 60.903v3.742l3.232-1.176v-3.743Zm0 0" transform="matrix(5.67725 0 0 5.65278 1167.186 -301.265)"/><path fill="#afafde" stroke="#ccc" stroke-linejoin="bevel" stroke-width=".073" d="m-189.561 64.645 3.185 1.16 3.232-1.176-3.185-1.16Zm0 0" transform="matrix(5.67725 0 0 5.65278 1167.186 -301.265)"/><path fill="#f7f7f4" stroke="#ccc" stroke-linejoin="bevel" stroke-width=".073" d="m-189.561 60.903 3.185 1.158 3.232-1.176-3.185-1.16Zm0 0" transform="matrix(5.67725 0 0 5.65278 1167.186 -301.265)"/><path fill="#ffd242" stroke="#ccc" stroke-linejoin="bevel" stroke-width=".073" d="M-186.376 62.06v3.745l3.232-1.176v-3.744Zm0 0" transform="matrix(5.67725 0 0 5.65278 1167.186 -301.265)"/><path fill="#efeeea" stroke="#ccc" stroke-linejoin="bevel" stroke-width=".073" d="m-189.561 60.903 3.185 1.158v3.744l-3.185-1.16Zm0 0" transform="matrix(5.67725 0 0 5.65278 1167.186 -301.265)"/><path fill="#e9e9ff" stroke="#ccc" stroke-linejoin="bevel" stroke-width=".073" d="m-186.33 59.727 3.186 1.16v3.741l-3.185-1.159Zm0 0" transform="matrix(5.67725 0 0 5.65278 1167.186 -322.633)"/><path fill="#353564" stroke="#ccc" stroke-linejoin="bevel" stroke-width=".073" d="M-189.561 60.903v3.742l3.232-1.176v-3.742Zm0 0" transform="matrix(5.67725 0 0 5.65278 1167.186 -322.633)"/><path fill="#afafde" stroke="#ccc" stroke-linejoin="bevel" stroke-width=".073" d="m-189.561 64.645 3.185 1.16 3.232-1.177-3.185-1.159Zm0 0" transform="matrix(5.67725 0 0 5.65278 1167.186 -322.633)"/><path fill="#ffc91d" stroke="#ccc" stroke-linejoin="bevel" stroke-width=".073" d="m-189.561 60.903 3.185 1.16 3.232-1.177-3.185-1.16Zm0 0" transform="matrix(5.67725 0 0 5.65278 1167.186 -322.633)"/><path fill="#ffd242" stroke="#ccc" stroke-linejoin="bevel" stroke-width=".073" d="M-186.376 62.062v3.743l3.232-1.177v-3.742Zm0 0" transform="matrix(5.67725 0 0 5.65278 1167.186 -322.633)"/><path fill="#efeeea" stroke="#ccc" stroke-linejoin="bevel" stroke-width=".073" d="m-189.561 60.903 3.185 1.16v3.742l-3.185-1.16Zm0 0" transform="matrix(5.67725 0 0 5.65278 1167.186 -322.633)"/><path fill="#e9e9ff" stroke="#ccc" stroke-linejoin="bevel" stroke-width=".073" d="m-186.329 59.726 3.185 1.16v3.743l-3.185-1.16Zm0 0" transform="matrix(5.67725 0 0 5.65278 1149.027 -294.69)"/><path fill="#353564" stroke="#ccc" stroke-linejoin="bevel" stroke-width=".073" d="M-189.56 60.903v3.743l3.231-1.177v-3.743Zm0 0" transform="matrix(5.67725 0 0 5.65278 1149.027 -294.69)"/><path fill="#afafde" stroke="#ccc" stroke-linejoin="bevel" stroke-width=".073" d="m-189.56 64.646 3.184 1.16 3.232-1.177-3.185-1.16Zm0 0" transform="matrix(5.67725 0 0 5.65278 1149.027 -294.69)"/><path fill="#f7f7f4" stroke="#ccc" stroke-linejoin="bevel" stroke-width=".073" d="m-189.56 60.903 3.184 1.158 3.232-1.176-3.185-1.159Zm0 0" transform="matrix(5.67725 0 0 5.65278 1149.027 -294.69)"/><path fill="#ffd242" stroke="#ccc" stroke-linejoin="bevel" stroke-width=".073" d="M-186.376 62.061v3.744l3.232-1.176v-3.744Zm0 0" transform="matrix(5.67725 0 0 5.65278 1149.027 -294.69)"/><path fill="#efeeea" stroke="#ccc" stroke-linejoin="bevel" stroke-width=".073" d="m-189.56 60.903 3.184 1.158v3.744l-3.185-1.16Zm0 0" transform="matrix(5.67725 0 0 5.65278 1149.027 -294.69)"/><path fill="#e9e9ff" stroke="#ccc" stroke-linejoin="bevel" stroke-width=".073" d="m-186.329 59.727 3.185 1.158v3.744l-3.185-1.16Zm0 0" transform="matrix(5.67725 0 0 5.65278 1149.027 -316.059)"/><path fill="#353564" stroke="#ccc" stroke-linejoin="bevel" stroke-width=".073" d="M-189.56 60.903v3.742l3.231-1.176v-3.742Zm0 0" transform="matrix(5.67725 0 0 5.65278 1149.027 -316.059)"/><path fill="#afafde" stroke="#ccc" stroke-linejoin="bevel" stroke-width=".073" d="m-189.56 64.645 3.184 1.16 3.232-1.176-3.185-1.16Zm0 0" transform="matrix(5.67725 0 0 5.65278 1149.027 -316.059)"/><path fill="#f7f7f4" stroke="#ccc" stroke-linejoin="bevel" stroke-width=".073" d="m-189.56 60.903 3.184 1.16 3.232-1.178-3.185-1.158Zm0 0" transform="matrix(5.67725 0 0 5.65278 1149.027 -316.059)"/><path fill="#3775a9" stroke="#ccc" stroke-linejoin="bevel" stroke-width=".073" d="M-186.376 62.062v3.743l3.232-1.176v-3.744Zm0 0" transform="matrix(5.67725 0 0 5.65278 1149.027 -316.059)"/><path fill="#efeeea" stroke="#ccc" stroke-linejoin="bevel" stroke-width=".073" d="m-189.56 60.903 3.184 1.16v3.742l-3.185-1.16Zm0 0" transform="matrix(5.67725 0 0 5.65278 1149.027 -316.059)"/><path fill="#e9e9ff" stroke="#ccc" stroke-linejoin="bevel" stroke-width=".073" d="m-186.329 59.726 3.185 1.16v3.742l-3.185-1.16Zm0 0" transform="matrix(5.67725 0 0 5.65278 1149.027 -337.427)"/><path fill="#353564" stroke="#ccc" stroke-linejoin="bevel" stroke-width=".073" d="M-189.56 60.903v3.742l3.231-1.176v-3.743Zm0 0" transform="matrix(5.67725 0 0 5.65278 1149.027 -337.427)"/><path fill="#afafde" stroke="#ccc" stroke-linejoin="bevel" stroke-width=".073" d="m-189.56 64.645 3.184 1.16 3.232-1.177-3.185-1.16Zm0 0" transform="matrix(5.67725 0 0 5.65278 1149.027 -337.427)"/><path fill="#2f6491" stroke="#ccc" stroke-linejoin="bevel" stroke-width=".073" d="m-189.56 60.903 3.184 1.159 3.232-1.176-3.185-1.16Zm0 0" transform="matrix(5.67725 0 0 5.65278 1149.027 -337.427)"/><path fill="#3775a9" stroke="#ccc" stroke-linejoin="bevel" stroke-width=".073" d="M-186.376 62.062v3.743l3.232-1.177v-3.742Zm0 0" transform="matrix(5.67725 0 0 5.65278 1149.027 -337.427)"/><path fill="#efeeea" stroke="#ccc" stroke-linejoin="bevel" stroke-width=".073" d="m-189.56 60.903 3.184 1.159v3.743l-3.185-1.16Zm0 0" transform="matrix(5.67725 0 0 5.65278 1149.027 -337.427)"/><path fill="#e9e9ff" stroke="#ccc" stroke-linejoin="bevel" stroke-width=".073" d="m-186.33 59.726 3.185 1.16v3.742l-3.184-1.158Zm0 0" transform="matrix(5.67725 0 0 5.65278 1130.868 -288.116)"/><path fill="#353564" stroke="#ccc" stroke-linejoin="bevel" stroke-width=".073" d="M-189.56 60.902v3.744l3.23-1.176v-3.744Zm0 0" transform="matrix(5.67725 0 0 5.65278 1130.868 -288.116)"/><path fill="#afafde" stroke="#ccc" stroke-linejoin="bevel" stroke-width=".073" d="m-189.56 64.646 3.184 1.159 3.231-1.177-3.184-1.158Zm0 0" transform="matrix(5.67725 0 0 5.65278 1130.868 -288.116)"/><path fill="#f7f7f4" stroke="#ccc" stroke-linejoin="bevel" stroke-width=".073" d="m-189.56 60.902 3.184 1.16 3.231-1.177-3.184-1.16Zm0 0" transform="matrix(5.67725 0 0 5.65278 1130.868 -288.116)"/><path fill="#ffd242" stroke="#ccc" stroke-linejoin="bevel" stroke-width=".073" d="M-186.376 62.062v3.743l3.231-1.177v-3.743Zm0 0" transform="matrix(5.67725 0 0 5.65278 1130.868 -288.116)"/><path fill="#efeeea" stroke="#ccc" stroke-linejoin="bevel" stroke-width=".073" d="m-189.56 60.902 3.184 1.16v3.743l-3.185-1.16Zm0 0" transform="matrix(5.67725 0 0 5.65278 1130.868 -288.116)"/><path fill="#e9e9ff" stroke="#ccc" stroke-linejoin="bevel" stroke-width=".073" d="m-186.33 59.726 3.185 1.16v3.743l-3.184-1.16Zm0 0" transform="matrix(5.67725 0 0 5.65278 1130.868 -309.484)"/><path fill="#353564" stroke="#ccc" stroke-linejoin="bevel" stroke-width=".073" d="M-189.56 60.903v3.743l3.23-1.177v-3.743Zm0 0" transform="matrix(5.67725 0 0 5.65278 1130.868 -309.484)"/><path fill="#afafde" stroke="#ccc" stroke-linejoin="bevel" stroke-width=".073" d="m-189.56 64.646 3.184 1.159 3.231-1.176-3.184-1.16Zm0 0" transform="matrix(5.67725 0 0 5.65278 1130.868 -309.484)"/><path fill="#f7f7f4" stroke="#ccc" stroke-linejoin="bevel" stroke-width=".073" d="m-189.56 60.903 3.184 1.158 3.231-1.176-3.184-1.16Zm0 0" transform="matrix(5.67725 0 0 5.65278 1130.868 -309.484)"/><path fill="#3775a9" stroke="#ccc" stroke-linejoin="bevel" stroke-width=".073" d="M-186.376 62.06v3.745l3.231-1.176v-3.744Zm0 0" transform="matrix(5.67725 0 0 5.65278 1130.868 -309.484)"/><path fill="#efeeea" stroke="#ccc" stroke-linejoin="bevel" stroke-width=".073" d="m-189.56 60.903 3.184 1.158v3.744l-3.185-1.16Zm0 0" transform="matrix(5.67725 0 0 5.65278 1130.868 -309.484)"/><path fill="#e9e9ff" stroke="#ccc" stroke-linejoin="bevel" stroke-width=".073" d="m-186.33 59.726 3.186 1.16v3.742l-3.185-1.16Zm0 0" transform="matrix(5.67725 0 0 5.65278 1112.709 -281.54)"/><path fill="#353564" stroke="#ccc" stroke-linejoin="bevel" stroke-width=".073" d="M-189.56 60.902v3.744l3.23-1.177v-3.743Zm0 0" transform="matrix(5.67725 0 0 5.65278 1112.709 -281.54)"/><path fill="#afafde" stroke="#ccc" stroke-linejoin="bevel" stroke-width=".073" d="m-189.56 64.646 3.184 1.158 3.232-1.176-3.185-1.16Zm0 0" transform="matrix(5.67725 0 0 5.65278 1112.709 -281.54)"/><path fill="#f7f7f4" stroke="#ccc" stroke-linejoin="bevel" stroke-width=".073" d="m-189.56 60.902 3.184 1.16 3.232-1.176-3.185-1.16Zm0 0" transform="matrix(5.67725 0 0 5.65278 1112.709 -281.54)"/><path fill="#3775a9" stroke="#ccc" stroke-linejoin="bevel" stroke-width=".073" d="M-186.376 62.062v3.742l3.232-1.176v-3.742Zm0 0" transform="matrix(5.67725 0 0 5.65278 1112.709 -281.54)"/><path fill="#2f6491" stroke="#ccc" stroke-linejoin="bevel" stroke-width=".073" d="m-189.56 60.902 3.184 1.16v3.742l-3.185-1.158Zm0 0" transform="matrix(5.67725 0 0 5.65278 1112.709 -281.54)"/><path fill="#e9e9ff" stroke="#ccc" stroke-linejoin="bevel" stroke-width=".073" d="m-186.33 59.726 3.186 1.16v3.743l-3.185-1.16Zm0 0" transform="matrix(5.67725 0 0 5.65278 1112.709 -302.909)"/><path fill="#353564" stroke="#ccc" stroke-linejoin="bevel" stroke-width=".073" d="M-189.56 60.902v3.744l3.23-1.176v-3.744Zm0 0" transform="matrix(5.67725 0 0 5.65278 1112.709 -302.909)"/><path fill="#afafde" stroke="#ccc" stroke-linejoin="bevel" stroke-width=".073" d="m-189.56 64.646 3.184 1.159 3.232-1.176-3.185-1.16Zm0 0" transform="matrix(5.67725 0 0 5.65278 1112.709 -302.909)"/><path fill="#2f6491" stroke="#ccc" stroke-linejoin="bevel" stroke-width=".073" d="m-189.56 60.902 3.184 1.16 3.232-1.177-3.185-1.16Zm0 0" transform="matrix(5.67725 0 0 5.65278 1112.709 -302.909)"/><path fill="#3775a9" stroke="#ccc" stroke-linejoin="bevel" stroke-width=".073" d="M-186.376 62.062v3.743l3.232-1.176v-3.744Zm0 0" transform="matrix(5.67725 0 0 5.65278 1112.709 -302.909)"/><path fill="#2f6491" stroke="#ccc" stroke-linejoin="bevel" stroke-width=".073" d="m-189.56 60.902 3.184 1.16v3.743l-3.185-1.16Zm0 0" transform="matrix(5.67725 0 0 5.65278 1112.709 -302.909)"/><path fill="#e9e9ff" stroke="#ccc" stroke-linejoin="bevel" stroke-width=".073" d="m-186.33 59.727 3.185 1.158v3.743l-3.184-1.159Zm0 0" transform="matrix(5.67725 0 0 5.65278 1130.868 -330.852)"/><path fill="#353564" stroke="#ccc" stroke-linejoin="bevel" stroke-width=".073" d="M-189.56 60.903v3.742l3.23-1.176v-3.742Zm0 0" transform="matrix(5.67725 0 0 5.65278 1130.868 -330.852)"/><path fill="#afafde" stroke="#ccc" stroke-linejoin="bevel" stroke-width=".073" d="m-189.56 64.645 3.184 1.16 3.231-1.177-3.184-1.159Zm0 0" transform="matrix(5.67725 0 0 5.65278 1130.868 -330.852)"/><path fill="#2f6491" stroke="#ccc" stroke-linejoin="bevel" stroke-width=".073" d="m-189.56 60.903 3.184 1.16 3.231-1.178-3.184-1.158Zm0 0" transform="matrix(5.67725 0 0 5.65278 1130.868 -330.852)"/><path fill="#3775a9" stroke="#ccc" stroke-linejoin="bevel" stroke-width=".073" d="M-186.376 62.062v3.743l3.231-1.177v-3.743Zm0 0" transform="matrix(5.67725 0 0 5.65278 1130.868 -330.852)"/><path fill="#2f6491" stroke="#ccc" stroke-linejoin="bevel" stroke-width=".073" d="m-189.56 60.903 3.184 1.16v3.742l-3.185-1.16Zm0 0" transform="matrix(5.67725 0 0 5.65278 1130.868 -330.852)"/><path fill="#fff" d="M83.137 26.766c0 2.062-1.578 4.304-3.524 5.011-1.945.703-3.523-.394-3.523-2.457 0-2.062 1.578-4.304 3.523-5.011 1.946-.707 3.524.394 3.524 2.457Zm0 0"/></svg>