<svg xmlns="http://www.w3.org/2000/svg" viewBox="0 0 128 128"><path d="M106.402 47.434a.293.293 0 00-.293.296v26.344c0 .16.13.293.293.293h4.575a.293.293 0 00.293-.293v-9.207c.132.113.285.258.46.442.387.414.868 1 1.45 1.78 1.168 1.563 2.75 3.888 4.886 7.141a.295.295 0 00.25.137h5.254c.051 0 .106-.015.149-.043a.268.268 0 00.11-.11.291.291 0 00-.005-.296c-1.73-2.867-3.293-5.2-4.554-6.902a30.935 30.935 0 00-1.657-2.07c-.261-.301-.543-.59-.843-.856.625-.563 1.425-1.453 2.402-2.664 1.426-1.805 2.8-3.656 4.113-5.543a.28.28 0 00.074-.153.273.273 0 00-.02-.167.271.271 0 00-.109-.13.26.26 0 00-.16-.05h-.004v.004h-5.289a.294.294 0 00-.242.125 135.53 135.53 0 01-4.308 5.898c-.829 1.047-1.477 1.797-1.957 2.262V47.73a.293.293 0 00-.293-.296h-4.575zm-7.195.57c-1.004 0-1.754.105-2.242.52-.504.43-.645 1.12-.645 2.046 0 1.032.137 1.785.63 2.262.491.473 1.25.59 2.257.59 1.004 0 1.766-.117 2.258-.59.492-.477.629-1.23.629-2.262 0-.925-.14-1.617-.645-2.047-.488-.414-1.242-.52-2.242-.52zm-74.93.672l-2.793.078-8.332.023a4.46 4.46 0 00-3.82 2.207L4.27 61.04l.007-.01c-.917 1.44-.983 3.368-.101 4.846l5.289 8.773c.808 1.344 2.078 2.207 3.851 2.145 3.75-.133 5.403-.133 5.403-.133l11.511 4.305-.066-.067c.203.192.531-.039.395-.28l-2.961-5.833 5.496-9.953c.836-1.719 1.133-3.223.308-4.734l-1.168-2.153-.605-1.105-.238-.434-.02.028-3.183-5.524a4.49 4.49 0 00-1.653-1.648 4.478 4.478 0 00-2.258-.586zm-10.949 1.09l11.887 13.07-2.13 2.156 1.267 10.16-12.297-12.164 3.039-2.93-1.785-10.242L7.33 57.23l5.998-7.464zm41.578 5.113c-3.133 0-5.46.73-6.941 2.289l-.004.004c-1.445 1.558-2.129 4.246-2.129 7.828 0 3.574.57 6.152 1.79 7.64 1.23 1.497 3.163 2.192 5.698 2.192a8.973 8.973 0 004.742-1.297v7.445a.3.3 0 00.297.297h4.57a.297.297 0 00.298-.297V56.363a.312.312 0 00-.055-.175.335.335 0 00-.149-.106c-2.48-.805-5.175-1.203-8.117-1.203zm9.934.508a.306.306 0 00-.137.031.305.305 0 00-.156.227.29.29 0 00.016.14c2.082 5.567 4.023 11.676 5.82 18.36a.31.31 0 00.105.156c.055.039.117.062.18.062h5.36a.295.295 0 00.28-.199 108.578 108.578 0 003.235-10.836c1.145 4.215 2.008 7.797 2.562 10.793.016.07.051.129.106.176a.29.29 0 00.187.066h5.364a.28.28 0 00.164-.05.305.305 0 00.11-.133 204.665 204.665 0 006.378-18.414.325.325 0 00.004-.137.242.242 0 00-.055-.125.306.306 0 00-.101-.086.266.266 0 00-.133-.031h-4.496a.303.303 0 00-.184.058.308.308 0 00-.105.164c-.973 3.829-2.262 8-3.895 12.551a135.076 135.076 0 00-3.562-12.574.3.3 0 00-.281-.2h-3.997a.285.285 0 00-.285.227 148.138 148.138 0 01-3.64 12.575 156.324 156.324 0 00-3.914-12.563.27.27 0 00-.102-.172.283.283 0 00-.188-.066h-4.64zm32.144.004a.272.272 0 00-.125.004.323.323 0 00-.113.062.274.274 0 00-.074.102.262.262 0 00-.027.12v.005h-.004v18.39c0 .16.132.293.296.293h4.57a.296.296 0 00.298-.293v-18.39a.293.293 0 00-.297-.293h-4.524zm-42.078 3.793c1.147 0 2.197.121 3.153.386v9.067c0 .36-.27.746-.868 1.062-.586.309-1.425.512-2.398.512-1.504 0-2.434-.387-2.965-1.074-.27-.344-.48-.86-.625-1.578-.144-.715-.215-1.614-.215-2.704 0-1.156.082-2.113.235-2.882.152-.766.375-1.325.644-1.692.531-.715 1.528-1.097 3.04-1.097zM24.375 75.195v.026l-.012.002v-.012l.012-.016z" fill="#18b6f6"/></svg>
