<svg xmlns="http://www.w3.org/2000/svg" viewBox="0 0 128 128"><path d="M30.234 80.969l-5.789-5.758-.082.012v-.059L12.055 62.988l3.039-2.93-1.785-10.242L4.848 60.31c-1.438 1.453-1.711 3.824-.672 5.566l5.289 8.773c.808 1.344 2.078 2.207 3.851 2.145 3.75-.133 5.403-.133 5.403-.133l11.511 4.305zm0 0" fill="#18b6f6"/><path d="M33.094 64.832c.836-1.719 1.133-3.223.308-4.734l-1.168-2.153-.605-1.105-.238-.434-.02.028-3.183-5.524a4.49 4.49 0 00-1.653-1.648 4.478 4.478 0 00-2.258-.586l-2.793.078-8.332.023a4.46 4.46 0 00-3.82 2.207L4.27 61.04l9.058-11.273 11.887 13.07-2.13 2.156 1.274 10.223.016-.02v.028h-.02l.028.027.992.965 4.79 4.683c.202.192.53-.039.394-.28l-2.961-5.833" fill="#ac7ef4"/><path d="M25.242 62.805L13.324 49.8l1.696 10.183-3.036 2.942 12.352 12.273-1.113-10.187 2.02-2.203zm0 0" fill="#fff"/><path d="M62.93 81.278a.297.297 0 00.297-.297V56.363a.312.312 0 00-.055-.175.335.335 0 00-.148-.106c-2.48-.805-5.176-1.203-8.118-1.203-3.132 0-5.46.73-6.941 2.29l-.004.003c-1.445 1.559-2.129 4.246-2.129 7.828 0 3.574.57 6.153 1.79 7.64 1.23 1.497 3.163 2.192 5.698 2.192a8.973 8.973 0 004.743-1.297v7.446a.3.3 0 00.297.297zM58.059 59.57v9.067c0 .36-.27.746-.867 1.062-.586.309-1.426.512-2.399.512-1.504 0-2.433-.387-2.965-1.074-.27-.344-.48-.86-.625-1.578-.144-.715-.215-1.614-.215-2.703 0-1.157.082-2.114.235-2.883.152-.766.375-1.324.644-1.692.532-.714 1.528-1.097 3.04-1.097 1.148 0 2.199.12 3.156.386zm11.418-4.183H64.84a.306.306 0 00-.137.031.305.305 0 00-.156.227.29.29 0 00.016.14c2.082 5.567 4.023 11.676 5.82 18.36a.31.31 0 00.105.156c.055.039.118.062.18.062h5.36a.295.295 0 00.28-.199 108.579 108.579 0 003.235-10.836c1.145 4.215 2.008 7.797 2.563 10.793.015.07.05.13.105.176a.29.29 0 00.188.066h5.363a.28.28 0 00.164-.05.305.305 0 00.11-.133 204.666 204.666 0 006.378-18.414.325.325 0 00.004-.137.242.242 0 00-.054-.125.306.306 0 00-.102-.086.266.266 0 00-.133-.031h-4.496a.303.303 0 00-.184.058.308.308 0 00-.105.165c-.973 3.828-2.262 8-3.895 12.55a135.076 135.076 0 00-3.562-12.574.3.3 0 00-.281-.2H77.61a.285.285 0 00-.286.227 148.139 148.139 0 01-3.64 12.575 156.325 156.325 0 00-3.914-12.563.27.27 0 00-.102-.172.283.283 0 00-.187-.066zm27.164.297v18.39c0 .16.133.293.297.293h4.57a.296.296 0 00.297-.293v-18.39a.293.293 0 00-.297-.293h-4.523a.272.272 0 00-.125.004.323.323 0 00-.114.062.274.274 0 00-.074.102.262.262 0 00-.027.12v.005zm-.32-5.114c0 1.032.136 1.786.628 2.262.493.473 1.25.59 2.258.59 1.004 0 1.766-.117 2.258-.59.492-.476.629-1.23.629-2.262 0-.925-.14-1.617-.645-2.046-.488-.415-1.242-.52-2.242-.52-1.004 0-1.754.105-2.242.52-.504.43-.644 1.12-.644 2.046zm26.746 4.817h-5.29a.294.294 0 00-.242.125 135.532 135.532 0 01-4.308 5.898c-.828 1.047-1.477 1.797-1.957 2.262V47.731a.293.293 0 00-.293-.297h-4.574a.293.293 0 00-.293.297v26.343c0 .16.129.293.293.293h4.574a.293.293 0 00.293-.293v-9.207c.133.114.285.258.46.442.387.414.868 1 1.45 1.781 1.168 1.563 2.75 3.887 4.887 7.14a.295.295 0 00.25.137h5.254c.05 0 .105-.015.148-.043a.268.268 0 00.11-.109.291.291 0 00-.004-.297c-1.73-2.867-3.293-5.2-4.555-6.902a30.934 30.934 0 00-1.656-2.07c-.262-.301-.543-.59-.844-.856.625-.562 1.426-1.453 2.402-2.664 1.426-1.805 2.801-3.656 4.113-5.543a.28.28 0 00.075-.152.273.273 0 00-.02-.168.271.271 0 00-.11-.13.26.26 0 00-.16-.05h-.003zm0 0" stroke-width=".5916899999999999" stroke-linejoin="round" stroke="#fff"/></svg>
