<svg xmlns="http://www.w3.org/2000/svg" viewBox="0 0 128 128"><path fill="#173aee" d="M67.705 0c-5.647.016-11.167 2.927-14.15 8.052L25.083 56.943c-4.338 7.455-1.635 16.802 6.021 20.821 7.656 4.023 17.368 1.242 21.71-6.21L81.282 22.66c4.338-7.453 1.634-16.798-6.021-20.82A16.13 16.13 0 0 0 67.704 0Zm.004.992A15.13 15.13 0 0 1 74.8 2.721c7.183 3.773 9.694 12.451 5.626 19.44L51.958 71.053c-4.071 6.989-13.209 9.605-20.392 5.832-7.183-3.771-9.693-12.451-5.626-19.442l28.471-48.89c2.798-4.807 7.99-7.546 13.298-7.56Zm21.632 47.4c-5.647.016-11.17 2.927-14.155 8.053l-28.469 48.89c-4.341 7.456-1.635 16.803 6.022 20.822 7.656 4.022 17.367 1.242 21.709-6.211l28.468-48.893c4.338-7.452 1.635-16.799-6.021-20.821a16.12 16.12 0 0 0-7.554-1.84zm.004.993a15.12 15.12 0 0 1 7.089 1.727c7.183 3.773 9.693 12.454 5.626 19.441l-28.47 48.893c-4.07 6.988-13.207 9.605-20.39 5.831-7.183-3.77-9.697-12.45-5.626-19.441l28.469-48.891c2.798-4.807 7.994-7.545 13.302-7.56z"/></svg>
