<svg width="128" height="128" viewBox="0 0 128 128" xmlns="http://www.w3.org/2000/svg">
  <path style="fill:#21cfee;fill-opacity:1;fill-rule:nonzero;stroke:none" d="M49.2 16.11c5.597-9.614 18.14-13.2 28.015-8.016 9.875 5.187 13.344 17.183 7.75 26.793L47.075 99.96c-5.598 9.61-18.141 13.2-28.016 8.012-9.875-5.184-13.344-17.18-7.75-26.793zm0 0" transform="translate(19.77 -2.127) scale(.7311)"/>
  <path style="fill:#173aee;fill-opacity:1;fill-rule:nonzero;stroke:none" d="M77.992 80.516c5.598-9.614 18.14-13.2 28.016-8.016 9.875 5.188 13.344 17.184 7.75 26.793l-37.89 65.074c-5.598 9.61-18.141 13.2-28.016 8.012-9.875-5.184-13.348-17.18-7.75-26.793zm0 0" transform="translate(19.77 -2.127) scale(.7311)"/>
</svg>
