<svg xmlns="http://www.w3.org/2000/svg" viewBox="0 0 128 128"><path fill="#91d400" d="M33.826 73.558H.046l.019.491c.018.318.04.632.059.945.006.136.012.272.024.408a62.65 62.65 0 0 0 .248 2.55c0 .041.006.076.012.118.053.431.106.868.171 1.3 0 .005 0 .011.006.016a55.905 55.905 0 0 0 1.742 7.944c.006.012.012.018.012.03a42.296 42.296 0 0 0 .4 1.299c.006.023.019.047.025.07.118.367.248.733.372 1.104.036.09.064.183.1.279.113.313.224.632.342.95.06.141.112.283.167.431.105.26.205.519.306.787.082.193.167.388.248.59.082.2.171.407.254.613.112.248.224.496.33.744.071.154.136.302.201.449.136.294.278.597.42.892l.141.288c.166.344.337.68.508 1.016.03.053.053.106.077.154a54.944 54.944 0 0 0 .62 1.17c.042.076.089.153.13.224l28.849-17.29.106-.065a22.723 22.723 0 0 1-2.108-7.506zm0 0"/><path fill="#91d400" d="m2.74 88.659-1.098.313.012.03zm0 0"/><path fill="#4c5930" d="m42.123 88.988-.076.084-23.794 23.68c.124.112.242.225.366.337.225.201.449.402.674.596.118.101.23.207.348.308.272.23.544.454.816.679.07.065.147.124.218.181a32.759 32.759 0 0 0 1.045.84c.343.265.68.52 1.022.78.018.011.03.017.04.03a55.324 55.324 0 0 0 4.454 2.993c.053.036.106.065.159.101l.874.514c.176.1.36.2.538.307.17.094.335.19.508.283.313.166.62.337.932.496a53.77 53.77 0 0 0 2.758 1.34l.845-2.037 11.97-28.925.041-.106a23.186 23.186 0 0 1-3.738-2.48zm0 0"/><path fill="#68a338" d="M39.65 86.633a25.364 25.364 0 0 1-1.36-1.666 16.94 16.94 0 0 1-.66-.933 24.082 24.082 0 0 1-.62-.957l-28.886 17.32c.45.734.91 1.447 1.382 2.15.018.025.03.054.047.078l.018.024c.012.022.03.045.04.07.007.005.007.005.007.011.042.053.077.106.118.167 0 .006 0 .006.006.01v.006a53.095 53.095 0 0 0 1.589 2.215c.012.018.024.03.03.047.236.302.466.61.701.91a1.355 1.355 0 0 1 .096.118c.248.307.496.614.75.922a4.397 4.397 0 0 1 .176.218c.232.272.461.544.691.809.102.118.207.23.307.343.197.223.396.449.597.672.112.124.23.242.342.366.048.053.101.114.154.167l.443.477.183.183c.266.278.532.55.803.817l23.822-23.711a33.531 33.531 0 0 1-.778-.833Zm0 0"/><path fill="#4c5930" d="M71.23 88.978c-.266.206-.525.413-.797.614l.06.1 17.371 28.7a58.264 58.264 0 0 0 2.374-1.63 57.597 57.597 0 0 0 4.878-4.01l-23.79-23.68Zm0 0"/><path fill="#91d400" d="m85.669 119.756.035-.018zm.035-.018a3.36 3.36 0 0 0 .231-.13l-.006-.006c-.075.048-.148.09-.225.136zm-.035.018-.012.006zm-.059-.059.04.071zm.059.059.035-.018zm-.024.018.006-.006zm.012-.013-.006.008c.006-.007.012-.007.018-.013-.006.006-.006.006-.012.006zm0 0"/><path fill="#91d400" d="M85.704 119.738c.077-.045.154-.082.231-.13-.077.048-.154.089-.231.13zm.225-.136.006.006zm-.302.178.007-.006zm-.287-1.153-.592-.974-16.216-26.792a16.22 16.22 0 0 1-.998.555c-.337.183-.68.348-1.022.514a23.135 23.135 0 0 1-9.861 2.221 23.129 23.129 0 0 1-6.568-.952c-.36-.112-.715-.253-1.074-.378-.36-.129-.726-.236-1.081-.383l-11.958 28.9-.468 1.135-.4.973h-.006l.094.036c.036.019.065.025.1.041h.007c.006 0 .01.006.017.006.284.118.566.22.85.325.36.142.716.278 1.07.408.182.064.36.147.544.206a57.644 57.644 0 0 0 11.562 2.758c.158.018.313.042.465.06l.484.053c.302.035.605.071.91.1l.225.018c.378.035.75.065 1.122.094.124.006.254.012.378.024.331.024.655.04.98.059.2.006.402.012.603.024.26.006.518.017.778.023.372.012.75.012 1.128.018h.266c3.148 0 6.295-.26 9.408-.78l.159-.023c.325-.06.656-.118.987-.177.189-.036.372-.07.56-.113.19-.035.385-.076.58-.118a31.91 31.91 0 0 0 .955-.212l.179-.036a57.145 57.145 0 0 0 13.593-5.05c.283-.146.555-.312.838-.465.333-.183.662-.372.993-.56.23-.13.466-.249.691-.385l.006-.006h.006l.005-.006c.006 0 .006 0 .006-.006l-.041-.07.04.07h.007c.006-.006.012-.006.012-.006.012-.012.024-.018.034-.024.078-.045.155-.088.226-.136zm-43.2-65.04c.26-.213.527-.414.791-.615l-.059-.1-17.367-28.7a52.052 52.052 0 0 0-2.385 1.635 56.258 56.258 0 0 0-4.867 4.005l23.794 23.68zm0 0"/><path fill="#4c5930" d="M16.6 31.389c-.273.272-.525.548-.791.82-.26.272-.533.545-.791.821a57.694 57.694 0 0 0-5.02 6.236c-.16.236-.326.472-.484.71a27.73 27.73 0 0 0-.49.75c-.06.087-.118.18-.177.271A56.085 56.085 0 0 0 .049 69.006a57.802 57.802 0 0 0-.03 1.14C.011 70.524 0 70.902 0 71.28h33.698c0-.378.034-.756.05-1.134.019-.384.025-.762.066-1.14a22.68 22.68 0 0 1 5.08-12.212c.241-.29.513-.567.766-.845.26-.284.497-.573.768-.845zm69.53-8.327a70.192 70.192 0 0 0-1.034-.608c-.177-.101-.348-.201-.526-.296-.177-.1-.348-.194-.525-.295a40.861 40.861 0 0 0-.916-.49c-.047-.024-.094-.047-.14-.076a57.468 57.468 0 0 0-6.078-2.718c-.053-.023-.112-.04-.166-.059a56.732 56.732 0 0 0-12.714-3.178c-.153-.022-.313-.04-.472-.063l-.473-.054a48.005 48.005 0 0 0-1.174-.118 64.437 64.437 0 0 0-1.087-.094c-.141-.006-.283-.018-.424-.024-.308-.023-.627-.041-.934-.06l-.496-.017v33.62a23.558 23.558 0 0 1 5.114 1.11l24.862-24.744a62.16 62.16 0 0 0-2.817-1.836zm0 0"/><path fill="#68a338" d="m27.436 22.962.59.973zm28.103-8.073c-.378.006-.762.006-1.14.023a57.624 57.624 0 0 0-7.12.725c-.054.014-.106.02-.16.03-.331.055-.656.12-.986.179l-.56.106c-.197.04-.39.075-.58.124a55.92 55.92 0 0 0-1.134.248 57.334 57.334 0 0 0-13.6 5.043c-.278.148-.556.317-.832.472-.331.178-.662.367-.998.556-.242.14-.491.272-.74.419h-.004a.245.245 0 0 1-.054.03c-.065.04-.13.07-.195.112l.006.006.585.973 16.806 27.767c.325-.2.662-.378.998-.555a22.903 22.903 0 0 1 8.569-2.615c.378-.042.755-.071 1.14-.095.377-.017.761-.035 1.145-.035V14.865c-.384 0-.762.012-1.146.024zm0 0"/><path fill="#4c5930" d="m113.3 68.51-.053-.904c-.012-.154-.018-.302-.03-.454l-.088-1.064c-.012-.09-.018-.183-.024-.272a80.881 80.881 0 0 0-.13-1.187c-.005-.035-.005-.065-.01-.094 0-.017 0-.03-.007-.048-.053-.423-.106-.85-.172-1.274 0-.018 0-.03-.005-.043a55.59 55.59 0 0 0-1.743-7.93 72.458 72.458 0 0 0-.39-1.258c-.017-.053-.035-.106-.046-.159-.125-.366-.243-.726-.373-1.087-.035-.095-.065-.195-.1-.295a59.416 59.416 0 0 0-.514-1.375c-.101-.26-.201-.52-.302-.774-.082-.208-.165-.409-.247-.61-.083-.2-.172-.394-.254-.595l-.337-.762-.195-.431c-.136-.302-.284-.608-.425-.91-.048-.088-.089-.182-.13-.272-.17-.348-.343-.69-.514-1.033-.024-.047-.047-.094-.075-.142-.197-.378-.392-.756-.597-1.128l-.018-.034a55.872 55.872 0 0 0-3.225-5.21l-24.868 24.75a22.941 22.941 0 0 1 1.11 5.095h33.78zm0 0"/><path fill="#68a338" d="M79.67 71.278c0 .386-.036.763-.054 1.141-.018.378-.024.76-.065 1.139a22.68 22.68 0 0 1-5.08 12.213c-.242.29-.506.567-.766.844-.254.284-.496.574-.768.845l23.828 23.714c.273-.272.525-.55.791-.821.26-.277.532-.549.786-.827a55.883 55.883 0 0 0 4.83-5.952c.06-.083.112-.166.167-.242.177-.254.353-.514.524-.768.154-.23.307-.453.454-.685.072-.112.143-.231.214-.337a56.019 56.019 0 0 0 8.78-27.99c.019-.378.025-.756.037-1.134.005-.378.017-.756.017-1.14zm0 0"/><path fill="#3f3f42" d="M123.376 4.902c-6.167-6.135-16.158-6.135-22.323 0-4.92 4.89-5.9 12.208-2.97 18.082L63.694 57.212c-5.905-2.91-13.258-1.935-18.177 2.96-6.165 6.136-6.16 16.085 0 22.223 6.17 6.135 16.164 6.129 22.329 0a15.656 15.656 0 0 0 2.97-18.09l34.387-34.226c5.905 2.917 13.25 1.936 18.172-2.959a15.654 15.654 0 0 0 0-22.217zm0 0"/></svg>
