<svg width="128" height="128" viewBox="0 0 128 128" xmlns="http://www.w3.org/2000/svg">
  <path style="fill:#91d400;fill-opacity:1;fill-rule:nonzero;stroke:none" d="M19.023 47.793H11.52c0 .035 0 .074.003.11 0 .07.008.14.012.21 0 .028.004.059.004.09l.023.242c0 .02 0 .035.004.055.008.09.02.18.028.27 0 .007.004.015.004.027.011.094.023.191.039.289v.004a12.44 12.44 0 0 0 .39 1.77c.028.093.055.183.086.273 0 .004 0 .012.004.015l.004.016.082.246.024.063c.023.07.05.14.078.21l.035.094c.023.059.047.118.066.176.02.043.04.086.055.133.02.043.039.09.058.133.024.058.051.113.075.168.015.035.027.066.043.097.03.067.062.133.093.2l.032.066c.035.074.074.148.113.227.004.007.012.02.016.03.043.087.09.169.132.25.004.005.004.009.008.013.008.015.02.03.028.05l6.41-3.843.023-.016a5.145 5.145 0 0 1-.469-1.668zm0 0" transform="translate(-11.336 6.267) scale(1.18193)"/>
  <path style="fill:#91d400;fill-opacity:1;fill-rule:nonzero;stroke:none" d="m11.871 51.219.004.008.242-.079zm0 0" transform="translate(-11.336 6.267) scale(1.18193)"/>
  <path style="fill:#4c5930;fill-opacity:1;fill-rule:nonzero;stroke:none" d="m20.871 51.223-.02.02-5.288 5.26c.027.024.054.052.082.075.05.043.101.09.152.133a6.207 6.207 0 0 0 .258.219l.047.043a10.015 10.015 0 0 0 .234.184c.074.058.148.116.226.175.004 0 .004.004.008.004.32.238.649.46.989.668.011.008.023.012.035.02.066.038.133.078.195.117.04.02.082.043.121.066.035.02.074.043.113.063.067.039.137.074.207.113l.028.012c.191.101.387.195.586.285l.187-.453 2.66-6.43.008-.024a5.17 5.17 0 0 1-.828-.55Zm0 0" transform="translate(-11.336 6.267) scale(1.18193)"/>
  <path style="fill:#68a338;fill-opacity:1;fill-rule:nonzero;stroke:none" d="M20.32 50.7a4.018 4.018 0 0 1-.168-.196c-.047-.059-.09-.117-.136-.176a3.908 3.908 0 0 1-.145-.207 6.256 6.256 0 0 1-.137-.21l-6.422 3.847c.102.164.204.32.31.476.003.008.003.012.007.02.004 0 .004.004.004.004.004.004.008.012.012.015v.004c.007.012.019.024.027.035v.004c.113.164.226.325.344.485.004 0 .007.004.011.008 0 .003.004.007.004.011.055.067.106.133.156.203l.024.024c.055.07.11.137.164.207.016.016.027.031.043.047.05.062.102.12.152.18.02.027.043.05.067.078.043.05.09.097.133.148.023.027.05.055.078.082.007.012.02.023.03.035.036.035.067.07.102.106.012.015.028.027.04.043.058.062.117.12.175.18l5.297-5.27a3.82 3.82 0 0 1-.172-.184Zm0 0" transform="translate(-11.336 6.267) scale(1.18193)"/>
  <path style="fill:#4c5930;fill-opacity:1;fill-rule:nonzero;stroke:none" d="M27.336 51.219a3.02 3.02 0 0 1-.176.136l.016.024 3.86 6.379c.179-.117.355-.238.527-.363.375-.274.734-.57 1.085-.891l-5.289-5.262Zm0 0" transform="translate(-11.336 6.267) scale(1.18193)"/>
  <path style="fill:#91d400;fill-opacity:1;fill-rule:nonzero;stroke:none" d="m30.547 58.063.008-.008-.008.007zm.008-.008c.015-.008.035-.016.05-.028l-.05.028zm-.012.008h.004v-.004zm0 0-.008-.016zm0 0" transform="translate(-11.336 6.267) scale(1.18193)"/>
  <path style="fill:#91d400;fill-opacity:1;fill-rule:nonzero;stroke:none" d="m30.547 58.063.008-.008-.008.007zm-.007.003.003-.003zm.003-.003s.004 0 .004-.004c0 .004 0 .004-.004.004zm.012-.008c.015-.008.035-.016.05-.028-.015.012-.035.02-.05.028zm0 0" transform="translate(-11.336 6.267) scale(1.18193)"/>
  <path style="fill:#91d400;fill-opacity:1;fill-rule:nonzero;stroke:none" d="m30.473 57.809-.13-.215-3.605-5.953a4.827 4.827 0 0 1-.222.12 5.116 5.116 0 0 1-2.418.61 5.12 5.12 0 0 1-1.457-.215c-.082-.023-.16-.054-.243-.082-.078-.027-.16-.054-.238-.086l-2.66 6.426-.102.25-.09.215v.004c.008 0 .012.004.02.008.008 0 .016.004.024.007h.003c.063.028.125.047.192.075.078.03.156.062.234.09.043.015.082.03.121.046.832.293 1.696.496 2.57.61.036.004.071.011.102.015l.11.012c.066.008.136.016.203.02.015.003.031.003.05.007.083.008.165.012.247.02.03 0 .058.004.086.004.074.004.144.012.218.012.043.003.09.003.133.007.059 0 .117.004.172.004.086.004.168.004.254.004h.058c.7 0 1.399-.055 2.09-.172.012 0 .024-.004.035-.004.075-.015.145-.027.22-.043l.124-.023c.043-.008.086-.016.13-.027a2.368 2.368 0 0 0 .25-.055 12.563 12.563 0 0 0 3.023-1.121c.062-.031.125-.07.183-.106.074-.039.149-.082.223-.12.05-.032.101-.06.152-.087.004 0 .004-.004.004-.004h.004l-.012-.015.012.015.004-.003s.004 0 .008-.004c.015-.008.03-.02.05-.028zm-9.602-14.454c.059-.046.117-.093.18-.136l-.016-.024-3.86-6.379c-.179.118-.355.239-.53.364-.372.273-.735.57-1.083.89l5.29 5.262zm0 0" transform="translate(-11.336 6.267) scale(1.18193)"/>
  <path style="fill:#4c5930;fill-opacity:1;fill-rule:nonzero;stroke:none" d="M15.195 38.422c-.058.058-.117.121-.175.18-.06.062-.118.12-.176.183-.39.422-.746.863-1.067 1.32-.015.024-.03.043-.047.067-.039.05-.074.105-.109.156l-.11.168a12.476 12.476 0 0 0-1.992 6.285c-.003.086-.007.168-.007.254-.004.082-.004.168-.004.25h7.488c0-.082.008-.168.012-.25.004-.086.004-.168.015-.254a5.031 5.031 0 0 1 1.13-2.715c.05-.062.113-.125.167-.187.059-.063.114-.129.172-.188zm15.453-1.852c-.007-.007-.02-.011-.03-.02l-.2-.116c-.04-.02-.074-.043-.113-.067-.04-.02-.078-.043-.118-.062a11.18 11.18 0 0 0-.203-.11c-.011-.004-.023-.011-.035-.015-.437-.23-.887-.43-1.347-.606l-.04-.015c-.097-.036-.199-.075-.3-.11a12.955 12.955 0 0 0-2.524-.594c-.035-.003-.07-.011-.105-.015l-.106-.012a3.577 3.577 0 0 0-.203-.02c-.02-.003-.039-.003-.058-.007-.079-.008-.16-.012-.239-.02-.03 0-.066-.004-.097-.004a3.444 3.444 0 0 0-.207-.015c-.036 0-.075 0-.11-.004v7.472a5.18 5.18 0 0 1 1.137.247l5.523-5.497a9.561 9.561 0 0 0-.625-.41zm0 0" transform="translate(-11.336 6.267) scale(1.18193)"/>
  <path style="fill:#68a338;fill-opacity:1;fill-rule:nonzero;stroke:none" d="m17.738 36.766-.133-.22zm6.114-2.012c-.086 0-.168 0-.254.004-.532.023-1.059.074-1.582.164-.012 0-.024.004-.036.004-.074.011-.148.027-.218.039a1.173 1.173 0 0 0-.125.027l-.13.024-.214.046a12.774 12.774 0 0 0-3.059 1.133h-.004c-.058.032-.12.07-.183.102-.074.043-.149.082-.223.125-.054.031-.11.058-.164.094-.004.003-.008.003-.012.007a.422.422 0 0 0-.043.024l.133.219 3.735 6.168c.07-.043.144-.082.218-.122.079-.039.153-.078.23-.113a5.066 5.066 0 0 1 2.184-.496V34.75c-.085 0-.167 0-.253.004zm0 0" transform="translate(-11.336 6.267) scale(1.18193)"/>
  <path style="fill:#4c5930;fill-opacity:1;fill-rule:nonzero;stroke:none" d="m36.688 46.672-.012-.203c-.004-.032-.004-.067-.008-.098a4.4 4.4 0 0 0-.02-.238c0-.02-.003-.04-.003-.063-.008-.086-.02-.175-.028-.261-.004-.008-.004-.016-.004-.02v-.012c-.011-.093-.027-.191-.039-.285v-.008a12.44 12.44 0 0 0-.386-1.761c-.004-.004-.004-.008-.004-.012a7.164 7.164 0 0 0-.086-.27l-.012-.035c-.023-.082-.05-.16-.078-.242l-.024-.062c-.027-.07-.05-.141-.078-.211-.011-.032-.023-.067-.039-.098-.02-.059-.043-.113-.066-.172a1.908 1.908 0 0 0-.055-.133c-.02-.047-.035-.09-.055-.133a3.262 3.262 0 0 1-.074-.171.998.998 0 0 1-.043-.094c-.031-.067-.062-.137-.097-.203-.008-.02-.02-.04-.028-.063-.039-.074-.074-.152-.113-.226-.008-.012-.012-.024-.02-.032l-.128-.25c-.004-.003-.004-.007-.008-.011a12.948 12.948 0 0 0-.715-1.157l-5.527 5.5c.125.372.207.75.246 1.133h7.507c0-.035 0-.074-.003-.11zm0 0" transform="translate(-11.336 6.267) scale(1.18193)"/>
  <path style="fill:#68a338;fill-opacity:1;fill-rule:nonzero;stroke:none" d="M29.215 47.285c0 .086-.008.172-.012.254a5.5 5.5 0 0 1-.016.254 5.061 5.061 0 0 1-1.128 2.715 7.496 7.496 0 0 1-.172.187c-.055.063-.11.13-.168.188l5.293 5.27c.062-.06.117-.122.175-.184.06-.059.122-.121.176-.18.395-.426.75-.867 1.074-1.324l.036-.055c.043-.055.078-.113.117-.172.035-.05.07-.101.101-.152l.047-.074a12.448 12.448 0 0 0 1.953-6.219c.004-.086.004-.168.008-.254 0-.082.004-.168.004-.254zm0 0" transform="translate(-11.336 6.267) scale(1.18193)"/>
  <path style="fill:#3f3f42;fill-opacity:1;fill-rule:nonzero;stroke:none" d="M38.926 32.535a3.52 3.52 0 0 0-4.961 0 3.474 3.474 0 0 0-.66 4.02l-7.64 7.605a3.522 3.522 0 0 0-4.04.656 3.482 3.482 0 0 0 0 4.942 3.516 3.516 0 0 0 4.96-.004 3.474 3.474 0 0 0 .661-4.02l7.64-7.605c1.313.648 2.95.43 4.04-.656a3.478 3.478 0 0 0 0-4.938zm0 0" transform="translate(-11.336 6.267) scale(1.18193)"/>
  <path style="fill:#68a338;fill-opacity:1;fill-rule:nonzero;stroke:none" d="M71.586 58.754V54.62h.73v4.133zm6.285 0L75.703 55.8v2.953h-.73V54.62h.75l2.12 2.863V54.62h.731v4.133zm3.359 0V54.62h.73v4.133zm4.38 0v-3.492h-1.258v-.64h3.242v.64h-1.258v3.492zm4.374 0V54.62h.73v4.133zm6.301 0-.305-.797h-1.906l-.304.797h-.829l1.633-4.133h.906l1.633 4.133zm-1.258-3.406-.746 1.968h1.492zm4.895 3.406v-3.492h-1.258v-.64h3.242v.64h-1.258v3.492zm4.375 0V54.62h.73v4.133zm4.59 0-1.633-4.133h.828l1.258 3.34 1.258-3.34h.828l-1.633 4.133zm4.761 0V54.62h2.844v.64h-2.117v1.063h2.074v.64h-2.074v1.153h2.117v.637zm0 0" transform="translate(-11.336 6.267) scale(1.18193)"/>
  <path style="fill:#3f3f42;fill-opacity:1;fill-rule:nonzero;stroke:none" d="M40.555 44.586c0-3.734 2.746-6.414 6.52-6.414 3.753 0 6.5 2.68 6.5 6.414 0 3.738-2.747 6.414-6.5 6.414-3.774 0-6.52-2.676-6.52-6.414zm10.293 0c0-2.324-1.477-4.07-3.774-4.07-2.316 0-3.793 1.746-3.793 4.07 0 2.305 1.477 4.074 3.793 4.074 2.297 0 3.774-1.77 3.774-4.074zm4.125 6.191V38.38H60.8c2.71 0 4.187 1.82 4.187 3.996 0 2.156-1.496 3.977-4.187 3.977h-3.176v4.425zm7.304-8.402c0-1.043-.8-1.672-1.847-1.672h-2.801v3.328h2.8c1.048 0 1.848-.633 1.848-1.656zm3.903 8.402V38.38h8.816v2.324h-6.164v2.602h6.035v2.324h-6.035v2.824h6.164v2.324zm19.015 0-5.941-8.086v8.086h-2.652V38.38h2.726l5.774 7.789v-7.79h2.652v12.4zm13.743 0-.786-2.101h-5.34l-.785 2.101H89.02l4.8-12.398h3.325l4.8 12.398zM95.48 41.02l-1.94 5.332h3.886zm7.153 9.757V38.38h5.828c2.71 0 4.184 1.82 4.184 3.996 0 2.156-1.493 3.977-4.184 3.977h-3.176v4.425zm7.305-8.402c0-1.043-.805-1.672-1.848-1.672h-2.805v3.328h2.805c1.043 0 1.847-.633 1.847-1.656zm3.902 8.402V38.38h2.652v12.398zm0 0" transform="translate(-11.336 6.267) scale(1.18193)"/>
</svg>
