<svg xmlns="http://www.w3.org/2000/svg" viewBox="0 0 128 128"><path fill="#91d400" d="M29.926 46.768a4.292 4.292 0 0 0-2.545 1.22 4.236 4.236 0 0 0-.805 4.9L17.26 62.16a4.294 4.294 0 0 0-4.924.8 4.245 4.245 0 0 0 0 6.026 4.287 4.287 0 0 0 6.047-.004 4.236 4.236 0 0 0 .805-4.902l9.316-9.271c1.6.79 3.597.523 4.926-.801a4.24 4.24 0 0 0 0-6.02 4.292 4.292 0 0 0-3.504-1.22zm-14.567 3.92a6.51 6.51 0 0 0-.308.005c-.105 0-.206 0-.31.004-.65.028-1.29.092-1.929.201-.014 0-.03.004-.045.004-.09.014-.18.034-.265.05a1.43 1.43 0 0 0-.152.03l-.159.03-.261.056A15.575 15.575 0 0 0 8.2 52.45h-.006c-.07.04-.146.086-.222.125-.09.053-.182.1-.272.153-.066.037-.135.07-.201.115-.005.003-.009.003-.014.008a.514.514 0 0 0-.052.029l.162.267 4.554 7.52c.086-.052.176-.1.266-.148.096-.048.185-.096.28-.14a6.177 6.177 0 0 1 2.663-.603v-9.088zm.62.01v9.11a6.316 6.316 0 0 1 1.386.301l6.733-6.703a11.657 11.657 0 0 0-.762-.5c-.009-.008-.025-.012-.037-.023l-.242-.14c-.05-.025-.091-.054-.139-.083-.049-.024-.096-.053-.145-.076a13.631 13.631 0 0 0-.246-.135c-.013-.005-.028-.013-.043-.017a15.114 15.114 0 0 0-1.642-.739l-.049-.02c-.118-.043-.242-.09-.365-.132a15.795 15.795 0 0 0-3.078-.725c-.043-.003-.087-.014-.13-.02l-.128-.013a4.361 4.361 0 0 0-.246-.023c-.025-.004-.05-.005-.073-.01-.096-.01-.194-.014-.29-.023-.037 0-.08-.006-.118-.006a4.199 4.199 0 0 0-.254-.018c-.044 0-.09 0-.133-.006zM6.91 53.206a21.7 21.7 0 0 0-.646.443c-.454.333-.896.696-1.32 1.086l6.449 6.416.023.028c.072-.056.142-.114.219-.166l-.02-.03-4.705-7.777zm36.455 1.652c-4.601 0-7.949 3.268-7.949 7.82 0 4.558 3.348 7.821 7.95 7.821 4.575 0 7.923-3.263 7.923-7.82 0-4.553-3.348-7.82-7.924-7.82zm9.63.254V70.23l3.232.001v-5.396h3.87c3.282 0 5.106-2.219 5.106-4.848 0-2.653-1.801-4.873-5.105-4.873h-7.104zm13.663 0V70.23l10.748.001v-2.834h-7.515v-3.443h7.359V61.12h-7.36v-3.172h7.516v-2.834H66.658zm12.707 0V70.23h3.233v-9.86l7.244 9.86 3.119.001V55.113h-3.233v9.498l-7.04-9.498h-3.323zm20.992 0-5.851 15.115h3.666l.957-2.56h6.51l.959 2.56h3.666l-5.852-15.115h-4.055zm10.746 0V70.23l3.233.001v-5.396h3.873c3.28 0 5.102-2.219 5.102-4.848 0-2.653-1.798-4.873-5.102-4.873h-7.106zm13.663 0V70.23l3.234.001V55.113h-3.234zm-120.27.053-.215.219c-.073.075-.144.146-.215.222a15.489 15.489 0 0 0-1.3 1.61c-.019.03-.036.053-.057.082-.048.06-.09.127-.133.19l-.135.204a15.211 15.211 0 0 0-2.427 7.664c-.004.105-.01.204-.01.309-.005.1-.004.205-.004.305h9.129c0-.1.01-.205.015-.305.005-.105.005-.204.018-.309a6.134 6.134 0 0 1 1.38-3.31c.06-.076.136-.153.202-.229.072-.076.138-.156.21-.228l-6.458-6.424zm23.494 2.103-6.738 6.706c.152.453.251.915.299 1.382h9.152c0-.042.002-.089-.002-.132v-.002l-.016-.246c-.004-.04-.004-.082-.01-.12a5.365 5.365 0 0 0-.023-.29c0-.025-.004-.049-.004-.077-.01-.105-.025-.213-.035-.318-.005-.01-.004-.02-.004-.025v-.014c-.013-.114-.034-.233-.049-.348v-.01a15.167 15.167 0 0 0-.47-2.146c-.005-.005-.004-.01-.004-.016a8.735 8.735 0 0 0-.105-.328l-.014-.043c-.028-.1-.062-.195-.096-.295l-.03-.076c-.032-.085-.06-.172-.095-.258-.013-.039-.027-.081-.047-.119-.024-.072-.052-.137-.08-.209a2.326 2.326 0 0 0-.068-.162c-.025-.057-.042-.11-.067-.162a3.977 3.977 0 0 1-.09-.21 1.217 1.217 0 0 1-.052-.114c-.038-.082-.075-.166-.117-.246-.01-.025-.026-.05-.036-.079-.047-.09-.089-.185-.136-.275-.01-.015-.016-.03-.026-.039l-.156-.305c-.005-.003-.005-.008-.01-.013a15.787 15.787 0 0 0-.87-1.41zm15.373.45c2.8 0 4.602 2.127 4.602 4.96 0 2.81-1.801 4.97-4.602 4.97-2.824 0-4.625-2.159-4.625-4.97 0-2.833 1.801-4.96 4.625-4.96zm12.87.226h3.413c1.277 0 2.252.768 2.252 2.04 0 1.247-.974 2.019-2.252 2.019h-3.414v-4.059zm58.103 0h3.42c1.271 0 2.254.768 2.254 2.04h-.002c0 1.247-.98 2.019-2.252 2.019h-3.42v-4.059zm-11.955.387 2.373 6.502h-4.738l2.365-6.502zm-80.791 7.64c0 .105-.011.21-.016.31a6.706 6.706 0 0 1-.02.309 6.17 6.17 0 0 1-1.374 3.31 9.14 9.14 0 0 1-.21.229c-.066.077-.134.158-.204.228l6.453 6.426c.075-.073.142-.149.213-.224.073-.072.149-.147.215-.22a15.87 15.87 0 0 0 1.308-1.614l.045-.067c.052-.067.095-.137.143-.209a3.487 3.487 0 0 0 .123-.185l.056-.09a15.177 15.177 0 0 0 2.381-7.584c.005-.105.005-.204.01-.309 0-.1.006-.205.006-.31h-9.13zM.014 66.59c0 .042 0 .09.004.135 0 .085.01.17.015.256 0 .034.004.071.004.109l.03.295c0 .024-.002.044.003.068.01.11.026.218.035.328 0 .009.004.019.004.033a7.9 7.9 0 0 0 .05.354v.004a15.167 15.167 0 0 0 .474 2.158c.034.113.068.222.105.332 0 .005 0 .016.004.02l.006.02.1.298.029.078c.028.086.061.17.096.256l.04.113c.029.072.06.144.083.215.024.052.048.105.066.162.025.053.047.11.07.162.03.071.063.138.092.205.019.043.033.082.053.12l.113.244.04.08c.042.09.089.179.136.275.005.009.015.025.02.037.052.106.11.206.162.305.005.006.005.01.01.016.01.018.023.038.033.062l7.816-4.685.027-.02a6.273 6.273 0 0 1-.572-2.035H.014zm.728 4.092-.299.086.004.01.295-.096zm9.287-1.508-7.83 4.69c.125.2.25.39.38.58.003.01.002.015.007.025.005 0 .006.004.006.004.005.005.009.015.014.02v.003c.008.015.023.03.033.043v.004c.137.2.276.397.42.592.005 0 .006.005.011.01 0 .003.006.008.006.013.067.082.129.163.19.248l.029.03c.067.085.135.166.201.251.02.02.033.038.053.057.06.076.123.148.183.22.025.034.053.06.082.095.053.06.11.12.163.181a1.4 1.4 0 0 0 .095.1c.009.014.025.028.037.043.044.043.08.085.123.129.015.018.035.033.05.053.07.075.143.145.214.218l6.457-6.426a4.657 4.657 0 0 1-.209-.222 4.899 4.899 0 0 1 0-.002 4.899 4.899 0 0 1-.205-.236c-.057-.072-.11-.143-.166-.215a4.765 4.765 0 0 1-.176-.252 7.628 7.628 0 0 1-.168-.256zm9.27 1.594a3.682 3.682 0 0 1-.215.166l.02.029 4.705 7.777a15.78 15.78 0 0 0 .642-.443 15.554 15.554 0 0 0 1.324-1.086l-6.449-6.416-.027-.027zm-7.883.005-.025.024-6.448 6.414c.033.03.068.062.102.09.06.052.121.11.184.162a7.568 7.568 0 0 0 .314.268l.059.052a12.21 12.21 0 0 0 .285.225l.275.213c.005 0 .005.006.01.006a16.068 16.068 0 0 0 1.205.814c.013.01.028.014.043.024.08.046.163.095.238.142.049.024.1.052.147.08.042.025.09.054.138.078.082.048.167.09.252.137l.035.016c.233.123.47.238.713.347l.229-.552 3.244-7.84.01-.03a6.303 6.303 0 0 1-1.01-.67zm7.152.508a5.885 5.885 0 0 1-.27.147 6.238 6.238 0 0 1-2.948.744 6.242 6.242 0 0 1-1.776-.262c-.1-.028-.195-.065-.297-.1-.095-.032-.196-.066-.29-.105l-3.243 7.836-.125.305-.11.261v.004c.01 0 .016.005.026.01.01 0 .02.006.03.01h.001c.077.034.153.056.235.09.095.036.19.077.285.111.052.018.1.035.148.055 1.015.357 2.068.605 3.133.744.044.005.087.014.125.02l.135.013a4.056 4.056 0 0 0 .246.023c.018.004.04.005.063.01.1.01.2.014.3.024.037 0 .07.006.104.006.09.004.175.013.266.013.052.004.111.005.164.01.072 0 .142.004.209.004.104.005.203.006.308.006h.072c.854 0 1.705-.069 2.547-.211.015 0 .03-.004.043-.004.092-.018.178-.033.27-.053l.15-.027a2.654 2.654 0 0 0 .158-.033 2.887 2.887 0 0 0 .305-.069 15.317 15.317 0 0 0 3.686-1.365c.075-.038.152-.087.222-.13.09-.048.183-.099.274-.145a2.607 2.607 0 0 1 .185-.108c.005 0 .004-.004.004-.004h.01v-.004s.005 0 .01-.005l.008-.004c.017-.009.036-.017.052-.03l-.16-.265-.158-.262-4.397-7.26zm54.682 3.633v5.041l.889-.002v-5.039h-.889zm4.129 0v5.039h.89v-3.6l2.643 3.602.858-.002v-5.039h-.893v3.49l-2.584-3.49h-.914zm7.629 0v5.041l.889-.002v-5.039h-.89zm10.672 0v5.041l.89-.002v-5.039h-.89zm17.45 0v5.041l.892-.002v-5.039h-.891zm11.403 0v5.041l3.467-.002v-.777h-2.582V77.77h2.53v-.78h-2.53v-1.296H128v-.781h-3.467zm-35.719.002v.781h1.534v4.258h.884v-4.258h1.534v-.781h-3.952zm12.463 0-1.992 5.039h1.012l.37-.973h2.323l.373.973h1.01l-1.992-5.039h-1.104zm4.987 0v.781h1.533v4.258h.885v-4.258h1.535v-.781h-3.953zm10.472 0 1.992 5.039h1.104l1.992-5.039h-1.01l-1.535 4.072-1.533-4.072h-1.01zm-14.906.887.908 2.398h-1.818l.91-2.398z"/></svg>
