<svg xmlns="http://www.w3.org/2000/svg" viewBox="0 0 128 128"><path fill="#91d400" d="M112.066 0a16.23 16.23 0 0 0-11.478 4.733c-4.958 4.93-5.976 12.253-3.172 18.235L63.556 56.67c-6.012-2.787-13.37-1.776-18.331 3.16-6.337 6.308-6.33 16.55 0 22.859l.002.002c6.343 6.305 16.625 6.3 22.962 0h.002c4.829-4.802 6.049-12.103 3.17-18.244l33.86-33.704c6.012 2.795 13.36 1.778 18.322-3.156l.002-.002c6.336-6.293 6.336-16.56 0-22.853A16.236 16.236 0 0 0 112.065 0Zm0 .997c3.9 0 7.796 1.478 10.775 4.441l.002.002c5.954 5.913 5.954 15.527 0 21.44l-.002.001c-4.754 4.729-11.842 5.671-17.541 2.855l-.32-.158-34.788 34.626.162.322a15.105 15.105 0 0 1-2.868 17.457c-5.955 5.918-15.596 5.926-21.556.002l-.002-.002c-5.947-5.929-5.952-15.52.002-21.447 4.751-4.728 11.849-5.665 17.549-2.856l.319.158L98.586 23.21l-.162-.321c-2.827-5.669-1.885-12.726 2.866-17.45h.002v-.002a15.219 15.219 0 0 1 10.774-4.44zM56.71 14.519c-.393 0-.776.012-1.159.024-.37.006-.753.006-1.14.023a57.955 57.955 0 0 0-7.16.728l-.02.004-.02.006c-.021.006-.062.011-.133.025l.013-.004c-.34.057-.666.122-.989.18H46.1l-.567.107h-.004c-.189.039-.387.076-.597.13-.374.078-.747.158-1.12.244l-.002.002a57.656 57.656 0 0 0-13.676 5.07v.002h-.002c-.293.156-.576.325-.841.473l.008-.002c-.338.182-.671.372-1.003.559l-.002.002-.004.002c-.192.111-.403.227-.617.35h-.033l-.105.074-.014.006-.041.025c-.025.016-.095.045-.202.115l-.514.337.397.397.553.92 17.013 28.109.428-.263c.307-.188.63-.361.964-.537h.004a22.332 22.332 0 0 1 8.357-2.55h.004l.002-.003c.364-.04.732-.068 1.112-.091l-.01.002c.378-.017.755-.035 1.122-.035h.498V14.52Zm1.78.03v34.48l.447.047a22.99 22.99 0 0 1 4.99 1.082l.292.098L89.65 24.95l-.493-.341a62.467 62.467 0 0 0-2.83-1.844l-.003-.002h-.002a70.613 70.613 0 0 0-1.04-.613h-.001c-.172-.099-.342-.198-.526-.296-.18-.102-.351-.194-.522-.292l-.004-.002-.004-.002a41.393 41.393 0 0 0-.922-.495H83.3a1.795 1.795 0 0 1-.107-.058l-.016-.01-.016-.008a57.785 57.785 0 0 0-6.09-2.724l-.012-.003a2.434 2.434 0 0 0-.177-.067l-.012-.004A57.05 57.05 0 0 0 64.107 15l-.01-.002c-.162-.024-.321-.04-.465-.06l-.006-.002-.479-.055a48.477 48.477 0 0 0-1.178-.118h-.005a65.154 65.154 0 0 0-1.089-.094l-.008-.002h-.01c-.118-.005-.256-.016-.406-.023l-.016-.002c-.308-.023-.623-.041-.923-.059h-.006zm-2.279.977v32.442c-.223.007-.451.01-.666.02h-.006l-.004.001c-.385.025-.768.052-1.158.096a23.331 23.331 0 0 0-8.725 2.661h.004c-.191.101-.387.217-.582.326l-16.507-27.27-.324-.536c.178-.101.357-.2.544-.308l.006-.004c.334-.189.657-.375.977-.547h.004l.004-.002c.285-.16.56-.325.82-.463l.002-.002a56.657 56.657 0 0 1 13.436-4.983l-.002.002c.373-.086.747-.168 1.122-.245l.012-.004.01-.002c.163-.042.346-.076.544-.117l.01-.002.545-.103c.335-.06.658-.123.978-.176l.006-.002.007-.002c.038-.007.099-.015.185-.037l-.039.01a56.936 56.936 0 0 1 7.037-.716h.002c.363-.016.74-.018 1.122-.024h.008c.213-.006.42-.009.628-.013zm3.275.056c.297.018.6.034.89.055l.008.002h.008c.123.005.265.019.422.025.353.028.709.058 1.057.092h.006c.387.034.771.071 1.157.115l.47.054c.166.023.32.04.455.06l.006.003h.003a56.065 56.065 0 0 1 12.563 3.14l.008.002.01.004c.056.019.106.035.128.045l.01.004.01.004a56.795 56.795 0 0 1 6.004 2.685l.14.076c.302.155.605.318.904.482.179.103.348.196.518.292l.006.002.004.004c.167.09.333.185.51.287.343.198.684.397 1.024.601.772.475 1.526.978 2.276 1.486l-24.158 24.04a23.971 23.971 0 0 0-4.439-.962Zm-33.7 8.015-.432.28a52.331 52.331 0 0 0-2.4 1.645v.002a56.6 56.6 0 0 0-4.896 4.029l-.381.352 24.085 23.97.41.42.353-.29c.25-.203.51-.4.775-.6l.353-.27-.285-.482zm-.313 1.41 16.871 27.877-.093.072L19.14 29.954c1.411-1.277 2.868-2.502 4.402-3.628v.002c.629-.46 1.28-.891 1.932-1.322zm-8.725 5.778-.352.352c-.282.282-.535.558-.793.822l-.002.002-.002.002c-.253.265-.526.537-.792.822v.002h-.002a58.016 58.016 0 0 0-5.047 6.271l-.002.002-.002.002c-.157.231-.322.468-.485.711-.166.248-.333.499-.496.76-.067.099-.124.19-.172.264v.002l-.002.002A56.41 56.41 0 0 0-.25 68.971v.002a57.939 57.939 0 0 0-.03 1.147c-.006.372-.017.75-.017 1.137v.498h34.59v-.498c0-.346.032-.715.05-1.106v-.002c.018-.391.026-.759.064-1.106v-.004a22.107 22.107 0 0 1 4.95-11.904v-.002c.22-.266.488-.535.749-.822l.002-.002c.27-.296.503-.577.75-.826l.35-.354zm.008 1.416 23.057 22.948c-.147.165-.303.335-.444.488v.002h-.002c-.241.266-.519.545-.779.857v.002a23.11 23.11 0 0 0-5.175 12.444c-.044.404-.05.79-.068 1.162v.002c-.01.205-.018.433-.03.653H.708l.01-.624c.006-.37.018-.75.031-1.125v-.002A55.412 55.412 0 0 1 9.44 41.342l.002-.004c.065-.1.119-.192.165-.259l.006-.008.006-.01c.153-.244.316-.487.48-.733v-.002c.154-.23.316-.462.478-.7l.004-.003a57.014 57.014 0 0 1 4.955-6.157l.002-.002c.248-.265.516-.533.779-.808l.004-.004c.146-.15.292-.3.436-.452zm86.488 6.267-.422.42-25.01 24.896.101.294c.554 1.616.91 3.285 1.083 4.967l.046.448h34.642l-.038-1.02-.055-.912v-.006c-.011-.14-.016-.286-.03-.451v-.002l-.087-1.075-.002-.012a4.474 4.474 0 0 1-.021-.237v-.018a82.165 82.165 0 0 0-.133-1.192v-.005l-.002-.006c.002.013.006-.017-.013-.12l.01.096a.766.766 0 0 0-.031-.204l.021.093a41.798 41.798 0 0 0-.175-1.285l.006.078c0 .002.02-.084-.041-.234l.031.12a55.903 55.903 0 0 0-1.754-7.976 72.924 72.924 0 0 0-.39-1.262v-.002l-.033-.105-.006-.033-.011-.031c-.124-.36-.241-.721-.374-1.09l-.002-.002c-.028-.077-.056-.174-.096-.287l-.002-.002v-.004a59.766 59.766 0 0 0-.516-1.382c-.1-.257-.2-.518-.303-.775v-.002c-.083-.21-.167-.41-.248-.61v-.001l-.002-.002c-.087-.21-.175-.403-.25-.59l-.003-.008-.34-.77-.197-.427v-.002c-.14-.31-.287-.615-.425-.912l-.008-.015-.008-.016a3.581 3.581 0 0 1-.113-.235l-.002-.008-.004-.008c-.171-.35-.344-.69-.514-1.03l-.002-.004-.002-.002a2.52 2.52 0 0 0-.076-.144l-.013-.025c-.191-.367-.381-.739-.586-1.11l-.018-.033-.002-.002a56.175 56.175 0 0 0-3.242-5.238zm-.163 1.57c1.024 1.503 1.999 3.04 2.87 4.638h.002l.02.036c.2.362.39.734.587 1.112l.006.012.008.013a2.182 2.182 0 0 1 .062.115c.17.342.34.68.507 1.02l-.006-.015c.039.087.084.195.148.31.137.294.277.587.405.87l.192.428.337.758c.085.207.173.398.25.582.081.2.162.4.241.6v.002c.1.249.198.508.3.769.175.45.344.904.508 1.359.03.085.06.184.101.296.126.35.242.704.368 1.073l.043.148v.002c.132.413.261.828.386 1.244a54.934 54.934 0 0 1 1.72 7.825v.02l.007.038c.065.415.119.833.171 1.254l.002.016v.02l.004.013.006.033c.048.41.092.822.133 1.233v-.018c.006.085.01.188.025.304l.086 1.036c.01.135.016.283.029.45l-.002-.01.05.872H79.892a23.312 23.312 0 0 0-.965-4.416ZM79.125 70.757v.498c0 .353-.035.723-.054 1.116-.019.388-.025.76-.063 1.106v.004a22.108 22.108 0 0 1-4.951 11.906c-.227.271-.484.542-.744.818l-.004.004-.004.003c-.26.293-.496.574-.745.822l-.355.354 24.461 24.345.353-.353c.281-.281.534-.558.792-.822l.004-.004.004-.004c.252-.267.521-.539.783-.825l.004-.004a56.223 56.223 0 0 0 4.854-5.983c.071-.1.125-.183.163-.236l.002-.004.002-.004c.178-.256.354-.513.528-.771h.002c.152-.227.304-.453.455-.691l.002-.004c.078-.12.148-.234.209-.324l.002-.006.004-.004a56.344 56.344 0 0 0 8.832-28.15v-.004c.018-.387.023-.764.035-1.133v-.01c.005-.37.017-.75.017-1.143v-.498zm.974.996h32.61c-.005.21-.008.419-.01.633-.013.38-.019.75-.036 1.112v.004a55.346 55.346 0 0 1-8.676 27.656c-.078.117-.148.234-.212.333v.002l-.002.002c-.141.222-.292.441-.446.672h.002a57.278 57.278 0 0 1-.52.759c-.066.093-.115.17-.16.232l-.002.004-.002.004a55.195 55.195 0 0 1-4.772 5.878l-.002.002-.002.002c-.244.267-.513.54-.779.822-.15.153-.29.298-.432.447L73.6 87.371c.147-.164.303-.331.44-.485l.008-.008c.256-.272.521-.554.773-.855h.002v-.002A23.11 23.11 0 0 0 80 73.581v-.004c.044-.406.05-.796.067-1.16.01-.206.018-.44.03-.664zM-.268 73.031l.017.516.018.494v.006c.018.321.04.635.058.942a9.558 9.558 0 0 0 .028.423 62.915 62.915 0 0 0 .249 2.556l-.004-.058c0 .087.012.151.017.187.053.425.104.863.17 1.3l-.006-.073c0 .134.107.338.206.412l-.192-.329a56.18 56.18 0 0 0 1.74 7.948v.004l.004.012c.003.01.003.02.006.029l.012.04.005.015c.078.264.163.526.246.788l.309.962.238.707.006.015.006.014c.025.063.054.154.097.267.11.307.22.624.339.944l.004.012.006.011c.052.122.1.255.155.405l.002.008.004.01c.104.255.204.512.302.77l.002.009.004.01c.082.196.167.387.245.58.084.207.173.413.253.611l.004.01.004.008c.112.247.223.491.325.732l.002.008.002.006c.068.148.133.294.199.442l.002.003.002.002c.136.296.277.6.42.898l.002.002.14.288c.168.346.34.685.51 1.02l.006.012.006.01c.015.026.033.066.064.128l.002.004v.002c.203.394.41.787.623 1.176h.002c.051.094.1.175.134.234l.254.44 29.194-17.498.494-.298-.194-.41a22.164 22.164 0 0 1-2.054-7.318l-.047-.448h-.452zm1.034.997h32.747a23.11 23.11 0 0 0 1.9 6.768L7.346 97.62c-.165-.305-.328-.61-.487-.917l-.002-.006c-.015-.03-.043-.088-.078-.152l-.011-.021a56.681 56.681 0 0 1-.491-.985l-.138-.285-.002-.004a58.523 58.523 0 0 1-.411-.872l-.004-.006c-.064-.143-.127-.29-.199-.448l.004.014a39.738 39.738 0 0 0-.325-.734l-.008-.017c-.083-.206-.169-.406-.245-.594-.084-.208-.17-.406-.25-.596a34.32 34.32 0 0 0-.297-.76l-.006-.017c-.049-.133-.099-.27-.16-.415-.115-.313-.226-.628-.339-.942l-.002-.006-.001-.004c-.027-.069-.055-.157-.094-.257-.125-.376-.253-.74-.368-1.096l.008.033c-.022-.087-.035-.117-.025-.08l-.002-.013-.006-.014c-.14-.424-.27-.85-.395-1.28l.02.14a.616.616 0 0 0-.054-.221l.02.05a55.216 55.216 0 0 1-1.72-7.848l-.029-.204-.003-.003a59.47 59.47 0 0 1-.143-1.094v-.006l-.002-.003-.005-.047v-.03l-.004-.029a61.978 61.978 0 0 1-.245-2.523v-.006a8.723 8.723 0 0 1-.024-.383v-.008c-.017-.303-.039-.604-.056-.904Zm36.497 8.31-.424.253-29.225 17.525.262.43a61.66 61.66 0 0 0 1.387 2.16l.007.01.008.012c-.011-.016.014.02.012.019v.039l.066.084.008.015.027.027.008.01c.004.006.01.016.016.022v.004l.085.126a53.39 53.39 0 0 0 1.577 2.199l.004.006.004.013.049.063c.23.296.46.603.7.909l.008.012.012.011a.832.832 0 0 1 .062.076l.008.012.01.012c.247.306.495.613.75.923l.006.004.003.006c.054.063.106.128.156.194l.008.01.008.01c.23.271.461.543.693.81.11.128.217.241.31.345.196.223.396.45.597.674v.002c.124.137.242.254.341.364h.002v.002c.044.047.1.112.17.18l.434.472.19.189c.266.277.53.547.8.814l.353.348L41.2 87.404l-.34-.355a32.87 32.87 0 0 1-.762-.815l-.002-.002a24.772 24.772 0 0 1-1.324-1.626c-.227-.304-.444-.6-.64-.902l-.004-.006-.002-.004a23.546 23.546 0 0 1-.606-.934Zm-.323 1.357c.12.186.236.375.36.559.216.33.446.64.674.946a25.8 25.8 0 0 0 1.38 1.694v.002h.002c.148.164.301.323.452.484l-23.051 22.943c-.148-.15-.297-.298-.444-.452l-.004-.004-.181-.18-.438-.474-.008-.008c-.036-.037-.084-.091-.136-.148l-.002-.002c-.123-.136-.24-.251-.339-.36v-.002a78.865 78.865 0 0 1-.592-.666v-.002h-.002c-.106-.119-.209-.23-.3-.335l-.002-.002c-.22-.255-.444-.518-.67-.783l-.015-.02a4.55 4.55 0 0 0-.18-.221l.01.01c-.244-.296-.487-.593-.728-.892l-.017-.023a1.823 1.823 0 0 0-.092-.111l-.02-.024c-.223-.286-.444-.583-.677-.882l-.01-.017-.007-.012-.01-.012a52.804 52.804 0 0 1-1.482-2.07v-.09l-.134-.102c-.021-.03-.042-.063-.066-.096l-.004-.004-.004-.008-.022-.037-.017-.035-.03-.037-.005-.01-.006-.008c.01.01.012 0-.047-.078l.016.022a61.791 61.791 0 0 1-1.094-1.7zm5.205 4.536-.318.343-.068.074-24.085 23.97.39.353c.114.103.23.217.363.337l.002.002h.002c.224.199.447.401.678.6.108.092.22.195.347.305l.002.002.002.002c.274.231.546.455.817.68.085.076.166.14.222.184.344.289.695.571 1.05.845.345.266.683.521 1.022.78h.002l.01.01.011.005.002.002.02.014a55.669 55.669 0 0 0 4.48 3.012c.058.039.109.07.132.086l.016.01.89.523.004.002c.181.103.36.2.522.298l.01.006.01.004c.162.09.327.187.507.285h.002l.002.002c.306.162.613.333.935.496a54.57 54.57 0 0 0 2.775 1.347l.467.213 1.04-2.506 11.935-28.842.203-.522-.392-.208a22.688 22.688 0 0 1-3.647-2.42zm29.104.01-.344.265c-.27.208-.524.412-.785.605l-.362.267.288.489 17.586 29.056.432-.28A58.601 58.601 0 0 0 90.451 117h.002l.002-.002a57.878 57.878 0 0 0 4.903-4.03l.383-.355L71.656 88.64Zm-28.988 1.312a23.584 23.584 0 0 0 3.044 2.018l-11.821 28.563-.639 1.542a52.866 52.866 0 0 1-2.26-1.098l-.002-.002h-.002c-.3-.152-.603-.32-.92-.489l-.003-.002c-.156-.085-.313-.176-.481-.268l-.02-.01c-.18-.11-.358-.208-.521-.3l-.008-.004-.865-.508c-.055-.036-.105-.066-.128-.082l-.012-.008-.013-.008a54.602 54.602 0 0 1-4.399-2.958l.078.07c-.09-.104-.155-.124-.14-.115l.025.018c-.342-.26-.68-.514-1.018-.775a32.08 32.08 0 0 1-1.022-.824l-.004-.004-.004-.002c-.08-.064-.147-.117-.191-.157l-.012-.01-.011-.01c-.27-.224-.54-.447-.806-.672l-.004-.004c-.107-.092-.217-.194-.343-.302-.21-.18-.424-.373-.64-.566zm28.908.01 23.11 23.003c-1.416 1.276-2.879 2.503-4.416 3.631-.628.455-1.271.887-1.918 1.316L71.072 89.637Zm-2.484.526-.428.265c-.305.188-.628.36-.964.535l-.004.002-.002.002c-.322.175-.657.336-.999.503a22.564 22.564 0 0 1-9.612 2.163 22.548 22.548 0 0 1-6.398-.925l-.006-.002c-.331-.104-.68-.242-1.048-.37l-.004-.002c-.374-.134-.728-.24-1.05-.372l-.46-.189-12.113 29.27-.466 1.133-.27.66h.327l-.183.962.093.037.076.031.1.045h.025c.267.108.53.205.78.298.36.142.716.277 1.07.407l.003.002.004.002c.146.05.325.137.553.21a57.974 57.974 0 0 0 11.614 2.77h.008c.149.016.3.038.462.057l.485.055c.3.034.604.072.917.101h.004l.221.018c.38.035.754.064 1.126.093l.008.002h.007c.126.006.246.011.35.022h.013c.335.024.663.044.987.062h.012c.201.006.398.012.588.023h.017c.251.006.507.017.771.023.383.013.762.012 1.134.018h.272c3.16 0 6.32-.261 9.445-.783l.016-.002.156-.021.011-.002c.321-.06.65-.118.98-.177h.004l.002-.002c.18-.035.364-.069.555-.111l.019-.004c.19-.035.38-.074.569-.115l.005-.002c.322-.066.643-.139.962-.214l.168-.033.008-.002a57.464 57.464 0 0 0 13.668-5.076c.303-.158.577-.326.843-.47h.002v-.002c.335-.184.668-.372.997-.56l.002-.002c.184-.105.4-.225.602-.335.142-.072.276-.153.416-.23l.413-.24-.3-.51-.545-.907-.59-.974zm-.343 1.359 15.918 26.297.59.97.32.537-.089.051s-.293.16-.457.253l-.002.002c-.33.188-.657.375-.984.555-.297.16-.566.325-.825.46h-.002a56.47 56.47 0 0 1-13.433 4.99l-.17.033-.01.002c-.314.074-.626.145-.936.208l-.004.002h-.002c-.19.041-.38.08-.562.113l-.01.002-.01.002a17.296 17.296 0 0 1-.543.111c-.328.058-.656.115-.981.175l-.14.02-.008.001a56.42 56.42 0 0 1-9.298.771h-.264c-.38-.006-.753-.006-1.11-.017h-.004c-.247-.006-.498-.017-.758-.023h-.017a19.753 19.753 0 0 0-.586-.024h-.012a56.155 56.155 0 0 1-.944-.058h-.012c-.133-.013-.26-.018-.374-.023l-.015-.002a73.328 73.328 0 0 1-1.098-.092h-.002l-.22-.017h-.008c-.294-.028-.59-.063-.89-.098l-.481-.054h-.002c-.14-.017-.291-.04-.456-.059a56.956 56.956 0 0 1-11.425-2.726l-.008-.002-.006-.002c-.137-.044-.308-.123-.522-.198l-.007-.004a47.045 47.045 0 0 1-1.048-.4l-.004-.001-.006-.002a53.81 53.81 0 0 1-.578-.22l.206-.5.466-1.13 11.74-28.373.63.222h.002l.002.002c.345.12.705.263 1.088.382l.004.002h.002a23.552 23.552 0 0 0 6.688.97 23.561 23.561 0 0 0 10.043-2.263h.004l.002-.002c.337-.164.683-.329 1.032-.518l.006-.004c.19-.1.386-.213.58-.32z"/></svg>
