<svg xmlns="http://www.w3.org/2000/svg" viewBox="0 0 128 128"><path fill="#e73c00" d="M7.8516 50.5313A7.9443 7.9443 0 0 0 0 58.4823v11.0371a7.9594 7.9594 0 0 0 7.9512 7.9493h11.0351a7.9594 7.9594 0 0 0 7.9473-7.9493V64.172H11.0332v4.8672h11.0352v.4804a3.0886 3.0886 0 0 1-3.082 3.082H7.9511a3.0886 3.0886 0 0 1-3.086-3.082v-11.037a3.0856 3.0856 0 1 1 6.168 0v3.6796h4.8672v-3.6797a3.0856 3.0856 0 1 1 6.168 0v3.6797h4.8652v-3.6797a7.9473 7.9473 0 0 0-13.4688-5.7187 7.9443 7.9443 0 0 0-5.6132-2.2325zm66.3183 7.246a6.3579 6.3579 0 0 0-2.3633.4551 5.3735 5.3735 0 0 0-1.832 1.2715 5.81 5.81 0 0 0-1.1816 1.92 7.0563 7.0563 0 0 0 0 4.7988 5.813 5.813 0 0 0 1.1816 1.9199 5.3765 5.3765 0 0 0 1.832 1.2715 5.9605 5.9605 0 0 0 2.3653.457 5.9575 5.9575 0 0 0 2.3633-.457 5.3765 5.3765 0 0 0 1.83-1.2715 5.81 5.81 0 0 0 1.1836-1.92 7.0532 7.0532 0 0 0 0-4.7988 5.81 5.81 0 0 0-1.1836-1.9199 5.3735 5.3735 0 0 0-1.83-1.2715 6.3579 6.3579 0 0 0-2.3653-.455zm-23.916.002a6.3609 6.3609 0 0 0-2.3652.457 5.3705 5.3705 0 0 0-1.8301 1.2696 5.81 5.81 0 0 0-1.1836 1.918 7.0593 7.0593 0 0 0 0 4.7988 5.813 5.813 0 0 0 1.1836 1.9199 5.3735 5.3735 0 0 0 1.8477 1.2715 5.9635 5.9635 0 0 0 2.3671.457 5.9575 5.9575 0 0 0 2.3477-.455 5.3735 5.3735 0 0 0 1.83-1.2696 5.819 5.819 0 0 0 1.1837-1.9219 7.0593 7.0593 0 0 0 0-4.7969 5.816 5.816 0 0 0-1.1836-1.9218 5.3705 5.3705 0 0 0-1.8301-1.2696 6.3609 6.3609 0 0 0-2.3672-.457zm36.998.0195a6.8275 6.8275 0 0 0-2.4082.4219 5.8943 5.8943 0 0 0-1.9804 1.205 5.6534 5.6534 0 0 0-1.3399 1.9083 6.1863 6.1863 0 0 0-.4902 2.5039 6.1772 6.1772 0 0 0 .4902 2.5039 5.6474 5.6474 0 0 0 1.3399 1.9102 6.0357 6.0357 0 0 0 1.9805 1.203 6.695 6.695 0 0 0 2.4082.4317 6.418 6.418 0 0 0 2.8378-.6055 6.8124 6.8124 0 0 0 2.1387-1.6074v-4.498h-5.5703v2.1914h3.086v1.4238a3.3626 3.3626 0 0 1-1.0235.6172 3.757 3.757 0 0 1-1.4629.2832 3.6606 3.6606 0 0 1-1.4629-.3008 3.516 3.516 0 0 1-1.1797-.793 3.5883 3.5883 0 0 1-.7617-1.2187 4.2356 4.2356 0 0 1-.2715-1.5371 4.1633 4.1633 0 0 1 .2715-1.5273 3.6997 3.6997 0 0 1 .7617-1.2188 3.516 3.516 0 0 1 1.1641-.8066 3.6666 3.6666 0 0 1 1.4629-.3008 2.9923 2.9923 0 0 1 1.6562.457 3.6124 3.6124 0 0 1 1.1114 1.0684l2.0761-1.1016a6.3217 6.3217 0 0 0-.789-1 5.1176 5.1176 0 0 0-1.0489-.834 5.545 5.545 0 0 0-1.3398-.5683 6.1441 6.1441 0 0 0-1.6562-.211zm-55.498.1758v11.6816h1.4531V60.043l3.9532 9.6133h.6015l3.9766-9.6133v9.6133h1.4394V57.9746h-2.0859l-3.6426 8.793-3.6133-8.793h-2.082zm25.6016 0v11.6816h1.455v-9.332l6.8145 9.332h1.4102V57.9746H65.58v9.1152l-6.7364-9.1152h-1.4882zm47.836 0v11.6816h2.4882v-8.1777l3.293 8.1778h1.0879l3.293-8.1778v8.1778h2.4862V57.9746h-3.498l-2.832 7.0586-2.836-7.0586h-3.4824zm14.539 0v11.6816L128 69.6543v-2.1895h-5.7793v-2.6425h5.6582v-2.1875h-5.6582V60.166H128v-2.1914h-8.2695zm-22.797.0117L92.418 69.67h2.8261l.7344-1.9785h5.0098l.7187 1.9648 2.8614.0137-4.5157-11.6836h-3.1191zm-46.66 1.0918a4.2145 4.2145 0 0 1 1.7656.3614 4.0068 4.0068 0 0 1 1.3496.9882 4.4553 4.4553 0 0 1 .8672 1.504 5.6835 5.6835 0 0 1 .3007 1.8945 5.6113 5.6113 0 0 1-.3007 1.8847 4.5547 4.5547 0 0 1-.8672 1.504 3.9135 3.9135 0 0 1-1.3496.998 4.2145 4.2145 0 0 1-1.7657.3613 4.2807 4.2807 0 0 1-1.7793-.3613 3.8833 3.8833 0 0 1-1.3574-.998 4.4734 4.4734 0 0 1-.8594-1.504 5.807 5.807 0 0 1-.3007-1.8847 5.8852 5.8852 0 0 1 .3007-1.8946 4.38 4.38 0 0 1 .8594-1.5039 3.9586 3.9586 0 0 1 1.3574-.9882 4.2807 4.2807 0 0 1 1.7793-.3614zm23.8984 0a4.2145 4.2145 0 0 1 1.7676.3614 4.0038 4.0038 0 0 1 1.3476.9882 4.4523 4.4523 0 0 1 .8672 1.504 5.6835 5.6835 0 0 1 .3008 1.8945 5.6113 5.6113 0 0 1-.3008 1.8847 4.5516 4.5516 0 0 1-.8672 1.504 3.9135 3.9135 0 0 1-1.3476.998 4.2145 4.2145 0 0 1-1.7676.3613 4.2777 4.2777 0 0 1-1.7696-.3613 3.8833 3.8833 0 0 1-1.3574-.998 4.4643 4.4643 0 0 1-.8594-1.504 5.807 5.807 0 0 1-.3007-1.8847 5.8852 5.8852 0 0 1 .3007-1.8946 4.368 4.368 0 0 1 .8594-1.5039 3.9586 3.9586 0 0 1 1.3477-.9882 4.2777 4.2777 0 0 1 1.7793-.3614zm24.3125 1.3887 1.8203 5.0293H96.662l1.8223-5.0293z"/></svg>
