<svg xmlns="http://www.w3.org/2000/svg" viewBox="0 0 128 128"><path fill="#57f287" d="m127.978 18.202-19.935 19.21V18.28L72.409 35.544a15.09 15.09 0 0 1-15.133-.017L32.484 21.125a21.59 21.59 0 0 0-21.599-.056A21.616 21.616 0 0 0 .033 39.753L0 52.226v57.571l19.957-19.21v19.21l35.534-17.03a15.097 15.097 0 0 1 15.454-.173l24.577 14.28a21.604 21.604 0 0 0 21.598.062 21.597 21.597 0 0 0 10.847-18.679L128 75.785ZM106.49 79.86c0 3.51-3.737 5.75-6.832 4.093L82.13 74.58a40.15 40.15 0 0 0-38.916.582l-14.74 8.458c-3.094 1.775-6.953-.46-6.953-4.026v-31.19c0-3.577 3.876-5.812 6.97-4.021l14.59 8.452a40.152 40.152 0 0 0 39.193.588l17.368-9.378c3.094-1.67 6.848.57 6.848 4.087z"/></svg>
