<?xml version="1.0" encoding="utf-8"?>
<!-- Generator: Adobe Illustrator 24.1.1, SVG Export Plug-In . SVG Version: 6.00 Build 0)  -->
<svg version="1.1" id="Layer_1" xmlns="http://www.w3.org/2000/svg" xmlns:xlink="http://www.w3.org/1999/xlink" x="0px" y="0px"
	 viewBox="0 0 512 512" style="enable-background:new 0 0 512 512;" xml:space="preserve">
<style type="text/css">
	.st0{fill:url(#SVGID_1_);}
	.st1{fill:#2D3748;}
</style>
<g>
	
		<linearGradient id="SVGID_1_" gradientUnits="userSpaceOnUse" x1="2.2099" y1="511.5958" x2="3.2105" y2="511.5958" gradientTransform="matrix(108.6703 22.5564 -37.594 65.2022 18989.9492 -33162.5703)">
		<stop  offset="0" style="stop-color:#2298BD"/>
		<stop  offset="1" style="stop-color:#0ED7B5"/>
	</linearGradient>
	<path class="st0" d="M52.9,224.3c-14.1,0-22.9,7.1-26.4,21.2c5.3-7.1,11.5-9.7,18.5-7.9c4,1,6.9,3.9,10.1,7.2
		c5.2,5.3,11.2,11.4,24.3,11.4c14.1,0,22.9-7.1,26.4-21.2c-5.3,7.1-11.5,9.7-18.5,7.9c-4-1-6.9-3.9-10.1-7.2
		C72,230.4,66,224.3,52.9,224.3z M26.4,256c-14.1,0-22.9,7.1-26.4,21.2c5.3-7.1,11.5-9.7,18.5-7.9c4,1,6.9,3.9,10.1,7.2
		c5.2,5.3,11.2,11.4,24.3,11.4c14.1,0,22.9-7.1,26.4-21.2c-5.3,7.1-11.5,9.7-18.5,7.9c-4-1-6.9-3.9-10.1-7.2
		C45.6,262.1,39.6,256,26.4,256z"/>
	<path class="st1" d="M158.7,251h-9.2v17.9c0,4.8,3.1,4.7,9.2,4.4v7.2c-12.4,1.5-17.3-1.9-17.3-11.6V251h-6.8v-7.7h6.8v-10l8-2.4
		v12.4h9.2V251z M193.9,243.3h8v37.2h-8v-5.4c-2.8,3.9-7.2,6.3-13,6.3c-10.1,0-18.5-8.6-18.5-19.6c0-11.1,8.4-19.6,18.5-19.6
		c5.8,0,10.2,2.4,13,6.3V243.3z M182.1,273.8c6.7,0,11.8-5,11.8-11.9c0-6.9-5.1-11.9-11.8-11.9c-6.7,0-11.8,5-11.8,11.9
		C170.4,268.8,175.4,273.8,182.1,273.8z M215.3,237.7c-2.8,0-5.1-2.4-5.1-5.1c0-2.8,2.3-5.1,5.1-5.1c2.8,0,5.1,2.3,5.1,5.1
		C220.5,235.3,218.1,237.7,215.3,237.7z M211.3,280.5v-37.2h8v37.2H211.3z M228.6,280.5v-54.3h8v54.3H228.6z M288.9,243.3h8.5
		l-11.7,37.2h-7.9l-7.7-25.1l-7.8,25.1h-7.9l-11.7-37.2h8.5l7.2,25.7l7.8-25.7h7.7l7.7,25.7L288.9,243.3z M307.3,237.7
		c-2.8,0-5.1-2.4-5.1-5.1c0-2.8,2.3-5.1,5.1-5.1c2.8,0,5.1,2.3,5.1,5.1C312.5,235.3,310.2,237.7,307.3,237.7z M303.3,280.5v-37.2h8
		v37.2H303.3z M340.2,242.3c8.3,0,14.3,5.7,14.3,15.3v22.9h-8v-22c0-5.7-3.3-8.6-8.3-8.6c-5.3,0-9.5,3.1-9.5,10.7v20h-8v-37.2h8v4.8
		C331.2,244.2,335.2,242.3,340.2,242.3z M392.7,228.4h8v52.1h-8v-5.4c-2.8,3.9-7.2,6.3-13,6.3c-10.1,0-18.5-8.6-18.5-19.6
		c0-11.1,8.4-19.6,18.5-19.6c5.8,0,10.2,2.4,13,6.3V228.4z M380.9,273.8c6.7,0,11.8-5,11.8-11.9c0-6.9-5.1-11.9-11.8-11.9
		c-6.7,0-11.8,5-11.8,11.9C369.1,268.8,374.2,273.8,380.9,273.8z M427.6,281.5c-11.2,0-19.7-8.6-19.7-19.6
		c0-11.1,8.4-19.6,19.7-19.6c7.3,0,13.6,3.8,16.6,9.6l-6.9,4c-1.6-3.5-5.3-5.7-9.8-5.7c-6.6,0-11.5,5-11.5,11.7s5,11.7,11.5,11.7
		c4.5,0,8.1-2.3,9.9-5.7l6.9,3.9C441.3,277.7,434.9,281.5,427.6,281.5z M457.7,253.5c0,6.8,20,2.7,20,16.5c0,7.4-6.5,11.5-14.5,11.5
		c-7.4,0-12.8-3.4-15.2-8.7l6.9-4c1.2,3.4,4.2,5.4,8.3,5.4c3.6,0,6.3-1.2,6.3-4.2c0-6.6-20-2.9-20-16.2c0-7,6-11.4,13.6-11.4
		c6.1,0,11.2,2.8,13.8,7.7l-6.8,3.8c-1.3-2.9-3.9-4.2-7-4.2C460.2,249.6,457.7,250.9,457.7,253.5z M492,253.5c0,6.8,20,2.7,20,16.5
		c0,7.4-6.5,11.5-14.5,11.5c-7.4,0-12.8-3.4-15.2-8.7l6.9-4c1.2,3.4,4.2,5.4,8.3,5.4c3.6,0,6.3-1.2,6.3-4.2c0-6.6-20-2.9-20-16.2
		c0-7,6-11.4,13.6-11.4c6.1,0,11.2,2.8,13.8,7.7l-6.8,3.8c-1.3-2.9-3.9-4.2-7-4.2C494.5,249.6,492,250.9,492,253.5z"/>
</g>
</svg>
