<svg xmlns="http://www.w3.org/2000/svg" xmlns:xlink="http://www.w3.org/1999/xlink" width="128pt" height="128pt" version="1.1" viewBox="0 0 128 128"><g id="surface1"><path style="stroke:none;fill-rule:nonzero;fill:#38b2ac;fill-opacity:1" d="M 64.003906 25.601562 C 46.9375 25.601562 36.273438 34.132812 32.003906 51.199219 C 38.402344 42.667969 45.871094 39.46875 54.402344 41.601562 C 59.273438 42.816406 62.753906 46.347656 66.609375 50.261719 C 72.882812 56.628906 80.144531 64 96.003906 64 C 113.070312 64 123.734375 55.46875 128.003906 38.398438 C 121.605469 46.933594 114.136719 50.132812 105.605469 48 C 100.734375 46.785156 97.257812 43.253906 93.398438 39.339844 C 87.128906 32.972656 79.867188 25.601562 64.003906 25.601562 Z M 32.003906 64 C 14.9375 64 4.273438 72.53125 0.00390625 89.601562 C 6.402344 81.066406 13.871094 77.867188 22.402344 80 C 27.273438 81.214844 30.753906 84.746094 34.609375 88.660156 C 40.882812 95.027344 48.144531 102.398438 64.003906 102.398438 C 81.070312 102.398438 91.734375 93.867188 96.003906 76.800781 C 89.605469 85.332031 82.136719 88.53125 73.605469 86.398438 C 68.734375 85.183594 65.257812 81.652344 61.398438 77.738281 C 55.128906 71.371094 47.867188 64 32.003906 64 Z M 32.003906 64"/></g></svg>