<?xml version="1.0" encoding="UTF-8"?>
<svg xmlns="http://www.w3.org/2000/svg" xmlns:xlink="http://www.w3.org/1999/xlink" width="128px" height="128px" viewBox="0 0 128 128" version="1.1">
<g id="surface1">
<path style="fill-rule:nonzero;fill:rgb(89.411765%,0%,0%);fill-opacity:1;stroke-width:2.12;stroke-linecap:butt;stroke-linejoin:miter;stroke:rgb(100%,100%,100%);stroke-opacity:1;stroke-miterlimit:4;" d="M 3.120758 66.169922 L 1.059265 14.709961 L 33.988831 39.410156 L 33.988831 94.989258 Z M 3.120758 66.169922 " transform="matrix(1.438202,0,0,1.333333,0,0)"/>
<path style="fill-rule:nonzero;fill:rgb(49.803922%,90.588235%,9.803922%);fill-opacity:1;stroke-width:2.12;stroke-linecap:butt;stroke-linejoin:miter;stroke:rgb(100%,100%,100%);stroke-opacity:1;stroke-miterlimit:4;" d="M 33.999695 95.000977 L 83.399475 74.419922 L 87.519745 22.959961 L 33.999695 39.430664 L 33.999695 95.009766 Z M 33.999695 95.000977 " transform="matrix(1.438202,0,0,1.333333,0,0)"/>
<path style="fill-rule:nonzero;fill:rgb(44.705882%,62.352941%,81.176471%);fill-opacity:1;stroke-width:2.12;stroke-linecap:butt;stroke-linejoin:miter;stroke:rgb(100%,100%,100%);stroke-opacity:1;stroke-miterlimit:4;" d="M 1.059265 14.709961 L 33.988831 39.410156 L 87.508881 22.939453 L 50.760529 1.060547 Z M 1.059265 14.709961 " transform="matrix(1.438202,0,0,1.333333,0,0)"/>
<path style="fill-rule:nonzero;fill:rgb(0%,0%,0%);fill-opacity:1;stroke-width:1.25;stroke-linecap:butt;stroke-linejoin:miter;stroke:rgb(100%,100%,100%);stroke-opacity:1;stroke-miterlimit:4;" d="M 50.600281 51.298828 L 3.300018 65.299805 Z M 50.600281 51.298828 L 83.600464 74.299805 Z M 50.600281 51.298828 L 50.600281 1.300781 " transform="matrix(1.438202,0,0,1.333333,0,0)"/>
</g>
</svg>
