<svg
   version="1.1"
   width="128"
   height="128"
   viewBox="0 0 128 128"
   xmlns="http://www.w3.org/2000/svg">
   <g transform="translate(70.743189,65.333415)">
      <path
         style="fill:#664ec6;fill-opacity:1;stroke-width:0.267223"
         d="M -70.743189,-1.3334147 V -65.333415 H -6.7431893 57.256811 V -1.3334147 62.666585 H -6.7431893 -70.743189 Z M -22.64298,22.449467 V 5.7480052 H -6.6095778 9.4238249 V -2.0014731 -9.7509509 H -6.6095778 -22.64298 v -8.2839251 -8.283925 H -6.7431893 9.1566018 v 8.016702 8.016701 h 8.1503132 8.150313 V -26.185189 -42.084981 H -6.7431893 -38.943607 V -1.4670262 39.150928 h 8.150314 8.150313 z M 25.457228,22.71669 V 6.2824521 H 17.306915 9.1566018 V 22.71669 39.150928 h 8.1503132 8.150313 z"
      />
      <path
         style="fill:#faf8ff;fill-opacity:1;stroke-width:0.267223"
         d="M -38.676382,-1.4670262 V -41.817757 H -6.7431893 25.190004 v 15.632568 15.632567 H 17.306915 9.4238249 v -8.016701 -8.016701 H -6.7431893 -22.910204 v 8.551148 8.5511483 H -6.8768009 9.1566018 v 7.4822546 7.4822552 H -6.8768009 -22.910204 V 22.182244 38.883705 h -7.883089 -7.883089 z"
      />
      <path
         style="fill:#faf8ff;fill-opacity:1;stroke-width:0.267223"
         d="M 9.4238249,22.71669 V 6.5496752 h 7.8830901 7.883089 V 22.71669 38.883705 H 17.306915 9.4238249 Z"
      />
   </g>
</svg>
