<svg xmlns="http://www.w3.org/2000/svg" viewBox="0 0 128 128"><defs><linearGradient id="a" x1="8.221" x2="9.771" y1="20.546" y2="12.639" gradientTransform="translate(0 49.109) scale(.87671)" gradientUnits="userSpaceOnUse"><stop offset=".15" stop-color="#0052cc"/><stop offset=".503" stop-color="#0e64de"/><stop offset="1" stop-color="#2684ff"/></linearGradient><linearGradient id="b" x1="11.391" x2="9.84" y1="10.847" y2="18.754" gradientTransform="translate(0 49.109) scale(.87671)" gradientUnits="userSpaceOnUse"><stop offset=".15" stop-color="#0052cc"/><stop offset=".503" stop-color="#0e64de"/><stop offset="1" stop-color="#2684ff"/></linearGradient></defs><path fill="#253858" d="M31.465 53.148h2.484v12.32c0 3.25-1.476 5.52-4.906 5.52-1.29 0-2.297-.215-2.988-.46v-2.36c.754.305 1.668.46 2.578.46 2.11 0 2.832-1.226 2.832-3.003Zm6.984-.949c.977 0 1.668.582 1.668 1.625 0 1.012-.691 1.625-1.668 1.625-.972 0-1.668-.582-1.668-1.625 0-1.043.696-1.625 1.668-1.625Zm-1.195 5.18h2.39v13.488h-2.39Zm8.34 13.488h-2.328V57.38h2.328v2.36c.816-1.594 2.203-2.727 4.91-2.575v2.27c-3.055-.305-4.91.582-4.91 3.464Zm16.078-2.422c-.883 1.778-2.55 2.696-4.688 2.696-3.683 0-5.539-3.036-5.539-7.02 0-3.8 1.95-7.02 5.82-7.02 2.016 0 3.59.891 4.407 2.637v-2.36h2.39v13.49h-2.39Zm-4.059.52c2.14 0 4.028-1.317 4.028-4.32V63.57c0-3.004-1.73-4.324-3.778-4.324-2.672 0-4.058 1.719-4.058 4.844.03 3.281 1.351 4.875 3.808 4.875Zm15.325-2.082-1.512 3.984h-2.801l7.176-17.719h3.144l7.176 17.72h-2.8l-1.512-4.016c-1.637.335-3.051.492-4.5.492-1.414 0-2.832-.188-4.371-.461Zm8.117-2.055L77.37 55.11l-3.68 9.75c1.356.215 2.485.336 3.586.336 1.164-.03 2.364-.152 3.778-.367Zm10.414 6.129c-2.266 0-3.711-1.043-3.711-3.523V51.738h2.39v15.39c0 1.224.817 1.653 1.856 1.653.254 0 .41 0 .691-.027v2.082c-.187.062-.597.121-1.226.121Zm4.75-18.758c.976 0 1.668.582 1.668 1.625 0 1.012-.692 1.625-1.668 1.625-.973 0-1.664-.582-1.664-1.625 0-1.043.691-1.625 1.664-1.625Zm-1.227 5.18h2.39v13.488h-2.39Zm15.324 11.066c-.879 1.778-2.546 2.696-4.687 2.696-3.649 0-5.477-3.036-5.477-7.02 0-3.8 1.922-7.02 5.758-7.02 2.016 0 3.59.891 4.406 2.637v-2.36h2.329v12.263c0 3.953-1.918 6.62-6.86 6.62-2.328 0-3.586-.308-4.941-.738v-2.265c1.511.488 3.117.797 4.816.797 3.461 0 4.656-1.809 4.656-4.325Zm-4.058.52c2.14 0 4.027-1.317 4.027-4.32V63.57c0-3.004-1.73-4.324-3.777-4.324-2.672 0-4.059 1.719-4.059 4.844.031 3.281 1.356 4.875 3.809 4.875ZM128 70.867h-2.39v-8.152c0-2.426-1.008-3.496-3.274-3.496-2.203 0-3.742 1.437-3.742 4.168v7.511h-2.39V57.41h2.39v2.207c.879-1.594 2.515-2.484 4.37-2.484 3.18 0 5.005 2.148 5.005 5.855v7.88Zm0 0"/><path fill="url(#a)" d="M0 54.184c0 3.27 2.645 5.933 5.883 5.933h5.445v5.524h5.883V55.168c0-.508-.41-.953-.91-.953Zm0 0"/><path fill="url(#b)" d="M17.18 71.547c0-3.27-2.645-5.906-5.883-5.906H5.883v-5.524H0v10.477c0 .508.41.953.91.953Zm0 0"/></svg>