<?xml version="1.0" encoding="UTF-8" standalone="no"?>
<svg
   width="128"
   height="128"
   viewBox="0 0 128 128"
   fill="none"
   version="1.1"
   id="svg57"
   sodipodi:docname="jiraalign-plain-wordmark.svg"
   inkscape:version="1.2.1 (9c6d41e410, 2022-07-14)"
   xmlns:inkscape="http://www.inkscape.org/namespaces/inkscape"
   xmlns:sodipodi="http://sodipodi.sourceforge.net/DTD/sodipodi-0.dtd"
   xmlns="http://www.w3.org/2000/svg"
   xmlns:svg="http://www.w3.org/2000/svg">
  <sodipodi:namedview
     id="namedview59"
     pagecolor="#ffffff"
     bordercolor="#666666"
     borderopacity="1.0"
     inkscape:showpageshadow="2"
     inkscape:pageopacity="0.0"
     inkscape:pagecheckerboard="0"
     inkscape:deskcolor="#d1d1d1"
     showgrid="false"
     inkscape:zoom="6.3445883"
     inkscape:cx="60.839251"
     inkscape:cy="52.485675"
     inkscape:window-width="1920"
     inkscape:window-height="947"
     inkscape:window-x="0"
     inkscape:window-y="27"
     inkscape:window-maximized="1"
     inkscape:current-layer="svg57" />
  <path
     id="path18"
     style="fill:#000000;fill-opacity:1;stroke-width:0.876712"
     d="M 87.755859 51.738281 L 87.755859 67.433594 C 87.755859 69.91644 89.203327 70.958984 91.46875 70.958984 C 92.098228 70.958984 92.507896 70.897307 92.697266 70.835938 L 92.697266 68.751953 C 92.414088 68.782553 92.255523 68.78125 92.003906 68.78125 C 90.96588 68.78125 90.148438 68.353035 90.148438 67.126953 L 90.148438 51.738281 L 87.755859 51.738281 z M 38.451172 52.199219 C 37.475743 52.199219 36.783203 52.782054 36.783203 53.824219 C 36.783203 54.866392 37.475743 55.447266 38.451172 55.447266 C 39.426601 55.447266 40.117188 54.835733 40.117188 53.824219 C 40.117187 52.782054 39.426601 52.199219 38.451172 52.199219 z M 96.220703 52.199219 C 95.2458 52.199219 94.552734 52.782054 94.552734 53.824219 C 94.552734 54.866392 95.2458 55.447266 96.220703 55.447266 C 97.196483 55.447266 97.888672 54.835733 97.888672 53.824219 C 97.888672 52.782054 97.196483 52.199219 96.220703 52.199219 z M 31.464844 53.148438 L 31.464844 65.625 C 31.464844 67.402795 30.740952 68.628906 28.632812 68.628906 C 27.720331 68.628906 26.807934 68.474467 26.052734 68.167969 L 26.052734 70.529297 C 26.744986 70.774513 27.752887 70.988281 29.042969 70.988281 C 32.472663 70.988281 33.951172 68.719795 33.951172 65.470703 L 33.951172 53.148438 L 31.464844 53.148438 z M 75.798828 53.148438 L 68.625 70.865234 L 71.425781 70.865234 L 72.935547 66.880859 C 74.477331 67.15676 75.89457 67.341797 77.310547 67.341797 C 78.75791 67.341797 80.172387 67.188746 81.808594 66.851562 L 83.320312 70.865234 L 86.121094 70.865234 L 78.945312 53.148438 L 75.798828 53.148438 z M 77.373047 55.111328 L 81.054688 64.828125 C 79.638711 65.042657 78.443483 65.164633 77.279297 65.195312 C 76.177972 65.195313 75.044435 65.071954 73.691406 64.857422 L 77.373047 55.111328 z M 57.265625 57.103516 C 53.395383 57.103516 51.445312 60.322152 51.445312 64.123047 C 51.445312 68.107788 53.302977 71.142578 56.984375 71.142578 C 59.12399 71.142578 60.790868 70.223108 61.671875 68.445312 L 61.671875 70.865234 L 64.0625 70.865234 L 64.0625 57.378906 L 61.671875 57.378906 L 61.671875 59.740234 C 60.853728 57.993124 59.279344 57.103516 57.265625 57.103516 z M 105.91211 57.103516 C 102.07299 57.103516 100.1543 60.322152 100.1543 64.123047 C 100.1543 68.107788 101.97828 71.142578 105.62891 71.142578 C 107.76808 71.142578 109.43532 70.223108 110.31641 68.445312 L 110.31641 69.732422 C 110.31641 72.245866 109.12141 74.054688 105.66016 74.054688 C 103.96109 74.054688 102.35627 73.748245 100.8457 73.257812 L 100.8457 75.525391 C 102.19934 75.95454 103.45662 76.261719 105.78516 76.261719 C 110.72543 76.261719 112.64453 73.594769 112.64453 69.640625 L 112.64453 57.378906 L 110.31641 57.378906 L 110.31641 59.740234 C 109.49844 57.993124 107.92504 57.103516 105.91211 57.103516 z M 122.9668 57.134766 C 121.10992 57.134766 119.4729 58.023238 118.5918 59.617188 L 118.5918 57.410156 L 116.20117 57.410156 L 116.20117 70.896484 L 118.5918 70.896484 L 118.5918 63.386719 C 118.5918 60.658655 120.13364 59.21875 122.33594 59.21875 C 124.60136 59.21875 125.60938 60.291325 125.60938 62.712891 L 125.60938 70.865234 L 127.96875 70.865234 L 127.96875 62.988281 C 127.96875 59.279441 126.14487 57.134766 122.9668 57.134766 z M 50.009766 57.150391 C 47.624951 57.15455 46.360763 58.245989 45.59375 59.740234 L 45.59375 57.378906 L 43.263672 57.378906 L 43.263672 70.865234 L 45.59375 70.865234 L 45.59375 62.896484 C 45.59375 60.01526 47.44977 59.127095 50.501953 59.433594 L 50.501953 57.164062 C 50.332825 57.154484 50.168753 57.150113 50.009766 57.150391 z M 37.253906 57.378906 L 37.253906 70.865234 L 39.646484 70.865234 L 39.646484 57.378906 L 37.253906 57.378906 z M 94.994141 57.378906 L 94.994141 70.865234 L 97.384766 70.865234 L 97.384766 57.378906 L 94.994141 57.378906 z M 57.865234 59.248047 C 59.910426 59.248047 61.640625 60.566437 61.640625 63.570312 L 61.640625 64.644531 C 61.640625 67.648408 59.752896 68.964844 57.613281 68.964844 C 55.159016 68.964844 53.836157 67.371575 53.804688 64.091797 C 53.804688 60.965269 55.190738 59.248047 57.865234 59.248047 z M 106.50977 59.248047 C 108.55513 59.248047 110.28516 60.566437 110.28516 63.570312 L 110.28516 64.644531 C 110.28516 67.648408 108.39787 68.964844 106.25781 68.964844 C 103.8039 68.964844 102.48277 67.371575 102.45117 64.091797 C 102.45117 60.965269 103.8358 59.248047 106.50977 59.248047 z " />
  <g
     id="Icon"
     transform="matrix(0.87671233,0,0,0.87671233,0,49.10904)"
     style="fill:#000000;fill-opacity:1">
    <path
       id="Vector"
       d="m 0,5.78784 c 0,3.72909 3.01475,6.77026 6.71141,6.77026 h 6.20899 v 6.2997 h 6.7114 V 6.91019 c 0,-0.57928 -0.4666,-1.08614 -1.0408,-1.08614 z"
       fill="url(#paint0_linear)"
       style="fill:#000000;fill-opacity:1" />
    <path
       id="Vector_2"
       d="m 19.5959,25.5918 c 0,-3.7291 -3.0148,-6.7341 -6.7114,-6.7341 H 6.71141 V 12.5581 H 0 v 11.9476 c 0,0.5793 0.466568,1.0861 1.04081,1.0861 z"
       fill="url(#paint1_linear)"
       style="fill:#000000;fill-opacity:1" />
  </g>
  <defs
     id="defs55">
    <linearGradient
       id="paint0_linear"
       x1="8.2210398"
       y1="20.545799"
       x2="9.7713699"
       y2="12.6394"
       gradientUnits="userSpaceOnUse">
      <stop
         offset="0.15"
         stop-color="#0052CC"
         id="stop41" />
      <stop
         offset="0.5032"
         stop-color="#0E64DE"
         id="stop43" />
      <stop
         offset="1"
         stop-color="#2684FF"
         id="stop45" />
    </linearGradient>
    <linearGradient
       id="paint1_linear"
       x1="11.3908"
       y1="10.8472"
       x2="9.8403597"
       y2="18.753599"
       gradientUnits="userSpaceOnUse">
      <stop
         offset="0.15"
         stop-color="#0052CC"
         id="stop48" />
      <stop
         offset="0.5032"
         stop-color="#0E64DE"
         id="stop50" />
      <stop
         offset="1"
         stop-color="#2684FF"
         id="stop52" />
    </linearGradient>
  </defs>
</svg>
