<svg xmlns="http://www.w3.org/2000/svg" fill="none" viewBox="0 0 128 128"><path fill="#000" d="M87.756 51.738v15.696c0 2.482 1.447 3.525 3.713 3.525.63 0 1.039-.062 1.228-.123v-2.084c-.283.03-.441.03-.693.03-1.038 0-1.856-.429-1.856-1.655V51.738h-2.392zM38.45 52.2c-.975 0-1.668.583-1.668 1.625s.693 1.623 1.668 1.623c.976 0 1.666-.611 1.666-1.623 0-1.042-.69-1.625-1.666-1.625zm57.77 0c-.975 0-1.668.583-1.668 1.625s.693 1.623 1.668 1.623 1.668-.611 1.668-1.623c0-1.042-.693-1.625-1.668-1.625zm-64.756.95v12.476c0 1.778-.724 3.004-2.832 3.004-.913 0-1.825-.155-2.58-.461v2.361c.692.246 1.7.46 2.99.46 3.43 0 4.908-2.27 4.908-5.518V53.148h-2.486zm44.334 0-7.174 17.716h2.8l1.51-3.984c1.542.276 2.96.46 4.376.46 1.447 0 2.861-.152 4.498-.49l1.511 4.014h2.801l-7.176-17.717H75.8zM0 54.183c0 3.269 2.644 5.935 5.885 5.935h5.443v5.524h5.883V55.168c0-.508-.409-.953-.912-.953L0 54.184zm11.328 11.459H5.885v-5.524H0v10.475c0 .508.409.95.912.95H17.18c0-3.258-2.625-5.884-5.852-5.901zM77.373 55.11l3.682 9.717c-1.416.215-2.612.337-3.776.367-1.101 0-2.235-.123-3.588-.338l3.682-9.746zm-20.107 1.993c-3.87 0-5.82 3.218-5.82 7.019 0 3.985 1.857 7.02 5.538 7.02 2.14 0 3.807-.92 4.688-2.698v2.42h2.39V57.38h-2.39v2.361c-.818-1.747-2.393-2.636-4.406-2.636zm48.646 0c-3.839 0-5.758 3.218-5.758 7.019 0 3.985 1.824 7.02 5.475 7.02 2.14 0 3.806-.92 4.687-2.698v1.287c0 2.514-1.195 4.323-4.656 4.323-1.699 0-3.304-.307-4.814-.797v2.267c1.353.43 2.61.737 4.94.737 4.94 0 6.859-2.667 6.859-6.621V57.379h-2.329v2.361c-.818-1.747-2.391-2.636-4.404-2.636zm17.055.03c-1.857 0-3.494.89-4.375 2.483V57.41h-2.39v13.486h2.39v-7.51c0-2.727 1.542-4.167 3.744-4.167 2.265 0 3.273 1.072 3.273 3.494v8.152h2.36v-7.877c0-3.709-1.824-5.853-5.002-5.853zm-72.957.016c-2.385.005-3.65 1.096-4.416 2.59V57.38h-2.33v13.486h2.33v-7.969c0-2.88 1.856-3.769 4.908-3.462v-2.27a8.444 8.444 0 0 0-.492-.014zm-12.756.229v13.486h2.392V57.38h-2.392zm57.74 0v13.486h2.39V57.38h-2.39zm-37.129 1.869c2.045 0 3.776 1.318 3.776 4.322v1.075c0 3.003-1.888 4.32-4.028 4.32-2.454 0-3.777-1.593-3.808-4.873 0-3.127 1.386-4.844 4.06-4.844zm48.645 0c2.045 0 3.775 1.318 3.775 4.322v1.075c0 3.003-1.887 4.32-4.027 4.32-2.454 0-3.775-1.593-3.807-4.873 0-3.127 1.385-4.844 4.059-4.844z"/></svg>