<svg xmlns="http://www.w3.org/2000/svg" viewBox="0 0 128 128"><path d="M87.758 51.738v15.696c0 2.48 1.445 3.527 3.71 3.527.63 0 1.04-.063 1.227-.125v-2.082c-.28.027-.437.027-.691.027-1.04 0-1.856-.43-1.856-1.652v-15.39Zm-49.309.461c-.972 0-1.668.582-1.668 1.625 0 1.043.696 1.625 1.668 1.625.977 0 1.668-.613 1.668-1.625 0-1.043-.691-1.625-1.668-1.625Zm57.77 0c-.973 0-1.668.582-1.668 1.625 0 1.043.695 1.625 1.668 1.625.976 0 1.668-.613 1.668-1.625 0-1.043-.692-1.625-1.668-1.625Zm-64.754.95v12.476c0 1.777-.727 3.004-2.832 3.004-.914 0-1.824-.152-2.582-.461v2.363c.691.246 1.703.457 2.992.457 3.43 0 4.906-2.27 4.906-5.515V53.148Zm44.332 0-7.172 17.718h2.8l1.509-3.984c1.543.273 2.96.46 4.375.46 1.449 0 2.863-.152 4.5-.491l1.511 4.015h2.801l-7.176-17.719ZM0 54.183c0 3.27 2.645 5.933 5.887 5.933h5.441v5.524h5.883V55.168c0-.508-.41-.953-.91-.953ZM11.328 65.64H5.887v-5.524H0v10.477c0 .508.41.949.91.949h16.27a5.894 5.894 0 0 0-5.852-5.902Zm66.043-10.532 3.684 9.72c-1.414.214-2.614.335-3.778.366-1.097 0-2.234-.125-3.586-.34Zm-20.105 1.993c-3.871 0-5.82 3.218-5.82 7.02 0 3.983 1.859 7.019 5.538 7.019 2.141 0 3.805-.918 4.688-2.696v2.418h2.39V57.38h-2.39v2.363c-.817-1.75-2.395-2.637-4.406-2.637Zm48.644 0c-3.836 0-5.758 3.218-5.758 7.02 0 3.983 1.825 7.019 5.477 7.019 2.14 0 3.805-.918 4.687-2.696v1.285c0 2.516-1.195 4.325-4.656 4.325-1.7 0-3.305-.309-4.812-.797v2.265c1.351.43 2.609.739 4.937.739 4.942 0 6.86-2.668 6.86-6.621V57.379h-2.329v2.36c-.82-1.747-2.39-2.634-4.406-2.634Zm17.059.03c-1.86 0-3.496.891-4.375 2.485V57.41h-2.39v13.485h2.39v-7.508c0-2.727 1.539-4.168 3.742-4.168 2.266 0 3.273 1.07 3.273 3.496v8.148h2.36v-7.875c0-3.71-1.824-5.851-5-5.851Zm-72.957.016c-2.387.004-3.653 1.098-4.418 2.59v-2.36h-2.328v13.49h2.328v-7.97c0-2.882 1.855-3.77 4.91-3.464v-2.27a10.347 10.347 0 0 0-.492-.012Zm-12.758.23v13.485h2.39V57.38Zm57.738 0v13.485h2.39V57.38Zm-37.129 1.868c2.047 0 3.778 1.32 3.778 4.324v1.075c0 3.003-1.887 4.32-4.028 4.32-2.453 0-3.777-1.594-3.808-4.875 0-3.125 1.386-4.844 4.058-4.844Zm48.649 0c2.043 0 3.773 1.32 3.773 4.324v1.075c0 3.003-1.887 4.32-4.027 4.32-2.453 0-3.774-1.594-3.809-4.875 0-3.125 1.387-4.844 4.063-4.844Zm0 0"/></svg>