<svg xmlns="http://www.w3.org/2000/svg" viewBox="0 0 128 128"><path d="M0 53.333v21.334h5.973V53.333Zm9.813 0v5.12h5.974v-5.12zm9.814 0v21.334h10.216c3.308 0 5.997-2.962 5.997-6.614 0-3.652-2.689-6.613-5.997-6.613H25.61v-8.107ZM9.813 61.44v13.227h5.974V61.44Zm15.797 4.693h2.538c.938 0 1.695.769 1.695 1.707 0 .938-.757 1.693-1.696 1.693H25.61Z"/><path fill="#e74a45" d="M44.384 53.333c-3.3 0-5.983 2.962-5.983 6.614v8.106c0 3.652 2.682 6.614 5.983 6.614h14.913c3.3 0 5.983-2.962 5.983-6.614 0-3.652-2.682-6.613-5.983-6.613h-8.103v4.693h6.41c.937 0 1.693.769 1.693 1.707a1.69 1.69 0 0 1-1.693 1.693H46.077a1.69 1.69 0 0 1-1.693-1.64V60.08c.042-.9.783-1.613 1.693-1.613h5.117v.013h13.22v-5.147H48.607zm23.883 0v5.144h19.256c.904 0 1.639.712 1.68 1.612v7.808a1.683 1.683 0 0 1-1.68 1.64H74.196v-8.089h-5.93v13.219h20.937c3.279 0 5.943-2.96 5.943-6.61v-8.101c0-3.65-2.664-6.61-5.943-6.61h-6.405v-.013zm26.878 0L105.812 64 95.147 74.667h8.293l8.133-8.134 8.134 8.134H128L117.333 64 128 53.333h-8.293l-8.134 8.134-8.133-8.134z"/></svg>
