<?xml version="1.0" encoding="utf-8"?>
<!-- Generator: Adobe Illustrator 15.0.0, SVG Export Plug-In . SVG Version: 6.00 Build 0)  -->
<!DOCTYPE svg PUBLIC "-//W3C//DTD SVG 1.1//EN" "http://www.w3.org/Graphics/SVG/1.1/DTD/svg11.dtd" [
	<!ENTITY ns_flows "http://ns.adobe.com/Flows/1.0/">
	<!ENTITY ns_extend "http://ns.adobe.com/Extensibility/1.0/">
	<!ENTITY ns_ai "http://ns.adobe.com/AdobeIllustrator/10.0/">
	<!ENTITY ns_graphs "http://ns.adobe.com/Graphs/1.0/">
]>
<svg version="1.1" id="Layer_1" xmlns:x="&ns_extend;" xmlns:i="&ns_ai;" xmlns:graph="&ns_graphs;"
	 xmlns="http://www.w3.org/2000/svg" xmlns:xlink="http://www.w3.org/1999/xlink" xmlns:a="http://ns.adobe.com/AdobeSVGViewerExtensions/3.0/"
	 x="0px" y="0px" width="180px" height="180px" viewBox="0 0 180 180" enable-background="new 0 0 180 180" xml:space="preserve">
<g>
	<g>
		<g>
			<g>
				<path fill="#72CADA" d="M28.911,94.296c-5.494,0.042-10.148-3.232-11.864-8.341c-0.066-0.198-0.123-0.391-0.178-0.583
					c-1.87-6.544,1.756-13.391,8.255-15.582l104.24-34.923c1.267-0.363,2.543-0.549,3.807-0.557
					c5.641-0.044,10.422,3.303,12.18,8.521l0.156,0.504c1.95,6.815-2.895,12.899-8.699,14.85
					c-0.004,0.003-1.061,0.36-103.662,35.391C31.757,94.046,30.334,94.284,28.911,94.296L28.911,94.296z"/>
			</g>
			<g>
				<path fill="#DF1766" d="M46.286,145.561c-5.537,0.04-10.207-3.188-11.903-8.225c-0.064-0.192-0.125-0.385-0.18-0.579
					c-1.896-6.622,1.726-13.54,8.247-15.735L146.693,85.78c1.347-0.45,2.738-0.681,4.137-0.693c5.552-0.042,10.43,3.35,12.15,8.444
					l0.16,0.529c1.008,3.521,0.412,7.479-1.59,10.602c-1.492,2.321-6.197,4.365-6.197,4.365l-104.64,35.779
					c-1.458,0.487-2.945,0.744-4.428,0.757V145.561z"/>
			</g>
			<g>
				<path fill="#E8A725" d="M133.061,145.784c-5.56,0.043-10.482-3.465-12.254-8.724L86.017,33.721l-0.174-0.58
					c-1.885-6.59,1.74-13.464,8.236-15.653c1.3-0.438,2.644-0.665,3.997-0.678c2.01-0.015,3.955,0.438,5.787,1.344
					c3.062,1.524,5.354,4.149,6.449,7.392L145.1,128.876l0.101,0.332c1.954,6.842-1.663,13.72-8.16,15.91
					C135.753,145.547,134.413,145.771,133.061,145.784L133.061,145.784z"/>
			</g>
			<g>
				<path fill="#3FB890" d="M81.349,163.189c-5.56,0.043-10.487-3.465-12.26-8.729L34.308,51.125c-0.06-0.19-0.12-0.38-0.178-0.575
					c-1.88-6.588,1.734-13.463,8.229-15.655c1.295-0.43,2.634-0.656,3.985-0.668c5.561-0.044,10.485,3.463,12.257,8.724
					l34.781,103.339c0.065,0.18,0.124,0.379,0.177,0.568c1.885,6.594-1.731,13.473-8.236,15.664
					c-1.292,0.432-2.629,0.656-3.978,0.667L81.349,163.189L81.349,163.189z"/>
			</g>
			<path fill="#CC2128" d="M115.91,122.512l24.258-8.294l-7.93-23.549l-24.286,8.207L115.91,122.512z"/>
			<path fill="#361538" d="M64.277,140.166l24.256-8.293l-7.99-23.73l-24.28,8.21L64.277,140.166z"/>
			<path fill="#66873A" d="M98.641,71.216l24.26-8.283l-7.838-23.274l-24.304,8.143L98.641,71.216z"/>
			<path fill="#1E937D" d="M47.001,88.846l24.26-8.283l-7.933-23.571l-24.305,8.142L47.001,88.846L47.001,88.846z"/>
		</g>
	</g>
</g>
</svg>
