<?xml version="1.0" encoding="utf-8"?>
<!-- Generator: Adobe Illustrator 15.0.0, SVG Export Plug-In . SVG Version: 6.00 Build 0)  -->
<!DOCTYPE svg PUBLIC "-//W3C//DTD SVG 1.1//EN" "http://www.w3.org/Graphics/SVG/1.1/DTD/svg11.dtd" [
	<!ENTITY ns_flows "http://ns.adobe.com/Flows/1.0/">
	<!ENTITY ns_extend "http://ns.adobe.com/Extensibility/1.0/">
	<!ENTITY ns_ai "http://ns.adobe.com/AdobeIllustrator/10.0/">
	<!ENTITY ns_graphs "http://ns.adobe.com/Graphs/1.0/">
]>
<svg version="1.1" id="Layer_1" xmlns:x="&ns_extend;" xmlns:i="&ns_ai;" xmlns:graph="&ns_graphs;"
	 xmlns="http://www.w3.org/2000/svg" xmlns:xlink="http://www.w3.org/1999/xlink" xmlns:a="http://ns.adobe.com/AdobeSVGViewerExtensions/3.0/"
	 x="0px" y="0px" width="180px" height="180px" viewBox="0 0 180 180" enable-background="new 0 0 180 180" xml:space="preserve">
<g>
	
		<rect x="78.967" y="78.487" transform="matrix(-0.3176 -0.9482 0.9482 -0.3176 33.3017 203.9149)" fill="#443642" width="22.115" height="22.976"/>
	<path fill="#443642" d="M164.726,67.564c-16.809-56.025-41.087-69.098-97.112-52.29c-56.025,16.809-69.098,41.086-52.29,97.111
		c16.809,56.025,41.087,69.099,97.111,52.289C168.462,147.867,181.534,123.589,164.726,67.564z M136.389,103.936l-10.565,3.537
		l3.662,10.93c1.482,4.427-0.903,9.217-5.33,10.698c-0.962,0.324-1.942,0.463-2.9,0.436c-3.453-0.088-6.637-2.302-7.797-5.766
		l-3.66-10.931l-21.786,7.295l3.661,10.933c1.482,4.425-0.903,9.216-5.33,10.698c-0.963,0.32-1.942,0.461-2.901,0.436
		c-3.451-0.09-6.635-2.303-7.796-5.766l-3.662-10.933l-10.565,3.539c-0.963,0.321-1.942,0.461-2.902,0.436
		c-3.451-0.089-6.635-2.303-7.796-5.766c-1.482-4.427,0.905-9.216,5.33-10.698l10.565-3.537l-7.023-20.97l-10.564,3.538
		c-0.962,0.32-1.943,0.461-2.902,0.436c-3.45-0.09-6.635-2.304-7.794-5.766c-1.482-4.427,0.903-9.216,5.33-10.699l10.562-3.537
		l-3.661-10.932c-1.482-4.425,0.904-9.214,5.331-10.698c4.427-1.481,9.216,0.905,10.696,5.331l3.662,10.932l21.786-7.296
		l-3.662-10.931c-1.482-4.427,0.905-9.216,5.33-10.699c4.427-1.482,9.217,0.906,10.699,5.331l3.661,10.932l10.563-3.539
		c4.429-1.481,9.217,0.905,10.699,5.331c1.481,4.426-0.904,9.215-5.33,10.698l-10.563,3.537l7.021,20.969l10.566-3.538
		c4.426-1.481,9.216,0.905,10.697,5.331C143.202,97.662,140.815,102.452,136.389,103.936z"/>
</g>
</svg>
