<svg xmlns="http://www.w3.org/2000/svg" viewBox="0 0 128 128"><g fill="#2d333a"><path d="M58.17 56.11c1.12.47 1.2.83.33 2.44s-1.12 1.75-2.22 1.32a13 13 0 00-4.29-1c-1.87 0-3.11.65-3.11 1.63 0 3.24 10.72 1.49 10.72 8.41 0 3.48-3.09 5.8-7.73 5.8a18.71 18.71 0 01-7.53-1.81c-1-.51-1.1-.81-.2-2.46.77-1.45 1-1.61 2.14-1.16a16.18 16.18 0 005.51 1.32c1.71 0 2.85-.67 2.85-1.65 0-3.14-10.9-1.65-10.9-8.35 0-3.56 3.07-5.94 7.67-5.94a18.71 18.71 0 016.76 1.45zM66.82 47.9v25.78a1 1 0 01-1 .81H63a1 1 0 01-1-.81V47.9c0-1.28.37-1.4 2.44-1.4 2.3 0 2.38.16 2.38 1.4zM86.78 62.4v11.1a1 1 0 01-1 1H83a1 1 0 01-1-1.06v-1.2a8 8 0 01-5.82 2.46c-4.19 0-7-2.34-7-5.84 0-3.71 3.17-6.21 7.93-6.23a13.19 13.19 0 014.8.85V62.2c0-2-1.67-3.26-4.5-3.26a9.41 9.41 0 00-4.25 1.24c-1 .55-1.24.51-2.32-1s-1-1.85 0-2.48a13.92 13.92 0 017-2c5.5-.04 8.94 2.83 8.94 7.7zm-12.94 6.43c0 1.32 1.16 2.2 2.91 2.2a6.12 6.12 0 005.15-2.65v-1.74a11.18 11.18 0 00-3.7-.65c-2.61.01-4.36 1.2-4.36 2.84zM105.82 56.15c1 .57 1.06.88-.06 2.55s-1.24 1.67-2.36 1.12a8.22 8.22 0 00-3.34-.81c-3.52 0-5.86 2.24-5.86 5.62a5.55 5.55 0 005.86 5.88 8.86 8.86 0 003.74-1c1-.57 1.24-.53 2.32 1s1 1.75.08 2.34a12.2 12.2 0 01-6.2 1.85c-6.51 0-10.86-4-10.86-10.06s4.35-10 10.9-10a12.73 12.73 0 015.78 1.51zM127.06 72c.81 1 .49 1.36-1.55 2.06s-2.36.69-3.09-.24l-5.82-7.51-2.6 2.5v4.87a1 1 0 01-1 .81h-2.81a1 1 0 01-1-.81V47.9c0-1.28.37-1.4 2.44-1.4 2.36 0 2.44.16 2.44 1.4v14.66l8-7.39c.87-.81 1.36-.75 2.93.26 1.73 1.08 1.85 1.38 1 2.16l-6 5.58zM15.27 62.75l1.54 4.45 4.79-1.55-1.55-4.44-4.78 1.54z"/><path d="M15.27 62.75l1.54 4.45 4.79-1.55-1.55-4.44-4.78 1.54z"/><path d="M34.84 59.45c-3.69-11.89-9-14.66-21.33-11.09S-1.66 57.07 2 69s9 14.66 21.33 11.09 15.2-8.75 11.51-20.64zm-6.22 7.72l-2.32.75.8 2.32a1.78 1.78 0 01-1.17 2.27 1.91 1.91 0 01-.64.09 1.85 1.85 0 01-1.71-1.22l-.8-2.32L18 70.6l.8 2.32a1.78 1.78 0 01-1.17 2.27 1.91 1.91 0 01-.64.09 1.85 1.85 0 01-1.71-1.22l-.8-2.32-2.32.75a1.91 1.91 0 01-.64.09 1.85 1.85 0 01-1.72-1.22 1.78 1.78 0 011.2-2.27l2.32-.75-1.54-4.45-2.32.75a1.91 1.91 0 01-.64.09 1.85 1.85 0 01-1.71-1.22 1.78 1.78 0 011.17-2.27l2.32-.75-.8-2.32a1.78 1.78 0 011.17-2.27 1.87 1.87 0 012.32 1.1l.8 2.32 4.78-1.55-.8-2.32a1.78 1.78 0 011.17-2.27 1.87 1.87 0 012.35 1.13l.8 2.32 2.32-.75A1.87 1.87 0 0127.07 57a1.78 1.78 0 01-1.17 2.27l-2.32.75 1.54 4.45 2.32-.75a1.87 1.87 0 012.35 1.13 1.78 1.78 0 01-1.17 2.32z"/></g></svg>