<svg xmlns="http://www.w3.org/2000/svg" width="128" height="128" viewBox="0 0 128 128"><path d="M27.15 80.766c0 7.351-5.994 13.355-13.345 13.355C6.454 94.12.45 88.117.45 80.766c0-7.351 6.004-13.355 13.355-13.355H27.15zm0 0M33.88 80.766c0-7.351 6.003-13.355 13.354-13.355 7.351 0 13.355 6.004 13.355 13.355v33.43c0 7.35-6.004 13.354-13.355 13.354-7.351 0-13.355-6.004-13.355-13.355v-33.43zm0 0M47.234 27.15c-7.351 0-13.355-5.994-13.355-13.345C33.88 6.454 39.883.45 47.234.45c7.351 0 13.355 6.004 13.355 13.355V27.15zm0 0M47.234 33.88c7.351 0 13.355 6.003 13.355 13.354 0 7.351-6.004 13.355-13.355 13.355h-33.43C6.455 60.589.45 54.585.45 47.234c0-7.351 6.004-13.355 13.355-13.355h33.43zm0 0M100.85 47.234c0-7.351 5.994-13.355 13.345-13.355 7.351 0 13.355 6.004 13.355 13.355 0 7.351-6.004 13.355-13.355 13.355H100.85zm0 0M94.12 47.234c0 7.351-6.003 13.355-13.354 13.355-7.351 0-13.355-6.004-13.355-13.355v-33.43C67.411 6.455 73.415.45 80.766.45c7.351 0 13.355 6.004 13.355 13.355zm0 0M80.766 100.85c7.351 0 13.355 5.994 13.355 13.345 0 7.351-6.004 13.355-13.355 13.355-7.351 0-13.355-6.004-13.355-13.355V100.85zm0 0M80.766 94.12c-7.351 0-13.355-6.003-13.355-13.354 0-7.351 6.004-13.355 13.355-13.355h33.43c7.35 0 13.354 6.004 13.354 13.355 0 7.351-6.004 13.355-13.355 13.355zm0 0"/></svg>

