<svg version="1.2" baseProfile="tiny-ps" xmlns="http://www.w3.org/2000/svg" viewBox="0 0 1625 368" width="1625" height="368">
	<title>logo-blue-svg</title>
	<defs>
		<clipPath clipPathUnits="userSpaceOnUse" id="cp1">
			<path d="M0 0L1624.47 0L1624.47 367.11L0 367.11L0 0Z" />
		</clipPath>
	</defs>
	<style>
		tspan { white-space:pre }
		.shp0 { fill: #29b5e8 } 
	</style>
	<g id="HOMEPAGE">
		<g id="Snowflake-Homepage-platform-alt-3-Copy">
			<g id="Components-/-Navigation-/-Main">
				<g id="Logo-/-Snowflake-Blue">
					<g id="Layer">
						<g id="Mask">
						</g>
						<g id="Clip-Path: Fill-1" clip-path="url(#cp1)">
							<path id="Fill-1" fill-rule="evenodd" class="shp0" d="M1004.87 114.87C1008.49 116.41 1010.68 119.92 1010.7 123.62C1010.7 124.78 1010.46 125.93 1010.02 127.08L964.85 247.54L964.85 247.58C964.11 249.37 962.92 250.97 961.38 252.14C960.72 252.63 959.92 253.13 958.93 253.51C957.99 253.87 956.88 254.09 955.72 254.09L954.52 254.09C952.82 253.84 951.22 253.19 949.79 252.12C948.44 251.12 947.28 249.7 946.61 247.89L946.58 247.89L917.8 180.05L889.05 248.17L888.93 248.26C888.23 250.09 886.95 251.51 885.52 252.46C883.99 253.44 882.28 254.09 880.44 254.09C879 254.09 877.92 253.7 877.11 253.44C876.62 253.35 876.13 253.19 875.74 252.95C875.39 252.73 875.16 252.53 875.01 252.39C874.2 251.95 873.42 251.42 872.89 250.8C872.15 249.92 871.65 249.03 871.3 248.12L871.3 248.08L825.84 127.08L825.85 127.08C825.4 125.93 825.16 124.77 825.16 123.6C825.18 119.88 827.28 116.46 830.73 114.87L830.77 114.83L830.82 114.83C831.99 114.35 833.23 114.1 834.45 114.1C836.36 114.11 838.22 114.67 839.8 115.68C841.36 116.67 842.68 118.17 843.32 120.1L843.35 120.1L880.31 219.78L908.7 152.89L908.72 152.86C909.51 150.99 910.92 149.56 912.48 148.56C914.07 147.58 915.87 146.98 917.8 146.98C919.78 146.98 921.67 147.54 923.3 148.54C924.92 149.55 926.35 150.99 927.14 152.86L927.19 152.89L955.52 219.74L992.28 120.01L992.28 119.96C993.06 118.12 994.42 116.65 996.03 115.65C997.6 114.67 999.41 114.11 1001.29 114.1C1002.45 114.1 1003.66 114.35 1004.76 114.83C1004.8 114.83 1004.82 114.84 1004.82 114.84L1004.87 114.87ZM816.37 183.95C816.34 202.96 808.96 220.48 796.8 233.26C784.73 246.02 767.88 254.09 749.14 254.09C730.55 254.09 713.67 246.02 701.56 233.26C689.43 220.48 681.92 202.96 681.92 183.95C681.92 164.94 689.43 147.4 701.56 134.62C713.67 121.87 730.55 113.81 749.14 113.81C767.88 113.81 784.73 121.87 796.8 134.62C808.96 147.4 816.34 164.94 816.37 183.95ZM782.79 147.58C773.98 138.27 762.06 132.58 749.11 132.58C736.16 132.58 724.21 138.27 715.42 147.58C706.65 156.87 701.14 169.74 701.14 183.95C701.14 198.15 706.65 210.89 715.42 220.13C724.21 229.4 736.16 235 749.11 235C762.06 235 774.03 229.4 782.79 220.13C791.54 210.89 797.05 198.15 797.05 183.95C797.05 169.74 791.54 156.87 782.79 147.58ZM605.39 114.05C637.5 114.1 663.47 140.07 663.47 171.58L663.47 244.58C663.47 247.25 662.38 249.72 660.58 251.41C658.82 253.1 656.4 254.09 653.83 254.09C651.29 254.09 648.87 253.1 647.09 251.41C645.35 249.72 644.2 247.25 644.2 244.58L644.2 171.58C644.2 161 639.93 151.41 632.9 144.44C625.89 137.46 616.22 133.14 605.39 133.14C594.73 133.14 585.09 137.46 578.06 144.44C570.98 151.43 566.56 161.05 566.28 171.68L566.28 246.02L566.2 246.37C566.06 246.91 565.89 247.62 565.61 248.36C565.34 248.99 564.91 249.66 564.4 250.31C564.37 250.36 564.33 250.4 564.28 250.42C564.16 250.52 564.13 250.65 564.03 250.75L564 250.74C563.18 251.82 562.15 252.66 561.04 253.19C559.72 253.8 558.32 254.09 556.94 254.09L554.86 254.09L554.48 253.97C551.81 253.2 549.66 251.47 548.35 249.18C548.08 248.74 547.81 248.29 547.71 247.88L547.69 247.82L547.3 247.43L547.3 123.62C547.3 121.06 548.31 118.65 550.01 116.91C551.73 115.15 554.2 114.05 556.94 114.05C559.58 114.05 562 115.21 563.63 116.93C565.31 118.68 566.27 121.06 566.28 123.62L566.28 129.17C576.56 119.88 590.32 114.05 605.39 114.05ZM1575.25 179.43L1575.25 180.37C1575.25 183.02 1574.06 185.39 1572.25 186.96C1570.45 188.53 1568.12 189.35 1565.6 189.38L1457.59 189.38C1460.34 215.5 1481.38 234.8 1506.51 235L1512.88 235C1521.19 235.03 1529.29 232.18 1536.41 227.47C1543.55 222.8 1549.72 216.28 1554.06 209.1C1554.95 207.57 1556.24 206.4 1557.63 205.69C1559.06 204.91 1560.59 204.56 1562.14 204.56C1563.85 204.56 1565.54 205 1567.02 205.89L1567.13 205.94L1567.25 206.02C1569.95 207.99 1571.65 211 1571.65 214.3C1571.65 215.97 1571.21 217.68 1570.28 219.23L1570.25 219.29L1570.22 219.31C1564.18 228.83 1555.96 237.51 1546.19 243.8C1536.4 250.1 1525.05 254.09 1512.88 254.09L1506.4 254.09C1487.45 253.96 1470.31 246.02 1457.96 233.33C1445.64 220.68 1438.05 203.31 1438.05 184.21C1438.05 164.8 1445.71 147.17 1458.13 134.42C1470.55 121.69 1487.81 113.81 1506.93 113.81C1525.18 113.81 1541.58 121 1553.72 132.77C1565.86 144.55 1573.8 160.9 1575.21 179.29L1575.25 179.43ZM1554.16 170.41C1548.69 148.4 1529.19 132.71 1506.93 132.76C1484.12 132.76 1464.88 148.11 1458.92 170.41L1554.16 170.41ZM1132.19 56.18C1137.65 56.18 1142.07 60.46 1142.1 65.72L1142.1 244.58C1142.07 249.83 1137.65 254.09 1132.19 254.09C1129.56 254.09 1127.15 252.97 1125.41 251.28C1123.67 249.58 1122.57 247.19 1122.57 244.58L1122.57 65.72C1122.57 63.11 1123.67 60.71 1125.41 59C1127.15 57.28 1129.56 56.18 1132.19 56.18ZM502.76 180.54C510.49 184.21 517.3 188.88 521.5 195.96C524.28 200.62 525.87 206.33 525.87 213.05C525.87 225.29 519.79 236.13 510.01 243.43L510 243.43L510 243.45C500.01 250.74 488.15 253.87 474.41 253.87L474.38 253.87C465.55 253.73 453.93 251.51 444.86 247.27C440.77 245.36 437.22 243.41 434.25 241.44C431.36 239.45 429.05 237.45 427.48 235.22C426.47 233.67 425.77 231.96 425.77 230.09C425.77 228.96 426.02 227.86 426.52 226.83C427.04 225.79 427.77 224.89 428.61 224.08C429.21 223.51 429.94 223.05 430.73 222.71C431.51 222.41 432.36 222.27 433.14 222.27C434.43 222.27 435.56 222.55 436.62 222.99C437.71 223.43 438.74 223.98 439.84 224.58C442.06 225.83 444.52 227.32 447.55 228.83C453.6 231.82 461.95 234.8 474.41 234.8C477.95 234.8 483.44 234.02 488.72 232.18C494.02 230.3 499.01 227.32 502.01 223.27C504 220.54 505.2 217.36 505.22 213.3L505.22 213.1C505.19 210.3 504.34 208.08 502.84 205.94C501.29 203.85 499.01 201.95 496.19 200.19C490.54 196.73 482.79 194.12 475.49 191.71C470.31 189.99 462.1 188.2 453.88 185.19C445.65 182.19 437.26 177.94 431.61 170.85C427.89 166.14 425.52 160.13 425.55 152.83C425.55 152.5 425.55 152.16 425.56 151.83C425.77 144.31 427.36 138.54 430.22 133.85C433.02 129.18 437 125.8 441.52 122.71C450.19 116.8 462.12 113.59 476.41 113.59C482.58 113.59 489.05 115.41 495.09 118.1C501.11 120.78 506.7 124.34 510.94 128.08C513.8 130.59 516.04 133.09 517.49 135.72C518.27 137.21 518.82 138.8 518.82 140.49C518.82 141.41 518.64 142.34 518.26 143.25C517.83 144.12 517.23 144.91 516.52 145.57C515.8 146.18 515.05 146.68 514.18 147.03C513.36 147.38 512.46 147.54 511.56 147.54C510.15 147.54 508.85 147.1 507.75 146.56C506.59 146.01 505.59 145.26 504.51 144.44C502.42 142.87 500.21 140.96 497.59 139.07C492.3 135.34 485.39 131.74 474.47 131.72C470.78 131.72 465.61 132.62 460.84 134.51C456.01 136.39 451.6 139.31 448.96 143.06C447.23 145.57 446.2 148.4 446.18 151.91C446.23 154.48 446.96 156.37 448.48 158.22C449.97 160.07 452.26 161.72 455.2 163.28C461.06 166.31 469.28 168.62 477.37 171.33C486.17 174.22 494.99 176.9 502.76 180.54ZM1296.59 123.3L1296.59 244.58C1296.59 247.19 1295.47 249.58 1293.77 251.28C1292.03 252.97 1289.63 254.09 1286.98 254.09C1284.34 254.09 1281.91 252.97 1280.2 251.28C1278.46 249.58 1277.34 247.19 1277.34 244.58L1277.34 232.75C1265.23 245.72 1248.22 254.09 1229.39 254.09C1210.65 254.09 1193.79 246.11 1181.7 233.33C1169.58 220.61 1162.16 203.09 1162.16 183.95C1162.16 164.81 1169.58 147.27 1181.7 134.54C1193.79 121.77 1210.65 113.81 1229.39 113.81C1248.2 113.81 1265.23 121.94 1277.34 134.84L1277.34 123.3C1277.34 120.64 1278.45 118.17 1280.23 116.46C1282.01 114.79 1284.41 113.81 1286.98 113.81C1289.53 113.81 1291.96 114.79 1293.71 116.46C1295.49 118.17 1296.59 120.64 1296.59 123.3ZM1263.16 147.48C1254.44 138.23 1242.48 132.62 1229.39 132.58C1216.41 132.58 1204.49 138.23 1195.69 147.48C1186.95 156.76 1181.41 169.61 1181.41 183.95C1181.41 198.28 1186.95 211.05 1195.69 220.25C1204.44 229.45 1216.41 235 1229.39 235C1242.51 235 1254.47 229.45 1263.19 220.28C1271.88 211.05 1277.34 198.29 1277.34 183.95C1277.34 169.61 1271.88 156.76 1263.16 147.48ZM1429.56 128.76L1379.22 177.02L1430.07 238.3L1430.07 238.32C1431.62 240.15 1432.46 242.42 1432.46 244.65C1432.46 247.31 1431.32 249.91 1429.32 251.86L1429.19 251.99L1429.08 252.07C1426.94 253.73 1424.51 254.09 1422.79 254.09C1421.54 254.09 1420.14 253.91 1418.7 253.36C1417.43 252.87 1416.15 251.92 1415.21 250.55L1365.25 190.81L1340.75 215.07L1340.75 244.58C1340.75 249.83 1336.3 254.09 1330.84 254.09C1328.21 254.09 1325.8 252.97 1324.08 251.28C1322.37 249.58 1321.22 247.19 1321.22 244.58L1321.22 65.72C1321.22 63.11 1322.37 60.71 1324.08 59C1325.8 57.28 1328.21 56.18 1330.84 56.18C1336.3 56.18 1340.75 60.46 1340.75 65.72L1340.75 187.9L1416 115.21C1417.86 113.37 1420.29 112.35 1422.77 112.35C1425.23 112.35 1427.62 113.34 1429.47 115.15L1429.5 115.15C1429.5 115.15 1429.53 115.16 1429.54 115.21C1429.54 115.21 1429.59 115.21 1429.6 115.26L1429.59 115.26C1431.52 117.03 1432.56 119.47 1432.56 121.9C1432.56 124.38 1431.52 126.88 1429.6 128.76L1429.56 128.76ZM1092.49 56.61C1097.91 56.61 1102.29 60.95 1102.29 66.32C1102.29 71.69 1097.91 76.04 1092.49 76.04L1090.34 76.04C1090.03 76.04 1089.75 75.99 1089.45 75.99C1089.22 75.99 1088.95 76.04 1088.7 76.04L1088.2 76.04C1083.96 76.04 1080.83 76.51 1078.56 77.23C1076.31 77.99 1074.93 78.94 1073.86 80.08C1072.78 81.36 1071.57 83.43 1070.69 86.73C1069.77 90.01 1069.14 94.52 1069.04 100.55L1069.04 114.16L1085.49 114.16C1090.78 114.16 1095 118.27 1095.06 123.28L1095.06 123.64C1095.06 126.33 1093.97 128.81 1092.19 130.57C1090.45 132.34 1088.03 133.43 1085.39 133.58L1069.04 133.58L1069.04 245.08C1069.02 250.34 1064.82 254.49 1059.7 254.52C1057 254.52 1054.52 253.51 1052.76 251.82C1050.98 250.09 1049.87 247.69 1049.87 245.08L1049.89 244.81L1049.89 133.58L1034.8 133.58C1032.14 133.43 1029.74 132.26 1027.99 130.49C1026.25 128.67 1025.18 126.16 1025.21 123.44C1025.21 118.38 1029.4 114.19 1034.69 114.16L1049.89 114.16L1049.89 100.49C1049.95 93.43 1050.55 87.21 1052.03 81.7C1053.5 76.21 1055.91 71.38 1059.58 67.34L1059.58 67.33L1059.59 67.31L1059.6 67.33C1063.15 63.23 1067.73 60.53 1072.69 58.89C1077.72 57.23 1083.11 56.61 1088.66 56.61C1088.94 56.61 1089.22 56.64 1089.48 56.65C1089.78 56.64 1090.05 56.61 1090.34 56.61L1092.49 56.61ZM123.11 190.26C121.46 195.56 117.88 200.27 112.61 203.28L34.52 248.01C23.49 254.3 9.44 250.57 3.11 239.69C-3.26 228.75 0.49 214.83 11.51 208.52L55.15 183.57L11.51 158.55C0.49 152.25 -3.28 138.33 3.11 127.43C9.44 116.52 23.49 112.78 34.52 119.07L112.61 163.77C118.1 166.91 121.77 171.89 123.31 177.46C123.83 179.25 124.06 181.04 124.15 182.84C124.21 185.32 123.89 187.83 123.11 190.26ZM144.3 232.15C156.19 233 165.58 242.86 165.58 254.86L165.58 344.29C165.58 356.9 155.26 367.11 142.59 367.11C129.86 367.11 119.58 356.9 119.58 344.29L119.58 294.27L75.79 319.3C64.81 325.64 50.77 321.89 44.39 311C38.05 300.09 41.8 286.1 52.8 279.8L130.95 235.13C135.15 232.7 139.81 231.77 144.3 232.15ZM224.34 134.96C212.42 134.09 203.05 124.21 203.05 112.22L203.05 22.78C203.05 10.21 213.31 0 226.05 0C238.78 0 249.06 10.21 249.06 22.78L249.06 72.83L292.82 47.76C303.82 41.46 317.87 45.2 324.21 56.09C330.54 67.04 326.81 80.97 315.8 87.27L237.66 131.98C233.46 134.38 228.81 135.32 224.34 134.96ZM52.8 87.27C41.8 80.97 38.05 67.04 44.39 56.09C50.77 45.2 64.81 41.46 75.79 47.76L119.58 72.83L119.58 22.78C119.58 10.21 129.86 0 142.59 0C155.26 0 165.58 10.21 165.58 22.78L165.58 112.22C165.58 124.21 156.19 134.09 144.3 134.96C139.81 135.32 135.15 134.38 130.95 131.98L52.8 87.27ZM193.15 224.46C192.22 225.41 190.43 226.18 189.07 226.18L179.52 226.18C178.21 226.18 176.39 225.41 175.44 224.46L142.98 192.31C142.05 191.4 141.3 189.58 141.3 188.3L141.3 178.81C141.3 177.5 142.05 175.68 142.98 174.76L175.44 142.6C176.39 141.66 178.21 140.91 179.52 140.91L189.07 140.91C190.4 140.91 192.22 141.66 193.15 142.6L225.63 174.76C226.56 175.68 227.31 177.5 227.31 178.81L227.31 188.3C227.31 189.58 226.56 191.4 225.63 192.31L193.15 224.46ZM199.67 183.38C199.67 182.08 198.88 180.27 197.95 179.31L188.54 170.03C187.62 169.11 185.79 168.35 184.48 168.35L184.11 168.35C182.8 168.35 180.98 169.11 180.07 170.03L170.66 179.31C169.72 180.27 169 182.08 169 183.38L169 183.75C169 185.03 169.72 186.82 170.66 187.76L180.07 197.06C180.99 197.98 182.8 198.74 184.11 198.74L184.48 198.74C185.79 198.74 187.62 197.98 188.54 197.06L197.95 187.76C198.88 186.82 199.67 185.03 199.67 183.75L199.67 183.38ZM315.8 279.8C326.81 286.1 330.54 300.09 324.21 311C317.87 321.89 303.81 325.64 292.82 319.3L249.06 294.27L249.06 344.29C249.06 356.9 238.78 367.11 226.05 367.11C213.31 367.11 203.05 356.9 203.05 344.29L203.05 254.86C203.05 242.86 212.42 233 224.34 232.15C228.81 231.77 233.46 232.7 237.66 235.13L315.8 279.8ZM313.47 183.57L357.11 208.52C368.13 214.83 371.9 228.75 365.53 239.69C359.17 250.57 345.1 254.3 334.12 248.01L255.97 203.28C250.75 200.27 247.14 195.56 245.53 190.26C244.77 187.83 244.41 185.32 244.5 182.84C244.54 181.04 244.81 179.25 245.31 177.46C246.87 171.89 250.54 166.91 255.97 163.77L334.12 119.07C345.1 112.78 359.17 116.52 365.53 127.43C371.9 138.33 368.13 152.25 357.11 158.55L313.47 183.57ZM1601.85 136.94C1587.8 136.94 1579.44 126.37 1579.44 113.93C1579.44 101.39 1587.8 90.92 1601.85 90.92C1616 90.92 1624.47 101.39 1624.47 113.93C1624.47 126.47 1616 136.94 1601.85 136.94ZM1601.85 95.17C1591.09 95.17 1583.92 102.87 1583.92 113.93C1583.92 124.5 1591.09 132.69 1601.85 132.69C1612.81 132.69 1619.98 124.6 1619.98 113.93C1619.98 103.27 1612.81 95.17 1601.85 95.17ZM1592.98 103.56L1602.65 103.56C1607.93 103.56 1611.41 106.43 1611.41 110.87C1611.41 113.64 1610.02 115.71 1607.93 116.99L1611.71 122.42L1611.71 123.51L1606.23 123.51L1602.55 118.28L1598.27 118.28L1598.27 123.51L1592.98 123.51L1592.98 103.56ZM1598.27 108.4L1598.27 113.64L1602.55 113.64C1604.54 113.64 1605.84 112.75 1605.84 111.07C1605.84 109.29 1604.64 108.4 1602.55 108.4L1598.27 108.4Z" />
						</g>
					</g>
				</g>
			</g>
		</g>
	</g>
</svg>