<svg xmlns="http://www.w3.org/2000/svg" viewBox="0 0 128 128"><path fill="#8080F2" d="M39.5 49.2L63 35.6c.6-.3 1.3-.3 1.9 0l23.6 13.6c.6.3 1 1 1 1.6V78c0 .7-.4 1.3-1 1.7L65 93.3c-.6.3-1.3.3-1.9 0L39.5 79.7c-.6-.3-1-1-1-1.7V50.8c0-.6.4-1.3 1-1.6"/><path fill="#4B32C3" d="M125.2 61.6l-28.1-49c-1-1.8-2.9-3.1-5-3.1H35.9c-2 0-3.9 1.3-5 3.1L2.8 61.5c-1 1.8-1 4 0 5.8l28.1 48.6c1 1.8 2.9 2.7 5 2.7h56.3c2 0 3.9-.9 5-2.6l28.1-48.6c1-2 1-4.1-.1-5.8m-23.3 23.5c0 .7-.4 1.4-1.1 1.7L65 107.5c-.6.4-1.4.4-2 0L27.1 86.9c-.6-.4-1.1-1-1.1-1.7V43.7c0-.7.4-1.4 1.1-1.7L63 21.3c.6-.4 1.4-.4 2 0L100.9 42c.6.4 1.1 1 1.1 1.7v41.4z"/></svg>
