<svg viewBox="0 0 128 128" xmlns="http://www.w3.org/2000/svg"><path d="M52.146 48.631c-5.137.299-8.479 3.168-10.953 7.094V49.44h-4.729v39.326h4.729V77.752l3.236.31c5.176.573 8.37-1.183 10.08-2.3 1.71-1.118 5.134-4.672 6.223-10.58 2.086-13.14-4.904-16.386-8.586-16.552zm13.174.871l13.055 27.146c-3.95 9.63-8.006 9.515-13.535 8.322v4.168c10.126 1.64 13.235-2.899 15.682-7.404a49.86 49.86 0 002.55-5.164l11.302-27.068h-4.89l-8.64 21.057-10.38-21.057H65.32zm-34.207.746L3.609 63.938l27.504 13.751v-4.234L12.32 63.937l18.793-9.408v-4.281zm65.773.063v4.28l18.793 9.41-18.793 9.517v4.234L124.39 64 96.886 50.311zm-46.359 2.923c4.531 0 5.82 5.166 5.414 10.33-1.127 8.858-6.797 12.071-14.748 9.957V61.386c2.237-4.216 6.483-8.152 9.334-8.152z"/></svg>
