<svg viewBox="0 0 128 128" xmlns="http://www.w3.org/2000/svg">
<path d="m52.146 48.631c-5.1371 0.299-8.4788 3.168-10.953 7.0938v-6.2852h-4.7285v39.326h4.7285v-11.014l3.2363 0.31055c5.1761 0.5733 8.3703-1.1836 10.08-2.3008 1.7099-1.1172 5.1336-4.6711 6.2227-10.58 2.0861-13.14-4.904-16.385-8.5859-16.551zm13.174 0.87109 13.055 27.146c-3.9498 9.6304-8.0063 9.5152-13.535 8.3223v4.168c10.126 1.6403 13.235-2.8992 15.682-7.4043 0.954-1.688 1.8094-3.4053 2.5508-5.1641l11.301-27.068h-4.8906l-8.6387 21.057-10.381-21.057h-5.1406-0.001954zm-34.207 0.74609-27.504 13.689 27.504 13.752v-4.2344l-18.793-9.5176 18.793-9.4082v-4.2812zm65.773 0.0625v4.2812l18.793 9.4082-18.793 9.5176v4.2344l27.504-13.752-27.504-13.689zm-46.359 2.9238c4.5314 0 5.8205 5.1654 5.4141 10.33-1.127 8.8575-6.797 12.071-14.748 9.957v-12.135c2.2371-4.2165 6.4834-8.1523 9.334-8.1523z"/>
</svg>