<svg xmlns="http://www.w3.org/2000/svg" fill="#3BBCED" viewBox="0 0 128 128"><path d="M49.32 29.44h-1.88v9.75h1.88v-9.75zm8.09 0h-1.88v9.75h1.88v-9.75zm11.06-18.6L66.54 7.5 34.36 26.1l1.93 3.34 32.18-18.6z"/><path d="m68.28 10.84 1.93-3.34 32.18 18.6-1.93 3.34-32.18-18.6z"/><path d="M108.08 29.49v-3.86H19.92v3.86h88.16z"/><path d="M73.17 84.01V26.8h3.86v59.98c-1.03-1.17-2.35-2.02-3.86-2.77zm-6.58-.99V2.32h3.86v81.17c-1.09-.52-3.72-.47-3.86-.47zm-36.55 8.05c-4.7-3.48-7.81-9.04-7.81-15.35 0-3.34.89-6.64 2.54-9.51H57.7c1.69 2.87 2.54 6.17 2.54 9.51 0 2.92-.38 5.65-1.55 8.1-2.49-2.4-6.16-3.44-9.88-3.44-6.59 0-12.23 4.1-13.69 10.22-.52-.05-.85-.09-1.36-.09-1.28.04-2.5.23-3.72.56zM46.22 43.52h-9.97v10.03h9.97V43.52zm-11.25 0H25v10.03h9.97V43.52zm0 11.16H25v10.03h9.97V54.68zm11.25 0h-9.97v10.03h9.97V54.68zm11.19 0h-9.97v10.03h9.97V54.68zm0-16.53h-9.97v10.03h9.97V38.15z"/><path d="M36.76 92.58c1.36-5.79 6.59-10.12 12.8-10.12 4 0 7.57 1.79 10.02 4.62 2.12-1.46 4.66-2.31 7.43-2.31 7.24 0 13.12 5.88 13.12 13.14 0 1.51-.23 2.92-.7 4.28 1.6 2.17 2.59 4.9 2.59 7.82 0 7.25-5.88 13.14-13.13 13.14-3.2 0-6.12-1.13-8.37-3.01-2.4 3.34-6.3 5.56-10.73 5.56-5.08 0-9.5-2.92-11.71-7.16-.89.19-1.79.28-2.73.28-7.24 0-13.17-5.89-13.17-13.14s5.88-13.14 13.17-13.14c.47-.05.94-.05 1.41.04z"/></svg>
