<svg xmlns="http://www.w3.org/2000/svg" viewBox="0 0 128 128"><path fill="#069CEC" d="M67.3,108.8h23.3c10.1,0,18.3-8.2,18.3-18.3V37.4c0-2-0.3-3.8-0.9-5.6c0,0,0.1,0,0.1,0c1.3,0,2.4,2.1,2.9,3.2 c0.5,1,1.9,1.8,3.2,2.4v54.8c0,12.1-9.8,21.9-21.9,21.9H64.7C65.4,112.7,66.3,110.9,67.3,108.8z"/><path fill="#069CEC" d="M73.4,13.8c7.6,0.2,10.8,2.4,12.3,5.4H37.5c-10.1,0-18.3,8.2-18.3,18.3v53.1c0,10.1,8.2,18.3,18.3,18.3h3.8 c-0.4,1.1-0.8,2.7-0.8,3.7c0,0.6,0.2,1.1,0.4,1.7h-5.1c-12.1,0-21.9-9.8-21.9-21.9V35.7c0-12.1,9.8-21.9,21.9-21.9H73.4z"/><path fill="#069CEC" d="M89.9,106.4H68.5c3.3-6.8,7.4-15.5,11.1-23.2l5.7,9.8c1.3,2.2,4.1,3,6.3,1.7c2.2-1.3,3-4.1,1.7-6.3L84.4,73 c2.5-5.2,4.2-8.8,4.4-9.3c0.9-1.9,1.3-4.3,2.4-6.6c3-5.8,9.5-19.8,12.2-22.4c0.9-0.8,1.5-1.5,2.1-1.9c0.6,1.7,0.9,3.4,0.9,5.3v51.7 C106.4,99,99,106.4,89.9,106.4z M95.2,71.3h-8.9l5.3,9.3h3.6c2.6,0,4.6-2.1,4.6-4.6C99.8,73.4,97.8,71.3,95.2,71.3z"/><path fill="#069CEC" d="M21.6,89.8V38.1c0-9.2,7.4-16.6,16.6-16.6h48.4c0.3,1.1,0.5,2.2,0.6,3.4c0.2,1.6-2.1,6.7-2.4,7.3 c-2.2,4.4-6.8,13.1-9.3,17.5c-0.6,1.2-2.1,3-2.2,3.2c0,0-0.1,0.1-0.2,0.3l-2.2-3.8l-5.3,9.3l2.2,3.8c-1.5,2.6-3.2,5.6-5.1,8.7h-7.1 H44.8h-12c-2.6,0-4.6,2.1-4.6,4.6c0,2.6,2.1,4.6,4.6,4.6h6.7h10.7h7.1c-6.4,11-12.7,21.9-14.9,25.8h-4.2 C29.1,106.4,21.6,99,21.6,89.8z M62.1,34.3c-1.3-2.2-4.1-3-6.3-1.7c-2.2,1.3-3,4.1-1.7,6.3l3.3,5.8l5.3-9.3L62.1,34.3z M56.9,68.8 l17.3-30c1.3-2.2,0.5-5-1.7-6.3c-2.2-1.3-5-0.5-6.3,1.7l-20,34.6H56.9z M43.1,92.9l5.7-9.9H38.1L35,88.3c-1.3,2.2-0.5,5,1.7,6.3 C38.9,95.9,41.8,95.1,43.1,92.9z"/><path fill="#069CEC" d="M69.2,9.3c0-0.8,0.9-1.4,2.9-2.2c2-0.8,5.1-1.6,9.5-1.6c12.9,0,21.3,5,26.6,7.8c3.3,1.8,3.7,4.7,6.3,6.6 c1.8,1.3,4.2,1,6.1,0.7c0.1,0,0.2,0,0.2,0s5.3,2.7,5.3,2.8c0.3,0.3-0.9,3.3-2.6,6.9c-1.8,3.7-3.5,6.5-3.9,6.3 c-0.2-0.1-5.7-3.1-5.7-3.1s-0.2-1.1-0.8-1.9c-1.1-1.5-3-3.3-5.1-3.3c-2.8,0-5.7,2.4-8,5.2c-2.7,3.1-9.9,18.2-12.6,23.9 c-0.2,0.5-0.6,2.7-1,3.6c-0.8,1.8-25.3,52.8-27.5,57.3c-0.8,1.5-2.4,2.2-4.4,2.2c-4,0-10.6-3.8-10.7-7.9c0-0.6,0.4-2.3,0.7-3.1 c0.6-1.5,31.3-54.1,31.7-54.8c0.1-0.2,1.2-1.4,1.9-2.6c2.4-4.5,8.1-15,10.3-19.3c0.3-0.6,2.3-5.8,2.2-7.4 c-0.7-7.1-2.5-15-19.6-15.5C70.4,9.9,69.2,9.6,69.2,9.3z"/></svg>
