<svg viewBox="0 0 128 128" xmlns="http://www.w3.org/2000/svg"><path d="M0 46.028h24.62v12.127H12.16zm0 12.127h12.16l12.46 12.408H12.16v12.41L0 70.562zM40.282 73.74V55.417h11.33v3.661h-7.077v4.805h7.078v3.66h-7.078v6.197zm13.873 0V61.05h4.236v2.834c0-.845.565-1.708 1.13-2.271.847-.563 1.43-.845 2.276-.845.565 0 .847.282 1.13.282v3.678h-1.13c-1.13 0-1.994.282-2.559 1.127-.565.563-.847 1.689-.847 3.097v4.788zm15.566.564c-1.993 0-3.406-.846-4.535-1.972-.847-1.127-1.413-2.816-1.413-4.788 0-1.408.283-2.534.566-3.379a6.708 6.708 0 012.258-2.552c.848-.563 1.977-.845 3.124-.845.848 0 1.695.282 2.542.563.564.282 1.13.845 1.412 1.708v-1.99h4.236v12.69h-4.236V72.05c-.282.564-.848 1.127-1.412 1.69-.847.282-1.694.564-2.542.564zm1.13-3.38c1.13 0 1.694-.282 2.26-1.127.564-.563.846-1.408.846-2.253 0-1.126-.282-1.69-.847-2.534-.565-.563-1.13-.845-2.26-.845-.846 0-1.711.282-2.276.845-.564.845-.847 1.408-.847 2.534 0 .845.283 1.69.847 2.253.565.845 1.43 1.126 2.277 1.126zm10.183 2.816V61.05h3.953v1.989c.283-.863.847-1.145 1.413-1.707.864-.282 1.43-.564 2.276-.564 1.977 0 3.39.845 3.954 2.27.564-.58 1.13-1.143 1.694-1.706.847-.282 1.712-.564 2.56-.564 3.105 0 4.517 1.69 4.517 5.087v7.885h-3.953V66.7c0-.845-.282-1.409-.565-1.972-.283-.28-.847-.563-1.429-.563-.847 0-1.413.282-1.695.845-.282.281-.565 1.127-.565 2.253v6.477h-3.953V66.7c0-.845-.282-1.409-.565-1.972-.282-.28-.847-.563-1.412-.563-.582 0-1.148.282-1.711.845-.283.281-.566 1.127-.566 2.253v6.477zm35.935-7.04v1.97h-9.336c0 .846.282 1.41.847 1.972.282.281 1.129.563 1.976.563 1.412 0 1.977-.282 2.541-1.126h3.972c-.283 1.126-.848 2.253-2.259 3.098-1.13.563-2.559 1.126-4.254 1.126-2.259 0-3.953-.563-5.083-1.971a6.725 6.725 0 01-1.994-4.788c0-2.252.847-3.66 1.994-5.086 1.13-1.127 2.824-1.69 5.083-1.69 1.977 0 3.407.563 4.819 1.69 1.129 1.144 1.694 2.552 1.694 4.242zm-9.336-.564h5.364c0-.844-.281-1.408-.564-1.97-.565-.564-1.129-.564-1.977-.564-.847 0-1.694.282-2.259.563-.282.563-.564 1.127-.564 1.971zm11.596 7.604V61.05h3.97v2.834a6.192 6.192 0 011.412-2.271c.565-.563 1.413-.845 2.259-.845.283 0 .847.282 1.13.282v3.678h-1.412c-.847 0-1.695.282-2.259 1.127-.848.563-1.13 1.689-1.13 3.097v4.788z"/></svg>
