<?xml version="1.0" encoding="utf-8"?>
<!-- Generator: Adobe Illustrator 24.0.1, SVG Export Plug-In . SVG Version: 6.00 Build 0)  -->
<svg version="1.1" id="Layer_1" xmlns="http://www.w3.org/2000/svg" xmlns:xlink="http://www.w3.org/1999/xlink" x="0px" y="0px"
	 viewBox="0 0 271.6 113.8" style="enable-background:new 0 0 271.6 113.8;" xml:space="preserve">
<style type="text/css">
	.st0{fill:url(#SVGID_1_);}
	.st1{fill:url(#SVGID_2_);}
	.st2{fill:#282C34;}
	.st3{font-family:'Segoe UI';}
	.st4{font-size:85.8421px;}
</style>
<linearGradient id="SVGID_1_" gradientUnits="userSpaceOnUse" x1="32.9097" y1="375.8138" x2="95.3155" y2="460.5659" gradientTransform="matrix(1 0 0 1 0 -386)">
	<stop  offset="0" style="stop-color:#41D1FF"/>
	<stop  offset="1" style="stop-color:#BD34FE"/>
</linearGradient>
<path class="st0" d="M112.6,17.3L62.5,107c-1,1.9-3.7,1.9-4.7,0L6.6,17.3c-1.1-2,0.6-4.4,2.8-4l50.2,9c0.3,0.1,0.7,0.1,1,0l49.1-9
	C112,12.9,113.8,15.3,112.6,17.3z"/>
<linearGradient id="SVGID_2_" gradientUnits="userSpaceOnUse" x1="62.3298" y1="388.6915" x2="73.6187" y2="466.1322" gradientTransform="matrix(1 0 0 1 0 -386)">
	<stop  offset="0" style="stop-color:#FFEA83"/>
	<stop  offset="8.333330e-02" style="stop-color:#FFDD35"/>
	<stop  offset="1" style="stop-color:#FFA800"/>
</linearGradient>
<path class="st1" d="M83.6,1.5L46.5,8.8c-0.6,0.1-1.1,0.6-1.1,1.3l-2.3,38.6c-0.1,0.9,0.8,1.6,1.7,1.4l10.3-2.4
	c1-0.2,1.9,0.6,1.6,1.6l-3.1,15c-0.2,1,0.7,1.9,1.7,1.6l6.4-1.9c1-0.3,1.9,0.6,1.7,1.6l-4.9,23.6c-0.3,1.5,1.7,2.3,2.5,1l0.5-0.8
	L91.9,29c0.5-1-0.4-2.2-1.5-1.9l-10.6,2c-1,0.2-1.9-0.7-1.6-1.7l6.9-24.1C85.4,2.3,84.6,1.3,83.6,1.5z"/>
<text transform="matrix(1 0 0 1 119.3428 89.8008)" class="st2 st3 st4">Vite</text>
</svg>
