<?xml version="1.0" encoding="utf-8"?>
<!-- Generator: Adobe Illustrator 24.0.1, SVG Export Plug-In . SVG Version: 6.00 Build 0)  -->
<svg version="1.1" id="Layer_1" xmlns="http://www.w3.org/2000/svg" xmlns:xlink="http://www.w3.org/1999/xlink" x="0px" y="0px"
	 viewBox="0 0 121.4 119.8" style="enable-background:new 0 0 121.4 119.8;" xml:space="preserve">
<style type="text/css">
	.st0{fill:url(#SVGID_1_);}
	.st1{fill:url(#SVGID_2_);}
</style>
<linearGradient id="SVGID_1_" gradientUnits="userSpaceOnUse" x1="31.7061" y1="-135.091" x2="99.1118" y2="-226.6333" gradientTransform="matrix(1 0 0 -1 0 -145.4367)">
	<stop  offset="0" style="stop-color:#41D1FF"/>
	<stop  offset="1" style="stop-color:#BD34FE"/>
</linearGradient>
<path class="st0" d="M117.8,19.4l-54.2,96.8c-1.1,2-4,2-5.1,0L3.3,19.4c-1.2-2.2,0.6-4.8,3.1-4.4l54.2,9.7c0.3,0.1,0.7,0.1,1,0
	l53.1-9.7C117.2,14.6,119,17.2,117.8,19.4z"/>
<linearGradient id="SVGID_2_" gradientUnits="userSpaceOnUse" x1="63.4914" y1="-149.0001" x2="75.6848" y2="-232.6453" gradientTransform="matrix(1 0 0 -1 0 -145.4367)">
	<stop  offset="0" style="stop-color:#FFEA83"/>
	<stop  offset="8.333330e-02" style="stop-color:#FFDD35"/>
	<stop  offset="1" style="stop-color:#FFA800"/>
</linearGradient>
<path class="st1" d="M86.4,2.3l-40.1,7.9c-0.7,0.1-1.1,0.7-1.2,1.4l-2.5,41.6c-0.1,1,0.8,1.7,1.8,1.5l11.2-2.6c1-0.2,2,0.7,1.8,1.7
	l-3.3,16.2c-0.2,1.1,0.8,2,1.9,1.7l6.9-2.1c1.1-0.3,2.1,0.6,1.9,1.7l-5.3,25.5c-0.3,1.6,1.8,2.5,2.7,1.1l0.6-0.9l32.7-65.2
	c0.5-1.1-0.4-2.3-1.6-2.1L82.3,32c-1.1,0.2-2-0.8-1.7-1.9l7.5-26C88.4,3.1,87.5,2.1,86.4,2.3z"/>
</svg>
