<svg xmlns="http://www.w3.org/2000/svg" viewBox="0 0 128 128"><defs><radialGradient id="a" cx="0" cy="0" r="1" fx="0" fy="0" gradientTransform="scale(127.99992 127.99926)" gradientUnits="userSpaceOnUse"><stop offset="0" stop-color="#189cff"/><stop offset=".58" stop-color="#138eeb"/><stop offset=".8" stop-color="#0971bf"/><stop offset="1" stop-color="#005493"/></radialGradient></defs><g fill-rule="evenodd"><path fill="url(#a)" d="M128 12.8C128 5.735 122.266 0 115.2 0H12.8C5.735 0 0 5.734 0 12.8v102.4c0 7.066 5.734 12.8 12.8 12.8h102.4c7.066 0 12.8-5.734 12.8-12.8Zm0 0"/><path fill="#fff" d="M36 104.496c-1.89-1.297-3.383-2.55-3.383-2.55l48.547-84.083s1.996.742 3.648 1.532c2.079 1 3.801 1.972 3.801 1.972 23.532 13.582 31.606 43.719 18.02 67.246-13.582 23.532-43.719 31.606-67.246 18.02 0 0-1.649-.945-3.387-2.137m48.512-76.023L43.488 99.527c19.61 11.325 44.719 4.594 56.04-15.015s4.593-44.719-15.016-56.04m-60.91 63.68c-1.649-2.391-2.239-3.536-2.239-3.536-8.48-14.73-9.101-33.465.004-49.23C30.47 23.617 47.004 14.789 64 14.77c0 0 2.297-.008 4.207.175 2.879.278 4.793.649 4.793.649L26.574 96s-1.101-1.14-2.972-3.848m35.488-68.88c-12.371 1.504-23.914 8.602-30.617 20.215-6.707 11.614-7.082 25.157-2.196 36.621Zm0 0"/></g></svg>
