<svg xmlns="http://www.w3.org/2000/svg" xml:space="preserve" viewBox="0 0 128 128"><path fill="#35df79" d="M6.872 62.215c6.212-.428 10.288-2.485 10.288-7.26 0-5.435-5.941-6.444-10.288-6.64v.428c3.455.428 5.474 1.63 5.474 6.29 0 4.386-1.438 6.248-5.474 6.754zM0 72.775h4.736v-24.46H0Zm22.166.31c2.486 0 3.688-1.477 4.312-2.408v-.31c-.585.428-1.245 1.01-2.525 1.01-1.669 0-2.215-1.28-2.215-3.107 0-1.826.625-2.525 1.206-2.988.777-.467 2.175-.934 3.416-1.359v-.35c-2.057.425-4.582 1.089-5.513 1.399-1.476.62-3.106 1.433-3.106 4.037 0 2.171 1.437 4.076 4.425 4.076zm5.164-.31h4.115V60.271c0-3.26-2.171-4.504-5.434-4.504-2.097 0-4.347.777-5.242 1.476v.31c.66-.27 1.633-.388 2.603-.388 2.678 0 3.958.934 3.958 3.765zm-6.91-11.106c1.047 0 1.668-.698 1.668-1.63 0-.93-.62-1.668-1.669-1.668-1.048 0-1.669.738-1.669 1.669 0 .93.62 1.63 1.67 1.63zm19.84 11.416c3.57-.193 6.095-2.329 6.095-5.631 0-2.29-1.245-3.688-3.534-4.736l-3.067-1.398c-1.398-.62-2.136-1.359-2.136-2.796 0-1.512 1.245-2.25 2.525-2.446v-.31c-3.224.196-5.592 2.407-5.592 5.01 0 2.6 1.826 3.844 3.613 4.696l2.482 1.127c1.672.739 2.642 1.438 2.642 3.028 0 1.9-1.594 2.914-3.027 3.106zm-1.205-.35c-1.437-.507-2.913-1.747-4.425-3.298v2.988c1.202.35 2.988.542 4.425.66zm6.173-16.382c-1.048-.31-2.525-.546-4.076-.585v.31c1.59.585 2.875 1.516 4.076 2.913zm9.087 16.732c3.57-.193 6.094-2.329 6.094-5.631 0-2.29-1.245-3.688-3.534-4.736l-3.067-1.398c-1.398-.62-2.136-1.359-2.136-2.796 0-1.512 1.245-2.25 2.525-2.446v-.31c-3.224.196-5.592 2.407-5.592 5.01 0 2.6 1.826 3.844 3.613 4.696l2.482 1.127c1.672.739 2.642 1.438 2.642 3.028 0 1.9-1.594 2.914-3.027 3.106zm-1.206-.35c-1.437-.507-2.91-1.747-4.425-3.298v2.988c1.201.35 2.988.542 4.425.66zm6.173-16.382c-1.048-.31-2.525-.546-4.076-.585v.31c1.59.585 2.874 1.516 4.076 2.913zm4.115 23.332h4.155v-7.028c.891.27 1.9.388 2.835.428v-.35c-.817-.118-2.097-.66-2.835-1.127V55.693l-4.155.503zm8.078-6.6c6.015-.31 9.278-3.727 9.278-9.2 0-5.165-2.254-8.117-6.757-8.117-2.368 0-4.504 1.244-5.553 2.603v.35c.895-.62 2.022-1.167 3.456-1.167 3.145 0 4.504 2.019 4.504 6.99 0 5.317-2.097 7.88-4.928 8.191zm19.527-.35a3.7 3.7 0 0 1-1.669-.777c-1.708-1.398-2.214-3.959-2.214-7.532 0-3.609.506-6.173 2.214-7.531.424-.39.97-.66 1.67-.817v-.31c-4.701.428-8.231 4-8.231 8.658 0 4.622 3.53 8.23 8.23 8.659zm1.433.35c4.662-.428 8.27-4.037 8.27-8.659 0-4.657-3.608-8.23-8.27-8.658v.31c.664.157 1.245.428 1.713.817 1.708 1.358 2.21 3.922 2.21 7.531 0 3.573-.502 6.134-2.21 7.532-.468.349-1.049.66-1.713.777zm16.269-12.542c1.048-1.045 2.486-1.473 3.884-1.473.812 0 1.397.079 1.822.27v-3.415c-.271-.118-.66-.157-1.163-.157-2.525 0-4.115 2.175-4.543 4.39zm-5.085 12.231h4.154V55.732l-4.154.464zm19.217.31c2.64 0 4.504-1.205 5.164-2.25v-.428c-.467.31-1.747.62-2.835.62-2.29 0-2.796-1.515-2.796-3.533V57.44h5.085v-1.362h-5.085v-5.706l-4.115 1.437v4.269h-2.482v1.362h2.482v10.52c0 3.416 1.516 5.125 4.582 5.125zm0 0"/></svg>
