<svg xmlns="http://www.w3.org/2000/svg" viewBox="0 0 128 128">
  <g transform="translate(13, 0)">
    <path d="M 51 0 C 22.824219 0 0 22.734375 0 50.800781 L 25.5 50.800781 C 25.5 36.777344 36.925781 25.398438 51 25.398438 Z M 51 0 
    M 102 50.800781 C 102 22.734375 79.175781 0 51 0 L 51 25.398438 C 65.074219 25.398438 76.5 36.777344 76.5 50.800781 Z M 102 50.800781 
    M 51 101.601562 C 79.175781 101.601562 102 78.867188 102 50.800781 L 76.5 50.800781 C 76.5 64.820312 65.074219 76.199219 51 76.199219 Z M 51 101.601562 
    M 25.5 101.601562 L 25.5 50.800781 L 0 50.800781 L 0 127 L 51 127 L 51 101.601562 Z M 25.5 101.601562"/>
  </g>
</svg>
