<svg xmlns="http://www.w3.org/2000/svg" viewBox="0 0 128 128"><path fill="#FFF" d="M8.1 67.1l-6.1.6c.4 1.6 1.2 2.8 2.4 3.6 1.2.9 3.3 1.3 6.3 1.3 2.1 0 3.7-.3 4.9-.8 1.2-.5 2.1-1.2 2.7-2.1.6-.9.8-1.8.8-2.8 0-.9-.3-1.8-.8-2.6S17 62.9 16 62.5c-1-.4-2.5-.8-4.6-1-1.4-.2-2.2-.4-2.6-.6-.4-.2-.6-.5-.6-.9s.2-.7.5-.9c.3-.3.8-.4 1.5-.4s1.3.2 1.8.5c.4.2.6.6.8 1.2l5.9-.6c-.4-1.1-.9-1.9-1.5-2.6-.6-.6-1.4-1.1-2.3-1.4-.9-.3-2.3-.4-4.3-.4-1.8 0-3.3.2-4.4.6-1.1.4-1.9 1-2.6 1.8-.6.8-.9 1.7-.9 2.8 0 1 .3 1.9.9 2.6.6.8 1.3 1.3 2.1 1.6.8.3 2.3.7 4.5 1.1 1.4.3 2.3.5 2.7.6.5.2.7.6.7 1.1 0 .4-.2.7-.5 1-.5.4-1.1.5-1.9.5-.8 0-1.4-.2-1.8-.5-.7-.3-1-.8-1.3-1.5zM37.7 64c0-4.7 3.8-8.6 9.1-8.6s9.1 3.8 9.1 8.6-3.8 8.6-9.1 8.6c-5.2 0-9.1-3.8-9.1-8.6zm32.5 0c0-4.8 3.9-8.6 9.2-8.6 2.5 0 4.4.6 5.5 1.1h.1v4.1l-.2-.1c-1.1-.5-2.7-1.1-5-1.1-1.6 0-2.8.5-3.6 1.3-.8.8-1.3 1.9-1.3 3.1 0 2.4 1.7 4.5 4.7 4.5.5 0 1.1-.1 1.6-.2v-4.2h4.5v7.2h-.1c-1.6.8-3.9 1.2-6 1.2-5.6.3-9.4-3.5-9.4-8.3zm-49.4-8.2h4.6V62h5.9v-6.2H36v16.5h-4.7v-6.5h-5.9v6.5h-4.6V55.8zm35.5 0H70v3.8h-4.5v12.7h-4.7V59.6h-4.5v-3.8zm31.4 0H94c2 0 3.8.5 5 1.4 1.3 1 2 2.4 2 4.2 0 2.3-1.2 3.9-3 4.7l3.5 6.1h-4.9L93.9 67h-1.6v5.3h-4.6V55.8zm15.3 0h4.6v16.5H103V55.8zm7.4 0h5.8c3 0 5.4.9 7.1 2.3 1.7 1.5 2.6 3.5 2.6 5.9 0 2.4-.9 4.5-2.6 5.9-1.7 1.5-4.1 2.3-7.1 2.3h-5.9V55.8zm-63.5 3.8c-2.7 0-4.5 2.1-4.5 4.5s1.8 4.5 4.5 4.5 4.4-2 4.4-4.5-1.8-4.5-4.4-4.5zm45.3 0v3.8h2c.6 0 1.2-.1 1.5-.4.4-.3.6-.8.6-1.5s-.2-1.1-.6-1.4c-.4-.3-.9-.5-1.5-.5h-2zm22.8 8.9h1.2c1.7 0 3-.5 3.8-1.3.9-.8 1.3-1.9 1.3-3.1 0-1.2-.4-2.3-1.3-3.1-.9-.8-2.1-1.3-3.8-1.3H115v8.8z"/></svg>
