<svg xmlns="http://www.w3.org/2000/svg" viewBox="0 0 128 128"><path d="M8.28 50.545c-.326 0-.659.085-.964.256L.943 54.557c-.61.341-.943.967-.943 1.65v7.564c0 .683.334 1.31.943 1.65l6.373 3.757c.555.341 1.276.341 1.885 0l4.322-2.56 2.94-1.764 4.322-2.561c.554-.341 1.275-.341 1.885 0l3.38 1.992c.555.341.944.968.944 1.65v4.04c0 .682-.333 1.309-.943 1.65l-3.381 2.047c-.554.341-1.275.341-1.885 0l-3.38-1.992c-.555-.342-.942-.966-.942-1.649v-2.617l-2.94 1.764v2.615c0 .683.334 1.309.944 1.65l6.375 3.756c.554.342 1.273.342 1.883 0l6.377-3.756a1.97 1.97 0 0 0 .939-1.65v-7.564c0-.683-.33-1.31-.94-1.65l-6.431-3.813c-.554-.342-1.275-.342-1.885 0l-4.322 2.617-2.94 1.707-4.322 2.617c-.554.341-1.275.341-1.885 0L3.88 63.658c-.554-.341-.942-.965-.942-1.648v-4.041c0-.683.332-1.307.942-1.649l3.383-1.992c.554-.341 1.273-.341 1.883 0l3.382 1.992c.555.342.942.966.942 1.649v2.619l2.937-1.766v-2.615c0-.683-.331-1.309-.941-1.65L9.2 50.8a1.753 1.753 0 0 0-.922-.256zm59.542 1.103v18.24h3.48v-18.24h-3.48zm-22.447 5.325c-1.627 0-2.878.606-3.629 1.59v-1.39h-3.48v17.862h3.48v-6.281c.676.858 1.901 1.336 3.328 1.336 3.63 0 6.084-2.598 6.084-6.559 0-3.96-2.253-6.558-5.783-6.558zm13.686 0c-3.88 0-6.659 2.774-6.659 6.558s2.778 6.559 6.659 6.559c3.88 0 6.66-2.775 6.66-6.559 0-3.784-2.78-6.558-6.66-6.558zm32.578 0c-3.681 0-5.91 2.598-5.91 6.558 0 3.961 2.228 6.559 5.959 6.559 1.477 0 2.803-.555 3.455-1.488v1.666c0 1.185-.777 2.017-1.829 2.017h-5.808v2.75h6.36c2.853 0 4.755-1.742 4.755-4.39V57.174h-3.504v1.262c-.701-.883-1.951-1.463-3.478-1.463zm15.757 0c-3.88 0-6.66 2.774-6.66 6.558s2.78 6.559 6.66 6.559c3.881 0 6.659-2.775 6.659-6.559 0-3.784-2.778-6.558-6.659-6.558zm15.897 0c-1.727 0-3.13.73-3.83 1.966v-1.765h-3.506v12.715h3.506v-6.963c0-1.64 1.076-2.824 2.603-2.824 1.452 0 2.428 1.107 2.428 2.646v7.14H128v-7.921c0-2.927-1.853-4.994-4.707-4.994zm-50.367.2 4.582 12.614-1.852 5.248h3.328l1.778-5.195 4.582-12.666h-3.58l-2.627 8.199-2.655-8.2h-3.556zM44.65 59.976c1.828 0 3.079 1.412 3.079 3.556 0 2.12-1.251 3.532-3.079 3.532-1.877 0-3.105-1.413-3.105-3.532 0-2.144 1.228-3.556 3.105-3.556zm14.41 0c1.878 0 3.155 1.437 3.155 3.556 0 2.094-1.277 3.532-3.154 3.532-1.878 0-3.157-1.438-3.157-3.532 0-2.119 1.279-3.556 3.157-3.556zm33.178 0c1.878 0 3.106 1.412 3.106 3.556 0 2.145-1.228 3.532-3.106 3.532-1.852 0-3.08-1.387-3.08-3.532 0-2.144 1.228-3.556 3.08-3.556zm15.158 0c1.878 0 3.153 1.437 3.153 3.556 0 2.094-1.275 3.532-3.153 3.532-1.877 0-3.156-1.438-3.156-3.532 0-2.119 1.279-3.556 3.156-3.556z"/></svg>
