<svg xmlns="http://www.w3.org/2000/svg" viewBox="0 0 128 128"><path fill="#ff6a13" d="M119.5 32v64L64 128 8.625 96V32L64 0ZM94.04 53.148c3.202 7.02 2.796 15.657.374 22.985-2.684 7.62-8.129 14.031-14.176 17.617-5.062 2.996-9.746 4.184-15.242 4.691h-24.68v3.672h26.649c5.433-.297 10.844-1.734 15.55-4.508 6.755-3.902 12.06-10.3 14.473-17.734 2.875-8.695 1.89-18.969-2.949-26.723Zm-58.79-3.73h9.86v-7.543c5.355 0 10.695.04 16.05.043C68.027 42 74.79 45.324 79 50.77c3.191 4.062 4.887 9.289 4.57 14.453-.277 5.343-2.683 10.504-6.488 14.238-4.184 4.18-10.023 6.61-15.93 6.695-8.632.055-25.902-.058-25.902-.058v9.89h26.605c5.43-.297 10.833-1.734 15.532-4.511 6.742-3.899 12.039-10.305 14.449-17.739 2.52-7.629 1.926-16.23-1.637-23.433-3.715-7.64-10.597-13.63-18.617-16.367-4.07-1.473-8.437-1.95-12.719-1.942l-23.613-.008Zm12.54-4.984v7.734h-6.032v2.676h8.39v-8.051h12.457c2.77 0 5.208.2 7.434.52a31.52 31.52 0 0 1 2.922.558 20.178 20.178 0 0 0-3.309-1.672c-1.617-.62-3.476-1.09-5.511-1.379-2.106-.3-4.407-.398-7.043-.398Zm0 0"/></svg>
