<svg width="128" height="128" viewBox="300 0 900 900" xmlns="http://www.w3.org/2000/svg"><path d="M521.58 213.75h431.04c11.667 0 21.125 9.458 21.125 21.125S964.287 256 952.62 256H521.58c-11.667 0-21.125-9.458-21.125-21.125s9.458-21.125 21.125-21.125z" fill="#696969"/><path d="M525.33 171h86.667v20H525.33z" fill="#009fe3"/><path d="M638.67 171h86.666v20H638.67z" fill="#c7d302"/><path d="M750.5 171h86.667v20H750.5z" fill="#f07e16"/><path d="M861.86 171h86.667v20H861.86zm0 107h86.667v146.5H861.86z" fill="#df2815"/><path d="M750.5 278h86.828v238H750.5z" fill="#f07e16"/><path d="M638.67 278h86.661v356.5H638.67z" fill="#c7d302"/><path d="M525.33 278h86.667v434.5H525.33z" fill="#009fe3"/></svg>