<svg xmlns="http://www.w3.org/2000/svg" viewBox="0 0 128 128"><path fill="#fd4f00" d="m48.067 81.275-1.006-.183c-7.145-1.329-11.66-5.65-13.797-12.447-1.337-4.237 1.087-7.355 5.53-7.56 3.637-.17 6.129 1.922 8.33 4.355 2.839 3.135 5.44 6.486 8.228 9.67 4.014 4.583 8.744 7.534 15.215 6.623 5.801-.816 10.86-3.144 15.258-6.977.661-.576 1.387-1.079 2.085-1.615l-.44-.518c-3.694 1.15-7.46 1.533-11.31 1.34-5.823-.292-11.373-1.51-16.338-4.706-4.531-2.918-7.873-6.828-9.46-12.05-1.283-4.22 1.34-7.171 5.715-6.561 1.727.242 3.181 1.02 4.489 2.122 1.062.9 2.083 1.85 3.167 2.722 5.104 4.102 12.235 4.33 18.71-.124-10.648-.048-17.893-5.907-24.256-13.33-2.49-2.905-4.921-5.861-7.464-8.722-4.919-5.533-10.375-10.407-17.844-12.072-9.548-2.122-18.762-.732-27.606 3.316-1.763.807-3.456 1.748-5.273 3.26.9 0 1.39.01 1.88 0 4.46-.117 7.802 1.864 10.212 5.512 1.754 2.655 2.58 5.657 3.21 8.745.935 4.584.45 9.255.991 13.861 1.387 11.837 7.437 20.097 18.701 24.327 4.132 1.552 8.368 2.068 13.072 1.01zm-28.471-54c-1.779.448-3.201-.27-4.666-1.753 2.51-.625 4.724-.868 7.103-.963-.195 1.546-1.107 2.38-2.435 2.716zm58.332 69.126c-.155-1.141-1.13-1.643-1.896-2.238-3.384-2.636-7.345-3.57-11.543-3.646-2.506-.047-4.986-.233-7.347-1.112-1.084-.4-2.298-.92-2.268-2.318.027-1.422 1.263-1.823 2.388-2.159.92-.272 1.87-.45 2.917-.695-2.661-1.706-5.261-1.941-8.726-.547-5.456 2.19-10.833 1.932-16.27-.03-3.07-1.11-5.795-2.85-8.63-4.39l-.078.055a5.395 5.395 0 0 0 .072-.054c-.07-.213-.195-.219-.359-.098l.222.195c2.351 3.855 5.53 6.957 9.121 9.608 6.914 5.103 14.465 8.148 23.302 6.798a121.601 121.601 0 0 1 8.608-1.008c3.61-.292 7.047.726 10.487 1.639zm-16.66-55.31c-.192-.138-.376-.484-.767-.126 3.181 4.302 7.264 7.47 12.182 9.466 7.936 3.221 15.991 3.773 24.23.93 6.397-2.206 10.995-.051 13.384 6.16.346-7.209-3.896-12.462-10.65-13.49-3.8-.58-7.31.68-10.867 1.713-9.905 2.872-19.112 1.455-27.513-4.653zm49.367 28.116c1.29.107 2.582.224 3.872.337-2.916-2.56-6.47-2.765-10.067-2.56-5.473.31-9.417 3.47-13.014 7.24-3.17 3.326-6.034 7.055-10.76 8.392.08.142.1.214.122.214.636.009 1.272.038 1.907.009 6.868-.31 13.338-1.759 18.483-6.744 1.622-1.568 3.07-3.311 4.636-4.94 1.306-1.36 2.887-2.113 4.821-1.95zm-15.954-8.512c-5.125.449-9.576 2.568-13.757 5.364-3.22 2.15-6.66 3.168-10.529 2.497-.68-.12-1.366-.208-2.049-.31l-.023.284c.246.128.483.275.738.378.645.255 1.28.562 1.95.72 7.442 1.77 14.568.864 20.991-3.286 4.049-2.616 8.24-3.112 12.783-2.436.46.07.917.151 1.378.196.426.04.872.463 1.449.005-3.971-2.869-8.25-3.82-12.931-3.412zM76.366 43.298c2.688.093 5.364-.26 8.177-1.93-.825.072-1.172.072-1.508.138-3.875.772-7.351-.073-10.45-2.521-1.135-.898-2.29-1.775-3.442-2.656-4.563-3.488-9.797-4.656-15.52-4.556.091.28.1.474.198.574 6.229 6.297 13.435 10.637 22.545 10.95zm45.07 32.319c-3.853-3.823-9.026-4.314-13.812-.979 3.168.141 5.546 1.152 7.474 3.15a23.695 23.695 0 0 0 2.155 2.015c2.917 2.352 7.858 2.465 10.747.282-3.392-1.323-3.392-1.323-6.563-4.468zm-38.384 29.272c-3.386-6.306-9.079-7.728-15.657-7.305a17.62 17.62 0 0 1 5.426 2.534c1.532 1.068 2.82 2.388 4.09 3.745 2.514 2.685 6.44 4.33 9.043 3.774-1.195-.751-2.257-1.547-2.902-2.748zm31.516-35.215c0-.042.001-.081.004-.124l-.01.011.01-.01-.065-.008.038.032.022.097zM78.114 96.55a13.871 13.871 0 0 0-.132-.076.232.232 0 0 0 .027.079c.01.015.07 0 .106-.003zm-.132-.076-.015-.061-.015.018.015-.018-.04-.01.01.046.043.025z"/></svg>
