<svg xmlns="http://www.w3.org/2000/svg" viewBox="0 0 128 128">
	<path fill="#FD4F00" d="M48.61,80.69l-1-.17c-6.9-1.28-11.27-5.46-13.33-12-1.29-4.09,1.05-7.11,5.35-7.31,3.52-.16,5.92,1.86,8,4.21,2.74,3,5.26,6.27,8,9.34,3.88,4.43,8.45,7.28,14.7,6.4a27.87,27.87,0,0,0,14.74-6.74c.64-.56,1.34-1,2-1.56l-.42-.5a31.2,31.2,0,0,1-10.93,1.29c-5.63-.28-11-1.46-15.79-4.55a20.9,20.9,0,0,1-9.14-11.64c-1.24-4.08,1.3-6.93,5.52-6.34a8.44,8.44,0,0,1,4.34,2.05c1,.87,2,1.79,3.06,2.63,4.93,4,11.82,4.18,18.08-.12-10.29,0-17.29-5.71-23.44-12.88C56,40,53.63,37.11,51.17,34.35c-4.75-5.35-10-10.06-17.24-11.66C24.71,20.63,15.8,22,7.26,25.89A21.72,21.72,0,0,0,2.16,29C3,29,3.51,29,4,29a10.9,10.9,0,0,1,9.87,5.33,23.42,23.42,0,0,1,3.1,8.45c.9,4.43.44,8.94,1,13.39C19.25,67.65,25.09,75.63,36,79.71a21.39,21.39,0,0,0,12.63,1ZM21.1,28.51c-1.72.43-3.09-.26-4.51-1.69a32.56,32.56,0,0,1,6.86-.93A2.89,2.89,0,0,1,21.1,28.51ZM77.46,95.31c-.15-1.1-1.09-1.59-1.83-2.16a18.07,18.07,0,0,0-11.15-3.52,21.22,21.22,0,0,1-7.1-1.07c-1-.39-2.22-.89-2.19-2.24s1.22-1.76,2.31-2.08c.89-.27,1.81-.44,2.82-.67-2.57-1.65-5.08-1.88-8.43-.53a21.26,21.26,0,0,1-15.72,0,61.54,61.54,0,0,1-8.34-4.24l-.07.05.07,0c-.07-.21-.19-.21-.35-.1l.21.19a33,33,0,0,0,8.81,9.28C43.17,93.06,50.47,96,59,94.7c2.76-.42,5.54-.75,8.32-1C70.81,93.44,74.13,94.42,77.46,95.31ZM61.36,41.86c-.18-.13-.36-.47-.74-.12a27.08,27.08,0,0,0,11.77,9.15,32.3,32.3,0,0,0,23.41.9c6.18-2.13,10.62,0,12.93,6,.33-7-3.76-12-10.29-13-3.67-.56-7.06.66-10.5,1.66C78.37,49.13,69.48,47.76,61.36,41.86ZM109.06,69l3.74.33c-2.82-2.47-6.25-2.67-9.73-2.47-5.29.3-9.1,3.35-12.58,7C87.44,77.09,84.67,80.7,80.1,82c.08.14.1.21.12.21.61,0,1.23,0,1.84,0,6.64-.3,12.89-1.7,17.86-6.52,1.57-1.52,3-3.2,4.48-4.78A5.59,5.59,0,0,1,109.06,69ZM93.65,60.81c-5,.43-9.25,2.48-13.29,5.18A13.54,13.54,0,0,1,70.18,68.4c-.66-.11-1.32-.2-2-.3l0,.28c.24.12.47.27.71.36a14.13,14.13,0,0,0,1.88.7c7.19,1.71,14.08.83,20.28-3.18a17,17,0,0,1,12.35-2.35c.44.07.89.15,1.33.19s.84.45,1.4,0A17.8,17.8,0,0,0,93.65,60.81ZM75.95,44a13.75,13.75,0,0,0,7.9-1.86c-.8.07-1.13.07-1.46.13a11.83,11.83,0,0,1-10.1-2.44C71.2,39,70.08,38.11,69,37.26c-4.41-3.37-9.46-4.5-15-4.4.09.27.09.46.19.56C60.18,39.5,67.15,43.69,75.95,44ZM119.5,75.22c-3.72-3.69-8.72-4.17-13.35-.95a10.06,10.06,0,0,1,7.22,3,23.1,23.1,0,0,0,2.08,1.95,9,9,0,0,0,10.38.27C122.56,78.26,122.56,78.26,119.5,75.22ZM82.41,103.51c-3.27-6.09-8.77-7.47-15.13-7.06a17,17,0,0,1,5.24,2.45,25.62,25.62,0,0,1,3.95,3.62c2.43,2.59,6.22,4.19,8.74,3.65A7.45,7.45,0,0,1,82.41,103.51Zm30.45-34s0-.08,0-.12h-.06l0,0Zm-35.22,26-.13-.07a.22.22,0,0,0,0,.08S77.6,95.45,77.64,95.45Zm-.13-.07v-.06h0v0Z"/>
</svg>