<svg xmlns="http://www.w3.org/2000/svg" viewBox="0 0 128 128"><path fill="#f05423" d="m16.994 72.587-.202-.043-.208-.081-.209-.081-.223-.14-.224-.139-.418-.418-.418-.419-.223-.153-.223-.152-.223-.112-.224-.112-.245-.075-.245-.075.433.015.432.016.273.044.274.045.202.06.201.059.202.1.202.1.153.118.153.118.153.175.152.175.24.356.239.357.17.126.172.126h.052v.058l-.108-.003-.109-.002-.201-.043zm-1.311-2.248-.187-.073-.317-.08-.317-.08-.307-.036-.306-.036-.472.016-.47.015-.643.09-.642.088-.424.032-.424.032-.26-.017-.258-.018-.248-.043-.248-.044-.307-.086-.306-.086-.267-.104-.267-.105-.396-.2-.397-.2-.352-.236-.353-.236-.201-.16-.202-.162-.257-.235-.256-.235-.257-.28-.256-.281-.23-.3-.229-.3.015-.014.014-.014.267.174.267.174.23.13.231.128.202.093.201.092.257.1.257.098.32.084.319.083.216.037.216.037.432-.001.432-.001.26-.05.259-.05.518-.177.519-.178h.331l.332-.002.144.041.144.04.15.067.152.065v.061h-.093l-.094.001-.187.043-.188.044-.115.045-.115.045-.097.073-.096.074-.041.097-.04.097.018.08.019.078.065.088.066.089.173.092.174.093.216.055.217.055.225.03.225.03.561.03.562.028.265.057.265.057.218.073.219.073.237.119.237.118.193.143.193.142.145.16.146.158v.053l-.008-.002-.007-.002-.187-.073zm5.56-2.89v-.317h-.201v-.144h.547v.144h-.202v.634h-.144zm.519-.07v-.391h.168l.093.245.092.245H22.133l.093-.245.093-.245h.163v.51l.018.134.019.134h-.147l-.021-.223-.021-.224-.06.166-.058.166h-.165l-.064-.152-.063-.15-.014.2-.015.202-.064.01-.065.009zm-5.244.246.159-.051.187-.095.187-.096.188-.13.187-.13.864-.868.865-.867.231-.164.232-.163.244-.13.243-.129.224-.074.223-.075.28-.042.282-.043h.519l.287.043.288.044.188.06.187.06.187.099.187.1.087.074.086.074-.057-.02-.058-.02-.158-.042-.159-.042-.276-.017-.276-.018-.156.037-.156.037-.13.066-.13.066-.162.139-.163.139-.388.433-.387.433-.185.16-.184.16-.158.115-.159.115-.201.116-.202.117-.245.107-.245.107-.34.098-.34.098-.337.057-.337.057-.298.03-.299.03-.292-.002-.292-.002.158-.051zm-8.17-.189-.205-.04-.276-.073-.276-.073-.283-.105-.282-.104-.322-.159-.322-.158-.28-.186-.281-.187-.22-.182-.218-.183-.221-.231-.221-.232-.157-.212-.157-.212-.123-.2-.124-.201-.138-.289-.138-.288-.115-.345-.115-.346-.06-.265-.058-.265-.044-.283-.044-.282-.029-.85-.028-.85-.043-.4-.043-.399-.072-.357-.072-.357-.103-.307-.103-.307-.117-.233-.116-.233-.105-.158-.104-.158-.184-.195-.184-.195-.133-.098-.133-.097-.206-.104-.207-.104-.25-.059-.25-.06-.343.01-.343.009v-.039l.137-.099.137-.1.28-.163.281-.164.224-.103.223-.102.288-.113.288-.114.346-.1.346-.102.418-.084.417-.083.418-.05.418-.05h.634l.633-.002.332.051.331.051.288.073.288.073.274.101.274.102.31.158.309.157.273.183.273.182.281.226.282.225.432.433.433.433.475.56.475.56.432.505.43.506.434.433.433.433.245.196.245.196.302.202.303.202.317.154.316.154.248.086.247.085.332.075.333.074.4.038.4.037-.216.11-.215.11-.26.1-.26.101-.173.053-.173.052-.182.035-.181.035-.366-.016-.366-.016-.222-.059-.223-.058-.202-.085-.201-.085-.239-.16-.238-.161-.331-.294-.332-.293-.168-.11-.169-.11-.163-.064-.162-.064-.332-.002-.33-.001-.15.052-.149.052-.128.112-.128.113-.066.152-.066.152-.014.238-.013.237.079.252.078.253.113.237.112.236.208.311.207.31.332.332.333.331.274.195.274.195.4.202.402.202.397.128.397.127.369.071.368.071.303.03.302.03.332.018.33.018.407-.031.407-.031.242-.042.242-.043.256-.074.255-.074.017.017.016.016-.19.182-.19.182-.212.172-.212.173-.223.15-.223.149-.296.155-.295.155-.283.105-.283.105-.264.07-.265.069-.331.047-.332.048-.403-.015-.403-.015-.173-.048-.173-.047-.29-.14-.29-.14-.243-.18-.243-.178-.36-.364-.36-.364-.632-.773-.631-.772-.263-.268-.263-.267-.186-.137-.186-.136-.158-.08-.159-.08-.156-.047-.157-.046H7.96l-.2.045-.201.046-.17.114-.171.113-.09.135-.088.135-.043.143-.042.143v.505l.075.24.075.239.101.201.1.202.157.236.156.236.218.233.219.232.23.174.23.173.293.143.293.143.284.072.284.072h.162l.016.026.015.025-.15.017-.151.018-.504.014-.505.013zM4.463 56.695l.088-.046.096-.095.095-.096.057-.126.057-.125-.027-.027-.027-.027-.329.031-.328.031-.36.06-.36.059-.022.013-.021.013.044.068.044.067.116.08.115.08.15.054.15.053.187-.01.188-.012zM24.427 67.43l-.087-.014-.158-.044-.159-.044-.168-.09-.169-.09-.35-.328-.35-.33-.115-.079-.115-.079-.146-.074-.146-.074-.171-.043-.171-.044-.18-.02-.181-.02.03-.036.03-.036.218-.106.217-.106.233-.059.234-.059.347.013.348.013.21.074.209.074.15.096.152.095.403.392.403.392.135.091.135.092.081.033.082.032.201.05.202.05-.187.087-.188.086-.188.047-.19.047-.257.012-.258.012zm-9.505-2.245-.227-.043-.248-.084-.248-.083-.139-.063-.14-.062.013-.012.012-.012.294.044.295.044.366.002h.365l.168-.045.167-.045.193-.082.192-.082.62-.37.62-.369.27-.127.271-.127.29-.097.292-.097.302-.065.303-.065H20.192l.274.076.273.076.245.104.245.105.238.149.237.149v.048l-.05-.016-.05-.015-.211-.044-.211-.044-.423-.032-.423-.032-.274.017-.274.017-.173.045-.172.044-.213.1-.212.1-.306.185-.307.185-.26.13-.26.132-.191.072-.192.072-.283.071-.283.071-.302.047-.303.046-.59.013-.591.012-.228-.043zm7.247-2.683-.067-.197-.128-.193-.129-.194-.173-.157-.174-.157-.192-.1-.192-.101-.173-.05-.173-.052-.288.002-.288.001-.173.036-.173.036-.446.141-.447.142-.277.057-.277.056-.42.03-.418.03-.456-.03-.457-.03-.274-.044-.273-.044-.303-.074-.302-.074-.288-.1-.289-.102-.374-.18-.375-.182-.302-.2-.303-.2-.187-.153-.187-.153-.183-.176-.184-.176-.213-.253-.212-.253v-.052l.24.182.241.181.286.162.285.161.263.114.262.114.319.101.318.1.283.06.283.058.273.035.274.035h1.009l.306-.05.307-.049.356-.096.356-.095.345-.107.346-.107.274-.06.274-.06h.446l.447.002.28.074.28.073.23.12.23.12.19.173.19.174.124.177.125.176.087.173.086.173.078.245.077.245.043.286.042.286-.008.083-.009.083-.067-.196zm-6.99-2.65-.087-.01-.216-.03-.216-.031-.329-.085-.328-.085-.334-.132-.334-.132-.3-.16-.301-.16-.333-.224-.334-.224-.244-.197-.244-.196-.267-.256-.267-.255v-.06l.41.018.41.018.333.057.332.057.304.1.304.099.242.12.243.122.23.153.231.152.427.33.428.331.212.121.212.122.208.07.208.07.247.025.248.025.259-.023.26-.023.158-.018.158-.019-.077.045-.077.044-.26.087-.26.087-.282.043-.283.043-.302-.005-.303-.004z"/><path fill="#453635" d="m37.54 58.7-.82.117-.822.117h-.044l-.045.001V67.46h1.762l.016-2.014.016-2.013.5-.2.499-.202.284-.005.284-.005.083.114.084.114v4.211H41.106l-.018-2.543-.017-2.542-.14-.31-.14-.309-.196-.172-.197-.173-.222-.062-.222-.061h-.252l-.253-.001-.447.092-.447.093-.388.146-.388.147-.103.032-.103.033V58.7h-.016zm23.666.059v1.88h1.764v-1.88h-.882zm62.58.242h-.133l-.132.001-.22.037-.221.036v8.509h.705v-4.292zm-95.09.17v8.289h1.823V64.945l1.22-.027 1.22-.028.39-.127.391-.127.285-.19.285-.19.188-.317.19-.316.066-.321.067-.321-.02-1.128-.02-1.128-.206-.41-.206-.41-.248-.186-.248-.186-.326-.122-.326-.122-.513-.059-.514-.059h-1.749zm44.767.124v8.289h.705v-3.763h3.704v-.646h-3.704V59.94h3.94v-.646h-2.323zm-42.944 1.521h.867l.867.001.21.058.21.059.143.152.142.152V62.865l-.123.166-.123.166-.2.07-.2.07-.897.004-.896.003v-1.263zm20.788.455-.503.036-.503.035-.303.09-.303.091-.283.19-.283.191-.192.252-.191.253-.1.306-.1.306-.024 1.179-.024 1.18.063.342.063.343.14.306.14.305.215.215.216.216.3.152.3.152.389.078.388.077.441.005.44.005.587-.088.585-.088.34-.095.34-.096v-.148l-.118-.576-.118-.575-.014-.012-.014-.011-.529.11-.529.109h-.634l-.634.001-.206-.086-.206-.086-.086-.206-.086-.206v-.474h3.234l-.001-.955v-.955l-.08-.294-.078-.294-.122-.24-.122-.239-.247-.223-.247-.223-.243-.107-.242-.107-.408-.07zm-6.802.016-.453.093-.453.093-.343.182-.343.183-.2.243-.2.244-.117.266-.118.266-.058.405-.059.406v1.528l.059.405.058.405.118.267.118.266.2.244.199.243.343.183.343.182.411.088.412.089.412.004.41.004.37-.06.37-.06.335-.125.336-.126.329-.329.329-.329.141-.352.142-.352V63.022l-.142-.353-.141-.352-.33-.33-.328-.328-.336-.126-.335-.125-.37-.06-.37-.06h-.369zm13.777 0-.522.09-.522.091-.47.166-.47.166-.094.04-.092.04-.079-.238-.078-.238h-1.334v6.056h1.762l.016-2.013.016-2.013.464-.2.465-.198.319-.008.319-.007.083.114.084.114v4.211h1.763v-4.843l-.098-.352-.099-.352-.24-.248-.239-.248-.235-.065-.235-.064-.242-.001zm37.514.099-.576.098-.577.099-.61.212-.612.213-.088.025-.088.025-.118-.186-.117-.187-.235-.122-.235-.122-.5.003-.5.003-.484.13-.483.128-.452.18-.451.18-.049-.078-.049-.076v-.191l-.002-.191h-.587v6.055h.646V62.759l.28-.122.279-.121.41-.144.412-.143.401-.086.4-.085h.41l.168.086.167.087.065.187.065.186v4.98h.645l.016-2.42.015-2.418.47-.201.47-.2.412-.115.412-.114.385-.037.386-.036.18.094.182.094.066.187.065.186v4.98h.646l-.001-2.66-.001-2.66-.11-.241-.11-.241-.18-.13-.182-.129-.328-.068zm19.571.003-.478.07-.478.07-.305.148-.304.15-.218.24-.217.241-.114.257-.113.256-.056.486-.056.485v1.529l.056.485.056.486.111.252.112.252.193.22.193.22.251.147.252.147.372.082.373.08.359.005.36.005.316-.06.317-.059.367-.18.368-.18.202-.264.202-.265.107-.305.106-.304v-3.057l-.106-.305-.107-.304-.202-.265-.202-.265-.38-.187-.38-.186-.478-.064zm-30.058.008-.56.036-.558.036-.352.063-.353.062-.105.031-.106.031.04.275.04.274.009.012.01.012.555-.09.556-.09.706.019.705.02.206.12.206.12.132.197.133.197v1.617l-1.25.023-1.25.024-.234.103-.235.103-.193.186-.193.187-.086.291-.087.292v.898l.088.293.087.294.192.221.192.222.323.115.323.115.53-.03.529-.03.323-.096.323-.097.333-.167.332-.168.035.09.035.092v.284h.588v-4.8l-.088-.294-.087-.295-.217-.224-.217-.223-.242-.107-.243-.107-.438-.069zm15.284.003-.439.093-.439.094-.264.163-.264.164-.182.238-.182.239-.103.327-.103.327.018 1.639.018 1.639.195.395.194.395.247.166.246.166.177.07.176.07.264.056.265.056.647-.022.647-.023.46-.096.461-.096.136-.052.137-.052-.057-.252-.056-.251-.015-.014-.014-.015-.585.122-.585.12-.617.008-.618.006-.235-.08-.235-.079-.157-.11-.156-.11-.132-.271-.13-.271-.03-.698-.028-.699h3.779V63.24l-.067-.312-.066-.312-.138-.273-.137-.273-.223-.184-.222-.183-.321-.12-.32-.12-.474-.032zm-31.094.004-.87.003-.868.002-.498.795-.498.797-.04.025-.04.024-.52-.822-.52-.823H63.9l.136.22.135.22.803 1.284.802 1.285-.823 1.302-.824 1.303-.14.221-.141.222.895-.016.896-.016.503-.788.504-.788.055-.005.056-.006.51.793.51.794.896.016.896.017-.087-.134-.087-.134-.861-1.365-.862-1.364v-.114l.854-1.363.854-1.362.06-.111zm-8.293 0v6.056h1.764v-6.056h-.882zm20.751.003-.499.256-.5.257-.426.274-.426.275-.001-.338-.001-.337-.035-.133-.036-.132h-.574v6.055h.705v-4.383l.573-.358.573-.357.368-.186.367-.185-.003-.131-.003-.132-.041-.222zm39.816.01-.508.257-.507.256-.412.267-.412.267-.017-.468-.017-.467h-.641v6.055h.705l.002-2.19.003-2.19.57-.359.571-.36.368-.185.367-.185v-.336l-.036-.181zm-9.671.106-.34.017-.341.018-.618 2.748-.618 2.748-.034-.032-.034-.033-.797-2.715-.797-2.716-.478-.017-.478-.017-.054.194-.054.193-.755 2.571-.756 2.572-.04-.044-.04-.043-.605-2.72-.604-2.718h-.626v.131l.65 2.86.65 2.858.03.103.03.103h1.044l.055-.191.054-.191.718-2.498.717-2.5.048-.049.048-.05.082.286.082.284.703 2.454.703 2.454h.53l.53.001.67-2.954.67-2.954.027-.077zm15.284.006-.434.003-.433.003-1.189 1.493-1.188 1.493 1.235 1.531 1.235 1.532h.888l-.231-.28-.231-.278-.947-1.156-.946-1.156-.07-.114-.072-.113 1.135-1.406 1.135-1.405.056-.074zm-27.028.5.53.004.528.004.243.126.242.125.153.18.152.181.06.22.06.218.001.514v.515h-3.074l.033-.548.033-.548.097-.23.096-.232.154-.161.154-.16.27-.104zm14.345.058h1.354l.293.15.292.15.176.287.177.286v3.184l-.163.277-.163.278-.278.163-.278.162-.617.013-.617.012-.215-.06-.216-.06-.235-.203-.236-.201-.108-.28-.107-.278v-2.822l.079-.221.078-.222.15-.178.149-.177.242-.13zm-63.908.61h.588l.154.071.154.07.084.162.084.162v.594H50.27v-.535l.09-.173.088-.172.173-.09zm-5.47.089.165.122.166.121.103.202.103.201v2l-.103.2-.103.202-.15.11-.15.11-.32.028-.32.027-.235-.087-.236-.087-.101-.125-.103-.125-.064-.24-.065-.24.02-.915.02-.916.104-.19.103-.19.19-.102.19-.102.393-.002zm41.251 2.204-.016.753-.017.753-.358.19-.358.19-.345.09-.345.089-.443-.003-.444-.002-.16-.087-.16-.087-.071-.13-.072-.132-.04-.294-.041-.294.05-.321.052-.321.178-.179.178-.178 1.206-.018z"/></svg>
