<svg width="128" height="128" viewBox="0 0 128 128" xmlns="http://www.w3.org/2000/svg">
  <path style="fill:#000;fill-opacity:1;fill-rule:nonzero;stroke:none" d="M33.074 22.969c0 7.054-5.562 12.773-12.422 12.773-6.863 0-12.422-5.719-12.422-12.773 0-7.055 5.563-12.774 12.422-12.774 6.86 0 12.422 5.72 12.422 12.774zm0 43.531c0 7.055-5.562 12.773-12.422 12.773-6.863 0-12.422-5.718-12.422-12.773s5.563-12.773 12.422-12.773c6.86 0 12.422 5.718 12.422 12.773zm0 43.531c0 7.055-5.562 12.774-12.422 12.774-6.863 0-12.422-5.72-12.422-12.774 0-7.054 5.563-12.773 12.422-12.773 6.86 0 12.422 5.719 12.422 12.773zM76.422 66.5c0 7.055-5.563 12.773-12.422 12.773-6.86 0-12.422-5.718-12.422-12.773S57.141 53.727 64 53.727c6.86 0 12.422 5.718 12.422 12.773zm0-43.531c0 7.054-5.563 12.773-12.422 12.773-6.86 0-12.422-5.719-12.422-12.773 0-7.055 5.563-12.774 12.422-12.774 6.86 0 12.422 5.72 12.422 12.774zM119.77 66.5c0 7.055-5.563 12.773-12.422 12.773-6.86 0-12.422-5.718-12.422-12.773s5.562-12.773 12.422-12.773c6.863 0 12.422 5.718 12.422 12.773zm0-43.531c0 7.054-5.563 12.773-12.422 12.773-6.86 0-12.422-5.719-12.422-12.773 0-7.055 5.562-12.774 12.422-12.774 6.863 0 12.422 5.72 12.422 12.774zm0 87.062c0 7.055-5.563 12.774-12.422 12.774-6.86 0-12.422-5.72-12.422-12.774 0-7.054 5.562-12.773 12.422-12.773 6.863 0 12.422 5.719 12.422 12.773zm-43.348 0c0 7.055-5.563 12.774-12.422 12.774-6.86 0-12.422-5.72-12.422-12.774 0-7.054 5.563-12.773 12.422-12.773 6.86 0 12.422 5.719 12.422 12.773zm0 0" transform="matrix(.97415 0 0 .97745 1.654 0)"/>
</svg>
