<svg xmlns="http://www.w3.org/2000/svg" xmlns:xlink="http://www.w3.org/1999/xlink" version="1.1" id="Layer_1" x="0px" y="0px" width="128" height="128" viewBox="0 0 128 128" enable-background="new 0 0 404.5 117.5" xml:space="preserve">
<g id="g39878" transform="matrix(0.55396467,0,0,0.57246732,56.086901,77.489273)">
	<path id="path39880" fill="#22314E" d="M-48.357-97.8c0,10.887-8.827,19.713-19.714,19.713c-10.886,0-19.712-8.826-19.712-19.713   c0-10.885,8.827-19.713,19.712-19.713C-57.184-117.513-48.357-108.685-48.357-97.8z"/>
	<path id="path39882" fill="#22314E" d="M-48.357-30.621c0,10.887-8.827,19.713-19.714,19.713c-10.886,0-19.712-8.826-19.712-19.713   c0-10.887,8.827-19.713,19.712-19.713C-57.184-50.334-48.357-41.508-48.357-30.621z"/>
	<path id="path39884" fill="#22314E" d="M-48.357,36.559c0,10.885-8.827,19.713-19.714,19.713c-10.886,0-19.712-8.828-19.712-19.713   c0-10.885,8.827-19.713,19.712-19.713C-57.184,16.846-48.357,25.673-48.357,36.559z"/>
	<path id="path39886" fill="#22314E" d="M20.432-30.621c0,10.887-8.827,19.713-19.714,19.713c-10.886,0-19.712-8.826-19.712-19.713   c0-10.887,8.827-19.713,19.712-19.713C11.605-50.334,20.432-41.508,20.432-30.621z"/>
	<path id="path39888" fill="#22314E" d="M20.432-97.8c0,10.887-8.827,19.713-19.714,19.713c-10.886,0-19.712-8.826-19.712-19.713   c0-10.885,8.827-19.713,19.712-19.713C11.605-117.513,20.432-108.685,20.432-97.8z"/>
	<path id="path39890" fill="#22314E" d="M89.22-30.621c0,10.887-8.827,19.713-19.714,19.713c-10.886,0-19.712-8.826-19.712-19.713   c0-10.887,8.827-19.713,19.712-19.713C80.394-50.334,89.22-41.508,89.22-30.621z"/>
	<path id="path39892" fill="#22314E" d="M89.22-97.8c0,10.887-8.827,19.713-19.714,19.713c-10.886,0-19.712-8.826-19.712-19.713   c0-10.885,8.827-19.713,19.712-19.713C80.394-117.513,89.22-108.685,89.22-97.8z"/>
	<path id="path39894" fill="#22314E" d="M89.22,36.559c0,10.885-8.827,19.713-19.714,19.713c-10.886,0-19.712-8.828-19.712-19.713   c0-10.885,8.827-19.713,19.712-19.713C80.394,16.846,89.22,25.673,89.22,36.559z"/>
	<path id="path39896" fill="#22314E" d="M20.432,36.559c0,10.885-8.827,19.713-19.714,19.713c-10.886,0-19.712-8.828-19.712-19.713   c0-10.885,8.827-19.713,19.712-19.713C11.605,16.846,20.432,25.673,20.432,36.559z"/>
</g>
</svg> 