<?xml version="1.0" encoding="UTF-8"?>
<svg xmlns="http://www.w3.org/2000/svg" xmlns:xlink="http://www.w3.org/1999/xlink" width="114px" height="128px" viewBox="0 0 128 128" version="1.1">
<defs>
<radialGradient id="radial0" gradientUnits="userSpaceOnUse" cx="322" cy="207.3" fx="322" fy="207.3" r="800.8" gradientTransform="matrix(0.11875,0,0,0.118133,0,8.730804)">
<stop offset="0.064" style="stop-color:rgb(68.235294%,49.803922%,88.627451%);stop-opacity:1;"/>
<stop offset="1" style="stop-color:rgb(0%,47.058824%,83.137255%);stop-opacity:1;"/>
</radialGradient>
<linearGradient id="linear0" gradientUnits="userSpaceOnUse" x1="324.3" y1="860.8" x2="210" y2="663.2" gradientTransform="matrix(0.11875,0,0,0.118133,0,8.730804)">
<stop offset="0" style="stop-color:rgb(6.666667%,29.019608%,54.509804%);stop-opacity:1;"/>
<stop offset="1" style="stop-color:rgb(0%,47.058824%,83.137255%);stop-opacity:0;"/>
</linearGradient>
<radialGradient id="radial1" gradientUnits="userSpaceOnUse" cx="154.3" cy="824.4" fx="154.3" fy="824.4" r="745.2" gradientTransform="matrix(0.11875,0,0,0.118133,0,8.730804)">
<stop offset="0.134" style="stop-color:rgb(83.529412%,61.568627%,100%);stop-opacity:1;"/>
<stop offset="1" style="stop-color:rgb(36.862745%,26.27451%,56.078431%);stop-opacity:1;"/>
</radialGradient>
<linearGradient id="linear1" gradientUnits="userSpaceOnUse" x1="872.6" y1="561" x2="750.1" y2="736.6" gradientTransform="matrix(0.11875,0,0,0.118133,0,8.730804)">
<stop offset="0" style="stop-color:rgb(28.627451%,20.392157%,45.490196%);stop-opacity:1;"/>
<stop offset="1" style="stop-color:rgb(54.901961%,40%,72.941176%);stop-opacity:0;"/>
</linearGradient>
<radialGradient id="radial2" gradientUnits="userSpaceOnUse" cx="889.3" cy="588.1" fx="889.3" fy="588.1" r="598.1" gradientTransform="matrix(0.11875,0,0,0.118133,0,8.730804)">
<stop offset="0.058" style="stop-color:rgb(31.372549%,90.196078%,100%);stop-opacity:1;"/>
<stop offset="1" style="stop-color:rgb(26.27451%,42.745098%,80.392157%);stop-opacity:1;"/>
</radialGradient>
<linearGradient id="linear2" gradientUnits="userSpaceOnUse" x1="311.4" y1="25.4" x2="491.7" y2="25.4" gradientTransform="matrix(0.11875,0,0,0.118133,0,8.730804)">
<stop offset="0" style="stop-color:rgb(17.647059%,24.705882%,50.196078%);stop-opacity:1;"/>
<stop offset="1" style="stop-color:rgb(26.27451%,42.745098%,80.392157%);stop-opacity:0;"/>
</linearGradient>
</defs>
<g id="surface1">
<path style=" stroke:none;fill-rule:nonzero;fill:url(#radial0);" d="M 45.835938 11.636719 L 45.195312 12.027344 C 44.1875 12.640625 43.226562 13.328125 42.320312 14.070312 L 44.175781 12.78125 L 59.847656 12.78125 L 62.699219 34.246094 L 48.449219 48.421875 L 34.199219 58.273438 L 34.199219 69.640625 C 34.199219 77.578125 38.367188 84.9375 45.195312 89.039062 L 60.195312 98.078125 L 28.5 116.46875 L 22.382812 116.46875 L 10.996094 109.605469 C 4.167969 105.492188 0 98.144531 0 90.207031 L 0 52.003906 C 0 44.066406 4.167969 36.695312 10.996094 32.59375 L 45.195312 12.015625 C 45.410156 11.882812 45.625 11.753906 45.835938 11.636719 Z M 45.835938 11.636719 "/>
<path style=" stroke:none;fill-rule:nonzero;fill:url(#linear0);" d="M 45.835938 11.636719 L 45.195312 12.027344 C 44.1875 12.640625 43.226562 13.328125 42.320312 14.070312 L 44.175781 12.78125 L 59.847656 12.78125 L 62.699219 34.246094 L 48.449219 48.421875 L 34.199219 58.273438 L 34.199219 69.640625 C 34.199219 77.578125 38.367188 84.9375 45.195312 89.039062 L 60.195312 98.078125 L 28.5 116.46875 L 22.382812 116.46875 L 10.996094 109.605469 C 4.167969 105.492188 0 98.144531 0 90.207031 L 0 52.003906 C 0 44.066406 4.167969 36.695312 10.996094 32.59375 L 45.195312 12.015625 C 45.410156 11.882812 45.625 11.753906 45.835938 11.636719 Z M 45.835938 11.636719 "/>
<path style=" stroke:none;fill-rule:nonzero;fill:url(#radial1);" d="M 111.152344 76.773438 L 114 81.027344 L 114 90.207031 C 114 98.136719 109.832031 105.492188 103.003906 109.605469 L 68.804688 130.207031 C 61.546875 134.578125 52.453125 134.578125 45.195312 130.207031 L 11.789062 110.089844 C 18.90625 114 27.609375 113.847656 34.601562 109.628906 L 68.804688 89.039062 C 75.632812 84.925781 79.800781 77.566406 79.800781 69.628906 L 79.800781 56.929688 Z M 111.152344 76.773438 "/>
<path style=" stroke:none;fill-rule:nonzero;fill:url(#linear1);" d="M 111.152344 76.773438 L 114 81.027344 L 114 90.207031 C 114 98.136719 109.832031 105.492188 103.003906 109.605469 L 68.804688 130.207031 C 61.546875 134.578125 52.453125 134.578125 45.195312 130.207031 L 11.789062 110.089844 C 18.90625 114 27.609375 113.847656 34.601562 109.628906 L 68.804688 89.039062 C 75.632812 84.925781 79.800781 77.566406 79.800781 69.628906 L 79.800781 56.929688 Z M 111.152344 76.773438 "/>
<path style=" stroke:none;fill-rule:nonzero;fill:url(#radial2);" d="M 114 52.003906 L 114 90.207031 C 114 90.453125 113.996094 90.699219 113.988281 90.953125 C 113.738281 83.296875 109.617188 76.265625 103.003906 72.289062 L 68.804688 51.707031 C 61.546875 47.335938 52.453125 47.335938 45.195312 51.707031 L 34.199219 58.324219 L 34.199219 31.4375 C 34.199219 23.496094 38.367188 16.140625 45.195312 12.027344 L 45.875 11.613281 C 53.023438 7.640625 61.773438 7.785156 68.804688 12.015625 L 103.003906 32.59375 C 109.832031 36.695312 114 44.066406 114 52.003906 Z M 114 52.003906 "/>
<path style=" stroke:none;fill-rule:nonzero;fill:url(#linear2);" d="M 114 52.003906 L 114 90.207031 C 114 90.453125 113.996094 90.699219 113.988281 90.953125 C 113.738281 83.296875 109.617188 76.265625 103.003906 72.289062 L 68.804688 51.707031 C 61.546875 47.335938 52.453125 47.335938 45.195312 51.707031 L 34.199219 58.324219 L 34.199219 31.4375 C 34.199219 23.496094 38.367188 16.140625 45.195312 12.027344 L 45.875 11.613281 C 53.023438 7.640625 61.773438 7.785156 68.804688 12.015625 L 103.003906 32.59375 C 109.832031 36.695312 114 44.066406 114 52.003906 Z M 114 52.003906 "/>
</g>
</svg>
