<?xml version="1.0" encoding="UTF-8" standalone="no"?>
<svg
   width="128"
   height="128"
   viewBox="0 0 128 128"
   version="1.1"
   id="svg12"
   sodipodi:docname="MAXScript.svg"
   inkscape:version="1.3.2 (091e20e, 2023-11-25, custom)"
   xmlns:inkscape="http://www.inkscape.org/namespaces/inkscape"
   xmlns:sodipodi="http://sodipodi.sourceforge.net/DTD/sodipodi-0.dtd"
   xmlns="http://www.w3.org/2000/svg"
   xmlns:svg="http://www.w3.org/2000/svg"
   xmlns:rdf="http://www.w3.org/1999/02/22-rdf-syntax-ns#"
   xmlns:cc="http://creativecommons.org/ns#"
   xmlns:dc="http://purl.org/dc/elements/1.1/">
  <defs
     id="defs12" />
  <sodipodi:namedview
     id="namedview12"
     pagecolor="#ffffff"
     bordercolor="#111111"
     borderopacity="1"
     inkscape:showpageshadow="0"
     inkscape:pageopacity="0"
     inkscape:pagecheckerboard="1"
     inkscape:deskcolor="#d1d1d1"
     inkscape:zoom="4.2592135"
     inkscape:cx="72.196428"
     inkscape:cy="72.196428"
     inkscape:window-width="1920"
     inkscape:window-height="1009"
     inkscape:window-x="-8"
     inkscape:window-y="-8"
     inkscape:window-maximized="1"
     inkscape:current-layer="svg12" />
  <title
     id="title1">file_type_maxscript</title>
  <path
     d="M 56.653892,25.492703 83.196161,0.06473475 H 24.106275 L 13.031774,25.346565 56.676726,25.492703 Z M 13.031774,25.346565 44.286985,37.220257 56.653892,25.492703 M 56.594524,42.033669 44.264151,37.224824 14.926998,64.45668 43.633932,91.049184 56.457519,86.025699 56.653892,25.492703 m 0,0 L 115.109,63.744259 83.196161,0.06473475 M 115.109,63.744259 56.612791,42.033669 m -0.159838,44.00573 -0.146138,16.828681 M 83.26923,127.93527 43.633932,91.067451 12.812567,102.65344 24.033206,127.93527 Z m 0,0 L 115.109,63.744259 56.311382,102.87265 M 115.109,63.744259 56.457519,86.039399"
     style="fill:none;stroke:#1d1d1b;stroke-width:0.129469px;stroke-miterlimit:22.9256"
     id="path1" />
  <polygon
     points="14.391,11.19 27.2,15.944 14.405,7.568 "
     style="fill:#181b17;fill-rule:evenodd"
     id="polygon1"
     transform="matrix(4.5668047,0,0,4.5668047,-9.108095,-9.0688746)" />
  <polygon
     points="14.357,20.826 14.325,24.509 14.326,24.511 27.2,15.944 "
     style="fill:#1a1d1a;fill-rule:evenodd"
     id="polygon2"
     transform="matrix(4.5668047,0,0,4.5668047,-9.108095,-9.0688746)" />
  <polygon
     points="14.405,7.568 27.2,15.944 20.212,2 "
     style="fill:#005f5e;fill-rule:evenodd"
     id="polygon3"
     transform="matrix(4.5668047,0,0,4.5668047,-9.108095,-9.0688746)" />
  <polygon
     points="27.2,15.944 14.326,24.511 20.228,30 "
     style="fill:#004242;fill-rule:evenodd"
     id="polygon4"
     transform="matrix(4.5668047,0,0,4.5668047,-9.108095,-9.0688746)" />
  <polygon
     points="14.357,20.826 27.2,15.944 14.391,11.19 "
     style="fill:#005152;fill-rule:evenodd"
     id="polygon5"
     transform="matrix(4.5668047,0,0,4.5668047,-9.108095,-9.0688746)" />
  <polygon
     points="11.549,21.927 14.357,20.826 14.391,11.19 11.692,10.137 5.263,16.104 "
     style="fill:#00696b;fill-rule:evenodd"
     id="polygon6"
     transform="matrix(4.5668047,0,0,4.5668047,-9.108095,-9.0688746)" />
  <polygon
     points="11.692,10.137 14.391,11.19 14.405,7.568 "
     style="fill:#1b2725;fill-rule:evenodd"
     id="polygon7"
     transform="matrix(4.5668047,0,0,4.5668047,-9.108095,-9.0688746)" />
  <polygon
     points="14.357,20.826 11.549,21.927 14.325,24.509 "
     style="fill:#1c2624;fill-rule:evenodd"
     id="polygon8"
     transform="matrix(4.5668047,0,0,4.5668047,-9.108095,-9.0688746)" />
  <polygon
     points="14.326,24.511 14.325,24.512 4.8,24.464 7.257,30 20.228,30 "
     style="fill:#006466;fill-rule:evenodd"
     id="polygon9"
     transform="matrix(4.5668047,0,0,4.5668047,-9.108095,-9.0688746)" />
  <polygon
     points="14.405,7.568 20.212,2 7.273,2 4.848,7.536 "
     style="fill:#00767a;fill-rule:evenodd"
     id="polygon10"
     transform="matrix(4.5668047,0,0,4.5668047,-9.108095,-9.0688746)" />
  <polygon
     points="14.405,7.568 4.848,7.536 11.692,10.137 "
     style="fill:#1e3938;fill-rule:evenodd"
     id="polygon11"
     transform="matrix(4.5668047,0,0,4.5668047,-9.108095,-9.0688746)" />
  <polygon
     points="4.8,24.464 14.325,24.512 14.325,24.509 11.549,21.927 "
     style="fill:#20302e;fill-rule:evenodd"
     id="polygon12"
     transform="matrix(4.5668047,0,0,4.5668047,-9.108095,-9.0688746)" />
  <metadata
     id="metadata12">
    <rdf:RDF>
      <cc:Work
         rdf:about="">
        <dc:title>file_type_maxscript</dc:title>
      </cc:Work>
    </rdf:RDF>
  </metadata>
</svg>
