<svg xmlns="http://www.w3.org/2000/svg" viewBox="0 0 128 128"><path fill="#FF830F" d="M85.8 6c0 0-0.5-0.1-1-0.1 -0.5 0-1 0.2-1.5 0.4 -3.7 1.5-6.6 6.3-10.1 12.2 -5.1 8.6-11.5 19.2-22.5 21.9 -4.3 1.1-9.4 7.2-14.3 13.4 -0.4 0.6-0.8 1.1-1.2 1.5l-0.1 0.1L0 70l28.5 20c12-5.6 15.6 5.1 25.5 32.1 19.9-2.2 33.3-34.1 44.4-36.2 13.8-2.6 14.9 7.9 29.6 17C113.2 70.9 97.5 9 85.8 6zM43 79.1l-14.2 7.2L6.6 70.7l29.8-12.3 5.8 4.3 8.9 6.7C48.6 72.8 45.9 76.1 43 79.1zM53 66.7l-8.8-6.6L38.8 56c0.1-0.1 0.1-0.2 0.2-0.3 3.1-4 8.9-11.4 12.5-12.2C61.6 41 67.9 33 72.9 25.2 68.1 37.2 62.2 53 53 66.7z"/></svg>