<?xml version="1.0" encoding="UTF-8"?>
<svg xmlns="http://www.w3.org/2000/svg" xmlns:xlink="http://www.w3.org/1999/xlink" width="128px" height="128px" viewBox="0 0 128 128" version="1.1">
<defs>
<linearGradient id="linear0" gradientUnits="userSpaceOnUse" x1="16.8" y1="15.37" x2="15.01" y2="9.59" >
<stop offset="0" style="stop-color:rgb(33.333333%,6.666667%,13.333333%);stop-opacity:1;"/>
<stop offset="0.1" style="stop-color:rgb(33.333333%,13.333333%,13.333333%);stop-opacity:1;"/>
<stop offset="0.23" style="stop-color:rgb(33.333333%,13.333333%,20%);stop-opacity:1;"/>
<stop offset="0.36" style="stop-color:rgb(33.333333%,20%,26.666667%);stop-opacity:1;"/>
<stop offset="0.51" style="stop-color:rgb(40%,26.666667%,33.333333%);stop-opacity:1;"/>
<stop offset="0.66" style="stop-color:rgb(33.333333%,40%,53.333333%);stop-opacity:1;"/>
<stop offset="0.81" style="stop-color:rgb(20%,53.333333%,80%);stop-opacity:1;"/>
<stop offset="0.84" style="stop-color:rgb(13.333333%,60%,86.666667%);stop-opacity:1;"/>
</linearGradient>
<linearGradient id="linear1" gradientUnits="userSpaceOnUse" x1="2" y1="17.96" x2="13.27" y2="17.96" >
<stop offset="0" style="stop-color:rgb(33.333333%,66.666667%,93.333333%);stop-opacity:1;"/>
<stop offset="0.24" style="stop-color:rgb(33.333333%,66.666667%,86.666667%);stop-opacity:1;"/>
<stop offset="0.49" style="stop-color:rgb(33.333333%,66.666667%,86.666667%);stop-opacity:1;"/>
<stop offset="0.75" style="stop-color:rgb(40%,60%,80%);stop-opacity:1;"/>
<stop offset="1" style="stop-color:rgb(40%,53.333333%,66.666667%);stop-opacity:1;"/>
</linearGradient>
<clipPath id="clip1">
  <path d="M 9 3 L 30 3 L 30 29 L 9 29 Z M 9 3 "/>
</clipPath>
<clipPath id="clip2">
  <path d="M 20.800781 3.300781 C 18.621094 3.300781 17.128906 14.78125 9.078125 21.191406 C 11.339844 20.820312 13.300781 26.429688 14.199219 28.699219 C 18.199219 28.019531 21.398438 20.371094 24.628906 20.488281 C 26.480469 20.558594 28.101562 22.351562 30 24.121094 C 25.660156 15 23.628906 3.300781 20.800781 3.300781 Z M 20.800781 3.300781 "/>
</clipPath>
<linearGradient id="linear2" gradientUnits="userSpaceOnUse" x1="14.6" y1="14.37" x2="21.6" y2="16.7" >
<stop offset="0" style="stop-color:rgb(40%,6.666667%,13.333333%);stop-opacity:1;"/>
<stop offset="0.3" style="stop-color:rgb(53.333333%,13.333333%,13.333333%);stop-opacity:1;"/>
<stop offset="0.44" style="stop-color:rgb(53.333333%,13.333333%,13.333333%);stop-opacity:0.8;"/>
<stop offset="0.63" style="stop-color:rgb(60%,13.333333%,13.333333%);stop-opacity:0.521569;"/>
<stop offset="0.86" style="stop-color:rgb(73.333333%,20%,20%);stop-opacity:0.211765;"/>
<stop offset="1" style="stop-color:rgb(80%,20%,20%);stop-opacity:0;"/>
</linearGradient>
<linearGradient id="linear3" gradientUnits="userSpaceOnUse" x1="27.17" y1="14.12" x2="22.12" y2="15.36" >
<stop offset="0.07" style="stop-color:rgb(80%,20%,20%);stop-opacity:1;"/>
<stop offset="0.28" style="stop-color:rgb(86.666667%,26.666667%,20%);stop-opacity:1;"/>
<stop offset="0.41" style="stop-color:rgb(86.666667%,26.666667%,20%);stop-opacity:1;"/>
<stop offset="1" style="stop-color:rgb(80%,20%,20%);stop-opacity:0;"/>
</linearGradient>
<radialGradient id="radial0" gradientUnits="userSpaceOnUse" cx="13.42" cy="30.06" fx="13.13" fy="30.43" r="10.64" >
<stop offset="0.17" style="stop-color:rgb(100%,100%,26.666667%);stop-opacity:1;"/>
<stop offset="0.23" style="stop-color:rgb(100%,93.333333%,26.666667%);stop-opacity:1;"/>
<stop offset="0.36" style="stop-color:rgb(100%,73.333333%,26.666667%);stop-opacity:0.878431;"/>
<stop offset="0.55" style="stop-color:rgb(93.333333%,46.666667%,26.666667%);stop-opacity:0.760784;"/>
<stop offset="0.58" style="stop-color:rgb(93.333333%,46.666667%,26.666667%);stop-opacity:0.741176;"/>
<stop offset="0.8" style="stop-color:rgb(100%,53.333333%,26.666667%);stop-opacity:0;"/>
</radialGradient>
<clipPath id="clip3">
  <path d="M 9 3 L 22 3 L 22 23 L 9 23 Z M 9 3 "/>
</clipPath>
<clipPath id="clip4">
  <path d="M 20.800781 3.300781 C 18.621094 3.300781 17.128906 14.78125 9.078125 21.191406 C 11.339844 20.820312 13.300781 26.429688 14.199219 28.699219 C 18.199219 28.019531 21.398438 20.371094 24.628906 20.488281 C 26.480469 20.558594 28.101562 22.351562 30 24.121094 C 25.660156 15 23.628906 3.300781 20.800781 3.300781 Z M 20.800781 3.300781 "/>
</clipPath>
<clipPath id="clip5">
  <path d="M 9 3 L 22 3 L 22 22 L 9 22 Z M 9 3 "/>
</clipPath>
<clipPath id="clip6">
  <path d="M 20.800781 3.300781 C 18.621094 3.300781 17.128906 14.78125 9.078125 21.191406 C 11.339844 20.820312 13.300781 26.429688 14.199219 28.699219 C 18.199219 28.019531 21.398438 20.371094 24.628906 20.488281 C 26.480469 20.558594 28.101562 22.351562 30 24.121094 C 25.660156 15 23.628906 3.300781 20.800781 3.300781 Z M 20.800781 3.300781 "/>
</clipPath>
<radialGradient id="radial1" gradientUnits="userSpaceOnUse" cx="181.07" cy="252.92" fx="181.07" fy="252.92" r="1.4" gradientTransform="matrix(1.6467,-0.1244,0.4849,6.4207,-399.12,-1588.7)">
<stop offset="0" style="stop-color:rgb(100%,60%,26.666667%);stop-opacity:1;"/>
<stop offset="0.41" style="stop-color:rgb(100%,53.333333%,26.666667%);stop-opacity:0.8;"/>
<stop offset="0.94" style="stop-color:rgb(100%,53.333333%,26.666667%);stop-opacity:0;"/>
</radialGradient>
<radialGradient id="radial2" gradientUnits="userSpaceOnUse" cx="2.38" cy="95.34" fx="2.38" fy="95.34" r="1.4" gradientTransform="matrix(0.9518,-0.0719,0.2798,3.7052,-7.56,-344.39)">
<stop offset="0.24" style="stop-color:rgb(100%,100%,26.666667%);stop-opacity:1;"/>
<stop offset="0.44" style="stop-color:rgb(100%,93.333333%,26.666667%);stop-opacity:0.709804;"/>
<stop offset="0.79" style="stop-color:rgb(100%,86.666667%,26.666667%);stop-opacity:0.211765;"/>
<stop offset="0.94" style="stop-color:rgb(93.333333%,80%,26.666667%);stop-opacity:0;"/>
</radialGradient>
</defs>
<g id="surface1">
<path style=" stroke:none;fill-rule:nonzero;fill:rgb(26.666667%,60%,86.666667%);fill-opacity:1;" d="M 2 17.550781 L 9.96875 14.328125 C 9.96875 14.328125 12.019531 11.730469 12.691406 11.378906 C 13.351562 11.03125 14.589844 11.21875 16.859375 8.398438 C 19.058594 5.648438 19.761719 3.300781 20.789062 3.300781 C 22.421875 3.300781 23.621094 6.820312 25.441406 12.148438 C 26.578125 15.5 27.839844 19.410156 30 24.121094 C 28.101562 22.351562 26.480469 20.441406 24.628906 20.488281 C 22.910156 20.53125 21 22.570312 18.910156 25.191406 C 17.25 27.289062 15.050781 28.730469 14.191406 28.699219 C 14.191406 28.699219 11.96875 22.421875 10.109375 21.398438 C 9.011719 20.800781 7.71875 21.601562 7.71875 21.601562 L 2 17.539062 Z M 2 17.550781 "/>
<path style=" stroke:none;fill-rule:nonzero;fill:rgb(26.666667%,60%,86.666667%);fill-opacity:1;" d="M 16.859375 8.398438 C 14.589844 11.21875 13.359375 11.03125 12.691406 11.378906 C 12.019531 11.71875 9.96875 14.328125 9.96875 14.328125 L 2 17.550781 L 7.449219 21.398438 L 7.71875 21.601562 C 7.71875 21.601562 8.339844 21.21875 9.078125 21.191406 C 14.78125 16.589844 17.089844 9.878906 18.738281 6.101562 C 19.121094 5.230469 19.460938 4.511719 19.800781 4.019531 C 19.128906 4.921875 18.320312 6.570312 16.859375 8.398438 Z M 16.859375 8.398438 "/>
<path style=" stroke:none;fill-rule:nonzero;fill:url(#linear0);" d="M 19.800781 4.019531 C 19.128906 4.921875 18.320312 6.570312 16.859375 8.398438 C 14.589844 11.21875 13.359375 11.03125 12.691406 11.378906 C 12.019531 11.71875 9.96875 14.320312 9.96875 14.328125 L 13.269531 16.738281 C 16.070312 12.921875 17.570312 8.78125 18.738281 6.101562 C 19.121094 5.230469 19.460938 4.519531 19.800781 4.019531 Z M 19.800781 4.019531 "/>
<path style=" stroke:none;fill-rule:nonzero;fill:url(#linear1);" d="M 9.96875 14.328125 L 2 17.550781 L 7.449219 21.398438 L 7.71875 21.601562 C 7.71875 21.601562 8.339844 21.21875 9.078125 21.191406 C 7.941406 31.839844 -0.246094 40.382812 -10.839844 41.972656 C -21.429688 43.5625 -31.761719 37.804688 -35.984375 27.960938 C -40.203125 18.113281 -37.246094 6.660156 -28.785156 0.0859375 C -20.328125 -6.484375 -8.5 -6.519531 0 0 L -3.300781 -2.410156 Z M 9.96875 14.328125 "/>
<g clip-path="url(#clip1)" clip-rule="nonzero">
<g clip-path="url(#clip2)" clip-rule="nonzero">
<path style=" stroke:none;fill-rule:nonzero;fill:rgb(100%,53.333333%,26.666667%);fill-opacity:1;" d="M 8 3 L 31 3 L 31 29 L 8 29 Z M 8 3 "/>
<path style=" stroke:none;fill-rule:nonzero;fill:url(#linear2);" d="M 8 3 L 31 3 L 31 29 L 8 29 Z M 8 3 "/>
<path style=" stroke:none;fill-rule:nonzero;fill:url(#linear3);" d="M 8 3 L 31 3 L 31 29 L 8 29 Z M 8 3 "/>
<path style=" stroke:none;fill-rule:nonzero;fill:url(#radial0);" d="M 8 3 L 31 3 L 31 29 L 8 29 Z M 8 3 "/>
</g>
</g>
<g clip-path="url(#clip3)" clip-rule="nonzero">
<g clip-path="url(#clip4)" clip-rule="nonzero">
<path style="fill:none;stroke-width:1.5;stroke-linecap:butt;stroke-linejoin:bevel;stroke:rgb(26.666667%,6.666667%,13.333333%);stroke-opacity:1;stroke-miterlimit:10;" d="M 21 1.878906 C 19.800781 3.300781 16.351562 17.269531 9 21.859375 "/>
</g>
</g>
<g clip-path="url(#clip5)" clip-rule="nonzero">
<g clip-path="url(#clip6)" clip-rule="nonzero">
<path style="fill:none;stroke-width:0.39;stroke-linecap:butt;stroke-linejoin:bevel;stroke:rgb(20%,46.666667%,73.333333%);stroke-opacity:1;stroke-miterlimit:10;" d="M 20.929688 3.101562 C 18.648438 3.648438 17.128906 15.578125 8.75 21.421875 "/>
</g>
</g>
<path style=" stroke:none;fill-rule:nonzero;fill:url(#radial1);" d="M 24.328125 12.558594 C 24.691406 17.398438 23.808594 21.410156 22.359375 21.519531 C 20.910156 21.621094 19.441406 17.800781 19.070312 12.960938 C 18.710938 8.121094 19.589844 4.109375 21.039062 4 C 22.488281 3.898438 23.960938 7.730469 24.328125 12.558594 Z M 24.328125 12.558594 "/>
<path style=" stroke:none;fill-rule:nonzero;fill:url(#radial2);" d="M 22.910156 8.601562 C 23.121094 11.378906 22.609375 13.699219 21.78125 13.761719 C 20.941406 13.820312 20.078125 11.609375 19.878906 8.820312 C 19.679688 6.03125 20.179688 3.71875 21.011719 3.648438 C 21.851562 3.589844 22.710938 5.800781 22.910156 8.589844 Z M 22.910156 8.601562 "/>
</g>
</svg>
