<?xml version="1.0" encoding="UTF-8" standalone="no"?>
<svg
   xmlns:dc="http://purl.org/dc/elements/1.1/"
   xmlns:cc="http://creativecommons.org/ns#"
   xmlns:rdf="http://www.w3.org/1999/02/22-rdf-syntax-ns#"
   xmlns:svg="http://www.w3.org/2000/svg"
   xmlns="http://www.w3.org/2000/svg"
   xmlns:sodipodi="http://sodipodi.sourceforge.net/DTD/sodipodi-0.dtd"
   xmlns:inkscape="http://www.inkscape.org/namespaces/inkscape"
   viewBox="0 0 128 128"
   version="1.1"
   id="svg10"
   sodipodi:docname="matlab-line.svg"
   inkscape:version="1.0.2-2 (e86c870879, 2021-01-15)">
  <metadata
     id="metadata16">
    <rdf:RDF>
      <cc:Work
         rdf:about="">
        <dc:format>image/svg+xml</dc:format>
        <dc:type
           rdf:resource="http://purl.org/dc/dcmitype/StillImage" />
      </cc:Work>
    </rdf:RDF>
  </metadata>
  <defs
     id="defs14" />
  <sodipodi:namedview
     pagecolor="#ffffff"
     bordercolor="#666666"
     borderopacity="1"
     objecttolerance="10"
     gridtolerance="10"
     guidetolerance="10"
     inkscape:pageopacity="0"
     inkscape:pageshadow="2"
     inkscape:window-width="1440"
     inkscape:window-height="748"
     id="namedview12"
     showgrid="false"
     inkscape:zoom="4.53125"
     inkscape:cx="64"
     inkscape:cy="64"
     inkscape:window-x="-6"
     inkscape:window-y="-6"
     inkscape:window-maximized="1"
     inkscape:current-layer="svg10" />
  <path
     fill="#FF830F"
     d="M85.7,10.1c0.3,0.1,2.2,0.7,6,7.2c2.6,4.4,5.6,10.9,9,19.1c6.3,15.2,12.8,33.9,17.5,47.5c1.5,4.4,2.8,8.1,3.8,11c-1.3-1.1-2.7-2.2-4.1-3.3c-7.2-5.6-12.6-8.3-16.3-8.3c-0.1,0-0.1,0-0.2,0c-7.1,0.2-12.5,6.4-20.1,14.9c-2.4,2.7-5.1,5.8-8.2,9.1c-8,8.4-13.2,10.7-15.6,11.4c-3.6-11.6-7.6-20.2-12.1-25.5c-2.6-3.1-5.2-5.2-8-6.2l5.9-4.1l0.1-0.1l0.1-0.1c7.4-6,15.3-17.6,23.4-34.3c6-12.4,9.9-23.1,9.9-23.2l0.1-0.2l0-0.2C80,10.4,85.5,10.1,85.7,10.1 M85.7,7.9c-1.3,0-7.7,0.8-11.1,16.6c0,0-15.4,42.5-32.6,56.5l-12.5,8.7c0.8-0.5,2.3-1.1,4.2-1.1c5.3,0,14,5.1,22.2,32.6c0,0,0.1,0,0.2,0c1.1,0,7.6-0.6,18.7-12.3c12.3-13,18.6-23.1,26.7-23.3c0,0,0.1,0,0.1,0c7.5,0,23.6,15.1,26.1,17.5C124,97,98,9.3,86,7.9C86,7.9,85.9,7.9,85.7,7.9L85.7,7.9z M29.6,89.7c-0.5,0.3-0.8,0.6-0.8,0.6L29.6,89.7L29.6,89.7z M127.7,103c0.1,0.2,0.2,0.3,0.3,0.3h0C128,103.3,127.9,103.2,127.7,103L127.7,103z"
     id="path4"
     style="fill:#6dd0c7;fill-opacity:1" />
  <path
     fill="none" stroke="#FF830F" stroke-width="2" stroke-linecap="square" stroke-miterlimit="10"
     d="M55.3,66.5L38.6,53.9L3,69.9l25.9,20C31.4,90,50.7,78.4,55.3,66.5z"
     id="path6"
     style="fill:none;fill-opacity:1;stroke:#6dd0c7;stroke-opacity:1" />
  <path
     fill="none" stroke="#FF830F" stroke-width="2" stroke-linecap="round" stroke-linejoin="round" stroke-miterlimit="10"
     d="M38.8,53.9c0,0,9.1-12.7,14.5-13.8c5.4-1.2,12.4-1.5,25.7-25.1"
     id="path8"
     style="stroke:#6dd0c7;stroke-opacity:1" />
</svg>
