<?xml version="1.0" encoding="UTF-8"?>
<svg xmlns="http://www.w3.org/2000/svg" xmlns:xlink="http://www.w3.org/1999/xlink" width="128px" height="128px" viewBox="0 0 128 128" version="1.1">
<defs>
<linearGradient id="linear0" gradientUnits="userSpaceOnUse" x1="16.803" y1="16.631" x2="15.013" y2="22.411" gradientTransform="matrix(3.90625,0,0,-3.90625,0,125)">
<stop offset="0" style="stop-color:rgb(33.333333%,6.666667%,13.333333%);stop-opacity:1;"/>
<stop offset="0.23" style="stop-color:rgb(33.333333%,13.333333%,20%);stop-opacity:1;"/>
<stop offset="0.36" style="stop-color:rgb(33.333333%,20%,26.666667%);stop-opacity:1;"/>
<stop offset="0.51" style="stop-color:rgb(40%,26.666667%,33.333333%);stop-opacity:1;"/>
<stop offset="0.66" style="stop-color:rgb(33.333333%,40%,53.333333%);stop-opacity:1;"/>
<stop offset="0.84" style="stop-color:rgb(13.333333%,60%,86.666667%);stop-opacity:1;"/>
</linearGradient>
<linearGradient id="linear1" gradientUnits="userSpaceOnUse" x1="29.71" y1="18.983" x2="11.71" y2="14.563" gradientTransform="matrix(3.90625,0,0,3.90625,0,0)">
<stop offset="0.081" style="stop-color:rgb(80%,20%,20%);stop-opacity:1;"/>
<stop offset="0.189" style="stop-color:rgb(87.058824%,32.156863%,22.352941%);stop-opacity:1;"/>
<stop offset="0.313" style="stop-color:rgb(94.117647%,43.137255%,24.313725%);stop-opacity:1;"/>
<stop offset="0.421" style="stop-color:rgb(98.039216%,50.196078%,25.882353%);stop-opacity:1;"/>
<stop offset="0.5" style="stop-color:rgb(99.607843%,52.54902%,26.27451%);stop-opacity:1;"/>
<stop offset="0.58" style="stop-color:rgb(98.039216%,49.803922%,25.882353%);stop-opacity:1;"/>
<stop offset="0.696" style="stop-color:rgb(93.72549%,42.352941%,24.313725%);stop-opacity:1;"/>
<stop offset="0.833" style="stop-color:rgb(86.27451%,29.803922%,21.568627%);stop-opacity:1;"/>
<stop offset="0.916" style="stop-color:rgb(81.176471%,21.176471%,20%);stop-opacity:1;"/>
</linearGradient>
</defs>
<g id="surface1">
<path style=" stroke:none;fill-rule:nonzero;fill:rgb(26.666667%,60%,86.666667%);fill-opacity:1;" d="M 7.8125 68.554688 L 38.945312 55.976562 C 42.109375 51.796875 45.664062 47.9375 49.570312 44.453125 C 52.148438 43.085938 56.992188 43.828125 65.859375 32.8125 C 74.453125 22.070312 77.1875 12.890625 81.210938 12.890625 C 87.578125 12.890625 92.265625 26.640625 99.375 47.460938 C 104.445312 63.359375 110.390625 78.976562 117.1875 94.21875 C 109.765625 87.304688 103.4375 79.84375 96.210938 80.039062 C 89.492188 80.195312 82.03125 88.164062 73.867188 98.398438 C 67.382812 106.601562 58.789062 112.226562 55.429688 112.109375 C 55.429688 112.109375 46.757812 87.578125 39.492188 83.59375 C 36.4375 82.34375 32.960938 82.636719 30.15625 84.375 L 7.8125 68.515625 Z M 7.8125 68.554688 "/>
<path style=" stroke:none;fill-rule:nonzero;fill:url(#linear0);" d="M 77.34375 15.703125 C 74.726562 19.21875 71.5625 25.664062 65.859375 32.8125 C 56.992188 43.828125 52.1875 43.085938 49.570312 44.453125 C 45.644531 47.921875 42.089844 51.789062 38.945312 55.976562 L 51.835938 65.390625 C 62.773438 50.46875 68.632812 34.296875 73.203125 23.828125 C 74.34375 21.007812 75.734375 18.289062 77.34375 15.703125 Z M 77.34375 15.703125 "/>
<path style=" stroke:none;fill-rule:nonzero;fill:url(#linear1);" d="M 81.25 12.890625 C 72.734375 12.890625 66.914062 57.734375 35.46875 82.773438 C 44.296875 81.328125 51.953125 103.242188 55.46875 112.109375 C 71.09375 109.453125 83.59375 79.570312 96.210938 80.039062 C 103.4375 80.3125 109.765625 87.304688 117.1875 94.21875 C 100.234375 58.59375 92.304688 12.890625 81.25 12.890625 Z M 81.25 12.890625 "/>
</g>
</svg>
