<svg xmlns="http://www.w3.org/2000/svg" viewBox="0 0 128 128"><path d="M123.965 91.902c-7.246-18.297-13.262-37.058-20.184-55.476-3.054-7.84-6.047-15.746-10.215-23.082-1.656-2.633-3.238-5.528-5.953-7.215a4.013 4.013 0 00-2.222-.606c-1.27.028-2.536.594-3.504 1.415-3.645 2.886-5.805 7.082-8.227 10.949-4.277 7.172-8.789 14.687-15.941 19.347-3.36 2.371-7.762 2.63-11 5.172-4.43 3.34-7.442 8.078-11.074 12.184-.829.988-2.11 1.383-3.227 1.918C21.578 60.93 10.738 65.336 0 69.98c9.09 7.032 18.777 13.29 28.05 20.079 2.544-.504 5.098-1.547 7.72-1.082 4.16 1.3 6.597 5.285 8.503 8.93 3.875 7.94 6.676 16.323 9.813 24.57 5.246-.375 9.969-3.079 14.027-6.258 7.809-6.324 13.758-14.5 20.305-22.047 3.14-3.3 6.34-7.23 11.05-8.149 4.762-1.152 9.864.555 13.395 3.836 4.957 4.43 9.344 9.551 15.137 12.942-.777-3.836-2.645-7.278-4.035-10.899zM42.96 79.012c-4.57 2.703-9.426 4.93-14.176 7.289-7.457-4.996-14.723-10.29-22.05-15.465 9.878-4.328 19.91-8.348 29.917-12.387 4.746 3.703 9.637 7.223 14.383 10.926-2.23 3.563-4.914 6.871-8.074 9.637zm10.168-12.414C48.414 63.058 43.64 59.609 39 55.977c2.977-4.055 6.238-7.977 10.14-11.172 2.587-1.657 5.743-2.117 8.426-3.61 6.368-3.18 10.711-9.011 14.86-14.582-5.317 13.805-10.992 27.664-19.297 39.985zm0 0"/></svg>
