<svg xmlns="http://www.w3.org/2000/svg" viewBox="0 0 128 128"><path fill="#FF4088" d="M123.6 54.2l-9.3-5.3c-1.8-1-3.9-1-5.7.1l-8.2 4.9c-1.9 1.2-3.1 3.3-3.1 5.5v10c0 2.1 1.1 4 2.9 5.1l8.8 5.1c.7.4 1.5.6 2.3.6.8 0 1.5-.2 2.2-.6l10-5.5c1.4-.8 2.3-2.3 2.3-3.9v-12c.2-1.6-.7-3.2-2.2-4zm-11.9 18.6c-4.9 0-8.9-4-8.9-8.8s4-8.9 8.9-8.9 8.9 4 8.9 8.9-4 8.8-8.9 8.8z"/><path fill="#FF4088" d="M115.7 60.1c1 1 1.6 2.4 1.6 3.9 0 3.1-2.5 5.6-5.6 5.6s-5.6-2.5-5.6-5.6 2.5-5.6 5.6-5.6c1.5 0 2.9.7 4 1.7zm-23.8-5.9l-9.8-5.5c-1.5-.8-3.3-.9-4.8-.1-.1.1-.2.1-.4.2l-8.2 4.9c-2 1.2-3.3 3.4-3.3 5.8v9.9c0 2 1.1 4 2.9 5l8.8 5.1c.7.4 1.6.6 2.4.6.8 0 1.6-.2 2.3-.6l9.8-5.4c1.5-.9 2.5-2.5 2.5-4.2V58.1c.1-1.6-.8-3.1-2.2-3.9zm-3.8 9.7c0 3.9-.7 5.1-2.2 6.7-1.5 1.6-3.5 2.3-5.9 2.3-2.2 0-4-.8-5.6-2.2-1.7-1.5-3-3.9-3-6.6 0-2.6 1-4.9 2.7-6.5 1.5-1.5 3.8-2.4 6.1-2.4 2.8 0 5.7 1.3 7.5 4L85 61.3c-1.1-2.1-2.7-2.8-5.1-2.8-2.6-.1-5.4 2.4-5.2 5.6.1 1.8 1 5 5.1 5.5 2.2.3 4.6-2 4.6-3.2h-4v-3.1h7.7v.6zM62.2 58c0-1.6-.8-3-2.2-3.8l-9.7-5.7c-1.7-1-3.7-1-5.4.1l-8.2 5.1c-1.9 1.2-3 3.2-3 5.4v10.2c0 2 1.1 3.9 2.8 4.9l8.8 5.1c.8.4 1.6.7 2.5.7.8 0 1.6-.2 2.4-.6l9.6-5.3c1.6-.9 2.6-2.6 2.6-4.5L62.2 58zm-7.9 7c0 2.1-.1 3.5-.3 4.4-.2.8-.5 1.6-1 2.2-.5.6-1.1 1.1-1.9 1.4-.8.3-1.8.5-3.1.5-1.6 0-2.7-.2-3.5-.6-.8-.4-1.4-.9-1.9-1.5s-.8-1.2-.9-1.9c-.2-1-.3-2.5-.3-4.4V56h3.5v9.3c0 1.5 0 2.4.1 2.9.1.7.4 1.2.9 1.6.5.4 1.1.5 2.1.5.9 0 1.2-.2 1.7-.5.5-.4.8-.8.8-1.4.1-.6.3-1.6.3-2.9V56h3.5v9zm-26-10.7l-9.5-5.5c-1.7-1-3.8-1-5.5.1l-8.5 5.3C3 55.2 2 57 2 59v10.8c0 2 1.1 3.8 2.8 4.8l8.7 5c.8.5 1.7.7 2.6.7.9 0 1.8-.2 2.5-.7l9.4-5.3c1.6-.9 2.6-2.6 2.6-4.5V58.4c.1-1.7-.9-3.3-2.3-4.1zm-5.4 18.4h-3.6v-7.5h-6v7.5H9.7V55.4h3.6v6.3h6v-6.3h3.6v17.3z"/></svg>
