<svg xmlns="http://www.w3.org/2000/svg" viewBox="0 0 128 128"><path fill="#FF4088" d="M71.2 8.5l36.7 21.3c4.3 2.5 7 7.2 7 12.2v43.7c0 5.6-3 10.7-7.8 13.4l-36.4 20.5c-4.8 2.7-10.7 2.7-15.5-.1l-33.5-19.3c-5.3-3-8.5-8.6-8.5-14.7V44.1c0-6.1 3.2-11.8 8.4-15L54.4 8.8c5.1-3.2 11.6-3.3 16.8-.3z"/><path fill="#C9177E" d="M63 126c-3.5 0-6.9-.9-10-2.7L19.5 104c-6.6-3.8-10.7-10.9-10.7-18.5V44.1c0-7.7 3.9-14.6 10.4-18.7L52.1 5.1c6.5-4 14.6-4.1 21.2-.3L110 26.1c5.7 3.3 9.2 9.4 9.2 15.9v43.7c0 7.1-3.8 13.7-10 17.2l-36.4 20.5c-3 1.7-6.4 2.6-9.8 2.6zm0-115.3c-2.2 0-4.4.6-6.3 1.8l-33 20.3c-4 2.4-6.3 6.7-6.3 11.3v41.5c0 4.5 2.4 8.7 6.3 11l33.5 19.3c3.5 2 7.8 2 11.3.1l36.4-20.5c3.5-2 5.6-5.6 5.6-9.6V42.1c0-3.5-1.9-6.7-4.9-8.5L69 12.3c-1.8-1.1-3.9-1.6-6-1.6z"/><path fill="#FFF" d="M38.6 96.9V30.5h13.9v24.2h23V30.5h13.9v66.4H75.5v-29h-23v29z"/></svg>
