<svg viewBox="0 0 128 128" xmlns="http://www.w3.org/2000/svg"><path d="M43.922 56.383v15.082h2.687V56.383h-2.687zm46.937.25c-.457 0-.828.164-1.16.496-.328.328-.492.7-.492 1.156 0 .453.164.824.492 1.156.332.29.703.454 1.16.454.453 0 .825-.165 1.157-.454.328-.332.496-.703.496-1.156 0-.457-.168-.828-.496-1.156-.332-.332-.704-.496-1.157-.496zm-56.894.37l-5.04 14.462h3.098l.868-2.606h5.785l.867 2.606h3.059L37.52 57.004h-3.555zm45.695 0v14.462h8.348v-2.727h-5.496V57.004H79.66zm-43.875 3.263l1.985 5.91H33.8l1.985-5.91zm18.84.539c-1.324 0-2.273.496-2.895 1.406v-1.074h-2.64v10.328h2.64V65.68c0-.743.168-1.32.497-1.735.375-.414.867-.62 1.449-.62.535 0 .988.163 1.277.495.29.332.457.828.457 1.446v6.199h2.645V65.68c0-.743.164-1.32.496-1.735.328-.414.785-.62 1.402-.62.54 0 .992.163 1.281.495.29.332.453.828.453 1.446v6.199h2.645v-6.363c0-1.282-.371-2.313-1.074-3.098-.7-.785-1.61-1.156-2.809-1.156-1.363 0-2.394.492-3.015 1.445-.622-.992-1.528-1.488-2.809-1.488zm16.441 0c-1.363 0-2.558.535-3.55 1.61-.993 1.073-1.489 2.355-1.489 3.886 0 1.527.496 2.808 1.489 3.883.992 1.03 2.187 1.57 3.55 1.57 1.45 0 2.606-.54 3.391-1.531v1.242h2.645V61.137h-2.645v1.195c-.828-1.031-1.941-1.527-3.39-1.527zm29.293.043c-1.402 0-2.394.492-3.054 1.445v-1.156H94.66v10.328h2.645v-5.578c0-.867.203-1.489.617-1.942.414-.457.95-.66 1.652-.66.621 0 1.117.203 1.489.578.37.371.578.867.578 1.57v6.032h2.644v-6.32c0-1.325-.37-2.399-1.117-3.141-.742-.785-1.691-1.156-2.809-1.156zm-10.824.289v10.328h2.688V61.137h-2.688zm16.904 0v6.32c0 1.32.332 2.395 1.075 3.14.742.786 1.695 1.157 2.808 1.157 1.407 0 2.399-.496 3.059-1.445v1.156h2.683V61.137h-2.644v5.574c0 .871-.203 1.531-.617 1.945-.414.41-.95.617-1.653.617-.62 0-1.117-.164-1.488-.535-.371-.375-.539-.91-.539-1.613v-5.988h-2.684zm11.026 0l3.637 5.039-3.762 5.289h3.058l2.274-3.14 2.23 3.14H128l-3.883-5.29 3.637-5.038h-3.059l-2.066 2.89-2.106-2.89h-3.058zm-45.903 2.27c.829 0 1.532.288 2.067.827.539.496.828 1.2.828 2.067 0 .867-.289 1.57-.828 2.105-.535.578-1.238.828-2.067.828-.824 0-1.484-.289-2.023-.828-.535-.535-.785-1.281-.785-2.105 0-.828.25-1.531.785-2.067.54-.539 1.2-.828 2.023-.828z" fill="#fff"/><path d="M18.902 60.783c-1.71-.03-3.401.63-4.726 1.838-.121.082-.164.207-.082.332.828-.25 1.695-.496 2.601-.539.953-.082 1.946-.164 2.895.25 1.2.496 1.402 1.61.496 2.48-.414.41-.953.7-1.531.868-.328.082-.371.246-.246.578.37.906.62 1.86.496 2.89-.043.165-.082.29.082.415.37.246 1.777 0 2.066-.29.535-.496.328-1.074.207-1.613-.168-.66-.082-1.281.29-1.816.37-.54.905-.785 1.488-1.031.246-.086.453-.208.617-.497.37-.703-.082-1.902-.785-2.48-1.193-.921-2.537-1.362-3.868-1.385zm4.381 4.809a2.224 2.224 0 00-.1.006c-1.117.125-1.859.949-1.777 2.066a1.893 1.893 0 002.024 1.734c1.074-.082 1.86-.992 1.777-2.109-.08-1.037-.896-1.73-1.924-1.697z" fill="#85d82e"/><path d="M13.72 63.95c-.05-.006-.1.015-.161.077.496.743.949 1.528 1.32 2.356.332.906.703 1.816.578 2.851-.125 1.239-1.156 1.774-2.23 1.157-.536-.29-.95-.704-1.282-1.2-.207-.289-.414-.289-.66-.082-.785.66-1.613 1.157-2.644 1.32-.164 0-.332 0-.414.169-.125.41.496 1.691.867 1.898.62.371 1.117 0 1.613-.289.578-.328 1.156-.453 1.816-.246.621.207 1.036.66 1.407 1.156.164.207.328.371.66.453.785.207 1.86-.617 2.191-1.445 1.239-3.18-.168-6.445-2.894-8.098a.41.41 0 00-.166-.078zm-1.775 8.546c-.992 0-1.816.828-1.816 1.902 0 1.196.785 1.942 1.98 1.942.953-.043 1.778-.91 1.778-1.903 0-1.03-.95-1.94-1.942-1.94z" fill="#22c1ff"/><path d="M19.52 52.494c-.033.001-.066.003-.098.006-1.07.082-1.817 1.031-1.735 2.066.083 1.032 1.036 1.817 2.11 1.735.992-.082 1.816-1.031 1.734-2.024-.08-1.002-1.012-1.808-2.011-1.783zm-3.608.578c-.544-.006-1.134.177-1.53.502-2.683 2.149-3.14 5.742-1.609 8.594.04.125.122.246.29.164-.043-.906-.083-1.816.082-2.684.164-.992.328-1.984.949-2.808.742-1.035 1.902-.992 2.52.12.331.54.456 1.118.495 1.74 0 .37.168.452.496.41.993-.165 1.985-.165 2.934.206.125.043.25.125.414 0 .328-.289.414-1.734.207-2.105-.37-.66-.953-.578-1.531-.578-.66.039-1.238-.168-1.692-.703-.414-.496-.539-1.117-.62-1.735-.04-.289-.083-.539-.333-.746-.253-.253-.649-.372-1.072-.377z" fill="#ffc911"/><path d="M4.27 60.807a.66.66 0 00-.258.08c-.164.082-.328.164-.453.25-1.075.66-1.2 1.484-.29 2.394.66.66.993 1.407.743 2.313-.121.457-.371.785-.66 1.156-.207.25-.29.496-.247.828.082.785.868 1.57 1.817 1.652 2.644.25 4.793-.66 6.281-2.89.496-.703.867-1.488 1.031-2.317-.164-.039-.207.043-.328.086-.953.989-1.945 1.942-3.222 2.602-.497.246-1.036.453-1.614.453-.91 0-1.445-.578-1.363-1.488a3.084 3.084 0 01.828-1.942c.246-.289.246-.453-.043-.699-.828-.582-1.57-1.281-1.941-2.234-.051-.18-.153-.25-.281-.244zM1.9 63.393a2.08 2.08 0 00-.2.013c-.95.082-1.778 1.074-1.696 2.067.086 1.035 1.074 1.859 2.066 1.734 1.2-.082 1.82-1.238 1.778-2.187-.077-.93-.953-1.642-1.948-1.627z" fill="#0068d8"/><path d="M6.686 51.662c-.064.001-.13.006-.194.014-1.117.12-1.777.988-1.652 2.187.125.91 1.117 1.696 2.066 1.57 1.114-.163 1.86-1.074 1.735-2.148-.118-.89-.996-1.636-1.955-1.623zm3.398 1.344c-.525-.011-.926.33-1.154.982-.496 1.446-1.446 1.98-2.973 1.692-.207-.04-.414-.082-.496-.082-.785.125-1.242.578-1.363 1.199-.168 1.902.824 3.265 2.187 4.379 1.445 1.238 3.223 1.527 5.082 1.445.164 0 .332 0 .371-.121.043-.207-.164-.207-.289-.25-.867-.371-1.777-.66-2.562-1.2-.785-.534-1.692-.987-2.024-2.023-.246-.785.082-1.488.867-1.734.704-.25 1.407-.25 2.067 0 .414.164.578.082.66-.371.125-.785.375-1.531.867-2.192.582-.824.582-.906-.37-1.445-.04 0-.04-.043-.083-.043-.284-.154-.549-.231-.787-.236z" fill="#ff4546"/></svg>
