<svg viewBox="0 0 128 128" xmlns="http://www.w3.org/2000/svg"><g><path d="m117.69 72.242c5.4531-0.42578 9.8594 3.1992 10.277 8.7422 0.42188 5.7578-3.5664 10.449-9.0195 10.875-5.2422 0.42578-9.8555-3.625-10.277-8.9531-0.41797-5.7578 3.3594-10.023 9.0195-10.664z" /><path d="m51.414 117.66c0-5.543 4.1953-9.8086 9.2305-9.8086 5.0312 0 9.8555 4.6914 9.8555 10.023 0 5.1172-4.1953 9.5938-9.0156 9.8086-6.0859 0-10.07-3.8398-10.07-10.023z" /><path d="m66.305 55.398c-0.83594 0.42578-1.2578-0.21484-1.4648-0.85547-7.7617-14.711-5.4531-33.262 8.1797-44.352 3.5625-2.9844 10.277-3.625 13.211-0.64062 1.2578 1.0664 1.4688 2.3477 1.6797 3.8398 0.41797 3.1992 1.0469 6.3984 3.1445 8.957 2.3086 2.7695 5.2461 3.8359 8.6016 3.625 2.9336 0 5.8711-0.42969 7.7578 2.9844 1.0508 1.918 0.62891 9.3828-1.0469 10.875-0.83984 0.64062-1.4688 0.21094-2.0977 0-4.8242-1.918-9.8594-1.918-14.891-1.0664-1.6797 0.21094-2.5195-0.21484-2.5195-2.1328-0.20703-3.1992-0.83594-6.1836-2.5156-8.957-3.1445-5.7578-9.0195-5.9688-12.793-0.63672-3.1484 4.2617-3.9844 9.3789-4.8242 14.496-0.83984 4.4805-0.62891 9.1719-0.42187 13.863 0 0-0.20703 0 0 0z" /><path d="m71.551 58.598c-0.42188-0.64062-0.21094-1.2812 0.41797-1.707 11.957-11.09 29.785-13.223 43.625-2.3477 3.5664 2.9883 5.875 9.1719 3.9883 12.797-0.83984 1.4922-1.8906 2.1328-3.1484 2.5586-2.9375 1.2773-5.6641 2.5586-7.5508 5.3281-1.8867 2.7734-2.3047 5.9727-1.4688 9.3828 0.62891 2.7734 1.6797 5.7578-1.0469 8.3164-1.4688 1.4922-8.6016 2.7734-10.488 1.4922-0.83984-0.63672-0.62891-1.2773-0.41797-2.1328 0.62891-5.3281-0.62891-10.234-2.5195-14.926-0.62891-1.7031-0.41797-2.5586 1.2617-2.9844 2.9336-0.85156 5.6602-2.3438 7.7578-4.4766 4.6172-4.4805 3.5664-10.238-2.5156-12.797-4.8242-2.1289-9.8594-1.7031-14.684-1.2773-4.6133 0.21094-9.0156 1.4922-13.211 2.7734z" /><path d="m68.824 64.141c0.62891-0.64062 1.0469-0.42578 1.6758 0 13.844 8.5273 20.977 25.375 14.684 41.793-1.6797 4.2656-7.1328 8.5312-11.117 7.4648-1.6758-0.42969-2.5156-1.2812-3.3555-2.3477-1.8867-2.5586-3.9844-4.9023-7.1328-5.9688-3.3555-1.0664-6.2891-0.42578-9.2266 1.2773-2.5156 1.4922-5.0352 3.4141-8.1797 1.4922-1.8867-1.0664-5.0352-7.6758-4.4062-9.8086 0.42188-0.85156 1.2617-0.85156 2.0977-0.85156 5.2461-0.85156 9.4375-3.4102 13.426-6.8242 1.2578-1.0664 2.3047-1.0664 3.3555 0.42578 1.6758 2.5586 3.7734 4.6914 6.5 6.1836 5.4531 3.1992 10.699 0.42969 11.328-5.9688 0.62891-5.332-1.2578-10.023-2.9375-14.715-1.8867-4.2617-4.1953-8.3164-6.7109-12.152z" /><path d="m62.113 65.418c-0.83984 4.2656-2.7266 8.3164-5.2461 11.941-7.5508 11.516-18.457 16.207-31.879 14.926-4.8242-0.42578-8.8086-4.4766-9.2305-8.5273-0.20703-1.707 0.21094-2.9844 1.2617-4.2656 1.4648-1.918 2.7266-3.625 3.3555-5.9688 1.2578-4.6914-0.42188-8.5312-3.7773-11.941-4.6133-4.6914-3.9844-8.957 1.4688-12.367 0.62891-0.42969 1.4688-0.85547 2.3086-1.2812 1.2578-0.64062 2.3047-0.64062 2.7266 0.85156 1.8867 4.9062 5.6602 8.5312 9.8555 11.516 1.4688 1.2812 1.4688 2.1328 0.21094 3.625-2.5156 2.7734-3.9844 6.1836-4.1953 10.023-0.41797 4.6914 2.3086 7.6758 6.9219 7.6758 2.9375 0 5.6641-1.0664 8.1797-2.3438 6.5-3.4141 11.535-8.3164 16.359-13.434 0.62891-0.21484 0.83984-0.64062 1.6797-0.42969z" /><path d="m27.715 20.641c0.41797 0 1.4688 0.21094 2.5156 0.42578 7.7617 1.4922 12.586-1.2773 15.102-8.7422 1.6797-4.9062 5.2422-6.3984 9.8594-3.8398 0.20703 0 0.20703 0.21484 0.41797 0.21484 4.8242 2.7734 4.8242 3.1992 1.8867 7.4648-2.5156 3.4102-3.7734 7.25-4.4023 11.301-0.42188 2.3438-1.2578 2.7695-3.3555 1.918-3.3555-1.2812-6.9219-1.2812-10.488 0-3.9844 1.2812-5.6641 4.9062-4.4062 8.957 1.6797 5.3281 6.293 7.6758 10.277 10.445 3.9883 2.7734 8.6016 4.2656 13.004 6.1875 0.63281 0.21094 1.6797 0.21094 1.4688 1.2773-0.20703 0.64062-1.0469 0.64062-1.8867 0.64062-9.4375 0.42578-18.457-1.0664-25.797-7.4648-6.9219-5.7578-11.957-12.793-11.117-22.602 0.62891-3.1992 2.9375-5.543 6.9219-6.1836z" /><path d="m10.516 80.559c-5.0352 0.64062-10.066-3.625-10.488-8.957-0.41797-5.1172 3.7773-10.234 8.6016-10.66 5.4531-0.64062 10.484 3.1992 10.906 8.3164 0.21094 4.9023-2.9375 10.875-9.0195 11.301z" /><path d="m98.605 4.6484c5.2461-0.42578 10.277 3.8359 10.699 9.168 0.41797 5.1172-3.7773 10.023-8.8125 10.449-5.4531 0.42578-10.277-3.625-10.695-8.957-0.41797-5.332 3.3555-10.234 8.8086-10.66z" /><path d="m43.863 8.6992c0.62891 5.543-3.1445 10.234-8.8086 11.09-4.8242 0.63672-9.8555-3.4141-10.484-8.1055-0.63281-6.1836 2.7266-10.66 8.3867-11.301 5.2461-0.64062 10.277 3.4102 10.906 8.3164z" /></g></svg>
