<svg xmlns="http://www.w3.org/2000/svg" viewBox="0 0 128 128"><path d="M110.293 16.914C98.586-.086 75.668-5 58.02 5.707l-29.856 18.98a33.94 33.94 0 00-15.418 22.938 35.543 35.543 0 003.566 23.102 33.01 33.01 0 00-5.066 12.793 36.517 36.517 0 006.191 27.52c11.727 16.96 34.583 21.897 52.27 11.312l29.879-19a34.025 34.025 0 0015.355-22.938 35.44 35.44 0 00-3.586-23.02c7.938-12.456 7.52-28.48-1.062-40.48zm-55.254 95.773a23.645 23.645 0 01-25.394-9.433c-3.461-4.793-4.73-10.711-3.73-16.586l.585-2.832.54-1.75 1.605 1.062c3.52 2.668 7.46 4.582 11.668 5.875l1.082.375-.122 1.067c-.105 1.48.332 3.144 1.188 4.414 1.75 2.52 4.793 3.73 7.727 2.937.644-.207 1.273-.418 1.812-.754l29.754-18.976c1.5-.961 2.457-2.398 2.832-4.106.328-1.773-.106-3.585-1.066-5.02-1.774-2.46-4.793-3.565-7.727-2.831-.645.226-1.332.48-1.879.812l-11.25 7.145c-10.644 6.328-24.394 3.355-31.46-6.832a21.854 21.854 0 01-3.75-16.586 20.643 20.643 0 019.456-13.875l29.692-18.98c1.875-1.168 3.894-2.02 6.082-2.668 9.605-2.5 19.726 1.27 25.394 9.394a22.027 22.027 0 013.043 19.398l-.543 1.77-1.539-1.062a39.399 39.399 0 00-11.727-5.875l-1.066-.313.106-1.066c.105-1.563-.332-3.207-1.188-4.48-1.754-2.52-4.793-3.583-7.727-2.833-.644.211-1.273.418-1.812.754L45.812 49.977c-1.5 1-2.46 2.394-2.773 4.144-.312 1.707.106 3.582 1.066 4.957 1.708 2.524 4.81 3.586 7.688 2.832.687-.207 1.332-.414 1.855-.75l11.375-7.254c1.856-1.226 3.938-2.12 6.067-2.707 9.668-2.52 19.75 1.274 25.394 9.438 3.461 4.793 4.793 10.707 3.832 16.52a20.487 20.487 0 01-9.332 13.874L61.23 109.97a25.82 25.82 0 01-6.187 2.707zm0 0"/></svg>
