<svg viewBox="0 0 128 128" fill="none" xmlns="http://www.w3.org/2000/svg"><path d="M119.838 16.936C105.553-.076 77.336-5.118 56.942 5.696l-35.829 19c-4.847 2.529-9.006 5.871-12.212 9.814-3.206 3.943-5.387 8.399-6.404 13.083a30.64 30.64 0 00-.688 6.396c.022 5.831 1.74 11.571 5.007 16.73-3.063 3.872-5.154 8.22-6.146 12.782a30.483 30.483 0 00.415 14.412c1.29 4.733 3.702 9.204 7.096 13.152 14.284 17.011 42.564 22.053 62.895 11.24l35.792-19.001c4.844-2.532 8.998-5.878 12.196-9.825 3.197-3.947 5.367-8.407 6.37-13.093.46-2.107.691-4.244.688-6.386-.009-5.82-1.705-11.551-4.945-16.709 3.062-3.869 5.153-8.213 6.147-12.771.444-2.109.67-4.245.676-6.386.002-7.595-2.852-15-8.162-21.178v-.02z" fill="#FF3E00"/><path d="M53.44 112.667a34.23 34.23 0 01-7.16.76c-4.595.001-9.122-.925-13.193-2.7-4.07-1.774-7.563-4.343-10.179-7.487-3.194-3.716-4.91-8.171-4.907-12.74a18.83 18.83 0 01.4-3.833 18.55 18.55 0 01.865-2.782l.676-1.708 1.827 1.156c4.243 2.591 8.984 4.564 14.02 5.834l1.328.333-.125 1.104v.573c-.003 1.381.514 2.73 1.477 3.854.778.958 1.826 1.744 3.052 2.288a9.936 9.936 0 003.983.837 9.923 9.923 0 002.153-.229 8.745 8.745 0 002.204-.802l35.79-19.094c1.073-.566 1.957-1.349 2.568-2.276.61-.927.928-1.968.924-3.026-.01-1.381-.54-2.725-1.515-3.844-.79-.946-1.844-1.718-3.071-2.252a9.997 9.997 0 00-3.977-.81 9.917 9.917 0 00-2.153.23 8.344 8.344 0 00-2.19.801l-13.645 7.25a29.314 29.314 0 01-7.273 2.656c-2.34.502-4.745.758-7.161.76-4.594 0-9.119-.926-13.189-2.698-4.07-1.772-7.564-4.338-10.183-7.478-3.19-3.718-4.906-8.172-4.907-12.74.002-1.285.136-2.567.4-3.833.613-2.816 1.921-5.495 3.844-7.867 1.922-2.373 4.416-4.387 7.323-5.914L67.274 18c2.248-1.19 4.7-2.09 7.273-2.667 2.34-.499 4.745-.75 7.16-.75 4.605-.01 9.144.91 13.228 2.681 4.084 1.77 7.59 4.34 10.219 7.486 3.171 3.727 4.865 8.184 4.845 12.75a18.939 18.939 0 01-.401 3.844 18.529 18.529 0 01-.864 2.781l-.676 1.708-1.827-1.114c-4.24-2.595-8.982-4.568-14.02-5.834l-1.328-.343.125-1.105v-.572c0-1.385-.516-2.735-1.477-3.865-.789-.945-1.84-1.716-3.066-2.25a9.992 9.992 0 00-3.97-.813 9.887 9.887 0 00-2.127.271 8.2 8.2 0 00-2.203.802L42.337 50a7.071 7.071 0 00-2.209 1.79 5.713 5.713 0 00-1.158 2.377 6.057 6.057 0 00-.163 1.104c-.001 1.378.515 2.722 1.477 3.844.788.945 1.84 1.717 3.065 2.25a9.98 9.98 0 003.97.812 9.918 9.918 0 002.153-.23 8.35 8.35 0 002.204-.801l13.67-7.292a29.125 29.125 0 017.273-2.656 34.305 34.305 0 017.16-.76c4.596 0 9.123.925 13.195 2.697 4.072 1.772 7.569 4.339 10.19 7.48 3.19 3.717 4.906 8.171 4.907 12.74.003 1.299-.135 2.596-.413 3.874-.609 2.817-1.917 5.497-3.839 7.87-1.923 2.372-4.418 4.385-7.328 5.911L60.726 110a29.233 29.233 0 01-7.285 2.667z" fill="#fff"/></svg>
