<?xml version="1.0" encoding="UTF-8"?>
<svg xmlns="http://www.w3.org/2000/svg" xmlns:xlink="http://www.w3.org/1999/xlink" width="128pt" height="128pt" viewBox="0 0 128 128" version="1.1">
<g id="surface1">
<path style=" stroke:none;fill-rule:nonzero;fill:rgb(0%,0%,0%);fill-opacity:1;" d="M 110.292969 16.914062 C 98.585938 -0.0859375 75.667969 -5 58.019531 5.707031 L 28.164062 24.6875 C 19.996094 29.8125 14.390625 38.148438 12.746094 47.625 C 11.289062 55.5 12.558594 63.644531 16.3125 70.726562 C 13.746094 74.585938 12.019531 78.9375 11.246094 83.519531 C 9.539062 93.144531 11.769531 103.058594 17.4375 111.039062 C 29.164062 128 52.019531 132.9375 69.707031 122.351562 L 99.585938 103.351562 C 107.707031 98.226562 113.292969 89.890625 114.941406 80.414062 C 116.375 72.558594 115.109375 64.4375 111.355469 57.394531 C 119.292969 44.9375 118.875 28.914062 110.292969 16.914062 Z M 55.039062 112.6875 C 45.4375 115.1875 35.289062 111.414062 29.644531 103.253906 C 26.183594 98.460938 24.914062 92.542969 25.914062 86.667969 L 26.5 83.835938 L 27.039062 82.085938 L 28.644531 83.148438 C 32.164062 85.816406 36.105469 87.730469 40.3125 89.023438 L 41.394531 89.398438 L 41.273438 90.464844 C 41.167969 91.945312 41.605469 93.609375 42.460938 94.878906 C 44.210938 97.398438 47.253906 98.609375 50.1875 97.816406 C 50.832031 97.609375 51.460938 97.398438 52 97.0625 L 81.753906 78.085938 C 83.253906 77.125 84.210938 75.6875 84.585938 73.980469 C 84.914062 72.207031 84.480469 70.394531 83.519531 68.960938 C 81.746094 66.5 78.726562 65.394531 75.792969 66.128906 C 75.148438 66.355469 74.460938 66.609375 73.914062 66.941406 L 62.664062 74.085938 C 52.019531 80.414062 38.269531 77.441406 31.203125 67.253906 C 27.769531 62.460938 26.410156 56.480469 27.453125 50.667969 C 28.492188 44.914062 31.933594 39.875 36.910156 36.792969 L 66.601562 17.8125 C 68.476562 16.644531 70.496094 15.792969 72.683594 15.144531 C 82.289062 12.644531 92.410156 16.414062 98.078125 24.539062 C 102.078125 30.164062 103.203125 37.351562 101.121094 43.9375 L 100.578125 45.707031 L 99.039062 44.644531 C 95.476562 42.039062 91.519531 40.058594 87.3125 38.769531 L 86.246094 38.457031 L 86.351562 37.390625 C 86.457031 35.828125 86.019531 34.183594 85.164062 32.910156 C 83.410156 30.390625 80.371094 29.328125 77.4375 30.078125 C 76.792969 30.289062 76.164062 30.496094 75.625 30.832031 L 45.8125 49.976562 C 44.3125 50.976562 43.351562 52.371094 43.039062 54.121094 C 42.726562 55.828125 43.144531 57.703125 44.105469 59.078125 C 45.8125 61.601562 48.914062 62.664062 51.792969 61.910156 C 52.480469 61.703125 53.125 61.496094 53.648438 61.160156 L 65.023438 53.90625 C 66.878906 52.679688 68.960938 51.785156 71.089844 51.199219 C 80.757812 48.679688 90.839844 52.472656 96.484375 60.636719 C 99.945312 65.429688 101.277344 71.34375 100.316406 77.15625 C 99.316406 82.90625 95.921875 87.949219 90.984375 91.03125 L 61.230469 109.96875 C 59.296875 111.136719 57.210938 112.050781 55.042969 112.675781 Z M 55.039062 112.6875 "/>
</g>
</svg>
