<svg xmlns="http://www.w3.org/2000/svg" viewBox="0 0 128 128"><path d="M 110.43093,16.935847 C 98.552474,-0.076153 75.089104,-5.118154 58.130818,5.695846 l -29.793,19.000001 c -4.030441,2.529 -7.488786,5.871 -10.15468,9.814 -2.665895,3.943 -4.479469,8.399 -5.325138,13.083 a 25.478172,30.64 0 0 0 -0.572094,6.396 c 0.0183,5.831 1.446866,11.571 4.163485,16.729995 -2.546986,3.87201 -4.285721,8.22 -5.110602,12.78201 a 25.347621,30.483 0 0 0 0.345086,14.41199 c 1.072679,4.732998 3.078336,9.203998 5.900559,13.151998 11.877618,17.011 35.393374,22.053 52.299272,11.24 l 29.762238,-19.001 c 4.027946,-2.532 7.482126,-5.877998 10.141386,-9.824998 2.65841,-3.947 4.46282,-8.40699 5.29686,-13.093 0.3825,-2.107 0.57458,-4.244 0.5721,-6.386 -0.007,-5.81999 -1.41778,-11.550995 -4.11194,-16.708995 2.54616,-3.869 4.28489,-8.213 5.11143,-12.771 0.36921,-2.109 0.55713,-4.245 0.56212,-6.386 0.002,-7.595 -2.37152,-15 -6.78697,-21.178 z" fill="#ff3e00" id="path598" style="stroke-width:0.911885" /><path d="m 55.218941,112.66204 a 28.463375,34.23 0 0 1 -5.953776,0.76 c -3.820895,0.001 -7.585244,-0.925 -10.970416,-2.7 -3.384341,-1.774 -6.288887,-4.343 -8.464177,-7.487 -2.655917,-3.716 -4.082827,-8.171 -4.080332,-12.74 a 15.657767,18.83 0 0 1 0.332613,-3.833 15.424937,18.55 0 0 1 0.719276,-2.782 l 0.562116,-1.708 1.51921,1.156 c 3.528195,2.591 7.470493,4.564 11.658097,5.834 l 1.104275,0.333 -0.103941,1.104 v 0.573 c -0.0025,1.381 0.427408,2.73 1.228174,3.854 0.646933,0.958 1.51838,1.744 2.537839,2.288 a 8.2621121,9.936 0 0 0 3.311997,0.837 8.2513022,9.923 0 0 0 1.79029,-0.229 7.2717563,8.745 0 0 0 1.832699,-0.802 l 29.760566,-19.094 c 0.892236,-0.566 1.627311,-1.349 2.135377,-2.276 0.507236,-0.927 0.771662,-1.968 0.768337,-3.026 -0.0084,-1.381 -0.449027,-2.725 -1.259773,-3.844 -0.656912,-0.946 -1.533347,-1.718 -2.553637,-2.252 a 8.3128357,9.997 0 0 0 -3.307008,-0.81 8.246313,9.917 0 0 0 -1.79029,0.23 6.9383115,8.344 0 0 0 -1.821058,0.801 l -11.346268,7.25 a 24.375558,29.314 0 0 1 -6.04774,2.656 c -1.945787,0.502 -3.945624,0.758 -5.954608,0.76 -3.820063,0 -7.582749,-0.926 -10.967089,-2.698 -3.384341,-1.772 -6.289718,-4.338 -8.467502,-7.478 -2.652591,-3.718 -4.079502,-8.172 -4.080334,-12.74 0.0016,-1.285 0.113089,-2.567 0.332615,-3.833 0.509728,-2.816 1.597374,-5.495 3.196411,-7.867 1.598207,-2.373 3.67205,-4.387 6.089317,-5.914 l 29.792168,-18.99 c 1.869286,-1.19 3.908205,-2.09 6.04774,-2.667 1.945787,-0.499 3.945625,-0.75 5.953776,-0.75 3.82921,-0.01 7.603538,0.91 10.999519,2.681 3.395981,1.77 6.311338,4.34 8.497439,7.486 2.636787,3.727 4.045417,8.184 4.028777,12.75 a 15.748404,18.939 0 0 1 -0.33344,3.844 15.407475,18.529 0 0 1 -0.71845,2.781 l -0.56211,1.708 -1.519216,-1.114 c -3.525699,-2.595 -7.468833,-4.568 -11.658096,-5.834 l -1.104275,-0.343 0.103941,-1.105 v -0.572 c 0,-1.385 -0.429072,-2.735 -1.228174,-3.865 -0.65608,-0.945 -1.530022,-1.716 -2.549481,-2.25 a 8.3086779,9.992 0 0 0 -3.301186,-0.813 8.2213671,9.887 0 0 0 -1.768671,0.271 6.8185708,8.2 0 0 0 -1.831867,0.802 l -29.792165,18.99 a 5.8797701,7.071 0 0 0 -1.836857,1.79 4.7505482,5.713 0 0 0 -0.962914,2.377 5.0365955,6.057 0 0 0 -0.135541,1.104 c -8.31e-4,1.378 0.42824,2.722 1.228174,3.844 0.655248,0.945 1.530021,1.717 2.548649,2.25 a 8.2986996,9.98 0 0 0 3.301186,0.812 8.2471446,9.918 0 0 0 1.79029,-0.23 6.9433007,8.35 0 0 0 1.832699,-0.801 l 11.367057,-7.292 a 24.218399,29.125 0 0 1 6.04774,-2.656 28.52574,34.305 0 0 1 5.953776,-0.76 c 3.821727,0 7.586076,0.925 10.972078,2.697 3.386003,1.772 6.293877,4.339 8.473325,7.48 2.652591,3.717 4.079498,8.171 4.080338,12.74 0.003,1.299 -0.11226,2.596 -0.34343,3.874 -0.506403,2.817 -1.594046,5.497 -3.192254,7.87 -1.599037,2.372 -3.673715,4.385 -6.093476,5.911 l -29.739779,18.99 a 24.308205,29.233 0 0 1 -6.057719,2.667 z" fill="#ffffff" id="path600" style="stroke-width:0.911885" /></svg>
