<svg xmlns="http://www.w3.org/2000/svg" viewBox="0 0 128 128"><path fill="#FBF0DF" d="M64 10.222c-5.234 0-10.394 2.325-16.36 5.734a358 358 0 0 0-6.1 3.58c-3.879 2.303-8.218 4.922-13.276 7.523h-.002v.002C10.607 36.257 0 51.657 0 68.204c0 13.707 7.219 26.122 18.814 35.082S46.388 117.778 64 117.778s33.589-5.532 45.184-14.492S128 81.911 128 68.204c0-16.563-10.61-31.946-28.264-41.141v-.004c-6.246-3.24-10.989-6.067-15.203-8.58l-.002-.003c-1.81-1.108-3.506-2.124-5.207-3.058l-.008-.004C73.744 12.236 69.211 10.222 64 10.222m0 1.058c4.942 0 9.273 1.905 14.802 5.058l.002.002.004.002c1.68.923 3.368 1.93 5.175 3.04l.003.001h.002c4.214 2.514 8.983 5.363 15.26 8.618 17.38 9.052 27.694 24.092 27.694 40.203 0 13.336-7.015 25.444-18.405 34.245C97.148 111.251 81.39 116.72 64 116.72s-33.15-5.468-44.54-14.27C8.07 93.65 1.059 81.54 1.059 68.204c0-16.095 10.31-31.15 27.69-40.203 5.097-2.621 9.46-5.256 13.333-7.556a357 357 0 0 1 6.084-3.57C54.082 13.495 59.08 11.28 64 11.28m0 3.025c-4.27 0-8.705 2.096-14.223 5.173-1.921 1.084-3.906 2.277-6.002 3.517v.002h-.002C39.83 25.345 35.32 28 30.258 30.654v-.002C14.011 39.127 4.231 53.155 4.231 68.203c0 12.586 6.75 23.98 17.579 32.2S47.558 113.697 64 113.697s31.359-5.074 42.188-13.293c10.83-8.22 17.58-19.615 17.58-32.2 0-15.05-9.781-29.075-26.047-37.52l-.002-.001c-6.378-3.254-11.355-6.314-15.405-8.734h-.002c-1.844-1.092-3.537-2.104-5.08-3.004h-.005c-5.152-2.951-8.992-4.64-13.227-4.64m3.957 3.256q.112 0 .24.047c12.812 5.043 13.693 14.755 12.136 20.45a.54.54 0 0 1-.234.33.57.57 0 0 1-.76-.123.52.52 0 0 1-.106-.386 26.1 26.1 0 0 0-3.638-10.81 27.2 27.2 0 0 0-7.957-8.384v-.066c-.488-.343-.212-1.058.319-1.058m-4.474.4a.53.53 0 0 1 .397.137c9.68 9.793 6.449 18.866 2.742 23.436-.406.474-1.132-.018-.93-.589a25.6 25.6 0 0 0 1.132-11.279 25.9 25.9 0 0 0-3.857-10.704v-.064c-.254-.429.11-.902.516-.934zm-3.843.41c.267-.041.55.094.618.46 3.25 12.91-4.45 19.309-10.155 21.447-.61.228-.982-.556-.508-.963a26.9 26.9 0 0 0 7.07-9.173 26 26 0 0 0 2.459-11.18c0-.335.25-.551.516-.591m-4.795 2.28c.26.066.463.287.386.612-2.928 13.057-12.727 15.784-18.82 15.424-.643.017-.628-.851-.019-1.031a29 29 0 0 0 10.484-5.52 27.8 27.8 0 0 0 7.238-9.166.64.64 0 0 1 .731-.318zM42.971 55.28a9.7 9.7 0 0 1 2.052.17 9.44 9.44 0 0 1 4.774 2.464 8.9 8.9 0 0 1 2.55 4.612 8.7 8.7 0 0 1-.54 5.196 9.07 9.07 0 0 1-3.441 4.033 9.6 9.6 0 0 1-5.186 1.508c-2.47-.004-4.837-.954-6.583-2.64-1.745-1.686-2.725-3.971-2.725-6.353a8.76 8.76 0 0 1 1.572-4.998 9.26 9.26 0 0 1 4.188-3.312 9.6 9.6 0 0 1 3.339-.68m41.994 0a9.7 9.7 0 0 1 2.054.176 9.43 9.43 0 0 1 4.772 2.479 8.9 8.9 0 0 1 2.537 4.622 8.7 8.7 0 0 1-.557 5.2 9.1 9.1 0 0 1-3.465 4.023 9.6 9.6 0 0 1-5.2 1.483c-2.463-.012-4.822-.968-6.556-2.655-1.735-1.685-2.708-3.962-2.703-6.338 0-1.782.55-3.523 1.576-5.002a9.26 9.26 0 0 1 4.197-3.312 9.6 9.6 0 0 1 3.345-.676m-44.47 2.808a3.6 3.6 0 0 0-1.512.252 3.5 3.5 0 0 0-1.574 1.244 3.3 3.3 0 0 0-.593 1.878c0 .893.368 1.75 1.02 2.384a3.57 3.57 0 0 0 2.468.994 3.6 3.6 0 0 0 1.95-.56 3.4 3.4 0 0 0 1.298-1.512 3.27 3.27 0 0 0 .206-1.955 3.34 3.34 0 0 0-.954-1.733 3.55 3.55 0 0 0-2.308-.992Zm41.926 0a3.6 3.6 0 0 0-1.512.252 3.5 3.5 0 0 0-1.576 1.244 3.3 3.3 0 0 0-.591 1.878c0 .888.363 1.74 1.008 2.372a3.57 3.57 0 0 0 2.444 1.006h.033a3.6 3.6 0 0 0 1.953-.56 3.4 3.4 0 0 0 1.297-1.512 3.27 3.27 0 0 0 .207-1.955 3.34 3.34 0 0 0-.955-1.733 3.55 3.55 0 0 0-2.308-.992M53.81 79.618l20.68.032a.36.36 0 0 1 .334.146 13.2 13.2 0 0 1-2.357 4.81l-.072-.06c-2.132-1.957-4.952-3.072-7.895-3.12a11 11 0 0 0-4.54 1.023 10.6 10.6 0 0 0-3.617 2.752 13.2 13.2 0 0 1-2.884-5.438c.016-.032.083-.144.35-.144zm10.775 3.44c2.51.072 4.9 1.047 6.702 2.732l.083.068q-.522.528-1.106 1a10.7 10.7 0 0 1-6.115 2.794 10.6 10.6 0 0 1-6.116-2.827q-.243-.196-.475-.405h.006a8.9 8.9 0 0 1 3.11-2.456 9.3 9.3 0 0 1 3.91-.905z"/></svg>
