<svg xmlns="http://www.w3.org/2000/svg" viewBox="0 0 128 128"><path d="M64 10.222c-5.234 0-10.394 2.325-16.36 5.734a357.702 357.702 0 00-6.1 3.58c-3.879 2.303-8.218 4.922-13.276 7.523h-.002v.002C10.607 36.257 0 51.657 0 68.204c0 13.707 7.219 26.122 18.814 35.082 11.595 8.96 27.574 14.492 45.186 14.492 17.611 0 33.589-5.532 45.184-14.492C120.778 94.326 128 81.911 128 68.204c0-16.563-10.61-31.946-28.264-41.141v-.004c-6.246-3.24-10.989-6.067-15.203-8.58l-.002-.003c-1.81-1.108-3.506-2.124-5.207-3.058l-.008-.004C73.744 12.236 69.211 10.222 64 10.222zm0 1.058c4.942 0 9.273 1.905 14.802 5.058l.002.002.004.002c1.68.923 3.368 1.93 5.175 3.04l.003.001h.002c4.214 2.514 8.983 5.363 15.26 8.618 17.38 9.052 27.694 24.092 27.694 40.203 0 13.336-7.015 25.444-18.405 34.245C97.148 111.251 81.39 116.72 64 116.72c-17.391 0-33.15-5.468-44.54-14.27C8.07 93.65 1.059 81.54 1.059 68.204c0-16.095 10.31-31.15 27.69-40.203 5.097-2.621 9.46-5.256 13.333-7.556a357.414 357.414 0 016.084-3.57C54.082 13.495 59.08 11.28 64 11.28zm0 3.025c-4.27 0-8.705 2.096-14.223 5.173-1.921 1.084-3.906 2.277-6.002 3.517v.002h-.002C39.83 25.345 35.32 28 30.258 30.654v-.002C14.011 39.127 4.231 53.155 4.231 68.203c0 12.586 6.75 23.98 17.579 32.2 10.83 8.22 25.748 13.294 42.19 13.294 16.442 0 31.359-5.074 42.188-13.293 10.83-8.22 17.58-19.615 17.58-32.2 0-15.05-9.781-29.075-26.047-37.52l-.002-.001c-6.378-3.254-11.355-6.314-15.405-8.734h-.002c-1.844-1.092-3.537-2.104-5.08-3.004h-.005c-5.152-2.951-8.992-4.64-13.227-4.64zm3.957 3.256c.074 0 .155.015.24.047 12.812 5.043 13.693 14.755 12.136 20.45a.537.537 0 01-.234.33.572.572 0 01-.76-.123.524.524 0 01-.106-.386 26.138 26.138 0 00-3.638-10.81 27.191 27.191 0 00-7.957-8.384v-.066c-.488-.343-.212-1.058.319-1.058zm-4.474.4a.532.532 0 01.397.137c9.68 9.793 6.449 18.866 2.742 23.436-.406.474-1.132-.018-.93-.589a25.605 25.605 0 001.132-11.279 25.897 25.897 0 00-3.857-10.704v-.064c-.254-.429.11-.902.516-.934zm-3.843.41c.267-.041.55.094.618.46 3.25 12.91-4.45 19.309-10.155 21.447-.61.228-.982-.556-.508-.963a26.883 26.883 0 007.07-9.173 25.972 25.972 0 002.459-11.18c0-.335.25-.551.516-.591zm-4.795 2.28c.26.066.463.287.386.612-2.928 13.057-12.727 15.784-18.82 15.424-.643.017-.628-.851-.019-1.031a29.003 29.003 0 0010.484-5.52 27.782 27.782 0 007.238-9.166.639.639 0 01.731-.318zM42.971 55.28a9.663 9.663 0 012.052.17 9.435 9.435 0 014.774 2.464 8.9 8.9 0 012.55 4.612 8.692 8.692 0 01-.54 5.196 9.075 9.075 0 01-3.441 4.033 9.577 9.577 0 01-5.186 1.508c-2.47-.004-4.837-.954-6.583-2.64-1.745-1.686-2.725-3.971-2.725-6.353a8.759 8.759 0 011.572-4.998 9.261 9.261 0 014.188-3.312 9.62 9.62 0 013.339-.68zm41.994 0a9.659 9.659 0 012.054.176 9.43 9.43 0 014.772 2.479 8.897 8.897 0 012.537 4.622 8.693 8.693 0 01-.557 5.2 9.08 9.08 0 01-3.465 4.023 9.581 9.581 0 01-5.2 1.483c-2.463-.012-4.822-.968-6.556-2.655-1.735-1.685-2.708-3.962-2.703-6.338 0-1.782.55-3.523 1.576-5.002a9.264 9.264 0 014.197-3.312 9.626 9.626 0 013.345-.676zm-44.47 2.808a3.617 3.617 0 00-1.512.252 3.476 3.476 0 00-1.574 1.244 3.293 3.293 0 00-.593 1.878c0 .893.368 1.75 1.02 2.384a3.571 3.571 0 002.468.994 3.596 3.596 0 001.95-.56 3.412 3.412 0 001.298-1.512 3.27 3.27 0 00.206-1.955 3.34 3.34 0 00-.954-1.733 3.545 3.545 0 00-2.308-.992zm41.926 0a3.617 3.617 0 00-1.512.252 3.482 3.482 0 00-1.576 1.244 3.291 3.291 0 00-.591 1.878c0 .888.363 1.74 1.008 2.372a3.565 3.565 0 002.444 1.006h.033a3.602 3.602 0 001.953-.56 3.419 3.419 0 001.297-1.512 3.27 3.27 0 00.207-1.955 3.34 3.34 0 00-.955-1.733 3.551 3.551 0 00-2.308-.992zM53.81 79.618l20.68.032a.363.363 0 01.334.146 13.205 13.205 0 01-2.357 4.81l-.072-.06c-2.132-1.957-4.952-3.072-7.895-3.12a10.98 10.98 0 00-4.54 1.023 10.61 10.61 0 00-3.617 2.752 13.23 13.23 0 01-2.884-5.438c.016-.032.083-.144.35-.144zm10.775 3.44c2.51.072 4.9 1.047 6.702 2.732l.083.068c-.348.351-.717.686-1.106 1a10.685 10.685 0 01-6.115 2.794 10.597 10.597 0 01-6.116-2.827c-.163-.13-.32-.267-.475-.405h.006a8.913 8.913 0 013.11-2.456 9.257 9.257 0 013.91-.905z"/></svg>
