<?xml version="1.0" encoding="UTF-8" standalone="no"?>
<svg
   width="128"
   height="128"
   viewBox="0 0 128 128"
   version="1.1"
   id="svg16"
   sodipodi:docname="LOLCODE.svg"
   inkscape:version="1.3.2 (091e20e, 2023-11-25, custom)"
   xmlns:inkscape="http://www.inkscape.org/namespaces/inkscape"
   xmlns:sodipodi="http://sodipodi.sourceforge.net/DTD/sodipodi-0.dtd"
   xmlns="http://www.w3.org/2000/svg"
   xmlns:svg="http://www.w3.org/2000/svg"
   xmlns:rdf="http://www.w3.org/1999/02/22-rdf-syntax-ns#"
   xmlns:cc="http://creativecommons.org/ns#"
   xmlns:dc="http://purl.org/dc/elements/1.1/">
  <defs
     id="defs16" />
  <sodipodi:namedview
     id="namedview16"
     pagecolor="#ffffff"
     bordercolor="#111111"
     borderopacity="1"
     inkscape:showpageshadow="0"
     inkscape:pageopacity="0"
     inkscape:pagecheckerboard="1"
     inkscape:deskcolor="#d1d1d1"
     inkscape:zoom="4.2592135"
     inkscape:cx="54.822328"
     inkscape:cy="55.996254"
     inkscape:window-width="1920"
     inkscape:window-height="1009"
     inkscape:window-x="-8"
     inkscape:window-y="-8"
     inkscape:window-maximized="1"
     inkscape:current-layer="svg16" />
  <title
     id="title1">file_type_lolcode</title>
  <path
     d="m 88.227704,7.908289 a 18.010785,18.010785 0 0 1 4.758687,-2.8341845 38.558623,38.558623 0 0 1 2.541624,15.4737335 113.66451,113.66451 0 0 1 -2.939324,22.94318 C 90.906466,42.66819 89.22424,41.827078 87.560299,40.958537 a 53.730652,53.730652 0 0 0 1.247956,-17.128531 14.079497,14.079497 0 0 0 -1.165673,-3.954144 23.505446,23.505446 0 0 0 -9.215671,9.462519 C 76.968678,28.241277 75.446446,27.24017 73.924215,26.248205 A 71.842006,71.842006 0 0 1 88.227704,7.908289 Z"
     style="fill:#ededed;stroke-width:4.57127"
     id="path1" />
  <path
     d="m 79.775435,30.170351 a 20.908968,20.908968 0 0 1 6.898039,-7.144888 30.558909,30.558909 0 0 1 0.411414,12.20985 c -2.436485,-1.668512 -4.91411,-3.295882 -7.309453,-5.064962 z"
     style="fill:#ededed;stroke-width:4.57127"
     id="path2" />
  <path
     d="m 66.107351,36.917539 c -0.173708,-5.183815 -0.141709,-10.372201 -0.118853,-15.542302 -4.114138,2.253633 -8.036284,4.895825 -12.10471,7.26374 -2.070783,1.234242 -4.150709,2.450198 -6.216921,3.693583 1.023964,-0.745117 2.089068,-1.426235 3.154173,-2.111925 C 46.885181,24.625406 41.811076,18.792472 34.684474,17.658798 A 50.119353,50.119353 0 0 0 33.015962,41.1871 c 1.453662,-0.891396 2.893611,-1.828506 4.397557,-2.614763 -2.16678,1.458233 -4.4067,2.811328 -6.61005,4.205564 -4.374701,2.742759 -8.785972,5.448948 -13.220099,8.123138 a 5.6317989,5.6317989 0 0 0 -1.787365,1.462805 c -0.457126,6.376915 -1.55423,20.076997 -1.55423,20.076997 -1.161101,16.767402 -2.3862,33.534799 -3.775865,50.283919 18.56848,1.56794 37.109532,3.39188 55.67344,4.91868 -0.04571,-30.275489 0.01828,-60.491553 -0.032,-90.725901 z"
     style="fill:#ededed;stroke-width:4.57127"
     id="path3" />
  <path
     d="M 87.313451,4.4661262 A 26.897325,26.897325 0 0 1 94.654903,0 46.005214,46.005214 0 0 1 98.18392,21.055248 112.41199,112.41199 0 0 1 95.861717,41.43852 c 5.485523,3.867291 11.121893,7.519731 16.538843,11.469305 q 2.01135,29.164672 4.14613,58.320205 c 0.30171,3.83529 0.4297,7.67972 0.9874,11.48759 -13.84637,1.27538 -27.688158,2.70162 -41.529949,4.05014 A 87.480304,87.480304 0 0 0 66.13935,128 v -0.37942 c -0.04571,-30.234344 0,-60.464121 -0.032,-90.69847 -0.173708,-5.183815 -0.141709,-10.372201 -0.118853,-15.542302 v -0.457127 c 1.855934,1.33481 3.775866,2.569051 5.682083,3.835292 A 74.392772,74.392772 0 0 1 87.313451,4.4661262 Z m 0.914253,3.4375915 A 71.842006,71.842006 0 0 0 73.928786,26.239063 c 1.526803,0.991964 3.044463,1.997643 4.502697,3.090175 a 23.505446,23.505446 0 0 1 9.215671,-9.462519 14.079497,14.079497 0 0 1 1.165672,3.954145 53.730652,53.730652 0 0 1 -1.247955,17.128531 c 1.66394,0.86854 3.341595,1.709653 5.028392,2.532481 A 113.66451,113.66451 0 0 0 95.532586,20.538695 38.558623,38.558623 0 0 0 92.990963,5.064962 18.010785,18.010785 0 0 0 88.227704,7.908289 Z M 79.775435,30.170351 c 2.395343,1.750795 4.872968,3.378165 7.314024,5.064962 a 30.558909,30.558909 0 0 0 -0.411414,-12.20985 20.908968,20.908968 0 0 0 -6.90261,7.144888 z"
     style="fill:#8d2701;stroke-width:4.57127"
     id="path4" />
  <path
     d="m 33.002248,13.997214 a 16.369701,16.369701 0 0 1 10.07964,3.419307 58.969323,58.969323 0 0 1 10.806471,11.1996 c -2.070783,1.234241 -4.150709,2.450198 -6.216921,3.693582 1.023964,-0.745116 2.089069,-1.426235 3.154173,-2.111924 C 46.889752,24.60255 41.815648,18.769615 34.689045,17.635942 a 50.119353,50.119353 0 0 0 -1.668512,23.528302 c 1.453662,-0.891397 2.893611,-1.828506 4.397557,-2.614764 -2.166779,1.458234 -4.406699,2.811329 -6.610049,4.205564 a 64.454841,64.454841 0 0 1 2.194207,-28.75783 z"
     style="fill:#8d2701;stroke-width:4.57127"
     id="path5" />
  <path
     d="m 38.890038,29.603514 a 11.222456,11.222456 0 0 1 6.934609,4.022714 l -1.645655,0.914253 a 12.296704,12.296704 0 0 0 -4.228421,-2.541624 15.167458,15.167458 0 0 0 -0.754259,5.855791 l -1.572515,0.502839 a 32.094854,32.094854 0 0 1 1.266241,-8.753973 z"
     style="fill:#8d2701;stroke-width:4.57127"
     id="path6" />
  <path
     d="m 46.350343,39.738009 a 2.2262062,2.2262062 0 0 1 2.477625,0.04571 7.0946038,7.0946038 0 0 1 0.283419,2.742759 c -0.178279,3.583872 0.10971,7.190601 -0.347416,10.760759 a 4.6306918,4.6306918 0 0 1 -4.626121,4.050141 c -1.065105,-0.228563 -1.270811,-1.558802 -1.270811,-2.473055 0,-3.085604 0.457126,-6.157494 0.301703,-9.252241 a 5.9426449,5.9426449 0 0 1 3.181601,-5.874076 z m 0.685689,4.955252 a 4.0729974,4.0729974 0 0 0 1.147388,-3.958716 c -1.471947,0.68569 -2.92561,2.724474 -1.147388,3.958716 z"
     style="fill:#8d2701;stroke-width:4.57127"
     id="path7" />
  <path
     d="m 57.1431,53.6118 a 80.778829,80.778829 0 0 1 8.8134,-3.757581 c -0.109711,0.292561 -0.315418,0.873112 -0.420557,1.165673 -2.966751,1.636513 -6.216921,2.742759 -9.238527,4.287847 A 55.394593,55.394593 0 0 0 41.495659,65.583943 32.91311,32.91311 0 0 1 36.572406,70.310632 19.043891,19.043891 0 0 1 41.052246,64.614835 58.178494,58.178494 0 0 1 57.1431,53.6118 Z"
     style="fill:#8d2701;stroke-width:4.57127"
     id="path8" />
  <path
     d="m 25.729365,51.339881 a 4.5209814,4.5209814 0 0 1 2.715331,-0.694833 82.8039,82.8039 0 0 1 -0.457126,12.132139 3.2593122,3.2593122 0 0 1 -4.077569,3.007892 96.453698,96.453698 0 0 1 0.374844,-10.175636 6.3220599,6.3220599 0 0 1 1.44452,-4.269562 z m 0.818256,3.798721 c 1.225099,-0.511982 1.458234,-1.887932 1.883362,-2.989607 -1.823935,-0.438842 -2.029642,1.714224 -1.883362,2.989607 z"
     style="fill:#8d2701;stroke-width:4.57127"
     id="path9" />
  <path
     d="m 40.334558,68.998679 a 63.696011,63.696011 0 0 1 21.082675,-8.996251 c -0.04571,0.310847 -0.132567,0.941681 -0.178279,1.252527 a 65.24567,65.24567 0 0 0 -20.456412,8.749402 12.004143,12.004143 0 0 1 -3.113032,1.567944 c 0.274276,-1.375951 1.645655,-1.865076 2.665048,-2.573622 z"
     style="fill:#8d2701;stroke-width:4.57127"
     id="path10" />
  <path
     d="m 14.922894,71.266026 a 23.514589,23.514589 0 0 1 12.506982,-2.23992 6.856898,6.856898 0 0 1 5.220385,3.039892 31.331452,31.331452 0 0 0 -7.048892,-2.226207 31.848005,31.848005 0 0 0 -11.355023,2.578194 z"
     style="fill:#8d2701;stroke-width:4.57127"
     id="path11" />
  <path
     d="m 39.214598,71.883147 a 43.838434,43.838434 0 0 1 16.502267,-2.587336 c 1.097104,0.096 1.467376,0.914253 1.430806,1.938216 a 14.801757,14.801757 0 0 0 -8.941395,-0.411414 99.141602,99.141602 0 0 0 -11.688725,3.007893 c 0.032,-1.471947 1.631942,-1.563373 2.697047,-1.947359 z"
     style="fill:#8d2701;stroke-width:4.57127"
     id="path12" />
  <path
     d="m 33.22624,71.659155 c 0.681119,-0.804543 2.436484,-1.51766 3.03532,-0.283418 a 5.9426449,5.9426449 0 0 1 -2.358773,4.539266 C 33.22624,74.680761 31.877717,72.920824 33.22624,71.659155 Z"
     style="fill:#8d2701;stroke-width:4.57127"
     id="path13" />
  <path
     d="m 17.117101,76.015571 a 26.970465,26.970465 0 0 1 14.545766,-2.825042 c -0.83197,1.074247 -2.253634,0.813685 -3.43302,0.950823 a 25.887075,25.887075 0 0 0 -7.862576,1.508518 c -1.572516,0.585122 -3.039892,1.417092 -4.662691,1.869647 a 2.7427592,2.7427592 0 0 1 1.412521,-1.503946 z"
     style="fill:#8d2701;stroke-width:4.57127"
     id="path14" />
  <path
     d="m 22.401484,78.232635 a 44.231563,44.231563 0 0 1 10.056783,-3.903861 c -0.457126,1.37138 -2.015928,1.545088 -3.199885,2.029642 a 35.834149,35.834149 0 0 0 -11.720725,6.46834 c 0.466269,-2.445627 2.980465,-3.428449 4.863827,-4.594121 z"
     style="fill:#8d2701;stroke-width:4.57127"
     id="path15" />
  <path
     d="m 44.046425,80.911396 a 14.216635,14.216635 0 0 0 8.731117,-6.32206 c 1.586229,-0.457126 1.247955,1.257098 1.188529,2.258205 a 9.3985215,9.3985215 0 0 1 -4.342702,4.735831 56.523696,56.523696 0 0 1 -8.351702,29.342948 10.705903,10.705903 0 0 1 -9.823649,5.64095 10.289918,10.289918 0 0 1 -7.016892,-6.81119 49.799364,49.799364 0 0 1 -3.154174,-21.324953 c -0.717688,-0.511981 -1.686796,-0.818256 -2.102782,-1.654798 -0.594264,-0.914253 0.05028,-1.942787 0.21485,-2.884468 0.86854,0.690261 1.577086,1.791936 2.770187,1.919931 a 16.534267,16.534267 0 0 0 8.516267,-1.828506 7.2591693,7.2591693 0 0 0 3.241027,-3.026177 17.741081,17.741081 0 0 0 1.970215,1.215956 19.565016,19.565016 0 0 0 8.159709,-1.261669 z m -10.056784,3.817007 a 18.888468,18.888468 0 0 1 -11.254455,3.698153 50.50791,50.50791 0 0 0 1.636513,16.118284 14.746902,14.746902 0 0 1 4.114139,-5.86036 9.3939502,9.3939502 0 0 1 10.51391,-0.914258 10.51391,10.51391 0 0 1 4.040999,5.357528 67.010178,67.010178 0 0 0 4.594121,-20.520415 23.619728,23.619728 0 0 1 -13.645227,2.107354 z M 32.485695,99.63073 a 10.390486,10.390486 0 0 0 -6.856898,6.55519 c -0.562266,1.22967 0.457127,2.36335 1.028535,3.3736 1.513089,2.11192 3.634156,4.57126 6.54148,4.08214 a 13.110389,13.110389 0 0 0 8.086569,-7.31403 7.3140245,7.3140245 0 0 0 -8.799686,-6.71062 z"
     style="fill:#8d2701;stroke-width:4.57127"
     id="path16" />
  <metadata
     id="metadata16">
    <rdf:RDF>
      <cc:Work
         rdf:about="">
        <dc:title>file_type_lolcode</dc:title>
      </cc:Work>
    </rdf:RDF>
  </metadata>
</svg>
