<svg width="128" height="128" viewBox="0 0 128 128" fill="none" xmlns="http://www.w3.org/2000/svg">
<path d="M43.5745 69.2033H47.9928C48.0597 70.2557 48.8576 71.2427 50.6685 71.2427C52.3312 71.2427 53.1828 70.671 53.1828 69.8007C53.1828 67.1617 44.2529 69.6443 44.2529 63.419C44.2529 60.5723 46.7422 58.232 50.7079 58.232C55.5252 58.232 57.1879 61.235 57.3085 63.5357H53.104C53.0096 62.5475 52.238 61.6504 50.6804 61.6504C49.2709 61.6504 48.4706 62.313 48.4706 63.1845C48.4706 65.8235 57.3742 63.1845 57.3742 69.6315C57.3742 72.4525 54.9136 74.675 50.561 74.675C45.5035 74.6622 43.7883 72.1398 43.5745 69.2033ZM63.0838 58.5832V54.9315H58.7204V74.2982H63.085V62.054H66.2922V58.5832H63.0838Z" fill="black"/>
<path d="M69.8706 67.6692C70.1764 69.8263 71.5871 70.9965 73.7694 70.9965C75.0869 70.9965 76.3519 70.4248 76.8703 69.2815H81.2624C80.3044 72.4653 77.3636 74.6482 73.65 74.6482C68.8864 74.6482 65.5454 71.2298 65.5454 66.408C65.5454 61.7542 68.8589 58.2192 73.6237 58.2192C78.3873 58.2192 81.6088 61.7542 81.6088 66.408C81.6088 67.0963 81.5419 67.668 81.5419 67.668H69.8718L69.8706 67.6692ZM69.9244 64.6137H77.2298C76.924 62.8462 75.6065 61.6503 73.5699 61.6503C71.5871 61.6503 70.2971 62.8205 69.9244 64.6137ZM87.2371 60.507C87.9693 59.1548 89.6332 58.232 92.0282 58.232C95.9007 58.232 97.9504 60.7543 97.9504 64.497V74.297H93.587V64.9648C93.587 63.1332 92.7879 61.872 90.8588 61.872C88.7422 61.872 87.5716 63.1973 87.5716 65.2903V74.2853H83.207V58.582H87.2383L87.2371 60.507ZM107.639 58.232C112.642 58.232 115.011 61.6772 115.317 64.3547H110.833C110.5 63.0013 109.208 62.0143 107.613 62.0143C105.283 62.0143 103.926 63.8087 103.926 66.4477C103.926 69.0855 105.283 70.8798 107.613 70.8798C109.21 70.8798 110.5 69.8917 110.833 68.5395H115.317C115.011 71.2042 112.642 74.6622 107.639 74.6622C102.968 74.6622 99.5605 71.1272 99.5605 66.4465C99.5605 61.7682 102.967 58.232 107.639 58.232ZM116.476 54.8137C116.476 53.3192 117.579 52.24 119.111 52.24C120.639 52.24 121.746 53.3192 121.746 54.8137C121.746 56.3082 120.641 57.3617 119.111 57.3617C117.594 57.3617 116.476 56.321 116.476 54.8137ZM116.941 58.582H121.306V74.297H116.941V58.582ZM123.635 74.2982V53.2282H128V74.2982H123.635ZM13.9536 69.6933H28.5382L20.6546 78H6.14893L13.9536 69.6933Z" fill="black"/>
<path opacity="0.4" d="M13.9541 69.6934H28.5387L10.0518 73.8467L13.9541 69.6934Z" fill="black"/>
<path d="M37.841 59.8467H7.87996L0 68.1533H29.961L37.841 59.8467ZM17.161 50H31.6918L23.8441 58.3067H9.30258L17.161 50Z" fill="black"/>
</svg>
