<svg viewBox="0 0 128 128" xmlns="http://www.w3.org/2000/svg"><path d="M43.5745 68.46H47.9928C48.0597 69.362 48.8576 70.208 50.6685 70.208C52.3312 70.208 53.1828 69.718 53.1828 68.972C53.1828 66.71 44.2529 68.838 44.2529 63.502C44.2529 61.062 46.7422 59.056 50.7079 59.056C55.5252 59.056 57.1879 61.6301 57.3085 63.6021H53.104C53.0096 62.7551 52.238 61.986 50.6804 61.986C49.2709 61.986 48.4706 62.554 48.4706 63.301C48.4706 65.563 57.3742 63.3011 57.3742 68.8271C57.3742 71.2451 54.9136 73.1501 50.5609 73.1501C45.5035 73.1391 43.7883 70.977 43.5745 68.46ZM63.0838 59.357V56.2271H58.7204V72.8271H63.085V62.3321H66.2922V59.357H63.0838Z" fill="white"/><path d="M69.8709 67.145C70.1766 68.994 71.5873 69.997 73.7696 69.997C75.0871 69.997 76.3521 69.507 76.8705 68.527H81.2626C80.3046 71.256 77.3638 73.127 73.6502 73.127C68.8866 73.127 65.5457 70.197 65.5457 66.064C65.5457 62.075 68.8591 59.045 73.6239 59.045C78.3875 59.045 81.609 62.075 81.609 66.064C81.609 66.654 81.5421 67.144 81.5421 67.144H69.872L69.8709 67.145ZM69.9246 64.526H77.23C76.9242 63.011 75.6067 61.986 73.5701 61.986C71.5873 61.986 70.2973 62.989 69.9246 64.526ZM87.2373 61.006C87.9695 59.847 89.6334 59.056 92.0284 59.056C95.9009 59.056 97.9506 61.218 97.9506 64.426V72.826H93.5872V64.827C93.5872 63.257 92.7881 62.176 90.859 62.176C88.7424 62.176 87.5718 63.312 87.5718 65.106V72.816H83.2072V59.356H87.2385L87.2373 61.006ZM107.639 59.056C112.643 59.056 115.011 62.009 115.317 64.304H110.833C110.5 63.144 109.209 62.298 107.613 62.298C105.283 62.298 103.927 63.836 103.927 66.098C103.927 68.359 105.283 69.897 107.613 69.897C109.21 69.897 110.5 69.05 110.833 67.891H115.317C115.011 70.175 112.643 73.139 107.639 73.139C102.969 73.139 99.5607 70.109 99.5607 66.097C99.5607 62.087 102.967 59.056 107.639 59.056ZM116.476 56.126C116.476 54.845 117.579 53.92 119.111 53.92C120.64 53.92 121.746 54.845 121.746 56.126C121.746 57.407 120.641 58.31 119.111 58.31C117.594 58.31 116.476 57.418 116.476 56.126ZM116.942 59.356H121.306V72.826H116.942V59.356ZM123.635 72.827V54.767H128V72.827H123.635Z" fill="white"/><path d="M13.9541 68.88H28.5387L20.6551 76H6.14941L13.9541 68.88Z" fill="#F4F4F4"/><path d="M13.9539 68.88H28.5384L10.0515 72.44L13.9539 68.88Z" fill="#A7A7A7"/><path d="M37.841 60.44H7.87995L0 67.56H29.961L37.841 60.44ZM17.161 52H31.6918L23.8441 59.12H9.30257L17.161 52Z" fill="white"/></svg>
