<svg xmlns="http://www.w3.org/2000/svg" viewBox="0 0 128 128">
  <path fill="#412846" d="m64.1 1.4l-58.5 20.3 8.4 77.6 50.1 27.3z" />
  <path fill="#4b314f" d="m63.9 1.4l58.5 20.3-8.4 77.6-50.1 27.3z" />
  <path fill="#ba2bd2"
    d="m93.2 44.3l-0.1-0.1q4 4.5 4.2 10.6 0.1 6.1-4.2 12.9 3.2-2.5 7.4-10.6 1.8 16.5-13.5 25.1 4.9-0.4 12.9-6.4-8.5 20.6-31.4 21.7c-14.8 0-24.3-8.8-24.3-8.8q-9.1-7.1-12.5-17.9c-3.7-3.9-3.7-4.3-4.1-5.9-0.3-1.6 0.3-2.1 1.3-3.6q1.1-1.6 0.5-4.4-1.3-1.9-1.5-5.9 0-2 2.6-4.1 2.6-2.2 3.1-3.3 0.5-0.6 0.4-5.4-0.1-4.7 5.2-5.1c5.2-0.4 8.1-4.3 9.8-6.1 1.1-1.2 2.7-1.8 4.7-1.8 2.9-0.1 5.5 1 7.8 3.3 5.6-0.3 11.3 1.2 17.1 4.5q12.4 7.3 13.6 15.9-1.4 11.3-30.2-0.6-15.1 4.3-14.9 18.5 0 13.1 12.7 19c-4.1-4-5.9-7.4-5.3-10.2q12.8 15.2 29.1 11.4-7.1 0.2-11.4-4.7 11-0.3 20.8-10.3-5.6 4.5-11.9 3.4 17-13.3 12.1-31.1zm-19-3.1c0-0.9-0.7-1.6-1.6-1.6-0.9 0-1.7 0.7-1.7 1.6 0 0.9 0.8 1.7 1.7 1.7 0.9 0 1.6-0.8 1.6-1.7z" />
</svg>
