<svg xmlns="http://www.w3.org/2000/svg" viewBox="0 0 128 128"><defs><radialGradient id="a" cx="0" cy="0" r="1" gradientTransform="scale(65.63115 69.41526) rotate(90 .067 .91)" gradientUnits="userSpaceOnUse"><stop stop-color="#aa1bb6"/><stop offset="1" stop-color="#452070"/></radialGradient><radialGradient id="b" cx="0" cy="0" r="1" gradientTransform="matrix(42.97181 21.48586 -19.17351 38.34712 63.931 62.152)" gradientUnits="userSpaceOnUse"><stop offset=".271" stop-color="#b1219b"/><stop offset="1" stop-color="#5306A1"/></radialGradient></defs><path fill="url(#a)" d="m124.511 21.34-4.37 68.567L78.36 0ZM95.571 110l-31.57 18-31.572-18 1.784-10.49H93.79ZM7.814 89.908 3.49 21.341 49.64 0Z"/><path fill="url(#b)" fill-rule="evenodd" d="m93.64 55.49-.004.031C91.79 66.288 84.643 73.094 72.2 75.941c3.078 2.156 6.671 2.74 10.832 1.763-7.769 2.88-14.623 2.987-20.58.345 1.048 3.71 3.505 6.386 7.41 8.069-9.679-2.079-16.026-8.781-19.027-20.102-1.533 2.022-1.417 5.394.34 10.172-5.24-6.345-6.218-13.015-2.91-19.993 3.466-7.67 9.762-10.744 18.892-9.219C79.55 60.574 87.54 64.545 91.09 58.873c1.554-4.851-.043-10.82-4.8-17.883-3.417-4.825-7.44-8.21-12.036-10.099-.941-2.67-2.615-4.541-4.965-5.52-1.636-.763-3.15-.912-4.475-.373a39.575 39.575 0 0 0-.643.271c-2.11.903-5.614 2.404-9.516.922-2.887-1.097-4.914-.394-6.08 2.109-1.148 2.565-1.918 3.959-2.308 4.18-.594.462-1.857.945-3.778 1.44-1.921.496-3.126 1.26-3.615 2.294-.902 2.19-1.229 3.958-.98 5.303-.433 1.668-1.13 2.795-2.087 3.354a28.706 28.706 0 0 1-.635.357c-1.004.554-1.507.831-1.758 2.014l-.02.096c-.286 1.331-.38 1.772.99 6.212-.894 6.586.192 12.93 3.258 19.006-.004-.008 4.287 10.709 16.091 16.295 12.503 5.17 23.636 3.337 33.397-5.498-5.783 1.166-10.04 1.246-12.75.258 10.307-.752 17.052-5.777 20.27-15.07-4.286 3.31-7.604 5.239-9.934 5.758 3.99-2.542 6.72-5.475 8.21-8.774 1.488-3.3 1.727-6.644.716-10.034zM77.909 41.82c-.942 1.216-2.193 4.045.333 5.637 2.526 1.592 1.4-.4.522-1.596-.878-1.195-.855-4.041-.855-4.041z" clip-rule="evenodd"/></svg>
