<svg xmlns="http://www.w3.org/2000/svg" viewBox="0 0 128 128">
  <path fill="#412846"
    d="m64.1 126.6l-0.1-0.1-0.1 0.1v-0.1l-49.9-27.2-8.4-77.6 58.3-20.2v-0.1h0.1 0.1v0.1l58.3 20.2-8.4 77.6-49.9 27.2zm29.1-82.3l-0.1-0.1q0.1 0.1 0.1 0.1 0 0 0 0zm0 0q4.9 17.8-12.1 31.1 6.3 1.1 11.9-3.4-9.8 10-20.8 10.3 4.3 4.9 11.4 4.7-16.3 3.8-29.1-11.4c-0.6 2.8 1.2 6.2 5.3 10.2q-12.7-5.9-12.7-19-0.2-14.2 14.9-18.5 28.8 11.9 30.2 0.6-1.2-8.6-13.6-15.9-8.7-5-17.1-4.5-3.4-3.5-7.8-3.3c-2 0-3.6 0.6-4.7 1.8-1.7 1.8-4.6 5.7-9.8 6.1q-5.3 0.4-5.2 5.1 0.1 4.8-0.4 5.4-0.5 1.1-3.1 3.3-2.6 2.1-2.6 4.1 0.2 4 1.5 5.9 0.6 2.8-0.5 4.4c-1 1.5-1.6 2-1.3 3.6 0.4 1.6 0.4 2 4.1 5.9q3.4 10.8 12.5 17.9c0 0 9.5 8.8 24.3 8.8q22.9-1.1 31.4-21.7-8 6-12.9 6.4 15.3-8.6 13.5-25.1-4.2 8.1-7.4 10.6 4.3-6.8 4.2-12.9-0.2-6-4.1-10.5zm-20.6-1.4c-0.9 0-1.7-0.8-1.7-1.7 0-0.9 0.8-1.6 1.7-1.6 0.9 0 1.6 0.7 1.6 1.6 0 0.9-0.7 1.7-1.6 1.7z" />
</svg>
