<svg xmlns="http://www.w3.org/2000/svg" xml:space="preserve" overflow="visible" viewBox="0 0 88.25 88.25"><path fill="none" d="M88.25 88.25H0V0h88.25z" clip-rule="evenodd"/><path fill="#f4790e" fill-rule="evenodd" d="M20.176 67.97c.81 6.426 4.302 11.268 9.648 16.02l-1.926-.972C12.706 76.484 2.086 61.382 2.086 43.814c0-22.32 17.226-40.878 39.51-42.534-22.284 1.656-39.51 20.214-39.51 42.534 0-22.32 17.226-40.878 39.51-42.534C16.072 6.32-8.39 35.804 20.176 67.97" clip-rule="evenodd"/><path fill="#f4790e" fill-rule="evenodd" d="M78.442 30.224C76.516 16.418 65.914 6.752 46.6 1.208c22.788 1.008 40.77 19.8 40.77 42.606 0 23.562-17.748 41.778-40.806 42.822-2.178.108-4.356-.27-6.48-.936V37.64q1.053-1.593 0-3.186V24.23h2.358c-.918-.612-1.692-1.08-2.358-1.368V19.91c12.366 4.716 18.108 5.256 17.244 1.566 1.08 3.042.144 4.428-2.808 4.122-3.402-.522-5.508-.288-6.336.72q9.153 4.536 9.774 8.802c.576 4.788-1.692 10.062-6.804 15.84-3.222 4.014-1.548 8.28 3.654 8.964 16.146-.792 24.03-10.71 23.634-29.7M40.084 85.7c-4.932-1.53-9.36-4.608-11.52-6.75-3.816-3.96-6.408-10.296-7.362-19.44 0-.054-.018-.108-.018-.162v-3.096c.594-7.344 5.49-12.51 14.724-15.48 2.088-1.026 3.492-2.07 4.176-3.132zm0-51.246c-.288-.468-.738-.936-1.296-1.422-.504-.504-1.584-1.008-3.222-1.494-3.744-.108-5.778.828-6.102 2.826-6.354-2.826-6.534-6.048-.558-9.648 1.17-.45 2.88-.612 5.148-.522-.936-4.14.648-5.742 4.77-4.77.432.162.846.324 1.26.486v2.952c-1.89-.882-2.628-.432-2.232 1.368h2.232z" clip-rule="evenodd"/></svg>