<svg viewBox="0 0 128 128" xmlns="http://www.w3.org/2000/svg"><path d="M38.996 46.317a7.615 7.615 0 00-4.163 1.976.743.743 0 00-.23.522.76.76 0 00.215.526l.948.982a.727.727 0 00.948.067 4.315 4.315 0 012.613-.871 4.36 4.36 0 013.094 7.449c-6.045 6.045-14.114-10.892-32.427-2.18a2.49 2.49 0 00-1.11 3.488l3.14 5.432a2.49 2.49 0 003.366.925l.077-.044-.062.044 1.393-.782a31.907 31.907 0 004.381-3.273.77.77 0 011.005 0 .71.71 0 01.272.555.732.732 0 01-.239.555 32.855 32.855 0 01-4.62 3.428h-.044l-1.392.776a3.882 3.882 0 01-1.93.503 4.004 4.004 0 01-3.456-1.978l-2.968-5.132c-5.701 4.027-9.16 11.786-7.302 21.63a.732.732 0 00.709.589h3.384a.721.721 0 00.714-.632 4.953 4.953 0 019.829 0 .727.727 0 00.72.632h3.296a.721.721 0 00.714-.632 4.958 4.958 0 019.834 0 .721.721 0 00.714.632h3.256a.721.721 0 00.722-.71c.077-4.586 1.313-9.855 4.84-12.495 12.219-9.14 9.009-16.976 6.18-19.82a7.615 7.615 0 00-6.421-2.162zm-7.218 13.38a1.464 1.464 0 011.177 2.613v-.008l-2.33-1.17a1.464 1.464 0 011.153-1.436zm71.569 2.268v7.12a4.83 4.83 0 00-1.436-.958 4.73 4.73 0 00-1.938-.354 5.285 5.285 0 00-2.395.555 5.48 5.48 0 00-1.83 1.48 6.755 6.755 0 00-1.17 2.217 9.229 9.229 0 00-.412 2.773 10.876 10.876 0 00.367 2.952 6.323 6.323 0 001.026 2.164 4.398 4.398 0 003.615 1.796 5.12 5.12 0 002.47-.555 6.91 6.91 0 001.873-1.514l.277 1.303a.765.765 0 00.817.593h1.991V61.965zm6.503 0v19.572h3.25V61.965zm-47.641.317a11.209 11.209 0 00-4.109.714 8.78 8.78 0 00-3.111 1.996 8.902 8.902 0 00-1.979 3.084 10.737 10.737 0 00-.699 3.939 10.327 10.327 0 00.72 3.91 8.818 8.818 0 002.063 3.084 9.428 9.428 0 003.227 2.012 11.691 11.691 0 004.217.722 11.99 11.99 0 003.51-.493 10.072 10.072 0 003.088-1.56v-7.703h-6.344v2.001a.638.638 0 00.196.468.721.721 0 00.555.193h2.394v3.456a9.207 9.207 0 01-1.618.603 7.21 7.21 0 01-1.881.221 7.31 7.31 0 01-2.673-.465 5.663 5.663 0 01-2.053-1.351 6.156 6.156 0 01-1.315-2.177 8.541 8.541 0 01-.465-2.916 8.352 8.352 0 01.434-2.773 6.173 6.173 0 011.236-2.12 5.452 5.452 0 011.94-1.351 6.578 6.578 0 012.551-.478 8.957 8.957 0 011.532.116 8.552 8.552 0 011.197.306 5.546 5.546 0 01.971.431l.872.506a1.11 1.11 0 00.824.188.97.97 0 00.622-.465l1.015-1.609a10.344 10.344 0 00-1.303-1.015 8.508 8.508 0 00-1.575-.78 10.82 10.82 0 00-1.87-.507 12.14 12.14 0 00-2.169-.187zm16.262 5.496a3.195 3.195 0 00-2.053.665 5.896 5.896 0 00-1.503 1.925l-.192-1.527a.788.788 0 00-.967-.814H71.85v13.505h3.255v-8.32a6.184 6.184 0 01.476-.958 3.195 3.195 0 01.593-.722 2.451 2.451 0 01.76-.455 2.701 2.701 0 01.962-.154 4.437 4.437 0 01.753.067 3.821 3.821 0 00.588.064.555.555 0 00.34-.098.632.632 0 00.187-.339l.21-2.436a2.512 2.512 0 00-1.503-.403zm8.32 0a8.042 8.042 0 00-5.609 2.13l.64 1.04a1.409 1.409 0 00.383.412.904.904 0 00.552.177 1.436 1.436 0 00.722-.183l.717-.416a5.44 5.44 0 01.915-.41 3.988 3.988 0 011.308-.188 2.13 2.13 0 011.665.655 2.973 2.973 0 01.552 2.007v.822a20.299 20.299 0 00-2.739.226 13.31 13.31 0 00-2.096.493 6.744 6.744 0 00-1.514.689 4.648 4.648 0 00-1.004.87 2.917 2.917 0 00-.553.964 3.14 3.14 0 00-.172 1.028 4.054 4.054 0 00.288 1.59 3.067 3.067 0 00.82 1.144 3.428 3.428 0 001.248.691 5.136 5.136 0 001.58.23 6.533 6.533 0 001.326-.124 5.68 5.68 0 001.11-.36 5.979 5.979 0 001.008-.588 12.135 12.135 0 001.004-.81l.288.977a.993.993 0 00.396.555 1.542 1.542 0 00.714.138h1.465v-8.525a6.411 6.411 0 00-.334-2.107 4.742 4.742 0 00-.982-1.663 4.559 4.559 0 00-1.58-1.081 5.546 5.546 0 00-2.117-.383zm35.136.04a7.177 7.177 0 00-2.526.525 6.062 6.062 0 00-2.04 1.426 6.267 6.267 0 00-1.282 2.117 7.476 7.476 0 00-.447 2.603 8.874 8.874 0 00.514 3.15 6.589 6.589 0 001.408 2.267 5.901 5.901 0 002.11 1.382 7.249 7.249 0 002.623.465 10.416 10.416 0 001.446-.11 7.765 7.765 0 001.486-.36 6.71 6.71 0 001.405-.689 5.44 5.44 0 001.208-1.058l-.943-1.198a.677.677 0 00-.61-.305 1.248 1.248 0 00-.621.182c-.2.122-.467.261-.755.411a6.1 6.1 0 01-.997.404 4.337 4.337 0 01-1.365.19 4.12 4.12 0 01-1.441-.244 3.084 3.084 0 01-1.11-.738 3.738 3.738 0 01-.766-1.254 6.467 6.467 0 01-.365-1.796h8.369a.654.654 0 00.604-.257 2.124 2.124 0 00.162-.992 7.166 7.166 0 00-.44-2.6 5.546 5.546 0 00-1.22-1.925 5.125 5.125 0 00-1.858-1.192 7.177 7.177 0 00-2.549-.403zm-.324 2.367a3.45 3.45 0 011.82.203 2.446 2.446 0 01.904.666 2.734 2.734 0 01.555.976 3.999 3.999 0 01.177 1.192l-6.156-.005a3.938 3.938 0 011.03-2.274 3.45 3.45 0 011.67-.758zm-20.864.067a3.483 3.483 0 011.403.275 3.167 3.167 0 011.205.95l.005 6.057a5.236 5.236 0 01-1.344 1.198 3.328 3.328 0 01-1.724.42 2.773 2.773 0 01-1.149-.233 2.063 2.063 0 01-.863-.748 3.943 3.943 0 01-.555-1.343 9.046 9.046 0 01-.19-2.007 8.158 8.158 0 01.223-2.035 4.032 4.032 0 01.648-1.426 2.64 2.64 0 011.01-.833 3.04 3.04 0 011.33-.275zM88.636 75.77v2.269a5.241 5.241 0 01-1.423 1.11 3.882 3.882 0 01-1.737.36 2.163 2.163 0 01-1.32-.373 1.409 1.409 0 01-.51-1.22 1.359 1.359 0 01.255-.802 2.052 2.052 0 01.827-.65 6.311 6.311 0 011.542-.45 17.376 17.376 0 012.366-.244z" fill="#02303a"/></svg>
