<?xml version="1.0" encoding="utf-8"?>
<!-- Generator: Adobe Illustrator 19.2.1, SVG Export Plug-In . SVG Version: 6.00 Build 0)  -->
<svg version="1.1" id="Layer_1" xmlns="http://www.w3.org/2000/svg" xmlns:xlink="http://www.w3.org/1999/xlink" x="0px" y="0px"
	 viewBox="0 0 128 128" style="enable-background:new 0 0 128 128;" xml:space="preserve">
<path fill="#02303A" d="M99.5,112.5c-0.3,0-0.5,0-0.7,0c-4.5,0-9,0-13.5,0c-0.5,0-0.8-0.2-1.1-0.5c-3.2-4-6.7-7.7-10.9-10.6
	c-2.1-1.5-4.3-2.8-6.8-3.5c-2-0.6-4.1-0.9-6.2-0.4c-2.1,0.5-3.9,1.7-5.4,3.2c-1.9,1.9-3.2,4.2-4.2,6.7c-0.6,1.5-1.1,3-1.6,4.5
	c-0.1,0.2-0.1,0.4-0.2,0.6c-3.8,0-7.5,0-11.4,0c-0.1-0.6-0.2-1.2-0.3-1.9c-0.4-2-1-4-2-5.8c-0.7-1.4-1.6-2.6-2.8-3.6
	c-1.3-1.1-2.8-1.7-4.5-1.7c-1.3,0-2.4,0.5-3.5,1.2c-1.5,1-2.7,2.3-3.6,3.8c-1.4,2.2-2.2,4.7-2.9,7.2c-0.1,0.2-0.1,0.5-0.2,0.8
	c-5,0-9.9,0-14.9,0c-0.1-0.7-0.2-1.5-0.3-2.2c-0.5-4.7-0.8-9.4-0.7-14.1c0.1-5.5,0.7-10.9,2-16.3C5,75,6.7,70.4,9.3,66.2
	c3.6-5.7,8.4-9.8,14.7-12.3c0.2-0.1,0.3-0.1,0.5-0.2c0,0,0.1,0,0.2,0c0.1,0.2,0.2,0.4,0.3,0.6c1.8,4,3.7,7.9,6,11.5
	c1.4,2.3,3.4,4,5.9,4.8c2.7,0.9,5.3,0.6,7.9-0.5c2.3-1,4.2-2.5,6-4.2c2.1-2,3.8-4.2,5.5-6.6c0.1-0.1,0.1-0.2,0.1-0.3
	c-0.2,0.2-0.4,0.4-0.7,0.6c-2.5,2.5-5.2,4.7-8.3,6.4c-1.5,0.9-3.2,1.6-4.9,1.9c-2.5,0.5-4.8,0.2-6.8-1.6c-0.8-0.7-1.4-1.5-2-2.3
	c-3-4.7-5.6-9.6-8-14.6c-0.5-1-0.9-2-1-3.2c-0.2-1.7,0.3-3.2,1.5-4.5c0.9-0.9,1.9-1.6,3.1-2.2c2.2-1.1,4.5-1.9,6.8-2.7
	c3.4-1.1,6.9-1.9,10.5-2.4c4.1-0.6,8.3-0.7,12.5-0.2c9,0.9,17,4.2,24.3,9.5c2.5,1.8,5.1,3.3,8.1,4.2c11.9,3.8,21.4-4.4,23.6-12.8
	c0.6-2.3,0.8-4.6-0.1-6.8c-1.3-3.4-3.6-6-7.3-7c-2.8-0.7-5.5-0.4-8.1,1c-0.5,0.3-1,0.5-1.5,0.7c-1.2,0.4-2,0.1-2.6-1
	c-0.8-1.4-1.4-2.8-2.1-4.3c-0.3-0.6-0.2-1.1,0.1-1.6c0.3-0.7,0.8-1.2,1.4-1.7c1.5-1.2,3.3-2,5.3-2.4c4.9-1.1,9.5-0.4,13.9,1.8
	c3.5,1.7,6.2,4.3,8.2,7.7c1.9,3.2,3.2,6.6,3.8,10.3c0.4,2.9,0.4,5.7,0.1,8.6c-0.6,5-2,9.7-4,14.3c-2.6,6-5.6,11.8-9.3,17.2
	c-1.8,2.6-3.7,5.1-5.5,7.6c-1.9,2.7-3.8,5.4-5.2,8.4c-1.9,3.9-3,7.9-3.4,12.2c-0.3,3.7-0.1,7.3,0.5,11
	C99.4,111.7,99.5,112.1,99.5,112.5z M91.3,61.1c0.3,2.4-0.5,4-2.7,4.9C87,66.6,85,66.1,84,64.7c-1.6-2.1-1.1-4,0.7-5.8
	c-1.8-0.6-3.6-1.2-5.3-1.7c-0.4,1-0.6,2.5-0.5,3.7c0.2,2.4,1.1,4.4,3.1,5.7c2.1,1.4,4.5,2,7,1.5c2.6-0.5,4.6-2,6-4.2
	c0.3-0.4,0.5-0.8,0.5-1.4C94.1,62.1,92.7,61.6,91.3,61.1z"/>
</svg>
