<svg xmlns="http://www.w3.org/2000/svg" viewBox="0 0 128 128"><path d="M81.973 12.93c-.395.394-.676.816-.621.93.027.14-.082.226-.254.226-.141 0-.196.14-.114.281.086.168-.027.363-.254.45-.25.085-.39.28-.308.394.086.14.027.309-.14.422-.169.113-.227.312-.141.453.113.14.027.254-.141.254-.195 0-.281.168-.195.39.082.227.082.48-.032.594-.113.113-.222.59-.253 1.07-.11 1.551-.364 6.93-.504 10.903-.172 4.113-.286 6.168-.426 6.617-.028.14-.055.367-.028.48.06.368-.222.254-.789-.308-.308-.313-.476-.621-.394-.707.113-.082.031-.168-.168-.168-.195 0-.254-.14-.168-.281.082-.168.055-.282-.059-.282-.254 0-1.039-1.664-.957-2.058 0-.11-.113-.195-.28-.195-.142 0-.196-.141-.114-.282.086-.168.027-.281-.14-.281-.169 0-.223-.14-.141-.281.085-.172.027-.281-.141-.281-.168 0-.227-.145-.14-.286.085-.168.027-.28-.141-.28-.168 0-.227-.142-.14-.282.085-.168.026-.281-.142-.281-.168 0-.226-.141-.14-.282.082-.168.027-.28-.14-.28-.173 0-.227-.142-.141-.282.082-.172.027-.281-.141-.281-.172 0-.227-.141-.14-.286.081-.168.027-.28-.141-.28-.172 0-.227-.141-.145-.282.086-.168.031-.281-.14-.281-.168 0-.25-.114-.168-.254.085-.14-.028-.336-.282-.422-.254-.113-.394-.254-.308-.367.113-.082-.032-.336-.313-.563-.308-.254-.336-.336-.054-.226.226.113.054-.14-.422-.563-.453-.394-.649-.648-.422-.535.222.113-.395-.59-1.41-1.578-1.016-.984-1.914-1.774-2.028-1.746-.14.027-.226-.082-.226-.254 0-.14-.114-.195-.282-.11-.14.083-.28.083-.28-.058 0-.113-.31-.254-.704-.254-.394-.027-.707.086-.707.227 0 .168-.195.226-.422.113-.222-.086-.422-.027-.422.14 0 .168-.113.223-.254.141-.14-.086-.336.027-.421.281-.086.227-.282.368-.395.282-.79-.48-1.805 2.843-1.125 3.691.168.195.195.676.11 1.07-.11.395-.083.871.03 1.07.11.196.255.844.282 1.465.113 2.168.082 10.704-.059 12.114-.082.758-.168 1.773-.222 2.254-.032.449-.172 1.011-.286 1.21-.14.196-.167.59-.054.872.086.308.027.62-.14.734-.169.11-.227.422-.141.703.085.281.027.59-.141.703-.168.114-.227.422-.14.735.113.308.054.535-.141.535-.2 0-.254.195-.168.45.082.253.082.593-.032.76-.308.477-.28 2.731.032 2.731.14 0 .168.086.082.2-.114.082.027.335.308.562.285.254.313.34.059.195-.281-.14-.254 0 .113.395.59.68.844.82.59.254-.113-.168.027-.082.281.226.254.309.594.535.735.508.14-.058.254.055.254.227 0 .14.14.195.28.11.169-.083.282-.028.282.14 0 .172.14.226.281.14.168-.082.282-.027.282.145 0 .168.14.222.28.14.173-.085.282-.03.282.141 0 .168.14.223.281.14.172-.085.285-.03.285.141 0 .168.141.223.282.141.168-.086.281-.059.281.113 0 .168.195.223.422.14.226-.112.422-.026.422.142 0 .562 1.07.335 1.773-.368.395-.394.621-.761.535-.843-.082-.086 0-.172.2-.172.195 0 .28-.11.168-.25-.083-.145-.028-.34.14-.453.172-.114.227-.309.14-.45-.113-.14-.054-.254.114-.254s.227-.199.14-.421c-.113-.227-.027-.422.173-.422.195 0 .28-.2.168-.426-.086-.223-.028-.422.14-.422s.254-.195.14-.422c-.085-.226-.027-.422.141-.422.168 0 .254-.199.141-.422-.086-.226-.027-.421.14-.421.169 0 .227-.114.114-.254-.086-.141-.027-.34.14-.453.168-.114.227-.31.141-.45-.113-.14-.027-.254.113-.254.168 0 .282-.14.227-.34-.086-.476.73-.449 1.152.06.34.366.368.366.2 0-.114-.227.28.081.843.702s.957.93.844.703c-.11-.222.535.34 1.41 1.27.871.93 1.52 1.492 1.406 1.266-.109-.223.086-.11.426.285.336.39.73.703.871.703.168 0 .395.195.535.422.141.226.282.28.282.14 0-.168.14-.054.312.227.168.254.395.422.563.336.14-.113.254-.028.254.14 0 .172.14.227.28.141.169-.082.282-.055.282.113s.195.227.422.141c.227-.113.422-.055.422.086 0 .281 1.183.45 2.426.309.422-.028 2-1.38 1.855-1.579-.027-.027-.027-.082-.027-.14.199-.364.281-4.223.34-19.184.054-17.152.054-17.465-.508-18-.309-.281-.563-.644-.563-.785 0-.145-.199-.395-.422-.535-.226-.145-.285-.285-.14-.285.168 0-.031-.282-.426-.59-.394-.309-.504-.508-.281-.395.226.114.172-.027-.14-.28-.31-.255-.563-.563-.563-.677 0-.34-1.606-1.832-1.973-1.86-.14-.026-.59.282-.984.677zm0 0M8.168 13.297c0 .14-.113.195-.254.113-.14-.086-.336.027-.422.281-.082.223-.281.364-.422.282-.308-.2-.93.507-.675.757.085.114.027.2-.141.2-.2 0-.309.086-.281.195 0 .145-.059.453-.168.707-.114.254-.145 1.352-.059 2.395s.168 2.363.2 2.898c0 .535.14 1.129.28 1.324.169.172.223.594.114.903-.086.28-.031.62.14.734.196.11.25.504.168.844-.085.367-.027.761.114.843.168.114.222.422.14.707-.086.282-.027.59.141.704.168.113.227.421.14.703-.085.281-.027.593.141.703.168.113.227.426.14.707-.085.281-.027.59.141.703.168.113.227.422.141.703-.086.281-.027.594.14.707.169.11.227.422.141.73-.113.31-.054.536.141.536.172 0 .281.168.254.34-.055.449 6.367 7.125 6.848 7.125.25 0 .335 1.632.363 6.789.027 3.718.14 6.93.226 7.07.114.168.114.508.028.762-.082.254-.028.449.168.449.172 0 .254.113.14.254-.082.14-.027.34.145.45.168.112.223.312.14.452-.113.14-.03.254.141.254.168 0 .223.11.14.281-.085.141-.03.282.141.282.168 0 .223.113.141.28-.086.141-.027.282.14.282.169 0 .255.113.169.254-.082.14.027.34.253.422.227.086.395.281.368.422-.059.14.168.48.476.734.313.254.367.367.14.254-.222-.113.087.336.68.957.618.648 1.211 1.098 1.352 1.016.11-.086.309.054.395.28.082.255.28.364.422.282.14-.086.253 0 .253.168s.114.227.282.14c.168-.085.28-.027.28.141 0 .168.114.227.282.141.14-.082.281-.055.281.086 0 .14.422.227.93.195.48-.054.875-.222.817-.394-.028-.168.058-.309.199-.309.14 0 .254-.48.281-1.07 0-1.016.14-2.817.45-5.973.226-2.422.421-4.789.847-10.422.281-3.746.336-4.226.703-4.648.195-.227.254-.422.14-.422-.113 0 .087-.254.45-.59.367-.312.48-.48.254-.367-.227.113-.055-.2.394-.676.45-.48.903-.816 1.016-.762.113.086.45-.14.73-.507.535-.618.535-.618-.054-.196-.313.223-.059-.058.562-.675.649-.594 1.156-1.184 1.156-1.325 0-.113.254-.422.563-.648.309-.254.45-.45.309-.45-.168 0-.028-.199.28-.452.282-.227.34-.368.114-.254-.281.113-.254.058.059-.223.28-.227.422-.48.308-.566-.086-.114-.027-.196.168-.196.2 0 .254-.14.168-.281-.082-.172-.027-.281.113-.281.172 0 .282-.086.282-.227a.648.648 0 01.03-.34c.196-.422.169-2-.03-2.109-.11-.086-.168-.34-.055-.566.086-.223 0-.422-.195-.422-.172 0-.227-.14-.145-.282.086-.168.031-.28-.168-.28-.195 0-.281-.055-.195-.141.168-.2-2.086-2.536-2.367-2.454-.14.032-.227-.082-.227-.25 0-.14-.113-.226-.254-.14-.14.082-.336-.031-.422-.285-.082-.223-.28-.336-.449-.25-.14.082-.281.027-.281-.145 0-.168-.113-.223-.281-.14-.141.085-.286.03-.286-.141 0-.168-.14-.223-.28-.14-.169.085-.282.03-.282-.114 0-.168-.113-.309-.281-.309-.336 0-1.52 1.13-1.184 1.13.113 0-.113.28-.508.59-.39.308-.504.507-.28.394.226-.114-.028.195-.563.675-.536.508-.79.817-.563.704.227-.114-.254.507-1.098 1.382-.847.872-1.636 1.52-1.777 1.434-.11-.082-.309.059-.394.285-.082.25-.282.363-.422.281-.141-.086-.254-.03-.254.114 0 .308-1.688.28-2.196-.032-.199-.14-.28-.363-.199-.503.113-.145.031-.254-.14-.254-.168 0-.254-.114-.141-.254.086-.14.027-.34-.14-.453-.169-.114-.223-.309-.141-.45.113-.14.086-.422-.055-.62-.227-.364-.367-1.434-.395-3.012 0-.536-.14-1.13-.28-1.297-.141-.2-.2-.676-.087-1.07.114-.481.055-.735-.168-.735-.199 0-.254-.223-.14-.563.113-.335.054-.562-.14-.562-.173 0-.255-.113-.142-.254.082-.14.028-.336-.14-.45-.172-.112-.227-.312-.145-.452.114-.14.032-.254-.14-.254-.168 0-.223-.14-.14-.281.085-.168.03-.282-.142-.282-.168 0-.222-.14-.14-.28.086-.169-.028-.368-.254-.45-.254-.086-.395-.281-.309-.422.086-.113-.113-.367-.422-.535-.308-.172-.507-.426-.453-.535.086-.114-.28-.649-.816-1.157-.535-.535-.984-.843-.984-.675 0 .14-.141.054-.282-.168-.14-.227-.394-.453-.562-.453-.14-.028-.313-.055-.34-.114-.281-.195-3.043-.14-3.043.059zm0 0M102.086 15.55c-.086.11-.313.141-.535.028-.227-.086-.426 0-.426.195 0 .172-.11.227-.281.141-.14-.082-.281-.027-.281.14 0 .173-.114.255-.254.141-.141-.082-.477.059-.704.313-.253.222-.449.336-.449.222 0-.109-.199.032-.426.34-.222.282-.421.422-.421.282 0-.114-.254.058-.59.421-.309.368-.48.48-.367.254.113-.222-.254 0-.817.535-.562.536-.93 1.098-.844 1.325.082.226 0 .394-.199.394-.168 0-.222.114-.14.282.085.14.027.28-.141.28-.168 0-.227.141-.14.282.085.172-.028.367-.255.453-.254.082-.394.281-.308.422.082.113-.113.367-.422.535-.313.168-.508.422-.426.59.113.145.031.254-.14.254-.168 0-.223.113-.141.281.086.145.031.285-.14.285-.169 0-.223.11-.141.282.086.14.027.28-.141.28-.168 0-.227.114-.14.282.085.14.058.281-.114.281-.168 0-.223.2-.14.422.113.227.027.422-.141.422-.168 0-.227.2-.14.426.113.223.027.422-.169.422-.168 0-.254.113-.14.254.082.14.027.336-.114.449-.168.086-.226.34-.113.562.086.227 0 .422-.195.422-.2 0-.254.227-.14.567.109.336.054.562-.141.562-.2 0-.254.227-.145.563.113.34.059.562-.14.562-.223 0-.282.254-.169.707.114.45.059.703-.14.703-.196 0-.254.254-.14.703.112.395.085.875-.028 1.07-.313.481-.313 6.481 0 6.876.14.195.168.476.055.648-.114.168-.028.477.14.703.172.227.254.535.14.703-.081.141-.027.282.141.282.2 0 .286.199.172.422-.086.226-.031.425.14.425.169 0 .196.11.114.282-.086.14-.031.28.14.28.169 0 .223.114.141.282-.086.14-.03.281.114.281.168 0 .28.114.222.254-.027.14.2.48.508.73.309.255.367.368.14.255-.226-.114.087.34.677.96.62.645 1.21 1.098 1.324 1.012.113-.054.367.14.535.45.168.312.422.507.594.425.14-.113.336.028.422.254.082.25.28.395.394.309.11-.086.309.054.395.308.082.227.28.34.449.254.14-.086.281-.027.281.14 0 .169.14.227.281.142.168-.083.282-.028.282.14 0 .172.14.227.28.14.173-.081.286-.027.286.141 0 .2.223.254.535.141.309-.082.617-.027.73.145.227.363 4 .363 4.255-.032.085-.168.48-.222.843-.14.395.113.676.058.676-.114 0-.168.14-.222.281-.14.172.086.285.031.285-.14 0-.169.11-.255.282-.142.14.086.476-.167.73-.562.254-.367.563-.621.703-.535.145.086.254 0 .254-.168 0-.172.14-.227.281-.14.172.081.286.027.286-.173 0-.195.054-.28.14-.195.196.195 2.281-1.773 2.168-2.086-.027-.14.14-.308.367-.394.223-.082.336-.282.254-.422-.086-.14.055-.336.282-.422.253-.086.363-.281.28-.422-.085-.14 0-.254.169-.254.168 0 .226-.14.14-.281-.086-.168-.027-.281.141-.281.168 0 .227-.141.14-.282-.081-.172-.054-.285.114-.285s.227-.195.14-.422c-.113-.222-.027-.422.169-.422.199 0 .253-.226.14-.535-.082-.308-.055-.62.059-.676.394-.253.113-14.59-.309-15.492-.113-.254-.14-.675-.058-.93.113-.253.027-.648-.141-.843-.168-.227-.254-.567-.168-.82.113-.223.055-.477-.113-.59-.168-.086-.227-.34-.14-.563.085-.226.026-.394-.142-.394-.168 0-.253-.2-.14-.422.082-.227.027-.426-.14-.426-.173 0-.2-.14-.114-.281.086-.168.027-.282-.113-.282-.168 0-.282-.113-.227-.253.031-.141-.195-.477-.504-.73-.312-.255-.367-.368-.14-.255.222.113.054-.199-.395-.676-.902-.957-1.156-1.128-.875-.562.113.195-.14-.031-.535-.48-.395-.481-.735-.731-.735-.563 0 .14-.14.055-.308-.227-.168-.253-.395-.421-.563-.336-.14.11-.254.028-.254-.14 0-.172-.113-.227-.28-.145-.141.086-.282.032-.282-.14 0-.168-.113-.25-.254-.14-.14.085-.34.03-.45-.11-.085-.172-.339-.227-.566-.114-.222.082-.421.028-.421-.113 0-.281-3.07-.34-3.266-.027zm2.422 13.266c0 .141.082.168.222.114.114-.055.426.113.707.422.254.28.395.507.282.507-.114 0-.059.141.14.336.422.426.45 1.551.055 1.778-.168.113-.223.422-.14.73.113.281.058.535-.114.535-.168 0-.222.2-.14.422.113.227.03.426-.168.426-.168 0-.227.11-.141.281.086.14.027.281-.14.281-.169 0-.255.114-.141.254.086.141.027.336-.14.45-.169.113-.228.308-.142.453.114.14-.027.336-.253.422-.254.082-.368.28-.282.421.082.141 0 .254-.168.254-.172 0-.254.114-.172.254.086.14-.027.336-.253.422-.223.082-.395.254-.364.367.114.309-1.101 1.492-1.297 1.266-.086-.086-.168 0-.168.168 0 .508-.593.394-1.043-.168-.226-.254-.308-.309-.199-.086.14.254.086.34-.14.2-.168-.114-.254-.31-.168-.45.086-.113-.055-.367-.282-.566-.48-.395-.562-2.141-.14-2.395.168-.11.226-.422.14-.73-.113-.282-.054-.536.114-.536s.222-.199.14-.421c-.113-.227-.027-.422.168-.422.2 0 .281-.2.168-.426-.082-.223-.027-.422.14-.422.173 0 .227-.113.114-.254-.082-.14-.027-.336.14-.45.173-.112.227-.308.141-.448-.109-.145-.027-.254.141-.254.172 0 .227-.14.145-.281-.086-.172-.032-.286.109-.286.172 0 .281-.082.281-.222-.027-.114 0-.282.031-.422.028-.113.082-.285.114-.426 0-.11.28-.45.59-.758.535-.535 2.113-.789 2.113-.34zm0 0M52.648 21.887c-.027.058-.058.226-.086.367 0 .168-.195.422-.421.535-.196.14-.309.367-.196.535.082.168.055.395-.113.48-.172.11-.227.45-.14.731.113.309.027.735-.141.957-.227.281-.281.93-.14 2.086.109 1.125.081 1.719-.141 1.86-.172.113-.227.421-.145.703.086.28.031.59-.14.703-.169.113-.223.426-.141.707.086.281.031.59-.14.703-.169.113-.224.422-.142.73.114.313.06.536-.14.536-.195 0-.281.199-.195.425.113.223.054.477-.086.563-.141.082-.196.336-.086.562.086.227 0 .422-.196.422-.199 0-.28.2-.168.422.082.227.028.426-.14.426-.172 0-.254.195-.172.422.113.222.059.476-.082.562-.14.086-.2.336-.086.563.086.226 0 .422-.195.422-.2 0-.286.199-.2.421.114.227.059.48-.113.567-.14.113-.195.308-.082.45.082.14 0 .448-.172.675-.168.226-.254.535-.14.703.113.172.03.48-.141.707-.168.223-.254.535-.14.703.085.14.027.281-.141.281-.168 0-.254.114-.168.254s-.028.34-.282.422c-.253.086-.34.313-.226.508.113.195.113.281 0 .168-.14-.113-.508-.082-.844.059-.676.253-1.691-.141-1.437-.594.113-.14.027-.254-.14-.254-.169 0-.227-.14-.142-.281a.684.684 0 00-.058-.649c-.11-.168-.25-1.492-.281-2.87-.082-2.735-.336-8.114-.45-9.72-.027-.535-.168-1.156-.28-1.351-.142-.168-.142-.48-.06-.621.086-.168.032-.282-.167-.282-.196 0-.282-.085-.168-.168.086-.085-.168-.48-.594-.875-.422-.394-.504-.535-.195-.335.507.363.535.363.167-.086-.195-.282-.476-.422-.617-.368-.113.086-.453-.168-.707-.562-.254-.367-.562-.621-.703-.563-.113.082-.367-.113-.535-.421-.168-.313-.422-.508-.59-.422-.14.11-.254.027-.254-.145 0-.168-.113-.223-.281-.14-.145.085-.285.03-.285-.141 0-.168-.11-.223-.281-.14-.141.085-.282.058-.282-.114 0-.281-.394-.25-1.183.113-.282.114-.422.313-.336.453.082.141.027.254-.14.254-.173 0-.227.196-.141.422.113.223.027.422-.172.422-.196 0-.282.168-.196.395.086.226.086.476-.027.59-.113.113-.227.535-.254.93-.34 3.886-.394 5.745-.394 10.76 0 6.817.086 8.763.394 9.212.14.199.14.508.055.648-.113.168-.028.48.14.703.2.227.254.422.141.422-.11 0-.055.172.113.367.168.227.227.48.114.563-.086.113-.028.2.168.2.199 0 .254.112.171.28-.085.141-.03.282.141.282.168 0 .254.113.168.254-.086.14.027.335.281.421.227.086.34.282.254.454-.086.14-.027.28.14.28.169 0 .255.11.141.255-.085.168.114.422.422.59.313.167.508.421.453.535-.085.113.223.508.704.843.449.34.761.735.703.848-.082.14.113.477.48.758l.617.535-.535-.703c-.308-.395-.054-.195.567.422.59.62 1.18 1.097 1.324 1.043.11-.028.281.14.363.367.086.227.281.336.422.254.145-.086.254-.027.254.14 0 .168.2.223.426.141.222-.113.422-.027.422.14 0 .169.195.227.421.141.227-.113.422-.054.422.055 0 .227 3.38.313 3.606.113.027-.027.199-.113.34-.14.168-.028.363-.114.504-.14.113-.028.285-.056.425-.028.11 0 .196-.114.196-.282 0-.14.113-.226.254-.14.14.082.335-.027.421-.281.086-.227.282-.34.454-.254.14.082.28.027.28-.114 0-.168.11-.28.255-.226.14.027.476-.195.73-.508.254-.309.367-.363.254-.14-.113.226.195.058.676-.395.957-.899 1.125-1.152.562-.871-.195.113-.082-.059.254-.367.34-.309.535-.621.45-.73-.11-.087-.028-.173.171-.173.196 0 .254-.14.168-.281-.086-.168-.027-.281.14-.281.169 0 .227-.14.142-.281-.082-.168-.028-.282.14-.282s.227-.14.14-.281c-.081-.172-.027-.281.141-.281.2 0 .282-.2.172-.426-.086-.223-.03-.422.14-.422.169 0 .255-.195.169-.422-.113-.226-.059-.476.086-.562.14-.086.195-.34.11-.535-.083-.227-.028-.48.14-.563.172-.113.226-.367.14-.566-.082-.223 0-.477.145-.59.168-.086.25-.309.14-.45-.085-.14-.03-.453.141-.648.168-.199.254-.562.14-.816-.085-.227 0-.508.169-.621.168-.114.226-.422.14-.735-.113-.308-.054-.535.141-.535.168 0 .227-.281.113-.703-.113-.45-.054-.703.168-.703.227 0 .282-.254.168-.676-.082-.394-.027-.789.114-.875.171-.113.226-.422.14-.73-.11-.282-.082-.676.059-.875.113-.196.254-.758.281-1.211.055-.477.14-1.66.227-2.676.28-3.043.168-6.309-.227-6.957-.113-.168-.113-.508-.027-.762.113-.254.027-.449-.172-.449-.195 0-.281-.2-.168-.422.086-.226.027-.426-.14-.426-.169 0-.196-.14-.114-.28.086-.169.027-.282-.14-.282-.169 0-.223-.14-.141-.281.086-.168.027-.282-.14-.282-.169 0-.282-.086-.227-.226.058-.114-.45-.73-1.098-1.352-.676-.648-1.211-1.097-1.211-.984 0 .082-.113 0-.254-.2-.195-.335-2.195-.675-2.309-.421zm0 0M56.48 23.379c.282.312.563.566.645.566.086 0-.082-.254-.363-.566-.282-.309-.567-.563-.649-.563-.086 0 .082.254.367.563zm0 0M32.113 25.465c0 .055.227.281.508.48.422.364.45.336.082-.113-.363-.453-.59-.594-.59-.367zm0 0M101.125 61.773c0 .172-.082.2-.195.114-.254-.254-1.239.648-1.043.957.086.14 0 .254-.168.254s-.227.113-.14.28c.081.142.026.282-.141.282-.168 0-.254.113-.141.254.082.14.027.34-.113.453-.168.082-.227.336-.114.563.086.226 0 .422-.168.422-.199 0-.254.253-.14.675.082.368.027.762-.14.875-.173.082-.227.477-.142.871.082.368.028.875-.171 1.102-.223.25-.254.785-.141 1.547.113.762.086 1.297-.14 1.55-.223.255-.282.79-.141 1.438.113.676.086.957-.114.817-.168-.086-.308-.032-.308.14 0 .195-.227.254-.535.14-.309-.085-.621-.027-.735.141-.11.168-.422.227-.73.141-.309-.113-.535-.059-.535.14 0 .196-.227.255-.535.141-.31-.086-.622-.027-.735.14-.11.169-.422.228-.703.142-.281-.082-.59-.028-.703.14-.086.168-.309.227-.45.113-.144-.085-.452-.027-.648.141-.199.168-.594.254-.847.14-.254-.113-.45-.027-.45.169 0 .199-.199.285-.421.199-.227-.113-.481-.059-.563.113-.113.14-.285.195-.426.113-.14-.085-.562.168-.957.563-.562.562-.676.871-.535 1.633.113.734.027 1.015-.309 1.129-.253.11-.453.054-.453-.114 0-.171-.11-.226-.25-.14-.14.082-.34-.031-.425-.281-.082-.227-.282-.368-.422-.286-.141.086-.422-.054-.618-.308-.34-.395-.34-.45.028-.254.254.113.222.058-.059-.195-.281-.227-.422-.48-.308-.567.086-.11.027-.195-.141-.195-.535 0-.395-1.07.195-1.66.313-.313.621-.48.707-.368.082.083.168.028.168-.113 0-.226.703-.34 3.52-.48.762-.028 1.297-.254 1.637-.676.535-.648.648-1.492.195-1.492-.14 0-.281-.254-.281-.563 0-.308-.141-.562-.282-.562-.168 0-.254-.086-.226-.227.086-.226-2.336-2.734-2.649-2.734-.109 0-.394-.25-.644-.563-.254-.308-.395-.367-.285-.14.113.281.058.254-.223-.055-.227-.281-.48-.422-.562-.312-.114.085-.2.03-.2-.168 0-.196-.113-.254-.28-.168-.142.086-.282.027-.282-.141 0-.168-.113-.227-.281-.14-.141.081-.282.027-.282-.141 0-.172-.113-.254-.254-.14-.14.081-.34.026-.453-.114-.082-.168-.336-.227-.562-.113-.227.085-.422.027-.422-.086 0-.141-.563-.254-1.27-.254-.703 0-1.265.086-1.265.199 0 .113-.2.14-.422.055-.227-.114-.422-.028-.422.171 0 .168-.113.223-.285.141-.14-.086-.281-.031-.281.14 0 .169-.114.223-.282.141-.14-.086-.28-.027-.28.141 0 .168-.114.227-.282.14-.14-.085-.281-.027-.281.141 0 .168-.114.227-.282.14-.14-.085-.28-.026-.28.141 0 .168-.114.227-.282.141-.145-.086-.285-.027-.285.14 0 .169-.11.227-.282.141-.14-.082-.28-.027-.28.141 0 .172-.114.254-.255.172-.14-.086-.336.027-.422.281-.113.254-.254.395-.367.281-.082-.086-.363.082-.562.395-.227.308-.535.476-.703.394-.168-.113-.227-.058-.114.114.086.168-.086.476-.394.703-.309.195-.48.476-.367.562.086.114.03.2-.168.2-.196 0-.254.109-.168.28.082.141.027.282-.141.282-.2 0-.281.168-.2.395.087.222.087.476 0 .562-.14.14-.195 4.535-.054 4.957a.712.712 0 010 .34c0 .14.113.223.254.223.14 0 .254.113.195.226-.027.14.34.59.79 1.016.48.422.648.703.421.59-.222-.086 1.157 1.379 3.102 3.27 1.941 1.913 3.32 3.35 3.097 3.237-.226-.113-.027.141.422.563.48.422.844.875.844 1.016 0 .14.2.363.422.503.227.145.313.286.145.286-.145 0-.032.195.25.421.312.223.453.422.34.422-.114 0 0 .196.226.45.254.226.394.566.309.707-.114.14-.055.254.113.254s.222.168.14.39c-.085.227 0 .48.168.594.227.14.227.308-.027.59-.168.226-.227.394-.113.394.113 0-.14.282-.563.621-.703.563-2.593.871-2.761.45-.028-.082-.227-.223-.45-.282-.507-.113-1.918-1.437-1.777-1.718.059-.114-.055-.196-.223-.196-.172 0-.226-.14-.14-.281.082-.14.027-.281-.14-.281-.2 0-.255-.2-.173-.426a.488.488 0 00-.281-.617c-.59-.227-1.8.449-1.606.93.086.222 0 .394-.195.394-.172 0-.226.113-.14.281.082.14.082.45-.032.617-.308.48-.308 5.297-.027 5.497.113.054.14.363.059.675-.114.309-.059.535.14.535.168 0 .223.114.14.282-.085.14-.027.281.114.281.168 0 .281.113.223.254-.028.14.199.476.508.73.308.254.367.395.14.286-.222-.114.028.222.563.703.535.476.789.789.566.675-.226-.113.281.508 1.125 1.38 1.606 1.663 1.86 1.859 1.55 1.242-.112-.172 0-.114.224.14.226.281.48.422.566.309.11-.086.195-.028.195.14s.2.254.422.168c.227-.113.422-.027.422.141 0 .172.453.312.988.312.535 0 .985-.14.985-.312 0-.168.199-.254.422-.168.226.113.48.055.566-.113.11-.14.309-.196.45-.114.14.114.253.032.253-.14 0-.168.14-.223.281-.14.168.085.282.027.282-.141 0-.168.14-.227.28-.141.173.086.282.027.282-.14 0-.169.14-.227.281-.141.172.086.368-.028.453-.254.082-.254.282-.395.422-.309.114.082.368-.113.535-.422.168-.312.395-.535.536-.48.14.027.507-.254.843-.649.368-.394.536-.507.426-.28-.113.226.422-.227 1.18-.985.762-.79 1.355-1.496 1.297-1.637-.055-.11.058-.195.226-.195s.227-.14.14-.281c-.085-.168-.026-.282.142-.282.168 0 .226-.14.14-.281a.687.687 0 01.028-.621c.535-.844.562-6.703.058-6.703-.172 0-.226-.2-.14-.426.109-.223.054-.477-.114-.563-.14-.113-.199-.28-.113-.421.086-.141.027-.309-.14-.422-.169-.114-.227-.281-.141-.422.082-.14.027-.313-.141-.422-.172-.113-.227-.313-.14-.453.113-.14.027-.254-.114-.254-.168 0-.308-.113-.308-.254 0-.11.59-.223 1.351-.254.73 0 2-.11 2.817-.195.93-.14 1.464-.086 1.464.086 0 .168.254.394.563.476.308.114.508.282.422.422-.082.14 0 .34.168.426.172.14.226.477.086.957-.282.984-.309 7.07-.028 7.07.14 0 .14.254.055.563-.113.308-.055.562.113.562s.309.086.281.2c-.054.476.395 1.492.676 1.492.172 0 .227.086.114.168-.082.113.113.422.453.734.336.309.422.45.195.336-.227-.113.14.395.816 1.098.704.734 1.325 1.242 1.38 1.183.085-.082.312 0 .534.2.508.421 1.72.535 1.946.195a.32.32 0 01.422-.113c.14.113.254.03.254-.141 0-.195.168-.281.394-.195a.433.433 0 00.563-.254c.086-.254.28-.368.421-.282.145.082.395-.027.594-.253.196-.227.254-.422.114-.422-.141 0 0-.2.28-.422.31-.227.45-.426.337-.426-.14 0-.082-.195.113-.422.172-.223.254-.535.14-.703-.113-.168-.027-.48.141-.703.254-.281.281-1.016.172-2.313-.34-3.293-.453-4.703-.535-5.859-.059-.617-.14-1.266-.2-1.406-.054-.168-.113-.844-.167-1.551-.028-.703-.14-1.66-.254-2.14-.14-.65-.055-1.044.308-1.466.282-.335.594-.535.735-.449.113.082.222 0 .222-.168 0-.172.145-.226.286-.14.168.082.28.027.28-.145 0-.168.114-.25.255-.14.14.085.336.03.449-.141.113-.168.309-.223.45-.14.14.113.253.03.253-.141 0-.196.2-.282.422-.168.227.086.426.027.426-.14 0-.169.195-.255.422-.142.222.082.422.028.422-.14s.195-.254.421-.14c.227.081.422.027.422-.141 0-.172.2-.254.422-.141.227.082.426.027.426-.14 0-.173.195-.255.422-.141.222.082.422.027.422-.145 0-.168.195-.25.422-.14.226.085.421.03.421-.11s.2-.2.422-.113c.227.113.426.027.426-.172 0-.168.14-.223.281-.14.168.085.282.03.282-.141 0-.196.195-.281.421-.168.227.086.422.027.422-.14 0-.169.114-.227.254-.114.14.086.34.027.45-.14.113-.169.312-.227.453-.141.14.113.254.027.254-.141 0-.168.14-.227.28-.14.169.085.282.027.282-.141 0-.168.14-.227.281-.14.168.081.281.026.281-.141 0-.168.141-.227.282-.141.172.082.281.027.281-.14 0-.173.145-.227.285-.141.168.082.281.027.281-.114 0-.172.082-.28.223-.254.113.055.566-.28.988-.734.649-.644.817-1.07.844-2.309.059-.843-.027-1.52-.168-1.52-.113 0-.14-.14-.058-.312.113-.168-.028-.476-.31-.675-.308-.223-.448-.422-.366-.422.113 0-.336-.535-.985-1.184-.62-.648-1.238-1.152-1.351-1.125-.14.028-.227-.086-.227-.254 0-.14-.113-.199-.281-.113-.14.086-.281.086-.281-.055 0-.113-2.254-.226-5.016-.226-4.476 0-5.043-.059-5.492-.508-.367-.367-.48-.79-.395-1.266.086-.48-.027-.875-.308-1.129-.34-.254-.34-.308-.059-.168.227.141-.535-.703-1.687-1.832-1.157-1.156-2.227-2.054-2.34-2.054-.113.027-.281-.14-.367-.367-.082-.227-.282-.34-.422-.254-.14.086-.254 0-.254-.168s-.11-.254-.254-.141a.32.32 0 01-.422-.113c-.223-.34-1.578-.309-1.578.054zm0 0"/><path d="M106.48 64.367c.364.395.73.703.79.703.082 0-.145-.308-.508-.703-.367-.394-.735-.707-.79-.707-.085 0 .141.313.508.707zm0 0M33.945 70.45c-.113.171-.367.226-.593.14-.227-.082-.395-.028-.395.14 0 .172-.113.227-.254.145-.113-.086-.535.168-.871.535-.367.395-.535.703-.395.703.141 0 .028.14-.253.309-.254.168-.422.394-.34.535.086.14.031.313-.14.422-.169.113-.224.312-.142.453.114.14.028.254-.14.254-.195 0-.281.195-.195.422.113.222.054.476-.114.562-.14.114-.199.309-.086.45.086.14 0 .453-.168.675-.168.227-.254.535-.14.707.113.168.086.535-.028.79-.28.562-.367 1.8-.535 6.675-.058 2-.14 4.14-.172 4.703 0 .59-.168 1.07-.308 1.07-.168 0-.227.169-.168.34.14.395-.762 1.407-1.016 1.125-.082-.085-.168-.027-.168.114 0 .14-.734.254-1.605.254-1.157 0-1.774-.141-2.114-.508-.562-.535-.675-2.028-.226-2.309.172-.113.226-.426.14-.734-.109-.309-.054-.535.141-.535.2 0 .254-.227.145-.563-.114-.34-.059-.562.14-.562.196 0 .25-.227.14-.535-.085-.313-.03-.622.11-.707.367-.223.34-3.493 0-3.715-.14-.086-.195-.395-.11-.707.11-.282.056-.535-.112-.535s-.227-.196-.141-.422c.113-.227.027-.422-.172-.422-.168 0-.223-.14-.14-.281.085-.168.03-.282-.141-.282-.168 0-.223-.14-.14-.281.085-.172.03-.285-.141-.285-.168 0-.254-.11-.168-.25.086-.145-.028-.34-.282-.426-.226-.082-.367-.281-.28-.394.195-.31-1.352-1.829-1.606-1.575-.114.11-.254-.03-.367-.285-.086-.25-.282-.363-.422-.281-.141.086-.254 0-.254-.14 0-.169-.086-.282-.2-.282a.753.753 0 01-.363-.027c-.761-.309-2.902-.422-4.058-.227-.649.113-1.801 1.129-1.66 1.41.054.14 0 .227-.168.227-.172 0-.227.168-.145.39.086.227.031.48-.14.594-.169.086-.223.48-.141.844.086.367.058.848-.082 1.043-.114.2-.254 2-.282 4.027-.113 6.114-.253 8.735-.48 9.102-.113.168-.14.45-.027.617.195.313-.848 1.438-1.098 1.184-.086-.086-.172 0-.172.199 0 .222-.195.308-.422.195-.226-.086-.422-.027-.422.14 0 .169-.199.255-.421.141-.227-.086-.422-.027-.422.141 0 .168-.2.254-.426.168-.223-.11-.477-.055-.563.086-.082.14-.336.2-.562.086-.227-.086-.422 0-.422.195 0 .168-.113.254-.254.14-.14-.081-.34-.027-.45.141-.112.172-.312.227-.452.141-.14-.11-.254-.027-.254.172 0 .195-.082.281-.168.195-.086-.086-.422.114-.762.45-.45.453-.617.96-.617 1.945 0 .734.082 1.324.195 1.324.114 0 .14.195.059.422-.113.226-.031.422.168.422.168 0 .222.14.14.281-.085.172-.027.285.114.285.168 0 .281.082.254.195-.059.141.28.563.703.985.422.426.761.68.761.566 0-.113.196.055.45.364.226.312.508.566.62.593.255 0 4.11 3.86 4.11 4.114.031.113.285.394.594.648.309.25.367.395.14.281-.226-.113-.167.028.114.254.308.25.449.45.281.45-.14 0-.027.14.254.308.254.172.422.394.336.562-.11.145-.027.254.113.254.168 0 .281.114.227.254-.028.114.254.508.648.848.395.363.508.535.281.422-.226-.113-.058.195.395.676.45.476.93.816 1.07.73.114-.082.309.059.395.281.082.254.281.368.422.285.14-.085.34.055.422.282.085.254.28.363.421.281.141-.086.254 0 .254.168 0 .2.2.281.422.168.227-.082.426-.055.426.086 0 .14.504.226 1.125.195.621 0 1.125-.14 1.125-.281 0-.14.086-.195.172-.11.195.223 1.433-.988 1.324-1.269-.058-.113-.031-.195.11-.195.285 0 .285-3.973 0-4.453-.141-.196-.169-.59-.055-.872.086-.312.027-.62-.14-.734-.196-.113-.255-.508-.169-.844.082-.367.055-.761-.113-.847-.734-.45.254-2.45 1.07-2.168.196.058.336-.055.336-.227 0-.195.227-.25.567-.14.335.113.562.058.562-.141 0-.195.195-.281.422-.168.227.086.422.027.422-.14 0-.169.199-.255.422-.141.226.086.425.027.425-.14 0-.169.11-.2.282-.114.14.086.535-.14.843-.508.93-1.07 2.114-.844 3.665.676.675.676 1.238 1.324 1.265 1.41 0 .113.309.476.703.816.395.34.508.508.282.395-.282-.14-.25-.028.113.394.281.336.648.536.762.45.14-.082.253 0 .253.171 0 .168.141.223.282.141.168-.086.28-.031.28.11 0 .171.114.285.255.226.113-.027.508.254.844.648.367.395.566.508.453.282-.114-.227.027-.168.281.14.254.313.59.535.73.508.141-.055.254.055.254.227 0 .14.141.195.282.113.171-.086.28-.031.28.14 0 .169.141.223.286.141.168-.086.281-.031.281.114 0 .617 1.352.28 2.196-.54.507-.476.902-.898.902-.984 0-.086 0-.168.027-.226.114-.504.059-2.73-.086-2.73-.11 0-.14-.2-.054-.423.113-.226.027-.422-.168-.422-.168 0-.227-.113-.141-.285.082-.168.027-.281-.14-.281-.2 0-.282-.195-.172-.422.085-.227.03-.422-.141-.422-.168 0-.254-.195-.168-.422.113-.226.059-.48-.113-.593-.168-.082-.223-.336-.141-.563.086-.195.027-.45-.14-.562-.169-.086-.227-.368-.141-.59.113-.254.027-.621-.14-.82-.169-.196-.227-.505-.114-.676.113-.168.027-.477-.14-.704-.196-.226-.255-.62-.169-.875.082-.25.082-.59-.027-.757-.14-.2-.254-.735-.281-1.184-.145-1.633-.34-3.973-.535-5.578-.114-1.043-.06-1.773.14-2 .168-.195.25-.59.14-.844-.112-.254-.03-.453.169-.453.195 0 .281-.195.195-.422-.11-.222-.055-.476.113-.562.141-.114.2-.309.086-.45-.086-.14-.027-.453.14-.648.169-.2.255-.594.142-.848-.086-.254-.028-.449.167-.449.2 0 .254-.226.141-.562-.113-.34-.082-.735.059-.93.308-.422.308-5.55 0-6.059-.14-.168-.14-.336-.032-.336.086 0 .032-.199-.167-.421-.196-.227-.254-.422-.114-.422.114 0-.027-.2-.336-.453-.281-.227-.34-.336-.113-.227.227.113.055-.195-.395-.676-.449-.476-.93-.816-1.07-.73-.113.086-.226 0-.226-.168 0-.172-.114-.227-.282-.14-.14.081-.28.026-.28-.141 0-.172-.114-.227-.282-.145-.14.086-.281.031-.281-.14 0-.169-.114-.255-.254-.141-.14.086-.34.031-.45-.114-.085-.168-.34-.222-.535-.14-.226.086-.48.031-.593-.14-.082-.169-.422-.31-.704-.31-.28 0-.62.141-.703.31zm-2.367 32.28c.367.454.336.48-.086.114-.281-.196-.508-.422-.508-.477 0-.226.227-.086.594.363zM10 105.914c.281.313.45.566.367.566-.086 0-.367-.253-.648-.566-.281-.309-.45-.562-.367-.562.085 0 .367.253.648.562zm0 0M52.762 73.605c-.086.141-.313.168-.535.086-.227-.086-.395-.03-.395.141 0 .168-.2.254-.422.14-.226-.085-.426-.027-.426.141 0 .168-.109.196-.28.114-.142-.086-.282-.032-.282.14 0 .168-.113.254-.254.14-.14-.085-.45.028-.676.255-.222.222-.476.336-.59.254-.086-.114-.172-.032-.172.168 0 .195-.109.28-.25.195-.14-.082-.34.031-.425.281-.11.254-.25.426-.309.34-.195-.195-2.562 2.113-2.45 2.367.056.14-.058.223-.226.223s-.226.113-.14.285c.086.14.027.281-.14.281-.169 0-.227.114-.142.281.082.141.028.282-.14.282s-.227.113-.14.281c.081.14.027.281-.141.281-.2 0-.282.2-.172.422.086.227.03.422-.11.422s-.199.2-.113.426c.113.222.027.422-.172.422-.195 0-.281.195-.195.422.113.226.055.48-.113.562-.141.113-.196.313-.082.453.082.14.027.45-.145.645-.168.199-.25.566-.14.82.085.223.03.504-.141.59-.168.113-.223.562-.14.984.085.453.058.875-.083.961-.281.168-.254 5.887.027 6.363a.629.629 0 01.028.594c-.086.14-.028.281.14.281s.254.114.141.254c-.082.141.027.45.254.676.227.227.34.477.254.59-.113.086-.028.172.14.172.2 0 .31.11.254.25-.027.14.196.48.508.734.309.254.363.367.14.281-.226-.113-.027.141.423.563.48.394.648.676.422.562-.227-.109.058.254.675.79a34.11 34.11 0 012.059 2.058c.535.617.898.902.789.676-.113-.227.055-.14.363.195.313.34.621.535.735.453.082-.086.222.055.336.309.086.254.28.367.421.281.145-.082.34.059.426.281.082.254.282.368.422.282.14-.082.254 0 .254.172 0 .168.14.222.281.14.168-.086.282-.027.282.14 0 .169.113.255.253.141.141-.085.336-.027.45.141.113.168.28.227.422.14.14-.085.312-.054.367.087.199.28 3.605.254 4.086-.059.195-.113.59-.113.902-.027.336.113.563.054.563-.14 0-.2.195-.282.421-.2.227.113.48.058.563-.11.113-.14.281-.199.422-.113.14.082.312.028.426-.14.109-.172.308-.227.449-.141.14.11.254.027.254-.14 0-.173.14-.227.28-.141.169.082.282.027.282-.145 0-.168.14-.222.281-.14.168.085.282.03.282-.11 0-.172.086-.285.226-.226.254.086 1.633-1.297 1.551-1.551-.059-.14.055-.223.223-.223.14 0 .199-.14.113-.285-.086-.168.027-.363.254-.45.254-.085.367-.28.281-.421-.086-.14 0-.254.168-.254.172 0 .227-.14.14-.281-.081-.168.032-.367.255-.45.254-.085.367-.285.28-.425-.081-.14 0-.254.173-.254.168 0 .222-.14.14-.281-.086-.168-.027-.282.141-.282.168 0 .227-.14.14-.28-.085-.169-.027-.282.141-.282.168 0 .227-.14.14-.281-.085-.168-.026-.282.141-.282.168 0 .227-.14.141-.28-.086-.173-.027-.282.14-.282.169 0 .227-.145.141-.285-.082-.168-.027-.282.141-.282.172 0 .227-.14.14-.28-.081-.169-.027-.282.141-.282.172 0 .254-.113.14-.254-.081-.14-.026-.336.141-.45.172-.112.227-.312.145-.452-.113-.14-.031-.25.14-.25.169 0 .223-.145.141-.285-.086-.168-.031-.282.14-.282.169 0 .224-.14.141-.281-.085-.168-.027-.281.141-.281.168 0 .227-.14.14-.281-.085-.168-.058-.282.087-.282.14 0 .195-.48.14-1.07a70.428 70.428 0 01-.172-1.887c-.027-.48-.168-.988-.28-1.183-.114-.2-.141-.649-.028-1.016.086-.394.027-.789-.168-.902-.172-.11-.227-.45-.14-.73.113-.31.027-.735-.141-.958-.172-.226-.254-.535-.141-.707.11-.168.027-.476-.145-.703-.168-.227-.25-.535-.168-.676.114-.14.06-.336-.113-.449-.168-.113-.222-.312-.14-.453.113-.14.03-.254-.141-.254-.168 0-.254-.11-.14-.25.085-.145-.055-.48-.31-.707-.226-.254-.34-.45-.226-.45.113 0-.168-.34-.617-.761-.453-.422-.93-.73-1.043-.703-.113.027-.281-.14-.367-.367-.086-.227-.281-.336-.422-.254-.14.086-.254 0-.254-.168s-.113-.227-.281-.14c-.14.085-.281.027-.281-.141 0-.168-.114-.227-.282-.141-.14.082-.285.027-.285-.14 0-.173-.11-.227-.281-.141-.14.082-.281.027-.281-.14 0-.173-.114-.227-.282-.142-.14.082-.28.055-.28-.113 0-.172-.196-.226-.423-.14-.226.113-.422.027-.422-.172 0-.168-.113-.223-.28-.14-.141.085-.286.03-.286-.142 0-.168-.11-.222-.281-.14-.14.086-.282.027-.282-.14 0-.169-.113-.223-.28-.141-.141.085-.282.027-.282-.141 0-.195-.195-.281-.422-.168-.226.082-.422.027-.422-.14 0-.173-.113-.2-.281-.114-.145.086-.285.027-.285-.14 0-.2-.195-.282-.422-.169-.223.082-.422.028-.422-.14 0-.172-.113-.227-.254-.113-.14.082-.336.027-.449-.141-.113-.172-.281-.227-.422-.14-.14.081-.312.027-.426-.114-.082-.172-.336-.227-.562-.113-.223.086-.422.027-.422-.14 0-.31-2.254-.31-2.45.026zm4.422 12.31c.421.452.703.901.62.987-.085.082 0 .141.196.141.195 0 .254.113.168.281-.082.14-.055.281.059.281.168 0 .28 2.31.113 2.735-.031.055-.031.168-.059.281 0 .14-.226.45-.449.703-.254.281-.367.508-.281.508.082 0-.114.281-.453.648-.336.364-.703.618-.817.563-.14-.059-.226.027-.226.195 0 .172-.11.227-.282.14-.14-.081-.28-.026-.28.142 0 .171-.169.285-.337.253-.199-.027-.566.032-.816.141-.313.14-.735-.055-1.27-.617-.675-.676-.816-1.043-.843-2.254 0-.816.113-1.465.253-1.465.141 0 .196-.2.083-.422-.083-.226-.028-.426.14-.426.172 0 .2-.14.113-.28-.086-.169-.027-.282.141-.282.168 0 .227-.14.14-.281-.081-.168-.027-.282.141-.282.172 0 .254-.113.14-.253-.081-.168.114-.422.427-.59.308-.172.476-.453.39-.621-.11-.196-.082-.227.145-.114.168.114.39 0 .476-.222.086-.254.282-.368.422-.285.14.085.254 0 .254-.141 0-.59.903-.309 1.692.535zm-4.2 7.522c.368.45.34.477-.082.114-.48-.367-.62-.594-.394-.594.054 0 .281.227.476.48zm0 0M46.027 76.957l-.535.648.649-.535c.34-.308.62-.59.62-.648 0-.227-.226-.055-.734.535zm0 0"/></svg>