<?xml version="1.0" encoding="UTF-8"?>
<svg xmlns="http://www.w3.org/2000/svg" xmlns:xlink="http://www.w3.org/1999/xlink" width="128px" height="128px" viewBox="0 0 128 128" version="1.1">
<g id="surface1">
<path style=" stroke:none;fill-rule:nonzero;fill:rgb(0%,0%,0%);fill-opacity:1;" d="M 81.972656 12.929688 C 81.578125 13.324219 81.296875 13.746094 81.351562 13.859375 C 81.378906 14 81.269531 14.085938 81.097656 14.085938 C 80.957031 14.085938 80.902344 14.226562 80.984375 14.367188 C 81.070312 14.535156 80.957031 14.730469 80.730469 14.816406 C 80.480469 14.902344 80.339844 15.097656 80.421875 15.210938 C 80.507812 15.351562 80.449219 15.519531 80.28125 15.632812 C 80.113281 15.746094 80.054688 15.945312 80.140625 16.085938 C 80.253906 16.226562 80.167969 16.339844 80 16.339844 C 79.804688 16.339844 79.71875 16.507812 79.804688 16.730469 C 79.886719 16.957031 79.886719 17.210938 79.773438 17.324219 C 79.660156 17.4375 79.550781 17.914062 79.519531 18.394531 C 79.410156 19.945312 79.15625 25.324219 79.015625 29.296875 C 78.84375 33.410156 78.730469 35.464844 78.589844 35.914062 C 78.5625 36.054688 78.535156 36.28125 78.5625 36.394531 C 78.621094 36.761719 78.339844 36.648438 77.773438 36.085938 C 77.464844 35.773438 77.296875 35.464844 77.378906 35.378906 C 77.492188 35.296875 77.410156 35.210938 77.210938 35.210938 C 77.015625 35.210938 76.957031 35.070312 77.042969 34.929688 C 77.125 34.761719 77.097656 34.648438 76.984375 34.648438 C 76.730469 34.648438 75.945312 32.984375 76.027344 32.589844 C 76.027344 32.480469 75.914062 32.394531 75.746094 32.394531 C 75.605469 32.394531 75.550781 32.253906 75.632812 32.113281 C 75.71875 31.945312 75.660156 31.832031 75.492188 31.832031 C 75.324219 31.832031 75.269531 31.691406 75.351562 31.550781 C 75.4375 31.378906 75.378906 31.269531 75.210938 31.269531 C 75.042969 31.269531 74.984375 31.125 75.070312 30.984375 C 75.15625 30.816406 75.097656 30.703125 74.929688 30.703125 C 74.761719 30.703125 74.703125 30.5625 74.789062 30.421875 C 74.875 30.253906 74.816406 30.140625 74.648438 30.140625 C 74.480469 30.140625 74.421875 30 74.507812 29.859375 C 74.589844 29.691406 74.535156 29.578125 74.367188 29.578125 C 74.195312 29.578125 74.140625 29.4375 74.226562 29.296875 C 74.308594 29.125 74.253906 29.015625 74.085938 29.015625 C 73.914062 29.015625 73.859375 28.875 73.945312 28.730469 C 74.027344 28.5625 73.972656 28.449219 73.804688 28.449219 C 73.632812 28.449219 73.578125 28.308594 73.660156 28.167969 C 73.746094 28 73.691406 27.886719 73.519531 27.886719 C 73.351562 27.886719 73.269531 27.773438 73.351562 27.632812 C 73.4375 27.492188 73.324219 27.296875 73.070312 27.210938 C 72.816406 27.097656 72.675781 26.957031 72.761719 26.84375 C 72.875 26.761719 72.730469 26.507812 72.449219 26.28125 C 72.140625 26.027344 72.113281 25.945312 72.394531 26.054688 C 72.621094 26.167969 72.449219 25.914062 71.972656 25.492188 C 71.519531 25.097656 71.324219 24.84375 71.550781 24.957031 C 71.773438 25.070312 71.15625 24.367188 70.140625 23.378906 C 69.125 22.394531 68.226562 21.605469 68.113281 21.632812 C 67.972656 21.660156 67.886719 21.550781 67.886719 21.378906 C 67.886719 21.238281 67.773438 21.183594 67.605469 21.269531 C 67.464844 21.351562 67.324219 21.351562 67.324219 21.210938 C 67.324219 21.097656 67.015625 20.957031 66.621094 20.957031 C 66.226562 20.929688 65.914062 21.042969 65.914062 21.183594 C 65.914062 21.351562 65.71875 21.410156 65.492188 21.296875 C 65.269531 21.210938 65.070312 21.269531 65.070312 21.4375 C 65.070312 21.605469 64.957031 21.660156 64.816406 21.578125 C 64.675781 21.492188 64.480469 21.605469 64.394531 21.859375 C 64.308594 22.085938 64.113281 22.226562 64 22.140625 C 63.210938 21.660156 62.195312 24.984375 62.875 25.832031 C 63.042969 26.027344 63.070312 26.507812 62.984375 26.902344 C 62.875 27.296875 62.902344 27.773438 63.015625 27.972656 C 63.125 28.167969 63.269531 28.816406 63.296875 29.4375 C 63.410156 31.605469 63.378906 40.140625 63.238281 41.550781 C 63.15625 42.308594 63.070312 43.324219 63.015625 43.804688 C 62.984375 44.253906 62.84375 44.816406 62.730469 45.015625 C 62.589844 45.210938 62.5625 45.605469 62.675781 45.886719 C 62.761719 46.195312 62.703125 46.507812 62.535156 46.621094 C 62.367188 46.730469 62.308594 47.042969 62.394531 47.324219 C 62.480469 47.605469 62.421875 47.914062 62.253906 48.027344 C 62.085938 48.140625 62.027344 48.449219 62.113281 48.761719 C 62.226562 49.070312 62.167969 49.296875 61.972656 49.296875 C 61.773438 49.296875 61.71875 49.492188 61.804688 49.746094 C 61.886719 50 61.886719 50.339844 61.773438 50.507812 C 61.464844 50.984375 61.492188 53.238281 61.804688 53.238281 C 61.945312 53.238281 61.972656 53.324219 61.886719 53.4375 C 61.773438 53.519531 61.914062 53.773438 62.195312 54 C 62.480469 54.253906 62.507812 54.339844 62.253906 54.195312 C 61.972656 54.054688 62 54.195312 62.367188 54.589844 C 62.957031 55.269531 63.210938 55.410156 62.957031 54.84375 C 62.84375 54.675781 62.984375 54.761719 63.238281 55.070312 C 63.492188 55.378906 63.832031 55.605469 63.972656 55.578125 C 64.113281 55.519531 64.226562 55.632812 64.226562 55.804688 C 64.226562 55.945312 64.367188 56 64.507812 55.914062 C 64.675781 55.832031 64.789062 55.886719 64.789062 56.054688 C 64.789062 56.226562 64.929688 56.28125 65.070312 56.195312 C 65.238281 56.113281 65.351562 56.167969 65.351562 56.339844 C 65.351562 56.507812 65.492188 56.5625 65.632812 56.480469 C 65.804688 56.394531 65.914062 56.449219 65.914062 56.621094 C 65.914062 56.789062 66.054688 56.84375 66.195312 56.761719 C 66.367188 56.675781 66.480469 56.730469 66.480469 56.902344 C 66.480469 57.070312 66.621094 57.125 66.761719 57.042969 C 66.929688 56.957031 67.042969 56.984375 67.042969 57.15625 C 67.042969 57.324219 67.238281 57.378906 67.464844 57.296875 C 67.691406 57.183594 67.886719 57.269531 67.886719 57.4375 C 67.886719 58 68.957031 57.773438 69.660156 57.070312 C 70.054688 56.675781 70.28125 56.308594 70.195312 56.226562 C 70.113281 56.140625 70.195312 56.054688 70.394531 56.054688 C 70.589844 56.054688 70.675781 55.945312 70.5625 55.804688 C 70.480469 55.660156 70.535156 55.464844 70.703125 55.351562 C 70.875 55.238281 70.929688 55.042969 70.84375 54.902344 C 70.730469 54.761719 70.789062 54.648438 70.957031 54.648438 C 71.125 54.648438 71.183594 54.449219 71.097656 54.226562 C 70.984375 54 71.070312 53.804688 71.269531 53.804688 C 71.464844 53.804688 71.550781 53.605469 71.4375 53.378906 C 71.351562 53.15625 71.410156 52.957031 71.578125 52.957031 C 71.746094 52.957031 71.832031 52.761719 71.71875 52.535156 C 71.632812 52.308594 71.691406 52.113281 71.859375 52.113281 C 72.027344 52.113281 72.113281 51.914062 72 51.691406 C 71.914062 51.464844 71.972656 51.269531 72.140625 51.269531 C 72.308594 51.269531 72.367188 51.15625 72.253906 51.015625 C 72.167969 50.875 72.226562 50.675781 72.394531 50.5625 C 72.5625 50.449219 72.621094 50.253906 72.535156 50.113281 C 72.421875 49.972656 72.507812 49.859375 72.648438 49.859375 C 72.816406 49.859375 72.929688 49.71875 72.875 49.519531 C 72.789062 49.042969 73.605469 49.070312 74.027344 49.578125 C 74.367188 49.945312 74.394531 49.945312 74.226562 49.578125 C 74.113281 49.351562 74.507812 49.660156 75.070312 50.28125 C 75.632812 50.902344 76.027344 51.210938 75.914062 50.984375 C 75.804688 50.761719 76.449219 51.324219 77.324219 52.253906 C 78.195312 53.183594 78.84375 53.746094 78.730469 53.519531 C 78.621094 53.296875 78.816406 53.410156 79.15625 53.804688 C 79.492188 54.195312 79.886719 54.507812 80.027344 54.507812 C 80.195312 54.507812 80.421875 54.703125 80.5625 54.929688 C 80.703125 55.15625 80.84375 55.210938 80.84375 55.070312 C 80.84375 54.902344 80.984375 55.015625 81.15625 55.296875 C 81.324219 55.550781 81.550781 55.71875 81.71875 55.632812 C 81.859375 55.519531 81.972656 55.605469 81.972656 55.773438 C 81.972656 55.945312 82.113281 56 82.253906 55.914062 C 82.421875 55.832031 82.535156 55.859375 82.535156 56.027344 C 82.535156 56.195312 82.730469 56.253906 82.957031 56.167969 C 83.183594 56.054688 83.378906 56.113281 83.378906 56.253906 C 83.378906 56.535156 84.5625 56.703125 85.804688 56.5625 C 86.226562 56.535156 87.804688 55.183594 87.660156 54.984375 C 87.632812 54.957031 87.632812 54.902344 87.632812 54.84375 C 87.832031 54.480469 87.914062 50.621094 87.972656 35.660156 C 88.027344 18.507812 88.027344 18.195312 87.464844 17.660156 C 87.15625 17.378906 86.902344 17.015625 86.902344 16.875 C 86.902344 16.730469 86.703125 16.480469 86.480469 16.339844 C 86.253906 16.195312 86.195312 16.054688 86.339844 16.054688 C 86.507812 16.054688 86.308594 15.773438 85.914062 15.464844 C 85.519531 15.15625 85.410156 14.957031 85.632812 15.070312 C 85.859375 15.183594 85.804688 15.042969 85.492188 14.789062 C 85.183594 14.535156 84.929688 14.226562 84.929688 14.113281 C 84.929688 13.773438 83.324219 12.28125 82.957031 12.253906 C 82.816406 12.226562 82.367188 12.535156 81.972656 12.929688 Z M 81.972656 12.929688 "/>
<path style=" stroke:none;fill-rule:nonzero;fill:rgb(0%,0%,0%);fill-opacity:1;" d="M 8.167969 13.296875 C 8.167969 13.4375 8.054688 13.492188 7.914062 13.410156 C 7.773438 13.324219 7.578125 13.4375 7.492188 13.691406 C 7.410156 13.914062 7.210938 14.054688 7.070312 13.972656 C 6.761719 13.773438 6.140625 14.480469 6.394531 14.730469 C 6.480469 14.84375 6.421875 14.929688 6.253906 14.929688 C 6.054688 14.929688 5.945312 15.015625 5.972656 15.125 C 5.972656 15.269531 5.914062 15.578125 5.804688 15.832031 C 5.691406 16.085938 5.660156 17.183594 5.746094 18.226562 C 5.832031 19.269531 5.914062 20.589844 5.945312 21.125 C 5.945312 21.660156 6.085938 22.253906 6.226562 22.449219 C 6.394531 22.621094 6.449219 23.042969 6.339844 23.351562 C 6.253906 23.632812 6.308594 23.972656 6.480469 24.085938 C 6.675781 24.195312 6.730469 24.589844 6.648438 24.929688 C 6.5625 25.296875 6.621094 25.691406 6.761719 25.773438 C 6.929688 25.886719 6.984375 26.195312 6.902344 26.480469 C 6.816406 26.761719 6.875 27.070312 7.042969 27.183594 C 7.210938 27.296875 7.269531 27.605469 7.183594 27.886719 C 7.097656 28.167969 7.15625 28.480469 7.324219 28.589844 C 7.492188 28.703125 7.550781 29.015625 7.464844 29.296875 C 7.378906 29.578125 7.4375 29.886719 7.605469 30 C 7.773438 30.113281 7.832031 30.421875 7.746094 30.703125 C 7.660156 30.984375 7.71875 31.296875 7.886719 31.410156 C 8.054688 31.519531 8.113281 31.832031 8.027344 32.140625 C 7.914062 32.449219 7.972656 32.675781 8.167969 32.675781 C 8.339844 32.675781 8.449219 32.84375 8.421875 33.015625 C 8.367188 33.464844 14.789062 40.140625 15.269531 40.140625 C 15.519531 40.140625 15.605469 41.773438 15.632812 46.929688 C 15.660156 50.648438 15.773438 53.859375 15.859375 54 C 15.972656 54.167969 15.972656 54.507812 15.886719 54.761719 C 15.804688 55.015625 15.859375 55.210938 16.054688 55.210938 C 16.226562 55.210938 16.308594 55.324219 16.195312 55.464844 C 16.113281 55.605469 16.167969 55.804688 16.339844 55.914062 C 16.507812 56.027344 16.5625 56.226562 16.480469 56.367188 C 16.367188 56.507812 16.449219 56.621094 16.621094 56.621094 C 16.789062 56.621094 16.84375 56.730469 16.761719 56.902344 C 16.675781 57.042969 16.730469 57.183594 16.902344 57.183594 C 17.070312 57.183594 17.125 57.296875 17.042969 57.464844 C 16.957031 57.605469 17.015625 57.746094 17.183594 57.746094 C 17.351562 57.746094 17.4375 57.859375 17.351562 58 C 17.269531 58.140625 17.378906 58.339844 17.605469 58.421875 C 17.832031 58.507812 18 58.703125 17.972656 58.84375 C 17.914062 58.984375 18.140625 59.324219 18.449219 59.578125 C 18.761719 59.832031 18.816406 59.945312 18.589844 59.832031 C 18.367188 59.71875 18.675781 60.167969 19.269531 60.789062 C 19.886719 61.4375 20.480469 61.886719 20.621094 61.804688 C 20.730469 61.71875 20.929688 61.859375 21.015625 62.085938 C 21.097656 62.339844 21.296875 62.449219 21.4375 62.367188 C 21.578125 62.28125 21.691406 62.367188 21.691406 62.535156 C 21.691406 62.703125 21.804688 62.761719 21.972656 62.675781 C 22.140625 62.589844 22.253906 62.648438 22.253906 62.816406 C 22.253906 62.984375 22.367188 63.042969 22.535156 62.957031 C 22.675781 62.875 22.816406 62.902344 22.816406 63.042969 C 22.816406 63.183594 23.238281 63.269531 23.746094 63.238281 C 24.226562 63.183594 24.621094 63.015625 24.5625 62.84375 C 24.535156 62.675781 24.621094 62.535156 24.761719 62.535156 C 24.902344 62.535156 25.015625 62.054688 25.042969 61.464844 C 25.042969 60.449219 25.183594 58.648438 25.492188 55.492188 C 25.71875 53.070312 25.914062 50.703125 26.339844 45.070312 C 26.621094 41.324219 26.675781 40.84375 27.042969 40.421875 C 27.238281 40.195312 27.296875 40 27.183594 40 C 27.070312 40 27.269531 39.746094 27.632812 39.410156 C 28 39.097656 28.113281 38.929688 27.886719 39.042969 C 27.660156 39.15625 27.832031 38.84375 28.28125 38.367188 C 28.730469 37.886719 29.183594 37.550781 29.296875 37.605469 C 29.410156 37.691406 29.746094 37.464844 30.027344 37.097656 C 30.5625 36.480469 30.5625 36.480469 29.972656 36.902344 C 29.660156 37.125 29.914062 36.84375 30.535156 36.226562 C 31.183594 35.632812 31.691406 35.042969 31.691406 34.902344 C 31.691406 34.789062 31.945312 34.480469 32.253906 34.253906 C 32.5625 34 32.703125 33.804688 32.5625 33.804688 C 32.394531 33.804688 32.535156 33.605469 32.84375 33.351562 C 33.125 33.125 33.183594 32.984375 32.957031 33.097656 C 32.675781 33.210938 32.703125 33.15625 33.015625 32.875 C 33.296875 32.648438 33.4375 32.394531 33.324219 32.308594 C 33.238281 32.195312 33.296875 32.113281 33.492188 32.113281 C 33.691406 32.113281 33.746094 31.972656 33.660156 31.832031 C 33.578125 31.660156 33.632812 31.550781 33.773438 31.550781 C 33.945312 31.550781 34.054688 31.464844 34.054688 31.324219 C 34.027344 31.210938 34.054688 31.070312 34.085938 30.984375 C 34.28125 30.5625 34.253906 28.984375 34.054688 28.875 C 33.945312 28.789062 33.886719 28.535156 34 28.308594 C 34.085938 28.085938 34 27.886719 33.804688 27.886719 C 33.632812 27.886719 33.578125 27.746094 33.660156 27.605469 C 33.746094 27.4375 33.691406 27.324219 33.492188 27.324219 C 33.296875 27.324219 33.210938 27.269531 33.296875 27.183594 C 33.464844 26.984375 31.210938 24.648438 30.929688 24.730469 C 30.789062 24.761719 30.703125 24.648438 30.703125 24.480469 C 30.703125 24.339844 30.589844 24.253906 30.449219 24.339844 C 30.308594 24.421875 30.113281 24.308594 30.027344 24.054688 C 29.945312 23.832031 29.746094 23.71875 29.578125 23.804688 C 29.4375 23.886719 29.296875 23.832031 29.296875 23.660156 C 29.296875 23.492188 29.183594 23.4375 29.015625 23.519531 C 28.875 23.605469 28.730469 23.550781 28.730469 23.378906 C 28.730469 23.210938 28.589844 23.15625 28.449219 23.238281 C 28.28125 23.324219 28.167969 23.269531 28.167969 23.125 C 28.167969 22.957031 28.054688 22.816406 27.886719 22.816406 C 27.550781 22.816406 26.367188 23.945312 26.703125 23.945312 C 26.816406 23.945312 26.589844 24.226562 26.195312 24.535156 C 25.804688 24.84375 25.691406 25.042969 25.914062 24.929688 C 26.140625 24.816406 25.886719 25.125 25.351562 25.605469 C 24.816406 26.113281 24.5625 26.421875 24.789062 26.308594 C 25.015625 26.195312 24.535156 26.816406 23.691406 27.691406 C 22.84375 28.5625 22.054688 29.210938 21.914062 29.125 C 21.804688 29.042969 21.605469 29.183594 21.519531 29.410156 C 21.4375 29.660156 21.238281 29.773438 21.097656 29.691406 C 20.957031 29.605469 20.84375 29.660156 20.84375 29.804688 C 20.84375 30.113281 19.15625 30.085938 18.648438 29.773438 C 18.449219 29.632812 18.367188 29.410156 18.449219 29.269531 C 18.5625 29.125 18.480469 29.015625 18.308594 29.015625 C 18.140625 29.015625 18.054688 28.902344 18.167969 28.761719 C 18.253906 28.621094 18.195312 28.421875 18.027344 28.308594 C 17.859375 28.195312 17.804688 28 17.886719 27.859375 C 18 27.71875 17.972656 27.4375 17.832031 27.238281 C 17.605469 26.875 17.464844 25.804688 17.4375 24.226562 C 17.4375 23.691406 17.296875 23.097656 17.15625 22.929688 C 17.015625 22.730469 16.957031 22.253906 17.070312 21.859375 C 17.183594 21.378906 17.125 21.125 16.902344 21.125 C 16.703125 21.125 16.648438 20.902344 16.761719 20.5625 C 16.875 20.226562 16.816406 20 16.621094 20 C 16.449219 20 16.367188 19.886719 16.480469 19.746094 C 16.5625 19.605469 16.507812 19.410156 16.339844 19.296875 C 16.167969 19.183594 16.113281 18.984375 16.195312 18.84375 C 16.308594 18.703125 16.226562 18.589844 16.054688 18.589844 C 15.886719 18.589844 15.832031 18.449219 15.914062 18.308594 C 16 18.140625 15.945312 18.027344 15.773438 18.027344 C 15.605469 18.027344 15.550781 17.886719 15.632812 17.746094 C 15.71875 17.578125 15.605469 17.378906 15.378906 17.296875 C 15.125 17.210938 14.984375 17.015625 15.070312 16.875 C 15.15625 16.761719 14.957031 16.507812 14.648438 16.339844 C 14.339844 16.167969 14.140625 15.914062 14.195312 15.804688 C 14.28125 15.691406 13.914062 15.15625 13.378906 14.648438 C 12.84375 14.113281 12.394531 13.804688 12.394531 13.972656 C 12.394531 14.113281 12.253906 14.027344 12.113281 13.804688 C 11.972656 13.578125 11.71875 13.351562 11.550781 13.351562 C 11.410156 13.324219 11.238281 13.296875 11.210938 13.238281 C 10.929688 13.042969 8.167969 13.097656 8.167969 13.296875 Z M 8.167969 13.296875 "/>
<path style=" stroke:none;fill-rule:nonzero;fill:rgb(0%,0%,0%);fill-opacity:1;" d="M 102.085938 15.550781 C 102 15.660156 101.773438 15.691406 101.550781 15.578125 C 101.324219 15.492188 101.125 15.578125 101.125 15.773438 C 101.125 15.945312 101.015625 16 100.84375 15.914062 C 100.703125 15.832031 100.5625 15.886719 100.5625 16.054688 C 100.5625 16.226562 100.449219 16.308594 100.308594 16.195312 C 100.167969 16.113281 99.832031 16.253906 99.605469 16.507812 C 99.351562 16.730469 99.15625 16.84375 99.15625 16.730469 C 99.15625 16.621094 98.957031 16.761719 98.730469 17.070312 C 98.507812 17.351562 98.308594 17.492188 98.308594 17.351562 C 98.308594 17.238281 98.054688 17.410156 97.71875 17.773438 C 97.410156 18.140625 97.238281 18.253906 97.351562 18.027344 C 97.464844 17.804688 97.097656 18.027344 96.535156 18.5625 C 95.972656 19.097656 95.605469 19.660156 95.691406 19.886719 C 95.773438 20.113281 95.691406 20.28125 95.492188 20.28125 C 95.324219 20.28125 95.269531 20.394531 95.351562 20.5625 C 95.4375 20.703125 95.378906 20.84375 95.210938 20.84375 C 95.042969 20.84375 94.984375 20.984375 95.070312 21.125 C 95.15625 21.296875 95.042969 21.492188 94.816406 21.578125 C 94.5625 21.660156 94.421875 21.859375 94.507812 22 C 94.589844 22.113281 94.394531 22.367188 94.085938 22.535156 C 93.773438 22.703125 93.578125 22.957031 93.660156 23.125 C 93.773438 23.269531 93.691406 23.378906 93.519531 23.378906 C 93.351562 23.378906 93.296875 23.492188 93.378906 23.660156 C 93.464844 23.804688 93.410156 23.945312 93.238281 23.945312 C 93.070312 23.945312 93.015625 24.054688 93.097656 24.226562 C 93.183594 24.367188 93.125 24.507812 92.957031 24.507812 C 92.789062 24.507812 92.730469 24.621094 92.816406 24.789062 C 92.902344 24.929688 92.875 25.070312 92.703125 25.070312 C 92.535156 25.070312 92.480469 25.269531 92.5625 25.492188 C 92.675781 25.71875 92.589844 25.914062 92.421875 25.914062 C 92.253906 25.914062 92.195312 26.113281 92.28125 26.339844 C 92.394531 26.5625 92.308594 26.761719 92.113281 26.761719 C 91.945312 26.761719 91.859375 26.875 91.972656 27.015625 C 92.054688 27.15625 92 27.351562 91.859375 27.464844 C 91.691406 27.550781 91.632812 27.804688 91.746094 28.027344 C 91.832031 28.253906 91.746094 28.449219 91.550781 28.449219 C 91.351562 28.449219 91.296875 28.675781 91.410156 29.015625 C 91.519531 29.351562 91.464844 29.578125 91.269531 29.578125 C 91.070312 29.578125 91.015625 29.804688 91.125 30.140625 C 91.238281 30.480469 91.183594 30.703125 90.984375 30.703125 C 90.761719 30.703125 90.703125 30.957031 90.816406 31.410156 C 90.929688 31.859375 90.875 32.113281 90.675781 32.113281 C 90.480469 32.113281 90.421875 32.367188 90.535156 32.816406 C 90.648438 33.210938 90.621094 33.691406 90.507812 33.886719 C 90.195312 34.367188 90.195312 40.367188 90.507812 40.761719 C 90.648438 40.957031 90.675781 41.238281 90.5625 41.410156 C 90.449219 41.578125 90.535156 41.886719 90.703125 42.113281 C 90.875 42.339844 90.957031 42.648438 90.84375 42.816406 C 90.761719 42.957031 90.816406 43.097656 90.984375 43.097656 C 91.183594 43.097656 91.269531 43.296875 91.15625 43.519531 C 91.070312 43.746094 91.125 43.945312 91.296875 43.945312 C 91.464844 43.945312 91.492188 44.054688 91.410156 44.226562 C 91.324219 44.367188 91.378906 44.507812 91.550781 44.507812 C 91.71875 44.507812 91.773438 44.621094 91.691406 44.789062 C 91.605469 44.929688 91.660156 45.070312 91.804688 45.070312 C 91.972656 45.070312 92.085938 45.183594 92.027344 45.324219 C 92 45.464844 92.226562 45.804688 92.535156 46.054688 C 92.84375 46.308594 92.902344 46.421875 92.675781 46.308594 C 92.449219 46.195312 92.761719 46.648438 93.351562 47.269531 C 93.972656 47.914062 94.5625 48.367188 94.675781 48.28125 C 94.789062 48.226562 95.042969 48.421875 95.210938 48.730469 C 95.378906 49.042969 95.632812 49.238281 95.804688 49.15625 C 95.945312 49.042969 96.140625 49.183594 96.226562 49.410156 C 96.308594 49.660156 96.507812 49.804688 96.621094 49.71875 C 96.730469 49.632812 96.929688 49.773438 97.015625 50.027344 C 97.097656 50.253906 97.296875 50.367188 97.464844 50.28125 C 97.605469 50.195312 97.746094 50.253906 97.746094 50.421875 C 97.746094 50.589844 97.886719 50.648438 98.027344 50.5625 C 98.195312 50.480469 98.308594 50.535156 98.308594 50.703125 C 98.308594 50.875 98.449219 50.929688 98.589844 50.84375 C 98.761719 50.761719 98.875 50.816406 98.875 50.984375 C 98.875 51.183594 99.097656 51.238281 99.410156 51.125 C 99.71875 51.042969 100.027344 51.097656 100.140625 51.269531 C 100.367188 51.632812 104.140625 51.632812 104.394531 51.238281 C 104.480469 51.070312 104.875 51.015625 105.238281 51.097656 C 105.632812 51.210938 105.914062 51.15625 105.914062 50.984375 C 105.914062 50.816406 106.054688 50.761719 106.195312 50.84375 C 106.367188 50.929688 106.480469 50.875 106.480469 50.703125 C 106.480469 50.535156 106.589844 50.449219 106.761719 50.5625 C 106.902344 50.648438 107.238281 50.394531 107.492188 50 C 107.746094 49.632812 108.054688 49.378906 108.195312 49.464844 C 108.339844 49.550781 108.449219 49.464844 108.449219 49.296875 C 108.449219 49.125 108.589844 49.070312 108.730469 49.15625 C 108.902344 49.238281 109.015625 49.183594 109.015625 48.984375 C 109.015625 48.789062 109.070312 48.703125 109.15625 48.789062 C 109.351562 48.984375 111.4375 47.015625 111.324219 46.703125 C 111.296875 46.5625 111.464844 46.394531 111.691406 46.308594 C 111.914062 46.226562 112.027344 46.027344 111.945312 45.886719 C 111.859375 45.746094 112 45.550781 112.226562 45.464844 C 112.480469 45.378906 112.589844 45.183594 112.507812 45.042969 C 112.421875 44.902344 112.507812 44.789062 112.675781 44.789062 C 112.84375 44.789062 112.902344 44.648438 112.816406 44.507812 C 112.730469 44.339844 112.789062 44.226562 112.957031 44.226562 C 113.125 44.226562 113.183594 44.085938 113.097656 43.945312 C 113.015625 43.773438 113.042969 43.660156 113.210938 43.660156 C 113.378906 43.660156 113.4375 43.464844 113.351562 43.238281 C 113.238281 43.015625 113.324219 42.816406 113.519531 42.816406 C 113.71875 42.816406 113.773438 42.589844 113.660156 42.28125 C 113.578125 41.972656 113.605469 41.660156 113.71875 41.605469 C 114.113281 41.351562 113.832031 27.015625 113.410156 26.113281 C 113.296875 25.859375 113.269531 25.4375 113.351562 25.183594 C 113.464844 24.929688 113.378906 24.535156 113.210938 24.339844 C 113.042969 24.113281 112.957031 23.773438 113.042969 23.519531 C 113.15625 23.296875 113.097656 23.042969 112.929688 22.929688 C 112.761719 22.84375 112.703125 22.589844 112.789062 22.367188 C 112.875 22.140625 112.816406 21.972656 112.648438 21.972656 C 112.480469 21.972656 112.394531 21.773438 112.507812 21.550781 C 112.589844 21.324219 112.535156 21.125 112.367188 21.125 C 112.195312 21.125 112.167969 20.984375 112.253906 20.84375 C 112.339844 20.675781 112.28125 20.5625 112.140625 20.5625 C 111.972656 20.5625 111.859375 20.449219 111.914062 20.308594 C 111.945312 20.167969 111.71875 19.832031 111.410156 19.578125 C 111.097656 19.324219 111.042969 19.210938 111.269531 19.324219 C 111.492188 19.4375 111.324219 19.125 110.875 18.648438 C 109.972656 17.691406 109.71875 17.519531 110 18.085938 C 110.113281 18.28125 109.859375 18.054688 109.464844 17.605469 C 109.070312 17.125 108.730469 16.875 108.730469 17.042969 C 108.730469 17.183594 108.589844 17.097656 108.421875 16.816406 C 108.253906 16.5625 108.027344 16.394531 107.859375 16.480469 C 107.71875 16.589844 107.605469 16.507812 107.605469 16.339844 C 107.605469 16.167969 107.492188 16.113281 107.324219 16.195312 C 107.183594 16.28125 107.042969 16.226562 107.042969 16.054688 C 107.042969 15.886719 106.929688 15.804688 106.789062 15.914062 C 106.648438 16 106.449219 15.945312 106.339844 15.804688 C 106.253906 15.632812 106 15.578125 105.773438 15.691406 C 105.550781 15.773438 105.351562 15.71875 105.351562 15.578125 C 105.351562 15.296875 102.28125 15.238281 102.085938 15.550781 Z M 104.507812 28.816406 C 104.507812 28.957031 104.589844 28.984375 104.730469 28.929688 C 104.84375 28.875 105.15625 29.042969 105.4375 29.351562 C 105.691406 29.632812 105.832031 29.859375 105.71875 29.859375 C 105.605469 29.859375 105.660156 30 105.859375 30.195312 C 106.28125 30.621094 106.308594 31.746094 105.914062 31.972656 C 105.746094 32.085938 105.691406 32.394531 105.773438 32.703125 C 105.886719 32.984375 105.832031 33.238281 105.660156 33.238281 C 105.492188 33.238281 105.4375 33.4375 105.519531 33.660156 C 105.632812 33.886719 105.550781 34.085938 105.351562 34.085938 C 105.183594 34.085938 105.125 34.195312 105.210938 34.367188 C 105.296875 34.507812 105.238281 34.648438 105.070312 34.648438 C 104.902344 34.648438 104.816406 34.761719 104.929688 34.902344 C 105.015625 35.042969 104.957031 35.238281 104.789062 35.351562 C 104.621094 35.464844 104.5625 35.660156 104.648438 35.804688 C 104.761719 35.945312 104.621094 36.140625 104.394531 36.226562 C 104.140625 36.308594 104.027344 36.507812 104.113281 36.648438 C 104.195312 36.789062 104.113281 36.902344 103.945312 36.902344 C 103.773438 36.902344 103.691406 37.015625 103.773438 37.15625 C 103.859375 37.296875 103.746094 37.492188 103.519531 37.578125 C 103.296875 37.660156 103.125 37.832031 103.15625 37.945312 C 103.269531 38.253906 102.054688 39.4375 101.859375 39.210938 C 101.773438 39.125 101.691406 39.210938 101.691406 39.378906 C 101.691406 39.886719 101.097656 39.773438 100.648438 39.210938 C 100.421875 38.957031 100.339844 38.902344 100.449219 39.125 C 100.589844 39.378906 100.535156 39.464844 100.308594 39.324219 C 100.140625 39.210938 100.054688 39.015625 100.140625 38.875 C 100.226562 38.761719 100.085938 38.507812 99.859375 38.308594 C 99.378906 37.914062 99.296875 36.167969 99.71875 35.914062 C 99.886719 35.804688 99.945312 35.492188 99.859375 35.183594 C 99.746094 34.902344 99.804688 34.648438 99.972656 34.648438 C 100.140625 34.648438 100.195312 34.449219 100.113281 34.226562 C 100 34 100.085938 33.804688 100.28125 33.804688 C 100.480469 33.804688 100.5625 33.605469 100.449219 33.378906 C 100.367188 33.15625 100.421875 32.957031 100.589844 32.957031 C 100.761719 32.957031 100.816406 32.84375 100.703125 32.703125 C 100.621094 32.5625 100.675781 32.367188 100.84375 32.253906 C 101.015625 32.140625 101.070312 31.945312 100.984375 31.804688 C 100.875 31.660156 100.957031 31.550781 101.125 31.550781 C 101.296875 31.550781 101.351562 31.410156 101.269531 31.269531 C 101.183594 31.097656 101.238281 30.984375 101.378906 30.984375 C 101.550781 30.984375 101.660156 30.902344 101.660156 30.761719 C 101.632812 30.648438 101.660156 30.480469 101.691406 30.339844 C 101.71875 30.226562 101.773438 30.054688 101.804688 29.914062 C 101.804688 29.804688 102.085938 29.464844 102.394531 29.15625 C 102.929688 28.621094 104.507812 28.367188 104.507812 28.816406 Z M 104.507812 28.816406 "/>
<path style=" stroke:none;fill-rule:nonzero;fill:rgb(0%,0%,0%);fill-opacity:1;" d="M 52.648438 21.886719 C 52.621094 21.945312 52.589844 22.113281 52.5625 22.253906 C 52.5625 22.421875 52.367188 22.675781 52.140625 22.789062 C 51.945312 22.929688 51.832031 23.15625 51.945312 23.324219 C 52.027344 23.492188 52 23.71875 51.832031 23.804688 C 51.660156 23.914062 51.605469 24.253906 51.691406 24.535156 C 51.804688 24.84375 51.71875 25.269531 51.550781 25.492188 C 51.324219 25.773438 51.269531 26.421875 51.410156 27.578125 C 51.519531 28.703125 51.492188 29.296875 51.269531 29.4375 C 51.097656 29.550781 51.042969 29.859375 51.125 30.140625 C 51.210938 30.421875 51.15625 30.730469 50.984375 30.84375 C 50.816406 30.957031 50.761719 31.269531 50.84375 31.550781 C 50.929688 31.832031 50.875 32.140625 50.703125 32.253906 C 50.535156 32.367188 50.480469 32.675781 50.5625 32.984375 C 50.675781 33.296875 50.621094 33.519531 50.421875 33.519531 C 50.226562 33.519531 50.140625 33.71875 50.226562 33.945312 C 50.339844 34.167969 50.28125 34.421875 50.140625 34.507812 C 50 34.589844 49.945312 34.84375 50.054688 35.070312 C 50.140625 35.296875 50.054688 35.492188 49.859375 35.492188 C 49.660156 35.492188 49.578125 35.691406 49.691406 35.914062 C 49.773438 36.140625 49.71875 36.339844 49.550781 36.339844 C 49.378906 36.339844 49.296875 36.535156 49.378906 36.761719 C 49.492188 36.984375 49.4375 37.238281 49.296875 37.324219 C 49.15625 37.410156 49.097656 37.660156 49.210938 37.886719 C 49.296875 38.113281 49.210938 38.308594 49.015625 38.308594 C 48.816406 38.308594 48.730469 38.507812 48.816406 38.730469 C 48.929688 38.957031 48.875 39.210938 48.703125 39.296875 C 48.5625 39.410156 48.507812 39.605469 48.621094 39.746094 C 48.703125 39.886719 48.621094 40.195312 48.449219 40.421875 C 48.28125 40.648438 48.195312 40.957031 48.308594 41.125 C 48.421875 41.296875 48.339844 41.605469 48.167969 41.832031 C 48 42.054688 47.914062 42.367188 48.027344 42.535156 C 48.113281 42.675781 48.054688 42.816406 47.886719 42.816406 C 47.71875 42.816406 47.632812 42.929688 47.71875 43.070312 C 47.804688 43.210938 47.691406 43.410156 47.4375 43.492188 C 47.183594 43.578125 47.097656 43.804688 47.210938 44 C 47.324219 44.195312 47.324219 44.28125 47.210938 44.167969 C 47.070312 44.054688 46.703125 44.085938 46.367188 44.226562 C 45.691406 44.480469 44.675781 44.085938 44.929688 43.632812 C 45.042969 43.492188 44.957031 43.378906 44.789062 43.378906 C 44.621094 43.378906 44.5625 43.238281 44.648438 43.097656 C 44.730469 42.929688 44.730469 42.648438 44.589844 42.449219 C 44.480469 42.28125 44.339844 40.957031 44.308594 39.578125 C 44.226562 36.84375 43.972656 31.464844 43.859375 29.859375 C 43.832031 29.324219 43.691406 28.703125 43.578125 28.507812 C 43.4375 28.339844 43.4375 28.027344 43.519531 27.886719 C 43.605469 27.71875 43.550781 27.605469 43.351562 27.605469 C 43.15625 27.605469 43.070312 27.519531 43.183594 27.4375 C 43.269531 27.351562 43.015625 26.957031 42.589844 26.5625 C 42.167969 26.167969 42.085938 26.027344 42.394531 26.226562 C 42.902344 26.589844 42.929688 26.589844 42.5625 26.140625 C 42.367188 25.859375 42.085938 25.71875 41.945312 25.773438 C 41.832031 25.859375 41.492188 25.605469 41.238281 25.210938 C 40.984375 24.84375 40.675781 24.589844 40.535156 24.648438 C 40.421875 24.730469 40.167969 24.535156 40 24.226562 C 39.832031 23.914062 39.578125 23.71875 39.410156 23.804688 C 39.269531 23.914062 39.15625 23.832031 39.15625 23.660156 C 39.15625 23.492188 39.042969 23.4375 38.875 23.519531 C 38.730469 23.605469 38.589844 23.550781 38.589844 23.378906 C 38.589844 23.210938 38.480469 23.15625 38.308594 23.238281 C 38.167969 23.324219 38.027344 23.296875 38.027344 23.125 C 38.027344 22.84375 37.632812 22.875 36.84375 23.238281 C 36.5625 23.351562 36.421875 23.550781 36.507812 23.691406 C 36.589844 23.832031 36.535156 23.945312 36.367188 23.945312 C 36.195312 23.945312 36.140625 24.140625 36.226562 24.367188 C 36.339844 24.589844 36.253906 24.789062 36.054688 24.789062 C 35.859375 24.789062 35.773438 24.957031 35.859375 25.183594 C 35.945312 25.410156 35.945312 25.660156 35.832031 25.773438 C 35.71875 25.886719 35.605469 26.308594 35.578125 26.703125 C 35.238281 30.589844 35.183594 32.449219 35.183594 37.464844 C 35.183594 44.28125 35.269531 46.226562 35.578125 46.675781 C 35.71875 46.875 35.71875 47.183594 35.632812 47.324219 C 35.519531 47.492188 35.605469 47.804688 35.773438 48.027344 C 35.972656 48.253906 36.027344 48.449219 35.914062 48.449219 C 35.804688 48.449219 35.859375 48.621094 36.027344 48.816406 C 36.195312 49.042969 36.253906 49.296875 36.140625 49.378906 C 36.054688 49.492188 36.113281 49.578125 36.308594 49.578125 C 36.507812 49.578125 36.5625 49.691406 36.480469 49.859375 C 36.394531 50 36.449219 50.140625 36.621094 50.140625 C 36.789062 50.140625 36.875 50.253906 36.789062 50.394531 C 36.703125 50.535156 36.816406 50.730469 37.070312 50.816406 C 37.296875 50.902344 37.410156 51.097656 37.324219 51.269531 C 37.238281 51.410156 37.296875 51.550781 37.464844 51.550781 C 37.632812 51.550781 37.71875 51.660156 37.605469 51.804688 C 37.519531 51.972656 37.71875 52.226562 38.027344 52.394531 C 38.339844 52.5625 38.535156 52.816406 38.480469 52.929688 C 38.394531 53.042969 38.703125 53.4375 39.183594 53.773438 C 39.632812 54.113281 39.945312 54.507812 39.886719 54.621094 C 39.804688 54.761719 40 55.097656 40.367188 55.378906 L 40.984375 55.914062 L 40.449219 55.210938 C 40.140625 54.816406 40.394531 55.015625 41.015625 55.632812 C 41.605469 56.253906 42.195312 56.730469 42.339844 56.675781 C 42.449219 56.648438 42.621094 56.816406 42.703125 57.042969 C 42.789062 57.269531 42.984375 57.378906 43.125 57.296875 C 43.269531 57.210938 43.378906 57.269531 43.378906 57.4375 C 43.378906 57.605469 43.578125 57.660156 43.804688 57.578125 C 44.027344 57.464844 44.226562 57.550781 44.226562 57.71875 C 44.226562 57.886719 44.421875 57.945312 44.648438 57.859375 C 44.875 57.746094 45.070312 57.804688 45.070312 57.914062 C 45.070312 58.140625 48.449219 58.226562 48.675781 58.027344 C 48.703125 58 48.875 57.914062 49.015625 57.886719 C 49.183594 57.859375 49.378906 57.773438 49.519531 57.746094 C 49.632812 57.71875 49.804688 57.691406 49.945312 57.71875 C 50.054688 57.71875 50.140625 57.605469 50.140625 57.4375 C 50.140625 57.296875 50.253906 57.210938 50.394531 57.296875 C 50.535156 57.378906 50.730469 57.269531 50.816406 57.015625 C 50.902344 56.789062 51.097656 56.675781 51.269531 56.761719 C 51.410156 56.84375 51.550781 56.789062 51.550781 56.648438 C 51.550781 56.480469 51.660156 56.367188 51.804688 56.421875 C 51.945312 56.449219 52.28125 56.226562 52.535156 55.914062 C 52.789062 55.605469 52.902344 55.550781 52.789062 55.773438 C 52.675781 56 52.984375 55.832031 53.464844 55.378906 C 54.421875 54.480469 54.589844 54.226562 54.027344 54.507812 C 53.832031 54.621094 53.945312 54.449219 54.28125 54.140625 C 54.621094 53.832031 54.816406 53.519531 54.730469 53.410156 C 54.621094 53.324219 54.703125 53.238281 54.902344 53.238281 C 55.097656 53.238281 55.15625 53.097656 55.070312 52.957031 C 54.984375 52.789062 55.042969 52.675781 55.210938 52.675781 C 55.378906 52.675781 55.4375 52.535156 55.351562 52.394531 C 55.269531 52.226562 55.324219 52.113281 55.492188 52.113281 C 55.660156 52.113281 55.71875 51.972656 55.632812 51.832031 C 55.550781 51.660156 55.605469 51.550781 55.773438 51.550781 C 55.972656 51.550781 56.054688 51.351562 55.945312 51.125 C 55.859375 50.902344 55.914062 50.703125 56.085938 50.703125 C 56.253906 50.703125 56.339844 50.507812 56.253906 50.28125 C 56.140625 50.054688 56.195312 49.804688 56.339844 49.71875 C 56.480469 49.632812 56.535156 49.378906 56.449219 49.183594 C 56.367188 48.957031 56.421875 48.703125 56.589844 48.621094 C 56.761719 48.507812 56.816406 48.253906 56.730469 48.054688 C 56.648438 47.832031 56.730469 47.578125 56.875 47.464844 C 57.042969 47.378906 57.125 47.15625 57.015625 47.015625 C 56.929688 46.875 56.984375 46.5625 57.15625 46.367188 C 57.324219 46.167969 57.410156 45.804688 57.296875 45.550781 C 57.210938 45.324219 57.296875 45.042969 57.464844 44.929688 C 57.632812 44.816406 57.691406 44.507812 57.605469 44.195312 C 57.492188 43.886719 57.550781 43.660156 57.746094 43.660156 C 57.914062 43.660156 57.972656 43.378906 57.859375 42.957031 C 57.746094 42.507812 57.804688 42.253906 58.027344 42.253906 C 58.253906 42.253906 58.308594 42 58.195312 41.578125 C 58.113281 41.183594 58.167969 40.789062 58.308594 40.703125 C 58.480469 40.589844 58.535156 40.28125 58.449219 39.972656 C 58.339844 39.691406 58.367188 39.296875 58.507812 39.097656 C 58.621094 38.902344 58.761719 38.339844 58.789062 37.886719 C 58.84375 37.410156 58.929688 36.226562 59.015625 35.210938 C 59.296875 32.167969 59.183594 28.902344 58.789062 28.253906 C 58.675781 28.085938 58.675781 27.746094 58.761719 27.492188 C 58.875 27.238281 58.789062 27.042969 58.589844 27.042969 C 58.394531 27.042969 58.308594 26.84375 58.421875 26.621094 C 58.507812 26.394531 58.449219 26.195312 58.28125 26.195312 C 58.113281 26.195312 58.085938 26.054688 58.167969 25.914062 C 58.253906 25.746094 58.195312 25.632812 58.027344 25.632812 C 57.859375 25.632812 57.804688 25.492188 57.886719 25.351562 C 57.972656 25.183594 57.914062 25.070312 57.746094 25.070312 C 57.578125 25.070312 57.464844 24.984375 57.519531 24.84375 C 57.578125 24.730469 57.070312 24.113281 56.421875 23.492188 C 55.746094 22.84375 55.210938 22.394531 55.210938 22.507812 C 55.210938 22.589844 55.097656 22.507812 54.957031 22.308594 C 54.761719 21.972656 52.761719 21.632812 52.648438 21.886719 Z M 52.648438 21.886719 "/>
<path style=" stroke:none;fill-rule:nonzero;fill:rgb(0%,0%,0%);fill-opacity:1;" d="M 56.480469 23.378906 C 56.761719 23.691406 57.042969 23.945312 57.125 23.945312 C 57.210938 23.945312 57.042969 23.691406 56.761719 23.378906 C 56.480469 23.070312 56.195312 22.816406 56.113281 22.816406 C 56.027344 22.816406 56.195312 23.070312 56.480469 23.378906 Z M 56.480469 23.378906 "/>
<path style=" stroke:none;fill-rule:nonzero;fill:rgb(0%,0%,0%);fill-opacity:1;" d="M 32.113281 25.464844 C 32.113281 25.519531 32.339844 25.746094 32.621094 25.945312 C 33.042969 26.308594 33.070312 26.28125 32.703125 25.832031 C 32.339844 25.378906 32.113281 25.238281 32.113281 25.464844 Z M 32.113281 25.464844 "/>
<path style=" stroke:none;fill-rule:nonzero;fill:rgb(0%,0%,0%);fill-opacity:1;" d="M 101.125 61.773438 C 101.125 61.945312 101.042969 61.972656 100.929688 61.886719 C 100.675781 61.632812 99.691406 62.535156 99.886719 62.84375 C 99.972656 62.984375 99.886719 63.097656 99.71875 63.097656 C 99.550781 63.097656 99.492188 63.210938 99.578125 63.378906 C 99.660156 63.519531 99.605469 63.660156 99.4375 63.660156 C 99.269531 63.660156 99.183594 63.773438 99.296875 63.914062 C 99.378906 64.054688 99.324219 64.253906 99.183594 64.367188 C 99.015625 64.449219 98.957031 64.703125 99.070312 64.929688 C 99.15625 65.15625 99.070312 65.351562 98.902344 65.351562 C 98.703125 65.351562 98.648438 65.605469 98.761719 66.027344 C 98.84375 66.394531 98.789062 66.789062 98.621094 66.902344 C 98.449219 66.984375 98.394531 67.378906 98.480469 67.773438 C 98.5625 68.140625 98.507812 68.648438 98.308594 68.875 C 98.085938 69.125 98.054688 69.660156 98.167969 70.421875 C 98.28125 71.183594 98.253906 71.71875 98.027344 71.972656 C 97.804688 72.226562 97.746094 72.761719 97.886719 73.410156 C 98 74.085938 97.972656 74.367188 97.773438 74.226562 C 97.605469 74.140625 97.464844 74.195312 97.464844 74.367188 C 97.464844 74.5625 97.238281 74.621094 96.929688 74.507812 C 96.621094 74.421875 96.308594 74.480469 96.195312 74.648438 C 96.085938 74.816406 95.773438 74.875 95.464844 74.789062 C 95.15625 74.675781 94.929688 74.730469 94.929688 74.929688 C 94.929688 75.125 94.703125 75.183594 94.394531 75.070312 C 94.085938 74.984375 93.773438 75.042969 93.660156 75.210938 C 93.550781 75.378906 93.238281 75.4375 92.957031 75.351562 C 92.675781 75.269531 92.367188 75.324219 92.253906 75.492188 C 92.167969 75.660156 91.945312 75.71875 91.804688 75.605469 C 91.660156 75.519531 91.351562 75.578125 91.15625 75.746094 C 90.957031 75.914062 90.5625 76 90.308594 75.886719 C 90.054688 75.773438 89.859375 75.859375 89.859375 76.054688 C 89.859375 76.253906 89.660156 76.339844 89.4375 76.253906 C 89.210938 76.140625 88.957031 76.195312 88.875 76.367188 C 88.761719 76.507812 88.589844 76.5625 88.449219 76.480469 C 88.308594 76.394531 87.886719 76.648438 87.492188 77.042969 C 86.929688 77.605469 86.816406 77.914062 86.957031 78.675781 C 87.070312 79.410156 86.984375 79.691406 86.648438 79.804688 C 86.394531 79.914062 86.195312 79.859375 86.195312 79.691406 C 86.195312 79.519531 86.085938 79.464844 85.945312 79.550781 C 85.804688 79.632812 85.605469 79.519531 85.519531 79.269531 C 85.4375 79.042969 85.238281 78.902344 85.097656 78.984375 C 84.957031 79.070312 84.675781 78.929688 84.480469 78.675781 C 84.140625 78.28125 84.140625 78.226562 84.507812 78.421875 C 84.761719 78.535156 84.730469 78.480469 84.449219 78.226562 C 84.167969 78 84.027344 77.746094 84.140625 77.660156 C 84.226562 77.550781 84.167969 77.464844 84 77.464844 C 83.464844 77.464844 83.605469 76.394531 84.195312 75.804688 C 84.507812 75.492188 84.816406 75.324219 84.902344 75.4375 C 84.984375 75.519531 85.070312 75.464844 85.070312 75.324219 C 85.070312 75.097656 85.773438 74.984375 88.589844 74.84375 C 89.351562 74.816406 89.886719 74.589844 90.226562 74.167969 C 90.761719 73.519531 90.875 72.675781 90.421875 72.675781 C 90.28125 72.675781 90.140625 72.421875 90.140625 72.113281 C 90.140625 71.804688 90 71.550781 89.859375 71.550781 C 89.691406 71.550781 89.605469 71.464844 89.632812 71.324219 C 89.71875 71.097656 87.296875 68.589844 86.984375 68.589844 C 86.875 68.589844 86.589844 68.339844 86.339844 68.027344 C 86.085938 67.71875 85.945312 67.660156 86.054688 67.886719 C 86.167969 68.167969 86.113281 68.140625 85.832031 67.832031 C 85.605469 67.550781 85.351562 67.410156 85.269531 67.519531 C 85.15625 67.605469 85.070312 67.550781 85.070312 67.351562 C 85.070312 67.15625 84.957031 67.097656 84.789062 67.183594 C 84.648438 67.269531 84.507812 67.210938 84.507812 67.042969 C 84.507812 66.875 84.394531 66.816406 84.226562 66.902344 C 84.085938 66.984375 83.945312 66.929688 83.945312 66.761719 C 83.945312 66.589844 83.832031 66.507812 83.691406 66.621094 C 83.550781 66.703125 83.351562 66.648438 83.238281 66.507812 C 83.15625 66.339844 82.902344 66.28125 82.675781 66.394531 C 82.449219 66.480469 82.253906 66.421875 82.253906 66.308594 C 82.253906 66.167969 81.691406 66.054688 80.984375 66.054688 C 80.28125 66.054688 79.71875 66.140625 79.71875 66.253906 C 79.71875 66.367188 79.519531 66.394531 79.296875 66.308594 C 79.070312 66.195312 78.875 66.28125 78.875 66.480469 C 78.875 66.648438 78.761719 66.703125 78.589844 66.621094 C 78.449219 66.535156 78.308594 66.589844 78.308594 66.761719 C 78.308594 66.929688 78.195312 66.984375 78.027344 66.902344 C 77.886719 66.816406 77.746094 66.875 77.746094 67.042969 C 77.746094 67.210938 77.632812 67.269531 77.464844 67.183594 C 77.324219 67.097656 77.183594 67.15625 77.183594 67.324219 C 77.183594 67.492188 77.070312 67.550781 76.902344 67.464844 C 76.761719 67.378906 76.621094 67.4375 76.621094 67.605469 C 76.621094 67.773438 76.507812 67.832031 76.339844 67.746094 C 76.195312 67.660156 76.054688 67.71875 76.054688 67.886719 C 76.054688 68.054688 75.945312 68.113281 75.773438 68.027344 C 75.632812 67.945312 75.492188 68 75.492188 68.167969 C 75.492188 68.339844 75.378906 68.421875 75.238281 68.339844 C 75.097656 68.253906 74.902344 68.367188 74.816406 68.621094 C 74.703125 68.875 74.5625 69.015625 74.449219 68.902344 C 74.367188 68.816406 74.085938 68.984375 73.886719 69.296875 C 73.660156 69.605469 73.351562 69.773438 73.183594 69.691406 C 73.015625 69.578125 72.957031 69.632812 73.070312 69.804688 C 73.15625 69.972656 72.984375 70.28125 72.675781 70.507812 C 72.367188 70.703125 72.195312 70.984375 72.308594 71.070312 C 72.394531 71.183594 72.339844 71.269531 72.140625 71.269531 C 71.945312 71.269531 71.886719 71.378906 71.972656 71.550781 C 72.054688 71.691406 72 71.832031 71.832031 71.832031 C 71.632812 71.832031 71.550781 72 71.632812 72.226562 C 71.71875 72.449219 71.71875 72.703125 71.632812 72.789062 C 71.492188 72.929688 71.4375 77.324219 71.578125 77.746094 C 71.605469 77.832031 71.605469 77.972656 71.578125 78.085938 C 71.578125 78.226562 71.691406 78.308594 71.832031 78.308594 C 71.972656 78.308594 72.085938 78.421875 72.027344 78.535156 C 72 78.675781 72.367188 79.125 72.816406 79.550781 C 73.296875 79.972656 73.464844 80.253906 73.238281 80.140625 C 73.015625 80.054688 74.394531 81.519531 76.339844 83.410156 C 78.28125 85.324219 79.660156 86.761719 79.4375 86.648438 C 79.210938 86.535156 79.410156 86.789062 79.859375 87.210938 C 80.339844 87.632812 80.703125 88.085938 80.703125 88.226562 C 80.703125 88.367188 80.902344 88.589844 81.125 88.730469 C 81.351562 88.875 81.4375 89.015625 81.269531 89.015625 C 81.125 89.015625 81.238281 89.210938 81.519531 89.4375 C 81.832031 89.660156 81.972656 89.859375 81.859375 89.859375 C 81.746094 89.859375 81.859375 90.054688 82.085938 90.308594 C 82.339844 90.535156 82.480469 90.875 82.394531 91.015625 C 82.28125 91.15625 82.339844 91.269531 82.507812 91.269531 C 82.675781 91.269531 82.730469 91.4375 82.648438 91.660156 C 82.5625 91.886719 82.648438 92.140625 82.816406 92.253906 C 83.042969 92.394531 83.042969 92.5625 82.789062 92.84375 C 82.621094 93.070312 82.5625 93.238281 82.675781 93.238281 C 82.789062 93.238281 82.535156 93.519531 82.113281 93.859375 C 81.410156 94.421875 79.519531 94.730469 79.351562 94.308594 C 79.324219 94.226562 79.125 94.085938 78.902344 94.027344 C 78.394531 93.914062 76.984375 92.589844 77.125 92.308594 C 77.183594 92.195312 77.070312 92.113281 76.902344 92.113281 C 76.730469 92.113281 76.675781 91.972656 76.761719 91.832031 C 76.84375 91.691406 76.789062 91.550781 76.621094 91.550781 C 76.421875 91.550781 76.367188 91.351562 76.449219 91.125 C 76.535156 90.875 76.421875 90.621094 76.167969 90.507812 C 75.578125 90.28125 74.367188 90.957031 74.5625 91.4375 C 74.648438 91.660156 74.5625 91.832031 74.367188 91.832031 C 74.195312 91.832031 74.140625 91.945312 74.226562 92.113281 C 74.308594 92.253906 74.308594 92.5625 74.195312 92.730469 C 73.886719 93.210938 73.886719 98.027344 74.167969 98.226562 C 74.28125 98.28125 74.308594 98.589844 74.226562 98.902344 C 74.113281 99.210938 74.167969 99.4375 74.367188 99.4375 C 74.535156 99.4375 74.589844 99.550781 74.507812 99.71875 C 74.421875 99.859375 74.480469 100 74.621094 100 C 74.789062 100 74.902344 100.113281 74.84375 100.253906 C 74.816406 100.394531 75.042969 100.730469 75.351562 100.984375 C 75.660156 101.238281 75.71875 101.378906 75.492188 101.269531 C 75.269531 101.15625 75.519531 101.492188 76.054688 101.972656 C 76.589844 102.449219 76.84375 102.761719 76.621094 102.648438 C 76.394531 102.535156 76.902344 103.15625 77.746094 104.027344 C 79.351562 105.691406 79.605469 105.886719 79.296875 105.269531 C 79.183594 105.097656 79.296875 105.15625 79.519531 105.410156 C 79.746094 105.691406 80 105.832031 80.085938 105.71875 C 80.195312 105.632812 80.28125 105.691406 80.28125 105.859375 C 80.28125 106.027344 80.480469 106.113281 80.703125 106.027344 C 80.929688 105.914062 81.125 106 81.125 106.167969 C 81.125 106.339844 81.578125 106.480469 82.113281 106.480469 C 82.648438 106.480469 83.097656 106.339844 83.097656 106.167969 C 83.097656 106 83.296875 105.914062 83.519531 106 C 83.746094 106.113281 84 106.054688 84.085938 105.886719 C 84.195312 105.746094 84.394531 105.691406 84.535156 105.773438 C 84.675781 105.886719 84.789062 105.804688 84.789062 105.632812 C 84.789062 105.464844 84.929688 105.410156 85.070312 105.492188 C 85.238281 105.578125 85.351562 105.519531 85.351562 105.351562 C 85.351562 105.183594 85.492188 105.125 85.632812 105.210938 C 85.804688 105.296875 85.914062 105.238281 85.914062 105.070312 C 85.914062 104.902344 86.054688 104.84375 86.195312 104.929688 C 86.367188 105.015625 86.5625 104.902344 86.648438 104.675781 C 86.730469 104.421875 86.929688 104.28125 87.070312 104.367188 C 87.183594 104.449219 87.4375 104.253906 87.605469 103.945312 C 87.773438 103.632812 88 103.410156 88.140625 103.464844 C 88.28125 103.492188 88.648438 103.210938 88.984375 102.816406 C 89.351562 102.421875 89.519531 102.308594 89.410156 102.535156 C 89.296875 102.761719 89.832031 102.308594 90.589844 101.550781 C 91.351562 100.761719 91.945312 100.054688 91.886719 99.914062 C 91.832031 99.804688 91.945312 99.71875 92.113281 99.71875 C 92.28125 99.71875 92.339844 99.578125 92.253906 99.4375 C 92.167969 99.269531 92.226562 99.15625 92.394531 99.15625 C 92.5625 99.15625 92.621094 99.015625 92.535156 98.875 C 92.449219 98.703125 92.449219 98.449219 92.5625 98.253906 C 93.097656 97.410156 93.125 91.550781 92.621094 91.550781 C 92.449219 91.550781 92.394531 91.351562 92.480469 91.125 C 92.589844 90.902344 92.535156 90.648438 92.367188 90.5625 C 92.226562 90.449219 92.167969 90.28125 92.253906 90.140625 C 92.339844 90 92.28125 89.832031 92.113281 89.71875 C 91.945312 89.605469 91.886719 89.4375 91.972656 89.296875 C 92.054688 89.15625 92 88.984375 91.832031 88.875 C 91.660156 88.761719 91.605469 88.5625 91.691406 88.421875 C 91.804688 88.28125 91.71875 88.167969 91.578125 88.167969 C 91.410156 88.167969 91.269531 88.054688 91.269531 87.914062 C 91.269531 87.804688 91.859375 87.691406 92.621094 87.660156 C 93.351562 87.660156 94.621094 87.550781 95.4375 87.464844 C 96.367188 87.324219 96.902344 87.378906 96.902344 87.550781 C 96.902344 87.71875 97.15625 87.945312 97.464844 88.027344 C 97.773438 88.140625 97.972656 88.308594 97.886719 88.449219 C 97.804688 88.589844 97.886719 88.789062 98.054688 88.875 C 98.226562 89.015625 98.28125 89.351562 98.140625 89.832031 C 97.859375 90.816406 97.832031 96.902344 98.113281 96.902344 C 98.253906 96.902344 98.253906 97.15625 98.167969 97.464844 C 98.054688 97.773438 98.113281 98.027344 98.28125 98.027344 C 98.449219 98.027344 98.589844 98.113281 98.5625 98.226562 C 98.507812 98.703125 98.957031 99.71875 99.238281 99.71875 C 99.410156 99.71875 99.464844 99.804688 99.351562 99.886719 C 99.269531 100 99.464844 100.308594 99.804688 100.621094 C 100.140625 100.929688 100.226562 101.070312 100 100.957031 C 99.773438 100.84375 100.140625 101.351562 100.816406 102.054688 C 101.519531 102.789062 102.140625 103.296875 102.195312 103.238281 C 102.28125 103.15625 102.507812 103.238281 102.730469 103.4375 C 103.238281 103.859375 104.449219 103.972656 104.675781 103.632812 C 104.761719 103.492188 104.957031 103.4375 105.097656 103.519531 C 105.238281 103.632812 105.351562 103.550781 105.351562 103.378906 C 105.351562 103.183594 105.519531 103.097656 105.746094 103.183594 C 105.972656 103.269531 106.226562 103.15625 106.308594 102.929688 C 106.394531 102.675781 106.589844 102.5625 106.730469 102.648438 C 106.875 102.730469 107.125 102.621094 107.324219 102.394531 C 107.519531 102.167969 107.578125 101.972656 107.4375 101.972656 C 107.296875 101.972656 107.4375 101.773438 107.71875 101.550781 C 108.027344 101.324219 108.167969 101.125 108.054688 101.125 C 107.914062 101.125 107.972656 100.929688 108.167969 100.703125 C 108.339844 100.480469 108.421875 100.167969 108.308594 100 C 108.195312 99.832031 108.28125 99.519531 108.449219 99.296875 C 108.703125 99.015625 108.730469 98.28125 108.621094 96.984375 C 108.28125 93.691406 108.167969 92.28125 108.085938 91.125 C 108.027344 90.507812 107.945312 89.859375 107.886719 89.71875 C 107.832031 89.550781 107.773438 88.875 107.71875 88.167969 C 107.691406 87.464844 107.578125 86.507812 107.464844 86.027344 C 107.324219 85.378906 107.410156 84.984375 107.773438 84.5625 C 108.054688 84.226562 108.367188 84.027344 108.507812 84.113281 C 108.621094 84.195312 108.730469 84.113281 108.730469 83.945312 C 108.730469 83.773438 108.875 83.71875 109.015625 83.804688 C 109.183594 83.886719 109.296875 83.832031 109.296875 83.660156 C 109.296875 83.492188 109.410156 83.410156 109.550781 83.519531 C 109.691406 83.605469 109.886719 83.550781 110 83.378906 C 110.113281 83.210938 110.308594 83.15625 110.449219 83.238281 C 110.589844 83.351562 110.703125 83.269531 110.703125 83.097656 C 110.703125 82.902344 110.902344 82.816406 111.125 82.929688 C 111.351562 83.015625 111.550781 82.957031 111.550781 82.789062 C 111.550781 82.621094 111.746094 82.535156 111.972656 82.648438 C 112.195312 82.730469 112.394531 82.675781 112.394531 82.507812 C 112.394531 82.339844 112.589844 82.253906 112.816406 82.367188 C 113.042969 82.449219 113.238281 82.394531 113.238281 82.226562 C 113.238281 82.054688 113.4375 81.972656 113.660156 82.085938 C 113.886719 82.167969 114.085938 82.113281 114.085938 81.945312 C 114.085938 81.773438 114.28125 81.691406 114.507812 81.804688 C 114.730469 81.886719 114.929688 81.832031 114.929688 81.660156 C 114.929688 81.492188 115.125 81.410156 115.351562 81.519531 C 115.578125 81.605469 115.773438 81.550781 115.773438 81.410156 C 115.773438 81.269531 115.972656 81.210938 116.195312 81.296875 C 116.421875 81.410156 116.621094 81.324219 116.621094 81.125 C 116.621094 80.957031 116.761719 80.902344 116.902344 80.984375 C 117.070312 81.070312 117.183594 81.015625 117.183594 80.84375 C 117.183594 80.648438 117.378906 80.5625 117.605469 80.675781 C 117.832031 80.761719 118.027344 80.703125 118.027344 80.535156 C 118.027344 80.367188 118.140625 80.308594 118.28125 80.421875 C 118.421875 80.507812 118.621094 80.449219 118.730469 80.28125 C 118.84375 80.113281 119.042969 80.054688 119.183594 80.140625 C 119.324219 80.253906 119.4375 80.167969 119.4375 80 C 119.4375 79.832031 119.578125 79.773438 119.71875 79.859375 C 119.886719 79.945312 120 79.886719 120 79.71875 C 120 79.550781 120.140625 79.492188 120.28125 79.578125 C 120.449219 79.660156 120.5625 79.605469 120.5625 79.4375 C 120.5625 79.269531 120.703125 79.210938 120.84375 79.296875 C 121.015625 79.378906 121.125 79.324219 121.125 79.15625 C 121.125 78.984375 121.269531 78.929688 121.410156 79.015625 C 121.578125 79.097656 121.691406 79.042969 121.691406 78.902344 C 121.691406 78.730469 121.773438 78.621094 121.914062 78.648438 C 122.027344 78.703125 122.480469 78.367188 122.902344 77.914062 C 123.550781 77.269531 123.71875 76.84375 123.746094 75.605469 C 123.804688 74.761719 123.71875 74.085938 123.578125 74.085938 C 123.464844 74.085938 123.4375 73.945312 123.519531 73.773438 C 123.632812 73.605469 123.492188 73.296875 123.210938 73.097656 C 122.902344 72.875 122.761719 72.675781 122.84375 72.675781 C 122.957031 72.675781 122.507812 72.140625 121.859375 71.492188 C 121.238281 70.84375 120.621094 70.339844 120.507812 70.367188 C 120.367188 70.394531 120.28125 70.28125 120.28125 70.113281 C 120.28125 69.972656 120.167969 69.914062 120 70 C 119.859375 70.085938 119.71875 70.085938 119.71875 69.945312 C 119.71875 69.832031 117.464844 69.71875 114.703125 69.71875 C 110.226562 69.71875 109.660156 69.660156 109.210938 69.210938 C 108.84375 68.84375 108.730469 68.421875 108.816406 67.945312 C 108.902344 67.464844 108.789062 67.070312 108.507812 66.816406 C 108.167969 66.5625 108.167969 66.507812 108.449219 66.648438 C 108.675781 66.789062 107.914062 65.945312 106.761719 64.816406 C 105.605469 63.660156 104.535156 62.761719 104.421875 62.761719 C 104.308594 62.789062 104.140625 62.621094 104.054688 62.394531 C 103.972656 62.167969 103.773438 62.054688 103.632812 62.140625 C 103.492188 62.226562 103.378906 62.140625 103.378906 61.972656 C 103.378906 61.804688 103.269531 61.71875 103.125 61.832031 C 102.984375 61.914062 102.789062 61.859375 102.703125 61.71875 C 102.480469 61.378906 101.125 61.410156 101.125 61.773438 Z M 101.125 61.773438 "/>
<path style=" stroke:none;fill-rule:nonzero;fill:rgb(0%,0%,0%);fill-opacity:1;" d="M 106.480469 64.367188 C 106.84375 64.761719 107.210938 65.070312 107.269531 65.070312 C 107.351562 65.070312 107.125 64.761719 106.761719 64.367188 C 106.394531 63.972656 106.027344 63.660156 105.972656 63.660156 C 105.886719 63.660156 106.113281 63.972656 106.480469 64.367188 Z M 106.480469 64.367188 "/>
<path style=" stroke:none;fill-rule:nonzero;fill:rgb(0%,0%,0%);fill-opacity:1;" d="M 33.945312 70.449219 C 33.832031 70.621094 33.578125 70.675781 33.351562 70.589844 C 33.125 70.507812 32.957031 70.5625 32.957031 70.730469 C 32.957031 70.902344 32.84375 70.957031 32.703125 70.875 C 32.589844 70.789062 32.167969 71.042969 31.832031 71.410156 C 31.464844 71.804688 31.296875 72.113281 31.4375 72.113281 C 31.578125 72.113281 31.464844 72.253906 31.183594 72.421875 C 30.929688 72.589844 30.761719 72.816406 30.84375 72.957031 C 30.929688 73.097656 30.875 73.269531 30.703125 73.378906 C 30.535156 73.492188 30.480469 73.691406 30.5625 73.832031 C 30.675781 73.972656 30.589844 74.085938 30.421875 74.085938 C 30.226562 74.085938 30.140625 74.28125 30.226562 74.507812 C 30.339844 74.730469 30.28125 74.984375 30.113281 75.070312 C 29.972656 75.183594 29.914062 75.378906 30.027344 75.519531 C 30.113281 75.660156 30.027344 75.972656 29.859375 76.195312 C 29.691406 76.421875 29.605469 76.730469 29.71875 76.902344 C 29.832031 77.070312 29.804688 77.4375 29.691406 77.691406 C 29.410156 78.253906 29.324219 79.492188 29.15625 84.367188 C 29.097656 86.367188 29.015625 88.507812 28.984375 89.070312 C 28.984375 89.660156 28.816406 90.140625 28.675781 90.140625 C 28.507812 90.140625 28.449219 90.308594 28.507812 90.480469 C 28.648438 90.875 27.746094 91.886719 27.492188 91.605469 C 27.410156 91.519531 27.324219 91.578125 27.324219 91.71875 C 27.324219 91.859375 26.589844 91.972656 25.71875 91.972656 C 24.5625 91.972656 23.945312 91.832031 23.605469 91.464844 C 23.042969 90.929688 22.929688 89.4375 23.378906 89.15625 C 23.550781 89.042969 23.605469 88.730469 23.519531 88.421875 C 23.410156 88.113281 23.464844 87.886719 23.660156 87.886719 C 23.859375 87.886719 23.914062 87.660156 23.804688 87.324219 C 23.691406 86.984375 23.746094 86.761719 23.945312 86.761719 C 24.140625 86.761719 24.195312 86.535156 24.085938 86.226562 C 24 85.914062 24.054688 85.605469 24.195312 85.519531 C 24.5625 85.296875 24.535156 82.027344 24.195312 81.804688 C 24.054688 81.71875 24 81.410156 24.085938 81.097656 C 24.195312 80.816406 24.140625 80.5625 23.972656 80.5625 C 23.804688 80.5625 23.746094 80.367188 23.832031 80.140625 C 23.945312 79.914062 23.859375 79.71875 23.660156 79.71875 C 23.492188 79.71875 23.4375 79.578125 23.519531 79.4375 C 23.605469 79.269531 23.550781 79.15625 23.378906 79.15625 C 23.210938 79.15625 23.15625 79.015625 23.238281 78.875 C 23.324219 78.703125 23.269531 78.589844 23.097656 78.589844 C 22.929688 78.589844 22.84375 78.480469 22.929688 78.339844 C 23.015625 78.195312 22.902344 78 22.648438 77.914062 C 22.421875 77.832031 22.28125 77.632812 22.367188 77.519531 C 22.5625 77.210938 21.015625 75.691406 20.761719 75.945312 C 20.648438 76.054688 20.507812 75.914062 20.394531 75.660156 C 20.308594 75.410156 20.113281 75.296875 19.972656 75.378906 C 19.832031 75.464844 19.71875 75.378906 19.71875 75.238281 C 19.71875 75.070312 19.632812 74.957031 19.519531 74.957031 C 19.378906 74.984375 19.238281 74.957031 19.15625 74.929688 C 18.394531 74.621094 16.253906 74.507812 15.097656 74.703125 C 14.449219 74.816406 13.296875 75.832031 13.4375 76.113281 C 13.492188 76.253906 13.4375 76.339844 13.269531 76.339844 C 13.097656 76.339844 13.042969 76.507812 13.125 76.730469 C 13.210938 76.957031 13.15625 77.210938 12.984375 77.324219 C 12.816406 77.410156 12.761719 77.804688 12.84375 78.167969 C 12.929688 78.535156 12.902344 79.015625 12.761719 79.210938 C 12.648438 79.410156 12.507812 81.210938 12.480469 83.238281 C 12.367188 89.351562 12.226562 91.972656 12 92.339844 C 11.886719 92.507812 11.859375 92.789062 11.972656 92.957031 C 12.167969 93.269531 11.125 94.394531 10.875 94.140625 C 10.789062 94.054688 10.703125 94.140625 10.703125 94.339844 C 10.703125 94.5625 10.507812 94.648438 10.28125 94.535156 C 10.054688 94.449219 9.859375 94.507812 9.859375 94.675781 C 9.859375 94.84375 9.660156 94.929688 9.4375 94.816406 C 9.210938 94.730469 9.015625 94.789062 9.015625 94.957031 C 9.015625 95.125 8.816406 95.210938 8.589844 95.125 C 8.367188 95.015625 8.113281 95.070312 8.027344 95.210938 C 7.945312 95.351562 7.691406 95.410156 7.464844 95.296875 C 7.238281 95.210938 7.042969 95.296875 7.042969 95.492188 C 7.042969 95.660156 6.929688 95.746094 6.789062 95.632812 C 6.648438 95.550781 6.449219 95.605469 6.339844 95.773438 C 6.226562 95.945312 6.027344 96 5.886719 95.914062 C 5.746094 95.804688 5.632812 95.886719 5.632812 96.085938 C 5.632812 96.28125 5.550781 96.367188 5.464844 96.28125 C 5.378906 96.195312 5.042969 96.394531 4.703125 96.730469 C 4.253906 97.183594 4.085938 97.691406 4.085938 98.675781 C 4.085938 99.410156 4.167969 100 4.28125 100 C 4.394531 100 4.421875 100.195312 4.339844 100.421875 C 4.226562 100.648438 4.308594 100.84375 4.507812 100.84375 C 4.675781 100.84375 4.730469 100.984375 4.648438 101.125 C 4.5625 101.296875 4.621094 101.410156 4.761719 101.410156 C 4.929688 101.410156 5.042969 101.492188 5.015625 101.605469 C 4.957031 101.746094 5.296875 102.167969 5.71875 102.589844 C 6.140625 103.015625 6.480469 103.269531 6.480469 103.15625 C 6.480469 103.042969 6.675781 103.210938 6.929688 103.519531 C 7.15625 103.832031 7.4375 104.085938 7.550781 104.113281 C 7.804688 104.113281 11.660156 107.972656 11.660156 108.226562 C 11.691406 108.339844 11.945312 108.621094 12.253906 108.875 C 12.5625 109.125 12.621094 109.269531 12.394531 109.15625 C 12.167969 109.042969 12.226562 109.183594 12.507812 109.410156 C 12.816406 109.660156 12.957031 109.859375 12.789062 109.859375 C 12.648438 109.859375 12.761719 110 13.042969 110.167969 C 13.296875 110.339844 13.464844 110.5625 13.378906 110.730469 C 13.269531 110.875 13.351562 110.984375 13.492188 110.984375 C 13.660156 110.984375 13.773438 111.097656 13.71875 111.238281 C 13.691406 111.351562 13.972656 111.746094 14.367188 112.085938 C 14.761719 112.449219 14.875 112.621094 14.648438 112.507812 C 14.421875 112.394531 14.589844 112.703125 15.042969 113.183594 C 15.492188 113.660156 15.972656 114 16.113281 113.914062 C 16.226562 113.832031 16.421875 113.972656 16.507812 114.195312 C 16.589844 114.449219 16.789062 114.5625 16.929688 114.480469 C 17.070312 114.394531 17.269531 114.535156 17.351562 114.761719 C 17.4375 115.015625 17.632812 115.125 17.773438 115.042969 C 17.914062 114.957031 18.027344 115.042969 18.027344 115.210938 C 18.027344 115.410156 18.226562 115.492188 18.449219 115.378906 C 18.675781 115.296875 18.875 115.324219 18.875 115.464844 C 18.875 115.605469 19.378906 115.691406 20 115.660156 C 20.621094 115.660156 21.125 115.519531 21.125 115.378906 C 21.125 115.238281 21.210938 115.183594 21.296875 115.269531 C 21.492188 115.492188 22.730469 114.28125 22.621094 114 C 22.5625 113.886719 22.589844 113.804688 22.730469 113.804688 C 23.015625 113.804688 23.015625 109.832031 22.730469 109.351562 C 22.589844 109.15625 22.5625 108.761719 22.675781 108.480469 C 22.761719 108.167969 22.703125 107.859375 22.535156 107.746094 C 22.339844 107.632812 22.28125 107.238281 22.367188 106.902344 C 22.449219 106.535156 22.421875 106.140625 22.253906 106.054688 C 21.519531 105.605469 22.507812 103.605469 23.324219 103.886719 C 23.519531 103.945312 23.660156 103.832031 23.660156 103.660156 C 23.660156 103.464844 23.886719 103.410156 24.226562 103.519531 C 24.5625 103.632812 24.789062 103.578125 24.789062 103.378906 C 24.789062 103.183594 24.984375 103.097656 25.210938 103.210938 C 25.4375 103.296875 25.632812 103.238281 25.632812 103.070312 C 25.632812 102.902344 25.832031 102.816406 26.054688 102.929688 C 26.28125 103.015625 26.480469 102.957031 26.480469 102.789062 C 26.480469 102.621094 26.589844 102.589844 26.761719 102.675781 C 26.902344 102.761719 27.296875 102.535156 27.605469 102.167969 C 28.535156 101.097656 29.71875 101.324219 31.269531 102.84375 C 31.945312 103.519531 32.507812 104.167969 32.535156 104.253906 C 32.535156 104.367188 32.84375 104.730469 33.238281 105.070312 C 33.632812 105.410156 33.746094 105.578125 33.519531 105.464844 C 33.238281 105.324219 33.269531 105.4375 33.632812 105.859375 C 33.914062 106.195312 34.28125 106.394531 34.394531 106.308594 C 34.535156 106.226562 34.648438 106.308594 34.648438 106.480469 C 34.648438 106.648438 34.789062 106.703125 34.929688 106.621094 C 35.097656 106.535156 35.210938 106.589844 35.210938 106.730469 C 35.210938 106.902344 35.324219 107.015625 35.464844 106.957031 C 35.578125 106.929688 35.972656 107.210938 36.308594 107.605469 C 36.675781 108 36.875 108.113281 36.761719 107.886719 C 36.648438 107.660156 36.789062 107.71875 37.042969 108.027344 C 37.296875 108.339844 37.632812 108.5625 37.773438 108.535156 C 37.914062 108.480469 38.027344 108.589844 38.027344 108.761719 C 38.027344 108.902344 38.167969 108.957031 38.308594 108.875 C 38.480469 108.789062 38.589844 108.84375 38.589844 109.015625 C 38.589844 109.183594 38.730469 109.238281 38.875 109.15625 C 39.042969 109.070312 39.15625 109.125 39.15625 109.269531 C 39.15625 109.886719 40.507812 109.550781 41.351562 108.730469 C 41.859375 108.253906 42.253906 107.832031 42.253906 107.746094 C 42.253906 107.660156 42.253906 107.578125 42.28125 107.519531 C 42.394531 107.015625 42.339844 104.789062 42.195312 104.789062 C 42.085938 104.789062 42.054688 104.589844 42.140625 104.367188 C 42.253906 104.140625 42.167969 103.945312 41.972656 103.945312 C 41.804688 103.945312 41.746094 103.832031 41.832031 103.660156 C 41.914062 103.492188 41.859375 103.378906 41.691406 103.378906 C 41.492188 103.378906 41.410156 103.183594 41.519531 102.957031 C 41.605469 102.730469 41.550781 102.535156 41.378906 102.535156 C 41.210938 102.535156 41.125 102.339844 41.210938 102.113281 C 41.324219 101.886719 41.269531 101.632812 41.097656 101.519531 C 40.929688 101.4375 40.875 101.183594 40.957031 100.957031 C 41.042969 100.761719 40.984375 100.507812 40.816406 100.394531 C 40.648438 100.308594 40.589844 100.027344 40.675781 99.804688 C 40.789062 99.550781 40.703125 99.183594 40.535156 98.984375 C 40.367188 98.789062 40.308594 98.480469 40.421875 98.308594 C 40.535156 98.140625 40.449219 97.832031 40.28125 97.605469 C 40.085938 97.378906 40.027344 96.984375 40.113281 96.730469 C 40.195312 96.480469 40.195312 96.140625 40.085938 95.972656 C 39.945312 95.773438 39.832031 95.238281 39.804688 94.789062 C 39.660156 93.15625 39.464844 90.816406 39.269531 89.210938 C 39.15625 88.167969 39.210938 87.4375 39.410156 87.210938 C 39.578125 87.015625 39.660156 86.621094 39.550781 86.367188 C 39.4375 86.113281 39.519531 85.914062 39.71875 85.914062 C 39.914062 85.914062 40 85.71875 39.914062 85.492188 C 39.804688 85.269531 39.859375 85.015625 40.027344 84.929688 C 40.167969 84.816406 40.226562 84.621094 40.113281 84.480469 C 40.027344 84.339844 40.085938 84.027344 40.253906 83.832031 C 40.421875 83.632812 40.507812 83.238281 40.394531 82.984375 C 40.308594 82.730469 40.367188 82.535156 40.5625 82.535156 C 40.761719 82.535156 40.816406 82.308594 40.703125 81.972656 C 40.589844 81.632812 40.621094 81.238281 40.761719 81.042969 C 41.070312 80.621094 41.070312 75.492188 40.761719 74.984375 C 40.621094 74.816406 40.621094 74.648438 40.730469 74.648438 C 40.816406 74.648438 40.761719 74.449219 40.5625 74.226562 C 40.367188 74 40.308594 73.804688 40.449219 73.804688 C 40.5625 73.804688 40.421875 73.605469 40.113281 73.351562 C 39.832031 73.125 39.773438 73.015625 40 73.125 C 40.226562 73.238281 40.054688 72.929688 39.605469 72.449219 C 39.15625 71.972656 38.675781 71.632812 38.535156 71.71875 C 38.421875 71.804688 38.308594 71.71875 38.308594 71.550781 C 38.308594 71.378906 38.195312 71.324219 38.027344 71.410156 C 37.886719 71.492188 37.746094 71.4375 37.746094 71.269531 C 37.746094 71.097656 37.632812 71.042969 37.464844 71.125 C 37.324219 71.210938 37.183594 71.15625 37.183594 70.984375 C 37.183594 70.816406 37.070312 70.730469 36.929688 70.84375 C 36.789062 70.929688 36.589844 70.875 36.480469 70.730469 C 36.394531 70.5625 36.140625 70.507812 35.945312 70.589844 C 35.71875 70.675781 35.464844 70.621094 35.351562 70.449219 C 35.269531 70.28125 34.929688 70.140625 34.648438 70.140625 C 34.367188 70.140625 34.027344 70.28125 33.945312 70.449219 Z M 31.578125 102.730469 C 31.945312 103.183594 31.914062 103.210938 31.492188 102.84375 C 31.210938 102.648438 30.984375 102.421875 30.984375 102.367188 C 30.984375 102.140625 31.210938 102.28125 31.578125 102.730469 Z M 10 105.914062 C 10.28125 106.226562 10.449219 106.480469 10.367188 106.480469 C 10.28125 106.480469 10 106.226562 9.71875 105.914062 C 9.4375 105.605469 9.269531 105.351562 9.351562 105.351562 C 9.4375 105.351562 9.71875 105.605469 10 105.914062 Z M 10 105.914062 "/>
<path style=" stroke:none;fill-rule:nonzero;fill:rgb(0%,0%,0%);fill-opacity:1;" d="M 52.761719 73.605469 C 52.675781 73.746094 52.449219 73.773438 52.226562 73.691406 C 52 73.605469 51.832031 73.660156 51.832031 73.832031 C 51.832031 74 51.632812 74.085938 51.410156 73.972656 C 51.183594 73.886719 50.984375 73.945312 50.984375 74.113281 C 50.984375 74.28125 50.875 74.308594 50.703125 74.226562 C 50.5625 74.140625 50.421875 74.195312 50.421875 74.367188 C 50.421875 74.535156 50.308594 74.621094 50.167969 74.507812 C 50.027344 74.421875 49.71875 74.535156 49.492188 74.761719 C 49.269531 74.984375 49.015625 75.097656 48.902344 75.015625 C 48.816406 74.902344 48.730469 74.984375 48.730469 75.183594 C 48.730469 75.378906 48.621094 75.464844 48.480469 75.378906 C 48.339844 75.296875 48.140625 75.410156 48.054688 75.660156 C 47.945312 75.914062 47.804688 76.085938 47.746094 76 C 47.550781 75.804688 45.183594 78.113281 45.296875 78.367188 C 45.351562 78.507812 45.238281 78.589844 45.070312 78.589844 C 44.902344 78.589844 44.84375 78.703125 44.929688 78.875 C 45.015625 79.015625 44.957031 79.15625 44.789062 79.15625 C 44.621094 79.15625 44.5625 79.269531 44.648438 79.4375 C 44.730469 79.578125 44.675781 79.71875 44.507812 79.71875 C 44.339844 79.71875 44.28125 79.832031 44.367188 80 C 44.449219 80.140625 44.394531 80.28125 44.226562 80.28125 C 44.027344 80.28125 43.945312 80.480469 44.054688 80.703125 C 44.140625 80.929688 44.085938 81.125 43.945312 81.125 C 43.804688 81.125 43.746094 81.324219 43.832031 81.550781 C 43.945312 81.773438 43.859375 81.972656 43.660156 81.972656 C 43.464844 81.972656 43.378906 82.167969 43.464844 82.394531 C 43.578125 82.621094 43.519531 82.875 43.351562 82.957031 C 43.210938 83.070312 43.15625 83.269531 43.269531 83.410156 C 43.351562 83.550781 43.296875 83.859375 43.125 84.054688 C 42.957031 84.253906 42.875 84.621094 42.984375 84.875 C 43.070312 85.097656 43.015625 85.378906 42.84375 85.464844 C 42.675781 85.578125 42.621094 86.027344 42.703125 86.449219 C 42.789062 86.902344 42.761719 87.324219 42.621094 87.410156 C 42.339844 87.578125 42.367188 93.296875 42.648438 93.773438 C 42.761719 93.945312 42.761719 94.195312 42.675781 94.367188 C 42.589844 94.507812 42.648438 94.648438 42.816406 94.648438 C 42.984375 94.648438 43.070312 94.761719 42.957031 94.902344 C 42.875 95.042969 42.984375 95.351562 43.210938 95.578125 C 43.4375 95.804688 43.550781 96.054688 43.464844 96.167969 C 43.351562 96.253906 43.4375 96.339844 43.605469 96.339844 C 43.804688 96.339844 43.914062 96.449219 43.859375 96.589844 C 43.832031 96.730469 44.054688 97.070312 44.367188 97.324219 C 44.675781 97.578125 44.730469 97.691406 44.507812 97.605469 C 44.28125 97.492188 44.480469 97.746094 44.929688 98.167969 C 45.410156 98.5625 45.578125 98.84375 45.351562 98.730469 C 45.125 98.621094 45.410156 98.984375 46.027344 99.519531 C 46.621094 100.054688 47.550781 100.984375 48.085938 101.578125 C 48.621094 102.195312 48.984375 102.480469 48.875 102.253906 C 48.761719 102.027344 48.929688 102.113281 49.238281 102.449219 C 49.550781 102.789062 49.859375 102.984375 49.972656 102.902344 C 50.054688 102.816406 50.195312 102.957031 50.308594 103.210938 C 50.394531 103.464844 50.589844 103.578125 50.730469 103.492188 C 50.875 103.410156 51.070312 103.550781 51.15625 103.773438 C 51.238281 104.027344 51.4375 104.140625 51.578125 104.054688 C 51.71875 103.972656 51.832031 104.054688 51.832031 104.226562 C 51.832031 104.394531 51.972656 104.449219 52.113281 104.367188 C 52.28125 104.28125 52.394531 104.339844 52.394531 104.507812 C 52.394531 104.675781 52.507812 104.761719 52.648438 104.648438 C 52.789062 104.5625 52.984375 104.621094 53.097656 104.789062 C 53.210938 104.957031 53.378906 105.015625 53.519531 104.929688 C 53.660156 104.84375 53.832031 104.875 53.886719 105.015625 C 54.085938 105.296875 57.492188 105.269531 57.972656 104.957031 C 58.167969 104.84375 58.5625 104.84375 58.875 104.929688 C 59.210938 105.042969 59.4375 104.984375 59.4375 104.789062 C 59.4375 104.589844 59.632812 104.507812 59.859375 104.589844 C 60.085938 104.703125 60.339844 104.648438 60.421875 104.480469 C 60.535156 104.339844 60.703125 104.28125 60.84375 104.367188 C 60.984375 104.449219 61.15625 104.394531 61.269531 104.226562 C 61.378906 104.054688 61.578125 104 61.71875 104.085938 C 61.859375 104.195312 61.972656 104.113281 61.972656 103.945312 C 61.972656 103.773438 62.113281 103.71875 62.253906 103.804688 C 62.421875 103.886719 62.535156 103.832031 62.535156 103.660156 C 62.535156 103.492188 62.675781 103.4375 62.816406 103.519531 C 62.984375 103.605469 63.097656 103.550781 63.097656 103.410156 C 63.097656 103.238281 63.183594 103.125 63.324219 103.183594 C 63.578125 103.269531 64.957031 101.886719 64.875 101.632812 C 64.816406 101.492188 64.929688 101.410156 65.097656 101.410156 C 65.238281 101.410156 65.296875 101.269531 65.210938 101.125 C 65.125 100.957031 65.238281 100.761719 65.464844 100.675781 C 65.71875 100.589844 65.832031 100.394531 65.746094 100.253906 C 65.660156 100.113281 65.746094 100 65.914062 100 C 66.085938 100 66.140625 99.859375 66.054688 99.71875 C 65.972656 99.550781 66.085938 99.351562 66.308594 99.269531 C 66.5625 99.183594 66.675781 98.984375 66.589844 98.84375 C 66.507812 98.703125 66.589844 98.589844 66.761719 98.589844 C 66.929688 98.589844 66.984375 98.449219 66.902344 98.308594 C 66.816406 98.140625 66.875 98.027344 67.042969 98.027344 C 67.210938 98.027344 67.269531 97.886719 67.183594 97.746094 C 67.097656 97.578125 67.15625 97.464844 67.324219 97.464844 C 67.492188 97.464844 67.550781 97.324219 67.464844 97.183594 C 67.378906 97.015625 67.4375 96.902344 67.605469 96.902344 C 67.773438 96.902344 67.832031 96.761719 67.746094 96.621094 C 67.660156 96.449219 67.71875 96.339844 67.886719 96.339844 C 68.054688 96.339844 68.113281 96.195312 68.027344 96.054688 C 67.945312 95.886719 68 95.773438 68.167969 95.773438 C 68.339844 95.773438 68.394531 95.632812 68.308594 95.492188 C 68.226562 95.324219 68.28125 95.210938 68.449219 95.210938 C 68.621094 95.210938 68.703125 95.097656 68.589844 94.957031 C 68.507812 94.816406 68.5625 94.621094 68.730469 94.507812 C 68.902344 94.394531 68.957031 94.195312 68.875 94.054688 C 68.761719 93.914062 68.84375 93.804688 69.015625 93.804688 C 69.183594 93.804688 69.238281 93.660156 69.15625 93.519531 C 69.070312 93.351562 69.125 93.238281 69.296875 93.238281 C 69.464844 93.238281 69.519531 93.097656 69.4375 92.957031 C 69.351562 92.789062 69.410156 92.675781 69.578125 92.675781 C 69.746094 92.675781 69.804688 92.535156 69.71875 92.394531 C 69.632812 92.226562 69.660156 92.113281 69.804688 92.113281 C 69.945312 92.113281 70 91.632812 69.945312 91.042969 C 69.886719 90.480469 69.804688 89.605469 69.773438 89.15625 C 69.746094 88.675781 69.605469 88.167969 69.492188 87.972656 C 69.378906 87.773438 69.351562 87.324219 69.464844 86.957031 C 69.550781 86.5625 69.492188 86.167969 69.296875 86.054688 C 69.125 85.945312 69.070312 85.605469 69.15625 85.324219 C 69.269531 85.015625 69.183594 84.589844 69.015625 84.367188 C 68.84375 84.140625 68.761719 83.832031 68.875 83.660156 C 68.984375 83.492188 68.902344 83.183594 68.730469 82.957031 C 68.5625 82.730469 68.480469 82.421875 68.5625 82.28125 C 68.675781 82.140625 68.621094 81.945312 68.449219 81.832031 C 68.28125 81.71875 68.226562 81.519531 68.308594 81.378906 C 68.421875 81.238281 68.339844 81.125 68.167969 81.125 C 68 81.125 67.914062 81.015625 68.027344 80.875 C 68.113281 80.730469 67.972656 80.394531 67.71875 80.167969 C 67.492188 79.914062 67.378906 79.71875 67.492188 79.71875 C 67.605469 79.71875 67.324219 79.378906 66.875 78.957031 C 66.421875 78.535156 65.945312 78.226562 65.832031 78.253906 C 65.71875 78.28125 65.550781 78.113281 65.464844 77.886719 C 65.378906 77.660156 65.183594 77.550781 65.042969 77.632812 C 64.902344 77.71875 64.789062 77.632812 64.789062 77.464844 C 64.789062 77.296875 64.675781 77.238281 64.507812 77.324219 C 64.367188 77.410156 64.226562 77.351562 64.226562 77.183594 C 64.226562 77.015625 64.113281 76.957031 63.945312 77.042969 C 63.804688 77.125 63.660156 77.070312 63.660156 76.902344 C 63.660156 76.730469 63.550781 76.675781 63.378906 76.761719 C 63.238281 76.84375 63.097656 76.789062 63.097656 76.621094 C 63.097656 76.449219 62.984375 76.394531 62.816406 76.480469 C 62.675781 76.5625 62.535156 76.535156 62.535156 76.367188 C 62.535156 76.195312 62.339844 76.140625 62.113281 76.226562 C 61.886719 76.339844 61.691406 76.253906 61.691406 76.054688 C 61.691406 75.886719 61.578125 75.832031 61.410156 75.914062 C 61.269531 76 61.125 75.945312 61.125 75.773438 C 61.125 75.605469 61.015625 75.550781 60.84375 75.632812 C 60.703125 75.71875 60.5625 75.660156 60.5625 75.492188 C 60.5625 75.324219 60.449219 75.269531 60.28125 75.351562 C 60.140625 75.4375 60 75.378906 60 75.210938 C 60 75.015625 59.804688 74.929688 59.578125 75.042969 C 59.351562 75.125 59.15625 75.070312 59.15625 74.902344 C 59.15625 74.730469 59.042969 74.703125 58.875 74.789062 C 58.730469 74.875 58.589844 74.816406 58.589844 74.648438 C 58.589844 74.449219 58.394531 74.367188 58.167969 74.480469 C 57.945312 74.5625 57.746094 74.507812 57.746094 74.339844 C 57.746094 74.167969 57.632812 74.113281 57.492188 74.226562 C 57.351562 74.308594 57.15625 74.253906 57.042969 74.085938 C 56.929688 73.914062 56.761719 73.859375 56.621094 73.945312 C 56.480469 74.027344 56.308594 73.972656 56.195312 73.832031 C 56.113281 73.660156 55.859375 73.605469 55.632812 73.71875 C 55.410156 73.804688 55.210938 73.746094 55.210938 73.578125 C 55.210938 73.269531 52.957031 73.269531 52.761719 73.605469 Z M 57.183594 85.914062 C 57.605469 86.367188 57.886719 86.816406 57.804688 86.902344 C 57.71875 86.984375 57.804688 87.042969 58 87.042969 C 58.195312 87.042969 58.253906 87.15625 58.167969 87.324219 C 58.085938 87.464844 58.113281 87.605469 58.226562 87.605469 C 58.394531 87.605469 58.507812 89.914062 58.339844 90.339844 C 58.308594 90.394531 58.308594 90.507812 58.28125 90.621094 C 58.28125 90.761719 58.054688 91.070312 57.832031 91.324219 C 57.578125 91.605469 57.464844 91.832031 57.550781 91.832031 C 57.632812 91.832031 57.4375 92.113281 57.097656 92.480469 C 56.761719 92.84375 56.394531 93.097656 56.28125 93.042969 C 56.140625 92.984375 56.054688 93.070312 56.054688 93.238281 C 56.054688 93.410156 55.945312 93.464844 55.773438 93.378906 C 55.632812 93.296875 55.492188 93.351562 55.492188 93.519531 C 55.492188 93.691406 55.324219 93.804688 55.15625 93.773438 C 54.957031 93.746094 54.589844 93.804688 54.339844 93.914062 C 54.027344 94.054688 53.605469 93.859375 53.070312 93.296875 C 52.394531 92.621094 52.253906 92.253906 52.226562 91.042969 C 52.226562 90.226562 52.339844 89.578125 52.480469 89.578125 C 52.621094 89.578125 52.675781 89.378906 52.5625 89.15625 C 52.480469 88.929688 52.535156 88.730469 52.703125 88.730469 C 52.875 88.730469 52.902344 88.589844 52.816406 88.449219 C 52.730469 88.28125 52.789062 88.167969 52.957031 88.167969 C 53.125 88.167969 53.183594 88.027344 53.097656 87.886719 C 53.015625 87.71875 53.070312 87.605469 53.238281 87.605469 C 53.410156 87.605469 53.492188 87.492188 53.378906 87.351562 C 53.296875 87.183594 53.492188 86.929688 53.804688 86.761719 C 54.113281 86.589844 54.28125 86.308594 54.195312 86.140625 C 54.085938 85.945312 54.113281 85.914062 54.339844 86.027344 C 54.507812 86.140625 54.730469 86.027344 54.816406 85.804688 C 54.902344 85.550781 55.097656 85.4375 55.238281 85.519531 C 55.378906 85.605469 55.492188 85.519531 55.492188 85.378906 C 55.492188 84.789062 56.394531 85.070312 57.183594 85.914062 Z M 52.984375 93.4375 C 53.351562 93.886719 53.324219 93.914062 52.902344 93.550781 C 52.421875 93.183594 52.28125 92.957031 52.507812 92.957031 C 52.5625 92.957031 52.789062 93.183594 52.984375 93.4375 Z M 52.984375 93.4375 "/>
<path style=" stroke:none;fill-rule:nonzero;fill:rgb(0%,0%,0%);fill-opacity:1;" d="M 46.027344 76.957031 L 45.492188 77.605469 L 46.140625 77.070312 C 46.480469 76.761719 46.761719 76.480469 46.761719 76.421875 C 46.761719 76.195312 46.535156 76.367188 46.027344 76.957031 Z M 46.027344 76.957031 "/>
</g>
</svg>
