<svg xmlns="http://www.w3.org/2000/svg" viewBox="0 0 128 128"><path fill="#fff" d="m92.253 46.415-4.036 2.883v1.728h4.036zm-28.829 9.8v22.487l4.035 2.883V60.252h6.343c1.73 0 2.883 1.316 2.883 2.883v15.567h4.036v-16.43c0-3.17-2.884-6.055-6.054-6.055zm24.793 0v22.487h4.036V56.217Zm11.53 0v22.487h4.036v-18.45h8.073v18.45h4.036v-18.45h5.189c1.73 0 2.883 1.154 2.883 2.883v18.45L128 78.702v-16.43c0-3.459-2.595-6.054-6.054-6.054z"/><path fill="#f3d400" d="M25.861 46.415s-1.966 1.553-3.97 3.097c-2.063-.065-6.108.397-8.3 1.193a49.47 49.47 0 0 1-3.792-2.69s-1.514 2.607-2.468 4.138c-1.414.75-2.833 1.597-4.098 2.716A225.686 225.686 0 0 1 0 53.549c1.949 3.93 3.259 7.866 6.821 10.23 5.674-8.96 32.034-8.133 37.824-.05 3.743-1.953 5.198-6.151 6.67-10.027-.16.053-2.163.723-3.461 1.218-.776-.844-2.603-2.141-3.64-2.768-.985-1.803-2.419-4.24-2.419-4.24s-1.697 1.264-3.665 2.64c-2.658-.49-5.874-1.086-8.578-.938-1.841-1.515-3.69-3.2-3.69-3.2z"/><path fill="#ffe953" d="m2.015 61.901 4.68 11.333c8.127 10.724 28.882 11.468 37.93.208 2.14-4.825 5.03-11.606 5.03-11.606-2.323 3.439-6.1 5.812-8.427 7.091-1.654.906-5.467 1.453-5.467 1.453l-10.016-5.19-10.071 5.087s-3.765-.605-5.468-1.402c-3.44-1.836-5.753-4.005-8.192-6.974Z"/></svg>
