<svg xmlns="http://www.w3.org/2000/svg" width="128" height="128" viewBox="0 0 128 128"><defs><clipPath id="a"><path d="M24 0h79.645v79.121H24Zm0 0"/></clipPath></defs><g clip-path="url(#a)"><path style="stroke:none;fill-rule:nonzero;fill:#000;fill-opacity:1" d="M63.688 0C41.82 0 24.086 17.719 24.086 39.563c0 21.84 17.734 39.558 39.602 39.558 21.859 0 39.601-17.719 39.601-39.558C103.29 17.718 85.547 0 63.687 0Zm-19.49 62.84 13.65-50.64h7.586L51.789 62.84Zm43.578-18.606-4.144 3.352-6.594-7.473-6.871 7.473-4.309-3.168 5.45-8.262-8.985-3.511 1.602-5.723 9.484 2.465.793-9.403h5.379l.79 9.403 8.991-2.282 1.84 5.54-8.894 3.511Zm0 0"/></g><path style="stroke:none;fill-rule:nonzero;fill:#000;fill-opacity:1" d="M20.773 104.86c-.546-1.942-2.246-3.708-5.464-3.708-2.922 0-5.137 1.383-5.118 3.395-.02 1.715 1.172 2.754 4.192 3.43l5.07 1.085c5.594 1.22 8.32 3.81 8.352 8.024-.016 5.621-5.25 9.46-12.68 9.46-7.281 0-11.867-3.214-12.727-8.667l6.817-.66c.594 2.672 2.691 4.054 5.894 4.054 3.32 0 5.532-1.515 5.532-3.543 0-1.68-1.274-2.785-3.996-3.378l-5.067-1.055c-5.695-1.168-8.371-4.035-8.355-8.356-.016-5.468 4.855-8.98 12.004-8.98 6.949 0 10.976 3.2 11.933 8.223Zm7.891 6.46c0-9.144 5.547-15.375 14.047-15.375 7.297 0 13.57 4.567 13.57 14.965v2.14H35.598c.066 5.075 3.054 8.044 7.578 8.044 3.02 0 5.332-1.32 6.273-3.824l6.535.726c-1.238 5.156-5.992 8.52-12.91 8.52-8.945.015-14.41-5.903-14.41-15.196Zm20.918-2.965c-.035-4.039-2.742-6.972-6.77-6.972-4.175 0-6.984 3.18-7.183 6.972Zm8.254-11.667h6.684v5.027h.347c1.238-3.38 4.211-5.422 8.188-5.422 3.996 0 6.886 2.059 8.023 5.422h.317c1.32-3.297 4.605-5.422 8.914-5.422 5.445 0 9.277 3.508 9.277 10.117v19.89H92.57v-18.784c0-3.66-2.246-5.325-5.07-5.325-3.383 0-5.363 2.309-5.363 5.653v18.472h-6.871V107.22c0-3.051-2.028-5.028-4.985-5.028-3.02 0-5.445 2.473-5.445 6.114v18.011h-7Zm43.464 21.687c0-6.676 5.516-8.39 11.263-9.016 5.23-.558 7.343-.66 7.343-2.668v-.117c0-2.918-1.781-4.562-5.015-4.562-3.418 0-5.399 1.726-6.094 3.754l-6.54-.922c1.555-5.406 6.34-8.172 12.583-8.172 5.664 0 12.05 2.355 12.05 10.183v19.825h-6.718v-4.07h-.23c-1.274 2.488-4.063 4.663-8.72 4.663-5.644 0-9.921-3.082-9.921-8.898Zm18.626-2.324v-3.496c-.91.726-4.574 1.203-6.422 1.453-3.137.445-5.465 1.562-5.465 4.25 0 2.57 2.078 3.89 5 3.89 4.227 0 6.887-2.804 6.887-6.097Zm0 0"/></svg>
