<svg xmlns="http://www.w3.org/2000/svg" version="1.1" viewBox="0 0 128 128">
  <g transform="matrix(1 0 0 .8 7.401e-7 27.184)" fill="#b3b3b3">
    <path transform="matrix(1 0 0 1.25 -7.401e-7 -33.979)" d="m25.6 0c-0.89 0-1.6 0.89-1.6 2v11.2h-6.25c-2.08 0-3.75 1.34-3.75 3v7.8h-12c-1.11 0-2 0.71-2 1.6v4.8c0 0.89 0.89 1.6 2 1.6h12v10h-12c-1.11 0-2 0.71-2 1.6v4.8c0 0.89 0.89 1.6 2 1.6h12v10h-12c-1.11 0-2 0.71-2 1.6v4.8c0 0.89 0.89 1.6 2 1.6h12v10h-12c-1.11 0-2 0.71-2 1.6v4.8c0 0.89 0.89 1.6 2 1.6h12v10h-12c-1.11 0-2 0.71-2 1.6v4.8c0 0.89 0.89 1.6 2 1.6h12v7c0 1.66 1.67 3 3.75 3h6.25v12c0 1.11 0.71 2 1.6 2h4.8c0.89 0 1.6-0.89 1.6-2v-12h10v12c0 1.11 0.71 2 1.6 2h4.8c0.89 0 1.6-0.89 1.6-2v-12h10v12c0 1.11 0.71 2 1.6 2h4.8c0.89 0 1.6-0.89 1.6-2v-12h10v12c0 1.11 0.71 2 1.6 2h4.8c0.89 0 1.6-0.89 1.6-2v-12h10v12c0 1.11 0.71 2 1.6 2h4.8c0.89 0 1.6-0.89 1.6-2v-12h6.25c2.08 0 3.75-1.34 3.75-3v-7h12c1.11 0 2-0.71 2-1.6v-4.8c0-0.89-0.89-1.6-2-1.6h-12v-10h12c1.11 0 2-0.71 2-1.6v-4.8c0-0.89-0.89-1.6-2-1.6h-12v-10h12c1.11 0 2-0.71 2-1.6v-4.8c0-0.89-0.89-1.6-2-1.6h-12v-10h12c1.11 0 2-0.71 2-1.6v-4.8c0-0.89-0.89-1.6-2-1.6h-12v-10h12c1.11 0 2-0.71 2-1.6v-4.8c0-0.89-0.89-1.6-2-1.6h-12v-7.8c0-1.66-1.67-3-3.75-3h-6.25v-11.2c0-1.11-0.71-2-1.6-2h-4.8c-0.89 0-1.6 0.89-1.6 2v11.2h-10v-11.2c0-1.11-0.71-2-1.6-2h-4.8c-0.89 0-1.6 0.89-1.6 2v11.2h-10v-11.2c0-1.11-0.71-2-1.6-2h-4.8c-0.89 0-1.6 0.89-1.6 2v11.2h-10v-11.2c0-1.11-0.71-2-1.6-2h-4.8c-0.89 0-1.6 0.89-1.6 2v11.2h-10v-11.2c0-1.11-0.71-2-1.6-2zm-2.6 20a3 3 0 0 1 3 3 3 3 0 0 1-3 3 3 3 0 0 1-3-3 3 3 0 0 1 3-3zm41 4.5c14.7 0 27.5 8.1 34.3 20l-13 7.5c-4.2-7.5-12.2-12.5-21.3-12.5-13.5 0-24.5 11-24.5 24.5s11 24.5 24.5 24.5c9.1 0 17.1-5 21.3-12.4l12.9 7.6c-6.8 11.8-19.6 19.8-34.2 19.8-21.8 0-39.5-17.7-39.5-39.5s17.7-39.5 39.5-39.5zm0.04 31.5h2.58v6.67h0.04c0.31-0.54 0.61-0.94 0.88-1.19 0.28-0.25 0.63-0.38 1.06-0.38 0.72 0 1.33 0.47 1.81 1.42 0.49 0.94 0.73 2.29 0.73 4.06 0 1.63-0.23 2.94-0.7 3.93-0.46 0.99-1.06 1.49-1.8 1.49-0.77 0-1.43-0.55-1.98-1.67h-0.04v1.32h-2.58zm20.45 0h2.57v15.66h-2.59v-1.35h-0.04c-0.57 1.13-1.22 1.69-1.95 1.69-0.76 0-1.37-0.5-1.84-1.49-0.46-0.99-0.69-2.32-0.69-3.98 0-1.65 0.24-2.97 0.71-3.96 0.47-0.99 1.1-1.48 1.87-1.48 0.7 0 1.35 0.51 1.95 1.52zm8.6 0h2.57v15.66h-2.58v-1.35h-0.04c-0.57 1.13-1.22 1.69-1.95 1.69-0.76 0-1.37-0.5-1.84-1.49-0.46-0.99-0.69-2.32-0.69-3.98 0-1.65 0.24-2.97 0.71-3.96 0.47-0.99 1.1-1.48 1.88-1.48 0.7 0 1.35 0.51 1.95 1.52zm16.35 0h2.57v15.66h-2.59v-1.35h-0.04c-0.57 1.13-1.22 1.69-1.95 1.69-0.76 0-1.37-0.5-1.84-1.49-0.46-0.99-0.69-2.32-0.69-3.98 0-1.65 0.24-2.97 0.71-3.96 0.47-0.99 1.1-1.48 1.88-1.48 0.7 0 1.35 0.51 1.95 1.52zm-65.43 0.82h5.45v3.16h-2.75v2.73h2.39v3.08h-2.39v2.7h2.77v3.17h-5.46zm12.14 4.26c0.91 0 1.5 0.59 1.77 1.77 0.41-0.61 0.8-1.06 1.15-1.34 0.36-0.28 0.78-0.42 1.26-0.42 1.2 0 1.8 1.05 1.8 3.15v7.42h-2.58v-6.03c0-0.99-0.25-1.48-0.76-1.48-0.52 0-0.78 0.48-0.78 1.46v6.06h-2.58v-6.21c0-0.38-0.07-0.69-0.21-0.93-0.14-0.24-0.31-0.37-0.53-0.37-0.23 0-0.42 0.12-0.56 0.36-0.14 0.24-0.2 0.56-0.2 0.97v6.19h-2.58v-10.22h2.58v1.26c0.73-1.07 1.48-1.61 2.24-1.61zm19.39 0c0.6 0 1.19 0.24 1.74 0.71 0.56 0.47 0.96 1.09 1.22 1.87s0.4 2 0.43 3.68h-4.31c0.04 1.52 0.37 2.28 1.01 2.28 0.22 0 0.41-0.1 0.59-0.3 0.17-0.2 0.28-0.46 0.31-0.78h2.18c-0.41 2.3-1.45 3.45-3.11 3.45-1.04 0-1.86-0.49-2.46-1.48-0.6-0.99-0.91-2.34-0.91-4.08 0-1.61 0.3-2.91 0.91-3.88 0.6-0.98 1.41-1.47 2.41-1.47zm24.95 0c0.6 0 1.18 0.24 1.74 0.71 0.56 0.47 0.96 1.09 1.22 1.87 0.25 0.78 0.4 2 0.43 3.68h-4.31c0.04 1.52 0.37 2.28 1.01 2.28 0.22 0 0.41-0.1 0.59-0.3s0.28-0.46 0.31-0.78h2.18c-0.41 2.3-1.45 3.45-3.11 3.45-1.04 0-1.86-0.49-2.46-1.48s-0.91-2.34-0.91-4.08c0-1.61 0.3-2.91 0.91-3.88 0.6-0.98 1.41-1.47 2.41-1.47zm-24.87 2.39c-0.34 0-0.59 0.17-0.74 0.5s-0.22 0.87-0.22 1.61h1.87c-0.02-0.72-0.1-1.25-0.24-1.59-0.14-0.35-0.37-0.52-0.67-0.52zm24.94 0c-0.34 0-0.59 0.17-0.74 0.5-0.15 0.33-0.22 0.87-0.22 1.61h1.87c-0.02-0.72-0.1-1.25-0.24-1.59-0.14-0.35-0.37-0.52-0.68-0.52zm-32.99 0.48c-0.62 0-0.93 0.82-0.93 2.46 0 0.94 0.08 1.63 0.24 2.07 0.17 0.43 0.43 0.64 0.78 0.64 0.63 0 0.95-0.87 0.95-2.62 0-1.7-0.35-2.54-1.04-2.54zm15.96 0c-0.67 0-1 0.89-1 2.68 0 0.79 0.09 1.41 0.27 1.84 0.18 0.43 0.43 0.64 0.75 0.64 0.3 0 0.53-0.23 0.7-0.69 0.17-0.46 0.26-1.11 0.26-1.96 0-1.68-0.33-2.52-0.98-2.52zm8.6 0c-0.67 0-1 0.89-1 2.68 0 0.79 0.09 1.41 0.27 1.84 0.18 0.43 0.44 0.64 0.76 0.64 0.3 0 0.53-0.23 0.7-0.69 0.17-0.46 0.26-1.11 0.26-1.96 0-1.68-0.33-2.52-0.98-2.52zm16.34 0c-0.67 0-1 0.89-1 2.68 0 0.79 0.09 1.41 0.27 1.84 0.18 0.43 0.43 0.64 0.75 0.64 0.3 0 0.53-0.23 0.7-0.69s0.26-1.11 0.26-1.96c0-1.68-0.33-2.52-0.98-2.52z" style="fill:#000;stroke-width:0.89"/>
  </g>
</svg>
