<svg xmlns="http://www.w3.org/2000/svg" version="1.1" viewBox="0 0 128 128"><style>.s0{fill:#b3b3b3;}.s1{fill:#fff;stroke-width:1.1;}</style><g transform="matrix(1 0 0 .8 7.401e-7 27.184)" fill="#b3b3b3"><g transform="translate(112 -3.374e-6)" fill="#b3b3b3"><rect x="0" y="86" width="16" height="10" ry="2" fill="#b3b3b3"/><rect x="0" y="41" width="16" height="10" ry="2" fill="#b3b3b3"/><rect x="0" y="18.5" width="16" height="10" ry="2" fill="#b3b3b3"/><rect x="0" y="-4" width="16" height="10" ry="2" fill="#b3b3b3"/><rect x="0" y="63.5" width="16" height="10" ry="2" fill="#b3b3b3"/></g><g transform="matrix(0 1.25 -.8 0 100.82 106.02)" fill="#b3b3b3"><rect x="0" y="86" width="16" height="10" ry="2" fill="#b3b3b3"/><rect x="0" y="41" width="16" height="10" ry="2" fill="#b3b3b3"/><rect x="0" y="18.5" width="16" height="10" ry="2" fill="#b3b3b3"/><rect x="0" y="-4" width="16" height="10" ry="2" fill="#b3b3b3"/><rect x="0" y="63.5" width="16" height="10" ry="2" fill="#b3b3b3"/></g><rect x="0" y="86" width="16" height="10" ry="2" fill="#b3b3b3"/><rect x="0" y="41" width="16" height="10" ry="2" fill="#b3b3b3"/><rect x="0" y="18.5" width="16" height="10" ry="2" fill="#b3b3b3"/><rect x="0" y="-4" width="16" height="10" ry="2" fill="#b3b3b3"/><rect x="0" y="63.5" width="16" height="10" ry="2" fill="#b3b3b3"/><g transform="matrix(0 1.25 -.8 0 100.82 -33.979)" fill="#b3b3b3"><rect x="0" y="86" width="16" height="10" ry="2" fill="#b3b3b3"/><rect x="0" y="41" width="16" height="10" ry="2" fill="#b3b3b3"/><rect x="0" y="18.5" width="16" height="10" ry="2" fill="#b3b3b3"/><rect x="0" y="-4" width="16" height="10" ry="2" fill="#b3b3b3"/><rect x="0" y="63.5" width="16" height="10" ry="2" fill="#b3b3b3"/></g><rect x="14" y="-17.5" width="100" height="126" ry="3.8" style="fill:#000;stroke-width:1.1"/><path d="m85.3 61.1c-4.2 9.3-12.2 15.5-21.3 15.5-13.5 0-24.5-13.7-24.5-30.6s11-30.6 24.5-30.6c9.1 0 17.1 6.3 21.3 15.6l13-9.4c-6.8-14.9-19.6-25-34.3-25-21.8 0-39.5 22.1-39.5 49.4s17.7 49.4 39.5 49.4c14.6 0 27.4-10 34.2-24.7z" class="s1"/><ellipse cx="23" cy="-5.2" rx="3" ry="3.8" class="s1"/></g></svg>