<svg xmlns="http://www.w3.org/2000/svg" viewBox="0 0 128 128"><path fill="#000b1b" d="M36.163 69.158V58.971h2.696v3.793h3.04V58.97h2.696v10.187H41.9v-4.043h-3.041v4.043zm12.847.189c-.857 0-1.479-.288-1.866-.862-.386-.586-.58-1.364-.58-2.336v-4.827h2.696v4.482c0 .502.063.836.189 1.003.135.168.334.251.595.251.25 0 .46-.052.627-.157.167-.104.334-.282.502-.532v-5.047h2.696v7.836h-2.195l-.188-1.034h-.063a3.827 3.827 0 0 1-1.05.893c-.376.22-.83.33-1.363.33zm9.531 3.04a6.284 6.284 0 0 1-1.646-.203c-.501-.126-.903-.33-1.206-.612-.293-.282-.44-.658-.44-1.128 0-.617.366-1.118 1.098-1.505v-.063a2.282 2.282 0 0 1-.517-.533c-.136-.219-.204-.49-.204-.815 0-.271.078-.538.235-.799a2.46 2.46 0 0 1 .643-.674v-.063a2.645 2.645 0 0 1-.753-.799 2.334 2.334 0 0 1-.313-1.207c0-.648.156-1.18.47-1.598a2.815 2.815 0 0 1 1.254-.94 4.273 4.273 0 0 1 1.63-.314c.46 0 .878.062 1.254.188h2.915v1.943h-1.128c.03.094.057.214.078.36.031.147.047.298.047.455 0 .617-.141 1.118-.423 1.505a2.453 2.453 0 0 1-1.144.83 4.58 4.58 0 0 1-1.6.267c-.26 0-.553-.036-.877-.11a.587.587 0 0 0-.188.455c0 .167.084.287.25.36.178.073.46.11.847.11H60c.982 0 1.74.162 2.272.486.544.313.815.83.815 1.552 0 .564-.188 1.06-.564 1.489-.366.428-.888.762-1.567 1.003-.68.24-1.484.36-2.414.36zm.25-7.304c.252 0 .455-.088.612-.266.157-.178.235-.455.235-.83 0-.367-.078-.633-.235-.8a.777.777 0 0 0-.611-.267.777.777 0 0 0-.611.267c-.157.167-.235.433-.235.8 0 .375.078.652.235.83.156.178.36.266.61.266zm.189 5.643c.439 0 .805-.068 1.097-.204.293-.125.439-.298.439-.517 0-.21-.094-.34-.282-.392-.178-.052-.434-.078-.768-.078h-.611c-.314 0-.554-.01-.721-.032a2.086 2.086 0 0 1-.408-.062c-.188.188-.282.376-.282.564 0 .25.141.433.423.548.293.115.664.173 1.113.173zm8.117 1.661a6.283 6.283 0 0 1-1.645-.203c-.502-.126-.904-.33-1.207-.612-.293-.282-.44-.658-.44-1.128 0-.617.367-1.118 1.098-1.505v-.063a2.278 2.278 0 0 1-.517-.533c-.136-.219-.204-.49-.204-.815 0-.271.078-.538.235-.799.167-.261.381-.486.643-.674v-.063a2.645 2.645 0 0 1-.753-.799 2.334 2.334 0 0 1-.313-1.207c0-.648.157-1.18.47-1.598a2.814 2.814 0 0 1 1.254-.94 4.272 4.272 0 0 1 1.63-.314c.46 0 .878.062 1.254.188h2.915v1.943H70.39c.031.094.057.214.078.36.031.147.047.298.047.455 0 .617-.141 1.118-.423 1.505a2.453 2.453 0 0 1-1.144.83 4.58 4.58 0 0 1-1.599.267c-.261 0-.554-.036-.878-.11a.588.588 0 0 0-.188.455c0 .167.084.287.251.36.178.073.46.11.846.11h1.176c.982 0 1.74.162 2.273.486.543.313.815.83.815 1.552 0 .564-.189 1.06-.565 1.489-.365.428-.888.762-1.567 1.003-.68.24-1.484.36-2.414.36zm.251-7.304c.25 0 .455-.088.611-.266.157-.178.235-.455.235-.83 0-.367-.078-.633-.235-.8a.777.777 0 0 0-.611-.267.777.777 0 0 0-.611.267c-.157.167-.235.433-.235.8 0 .375.078.652.235.83.156.178.36.266.611.266zm.188 5.643c.439 0 .805-.068 1.097-.204.293-.125.44-.298.44-.517 0-.21-.095-.34-.283-.392-.178-.052-.434-.078-.768-.078h-.611a6.21 6.21 0 0 1-.721-.032 2.086 2.086 0 0 1-.408-.062c-.188.188-.282.376-.282.564 0 .25.141.433.423.548.293.115.664.173 1.113.173zm5.265-1.568v-7.836h2.696v7.836zm1.348-8.808c-.439 0-.794-.12-1.066-.36-.272-.251-.408-.58-.408-.988 0-.407.136-.731.408-.972.272-.25.627-.376 1.066-.376.439 0 .794.125 1.066.376.271.24.407.565.407.972 0 .408-.136.737-.407.988-.272.24-.627.36-1.066.36zm3.167 8.808v-7.836h2.194l.188.94h.063a5.012 5.012 0 0 1 1.066-.784c.407-.23.878-.344 1.41-.344.868 0 1.49.292 1.866.877.386.575.58 1.348.58 2.32v4.827h-2.696v-4.482c0-.502-.063-.836-.188-1.003-.126-.168-.324-.251-.596-.251-.25 0-.46.052-.627.157-.167.104-.355.25-.564.439v5.14zm11.975 3.23a6.284 6.284 0 0 1-1.646-.204c-.501-.126-.903-.33-1.206-.612-.293-.282-.44-.658-.44-1.128 0-.617.366-1.118 1.098-1.505v-.063a2.282 2.282 0 0 1-.517-.533c-.136-.219-.204-.49-.204-.815 0-.271.078-.538.235-.799a2.46 2.46 0 0 1 .643-.674v-.063a2.645 2.645 0 0 1-.753-.799 2.336 2.336 0 0 1-.313-1.207c0-.648.157-1.18.47-1.598a2.815 2.815 0 0 1 1.254-.94 4.273 4.273 0 0 1 1.63-.314c.46 0 .878.062 1.254.188h2.915v1.943h-1.128c.03.094.057.214.078.36.031.147.047.298.047.455 0 .617-.141 1.118-.423 1.505a2.454 2.454 0 0 1-1.144.83 4.58 4.58 0 0 1-1.599.267c-.261 0-.554-.036-.878-.11a.587.587 0 0 0-.188.455c0 .167.084.287.251.36.178.073.46.11.846.11h1.176c.982 0 1.74.162 2.273.486.543.313.815.83.815 1.552 0 .564-.189 1.06-.565 1.489-.365.428-.888.762-1.567 1.003-.68.24-1.484.36-2.414.36zm.251-7.305c.25 0 .455-.088.611-.266.157-.178.235-.455.235-.83 0-.367-.078-.633-.235-.8a.777.777 0 0 0-.611-.267.777.777 0 0 0-.611.267c-.157.167-.235.433-.235.8 0 .375.078.652.235.83.156.178.36.266.611.266zm.188 5.643c.439 0 .805-.068 1.097-.204.293-.125.439-.298.439-.517 0-.21-.094-.34-.282-.392-.178-.052-.434-.078-.768-.078h-.611c-.314 0-.554-.01-.721-.032a2.084 2.084 0 0 1-.408-.062c-.188.188-.282.376-.282.564 0 .25.141.433.423.548.293.115.664.173 1.113.173zm8.622-1.568V58.971h6.645v2.257h-3.95v1.943h3.386v2.257h-3.385v3.73zm9.594.189c-.492 0-.915-.11-1.27-.33a2.35 2.35 0 0 1-.8-.893 2.565 2.565 0 0 1-.281-1.191c0-.815.334-1.453 1.003-1.912.668-.47 1.755-.784 3.26-.94-.063-.544-.429-.816-1.097-.816-.283 0-.58.058-.894.173a7.03 7.03 0 0 0-1.081.485l-.94-1.755a7.75 7.75 0 0 1 1.676-.768 5.97 5.97 0 0 1 1.771-.266c1.024 0 1.824.292 2.399.877.574.575.862 1.505.862 2.79v4.357h-2.195l-.188-.752h-.062a4.517 4.517 0 0 1-1.004.69c-.344.167-.73.25-1.16.25zm.94-2.07c.22 0 .402-.046.549-.14a2.45 2.45 0 0 0 .423-.392v-1.066c-.638.094-1.082.235-1.332.423-.24.188-.361.392-.361.611 0 .377.24.565.721.565zm8.967 2.07c-.741 0-1.41-.163-2.006-.486a3.657 3.657 0 0 1-1.426-1.395c-.345-.617-.517-1.359-.517-2.226s.193-1.604.58-2.21a3.947 3.947 0 0 1 1.551-1.41 4.5 4.5 0 0 1 2.069-.486 3.482 3.482 0 0 1 2.288.815l-1.253 1.724a1.596 1.596 0 0 0-.455-.298 1.166 1.166 0 0 0-.423-.078c-.502 0-.894.177-1.176.533-.282.344-.423.814-.423 1.41s.146 1.071.439 1.426c.293.345.648.518 1.066.518.22 0 .433-.047.642-.142.215-.1.42-.222.612-.36l1.034 1.755a3.284 3.284 0 0 1-1.285.721 5.13 5.13 0 0 1-1.317.189zm7.013 0c-.763 0-1.453-.163-2.07-.486a3.628 3.628 0 0 1-1.441-1.395c-.355-.617-.533-1.359-.533-2.226 0-.846.178-1.572.533-2.179a3.93 3.93 0 0 1 1.41-1.426 3.56 3.56 0 0 1 1.819-.501c.773 0 1.41.172 1.912.517.512.334.888.789 1.128 1.363a4.73 4.73 0 0 1 .376 1.913c0 .23-.015.454-.047.674-.02.209-.042.36-.062.454h-4.467c.125.47.35.8.674.987.324.178.705.267 1.144.267.501 0 1.034-.157 1.599-.47l.877 1.598a4.891 4.891 0 0 1-1.41.674 5.05 5.05 0 0 1-1.442.236zm-1.474-5.047h2.32c0-.303-.078-.565-.235-.784-.146-.23-.423-.345-.83-.345-.293 0-.554.089-.784.267-.23.177-.387.465-.47.862zM15.084 50.822c-6.906 0-12.504 5.598-12.504 12.504a12.5 12.5 0 0 0 .566 3.735h-.011c-.5 0-.952.19-1.272.539-.41.447-.593.997-.513 1.546.036.253.123.495.255.713-.275.223-.48.533-.578.907a1.896 1.896 0 0 0 .258 1.53 1.682 1.682 0 0 0-.12 1.62c.332.748 1.153 1.338 2.75 1.97.991.394 1.901.647 1.91.65 1.312.34 2.499.513 3.527.513 1.687 0 2.945-.463 3.75-1.375a12.65 12.65 0 0 0 4.105-.024c.803.928 2.07 1.399 3.772 1.399 1.027 0 2.216-.173 3.529-.514.008-.002.915-.255 1.908-.648 1.596-.633 2.417-1.223 2.748-1.971a1.681 1.681 0 0 0-.117-1.62 1.899 1.899 0 0 0 .256-1.53 1.716 1.716 0 0 0-.578-.907c.132-.218.22-.46.255-.713.08-.549-.103-1.1-.513-1.546-.32-.349-.77-.54-1.27-.54a1.77 1.77 0 0 0-.177.01c.378-1.211.57-2.474.568-3.744 0-6.905-5.598-12.504-12.504-12.504zm.002 1.291c6.193 0 11.213 5.02 11.213 11.213V63.543l-.002.06-.002.053-.002.069v.002l-.006.146v.018l-.004.072-.004.058c-.008.138-.02.275-.033.413v.002a5.163 5.163 0 0 1-.008.078l-.02.18-.007.06-.008.07-.012.078-.011.086-.012.069-.012.076-.011.076-.014.076-.03.153c-.02.1-.038.202-.06.302l-.018.076a1.686 1.686 0 0 0-1.193-.474c-.418 0-.849.139-1.28.412-.285.181-.602.502-.927.906-.301-.418-.721-.695-1.203-.771a1.811 1.811 0 0 0-.277-.022c-1.101 0-1.764.956-2.014 1.815-.124.29-.72 1.611-1.617 2.507-1.366 1.361-1.71 2.764-1.045 4.266l-.063.008-.11.012-.169.017-.055.004-.05.004-.073.006-.08.006-.078.006-.018.002-.062.003h-.027l-.075.004-.086.004-.078.002-.05.002h-.028l-.049.002h-.232c-.073 0-.146 0-.219-.002h-.056l-.051-.002-.063-.002-.076-.002-.07-.004h-.018l-.066-.004c-.019 0-.037-.002-.055-.003l-.043-.002a11.464 11.464 0 0 1-.162-.012l-.055-.004-.072-.006-.082-.008-.139-.015h-.002c.677-1.509.334-2.916-1.033-4.282-.896-.894-1.491-2.217-1.615-2.507-.25-.86-.913-1.813-2.014-1.813-.093 0-.185.007-.277.022-.482.075-.904.354-1.205.771-.325-.404-.64-.727-.926-.908-.43-.273-.86-.41-1.28-.41-.521 0-.988.214-1.314.603l-.007.01-.02-.076v-.004a10.966 10.966 0 0 1-.156-.8v-.007l-.01-.06-.014-.1-.011-.082-.012-.082-.01-.082-.008-.078-.002-.006c-.013-.12-.023-.24-.033-.361l-.006-.07a3.475 3.475 0 0 1-.004-.057v-.014l-.005-.076-.004-.084a7.772 7.772 0 0 1-.004-.084l-.004-.074-.002-.022-.002-.068v-.057l-.002-.07-.002-.072v-.145c0-6.192 5.02-11.213 11.213-11.213zm-4.195 5.893a1.614 1.614 0 0 0-.754 3.039c.239.127.393-.1.56-.342.124-.179.255-.366.43-.428.162-.057.373.027.576.108.26.104.504.202.615-.006a1.61 1.61 0 0 0-.738-2.217 1.612 1.612 0 0 0-.69-.154zm8.132.002a1.61 1.61 0 0 0-1.668 1.449c-.031.318.03.638.18.92.11.208.358.11.617.006.204-.081.415-.165.577-.108.174.062.304.25.427.428.167.242.324.469.563.342a1.616 1.616 0 0 0-.518-3.022 1.613 1.613 0 0 0-.178-.015zM7.66 59.698v.001a1.045 1.045 0 0 0-1.03 1.252 1.048 1.048 0 1 0 1.235-1.232 1.05 1.05 0 0 0-.205-.022zm15.006 0v.001a1.043 1.043 0 0 0-1.03.842 1.051 1.051 0 0 0 1.235 1.234 1.051 1.051 0 0 0 .666-1.61 1.05 1.05 0 0 0-.871-.468zm-11.572 3.55c-.184.016-.285.154-.285.49 0 .985.47 2.602 1.763 3.541a2.801 2.801 0 0 1 1.713-1.447c.13-.038.262.183.399.41.13.22.263.444.4.444.145 0 .288-.22.428-.436.145-.225.288-.446.425-.402a2.808 2.808 0 0 1 1.616 1.343c1.205-.949 1.646-2.498 1.646-3.453 0-.754-.507-.517-1.32-.115l-.045.023c-.746.37-1.74.862-2.83.862s-2.084-.492-2.83-.862c-.472-.233-.844-.418-1.08-.398zm-5.59 3.387c.164 0 .366.068.588.209.688.437 2.015 2.72 2.502 3.607a.787.787 0 0 0 .693.424c.498 0 .886-.495.045-1.123-1.264-.946-.82-2.49-.217-2.586a.542.542 0 0 1 .078-.008c.549 0 .79.946.79.946s.71 1.782 1.93 3c1.105 1.105 1.258 2.01.614 3.142a5.03 5.03 0 0 1-.222.354 2.263 2.263 0 0 1-.8.71c-.606.331-1.373.446-2.153.446-1.233 0-2.495-.287-3.204-.47-.034-.01-4.342-1.225-3.796-2.26.091-.175.243-.245.433-.245.768 0 2.165 1.143 2.766 1.143.134 0 .229-.058.267-.197.256-.919-3.89-1.304-3.54-2.633.061-.236.227-.33.462-.33 1.015 0 3.293 1.783 3.77 1.783.036 0 .062-.01.076-.033l.006-.01c.223-.37.096-.636-1.436-1.574l-.146-.09c-1.685-1.02-2.868-1.635-2.196-2.367.078-.085.187-.121.32-.121.159 0 .349.052.56.14.89.376 2.125 1.4 2.64 1.846.152.132.24.213.24.213s.652.68 1.047.68a.24.24 0 0 0 .22-.126c.28-.471-2.599-2.652-2.76-3.552-.11-.61.077-.918.423-.918zm19.289.002a.42.42 0 0 1 .334.113c.101.101.157.267.154.5 0 .01 0 .02-.002.031v.045c0 .013-.002.026-.004.04a1.491 1.491 0 0 1-.004.034v.01l-.003.031-.002.01a.62.62 0 0 1-.012.082l-.004.022a.88.88 0 0 1-.057.174l-.023.046a1.691 1.691 0 0 1-.084.15l-.018.028a3.413 3.413 0 0 1-.197.276l-.023.029a7.995 7.995 0 0 1-.202.24l-.054.06-.028.032-.113.127-.03.031-.058.063-.06.064-.06.064-.063.065-.063.064-.125.13c-.6.615-1.231 1.228-1.445 1.61a.913.913 0 0 0-.04.079.318.318 0 0 0-.034.175c.002.016.01.032.017.045.012.021.026.042.043.059.008.008.017.013.026.02a.246.246 0 0 0 .15.046h.018l.017-.002.016-.001.015-.002h.006l.014-.004h.002l.015-.004h.006l.014-.004.02-.006.037-.014a.781.781 0 0 0 .097-.04l.02-.01a1.359 1.359 0 0 0 .139-.08l.02-.014a.3.3 0 0 0 .019-.014l.02-.012.01-.007.028-.02c.027-.018.051-.038.076-.057l.002-.002.041-.03c.055-.044.106-.085.153-.126l.03-.03.003-.001.015-.014c.039-.034.074-.067.102-.093l.012-.01.027-.028.018-.015.006-.006v-.002l.029-.03h.002l.004-.005.008-.006.001-.002.006-.004.03-.027.017-.016.026-.023.021-.018.01-.01.021-.02.032-.025.015-.015.233-.2.037-.03.06-.051.063-.053c.081-.068.169-.138.262-.213l.06-.049.16-.127a17.038 17.038 0 0 1 .623-.463l.057-.039.119-.082.035-.025c.071-.048.143-.095.215-.14l.037-.022.035-.024.108-.064.035-.022.07-.04.07-.04.014-.008.055-.029.068-.037.033-.018.034-.015c.075-.038.15-.074.228-.106l.033-.013.063-.024.06-.021.053-.018h.006a.716.716 0 0 1 .027-.008l.002-.002.057-.013h.002l.08-.018a.756.756 0 0 1 .103-.012.664.664 0 0 1 .05-.002h.013a.45.45 0 0 1 .068.004h.004l.022.004.021.004h.002l.02.006c.056.015.109.044.152.084l.004.004.008.008.006.008c.059.062.11.133.146.21l.006.014a.482.482 0 0 1 .014.354.745.745 0 0 1-.047.107l-.012.022c-.046.077-.1.149-.162.214l-.014.016c-.029.031-.058.061-.09.09l-.03.027-.016.014a3.173 3.173 0 0 1-.1.084l-.018.016a6.347 6.347 0 0 1-.338.248c-.053.036-.107.074-.164.11-.105.07-.21.138-.318.204-.03.02-.062.037-.094.057-.29.179-.615.372-.959.58l-.088.052-.277.17-.043.03-.082.052c-.033.021-.065.04-.096.061l-.068.045-.045.03-.064.04-.02.014-.064.043-.034.023-.04.028-.036.025a7.5 7.5 0 0 0-.172.125l-.021.016-.065.048-.027.024a2.992 2.992 0 0 0-.125.105l-.017.018-.032.027-.02.02-.009.01a1.655 1.655 0 0 0-.063.066l-.01.01a.949.949 0 0 0-.056.072l-.008.012a.625.625 0 0 0-.05.088l-.004.011-.004.008-.002.006-.004.01a.304.304 0 0 0-.018.066l-.002.01-.002.01v.066l.002.008.002.012.002.015v.002l.004.016.004.016c.005.016.01.034.018.05l.002.002.003.014.026.049.01.015.01.018.01.018a.064.064 0 0 0 .005.007l.004.002.002.004.004.004c.002.002.007.002.01.004a.142.142 0 0 0 .01.004l.01.004c.084.02.26-.05.493-.174l.041-.023.072-.038.034-.02c.024-.012.05-.027.076-.042l.047-.027c.308-.178.676-.405 1.056-.627l.108-.063.072-.047.107-.06c.153-.087.309-.17.465-.25l.07-.037.14-.067a6.24 6.24 0 0 1 .269-.119l.049-.021.006-.002c.262-.104.5-.168.693-.168.042 0 .084.002.125.01l.039.007h.002c.018.005.034.011.05.018a.372.372 0 0 1 .178.137l.008.013a.383.383 0 0 1 .05.104l.013.04a.581.581 0 0 1-.01.343l-.004.013a.761.761 0 0 1-.01.026l-.017.037a.75.75 0 0 1-.13.19l-.02.023a1.09 1.09 0 0 1-.032.033c-.2.197-.504.37-.848.53l-.117.052-.039.017a3.32 3.32 0 0 1-.082.036l-.08.033-.084.035c-.193.08-.39.154-.584.228l-.082.034-.082.03-.16.065-.078.032-.078.03-.037.016-.075.032c-.568.243-.976.493-.89.8a.288.288 0 0 0 .04.088c.006.013.014.025.024.036.101.104.286.087.518.003l.056-.021.041-.016.02-.007c.053-.023.108-.05.166-.077.014-.006.028-.011.043-.02.283-.137.603-.326.922-.495.049-.027.098-.051.146-.076.08-.042.161-.082.242-.12.302-.141.585-.242.813-.242.107 0 .2.022.28.073l.013.007a.44.44 0 0 1 .103.104l.018.03.02.03c.112.214.017.434-.204.65-.211.21-.541.415-.916.604-.027.014-.055.028-.084.041-1.114.547-2.573.96-2.593.965-.39.1-.944.233-1.57.332l-.094.014-.014.002c-.142.021-.285.04-.428.056l-.014.002c-.26.03-.526.052-.792.061h-.004a7.635 7.635 0 0 1-.287.004h-.11a7.043 7.043 0 0 1-.44-.02h-.01l-.155-.015a5.606 5.606 0 0 1-.268-.035l-.107-.018-.05-.01h-.003c-.051-.01-.102-.021-.152-.033a2.32 2.32 0 0 1-.088-.021l-.018-.004-.043-.012-.008-.002-.047-.012-.048-.015-.006-.002-.043-.012-.049-.016c-.013-.004-.026-.01-.04-.013l-.028-.01-.084-.031-.028-.01-.021-.01a3.565 3.565 0 0 1-.125-.053l-.028-.013-.003-.002-.03-.014-.056-.027-.006-.004-.028-.014a2.205 2.205 0 0 1-.142-.08l-.026-.016-.037-.025-.033-.021-.035-.024-.021-.016-.067-.05c-.011-.01-.024-.017-.035-.026a2.134 2.134 0 0 1-.074-.062l-.002-.002a1.716 1.716 0 0 1-.069-.063l-.002-.002-.035-.035-.033-.033-.033-.037-.031-.035-.004-.004a2.24 2.24 0 0 1-.15-.195l-.018-.026c-.012-.018-.026-.036-.037-.055l-.034-.052a3.036 3.036 0 0 1-.05-.08l-.035-.057-.028-.049a.823.823 0 0 1-.015-.027l-.016-.027-.008-.014-.006-.01-.029-.055-.014-.023-.013-.025-.012-.026-.026-.05-.013-.026-.026-.055-.007-.021-.034-.074c-.007-.017-.012-.035-.02-.051a2.916 2.916 0 0 1-.054-.149c-.005-.014-.01-.028-.013-.043a1.73 1.73 0 0 1-.057-.222 1.343 1.343 0 0 1-.024-.143 1.894 1.894 0 0 1-.011-.142l-.002-.024-.002-.047c-.008-.632.312-1.24.996-1.924 1.218-1.217 1.928-2.998 1.928-2.998s.018-.076.058-.183l.043-.106c.017-.04.034-.078.053-.117l.006-.012c.025-.049.05-.096.08-.142l.021-.033a.916.916 0 0 1 .129-.16.636.636 0 0 1 .242-.165l.012-.003.024-.008.027-.006.004-.002a.463.463 0 0 1 .058-.008h.034a.53.53 0 0 1 .078.006c.11.017.213.083.303.184l.013.013a.863.863 0 0 1 .13.201l.019.038.007.021c.006.013.013.025.018.04a1.681 1.681 0 0 1 .102.64l-.002.047a1.77 1.77 0 0 1-.114.513l-.02.051a1.834 1.834 0 0 1-.187.342l-.017.023a1.998 1.998 0 0 1-.217.256c-.078.079-.163.15-.252.217-.09.066-.173.14-.25.219-.222.233-.275.44-.225.595a.445.445 0 0 0 .092.15l.008.009.025.021.01.008a.52.52 0 0 0 .192.094l.01.004.011.001.012.004.013.002.012.004.012.002a.552.552 0 0 0 .025.004h.01l.016.002.007.002H21.006l.015.002h.053l.014-.002h.017l.02-.002.02-.004h.013a.745.745 0 0 0 .196-.058l.039-.018a.712.712 0 0 0 .171-.12l.022-.019.01-.01a.894.894 0 0 0 .14-.191c.29-.526.593-1.044.91-1.555l.043-.07.045-.07.067-.104.021-.035.045-.068.18-.276.045-.068c.09-.134.182-.265.271-.389l.045-.06c.097-.135.198-.267.303-.395l.043-.049c.007-.008.012-.017.02-.025l.04-.047a.846.846 0 0 1 .022-.023l.039-.045.02-.022.058-.062.04-.037c.074-.077.156-.148.245-.207l.022-.012.02-.014.04-.023c.175-.1.336-.153.473-.16z"/></svg>
