<svg xmlns="http://www.w3.org/2000/svg" viewBox="0 0 128 128"><path fill="#000b1b" d="M14.406 50.601c-7.06 0-12.788 5.728-12.788 12.788-.001 1.222.202 2.433.546 3.605-.45.064-.897.181-1.2.511-.455.497-.668 1.127-.578 1.755.034.233.129.449.235.658-.24.242-.457.515-.55.868-.077.293-.091.6-.041.898.04.24.15.46.266.672l-.021.037a1.952 1.952 0 0 0-.053 1.716c.374.846 1.27 1.464 2.892 2.107 1.01.4 1.93.654 1.937.656l.004.002.004.002c1.332.346 2.54.523 3.6.523 1.672 0 2.957-.473 3.824-1.38a12.93 12.93 0 0 0 3.99-.024c.865.922 2.157 1.404 3.843 1.404 1.059 0 2.27-.177 3.602-.523l.004-.002.003-.002c.008-.002.925-.255 1.935-.656 1.623-.643 2.519-1.261 2.893-2.107.247-.56.23-1.179-.051-1.714v-.002l-.022-.037c.117-.212.225-.432.265-.672.05-.299.035-.605-.041-.898-.093-.353-.31-.624-.55-.866a2.14 2.14 0 0 0 .234-.66c.09-.628-.122-1.258-.577-1.755-.343-.373-.835-.548-1.354-.577.332-1.153.538-2.34.537-3.54 0-6.983-5.612-12.644-12.567-12.765l-.004-.022zm0 .501c6.789 0 12.287 5.499 12.287 12.287a12.28 12.28 0 0 1-.56 3.678l-.112.364.376-.04c.052-.004.105-.007.155-.007.437 0 .817.164 1.088.46.368.4.521.87.453 1.344v.002c-.032.22-.108.43-.223.62l-.114.186.17.14c.235.19.408.452.494.777a1.649 1.649 0 0 1-.223 1.332l-.09.137.088.137c.022.034.044.07.062.106v.002c.214.405.228.848.038 1.278-.29.655-1.04 1.22-2.619 1.845-.977.387-1.87.636-1.886.64h-.003l-.004.002c-1.297.336-2.467.506-3.467.506-1.66 0-2.844-.451-3.591-1.314l-.092-.108-.14.023a12.439 12.439 0 0 1-4.035.024l-.136-.022-.092.104c-.748.849-1.925 1.293-3.572 1.293-1 0-2.169-.17-3.466-.506l-.008-.002c-.015-.004-.907-.253-1.884-.64h-.002C1.72 75.124.97 74.56.68 73.905a1.425 1.425 0 0 1 .1-1.386l.09-.137-.092-.137a1.652 1.652 0 0 1-.223-1.332c.085-.325.259-.59.493-.78l.17-.137-.113-.188a1.644 1.644 0 0 1-.223-.62c-.069-.474.085-.944.452-1.344.272-.296.654-.46 1.09-.46h.353l-.1-.325a12.287 12.287 0 0 1-.558-3.67c0-6.789 5.498-12.287 12.287-12.287zm-.057.794-.004.001c-5.329.03-9.802 3.689-11.07 8.63-.013.05-.023.102-.035.152-.032.131-.065.262-.092.395l-.002.012c-.038.183-.07.368-.098.554-.015.093-.026.187-.038.28-.012.098-.027.195-.037.294v.006c-.02.191-.033.384-.043.578v.004c-.01.194-.015.39-.015.587V63.538l.001.055v.049l.002.035v.064l.004.07V63.837l.002.062v.004l.006.083v.007l.004.089.006.078v.012l.004.06.006.07v.005l.004.039c.009.11.019.218.031.327v.006l.01.082.01.082v.002l.011.083.012.084v.002l.014.1.008.049.004.02.004.03.003.008.02.126c.037.215.08.428.13.64l.001.012v.004l.137.57.33-.398c.279-.333.67-.513 1.123-.513.237 0 .483.056.735.16.038.017.076.029.115.048h.002c.098.046.196.101.296.164l.002.002c.06.039.125.085.192.141l.002.002.017.016c.2.17.424.409.655.695l.207.257.192-.267v-.002c.067-.092.14-.175.217-.25a1.526 1.526 0 0 1 1.708-.3c.19.089.358.215.507.37.3.31.513.73.629 1.128l.004.016.006.013c.032.077.095.218.184.402.267.55.78 1.48 1.49 2.19 1.324 1.322 1.624 2.583.983 4.014l-.158.352h.362c.047.006.094.01.143.014h.002l.082.008h.004l.068.006h.004l.053.006h.002l.165.011.043.002c.023.002.041.004.057.004v-.002h.004l.064.006h.02l.068.002h.004l.077.004h.002l.06.002h.014l.037.002h.06l.224.002H14.641l.032-.002h.049l.054-.002h.004l.075-.002.088-.004.074-.004.03-.002.064-.004H15.13l.078-.005.083-.006h.002l.072-.006h.012l.041-.004.057-.006h.004c.057-.005.112-.012.168-.018h.006l.106-.011.401-.047v-.002h.004l-.137-.31c-.014-.03-.025-.06-.038-.09a4.035 4.035 0 0 1-.125-.347c-.282-.899-.175-1.739.35-2.58l.003-.001.007-.012c.204-.32.467-.642.794-.967v-.002c.117-.118.23-.241.336-.368l.002-.002c.107-.128.208-.259.304-.39v-.002a9.98 9.98 0 0 0 1.034-1.831l.006-.014.004-.014c.058-.198.14-.403.244-.597.053-.097.113-.193.177-.282.063-.088.131-.172.205-.249l.002-.002c.009-.008.02-.014.028-.023a1.585 1.585 0 0 1 .48-.347 1.495 1.495 0 0 1 .879-.12h.002c.102.017.202.044.298.081h.002c.095.037.186.085.274.141h.002c.175.113.332.265.466.45l.192.267h.002v-.002l.113-.14.092-.113v-.002c.14-.173.273-.32.404-.454a2.79 2.79 0 0 1 .464-.4c.2-.126.396-.22.587-.282.192-.061.379-.091.56-.092h.002l.026.002c.162.003.313.033.456.08.025.01.052.012.077.022h.002c.085.034.166.078.242.127h.002c.077.05.149.11.216.175h.002l.32.311v-.002l.098-.432a8.59 8.59 0 0 0 .018-.079v-.002a15.224 15.224 0 0 0 .092-.464v-.002l.004-.027v-.002l.008-.041v-.002l.016-.085.011-.078.01-.068v-.002l.014-.087v-.002l.012-.078v-.002l.007-.07.008-.061v-.004l.022-.18.007-.083v-.011c.013-.137.026-.275.034-.412l.004-.058.004-.077v-.017l.005-.15V63.779l.002-.047v-.011l.002-.046v-.007l.002-.053V63.389a11.546 11.546 0 0 0-.362-2.871 11.43 11.43 0 0 0-.54-1.602 11.528 11.528 0 0 0-8.274-6.788 11.545 11.545 0 0 0-2.317-.233Zm.059.5c6.074 0 10.992 4.92 10.992 10.993v.147l-.002.053v.059l-.002.015V63.72l-.002.04-.002.025v.006l.002-.006c0 .025-.003.048-.004.072v.002l-.004.069v.013l-.004.079v.007c-.007.13-.017.26-.029.39l-.006.06-.008.077.002-.002-.002.014v.002c-.001.015-.004.03-.006.043v.002l-.013.12-.006.056-.01.069-.002.012v.002l-.008.062v.002l-.002.016-.01.06-.002.007-.01.066-.01.067-.001.01v.002a1.876 1.876 0 0 1-.012.066v.002l-.01.055-.031.172-.022.1a9.95 9.95 0 0 0-.235-.143 1.91 1.91 0 0 0-.497-.221h-.004a1.133 1.133 0 0 0-.27-.035h-.002c-.118 0-.238.01-.357.029-.028.005-.057.016-.086.022-.09.018-.18.037-.27.066-.07.023-.141.055-.211.084-.048.02-.097.035-.143.057-.117.056-.236.121-.351.194a1.96 1.96 0 0 0-.21.157c-.069.058-.14.124-.21.194a8.21 8.21 0 0 0-.418.464 3.295 3.295 0 0 0-.51-.457h-.001a1.582 1.582 0 0 0-.449-.22 1.266 1.266 0 0 0-.162-.038h-.002a2.058 2.058 0 0 0-.547-.012l-.043.008a1.973 1.973 0 0 0-.297.065c-.028.008-.058.014-.085.023-.066.023-.133.05-.195.078-.033.016-.065.034-.096.051-.03.016-.059.029-.087.045l-.002.002a2.303 2.303 0 0 0-.476.378c-.363.377-.603.854-.74 1.308l-.002.002a10.46 10.46 0 0 1-.505.999l-.002.002c-.067.116-.143.24-.221.363l-.12.178c-.043.063-.083.126-.129.19l-.002.004c-.062.085-.13.169-.196.252-.028.036-.055.075-.084.11a5.075 5.075 0 0 1-.307.337 5.889 5.889 0 0 0-.637.752c-.118.17-.222.34-.311.513a3.578 3.578 0 0 0-.3 2.542c.023.097.05.194.08.292.014.043.022.085.038.129l-.08.01c-.009 0-.016 0-.024.002h-.008l-.043.003-.05.006h-.011l-.059.004h-.002l-.074.006-.08.006h-.016l-.023.002-.04.002-.025.002h-.002l-.074.004-.083.004-.078.002-.049.002h-.092c-.016 0-.037 0-.063.002h-.149c-.084 0-.17-.002-.254-.004h-.065l-.059-.002-.074-.004-.07-.002-.016-.002-.065-.004h-.021l-.034-.002h-.002l-.039-.002h-.004l-.154-.012-.057-.003h-.002c-.016-.002-.033-.005-.05-.006.523-1.479.196-2.928-1.121-4.244-.853-.849-1.45-2.159-1.568-2.435-.137-.455-.376-.931-.74-1.308-.372-.385-.886-.662-1.51-.662-.107 0-.213.009-.318.026-.453.07-.807.378-1.124.714a8.262 8.262 0 0 0-.42-.466 3.33 3.33 0 0 0-.208-.196 1.91 1.91 0 0 0-.21-.154h-.002a3.356 3.356 0 0 0-.348-.194h-.002a2.811 2.811 0 0 0-.353-.141 2.332 2.332 0 0 0-.713-.116c-.055 0-.112.004-.164.012-.266.038-.5.168-.719.321a6.816 6.816 0 0 0-.256.19c-.041-.19-.084-.381-.114-.574l-.002-.011-.004-.038c0-.005-.003-.011-.004-.017v-.004l-.002-.008c-.004-.03-.01-.059-.013-.088v-.002c-.008-.054-.013-.105-.02-.159l-.012-.082-.008-.076v-.006a11.323 11.323 0 0 1-.03-.314l-.003-.035-.002-.004v-.004l-.004-.058v-.008l-.004-.055v-.008l-.002-.004v-.01l-.004-.068v-.002a6.748 6.748 0 0 1-.003-.067v-.01l-.006-.082v-.004l-.002-.072v-.022l-.004-.067v-.048l-.002-.05v-.043l-.002-.047v-.149a10.95 10.95 0 0 1 1.083-4.767 10.995 10.995 0 0 1 9.909-6.225zm59.22 4.93c-.51 0-.972.157-1.318.474-.35.31-.534.762-.534 1.253 0 .492.181.947.528 1.267l.004.002.002.002c.348.308.81.457 1.318.457.509 0 .97-.15 1.318-.457l.004-.002.002-.002c.347-.32.529-.775.529-1.267 0-.491-.184-.942-.535-1.253-.346-.317-.808-.474-1.318-.474zm-63.427.478a1.873 1.873 0 0 0-1.809 1.418v.002a1.861 1.861 0 0 0 .936 2.099.562.562 0 0 0 .58-.057c.138-.109.223-.243.307-.364.124-.18.244-.315.306-.337.024-.008.197.024.401.106.13.052.267.113.431.131a.533.533 0 0 0 .272-.035.494.494 0 0 0 .23-.218A1.865 1.865 0 0 0 11 57.982a1.87 1.87 0 0 0-.799-.178zm8.165.002a1.87 1.87 0 0 0-1.724 2.743.49.49 0 0 0 .23.216c.095.041.19.046.272.037.164-.017.3-.08.43-.131.118-.047.215-.094.279-.114.064-.02.07-.017.088-.008l.18.098c.042.057.09.15.163.255.083.121.167.255.305.364.138.109.388.16.582.057.326-.173.592-.44.767-.766.175-.325.251-.695.216-1.063a1.867 1.867 0 0 0-.257-.778 1.87 1.87 0 0 0-.562-.595 1.87 1.87 0 0 0-.97-.315zm55.262.272c.369 0 .617.095.815.278l.002.002.004.002c.193.171.28.368.28.693 0 .324-.089.53-.284.711-.197.173-.447.265-.817.265-.37 0-.618-.092-.815-.265-.195-.182-.285-.387-.285-.71 0-.326.088-.523.282-.694l.002-.002.003-.002c.199-.183.445-.278.813-.278zm-63.427.227a1.373 1.373 0 0 1 1.363 1.23c.027.266-.027.533-.15.77-.004 0 .002-.001-.006-.002a1.599 1.599 0 0 1-.3-.098c-.203-.082-.454-.218-.754-.112l-.166.059v.1c-.147.117-.3.24-.386.366a1.508 1.508 0 0 1-.204.255c-.015.012-.018.018-.017.021a.052.052 0 0 0-.018-.014 1.371 1.371 0 0 1-.417-2.072 1.371 1.371 0 0 1 1.055-.503zm8.145.002a1.363 1.363 0 0 1 .71.231 1.365 1.365 0 0 1 .598 1.003 1.371 1.371 0 0 1-.738 1.353 1.506 1.506 0 0 1-.221-.276c-.048-.07-.1-.177-.186-.288-.07-.091-.207-.165-.355-.205l.026-.016c-.02-.011-.038.004-.059-.004-.019-.004-.023-.024-.043-.026l-.268-.02v.026c-.033.006-.076-.016-.104-.007-.13.039-.231.092-.317.127-.13.052-.247.092-.298.098-.01 0-.004.002-.008.002a1.369 1.369 0 0 1-.15-.77 1.368 1.368 0 0 1 1.413-1.228zm16.818.339v10.967h3.456v-4.054h2.298v4.054h3.455V58.646h-3.455v3.803h-2.297v-3.803zm62.356 0v10.967H100.974v-3.74h3.396v-3.015h-3.396v-1.196h3.962v-3.016zm-61.604.752h1.953v3.803h3.801v-3.803h1.95v9.463h-1.95v-4.054h-3.801v4.054h-1.953zm62.356 0h5.912v1.512h-3.962v2.7h3.396v1.51h-3.396v3.74h-1.95zM6.723 59.5l-.003.074c-.165.033-.336.049-.478.143a1.305 1.305 0 0 0 .468 2.364 1.303 1.303 0 1 0 .254-2.581zm15.176 0-.067.002-.027.004.011.053c-.028.004-.054.019-.082.025a4.765 4.765 0 0 1-.025-.035l-.03.05c-.133.037-.274.04-.391.118a1.312 1.312 0 0 0-.558.83 1.306 1.306 0 0 0 .554 1.34h.002a1.303 1.303 0 0 0 1.803-1.808 1.301 1.301 0 0 0-.826-.552c-.051-.01-.076-.01-.108-.012l-.008-.011-.135-.002h-.004l-.11-.002zm-14.937.503h.018a.806.806 0 0 1 .648.354.804.804 0 0 1-.22 1.11.805.805 0 0 1-.891.002.8.8 0 0 1 .445-1.466zm15.029.006.09.004c.052.003.122.013.084.006a.805.805 0 0 1 .629.94.8.8 0 0 1-1.23.51.808.808 0 0 1-.343-.51.803.803 0 0 1 .121-.601v-.002a.8.8 0 0 1 .222-.22.801.801 0 0 1 .427-.127zm36.239.805a4.67 4.67 0 0 0-1.77.34l-.003.003a3.215 3.215 0 0 0-1.417 1.065h-.002c-.37.494-.547 1.119-.547 1.829 0 .509.122.984.366 1.4l.004.006.004.006c.167.263.384.44.594.629-.172.16-.358.31-.484.507l-.002.004-.004.006c-.187.31-.29.65-.29.994 0 .378.08.724.26 1.015l.006.008.006.007c.088.127.212.22.32.33-.571.413-.968.93-.968 1.562 0 .55.186 1.047.554 1.402l.004.002.002.002c.359.334.824.564 1.373.701l.002.002a6.68 6.68 0 0 0 1.741.216c.965 0 1.814-.123 2.546-.382.727-.257 1.312-.626 1.731-1.116a2.6 2.6 0 0 0 .656-1.737c0-.817-.351-1.503-1.003-1.88-.621-.376-1.445-.54-2.47-.54h-1.176c-.36 0-.607-.043-.7-.08l-.001-.001c-.047-.016-.024.025-.024-.014 0-.032.016-.034.02-.055.23.04.464.085.672.085.624 0 1.206-.095 1.735-.29.54-.2.988-.524 1.316-.96l.002-.002.002-.002c.339-.464.495-1.056.495-1.731 0-.15-.02-.296-.045-.44h1.052v-2.701h-3.263c-.399-.124-.83-.19-1.294-.19zm8.58 0c-.62 0-1.214.114-1.771.34l-.002.003a3.22 3.22 0 0 0-1.42 1.065c-.37.494-.546 1.119-.546 1.829 0 .509.121.984.366 1.4l.004.006.002.006c.167.262.384.44.593.629-.171.16-.356.31-.482.507l-.004.004-.002.006c-.186.31-.29.65-.29.994 0 .378.081.724.261 1.015l.006.008.006.007c.088.127.211.22.32.33-.571.413-.968.93-.968 1.562 0 .55.185 1.047.554 1.402l.002.002.002.002c.359.334.826.564 1.375.701l.002.002a6.68 6.68 0 0 0 1.74.216c.965 0 1.815-.123 2.546-.382.726-.257 1.31-.624 1.728-1.112v-.002c.43-.491.66-1.09.66-1.74 0-.815-.351-1.5-1.001-1.877-.622-.378-1.446-.543-2.471-.543h-1.18c-.36 0-.604-.042-.697-.078l-.002-.002c-.048-.016-.025.025-.025-.014 0-.032.016-.034.02-.055.23.04.466.085.673.085a4.97 4.97 0 0 0 1.733-.29c.541-.2.991-.523 1.318-.96l.002-.002.002-.002c.34-.464.496-1.056.496-1.731 0-.15-.02-.296-.045-.44h1.051v-2.701h-3.262c-.4-.124-.83-.19-1.295-.19zm14.93 0a3.22 3.22 0 0 0-1.597.393c-.254.141-.465.331-.689.506l-.14-.71h-2.885v8.61H79.883v-5.347c.141-.119.282-.238.39-.305.096-.06.23-.1.429-.1.195 0 .248.038.295.102.018.023.114.308.114.78v4.87h3.456v-5.217c0-1.023-.205-1.873-.646-2.53-.449-.695-1.23-1.052-2.181-1.052zm7.322 0a4.67 4.67 0 0 0-1.77.34l-.003.003a3.215 3.215 0 0 0-1.417 1.065h-.002c-.37.494-.547 1.119-.547 1.829 0 .509.122.984.366 1.4l.004.006.004.006c.167.263.384.44.594.629-.172.16-.358.31-.484.507l-.002.004-.004.006c-.187.31-.29.65-.29.994 0 .378.083.724.263 1.015l.003.008.006.007c.088.127.212.22.32.33-.571.413-.968.93-.968 1.562 0 .55.186 1.047.554 1.402l.004.002.002.002c.359.334.824.564 1.373.701l.002.002a6.68 6.68 0 0 0 1.741.216c.965 0 1.814-.123 2.546-.382.727-.257 1.312-.626 1.731-1.116a2.6 2.6 0 0 0 .656-1.737c0-.817-.351-1.503-1.003-1.88-.621-.376-1.445-.54-2.47-.54h-1.176c-.36 0-.607-.043-.7-.08l-.001-.001c-.047-.016-.024.025-.024-.014 0-.032.016-.034.02-.055.23.04.464.085.672.085.624 0 1.206-.095 1.735-.29.54-.2.988-.524 1.316-.96l.002-.002.002-.002c.339-.464.497-1.056.497-1.731 0-.15-.022-.296-.047-.44h1.052v-2.701h-3.263a4.36 4.36 0 0 0-1.294-.19Zm19.804 0c-.64-.001-1.274.095-1.885.284l-.002.002a8.146 8.146 0 0 0-1.763.807l-.307.184 1.29 2.406.331-.178c.395-.213.74-.367 1.026-.462l.004-.002.006-.002c.28-.103.534-.149.766-.149.284 0 .459.059.554.13.02.014.02.057.037.074-1.237.176-2.315.408-2.974.871a2.629 2.629 0 0 0-1.168 2.227c0 .484.11.945.326 1.365.214.42.534.778.928 1.038l.006.004.004.002c.422.26.922.386 1.47.386.48 0 .928-.094 1.328-.288l.002-.002h.002c.235-.117.442-.295.658-.453l.137.555h2.87v-4.746c0-1.343-.298-2.385-.972-3.06-.654-.667-1.575-.993-2.673-.993zm8.834 0c-.798 0-1.552.177-2.244.529a4.35 4.35 0 0 0-1.702 1.545v.002c-.431.676-.64 1.493-.64 2.418 0 .92.183 1.731.566 2.415l.002.004.002.004c.388.661.918 1.18 1.574 1.537.655.356 1.393.533 2.192.533a5.5 5.5 0 0 0 1.416-.2l.004-.002h.004a3.687 3.687 0 0 0 1.435-.805l.23-.206-1.403-2.379-.335.239c-.174.125-.36.235-.554.327-.162.072-.32.106-.484.106-.314 0-.542-.109-.777-.384-.227-.277-.355-.654-.355-1.189 0-.538.124-.913.34-1.177l.001-.002.002-.002c.216-.271.471-.391.885-.391.1 0 .197.017.288.052.075.03.199.103.345.231l.31.27 1.701-2.341-.262-.226a3.873 3.873 0 0 0-2.54-.909zm6.498 0c-.705 0-1.385.188-2.013.554a4.331 4.331 0 0 0-1.547 1.565h-.002c-.395.673-.586 1.474-.586 2.375 0 .921.19 1.735.584 2.419l.002.002v.002a4.033 4.033 0 0 0 1.594 1.539l.002.002c.675.354 1.43.529 2.248.529.485 0 1.004-.086 1.555-.25a5.285 5.285 0 0 0 1.522-.73l.276-.191-1.167-2.13h1.15l.066-.293c.027-.121.046-.277.067-.484v-.002c.033-.237.05-.481.05-.728 0-.746-.134-1.437-.407-2.064a3.354 3.354 0 0 0-1.267-1.532c-.577-.395-1.297-.583-2.127-.583zm-78.603.19v5.215c0 1.024.203 1.883.644 2.55v.002h.002c.46.683 1.238 1.03 2.181 1.03.585 0 1.11-.12 1.553-.378l.004-.002c.247-.14.446-.37.664-.566l.137.758h2.89v-8.61h-3.456v5.298c-.12.163-.24.302-.325.354-.096.06-.23.1-.429.1-.178 0-.239-.038-.3-.111-.019-.03-.111-.304-.111-.77v-4.87zm26.306 0v8.609H75.355v-8.61Zm-13.671.562c.426 0 .806.059 1.14.17l.056.02h2.609v1.196h-1.277l.164.494c.021.063.044.164.063.295l.002.014.004.014c.026.12.037.244.037.376 0 .559-.123.972-.348 1.283h-.002c-.239.317-.553.55-.976.707a4.215 4.215 0 0 1-1.472.242c-.227 0-.494-.03-.797-.1l-.192-.043-.145.132c-.201.184-.31.462-.31.734 0 .293.212.59.476.705l.004.002.004.002c.267.11.582.137.993.137h1.177c.943 0 1.637.161 2.084.433l.003.002.004.004c.437.252.629.601.629 1.23 0 .482-.149.875-.472 1.243l-.002.002-.002.002c-.315.369-.775.673-1.41.897-.63.223-1.395.339-2.295.339a5.921 5.921 0 0 1-1.551-.19l-.004-.002h-.004c-.454-.114-.794-.293-1.042-.523-.216-.21-.323-.466-.323-.858 0-.469.239-.826.899-1.175l.202-.107v-.478l-.153-.114a1.918 1.918 0 0 1-.425-.437c-.09-.148-.147-.342-.147-.61 0-.197.055-.391.178-.6l.002-.002c.142-.22.32-.41.545-.572l.156-.111v-.459l-.168-.111a2.268 2.268 0 0 1-.64-.684 1.945 1.945 0 0 1-.26-1.014c0-.59.136-1.032.395-1.377.284-.376.64-.643 1.092-.818l.004-.002h.002a3.9 3.9 0 0 1 1.493-.288zm8.58 0c.426 0 .803.059 1.137.17l.059.02h2.608v1.196h-1.277l.165.496c.02.062.044.163.063.295l.002.012.002.012c.025.12.039.246.039.378 0 .56-.127.974-.353 1.285v.002a2.069 2.069 0 0 1-.973.703c-.435.16-.924.242-1.473.242-.227 0-.493-.03-.797-.1l-.192-.042-.145.133c-.2.184-.311.46-.311.732 0 .293.214.59.478.705l.004.002.004.002c.266.11.58.137.99.137h1.18c.943 0 1.636.161 2.083.433l.004.002.004.004c.437.252.629.601.629 1.23 0 .482-.15.875-.472 1.243l-.002.002-.002.002c-.315.369-.776.673-1.41.897-.63.223-1.396.339-2.296.339a5.936 5.936 0 0 1-1.553-.19l-.002-.002H65c-.455-.114-.794-.293-1.042-.523-.216-.21-.323-.466-.323-.858 0-.469.238-.826.898-1.175l.2-.107v-.478l-.153-.114a1.908 1.908 0 0 1-.423-.436c-.09-.15-.146-.343-.146-.611 0-.199.055-.393.18-.604.141-.22.32-.408.544-.57l.157-.111v-.459l-.169-.111a2.273 2.273 0 0 1-.638-.68v-.002a1.946 1.946 0 0 1-.262-1.016c0-.59.137-1.032.395-1.377.284-.376.64-.643 1.093-.818l.004-.002h.002c.468-.191.962-.288 1.492-.288zm14.93 0c.784 0 1.246.232 1.552.709l.002.002.002.004c.333.494.52 1.19.52 2.115v4.465h-1.953v-4.119c0-.534-.029-.92-.262-1.232-.204-.271-.55-.401-.9-.401-.303 0-.588.066-.828.215v-.002a4.537 4.537 0 0 0-.617.48l-.125.114v4.945h-1.95v-7.105h1.515l.188.942h.523l.11-.106c.29-.28.618-.522.989-.727h.002l.002-.002c.347-.196.75-.297 1.23-.297zm7.322 0c.426 0 .806.059 1.14.17l.056.02h2.609v1.196H91.59l.164.496c.021.063.044.162.063.293l.002.014.004.014c.026.12.04.244.04.376 0 .559-.126.972-.351 1.283h-.002a2.07 2.07 0 0 1-.976.707 4.215 4.215 0 0 1-1.472.242 3.66 3.66 0 0 1-.797-.1l-.192-.043-.145.132c-.201.184-.31.462-.31.734 0 .293.212.59.476.705l.004.002.004.002c.267.11.582.137.993.137h1.177c.943 0 1.637.161 2.084.433l.004.002.003.004c.437.252.63.601.63 1.23 0 .482-.15.875-.473 1.243l-.002.002-.002.002c-.314.369-.775.673-1.41.897-.63.223-1.395.339-2.295.339a5.921 5.921 0 0 1-1.551-.19l-.004-.002h-.004c-.454-.114-.794-.293-1.042-.523-.216-.21-.323-.466-.323-.858 0-.469.239-.826.899-1.175l.202-.107v-.478l-.153-.114a1.918 1.918 0 0 1-.425-.437c-.09-.148-.147-.342-.147-.61 0-.197.055-.391.178-.6l.002-.002c.142-.22.32-.41.545-.572l.156-.111v-.459l-.168-.111a2.268 2.268 0 0 1-.64-.684 1.947 1.947 0 0 1-.26-1.014c0-.59.138-1.032.397-1.377a2.425 2.425 0 0 1 1.09-.818l.005-.002h.002a3.9 3.9 0 0 1 1.492-.288zm19.804 0c.956 0 1.639.26 2.137.767l.002.002v.002c.477.478.754 1.298.754 2.53v3.994h-1.53l-.188-.754h-.5l-.109.096c-.29.26-.595.47-.918.632h-.002l-.002.002c-.29.14-.616.212-.995.212-.434 0-.78-.093-1.07-.27a1.984 1.984 0 0 1-.669-.75 2.183 2.183 0 0 1-.243-1.023c0-.714.26-1.205.844-1.608l.002-.002c.578-.406 1.617-.723 3.093-.877l.378-.04-.044-.377c-.04-.348-.2-.67-.472-.872-.271-.201-.616-.278-1.002-.278-.334 0-.675.069-1.022.196-.238.08-.516.221-.79.355l-.591-1.103c.424-.23.847-.45 1.273-.583a5.612 5.612 0 0 1 1.664-.251zm8.834 0c.433 0 .81.068 1.138.196h.002c.235.089.419.227.611.356l-.81 1.114c-.074-.044-.144-.115-.222-.145h-.002a1.55 1.55 0 0 0-.558-.103h-.002c-.59 0-1.119.235-1.469.673-.349.428-.509.995-.509 1.651 0 .659.166 1.233.525 1.669l.002.002.002.002c.35.413.833.652 1.355.652.274 0 .545-.06.8-.174l.003-.002.002-.002c.112-.053.213-.126.32-.188l.657 1.114c-.278.204-.557.4-.877.493l-.002.002a4.77 4.77 0 0 1-1.216.173c-.69 0-1.294-.148-1.833-.441a3.272 3.272 0 0 1-1.283-1.257c-.307-.552-.468-1.225-.468-2.043 0-.813.177-1.474.521-2.013a3.563 3.563 0 0 1 1.41-1.283 4.121 4.121 0 0 1 1.904-.446zm6.498 0c.72 0 1.276.158 1.704.452l.004.004.004.002c.453.296.775.684.989 1.197l.002.004.002.002c.229.524.345 1.109.345 1.766 0 .213-.015.42-.044.623l-.002.007v.008c-.006.058-.01.07-.015.118h-4.641l.125.474c.143.537.428.972.852 1.218l.004.002.004.002c.387.212.837.313 1.328.313.46 0 .936-.196 1.413-.411l.55 1.004c-.312.185-.629.366-1.004.478-.496.15-.942.22-1.337.22-.711 0-1.337-.148-1.898-.443h-.002a3.242 3.242 0 0 1-1.295-1.255l-.002-.002c-.316-.552-.481-1.224-.481-2.04 0-.797.164-1.453.481-1.994a3.55 3.55 0 0 1 1.281-1.297 3.175 3.175 0 0 1 1.633-.452zm-77.851.19h1.95v4.118c0 .534.03.92.264 1.232l.004.006.006.004c.21.259.547.391.89.391.303 0 .586-.065.826-.215.234-.147.43-.365.617-.644l.062-.094v-4.798h1.953v7.105h-1.512l-.188-1.036h-.552l-.114.135a3.454 3.454 0 0 1-.95.809l-.002.002H49.6c-.31.18-.694.278-1.177.278-.774 0-1.24-.228-1.557-.696v-.002c-.334-.506-.519-1.208-.519-2.132Zm26.306 0h1.95v7.105h-1.95zm-14.423.85c-.339 0-.666.143-.89.393-.246.267-.334.635-.334 1.052 0 .43.086.804.33 1.08.224.253.554.397.894.397.34 0 .672-.143.895-.396.244-.277.33-.652.33-1.081 0-.417-.09-.785-.336-1.052a1.198 1.198 0 0 0-.89-.393zm8.58 0c-.339 0-.667.144-.89.393-.246.267-.335.634-.335 1.052 0 .43.085.804.33 1.08.222.254.554.397.894.397.34 0 .672-.143.895-.396.244-.277.331-.652.331-1.081 0-.418-.09-.785-.337-1.052a1.199 1.199 0 0 0-.889-.393zm22.252 0c-.338 0-.664.144-.887.393-.247.267-.337.635-.337 1.052 0 .43.086.804.33 1.08.224.254.554.397.894.397.34 0 .672-.143.895-.396.244-.277.33-.652.33-1.081 0-.417-.09-.785-.336-1.052a1.198 1.198 0 0 0-.89-.393zm35.199.252c-.37 0-.725.12-1.016.345-.32.248-.514.63-.61 1.085l-.096.452h3.167v-.376a1.71 1.71 0 0 0-.303-.99c-.233-.36-.666-.516-1.142-.516zm-106.1.202c-.33.022-.656.201-1.064.403l-.047.022c-.748.37-1.707.838-2.724.838-1.018 0-1.978-.468-2.726-.838-.42-.208-.755-.393-1.09-.423-.166-.015-.368.035-.489.184-.12.15-.152.335-.152.556 0 1.023.451 2.608 1.705 3.623l-.004.006.17.125.242.175.004-.01c.62.382 1.398.623 2.34.623 1.009 0 1.829-.277 2.47-.707l.005.01.235-.185.165-.13-.004-.007c1.164-1.018 1.586-2.533 1.586-3.523 0-.217-.03-.4-.145-.548a.564.564 0 0 0-.478-.194zm40.069.298c.162 0 .24.037.33.14l.005.005.003.003c.064.068.136.232.136.545 0 .325-.073.504-.143.583-.092.104-.169.141-.331.141-.163 0-.238-.037-.33-.14H57.9c-.07-.08-.141-.26-.141-.584 0-.313.071-.477.135-.545l.004-.003.002-.004c.09-.104.168-.141.33-.141zm8.58 0c.162 0 .239.037.33.14l.004.005.004.003c.064.068.135.232.135.545 0 .325-.073.504-.143.583-.091.104-.168.141-.33.141-.163 0-.24-.037-.332-.14-.07-.08-.14-.26-.14-.584 0-.313.069-.477.132-.545l.004-.003.004-.004c.091-.104.169-.141.331-.141zm22.252 0c.162 0 .24.037.33.14l.005.005.004.003c.063.068.135.232.135.545 0 .325-.071.504-.141.583h-.002c-.092.104-.169.141-.331.141-.163 0-.238-.037-.33-.14h-.001c-.07-.08-.141-.26-.141-.584 0-.313.071-.477.135-.545l.004-.003.004-.004c.09-.104.166-.141.329-.141zm-70.822.197c.004 0 0 .003.002.006.006.007.04.08.04.241 0 .817-.41 2.145-1.367 3.043a3.065 3.065 0 0 0-1.577-1.167.373.373 0 0 0-.08-.015.413.413 0 0 0-.21.04.608.608 0 0 0-.176.14l-.006.006-.035.043c-.01.012-.022.023-.031.035v.002a1.949 1.949 0 0 0-.063.084c-.036.052-.068.105-.102.157l-.01.014-.05.078a4.64 4.64 0 0 1-.046.067l-.005.01-.008.01c-.03.041-.058.079-.083.107l-.02.02h-.001l-.014-.014-.002-.004a3.068 3.068 0 0 1-.184-.286 2.454 2.454 0 0 0-.22-.325l-.003-.006a.811.811 0 0 0-.067-.07.528.528 0 0 0-.088-.067l-.006-.004-.004-.002a.367.367 0 0 0-.058-.027h-.002l-.014-.004c-.015-.005-.03-.007-.045-.01l-.012-.004h-.004a.36.36 0 0 0-.157.008 3.18 3.18 0 0 0-.297.105 3.114 3.114 0 0 0-.68.392 3.09 3.09 0 0 0-.123.098c-.021.018-.04.038-.06.057a3.067 3.067 0 0 0-.525.609c-1.03-.9-1.477-2.276-1.477-3.12 0-.164.036-.235.04-.24.005-.006-.014-.007.056 0 .14.012.49.165.91.373.748.37 1.781.89 2.95.89 1.168 0 2.199-.52 2.947-.89h.002l.045-.023c.406-.201.744-.344.873-.353.033-.002.044-.004.047-.003zm106.02.055c.339 0 .454.073.516.17l.006.01.006.008c.037.052.032.132.057.19h-1.238c.037-.048.056-.158.098-.19a.85.85 0 0 1 .556-.188zm-14.452 1.702-.43.065c-.668.098-1.157.233-1.506.495l-.004.002-.002.002c-.297.233-.508.551-.508.909 0 .268.11.551.325.72.217.17.486.222.776.222.274 0 .533-.062.752-.202l.008-.004.008-.006c.174-.124.337-.276.49-.452l.092-.106zm-96.195.864.035.047.008.011.033.05.004.003c.028.043.057.091.088.143l.008.012c.031.052.062.105.096.159.004.006.01.012.014.02.032.05.066.1.104.148l.005.006c.02.025.042.051.065.076l.004.004c.024.026.05.053.08.075a.463.463 0 0 0 .053.033h.002l.014.006c.013.006.027.013.041.017h.002c.02.007.04.012.063.016h.002a.462.462 0 0 0 .143 0h.002a.462.462 0 0 0 .121-.037l.002-.002a.46.46 0 0 0 .118-.082.788.788 0 0 0 .094-.096l.005-.008.002-.002c.042-.049.08-.1.116-.153l.008-.012c.035-.051.07-.104.102-.154l.01-.014a2.31 2.31 0 0 1 .176-.247l.129.051c.433.19.765.54 1.044.926-.554.364-1.18.67-2.08.67-.864 0-1.486-.274-2.029-.613.137-.21.268-.427.46-.59a2.69 2.69 0 0 1 .856-.464zm95.443.076v.405a2.11 2.11 0 0 1-.254.235.616.616 0 0 1-.343.083c-.192 0-.287-.042-.311-.061-.025-.02-.037-.02-.037-.13 0-.08.037-.17.213-.31.097-.073.45-.146.732-.222zm-104.244.2a.686.686 0 0 0-.384.106.661.661 0 0 0-.221.246l-.014.022-.01.025a.852.852 0 0 0-.045.124c-.003.013-.01.025-.013.039v.002c-.013.056-.021.114-.026.174l-.002.047a2.198 2.198 0 0 0 .033.435c.016.083.042.164.077.245v.002c.07.162.18.322.31.487.063.08.13.162.203.247l.006.008c.146.171.31.348.48.527.143.15.291.3.438.45l.089.09.015.016c.173.175.342.35.496.511l.01.01c.153.162.291.315.401.448l.004.006c.108.133.187.248.225.323a1.54 1.54 0 0 1-.413-.221 3.864 3.864 0 0 1-.235-.194c-.017-.015-.039-.033-.053-.047l-.127-.121-.006-.006h-.002l-.004-.004-.002-.002s-.091-.082-.245-.216v-.002h-.002l-.147-.123c-.08-.069-.11-.095-.213-.18a18.953 18.953 0 0 0-.578-.462 11.817 11.817 0 0 0-1.104-.774c-.06-.037-.12-.07-.18-.104-.048-.027-.096-.055-.143-.08a4.311 4.311 0 0 0-.347-.168l-.01-.004a2.403 2.403 0 0 0-.325-.112 1.361 1.361 0 0 0-.243-.039c-.011 0-.023-.005-.035-.006l-.03.002-.015-.002c-.013 0-.026.003-.04.004-.028.002-.057.001-.085.006-.021.003-.04.01-.061.016-.025.006-.05.009-.075.017-.027.01-.052.024-.078.037-.018.01-.036.017-.053.028a.58.58 0 0 0-.115.096c-.04.042-.07.089-.1.135-.007.01-.016.02-.022.03-.014.023-.025.047-.037.072-.02.04-.04.08-.055.121l-.013.051a.75.75 0 0 0-.026.141c-.001.02.002.04.002.059 0 .031-.003.063.002.094.002.011.008.022.01.033.002.01 0 .019.002.028.005.022.016.042.023.064.009.026.017.053.028.078a.998.998 0 0 0 .168.269l.033.04c.034.04.07.079.108.116l.008.008.01.008c.03.03.06.06.092.088.037.033.086.067.127.1a4.74 4.74 0 0 0 .392.29c.07.048.15.1.227.149.235.151.517.322.797.49l.094.058.155.094c.081.049.147.088.23.14h.003l.145.09.058.036c.164.101.317.197.447.282l.096.065c.103.07.207.14.288.2.036.026.064.05.096.074.055.043.113.087.156.124.038.031.06.056.088.084.03.03.07.061.09.086.035.04.059.076.071.1v.002a.138.138 0 0 1 .016.053c0 .003-.008.015-.008.02-.032-.012-.074-.03-.114-.048a4.73 4.73 0 0 1-.243-.127l-.139-.076c-.28-.161-.615-.366-.975-.578-.113-.067-.23-.132-.346-.198-.08-.045-.155-.091-.235-.135l-.042-.022a9.396 9.396 0 0 0-.47-.238l-.068-.034a5.68 5.68 0 0 0-.308-.131c-.023-.009-.045-.015-.068-.023-.051-.02-.103-.04-.153-.055l-.02-.006-.017-.004a2.11 2.11 0 0 0-.241-.059h-.006a1.388 1.388 0 0 0-.215-.021l-.03-.002c-.01 0-.02.003-.029.004-.023 0-.046-.003-.069 0-.016.001-.032.01-.049.013a.689.689 0 0 0-.29.102.678.678 0 0 0-.252.35c-.006.017-.013.031-.018.048v.002a.826.826 0 0 0-.021.14c-.001.01-.004.02-.004.03-.002.035.001.07.004.104.002.025.002.051.006.076.004.026.013.05.02.075.008.032.015.064.027.096.007.02.018.039.027.058.01.022.018.046.03.067l.017.025.012.024c.01.016.022.03.033.045.016.023.033.045.051.066.018.022.038.043.057.063.014.015.027.03.041.043.045.044.098.084.149.124.031.024.058.052.092.076.022.015.048.028.07.043.013.008.023.02.036.027.021.014.048.026.07.04.076.046.153.092.235.135l.125.062a11.044 11.044 0 0 0 .682.296l.133.055.353.139c.136.053.265.105.391.157.19.078.363.154.508.229l.064.033c.066.037.128.075.176.11l.006.006a.795.795 0 0 1 .1.082c.01.01.023.021.03.03.01.01.014.018.02.025.005.008.013.018.015.023.003.01.002.018-.002.032-.006.02-.004.012-.002.01a.325.325 0 0 1-.051-.003 1.513 1.513 0 0 1-.403-.13 4.75 4.75 0 0 1-.1-.048c-.204-.1-.432-.225-.674-.358-.473-.26-.956-.54-1.42-.594a1.019 1.019 0 0 0-.311.004.707.707 0 0 0-.355.188l-.023.022a.686.686 0 0 0-.118.155.674.674 0 0 0-.05.475c.012.052.03.101.052.147a1.04 1.04 0 0 0 .179.255v.002c.071.08.154.153.244.225.272.216.622.411 1 .59.125.06.253.116.383.172a20.807 20.807 0 0 0 1.952.7l.143.042c.034.01.026.009.061.018.706.183 1.956.47 3.208.48h.069c.026 0 .051-.004.078-.004.148-.002.295-.006.442-.016.057-.004.112-.01.169-.016.142-.013.282-.032.42-.056.05-.009.098-.016.146-.026a4.58 4.58 0 0 0 .501-.133l.055-.022a3.397 3.397 0 0 0 .411-.178l.057-.027a2.486 2.486 0 0 0 .672-.52l.045-.05c.06-.07.119-.142.172-.22.083-.12.16-.244.233-.372v-.002l.027-.056c.072-.131.14-.261.192-.39l.006-.02c.056-.14.102-.28.133-.419.005-.019.006-.038.01-.057.02-.103.033-.206.04-.309.001-.03.005-.059.005-.088l-.002-.033c0-.064-.002-.127-.008-.19v-.016c-.001-.016-.005-.033-.007-.049-.006-.043-.01-.085-.018-.127l-.014-.061-.011-.043a2.218 2.218 0 0 0-.08-.262 2.646 2.646 0 0 0-.098-.225c-.017-.034-.033-.069-.052-.103a3.028 3.028 0 0 0-.06-.107c-.019-.032-.04-.063-.061-.094a3.95 3.95 0 0 0-.249-.345 5.672 5.672 0 0 0-.411-.458c-1.168-1.167-1.874-2.917-1.876-2.922a2.342 2.342 0 0 0-.204-.501c0-.002-.003-.004-.004-.006l-.015-.032c-.02-.032-.045-.064-.067-.097-.018-.028-.034-.054-.055-.08-.028-.039-.062-.073-.096-.108-.022-.024-.04-.05-.064-.071l-.032-.025c-.008-.007-.014-.015-.023-.022-.01-.008-.024-.014-.035-.021a.87.87 0 0 0-.05-.032c-.02-.011-.039-.023-.06-.033a.789.789 0 0 0-.096-.037l-.033-.012a.707.707 0 0 0-.145-.026h-.008c-.013 0-.026-.003-.04-.003h-.001a.801.801 0 0 0-.116.01c-.25.039-.44.213-.574.428-.033.054-.063.11-.09.17v.003a1.842 1.842 0 0 0-.141.611c-.028.52.158 1.133.672 1.627.073.07.152.139.239.204h.002c.088.066.154.129.21.186l.039.045c.03.035.055.066.074.096.012.018.025.037.033.053.017.034.03.067.034.09v.004a.135.135 0 0 1-.03.107c-.005.006-.014.01-.021.016-.01.01-.02.02-.034.027a.375.375 0 0 1-.129.04c-.006 0-.013.003-.02.004a.53.53 0 0 1-.344-.089c-.015-.01-.03-.02-.045-.033a.532.532 0 0 1-.137-.166A33.11 33.11 0 0 0 6.93 68.42a14.095 14.095 0 0 0-.73-1.034c-.238-.3-.45-.539-.676-.682a1.746 1.746 0 0 0-.462-.211l.002-.037h-.208c-.015-.001-.03-.004-.045-.004zm19.352 0c-.186.002-.385.076-.583.184-.011.006-.022.007-.033.014-.017.009-.035.017-.053.029l-.002.002-.022.014c-.006.004-.013.005-.02.01-.125.079-.249.194-.373.327l-.022.023-.022.024-.04.047-.022.025-.043.047-.026.031-.039.05h-.002c-.013.015-.024.032-.037.048-.017.022-.034.037-.051.059-.044.055-.089.121-.133.18-.03.04-.063.079-.092.12l-.045.06v.002l-.036.051c-.052.073-.104.147-.156.224l-.084.12-.045.07-.042.062c-.032.05-.065.095-.098.145l-.045.07-.043.071-.023.033v.002l-.069.106-.043.07-.045.071c-.101.163-.2.329-.297.494-.059.097-.113.187-.167.28l-.094.164c-.133.232-.272.472-.36.633v.002c-.18.325-.535.328-.682.24-.025-.014-.035-.027-.049-.04a.14.14 0 0 1-.02-.028l-.005-.014a.133.133 0 0 1-.006-.058c0-.01.005-.023.008-.036a.28.28 0 0 1 .013-.039l.018-.035a.895.895 0 0 1 .153-.198c.062-.062.129-.12.2-.172.031-.024.059-.053.09-.079.057-.047.114-.093.164-.143.008-.007.018-.013.026-.021.027-.027.048-.06.074-.088.04-.045.08-.09.116-.135.017-.023.038-.042.054-.065l.02-.025v-.002a2.209 2.209 0 0 0 .213-.388v-.002l.002-.004.02-.049v-.002c.012-.032.019-.066.03-.098a2.067 2.067 0 0 0 .066-.25c.006-.031.01-.06.014-.09.007-.05.018-.1.021-.15l.002-.052V68.25l-.002-.02v-.03a1.871 1.871 0 0 0-.031-.25l-.002-.016-.01-.037a1.666 1.666 0 0 0-.065-.213c-.004-.012-.005-.024-.01-.036v-.002l-.019-.043-.012-.027v-.004c-.007-.017-.016-.03-.021-.041v-.002l-.002-.002a1.387 1.387 0 0 0-.059-.108l-.002-.002a1.12 1.12 0 0 0-.1-.139l-.002-.002-.014-.016-.002-.002c-.02-.022-.042-.042-.064-.062-.01-.01-.02-.022-.032-.032 0 0-.002 0-.003-.002a.822.822 0 0 0-.218-.13c-.015-.007-.03-.01-.045-.015-.03-.01-.06-.022-.092-.027-.027-.004-.053 0-.08-.002-.012 0-.024-.004-.035-.004h-.044l-.043.006a.805.805 0 0 0-.054.008l-.008.002h-.002l-.037.008-.002.002h-.006l-.016.005-.016.004-.013.004-.002.002c-.009.003-.014.009-.022.012a.803.803 0 0 0-.15.076l-.024.014c-.01.006-.02.011-.028.018-.02.015-.032.034-.05.05-.022.02-.048.037-.067.057a1.122 1.122 0 0 0-.061.069l-.016.016a1.693 1.693 0 0 0-.105.15c-.008.012-.013.024-.02.036l-.018.025-.023.045c-.01.02-.022.037-.031.057l-.002.002-.006.014a1.854 1.854 0 0 0-.032.066l-.011.026-.016.037v.002c-.016.039-.033.077-.047.115l-.004.016c-.015.041-.016.043-.025.073-.01.028-.025.077-.028.088l-.088.201-.04.089v.002c-.084.182-.21.437-.371.728v.002c-.08.146-.17.301-.269.46v.002c-.098.16-.206.322-.32.486v.002c-.231.328-.496.656-.788.948v.002l-.035.037a5.617 5.617 0 0 0-.343.38c-.026.032-.054.064-.078.096l-.032.041c-.056.075-.11.15-.158.225l-.018.026c-.045.07-.086.14-.123.211-.013.024-.026.047-.037.07a2.593 2.593 0 0 0-.085.193c-.006.017-.015.033-.021.05a2.298 2.298 0 0 0-.059.187c-.008.03-.018.06-.025.09-.013.055-.023.11-.032.166l-.011.08c-.001.007-.004.013-.004.02-.004.04-.005.08-.006.12-.002.039-.007.077-.006.117a1.52 1.52 0 0 0 .004.068v.014a2.13 2.13 0 0 0 .057.394c0 .004.003.008.004.012l.011.05-.002-.002c.01.039.021.076.034.116.005.02.011.037.015.049.018.054.037.109.057.16l.002.003v.002l.022.05c.01.028.022.057.035.085l.01.02v.001c.008.02.018.038.027.057l.014.027.025.055.016.028.016.031.003.006a1.19 1.19 0 0 1 .042.074l.004.01.011.016.012.021.002.002.02.036.027.047.037.06c.018.03.034.058.053.086l.035.053c.012.019.026.037.04.057v.002l.013.02.004.006.002.002c.048.07.1.136.153.2l.014.017.004.004.037.041.035.04.037.036.002.002.002.002.014.012.004.004.008.01.011.012.08.072.007.006.01.008.023.02.012.01.03.027.005.002.004.003.031.024.072.055h.002l.038.027a.875.875 0 0 0 .025.018l.035.021v.002l.043.028.026.015c.052.033.105.063.159.09l.025.014.008.004h.002l.031.016.01.006.02.01.005.002.006.002a.962.962 0 0 1 .022.01l.004.001.03.014.001.002c.044.02.088.039.133.057h.002l.024.01.027.01.092.033v.002l.032.01.002.002a.82.82 0 0 1 .04.012c-.001 0 0 0 0 0l.052.017h.002l.039.012.006.002.006.002.05.015.046.012.01.004h.001l.045.012.016.004c.035.01.068.016.098.023l.014.002c.015.004.03.009.047.012l.096.02h.006v.002h.002l.052.01h.002l.11.017.002.002c.046.007.092.011.137.018l.035.005.108.014c.055.006.11.01.165.014l.03.002.075.004c.068.004.135.005.202.008.053.001.106.007.159.007h.182c.073 0 .146 0 .22-.004H20.617c.03 0 .058-.004.088-.005.223-.01.443-.03.66-.053l.06-.004h.016l.002-.002c.147-.017.294-.035.44-.057l.015-.002.094-.016c.04-.006.072-.015.111-.021a19.113 19.113 0 0 0 1.486-.315c.034-.009.042-.013.063-.02l.018-.004.127-.037c.122-.037.293-.09.496-.157l.092-.031.113-.037c.056-.02.124-.047.183-.067a18.222 18.222 0 0 0 1.067-.41l.004-.001.178-.08c.086-.039.171-.078.255-.118.017-.008.035-.015.052-.024l.089-.043c.02-.01.038-.022.058-.033.158-.081.312-.164.45-.253a3.38 3.38 0 0 0 .296-.21c.002 0 .003-.002.004-.003.06-.049.12-.098.173-.149.014-.013.024-.029.037-.043.048-.05.095-.102.133-.157l.002-.003c.027-.04.053-.08.074-.124.01-.02.016-.044.024-.066.005-.012.014-.022.018-.034.005-.015.007-.031.011-.047l.002-.01a.669.669 0 0 0 .018-.135v-.027c0-.04-.002-.08-.01-.12-.002-.013-.004-.027-.008-.04a.644.644 0 0 0-.053-.144v-.002l-.005-.01-.018-.029-.002-.004a.774.774 0 0 0-.027-.043h-.002v-.002c-.006-.008-.016-.012-.022-.02a.71.71 0 0 0-.133-.134h-.002l-.006-.006-.004-.002-.018-.014h-.002c-.012-.008-.026-.01-.039-.018a.7.7 0 0 0-.14-.058c-.013-.004-.024-.01-.036-.012-.013-.003-.026-.01-.04-.012a1.02 1.02 0 0 0-.35.006c-.074.011-.148.03-.223.05-.007.003-.014.003-.021.005l-.004.002c-.024.007-.048.017-.07.025a3.808 3.808 0 0 0-.38.153c-.012.005-.023.008-.034.014-.019.008-.037.018-.055.027-.046.022-.09.045-.137.069l-.057.027-.153.08c-.303.162-.599.333-.857.463-.15.075-.282.131-.392.168a.821.821 0 0 1-.221.041v-.002l-.002-.004-.002-.004v-.002c-.005-.016-.006-.016.006-.039a.438.438 0 0 1 .111-.121c.127-.103.356-.222.633-.341h.002c.179-.076.38-.155.585-.235.193-.075.392-.152.59-.233l.082-.033h.002l.08-.036.004-.002.037-.015.087-.037.12-.055h.001l.049-.026c.122-.057.237-.119.349-.182.056-.032.115-.062.168-.096l.008-.006c.092-.06.178-.124.256-.192.02-.016.04-.032.057-.049l.033-.029v-.002h.002l.03-.031.01-.01.023-.026.002-.003c.036-.042.07-.084.1-.13l.002-.002c.024-.036.043-.072.063-.111l.002-.002.021-.05v-.001l.014-.034.002-.004.006-.015v-.004c.005-.017.005-.034.01-.051a.875.875 0 0 0 .023-.13.832.832 0 0 0-.02-.304h-.001v-.005a1.385 1.385 0 0 0-.016-.05h-.002a.798.798 0 0 0-.018-.048v-.002L27.611 71l-.002-.003a.642.642 0 0 0-.44-.374l-.03-.008h-.007l-.018-.004h-.002l-.02-.004h-.027c-.007-.001-.014-.005-.022-.006-.018-.002-.038 0-.056 0-.015 0-.03-.004-.043-.004h-.002l-.036.002a1.33 1.33 0 0 0-.137.01l-.04.008a1.808 1.808 0 0 0-.163.031l-.006.002c-.118.03-.238.07-.363.118l-.02.007-.02.008-.005.002-.006.002-.049.02-.002.002a6.447 6.447 0 0 0-.356.16l-.023.012-.044.022-.072.037c-.03.015-.06.033-.09.049-.123.064-.243.128-.366.198l-.02.01-.11.06-.003.004-.079.049-.059.033-.039.024-.027.015c-.168.099-.34.198-.498.292a15.02 15.02 0 0 1-.885.507c-.077.039-.12.054-.168.07 0-.002-.007-.01-.008-.015v-.002l.004-.017.004-.014.002-.006.002-.004.002-.004c.006-.012.014-.023.021-.035a.523.523 0 0 1 .053-.074l.002-.002.008-.008.026-.028c.088-.094.231-.216.45-.372l.141-.096.059-.039.002-.002.02-.014.062-.04.018-.012.027-.018a6.55 6.55 0 0 1 .067-.043l.002-.002.092-.059h.002l.082-.053.041-.027.274-.169.09-.054c.343-.208.666-.4.96-.58l.002-.002.094-.057a14.621 14.621 0 0 0 .493-.321 6.6 6.6 0 0 0 .276-.2c.029-.021.055-.043.079-.063l.004-.002.004-.003.01-.006v-.002h.001c.036-.03.072-.06.108-.092l.002-.004.016-.014.033-.031c.035-.033.07-.066.102-.1v-.002l.014-.012c.01-.011.017-.026.027-.037.06-.068.115-.137.159-.21l.01-.013.001-.004.016-.028v-.002c.007-.012.012-.026.018-.039a.893.893 0 0 0 .037-.086l.008-.018c.005-.014.005-.03.01-.045.007-.028.017-.055.021-.084.002-.011-.001-.022 0-.033a.74.74 0 0 0 .002-.1c-.001-.028-.001-.055-.006-.082-.002-.019 0-.037-.004-.055-.007-.031-.018-.06-.03-.09l-.001-.006c-.005-.013-.008-.027-.014-.04h.002l-.008-.017-.003-.006c-.014-.029-.031-.055-.047-.082a1.012 1.012 0 0 0-.083-.12c-.019-.024-.035-.05-.057-.074 0-.001-.002 0-.003-.002l-.008-.008-.014-.014-.008-.007h-.002c-.007-.007-.017-.011-.025-.018-.027-.022-.053-.044-.082-.06-.02-.012-.042-.02-.063-.03-.022-.01-.044-.02-.067-.027-.006-.003-.012-.006-.02-.008l-.03-.008-.026-.006h-.01l-.031-.004-.006-.002-.008-.002h-.018l-.047-.002c-.028-.001-.056-.005-.084-.004-.009 0-.018.004-.027.004a1.15 1.15 0 0 0-.09.01l-.032.006a1.507 1.507 0 0 0-.068.014h-.002l-.028.005h-.002c-.007.002-.012.005-.02.006l-.046.012-.006.002-.035.012-.016.006-.043.013h-.002l-.002.002-.059.02-.078.03c-.016.006-.031.008-.047.015a5.54 5.54 0 0 0-.785.427l-.026.016a9.555 9.555 0 0 0-.221.145h-.002l-.035.025-.122.084c-.04.029-.083.052-.123.08-.116.083-.22.166-.331.25l-.002.001-.17.13c-.297.23-.519.41-.72.581-.09.077-.169.147-.234.204l-.016.014-.031.027-.028.023-.002.002-.027.024-.004.004-.09.076-.006.006-.006.006s-.238.246-.493.425c-.128.09-.262.158-.335.174h-.006c.005-.01.008-.022.014-.033.004-.008.012-.017.017-.025.178-.305.804-.936 1.4-1.548l.126-.13.062-.065.063-.065.063-.067.062-.066.06-.063.029-.031v-.002l.117-.127.028-.034.054-.06.002-.002c.071-.082.14-.163.208-.247v-.002l.023-.03c.017-.02.032-.04.047-.06.016-.02.028-.04.043-.06l.002-.001c.024-.03.045-.06.065-.09l.002-.002a1.823 1.823 0 0 0 .25-.486.846.846 0 0 0 .022-.088v-.006l.002-.006v-.006a.75.75 0 0 0 .008-.045v-.002a.824.824 0 0 0 .008-.057l.002-.003v-.004l.004-.036v-.006l.002-.029.002-.01.004-.047.002-.04v-.022l.002-.028v-.006c0-.06-.003-.12-.01-.176l-.008-.049c-.004-.027-.007-.054-.014-.08-.003-.016-.009-.03-.013-.045l-.016-.047a.819.819 0 0 0-.043-.1l-.031-.059a.65.65 0 0 0-.582-.313zm99.545.049h2.718l-.149.082c-.525.291-.995.423-1.42.423-.387 0-.702-.077-.963-.22-.084-.049-.119-.205-.186-.285zm-118.94.46h.004c.017-.001.04.002.063.004a.597.597 0 0 1 .178.045c.055.02.12.052.186.09.02.011.035.017.055.03.06.037.142.11.237.207h.002c.095.098.203.22.313.36.11.14.228.298.347.466.117.168.237.347.356.53.475.73.928 1.521 1.17 1.961.069.128.158.231.258.314.031.027.066.048.1.07.02.013.038.028.058.04.155.086.323.128.488.129l.01.002.013-.002a.94.94 0 0 0 .206-.026l.041-.01c.07-.02.14-.047.202-.084l.002-.002a.64.64 0 0 0 .303-.388c.005-.018.005-.038.008-.056a.612.612 0 0 0 .006-.184c0-.01.002-.018 0-.028-.002-.013-.009-.026-.012-.039a.803.803 0 0 0-.072-.208l-.014-.029a1.172 1.172 0 0 0-.08-.13l-.004-.003a2.298 2.298 0 0 0-.403-.388 1.798 1.798 0 0 1-.578-.695v-.002c-.027-.06-.05-.12-.069-.18v-.002a1.513 1.513 0 0 1-.043-.178v-.002a1.509 1.509 0 0 1-.021-.343v-.002c.006-.11.025-.215.053-.308a1 1 0 0 1 .103-.239c.081-.131.173-.187.226-.195.027-.005.048-.001.07.002.017.002.034.005.05.011.013.005.026.015.038.022.02.011.04.023.06.041.012.01.023.022.034.033a.783.783 0 0 1 .069.079c.016.022.031.046.047.07.014.022.028.042.04.065.059.102.104.208.134.29l.004.011c0 .003.001.002.002.004.026.074.039.128.039.128l.006.015.006.016s.714 1.817 1.987 3.09c.14.139.26.272.365.402.097.12.182.238.252.352.07.113.127.222.173.331l.013.035c.042.106.075.213.094.316v.003c.04.21.036.419-.01.639-.003.017-.005.034-.01.05a2.877 2.877 0 0 1-.178.474c-.03.067-.06.133-.097.202-.069.125-.144.25-.235.384h-.002c-.01.015-.023.029-.034.043a1.868 1.868 0 0 1-.23.263c-.154.145-.331.266-.527.364-.023.011-.044.023-.067.033-.1.047-.205.09-.313.126a3.846 3.846 0 0 1-.463.12l-.084.013a5.145 5.145 0 0 1-.415.057l-.121.01c-.14.01-.282.016-.425.017-.035 0-.07.004-.104.004-.072 0-.144-.004-.216-.006-.083-.002-.167-.005-.25-.01H8.15c-.105-.006-.208-.016-.311-.025l-.08-.006h-.003c-.597-.06-1.17-.165-1.64-.27-.23-.052-.435-.103-.608-.147h-.002c.035.008-.014-.005-.047-.014l-.139-.041a19.114 19.114 0 0 1-1.897-.681l-.079-.036a8.767 8.767 0 0 1-.632-.303 3.87 3.87 0 0 1-.558-.355 1.059 1.059 0 0 1-.284-.31c-.04-.081-.04-.107-.008-.167.037-.07.066-.086.125-.098.012-.003.026-.005.041-.006.022-.003.049-.001.077 0 .27.016.793.26 1.296.536l.03.016.066.035c.22.121.433.238.639.335l.025.014.022.01c.072.033.143.061.213.088.11.044.221.08.33.094.086.013.171.017.261-.004l.006-.002c.024-.006.046-.02.069-.03.018-.008.037-.014.055-.025.014-.008.03-.01.043-.02.021-.014.036-.036.055-.054l.007-.01a.501.501 0 0 0 .134-.223h.002a.587.587 0 0 0-.065-.439l-.008-.01c-.014-.023-.025-.048-.041-.068-.006-.008-.014-.013-.02-.02l-.013-.02c-.017-.018-.04-.033-.057-.05a1.223 1.223 0 0 0-.14-.122c-.026-.02-.056-.038-.085-.057-.031-.02-.058-.041-.09-.06-.02-.012-.043-.022-.063-.034-.014-.007-.025-.016-.04-.023-.025-.014-.055-.026-.082-.04a4.833 4.833 0 0 0-.156-.076c-.067-.03-.136-.063-.208-.094l-.035-.013c-.19-.08-.392-.16-.597-.24-.159-.06-.312-.126-.468-.19-.146-.059-.293-.118-.427-.18a6.562 6.562 0 0 1-.28-.137 3.505 3.505 0 0 1-.153-.086 1.793 1.793 0 0 1-.266-.182c-.024-.02-.05-.04-.07-.059a.855.855 0 0 1-.095-.105c-.014-.019-.034-.038-.045-.055a.404.404 0 0 1-.043-.1c-.004-.012-.012-.025-.014-.037a.342.342 0 0 1 .01-.147v-.002c.019-.07.04-.092.065-.11a.274.274 0 0 1 .133-.031c.016 0 .034 0 .053.002a.884.884 0 0 1 .149.02c.024.004.053.012.08.019.05.012.108.031.164.049.11.036.23.082.355.137.046.02.09.038.137.06.112.054.229.115.347.177l.19.1.003.002c.31.172.627.361.923.538.207.125.398.237.577.34l.053.03.079.042c.07.038.148.084.211.115a2.14 2.14 0 0 0 .32.13c.01.002.02.007.03.01.04.009.084.015.132.015h.004c.018 0 .035 0 .055-.002.023-.003.05-.017.076-.027l.026-.01c.022-.012.044-.022.064-.04.002 0 .002-.004.004-.005a.295.295 0 0 0 .059-.065l.002-.002v-.002l.004-.006c0-.002.002-.004.004-.006.012-.02.02-.045.031-.066.02-.04.044-.077.059-.122a.654.654 0 0 0 .025-.104v-.003c.004-.025.004-.05.004-.077 0-.013.003-.025.002-.039v-.002a.776.776 0 0 0-.206-.454l-.015-.018c-.016-.018-.041-.038-.059-.057a2.306 2.306 0 0 0-.176-.17c-.016-.014-.04-.03-.057-.043a4.681 4.681 0 0 0-.253-.196c-.047-.034-.107-.073-.16-.11-.093-.063-.19-.129-.3-.2l-.135-.084c-.094-.059-.178-.113-.284-.178l-.149-.09c-.25-.15-.454-.277-.675-.411-.22-.133-.439-.267-.621-.386a7.524 7.524 0 0 1-.39-.264c-.053-.04-.1-.078-.147-.116a2.866 2.866 0 0 1-.15-.127 1.534 1.534 0 0 1-.134-.141c-.024-.03-.056-.061-.074-.088l-.02-.031a.432.432 0 0 1-.059-.138.287.287 0 0 1-.003-.06.281.281 0 0 1 .054-.137.822.822 0 0 1 .073-.088.111.111 0 0 1 .049-.032c.009-.002.026-.002.039-.004a.323.323 0 0 1 .057-.004 1.635 1.635 0 0 1 .448.116l.008.004c.102.043.212.097.325.159l.041.023c.089.05.178.103.27.16.047.03.094.064.142.095.199.129.403.266.6.41l.097.073c.213.16.42.322.6.468l.064.053a19.903 19.903 0 0 1 .68.578 4.352 4.352 0 0 0 .342.311l.045.04c.186.148.397.31.654.368.008.002.015.006.023.007.031.007.065.01.098.012.019.001.035.008.053.008a.478.478 0 0 0 .13-.022c.01-.002.022 0 .033-.003.02-.007.037-.022.057-.032a.558.558 0 0 0 .049-.027c.022-.015.044-.027.064-.045a.47.47 0 0 0 .104-.12.405.405 0 0 0 .05-.13v-.003a.492.492 0 0 0-.027-.249 1 1 0 0 0-.045-.107l-.002-.002v-.002a2.313 2.313 0 0 0-.293-.43 9.257 9.257 0 0 0-.427-.473l-.01-.012c-.158-.166-.328-.339-.501-.515l-.014-.016c-.172-.174-.347-.35-.513-.524l-.01-.012a12.533 12.533 0 0 1-.46-.505l-.006-.008a4.366 4.366 0 0 1-.186-.233l-.002-.004c-.168-.229-.274-.423-.29-.51a1.623 1.623 0 0 1-.025-.287c0-.052.004-.097.011-.135l.01-.05a.33.33 0 0 1 .026-.064c.01-.02.02-.03.03-.041.007-.008.015-.019.023-.024a.164.164 0 0 1 .07-.02zm19.42.002c.012 0 .023 0 .032.002.017.003.03.007.041.012.01.004.02.009.028.015l.015.018c.013.015.026.04.038.07.004.012.01.02.013.034.015.05.025.117.024.205v.004c-.001.07-.01.15-.026.241v.008c0 .004 0 .006-.002.01l-.002.006c-.024.118-.204.419-.477.74-.277.326-.638.693-.99 1.05-.178.18-.354.362-.516.532-.165.173-.32.342-.447.5a2.462 2.462 0 0 0-.249.356c0 .001 0 .003-.002.004 0 .001 0 .003-.002.004l-.029.049c-.007.013-.011.031-.018.045h-.002c0 .002 0 .004-.002.006a.733.733 0 0 0-.047.15.41.41 0 0 0 .016.216c.008.027.014.054.03.08a.535.535 0 0 0 .082.104v.002l.002.002c.014.015.032.03.053.045h.002v.002a.5.5 0 0 0 .305.092h.018l.033-.002.027-.004.014-.002c.007 0 .014-.002.022-.004l.007-.002h.01l.006-.002.014-.003.01-.002.023-.006.024-.008a.848.848 0 0 0 .047-.016l.004-.002a1.055 1.055 0 0 0 .123-.053l.006-.002.014-.007h.002l.092-.051v.002c.023-.014.045-.03.068-.045h.002l.016-.012.004-.002.021-.014.012-.008.01-.006.014-.01.027-.019.002-.002c.03-.02.056-.04.08-.059l.002-.002.004-.002.043-.033c.058-.046.113-.091.163-.135l.033-.03.002-.002.018-.015.103-.096.002-.002.014-.012.028-.027.02-.02.001-.002.006-.006.024-.023.002-.002.002-.002.002-.002.003-.002.002-.002.006-.006.028-.024.014-.011.027-.028h.002l.006-.006.01-.008.004-.003a.067.067 0 0 1 .01-.008v-.002l.007-.006c.003-.003.01-.01.014-.012l.031-.027.016-.014.002-.002.229-.196v-.002l.037-.03.06-.05.062-.053v.002c.08-.067.168-.14.26-.214l.059-.047.002-.002.156-.123.061-.047.002-.004h.004l.165-.125v-.002c.125-.095.253-.188.383-.28l.057-.04.016-.011c.116-.08.231-.156.346-.23l.036-.023.033-.021.104-.063.035-.02.069-.04.049-.03.017-.01v.004l.014-.008.053-.03.062-.032.034-.018.031-.016c.07-.035.141-.068.214-.098l.037-.013h-.004a.793.793 0 0 1 .047-.018l.025-.01.034-.01.002-.002h.002l.025-.007c.008-.003.016-.008.024-.01l.017-.006.018-.004.002-.002h.002a.915.915 0 0 1 .178-.031h.032a.38.38 0 0 1 .07.006h.006l.006.002c.002 0-.003 0 .004.002a.113.113 0 0 1 .037.02l.012.007.003.006v.002a.569.569 0 0 1 .102.147l.002.004a.29.29 0 0 1 .012.033l.004.018c.006.03 0 .061-.006.092-.017.081-.081.197-.227.34-.306.3-.91.671-1.65 1.115l-.387.233c-.7.424-1.131.714-1.408.967l-.021.02a1.547 1.547 0 0 0-.051.049v.002l-.014.011-.002.002-.03.03c-.014.015-.033.032-.046.047a.992.992 0 0 0-.169.26l-.004.012-.004.012-.002.002-.006.017-.002.004v.002a.021.021 0 0 1-.003.006l-.002.008a.621.621 0 0 0-.014.053c-.003.012-.008.023-.01.035v.002l-.002.012-.002.016-.002.025v.059l.002.02.002.02c0 .01 0 .014.002.022v.01l.004.024a.461.461 0 0 0 .008.033l.006.02.002.004v.002l.006.015.005.016c.003.006.004.013.006.02a.05.05 0 0 0 .004.007l.006.012.002.006v.002l.002.004a.799.799 0 0 0 .04.078v.002l.01.018.01.021.017.024v.002c.006.01.017.023.029.037l.004.006.01.01.017.017.022.016h.002a.35.35 0 0 0 .035.022l.008.005.01.004c-.005-.002.003.004.027.012h.002l.03.008.003.002h.002c.143.032.231-.006.333-.043a2.79 2.79 0 0 0 .335-.155l.043-.023.073-.04.033-.02.08-.044.05-.028c.314-.18.683-.41 1.06-.63l.028-.016.078-.045.006-.004.002-.002c.082-.047.161-.095.243-.14.068-.039.138-.074.208-.11.242-.13.476-.247.687-.331l.008-.004c.039-.016.07-.022.108-.036.095-.033.19-.064.27-.082.074-.016.141-.025.196-.027.02-.001.04-.003.056-.002.017 0 .034.001.05.004h.003c.006 0 .01.002.016.004h.002l.004.002h.002c.004 0 .01.003.016.005l.003.002h.004l.004.002.004.002.002.002a.12.12 0 0 1 .045.04h.002v.004l.004.004a.146.146 0 0 1 .012.023h.002v.002a.31.31 0 0 1 .008.02c.002.009.005.014.007.025v.002c.013.05.013.09.008.131-.001.013-.002.027-.006.04a.424.424 0 0 1-.056.125 1.278 1.278 0 0 1-.378.339c-.002 0-.004.002-.006.004-.044.028-.098.054-.147.082-.08.045-.162.09-.25.133-.308.148-.665.288-1.017.425l-.057.023c-.049.02-.095.036-.143.055l-.024.01-.125.05c-.012.006-.025.01-.037.015l-.078.031-.016.006a5.57 5.57 0 0 0-.7.327l-.052.035-.067.045a1.427 1.427 0 0 0-.258.225c-.008.01-.02.016-.028.026a.64.64 0 0 0-.121.292c-.002.017-.005.033-.006.05a.536.536 0 0 0 0 .065c0 .01.003.021.004.032.003.025.003.05.01.076l.002.002.006.016.008.021c.005.018.016.032.023.05.007.012.01.027.018.04.005.01.009.022.015.032a.465.465 0 0 0 .267.191c.01.004.019.01.029.012a.65.65 0 0 0 .141.016l.016.002c.012 0 .023-.003.035-.004a1.296 1.296 0 0 0 .282-.057h.002l.068-.021.061-.024.004-.002.041-.016.002-.002.024-.007v-.002l.013-.006c.03-.012.059-.026.089-.04.024-.01.047-.02.072-.033l.047-.021.004-.002.063-.033c.17-.086.347-.184.526-.282a17.452 17.452 0 0 1 .674-.353l.067-.031c.207-.096.403-.166.55-.194h.008a.732.732 0 0 1 .162-.012c.018.002.04.003.053.006.003 0 .005.003.008.004a.204.204 0 0 1 .049.02l.004.001c.008.006.014.015.021.022.013.014.026.027.04.053a.152.152 0 0 1 .021.07c0 .006-.003.014-.004.02a.24.24 0 0 1-.025.076c-.002.003-.005.005-.006.008a.66.66 0 0 1-.096.133l-.006.006a1.509 1.509 0 0 1-.176.163 3.052 3.052 0 0 1-.268.184 5.29 5.29 0 0 1-.355.203 9.09 9.09 0 0 1-.646.308c-.222.095-.446.181-.664.262-.076.029-.148.054-.221.08a20.677 20.677 0 0 1-1.152.378l-.047.014h-.002c-.282.074-.665.16-1.085.241-.11.021-.213.043-.329.063a9.86 9.86 0 0 1-1.63.16l-.04.002a7.197 7.197 0 0 1-.365-.007l-.105-.004a5.737 5.737 0 0 1-.382-.036h-.008c-.692-.088-1.308-.31-1.731-.728l-.002-.002a1.872 1.872 0 0 1-.223-.27l-.002-.002-.004-.008-.012-.016a4.656 4.656 0 0 1-.243-.401l-.002-.002-.002-.004-.01-.018-.006-.01-.007-.015a2.873 2.873 0 0 1-.155-.357l-.022-.06c-.005-.017-.01-.029-.011-.036v-.002c-.01-.03-.02-.063-.028-.094l-.016-.07a1.786 1.786 0 0 1-.02-.098v-.002l-.005-.04c0-.005-.003-.013-.004-.019v-.004l-.002-.02a1.68 1.68 0 0 1-.01-.12v-.005l-.002-.027v-.012l.002-.033c0-.049.001-.097.006-.145.004-.035.012-.07.018-.104.005-.033.01-.068.017-.102l.024-.08a1.76 1.76 0 0 1 .114-.298c.021-.045.044-.09.07-.137.015-.026.03-.052.047-.078.02-.034.042-.067.065-.102.142-.212.327-.433.564-.67.636-.636 1.133-1.41 1.47-2.023.339-.613.517-1.067.517-1.067l.006-.016.004-.015s.015-.06.051-.157c.027-.074.068-.166.118-.256.008-.017.018-.033.027-.05.027-.044.056-.089.086-.127l.004-.004a.647.647 0 0 1 .082-.084.373.373 0 0 1 .106-.066l.006-.002.002-.002.008-.002.004-.002h.002a.224.224 0 0 1 .078-.004.231.231 0 0 1 .106.045c.007.005.014.013.021.02a.55.55 0 0 1 .108.127l.002.002h.002v.002c.036.059.068.134.094.215.01.028.018.057.025.086.006.023.012.045.016.069a1.453 1.453 0 0 1 .012.419c-.005.043-.01.087-.018.13l-.021.09c-.01.036-.021.071-.034.107-.013.04-.027.08-.045.121-.01.024-.023.047-.035.07-.021.043-.04.086-.066.128l-.008.012a1.718 1.718 0 0 1-.216.272c-.015.016-.027.032-.043.047-.049.049-.104.091-.158.135-.02.016-.037.034-.057.05a2.282 2.282 0 0 0-.265.232l-.013.012h-.002v.002c-.01.01-.015.02-.024.03-.053.057-.1.115-.139.174l-.01.015a.938.938 0 0 0-.094.202l-.005.018c-.012.037-.028.074-.034.111-.003.02.001.038 0 .057-.002.029 0 .056.002.084.003.035.006.069.014.102.004.017.002.036.008.053v.002h.002c.009.026.018.055.031.082l.002.002.002.002c.03.059.068.115.116.163l.01.01.001.002a.728.728 0 0 0 .04.035l.013.01.004.003c.018.014.038.026.057.038.006.004.011.01.018.013.004.003.01.004.015.006l.01.008c.003.002.016.01.03.016h.001l.006.004c.02.009.04.013.06.021.022.01.044.02.068.028.004 0 .008.002.011.004h.002l.012.002.014.003.02.006.015.004.018.002.013.004a.814.814 0 0 0 .038.006c.02.003.039.002.058.004l.014.002h.016l.015.002h.061c.025 0 .051-.003.077-.006.007 0 .015-.003.023-.004l.016-.002c.004 0 .007-.003.011-.004.084-.013.167-.035.247-.07l.004-.002.014-.006.035-.016.002-.002a1 1 0 0 0 .1-.057l.002-.002.025-.02c.024-.016.047-.033.069-.052.01-.009.022-.017.031-.026l.002-.002.026-.023.002-.002.01-.01.007-.008c.016-.016.03-.033.045-.05l.002-.003.022-.025c.04-.051.076-.105.108-.163.186-.339.38-.673.58-1.006.17-.287.353-.589.546-.887l.105-.16a17.432 17.432 0 0 1 .33-.485c.079-.111.156-.215.232-.315.035-.044.069-.09.104-.133.212-.264.412-.466.527-.539l.002-.002c.06-.038.115-.062.166-.086l.063-.03a.8.8 0 0 1 .118-.034l.035-.008a.419.419 0 0 1 .086-.006zM57.052 69.1l-.155.154c-.233.233-.394.517-.394.83 0 .393.289.748.66.9l.002.001h.002c.355.14.771.2 1.254.2.478 0 .897-.075 1.255-.24h.002c.179-.079.337-.178.458-.322a.853.853 0 0 0 .2-.538.805.805 0 0 0-.141-.474.768.768 0 0 0-.415-.278c-.239-.07-.518-.094-.872-.094h-.613c-.306 0-.539-.012-.677-.03l-.01-.002h-.012a1.738 1.738 0 0 1-.335-.05zm8.58 0-.155.154c-.233.233-.394.517-.394.83 0 .393.287.748.658.9l.002.001h.004c.354.14.77.2 1.253.2.478 0 .897-.075 1.255-.24h.002c.179-.079.337-.178.459-.322a.853.853 0 0 0 .2-.538.805.805 0 0 0-.142-.474.769.769 0 0 0-.415-.278c-.238-.07-.52-.094-.873-.094h-.613c-.306 0-.537-.012-.676-.03l-.011-.002h-.01a1.738 1.738 0 0 1-.335-.05zm22.252 0-.155.154c-.233.233-.394.517-.394.83 0 .393.289.748.66.9l.002.001h.002c.355.14.771.2 1.254.2.478 0 .897-.075 1.255-.24h.002c.179-.079.337-.178.458-.322a.853.853 0 0 0 .2-.538.805.805 0 0 0-.14-.474.768.768 0 0 0-.416-.278c-.239-.07-.518-.094-.872-.094h-.613c-.306 0-.538-.012-.677-.03l-.01-.002h-.012a1.739 1.739 0 0 1-.335-.05zm-30.537.826c.065.009.123.025.192.03l.008.001c.194.023.435.034.748.034h.613c.316 0 .547.028.664.062h.002l.002.002c.032.01.016.006.008-.006-.008-.011 0-.013 0 .036 0 .026.003.026-.02.053a.546.546 0 0 1-.192.12l-.005.003-.004.002c-.228.106-.541.17-.942.17-.418 0-.745-.056-.978-.147-.188-.077-.188-.092-.188-.201 0-.034.064-.106.092-.159zm8.578 0c.064.009.12.025.19.03l.01.001c.194.024.434.034.748.034h.613c.315 0 .547.028.664.062h.004l.002.002c.032.01.016.006.007-.006-.008-.011 0-.013 0 .036 0 .026.001.026-.021.053a.53.53 0 0 1-.19.12l-.006.003-.006.002c-.228.106-.539.17-.94.17-.418 0-.745-.056-.977-.147-.189-.077-.188-.092-.188-.201 0-.034.061-.106.09-.159zm22.255 0c.064.009.12.025.19.03l.01.001c.193.024.434.034.747.034h.613c.316 0 .547.028.664.062h.002l.002.002c.032.01.016.006.008-.006-.008-.011 0-.013 0 .036 0 .026.003.026-.02.053a.546.546 0 0 1-.191.12l-.006.003-.004.002c-.228.106-.541.17-.942.17-.418 0-.745-.056-.977-.147-.189-.077-.188-.092-.188-.201 0-.034.063-.106.092-.159z"/></svg>
