<svg xmlns="http://www.w3.org/2000/svg" viewBox="0 0 128 128"><path fill="#000b1b" d="M36.163 69.158V58.971h2.696v3.793h3.04V58.97h2.696v10.187H41.9v-4.043h-3.041v4.043zm12.847.189c-.857 0-1.479-.288-1.866-.862-.386-.586-.58-1.364-.58-2.336v-4.827h2.696v4.482c0 .502.063.836.189 1.003.135.168.334.251.595.251.25 0 .46-.052.627-.157.167-.104.334-.282.502-.532v-5.047h2.696v7.836h-2.195l-.188-1.034h-.063a3.827 3.827 0 0 1-1.05.893c-.376.22-.83.33-1.363.33zm9.531 3.04a6.284 6.284 0 0 1-1.646-.203c-.501-.126-.903-.33-1.206-.612-.293-.282-.44-.658-.44-1.128 0-.617.366-1.118 1.098-1.505v-.063a2.282 2.282 0 0 1-.517-.533c-.136-.219-.204-.49-.204-.815 0-.271.078-.538.235-.799a2.46 2.46 0 0 1 .643-.674v-.063a2.645 2.645 0 0 1-.753-.799 2.334 2.334 0 0 1-.313-1.207c0-.648.156-1.18.47-1.598a2.815 2.815 0 0 1 1.254-.94 4.273 4.273 0 0 1 1.63-.314c.46 0 .878.062 1.254.188h2.915v1.943h-1.128c.03.094.057.214.078.36.031.147.047.298.047.455 0 .617-.141 1.118-.423 1.505a2.453 2.453 0 0 1-1.144.83 4.58 4.58 0 0 1-1.6.267c-.26 0-.553-.036-.877-.11a.587.587 0 0 0-.188.455c0 .167.084.287.25.36.178.073.46.11.847.11H60c.982 0 1.74.162 2.272.486.544.313.815.83.815 1.552 0 .564-.188 1.06-.564 1.489-.366.428-.888.762-1.567 1.003-.68.24-1.484.36-2.414.36zm.25-7.304c.252 0 .455-.088.612-.266.157-.178.235-.455.235-.83 0-.367-.078-.633-.235-.8a.777.777 0 0 0-.611-.267.777.777 0 0 0-.611.267c-.157.167-.235.433-.235.8 0 .375.078.652.235.83.156.178.36.266.61.266zm.189 5.643c.439 0 .805-.068 1.097-.204.293-.125.439-.298.439-.517 0-.21-.094-.34-.282-.392-.178-.052-.434-.078-.768-.078h-.611c-.314 0-.554-.01-.721-.032a2.086 2.086 0 0 1-.408-.062c-.188.188-.282.376-.282.564 0 .25.141.433.423.548.293.115.664.173 1.113.173zm8.117 1.661a6.283 6.283 0 0 1-1.645-.203c-.502-.126-.904-.33-1.207-.612-.293-.282-.44-.658-.44-1.128 0-.617.367-1.118 1.098-1.505v-.063a2.278 2.278 0 0 1-.517-.533c-.136-.219-.204-.49-.204-.815 0-.271.078-.538.235-.799.167-.261.381-.486.643-.674v-.063a2.645 2.645 0 0 1-.753-.799 2.334 2.334 0 0 1-.313-1.207c0-.648.157-1.18.47-1.598a2.814 2.814 0 0 1 1.254-.94 4.272 4.272 0 0 1 1.63-.314c.46 0 .878.062 1.254.188h2.915v1.943H70.39c.031.094.057.214.078.36.031.147.047.298.047.455 0 .617-.141 1.118-.423 1.505a2.453 2.453 0 0 1-1.144.83 4.58 4.58 0 0 1-1.599.267c-.261 0-.554-.036-.878-.11a.588.588 0 0 0-.188.455c0 .167.084.287.251.36.178.073.46.11.846.11h1.176c.982 0 1.74.162 2.273.486.543.313.815.83.815 1.552 0 .564-.189 1.06-.565 1.489-.365.428-.888.762-1.567 1.003-.68.24-1.484.36-2.414.36zm.251-7.304c.25 0 .455-.088.611-.266.157-.178.235-.455.235-.83 0-.367-.078-.633-.235-.8a.777.777 0 0 0-.611-.267.777.777 0 0 0-.611.267c-.157.167-.235.433-.235.8 0 .375.078.652.235.83.156.178.36.266.611.266zm.188 5.643c.439 0 .805-.068 1.097-.204.293-.125.44-.298.44-.517 0-.21-.095-.34-.283-.392-.178-.052-.434-.078-.768-.078h-.611a6.21 6.21 0 0 1-.721-.032 2.086 2.086 0 0 1-.408-.062c-.188.188-.282.376-.282.564 0 .25.141.433.423.548.293.115.664.173 1.113.173zm5.265-1.568v-7.836h2.696v7.836zm1.348-8.808c-.439 0-.794-.12-1.066-.36-.272-.251-.408-.58-.408-.988 0-.407.136-.731.408-.972.272-.25.627-.376 1.066-.376.439 0 .794.125 1.066.376.271.24.407.565.407.972 0 .408-.136.737-.407.988-.272.24-.627.36-1.066.36zm3.167 8.808v-7.836h2.194l.188.94h.063a5.012 5.012 0 0 1 1.066-.784c.407-.23.878-.344 1.41-.344.868 0 1.49.292 1.866.877.386.575.58 1.348.58 2.32v4.827h-2.696v-4.482c0-.502-.063-.836-.188-1.003-.126-.168-.324-.251-.596-.251-.25 0-.46.052-.627.157-.167.104-.355.25-.564.439v5.14zm11.975 3.23a6.284 6.284 0 0 1-1.646-.204c-.501-.126-.903-.33-1.206-.612-.293-.282-.44-.658-.44-1.128 0-.617.366-1.118 1.098-1.505v-.063a2.282 2.282 0 0 1-.517-.533c-.136-.219-.204-.49-.204-.815 0-.271.078-.538.235-.799a2.46 2.46 0 0 1 .643-.674v-.063a2.645 2.645 0 0 1-.753-.799 2.336 2.336 0 0 1-.313-1.207c0-.648.157-1.18.47-1.598a2.815 2.815 0 0 1 1.254-.94 4.273 4.273 0 0 1 1.63-.314c.46 0 .878.062 1.254.188h2.915v1.943h-1.128c.03.094.057.214.078.36.031.147.047.298.047.455 0 .617-.141 1.118-.423 1.505a2.454 2.454 0 0 1-1.144.83 4.58 4.58 0 0 1-1.599.267c-.261 0-.554-.036-.878-.11a.587.587 0 0 0-.188.455c0 .167.084.287.251.36.178.073.46.11.846.11h1.176c.982 0 1.74.162 2.273.486.543.313.815.83.815 1.552 0 .564-.189 1.06-.565 1.489-.365.428-.888.762-1.567 1.003-.68.24-1.484.36-2.414.36zm.251-7.305c.25 0 .455-.088.611-.266.157-.178.235-.455.235-.83 0-.367-.078-.633-.235-.8a.777.777 0 0 0-.611-.267.777.777 0 0 0-.611.267c-.157.167-.235.433-.235.8 0 .375.078.652.235.83.156.178.36.266.611.266zm.188 5.643c.439 0 .805-.068 1.097-.204.293-.125.439-.298.439-.517 0-.21-.094-.34-.282-.392-.178-.052-.434-.078-.768-.078h-.611c-.314 0-.554-.01-.721-.032a2.084 2.084 0 0 1-.408-.062c-.188.188-.282.376-.282.564 0 .25.141.433.423.548.293.115.664.173 1.113.173zm8.622-1.568V58.971h6.645v2.257h-3.95v1.943h3.386v2.257h-3.385v3.73zm9.594.189c-.492 0-.915-.11-1.27-.33a2.35 2.35 0 0 1-.8-.893 2.565 2.565 0 0 1-.281-1.191c0-.815.334-1.453 1.003-1.912.668-.47 1.755-.784 3.26-.94-.063-.544-.429-.816-1.097-.816-.283 0-.58.058-.894.173a7.03 7.03 0 0 0-1.081.485l-.94-1.755a7.75 7.75 0 0 1 1.676-.768 5.97 5.97 0 0 1 1.771-.266c1.024 0 1.824.292 2.399.877.574.575.862 1.505.862 2.79v4.357h-2.195l-.188-.752h-.062a4.517 4.517 0 0 1-1.004.69c-.344.167-.73.25-1.16.25zm.94-2.07c.22 0 .402-.046.549-.14a2.45 2.45 0 0 0 .423-.392v-1.066c-.638.094-1.082.235-1.332.423-.24.188-.361.392-.361.611 0 .377.24.565.721.565zm8.967 2.07c-.741 0-1.41-.163-2.006-.486a3.657 3.657 0 0 1-1.426-1.395c-.345-.617-.517-1.359-.517-2.226s.193-1.604.58-2.21a3.947 3.947 0 0 1 1.551-1.41 4.5 4.5 0 0 1 2.069-.486 3.482 3.482 0 0 1 2.288.815l-1.253 1.724a1.596 1.596 0 0 0-.455-.298 1.166 1.166 0 0 0-.423-.078c-.502 0-.894.177-1.176.533-.282.344-.423.814-.423 1.41s.146 1.071.439 1.426c.293.345.648.518 1.066.518.22 0 .433-.047.642-.142.215-.1.42-.222.612-.36l1.034 1.755a3.284 3.284 0 0 1-1.285.721 5.13 5.13 0 0 1-1.317.189zm7.013 0c-.763 0-1.453-.163-2.07-.486a3.628 3.628 0 0 1-1.441-1.395c-.355-.617-.533-1.359-.533-2.226 0-.846.178-1.572.533-2.179a3.93 3.93 0 0 1 1.41-1.426 3.56 3.56 0 0 1 1.819-.501c.773 0 1.41.172 1.912.517.512.334.888.789 1.128 1.363a4.73 4.73 0 0 1 .376 1.913c0 .23-.015.454-.047.674-.02.209-.042.36-.062.454h-4.467c.125.47.35.8.674.987.324.178.705.267 1.144.267.501 0 1.034-.157 1.599-.47l.877 1.598a4.891 4.891 0 0 1-1.41.674 5.05 5.05 0 0 1-1.442.236zm-1.474-5.047h2.32c0-.303-.078-.565-.235-.784-.146-.23-.423-.345-.83-.345-.293 0-.554.089-.784.267-.23.177-.387.465-.47.862z"/><path fill="#fff" d="M30.368 70.652c-.079-.3-.208-.585-.38-.843.037-.135.065-.273.084-.413.122-.884-.184-1.693-.762-2.32a2.662 2.662 0 0 0-1.004-.706 13.406 13.406 0 0 0 .197-5.096 13.484 13.484 0 0 0-.903-3.194 13.606 13.606 0 0 0-4.353-5.55 13.412 13.412 0 0 0-8.06-2.675c-7.442 0-13.473 6.031-13.473 13.472 0 1.037.12 2.071.358 3.081-.32.139-.626.355-.91.668-.577.626-.884 1.433-.761 2.317.018.14.046.28.084.416a2.812 2.812 0 0 0-.381.843c-.178.674-.12 1.283.106 1.816a2.672 2.672 0 0 0 .136 2.084c.232.472.565.836.974 1.162.487.387 1.097.717 1.833 1.032.878.374 1.95.726 2.436.855 1.259.326 2.466.533 3.689.543 1.742.016 3.243-.394 4.317-1.443a13.05 13.05 0 0 0 1.591.097 13.874 13.874 0 0 0 1.68-.106c1.072 1.056 2.579 1.47 4.328 1.453 1.223-.01 2.43-.217 3.685-.543.49-.13 1.561-.48 2.44-.855.735-.316 1.345-.645 1.835-1.032.407-.326.74-.69.972-1.162.322-.645.38-1.387.138-2.084.224-.533.282-1.143.104-1.817zm-1.248 1.77c.247.47.263 1 .045 1.494-.331.748-1.153 1.338-2.749 1.97-.992.394-1.901.646-1.91.648-1.312.34-2.5.513-3.527.513-1.702 0-2.968-.47-3.771-1.397a12.65 12.65 0 0 1-4.106.024c-.804.912-2.063 1.373-3.75 1.373-1.028 0-2.215-.172-3.528-.513-.008-.002-.917-.254-1.91-.648-1.595-.632-2.417-1.221-2.748-1.97a1.683 1.683 0 0 1 .118-1.62 1.895 1.895 0 0 1-.255-1.53c.098-.374.3-.684.576-.907a1.889 1.889 0 0 1-.256-.713c-.079-.55.103-1.099.514-1.546.32-.348.771-.54 1.271-.54h.014a12.497 12.497 0 0 1-.568-3.734c0-6.905 5.599-12.504 12.505-12.504 6.907 0 12.505 5.598 12.505 12.504 0 1.27-.192 2.532-.571 3.744a1.699 1.699 0 0 1 1.449.53c.41.447.593.997.513 1.546a1.888 1.888 0 0 1-.256.714c.276.222.479.533.577.906a1.897 1.897 0 0 1-.256 1.53c.026.04.051.083.074.127z"/><path fill="#ffa502" d="M15.085 50.822c-6.906 0-12.505 5.599-12.505 12.505-.001 1.266.19 2.525.567 3.733h-.013c-.5 0-.952.192-1.271.54-.41.447-.593.996-.514 1.546.036.252.123.495.256.713a1.713 1.713 0 0 0-.577.907 1.895 1.895 0 0 0 .256 1.53 1.683 1.683 0 0 0-.118 1.62c.33.749 1.153 1.338 2.749 1.97.992.395 1.901.646 1.909.648 1.313.341 2.5.514 3.527.514 1.688 0 2.947-.462 3.751-1.374a12.65 12.65 0 0 0 4.106-.023c.803.927 2.07 1.397 3.771 1.397 1.028 0 2.215-.173 3.528-.514.008-.002.916-.253 1.91-.647 1.595-.633 2.417-1.222 2.748-1.97a1.683 1.683 0 0 0-.119-1.62 1.897 1.897 0 0 0 .256-1.53 1.714 1.714 0 0 0-.577-.907c.133-.219.22-.461.256-.714.08-.55-.103-1.098-.513-1.545a1.699 1.699 0 0 0-1.272-.54c-.058 0-.117.003-.177.009a12.5 12.5 0 0 0 .57-3.743c0-6.906-5.599-12.505-12.504-12.505zm.002 1.292c6.193 0 11.213 5.02 11.213 11.213v.145c0 .024 0 .048-.002.072l-.001.06c0 .018 0 .035-.002.053 0 .022 0 .045-.002.067v.002c-.001.05-.004.099-.006.148v.016l-.004.073-.004.058c-.008.138-.019.276-.032.413v.002a5.075 5.075 0 0 1-.008.078l-.02.18-.007.06-.01.07a4.905 4.905 0 0 1-.01.078l-.013.086-.01.068-.012.077-.013.076-.014.077a15.017 15.017 0 0 1-.107.53 1.688 1.688 0 0 0-1.194-.474c-.418 0-.848.139-1.279.412-.285.181-.601.502-.926.906-.301-.417-.722-.695-1.204-.77a1.82 1.82 0 0 0-.278-.023c-1.1 0-1.763.955-2.013 1.814-.125.29-.72 1.612-1.618 2.508-1.365 1.361-1.71 2.764-1.044 4.266l-.064.007-.107.013-.17.017-.056.005-.05.004-.073.006-.08.005-.078.006h-.018l-.063.005h-.026l-.074.005-.086.003-.078.003-.052.001h-.027l-.048.001h-.026l-.049.001-.066.001h-.093c-.072 0-.145 0-.217-.002l-.058-.001-.05-.002-.062-.002-.078-.003-.069-.003h-.018l-.066-.004-.055-.003-.043-.003a11.338 11.338 0 0 1-.161-.01l-.056-.005-.071-.007-.083-.007a7.701 7.701 0 0 1-.14-.015h-.001c.676-1.508.334-2.917-1.032-4.282-.896-.895-1.493-2.216-1.616-2.507-.25-.859-.913-1.813-2.014-1.813-.093 0-.186.007-.277.022-.482.075-.904.353-1.205.77-.325-.404-.64-.725-.926-.906-.43-.273-.86-.412-1.279-.412-.522 0-.99.215-1.315.604l-.008.01-.018-.077v-.004a10.965 10.965 0 0 1-.157-.8v-.006l-.01-.06-.014-.1-.012-.081-.01-.082-.01-.082-.01-.079v-.006c-.014-.12-.025-.24-.035-.361l-.005-.07a3.578 3.578 0 0 1-.004-.057v-.014l-.005-.077-.005-.084a7.727 7.727 0 0 1-.004-.084l-.003-.073-.001-.022-.002-.068-.002-.057-.001-.07-.001-.071-.001-.073v-.072c0-6.193 5.02-11.213 11.213-11.213zM7.66 59.698a1.05 1.05 0 1 0-.002 2.099 1.05 1.05 0 0 0 .002-2.099zm15.005 0a1.05 1.05 0 1 0-.002 2.099 1.05 1.05 0 0 0 .002-2.099zM5.504 66.634c.165 0 .366.07.588.21.688.437 2.016 2.72 2.502 3.608a.785.785 0 0 0 .693.423c.497 0 .886-.494.045-1.123-1.264-.946-.82-2.492-.217-2.587a.534.534 0 0 1 .078-.006c.548 0 .79.945.79.945s.71 1.782 1.928 2.999c1.106 1.105 1.26 2.012.616 3.143-.07.121-.143.24-.222.355a2.26 2.26 0 0 1-.799.71c-.607.33-1.374.446-2.155.446-1.232 0-2.495-.289-3.203-.472-.035-.01-4.34-1.225-3.796-2.26.092-.175.243-.244.433-.244.768 0 2.165 1.143 2.766 1.143.134 0 .229-.058.267-.197.256-.918-3.89-1.304-3.54-2.633.061-.235.228-.33.463-.33 1.015 0 3.292 1.784 3.768 1.784.037 0 .063-.011.077-.034l.006-.01c.224-.369.096-.637-1.436-1.575l-.147-.09c-1.685-1.02-2.868-1.634-2.195-2.366.077-.085.187-.122.32-.122.158 0 .35.053.56.141.89.376 2.124 1.4 2.64 1.846.151.132.24.213.24.213s.653.679 1.048.679a.24.24 0 0 0 .22-.125c.28-.471-2.599-2.653-2.761-3.552-.11-.61.077-.92.423-.92Zm19.289.002a.42.42 0 0 1 .334.114c.101.1.157.268.154.5l-.001.032v.012c0 .01 0 .02-.002.032l-.003.04-.003.035-.001.01a.83.83 0 0 1-.004.03l-.001.01a.59.59 0 0 1-.013.081.587.587 0 0 1-.019.084.896.896 0 0 1-.063.16 1.716 1.716 0 0 1-.085.15l-.017.026a3.434 3.434 0 0 1-.199.277l-.023.03a7.94 7.94 0 0 1-.2.24l-.054.06-.028.032-.114.125-.03.032-.058.063-.06.065-.061.064-.062.064-.062.065-.126.129c-.6.615-1.232 1.229-1.446 1.611a.887.887 0 0 0-.039.077.32.32 0 0 0-.034.177.135.135 0 0 0 .016.045.288.288 0 0 0 .069.079.248.248 0 0 0 .151.045h.034l.018-.003.014-.002a.04.04 0 0 0 .006 0l.013-.004h.004l.014-.004h.005l.016-.005.018-.005a.8.8 0 0 0 .115-.045l.02-.01.02-.01a1.32 1.32 0 0 0 .138-.08l.02-.013a.3.3 0 0 0 .02-.013l.02-.013.01-.008.028-.02c.027-.018.051-.036.077-.056l.002-.001.04-.031c.054-.043.105-.086.152-.127l.031-.027.003-.003.016-.014.1-.093.012-.011.028-.027.017-.016.006-.006.001-.001.029-.029.001-.001.005-.005.007-.006.002-.002.005-.005.03-.026.017-.015a.683.683 0 0 0 .027-.024l.02-.018.011-.01.021-.018.031-.027.017-.015.232-.2.037-.03.061-.052.062-.052.262-.214.06-.049a39.46 39.46 0 0 1 .392-.303c.127-.096.258-.192.39-.286l.057-.04.12-.08.036-.025c.07-.048.142-.095.215-.141l.036-.023.035-.022.107-.065.035-.02.071-.042.07-.04.013-.008.055-.03.069-.036.034-.017.033-.017c.075-.038.151-.073.229-.105l.032-.013a1.073 1.073 0 0 1 .123-.045 2.5 2.5 0 0 1 .053-.017l.006-.002a.72.72 0 0 1 .027-.007l.003-.001c.018-.006.037-.01.056-.015h.001c.028-.007.055-.012.081-.017l.027-.004a1.003 1.003 0 0 1 .126-.01h.012c.017 0 .033.001.049.003l.021.002h.003c.007 0 .014.002.021.004l.021.004h.003l.02.005a.363.363 0 0 1 .151.084l.004.003.008.008.007.008c.06.062.109.134.146.212l.005.013a.487.487 0 0 1 .014.355.736.736 0 0 1-.046.106l-.012.022c-.046.078-.1.15-.162.215l-.013.014a1.858 1.858 0 0 1-.122.118l-.015.014a3.188 3.188 0 0 1-.1.085l-.018.014a6.338 6.338 0 0 1-.502.36c-.105.069-.211.136-.318.202l-.094.058c-.291.18-.614.37-.958.579l-.089.054-.276.17-.044.028-.082.053a9.03 9.03 0 0 0-.164.105l-.044.03a6.079 6.079 0 0 0-.064.042l-.021.013-.064.043-.034.023-.04.028-.037.025-.172.125-.02.015a4.065 4.065 0 0 0-.064.05l-.027.022a2.996 2.996 0 0 0-.125.106l-.019.017-.03.029-.02.02-.01.009a1.603 1.603 0 0 0-.062.065l-.01.011a.974.974 0 0 0-.057.073l-.007.01a.634.634 0 0 0-.051.09l-.005.01-.003.008-.003.006-.003.01-.004.013a.321.321 0 0 0-.014.054l-.002.01v.009l-.002.009v.046l.001.012.001.007.002.012.003.016c0 .006.002.011.003.016l.004.017c.005.017.01.033.017.05l.002.003.005.012a.554.554 0 0 0 .024.05l.01.016.01.017.01.017a.063.063 0 0 0 .006.008l.003.003.004.004.004.003a.079.079 0 0 0 .008.005l.01.004a.145.145 0 0 0 .01.003c.086.02.261-.051.494-.174l.042-.023.07-.038.036-.02.075-.042.047-.027c.308-.177.677-.405 1.057-.628l.107-.062.072-.046a11.798 11.798 0 0 1 .572-.312l.07-.036.14-.067c.088-.042.178-.082.268-.12l.05-.02.006-.002c.262-.104.5-.168.693-.168.042 0 .083.003.125.01a.518.518 0 0 1 .038.008h.002a.381.381 0 0 1 .091.034.371.371 0 0 1 .18.196.49.49 0 0 1 .028.082.58.58 0 0 1-.009.341l-.004.014a.751.751 0 0 1-.156.252l-.021.023-.033.033c-.199.198-.502.37-.846.53l-.118.053-.04.017a3.205 3.205 0 0 1-.08.035l-.082.034-.082.034c-.193.08-.391.155-.584.23l-.083.032-.081.032c-.055.021-.108.042-.16.064l-.08.031-.077.032-.038.016c-.025.01-.05.02-.074.032-.568.243-.977.491-.89.799a.288.288 0 0 0 .066.123c.1.105.283.088.515.005l.058-.022.04-.016.02-.008.166-.075.043-.02c.283-.14.604-.326.923-.496l.146-.076c.08-.042.16-.081.241-.12.302-.141.585-.242.813-.242.107 0 .201.022.28.072l.013.009c.04.028.074.063.103.102l.019.03.018.03c.112.214.018.436-.203.653-.211.208-.54.412-.915.602a4.883 4.883 0 0 1-.084.042c-1.114.547-2.573.959-2.594.964-.388.1-.944.233-1.57.332l-.094.014-.015.003c-.142.021-.284.04-.427.056l-.013.001c-.26.03-.526.051-.793.06h-.004a7.66 7.66 0 0 1-.287.006h-.11a6.99 6.99 0 0 1-.605-.036 5.596 5.596 0 0 1-.375-.053l-.049-.01h-.004a4.207 4.207 0 0 1-.24-.054l-.018-.004a1.88 1.88 0 0 1-.043-.011l-.008-.002-.046-.013-.05-.015-.005-.002-.043-.013-.049-.016-.04-.013-.029-.01a2.95 2.95 0 0 1-.084-.03l-.026-.011-.022-.009a3.566 3.566 0 0 1-.125-.053l-.027-.013-.005-.002a2.644 2.644 0 0 1-.086-.042l-.005-.002-.028-.015a2.203 2.203 0 0 1-.142-.08l-.025-.016-.038-.024-.033-.022a1.2 1.2 0 0 1-.036-.025l-.021-.015a1.976 1.976 0 0 1-.066-.05l-.035-.026a2.135 2.135 0 0 1-.074-.063h-.001a1.779 1.779 0 0 1-.07-.064l-.001-.002a1.53 1.53 0 0 1-.035-.034l-.034-.035a1.57 1.57 0 0 1-.065-.071l-.003-.004a2.22 2.22 0 0 1-.15-.194l-.019-.028a4.21 4.21 0 0 1-.035-.054l-.035-.053a2.986 2.986 0 0 1-.085-.137l-.029-.048-.014-.026-.016-.028-.009-.015-.005-.01a1.559 1.559 0 0 1-.03-.053l-.012-.024-.014-.025-.013-.026-.025-.05-.012-.026a4.888 4.888 0 0 1-.026-.054l-.01-.022a1.694 1.694 0 0 1-.032-.075l-.02-.05a2.884 2.884 0 0 1-.053-.148l-.014-.044a1.729 1.729 0 0 1-.057-.222 1.33 1.33 0 0 1-.023-.143 1.887 1.887 0 0 1-.013-.142l-.001-.024a1.37 1.37 0 0 1-.001-.047c-.009-.632.312-1.24.996-1.924 1.218-1.217 1.927-2.999 1.927-2.999s.02-.074.059-.182a3.012 3.012 0 0 1 .096-.223l.005-.012c.025-.049.052-.096.08-.143l.022-.032a1.414 1.414 0 0 1 .128-.16.638.638 0 0 1 .242-.165l.012-.004.023-.007a.692.692 0 0 1 .028-.006l.004-.001a.46.46 0 0 1 .058-.008h.002l.03-.001a.53.53 0 0 1 .079.006c.11.017.214.083.304.184l.012.014a.877.877 0 0 1 .13.2l.019.038a.712.712 0 0 1 .026.06 1.483 1.483 0 0 1 .102.518 2.502 2.502 0 0 1-.002.17c-.012.176-.05.35-.114.514l-.02.05a1.83 1.83 0 0 1-.188.341l-.016.024a2.3 2.3 0 0 1-.469.473c-.09.066-.173.14-.25.219-.223.233-.275.439-.225.595a.396.396 0 0 0 .092.15l.008.008a.464.464 0 0 0 .026.023l.009.007a.512.512 0 0 0 .068.044l.02.011c.034.017.068.03.103.04l.01.002.013.003.011.003.013.003.012.003.012.002a.59.59 0 0 0 .026.004h.009l.015.003h.01l.015.002h.091l.017-.002.02-.001.02-.003c.004 0 .009 0 .013-.002a.748.748 0 0 0 .31-.119.777.777 0 0 0 .096-.074l.021-.02.01-.01a.893.893 0 0 0 .142-.192c.29-.526.593-1.045.91-1.555l.043-.07.044-.07.066-.104.023-.035.044-.07.18-.274.045-.067c.091-.134.181-.265.27-.389l.045-.061c.098-.135.199-.266.304-.394l.042-.05.02-.025.042-.047.02-.023.04-.045.02-.022.058-.061.039-.04c.075-.076.158-.145.247-.204l.02-.014.021-.013a1.113 1.113 0 0 1 .512-.184z"/><path fill="#ffd21e" fill-rule="evenodd" d="M26.298 63.4v-.073c0-6.193-5.019-11.213-11.212-11.213S3.873 57.134 3.873 63.327V63.47l.001.054v.019l.001.026.001.043.002.057.002.068v.022l.004.07v.003l.004.082v.002l.005.084.005.077v.005l.004.066v.006l.006.064v.004l.003.037c.009.107.02.214.031.32v.007l.01.078.01.082a10.142 10.142 0 0 0 .036.263v.004l.037.222c.036.215.08.429.13.64v.004l.005.02.013.057.009-.01c.325-.389.792-.604 1.314-.604.42 0 .849.139 1.28.412.285.181.6.503.926.907.3-.418.722-.695 1.204-.771.092-.015.185-.022.277-.022 1.1 0 1.764.955 2.014 1.813.123.29.72 1.612 1.619 2.506 1.366 1.365 1.708 2.774 1.032 4.283h.002a8.487 8.487 0 0 0 .222.021l.01.001.061.006.056.004.161.011.043.003.034.002.021.001.066.004h.018l.07.003.077.003.062.002h.01l.04.002h.014c.087.002.174.003.262.003h.158c.017-.002.033-.002.05-.002H15.394l.052-.002.078-.003.086-.003.074-.004.027-.002.039-.002.023-.001.017-.001.08-.005.08-.006.071-.006.051-.004.055-.005a14.786 14.786 0 0 0 .279-.03l.063-.007c-.666-1.502-.321-2.904 1.04-4.264.897-.897 1.493-2.218 1.617-2.508.25-.86.913-1.814 2.013-1.814.094 0 .186.007.278.022.482.076.904.353 1.205.77.325-.403.64-.725.926-.906.43-.273.86-.411 1.279-.411.46 0 .879.167 1.194.473a13.79 13.79 0 0 0 .133-.683l.002-.01.01-.067.01-.068c.005-.029.01-.057.013-.086a4.53 4.53 0 0 0 .01-.065v-.012l.01-.07.008-.061a16.246 16.246 0 0 0 .018-.167l.002-.013.007-.08.006-.06c.013-.137.022-.274.03-.41v-.001l.004-.073v-.016l.004-.069.003-.078v-.022l.002-.048v-.007l.002-.046v-.06l.001-.013.001-.06zM12.305 74.6c.888-1.302.825-2.279-.393-3.497-1.219-1.217-1.928-2.998-1.928-2.998s-.265-1.035-.868-.94c-.604.095-1.047 1.641.217 2.587 1.264.946-.251 1.588-.738.7-.486-.888-1.814-3.17-2.503-3.607-.689-.437-1.173-.192-1.01.708.08.446.83 1.209 1.53 1.921.711.723 1.371 1.394 1.23 1.631-.28.472-1.266-.554-1.266-.554s-3.09-2.81-3.762-2.078c-.62.675.336 1.249 1.81 2.134l.386.232c1.685 1.02 1.816 1.29 1.577 1.676-.088.142-.652-.196-1.346-.613-1.183-.71-2.743-1.647-2.963-.808-.191.725.957 1.17 1.997 1.573.867.336 1.66.643 1.544 1.06-.121.432-.776.071-1.493-.323-.804-.442-1.685-.927-1.973-.38-.545 1.034 3.76 2.252 3.795 2.26 1.39.361 4.923 1.126 6.157-.683zm5.72 0c-.887-1.302-.824-2.279.394-3.497 1.219-1.217 1.928-2.998 1.928-2.998s.265-1.035.868-.94c.604.095 1.047 1.641-.217 2.587-1.264.946.251 1.588.738.7.487-.888 1.814-3.17 2.503-3.607.688-.437 1.173-.192 1.01.708-.08.446-.83 1.209-1.53 1.921-.712.723-1.372 1.394-1.23 1.631.28.472 1.267-.554 1.267-.554s3.088-2.811 3.76-2.079c.62.676-.335 1.25-1.808 2.134l-.387.233c-1.685 1.02-1.816 1.29-1.577 1.675.088.143.653-.196 1.346-.612 1.183-.71 2.743-1.647 2.963-.809.191.725-.956 1.17-1.997 1.573-.867.336-1.66.643-1.544 1.06.121.432.776.072 1.492-.322.804-.443 1.686-.928 1.974-.38.545 1.034-3.76 2.25-3.795 2.26-1.391.361-4.923 1.126-6.157-.683z" clip-rule="evenodd"/><path fill="#32343d" fill-rule="evenodd" d="M18.728 60.274c.175.062.305.25.429.43.167.242.322.467.561.34a1.612 1.612 0 1 0-2.182-.667c.11.208.356.11.616.006.203-.08.414-.165.576-.108zm-7.602 0c-.174.062-.305.25-.428.43-.167.242-.323.467-.562.34a1.613 1.613 0 1 1 2.183-.667c-.111.208-.357.11-.616.006-.203-.08-.415-.165-.577-.108zm6.426 6.918c1.205-.95 1.647-2.499 1.647-3.454 0-.754-.507-.517-1.32-.114l-.046.022c-.746.37-1.74.862-2.83.862s-2.083-.492-2.829-.862c-.839-.415-1.365-.676-1.365.093 0 .984.47 2.601 1.763 3.54a2.803 2.803 0 0 1 1.713-1.447c.129-.039.262.183.398.41.131.22.265.444.402.444.145 0 .288-.22.427-.436.146-.226.288-.446.426-.402.691.222 1.27.704 1.614 1.344z" clip-rule="evenodd"/><path fill="#ff323d" d="M17.552 67.192c-.628.494-1.462.826-2.548.826-1.02 0-1.819-.293-2.432-.738a2.807 2.807 0 0 1 1.713-1.448c.253-.076.522.854.8.854.297 0 .584-.924.853-.838.691.222 1.27.704 1.614 1.344z"/></svg>
