<?xml version="1.0" encoding="UTF-8" standalone="no"?>
<svg
   width="32"
   height="32"
   viewBox="0 0 32 32"
   fill="none"
   version="1.1"
   id="svg635"
   sodipodi:docname="bamboo-original-wordmark.svg"
   inkscape:version="1.1.2 (b8e25be8, 2022-02-05)"
   xmlns:inkscape="http://www.inkscape.org/namespaces/inkscape"
   xmlns:sodipodi="http://sodipodi.sourceforge.net/DTD/sodipodi-0.dtd"
   xmlns="http://www.w3.org/2000/svg"
   xmlns:svg="http://www.w3.org/2000/svg">
  <sodipodi:namedview
     id="namedview637"
     pagecolor="#ffffff"
     bordercolor="#666666"
     borderopacity="1.0"
     inkscape:pageshadow="2"
     inkscape:pageopacity="0.0"
     inkscape:pagecheckerboard="0"
     showgrid="false"
     inkscape:zoom="15.217768"
     inkscape:cx="16.001032"
     inkscape:cy="15.968176"
     inkscape:window-width="2560"
     inkscape:window-height="1302"
     inkscape:window-x="0"
     inkscape:window-y="25"
     inkscape:window-maximized="1"
     inkscape:current-layer="svg635" />
  <g
     id="g764"
     transform="matrix(1.0170385,0,0,1.0170385,-0.54825109,-3.3311684)">
    <path
       d="m 26.0329,17.6583 h -4.9997 c -0.3082,0 -0.6164,0.2397 -0.6506,0.5479 -0.274,1.9862 -1.9862,3.5272 -4.0408,3.5272 l 1.3355,6.1639 c 4.8627,-0.6506 8.6638,-4.6229 9.0062,-9.5541 0.0343,-0.3767 -0.2739,-0.6849 -0.6506,-0.6849 z"
       fill="#2684ff"
       id="path615" />
    <path
       d="m 17.4366,17.4871 7.1913,-6.1639 c 0.3082,-0.274 0.3082,-0.7192 0,-0.9931 L 17.4366,4.16616 C 17.0257,3.78948 16.3751,4.09768 16.3751,4.64558 V 16.9734 c -0.0343,0.5822 0.6164,0.8904 1.0615,0.5137 z"
       fill="#2684ff"
       id="path617" />
    <path
       d="M 6.0686,18.9938 C 6.71924,24.062 11.0682,28 16.3418,28 v -6.2666 c -2.2601,0 -4.1093,-1.815 -4.1093,-4.0751 z"
       fill="url(#paint0_linear)"
       id="path619"
       style="fill:url(#paint0_linear)" />
    <path
       d="m 6,17.5556 v 0.1027 h 6.2667 c 0,-2.2601 1.8492,-4.0751 4.1093,-4.0751 L 15.0404,7.41931 C 9.97232,8.06995 6.03424,12.3505 6,17.5556 Z"
       fill="url(#paint1_linear)"
       id="path621"
       style="fill:url(#paint1_linear)" />
  </g>
  <defs
     id="defs633">
    <linearGradient
       id="paint0_linear"
       x1="11.2175"
       y1="7.48601"
       x2="11.2175"
       y2="21.607"
       gradientUnits="userSpaceOnUse">
      <stop
         stop-color="#0052CC"
         id="stop623" />
      <stop
         offset="1"
         stop-color="#2684FF"
         id="stop625" />
    </linearGradient>
    <linearGradient
       id="paint1_linear"
       x1="11.1683"
       y1="7.48595"
       x2="11.1683"
       y2="21.6069"
       gradientUnits="userSpaceOnUse">
      <stop
         stop-color="#0052CC"
         id="stop628" />
      <stop
         offset="1"
         stop-color="#2684FF"
         id="stop630" />
    </linearGradient>
  </defs>
  <g
     id="g758"
     transform="matrix(0.22976334,0,0,0.22976334,12.354055,24.598935)">
    <path
       d="m -41.395161,6.20585 h 8.7804 c 4.2813,0 6.3495,2.1041 6.3495,5.47795 0,2.53947 -1.1611,4.09937 -3.5195,4.64357 3.0841,0.5079 4.6442,2.2129 4.6442,5.1877 0,3.3376 -2.2495,5.6594 -6.9663,5.6594 h -9.2883 z m 2.9026,2.72084 v 6.23978 h 5.5149 c 2.7213,0 3.846,-1.2335 3.846,-3.26501 0,-2.03157 -1.1973,-3.01104 -3.846,-3.01104 h -5.5149 z m 0,8.81548 v 6.53 h 6.5309 c 2.7575,0 3.9911,-0.9795 3.9911,-3.0836 0,-2.2492 -1.1974,-3.4464 -4.0637,-3.4464 z"
       fill="#253858"
       id="path268" />
    <path
       d="m -11.026561,24.30747 c -1.0159,2.1041 -2.9389,3.1925 -5.4061,3.1925 -4.2451,0 -6.3858,-3.5916 -6.3858,-8.3076 0,-4.4985 2.2495,-8.30757 6.7123,-8.30757 2.3221,0 4.1362,1.05204 5.0796,3.11987 v -2.79341 h 2.7575 v 15.96211 h -2.7575 z m -4.6442,0.6167 c 2.4672,0 4.6442,-1.5599 4.6442,-5.1151 v -1.2697 c 0,-3.5552 -1.9956,-5.1151 -4.3539,-5.1151 -3.0841,0 -4.6805,2.0315 -4.6805,5.7318 0,3.8454 1.5239,5.7681 4.3902,5.7681 z"
       fill="#253858"
       id="path270" />
    <path
       d="m 9.436939,27.17437 h -2.7575 v -9.6502 c 0,-2.866 -1.1611,-4.1358 -3.7735,-4.1358 -2.5398,0 -4.3176,1.7051 -4.3176,4.934 v 8.8883 h -2.7575 V 11.24794 h 2.7575 v 2.61203 c 1.0159,-1.88647 2.9026,-2.93855 5.0433,-2.93855 2.7212,0 4.5716,1.37858 5.3699,3.88185 0.907,-2.46699 3.0477,-3.88185 5.6964,-3.88185 3.592,0 5.5512,2.43068 5.5512,6.92925 v 9.36 h -2.7575 v -8.8883 c 0,-3.3014 -1.161,-4.934 -3.7734,-4.934 -2.5398,0 -4.3176,1.7051 -4.3176,4.934 v 8.852 z"
       fill="#253858"
       id="path272" />
    <path
       d="m 26.852539,24.34527 v 2.7936 h -2.7574 V 4.50003 h 2.7574 v 9.54174 c 1.016,-2.10428 2.939,-3.1927 5.406,-3.1927 4.245,0 6.386,3.5917 6.386,8.3082 0,4.4987 -2.25,8.3081 -6.712,8.3081 -2.322,0.0363 -4.137,-1.0158 -5.08,-3.1201 z m 4.644,-10.9203 c -2.467,0 -4.644,1.5601 -4.644,5.1155 v 1.2698 c 0,3.5555 1.996,5.1155 4.354,5.1155 3.084,0 4.68,-2.0317 4.68,-5.7323 0,-3.8457 -1.523,-5.7685 -4.39,-5.7685 z"
       fill="#253858"
       id="path274" />
    <path
       d="m 40.857539,19.15607 c 0,-4.7886 2.794,-8.27127 7.583,-8.27127 4.753,0 7.547,3.48267 7.547,8.27127 0,4.7886 -2.794,8.3439 -7.547,8.3439 -4.753,0 -7.583,-3.5553 -7.583,-8.3439 z m 2.685,0 c 0,3.0473 1.488,5.7681 4.935,5.7681 3.374,0 4.862,-2.7571 4.862,-5.7681 0,-3.011 -1.452,-5.7318 -4.862,-5.7318 -3.411,0 -4.935,2.6845 -4.935,5.7318 z"
       fill="#253858"
       id="path276" />
    <path
       d="m 58.237539,19.15607 c 0,-4.7886 2.793,-8.27127 7.583,-8.27127 4.753,0 7.546,3.48267 7.546,8.27127 0,4.7886 -2.793,8.3439 -7.546,8.3439 -4.79,0 -7.583,-3.5553 -7.583,-8.3439 z m 2.685,0 c 0,3.0473 1.487,5.7681 4.934,5.7681 3.374,0 4.862,-2.7571 4.862,-5.7681 0,-3.011 -1.451,-5.7318 -4.862,-5.7318 -3.447,0 -4.934,2.6845 -4.934,5.7318 z"
       fill="#253858"
       id="path278" />
  </g>
</svg>
