<svg xmlns="http://www.w3.org/2000/svg" viewBox="0 0 128 128"><defs><linearGradient id="bamboo-original-wordmark-a" gradientUnits="userSpaceOnUse" x1="11.217" y1="7.486" x2="11.217" y2="21.607" gradientTransform="matrix(4.06815 0 0 4.06815 -2.193 -13.325)"><stop offset="0" stop-color="#0052cc"/><stop offset="1" stop-color="#2684ff"/></linearGradient><linearGradient id="bamboo-original-wordmark-b" gradientUnits="userSpaceOnUse" x1="11.168" y1="7.486" x2="11.168" y2="21.607" gradientTransform="matrix(4.06815 0 0 4.06815 -2.193 -13.325)"><stop offset="0" stop-color="#0052cc"/><stop offset="1" stop-color="#2684ff"/></linearGradient></defs><path d="M103.71 58.512H83.376c-1.254 0-2.508.976-2.648 2.23-1.114 8.078-8.082 14.348-16.438 14.348l5.434 25.074c19.78-2.644 35.242-18.805 36.636-38.867.141-1.531-1.113-2.785-2.648-2.785zm0 0M68.742 57.816l29.254-25.078c1.254-1.113 1.254-2.925 0-4.039L68.742 3.625c-1.672-1.535-4.32-.281-4.32 1.95v50.152c-.137 2.367 2.508 3.62 4.32 2.09zm0 0" fill="#2684ff"/><path d="M22.496 63.945c2.645 20.617 20.34 36.637 41.793 36.637V75.09c-9.195 0-16.719-7.383-16.719-16.578zm0 0" fill="url(#bamboo-original-wordmark-a)"/><path d="M22.215 58.094v.418H47.71c0-9.196 7.523-16.578 16.715-16.578l-5.434-25.075c-20.617 2.645-36.637 20.059-36.777 41.235zm0 0" fill="url(#bamboo-original-wordmark-b)"/><path d="M11.371 104.098h8.07c3.934 0 5.836 1.933 5.836 5.035 0 2.336-1.066 3.77-3.234 4.27 2.832.464 4.27 2.03 4.27 4.765 0 3.07-2.07 5.203-6.403 5.203h-8.539zm2.668 2.504v5.734h5.07c2.5 0 3.536-1.137 3.536-3.004s-1.102-2.766-3.536-2.766h-5.07zm0 8.101v6h6.004c2.531 0 3.668-.898 3.668-2.832 0-2.07-1.102-3.168-3.734-3.168zm0 0M39.281 120.734c-.933 1.934-2.699 2.934-4.968 2.934-3.899 0-5.868-3.3-5.868-7.633 0-4.137 2.067-7.637 6.168-7.637 2.133 0 3.801.97 4.668 2.868v-2.567h2.535v14.672h-2.535zm-4.265.567c2.265 0 4.265-1.434 4.265-4.7v-1.167c0-3.266-1.832-4.7-4-4.7-2.836 0-4.3 1.868-4.3 5.266 0 3.535 1.398 5.3 4.035 5.3zm0 0M58.09 123.371h-2.535V114.5c0-2.633-1.067-3.8-3.47-3.8-2.331 0-3.968 1.566-3.968 4.534v8.168h-2.531v-14.668h2.531v2.399c.934-1.735 2.668-2.7 4.637-2.7 2.5 0 4.203 1.266 4.934 3.567.835-2.266 2.8-3.566 5.238-3.566 3.3 0 5.101 2.234 5.101 6.367v8.601h-2.535v-8.168c0-3.035-1.066-4.535-3.469-4.535-2.332 0-3.968 1.567-3.968 4.535v8.137zm0 0M74.094 120.77v2.566h-2.531V102.53h2.53v8.77c.934-1.934 2.704-2.934 4.97-2.934 3.902 0 5.87 3.301 5.87 7.637 0 4.133-2.07 7.633-6.167 7.633-2.137.035-3.805-.934-4.672-2.867zm4.27-10.036c-2.266 0-4.27 1.434-4.27 4.7v1.168c0 3.27 1.836 4.703 4.004 4.703 2.832 0 4.3-1.868 4.3-5.27 0-3.535-1.398-5.3-4.035-5.3zm0 0M86.965 116c0-4.398 2.57-7.602 6.972-7.602 4.368 0 6.934 3.204 6.934 7.602 0 4.402-2.566 7.668-6.933 7.668-4.372 0-6.973-3.266-6.973-7.668zm2.469 0c0 2.8 1.367 5.3 4.535 5.3 3.101 0 4.469-2.53 4.469-5.3 0-2.766-1.333-5.266-4.47-5.266-3.132 0-4.534 2.465-4.534 5.266zm0 0M102.941 116c0-4.398 2.567-7.602 6.97-7.602 4.366 0 6.933 3.204 6.933 7.602 0 4.402-2.567 7.668-6.934 7.668-4.402 0-6.969-3.266-6.969-7.668zm2.465 0c0 2.8 1.367 5.3 4.535 5.3 3.102 0 4.47-2.53 4.47-5.3 0-2.766-1.333-5.266-4.47-5.266-3.168 0-4.535 2.465-4.535 5.266zm0 0" fill="#253858"/></svg>
