<svg xmlns="http://www.w3.org/2000/svg" viewBox="0 0 128 128"><path fill="#0070F0" d="M65.029 30.012a22.364 22.364 0 0 0-22.364 22.364A22.364 22.364 0 0 0 65.029 74.74a22.364 22.364 0 0 0 22.364-22.364 22.364 22.364 0 0 0-22.364-22.364m10.707 7.575a4.414 7.062 24.166 0 1 1.14.248 4.414 7.062 24.166 0 1 1.136 8.25 4.414 7.062 24.166 0 1-6.918 4.637 4.414 7.062 24.166 0 1-1.135-8.25 4.414 7.062 24.166 0 1 5.776-4.884zM65.618.293a50.02 50.02 0 0 0-50.023 50.023 50.02 50.02 0 0 0 28.11 44.9l-.58-.239a43 43 0 0 0 2.764 1.247 42.7 42.7 0 0 1-8.81-7.57 42.67 42.67 0 0 0 29.129 11.685 42.667 42.667 0 0 0 42.665-42.665A42.67 42.67 0 0 0 98.2 29.514a42.67 42.67 0 0 1 13.223 30.71 42.67 42.67 0 0 1-7.394 23.896 45.9 45.9 0 0 0 11.316-29.978 45.903 45.903 0 0 0-45.9-45.903 45.9 45.9 0 0 0-32.019 13.268l.245-.262A45.9 45.9 0 0 1 71.995 5.687a45.903 45.903 0 0 1 45.9 45.903 45.9 45.9 0 0 1-3.06 16.154 57.67 57.67 0 0 1-57.162 50.151A57.67 57.67 0 0 1 .609 68.531a63.85 63.85 0 0 0 63.538 59.467 63.85 63.85 0 0 0 63.852-63.852 63.85 63.85 0 0 0-51.165-62.58A50 50 0 0 0 65.619.294zm-3.14 11.87a30 30 0 0 1 21.61 9.4 30 30 0 0 0-19.06-6.851 30.014 30.014 0 0 0-30.011 30.014 30 30 0 0 0 6.949 18.891 24.4 24.4 0 0 1-2.288-10.292 24.4 24.4 0 0 1 24.398-24.4 24.4 24.4 0 0 1 24.404 24.4 24.4 24.4 0 0 1-24.404 24.402 24.4 24.4 0 0 1-21.77-13.487 30 30 0 0 1-9.84-22.065A30.014 30.014 0 0 1 62.478 12.16zm8.926 7.943h.002a26.19 26.19 0 0 1 26.187 26.19 26.2 26.2 0 0 1-8.255 18.87 26.2 26.2 0 0 0 5.705-16.32 26.19 26.19 0 0 0-26.189-26.19 26.2 26.2 0 0 0-16.245 5.662 26.2 26.2 0 0 1 18.794-8.212zm-37.97 6.334a35.6 35.6 0 0 0-9.6 24.17 35.604 35.604 0 0 0 35.603 35.604 35.6 35.6 0 0 0 24.397-9.785 35.6 35.6 0 0 1-26.947 12.336 35.6 35.6 0 0 1-31.489-19.172h-.002a35.6 35.6 0 0 1-4.11-16.431 35.6 35.6 0 0 1 10.896-25.518l.007-.01a36 36 0 0 1 1.245-1.193zm55.802 38.828a26 26 0 0 1-1.076 1.116 26 26 0 0 1-.4.358 26 26 0 0 0 1.475-1.474zm-4.998 4.648a26 26 0 0 1-.763.478 26 26 0 0 0 .763-.478m-4.715 2.769a26 26 0 0 1-1.218.426 26 26 0 0 0 1.218-.426M57.672 0A57.673 57.673 0 0 0 0 57.673a57.673 57.673 0 0 0 57.67 57.673 57.67 57.67 0 0 0 55.916-44.498 45.9 45.9 0 0 1-9.762 13.537 42.67 42.67 0 0 1-35.07 18.503 42.7 42.7 0 0 1-18.777-4.43A50.02 50.02 0 0 1 13.04 50.315 50.02 50.02 0 0 1 62.996.297a58 58 0 0 0-5.324-.295zm6.474.293-.488.018a50 50 0 0 1 1.024.026l.614-.028a64 64 0 0 0-1.15-.016M47.65 33.678l-.148.235z"/></svg>
