<svg xmlns="http://www.w3.org/2000/svg" viewBox="0 0 128 128"><path d="M125.52 127.66c-.169 0-.253-.084-.422-.253l-2.786-4.222-1.52 1.604v2.618c0 .084-.084.253-.253.253h-2.11c-.085 0-.254-.084-.254-.253v-13.931c0-.085.084-.254.253-.254h2.11c.085 0 .254.085.254.254v8.274l3.8-4.053a.464.464 0 0 1 .421-.253h2.364c.085 0 .254.084.085.253l-3.546 3.715 3.968 6.079c.084.084.084.253-.085.253zm-17.31-2.53c-.253-.675-.422-1.435-.422-2.533s.084-1.857.422-2.533c.675-1.857 2.364-2.786 4.56-2.786 1.688 0 2.954.591 3.798 1.604.085.085.085.254-.084.254l-1.435 1.182c-.085.084-.254.084-.338-.085-.591-.59-1.098-.844-2.026-.844-1.014 0-1.773.422-2.111 1.35-.253.507-.253 1.098-.253 1.858s.084 1.351.253 1.942c.338.844 1.097 1.35 2.11 1.35.93 0 1.52-.337 2.027-.843.084-.085.253-.085.338-.085l1.435 1.182c.084.085.084.253.084.253-.844.93-2.195 1.52-3.799 1.52-2.195.085-3.884-.929-4.559-2.786zm-4.13 2.53c-.084 0-.253-.084-.253-.253v-.76c-.507.675-1.52 1.182-3.124 1.182-2.026 0-3.715-.929-3.715-3.124 0-2.195 1.689-3.293 4.39-3.293h2.195c.085 0 .085-.084.085-.084v-.507c0-1.182-.591-1.688-2.449-1.688-1.182 0-2.026.338-2.532.675-.085.085-.254.085-.338-.084l-.844-1.351c-.085-.084-.085-.253.084-.253.844-.591 2.11-1.013 3.884-1.013 3.377 0 4.559 1.097 4.559 3.546v6.585c0 .084-.085.253-.253.253zm-.253-3.377v-.76c0-.084-.085-.084-.085-.084h-1.857c-1.689 0-2.364.422-2.364 1.35 0 .845.675 1.267 1.942 1.267 1.435-.085 2.364-.591 2.364-1.773zm-9.461 3.637c-2.195 0-3.124-1.013-3.124-2.955v-5.403c0-.085-.084-.085-.084-.085h-.676c-.084 0-.253-.084-.253-.253v-1.435c0-.085.085-.254.253-.254h.676c.084 0 .084-.084.084-.084v-2.786c0-.085.085-.253.253-.253h2.111c.085 0 .253.084.253.253v2.786c0 .084.085.084.085.084h1.52c.084 0 .253.085.253.254v1.435c0 .084-.085.253-.253.253h-1.52c-.085 0-.085.085-.085.085v5.319c0 .675.338.928 1.014.928h.59c.085 0 .254.085.254.253v1.69c0 .083-.085.252-.253.252zm-16.294-1.78c-.084-.084-.084-.253-.084-.338l1.435-1.52c.084-.084.253-.084.338-.084 1.013.76 2.532 1.52 4.221 1.52 1.857 0 2.955-.844 2.955-2.11 0-1.014-.675-1.69-2.786-2.027l-.844-.085c-2.955-.422-4.644-1.688-4.644-4.052 0-2.617 2.11-4.39 5.235-4.39 1.941 0 3.799.59 4.98 1.435.085.084.085.169.085.253l-1.097 1.52c-.085.084-.254.084-.338.084-1.266-.76-2.448-1.097-3.715-1.097-1.604 0-2.448.76-2.448 1.942 0 1.013.76 1.688 2.87 1.941l.845.085c2.955.422 4.643 1.688 4.643 4.221s-2.026 4.475-5.825 4.475c-2.449.084-4.644-.76-5.826-1.773zm-8.021 1.52c-.084 0-.253-.084-.253-.253v-9.794c0-.084.084-.253.253-.253h2.11c.085 0 .254.084.254.253v.844h.084c.507-.76 1.52-1.35 2.87-1.35.845 0 1.774.337 2.28.844.085.084.085.253.085.253l-1.182 1.435c-.085.085-.253.085-.338.085-.506-.253-1.013-.507-1.688-.507-1.436 0-2.111.929-2.111 2.618v5.487c0 .085-.085.254-.253.254zm-11.229-2.53c-.253-.675-.422-1.435-.422-2.533s.084-1.857.422-2.533c.675-1.857 2.28-2.786 4.56-2.786 2.279 0 3.883 1.098 4.558 2.786.253.676.422 1.436.422 3.124 0 .085-.084.253-.253.253h-6.923c-.084 0-.084.085-.084.085 0 .253.084.59.168.76.423 1.013 1.182 1.52 2.449 1.52s2.026-.423 2.617-.93c.085-.084.253-.084.422-.084l1.351 1.098c.084.084.084.253.084.253-.928 1.013-2.532 1.773-4.559 1.773-2.532.085-4.221-.928-4.812-2.786zm6.67-4.56c-.253-.843-1.098-1.35-2.11-1.35s-1.858.507-2.196 1.35c-.084.254-.084.507-.084.845 0 .085.084.085.084.085h4.39c.085 0 .085-.085.085-.085-.085-.253-.085-.59-.17-.844zm-17.814 5.74c-.085-.084-.085-.253 0-.253l1.35-1.267a.257.257 0 0 1 .338 0c.76.676 2.111 1.182 3.293 1.182 1.35 0 2.026-.506 2.026-1.182 0-.59-.422-1.013-1.857-1.097l-1.182-.085c-2.195-.253-3.377-1.266-3.377-2.955 0-1.941 1.52-3.292 4.221-3.292 1.689 0 3.124.506 4.137 1.182.085.084.085.253.085.253l-1.098 1.182c-.084.084-.253.084-.338.084-.675-.422-1.857-.844-2.87-.844-1.098 0-1.689.422-1.689 1.098 0 .59.422.928 1.858 1.097l1.182.085c2.28.253 3.377 1.35 3.377 2.955 0 2.026-1.604 3.461-4.644 3.461-2.28.085-3.883-.76-4.812-1.604zm-6.08 1.35c-.084 0-.252-.084-.252-.253l-2.111-6.586h-.085l-2.11 6.501c-.085.085-.085.253-.254.253H34.93c-.084 0-.253-.084-.253-.253l-3.462-9.793c-.084-.085.085-.254.17-.254h2.194c.169 0 .253.085.253.254l2.111 6.754h.085l2.11-6.754c.085-.085.17-.254.254-.254h1.688c.085 0 .253.085.253.254l2.196 6.754h.084l2.026-6.754c.085-.17.085-.254.254-.254h2.195c.084 0 .253.085.169.254l-3.378 9.793c-.084.085-.084.253-.253.253zm-20.515-2.53c-.253-.675-.422-1.35-.422-2.533s.084-1.857.422-2.533c.675-1.857 2.28-2.786 4.559-2.786 2.28 0 3.884 1.013 4.559 2.786.253.676.422 1.351.422 2.533s-.084 1.858-.422 2.533c-.675 1.857-2.28 2.786-4.56 2.786-2.279 0-3.967-.929-4.558-2.786zm6.67-.591c.253-.507.253-1.013.253-1.857 0-.845-.085-1.351-.253-1.858-.338-.844-1.013-1.35-2.111-1.35-1.013 0-1.773.506-2.11 1.35-.254.591-.254 1.013-.254 1.858 0 .844.084 1.35.253 1.857.338.844 1.013 1.35 2.11 1.35 1.014 0 1.69-.506 2.112-1.35zm-14.691 3.121c-.085 0-.254-.084-.254-.253v-9.794c0-.084.085-.253.254-.253h2.11c.085 0 .254.084.254.253v.844h.084c.507-.76 1.52-1.35 2.87-1.35.845 0 1.774.337 2.28.844.084.084.084.253.084.253l-1.182 1.435c-.084.085-.253.085-.337.085-.507-.253-1.013-.507-1.689-.507-1.435 0-2.11.929-2.11 2.618v5.487c0 .085-.085.254-.254.254zM.06 113.65c0-.084.084-.253.253-.253h5.825c3.293 0 4.813 1.52 4.813 3.799 0 1.689-.844 2.533-1.858 3.04v.084c.93.337 2.111 1.52 2.111 3.292 0 2.87-1.942 4.222-5.319 4.222H.314c-.084 0-.253-.085-.253-.253V113.65zm5.994 5.741c1.35 0 2.195-.76 2.195-1.857 0-1.182-.844-1.942-2.195-1.942H2.931c-.084 0-.084.084-.084.084v3.546c0 .085.084.085.084.085-.084.084 3.124.084 3.124.084zm-3.208 6.079H6.14c1.52 0 2.364-.76 2.364-2.026 0-1.267-.845-2.027-2.364-2.027H2.847c-.085 0-.085.085-.085.085v3.715c-.084.253.085.253.085.253z"/><path fill="#f4b960" d="M64.035.231a50.08 50.08 0 0 0-.396.014 45.234 45.234 0 0 1 .357.038 39.233 39.233 0 0 1 .941-.041 50.08 50.08 0 0 0-.902-.011zm9.83.975a39.233 39.233 0 0 1 30.557 38.259 39.233 39.233 0 0 1-.258 4.248 45.234 45.234 0 0 1 .028 1.521 45.234 45.234 0 0 1-45.234 45.234 45.234 45.234 0 0 1-44.982-40.734 50.08 50.08 0 0 0-.02.578 50.08 50.08 0 0 0 50.08 50.08 50.08 50.08 0 0 0 50.08-50.08A50.08 50.08 0 0 0 73.865 1.206z"/><path fill="#e66f32" d="M58.958 0a45.234 45.234 0 0 0-45.234 45.234 45.234 45.234 0 0 0 45.234 45.234 45.234 45.234 0 0 0 45.234-45.234 45.234 45.234 0 0 0-.029-1.528 39.233 39.233 0 0 1-.035.282A36.002 36.002 0 0 1 69.9 78.396a33.464 33.464 0 0 1-4.25.302 33.464 33.464 0 0 1-.236-.01 39.233 39.233 0 0 1-.225.01 39.233 39.233 0 0 1-39.233-39.234A39.233 39.233 0 0 1 63.97.281a45.234 45.234 0 0 0-5.012-.28z"/><path fill="#e43c41" d="M65.189.231a39.233 39.233 0 0 0-39.233 39.233 39.233 39.233 0 0 0 39.233 39.233 39.233 39.233 0 0 0 .235-.008 33.464 33.464 0 0 1-33.237-33.455 33.464 33.464 0 0 1 .056-1.36 36.002 36.002 0 0 1-.055-1.41 36.002 36.002 0 0 1 .303-4.452 27.925 27.925 0 0 1 5.044-14.422A36.002 36.002 0 0 1 68.19 6.463a36.002 36.002 0 0 1 36.002 36.002 36.002 36.002 0 0 1-.063 1.602 39.233 39.233 0 0 0 .294-4.602A39.233 39.233 0 0 0 65.19.232z"/><path fill="#bdd041" d="M68.189 6.462a36.002 36.002 0 0 0-30.52 16.952A27.925 27.925 0 0 1 60.342 11.77a27.925 27.925 0 0 1 1.102.025 23.54 23.54 0 0 1 3.283-.256 23.54 23.54 0 0 1 4.63.463 33.464 33.464 0 0 1 29.757 33.233 33.464 33.464 0 0 1-29.206 33.167 36.002 36.002 0 0 0 34.282-35.937A36.002 36.002 0 0 0 68.189 6.463zm-35.696 31.49a36.002 36.002 0 0 0-.306 4.513 36.002 36.002 0 0 0 .052 1.405 33.464 33.464 0 0 1 .236-2.835 27.925 27.925 0 0 1-.058-1.34 27.925 27.925 0 0 1 .076-1.744z"/><path fill="#6db54c" d="M69.104 11.951a23.54 23.54 0 0 1 19.163 23.128 23.54 23.54 0 0 1-.074 1.71 20.54 20.54 0 0 1 .074 1.52 20.54 20.54 0 0 1-.01.64 27.925 27.925 0 0 1 .01.746A27.925 27.925 0 0 1 60.342 67.62a27.925 27.925 0 0 1-27.873-26.665 33.464 33.464 0 0 0-.283 4.279A33.464 33.464 0 0 0 65.65 78.698a33.464 33.464 0 0 0 33.464-33.464 33.464 33.464 0 0 0-30.01-33.283z"/><path fill="#aedae6" d="M60.342 11.77a27.925 27.925 0 0 0-27.925 27.925A27.925 27.925 0 0 0 60.342 67.62a27.925 27.925 0 0 0 27.925-27.925 27.925 27.925 0 0 0-.01-.74 20.54 20.54 0 0 1-20.53 19.895 20.54 20.54 0 0 1-2.962-.233 17.54 17.54 0 0 1-.038.002 23.54 23.54 0 0 1-23.54-23.54A23.54 23.54 0 0 1 61.4 11.792a27.925 27.925 0 0 0-1.056-.022z"/><path fill="#56b8de" d="M64.727 11.539a23.54 23.54 0 0 0-23.54 23.54 23.54 23.54 0 0 0 23.54 23.54 17.54 17.54 0 0 1-4.54-.598 17.54 17.54 0 0 1-1.459-.46 17.54 17.54 0 0 1-4.061-2.114 17.54 17.54 0 0 1-1.214-.932 17.54 17.54 0 0 1-1.128-1.034 17.54 17.54 0 0 1-1.966-2.342 17.54 17.54 0 0 1-3.172-10.06 17.54 17.54 0 0 1 .059-1.344 20.54 20.54 0 0 1-.06-1.425 20.54 20.54 0 0 1 20.54-20.54 20.54 20.54 0 0 1 20.478 19.017 23.54 23.54 0 0 0 .063-1.708 23.54 23.54 0 0 0-23.54-23.54z"/><path fill="#00b1d5" d="M67.727 17.77a20.54 20.54 0 0 0-20.54 20.54 20.54 20.54 0 0 0 .054 1.474 17.54 17.54 0 0 1 .006-.153 17.54 17.54 0 0 1 .18-1.439 17.54 17.54 0 0 1 .297-1.419 17.54 17.54 0 0 1 .94-2.74 17.54 17.54 0 0 1 .637-1.302 17.54 17.54 0 0 1 .742-1.245 17.54 17.54 0 0 1 2.805-3.311 17.54 17.54 0 0 1 1.106-.937 17.54 17.54 0 0 1 1.18-.842 17.54 17.54 0 0 1 1.245-.743 17.54 17.54 0 0 1 2.653-1.163 17.54 17.54 0 0 1 5.695-.95 17.54 17.54 0 0 1 .484.006 17.54 17.54 0 0 1 .965.053 17.54 17.54 0 0 1 .96.106 17.54 17.54 0 0 1 4.637 1.312 17.54 17.54 0 0 1 .874.412 17.54 17.54 0 0 1 1.674.966 17.54 17.54 0 0 1 .4.27 17.54 17.54 0 0 1 .78.573 17.54 17.54 0 0 1 .377.302 17.54 17.54 0 0 1 1.754 1.66 17.54 17.54 0 0 1 1.229 1.491 17.54 17.54 0 0 1 .28.394 17.54 17.54 0 0 1 .776 1.224 17.54 17.54 0 0 1 .673 1.284 17.54 17.54 0 0 1 .2.44 17.54 17.54 0 0 1 .364.896 17.54 17.54 0 0 1 .163.455 17.54 17.54 0 0 1 .289.922 17.54 17.54 0 0 1 .125.467 17.54 17.54 0 0 1 .37 1.897 17.54 17.54 0 0 1 .06.48 17.54 17.54 0 0 1 .046.48 17.54 17.54 0 0 1 .053.966 17.54 17.54 0 0 1 .007.483 17.54 17.54 0 0 1-17.54 17.54 17.54 17.54 0 0 1-.056-.002 20.54 20.54 0 0 0 3.057.233 20.54 20.54 0 0 0 20.54-20.54 20.54 20.54 0 0 0-20.54-20.54z"/><path fill="#221f1f" d="M64.727 23.539a17.54 17.54 0 0 0-17.54 17.54 17.54 17.54 0 0 0 17.54 17.54 17.54 17.54 0 0 0 17.54-17.54 17.54 17.54 0 0 0-17.54-17.54zm8.398 5.941a3.462 5.539 24.166 0 1 .894.195 3.462 5.539 24.166 0 1 .891 6.47 3.462 5.539 24.166 0 1-5.426 3.637 3.462 5.539 24.166 0 1-.89-6.471 3.462 5.539 24.166 0 1 4.53-3.83z"/><path fill="#fff" d="M74.02 29.675a5.539 3.462-65.834 0 1 .89 6.47 5.539 3.462-65.834 0 1-5.426 3.637 5.539 3.462-65.834 0 1-.89-6.47 5.539 3.462-65.834 0 1 5.425-3.637z"/></svg>
