<svg xmlns="http://www.w3.org/2000/svg" viewBox="0 0 128 128"><path fill="#149B9A" d="M98 121h28V7l-37-.014-24.374 58.376s2.3 5.781 4.227 11.71C71.8 86.145 75 97 75 97l-2 2h2c.4 0 .969-.255 2-2 4.073-7.553 44-82 44-82s-5.074 12.43-13.162 27.878C101.3 55.376 95 67 95 67v47l3 7s.216-.659 1-3a396.842 396.842 0 0014-40.928C120.125 51.452 124 29 124 29a316.851 316.851 0 01-9.273 49.009A219.928 219.928 0 0199 118l-1 3z"/><path fill="#149B9A" d="M75 99H54c-.4 0-.958-.218-2-2-4.319-7.767-47-85-47-85s6.982 16.412 13.6 28.224a3265.484 3265.484 0 0111.273 20.3 260.346 260.346 0 01-11.9 30.6C12.866 101.955 4 118 4 118a276.023 276.023 0 0014.439-24.534C25.677 79.607 31 62 31 62l1 2v52c-6.3 7.77-30 5.727-30 5.727V7.435L38 4l37 93v2z"/></svg>
