<svg xmlns="http://www.w3.org/2000/svg" viewBox="0 0 128 128"><path fill="#149B9A" d="M92,99.2h23V5.5l-30.4,0l-20,48c0,0,1.9,4.8,3.5,9.6c2.4,7.5,5.1,16.4,5.1,16.4l-1.6,1.6H73 c0.3,0,0.8-0.2,1.6-1.6C78,73.3,110.9,12,110.9,12s-4.2,10.2-10.8,22.9c-5.4,10.3-10.6,19.8-10.6,19.8v38.6L92,99.2 c0,0,0.2-0.5,0.8-2.5c4.4-11,8.3-22.2,11.5-33.7c5.9-21.1,9-39.5,9-39.5c-1.5,13.6-4,27.1-7.6,40.3c-3.2,11.4-7.6,22.4-12.9,32.9 C92.2,98.5,92,99.2,92,99.2z"/><path fill="#149B9A" d="M73,81.1H55.8c-0.3,0-0.8-0.2-1.6-1.6C50.6,73.1,15.5,9.6,15.5,9.6s5.7,13.5,11.2,23.2 c5.2,9.2,9.3,16.7,9.3,16.7c-2.7,8.6-6,17-9.8,25.2c-4.2,8.9-11.5,22.1-11.5,22.1c4.3-6.5,8.3-13.2,11.9-20.2 c6-11.4,10.3-25.9,10.3-25.9l0.8,1.6v42.8c-5.2,6.4-24.7,4.7-24.7,4.7v-94L42.6,3L73,79.5V81.1z"/><path fill="#149B9A" d="M61,106l-5,14l-5-14h-4v19l3,0v-14l5,14h2l5-14v14h3v-19H61z M99.5,106L93,117v8h-3v-8l-6.4-11H87 l4.5,8l4.5-8H99.5z M109.9,120l1.5,5l3.6,0l-6-19h-5l-6,19l3.5,0l1.5-5C106.5,120,106.5,120,109.9,120z M103.9,117.3l2.7-8.9 l2.6,8.9C106.5,117.3,106.5,117.3,103.9,117.3z M79.9,120l1.5,5l3.6,0l-6-19h-5l-6,19l3.5,0l1.5-5C76.5,120,76.5,120,79.9,120z M73.9,117.3l2.7-8.9l2.6,8.9C76.5,117.3,76.5,117.3,73.9,117.3L73.9,117.3z"/></svg>