<svg xmlns="http://www.w3.org/2000/svg" viewBox="0 0 128 128"><defs><linearGradient id="right_01" gradientUnits="userSpaceOnUse" x1="100.7769" y1="85.0937" x2="86.5761" y2="91.0579"><stop offset="0.09" stop-color="#1A5964"/><stop offset="0.3" stop-color="#137078"/><stop offset="0.5" stop-color="#0E8085"/><stop offset="0.66" stop-color="#0C858A"/><stop offset="1" stop-color="#0A8B8F"/></linearGradient><linearGradient id="right_02" gradientUnits="userSpaceOnUse" x1="99.581" y1="56.1226" x2="130.1662" y2="75.5228"><stop offset="0" stop-color="#079EA0"/><stop offset="0.43" stop-color="#14878E"/><stop offset="1" stop-color="#256A77"/></linearGradient><linearGradient id="right_03" gradientUnits="userSpaceOnUse" x1="112" y1="16.8353" x2="112" y2="120.4973"><stop offset="0" stop-color="#B4B4B4"/><stop offset="0.8" stop-color="#03ABAB"/><stop offset="1" stop-color="#137980"/></linearGradient><linearGradient id="right_04" gradientUnits="userSpaceOnUse" x1="59.3487" y1="57.417" x2="135.4853" y2="42.5746"><stop offset="0" stop-color="#0F5D64"/><stop offset="0.1" stop-color="#097A7E"/><stop offset="0.23" stop-color="#049395"/><stop offset="0.34" stop-color="#01A3A3"/><stop offset="0.43" stop-color="#00A8A8"/><stop offset="1" stop-color="#4EBCC1"/></linearGradient><linearGradient id="left_01" gradientUnits="userSpaceOnUse" x1="-10.0026" y1="72.0328" x2="26.7723" y2="50.7476"><stop offset="0" stop-color="#00A9A9"/><stop offset="0.65" stop-color="#049496"/><stop offset="1" stop-color="#088286"/></linearGradient><linearGradient id="left_02" gradientUnits="userSpaceOnUse" x1="2.06" y1="91.6427" x2="32.0141" y2="89.985"><stop offset="0" stop-color="#20626E"/><stop offset="1" stop-color="#069D9F"/></linearGradient><linearGradient id="left_03" gradientUnits="userSpaceOnUse" x1="41.0357" y1="5.2656" x2="36.3356" y2="101.5784"><stop offset="0" stop-color="#99CBD2"/><stop offset="0.9" stop-color="#498F93"/><stop offset="1" stop-color="#2E7B7D"/></linearGradient></defs><path fill="url(#right_01)" d="M98,121h3V49l-6,9v56C95,114,98,121,98,121z"/><path fill="url(#right_02)" d="M98,121V51l23-44h5v54l-22,60H98"/><path fill="url(#right_03)" d="M126,121H98c2.9-5.7,14.1-29.2,19-48c8.5-33.1,9-58,9-58V121z"/><path fill="url(#right_04)" d="M126,7L89,7L63,69l11,30h1c0.4,0,1-0.3,2-2C81.1,89.4,126,7,126,7z"/><path fill="url(#left_01)" d="M2,121.7l3-0.7l27-49V56L5,9L2,7.4V121.7z"/><path fill="url(#left_02)" d="M32,59.1c-2.3,6.9-7.9,23.6-13.6,34.3C8.2,113,2,121.7,2,121.7s23.7,2,30-5.7V60C32,60,32,60.6,32,59.1z"/><path fill="url(#left_03)" d="M52,97c1,1.8,1.6,2,2,2h21c0.2-0.2,0.4-0.4,0.4-0.7c-0.1-0.4-0.2-0.9-0.4-1.3L38,4L2,7.4C2,7.4,47.7,89.2,52,97z"/></svg>
