<svg xmlns="http://www.w3.org/2000/svg" viewBox="0 0 128 128"><path fill="#2777ff" d="M34.173 22.676C17.11 22.669 3.953 25.549 3.9 25.56a78.983 78.983 0 0 1-.035.006l.088.49s32.518-4.626 59.683 3.466c1.29 3.905 4.44 10 6.196 13.09-1.888 1.58-3.916 3.167-5.468 5.536-1.592 2.433-2.667 5.68-2.58 10.524.175 9.765 9.3 17.488 19.633 16.78 9.71-.396 16.336-.947 24.77 2.464 3.988 1.741 7.885 5.693 10.987 10.664 3.103 4.973 5.413 10.962 6.271 16.744l.497-.04c0-.01-.004-.024-.004-.034h.002c0-.007-.005-.014-.006-.02-.08-4.42-1.37-11.189-4.62-17.424-2.944-5.648-7.621-10.711-14.332-13.244 9.289 1.253 14.97 5.076 18.204 8.83 3.5 4.066 4.322 7.895 4.322 7.895l.493-.054-.008-.051h.002l-.004-.014c-.001-.1-.067-4.66-3.726-9.439-3.7-4.831-11.06-9.824-25.593-10.578a93.561 93.561 0 0 0-12.959.26h-.004C74.37 72.63 67.962 66.67 66.434 60.064c-.764-3.303-.299-6.769 1.402-9.585 1.7-2.817 4.632-4.994 8.85-5.727 6.955-1.238 15.78 1.756 24.447 4.839.073.984.228 1.927 1 2.724.457.474 1.332.82 2.221 1.142.89.322 1.798.6 2.2.783v-.002c.858.39 3.684 1.845 5.48 3.777l.263.282.15-.356c.037-.089.258-.372.554-.67.295-.3.668-.639 1.032-.957.728-.636 1.422-1.188 1.422-1.188l.685-.545-.87.103s-.14.018-.516-.018c-.376-.035-.969-.128-1.814-.356-.809-.218-1.761-.744-2.507-1.23a15.317 15.317 0 0 1-1.196-.866l-.029-.027c.004-.002-.009-.002.102-.035l.06-.02.045-.044c.146-.15.146-.374.095-.532a1.506 1.506 0 0 0-.247-.438 4.402 4.402 0 0 0-.657-.682 2.754 2.754 0 0 1-.173-.191 16.65 16.65 0 0 1-.333-.419 69.983 69.983 0 0 1-.882-1.166c-.617-.831-1.186-1.62-1.228-1.677-.025-.035-.11-.195-.305-.3l-.031-.016-.034-.008c-.192-.042-.392-.015-.64.022-.249.036-.53.092-.795.152-.478.107-.823.203-.904.225-.096-.037-2.937-1.153-4.17-4l-.475.128c.037.309-.127.983.115 1.878-1.351-.525-2.57-1.413-3.713-3.738l-.282-.576-.181.615c-.248.848-.186 1.534-.057 2.006.028.1.04.078.072.16-.73-.18-3.143-.877-3.872-3.557l-.224-.816-.255.807c-.26.82-.204 1.473-.074 1.918.03.104.044.082.08.164-.728-.278-6.282-2.324-15.453-1.502l.021-.002c-1.572.004-2.892-.666-4.005-1.725-1.112-1.06-2.007-2.512-2.687-4.032a21.681 21.681 0 0 1-1.415-4.433c-.268-1.326-.326-2.417-.241-2.819l.043-.204-.191-.078s-9.925-4.09-28.675-4.537a147.87 147.87 0 0 0-3.469-.04zm0 .498c1.136 0 2.29.013 3.458.041 18.515.441 28.194 4.39 28.367 4.46-.084.614-.033 1.529.22 2.778.275 1.36.748 2.977 1.447 4.538.698 1.561 1.62 3.066 2.8 4.19 1.181 1.124 2.633 1.866 4.348 1.862h.012l.01-.002c9.69-.868 15.772 1.617 15.772 1.617l.283-.394s-.14-.16-.246-.52c-.053-.182.032-.548.035-.824 1.295 2.625 4.33 3.296 4.33 3.296l.633.115-.39-.513s-.145-.185-.252-.578c-.067-.245.006-.69.033-1.077 1.207 2.09 2.536 3.152 3.998 3.615l.573.18-.275-.533c-.355-.688-.327-1.127-.265-1.529 1.479 2.583 4.097 3.662 4.097 3.662l.076.03.078-.024s.463-.128.98-.244c.257-.057.529-.112.757-.146.207-.03.364-.03.419-.025.05.032.05.037.118.13.013.017.611.844 1.23 1.678.309.416.626.839.888 1.176.13.169.248.317.344.432.097.116.158.193.236.258.146.12.406.367.579.596.086.114.15.225.171.292.021.066.012.039.023.027l.105-.064c-.224.067-.388.168-.46.34a.461.461 0 0 0 .04.402c.048.089.057.076.082.1.024.022.053.049.09.079.071.06.169.14.29.232.24.184.57.421.954.672.768.5 1.745 1.05 2.65 1.295.842.227 1.428.317 1.835.358-.265.215-.458.364-.942.787-.37.323-.748.669-1.058.982-.217.22-.334.398-.462.582-1.883-1.922-4.551-3.319-5.424-3.716v-.002c-.48-.218-1.363-.48-2.236-.797-.873-.316-1.73-.705-2.034-1.018-.703-.728-.82-1.558-.886-2.587l-.011-.164-.154-.056c-8.716-3.102-17.64-6.183-24.838-4.9-4.345.754-7.418 3.023-9.191 5.96-1.774 2.937-2.253 6.532-1.461 9.953 1.582 6.84 8.282 12.967 19.81 11.729a93.047 93.047 0 0 1 12.885-.255c14.43.748 21.617 5.671 25.223 10.381 1.916 2.503 2.77 4.808 3.198 6.547a22.354 22.354 0 0 0-3.502-5.51c-3.571-4.148-9.875-8.498-20.704-9.371-.017-.001-.028-.007-.045-.008l-.084.49c7.789 2.098 12.924 7.685 16.141 13.857 2.397 4.598 3.46 9.206 4.008 13.206-1.16-4.54-2.861-9.043-5.284-12.925-3.14-5.032-7.082-9.058-11.217-10.861l-.002-.002-.004-.002c-8.537-3.453-15.278-2.894-24.983-2.499h-.008c-10.066.69-18.93-6.83-19.1-16.289-.085-4.768.961-7.894 2.5-10.243 1.537-2.349 3.58-3.927 5.521-5.557l.16-.134-.103-.18c-1.741-3.048-5.053-9.456-6.307-13.32l-.041-.123-.125-.039c-19.703-5.896-41.79-5.088-52.805-4.191 5.443-.825 13.006-1.706 23.092-1.703Zm24.088 6.644c-5.25-.062-14.226.184-24.777 1.94C16.623 34.563.116 42.084.044 42.116l-.025.008v.002L0 42.134l.187.461s34.196-12.1 63.995-9.7h.396l-1.2-2.878-.152-.014s-1.814-.148-4.965-.185zm-.008.499c3.043.036 4.682.17 4.786.179l.787 1.891C41.764 30.705 17.64 36.79 6.453 40.106c5.933-2.395 15.364-5.902 27.113-7.857 10.513-1.75 19.459-1.994 24.687-1.932zM65 33.772l-.17.004s-10.138.282-26.724 7.24c-16.867 7.074-26 15.695-26.046 15.737l-.003.002-.03.024.314.385s24.515-16.872 53.604-20.44l.331-.04zm-.313.526.872 1.99c-21.99 2.776-41.2 12.98-49.319 17.836 3.672-2.941 10.124-7.642 22.06-12.649 16.338-6.852 26.163-7.17 26.387-7.177Zm17.329.072-.123.483c8.31 2.5 15.669 6.149 21.62 11.566l.088.08 1.895-.302-.343-.345s-8.357-8.384-23.094-11.47l-.022-.008v.002l-.021-.006zm7.423 2.72c9.09 3.405 14.208 8.036 14.978 8.775l-.666.106c-4.147-3.754-8.991-6.618-14.312-8.88Zm16.844 12.396c-.132-.014-.293.095-.343.205l-.002.004-.002.004c-.083.197-.063.394-.016.611.048.217.138.444.298.625.168.19.416.336.635.46.185.105.297.159.343.181.004.008.007.01.014.033l.047.16.165.018a.955.955 0 0 0 .214.006.33.33 0 0 0 .24-.123.322.322 0 0 0 .056-.251c-.009-.052-.019-.079-.025-.102l-.017-.062-.045-.047c-.213-.219-.5-.623-.762-.974a6.3 6.3 0 0 0-.376-.469 1.4 1.4 0 0 0-.179-.17.451.451 0 0 0-.245-.109zm.124.702c.084.098.173.207.275.344.075.101.159.195.238.302-.13-.085-.282-.178-.328-.23a.975.975 0 0 1-.185-.4c-.002-.008.001-.009 0-.016zm-20.839 6.375a.977.977 0 0 0-.968 1.02v9.675a.983.983 0 0 0 .974.958c.838.001 2.56-.002 2.56-.002h.249l-.002-1.247h-2.515l-.002-.185c0-.266-.003-.641-.003-1.09a1901.34 1901.34 0 0 1 .005-7.636l.002-.175c.484-.01 19.472-.012 19.883-.002l.002.189.002 1.089c.001.898.003 2.09.002 3.28 0 1.19-.004 2.38-.006 3.274-.001.447-.002.822-.004 1.085l-.002.175H88.804v1.25l.253-.003h17.012a.974.974 0 0 0 .964-1.01V57.522c-.006-.32-.278-.511-.532-.686v-.189l-.185-.05a1.166 1.166 0 0 0-.312-.034H85.57Zm.002.498H106.004c.076 0 .132.005.18.018h.002c.201.055.344.24.348.45v9.68a.47.47 0 0 1-.467.51H89.302v-.25h16.88l.05-.18.008-.041.002-.012v-.015l.002-.028v-.085l.002-.31.004-1.085c.002-.895.005-2.086.006-3.276 0-1.19 0-2.382-.002-3.28 0-.45 0-.825-.002-1.09 0-.134 0-.24-.002-.314v-.088l-.002-.027-.004-.043-.027-.164-.162-.039c-.044-.01-20.392-.016-20.469-.006l-.157.024-.047.152-.008.044-.002.014v.014l-.002.025v.086l-.002.308-.004 1.084a1920.215 1920.215 0 0 0-.002 6.555l.004 1.092.002.314v.09l.002.027.004.043.033.208h2.476l.002.25c-.28 0-1.556.002-2.31.001a.467.467 0 0 1-.475-.475v-9.659c0-.082.008-.144.029-.202a.472.472 0 0 1 .442-.32zm9.283 2.34-.07.132c-.004.008-.017.03-.027.058-.686 1.841-1.372 3.684-2.059 5.524l-.01.025a.242.242 0 0 0-.01.069l-.085-.127-2.03-2.955c.1-.114.198-.228.297-.345l.002-.002c.14-.161.275-.324.412-.484l.417-.485.415-.485h-.002c.138-.161.278-.321.425-.495l.346-.411h-.619c-.294 0-.585.003-.874 0h-.002c-.1 0-.247.065-.314.144l-1.76 2.08v-1.443c0-.172.002-.35 0-.53l-.005-.245h-1.396v6.003l.206.037c.048.008.058.006.09.007.031.002.07.002.113.002.086.002.195.003.302.002.106 0 .212 0 .296-.002.042 0 .079-.002.109-.003l.04-.002c.014-.002.017.002.061-.01l.185-.05v-.365l-.002-.002v-1.776l.238-.193.64.923.922 1.33c.014.022.038.058.088.094a.35.35 0 0 0 .188.058h.968c.072 0 .093-.013.094-.013l.267-.063.013.072h1.048l.21.21.131-.375.022-.059.002-.006.434-1.234.002-.002.025-.074h1.779l.496 1.375.059.165h1.497l-.124-.337c-.696-1.863-1.39-3.72-2.08-5.576l-.06-.162zm3.643.025-.043.196-.006.045-.002.022v.054l-.002.187-.004.635a574.303 574.303 0 0 0 .006 4.416l.002.183v.054l.002.02.002.015.002.014.008.037.054.173h3.681v-1.272h-1.817c-.133 0-.265.002-.393 0h-.144v-4.35h-.004c0-.066.003-.126-.002-.196l-.016-.233zm3.82.002v6.047h1.332l.054-.173a.363.363 0 0 0 .016-.097v-5.497a.408.408 0 0 1-.008-.054 2.06 2.06 0 0 1-.01-.059l-.008-.013v-.002l-.004-.006-.002-.002-.006-.012a.274.274 0 0 1-.01-.02 1.043 1.043 0 0 0-.018-.021l-.057-.05-.052-.026a.238.238 0 0 0-.033-.01l-.026-.006zm.91.307.01.043-.003-.006-.006-.037zm-8.051.164h.208l-.136.489-.014.05-.002.004v.004c-.064.231-.12.456-.19.665-.185.549-.377 1.095-.567 1.645v.002c-.006.017-.016.04-.026.072l-.095.322h2.285l-.092-.318-.02-.068-.001-.006-.002-.006c-.08-.23-.161-.458-.238-.685-.19-.558-.391-1.099-.538-1.646-.023-.086-.049-.1-.052-.105l-.275-.419h.396l1.893 5.078h-.43l-.497-1.375-.059-.166H94.49l-.002.002a.316.316 0 0 0-.218.06.298.298 0 0 0-.101.152v-.003l-.066.192v.002H94.1l-.4 1.136h-.419l1.894-5.078zm-3.755.02h.377l-.072.083h-.002c-.137.162-.272.324-.41.485l-.417.485c-.14.163-.277.324-.415.483v.002h-.002c-.137.162-.276.321-.421.49l-.125.145.107.158 1.876 2.73h-.446c-.292-.421-.586-.843-.878-1.267l-.75-1.08-.002-.003a1.238 1.238 0 0 0-.049-.066l-.148-.193-.195.144-.05.035-.006.004-.004.004c-.148.12-.294.242-.44.358a.445.445 0 0 0-.143.296v1.765l-.192.002h-.21v-5.055h.402V62.885l.42-.386c.018-.017.033-.028.06-.058l.002-.002.002-.002 2.13-2.518zm7.522.005h.397l.002.18v.249h.002v4.336l.236.013c.151.009.284.001.403.002h1.716v.275h-2.754v-.002a577.582 577.582 0 0 1-.002-5.043v-.01zm3.872.002h.405v5.051h-.405zm-7.308 1.362c.105.313.204.634.308.94.048.144.097.284.146.425h-.923c.157-.454.315-.907.469-1.365zm-3.177 3.69c-.033.008-.03.003.02.003h-.02z"/></svg>
