<svg xmlns="http://www.w3.org/2000/svg" viewBox="0 0 128 128"><filter id="a" width="1.137" height="1.27" x="-.069" y="-.135" color-interpolation-filters="sRGB"><feGaussianBlur stdDeviation="7.49"/></filter><path fill="#367bf0" d="M129.278 186.1a8.81 8.81 0 0 0-8.25 5.896c-.405 1.141-.523 2.297-.523 3.494v117.653c.138 4.902 3.972 8.724 8.83 8.736 10.182.013 31.15-.035 31.15-.035l-.037-9.106h-30.584c-.162-.978-.12-116.118.037-116.646.937-.13 247.478-.084 248.02.043.149.888.106 116.04-.057 116.646H171.68v9.106s.803 0 1.172.013h205.9a8.82 8.82 0 0 0 8.223-5.833c.405-1.11.521-2.253.521-3.422V194.772c-.077-3.894-2.727-7.315-6.476-8.35l-.006-.008c-.993-.266-1.984-.314-3.01-.314zm114.815 34.545c-.077.148-.134.256-.164.357-8.356 22.407-16.704 44.823-25.057 67.227-.037.036-.037.105-.037.148v.072c0 .03.036.043.043.077h11.47l.022.004c.089-.256.19-.475.268-.713 1.776-5.046 3.553-10.083 5.334-15.133a80 80 0 0 0 .86-2.444c.105-.34.277-.517.636-.474.116.013.25 0 .369 0h25.072c2.267 6.279 4.518 12.512 6.76 18.746h11.736a113693 113693 0 0 1-25.312-67.867zm-44.115.228c-.655 0-1.067.19-1.499.697-8.739 10.35-17.498 20.7-26.257 31.038-.117.132-.267.251-.52.484v-25.746c0-2.131.037-4.269 0-6.4h-10.99v67.507c.872.153 10.417.122 11.006-.037v-.86l-.03-.003v-23.547c0-.531.149-.904.583-1.24 1.818-1.439 3.613-2.919 5.408-4.387.179-.133.353-.251.576-.414.193.25.355.455.506.68 3.05 4.4 6.104 8.797 9.152 13.19 3.74 5.414 7.488 10.803 11.22 16.19.208.313.399.55.858.55 3.93-.014 7.858-.014 11.783-.014.13 0 .264-.043.471-.09-8.693-12.66-17.35-25.23-26.033-37.88 1.747-2.027 3.437-3.98 5.125-5.98a1766 1766 0 0 0 5.068-5.894c1.688-1.967 3.363-3.938 5.055-5.907 1.688-1.973 3.38-3.942 5.049-5.91a899 899 0 0 0 5.129-6.013h-.99c-3.558 0-7.113.02-10.67-.014zm89.06.07c-.183.845-.138 67.033.037 67.588h39.535v-9.404h-19.07c-1.603 0-3.22.014-4.816 0-1.574-.013-3.14.06-4.772-.035v-52.926l-.01-.01c0-1.748.066-3.481-.049-5.213zm47.094.022v67.549h10.95c.035-.114.064-.176.064-.252v-66.903h-.006a.9.9 0 0 0-.038-.3c0-.03-.037-.036-.037-.057 0-.013-.043-.037-.043-.037zm-86.16 9.455c.116.177.208.285.24.402 1.836 6.855 4.344 13.506 6.623 20.23.947 2.799 1.929 5.579 2.893 8.378l.234.81h-19.693c.087-.291.162-.542.248-.793 2.311-6.693 4.656-13.355 6.908-20.066.904-2.697 1.584-5.48 2.353-8.23.065-.209.106-.417.194-.731z" filter="url(#a)" opacity=".548" transform="translate(75.053 41.52) scale(.08238)"/><path fill="#2777ff" d="M85.703 56.686a.73.73 0 0 0-.68.486.8.8 0 0 0-.043.287v9.693a.73.73 0 0 0 .728.72l2.566-.003-.003-.75h-2.52c-.013-.081-.01-9.567.003-9.61.078-.01 20.388-.007 20.433.003.012.074.009 9.56-.005 9.61H89.196v.75l.097.001h16.962a.727.727 0 0 0 .72-.762V57.4a.73.73 0 0 0-.533-.689 1 1 0 0 0-.249-.026zm9.459 2.846-.014.03-2.064 5.537c-.003.003-.003.01-.003.013v.006l.003.006h.947l.022-.058.44-1.247q.037-.1.07-.201c.009-.028.023-.043.053-.04q.015.002.03 0h2.066l.557 1.545h.966l-2.085-5.591zm-3.635.019a.14.14 0 0 0-.123.057q-1.08 1.28-2.163 2.557l-.043.04v-2.121c0-.176.003-.352 0-.528h-.905v5.562c.071.013.858.01.906-.003v-.071h-.002v-1.94c0-.044.012-.075.048-.102q.224-.179.445-.362.022-.014.048-.034.024.03.041.056l.754 1.087.925 1.334c.017.025.033.045.07.045l.971-.001q.014-.001.039-.008c-.716-1.043-1.43-2.078-2.145-3.12.144-.167.283-.328.423-.493l.417-.486.416-.486q.21-.244.416-.487c.139-.16.276-.322.423-.495h-.082q-.44.001-.879-.001m7.337.005c-.015.07-.011 5.523.003 5.568h3.257v-.774h-1.967c-.13-.001-.26.005-.393-.003v-4.36l-.001-.001c0-.144.005-.287-.004-.43zm3.88.002v5.565h.902q.005-.014.005-.02V59.59q0-.013-.003-.025l-.003-.005-.004-.003zm-7.098.78q.015.02.02.032c.151.565.358 1.113.545 1.667l.239.69.019.067h-1.622l.02-.066c.19-.551.384-1.1.57-1.653.074-.222.13-.451.193-.678z"/><path fill="#2777ff" d="M64.913 33.836s-10.107.277-26.708 7.24c-16.917 7.098-26.075 15.76-26.075 15.76s24.614-16.953 53.861-20.54zm38.95 12.243 1.299-.209s-8.337-8.372-23.073-11.445c8.358 2.514 15.772 6.19 21.774 11.653zm2.493 3.57c.168-.367.953 1.026 1.503 1.59.032.12.074.191-.217.16-.036-.124-.08-.156-.08-.156s-.728-.345-.967-.616c-.238-.27-.324-.776-.239-.978M128 91.203s-.13-18.384-29.173-19.89a94 94 0 0 0-12.957.258c-22.933 2.467-26.293-24.24-9.118-27.222 7.115-1.267 16.041 1.794 24.779 4.904.066 1.042.196 1.962.96 2.751.763.79 3.473 1.473 4.357 1.875.883.402 3.729 1.856 5.576 3.843.294-.701 3.09-2.921 3.09-2.921s-.712.083-2.43-.382c-1.72-.464-3.868-2.156-3.924-2.26s-.104-.272.276-.386c.272-.276-.472-1.02-.794-1.287s-2.61-3.433-2.663-3.507c-.054-.073-.077-.149-.225-.229-.448-.099-2.325.422-2.325.422s-3.071-1.165-4.376-4.178c.066.543-.396 1.186.225 2.39-1.592-.504-3.01-1.484-4.305-4.116-.47 1.61.24 2.54.24 2.54s-3.7-.668-4.59-3.938c-.492 1.552.226 2.39.226 2.39s-6.165-2.513-15.934-1.638c-6.593.017-9.037-11.355-8.614-13.348 0 0-9.897-4.08-28.664-4.528C18.87 22.3 3.824 25.597 3.824 25.597s32.724-4.674 60.063 3.508c1.272 3.92 4.593 10.335 6.346 13.403-3.88 3.261-8.307 6.4-8.134 16.04.173 9.638 9.194 17.281 19.421 16.58 9.738-.397 16.439-.954 24.949 2.488 8.148 3.553 15.727 16.003 17.46 27.68-.14-8.772-5.172-27.188-20.955-31.437C124.637 75.58 128 91.203 128 91.203m-63.723-58.75-1-2.401s-12.865-1.055-29.763 1.757S0 42.193 0 42.193s34.313-12.154 64.276-9.74"/></svg>
