<?xml version="1.0" encoding="utf-8"?>
<!-- Generator: Adobe Illustrator 23.0.3, SVG Export Plug-In . SVG Version: 6.00 Build 0)  -->
<svg version="1.1" id="logo_x5F_firebase_x5F_192px_x5F_clr"
	 xmlns="http://www.w3.org/2000/svg" xmlns:xlink="http://www.w3.org/1999/xlink" x="0px" y="0px" viewBox="0 0 128 128"
	 style="enable-background:new 0 0 128 128;" xml:space="preserve">
<style type="text/css">
	.st0{fill:#01579B;}
	.st1{fill:#40C4FF;}
	.st2{fill:#29B6F6;}
	.st3{opacity:0.2;fill:#FFFFFF;enable-background:new    ;}
	.st4{opacity:0.2;fill:#263238;enable-background:new    ;}
	.st5{opacity:0.2;fill:url(#SVGID_1_);enable-background:new    ;}
</style>
<g>
	<path class="st0" d="M31.2,94.6L13.1,76.5c-2.1-2.2-3.5-5.3-3.5-8.3c0-1.4,0.8-3.6,1.4-4.9l16.7-34.8L31.2,94.6z"/>
	<path class="st1" d="M93.1,32L75,13.9c-1.6-1.6-4.9-3.5-7.6-3.5c-2.4,0-4.7,0.5-6.3,1.4L27.7,28.5L93.1,32z"/>
	<polygon class="st1" points="52.7,116.1 96.5,116.1 96.5,97.3 63.9,86.9 34,97.3 	"/>
	<path class="st2" d="M27.7,84.8c0,5.6,0.7,6.9,3.5,9.7l2.8,2.8h62.6L65.9,62.6L27.7,28.5V84.8z"/>
	<path class="st0" d="M83.3,28.5H27.7l68.8,68.8h18.8V54.2L93.1,32C89.9,28.9,87.2,28.5,83.3,28.5z"/>
	<path class="st3" d="M31.9,95.3c-2.8-2.8-3.5-5.5-3.5-10.4V29.2l-0.7-0.7v56.3C27.7,89.7,27.7,91.1,31.9,95.3l2.1,2.1l0,0
		L31.9,95.3z"/>
	<polygon class="st4" points="114.6,53.5 114.6,96.7 95.8,96.7 96.5,97.3 115.3,97.3 115.3,54.2 	"/>
	<path class="st3" d="M93.1,32c-3.4-3.4-6.3-3.5-10.4-3.5H27.7l0.7,0.7h54.2C84.7,29.2,89.9,28.9,93.1,32L93.1,32z"/>
	
		<radialGradient id="SVGID_1_" cx="62.464" cy="64.72" r="52.8377" gradientTransform="matrix(1 0 0 -1 0 128)" gradientUnits="userSpaceOnUse">
		<stop  offset="0" style="stop-color:#FFFFFF;stop-opacity:0.1"/>
		<stop  offset="1" style="stop-color:#FFFFFF;stop-opacity:0"/>
	</radialGradient>
	<path class="st5" d="M114.6,53.5L93.1,32L75,13.9c-1.6-1.6-4.9-3.5-7.6-3.5c-2.4,0-4.7,0.5-6.3,1.4L27.7,28.5L11,63.3
		c-0.6,1.3-1.4,3.5-1.4,4.9c0,3,1.3,6.1,3.5,8.3L29.8,93c0.4,0.5,0.9,1,1.4,1.5l0.7,0.7l2.1,2.1L52,115.4l0.7,0.7h43.1h0.7V97.3
		h18.8v0V54.2L114.6,53.5z"/>
</g>
</svg>
