<svg xmlns="http://www.w3.org/2000/svg" viewBox="0 0 128 128"><path fill="#00a8e1" d="M65.3 55.4c2.8 2.6 4.2 6.1 4.2 10.6s-1.4 8.1-4.1 10.8c-2.7 2.6-6.9 4-12.4 4h-9.8V51.7h10.1c5.2 0 9.2 1.2 12 3.7zm-4.8 17.3c1.6-1.5 2.4-3.7 2.4-6.6 0-2.9-.8-5.1-2.4-6.7-1.6-1.5-4.1-2.4-7.4-2.4h-3.8v18h4.2c3.1 0 5.4-.8 7-2.3zm32.1 8.1h-5.8V78c-1.7 2-3.6 3-6 3s-4.4-.7-6-2.1-2.4-3.2-2.4-5.5.8-4 2.5-5.1 4-1.7 6.9-1.7h4.6v-.2c0-2.4-1.2-3.6-3.8-3.6-1.1 0-2.2.2-3.4.6-1.2.4-2.2 1-3.1 1.6l-2.8-4.1c3-2.2 6.3-3.2 10.1-3.2 2.7 0 4.9.7 6.6 2.1 1.7 1.4 2.5 3.5 2.5 6.5v14.5h.1zm-6.3-8.6v-.9h-3.9c-2.5 0-3.8.7-3.8 2.2 0 .8.3 1.4.9 1.8s1.4.6 2.6.6c1.1 0 2.1-.3 2.9-1 .9-.7 1.3-1.6 1.3-2.7zm22.8-8.4c-1.9 0-3.4.6-4.3 2-.9 1.3-1.5 3.1-1.5 5.3v9.8h-6.2V58.4h6.2v2.9c.8-.9 2-1.7 3.2-2.3s2.6-1 3.9-1v5.9l-1.3-.1zm11.3-.9v9.9c0 .9.2 1.5.7 2 .4.5 1 .7 1.6.7 1.2 0 2.2-.5 3-1.6l2.3 4.4c-1.9 1.8-4 2.7-6.1 2.7-2.2 0-4-.7-5.5-2.1s-2.2-3.4-2.2-5.8V51.7h6.2V58h6.6l-3.4 5-3.2-.1zM23.1 76.5l2.8-1.3L7.1 56.4v13.9c0 .1 0 .3.1.5l15.9 5.7zm-.4-21.1c-.2 0-.4-.1-.6-.1H8.2L27 74.1l1.3-2.9-5.6-15.8zm-1.2-1.6h.8c.4 0 .8.1 1.2.2h.1l-.6-1.5-3.8-3.8c-.9-.9-2.1-1.1-2.7-.6L8 53.8h13.5z"/><path fill="#00a8e1" d="M27.2 56.6c-.7-.7-1.9-1.4-3.1-1.7l5.8 16.4-1.7 3.9.4.4 3.9-1.3V61.9l-5.3-5.3zM5.7 70.3V56.2L.3 64.4c-.5.6-.3 1.8.6 2.7L4.6 71l1.2.4c-.1-.4-.1-.7-.1-1.1zm17.5 7.8l-.3-.1-15.7-5.6c.4 1 .9 2.1 1.6 2.7l5.5 5.4h12.2l1.4-4.6-4.7 2.2z"/></svg>