<svg xmlns="http://www.w3.org/2000/svg" viewBox="0 0 128 128"><path fill="#112a46" d="M87.219 16.403a3.6 3.6 0 0 0-1.415.183L2.748 42.803C.512 43.443-.444 45.68.195 47.6l15.97 44.123c.64 1.918 3.196 4.156 5.113 4.476l75.39 15.347c2.237.32 4.791-.635 6.069-2.553l24.598-38.37c1.278-1.919.64-4.16-1.277-5.438l-30.03-20.78c-1.917-1.278-3.51-3.84-3.83-6.078L89.96 19.144c-.24-1.678-1.379-2.636-2.741-2.74zm-9.622 9.263c1.063.075 1.18.912.221 2.11L58.973 51.12c-1.277 1.599-4.152 2.878-6.388 2.238l-35.143-7.035c-2.236-.32-2.236-1.278 0-1.917l58.78-18.547c.558-.16 1.02-.218 1.375-.193m6.72 2.702c.715-.128 1.287.448 1.487 1.647l7.03 65.228c.319 2.238-.64 2.554-1.918.635l-27.151-35.49c-1.278-1.599-1.278-4.475 0-6.074l19.165-24.94c.48-.6.959-.93 1.387-1.006M10.275 50.114q.36-.014.779.045l41.21 8.632c2.236.32 5.111 2.236 6.389 3.835l29.71 38.69c1.278 1.6.639 2.878-1.597 2.239L25.749 91.402c-2.237-.32-4.473-2.558-5.112-4.476L8.5 53.038c-.56-1.679.101-2.867 1.774-2.924Zm84.874.995c.489-.043 1.122.167 1.84.647l21.72 15.031c1.916 1.28 2.24 3.834 1.281 5.433l-18.21 28.135c-1.277 1.918-2.238 1.602-2.558-.636L94.11 53.36c-.2-1.4.225-2.178 1.04-2.25z"/></svg>
