<svg xmlns="http://www.w3.org/2000/svg" viewBox="0 0 128 128"><path fill="#112a46" d="M87.087 16.27a4.1 4.1 0 0 0-1.591.203L3.082 42.486H3.08c-2.476.71-3.582 3.24-2.865 5.395l.002.005 15.848 43.782c.361 1.086 1.204 2.155 2.205 3.032s2.156 1.559 3.257 1.742l-.018-.002 74.834 15.233.013.002c2.409.345 5.11-.655 6.505-2.75l.004-.004 24.409-38.074.002-.004c1.404-2.112.675-4.687-1.402-6.076l-.006-.004-29.799-20.62-.004-.002c-1.752-1.17-3.291-3.644-3.584-5.688v-.002l-2.22-19.03v-.006c-.266-1.858-1.612-3.026-3.174-3.146zm-.077.99c1.142.087 2.056.82 2.267 2.293v.002l2.22 19.03.002.006c.342 2.394 1.962 5 4.01 6.37l29.805 20.624.004.004c1.722 1.149 2.255 3.016 1.128 4.708l-.002.004-24.409 38.074c-1.14 1.713-3.508 2.608-5.537 2.318L21.699 95.466l-.01-.002c-.8-.134-1.864-.721-2.765-1.51-.902-.79-1.645-1.781-1.917-2.6l-.002-.005L1.15 47.555l.006.012c-.55-1.654.238-3.566 2.198-4.127l.008-.002 82.435-26.022h.004a3.1 3.1 0 0 1 1.208-.157zm-10.006 8.164v.11c-.319.026-.617.027-1.006.138l-.006.002-58.326 18.404h-.002l-.01.004c-.58.166-1.033.353-1.374.58-.345.227-.638.527-.638.962 0 .436.326.745.684.93s.816.31 1.405.394l-.027-.004 34.837 6.972c1.248.357 2.615.175 3.84-.29s2.316-1.215 3.023-2.1l18.703-23.164v-.002c.517-.647.817-1.23.748-1.832a1.15 1.15 0 0 0-.445-.779c-.247-.183-.547-.266-.875-.289zm.462 1.027c.2.014.31.064.352.095s.043.03.05.095c.016.129-.102.557-.536 1.1l-18.7 23.165-.003.002c-.56.702-1.528 1.382-2.6 1.79-1.074.407-2.243.54-3.215.263l-.019-.006-34.908-6.988-.014-.002c-.52-.074-.895-.188-1.091-.29-.197-.102-.148-.13-.148-.05 0 .078-.016.003.194-.136.21-.14.588-.308 1.11-.458l.007-.002 58.327-18.404c.516-.147.926-.193 1.194-.174m6.615 1.698c-.605.108-1.156.527-1.677 1.178l-.002.002-19.016 24.748c-.725.907-1.06 2.12-1.06 3.324 0 1.205.335 2.416 1.06 3.323l-.008-.008 26.927 35.195v.002c.336.505.656.877.984 1.132.33.255.722.428 1.13.293.41-.135.62-.527.702-.928.083-.402.075-.884-.01-1.476l-6.975-64.729-.002-.013c-.11-.658-.32-1.19-.671-1.568a1.54 1.54 0 0 0-1.382-.475m.176.977c.205-.037.317-.001.477.172s.33.525.419 1.055l.002.002 6.974 64.711v.01c.074.52.067.91.021 1.132s-.095.205-.043.188-.013.016-.209-.136-.47-.452-.767-.9l-.01-.013L64.163 60.11l-.002-.004c-.543-.68-.843-1.688-.843-2.704 0-1.015.3-2.024.843-2.703l.002-.004L83.18 29.946c.43-.539.831-.776 1.077-.82M10.672 49.724c-.945.032-1.721.416-2.12 1.09-.399.673-.402 1.54-.095 2.463l.002.006L20.5 86.908v.002c.354 1.061 1.112 2.14 2.078 3.024.967.883 2.149 1.572 3.396 1.75l-.027-.004 60.554 12.06-.039-.01c.603.172 1.122.227 1.574.157s.854-.288 1.082-.645c.227-.358.253-.8.145-1.225s-.342-.858-.692-1.295L59.091 62.33l-.004-.004c-1.374-1.718-4.221-3.64-6.656-3.988l-40.883-8.564-.015-.002a5 5 0 0 0-.86-.048zm84.203.988a1.61 1.61 0 0 0-1.296.9c-.246.507-.29 1.142-.183 1.897l5.073 46v.007c.084.589.21 1.069.4 1.454.19.386.47.709.875.818.405.11.82-.04 1.165-.296.345-.258.668-.633 1.004-1.138l.002-.004 18.077-27.93.006-.009c1.095-1.826.71-4.627-1.417-6.053l-21.558-14.92-.002-.003c-.77-.513-1.483-.781-2.146-.723m-84.17.002a4 4 0 0 1 .683.041h.003l40.883 8.563.015.002c2.003.287 4.86 2.17 6.022 3.625l29.482 38.394.004.004c.284.355.445.677.506.916.06.24.026.371-.024.45s-.142.159-.393.198c-.252.039-.645.015-1.151-.13l-.02-.006-60.587-12.068-.011-.002c-.972-.139-2.011-.718-2.867-1.5s-1.526-1.765-1.807-2.607l-.002-.006L9.4 52.963c-.248-.744-.2-1.298.006-1.644.205-.346.585-.58 1.3-.605zm84.257.987c.307-.027.85.122 1.507.56l-.006-.006 21.557 14.921.002.002c1.67 1.114 1.928 3.38 1.122 4.724l-18.06 27.907c-.296.443-.568.739-.768.888s-.28.142-.312.134c-.032-.01-.129-.062-.246-.3-.118-.239-.232-.63-.306-1.152v-.002l-5.073-46.001v-.008c-.09-.633-.025-1.08.093-1.324s.235-.32.49-.343"/></svg>
