<svg xmlns="http://www.w3.org/2000/svg" viewBox="0 0 128 128"><path fill="#f73b95" d="M64.002 0c-35.34 0-64 28.66-64 64.002S28.662 128 64.002 128s63.996-28.656 63.996-63.996v-.002C127.998 28.662 99.344 0 64.002 0m0 .992c34.806 0 63.006 28.207 63.006 63.01v.002c0 34.804-28.201 63.004-63.006 63.004-34.803 0-63.01-28.2-63.01-63.006S29.2.992 64.002.992M63.998 12.7c-28.328 0-51.297 22.974-51.297 51.303 0 28.324 22.97 51.297 51.297 51.297 28.325 0 51.3-22.973 51.3-51.297 0-28.329-22.975-51.3-51.3-51.3zm0 .994c27.789 0 50.309 22.516 50.309 50.309 0 27.788-22.521 50.305-50.309 50.305-27.793 0-50.305-22.517-50.305-50.305 0-27.793 22.513-50.309 50.305-50.309m.004 11.711c-21.314 0-38.6 17.286-38.6 38.6 0 21.31 17.286 38.592 38.6 38.592 21.31 0 38.596-17.282 38.596-38.592 0-21.314-17.286-38.6-38.596-38.6m0 .992c20.773 0 37.603 16.83 37.603 37.608 0 20.773-16.83 37.6-37.603 37.6-20.778 0-37.607-16.827-37.607-37.6 0-20.778 16.83-37.608 37.607-37.608m-.004 11.706c-14.298 0-25.896 11.601-25.896 25.9 0 14.294 11.601 25.896 25.9 25.896 14.294 0 25.896-11.602 25.896-25.896 0-14.299-11.605-25.9-25.9-25.9m0 .992c13.758 0 24.908 11.146 24.908 24.908 0 13.757-11.147 24.904-24.904 24.904-13.762 0-24.908-11.147-24.908-24.904 0-13.762 11.142-24.908 24.904-24.908"/></svg>
