<svg viewBox="0 0 128 128" xmlns="http://www.w3.org/2000/svg"><path d="M64.146 27.264c-20.434 0-37.035 16.601-37.035 37.035 0 20.433 16.601 37.034 37.035 37.034 20.433 0 37.042-16.601 37.042-37.034 0-20.434-16.609-37.035-37.042-37.035zm0 3.555c18.512 0 33.486 14.968 33.486 33.48 0 18.512-14.974 33.479-33.486 33.479-18.512 0-33.48-14.967-33.48-33.48 0-18.511 14.968-33.479 33.48-33.479z"/><path d="M64.146 13.924c-27.797 0-50.368 22.578-50.368 50.375 0 27.796 22.571 50.368 50.368 50.368s50.375-22.572 50.375-50.368c0-27.797-22.578-50.375-50.375-50.375zm0 3.555c25.875 0 46.82 20.945 46.82 46.82S90.02 111.11 64.145 111.11 17.333 90.174 17.333 64.3c0-25.875 20.938-46.82 46.813-46.82z"/><path d="M64 1.778C29.656 1.778 1.778 29.656 1.778 64S29.656 126.222 64 126.222 126.222 98.344 126.222 64 98.344 1.778 64 1.778zm0 3.555c32.422 0 58.667 26.245 58.667 58.667S96.422 122.667 64 122.667 5.333 96.422 5.333 64 31.578 5.333 64 5.333z"/><path d="M63.854 38.52c-13.886 0-25.187 11.291-25.187 25.181 0 13.887 11.3 25.188 25.187 25.188s25.18-11.3 25.18-25.188c0-13.89-11.293-25.18-25.18-25.18zm0 3.556c11.965 0 21.625 9.656 21.625 21.625 0 11.965-9.66 21.632-21.625 21.632s-21.632-9.667-21.632-21.632c0-11.969 9.667-21.625 21.632-21.625z"/></svg>