<svg viewBox="0 0 128 128" xmlns="http://www.w3.org/2000/svg"><path d="M27.844 46.5a17.51 17.51 0 0 0-17.5 17.5 17.51 17.51 0 0 0 17.5 17.5 17.51 17.51 0 0 0 17.5-17.5c0-9.659-7.841-17.5-17.5-17.5zm0 1c9.118 0 16.5 7.381 16.5 16.5s-7.382 16.5-16.5 16.5-16.5-7.381-16.5-16.5 7.381-16.5 16.5-16.5zm.041 2.418c-7.818 0-14.166 6.348-14.166 14.166S20.067 78.25 27.885 78.25s14.168-6.348 14.168-14.166-6.35-14.166-14.168-14.166zm0 1c7.277 0 13.168 5.888 13.168 13.166a13.16 13.16 0 1 1-26.334 0 13.16 13.16 0 0 1 13.166-13.166zm0 2.75c-5.747 0-10.416 4.669-10.416 10.416S22.138 74.5 27.885 74.5s10.418-4.669 10.418-10.416-4.671-10.416-10.418-10.416zm0 1a9.41 9.41 0 1 1 0 18.832 9.408 9.408 0 1 1 0-18.832zm66.271 1.238v3.344h-2.312v2.344h2.313v6.625c0 2.093.438 3.5 1.344 4.25s2.188 1.125 3.844 1.125c.531 0 1-.032 1.406-.125l.594-.125v-2.469l-.594.063c-.406.063-.875.094-1.406.094-1.687 0-2.062-.876-2.062-2.812v-6.625h3.594V59.25h-3.594v-3.344h-3.125zm-38.562.313V73.5h7.188c3.312 0 5.813-.843 7.469-2.562 1.688-1.718 2.531-3.719 2.531-6.062s-.843-4.375-2.531-6.094c-1.656-1.719-4.157-2.562-7.469-2.562h-7.187zm-27.791.613a7.092 7.092 0 0 0-7.084 7.084A7.092 7.092 0 0 0 27.803 71c3.906 0 7.082-3.178 7.082-7.084s-3.176-7.084-7.082-7.084zm0 1a6.075 6.075 0 1 1 0 12.168 6.077 6.077 0 1 1 0-12.168zm30.979.949h4c2.25 0 3.937.594 5.031 1.75 1.125 1.188 1.688 2.625 1.688 4.344 0 1.687-.561 3.126-1.687 4.313-1.093 1.157-2.781 1.75-5.031 1.75h-4V58.781zm23.906.156c-4.469 0-7.344 3.063-7.344 7.438 0 4.344 2.75 7.438 7.531 7.438 3.188 0 5.75-1.531 6.875-4.406h-3.531c-.781 1.219-1.875 1.844-3.344 1.844-2.437 0-4-1.563-4.281-4H90v-.875c0-4.281-2.876-7.437-7.312-7.437zm28 .094c-2.094 0-3.719.438-4.844 1.344-1.156.906-1.719 2-1.719 3.281h3.188c0-1.5 1.687-2.062 3.375-2.062 2.125 0 3.438.751 3.438 2.719v.875h-3.844c-3.782 0-6.719.968-6.719 4.156 0 2.938 2.25 4.469 5.594 4.469 2.156 0 3.688-.532 4.594-1.594l.438-.531c0 .594.25 1.499.344 1.813h3.125v-.25l-.219-.687c-.125-.468-.187-1.188-.187-2.187v-5.5c0-4.188-2.376-5.844-6.562-5.844zm-28 2.469c2.281 0 3.687 1.501 4.031 3.688h-8.094c.344-2.156 1.719-3.687 4.063-3.687zm27.594 5.75l3.844.031c0 2.844-1.437 4.313-4.156 4.313-1.781 0-3.217-.594-3.217-2.094 0-1.719 1.561-2.219 3.529-2.25z"/></svg>
