<svg width="128" height="128" viewBox="0 0 128 128" fill="none" xmlns="http://www.w3.org/2000/svg">
<g clip-path="url(#clip0_1_36)">
<mask id="mask0_1_36" style="mask-type:alpha" maskUnits="userSpaceOnUse" x="0" y="0" width="128" height="128">
<path fill-rule="evenodd" clip-rule="evenodd" d="M90.7672 127.126C92.7832 127.911 95.082 127.861 97.1168 126.882L123.47 114.201C126.239 112.869 128 110.066 128 106.992V21.0091C128 17.9345 126.239 15.132 123.47 13.7995L97.1168 1.11848C94.4463 -0.16649 91.3211 0.148248 88.9773 1.85217C88.6426 2.09558 88.3236 2.36735 88.0243 2.66684L37.5745 48.6932L15.5996 32.0124C13.5539 30.4596 10.6926 30.5868 8.79274 32.3151L1.74468 38.7264C-0.579266 40.8403 -0.58193 44.4963 1.73892 46.6138L20.7963 64.0002L1.73892 81.3866C-0.58193 83.504 -0.579266 87.1601 1.74468 89.2741L8.79274 95.6853C10.6926 97.4136 13.5539 97.5408 15.5996 95.9879L37.5745 79.3072L88.0243 125.333C88.8224 126.132 89.7595 126.733 90.7672 127.126ZM96.0195 34.9427L57.7396 64.0002L96.0195 93.0576V34.9427Z" fill="white"/>
</mask>
<g mask="url(#mask0_1_36)">
<path d="M123.471 13.8191L97.0968 1.12062C94.044 -0.349227 90.3958 0.270784 88 2.66658L1.66217 81.3864C-0.660099 83.5037 -0.657429 87.1599 1.66793 89.2738L8.72027 95.685C10.6213 97.4133 13.4844 97.5405 15.5313 95.9878L119.502 17.1134C122.99 14.4672 128 16.9551 128 21.3333V21.0271C128 17.9538 126.239 15.1523 123.471 13.8191Z" fill="#0065A9"/>
<g filter="url(#filter0_d_1_36)">
<path d="M123.471 114.181L97.0968 126.879C94.044 128.349 90.3958 127.729 88 125.333L1.66217 46.6136C-0.660099 44.4962 -0.657429 40.84 1.66793 38.7261L8.72027 32.3148C10.6213 30.5865 13.4844 30.4593 15.5313 32.0121L119.502 110.886C122.99 113.533 128 111.045 128 106.667V106.973C128 110.046 126.239 112.848 123.471 114.181Z" fill="#007ACC"/>
</g>
<g filter="url(#filter1_d_1_36)">
<path d="M97.098 126.882C94.0443 128.351 90.396 127.729 88 125.333C90.9522 128.285 96 126.194 96 122.019V5.98025C96 1.80522 90.9522 -0.285655 88 2.66653C90.396 0.270515 94.0443 -0.350372 97.098 1.11817L123.467 13.7992C126.238 15.1317 128 17.9343 128 21.0088V106.991C128 110.066 126.238 112.869 123.467 114.201L97.098 126.882Z" fill="#1F9CF0"/>
</g>
<g style="mix-blend-mode:overlay" opacity="0.25">
<path fill-rule="evenodd" clip-rule="evenodd" d="M90.6894 127.126C92.7054 127.911 95.0043 127.861 97.039 126.882L123.392 114.201C126.161 112.869 127.922 110.066 127.922 106.991V21.0089C127.922 17.9342 126.161 15.1317 123.392 13.7992L97.039 1.11823C94.3686 -0.166741 91.2432 0.147997 88.8994 1.85191C88.5647 2.09533 88.2457 2.3671 87.9465 2.66659L37.4967 48.6929L15.5218 32.0122C13.4762 30.4593 10.6148 30.5867 8.71493 32.3148L1.66687 38.726C-0.657079 40.8401 -0.659742 44.4962 1.66111 46.6135L20.7185 63.9999L1.66111 81.3864C-0.659742 83.5038 -0.657079 87.1598 1.66687 89.2738L8.71493 95.685C10.6148 97.4133 13.4762 97.5405 15.5218 95.9877L37.4967 79.3069L87.9465 125.333C88.7446 126.132 89.6816 126.733 90.6894 127.126ZM95.9416 34.9425L57.6618 63.9999L95.9416 93.0574V34.9425Z" fill="url(#paint0_linear_1_36)"/>
</g>
</g>
</g>
<defs>
<filter id="filter0_d_1_36" x="-8.41115" y="22.5944" width="144.744" height="113.408" filterUnits="userSpaceOnUse" color-interpolation-filters="sRGB">
<feFlood flood-opacity="0" result="BackgroundImageFix"/>
<feColorMatrix in="SourceAlpha" type="matrix" values="0 0 0 0 0 0 0 0 0 0 0 0 0 0 0 0 0 0 127 0" result="hardAlpha"/>
<feOffset/>
<feGaussianBlur stdDeviation="4.16667"/>
<feColorMatrix type="matrix" values="0 0 0 0 0 0 0 0 0 0 0 0 0 0 0 0 0 0 0.25 0"/>
<feBlend mode="overlay" in2="BackgroundImageFix" result="effect1_dropShadow_1_36"/>
<feBlend mode="normal" in="SourceGraphic" in2="effect1_dropShadow_1_36" result="shape"/>
</filter>
<filter id="filter1_d_1_36" x="79.6667" y="-8.0035" width="56.6667" height="144.007" filterUnits="userSpaceOnUse" color-interpolation-filters="sRGB">
<feFlood flood-opacity="0" result="BackgroundImageFix"/>
<feColorMatrix in="SourceAlpha" type="matrix" values="0 0 0 0 0 0 0 0 0 0 0 0 0 0 0 0 0 0 127 0" result="hardAlpha"/>
<feOffset/>
<feGaussianBlur stdDeviation="4.16667"/>
<feColorMatrix type="matrix" values="0 0 0 0 0 0 0 0 0 0 0 0 0 0 0 0 0 0 0.25 0"/>
<feBlend mode="overlay" in2="BackgroundImageFix" result="effect1_dropShadow_1_36"/>
<feBlend mode="normal" in="SourceGraphic" in2="effect1_dropShadow_1_36" result="shape"/>
</filter>
<linearGradient id="paint0_linear_1_36" x1="63.9222" y1="0.329902" x2="63.9222" y2="127.67" gradientUnits="userSpaceOnUse">
<stop stop-color="white"/>
<stop offset="1" stop-color="white" stop-opacity="0"/>
</linearGradient>
<clipPath id="clip0_1_36">
<rect width="128" height="128" fill="white"/>
</clipPath>
</defs>
</svg>
