<svg width="128" height="128" viewBox="0 0 128 128" fill="none" xmlns="http://www.w3.org/2000/svg">
<g clip-path="url(#clip0_1_48)">
<path fill-rule="evenodd" clip-rule="evenodd" d="M90.7672 127.126C92.7832 127.911 95.082 127.861 97.1168 126.882L123.47 114.201C126.239 112.869 128 110.066 128 106.992V21.0091C128 17.9345 126.239 15.132 123.47 13.7995L97.1168 1.11848C94.4463 -0.16649 91.3211 0.148248 88.9773 1.85217C88.6426 2.09558 88.3236 2.36735 88.0243 2.66684L37.5745 48.6932L15.5996 32.0124C13.5539 30.4596 10.6926 30.5868 8.79274 32.3151L1.74468 38.7264C-0.579266 40.8403 -0.58193 44.4963 1.73892 46.6138L20.7963 64.0002L1.73892 81.3866C-0.58193 83.504 -0.579266 87.1601 1.74468 89.2741L8.79274 95.6853C10.6926 97.4136 13.5539 97.5408 15.5996 95.9879L37.5745 79.3072L88.0243 125.333C88.8224 126.132 89.7595 126.733 90.7672 127.126ZM96.0195 34.9427L57.7396 64.0002L96.0195 93.0576V34.9427Z" fill="black"/>
</g>
<defs>
<clipPath id="clip0_1_48">
<rect width="128" height="128" fill="white"/>
</clipPath>
</defs>
</svg>
