<svg xmlns="http://www.w3.org/2000/svg" viewBox="0 0 128 128"><mask id="a" width="108" height="108" x="10" y="0" maskUnits="userSpaceOnUse" style="mask-type:alpha"><path fill="#fff" fill-rule="evenodd" d="M86.585 107.263c1.7.662 3.64.62 5.357-.206l22.236-10.7A6.75 6.75 0 0 0 118 90.274V17.726a6.751 6.751 0 0 0-3.822-6.083L91.942.943a6.724 6.724 0 0 0-7.671 1.307L41.703 41.085 23.163 27.01a4.495 4.495 0 0 0-5.744.256l-5.947 5.41a4.502 4.502 0 0 0-.005 6.654L27.547 54l-16.08 14.67a4.502 4.502 0 0 0 .005 6.655l5.947 5.41a4.495 4.495 0 0 0 5.743.255l18.541-14.075L84.27 105.75a6.724 6.724 0 0 0 2.315 1.513Zm4.431-77.78L58.718 54l32.298 24.517V29.483Z" clip-rule="evenodd"/></mask><path fill="#0877b9" fill-rule="evenodd" d="M35.206 124.462c-.35 0-.657.028-.916.087-.262.058-.479.15-.65.266-.159.106-.29.25-.379.421a1.287 1.287 0 0 0-.12.565c0 .363.117.655.346.87.235.214.558.32.974.32.33.003.654-.085.938-.253.29-.175.59-.437.91-.79v-1.486zm35.719-3.069c-.329 0-.608.08-.837.238a1.796 1.796 0 0 0-.557.616 2.992 2.992 0 0 0-.313.864 5.08 5.08 0 0 0-.096.984c0 .35.025.695.084 1.037.053.337.149.636.283.898.133.264.316.476.537.633.224.158.503.238.845.238.17 0 .333-.026.49-.07.175-.054.342-.132.492-.234a3.7 3.7 0 0 0 .522-.425c.206-.202.4-.418.578-.646v-2.805c-.35-.432-.688-.762-1.013-.987a1.756 1.756 0 0 0-1.015-.34Zm12.989-.03c-.384 0-.712.068-.987.205a1.805 1.805 0 0 0-.682.57 2.714 2.714 0 0 0-.397.878c-.09.363-.132.736-.127 1.109 0 .387.031.745.103 1.082.07.34.192.637.354.886.166.254.387.454.666.6.279.148.624.224 1.041.224.374 0 .703-.07.982-.204.28-.137.504-.325.683-.57.179-.24.313-.533.395-.874a4.647 4.647 0 0 0 .125-1.115c0-.38-.032-.738-.107-1.075a2.697 2.697 0 0 0-.35-.89 1.776 1.776 0 0 0-.659-.604c-.277-.146-.623-.222-1.04-.222zm-6.39-.965c.128 0 .237.004.32.013a.83.83 0 0 1 .195.05c.04.016.075.041.1.074a.182.182 0 0 1 .03.105v7.019a.172.172 0 0 1-.03.103.246.246 0 0 1-.1.075.877.877 0 0 1-.195.046c-.21.02-.422.02-.633 0a.91.91 0 0 1-.199-.045.202.202 0 0 1-.1-.075.205.205 0 0 1-.03-.104v-7.02a.234.234 0 0 1 .03-.104c.016-.028.05-.053.1-.074a.857.857 0 0 1 .2-.05c.083-.01.187-.013.312-.013zm-16.668 0c.124 0 .228.004.31.013a.497.497 0 0 1 .2.046.27.27 0 0 1 .107.074.192.192 0 0 1 .032.109v4.084c0 .412.028.74.087.987a1.918 1.918 0 0 0 .274.632c.12.174.275.309.462.405.188.094.409.145.658.145.32 0 .641-.112.962-.342.32-.229.658-.565 1.02-1.008v-4.904a.23.23 0 0 1 .025-.107.239.239 0 0 1 .104-.074.538.538 0 0 1 .2-.048c.078-.007.187-.011.316-.011.125 0 .23.003.312.012a.464.464 0 0 1 .196.045c.04.017.075.043.104.075a.16.16 0 0 1 .033.109v7.019a.202.202 0 0 1-.025.103.206.206 0 0 1-.096.075.894.894 0 0 1-.18.045c-.192.022-.382.022-.572 0a.659.659 0 0 1-.18-.044.192.192 0 0 1-.092-.075.2.2 0 0 1-.02-.104v-.93c-.404.443-.8.762-1.186.967a2.547 2.547 0 0 1-1.186.304c-.467 0-.864-.08-1.183-.233a2.043 2.043 0 0 1-.775-.637 2.473 2.473 0 0 1-.424-.938 5.503 5.503 0 0 1-.128-1.294v-4.258c0-.043.007-.08.027-.11a.215.215 0 0 1 .105-.074.536.536 0 0 1 .203-.047c.084-.007.184-.01.31-.01zm-35.933 0c.126 0 .23.004.313.013a.497.497 0 0 1 .2.046c.04.017.074.042.103.074.021.032.032.07.03.109v4.084c0 .412.029.74.092.987.057.249.149.458.27.632.125.174.28.309.466.405.188.094.405.145.653.145.325 0 .646-.112.967-.342.316-.229.658-.565 1.016-1.008v-4.904c0-.04.008-.078.028-.107a.215.215 0 0 1 .105-.074.497.497 0 0 1 .2-.048c.105-.01.21-.013.316-.011.121 0 .224.003.309.012a.475.475 0 0 1 .195.045.378.378 0 0 1 .108.075.192.192 0 0 1 .032.109v7.019a.172.172 0 0 1-.028.103.206.206 0 0 1-.096.075.77.77 0 0 1-.181.045 2.43 2.43 0 0 1-.572 0 .748.748 0 0 1-.18-.044c-.045-.022-.074-.047-.085-.075a.202.202 0 0 1-.027-.104v-.93c-.398.443-.795.762-1.186.967-.362.197-.77.301-1.183.304-.469 0-.861-.08-1.183-.233a2.089 2.089 0 0 1-.778-.637 2.608 2.608 0 0 1-.424-.938 5.726 5.726 0 0 1-.128-1.294v-4.258c0-.043.008-.08.028-.11a.239.239 0 0 1 .104-.074.537.537 0 0 1 .204-.047c.083-.007.187-.01.313-.01v-.001zm-9.95 0a3.2 3.2 0 0 1 .321.013.794.794 0 0 1 .192.05.233.233 0 0 1 .103.074c.022.033.03.067.03.105v7.019a.173.173 0 0 1-.03.103.233.233 0 0 1-.103.075.847.847 0 0 1-.192.046c-.21.02-.422.02-.632 0a.92.92 0 0 1-.2-.045.202.202 0 0 1-.1-.075.17.17 0 0 1-.03-.104v-7.02c0-.037.01-.073.03-.104.017-.028.05-.053.1-.074a.857.857 0 0 1 .2-.05c.082-.01.188-.013.312-.013zm68.99-.112c.58 0 1.083.086 1.512.258.413.159.78.416 1.07.75.288.327.499.724.645 1.194.142.467.213.995.213 1.582 0 .57-.075 1.098-.226 1.578a3.457 3.457 0 0 1-.673 1.245 3.059 3.059 0 0 1-1.125.816c-.45.195-.97.29-1.561.29-.579 0-1.082-.087-1.511-.257a2.707 2.707 0 0 1-1.07-.75 3.155 3.155 0 0 1-.642-1.19 5.526 5.526 0 0 1-.212-1.59c0-.575.075-1.099.225-1.582a3.368 3.368 0 0 1 .671-1.24 2.98 2.98 0 0 1 1.12-.813c.445-.195.97-.291 1.566-.291zm-49.145 0c.505 0 .934.059 1.287.175.355.112.641.279.858.504.216.22.375.49.474.82.1.328.15.711.15 1.148v4.733c0 .064-.02.109-.062.139a.433.433 0 0 1-.17.07c-.107.02-.213.028-.322.025a1.65 1.65 0 0 1-.324-.025.387.387 0 0 1-.175-.07c-.037-.03-.053-.075-.053-.139v-.703a3.471 3.471 0 0 1-1.03.767 2.739 2.739 0 0 1-1.193.27c-.371 0-.703-.046-1.004-.146a2.15 2.15 0 0 1-.762-.416 1.804 1.804 0 0 1-.49-.671 2.227 2.227 0 0 1-.176-.903c0-.394.079-.74.242-1.028.164-.298.402-.548.69-.728a3.416 3.416 0 0 1 1.109-.433 6.906 6.906 0 0 1 1.473-.142h.97v-.545c0-.271-.03-.513-.088-.72a1.259 1.259 0 0 0-.275-.517 1.23 1.23 0 0 0-.495-.312 2.291 2.291 0 0 0-.75-.109c-.315 0-.603.043-.852.118-.228.065-.451.149-.666.25-.188.086-.347.17-.476.244-.124.08-.22.117-.282.117a.189.189 0 0 1-.109-.034.254.254 0 0 1-.083-.091.416.416 0 0 1-.05-.162 1.125 1.125 0 0 1-.017-.214c0-.127.008-.232.03-.306a.479.479 0 0 1 .128-.217c.071-.067.191-.146.362-.237.176-.092.37-.175.597-.25a5.53 5.53 0 0 1 .73-.187c.266-.05.535-.075.804-.075zm-14.99 0c.187 0 .375.016.561.05.188.029.354.07.509.116a1.988 1.988 0 0 1 .624.295c.043.03.082.067.113.11a.426.426 0 0 1 .037.108c.01.037.017.083.025.14.01.148.01.296 0 .443a.487.487 0 0 1-.042.158c-.016.041-.037.074-.067.091a.156.156 0 0 1-.083.03c-.05 0-.116-.03-.202-.088a2.46 2.46 0 0 0-.341-.184 3.908 3.908 0 0 0-.497-.183 2.256 2.256 0 0 0-.653-.086 2.019 2.019 0 0 0-.576.074 1.119 1.119 0 0 0-.411.214.874.874 0 0 0-.242.318 1.017 1.017 0 0 0-.079.408c0 .2.05.371.155.509.103.141.24.262.407.365.163.1.354.196.566.28l.654.258c.22.087.437.187.653.296.217.108.409.242.576.394.166.16.298.346.398.563.1.22.155.48.155.783 0 .358-.067.679-.2.957a1.995 1.995 0 0 1-.566.712 2.525 2.525 0 0 1-.874.433 3.911 3.911 0 0 1-1.116.15c-.245 0-.487-.021-.712-.059a3.72 3.72 0 0 1-.607-.149 2.85 2.85 0 0 1-.459-.187 1.186 1.186 0 0 1-.27-.175.424.424 0 0 1-.126-.217 1.92 1.92 0 0 1-.025-.633.874.874 0 0 1 .043-.163.192.192 0 0 1 .062-.09.201.201 0 0 1 .099-.026c.059 0 .142.033.256.105.11.07.248.145.411.229.162.083.357.162.582.233.222.066.48.103.77.103.217 0 .416-.024.592-.07.165-.04.322-.11.461-.209a.906.906 0 0 0 .3-.345 1.11 1.11 0 0 0 .104-.5.826.826 0 0 0-.149-.499 1.54 1.54 0 0 0-.405-.358 3.547 3.547 0 0 0-.56-.279 65.496 65.496 0 0 1-.642-.25 7.673 7.673 0 0 1-.65-.304 2.39 2.39 0 0 1-.562-.407 1.89 1.89 0 0 1-.404-.576 1.962 1.962 0 0 1-.149-.802 1.886 1.886 0 0 1 .637-1.457c.214-.188.48-.341.8-.454a3.274 3.274 0 0 1 1.119-.175zm36.04-1.77c.128 0 .236.01.32.017a.806.806 0 0 1 .196.05c.04.018.074.047.1.083a.168.168 0 0 1 .032.1v1.67h1.8a.207.207 0 0 1 .112.03.217.217 0 0 1 .079.09.43.43 0 0 1 .05.167c.013.07.016.154.016.25 0 .187-.025.324-.07.408-.046.083-.11.124-.187.124h-1.8v3.914c0 .484.071.85.214 1.094.145.246.399.371.77.371.117 0 .223-.013.32-.033a3.975 3.975 0 0 0 .246-.075 1.545 1.545 0 0 0 .186-.074.343.343 0 0 1 .142-.034c.025 0 .05.005.074.017a.129.129 0 0 1 .055.074 1.212 1.212 0 0 1 .05.383c0 .15-.008.27-.03.358a.41.41 0 0 1-.095.196.626.626 0 0 1-.188.117 1.641 1.641 0 0 1-.282.091 7.373 7.373 0 0 1-.341.059 3.35 3.35 0 0 1-.358.02 2.77 2.77 0 0 1-.938-.14 1.513 1.513 0 0 1-.636-.438 1.788 1.788 0 0 1-.363-.742 4.387 4.387 0 0 1-.113-1.057v-4.1h-.98c-.08 0-.143-.042-.189-.125-.05-.084-.07-.221-.07-.409 0-.095.004-.179.017-.249a.957.957 0 0 1 .053-.166.194.194 0 0 1 .08-.092.207.207 0 0 1 .112-.03h.979v-1.669c0-.037.007-.071.024-.099a.245.245 0 0 1 .104-.085.778.778 0 0 1 .197-.05c.103-.01.207-.016.312-.016zm-51.06-.803c.145 0 .258.004.346.013a.847.847 0 0 1 .199.04.262.262 0 0 1 .104.084.637.637 0 0 1 .066.13l2.894 8.493h.009l2.813-8.477a.731.731 0 0 1 .053-.142.213.213 0 0 1 .11-.086.972.972 0 0 1 .22-.043c.253-.02.507-.016.758.009.092.013.154.037.187.075.038.038.05.088.043.158-.015.096-.04.19-.075.28l-3.289 9.37a.375.375 0 0 1-.087.142.375.375 0 0 1-.155.087 1.1 1.1 0 0 1-.25.042 4.896 4.896 0 0 1-.374.012c-.118 0-.217-.004-.304-.004a1.699 1.699 0 0 1-.378-.053.283.283 0 0 1-.114-.054.206.206 0 0 1-.075-.072.37.37 0 0 1-.05-.107l-3.3-9.372a1.044 1.044 0 0 1-.067-.279c0-.07.022-.12.066-.158a.485.485 0 0 1 .23-.071c.1-.01.241-.016.42-.016zm45.472-.1c.446.002.889.075 1.311.216.2.063.38.138.538.217.155.08.258.146.31.196a.58.58 0 0 1 .095.116c.018.034.031.07.036.109a.838.838 0 0 1 .025.162c.004.063.008.141.008.242 0 .091-.004.174-.012.245a1.43 1.43 0 0 1-.032.186.252.252 0 0 1-.068.109.166.166 0 0 1-.1.033c-.053 0-.146-.036-.266-.107a7.966 7.966 0 0 0-.45-.247 3.808 3.808 0 0 0-.629-.25 2.747 2.747 0 0 0-.816-.111c-.277 0-.524.037-.731.113a1.437 1.437 0 0 0-.512.298 1.164 1.164 0 0 0-.305.446 1.51 1.51 0 0 0-.104.545c0 .28.066.525.196.725.128.204.303.384.52.537.217.158.462.299.737.433.275.129.554.258.842.391.285.133.565.28.84.437.279.159.524.346.737.563.218.22.396.477.524.76.134.297.2.642.2 1.042 0 .474-.088.895-.263 1.266a2.739 2.739 0 0 1-.724.94 3.128 3.128 0 0 1-1.095.58 4.55 4.55 0 0 1-1.353.195c-.337 0-.65-.03-.937-.088a4.853 4.853 0 0 1-.774-.209 3.674 3.674 0 0 1-.565-.256 1.423 1.423 0 0 1-.321-.225.551.551 0 0 1-.134-.238 1.403 1.403 0 0 1-.042-.388c0-.116.005-.208.014-.282a.798.798 0 0 1 .049-.188.205.205 0 0 1 .074-.096.244.244 0 0 1 .113-.024c.072 0 .176.041.31.129.127.091.298.187.507.292.207.103.458.199.753.29.33.098.675.143 1.02.138.27.001.537-.038.795-.117a1.908 1.908 0 0 0 .624-.333c.175-.141.31-.316.405-.528a1.716 1.716 0 0 0 .141-.709 1.332 1.332 0 0 0-.196-.731 1.953 1.953 0 0 0-.516-.533 4.295 4.295 0 0 0-.729-.42l-.836-.392a9.15 9.15 0 0 1-.837-.441 3.49 3.49 0 0 1-.725-.571 2.673 2.673 0 0 1-.52-.766 2.624 2.624 0 0 1-.196-1.058c0-.42.075-.795.23-1.127.153-.33.366-.604.637-.829a2.846 2.846 0 0 1 .978-.512 4.11 4.11 0 0 1 1.22-.175zm27.251-.109c.3 0 .508.05.621.16.112.107.167.308.167.602 0 .305-.058.509-.17.616-.118.113-.326.168-.634.168-.298 0-.507-.055-.62-.163-.113-.104-.166-.308-.166-.604 0-.299.057-.507.17-.616.117-.108.325-.163.632-.163zm-62.548 0c.298 0 .507.05.62.16.108.107.165.308.165.602 0 .305-.057.509-.17.616-.116.113-.328.168-.632.168-.305 0-.508-.055-.62-.163-.113-.104-.167-.308-.167-.604 0-.299.054-.507.17-.616.113-.108.325-.163.633-.163zm58.606-.482c.129 0 .238.004.32.017.084.012.15.028.197.045a.236.236 0 0 1 .103.08.181.181 0 0 1 .039.108v10.387a.234.234 0 0 1-.03.107.214.214 0 0 1-.092.075 1.033 1.033 0 0 1-.179.043 2.157 2.157 0 0 1-.537 0 1.146 1.146 0 0 1-.18-.043.243.243 0 0 1-.098-.075.197.197 0 0 1-.034-.107v-.93c-.33.372-.719.689-1.15.938-.394.22-.83.333-1.306.333-.511 0-.954-.1-1.316-.3a2.451 2.451 0 0 1-.887-.812 3.615 3.615 0 0 1-.494-1.199 6.593 6.593 0 0 1-.155-1.458c0-.602.062-1.144.192-1.63.132-.488.324-.9.579-1.245.247-.338.572-.61.948-.792a2.94 2.94 0 0 1 1.304-.278 2.4 2.4 0 0 1 1.13.27c.34.18.677.446 1.01.791v-4.075c0-.038.008-.075.024-.109a.209.209 0 0 1 .105-.079c.164-.05.335-.072.507-.062zm-32.663-.033c.13 0 .235.004.317.016a.634.634 0 0 1 .195.047.226.226 0 0 1 .104.078.18.18 0 0 1 .03.11v10.419a.173.173 0 0 1-.03.103.264.264 0 0 1-.104.075.817.817 0 0 1-.195.046c-.21.02-.42.02-.629 0a.911.911 0 0 1-.2-.045.236.236 0 0 1-.104-.075.202.202 0 0 1-.025-.104v-10.421c0-.037.008-.075.025-.108a.213.213 0 0 1 .104-.079.76.76 0 0 1 .2-.046 2.185 2.185 0 0 1 .312-.016zm71.7 4.404c-.33 0-.608.08-.837.238a1.797 1.797 0 0 0-.557.616 3.013 3.013 0 0 0-.313.864 5.162 5.162 0 0 0-.095.984c0 .35.024.695.083 1.037.053.337.146.636.282.898.133.264.313.476.537.633.225.158.504.238.842.238.175 0 .337-.026.496-.07.172-.055.337-.133.487-.234.166-.108.34-.25.524-.425.183-.175.374-.391.579-.646v-2.805c-.35-.432-.688-.762-1.013-.987a1.774 1.774 0 0 0-1.014-.34zm-8.305-.03c-.384 0-.712.068-.986.205a1.807 1.807 0 0 0-.683.57 2.611 2.611 0 0 0-.396.878c-.09.363-.133.736-.129 1.109 0 .387.033.745.104 1.082.071.34.191.637.353.886.168.254.388.454.667.6.28.148.624.224 1.037.224.379 0 .707-.07.986-.203a1.85 1.85 0 0 0 .682-.57c.18-.242.31-.534.397-.875.086-.365.128-.74.125-1.115a5.198 5.198 0 0 0-.11-1.075 2.713 2.713 0 0 0-.349-.89 1.754 1.754 0 0 0-.66-.604c-.276-.146-.626-.221-1.038-.221zm16.432-.07a1.912 1.912 0 0 0-.838.18 1.844 1.844 0 0 0-.603.474 2.183 2.183 0 0 0-.38.691 2.974 2.974 0 0 0-.148.824h3.829c.017-.675-.133-1.207-.45-1.59-.315-.387-.786-.579-1.41-.579zm.066-1.007c.554 0 1.02.092 1.407.267.369.163.697.408.96.715.247.296.43.65.547 1.05.118.42.177.854.175 1.29v.238c0 .199-.05.345-.154.431a.529.529 0 0 1-.346.126h-4.624c0 .391.041.74.12 1.053.076.313.208.583.391.804.184.223.421.395.712.515.292.122.65.18 1.074.18a4.692 4.692 0 0 0 1.57-.266c.192-.067.35-.13.47-.183a.778.778 0 0 1 .28-.08c.037 0 .07.009.1.025a.218.218 0 0 1 .066.084.911.911 0 0 1 .033.149c.016.138.017.278.004.416a1.091 1.091 0 0 1-.022.134.347.347 0 0 1-.107.191.973.973 0 0 1-.254.142 3.316 3.316 0 0 1-.546.192 8.168 8.168 0 0 1-.774.166 5.68 5.68 0 0 1-.941.075c-.579 0-1.082-.08-1.515-.24a2.857 2.857 0 0 1-1.099-.717 3.144 3.144 0 0 1-.67-1.196c-.15-.48-.225-1.031-.225-1.669 0-.604.08-1.144.233-1.624.14-.45.37-.868.674-1.228a3 3 0 0 1 1.066-.77 3.484 3.484 0 0 1 1.395-.27zm-16.448 0c.58 0 1.082.086 1.51.258.412.16.78.417 1.07.75.289.327.5.724.647 1.194.14.467.212.995.212 1.583 0 .57-.075 1.097-.224 1.577a3.44 3.44 0 0 1-.676 1.245 3.053 3.053 0 0 1-1.124.816c-.45.195-.97.29-1.56.29-.58 0-1.083-.086-1.511-.257a2.705 2.705 0 0 1-1.07-.75 3.155 3.155 0 0 1-.642-1.19 5.497 5.497 0 0 1-.213-1.59c0-.575.075-1.099.226-1.582a3.37 3.37 0 0 1 .67-1.24 3.003 3.003 0 0 1 1.12-.813c.445-.195.966-.29 1.566-.29zm-7.739-2.648c.291 0 .575.025.849.08.28.053.533.124.767.207.232.084.44.18.623.288.184.107.31.198.38.27a.81.81 0 0 1 .133.159c.026.039.043.083.053.129a1.993 1.993 0 0 1 .026.682.693.693 0 0 1-.046.183.246.246 0 0 1-.074.109.15.15 0 0 1-.105.037c-.075 0-.175-.05-.309-.153a4.795 4.795 0 0 0-.503-.333 3.902 3.902 0 0 0-.753-.339 3.347 3.347 0 0 0-1.062-.15c-.45 0-.858.088-1.228.267a2.613 2.613 0 0 0-.945.792 3.916 3.916 0 0 0-.607 1.278 6.337 6.337 0 0 0-.218 1.719c0 .637.072 1.203.209 1.695.142.49.337.902.596 1.232.262.328.578.578.953.749.379.166.803.253 1.277.253.405 0 .754-.05 1.054-.149.267-.084.525-.194.77-.33.179-.1.351-.212.52-.332.137-.1.246-.15.32-.15a.178.178 0 0 1 .097.025c.028.022.05.053.061.087.02.06.032.121.039.183.004.08.007.18.007.299 0 .085 0 .155-.003.218a1.31 1.31 0 0 1-.03.162.434.434 0 0 1-.05.125.655.655 0 0 1-.107.133 2.125 2.125 0 0 1-.33.238 3.666 3.666 0 0 1-.62.312 4.831 4.831 0 0 1-.85.258 4.883 4.883 0 0 1-1.048.104 4.632 4.632 0 0 1-1.774-.325 3.571 3.571 0 0 1-1.349-.97c-.374-.425-.657-.948-.858-1.577-.202-.625-.298-1.35-.298-2.165 0-.837.103-1.582.32-2.236.191-.609.5-1.175.908-1.665a3.88 3.88 0 0 1 1.402-1.041 4.387 4.387 0 0 1 1.803-.358zm18.66-.616c.127 0 .236.004.319.017a1.018 1.018 0 0 1 .195.046.262.262 0 0 1 .104.078.181.181 0 0 1 .038.11v10.386a.239.239 0 0 1-.029.107.207.207 0 0 1-.096.075.891.891 0 0 1-.175.043 2.149 2.149 0 0 1-.536 0 1.164 1.164 0 0 1-.18-.043.248.248 0 0 1-.1-.075.193.193 0 0 1-.032-.107v-.93a4.776 4.776 0 0 1-1.15.938 2.654 2.654 0 0 1-1.307.333c-.512 0-.953-.1-1.316-.3a2.458 2.458 0 0 1-.886-.812 3.609 3.609 0 0 1-.496-1.199 6.572 6.572 0 0 1-.153-1.458c0-.602.062-1.144.191-1.63.134-.488.325-.9.579-1.245.247-.338.572-.61.949-.792a2.944 2.944 0 0 1 1.303-.278c.412 0 .786.092 1.127.27a4.07 4.07 0 0 1 1.013.792v-4.076a.26.26 0 0 1 .024-.109c.016-.034.054-.058.105-.078.065-.02.132-.036.2-.046.083-.013.182-.017.308-.017z" clip-rule="evenodd" stroke-width="1.06574"/><g mask="url(#a)" transform="matrix(1.06574 0 0 1.06574 -2.798 -.297)"><path fill="#0065a9" d="M114.178 11.66 91.925.945A6.727 6.727 0 0 0 84.25 2.25L11.402 68.67a4.5 4.5 0 0 0 .005 6.655l5.95 5.41a4.5 4.5 0 0 0 5.748.255l87.725-66.55c2.943-2.233 7.17-.134 7.17 3.56v-.258a6.75 6.75 0 0 0-3.822-6.082z"/><g filter="url(#b)"><path fill="#007acc" d="m114.178 96.34-22.253 10.714a6.727 6.727 0 0 1-7.675-1.304L11.402 39.33a4.5 4.5 0 0 1 .005-6.655l5.95-5.41a4.5 4.5 0 0 1 5.748-.255l87.725 66.55c2.943 2.233 7.17.134 7.17-3.56v.258a6.75 6.75 0 0 1-3.822 6.082z"/></g><g filter="url(#c)"><path fill="#1f9cf0" d="M91.926 107.056a6.729 6.729 0 0 1-7.676-1.306c2.49 2.491 6.75.727 6.75-2.796V5.046c0-3.523-4.26-5.287-6.75-2.796A6.73 6.73 0 0 1 91.926.943l22.249 10.7A6.75 6.75 0 0 1 118 17.726v72.548a6.75 6.75 0 0 1-3.825 6.083z"/></g><path fill="url(#d)" fill-rule="evenodd" d="M86.52 107.262a6.72 6.72 0 0 0 5.357-.205l22.235-10.7a6.751 6.751 0 0 0 3.822-6.083V17.726a6.749 6.749 0 0 0-3.822-6.083L91.877.943a6.724 6.724 0 0 0-7.672 1.307L41.638 41.085 23.097 27.01a4.495 4.495 0 0 0-5.744.256l-5.947 5.41a4.502 4.502 0 0 0-.005 6.654L27.481 54l-16.08 14.67a4.502 4.502 0 0 0 .005 6.655l5.947 5.41a4.495 4.495 0 0 0 5.743.255l18.542-14.075 42.567 38.835a6.707 6.707 0 0 0 2.314 1.512zm4.43-77.78L58.653 54l32.299 24.517V29.483Z" clip-rule="evenodd" opacity=".25" style="mix-blend-mode:overlay"/></g><defs><filter id="b" width="124.732" height="98.292" x="1.601" y="17.762" color-interpolation-filters="sRGB" filterUnits="userSpaceOnUse"><feFlood flood-opacity="0" result="BackgroundImageFix"/><feColorMatrix in="SourceAlpha" result="hardAlpha" values="0 0 0 0 0 0 0 0 0 0 0 0 0 0 0 0 0 0 127 0"/><feOffset/><feGaussianBlur stdDeviation="4.167"/><feColorMatrix values="0 0 0 0 0 0 0 0 0 0 0 0 0 0 0 0 0 0 0.25 0"/><feBlend in2="BackgroundImageFix" mode="overlay" result="effect1_dropShadow_2383_31"/><feBlend in="SourceGraphic" in2="effect1_dropShadow_2383_31" result="shape"/></filter><filter id="c" width="50.417" height="124.11" x="75.917" y="-8.055" color-interpolation-filters="sRGB" filterUnits="userSpaceOnUse"><feFlood flood-opacity="0" result="BackgroundImageFix"/><feColorMatrix in="SourceAlpha" result="hardAlpha" values="0 0 0 0 0 0 0 0 0 0 0 0 0 0 0 0 0 0 127 0"/><feOffset/><feGaussianBlur stdDeviation="4.167"/><feColorMatrix values="0 0 0 0 0 0 0 0 0 0 0 0 0 0 0 0 0 0 0.25 0"/><feBlend in2="BackgroundImageFix" mode="overlay" result="effect1_dropShadow_2383_31"/><feBlend in="SourceGraphic" in2="effect1_dropShadow_2383_31" result="shape"/></filter><linearGradient id="d" x1="63.934" x2="63.934" y1=".278" y2="107.722" gradientUnits="userSpaceOnUse"><stop stop-color="#fff"/><stop offset="1" stop-color="#fff" stop-opacity="0"/></linearGradient></defs></svg>
