<svg xmlns="http://www.w3.org/2000/svg" viewBox="0 0 128 128"><path fill="#f78557" d="M102.062 92.294a28.66 28.66 0 0 0 8.975-8.32h4.127a3.8 3.8 0 0 0 0-7.599h-.327a28.922 28.922 0 0 0 1.44-7.533h4.062a3.8 3.8 0 1 0 0-7.599h-4.184a28.842 28.842 0 0 0-1.833-7.533h.786a3.8 3.8 0 0 0 0-7.599H110a29.2 29.2 0 0 0-22.731-10.94h-6.484a28.403 28.403 0 0 0-11.53 2.423h6.819a28.642 28.642 0 0 1 3.61 57.054c-.853.066-1.703.13-2.62.13h-29.5a35.158 35.158 0 0 0 11.988-10.807 2.206 2.206 0 0 0 .655.066H85.88a3.8 3.8 0 0 0 0-7.6H63.545a36.387 36.387 0 0 0 1.965-7.532h29.412a3.8 3.8 0 0 0 0-7.6h-29.08a35.625 35.625 0 0 0-1.443-7.532h21.618a3.8 3.8 0 0 0 0-7.6H61.056a35.098 35.098 0 0 0-30.138-17.22h-2.489A35.074 35.074 0 0 0 0 43.627a31.24 31.24 0 0 1 52.993 9.762H37.15a17.214 17.214 0 1 0 .327 21.092H21.091a13.684 13.684 0 0 1 13.69-13.69h19.98a28.525 28.525 0 0 1 .2 3.341A31.251 31.251 0 0 1 .656 85.224a35.027 35.027 0 0 0 27.84 13.822h51.358c26.596 0 48.146-1.572 48.146-3.61.002-1.305-10.545-2.54-25.938-3.142z"/></svg>
