<svg xmlns="http://www.w3.org/2000/svg" viewBox="0 0 128 128"><path fill="#f78557" d="M30.087 73.05a8.448 8.448 0 0 0 2.645-2.452h1.217a1.12 1.12 0 0 0 0-2.24h-.096a8.526 8.526 0 0 0 .424-2.221h1.197a1.12 1.12 0 1 0 0-2.24h-1.233a8.502 8.502 0 0 0-.54-2.22h.231a1.12 1.12 0 0 0 0-2.24h-1.505a8.608 8.608 0 0 0-6.701-3.226h-1.912a8.373 8.373 0 0 0-3.399.714h2.01a8.443 8.443 0 0 1 1.065 16.82c-.252.019-.502.037-.772.037H14.02a10.364 10.364 0 0 0 3.534-3.186.65.65 0 0 0 .193.02h7.568a1.12 1.12 0 0 0 0-2.24h-6.584a10.726 10.726 0 0 0 .58-2.22h8.67a1.12 1.12 0 0 0 0-2.24h-8.573a10.502 10.502 0 0 0-.425-2.222h6.373a1.12 1.12 0 0 0 0-2.24h-7.359a10.346 10.346 0 0 0-8.884-5.076H8.38A10.34 10.34 0 0 0 0 58.703a9.21 9.21 0 0 1 15.622 2.878H10.95a5.074 5.074 0 1 0 .096 6.218h-4.83a4.034 4.034 0 0 1 4.036-4.036h5.89a8.409 8.409 0 0 1 .059.985A9.212 9.212 0 0 1 .193 70.966 10.326 10.326 0 0 0 8.4 75.041h15.14c7.84 0 14.193-.464 14.193-1.065 0-.384-3.109-.749-7.646-.926z"/><path fill="#fff" d="M96.415 52.962a1.962 1.962 0 0 0-2.053 2.054 1.878 1.878 0 0 0 .571 1.43 2.047 2.047 0 0 0 1.482.556 1.994 1.994 0 0 0 1.448-.555 1.903 1.903 0 0 0 .573-1.431 1.992 1.992 0 0 0-.573-1.482 1.915 1.915 0 0 0-1.448-.572zM55.916 55.47A9.216 9.216 0 1 0 65 64.696a8.95 8.95 0 0 0-.101-1.364H58.6a3.801 3.801 0 0 0-3.805 3.805h6.448a5.967 5.967 0 1 1-.522-5.826h3.638a9.216 9.216 0 0 0-8.444-5.841Zm26.441.219v3.687h-1.65a.496.496 0 0 0-.506.505v2.089h2.156v11.6h2.744a.496.496 0 0 0 .506-.505v-11.08h2.373V59.9a.496.496 0 0 0-.505-.504h-1.868v-2.357a1.351 1.351 0 0 0-1.348-1.35zm6.75 0v17.897h2.743a.496.496 0 0 0 .506-.506V57.035a1.351 1.351 0 0 0-1.348-1.346zm18.286 3.385a5.558 5.558 0 0 0-2.745.64 4.085 4.085 0 0 0-1.634 1.564v-.537a1.35 1.35 0 0 0-1.346-1.346H100v14.208h2.744a.496.496 0 0 0 .506-.504v-7.747h.033a3.601 3.601 0 0 1 .893-2.575 3.21 3.21 0 0 1 2.44-.926 2.588 2.588 0 0 1 2.122.858 3.627 3.627 0 0 1 .69 2.374V73.6h2.745a.496.496 0 0 0 .505-.505V64.68a5.83 5.83 0 0 0-1.38-4.075 4.976 4.976 0 0 0-3.906-1.532zm13.84.31A7.07 7.07 0 1 0 128 66.465a6.52 6.52 0 0 0-.05-.808h-5.118a2.57 2.57 0 0 0-2.492 2.575h3.99a3.83 3.83 0 1 1-.405-4.141h3.67a7.07 7.07 0 0 0-6.363-4.707zm-26.45.01v14.192h2.744a.496.496 0 0 0 .504-.506V60.74a1.351 1.351 0 0 0-1.347-1.347zm-21.9.146a7.076 7.076 0 1 0 4.151 13.022v1.023h1.903a1.351 1.351 0 0 0 1.346-1.346V66.58h.003a7.076 7.076 0 0 0-7.403-7.041zm-.444 3.245a3.889 3.889 0 0 1 4.648 3.814 3.89 3.89 0 0 1-3.889 3.889 3.889 3.889 0 0 1-.759-7.703z"/></svg>
