<svg viewBox="0 0 128 128" xmlns="http://www.w3.org/2000/svg"><path d="M55.789 71.121h-6.703a7.39 7.39 0 01-2.016-.285c-1.289-.406-2.309-1.332-3.059-2.777-.68-1.316-1.02-2.848-1.02-4.598 0-1.687.301-3.18.91-4.473.664-1.441 1.613-2.41 2.84-2.937a7.504 7.504 0 012.93-.605h6.074v3h-6.312c-1.027 0-1.773.578-2.234 1.723-.363.898-.543 2.074-.543 3.52 0 1.227.23 2.262.695 3.109.535 1.004 1.285 1.508 2.254 1.508l6.184-.023v2.84m11.164.07H61.66c-1.289 0-2.41-.566-3.363-1.703-.941-1.148-1.41-2.473-1.41-3.961 0-1.629.512-3.035 1.539-4.211 1.043-1.199 2.199-1.793 3.473-1.793h5.031v2.395h-3.687c-.461 0-.859.043-1.191.137-.32.074-.617.23-.891.469-.508.449-.758 1.051-.758 1.813h6.504v2.422h-6.484c0 .355.035.668.109.914.086.242.254.492.5.742.246.238.535.402.867.492a5.85 5.85 0 001.258.113h3.797v2.172m12.367-.07h-3.016v-7.637a1.02 1.02 0 00-.129-.512 1.72 1.72 0 00-.371-.473 1.482 1.482 0 00-.996-.379H71.86v9h-3.016v-11.6h5.77c1.027 0 1.773.059 2.234.18.723.18 1.301.57 1.734 1.188a4.07 4.07 0 01.738 2.352v7.879m8.66-9.18h-2.93v5.266c0 .473.16.871.477 1.184.363.313.84.473 1.434.473h.891v2.258h-2.801a2.82 2.82 0 01-2.145-.941 2.625 2.625 0 01-.676-1.227 7.288 7.288 0 01-.152-1.59v-5.422h-1.906v-2.418h1.906v-4.078h2.973v4.078h2.93v2.418m17.699 1.324c0 3.043-.816 5.219-2.449 6.539-1.332 1.059-3.27 1.59-5.813 1.59-2.82 0-4.902-.609-6.25-1.84-1.473-1.34-2.211-3.5-2.211-6.469 0-2.434.656-4.332 1.973-5.687 1.434-1.484 3.574-2.223 6.422-2.223 3.137 0 5.352.707 6.637 2.133 1.129 1.25 1.691 3.238 1.691 5.957m-3.859-.09c0-1.539-.355-2.766-1.062-3.676-.797-1.02-1.977-1.523-3.535-1.523-1.535 0-2.691.543-3.473 1.637-.648.91-.977 2.098-.977 3.563 0 1.688.262 2.93.781 3.734.723 1.125 2.063 1.68 4.016 1.68 1.648 0 2.805-.539 3.469-1.633.52-.852.781-2.109.781-3.781m21.223 3.09c0 1.367-.441 2.527-1.324 3.473s-2 1.406-3.359 1.406l-10.738-.023v-2.816h8.852c.59 0 1.09-.141 1.496-.43.461-.328.691-.773.691-1.34 0-1.332-.91-1.996-2.73-1.996h-4.469c-1.289 0-2.414-.406-3.383-1.227-.969-.828-1.453-1.871-1.453-3.145 0-1.398.469-2.539 1.41-3.402.953-.883 2.203-1.32 3.75-1.32h10.262v2.691H113c-.406 0-.816.176-1.234.535-.406.344-.609.75-.609 1.234a1.81 1.81 0 00.586 1.363c.406.363.891.535 1.453.535h4.926c1.531 0 2.73.414 3.598 1.234.883.805 1.324 1.883 1.324 3.227M21.223 47.874l-3.406 3.417h2.279v8.983l1.127 1.132 1.115-1.118V51.35h2.35zM9.817 52.026v6.084l2.501-2.456 5.936 5.834h1.108v-.908l-5.916-5.94 2.607-2.614zm7.27 0l-2.605 2.614 4.88 4.898v-7.512zm5.985.058v7.466l4.892-4.91-2.545-2.556zm3.615.234L29 54.64l-5.927 5.95v.956h1.062l5.898-5.921 2.548 2.555v-5.862zm3.345 4.346l-4.863 4.882h7.41V59.22zm-17.713.019L9.817 59.14v2.347h7.392zM9.084 59.86l-3.61 3.547 3.61 3.548v-2.478h8.993l1.088-1.07-1.211-1.188h-8.87zm24.23.095l-.002 2.324H24.44l-1.147 1.15 1.042 1.047h8.917v2.49l3.524-3.537zM9.818 65.208v2.467l2.5 2.459 5.013-4.926zm8.558 0l-6.059 5.952-2.5-2.456v6.024h5.995l-2.576-2.531 6.125-6.017v-.972zm4.657 0v1.11l5.726 5.622.26.258-2.324 2.283h5.82v-5.74l-2.224 2.235-.26.257-6.002-6.025zm2.03 0l4.968 4.986 2.484-2.492v-2.494zm-3.935.265l-1.031 1.014v8.975h-2.492l3.523 3.46 3.524-3.46H22.3v-8.837zm-1.766 1.736l-5.079 4.988 2.577 2.531h2.502zm3.671.136v7.385h2.364l2.577-2.533z"/></svg>
