<svg xmlns="http://www.w3.org/2000/svg" width="128" height="128" xmlns:v="https://vecta.io/nano"><path d="M4.907 12.004 L 4.907 12.666 5.493 12.115 C 5.935 11.699,6.140 11.623,6.325 11.808 C 6.510 11.993,6.435 12.198,6.019 12.640 L 5.467 13.227 6.129 13.227 C 6.770 13.227,6.791 13.196,6.791 12.284 L 6.791 11.342 5.849 11.342 C 4.937 11.342,4.907 11.364,4.907 12.004 M10.094 11.943 C 9.183 12.320,8.871 13.767,9.505 14.673 C 9.772 15.054,10.044 15.147,10.892 15.147 C 11.669 15.147,11.947 15.066,11.947 14.839 C 11.947 14.629,11.657 14.510,11.040 14.466 C 10.185 14.404,10.129 14.360,10.065 13.693 C 9.977 12.771,10.332 12.373,11.244 12.373 C 11.739 12.373,11.953 12.285,11.895 12.107 C 11.787 11.779,10.725 11.682,10.094 11.943 M17.636 11.876 C 17.557 11.954,17.493 12.186,17.493 12.391 C 17.493 12.596,17.373 12.813,17.227 12.873 C 17.025 12.955,17.021 13.024,17.211 13.160 C 17.349 13.258,17.493 13.722,17.531 14.189 C 17.592 14.938,17.670 15.048,18.187 15.108 C 18.807 15.179,18.995 14.851,18.453 14.643 C 18.266 14.571,18.133 14.251,18.133 13.873 C 18.133 13.441,18.239 13.227,18.453 13.227 C 18.629 13.227,18.773 13.131,18.773 13.013 C 18.773 12.896,18.629 12.800,18.453 12.800 C 18.254 12.800,18.133 12.599,18.133 12.267 C 18.133 11.749,17.926 11.586,17.636 11.876 M19.907 11.948 C 19.320 12.185,18.987 12.798,18.987 13.639 C 18.987 14.599,19.640 15.147,20.785 15.147 C 21.844 15.147,22.298 14.818,22.498 13.906 C 22.838 12.358,21.465 11.320,19.907 11.948 M23.307 11.953 C 22.960 12.093,22.827 12.322,22.827 12.781 C 22.827 13.535,22.977 13.648,24.232 13.833 C 25.554 14.027,25.513 14.387,24.160 14.464 C 23.354 14.511,23.040 14.616,23.040 14.838 C 23.040 15.075,23.353 15.147,24.384 15.147 C 25.818 15.147,26.240 14.925,26.240 14.170 C 26.240 13.521,25.852 13.267,24.742 13.188 C 24.065 13.140,23.787 13.027,23.787 12.800 C 23.787 12.564,24.082 12.463,24.907 12.416 C 25.712 12.369,26.027 12.264,26.027 12.042 C 26.027 11.810,25.748 11.737,24.907 11.747 C 24.291 11.754,23.571 11.847,23.307 11.953 M5.427 12.640 L 4.800 13.333 5.493 12.707 C 5.875 12.362,6.187 12.050,6.187 12.013 C 6.187 11.849,6.011 11.994,5.427 12.640 M21.578 12.891 C 22.080 13.992,21.218 15.016,20.232 14.488 C 19.779 14.246,19.690 13.035,20.096 12.629 C 20.537 12.189,21.321 12.327,21.578 12.891 M1.648 13.173 C 1.302 13.556,1.299 13.617,1.611 13.876 C 1.856 14.079,1.994 14.092,2.100 13.921 C 2.181 13.790,2.677 13.645,3.204 13.599 L 4.160 13.515 3.162 13.477 C 2.436 13.450,2.146 13.347,2.096 13.096 C 2.036 12.799,1.976 12.810,1.648 13.173 M7.040 13.075 C 7.040 13.329,6.780 13.437,6.027 13.497 L 5.013 13.576 6.011 13.615 C 6.737 13.643,7.028 13.747,7.078 13.997 C 7.138 14.295,7.196 14.285,7.522 13.925 C 7.881 13.527,7.878 13.492,7.468 13.122 C 7.095 12.784,7.040 12.778,7.040 13.075 M12.331 13.342 C 12.164 13.709,12.149 14.071,12.286 14.462 C 12.456 14.950,12.628 15.050,13.391 15.106 C 13.924 15.144,14.293 15.079,14.293 14.946 C 14.293 14.822,14.005 14.720,13.653 14.720 C 13.301 14.720,13.013 14.624,13.013 14.507 C 13.013 14.389,13.301 14.293,13.653 14.293 C 14.080 14.293,14.293 14.187,14.293 13.973 C 14.293 13.760,14.080 13.653,13.653 13.653 C 13.301 13.653,13.013 13.557,13.013 13.440 C 13.013 13.323,13.301 13.227,13.653 13.227 C 14.005 13.227,14.293 13.131,14.293 13.013 C 14.293 12.896,13.907 12.800,13.435 12.800 C 12.724 12.800,12.535 12.892,12.331 13.342 M14.720 13.962 C 14.720 14.873,14.794 15.147,15.040 15.147 C 15.277 15.147,15.360 14.898,15.360 14.187 C 15.360 13.369,15.423 13.227,15.787 13.227 C 16.150 13.227,16.213 13.369,16.213 14.187 C 16.213 14.912,16.294 15.147,16.544 15.147 C 16.810 15.147,16.863 14.924,16.811 14.027 L 16.747 12.907 15.733 12.842 L 14.720 12.777 14.720 13.962 M2.347 14.256 C 2.347 14.903,2.604 14.965,3.184 14.455 L 3.733 13.973 3.222 14.553 C 2.941 14.872,2.629 15.083,2.529 15.021 C 2.429 14.959,2.347 15.106,2.347 15.347 C 2.347 15.649,2.485 15.787,2.786 15.787 C 3.048 15.787,3.167 15.693,3.082 15.555 C 3.003 15.427,3.241 15.011,3.611 14.630 L 4.283 13.936 3.315 13.900 C 2.503 13.869,2.347 13.927,2.347 14.256 M3.649 14.909 C 3.091 15.338,3.195 15.787,3.853 15.787 C 4.170 15.787,4.267 15.638,4.267 15.147 C 4.267 14.397,4.299 14.409,3.649 14.909 " fill="rgb(0%,0%,0%)" stroke="none" fill-rule="evenodd"></path></svg>