<?xml version="1.0" encoding="UTF-8" standalone="no"?>
<svg
   viewBox="0 0 128 128"
   width="128"
   height="128"
   version="1.1"
   id="svg34"
   sodipodi:docname="centos-plain-wordmark.svg"
   inkscape:version="1.1 (c68e22c387, 2021-05-23)"
   xmlns:inkscape="http://www.inkscape.org/namespaces/inkscape"
   xmlns:sodipodi="http://sodipodi.sourceforge.net/DTD/sodipodi-0.dtd"
   xmlns="http://www.w3.org/2000/svg"
   xmlns:svg="http://www.w3.org/2000/svg">
  <defs
     id="defs38" />
  <sodipodi:namedview
     id="namedview36"
     pagecolor="#ffffff"
     bordercolor="#666666"
     borderopacity="1.0"
     inkscape:pageshadow="2"
     inkscape:pageopacity="0.0"
     inkscape:pagecheckerboard="0"
     showgrid="false"
     inkscape:zoom="4.4857086"
     inkscape:cx="56.401345"
     inkscape:cy="71.226204"
     inkscape:window-width="1920"
     inkscape:window-height="1001"
     inkscape:window-x="-9"
     inkscape:window-y="-9"
     inkscape:window-maximized="1"
     inkscape:current-layer="svg34" />
  <path
     d="M55.789 71.121h-6.703a7.39 7.39 0 0 1-2.016-.285c-1.289-.406-2.309-1.332-3.059-2.777-.68-1.316-1.02-2.848-1.02-4.598 0-1.687.301-3.18.91-4.473.664-1.441 1.613-2.41 2.84-2.937a7.504 7.504 0 0 1 2.93-.605h6.074v3h-6.312c-1.027 0-1.773.578-2.234 1.723-.363.898-.543 2.074-.543 3.52 0 1.227.23 2.262.695 3.109.535 1.004 1.285 1.508 2.254 1.508l6.184-.023v2.84m11.164.07H61.66c-1.289 0-2.41-.566-3.363-1.703-.941-1.148-1.41-2.473-1.41-3.961 0-1.629.512-3.035 1.539-4.211 1.043-1.199 2.199-1.793 3.473-1.793h5.031v2.395h-3.687c-.461 0-.859.043-1.191.137-.32.074-.617.23-.891.469-.508.449-.758 1.051-.758 1.813h6.504v2.422h-6.484c0 .355.035.668.109.914.086.242.254.492.5.742.246.238.535.402.867.492a5.85 5.85 0 0 0 1.258.113h3.797v2.172m12.367-.07h-3.016v-7.637a1.02 1.02 0 0 0-.129-.512 1.72 1.72 0 0 0-.371-.473 1.482 1.482 0 0 0-.996-.379H71.86v9h-3.016v-11.6h5.77c1.027 0 1.773.059 2.234.18.723.18 1.301.57 1.734 1.188a4.07 4.07 0 0 1 .738 2.352v7.879m8.66-9.18h-2.93v5.266c0 .473.16.871.477 1.184.363.313.84.473 1.434.473h.891v2.258h-2.801a2.82 2.82 0 0 1-2.145-.941 2.625 2.625 0 0 1-.676-1.227 7.288 7.288 0 0 1-.152-1.59v-5.422h-1.906v-2.418h1.906v-4.078h2.973v4.078h2.93v2.418m17.699 1.324c0 3.043-.816 5.219-2.449 6.539-1.332 1.059-3.27 1.59-5.813 1.59-2.82 0-4.902-.609-6.25-1.84-1.473-1.34-2.211-3.5-2.211-6.469 0-2.434.656-4.332 1.973-5.687 1.434-1.484 3.574-2.223 6.422-2.223 3.137 0 5.352.707 6.637 2.133 1.129 1.25 1.691 3.238 1.691 5.957m-3.859-.09c0-1.539-.355-2.766-1.062-3.676-.797-1.02-1.977-1.523-3.535-1.523-1.535 0-2.691.543-3.473 1.637-.648.91-.977 2.098-.977 3.563 0 1.688.262 2.93.781 3.734.723 1.125 2.063 1.68 4.016 1.68 1.648 0 2.805-.539 3.469-1.633.52-.852.781-2.109.781-3.781m21.223 3.09c0 1.367-.441 2.527-1.324 3.473s-2 1.406-3.359 1.406l-10.738-.023v-2.816h8.852c.59 0 1.09-.141 1.496-.43.461-.328.691-.773.691-1.34 0-1.332-.91-1.996-2.73-1.996h-4.469c-1.289 0-2.414-.406-3.383-1.227-.969-.828-1.453-1.871-1.453-3.145 0-1.398.469-2.539 1.41-3.402.953-.883 2.203-1.32 3.75-1.32h10.262v2.691H113c-.406 0-.816.176-1.234.535-.406.344-.609.75-.609 1.234a1.81 1.81 0 0 0 .586 1.363c.406.363.891.535 1.453.535h4.926c1.531 0 2.73.414 3.598 1.234.883.805 1.324 1.883 1.324 3.227"
     id="path2" />
  <path
     id="path16-6"
     d="m 21.222726,47.873696 -3.405715,3.417078 h 2.278735 v 8.983707 l 1.12698,1.131071 1.114854,-1.11758 v -8.93753 h 2.350429 z m -11.405798,4.152792 5.4e-4,6.083913 2.500651,-2.456185 5.935885,5.833313 h 1.108004 v -0.907971 l -5.915868,-5.939156 2.60713,-2.613914 z m 7.270025,0 -2.604497,2.613395 4.87954,4.898366 v -7.511761 z m 5.985428,0.05709 -5.33e-4,7.46662 4.892188,-4.90978 -2.544924,-2.55684 z m 3.614986,0.234515 2.311945,2.322325 -5.926931,5.950055 v 0.955702 h 1.061621 l 5.898459,-5.921525 2.547045,2.555805 v -5.862372 z m 3.345094,4.346319 -4.86372,4.881763 h 7.410765 V 59.21866 Z m -17.7133,0.01817 -2.502233,2.458781 v 2.346192 h 7.391786 z m -3.235456,3.177883 -3.60971,3.546268 3.60971,3.547825 v -2.477977 h 8.993702 l 1.087974,-1.069848 -1.211846,-1.188143 h -8.86983 z m 24.229547,0.09494 -8.89e-4,2.323364 h -8.872958 l -1.147016,1.149749 1.041586,1.047018 h 8.916747 v 2.489908 l 3.523789,-3.53693 z m -23.494744,5.252728 5.41e-4,2.467084 2.500126,2.45878 5.012372,-4.925864 z m 8.558832,0 -6.059234,5.95213 -2.499598,-2.456705 v 6.024245 h 5.994398 l -2.576031,-2.530898 6.125121,-6.016982 v -0.971792 z m 4.657092,0 v 1.109279 l 5.725567,5.622147 0.260395,0.258381 -2.324065,2.283414 h 5.819388 v -5.74044 l -2.223909,2.23516 -0.259347,0.256825 -6.002831,-6.024766 z m 2.028879,0 4.96915,4.985531 2.483256,-2.491469 v -2.494066 z m -3.933885,0.265128 -1.031572,1.013293 v 8.975406 h -2.49169 l 3.523262,3.460662 3.523792,-3.460662 h -2.352532 v -8.837395 z m -1.766903,1.735518 -5.078264,4.988643 2.576558,2.530897 h 2.501706 z m 3.671909,0.135936 v 7.385162 h 2.363072 l 2.577613,-2.532455 z"
     style="stroke-width:0.267756" />
</svg>
