<svg xmlns="http://www.w3.org/2000/svg" viewBox="0 0 128 128"><path d="M44.031 121.77c-15.078-1.133-27.918-8.422-35.926-20.395C3.785 94.922 1.223 87.676.301 79.32c-.262-2.348-.297-7.77-.066-9.945 1.215-11.57 6.027-21.652 14.184-29.723 3.617-3.582 7.129-6.141 11.438-8.344 4.93-2.52 9.348-3.922 15.234-4.836 1.613-.25 2.465-.273 12.926-.363l12.48-.242c5.41-.613 9.852-1.906 14.594-4.242 4.172-2.062 7.754-4.625 11.184-8.012.801-.793 1.531-1.469 1.625-1.504s.293.035.449.16l.277.227-.223 1.656a43.04 43.04 0 0 1-5.871 16.711c-.629 1.031-.691 1.246-.441 1.496.234.234.648.188 2.066-.227 13.527-3.937 21.555-10.422 28.871-23.309 1.656-2.922 1.488-2.699 2.031-2.656.473.039.488.059 1.27 1.574 3.004 5.832 4.711 12.039 5.434 19.777.207 2.223.207 8.832-.004 11.391-.492 6.082-1.461 10.883-3.34 16.516-4.66 13.98-13.793 26.457-26.051 35.59-10.816 8.059-23.379 13-36.605 14.398-4.523.477-13.023.469-16.316-.016-6.27-.922-12.062-3.449-17.031-7.434-3.57-2.863-6.75-6.844-8.773-10.988-1.41-2.887-2.168-5.305-2.699-8.578-.301-1.855-.301-6.289 0-8.293 1.109-7.414 4.199-13.496 9.441-18.586 4.859-4.715 10.594-7.527 17.52-8.598 2.059-.32 6.773-.32 8.832 0 9.27 1.426 17.098 6.453 22.191 14.246 3.391 5.184 5.234 11.641 5.035 17.648-.105 3.215-.828 5.441-2.281 7.035-1.371 1.5-2.574 2.031-4.59 2.039-3.477.008-5.762-1.734-6.809-5.191-.277-.918-.285-1.148-.363-9.449-.066-7.102-.113-8.621-.273-9.156-.719-2.348-2.145-4.09-4.238-5.176-1.766-.91-1.926-.926-10.219-.867-7 .051-7.402.066-8.5.328-2.676.645-4.895 1.594-6.984 2.977-1.668 1.109-4.152 3.609-5.277 5.309-4.465 6.75-4.465 14.996 0 21.746 1.078 1.629 3.48 4.055 5.094 5.145a20.41 20.41 0 0 0 7.359 3.129c1.949.414 5.121.418 7.141.012 2.301-.461 4.422-1.281 6.395-2.473 1.633-.984 3.547-2.586 4.465-3.727l.387-.484.473.684c.668.973 2.289 2.508 3.406 3.23 2.473 1.598 5.41 2.332 8.773 2.199 1.977-.078 3.18-.367 4.895-1.18 3.094-1.461 5.609-4.023 7.148-7.285 1.535-3.246 2.098-6.477 1.848-10.605-.473-7.891-2.723-14.887-6.727-20.914-3.914-5.891-8.875-10.305-15.16-13.477-5.758-2.906-11.297-4.23-17.684-4.23-4.68 0-8.281.555-12.398 1.918-12.016 3.977-21.344 13.301-25.336 25.32-2.891 8.703-2.656 18.117.656 26.617 1.27 3.25 3.723 7.492 5.941 10.27 1.137 1.422 4.684 4.973 6.066 6.07.598.477 1.895 1.402 2.879 2.059 5.84 3.891 12.004 6.074 19.547 6.918 2.477.281 9.508.391 12.469.199 12.559-.812 24.305-4.098 34.883-9.754 1.934-1.035 4.668-2.633 5.703-3.336.547-.371.801-.316.563.129-.191.359-3.695 3.711-5.496 5.254-11.035 9.473-24.137 14.57-40.148 15.629-1.758.113-8.172.145-9.535.043zm-.062-36.98c-1.855-.406-3.793-1.422-5.215-2.734a11.87 11.87 0 0 1-3.449-5.574c-.254-.887-.293-1.305-.285-3.074.008-1.84.043-2.16.352-3.172.66-2.164 1.602-3.664 3.316-5.281a10.51 10.51 0 0 1 4.129-2.473c1.789-.594 2.652-.656 8.969-.656 5.699 0 5.82.004 6.078.262s.262.344.219 6.816c-.043 6.254-.059 6.598-.32 7.516-1.141 3.969-3.949 6.883-7.84 8.133-.957.309-1.336.355-3.074.395-1.445.027-2.227-.012-2.879-.156zm0 0" fill="#5c2d91"/></svg>
