<?xml version="1.0" encoding="UTF-8"?>
<svg xmlns="http://www.w3.org/2000/svg" xmlns:xlink="http://www.w3.org/1999/xlink" width="1280px" height="480px" viewBox="0 0 128 128" version="1.1">
<g id="surface1">
<path style="fill:none;stroke-width:23.4783;stroke-linecap:butt;stroke-linejoin:miter;stroke:rgb(100%,33.333333%,0%);stroke-opacity:1;stroke-miterlimit:4;" d="M 60.004586 169.991848 L 60.004586 70.00034 C 60.004586 42.380605 82.380605 20.004586 110.00034 20.004586 L 129.998641 20.004586 " transform="matrix(0.184,0,0,0.184,-5.576,1.784)"/>
<path style="fill:none;stroke-width:23.4783;stroke-linecap:butt;stroke-linejoin:miter;stroke:rgb(80%,0%,0%);stroke-opacity:1;stroke-miterlimit:4;" d="M 60.004586 169.991848 L 60.004586 135.005435 C 60.004586 107.3857 82.380605 85.009681 110.00034 85.009681 L 129.998641 85.009681 " transform="matrix(0.184,0,0,0.184,-5.576,1.784)"/>
<path style="fill:none;stroke-width:13.913;stroke-linecap:butt;stroke-linejoin:miter;stroke:rgb(100%,33.333333%,0%);stroke-opacity:1;stroke-miterlimit:4;" d="M 156.514436 20.004586 C 156.514436 29.133322 149.126529 36.52123 139.997792 36.52123 C 130.869056 36.52123 123.481148 29.133322 123.481148 20.004586 C 123.481148 10.875849 130.869056 3.487942 139.997792 3.487942 C 149.126529 3.487942 156.514436 10.875849 156.514436 20.004586 Z M 156.514436 20.004586 " transform="matrix(0.184,0,0,0.184,-5.576,1.784)"/>
<path style="fill:none;stroke-width:13.913;stroke-linecap:butt;stroke-linejoin:miter;stroke:rgb(80%,0%,0%);stroke-opacity:1;stroke-miterlimit:4;" d="M 156.514436 85.009681 C 156.514436 94.117188 149.126529 101.526325 139.997792 101.526325 C 130.869056 101.526325 123.481148 94.117188 123.481148 85.009681 C 123.481148 75.880944 130.869056 68.471807 139.997792 68.471807 C 149.126529 68.471807 156.514436 75.880944 156.514436 85.009681 Z M 156.514436 85.009681 " transform="matrix(0.184,0,0,0.184,-5.576,1.784)"/>
<path style="fill:none;stroke-width:13.913;stroke-linecap:butt;stroke-linejoin:miter;stroke:rgb(80%,0%,0%);stroke-opacity:1;stroke-miterlimit:4;" d="M 76.52123 179.990999 C 76.52123 189.119735 69.133322 196.528872 60.004586 196.528872 C 50.875849 196.528872 43.487942 189.119735 43.487942 179.990999 C 43.487942 170.883492 50.875849 163.474355 60.004586 163.474355 C 69.133322 163.474355 76.52123 170.883492 76.52123 179.990999 Z M 76.52123 179.990999 " transform="matrix(0.184,0,0,0.184,-5.576,1.784)"/>
<path style=" stroke:none;fill-rule:nonzero;fill:rgb(100%,33.333333%,0%);fill-opacity:1;" d="M 32.371094 38.71875 C 30.488281 38.71875 28.792969 38.304688 27.296875 37.484375 C 25.820312 36.636719 24.648438 35.476562 23.777344 34.003906 C 22.929688 32.527344 22.507812 30.847656 22.507812 28.960938 C 22.507812 27.050781 22.929688 25.371094 23.777344 23.921875 C 24.648438 22.445312 25.820312 21.296875 27.296875 20.476562 C 28.769531 19.628906 30.460938 19.207031 32.371094 19.207031 C 34.257812 19.207031 35.9375 19.628906 37.414062 20.476562 C 38.914062 21.296875 40.085938 22.445312 40.929688 23.921875 C 41.777344 25.371094 42.199219 27.050781 42.199219 28.960938 C 42.199219 30.847656 41.777344 32.527344 40.929688 34.003906 C 40.085938 35.476562 38.914062 36.636719 37.414062 37.484375 C 35.9375 38.304688 34.257812 38.71875 32.371094 38.71875 Z M 32.371094 36.070312 C 33.679688 36.070312 34.839844 35.78125 35.855469 35.199219 C 36.871094 34.59375 37.667969 33.761719 38.246094 32.695312 C 38.851562 31.609375 39.152344 30.363281 39.152344 28.960938 C 39.152344 27.535156 38.851562 26.289062 38.246094 25.226562 C 37.667969 24.164062 36.871094 23.339844 35.855469 22.761719 C 34.839844 22.179688 33.679688 21.890625 32.371094 21.890625 C 31.066406 21.890625 29.90625 22.179688 28.890625 22.761719 C 27.875 23.339844 27.066406 24.164062 26.460938 25.226562 C 25.878906 26.289062 25.589844 27.535156 25.589844 28.960938 C 25.589844 30.363281 25.878906 31.609375 26.460938 32.695312 C 27.066406 33.761719 27.875 34.59375 28.890625 35.199219 C 29.90625 35.78125 31.066406 36.070312 32.371094 36.070312 Z M 32.371094 36.070312 "/>
<path style=" stroke:none;fill-rule:nonzero;fill:rgb(100%,33.333333%,0%);fill-opacity:1;" d="M 44.777344 38.535156 L 44.777344 19.386719 L 47.675781 19.386719 L 47.675781 24.609375 L 47.386719 23.484375 C 47.917969 22.105469 48.8125 21.054688 50.070312 20.332031 C 51.328125 19.582031 52.886719 19.207031 54.75 19.207031 L 54.75 22.179688 C 54.628906 22.15625 54.507812 22.144531 54.386719 22.144531 C 54.265625 22.121094 54.144531 22.105469 54.023438 22.105469 C 52.113281 22.105469 50.601562 22.699219 49.492188 23.882812 C 48.378906 25.042969 47.824219 26.714844 47.824219 28.890625 L 47.824219 38.535156 Z M 44.777344 38.535156 "/>
<path style=" stroke:none;fill-rule:nonzero;fill:rgb(100%,33.333333%,0%);fill-opacity:1;" d="M 64.824219 45.753906 C 63.082031 45.753906 61.390625 45.5 59.746094 44.992188 C 58.125 44.507812 56.796875 43.808594 55.757812 42.886719 L 57.28125 40.53125 C 58.175781 41.328125 59.273438 41.957031 60.582031 42.417969 C 61.910156 42.875 63.289062 43.105469 64.714844 43.105469 C 67.058594 43.105469 68.789062 42.550781 69.902344 41.4375 C 71.011719 40.347656 71.402344 38.664062 71.570312 36.394531 L 71.890625 32.007812 L 72.25 28.453125 L 71.996094 24.898438 L 73.394531 23.339844 C 75.183594 25.816406 74.578125 31.472656 74.578125 36.070312 C 74.578125 39.40625 73.757812 41.847656 72.113281 43.394531 C 70.46875 44.96875 68.039062 45.753906 64.824219 45.753906 Z M 65.027344 37.773438 C 63.191406 37.773438 61.535156 37.386719 60.058594 36.613281 C 58.609375 35.816406 57.460938 34.714844 56.613281 33.3125 C 55.769531 31.910156 55.34375 30.292969 55.34375 28.453125 C 55.34375 26.617188 55.769531 25.007812 56.613281 23.628906 C 57.460938 22.226562 58.609375 21.140625 60.058594 20.367188 C 61.535156 19.59375 63.191406 19.207031 65.027344 19.207031 C 66.695312 19.207031 68.835938 19.554688 70.164062 20.257812 C 71.519531 20.933594 72.59375 21.960938 73.394531 23.339844 C 74.214844 24.71875 74.304688 26.421875 74.304688 28.453125 C 74.304688 30.507812 73.574219 32.226562 72.753906 33.605469 C 71.957031 34.980469 70.878906 36.023438 69.527344 36.722656 C 68.195312 37.421875 66.695312 37.773438 65.027344 37.773438 Z M 65 35.089844 C 66.351562 35.089844 67.550781 34.8125 68.589844 34.257812 C 69.628906 33.699219 70.4375 32.925781 71.019531 31.933594 C 71.625 30.921875 71.925781 29.757812 71.925781 28.453125 C 71.925781 27.148438 71.625 26 71.019531 25.007812 C 70.4375 24.015625 69.628906 23.253906 68.589844 22.722656 C 67.550781 22.167969 66.351562 21.890625 65 21.890625 C 63.667969 21.890625 62.484375 22.167969 61.445312 22.722656 C 60.40625 23.253906 59.582031 24.015625 58.976562 25.007812 C 58.398438 26 58.109375 27.148438 58.109375 28.453125 C 58.109375 29.757812 58.398438 30.921875 58.976562 31.933594 C 59.582031 32.925781 60.40625 33.699219 61.445312 34.257812 C 62.484375 34.8125 63.667969 35.089844 65 35.089844 Z M 65 35.089844 "/>
<path style=" stroke:none;fill-rule:nonzero;fill:rgb(100%,33.333333%,0%);fill-opacity:1;" d="M 96.296875 45.753906 C 95.5 45.753906 94.738281 45.65625 94.011719 45.464844 C 93.289062 45.269531 92.683594 44.96875 92.199219 44.554688 L 93.214844 42.269531 C 93.964844 42.875 94.933594 43.179688 96.117188 43.179688 C 97.082031 43.179688 97.820312 42.886719 98.328125 42.308594 C 98.859375 41.726562 99.125 40.855469 99.125 39.695312 L 99.125 22.585938 L 102.171875 22.585938 L 102.171875 39.695312 C 102.171875 41.558594 101.664062 43.03125 100.648438 44.121094 C 99.632812 45.210938 98.183594 45.753906 96.296875 45.753906 Z M 96.296875 45.753906 "/>
<path style=" stroke:none;fill-rule:nonzero;fill:rgb(100%,33.333333%,0%);fill-opacity:1;" d="M 114.773438 38.71875 C 112.886719 38.71875 111.195312 38.304688 109.695312 37.484375 C 108.222656 36.636719 107.046875 35.476562 106.179688 34.003906 C 105.332031 32.527344 104.910156 30.847656 104.910156 28.960938 C 104.910156 27.050781 105.332031 25.371094 106.179688 23.921875 C 107.046875 22.445312 108.222656 21.296875 109.695312 20.476562 C 111.171875 19.628906 112.863281 19.207031 114.773438 19.207031 C 116.660156 19.207031 118.339844 19.628906 119.8125 20.476562 C 121.3125 21.296875 122.484375 22.445312 123.332031 23.921875 C 124.179688 25.371094 124.601562 27.050781 124.601562 28.960938 C 124.601562 30.847656 124.179688 32.527344 123.332031 34.003906 C 122.484375 35.476562 121.3125 36.636719 119.8125 37.484375 C 118.339844 38.304688 116.660156 38.71875 114.773438 38.71875 Z M 114.773438 36.070312 C 116.078125 36.070312 117.238281 35.78125 118.253906 35.199219 C 119.269531 34.59375 120.066406 33.761719 120.648438 32.695312 C 121.253906 31.609375 121.554688 30.363281 121.554688 28.960938 C 121.554688 27.535156 121.253906 26.289062 120.648438 25.226562 C 120.066406 24.164062 119.269531 23.339844 118.253906 22.761719 C 117.238281 22.179688 116.078125 21.890625 114.773438 21.890625 C 113.46875 21.890625 112.308594 22.179688 111.292969 22.761719 C 110.277344 23.339844 109.464844 24.164062 108.863281 25.226562 C 108.28125 26.289062 107.992188 27.535156 107.992188 28.960938 C 107.992188 30.363281 108.28125 31.609375 108.863281 32.695312 C 109.464844 33.761719 110.277344 34.59375 111.292969 35.199219 C 112.308594 35.78125 113.46875 36.070312 114.773438 36.070312 Z M 114.773438 36.070312 "/>
<path style=" stroke:none;fill-rule:nonzero;fill:rgb(100%,33.333333%,0%);fill-opacity:1;" d="M 87.542969 38.757812 C 85.535156 38.757812 83.757812 38.347656 82.210938 37.527344 C 80.6875 36.679688 79.492188 35.519531 78.621094 34.042969 C 77.773438 32.570312 77.351562 30.890625 77.351562 29.003906 C 77.351562 27.117188 77.761719 25.4375 78.585938 23.960938 C 79.40625 22.488281 80.53125 21.339844 81.957031 20.515625 C 83.40625 19.671875 85.050781 19.246094 86.890625 19.246094 C 88.628906 19.246094 90.191406 19.636719 91.566406 20.410156 C 92.945312 21.183594 94.046875 22.269531 94.867188 23.671875 C 95.714844 25.050781 96.160156 26.671875 96.210938 28.53125 L 79.925781 31.722656 L 79.78125 29.511719 L 94.433594 26.683594 L 93.308594 28.277344 C 93.308594 27.070312 93.03125 25.980469 92.472656 25.015625 C 91.941406 24.046875 91.191406 23.285156 90.226562 22.730469 C 89.257812 22.148438 88.148438 21.859375 86.890625 21.859375 C 85.609375 21.859375 84.460938 22.148438 83.445312 22.730469 C 82.453125 23.308594 81.679688 24.121094 81.121094 25.160156 C 80.566406 26.199219 80.289062 27.421875 80.289062 28.824219 C 80.289062 30.296875 80.589844 31.589844 81.195312 32.703125 C 81.824219 33.789062 82.683594 34.636719 83.769531 35.242188 C 84.882812 35.820312 86.164062 36.113281 87.613281 36.113281 C 88.773438 36.113281 89.839844 35.917969 90.804688 35.53125 C 91.773438 35.121094 92.605469 34.503906 93.308594 33.683594 L 94.976562 35.640625 C 94.15625 36.65625 93.101562 37.429688 91.820312 37.960938 C 90.539062 38.492188 89.113281 38.757812 87.542969 38.757812 Z M 87.542969 38.757812 "/>
<path style="fill:none;stroke-width:13.8;stroke-linecap:butt;stroke-linejoin:miter;stroke:rgb(100%,33.333333%,0%);stroke-opacity:1;stroke-miterlimit:4;" d="M 645.239258 108.911133 C 645.239258 118.432617 637.524414 126.147461 628.00293 126.147461 C 618.481445 126.147461 610.742188 118.432617 610.742188 108.911133 C 610.742188 99.365234 618.481445 91.650391 628.00293 91.650391 C 637.524414 91.650391 645.239258 99.365234 645.239258 108.911133 Z M 645.239258 108.911133 " transform="matrix(0.16,0,0,0.16,0,0)"/>
</g>
</svg>
