<svg xmlns="http://www.w3.org/2000/svg" id="Layer_1" data-name="Layer 1" viewBox="0 0 128 128"><defs><style>.cls-1{fill:#300}</style></defs><path d="M105.33 1.6H22.67A22.64 22.64 0 0 0 0 24.27v79.46a22.64 22.64 0 0 0 22.67 22.67h82.66A22.64 22.64 0 0 0 128 103.73V24.27A22.64 22.64 0 0 0 105.33 1.6Zm-27.09 88H67.09a.82.82 0 0 1-.85-.59l-4.37-12.74H42L38 88.8a.93.93 0 0 1-1 .75H27c-.58 0-.74-.32-.58-1l17.1-49.4c.16-.54.32-1.12.53-1.76a18.14 18.14 0 0 0 .32-3.47.54.54 0 0 1 .43-.59h13.81c.43 0 .64.16.7.43l19.46 54.93c.16.59 0 .86-.53.86Zm18.4-.6c0 .59-.21.85-.69.85H85.49a.75.75 0 0 1-.8-.85V47.89c0-.53.22-.74.7-.74H96c.48 0 .69.26.69.74Zm-1.12-48.2a6.3 6.3 0 0 1-4.85 1.87 6.61 6.61 0 0 1-4.75-1.87 6.87 6.87 0 0 1-1.81-4.91A6.23 6.23 0 0 1 86 31.15a6.8 6.8 0 0 1 4.74-1.87 6.4 6.4 0 0 1 4.86 1.87 6.75 6.75 0 0 1 1.76 4.74 6.76 6.76 0 0 1-1.84 4.91" class="cls-1"/><path d="M56 57c-.53-1.65-1-3.25-1.55-4.9s-1-3.2-1.44-4.75-.8-2.88-1.17-4.16h-.11a64.65 64.65 0 0 1-1.81 6.88c-.8 2.56-1.6 5.23-2.45 7.89s-1.55 5.23-2.35 7.47h13.55c-.32-1.12-.75-2.45-1.23-3.84S56.48 58.61 56 57" class="cls-1"/></svg>