<?xml version="1.0" encoding="utf-8"?>
<!-- Generator: Adobe Illustrator 16.0.0, SVG Export Plug-In . SVG Version: 6.00 Build 0)  -->
<!DOCTYPE svg PUBLIC "-//W3C//DTD SVG 1.1//EN" "http://www.w3.org/Graphics/SVG/1.1/DTD/svg11.dtd">
<svg version="1.1" id="Layer_1" xmlns="http://www.w3.org/2000/svg" xmlns:xlink="http://www.w3.org/1999/xlink" x="0px" y="0px"
	 width="500px" height="500px" viewBox="0 0 500 500" enable-background="new 0 0 500 500" xml:space="preserve">
<g>
	<path fill-rule="evenodd" clip-rule="evenodd" fill="#FAA625" d="M189.003,270c19.866,0,39.563,0,60.046,0
		c-10.335-34-20.517-67.657-30.535-100.688C208.799,202.46,198.939,236,189.003,270z"/>
	<path fill-rule="evenodd" clip-rule="evenodd" fill="#FAA625" d="M486.493,4C328.629,4,170.766,4,12.902,4
		C4.366,4,4,6.128,4,14.367c0,158.064,0,316.127,0,474.191C4,496.792,4.366,496,12.305,496c158.263,0,316.528,0,474.79,0
		c7.937,0,8.905,0.792,8.905-7.443c0-78.931,0-157.865,0-236.796c0-78.932,0-157.863,0-236.796C496,6.128,495.034,4,486.493,4z
		 M303.63,375c-6.396,0-12.813-0.342-19.176,0.123c-4.59,0.34-6.129-1.5-7.351-5.482c-5.91-19.26-12.196-38.473-18.114-57.729
		c-1.188-3.876-2.895-5.262-7.094-5.212c-21.578,0.25-43.162,0.234-64.742-0.017c-4.542-0.054-6.634,1.158-7.928,5.67
		c-5.495,19.155-11.503,38.158-17.054,57.297c-1.202,4.146-3.031,5.598-7.438,5.488c-12.963-0.323-25.939-0.127-40.135-0.127
		c3.744-11.894,7.146-22.895,10.657-33.848c21.538-67.188,43.151-134.374,64.538-201.607c1.489-4.679,3.567-6.12,8.368-6.014
		c15.181,0.335,30.372,0.088,45.559-0.001c2.838-0.018,4.777,0.149,5.82,3.377c25.408,78.578,50.909,157.462,76.382,236.025
		c0.115,0.352,0.046,2.057,0.104,2.057C318.536,375,311.082,375,303.63,375z M383,375c-15,0-31,0-47,0c0-59,0-118,0-175
		c16,0,32,0,47,0C383,257,383,316,383,375z M359.69,175.867c-14.318-0.021-24.566-9.877-24.666-23.714
		c-0.096-13.795,10.573-24.059,25.023-24.073c14.563-0.014,24.828,9.909,24.938,24.104
		C385.088,166.037,374.569,175.887,359.69,175.867z"/>
</g>
</svg>
