<svg xmlns="http://www.w3.org/2000/svg" xml:space="preserve" viewBox="0 0 128 128"><path fill="#300" d="M22.7 1.6h82.7c12.5 0 22.7 10.1 22.7 22.7v79.5c0 12.5-10.1 22.7-22.7 22.7H22.7C10.1 126.4 0 116.3 0 103.7V24.3C0 11.7 10.1 1.6 22.7 1.6"/><path fill="#ff9a00" d="M61.9 76.3H42l-4 12.5c-.1.5-.5.8-1 .7H27c-.6 0-.7-.3-.6-1l17.2-49.4c.2-.5.3-1.1.5-1.8.2-1.1.3-2.3.3-3.5-.1-.3.2-.5.4-.6h13.8c.4 0 .6.2.7.4l19.5 54.9c.2.6 0 .9-.5.9H67.1c-.4.1-.7-.2-.9-.6zM45.1 65.4h13.5c-.3-1.1-.7-2.5-1.2-3.8-.5-1.4-1-3-1.4-4.6-.5-1.7-1-3.3-1.5-4.9-.5-1.7-1-3.2-1.4-4.7-.4-1.5-.8-2.9-1.2-4.2h-.1c-.5 2.3-1.1 4.6-1.8 6.9-.8 2.6-1.6 5.2-2.5 7.9-.8 2.7-1.6 5.2-2.4 7.4m45.6-22.7c-1.8.1-3.5-.6-4.7-1.9-1.2-1.3-1.9-3.1-1.8-4.9-.1-1.8.6-3.5 1.9-4.7 1.3-1.2 3-1.9 4.7-1.9 2.1 0 3.7.6 4.9 1.9 1.2 1.3 1.8 3 1.8 4.7.1 1.8-.6 3.6-1.9 4.9-1.3 1.3-3.1 2-4.9 1.9m-6 46.3V47.9c0-.5.2-.7.7-.7H96c.5 0 .7.3.7.7V89c0 .6-.2.9-.7.9H85.5c-.5-.1-.8-.4-.8-.9"/></svg>
