<svg xmlns="http://www.w3.org/2000/svg" viewBox="0 0 128 128"><path fill-rule="evenodd" clip-rule="evenodd" fill="#FAA625" d="M1 1v125.792c1 .082.99.235 1.359.235 36.269.011 72.665.011 108.934.011 4.994 0 9.859.004 14.854-.011.328-.001.854-.153.854-.235-.001-41.959-.001-83.792-.001-125.792h-126zm114 62.914v48.551c0 1.688-.253 1.535-1.88 1.535h-97.349c-1.627 0-1.771.154-1.771-1.534v-97.226c0-1.689.144-2.24 1.894-2.24h97.103c1.751 0 2.003.551 2.003 2.363v48.551zM64.414 40.368c-.214-.662-.612-.696-1.193-.693-3.114.019-6.229.069-9.341 0-.984-.021-1.411.274-1.715 1.233-4.385 13.785-8.817 27.561-13.233 41.336-.72 2.246-1.417 4.501-2.185 6.939 2.911 0 5.571-.04 8.229.026.903.022 1.279-.275 1.525-1.126 1.138-3.924 2.37-7.821 3.497-11.748.265-.926.694-1.176 1.625-1.165 4.424.052 8.85.052 13.274 0 .861-.01 1.211.268 1.455 1.062 1.213 3.949 2.502 7.874 3.714 11.823.251.816.566 1.13 1.507 1.062 1.303-.095 2.619-.117 3.93-.117h4.592l-.021-.331c-5.222-16.107-10.451-32.19-15.66-48.301zm-12.413 27.632c2.037-7 4.059-13.848 6.051-20.644 2.053 6.772 4.141 13.644 6.26 20.644h-12.311zM82 89h10v-36h-10v36zM87.071 38.555c-2.963.003-5.151 2.107-5.131 4.936.02 2.837 2.122 4.857 5.057 4.862 3.051.004 5.208-2.015 5.187-4.856-.022-2.91-2.127-4.945-5.113-4.942z"/></svg>