<?xml version="1.0" encoding="utf-8"?>
<!-- Generator: Adobe Illustrator 16.0.4, SVG Export Plug-In . SVG Version: 6.00 Build 0)  -->
<!DOCTYPE svg PUBLIC "-//W3C//DTD SVG 1.1//EN" "http://www.w3.org/Graphics/SVG/1.1/DTD/svg11.dtd">
<svg version="1.1" id="Layer_1" xmlns="http://www.w3.org/2000/svg" xmlns:xlink="http://www.w3.org/1999/xlink" x="0px" y="0px"
	 width="2560px" height="1440px" viewBox="0 0 2560 1440" enable-background="new 0 0 2560 1440" xml:space="preserve">
<g>
	<g>
		<path fill="#136BA2" d="M392.84,722.032c0,26.193,21.322,47.538,47.539,47.538c26.218,0,47.539-21.345,47.539-47.538
			c0-26.218-21.321-47.539-47.539-47.539C414.162,674.493,392.84,695.814,392.84,722.032z"/>
		<path fill="#136BA2" d="M676.481,555.09c-26.121,0-41.699,21.046-41.699,56.286c0,0,0,67.917,0,110.956
			c0,17.678,0,30.925,0,33.068c0,31.041,0,72.464,0,72.464c0,35.24,15.554,56.286,41.655,56.286s41.699-21.046,41.699-56.286
			c0,0,0-41.423,0-72.464l0,0c0-1.96,0-13.29,0-28.777c0-1.407,0-2.84,0-4.291c0-43.039,0-110.956,0-110.956
			C718.132,576.136,702.559,555.09,676.481,555.09z"/>
		<path fill="#136BA2" d="M603.484,559.662c-0.043,0-0.159,0-0.208,0c-3.808,0-23.861,0-43.431,0c-18.511,0-36.508,0-39.716,0l0,0
			h-85.547c-0.048,0-0.116,0-0.184,0c-0.049,0-0.116,0-0.184,0h-1.5v0.092c-22.178,0.899-39.875,19.086-39.875,41.472
			s17.698,40.591,39.875,41.491v0.3h87.414c0,44.883,0,46.479,0,75.691c0,0.624-0.073,1.2-0.073,1.824h0.093
			c0.024,0.508,0.072,0.991,0.072,1.5c0,43.987-35.792,79.779-79.779,79.779c-0.716,0-1.428-0.092-2.148-0.116l-0.232,0.275
			c-1.176-0.115-2.375-0.184-3.58-0.184c-22.961,0-41.583,18.603-41.583,41.564c0,22.961,18.622,41.563,41.583,41.563
			c1.248,0,2.491-0.067,3.716-0.184l0.092,0.14c0.716,0,1.432,0.049,2.168,0.049c89.794,0,163.018-73.064,163.018-162.878
			c0-0.46-0.023-0.968-0.023-1.5h0.023c0-3.532-0.023-13.362-0.023-26.677c0-0.116,0.023-0.208,0.023-0.301
			C603.484,693.55,603.484,563.377,603.484,559.662z"/>
	</g>
</g>
</svg>
