<svg xmlns="http://www.w3.org/2000/svg" viewBox="0 0 128 128"><path fill="#72a1e5" d="M68.406 115v-2.293h2.348v-3.566a3.825 3.825 0 0 1 1.082-2.84 3.653 3.653 0 0 1 2.672-1.067h3.691v2.309h-2.347c-1.04 0-1.723.21-2.051.629-.328.414-.5 1.195-.5 2.348v2.187h3.972v2.285h-3.972v12.735H70.75v-12.723Zm13.117 12.727v-22.532h2.547v22.532Zm8.989-1.856a8.37 8.37 0 0 1-1.293-10.594 8.382 8.382 0 0 1 15.297 6.078 8.384 8.384 0 0 1-8.215 6.82 7.781 7.781 0 0 1-5.79-2.304Zm1.8-9.691c-2 2.32-2 5.754 0 8.074a5.666 5.666 0 0 0 7.981 0 6.138 6.138 0 0 0 0-8.074 5.666 5.666 0 0 0-7.98 0Zm14.18-3.473h2.7l3.421 11.883 3.489-11.883h2.52l3.444 11.89 3.461-11.89h2.696l-4.715 15.02h-2.871l-3.207-11.536-3.168 11.536h-3.04ZM0 127.727v-21.02h2.695v10.988l9.614-10.988h3.004l-8.16 9.246 8.917 11.77h-3.16l-7.473-9.762-2.742 3.117v6.649Zm18.785-4.598v-10.422h2.55v10.508a2.198 2.198 0 0 0 1.106 1.969 5.16 5.16 0 0 0 5.16 0 2.207 2.207 0 0 0 1.098-1.97v-10.507h2.547v10.414a4.254 4.254 0 0 1-1.926 3.695 7.595 7.595 0 0 1-8.62 0 4.262 4.262 0 0 1-1.915-3.687Zm16.828 4.598v-22.532h2.551v7.89a13.677 13.677 0 0 1 4.371-.812 6.181 6.181 0 0 1 2.914.665 4.993 4.993 0 0 1 1.961 1.753 8.55 8.55 0 0 1 1.047 2.375c.23.856.344 1.735.34 2.621 0 2.637-.684 4.637-2.055 6.004-1.37 1.364-3.531 2.043-6.488 2.036Zm2.551-2.286h2.133c2.121 0 3.64-.46 4.562-1.386.922-.918 1.395-2.407 1.41-4.465a6.676 6.676 0 0 0-.94-3.528 3.077 3.077 0 0 0-2.817-1.511c-1.48-.04-2.953.207-4.34.722Zm13.832-5.254c0-2.414.64-4.34 1.922-5.773a6.445 6.445 0 0 1 5.066-2.156c4.18 0 6.27 2.953 6.274 8.855H54.543a5.818 5.818 0 0 0 1.363 3.32c.809.973 2.047 1.458 3.711 1.458 1.7.046 3.387-.274 4.95-.942v2.344a13.025 13.025 0 0 1-4.63.883 9.31 9.31 0 0 1-3.617-.645 6.306 6.306 0 0 1-2.476-1.765 7.592 7.592 0 0 1-1.407-2.528 9.747 9.747 0 0 1-.44-3.05Zm2.64-.992h8.098a6.981 6.981 0 0 0-1.113-3.347 3.025 3.025 0 0 0-2.637-1.301 3.85 3.85 0 0 0-2.914 1.273 5.673 5.673 0 0 0-1.425 3.375ZM94.22 13.527 66.215.043l-17.43 21.855ZM20.523 57.336l19.454 24.39-1.852-46.46Zm17.954-32.738.003-.008L56.645 1.813 27.352 15.921l-7.235 31.687Zm45.355 14.84L63.18 65.788l22.004 17.656 20.875-26.175Zm-36.441 46.5h30.707l-18.856-15.13Zm-3.121-56.72 1.925 47.927 34.617-44.18a3.189 3.189 0 0 1 4.508-.524l21.594 17.332-7.043-30.796Zm0 0"/></svg>
