<svg xmlns="http://www.w3.org/2000/svg" viewBox="0 0 128 128"><path fill="#72a1e5" d="M67.809.715 41.512 33.69l68.55-12.629-.949-.457Zm.195.86 39.863 19.195L43.2 32.68ZM53.727 3.43 10.64 24.18 0 70.8l.605.294L27.5 37.367l.008-.008.004-.007L54.145 3.953Zm-1.059 1.273-25.676 32.2-.02.019L1.009 69.484l10.23-44.828ZM117.512 28.5 35.379 43.629l.012.3 2.859 71.196 51.332-65.508a4.322 4.322 0 0 1 6.117-.707l32.43 26.028Zm-.524.797 10.028 43.867-30.883-24.789h-.004a5.02 5.02 0 0 0-7.09.82l-50.176 64.032-2.773-69.028ZM27.035 51.84.488 85.137l.172.215 29.172 36.578Zm-.617 1.875 2.64 66.144-27.69-34.722Zm67.258 4.695-.211.274-30.492 38.902 32.797 26.312 31.03-38.91Zm.113.973 32.047 25.71-30.172 37.833-31.727-25.45Zm-36.156 45.02L39.605 127.41h46.708Zm.11.972 26.612 21.348h-43.34Zm0 0"/></svg>
