<svg xmlns="http://www.w3.org/2000/svg" viewBox="0 0 128 128"><path fill="#72a1e5" d="M67.809.719 41.512 33.69l68.55-12.629-.949-.457Zm.195.86 39.863 19.194L43.2 32.683ZM53.727 3.433 10.64 24.184 0 70.8l.605.297L27.5 37.368l.012-.013L54.145 3.953Zm-1.059 1.27L26.992 36.905l-.02.02L1.009 69.484l10.23-44.828Zm64.844 23.8-82.133 15.13.012.297 2.859 71.199 51.332-65.512a4.33 4.33 0 0 1 2.91-1.633 4.34 4.34 0 0 1 3.207.926l32.43 26.031Zm-.524.797 10.028 43.863L96.133 48.38h-.004a5.003 5.003 0 0 0-3.715-1.07 5.016 5.016 0 0 0-3.375 1.886L38.863 113.23 36.09 44.2ZM27.035 51.844.488 85.14l.172.214 29.172 36.579Zm-.617 1.875 2.64 66.14-27.69-34.718Zm67.258 4.691-.211.278L62.973 97.59l32.797 26.308 31.03-38.91Zm.113.977 32.047 25.707-30.172 37.836-31.727-25.453Zm-36.156 45.02L39.605 127.41h46.708Zm.11.972 26.612 21.348h-43.34Zm0 0"/></svg>
