<svg xmlns="http://www.w3.org/2000/svg" viewBox="0 0 128 128"><path fill="#4279f4" d="m44.316 29.27 1.895 47.18 34.078-43.493a3.143 3.143 0 0 1 2.11-1.184 3.132 3.132 0 0 1 2.328.672l21.253 17.059-6.93-30.316Zm0 0"/><path fill="#0028aa" d="M47.387 85.105h30.23L59.055 70.211Zm0 0"/><path fill="#014bd1" d="M83.262 39.328 62.93 65.27l21.66 17.378 20.55-25.765Zm0 0"/><path fill="#bedcff" d="m38.613 24.719.004-.008 17.88-22.418L27.663 16.18l-7.121 31.195Zm0 0"/><path fill="#6ca1ff" d="M20.941 56.95 40.09 80.956l-1.824-45.734Zm0 0"/><path fill="#a1c3ff" d="M93.484 13.824 65.918.551 48.762 22.066Zm0 0"/><path fill="#4279f4" stroke="#4279f4" stroke-miterlimit="10" stroke-width="1.479" d="M.738 126.238v-20.691h2.653v10.816l9.464-10.816h2.958l-8.036 9.101 8.782 11.586h-3.114l-7.355-9.609-2.7 3.07v6.543Zm18.492-4.523v-10.262h2.512v10.344a2.158 2.158 0 0 0 1.086 1.937 5.07 5.07 0 0 0 5.082 0 2.164 2.164 0 0 0 1.078-1.937v-10.344h2.508v10.254a4.199 4.199 0 0 1-1.894 3.637 7.49 7.49 0 0 1-8.489 0 4.198 4.198 0 0 1-1.883-3.63Zm16.563 4.523v-22.18h2.512v7.77c1.383-.5 2.836-.77 4.304-.8a6.089 6.089 0 0 1 2.868.652 4.954 4.954 0 0 1 1.93 1.726c.46.723.808 1.512 1.03 2.34.227.84.34 1.707.336 2.578 0 2.598-.675 4.567-2.023 5.91-1.348 1.344-3.477 2.012-6.387 2.004Zm2.512-2.25h2.101c2.086 0 3.582-.453 4.492-1.363.907-.906 1.372-2.371 1.387-4.394a6.57 6.57 0 0 0-.926-3.473 3.025 3.025 0 0 0-2.773-1.488 11.392 11.392 0 0 0-4.273.71Zm13.617-5.172c0-2.375.629-4.27 1.89-5.683a6.36 6.36 0 0 1 4.989-2.121c4.113 0 6.172 2.906 6.176 8.719H54.43a5.693 5.693 0 0 0 1.34 3.265c.796.957 2.015 1.434 3.652 1.434a11.544 11.544 0 0 0 4.875-.926v2.309c-1.453.566-3 .855-4.559.867a9.168 9.168 0 0 1-3.558-.633 6.19 6.19 0 0 1-2.438-1.738 7.472 7.472 0 0 1-1.387-2.489 9.53 9.53 0 0 1-.433-3.004Zm2.598-.976h7.972a6.894 6.894 0 0 0-1.094-3.293 2.977 2.977 0 0 0-2.597-1.281 3.78 3.78 0 0 0-2.867 1.254 5.59 5.59 0 0 0-1.407 3.32Zm0 0"/><path fill="#0028aa" stroke="#0028aa" stroke-miterlimit="10" stroke-width="1.479" d="M68.074 113.711v-2.258h2.313v-3.508a3.766 3.766 0 0 1 1.066-2.797 3.594 3.594 0 0 1 2.63-1.05h3.632v2.273h-2.309c-1.023 0-1.699.207-2.02.617-.323.41-.491 1.18-.491 2.313v2.152h3.91v2.25h-3.91v12.535h-2.512v-12.523Zm12.914 12.527v-22.18h2.508v22.18Zm8.848-1.824a8.252 8.252 0 0 1 8.727-13.656 8.253 8.253 0 0 1-3.028 15.922 7.662 7.662 0 0 1-5.699-2.266Zm1.773-9.543a6.088 6.088 0 0 0 0 7.95 5.578 5.578 0 0 0 7.856 0 6.051 6.051 0 0 0 0-7.95 5.578 5.578 0 0 0-7.856 0Zm13.957-3.418h2.657l3.37 11.7 3.434-11.7h2.477l3.394 11.707 3.407-11.707h2.652l-4.64 14.785h-2.829l-3.156-11.355-3.117 11.355h-2.992Zm0 0"/></svg>
