<svg xmlns="http://www.w3.org/2000/svg" viewBox="0 0 276.919 276.94"><path fill="#72a1e5" d="M142.195-1.996 101.6 48.908l105.822-19.492-4.418-2.127ZM127.881-.713 58.482 32.713 41.34 107.809l43.41-54.436.016-.016zm15.224 2.71 54.092 26.048L109.44 44.21zm-26.464 6.255-34.266 42.97-.01.01-.056.07-34.729 43.55 13.678-59.924zm98.927 30.227L94.246 60.829l.055 1.386 4.275 106.447 76.434-97.545v-.002a5.165 5.165 0 0 1 7.338-.847l49.588 39.798zm-2.435 3.703 13.633 59.632-42.414-34.043v.002c-3.63-2.915-8.993-2.296-11.862 1.372l-71.064 90.693-3.873-96.367ZM84.238 70.674 43.273 122.05l.795.996 44.485 55.777zm-2.855 8.713 3.584 89.808-37.602-47.146zm98.537 2.273-1 1.274-44.975 57.384 49.366 39.604 46.464-58.262zm.521 4.52 44.844 35.98-42.476 53.258-44.393-35.615zm-52.902 62.308L99.264 184.58h73.257zm.522 4.522 35.359 28.37h-57.586zM75.859 222.4v51.2h11.487c6.54.014 11.625-1.492 14.953-4.805 3.284-3.27 4.85-8.026 4.851-13.92v-.002a22.865 22.865 0 0 0-.785-5.996v-.002a19.669 19.669 0 0 0-2.428-5.506l-.002-.006-.004-.004a12.311 12.311 0 0 0-4.804-4.299 14.699 14.699 0 0 0-6.951-1.58c-2.612.055-5.177.539-7.686 1.244V222.4zm97.801 0v51.2h8.63v-51.2zm-13.303.08a9.394 9.394 0 0 0-6.859 2.749l-.006.006-.006.008a9.742 9.742 0 0 0-2.766 7.238v5.92h-5v8.086l1.596.004 3.395.006V273.6h8.638v-27.13h8.461v-8.07h-8.46v-3.06c0-2.293.45-3.67.718-4.01.194-.246 1.119-.73 3.111-.73h6.6v-8.12zm-81.296 3.12h2.228v17.488l2.145-.774a27.687 27.687 0 0 1 8.81-1.634 11.51 11.51 0 0 1 5.443 1.238h.002l.004.002a9.108 9.108 0 0 1 3.551 3.178 16.462 16.462 0 0 1 2.03 4.605l.001.002a19.66 19.66 0 0 1 .674 5.16v.004c0 5.343-1.353 9.114-3.908 11.657-2.512 2.5-6.64 3.887-12.687 3.875H79.06zm97.798 0h2.23v44.8h-2.23zM0 225.62v47.98h8.94v-15.157l4.156-4.732L28.31 273.59h10.74l-20.155-26.592 18.87-21.379H27.094L8.939 246.373V225.62zm160.283.06h6.298v1.72h-3.401c-2.427 0-4.42.418-5.627 1.952-1.133 1.44-1.403 3.381-1.403 5.988v6.26h8.46v1.67h-8.46v27.13h-2.24v-27.097l-4.99-.01v-1.694h5v-9.224l-.002-.035a6.537 6.537 0 0 1 1.85-4.852 6.188 6.188 0 0 1 4.515-1.808zM3.2 228.82h2.54v26.069l22.807-26.069h2.127l-15.91 18.024 17.845 23.547h-2.718l-16.625-21.723-7.526 8.568V270.4H3.2Zm204.053 6.823c-6.675-.186-13.189 3.082-16.951 8.97-5.011 7.843-3.754 18.161 2.988 24.575a18.167 18.167 0 0 0 13.488 5.359c9.304-.038 17.3-6.676 19.04-15.818 1.74-9.154-3.275-18.276-11.934-21.717a19.392 19.392 0 0 0-6.631-1.37zm-79.965 1.81a15.352 15.352 0 0 0-12.031 5.123c-3.02 3.39-4.494 7.934-4.496 13.352a22.445 22.445 0 0 0 1.011 6.988l.004.012.004.011a17.808 17.808 0 0 0 3.297 5.91l.004.005.002.004a14.917 14.917 0 0 0 5.916 4.212 21.435 21.435 0 0 0 8.315 1.479h.004a29.334 29.334 0 0 0 10.4-1.977l1.024-.396v-8.522l-2.23.956a23.321 23.321 0 0 1-9.874 1.87h-.049c-3.227.007-5.286-.863-6.668-2.523l-.006-.008-.006-.006c-1.086-1.277-1.723-2.82-2.117-4.433h22.42v-1.602c-.003-6.475-1.123-11.515-3.64-15.068-2.511-3.544-6.475-5.377-11.284-5.387zm-87.267.947v23.81l.002-.05a10.674 10.674 0 0 0 4.777 9.227 17.806 17.806 0 0 0 20.152 0 10.686 10.686 0 0 0 4.809-9.246V238.4h-8.63v24.035a3.085 3.085 0 0 1-1.534 2.761 9.394 9.394 0 0 1-9.397-.002l-.002-.002-.004-.002a3.062 3.062 0 0 1-1.545-2.754l.002-.023V238.4zm186.248 0 .656 2.08 10.433 33.12h8.864l5.539-20.172 5.603 20.172h8.512l11.043-35.2h-9.12l-6.165 21.202-6.14-21.202h-7.76l-6.22 21.192-6.109-21.192zm-19.114.436a16.26 16.26 0 0 1 5.547 1.148 16.241 16.241 0 0 1 9.97 18.145 16.243 16.243 0 0 1-15.935 13.22h-.025l-.025.003a14.967 14.967 0 0 1-11.14-4.428l-.017-.018-.017-.017a16.244 16.244 0 0 1-2.516-20.553 16.24 16.24 0 0 1 14.158-7.5zm-79.966 1.812.03.002h.032c4.073 0 6.773 1.306 8.709 4.04 1.74 2.455 2.686 6.454 2.889 11.62h-22.78l.125 1.717a13.902 13.902 0 0 0 3.268 7.977l.004.004c2.067 2.478 5.265 3.672 9.103 3.67 3.063.088 6.07-.498 8.971-1.447v1.65c-2.667.909-5.445 1.453-8.268 1.469h-.027a18.225 18.225 0 0 1-7.078-1.258l-.002-.002h-.002a11.708 11.708 0 0 1-4.643-3.307l-.002-.002a14.601 14.601 0 0 1-2.691-4.824 19.247 19.247 0 0 1-.867-5.994l.002-.012v-.011c0-4.858 1.253-8.507 3.683-11.235a12.147 12.147 0 0 1 9.543-4.056zm-83.967.952h2.228v20.79l.002-.046a6.275 6.275 0 0 0 3.153 5.623 12.605 12.605 0 0 0 12.595-.002h.004l.002-.002a6.296 6.296 0 0 0 3.125-5.62V241.6h2.23v20.639a7.472 7.472 0 0 1-3.376 6.483l-.016.011-.016.01a14.588 14.588 0 0 1-16.554 0l-.014-.01-.014-.008a7.463 7.463 0 0 1-3.351-6.465l.002-.025v-.023zm187.41 0h2.365l8.303 28.8h-1.596zm19.498 0h1.559l-7.909 28.8h-2.103zm1.664 0h1.295l8.342 28.8h-1.633zm18.408 0h2.36l-9.036 28.8h-1.7zm-63.451.709a13.63 13.63 0 0 0-9.627 3.955l-.043.043-.041.047c-4.776 5.531-4.776 13.76 0 19.293l.041.046.043.043c5.316 5.274 13.938 5.274 19.254 0l.041-.04.04-.045c4.811-5.523 4.811-13.78 0-19.301l-.04-.045-.041-.041a13.63 13.63 0 0 0-9.627-3.955zm-79.514.02a9.799 9.799 0 0 0-7.386 3.241l-.002.002v.002a13.669 13.669 0 0 0-3.444 8.131l1.576-1.467v3.182h18.971l-.115-1.707a16.511 16.511 0 0 0-2.623-7.885l-.012-.017-.014-.018a8.04 8.04 0 0 0-6.95-3.465zm-35.117.007a26.323 26.323 0 0 0-9.765 1.635l-1.043.387-.022 24.373h6.15c4.746 0 8.453-1.02 10.852-3.42 2.381-2.382 3.43-6.014 3.467-10.621a15.803 15.803 0 0 0-2.219-8.35l-.002-.002a8.153 8.153 0 0 0-7.418-4.002zm114.631 3.154c2.644 0 5.283 1.01 7.324 3.012a11.46 11.46 0 0 1 0 14.996 10.432 10.432 0 0 1-14.646 0 11.529 11.529 0 0 1 0-14.996 10.433 10.433 0 0 1 7.322-3.012zm-79.422.028a4.834 4.834 0 0 1 4.211 2.078c.91 1.407 1.442 2.992 1.77 4.625h-13.301c.407-1.654 1.077-3.23 2.224-4.514a6.597 6.597 0 0 1 4.997-2.187l.05.002zm-35.082.01c1.85-.1 3.596.836 4.535 2.433l.002.004.002.004a12.612 12.612 0 0 1 1.776 6.674v.016c-.032 4.135-.981 6.84-2.532 8.39-1.534 1.535-4.309 2.481-8.59 2.481h-2.947l.016-18.836c2.462-.786 5.022-1.23 7.611-1.164l.065.002z" color="#000" data-name="Layer 1" font-family="sans-serif" font-weight="400" overflow="visible" style="line-height:normal;font-variant-ligatures:normal;font-variant-position:normal;font-variant-caps:normal;font-variant-numeric:normal;font-variant-alternates:normal;font-feature-settings:normal;text-indent:0;text-align:start;text-decoration-line:none;text-decoration-style:solid;text-decoration-color:#000;text-transform:none;text-orientation:mixed;white-space:normal;shape-padding:0;isolation:auto;mix-blend-mode:normal;solid-color:#000;solid-opacity:1" transform="translate(0 1.19)"/></svg>
