<svg xmlns="http://www.w3.org/2000/svg" viewBox="0 0 128 128">
    <path fill="#f5a800" d="m67.531 40.219-7.773 7.773a1.785 1.785 0 0 0 0 2.516l4.797 4.793c3.394-2.434 8.144-2.14 11.195.91l3.887-3.887a1.773 1.773 0 0 0 0-2.511l-9.59-9.594a1.814 1.814 0 0 0-2.516 0Zm-4.98 17.117L59.71 54.5a1.697 1.697 0 0 0-2.402 0l-9.996 9.992a1.71 1.71 0 0 0 0 2.406l5.66 5.66a1.702 1.702 0 0 0 2.406 0l6.43-6.43a8.679 8.679 0 0 1 .742-8.792Zm3.008.926c-2.239 2.238-2.239 5.847 0 8.066a5.684 5.684 0 0 0 8.066 0 5.691 5.691 0 0 0 0-8.066 5.72 5.72 0 0 0-8.066 0Zm6.027 6.047a2.81 2.81 0 0 1-3.992 0 2.815 2.815 0 0 1 0-3.996 2.81 2.81 0 0 1 3.992 0 2.808 2.808 0 0 1 0 3.996Zm1.945-34.114-3.5 3.5c-.68.68-.68 1.805 0 2.5L83.68 49.844c.675.676 1.8.676 2.496 0l3.5-3.5c.68-.68.68-1.805 0-2.5L76.027 30.195a1.754 1.754 0 0 0-2.496 0ZM49.04 74.871a1.599 1.599 0 0 0 0-2.25l-1.773-1.773a1.599 1.599 0 0 0-2.25 0l-3.684 3.656-1.004-1.004a1.433 1.433 0 0 0-2.02 0 1.433 1.433 0 0 0 0 2.02l6.06 6.062a1.433 1.433 0 0 0 2.019 0 1.431 1.431 0 0 0 0-2.023l-1-1ZM4.164 89.059c-2.238 2.238-2.238 5.847 0 8.066a5.684 5.684 0 0 0 8.066 0 5.691 5.691 0 0 0 0-8.066 5.691 5.691 0 0 0-8.066 0Zm6.047 6.03a2.814 2.814 0 0 1-3.996 0c-1.094-1.109-1.11-2.898 0-3.991a2.808 2.808 0 0 1 3.996 0 2.839 2.839 0 0 1 0 3.992Zm10.422-5.042c-1.246 0-2.051.586-2.637 1.371v-1.215h-2.39v10.965h2.39v-3.625c.57.68 1.36 1.266 2.637 1.266 2.008 0 3.84-1.543 3.84-4.368v-.03c0-2.821-1.864-4.364-3.84-4.364Zm1.449 4.394c0 1.418-.937 2.329-2.066 2.329-1.125 0-2.051-.922-2.051-2.329v-.03c0-1.403.926-2.329 2.05-2.329 1.13 0 2.067.926 2.067 2.328Zm8.254-4.394c-2.453 0-4.148 1.973-4.148 4.379v.031c0 2.578 1.863 4.352 4.394 4.352 1.527 0 2.652-.602 3.438-1.575l-1.356-1.203c-.664.617-1.234.864-2.035.864-1.067 0-1.82-.57-2.05-1.649h5.812c.015-.219.03-.433.03-.633 0-2.375-1.296-4.566-4.085-4.566Zm-1.82 3.703c.183-1.082.832-1.79 1.82-1.79 1 0 1.633.724 1.773 1.79Zm12.55-3.703c-1.23 0-1.957.664-2.511 1.371v-1.2h-2.438v8.59h2.438v-4.796c0-1.157.586-1.742 1.527-1.742.926 0 1.48.585 1.48 1.742v4.797H44v-5.555c-.016-1.988-1.098-3.207-2.934-3.207Zm3.965-.371H48.5v9.117h2.516v-9.117H54.5v-2.313h-9.469Zm13.649.37c-2.453 0-4.149 1.974-4.149 4.38v.031c0 2.578 1.867 4.352 4.395 4.352 1.527 0 2.652-.602 3.441-1.575l-1.36-1.203c-.663.617-1.234.864-2.034.864-1.063 0-1.82-.57-2.051-1.649h5.844c.015-.219.03-.433.03-.633-.03-2.39-1.323-4.566-4.116-4.566Zm-1.82 3.704c.183-1.082.831-1.79 1.82-1.79 1.004 0 1.633.724 1.773 1.79Zm7.6-6.387h2.376v11.43H64.46Zm8.24 2.7c-2.454 0-4.15 1.972-4.15 4.378v.032c0 2.574 1.864 4.347 4.395 4.347 1.528 0 2.653-.597 3.438-1.57l-1.356-1.203c-.664.617-1.234.863-2.035.863-1.066 0-1.82-.57-2.05-1.652h5.843a8.7 8.7 0 0 0 .031-.63c-.03-2.39-1.312-4.566-4.117-4.566Zm-1.821 3.687c.183-1.082.832-1.79 1.82-1.79 1 0 1.633.724 1.774 1.79Zm17.812-3.703c-1.171 0-2.066.476-2.824 1.36-.445-.868-1.293-1.36-2.422-1.36-1.23 0-1.972.664-2.527 1.371v-1.2H78.48v8.59h2.438v-4.796c0-1.157.555-1.742 1.48-1.742.91 0 1.418.585 1.418 1.742v4.797h2.438v-4.797c0-1.157.555-1.742 1.48-1.742.91 0 1.418.585 1.418 1.742v4.797h2.438v-5.602c0-2.066-1.094-3.16-2.899-3.16Zm8.743 0c-2.454 0-4.149 1.973-4.149 4.379v.031c0 2.578 1.867 4.352 4.395 4.352 1.527 0 2.652-.602 3.441-1.575l-1.36-1.203c-.66.617-1.234.864-2.034.864-1.063 0-1.82-.57-2.051-1.649h5.844c.015-.219.03-.433.03-.633-.015-2.39-1.308-4.566-4.116-4.566Zm-1.805 3.703c.187-1.082.832-1.79 1.82-1.79 1.004 0 1.637.724 1.774 1.79Zm10.332-5.969h-2.45V90h-1.034v2.098h1.035v4.101c0 2.008 1.015 2.61 2.527 2.61.816 0 1.418-.204 1.945-.512v-1.973c-.355.2-.757.309-1.218.309-.555 0-.79-.278-.79-.848v-3.703h2.036v-2.098h-2.035v-2.203Zm6.355 4.133v-1.758h-2.468v8.727h2.468V95.66c0-2.082 1.004-3.082 2.653-3.082h.125v-2.594c-1.453-.058-2.27.711-2.778 1.93Zm10.641-1.867-1.941 6.062-2.024-6.062h-2.668l3.489 8.945c-.22.445-.45.586-.88.586-.34 0-.742-.156-1.081-.355l-.848 1.82a4.136 4.136 0 0 0 2.238.617c1.508 0 2.235-.68 2.93-2.5l3.422-9.113Zm0 0"/>
</svg>

