<svg xmlns="http://www.w3.org/2000/svg" viewBox="0 0 128 128"><path d="M74.012 13.328c-2.16-3.582-6.039-5.777-10.227-5.777s-8.062 2.195-10.223 5.777L36.734 42.145a82.34 82.34 0 0 1 45.383 68.164H70.309a70.78 70.78 0 0 0-39.527-58.09l-15.57 26.926c12.648 5.676 21.543 17.398 23.598 31.113H11.68a1.94 1.94 0 0 1-1.582-2.836l7.516-12.781c-2.547-2.129-5.457-3.773-8.59-4.859l-7.445 12.781c-1.562 2.684-1.988 5.887-1.172 8.883s2.789 5.547 5.492 7.07a11.9 11.9 0 0 0 5.781 1.535h37.152a49.63 49.63 0 0 0-20.453-44.258l5.902-10.227c17.797 12.227 27.813 32.945 26.336 54.484H92.09a91.74 91.74 0 0 0-41.953-81.305l11.938-20.453a1.97 1.97 0 0 1 2.684-.691c1.355.742 51.879 88.898 52.828 89.922a1.95 1.95 0 0 1-.035 1.949 1.96 1.96 0 0 1-1.707.941h-12.168a103.89 103.89 0 0 1 0 9.742h12.219a11.73 11.73 0 0 0 11.813-11.789 11.47 11.47 0 0 0-1.582-5.832zm0 0" fill="#362d59"/></svg>
