<!-- Created with Inkscape (http://www.inkscape.org/) -->
<svg id="svg2816" xmlns:rdf="http://www.w3.org/1999/02/22-rdf-syntax-ns#" xmlns="http://www.w3.org/2000/svg" xml:space="preserve" viewBox="0 0 100 100" version="1.1" xmlns:cc="http://creativecommons.org/ns#" xmlns:dc="http://purl.org/dc/elements/1.1/">
  <title id="title3537">Apache Cassandra</title>
  <metadata id="metadata2822">
    <rdf:RDF>
      <cc:Work rdf:about="">
        <dc:format>image/svg+xml</dc:format>
        <dc:type rdf:resource="http://purl.org/dc/dcmitype/StillImage"/>
        <dc:title>Apache Cassandra</dc:title>
        <cc:license rdf:resource="Apache License"/>
        <dc:creator>
          <cc:Agent>
            <dc:title>Apache Software Foundation</dc:title>
          </cc:Agent>
        </dc:creator>
        <dc:source>https://svn.apache.org/repos/asf/cassandra/logo/cassandra.svg</dc:source>
      </cc:Work>
    </rdf:RDF>
  </metadata>
  <defs id="defs2820"/>
  <g id="layer2" transform="matrix(0.3750841,0,0,0.3750841,-25.699646,-3.0689381)">
    <g id="g4555" transform="matrix(1.25,0,0,-1.25,19.117647,990)">
      <path id="path2838" d="m150.64,718.6c-3.3847-0.0349-6.8434-0.19925-10.35-0.5-37.404-3.209-66.459-20.77-64.875-39.225,1.582-18.451,33.196-30.834,70.6-27.625s66.459,20.773,64.875,39.225c-1.4337,16.725-27.531,28.463-60.25,28.125zm-9.25-2.675c13.842-0.225,27.511-1.88,37.45-3.425,3.479-5.666,5.45-12.173,5.45-19.1,0-21.888-19.769-39.65-44.15-39.65s-44.125,17.762-44.125,39.65c0,4.108,0.682,8.049,1.975,11.775,12.423,5.305,29.132,10.982,43.4,10.75z" fill-rule="nonzero" fill="#000"/>
      <path id="path2886" d="m137.77,715.97c-4.9007-0.0124-15.7-0.5255-23.65-4.4,0.0664-0.4799,0.18543-0.94995,0.275-1.425-0.17686-0.0813-0.35103-0.16523-0.525-0.25-0.01,0.29823-0.025,0.60181-0.025,0.9,0,0.218,0.02,0.434,0.025,0.65-4.7711-2.3928-8.4733-6.0316-9.15-11.55-0.28113-1.1065-0.425-2.2942-0.425-3.575,0-13.185,7.1338-24.695,17.75-30.9,0.006-0.004,0.019,0.004,0.025,0,0.35993-0.21009,0.70722-0.42724,1.075-0.625,0.01-0.006,0.015-0.0194,0.025-0.025,0.7462-0.41536,1.4958-0.80038,2.275-1.15,0.003,0.015-0.003,0.0348,0,0.05,0.006,0.024,0.0201,0.0487,0.025,0.075,0.003,0.0165-0.004,0.035,0,0.05-0.2033,0.20214-0.40314,0.41702-0.6,0.625-1.7696,2.2111-3.0543,5.8075-4.275,8.15-0.254-0.039-0.534-0.075-0.8-0.075-2.7344,0-5.5759,2.223-5.175,4.85,0.32426,1.2804,1.1672,2.4536,2.625,3.2-0.006,0.0496-0.0191,0.10031-0.025,0.15,0.18512,0.10431,0.39612,0.20098,0.6,0.3-0.34125,2.7624-0.46543,6.5646,0,9.675,0.19408,0.79884,0.42214,1.5829,0.675,2.35-0.0106,0.0154-0.0145,0.0346-0.025,0.05,0.18157,0.35628,0.37041,0.70652,0.525,1.175-2.9069,4.254-4.8627,9.7362-5.125,15.275,0.75009-4.9821,2.7609-9.7092,5.7-13.725,0.969,2.146,2.179,4.126,3.6,5.925-0.009,0.024-0.0165,0.0507-0.025,0.075,0.1991,0.2273,0.4012,0.4485,0.6,0.7-0.15018,0.40491-0.46868,1.6596-0.5,2.2,0.60954,1.3634,1.9851,2.3,3.575,2.3,0.509,0,1.005-0.098,1.45-0.275,4.5538,3.4705,10.116,5.5598,16,5.825-5.2826-1.089-10.374-3.4606-14.325-6.65,0.11-0.25944,0.32766-0.76542,0.5-1.275-0.009-0.007-0.0159-0.0177-0.025-0.025,0.099-0.233,0.17325-0.47112,0.225-0.725,0.009-0.0423,0.0178-0.0822,0.025-0.125,0.007-0.0549,0.025-0.13025,0.025-0.175,0-2.157-1.393-2.675-3.55-2.675-0.49,0-0.967,0.085-1.4,0.25-1.464-1.966-3.247-5.709-4.125-8.05,0.27886-0.24945,0.5497-0.47414,0.825-0.7,2.974-3.0449,6.5532-5.4654,10.525-6.95-0.01,0.201-0.025,0.395-0.025,0.6,0,6.503,5.271,11.775,11.775,11.775,5.828,0,10.658-4.24,11.6-9.8,2.908,1.85,5.483,4.233,7.625,6.975-0.0148,0.0181-0.0355,0.0317-0.05,0.05,0.20383,0.22714,0.40664,0.45259,0.6,0.7-0.46379,0.56583-0.9554,2.0534-1.025,2.95,0.56162,1.2167,1.7723,2.075,3.2,2.075,0.277,0,0.541-0.04,0.8-0.1,1.088,2.236,1.925,4.606,2.45,7.05-0.0242,0.0179-0.0507,0.0322-0.075,0.05,0.1484,0.54364,0.28145,1.0981,0.4,1.65-10.17,7.529-29.85,6.5-29.85,6.5s-0.99144,0.0541-2.625,0.05zm7.975-1.7c1.6993,0.008,3.4228-0.14147,5.15-0.45-2.3988,0.2558-4.5713,0.35387-6.35,0.4,0.39777,0.0186,0.79955,0.0482,1.2,0.05zm25.1-5.325c-0.0357-0.54722-0.14742-1.132-0.275-1.75-0.0185,0.015-0.0314,0.035-0.05,0.05-0.0144-0.22055-0.0557-0.43084-0.075-0.65-0.50755-2.1381-1.371-4.4869-1.95-6.175,0.21694-0.19552,0.3859-0.39211,0.55-0.575,0.10784-0.12019,0.23518-0.23401,0.325-0.35,0.0119-0.014,0.0133-0.0358,0.025-0.05,0.0988-0.13017,0.19328-0.24864,0.275-0.375,0.077-0.12365,0.16346-0.24188,0.225-0.375,0.009-0.0157,0.0162-0.0343,0.025-0.05,0.0858-0.19336,0.17518-0.4151,0.225-0.625,0.01-0.0406-0.008-0.0838,0-0.125,0.006-0.0599,0.0258-0.11617,0.025-0.175-0.0182-1.3046-1.5849-2.35-3.175-2.35-0.199,0-0.384,0.043-0.575,0.075-2.205-3.446-6.069-7.876-9.5-10.1,0.2533-0.0415,0.49818-0.10274,0.75-0.15-0.0407-0.0267-0.0841-0.0485-0.125-0.075,3.17-0.49562,6.217-1.5049,9.025-3,0.46858-0.24939,0.92318-0.50088,1.375-0.775,0.0931-0.0564,0.18248-0.11753,0.275-0.175,0.0352-0.0219,0.0649-0.0529,0.1-0.075,0.50458-0.31646,1.0154-0.65209,1.5-1,0.51818-0.372,1.0066-0.768,1.5-1.175,2.2305,3.9963,3.7195,8.4727,4.275,13.225,0.35429,2.0015,0.575,3.9829,0.575,5.875,0,4.809-2.12,8.339-5.325,10.925zm-49.575-17.35c-0.025-0.109-0.049-0.216-0.075-0.325-0.1008-0.45164-0.17467-0.92336-0.25-1.375-0.008-0.0504-0.0169-0.0996-0.025-0.15-0.0155-0.0586-0.0364-0.1156-0.05-0.175-0.644-2.881-0.771-5.784-0.45-8.6,2.3151-0.4317,4.1038-2.4073,4.2-4.825-0.44877-1.2004-1.2934-2.4451-2-3.1,0.14377-0.31025,0.26613-0.55266,0.4-0.825-0.0172-0.0164-0.0326-0.0338-0.05-0.05,0.919-1.948,2.034-3.799,3.35-5.525,1.5339,4.2359,4.0604,8.0923,7.4,11.2,0.21697,0.20191,0.45119,0.37951,0.675,0.575,0.5117,0.42784,1.0151,0.8625,1.525,1.275-0.597,0.817-1.477,2.842-1.85,3.8-4.975,1.513-9.386,4.351-12.8,8.1zm34.875-7.75c-1.611-4.582-5.967-7.875-11.1-7.875-2.746,0-5.273,0.951-7.275,2.525-4.127-3.214-7.872-8.852-9.775-13.75,0.1209-0.1301,0.21272-0.25081,0.325-0.375-0.01-0.0243-0.0155-0.0507-0.025-0.075,0.27762-0.29911,0.58532-0.56209,0.875-0.85,0.16798-0.16696,0.32821-0.33679,0.5-0.5,0.23008-0.2297,0.44974-0.46583,0.725-0.7,0.005-0.004,0.0204,0.004,0.025,0,0.20151-0.17976,0.3941-0.37505,0.6-0.55,2.888-0.752,5.925-1.15,9.05-1.15,12.57,0,23.617,6.495,30,16.3-0.0342,0.0237-0.0658,0.0514-0.1,0.075,0.16626,0.24096,0.33968,0.4787,0.5,0.725-4.244,2.939-9.235,5.734-14.325,6.2z" fill-rule="nonzero" fill="#373535"/>
      <path id="path2978" fill="#000" d="m195.99,728.75s-13.578-15.611-16.975-13.8l6.25,12.725c-1.3524-2.4724-7.1666-12.1-14.7-10.55,1.0593,1.5964,1.8734,3.0607,2.475,4.275,0.0282,0.0569,0.0727,0.11925,0.1,0.175,1.8842,3.2203,2.675,5.6,2.675,5.6s-6.771-10.869-15.15-7.925c-0.492,0.17275-0.58725,0.60861-0.45,1.175,0.75208,1.0637,1.525,1.95,1.525,1.95s-0.4729-0.43467-1.175-1.025c0.81328,1.635,2.55,3.575,2.55,3.575s-5.626-5.455-9.475-4.775c-3.85,0.679,0.225,7.7,0.225,7.7s-6.791-10.653-8.15-10.2c-1.357,0.453,0.675,7.475,0.675,7.475l-7.7-7.7c-2.717,0.452,0,8.375,0,8.375s-0.87825-2.6394-2.05-4.925c0.32401,1.3364,0.675,2.375,0.675,2.375s-0.66315-1.9847-1.6-4c-0.005-0.0102-0.0202-0.0148-0.025-0.025-0.72358-1.0684-1.4991-1.7852-2.2-1.575-2.266,0.678-2.725,5.9-2.725,5.9s-0.20105-2.4393-1.025-4.575c-0.25381,1.0996-0.35,2-0.35,2s-0.17297-2.1234-0.875-4.15c-0.008-0.009-0.017-0.0162-0.025-0.025-0.43564-0.48176-0.96806-0.83206-1.575-0.95-24.456-4.756-51.385-15.186-85.125-48.925,0.98116,0.52884,1.9283,1.0817,2.875,1.625-1.4134-1.3544-2.8122-2.7373-4.25-4.175,31.929,17.209,44.595,42.56,104.38,44.825,45.259,1.714,66.391-19.178,73.375-19.475,21.285-0.906,34.65,19.7,34.65,19.7s-1.888-2.1653-4.75-4.675c3.9496,3.9136,6.125,7.25,6.125,7.25s-11.92-13.737-21.45-12.1c7.1846,5.786,12.375,15.425,12.375,15.425l-0.375-0.375c1.088,1.7221,1.75,2.925,1.75,2.925s-15.768-16.282-27.45-15.15c4.8971,4.7028,8.3934,10.492,10.55,14.725,0.0135,0.0265,0.0366,0.0486,0.05,0.075,2.632,4.6702,3.95,8.275,3.95,8.275s-11.949-18.442-20.4-21.375c3.6823,3.9753,6.3379,8.2925,8.1,11.7,0.0197,0.0339,0.0304,0.0662,0.05,0.1,0.0719,0.13971,0.15611,0.28855,0.225,0.425,2.6468,4.6598,3.875,8.25,3.875,8.25s-9.7066-14.241-18-17.025c4.3757,4.457,6.623,8.0548,7.75,10.475,2.3769,3.8836,2.55,6.1,2.55,6.1s-15.012-19.391-21.8-17.675c5.3128,6.3832,8.9499,13.009,10.225,15.45,0.11914,0.20848,0.19054,0.35528,0.3,0.55,0.0966,0.19052,0.375,0.7,0.375,0.7,0.85506,1.5519,1.375,2.55,1.375,2.55s-13.352-18.095-16.975-15.15c-0.71182,0.12916-0.6779,0.8832-0.275,1.9,0.006,0.01,0.0187,0.0151,0.025,0.025,1.327,2.0839,2.95,4.1,2.95,4.1s-0.53359-0.43763-1.25-1.025c1.2498,1.8879,2.625,3.6,2.625,3.6s-6.1821-5.4996-9.275-5.725c3.9241,4.3627,8.575,12.45,8.575,12.45s-0.39462-0.45856-0.475-0.55c1.1092,1.7816,1.85,3.1,1.85,3.1z"/><path id="path3006" fill-rule="nonzero" fill="#000" d="m217.04,690.67c-1.996-0.0509-3.7017-0.9845-4.625-3.5-10.531-20.039-32.611-31.239-58.425-34.975-25.814-3.737-44.852,1.673-60.475,6.075-20.549,5.792-36.843-4.495-54.675,4.45,2.4622-1.9505,5.1568-3.8839,9.8-5.125-3.0168,0.57879-6.0469,1.531-9.125,3.075,4.124-3.267,8.839-6.458,22.425-6.5,4.4232-0.0125,18.178,0.6746,21.675-1.375-1.0967-3.9466-9.45-11.825-9.45-11.825s3.8294,3.2363,8.3,6.4c-2.8012-3.9136-7.625-8.425-7.625-8.425s17.755,15.003,21.525,12c-0.22121-4.1862-5.9-12-5.9-12s2.539,3.402,5.675,6.575c-1.6621-4.0327-5-8.625-5-8.625s7.016,9.52,12.225,11.55c3.3252,1.2957,6.1751,1.2263,8.625-1.675-0.80137-3.83-8.275-12.575-8.275-12.575s3.3453,3.2437,6.975,6.4c-2.4719-3.9571-6.3-8.45-6.3-8.45s13.248,12.905,15.625,12.225c0.11448-0.0327,0.23178-0.0944,0.325-0.175,0.32639-3.5395-1-10-1-10s0.62209,1.4703,1.525,3.4c-0.30782-2.8206-0.85-5.45-0.85-5.45s4.7544,11.405,7.375,12.525c-1.002-6.4028-8.725-25.1-8.725-25.1s2.1119,3.8712,4.85,8.65c-2.1246-5.6865-4.175-10.675-4.175-10.675s14.302,26.232,16.975,26.825c1.719,0.3825,3.2412-2.0959,4.45-5.35,0.0153-0.0412,0.0348-0.0836,0.05-0.125,1.5712-5.0713,2.475-10.825,2.475-10.825s-0.19703,1.42-0.4,3.4c0.68134-3.0328,1.075-5.45,1.075-5.45s-2.228,16.94,0.175,18.025c4.0544,1.8346,6.3818,0.57625,7.65-2.2,2.0751-8.577-1.875-24.975-1.875-24.975s1.0616,2.6033,2.275,6.3c-0.71609-4.7197-1.6-8.35-1.6-8.35s8.6027,21.2,4.875,28.525c-0.0553,0.27843-0.1253,0.54204-0.2,0.8,5.9692-4.24,9.3029-9.6649,11.15-14.7,0.0127-0.0346,0.0374-0.0654,0.05-0.1,2.0253-6.8592,1.45-12.475,1.45-12.475s0.42291,0.93031,0.625,2.925c0.24904-3.0029,0.05-4.975,0.05-4.975s2.6389,5.7355-2.125,19.25c-0.002,0.007,0.002,0.0177,0,0.025-1.1181,3.5284-2.781,7.6198-5.175,12.375,6.448-0.27858,15.8-16.7,15.8-16.7s-1.2775,2.277-2.625,5.2c1.1801-1.8402,1.925-3.175,1.925-3.175s-2.6094,4.6875-4.35,9.4c-0.012,0.0325-0.013,0.0675-0.025,0.1-1.1758,3.9146-1.3481,7.3559,1.675,7.5,6.6436,0.31594,10.486-5.118,12.7-10.975,0.0374-0.0988,0.0636-0.20099,0.1-0.3,1.8028-5.8822,2.15-11.5,2.15-11.5s0.1986,0.20127,0.4,0.75c0.21601-1.6789,0.275-2.775,0.275-2.775s2.6249,2.279-1.9,15.575c-0.10187,0.32586-0.23837,0.70877-0.35,1.05-1.0614,3.2446-2.602,7.204-4.725,12,7.3474,4.1054,24.625-23.2,24.625-23.2s-1.7762,3.049-4.025,7.025c2.0352-2.8933,3.35-4.975,3.35-4.975s-9.9443,16.628-12.975,24.675c-0.28559,1.1205-0.29372,1.8934,0.075,2.15,2.603,1.812,12.1-8.6,12.1-8.6s-1.4251,1.9911-2.85,4.275c1.2688-1.2635,2.175-2.225,2.175-2.225s-3.4051,4.6765-4.925,7.95c-0.003,0.006,0.003,0.0185,0,0.025-0.0561,0.4657,0.021,0.80236,0.3,0.95,1.923,1.019,21.15-19.8,21.15-19.8s-2.9159,3.5445-6.125,7.825c3.0997-3.2257,5.45-5.8,5.45-5.8s-10.69,12.861-13.625,19.4c-0.11325,0.66383-0.0513,1.1737,0.275,1.45,1.7289,1.4629,6.7097-1.2162,10.55-3.675-2.2589,1.6176-4.8456,3.5512-7,5.425,2.0158-0.78126,4.3108-2.1104,6.325-3.4-3.7065,2.6538-8.4379,6.2812-10.275,8.75,0.0778,0.1495,0.21063,0.27678,0.4,0.375,5.209,2.705,20.025-6.475,20.025-6.475s-2.4244,2.0415-4.55,4.225c2.2639-1.2011,3.875-2.175,3.875-2.175s-4.9915,4.117-6.9,6.95c0.0262,0.0671,0.079,0.11838,0.125,0.175,1.471,1.811,19-11.55,19-11.55s-6.4976,5.149-11.3,9.6c5.1141-3.3738,10.625-7.55,10.625-7.55s-12.204,9.6246-15.5,13.925c1.4149,1.6476,12.1-1.7,12.1-1.7s-3.8434,1.8008-7.6,3.8c3.3101-0.62243,6.925-1.775,6.925-1.775s-9.4941,4.4143-13.175,7.1c2.2374,0.0696,8.775-2.675,8.775-2.675s-3.076,2.5072-6.625,4.15c2.6999-0.77766,5.925-2.1,5.925-2.1s-6.899,5.655-12,5.525zm0.15-28.575c2.6734-1.9142,4.85-3.35,4.85-3.35s-2.1527,1.623-4.85,3.35zm0.675-2.025c2.6755-1.9159,4.85-3.35,4.85-3.35s-2.1511,1.622-4.85,3.35z"/>
    </g>
  </g>
</svg>
