<?xml version="1.0" encoding="UTF-8" standalone="no"?>
<svg
   width="128"
   height="128"
   viewBox="0 0 128 128"
   version="1.1"
   id="svg1"
   sodipodi:docname="Slice.svg"
   inkscape:version="1.3.2 (091e20e, 2023-11-25, custom)"
   xmlns:inkscape="http://www.inkscape.org/namespaces/inkscape"
   xmlns:sodipodi="http://sodipodi.sourceforge.net/DTD/sodipodi-0.dtd"
   xmlns="http://www.w3.org/2000/svg"
   xmlns:svg="http://www.w3.org/2000/svg"
   xmlns:rdf="http://www.w3.org/1999/02/22-rdf-syntax-ns#"
   xmlns:cc="http://creativecommons.org/ns#"
   xmlns:dc="http://purl.org/dc/elements/1.1/">
  <defs
     id="defs1" />
  <sodipodi:namedview
     id="namedview1"
     pagecolor="#ffffff"
     bordercolor="#111111"
     borderopacity="1"
     inkscape:showpageshadow="0"
     inkscape:pageopacity="0"
     inkscape:pagecheckerboard="1"
     inkscape:deskcolor="#d1d1d1"
     inkscape:zoom="4.2592135"
     inkscape:cx="73.839924"
     inkscape:cy="57.874535"
     inkscape:window-width="1920"
     inkscape:window-height="1009"
     inkscape:window-x="-8"
     inkscape:window-y="-8"
     inkscape:window-maximized="1"
     inkscape:current-layer="svg1" />
  <title
     id="title1">file_type_slice</title>
  <circle
     cx="64"
     cy="64"
     style="fill:#447cd2;stroke-width:4.57143"
     id="circle1"
     r="64" />
  <path
     d="M 99.75314,51.753143 A 12.374857,12.374857 0 0 1 91.917714,54.203429 13.257143,13.257143 0 0 1 81.952,50.089143 18.939429,18.939429 0 0 1 78.262857,36.658286 a 17.723429,17.723429 0 0 1 4.068572,-12.772572 13.714286,13.714286 0 0 1 10.226285,-3.849143 13.065143,13.065143 0 0 1 7.689146,2.313143 10.381714,10.381714 0 0 1 4.11428,6.134857 L 115.712,26.230857 A 64.379429,64.379429 0 0 0 102.54171,12.864 31.300571,31.300571 0 0 0 93.248,11.492571 26.797714,26.797714 0 0 0 74.048,18.134857 25.142857,25.142857 0 0 0 66.537143,37.28 23.940571,23.940571 0 0 0 73.549714,55.803429 25.997714,25.997714 0 0 0 91.945143,62.752 26.514286,26.514286 0 0 0 106.97143,58.971429 21.664,21.664 0 0 0 115.57029,47.008 l -11.01258,-3.2 a 14.285714,14.285714 0 0 1 -4.80457,7.945143 z"
     style="fill:#ffffff;stroke-width:4.57143"
     id="path1" />
  <metadata
     id="metadata1">
    <rdf:RDF>
      <cc:Work
         rdf:about="">
        <dc:title>file_type_slice</dc:title>
      </cc:Work>
    </rdf:RDF>
  </metadata>
</svg>
