<svg xmlns="http://www.w3.org/2000/svg" viewBox="0 0 128 128"><path d="M33.406 66.334c.132 1.235 1.256 3.353 4.516 3.353 2.842 0 4.208-1.809 4.208-3.573 0-1.589-1.08-2.89-3.216-3.331l-1.543-.331c-.594-.11-.99-.441-.99-.97 0-.618.616-1.081 1.387-1.081 1.234 0 1.697.816 1.785 1.455l2.445-.551c-.132-1.17-1.168-3.132-4.252-3.132-2.335 0-4.054 1.61-4.054 3.55 0 1.523.948 2.78 3.04 3.243l1.433.331c.837.177 1.167.574 1.167 1.059 0 .574-.462 1.08-1.432 1.08-1.277 0-1.916-.793-1.982-1.654zm18.089 3.022h2.798a17.853 17.853 0 0 1-.11-1.963v-8.89h-2.93v6.31c0 1.256-.75 2.139-2.05 2.139-1.365 0-1.982-.97-1.982-2.184v-6.264h-2.93v6.86c0 2.36 1.498 4.279 4.12 4.279 1.145 0 2.401-.441 2.996-1.456 0 .441.044.948.088 1.17zm8.745 4.191v-5.25c.529.728 1.63 1.324 3.129 1.324 3.062 0 5.11-2.427 5.11-5.713 0-3.22-1.828-5.647-5-5.647-1.63 0-2.842.728-3.327 1.566v-1.323H57.31v15.043zm5.354-9.617c0 1.941-1.19 3.066-2.688 3.066-1.498 0-2.71-1.147-2.71-3.066 0-1.92 1.212-3.044 2.71-3.044s2.688 1.125 2.688 3.044zm4.545 2.47c0 1.698 1.41 3.265 3.723 3.265 1.608 0 2.644-.75 3.194-1.61 0 .419.045 1.014.11 1.3h2.689a12.162 12.162 0 0 1-.132-1.72v-5.338c0-2.183-1.278-4.124-4.715-4.124-2.908 0-4.473 1.875-4.649 3.573l2.6.551c.088-.948.793-1.764 2.07-1.764 1.235 0 1.83.64 1.83 1.411 0 .375-.199.684-.816.772l-2.665.397c-1.807.265-3.239 1.346-3.239 3.287zm4.34 1.08c-.947 0-1.41-.617-1.41-1.257 0-.838.595-1.257 1.344-1.367l2.445-.375v.485c0 1.92-1.145 2.515-2.38 2.515zm11.039 1.876v-1.323c.572.926 1.718 1.588 3.216 1.588 3.085 0 5.112-2.449 5.112-5.735 0-3.22-1.829-5.67-5.001-5.67-1.609 0-2.798.707-3.283 1.479v-6.309h-2.886v15.97zm5.397-5.448c0 1.985-1.19 3.088-2.687 3.088-1.476 0-2.71-1.125-2.71-3.088 0-1.986 1.234-3.066 2.71-3.066 1.498 0 2.687 1.08 2.687 3.066zm4.59 2.492c0 1.698 1.41 3.265 3.723 3.265 1.608 0 2.644-.75 3.195-1.61 0 .419.044 1.014.11 1.3h2.688a12.23 12.23 0 0 1-.132-1.72v-5.338c0-2.183-1.278-4.124-4.715-4.124-2.908 0-4.473 1.875-4.649 3.573l2.6.551c.088-.948.793-1.764 2.07-1.764 1.235 0 1.83.64 1.83 1.411 0 .375-.199.684-.816.772l-2.665.397c-1.807.265-3.239 1.346-3.239 3.287zm4.34 1.08c-.947 0-1.41-.617-1.41-1.257 0-.838.595-1.257 1.344-1.367l2.445-.375v.485c0 1.92-1.145 2.515-2.379 2.515zm7.275-1.146c.132 1.235 1.256 3.353 4.516 3.353 2.842 0 4.208-1.809 4.208-3.573 0-1.589-1.08-2.89-3.216-3.331l-1.543-.331c-.594-.11-.99-.441-.99-.97 0-.618.616-1.081 1.387-1.081 1.234 0 1.697.816 1.785 1.455l2.445-.551c-.132-1.17-1.167-3.132-4.252-3.132-2.335 0-4.053 1.61-4.053 3.55 0 1.523.946 2.78 3.04 3.243l1.432.331c.837.177 1.168.574 1.168 1.059 0 .574-.463 1.08-1.433 1.08-1.278 0-1.916-.793-1.982-1.654zm13.17-3.64c.066-.993.903-2.14 2.424-2.14 1.674 0 2.38 1.06 2.423 2.14zm5.134 2.823c-.353.97-1.102 1.655-2.468 1.655-1.454 0-2.666-1.037-2.732-2.47h7.755c0-.045.044-.486.044-.905 0-3.485-2.005-5.625-5.353-5.625-2.776 0-5.332 2.25-5.332 5.713 0 3.662 2.621 5.801 5.596 5.801 2.666 0 4.384-1.566 4.935-3.44zM10.895 51.658a1.051 1.051 0 0 0-.88.41L.496 64.054c-1.123 1.414-.115 3.5 1.69 3.5h9.831l.106 7.688c0 .7.499 1.1 1.1 1.1.3 0 .6-.101.8-.401l9.51-11.996c1.2-1.4.2-3.5-1.602-3.5H11.99l-.051-7.723c-.009-.634-.513-1.042-1.043-1.064zm2.03 9.787h9.007c.5 0 .8.201 1 .701.2.4.1.9-.1 1.2L13.325 75.34h-.102s-.1 0-.1-.1l-.199-13.796z"/></svg>
