<svg xmlns="http://www.w3.org/2000/svg" viewBox="0 0 128 128">
    <path fill="#87802a" d="M116.828 76.945h8.348v1.356h-6.723v6.234h6.399v1.41h-6.399v6.774h7.156v1.41h-8.78Zm-13.61 0h11.927v1.356h-5.149v15.828h-1.625V78.3h-5.152Zm-5.91 11.004h3.797l-3.253-7.804-.543-1.465v-1.735h1.03l7.212 17.184h-1.953l-2.059-4.77h-4.23Zm-3.792 0h3.793v1.41h-4.282l-1.953 4.77H89.34l6.832-17.184h1.137v1.735l-.051-.164h-.055l-.598 1.574ZM74.543 76.945h2.004l8.348 13.88.761 1.57h.051l-.05-2.004V76.945h1.57V94.13h-2.004L76.98 80.47l-.921-1.844h-.11l.11 2.008V94.13h-1.516Zm-8.352 7.75a4.338 4.338 0 0 0 2.008-.812c.758-.594 1.192-1.356 1.192-2.332 0-.16-.055-.38-.055-.594 0-.219-.055-.434-.16-.652-.164-.489-.489-.922-.977-1.356-.433-.379-1.086-.594-2.008-.648v-1.356c1.301 0 2.278.27 2.93.703.703.489 1.246 1.032 1.516 1.63.218.484.379.972.433 1.355 0 .433.055.758.055.918 0 1.14-.379 2.062-1.137 2.765-.761.707-1.629 1.141-2.601 1.246.488.11.812.22 1.027.489.273.219.434.433.543.761.11.106.164.215.164.325.055.11.106.215.16.27l2.985 6.722h-1.79l-2.82-6.395c-.054-.054-.054-.109-.11-.109 0-.055-.054-.11-.054-.164-.215-.434-.433-.758-.703-.977-.164-.105-.324-.16-.598-.214Zm-3.144-6.394v6.449h2.387c.27 0 .543 0 .757-.055v1.575a4.302 4.302 0 0 0-.976-.11h-2.168v7.969h-1.625V76.945h4.77v1.356Zm-13.172-1.356h8.348v1.356H51.5v6.234h6.398v1.41H51.5v6.774h7.21v1.41h-8.835Zm-7.754 7.59a3.696 3.696 0 0 0 2.168-.867c.652-.598.977-1.41.977-2.387 0-.976-.325-1.734-.977-2.222-.539-.434-1.246-.704-2.168-.704v-1.41c1.734 0 2.93.434 3.633 1.192.762.812 1.14 1.734 1.195 2.71.051.055.051.11.051.22v.16c0 .164 0 .324-.05.433v.434a4.748 4.748 0 0 1-.872 1.734c-.433.543-1.082.977-2.058 1.3v.056c.921.164 1.734.597 2.44 1.355.704.707 1.028 1.629 1.028 2.711 0 .273 0 .598-.054.867a5.9 5.9 0 0 1-.215.977c-.27.758-.813 1.465-1.625 2.058-.762.598-1.899.922-3.473.977v-1.465h.328c.324 0 .649-.105.973-.16a3.218 3.218 0 0 0 1.574-.977c.488-.433.758-1.191.758-2.222 0-.868-.215-1.52-.649-2.004-.378-.434-.867-.817-1.355-.977-.488-.219-.922-.328-1.3-.328-.11-.05-.22-.05-.329-.05Zm-3.144-6.234v6.234h3.144v1.41h-3.144v6.774h2.605c.16 0 .324 0 .54-.055v1.465h-4.77V76.945h4.77v1.41c-.106-.054-.216-.054-.325-.054Zm-6.395-1.356h1.625V94.13h-1.625Zm-15.504 0h1.625v7.59h8.945v-7.59h1.625V94.13h-1.625v-8.24h-8.945v8.238h-1.625Zm0 0"/>
    <path fill="#903a36" d="M2.168 76.945h2.008l8.402 13.88.758 1.57h.055l-.055-2.004V73.91h1.52v20.218h-2.008l-8.239-13.66-.921-1.844h-.055l.11 2.008v13.496H2.167Zm0 0"/>
    <path fill="#903a36" d="M13.336 73.258h112.652v1.355H13.336ZM1.844 98.25h124.144v-1.3H1.844Zm0 0"/>
    <path fill="#87802a" d="M60.875 28.16c-5.621 0-10.688 2.52-14.137 6.492a7.18 7.18 0 0 1 1.508.266c.004 0 .012-.004.016 0 3.187-3.352 7.66-5.461 12.613-5.461h.055c9.597 0 17.453 7.86 17.453 17.508S70.527 64.469 60.93 64.469h-.055c-9.594 0-17.45-7.856-17.45-17.504 0-1.375.169-2.707.47-3.992-.172-1.157-.387-2.012-.637-2.426a18.714 18.714 0 0 0-1.133 6.418c0 10.355 8.45 18.765 18.75 18.765h.055c10.3 0 18.77-8.41 18.77-18.765 0-10.356-8.47-18.805-18.77-18.805Zm0 0"/>
    <path fill="#903a36" d="M75.516 41.004c-1.407-4.012-4.825-7.484-9.106-9.055-2.656-.976-6.887-.707-9.597.164-2.168.703-2.278.703-4.282 1.895-.758.433-2.168.054-2.71.762-.544.703.597 1.734.652 2.601 0 .379 1.355-2.223 1.355-1.898 0 .812-.922 2.547-1.086 3.742-.324 2.273.488 8.941 1.031 11.113.106.324 1.137-.055 1.41-.164.434-.055.813-1.465 1.462-1.898 2.82-2.004 4.335-4.606 6.667-5.04 2.118-.382 4.665.868 5.586 2.602.489.922.868 1.95.868 2.602 0 .488-.164.758-.274.488-.648-1.844-1.3-3.254-1.894-3.742-1.41-1.137-2.063-1.465-4.121-1.031-2.114.488-6.07 4.34-7.32 6.074-.759 1.031-1.028 2.82-.489 3.633 1.684 2.437 3.039 3.09 6.02 3.304.109 0 .976.598.597.598-3.797 0-5.695-1.031-8.242-5.043-.27-.434-.867-2.059-1.031-2.547-1.028-2.766-.758-7.371-1.301-11.059-.16-1.085-.379-2.332-.922-3.09-.867-1.3-6.125-1.03-6.883.325-.433.324-.597.597-.273.812 2.875 2.168 2.875 4.555 2.984 6.887.11 3.035.11 5.258 1.192 8.078 2.168 5.906 7.046 9.813 12.523 10.57 6.668.977 11.492-1.68 15.125-6.289 3.254-4.12 3.793-10.515 2.059-15.394Zm0 0 M55.457 37.531c.055-.433.164-1.46.488-1.789.598-.539 1.41-.867 2.117-.433 1.028.597 1.516 1.3 1.461 2.441-.105 1.082-1.355 1.625-2.277 1.734.762-.379 1.734-.812 1.574-1.898-.11-.379-.867-.215-1.14-.543-.215-.27.054-1.137-.215-1.191-.164 0-.38 0-.543.054-.649.164-1.246.758-1.465 1.625ZM54.211 44.2c.219-.324.762-.867 1.14-1.406.54-.707.489-1.14 1.247-1.953-.653 1.082-.38 1.57-.977 2.222-.27.27-.543.704-1.41 1.137Zm0 0"/>
    <path fill="#903a36" d="M1.844 73.258H11.87v1.355H1.844Zm0 0"/>
</svg>
