<svg xmlns="http://www.w3.org/2000/svg" viewBox="0 0 128 128">
    <path fill="#903a36" d="M65.2 3.71c-17.99 0-34.2 8.067-45.24 20.778 1.638.11 3.255.395 4.83.848.01 0 .034-.012.05 0C35.035 14.609 49.352 7.863 65.2 7.863h.175c30.71 0 55.852 25.153 55.852 56.024 0 30.875-25.141 56.015-55.852 56.015h-.176c-30.699 0-55.84-25.14-55.84-56.015 0-4.399.543-8.66 1.504-12.774-.55-3.703-1.238-6.437-2.039-7.761A59.96 59.96 0 0 0 5.2 63.887c0 33.136 27.04 60.05 60 60.05h.176c32.96 0 60.066-26.914 60.066-60.05 0-33.137-27.105-60.176-60.066-60.176Zm46.85 41.103c-4.503-12.84-15.44-23.95-29.14-28.977-8.496-3.121-22.035-2.262-30.707.527-6.937 2.246-7.293 2.246-13.703 6.063-2.426 1.387-6.938.172-8.672 2.437-1.742 2.25 1.91 5.551 2.086 8.325 0 1.21 4.336-7.114 4.336-6.075 0 2.598-2.95 8.153-3.477 11.977-1.035 7.273 1.563 28.61 3.301 35.558.34 1.04 3.637-.175 4.512-.523 1.387-.176 2.602-4.688 4.68-6.074 9.023-6.414 13.87-14.739 21.332-16.13 6.777-1.222 14.93 2.778 17.875 8.329 1.566 2.95 2.777 6.238 2.777 8.324 0 1.563-.523 2.426-.875 1.563-2.074-5.899-4.16-10.41-6.063-11.973-4.511-3.64-6.601-4.687-13.187-3.3-6.762 1.562-19.422 13.89-23.422 19.437-2.43 3.3-3.289 9.023-1.566 11.625 5.39 7.8 9.726 9.886 19.265 10.574.348 0 3.121 1.914 1.91 1.914-12.152 0-18.222-3.3-26.374-16.14-.864-1.387-2.774-6.587-3.301-8.149-3.29-8.852-2.426-23.586-4.16-35.39-.512-3.47-1.215-7.462-2.954-9.887C23.75 24.688 6.926 25.55 4.5 29.887c-1.387 1.039-1.91 1.91-.875 2.601 9.2 6.938 9.2 14.575 9.55 22.035.352 9.715.352 16.829 3.813 25.852 6.938 18.898 22.547 31.402 40.075 33.824 21.335 3.125 36.773-5.375 48.398-20.125 10.414-13.183 12.14-33.648 6.59-49.261ZM47.863 33.7c.176-1.388.524-4.673 1.563-5.727 1.91-1.723 4.511-2.774 6.773-1.383 3.29 1.91 4.852 4.16 4.676 7.808-.336 3.465-4.336 5.204-7.29 5.551 2.442-1.215 5.552-2.597 5.04-6.074-.352-1.21-2.777-.688-3.648-1.738-.688-.864.171-3.637-.688-3.809-.527 0-1.219 0-1.738.172-2.078.523-3.989 2.426-4.688 5.2Zm-3.988 21.34c.7-1.036 2.438-2.774 3.648-4.5 1.727-2.263 1.567-3.645 3.989-6.247-2.086 3.46-1.215 5.023-3.125 7.11-.864.863-1.739 2.253-4.512 3.636Zm0 0"/>
</svg>
