<svg xmlns="http://www.w3.org/2000/svg" viewBox="0 0 128 128"><path fill="#1e87f0" d="M107.9855 56.6963c.1576.1007.2712.285.2967.4811.026.2009-.0583.5452-.192.7843-.257.4595-.8222.884-1.361 1.0225-.1998.0512-.4618.0638-.6128.0293-.2309-.0528-.3774-.162-.4702-.3506-.0583-.1183-.0626-.1416-.0616-.3105.002-.4229.2118-.8498.5916-1.2037.3915-.365.8447-.5599 1.3115-.5648.2362-.0025.362.0258.4978.1124zm7.5226 3.4025c.4258-.0006.7473.1238 1.0081.3853.2805.2812.4014.6225.356 1.0057-.0583.4898-.2447.8795-.6014 1.2552-.295.3106-.5816.5268-.9493.7154-.2074.1063-.7082.2837-.73.2585-.008-.009-.0535-.1123-.1017-.2297l-.0874-.2137.1634-.0999c.224-.1369.4094-.3226.4863-.4869.158-.3377.0477-.68-.2649-.8203-.3702-.1661-1.0548-.0894-1.604.1795-.5274.2582-1.1286.8768-1.4885 1.5305-.0377.0684-.5265 1.1064-1.0864 2.3069-.56 1.2003-1.0446 2.2299-1.077 2.2877-.1208.2164-.207.3227-.2968.3661-.0806.039-.0963.04-.2308.0193-.4358-.0678-.7973-.4314-.9226-.9285-.0762-.3021-.064-.6914.0353-1.1746l.036-.1757-.2698.2524c-.5988.5598-.988.8597-1.5723 1.2109-.6365.3826-1.2676.6335-1.8761.7454-.4643.0854-.8084.1027-1.1027.0568-.6026-.094-1.0554-.461-1.2437-1.0086-.1401-.407-.12-.8707.0603-1.3982.0333-.0973.426-.9818.8729-1.9658.471-1.0372.8328-1.858.8603-1.9529.0262-.0899.052-.2322.0575-.3165.009-.1349.005-.1637-.0342-.2387-.058-.1104-.1148-.1494-.2554-.1752-.2077-.0383-.524.0154-.8387.1423l-.1657.067-.1227-.2135c-.12-.21-.1213-.2141-.0832-.2424.1752-.1295 1.3888-.756 1.6984-.8764.2275-.0885.5545-.1785.8232-.2267.2756-.0496.7669-.0456.9622.0077.5513.1509.8048.4914.7735 1.0392-.0138.2419-.0712.5173-.164.7856-.0414.1199-.4129.9549-.8255 1.8551-.4128.9004-.7794 1.7016-.8143 1.7806-.092.2075-.1618.4646-.1747.6437-.01.1365-.006.1668.0316.2447.0526.1085.1394.1711.3165.2274.1117.0352.1773.0418.3926.0412.4292-.0013.785-.0993 1.2742-.3518.5404-.2787 1.0059-.6252 1.6512-1.2282l.1592-.1484.1113-.2842c.1803-.4594.5523-1.2992.9094-2.0533.1994-.4211.2596-.6116.2596-.8256.0003-.1772-.0543-.2796-.1818-.3434-.0855-.0427-.1174-.048-.2968-.0454-.2249.0032-.4017.043-.6629.1476l-.161.0647-.122-.213c-.1194-.2088-.1206-.2129-.0826-.2411.1474-.1088 1.2292-.6758 1.5484-.8113.6866-.2913 1.3988-.3988 1.9019-.287.2032.045.4614.1752.5683.2864.2141.2229.2858.546.2185.9842-.0224.1453-.0214.2238.002.1574.0157-.044.4886-.4647.7042-.6264.6869-.5154 1.2792-.7625 2.0006-.834a2.5002 2.5002 0 0 1 .2476-.013zm-16.7738.0006c.23-.001.537.0325.7749.0932.5769.1474 1.0653.4508 1.318.8178.2921.4247.4403 1.1377.3804 1.8326-.1146 1.3306-.6975 2.58-1.6476 3.5328-.9674.97-2.5501 1.8192-3.8851 2.0844-.4242.0842-.6461.1063-1.0542.1053-.5167-.0013-.8614-.0666-1.2474-.2364-.3514-.1545-.6713-.4286-.8944-.767-.066-.0999-.1272-.18-.1359-.1777-.0087.0023-.1024.06-.2081.1286-.4502.2922-1.1686.6712-1.5251.8047-.24.09-.5503.1694-.8232.21-.2504.0374-.779.0532-.9992.03-.4668-.0494-.9582-.1947-1.2736-.3763-.2998-.1727-.6045-.467-.7622-.736-.2226-.3792-.324-.885-.2973-1.4818.0318-.7147.1505-1.2174.4205-1.7805.1904-.3968.396-.7141.998-1.5411.3236-.4447.3523-.4983.3667-.6701.0092-.1097.0044-.1445-.0312-.2178-.0824-.1702-.2929-.2553-.585-.2368-.122.0076-.197.027-.3685.0951l-.2154.085-.113-.2119c-.1112-.2091-.1122-.2128-.0737-.241.1788-.1317 1.3599-.741 1.6704-.8615.6602-.2568 1.3193-.3432 1.7996-.2364.1763.0392.424.1555.5246.2464.2653.2396.3283.6594.1897 1.263-.1087.4736-.2342.7146-.7712 1.4813-.8541 1.2197-.9347 1.3503-1.072 1.7452-.15.4308-.2205 1.0156-.1556 1.2899.098.4137.3862.6037.9147.6042.4204.0005.838-.1334 1.1643-.3738.4145-.3056.874-.9516 1.3407-1.8846.1594-.3185.7028-1.4943 1.455-3.147.5515-1.2115.6068-1.2907.8854-1.2658.5104.0456 1.0114.4422 1.1811.935.1002.2916.092.5879-.0283 1.0554-.1086.4227-.1372.4917-.7608 1.8097-.2367.5001-.4617.9918-.4996 1.093-.155.4139-.2288.7516-.231 1.0512-.0013.1815.0035.2112.0503.3063.1708.348.5549.4789 1.154.3931.6064-.0868 1.0983-.3407 1.5747-.8118.7413-.7332 1.2291-1.7477 1.4047-2.922.0334-.2236.0338-.9686.0006-1.2348-.0572-.4587-.2198-1.2042-.2926-1.3401-.0196-.0367-.0358-.087-.0358-.1113 0-.0705.053-.1534.1202-.189.0506-.027.1606-.0401.2985-.0407zm24.0882.0108c.4984-.002.8385.065 1.1583.2272.3837.1949.6696.5581.785.9986.1587.6063-.0447 1.4432-.5039 2.073-.222.3045-.673.7546-1.042 1.0397-1.042.8052-2.7946 1.546-3.9343 1.6632l-.2058.0216.037.0592c.1785.2836.373.464.6425.5965.8395.4123 2.3964.355 3.71-.1364 1.3685-.512 2.741-1.4962 3.9558-2.837.088-.0973.168-.1772.1775-.1772.01 0 .1033.0694.2077.1539l.1897.1538-.1448.2243c-.808 1.25-1.8244 2.2737-2.9745 2.996-1.2368.7768-2.5882 1.234-4.0588 1.3731-.296.0281-1.1892.04-1.4214.0192-1.01-.0911-1.6946-.2927-2.2495-.6622-.6206-.4134-.9166-.9386-.9722-1.725-.0252-.3563.0564-.9446.1932-1.3963.5344-1.7629 2.1705-3.4224 4.1472-4.207.7538-.2992 1.5385-.4553 2.3033-.4584zm-.9955 1.6828c-.3654.0026-.6744.101-1.0134.3219-.181.118-.5488.4631-.7252.6815-.4147.5134-.8386 1.38-.9973 2.037l-.0137.0556.1758-.013a4.3967 4.3967 0 0 0 .3411-.042c.3508-.0599.7363-.1927 1.0445-.3606.892-.4864 1.6063-1.2819 1.7607-1.9606.0607-.2667.029-.4514-.0986-.5822-.1088-.1114-.2045-.1394-.474-.1376zm-98.9197-4.871c.8704 1.2972 1.624 2.9039 1.9061 4.3675.358 1.5782.3708 3.2222.1038 4.8237-.2958 1.5992-.8648 3.1562-1.7447 4.5422-.6858 1.168-1.9285 2.5417-3.358 3.5489-1.3333.9475-2.8498 1.631-4.4298 2.0061-.7897.187-1.5948.2982-2.3956.328-1.2102.0474-2.7026-.0298-3.8017-.518-.4802-.2038-.9693-.5333-1.3525-.942-.274-.2672-.6736-.848-.8641-1.414-.1846-.5132-.2437-.991-.2666-1.4134-.0423-.6374 0-.8512 0-2.09v-3.8707c0-.5878-.0323-1.2153-.0157-1.8912.0125-.912.0852-1.4992.3579-2.285.2733-.7805.7233-1.4713 1.273-2.043.801-.8275 1.5706-1.2096 2.4698-1.5183l.016-.0055c1.3849-.353 2.4586-.3343 3.809.1969 1.337.5387 2.351 1.5227 2.9388 2.7015.5344 1.0684.7381 2.3316.5816 3.5032-.1566 1.0569-.6157 2.0007-1.4214 2.7666-.9464.883-2.0617 1.3285-3.1918 1.4079-.7372.0559-1.3599-.0341-2.0619-.251-.2193-.0881-.5972-.3367-.4282-1.017l.1723-.8946c.0154-.0791.0868-.1298.1653-.125.5124.0342 1.0828-.0169 1.601-.19.2435-.0858.6044-.2318 1.0065-.5331.3235-.2422 1.1692-1.1946 1.0057-2.474-.0285-.2188-.1478-1.0363-.8647-1.6346-.6685-.5555-1.4283-.5659-1.6496-.5659-.7263 0-1.3867.3024-1.8583.8039-.653.679-.73 1.3072-.7616 2.2198-.0063.5567.016 1.1693.016 1.8452 0 2.3918.002 1.1617-.0092 5.7693.0335.5038.1528.692.1528.692.1734.261.33.4542 1.084.5742.5072.0857 1.2304.1024 1.7751.0857.6126-.0198 1.211-.1094 1.8073-.251 1.1773-.282 2.325-.7929 3.3301-1.4997 1.1153-.7971 2.0578-1.8583 2.513-2.6617.66-1.0362 1.0848-2.2142 1.3204-3.425.19-1.2091.19-2.4506-.0777-3.6222-.1893-1.0296-.8344-2.4348-1.429-3.2687-.5832-.8728-1.4306-1.7562-2.4825-2.4715-1.4458-.979-2.797-1.3312-3.1115-1.4097-1.4761-.3645-2.7013-.2894-3.3455-.2123-1.8378.2132-3.7706 1.0381-5.2779 2.374-1.399 1.2407-2.295 2.733-2.7195 4.163-.2198.724-.3446 1.4135-.392 2.059-.0943 1.1922-.0316 2.4821.1094 3.2519.0622.3888.125.892.2983 1.5606.0168.0498 0 .1094-.0317.1529-.6218.6984-1.4322.9356-1.926.666-.0993-.0559-.2914-.1883-.4287-.5157 0 0-.676-1.7067-.8797-3.0635-.1939-1.3364-.266-3.1121.2764-5.028.535-1.9174 1.7503-3.9285 3.591-5.5717 1.9869-1.7737 4.4044-2.838 7.2269-3.1425 2.7076-.2797 5.7675.362 8.4091 2.1713 1.2717.8412 2.5385 2.1397 3.3001 3.2772z"/><path fill="#62a6ee" d="M50.2223 60.0192c-1.2944.0151-2.3453.3982-3.1497 1.1561-.8043.758-1.2184 1.7981-1.2425 3.1178.0241 1.3197.4382 2.3599 1.2425 3.1178.8044.7579 1.8553 1.141 3.1497 1.156 1.2943-.015 2.3452-.3981 3.1496-1.156.8044-.758 1.2184-1.7981 1.2426-3.1178-.0242-1.3197-.4382-2.3599-1.2426-3.1178-.8044-.7579-1.8553-1.141-3.1496-1.156zm10.0315 0c-1.2943.0151-2.3453.3982-3.1497 1.1561-.8043.758-1.2183 1.7981-1.2425 3.1178.0242 1.3197.4382 2.3599 1.2425 3.1178.8044.7579 1.8554 1.141 3.1497 1.156.568.0016 1.112-.11 1.634-.3413.522-.2313.9612-.5883 1.3108-1.0696l-1.4974-1.1151c-.1856.2778-.4208.4904-.7055.6417-.2848.1514-.6058.2302-.9695.2322-.664-.0144-1.2116-.262-1.6385-.742-.427-.4798-.6454-1.1067-.66-1.8797.0134-.773.2361-1.3999.669-1.8798.433-.4799.9925-.7275 1.6841-.7419.3336.0012.6301.0583.8876.173.2574.1147.477.2823.6554.4961l1.379-1.1288c-.3594-.437-.7909-.7458-1.2925-.9285-.5017-.1827-.9879-.2695-1.4565-.264Zm14.8743 0c-.8283.0017-1.5473.2235-2.1529.6691-.6056.4457-.9218 1.1013-.9512 1.9708.0198.663.2186 1.1514.5962 1.4656.3776.3142.814.5492 1.3108.6964.497.1472.9332.2977 1.3109.4597.3776.162.5763.4244.5962.7828-.015.287-.1484.5015-.4005.6418-.2522.1403-.5338.2098-.842.2094-.3037-.002-.59-.0708-.8648-.2049a1.9493 1.9493 0 0 1-.6964-.5643L71.76 67.5474c.3855.3544.8034.6136 1.2607.7783.4574.1648.9513.2432 1.4747.2413.865.0019 1.5978-.2148 2.1984-.6555.6006-.4406.9117-1.1147.9376-2.0208-.0195-.6964-.2118-1.2019-.5826-1.5202-.3708-.3184-.8001-.5474-1.288-.6828-.488-.1353-.9173-.2759-1.2881-.4232-.3708-.1474-.5677-.3966-.5872-.751.0187-.3015.157-.5204.4142-.651.2572-.1304.5204-.1942.792-.191.2272-.0005.4624.0433.7055.132.243.0885.4391.2261.5917.4096l1.2334-1.3473c-.3482-.302-.7349-.517-1.1606-.6509-.4258-.1338-.8705-.1983-1.3336-.1957Zm7.0685 0c-.8283.0017-1.5473.2235-2.1529.6691-.6056.4457-.9218 1.1013-.9513 1.9708.02.663.2187 1.1514.5963 1.4656.3776.3142.814.5492 1.3108.6964.497.1472.9332.2977 1.3109.4597.3776.162.5763.4244.5962.7828-.015.287-.1484.5015-.4005.6418-.2522.1403-.5339.2098-.842.2094-.3037-.002-.59-.0708-.8648-.2049a1.9493 1.9493 0 0 1-.6964-.5643l-1.2744 1.4018c.3855.3544.8033.6136 1.2607.7783.4574.1648.9512.2432 1.4747.2413.865.0019 1.5978-.2148 2.1984-.6555.6006-.4406.9117-1.1147.9376-2.0208-.0195-.6964-.2118-1.2019-.5826-1.5202-.3708-.3184-.8002-.5474-1.288-.6828-.488-.1353-.9173-.2759-1.2881-.4232-.3709-.1474-.5677-.3966-.5872-.751.0187-.3015.157-.5204.4142-.651.2572-.1304.5204-.1942.792-.191.2272-.0005.4624.0433.7054.132.2431.0885.4392.2261.5917.4096l1.2335-1.3473c-.3482-.302-.7349-.517-1.1606-.6509-.4258-.1338-.8705-.1983-1.3336-.1957Zm-51.5686.2048v8.1381h1.7933v-3.1724h1.3109c.8747.0154 1.591-.1627 2.1483-.5325.5572-.3697.8418-1.023.8602-1.9617-.0232-.9478-.3253-1.603-.9103-1.9617s-1.3121-.5275-2.1802-.5098zm7.7194 0v8.1381h1.7933v-3.2543h.883l1.7022 3.2543h2.1483l-2.0663-3.4363c.5761-.1124 1.0134-.3665 1.3108-.7647.2974-.3982.4446-.8877.446-1.4656-.0237-.9327-.3276-1.5828-.9103-1.948-.5826-.3652-1.3003-.539-2.1574-.5235zm26.3714 0v8.1381h5.7349v-1.6567H66.512v-1.6522h3.5274v-1.6568H66.512v-1.5156h3.7322V60.224zm-14.4965 1.4474c.7741.0144 1.3878.262 1.8388.742.4509.4798.682 1.1067.6918 1.8797-.0098.773-.241 1.3999-.6918 1.8798-.451.4799-1.0647.7275-1.8388.7419-.7742-.0144-1.388-.262-1.8388-.742-.451-.4798-.682-1.1067-.6919-1.8797.0098-.773.241-1.3999.6919-1.8798.4509-.4799 1.0646-.7275 1.8388-.7419zm-17.801.0683h.9194c.366-.0127.7087.043 1.0287.1639.3199.1209.4887.385.5097.792-.0131.3725-.1457.631-.396.7737-.2502.1427-.54.2115-.8693.2048h-1.1925zm7.7194 0h1.1697c.3446-.0117.6594.0465.9422.1684.2828.1219.4336.3775.4506.7738-.0218.425-.189.6885-.5052.7874-.3164.0989-.652.1403-1.0014.1229h-1.056z"/></svg>
