<?xml version="1.0" encoding="utf-8"?>
<svg viewBox="0 0 128 128" xmlns="http://www.w3.org/2000/svg">
  <g id="g3001" transform="matrix(0.14223501086235046, 0, 0, 0.14223501086235046, 25.99625587463379, 17.382905960083008)">
    <path d="M 569.188 277.601 C 570.27 278.292 571.05 279.558 571.225 280.904 C 571.404 282.283 570.825 284.647 569.907 286.289 C 568.142 289.444 564.262 292.358 560.562 293.309 C 559.191 293.661 557.392 293.747 556.355 293.51 C 554.77 293.148 553.764 292.398 553.127 291.103 C 552.727 290.291 552.697 290.131 552.704 288.971 C 552.72 286.068 554.158 283.137 556.766 280.707 C 559.454 278.201 562.565 276.863 565.77 276.829 C 567.392 276.812 568.256 277.006 569.188 277.601 Z M 620.837 300.962 C 623.761 300.958 625.968 301.812 627.759 303.607 C 629.685 305.538 630.515 307.881 630.203 310.512 C 629.803 313.875 628.523 316.551 626.074 319.13 C 624.049 321.263 622.081 322.747 619.556 324.042 C 618.132 324.772 614.694 325.99 614.544 325.817 C 614.491 325.755 614.177 325.046 613.846 324.24 L 613.246 322.773 L 614.368 322.087 C 615.906 321.147 617.179 319.872 617.707 318.744 C 618.792 316.425 618.034 314.075 615.888 313.112 C 613.346 311.971 608.646 312.498 604.875 314.344 C 601.254 316.117 597.126 320.364 594.655 324.852 C 594.396 325.322 591.04 332.449 587.196 340.691 C 583.351 348.932 580.024 356.001 579.802 356.398 C 578.972 357.884 578.38 358.614 577.764 358.912 C 577.211 359.18 577.103 359.187 576.179 359.044 C 573.187 358.579 570.705 356.082 569.845 352.669 C 569.322 350.595 569.405 347.922 570.087 344.605 L 570.334 343.398 L 568.481 345.131 C 564.37 348.975 561.698 351.034 557.686 353.445 C 553.316 356.072 548.983 357.795 544.805 358.563 C 541.617 359.149 539.255 359.268 537.234 358.953 C 533.097 358.308 529.988 355.788 528.695 352.028 C 527.733 349.233 527.871 346.05 529.109 342.428 C 529.338 341.76 532.034 335.687 535.102 328.931 C 538.336 321.81 540.82 316.174 541.009 315.523 C 541.189 314.906 541.365 313.929 541.404 313.35 C 541.465 312.424 541.439 312.226 541.169 311.711 C 540.771 310.953 540.381 310.685 539.415 310.508 C 537.989 310.245 535.818 310.614 533.657 311.485 L 532.519 311.945 L 531.677 310.479 C 530.853 309.038 530.844 309.009 531.106 308.815 C 532.309 307.926 540.641 303.625 542.767 302.798 C 544.329 302.19 546.574 301.572 548.419 301.241 C 550.311 300.901 553.684 300.928 555.025 301.294 C 558.81 302.33 560.551 304.668 560.336 308.429 C 560.241 310.09 559.847 311.981 559.21 313.823 C 558.926 314.646 556.375 320.379 553.542 326.56 C 550.708 332.742 548.191 338.243 547.951 338.785 C 547.32 340.21 546.84 341.975 546.752 343.205 C 546.684 344.142 546.711 344.35 546.969 344.885 C 547.33 345.63 547.926 346.06 549.142 346.446 C 549.909 346.688 550.359 346.733 551.837 346.729 C 554.784 346.72 557.227 346.047 560.586 344.314 C 564.296 342.4 567.492 340.021 571.923 335.881 L 573.016 334.862 L 573.78 332.911 C 575.018 329.757 577.572 323.991 580.024 318.813 C 581.393 315.922 581.806 314.614 581.806 313.145 C 581.808 311.928 581.433 311.225 580.558 310.787 C 579.971 310.494 579.752 310.457 578.52 310.475 C 576.976 310.497 575.762 310.77 573.969 311.489 L 572.864 311.933 L 572.026 310.471 C 571.206 309.037 571.198 309.009 571.459 308.815 C 572.471 308.068 579.898 304.175 582.09 303.245 C 586.804 301.245 591.694 300.507 595.148 301.274 C 596.543 301.583 598.316 302.477 599.05 303.241 C 600.52 304.771 601.012 306.99 600.55 309.998 C 600.396 310.996 600.403 311.535 600.566 311.079 C 600.674 310.777 603.921 307.888 605.401 306.778 C 610.117 303.239 614.184 301.543 619.137 301.052 C 619.729 300.993 620.296 300.962 620.837 300.962 Z M 505.671 300.966 C 507.25 300.959 509.358 301.189 510.991 301.606 C 514.952 302.618 518.305 304.701 520.04 307.221 C 522.046 310.137 523.063 315.032 522.652 319.803 C 521.865 328.939 517.863 337.517 511.34 344.059 C 504.698 350.719 493.831 356.549 484.665 358.37 C 481.753 358.948 480.229 359.1 477.427 359.093 C 473.88 359.084 471.513 358.636 468.863 357.47 C 466.45 356.409 464.254 354.527 462.722 352.204 C 462.269 351.518 461.849 350.968 461.789 350.984 C 461.729 351 461.086 351.396 460.36 351.867 C 457.269 353.873 452.337 356.475 449.889 357.392 C 448.241 358.01 446.111 358.555 444.237 358.834 C 442.518 359.09 438.888 359.199 437.377 359.039 C 434.172 358.7 430.798 357.703 428.632 356.456 C 426.574 355.27 424.482 353.249 423.399 351.403 C 421.871 348.799 421.175 345.326 421.358 341.229 C 421.576 336.322 422.391 332.87 424.245 329.004 C 425.552 326.28 426.964 324.101 431.097 318.423 C 433.319 315.37 433.516 315.002 433.615 313.822 C 433.678 313.069 433.645 312.83 433.401 312.327 C 432.835 311.158 431.39 310.574 429.384 310.701 C 428.547 310.753 428.031 310.887 426.854 311.354 L 425.375 311.937 L 424.599 310.483 C 423.836 309.047 423.829 309.022 424.093 308.828 C 425.321 307.924 433.43 303.741 435.562 302.913 C 440.095 301.15 444.62 300.557 447.918 301.29 C 449.128 301.559 450.829 302.358 451.52 302.982 C 453.341 304.627 453.774 307.509 452.822 311.654 C 452.076 314.905 451.214 316.56 447.527 321.824 C 441.663 330.198 441.11 331.095 440.167 333.806 C 439.137 336.764 438.653 340.779 439.099 342.662 C 439.771 345.503 441.75 346.807 445.379 346.811 C 448.265 346.814 451.133 345.895 453.373 344.244 C 456.219 342.146 459.374 337.711 462.578 331.305 C 463.672 329.118 467.403 321.045 472.568 309.698 C 476.354 301.38 476.734 300.836 478.647 301.007 C 482.151 301.32 485.591 304.043 486.756 307.427 C 487.444 309.429 487.388 311.463 486.562 314.673 C 485.816 317.575 485.62 318.049 481.338 327.098 C 479.713 330.532 478.168 333.908 477.908 334.603 C 476.844 337.444 476.337 339.763 476.322 341.82 C 476.313 343.066 476.346 343.27 476.667 343.923 C 477.84 346.312 480.477 347.211 484.591 346.622 C 488.754 346.026 492.131 344.283 495.402 341.048 C 500.492 336.014 503.841 329.049 505.047 320.986 C 505.276 319.451 505.279 314.336 505.051 312.508 C 504.658 309.359 503.542 304.24 503.042 303.307 C 502.907 303.055 502.796 302.71 502.796 302.543 C 502.796 302.059 503.16 301.49 503.621 301.245 C 503.969 301.06 504.724 300.97 505.671 300.966 Z M 671.057 301.04 C 674.479 301.026 676.814 301.486 679.01 302.6 C 681.644 303.938 683.607 306.432 684.399 309.456 C 685.489 313.619 684.093 319.365 680.94 323.689 C 679.416 325.78 676.319 328.87 673.785 330.828 C 666.631 336.356 654.598 341.442 646.773 342.247 L 645.36 342.395 L 645.615 342.802 C 646.84 344.749 648.175 345.988 650.026 346.897 C 655.79 349.728 666.479 349.334 675.498 345.961 C 684.894 342.446 694.317 335.688 702.658 326.482 C 703.263 325.814 703.811 325.266 703.877 325.266 C 703.944 325.266 704.586 325.742 705.303 326.322 L 706.605 327.378 L 705.611 328.918 C 700.063 337.501 693.085 344.529 685.188 349.489 C 676.697 354.822 667.418 357.961 657.321 358.916 C 655.289 359.109 649.156 359.191 647.562 359.048 C 640.628 358.422 635.927 357.038 632.117 354.501 C 627.856 351.663 625.824 348.057 625.442 342.658 C 625.269 340.211 625.829 336.172 626.769 333.071 C 630.438 320.967 641.671 309.573 655.243 304.186 C 660.418 302.132 665.806 301.06 671.057 301.039 Z M 664.222 312.594 C 661.713 312.612 659.592 313.287 657.264 314.804 C 656.021 315.614 653.496 317.984 652.285 319.483 C 649.438 323.008 646.527 328.958 645.438 333.469 L 645.344 333.851 L 646.551 333.761 C 647.215 333.711 648.27 333.58 648.893 333.473 C 651.301 333.062 653.948 332.15 656.064 330.997 C 662.189 327.658 667.093 322.196 668.153 317.536 C 668.57 315.705 668.352 314.437 667.476 313.539 C 666.729 312.774 666.072 312.582 664.222 312.594 Z M -14.947 279.15 C -8.971 288.057 -3.797 299.088 -1.86 309.137 C 0.598 319.973 0.686 331.26 -1.147 342.256 C -3.178 353.236 -7.085 363.926 -13.126 373.442 C -17.835 381.461 -26.367 390.893 -36.182 397.808 C -45.336 404.314 -55.748 409.006 -66.596 411.582 C -72.018 412.866 -77.546 413.629 -83.044 413.834 C -91.353 414.159 -101.6 413.629 -109.146 410.277 C -112.443 408.878 -115.801 406.616 -118.432 403.81 C -120.313 401.975 -123.057 397.987 -124.365 394.101 C -125.632 390.578 -126.038 387.298 -126.195 384.397 C -126.486 380.021 -126.195 378.553 -126.195 370.047 L -126.195 343.472 C -126.195 339.436 -126.417 335.128 -126.303 330.487 C -126.217 324.225 -125.718 320.194 -123.846 314.799 C -121.969 309.44 -118.88 304.697 -115.105 300.772 C -109.606 295.09 -104.322 292.467 -98.148 290.347 L -98.038 290.309 C -88.53 287.886 -81.158 288.014 -71.886 291.661 C -62.706 295.36 -55.744 302.116 -51.709 310.209 C -48.04 317.545 -46.641 326.218 -47.716 334.262 C -48.791 341.518 -51.943 347.998 -57.475 353.257 C -63.973 359.319 -71.63 362.378 -79.389 362.923 C -84.451 363.307 -88.726 362.689 -93.546 361.2 C -95.052 360.595 -97.646 358.888 -96.486 354.217 L -95.303 348.075 C -95.197 347.532 -94.707 347.184 -94.168 347.217 C -90.65 347.452 -86.734 347.101 -83.176 345.913 C -81.504 345.323 -79.026 344.321 -76.265 342.252 C -74.044 340.589 -68.238 334.05 -69.36 325.266 C -69.556 323.764 -70.375 318.151 -75.297 314.043 C -79.887 310.229 -85.104 310.158 -86.623 310.158 C -91.61 310.158 -96.144 312.234 -99.382 315.677 C -103.865 320.339 -104.394 324.652 -104.611 330.918 C -104.654 334.74 -104.501 338.946 -104.501 343.587 C -104.501 360.009 -104.487 351.563 -104.564 383.198 C -104.334 386.657 -103.515 387.95 -103.515 387.95 C -102.325 389.742 -101.25 391.068 -96.072 391.892 C -92.59 392.48 -87.625 392.595 -83.885 392.48 C -79.679 392.344 -75.571 391.729 -71.476 390.757 C -63.393 388.821 -55.513 385.313 -48.612 380.46 C -40.955 374.987 -34.484 367.701 -31.358 362.185 C -26.827 355.071 -23.91 346.983 -22.293 338.669 C -20.988 330.368 -20.988 321.844 -22.826 313.8 C -24.126 306.731 -28.555 297.083 -32.637 291.358 C -36.642 285.365 -42.46 279.3 -49.682 274.389 C -59.609 267.667 -68.886 265.249 -71.045 264.71 C -81.18 262.207 -89.592 262.723 -94.015 263.252 C -106.633 264.716 -119.903 270.38 -130.252 279.552 C -139.858 288.07 -146.01 298.316 -148.924 308.135 C -150.433 313.105 -151.29 317.839 -151.615 322.271 C -152.263 330.457 -151.832 339.313 -150.864 344.598 C -150.437 347.268 -150.006 350.723 -148.816 355.313 C -148.701 355.655 -148.816 356.064 -149.034 356.363 C -153.303 361.158 -158.867 362.787 -162.258 360.936 C -162.939 360.552 -164.258 359.643 -165.201 357.395 C -165.201 357.395 -169.842 345.677 -171.241 336.361 C -172.572 327.186 -173.067 314.994 -169.343 301.84 C -165.67 288.675 -157.326 274.867 -144.688 263.585 C -131.046 251.407 -114.448 244.1 -95.069 242.009 C -76.479 240.089 -55.47 244.495 -37.333 256.917 C -28.602 262.693 -19.904 271.608 -14.675 279.418 Z" id="path3022" fill="#1e87f0"/>
    <path d="m 154.59375,59.21875 c -8.8866,0.10363 -16.10235,2.73385 -21.625,7.9375 -5.52267,5.20374 -8.3652,12.34543 -8.53125,21.40625 0.16605,9.06087 3.00858,16.20257 8.53125,21.40625 5.52265,5.20371 12.7384,7.83391 21.625,7.9375 8.88653,-0.10358 16.10229,-2.73379 21.625,-7.9375 5.52261,-5.20368 8.36513,-12.34538 8.53125,-21.40625 -0.16612,-9.06082 -3.00864,-16.20251 -8.53125,-21.40625 -5.52271,-5.20365 -12.73847,-7.83387 -21.625,-7.9375 z m 68.875,0 c -8.8866,0.10363 -16.10234,2.73385 -21.625,7.9375 -5.52267,5.20374 -8.36519,12.34543 -8.53125,21.40625 0.16606,9.06087 3.00858,16.20257 8.53125,21.40625 5.52265,5.20371 12.7384,7.83391 21.625,7.9375 3.89986,0.01 7.63448,-0.75551 11.21875,-2.34375 3.58417,-1.58823 6.5995,-4.03903 9,-7.34375 l -10.28125,-7.65625 c -1.27425,1.90721 -2.8889,3.36716 -4.84375,4.40625 -1.95491,1.0391 -4.15884,1.5806 -6.65625,1.59375 -4.55923,-0.0986 -8.31852,-1.79888 -11.25,-5.09375 -2.93152,-3.29483 -4.43098,-7.59895 -4.53125,-12.90625 0.0921,-5.30725 1.62113,-9.61136 4.59375,-12.90625 2.97259,-3.29481 6.8142,-4.99505 11.5625,-5.09375 2.29025,0.008 4.32626,0.40001 6.09375,1.1875 1.76741,0.78759 3.27508,1.93808 4.5,3.40625 l 9.46875,-7.75 c -2.46791,-3.0005 -5.43057,-5.12047 -8.875,-6.375 -3.44451,-1.25442 -6.78245,-1.85027 -10,-1.8125 z m 102.125,0 c -5.6871,0.0116 -10.62324,1.53407 -14.78125,4.59375 -4.15804,3.05979 -6.32902,7.56142 -6.53125,13.53125 0.13646,4.55225 1.50094,7.90501 4.09375,10.0625 2.5928,2.15755 5.58839,3.77054 9,4.78125 3.41156,1.01076 6.40717,2.04443 9,3.15625 2.59278,1.11187 3.95725,2.91415 4.09375,5.375 -0.10361,1.96969 -1.01875,3.4428 -2.75,4.40625 -1.73131,0.96348 -3.66527,1.4408 -5.78125,1.4375 -2.08479,-0.0132 -4.05005,-0.48552 -5.9375,-1.40625 -1.88749,-0.92071 -3.48568,-2.20454 -4.78125,-3.875 l -8.75,9.625 c 2.64706,2.43333 5.51594,4.21258 8.65625,5.34375 3.14029,1.13116 6.5309,1.6694 10.125,1.65625 5.9386,0.0132 10.97022,-1.47478 15.09375,-4.5 4.12346,-3.02521 6.25989,-7.65357 6.4375,-13.875 -0.13404,-4.78135 -1.45409,-8.25179 -4,-10.4375 -2.54598,-2.18564 -5.49385,-3.75832 -8.84375,-4.6875 -3.34996,-0.92911 -6.29782,-1.89445 -8.84375,-2.90625 -2.54597,-1.01173 -3.89727,-2.72268 -4.03125,-5.15625 0.12823,-2.06993 1.07793,-3.57265 2.84375,-4.46875 1.76579,-0.89601 3.57303,-1.33382 5.4375,-1.3125 1.56026,-0.003 3.17492,0.29796 4.84375,0.90625 1.66877,0.60838 3.01516,1.55313 4.0625,2.8125 l 8.46875,-9.25 c -2.39061,-2.07321 -5.04551,-3.54962 -7.96875,-4.46875 -2.92332,-0.91902 -5.97651,-1.36178 -9.15625,-1.34375 z m 48.53125,0 c -5.6871,0.0116 -10.62324,1.53407 -14.78125,4.59375 -4.15803,3.05979 -6.32903,7.56142 -6.53125,13.53125 0.13646,4.55225 1.50094,7.90501 4.09375,10.0625 2.5928,2.15755 5.5884,3.77054 9,4.78125 3.41157,1.01076 6.40717,2.04443 9,3.15625 2.59278,1.11187 3.95726,2.91415 4.09375,5.375 -0.10361,1.96969 -1.01875,3.4428 -2.75,4.40625 -1.7313,0.96348 -3.66526,1.4408 -5.78125,1.4375 -2.08479,-0.0132 -4.05004,-0.48552 -5.9375,-1.40625 -1.88749,-0.92071 -3.48568,-2.20454 -4.78125,-3.875 l -8.75,9.625 c 2.64706,2.43333 5.51594,4.21258 8.65625,5.34375 3.14029,1.13116 6.5309,1.6694 10.125,1.65625 5.93861,0.0132 10.97022,-1.47478 15.09375,-4.5 4.12346,-3.02521 6.2599,-7.65357 6.4375,-13.875 -0.13404,-4.78135 -1.45409,-8.25179 -4,-10.4375 -2.54598,-2.18564 -5.49385,-3.75832 -8.84375,-4.6875 -3.34996,-0.92911 -6.29782,-1.89445 -8.84375,-2.90625 -2.54597,-1.01173 -3.89728,-2.72268 -4.03125,-5.15625 0.12822,-2.06993 1.07793,-3.57265 2.84375,-4.46875 1.76579,-0.89601 3.57302,-1.33382 5.4375,-1.3125 1.56026,-0.003 3.17492,0.29796 4.84375,0.90625 1.66877,0.60838 3.01515,1.55313 4.0625,2.8125 l 8.46875,-9.25 c -2.39062,-2.07321 -5.04551,-3.54962 -7.96875,-4.46875 -2.92331,-0.91902 -5.97651,-1.36178 -9.15625,-1.34375 z M 20.0625,60.625 l 0,55.875 12.3125,0 0,-21.78125 9,0 c 6.006007,0.10525 10.924049,-1.11767 14.75,-3.65625 3.825867,-2.53852 5.779607,-7.02369 5.90625,-13.46875 -0.159528,-6.50746 -2.233412,-11.00578 -6.25,-13.46875 -4.016666,-2.46287 -9.008775,-3.62161 -14.96875,-3.5 l -20.75,0 z m 53,0 0,55.875 12.3125,0 0,-22.34375 6.0625,0 11.6875,22.34375 14.75,0 -14.1875,-23.59375 c 3.95576,-0.77107 6.95793,-2.51577 9,-5.25 2.04197,-2.73418 3.05258,-6.09516 3.0625,-10.0625 -0.16282,-6.40388 -2.24985,-10.86763 -6.25,-13.375 -4.00022,-2.50726 -8.92817,-3.70056 -14.8125,-3.59375 l -21.625,0 z m 181.0625,0 0,55.875 39.375,0 0,-11.375 -27.0625,0 0,-11.34375 24.21875,0 0,-11.375 -24.21875,0 0,-10.40625 25.625,0 0,-11.375 -37.9375,0 z m -99.53125,9.9375 c 5.31546,0.0987 9.52905,1.79894 12.625,5.09375 3.09587,3.29489 4.68254,7.599 4.75,12.90625 -0.0675,5.3073 -1.65413,9.61142 -4.75,12.90625 -3.09595,3.29486 -7.30954,4.99511 -12.625,5.09375 -5.31553,-0.0986 -9.52911,-1.79888 -12.625,-5.09375 -3.09593,-3.29483 -4.68261,-7.59895 -4.75,-12.90625 0.0674,-5.30725 1.65406,-9.61136 4.75,-12.90625 3.09588,-3.29481 7.30947,-4.99505 12.625,-5.09375 z M 32.375,71.03125 l 6.3125,0 c 2.512219,-0.0871 4.865904,0.29476 7.0625,1.125 2.19654,0.83034 3.355283,2.64415 3.5,5.4375 -0.09046,2.55831 -1.000659,4.33263 -2.71875,5.3125 -1.718159,0.97994 -3.708088,1.45232 -5.96875,1.40625 l -8.1875,0 0,-13.28125 z m 53,0 8.03125,0 c 2.36588,-0.0805 4.527,0.31942 6.46875,1.15625 1.9417,0.8369 2.97698,2.59149 3.09375,5.3125 -0.14965,2.91838 -1.29687,4.72726 -3.46875,5.40625 -2.17194,0.67907 -4.47623,0.96381 -6.875,0.84375 l -7.25,0 0,-12.71875 z" transform="translate(18,241.19682)" id="path3021" style="font-size: 140.947px; font-style: normal; font-weight: bold; line-height: 125%; letter-spacing: 5.74px; word-spacing: 0px; stroke: none;" fill="#62a6ee"/>
  </g>
</svg>
