<svg xmlns="http://www.w3.org/2000/svg" viewBox="0 0 128 128"><path fill="#000000" d="M18.002 44.798c-.489 0-.965.146-1.37.416l-4.204 2.805.22.193a2.476 2.476 0 0 0-1.61-.595h-5.75a2.479 2.479 0 0 0-2.47 2.47v4.345L1.1 55.578a2.474 2.474 0 0 0-1.1 2.056L0 74.32a2.479 2.479 0 0 0 2.47 2.47h16.452c.988 0 1.882-.59 2.27-1.497l.86-2.008.11.093c.447.384 1.019.596 1.608.596h5.751a2.488 2.488 0 0 0 1.907-.9h.002v-.001h-.002l.006-.008.002-.002c.045-.055.09-.115.134-.179v-.002l.004-.005a2.455 2.455 0 0 0 .418-1.374V65.16c0-.117-.007-.232-.023-.347l-.002-.002-2.557-17.893a2.476 2.476 0 0 0-2.445-2.12h-.26zm0 .996h8.963c.738 0 1.357.534 1.461 1.264l2.556 17.893-.001-.002c.01.07.015.14.015.21v6.343a1.449 1.449 0 0 1-.117.572c-.038.09-.082.174-.134.25l-.002.005a1.44 1.44 0 0 1-.081.109h-.002v.004l-.002.001-.002.002a1.655 1.655 0 0 1-.432.353 1.463 1.463 0 0 1-.702.179H23.77a1.47 1.47 0 0 1-.96-.355l-1.14-.976-1.393 3.253a1.475 1.475 0 0 1-1.356.895H2.471c-.82 0-1.475-.655-1.475-1.475l.002-16.685c0-.493.246-.954.656-1.228l2.16-1.441v-4.878c0-.82.654-1.474 1.474-1.474h5.75c.353 0 .693.125.96.354l.348.305 4.839-3.23a1.47 1.47 0 0 1 .817-.248zM6.309 51.107v19.374h19.374V51.107Zm89.703 2.179c-1.38 0-2.63.325-3.75.979a7.07 7.07 0 0 0-2.634 2.692c-.639 1.143-.959 2.422-.959 3.83 0 1.41.32 2.689.96 3.832a7.007 7.007 0 0 0 2.634 2.694c1.114.654 2.364.977 3.749.977 1.385 0 2.502-.295 3.568-.881a6.518 6.518 0 0 0 2.513-2.417c.61-1.022.91-2.17.91-3.443V60.43h-6.009v2.078h3.483a3.416 3.416 0 0 1-.611 1.675c-.393.557-.925.989-1.594 1.303-.668.31-1.413.465-2.24.465-.892 0-1.701-.223-2.423-.669a4.62 4.62 0 0 1-1.695-1.844c-.406-.785-.61-1.667-.61-2.65 0-.983.204-1.863.61-2.648.407-.785.973-1.4 1.695-1.846.722-.446 1.531-.668 2.422-.668.606 0 1.172.092 1.695.28.523.19.978.456 1.375.81.392.353.706.77.944 1.255h2.766a6.003 6.003 0 0 0-1.381-2.457 6.6 6.6 0 0 0-2.374-1.64c-.934-.393-1.945-.588-3.044-.588zm-54.835.243v14.51h5.444c1.37 0 2.592-.311 3.677-.936a6.586 6.586 0 0 0 2.533-2.58c.61-1.099.91-2.345.91-3.745s-.305-2.644-.91-3.743a6.623 6.623 0 0 0-2.533-2.582l-.006.01c-1.08-.62-2.305-.934-3.675-.934zm-21.665.053c.568 0 1.092.101 1.57.303.48.202.886.486 1.214.852.33.367.562.79.694 1.267h-1.527a1.862 1.862 0 0 0-.455-.597c-.189-.171-.409-.3-.664-.391a2.347 2.347 0 0 0-.82-.142c-.433 0-.825.108-1.174.324a2.267 2.267 0 0 0-.82.895 2.732 2.732 0 0 0-.295 1.277c0 .474.1.902.294 1.282.199.376.472.673.821.889.35.216.741.323 1.173.323.401 0 .763-.074 1.088-.224.328-.15.586-.358.778-.622.162-.224.263-.472.298-.744h-1.705V57.15h3.104v.576a3.334 3.334 0 0 1-1.753 2.98c-.54.3-1.148.452-1.821.452a3.74 3.74 0 0 1-1.903-.493 3.59 3.59 0 0 1-1.34-1.36 3.892 3.892 0 0 1-.487-1.935c0-.712.162-1.357.486-1.932a3.535 3.535 0 0 1 1.34-1.36 3.704 3.704 0 0 1 1.904-.496zm-10.782.124h2.788c.693 0 1.314.157 1.861.471.551.314.982.751 1.292 1.31.31.554.465 1.182.465 1.883 0 .7-.155 1.329-.465 1.887-.31.554-.74.99-1.292 1.303-.547.314-1.168.471-1.861.471H8.73Zm103.301.177v2.426h2.79v-2.426zm-42.362.954v1.72a.862.862 0 0 1-.237.624c-.16.165-.368.241-.634.241h-1.162l-.01 2.127h1.864l.01 5.67c0 .538.126 1.023.377 1.454a2.68 2.68 0 0 0 1.057 1.008c.45.242.962.362 1.529.362h2.292v-2.125h-1.802a.982.982 0 0 1-.721-.286.982.982 0 0 1-.286-.721l-.01-5.357h2.819l.01-2.126h-2.82v-2.591zm-59.511.105v4.854h1.344c.436 0 .816-.097 1.144-.292a1.95 1.95 0 0 0 .759-.839c.178-.366.266-.797.266-1.295 0-.5-.088-.93-.266-1.292a1.944 1.944 0 0 0-.76-.845c-.327-.195-.707-.291-1.143-.291zm33.607.844H46.6c.896 0 1.692.204 2.37.61a4.05 4.05 0 0 1 1.574 1.744c.368.756.55 1.637.55 2.654s-.182 1.898-.55 2.653v-.003a4.078 4.078 0 0 1-1.574 1.743c-.678.411-1.474.609-2.37.609h-2.836zm79.319 1.39c-.872 0-1.636.193-2.3.58a3.908 3.908 0 0 0-1.366 1.347v-1.68h-2.393v13.93h2.446V66.44c.344.523.775.95 1.313 1.26.659.388 1.429.58 2.305.58.94 0 1.782-.237 2.528-.712s1.331-1.133 1.753-1.98c.421-.848.63-1.8.63-2.866s-.209-2.02-.63-2.868l-.004.014c-.422-.848-1.004-1.506-1.75-1.98-.74-.475-1.588-.713-2.532-.713zm-62.897.005c-.945 0-1.792.237-2.533.712-.741.475-1.328 1.133-1.75 1.98-.42.848-.628 1.803-.628 2.868 0 1.066.207 2.018.629 2.866.421.848 1.007 1.506 1.753 1.98.745.475 1.59.713 2.529.713.876 0 1.647-.193 2.305-.58a3.955 3.955 0 0 0 1.321-1.275v1.604h2.403V57.432h-2.403v1.603a3.996 3.996 0 0 0-1.32-1.272c-.66-.388-1.43-.582-2.306-.582Zm20.262 0c-.949 0-1.792.237-2.533.712-.74.475-1.325 1.133-1.747 1.98-.421.848-.634 1.803-.634 2.868 0 1.066.213 2.018.634 2.866.422.848 1.007 1.506 1.753 1.98.746.475 1.588.713 2.527.713.877 0 1.647-.193 2.306-.58a3.96 3.96 0 0 0 1.323-1.275v1.604h2.406V57.432h-2.406v1.603a4.002 4.002 0 0 0-1.323-1.272c-.659-.388-1.429-.582-2.306-.582zm29.97.179c-.754 0-1.41.192-1.975.582l-.002.001-.004.002c-.4.276-.737.642-1.012 1.09v-1.607H105v10.615h2.446v-5.728c0-.513.106-.956.324-1.329.218-.373.527-.658.934-.861.402-.2.882-.3 1.424-.3h.683V57.36Zm1.787.068v10.615h2.446V57.428Zm-51.428 1.928a2.93 2.93 0 0 1 1.574.43c.455.286.813.682 1.064 1.19.257.51.384 1.096.384 1.76 0 .663-.127 1.25-.384 1.758a2.922 2.922 0 0 1-1.064 1.19 2.908 2.908 0 0 1-1.574.433c-.59 0-1.099-.14-1.554-.426a2.83 2.83 0 0 1-1.063-1.193c-.251-.513-.377-1.1-.377-1.763 0-.663.126-1.25.377-1.758a2.884 2.884 0 0 1 1.063-1.191c.455-.286.973-.43 1.554-.43zm20.263 0a2.93 2.93 0 0 1 1.574.43c.455.286.813.682 1.07 1.19.257.51.383 1.096.383 1.76 0 .663-.126 1.25-.383 1.758-.257.509-.61.905-1.07 1.19a2.908 2.908 0 0 1-1.574.433c-.591 0-1.1-.14-1.555-.426a2.826 2.826 0 0 1-1.06-1.193c-.252-.513-.377-1.1-.377-1.763 0-.663.125-1.25.377-1.758a2.88 2.88 0 0 1 1.06-1.191c.456-.286.974-.43 1.555-.43zm41.457 0c.59 0 1.1.144 1.555.43a2.88 2.88 0 0 1 1.06 1.19c.252.51.377 1.096.377 1.76 0 .663-.125 1.25-.377 1.758a2.88 2.88 0 0 1-1.06 1.19 2.865 2.865 0 0 1-1.555.433c-.581 0-1.119-.14-1.574-.426a2.84 2.84 0 0 1-1.066-1.193c-.257-.513-.381-1.1-.381-1.763 0-.663.124-1.25.381-1.758.257-.509.61-.905 1.066-1.191.455-.286.983-.43 1.574-.43zM8.73 66.607h7.749v1.453h-7.75Zm80.245 9.578c-.475 0-.893.087-1.261.266-.368.18-.654.427-.862.742-.203.314-.31.673-.31 1.08 0 .324.068.618.2.885.13.261.32.485.562.66.242.173.522.295.842.363l1.22.25a.93.93 0 0 1 .474.264c.117.125.176.28.176.468 0 .15-.044.286-.13.407a.801.801 0 0 1-.36.276 1.419 1.419 0 0 1-.542.098c-.208 0-.402-.039-.572-.111a.877.877 0 0 1-.393-.312.81.81 0 0 1-.14-.465h-1.502c.005.422.122.8.345 1.12.223.319.529.577.916.756.388.18.832.27 1.33.27.5 0 .951-.092 1.343-.276.388-.184.693-.44.91-.765.219-.324.33-.693.33-1.105 0-.334-.074-.644-.224-.93a2.03 2.03 0 0 0-.619-.712v.01a2.25 2.25 0 0 0-.91-.381l-1.154-.238a.856.856 0 0 1-.43-.227.558.558 0 0 1-.16-.407c0-.145.038-.272.115-.383a.763.763 0 0 1 .331-.251c.14-.058.304-.093.488-.093s.354.029.494.097c.14.063.253.15.335.266.078.117.12.248.12.393h1.503a1.89 1.89 0 0 0-.331-1.046 2.068 2.068 0 0 0-.866-.712 3.012 3.012 0 0 0-1.268-.257zm-45.874.117v4.431h-.006c0 .19-.038.358-.12.508a.842.842 0 0 1-.345.345 1.01 1.01 0 0 1-.507.12h-.946v1.38h1.148c.431 0 .823-.097 1.167-.29.344-.194.615-.46.813-.804.2-.344.296-.727.296-1.153v-4.537zm2.654 0v6.79h5.037v-1.308h-3.576v-1.463h3.15v-1.268h-3.15v-1.44h3.479v-1.311zm5.578 0v1.346h2.015v5.438h1.502v-5.438h2v-1.346zm6.2 0v6.79h3.076c.455 0 .861-.084 1.22-.244a1.95 1.95 0 0 0 .832-.667c.199-.286.296-.612.296-.975 0-.334-.078-.634-.233-.9a1.627 1.627 0 0 0-.648-.62h-.006a1.984 1.984 0 0 0-.391-.149l.016-.006c.096-.027.197-.055.284-.101a1.44 1.44 0 0 0 .585-.543c.14-.232.214-.5.214-.8a1.58 1.58 0 0 0-.282-.924 1.843 1.843 0 0 0-.788-.634 2.837 2.837 0 0 0-1.157-.227zm6.286 0v6.79h1.502v-2.475h.977l1.375 2.474h1.716l-1.55-2.653c.077-.03.155-.06.223-.094h.004c.378-.179.67-.434.878-.758.208-.325.309-.707.309-1.139 0-.43-.102-.8-.306-1.124a2.02 2.02 0 0 0-.861-.755c-.373-.18-.805-.266-1.294-.266zm8.494 0-2.426 6.79h1.525l.481-1.497h2.518l.513 1.496h1.496l-2.478-6.79zm4.689 0v6.79h1.55v-6.79zm2.722 0v6.79h1.37V78.5L84 83.091h1.477v-6.79h-1.37v4.592h-.006l-2.914-4.591zm15.488 0v6.79h1.55v-6.79zm2.716 0v6.79h2.65a3.44 3.44 0 0 0 1.74-.442 3.14 3.14 0 0 0 1.21-1.216c.29-.518.44-1.098.44-1.738a3.44 3.44 0 0 0-.44-1.739 3.173 3.173 0 0 0-1.21-1.216 3.476 3.476 0 0 0-1.74-.44zm6.907 0v6.79h5.037v-1.308h-3.574v-1.463h3.148v-1.268h-3.148v-1.44h3.476v-1.311zM58.99 77.44h1.333c.184 0 .348.033.488.1.14.069.253.16.335.287.077.12.12.265.12.43a.84.84 0 0 1-.12.451.765.765 0 0 1-.335.296c-.14.068-.304.107-.488.107H58.99zm6.331.091h1.35c.208 0 .392.038.547.111a.839.839 0 0 1 .36.325.97.97 0 0 1 .124.5.962.962 0 0 1-.124.498v-.006a.852.852 0 0 1-.36.33 1.212 1.212 0 0 1-.547.116h-1.35zm34.115.043h1.122c.383 0 .712.083.993.253.28.17.5.41.65.726.15.314.227.697.227 1.138 0 .44-.077.823-.228 1.138v.006c-.15.314-.369.556-.65.725-.28.17-.609.253-.992.253h-1.122zm-26.327.049.091.435.833 2.4h-1.798l.78-2.4zM58.99 80.214h1.391c.199 0 .377.038.537.11.155.074.28.18.368.316a.84.84 0 0 1 .13.465c0 .174-.043.32-.13.451v-.01a.858.858 0 0 1-.364.3 1.269 1.269 0 0 1-.54.107H58.99z"/></svg>
