<svg xmlns="http://www.w3.org/2000/svg" viewBox="0 0 128 128"><defs><linearGradient id="a" x1="59.778" x2="1.073" y1="3.982" y2="62.687" gradientTransform="translate(0 44.972) scale(.4862)" gradientUnits="userSpaceOnUse"><stop offset=".28" stop-color="#7256FF"/><stop offset=".66" stop-color="#00D980"/></linearGradient><linearGradient id="b" x1="64.718" x2="39.477" y1="56.379" y2="1.939" gradientTransform="translate(0 44.972) scale(.4862)" gradientUnits="userSpaceOnUse"><stop offset=".3" stop-color="#FF43F2"/><stop offset=".54" stop-color="#7256FF"/></linearGradient></defs><path fill="#000" fill-rule="evenodd" d="M46.298 53.238c1.376 0 2.606.316 3.69.938l.006-.01a6.647 6.647 0 0 1 2.542 2.592c.608 1.104.914 2.353.914 3.758 0 1.406-.301 2.655-.914 3.759a6.615 6.615 0 0 1-2.542 2.591c-1.09.627-2.315.939-3.69.939h-5.466V53.238Zm2.363 11.703a4.095 4.095 0 0 0 1.58-1.75v.004c.37-.758.555-1.643.555-2.664 0-1.021-.185-1.906-.555-2.664a4.068 4.068 0 0 0-1.58-1.75c-.68-.41-1.478-.613-2.377-.613h-2.85v10.05h2.85c.9 0 1.697-.2 2.377-.613zm13.575-7.454c.54.321.982.75 1.327 1.279v-1.61h2.412v10.658h-2.412v-1.61c-.345.53-.787.964-1.327 1.28-.661.389-1.434.583-2.314.583-.943 0-1.79-.238-2.538-.715-.749-.476-1.337-1.137-1.76-1.988-.423-.851-.632-1.809-.632-2.879s.209-2.027.632-2.878c.423-.85 1.011-1.512 1.755-1.988.744-.477 1.595-.715 2.543-.715.88 0 1.653.194 2.314.583zm-.14 7.955a2.938 2.938 0 0 0 1.069-1.196c.257-.511.384-1.1.384-1.765 0-.666-.127-1.255-.384-1.765a2.904 2.904 0 0 0-1.07-1.196 2.942 2.942 0 0 0-1.58-.433c-.584 0-1.104.146-1.56.433a2.893 2.893 0 0 0-1.066 1.196c-.252.51-.379 1.099-.379 1.765 0 .666.127 1.254.38 1.77.252.515.607.913 1.064 1.195.457.287.968.428 1.56.428.594 0 1.124-.146 1.581-.432zm7.346-10.891h2.285v2.6h2.83l-.01 2.135h-2.83l.01 5.378c0 .291.097.534.287.724.19.19.432.287.724.287h1.809v2.134h-2.3a3.202 3.202 0 0 1-1.536-.364 2.688 2.688 0 0 1-1.06-1.012 2.837 2.837 0 0 1-.38-1.458l-.01-5.694H67.39l.01-2.134h1.166c.268 0 .477-.078.637-.243a.866.866 0 0 0 .239-.627zm13.137 2.936c.54.321.982.75 1.327 1.279v-1.61h2.416v10.658h-2.416v-1.61c-.345.53-.788.964-1.327 1.28-.661.389-1.435.583-2.315.583-.943 0-1.789-.238-2.538-.715-.748-.476-1.337-1.137-1.76-1.988-.423-.851-.637-1.809-.637-2.879s.214-2.027.637-2.878c.423-.85 1.012-1.512 1.756-1.988.743-.477 1.59-.715 2.542-.715.88 0 1.654.194 2.315.583zm-.141 7.955a2.915 2.915 0 0 0 1.074-1.196c.258-.511.384-1.1.384-1.765 0-.666-.126-1.255-.384-1.765a2.95 2.95 0 0 0-1.074-1.196 2.942 2.942 0 0 0-1.58-.433c-.584 0-1.104.146-1.561.433a2.893 2.893 0 0 0-1.065 1.196c-.253.51-.38 1.099-.38 1.765 0 .666.127 1.254.38 1.77.253.515.608.913 1.065 1.195.457.287.967.428 1.56.428.594 0 1.124-.146 1.58-.432zm17.93-3.19h-3.495v-2.086h6.034v1.123c0 1.28-.302 2.431-.914 3.457a6.544 6.544 0 0 1-2.524 2.426c-1.07.589-2.192.885-3.583.885-1.39 0-2.645-.325-3.763-.982a7.03 7.03 0 0 1-2.645-2.703c-.642-1.147-.963-2.431-.963-3.846s.321-2.698.963-3.846a7.099 7.099 0 0 1 2.645-2.703c1.123-.656 2.377-.982 3.763-.982 1.104 0 2.12.194 3.058.588.939.39 1.731.938 2.383 1.648a6.018 6.018 0 0 1 1.385 2.465h-2.776a4.113 4.113 0 0 0-.948-1.259 4.179 4.179 0 0 0-1.38-.812 4.98 4.98 0 0 0-1.702-.282c-.895 0-1.707.224-2.431.671a4.642 4.642 0 0 0-1.702 1.853c-.409.787-.613 1.672-.613 2.66 0 .986.204 1.871.613 2.659a4.642 4.642 0 0 0 1.702 1.852 4.538 4.538 0 0 0 2.43.671c.832 0 1.58-.156 2.252-.467.67-.316 1.205-.749 1.6-1.308a3.43 3.43 0 0 0 .612-1.682zm6.978-3.486a3.58 3.58 0 0 1 1.02-1.099l-.004.005c.569-.394 1.23-.588 1.988-.588h.394v2.475h-.685c-.545 0-1.026.102-1.43.301-.408.204-.72.491-.938.865-.219.375-.326.817-.326 1.333v5.751h-2.455V57.152h2.436zm7.254 9.043h-2.455V57.152h2.455zm.17-11.78h-2.8v-2.436h2.8zm10.838 1.585c.748.476 1.332 1.137 1.755 1.988l.005-.014c.423.85.632 1.808.632 2.878s-.21 2.027-.632 2.878c-.423.851-1.012 1.512-1.76 1.989-.749.476-1.595.715-2.538.715-.88 0-1.653-.195-2.315-.584a3.9 3.9 0 0 1-1.317-1.264v4.93h-2.456V57.147h2.402v1.687a3.924 3.924 0 0 1 1.371-1.352c.667-.388 1.435-.583 2.31-.583.948 0 1.799.238 2.543.715zm-1.57 7.828a2.893 2.893 0 0 0 1.064-1.196c.253-.511.38-1.1.38-1.765 0-.666-.127-1.255-.38-1.765a2.893 2.893 0 0 0-1.065-1.196 2.852 2.852 0 0 0-1.56-.433c-.594 0-1.124.146-1.58.433a2.938 2.938 0 0 0-1.07 1.196c-.258.51-.384 1.099-.384 1.765 0 .666.126 1.254.384 1.77.252.515.612.913 1.07 1.195.456.287.996.428 1.58.428.583 0 1.103-.146 1.56-.432zM42.641 81.058c.083-.15.122-.32.122-.51h.005v-4.449h1.507v4.556c0 .428-.097.812-.297 1.157-.2.345-.471.613-.817.807a2.354 2.354 0 0 1-1.171.292h-1.153v-1.386h.949c.194 0 .364-.039.51-.121a.843.843 0 0 0 .345-.346zm7.42-.923h-3.16v1.468h3.587v1.313h-5.056v-6.817h4.96v1.318H46.9v1.444h3.16zm2.995-2.684h-2.023v-1.352h5.538v1.352h-2.008v5.46h-1.507zm8.362 1.896c.141.039.273.087.394.15h.005c.277.151.496.356.651.623.156.267.234.569.234.904 0 .365-.097.69-.297.978-.2.286-.476.51-.836.67-.36.161-.768.244-1.225.244h-3.088v-6.817h3.03c.432 0 .821.078 1.161.229.34.15.603.364.793.637.19.272.282.583.282.928 0 .302-.073.57-.214.802-.141.234-.34.419-.588.545-.087.046-.188.075-.285.102zm-1.361-2.105H58.72v1.677h1.337c.185 0 .35-.039.49-.107a.766.766 0 0 0 .336-.296.84.84 0 0 0 .122-.453.792.792 0 0 0-.122-.432.805.805 0 0 0-.335-.287 1.122 1.122 0 0 0-.491-.102zm.603 4.424a.86.86 0 0 0 .364-.301v.01a.785.785 0 0 0 .132-.453.844.844 0 0 0-.132-.467.871.871 0 0 0-.37-.316 1.29 1.29 0 0 0-.539-.111h-1.395v1.745h1.395c.204 0 .39-.034.545-.107zm8.051-2.27c-.209.325-.5.583-.88.763h-.005a2.38 2.38 0 0 1-.223.092l1.556 2.665h-1.722l-1.38-2.485h-.983v2.485h-1.507v-6.817h2.985c.492 0 .924.088 1.299.268.374.18.66.432.865.758.204.326.306.695.306 1.128 0 .433-.102.817-.31 1.143zm-1.73-.297a.848.848 0 0 0 .36-.33v.004a.97.97 0 0 0 .126-.5.97.97 0 0 0-.127-.501.837.837 0 0 0-.36-.326 1.288 1.288 0 0 0-.549-.112h-1.357v1.882h1.357c.209 0 .394-.04.55-.117zm2.678 3.817 2.436-6.817h1.634l2.49 6.817h-1.503l-.516-1.503h-2.528l-.481 1.503zm3.141-5.052-.783 2.407h1.804l-.836-2.407-.092-.438Zm5.558 5.052h-1.556v-6.817h1.556zm2.644-6.817 2.927 4.61h.005v-4.61h1.376v6.817h-1.483l-2.917-4.61v4.61h-1.376v-6.817zm8.645 2.752c.345.063.647.195.914.384v-.01c.268.195.472.428.623.715.15.287.223.598.223.934 0 .413-.112.782-.33 1.108a2.225 2.225 0 0 1-.915.768 3.146 3.146 0 0 1-1.346.278c-.501 0-.948-.093-1.337-.273a2.25 2.25 0 0 1-.92-.758c-.223-.321-.34-.7-.344-1.123h1.507c0 .175.048.33.14.466a.876.876 0 0 0 .395.312c.17.073.364.111.573.111.21 0 .39-.034.545-.097a.8.8 0 0 0 .36-.277.682.682 0 0 0 .13-.408.666.666 0 0 0-.174-.472.932.932 0 0 0-.477-.263l-1.225-.252a2.216 2.216 0 0 1-.846-.365 1.801 1.801 0 0 1-.564-.661 1.993 1.993 0 0 1-.2-.89c0-.408.108-.768.312-1.084.21-.316.496-.564.865-.744.37-.18.788-.268 1.265-.268.476 0 .904.088 1.273.258.37.17.662.409.87.715.21.301.322.656.331 1.05H89.79a.698.698 0 0 0-.121-.394.799.799 0 0 0-.336-.267 1.144 1.144 0 0 0-.496-.097c-.185 0-.35.034-.49.092a.763.763 0 0 0-.332.253.653.653 0 0 0-.116.384c0 .165.053.296.16.408a.863.863 0 0 0 .433.229zm6.992 4.065h-1.556v-6.817h1.556zm3.831-6.817c.647 0 1.23.15 1.745.443.516.296.924.7 1.216 1.22.297.515.442 1.104.442 1.745 0 .642-.15 1.226-.442 1.746-.292.52-.695.924-1.216 1.22a3.451 3.451 0 0 1-1.745.443h-2.66v-6.817zm.977 5.28c.282-.17.501-.413.652-.729v-.005c.15-.316.228-.7.228-1.142 0-.443-.078-.827-.228-1.143a1.67 1.67 0 0 0-.652-.73c-.282-.17-.612-.252-.996-.252h-1.128v4.254h1.128c.384 0 .714-.083.996-.253zm4.765-1.244v1.468h3.588v1.313h-5.056v-6.817h4.959v1.318h-3.491v1.444h3.16v1.274Z" clip-rule="evenodd"/><path fill="url(#a)" d="M1.98 76.09h16.516a1.98 1.98 0 0 0 1.82-1.2l7.812-18.229c.106-.246.16-.512.16-.78v-8.928a1.98 1.98 0 0 0-1.98-1.98h-8.735a1.98 1.98 0 0 0-1.1.333L.884 55.712A1.98 1.98 0 0 0 0 57.359v16.75a1.98 1.98 0 0 0 1.98 1.98z"/><path fill="url(#b)" d="M24.058 73.26h5.08a1.98 1.98 0 0 0 1.98-1.98v-6.365c0-.094-.007-.187-.02-.28l-2.566-17.962a1.98 1.98 0 0 0-1.96-1.7H18.95a1.98 1.98 0 0 0-1.98 1.98l.002 9.014c0 .212.034.424.102.625l5.105 15.315a1.98 1.98 0 0 0 1.878 1.354z"/><path fill="#ff43f2" d="m23.363 73.262 5.774-.001a1.98 1.98 0 0 0 1.98-1.98v-5.595a1.98 1.98 0 0 0-.691-1.503L11.872 48.279a1.981 1.981 0 0 0-1.29-.477H4.81a1.98 1.98 0 0 0-1.98 1.98v5.596c0 .578.252 1.127.691 1.503l18.554 15.904a1.98 1.98 0 0 0 1.29.476z"/><path fill="#000" d="M25.283 50.807H5.835v19.448h19.448z"/><path fill="#fff" d="M19.088 53.291c-.703 0-1.34.166-1.911.499-.57.329-1.02.784-1.345 1.365a3.88 3.88 0 0 0-.489 1.938c0 .715.164 1.362.49 1.943a3.602 3.602 0 0 0 1.344 1.366 3.76 3.76 0 0 0 1.911.494c.676 0 1.285-.151 1.828-.452a3.356 3.356 0 0 0 1.76-2.994v-.578H19.56v1.13h1.71a1.603 1.603 0 0 1-.297.746 1.934 1.934 0 0 1-.782.624c-.326.15-.69.226-1.092.226-.434 0-.826-.108-1.177-.325a2.278 2.278 0 0 1-.824-.893 2.777 2.777 0 0 1-.294-1.287c0-.476.098-.903.294-1.28.2-.382.474-.682.824-.899.35-.217.743-.326 1.177-.326.294 0 .569.047.824.142.256.09.478.223.667.394.192.168.346.368.458.6h1.532a3.109 3.109 0 0 0-.698-1.272 3.35 3.35 0 0 0-1.218-.856 4.003 4.003 0 0 0-1.576-.305Zm-10.825.125v7.353h2.8c.696 0 1.318-.158 1.868-.473.553-.315.986-.75 1.297-1.307.312-.56.468-1.192.468-1.896 0-.703-.156-1.334-.468-1.89a3.367 3.367 0 0 0-1.297-1.314c-.55-.315-1.172-.473-1.869-.473zm1.434 1.24h1.35c.437 0 .82.098 1.15.294.328.196.582.478.76.846.18.364.269.797.269 1.297 0 .501-.09.935-.268 1.302a1.953 1.953 0 0 1-.762.84c-.329.197-.712.295-1.15.295h-1.35ZM8.263 66.368v1.459h7.78v-1.459Z"/></svg>
