<svg xmlns="http://www.w3.org/2000/svg" viewBox="0 0 128 128">
 <path d="m126.5 50.836c0-16.395-13.836-29.71-30.794-29.71-1.562 0-3.167 0.087-4.729 0.347-13.185 1.865-22.033 11.363-26.977 18.65-4.944-7.287-13.792-16.785-26.978-18.65-1.562-0.217-3.167-0.347-4.728-0.347-17.002 0-30.794 13.315-30.794 29.71s13.836 29.71 30.795 29.71c1.561 0 3.166-0.087 4.771-0.347 13.186-1.908 22.033-11.407 26.979-18.694 4.944 7.287 13.792 16.786 26.978 18.694 1.562 0.217 3.166 0.347 4.771 0.347 16.866 0 30.706-13.316 30.706-29.71zm-90.996 18.954c-1.084 0.173-2.169 0.217-3.253 0.217-11.19 0-20.255-8.632-20.255-19.171 0-10.583 9.108-19.171 20.299-19.171 1.084 0 2.168 0.087 3.253 0.217 12.448 1.778 20.038 14.053 22.641 18.954-2.647 4.944-10.28 17.176-22.685 18.954zm56.949 0c-12.448-1.778-20.082-14.053-22.641-18.954 2.559-4.901 10.192-17.176 22.641-18.954 1.084-0.13 2.168-0.217 3.253-0.217 11.189 0 20.255 8.632 20.255 19.171 0 10.583-9.108 19.171-20.255 19.171-1.084 0-2.168-0.087-3.252-0.217z" fill="#00979D"/>
 <path d="m123.33 28.976c1.518 0 2.732-1.17 2.732-2.775 0-1.518-1.215-2.775-2.732-2.775-1.475 0-2.689 1.258-2.689 2.775 0 1.518 1.22 2.775 2.69 2.775zm0-5.118c1.301 0 2.255 1.084 2.255 2.342 0 1.432-0.954 2.342-2.255 2.342-1.171 0-2.212-0.91-2.212-2.342 0.01-1.387 0.92-2.342 2.22-2.342z" fill="#00979D"/>
 <path d="m10.175 89l-5.379 18h4.338l0.867-4h4.944l0.954 4h4.511l-5.465-18h-4.77zm0.65 11l1.562-6.289 1.691 6.289h-3.253z" fill="#00979D"/>
 <path d="m123 27h0.377l0.478 1h0.954l-0.65-1.334c0.434-0.173 0.65-0.77 0.65-1.246 0-0.737-0.391-1.42-1.431-1.42h-1.38v4h1v-1zm-0.14-1.928h0.434c0.477 0 0.606 0.131 0.606 0.521 0 0.434-0.217 0.564-0.606 0.564l-0.434 0.043v-1.128z" fill="#00979D"/>
 <path d="m36.675 94.943c0-3.295-1.777-5.943-6.549-5.943h-7.126v18h4v-6h2.605l2.603 6h5.031l-3.34-6.592c1.822-1 2.776-3.08 2.776-5.467zm-6.983 3.057h-2.692v-5h2.605c1.995 0 2.516 0.852 2.516 2.37 0 1.908-0.954 2.63-2.429 2.63z" fill="#00979D"/>
 <polygon points="98 42 92 42 92 48 86 48 86 54 92 54 92 60 98 60 98 54 104 54 104 48 98 48" fill="#00979D"/>
 <path d="m45.74 89h-5.74v18h5.74c7.286 0 8.545-5.075 8.545-9.151 0.043-5.422-2.083-8.849-8.545-8.849zm0.26 14h-2v-10h1.653c3.816 0 4.164 1.682 4.164 5.064-0.044 2.906-0.303 4.936-3.817 4.936z" fill="#00979D"/>
 <path d="m115.79 89.178c-5.205 0-7.2 3.816-7.2 9.021 0 5.682 2.256 8.675 7.243 8.675 5.552 0 7.374-3.904 7.374-8.849-0.04-6.588-2.56-8.843-7.41-8.843zm0 14.222c-2.473 0-2.689-1.734-2.689-5.204 0-4.207 0.391-5.552 2.689-5.552 2.516 0 2.862 1.171 2.862 5.378-0.04 3.948-0.39 5.378-2.86 5.378z" fill="#00979D"/>
 <polygon points="102 99.717 96.183 89 92 89 92 107 95.575 107 95.532 95.983 101.43 107 106 107 106 89 102 89" fill="#00979D"/>
 <path d="m66.949 99.715c0 2.602-0.588 3.558-2.496 3.558-1.604 0-2.453-0.563-2.453-3.426v-10.844h-5v11.628c0 5.204 3.965 6.202 6.869 6.202 3.037 0 7.131-1.085 7.131-6.159v-11.67h-4.007l-0.044 10.715z" fill="#00979D"/>
 <polygon points="75 93 79 93 79 103 75 103 75 107 88 107 88 103 84 103 84 93 88 93 88 89 75 89" fill="#00979D"/>
 <rect y="48" x="24" height="6" width="18" fill="#00979D"/>
</svg>
