<?xml version="1.0" encoding="UTF-8" standalone="no"?>
<svg
   xmlns:dc="http://purl.org/dc/elements/1.1/"
   xmlns:cc="http://creativecommons.org/ns#"
   xmlns:rdf="http://www.w3.org/1999/02/22-rdf-syntax-ns#"
   xmlns:svg="http://www.w3.org/2000/svg"
   xmlns="http://www.w3.org/2000/svg"
   xmlns:sodipodi="http://sodipodi.sourceforge.net/DTD/sodipodi-0.dtd"
   xmlns:inkscape="http://www.inkscape.org/namespaces/inkscape"
   width="17.197916mm"
   height="12.273544mm"
   viewBox="0 0 17.197916 12.273544"
   version="1.1"
   id="svg221"
   inkscape:version="1.0.1 (1.0.1+r74)"
   sodipodi:docname="arduino-original-wordmark.svg">
  <defs
     id="defs215">
    <clipPath
       id="clip1">
      <rect
         width="65"
         height="46.388199"
         fill="#ffffff"
         transform="translate(117)"
         id="rect178"
         x="0"
         y="0" />
    </clipPath>
  </defs>
  <sodipodi:namedview
     id="base"
     pagecolor="#ffffff"
     bordercolor="#666666"
     borderopacity="1.0"
     inkscape:pageopacity="0.0"
     inkscape:pageshadow="2"
     inkscape:zoom="7.9195959"
     inkscape:cx="35.727172"
     inkscape:cy="18.957055"
     inkscape:document-units="mm"
     inkscape:current-layer="layer1"
     inkscape:document-rotation="0"
     showgrid="false"
     fit-margin-top="0"
     fit-margin-left="0"
     fit-margin-right="0"
     fit-margin-bottom="0"
     inkscape:window-width="1514"
     inkscape:window-height="1199"
     inkscape:window-x="106"
     inkscape:window-y="77"
     inkscape:window-maximized="0" />
  <metadata
     id="metadata218">
    <rdf:RDF>
      <cc:Work
         rdf:about="">
        <dc:format>image/svg+xml</dc:format>
        <dc:type
           rdf:resource="http://purl.org/dc/dcmitype/StillImage" />
        <dc:title></dc:title>
      </cc:Work>
    </rdf:RDF>
  </metadata>
  <g
     inkscape:label="Layer 1"
     inkscape:groupmode="layer"
     id="layer1"
     transform="translate(-85.139137,-126.91085)">
    <g
       clip-path="url(#clip1)"
       id="g147"
       transform="matrix(0.26458333,0,0,0.26458333,54.182887,126.91085)">
      <path
         fill-rule="evenodd"
         clip-rule="evenodd"
         d="M 182,15.8537 C 182,7.10522 174.805,0 165.987,0 165.175,0 164.34,0.0462881 163.528,0.185152 156.672,1.18035 152.071,6.24889 149.5,10.1371 146.929,6.24889 142.328,1.18035 135.472,0.185152 134.66,0.0694321 133.825,0 133.013,0 124.172,0 117,7.10522 117,15.8537 c 0,8.7484 7.195,15.8536 16.013,15.8536 0.812,0 1.647,-0.0463 2.481,-0.1851 6.856,-1.0184 11.457,-6.0869 14.029,-9.9751 2.571,3.8882 7.172,8.9567 14.028,9.9751 0.812,0.1157 1.646,0.1851 2.481,0.1851 8.773,0 15.968,-7.1052 15.968,-15.8536 z m -47.318,10.1139 c -0.564,0.0926 -1.128,0.1157 -1.691,0.1157 -5.819,0 -10.533,-4.6057 -10.533,-10.2297 0,-5.6471 4.736,-10.22962 10.555,-10.22962 0.564,0 1.128,0.04629 1.692,0.11572 6.473,0.94891 10.419,7.4987 11.773,10.1139 -1.376,2.6385 -5.346,9.1651 -11.796,10.114 z M 164.295,5.7397 c -6.473,0.94891 -10.442,7.4987 -11.773,10.1139 1.331,2.6153 5.3,9.1651 11.773,10.114 0.564,0.0694 1.128,0.1157 1.692,0.1157 5.796,0 10.532,-4.5825 10.532,-10.2297 0,-5.624 -4.713,-10.22962 -10.532,-10.22962 -0.564,0 -1.128,0.04629 -1.692,0.11572 z m -35.799,8.4157 h 9.685 v 3.048 h -9.685 z m 41.96,3.0702 h -3.266 v 3.2037 h -3.13 v -3.2037 h -3.266 v -3.0702 h 3.266 v -3.2037 h 3.13 v 3.2037 h 3.266 z M 177.878,1.75806 C 177.878,0.796622 178.662,0 179.614,0 c 0.98,0 1.765,0.796622 1.765,1.75806 0,1.01638 -0.785,1.75807 -1.765,1.75807 -0.952,0 -1.736,-0.79663 -1.736,-1.75807 z m 1.761,-1.098937 h -0.868 V 2.8567 h 0.56 V 2.11502 h 0.308 l 0.308,0.74168 h 0.616 l -0.42,-0.82409 c 0.28,-0.10988 0.42,-0.32964 0.42,-0.6318 0,-0.46699 -0.252,-0.741687 -0.924,-0.741687 z m 1.429,1.098747 c 0,-0.796622 -0.616,-1.483365 -1.456,-1.483365 -0.84,0 -1.428,0.604334 -1.428,1.483365 0,0.9065 0.672,1.48337 1.428,1.48337 0.84,0 1.456,-0.57687 1.456,-1.48337 z m -1.093,-0.3845 c 0,0.2747 -0.14,0.35711 -0.392,0.35711 l -0.28,0.02747 V 1.04373 h 0.28 c 0.308,0 0.392,0.08241 0.392,0.32964 z"
         fill="#00979d"
         id="path131" />
      <path
         d="m 117.617,46.1265 2.878,-9.4192 h 2.616 l 3.009,9.4192 h -2.485 l -0.524,-1.8315 h -2.616 l -0.523,1.8315 z m 4.186,-7.0644 -0.916,3.4014 h 1.832 z"
         fill="#00979d"
         id="path133" />
      <path
         d="m 127.559,36.8381 h 3.794 c 2.616,0 3.532,1.3082 3.532,3.1397 0,1.3083 -0.523,2.224 -1.57,2.7473 l 1.832,3.4014 H 132.4 l -1.309,-2.8781 h -1.177 v 3.0089 h -2.355 z m 4.971,3.1397 c 0,-0.7849 -0.261,-1.3082 -1.439,-1.3082 h -1.177 v 2.6165 h 1.177 c 0.916,0.1308 1.439,-0.2617 1.439,-1.3083 z"
         fill="#00979d"
         id="path135" />
      <path
         d="m 136.848,36.8381 h 3.009 c 3.532,0 4.709,1.7007 4.709,4.5788 0,2.224 -0.654,4.7096 -4.709,4.7096 h -3.14 v -9.2884 z m 2.354,1.8315 v 5.4946 h 0.916 c 1.963,0 2.093,-1.1774 2.093,-2.7473 0,-1.8315 -0.13,-2.7473 -2.224,-2.7473 z"
         fill="#00979d"
         id="path137" />
      <path
         d="m 151.369,36.8381 h 2.224 v 6.1487 c 0,2.7472 -2.093,3.4013 -3.794,3.4013 -1.57,0 -3.663,-0.5233 -3.663,-3.4013 v -6.1487 h 2.355 v 5.7562 c 0,1.5699 0.523,1.9623 1.439,1.9623 1.047,0 1.439,-0.5233 1.439,-1.9623 z"
         fill="#00979d"
         id="path139" />
      <path
         d="m 155.686,44.295 h 2.486 v -5.4946 h -2.355 v -1.9623 h 7.195 v 1.9623 h -2.486 v 5.4946 h 2.486 v 1.9623 h -7.195 V 44.295 Z"
         fill="#00979d"
         id="path141" />
      <path
         d="m 166.937,46.1265 h -2.224 v -9.2884 h 2.616 l 3.009,5.6254 v -5.6254 h 2.224 v 9.4192 h -2.355 l -3.139,-6.0178 z"
         fill="#00979d"
         id="path143" />
      <path
         d="m 181.981,41.5477 c 0,2.7473 -1.046,4.8405 -4.055,4.8405 -2.748,0 -3.925,-1.5699 -3.925,-4.7096 0,-2.8781 1.047,-4.9713 3.925,-4.9713 2.747,0 4.055,1.1774 4.055,4.8404 z m -2.485,0 c 0,-2.3548 -0.131,-2.8781 -1.57,-2.8781 -1.178,-0.1308 -1.439,0.6542 -1.439,3.009 0,1.8315 0.13,2.878 1.439,2.878 1.439,-0.1308 1.57,-0.9157 1.57,-3.0089 z"
         fill="#00979d"
         id="path145" />
    </g>
  </g>
</svg>
