<?xml version="1.0" encoding="UTF-8"?>
<svg xmlns="http://www.w3.org/2000/svg" xmlns:xlink="http://www.w3.org/1999/xlink" width="128px" height="128px" viewBox="0 0 128 128" version="1.1">
<g>
<path style="stroke:none;fill-rule:evenodd;fill-opacity:1;" d="M 0.316406 55.503906 L 0.316406 45.949219 C 0.539062 45.824219 0.480469 45.59375 0.523438 45.402344 C 3.53125 32.316406 11.734375 24.449219 24.667969 21.308594 C 25.800781 21.035156 26.988281 21.0625 28.089844 20.65625 L 34.460938 20.65625 C 34.605469 20.929688 34.875 20.820312 35.089844 20.84375 C 41.511719 21.53125 47.292969 23.800781 52.40625 27.757812 C 56.769531 31.128906 60.246094 35.304688 63.34375 39.816406 C 63.726562 40.375 63.910156 40.390625 64.296875 39.820312 C 66.070312 37.210938 68.003906 34.722656 70.15625 32.410156 C 75.507812 26.671875 81.863281 22.714844 89.667969 21.265625 C 90.839844 21.046875 92.050781 21.058594 93.1875 20.65625 L 99.378906 20.65625 C 99.507812 20.886719 99.738281 20.8125 99.933594 20.835938 C 101.777344 21.042969 103.597656 21.382812 105.386719 21.898438 C 118.835938 25.761719 128.320312 38.082031 127.523438 52.03125 C 126.855469 63.675781 120.960938 72.0625 110.742188 77.449219 C 105.585938 80.167969 99.992188 80.9375 94.21875 80.824219 C 86.59375 80.675781 79.964844 78.054688 74.25 73.050781 C 70.285156 69.582031 67.167969 65.410156 64.304688 61.035156 C 63.878906 60.382812 63.714844 60.464844 63.332031 61.054688 C 61.519531 63.84375 59.574219 66.546875 57.371094 69.054688 C 53.503906 73.460938 49.035156 77.054688 43.441406 79.015625 C 36.527344 81.4375 29.476562 81.53125 22.488281 79.554688 C 12.414062 76.707031 5.46875 70.300781 1.722656 60.480469 C 1.105469 58.863281 0.847656 57.144531 0.316406 55.503906 Z M 32.105469 70.1875 C 37.839844 70.425781 42.726562 68.5 46.871094 64.644531 C 51.195312 60.621094 54.253906 55.640625 57.359375 50.699219 C 57.546875 50.402344 57.488281 50.167969 57.308594 49.890625 C 54.664062 45.769531 51.953125 41.6875 48.375 38.289062 C 41.492188 31.746094 33.382812 29.546875 24.335938 32.4375 C 16.777344 34.855469 12 40.234375 10.882812 48.21875 C 9.839844 55.664062 12.738281 61.675781 18.695312 66.160156 C 22.660156 69.148438 27.226562 70.324219 32.105469 70.1875 Z M 95.453125 70.1875 C 97.699219 70.246094 99.910156 70.097656 102.042969 69.457031 C 109.863281 67.125 115.148438 62.164062 116.621094 54.027344 C 118.089844 45.921875 114.953125 39.433594 108.230469 34.800781 C 100.738281 29.632812 89.816406 30.140625 82.175781 35.824219 C 77.101562 39.597656 73.652344 44.734375 70.300781 49.957031 C 70.105469 50.257812 70.15625 50.488281 70.328125 50.761719 C 73.015625 55.0625 75.707031 59.359375 79.191406 63.085938 C 83.597656 67.800781 88.894531 70.480469 95.453125 70.1875 Z M 95.453125 70.1875 "/>
<path style="stroke:none;fill-rule:evenodd;fill-opacity:1;" d="M 127.679688 99.195312 C 127.382812 100.136719 127.144531 101.097656 126.785156 102.015625 C 124.550781 107.695312 116.5625 109.21875 112.730469 104.699219 C 111.425781 103.160156 110.851562 101.3125 110.632812 99.351562 C 110.328125 96.609375 110.335938 93.886719 111.367188 91.253906 C 112.824219 87.558594 115.976562 85.640625 120.121094 85.953125 C 123.898438 86.238281 126.410156 88.492188 127.308594 92.386719 C 127.425781 92.886719 127.367188 93.433594 127.679688 93.886719 Z M 115.0625 96.585938 C 115.066406 98.09375 115.148438 99.59375 115.683594 101.023438 C 116.089844 102.128906 116.769531 102.964844 117.976562 103.277344 C 120.132812 103.835938 121.902344 102.949219 122.558594 100.804688 C 123.402344 98.035156 123.363281 95.214844 122.566406 92.441406 C 122.050781 90.632812 120.960938 89.839844 119.25 89.808594 C 117.421875 89.773438 116.289062 90.554688 115.632812 92.316406 C 115.121094 93.695312 115.070312 95.140625 115.0625 96.585938 Z M 115.0625 96.585938 "/>
<path style="stroke:none;fill-rule:evenodd;fill-opacity:1;" d="M 97.308594 93.445312 L 97.308594 105.722656 C 97.308594 106.933594 97.308594 106.933594 96.054688 106.933594 C 95.4375 106.933594 94.816406 106.890625 94.199219 106.945312 C 93.507812 107.007812 93.292969 106.765625 93.300781 106.0625 C 93.332031 102.4375 93.316406 98.8125 93.316406 95.1875 C 93.316406 92.476562 93.335938 89.765625 93.304688 87.054688 C 93.296875 86.4375 93.472656 86.238281 94.09375 86.261719 C 95.300781 86.308594 96.511719 86.3125 97.71875 86.257812 C 98.320312 86.234375 98.601562 86.449219 98.84375 86.976562 C 100.730469 91.066406 102.644531 95.140625 104.554688 99.21875 C 104.601562 99.316406 104.667969 99.410156 104.863281 99.734375 L 104.863281 98.679688 C 104.863281 94.820312 104.878906 90.960938 104.847656 87.101562 C 104.84375 86.453125 104.992188 86.210938 105.671875 86.261719 C 106.523438 86.324219 107.378906 86.296875 108.234375 86.269531 C 108.714844 86.25 108.90625 86.386719 108.90625 86.90625 C 108.890625 93.359375 108.894531 99.816406 108.90625 106.269531 C 108.90625 106.757812 108.761719 106.949219 108.253906 106.941406 C 106.929688 106.917969 105.601562 106.910156 104.273438 106.945312 C 103.730469 106.960938 103.589844 106.628906 103.410156 106.242188 C 101.539062 102.179688 99.65625 98.121094 97.769531 94.066406 C 97.675781 93.867188 97.664062 93.601562 97.308594 93.445312 Z M 97.308594 93.445312 "/>
<path style="stroke:none;fill-rule:evenodd;fill-opacity:1;" d="M 31.8125 97.144531 C 33.328125 98.363281 33.929688 100.050781 34.726562 101.617188 C 35.496094 103.136719 36.226562 104.679688 37 106.199219 C 37.261719 106.71875 37.3125 106.972656 36.574219 106.945312 C 35.34375 106.902344 34.101562 106.910156 32.867188 106.945312 C 32.367188 106.960938 32.144531 106.753906 31.953125 106.320312 C 31.089844 104.355469 30.1875 102.40625 29.304688 100.449219 C 28.820312 99.375 28.050781 98.71875 26.84375 98.550781 C 26.128906 98.453125 25.941406 98.679688 25.953125 99.386719 C 25.996094 101.625 25.945312 103.863281 25.984375 106.101562 C 25.996094 106.757812 25.824219 106.988281 25.152344 106.949219 C 24.210938 106.890625 23.265625 106.914062 22.324219 106.941406 C 21.824219 106.953125 21.578125 106.839844 21.578125 106.265625 C 21.597656 99.8125 21.589844 93.363281 21.59375 86.910156 C 21.59375 86.628906 21.519531 86.265625 21.984375 86.28125 C 25.128906 86.382812 28.296875 85.949219 31.410156 86.648438 C 35.6875 87.609375 36.226562 91.222656 35.457031 93.894531 C 34.953125 95.648438 33.597656 96.605469 31.8125 97.144531 Z M 25.972656 92.433594 C 25.972656 93.171875 25.972656 93.90625 25.972656 94.640625 C 25.972656 94.882812 25.964844 95.132812 26.3125 95.132812 C 27.515625 95.144531 28.734375 95.230469 29.851562 94.636719 C 30.863281 94.097656 31.28125 93.210938 31.132812 91.972656 C 31.011719 90.960938 30.453125 90.332031 29.328125 90.078125 C 28.699219 89.933594 28.046875 89.863281 27.402344 89.855469 C 25.632812 89.835938 26.015625 89.691406 25.972656 91.199219 C 25.960938 91.609375 25.972656 92.023438 25.972656 92.433594 Z M 25.972656 92.433594 "/>
<path style="stroke:none;fill-rule:evenodd;fill-opacity:1;" d="M 38.988281 96.582031 C 38.988281 93.457031 39.007812 90.335938 38.972656 87.210938 C 38.964844 86.507812 39.109375 86.226562 39.882812 86.261719 C 42.382812 86.363281 44.894531 86.105469 47.386719 86.410156 C 52.121094 86.992188 54.5625 89.464844 55.09375 94.261719 C 55.355469 96.589844 55.269531 98.914062 54.433594 101.152344 C 53.117188 104.664062 50.367188 106.28125 46.832031 106.769531 C 44.433594 107.097656 42.007812 106.886719 39.589844 106.941406 C 38.941406 106.957031 38.988281 106.554688 38.988281 106.128906 C 38.988281 102.945312 38.988281 99.765625 38.988281 96.582031 Z M 43.335938 96.566406 L 43.335938 101.332031 C 43.335938 103.371094 43.335938 103.371094 45.414062 103.285156 C 47.992188 103.175781 49.636719 101.851562 50.246094 99.332031 C 50.734375 97.324219 50.683594 95.300781 50.183594 93.304688 C 49.683594 91.320312 48.371094 90.210938 46.320312 89.980469 C 45.59375 89.898438 44.851562 89.925781 44.121094 89.859375 C 43.5 89.800781 43.3125 90.039062 43.324219 90.65625 C 43.359375 92.625 43.335938 94.597656 43.335938 96.566406 Z M 43.335938 96.566406 "/>
<path style="stroke:none;fill-rule:evenodd;fill-opacity:1;" d="M 17.496094 106.941406 C 15.128906 106.941406 15.128906 106.941406 14.492188 104.703125 C 13.984375 102.921875 13.984375 102.921875 12.128906 102.921875 C 10.652344 102.921875 9.179688 102.949219 7.707031 102.910156 C 7.160156 102.894531 6.929688 103.078125 6.800781 103.601562 C 6.578125 104.515625 6.238281 105.402344 6.015625 106.316406 C 5.890625 106.824219 5.632812 106.964844 5.144531 106.949219 C 4.175781 106.917969 3.199219 106.910156 2.230469 106.949219 C 1.570312 106.976562 1.507812 106.765625 1.6875 106.179688 C 3.160156 101.429688 4.605469 96.671875 6.058594 91.914062 C 6.558594 90.285156 7.082031 88.660156 7.550781 87.019531 C 7.699219 86.492188 7.902344 86.246094 8.5 86.265625 C 10.003906 86.3125 11.507812 86.296875 13.007812 86.273438 C 13.46875 86.265625 13.671875 86.414062 13.808594 86.867188 C 15.769531 93.3125 17.75 99.753906 19.738281 106.191406 C 19.914062 106.761719 19.828125 107.003906 19.175781 106.949219 C 18.621094 106.902344 18.058594 106.941406 17.496094 106.941406 Z M 10.628906 91.28125 C 10.566406 91.285156 10.507812 91.289062 10.445312 91.292969 C 9.667969 93.964844 8.886719 96.632812 8.109375 99.304688 C 8.246094 99.34375 8.300781 99.375 8.359375 99.375 C 9.300781 99.382812 10.242188 99.390625 11.183594 99.390625 C 12.988281 99.394531 12.992188 99.390625 12.496094 97.691406 C 11.875 95.554688 11.25 93.414062 10.628906 91.28125 Z M 10.628906 91.28125 "/>
<path style="stroke:none;fill-rule:evenodd;fill-opacity:1;" d="M 57.074219 93.964844 C 57.074219 91.636719 57.085938 89.308594 57.0625 86.976562 C 57.058594 86.460938 57.183594 86.238281 57.746094 86.265625 C 58.71875 86.308594 59.695312 86.316406 60.664062 86.261719 C 61.316406 86.226562 61.441406 86.492188 61.4375 87.078125 C 61.417969 91 61.425781 94.921875 61.433594 98.84375 C 61.433594 99.519531 61.453125 100.199219 61.523438 100.871094 C 61.710938 102.71875 62.804688 103.652344 64.8125 103.710938 C 66.824219 103.773438 67.960938 102.902344 68.234375 101.039062 C 68.335938 100.371094 68.371094 99.6875 68.375 99.015625 C 68.390625 95.09375 68.398438 91.171875 68.363281 87.253906 C 68.359375 86.515625 68.488281 86.183594 69.316406 86.257812 C 70.222656 86.339844 71.144531 86.296875 72.054688 86.269531 C 72.535156 86.253906 72.738281 86.382812 72.734375 86.902344 C 72.703125 91.382812 72.78125 95.867188 72.652344 100.34375 C 72.542969 104.234375 70.007812 106.753906 66.109375 107.1875 C 64.445312 107.375 62.808594 107.28125 61.21875 106.753906 C 58.667969 105.902344 57.210938 103.851562 57.113281 100.859375 C 57.042969 98.5625 57.101562 96.261719 57.101562 93.964844 Z M 57.074219 93.964844 "/>
<path style="stroke:none;fill-rule:evenodd;fill-opacity:1;" d="M 82.96875 86.277344 C 85.003906 86.277344 87.035156 86.296875 89.070312 86.261719 C 89.644531 86.253906 89.855469 86.421875 89.816406 87.007812 C 89.773438 87.710938 89.773438 88.421875 89.816406 89.125 C 89.851562 89.6875 89.625 89.832031 89.101562 89.816406 C 88.039062 89.78125 86.980469 89.824219 85.917969 89.796875 C 85.421875 89.78125 85.183594 89.878906 85.183594 90.460938 C 85.207031 94.527344 85.203125 98.59375 85.1875 102.660156 C 85.183594 103.203125 85.355469 103.386719 85.894531 103.367188 C 86.953125 103.339844 88.015625 103.390625 89.074219 103.347656 C 89.675781 103.328125 89.84375 103.558594 89.816406 104.121094 C 89.777344 104.855469 89.785156 105.59375 89.8125 106.328125 C 89.832031 106.800781 89.636719 106.9375 89.191406 106.9375 C 85.066406 106.925781 80.941406 106.925781 76.8125 106.9375 C 76.320312 106.941406 76.121094 106.785156 76.140625 106.28125 C 76.164062 105.546875 76.171875 104.804688 76.136719 104.070312 C 76.113281 103.539062 76.289062 103.335938 76.839844 103.351562 C 77.929688 103.382812 79.019531 103.34375 80.109375 103.363281 C 80.609375 103.375 80.769531 103.1875 80.765625 102.691406 C 80.753906 98.597656 80.753906 94.5 80.765625 90.402344 C 80.765625 89.941406 80.601562 89.789062 80.148438 89.796875 C 79.058594 89.820312 77.964844 89.773438 76.878906 89.816406 C 76.28125 89.839844 76.089844 89.621094 76.140625 89.054688 C 76.226562 88.15625 75.765625 87.011719 76.339844 86.421875 C 76.839844 85.910156 77.964844 86.292969 78.816406 86.277344 C 80.195312 86.261719 81.585938 86.277344 82.96875 86.277344 Z M 82.96875 86.277344 "/>
<path style="stroke:none;fill-rule:evenodd;fill-opacity:1;" d="M 124.851562 24.476562 C 124.71875 24.675781 124.671875 24.742188 124.628906 24.808594 C 124.386719 25.171875 124.574219 25.90625 123.964844 25.894531 C 123.425781 25.882812 123.5625 25.210938 123.371094 24.84375 C 123.320312 24.746094 123.261719 24.65625 123.09375 24.382812 C 123.09375 24.886719 123.101562 25.171875 123.09375 25.460938 C 123.085938 25.65625 123.128906 25.902344 122.820312 25.917969 C 122.507812 25.933594 122.527344 25.683594 122.523438 25.488281 C 122.515625 24.808594 122.515625 24.132812 122.519531 23.457031 C 122.519531 23.226562 122.484375 22.960938 122.84375 22.953125 C 123.113281 22.949219 123.347656 22.9375 123.460938 23.289062 C 123.605469 23.71875 123.65625 24.199219 123.988281 24.613281 C 124.304688 24.210938 124.359375 23.746094 124.480469 23.320312 C 124.582031 22.972656 124.796875 22.949219 125.078125 22.949219 C 125.433594 22.953125 125.417969 23.203125 125.421875 23.4375 C 125.425781 24.117188 125.425781 24.792969 125.417969 25.472656 C 125.414062 25.664062 125.441406 25.917969 125.136719 25.921875 C 124.832031 25.921875 124.855469 25.679688 124.851562 25.480469 C 124.84375 25.191406 124.851562 24.90625 124.851562 24.476562 Z M 124.851562 24.476562 "/>
<path style="stroke:none;fill-rule:evenodd;fill-opacity:1;" d="M 121.140625 22.945312 C 121.226562 22.945312 121.320312 22.929688 121.402344 22.945312 C 121.726562 23.007812 122.230469 22.757812 122.335938 23.144531 C 122.480469 23.6875 121.910156 23.414062 121.667969 23.53125 C 121.425781 23.648438 121.472656 23.863281 121.46875 24.058594 C 121.457031 24.527344 121.460938 24.996094 121.460938 25.464844 C 121.460938 25.722656 121.410156 25.9375 121.078125 25.925781 C 120.773438 25.914062 120.785156 25.691406 120.785156 25.488281 C 120.777344 25.050781 120.773438 24.609375 120.78125 24.171875 C 120.792969 23.796875 120.796875 23.445312 120.257812 23.496094 C 120.070312 23.511719 119.90625 23.457031 119.90625 23.21875 C 119.90625 22.890625 120.160156 22.957031 120.347656 22.949219 C 120.613281 22.9375 120.875 22.945312 121.140625 22.945312 Z M 121.140625 22.945312 "/>
<path style="stroke:none;fill-rule:evenodd;fill-opacity:1;" d="M 31.976562 47.542969 C 35.214844 47.542969 38.457031 47.566406 41.695312 47.523438 C 42.453125 47.511719 42.648438 47.746094 42.601562 48.464844 C 42.539062 49.371094 42.535156 50.292969 42.601562 51.199219 C 42.65625 51.957031 42.453125 52.203125 41.648438 52.195312 C 37.347656 52.152344 33.046875 52.171875 28.75 52.171875 C 26.570312 52.171875 24.390625 52.140625 22.214844 52.191406 C 21.453125 52.210938 21.257812 51.957031 21.300781 51.242188 C 21.359375 50.304688 21.351562 49.355469 21.300781 48.414062 C 21.265625 47.738281 21.460938 47.515625 22.171875 47.523438 C 25.4375 47.566406 28.710938 47.542969 31.976562 47.542969 Z M 31.976562 47.542969 "/>
<path style="stroke:none;fill-rule:evenodd;fill-opacity:1;" d="M 95.015625 41.128906 C 95.78125 41.128906 96.550781 41.152344 97.316406 41.121094 C 97.816406 41.101562 97.976562 41.277344 97.96875 41.78125 C 97.941406 43.195312 97.988281 44.609375 97.945312 46.023438 C 97.921875 46.664062 98.078125 46.898438 98.765625 46.871094 C 100.148438 46.816406 101.535156 46.875 102.917969 46.847656 C 103.453125 46.835938 103.730469 46.941406 103.714844 47.5625 C 103.679688 49.09375 103.683594 50.628906 103.710938 52.160156 C 103.722656 52.714844 103.511719 52.859375 102.984375 52.851562 C 101.570312 52.820312 100.15625 52.867188 98.742188 52.828125 C 98.140625 52.808594 97.921875 52.960938 97.941406 53.601562 C 97.988281 55.015625 97.933594 56.429688 97.96875 57.84375 C 97.984375 58.4375 97.839844 58.679688 97.195312 58.660156 C 95.691406 58.617188 94.1875 58.625 92.6875 58.65625 C 92.105469 58.671875 91.925781 58.484375 91.941406 57.902344 C 91.980469 56.429688 91.933594 54.957031 91.964844 53.484375 C 91.972656 52.984375 91.820312 52.820312 91.316406 52.832031 C 89.902344 52.859375 88.484375 52.800781 87.074219 52.859375 C 86.347656 52.886719 86.179688 52.625 86.195312 51.953125 C 86.238281 50.570312 86.261719 49.183594 86.191406 47.800781 C 86.148438 46.984375 86.453125 46.808594 87.203125 46.839844 C 88.558594 46.898438 89.914062 46.832031 91.269531 46.867188 C 91.808594 46.882812 91.980469 46.71875 91.964844 46.167969 C 91.929688 44.757812 91.980469 43.339844 91.941406 41.925781 C 91.925781 41.328125 92.074219 41.074219 92.714844 41.117188 C 93.480469 41.167969 94.246094 41.128906 95.015625 41.128906 Z M 95.015625 41.128906 "/>
</g>
</svg>