<svg xmlns="http://www.w3.org/2000/svg" viewBox="0 0 128 128"><path d="M59.3 127.602c-11.206-1.075-21.253-4.403-29.288-9.7l-1.688-1.113-.406-3.133c-.45-3.488-.922-9.035-.918-10.86v-1.19l5.242-.043c2.883-.024 6.117-.133 7.188-.25 1.699-.18 2.035-.149 2.652.238 5.715 3.586 14.445 5.965 21.871 5.957 11.899-.008 22.414-4.395 30.902-12.89 3.754-3.759 5.817-6.583 8.07-11.06 6.188-12.273 6.321-26.316.372-38.601-5.89-12.16-17.375-21.094-30.5-23.719-3.383-.68-8.043-1.039-10.828-.84l-2.27.165.574-.813c.32-.445 2.426-2.7 4.684-5.008l4.106-4.195-1.688-1.57C64.988 6.75 61.691 4 59.219 2.168L57.102.602l.796-.188C59.473.043 68.664.156 71.953.586c27.024 3.531 48.594 23.16 54.45 49.555 1.917 8.629 1.956 18.187.117 27.117-2.325 11.27-8.235 22.383-16.442 30.91A64.013 64.013 0 0169.906 127.5c-2.547.238-8.594.293-10.605.102zm-39.987-18.344c-3.622-3.617-8.516-9.492-8.184-9.824.062-.063 1.43.156 3.035.48 2.438.496 7.922 1.328 8.75 1.328.125 0 .23 1.035.234 2.352.004 2.156.23 5.246.618 8.437.109.899.07 1.266-.13 1.266-.156 0-2.105-1.817-4.323-4.04zM27 96.336c0-1.941.504-7.723.691-7.926.09-.094.852.738 1.696 1.852.84 1.117 2.746 3.23 4.234 4.695l2.703 2.672H27zm-4.945.887c-4.032-.496-12.22-2.07-12.871-2.473-.2-.125.039-1.094.84-3.41 1.058-3.047 3.554-9.035 3.945-9.453.097-.102 1.414.457 2.926 1.246 1.515.789 3.71 1.844 4.886 2.351l2.133.914-.148 1.102c-.34 2.57-.614 6.047-.618 7.898-.003 1.094-.09 1.973-.187 1.954-.102-.02-.508-.079-.906-.13zM4.527 86.852a68.035 68.035 0 01-3.082-10.657C.7 72.5.723 72.473 3.02 74.285c1.062.84 3.097 2.32 4.52 3.285 1.42.97 2.585 1.801 2.585 1.844 0 .047-.445 1.047-.988 2.219a109.642 109.642 0 00-2.075 4.906c-.597 1.523-1.164 2.86-1.265 2.965-.098.105-.668-1.09-1.27-2.652zm17.34-6.235c-1.851-.851-5.21-2.566-5.668-2.89-.094-.067 2.383-4.149 3.645-6.004l.988-1.457.172.726c1.105 4.625 1.77 6.977 2.457 8.688.45 1.12.805 2.035.793 2.035-.016-.004-1.09-.496-2.387-1.098zM9.25 73.38c-2.602-1.817-6.95-5.238-7.223-5.68-.257-.418 8.602-9.004 9.293-9.004.114 0 1.075 1.14 2.133 2.532 1.063 1.394 2.48 3.164 3.156 3.933.676.77 1.23 1.45 1.23 1.512 0 .062-.85 1.387-1.894 2.941-1.039 1.551-2.246 3.45-2.675 4.211-.43.762-.918 1.387-1.09 1.387-.168 0-1.489-.824-2.93-1.832zM.242 61.824c.035-3.027 1.055-9.922 2.055-13.883.992-3.921.797-3.894 2.598-.332.867 1.723 2.058 3.934 2.64 4.918l1.059 1.782-1.828 1.566c-1.004.86-2.883 2.605-4.176 3.875C1.297 61.023.242 61.957.242 61.824zm19.38-.793c-1.903-2.27-4.177-5.422-4.056-5.617.164-.266 2.973-2.172 5.258-3.57 1.531-.938 1.649-.973 1.496-.457-.562 1.925-1.36 5.972-1.582 8.02-.144 1.316-.285 2.421-.316 2.452-.031.032-.39-.343-.8-.828zm-8.364-12.07c-2.5-4.356-5.387-10.586-5.051-10.895.54-.504 9.703-3.07 12.41-3.476l1.055-.16.531 3.215c.29 1.77.777 4.253 1.086 5.523l.559 2.312-1.98 1.125c-1.09.622-3.177 1.926-4.634 2.899l-2.648 1.77zm14.805-9.977a161.737 161.737 0 01-.708-4.062l-.203-1.36 1.23-.144c.68-.078 2.532-.215 4.118-.3l2.887-.153-.989 1.055c-1.632 1.742-3.488 4.082-4.695 5.93l-1.137 1.737zm-16.16-8.816c1.648-2.793 6.855-9.422 8.62-10.98l.52-.461v10.132l-2.11.41c-1.835.356-5.757 1.313-7.152 1.743-.426.133-.418.062.121-.844zm14.73-8.176c.043-3.324.14-6.105.219-6.183.27-.274 11.554 1.972 11.98 2.382.04.04-.3 1.301-.754 2.809-.457 1.512-1.02 3.57-1.254 4.574l-.426 1.836-3.398.15c-1.871.082-4.086.222-4.922.312l-1.523.164zm16.105 4.942c0-.11.957-3.567 1.465-5.286l.477-1.609 2.945 1.211c3.902 1.605 3.813 1.547 2.941 1.91-2.035.856-5.39 2.48-6.421 3.117-1.094.672-1.407.817-1.407.657zm10.848-9.688c-.863-.433-2.723-1.254-4.133-1.824l-2.566-1.035.25-.715c.316-.906 3.847-7.985 4.508-9.04l.496-.792 1.507 1.015c1.973 1.336 5.598 4.047 6.793 5.086l.95.825-2.52 2.875c-1.383 1.578-2.785 3.214-3.117 3.632l-.602.766zm-15.79-5.578a145.584 145.584 0 00-4.698-1.117l-1.57-.324 2.124-1.262a82.044 82.044 0 013.86-2.133c1.855-.937 7.449-3.242 7.57-3.121.04.039-.39.984-.96 2.098-.567 1.113-1.458 3-1.977 4.195-.52 1.191-1.004 2.234-1.079 2.312-.074.079-1.546-.214-3.27-.648zm0 0" fill="#3eb049"/></svg>
