<svg xmlns="http://www.w3.org/2000/svg" viewBox="0 0 128 128"><path fill="#e15919" fill-rule="evenodd" d="M57.647.003c-2.269.064-4.51 1.144-6.385 3.224-1.03 1.146-1.905 2.51-2.629 3.855-1.89 3.54-2.264 7.546-2.964 11.429l-3.85 21.811c-.148.856-.533 1.21-1.301 1.456L12.25 50.757c-2.06.672-4.125 1.543-5.947 2.7-5.558 3.53-6.381 9.337-2.208 14.437 1.842 2.256 4.217 3.843 6.85 4.996l17.603 7.845c.147.08.304.131.463.161l3.718 2.683s-3.699 40.947 3.246 43.78c-.061-.011-.41-.081-.41-.081s.703.761 2.602.537c1.454.27 1.263.225.075-.01 2.583-.335 7.337-2.499 15.578-10.786 1.058-.952 1.775-1.675 1.775-1.675l17.801-19.218 4.163 1.466c.15.207.367.34.714.443l19.823 6.031c2.709.836 5.39 1.448 8.278 1.026 5.156-.755 8.95-5 8.899-10.191-.02-2.28-.82-4.34-1.87-6.325l-13.127-24.899c-.418-.787-.406-1.296.195-2l22.054-25.921c1.428-1.703 2.717-3.529 3.465-5.645 1.643-4.67-.482-8.382-5.33-9.289-2.229-.398-4.428-.187-6.6.386l-31.598 8.394c-.93.25-1.388.075-1.893-.772L67.668 7.396c-.975-1.615-2.14-3.194-3.477-4.527C62.212.89 59.916-.06 57.647.003Zm.943 19.737c.51.358.768.728 1.01 1.126l13.88 23.128c.382.629.724.851 1.484.648l24.444-6.496 5.884-1.54c-.087.494-.302.789-.537 1.067l-20.16 23.673c-.57.688-.621 1.17-.192 1.977l12.742 24.159.585 1.237-.016.02-22.725-6.265-.006-.016-4.3-1.206-25.491 28.256 4.662-37.15-4.185-1.82.008-.007-23.673-9.4c.454-.413.86-.584 1.285-.716l28.777-9.097c.676-.211 1.062-.47 1.126-1.242l.402-2.355 3.874-21.807z"/></svg>
