<svg xmlns="http://www.w3.org/2000/svg" viewBox="0 0 128 128"><path fill="#e15919" d="M117.085 64.337c-.109-.237-.16-.357-.22-.47-1.604-3.049-3.203-6.102-4.826-9.152-.16-.308-.14-.489.08-.753 2.553-2.978 5.074-5.98 7.63-8.944a.777.777 0 0 0 .205-.405 839.8 839.8 0 0 0-2.232.58c-3.078.818-6.184 1.632-9.233 2.461-.289.076-.417-.008-.561-.248a1047.83 1047.83 0 0 0-5.278-8.74 1.222 1.222 0 0 0-.384-.425c-.14.782-.285 1.555-.425 2.332-.49 2.753-.982 5.486-1.467 8.247-.052.297-.124.598-.152.894-.024.28-.168.389-.429.469-3.63 1.142-7.257 2.292-10.884 3.442-.16.052-.316.116-.489.273 2.97 1.178 5.94 2.356 8.949 3.558-.109.084-.18.152-.26.204-1.856 1.199-3.716 2.4-5.567 3.603-.224.148-.4.168-.65.056-2.22-.998-4.451-1.98-6.68-2.97-.997-.444-1.89-1.037-2.588-1.895-1.579-1.927-1.266-4.123.838-5.482.689-.44 1.47-.765 2.252-1.022 3.558-1.158 7.133-2.276 10.68-3.398.296-.096.436-.228.492-.553.477-2.753.97-5.526 1.467-8.247.268-1.47.408-2.977 1.122-4.328.276-.52.6-1.03.997-1.462 1.42-1.575 3.395-1.631 4.91-.132.504.504.937 1.098 1.314 1.715a976.243 976.243 0 0 1 4.905 8.122c.192.321.364.385.717.293 3.98-1.07 7.959-2.12 11.958-3.174.825-.216 1.655-.296 2.5-.136 1.836.34 2.637 1.74 2.016 3.518-.28.806-.77 1.487-1.318 2.132-2.781 3.27-5.567 6.56-8.332 9.814-.224.269-.228.46-.072.761 1.667 3.138 3.314 6.268 4.99 9.442.396.749.7 1.534.709 2.396.02 1.964-1.419 3.57-3.37 3.859-1.09.16-2.108-.072-3.134-.389a824.96 824.96 0 0 0-7.506-2.284c-.228-.072-.32-.164-.36-.413-.289-1.759-.602-3.514-.906-5.277-.008-.048.004-.1.012-.209 2.85.79 5.69 1.563 8.62 2.377"/><path fill="#3a383d" d="M57.648 54.455c-2.095 0-3.855 1.764-3.855 3.856 0 1.639 1.094 2.945 2.838 2.945a3.62 3.62 0 0 0 1.49-.342h.004l.186-1.566c-.381.305-.944.529-1.526.529-.949 0-1.549-.75-1.549-1.707 0-1.254 1.07-2.342 2.268-2.342.577 0 1.047.226 1.336.547l.195-1.58a2.891 2.891 0 0 0-1.387-.34zm15.245.068-1.16 6.59h3.652l.232-1.33h-2.275l.23-1.326h2.092l.23-1.324h-2.087l.23-1.28h2.277l.233-1.33h-3.654zm-1.16 6.59h-.003v.01l.002-.01zm-4.247-6.58-.465 2.612h-2.865l.461-2.61h-1.379l-1.162 6.6h1.375l.465-2.653h2.869l-.46 2.653h1.378l1.162-6.602h-1.379zm-35.515.002-3.528 6.6h1.6l.717-1.406h2.256l.216 1.406h1.479l-1.201-6.6h-1.54zm16.365 0-3.527 6.6h1.6l.716-1.406h2.256l.213 1.406h1.482l-1.203-6.6h-1.537zm-9.197.012-1.162 6.596h1.378l.428-2.413h.91c1.434 0 2.442-.957 2.442-2.384 0-1.13-.77-1.787-1.875-1.787h-2.114l-.007-.012zm1.15 1.338h.805l-.004.002c.36 0 .601.203.601.6 0 .601-.38.921-.869.921h-.802l.27-1.523zm-7.81.46.32 2.057h-1.354l1.034-2.056zm16.37 0 .32 2.057h-1.355l1.036-2.056zm-33.07.887c-4.048.123-7.145 2.042-9.32 5.565-.933 1.5-1.293 3.19-1.041 4.99.229 1.631.949 3.057 2.012 4.287 1.522 1.795 3.165 3.488 4.74 5.239.66.73 1.335 1.462 1.877 2.279.94 1.419.7 2.995-.57 4.125a5.678 5.678 0 0 1-1.415.916c-1.955.886-3.905.342-5.115-1.45-.4-.604-.673-1.302-1.002-1.96-.06-.128-.108-.26-.172-.42C3.85 81.829 1.951 82.85 0 83.893c.316.782.588 1.554.941 2.283.997 2.044 2.55 3.51 4.782 4.164 1.675.497 3.39.548 5.113.271 3.92-.62 6.863-2.66 8.738-6.142 1.014-1.9 1.443-3.919 1.09-6.063-.296-1.823-1.257-3.299-2.455-4.617-1.319-1.463-2.71-2.844-4.045-4.287-.8-.874-1.585-1.763-2.303-2.701-.649-.853-.558-1.932.135-2.686.782-.845 1.765-1.22 2.91-1.14 1.38.092 2.325.889 3.09 1.955.297.416.55.865.83 1.31 1.744-1.301 3.484-2.597 5.287-3.937-.469-.628-.903-1.228-1.369-1.809-1.567-1.98-3.598-3.17-6.142-3.262a14.075 14.075 0 0 0-.823 0zm8.334 5.07.01.014.025-.039c-.011.01-.023.017-.035.026zm74.782-4.064c-.104.032-.148.031-.176.051-2.036 1.31-4.072 2.62-6.104 3.947-.1.064-.185.226-.2.35-.562 4.205-1.11 8.41-1.663 12.613-.577 4.412-1.158 8.785-1.732 13.197-.072.553-.132 1.11-.2 1.682h5.897c.565-4.288 1.13-8.574 1.703-12.947.152.217.24.343.324.47 2.64 4.044 5.337 8.107 8.002 12.167.164.252.333.336.629.336 2.262-.008 4.501 0 6.748.003v-.048c-.077-.08-.172-.153-.236-.24l-10.635-14.967c-.069-.095-.124-.197-.19-.301.102-.112.19-.213.278-.309 2.063-2.184 4.117-4.352 6.181-6.512.181-.193.254-.357.206-.625-.244-1.33-.465-2.668-.694-4.003-.08-.465-.164-.929-.256-1.475-3.258 3.587-6.452 7.142-9.65 10.68l-.072-.051c.613-4.657 1.227-9.318 1.84-14.018zm13.228 31.87v.03l.018-.03h-.018zm-48.42-24.583c-.471.011-.95.046-1.437.106-6.676.825-12.25 6.72-12.536 13.44-.117 2.89.693 5.51 2.633 7.714 3.586 4.096 9.362 4.38 13.774 2.344.092-.04.175-.189.191-.3.29-2.145.568-4.292.865-6.556l.018-.033c-.914.95-1.874 1.66-3.004 2.11-2.228.878-4.39.872-6.43-.487-2.096-1.402-2.994-3.921-2.425-6.554.826-3.967 4.693-6.776 8.74-6.348 1.96.205 3.442 1.158 4.332 2.95.834 1.686.967 3.496.758 5.32-.332 2.925-.754 5.86-1.135 8.78-.076.57-.14 1.138-.207 1.72h5.236c.02-.114.04-.206.053-.293.332-2.512.682-5.053.998-7.586.221-1.78.504-3.563.584-5.362.125-2.72-.708-5.193-2.508-7.256-2.307-2.65-5.2-3.786-8.5-3.709zm-26.678.153c-.957.004-1.932.12-2.92.334-5.442 1.194-10.11 5.895-11.046 11.38-.533 3.095-.859 6.204-1.276 9.317-.364 2.725-.72 5.448-1.078 8.168-.1.774-.197 1.553-.297 2.326.088.024.124.045.164.045 1.623.004 3.246.004 4.866.008.204.005.265-.084.289-.272a553.527 553.527 0 0 1 .636-4.949c.164-1.238.328-2.473.504-3.783l.037.064c.16.1.265.16.358.223 2.556 1.792 5.414 2.299 8.45 1.842 2.93-.445 5.495-1.756 7.63-3.824 3.238-3.174 4.925-6.97 4.412-11.545-.372-3.214-1.946-5.815-4.7-7.586-1.897-1.226-3.922-1.758-6.029-1.748zm48.965.582c-.378.004-.756.011-1.133.027-3.154.124-6.27 2.932-6.763 6.065-.365 2.349-.645 4.704-.953 7.048-.361 2.681-.718 5.41-1.075 8.123-.1.781-.195 1.559-.3 2.364h5.486c.137-1.07.271-2.128.408-3.182l1.65-12.533c.045-.341.084-.688.184-1.008.27-.826 1.075-1.398 1.957-1.402 1.09-.008 2.175-.004 3.29-.004l.716-5.442-.023-.037c-1.167 0-2.31-.03-3.444-.02zm-49.736 4.752c2.655-.012 5.006 1.567 5.842 4.136.205.633.27 1.307.357 1.768h.027c-.176 3.233-1.562 5.515-4.123 7.049-1.935 1.158-4.023 1.486-6.183.705-2.681-.95-4.124-3.548-3.852-6.229.33-3.638 2.884-6.43 6.434-7.255a6.867 6.867 0 0 1 1.498-.174zm77.142 16.33v.369h.87v2.396h.453v-2.396l.004.002h.867v-.371h-2.194zm2.754.002v2.763h.454v-2.306h.015l.904 2.306h.29l.91-2.306h.011v2.306h.461v-2.763h-.7l-.813 2.103-.827-2.103h-.705z"/></svg>
