<?xml version="1.0" encoding="UTF-8"?>
<svg xmlns="http://www.w3.org/2000/svg" xmlns:xlink="http://www.w3.org/1999/xlink" width="128px" height="128px" viewBox="0 0 128 128" version="1.1">
<g id="surface1">
<path style=" stroke:none;fill-rule:evenodd;fill:rgb(22.745098%,21.960784%,23.921569%);fill-opacity:1;" d="M 57.761719 1.125 C 55.535156 1.191406 53.332031 2.25 51.492188 4.292969 C 50.480469 5.417969 49.621094 6.757812 48.910156 8.078125 C 47.054688 11.554688 46.6875 15.488281 46 19.300781 L 42.21875 40.71875 C 42.074219 41.558594 41.695312 41.90625 40.941406 42.148438 L 13.183594 50.964844 C 11.160156 51.625 9.132812 52.480469 7.34375 53.617188 C 1.886719 57.082031 1.078125 62.785156 5.175781 67.792969 C 6.984375 70.007812 9.316406 71.566406 11.902344 72.699219 L 29.1875 80.402344 C 29.332031 80.480469 29.484375 80.53125 29.640625 80.5625 L 33.292969 83.195312 C 33.292969 83.195312 29.660156 123.402344 36.480469 126.1875 C 36.421875 126.171875 36.078125 126.105469 36.078125 126.105469 C 36.078125 126.105469 36.769531 126.851562 38.632812 126.632812 C 40.058594 126.898438 39.875 126.855469 38.707031 126.621094 C 41.238281 126.292969 45.90625 124.167969 53.980469 116.054688 C 55.03125 115.109375 55.746094 114.386719 55.746094 114.386719 L 73.226562 95.515625 L 77.316406 96.953125 C 77.460938 97.15625 77.675781 97.289062 78.015625 97.390625 L 97.480469 103.3125 C 100.140625 104.132812 102.773438 104.734375 105.609375 104.320312 C 110.671875 103.578125 114.398438 99.410156 114.347656 94.3125 C 114.328125 92.074219 113.542969 90.050781 112.511719 88.101562 L 99.621094 63.652344 C 99.210938 62.878906 99.222656 62.378906 99.8125 61.6875 L 121.46875 36.234375 C 122.871094 34.5625 124.136719 32.769531 124.871094 30.691406 C 126.484375 26.105469 124.398438 22.460938 119.636719 21.570312 C 117.449219 21.179688 115.289062 21.386719 113.15625 21.949219 L 82.128906 30.191406 C 81.214844 30.4375 80.765625 30.265625 80.269531 29.433594 L 67.601562 8.386719 C 66.644531 6.800781 65.5 5.25 64.1875 3.941406 C 62.246094 2 59.988281 1.0625 57.761719 1.125 Z M 58.6875 20.507812 C 59.1875 20.859375 59.441406 21.222656 59.679688 21.613281 L 73.308594 44.324219 C 73.683594 44.941406 74.019531 45.160156 74.765625 44.960938 L 98.769531 38.582031 L 104.546875 37.070312 C 104.460938 37.554688 104.25 37.84375 104.019531 38.117188 L 84.222656 61.363281 C 83.664062 62.039062 83.613281 62.511719 84.035156 63.304688 L 96.546875 87.027344 L 97.121094 88.242188 L 97.105469 88.261719 L 74.789062 82.109375 L 74.785156 82.09375 L 70.5625 80.910156 L 45.53125 108.65625 L 50.109375 72.175781 L 46 70.390625 L 46.007812 70.382812 L 22.761719 61.152344 C 23.207031 60.746094 23.605469 60.578125 24.023438 60.449219 L 52.28125 51.515625 C 52.945312 51.308594 53.324219 51.054688 53.386719 50.296875 L 53.78125 47.984375 L 57.585938 26.570312 Z M 58.6875 20.507812 "/>
</g>
</svg>
