<?xml version="1.0" encoding="UTF-8"?>
<svg xmlns="http://www.w3.org/2000/svg" xmlns:xlink="http://www.w3.org/1999/xlink" width="128px" height="128px" viewBox="0 0 128 128" version="1.1">
<g id="surface1">
<path style=" stroke:none;fill-rule:evenodd;fill:rgb(23.529412%,22.745098%,24.313725%);fill-opacity:1;" d="M 97.121094 88.242188 L 96.546875 87.027344 L 84.035156 63.304688 C 83.613281 62.511719 83.664062 62.039062 84.222656 61.363281 L 104.019531 38.117188 C 104.25 37.84375 104.460938 37.554688 104.546875 37.070312 L 98.769531 38.582031 L 74.765625 44.960938 C 74.019531 45.160156 73.683594 44.941406 73.308594 44.324219 L 59.679688 21.613281 C 59.441406 21.222656 59.1875 20.859375 58.6875 20.507812 L 57.585938 26.570312 L 53.78125 47.984375 L 53.386719 50.296875 C 53.324219 51.054688 52.945312 51.308594 52.28125 51.515625 L 24.023438 60.449219 C 23.605469 60.578125 23.207031 60.746094 22.761719 61.152344 L 46.007812 70.382812 L 45.328125 70.917969 L 30.863281 80.265625 C 30.382812 80.644531 29.722656 80.695312 29.1875 80.402344 L 11.902344 72.699219 C 9.316406 71.566406 6.984375 70.007812 5.175781 67.792969 C 1.078125 62.785156 1.886719 57.082031 7.34375 53.617188 C 9.132812 52.480469 11.160156 51.625 13.183594 50.964844 L 40.941406 42.148438 C 41.695312 41.90625 42.074219 41.558594 42.21875 40.71875 L 46 19.300781 C 46.6875 15.488281 47.054688 11.554688 48.910156 8.078125 C 49.621094 6.757812 50.480469 5.417969 51.492188 4.292969 C 55.171875 0.207031 60.300781 0.0546875 64.1875 3.941406 C 65.5 5.25 66.644531 6.800781 67.601562 8.386719 L 80.269531 29.433594 C 80.765625 30.265625 81.214844 30.4375 82.128906 30.191406 L 113.15625 21.949219 C 115.289062 21.386719 117.449219 21.179688 119.636719 21.570312 C 124.398438 22.460938 126.484375 26.105469 124.871094 30.691406 C 124.136719 32.769531 122.871094 34.5625 121.46875 36.234375 L 99.8125 61.6875 C 99.222656 62.378906 99.210938 62.878906 99.621094 63.652344 L 112.511719 88.101562 C 113.542969 90.050781 114.328125 92.074219 114.347656 94.3125 C 114.398438 99.410156 110.671875 103.578125 105.609375 104.320312 C 102.773438 104.734375 100.140625 104.132812 97.480469 103.3125 L 78.015625 97.390625 C 77.414062 97.210938 77.183594 96.972656 77.078125 96.324219 L 74.730469 82.640625 C 74.707031 82.515625 74.742188 82.378906 74.761719 82.101562 L 97.105469 88.261719 "/>
<path style=" stroke:none;fill-rule:nonzero;fill:rgb(23.529412%,22.745098%,24.313725%);fill-opacity:1;" d="M 45.988281 70.382812 L 50.109375 72.175781 L 45.53125 108.65625 L 70.5625 80.910156 L 74.785156 82.09375 L 79.980469 97.894531 L 73.226562 95.515625 L 55.746094 114.386719 C 55.746094 114.386719 47.929688 122.476562 43.691406 121.113281 C 39.453125 119.75 35.878906 115.972656 35.480469 109.222656 C 35.085938 102.46875 33.296875 83.195312 33.296875 83.195312 L 24.753906 77.035156 Z M 45.988281 70.382812 "/>
<path style=" stroke:none;fill-rule:nonzero;fill:rgb(23.529412%,22.745098%,24.313725%);fill-opacity:1;" d="M 33.292969 83.195312 C 33.292969 83.195312 29.523438 124.917969 36.871094 126.304688 C 44.21875 127.695312 36.078125 126.105469 36.078125 126.105469 C 36.078125 126.105469 40.246094 130.875 56.734375 113.195312 L 73.222656 95.515625 L 40.246094 114.980469 C 41.039062 113.988281 44.417969 80.214844 44.417969 80.214844 Z M 33.292969 83.195312 "/>
</g>
</svg>
