<svg xmlns="http://www.w3.org/2000/svg" viewBox="0 0 128 128"><path fill="#e15919" fill-rule="evenodd" d="M117.085 64.337c-.109-.237-.16-.357-.22-.47-1.604-3.049-3.203-6.102-4.826-9.152-.16-.308-.14-.489.08-.753 2.553-2.978 5.074-5.98 7.63-8.944a.777.777 0 0 0 .205-.405c-.742.192-1.483.384-2.232.58-3.078.818-6.184 1.632-9.233 2.461-.289.076-.417-.008-.561-.248-1.751-2.921-3.51-5.855-5.278-8.74a1.222 1.222 0 0 0-.384-.425c-.14.782-.285 1.555-.425 2.332-.49 2.753-.982 5.486-1.467 8.247-.052.297-.124.598-.152.894-.024.28-.168.389-.429.469-3.63 1.142-7.257 2.292-10.884 3.442-.16.052-.316.116-.489.273 2.97 1.178 5.94 2.356 8.949 3.558-.109.084-.18.152-.26.204-1.856 1.199-3.716 2.4-5.567 3.603-.224.148-.4.168-.65.056-2.22-.998-4.451-1.98-6.68-2.97-.997-.444-1.89-1.037-2.588-1.895-1.579-1.927-1.266-4.123.838-5.482.689-.44 1.47-.765 2.252-1.022 3.558-1.158 7.133-2.276 10.68-3.398.296-.096.436-.228.492-.553.477-2.753.97-5.526 1.467-8.247.268-1.47.408-2.977 1.122-4.328.276-.52.6-1.03.997-1.462 1.42-1.575 3.395-1.631 4.91-.132.504.504.937 1.098 1.314 1.715 1.65 2.693 3.274 5.401 4.905 8.122.192.321.364.385.717.293 3.98-1.07 7.959-2.12 11.958-3.174.825-.216 1.655-.296 2.5-.136 1.836.34 2.637 1.74 2.016 3.518-.28.806-.77 1.487-1.318 2.132-2.781 3.27-5.567 6.56-8.332 9.814-.224.269-.228.46-.072.761 1.667 3.138 3.314 6.268 4.99 9.442.396.749.7 1.534.709 2.396.02 1.964-1.419 3.57-3.37 3.859-1.09.16-2.108-.072-3.134-.389-2.493-.773-4.99-1.53-7.506-2.284-.228-.072-.32-.164-.36-.413-.289-1.759-.602-3.514-.906-5.277-.008-.048.004-.1.012-.209 2.85.79 5.69 1.563 8.62 2.377"/><path fill="#3a383d" d="m71.73 61.123 1.162-6.6h3.655l-.233 1.33h-2.276l-.232 1.279h2.088l-.229 1.326h-2.092l-.232 1.326h2.276l-.232 1.33H71.73m-4.949-2.632h-2.865l-.465 2.653h-1.374l1.162-6.6h1.378l-.46 2.609h2.865l.464-2.61h1.379l-1.162 6.6h-1.379l.461-2.652m-8.664 2.432a3.62 3.62 0 0 1-1.49.341c-1.744 0-2.838-1.306-2.838-2.945 0-2.092 1.76-3.855 3.855-3.855.525 0 .998.128 1.387.34l-.196 1.58c-.289-.321-.758-.546-1.335-.546-1.198 0-2.268 1.086-2.268 2.34 0 .958.601 1.708 1.55 1.708.582 0 1.143-.225 1.524-.53l-.185 1.567m-10.31-2.512h1.354l-.32-2.056zm1.566 1.326h-2.256l-.717 1.407h-1.599l3.527-6.6h1.538l1.203 6.6h-1.483l-.213-1.407m-8.287-3.843h-.805l-.269 1.523h.802c.489 0 .87-.32.87-.922 0-.396-.241-.6-.602-.6zm-1.947-1.326h2.112c1.106 0 1.875.657 1.875 1.787 0 1.427-1.006 2.384-2.44 2.384h-.91l-.429 2.413h-1.378l1.162-6.596m-7.694 3.855h1.354l-.32-2.056zm1.57 1.326H30.76l-.718 1.407h-1.599l3.527-6.6h1.539l1.202 6.6h-1.479l-.216-1.407m56.442 6.588-.717 5.442c-1.114 0-2.2-.004-3.29.004-.882.004-1.687.577-1.956 1.403-.1.32-.14.665-.184 1.006l-1.65 12.534c-.137 1.054-.273 2.112-.41 3.182h-5.486c.105-.805.2-1.583.301-2.364.357-2.713.713-5.442 1.074-8.123.308-2.344.589-4.7.954-7.049.493-3.133 3.61-5.939 6.764-6.063 1.507-.064 3.021-.008 4.576-.008m-22.24 15.993c-.297 2.264-.577 4.412-.866 6.556-.016.112-.1.26-.192.3-4.412 2.036-10.187 1.752-13.773-2.344-1.94-2.204-2.75-4.824-2.633-7.714.285-6.72 5.859-12.615 12.535-13.44 3.899-.477 7.301.573 9.938 3.603 1.8 2.063 2.633 4.536 2.508 7.257-.08 1.799-.364 3.582-.585 5.361-.316 2.533-.665 5.074-.997 7.586-.012.088-.032.18-.052.293h-5.238c.068-.581.132-1.15.208-1.72.381-2.92.802-5.854 1.134-8.78.209-1.823.077-3.634-.757-5.321-.89-1.791-2.372-2.745-4.332-2.95-4.047-.428-7.914 2.381-8.74 6.348-.569 2.633.329 5.154 2.425 6.556 2.04 1.359 4.203 1.363 6.431.485 1.13-.449 2.088-1.158 3.002-2.108M24.148 62.277c-1.816 1.35-3.567 2.653-5.322 3.963-.28-.445-.533-.894-.83-1.31-.765-1.066-1.71-1.864-3.09-1.956-1.145-.08-2.127.297-2.909 1.142-.693.754-.785 1.832-.136 2.685.718.938 1.503 1.827 2.304 2.701 1.335 1.443 2.725 2.825 4.044 4.288 1.198 1.318 2.16 2.793 2.456 4.616.353 2.144-.076 4.164-1.09 6.063-1.875 3.483-4.82 5.522-8.74 6.143-1.723.277-3.438.225-5.113-.272-2.232-.653-3.783-2.12-4.78-4.164-.353-.729-.626-1.502-.942-2.284 1.951-1.042 3.85-2.064 5.774-3.09.064.16.112.293.172.421.329.658.602 1.355 1.002 1.96 1.21 1.791 3.158 2.336 5.114 1.45a5.678 5.678 0 0 0 1.414-.917c1.27-1.13 1.51-2.705.57-4.124-.542-.817-1.215-1.55-1.876-2.28-1.575-1.751-3.218-3.442-4.74-5.237-1.063-1.23-1.784-2.657-2.013-4.288-.252-1.8.109-3.49 1.042-4.99 2.32-3.758 5.69-5.69 10.143-5.565 2.544.092 4.576 1.282 6.143 3.262.469.585.906 1.19 1.379 1.823m18.329 14.599c-.088-.461-.152-1.135-.357-1.768-.99-3.045-4.111-4.7-7.341-3.963-3.55.826-6.103 3.619-6.432 7.257-.272 2.681 1.17 5.278 3.851 6.228 2.16.781 4.248.452 6.183-.706 2.561-1.534 3.948-3.815 4.124-7.048zM26.868 88.252c-.176 1.31-.34 2.545-.504 3.783a553.527 553.527 0 0 0-.638 4.949c-.024.188-.084.277-.288.272-1.62-.004-3.242-.004-4.865-.008-.04 0-.076-.02-.164-.044.1-.773.196-1.554.296-2.328.357-2.72.714-5.442 1.078-8.167.417-3.113.742-6.223 1.275-9.317.937-5.486 5.606-10.186 11.048-11.38 3.161-.686 6.187-.369 8.948 1.414 2.753 1.771 4.328 4.372 4.7 7.586.513 4.576-1.174 8.371-4.412 11.545-2.135 2.068-4.7 3.378-7.63 3.823-3.037.457-5.894-.048-8.45-1.84-.093-.063-.197-.124-.357-.224m85.235 1.791c-2.253-.004-4.497-.012-6.765-.004-.296 0-.465-.084-.629-.336-2.665-4.06-5.362-8.123-8.002-12.166-.085-.128-.173-.253-.325-.47-.573 4.373-1.138 8.66-1.703 12.948H88.82c.068-.573.128-1.13.2-1.683.574-4.412 1.155-8.784 1.732-13.196.553-4.203 1.102-8.41 1.663-12.615.016-.124.1-.284.2-.348 2.032-1.327 4.067-2.637 6.103-3.947.028-.02.072-.02.176-.052-.613 4.7-1.226 9.36-1.839 14.017.024.016.048.036.072.052 3.198-3.538 6.392-7.093 9.65-10.68.092.546.176 1.01.256 1.475.229 1.335.45 2.673.694 4.004.048.268-.024.432-.205.625-2.064 2.16-4.12 4.328-6.183 6.512-.088.096-.176.196-.277.308.065.104.12.205.189.3 3.546 4.99 7.089 9.979 10.635 14.968.064.088.16.16.237.24v.08m6.612-.032V87.8h-.012l-.91 2.308h-.289l-.905-2.308h-.016v2.308h-.453v-2.765h.705l.826 2.104.813-2.104h.701v2.765zm-4.016-2.396v2.396h-.453v-2.396h-.87v-.369h2.193v.37h-.866"/></svg>
