<svg xmlns="http://www.w3.org/2000/svg" viewBox="0 0 128 128"><path fill="#e15919" d="M57.646.004c-2.269.064-4.51 1.143-6.384 3.223-1.03 1.146-1.905 2.51-2.63 3.855-1.89 3.54-2.262 7.547-2.962 11.43l-3.852 21.81c-.148.856-.532 1.21-1.3 1.455l-28.268 8.98c-2.06.673-4.125 1.543-5.947 2.7-5.558 3.53-6.38 9.338-2.207 14.438 1.842 2.256 4.216 3.843 6.85 4.996l17.603 7.843c.147.08.304.132.463.162l3.717 2.682s-3.7 40.948 3.246 43.781c-.061-.01-.41-.082-.41-.082s.704.761 2.603.537c1.454.27 1.262.226.074-.01 2.583-.334 7.337-2.497 15.578-10.784a47.396 47.396 0 0 0 1.776-1.676l17.8-19.217 4.163 1.465c.15.207.367.34.714.443l19.823 6.031c2.709.836 5.389 1.448 8.277 1.026 5.156-.755 8.951-5 8.9-10.192-.02-2.28-.82-4.339-1.87-6.324l-13.128-24.898c-.418-.787-.405-1.296.196-2l22.054-25.922c1.428-1.703 2.717-3.529 3.465-5.645 1.643-4.67-.482-8.382-5.33-9.289-2.229-.398-4.427-.188-6.6.385l-31.597 8.395c-.93.25-1.39.075-1.895-.772l-12.9-21.434c-.975-1.615-2.14-3.194-3.477-4.527C62.212.89 59.915-.059 57.646.004zm.944 19.736c.51.358.768.727 1.01 1.125l13.88 23.13c.382.628.725.85 1.485.648l24.443-6.497 5.885-1.54c-.087.493-.302.79-.537 1.068l-20.16 23.672c-.57.688-.623 1.17-.194 1.976l12.743 24.16.585 1.237-.015.02-22.727-6.264-.006-.018-4.298-1.205-25.493 28.256 4.663-37.15-4.184-1.82.008-.007-23.674-9.4c.454-.413.86-.585 1.285-.717l28.777-9.096c.676-.21 1.061-.47 1.125-1.242l.403-2.355 3.875-21.807 1.12-6.174z"/></svg>
