<svg xmlns="http://www.w3.org/2000/svg" viewBox="0 0 128 128"><path d="M72.74 98.459c-.023.003-.021.034-.02.063v23.13c.61.047 1.306.006 1.948.02V98.459Zm4.846 0c-.047.777-.006 1.642-.02 2.453h2.149V98.46zm-32.01 2.697c-.608.21-1.297.513-1.926.77v3.568h-1.054v1.643h1.054v10.826c0 1.222-.018 2.405.405 3.203.465.88 1.722.953 3 .871v-1.703c-.518.035-1.112-.027-1.317-.363-.194-.32-.162-.89-.162-1.461 0-3.768-.017-7.78.02-11.373h1.459v-1.643h-1.479zm62.277.223c-.046.108-.005.303-.019.445h.588v5.332c.13.045.344.01.508.022.013-1.778-.028-3.61.02-5.354h.587v-.445zm2.231 0c-.047 1.892-.006 3.873-.02 5.799h.426c.027-1.785-.055-3.667.04-5.373.247 1.745.403 3.585.609 5.373h.69c.182-1.645.387-3.417.546-5.069.01-.088-.02-.246.082-.304.047 1.743.006 3.574.02 5.351.11.044.3.01.445.022v-5.8h-.852c-.144 1.33-.26 2.7-.404 4.036-.047.437-.07.884-.184 1.297-.171-1.788-.383-3.536-.546-5.332zm-82.42 3.717a6.375 6.375 0 0 0-.293.013c-1.57.101-2.337.833-2.637 2.272-.266 1.277-.181 2.922-.181 4.662v4.846c0 1.593.049 3.26.69 4.156.55.77 1.624 1.058 2.816 1.014 1.165-.044 2.127-.449 2.554-1.3.625-1.242.466-2.816.508-4.642h-2.027c-.112 1.309.263 3.169-.407 3.953-.377.443-1.348.456-1.744 0-.433-.499-.404-1.635-.404-2.574v-2.98h4.582v-4.338c0-1.466-.022-2.844-.547-3.81-.486-.895-1.47-1.308-2.91-1.272zm10.586 0a4.247 4.247 0 0 0-.236.013c-1.021.084-1.617.713-2.069 1.338a24.673 24.673 0 0 0-.12-.953h-1.806v16.178h1.926v-11.11c0-1.15-.116-2.637.366-3.343.422-.619 1.617-.59 2.007.02.465.725.344 2.183.344 3.345v11.088h1.926v-12.063c0-2.372.032-4.572-2.338-4.513zm48.553 0a4.177 4.177 0 0 0-.235.013c-1.02.084-1.612.718-2.068 1.338a14.495 14.495 0 0 0-.121-.953h-1.805v16.178c.642-.014 1.337.028 1.946-.02v-11.515c0-1.208-.093-2.74.648-3.203.603-.378 1.459-.14 1.744.365.436.77.305 2.201.305 3.365v11.008h1.926V109.59c0-2.387.02-4.554-2.34-4.494zm-69.543.002a3.811 3.811 0 0 0-.25.011c-1.912.157-1.926 2.162-1.926 4.3v7.661c0 1.292.01 2.587.467 3.366.671 1.143 2.693 1.116 3.629.203.195-.191.317-.417.507-.649v2.96c0 1.177.07 2.443-.406 3.04-.416.523-1.534.509-1.885-.08-.409-.686-.228-1.834-.285-2.9h-2.027c-.034 1.57.04 2.838.527 3.73.507.928 1.55 1.293 3 1.258 1.39-.033 2.266-.551 2.657-1.601.374-1.006.384-2.36.384-3.874v-17.029H19.85c-.064.315-.1.657-.163.973-.492-.783-1.212-1.389-2.427-1.37zm34.886.011a6.53 6.53 0 0 0-.427.02c-.966.075-1.796.408-2.211 1.115-.465.79-.533 2.139-.588 3.305-.062 1.297 0 2.507 0 3.914 0 1.312-.028 2.479 0 3.89.026 1.322.106 2.55.527 3.387.397.789 1.204 1.196 2.211 1.297 1.084.109 2.18-.05 2.838-.629 1.195-1.053 1.014-3.72 1.014-6.02v-3.507c0-2.28.187-4.971-.953-6.063-.525-.502-1.423-.722-2.41-.709zm9.51 0a6.396 6.396 0 0 0-.531.02c-1.018.08-1.864.443-2.272 1.238-.418.818-.498 2.152-.527 3.344-.029 1.216 0 2.57 0 3.892 0 1.299-.047 2.504 0 3.874.068 1.963.22 3.54 1.461 4.195 1.298.685 3.394.47 4.236-.404.864-.897.893-2.755.893-4.541v-5.414c0-1.829.05-3.775-.527-4.907-.47-.92-1.514-1.293-2.733-1.297zm16.012.385c-.024.004-.023.032-.021.06.013 5.366-.026 10.786.021 16.118h1.906c.048-5.353.006-10.792.02-16.178zm14.455 0c-.024.004-.023.032-.021.06v12.024c0 2.201-.015 4.35 2.048 4.44 1.238.053 2.16-.548 2.575-1.319.05.328.089.667.162.973.595-.014 1.244.027 1.804-.02v-16.158h-1.966v11.07c0 1.159.112 2.598-.346 3.344-.248.404-.882.653-1.5.426-1.053-.386-.83-2.4-.83-3.83v-11.01zm8.574 0c-.034.008.004.026 0 .06.623 2.22 1.243 4.485 1.865 6.731.087.312.268.712.264.975-.004.292-.207.693-.304 1.033-.717 2.489-1.402 4.954-2.108 7.379h1.844c.52-2.23 1.03-4.471 1.582-6.67.51 2.24 1.05 4.45 1.582 6.67h2.088c-.704-2.423-1.385-4.887-2.088-7.338-.075-.262-.31-.8-.305-1.055.002-.122.096-.3.143-.466.691-2.472 1.345-4.917 2.027-7.319h-1.846c-.451 1.982-.881 3.985-1.357 5.942a601.24 601.24 0 0 0-1.379-5.942zm-82.37 1.244c.206-.005.476.017.63.094.752.377.73 1.666.73 2.818v7.076c0 1.213-.03 2.468-.689 2.839-.476.267-1.266.103-1.563-.305-.4-.553-.363-1.728-.363-2.838v-6.406c0-1.353-.116-3.097 1.075-3.264a1.593 1.593 0 0 1 .18-.014zm9.501.006c1.34-.021 1.266 1.567 1.266 2.948v3.183c-.845-.013-1.744.026-2.555-.021v-3.223c0-1.313-.018-2.775 1.156-2.879.046-.004.09-.007.133-.008zm24.483.014c1.25.04 1.172 1.688 1.172 3.076v7.217c0 1.17.056 2.595-.508 3.102-.351.315-1.302.36-1.682-.121-.46-.585-.365-1.93-.365-3.082v-6.854c0-1.427-.146-3.165 1.115-3.324a1.691 1.691 0 0 1 .268-.014zm9.404 0c1.243.038 1.174 1.657 1.174 3.055v7.217c0 1.15.067 2.616-.487 3.123-.294.27-1.067.355-1.48.08-.641-.427-.588-1.795-.588-2.96v-7.075c0-1.44-.17-3.263 1.115-3.426a1.69 1.69 0 0 1 .266-.014z"/><path fill="url(#a)" d="M21.194 71.464c.01-3.78 3.224-9.06 7.79-13.855 3.052-3.204 6.151-6.017 12.908-11.778-4.674-2.564-11.942-5.658-15.59-9.71-1.349-1.5-3.794-4.896-3.32-9.434.967-9.25 12.383-23.286 28.61-26.254 5.4-.987 11.599-.275 16.7 2.02 16.007 7.195 35.582 25.073 37.99 33.802.848 3.072.685 7.97-.776 10.7-1.812 3.382-8.082 10.253-16.661 17.343-13.46 11.125-32.323 23.07-46.408 25.08-4.55.65-9.2-.027-12.463-1.868-5.105-2.881-6.8-6.727-7.396-7.88-1.584-3.065-1.387-6.948-1.384-8.166zm37.884-42.476c.173-2.144 8.58-.01 8.048 1.688-.56 1.79-8.248.771-8.048-1.688z"/><path fill="url(#b)" d="M46.441 42.29c-4.423 3.734-7.364 6.252-11.051 9.622-8.88 8.115-14.912 14.293-11.802 22.737 3.588 9.74 11.453 9.247 20.677 7.436 23.774-4.689 62.854-34.733 60.862-45.83-1.611-8.98-23.445-26.832-36.373-33.184C64.716 1.086 60.061.059 55.393.279c-17.776.839-31.657 17.023-30.948 25.792.69 8.53 22.25 15.964 21.996 16.218Zm-2.668-29.782c-5.349 5.95-1.929 17.465 6.941 23.74 10.38 7.344 27.188 8.673 30.532 3.01 6.24-10.563-.573-21.733-10.741-26.715-10.048-4.923-23.398-3.745-26.732-.035Z"/><path fill="url(#c)" d="M62.014 35.999c7.51 1.043 13.982-1.964 14.994-9.379.77-5.648-7.874-11.82-13.07-13.243-4.341-1.188-13.763.34-14.399 8.549-.66 8.533 8.097 13.464 12.475 14.073zm-3.677-14.193c-4.935 7.646 7.165 9.996 9.018 8.602 7.986-6.011-6.844-11.97-9.018-8.602z"/><path fill="url(#d)" d="M53.96 2.31c-8.729.92-10.4 2.044-18.309 8.027-2.65 2.005-7.528 6.884-8.778 12.673-.476 2.204.087 4.107 1.674 5.442 5.084 4.274 13.593 7.742 20.574 11.094 2.044.982.69 2.762-2.607 5.616-8.32 7.203-19.569 15.971-20.354 22.652-.37 3.149.708 7.427 4.53 9.616 4.463 2.557 13.73.888 19.917-1.416 9.042-3.367 20.92-10.798 30.349-18.103 9.806-7.595 18.923-17.243 19.374-18.816.553-1.933.498-3.717-.57-5.77-1.679-3.222-3.923-5.616-6.332-8.296-6.464-6.815-13.304-12.803-21.487-17.392-5.91-3.314-11.11-6.05-17.98-5.327Zm12.823 15.28c6.306 3.049 12.783 11.057-.056 15.667-3.492 1.253-14.564-3.079-14.225-8.99.495-8.732 6.58-10.4 14.28-6.677z"/><defs><radialGradient id="c" cx="0" cy="0" r="1" gradientTransform="matrix(15.12035 0 0 11.58923 57.006 19.905)" gradientUnits="userSpaceOnUse"><stop offset="0%" stop-color="#fff"/><stop offset="34%" stop-color="#fff"/><stop offset="51%" stop-color="#bebbdb"/><stop offset="75%" stop-color="#928bbe"/><stop offset="87%" stop-color="#9f99c7"/><stop offset="100%" stop-color="#524c76"/></radialGradient><radialGradient id="d" cx="0" cy="0" r="1" gradientTransform="matrix(-2.07283 131.52301 -112.17196 -1.76613 22.605 23.614)" gradientUnits="userSpaceOnUse"><stop offset="0%" stop-color="#fff"/><stop offset="34%" stop-color="#fff"/><stop offset="51%" stop-color="#bebbdb"/><stop offset="75%" stop-color="#928bbe"/><stop offset="87%" stop-color="#9f99c7"/><stop offset="100%" stop-color="#524c76"/></radialGradient><linearGradient id="a" x1="0" x2="1" y1="0" y2="0" gradientTransform="rotate(79.19 127.766 -97.774) scale(299.92082)" gradientUnits="userSpaceOnUse"><stop offset="0%" stop-color="#fff"/><stop offset="34%" stop-color="#fff"/><stop offset="51%" stop-color="#bebdf3"/><stop offset="75%" stop-color="#867fb7"/><stop offset="87%" stop-color="#9f99c7"/><stop offset="100%" stop-color="#524c76"/></linearGradient><linearGradient id="b" x1="0" x2="1" y1="0" y2="0" gradientTransform="rotate(-102.573 65.064 2.252) scale(78.05154)" gradientUnits="userSpaceOnUse"><stop offset="0%" stop-color="#fff"/><stop offset="34%" stop-color="#fff"/><stop offset="51%" stop-color="#bebbdb"/><stop offset="75%" stop-color="#928bbe"/><stop offset="87%" stop-color="#9f99c7"/><stop offset="100%" stop-color="#524c76"/></linearGradient></defs></svg>
