<?xml version="1.0" encoding="UTF-8"?>
<svg xmlns="http://www.w3.org/2000/svg" xmlns:xlink="http://www.w3.org/1999/xlink" width="128px" height="128px" viewBox="0 0 128 128" version="1.1">
<g id="surface1">
<path style="fill-rule:nonzero;fill:rgb(60%,56.862745%,85.098039%);fill-opacity:1;stroke-width:0.403175;stroke-linecap:butt;stroke-linejoin:miter;stroke:rgb(60%,56.862745%,85.098039%);stroke-opacity:1;stroke-miterlimit:4;" d="M 219.706119 24.558498 C 183.745621 24.042489 143.283387 38.793233 110.721431 64.575896 C 76.344547 91.782033 52.430193 128.596615 49.19179 159.272469 C 48.124185 169.379131 50.241602 179.770487 55.508454 190.393158 C 59.013757 197.474938 62.536854 202.296955 68.782344 208.542444 C 80.348066 220.108166 92.607731 227.919477 127.447245 245.837449 C 140.187332 252.385427 144.386579 254.627398 144.386579 254.894299 C 144.386579 254.94768 142.162402 256.887162 139.440009 259.182513 C 111.895797 282.509685 87.465434 305.214087 74.8499 319.217507 C 56.558266 339.502004 43.924939 360.907486 40.971231 376.601281 C 40.241701 380.39128 40.134941 395.408925 40.793297 401.36972 C 41.825315 410.889199 43.978319 418.255674 48.070805 426.316093 C 53.070756 436.173646 57.910566 442.775005 65.437182 450.052513 C 80.899662 465.016778 98.426179 472.667948 121.611003 474.589637 C 125.632316 474.927712 140.667755 474.447289 145.187283 473.842313 C 171.77065 470.283629 203.78101 459.19833 239.527987 441.155804 C 310.666074 405.266479 394.384108 342.206604 442.924553 287.972264 C 452.355065 277.420767 461.607643 265.018755 464.419003 259.129133 C 468.297968 250.961954 470.148484 240.99764 470.148484 228.026238 C 470.148484 216.335962 468.653836 207.795121 465.148533 199.645735 C 449.081076 162.261763 384.722282 100.483014 319.758511 60.091955 C 304.029129 50.323368 282.69482 39.113514 271.253652 34.629573 C 257.179058 29.113613 243.282399 26.053145 226.84128 24.860986 C 224.474755 24.683052 222.108231 24.576291 219.706119 24.558498 Z M 218.336026 25.572723 C 224.118887 25.572723 229.830574 25.804037 233.691746 26.28446 C 252.179108 28.52643 267.23234 33.25948 284.491956 42.209569 C 326.982639 64.273408 383.031907 106.532777 420.113391 144.450551 C 445.842674 170.784811 460.860319 193.240105 462.42614 207.795121 C 464.009754 222.439104 453.618398 242.545667 431.305451 268.008049 C 425.344656 274.805135 405.754102 294.271134 397.373402 301.69099 C 337.000333 355.249179 259.225302 403.184649 195.382516 426.173745 C 173.994827 433.878295 152.553758 438.931626 129.86715 441.582846 C 123.283585 442.347963 108.390494 442.686038 103.657444 442.152235 C 94.742942 441.173597 88.355104 439.412049 81.682573 436.13806 C 73.088351 431.885433 66.4692 426.013604 60.89986 417.704078 C 54.903478 408.736195 50.615264 398.238078 48.569021 387.562027 C 47.537003 382.099448 47.62597 372.722316 48.764748 366.903868 C 51.380381 353.629978 58.24864 340.765337 70.73962 325.729898 C 84.63628 309.004085 114.653777 281.068418 161.041219 241.72717 L 166.592765 237.011914 L 165.062531 236.229004 C 164.226241 235.801961 159.90244 233.898066 155.471879 232.011963 C 114.653777 214.627794 87.536607 198.684891 71.36239 182.564054 C 64.084882 175.304339 59.49418 168.382699 57.305589 161.372092 C 54.796717 153.29388 56.344745 140.482619 61.362489 127.831499 C 70.205818 105.500758 90.543695 80.607766 114.920678 62.227165 C 141.681979 42.067222 171.521542 29.82535 202.642231 26.266666 C 206.734717 25.804037 212.570958 25.572723 218.336026 25.572723 Z M 212.962414 35.768352 C 208.193778 35.910699 203.140447 36.319948 197.660074 36.996097 C 169.920134 40.412434 156.610658 45.216657 136.575268 59.07773 C 129.173206 64.202234 111.344201 77.636265 107.287302 81.159362 C 90.686042 95.572031 77.109664 114.522022 71.344596 131.336802 C 67.714739 141.959473 67.127556 149.201394 69.405114 155.962893 C 71.664878 162.688805 75.988679 167.19054 88.550832 175.784761 C 103.461717 186.015977 120.650159 195.03724 161.183566 213.93385 C 182.268767 223.755817 184.26163 224.876803 185.151301 227.20774 C 186.218906 230.019101 184.99116 233.435437 181.201162 238.168486 C 177.464544 242.830362 172.767081 247.136369 151.6285 265.250069 C 121.806731 290.819211 110.845985 300.730145 99.031155 312.82967 C 78.622105 333.719143 67.999434 349.7866 65.526149 363.558706 C 63.497699 374.839733 66.4692 389.216815 72.839244 399.127749 C 80.703935 411.316241 92.358624 417.864219 109.315751 419.554594 C 131.717665 421.796564 165.400606 415.533281 194.77754 403.665071 C 247.748547 382.277382 321.786961 334.057218 376.199234 285.516773 C 402.337766 262.207394 431.376625 232.136517 436.892585 222.688212 C 438.493992 219.930232 439.632771 213.346667 439.383663 208.133196 C 439.063382 201.353903 437.408594 196.300573 432.995826 188.649403 C 425.718318 175.980489 415.273581 163.08026 396.483731 143.525294 C 372.071161 118.134085 344.989578 95.091609 319.367056 77.903166 C 297.94378 63.561671 269.812386 48.508439 253.086572 42.458677 C 239.207706 37.458726 227.303909 35.359103 212.962414 35.768352 Z M 235.364327 103.365548 C 239.011978 103.418928 242.81977 103.79259 245.986998 104.450947 C 273.815905 110.233808 299.278286 129.219385 305.310255 148.667591 C 306.698142 153.169326 306.626968 159.824065 305.167908 163.934344 C 304.580725 165.553546 303.495327 167.902277 302.765796 169.16561 C 300.75514 172.581946 294.40289 178.809642 289.936742 181.727763 C 282.249985 186.7633 270.737643 191.816631 265.20389 192.581748 C 263.477929 192.830856 261.574033 192.990997 260.969057 192.973203 C 243.033291 192.083532 221.076212 182.59964 208.585233 170.375562 C 200.240119 162.190589 196.823783 154.610593 197.375379 145.48257 C 198.798853 122.297745 208.72758 107.760523 225.631328 104.095078 C 228.19358 103.525689 231.698883 103.294374 235.364327 103.365548 Z M 239.261086 129.361732 C 233.976441 129.468493 229.777194 130.838586 227.535223 133.560979 C 226.16513 135.233561 223.371563 140.69614 222.428512 143.543087 C 220.044194 150.802802 221.058419 157.439747 225.4356 163.258195 C 226.556585 164.752842 228.19358 166.532184 229.065457 167.226127 L 230.666865 168.48946 L 231.894611 167.457441 C 233.620572 166.016174 235.702402 165.553546 240.542212 165.571339 C 244.883806 165.589132 248.513664 166.033968 252.641737 167.048193 C 261.912108 169.379131 268.780367 172.75988 270.66647 175.944902 C 271.378206 177.137061 271.556141 177.226028 272.321258 176.816779 C 272.80168 176.567672 274.758956 174.806123 276.662852 172.902227 C 280.524023 169.023262 282.765994 165.16209 283.495524 161.069604 C 285.114725 152.190688 277.000927 141.923886 263.157647 135.340321 C 254.6346 131.265628 246.040378 129.254972 239.261086 129.361732 Z M 239.261086 129.361732 " transform="matrix(0.219533,0,0,0.219533,9.274977,-1.766411)"/>
<path style=" stroke:none;fill-rule:evenodd;fill:rgb(0%,0%,0%);fill-opacity:1;" d="M 69.453125 102.332031 L 70.980469 102.332031 L 70.980469 120.734375 C 70.46875 120.722656 69.917969 120.753906 69.4375 120.714844 L 69.4375 102.382812 C 69.433594 102.359375 69.433594 102.335938 69.453125 102.332031 "/>
<path style=" stroke:none;fill-rule:evenodd;fill:rgb(0%,0%,0%);fill-opacity:1;" d="M 73.292969 102.332031 L 74.980469 102.332031 L 74.980469 104.277344 L 73.277344 104.277344 C 73.289062 103.636719 73.253906 102.949219 73.292969 102.332031 "/>
<path style=" stroke:none;fill-rule:evenodd;fill:rgb(0%,0%,0%);fill-opacity:1;" d="M 47.917969 107.910156 L 49.09375 107.910156 L 49.09375 109.210938 L 47.9375 109.210938 C 47.90625 112.058594 47.921875 115.238281 47.917969 118.226562 C 47.917969 118.679688 47.894531 119.128906 48.046875 119.382812 C 48.210938 119.648438 48.683594 119.699219 49.09375 119.671875 L 49.09375 121.023438 C 48.082031 121.085938 47.082031 121.027344 46.714844 120.332031 C 46.378906 119.699219 46.394531 118.761719 46.394531 117.792969 L 46.394531 109.210938 L 45.558594 109.210938 L 45.558594 107.910156 L 46.394531 107.910156 L 46.394531 105.082031 C 46.890625 104.878906 47.4375 104.636719 47.917969 104.472656 Z M 47.917969 107.910156 "/>
<path style=" stroke:none;fill-rule:evenodd;fill:rgb(0%,0%,0%);fill-opacity:1;" d="M 97.285156 104.648438 L 98.617188 104.648438 L 98.617188 105 L 98.152344 105 C 98.113281 106.382812 98.148438 107.835938 98.136719 109.242188 C 98.007812 109.234375 97.835938 109.261719 97.734375 109.226562 L 97.734375 105 L 97.269531 105 C 97.277344 104.886719 97.246094 104.734375 97.285156 104.648438 "/>
<path style=" stroke:none;fill-rule:evenodd;fill:rgb(0%,0%,0%);fill-opacity:1;" d="M 99.050781 104.648438 L 99.726562 104.648438 C 99.855469 106.070312 100.023438 107.457031 100.160156 108.875 C 100.25 108.546875 100.269531 108.191406 100.304688 107.84375 C 100.417969 106.785156 100.511719 105.703125 100.625 104.648438 L 101.300781 104.648438 L 101.300781 109.242188 C 101.1875 109.234375 101.035156 109.261719 100.949219 109.226562 C 100.9375 107.816406 100.96875 106.367188 100.933594 104.984375 C 100.851562 105.03125 100.875 105.15625 100.867188 105.226562 C 100.742188 106.535156 100.578125 107.941406 100.433594 109.242188 L 99.886719 109.242188 C 99.722656 107.828125 99.601562 106.367188 99.40625 104.984375 C 99.332031 106.335938 99.394531 107.828125 99.375 109.242188 L 99.035156 109.242188 C 99.046875 107.714844 99.015625 106.148438 99.050781 104.648438 "/>
<path style=" stroke:none;fill-rule:evenodd;fill:rgb(0%,0%,0%);fill-opacity:1;" d="M 25.328125 111.492188 L 25.328125 116.570312 C 25.328125 117.449219 25.296875 118.382812 25.617188 118.820312 C 25.851562 119.144531 26.476562 119.273438 26.851562 119.0625 C 27.375 118.769531 27.398438 117.773438 27.398438 116.8125 L 27.398438 111.203125 C 27.398438 110.289062 27.417969 109.269531 26.820312 108.96875 C 26.65625 108.886719 26.332031 108.882812 26.179688 108.90625 C 25.234375 109.039062 25.328125 110.421875 25.328125 111.492188 M 27.398438 108.679688 C 27.449219 108.429688 27.476562 108.160156 27.527344 107.910156 L 28.957031 107.910156 L 28.957031 121.40625 C 28.957031 122.605469 28.949219 123.679688 28.652344 124.476562 C 28.34375 125.308594 27.648438 125.71875 26.546875 125.746094 C 25.398438 125.773438 24.570312 125.484375 24.167969 124.75 C 23.785156 124.042969 23.726562 123.039062 23.75 121.792969 L 25.359375 121.792969 C 25.402344 122.636719 25.257812 123.546875 25.582031 124.089844 C 25.863281 124.558594 26.75 124.570312 27.078125 124.15625 C 27.453125 123.683594 27.398438 122.679688 27.398438 121.746094 L 27.398438 119.398438 C 27.25 119.582031 27.152344 119.761719 26.996094 119.914062 C 26.257812 120.636719 24.652344 120.660156 24.121094 119.753906 C 23.757812 119.136719 23.75 118.109375 23.75 117.085938 L 23.75 111.011719 C 23.75 109.316406 23.761719 107.726562 25.277344 107.605469 C 26.363281 107.515625 26.984375 108.019531 27.398438 108.679688 "/>
<path style=" stroke:none;fill-rule:evenodd;fill:rgb(0%,0%,0%);fill-opacity:1;" d="M 34.855469 111.234375 C 34.855469 110.105469 34.917969 108.800781 33.746094 108.90625 C 32.816406 108.988281 32.832031 110.144531 32.832031 111.1875 L 32.832031 113.742188 C 33.472656 113.78125 34.1875 113.75 34.855469 113.757812 Z M 36.460938 115.058594 L 32.832031 115.058594 L 32.832031 117.421875 C 32.832031 118.167969 32.808594 119.066406 33.152344 119.464844 C 33.464844 119.824219 34.234375 119.8125 34.535156 119.464844 C 35.066406 118.839844 34.765625 117.367188 34.855469 116.328125 L 36.460938 116.328125 C 36.429688 117.777344 36.554688 119.023438 36.0625 120.007812 C 35.722656 120.683594 34.960938 121.003906 34.035156 121.039062 C 33.089844 121.074219 32.238281 120.84375 31.800781 120.234375 C 31.296875 119.523438 31.257812 118.203125 31.257812 116.941406 L 31.257812 113.101562 C 31.257812 111.71875 31.191406 110.417969 31.402344 109.402344 C 31.636719 108.261719 32.246094 107.683594 33.488281 107.605469 C 34.757812 107.523438 35.617188 107.84375 36.027344 108.601562 C 36.445312 109.367188 36.460938 110.460938 36.460938 111.621094 Z M 36.460938 115.058594 "/>
<path style=" stroke:none;fill-rule:evenodd;fill:rgb(0%,0%,0%);fill-opacity:1;" d="M 43.96875 120.734375 L 42.441406 120.734375 L 42.441406 111.941406 C 42.441406 111.023438 42.535156 109.867188 42.167969 109.292969 C 41.859375 108.808594 40.910156 108.785156 40.578125 109.277344 C 40.195312 109.835938 40.285156 111.015625 40.285156 111.925781 L 40.285156 120.734375 L 38.761719 120.734375 L 38.761719 107.910156 L 40.191406 107.910156 C 40.226562 108.15625 40.257812 108.410156 40.285156 108.664062 C 40.644531 108.167969 41.117188 107.671875 41.925781 107.605469 C 43.992188 107.433594 43.96875 109.230469 43.96875 111.171875 Z M 43.96875 120.734375 "/>
<path style=" stroke:none;fill-rule:evenodd;fill:rgb(0%,0%,0%);fill-opacity:1;" d="M 52.160156 111.558594 C 52.160156 113.234375 52.160156 115.316406 52.160156 116.988281 C 52.160156 117.902344 52.085938 118.96875 52.453125 119.429688 C 52.753906 119.8125 53.507812 119.777344 53.785156 119.527344 C 54.230469 119.125 54.1875 117.996094 54.1875 117.070312 C 54.1875 115.117188 54.1875 113.367188 54.1875 111.347656 C 54.1875 110.175781 54.257812 108.769531 53.046875 108.921875 C 52.046875 109.046875 52.160156 110.425781 52.160156 111.558594 M 52.789062 107.621094 C 53.703125 107.550781 54.5625 107.710938 55.039062 108.167969 C 55.941406 109.03125 55.792969 111.164062 55.792969 112.972656 C 55.792969 113.917969 55.792969 114.863281 55.792969 115.75 C 55.792969 117.574219 55.9375 119.6875 54.988281 120.523438 C 54.46875 120.984375 53.601562 121.109375 52.742188 121.023438 C 51.941406 120.941406 51.304688 120.617188 50.988281 119.992188 C 50.65625 119.328125 50.59375 118.355469 50.570312 117.308594 C 50.550781 116.191406 50.570312 115.265625 50.570312 114.226562 C 50.570312 113.109375 50.523438 112.152344 50.570312 111.125 C 50.613281 110.199219 50.667969 109.128906 51.039062 108.503906 C 51.367188 107.945312 52.023438 107.679688 52.789062 107.621094 "/>
<path style=" stroke:none;fill-rule:evenodd;fill:rgb(0%,0%,0%);fill-opacity:1;" d="M 59.617188 111.636719 L 59.617188 117.246094 C 59.617188 118.167969 59.574219 119.253906 60.085938 119.59375 C 60.410156 119.808594 61.023438 119.742188 61.257812 119.527344 C 61.695312 119.125 61.644531 117.964844 61.644531 117.054688 C 61.644531 115.132812 61.644531 113.328125 61.644531 111.332031 C 61.644531 110.152344 61.707031 108.769531 60.5 108.921875 C 59.484375 109.050781 59.617188 110.496094 59.617188 111.636719 M 60.246094 107.621094 C 61.386719 107.53125 62.40625 107.796875 62.832031 108.632812 C 63.289062 109.53125 63.25 111.074219 63.25 112.523438 C 63.25 113.996094 63.25 115.367188 63.25 116.8125 C 63.25 118.226562 63.226562 119.699219 62.542969 120.410156 C 61.875 121.105469 60.214844 121.277344 59.183594 120.734375 C 58.199219 120.214844 58.082031 118.960938 58.027344 117.40625 C 57.988281 116.320312 58.027344 115.367188 58.027344 114.335938 C 58.027344 113.289062 58.003906 112.214844 58.027344 111.253906 C 58.050781 110.308594 58.113281 109.25 58.445312 108.601562 C 58.769531 107.96875 59.4375 107.683594 60.246094 107.621094 "/>
<path style=" stroke:none;fill-rule:evenodd;fill:rgb(0%,0%,0%);fill-opacity:1;" d="M 82.453125 120.734375 L 80.925781 120.734375 C 80.925781 117.910156 80.925781 114.9375 80.925781 112.007812 C 80.925781 111.085938 81.03125 109.949219 80.683594 109.339844 C 80.460938 108.941406 79.78125 108.75 79.300781 109.050781 C 78.714844 109.417969 78.789062 110.632812 78.789062 111.589844 L 78.789062 120.714844 C 78.304688 120.753906 77.753906 120.722656 77.246094 120.734375 L 77.246094 107.910156 L 78.675781 107.910156 C 78.71875 108.152344 78.746094 108.40625 78.773438 108.664062 C 79.132812 108.171875 79.601562 107.671875 80.410156 107.605469 C 82.46875 107.4375 82.453125 109.203125 82.453125 111.15625 C 82.453125 114.296875 82.453125 117.789062 82.453125 120.734375 "/>
<path style=" stroke:none;fill-rule:evenodd;fill:rgb(0%,0%,0%);fill-opacity:1;" d="M 73.355469 107.910156 L 74.882812 107.910156 C 74.875 112.179688 74.90625 116.492188 74.867188 120.734375 L 73.355469 120.734375 C 73.320312 116.507812 73.351562 112.210938 73.339844 107.957031 C 73.339844 107.933594 73.339844 107.914062 73.355469 107.910156 "/>
<path style=" stroke:none;fill-rule:evenodd;fill:rgb(0%,0%,0%);fill-opacity:1;" d="M 84.816406 107.910156 L 86.339844 107.910156 C 86.339844 110.664062 86.339844 113.714844 86.339844 116.636719 C 86.339844 117.769531 86.164062 119.367188 87 119.671875 C 87.488281 119.851562 87.992188 119.65625 88.1875 119.335938 C 88.550781 118.742188 88.460938 117.601562 88.460938 116.683594 C 88.460938 113.757812 88.460938 110.757812 88.460938 107.910156 L 90.019531 107.910156 L 90.019531 120.714844 C 89.578125 120.753906 89.0625 120.722656 88.589844 120.734375 C 88.53125 120.492188 88.503906 120.222656 88.460938 119.960938 C 88.132812 120.574219 87.402344 121.046875 86.421875 121.007812 C 84.785156 120.933594 84.796875 119.230469 84.796875 117.488281 C 84.800781 114.324219 84.796875 111.027344 84.796875 107.957031 C 84.796875 107.933594 84.796875 107.914062 84.816406 107.910156 "/>
<path style=" stroke:none;fill-rule:evenodd;fill:rgb(0%,0%,0%);fill-opacity:1;" d="M 91.613281 107.910156 L 93.203125 107.910156 C 93.574219 109.472656 93.9375 111.042969 94.296875 112.617188 C 94.671875 111.066406 95.015625 109.480469 95.371094 107.910156 L 96.835938 107.910156 C 96.292969 109.8125 95.773438 111.75 95.226562 113.710938 C 95.191406 113.84375 95.117188 113.984375 95.113281 114.082031 C 95.109375 114.28125 95.296875 114.707031 95.355469 114.914062 C 95.914062 116.859375 96.453125 118.8125 97.011719 120.734375 L 95.355469 120.734375 C 94.933594 118.972656 94.507812 117.222656 94.101562 115.445312 C 93.664062 117.1875 93.261719 118.964844 92.847656 120.734375 L 91.386719 120.734375 C 91.945312 118.8125 92.488281 116.855469 93.058594 114.882812 C 93.136719 114.613281 93.296875 114.296875 93.300781 114.0625 C 93.300781 113.855469 93.160156 113.539062 93.089844 113.292969 C 92.597656 111.511719 92.105469 109.714844 91.613281 107.957031 C 91.613281 107.929688 91.585938 107.917969 91.613281 107.910156 "/>
</g>
</svg>
