<svg xmlns="http://www.w3.org/2000/svg" viewBox="0 0 128 128"><g fill="#557ebf"><path d="M68.7 37.9h1.1l3.1-3.1.2-1.3c-2.4-2.2-5.7-3.5-9.3-3.5-6.4 0-11.9 4.4-13.5 10.3.3-.2 1.1-.1 1.1-.1l6.2-1s.3-.5.5-.5c2.8-3 7.4-3.3 10.6-.8z"/><path d="M77.4 40.3c-.8-2.6-2.2-5-4.3-6.8l-4.4 4.4c1.9 1.5 2.9 3.7 2.9 6.1v.8c2.1 0 3.9 1.7 3.9 3.9 0 2.1-1.7 3.8-3.9 3.8h-7.8l-.8.8V58l.8.8h7.8c5.6 0 10.1-4.5 10.1-10.1 0-3.4-1.7-6.5-4.4-8.3z"/><path d="M56.1 58.7h7.8v-6.2h-7.8c-.6 0-1.1-.1-1.6-.3l-1.1.3-3.1 3.1-.3 1c1.7 1.4 3.9 2.1 6.1 2.1z"/><path d="M56.1 38.5C50.5 38.5 46 43 46 48.6c0 3.2 1.5 6.2 4 8.1l4.5-4.5c-1.4-.7-2.3-2-2.3-3.6 0-2.1 1.7-3.9 3.9-3.9 1.5.1 2.9 1 3.5 2.3l4.5-4.5c-1.8-2.4-4.8-4-8-4zM15.9 78.3c-2.1 0-3.9-.8-5.5-2.3s-2.3-3.2-2.3-5.4.8-3.9 2.3-5.4 3.4-2.3 5.5-2.3c1.9.1 3.8.8 5.2 2.2l-1.5 1.5c-1-1-2.3-1.5-3.8-1.5s-2.8.5-3.9 1.6c-1 1-1.6 2.5-1.5 3.9 0 1.5.5 2.9 1.6 3.9 1 1.2 2.4 1.7 3.8 1.7 1.6 0 2.8-.5 3.9-1.5.6-.6 1-1.5 1.1-2.6h-4.9V70h7c.1.4.1.8.1 1.3 0 2.1-.6 3.7-1.8 4.9-1.4 1.4-3.1 2.2-5.3 2.2zm16.4-1.4c-1 .9-2.1 1.4-3.5 1.4s-2.6-.5-3.5-1.4-1.4-2.1-1.4-3.5.5-2.6 1.4-3.5 2.1-1.4 3.5-1.4 2.6.5 3.5 1.4 1.4 2.1 1.4 3.5-.5 2.6-1.4 3.5zm-5.5-1.4c.5.6 1.2.9 1.9.9.8 0 1.4-.3 2-.9s.8-1.3.8-2.1c0-.9-.3-1.6-.8-2.2s-1.2-.8-2-.8c-.7 0-1.5.3-2 .8-.5.6-.8 1.3-.8 2.2 0 .9.3 1.6.8 2.1zm16.3 1.4c-1 .9-2.1 1.4-3.5 1.4s-2.6-.5-3.5-1.4-1.4-2.1-1.4-3.5.5-2.6 1.4-3.5 2.1-1.4 3.5-1.4 2.6.5 3.5 1.4 1.4 2.1 1.4 3.5-.5 2.6-1.4 3.5zm-5.5-1.4c.5.6 1.2.9 1.9.9.8 0 1.4-.3 2-.9s.8-1.3.8-2.1c0-.9-.3-1.6-.8-2.2s-1.2-.8-2-.8c-.7 0-1.5.3-2 .8-.5.6-.8 1.3-.8 2.2 0 .9.3 1.6.8 2.1zm12.6 7.2c-1.1 0-2-.3-2.8-.9s-1.3-1.3-1.6-2l1.9-.8c.2.5.5.9.9 1.2s.9.5 1.6.5c.8 0 1.5-.3 1.9-.7s.7-1.2.7-2.2v-.7h-.1c-.6.7-1.5 1.1-2.6 1.1-1.3 0-2.4-.5-3.3-1.4-1-.8-1.5-2.1-1.4-3.4-.1-1.3.4-2.6 1.4-3.5.9-1 2-1.4 3.3-1.4.6 0 1.1.1 1.5.3s.8.5 1.1.8h.1v-.8h2.1v8.9c0 1.7-.4 3-1.3 3.9-.9.8-2 1.3-3.4 1.3zm.1-6.4c.7.1 1.4-.2 1.8-.8.5-.6.8-1.3.8-2.1 0-.9-.3-1.6-.8-2.2-.4-.5-1.1-.8-1.8-.8-.8 0-1.4.3-1.9.9s-.8 1.3-.8 2.2c0 .8.3 1.6.8 2.1s1.2.9 1.9.9zm8.2-12.9v14.5h-2.2V63.4zm5.9 14.8c-1.4 0-2.6-.5-3.5-1.4s-1.4-2.1-1.4-3.5.5-2.6 1.4-3.6c.8-.8 2-1.3 3.3-1.3.6 0 1.2.1 1.7.3.4.3.8.5 1.2.9.3.3.6.6.8 1 .2.3.4.6.5 1l.2.6-6.6 2.7c.5 1 1.3 1.5 2.4 1.5 1 0 1.8-.5 2.4-1.4l1.7 1.1c-.4.6-.9 1.1-1.6 1.5s-1.5.7-2.5.7zm-2.7-5.1l4.4-1.8c-.1-.3-.4-.6-.7-.8-.4-.1-.8-.2-1.2-.2-.6 0-1.2.3-1.8.8s-.8 1.2-.8 2.1zM80 78.2c-2 0-3.6-.7-5-2s-2-3-2-5 .7-3.7 2-5 3-2 5-2 3.7.7 4.9 2.2l-1.2 1.2c-.9-1.1-2.2-1.7-3.7-1.7s-2.7.5-3.7 1.5-1.5 2.3-1.5 3.9.5 2.9 1.5 3.9 2.2 1.5 3.7 1.5c1.6 0 3-.6 4.1-1.9l1.2 1.2c-.6.7-1.4 1.3-2.3 1.7-1 .4-2 .6-3 .6zm8.6-.3h-1.7V64.6h1.7zm2.8-8.1c.9-.9 2-1.4 3.4-1.4s2.5.5 3.4 1.4 1.3 2.1 1.3 3.5-.4 2.6-1.3 3.5-2 1.4-3.4 1.4-2.5-.5-3.4-1.4-1.3-2.1-1.3-3.5.4-2.6 1.3-3.5zm1.3 5.9c.6.6 1.3.9 2.1.9s1.5-.3 2.1-.9.9-1.4.9-2.4-.3-1.8-.9-2.4-1.3-.9-2.1-.9-1.5.3-2.1.9-.9 1.4-.9 2.4.3 1.8.9 2.4zm16.3 2.2h-1.6v-1.3h-.1c-.3.4-.7.8-1.2 1.1s-1.1.5-1.7.5c-1.1 0-2-.3-2.6-1s-.9-1.6-.9-2.8v-5.6h1.7v5.3c0 1.7.8 2.6 2.3 2.6.6 0 1.3-.3 1.7-.8.4-.6.6-1.3.6-2v-5h1.7v9.2zm5.8.3c-1.2 0-2.2-.5-3.1-1.4s-1.3-2.1-1.3-3.5.4-2.5 1.3-3.5 1.9-1.4 3.1-1.4c.7 0 1.3.2 1.9.4s1 .7 1.2 1.1h.1l-.1-1.3v-4.2h1.7v13.4H118v-1.3h-.1c-.3.4-.7.8-1.2 1.1-.6.3-1.2.4-1.9.4zm.3-1.6c.7.1 1.5-.2 2-.8.6-.6.8-1.4.8-2.4s-.3-1.8-.8-2.4c-.5-.5-1.3-.9-2-.9-.8 0-1.5.3-2.1.9s-.9 1.4-.9 2.4.3 1.8.9 2.4c.5.6 1.3 1 2.1 1z"/></g></svg>