<?xml version="1.0" encoding="UTF-8"?>
<svg version="1.1" xmlns="http://www.w3.org/2000/svg" width="128" height="128">
<path d="M0 0 C13.93112914 10.27672554 23.92685708 24.81799369 27 42 C27.30918656 45.42186931 27.36990446 48.81560289 27.375 52.25 C27.39949219 53.13429687 27.42398438 54.01859375 27.44921875 54.9296875 C27.47810359 61.30360858 27.47810359 61.30360858 25.24609375 64.5546875 C22.89099839 66.07014017 21.45823748 66.62893095 18.6875 66.875 C17.96949219 66.95492187 17.25148438 67.03484375 16.51171875 67.1171875 C13.15409916 66.9605334 10.1945501 66.00389029 7 65 C7.02094727 64.39115967 7.04189453 63.78231934 7.06347656 63.1550293 C7.9315278 47.03227983 7.9315278 47.03227983 3 32 C2.2884375 30.71802734 2.2884375 30.71802734 1.5625 29.41015625 C-4.57895688 19.59268312 -13.27799269 14.04298185 -24.17578125 10.59375 C-27.19167447 9.95970329 -29.92690187 9.89105708 -33 10 C-33 10.99 -33 11.98 -33 13 C-32.17757812 13.21914063 -31.35515625 13.43828125 -30.5078125 13.6640625 C-19.26404423 16.85801977 -9.70396429 21.03787495 -3 31 C2.54799577 41.26018958 4.94702918 51.09166018 1.5625 62.5 C0.81849518 64.77155096 0.06853347 66.86293305 -1 69 C-6.50904231 69.3372883 -10.06042767 68.42318642 -15 66 C-15.804375 65.608125 -16.60875 65.21625 -17.4375 64.8125 C-17.953125 64.544375 -18.46875 64.27625 -19 64 C-18.47731534 61.23723823 -17.89130413 58.6739124 -17 56 C-16.46096847 49.63942789 -17.36636515 45.30888209 -21 40 C-24.55943344 36.53183408 -28.11386939 34.49856383 -33.03515625 33.6484375 C-39.86460065 32.45357759 -45.11795449 29.85661003 -49.3515625 24.19140625 C-52.60887376 18.7430259 -53.51679896 14.30494729 -53 8 C-51.00157261 0.80820717 -47.10898244 -3.8164167 -41 -8 C-28.16296798 -14.15107784 -11.00353929 -7.20277694 0 0 Z " fill="#E53633" transform="translate(67,44)"/>
<path d="M0 0 C10.47721058 3.90596627 19.60191697 9.3247318 27.97509766 16.73632812 C29.42722656 17.89261719 29.42722656 17.89261719 30.90869141 19.07226562 C44.08221544 30.04534483 51.79952778 46.4735823 55.97509766 62.73632812 C56.22001953 63.46335937 56.46494141 64.19039063 56.71728516 64.93945312 C57.22509766 66.86132812 57.22509766 66.86132812 56.97509766 70.73632812 C54.44855272 75.05008342 51.52190736 79.18951842 47.97509766 82.73632812 C46.45581728 82.80812776 44.93342284 82.8202482 43.41259766 82.79882812 C42.17316406 82.78529297 42.17316406 82.78529297 40.90869141 82.77148438 C39.9515625 82.75408203 39.9515625 82.75408203 38.97509766 82.73632812 C38.82814453 81.53878906 38.68119141 80.34125 38.52978516 79.10742188 C35.92051158 59.52675389 29.55017244 42.85951278 13.97509766 29.73632812 C0.4539052 19.72604808 -13.70650072 16.07463567 -30.02490234 13.73632812 C-30.76359885 10.51292519 -30.91387855 7.94158121 -30.02490234 4.73632812 C-20.79029897 -5.23507871 -12.01237141 -4.09477937 0 0 Z " fill="#E53632" transform="translate(61.02490234375,14.263671875)"/>
<path d="M0 0 C1.32 0.66 2.64 1.32 4 2 C4 6.74340704 2.82348464 7.35074611 -0.20703125 10.68359375 C-10.82366435 24.39963608 -12.48028723 40.27396768 -11 57 C-8.80533687 70.06267929 -1.39550021 82.7744343 9 91 C24.11009792 101.16667082 40.49066815 106.10890725 58.73828125 102.78515625 C67.85701626 100.59010746 75.52296469 97.14856518 82.9765625 91.453125 C85 90 85 90 88 89 C88 88.34 88 87.68 88 87 C89.98 87.99 89.98 87.99 92 89 C92 93 92 93 90.33984375 94.89453125 C76.30863199 106.09668568 59.23161667 112.69188169 41.0625 111.25439453 C24.35859917 109.19408858 10.85658964 101.81527748 -1 90 C-1.63679688 89.38640625 -2.27359375 88.7728125 -2.9296875 88.140625 C-13.56656191 77.07827561 -19.01253924 60.57983445 -19.5 45.5 C-18.93700418 28.61012538 -12.16555634 11.89943479 0 0 Z " fill="#E53F3B" transform="translate(23,13)"/>
<path d="M0 0 C16.71551602 -1.06694783 30.25031301 3.21436675 43.39453125 13.95703125 C52.61769904 22.42600474 60.40171302 35.19258762 61.10693359 47.93164062 C61.23467488 52.29323895 61.15890036 56.63906793 61 61 C58.525 61.495 58.525 61.495 56 62 C55.52691406 60.91203125 55.05382812 59.8240625 54.56640625 58.703125 C50.30435137 49.14241716 45.70534274 41.09701765 39 33 C38.28457031 32.0409375 38.28457031 32.0409375 37.5546875 31.0625 C28.50965461 19.3635353 12.96939682 10.26546468 -1 6 C-0.67 4.02 -0.34 2.04 0 0 Z " fill="#E53935" transform="translate(63,4)"/>
<path d="M0 0 C1.32 0.66 2.64 1.32 4 2 C4 6.74340704 2.82348464 7.35074611 -0.20703125 10.68359375 C-8.84470157 21.84293689 -11.20273627 34.23671043 -12 48 C-13.32 47.01 -14.64 46.02 -16 45 C-16.33 48.96 -16.66 52.92 -17 57 C-21.56261007 47.87477986 -19.1926322 36.19992397 -16.39453125 26.77734375 C-12.90591271 16.79088007 -7.58895977 7.42295128 0 0 Z " fill="#E74A47" transform="translate(23,13)"/>
<path d="M0 0 C4.09572746 0.7313799 5.76688993 1.48996198 8.5 4.625 C9.61466651 8.45666611 9.84042325 10.66755961 8.5 14.4375 C5.70230573 17.49747811 3.5808422 18.07166546 -0.5 18.625 C-4.55030837 17.17300266 -6.10038861 16.22441709 -8.5 12.625 C-9.14618872 8.47092964 -8.65611333 6.88045818 -6.4375 3.25 C-3.5 0.625 -3.5 0.625 0 0 Z " fill="#E53D39" transform="translate(35.5,83.375)"/>
<path d="M0 0 C5.94 0 11.88 0 18 0 C18.33 0.99 18.66 1.98 19 3 C21.475 3.495 21.475 3.495 24 4 C24 4.33 24 4.66 24 5 C15.95075394 7.25943749 8.29683005 7.19676277 0 7 C-0.33 6.34 -0.66 5.68 -1 5 C5.435 4.505 5.435 4.505 12 4 C12 3.67 12 3.34 12 3 C11.30132812 2.95101562 10.60265625 2.90203125 9.8828125 2.8515625 C8.97273438 2.77679688 8.06265625 2.70203125 7.125 2.625 C6.22007813 2.55539063 5.31515625 2.48578125 4.3828125 2.4140625 C2 2 2 2 0 0 Z " fill="#E55754" transform="translate(62,117)"/>
<path d="M0 0 C0.77214844 0.03158203 1.54429688 0.06316406 2.33984375 0.09570312 C8.07560085 0.43865567 8.07560085 0.43865567 10.24414062 2.34887695 C10.65857422 2.83187256 11.07300781 3.31486816 11.5 3.8125 C8.23063506 4.06735425 4.95983259 4.28692831 1.6875 4.5 C0.75873047 4.57283203 -0.17003906 4.64566406 -1.12695312 4.72070312 C-2.01962891 4.77548828 -2.91230469 4.83027344 -3.83203125 4.88671875 C-4.65421143 4.94432373 -5.4763916 5.00192871 -6.32348633 5.0612793 C-9.02106974 4.75294082 -9.82607931 3.88418402 -11.5 1.8125 C-7.58737497 -0.79591669 -4.49521652 -0.29642914 0 0 Z " fill="#E52D29" transform="translate(66.5,118.1875)"/>
<path d="M0 0 C0.33 0 0.66 0 1 0 C1.12375 1.0725 1.2475 2.145 1.375 3.25 C1.90609759 6.43658556 2.44148532 8.27259931 4 11 C5.04728614 14.14185841 4.99290464 14.94062123 4.1875 18 C4.01605469 18.680625 3.84460938 19.36125 3.66796875 20.0625 C3 22 3 22 1 25 C-0.27861615 22.44276771 -0.11336609 20.63262898 -0.09765625 17.7734375 C-0.09443359 16.7421875 -0.09121094 15.7109375 -0.08789062 14.6484375 C-0.07951172 13.56820312 -0.07113281 12.48796875 -0.0625 11.375 C-0.05798828 10.28703125 -0.05347656 9.1990625 -0.04882812 8.078125 C-0.03701776 5.38536211 -0.02054778 2.69270812 0 0 Z " fill="#E42B27" transform="translate(6,49)"/>
<path d="M0 0 C1.32 0.66 2.64 1.32 4 2 C4 3.32 4 4.64 4 6 C3.01 6.495 3.01 6.495 2 7 C1.67 6.01 1.34 5.02 1 4 C-0.32 4.99 -1.64 5.98 -3 7 C-3.33 6.34 -3.66 5.68 -4 5 C-2.68 3.35 -1.36 1.7 0 0 Z " fill="#E5514D" transform="translate(23,13)"/>
<path d="M0 0 C-0.33 1.32 -0.66 2.64 -1 4 C-6.41538462 4.36923077 -6.41538462 4.36923077 -9.375 2.5 C-9.91125 2.005 -10.4475 1.51 -11 1 C-7.32589215 -0.17571451 -3.83070817 -0.07366746 0 0 Z " fill="#E52C28" transform="translate(87,117)"/>
<path d="M0 0 C1.44096586 0.42594588 2.87768712 0.86626633 4.3125 1.3125 C5.11300781 1.55613281 5.91351563 1.79976562 6.73828125 2.05078125 C9.09964573 3.04182023 10.33879993 4.08074943 12 6 C6.25 5.125 6.25 5.125 4 4 C4 3.34 4 2.68 4 2 C2.68 2 1.36 2 0 2 C0 1.34 0 0.68 0 0 Z " fill="#E44E4A" transform="translate(53,38)"/>
<path d="M0 0 C0.33 0.66 0.66 1.32 1 2 C0.3125 4.0625 0.3125 4.0625 -1 6 C-3.125 6.75 -3.125 6.75 -5 7 C-4.67 5.02 -4.34 3.04 -4 1 C-2.68 0.67 -1.36 0.34 0 0 Z " fill="#E4312D" transform="translate(16,27)"/>
<path d="M0 0 C0.66 0.33 1.32 0.66 2 1 C1.649375 1.61875 1.29875 2.2375 0.9375 2.875 C0.4734375 3.926875 0.4734375 3.926875 0 5 C0.33 5.66 0.66 6.32 1 7 C-0.65 7.33 -2.3 7.66 -4 8 C-3.34 7.67 -2.68 7.34 -2 7 C-2 6.01 -2 5.02 -2 4 C-2.99 3.34 -3.98 2.68 -5 2 C-2.625 0.9375 -2.625 0.9375 0 0 Z " fill="#E5524E" transform="translate(94,112)"/>
<path d="M0 0 C3.31562557 0.55260426 6.15062207 1.16825705 9 3 C9.33 3.99 9.66 4.98 10 6 C6.40992874 4.66654496 3.20429093 3.1056769 0 1 C0 0.67 0 0.34 0 0 Z " fill="#E54A46" transform="translate(32,111)"/>
<path d="M0 0 C1.70401547 2.60614131 2.00613718 3.89975932 1.8125 7.0625 C0.9940468 10.02152312 0.37339853 11.14255768 -2 13 C-1.47731534 10.23723823 -0.89130413 7.6739124 0 5 C0.03874921 3.33378384 0.0450286 1.66605828 0 0 Z " fill="#E9635F" transform="translate(116,77)"/>
<path d="M0 0 C1.32 0 2.64 0 4 0 C3.67 1.98 3.34 3.96 3 6 C2.34 5.34 1.68 4.68 1 4 C0.34 4.66 -0.32 5.32 -1 6 C-0.67 4.02 -0.34 2.04 0 0 Z " fill="#E32723" transform="translate(9,37)"/>
<path d="M0 0 C1.98 0.99 1.98 0.99 4 2 C4 3.32 4 4.64 4 6 C3.01 6 2.02 6 1 6 C1.33 4.68 1.66 3.36 2 2 C1.34 2 0.68 2 0 2 C0 1.34 0 0.68 0 0 Z " fill="#E65D59" transform="translate(111,100)"/>
</svg>
