<?xml version="1.0" encoding="UTF-8"?>
<svg xmlns="http://www.w3.org/2000/svg" xmlns:xlink="http://www.w3.org/1999/xlink" width="128px" height="128px" viewBox="0 0 128 128" version="1.1">
<defs>
<filter id="alpha" filterUnits="objectBoundingBox" x="0%" y="0%" width="100%" height="100%">
  <feColorMatrix type="matrix" in="SourceGraphic" values="0 0 0 0 1 0 0 0 0 1 0 0 0 0 1 0 0 0 1 0"/>
</filter>
<mask id="mask0">
  <g filter="url(#alpha)">
<rect x="0" y="0" width="128" height="128" style="fill:rgb(0%,0%,0%);fill-opacity:1;stroke:none;"/>
  </g>
</mask>
<clipPath id="clip1">
  <rect x="0" y="0" width="128" height="128"/>
</clipPath>
<g id="surface5" clip-path="url(#clip1)">
<path style=" stroke:none;fill-rule:nonzero;fill:rgb(30.588235%,27.058824%,25.098039%);fill-opacity:1;" d="M 74.609375 33.617188 L 49.21875 33.617188 C 47.621094 33.621094 46.328125 34.917969 46.324219 36.515625 L 46.324219 43.34375 L 53.367188 43.34375 L 53.367188 42.226562 C 53.363281 41.8125 53.53125 41.414062 53.824219 41.121094 C 54.117188 40.824219 54.515625 40.660156 54.933594 40.660156 L 68.898438 40.660156 C 69.3125 40.660156 69.710938 40.824219 70.007812 41.121094 C 70.300781 41.414062 70.464844 41.8125 70.464844 42.226562 L 70.464844 43.34375 L 77.507812 43.34375 L 77.507812 36.515625 C 77.503906 34.917969 76.207031 33.621094 74.609375 33.617188 Z M 74.609375 33.617188 "/>
<path style=" stroke:none;fill-rule:nonzero;fill:rgb(30.588235%,27.058824%,25.098039%);fill-opacity:1;" d="M 70.460938 55.53125 C 70.460938 56.394531 69.761719 57.097656 68.894531 57.097656 L 54.933594 57.097656 C 54.066406 57.097656 53.367188 56.394531 53.367188 55.53125 L 53.367188 54.414062 L 46.316406 54.414062 L 46.316406 61.242188 C 46.320312 62.839844 47.613281 64.136719 49.210938 64.140625 L 74.601562 64.140625 C 76.199219 64.136719 77.496094 62.839844 77.5 61.242188 L 77.5 54.414062 L 70.460938 54.414062 Z M 70.460938 55.53125 "/>
<path style=" stroke:none;fill-rule:nonzero;fill:rgb(30.588235%,27.058824%,25.098039%);fill-opacity:1;" d="M 46.320312 45.359375 L 53.363281 45.359375 L 53.363281 52.402344 L 46.320312 52.402344 Z M 46.320312 45.359375 "/>
<path style=" stroke:none;fill-rule:nonzero;fill:rgb(30.588235%,27.058824%,25.098039%);fill-opacity:1;" d="M 70.464844 45.359375 L 77.507812 45.359375 L 77.507812 52.402344 L 70.464844 52.402344 Z M 70.464844 45.359375 "/>
</g>
</defs>
<g id="surface1">
<path style=" stroke:none;fill-rule:nonzero;fill:rgb(30.588235%,27.058824%,25.098039%);fill-opacity:1;" d="M 126.960938 88.261719 C 126.960938 87.222656 126.121094 86.382812 125.085938 86.382812 C 124.046875 86.382812 123.207031 87.222656 123.207031 88.261719 C 123.207031 89.300781 124.046875 90.140625 125.085938 90.140625 C 126.121094 90.140625 126.960938 89.300781 126.960938 88.261719 Z M 125.085938 89.671875 C 124.304688 89.671875 123.675781 89.039062 123.675781 88.261719 C 123.675781 87.484375 124.304688 86.851562 125.085938 86.851562 C 125.863281 86.851562 126.492188 87.484375 126.492188 88.261719 C 126.484375 89.03125 125.863281 89.652344 125.09375 89.660156 Z M 125.085938 89.671875 "/>
<path style=" stroke:none;fill-rule:nonzero;fill:rgb(30.588235%,27.058824%,25.098039%);fill-opacity:1;" d="M 125.796875 87.921875 C 125.800781 87.765625 125.746094 87.613281 125.640625 87.5 C 125.503906 87.378906 125.324219 87.3125 125.144531 87.324219 L 124.457031 87.324219 L 124.457031 89.15625 L 124.835938 89.15625 L 124.835938 88.554688 L 125.074219 88.554688 L 125.410156 89.15625 L 125.84375 89.15625 L 125.464844 88.464844 C 125.675781 88.371094 125.808594 88.15625 125.796875 87.921875 Z M 125.410156 87.921875 C 125.410156 88 125.378906 88.074219 125.324219 88.125 C 125.265625 88.175781 125.191406 88.199219 125.113281 88.191406 L 124.84375 88.191406 L 124.84375 87.65625 L 125.113281 87.65625 C 125.308594 87.65625 125.417969 87.746094 125.417969 87.921875 Z M 125.410156 87.921875 "/>
<path style=" stroke:none;fill-rule:nonzero;fill:rgb(30.588235%,27.058824%,25.098039%);fill-opacity:1;" d="M 14.777344 82.808594 L 14.777344 82.558594 C 14.777344 78.136719 11.878906 74.925781 7.9375 74.925781 C 3.996094 74.925781 1.039062 78.195312 1.039062 82.585938 L 1.039062 82.839844 C 1.039062 87.257812 3.9375 90.441406 7.878906 90.441406 C 11.820312 90.441406 14.777344 87.203125 14.777344 82.808594 Z M 4.21875 82.753906 L 4.21875 82.585938 C 4.21875 79.800781 5.65625 77.742188 7.878906 77.742188 C 10.046875 77.742188 11.59375 79.824219 11.59375 82.613281 L 11.59375 82.78125 C 11.59375 85.570312 10.160156 87.652344 7.9375 87.652344 C 5.769531 87.652344 4.21875 85.542969 4.21875 82.753906 Z M 4.21875 82.753906 "/>
<path style=" stroke:none;fill-rule:nonzero;fill:rgb(30.588235%,27.058824%,25.098039%);fill-opacity:1;" d="M 29.921875 82.867188 L 29.921875 82.472656 C 29.921875 77.433594 27.105469 74.925781 24.121094 74.925781 C 21.976562 74.925781 20.6875 76.167969 19.757812 77.609375 L 19.757812 75.214844 L 16.578125 75.214844 L 16.578125 94.382812 L 19.753906 94.382812 L 19.753906 87.878906 C 20.652344 89.199219 21.949219 90.410156 24.117188 90.410156 C 27.136719 90.410156 29.921875 87.878906 29.921875 82.867188 Z M 19.699219 82.808594 L 19.699219 82.527344 C 19.699219 79.601562 21.335938 77.742188 23.25 77.742188 C 25.167969 77.742188 26.710938 79.574219 26.710938 82.558594 L 26.710938 82.808594 C 26.710938 85.796875 25.195312 87.597656 23.25 87.597656 C 21.308594 87.597656 19.699219 85.738281 19.699219 82.808594 Z M 19.699219 82.808594 "/>
<path style=" stroke:none;fill-rule:nonzero;fill:rgb(30.588235%,27.058824%,25.098039%);fill-opacity:1;" d="M 43.707031 88.132812 L 42.046875 86.171875 C 41.0625 87.128906 40.019531 87.75 38.613281 87.75 C 36.667969 87.75 35.125 86.40625 34.839844 83.890625 L 44.1875 83.890625 C 44.214844 83.441406 44.214844 82.988281 44.214844 82.792969 C 44.214844 78.316406 42.066406 74.9375 38.019531 74.9375 C 34.359375 74.9375 31.65625 78.15625 31.65625 82.625 L 31.65625 82.851562 C 31.65625 87.523438 34.640625 90.449219 38.472656 90.449219 C 40.472656 90.476562 42.382812 89.632812 43.707031 88.132812 Z M 38.019531 77.601562 C 39.878906 77.601562 40.949219 79.320312 41.117188 81.683594 L 34.808594 81.683594 C 35.046875 79.148438 36.273438 77.601562 38.019531 77.601562 Z M 38.019531 77.601562 "/>
<path style=" stroke:none;fill-rule:nonzero;fill:rgb(30.588235%,27.058824%,25.098039%);fill-opacity:1;" d="M 53.558594 74.925781 C 51.53125 74.925781 50.320312 76.082031 49.476562 77.40625 L 49.476562 75.207031 L 46.292969 75.207031 L 46.292969 90.132812 L 49.472656 90.132812 L 49.472656 81.09375 C 49.472656 79.039062 50.628906 77.800781 52.289062 77.800781 C 53.949219 77.800781 54.972656 78.953125 54.972656 81.035156 L 54.972656 90.132812 L 58.15625 90.132812 L 58.15625 80.136719 C 58.144531 76.957031 56.425781 74.925781 53.558594 74.925781 Z M 53.558594 74.925781 "/>
<path style=" stroke:none;fill-rule:nonzero;fill:rgb(30.588235%,27.058824%,25.098039%);fill-opacity:1;" d="M 70.96875 85.878906 L 70.96875 85.851562 C 70.96875 83.515625 69.222656 82.445312 66.914062 81.402344 C 65.167969 80.613281 63.984375 80.109375 63.984375 79.125 L 63.984375 79.066406 C 63.984375 78.261719 64.691406 77.601562 65.863281 77.601562 C 67.035156 77.601562 68.277344 78.164062 69.410156 78.925781 L 70.75 76.585938 C 69.34375 75.570312 67.660156 75.011719 65.921875 74.976562 C 63.136719 74.976562 60.996094 76.667969 60.996094 79.34375 L 60.996094 79.398438 C 60.996094 81.847656 62.855469 82.859375 65.078125 83.820312 C 66.851562 84.578125 68.007812 85.058594 68.007812 86.128906 L 68.007812 86.15625 C 68.007812 87.082031 67.246094 87.789062 65.921875 87.789062 C 64.597656 87.789062 63.164062 87.140625 61.8125 86.042969 L 60.320312 88.324219 C 61.871094 89.636719 63.832031 90.371094 65.867188 90.40625 C 68.746094 90.410156 70.96875 88.804688 70.96875 85.878906 Z M 70.96875 85.878906 "/>
<path style=" stroke:none;fill-rule:nonzero;fill:rgb(30.588235%,27.058824%,25.098039%);fill-opacity:1;" d="M 80.820312 89.707031 L 80.820312 87.089844 C 80.289062 87.371094 79.699219 87.515625 79.101562 87.511719 C 78.085938 87.511719 77.492188 87.03125 77.492188 85.878906 L 77.492188 77.941406 L 80.84375 77.941406 L 80.84375 75.207031 L 77.496094 75.207031 L 77.496094 71.183594 L 74.316406 71.183594 L 74.316406 75.207031 L 72.683594 75.207031 L 73.203125 77.941406 L 74.316406 77.941406 L 74.316406 86.527344 C 74.316406 89.425781 75.976562 90.355469 78.171875 90.355469 C 79.097656 90.371094 80.007812 90.144531 80.820312 89.707031 Z M 80.820312 89.707031 "/>
<path style=" stroke:none;fill-rule:nonzero;fill:rgb(30.588235%,27.058824%,25.098039%);fill-opacity:1;" d="M 93 76.5625 C 92.042969 75.574219 90.550781 75.039062 88.609375 75.039062 C 86.894531 75.03125 85.203125 75.4375 83.683594 76.222656 L 84.582031 78.753906 C 85.707031 78.191406 86.9375 77.882812 88.195312 77.855469 C 90.21875 77.855469 91.414062 78.894531 91.414062 80.894531 L 91.414062 81.515625 C 90.3125 81.121094 89.148438 80.917969 87.980469 80.921875 C 84.828125 80.921875 82.6875 82.5 82.6875 85.707031 L 82.6875 85.847656 C 82.6875 88.746094 84.769531 90.410156 87.246094 90.410156 C 89.191406 90.410156 90.511719 89.566406 91.386719 88.300781 L 91.386719 90.132812 L 94.511719 90.132812 L 94.511719 80.867188 C 94.5 79.011719 93.992188 77.546875 93 76.5625 Z M 91.425781 85.121094 C 91.425781 86.808594 90.015625 88.046875 88.1875 88.019531 C 86.808594 87.992188 85.773438 87.144531 85.773438 85.652344 L 85.773438 85.597656 C 85.773438 84.023438 86.84375 83.089844 88.667969 83.089844 C 89.617188 83.085938 90.554688 83.269531 91.429688 83.628906 Z M 91.425781 85.121094 "/>
<path style=" stroke:none;fill-rule:nonzero;fill:rgb(30.588235%,27.058824%,25.098039%);fill-opacity:1;" d="M 108.023438 88.1875 L 106.308594 86.078125 C 105.433594 86.949219 104.5625 87.597656 103.265625 87.597656 C 101.097656 87.597656 99.578125 85.652344 99.578125 82.753906 L 99.578125 82.613281 C 99.578125 79.800781 101.097656 77.800781 103.183594 77.800781 C 104.523438 77.800781 105.40625 78.476562 106.195312 79.292969 L 107.96875 76.957031 C 106.730469 75.714844 105.320312 74.925781 103.183594 74.925781 C 99.269531 74.925781 96.371094 78.148438 96.371094 82.585938 L 96.371094 82.855469 C 96.371094 87.304688 99.183594 90.429688 103.078125 90.429688 C 105.34375 90.441406 106.84375 89.511719 108.023438 88.1875 Z M 108.023438 88.1875 "/>
<path style=" stroke:none;fill-rule:nonzero;fill:rgb(30.588235%,27.058824%,25.098039%);fill-opacity:1;" d="M 118.519531 90.132812 L 122.210938 90.132812 L 117.757812 82.386719 L 115.527344 84.785156 Z M 118.519531 90.132812 "/>
<path style=" stroke:none;fill-rule:nonzero;fill:rgb(30.588235%,27.058824%,25.098039%);fill-opacity:1;" d="M 113.199219 85.824219 L 122.070312 75.210938 L 118.296875 75.210938 L 113.199219 81.769531 L 113.199219 69.804688 L 110.019531 69.804688 L 110.019531 90.132812 L 113.199219 90.132812 Z M 113.199219 85.824219 "/>
<use xlink:href="#surface5" mask="url(#mask0)"/>
</g>
</svg>
