<svg xmlns="http://www.w3.org/2000/svg" viewBox="0 0 128 128"><path fill="#ed1944" d="M123.885 111.93v-.03a1.74 1.74 0 0 0-.46-1.264 2.043 2.043 0 0 0-1.48-.52h-2.037v5.44h1.124v-1.813h.689l1.003 1.813h1.294l-1.16-2.025a1.644 1.644 0 0 0 1.027-1.601zm-1.137.036a.786.786 0 0 1-.888.816h-.834v-1.644h.81c.604 0 .912.272.912.816zm4.612.973a5.56 5.56 0 1 0-5.56 5.566 5.567 5.567 0 0 0 5.56-5.566zm-5.56 4.194a4.195 4.195 0 1 1 4.194-4.194 4.195 4.195 0 0 1-4.195 4.194zm-34.935-65.71h25.155v25.155H86.865Zm-86.225 0h25.155v25.155H.64Zm86.225 36.33a5.603 5.603 0 0 1-5.597 5.597H31.386a5.603 5.603 0 0 1-5.597-5.597V83.77H.64v24.382a10.378 10.378 0 0 0 10.347 10.353h90.662a10.384 10.384 0 0 0 10.401-10.353V83.77H86.865Zm14.802-78.258H11.006A10.378 10.378 0 0 0 .658 19.842V44.23h25.15v-3.983a5.597 5.597 0 0 1 5.596-5.597h49.882a5.597 5.597 0 0 1 5.597 5.597v3.983h25.167V19.842a10.384 10.384 0 0 0-10.383-10.347Z"/></svg>
