<svg xmlns="http://www.w3.org/2000/svg" viewBox="0 0 128 128"><g transform="translate(50 76)"><linearGradient id="weblate-original-a" gradientUnits="userSpaceOnUse" x1="-100.86" y1="63.797" x2="-37.246" y2="63.797" gradientTransform="matrix(.9831 0 0 -1.0172 49.154 52.895)"><stop offset="0" stop-color="#00d2e6"/><stop offset="1" stop-color="#2eccaa"/></linearGradient><path d="M32 12.5c-1.9 0-3.7-.4-5.5-1.2-4-1.7-7.4-5-10.3-9.4.8-1.4 1.5-2.9 2.2-4.4 2.8-6.6 4.2-13.9 4.3-21.1v-.8c0-2.8-.4-5.7-1.4-8.3-1.1-3.1-2.9-6.1-5.7-7.3-.5-.2-1.1-.3-1.6-.3-3.6-6.7-3.7-13 0-19.1h.2c4.3 0 8.6 1.4 12.3 3.7 10 6.4 15 18.7 15.1 30.9v.4h.1c-.1 12.9-3.2 26-9.7 36.9zM9.8 32.7c-9.3 3.8-20.2 3.6-29.4-.7-10.6-4.9-18.8-14.6-23.8-25.5-8.6-18.8-8.8-41.2-.6-60.2 6.1 2.4 11.5-1.4 11.5-1.4s0 6 5.8 9c-5.9 13.9-5.8 30.5.2 44.1 2.9 6.5 7.3 12.6 13.3 16.1 2.2 1.2 4.6 2 7 2.3 4.3 6.6 9.8 12.3 16 16.3z" fill="url(#weblate-original-a)"/><linearGradient id="weblate-original-b" gradientUnits="userSpaceOnUse" x1="-59.46" y1="27.873" x2="-26.638" y2="43.338" gradientTransform="matrix(1.1631 0 0 -.8598 58.153 44.71)"><stop offset="0" stop-opacity="0"/><stop offset=".514"/><stop offset="1" stop-opacity="0"/></linearGradient><path d="M32 12.5c-1.9 0-3.7-.4-5.5-1.2-4-1.7-7.4-5-10.3-9.4.8-1.4 1.5-2.9 2.2-4.4.9-2 1.6-4 2.2-6.1C22-13.4 40.2-7.3 37.5.7 36 4.8 34.2 8.8 32 12.5zM9.8 32.7c-9.3 3.8-20.2 3.6-29.4-.7-10.6-4.9.3-21.5 6.4-18.1 2.2 1.2 4.5 2 7 2.3 4.3 6.8 9.8 12.5 16 16.5z" opacity=".3" fill-rule="evenodd" clip-rule="evenodd" fill="url(#weblate-original-b)"/><linearGradient id="weblate-original-c" gradientUnits="userSpaceOnUse" x1="29.342" y1="63.797" x2="-34.164" y2="63.797" gradientTransform="matrix(.9831 0 0 -1.0172 49.154 52.895)"><stop offset="0" stop-color="#1fa385"/><stop offset="1" stop-color="#2eccaa"/></linearGradient><path d="M-13.6-24.3v-.4c.1-12.2 5.1-24.6 15.1-30.9 3.7-2.3 8-3.7 12.3-3.7h.2v19.1c-.5 0-1.1.1-1.6.3-2.8 1.2-4.6 4.3-5.7 7.3-1 2.7-1.4 5.5-1.4 8.3v.8c.1 7.2 1.4 14.4 4.3 21C12.7 5 17.8 11.8 25 14.9c5.4 2.4 11.4 1.8 16.3-1 6.1-3.4 10.5-9.5 13.3-16.1 6-13.6 6.1-30.1.2-44.1 5.8-3 5.8-9 5.8-9s5.4 3.9 11.5 1.4c8.1 19 7.9 41.5-.6 60.2-5 11-13.1 20.6-23.8 25.5-9.5 4.4-20.6 4.5-30.1.4C9 28.7 2 22-3 14.2c-7.2-11.3-10.6-25-10.6-38.5z" fill="url(#weblate-original-c)"/></g></svg>