<?xml version="1.0" encoding="utf-8"?>
<!-- Generator: Adobe Illustrator 16.0.0, SVG Export Plug-In . SVG Version: 6.00 Build 0)  -->
<!DOCTYPE svg PUBLIC "-//W3C//DTD SVG 1.1//EN" "http://www.w3.org/Graphics/SVG/1.1/DTD/svg11.dtd">
<svg version="1.1" id="Layer_1" xmlns="http://www.w3.org/2000/svg" xmlns:xlink="http://www.w3.org/1999/xlink" x="0px" y="0px"
	 width="500px" height="500px" viewBox="0 0 500 500" enable-background="new 0 0 500 500" xml:space="preserve">
<g>
	<path fill-rule="evenodd" clip-rule="evenodd" fill="#4FAA41" d="M323.447,133.887c-10.171-31.673-26.489-59.705-49.478-83.824
		c-5.814-6.102-12.275-11.691-16.329-19.282c-2.565-4.803-5.005-9.671-7.502-14.51c-0.463-1.165-0.926-2.332-1.584-3.99
		c-0.265,0.916-0.435,1.241-0.442,1.57c-0.206,7.891-4.677,13.24-10.241,18.236c-6.261,5.619-12.09,11.72-18.105,17.612
		c-6.167,8.111-12.334,16.224-18.501,24.335c-4.986,9.169-9.973,18.338-14.96,27.507c-3.333,9.004-6.666,18.009-10,27.013
		c-0.103,0.139-0.255,0.265-0.302,0.421c-5.505,18.081-8.218,36.672-9.554,55.446c-0.502,7.059,0.073,14.216,0.47,21.311
		c0.565,10.14,2.329,20.109,4.971,29.922c9.598,35.648,29.08,65.218,55.712,90.342c4.947,4.668,10.294,8.913,15.456,13.353
		c0.762,2.614,1.523,5.228,2.283,7.84c0.709,4.059,1.417,8.116,2.125,12.175c0.338,4.235,0.677,8.47,1.016,12.706
		c-0.011,2.58-0.117,5.168,0.036,7.74c0.04,0.66,0.903,1.27,1.388,1.903c1.438,0.504,2.876,1.011,4.313,1.516
		c1.297,0.504,2.595,1.009,4.49,1.747c-0.288-4.233-0.527-7.763-0.769-11.294c-0.012-3.707-0.024-7.415-0.036-11.123
		c0.517-5.647,1.035-11.295,1.554-16.943c0.375-1.229,0.75-2.46,1.126-3.689c1.073-1.903,2.146-3.805,3.221-5.706
		c3.975-3.198,8.24-6.101,11.862-9.658c6.551-6.438,13.086-12.959,18.95-20.009c7.605-9.146,14.152-19.125,19.408-29.829
		c3.516-7.159,6.827-14.463,9.565-21.945c2.414-6.596,3.909-13.527,5.811-20.311c0.17-0.489,0.395-0.966,0.502-1.468
		c3.927-18.313,4.585-36.81,3.144-55.431C331.884,162.555,328.354,148.073,323.447,133.887z M245.714,330.275
		C245.714,330.275,245.714,330.275,245.714,330.275c0.604-3.014,1.349-6.01,1.894-9.03
		C247.063,324.266,246.317,327.262,245.714,330.275z M259.063,332.349c-0.84-1.842-1.679-3.684-2.52-5.526
		C257.384,328.664,258.223,330.507,259.063,332.349c1.237,1.056,2.473,2.11,3.709,3.166
		C261.535,334.459,260.3,333.404,259.063,332.349z"/>
	<path fill-rule="evenodd" clip-rule="evenodd" fill="#4FAA41" d="M415.914,402.381c-3.228-6.186-7.964-10.882-14.22-13.961
		c-5.239-2.579-10.878-3.713-16.673-3.88c-4.347-0.125-8.702,0.104-13.055,0.154c-3.863,0.046-7.729,0.117-11.592,0.078
		c-4.543-0.045-9.086-0.187-13.629-0.313c-0.759-0.021-1.293,0.129-1.644,0.89c-0.549,1.193-1.199,2.34-1.878,3.646
		c0.409,0.133,0.58,0.21,0.76,0.242c2.254,0.396,4.518,0.74,6.761,1.186c2.886,0.575,4.182,2.232,4.317,4.66
		c0.193,3.461,0.274,6.934,0.26,10.4c-0.054,13.725-0.157,27.451-0.259,41.176c-0.008,0.905-0.021,1.848-0.27,2.703
		c-0.286,0.982-0.594,2.257-1.329,2.744c-1.271,0.841-2.84,1.412-4.356,1.66c-2.188,0.357-2.558,0.456-3.241,2.612
		c-0.114,0.355-0.2,0.72-0.3,1.078c-0.328,1.175-0.152,1.407,1.078,1.419c7.037,0.076,14.073,0.23,21.109,0.206
		c6.417-0.023,12.838,0.366,19.231-0.839c6.043-1.139,11.685-3.13,16.829-6.502c6.68-4.379,11.487-10.229,14.021-17.867
		c2.047-6.167,2.501-12.462,1.808-18.909C419.167,410.52,417.974,406.329,415.914,402.381z M403.584,440.117
		c-3.765,7.011-9.383,11.688-17.41,12.92c-5.027,0.771-10.063,0.547-14.854-1.352c-3.039-1.203-4.165-3.827-4.261-6.927
		c-0.092-3.036-0.123-6.072-0.127-9.108c-0.015-10.678-0.016-21.357,0-32.035c0.005-3.366,0.064-6.733,0.119-10.1
		c0.039-2.371,0.534-3.161,2.844-3.354c10.14-0.849,19.815,0.244,27.852,7.378c4.971,4.414,7.799,10.044,8.972,16.508
		c0.489,2.696,0.639,5.455,0.942,8.186C407.414,428.479,406.571,434.552,403.584,440.117z"/>
	<path fill-rule="evenodd" clip-rule="evenodd" fill="#4FAA41" d="M488.699,428.548c-2.003-4.866-5.792-7.919-10.552-9.87
		c-1.627-0.668-3.302-1.225-5.056-1.868c0.264-0.166,0.442-0.274,0.614-0.387c1.895-1.214,4.004-2.193,5.638-3.692
		c3.968-3.636,5.618-8.21,4.844-13.646c-0.736-5.171-3.309-8.963-7.917-11.42c-4.184-2.23-8.688-3.044-13.355-3.039
		c-8.071,0.006-16.143,0.132-24.214,0.145c-2.781,0.005-5.563-0.202-8.344-0.245c-0.538-0.008-1.337,0.131-1.57,0.489
		c-0.635,0.979-1.061,2.103-1.512,3.191c-0.261,0.634-0.001,0.979,0.718,1.076c1.944,0.266,3.881,0.597,5.823,0.885
		c2.687,0.398,3.992,1.801,4.155,4.509c0.032,0.534,0.036,1.07,0.036,1.605c0.002,8.417,0.031,16.834-0.006,25.251
		c-0.039,8.406-0.136,16.813-0.235,25.219c-0.012,1.06-0.158,2.122-0.31,3.173c-0.229,1.589-1.08,2.682-2.705,3.027
		c-1.527,0.325-3.066,0.597-4.597,0.908c-0.538,0.108-1.326,0.094-1.553,0.433c-0.841,1.262-1.521,2.639-1.427,4.303
		c0.253,0.069,0.36,0.122,0.47,0.126c5.147,0.129,10.295,0.262,15.444,0.38c1.031,0.023,2.063-0.002,3.096-0.013
		c5.345-0.061,10.696,0.044,16.029-0.227c5.778-0.293,11.205-2.004,16.22-4.952c5.343-3.142,9.45-7.29,10.912-13.524
		C490.279,436.398,490.282,432.392,488.699,428.548z M449.467,392.687c0.022-1.689,0.772-2.425,2.448-2.47
		c4.138-0.112,8.25-0.089,12.239,1.336c5.164,1.843,8.338,6.3,8.279,11.738c-0.023,2.091,0.007,4.16-0.764,6.167
		c-1.52,3.955-4.436,6.041-8.569,6.45c-2.156,0.215-4.332,0.242-6.253,0.341c-2.309-0.102-4.36-0.204-6.414-0.279
		c-0.85-0.032-1.224-0.408-1.214-1.282C449.312,407.354,449.37,400.021,449.467,392.687z M476.05,445.398
		c-2.065,4.495-5.832,6.859-10.546,7.68c-3.769,0.656-7.571,0.463-11.296-0.495c-2.756-0.708-3.882-2.922-4.434-5.382
		c-0.369-1.644-0.307-3.49-0.337-5.197c-0.05-2.637-0.013-5.004-0.013-8.004c-0.02,0-0.036,0-0.055,0c0-4,0.014-7.404-0.009-11.15
		c-0.005-0.809,0.132-1.266,1.118-1.236c3.513,0.106,7.028,0.135,10.538,0.27c3.135,0.118,6.074,1.037,8.834,2.526
		c4.206,2.268,6.733,5.726,7.431,10.491C477.811,438.514,477.583,442.06,476.05,445.398z"/>
	<path fill-rule="evenodd" clip-rule="evenodd" fill="#4FAA41" d="M90.944,449.608c0.021-7.078,0.051-14.156,0.074-21.235
		c0.011-3.194-0.394-6.327-1.442-9.357c-2.886-8.347-10.848-12.149-19.136-9.152c-3.772,1.363-7.152,3.431-10.378,5.773
		c-1.881,1.366-1.882,1.364-3.238-0.584c-3.848-5.518-9.341-7.402-15.745-5.368c-4.134,1.313-7.754,3.562-11.179,6.167
		c-0.32,0.244-0.965,0.514-1.159,0.368c-0.316-0.237-0.538-0.806-0.532-1.231c0.014-1.258,0.205-2.516,0.233-3.774
		c0.018-0.792-0.133-1.59-0.212-2.421c-1.544,0.532-2.78,1.07-4.07,1.386c-4.002,0.977-8.022,1.876-12.039,2.792
		c-0.974,0.221-2.001,0.513-2.098,1.63c-0.097,1.102,0.964,1.281,1.781,1.61c1.73,0.697,3.443,1.436,5.151,2.185
		c1.435,0.63,1.97,1.775,1.961,3.313c-0.026,6.578,0.015,13.158-0.023,19.737c-0.014,2.673-0.14,5.349-0.262,8.021
		c-0.109,2.375-0.919,3.365-3.215,3.962c-1.218,0.318-2.461,0.534-3.687,0.821c-0.271,0.064-0.729,0.232-0.734,0.368
		c-0.049,1.161-0.113,2.344,0.087,3.475c0.036,0.203,1.264,0.201,1.942,0.281c0.149,0.017,0.304-0.025,0.457-0.027
		c4.735-0.066,9.471-0.145,14.206-0.194c2.512-0.026,5.023-0.005,7.75-0.005c0.086-1.129,0.188-2.436,0.292-3.787
		c-1.563-0.285-2.956-0.499-4.33-0.799c-2.146-0.47-3.063-1.608-3.112-3.769c-0.022-1.033-0.039-2.067-0.042-3.1
		c-0.023-8.033-0.052-16.067-0.054-24.102c0-1.167,0.486-2.095,1.514-2.79c2.172-1.47,4.468-2.639,7.014-3.289
		c5.361-1.371,10.009,0.532,12.071,5.091c0.65,1.438,1.161,3.029,1.309,4.592c0.759,8.05,0.43,16.115-0.028,24.17
		c-0.098,1.738-0.915,2.613-2.628,3.039c-1.331,0.333-2.7,0.52-4.033,0.851c-0.324,0.081-0.796,0.457-0.817,0.729
		c-0.093,1.114-0.039,2.24-0.039,3.414c0.511,0,0.737,0.003,0.962-0.001c4.091-0.068,8.181-0.187,12.27-0.195
		c3.365-0.008,6.729,0.103,10.092,0.188c0.6,0.015,1.137-0.048,1.17-0.741c0.053-1.103,0.008-2.213-0.04-3.317
		c-0.002-0.057-0.419-0.095-0.641-0.146c-1.152-0.265-2.307-0.528-3.459-0.798c-2.33-0.545-3.133-1.446-3.144-3.806
		c-0.024-5.816,0.051-11.633,0.003-17.448c-0.027-3.323-0.159-6.648-0.371-9.965c-0.057-0.88,0.076-1.459,0.78-1.959
		c2.073-1.476,4.307-2.615,6.771-3.265c7.554-1.994,13.741,2.151,14.136,9.945c0.38,7.515,0.222,15.059,0.164,22.588
		c-0.021,2.621-0.885,3.416-3.47,4.119c-0.295,0.08-0.59,0.155-0.888,0.227c-2.646,0.636-2.619,0.634-2.463,3.441
		c0.048,0.877,0.291,1.107,1.23,1.085c5.386-0.126,10.772-0.152,16.158-0.199c2.204-0.021,4.407-0.003,6.806-0.003
		c0.153-1.152,0.327-2.456,0.487-3.653c-2.105-0.556-4.045-0.973-5.919-1.588C91.521,452.359,90.938,451.362,90.944,449.608z"/>
	<path fill-rule="evenodd" clip-rule="evenodd" fill="#4FAA41" d="M276.449,417.419c2.22-2.062,2.234-4.779,1.612-7.799
		c-1.76,1.837-3.727,2.688-5.975,2.846c-3.01,0.214-5.968-0.044-8.774-1.248c-7.586-3.257-15.054-3.027-22.497,0.544
		c-6.261,3.003-10.113,7.676-10.5,14.77c-0.248,4.544,0.608,8.842,3.637,12.457c1.814,2.165,4.15,3.568,6.779,4.538
		c1.132,0.417,1.215,0.956,0.27,1.678c-0.696,0.533-1.435,1.017-2.177,1.484c-1.586,0.996-3.182,1.978-4.784,2.945
		c-0.944,0.57-1.263,1.295-0.955,2.409c0.905,3.273,3.227,5.165,6.135,6.541c0.383,0.182,0.704,0.492,1.055,0.741
		c-0.307,0.312-0.587,0.656-0.925,0.929c-2.848,2.309-5.812,4.487-8.533,6.936c-2.29,2.061-3.031,4.819-2.333,7.86
		c1.392,6.072,5.419,9.831,11.133,11.561c9.986,3.024,19.367,1.288,27.918-4.63c5.07-3.512,8.709-8.084,9.813-14.37
		c1.24-7.064-2.684-13.196-9.716-14.467c-4.649-0.841-9.407-1.086-14.112-1.623c-2.193-0.251-4.421-0.396-6.558-0.904
		c-1.813-0.432-2.72-1.913-2.552-3.355c0.167-1.425,1.68-2.747,3.411-2.886c3.482-0.28,6.896-0.823,10.109-2.294
		c8.509-3.891,12.459-10.702,11.469-19.872c-0.133-1.235-0.416-2.453-0.666-3.892C271.457,418.777,274.242,419.47,276.449,417.419z
		 M250.633,460.45c3.462,0.102,7.396,0.316,11.204,1.43c3.349,0.98,6.1,2.69,6.911,6.424c0.981,4.517-1.189,9.009-5.56,11.422
		c-4.095,2.261-8.539,2.446-13.047,1.98c-3.862-0.396-7.332-1.733-10.114-4.584c-3.665-3.755-3.685-8.951-0.014-12.693
		C243.292,461.088,245.046,460.398,250.633,460.45z M259.293,433.257c-2.014,6.451-7.883,7.337-12.482,5.275
		c-3.917-1.755-5.628-5.209-6.521-9.147c-0.345-1.517-0.429-3.091-0.633-4.64c0.081-2.225,0.453-4.355,1.407-6.354
		c2.936-6.16,10.141-5.793,14.131-3.003c1.711,1.195,2.905,2.82,3.646,4.745C260.502,424.446,260.672,428.838,259.293,433.257z"/>
	<path fill-rule="evenodd" clip-rule="evenodd" fill="#4FAA41" d="M222.691,453.815c-1.391-0.222-2.782-0.511-4.128-0.921
		c-2.376-0.726-2.665-1.172-2.691-3.688c-0.071-6.998-0.12-13.997-0.198-20.995c-0.036-3.146-0.413-6.25-1.378-9.262
		c-2.536-7.93-10.311-12.188-18.095-9.844c-4.312,1.3-8.016,3.717-11.464,6.556c-0.332,0.273-0.683,0.524-1.258,0.965
		c0-0.642-0.015-0.967,0.003-1.292c0.081-1.488,0.24-2.976,0.23-4.463c-0.007-0.781-0.306-1.56-0.453-2.245
		c-2.94,0.885-5.577,1.781-8.268,2.458c-2.699,0.68-5.452,1.142-8.183,1.693c-1.355,0.276-2.352,1.094-2.328,2.026
		c0.035,1.316,1.125,1.57,2.081,1.963c1.728,0.707,3.449,1.424,5.155,2.18c1.223,0.54,1.716,1.551,1.703,2.86
		c-0.089,9.1-0.144,18.201-0.273,27.301c-0.041,2.878-0.77,3.632-3.597,4.267c-0.409,0.093-0.822,0.176-1.235,0.247
		c-2.614,0.45-2.692,0.553-2.512,3.317c0.01,0.152,0.02,0.305,0.016,0.458c-0.03,1.063,0.435,1.406,1.529,1.394
		c6.952-0.08,13.906-0.122,20.859-0.096c2.979,0.011,3.301-0.22,3.242-3.285c-0.008-0.45-0.096-0.897-0.144-1.314
		c-1.702-0.284-3.329-0.49-4.925-0.843c-1.668-0.369-2.264-1.052-2.422-2.75c-0.146-1.556-0.19-3.125-0.207-4.689
		c-0.076-7.151-0.143-14.303-0.176-21.455c-0.008-1.799,0.324-3.471,1.98-4.63c2.51-1.754,5.261-2.767,8.303-2.977
		c6.2-0.425,10.914,3.254,11.252,9.435c0.416,7.629,0.292,15.286,0.386,22.932c0.008,0.569-0.095,1.143-0.171,1.711
		c-0.149,1.119-0.695,1.958-1.829,2.25c-1.105,0.287-2.227,0.545-3.355,0.715c-1.685,0.252-1.722,0.237-1.847,1.94
		c-0.028,0.378,0.002,0.764,0.04,1.142c0.2,1.978,0.203,1.918,2.208,1.901c6.725-0.056,13.447-0.094,20.171-0.08
		c2.81,0.006,3.011-0.127,3.038-3.024c0.002-0.229-0.021-0.459-0.008-0.688C223.784,454.237,223.455,453.936,222.691,453.815z"/>
	<path fill-rule="evenodd" clip-rule="evenodd" fill="#4FAA41" d="M316.643,409.585c-7.049-1.723-13.737-0.44-20.087,2.843
		c-6.173,3.192-10.298,8.125-11.868,14.938c-1.587,6.886-0.828,13.608,2.215,20c1.979,4.157,5.027,7.363,9.173,9.45
		c9.714,4.891,21.593,2.669,29.209-3.873c6.01-5.161,8.219-12.031,8.348-20.535c-0.078-0.848-0.164-2.49-0.388-4.115
		C331.969,419.035,325.559,411.764,316.643,409.585z M321.983,445.351c-1.873,7.364-8.243,10.636-15.433,8.107
		c-3.668-1.29-6.405-3.755-8.252-7.089c-4.242-7.653-5.058-15.795-2.644-24.146c1.607-5.563,6.186-8.607,11.632-8.226
		c4.866,0.34,8.608,2.677,11.354,6.638c2.895,4.182,4.015,8.935,4.31,13.93c0.047,0.799,0.007,1.603,0.007,2.404
		c0.114,0.015,0.228,0.028,0.342,0.041C322.875,439.795,322.674,442.635,321.983,445.351z"/>
	<path fill-rule="evenodd" clip-rule="evenodd" fill="#4FAA41" d="M139.312,409.463c-7.42-1.694-14.366-0.018-20.804,3.751
		c-5.567,3.26-9.162,8.125-10.544,14.484c-1.292,5.943-0.766,11.779,1.338,17.472c1.28,3.465,3.224,6.519,6.07,8.897
		c5.995,5.009,13.003,6.272,20.461,4.876c6.312-1.18,11.858-3.985,15.894-9.234c3.771-4.905,5.209-10.539,5.356-16.646
		c-0.219-1.933-0.277-3.899-0.687-5.791C154.358,417.858,148.854,411.642,139.312,409.463z M145.362,445.321
		c-1.809,7.33-8.279,10.687-15.42,8.151c-4.582-1.627-7.564-4.983-9.451-9.286c-3.026-6.905-3.641-14.102-1.683-21.387
		c1.498-5.572,6.019-9.679,12.936-8.693c4.244,0.604,7.557,2.77,10.029,6.219c3.333,4.651,4.431,9.979,4.585,15.576
		c0.013,0.383,0.002,0.765,0.002,1.147c0.093,0.014,0.186,0.028,0.278,0.042C146.227,439.838,146.025,442.637,145.362,445.321z"/>
</g>
</svg>
