<?xml version="1.0" encoding="utf-8"?>
<!-- Generator: Adobe Illustrator 16.0.0, SVG Export Plug-In . SVG Version: 6.00 Build 0)  -->
<!DOCTYPE svg PUBLIC "-//W3C//DTD SVG 1.1//EN" "http://www.w3.org/Graphics/SVG/1.1/DTD/svg11.dtd">
<svg version="1.1" id="Layer_1" xmlns="http://www.w3.org/2000/svg" xmlns:xlink="http://www.w3.org/1999/xlink" x="0px" y="0px"
	 width="500px" height="500px" viewBox="0 0 500 500" enable-background="new 0 0 500 500" xml:space="preserve">
<g>
	<g>
		<path fill-rule="evenodd" clip-rule="evenodd" fill="#94795D" d="M340.854,391.169c0.662-1.272,1.295-2.391,1.832-3.554
			c0.341-0.741,0.861-0.888,1.601-0.866c4.427,0.124,8.854,0.261,13.282,0.306c3.765,0.037,7.531-0.031,11.297-0.076
			c4.242-0.05,8.487-0.273,12.723-0.15c5.646,0.163,11.144,1.268,16.25,3.78c6.095,3.002,10.71,7.578,13.856,13.606
			c2.008,3.848,3.17,7.932,3.636,12.265c0.674,6.281,0.23,12.417-1.762,18.426c-2.47,7.444-7.155,13.146-13.665,17.414
			c-5.013,3.285-10.51,5.226-16.4,6.336c-6.232,1.174-12.49,0.795-18.742,0.816c-6.858,0.025-13.716-0.125-20.574-0.199
			c-1.198-0.013-1.371-0.237-1.051-1.383c0.098-0.351,0.183-0.705,0.292-1.051c0.668-2.103,1.027-2.198,3.16-2.547
			c1.477-0.24,3.007-0.797,4.245-1.616c0.717-0.476,1.016-1.719,1.295-2.675c0.242-0.835,0.256-1.753,0.262-2.635
			c0.1-13.376,0.202-26.752,0.253-40.128c0.014-3.38-0.065-6.764-0.253-10.136c-0.133-2.368-1.396-3.981-4.208-4.541
			c-2.186-0.436-4.393-0.771-6.588-1.157C341.419,391.374,341.253,391.297,340.854,391.169z M403.651,423.562
			c-0.296-2.66-0.442-5.349-0.918-7.978c-1.144-6.299-3.899-11.786-8.745-16.089c-7.83-6.951-17.26-8.016-27.143-7.189
			c-2.25,0.188-2.733,0.958-2.771,3.27c-0.054,3.28-0.112,6.562-0.116,9.843c-0.015,10.406-0.014,20.813,0,31.219
			c0.004,2.959,0.036,5.92,0.125,8.877c0.092,3.022,1.19,5.578,4.151,6.753c4.667,1.849,9.576,2.068,14.476,1.316
			c7.825-1.201,13.298-5.76,16.968-12.593C402.589,435.567,403.411,429.648,403.651,423.562z"/>
		<path fill-rule="evenodd" clip-rule="evenodd" fill="#94795D" d="M422.67,458.998c-0.093-1.621,0.571-2.963,1.39-4.192
			c0.22-0.33,0.989-0.315,1.513-0.423c1.491-0.303,2.991-0.567,4.479-0.884c1.584-0.337,2.414-1.401,2.637-2.95
			c0.147-1.024,0.289-2.061,0.301-3.094c0.097-8.191,0.191-16.384,0.229-24.576c0.038-8.202,0.009-16.405,0.007-24.608
			c0-0.521-0.003-1.044-0.034-1.565c-0.16-2.639-1.433-4.006-4.051-4.394c-1.893-0.28-3.779-0.603-5.675-0.861
			c-0.7-0.096-0.954-0.432-0.699-1.049c0.439-1.062,0.854-2.155,1.473-3.109c0.227-0.352,1.006-0.486,1.529-0.478
			c2.711,0.041,5.421,0.242,8.132,0.238c7.866-0.013,15.731-0.135,23.597-0.143c4.549-0.004,8.94,0.789,13.016,2.963
			c4.492,2.395,6.999,6.09,7.717,11.13c0.753,5.296-0.854,9.755-4.722,13.299c-1.592,1.46-3.647,2.415-5.494,3.599
			c-0.17,0.11-0.342,0.214-0.6,0.376c1.709,0.627,3.341,1.17,4.928,1.819c4.638,1.903,8.332,4.877,10.284,9.62
			c1.542,3.745,1.54,7.652,0.629,11.536c-1.423,6.076-5.427,10.119-10.634,13.18c-4.887,2.873-10.176,4.541-15.806,4.826
			c-5.197,0.264-10.415,0.163-15.623,0.221c-1.005,0.011-2.012,0.037-3.017,0.014c-5.017-0.115-10.034-0.243-15.051-0.372
			C423.021,459.117,422.917,459.065,422.67,458.998z M444.3,435.208c0.017,0,0.034,0,0.051,0c0,2.571-0.034,5.142,0.012,7.711
			c0.031,1.664-0.029,3.374,0.33,4.978c0.538,2.396,1.635,4.554,4.321,5.243c3.631,0.934,7.337,1.122,11.008,0.483
			c4.595-0.801,8.265-3.104,10.278-7.485c1.495-3.254,1.716-6.704,1.201-10.227c-0.68-4.643-3.143-8.006-7.242-10.218
			c-2.688-1.449-5.554-2.334-8.609-2.45c-3.421-0.131-6.848-0.138-10.271-0.24c-0.96-0.028-1.094,0.462-1.089,1.249
			C444.312,427.905,444.3,431.557,444.3,435.208z M451.586,417.73c1.872-0.097,3.992-0.123,6.094-0.331
			c4.029-0.399,6.871-2.433,8.352-6.288c0.752-1.955,0.722-3.973,0.744-6.01c0.058-5.3-3.036-9.644-8.069-11.439
			c-3.886-1.388-7.894-1.411-11.926-1.302c-1.635,0.044-2.365,0.761-2.387,2.407c-0.095,7.146-0.152,14.294-0.24,21.441
			c-0.011,0.852,0.354,1.218,1.182,1.248C447.337,417.531,449.337,417.631,451.586,417.73z"/>
		<path fill-rule="evenodd" clip-rule="evenodd" fill="#50382B" d="M41.182,454.873c-0.102,1.318-0.2,2.591-0.285,3.69
			c-2.656,0-5.105-0.021-7.552,0.005c-4.615,0.049-9.23,0.125-13.845,0.189c-0.149,0.003-0.3,0.043-0.445,0.026
			c-0.662-0.077-1.858-0.075-1.893-0.273c-0.194-1.102-0.133-2.254-0.085-3.387c0.005-0.133,0.453-0.296,0.716-0.358
			c1.195-0.28,2.406-0.49,3.593-0.8c2.237-0.582,3.026-1.547,3.132-3.861c0.12-2.604,0.241-5.212,0.256-7.818
			c0.037-6.411-0.003-12.823,0.024-19.234c0.006-1.499-0.515-2.616-1.913-3.229c-1.665-0.73-3.334-1.451-5.02-2.13
			c-0.797-0.321-1.831-0.497-1.737-1.57c0.095-1.089,1.096-1.373,2.044-1.59c3.915-0.891,7.833-1.767,11.734-2.72
			c1.257-0.307,2.462-0.83,3.966-1.35c0.077,0.81,0.224,1.587,0.207,2.359c-0.027,1.228-0.214,2.451-0.228,3.678
			c-0.004,0.416,0.211,0.971,0.52,1.2c0.189,0.142,0.817-0.121,1.129-0.358c3.338-2.54,6.866-4.73,10.895-6.009
			c6.241-1.982,11.595-0.147,15.343,5.231c1.323,1.897,1.323,1.899,3.156,0.568c3.145-2.283,6.438-4.298,10.115-5.627
			c8.079-2.921,15.836,0.785,18.65,8.92c1.021,2.953,1.415,6.006,1.405,9.119c-0.023,6.899-0.051,13.797-0.072,20.696
			c-0.005,1.708,0.563,2.68,2.188,3.213c1.826,0.601,3.715,1.007,5.768,1.549c-0.156,1.166-0.326,2.437-0.475,3.559
			c-2.337,0-4.485-0.015-6.633,0.003c-5.249,0.046-10.499,0.074-15.746,0.196c-0.916,0.021-1.152-0.203-1.2-1.059
			c-0.152-2.736-0.178-2.734,2.4-3.354c0.289-0.07,0.578-0.143,0.866-0.222c2.519-0.685,3.36-1.46,3.38-4.014
			c0.057-7.337,0.21-14.69-0.16-22.012c-0.384-7.598-6.415-11.638-13.775-9.694c-2.401,0.634-4.58,1.743-6.6,3.182
			c-0.685,0.488-0.814,1.051-0.759,1.909c0.207,3.232,0.336,6.473,0.362,9.712c0.046,5.668-0.026,11.336-0.003,17.004
			c0.01,2.299,0.792,3.178,3.063,3.709c1.124,0.264,2.248,0.52,3.372,0.777c0.216,0.05,0.622,0.087,0.624,0.144
			c0.046,1.076,0.089,2.156,0.038,3.232c-0.032,0.675-0.555,0.736-1.139,0.722c-3.278-0.083-6.557-0.189-9.834-0.183
			c-3.986,0.009-7.972,0.123-11.958,0.19c-0.219,0.004-0.439,0.001-0.938,0.001c0-1.144-0.053-2.241,0.039-3.327
			c0.021-0.265,0.479-0.631,0.797-0.71c1.298-0.323,2.632-0.505,3.931-0.829c1.668-0.415,2.465-1.268,2.561-2.962
			c0.445-7.851,0.767-15.71,0.026-23.556c-0.144-1.521-0.641-3.072-1.275-4.473c-2.01-4.444-6.539-6.3-11.763-4.963
			c-2.481,0.634-4.721,1.773-6.836,3.205c-1.001,0.678-1.475,1.582-1.475,2.719c0.001,7.83,0.029,15.66,0.052,23.49
			c0.003,1.007,0.019,2.013,0.042,3.02c0.048,2.105,0.941,3.215,3.033,3.672C38.301,454.386,39.659,454.595,41.182,454.873z"/>
		<path fill-rule="evenodd" clip-rule="evenodd" fill="#4F382B" d="M277.348,411.27c0.606,2.943,0.593,5.592-1.571,7.602
			c-2.15,1.997-4.866,1.323-7.52,0.876c0.245,1.401,0.519,2.588,0.649,3.791c0.966,8.938-2.884,15.575-11.177,19.368
			c-3.132,1.432-6.458,1.961-9.852,2.234c-1.687,0.137-3.162,1.424-3.324,2.812c-0.164,1.406,0.719,2.851,2.486,3.271
			c2.083,0.496,4.253,0.636,6.391,0.881c4.586,0.524,9.222,0.762,13.753,1.582c6.853,1.237,10.678,7.214,9.469,14.099
			c-1.076,6.126-4.622,10.583-9.565,14.003c-8.332,5.77-17.474,7.461-27.207,4.514c-5.568-1.687-9.493-5.348-10.85-11.266
			c-0.68-2.965,0.042-5.652,2.274-7.66c2.652-2.387,5.54-4.512,8.317-6.76c0.328-0.267,0.602-0.602,0.9-0.904
			c-0.342-0.245-0.655-0.547-1.029-0.724c-2.833-1.342-5.096-3.184-5.977-6.375c-0.3-1.085,0.009-1.793,0.93-2.348
			c1.562-0.942,3.117-1.899,4.661-2.87c0.725-0.456,1.443-0.928,2.122-1.447c0.921-0.703,0.84-1.229-0.262-1.635
			c-2.562-0.944-4.839-2.313-6.607-4.423c-2.951-3.523-3.786-7.712-3.544-12.14c0.377-6.913,4.131-11.468,10.233-14.396
			c7.253-3.479,14.531-3.702,21.925-0.528c2.734,1.174,5.618,1.424,8.55,1.218C273.717,413.89,275.633,413.06,277.348,411.27z
			 M250.617,460.807c-5.445-0.049-7.153,0.623-10.349,3.878c-3.578,3.647-3.559,8.71,0.013,12.37
			c2.711,2.778,6.092,4.079,9.857,4.469c4.392,0.452,8.723,0.272,12.714-1.931c4.259-2.353,6.375-6.729,5.418-11.133
			c-0.792-3.638-3.471-5.304-6.734-6.259C257.825,461.115,253.991,460.905,250.617,460.807z M239.922,426.01
			c0.198,1.51,0.28,3.044,0.615,4.522c0.87,3.837,2.538,7.205,6.355,8.915c4.482,2.009,10.203,1.146,12.166-5.143
			c1.344-4.306,1.179-8.586-0.44-12.789c-0.723-1.876-1.886-3.46-3.553-4.625c-3.889-2.718-10.911-3.076-13.771,2.926
			C240.364,421.765,240,423.842,239.922,426.01z"/>
		<path fill-rule="evenodd" clip-rule="evenodd" fill="#4F372B" d="M184.959,410.303c0.143,0.668,0.435,1.426,0.44,2.188
			c0.011,1.449-0.145,2.898-0.224,4.349c-0.017,0.316-0.002,0.635-0.002,1.259c0.561-0.429,0.902-0.674,1.226-0.94
			c3.361-2.766,6.97-5.12,11.172-6.388c7.586-2.285,15.163,1.865,17.635,9.593c0.939,2.937,1.308,5.959,1.342,9.026
			c0.076,6.82,0.125,13.641,0.194,20.461c0.024,2.451,0.306,2.887,2.622,3.594c1.311,0.4,2.667,0.682,4.022,0.897
			c0.745,0.118,1.064,0.411,1.027,1.141c-0.012,0.222,0.01,0.447,0.008,0.67c-0.026,2.823-0.223,2.953-2.961,2.947
			c-6.553-0.014-13.105,0.023-19.657,0.078c-1.954,0.017-1.958,0.073-2.152-1.853c-0.037-0.368-0.066-0.745-0.039-1.113
			c0.122-1.659,0.158-1.646,1.8-1.891c1.101-0.165,2.192-0.417,3.27-0.697c1.104-0.286,1.637-1.102,1.782-2.192
			c0.074-0.554,0.174-1.112,0.167-1.667c-0.092-7.452,0.029-14.915-0.376-22.35c-0.33-6.022-4.923-9.607-10.965-9.193
			c-2.964,0.204-5.647,1.19-8.091,2.901c-1.614,1.129-1.938,2.759-1.931,4.513c0.032,6.969,0.098,13.938,0.172,20.908
			c0.017,1.524,0.059,3.054,0.201,4.57c0.154,1.655,0.734,2.32,2.36,2.679c1.554,0.345,3.14,0.545,4.799,0.821
			c0.047,0.407,0.133,0.844,0.141,1.282c0.056,2.986-0.257,3.212-3.161,3.202c-6.777-0.026-13.553,0.016-20.329,0.093
			c-1.066,0.012-1.52-0.324-1.49-1.358c0.004-0.148-0.006-0.298-0.015-0.447c-0.176-2.693-0.101-2.793,2.448-3.232
			c0.403-0.069,0.804-0.15,1.204-0.24c2.756-0.619,3.466-1.354,3.506-4.158c0.126-8.868,0.178-17.737,0.266-26.606
			c0.013-1.276-0.468-2.263-1.659-2.789c-1.663-0.735-3.342-1.435-5.025-2.124c-0.932-0.382-1.993-0.628-2.027-1.912
			c-0.024-0.908,0.947-1.706,2.269-1.975c2.66-0.538,5.343-0.988,7.973-1.649C179.523,412.038,182.093,411.164,184.959,410.303z"/>
		<path fill-rule="evenodd" clip-rule="evenodd" fill="#4F382B" d="M331.504,433.477c-0.124,8.287-2.278,14.984-8.134,20.014
			c-7.423,6.375-19,8.542-28.465,3.775c-4.041-2.035-7.011-5.159-8.94-9.21c-2.966-6.229-3.706-12.781-2.158-19.492
			c1.531-6.638,5.55-11.445,11.567-14.557c6.187-3.2,12.706-4.449,19.575-2.771c8.69,2.123,14.937,9.211,16.18,18.231
			C331.345,431.051,331.429,432.652,331.504,433.477z M321.436,437.964c-0.112-0.013-0.223-0.025-0.334-0.04
			c0-0.781,0.041-1.563-0.007-2.343c-0.287-4.867-1.378-9.502-4.2-13.575c-2.675-3.86-6.321-6.138-11.064-6.47
			c-5.307-0.372-9.769,2.595-11.336,8.017c-2.353,8.138-1.557,16.073,2.577,23.531c1.801,3.249,4.467,5.65,8.042,6.908
			c7.006,2.466,13.214-0.724,15.039-7.9C320.826,443.445,321.022,440.677,321.436,437.964z"/>
		<path fill-rule="evenodd" clip-rule="evenodd" fill="#4F372B" d="M159.448,434.116c-0.143,5.95-1.545,11.441-5.221,16.223
			c-3.933,5.115-9.337,7.85-15.488,9c-7.268,1.36-14.097,0.129-19.94-4.753c-2.775-2.318-4.668-5.295-5.917-8.671
			c-2.051-5.548-2.563-11.234-1.304-17.027c1.347-6.197,4.85-10.938,10.276-14.116c6.272-3.672,13.042-5.307,20.274-3.655
			c9.299,2.123,14.664,8.183,16.649,17.357C159.177,430.316,159.233,432.233,159.448,434.116z M149.268,438.041
			c-0.09-0.014-0.18-0.026-0.27-0.04c0-0.373,0.009-0.746-0.001-1.118c-0.151-5.453-1.221-10.647-4.47-15.18
			c-2.41-3.362-5.638-5.473-9.774-6.061c-6.742-0.961-11.147,3.042-12.607,8.472c-1.907,7.1-1.309,14.113,1.64,20.842
			c1.839,4.194,4.746,7.466,9.211,9.05c6.959,2.472,13.266-0.8,15.027-7.943C148.671,443.446,148.867,440.719,149.268,438.041z"/>
	</g>
	<g>
		<path fill-rule="evenodd" clip-rule="evenodd" fill="#439934" d="M321.728,131.033c4.791,13.853,8.238,27.997,9.374,42.657
			c1.408,18.187,0.764,36.249-3.069,54.135c-0.105,0.49-0.326,0.955-0.491,1.433c-1.203,0.002-2.431-0.148-3.604,0.036
			c-9.934,1.563-19.858,3.179-29.784,4.786c-10.26,1.661-20.532,3.26-30.773,5.033c-3.63,0.628-8.12-0.121-9.587,4.896
			c-0.04,0.138-0.459,0.161-0.702,0.238c0.165-9.999,0.331-19.994,0.496-29.992c-0.169-24.122-0.338-48.247-0.507-72.369
			c1.594-0.274,3.186-0.559,4.78-0.82c7.819-1.279,15.636-2.577,23.46-3.822c9.337-1.482,18.683-2.926,28.026-4.371
			C313.47,132.236,317.6,131.646,321.728,131.033z"/>
		<path fill-rule="evenodd" clip-rule="evenodd" fill="#45A538" d="M243.221,331.682c-5.042-4.335-10.263-8.481-15.095-13.04
			c-26.01-24.534-45.035-53.412-54.408-88.227c-2.58-9.581-4.302-19.317-4.854-29.219c-0.388-6.93-0.949-13.921-0.459-20.813
			c1.304-18.334,3.954-36.489,9.331-54.148c0.046-0.152,0.194-0.274,0.295-0.411c0.523,0.693,1.274,1.311,1.539,2.095
			c5.249,15.456,10.458,30.926,15.641,46.402c16.285,48.64,32.55,97.288,48.865,145.917c0.318,0.95,1.146,1.729,1.737,2.585
			C244.95,325.774,244.085,328.729,243.221,331.682z"/>
		<path fill-rule="evenodd" clip-rule="evenodd" fill="#46A037" d="M321.728,131.033c-4.127,0.612-8.257,1.203-12.38,1.839
			c-9.344,1.445-18.689,2.889-28.026,4.371c-7.824,1.245-15.641,2.543-23.46,3.822c-1.595,0.262-3.187,0.546-4.78,0.82
			c-0.012-1.039-0.023-2.078-0.037-3.118c-0.158-2.562-0.427-5.123-0.46-7.687c-0.205-16.346-0.333-32.693-0.536-49.038
			c-0.126-10.23-0.314-20.461-0.521-30.688c-0.128-6.355-0.266-12.713-0.551-19.063c-0.154-3.411-0.706-6.804-0.927-10.215
			c-0.126-1.96,0.047-3.936,0.087-5.906c2.438,4.725,4.822,9.481,7.327,14.169c3.958,7.413,10.268,12.873,15.947,18.83
			C295.858,72.725,311.794,100.103,321.728,131.033z"/>
		<path fill-rule="evenodd" clip-rule="evenodd" fill="#409433" d="M253.091,244.247c0.243-0.077,0.662-0.101,0.702-0.238
			c1.467-5.017,5.957-4.268,9.587-4.896c10.242-1.773,20.513-3.372,30.773-5.033c9.926-1.607,19.85-3.224,29.784-4.786
			c1.174-0.185,2.402-0.034,3.604-0.036c-1.857,6.624-3.317,13.393-5.674,19.835c-2.675,7.308-5.909,14.44-9.341,21.432
			c-5.132,10.451-11.527,20.199-18.956,29.131c-5.726,6.886-12.108,13.254-18.505,19.54c-3.537,3.475-7.703,6.308-11.585,9.432
			c-0.336-0.23-0.671-0.46-1.006-0.687c-1.208-1.031-2.415-2.063-3.622-3.095c-1.249-2.738-2.5-5.477-3.749-8.217
			c-2.582-9.616-3.935-19.405-4.16-29.356c0.023-0.559,0.046-1.115,0.07-1.672c0.171-2.414,0.341-4.828,0.512-7.239
			c0.17-2.472,0.396-4.94,0.501-7.418C252.403,262.045,252.739,253.145,253.091,244.247z"/>
		<path fill-rule="evenodd" clip-rule="evenodd" fill="#4FAA41" d="M253.091,244.247c-0.352,8.897-0.688,17.798-1.066,26.696
			c-0.105,2.478-0.331,4.946-0.501,7.418c-0.757,0.285-1.513,0.57-2.282,0.86c-5.07-14.926-10.145-29.693-15.104-44.498
			c-8.206-24.497-16.314-49.028-24.509-73.53c-6.615-19.777-13.285-39.536-19.992-59.281c-0.314-0.926-1.213-1.648-1.84-2.467
			c4.87-8.956,9.739-17.909,14.608-26.863c0.502,0.871,1.165,1.688,1.48,2.625c6.757,20.002,13.504,40.006,20.193,60.031
			c8.703,26.051,17.35,52.119,26.042,78.175c0.347,1.04,0.919,2.003,1.465,3.169c0.889-1.034,1.446-1.681,2.001-2.327
			C253.422,224.253,253.256,234.248,253.091,244.247z"/>
		<path fill-rule="evenodd" clip-rule="evenodd" fill="#4AA73C" d="M187.798,99.445c0.626,0.818,1.526,1.541,1.84,2.467
			c6.707,19.745,13.377,39.504,19.992,59.281c8.195,24.502,16.303,49.033,24.509,73.53c4.959,14.805,10.034,29.572,15.104,44.498
			c0.769-0.29,1.524-0.575,2.282-0.86c-0.17,2.411-0.34,4.825-0.512,7.239c-0.154,0.557-0.309,1.11-0.464,1.667
			c-0.793,7.927-1.461,15.87-2.43,23.776c-0.485,3.962-1.518,7.854-2.304,11.778c-0.591-0.856-1.419-1.635-1.737-2.585
			c-16.315-48.629-32.581-97.277-48.865-145.917c-5.183-15.477-10.393-30.946-15.641-46.402c-0.265-0.784-1.016-1.401-1.539-2.095
			C181.287,117.03,184.542,108.238,187.798,99.445z"/>
		<path fill-rule="evenodd" clip-rule="evenodd" fill="#57AE47" d="M253.587,214.255c-0.555,0.646-1.112,1.293-2.001,2.327
			c-0.546-1.166-1.119-2.129-1.465-3.169c-8.692-26.056-17.34-52.124-26.042-78.175c-6.689-20.025-13.436-40.029-20.193-60.031
			c-0.315-0.937-0.978-1.754-1.48-2.625c6.022-7.922,12.045-15.844,18.068-23.766c0.571,0.76,1.383,1.438,1.676,2.293
			c5.016,14.686,9.986,29.387,14.929,44.097c4.617,13.739,9.165,27.499,13.835,41.217c0.313,0.918,1.402,1.569,2.13,2.345
			c0.013,1.04,0.025,2.079,0.037,3.118C253.25,166.008,253.418,190.133,253.587,214.255z"/>
		<path fill-rule="evenodd" clip-rule="evenodd" fill="#60B24F" d="M253.044,138.768c-0.728-0.775-1.818-1.427-2.13-2.345
			c-4.67-13.718-9.218-27.478-13.835-41.217c-4.942-14.71-9.913-29.411-14.929-44.097c-0.293-0.855-1.105-1.533-1.676-2.293
			c5.875-5.753,11.568-11.713,17.681-17.2c5.435-4.877,9.802-10.104,10.001-17.809c0.008-0.322,0.174-0.639,0.433-1.533
			c0.644,1.62,1.095,2.757,1.547,3.896c-0.04,1.971-0.213,3.946-0.087,5.906c0.222,3.411,0.773,6.804,0.927,10.215
			c0.285,6.35,0.423,12.707,0.551,19.063c0.207,10.228,0.395,20.458,0.521,30.688c0.202,16.345,0.331,32.692,0.536,49.038
			C252.617,133.645,252.886,136.206,253.044,138.768z"/>
		<path fill-rule="evenodd" clip-rule="evenodd" fill="#A9AA88" d="M245.814,322.822c0.786-3.925,1.819-7.816,2.304-11.778
			c0.968-7.906,1.637-15.85,2.43-23.776c0-0.003,0.198-0.029,0.198-0.029l0.197,0.034c0.226,9.951,1.579,19.74,4.16,29.356
			c-0.525,0.693-1.267,1.311-1.543,2.092c-2.168,6.117-4.214,12.282-6.395,18.397c-0.298,0.836-1.13,1.485-1.715,2.222
			c-0.743-2.554-1.485-5.105-2.229-7.658C244.085,328.729,244.95,325.774,245.814,322.822z"/>
		<path fill-rule="evenodd" clip-rule="evenodd" fill="#B6B598" d="M245.45,339.34c0.584-0.736,1.417-1.386,1.715-2.222
			c2.18-6.115,4.226-12.28,6.395-18.397c0.277-0.781,1.019-1.398,1.543-2.092c1.249,2.74,2.5,5.479,3.747,8.22
			c-0.739,1.048-1.762,1.997-2.171,3.163c-2.452,6.999-4.725,14.061-7.174,21.063c-0.297,0.844-1.303,1.442-1.98,2.154
			C246.834,347.264,246.142,343.302,245.45,339.34z"/>
		<path fill-rule="evenodd" clip-rule="evenodd" fill="#C2C1A7" d="M247.525,351.229c0.677-0.712,1.683-1.311,1.98-2.154
			c2.45-7.002,4.722-14.063,7.174-21.063c0.409-1.166,1.432-2.115,2.171-3.163c1.208,1.029,2.415,2.061,3.624,3.092
			c-1.752,1.73-2.723,3.73-2.138,6.258c-0.367,1.202-0.733,2.403-1.1,3.604c-0.501,0.617-1.227,1.155-1.472,1.859
			c-2.503,7.173-4.894,14.383-7.416,21.55c-0.32,0.91-1.207,1.623-1.831,2.425C248.186,359.499,247.856,355.365,247.525,351.229z"/>
		<path fill-rule="evenodd" clip-rule="evenodd" fill="#CECDB7" d="M248.517,363.636c0.624-0.802,1.51-1.515,1.831-2.425
			c2.522-7.167,4.912-14.377,7.416-21.55c0.246-0.704,0.971-1.242,1.472-1.859c-0.506,5.516-1.012,11.032-1.518,16.548
			c-0.405,0.47-0.995,0.876-1.188,1.422c-1.717,4.817-3.333,9.669-5.056,14.483c-0.356,0.991-1.036,1.87-1.566,2.799
			c-0.472-0.617-1.316-1.214-1.354-1.857C248.402,368.685,248.508,366.157,248.517,363.636z"/>
		<path fill-rule="evenodd" clip-rule="evenodd" fill="#DBDAC7" d="M249.907,373.054c0.53-0.929,1.209-1.808,1.566-2.799
			c1.723-4.814,3.338-9.666,5.056-14.483c0.194-0.546,0.783-0.952,1.188-1.422c0.012,3.619,0.025,7.241,0.037,10.861
			c-1.212,3.107-2.423,6.215-3.635,9.322C252.715,374.04,251.312,373.547,249.907,373.054z"/>
		<path fill-rule="evenodd" clip-rule="evenodd" fill="#EBE9DC" d="M254.119,374.533c1.212-3.107,2.423-6.215,3.635-9.322
			c0.235,3.447,0.47,6.896,0.75,11.029C256.653,375.52,255.386,375.026,254.119,374.533z"/>
		<path fill-rule="evenodd" clip-rule="evenodd" fill="#CECDB7" d="M260.335,334.198c-0.584-2.527,0.386-4.527,2.138-6.258
			c0.335,0.227,0.67,0.456,1.006,0.687C262.431,330.483,261.383,332.341,260.335,334.198z"/>
		<path fill-rule="evenodd" clip-rule="evenodd" fill="#4FAA41" d="M250.943,287.272l-0.197-0.034c0,0-0.198,0.026-0.198,0.029
			c0.156-0.557,0.31-1.11,0.464-1.667C250.989,286.157,250.966,286.714,250.943,287.272z"/>
	</g>
</g>
</svg>
