<?xml version="1.0" encoding="utf-8"?>
<!-- Generator: Adobe Illustrator 16.0.0, SVG Export Plug-In . SVG Version: 6.00 Build 0)  -->
<!DOCTYPE svg PUBLIC "-//W3C//DTD SVG 1.1//EN" "http://www.w3.org/Graphics/SVG/1.1/DTD/svg11.dtd">
<svg version="1.1" id="Layer_1" xmlns="http://www.w3.org/2000/svg" xmlns:xlink="http://www.w3.org/1999/xlink" x="0px" y="0px"
	 width="500px" height="500px" viewBox="0 0 500 500" enable-background="new 0 0 500 500" xml:space="preserve">
<path fill-rule="evenodd" clip-rule="evenodd" fill="#4FAA41" d="M353.483,223.758c-1.449-18.708-5.848-36.753-11.961-54.431
	c-12.674-39.468-33.009-74.399-61.653-104.454c-7.245-7.604-15.296-14.569-20.348-24.027c-3.196-5.984-6.237-12.051-9.349-18.081
	c-0.576-1.452-1.153-2.905-1.974-4.972c-0.33,1.142-0.542,1.546-0.552,1.957c-0.256,9.833-5.827,16.499-12.761,22.725
	c-7.802,7.002-15.065,14.604-22.562,21.946c-7.685,10.107-15.369,20.217-23.054,30.324c-6.214,11.425-12.428,22.851-18.642,34.276
	c-4.153,11.219-8.307,22.44-12.461,33.66c-0.128,0.174-0.317,0.33-0.376,0.525c-6.859,22.53-10.24,45.696-11.905,69.091
	c-0.625,8.795,0.091,17.714,0.586,26.555c0.704,12.635,2.902,25.058,6.194,37.285c11.959,44.422,36.235,81.269,69.422,112.575
	c6.165,5.816,12.496,11.106,18.93,16.639c1.104-3.769,1.98-7.538,2.98-11.305c0,0,0,0,0-0.001c1-3.754,2.01-7.487,2.689-11.252
	c-0.68,3.765-1.443,7.498-2.194,11.253c-1.104,3.768-2.124,7.536-3.228,11.305c0.949,3.257,1.938,6.514,2.886,9.769
	c0.882,5.057,1.786,10.113,2.669,15.17c0.421,5.278,0.854,10.555,1.275,15.833c-0.013,3.215-0.142,6.44,0.05,9.646
	c0.05,0.822,1.128,1.581,1.731,2.371c1.792,0.628,3.586,1.259,5.376,1.889c1.616,0.628,3.234,1.258,5.597,2.177
	c-0.359-5.275-0.657-9.673-0.958-14.073c-0.015-4.619-0.03-9.24-0.045-13.86c0.644-7.038,1.29-14.075,1.936-21.114
	c0.468-1.531,0.936-3.066,1.403-4.597c1.337-2.371,2.674-4.741,4.013-7.111c4.953-3.985,10.27-7.601,14.782-12.035
	c8.163-8.021,16.307-16.147,23.613-24.932c9.478-11.396,17.636-23.832,24.185-37.17c4.381-8.922,8.508-18.023,11.92-27.347
	c3.009-8.218,4.871-16.856,7.24-25.309c0.212-0.609,0.492-1.204,0.626-1.829C354.459,270.01,355.279,246.962,353.483,223.758z
	 M261.293,416.629c-1.046-2.294-2.092-4.589-3.14-6.886C259.201,412.038,260.247,414.334,261.293,416.629
	c1.541,1.315,3.081,2.63,4.622,3.945C264.374,419.259,262.834,417.944,261.293,416.629z"/>
</svg>
