<svg xmlns="http://www.w3.org/2000/svg" viewBox="0 0 128 128" ><path d="m44.193 70.806c-4.515 0-6.7835-3.2474-6.7835-6.8503 0-3.5808 2.3576-6.8058 6.828-6.8058 1.7126 0 2.9358 0.3781 3.9812 1.0453l-1.29 2.1129c-0.73396-0.46706-1.5346-0.7562-2.7357-0.7562-2.4243 0-3.7143 1.935-3.7143 4.337 0 2.469 1.2455 4.515 3.7588 4.515 1.4234 0 2.2686-0.48908 2.9581-1.0009l1.1788 2.0242c-0.66723 0.60029-2.2464 1.3787-4.1813 1.3787zm9.5859-8.0958c-1.4457 0-1.9127 1.2233-1.9127 3.0026s0.57827 3.047 2.0239 3.047c1.4679 0 1.9572-1.201 1.9572-2.9803-0.022241-1.7793-0.60051-3.0693-2.0684-3.0693zm0.04448 8.0958c-3.3807 0-4.8486-2.5355-4.8486-5.0267 0-2.491 1.4679-5.0932 4.8486-5.0932s4.9153 2.5132 4.9153 5.0043c-0.02224 2.469-1.5124 5.1157-4.9153 5.1157zm9.1633-9.8751v6.183c0 0.95637 0.33362 1.4234 1.2457 1.4234 0.97839 0 1.7123-0.93413 1.9127-1.1565v-6.4499h2.7134v6.8058c0 1.2677 0.13345 2.2466 0.26689 2.8246h-2.6914c-0.08874-0.26689-0.17793-0.88964-0.19995-1.29-0.51177 0.66723-1.5126 1.5124-3.1138 1.5124-2.1351 0-2.8913-1.3567-2.8913-3.136v-6.7391h2.7579v0.02224zm12.566 9.8751c-3.1138 0-5.0265-2.0242-5.0265-5.0487 0-3.2472 2.1574-5.071 5.1155-5.071 1.5569 0 2.491 0.46706 2.9581 0.7562l-0.8674 1.8683c-0.42236-0.26689-1.0451-0.55603-2.0017-0.55603-1.5124 0-2.3129 1.1788-2.3129 2.9358 0 1.7568 0.75598 3.0248 2.3798 3.0248 1.1121 0 1.7568-0.40034 2.046-0.57827l0.82292 1.8236c-0.44482 0.28936-1.3345 0.84539-3.1138 0.84539zm10.409-0.22241v-6.2053c0-0.95637-0.33362-1.4234-1.2455-1.4234-0.97861 0-1.7348 0.91189-1.935 1.1565v6.4499h-2.7134v-14.234h2.7134v5.7382c0.4893-0.53379 1.4234-1.379 3.0026-1.379 2.1354 0 2.8913 1.3567 2.8913 3.136v6.7391h-2.7134zm7.651-2.1129c0.17793 0.06672 0.57827 0.19995 1.29 0.19995 1.4012 0 2.2686-1.0231 2.2686-3.0026 0-1.7793-0.60051-2.8469-1.9795-2.8469-0.80068 0-1.4232 0.51155-1.5791 0.71172zm0-12.121v5.3379c0.44482-0.44482 1.29-1.0009 2.3576-1.0009 2.4023 0 4.0924 1.6458 4.0924 4.982 0 3.3139-2.2241 5.1379-5.1599 5.1379-2.2016 0-3.5361-0.55603-4.0256-0.77844v-13.701h2.7357zm12.922 9.9863h-0.33361c-1.4899 0-2.5353 0.44482-2.5353 1.5346 0 0.68948 0.55603 0.97839 1.1565 0.97839 0.91188 0 1.4457-0.53356 1.7123-0.80068zm0.28914 4.2481c-0.089-0.24488-0.13367-0.73418-0.15569-1.0233-0.42258 0.51155-1.3345 1.2677-2.6914 1.2677-1.6456 2.23e-4 -2.9134-0.97839-2.9134-2.7132 0-2.5132 2.58-3.4249 5.1377-3.4249h0.33361v-0.53401c0-0.80068-0.33361-1.29-1.5344-1.29-1.2457 0-2.0907 0.64499-2.4465 0.88965l-1.1788-1.6458c0.57827-0.53379 1.868-1.4012 3.9365-1.4012 2.6689 0 3.9367 1.0231 3.9367 3.6031v3.3807c0 1.3345 0.13367 2.2684 0.26689 2.8913zm7.3173 0.22241c-1.7348 0-2.8469-0.51177-3.4474-0.91211l0.91211-1.8905c0.37788 0.26712 1.312 0.8009 2.3796 0.8009 1.0008 0 1.5569-0.28936 1.5569-0.82292 0-0.62275-1.0896-0.8009-2.4688-1.4681-1.3345-0.64477-2.1129-1.3787-2.1129-2.8469 0-1.8238 1.4457-2.9803 3.6476-2.9803 1.6456 0 2.6689 0.51155 3.1138 0.7562l-0.93412 1.846c-0.3781-0.22241-1.1345-0.60051-2.0462-0.60051-0.91166 0-1.3122 0.31138-1.3122 0.82292 0 0.62275 0.88965 0.77844 2.0017 1.2233 1.5126 0.62297 2.6022 1.3345 2.6022 2.9358-0.0445 2.0686-1.5124 3.1362-3.8922 3.1362zm11.187-6.2275c-0.0222-1.0676-0.44482-1.935-1.6011-1.935-1.0678 0-1.6905 0.68948-1.8682 1.935zm-1.0231 4.2258c1.3122 0 2.0239-0.42258 2.5132-0.66723l0.8674 1.7348c-0.64499 0.35586-1.6236 0.93413-3.6253 0.93413-3.2474 0-5.0932-2.0242-5.0932-5.1155 0-3.0693 2.1129-5.0043 4.8041-5.0043 3.047 0 4.5152 2.1129 4.1816 5.716h-6.072c0.1112 1.4457 0.8674 2.402 2.4243 2.402z"/><path d="m14.724 49.276c-8.118 0-14.724 6.5834-14.724 14.724 0 8.118 6.5834 14.724 14.724 14.724 8.118 0 14.724-6.5834 14.724-14.724 0-8.1403-6.6056-14.724-14.724-14.724zm9.9418 17.304c0 0.88964-0.51155 1.6681-1.5124 1.846-1.7348 0.31115-5.3824 0.4893-8.4294 0.4893-3.047 0-6.6946-0.17815-8.4294-0.4893-1.0009-0.17793-1.5124-0.95637-1.5124-1.846v-5.7382c0-0.88965 0.68948-1.7126 1.5124-1.846 0.51155-0.08896 1.7126-0.17793 2.6467-0.17793 0.35586 0 0.64499 0.26689 0.64499 0.68948v4.0256l5.1599-0.11121 5.1599 0.11121v-4.0256c0-0.42258 0.28913-0.68948 0.64499-0.68948 0.93413 0 2.1351 0.08896 2.6467 0.17793 0.84516 0.13345 1.5124 0.95637 1.5124 1.846-0.04448 1.8905-0.04448 3.8255-0.04448 5.7382z" fill="#EA2328"/></svg>
