<svg xmlns="http://www.w3.org/2000/svg" viewBox="0 0 128 128"><path d="M14.219 55.379c-.992 0-1.649.465-2.09 1.484l-3.934 8.442-3.906-8.442c-.437-1.02-1.098-1.484-2.09-1.484a2.204 2.204 0 0 0-1.926 3.27l5.97 12.816c.027.086.054.14.109.222.25.465.66.797 1.156.989.222.082.469.14.715.14s.496-.058.714-.14c.5-.168.91-.524 1.157-.989.027-.054.054-.136.11-.222l5.94-12.785c.192-.332.301-.72.301-1.102-.027-1.21-1.015-2.2-2.226-2.2ZM25 68.387a4.224 4.224 0 0 1-4.207-4.207A4.221 4.221 0 0 1 25 59.973a4.221 4.221 0 0 1 4.207 4.207A4.221 4.221 0 0 1 25 68.387Zm8.61-4.207c0-4.785-3.88-8.692-8.665-8.692-4.785 0-8.664 3.907-8.664 8.692s3.907 8.691 8.692 8.691a8.816 8.816 0 0 0 4.62-1.32l.192-.14.082.222c.301.742.992 1.238 1.79 1.238 1.07 0 1.925-.855 1.925-1.953v-6.742h.027Zm9.984 4.207a4.23 4.23 0 0 1-4.211-4.207 4.227 4.227 0 0 1 4.21-4.207 4.226 4.226 0 0 1 4.208 4.207 4.229 4.229 0 0 1-4.207 4.207Zm8.605-4.207c0-4.785-3.875-8.692-8.66-8.692-4.789 0-8.664 3.907-8.664 8.692s3.906 8.691 8.688 8.691a8.806 8.806 0 0 0 4.62-1.32l.223-.14.082.222c.301.742.989 1.238 1.79 1.238 1.07 0 1.921-.855 1.921-1.953v-6.742Zm9.875 4.07a4.104 4.104 0 0 1-4.097-4.098 4.104 4.104 0 0 1 4.097-4.097 4.104 4.104 0 0 1 4.098 4.097 4.11 4.11 0 0 1-4.098 4.098Zm4.813 3.328a2.012 2.012 0 0 0 1.87 1.266 2.02 2.02 0 0 0 2.009-2.008v-19.61c0-1.101-.938-2.011-2.036-2.011-1.101 0-2.035.91-2.035 2.012v5.664l-.164-.137c-1.375-.852-2.863-1.293-4.457-1.293-4.785 0-8.664 3.906-8.664 8.691s3.906 8.692 8.692 8.692a8.862 8.862 0 0 0 4.62-1.32l.137-.083Zm28.41-13.258c-1.348-1.43-3.297-2.144-5.828-2.144-.086 0-2.09.136-3.465.906a2.249 2.249 0 0 0-2.149-1.566 2.27 2.27 0 0 0-2.253 2.199v12.93a2.267 2.267 0 0 0 2.253 2.253 2.264 2.264 0 0 0 2.258-2.257v-6.875c0-1.43 1.043-2.97 3.356-2.97 2.226 0 3.215 1.595 3.215 2.724v7.148a2.269 2.269 0 0 0 2.257 2.258 2.266 2.266 0 0 0 2.254-2.258v-6.82c.028-.246.192-3.328-1.898-5.528ZM76.21 55.488a2.273 2.273 0 0 0-2.281 2.2V70.53a2.285 2.285 0 0 0 3.898 1.617c.426-.43.668-1.011.668-1.617V57.687a2.279 2.279 0 0 0-2.285-2.199Zm.055-6.297c1.32 0 2.394 1.07 2.394 2.391a2.402 2.402 0 0 1-2.394 2.395 2.396 2.396 0 0 1-2.391-2.395 2.39 2.39 0 0 1 2.39-2.39Zm0 0" /><path d="M109.848 62.336c-.082 0-.164-.027-.25-.027-.825 0-1.676-.192-1.676-2.2v-6.656c0-3-1.402-4.18-4.234-4.18h-2.422c-.797 0-1.457.575-1.457 1.403 0 .797.66 1.43 1.457 1.43h.824c.91 0 1.543.578 1.543 1.953v6.543c0 2.972 2.199 3.218 3.383 3.3v.055c-1.184.113-3.383.332-3.383 3.3v6.548c0 1.375-.633 2.144-1.543 2.144h-.824c-.797 0-1.457.606-1.457 1.434 0 .793.66 1.426 1.457 1.426h2.421c2.833 0 4.235-1.43 4.235-4.426v-6.684c0-2.008.851-2.199 1.676-2.199.086 0 .168 0 .25-.027a1.546 1.546 0 0 0 1.457-1.57c0-.852-.66-1.512-1.457-1.567ZM128 63.875c0-.715-.414-1.32-1.02-1.594-.027 0-.054-.027-.082-.027l-11.25-6.078a1.947 1.947 0 0 0-1.941.02 1.97 1.97 0 0 0-.973 1.683c0 .855.414 1.46 1.32 1.844l7.758 4.156-7.757 4.148c-.907.414-1.348.993-1.348 1.844a1.963 1.963 0 0 0 2.918 1.707l11.246-6.078c.027 0 .027-.027.055-.027.66-.25 1.074-.883 1.074-1.594Zm0 0" fill="#00b4f0"/></svg>
