<svg viewBox="0 0 128 128" xmlns="http://www.w3.org/2000/svg">
<path d="m126.79 70.959-15.632-7.5516 14.809-6.926c1.1485-0.53876 1.8226-1.9596 1.0284-3.2841l-1.5389-1.7815c-0.99319-1.086-2.0717-1.8782-3.3819-1.3628l-11.002 4.1473c-0.24011 0.09029-0.50354 0.1017-0.7506 0.03175l-4.259-1.2065c-0.31601-0.0893-0.65534-0.0055-0.89346 0.22027l-4.5556 4.3245c-1.021-5.8534-3.4002-11.24-6.8168-15.811l6.6601-0.05209c0.28674-0.0025 0.55016-0.15925 0.68857-0.41077l2.3574-4.2758c0.12253-0.22275 0.31651-0.39787 0.55016-0.49709l10.898-4.6469c0.66923-0.28525 1.081-1.6758 0.9525-2.5777l-0.35471-3.2544c-0.28972-0.93464-1.6019-1.7572-2.2294-1.5255l-16.393 5.714 5.5741-15.369c0.4311-1.1931-0.0967-2.6739-1.595-3.0495l-2.348-0.17115c-1.4704-0.06548-2.793 0.13643-3.3551 1.4278l-4.8473 10.712c-0.10567 0.23366-0.28377 0.42763-0.508 0.55314l-3.8646 2.1585c-0.28674 0.16024-0.46732 0.45938-0.47625 0.7873l-0.16371 6.2815c-4.6623-3.2762-10.107-5.5096-16.004-6.3584l4.6757-4.7496c0.20142-0.20489 0.27682-0.50205 0.19695-0.77738l-1.3568-4.6906c-0.07044-0.24408-0.05755-0.50502 0.03721-0.74067l4.4207-10.992c0.27186-0.67469-0.42019-1.9497-1.1495-2.4963l-2.5514-2.0504c-0.86618-0.45541-2.3758-0.10964-2.6556 0.49758l-7.5516 15.633-6.926-14.809c-0.53876-1.149-1.9591-1.8227-3.2841-1.0289l-1.7815 1.5394c-1.0859 0.99318-1.8782 2.0712-1.3623 3.3819l4.1469 11.002c0.09078 0.2406 0.1017 0.50354 0.03175 0.75059l-1.206 4.2595c-0.08979 0.31552-6e-3 0.65484 0.22027 0.89297l4.324 4.5556c-5.8534 1.0215-11.24 3.4002-15.811 6.8168l-0.05259-6.6596c-2e-3 -0.28724-0.15925-0.55017-0.41027-0.68908l-4.2763-2.3574c-0.22225-0.12254-0.39737-0.31601-0.49709-0.54967l-4.6464-10.899c-0.28525-0.66923-1.6758-1.081-2.5782-0.952l-3.2544 0.35421c-0.93415 0.29022-1.7572 1.6024-1.5255 2.2294l5.7145 16.394-15.369-5.5741c-1.1936-0.4316-2.6744 0.09674-3.05 1.5949l-0.17115 2.348c-0.06548 1.4699 0.13643 2.793 1.4278 3.3546l10.712 4.8473c0.23416 0.10616 0.42813 0.28426 0.55314 0.5085l2.159 3.8646c0.15974 0.28625 0.45938 0.46732 0.7873 0.47575l6.2811 0.16371c-3.2757 4.6623-5.5096 10.107-6.3579 16.004l-4.7501-4.6757c-0.20439-0.20141-0.50155-0.27632-0.77738-0.19695l-4.6906 1.3568c-0.24408 0.07094-0.50453 0.05755-0.74017-0.03721l-10.992-4.4207c-0.67518-0.27136-1.9497 0.42069-2.4963 1.1495l-2.0509 2.5519c-0.45542 0.86568-0.10914 2.3753 0.49808 2.6551l15.632 7.5516-14.809 6.926c-1.149 0.53876-1.8227 1.9596-1.0289 3.2842l1.5394 1.7815c0.99318 1.086 2.0717 1.8782 3.3819 1.3628l11.002-4.1474c0.24011-0.0903 0.50304-0.1017 0.75059-0.0317l4.259 1.2065c0.31552 0.0893 0.65534 5e-3 0.89347-0.22027l4.5556-4.3244c1.021 5.8534 3.4002 11.24 6.8168 15.811l-6.6601 0.0521c-0.28674 2e-3 -0.55017 0.15925-0.68858 0.41077l-2.3574 4.2758c-0.12303 0.22275-0.31651 0.39737-0.55017 0.49758l-10.898 4.6464c-0.66923 0.28526-1.0815 1.6758-0.9525 2.5777l0.35421 3.2544c0.29022 0.93464 1.6024 1.7572 2.2299 1.5255l16.393-5.714-5.5741 15.369c-0.43111 1.1931 0.09674 2.674 1.5949 3.0495l2.348 0.17116c1.4699 0.0655 2.793-0.13643 3.3546-1.4278l4.8473-10.712c0.10616-0.23366 0.28426-0.42764 0.5085-0.55315l3.8646-2.1585c0.28625-0.16024 0.46732-0.45939 0.47575-0.78731l0.16421-6.2815c4.6623 3.2762 10.107 5.5096 16.004 6.3584l-4.6762 4.7496c-0.20092 0.20488-0.27632 0.50204-0.19645 0.77738l1.3568 4.6906c0.07045 0.24408 0.05706 0.50502-0.0377 0.74067l-4.4207 10.992c-0.27136 0.67469 0.42068 1.9497 1.1499 2.4964l2.5514 2.0504c0.86569 0.45542 2.3753 0.10964 2.6556-0.49758l7.551-15.633 6.9265 14.809c0.53876 1.149 1.9591 1.8227 3.2841 1.0289l1.781-1.5394c1.086-0.99318 1.8787-2.0717 1.3628-3.3819l-4.1469-11.002c-0.09079-0.24061-0.1017-0.50354-0.03175-0.75059l1.206-4.2595c0.0893-0.31551 0.0055-0.65484-0.22026-0.89297l-4.324-4.5561c5.8529-1.021 11.24-3.3997 15.811-6.8168l0.05259 6.6606c2e-3 0.28674 0.15925 0.55017 0.41027 0.68858l4.2763 2.3574c0.22225 0.12254 0.39737 0.31601 0.49709 0.54967l4.6464 10.899c0.28525 0.66923 1.6758 1.081 2.5782 0.95201l3.2539-0.35421c0.93464-0.29022 1.7572-1.6024 1.526-2.2294l-5.7145-16.394 15.369 5.5741c1.1936 0.4316 2.6744-0.0967 3.05-1.595l0.17115-2.348c0.0655-1.4699-0.13692-2.793-1.4278-3.3546l-10.712-4.8473c-0.23416-0.10617-0.42813-0.28426-0.55364-0.5085l-2.1585-3.8646c-0.16024-0.28625-0.45938-0.46733-0.7873-0.47576l-6.2816-0.16371c3.2762-4.6623 5.5096-10.107 6.3584-16.004l4.7501 4.6757c0.20439 0.20141 0.50155 0.27632 0.77688 0.19695l4.6911-1.3568c0.24359-0.0709 0.50453-0.0576 0.74018 0.0372l10.992 4.4207c0.67518 0.27137 1.9496-0.42068 2.4963-1.1494l2.0504-2.5519c0.45591-0.86568 0.10964-2.3753-0.49758-2.6551zm-36.136-11.106h-7.9053c-0.57497-2.6129-1.6813-5.0249-3.2013-7.1195l5.5409-5.5409c2.863 3.5878 4.8339 7.9182 5.5657 12.66zm-16.331-12.044c-2.1734-1.3896-4.6429-2.3555-7.2961-2.7761v-7.8348c4.7848 0.53479 9.1897 2.3202 12.883 5.0239zm-0.96242 16.19c0 5.1713-4.192 9.3638-9.3638 9.3638-5.1713 0-9.3638-4.1925-9.3638-9.3638s4.1925-9.3638 9.3638-9.3638c5.1718 0 9.3638 4.1925 9.3638 9.3638zm-13.51-26.658v7.9053c-2.6129 0.57547-5.0249 1.6818-7.119 3.2013l-5.5414-5.5409c3.5882-2.863 7.9182-4.8339 12.66-5.5657zm-12.044 16.331c-1.3891 2.1739-2.3555 4.6434-2.7756 7.2961h-7.8353c0.53529-4.7848 2.3207-9.1897 5.0239-12.883zm-10.467 14.473h7.9053c0.57497 2.6129 1.6813 5.0249 3.2013 7.1194l-5.5414 5.5409c-2.8625-3.5878-4.8334-7.9182-5.5652-12.66zm16.331 12.044c2.1739 1.3896 4.6434 2.3554 7.2961 2.7761v7.8348c-4.7843-0.53479-9.1897-2.3202-12.883-5.024zm14.473 10.468v-7.9053c2.6124-0.57547 5.0249-1.6818 7.119-3.2013l5.5409 5.5409c-3.5878 2.863-7.9182 4.8339-12.66 5.5657zm12.044-16.331c1.3891-2.1739 2.355-4.6434 2.7756-7.2961h7.8353c-0.53529 4.7848-2.3207 9.1896-5.0239 12.883z" fill="#e16426"/>
</svg>