<svg viewBox="0 0 128 128" xmlns="http://www.w3.org/2000/svg">
<path d="m69.977 0.50586c-0.54072-0.044715-1.1478 0.16214-1.2891 0.46875l-5.0859 10.527-4.6621-9.9707c-0.36275-0.77362-1.3188-1.2278-2.2109-0.69336l-1.2012 1.0371c-0.73112 0.6687-1.2634 1.3929-0.91602 2.2754l2.791 7.4082c0.06101 0.16184 0.069544 0.33951 0.021484 0.50586l-0.8125 2.8672c-0.0606 0.21248-0.005521 0.44122 0.14844 0.60156l2.9121 3.0664c-3.941 0.68776-7.5688 2.2895-10.646 4.5898l-0.035157-4.4824c-0.0014-0.1934-0.10629-0.37133-0.27539-0.46484l-2.8809-1.5879c-0.14962-0.08245-0.26685-0.21177-0.33398-0.36914l-3.1289-7.3379c-0.19213-0.45059-1.1268-0.7275-1.7344-0.64062l-2.1914 0.23828c-0.62895 0.19544-1.1833 1.0778-1.0273 1.5l3.8477 11.039-10.348-3.7539c-0.80364-0.29058-1.8018 0.06551-2.0547 1.0742l-0.11523 1.5801c-0.04402 0.98967 0.09142 1.8816 0.96094 2.2598l7.2129 3.2637c0.15752 0.0715 0.28888 0.19079 0.37305 0.3418l1.4531 2.6016c0.10768 0.19263 0.30852 0.31464 0.5293 0.32031l4.2305 0.11133c-2.2055 3.1391-3.7101 6.805-4.2812 10.775l-3.1973-3.1484c-0.13763-0.13568-0.33773-0.18621-0.52344-0.13281l-3.1582 0.91406c-0.16439 0.04778-0.34133 0.038829-0.5-0.025391l-7.4004-2.9766c-0.4546-0.18271-1.3117 0.28274-1.6797 0.77344l-1.3809 1.7188c-0.30665 0.58284-0.074896 1.5987 0.33398 1.7871l10.525 5.084-9.9707 4.6641c-0.77359 0.36272-1.2278 1.3191-0.69336 2.2109l1.0371 1.1992c0.6687 0.73118 1.3952 1.265 2.2773 0.91797l7.4082-2.793c0.16159-0.060879 0.33723-0.067591 0.50391-0.019531l2.8672 0.8125c0.21248 0.06004 0.44124 0.002721 0.60156-0.14844l3.0684-2.9121c0.68743 3.941 2.2895 7.5669 4.5898 10.645l-4.4844 0.035156c-0.19314 0.0014-0.3697 0.10791-0.46289 0.27734l-1.5879 2.8789c-0.08302 0.14989-0.21368 0.26651-0.37109 0.33398l-7.3379 3.1289c-0.45059 0.19213-0.72747 1.1291-0.64062 1.7363l0.23828 2.1914c0.19543 0.62929 1.0795 1.1814 1.502 1.0254l11.037-3.8457-3.7539 10.348c-0.29028 0.80329 0.06559 1.7999 1.0742 2.0527l1.582 0.11523c0.98967 0.04416 1.8797-0.091419 2.2578-0.96094l3.2637-7.2129c0.07146-0.15732 0.19079-0.28853 0.3418-0.37305l2.6035-1.4531c0.19263-0.10796 0.31464-0.30852 0.32031-0.5293l0.10938-4.2285c3.1391 2.2058 6.805 3.7078 10.775 4.2793l-3.1484 3.1992c-0.1354 0.13791-0.18649 0.33805-0.13281 0.52344l0.91406 3.1582c0.04736 0.16434 0.03855 0.3394-0.02539 0.49805l-2.9766 7.4004c-0.18271 0.45425 0.28442 1.3136 0.77539 1.6816l1.7168 1.3809c0.58286 0.30662 1.6003 0.072917 1.7891-0.33594l5.084-10.525 4.6621 9.9707c0.36275 0.77362 1.3188 1.2278 2.2109 0.69336l1.1992-1.0371c0.73119-0.6687 1.2653-1.3952 0.91797-2.2773l-2.791-7.4062c-0.06101-0.162-0.069534-0.33952-0.021484-0.50586l0.8125-2.8691c0.06004-0.21244 0.00282-0.43927-0.14844-0.59961l-2.9121-3.0684c3.9407-0.68743 7.5689-2.2891 10.646-4.5898l0.035157 4.4844c0.0015 0.19314 0.10629 0.37166 0.27539 0.46484l2.8809 1.5859c0.14962 0.08247 0.26686 0.21376 0.33398 0.37109l3.1289 7.3379c0.19213 0.45059 1.1268 0.72748 1.7344 0.64062l2.1914-0.23828c0.62929-0.19542 1.183-1.0798 1.0273-1.502l-3.8477-11.037 10.348 3.752c0.80366 0.29059 1.8018-0.063553 2.0547-1.0723l0.11523-1.582c0.04402-0.9897-0.091697-1.8797-0.96094-2.2578l-7.2129-3.2637c-0.15752-0.07146-0.28854-0.19079-0.37305-0.3418l-1.4531-2.6035c-0.10782-0.19263-0.30851-0.31463-0.5293-0.32031l-4.2305-0.10938c2.2059-3.1391 3.7098-6.805 4.2812-10.775l3.1992 3.1484c0.13763 0.13568 0.33612 0.18621 0.52148 0.13281l3.1582-0.91406c0.16388-0.04778 0.34136-0.038829 0.5 0.025391l7.4004 2.9766c0.45462 0.18271 1.3116-0.2828 1.6797-0.77344l1.3809-1.7188c0.30695-0.58284 0.07486-1.5987-0.33398-1.7871l-10.525-5.0859 9.9707-4.6621c0.77326-0.36276 1.2261-1.3192 0.69141-2.2109l-1.0352-1.1992c-0.6687-0.73116-1.3952-1.265-2.2773-0.91797l-7.4082 2.793c-0.16159 0.06088-0.33756 0.067591-0.50391 0.019531l-2.8672-0.8125c-0.21274-0.06004-0.44124-0.00272-0.60156 0.14844l-3.0684 2.9121c-0.68743-3.9411-2.2895-7.5689-4.5898-10.646l4.4844-0.035156c0.19314-0.0014 0.36967-0.10593 0.46289-0.27539l1.5879-2.8789c0.08247-0.14988 0.2139-0.26914 0.37109-0.33594l7.3379-3.1289c0.45056-0.19213 0.72715-1.1271 0.64062-1.7344l-0.23828-2.1914c-0.19519-0.62928-1.0795-1.1834-1.502-1.0273l-11.037 3.8477 3.7539-10.348c0.29025-0.80332-0.065523-1.7998-1.0742-2.0527l-1.582-0.11523c-0.99003-0.044022-1.8793 0.091452-2.2578 0.96094l-3.2637 7.2109c-0.07132 0.15726-0.19087 0.28854-0.3418 0.37305l-2.6035 1.4531c-0.19314 0.1079-0.31428 0.31047-0.32031 0.53125l-0.10938 4.2285c-3.1391-2.2058-6.805-3.7098-10.775-4.2812l3.1484-3.1973c0.13568-0.13792 0.18452-0.33805 0.13086-0.52344l-0.91211-3.1582c-0.04736-0.16439-0.03885-0.33938 0.02539-0.49805l2.9766-7.4023c0.18296-0.45426-0.28433-1.3117-0.77539-1.6797l-1.7168-1.3809c-0.1458-0.07666-0.3178-0.11986-0.49805-0.13477zm-3.9355 24.703c3.2216 0.36005 6.1872 1.5624 8.6738 3.3828l-3.7617 3.7617c-1.4633-0.93559-3.1257-1.5859-4.9121-1.8691v-5.2754zm-4.832 0.097657v5.3223c-1.7592 0.38746-3.3831 1.1312-4.793 2.1543l-3.7305-3.7305c2.4159-1.9276 5.3308-3.2534 8.5234-3.7461zm16.992 6.6328c1.9276 2.4156 3.2553 5.3308 3.748 8.5234h-5.3223c-0.38712-1.7592-1.1329-3.3827-2.1562-4.793l3.7305-3.7305zm-28.863 0.59961 3.7617 3.7617c-0.93527 1.4636-1.5863 3.128-1.8691 4.9141h-5.2754c0.3604-3.2216 1.5628-6.1891 3.3828-8.6758zm14.662 4.4102c3.4821 0 6.3047 2.8229 6.3047 6.3047 0 3.4818-2.8226 6.3047-6.3047 6.3047-3.4818 0-6.3047-2.8229-6.3047-6.3047 0-3.4818 2.8229-6.3047 6.3047-6.3047zm12.77 8.3457h5.2754c-0.36038 3.2216-1.5608 6.1871-3.3809 8.6738l-3.7617-3.7617c0.93525-1.4637 1.584-3.1261 1.8672-4.9121zm-30.717 0.75195h5.3223c0.38714 1.7592 1.1328 3.3828 2.1562 4.793l-3.7324 3.7305c-1.9273-2.4156-3.2534-5.3308-3.7461-8.5234zm25.533 7.6777 3.7305 3.7305c-2.4156 1.9276-5.3308 3.2553-8.5234 3.748v-5.3223c1.7589-0.38746 3.383-1.1332 4.793-2.1562zm-14.537 0.42969c1.4637 0.93562 3.1261 1.5859 4.9121 1.8691v5.2754c-3.2212-0.36008-6.1872-1.5624-8.6738-3.3828l3.7617-3.7617zm22.535 46.654c-0.2896 6e-3 -0.53986 0.106-0.75 0.30079-0.21163 0.20103-0.31641 0.45232-0.31641 0.7539 0 0.30157 0.10482 0.55034 0.31641 0.7461 0.21691 0.19574 0.47774 0.29296 0.7793 0.29296 0.30686 0 0.56823-0.09972 0.78516-0.30078 0.21692-0.2063 0.32422-0.4526 0.32422-0.73828 0-0.30158-0.10735-0.55287-0.32422-0.7539-0.21692-0.20104-0.4783-0.30079-0.78516-0.30079-0.0098 0-0.019827-2e-4 -0.029297 0zm-39.051 0.54688v11.381h1.8887v-5.6035h0.033203c0.03176 0.0688 0.1194 0.20073 0.26758 0.39649l3.9609 5.207h2.4609l-4.8105-5.9219 4.4688-5.459h-2.2617l-3.8184 4.959c-0.11646 0.14284-0.2041 0.27422-0.26758 0.39063h-0.033203v-5.3496h-1.8887zm13.713 3.0625c-1.1481 0-2.0263 0.51267-2.6348 1.5391h-0.03125v-1.3476h-1.8496v8.127h1.8496v-4.6348c0-0.64017 0.18182-1.1699 0.54688-1.5879 0.36506-0.42325 0.82785-0.63476 1.3887-0.63476 1.074 0 1.6113 0.75892 1.6113 2.2773v4.5801h1.8398v-4.9688c0-1.0846-0.23169-1.913-0.69727-2.4844-0.46558-0.57669-1.1399-0.86523-2.0234-0.86523zm7.9922 0c-1.0882 0.0125-2.0007 0.4025-2.7402 1.1719-0.74598 0.7764-1.1191 1.7844-1.1191 3.0215 0 1.3095 0.33842 2.3261 1.0156 3.0508 0.68249 0.71946 1.6207 1.0801 2.8164 1.0801 1.2169 0 2.0347-0.2281 2.7754-0.6836v-1.4512c-0.72482 0.50725-1.3589 0.75977-2.2266 0.75977-0.77244 0-1.3818-0.19911-1.8262-0.59766-0.43913-0.39856-0.66829-0.96618-0.68945-1.7012h5.5391v-0.68945c0-1.2422-0.30368-2.2133-0.91211-2.9121-0.60842-0.69876-1.469-1.0488-2.5801-1.0488-0.01743 0-0.035445-1.8e-4 -0.052735 0zm23.172 0c-0.42325 0-0.83172 0.05428-1.2285 0.16015-0.39681 0.10058-0.7523 0.25265-1.0645 0.45899-0.31215 0.20104-0.56092 0.45234-0.74609 0.75391-0.18518 0.29628-0.27734 0.63975-0.27734 1.0312 0 0.31745 0.044916 0.59589 0.13477 0.83398 0.08999 0.23807 0.22188 0.45211 0.39648 0.64258 0.17988 0.18518 0.40343 0.35187 0.66797 0.5 0.26981 0.14814 0.57097 0.28765 0.9043 0.41992 0.26981 0.10058 0.51354 0.19218 0.73047 0.27148 0.22219 0.0794 0.41159 0.169 0.57031 0.26954 0.164 0.10057 0.29345 0.21735 0.38867 0.34961 0.09528 0.1269 0.14258 0.28162 0.14258 0.46679 0 0.65604-0.55499 0.98438-1.666 0.98438-0.83063 0-1.5895-0.26138-2.2773-0.78516v1.7051c0.65075 0.29626 1.4198 0.44531 2.3086 0.44531 0.4603 0 0.89787-0.04992 1.3105-0.15039 0.41795-0.0953 0.78412-0.24427 1.1016-0.44531 0.31743-0.20104 0.57322-0.45484 0.76367-0.76172 0.19047-0.30682 0.28516-0.66546 0.28516-1.0781 0-0.33859-0.052351-0.62968-0.1582-0.87304-0.10587-0.24865-0.25738-0.46524-0.45312-0.65039-0.19576-0.19047-0.43444-0.35968-0.71484-0.50782-0.27511-0.14813-0.58637-0.29466-0.93555-0.4375-0.26454-0.09-0.5007-0.17206-0.70703-0.24609-0.20105-0.0794-0.3753-0.16401-0.52344-0.25391-0.14281-0.0953-0.25011-0.20449-0.32422-0.32617-0.074109-0.12175-0.11328-0.26876-0.11328-0.44336 0-0.14284 0.039171-0.27227 0.11328-0.38867 0.07411-0.12175 0.17633-0.22594 0.30859-0.31055 0.1322-0.0846 0.29139-0.14962 0.47656-0.19726 0.19047-0.0476 0.40198-0.07227 0.63476-0.07227 0.74069 0 1.3954 0.19638 1.9668 0.58789v-1.6113c-0.59255-0.2275-1.2644-0.3418-2.0156-0.3418zm-19.361 0.19141 2.6172 4.1426-2.7617 3.9844h2.127l1.4531-2.5176c0.20104-0.34387 0.31086-0.5383 0.33203-0.58594h0.033203c0.12161 0.23807 0.22647 0.43251 0.31641 0.58594l1.4277 2.5176h2.1367l-2.6758-4.0156 2.707-4.1113h-2.0156l-1.8184 3.2461h-0.023437c-0.10058-0.20634-0.2028-0.40777-0.30859-0.60352l-1.4062-2.6426h-2.1406zm12.627 0v7.7285c0 1.8305-0.51771 2.7461-1.5547 2.7461-0.30686 0-0.63267-0.11934-0.97656-0.35742v1.5801c0.36506 0.1693 0.74073 0.25391 1.127 0.25391 1.0423 0 1.8435-0.36307 2.4043-1.0879 0.56081-0.71953 0.8418-1.7449 0.8418-3.0781v-7.7852h-1.8418zm-16.408 1.1367c0.53965 0 0.96268 0.18064 1.2695 0.54297 0.30686 0.35709 0.46346 0.85885 0.46875 1.5059h-3.7617c0.0847-0.61076 0.30877-1.1046 0.67383-1.4824 0.37033-0.37785 0.82055-0.56641 1.3496-0.56641zm13.518 4.4688c-0.36524 0-0.67596 0.12171-0.93164 0.36524-0.25566 0.24349-0.38477 0.53606-0.38477 0.87695 0 0.3348 0.12909 0.6237 0.38477 0.86719 0.25568 0.2374 0.5664 0.35547 0.93164 0.35547 0.37133 0 0.68379-0.1181 0.93945-0.35547 0.26175-0.24349 0.39258-0.53239 0.39258-0.86719 0-0.34089-0.1309-0.63346-0.39258-0.87695-0.25566-0.2435-0.56813-0.36524-0.93945-0.36524zm-4.4863 9.0918v6.2168h0.67188v-0.60547h0.017578c0.28432 0.47022 0.70283 0.70312 1.2578 0.70312 0.59325 0 1.0606-0.20984 1.4023-0.63086 0.34172-0.42376 0.51367-0.98685 0.51367-1.6894 0-0.63153-0.1528-1.1333-0.45898-1.5078-0.30347-0.37725-0.7251-0.56641-1.2637-0.56641-0.63699 0-1.1204 0.27824-1.4512 0.83594h-0.017578v-2.7559h-0.67188zm11.725 0v6.2168h0.67187v-6.2168h-0.67187zm4.9453 0v2.5996h-0.015625c-0.26245-0.45382-0.68291-0.67969-1.2598-0.67969-0.58232 0-1.0485 0.20868-1.3984 0.62696-0.3499 0.41829-0.52539 0.97552-0.52539 1.6699 0 0.64792 0.15631 1.1599 0.4707 1.5371 0.31714 0.37454 0.73994 0.56054 1.2676 0.56054 0.65066 0 1.1337-0.26924 1.4453-0.81054h0.015625v0.71289h0.67188v-6.2168h-0.67188zm-6.6582 0.07813c-0.11075 6e-3 -0.2057 0.04773-0.28516 0.12695-0.08469 0.0821-0.12695 0.18479-0.12695 0.31055 0 0.1258 0.042119 0.23049 0.12695 0.3125 0.0847 0.082 0.1883 0.12304 0.30859 0.12304 0.123 0 0.22579-0.04223 0.31055-0.12695 0.08748-0.0847 0.13281-0.18635 0.13281-0.30664 0-0.1258-0.045333-0.2305-0.13281-0.3125-0.0847-0.0848-0.18753-0.12695-0.31055-0.12695-7e-3 0-0.016027-3.4e-4 -0.023437 0zm-47.844 0.16015c-0.25426 0-0.50395 0.03095-0.75 0.09375-0.24331 0.0628-0.46097 0.15861-0.65234 0.28711-0.19136 0.12843-0.34533 0.29261-0.46289 0.49219-0.11757 0.19683-0.17773 0.42933-0.17773 0.69726 0 0.21871 0.037492 0.41019 0.11133 0.57422 0.07648 0.16132 0.18126 0.30511 0.3125 0.4336 0.13122 0.12844 0.2852 0.2469 0.46289 0.35351 0.17771 0.10657 0.36918 0.21252 0.57422 0.31641 0.1941 0.0985 0.37424 0.19303 0.54102 0.2832 0.1695 0.0875 0.31447 0.17894 0.4375 0.27735 0.123 0.0957 0.21877 0.20276 0.28711 0.32031 0.07104 0.11758 0.10742 0.25549 0.10742 0.41406 0 0.29525-0.10391 0.52307-0.31445 0.68164-0.20777 0.15582-0.5235 0.23242-0.94726 0.23242-0.123 0-0.25744-0.01085-0.40234-0.03515-0.14489-0.0247-0.29064-0.05978-0.43555-0.10352-0.14216-0.0464-0.27893-0.10236-0.41016-0.16797-0.12844-0.0656-0.23907-0.14065-0.33203-0.22265v0.8125c0.07648 0.052 0.17697 0.10077 0.30273 0.14453 0.12844 0.0411 0.26409 0.07421 0.40625 0.10156 0.14216 0.0301 0.28127 0.05271 0.41797 0.06641 0.13666 0.0164 0.25276 0.02343 0.3457 0.02343 0.27886 0 0.5434-0.02853 0.79492-0.08593 0.25151-0.0547 0.47269-0.14379 0.66406-0.26954 0.1941-0.12578 0.34885-0.2887 0.46094-0.48828 0.11479-0.2023 0.17188-0.44848 0.17188-0.73828 0-0.2187-0.044075-0.41254-0.12891-0.58203-0.082049-0.1695-0.19376-0.32346-0.33594-0.46289-0.14216-0.13943-0.30745-0.268-0.49609-0.38281-0.18863-0.11479-0.38714-0.22424-0.59766-0.32813-0.20504-0.10113-0.38832-0.19255-0.54688-0.27734-0.15584-0.0848-0.28713-0.17349-0.39648-0.26367-0.10935-0.0903-0.19259-0.18946-0.25-0.29883-0.05475-0.10935-0.082032-0.24026-0.082032-0.39063 0-0.1613 0.03554-0.29611 0.10938-0.4082 0.07383-0.11214 0.16955-0.20434 0.28711-0.27539 0.11757-0.071 0.25198-0.12219 0.40234-0.15234 0.15036-0.0327 0.30081-0.04883 0.45117-0.04883 0.54405 0 0.99069 0.12075 1.3379 0.36133v-0.77539c-0.26518-0.13941-0.68799-0.20899-1.2676-0.20899zm5.1543 0c-0.87758 0-1.5739 0.28057-2.0879 0.84375-0.51124 0.56044-0.76562 1.315-0.76562 2.2637 0 0.88027 0.24971 1.595 0.75 2.1445 0.50577 0.54951 1.1748 0.82421 2.0059 0.82421 0.34447 0 0.66138-0.0448 0.95117-0.13476l1.1074 0.82812h1.25l-1.6523-1.1836c0.13666-0.0957 0.26448-0.21174 0.38476-0.3457 0.5085-0.55771 0.76367-1.3158 0.76367-2.2754 0-0.88305-0.24853-1.5978-0.74609-2.1445-0.49756-0.54678-1.1517-0.82031-1.9609-0.82031zm3.8633 0.09766v5.8809h3.0508v-0.62305h-2.3613v-5.2578h-0.68945zm-3.9121 0.52539c0.63426 0 1.1313 0.21298 1.4922 0.63672 0.36086 0.42103 0.54102 1.0197 0.54102 1.7988 0 0.75724-0.18483 1.3465-0.55664 1.7676-0.3718 0.421-0.88019 0.63086-1.5254 0.63086-0.60419 0-1.0954-0.22001-1.4727-0.66015-0.37454-0.44563-0.5625-1.0283-0.5625-1.75 0-0.72449 0.19265-1.3102 0.57812-1.7559 0.38547-0.44562 0.88801-0.66797 1.5059-0.66797zm11.439 1.0586c-0.56478 0.0125-1.0165 0.22174-1.3555 0.62696-0.34993 0.41554-0.52539 0.97278-0.52539 1.6699 0 0.64793 0.15944 1.1599 0.47656 1.5371 0.31987 0.37455 0.74385 0.56054 1.2715 0.56054 0.66434 0 1.143-0.27158 1.4355-0.81836h0.015625v2.6524h0.67188v-6.1309h-0.67188v0.58203h-0.015625c-0.25699-0.45383-0.67392-0.67969-1.248-0.67969-0.01839 0-0.036437-3.7e-4 -0.054687 0zm9.7031 0c-0.52692 0.0125-0.97184 0.21923-1.332 0.61914-0.36907 0.41008-0.55273 0.94232-0.55273 1.5957 0 0.69163 0.16882 1.2286 0.50781 1.6113 0.33901 0.38001 0.80519 0.56836 1.3984 0.56836 0.60692 0 1.0958-0.13244 1.4648-0.40039v-0.63281c-0.39642 0.31166-0.83172 0.46875-1.3047 0.46875-0.42102 0-0.75161-0.12861-0.99219-0.38281-0.24054-0.25426-0.36602-0.61454-0.37695-1.082h2.9648v-0.35157c0-0.63151-0.15045-1.125-0.45117-1.4805-0.30073-0.35541-0.72588-0.53321-1.2754-0.53321-0.01713 0-0.033791-3.7e-4 -0.050781 0zm31.885 0c-0.52696 0.0125-0.96988 0.21923-1.3301 0.61914-0.36907 0.41008-0.55469 0.94232-0.55469 1.5957 0 0.69163 0.17077 1.2286 0.50976 1.6113 0.33901 0.38001 0.80518 0.56836 1.3984 0.56836 0.60691 0 1.0938-0.13244 1.4629-0.40039v-0.63281c-0.39642 0.31166-0.83177 0.46875-1.3047 0.46875-0.42101 0-0.75159-0.12861-0.99219-0.38281-0.24055-0.25426-0.366-0.61454-0.37695-1.082h2.9648v-0.35157c0-0.63151-0.15044-1.125-0.45117-1.4805-0.30073-0.35541-0.72588-0.53321-1.2754-0.53321-0.01714 0-0.033792-3.7e-4 -0.050782 0zm-27.303 0.02344c-0.24331 0-0.46332 0.0832-0.66016 0.25-0.19684 0.16405-0.34376 0.39418-0.43945 0.68945h-0.015625v-0.86523h-0.67188v4.1992h0.67188v-2.1406c0-0.4675 0.095719-0.83678 0.28711-1.1074 0.1941-0.27066 0.43364-0.40625 0.7207-0.40625 0.22144 0 0.39221 0.04676 0.50977 0.13672v-0.69727c-0.09292-0.0383-0.22738-0.05859-0.40234-0.05859zm31.885 0c-0.24331 0-0.46331 0.0832-0.66016 0.25-0.19683 0.16405-0.34181 0.39418-0.4375 0.68945h-0.017578v-0.86523h-0.67188v4.1992h0.67188v-2.1406c0-0.4675 0.095721-0.83678 0.28711-1.1074 0.1941-0.27066 0.43561-0.40625 0.72266-0.40625 0.22145 0 0.39026 0.04676 0.50781 0.13672v-0.69727c-0.09291-0.0383-0.22738-0.05859-0.40234-0.05859zm-42.908 0.07422v2.5098c0 1.192 0.50138 1.7871 1.502 1.7871 0.58505 0 1.0161-0.25321 1.2949-0.76171h0.017579v0.66406h0.67188v-4.1992h-0.67188v2.4199c0 0.39096-0.1071 0.70787-0.32031 0.95117-0.2105 0.24058-0.48052 0.36133-0.80859 0.36133-0.678 0-1.0176-0.44236-1.0176-1.3281v-2.4043h-0.66797zm11.531 0 1.6406 4.1914-0.33594 0.79493c-0.1695 0.4046-0.42271 0.60742-0.76172 0.60742-0.12022 0-0.25353-0.02502-0.39844-0.07422v0.60352c0.11757 0.0355 0.26447 0.05273 0.43945 0.05273 0.62333 0 1.1067-0.43532 1.4512-1.3047l1.9316-4.8711h-0.69726l-1.1934 3.2402c-0.04096 0.1421-0.068381 0.24684-0.082031 0.3125h-0.02539c-0.04374-0.1722-0.072288-0.2812-0.085938-0.32226l-1.1348-3.2305h-0.74805zm11.342 0v2.5098c0 1.192 0.4994 1.7871 1.5 1.7871 0.58504 0 1.0161-0.25321 1.2949-0.76171h0.017578v0.66406h0.67188v-4.1992h-0.67188v2.4199c0 0.39096-0.10712 0.70787-0.32031 0.95117-0.21051 0.24058-0.48052 0.36133-0.80859 0.36133-0.678 0-1.0156-0.44236-1.0156-1.3281v-2.4043h-0.66797zm4.8418 0v4.1992h0.67383v-4.1992h-0.67383zm-30.855 0.46875c0.3472 0 0.63326 0.11768 0.85742 0.35547 0.22692 0.23785 0.33984 0.52857 0.33984 0.87304v0.61133c0 0.41009-0.11834 0.75083-0.35352 1.0215-0.23238 0.26791-0.54382 0.40234-0.9375 0.40234-0.35813 0-0.652-0.13681-0.87891-0.41016-0.22692-0.27611-0.33984-0.65672-0.33984-1.1406 0-0.54405 0.1164-0.96568 0.35156-1.2637 0.23512-0.30073 0.55632-0.44922 0.96094-0.44922zm9.5918 0c0.0098-2.1e-4 0.019407 0 0.029297 0 0.32807 0 0.58246 0.10627 0.76562 0.32226 0.18594 0.21598 0.2805 0.51803 0.2832 0.90625h-2.2676c0.05196-0.36634 0.18871-0.66176 0.41016-0.88867 0.21451-0.21982 0.47495-0.33296 0.7793-0.33984zm13.547 0c0.36908 0 0.66098 0.1313 0.87695 0.39648 0.21597 0.26518 0.32422 0.63212 0.32422 1.0996 0 0.55499-0.11527 0.98717-0.34766 1.2988-0.22964 0.31166-0.5497 0.46875-0.95703 0.46875-0.34722 0-0.63442-0.12076-0.86133-0.36133-0.22418-0.2433-0.33594-0.53952-0.33594-0.88672v-0.58593c0-0.41008 0.1196-0.75084 0.35742-1.0215 0.23785-0.27338 0.55242-0.4082 0.94336-0.4082zm13.508 0c0.34447 0 0.62932 0.11638 0.85352 0.35156 0.22417 0.2351 0.33594 0.52232 0.33594 0.86133v0.61914c0 0.41283-0.11837 0.75472-0.35352 1.0254-0.23238 0.27063-0.53561 0.40625-0.91016 0.40625-0.38001 0-0.68324-0.13911-0.91016-0.41797-0.22417-0.28159-0.33594-0.66457-0.33594-1.1484 0-0.53037 0.1164-0.94731 0.35156-1.248 0.23512-0.30073 0.55867-0.44922 0.96875-0.44922zm4.8301 0c0.0098-2.1e-4 0.019417 0 0.029297 0 0.32806 0 0.58441 0.10627 0.76758 0.32226 0.18584 0.21598 0.27846 0.51803 0.28125 0.90625h-2.2676c0.05196-0.36634 0.1887-0.66176 0.41016-0.88867 0.21451-0.21982 0.47497-0.33296 0.7793-0.33984z"/>
</svg>
