<svg viewBox="0 0 128 128" xmlns="http://www.w3.org/2000/svg">
<path d="m5.1406 65.805c1.1797-0.67969 1.1797-2.8828 0.003906-4.918-1.1758-2.0352-3.082-3.1367-4.2617-2.4531-1.1758 0.67969-1.1797 2.8789-0.003906 4.918 1.1758 2.0352 3.0859 3.1328 4.2617 2.4531zm0.007813 4.3594c1.1758 2.0352 1.1758 4.2383-0.003907 4.918-1.1797 0.67969-3.0859-0.41797-4.2617-2.4531-1.1758-2.0391-1.1719-4.2383 0.003907-4.918 1.1797-0.67969 3.0859 0.41797 4.2617 2.4531zm8.0273 4.6406c1.1758 2.0391 1.1758 4.2383-0.003906 4.918-1.1797 0.67969-3.0859-0.41797-4.2617-2.4531-1.1758-2.0352-1.1719-4.2383 0.003906-4.918 1.1797-0.67969 3.0859 0.41797 4.2617 2.4531zm-0.003906-9.2773c1.1758 2.0352 1.1758 4.2383-0.003906 4.918-1.1758 0.67969-3.0859-0.41797-4.2617-2.4531-1.1758-2.0391-1.1719-4.2383 0.007812-4.918 1.1758-0.67969 3.0859 0.41797 4.2578 2.4531z" fill="#f26e7e"/>
<path d="m29.234 63.355c1.1719-2.0352 1.1719-4.2383-0.007813-4.918-1.1758-0.67969-3.0859 0.41797-4.2617 2.4531-1.1719 2.0391-1.1719 4.2383 0.007812 4.918 1.1758 0.68359 3.0859-0.41797 4.2617-2.4531zm0 4.3555c1.1758 0.68359 1.1797 2.8828 0.003906 4.918-1.1758 2.0391-3.0859 3.1367-4.2617 2.457-1.1797-0.67969-1.1797-2.8828-0.003906-4.918 1.1758-2.0352 3.082-3.1367 4.2617-2.457zm-8.0273 4.6367c1.1797 0.67969 1.1797 2.8789 0.003907 4.918-1.1758 2.0352-3.082 3.1328-4.2617 2.4531-1.1758-0.67969-1.1797-2.8828-0.003907-4.918 1.1758-2.0352 3.082-3.1367 4.2617-2.4531zm-0.003906-9.2773c1.1758 0.67969 1.1797 2.8828 0.003906 4.918-1.1758 2.0352-3.082 3.1367-4.2617 2.457-1.1797-0.68359-1.1797-2.8828-0.003906-4.918 1.1758-2.0391 3.082-3.1367 4.2617-2.457z" fill="#893390"/>
<path d="m19.312 50.539c0 1.3594-1.9062 2.4609-4.2578 2.4609-2.3516 0-4.2578-1.1016-4.2578-2.4609 0-1.3633 1.9062-2.4648 4.2578-2.4648 2.3516 0 4.2578 1.1016 4.2578 2.4648zm-8.0273 4.6289c0 1.3594-1.9062 2.4609-4.2578 2.4609-2.3477 0-4.2539-1.1016-4.2539-2.4609 0-1.3633 1.9062-2.4648 4.2539-2.4648 2.3516 0 4.2578 1.1016 4.2578 2.4648zm11.805 2.4609c2.3516 0 4.2578-1.1016 4.2578-2.4609 0-1.3633-1.9062-2.4648-4.2578-2.4648-2.3477 0-4.2539 1.1016-4.2539 2.4648 0 1.3594 1.9062 2.4609 4.2539 2.4609zm-3.7773 2.1758c0 1.3594-1.9062 2.4648-4.2578 2.4648-2.3516 0-4.2578-1.1055-4.2578-2.4648 0-1.3594 1.9062-2.4609 4.2578-2.4609 2.3516 0 4.2578 1.1016 4.2578 2.4609z" fill="#f6bf29"/>
<path d="m76.566 53.797h1.582c0.48828 0 0.76172 0.27344 0.76172 0.76562v18.375c0 0.49219-0.27344 0.76562-0.76172 0.76562h-1.582c-0.49219 0-0.76562-0.27344-0.76562-0.76562v-18.375c0-0.49219 0.27344-0.76562 0.76562-0.76562zm-30.441 19.906c0.49219 0 0.76562-0.27344 0.76562-0.76562v-6.1523h3.207c4.0664 0 6.6172-2.4297 6.6172-6.0859 0-3.6406-2.5508-6.082-6.6172-6.082h-5.6641c-0.48828 0-0.76172 0.26953-0.76172 0.76172v17.559c0 0.49219 0.27344 0.76562 0.76172 0.76562zm0.76562-16.371h3c2.293 0 3.5898 1.3203 3.5898 3.3672 0 2.0625-1.2969 3.3867-3.5898 3.3867h-3zm12.117 3.0156v7.9375c0 3.4805 2.25 5.7305 5.6484 5.7305 1.8008 0 3.3398-0.88672 4.2969-2.1836v1.1055c0 0.49219 0.27344 0.76562 0.76172 0.76562h1.5977c0.49219 0 0.76562-0.27344 0.76562-0.76562v-12.59c0-0.49219-0.27344-0.76562-0.76562-0.76562h-1.5977c-0.48828 0-0.76172 0.27344-0.76172 0.76562v6.9297c0 2.3477-1.6914 3.9961-3.6562 3.9961-1.8828 0-3.1797-1.3359-3.1797-3.2461v-7.6797c0-0.49219-0.27344-0.76562-0.76563-0.76562h-1.582c-0.49219 0-0.76172 0.27344-0.76172 0.76562zm23.367 0v7.9375c0 3.4805 2.2539 5.7305 5.6484 5.7305 1.8047 0 3.3438-0.88672 4.3008-2.1836v1.1055c0 0.49219 0.27344 0.76562 0.76172 0.76562h1.5977c0.49219 0 0.76562-0.27344 0.76562-0.76562v-12.59c0-0.49219-0.27344-0.76562-0.76562-0.76562h-1.5977c-0.48828 0-0.76172 0.27344-0.76172 0.76562v6.9297c0 2.3477-1.6914 3.9961-3.6562 3.9961-1.8828 0-3.1797-1.3359-3.1797-3.2461v-7.6797c0-0.49219-0.27344-0.76562-0.76562-0.76562h-1.582c-0.49219 0-0.76562 0.27344-0.76562 0.76562zm38.668 4.6523v7.9531c0 0.49219-0.27344 0.76172-0.76562 0.76172h-1.5938c-0.49219 0-0.76562-0.26953-0.76562-0.76172v-7.6836c0-1.9102-1.1875-3.2461-2.9336-3.2461-1.7617 0-3.4258 1.7734-3.4258 3.918v7.0117c0 0.49219-0.26953 0.76172-0.76172 0.76172h-1.5977c-0.49219 0-0.76172-0.26953-0.76172-0.76172v-7.6836c0-1.9102-1.1875-3.2461-2.9336-3.2461-1.6797 0-3.4258 1.6094-3.4258 3.918v7.0117c0 0.49219-0.27344 0.76172-0.76562 0.76172h-1.5938c-0.49219 0-0.76562-0.26953-0.76562-0.76172v-12.605c0-0.49219 0.27344-0.76562 0.76562-0.76562h1.5938c0.49219 0 0.76562 0.27344 0.76562 0.76562v1.0742c0.99609-1.3086 2.4297-2.168 4.0781-2.168 2.1289 0 3.918 1.1055 4.8047 2.9336 0.92578-1.7734 2.6445-2.9336 4.6641-2.9336 3.0703 0 5.418 2.2656 5.418 5.7461zm6.957-9.2656c0-1.0781-0.84766-1.9102-1.9375-1.9102s-1.9219 0.83203-1.9219 1.9102c0 1.0625 0.83203 1.8984 1.9219 1.8984s1.9375-0.83594 1.9375-1.8984zm-0.38281 4.6133c0-0.49219-0.27344-0.76562-0.76172-0.76562h-1.5859c-0.48828 0-0.76172 0.27344-0.76172 0.76562v12.59c0 0.49219 0.27344 0.76562 0.76172 0.76562h1.5859c0.48828 0 0.76172-0.27344 0.76172-0.76562z"/>
</svg>
