<svg viewBox="0 0 128 128" xmlns="http://www.w3.org/2000/svg">
<path d="m24.156 108.54c4.7344-2.7344 4.7422-11.582 0.019531-19.766-4.7266-8.1797-12.395-12.598-17.129-9.8672-4.7305 2.7344-4.7422 11.582-0.015625 19.766 4.7227 8.1836 12.391 12.602 17.125 9.8672z" fill="#f26e7e"/>
<path d="m120.98 98.684c4.7227-8.1797 4.7148-17.031-0.019531-19.762-4.7305-2.7344-12.398 1.6836-17.125 9.8633-4.7227 8.1836-4.7148 17.031 0.019531 19.766s12.402-1.6836 17.125-9.8672z" fill="#893390"/>
<path d="m56.418 127.19c4.7344-2.7344 4.7422-11.582 0.015625-19.766-4.7227-8.1836-12.391-12.598-17.125-9.8672-4.7344 2.7344-4.7422 11.582-0.015625 19.766 4.7227 8.1836 12.391 12.602 17.125 9.8672z" fill="#f26e7e"/>
<path d="m88.727 117.3c4.7227-8.1836 4.7148-17.031-0.019531-19.766-4.7344-2.7305-12.398 1.6875-17.125 9.8672-4.7227 8.1836-4.7148 17.031 0.019531 19.766 4.7305 2.7344 12.398-1.6836 17.125-9.8672z" fill="#893390"/>
<path d="m63.984 19.797c9.4492 0 17.109-4.4336 17.109-9.8984 0-5.4688-7.6602-9.8984-17.109-9.8984s-17.109 4.4297-17.109 9.8984c0 5.4648 7.6602 9.8984 17.109 9.8984z" fill="#f6bf29"/>
<path d="m24.145 71.254c4.7344-2.7344 4.7422-11.582 0.019531-19.766-4.7266-8.1797-12.395-12.598-17.125-9.8672-4.7344 2.7344-4.7422 11.582-0.019531 19.766 4.7227 8.1836 12.391 12.602 17.125 9.8672z" fill="#f26e7e"/>
<path d="m31.73 38.398c9.4492 0 17.109-4.4336 17.109-9.8984s-7.6602-9.8984-17.109-9.8984-17.109 4.4336-17.109 9.8984 7.6602 9.8984 17.109 9.8984z" fill="#f6bf29"/>
<path d="m120.96 61.406c4.7227-8.1797 4.7188-17.031-0.015626-19.762-4.7344-2.7344-12.402 1.6836-17.129 9.8633-4.7227 8.1836-4.7148 17.035 0.019532 19.766 4.7344 2.7344 12.402-1.6836 17.125-9.8672z" fill="#893390"/>
<path d="m96.281 38.398c9.4492 0 17.109-4.4336 17.109-9.8984s-7.6602-9.8984-17.109-9.8984-17.109 4.4336-17.109 9.8984 7.6602 9.8984 17.109 9.8984z" fill="#f6bf29"/>
<path d="m56.406 89.906c4.7344-2.7344 4.7422-11.582 0.019531-19.766-4.7266-8.1836-12.395-12.598-17.125-9.8672-4.7344 2.7344-4.7422 11.582-0.019531 19.766 4.7227 8.1836 12.391 12.602 17.125 9.8672z" fill="#f26e7e"/>
<path d="m88.707 80.027c4.7266-8.1797 4.7148-17.031-0.015625-19.762-4.7344-2.7344-12.402 1.6836-17.129 9.8633-4.7227 8.1836-4.7148 17.031 0.019531 19.766s12.402-1.6836 17.125-9.8672z" fill="#893390"/>
<path d="m63.984 57.043c9.4492 0 17.109-4.4336 17.109-9.8984 0-5.4688-7.6602-9.8984-17.109-9.8984s-17.109 4.4297-17.109 9.8984c0 5.4648 7.6602 9.8984 17.109 9.8984z" fill="#f6bf29"/>
</svg>
