<svg fill="#f6bf29" viewBox="0 0 128 128" xmlns="http://www.w3.org/2000/svg"><path d="m15.055 48.074c-2.3516 0-4.2578 1.1015-4.2578 2.4648 0 1.3593 1.9062 2.4609 4.2578 2.4609 2.3516 0 4.2578-1.1015 4.2578-2.4609 0-1.3632-1.9062-2.4648-4.2578-2.4648zm-8.0273 4.6289c-2.3477 0-4.2539 1.1015-4.2539 2.4648 0 1.3593 1.9062 2.4609 4.2539 2.4609 2.3516 0 4.2578-1.1015 4.2578-2.4609 0-1.3632-1.9062-2.4648-4.2578-2.4648zm16.063 0c-2.3477 0-4.2539 1.1016-4.2539 2.4648 0 1.3594 1.9062 2.4609 4.2539 2.4609 2.3516 0 4.2578-1.1016 4.2578-2.4609 0-1.3633-1.9062-2.4648-4.2578-2.4648zm53.477 1.0938c-0.49218 0-0.76562 0.27344-0.76562 0.76562v18.375c0 0.49218 0.27344 0.76562 0.76562 0.76562h1.582c0.48828 0 0.76172-0.27344 0.76172-0.76562v-18.375c0-0.49218-0.27344-0.76562-0.76172-0.76562h-1.582zm49.496 0.027344c-1.0898 0-1.9219 0.83199-1.9219 1.9102 0 1.0625 0.83201 1.8984 1.9219 1.8984s1.9375-0.83598 1.9375-1.8984c0-1.0781-0.84766-1.9102-1.9375-1.9102zm-81.629 0.79297c-0.48828 0-0.76172 0.26953-0.76172 0.76172v17.559c0 0.49219 0.27344 0.76562 0.76172 0.76562h1.6914c0.49219 0 0.76562-0.27344 0.76562-0.76562v-6.1523h3.207c4.0664 0 6.6172-2.4297 6.6172-6.0859 0-3.6406-2.5508-6.082-6.6172-6.082h-5.6641zm2.457 2.7148h3c2.293 0 3.5898 1.3203 3.5898 3.3672 0 2.0625-1.2969 3.3867-3.5898 3.3867h-3v-6.7539zm-31.836 0.011719c-2.3516 0-4.2578 1.1015-4.2578 2.4609 0 1.3593 1.9062 2.4648 4.2578 2.4648 2.3516 0 4.2578-1.1054 4.2578-2.4648 0-1.3593-1.9062-2.4609-4.2578-2.4609zm-13.441 0.88867c-0.26267 0.008272-0.50928 0.072997-0.73047 0.20117-1.1758 0.67969-1.1797 2.8789-0.0039062 4.918 1.1758 2.0352 3.0859 3.1328 4.2617 2.4531 1.1797-0.67969 1.1797-2.8828 0.0039062-4.918-0.95534-1.6536-2.393-2.6901-3.5312-2.6543zm26.883 0.003906c-1.1371-0.034702-2.5759 1.0008-3.5312 2.6543-1.1719 2.0391-1.1719 4.2383 0.007812 4.918 1.1758 0.68359 3.0859-0.418 4.2617-2.4531 1.1719-2.0352 1.1719-4.2383-0.007813-4.918-0.22046-0.12744-0.46806-0.19316-0.73047-0.20117zm77.66 1.0176c-1.6484 0-3.082 0.85937-4.0781 2.168v-1.0742c1e-5 -0.49218-0.27343-0.76562-0.76562-0.76562h-1.5938c-0.49218 0-0.76562 0.27344-0.76562 0.76562v12.605c0 0.49219 0.27344 0.76172 0.76562 0.76172h1.5938c0.49218 0 0.76562-0.26953 0.76562-0.76172v-7.0117c1e-5 -2.3086 1.7461-3.918 3.4258-3.918 1.7461 0 2.9336 1.3359 2.9336 3.2461v7.6836c0 0.49219 0.26953 0.76172 0.76172 0.76172h1.5977c0.49218 0 0.76171-0.26953 0.76171-0.76172v-7.0117c0-2.1446 1.6641-3.918 3.4258-3.918 1.7461-1e-6 2.9336 1.3359 2.9336 3.2461v7.6836c0 0.49219 0.27343 0.76172 0.76562 0.76172h1.5938c0.49218 0 0.76563-0.26953 0.76563-0.76172v-7.9531c0-3.4805-2.3477-5.7461-5.418-5.7461-2.0196 0-3.7383 1.1602-4.6641 2.9336-0.8867-1.8281-2.6758-2.9336-4.8047-2.9336zm-46.387 0.32812c-0.49219 0-0.76172 0.27345-0.76172 0.76562v7.9375c0 3.4805 2.25 5.7305 5.6484 5.7305 1.8008 0 3.3398-0.88672 4.2969-2.1836v1.1055c0 0.49219 0.27344 0.76562 0.76172 0.76562h1.5977c0.49219 0 0.76562-0.27344 0.76562-0.76562v-12.59c0-0.49219-0.27344-0.76562-0.76562-0.76562h-1.5977c-0.48828 0-0.76172 0.27345-0.76172 0.76562v6.9297c0 2.3477-1.6915 3.9961-3.6562 3.9961-1.8828 0-3.1797-1.3359-3.1797-3.2461v-7.6797c0-0.49219-0.27344-0.76562-0.76563-0.76562h-1.582zm23.371 0c-0.49219 0-0.76562 0.27345-0.76562 0.76562v7.9375c0 3.4805 2.2539 5.7305 5.6484 5.7305 1.8047 0 3.3438-0.88672 4.3008-2.1836v1.1055c0 0.49219 0.27344 0.76562 0.76172 0.76562h1.5977c0.49219 0 0.76562-0.27344 0.76562-0.76562v-12.59c0-0.49219-0.27345-0.76562-0.76562-0.76562h-1.5977c-0.48828 0-0.76172 0.27345-0.76172 0.76562v6.9297c0 2.3477-1.6915 3.9961-3.6562 3.9961-1.8828 0-3.1797-1.3359-3.1797-3.2461v-7.6797c0-0.49219-0.27344-0.76562-0.76562-0.76562h-1.582zm42.129 0c-0.48828 0-0.76172 0.27345-0.76172 0.76562v12.59c0 0.49219 0.27344 0.76562 0.76172 0.76562h1.5859c0.48828 0 0.76172-0.27344 0.76172-0.76562v-12.59c0-0.49219-0.27344-0.76562-0.76172-0.76562h-1.5859zm-104.8 3.2871c-1.1382-0.03461-2.5759 1.0014-3.5312 2.6582-1.1758 2.0352-1.1758 4.2344 0.003906 4.918 1.1797 0.6797 3.0859-0.42183 4.2617-2.457 1.1758-2.0352 1.1719-4.2383-0.003906-4.918-0.22119-0.12744-0.4678-0.19318-0.73047-0.20117zm-10.83 0.005859c-0.26239 0.008008-0.50805 0.071777-0.72852 0.19922-1.1797 0.6797-1.1836 2.8789-0.0078125 4.918 1.1758 2.0351 3.0859 3.1328 4.2617 2.4531 1.1797-0.6797 1.1797-2.8828 0.003906-4.918-0.95217-1.6535-2.3923-2.687-3.5293-2.6523zm18.861 4.6348c-1.1382-0.033756-2.5759 1.0046-3.5312 2.6582-1.1758 2.0352-1.1758 4.2383 0.003906 4.918 1.1758 0.6797 3.0859-0.41793 4.2617-2.457 1.1758-2.0352 1.1719-4.2344-0.003906-4.918-0.22119-0.12744-0.4678-0.19338-0.73047-0.20117zm-26.887 0.001953c-0.26267 0.008008-0.50928 0.071777-0.73047 0.19922-1.1758 0.6797-1.1797 2.8789-0.0039062 4.918 1.1758 2.0351 3.082 3.1328 4.2617 2.4531 1.1797-0.6797 1.1797-2.8828 0.0039063-4.918-0.95534-1.6535-2.393-2.687-3.5312-2.6523zm18.859 4.6328c-1.1382-0.035847-2.5759 1.0027-3.5312 2.6562-1.1758 2.0352-1.1719 4.2383 0.003907 4.918 1.1797 0.6797 3.0859-0.41793 4.2617-2.4531 1.1758-2.0391 1.1758-4.2383-0.003907-4.918-0.22119-0.12818-0.4678-0.19485-0.73047-0.20312zm-10.832 0.007813c-0.26267 0.008008-0.50928 0.071777-0.73047 0.19922-1.1758 0.6797-1.1797 2.8828-0.0039063 4.918 1.1758 2.0351 3.082 3.1328 4.2617 2.4531 1.1797-0.6797 1.1797-2.8789 0.003906-4.918-0.95534-1.6535-2.393-2.687-3.5312-2.6523z"/></svg>
