<svg version="1.1" viewBox="0 0 128 128" xmlns="http://www.w3.org/2000/svg"><path d="m39.267 108.97-0.28372-0.56744c-0.56744-1.1349-0.56744-2.2698-0.28372-3.6883h-30.641l45.395-80.576 19.01 34.33 6.2419-4.5395-19.01-34.33c-0.28372-0.56744-2.5535-3.972-6.2419-3.972-1.7024 0-4.2558 0.56744-6.2419 4.2558l-45.962 81.427c-0.28372 0.85116-2.2698 4.5395-0.56744 7.6605 1.1349 1.7023 2.8372 3.4046 6.8093 3.4046h38.586c-3.9721 0-5.9581-1.7024-6.8093-3.4046zm87.385-7.3767-36.883-66.391c-0.56744-0.56744-2.5535-4.2558-6.2419-4.2558-1.7023 0-4.2558 0.85116-6.2419 4.2558l-4.8232 7.9442v15.321l11.065-19.01 36.6 65.256h-13.903a6.5256 6.5256 0 0 1-0.56743 3.972l-0.28373 0.28373c-1.7023 3.1209-5.9581 3.4046-6.5256 3.4046h21.563c0.85115 0 4.8232-0.28371 6.8093-3.4046 0.85115-1.4186 1.4186-3.9721-0.56744-7.3767zm-20.144 7.3767v-0.28373l0.28374-0.56743c0.2837-1.1349 0.56743-2.2698 0.2837-3.4046l-1.1349-3.4046-28.939-50.502-4.2558-7.6605h-0.28372l-4.2558 7.6605-28.939 50.502-1.1349 3.4046a6.8093 6.8093 0 0 0 0.56744 4.2558c1.1349 1.7023 2.8372 3.4046 6.8093 3.4046h53.907c0.85116 0 5.107-0.28371 7.093-3.4046zm-34.046-50.502 26.386 46.246h-52.772z" stroke-width=".28372"/></svg>