<svg xmlns="http://www.w3.org/2000/svg" xml:space="preserve" viewBox="0 0 128 128"><defs><linearGradient id="a" x1="5.818" x2="113.454" y1="48.756" y2="48.756" gradientUnits="userSpaceOnUse"><stop offset=".291" stop-color="#464646"/><stop offset=".834" stop-color="#464646" stop-opacity=".498"/><stop offset="1" stop-color="#464646" stop-opacity="0"/></linearGradient></defs><path fill="#ccd6e1" d="M4.364 13.09h119.272a2.903 2.903 0 0 1 2.91 2.91v96a2.903 2.903 0 0 1-2.91 2.91H4.364a2.903 2.903 0 0 1-2.91-2.91V16a2.903 2.903 0 0 1 2.91-2.91z" color="#000"/><path d="M5.818 23.273h116.364v87.272H5.818z"/><path fill="#8b929b" d="M4.364 11.636C1.97 11.636 0 13.608 0 16v96c0 2.392 1.971 4.364 4.364 4.364h119.272c2.393 0 4.364-1.972 4.364-4.364V16c0-2.392-1.971-4.364-4.364-4.364zm0 2.91h119.272c.831 0 1.455.623 1.455 1.454v96c0 .831-.624 1.455-1.455 1.455H4.364c-.831 0-1.455-.624-1.455-1.455V16c0-.831.624-1.455 1.455-1.455z" color="#000"/><path fill="#687991" d="M98.91 14.545v2.91h5.817v-2.91zm8.726 0v2.91h5.819v-2.91zm8.728 0v2.91h5.818v-2.91z" color="#000"/><path fill="#c0bfbe" d="M5.818 20.364h116.364v2.909H5.818z"/><path fill="url(#a)" d="M5.818 74.24c25.96-30.81 94.437-32.332 107.637-24.785V23.273H5.818z"/><path fill="#fff" d="M40.727 32v5.818h2.91v2.91h2.908v2.908h2.91v2.91h2.909v2.909h2.909v-5.819h-2.91v-2.909h-2.908v-2.909h-2.91V34.91h-2.909V32zm-23.272 0v2.91h5.818V32zm5.818 2.91v2.908h2.909V34.91zm-5.818 0h-2.91v11.635h2.91zm0 11.635v2.91h5.818v-2.91zm5.818 0h2.909v-2.909h-2.91zM32 34.91v2.91h2.91v-2.91zm0 8.727v2.91h2.91v-2.91zm34.91 2.91h20.363v2.909H66.909z"/></svg>
