<svg xmlns="http://www.w3.org/2000/svg" xmlns:xlink="http://www.w3.org/1999/xlink" viewBox="0 0 128 128"><defs><linearGradient id="a" x1="263.36" x2="333.47" y1="14.74" y2="84.85" gradientUnits="userSpaceOnUse"><stop offset="0" stop-color="#45afe4"/><stop offset="1" stop-color="#364f9e"/></linearGradient><linearGradient xlink:href="#a" id="c" x1="262.64" x2="332.75" y1="15.46" y2="85.57" gradientTransform="translate(0 45.6251) scale(.36720409)"/><linearGradient xlink:href="#a" id="b" x1="263.36" x2="333.47" y1="14.74" y2="84.85" gradientTransform="translate(0 45.6251) scale(.36720409)" gradientUnits="userSpaceOnUse"/></defs><path d="m0 74.3184 3.5876-4.4982a20.1338 20.1338 0 0 0 5.0784 3.3452 12.8778 12.8778 0 0 0 5.1666 1.065q2.809 0 4.4982-1.0356 1.6892-1.0355 1.6855-2.7687a2.8605 2.8605 0 0 0-1.1457-2.4015q-1.1457-.8813-3.8152-1.3146l-6.0185-1.0392q-3.896-.65-5.901-2.7247t-2.0123-5.3575q0-4.2412 3.2204-6.7015 3.2204-2.4602 8.7101-2.4639a20.7984 20.7984 0 0 1 6.639 1.1236 19.1827 19.1827 0 0 1 5.857 3.1103l-3.3746 4.6708a18.944 18.944 0 0 0-4.7737-2.7467 13.4617 13.4617 0 0 0-4.7773-.8776q-2.5117 0-4.0393.929-1.5275.929-1.5129 2.486a2.5925 2.5925 0 0 0 1.0062 2.1555q.9914.7748 3.3269 1.1236l5.7063.951q4.4946.7345 6.7676 2.8753 2.273 2.1408 2.2766 5.6366a8.3906 8.3906 0 0 1-3.481 7.0503q-3.4811 2.6365-9.272 2.6365a19.4618 19.4618 0 0 1-7.1604-1.3807A20.3064 20.3064 0 0 1 0 74.3184Zm39.1036 4.7994-12.2793-30.265h6.7896l9.2498 23.9087 9.4666-23.9087h6.4848l-12.4482 30.265Z" class="text"/><path fill="url(#b)" d="M124.9045 60.2692a15.944 15.944 0 0 0-1.8911-4.3624c.6316-.885 1.2338-1.7956 1.7956-2.7503l-4.3367-4.3184c-.984.5802-1.9168 1.2045-2.8311 1.8544a15.5988 15.5988 0 0 0-4.2302-1.7442c-.1873-1.1016-.4076-2.2032-.6977-3.3048h-6.1213c-.2864 1.1016-.503 2.1738-.6867 3.2607a15.753 15.753 0 0 0-4.3513 1.7259c-.8777-.6206-1.7736-1.2228-2.721-1.7736l-4.3257 4.3073c.5214.8923 1.0796 1.7406 1.6634 2.5704a15.8265 15.8265 0 0 0-2.0232 4.579c-.9548.169-1.9022.3673-2.8569.617v6.114c.8886.235 1.77.4185 2.6586.5801a15.7677 15.7677 0 0 0 1.9608 4.9866 30.3648 30.3648 0 0 0-1.4027 2.2033l4.3257 4.3293c.7344-.426 1.432-.8813 2.115-1.3513a15.698 15.698 0 0 0 5.1116 2.1298 33.482 33.482 0 0 0 .5324 2.4345h6.1396c.2167-.8335.393-1.6634.5472-2.4933a15.8155 15.8155 0 0 0 4.961-2.1628c.7343.4994 1.4687.9804 2.2288 1.432l4.3257-4.3293a35.5773 35.5773 0 0 0-1.5386-2.3794 15.8338 15.8338 0 0 0 1.836-4.7737c.9695-.1726 1.9389-.3672 2.9083-.6242v-6.0993c-1.0245-.2717-2.049-.481-3.0955-.6573zm-10.7297 14.7065a11.5816 11.5816 0 0 1-9.0957.0845.0477.0477 0 0 0 0-.022 11.6294 11.6294 0 0 1-6.3122-6.4775l-.0588-.1542a11.556 11.556 0 0 1 .2277-8.633 8.6465 8.6465 0 0 1 .213-.4627 11.655 11.655 0 0 1 5.8349-5.5668q.3672-.1579.771-.2974a11.567 11.567 0 0 1 3.775-.6316 11.4274 11.4274 0 0 1 3.962.7013c.2902.1065.573.2204.852.3672a11.6183 11.6183 0 0 1 5.5741 5.4383q.1653.3342.3085.683a11.5302 11.5302 0 0 1 .2166 8.2034c-.044.1285-.088.257-.1395.3672a11.6367 11.6367 0 0 1-6.0515 6.349z"/><path fill="url(#c)" d="M117.8725 67.9915a2.3244 2.3244 0 0 0-3.9034-1.197l-1.836-1.366a3.169 3.169 0 0 0-.8372-4.1495l1.4688-2.5447a1.5937 1.5937 0 1 0-1.0282-.9915 1.568 1.568 0 0 0 .3966.6096l-1.4688 2.5447a3.2277 3.2277 0 0 0-1.4468-.2644 3.1763 3.1763 0 0 0-2.6439 1.7112l-3.1506-1.2375v-.033a1.4688 1.4688 0 1 0-.2754.716l3.1506 1.2375a3.1837 3.1837 0 0 0 1.0723 3.246l-1.4688 2.2914a1.9205 1.9205 0 0 0-.8336-.1395 1.9572 1.9572 0 1 0 1.4688.5325l1.4688-2.284a3.1837 3.1837 0 0 0 3.6978-.6684l1.836 1.3697a2.3244 2.3244 0 1 0 4.333.617z"/><path d="M72.846 61.492v4.983h9.2168a.694.694 0 0 1 0 .1064 8.6623 8.6623 0 0 1-.5692 2.2033 8.0785 8.0785 0 0 1-.7344 1.4284l-.022.0294a7.5314 7.5314 0 0 1-1.4211 1.5716q-.1763.1542-.3672.2974a8.2805 8.2805 0 0 1-1.9866 1.131 9.3674 9.3674 0 0 1-3.5215.6573 9.7713 9.7713 0 0 1-3.8189-.7711 9.2976 9.2976 0 0 1-5.1225-5.2106 9.2646 9.2646 0 0 1-.3966-1.2191 10.5461 10.5461 0 0 1-.3378-2.7137 10.6856 10.6856 0 0 1 .4627-3.1873 7.3845 7.3845 0 0 1 .2497-.7344 9.764 9.764 0 0 1 .7344-1.5056 8.9414 8.9414 0 0 1 1.2521-1.5973 7.4902 7.4902 0 0 1 .2975-.2938 9.2021 9.2021 0 0 1 2.7283-1.7809 9.393 9.393 0 0 1 3.7822-.7601h.661a10.0614 10.0614 0 0 1 3.7124.9327l.1432.066a11.1483 11.1483 0 0 1 3.6978 2.9194l4.366-4.021a14.9489 14.9489 0 0 0-5.4897-4.1493 16.9244 16.9244 0 0 0-7.087-1.4946h-.606a16.2084 16.2084 0 0 0-5.6622 1.1971 15.6833 15.6833 0 0 0-5.0784 3.3049 14.8644 14.8644 0 0 0-1.9389 2.328 15.5474 15.5474 0 0 0-1.4357 2.6219 15.3565 15.3565 0 0 0-1.2302 6.1543 16.0946 16.0946 0 0 0 .0918 1.748c.033.3267.0771.6462.1359.9657a14.6625 14.6625 0 0 0 1.0245 3.4223 15.955 15.955 0 0 0 2.3795 3.863 27.442 27.442 0 0 0 1.0098 1.1016 15.6833 15.6833 0 0 0 5.0784 3.3048 16.4067 16.4067 0 0 0 6.3123 1.2118 15.7163 15.7163 0 0 0 4.5129-.639 14.1998 14.1998 0 0 0 1.5386-.5507 15.0554 15.0554 0 0 0 3.0441-1.7149 13.4323 13.4323 0 0 0 1.7663-1.5202 14.7616 14.7616 0 0 0 3.1763-4.95 15.4593 15.4593 0 0 0 .8813-3.1248 17.6258 17.6258 0 0 0 .2644-3.0809v-2.5337z" /></svg>
