<svg xmlns="http://www.w3.org/2000/svg" viewBox="0 0 128 128"><path fill="#d43d44" d="M17.73 61.51l12.49 3.1c2.17-.85 3.48-1.93 3.48-3.1v-5c0-2.75-7.15-5-16-5s-16 2.23-16 5v5c0 2.75 7.15 5 16 5v-5z"/><path fill="#d43d44" d="M30.23 69.6l-12.49-3.1v5l12.49 3.11c2.17-.85 3.48-1.93 3.48-3.11v-5c0 1.17-1.31 2.25-3.48 3.1zM1.77 66.5v5c0 2.75 7.15 5 16 5v-5c-8.85-.02-16-2.25-16-5z"/><path fill="#414143" d="M47.42 71a6.69 6.69 0 01-6.8-6.82 6.74 6.74 0 016.91-6.85 6.84 6.84 0 015.22 2L50.9 61.5a4.89 4.89 0 00-3.39-1.5 3.93 3.93 0 00-3.84 4.13 3.93 3.93 0 003.84 4.16A4.78 4.78 0 0051 66.78l1.86 1.87A6.76 6.76 0 0147.42 71zM60.82 70.8v-1.1a3.89 3.89 0 01-3.07 1.3c-1.91 0-3.48-1.1-3.48-3.11 0-2.22 1.68-3.24 4.09-3.24a7.19 7.19 0 012.48.42v-.17c0-1.19-.74-1.86-2.18-1.86a7.46 7.46 0 00-2.8.55l-.72-2.2a9 9 0 013.94-.82c3.14 0 4.52 1.63 4.52 4.38v5.85h-2.78zm.06-4.09a4.42 4.42 0 00-1.88-.38c-1.23 0-2 .49-2 1.4 0 .78.64 1.23 1.57 1.23 1.34 0 2.25-.73 2.25-1.78zM72.61 70.8L70 66.65l-1 1.06v3.09h-2.92V57H69v7.37l3.37-3.69h3.44l-3.86 4 4 6.15h-3.34zM86.24 66.73h-7.06a2.35 2.35 0 002.48 2 3.33 3.33 0 002.46-1l1.65 1.46a5.36 5.36 0 01-9.45-3.35 5.05 5.05 0 015-5.28c3.39 0 4.94 2.63 4.94 5.51.01.22 0 .39-.02.66zm-4.9-4a2.26 2.26 0 00-2.2 2.16h4.34a2.17 2.17 0 00-2.15-2.12z"/><path fill="#d43d44" d="M93.85 66.82h-2.22v4h-2.91V57.54h5.41c3.16 0 5.07 1.87 5.07 4.58 0 3.11-2.38 4.7-5.35 4.7zm2.4-4.64c0-1.31-.91-2-2.37-2h-2.25v4.05h2.31a2.05 2.05 0 002.31-2zM109.65 70.8v-5.33h-5.38v5.33h-2.91V57.54h2.91v5.24h5.38v-5.24h2.92V70.8zM120.88 66.82h-2.21v4h-2.92V57.54h5.41c3.16 0 5.07 1.87 5.07 4.58 0 3.11-2.38 4.7-5.35 4.7zm2.4-4.64c0-1.31-.91-2-2.37-2h-2.25v4.05H121a2.05 2.05 0 002.31-2z"/></svg>