<?xml version="1.0" encoding="utf-8"?>
<!-- Generator: Adobe Illustrator 16.0.0, SVG Export Plug-In . SVG Version: 6.00 Build 0)  -->
<!DOCTYPE svg PUBLIC "-//W3C//DTD SVG 1.1//EN" "http://www.w3.org/Graphics/SVG/1.1/DTD/svg11.dtd">
<svg version="1.1" id="Layer_1" xmlns="http://www.w3.org/2000/svg" xmlns:xlink="http://www.w3.org/1999/xlink" x="0px" y="0px"
	 width="500px" height="500px" viewBox="0 0 500 500" enable-background="new 0 0 500 500" xml:space="preserve">
<g>
	<path fill-rule="evenodd" clip-rule="evenodd" fill="#FCAA1A" d="M101.492,430.898c3.867,1.671,8.619,5.078,11.611,3.985
		c3.416-1.247,5.336-6.62,7.864-10.229c0.425-0.604,0.636-1.355,1.123-2.432c-1.591-1.27-3.093-2.754-4.847-3.818
		c-16.744-10.161-35.027-10.382-52.562-2.467C52.148,421.595,46,432.418,42,445.191c0,4.617,0,9.234,0,13.851
		c4,11.878,9.829,22.777,20.9,28.817C68.168,490.734,75.137,493,80.82,495c5.771,0,11.543,0,17.313,0
		c6.456-3,12.968-4.914,19.327-7.361c1.518-0.585,3.564-1.757,3.6-3.088c0.288-11.076,0.162-22.551,0.162-32.551
		C110.029,452,97,452,86,452c0,5,0,7.973,0,13.162c5,0.266,9.29,0.51,14.687,0.867c-1.623,3.858-1.39,8.528-3.292,9.16
		c-8.856,2.938-19.854,1.911-26.205-6.697c-6.469-8.771-6.281-23.932,0.076-31.886C77.791,428.445,90.455,426.133,101.492,430.898z"
		/>
	<path fill-rule="evenodd" clip-rule="evenodd" fill="#FCAA1A" d="M287.987,414.289c0.003-0.66-0.558,0.711-0.726-1.289
		c-7.362,0-16.262,0-23.262,0c0,4,0,3.895,0,5.989c0,14.233,0.861,28.466,0.688,42.697c-0.092,7.439-4.478,12.722-11.207,13.502
		c-9.331,1.081-15.053-2.304-17.074-10.302c-0.785-3.111-0.912-5.966-0.935-9.193c-0.105-14.357,0.052-26.693,0.052-42.693
		c-7.674,0-14.655,0-21.982,0c0,17-0.057,31.833,0.016,47.77c0.072,15.083,8.313,26.748,22.609,31.534
		c2.1,0.703,4.166,1.696,6.247,2.696c5.386,0,10.773,0,16.159,0c1.026-1,2.021-1.572,3.08-1.816
		c15.039-3.464,24.921-13.799,25.814-29.197C288.426,447.508,287.914,430.816,287.987,414.289z"/>
	<path fill-rule="evenodd" clip-rule="evenodd" fill="#FCAA1A" d="M457,431c0-7,0-12,0-18c-22,0-43.535,0-66.842,0
		c0,5,0.197,8.184-0.059,12.18c-0.232,3.655,1.309,4.324,4.721,4.209c6.068-0.205,12.15-0.219,18.59-0.219
		c0,19.969,0.087,39.079-0.075,58.269c-0.033,3.887,0.923,5.626,5.12,5.3c4.013-0.311,8.098-0.398,12.094-0.002
		c4.845,0.479,4.668-1.669,4.614-6.004c-0.208-17.102-1.163-34.214-1.163-51.318c0-2.02,0-2.414,0-4.414C443,431,450,431,457,431z"
		/>
	<path fill-rule="evenodd" clip-rule="evenodd" fill="#FCAA1A" d="M379.107,413c-6.793,0-15.107,0-22.107,0c0,16,0,28.564,0,43.186
		c-2-0.686-2.12-1.885-3.082-3.036c-9.109-10.906-18.217-21.751-27.245-32.722c-7.417-9.013-13.673-10.916-23.673-7.841
		c0,26.479,0,55.413,0,81.413c6,0,12,0,18,0c0-14,0-31.545,0-47.956c11,13.675,23.594,25.622,33.412,38.368
		c4.931,6.396,10.808,8.793,18.634,8.424c4.999-0.236,6.292-1.641,6.255-6.18c-0.187-22.883,0.177-45.518,0.15-68.401
		C379.45,416.393,379.245,416,379.107,413z"/>
	<path fill-rule="evenodd" clip-rule="evenodd" fill="#FCAA1A" d="M189.095,456.314c8.095-5.995,11.913-14.045,10.396-24.014
		c-1.513-9.951-7.867-16.096-17.462-18.328c-5.903-1.373-13.386-1.987-19.456-2.228c-9.127-0.36-18.572-0.093-28.572-0.093
		c0,27.488,0,56.348,0,82.348c9,0,15,0,22,0c0-9,0-20.373,0-29.535c0-0.609,2.263-1.219,2.864-1.828
		c2.5,1.777,6.222,3.064,7.896,5.426c4.196,5.926,7.868,12.405,11.818,18.518c1.307,2.024,3.328,5.01,5.135,5.146
		c7.62,0.576,15.373,0.244,24.23,0.244c-7.734-11.803-14.793-22.623-21.998-33.62C186.859,457.759,188.038,457.098,189.095,456.314z
		 M175.106,442.766c-3.636,6.898-11.106,5.709-19.106,5.721c0-7.107,0-13.382,0-20.324c8-0.295,13.729-1.662,17.984,4.082
		C175.778,434.664,176.563,440.004,175.106,442.766z"/>
	<path fill-rule="evenodd" clip-rule="evenodd" fill="#FCAA1A" d="M360.261,207.457c8.467-4.812,17.222-9.609,24.443-16.004
		c12.98-11.495,11.68-27.928-1.84-38.701c-2.212-1.763-5.325-3.625-5.919-5.972c-2.673-10.58-5.093-21.276,1.431-31.657
		c2.518-4.004,4.56-8.495,5.857-13.038c3.666-12.821-2.46-23.44-15.282-27.217c-2.195-0.648-4.596-0.667-6.728-1.447
		c-1.343-0.494-3.185-1.715-3.402-2.872c-2.404-12.838-0.796-18.244,9.244-23.968c4.739-2.702,10.269-4.042,15.485-5.871
		c2.019-0.708,4.162-1.058,6.434-1.617c-11.981-16.743-33.152-23.8-54.185-18.586c-16.492,4.087-28.342,14.714-39.033,27.138
		c-1.259,1.463-3.496,2.878-5.31,2.916c-4.962,0.103-6.04-3.594-5.178-7.494c1.68-7.598,3.873-15.081,5.894-22.769
		c-9.38-0.246-16.542,5.711-24.769,11.448c-0.982-5.08-2.249-9.315-2.506-13.609c-0.268-4.48,0.439-9.019,0.744-13.864
		c-14.462,5.2-25.508,13.451-28.6,29.637c-0.624,0.006-1.249,0.015-1.873,0.019c-1.397-6.538-2.795-13.079-4.316-20.204
		c-1.75,1.118-3.649,2.009-5.148,3.346c-8.793,7.85-14.184,17.477-15.202,29.407c-0.123,1.444-1.169,3.905-1.944,3.968
		c-1.495,0.122-3.427-0.79-4.596-1.891c-2.368-2.226-4.254-4.951-6.504-7.313c-13.549-14.225-29.478-23.5-49.797-22.271
		c-15.367,0.925-28.48,6.701-37.296,19.371c7.548,2.848,15.167,4.928,22.003,8.506c8.585,4.491,10.585,10.889,9.629,20.209
		c-0.537,5.23-2.979,6.394-7.475,7.099c-15.582,2.442-22.981,14.43-18.386,29.471c0.944,3.094,1.936,6.465,3.909,8.894
		c7.115,8.762,5.554,18.667,4.627,28.603c-0.44,4.714-2.674,8.045-6.441,10.965c-15.691,12.157-16.083,29.101-0.561,41.669
		c6.351,5.143,13.635,9.303,20.931,13.062c9.965,5.134,13.911,13.349,13.88,23.9c-0.026,8.645-0.404,17.295-0.901,25.924
		c-0.353,6.131-1.165,12.233-1.772,18.351c-0.587,0.161-1.174,0.319-1.761,0.48c-3.595-4.882-7.695-9.479-10.638-14.726
		c-2.914-5.202-4.659-11.059-6.915-16.628c-23.131,19.062-23.763,73.779,13.217,90.654c5.174,2.362,8.502,5.609,11.366,10.437
		c9.848,16.586,24.405,26.692,43.563,30.005c1.982,0.342,4.035,1.179,5.705,2.304c25.471,17.154,65.746,17.218,91.086,0.117
		c1.538-1.039,3.318-2.055,5.104-2.337c21.31-3.37,36.43-15.153,46.707-33.778c0.944-1.71,2.494-3.582,4.211-4.293
		c21.931-9.054,32.552-25.906,34.003-49.032c1.071-17.051-3.503-32.147-16.485-44.986c-2.669,13.047-8.406,23.587-19.601,31.921
		c-0.554-16.097-1.542-32.196-1.486-48.29C347.913,218.328,352.485,211.874,360.261,207.457z M150.475,46.855
		c9.685-0.054,22.609,10.887,21.712,20.024c-0.332,3.376-4.661,7.846-8.111,9c-3.281,1.1-8.541-0.344-9.584-5.813
		c-0.497-2.623-0.86-5.27-1.318-7.899C152.302,57.159,151.41,52.156,150.475,46.855z M174.621,331.833
		c-5.288-0.91-10.476-1.373-15.419-2.728c-21.498-5.895-33.521-21.104-33.9-43.373c-0.109-6.38,1.378-12.787,2.195-19.175
		c0.015-0.12,0.817-0.238,1.211-0.157c0.134,0.027,0.139,0.676,0.203,1.039c10.855,23.175,31.562,29.449,54.358,31.588
		c-3.565,6.628-7.082,13.163-10.599,19.7C173.259,322.684,173.848,326.641,174.621,331.833z M172,159.404c0-4.469,0-8.938,0-14.438
		c11,7.078,22.439,14.043,30.762,23.676c0.754,0.839,1.525,1.64,2.217,2.528c0.439,0.564,0.754,1.259,1.084,1.863
		C195.087,181.527,173,176.2,172,159.404z M232.499,328.915c-2.329,3.272-4.539,6.639-7.011,9.8
		c-5.784,7.397-13.999,7.859-20.902,1.281c-2.198-2.097-4.342-4.255-6.512-6.383c0,0,0.016,0.028,0.014,0.028
		c-0.397-0.397-0.796-0.796-1.192-1.192c-2.54-12.271-2.285-12.592,10.894-12.693c6.142-0.049,12.286-0.146,18.42,0.038
		C233.079,319.999,234.47,322.158,232.499,328.915z M302.947,331.376c-0.414,0.747-0.831,1.495-1.248,2.243
		c0.004-0.006,0.01-0.012,0.015-0.018l-0.031,0.047c0.005-0.01,0.011-0.021,0.017-0.029c-1.657,1.793-3.267,3.634-4.979,5.371
		c-7.8,7.917-16.355,7.405-23.104-1.433c-2.178-2.853-4.146-5.863-6.21-8.802c-1.839-6.603-0.306-8.83,6.591-8.981
		c7.105-0.158,14.216-0.099,21.323-0.018C304.89,319.867,306.466,322.323,302.947,331.376z M293.734,172.896
		c1.152-1.391,2.281-2.767,3.422-4.145C305.475,159.09,315,152.135,328,144.98c0,5.53,0,9.988,0,14.448
		C328,175.874,305.344,181.6,293.734,172.896z M370.006,269.193c0.508-1.145,1.015-2.288,1.521-3.433
		c4.815,15.575,5.211,30.876-3.854,44.709c-9.738,14.857-24.872,20.031-42.121,21.101c0.573-4.628,1.084-8.735,1.594-12.844
		c-3.401-6.487-6.8-12.974-10.273-19.597C338.401,296.673,359.09,291.565,370.006,269.193z M345.85,68.27
		c-0.584,3.503-1.688,5.928-5.881,7.344c-6.25,2.112-8.455-2.359-10.967-5.621c-1.213-1.571-0.713-5.266,0.194-7.523
		c2.97-7.392,7.9-13.085,15.987-15.248c1.563-0.416,3.207-0.532,4.169-0.684C348.084,54.435,347.003,61.358,345.85,68.27z"/>
</g>
</svg>
