<?xml version="1.0" encoding="utf-8"?>
<!-- Generator: Adobe Illustrator 16.0.0, SVG Export Plug-In . SVG Version: 6.00 Build 0)  -->
<!DOCTYPE svg PUBLIC "-//W3C//DTD SVG 1.1//EN" "http://www.w3.org/Graphics/SVG/1.1/DTD/svg11.dtd">
<svg version="1.1" id="Layer_1" xmlns="http://www.w3.org/2000/svg" xmlns:xlink="http://www.w3.org/1999/xlink" x="0px" y="0px"
	 width="500px" height="500px" viewBox="0 0 500 500" enable-background="new 0 0 500 500" xml:space="preserve">
<path fill-rule="evenodd" clip-rule="evenodd" fill="#FCAA1A" d="M387.957,262.649c10.594-6.019,21.549-12.023,30.584-20.023
	c16.241-14.383,14.613-34.943-2.303-48.422c-2.768-2.206-6.663-4.536-7.405-7.472c-3.345-13.238-6.372-26.62,1.79-39.609
	c3.149-5.01,5.705-10.629,7.329-16.314c4.586-16.042-3.079-29.329-19.122-34.053c-2.746-0.811-5.75-0.834-8.417-1.812
	c-1.681-0.618-3.985-2.145-4.257-3.593c-3.009-16.063-0.996-22.828,11.565-29.989c5.93-3.38,12.849-5.057,19.375-7.346
	c2.526-0.885,5.208-1.323,8.051-2.023c-14.992-20.949-41.481-29.778-67.796-23.254c-20.635,5.114-35.461,18.409-48.838,33.955
	c-1.575,1.83-4.375,3.601-6.644,3.648c-6.208,0.128-7.557-4.497-6.479-9.376c2.103-9.507,4.846-18.87,7.374-28.488
	c-11.736-0.307-20.697,7.146-30.991,14.324c-1.229-6.355-2.813-11.655-3.136-17.028c-0.334-5.605,0.552-11.283,0.932-17.346
	c-18.094,6.506-31.915,16.83-35.783,37.082c-0.781,0.007-1.562,0.017-2.344,0.023c-1.748-8.181-3.496-16.364-5.4-25.28
	c-2.189,1.4-4.566,2.514-6.441,4.188c-11.003,9.821-17.748,21.866-19.021,36.792c-0.154,1.808-1.463,4.887-2.435,4.966
	c-1.87,0.152-4.286-0.988-5.749-2.367c-2.963-2.783-5.322-6.194-8.138-9.149c-16.952-17.799-36.883-29.404-62.306-27.867
	c-19.228,1.158-35.635,8.386-46.664,24.238c9.443,3.563,18.977,6.165,27.529,10.643c10.741,5.619,13.244,13.624,12.047,25.286
	c-0.671,6.543-3.727,7.999-9.352,8.88c-19.496,3.058-28.754,18.056-23.004,36.874c1.182,3.871,2.421,8.089,4.891,11.129
	c8.902,10.962,6.949,23.355,5.789,35.787c-0.551,5.898-3.345,10.066-8.059,13.718c-19.633,15.21-20.123,36.411-0.702,52.136
	c7.946,6.435,17.06,11.641,26.188,16.342c12.469,6.423,17.406,16.703,17.366,29.906c-0.032,10.815-0.505,21.639-1.126,32.436
	c-0.442,7.67-1.459,15.307-2.219,22.96c-0.735,0.201-1.469,0.399-2.203,0.601c-4.497-6.108-9.629-11.86-13.31-18.425
	c-3.647-6.508-5.83-13.835-8.652-20.805c-28.942,23.851-29.731,92.312,16.536,113.428c6.475,2.955,10.638,7.017,14.223,13.058
	c12.32,20.753,30.535,33.397,54.506,37.541c2.481,0.428,5.048,1.476,7.139,2.884c31.868,21.462,82.261,21.542,113.967,0.146
	c1.923-1.3,4.151-2.571,6.386-2.925c26.662-4.217,45.58-18.961,58.439-42.263c1.182-2.14,3.12-4.482,5.269-5.372
	c27.438-11.328,40.729-32.414,42.544-61.349c1.34-21.334-4.383-40.223-20.627-56.288c-3.338,16.324-10.518,29.512-24.523,39.939
	c-0.693-20.141-1.93-40.283-1.859-60.42C372.508,276.252,378.229,268.176,387.957,262.649z M125.473,61.705
	c12.117-0.066,28.289,13.622,27.166,25.055c-0.415,4.225-5.832,9.818-10.148,11.262c-4.105,1.375-10.688-0.43-11.992-7.275
	c-0.622-3.282-1.076-6.592-1.648-9.883C127.76,74.598,126.643,68.337,125.473,61.705z M155.685,418.27
	c-6.616-1.14-13.106-1.718-19.291-3.414c-26.898-7.375-41.941-26.406-42.417-54.268c-0.137-7.982,1.725-16,2.746-23.991
	c0.02-0.151,1.023-0.298,1.516-0.197c0.167,0.034,0.174,0.846,0.254,1.3c13.583,28.996,39.49,36.846,68.014,39.522
	c-4.461,8.292-8.86,16.47-13.261,24.65C153.98,406.82,154.717,411.771,155.685,418.27z M152,202.526c0-5.591,0-11.181,0-18.065
	c15,8.856,28.277,17.571,38.691,29.624c0.943,1.049,2.012,2.051,2.874,3.164c0.551,0.707,0.794,1.574,1.206,2.33
	C181.039,230.207,153,223.541,152,202.526z M228.102,414.618c-2.914,4.095-5.68,8.307-8.772,12.262
	c-7.236,9.254-17.515,9.833-26.151,1.603c-2.752-2.624-5.434-5.324-8.148-7.987c0,0,0.02,0.037,0.018,0.037
	c-0.498-0.499-0.996-0.996-1.492-1.493c-3.179-15.354-2.858-15.753,13.631-15.881c7.684-0.061,15.371-0.183,23.047,0.047
	C228.828,403.461,230.568,406.166,228.102,414.618z M316.246,417.697c-0.519,0.935-1.04,1.872-1.562,2.806
	c0.006-0.007,0.013-0.014,0.019-0.021l-0.039,0.057c0.007-0.012,0.014-0.024,0.021-0.037c-2.073,2.245-4.087,4.547-6.229,6.721
	c-9.758,9.906-20.463,9.266-28.907-1.792c-2.726-3.57-5.188-7.336-7.771-11.012c-2.301-8.263-0.383-11.05,8.246-11.239
	c8.891-0.197,17.787-0.123,26.68-0.022C318.676,403.298,320.648,406.371,316.246,417.697z M304.925,219.407
	c1.438-1.738,2.955-3.462,4.382-5.185C319.713,202.133,332,193.431,348,184.479c0,6.919,0,12.497,0,18.078
	C348,223.133,319.449,230.297,304.925,219.407z M400.15,339.895c0.635-1.432,1.27-2.864,1.904-4.296
	c6.023,19.489,6.52,38.632-4.824,55.941c-12.184,18.589-31.119,25.062-52.702,26.4c0.719-5.791,1.357-10.93,1.995-16.069
	c-4.255-8.119-8.509-16.234-12.854-24.521C360.607,374.277,386.492,367.885,400.15,339.895z M369.926,88.499
	c-0.73,4.383-2.113,7.416-7.357,9.188c-7.82,2.644-10.58-2.953-13.723-7.033c-1.518-1.967-0.893-6.589,0.244-9.414
	c3.715-9.249,9.885-16.372,20.002-19.078c1.957-0.521,4.014-0.666,5.217-0.855C372.721,71.188,371.368,79.852,369.926,88.499z"/>
</svg>
