<svg version="1.1" xmlns="http://www.w3.org/2000/svg" xmlns:xlink="http://www.w3.org/1999/xlink" viewBox="0 0 128 128">
	<path fill-rule="evenodd" clip-rule="evenodd" fill="#493310" d="M88.395,70.763c2.874-2.139,4.346-4.844,5.031-8.193
		c3.332,3.295,4.506,7.17,4.231,11.547c-0.373,5.936-3.099,10.261-8.728,12.585c-0.44,0.183-0.838,0.663-1.081,1.102
		c-2.638,4.78-6.519,7.805-11.988,8.67c-0.458,0.073-0.916,0.333-1.31,0.6c-6.504,4.389-16.842,4.373-23.379-0.03
		c-0.429-0.289-0.956-0.504-1.465-0.592c-4.917-0.85-8.654-3.444-11.181-7.701c-0.736-1.239-1.59-2.073-2.918-2.679
		c-9.492-4.332-9.33-18.376-3.392-23.269c0.579,1.43,1.026,2.933,1.775,4.268c0.755,1.347,1.808,2.526,2.73,3.78
		c0.151-0.042,0.301-0.082,0.452-0.124c0.156-1.57,0.365-3.136,0.455-4.71c0.128-2.215,0.225-4.435,0.231-6.654
		c0.008-2.708-1.005-4.817-3.563-6.135c-1.873-0.964-3.743-2.032-5.373-3.353c-3.984-3.226-3.884-7.575,0.144-10.695
		c0.967-0.749,1.54-1.604,1.653-2.814c0.238-2.55,0.639-5.093-1.188-7.342c-0.506-0.623-0.761-1.489-1.003-2.283
		c-1.179-3.86,0.72-6.938,4.719-7.564c1.154-0.181,1.781-0.479,1.918-1.822c0.246-2.393-0.268-4.035-2.471-5.188
		c-1.754-0.918-3.71-1.452-5.647-2.183c2.263-3.252,5.628-4.735,9.573-4.972c5.215-0.315,9.304,2.065,12.782,5.717
		c0.577,0.606,1.062,1.306,1.669,1.877c0.3,0.283,0.796,0.517,1.18,0.485c0.199-0.016,0.468-0.647,0.5-1.019
		c0.261-3.062,1.645-5.533,3.902-7.548c0.385-0.343,0.872-0.572,1.321-0.859c0.391,1.829,0.75,3.508,1.108,5.186
		c0.161-0.001,0.321-0.003,0.481-0.005c0.793-4.154,3.629-6.272,7.34-7.607c-0.078,1.244-0.259,2.408-0.191,3.559
		c0.066,1.102,0.391,2.189,0.643,3.493c2.112-1.473,3.95-3.001,6.358-2.938c-0.519,1.973-1.082,3.894-1.513,5.844
		c-0.221,1.001,0.056,1.95,1.329,1.923c0.465-0.01,1.04-0.373,1.363-0.749c2.744-3.189,5.786-5.917,10.019-6.965
		c5.398-1.338,10.833,0.473,13.908,4.771c-0.583,0.144-1.133,0.233-1.652,0.415c-1.339,0.469-2.758,0.813-3.975,1.507
		c-2.577,1.469-2.99,2.857-2.373,6.152c0.056,0.297,0.529,0.61,0.874,0.737c0.547,0.2,1.163,0.206,1.727,0.372
		c3.291,0.969,4.864,3.695,3.923,6.986c-0.333,1.166-0.857,2.319-1.503,3.347c-1.675,2.665-1.054,5.41-0.367,8.125
		c0.152,0.602,0.951,1.08,1.519,1.533c3.47,2.765,3.804,6.983,0.472,9.934c-1.854,1.641-4.101,2.873-6.274,4.108
		c-1.996,1.134-3.169,2.791-3.177,4.975C87.999,62.499,88.252,66.631,88.395,70.763z M74.05,63.654l-0.016,0.012
		c-0.012,0.093,0.018,0.169,0.089,0.229c0.083,0.2,0.167,0.401,0.251,0.601c0.891,2.339,1.745,4.693,2.682,7.014
		c1.118,2.77,0.344,2.668,3.888,2.348c0.977-0.178,1.953-0.357,2.93-0.536c1.533-0.03,1.932-0.795,1.812-2.287
		c-0.293-3.627-0.399-7.27-0.605-10.905c-0.262-4.633,1.55-7.94,5.894-9.906c1.577-0.714,3.077-1.812,4.301-3.044
		c1.863-1.874,1.333-4.721-0.94-6.025c-0.056,0.455-0.107,0.883-0.195,1.605c-1.727-2.7-2.227-5.443-2.677-8.203
		c-0.016-0.491-0.031-0.981-0.046-1.472c0.071-0.087,0.078-0.18,0.021-0.277c0.235-1.778,0.47-3.556,0.705-5.334
		c0.091,0.014,0.182,0.027,0.273,0.04c0.106,0.451,0.213,0.901,0.396,1.671c0.57-0.997,1.039-1.686,1.376-2.433
		c1.327-2.936,0.133-4.9-3.128-4.857c-1.944,0.025-3.927,0.313-5.814,0.792c-4.926,1.249-8.965,4.195-12.986,7.137
		c-0.402,0.294-0.822,0.563-1.234,0.844c-0.063-0.074-0.127-0.148-0.19-0.223c0.695-0.996,1.391-1.992,2.086-2.988
		c0.171-0.2,0.342-0.399,0.514-0.599c0.07-0.046,0.113-0.11,0.128-0.193c2.504-2.006,5.008-4.012,7.803-6.251
		c-1.54-0.821-3.142-1.676-4.744-2.53l-0.064,0.011c-0.114-0.085-0.229-0.169-0.343-0.254c-5.479-2.57-11.305-3.094-17.182-2.392
		c-3.222,0.385-6.348,1.579-9.517,2.408c-1.867,0.726-3.642,1.591-4.852,2.925c2.666,2.167,5.232,4.253,7.799,6.338l-0.004-0.013
		c0.094,0.129,0.188,0.258,0.281,0.387c0.732,1.054,1.464,2.109,2.196,3.164c-2.479-1.388-4.714-2.971-7.015-4.453
		c-3.563-2.295-7.427-3.83-11.688-4.129c-1.804-0.126-3.936-0.343-4.873,1.589c-0.971,2.001,0.352,3.768,1.466,5.412
		c0.042,0.062,0.172,0.064,0.315,0.113c0.062-0.53,0.121-1.045,0.18-1.56c0.36,0.764,0.582,1.519,0.67,2.289
		c0.173,1.512,0.273,3.032,0.403,4.548c-0.294,1.438-0.486,2.906-0.911,4.304c-0.434,1.427-1.095,2.785-1.657,4.173
		c-0.107-0.05-0.213-0.099-0.32-0.148c-0.029-0.457-0.059-0.915-0.092-1.429c-2.564,1.563-2.712,4.768-0.248,6.733
		c1.489,1.188,3.19,2.14,4.882,3.035c3.184,1.683,4.631,4.376,4.581,7.839c-0.058,3.986-0.298,7.97-0.528,11.952
		c-0.124,2.143-0.188,2.14,1.76,2.595c1.071,0.183,2.142,0.366,3.212,0.548c1.021-0.083,2.339,0.86,2.96-0.656
		c1.226-2.993,2.354-6.026,3.523-9.042c0.05-0.072,0.074-0.152,0.073-0.24c0.099-0.211,0.198-0.422,0.297-0.633
		c0.396-0.756,0.793-1.513,1.19-2.27c0.118,0.042,0.236,0.083,0.355,0.125c-0.531,5.319-2.405,10.332-4,15.545
		c8.902,0,17.561,0.001,26.219-0.004c0.139,0,0.278-0.066,0.372-0.09c-1.446-5.483-2.887-10.949-4.328-16.414
		c0.162-0.05,0.325-0.1,0.487-0.149c0.538,1.085,1.076,2.171,1.613,3.256C73.907,63.415,73.979,63.534,74.05,63.654z M84.193,88.182
		c-3.268-0.162-4.405,0.8-5.18,4.488c2.129-1.13,3.996-2.404,5.157-4.507c0.015-0.037,0.03-0.073,0.044-0.11
		C84.208,88.096,84.201,88.139,84.193,88.182z M93.691,69.24c-2.802,5.742-8.112,7.053-13.639,7.684
		c0.892,1.7,1.765,3.365,2.637,5.03c-0.131,1.054-0.262,2.108-0.409,3.296c4.428-0.274,8.312-1.603,10.812-5.416
		c2.327-3.551,2.225-7.478,0.99-11.476C93.952,68.652,93.821,68.946,93.691,69.24z M31.808,68.79
		c-0.017-0.093-0.018-0.26-0.052-0.267c-0.101-0.021-0.307,0.009-0.311,0.041c-0.209,1.639-0.591,3.284-0.563,4.921
		c0.097,5.716,3.184,9.62,8.701,11.133c1.269,0.348,2.601,0.466,3.958,0.7c-0.198-1.333-0.349-2.349-0.5-3.364
		c0.903-1.678,1.805-3.356,2.721-5.057C39.909,76.348,34.594,74.738,31.808,68.79z M77.661,88.752
		c0.105-0.193,0.211-0.387,0.316-0.581c0.471-1.075,1.021-2.122,1.397-3.229c1.215-3.566-0.156-5.51-3.929-5.665
		c-0.246-0.01-0.492-0.015-0.738-0.015c-7.876-0.001-15.752-0.008-23.628,0.011c-0.779,0.002-1.575,0.093-2.333,0.271
		c-2.338,0.549-3.256,1.927-2.641,4.237c0.401,1.504,1.112,2.926,1.685,4.385c0.099,0.181,0.198,0.362,0.296,0.543
		c0.074,0.122,0.148,0.245,0.223,0.366c1.281,1.657,2.305,3.63,3.889,4.912c5.208,4.216,11.17,4.564,17.297,2.428
		c3.778-1.318,6.5-3.982,8.167-7.662L77.661,88.752z M93.153,8.998c-5.852-2.559-11.877-0.32-15.35,5.707
		c0.692,0.336,1.378,0.669,2.039,0.989c2.671-3.968,6.372-6.429,10.977-5.957C91.472,9.804,92.182,9.322,93.153,8.998z
		 M33.004,9.247c0.87,0.164,1.741,0.477,2.608,0.465c2.616-0.035,4.998,0.592,6.972,2.333c1.235,1.09,2.33,2.339,3.549,3.579
		c0.563-0.289,1.21-0.622,1.86-0.955C44.859,8.917,38.406,6.389,33.004,9.247z M88.39,12.089c-0.247,0.039-0.669,0.069-1.07,0.175
		c-2.076,0.556-3.341,2.017-4.104,3.914c-0.233,0.58-0.361,1.528-0.05,1.931c0.645,0.837,1.21,1.985,2.815,1.443
		c1.076-0.364,1.359-0.986,1.509-1.885C87.787,15.894,88.064,14.116,88.39,12.089z M37.343,12.171
		c0.24,1.361,0.469,2.645,0.693,3.93c0.117,0.675,0.21,1.354,0.338,2.027c0.268,1.404,1.618,1.775,2.46,1.493
		c0.885-0.296,1.997-1.443,2.082-2.31C43.146,14.965,39.829,12.157,37.343,12.171z M41.51,88.193
		c1.299,1.932,3.024,3.416,5.542,4.55C45.688,90.248,45.263,87.256,41.51,88.193z"/>
	<path fill-rule="evenodd" clip-rule="evenodd" fill="#473312" d="M91.564,105.665c1.853,0,3.457,0,5.162,0
		c0,6.892,0,13.723,0,20.628c-2.364,0.339-4.352,0.308-6.016-1.937c-2.459-3.316-5.282-6.362-8.213-9.836c0,4.16,0,7.953,0,11.826
		c-1.79,0-3.388,0-5.067,0c0-6.903,0-13.735,0-20.65c2.329-0.285,4.325-0.296,5.985,1.956c2.447,3.318,5.268,6.361,8.149,9.782
		C91.564,113.368,91.564,109.613,91.564,105.665z"/>
	<path fill-rule="evenodd" clip-rule="evenodd" fill="#46310F" d="M34.496,105.817c3.491,0,6.893-0.204,10.257,0.062
		c2.858,0.227,5.174,1.617,5.862,4.746c0.61,2.771-0.526,5.05-3.401,6.985c1.847,2.817,3.693,5.633,5.718,8.722
		c-2.235,0-4.13,0.097-6.004-0.063c-0.534-0.045-1.123-0.755-1.484-1.296c-1.038-1.553-2.013-3.152-2.93-4.78
		c-0.529-0.939-1.164-1.438-2.405-1.076c0,2.343,0,4.736,0,7.218c-1.936,0-3.729,0-5.613,0
		C34.496,119.464,34.496,112.638,34.496,105.817z M40.146,114.99c1.735,0.076,3.522,0.382,4.491-1.235
		c0.428-0.716,0.438-2.17-0.021-2.83c-1.051-1.511-2.825-1.116-4.469-1.058C40.146,111.603,40.146,113.209,40.146,114.99z"/>
	<path fill-rule="evenodd" clip-rule="evenodd" fill="#483413" d="M25.202,119.438c-0.889,0-1.804,0-2.819,0
		c0-1.402,0-2.657,0-4.053c2.692,0,5.411,0,8.245,0c0,2.804,0.028,5.562-0.033,8.317c-0.008,0.384-0.372,0.936-0.721,1.111
		c-4.789,2.405-9.647,2.788-14.375-0.041c-3.7-2.214-5.383-6.531-4.545-10.892c0.824-4.286,3.886-7.355,8.268-8.209
		c3.599-0.702,7.069-0.408,10.259,1.578c0.487,0.304,0.907,0.717,1.429,1.136c-0.862,1.266-1.657,2.431-2.51,3.682
		c-0.979-0.515-1.824-1.002-2.704-1.415c-3.872-1.819-7.87-0.248-8.856,3.462c-1.247,4.685,1.605,8.368,6.296,8.134
		C25.444,122.134,25.576,121.965,25.202,119.438z"/>
	<path fill-rule="evenodd" clip-rule="evenodd" fill="#473312" d="M67.632,105.645c1.989,0,3.752,0,5.489,0
		c0.088,0.109,0.2,0.184,0.2,0.257c-0.017,4.529,0.161,9.071-0.131,13.583c-0.246,3.798-3.31,6.437-7.597,7.061
		c-2.539,0.37-5.017,0.065-7.291-1.243c-2.398-1.379-3.826-3.515-3.962-6.215c-0.199-3.935-0.082-7.886-0.098-11.829
		c-0.002-0.485,0-0.972,0-1.564c1.891,0,3.686,0,5.63,0c0.021,0.45,0.062,0.923,0.063,1.396c0.007,3.55-0.024,7.1,0.018,10.648
		c0.03,2.592,1.263,4.057,3.406,4.202c2.672,0.181,4.229-1.195,4.261-3.879c0.043-3.599,0.012-7.198,0.013-10.798
		C67.633,106.78,67.632,106.298,67.632,105.645z"/>
	<path fill-rule="evenodd" clip-rule="evenodd" fill="#483413" d="M117.257,105.697c0,1.475,0,2.832,0,4.338
		c-1.977,0-3.874,0-5.901,0c0,4.226,0.013,8.302-0.007,12.378c-0.007,1.269,0.381,3.088-0.277,3.663
		c-0.778,0.679-2.495,0.284-3.805,0.354c-0.049,0.003-0.1-0.006-0.147,0.001c-1.196,0.189-1.609-0.248-1.589-1.518
		c0.075-4.877,0.03-9.757,0.03-14.832c-1.963,0-3.9,0-5.911,0c0-1.554,0-2.911,0-4.384
		C105.486,105.697,111.317,105.697,117.257,105.697z"/>
	<path fill-rule="evenodd" clip-rule="evenodd" fill="#F5A900" d="M34.396,34.266c-0.13-1.517-0.229-3.037-0.403-4.548
		c-0.088-0.77-0.31-1.525-0.67-2.289c-0.059,0.514-0.119,1.029-0.18,1.56c-0.144-0.049-0.274-0.051-0.315-0.113
		c-1.115-1.644-2.437-3.411-1.466-5.412c0.937-1.932,3.069-1.715,4.873-1.589c4.261,0.3,8.125,1.834,11.688,4.129
		c2.301,1.482,4.536,3.065,7.015,4.453c-0.732-1.055-1.464-2.11-2.196-3.165c-0.094-0.129-0.188-0.258-0.281-0.386
		c0,0,0.004,0.013,0.004,0.013c-0.484-1.15-0.886-2.342-1.469-3.439c-0.974-1.834-2.361-3.53-1.479-5.824
		c3.169-0.829,6.294-2.023,9.517-2.408c5.876-0.702,11.702-0.178,17.182,2.393c0.114,0.085,0.229,0.169,0.343,0.254
		c0,0,0.064-0.011,0.063-0.01c0.071,2.022-0.705,3.746-1.724,5.447c-0.607,1.013-0.899,2.216-1.333,3.333
		c-0.015,0.083-0.058,0.147-0.128,0.193c-0.171,0.199-0.343,0.399-0.514,0.599c-0.696,0.996-1.391,1.992-2.086,2.988
		c0.063,0.075,0.127,0.148,0.19,0.223c0.412-0.281,0.832-0.55,1.234-0.844c4.021-2.942,8.06-5.888,12.986-7.137
		c1.887-0.479,3.871-0.767,5.814-0.792c3.261-0.042,4.455,1.921,3.128,4.857c-0.338,0.747-0.807,1.436-1.376,2.433
		c-0.183-0.77-0.29-1.221-0.396-1.671c-0.091-0.013-0.182-0.026-0.273-0.04c-0.235,1.778-0.47,3.557-0.705,5.334
		c-0.023,0.027-0.067,0.055-0.066,0.081c0.004,0.066,0.028,0.131,0.044,0.196c0.015,0.491,0.031,0.981,0.046,1.472
		c-0.157,0.419-0.446,0.837-0.45,1.258c-0.03,3.412,0.274,6.749,2.891,9.748c-2.074,1.055-3.91,2.07-5.813,2.933
		c-1.727,0.783-3.52,1.484-4.14,3.472c-0.515,1.65-0.81,3.369-1.199,5.044c-0.299-0.83-0.629-1.745-0.959-2.66
		c-0.28,6.486,0.017,12.836,2.081,18.97c-0.977,0.178-1.953,0.357-2.93,0.536c-1.957-2.976-3.908-5.956-5.883-8.92
		c-0.138-0.208-0.454-0.297-0.687-0.441c-0.084-0.2-0.167-0.401-0.251-0.601c0.042-0.06,0.084-0.119,0.126-0.178
		c-0.072-0.017-0.144-0.034-0.215-0.051c0,0,0.016-0.012,0.017-0.012c-0.071-0.12-0.143-0.239-0.215-0.359
		c-0.538-1.085-1.076-2.171-1.613-3.256c-0.162,0.05-0.325,0.1-0.487,0.149c1.441,5.465,2.882,10.931,4.328,16.414
		c-0.093,0.024-0.232,0.09-0.372,0.09c-8.658,0.005-17.317,0.004-26.219,0.004c1.595-5.213,3.469-10.227,4-15.545
		c-0.119-0.042-0.237-0.083-0.355-0.125c-0.396,0.756-0.793,1.513-1.19,2.27c-0.099,0.211-0.198,0.422-0.297,0.633
		c0.001,0.088-0.022,0.167-0.073,0.24c-0.289,0.23-0.656,0.407-0.853,0.699c-1.443,2.141-2.871,4.292-4.261,6.468
		c-0.515,0.807-0.916,1.686-1.37,2.532c-1.07-0.182-2.141-0.366-3.212-0.548c2.159-6.118,2.428-12.454,2.142-18.865
		c-0.338,0.885-0.677,1.77-1.016,2.654c-0.217-4.336-1.509-7.608-6.088-8.946c-1.746-0.51-3.264-1.8-4.521-2.525
		c0.784-1.991,1.676-3.469,1.91-5.045C34.597,38.523,34.385,36.377,34.396,34.266z M67.594,34.593
		c0.099-0.103,0.198-0.205,0.297-0.308c0.264-0.306,0.528-0.612,0.724-0.84c-1.882,0.184-3.714,0.512-5.544,0.502
		c-1.846-0.01-3.691-0.354-5.537-0.552c-0.128-0.036-0.256-0.072-0.385-0.107c0.128,0.036,0.257,0.071,0.385,0.107
		c0.196,0.395,0.393,0.79,0.589,1.185c3.291,3.741,6.039,3.815,9.349,0.25c0.064-0.069,0.095-0.168,0.142-0.253L67.594,34.593z
		 M49.243,54.413c1.176-0.727,2.353-1.454,3.529-2.182c0.792-1.558,1.738-3.063,2.31-4.697c0.273-0.782,0.421-1.211,1.271-1.434
		c1.866-0.489,2.825-1.749,2.778-3.374c-0.623,0.076-1.247,0.152-1.87,0.229c-2-1.136-3.515-2.713-4.745-4.676
		c-0.685-1.092-1.749-1.984-2.759-2.826c-2.152-1.794-4.846-2.203-7.478-2.259c-1.617-0.034-3.251,0.736-4.877,1.145
		c-0.05,0.048-0.104,0.054-0.164,0.018c-0.143,0.061-0.286,0.122-0.428,0.183c-0.029,0.04-0.074,0.077-0.083,0.121
		c-0.007,0.04,0.014,0.117,0.04,0.126c0.585,0.208,1.172,0.41,1.863,0.647c-1.568,1.969-1.371,3.839-0.173,5.884
		c0.24-0.847,0.431-1.519,0.622-2.19c0.1,0.009,0.2,0.019,0.299,0.028c0.05,0.516,0.101,1.032,0.151,1.548
		c0.066,0.229,0.132,0.458,0.198,0.687c0.039,0.153,0.077,0.306,0.115,0.459c-0.163,4.962,4.275,8.535,10.872,8.413
		c-0.519,1.471-0.993,2.812-1.467,4.154c-0.022,0.04-0.045,0.08-0.067,0.12C49.2,54.496,49.221,54.455,49.243,54.413z
		 M76.484,54.413c0.039,0.024,0.078,0.047,0.117,0.07c-0.041-0.022-0.081-0.043-0.122-0.065c-0.456-1.354-0.913-2.708-1.415-4.2
		c7.689,0.76,10.844-4.467,11.121-9.241c0.102-0.601,0.203-1.201,0.304-1.802c0.083,0.003,0.167,0.007,0.25,0.01
		c0.178,0.662,0.355,1.323,0.577,2.145c1.163-2.066,1.461-3.948-0.165-5.855c0.68-0.267,1.262-0.496,1.929-0.757
		c-0.361-0.142-0.582-0.229-0.803-0.315c-0.393-0.239-0.769-0.649-1.18-0.687c-1.772-0.167-3.563-0.384-5.332-0.287
		c-3.512,0.194-6.402,1.725-8.382,4.685c-1.316,1.968-2.735,3.78-4.918,4.843c-0.648-0.074-1.297-0.148-2.022-0.229
		c0.323,1.924,1.42,2.925,3.107,3.459c0.399,0.126,0.803,0.556,1,0.949c0.843,1.679,1.61,3.397,2.404,5.102
		C74.132,52.962,75.308,53.688,76.484,54.413z"/>
	<path fill-rule="evenodd" clip-rule="evenodd" fill="#F5A800" d="M47.789,88.167c-0.572-1.458-1.283-2.88-1.685-4.385
		c-0.616-2.31,0.302-3.688,2.641-4.237c0.758-0.178,1.554-0.269,2.333-0.271c7.876-0.019,15.752-0.012,23.628-0.011
		c0.246,0,0.493,0.005,0.738,0.015c3.773,0.155,5.144,2.099,3.929,5.665c-0.376,1.106-0.926,2.154-1.397,3.229
		c-0.105,0.194-0.21,0.388-0.316,0.581l0,0.001c-1.019,0.662-2.01,1.372-3.062,1.976c-2.644,1.517-5.525,2.206-8.542,2.567
		c-4.127,0.496-8.155,0.182-12.017-1.299c-1.991-0.764-3.826-1.935-5.732-2.921c-0.074-0.122-0.148-0.244-0.223-0.366
		C47.986,88.529,47.887,88.348,47.789,88.167z M76.154,85.784c0.108-0.194,0.217-0.389,0.325-0.583
		c0.903-2.323,0.498-2.954-1.958-2.982c-1.824-0.021-3.649-0.036-5.473,0.004c-1.77,0.039-2.164,0.61-1.692,2.306
		c0.214,0.885,0.304,1.824,0.665,2.645c0.919,2.089,2.582,3.255,4.052,3.009c2.003-0.334,3.798-2.271,4.089-4.41L76.154,85.784z
		 M49.564,85.782l-0.004-0.008c0.334,2.222,1.678,3.589,3.743,4.257c1.456,0.471,2.737-0.187,3.445-1.323
		c0.773-1.241,1.117-2.749,1.648-4.14c0.506-1.734,0.149-2.289-1.614-2.341c-1.575-0.047-3.152-0.022-4.728-0.01
		c-3.382,0.026-3.448,0.108-2.796,3.258C49.36,85.578,49.462,85.68,49.564,85.782z"/>
	<path fill-rule="evenodd" clip-rule="evenodd" fill="#E08700" d="M34.396,34.266c-0.011,2.112,0.201,4.257-0.105,6.326
		c-0.234,1.576-1.126,3.054-1.91,5.045c1.258,0.725,2.775,2.015,4.521,2.525c4.579,1.338,5.871,4.61,6.088,8.946
		c0.339-0.885,0.677-1.77,1.016-2.654c0.286,6.411,0.017,12.748-2.142,18.865c-1.947-0.455-1.883-0.452-1.76-2.595
		c0.229-3.981,0.47-7.966,0.528-11.952c0.05-3.463-1.397-6.156-4.581-7.839c-1.692-0.895-3.394-1.847-4.882-3.035
		c-2.464-1.965-2.316-5.169,0.248-6.733c0.033,0.514,0.063,0.972,0.092,1.429c0.107,0.05,0.213,0.099,0.32,0.148
		c0.562-1.388,1.223-2.746,1.657-4.173C33.91,37.171,34.102,35.703,34.396,34.266z"/>
	<path fill-rule="evenodd" clip-rule="evenodd" fill="#E08700" d="M83.874,73.321c-2.064-6.134-2.361-12.483-2.081-18.97
		c0.33,0.915,0.66,1.83,0.959,2.66c0.389-1.675,0.684-3.394,1.199-5.044c0.62-1.988,2.413-2.688,4.14-3.472
		c1.904-0.863,3.739-1.878,5.813-2.933c-2.617-2.999-2.921-6.336-2.891-9.748c0.003-0.42,0.293-0.838,0.45-1.258
		c0.451,2.76,0.951,5.503,2.677,8.203c0.088-0.722,0.14-1.151,0.195-1.605c2.273,1.304,2.803,4.151,0.94,6.025
		c-1.224,1.232-2.724,2.33-4.301,3.044c-4.343,1.966-6.156,5.272-5.894,9.906c0.206,3.635,0.312,7.277,0.605,10.905
		C85.806,72.526,85.406,73.292,83.874,73.321z M94.397,42.944l-0.042,0.079l0.062,0.008L94.397,42.944z"/>
	<path fill-rule="evenodd" clip-rule="evenodd" fill="#E08600" d="M48.308,89.076c1.906,0.987,3.741,2.158,5.732,2.921
		c3.862,1.48,7.889,1.795,12.017,1.299c3.018-0.361,5.899-1.05,8.542-2.567c1.052-0.604,2.042-1.313,3.062-1.976
		c-1.667,3.68-4.388,6.344-8.167,7.662c-6.126,2.136-12.088,1.788-17.297-2.428C50.613,92.706,49.588,90.733,48.308,89.076z"/>
	<path fill-rule="evenodd" clip-rule="evenodd" fill="#FFFFFF" d="M31.808,68.79c2.786,5.948,8.101,7.559,13.953,8.108
		c-0.916,1.701-1.818,3.378-2.721,5.057C36.04,81.382,31.531,76.097,31.808,68.79z"/>
	<path fill-rule="evenodd" clip-rule="evenodd" fill="#FFFFFF" d="M82.69,81.954c-0.873-1.666-1.746-3.331-2.637-5.03
		c5.526-0.631,10.837-1.942,13.639-7.684c0.088,0.364,0.263,0.73,0.251,1.091C93.735,76.345,89.61,81.41,82.69,81.954z"/>
	<path fill-rule="evenodd" clip-rule="evenodd" fill="#C7C6C6" d="M31.808,68.79c-0.277,7.307,4.232,12.593,11.232,13.165
		c0.151,1.015,0.302,2.031,0.5,3.364c-1.357-0.234-2.688-0.353-3.958-0.7c-5.518-1.513-8.604-5.417-8.701-11.133
		c-0.028-1.638,0.354-3.282,0.563-4.921c0.004-0.031,0.21-0.062,0.311-0.041C31.79,68.53,31.792,68.696,31.808,68.79z"/>
	<path fill-rule="evenodd" clip-rule="evenodd" fill="#C7C6C6" d="M82.69,81.954c6.92-0.544,11.045-5.609,11.252-11.624
		c0.012-0.36-0.163-0.727-0.251-1.091c0.13-0.293,0.26-0.587,0.391-0.881c1.235,3.998,1.337,7.925-0.99,11.476
		c-2.5,3.813-6.384,5.142-10.812,5.416C82.428,84.063,82.559,83.008,82.69,81.954z"/>
	<path fill-rule="evenodd" clip-rule="evenodd" fill="#F0A500" d="M93.153,8.998c-0.971,0.324-1.681,0.807-2.334,0.74
		c-4.605-0.473-8.306,1.989-10.977,5.957c-0.661-0.32-1.347-0.653-2.039-0.989C81.276,8.678,87.301,6.439,93.153,8.998z"/>
	<path fill-rule="evenodd" clip-rule="evenodd" fill="#F0A500" d="M33.004,9.247c5.402-2.857,11.855-0.329,14.989,5.422
		c-0.649,0.333-1.297,0.666-1.86,0.955c-1.219-1.24-2.314-2.489-3.549-3.579c-1.974-1.741-4.355-2.368-6.972-2.333
		C34.745,9.723,33.874,9.411,33.004,9.247z"/>
	<path fill-rule="evenodd" clip-rule="evenodd" fill="#DE8500" d="M88.39,12.089c-0.326,2.027-0.604,3.804-0.899,5.578
		c-0.15,0.899-0.434,1.521-1.509,1.885c-1.604,0.542-2.17-0.606-2.815-1.443c-0.312-0.403-0.183-1.352,0.05-1.931
		c0.762-1.897,2.028-3.358,4.104-3.914C87.721,12.158,88.143,12.128,88.39,12.089z"/>
	<path fill-rule="evenodd" clip-rule="evenodd" fill="#DE8500" d="M37.343,12.171c2.486-0.014,5.803,2.794,5.573,5.14
		c-0.085,0.867-1.196,2.014-2.082,2.31c-0.842,0.282-2.192-0.088-2.46-1.493c-0.128-0.673-0.221-1.352-0.338-2.027
		C37.812,14.816,37.583,13.532,37.343,12.171z"/>
	<path fill-rule="evenodd" clip-rule="evenodd" fill="#E08600" d="M49.517,17.656c-0.882,2.294,0.505,3.99,1.479,5.824
		c0.583,1.097,0.985,2.289,1.469,3.439c-2.567-2.085-5.133-4.171-7.799-6.338C45.875,19.247,47.65,18.381,49.517,17.656z"/>
	<path fill-rule="evenodd" clip-rule="evenodd" fill="#DE8600" d="M73.563,26.665c0.434-1.118,0.726-2.32,1.333-3.333
		c1.019-1.701,1.795-3.424,1.724-5.447c1.604,0.853,3.206,1.708,4.746,2.529C78.571,22.653,76.067,24.659,73.563,26.665z"/>
	<path fill-rule="evenodd" clip-rule="evenodd" fill="#DE8600" d="M74.375,64.496c0.233,0.145,0.548,0.234,0.687,0.441
		c1.975,2.964,3.926,5.944,5.883,8.92c-3.543,0.32-2.77,0.422-3.888-2.348C76.12,69.189,75.265,66.835,74.375,64.496z"/>
	<path fill-rule="evenodd" clip-rule="evenodd" fill="#DE8600" d="M45.076,73.867c0.454-0.846,0.854-1.725,1.37-2.532
		c1.39-2.175,2.818-4.327,4.261-6.468c0.197-0.292,0.564-0.469,0.853-0.699c-1.169,3.016-2.297,6.049-3.523,9.042
		C47.415,74.727,46.097,73.784,45.076,73.867z"/>
	<path fill-rule="evenodd" clip-rule="evenodd" fill="#ECA200" d="M41.51,88.193c3.753-0.937,4.178,2.054,5.542,4.55
		C44.534,91.609,42.81,90.125,41.51,88.193z"/>
	<path fill-rule="evenodd" clip-rule="evenodd" fill="#ECA200" d="M84.171,88.163c-1.161,2.103-3.028,3.377-5.157,4.507
		c0.774-3.688,1.912-4.65,5.18-4.488L84.171,88.163z"/>
	<path fill-rule="evenodd" clip-rule="evenodd" fill="#ECA200" d="M84.193,88.182c0.007-0.043,0.015-0.086,0.021-0.13
		c-0.015,0.037-0.029,0.074-0.044,0.111C84.171,88.163,84.193,88.182,84.193,88.182z"/>
	<path fill-rule="evenodd" clip-rule="evenodd" fill="#DE8600" d="M74.034,63.666c0.071,0.018,0.143,0.034,0.215,0.051
		c-0.042,0.059-0.084,0.118-0.126,0.178C74.052,63.834,74.022,63.758,74.034,63.666z"/>
	<path fill-rule="evenodd" clip-rule="evenodd" fill="#E08700" d="M91.416,33.085c-0.016-0.065-0.041-0.129-0.044-0.196
		c-0.001-0.026,0.043-0.054,0.066-0.081C91.494,32.905,91.487,32.998,91.416,33.085z"/>
	<path fill-rule="evenodd" clip-rule="evenodd" fill="#49330E" d="M72.956,52.236c-0.794-1.704-1.561-3.422-2.404-5.102
		c-0.197-0.393-0.601-0.822-1-0.949c-1.687-0.534-2.784-1.535-3.107-3.459c0.725,0.082,1.374,0.156,2.022,0.229
		c0.38,0.026,0.768,0.118,1.137,0.068c1.769-0.24,2.977-1.36,4.152-2.599c3.939-4.154,8.561-6.72,14.523-6.022
		c0.221,0.086,0.442,0.173,0.803,0.315c-0.667,0.262-1.25,0.491-1.929,0.757c1.625,1.907,1.327,3.789,0.165,5.855
		c-0.221-0.822-0.399-1.483-0.577-2.145c-0.083-0.003-0.167-0.007-0.25-0.01c-0.101,0.601-0.203,1.202-0.304,1.803
		c-0.848,1.992-1.655,4.002-3.723,5.119c-3.01,1.625-6.032,2.335-9.076,0.176C72.089,48.249,72.857,50.264,72.956,52.236z
		 M82.919,41.066c0-1.145,0-2.289,0-3.708c-3.12,1.836-5.784,3.622-7.919,6.102c-0.293,0.354-0.585,0.707-0.88,1.063
		C77.099,46.757,82.925,45.287,82.919,41.066z"/>
	<path fill-rule="evenodd" clip-rule="evenodd" fill="#49330F" d="M39.841,41.85c-0.038-0.153-0.076-0.306-0.115-0.459
		c-0.066-0.229-0.132-0.458-0.198-0.687c-0.05-0.516-0.101-1.033-0.151-1.548c-0.1-0.01-0.2-0.019-0.299-0.028
		c-0.191,0.672-0.382,1.343-0.622,2.19c-1.198-2.045-1.395-3.916,0.173-5.884c-0.69-0.238-1.278-0.439-1.863-0.647
		c-0.026-0.009-0.047-0.086-0.04-0.126c0.009-0.044,0.053-0.081,0.083-0.121c0.143-0.061,0.285-0.122,0.428-0.183
		c0.059,0.036,0.114,0.03,0.164-0.019c2.233,0.245,4.535,0.229,6.683,0.796c3.373,0.891,5.977,3.125,8.307,5.674
		c1.296,1.417,2.785,2.48,4.87,2.147c0.624-0.077,1.247-0.152,1.87-0.229c0.047,1.625-0.912,2.884-2.778,3.374
		c-0.851,0.223-0.999,0.652-1.271,1.434c-0.571,1.635-1.517,3.14-2.309,4.696c0.197-1.995,0.876-4.028-0.434-5.989
		c-1.587,1.185-3.316,1.62-5.188,1.284C43.736,46.912,41.21,45.117,39.841,41.85z M50.749,43.431
		c-2.136-2.473-4.794-4.26-7.911-6.077c0,1.412,0,2.559,0,3.706c0.049,4.311,5.937,5.679,8.754,3.498
		c-0.084-0.155-0.155-0.333-0.268-0.478C51.148,43.852,50.942,43.646,50.749,43.431z"/>
	<path fill-rule="evenodd" clip-rule="evenodd" fill="#E08700" d="M72.956,52.236c-0.099-1.973-0.867-3.987,0.431-5.964
		c3.044,2.159,6.066,1.449,9.076-0.176c2.068-1.117,2.875-3.127,3.723-5.119c-0.277,4.773-3.432,10-11.121,9.241
		c0.502,1.492,0.959,2.846,1.415,4.2l0.004-0.005C75.308,53.688,74.132,52.962,72.956,52.236z"/>
	<path fill-rule="evenodd" clip-rule="evenodd" fill="#E08700" d="M39.841,41.85c1.369,3.267,3.895,5.062,7.309,5.675
		c1.872,0.336,3.601-0.099,5.188-1.284c1.31,1.961,0.631,3.994,0.434,5.989c-1.177,0.729-2.353,1.456-3.529,2.183l0.004,0.004
		c0.474-1.342,0.948-2.683,1.467-4.154C44.116,50.385,39.679,46.812,39.841,41.85z"/>
	<path fill-rule="evenodd" clip-rule="evenodd" fill="#DE8600" d="M57.26,42.955c-2.085,0.333-3.574-0.73-4.87-2.147
		c-2.33-2.548-4.934-4.783-8.307-5.674c-2.148-0.567-4.45-0.551-6.683-0.796c1.626-0.408,3.26-1.178,4.877-1.144
		c2.632,0.056,5.326,0.465,7.478,2.259c1.01,0.842,2.074,1.734,2.759,2.826C53.746,40.242,55.261,41.819,57.26,42.955z"/>
	<path fill-rule="evenodd" clip-rule="evenodd" fill="#DF8600" d="M88.278,34.402c-5.962-0.698-10.584,1.869-14.523,6.022
		c-1.175,1.239-2.383,2.359-4.152,2.599c-0.369,0.05-0.757-0.042-1.137-0.068c2.183-1.063,3.602-2.875,4.918-4.843
		c1.98-2.96,4.871-4.49,8.382-4.685c1.768-0.097,3.56,0.12,5.332,0.287C87.51,33.753,87.886,34.163,88.278,34.402z"/>
	<path fill-rule="evenodd" clip-rule="evenodd" fill="#DF8600" d="M58.124,34.579c-0.197-0.395-0.393-0.79-0.589-1.185l0,0
		c1.845,0.198,3.69,0.542,5.537,0.552c1.831,0.01,3.663-0.318,5.544-0.502c-0.196,0.228-0.46,0.534-0.724,0.84
		c-0.099,0.103-0.198,0.205-0.297,0.308l0.021-0.017c-1.848,0.311-3.691,0.817-5.546,0.865
		C60.762,35.476,59.439,34.889,58.124,34.579z"/>
	<path fill-rule="evenodd" clip-rule="evenodd" fill="#52380B" d="M58.124,34.579c1.315,0.31,2.638,0.897,3.944,0.862
		c1.855-0.048,3.698-0.555,5.546-0.865c-0.046,0.085-0.078,0.184-0.142,0.253C64.163,38.394,61.415,38.32,58.124,34.579z"/>
	<path fill-rule="evenodd" clip-rule="evenodd" fill="#47310D" d="M67.356,84.528c-0.472-1.695-0.078-2.267,1.692-2.306
		c1.824-0.041,3.649-0.025,5.473-0.004c2.456,0.028,2.861,0.659,1.958,2.982c-0.108,0.194-0.216,0.389-0.325,0.583l0.008-0.012
		c-0.426,0.461-0.841,0.936-1.282,1.383c-2.001,2.032-4.198,1.901-5.93-0.368C68.391,86.055,67.886,85.282,67.356,84.528z"/>
	<path fill-rule="evenodd" clip-rule="evenodd" fill="#47310E" d="M49.258,85.476c-0.652-3.15-0.586-3.232,2.796-3.258
		c1.576-0.012,3.153-0.038,4.728,0.01c1.763,0.053,2.121,0.607,1.614,2.341c-0.598,0.84-1.165,1.704-1.799,2.516
		c-1.485,1.898-3.593,2.017-5.365,0.329c-0.565-0.538-1.115-1.092-1.672-1.639c0,0,0.004,0.008,0.003,0.008
		C49.462,85.68,49.36,85.578,49.258,85.476z"/>
	<path fill-rule="evenodd" clip-rule="evenodd" fill="#DC8400" d="M49.561,85.774c0.557,0.546,1.107,1.101,1.672,1.639
		c1.771,1.688,3.88,1.57,5.365-0.329c0.634-0.812,1.202-1.676,1.799-2.516c-0.531,1.392-0.875,2.899-1.648,4.14
		c-0.708,1.136-1.989,1.794-3.445,1.323C51.238,89.363,49.895,87.996,49.561,85.774z"/>
	<path fill-rule="evenodd" clip-rule="evenodd" fill="#DE8500" d="M67.356,84.528c0.53,0.754,1.035,1.526,1.594,2.259
		c1.732,2.269,3.929,2.4,5.93,0.368c0.441-0.447,0.855-0.921,1.282-1.383c-0.291,2.139-2.086,4.076-4.089,4.41
		c-1.471,0.246-3.133-0.92-4.052-3.009C67.66,86.353,67.57,85.413,67.356,84.528z"/>
	<polygon fill-rule="evenodd" clip-rule="evenodd" fill="#493310" points="94.397,42.944 94.417,43.031 94.355,43.023 	"/>
	<path fill-rule="evenodd" clip-rule="evenodd" fill="#FFFFFF" d="M75,43.459c2.135-2.48,4.799-4.265,7.919-6.102
		c0,1.419,0,2.563,0,3.708c-1.287,1.641-2.742,3.105-4.982,3.102C76.958,44.167,75.979,43.709,75,43.459z"/>
	<path fill-rule="evenodd" clip-rule="evenodd" fill="#C5C4C3" d="M75,43.459c0.979,0.25,1.958,0.708,2.937,0.709
		c2.24,0.003,3.695-1.461,4.982-3.102c0.006,4.221-5.82,5.691-8.799,3.457C74.415,44.166,74.707,43.813,75,43.459z"/>
	<path fill-rule="evenodd" clip-rule="evenodd" fill="#FFFFFF" d="M42.838,41.06c0-1.147,0-2.294,0-3.706
		c3.117,1.817,5.774,3.604,7.911,6.077c-1.231,1.11-3.729,1.144-5.531-0.094C44.325,42.724,43.625,41.828,42.838,41.06z"/>
	<path fill-rule="evenodd" clip-rule="evenodd" fill="#C5C4C3" d="M42.838,41.06c0.787,0.768,1.486,1.664,2.379,2.277
		c1.803,1.238,4.3,1.204,5.531,0.094c0.193,0.215,0.399,0.421,0.576,0.649c0.113,0.145,0.183,0.323,0.268,0.478
		C48.775,46.738,42.888,45.371,42.838,41.06z"/>
</svg>
