<svg version="1.1" xmlns="http://www.w3.org/2000/svg" xmlns:xlink="http://www.w3.org/1999/xlink" viewBox="0 0 128 128">
	<path fill-rule="evenodd" clip-rule="evenodd" fill="#493310" d="M95.829,88.914c3.585-2.669,5.424-6.045,6.278-10.224
		c4.158,4.112,5.623,8.948,5.28,14.41c-0.465,7.407-3.867,12.805-10.891,15.705c-0.55,0.228-1.046,0.827-1.349,1.375
		c-3.292,5.965-8.135,9.74-14.96,10.819c-0.572,0.09-1.143,0.416-1.635,0.749c-8.116,5.477-21.017,5.457-29.175-0.038
		c-0.535-0.361-1.192-0.629-1.828-0.738c-6.137-1.061-10.799-4.298-13.954-9.611c-0.917-1.546-1.983-2.586-3.641-3.343
		c-11.845-5.406-11.643-22.932-4.233-29.038c0.723,1.785,1.281,3.66,2.215,5.326c0.942,1.681,2.256,3.153,3.407,4.717
		c0.188-0.051,0.376-0.103,0.564-0.154c0.195-1.959,0.455-3.914,0.568-5.877c0.159-2.764,0.28-5.535,0.288-8.304
		c0.01-3.38-1.254-6.012-4.446-7.656c-2.337-1.204-4.67-2.537-6.704-4.184c-4.972-4.026-4.846-9.453,0.18-13.347
		C23,48.567,23.716,47.5,23.857,45.99c0.297-3.182,0.797-6.355-1.482-9.161c-0.632-0.778-0.95-1.858-1.252-2.849
		c-1.472-4.817,0.898-8.657,5.89-9.44c1.439-0.226,2.222-0.598,2.394-2.273c0.307-2.985-0.334-5.035-3.084-6.473
		c-2.189-1.146-4.63-1.812-7.047-2.725c2.824-4.058,7.024-5.908,11.946-6.205c6.508-0.394,11.61,2.577,15.951,7.134
		c0.721,0.756,1.324,1.63,2.083,2.342c0.375,0.353,0.993,0.645,1.472,0.606c0.249-0.021,0.584-0.809,0.624-1.271
		c0.326-3.821,2.052-6.905,4.869-9.419c0.48-0.428,1.088-0.713,1.649-1.072c0.488,2.282,0.935,4.377,1.382,6.472
		c0.2-0.001,0.4-0.004,0.6-0.006c0.99-5.185,4.528-7.827,9.161-9.493c-0.097,1.552-0.324,3.006-0.239,4.441
		c0.083,1.375,0.488,2.732,0.803,4.359c2.635-1.838,4.929-3.746,7.934-3.667c-0.647,2.462-1.35,4.859-1.888,7.293
		c-0.276,1.249,0.069,2.433,1.658,2.4c0.581-0.012,1.298-0.465,1.701-0.934c3.424-3.979,7.22-7.383,12.502-8.692
		c6.737-1.67,13.518,0.59,17.356,5.953c-0.729,0.179-1.415,0.292-2.062,0.518c-1.671,0.586-3.442,1.015-4.96,1.88
		c-3.216,1.833-3.731,3.565-2.961,7.677c0.07,0.371,0.66,0.762,1.09,0.92c0.683,0.25,1.452,0.256,2.155,0.464
		c4.107,1.209,6.069,4.611,4.896,8.717c-0.416,1.456-1.07,2.894-1.876,4.177c-2.089,3.325-1.314,6.75-0.458,10.14
		c0.19,0.751,1.187,1.348,1.896,1.913c4.33,3.451,4.747,8.714,0.589,12.396c-2.313,2.048-5.117,3.585-7.829,5.126
		c-2.491,1.415-3.956,3.483-3.964,6.208C95.335,78.601,95.651,83.757,95.829,88.914z M77.928,80.042l-0.02,0.015
		c-0.014,0.115,0.023,0.21,0.112,0.285c0.104,0.25,0.208,0.5,0.313,0.75c1.112,2.919,2.178,5.857,3.347,8.752
		c1.395,3.457,0.43,3.329,4.852,2.93c1.219-0.223,2.437-0.446,3.656-0.669c1.913-0.037,2.411-0.992,2.261-2.854
		c-0.366-4.526-0.499-9.071-0.755-13.607c-0.327-5.783,1.935-9.909,7.354-12.362c1.968-0.891,3.84-2.261,5.368-3.798
		c2.324-2.339,1.663-5.892-1.174-7.519c-0.069,0.568-0.134,1.103-0.244,2.003c-2.154-3.37-2.778-6.792-3.341-10.236
		c-0.019-0.612-0.039-1.225-0.058-1.837c0.088-0.109,0.098-0.225,0.027-0.346c0.293-2.218,0.586-4.438,0.879-6.657
		c0.114,0.018,0.227,0.034,0.34,0.05c0.133,0.562,0.267,1.125,0.495,2.085c0.711-1.244,1.296-2.104,1.718-3.035
		c1.656-3.664,0.166-6.115-3.903-6.062c-2.426,0.031-4.901,0.391-7.256,0.988c-6.147,1.559-11.187,5.234-16.205,8.906
		c-0.501,0.367-1.026,0.703-1.54,1.053c-0.079-0.092-0.158-0.185-0.238-0.278c0.868-1.243,1.736-2.486,2.604-3.729
		c0.214-0.249,0.428-0.498,0.641-0.748c0.088-0.057,0.142-0.137,0.161-0.241c3.125-2.503,6.249-5.006,9.737-7.8
		c-1.922-1.025-3.921-2.092-5.92-3.158l-0.08,0.013c-0.143-0.105-0.286-0.211-0.429-0.317c-6.837-3.207-14.108-3.861-21.441-2.985
		c-4.021,0.48-7.921,1.971-11.876,3.005c-2.329,0.905-4.544,1.985-6.054,3.649c3.327,2.704,6.53,5.308,9.732,7.91l-0.004-0.016
		c0.117,0.161,0.234,0.322,0.351,0.483c0.913,1.316,1.826,2.632,2.74,3.949c-3.093-1.732-5.883-3.707-8.754-5.557
		c-4.446-2.864-9.268-4.779-14.585-5.153c-2.251-0.158-4.912-0.428-6.082,1.983c-1.211,2.496,0.439,4.702,1.83,6.753
		c0.052,0.077,0.214,0.08,0.394,0.141c0.076-0.662,0.15-1.304,0.225-1.946c0.449,0.953,0.726,1.895,0.836,2.856
		c0.216,1.886,0.34,3.783,0.503,5.676c-0.367,1.793-0.607,3.626-1.137,5.37c-0.541,1.781-1.366,3.475-2.067,5.208
		c-0.133-0.062-0.266-0.123-0.399-0.185c-0.037-0.571-0.074-1.142-0.115-1.783c-3.2,1.951-3.384,5.95-0.309,8.402
		c1.858,1.481,3.981,2.67,6.093,3.787c3.973,2.1,5.779,5.461,5.716,9.782c-0.071,4.974-0.372,9.946-0.658,14.915
		c-0.154,2.674-0.234,2.67,2.196,3.238c1.336,0.228,2.672,0.457,4.008,0.685c1.275-0.103,2.919,1.074,3.694-0.819
		c1.53-3.735,2.938-7.52,4.396-11.284c0.063-0.09,0.093-0.19,0.091-0.3c0.124-0.263,0.248-0.526,0.371-0.789
		c0.495-0.944,0.99-1.888,1.484-2.832c0.148,0.052,0.295,0.104,0.443,0.156c-0.663,6.637-3.001,12.894-4.993,19.399
		c11.109,0,21.915,0.001,32.72-0.006c0.174,0,0.347-0.083,0.463-0.113c-1.804-6.842-3.603-13.663-5.401-20.483
		c0.203-0.063,0.405-0.125,0.608-0.187c0.671,1.355,1.342,2.709,2.013,4.064C77.75,79.744,77.839,79.893,77.928,80.042z
		 M90.586,110.651c-4.079-0.202-5.498,0.998-6.464,5.601c2.658-1.411,4.987-3,6.436-5.625c0.019-0.045,0.037-0.092,0.056-0.138
		C90.604,110.543,90.595,110.598,90.586,110.651z M102.438,87.013c-3.496,7.166-10.123,8.802-17.019,9.588
		c1.112,2.122,2.202,4.199,3.291,6.277c-0.163,1.315-0.327,2.631-0.511,4.114c5.525-0.342,10.373-2,13.492-6.758
		c2.904-4.432,2.777-9.332,1.235-14.321C102.764,86.28,102.601,86.646,102.438,87.013z M25.214,86.451
		c-0.02-0.116-0.022-0.324-0.064-0.333c-0.126-0.026-0.383,0.012-0.388,0.05c-0.262,2.045-0.738,4.098-0.703,6.142
		c0.122,7.133,3.973,12.004,10.859,13.893c1.583,0.434,3.245,0.582,4.938,0.874c-0.248-1.664-0.436-2.931-0.625-4.198
		c1.126-2.094,2.253-4.188,3.395-6.311C35.324,95.884,28.691,93.874,25.214,86.451z M82.434,111.363
		c0.131-0.241,0.263-0.483,0.394-0.725c0.587-1.341,1.273-2.649,1.744-4.029c1.516-4.451-0.194-6.876-4.903-7.07
		c-0.307-0.013-0.614-0.018-0.921-0.018c-9.829-0.001-19.658-0.011-29.486,0.014c-0.972,0.002-1.965,0.115-2.911,0.337
		c-2.918,0.685-4.064,2.405-3.295,5.288c0.5,1.877,1.388,3.651,2.102,5.472c0.124,0.227,0.247,0.452,0.37,0.678
		c0.093,0.152,0.185,0.305,0.277,0.457c1.599,2.067,2.877,4.529,4.854,6.129c6.5,5.262,13.94,5.696,21.585,3.03
		c4.715-1.645,8.111-4.97,10.191-9.562L82.434,111.363z M101.767,11.836c-7.302-3.192-14.822-0.398-19.156,7.122
		c0.863,0.419,1.72,0.834,2.544,1.235c3.333-4.952,7.951-8.023,13.699-7.434C99.669,12.843,100.555,12.241,101.767,11.836z
		 M26.707,12.147c1.085,0.205,2.172,0.595,3.255,0.581c3.265-0.044,6.236,0.738,8.7,2.911c1.542,1.359,2.908,2.918,4.429,4.466
		c0.702-0.36,1.51-0.775,2.321-1.191C41.501,11.736,33.448,8.582,26.707,12.147z M95.823,15.695
		c-0.308,0.048-0.834,0.085-1.335,0.219c-2.59,0.693-4.169,2.517-5.121,4.884c-0.291,0.723-0.451,1.907-0.063,2.41
		c0.805,1.044,1.511,2.477,3.513,1.8c1.343-0.454,1.697-1.23,1.884-2.352C95.07,20.442,95.417,18.224,95.823,15.695z M32.121,15.796
		c0.3,1.698,0.586,3.301,0.865,4.904c0.146,0.843,0.263,1.69,0.422,2.53c0.334,1.752,2.019,2.214,3.07,1.862
		c1.105-0.37,2.492-1.801,2.598-2.883C39.363,19.284,35.223,15.779,32.121,15.796z M37.322,110.666
		c1.622,2.41,3.773,4.262,6.916,5.677C42.536,113.229,42.005,109.496,37.322,110.666z"/>
	<path fill-rule="evenodd" clip-rule="evenodd" fill="#F5A900" d="M28.444,43.369c-0.163-1.894-0.287-3.79-0.503-5.676
		c-0.11-0.961-0.387-1.903-0.836-2.856c-0.074,0.642-0.148,1.285-0.225,1.946c-0.18-0.061-0.342-0.063-0.394-0.141
		c-1.391-2.051-3.041-4.257-1.83-6.753c1.17-2.411,3.831-2.141,6.082-1.983c5.317,0.375,10.14,2.29,14.585,5.153
		c2.871,1.85,5.661,3.825,8.754,5.557c-0.914-1.316-1.827-2.632-2.74-3.949c-0.117-0.161-0.234-0.322-0.351-0.482
		c0,0,0.004,0.016,0.005,0.016c-0.604-1.435-1.105-2.923-1.833-4.292c-1.216-2.289-2.946-4.406-1.846-7.268
		c3.955-1.035,7.855-2.525,11.876-3.005c7.333-0.876,14.604-0.222,21.441,2.986c0.143,0.105,0.286,0.211,0.429,0.316
		c0,0,0.08-0.013,0.078-0.012c0.088,2.524-0.88,4.675-2.152,6.797c-0.758,1.265-1.122,2.765-1.663,4.16
		c-0.019,0.104-0.073,0.184-0.16,0.242c-0.214,0.249-0.428,0.498-0.642,0.747c-0.868,1.243-1.735,2.486-2.604,3.729
		c0.08,0.093,0.159,0.186,0.238,0.278c0.514-0.35,1.039-0.686,1.54-1.053c5.018-3.672,10.057-7.348,16.205-8.906
		c2.355-0.597,4.831-0.957,7.256-0.988c4.069-0.053,5.559,2.398,3.903,6.062c-0.422,0.932-1.007,1.792-1.718,3.035
		c-0.228-0.961-0.361-1.523-0.495-2.085c-0.113-0.016-0.227-0.033-0.34-0.05c-0.293,2.219-0.586,4.438-0.879,6.657
		c-0.029,0.034-0.084,0.069-0.083,0.102c0.005,0.083,0.035,0.163,0.055,0.245c0.02,0.612,0.039,1.225,0.058,1.837
		c-0.195,0.523-0.557,1.045-0.561,1.569c-0.037,4.258,0.342,8.422,3.608,12.165c-2.589,1.316-4.879,2.583-7.255,3.66
		c-2.155,0.978-4.393,1.852-5.167,4.333c-0.642,2.06-1.01,4.205-1.496,6.294c-0.374-1.036-0.785-2.178-1.197-3.32
		c-0.349,8.095,0.021,16.019,2.597,23.672c-1.219,0.223-2.437,0.446-3.656,0.669c-2.442-3.714-4.877-7.432-7.341-11.131
		c-0.173-0.259-0.566-0.371-0.857-0.551c-0.104-0.25-0.208-0.5-0.313-0.75c0.052-0.074,0.104-0.148,0.157-0.222
		c-0.09-0.021-0.18-0.042-0.269-0.063c0,0,0.02-0.015,0.021-0.015c-0.089-0.15-0.179-0.298-0.268-0.448
		c-0.671-1.354-1.342-2.709-2.013-4.064c-0.203,0.063-0.405,0.125-0.608,0.187c1.799,6.82,3.597,13.641,5.401,20.483
		c-0.116,0.03-0.29,0.113-0.463,0.113c-10.805,0.007-21.61,0.006-32.72,0.006c1.991-6.506,4.33-12.762,4.993-19.399
		c-0.148-0.052-0.295-0.104-0.443-0.156c-0.495,0.944-0.99,1.888-1.485,2.832c-0.124,0.263-0.247,0.526-0.371,0.789
		c0.002,0.11-0.028,0.209-0.09,0.3c-0.36,0.287-0.819,0.508-1.065,0.872c-1.8,2.671-3.582,5.356-5.316,8.071
		c-0.643,1.007-1.144,2.104-1.709,3.16c-1.336-0.228-2.672-0.457-4.008-0.685c2.695-7.634,3.03-15.542,2.673-23.542
		c-0.422,1.104-0.845,2.208-1.268,3.312c-0.271-5.412-1.882-9.494-7.597-11.164c-2.179-0.637-4.073-2.247-5.643-3.151
		c0.979-2.485,2.092-4.329,2.383-6.296C28.695,48.682,28.43,46.004,28.444,43.369z M69.872,43.776
		c0.124-0.128,0.248-0.255,0.371-0.383c0.33-0.382,0.659-0.765,0.904-1.048c-2.348,0.23-4.634,0.638-6.918,0.626
		c-2.304-0.013-4.607-0.443-6.91-0.689c-0.16-0.045-0.32-0.09-0.48-0.134c0.16,0.044,0.32,0.089,0.48,0.133
		c0.245,0.493,0.49,0.985,0.736,1.479c4.106,4.667,7.536,4.76,11.666,0.313c0.08-0.086,0.119-0.21,0.177-0.316L69.872,43.776z
		 M46.971,68.511c1.468-0.907,2.937-1.814,4.404-2.722c0.989-1.944,2.169-3.822,2.882-5.862c0.34-0.975,0.525-1.511,1.586-1.79
		c2.329-0.61,3.526-2.182,3.467-4.209c-0.777,0.095-1.556,0.19-2.333,0.285c-2.496-1.417-4.387-3.386-5.922-5.834
		c-0.854-1.362-2.183-2.476-3.443-3.527c-2.685-2.24-6.047-2.75-9.332-2.82c-2.018-0.042-4.057,0.918-6.086,1.428
		c-0.062,0.061-0.13,0.067-0.204,0.023c-0.179,0.076-0.357,0.152-0.535,0.228c-0.037,0.049-0.092,0.096-0.103,0.15
		c-0.009,0.05,0.017,0.146,0.05,0.158c0.73,0.259,1.463,0.51,2.324,0.808c-1.957,2.457-1.711,4.791-0.216,7.343
		c0.3-1.057,0.538-1.895,0.776-2.733c0.125,0.012,0.25,0.023,0.374,0.035c0.063,0.644,0.126,1.288,0.189,1.932
		c0.083,0.286,0.165,0.572,0.247,0.857c0.048,0.192,0.096,0.382,0.144,0.573c-0.203,6.192,5.334,10.651,13.567,10.499
		c-0.648,1.835-1.24,3.509-1.831,5.184c-0.028,0.049-0.056,0.099-0.084,0.149C46.918,68.613,46.944,68.562,46.971,68.511z
		 M80.966,68.51c0.049,0.03,0.097,0.059,0.146,0.088c-0.05-0.028-0.101-0.055-0.152-0.082c-0.569-1.69-1.139-3.38-1.766-5.241
		c9.595,0.948,13.532-5.575,13.878-11.533c0.126-0.749,0.253-1.499,0.379-2.249c0.104,0.004,0.208,0.008,0.312,0.012
		c0.222,0.826,0.444,1.652,0.72,2.677c1.45-2.578,1.823-4.927-0.206-7.306c0.848-0.333,1.575-0.619,2.408-0.946
		c-0.451-0.176-0.727-0.285-1.002-0.393c-0.49-0.298-0.959-0.81-1.472-0.857c-2.212-0.208-4.447-0.479-6.653-0.357
		c-4.382,0.242-7.989,2.152-10.46,5.846c-1.643,2.456-3.413,4.716-6.137,6.043c-0.81-0.092-1.619-0.184-2.523-0.286
		c0.403,2.402,1.772,3.651,3.877,4.317c0.498,0.158,1.002,0.693,1.247,1.184c1.052,2.096,2.009,4.24,3,6.367
		C78.031,66.7,79.499,67.605,80.966,68.51z"/>
	<path fill-rule="evenodd" clip-rule="evenodd" fill="#F5A800" d="M45.156,110.632c-0.714-1.82-1.602-3.594-2.102-5.472
		c-0.769-2.883,0.377-4.603,3.295-5.288c0.946-0.222,1.939-0.335,2.911-0.337c9.829-0.024,19.658-0.015,29.486-0.014
		c0.307,0,0.615,0.005,0.921,0.018c4.709,0.193,6.419,2.619,4.903,7.07c-0.47,1.38-1.156,2.688-1.744,4.029
		c-0.132,0.241-0.263,0.483-0.394,0.725l-0.001,0.002c-1.271,0.826-2.508,1.711-3.82,2.466c-3.299,1.893-6.894,2.751-10.66,3.203
		c-5.151,0.619-10.176,0.227-14.996-1.621c-2.485-0.953-4.775-2.415-7.153-3.646c-0.092-0.152-0.185-0.305-0.277-0.457
		C45.403,111.084,45.28,110.859,45.156,110.632z M80.554,107.658c0.135-0.243,0.271-0.485,0.405-0.728
		c1.126-2.9,0.622-3.686-2.443-3.722c-2.276-0.025-4.554-0.044-6.83,0.006c-2.209,0.048-2.7,0.762-2.111,2.877
		c0.266,1.104,0.379,2.277,0.83,3.3c1.147,2.607,3.221,4.062,5.057,3.755c2.499-0.417,4.74-2.834,5.103-5.503L80.554,107.658z
		 M47.373,107.656l-0.005-0.009c0.417,2.772,2.093,4.478,4.67,5.313c1.817,0.588,3.416-0.232,4.299-1.65
		c0.964-1.549,1.394-3.43,2.057-5.167c0.632-2.164,0.186-2.856-2.014-2.921c-1.965-0.059-3.933-0.028-5.9-0.012
		c-4.222,0.033-4.304,0.135-3.49,4.065C47.117,107.401,47.245,107.528,47.373,107.656z"/>
	<path fill-rule="evenodd" clip-rule="evenodd" fill="#E08700" d="M28.444,43.369c-0.014,2.635,0.251,5.313-0.132,7.893
		c-0.292,1.967-1.405,3.811-2.383,6.296c1.57,0.904,3.464,2.514,5.643,3.151c5.714,1.67,7.326,5.752,7.597,11.164
		c0.423-1.104,0.845-2.208,1.268-3.312c0.356,8,0.021,15.907-2.673,23.542c-2.43-0.567-2.35-0.563-2.196-3.238
		c0.287-4.968,0.587-9.941,0.658-14.915c0.063-4.321-1.743-7.682-5.716-9.782c-2.112-1.116-4.234-2.305-6.093-3.787
		c-3.075-2.453-2.891-6.451,0.309-8.402c0.042,0.641,0.079,1.212,0.115,1.783c0.133,0.062,0.266,0.123,0.399,0.185
		c0.701-1.732,1.526-3.427,2.067-5.208C27.837,46.995,28.077,45.163,28.444,43.369z"/>
	<path fill-rule="evenodd" clip-rule="evenodd" fill="#E08700" d="M90.187,92.106c-2.576-7.654-2.946-15.578-2.597-23.672
		c0.412,1.142,0.824,2.284,1.197,3.32c0.485-2.09,0.854-4.235,1.496-6.294c0.774-2.48,3.012-3.355,5.167-4.333
		c2.375-1.077,4.666-2.343,7.255-3.66c-3.266-3.743-3.645-7.907-3.608-12.165c0.004-0.524,0.366-1.046,0.561-1.569
		c0.563,3.444,1.187,6.867,3.341,10.236c0.11-0.901,0.175-1.436,0.244-2.003c2.836,1.627,3.498,5.18,1.174,7.519
		c-1.527,1.538-3.399,2.907-5.368,3.798c-5.42,2.453-7.682,6.579-7.354,12.362c0.256,4.536,0.389,9.081,0.755,13.607
		C92.598,91.114,92.1,92.069,90.187,92.106z M103.319,54.199l-0.051,0.098l0.077,0.01L103.319,54.199z"/>
	<path fill-rule="evenodd" clip-rule="evenodd" fill="#E08600" d="M45.804,111.767c2.378,1.231,4.668,2.693,7.153,3.646
		c4.819,1.848,9.845,2.24,14.996,1.621c3.766-0.452,7.361-1.31,10.66-3.203c1.313-0.754,2.549-1.64,3.82-2.466
		c-2.08,4.592-5.476,7.917-10.191,9.562c-7.645,2.666-15.085,2.231-21.585-3.03C48.681,116.296,47.402,113.834,45.804,111.767z"/>
	<path fill-rule="evenodd" clip-rule="evenodd" fill="#FFFFFF" d="M25.214,86.451c3.478,7.423,10.11,9.433,17.412,10.118
		c-1.142,2.123-2.269,4.217-3.395,6.311C30.496,102.166,24.868,95.57,25.214,86.451z"/>
	<path fill-rule="evenodd" clip-rule="evenodd" fill="#FFFFFF" d="M88.71,102.879c-1.089-2.079-2.178-4.156-3.291-6.277
		c6.896-0.787,13.523-2.423,17.019-9.588c0.11,0.454,0.329,0.911,0.313,1.361C102.493,95.88,97.346,102.2,88.71,102.879z"/>
	<path fill-rule="evenodd" clip-rule="evenodd" fill="#C7C6C6" d="M25.214,86.451c-0.346,9.119,5.282,15.714,14.017,16.428
		c0.188,1.267,0.377,2.534,0.625,4.198c-1.694-0.292-3.355-0.44-4.938-0.874c-6.886-1.888-10.737-6.76-10.859-13.893
		c-0.035-2.043,0.441-4.096,0.703-6.142c0.005-0.039,0.262-0.077,0.388-0.05C25.192,86.127,25.194,86.335,25.214,86.451z"/>
	<path fill-rule="evenodd" clip-rule="evenodd" fill="#C7C6C6" d="M88.71,102.879c8.636-0.679,13.783-6.999,14.042-14.505
		c0.016-0.45-0.204-0.907-0.313-1.361c0.163-0.367,0.325-0.733,0.488-1.1c1.542,4.989,1.669,9.889-1.235,14.321
		c-3.119,4.759-7.967,6.416-13.492,6.758C88.383,105.51,88.547,104.194,88.71,102.879z"/>
	<path fill-rule="evenodd" clip-rule="evenodd" fill="#F0A500" d="M101.767,11.836c-1.212,0.405-2.098,1.007-2.913,0.923
		c-5.748-0.589-10.365,2.482-13.699,7.434c-0.824-0.4-1.681-0.816-2.544-1.235C86.945,11.438,94.465,8.644,101.767,11.836z"/>
	<path fill-rule="evenodd" clip-rule="evenodd" fill="#F0A500" d="M26.707,12.147c6.741-3.565,14.794-0.411,18.705,6.766
		c-0.811,0.416-1.619,0.831-2.321,1.191c-1.521-1.548-2.888-3.106-4.429-4.466c-2.464-2.172-5.435-2.955-8.7-2.911
		C28.879,12.742,27.792,12.352,26.707,12.147z"/>
	<path fill-rule="evenodd" clip-rule="evenodd" fill="#DE8500" d="M95.823,15.695c-0.407,2.529-0.753,4.747-1.122,6.961
		c-0.187,1.122-0.541,1.898-1.884,2.352c-2.001,0.677-2.708-0.756-3.513-1.8c-0.388-0.503-0.229-1.687,0.063-2.41
		c0.951-2.367,2.53-4.191,5.121-4.884C94.989,15.78,95.515,15.743,95.823,15.695z"/>
	<path fill-rule="evenodd" clip-rule="evenodd" fill="#DE8500" d="M32.121,15.796c3.102-0.017,7.242,3.487,6.955,6.414
		c-0.106,1.082-1.493,2.513-2.598,2.883c-1.051,0.352-2.736-0.11-3.07-1.862c-0.159-0.84-0.276-1.688-0.422-2.53
		C32.707,19.097,32.421,17.494,32.121,15.796z"/>
	<path fill-rule="evenodd" clip-rule="evenodd" fill="#E08600" d="M47.313,22.641c-1.1,2.862,0.63,4.979,1.846,7.268
		c0.727,1.369,1.229,2.856,1.833,4.292c-3.203-2.603-6.406-5.206-9.732-7.91C42.768,24.626,44.983,23.546,47.313,22.641z"/>
	<path fill-rule="evenodd" clip-rule="evenodd" fill="#DE8600" d="M77.321,33.883c0.541-1.395,0.905-2.895,1.663-4.16
		c1.272-2.123,2.24-4.273,2.152-6.797c2.001,1.065,4,2.131,5.922,3.157C83.57,28.876,80.446,31.38,77.321,33.883z"/>
	<path fill-rule="evenodd" clip-rule="evenodd" fill="#DE8600" d="M78.333,81.093c0.291,0.18,0.684,0.292,0.857,0.551
		c2.464,3.699,4.899,7.417,7.341,11.131c-4.422,0.399-3.457,0.527-4.852-2.93C80.511,86.95,79.445,84.012,78.333,81.093z"/>
	<path fill-rule="evenodd" clip-rule="evenodd" fill="#DE8600" d="M41.771,92.787c0.566-1.056,1.066-2.153,1.709-3.16
		c1.734-2.714,3.516-5.399,5.316-8.071c0.246-0.364,0.705-0.585,1.065-0.872c-1.459,3.764-2.867,7.549-4.396,11.284
		C44.69,93.861,43.046,92.684,41.771,92.787z"/>
	<path fill-rule="evenodd" clip-rule="evenodd" fill="#ECA200" d="M37.322,110.666c4.683-1.17,5.214,2.563,6.916,5.677
		C41.095,114.927,38.943,113.076,37.322,110.666z"/>
	<path fill-rule="evenodd" clip-rule="evenodd" fill="#ECA200" d="M90.558,110.627c-1.449,2.624-3.778,4.214-6.436,5.625
		c0.967-4.603,2.386-5.803,6.464-5.601L90.558,110.627z"/>
	<path fill-rule="evenodd" clip-rule="evenodd" fill="#ECA200" d="M90.586,110.651c0.009-0.054,0.018-0.108,0.027-0.163
		c-0.019,0.046-0.037,0.093-0.056,0.139C90.558,110.627,90.586,110.651,90.586,110.651z"/>
	<path fill-rule="evenodd" clip-rule="evenodd" fill="#DE8600" d="M77.908,80.057c0.089,0.021,0.179,0.042,0.269,0.063
		c-0.053,0.074-0.105,0.147-0.157,0.222C77.931,80.268,77.894,80.172,77.908,80.057z"/>
	<path fill-rule="evenodd" clip-rule="evenodd" fill="#E08700" d="M99.599,41.896c-0.02-0.082-0.05-0.162-0.055-0.245
		c-0.002-0.032,0.054-0.067,0.083-0.102C99.697,41.671,99.688,41.786,99.599,41.896z"/>
	<path fill-rule="evenodd" clip-rule="evenodd" fill="#49330E" d="M76.563,65.794c-0.991-2.126-1.948-4.271-3-6.367
		c-0.245-0.49-0.749-1.026-1.247-1.184c-2.105-0.667-3.474-1.916-3.877-4.317c0.904,0.102,1.713,0.194,2.523,0.286
		c0.474,0.033,0.958,0.147,1.419,0.085c2.207-0.299,3.714-1.697,5.181-3.243c4.916-5.184,10.683-8.387,18.124-7.516
		c0.276,0.108,0.552,0.217,1.002,0.393c-0.833,0.327-1.56,0.613-2.408,0.946c2.028,2.379,1.656,4.728,0.206,7.306
		c-0.276-1.025-0.498-1.851-0.72-2.677c-0.104-0.004-0.208-0.008-0.312-0.012c-0.126,0.75-0.253,1.5-0.379,2.25
		c-1.058,2.485-2.065,4.994-4.646,6.388c-3.756,2.028-7.527,2.915-11.326,0.22C75.48,60.818,76.439,63.333,76.563,65.794z
		 M88.996,51.854c0-1.429,0-2.856,0-4.628c-3.894,2.292-7.218,4.52-9.882,7.614c-0.365,0.441-0.73,0.883-1.099,1.328
		C81.733,58.956,89.004,57.122,88.996,51.854z"/>
	<path fill-rule="evenodd" clip-rule="evenodd" fill="#49330F" d="M35.239,52.833c-0.048-0.191-0.096-0.381-0.144-0.573
		c-0.082-0.285-0.164-0.571-0.247-0.857c-0.063-0.644-0.126-1.288-0.189-1.932c-0.124-0.012-0.249-0.023-0.374-0.035
		c-0.238,0.838-0.477,1.676-0.776,2.733c-1.495-2.552-1.741-4.886,0.216-7.343c-0.861-0.297-1.594-0.548-2.324-0.808
		c-0.033-0.012-0.06-0.108-0.05-0.158c0.011-0.055,0.066-0.101,0.103-0.15c0.178-0.076,0.356-0.152,0.535-0.228
		c0.073,0.044,0.142,0.038,0.204-0.023c2.786,0.306,5.659,0.286,8.339,0.993c4.209,1.111,7.459,3.9,10.367,7.081
		c1.617,1.768,3.475,3.095,6.077,2.679c0.778-0.095,1.556-0.19,2.333-0.285c0.059,2.028-1.138,3.599-3.467,4.209
		c-1.061,0.279-1.246,0.815-1.586,1.79c-0.713,2.041-1.893,3.918-2.882,5.861c0.247-2.49,1.094-5.026-0.542-7.473
		c-1.98,1.479-4.139,2.021-6.474,1.602C40.1,59.15,36.947,56.91,35.239,52.833z M48.851,54.806
		c-2.666-3.085-5.982-5.317-9.872-7.583c0,1.762,0,3.193,0,4.625c0.062,5.38,7.409,7.086,10.925,4.365
		c-0.105-0.193-0.193-0.416-0.334-0.597C49.349,55.331,49.092,55.074,48.851,54.806z"/>
	<path fill-rule="evenodd" clip-rule="evenodd" fill="#E08700" d="M76.563,65.794c-0.124-2.462-1.083-4.976,0.539-7.443
		c3.799,2.694,7.57,1.808,11.326-0.22c2.581-1.395,3.588-3.903,4.646-6.388c-0.346,5.957-4.284,12.48-13.878,11.532
		c0.627,1.861,1.196,3.551,1.766,5.241l0.005-0.006C79.499,67.605,78.031,66.7,76.563,65.794z"/>
	<path fill-rule="evenodd" clip-rule="evenodd" fill="#E08700" d="M35.239,52.833c1.708,4.077,4.86,6.317,9.12,7.083
		c2.335,0.42,4.494-0.123,6.474-1.602c1.635,2.447,0.788,4.983,0.542,7.473c-1.468,0.909-2.936,1.816-4.404,2.724l0.005,0.005
		c0.591-1.674,1.182-3.349,1.831-5.184C40.574,63.484,35.036,59.025,35.239,52.833z"/>
	<path fill-rule="evenodd" clip-rule="evenodd" fill="#DE8600" d="M56.977,54.212c-2.602,0.416-4.46-0.911-6.077-2.679
		c-2.908-3.181-6.158-5.97-10.367-7.081c-2.68-0.708-5.553-0.688-8.339-0.993c2.029-0.51,4.068-1.471,6.085-1.428
		c3.285,0.07,6.647,0.58,9.332,2.82c1.261,1.051,2.589,2.165,3.443,3.527C52.59,50.826,54.481,52.795,56.977,54.212z"/>
	<path fill-rule="evenodd" clip-rule="evenodd" fill="#DF8600" d="M95.684,43.538c-7.44-0.871-13.208,2.332-18.124,7.516
		c-1.466,1.546-2.974,2.944-5.181,3.243c-0.461,0.063-0.945-0.052-1.419-0.085c2.724-1.327,4.495-3.587,6.137-6.043
		c2.471-3.694,6.078-5.604,10.46-5.846c2.207-0.122,4.441,0.15,6.653,0.357C94.725,42.729,95.194,43.24,95.684,43.538z"/>
	<path fill-rule="evenodd" clip-rule="evenodd" fill="#DF8600" d="M58.054,43.76c-0.246-0.493-0.491-0.985-0.736-1.479l0,0.001
		c2.303,0.247,4.605,0.676,6.91,0.689c2.284,0.012,4.57-0.396,6.918-0.626c-0.245,0.283-0.574,0.666-0.903,1.048
		c-0.124,0.127-0.248,0.255-0.371,0.383l0.025-0.021c-2.306,0.388-4.606,1.02-6.921,1.08C61.346,44.879,59.695,44.146,58.054,43.76z
		"/>
	<path fill-rule="evenodd" clip-rule="evenodd" fill="#52380B" d="M58.054,43.76c1.641,0.387,3.292,1.119,4.921,1.076
		c2.315-0.061,4.615-0.692,6.921-1.08c-0.058,0.106-0.097,0.23-0.177,0.316C65.59,48.52,62.161,48.427,58.054,43.76z"/>
	<path fill-rule="evenodd" clip-rule="evenodd" fill="#47310D" d="M69.575,106.091c-0.589-2.115-0.098-2.829,2.111-2.877
		c2.276-0.05,4.554-0.031,6.83-0.006c3.065,0.036,3.57,0.822,2.443,3.722c-0.135,0.242-0.27,0.485-0.405,0.728l0.01-0.015
		c-0.532,0.576-1.049,1.167-1.6,1.726c-2.498,2.536-5.238,2.372-7.4-0.459C70.867,107.997,70.236,107.033,69.575,106.091z"/>
	<path fill-rule="evenodd" clip-rule="evenodd" fill="#47310E" d="M46.99,107.274c-0.814-3.931-0.732-4.033,3.49-4.065
		c1.967-0.016,3.935-0.047,5.9,0.012c2.2,0.065,2.646,0.758,2.014,2.921c-0.746,1.048-1.454,2.126-2.246,3.139
		c-1.853,2.369-4.484,2.518-6.695,0.41c-0.704-0.671-1.391-1.363-2.086-2.044c0,0,0.005,0.009,0.004,0.009
		C47.245,107.529,47.117,107.401,46.99,107.274z"/>
	<path fill-rule="evenodd" clip-rule="evenodd" fill="#DC8400" d="M47.368,107.647c0.695,0.682,1.382,1.373,2.086,2.044
		c2.211,2.107,4.842,1.959,6.695-0.41c0.792-1.013,1.5-2.091,2.246-3.139c-0.663,1.737-1.092,3.618-2.057,5.167
		c-0.884,1.418-2.482,2.238-4.299,1.65C49.461,112.125,47.785,110.419,47.368,107.647z"/>
	<path fill-rule="evenodd" clip-rule="evenodd" fill="#DE8500" d="M69.575,106.091c0.661,0.941,1.292,1.905,1.989,2.819
		c2.162,2.831,4.902,2.995,7.4,0.459c0.551-0.559,1.067-1.15,1.6-1.726c-0.363,2.669-2.604,5.086-5.103,5.503
		c-1.835,0.307-3.91-1.148-5.057-3.755C69.955,108.368,69.841,107.195,69.575,106.091z"/>
	<polygon fill-rule="evenodd" clip-rule="evenodd" fill="#493310" points="103.319,54.199 103.345,54.307 103.268,54.297 	"/>
	<path fill-rule="evenodd" clip-rule="evenodd" fill="#FFFFFF" d="M79.114,54.841c2.664-3.095,5.989-5.323,9.882-7.614
		c0,1.771,0,3.199,0,4.628c-1.606,2.047-3.421,3.875-6.217,3.872C81.557,55.724,80.335,55.153,79.114,54.841z"/>
	<path fill-rule="evenodd" clip-rule="evenodd" fill="#C5C4C3" d="M79.114,54.841c1.222,0.312,2.443,0.883,3.665,0.885
		c2.796,0.004,4.611-1.824,6.217-3.872c0.008,5.268-7.263,7.102-10.981,4.314C78.383,55.724,78.749,55.282,79.114,54.841z"/>
	<path fill-rule="evenodd" clip-rule="evenodd" fill="#FFFFFF" d="M38.979,51.847c0-1.431,0-2.862,0-4.625
		c3.889,2.267,7.206,4.498,9.872,7.583c-1.536,1.385-4.652,1.428-6.902-0.117C40.834,53.923,39.961,52.805,38.979,51.847z"/>
	<path fill-rule="evenodd" clip-rule="evenodd" fill="#C5C4C3" d="M38.979,51.847c0.982,0.958,1.855,2.077,2.97,2.842
		c2.25,1.545,5.366,1.502,6.902,0.117c0.242,0.269,0.499,0.525,0.719,0.81c0.141,0.181,0.229,0.403,0.334,0.597
		C46.388,58.933,39.041,57.227,38.979,51.847z"/>
</svg>
