<?xml version="1.0" encoding="utf-8"?>
<!-- Generator: Adobe Illustrator 16.0.0, SVG Export Plug-In . SVG Version: 6.00 Build 0)  -->
<!DOCTYPE svg PUBLIC "-//W3C//DTD SVG 1.1//EN" "http://www.w3.org/Graphics/SVG/1.1/DTD/svg11.dtd">
<svg version="1.1" id="Layer_1" xmlns="http://www.w3.org/2000/svg" xmlns:xlink="http://www.w3.org/1999/xlink" x="0px" y="0px"
	 width="500px" height="500px" viewBox="0 0 500 500" enable-background="new 0 0 500 500" xml:space="preserve">
<g>
	<path fill-rule="evenodd" clip-rule="evenodd" fill="#493310" d="M374.332,347.319c14.006-10.427,21.187-23.615,24.524-39.939
		c16.244,16.064,21.966,34.954,20.627,56.288c-1.816,28.935-15.106,50.021-42.544,61.349c-2.148,0.89-4.087,3.232-5.269,5.372
		c-12.859,23.302-31.777,38.046-58.439,42.263c-2.234,0.354-4.463,1.625-6.386,2.925c-31.706,21.396-82.099,21.315-113.966-0.146
		c-2.091-1.409-4.658-2.457-7.139-2.884c-23.971-4.144-42.185-16.788-54.506-37.541c-3.585-6.041-7.748-10.103-14.223-13.058
		c-46.268-21.116-45.478-89.578-16.536-113.428c2.822,6.97,5.005,14.297,8.652,20.805c3.681,6.565,8.812,12.317,13.309,18.425
		c0.735-0.201,1.468-0.4,2.203-0.601c0.761-7.653,1.777-15.29,2.219-22.96c0.622-10.797,1.093-21.62,1.126-32.436
		c0.041-13.203-4.897-23.482-17.366-29.906c-9.129-4.702-18.243-9.908-26.189-16.342c-19.42-15.725-18.931-36.925,0.702-52.136
		c4.714-3.652,7.508-7.82,8.059-13.718c1.16-12.432,3.114-24.825-5.789-35.787c-2.47-3.04-3.709-7.258-4.892-11.129
		c-5.75-18.818,3.509-33.816,23.005-36.874c5.624-0.881,8.68-2.337,9.351-8.88c1.198-11.663-1.305-19.667-12.046-25.286
		c-8.553-4.478-18.086-7.079-27.53-10.643c11.03-15.852,27.437-23.08,46.664-24.238c25.423-1.537,45.354,10.068,62.306,27.867
		c2.815,2.955,5.174,6.366,8.137,9.149c1.463,1.378,3.879,2.519,5.75,2.367c0.971-0.079,2.28-3.158,2.435-4.966
		c1.272-14.926,8.018-26.972,19.02-36.792c1.875-1.673,4.252-2.787,6.442-4.188c1.905,8.916,3.652,17.099,5.4,25.28
		c0.782-0.006,1.563-0.016,2.345-0.023c3.868-20.252,17.688-30.575,35.782-37.082c-0.379,6.063-1.265,11.741-0.931,17.346
		c0.322,5.374,1.907,10.673,3.136,17.028c10.294-7.178,19.254-14.631,30.992-14.324c-2.529,9.619-5.272,18.981-7.375,28.488
		c-1.078,4.88,0.271,9.504,6.479,9.376c2.269-0.047,5.068-1.818,6.644-3.648c13.376-15.545,28.203-28.841,48.837-33.955
		c26.315-6.523,52.804,2.306,67.796,23.254c-2.843,0.7-5.524,1.138-8.051,2.023c-6.527,2.289-13.445,3.966-19.375,7.346
		c-12.562,7.161-14.574,13.926-11.565,29.989c0.272,1.448,2.576,2.975,4.257,3.593c2.667,0.978,5.67,1.001,8.417,1.812
		c16.042,4.725,23.708,18.012,19.122,34.053c-1.624,5.685-4.18,11.304-7.329,16.314c-8.163,12.989-5.136,26.371-1.791,39.609
		c0.742,2.936,4.638,5.266,7.406,7.472c16.915,13.479,18.543,34.04,2.302,48.422c-9.035,8-19.991,14.004-30.583,20.023
		c-9.729,5.527-15.45,13.603-15.485,24.25C372.402,307.036,373.638,327.178,374.332,347.319z M304.407,312.665l-0.079,0.058
		c-0.056,0.451,0.09,0.822,0.438,1.115c0.407,0.977,0.814,1.955,1.223,2.931c4.342,11.403,8.507,22.878,13.072,34.189
		c5.45,13.503,1.678,13.005,18.952,11.443c4.76-0.869,9.52-1.742,14.28-2.612c7.472-0.144,9.419-3.875,8.833-11.148
		c-1.428-17.681-1.946-35.436-2.949-53.155c-1.277-22.588,7.558-38.706,28.73-48.288c7.688-3.48,15-8.831,20.967-14.837
		c9.079-9.136,6.494-23.016-4.585-29.371c-0.271,2.217-0.524,4.307-0.953,7.827c-8.416-13.164-10.853-26.535-13.05-39.986
		c-0.075-2.393-0.152-4.783-0.227-7.177c0.345-0.427,0.38-0.876,0.105-1.352c1.144-8.666,2.29-17.334,3.434-26.002
		c0.444,0.067,0.887,0.133,1.331,0.196c0.521,2.196,1.041,4.393,1.932,8.146c2.776-4.86,5.062-8.216,6.709-11.857
		c6.469-14.312,0.649-23.886-15.247-23.68c-9.477,0.123-19.144,1.529-28.345,3.86c-24.014,6.09-43.699,20.448-63.3,34.791
		c-1.959,1.432-4.008,2.745-6.015,4.113c-0.31-0.362-0.619-0.723-0.929-1.085c3.39-4.856,6.779-9.712,10.169-14.568
		c0.835-0.974,1.67-1.945,2.504-2.92c0.343-0.223,0.552-0.537,0.626-0.94c12.206-9.778,24.411-19.557,38.036-30.471
		c-7.508-4.004-15.316-8.171-23.125-12.334l-0.312,0.051c-0.558-0.413-1.116-0.825-1.674-1.238
		c-26.709-12.528-55.109-15.083-83.753-11.662c-15.706,1.876-30.943,7.697-46.391,11.74c-9.099,3.535-17.752,7.753-23.648,14.256
		c12.996,10.563,25.507,20.732,38.016,30.899l-0.018-0.063c0.457,0.629,0.914,1.259,1.371,1.888
		c3.567,5.141,7.134,10.282,10.702,15.423c-12.083-6.767-22.981-14.481-34.196-21.707c-17.366-11.188-36.204-18.668-56.975-20.13
		c-8.792-0.617-19.187-1.671-23.755,7.746c-4.73,9.753,1.715,18.369,7.147,26.38c0.204,0.302,0.838,0.312,1.539,0.548
		c0.299-2.584,0.589-5.094,0.879-7.602c1.755,3.723,2.836,7.402,3.266,11.157c0.846,7.368,1.331,14.777,1.964,22.172
		c-1.433,7.007-2.37,14.164-4.439,20.979c-2.113,6.956-5.338,13.575-8.075,20.342c-0.521-0.241-1.041-0.481-1.561-0.723
		c-0.144-2.229-0.288-4.461-0.45-6.964c-12.499,7.621-13.22,23.241-1.208,32.821c7.258,5.787,15.551,10.432,23.8,14.792
		c15.52,8.203,22.573,21.332,22.33,38.211c-0.279,19.429-1.453,38.854-2.571,58.261c-0.602,10.447-0.915,10.43,8.577,12.648
		c5.22,0.891,10.439,1.784,15.658,2.674c4.979-0.404,11.404,4.193,14.431-3.199c5.975-14.59,11.475-29.375,17.172-44.077
		c0.245-0.353,0.363-0.742,0.354-1.17c0.482-1.027,0.966-2.056,1.449-3.084c1.933-3.686,3.866-7.375,5.799-11.062
		c0.577,0.202,1.154,0.406,1.731,0.609c-2.59,25.927-11.725,50.366-19.502,75.779c43.396,0,85.604,0.004,127.811-0.022
		c0.679,0,1.356-0.324,1.811-0.441c-7.047-26.727-14.073-53.37-21.099-80.011c0.792-0.244,1.583-0.486,2.374-0.73
		c2.622,5.292,5.243,10.583,7.864,15.874C303.711,311.499,304.06,312.082,304.407,312.665z M353.852,432.233
		c-15.932-0.791-21.475,3.898-25.25,21.876c10.38-5.509,19.481-11.721,25.139-21.972c0.073-0.178,0.145-0.358,0.217-0.539
		C353.923,431.81,353.888,432.022,353.852,432.233z M400.15,339.895c-13.658,27.99-39.543,34.382-66.481,37.456
		c4.346,8.287,8.6,16.402,12.854,24.521c-0.637,5.139-1.276,10.278-1.995,16.069c21.583-1.338,40.519-7.811,52.702-26.4
		c11.344-17.31,10.847-36.453,4.825-55.941C401.42,337.031,400.785,338.463,400.15,339.895z M98.492,337.7
		c-0.079-0.455-0.086-1.266-0.253-1.3c-0.492-0.101-1.497,0.046-1.516,0.197c-1.021,7.991-2.882,16.008-2.746,23.991
		c0.476,27.862,15.519,46.893,42.417,54.268c6.185,1.695,12.675,2.274,19.291,3.414c-0.967-6.498-1.704-11.449-2.439-16.397
		c4.4-8.18,8.8-16.358,13.261-24.65C137.982,374.546,112.075,366.696,98.492,337.7z M322.007,435.011
		c0.513-0.943,1.027-1.888,1.539-2.832c2.295-5.238,4.975-10.345,6.811-15.736c5.922-17.386-0.759-26.862-19.153-27.616
		c-1.198-0.049-2.4-0.071-3.599-0.071c-38.394-0.006-76.789-0.042-115.182,0.053c-3.797,0.008-7.678,0.451-11.372,1.319
		c-11.398,2.675-15.874,9.396-12.872,20.656c1.955,7.333,5.422,14.263,8.21,21.375c0.481,0.883,0.964,1.766,1.445,2.646
		c0.362,0.595,0.724,1.191,1.084,1.786c6.243,8.075,11.238,17.692,18.958,23.94c25.391,20.553,54.452,22.251,84.317,11.837
		c18.419-6.422,31.684-19.413,39.808-37.35L322.007,435.011z M397.526,46.235c-28.524-12.471-57.897-1.558-74.826,27.821
		c3.372,1.636,6.719,3.26,9.938,4.822c13.021-19.343,31.06-31.339,53.51-29.037C389.333,50.167,392.793,47.816,397.526,46.235z
		 M104.323,47.45c4.24,0.799,8.487,2.324,12.714,2.267c12.753-0.172,24.359,2.885,33.983,11.37
		c6.022,5.311,11.358,11.399,17.302,17.445c2.743-1.408,5.9-3.028,9.064-4.653C162.112,45.845,130.657,33.521,104.323,47.45z
		 M374.309,61.307c-1.203,0.19-3.26,0.335-5.217,0.855c-10.117,2.707-16.286,9.83-20.001,19.078
		c-1.136,2.825-1.761,7.447-0.244,9.414c3.143,4.08,5.902,9.676,13.722,7.033c5.244-1.773,6.627-4.805,7.358-9.188
		C371.368,79.852,372.721,71.188,374.309,61.307z M125.473,61.705c1.17,6.633,2.287,12.893,3.376,19.158
		c0.572,3.292,1.026,6.602,1.649,9.883c1.304,6.845,7.886,8.65,11.992,7.275c4.316-1.444,9.733-7.037,10.148-11.262
		C153.762,75.327,137.59,61.639,125.473,61.705z M145.788,432.287c6.333,9.415,14.738,16.649,27.014,22.178
		C166.155,442.3,164.081,427.718,145.788,432.287z"/>
	<path fill-rule="evenodd" clip-rule="evenodd" fill="#F5A900" d="M111.107,169.41c-0.634-7.395-1.119-14.805-1.964-22.172
		c-0.43-3.755-1.511-7.434-3.266-11.157c-0.29,2.508-0.58,5.017-0.879,7.602c-0.701-0.236-1.335-0.246-1.539-0.548
		c-5.433-8.011-11.878-16.627-7.147-26.38c4.569-9.417,14.963-8.362,23.755-7.746c20.771,1.461,39.609,8.942,56.975,20.13
		c11.214,7.226,22.113,14.939,34.196,21.707c-3.568-5.141-7.135-10.283-10.702-15.427c-0.457-0.629-0.914-1.258-1.371-1.884
		c0,0,0.018,0.063,0.02,0.062c-2.357-5.605-4.319-11.416-7.158-16.763c-4.75-8.941-11.508-17.21-7.211-28.391
		c15.448-4.042,30.685-9.864,46.391-11.74c28.645-3.422,57.044-0.866,83.753,11.663c0.558,0.414,1.116,0.824,1.674,1.237
		c0,0,0.312-0.051,0.305-0.048c0.345,9.859-3.437,18.261-8.405,26.552c-2.961,4.939-4.384,10.801-6.498,16.25
		c-0.074,0.403-0.284,0.717-0.625,0.942c-0.835,0.972-1.671,1.943-2.506,2.917c-3.39,4.856-6.779,9.711-10.169,14.568
		c0.31,0.363,0.619,0.724,0.929,1.085c2.007-1.368,4.056-2.681,6.015-4.113c19.601-14.342,39.286-28.701,63.3-34.791
		c9.201-2.331,18.868-3.737,28.345-3.86c15.896-0.206,21.715,9.368,15.247,23.68c-1.646,3.641-3.933,6.998-6.709,11.857
		c-0.891-3.753-1.411-5.951-1.932-8.146c-0.443-0.063-0.887-0.129-1.331-0.196c-1.144,8.668-2.29,17.336-3.433,26.002
		c-0.113,0.133-0.329,0.271-0.321,0.396c0.019,0.323,0.136,0.637,0.215,0.956c0.075,2.394,0.151,4.784,0.227,7.177
		c-0.764,2.043-2.175,4.081-2.192,6.131c-0.146,16.631,1.338,32.899,14.094,47.518c-10.113,5.143-19.06,10.088-28.34,14.296
		c-8.417,3.818-17.159,7.234-20.181,16.925c-2.508,8.044-3.946,16.423-5.842,24.586c-1.459-4.044-3.067-8.507-4.676-12.968
		c-1.365,31.621,0.081,62.572,10.144,92.471c-4.76,0.87-9.52,1.743-14.28,2.612c-9.54-14.507-19.05-29.031-28.678-43.48
		c-0.674-1.013-2.21-1.448-3.346-2.152c-0.408-0.976-0.815-1.954-1.223-2.931c0.204-0.29,0.408-0.578,0.613-0.867
		c-0.351-0.083-0.701-0.165-1.051-0.249c0,0,0.079-0.058,0.082-0.059c-0.348-0.585-0.697-1.165-1.047-1.749
		c-2.622-5.291-5.243-10.582-7.864-15.874c-0.791,0.244-1.582,0.486-2.374,0.73c7.026,26.641,14.051,53.285,21.099,80.011
		c-0.455,0.117-1.132,0.441-1.811,0.441c-42.207,0.026-84.415,0.022-127.811,0.022c7.777-25.413,16.912-49.852,19.502-75.779
		c-0.578-0.203-1.154-0.407-1.731-0.609c-1.933,3.688-3.866,7.376-5.8,11.062c-0.482,1.029-0.965,2.057-1.448,3.084
		c0.008,0.428-0.11,0.817-0.354,1.17c-1.406,1.122-3.2,1.985-4.159,3.406c-7.033,10.436-13.993,20.923-20.769,31.527
		c-2.512,3.933-4.466,8.219-6.677,12.343c-5.218-0.89-10.438-1.783-15.658-2.674c10.526-29.822,11.834-60.709,10.443-91.96
		c-1.65,4.312-3.3,8.624-4.951,12.938c-1.059-21.14-7.354-37.088-29.676-43.61c-8.511-2.486-15.911-8.775-22.042-12.31
		c3.822-9.706,8.17-16.91,9.31-24.593C112.088,190.162,111.055,179.704,111.107,169.41z M272.936,171.002
		c0.482-0.5,0.966-0.998,1.448-1.499c1.288-1.492,2.575-2.986,3.531-4.094c-9.173,0.898-18.104,2.495-27.026,2.447
		c-9.001-0.05-17.995-1.728-26.991-2.692c-0.625-0.176-1.25-0.35-1.875-0.524c0.625,0.174,1.251,0.348,1.877,0.521
		c0.958,1.926,1.916,3.85,2.874,5.775c16.041,18.233,29.437,18.595,45.572,1.221c0.312-0.338,0.464-0.82,0.689-1.236
		L272.936,171.002z M183.479,267.62c5.735-3.544,11.47-7.088,17.204-10.634c3.862-7.593,8.472-14.928,11.257-22.898
		c1.331-3.81,2.053-5.904,6.198-6.992c9.098-2.385,13.773-8.523,13.542-16.443c-3.037,0.371-6.076,0.741-9.116,1.113
		c-9.748-5.535-17.134-13.226-23.132-22.792c-3.338-5.322-8.526-9.671-13.449-13.775c-10.49-8.749-23.624-10.741-36.454-11.015
		c-7.881-0.167-15.847,3.587-23.774,5.579c-0.243,0.235-0.508,0.263-0.796,0.089c-0.697,0.295-1.393,0.592-2.088,0.889
		c-0.142,0.194-0.358,0.375-0.401,0.588c-0.036,0.195,0.066,0.57,0.195,0.618c2.852,1.014,5.714,1.995,9.08,3.155
		c-7.646,9.596-6.683,18.713-0.846,28.684c1.171-4.128,2.102-7.403,3.032-10.678c0.487,0.046,0.975,0.091,1.46,0.138
		c0.246,2.516,0.492,5.032,0.738,7.548c0.322,1.115,0.642,2.231,0.964,3.348c0.187,0.747,0.373,1.492,0.56,2.239
		c-0.793,24.188,20.839,41.604,52.997,41.01c-2.531,7.169-4.842,13.709-7.151,20.25c-0.109,0.192-0.218,0.387-0.328,0.583
		C183.273,268.021,183.375,267.821,183.479,267.62z M316.272,267.618c0.191,0.116,0.38,0.229,0.571,0.344
		c-0.196-0.107-0.395-0.213-0.592-0.321c-2.224-6.602-4.448-13.202-6.897-20.474c37.48,3.704,52.86-21.777,54.212-45.049
		c0.495-2.927,0.99-5.854,1.483-8.784c0.406,0.017,0.812,0.033,1.218,0.049c0.867,3.226,1.733,6.452,2.811,10.458
		c5.667-10.07,7.121-19.244-0.802-28.54c3.312-1.301,6.15-2.417,9.404-3.694c-1.76-0.689-2.838-1.112-3.916-1.535
		c-1.914-1.164-3.748-3.163-5.751-3.349c-8.639-0.81-17.371-1.871-25.989-1.395c-17.118,0.947-31.208,8.406-40.86,22.835
		c-6.417,9.595-13.332,18.424-23.975,23.608c-3.161-0.359-6.322-0.72-9.855-1.119c1.576,9.382,6.923,14.261,15.147,16.865
		c1.945,0.616,3.913,2.709,4.872,4.625c4.11,8.186,7.847,16.562,11.72,24.868C304.807,260.546,310.54,264.082,316.272,267.618z"/>
	<path fill-rule="evenodd" clip-rule="evenodd" fill="#F5A800" d="M176.391,432.159c-2.789-7.111-6.255-14.042-8.21-21.375
		c-3.002-11.26,1.474-17.981,12.872-20.656c3.694-0.869,7.574-1.311,11.372-1.319c38.393-0.094,76.788-0.059,115.182-0.053
		c1.199,0,2.4,0.022,3.599,0.071c18.395,0.754,25.075,10.23,19.153,27.616c-1.836,5.391-4.516,10.499-6.811,15.736
		c-0.514,0.944-1.026,1.889-1.539,2.832l-0.003,0.007c-4.966,3.227-9.797,6.686-14.924,9.631
		c-12.885,7.395-26.93,10.75-41.642,12.513c-20.119,2.417-39.75,0.885-58.576-6.333c-9.707-3.721-18.651-9.43-27.941-14.239
		c-0.361-0.595-0.723-1.191-1.084-1.786C177.354,433.924,176.873,433.042,176.391,432.159z M314.664,420.54
		c0.529-0.947,1.057-1.896,1.583-2.843c4.402-11.326,2.429-14.398-9.543-14.538c-8.893-0.101-17.79-0.175-26.68,0.022
		c-8.629,0.189-10.546,2.976-8.247,11.239c1.041,4.312,1.482,8.894,3.241,12.891c4.48,10.183,12.583,15.867,19.752,14.67
		c9.763-1.631,18.515-11.07,19.932-21.499L314.664,420.54z M185.048,420.533l-0.02-0.037c1.632,10.828,8.178,17.493,18.245,20.752
		c7.098,2.297,13.342-0.909,16.793-6.448c3.768-6.049,5.446-13.399,8.035-20.182c2.468-8.453,0.727-11.157-7.869-11.413
		c-7.675-0.23-15.364-0.108-23.046-0.047c-16.49,0.128-16.81,0.527-13.632,15.881C184.051,419.537,184.55,420.033,185.048,420.533z"
		/>
	<path fill-rule="evenodd" clip-rule="evenodd" fill="#E08700" d="M111.107,169.41c-0.052,10.294,0.981,20.752-0.514,30.833
		c-1.14,7.683-5.488,14.887-9.31,24.593c6.131,3.534,13.531,9.823,22.042,12.31c22.322,6.522,28.617,22.47,29.676,43.61
		c1.651-4.314,3.301-8.627,4.951-12.938c1.392,31.251,0.083,62.138-10.443,91.96c-9.492-2.218-9.179-2.201-8.577-12.648
		c1.119-19.407,2.292-38.832,2.571-58.261c0.244-16.879-6.81-30.008-22.33-38.211c-8.249-4.36-16.542-9.005-23.8-14.792
		c-12.012-9.58-11.291-25.2,1.208-32.821c0.162,2.503,0.306,4.735,0.45,6.964c0.521,0.241,1.04,0.481,1.561,0.723
		c2.737-6.767,5.962-13.386,8.075-20.342C108.737,183.574,109.674,176.417,111.107,169.41z"/>
	<path fill-rule="evenodd" clip-rule="evenodd" fill="#E08700" d="M352.292,359.79c-10.063-29.898-11.509-60.85-10.144-92.471
		c1.609,4.46,3.217,8.923,4.676,12.968c1.896-8.164,3.334-16.542,5.842-24.586c3.022-9.691,11.764-13.106,20.181-16.925
		c9.28-4.208,18.228-9.153,28.34-14.296c-12.756-14.619-14.239-30.887-14.094-47.518c0.017-2.05,1.428-4.087,2.192-6.131
		c2.197,13.452,4.634,26.823,13.05,39.986c0.429-3.521,0.682-5.61,0.953-7.827c11.079,6.355,13.664,20.234,4.585,29.371
		c-5.967,6.007-13.279,11.357-20.967,14.837c-21.172,9.583-30.007,25.7-28.73,48.288c1.003,17.719,1.521,35.474,2.949,53.155
		C361.711,355.914,359.764,359.646,352.292,359.79z M403.59,211.714l-0.201,0.383l0.302,0.038L403.59,211.714z"/>
	<path fill-rule="evenodd" clip-rule="evenodd" fill="#E08600" d="M178.921,436.591c9.29,4.809,18.235,10.518,27.941,14.239
		c18.826,7.218,38.457,8.75,58.576,6.333c14.711-1.764,28.757-5.119,41.642-12.513c5.127-2.946,9.958-6.404,14.924-9.631
		c-8.124,17.937-21.389,30.927-39.808,37.35c-29.865,10.415-58.926,8.716-84.317-11.837
		C190.159,454.283,185.164,444.666,178.921,436.591z"/>
	<path fill-rule="evenodd" clip-rule="evenodd" fill="#FFFFFF" d="M98.492,337.7c13.583,28.996,39.491,36.846,68.015,39.522
		c-4.461,8.292-8.861,16.47-13.261,24.65C119.123,399.084,97.14,373.319,98.492,337.7z"/>
	<path fill-rule="evenodd" clip-rule="evenodd" fill="#FFFFFF" d="M346.523,401.871c-4.254-8.119-8.508-16.234-12.854-24.521
		c26.938-3.074,52.824-9.465,66.481-37.456c0.429,1.773,1.284,3.56,1.223,5.316C400.363,374.532,380.258,399.218,346.523,401.871z"
		/>
	<path fill-rule="evenodd" clip-rule="evenodd" fill="#C7C6C6" d="M98.492,337.7c-1.352,35.619,20.631,61.384,54.753,64.172
		c0.736,4.948,1.472,9.899,2.439,16.397c-6.616-1.14-13.106-1.718-19.291-3.414c-26.898-7.375-41.941-26.406-42.417-54.268
		c-0.136-7.982,1.725-16,2.746-23.991c0.02-0.151,1.024-0.298,1.516-0.197C98.405,336.434,98.413,337.246,98.492,337.7z"/>
	<path fill-rule="evenodd" clip-rule="evenodd" fill="#C7C6C6" d="M346.523,401.871c33.735-2.653,53.84-27.339,54.851-56.66
		c0.061-1.756-0.794-3.543-1.223-5.316c0.635-1.432,1.27-2.864,1.905-4.296c6.022,19.489,6.52,38.632-4.825,55.941
		c-12.183,18.589-31.119,25.062-52.702,26.4C345.247,412.149,345.886,407.01,346.523,401.871z"/>
	<path fill-rule="evenodd" clip-rule="evenodd" fill="#F0A500" d="M397.526,46.235c-4.733,1.582-8.193,3.933-11.377,3.606
		c-22.45-2.302-40.489,9.694-53.51,29.037c-3.219-1.562-6.566-3.186-9.938-4.822C339.629,44.677,369.002,33.764,397.526,46.235z"/>
	<path fill-rule="evenodd" clip-rule="evenodd" fill="#F0A500" d="M104.323,47.45c26.334-13.928,57.789-1.605,73.064,26.429
		c-3.165,1.625-6.321,3.245-9.064,4.653c-5.944-6.046-11.28-12.134-17.302-17.445c-9.624-8.485-21.23-11.542-33.983-11.37
		C112.81,49.773,108.563,48.249,104.323,47.45z"/>
	<path fill-rule="evenodd" clip-rule="evenodd" fill="#DE8500" d="M374.309,61.307c-1.588,9.881-2.94,18.544-4.382,27.192
		c-0.731,4.383-2.114,7.416-7.358,9.188c-7.82,2.644-10.579-2.953-13.722-7.033c-1.517-1.967-0.892-6.589,0.244-9.414
		c3.715-9.249,9.884-16.372,20.001-19.078C371.049,61.642,373.105,61.497,374.309,61.307z"/>
	<path fill-rule="evenodd" clip-rule="evenodd" fill="#DE8500" d="M125.473,61.705c12.117-0.066,28.289,13.622,27.165,25.055
		c-0.415,4.225-5.832,9.818-10.148,11.262c-4.105,1.375-10.688-0.43-11.992-7.275c-0.623-3.282-1.077-6.592-1.649-9.883
		C127.76,74.598,126.643,68.337,125.473,61.705z"/>
	<path fill-rule="evenodd" clip-rule="evenodd" fill="#E08600" d="M184.814,88.442c-4.297,11.181,2.461,19.45,7.211,28.391
		c2.839,5.347,4.801,11.158,7.158,16.763c-12.511-10.166-25.021-20.335-38.018-30.898C167.062,96.195,175.716,91.977,184.814,88.442
		z"/>
	<path fill-rule="evenodd" clip-rule="evenodd" fill="#DE8600" d="M302.035,132.356c2.114-5.448,3.537-11.31,6.498-16.25
		c4.968-8.292,8.75-16.693,8.405-26.552c7.817,4.16,15.625,8.326,23.133,12.331C326.446,112.799,314.241,122.578,302.035,132.356z"
		/>
	<path fill-rule="evenodd" clip-rule="evenodd" fill="#DE8600" d="M305.988,316.769c1.136,0.704,2.672,1.14,3.346,2.152
		c9.627,14.449,19.138,28.974,28.678,43.48c-17.273,1.562-13.502,2.06-18.952-11.443
		C314.496,339.646,310.33,328.171,305.988,316.769z"/>
	<path fill-rule="evenodd" clip-rule="evenodd" fill="#DE8600" d="M163.167,362.45c2.21-4.124,4.165-8.41,6.677-12.343
		c6.776-10.604,13.736-21.091,20.769-31.527c0.959-1.421,2.753-2.285,4.159-3.406c-5.698,14.702-11.198,29.487-17.173,44.077
		C174.571,366.644,168.147,362.046,163.167,362.45z"/>
	<path fill-rule="evenodd" clip-rule="evenodd" fill="#ECA200" d="M145.788,432.287c18.293-4.569,20.367,10.014,27.014,22.178
		C160.526,448.936,152.122,441.702,145.788,432.287z"/>
	<path fill-rule="evenodd" clip-rule="evenodd" fill="#ECA200" d="M353.741,432.139c-5.658,10.249-14.759,16.46-25.14,21.97
		c3.775-17.978,9.319-22.667,25.25-21.876L353.741,432.139z"/>
	<path fill-rule="evenodd" clip-rule="evenodd" fill="#ECA200" d="M353.852,432.233c0.036-0.211,0.071-0.423,0.105-0.635
		c-0.072,0.181-0.144,0.361-0.217,0.54C353.741,432.139,353.852,432.233,353.852,432.233z"/>
	<path fill-rule="evenodd" clip-rule="evenodd" fill="#DE8600" d="M304.328,312.723c0.35,0.084,0.7,0.166,1.051,0.249
		c-0.205,0.289-0.41,0.577-0.613,0.867C304.418,313.545,304.272,313.173,304.328,312.723z"/>
	<path fill-rule="evenodd" clip-rule="evenodd" fill="#E08700" d="M389.059,163.654c-0.079-0.318-0.196-0.632-0.215-0.956
		c-0.008-0.125,0.208-0.263,0.321-0.396C389.439,162.777,389.404,163.227,389.059,163.654z"/>
	<path fill-rule="evenodd" clip-rule="evenodd" fill="#49330E" d="M299.073,257.009c-3.873-8.307-7.609-16.682-11.72-24.868
		c-0.959-1.916-2.927-4.008-4.872-4.625c-8.224-2.604-13.571-7.483-15.147-16.865c3.533,0.398,6.694,0.759,9.855,1.116
		c1.851,0.128,3.744,0.575,5.542,0.333c8.622-1.17,14.511-6.63,20.238-12.67c19.2-20.249,41.729-32.76,70.794-29.358
		c1.077,0.423,2.156,0.846,3.916,1.535c-3.254,1.277-6.092,2.393-9.404,3.694c7.922,9.296,6.468,18.47,0.802,28.54
		c-1.077-4.006-1.944-7.231-2.811-10.458c-0.407-0.016-0.812-0.032-1.218-0.049c-0.494,2.93-0.988,5.857-1.483,8.787
		c-4.133,9.71-8.067,19.508-18.147,24.955c-14.671,7.922-29.402,11.386-44.242,0.86
		C294.846,237.573,298.592,247.393,299.073,257.009z M347.641,202.557c0-5.581,0-11.158,0-18.078
		c-15.209,8.951-28.197,17.653-38.604,29.743c-1.427,1.723-2.853,3.447-4.292,5.185C319.27,230.297,347.671,223.133,347.641,202.557
		z"/>
	<path fill-rule="evenodd" clip-rule="evenodd" fill="#49330F" d="M137.652,206.38c-0.187-0.747-0.373-1.492-0.56-2.239
		c-0.322-1.116-0.642-2.232-0.964-3.348c-0.246-2.517-0.492-5.033-0.738-7.548c-0.485-0.046-0.973-0.091-1.46-0.138
		c-0.93,3.274-1.861,6.549-3.032,10.678c-5.837-9.971-6.8-19.087,0.846-28.684c-3.366-1.16-6.229-2.141-9.08-3.155
		c-0.129-0.047-0.231-0.423-0.195-0.618c0.043-0.213,0.26-0.394,0.401-0.588c0.696-0.296,1.392-0.594,2.088-0.889
		c0.288,0.174,0.553,0.146,0.797-0.09c10.884,1.194,22.104,1.116,32.575,3.879c16.442,4.341,29.137,15.234,40.494,27.658
		c6.317,6.908,13.576,12.09,23.739,10.467c3.04-0.372,6.079-0.742,9.116-1.113c0.231,7.92-4.444,14.059-13.542,16.443
		c-4.145,1.087-4.867,3.182-6.198,6.992c-2.785,7.97-7.395,15.305-11.256,22.893c0.963-9.725,4.271-19.633-2.117-29.192
		c-7.733,5.776-16.166,7.897-25.29,6.257C156.639,231.055,144.323,222.303,137.652,206.38z M190.822,214.084
		c-10.414-12.053-23.369-20.768-38.561-29.624c0,6.884,0,12.475,0,18.065c0.24,21.015,28.94,27.681,42.674,17.052
		c-0.412-0.756-0.754-1.624-1.304-2.33C192.769,216.135,191.766,215.134,190.822,214.084z"/>
	<path fill-rule="evenodd" clip-rule="evenodd" fill="#E08700" d="M299.073,257.009c-0.481-9.617-4.228-19.437,2.104-29.074
		c14.84,10.525,29.571,7.062,44.242-0.86c10.08-5.446,14.014-15.244,18.147-24.955c-1.352,23.269-16.732,48.75-54.212,45.046
		c2.45,7.272,4.673,13.872,6.897,20.474l0.021-0.023C310.54,264.082,304.807,260.546,299.073,257.009z"/>
	<path fill-rule="evenodd" clip-rule="evenodd" fill="#E08700" d="M137.652,206.38c6.671,15.923,18.987,24.675,35.625,27.665
		c9.124,1.64,17.556-0.48,25.29-6.257c6.388,9.559,3.08,19.467,2.117,29.192c-5.735,3.552-11.47,7.096-17.205,10.64l0.021,0.02
		c2.308-6.541,4.619-13.08,7.15-20.25C158.491,247.984,136.859,230.568,137.652,206.38z"/>
	<path fill-rule="evenodd" clip-rule="evenodd" fill="#DE8600" d="M222.563,211.765c-10.164,1.624-17.422-3.559-23.739-10.467
		c-11.357-12.423-24.052-23.317-40.494-27.658c-10.471-2.763-21.691-2.685-32.575-3.879c7.926-1.991,15.891-5.745,23.772-5.578
		c12.83,0.273,25.963,2.266,36.454,11.015c4.923,4.104,10.111,8.454,13.449,13.775C205.429,198.539,212.815,206.23,222.563,211.765z
		"/>
	<path fill-rule="evenodd" clip-rule="evenodd" fill="#DF8600" d="M373.765,170.071c-29.065-3.401-51.594,9.109-70.794,29.358
		c-5.728,6.04-11.616,11.5-20.238,12.67c-1.799,0.243-3.691-0.205-5.542-0.333c10.643-5.182,17.557-14.011,23.975-23.605
		c9.652-14.429,23.742-21.888,40.86-22.835c8.619-0.476,17.35,0.585,25.989,1.395C370.018,166.909,371.852,168.907,373.765,170.071z
		"/>
	<path fill-rule="evenodd" clip-rule="evenodd" fill="#DF8600" d="M226.773,170.937c-0.958-1.926-1.916-3.85-2.874-5.775
		l-0.002,0.004c8.996,0.964,17.99,2.642,26.991,2.692c8.923,0.047,17.854-1.549,27.026-2.447c-0.956,1.108-2.243,2.602-3.529,4.094
		c-0.483,0.5-0.967,0.999-1.449,1.499l0.099-0.081c-9.008,1.515-17.993,3.981-27.037,4.218
		C239.631,175.308,233.184,172.448,226.773,170.937z"/>
	<path fill-rule="evenodd" clip-rule="evenodd" fill="#52380B" d="M226.773,170.937c6.411,1.511,12.858,4.371,19.224,4.203
		c9.044-0.236,18.029-2.703,27.037-4.218c-0.225,0.416-0.377,0.898-0.689,1.236C256.209,189.532,242.814,189.17,226.773,170.937z"/>
	<path fill-rule="evenodd" clip-rule="evenodd" fill="#47310D" d="M271.777,414.42c-2.3-8.263-0.383-11.05,8.247-11.239
		c8.89-0.197,17.788-0.123,26.68-0.022c11.972,0.139,13.945,3.211,9.543,14.538c-0.526,0.947-1.054,1.896-1.583,2.843l0.039-0.057
		c-2.079,2.251-4.098,4.561-6.248,6.742c-9.758,9.906-20.462,9.266-28.907-1.792C276.822,421.862,274.36,418.095,271.777,414.42z"/>
	<path fill-rule="evenodd" clip-rule="evenodd" fill="#47310E" d="M183.554,419.04c-3.178-15.354-2.858-15.753,13.632-15.881
		c7.683-0.061,15.371-0.183,23.046,0.047c8.595,0.256,10.336,2.96,7.869,11.413c-2.914,4.095-5.679,8.307-8.772,12.262
		c-7.236,9.254-17.515,9.833-26.151,1.603c-2.752-2.624-5.434-5.324-8.149-7.987c0,0,0.02,0.037,0.018,0.037
		C184.549,420.034,184.051,419.537,183.554,419.04z"/>
	<path fill-rule="evenodd" clip-rule="evenodd" fill="#DC8400" d="M185.029,420.496c2.715,2.663,5.397,5.363,8.149,7.987
		c8.636,8.231,18.915,7.652,26.151-1.603c3.093-3.956,5.858-8.167,8.772-12.262c-2.588,6.783-4.267,14.133-8.035,20.182
		c-3.451,5.539-9.695,8.745-16.793,6.448C193.207,437.989,186.661,431.324,185.029,420.496z"/>
	<path fill-rule="evenodd" clip-rule="evenodd" fill="#DE8500" d="M271.777,414.42c2.583,3.675,5.045,7.442,7.771,11.012
		c8.444,11.058,19.149,11.699,28.907,1.792c2.15-2.181,4.169-4.491,6.248-6.742c-1.417,10.428-10.169,19.868-19.932,21.499
		c-7.169,1.197-15.272-4.487-19.752-14.67C273.259,423.313,272.817,418.732,271.777,414.42z"/>
	<polygon fill-rule="evenodd" clip-rule="evenodd" fill="#493310" points="403.59,211.714 403.691,212.134 403.39,212.097 	"/>
	<path fill-rule="evenodd" clip-rule="evenodd" fill="#FFFFFF" d="M309.037,214.222c10.406-12.089,23.395-20.792,38.604-29.743
		c0,6.919,0,12.497,0,18.078c-6.273,7.997-13.365,15.138-24.286,15.122C318.581,217.672,313.81,215.442,309.037,214.222z"/>
	<path fill-rule="evenodd" clip-rule="evenodd" fill="#C5C4C3" d="M309.037,214.222c4.772,1.22,9.543,3.45,14.318,3.457
		c10.92,0.016,18.012-7.125,24.286-15.122c0.03,20.576-28.371,27.74-42.896,16.85C306.184,217.669,307.61,215.945,309.037,214.222z"
		/>
	<path fill-rule="evenodd" clip-rule="evenodd" fill="#FFFFFF" d="M152.262,202.526c0-5.591,0-11.181,0-18.065
		c15.191,8.856,28.147,17.571,38.561,29.624c-6,5.412-18.174,5.578-26.961-0.457C159.506,210.638,156.098,206.27,152.262,202.526z"
		/>
	<path fill-rule="evenodd" clip-rule="evenodd" fill="#C5C4C3" d="M152.262,202.526c3.836,3.744,7.245,8.111,11.599,11.101
		c8.788,6.035,20.962,5.869,26.961,0.457c0.943,1.049,1.946,2.051,2.809,3.164c0.55,0.707,0.892,1.574,1.304,2.33
		C181.202,230.207,152.501,223.541,152.262,202.526z"/>
</g>
</svg>
