<svg xmlns="http://www.w3.org/2000/svg" xml:space="preserve" viewBox="0 0 128 128"><path d="m99.841 55.453-30.47 10.203c-.718.24-1.264.91-1.264 1.536v.351c0 17.098.008 51.295.008 51.295 0 2.006 2 2.369 3.458 2.852 6.21 2.056 12.398 4.175 18.631 6.157 1.126.358 2.25.018 3.22-.304l30.47-10.204c.596-.2 1.264-.906 1.264-1.534V64.53c0-2.1-.634-2.285-2.448-2.886l-19.132-6.339c-1.3-.425-2.59-.236-3.737.148zm-9.365 71.827c-6.12-2-12.23-4.04-18.343-6.064-1.459-.483-3.457-.846-3.457-2.853l.005-50.716c0-.443.152-.9.5-1.118.177-.11.347-.168.522-.186.174-.018.352.006.545.07l18.136 6.014c.71.236 1.6.446 2.346.883.745.438 1.337 1.17 1.337 2.284l.005 50.279c0 1.003-.493 1.767-1.596 1.407zM70.248 67.124v4.479l21.144 7.082c.006-1.032.01-2.074.018-3.097.008-.892-.39-1.345-1.014-1.71-.623-.367-1.47-.58-2.219-.828zm0 7.177v7.457l21.125 7.076c-.003-2.5-.003-4.99.005-7.454zm2.908 3.251c.653.046 1.182.757 1.182 1.588 0 .832-.53 1.469-1.182 1.422-.652-.046-1.18-.757-1.18-1.588 0-.831.528-1.468 1.18-1.422zm16.98 4.674c.192.013.347.222.347.467 0 .244-.155.43-.347.416-.191-.013-.347-.221-.347-.465 0-.245.155-.432.347-.418zm0 1.969c.192.013.347.222.347.467 0 .244-.155.43-.347.416-.191-.013-.347-.221-.347-.465 0-.245.155-.432.347-.418zm-19.888.261v7.457l20.633 6.912.524.176c-.01-2.495-.017-4.98-.023-7.463zm19.888 1.708c.192.013.347.222.347.466 0 .245-.155.431-.347.417-.191-.013-.347-.221-.347-.465 0-.245.155-.432.347-.418zm-16.98 1.53c.653.045 1.182.756 1.182 1.587 0 .832-.53 1.469-1.182 1.422-.652-.046-1.18-.757-1.18-1.588 0-.831.528-1.468 1.18-1.422zm16.98 4.692c.192.013.347.222.347.467 0 .244-.155.432-.347.418-.192-.014-.347-.223-.347-.467 0-.245.155-.432.347-.418zm0 1.97c.192.012.347.221.347.466 0 .244-.155.432-.347.418-.192-.014-.347-.223-.347-.467 0-.245.155-.432.347-.418zm-19.888.255v7.457l21.19 7.1c-.008-2.486-.015-4.969-.025-7.465zm19.888 1.713c.192.013.347.222.347.467 0 .244-.155.432-.347.418-.192-.014-.347-.223-.347-.467 0-.245.155-.432.347-.418zm-16.98 1.51c.653.046 1.182.757 1.182 1.588 0 .832-.53 1.469-1.182 1.422-.652-.046-1.18-.757-1.18-1.588 0-.831.528-1.468 1.18-1.422zm16.98 4.714c.192.013.347.222.347.466 0 .245-.155.432-.347.418-.192-.013-.347-.222-.347-.467 0-.244.155-.431.347-.417zm0 1.969c.192.013.347.222.347.466 0 .245-.155.432-.347.418-.192-.013-.347-.222-.347-.467 0-.244.155-.431.347-.417zm-19.888.25v12.27c0 1.335.457 1.654 1.533 2.015l19.638 6.589c.035-4.507.036-9.12.027-13.772zm19.888 1.719c.192.013.347.222.347.466 0 .245-.155.432-.347.418-.192-.013-.347-.222-.347-.467 0-.244.155-.431.347-.417zm-1.177 13.676c.652.046 1.18.757 1.18 1.588.001.832-.527 1.469-1.18 1.423-.653-.046-1.182-.757-1.182-1.59 0-.831.53-1.468 1.182-1.421zM58.055.02c-1.035.07-2.039.304-2.982.62L4.922 17.436c-1.182.396-2.08 1.498-2.08 2.527v.578c0 28.142.012 84.426.012 84.426 0 3.303 3.291 3.9 5.693 4.695 10.22 3.383 20.406 6.872 30.664 10.134 1.854.589 3.705.03 5.3-.5l21.538-7.212c-.001-5.64-.007-30.815-.007-46.223v-.352c0-.626.546-1.296 1.264-1.536l29.437-9.857V15.58c0-3.455-1.044-3.76-4.03-4.75L61.223.4A8.306 8.306 0 0 0 58.056.02zM5.468 18.567c.288-.03.58.008.897.114l29.85 9.899c1.169.387 2.634.733 3.861 1.454 1.228.72 2.201 1.925 2.201 3.757l.008 82.755c0 1.652-.811 2.91-2.626 2.317-10.074-3.291-20.129-6.65-30.19-9.982-2.402-.795-5.69-1.392-5.69-4.694l.008-83.475c0-.729.249-1.48.823-1.84.29-.181.571-.276.858-.305zm.897 1.284v7.372L41.167 38.88c.01-1.7.015-3.413.03-5.097.012-1.47-.644-2.214-1.67-2.817-1.025-.602-2.418-.953-3.651-1.36zm0 11.814v12.273l34.77 11.646c-.005-4.115-.004-8.212.01-12.269zm4.787 5.35c1.074.075 1.945 1.246 1.946 2.614 0 1.37-.871 2.417-1.946 2.34-1.073-.076-1.942-1.246-1.943-2.614 0-1.368.87-2.415 1.943-2.34zM39.1 44.708c.315.021.571.365.571.768 0 .401-.256.708-.571.685-.315-.021-.571-.364-.572-.765 0-.403.256-.711.572-.688zm0 3.24c.315.022.571.366.571.768s-.256.71-.571.686c-.315-.021-.571-.364-.572-.766 0-.402.256-.71.572-.688zm-32.735.43v12.274l33.96 11.376.863.29c-.016-4.107-.027-8.197-.038-12.284zM39.1 51.19c.315.022.571.366.571.768s-.256.709-.571.686c-.315-.022-.571-.364-.572-.766 0-.402.256-.71.572-.688zm-27.948 2.517c1.074.075 1.945 1.246 1.946 2.614 0 1.37-.871 2.417-1.946 2.34-1.073-.076-1.942-1.246-1.943-2.614 0-1.368.87-2.415 1.943-2.34zM39.1 61.43c.315.022.571.366.571.768 0 .403-.256.711-.571.688-.316-.021-.572-.365-.572-.768 0-.402.256-.71.572-.688zm0 3.241c.315.022.571.366.571.768 0 .403-.256.711-.571.688-.316-.022-.572-.366-.572-.768s.256-.71.572-.688zm-32.735.422v12.273l34.876 11.685c-.012-4.091-.023-8.177-.04-12.286zM39.1 67.912c.315.022.571.366.571.768 0 .403-.256.71-.571.688-.316-.022-.572-.366-.572-.768 0-.403.256-.711.572-.688zm-27.948 2.485c1.074.075 1.945 1.246 1.946 2.615 0 1.368-.871 2.416-1.946 2.34-1.073-.077-1.942-1.247-1.943-2.615 0-1.368.87-2.415 1.943-2.34zM39.1 78.155c.315.022.571.366.571.768 0 .403-.256.711-.571.688-.316-.022-.572-.366-.572-.768s.256-.71.572-.688zm0 3.241c.315.022.571.366.571.768 0 .403-.256.71-.571.688-.316-.022-.572-.366-.572-.768 0-.403.256-.71.572-.688zm-32.735.414v20.193c0 2.198.753 2.723 2.524 3.317l32.323 10.844c.056-7.418.06-15.01.044-22.666zM39.1 84.637c.315.022.571.366.571.768s-.256.71-.571.688c-.316-.022-.572-.366-.572-.768 0-.403.256-.711.572-.688zm-1.937 22.51c1.073.076 1.943 1.246 1.943 2.614 0 1.369-.87 2.417-1.943 2.342-1.075-.075-1.946-1.247-1.946-2.616 0-1.37.872-2.417 1.946-2.34z" fill="#00188f"/></svg>
