<svg xmlns="http://www.w3.org/2000/svg" xmlns:xlink="http://www.w3.org/1999/xlink" xml:space="preserve" viewBox="0 0 128 128"><defs><linearGradient id="e"><stop offset=".452" stop-color="#40b1c3"/><stop offset=".773" stop-color="#1c8090"/></linearGradient><linearGradient id="d"><stop offset="0" stop-color="#097b8f"/><stop offset="1" stop-color="#043a43"/></linearGradient><linearGradient id="c"><stop offset=".19" stop-color="#002c33"/><stop offset=".293" stop-color="#008ca3"/></linearGradient><linearGradient id="b"><stop offset=".474" stop-color="#b8f8fd"/><stop offset=".499" stop-color="#75eff8"/><stop offset="1" stop-color="#88f5fe"/></linearGradient><linearGradient id="a"><stop offset=".216" stop-color="#00d3e6"/><stop offset=".271" stop-color="#00adc9"/><stop offset="1" stop-color="#008da7"/></linearGradient><linearGradient xlink:href="#a" id="f" x1="33.814" x2="67.027" y1="13.609" y2="108.667" gradientTransform="matrix(1.07984 0 0 1.07984 -5.312 -6.148)" gradientUnits="userSpaceOnUse"/><linearGradient xlink:href="#b" id="g" x1=".794" x2="42.147" y1="68.252" y2="85.315" gradientTransform="matrix(1.07984 0 0 1.07984 -5.312 -6.148)" gradientUnits="userSpaceOnUse"/><linearGradient xlink:href="#c" id="h" x1="10.84" x2="44.09" y1="81.469" y2="96.979" gradientTransform="matrix(1.07984 0 0 1.07984 -5.312 -6.148)" gradientUnits="userSpaceOnUse"/><linearGradient xlink:href="#d" id="i" x1="29.154" x2="30.122" y1="40.757" y2="37.963" gradientTransform="matrix(1.07984 0 0 1.07984 -5.312 -6.148)" gradientUnits="userSpaceOnUse"/><linearGradient xlink:href="#d" id="j" x1="29.154" x2="30.122" y1="40.757" y2="37.963" gradientTransform="matrix(1.07984 0 0 1.07984 -5.312 10.561)" gradientUnits="userSpaceOnUse"/><linearGradient xlink:href="#d" id="k" x1="29.154" x2="30.122" y1="40.757" y2="37.963" gradientTransform="matrix(1.07984 0 0 1.07984 -5.312 27.27)" gradientUnits="userSpaceOnUse"/><linearGradient xlink:href="#d" id="l" x1="29.154" x2="30.122" y1="40.757" y2="37.963" gradientTransform="matrix(1.07984 0 0 1.07984 -5.312 43.978)" gradientUnits="userSpaceOnUse"/><linearGradient xlink:href="#a" id="q" x1="33.814" x2="67.027" y1="13.609" y2="108.667" gradientTransform="matrix(.65576 0 0 .65576 63.156 51.356)" gradientUnits="userSpaceOnUse"/><linearGradient xlink:href="#b" id="r" x1=".794" x2="42.147" y1="68.252" y2="85.315" gradientTransform="matrix(.65576 0 0 .65576 63.156 51.356)" gradientUnits="userSpaceOnUse"/><linearGradient xlink:href="#c" id="s" x1="10.84" x2="44.09" y1="81.469" y2="96.979" gradientTransform="matrix(.65576 0 0 .65576 63.156 51.356)" gradientUnits="userSpaceOnUse"/><linearGradient xlink:href="#d" id="t" x1="29.154" x2="30.122" y1="40.757" y2="37.963" gradientTransform="matrix(.65576 0 0 .65576 63.156 51.356)" gradientUnits="userSpaceOnUse"/><linearGradient xlink:href="#d" id="u" x1="29.154" x2="30.122" y1="40.757" y2="37.963" gradientTransform="matrix(.65576 0 0 .65576 63.156 61.503)" gradientUnits="userSpaceOnUse"/><linearGradient xlink:href="#d" id="v" x1="29.154" x2="30.122" y1="40.757" y2="37.963" gradientTransform="matrix(.65576 0 0 .65576 63.156 71.65)" gradientUnits="userSpaceOnUse"/><linearGradient xlink:href="#d" id="w" x1="29.154" x2="30.122" y1="40.757" y2="37.963" gradientTransform="matrix(.65576 0 0 .65576 63.156 81.796)" gradientUnits="userSpaceOnUse"/><radialGradient xlink:href="#e" id="m" cx="39.282" cy="104.343" r="1.248" gradientTransform="matrix(1.0753 .09301 -.02842 1.2276 -2.273 -22.256)" gradientUnits="userSpaceOnUse"/><radialGradient xlink:href="#e" id="n" cx="39.282" cy="104.343" r="1.248" gradientTransform="matrix(1.0753 .09301 -.02842 1.2276 -28.272 -58.993)" gradientUnits="userSpaceOnUse"/><radialGradient xlink:href="#e" id="o" cx="39.282" cy="104.343" r="1.248" gradientTransform="matrix(1.0753 .09301 -.02842 1.2276 -28.272 -92.362)" gradientUnits="userSpaceOnUse"/><radialGradient xlink:href="#e" id="p" cx="39.282" cy="104.343" r="1.248" gradientTransform="matrix(1.0753 .09301 -.02842 1.2276 -28.272 -75.678)" gradientUnits="userSpaceOnUse"/><radialGradient xlink:href="#e" id="x" cx="39.282" cy="104.343" r="1.248" gradientTransform="matrix(.653 .05648 -.01726 .7455 65.002 41.573)" gradientUnits="userSpaceOnUse"/><radialGradient xlink:href="#e" id="y" cx="39.282" cy="104.343" r="1.248" gradientTransform="matrix(.653 .05648 -.01726 .7455 49.213 19.264)" gradientUnits="userSpaceOnUse"/><radialGradient xlink:href="#e" id="z" cx="39.282" cy="104.343" r="1.248" gradientTransform="matrix(.653 .05648 -.01726 .7455 49.213 -1)" gradientUnits="userSpaceOnUse"/><radialGradient xlink:href="#e" id="A" cx="39.282" cy="104.343" r="1.248" gradientTransform="matrix(.653 .05648 -.01726 .7455 49.213 9.132)" gradientUnits="userSpaceOnUse"/></defs><path fill="url(#f)" d="M55.084.688 4.95 17.476c-.98.328-2.08 1.491-2.08 2.525v.58l37.61 12.63v86.823c1.153.111 2.225-.127 4.045-.736l50.132-16.789c.98-.328 2.08-1.49 2.08-2.524V15.622c0-3.454-1.044-3.759-4.029-4.747L61.232.445c-2.216-.734-3.944-.495-6.148.243z"/><path fill="url(#g)" d="M2.884 104.975c0 3.3 3.29 3.898 5.69 4.692 10.216 3.383 20.412 6.83 30.654 10.13a5.743 5.743 0 0 0 2.168.25c2.848-1.236 1.906-4.47 1.925-6.871.212-26.854-.242-53.71-.012-80.564.028-3.3-3.29-3.898-5.69-4.692L6.964 17.788c-1.271-.42-1.823-.504-2.805.11-.74.463-1.288 1.347-1.288 2.104z"/><path fill="url(#h)" d="M5.497 18.606c-.287.03-.568.125-.858.306-.574.359-.823 1.11-.823 1.84l-.008 83.443c0 3.3 3.288 3.898 5.688 4.692 10.058 3.33 20.108 6.688 30.179 9.978 1.823.596 2.623-.675 2.623-2.339L8.916 105.327c-1.77-.594-2.522-1.119-2.522-3.315V81.826l6.628-2.221-6.628-2.22v-12.27l6.628-2.218-6.628-2.22v-12.27l6.628-2.218-6.628-2.221V31.7l6.626-2.221-6.626-2.219v-8.571a2.634 2.634 0 0 0-.897-.083zm.897 29.802 35.904 12.03v-.002zm0 16.708 35.904 12.03v-.002zm33.947 6.932 1.957.658v-.002z"/><path fill="url(#i)" d="M13.067 29.464 6.394 31.7l35.904 12.028v-4.44z"/><path fill="url(#j)" d="m13.067 46.173-6.673 2.236 35.904 12.028v-4.44z"/><path fill="url(#k)" d="m13.067 62.881-6.673 2.236 35.904 12.028v-4.44z"/><path fill="url(#l)" d="m13.067 79.59-6.673 2.235 35.904 12.028v-4.44z"/><path fill="#d5f7fa" d="M13.123 56.346a2.486 1.936 83.668 0 1-1.943 2.34 2.486 1.936 83.668 0 1-1.943-2.614 2.486 1.936 83.668 0 1 1.943-2.34 2.486 1.936 83.668 0 1 1.943 2.614zm0-16.684a2.486 1.936 83.668 0 1-1.943 2.34 2.486 1.936 83.668 0 1-1.943-2.615 2.486 1.936 83.668 0 1 1.943-2.339 2.486 1.936 83.668 0 1 1.943 2.614zm0 33.369a2.486 1.936 83.668 0 1-1.943 2.339 2.486 1.936 83.668 0 1-1.943-2.614 2.486 1.936 83.668 0 1 1.943-2.339 2.486 1.936 83.668 0 1 1.943 2.614zm26 36.737a2.486 1.936 83.668 0 1-1.944 2.339 2.486 1.936 83.668 0 1-1.943-2.614 2.486 1.936 83.668 0 1 1.943-2.339 2.486 1.936 83.668 0 1 1.943 2.614z"/><path fill="#1c8090" d="M39.687 65.462a.73.568 83.668 0 1-.571.687.73.568 83.668 0 1-.57-.768.73.568 83.668 0 1 .57-.686.73.568 83.668 0 1 .57.767zm0 3.24a.73.568 83.668 0 1-.571.687.73.568 83.668 0 1-.57-.768.73.568 83.668 0 1 .57-.687.73.568 83.668 0 1 .57.768zm0-6.48a.73.568 83.668 0 1-.571.688.73.568 83.668 0 1-.57-.768.73.568 83.668 0 1 .57-.687.73.568 83.668 0 1 .57.768zm0 19.958a.73.568 83.668 0 1-.571.687.73.568 83.668 0 1-.57-.768.73.568 83.668 0 1 .57-.687.73.568 83.668 0 1 .57.768zm0 3.24a.73.568 83.668 0 1-.571.686.73.568 83.668 0 1-.57-.767.73.568 83.668 0 1 .57-.687.73.568 83.668 0 1 .57.767zm0-6.48a.73.568 83.668 0 1-.571.687.73.568 83.668 0 1-.57-.767.73.568 83.668 0 1 .57-.687.73.568 83.668 0 1 .57.767zm0-30.195a.73.568 83.668 0 1-.571.687.73.568 83.668 0 1-.57-.768.73.568 83.668 0 1 .57-.687.73.568 83.668 0 1 .57.768zm0 3.24a.73.568 83.668 0 1-.571.686.73.568 83.668 0 1-.57-.768.73.568 83.668 0 1 .57-.687.73.568 83.668 0 1 .57.768zm0-6.48a.73.568 83.668 0 1-.571.687.73.568 83.668 0 1-.57-.768.73.568 83.668 0 1 .57-.687.73.568 83.668 0 1 .57.768z"/><path fill="url(#m)" d="M38.524 109.726a1.72 1.34 83.668 0 1-1.345 1.618 1.72 1.34 83.668 0 1-1.344-1.809 1.72 1.34 83.668 0 1 1.344-1.618 1.72 1.34 83.668 0 1 1.345 1.808z"/><path fill="url(#n)" d="M12.524 72.989a1.72 1.34 83.668 0 1-1.344 1.618 1.72 1.34 83.668 0 1-1.345-1.808 1.72 1.34 83.668 0 1 1.345-1.619 1.72 1.34 83.668 0 1 1.344 1.809z"/><path fill="url(#o)" d="M12.524 39.62a1.72 1.34 83.668 0 1-1.344 1.618 1.72 1.34 83.668 0 1-1.345-1.808 1.72 1.34 83.668 0 1 1.345-1.619 1.72 1.34 83.668 0 1 1.344 1.809z"/><path fill="url(#p)" d="M12.524 56.304a1.72 1.34 83.668 0 1-1.344 1.618 1.72 1.34 83.668 0 1-1.345-1.808 1.72 1.34 83.668 0 1 1.345-1.618 1.72 1.34 83.668 0 1 1.344 1.808z"/><path fill="url(#q)" d="M99.833 55.507 69.39 65.702c-.595.199-1.263.905-1.263 1.533v.352l22.839 7.67v52.726c.7.067 1.351-.077 2.456-.447l30.445-10.195c.595-.2 1.263-.906 1.263-1.534V64.576c0-2.098-.634-2.283-2.447-2.883l-19.115-6.334c-1.346-.445-2.395-.3-3.734.148z"/><path fill="url(#r)" d="M68.133 118.838c0 2.004 1.998 2.367 3.456 2.85 6.204 2.053 12.395 4.147 18.615 6.151.422.136.873.183 1.317.151 1.73-.75 1.158-2.714 1.17-4.172.127-16.307-.148-32.617-.008-48.924.017-2.004-1.998-2.368-3.456-2.85l-18.616-6.153c-.772-.255-1.107-.306-1.703.067-.45.281-.782.818-.782 1.278z"/><path fill="url(#s)" d="M69.72 66.388a1.197 1.197 0 0 0-.52.186c-.35.218-.5.674-.5 1.117l-.005 50.673c0 2.004 1.996 2.367 3.454 2.85 6.108 2.022 12.211 4.061 18.327 6.06 1.107.36 1.593-.411 1.593-1.421l-20.272-6.801c-1.075-.36-1.532-.68-1.532-2.014V104.78l4.025-1.349-4.025-1.348v-7.45l4.025-1.348-4.025-1.349v-7.45l4.025-1.348-4.025-1.348v-7.45l4.024-1.35-4.024-1.347v-5.205a1.6 1.6 0 0 0-.545-.05zm.545 18.098 21.804 7.305zm0 10.146 21.804 7.306v-.001zm20.615 4.21 1.189.4v-.002z"/><path fill="url(#t)" d="m74.317 72.982-4.052 1.357 21.804 7.305v-2.696z"/><path fill="url(#u)" d="m74.317 83.129-4.052 1.357 21.804 7.305v-2.696z"/><path fill="url(#v)" d="m74.317 93.275-4.052 1.358 21.804 7.304v-2.696z"/><path fill="url(#w)" d="m74.317 103.422-4.052 1.357 21.804 7.305v-2.696z"/><path fill="#d5f7fa" d="M74.351 89.307a1.51 1.175 83.668 0 1-1.18 1.42 1.51 1.175 83.668 0 1-1.18-1.587 1.51 1.175 83.668 0 1 1.18-1.42 1.51 1.175 83.668 0 1 1.18 1.587zm0-10.132a1.51 1.175 83.668 0 1-1.18 1.42 1.51 1.175 83.668 0 1-1.18-1.587 1.51 1.175 83.668 0 1 1.18-1.42 1.51 1.175 83.668 0 1 1.18 1.587zm0 20.264a1.51 1.175 83.668 0 1-1.18 1.42 1.51 1.175 83.668 0 1-1.18-1.587 1.51 1.175 83.668 0 1 1.18-1.42 1.51 1.175 83.668 0 1 1.18 1.587zm15.79 22.31a1.51 1.175 83.668 0 1-1.18 1.42 1.51 1.175 83.668 0 1-1.181-1.587 1.51 1.175 83.668 0 1 1.18-1.42 1.51 1.175 83.668 0 1 1.18 1.586z"/><path fill="#1c8090" d="M90.483 94.843a.443.345 83.668 0 1-.347.417.443.345 83.668 0 1-.346-.466.443.345 83.668 0 1 .346-.418.443.345 83.668 0 1 .347.467zm0 1.967a.443.345 83.668 0 1-.347.417.443.345 83.668 0 1-.346-.466.443.345 83.668 0 1 .346-.417.443.345 83.668 0 1 .347.466zm0-3.935a.443.345 83.668 0 1-.347.417.443.345 83.668 0 1-.346-.466.443.345 83.668 0 1 .346-.417.443.345 83.668 0 1 .347.466zm0 12.12a.443.345 83.668 0 1-.347.417.443.345 83.668 0 1-.346-.466.443.345 83.668 0 1 .346-.417.443.345 83.668 0 1 .347.466zm0 1.967a.443.345 83.668 0 1-.347.417.443.345 83.668 0 1-.346-.466.443.345 83.668 0 1 .346-.417.443.345 83.668 0 1 .347.466zm0-3.934a.443.345 83.668 0 1-.347.417.443.345 83.668 0 1-.346-.466.443.345 83.668 0 1 .346-.418.443.345 83.668 0 1 .347.467zm0-18.338a.443.345 83.668 0 1-.347.418.443.345 83.668 0 1-.346-.467.443.345 83.668 0 1 .346-.417.443.345 83.668 0 1 .347.466zm0 1.968a.443.345 83.668 0 1-.347.417.443.345 83.668 0 1-.346-.466.443.345 83.668 0 1 .346-.417.443.345 83.668 0 1 .347.466zm0-3.935a.443.345 83.668 0 1-.347.417.443.345 83.668 0 1-.346-.466.443.345 83.668 0 1 .346-.417.443.345 83.668 0 1 .347.466z"/><path fill="url(#x)" d="M89.777 121.723a1.045.813 83.668 0 1-.817.982 1.045.813 83.668 0 1-.816-1.098 1.045.813 83.668 0 1 .816-.982 1.045.813 83.668 0 1 .817 1.098z"/><path fill="url(#y)" d="M73.988 99.413a1.045.813 83.668 0 1-.817.983 1.045.813 83.668 0 1-.816-1.098 1.045.813 83.668 0 1 .816-.983 1.045.813 83.668 0 1 .817 1.098z"/><path fill="url(#z)" d="M73.988 79.15a1.045.813 83.668 0 1-.817.982 1.045.813 83.668 0 1-.816-1.098 1.045.813 83.668 0 1 .816-.983 1.045.813 83.668 0 1 .817 1.098z"/><path fill="url(#A)" d="M73.988 89.281a1.045.813 83.668 0 1-.817.983 1.045.813 83.668 0 1-.816-1.098 1.045.813 83.668 0 1 .816-.983 1.045.813 83.668 0 1 .817 1.098z"/></svg>
