<svg xmlns="http://www.w3.org/2000/svg" viewBox="0 0 128 128"><path fill="#3D3B47" d="M64 99.6c-.9 0-1.7-.2-2.3-.5L24.3 77.4c-1.2-.7-2.3-2.5-2.3-3.9V30.2c0-1.4 1.1-3.2 2.3-3.9L61.7 4.7c.6-.3 1.4-.5 2.3-.5s1.7.2 2.3.5l37.5 21.6c1.2.7 2.3 2.5 2.3 3.9v43.3c0 1.4-1.1 3.2-2.3 3.9L66.3 99.1c-.6.3-1.4.5-2.3.5z"/><path fill="#ccc" d="M64 5.7c.7 0 1.2.2 1.5.3L103 27.6c.7.4 1.5 1.8 1.5 2.6v43.3c0 .8-.8 2.2-1.5 2.6L65.5 97.8c-.3.2-.8.3-1.5.3s-1.2-.2-1.5-.3L25 76.1c-.7-.4-1.5-1.8-1.5-2.6V30.2c0-.8.8-2.2 1.5-2.6L62.5 6c.3-.2.8-.3 1.5-.3m0-3c-1.1 0-2.2.2-3 .7L23.5 25c-1.7 1-3 3.3-3 5.2v43.3c0 1.9 1.4 4.3 3 5.2L61 100.4c.8.5 1.9.7 3 .7s2.2-.2 3-.7l37.5-21.6c1.7-1 3-3.3 3-5.2V30.2c0-1.9-1.4-4.3-3-5.2L67 3.4c-.8-.5-1.9-.7-3-.7z"/><path fill="#EFF3F3" d="M64 48.5h.2c1.1.1 2.1.7 2.7 1.7.3.6.5 1.2.4 1.9-.1 1.8-1.6 3.1-3.4 3.1h-.2c-1.1-.1-2.1-.7-2.7-1.7-.3-.6-.5-1.2-.4-1.9.2-1.7 1.6-3.1 3.4-3.1m0-.2c-1.9 0-3.4 1.5-3.6 3.3 0 .7.1 1.4.5 2 .6 1 1.7 1.7 2.8 1.8h.2c1.9 0 3.4-1.5 3.6-3.3 0-.7-.1-1.4-.5-2-.6-1-1.7-1.7-2.8-1.8H64z"/><path fill="#A1A1A4" d="M64.8 56.2h.1-.1z"/><path fill="#EFF3F3" d="M64.1 50.7c.6 0 1.1.6 1.1 1.3 0 .6-.6 1.1-1.3 1.1-.6 0-1.1-.6-1.1-1.3.1-.7.6-1.1 1.3-1.1zM64 56.6h-.3c-1.6-.1-3-1-3.8-2.4-.5-.8-.7-1.7-.6-2.7.1-1.1.5-2.1 1.2-2.9L29.8 72l35.3-15.5c-.4.1-.7.1-1.1.1z"/><path fill="#0977F7" d="M62.9 47.3c.5-.1 1-.2 1.5-.1 1.6.1 3 1 3.8 2.4.5.8.7 1.8.6 2.7-.1 1.1-.6 2.2-1.3 3l31-22.9-35.6 14.9z"/><path d="M12.3 109.8c.8.7 1.3 1.8 1.3 3.5v8.6h-3.4v-7.8c0-.7-.1-1.2-.3-1.6-.3-.7-1-1-1.9-1-1.1 0-1.9.5-2.3 1.4-.2.5-.3 1.2-.3 2v6.9H2V109h3.2v1.9c.4-.7.8-1.1 1.2-1.4.7-.5 1.6-.8 2.6-.8 1.4 0 2.4.4 3.3 1.1zm15.1 10.5c-1.1 1.3-2.7 2-4.9 2s-3.9-.7-4.9-2c-1.1-1.3-1.6-2.9-1.6-4.8s.5-3.5 1.6-4.8c1.1-1.4 2.7-2 4.9-2s3.9.7 4.9 2c1.1 1.4 1.6 3 1.6 4.8 0 1.9-.6 3.5-1.6 4.8zm-2.7-1.9c.5-.7.8-1.7.8-3s-.3-2.3-.8-3c-.5-.7-1.3-1-2.3-1s-1.7.3-2.3 1c-.5.7-.8 1.7-.8 3s.3 2.3.8 3 1.3 1 2.3 1 1.8-.3 2.3-1zm13.5-9.2c.6.3 1.1.8 1.5 1.4v-6.1h3.4v17.3h-3.3V120c-.5.8-1 1.3-1.6 1.7s-1.4.5-2.3.5c-1.5 0-2.8-.6-3.8-1.8-1-1.2-1.5-2.8-1.5-4.7 0-2.2.5-3.9 1.5-5.2 1-1.3 2.4-1.9 4-1.9.8.1 1.5.3 2.1.6zm.8 9.2c.5-.7.7-1.6.7-2.7 0-1.6-.4-2.7-1.2-3.4-.5-.4-1.1-.6-1.7-.6-1 0-1.7.4-2.2 1.1-.5.7-.7 1.7-.7 2.8 0 1.2.2 2.1.7 2.8.5.7 1.2 1.1 2.1 1.1s1.8-.4 2.3-1.1zm15.5-9.1c.9.4 1.6 1 2.2 1.9.5.8.9 1.6 1 2.7.1.6.1 1.4.1 2.5h-9.3c.1 1.3.5 2.2 1.3 2.7.5.3 1.1.5 1.9.5.8 0 1.4-.2 1.9-.6.3-.2.5-.5.7-.9h3.4c-.1.8-.5 1.5-1.2 2.3-1.1 1.2-2.8 1.9-4.8 1.9-1.7 0-3.2-.5-4.5-1.6-1.3-1.1-2-2.8-2-5.1 0-2.2.6-3.9 1.8-5.1 1.2-1.2 2.7-1.8 4.6-1.8 1 0 2 .2 2.9.6zm-5 2.9c-.5.5-.8 1.2-.9 2h5.8c-.1-.9-.4-1.6-.9-2-.5-.5-1.2-.7-2-.7-.9 0-1.6.2-2 .7zm20.8 7.7l3.3-10.6H75l-4 12.6h-1.5l-2.7-10.5-2.8 10.5h-1.7l-3.8-12.5h1.4L63 120l2.9-10.7h1.6l2.8 10.6zM78 116c0 .7.1 1.3.3 1.9.2.6.4 1.1.8 1.6.3.4.8.8 1.3 1.1.5.3 1.1.4 1.8.4.9 0 1.8-.2 2.4-.7.7-.5 1.1-1.2 1.4-2.1h1.6c-.2.6-.4 1.1-.7 1.7s-.7.9-1.1 1.3-.9.7-1.5.9c-.6.2-1.3.3-2.1.3-1 0-1.9-.2-2.6-.5-.7-.3-1.3-.8-1.8-1.4-.5-.6-.8-1.3-1-2.1-.2-.8-.3-1.7-.3-2.6s.1-1.8.4-2.6c.3-.8.6-1.5 1.1-2.1.5-.6 1.1-1.1 1.8-1.4s1.5-.5 2.4-.5c1.7 0 3.1.6 4.1 1.8 1 1.2 1.5 2.9 1.4 5.1H78zm8.2-1.2c0-.6-.1-1.2-.3-1.7-.2-.5-.4-1-.7-1.4-.3-.4-.7-.7-1.2-.9-.5-.2-1.1-.3-1.7-.3s-1.2.1-1.7.4c-.5.2-.9.6-1.3 1-.3.4-.6.9-.8 1.4-.2.5-.3 1.1-.4 1.7h8.1zm5.9 7.1h-1.4v-17.4h1.4v6.9c.5-.8 1.1-1.4 1.9-1.7.8-.4 1.7-.6 2.5-.6.9 0 1.8.2 2.5.5.7.4 1.3.8 1.7 1.4.5.6.8 1.3 1 2.1.2.8.3 1.6.3 2.5 0 .9-.1 1.8-.3 2.6-.2.8-.5 1.5-1 2.1-.5.6-1 1-1.7 1.4-.7.3-1.6.5-2.6.5-.4 0-.8-.1-1.2-.2-.4-.1-.8-.3-1.2-.5-.4-.2-.8-.5-1.1-.8s-.6-.7-.8-1.1v2.3zm0-6.3c0 .8.1 1.5.3 2.1.2.7.5 1.2.8 1.7.4.5.8.8 1.3 1.1.5.3 1.1.4 1.8.4.6 0 1.2-.1 1.7-.3.5-.2 1-.5 1.4-1 .4-.4.7-.9.9-1.5.2-.6.3-1.3.3-2.1s0-1.5-.2-2.2c-.2-.7-.4-1.3-.8-1.8s-.8-.9-1.4-1.2-1.2-.4-1.9-.4-1.2.1-1.8.4c-.5.3-1 .7-1.3 1.1-.4.5-.6 1-.8 1.7-.2.6-.3 1.3-.3 2zm13.1 6.3v-17.4h1.4v10.8l6.1-5.9h2l-4.7 4.5 5.2 8h-1.6l-4.7-7-2.4 2.2v4.7h-1.3zm12.3-15.2v-2.1h1.6v2.1h-1.6zm0 15.2v-12.5h1.4v12.5h-1.4zm9.6 0c-.2 0-.4.1-.7.2-.3.1-.6.1-1 .1-.7 0-1.3-.2-1.7-.5-.4-.4-.6-1-.6-1.9v-9.1h-1.8v-1.2h1.8V106h1.4v3.5h2.3v1.2h-2.3v9.4l.1.6c.1.1.2.2.4.3.2.1.4.1.7.1h.6l.6-.1v.9z" fill="#3D3B47"/></svg>