<svg xmlns="http://www.w3.org/2000/svg" viewBox="0 0 128 128"><defs><linearGradient id="a" x1="7.621" x2="61.248" y1="64.719" y2="39.856" gradientTransform="matrix(.43864 0 0 .43864 0 46.84)" gradientUnits="userSpaceOnUse"><stop offset=".22" stop-color="#F0EB18"/><stop offset=".59" stop-color="#00C4F4"/></linearGradient><linearGradient id="b" x1="60.019" x2="1.313" y1="59.778" y2="1.073" gradientTransform="matrix(.43864 0 0 .43864 0 46.84)" gradientUnits="userSpaceOnUse"><stop offset=".19" stop-color="#00C4F4"/><stop offset=".83" stop-color="#007DFE"/></linearGradient></defs><path fill="#f0eb18" d="m11.639 96.106.003 23.75A8.144 8.144 0 0 0 19.787 128H42.8a8.148 8.148 0 0 0 6.185-2.844l65.417-76.32a8.15 8.15 0 0 0 1.96-5.3v-23.75a8.145 8.145 0 0 0-8.144-8.146H85.2a8.148 8.148 0 0 0-6.185 2.844L13.6 90.804a8.145 8.145 0 0 0-1.96 5.302Z"/><path fill="url(#a)" d="M2.552 68.545v4.583c0 .986.8 1.786 1.786 1.786h5.743c.085 0 .17-.006.253-.018l16.205-2.314a1.786 1.786 0 0 0 1.534-1.77v-6.874c0-.987-.8-1.787-1.787-1.786l-8.132.002c-.192 0-.383.03-.565.091L3.773 66.851a1.787 1.787 0 0 0-1.221 1.695Z" transform="translate(.004 -213.564) scale(4.55938)"/><path fill="url(#b)" d="M0 48.627v14.9c0 .714.426 1.36 1.082 1.642l16.445 7.048c.222.095.462.144.704.144h8.055c.987 0 1.787-.8 1.787-1.786v-7.88c0-.354-.105-.699-.301-.992l-9.388-14.067a1.786 1.786 0 0 0-1.486-.795H1.786C.8 46.84 0 47.64 0 48.627z" transform="translate(.004 -213.564) scale(4.55938)"/><path fill="#000" d="M103.998 23.999H24.001v79.997h79.997Z"/><path fill="#fff" d="m42.476 55.92-4.844-21.906h-6.064l7.244 30.008h6.645l5.122-21.799 5.059 21.799h6.665l7.288-30.008h-5.937L58.959 55.92l-5.401-21.906h-5.916zM76.444 63.358c1.686.785 3.615 1.18 5.787 1.18 2.173 0 4.103-.4 5.789-1.202 1.685-.801 2.993-1.9 3.922-3.3.943-1.416 1.415-3.01 1.415-4.781 0-1.445-.322-2.773-.965-3.987a8.726 8.726 0 0 0-2.7-3.087c-1.144-.844-2.45-1.414-3.923-1.714l-5.102-1.115c-.928-.227-1.665-.613-2.208-1.157-.529-.545-.793-1.23-.793-2.058 0-.728.193-1.363.579-1.907.385-.557.922-.987 1.607-1.286.7-.314 1.508-.472 2.422-.472.914 0 1.721.163 2.422.492.714.314 1.264.764 1.65 1.35.385.571.578 1.222.578 1.952h5.852c-.015-1.715-.472-3.228-1.372-4.544-.887-1.33-2.13-2.367-3.73-3.108-1.6-.743-3.45-1.115-5.466-1.115-2.015 0-3.815.385-5.401 1.157-1.586.758-2.821 1.821-3.708 3.193-.885 1.359-1.328 2.894-1.328 4.608 0 1.415.292 2.688.878 3.816a8.14 8.14 0 0 0 2.465 2.851c1.058.758 2.301 1.294 3.73 1.608l5.295 1.179c1.015.245 1.807.679 2.379 1.308.585.63.878 1.422.878 2.38 0 .77-.215 1.456-.643 2.057-.414.6-1.007 1.071-1.778 1.415-.758.33-1.601.492-2.659.492-1.057 0-1.993-.185-2.807-.557-.814-.372-1.45-.886-1.908-1.543-.457-.656-.685-1.423-.685-2.293h-5.873c.028 1.843.514 3.472 1.457 4.887.957 1.414 2.272 2.516 3.944 3.301zM33.987 87.996h32v6h-32Z"/></svg>
