<svg xmlns="http://www.w3.org/2000/svg" viewBox="0 0 128 128"><path fill="#000000" d="M2.278 46.657A2.286 2.286 0 0 0 0 48.936v14.842c0 .91.543 1.733 1.38 2.092l1.752.75-.043.051c-.353.413-.547.94-.547 1.483v5.198c.002.215.033.425.09.623l.014.042h-.002c.014.048.025.073.027.078.007.021.02.067.049.133v.001h.001a2.278 2.278 0 0 0 .489.722 2.26 2.26 0 0 0 .523.393l.006.002c.063.034.127.066.193.094h.004l.005.001.002.002h.002c.059.025.123.05.197.072h.002v.002l.042.012a2.257 2.257 0 0 0 .633.09H10.54c.107 0 .214-.007.32-.022v-.002l16.143-2.305a2.283 2.283 0 0 0 1.955-2.255v-8.088c0-.45-.134-.889-.383-1.262l-2.512-3.763-.196.228c.352-.412.55-.938.55-1.483V51.48A2.286 2.286 0 0 0 24.14 49.2h-3.897l-1.02-1.527a2.277 2.277 0 0 0-1.892-1.014Zm0 .997 15.053.002c.429 0 .825.212 1.064.57l1.315 1.97h4.43c.713 0 1.282.57 1.282 1.282v5.19c0 .304-.11.599-.31.832l-.297.344 2.932 4.393c.141.212.216.457.216.71V71.035c0 .642-.465 1.18-1.1 1.27l-16.141 2.306v-.002c-.061.009-.12.014-.181.014H4.819a1.27 1.27 0 0 1-.356-.05l-.024-.009v.002h-.003c-.033-.01-.07-.027-.113-.045h-.004v-.001a1.27 1.27 0 0 1-.11-.051h-.001l-.002-.002a1.256 1.256 0 0 1-.566-.626h-.002v-.002l-.002-.004c-.001-.004-.007-.025-.023-.07a.427.427 0 0 0-.016-.043h-.002l-.006-.023a1.278 1.278 0 0 1-.05-.35v-5.195c0-.307.108-.603.307-.835v-.002l.924-1.078-2.998-1.284a1.277 1.277 0 0 1-.776-1.177V48.936c0-.714.568-1.282 1.282-1.282zm3.463 4.745v17.478h17.477V52.4Zm76.915 1.967c-.878 0-1.63.166-2.312.494-.681.332-1.21.785-1.591 1.362a3.528 3.528 0 0 0-.572 1.976c0 .603.127 1.15.385 1.639.254.485.615.896 1.074 1.223.459.328 1 .568 1.617.712l2.282.516c.48.118.855.328 1.13.62.276.298.41.673.41 1.127 0 .367-.094.695-.291.979a1.907 1.907 0 0 1-.835.663 3.076 3.076 0 0 1-1.249.241c-.476 0-.927-.088-1.307-.262a2.079 2.079 0 0 1-.881-.726c-.21-.31-.32-.664-.32-1.07h-2.338c.004.8.214 1.503.62 2.115.407.611.974 1.087 1.695 1.424.721.336 1.552.512 2.487.512s1.757-.175 2.482-.52c.725-.345 1.289-.821 1.69-1.424a3.6 3.6 0 0 0 .604-2.04c0-.626-.14-1.198-.414-1.723a3.844 3.844 0 0 0-1.164-1.329l.021-.013a4.555 4.555 0 0 0-1.702-.755l-2.208-.494c-.441-.118-.79-.306-1.049-.555-.257-.253-.383-.576-.383-.965 0-.35.091-.656.27-.918.18-.262.434-.463.757-.607a2.737 2.737 0 0 1 1.123-.214c.424 0 .808.073 1.136.222.328.148.58.363.755.638.18.275.266.58.266.926h2.339a3.486 3.486 0 0 0-.582-1.957c-.38-.568-.913-1.018-1.599-1.337-.686-.319-1.468-.48-2.346-.48zm-64.199.109c.44 0 .845.08 1.195.243.35.162.621.388.815.679.196.287.296.62.3.994h-1.279a.743.743 0 0 0-.126-.426.806.806 0 0 0-.36-.296 1.23 1.23 0 0 0-.53-.107c-.2 0-.376.035-.529.103a.811.811 0 0 0-.352.28.7.7 0 0 0-.126.417c0 .18.057.33.173.45a1 1 0 0 0 .482.252l1.115.243c.322.066.608.191.858.376.253.18.45.406.59.675.14.265.21.554.21.87 0 .386-.104.735-.31 1.044a2.06 2.06 0 0 1-.856.722c-.368.175-.79.263-1.264.263-.475 0-.896-.087-1.265-.259a2.087 2.087 0 0 1-.862-.722 1.933 1.933 0 0 1-.319-1.066h1.284c0 .19.05.357.15.5.1.144.239.255.416.337.178.08.382.122.613.122.231 0 .416-.035.582-.107a.906.906 0 0 0 .39-.31.754.754 0 0 0 .14-.449.733.733 0 0 0-.193-.519.994.994 0 0 0-.52-.286l-1.157-.259a2.176 2.176 0 0 1-.814-.35 1.778 1.778 0 0 1-.539-.622 1.787 1.787 0 0 1-.192-.835c0-.375.096-.71.29-1.006.193-.3.465-.533.811-.698a2.658 2.658 0 0 1 1.179-.253zm48.333.1v13.09h2.208v-1.437c.31.472.702.856 1.187 1.136.598.35 1.29.525 2.076.525.856 0 1.617-.214 2.286-.642.668-.428 1.196-1.023 1.576-1.788.38-.764.574-1.624.574-2.585 0-.962-.194-1.823-.574-2.588-.38-.765-.903-1.36-1.576-1.788v.014c-.669-.429-1.429-.642-2.277-.642-.79 0-1.487.175-2.085.525a3.555 3.555 0 0 0-1.187 1.136v-4.955zm-30.471.005 4.05 13.09h2.57l2.983-10.08 2.955 10.08h2.582L55.5 54.58h-2.368L50.18 64.708 47.185 54.58h-2.47L41.79 64.708 38.74 54.58Zm-28.926.008h1.325l1.058 4.786 1.13-4.786h1.292l1.18 4.786 1.026-4.786H15.7l-1.591 6.556H12.65l-1.105-4.763-1.118 4.763H8.976Zm82.87 1.17v1.553c0 .232-.07.418-.214.563a.77.77 0 0 1-.572.22h-1.049l-.01 1.918h1.683l.008 5.114c0 .485.115.923.343 1.312.227.389.545.69.95.908.407.219.871.33 1.382.33h2.066v-1.92h-1.624a.882.882 0 0 1-.909-.909l-.01-4.831h2.543l.01-1.919h-2.543V55.76zm28.31 2.108c-.678 0-1.295.17-1.802.511-.428.289-.769.685-1.035 1.183v-1.467h-2.14v9.576h2.206v-5.552c0-.468.082-.874.253-1.224.17-.35.407-.616.722-.803.31-.188.676-.28 1.091-.28.384 0 .716.084.996.254.275.166.49.405.638.72.144.31.218.682.218 1.115v5.78h2.16v-5.553c0-.467.086-.874.256-1.223.17-.35.417-.618.732-.806a2.077 2.077 0 0 1 1.088-.278c.384 0 .717.083.992.253.275.166.484.407.628.722.144.31.218.68.218 1.113v5.78H128v-6.043c0-.756-.139-1.415-.414-1.983l.004-.013a3.076 3.076 0 0 0-1.189-1.315c-.515-.31-1.11-.463-1.792-.463-.734 0-1.375.175-1.926.525-.498.319-.886.76-1.179 1.315l-.027-.066a3.036 3.036 0 0 0-1.144-1.315c-.494-.31-1.083-.463-1.76-.463zm-58.236.004a4.95 4.95 0 0 0-2.522.651 4.762 4.762 0 0 0-1.79 1.792c-.437.76-.655 1.611-.655 2.55 0 .94.217 1.823.65 2.592a4.711 4.711 0 0 0 1.778 1.796c.751.428 1.6.646 2.539.646.742 0 1.42-.113 2.027-.344a4.437 4.437 0 0 0 1.56-.983c.428-.424.755-.931.983-1.525h-2.403a2.52 2.52 0 0 1-.916.755c-.367.179-.782.272-1.246.272-.524 0-.993-.127-1.408-.385a2.625 2.625 0 0 1-.973-1.07 3.32 3.32 0 0 1-.342-1.21h7.554v-.533c0-.975-.204-1.84-.61-2.596a4.446 4.446 0 0 0-1.719-1.774c-.732-.42-1.568-.634-2.507-.634zm40.142 0c-.94 0-1.805.218-2.578.655a4.74 4.74 0 0 0-1.81 1.8c-.436.765-.655 1.617-.655 2.556 0 .94.218 1.797.66 2.557a4.833 4.833 0 0 0 1.809 1.8c.764.436 1.62.655 2.56.655s1.806-.219 2.57-.656a4.766 4.766 0 0 0 1.808-1.8 5.066 5.066 0 0 0 .661-2.556c0-.94-.22-1.796-.661-2.556a4.797 4.797 0 0 0-1.808-1.8h.004c-.764-.437-1.62-.655-2.56-.655zm11.508.161c-.676 0-1.272.174-1.782.525l-.004.004c-.361.249-.667.578-.915.983v-1.45h-2.189v9.576h2.207v-5.167c0-.463.097-.862.293-1.198.197-.337.476-.593.843-.777.362-.179.796-.272 1.286-.272h.615V58.03zm-51.65 1.586c.524 0 .987.133 1.389.395s.713.624.932 1.087c.122.258.204.532.256.825h-5.25c.056-.313.148-.608.291-.877.236-.446.56-.796.975-1.049a2.642 2.642 0 0 1 1.407-.381zm11.39.214c.534 0 .993.131 1.403.389.411.258.73.617.958 1.076.227.459.34.987.34 1.585 0 .599-.113 1.127-.34 1.586a2.604 2.604 0 0 1-.958 1.076c-.41.258-.878.389-1.402.389-.525 0-1.01-.127-1.42-.385a2.619 2.619 0 0 1-.966-1.074c-.231-.463-.344-.993-.344-1.592 0-.598.113-1.126.344-1.585.232-.459.55-.818.965-1.076.411-.258.888-.39 1.42-.39zm28.742 0c.533 0 1.01.131 1.424.389.415.258.74.617.967 1.076.232.459.344.987.344 1.585 0 .599-.113 1.119-.34 1.582a2.54 2.54 0 0 1-.965 1.076c-.42.253-.897.383-1.43.383-.533 0-1.013-.125-1.424-.383a2.557 2.557 0 0 1-.961-1.076c-.227-.459-.34-.987-.34-1.582 0-.594.113-1.126.34-1.59a2.56 2.56 0 0 1 .96-1.075 2.684 2.684 0 0 1 1.425-.385zM7.922 66.38h6.992v1.312H7.922Zm72.393 8.629c-.428 0-.804.08-1.136.241-.332.162-.59.385-.778.67a1.749 1.749 0 0 0-.278.972c0 .293.06.56.179.8.118.236.287.438.505.595.219.157.473.266.761.327l1.101.227c.18.044.324.122.428.236a.6.6 0 0 1 .158.424c0 .135-.04.258-.119.368a.717.717 0 0 1-.323.249c-.14.057-.3.087-.488.087s-.363-.035-.516-.1a.789.789 0 0 1-.354-.281.727.727 0 0 1-.126-.418h-1.356c.004.38.11.721.311 1.01.201.288.475.519.825.68.35.162.752.245 1.202.245.45 0 .857-.082 1.21-.249.35-.166.625-.397.822-.69.196-.293.297-.625.297-.996 0-.302-.065-.581-.2-.839a1.843 1.843 0 0 0-.56-.644v.01a2.03 2.03 0 0 0-.822-.344l-1.04-.216a.768.768 0 0 1-.388-.205.507.507 0 0 1-.145-.367c0-.131.035-.244.105-.345a.688.688 0 0 1 .297-.227c.127-.053.276-.084.442-.084.166 0 .319.026.445.088a.72.72 0 0 1 .302.24c.07.106.109.224.109.355h1.354a1.7 1.7 0 0 0-.296-.944 1.872 1.872 0 0 0-.782-.644 2.724 2.724 0 0 0-1.146-.231Zm-41.385.105v3.998h-.006c0 .17-.035.324-.109.46a.758.758 0 0 1-.31.31.915.915 0 0 1-.458.11h-.853v1.244h1.035c.39 0 .745-.087 1.055-.262.31-.175.554-.416.733-.726.18-.31.267-.654.267-1.039v-4.095zm2.393 0v6.126h4.545v-1.179h-3.224v-1.32h2.838v-1.145h-2.838V76.3h3.136v-1.185Zm5.035 0v1.216h1.817v4.906h1.354v-4.906h1.806v-1.216Zm5.591 0v6.126h2.775c.41 0 .778-.073 1.1-.218.324-.144.575-.345.754-.603.179-.257.266-.551.266-.88 0-.3-.07-.57-.21-.81a1.476 1.476 0 0 0-.585-.56h-.004a1.8 1.8 0 0 0-.354-.135l.015-.006c.087-.025.176-.05.255-.091.223-.114.403-.279.53-.488.126-.21.19-.451.19-.722 0-.31-.083-.59-.253-.835a1.666 1.666 0 0 0-.712-.572 2.562 2.562 0 0 0-1.045-.206zm5.672 0v6.126h1.356v-2.233h.881l1.241 2.233h1.547l-1.399-2.395c.07-.026.141-.05.202-.081h.004a1.87 1.87 0 0 0 .79-.687c.188-.293.28-.638.28-1.027 0-.39-.09-.721-.274-1.014a1.825 1.825 0 0 0-.778-.68c-.337-.163-.726-.242-1.168-.242zm7.663 0-2.189 6.126h1.378l.432-1.35h2.272l.463 1.35h1.35l-2.237-6.126Zm4.23 0v6.126h1.398v-6.126Zm2.457 0v6.126h1.235V77.1l2.623 4.142h1.333v-6.126h-1.238v4.142h-.004l-2.63-4.142Zm13.973 0v6.126h1.397v-6.126Zm2.451 0v6.126h2.39a3.1 3.1 0 0 0 1.567-.397c.468-.266.832-.63 1.094-1.097.262-.467.397-.991.397-1.568 0-.577-.13-1.107-.397-1.57a2.862 2.862 0 0 0-1.094-1.095 3.133 3.133 0 0 0-1.568-.4zm6.23 0v6.126h4.544v-1.179h-3.225v-1.32h2.84v-1.145h-2.84V76.3h3.138v-1.185Zm-41.36 1.027h1.202c.166 0 .315.03.442.092a.726.726 0 0 1 .301.258c.07.11.109.24.109.39a.756.756 0 0 1-.109.406.688.688 0 0 1-.301.267 1.01 1.01 0 0 1-.442.095h-1.202zm5.712.084h1.218c.187 0 .354.033.494.099.14.07.248.167.323.294a.869.869 0 0 1 .113.45.876.876 0 0 1-.113.45v-.005a.762.762 0 0 1-.323.297c-.14.07-.307.105-.494.105h-1.218zm30.776.039h1.014a1.7 1.7 0 0 1 .897.227c.253.153.448.372.583.656.136.284.206.628.206 1.025 0 .398-.07.743-.206 1.027v.004c-.135.284-.33.503-.583.656a1.7 1.7 0 0 1-.897.228h-1.014Zm-23.751.042.082.395.753 2.162h-1.621l.702-2.162zm-12.737 2.339h1.254c.18 0 .34.036.485.101.14.066.254.162.333.284a.754.754 0 0 1 .116.418.706.706 0 0 1-.116.407v-.008a.776.776 0 0 1-.33.27c-.14.066-.304.096-.488.096h-1.254z"/></svg>
