<svg xmlns="http://www.w3.org/2000/svg" viewBox="0 0 128 128"><g fill="#2788b5"><path d="M43 72.18l-3.27-12.74h1.74L43 65.89c.38 1.59.72 3.18.94 4.4.21-1.27.6-2.78 1-4.42l1.7-6.43h1.72L50 65.91c.36 1.51.7 3 .89 4.37.26-1.4.62-2.82 1-4.4l1.68-6.43h1.68l-3.57 12.73H50l-1.61-6.63a38.38 38.38 0 01-.83-4.16 39.87 39.87 0 01-1 4.16l-1.81 6.63H43zM57.12 67.91a2.93 2.93 0 003.14 3.18 6 6 0 002.53-.47l.28 1.19a7.41 7.41 0 01-3 .57 4.25 4.25 0 01-4.5-4.61c0-2.76 1.63-4.93 4.29-4.93 3 0 3.78 2.63 3.78 4.31a6.4 6.4 0 01-.06.77h-6.46zM62 66.72A2.37 2.37 0 0059.69 64a2.76 2.76 0 00-2.55 2.7zM65.58 72.18c0-.62.08-1.55.08-2.36V58.76h1.64v5.75a3.41 3.41 0 013.12-1.68c2.27 0 3.87 1.89 3.86 4.67 0 3.27-2.06 4.89-4.1 4.89a3.26 3.26 0 01-3.06-1.72h-.06L67 72.18h-1.42zm1.72-3.67a3.13 3.13 0 00.08.6 2.57 2.57 0 002.49 1.95c1.74 0 2.78-1.42 2.78-3.52 0-1.83-.95-3.4-2.72-3.4a2.65 2.65 0 00-2.53 2 3.27 3.27 0 00-.09.68v1.64zM76.37 69.22a7.36 7.36 0 003.19.79c1.32 0 2-.55 2-1.38s-.6-1.25-2.14-1.8c-2.12-.74-3.5-1.91-3.5-3.76 0-2.17 1.81-3.84 4.82-3.84a7.81 7.81 0 013.25.64l-.64 2.32a6.05 6.05 0 00-2.66-.61c-1.25 0-1.85.57-1.85 1.23 0 .81.72 1.17 2.36 1.8 2.25.83 3.31 2 3.31 3.8 0 2.14-1.64 4-5.14 4a8.35 8.35 0 01-3.61-.77zM89.5 60.3v2.65h2.06v2.12H89.5v3.33c0 1.11.26 1.63 1.13 1.63a4.72 4.72 0 00.85-.08v2.17a5.63 5.63 0 01-1.87.25 3 3 0 01-2.15-.79 3.83 3.83 0 01-.79-2.74v-3.78h-1.21v-2.12h1.23v-2zM102.26 67.46a4.64 4.64 0 01-4.88 4.93 4.53 4.53 0 01-4.78-4.76 4.61 4.61 0 014.93-4.89 4.49 4.49 0 014.73 4.72zm-6.69.09c0 1.59.66 2.78 1.89 2.78s1.83-1.11 1.83-2.78c0-1.38-.53-2.78-1.83-2.78s-1.89 1.42-1.89 2.78zM104 66c0-1.36 0-2.25-.08-3h2.48l.09 1.7h.08a2.72 2.72 0 012.49-1.91 3 3 0 01.61 0v2.7a4.11 4.11 0 00-.77-.08 1.85 1.85 0 00-2 1.46 3.39 3.39 0 00-.06.64v4.69H104zM111.21 65.89c0-1.15 0-2.14-.08-2.95h2.42l.13 1.25h.06a3.21 3.21 0 012.8-1.46 2.62 2.62 0 012.53 1.57 4.12 4.12 0 011.19-1.12 3.33 3.33 0 011.76-.45c1.78 0 3.12 1.25 3.12 4v5.44h-2.8v-5c0-1.34-.43-2.12-1.36-2.12a1.41 1.41 0 00-1.32 1 2.4 2.4 0 00-.11.74v5.41h-2.8V67c0-1.17-.42-2-1.32-2a1.46 1.46 0 00-1.34 1 1.91 1.91 0 00-.11.72v5.39h-2.8v-6.22zM18.47 74.56c.27-.34.59-.71 1-1.15l.19-.22c.24-.27.43-.48.62-.69a15 15 0 001.3-1.57 3.37 3.37 0 00.9-2.42 2 2 0 00-.4-1.31 14.19 14.19 0 00-1-1c-.44-.43-.82-.83-1.34-1.37a10.22 10.22 0 01-1.19-1.92 8.81 8.81 0 01-.68-2.28l-1.53-7.83H12l-2.16 9.86L8 52.79H2.82l4.63 22.42h4.32l2.16-9.71 1.91 9.71h2z"/><path d="M27.52 54.13c.45-.53.83-1 1.14-1.34h-6.9A18.2 18.2 0 0020 55.22a7.92 7.92 0 00-1.2 4.26v.7a7.65 7.65 0 00.74 2.57 9.22 9.22 0 00.76 1.19l.14.18c.74.85 1.87 1.8 2.37 2.42a3 3 0 01.63 1.91 4.39 4.39 0 01-1.1 3.1 25.31 25.31 0 01-2 2.32c-.45.53-.83 1-1.14 1.34h7.13a19.2 19.2 0 001.49-2.43 7.92 7.92 0 001.2-4.26v-.7a7.66 7.66 0 00-.74-2.57 9.42 9.42 0 00-.76-1.19l-.14-.18c-.74-.85-1.87-1.8-2.37-2.42a3 3 0 01-.63-1.91 4.39 4.39 0 011.1-3.1 25.56 25.56 0 012.04-2.32z"/></g></svg>