<svg xmlns="http://www.w3.org/2000/svg" viewBox="0 0 128 128">
  <path d="M23.977 51.57h3.316l2.926 9.559 3.172-9.598h2.664l3.164 9.598 2.922-9.559h3.246L40.57 65.793h-2.703l-3.187-9.242-3.184 9.246h-2.7Zm20.054 8.774V60.3c0-3.078 2.196-5.625 5.34-5.625 3.61 0 5.262 2.804 5.262 5.867 0 .238-.02.523-.04.809h-7.519c.301 1.39 1.27 2.113 2.64 2.113 1.028 0 1.774-.32 2.61-1.11l1.754 1.555c-1.008 1.25-2.457 2.016-4.414 2.016-3.234 0-5.633-2.278-5.633-5.582Zm7.617-.91c-.18-1.368-.988-2.297-2.277-2.297-1.289 0-2.098.906-2.34 2.297Zm7.164 4.84v1.421H55.75v-14.73h3.063v5.465c.746-1.008 1.777-1.754 3.37-1.754 2.52 0 4.919 1.976 4.919 5.586v.039c0 3.61-2.36 5.586-4.918 5.586a4.158 4.158 0 0 1-3.371-1.614Zm5.215-3.973v-.04c0-1.792-1.207-2.984-2.64-2.984-1.43 0-2.602 1.192-2.602 2.985v.039c0 1.804 1.184 2.988 2.61 2.988 1.421 0 2.64-1.172 2.64-2.988Zm3.188 3.328 1.836-2.2c1.27 1.048 2.61 1.716 4.215 1.716 1.27 0 2.035-.504 2.035-1.329v-.043c0-.785-.485-1.183-2.844-1.793-2.84-.722-4.664-1.511-4.664-4.316v-.039c0-2.563 2.059-4.254 4.941-4.254a8.172 8.172 0 0 1 5.239 1.793l-1.61 2.34c-1.25-.867-2.48-1.39-3.672-1.39-1.187 0-1.816.542-1.816 1.226v.043c0 .926.605 1.23 3.047 1.855 2.86.746 4.473 1.774 4.473 4.235v.039c0 2.8-2.133 4.375-5.18 4.375a8.98 8.98 0 0 1-6-2.258Zm12.52-1.008V57.5h-1.29v-2.61h1.29v-2.773H82.8v2.762h2.531v2.605H82.8v4.633c0 .711.3 1.047.988 1.047a3.15 3.15 0 0 0 1.512-.383v2.457c-.73.434-1.57.653-2.422.63-1.875 0-3.145-.75-3.145-3.247Zm6.007-2.277V60.3c0-3.106 2.5-5.625 5.867-5.625 3.364 0 5.825 2.48 5.825 5.586v.039c0 3.105-2.5 5.625-5.868 5.625-3.363 0-5.824-2.48-5.824-5.582Zm8.668 0V60.3c0-1.59-1.148-2.985-2.844-2.985-1.754 0-2.804 1.352-2.804 2.946v.039c0 1.594 1.152 2.984 2.847 2.984 1.754.004 2.801-1.351 2.801-2.941Zm3.945-5.465h3.063v2.176c.625-1.492 1.633-2.457 3.45-2.371v3.199h-.165c-2.035 0-3.285 1.23-3.285 3.812v3.989h-3.063Zm7.602 0h3.063v1.535c.71-.906 1.632-1.73 3.183-1.73 1.422 0 2.48.62 3.047 1.71.95-1.109 2.078-1.71 3.555-1.71 2.28 0 3.652 1.367 3.652 3.968v7.032h-3.07v-6.028c0-1.453-.645-2.199-1.797-2.199-1.149 0-1.852.746-1.852 2.2v6.027h-3.066v-6.028c0-1.453-.645-2.199-1.793-2.199-1.149 0-1.856.746-1.856 2.2v6.027h-3.066ZM5.332 51.547h14.223V65.77H5.332Zm0 0"/>
  <path fill="#fff" d="M7.105 63.086h5.336v.887H7.105Zm5.051-9.766-.797 3.11-.906-3.11h-.902l-.91 3.11-.793-3.11H6.605l1.524 5.336h1L10 55.57l.863 3.086h1.012l1.523-5.336Zm1.465 4.575.695-.833a2.446 2.446 0 0 0 1.598.649c.473 0 .77-.188.77-.504v-.016c0-.296-.184-.449-1.079-.68-1.078-.273-1.773-.574-1.773-1.632v-.016c0-.968.781-1.617 1.875-1.617a3.108 3.108 0 0 1 1.984.684l-.609.886a2.52 2.52 0 0 0-1.39-.535c-.454 0-.688.207-.688.473v.016c0 .351.234.472 1.152.71 1.086.282 1.7.672 1.7 1.606v.016c0 1.062-.813 1.656-1.97 1.656a3.392 3.392 0 0 1-2.265-.856"/>
  <path d="M25.246 75.71v.731h-.566v-5.367h.566v2.328a1.717 1.717 0 0 1 1.457-.843c.91 0 1.813.71 1.813 1.968v.016c0 1.242-.895 1.977-1.813 1.977a1.712 1.712 0 0 1-1.457-.81Zm2.692-1.16v-.015c0-.894-.618-1.469-1.34-1.469a1.423 1.423 0 0 0-1.375 1.461v.016a1.42 1.42 0 0 0 1.375 1.469c.734 0 1.34-.543 1.34-1.461Zm4.187-1.91h.602l-1.594 3.922c-.324.79-.692 1.07-1.266 1.07a1.709 1.709 0 0 1-.808-.187l.191-.449c.184.098.387.149.594.14.34 0 .55-.179.781-.71l-1.727-3.793h.622l1.382 3.168Zm3.297 2.973.418-.36c.316.477.64.735 1.183.735.582 0 1.008-.418 1.008-1.234v-3.457h.586v3.437c.031.496-.14.985-.472 1.352a1.567 1.567 0 0 1-1.133.426 1.757 1.757 0 0 1-1.59-.899Zm4.238-1.062v-.016c0-1.094.77-1.976 1.824-1.976 1.121 0 1.77.898 1.77 2.007a1.44 1.44 0 0 1 0 .184h-3.02a1.325 1.325 0 0 0 1.336 1.285 1.56 1.56 0 0 0 1.2-.535l.351.313c-.383.468-.96.73-1.562.71a1.894 1.894 0 0 1-1.898-1.973Zm3.02-.223c-.059-.687-.453-1.293-1.211-1.293-.664 0-1.16.555-1.235 1.293Zm1.625 1.106V73.14h-.528v-.5h.528v-1.149h.566v1.149h1.203v.5h-1.203v2.218a.564.564 0 0 0 .64.633c.192 0 .38-.047.552-.133v.473c-.211.11-.446.164-.684.164-.613.012-1.074-.293-1.074-1.062Zm2.699-4.137h2.191c.489-.031.973.133 1.348.453.215.219.332.516.328.824v.012a1.246 1.246 0 0 1-.816 1.187c.61.184 1.101.536 1.101 1.243v.015c0 .88-.742 1.403-1.867 1.403h-2.285Zm3.277 1.355c0-.504-.402-.836-1.14-.836h-1.563v1.774h1.524c.695 0 1.183-.317 1.183-.922Zm-1.078 1.45h-1.625v1.816h1.727c.777 0 1.261-.348 1.261-.918v-.016c.004-.554-.464-.882-1.363-.882Zm3.027-1.461h.567v.992c.117-.317.328-.586.61-.778.277-.187.605-.289.94-.28v.609h-.042c-.832 0-1.508.597-1.508 1.742v1.515h-.567Zm2.57 2.695v-.012c0-.8.66-1.23 1.626-1.23.394 0 .789.05 1.168.164v-.133c0-.684-.422-1.035-1.133-1.035a2.609 2.609 0 0 0-1.152.277l-.172-.472c.43-.211.902-.32 1.383-.32.449-.032.89.12 1.226.421.277.3.418.703.39 1.11v2.324h-.534v-.575c-.329.426-.84.672-1.375.653-.715.012-1.426-.39-1.426-1.172Zm2.802-.293v-.375a4.006 4.006 0 0 0-1.118-.164c-.71 0-1.113.308-1.113.785v.02c0 .472.441.754.95.754.706.011 1.28-.418 1.28-1.02Zm1.675-3.86h.649v.637h-.649Zm.04 1.458h.562v3.793h-.563Zm1.785 0h.57v.66a1.432 1.432 0 0 1 1.3-.742c.919 0 1.454.617 1.454 1.523v2.371h-.567v-2.219c0-.71-.379-1.148-1.05-1.148a1.116 1.116 0 0 0-1.137 1.184v2.175h-.57Zm4.144 3.312.285-.402c.375.297.836.46 1.317.472.457 0 .785-.234.785-.601v-.016c0-.383-.445-.527-.945-.668-.598-.168-1.258-.375-1.258-1.074v-.016c0-.652.543-1.085 1.293-1.085.488.007.96.152 1.367.417l-.258.426a2.174 2.174 0 0 0-1.121-.367c-.453 0-.738.238-.738.55v.016c0 .36.472.5.976.653.59.18 1.223.406 1.223 1.09v.03c0 .712-.598 1.142-1.352 1.142a2.61 2.61 0 0 1-1.574-.567Zm0 0"/>
</svg>
