<svg viewBox="0 0 128 128" width="128" height="128" xmlns="http://www.w3.org/2000/svg"><path d="M64 0C28.667 0 -0.031 28.68 -0.031 63.992S28.667 127.985 64 127.985c35.333 0 64.031 -28.68 64.031 -63.992S99.333 0 64 0Zm0 5.12c32.566 0 58.911 26.327 58.911 58.872S96.568 122.862 64 122.862 5.089 96.535 5.089 63.992C5.089 31.447 31.432 5.117 64 5.117Zm0 6.605c-5.911 0 -10.765 4.851 -10.765 10.76 0.003 5.929 4.851 10.793 10.765 10.793 5.934 0.003 10.796 -4.864 10.796 -10.793 0 -5.911 -4.864 -10.76 -10.796 -10.76zm0 5.12c3.172 0 5.673 2.509 5.673 5.64a5.632 5.632 0 0 1 -5.673 5.67 2.56 2.56 0 0 0 -0.003 0c-3.128 0 -5.642 -2.509 -5.642 -5.673A5.619 5.619 0 0 1 64 16.845ZM93.532 35.63a2.56 2.56 0 0 0 -2.455 2.56l2.35 -2.552 -25.019 2.063h-10.13l-23.488 -2.022a2.56 2.56 0 0 0 -0.013 -0.003c-3.379 -0.274 -6.451 2.253 -6.71 5.693 -0.138 1.725 0.253 3.451 0.955 5.22 0.351 0.886 0.786 1.751 1.446 2.547 0.66 0.796 1.669 1.649 3.126 1.764l-0.138 -0.013 16.95 2.299 -1.759 15.89 -8.791 33.254 0.092 -0.276c-0.476 1.219 -0.305 2.557 0.12 3.528 0.422 0.97 1.039 1.695 1.692 2.322a12.828 12.828 0 0 0 4.178 2.655c3.297 1.285 7.178 -0.31 8.486 -3.666a2.56 2.56 0 0 0 0.064 -0.184l8.832 -29.043 9.605 28.472 -0.059 -0.2c0.878 3.517 4.559 5.504 7.946 4.657 1.531 -0.384 3.131 -1.147 4.575 -2.299 0.722 -0.576 1.408 -1.249 1.933 -2.163 0.525 -0.914 0.87 -2.204 0.54 -3.492a2.56 2.56 0 0 0 -0.028 -0.1L77.686 68.669l-1.971 -15.462 18.542 -2.337a2.56 2.56 0 0 0 0.059 -0.069c1.298 -0.154 2.276 -0.845 2.916 -1.559 0.691 -0.771 1.162 -1.613 1.549 -2.486 0.773 -1.741 1.234 -3.448 1.167 -5.179 -0.115 -3.392 -3.031 -6.09 -6.42 -5.949Zm0.22 5.117c0.609 -0.023 1.065 0.399 1.085 1.009a2.56 2.56 0 0 0 0 0.018c0.01 0.264 -0.256 1.838 -0.73 2.903 -0.238 0.532 -0.525 0.97 -0.681 1.144 -0.156 0.174 -0.056 -0.033 0.407 -0.051a2.56 2.56 0 0 0 -2.455 2.557V46.07l-18.844 2.378a2.56 2.56 0 0 0 -2.22 2.865l2.317 18.214a2.56 2.56 0 0 0 0.087 0.412l10.102 33.708a3.026 3.026 0 0 1 -0.625 0.645c-0.753 0.599 -2.02 1.188 -2.624 1.339a2.56 2.56 0 0 0 -0.003 0c-0.868 0.218 -1.539 -0.143 -1.733 -0.929a2.56 2.56 0 0 0 -0.059 -0.2l-10.46 -31.017a2.56 2.56 0 0 0 -2.427 -1.741h-3.223a2.56 2.56 0 0 0 -2.45 1.815l-9.572 31.488c-0.307 0.76 -1.019 1.062 -1.843 0.74a2.56 2.56 0 0 0 -0.003 0c-0.673 -0.261 -1.843 -0.955 -2.493 -1.58a2.573 2.573 0 0 1 -0.486 -0.604l8.827 -33.4a2.56 2.56 0 0 0 0.069 -0.374l2.053 -18.56a2.56 2.56 0 0 0 -2.199 -2.819l-19.172 -2.601c-0.151 -0.187 -0.407 -0.617 -0.62 -1.149 -0.43 -1.08 -0.63 -2.662 -0.609 -2.926a2.56 2.56 0 0 0 0.003 -0.023c0.041 -0.571 0.589 -1.019 1.19 -0.97l23.585 2.03a2.56 2.56 0 0 0 0.22 0.01h10.348a2.56 2.56 0 0 0 0.21 -0.008z"/></svg>