<svg viewBox="0 0 128 128" xmlns="http://www.w3.org/2000/svg" width="128" height="128"><path d="M64 0C28.654 0 0 28.654 0 64s28.654 64 64 64 64 -28.654 64 -64S99.346 0 64 0Zm-0.97 12.71c4.585 0 8.297 3.709 8.297 8.266a8.292 8.292 0 0 1 -8.297 8.294c-4.554 0 -8.264 -3.712 -8.266 -8.294 0 -4.554 3.709 -8.266 8.266 -8.266zm35.866 26.729 -24.622 3.11 0.01 24.65 11.93 39.821a4.639 4.639 0 0 1 -3.369 5.65c-2.486 0.622 -5.028 -0.748 -5.655 -3.261L64.968 73.16h-3.763l-11.241 37.002c-0.942 2.414 -3.63 3.525 -6.042 2.583 -2.388 -0.932 -3.845 -3.651 -2.903 -6.065L51.341 67.602v-25.05l-22.684 -3.087c-2.33 -0.187 -3.909 -2.237 -3.72 -4.567 0.172 -2.345 2.289 -4.088 4.616 -3.899l27.561 2.373h12.086l29.348 -2.419a4.214 4.214 0 0 1 4.388 4.07c0.095 2.335 -1.708 4.321 -4.04 4.419z"/></svg>