<?xml version="1.0" encoding="utf-8"?>
<!-- Generator: Adobe Illustrator 17.1.0, SVG Export Plug-In . SVG Version: 6.00 Build 0)  -->
<!DOCTYPE svg PUBLIC "-//W3C//DTD SVG 1.0//EN" "http://www.w3.org/TR/2001/REC-SVG-20010904/DTD/svg10.dtd" [
	<!ENTITY st0 "fill:#5E64B2;">
	<!ENTITY st1 "fill:#FA930D;">
]>
<svg version="1.0" id="Layer_1" xmlns="http://www.w3.org/2000/svg" xmlns:xlink="http://www.w3.org/1999/xlink" x="0px" y="0px"
	 viewBox="0 0 422.36 297.64" style="enable-background:new 0 0 422.36 297.64;" xml:space="preserve">
<g>
	<g>
		<path style="&st0;" d="M153.768,139.645c2.257-0.377,5.215-0.699,8.978-0.699c4.622,0,8.01,1.076,10.159,3.01
			c1.989,1.72,3.173,4.355,3.173,7.58c0,3.279-0.968,5.86-2.795,7.742c-2.475,2.634-6.506,3.977-11.075,3.977
			c-1.399,0-2.687-0.054-3.763-0.323v14.515h-4.677V139.645z M158.444,157.117c1.021,0.269,2.312,0.375,3.871,0.375
			c5.645,0,9.086-2.741,9.086-7.741c0-4.784-3.388-7.096-8.548-7.096c-2.044,0-3.603,0.161-4.409,0.377V157.117z"/>
		<path style="&st0;" d="M181.93,137.28h4.732v16.236h0.108c0.753-1.344,1.934-2.527,3.385-3.333
			c1.399-0.807,3.065-1.345,4.839-1.345c3.496,0,9.086,2.151,9.086,11.129v15.482h-4.732v-14.944c0-4.194-1.559-7.742-6.02-7.742
			c-3.065,0-5.482,2.151-6.343,4.73c-0.27,0.646-0.323,1.345-0.323,2.258v15.698h-4.732V137.28z"/>
		<path style="&st0;" d="M211.758,157.923c0-3.333-0.108-6.02-0.215-8.494h4.249l0.215,4.463h0.108
			c1.934-3.173,4.999-5.055,9.246-5.055c6.291,0,11.02,5.322,11.02,13.225c0,9.353-5.697,13.977-11.825,13.977
			c-3.441,0-6.451-1.505-8.012-4.086h-0.108v14.139h-4.677V157.923z M216.435,164.858c0,0.699,0.108,1.344,0.215,1.935
			c0.861,3.279,3.711,5.537,7.096,5.537c4.999,0,7.905-4.086,7.905-10.053c0-5.215-2.742-9.677-7.742-9.677
			c-3.225,0-6.236,2.312-7.151,5.86c-0.16,0.592-0.323,1.29-0.323,1.935V164.858z"/>
		<path style="&st0;" d="M242.232,167.008c2.204,1.128,5.593,2.258,9.086,2.258c3.763,0,5.753-1.559,5.753-3.925
			c0-2.258-1.719-3.548-6.075-5.107c-6.02-2.097-9.944-5.43-9.944-10.698c0-6.182,5.16-10.913,13.707-10.913
			c4.086,0,7.096,0.861,9.248,1.828l-1.829,6.613c-1.451-0.699-4.031-1.722-7.579-1.722c-3.548,0-5.27,1.614-5.27,3.494
			c0,2.312,2.044,3.334,6.721,5.108c6.398,2.365,9.408,5.697,9.408,10.805c0,6.075-4.677,11.236-14.623,11.236
			c-4.139,0-8.225-1.076-10.269-2.204L242.232,167.008z"/>
		<path style="&st0;" d="M279.59,141.635v7.525h5.86v6.022h-5.86v9.515c0,3.172,0.753,4.624,3.225,4.624
			c1.021,0,1.827-0.108,2.42-0.215l0.052,6.182c-1.073,0.43-3.01,0.699-5.322,0.699c-2.632,0-4.837-0.915-6.128-2.258
			c-1.504-1.559-2.257-4.086-2.257-7.794v-10.752h-3.496v-6.022h3.496v-5.697L279.59,141.635z"/>
		<path style="&st0;" d="M315.872,162.009c0,9.622-6.826,14.031-13.867,14.031c-7.689,0-13.602-5.053-13.602-13.547
			c0-8.495,5.59-13.924,14.03-13.924C310.497,148.57,315.872,154.106,315.872,162.009z M296.843,162.278
			c0,4.515,1.882,7.902,5.375,7.902c3.173,0,5.215-3.172,5.215-7.902c0-3.925-1.504-7.903-5.215-7.903
			C298.294,154.375,296.843,158.407,296.843,162.278z"/>
		<path style="&st0;" d="M320.921,157.815c0-3.87-0.108-6.397-0.215-8.655h7.041l0.268,4.838h0.215
			c1.346-3.816,4.572-5.428,7.096-5.428c0.753,0,1.131,0,1.722,0.108v7.687c-0.59-0.108-1.291-0.215-2.204-0.215
			c-3.01,0-5.055,1.613-5.59,4.14c-0.108,0.538-0.163,1.182-0.163,1.828v13.332h-8.17V157.815z"/>
		<path style="&st0;" d="M341.344,157.546c0-3.279-0.108-6.074-0.215-8.386h6.881l0.375,3.548h0.16
			c1.131-1.666,3.441-4.139,7.957-4.139c3.388,0,6.075,1.72,7.204,4.461h0.108c0.968-1.344,2.149-2.42,3.388-3.172
			c1.451-0.861,3.063-1.29,4.999-1.29c5.052,0,8.87,3.548,8.87,11.396v15.482h-7.957v-14.3c0-3.816-1.236-6.02-3.871-6.02
			c-1.882,0-3.225,1.29-3.763,2.849c-0.215,0.592-0.323,1.451-0.323,2.097v15.375H357.2v-14.729c0-3.333-1.181-5.591-3.761-5.591
			c-2.097,0-3.336,1.613-3.818,2.956c-0.268,0.646-0.323,1.397-0.323,2.043v15.321h-7.954V157.546z"/>
	</g>
	<g>
		<path style="&st0;" d="M84.973,165.186c1.315,1.707,2.632,2.439,4.216,2.439c2.753,0,5.151-2.361,5.151-5.927v-9.523
			c0-4.22-2.127-6.54-5.151-6.54c-1.702,0-3.559,0.964-4.801,3.052v-2.476h-5.299v31.999H51.434v-13.024
			c1.315,1.707,2.634,2.439,4.22,2.439c2.751,0,5.149-2.361,5.149-5.927v-9.523c0-4.22-2.125-6.54-5.149-6.54
			c-1.703,0-3.563,0.964-4.801,3.052v-2.476h-5.301v31.999h-4.263v-46.9h21.021v35.735h5.884v-14.675
			c0-1.202,0.498-1.935,1.627-1.935c1.008,0,1.545,0.619,1.545,1.935v14.675h5.888v-16.689c0-3.252-2.17-4.722-4.688-4.722
			c-1.551,0-3.214,0.501-4.373,1.971V131.31h22.662c-0.004,0.08-0.011,0.142-0.011,0.223l0.066,1.994c0,2.916,1.405,6.49,2.1,8.077
			c0,0,1.996,4.092,3.541,5.7c1.542,1.602,2.678,2.804,3.988,4.068c1.212,1.163,2.352,2.265,2.967,3.024
			c1.021,1.262,1.085,2.34,1.177,3.906c0.181,3.052-0.941,4.825-2.674,7.185c-1.764,2.407-2.731,3.447-3.851,4.653
			c-0.562,0.608-1.148,1.239-1.85,2.051l-0.565,0.654c-1.129,1.301-2.083,2.407-2.891,3.421l-1.808,1.944h-6.07V165.186z
			 M88.454,160.499v-7.513c0-1.664-0.58-2.552-1.739-2.552c-1.164,0-1.742,0.888-1.742,2.552v7.513c0,1.666,0.578,2.441,1.742,2.441
			C87.874,162.94,88.454,162.166,88.454,160.499z M54.915,160.499v-7.513c0-1.664-0.578-2.552-1.737-2.552
			c-1.163,0-1.744,0.888-1.744,2.552v7.513c0,1.666,0.581,2.441,1.744,2.441C54.337,162.94,54.915,162.166,54.915,160.499z"/>
		<path style="&st1;" d="M119.753,115.532c1.352-1.565,2.467-2.832,3.382-3.984h-20.507c-1.219,1.558-3.697,4.56-5.112,7.224
			c-1.868,3.525-3.406,6.172-3.557,12.662l0.066,2.093c0,3.093,2.217,7.637,2.217,7.637c0.346,0.808,1.515,2.51,2.263,3.55h-0.018
			c0.248,0.328,0.409,0.539,0.409,0.539c2.21,2.531,5.555,5.36,7.031,7.178c1.726,2.134,1.771,4.13,1.861,5.682
			c0.253,4.201-1.45,6.735-3.268,9.217c-2.747,3.749-3.74,4.445-5.854,6.898c-1.351,1.562-2.46,2.829-3.376,3.981h21.184
			c1.244-1.6,3.01-4.544,4.433-7.224c1.868-3.525,3.408-6.173,3.557-12.659l-0.067-2.093c0-3.093-2.212-7.643-2.212-7.643
			c-0.347-0.807-1.517-2.501-2.27-3.548h0.016c-0.241-0.324-0.408-0.539-0.408-0.539c-2.205-2.531-5.555-5.36-7.026-7.178
			c-1.728-2.13-1.776-4.126-1.868-5.684c-0.25-4.201,1.45-6.735,3.268-9.216C116.647,118.679,117.638,117.979,119.753,115.532z"/>
	</g>
</g>
</svg>
