<?xml version="1.0" encoding="utf-8"?>
<!-- Generator: Adobe Illustrator 16.0.4, SVG Export Plug-In . SVG Version: 6.00 Build 0)  -->
<!DOCTYPE svg PUBLIC "-//W3C//DTD SVG 1.1//EN" "http://www.w3.org/Graphics/SVG/1.1/DTD/svg11.dtd">
<svg version="1.1" id="Layer_1" xmlns="http://www.w3.org/2000/svg" xmlns:xlink="http://www.w3.org/1999/xlink" x="0px" y="0px"
	 width="2560px" height="1440px" viewBox="0 0 2560 1440" enable-background="new 0 0 2560 1440" xml:space="preserve">
<g>
	<g>
		<path fill="#5E64B2" d="M669.403,799.18c6.362,8.259,12.733,11.8,20.397,11.8c13.318,0,24.921-11.423,24.921-28.675v-46.073
			c0-20.416-10.291-31.641-24.921-31.641c-8.234,0-17.219,4.664-23.228,14.766v-11.979h-25.638V862.19H507.14V799.18
			c6.362,8.259,12.743,11.8,20.417,11.8c13.309,0,24.91-11.423,24.91-28.675v-46.073c0-20.416-10.28-31.641-24.91-31.641
			c-8.24,0-17.238,4.664-23.229,14.766v-11.979h-25.646V862.19h-20.624V635.285h101.7v172.889h28.468v-70.999
			c0-5.815,2.409-9.361,7.871-9.361c4.877,0,7.476,2.995,7.476,9.361v70.999h28.486v-80.742c0-15.733-10.499-22.846-22.682-22.846
			c-7.504,0-15.549,2.424-21.156,9.536v-78.837h109.64c-0.019,0.388-0.053,0.688-0.053,1.079l0.319,9.647
			c0,14.107,6.797,31.398,10.16,39.077c0,0,9.656,19.797,17.131,27.576c7.461,7.751,12.957,13.566,19.295,19.682
			c5.863,5.627,11.379,10.958,14.354,14.63c4.94,6.105,5.25,11.321,5.695,18.897c0.875,14.767-4.553,23.344-12.938,34.762
			c-8.534,11.646-13.213,16.677-18.631,22.512c-2.72,2.941-5.555,5.994-8.951,9.923l-2.733,3.164
			c-5.462,6.294-10.077,11.646-13.986,16.551l-8.747,9.405h-29.367V799.18H669.403z M686.244,776.504v-36.349
			c0-8.051-2.806-12.347-8.413-12.347c-5.632,0-8.428,4.296-8.428,12.347v36.349c0,8.06,2.796,11.81,8.428,11.81
			C683.438,788.313,686.244,784.568,686.244,776.504z M523.98,776.504v-36.349c0-8.051-2.796-12.347-8.403-12.347
			c-5.627,0-8.438,4.296-8.438,12.347v36.349c0,8.06,2.811,11.81,8.438,11.81C521.185,788.313,523.98,784.568,523.98,776.504z"/>
		<path fill="#5E64B2" d="M837.671,558.95c6.541-7.571,11.936-13.701,16.362-19.274h-99.214
			c-5.897,7.538-17.887,22.062-24.732,34.95c-9.037,17.054-16.479,29.86-17.209,61.26l0.319,10.126
			c0,14.964,10.727,36.948,10.727,36.948c1.674,3.909,7.329,12.144,10.948,17.175h-0.087c1.199,1.587,1.979,2.607,1.979,2.607
			c10.691,12.245,26.875,25.933,34.016,34.728c8.352,10.325,8.568,19.981,9.004,27.49c1.225,20.325-7.015,32.584-15.811,44.593
			c-13.29,18.138-18.094,21.505-28.322,33.372c-6.536,7.558-11.901,13.688-16.333,19.261h102.489
			c6.019-7.741,14.562-21.984,21.447-34.95c9.037-17.054,16.488-29.865,17.209-61.245l-0.324-10.126
			c0-14.964-10.701-36.978-10.701-36.978c-1.68-3.904-7.34-12.1-10.982-17.165h0.077c-1.166-1.567-1.974-2.607-1.974-2.607
			c-10.668-12.245-26.876-25.933-33.992-34.728c-8.36-10.306-8.593-19.962-9.038-27.5c-1.21-20.324,7.016-32.584,15.811-44.588
			C822.644,574.176,827.438,570.789,837.671,558.95z"/>
	</g>
</g>
</svg>
