<svg xmlns="http://www.w3.org/2000/svg" viewBox="0 0 128 128"><path fill="#00d196" d="M63.682 21.176c-11.063.07-21.94 4.019-30.65 11.498-12.49-2.157-27.267-2.171-31.87 8.168C-4 52.437 8.656 65.782 27 77.387c2.597 11.218 10.243 21.129 21.54 26.158 11.295 5.03 23.784 4.075 33.85-1.498 20.9 5.867 39.285 6.345 44.448-5.25 4.603-10.34-5.294-21.312-15.254-29.15-.433-18.365-11.295-34.801-28.215-42.335a47.604 47.604 0 0 0-19.687-4.136zm-.99 9.662a37.868 37.868 0 0 1 16.77 3.252c1.777.79 3.5 2.057 3.308 3.299-.155.805-.6 1.743-3.987 1.754-7.195.332-10.612 2.668-12.168 6.162-1.555 3.493-.111 7.89 3.588 9.537 13.593 6.052 24.014 12.045 31.621 17.482 9.78 6.944 18.32 15.906 16.244 20.569-2.508 5.633-23.402 6.319-60.289-10.104C20.893 66.366 7.424 50.38 9.932 44.746c2.075-4.662 14.443-4.313 26.148-1.691 7.488-7.884 17.048-11.87 26.611-12.217zM34 50.648c-1.882.051-3.564.857-4.498 2.352-1.66 2.658-.327 6.488 2.98 8.555 3.308 2.067 7.336 1.587 8.997-1.07 1.66-2.658.324-6.488-2.983-8.555-1.447-.905-3.032-1.321-4.496-1.282zm27.504 15.475c-2.414-.017-4.553 1.092-5.434 3.07-1.281 2.878.583 6.504 4.164 8.098 3.581 1.594 7.524.554 8.805-2.324 1.281-2.878-.583-6.504-4.164-8.098a8.467 8.467 0 0 0-3.371-.746zM91.52 76.135c-2.962-.102-5.562 1.394-6.264 3.842-.864 3.012 1.475 6.325 5.224 7.4 3.75 1.075 7.49-.496 8.354-3.508.864-3.012-1.476-6.326-5.225-7.4a8.674 8.674 0 0 0-2.09-.334z"/></svg>
