<svg xmlns="http://www.w3.org/2000/svg" xmlns:xlink="http://www.w3.org/1999/xlink" viewBox="0 0 128 128"><defs><radialGradient id="b" cx="0" cy="0" r="1" gradientTransform="matrix(-98.55944 137.6004 -152.84948 -109.48194 126.528 1.92)" gradientUnits="userSpaceOnUse"><stop stop-color="#00D196" stop-opacity=".5"/><stop offset=".997" stop-color="#00D196" stop-opacity="0"/></radialGradient><radialGradient id="d" cx="0" cy="0" r="1" gradientTransform="matrix(-92.15276 33.57 -20.47767 -56.21308 100.15 53.512)" gradientUnits="userSpaceOnUse"><stop stop-color="#fff"/><stop offset="1" stop-color="#fff" stop-opacity="0"/></radialGradient><linearGradient id="a" x1="411.893" x2="411.893" y1="212" y2="612" gradientUnits="userSpaceOnUse"><stop stop-color="#00D196"/><stop offset="1" stop-color="#00B381"/></linearGradient><linearGradient xlink:href="#a" id="c" x1="411.893" x2="411.893" y1="212" y2="612" gradientTransform="scale(.15534)" gradientUnits="userSpaceOnUse"/></defs><rect width="128" height="128" fill="#08110f" rx="28.583"/><rect width="128" height="128" fill="url(#b)" fill-opacity=".5" rx="28.583"/><path fill="url(#c)" d="M63.752 32.934a34.436 34.436 0 0 0-22.236 8.34c-9.06-1.565-19.78-1.576-23.12 5.925-3.745 8.411 5.438 18.094 18.747 26.512 1.884 8.139 7.43 15.329 15.625 18.977 8.195 3.648 17.253 2.959 24.556-1.084 15.162 4.256 28.501 4.601 32.246-3.811 3.34-7.5-3.841-15.461-11.066-21.148a34.411 34.411 0 0 0-20.469-30.711 34.537 34.537 0 0 0-14.283-3zm.842 6.996c3.638.075 7.246.875 10.607 2.37 1.288.574 2.539 1.492 2.399 2.393-.111.583-.436 1.266-2.893 1.274-5.22.24-7.697 1.937-8.826 4.47-1.128 2.535-.082 5.723 2.601 6.918 9.862 4.391 17.423 8.74 22.942 12.684 7.096 5.038 13.29 11.539 11.785 14.922-1.82 4.086-16.978 4.585-43.738-7.328C32.71 65.718 22.938 54.118 24.758 50.03h.002c1.505-3.382 10.477-3.128 18.969-1.226 5.431-5.72 12.366-8.612 19.304-8.864.52-.018 1.041-.022 1.56-.011zM42.447 54.313c-1.457-.026-2.777.562-3.492 1.707-1.205 1.927-.236 4.707 2.164 6.207 2.4 1.499 5.322 1.15 6.526-.778 1.204-1.928.235-4.705-2.165-6.205-.975-.61-2.036-.914-3.033-.931zm19.725 11.226c-1.751-.013-3.3.794-3.94 2.229-.93 2.088.422 4.718 3.02 5.875 2.597 1.156 5.457.4 6.387-1.688.93-2.088-.424-4.717-3.022-5.873a6.143 6.143 0 0 0-2.445-.543zm21.53 7.262c-2.046.014-3.808 1.084-4.298 2.79-.626 2.186 1.07 4.588 3.79 5.368 2.72.78 5.433-.36 6.06-2.545.627-2.185-1.07-4.588-3.79-5.367a6.254 6.254 0 0 0-1.763-.246z"/><path fill="url(#d)" d="M63.752 32.934a34.436 34.436 0 0 0-22.236 8.34c-9.06-1.565-19.78-1.576-23.12 5.925-3.745 8.411 5.438 18.094 18.747 26.512 1.884 8.139 7.43 15.329 15.625 18.977 8.195 3.648 17.253 2.959 24.556-1.084 15.162 4.256 28.501 4.601 32.246-3.811 3.34-7.5-3.841-15.461-11.066-21.148a34.411 34.411 0 0 0-20.469-30.711 34.537 34.537 0 0 0-14.283-3zm.842 6.996c3.638.075 7.246.875 10.607 2.37 1.288.574 2.539 1.492 2.399 2.393-.111.583-.436 1.266-2.893 1.274-5.22.24-7.697 1.937-8.826 4.47-1.128 2.535-.082 5.723 2.601 6.918 9.862 4.391 17.423 8.74 22.942 12.684 7.096 5.038 13.29 11.539 11.785 14.922-1.82 4.086-16.978 4.585-43.738-7.328C32.71 65.718 22.938 54.118 24.758 50.03h.002c1.505-3.382 10.477-3.128 18.969-1.226 5.431-5.72 12.366-8.612 19.304-8.864.52-.018 1.041-.022 1.56-.011zM42.447 54.313c-1.457-.026-2.777.562-3.492 1.707-1.205 1.927-.236 4.707 2.164 6.207 2.4 1.499 5.322 1.15 6.526-.778 1.204-1.928.235-4.705-2.165-6.205-.975-.61-2.036-.914-3.033-.931zm19.725 11.226c-1.751-.013-3.3.794-3.94 2.229-.93 2.088.422 4.718 3.02 5.875 2.597 1.156 5.457.4 6.387-1.688.93-2.088-.424-4.717-3.022-5.873a6.143 6.143 0 0 0-2.445-.543zm21.53 7.262c-2.046.014-3.808 1.084-4.298 2.79-.626 2.186 1.07 4.588 3.79 5.368 2.72.78 5.433-.36 6.06-2.545.627-2.185-1.07-4.588-3.79-5.367a6.254 6.254 0 0 0-1.763-.246z" style="mix-blend-mode:soft-light"/></svg>
