<svg xmlns="http://www.w3.org/2000/svg" viewBox="0 0 128 128"><g fill="#47848f"><path d="M49.07 32.66c-14.37-2.62-25.72.12-30.25 8-3.38 5.85-2.41 13.61 2.34 21.9a1.47 1.47 0 002.56-1.47c-4.28-7.47-5.12-14.17-2.35-19 3.76-6.51 13.89-9 27.17-6.54a1.47 1.47 0 10.53-2.9zM28.63 72.61a92.2 92.2 0 0022 17.34c20.84 12 43 15.25 54 7.79a1.47 1.47 0 00-1.66-2.43C93.11 102 72 98.92 52.07 87.39a89.27 89.27 0 01-21.26-16.77 1.47 1.47 0 00-2.18 2z"/><path d="M101.06 70.81c9.41-11.11 12.69-22.29 8.17-30.11-3.32-5.76-10.35-8.8-19.69-8.92a1.47 1.47 0 000 2.95c8.4.11 14.45 2.73 17.18 7.45 3.75 6.5.82 16.47-7.87 26.74a1.47 1.47 0 102.25 1.9zM76.89 33.15a92 92 0 00-26.25 10.4C29.13 56 15.09 74.29 17 87.57a1.47 1.47 0 003-.43C18.23 75.35 31.53 58 52.11 46.11A89.07 89.07 0 0177.51 36a1.47 1.47 0 10-.62-2.88z"/><path d="M42 96.78C47 110.51 55 119 64.05 119c6.6 0 12.7-4.5 17.46-12.42A1.47 1.47 0 1079 105c-4.28 7.12-9.53 11-14.94 11-7.52 0-14.69-7.54-19.24-20.24a1.47 1.47 0 00-2.77 1zm45-2.69a92.5 92.5 0 003.91-27.3c0-24.41-8.54-45.44-20.71-50.85a1.47 1.47 0 00-1.2 2.7c10.85 4.82 19 24.78 19 48.15a89.57 89.57 0 01-3.78 26.42 1.47 1.47 0 002.81.88zM114.71 92.65a7.05 7.05 0 10-7.05 7.05 7.05 7.05 0 007.05-7.05zm-2.95 0a4.1 4.1 0 11-4.1-4.1 4.1 4.1 0 014.1 4.1zM20.34 99.7a7.05 7.05 0 10-7.05-7.05 7.05 7.05 0 007.05 7.05zm0-2.95a4.1 4.1 0 114.1-4.1 4.1 4.1 0 01-4.1 4.1z"/><path d="M64.05 23.13A7.05 7.05 0 1057 16.08a7.05 7.05 0 007.05 7.05zm0-2.95a4.1 4.1 0 114.1-4.1 4.1 4.1 0 01-4.1 4.1zM65.13 71.77A5.1 5.1 0 1169 65.71a5.1 5.1 0 01-3.87 6.06z"/></g></svg>