<svg xmlns="http://www.w3.org/2000/svg" viewBox="0 0 128 128"><g fill="#47848f"><path d="M29 69.59h6.65a.35.35 0 100-.7h-6.26V64.8h5.55a.35.35 0 100-.7h-5.55v-4h6.2a.35.35 0 100-.7H29a.39.39 0 00-.38.38v9.43a.39.39 0 00.38.38zm11.62-.38a.39.39 0 00.38.38h6.07a.35.35 0 000-.7h-5.68v-9.17a.38.38 0 00-.76 0zm11.64.38h6.65a.35.35 0 100-.7h-6.27V64.8h5.55a.35.35 0 100-.7h-5.55v-4h6.2a.35.35 0 000-.7h-6.58a.39.39 0 00-.38.38v9.43a.39.39 0 00.38.38zm16.24.17a5.28 5.28 0 003.86-1.59.37.37 0 00.12-.26.38.38 0 00-.36-.36.37.37 0 00-.26.12 4.49 4.49 0 01-3.32 1.41 4.39 4.39 0 01-4.31-4.59 4.36 4.36 0 014.29-4.56 4.55 4.55 0 013.25 1.32.39.39 0 00.26.1.4.4 0 00.39-.38.44.44 0 00-.15-.31 5.32 5.32 0 00-3.74-1.43 5.12 5.12 0 00-5.09 5.27 5.06 5.06 0 005.07 5.24zm11.2-.49a.38.38 0 00.76 0V60.1h3.26a.35.35 0 100-.7h-7.28a.35.35 0 100 .7h3.26zm8.85 0a.38.38 0 00.76 0v-3.9h3.33l3.13 4.08a.42.42 0 00.33.2.41.41 0 00.39-.39.42.42 0 00-.12-.26l-2.9-3.76c1.72-.23 3-1.21 3-2.91a2.69 2.69 0 00-.77-1.89 4 4 0 00-2.87-1h-3.9a.39.39 0 00-.38.38zm.76-4.59V60.1h3.48c1.85 0 2.93.86 2.93 2.23 0 1.47-1.27 2.33-3 2.33zM106 69.76a5.13 5.13 0 005.14-5.27 5.13 5.13 0 10-10.25 0 5.08 5.08 0 005.11 5.27zm0-.68a4.41 4.41 0 01-4.35-4.59 4.36 4.36 0 014.35-4.58 4.41 4.41 0 014.35 4.59 4.36 4.36 0 01-4.35 4.58zm9.93.2a.36.36 0 00.73 0V60.5l7 8.88a.52.52 0 00.38.25h.06a.31.31 0 00.31-.32V59.7a.36.36 0 00-.73 0v8.59l-6.87-8.72a.47.47 0 00-.38-.22h-.12a.39.39 0 00-.38.38zM9.58 58.75c-2.41-.44-4.31 0-5.07 1.33a3.67 3.67 0 00.39 3.67.25.25 0 00.43-.25 3.21 3.21 0 01-.39-3.18c.63-1.09 2.33-1.5 4.55-1.09a.25.25 0 00.09-.49zm-3.43 6.69a15.44 15.44 0 003.68 2.9c3.49 2 7.21 2.55 9 1.31a.25.25 0 00-.28-.41c-1.64 1.12-5.17.61-8.51-1.32a15 15 0 01-3.56-2.81.25.25 0 00-.36.33z"/><path d="M18.29 65.14c1.58-1.86 2.13-3.73 1.37-5a3.63 3.63 0 00-3.3-1.49.25.25 0 000 .49 3.17 3.17 0 012.88 1.25c.63 1.09.14 2.76-1.32 4.48a.25.25 0 10.38.32zm-4-6.31a15.41 15.41 0 00-4.4 1.74c-3.6 2.08-6 5.15-5.63 7.37a.25.25 0 00.49-.07C4.41 65.9 6.64 63 10.09 61a14.92 14.92 0 014.25-1.69.25.25 0 10-.1-.48z"/><path d="M8.4 69.49c.82 2.3 2.17 3.72 3.69 3.72A3.61 3.61 0 0015 71.13a.25.25 0 10-.42-.25 3.15 3.15 0 01-2.5 1.84c-1.26 0-2.46-1.26-3.22-3.39a.25.25 0 00-.46.17zm7.52-.49a15.49 15.49 0 00.66-4.57c0-4.09-1.43-7.61-3.47-8.52a.25.25 0 00-.2.45c1.82.81 3.18 4.15 3.18 8.06a15 15 0 01-.63 4.43.25.25 0 00.47.15zM20.57 68.8a1.18 1.18 0 10-1.18 1.2 1.18 1.18 0 001.18-1.18zm-.49 0a.69.69 0 11-.69-.69.69.69 0 01.69.69zM4.77 70a1.18 1.18 0 10-1.18-1.2A1.18 1.18 0 004.77 70zm0-.49a.69.69 0 11.69-.69.69.69 0 01-.69.69z"/><path d="M12.09 57.16A1.18 1.18 0 1010.91 56a1.18 1.18 0 001.18 1.18zm0-.49a.69.69 0 11.69-.69.69.69 0 01-.69.69zM12.27 65.3a.85.85 0 11.65-1 .85.85 0 01-.65 1z"/></g></svg>