<?xml version="1.0" encoding="UTF-8"?>
<svg version="1.1" xmlns="http://www.w3.org/2000/svg" width="820" height="279">
<path d="M0 0 C0.81235107 0.6801416 0.81235107 0.6801416 1.64111328 1.37402344 C13.94315436 11.77321716 24.22982253 23.87092991 32 38 C32.34015137 38.61601074 32.68030273 39.23202148 33.03076172 39.86669922 C43.29488462 58.68662397 48.06278892 78.6145472 49 100 C49.07927734 101.40958984 49.07927734 101.40958984 49.16015625 102.84765625 C49.33095165 107.88983337 49.05934538 110.7934001 46 115 C46 121.0409701 52.20697583 126.19473676 56.2890625 130.3046875 C57.41441406 131.39136719 57.41441406 131.39136719 58.5625 132.5 C70.00856541 143.72785619 70.00856541 143.72785619 70.6875 151 C70.790625 151.99 70.89375 152.98 71 154 C72.31243838 154.70691423 73.64969886 155.36840753 75 156 C76.66796875 157.55078125 76.66796875 157.55078125 78.1875 159.3125 C78.69667969 159.88613281 79.20585937 160.45976562 79.73046875 161.05078125 C81.2258042 163.34669629 81.61534686 165.307428 82 168 C65.69831685 181.57506711 65.69831685 181.57506711 59 181 C55.7890625 179.6875 55.7890625 179.6875 52.625 178 C51.56539063 177.443125 50.50578125 176.88625 49.4140625 176.3125 C48.61742187 175.879375 47.82078125 175.44625 47 175 C47 173.68 47 172.36 47 171 C46.01 171.33 45.02 171.66 44 172 C38.05749925 172.47540006 33.46656695 171.08250169 28 169 C28 170.32 28 171.64 28 173 C12.46419021 202.21169869 -18.49976645 221.13777336 -49 231 C-74.8613814 238.74989805 -107.54959586 237.69369365 -132.37109375 226.4765625 C-135.09047287 224.94918463 -136.37018811 223.62580805 -138 221 C-138.50789063 221.23203125 -139.01578125 221.4640625 -139.5390625 221.703125 C-143.31232075 222.15831171 -146.10576728 220.43377189 -149.375 218.75 C-150.08108398 218.38938477 -150.78716797 218.02876953 -151.51464844 217.65722656 C-181.90773455 201.5283385 -202.13561195 170.64148349 -212.09277344 138.48608398 C-212.3096582 137.76880127 -212.52654297 137.05151855 -212.75 136.3125 C-213.04825684 135.33422241 -213.04825684 135.33422241 -213.35253906 134.33618164 C-216.48836121 123.46972419 -217.38948185 112.71596829 -217.375 101.4375 C-217.37338867 100.12716797 -217.37177734 98.81683594 -217.37011719 97.46679688 C-217.21173715 84.83987061 -216.74146427 71.48450278 -209 61 C-208.34 60.01 -207.68 59.02 -207 58 C-207.32843896 56.66545261 -207.66212682 55.33219015 -208 54 C-207.41430664 51.97631836 -207.41430664 51.97631836 -206.41015625 49.83984375 C-206.04229004 49.05174316 -205.67442383 48.26364258 -205.29541016 47.45166016 C-204.8885498 46.6219873 -204.48168945 45.79231445 -204.0625 44.9375 C-203.64790527 44.0820459 -203.23331055 43.2265918 -202.80615234 42.34521484 C-199.49500736 35.67614658 -195.75632903 29.74365364 -191 24 C-190.57428711 23.47712402 -190.14857422 22.95424805 -189.70996094 22.41552734 C-166.19166316 -6.42656421 -134.49815112 -26.07040928 -97.05078125 -30.3359375 C-61.97914216 -33.65898653 -26.85253638 -22.85484878 0 0 Z M-88 40 C-88.99 41.485 -88.99 41.485 -90 43 C-89.01 43 -88.02 43 -87 43 C-87.33 42.01 -87.66 41.02 -88 40 Z M-70 46 C-69 48 -69 48 -69 48 Z M-13 74 C-13.66 74.66 -14.32 75.32 -15 76 C-17.89031484 76.21781495 -20.68760816 76.31144084 -23.58056641 76.31884766 C-24.91236687 76.33391609 -24.91236687 76.33391609 -26.27107239 76.34928894 C-29.21456232 76.38025367 -32.15796077 76.39719286 -35.1015625 76.4140625 C-37.13895462 76.43276347 -39.1763389 76.45233606 -41.2137146 76.4727478 C-46.58292027 76.5241882 -51.95215108 76.56375006 -57.32147217 76.60089111 C-62.797712 76.64085628 -68.27384616 76.69198268 -73.75 76.7421875 C-84.4999259 76.83908771 -95.2499113 76.92344722 -106 77 C-105.37472412 77.29390625 -104.74944824 77.5878125 -104.10522461 77.890625 C-101.50281711 79.26199688 -100.48426172 80.46310163 -99 83 C-98.33984375 85.875 -98.33984375 85.875 -97.9375 89 C-97.44820873 92.72793349 -97.02270879 95.78831543 -95 99 C-87.98726889 103.98273 -80.33783346 103.62417301 -72 103 C-68.68179406 102.30432786 -66.38160069 101.45054176 -64 99 C-61.79476168 94.53516889 -61.12254873 89.96507129 -60.5 85.0625 C-60 82 -60 82 -58.84765625 80.328125 C-56.19599869 78.42207094 -54.16678851 78.63649058 -50.9375 78.6875 C-49.87402344 78.69136719 -48.81054688 78.69523437 -47.71484375 78.69921875 C-45 79 -45 79 -43 81 C-42.6889626 83.03326302 -42.44949693 85.07778146 -42.25 87.125 C-41.38842932 93.34209401 -39.70802093 97.73522786 -35 102 C-28.35136965 104.21621012 -18.93737201 104.02495766 -12.25 101.8125 C-8.54583669 99.74671661 -7.47977007 98.94605353 -6 95 C-5.50009639 92.14517854 -5.06154963 89.30442734 -4.72265625 86.42578125 C-4 84 -4 84 -2.12109375 82.91796875 C-1.42113281 82.61503906 -0.72117187 82.31210938 0 82 C1.73425773 79.96682993 1.73425773 79.96682993 3 78 C2.09636719 77.79503906 1.19273437 77.59007813 0.26171875 77.37890625 C-0.91777344 77.10949219 -2.09726563 76.84007813 -3.3125 76.5625 C-4.48425781 76.29566406 -5.65601563 76.02882813 -6.86328125 75.75390625 C-10 75 -10 75 -13 74 Z M-66 143 C-66 143.33 -66 143.66 -66 144 C-63.69 144 -61.38 144 -59 144 C-59 143.67 -59 143.34 -59 143 C-61.31 143 -63.62 143 -66 143 Z M-58 144 C-58 144.33 -58 144.66 -58 145 C-56.02 145 -54.04 145 -52 145 C-52 144.67 -52 144.34 -52 144 C-53.98 144 -55.96 144 -58 144 Z M-47 146 C-43 147 -43 147 -43 147 Z M-42 147 C-38 148 -38 148 -38 148 Z M-101 149 C-101.33 149.66 -101.66 150.32 -102 151 C-101.01 150.67 -100.02 150.34 -99 150 C-99.66 149.67 -100.32 149.34 -101 149 Z M-104 151 C-105.30098717 152.21929728 -106.59042437 153.45092452 -107.875 154.6875 C-108.95394531 155.71423828 -108.95394531 155.71423828 -110.0546875 156.76171875 C-112.08335887 159.09591291 -113.02992733 161.08467634 -114 164 C-113.319375 163.319375 -112.63875 162.63875 -111.9375 161.9375 C-108.625 158.625 -105.3125 155.3125 -102 152 C-102.66 151.67 -103.32 151.34 -104 151 Z M7 161 C9.76223278 163.76223278 12.20706617 163.57856291 16 164 C12.81237635 161.87491756 10.73487777 161.4979837 7 161 Z M-115 164 C-115 167 -115 167 -115 167 Z M-117 167 C-117 170 -117 170 -117 170 Z M-119 170 C-118 172 -118 172 -118 172 Z M-120 172 C-119 174 -119 174 -119 174 Z M-121 174 C-120 176 -120 176 -120 176 Z M-122 176 C-121 178 -121 178 -121 178 Z M-123 178 C-122 180 -122 180 -122 180 Z M-124 180 C-123 182 -123 182 -123 182 Z M-125 182 C-124 184 -124 184 -124 184 Z M-126 184 C-125 186 -125 186 -125 186 Z M-127 187 C-126 189 -126 189 -126 189 Z M-129 192 C-128 194 -128 194 -128 194 Z M-130 195 C-129 197 -129 197 -129 197 Z M-131 197 C-130 200 -130 200 -130 200 Z M-132 201 C-131 203 -131 203 -131 203 Z M-133 203 C-132 206 -132 206 -132 206 Z M-134 206 C-133 209 -133 209 -133 209 Z M-135 210 C-134 212 -134 212 -134 212 Z " fill="#7766F6" transform="translate(223,37)"/>
<path d="M0 0 C5.42124604 4.98801471 7.2217154 12.09884256 9 19 C9.5878125 20.6396875 9.5878125 20.6396875 10.1875 22.3125 C11.00821578 25.02717529 11.16573548 27.1824969 11 30 C12.32 30 13.64 30 15 30 C13.68 24.72 12.36 19.44 11 14 C55.81361834 13.45163485 94.92102497 22.95763517 134 46 C134 46.33 134 46.66 134 47 C102.98 47 71.96 47 40 47 C41.53462372 51.22559817 41.53462372 51.22559817 45 52.0625 C48 54 48 54 48.73046875 56.421875 C49.03831606 58.36894347 49.32304579 60.31979128 49.5859375 62.2734375 C50.32011175 67.10790565 51.96125415 70.06259521 55.5625 73.3125 C59.93853643 76.34206368 63.55756986 76.21713652 68.75 76.25 C69.54921875 76.270625 70.3484375 76.29125 71.171875 76.3125 C77.00762496 76.35089309 80.98291456 75.26281408 85.75 71.6875 C88.97658593 67.331609 89.27845981 62.28296042 89.55859375 57.05078125 C90.12338546 54.42674897 90.79767426 53.52912573 93 52 C95.48046875 51.70703125 95.48046875 51.70703125 98.1875 51.8125 C99.08855469 51.83957031 99.98960937 51.86664063 100.91796875 51.89453125 C101.94857422 51.94673828 101.94857422 51.94673828 103 52 C104.7719349 55.1081481 105.32586031 57.71550259 105.75 61.25 C106.70638823 67.00375497 108.9234825 70.85701754 113 75 C116.59039087 76.79519543 120.73327672 76.27028409 124.6875 76.3125 C125.57373047 76.34150391 126.45996094 76.37050781 127.37304688 76.40039062 C133.46421457 76.4590029 137.05356644 75.62521512 142 72 C145.07013509 66.70666364 145.97573818 60.98891912 147 55 C156.69335441 58.66775572 164.10118839 65.52759844 171.86035156 72.16894531 C173.88525232 73.90180196 175.92104121 75.62078036 177.9609375 77.3359375 C186.12388161 84.22472325 193.54700901 90.99353235 199.9765625 99.546875 C202.33649542 102.40795198 204.95207271 104.93889017 207.625 107.5 C211.95274528 111.75025122 216.17025952 116.07680164 218 122 C217.82026222 124.78064918 217.30847445 125.71826001 215.2421875 127.60546875 C212.51092768 129.43081566 209.76720501 131.22939977 207 133 C206.401875 133.40041504 205.80375 133.80083008 205.1875 134.21337891 C203.26453494 135.4994603 201.32303786 136.7522898 199.375 138 C198.76640137 138.41016357 198.15780273 138.82032715 197.53076172 139.24291992 C193.71461419 141.61687701 190.93208286 142.54188961 186.33935547 141.65820312 C181.06858012 140.17521311 175.9804777 138.21714397 170.875 136.25 C156.20500161 130.68206879 141.68502988 125.39876572 126.5 121.4375 C125.75910126 121.24334503 125.01820251 121.04919006 124.25485229 120.84915161 C85.93498442 110.50716544 85.93498442 110.50716544 48.3671875 119.515625 C25.35812784 133.94374822 16.09969518 167.19457292 10 192 C-15.96526147 184.64317592 -34.83210622 162.54882981 -48.1875 140.1875 C-63.55931486 112.48717908 -71.58089269 78.33295944 -63.91015625 47.0078125 C-61.58503632 39.32393977 -60.17004061 35.18184701 -53 31 C-49.92373157 29.53665727 -46.79304923 28.25057771 -43.625 27 C-42.75101563 26.65404785 -41.87703125 26.3080957 -40.9765625 25.95166016 C-20.69382389 18.12084265 -20.69382389 18.12084265 -14.8828125 19.50390625 C-12.02554796 21.77430525 -10.00135058 24.6316696 -7.875 27.5625 C-4.99345776 31.89104094 -4.99345776 31.89104094 -1 35 C-3.55625329 29.37624276 -6.52420388 24.77909347 -10.4140625 19.98046875 C-13.50468973 16.12099091 -14.33518142 13.91129184 -14.4375 9 C-14.49744141 7.4221875 -14.49744141 7.4221875 -14.55859375 5.8125 C-14 3 -14 3 -11.75 1.171875 C-7.66003186 -0.57100915 -4.33433599 -1.29953636 0 0 Z " fill="#FBFBFB" transform="translate(74,65)"/>
<path d="M0 0 C1.46131348 0.34611328 1.46131348 0.34611328 2.95214844 0.69921875 C18.22158473 4.40744035 33.10789137 9.20899819 47.97192383 14.26782227 C48.65308258 14.49963196 49.33424133 14.73144165 50.03604126 14.97027588 C51.88782261 15.60224822 53.73827231 16.23811874 55.58862305 16.87426758 C59.04015572 18.01325113 62.49921593 19.02540538 66 20 C62.32703701 26.88680561 58.70125342 32.81159951 52.96484375 38.140625 C51.00589933 39.99441733 49.29517342 41.9351975 47.5625 44 C29.94929915 64.36277293 0.66089626 79.06882732 -26 82 C-28.89631525 82.14839615 -31.78770003 82.18711784 -34.6875 82.203125 C-35.50766602 82.20882507 -36.32783203 82.21452515 -37.17285156 82.22039795 C-38.9041212 82.22980167 -40.63540837 82.23636341 -42.36669922 82.24023438 C-44.96485282 82.24986966 -47.56219009 82.28090778 -50.16015625 82.3125 C-64.90535875 82.40618686 -84.12633944 81.78812299 -96 72 C-92.91568368 57.27202065 -87.92272495 43.35093465 -81.5 29.75 C-81.06179932 28.81075684 -80.62359863 27.87151367 -80.17211914 26.90380859 C-74.41196525 15.0574344 -65.67550118 2.86777802 -53 -2 C-52.16726562 -2.35578125 -51.33453125 -2.7115625 -50.4765625 -3.078125 C-34.51787108 -7.30986789 -15.75801641 -3.74597985 0 0 Z " fill="#7766F7" transform="translate(184,187)"/>
<path d="M0 0 C8.25 0 16.5 0 25 0 C25 53.79 25 107.58 25 163 C17.08 163 9.16 163 1 163 C1 157.39 1 151.78 1 146 C-0.36125 146.763125 -1.7225 147.52625 -3.125 148.3125 C-16.12947654 154.76888328 -31.16405084 155.99021713 -45.09375 152.03125 C-57.74254077 147.5429694 -69.01045768 138.52474153 -76 127 C-82.81045765 112.14081968 -84.93232586 95.50998288 -79.2578125 79.85546875 C-72.08925753 63.58151321 -60.46695518 53.45097213 -44 47 C-29.16122612 42.77094944 -13.35642263 46.32178869 0 53 C0 35.51 0 18.02 0 0 Z M-50.75 79.5 C-56.24120737 86.26034225 -58.79911858 94.95586283 -58.3828125 103.62890625 C-57.70066219 107.85406176 -56.12183296 111.31014584 -54 115 C-53.41605469 116.05380859 -53.41605469 116.05380859 -52.8203125 117.12890625 C-48.39517631 124.02845291 -41.50613149 127.35011308 -33.796875 129.66015625 C-26.10027323 131.02114071 -18.23871945 128.91242589 -11.8828125 124.55078125 C-4.91991012 118.81577659 0.3459743 111.71180476 1.23828125 102.5546875 C1.47744179 93.91973332 -0.36057629 85.99122142 -6.3828125 79.4453125 C-13.47229056 73.10930553 -19.25235902 69.68484284 -28.89453125 69.84765625 C-37.18569461 70.44757345 -44.92226544 73.51072908 -50.75 79.5 Z " fill="#7766F9" transform="translate(669,41)"/>
<path d="M0 0 C7.59 0 15.18 0 23 0 C23 53.79 23 107.58 23 163 C15.08 163 7.16 163 -1 163 C-1 145.51 -1 128.02 -1 110 C-4.96 111.98 -8.92 113.96 -13 116 C-26.57372981 120.97703426 -42.33477396 118.2331188 -55.125 112.375 C-68.37249485 105.36978021 -77.52579103 93.89258652 -82.75390625 79.99609375 C-86.54226345 66.45867747 -84.64831483 50.56853665 -78.59765625 38.11328125 C-72.30462648 27.32742826 -62.88771606 17.30906083 -51 13 C-50.22011719 12.68546875 -49.44023437 12.3709375 -48.63671875 12.046875 C-34.69699857 7.27745285 -19.13396495 8.81623666 -6 15 C-4.02 15.99 -2.04 16.98 0 18 C0 12.06 0 6.12 0 0 Z M-52.27734375 42.87109375 C-57.69638166 49.56809071 -60.44698515 58.183309 -60.26953125 66.765625 C-59.22759177 75.40315226 -54.47146179 82.40097077 -48 88 C-40.76189147 92.55370492 -33.49620188 95.40137445 -24.86328125 93.5390625 C-16.41698929 91.03318181 -8.91961039 86.37941559 -4 79 C0.00219166 71.02802309 0.37891991 61.67300635 -2.125 53.1875 C-6.8805782 45.10301705 -12.69506834 37.46846414 -21.98828125 34.328125 C-33.2210449 32.49598491 -43.91276279 34.91873033 -52.27734375 42.87109375 Z " fill="#7766F9" transform="translate(420,77)"/>
<path d="M0 0 C5.79394165 4.34762139 9.75604438 8.85289537 13.30078125 15.1484375 C13.67847656 15.76074219 14.05617188 16.37304688 14.4453125 17.00390625 C20.98637349 28.4936351 21.95168579 43.36158701 19.23828125 56.0859375 C14.96161659 71.24500706 7.43642963 82.38846049 -6.21875 90.38671875 C-13.91108915 94.2803719 -22.10148925 96.60254991 -30.69921875 97.1484375 C-31.58867188 97.21160156 -32.478125 97.27476562 -33.39453125 97.33984375 C-47.76899187 97.9215778 -61.34108768 92.24285214 -71.94921875 82.5859375 C-82.73978622 70.98438792 -88.14837006 55.66742407 -87.91015625 39.9453125 C-86.67645268 23.58731706 -79.36483628 11.14511752 -67.69921875 0.1484375 C-48.05186772 -16.2959 -20.07736085 -13.7723141 0 0 Z M-57.4921875 25.4296875 C-62.9796541 33.45885479 -63.55627372 40.59564506 -62.69921875 50.1484375 C-61.52822426 53.88007139 -59.89345886 56.92375313 -57.69921875 60.1484375 C-57.12300781 61.02242187 -57.12300781 61.02242187 -56.53515625 61.9140625 C-51.94569806 68.09578169 -45.1289852 71.66248421 -37.69921875 73.1484375 C-28.45895003 74.00401794 -21.29064251 70.49124665 -14 65.10546875 C-7.85205494 59.87606217 -4.30911208 54.16974803 -3.484375 46.02734375 C-3.13022367 37.85353095 -5.54585361 30.52233649 -10.69921875 24.1484375 C-17.27404406 17.36571257 -23.01329846 13.20315337 -32.57421875 12.7109375 C-42.20006424 13.05049953 -51.54345476 17.8609295 -57.4921875 25.4296875 Z " fill="#7766FA" transform="translate(548.69921875,97.8515625)"/>
<path d="M0 0 C9.80252637 7.88752606 16.41288368 20.89355396 18.328125 33.23046875 C19.73377467 50.63889928 15.04368182 65.933895 4.640625 80 C-5.54084291 91.74636146 -21.20200526 95.35396425 -36.03515625 96.59375 C-49.56953017 97.11263973 -61.51934457 91.80192037 -71.66796875 83.125 C-82.24820765 73.03101614 -88.68111369 60.11210112 -89.41796875 45.375 C-89.46824219 44.55 -89.51851562 43.725 -89.5703125 42.875 C-90.07299669 28.7194131 -85.26614895 16.7009613 -76.04296875 6.0625 C-55.12351993 -16.04834121 -24.73960049 -16.62629047 0 0 Z M-58.2109375 22.41796875 C-63.19305588 29.36833142 -66.49713776 37.74164792 -65.41796875 46.375 C-62.51658948 56.32492777 -57.51804921 63.75783356 -48.6328125 69.18359375 C-41.93167386 72.78826268 -35.7400863 72.94975679 -28.41796875 71.375 C-23.35303546 69.41003288 -18.56887972 66.9113114 -14.41796875 63.375 C-14.41796875 62.715 -14.41796875 62.055 -14.41796875 61.375 C-13.75796875 61.375 -13.09796875 61.375 -12.41796875 61.375 C-11.08627633 59.68993318 -11.08627633 59.68993318 -9.85546875 57.5625 C-9.42105469 56.85480469 -8.98664063 56.14710938 -8.5390625 55.41796875 C-5.25100711 49.42614655 -5.51969295 42.02025581 -6.41796875 35.375 C-9.41216027 25.7295048 -15.04975167 20.12026773 -23.10546875 14.5 C-34.76265718 8.82893536 -49.90938919 12.95890608 -58.2109375 22.41796875 Z " fill="#7766FA" transform="translate(801.41796875,98.625)"/>
<path d="M0 0 C0.81235107 0.6801416 0.81235107 0.6801416 1.64111328 1.37402344 C13.94315436 11.77321716 24.22982253 23.87092991 32 38 C32.34015137 38.61601074 32.68030273 39.23202148 33.03076172 39.86669922 C43.29488462 58.68662397 48.06278892 78.6145472 49 100 C49.07927734 101.40958984 49.07927734 101.40958984 49.16015625 102.84765625 C49.33095165 107.88983337 49.05934538 110.7934001 46 115 C46 121.0409701 52.20697583 126.19473676 56.2890625 130.3046875 C57.41441406 131.39136719 57.41441406 131.39136719 58.5625 132.5 C70.00856541 143.72785619 70.00856541 143.72785619 70.6875 151 C70.790625 151.99 70.89375 152.98 71 154 C72.31243838 154.70691423 73.64969886 155.36840753 75 156 C76.66796875 157.55078125 76.66796875 157.55078125 78.1875 159.3125 C78.69667969 159.88613281 79.20585937 160.45976562 79.73046875 161.05078125 C81.2258042 163.34669629 81.61534686 165.307428 82 168 C65.69831685 181.57506711 65.69831685 181.57506711 59 181 C55.7890625 179.6875 55.7890625 179.6875 52.625 178 C51.56539063 177.443125 50.50578125 176.88625 49.4140625 176.3125 C48.61742187 175.879375 47.82078125 175.44625 47 175 C47 173.68 47 172.36 47 171 C46.01 171.33 45.02 171.66 44 172 C38.05749925 172.47540006 33.46656695 171.08250169 28 169 C28 170.32 28 171.64 28 173 C12.46419021 202.21169869 -18.49976645 221.13777336 -49 231 C-74.8613814 238.74989805 -107.54959586 237.69369365 -132.37109375 226.4765625 C-135.09047287 224.94918463 -136.37018811 223.62580805 -138 221 C-138.50789063 221.23203125 -139.01578125 221.4640625 -139.5390625 221.703125 C-143.31232075 222.15831171 -146.10576728 220.43377189 -149.375 218.75 C-150.08108398 218.38938477 -150.78716797 218.02876953 -151.51464844 217.65722656 C-181.90773455 201.5283385 -202.13561195 170.64148349 -212.09277344 138.48608398 C-212.3096582 137.76880127 -212.52654297 137.05151855 -212.75 136.3125 C-213.04825684 135.33422241 -213.04825684 135.33422241 -213.35253906 134.33618164 C-216.48836121 123.46972419 -217.38948185 112.71596829 -217.375 101.4375 C-217.37338867 100.12716797 -217.37177734 98.81683594 -217.37011719 97.46679688 C-217.21173715 84.83987061 -216.74146427 71.48450278 -209 61 C-208.34 60.01 -207.68 59.02 -207 58 C-207.32843896 56.66545261 -207.66212682 55.33219015 -208 54 C-207.41430664 51.97631836 -207.41430664 51.97631836 -206.41015625 49.83984375 C-206.04229004 49.05174316 -205.67442383 48.26364258 -205.29541016 47.45166016 C-204.8885498 46.6219873 -204.48168945 45.79231445 -204.0625 44.9375 C-203.64790527 44.0820459 -203.23331055 43.2265918 -202.80615234 42.34521484 C-199.49500736 35.67614658 -195.75632903 29.74365364 -191 24 C-190.57428711 23.47712402 -190.14857422 22.95424805 -189.70996094 22.41552734 C-166.19166316 -6.42656421 -134.49815112 -26.07040928 -97.05078125 -30.3359375 C-61.97914216 -33.65898653 -26.85253638 -22.85484878 0 0 Z M-176 10 C-176.66386719 10.59941406 -177.32773438 11.19882812 -178.01171875 11.81640625 C-190.24860421 23.30865365 -201.52902902 39.79273019 -206 56 C-203.52505585 56.9099575 -202.37885502 57.14800253 -199.88330078 56.1730957 C-199.12001465 55.74085693 -198.35672852 55.30861816 -197.5703125 54.86328125 C-191.54548119 51.66500962 -185.3041637 49.43396941 -178.875 47.1875 C-177.72773438 46.78080078 -176.58046875 46.37410156 -175.3984375 45.95507812 C-172.60093223 44.96429501 -169.80150425 43.97940589 -167 43 C-166.93413696 41.75609497 -166.93413696 41.75609497 -166.86694336 40.48706055 C-166.76071655 38.85957886 -166.76071655 38.85957886 -166.65234375 37.19921875 C-166.58781006 36.12244873 -166.52327637 35.04567871 -166.45678711 33.9362793 C-165.99887282 30.99275435 -165.64090431 29.86208498 -163.5625 27.8125 C-159.01787329 24.59800794 -155.4785637 24.37070552 -150 25 C-146.75 26.4375 -146.75 26.4375 -144 29 C-143.41956435 30.53020833 -142.84591339 32.06299941 -142.27734375 33.59765625 C-141.06511865 36.10216577 -141.06511865 36.10216577 -139 38 C-133.95935946 39.29789651 -128.97301075 39.12509607 -123.8125 39 C-122.42644263 38.99449013 -121.04036207 38.99315128 -119.65429688 38.99609375 C-116.97921523 39.00085475 -114.30607454 38.98998724 -111.63085938 38.96899414 C-107.70512201 39.00251812 -103.8904776 39.31140589 -99.99584961 39.77294922 C-97.61355186 40.04396291 -95.27129093 40.10114985 -92.875 40.0625 C-91.59625 40.041875 -90.3175 40.02125 -89 40 C-88.87044922 38.91332031 -88.87044922 38.91332031 -88.73828125 37.8046875 C-87.44232462 28.88755471 -87.44232462 28.88755471 -85.125 25.3125 C-80.9807295 22.24573983 -77.98056266 22.39960658 -72.9375 22.49609375 C-69.54484464 23.07807851 -67.61837925 23.74752856 -65 26 C-63.63743114 32.96529955 -64.89719138 40.29729754 -67 47 C-61.45091986 49.34595258 -55.89799228 51.66295496 -50.27734375 53.83203125 C-42.36433865 56.90026094 -34.585383 59.9958094 -27.125 64.0625 C-26.5254248 64.38903564 -25.92584961 64.71557129 -25.30810547 65.05200195 C-22.92741094 66.36063652 -20.55531668 67.68256878 -18.19677734 69.03076172 C-10.04512299 73.65963477 -3.52788771 76.09937166 6 75 C5.649375 75.5775 5.29875 76.155 4.9375 76.75 C3.80755758 79.46186181 3.9529583 80.29720888 5 83 C6.64120902 84.63116287 6.64120902 84.63116287 8.76171875 86.03125 C9.54474365 86.58893066 10.32776855 87.14661133 11.13452148 87.72119141 C11.97700439 88.30819824 12.8194873 88.89520508 13.6875 89.5 C19.97152693 93.99578324 26.09649719 98.56316898 31.9375 103.625 C32.77704224 104.35106445 32.77704224 104.35106445 33.63354492 105.09179688 C35.9338272 107.10618642 38.09718845 109.10949304 40.12890625 111.3984375 C40.74636719 111.92695313 41.36382812 112.45546875 42 113 C44.09850124 112.64797979 44.09850124 112.64797979 46 112 C46.98135243 74.36639248 37.27851382 41.12730374 11.16772461 13.26147461 C-13.49033806 -12.42992751 -45.68840969 -27.35954111 -81.36425781 -28.45532227 C-117.71253856 -28.94398928 -149.79887569 -14.68351234 -176 10 Z M-88 40 C-88.99 41.485 -88.99 41.485 -90 43 C-89.01 43 -88.02 43 -87 43 C-87.33 42.01 -87.66 41.02 -88 40 Z M-163 31 C-164.23881193 35.07487376 -163.87443472 38.86496125 -163 43 C-160.7544872 47.04192304 -157.92874497 50.43846692 -155 54 C-153.14490427 56.9054457 -151.54179639 59.91640722 -150 63 C-153.53191322 59.56846086 -156.7137505 56.02624938 -159.8125 52.1875 C-160.60269531 51.21167969 -161.39289063 50.23585938 -162.20703125 49.23046875 C-162.79871094 48.49441406 -163.39039063 47.75835937 -164 47 C-175.6953893 49.04804052 -186.7334253 52.24111277 -197.625 56.9375 C-198.39521484 57.26121582 -199.16542969 57.58493164 -199.95898438 57.91845703 C-204.43477825 59.91551741 -207.41678747 61.65920219 -210 66 C-211.29774205 69.57862364 -211.29774205 69.57862364 -212.1875 73.4375 C-212.51105469 74.71496094 -212.83460938 75.99242187 -213.16796875 77.30859375 C-220.09771952 108.05326268 -212.44097734 142.05401506 -196.87109375 169.05859375 C-190.69696767 178.76447463 -183.96045716 187.670609 -176 196 C-175.32839844 196.74636719 -174.65679687 197.49273437 -173.96484375 198.26171875 C-165.082079 207.77540885 -153.27612677 215.60741227 -141 220 C-140.34 220 -139.68 220 -139 220 C-138.82984375 219.37246826 -138.6596875 218.74493652 -138.484375 218.09838867 C-122.73696296 160.62138178 -122.73696296 160.62138178 -100 147 C-72.35145656 134.20590238 -41.70853121 143.787362 -14 152 C-13.28199219 152.21124512 -12.56398437 152.42249023 -11.82421875 152.64013672 C-3.8253101 155.01266197 4.06300164 157.68262367 11.9375 160.4375 C12.77571289 160.73068115 13.61392578 161.0238623 14.47753906 161.32592773 C18.61469252 162.78160765 22.73620544 164.26863824 26.83984375 165.81640625 C27.60498291 166.10008057 28.37012207 166.38375488 29.15844727 166.67602539 C30.59181056 167.20885952 32.02107941 167.75289982 33.44506836 168.31030273 C37.72688191 169.89062962 40.61622821 170.32395792 45 169 C48.11331972 167.45517882 48.11331972 167.45517882 51.1875 165.4375 C51.74268311 165.086875 52.29786621 164.73625 52.86987305 164.375 C58.4204547 160.8246493 63.738449 156.96461559 69 153 C67.53437923 143.73920944 60.92973604 137.71552998 54.46459961 131.4519043 C50.81118201 127.89165424 47.68361139 124.16607677 44.625 120.078125 C39.23982131 113.19130994 32.46184868 107.77163614 25.66455078 102.34814453 C23.78620873 100.82684726 21.93792459 99.27274858 20.08984375 97.71484375 C9.84436739 89.11954247 9.84436739 89.11954247 -2 83 C-2.15855469 83.95261719 -2.31710938 84.90523437 -2.48046875 85.88671875 C-2.71378906 87.14097656 -2.94710937 88.39523438 -3.1875 89.6875 C-3.51814453 91.54955078 -3.51814453 91.54955078 -3.85546875 93.44921875 C-5.35638666 98.10565007 -7.68421476 100.62564227 -11.87792969 103.11450195 C-15.74594307 104.72854758 -19.80107844 104.36906113 -23.9375 104.375 C-24.83146484 104.39949219 -25.72542969 104.42398438 -26.64648438 104.44921875 C-30.77930345 104.46762774 -33.31584674 104.39795369 -36.94140625 102.2890625 C-41.06337909 97.70561642 -42.47364837 93.7977591 -43.625 87.75 C-44.105127 83.55195684 -44.105127 83.55195684 -46 80 C-48.2622358 79.76153097 -48.2622358 79.76153097 -50.875 79.75 C-51.75929687 79.72421875 -52.64359375 79.6984375 -53.5546875 79.671875 C-56.00259746 79.8216335 -56.00259746 79.8216335 -57.7578125 81.1484375 C-59.45612754 83.67988822 -59.63913972 85.86031309 -60 88.875 C-60.64744213 94.25686269 -61.83073223 98.1018907 -66 101.75 C-70.43055298 104.51909561 -74.7693871 104.25203102 -79.8125 104.3125 C-81.00456055 104.35600586 -81.00456055 104.35600586 -82.22070312 104.40039062 C-87.66017141 104.45887953 -90.66782434 103.58455829 -95 100 C-98.80511236 95.92309389 -99.9543881 91.3277915 -100.1875 85.875 C-100.55894006 82.08430179 -100.55894006 82.08430179 -102.58203125 80.70703125 C-104.36468904 79.759427 -106.18146813 78.87679215 -108 78 C-108.33 77.01 -108.66 76.02 -109 75 C-77.98 75 -46.96 75 -15 75 C-36.93292782 53.06707218 -86.11008812 42.06120633 -116.41796875 41.90234375 C-119.00783071 41.90890036 -121.59768428 41.92069141 -124.1875 41.9375 C-125.53450352 41.94253037 -126.88150889 41.94709053 -128.22851562 41.95117188 C-131.48569683 41.96284636 -134.7428546 41.9807775 -138 42 C-136.68 47.28 -135.36 52.56 -134 58 C-135.32 58 -136.64 58 -138 58 C-138.103125 57.0925 -138.20625 56.185 -138.3125 55.25 C-139.75309602 45.61358067 -141.82146008 35.17853992 -149 28 C-150.96482624 27.76115582 -150.96482624 27.76115582 -153.25 27.75 C-154.40242188 27.71132812 -154.40242188 27.71132812 -155.578125 27.671875 C-158.75018632 28.10163815 -160.51372618 28.98340355 -163 31 Z M-70 46 C-69 48 -69 48 -69 48 Z M-13 74 C-13.66 74.66 -14.32 75.32 -15 76 C-17.89031484 76.21781495 -20.68760816 76.31144084 -23.58056641 76.31884766 C-24.91236687 76.33391609 -24.91236687 76.33391609 -26.27107239 76.34928894 C-29.21456232 76.38025367 -32.15796077 76.39719286 -35.1015625 76.4140625 C-37.13895462 76.43276347 -39.1763389 76.45233606 -41.2137146 76.4727478 C-46.58292027 76.5241882 -51.95215108 76.56375006 -57.32147217 76.60089111 C-62.797712 76.64085628 -68.27384616 76.69198268 -73.75 76.7421875 C-84.4999259 76.83908771 -95.2499113 76.92344722 -106 77 C-105.37472412 77.29390625 -104.74944824 77.5878125 -104.10522461 77.890625 C-101.50281711 79.26199688 -100.48426172 80.46310163 -99 83 C-98.33984375 85.875 -98.33984375 85.875 -97.9375 89 C-97.44820873 92.72793349 -97.02270879 95.78831543 -95 99 C-87.98726889 103.98273 -80.33783346 103.62417301 -72 103 C-68.68179406 102.30432786 -66.38160069 101.45054176 -64 99 C-61.79476168 94.53516889 -61.12254873 89.96507129 -60.5 85.0625 C-60 82 -60 82 -58.84765625 80.328125 C-56.19599869 78.42207094 -54.16678851 78.63649058 -50.9375 78.6875 C-49.87402344 78.69136719 -48.81054688 78.69523437 -47.71484375 78.69921875 C-45 79 -45 79 -43 81 C-42.6889626 83.03326302 -42.44949693 85.07778146 -42.25 87.125 C-41.38842932 93.34209401 -39.70802093 97.73522786 -35 102 C-28.35136965 104.21621012 -18.93737201 104.02495766 -12.25 101.8125 C-8.54583669 99.74671661 -7.47977007 98.94605353 -6 95 C-5.50009639 92.14517854 -5.06154963 89.30442734 -4.72265625 86.42578125 C-4 84 -4 84 -2.12109375 82.91796875 C-1.42113281 82.61503906 -0.72117187 82.31210938 0 82 C1.73425773 79.96682993 1.73425773 79.96682993 3 78 C2.09636719 77.79503906 1.19273437 77.59007813 0.26171875 77.37890625 C-0.91777344 77.10949219 -2.09726563 76.84007813 -3.3125 76.5625 C-4.48425781 76.29566406 -5.65601563 76.02882813 -6.86328125 75.75390625 C-10 75 -10 75 -13 74 Z M-66 143 C-66 143.33 -66 143.66 -66 144 C-63.69 144 -61.38 144 -59 144 C-59 143.67 -59 143.34 -59 143 C-61.31 143 -63.62 143 -66 143 Z M-58 144 C-58 144.33 -58 144.66 -58 145 C-56.02 145 -54.04 145 -52 145 C-52 144.67 -52 144.34 -52 144 C-53.98 144 -55.96 144 -58 144 Z M-111.22729492 163.74047852 C-114.17339498 167.49563015 -116.33920113 171.56993167 -118.5 175.8125 C-118.96994385 176.72539795 -119.4398877 177.6382959 -119.92407227 178.57885742 C-126.92192778 192.47735935 -131.63308196 206.83841256 -135 222 C-130.23596008 225.57493556 -125.80021569 227.20664558 -120.0625 228.6875 C-118.90331055 229.00557617 -118.90331055 229.00557617 -117.72070312 229.33007812 C-110.24127232 231.33428739 -103.00343098 232.16064936 -95.27734375 232.203125 C-94.04353722 232.21167511 -94.04353722 232.21167511 -92.7848053 232.22039795 C-91.04933945 232.22980076 -89.31385614 232.23636304 -87.57836914 232.24023438 C-84.96923228 232.24988266 -82.36090378 232.28092718 -79.75195312 232.3125 C-69.7319971 232.37701243 -60.70377858 231.72273888 -51 229 C-50.12674072 228.75523926 -49.25348145 228.51047852 -48.35375977 228.25830078 C-17.96126539 219.10846386 7.71510388 200.8166726 25 174 C25.67693319 172.67184953 26.34533685 171.33926785 27 170 C-12.8896681 156.22179978 -12.8896681 156.22179978 -54 147 C-55.07894531 146.81179687 -56.15789062 146.62359375 -57.26953125 146.4296875 C-80.21120711 143.7871908 -95.77708256 145.91709386 -111.22729492 163.74047852 Z M-47 146 C-43 147 -43 147 -43 147 Z M-42 147 C-38 148 -38 148 -38 148 Z M-101 149 C-101.33 149.66 -101.66 150.32 -102 151 C-101.01 150.67 -100.02 150.34 -99 150 C-99.66 149.67 -100.32 149.34 -101 149 Z M-104 151 C-105.30098717 152.21929728 -106.59042437 153.45092452 -107.875 154.6875 C-108.95394531 155.71423828 -108.95394531 155.71423828 -110.0546875 156.76171875 C-112.08335887 159.09591291 -113.02992733 161.08467634 -114 164 C-113.319375 163.319375 -112.63875 162.63875 -111.9375 161.9375 C-108.625 158.625 -105.3125 155.3125 -102 152 C-102.66 151.67 -103.32 151.34 -104 151 Z M7 161 C9.76223278 163.76223278 12.20706617 163.57856291 16 164 C12.81237635 161.87491756 10.73487777 161.4979837 7 161 Z M-115 164 C-115 167 -115 167 -115 167 Z M-117 167 C-117 170 -117 170 -117 170 Z M-119 170 C-118 172 -118 172 -118 172 Z M-120 172 C-119 174 -119 174 -119 174 Z M-121 174 C-120 176 -120 176 -120 176 Z M-122 176 C-121 178 -121 178 -121 178 Z M-123 178 C-122 180 -122 180 -122 180 Z M-124 180 C-123 182 -123 182 -123 182 Z M-125 182 C-124 184 -124 184 -124 184 Z M-126 184 C-125 186 -125 186 -125 186 Z M-127 187 C-126 189 -126 189 -126 189 Z M-129 192 C-128 194 -128 194 -128 194 Z M-130 195 C-129 197 -129 197 -129 197 Z M-131 197 C-130 200 -130 200 -130 200 Z M-132 201 C-131 203 -131 203 -131 203 Z M-133 203 C-132 206 -132 206 -132 206 Z M-134 206 C-133 209 -133 209 -133 209 Z M-135 210 C-134 212 -134 212 -134 212 Z " fill="#16151B" transform="translate(223,37)"/>
<path d="M0 0 C30.89550805 -0.72802375 61.99030443 11.25163747 85.33984375 31.125 C86.15219482 31.8051416 86.15219482 31.8051416 86.98095703 32.49902344 C99.28299811 42.89821716 109.56966628 54.99592991 117.33984375 69.125 C117.67999512 69.74101074 118.02014648 70.35702148 118.37060547 70.99169922 C128.63472837 89.81162397 133.40263267 109.7395472 134.33984375 131.125 C134.41912109 132.53458984 134.41912109 132.53458984 134.5 133.97265625 C134.6707954 139.01483337 134.39918913 141.9184001 131.33984375 146.125 C131.33984375 153.07653806 139.67942197 159.58219245 144.33984375 164.25 C145.6681211 165.54686539 146.9995527 166.84055441 148.33984375 168.125 C148.00984375 169.115 147.67984375 170.105 147.33984375 171.125 C140.7677015 164.73075032 134.35583825 158.46962677 128.86328125 151.1015625 C123.848397 144.59507165 117.40015177 139.59348595 111.02490234 134.48925781 C109.13136326 132.95620994 107.26068121 131.39753546 105.390625 129.8359375 C104.70025146 129.26375488 104.00987793 128.69157227 103.29858398 128.10205078 C101.94870537 126.98324102 100.60288304 125.85951166 99.26196289 124.72998047 C94.58950205 120.88207154 89.71428958 117.90140925 84.33984375 115.125 C84.1696875 116.00542969 83.99953125 116.88585937 83.82421875 117.79296875 C83.46070313 119.53513672 83.46070313 119.53513672 83.08984375 121.3125 C82.8578125 122.46105469 82.62578125 123.60960937 82.38671875 124.79296875 C81.25637733 128.3906599 79.93253863 130.41445535 77.33984375 133.125 C74.58984375 134.4375 74.58984375 134.4375 72.33984375 135.125 C73.70967878 131.96384224 74.32890755 131.1322908 77.33984375 129.125 C78.79443887 125.73094473 79.43520355 122.58028688 79.77734375 118.9375 C80.33984375 115.125 80.33984375 115.125 81.52734375 113.1875 C84.26649614 111.58178998 86.15091673 111.125 89.33984375 111.125 C91.03600191 112.76164384 92.69648373 114.43534815 94.33984375 116.125 C96.77701665 118.08571721 99.31047782 119.91046114 101.83984375 121.75 C107.22406818 125.72543105 112.48797317 129.79196532 117.58984375 134.125 C118.11384766 134.56924316 118.63785156 135.01348633 119.17773438 135.47119141 C121.40101502 137.37904593 123.50477923 139.30061476 125.51171875 141.4375 C127.29259377 143.46414005 127.29259377 143.46414005 130.33984375 143.125 C131.3226115 105.4371167 121.58418192 72.21076782 95.43725586 44.31616211 C71.24157308 19.103676 38.88472961 4.74190962 3.97558594 3.66967773 C-32.39881405 3.18065957 -64.4261128 17.45579423 -90.66015625 42.125 C-91.25054687 42.6509375 -91.8409375 43.176875 -92.44921875 43.71875 C-104.29638214 54.72369798 -112.59028177 69.79126059 -119.66015625 84.125 C-120.32015625 84.125 -120.98015625 84.125 -121.66015625 84.125 C-113.28084991 56.68277174 -89.41181305 33.70903427 -65.66015625 19.125 C-65.06605957 18.75987305 -64.47196289 18.39474609 -63.85986328 18.01855469 C-44.58273294 6.42336882 -22.31238959 1.04845296 0 0 Z " fill="#13121C" transform="translate(137.66015625,5.875)"/>
<path d="M0 0 C7.82692308 7.40384615 7.82692308 7.40384615 8.1875 12.8125 C8.125625 13.534375 8.06375 14.25625 8 15 C8.59425781 15.26167969 9.18851563 15.52335938 9.80078125 15.79296875 C12.12268443 17.06733479 13.46528046 18.31578788 15.1875 20.3125 C15.69667969 20.88613281 16.20585937 21.45976562 16.73046875 22.05078125 C18.2258042 24.34669629 18.61534686 26.307428 19 29 C2.69831685 42.57506711 2.69831685 42.57506711 -4 42 C-7.2109375 40.6875 -7.2109375 40.6875 -10.375 39 C-11.43460938 38.443125 -12.49421875 37.88625 -13.5859375 37.3125 C-14.38257813 36.879375 -15.17921875 36.44625 -16 36 C-16 34.68 -16 33.36 -16 32 C-16.99 32.33 -17.98 32.66 -19 33 C-24.94250075 33.47540006 -29.53343305 32.08250169 -35 30 C-35 31.32 -35 32.64 -35 34 C-50.45013588 63.0506076 -81.50888505 82.40474615 -112 92 C-112.88478027 92.2889917 -113.76956055 92.5779834 -114.68115234 92.87573242 C-123.28638204 95.39002064 -131.42102781 95.15655839 -140.25 94.6875 C-141.68873238 94.62405038 -143.12753585 94.56219174 -144.56640625 94.50195312 C-148.04528014 94.35291188 -151.5227046 94.18256121 -155 94 C-155 93.67 -155 93.34 -155 93 C-154.25540527 92.98541748 -153.51081055 92.97083496 -152.74365234 92.95581055 C-133.12865774 92.78455445 -133.12865774 92.78455445 -114 89 C-113.27361328 88.78102051 -112.54722656 88.56204102 -111.79882812 88.33642578 C-81.44298174 79.02409902 -52.55748269 60.57249739 -37 32 C-37.56847656 31.81824219 -38.13695312 31.63648438 -38.72265625 31.44921875 C-43.60701003 29.85915366 -48.31029027 28.09540222 -53 26 C-53 25.34 -53 24.68 -53 24 C-52.01 24 -51.02 24 -50 24 C-56.93 21.69 -63.86 19.38 -71 17 C-71 16.01 -71 15.02 -71 14 C-64.40845733 15.92191756 -57.90803713 18.01763347 -51.4375 20.3125 C-50.58269043 20.6115625 -49.72788086 20.910625 -48.84716797 21.21875 C-44.59307157 22.71047679 -40.35470053 24.23309702 -36.13671875 25.82421875 C-35.37496338 26.10676514 -34.61320801 26.38931152 -33.82836914 26.68041992 C-32.39993309 27.21175065 -30.97557712 27.7542353 -29.55639648 28.30981445 C-25.27360357 29.89038808 -22.38407518 30.32815146 -18 29 C-14.85316133 27.42003424 -14.85316133 27.42003424 -11.75 25.375 C-11.19223877 25.02179688 -10.63447754 24.66859375 -10.05981445 24.3046875 C-4.93097393 21.02831426 0.06683701 17.56345859 5 14 C4.45550065 10.6699566 3.72930565 8.17039791 1.9375 5.3125 C0 2 0 2 0 0 Z " fill="#121119" transform="translate(286,176)"/>
<path d="M0 0 C0 0.99 0 1.98 0 3 C1.21558594 3.39832031 2.43117187 3.79664063 3.68359375 4.20703125 C5.26843928 4.74156495 6.85306345 5.27675527 8.4375 5.8125 C9.23994141 6.07353516 10.04238281 6.33457031 10.86914062 6.60351562 C11.63291016 6.86455078 12.39667969 7.12558594 13.18359375 7.39453125 C13.89056396 7.63018799 14.59753418 7.86584473 15.32592773 8.10864258 C17 9 17 9 18 12 C11.22803447 10.2134894 4.53142477 8.25744873 -2.14575195 6.14501953 C-14.65444287 2.19391114 -27.16881162 -1.27275264 -40 -4 C-41.09183594 -4.24621094 -42.18367188 -4.49242187 -43.30859375 -4.74609375 C-57.61116698 -7.50024132 -77.36585249 -9.51571572 -90 -1 C-92.93738938 1.12846975 -95.51836931 3.35630363 -98 6 C-98.45157471 6.47630859 -98.90314941 6.95261719 -99.3684082 7.44335938 C-103.61031433 12.11975565 -106.55964577 17.1515485 -109.4375 22.75 C-110.14918335 24.1261145 -110.14918335 24.1261145 -110.87524414 25.5300293 C-117.91171844 39.43922778 -122.62737111 53.81269599 -126 69 C-106.94751129 79.88713641 -83.28211475 79.25601816 -62 80 C-62 80.66 -62 81.32 -62 82 C-107.91461371 82.71957803 -107.91461371 82.71957803 -127 72 C-128.875 69.8125 -128.875 69.8125 -130 68 C-130.928125 68.2784375 -130.928125 68.2784375 -131.875 68.5625 C-134 69 -134 69 -136 68 C-136 67.34 -136 66.68 -136 66 C-134.35 66.33 -132.7 66.66 -131 67 C-130.93683594 66.44957031 -130.87367188 65.89914063 -130.80859375 65.33203125 C-127.18909659 40.75755055 -115.64439334 11.80179962 -96.23828125 -4.38671875 C-92.67993871 -6.95145779 -89.14841795 -8.60822931 -85 -10 C-84.15308594 -10.29777344 -83.30617187 -10.59554687 -82.43359375 -10.90234375 C-56.27662498 -18.79672793 -24.85983743 -8.57095702 0 0 Z M-58 -10 C-58 -9.67 -58 -9.34 -58 -9 C-55.69 -9 -53.38 -9 -51 -9 C-51 -9.33 -51 -9.66 -51 -10 C-53.31 -10 -55.62 -10 -58 -10 Z M-50 -9 C-50 -8.67 -50 -8.34 -50 -8 C-48.02 -8 -46.04 -8 -44 -8 C-44 -8.33 -44 -8.66 -44 -9 C-45.98 -9 -47.96 -9 -50 -9 Z M-39 -7 C-35 -6 -35 -6 -35 -6 Z M-34 -6 C-30 -5 -30 -5 -30 -5 Z M-93 -4 C-93.33 -3.34 -93.66 -2.68 -94 -2 C-93.01 -2.33 -92.02 -2.66 -91 -3 C-91.66 -3.33 -92.32 -3.66 -93 -4 Z M-96 -2 C-97.30098717 -0.78070272 -98.59042437 0.45092452 -99.875 1.6875 C-100.95394531 2.71423828 -100.95394531 2.71423828 -102.0546875 3.76171875 C-104.08335887 6.09591291 -105.02992733 8.08467634 -106 11 C-105.319375 10.319375 -104.63875 9.63875 -103.9375 8.9375 C-100.625 5.625 -97.3125 2.3125 -94 -1 C-94.66 -1.33 -95.32 -1.66 -96 -2 Z M-107 11 C-107 14 -107 14 -107 14 Z M-109 14 C-109 17 -109 17 -109 17 Z M-111 17 C-110 19 -110 19 -110 19 Z M-112 19 C-111 21 -111 21 -111 21 Z M-113 21 C-112 23 -112 23 -112 23 Z M-114 23 C-113 25 -113 25 -113 25 Z M-115 25 C-114 27 -114 27 -114 27 Z M-116 27 C-115 29 -115 29 -115 29 Z M-117 29 C-116 31 -116 31 -116 31 Z M-118 31 C-117 33 -117 33 -117 33 Z M-119 34 C-118 36 -118 36 -118 36 Z M-121 39 C-120 41 -120 41 -120 41 Z M-122 42 C-121 44 -121 44 -121 44 Z M-123 44 C-122 47 -122 47 -122 47 Z M-124 48 C-123 50 -123 50 -123 50 Z M-125 50 C-124 53 -124 53 -124 53 Z M-126 53 C-125 56 -125 56 -125 56 Z M-127 57 C-126 59 -126 59 -126 59 Z " fill="#12101A" transform="translate(215,190)"/>
<path d="M0 0 C0 3.98415776 -1.511076 5.84004284 -3.5625 9.25 C-13.31426113 25.86169565 -19.64356514 43.2600288 -24 62 C-4.94751129 72.88713641 18.71788525 72.25601816 40 73 C40 73.66 40 74.32 40 75 C-5.91461371 75.71957803 -5.91461371 75.71957803 -25 65 C-26.875 62.8125 -26.875 62.8125 -28 61 C-28.928125 61.2784375 -28.928125 61.2784375 -29.875 61.5625 C-32 62 -32 62 -34 61 C-34 60.34 -34 59.68 -34 59 C-32.35 59.33 -30.7 59.66 -29 60 C-28.93683594 59.44957031 -28.87367187 58.89914063 -28.80859375 58.33203125 C-26.7089185 44.07634137 -21.31251083 30.24838152 -15.25 17.25 C-14.87351318 16.43402344 -14.49702637 15.61804688 -14.10913086 14.77734375 C-13.74827393 14.03097656 -13.38741699 13.28460938 -13.015625 12.515625 C-12.69883789 11.85852539 -12.38205078 11.20142578 -12.05566406 10.52441406 C-11 9 -11 9 -8 8 C-7.67 8.33 -7.34 8.66 -7 9 C-6.36771484 8.15115234 -6.36771484 8.15115234 -5.72265625 7.28515625 C-5.17480469 6.55167969 -4.62695312 5.81820312 -4.0625 5.0625 C-3.51722656 4.33160156 -2.97195312 3.60070312 -2.41015625 2.84765625 C-1 1 -1 1 0 0 Z M-9 10 C-8 12 -8 12 -8 12 Z M-10 12 C-9 14 -9 14 -9 14 Z M-11 14 C-10 16 -10 16 -10 16 Z M-12 16 C-11 18 -11 18 -11 18 Z M-13 18 C-12 20 -12 20 -12 20 Z M-14 20 C-13 22 -13 22 -13 22 Z M-15 22 C-14 24 -14 24 -14 24 Z M-16 24 C-15 26 -15 26 -15 26 Z M-17 27 C-16 29 -16 29 -16 29 Z M-19 32 C-18 34 -18 34 -18 34 Z M-20 35 C-19 37 -19 37 -19 37 Z M-21 37 C-20 40 -20 40 -20 40 Z M-22 41 C-21 43 -21 43 -21 43 Z M-23 43 C-22 46 -22 46 -22 46 Z M-24 46 C-23 49 -23 49 -23 49 Z M-25 50 C-24 52 -24 52 -24 52 Z " fill="#0F0F16" transform="translate(113,197)"/>
<path d="M0 0 C1.60546875 2.06640625 1.60546875 2.06640625 3.1875 4.5625 C3.71730469 5.38878906 4.24710937 6.21507812 4.79296875 7.06640625 C5.19128906 7.70449219 5.58960938 8.34257812 6 9 C2.8774961 12.33067083 -0.45700077 15.35696295 -3.9375 18.3125 C-4.75089844 19.00988281 -5.56429688 19.70726562 -6.40234375 20.42578125 C-9.60889255 22.36899804 -11.30324273 22.47345274 -15 22 C-17.7734375 20.90625 -17.7734375 20.90625 -20.375 19.5 C-21.68597656 18.80390625 -21.68597656 18.80390625 -23.0234375 18.09375 C-23.67570312 17.7328125 -24.32796875 17.371875 -25 17 C-22.11974164 10.15005913 -7.22033621 -2.40677874 0 0 Z " fill="#7261EB" transform="translate(297,194)"/>
<path d="M0 0 C2.39537652 2.39537652 2.43428868 3.04032421 2.5625 6.3125 C2.32777421 10.79429554 1.09134377 14.08934762 -0.9375 18.0625 C-6.3764165 18.28005666 -10.80830814 18.16678384 -15.9375 16.0625 C-16.50655158 4.02811287 -16.50655158 4.02811287 -12.9375 0.0625 C-8.39409467 -1.45196844 -4.56989733 -1.45847787 0 0 Z " fill="#F3F3F3" transform="translate(153.9375,62.9375)"/>
<path d="M0 0 C1.25586914 -0.00580078 1.25586914 -0.00580078 2.53710938 -0.01171875 C6.63339002 -0.00523216 10.44251048 0.0956162 14.4375 1.125 C11.8720406 3.6904594 9.96063332 3.66546087 6.4375 4.125 C6.9325 5.115 6.9325 5.115 7.4375 6.125 C6.53209473 6.13116333 6.53209473 6.13116333 5.60839844 6.13745117 C-9.25439123 6.31452406 -21.71910774 6.68979589 -32.94140625 17.57421875 C-34.5625 19.125 -34.5625 19.125 -37.5625 21.125 C-37.5625 18.125 -37.5625 18.125 -36.25 16.51953125 C-35.693125 15.99746094 -35.13625 15.47539062 -34.5625 14.9375 C-34.005625 14.40769531 -33.44875 13.87789062 -32.875 13.33203125 C-32.441875 12.93371094 -32.00875 12.53539062 -31.5625 12.125 C-36.85774242 16.23151453 -40.37221415 20.40467002 -43.984375 26.05078125 C-45.5625 28.125 -45.5625 28.125 -48.5625 29.125 C-45.11785697 19.42832988 -37.14709996 11.54305047 -28.5625 6.125 C-18.99975633 1.59705777 -10.46825921 -0.04857661 0 0 Z M-29.5625 9.125 C-29.8925 9.785 -30.2225 10.445 -30.5625 11.125 C-29.5725 10.795 -28.5825 10.465 -27.5625 10.125 C-28.2225 9.795 -28.8825 9.465 -29.5625 9.125 Z " fill="#1B1A20" transform="translate(151.5625,176.875)"/>
<path d="M0 0 C8.08118081 6.44280443 8.08118081 6.44280443 10 11 C9.70982121 13.51843819 9.27597075 14.71129772 7.51293945 16.55566406 C5.45674295 18.13593075 3.39667638 19.70671262 1.3125 21.25 C0.60416016 21.80429688 -0.10417969 22.35859375 -0.83398438 22.9296875 C-3.97317977 25.28335939 -6.21734788 26.86286446 -10.12109375 27.546875 C-13.59817524 26.88637105 -16.25431403 25.66436585 -19.375 24 C-20.43460937 23.443125 -21.49421875 22.88625 -22.5859375 22.3125 C-23.38257813 21.879375 -24.17921875 21.44625 -25 21 C-25 20.01 -25 19.02 -25 18 C-24.67 18.66 -24.34 19.32 -24 20 C-22.33333333 20.33333333 -20.66666667 20.66666667 -19 21 C-18.030625 21.515625 -17.06125 22.03125 -16.0625 22.5625 C-12.5041997 24.23272259 -10.89244865 24.51620287 -7 24 C-4.30421547 22.44337228 -1.99266542 20.51177417 0.375 18.5 C1.01566406 17.97535156 1.65632813 17.45070312 2.31640625 16.91015625 C3.88835172 15.61975325 5.44568526 14.31158613 7 13 C5.36678062 9.58029724 3.82388321 6.47575932 1.3125 3.625 C0.549375 2.75875 -0.21375 1.8925 -1 1 C-0.67 0.67 -0.34 0.34 0 0 Z " fill="#0C0B13" transform="translate(295,191)"/>
<path d="M0 0 C0.66 0.33 1.32 0.66 2 1 C-2.54257343 6.7629663 -12.11185043 8.14610588 -19 9 C-29.33830535 9.33420685 -39.68683472 8.68944582 -50 8 C-50 7.67 -50 7.34 -50 7 C-48.88310791 6.97812622 -48.88310791 6.97812622 -47.74365234 6.95581055 C-32.45991389 6.62139753 -18.31559055 6.22695727 -3.75 1.25 C-2.5125 0.8375 -1.275 0.425 0 0 Z " fill="#19172D" transform="translate(181,262)"/>
<path d="M0 0 C0.33 0.66 0.66 1.32 1 2 C-2.49943267 2.33947025 -5.99962052 2.67044773 -9.5 3 C-10.48226562 3.09539063 -11.46453125 3.19078125 -12.4765625 3.2890625 C-18.01398367 3.80588848 -23.43881298 4.10592737 -29 4 C-28.67 3.34 -28.34 2.68 -28 2 C-25.35305813 1.51161209 -22.79582134 1.15130164 -20.125 0.875 C-18.97656616 0.74762451 -18.97656616 0.74762451 -17.80493164 0.61767578 C-11.85937597 -0.00304498 -5.97749302 -0.23238634 0 0 Z " fill="#0C0C11" transform="translate(146,6)"/>
<path d="M0 0 C-3.58727128 2.08351615 -7.20694042 2.80141379 -11.25 3.625 C-13.14492187 4.01558594 -13.14492187 4.01558594 -15.078125 4.4140625 C-16.04234375 4.60742188 -17.0065625 4.80078125 -18 5 C-17.67 4.01 -17.34 3.02 -17 2 C-11.32416361 -0.74005895 -6.07582847 -1.4529155 0 0 Z " fill="#151323" transform="translate(119,10)"/>
<path d="M0 0 C0.33 0.99 0.66 1.98 1 3 C-6.26 2.67 -13.52 2.34 -21 2 C-21 1.67 -21 1.34 -21 1 C-13.97252688 0.33411422 -7.05985273 -0.11766421 0 0 Z " fill="#161527" transform="translate(156,7)"/>
<path d="M0 0 C1 3 1 3 0.00390625 5.48046875 C-0.47175781 6.37378906 -0.94742187 7.26710938 -1.4375 8.1875 C-1.91058594 9.08855469 -2.38367188 9.98960938 -2.87109375 10.91796875 C-3.24363281 11.60503906 -3.61617187 12.29210937 -4 13 C-4.66 13 -5.32 13 -6 13 C-4.58707905 8.1725201 -2.57025846 4.2837641 0 0 Z " fill="#0F0E16" transform="translate(22,77)"/>
<path d="M0 0 C0.33 0.99 0.66 1.98 1 3 C-1.31 5.31 -3.62 7.62 -6 10 C-6.66 9.34 -7.32 8.68 -8 8 C-5.36 5.36 -2.72 2.72 0 0 Z " fill="#141225" transform="translate(121,188)"/>
<path d="M0 0 C0.33 0.66 0.66 1.32 1 2 C0.328125 3.91015625 0.328125 3.91015625 -0.75 6.0625 C-1.09546875 6.77535156 -1.4409375 7.48820313 -1.796875 8.22265625 C-3 10 -3 10 -6 11 C-3.76687117 3.98159509 -3.76687117 3.98159509 -2 1 C-1.34 0.67 -0.68 0.34 0 0 Z " fill="#0F0F11" transform="translate(104,205)"/>
<path d="M0 0 C0 0.66 0 1.32 0 2 C-2.64 2.33 -5.28 2.66 -8 3 C-5.53387212 -0.1151089 -3.89156016 -0.31553191 0 0 Z " fill="#0E0D15" transform="translate(170,267)"/>
</svg>
