<svg fill="#5528ff" xmlns="http://www.w3.org/2000/svg" viewBox="0 0 128 128"><path d="M 15.734375 37.949219 C 10.660156 40.65625 5.390625 43.074219 0.238281 45.65625 C 0.21875 45.664062 0.195312 45.664062 0.179688 45.652344 C 0.160156 45.640625 0.148438 45.621094 0.148438 45.601562 L 0.148438 39.15625 C 0.148438 39.050781 0.210938 38.957031 0.300781 38.910156 L 15.695312 31.308594 C 15.765625 31.273438 15.835938 31.273438 15.90625 31.308594 L 31.308594 38.960938 C 31.371094 38.988281 31.398438 39.039062 31.398438 39.105469 L 31.398438 45.550781 C 31.398438 45.582031 31.382812 45.613281 31.355469 45.628906 C 31.328125 45.648438 31.292969 45.648438 31.265625 45.632812 L 15.789062 37.949219 C 15.773438 37.9375 15.753906 37.9375 15.734375 37.949219 Z M 15.734375 37.949219 "/><path d="M 83.960938 61.714844 C 83.992188 61.660156 83.992188 61.59375 83.960938 61.539062 L 79.414062 54.140625 C 79.371094 54.066406 79.351562 53.988281 79.351562 53.902344 L 79.351562 48.546875 C 79.351562 48.410156 79.417969 48.34375 79.558594 48.34375 C 83.640625 48.363281 87.625 48.367188 91.511719 48.359375 C 103.019531 48.332031 105.53125 63.808594 94.675781 67.355469 C 94.652344 67.363281 94.632812 67.382812 94.621094 67.40625 C 94.613281 67.429688 94.617188 67.457031 94.628906 67.480469 L 102.050781 79.546875 C 102.0625 79.566406 102.0625 79.59375 102.050781 79.617188 C 102.039062 79.636719 102.019531 79.652344 101.992188 79.648438 L 95.234375 79.648438 C 95.160156 79.648438 95.105469 79.617188 95.066406 79.554688 L 87.90625 67.882812 C 87.855469 67.796875 87.761719 67.746094 87.660156 67.742188 L 85.390625 67.722656 C 85.328125 67.722656 85.300781 67.75 85.300781 67.808594 L 85.296875 79.351562 C 85.296875 79.515625 85.164062 79.648438 85 79.648438 L 79.449219 79.648438 C 79.394531 79.648438 79.351562 79.605469 79.351562 79.550781 L 79.351562 61.851562 C 79.351562 61.785156 79.382812 61.753906 79.449219 61.753906 C 79.914062 61.753906 83.914062 61.789062 83.960938 61.714844 Z M 87.382812 54.34375 C 87.15625 54.351562 86.898438 54.292969 86.652344 54.300781 C 86.558594 54.304688 86.539062 54.347656 86.585938 54.425781 L 91.050781 61.6875 C 91.085938 61.746094 91.136719 61.773438 91.207031 61.777344 C 93.300781 61.835938 95.074219 61.046875 95.582031 58.90625 C 96.191406 56.332031 94.339844 54.449219 91.839844 54.34375 C 90.355469 54.28125 88.867188 54.28125 87.382812 54.34375 Z M 87.382812 54.34375 "/><path d="M 116.792969 57.171875 L 121.292969 48.378906 C 121.300781 48.359375 121.320312 48.347656 121.34375 48.351562 L 127.765625 48.351562 C 127.78125 48.351562 127.800781 48.359375 127.808594 48.375 C 127.820312 48.390625 127.820312 48.410156 127.8125 48.429688 L 112.214844 79.621094 C 112.207031 79.636719 112.1875 79.648438 112.167969 79.648438 L 105.613281 79.648438 C 105.59375 79.648438 105.578125 79.640625 105.570312 79.625 C 105.558594 79.609375 105.558594 79.589844 105.566406 79.570312 L 113.367188 64.039062 C 113.375 64.023438 113.375 64.007812 113.367188 63.992188 L 105.550781 48.429688 C 105.542969 48.410156 105.542969 48.390625 105.554688 48.375 C 105.5625 48.359375 105.582031 48.351562 105.601562 48.351562 L 112.179688 48.351562 C 112.199219 48.351562 112.21875 48.363281 112.226562 48.378906 L 116.617188 57.167969 C 116.625 57.1875 116.644531 57.195312 116.664062 57.199219 L 116.742188 57.199219 C 116.761719 57.199219 116.78125 57.1875 116.792969 57.171875 Z M 116.792969 57.171875 "/><path d="M 31.394531 64.003906 C 31.394531 72.628906 24.402344 79.621094 15.777344 79.621094 C 7.152344 79.621094 0.15625 72.628906 0.15625 64.003906 C 0.15625 55.375 7.152344 48.382812 15.777344 48.382812 C 24.402344 48.382812 31.394531 55.375 31.394531 64.003906 Z M 31.394531 64.003906 "/><path d="M 74.855469 64.003906 C 74.855469 72.628906 67.863281 79.621094 59.234375 79.621094 C 50.609375 79.621094 43.617188 72.628906 43.617188 64.003906 C 43.617188 55.375 50.609375 48.382812 59.234375 48.382812 C 67.863281 48.382812 74.855469 55.375 74.855469 64.003906 Z M 68.902344 64 C 68.902344 58.660156 64.574219 54.332031 59.234375 54.332031 C 53.898438 54.332031 49.566406 58.660156 49.566406 64 C 49.566406 69.339844 53.898438 73.667969 59.234375 73.667969 C 64.574219 73.667969 68.902344 69.339844 68.902344 64 Z M 68.902344 64 "/><path d="M 31.40625 82.425781 L 31.394531 88.984375 C 31.394531 89.007812 31.382812 89.03125 31.359375 89.042969 L 15.773438 96.734375 C 15.753906 96.746094 15.730469 96.746094 15.710938 96.734375 L 0.1875 89.015625 C 0.164062 89.003906 0.148438 88.980469 0.148438 88.953125 L 0.148438 82.40625 C 0.148438 82.382812 0.160156 82.363281 0.179688 82.347656 C 0.203125 82.335938 0.226562 82.335938 0.246094 82.347656 L 15.726562 90.039062 C 15.746094 90.046875 15.765625 90.046875 15.785156 90.039062 L 31.308594 82.363281 C 31.328125 82.355469 31.355469 82.355469 31.375 82.367188 C 31.394531 82.378906 31.40625 82.402344 31.40625 82.425781 Z M 31.40625 82.425781 "/></svg>