<svg fill="#5528ff" viewBox="0 0 128 128" xmlns="http://www.w3.org/2000/svg"><path d="M15.8 31.283a.233.233 0 0 0-.105.026L.301 38.91a.28.28 0 0 0-.153.246v6.446c0 .02.012.039.032.05.015.012.039.012.058.004 5.153-2.582 10.422-5 15.496-7.707.02-.011.04-.011.055 0l15.477 7.684a.083.083 0 0 0 .09-.004.09.09 0 0 0 .042-.078v-6.446c0-.066-.027-.117-.09-.144l-15.402-7.652a.233.233 0 0 0-.105-.026zm63.759 17.06c-.141 0-.207.067-.207.204v5.355c0 .086.02.164.062.239l4.547 7.398a.177.177 0 0 1 0 .176c-.047.074-4.047.039-4.512.039-.066 0-.097.031-.097.098V79.55c0 .054.043.097.097.097H85a.297.297 0 0 0 .297-.296l.004-11.543c0-.059.027-.086.09-.086l2.27.02a.296.296 0 0 1 .245.14l7.16 11.672c.04.062.094.093.168.093h6.758c.028.004.047-.011.059-.03a.075.075 0 0 0 0-.071L94.629 67.48a.1.1 0 0 1-.008-.074.1.1 0 0 1 .055-.05c10.855-3.547 8.344-19.024-3.164-18.997-3.887.008-7.871.004-11.953-.015zm26.043.009c-.02 0-.04.007-.047.023-.012.016-.012.035-.004.055l7.816 15.562a.05.05 0 0 1 0 .047l-7.8 15.531c-.008.02-.008.04.003.055.008.016.024.023.043.023h6.555c.02 0 .039-.011.047-.027l15.597-31.191c.008-.02.008-.04-.003-.055-.008-.016-.028-.023-.043-.023h-6.422a.045.045 0 0 0-.051.027l-4.5 8.793a.067.067 0 0 1-.05.027h-.079c-.02-.004-.039-.011-.047-.031l-4.39-8.79a.054.054 0 0 0-.047-.026h-6.578zm-89.825.03c-8.625 0-15.62 6.993-15.62 15.622 0 8.625 6.995 15.617 15.62 15.617s15.618-6.992 15.618-15.617c0-8.629-6.993-15.621-15.618-15.621zm43.457 0c-8.625 0-15.617 6.993-15.617 15.622 0 8.625 6.992 15.617 15.617 15.617 8.63 0 15.621-6.992 15.621-15.617 0-8.629-6.992-15.621-15.62-15.621zm30.377 5.915c.743 0 1.487.016 2.229.047 2.5.105 4.351 1.988 3.742 4.562-.508 2.14-2.281 2.93-4.375 2.871a.179.179 0 0 1-.156-.09l-4.465-7.261c-.047-.078-.027-.121.066-.125.246-.008.504.05.73.043a52.98 52.98 0 0 1 2.23-.047zm-30.377.035A9.667 9.667 0 0 1 68.902 64a9.667 9.667 0 0 1-9.668 9.668c-5.336 0-9.668-4.328-9.668-9.668 0-5.34 4.332-9.668 9.668-9.668zM.214 82.34a.078.078 0 0 0-.034.008.074.074 0 0 0-.032.058v6.547c0 .027.016.05.04.063l15.523 7.718a.06.06 0 0 0 .062 0l15.586-7.691a.064.064 0 0 0 .036-.059l.011-6.558a.069.069 0 0 0-.031-.059.08.08 0 0 0-.066-.004L15.785 90.04a.076.076 0 0 1-.058 0L.247 82.348a.058.058 0 0 0-.032-.008z"/></svg>
