<svg xmlns="http://www.w3.org/2000/svg" viewBox="0 0 128 128"><path d="M32.7 112.2c-3.3-1.3-4.8-2.4-4.8-4.7 0-1.7 1.3-3.6 4.6-3.6 2.2 0 3.8.7 4.6 1.2l.9-2.6c-1.1-.6-2.9-1.2-5.4-1.2-4.7 0-7.8 2.8-7.8 6.6 0 3.4 2.4 5.5 6.4 6.9 3.3 1.3 4.6 2.6 4.6 4.8 0 2.4-1.9 4.1-5.1 4.1-2.2 0-4.2-.7-5.6-1.6l-.8 2.6c1.3.9 3.9 1.5 6.2 1.5 5.7 0 8.5-3.2 8.5-7-.1-3.4-2.2-5.4-6.3-7zm22.3 3.1c0-3.5-1.1-7.1-6.4-7.1-2.2 0-4.2.6-5.6 1.5l.8 2.1c1.2-.8 2.8-1.3 4.4-1.3 3.6 0 3.9 2.6 3.9 4v.4c-6 0-10.3 2.3-10.3 6.5 0 2.5 1.9 5.1 5.4 5.1 2.5 0 4.4-1.5 5.4-2.5h.1l.3 2h2.9c-.2-1.2-.7-2.7-.7-4.2v-6.5zm-3 4.8c0 .3.1.7 0 1-.5 1.5-1.9 2.9-4.1 2.9-1.6 0-3.1-1-3.1-3 0-3.4 4.3-4 7.3-3.9v3zm15.4-17.5c.9 0 1.5.2 2 .4l.4-2.4c-.6-.3-1.6-.5-2.7-.5-1.5 0-3 .5-4.2 1.6-1.5 1.4-1.9 3.6-1.9 6.1v1.2h-3v2h3v15h3v-15h4v-2h-4v-1.4c0-2.6.7-5 3.4-5zM83 115.3c0-3.5-1.2-7.1-6.5-7.1-2.2 0-4.2.6-5.7 1.5l.8 2.1c1.2-.8 2.9-1.3 4.5-1.3 3.6 0 3.9 2.6 3.9 4v.4c-7 0-10.4 2.3-10.4 6.5 0 2.5 1.8 5.1 5.4 5.1 2.5 0 4.4-1.5 5.4-2.5h.1l.3 2h2.9c-.2-1.2-.5-2.7-.5-4.2v-6.5zm-3 4.8c0 .3 0 .7-.1 1-.5 1.5-1.9 2.9-4.2 2.9-1.6 0-3.1-1-3.1-3 0-3.4 4.3-4 7.3-3.9v3zm11.3-8.1h-.1l-.1-3h-2.8c.1 1-.2 3-.2 5v12h4v-9.3c0-.5-.2-1-.1-1.5.4-2.4 1.9-4.1 4.1-4.1.4 0 1 0 1 .1v-3c0-.1-.6-.1-.9-.1-2.2.1-4.2 1.9-4.9 3.9zm10.6-10.3c-1.2 0-2 .9-2 2s.8 1.9 1.9 1.9c1.3 0 2.1-.9 2-1.9 0-1.1-.7-2-1.9-2zM100 109h3v17h-3zM64 1.5c-25.9 0-47 21-47 47s21 47 47 47 47-21 47-47-21.1-47-47-47zm42.1 43.6l-3.8.3-.1-.7 3.8-.3.1.7zM106 48v1h-7v-1h7zm-.3-6.6l-6.8 1.2-.1-.7 6.8-1.2.1.7zm-.8-3.6l-3.6 1-.2-.7 3.6-1 .2.7zm-1.1-3.5l-6.5 2.4-.3-.7 6.5-2.4.3.7zm-1.3-3.5L99 32.4l-.3-.7 3.4-1.6.4.7zm-1.7-3.2l-6 3.5-.4-.7 6-3.5.4.7zm-2.4-3.8l.4.6-3.1 2.2-.4-.6 3.1-2.2zm-1.8-2.3l-5.3 4.4-.5-.6 5.3-4.4.5.6zm-5.2-5.3L87 21.5l-.6-.5 4.4-5.3.6.5zm-3.5-2.7l.6.4-2.2 3.1-.6-.4 2.2-3.1zM85.5 12L82 18l-.7-.4 3.5-6 .7.4zm-4-2.1l.7.3-1.6 3.4-.7-.3 1.6-3.4zm-3.4-1.4l.7.3-2.4 6.5-.7-.3 2.4-6.5zm-3.5-1l.7.2-1 3.6-.7-.2 1-3.6zM71 6.7l.7.1-1.2 6.8-.7-.1L71 6.7zm-3.7-.5l.7.1-.3 3.8-.7-.1.3-3.8zM63 7h1v6h-1V7zm-2.3-.8L61 10l-.7.1-.3-3.8.7-.1zm-3.7.5l1.2 6.8-.7.1-1.2-6.8.7-.1zm-3.6.8l1 3.6-.7.2-1-3.6.7-.2zm-3.5 1l2.4 6.5-.7.3-2.4-6.5.7-.3zm-3.4 1.4l1.6 3.4-.7.3-1.6-3.4.7-.3zm-3.3 1.7l3.5 6-.7.4-3.5-6 .7-.4zm-3.1 1.9l2.2 3.1-.6.4-2.3-3 .7-.5zm-3 2.3l4.4 5.3-.5.4-4.4-5.3.5-.4zm-2.7 2.4l2.7 2.7-.5.5-2.7-2.7.5-.5zm-2.5 2.7l5.3 4.4-.5.6-5.3-4.4.5-.6zm-2.3 2.9l3.1 2.2-.4.6-3.1-2.2.4-.6zm-2 3.1l6 3.5-.4.6-6-3.5.4-.6zm-1.7 3.3l3.4 1.6-.3.6-3.4-1.6.3-.6zm-1.5 3.4l6.5 2.4-.3.7-6.5-2.4.3-.7zm-1.1 3.5l3.6 1-.2.7-3.6-1 .2-.7zm-.8 3.6l6.8 1.2-.1.7-6.8-1.2.1-.7zm-.6 3.6l3.8.3-.1.7-3.8-.3.1-.7zM28 48v1h-6v-1h6zm-6.1 3.7l3.8-.3.1.7-3.8.3-.1-.7zm.4 3.6l6.8-1.2.1.7-6.8 1.2-.1-.7zm.8 3.7l3.6-1 .2.7-3.6 1-.2-.7zm1.1 3.5l6.5-2.4.3.7-6.5 2.4-.3-.7zm1.3 3.4l3.4-1.6.3.7-3.4 1.6-.3-.7zm1.7 3.3l6-3.5.4.7-6 3.5-.4-.7zm2.4 3.7l-.4-.6 3.1-2.2.4.6-3.1 2.2zm7.1-2.1l.5.6-5.3 4.4-.5-.6 5.3-4.4zm-.1 9.7l4.4-5.3.6.5-4.5 5.3-.5-.5zm3.5 2.7l-.6-.4 2.2-3.1.6.4-2.2 3.1zm2.4 1.6l3.5-6 .7.4-3.5 6-.7-.4zm4 2l-.7-.3 1.6-3.4.7.3-1.6 3.4zm3.4 1.4l-.7-.3 2.4-6.5.7.3-2.4 6.5zm3.5 1.1l-.7-.2 1-3.6.7.2-1 3.6zm3.6.7l-.7-.1 1.2-6.8.7.1L57 90zm3.7.5l-.7-.1.3-3.8.7.1-.3 3.8zm3.3.5h-1v-7h1v7zm3.3-.5l-.3-3.8.7-.1.3 3.8-.7.1zm-35.6-9.9L60 44.5l36.1-28.3-27.7 36.7-36.7 27.7zM71 90l-1.2-6.8.7-.1 1.2 6.8-.7.1zm3.6-.7l-1-3.6.7-.2 1 3.6-.7.2zm3.5-1.1l-2.4-6.5.7-.3 2.4 6.5-.7.3zm3.4-1.4l-1.6-3.4.7-.3 1.6 3.4-.7.3zm3.3-1.6l-3.5-6 .7-.4 3.5 6-.7.4zm3.1-2l-2.2-3.1.6-.4 2.2 3.1-.6.4zm3-2.2l-4.4-5.3.6-.5 4.4 5.3-.6.5zm2.7-2.5L91 75.9l.5-.5 2.7 2.7-.6.4zm2.5-2.7l-5.3-4.4.5-.6 5.3 4.4-.5.6zm2.3-2.9l-3.1-2.2.4-.6 3.1 2.2-.4.6zm2-3.1l-6-3.5.4-.7 6 3.5-.4.7zm1.7-3.2L98.7 65l.3-.7 3.4 1.6-.3.7zm1.5-3.4l-6.5-2.4.3-.7 6.5 2.4-.3.7zm1.1-3.5l-3.6-1 .2-.7 3.6 1-.2.7zm.8-3.6l-6.8-1.2.1-.7 6.8 1.2-.1.7zm.6-3.7l-3.8-.3.1-.7 3.8.3-.1.7z" fill="#1B88CA"/></svg>
