<svg xmlns="http://www.w3.org/2000/svg" viewBox="0 0 128 128"><path d="M32.7 112.6c-3.3-1.3-4.8-2.4-4.8-4.7 0-1.7 1.3-3.6 4.6-3.6 2.2 0 3.8.7 4.6 1.2l.9-2.6c-1.1-.6-2.9-1.2-5.4-1.2-4.7 0-7.8 2.8-7.8 6.6 0 3.4 2.4 5.5 6.4 6.9 3.3 1.3 4.6 2.6 4.6 4.8 0 2.4-1.9 4.1-5.1 4.1-2.2 0-4.2-.7-5.6-1.6l-.8 2.6c1.3.9 3.9 1.5 6.2 1.5 5.7 0 8.5-3.2 8.5-7-.1-3.5-2.2-5.4-6.3-7zm22.3 3c0-3.5-1.1-7.1-6.4-7.1-2.2 0-4.2.6-5.6 1.5l.8 2.1c1.2-.8 2.8-1.3 4.4-1.3 3.6 0 3.9 2.6 3.9 4v.4c-6 0-10.3 2.3-10.3 6.5 0 2.5 1.9 4.9 5.4 4.9 2.5 0 4.4-.7 5.4-2.7h.1l.3 2h2.9c-.2-1-.7-2.3-.7-3.8v-6.5zm-3 4.9c0 .3.1.7 0 1-.5 1.5-1.9 2.9-4.1 2.9-1.6 0-3.1-1-3.1-3 0-3.4 4.3-4 7.3-3.9v3zm15.4-17.6c.9 0 1.5.2 2 .4l.4-2.4c-.6-.3-1.6-.5-2.7-.5-1.5 0-3 .5-4.2 1.6-1.5 1.4-1.9 3.6-1.9 6.1v.9h-3v2h3v15h3v-15h4v-2h-4v-1c0-2.7.7-5.1 3.4-5.1zM83 115.6c0-3.5-1.2-7.1-6.5-7.1-2.2 0-4.2.6-5.7 1.5l.8 2.1c1.2-.8 2.9-1.3 4.5-1.3 3.6 0 3.9 2.6 3.9 4v.4c-7 0-10.4 2.3-10.4 6.5 0 2.5 1.8 4.9 5.4 4.9 2.5 0 4.4-.7 5.4-2.7h.1l.3 2h2.9c-.2-1-.5-2.3-.5-3.8v-6.5zm-3 4.9c0 .3 0 .7-.1 1-.5 1.5-1.9 2.9-4.2 2.9-1.6 0-3.1-1-3.1-3 0-3.4 4.3-4 7.3-3.9v3zm11.3-8.5h-.1l-.1-3h-2.8c.1 2-.2 3.3-.2 5.3V126h4v-9c0-.5-.2-1-.1-1.5.4-2.4 1.9-4.1 4.1-4.1.4 0 1 0 1 .1v-3c0-.1-.6-.3-.9-.3-2.2.2-4.2 1.8-4.9 3.8zm8.7-3h3v17h-3zm1.9-7c-1.2 0-2 .9-2 2s.8 1.9 1.9 1.9c1.3 0 2.1-.9 2-1.9 0-1.1-.7-2-1.9-2zM64 2.3c-26.2 0-47.5 21.3-47.5 47.5S37.8 97.3 64 97.3s47.5-21.3 47.5-47.5S90.2 2.3 64 2.3zm0 93.4c-25.3 0-45.9-20.6-45.9-45.9s20.6-46 45.9-46 45.9 20.6 45.9 45.9-20.6 46-45.9 46zM64 7h1v7h-1zm0 78h1v6h-1zm6.898-76.721l.69.121-1.192 6.796-.69-.121zM57.086 91.171l-.689-.121 1.192-6.796.689.121zm20.918-81.096l.658.24-2.365 6.482-.658-.24zM50.026 89.299l-.658-.24 2.365-6.482.658.24zm7.092-81l1.192 6.796-.689.121-1.192-6.796zm13.81 82.793l-1.192-6.797.69-.121 1.192 6.797zM49.977 10.126l2.363 6.483-.658.24-2.363-6.483zm28.087 79.197l-2.363-6.483.658-.24 2.363 6.483zM43.336 13.144l3.464 5.968-.605.351-3.464-5.968zM84.655 86.24l-3.448-5.977.606-.35 3.448 5.977zM37.278 17.31l4.432 5.289-.537.45-4.432-5.289zm53.423 64.761l-4.432-5.289.537-.45 4.432 5.289zM32.062 22.384l5.289 4.432-.45.537-5.289-4.432zm63.895 54.621l-5.289-4.431.45-.537 5.289 4.431zM27.864 28.358l5.977 3.448-.35.606-5.977-3.448zm72.293 42.673l-5.977-3.448.35-.606 5.977 3.448zM24.646 34.939l6.483 2.363-.24.658-6.483-2.363zm78.699 29.479l-6.483-2.363.24-.658 6.483 2.363zM22.721 42.016l6.796 1.192-.121.69-6.796-1.192zm82.613 15.376L98.537 56.2l.121-.69 6.797 1.192zM22 49h7v1h-7zm77 0h7v1h-7zm-76.419 7.599l6.796-1.192.121.69-6.796 1.192zm82.894-13.833l-6.797 1.192-.121-.69 6.797-1.192zm-81.096 20.94l6.483-2.363.24.658-6.483 2.363zm79.232-27.994l-6.483 2.363-.24-.658 6.483-2.363zM27.459 70.349l5.977-3.448.35.606-5.977 3.448zm73.1-41.277l-5.977 3.448-.35-.606 5.977-3.448zM36.896 71.981l.45.536-5.288 4.432-.45-.536zM96.461 22.99l-5.289 4.432-.45-.537 5.289-4.432zM36.753 81.639l4.432-5.289.537.45-4.432 5.289zm54.472-63.886l-4.432 5.289-.537-.45 4.432-5.289zM42.659 85.848l3.464-5.968.605.351-3.464 5.968zm42.676-72.305l-3.448 5.977-.606-.35 3.448-5.977zm-24.597-5.76l.329 3.685-.697.062-.329-3.685zm6.557 83.824l-.329-3.685.697-.062.329 3.685zM53.429 9.005l.991 3.669-.676.183-.991-3.669zm21.115 81.371l-.991-3.669.676-.183.991 3.669zM46.636 11.485l1.606 3.444-.634.296-1.606-3.444zM81.43 87.912l-1.623-3.436.633-.299 1.623 3.436zM40.237 15.043l2.17 3.119-.575.4-2.17-3.119zm47.529 69.244l-2.171-3.119.575-.4 2.171 3.119zM34.546 19.67l2.617 2.616-.495.495-2.617-2.616zm58.908 60.011l-2.617-2.616.495-.495 2.617 2.616zM29.751 25.272l3.119 2.171-.4.575-3.119-2.171zm68.438 48.875l-3.119-2.171.4-.575 3.119 2.171zm-72.13-42.62l3.354 1.563-.296.634-3.354-1.563zm75.86 36.246l-3.436-1.623.299-.633 3.436 1.623zM23.568 38.434l3.669.991-.182.676-3.669-.991zm80.892 22.513l-3.669-.991.183-.676 3.669.991zM22.142 45.629l3.685.329-.062.697-3.685-.329zm83.683 8.131l-3.685-.329.062-.697 3.685.329zm-83.753-.789l3.685-.329.062.697-3.685.329zm83.823-6.558l-3.685.329-.062-.697 3.685-.329zM23.363 60.192l3.669-.991.183.676-3.669.991zM104.666 39.2l-3.669.991-.182-.676 3.669-.991zM25.725 67.147l3.353-1.564.296.634-3.353 1.564zm76.523-34.84l-3.354 1.563-.296-.634 3.354-1.563zM29.302 73.47l3.119-2.171.4.575-3.119 2.171zm69.332-47.589l-3.119 2.171-.4-.575 3.119-2.171zM40.2 84.332l-.574-.4 2.171-3.118.574.4zm47.573-69.329l.573.403-2.185 3.109-.573-.403zM46.545 87.898l-.633-.299 1.622-3.437.633.299zM81.45 11.427l.633.299-1.622 3.436-.633-.299zM53.518 90.354l-.676-.182.991-3.669.676.182zM74.494 9.062l.676.182-.99 3.669-.676-.182zM60.728 91.583l-.697-.062.329-3.685.697.062zm6.54-83.812l.697.062-.329 3.685-.697-.062zM60 45.8L31.9 81.7l36.5-27.5 27.5-36.5z" fill="#1B88CA"/></svg>