<svg width="128" height="128" viewBox="0 0 128 128" fill="none" xmlns="http://www.w3.org/2000/svg">
<path d="M78.6406 0C78.6406 0.226562 78.6406 0.453125 78.6406 0.691406C78.6406 8.79688 72.0703 15.3672 63.9648 15.3672C55.8594 15.3672 49.2891 8.79297 49.2891 0.691406C49.2891 0.453125 49.2891 0.226562 49.2891 0H0V128H128V0H78.6406Z" fill="black"/>
<path d="M29.7344 68.9805H38.2148L44.0078 99.8242H44.1133L51.0742 68.9805H59.0078L65.293 100.203H65.418L72.0195 68.9805H80.3398L69.5273 114.301H61.1094L54.875 83.457H54.7109L48.0391 114.301H39.4609L29.7344 68.9805ZM89.9023 68.9805H103.277L116.559 114.301H107.805L104.918 104.215H89.6836L87.4531 114.301H78.9297L89.9023 68.9805ZM94.9922 80.1523L91.293 96.7773H102.809L98.5625 80.1523H94.9922Z" fill="white"/>
</svg>
