<svg viewBox="0 0 128 128" width="128" height="128" xmlns="http://www.w3.org/2000/svg">
  <path d="M70.856 0 58.422.195a8.62 8.62 0 0 0-8.448 8.676v.015l.133 7.414a48.816 48.816 0 0 0-8.407 3.277l-6.003-5.832h-.005a8.589 8.589 0 0 0-12.116.179l-8.668 8.96-.005.008c-3.246 3.372-3.2 8.832.189 12.099l5.309 5.156a49.111 49.111 0 0 0-3.604 8.259l-8.381.141C3.715 48.614-.059 52.559 0 57.242v.005l.195 12.449v.015a8.617 8.617 0 0 0 8.75 8.394L16.336 78a49.741 49.741 0 0 0 3.295 8.425l-5.829 6.016a8.599 8.599 0 0 0 .179 12.119l8.955 8.671.005.005c3.384 3.259 8.852 3.174 12.122-.21l.005-.005 5.138-5.307a49.037 49.037 0 0 0 8.261 3.602l.141 8.384v.005a8.612 8.612 0 0 0 8.694 8.415l12.447-.195a8.579 8.579 0 0 0 8.397-8.676l-.113-7.404a50.47 50.47 0 0 0 8.389-3.295l6.011 5.834.005.005a8.63 8.63 0 0 0 12.099-.174l.01-.01 8.671-8.96-.01.005a8.586 8.586 0 0 0-.179-12.116l-5.304-5.148a49.362 49.362 0 0 0 3.604-8.266l8.379-.141h.005a8.607 8.607 0 0 0 8.41-8.694l-.195-12.444c-.064-4.71-4.009-8.486-8.694-8.422h-.005l-7.398.105a50.437 50.437 0 0 0-3.297-8.389l5.837-6.016.003-.003c3.251-3.374 3.205-8.837-.184-12.106l-.005-.005-8.95-8.671-.005-.005c-3.372-3.249-8.832-3.2-12.101.184l-5.152 5.316a49.265 49.265 0 0 0-8.282-3.62l-.141-8.387v-.02A8.637 8.637 0 0 0 70.87.005Zm.069 5.215a3.346 3.346 0 0 1 3.417 3.31l.166 10.056 1.905 2.432h-.01l.01.003h.005a44.152 44.152 0 0 1 10.834 4.736l.031.02.036.018 3.133-.425 6.42-6.62.005-.005a3.318 3.318 0 0 1 4.728-.051l8.95 8.671.005.005c1.339 1.288 1.364 3.377.054 4.736l-7.004 7.219-.369 3.08a45.299 45.299 0 0 1 4.303 10.99l.01.044.01.036 2.514 1.905 9.221-.136a3.328 3.328 0 0 1 3.41 3.282v.005l.195 12.442a3.313 3.313 0 0 1-3.29 3.405l-10.066.164-2.404 1.805-.01.038-.02.051a44.25 44.25 0 0 1-4.705 10.813l.371 3.22 6.615 6.42.005.005c1.352 1.306 1.382 3.379.069 4.726l-.005.01-8.66 8.945a3.333 3.333 0 0 1-4.749.069l-7.219-7.004-2.982-.425-.028.018-.041.02a45.294 45.294 0 0 1-11.016 4.321l-.038.01-.041.01-1.9 2.509.141 9.234a3.287 3.287 0 0 1-3.272 3.379l-12.434.197a3.318 3.318 0 0 1-3.405-3.29l-.166-10.076-1.864-2.419-.031-.01a43.93 43.93 0 0 1-10.816-4.721l-.008-.005-.026-.015-3.18.402-6.415 6.625-.005.005a3.354 3.354 0 0 1-4.746.084l-.005-.005-8.95-8.671a3.3 3.3 0 0 1-.069-4.731l.005-.005 7.009-7.235.366-3.072-.015-.038a44.541 44.541 0 0 1-4.291-10.982v-.01l-.01-.041-2.524-1.94-9.226.136h-.015a3.323 3.323 0 0 1-3.43-3.29l-.195-12.426a3.328 3.328 0 0 1 3.279-3.418h.01l10.068-.164 2.435-1.91a44.001 44.001 0 0 1 4.7-10.785l-.361-3.231-6.62-6.42-.005-.01a3.323 3.323 0 0 1-.061-4.728l.005-.005 8.666-8.955a3.297 3.297 0 0 1 4.731-.072v.005l7.224 7.012 2.98.43.031-.02.044-.026a43.72 43.72 0 0 1 11.011-4.299l.026-.005.036-.01 1.938-2.524-.159-9.234a3.32 3.32 0 0 1 3.31-3.397zM71.12.43 58.166.635a6.216 6.198 0 0 0-6.118 6.264l.164 9.562a48.251 48.11 0 0 0-12.157 4.723l-7.492-7.255a6.19 6.17 0 0 0-8.771.131l-9.031 9.3c-2.373 2.458-2.335 6.374.128 8.74l6.866 6.641a48.522 48.381 0 0 0-5.215 11.904l-10.45.177a6.2 6.2 0 0 0-6.095 6.28L.2 70.022a6.216 6.198 0 0 0 6.346 6.065l9.569-.136a49.093 48.947 0 0 0 4.762 12.129l-7.276 7.475a6.19 6.17 0 0 0 .128 8.75l9.326 9.001a6.246 6.246 0 0 0 8.788-.151l6.656-6.851a48.507 48.364 0 0 0 11.945 5.197l.169 10.419a6.211 6.193 0 0 0 6.301 6.08l12.961-.205a6.177 6.159 0 0 0 6.075-6.254l-.146-9.546a49.889 49.741 0 0 0 12.132-4.741l7.501 7.252a6.228 6.211 0 0 0 8.773-.128l9.024-9.298a6.185 6.167 0 0 0-.128-8.745l-6.861-6.636a48.781 48.64 0 0 0 5.21-11.909l10.45-.172A6.211 6.193 0 0 0 128 71.334l-.205-12.915c-.046-3.405-2.893-6.121-6.305-6.075l-9.564.141a49.889 49.741 0 0 0-4.762-12.096l7.276-7.475a6.177 6.177 0 0 0-.128-8.745l-9.326-8.998c-2.463-2.365-6.392-2.33-8.765.125l-6.661 6.838a48.722 48.581 0 0 0-11.968-5.204L77.42 6.506A6.241 6.221 0 0 0 71.122.431Zm2.995 38.331c2.081 0 3.679.364 4.705.75l-.891 2.588a10.79 10.857 0 0 0-3.899-.704c-2.227 0-3.226.896-3.226 1.815 0 1.175 1.085 1.708 3.763 2.629 3.507 1.178 5.076 2.691 5.076 4.851 0 2.865-2.885 4.966-7.987 4.966-2.168 0-4.352-.448-5.376-.916l.819-2.655c1.139.512 2.967.924 4.736.924 2.335 0 3.558-.84 3.558-2.061 0-1.175-1.05-1.876-3.474-2.67-3.306-1.066-5.359-2.608-5.359-4.748 0-2.693 2.824-4.769 7.555-4.769zm-34.235.11c2.765 0 8.351.259 8.351 4.664 0 2.01-1.71 3.482-3.761 4.081v.064c1.539.448 2.391 1.559 2.906 3.226.625 1.946 1.198 3.914 1.626 4.534h-4.326c-.315-.468-.858-1.894-1.37-3.884-.571-2.117-1.457-2.785-3.451-2.785h-1.428v6.669h-4.186V39.215a45.199 45.199 0 0 1 5.64-.343zm11.86.133h11.802v2.647h-7.583v3.978h7.15v2.586h-7.147v4.575h8.036v2.655H51.743zm29.35 0h15.025v2.732h-5.414V55.44h-4.224V41.736h-5.389zM40.366 41.29c-.942 0-1.6.038-1.94.125v5.005h1.741c2.391 0 3.848-1.044 3.848-2.606 0-2.115-2.109-2.524-3.648-2.524zm-.015 19.876h9.446l10.458 28.503h-9.037l-1.382-4.7h-9.772l-1.408 4.7h-8.812zm21.944 0h14.346c3.128 0 5.473.75 7.025 2.268 1.549 1.521 2.33 3.697 2.33 6.495 0 2.885-.85 5.138-2.545 6.761-1.695 1.626-4.291 2.432-7.77 2.432h-4.736v10.547h-8.65zm27.19 0h8.653v28.503h-8.653zm-18.54 5.814v6.364h2.125c1.674 0 2.852-.289 3.53-.888.676-.589 1.019-1.354 1.019-2.266a3.2 3.2 0 0 0-.883-2.276c-.584-.614-1.692-.934-3.315-.934zm-25.984 1.562-3.062 10.253h6.111z"/>
</svg>