<svg xmlns="http://www.w3.org/2000/svg" width="128.244" height="128.244" viewBox="0 0 33.931 33.931"><path style="opacity:1;fill:none;fill-opacity:1;stroke:none;stroke-width:1.32291663;stroke-miterlimit:4;stroke-dasharray:none;stroke-opacity:1" d="M108.89 106.454h33.867v33.867H108.89z" transform="translate(-109.269 -107.035)"/><path style="fill:#000;stroke-width:.11045345" d="M121.189 107.816c-2.16-.497-3.885-1.471-5.318-3.005-1.299-1.391-1.696-2.393-2.133-5.376-.414-2.826-.622-9.85-.342-11.534.28-1.685.935-2.976 2.04-4.022 1.6-1.513 3.62-2.245 6.107-2.212l8.44.006-8.352.096c-2.733.213-4.494.86-5.91 2.17-.938.869-1.564 1.879-1.903 3.073-.24.843-.25 1.045-.241 4.801.012 5.118.306 8.191.996 10.391.576 1.837 2.347 3.655 4.522 4.641.87.395 2.577.843 3.696.971l.828.095-.917.024c-.547.002-1.27-.064-1.513-.12zm4.915.008c1.15-.142 2.89-.604 3.631-.964l.622-.301.032-.911c.036-1.043.125-.984-1.118-.746-1.487.284-3.92.426-4.956.288-1.693-.226-2.878-1.056-3.243-2.271-.225-.748-.317-1.454-.2-1.525.053-.032.568.034 1.145.146 2.547.495 6.565.512 9.72.04 3.403-.508 5.242-1.937 5.986-4.65.218-.796.24-1.196.283-5.061.039-3.577.02-4.31-.131-4.96-.264-1.134-.766-1.994-1.715-2.94-.91-.907-1.947-1.502-3.152-1.808-.63-.16-2.428-.362-3.866-.434-.365-.019.014-.043.841-.054 2.06-.03 3.17.174 4.516.827.832.403 1.21.67 1.831 1.293 1.864 1.871 2.098 3.004 1.923 9.29-.099 3.523-.168 3.966-.824 5.302-.68 1.387-1.996 2.472-3.62 2.985-2.592.818-8.133 1.06-11.395.498-.723-.124-1.331-.21-1.352-.19-.02.02.04.332.134.692.322 1.238.88 1.877 2.036 2.332.728.286 4.244.278 5.8-.014 1.7-.319 1.54-.41 1.577.9l.031 1.129-.528.267c-1.127.57-2.477.889-3.769.925-1.196.034-1.054.016-.239-.085zm-8.393-14.16c.001-4.363.039-4.75.551-5.749.364-.707 1.164-1.46 1.92-1.807.589-.27.81-.31 1.725-.311.9 0 1.137.04 1.662.285.806.377 1.343.862 1.834 1.657.22.358.417.65.435.65.02 0 .255-.341.525-.758.768-1.188 1.637-1.72 3.01-1.848 2.098-.195 3.847 1.04 4.42 3.121.187.676.209 1.178.209 4.787v4.032l-1.513.03-1.512.031-.034-3.952c-.03-3.53-.055-3.99-.23-4.309-.332-.608-1.175-.902-1.976-.688-.606.16-.84.368-1.124.99-.198.435-.234.794-.288 2.872l-.061 2.375h-2.872l-.059-2.43c-.065-2.668-.131-2.98-.744-3.496-.637-.537-1.8-.497-2.378.08-.453.453-.52 1.086-.52 4.968v3.584h-2.981v-4.115zm2.782.055c.032-3.687.043-3.856.271-4.28.59-1.094 2.298-1.245 3.17-.28.523.579.624 1.17.624 3.654v2.093h2.518l.039-2.347c.037-2.243.05-2.372.315-2.9.32-.638.813-1.008 1.48-1.108 1-.15 1.919.383 2.161 1.255.066.238.113 1.923.113 4.078l.001 3.673h2.54l.026-3.01c.044-5.09-.038-5.803-.797-6.948-.71-1.072-2.219-1.736-3.61-1.587-1.343.144-2.276.808-3.069 2.184-.166.289-.36.525-.432.525-.07 0-.291-.272-.49-.604-.742-1.241-1.324-1.712-2.48-2.008-.78-.2-1.594-.153-2.457.142-.78.266-1.808 1.308-2.163 2.194-.262.653-.266.722-.3 4.887l-.034 4.225h2.541z" transform="translate(-109.23 -78.45)"/><path style="opacity:1;fill:none;fill-opacity:1;stroke:#000;stroke-width:.11603689;stroke-miterlimit:4;stroke-dasharray:none;stroke-opacity:1" d="M121.175 81.755h9.218v.003h-9.218z" transform="translate(-109.23 -78.45)"/><path style="opacity:1;fill:none;fill-opacity:1;stroke:#000;stroke-width:.0523061;stroke-miterlimit:4;stroke-dasharray:none;stroke-opacity:1" d="M121.143 81.697h9.282v.001h-9.282z" transform="translate(-109.23 -78.45)"/><path style="opacity:1;fill:none;fill-opacity:1;stroke:#000;stroke-width:.07533712;stroke-miterlimit:4;stroke-dasharray:none;stroke-opacity:1" d="M124.197 102.085h2.769v.002h-2.769z" transform="translate(-110.694 -72.638)"/></svg>