<?xml version="1.0" encoding="UTF-8" standalone="no"?>
<svg
   width="128"
   height="128"
   viewBox="0 0 128 128"
   version="1.1"
   id="svg7"
   sodipodi:docname="Protocol Buffer.svg"
   inkscape:version="1.3.2 (091e20e, 2023-11-25, custom)"
   xmlns:inkscape="http://www.inkscape.org/namespaces/inkscape"
   xmlns:sodipodi="http://sodipodi.sourceforge.net/DTD/sodipodi-0.dtd"
   xmlns="http://www.w3.org/2000/svg"
   xmlns:svg="http://www.w3.org/2000/svg"
   xmlns:rdf="http://www.w3.org/1999/02/22-rdf-syntax-ns#"
   xmlns:cc="http://creativecommons.org/ns#"
   xmlns:dc="http://purl.org/dc/elements/1.1/">
  <defs
     id="defs7" />
  <sodipodi:namedview
     id="namedview7"
     pagecolor="#ffffff"
     bordercolor="#111111"
     borderopacity="1"
     inkscape:showpageshadow="0"
     inkscape:pageopacity="0"
     inkscape:pagecheckerboard="1"
     inkscape:deskcolor="#d1d1d1"
     inkscape:zoom="6.0234375"
     inkscape:cx="74.293126"
     inkscape:cy="62.837873"
     inkscape:window-width="1920"
     inkscape:window-height="1009"
     inkscape:window-x="-8"
     inkscape:window-y="-8"
     inkscape:window-maximized="1"
     inkscape:current-layer="svg7" />
  <title
     id="title1">file_type_protobuf</title>
  <polygon
     points="16,28.78 5.038,22.408 5.034,9.628 15.996,3.22 26.966,9.7 26.954,22.3 "
     style="fill:#ffffff"
     id="polygon1"
     transform="matrix(4.5714286,0,0,4.5714286,-9.142856,-9.1428571)" />
  <path
     d="M 64.000001,0 9.08343,32.091429 v 64 L 64.000001,128 118.85714,95.542857 l 0.0594,-63.085714 z m 50.075429,92.8 -50.075429,29.62286 -50.112,-29.129146 V 34.870857 L 64.000001,5.5771429 114.13029,35.2 Z"
     style="fill:#171c1e;stroke-width:4.57143"
     id="path1" />
  <polygon
     points="19.946,16.964 19.943,24.89 25.59,21.565 25.569,13.654 "
     style="fill:#1ea8ff"
     id="polygon2"
     transform="matrix(4.5714286,0,0,4.5714286,-9.142856,-9.1428571)" />
  <polygon
     points="19.943,24.89 17.327,23.37 17.348,15.875 23.282,12.303 25.569,13.654 19.946,16.964 "
     style="fill:#50bfff"
     id="polygon3"
     transform="matrix(4.5714286,0,0,4.5714286,-9.142856,-9.1428571)" />
  <polygon
     points="16.418,23.597 14.998,24.431 14.994,14.856 22.512,10.35 22.514,11.816 16.411,15.498 "
     style="fill:#97ff27"
     id="polygon4"
     transform="matrix(4.5714286,0,0,4.5714286,-9.142856,-9.1428571)" />
  <polygon
     points="14.998,24.431 12.194,22.801 12.189,13.413 20.008,8.871 22.512,10.35 14.994,14.856 "
     style="fill:#c2ff72"
     id="polygon5"
     transform="matrix(4.5714286,0,0,4.5714286,-9.142856,-9.1428571)" />
  <polygon
     points="11.21,23.172 9.808,23.988 9.835,12.277 19.226,6.606 19.226,8.374 11.21,13.074 "
     style="fill:#ff274b"
     id="polygon6"
     transform="matrix(4.5714286,0,0,4.5714286,-9.142856,-9.1428571)" />
  <polygon
     points="9.827,23.988 9.835,12.277 19.235,6.606 16.16,4.784 6.53,10.394 6.529,22.071 "
     style="fill:#ff5c77"
     id="polygon7"
     transform="matrix(4.5714286,0,0,4.5714286,-9.142856,-9.1428571)" />
  <metadata
     id="metadata7">
    <rdf:RDF>
      <cc:Work
         rdf:about="">
        <dc:title>file_type_protobuf</dc:title>
      </cc:Work>
    </rdf:RDF>
  </metadata>
</svg>
