<svg xmlns="http://www.w3.org/2000/svg" xmlns:xlink="http://www.w3.org/1999/xlink" width="1080" zoomAndPan="magnify" viewBox="0 0 810 809.999993" height="1080" preserveAspectRatio="xMidYMid meet" version="1.0"><defs><clipPath id="0cad12f824"><path d="M 199.046875 199.046875 L 610.796875 199.046875 L 610.796875 610.796875 L 199.046875 610.796875 Z M 199.046875 199.046875 " clip-rule="nonzero"/></clipPath></defs><g clip-path="url(#0cad12f824)"><path fill="#000000" d="M 203.929688 299.671875 C 207.820312 248.328125 248.328125 207.820312 299.671875 203.929688 C 334.324219 201.304688 373.324219 199.046875 404.921875 199.046875 C 436.519531 199.046875 475.519531 201.304688 510.171875 203.929688 C 561.515625 207.820312 602.023438 248.328125 605.914062 299.671875 C 608.539062 334.324219 610.796875 373.324219 610.796875 404.921875 C 610.796875 436.519531 608.539062 475.519531 605.914062 510.171875 C 602.023438 561.515625 561.515625 602.023438 510.171875 605.914062 C 475.519531 608.539062 436.519531 610.796875 404.921875 610.796875 C 373.324219 610.796875 334.324219 608.539062 299.671875 605.914062 C 248.328125 602.023438 207.820312 561.515625 203.929688 510.171875 C 201.304688 475.519531 199.046875 436.519531 199.046875 404.921875 C 199.046875 373.324219 201.304688 334.324219 203.929688 299.671875 Z M 203.929688 299.671875 " fill-opacity="1" fill-rule="nonzero"/></g><path fill="#ffffff" d="M 418.644531 310.441406 C 366.464844 310.441406 324.167969 352.742188 324.167969 404.921875 C 324.167969 437.898438 341.054688 466.929688 366.6875 483.84375 C 370.21875 486.175781 371.195312 490.925781 368.863281 494.457031 C 366.535156 497.988281 361.78125 498.960938 358.25 496.632812 C 328.503906 477.003906 308.847656 443.261719 308.847656 404.921875 C 308.847656 344.28125 358.003906 295.121094 418.644531 295.121094 C 430.765625 295.121094 442.441406 297.089844 453.363281 300.726562 C 456.117188 301.640625 458.113281 304.035156 458.527344 306.90625 C 458.9375 309.777344 457.691406 312.636719 455.308594 314.289062 C 434.679688 328.59375 421.199219 352.414062 421.199219 379.386719 C 421.199219 423.101562 456.648438 458.546875 500.363281 458.546875 C 503.269531 458.546875 505.921875 460.183594 507.21875 462.78125 C 508.515625 465.378906 508.234375 468.484375 506.492188 470.804688 C 486.472656 497.457031 454.574219 514.722656 418.644531 514.722656 C 413.054688 514.722656 407.558594 514.304688 402.1875 513.496094 C 398.003906 512.867188 395.121094 508.964844 395.75 504.78125 C 396.378906 500.597656 400.28125 497.714844 404.464844 498.34375 C 409.085938 499.039062 413.820312 499.398438 418.644531 499.398438 C 444.308594 499.398438 467.582031 489.175781 484.613281 472.558594 C 439.929688 465.058594 405.878906 426.199219 405.878906 379.386719 C 405.878906 352.867188 416.8125 328.898438 434.394531 311.746094 C 429.277344 310.890625 424.015625 310.441406 418.644531 310.441406 Z M 418.644531 310.441406 " fill-opacity="1" fill-rule="evenodd"/></svg>