<?xml version="1.0" encoding="utf-8"?>
<!-- Generator: Adobe Illustrator 26.1.0, SVG Export Plug-In . SVG Version: 6.00 Build 0)  -->
<svg version="1.1" id="Layer_1" xmlns="http://www.w3.org/2000/svg" xmlns:xlink="http://www.w3.org/1999/xlink" x="0px" y="0px"
	 viewBox="0 0 128 128" style="enable-background:new 0 0 128 128;" xml:space="preserve">
<style type="text/css">
	.st0{fill:#010101;}
	.st1{fill:#FFFFFF;}
</style>
<g>
	<path class="st0" d="M1.78,40.96h25.71v25.71H1.78V40.96z"/>
	<path class="st1" d="M4.99,61.81h9.64v1.61H4.99V61.81z M4.99,44.14H9.4c1.03-0.06,2.05,0.29,2.82,0.98
		c0.56,0.59,0.86,1.39,0.83,2.21v0.03c0.07,1.35-0.78,2.58-2.07,3l2.36,3.45h-2.49l-2.07-3.09H7.11v3.09H4.99
		C4.99,53.81,4.99,44.14,4.99,44.14z M9.28,48.85c1.04,0,1.63-0.55,1.63-1.37v-0.03c0-0.91-0.64-1.38-1.68-1.38H7.11v2.78
		C7.11,48.85,9.28,48.85,9.28,48.85z M14.82,44.14h3.78c3.04,0,5.14,2.09,5.14,4.81v0.03c0,2.73-2.1,4.84-5.14,4.84h-3.78V44.14z
		 M16.96,46.06v5.83h1.65c1.52,0.09,2.82-1.07,2.91-2.59c0.01-0.1,0.01-0.2,0-0.3v-0.03c0.04-0.78-0.25-1.55-0.81-2.1
		s-1.32-0.85-2.1-0.81C18.6,46.06,16.96,46.06,16.96,46.06z"/>
	<path class="st0" d="M37.22,40.91h11.75c3.27,0,5.8,0.92,7.49,2.61c1.43,1.43,2.2,3.45,2.2,5.88v0.07c0,4.15-2.24,6.76-5.51,7.97
		l6.27,9.18h-6.6l-5.51-8.22h-4.44v8.22h-5.66C37.22,66.62,37.22,40.91,37.22,40.91z M48.6,53.4c2.75,0,4.33-1.47,4.33-3.63v-0.07
		c0-2.43-1.69-3.67-4.44-3.67h-5.62v7.38H48.6z M61.26,39.81h5.88v4.96h-5.88C61.26,44.77,61.26,39.81,61.26,39.81z M61.4,46.93
		h5.57v19.68H61.4V46.93z M69.54,56.81v-0.07c0-6.57,4.29-10.17,8.96-10.17c2.39-0.05,4.67,1.04,6.13,2.94v-9.69h5.57v26.81h-5.57
		v-2.83c-1.36,1.84-3.23,3.2-6.13,3.2C73.91,66.98,69.54,63.38,69.54,56.81z M84.7,56.81v-0.07c0-3.27-2.16-5.43-4.77-5.43
		s-4.81,2.14-4.81,5.43v0.07c0,3.27,2.2,5.43,4.81,5.43S84.7,60.08,84.7,56.81z M92.6,56.88v-0.07c0-5.62,4-10.25,9.73-10.25
		c6.57,0,9.59,5.1,9.59,10.69c0,0.43-0.04,0.96-0.08,1.47H98.13c0.55,2.53,2.31,3.86,4.81,3.86c1.87,0,3.23-0.59,4.77-2.02
		l3.19,2.83c-1.83,2.28-4.48,3.67-8.04,3.67C96.97,67.06,92.6,62.9,92.6,56.88z M106.48,55.23c-0.33-2.49-1.8-4.2-4.15-4.2
		s-3.82,1.65-4.26,4.19L106.48,55.23z M114.37,46.93h5.57v3.97c1.14-2.72,2.97-4.48,6.28-4.34v5.84h-0.3c-3.71,0-6,2.24-6,6.94v7.29
		h-5.57L114.37,46.93z M38.21,84.71v1.32h-1.02v-9.71h1.02v4.21c0.55-0.94,1.55-1.51,2.63-1.53c1.65,0,3.28,1.29,3.28,3.56v0.03
		c0,2.25-1.62,3.57-3.28,3.57C39.77,86.16,38.78,85.62,38.21,84.71z M43.07,82.61v-0.03c0-1.62-1.12-2.66-2.42-2.66
		c-1.42,0.05-2.53,1.23-2.49,2.64v0.03c-0.05,1.42,1.06,2.61,2.48,2.66c0,0,0,0,0.01,0C41.98,85.25,43.07,84.27,43.07,82.61z
		 M50.64,79.16h1.09l-2.88,7.1c-0.59,1.42-1.25,1.94-2.29,1.94c-0.51,0-1.01-0.11-1.46-0.34l0.35-0.81c0.33,0.18,0.7,0.27,1.08,0.25
		c0.61,0,0.99-0.32,1.41-1.29l-3.12-6.86h1.13l2.5,5.74C48.44,84.88,50.64,79.16,50.64,79.16z M56.61,84.51l0.75-0.65
		c0.57,0.86,1.16,1.33,2.14,1.33c1.05,0,1.82-0.76,1.82-2.23v-6.21h1.06v6.22c0.05,0.9-0.26,1.78-0.86,2.45
		c-0.55,0.52-1.29,0.8-2.05,0.77C58.28,86.21,57.17,85.56,56.61,84.51z M64.27,82.61v-0.03c0-1.98,1.39-3.57,3.3-3.57
		c2.03,0,3.2,1.62,3.2,3.63c0.01,0.11,0.01,0.22,0,0.33h-5.46c0.04,1.3,1.11,2.34,2.42,2.32c0.83,0.01,1.62-0.35,2.16-0.97
		l0.64,0.57c-0.69,0.84-1.74,1.32-2.83,1.29c-0.93,0-1.83-0.38-2.48-1.05C64.58,84.45,64.23,83.54,64.27,82.61z M69.73,82.21
		c-0.11-1.25-0.82-2.34-2.19-2.34c-1.2,0-2.1,1-2.23,2.34C65.31,82.21,69.73,82.21,69.73,82.21z M72.67,84.2v-4.14h-0.96v-0.9h0.96
		v-2.07h1.02v2.07h2.18v0.9h-2.18v4.01c-0.04,0.32,0.06,0.64,0.29,0.86c0.23,0.23,0.55,0.33,0.87,0.28c0.35,0,0.69-0.08,0.99-0.24
		v0.86c-0.38,0.2-0.8,0.3-1.23,0.3C73.5,86.14,72.67,85.6,72.67,84.2z M77.55,76.74h3.96c0.89-0.05,1.76,0.25,2.43,0.83
		c0.39,0.39,0.61,0.93,0.6,1.49v0.03c0.02,0.96-0.58,1.82-1.47,2.14c1.1,0.33,1.99,0.97,1.99,2.25v0.03c0,1.59-1.34,2.54-3.38,2.54
		h-4.13C77.55,86.04,77.55,76.74,77.55,76.74z M83.47,79.2c0-0.92-0.73-1.51-2.06-1.51h-2.83v3.2h2.75c1.26,0,2.14-0.57,2.14-1.66
		C83.48,79.23,83.47,79.2,83.47,79.2z M81.52,81.82h-2.94v3.28h3.12c1.41,0,2.28-0.63,2.28-1.66v-0.03c0-1.03-0.84-1.62-2.47-1.62
		V81.82z M87,79.16h1.02v1.79c0.44-1.17,1.56-1.93,2.8-1.91v1.1h-0.08c-1.5,0-2.72,1.08-2.72,3.15v2.74H87
		C87,86.02,87,79.16,87,79.16z M91.64,84.03c0-1.45,1.2-2.22,2.94-2.22c0.71-0.01,1.43,0.09,2.11,0.29v-0.24
		c0-1.23-0.76-1.87-2.05-1.87c-0.72,0.01-1.44,0.18-2.08,0.51l-0.31-0.86c0.78-0.38,1.63-0.57,2.5-0.57
		c0.81-0.06,1.61,0.21,2.22,0.76c0.5,0.54,0.75,1.27,0.7,2.01v4.2H96.7v-1.04c-0.59,0.77-1.51,1.21-2.49,1.18
		C92.93,86.17,91.64,85.44,91.64,84.03z M96.7,83.5v-0.66c-0.66-0.19-1.33-0.29-2.02-0.3c-1.29,0-2.01,0.56-2.01,1.42v0.03
		c0,0.86,0.8,1.37,1.71,1.37C95.66,85.36,96.7,84.59,96.7,83.5z M99.74,76.52h1.17v1.13h-1.17V76.52z M99.8,79.16h1.02v6.86H99.8
		V79.16z M103.04,79.16h1.02v1.2c0.47-0.85,1.38-1.37,2.35-1.34c1.66,0,2.63,1.11,2.63,2.75v4.29h-1.02v-4.02
		c0-1.29-0.69-2.07-1.9-2.07c-1.12-0.02-2.04,0.87-2.06,1.98c0,0.05,0,0.11,0,0.16v3.93h-1.02V79.16z M110.52,85.15l0.52-0.73
		c0.68,0.53,1.51,0.83,2.38,0.86c0.83,0,1.42-0.43,1.42-1.09v-0.03c0-0.69-0.81-0.96-1.71-1.21c-1.08-0.31-2.27-0.68-2.27-1.94
		v-0.03c0-1.18,0.98-1.97,2.34-1.97c0.88,0.02,1.73,0.28,2.47,0.76l-0.46,0.77c-0.6-0.41-1.3-0.64-2.03-0.67
		c-0.81,0-1.33,0.43-1.33,1v0.03c0,0.65,0.86,0.9,1.77,1.18c1.06,0.32,2.21,0.73,2.21,1.97v0.03c0,1.29-1.08,2.06-2.45,2.06
		C112.34,86.13,111.34,85.78,110.52,85.15z"/>
</g>
</svg>
