<svg version="1.1" xmlns="http://www.w3.org/2000/svg" width="128px" height="128px" fill="#010101">
	<path d="M82.2,28.2h-7.4V55h7.4c6.9,0.5,12.9-5.1,13.4-12c0-0.5,0-0.9,0-1.4l0,0c0-3.7-0.9-6.9-3.7-9.7
			C89.2,29.1,85.9,27.7,82.2,28.2z" />
	<path d="M4.6,4.6v118.7h118.7V4.6H4.6z M19.4,19h20.3c4.6-0.5,9.2,1.4,12.9,4.6c2.8,2.8,4.2,6.5,3.7,10.2l0,0
			c0.5,6.5-3.7,12-9.7,13.9l11.1,16.2H46.2l-9.7-14.3h-7.4v14.3h-9.7V19z M63.8,108.1H19.4v-7.4h44.4V108.1z M105.8,41.6
			c0,12.5-9.7,22.2-23.6,22.2H64.7V19h17.6C96.1,19,105.8,28.7,105.8,41.6L105.8,41.6z" />
	<path d="M46.7,34.7L46.7,34.7c0-4.2-2.8-6.5-7.9-6.5h-9.7v12.9h10.2C43.9,40.7,46.7,38.4,46.7,34.7z" />
</svg>
