<svg xmlns="http://www.w3.org/2000/svg" viewBox="0 0 128 128">
    <path d="M8.52 43.938h22.722V66.66H8.52Zm0 0"/>
    <path fill="#fff" d="M11.352 62.363h8.523v1.422h-8.523Zm.007-15.617h3.899a3.395 3.395 0 0 1 2.492.867c.5.528.762 1.23.734 1.953v.024a2.655 2.655 0 0 1-1.832 2.652l2.086 3.051h-2.195l-1.836-2.734H13.23v2.734h-1.87Zm3.79 4.168c.914 0 1.44-.492 1.44-1.21v-.024c0-.805-.562-1.223-1.48-1.223H13.23v2.457Zm4.89-4.168h3.34c2.683 0 4.543 1.844 4.543 4.25v.024c0 2.406-1.856 4.273-4.543 4.273h-3.34Zm1.895 1.695v5.153h1.453a2.442 2.442 0 0 0 2.578-2.555v-.02a2.444 2.444 0 0 0-.719-1.859 2.444 2.444 0 0 0-1.86-.719Zm0 0"/>
    <path d="M39.836 43.895h10.383c2.89 0 5.129.812 6.62 2.304 1.266 1.262 1.946 3.051 1.946 5.192v.062c0 3.672-1.976 5.973-4.867 7.043l5.539 8.113h-5.828l-4.867-7.265h-3.926v7.265h-5Zm10.062 11.03c2.43 0 3.829-1.296 3.829-3.21v-.063c0-2.144-1.493-3.246-3.93-3.246h-4.961v6.52Zm11.184-12.003h5.191v4.383h-5.191Zm.129 6.293h4.922v17.394H61.21Zm7.187 8.73v-.066c0-5.809 3.786-8.988 7.918-8.988a6.676 6.676 0 0 1 5.418 2.597v-8.566h4.922v23.687h-4.922v-2.5c-1.199 1.625-2.855 2.825-5.418 2.825-4.058 0-7.918-3.18-7.918-8.989Zm13.399 0v-.066c0-2.887-1.91-4.8-4.215-4.8-2.309 0-4.25 1.894-4.25 4.8v.066c0 2.89 1.945 4.801 4.25 4.801 2.3 0 4.215-1.91 4.215-4.8Zm6.98.063v-.063c0-4.965 3.54-9.054 8.602-9.054 5.808 0 8.473 4.507 8.473 9.445 0 .379-.036.844-.07 1.297H93.663c.488 2.238 2.043 3.41 4.254 3.41 1.652 0 2.855-.52 4.219-1.785l2.82 2.5c-1.621 2.012-3.957 3.246-7.105 3.246-5.211-.004-9.075-3.676-9.075-8.996Zm12.266-1.457c-.29-2.2-1.586-3.715-3.664-3.715-2.078 0-3.375 1.457-3.766 3.7Zm6.969-7.336h4.922v3.508c1.007-2.407 2.629-3.961 5.554-3.832v5.16h-.261c-3.278 0-5.301 1.98-5.301 6.133v6.437H108ZM40.715 82.598v1.164h-.906V75.18h.906v3.722a2.719 2.719 0 0 1 2.324-1.347c1.453 0 2.898 1.136 2.898 3.144v.024c0 1.984-1.433 3.16-2.898 3.16a2.738 2.738 0 0 1-2.324-1.285Zm4.297-1.856v-.023c0-1.434-.989-2.348-2.14-2.348a2.273 2.273 0 0 0-2.196 2.336v.023c-.02.602.199 1.192.613 1.63.41.44.98.699 1.582.718 1.176 0 2.14-.867 2.14-2.336Zm6.687-3.05h.961l-2.543 6.269c-.52 1.254-1.105 1.71-2.023 1.71a2.78 2.78 0 0 1-1.29-.3l.305-.719c.293.157.621.235.953.223.54 0 .876-.281 1.243-1.137l-2.758-6.058h.996l2.207 5.074Zm5.274 4.726.664-.574c.508.758 1.023 1.18 1.894 1.18.93 0 1.606-.672 1.606-1.973v-5.492h.941v5.496a2.966 2.966 0 0 1-.758 2.16c-.492.46-1.14.703-1.812.683a2.805 2.805 0 0 1-2.535-1.48Zm6.77-1.676v-.023c0-1.75 1.23-3.156 2.913-3.156 1.793 0 2.828 1.43 2.828 3.203.004.097.004.195 0 .293H64.66a2.117 2.117 0 0 0 2.133 2.054 2.503 2.503 0 0 0 1.914-.855l.563.504a3.14 3.14 0 0 1-2.497 1.136 3.019 3.019 0 0 1-2.187-.933 3.014 3.014 0 0 1-.844-2.223Zm4.823-.351c-.093-1.106-.726-2.067-1.933-2.067-1.063 0-1.856.88-1.973 2.067Zm2.594 1.761v-3.664h-.844v-.797h.844v-1.836h.906v1.836h1.922v.797h-1.922v3.547a.895.895 0 0 0 1.024 1.008c.305.004.605-.07.879-.211v.758a2.315 2.315 0 0 1-1.094.262c-.977.015-1.715-.465-1.715-1.7Zm4.313-6.593h3.5a3.01 3.01 0 0 1 2.152.73c.344.348.535.824.527 1.313v.023a1.988 1.988 0 0 1-1.304 1.895c.972.293 1.761.859 1.761 1.984v.027c0 1.406-1.183 2.242-2.984 2.242h-3.652Zm5.238 2.171c0-.808-.645-1.335-1.82-1.335h-2.5v2.828h2.43c1.117 0 1.894-.508 1.894-1.47Zm-1.727 2.317h-2.593v2.898h2.757c1.243 0 2.02-.55 2.02-1.468v-.024c.004-.91-.746-1.426-2.184-1.426Zm4.84-2.356h.906v1.582a2.599 2.599 0 0 1 2.477-1.691v.977h-.074c-1.324 0-2.403.949-2.403 2.78v2.423h-.906Zm4.106 4.305c0-1.281 1.058-1.96 2.593-1.96a6.415 6.415 0 0 1 1.868.257v-.215c0-1.09-.668-1.652-1.809-1.652-.64.008-1.27.16-1.84.445l-.273-.758a5.072 5.072 0 0 1 2.207-.504 2.653 2.653 0 0 1 1.96.672c.442.48.665 1.121.622 1.774v3.71h-.856v-.917a2.655 2.655 0 0 1-2.195 1.047c-1.14-.004-2.277-.653-2.277-1.899Zm4.472-.465v-.59a6.264 6.264 0 0 0-1.785-.257c-1.133 0-1.773.496-1.773 1.254v.023c0 .758.703 1.21 1.511 1.21 1.13 0 2.047-.679 2.047-1.64Zm2.68-6.168h1.035v.996h-1.035Zm.063 2.328h.902v6.059h-.902Zm2.855 0h.906v1.055a2.289 2.289 0 0 1 2.078-1.183c1.47 0 2.325.984 2.325 2.43v3.788h-.907v-3.55c0-1.137-.609-1.829-1.675-1.829a1.79 1.79 0 0 0-1.715 1.168c-.086.23-.121.48-.106.727v3.476H98Zm6.617 5.293.457-.644a3.542 3.542 0 0 0 2.102.758c.73 0 1.258-.38 1.258-.961v-.024c0-.61-.715-.843-1.516-1.066-.95-.274-2.008-.602-2.008-1.719v-.02c0-1.046.867-1.738 2.067-1.738a4.123 4.123 0 0 1 2.183.668l-.41.684a3.432 3.432 0 0 0-1.793-.594c-.723 0-1.18.379-1.18.883v.023c0 .579.758.801 1.567 1.047.937.281 1.949.649 1.949 1.739v.023c0 1.133-.953 1.82-2.164 1.82a4.182 4.182 0 0 1-2.512-.879Zm0 0"/>
</svg>
