<?xml version="1.0" encoding="UTF-8"?>
<svg xmlns="http://www.w3.org/2000/svg" xmlns:xlink="http://www.w3.org/1999/xlink" width="128px" height="128px" viewBox="0 0 128 128" version="1.1">
<g id="surface1">
<path style=" stroke:none;fill-rule:evenodd;fill:rgb(99.607843%,99.607843%,99.607843%);fill-opacity:1;" d="M -0.34375 -0.238281 C 33.199219 -0.238281 66.738281 -0.238281 100.277344 -0.238281 C 100.277344 0.078125 100.050781 0.238281 99.59375 0.238281 C 66.503906 24.824219 33.648438 49.570312 1.027344 74.46875 C 0.570312 74.46875 0.34375 74.625 0.34375 74.945312 C 0.113281 74.945312 -0.113281 74.945312 -0.34375 74.945312 C -0.34375 49.882812 -0.34375 24.824219 -0.34375 -0.238281 Z M -0.34375 -0.238281 "/>
<path style=" stroke:none;fill-rule:evenodd;fill:rgb(99.607843%,99.607843%,99.607843%);fill-opacity:1;" d="M 100.277344 -0.238281 C 109.40625 -0.238281 118.53125 -0.238281 127.65625 -0.238281 C 127.65625 17.050781 127.65625 34.339844 127.65625 51.628906 C 109.859375 51.628906 92.0625 51.628906 74.265625 51.628906 C 74.265625 50.992188 74.265625 50.359375 74.265625 49.726562 C 82.445312 33.140625 90.890625 16.644531 99.59375 0.238281 C 100.050781 0.238281 100.277344 0.078125 100.277344 -0.238281 Z M 100.277344 -0.238281 "/>
<path style=" stroke:none;fill-rule:evenodd;fill:rgb(28.235294%,63.921569%,97.254902%);fill-opacity:1;" d="M 99.59375 0.238281 C 90.890625 16.644531 82.445312 33.140625 74.265625 49.726562 C 73.558594 50.40625 73.101562 51.199219 72.898438 52.105469 C 90.695312 52.421875 108.492188 52.738281 126.289062 53.054688 C 93.6875 77.859375 60.945312 102.605469 28.0625 127.285156 C 36.394531 110.308594 44.953125 93.339844 53.734375 76.371094 C 54.304688 76.210938 54.535156 75.890625 54.417969 75.421875 C 36.621094 75.101562 18.824219 74.785156 1.027344 74.46875 C 33.648438 49.570312 66.503906 24.824219 99.59375 0.238281 Z M 99.59375 0.238281 "/>
<path style=" stroke:none;fill-rule:evenodd;fill:rgb(87.45098%,93.72549%,99.215686%);fill-opacity:1;" d="M 74.265625 49.726562 C 74.265625 50.359375 74.265625 50.992188 74.265625 51.628906 C 92.0625 51.628906 109.859375 51.628906 127.65625 51.628906 C 127.65625 51.945312 127.65625 52.261719 127.65625 52.578125 C 127.429688 52.578125 127.203125 52.578125 126.972656 52.578125 C 109.066406 52.105469 91.039062 51.945312 72.898438 52.105469 C 73.101562 51.199219 73.558594 50.40625 74.265625 49.726562 Z M 74.265625 49.726562 "/>
<path style=" stroke:none;fill-rule:evenodd;fill:rgb(43.137255%,70.588235%,97.647059%);fill-opacity:1;" d="M 72.898438 52.105469 C 91.039062 51.945312 109.066406 52.105469 126.972656 52.578125 C 126.972656 52.898438 126.746094 53.054688 126.289062 53.054688 C 108.492188 52.738281 90.695312 52.421875 72.898438 52.105469 Z M 72.898438 52.105469 "/>
<path style=" stroke:none;fill-rule:evenodd;fill:rgb(99.607843%,99.607843%,99.607843%);fill-opacity:1;" d="M 126.972656 52.578125 C 127.203125 52.578125 127.429688 52.578125 127.65625 52.578125 C 127.65625 77.640625 127.65625 102.703125 127.65625 127.761719 C 84.992188 127.761719 42.324219 127.761719 -0.34375 127.761719 C -0.34375 110.472656 -0.34375 93.183594 -0.34375 75.894531 C 17.800781 75.738281 35.824219 75.898438 53.734375 76.371094 C 44.953125 93.339844 36.394531 110.308594 28.0625 127.285156 C 60.945312 102.605469 93.6875 77.859375 126.289062 53.054688 C 126.746094 53.054688 126.972656 52.898438 126.972656 52.578125 Z M 126.972656 52.578125 "/>
<path style=" stroke:none;fill-rule:evenodd;fill:rgb(40.392157%,69.411765%,97.647059%);fill-opacity:1;" d="M 1.027344 74.46875 C 18.824219 74.785156 36.621094 75.101562 54.417969 75.421875 C 36.273438 75.578125 18.25 75.417969 0.34375 74.945312 C 0.34375 74.625 0.570312 74.46875 1.027344 74.46875 Z M 1.027344 74.46875 "/>
<path style=" stroke:none;fill-rule:evenodd;fill:rgb(83.529412%,91.764706%,98.823529%);fill-opacity:1;" d="M -0.34375 74.945312 C -0.113281 74.945312 0.113281 74.945312 0.34375 74.945312 C 18.25 75.417969 36.273438 75.578125 54.417969 75.421875 C 54.535156 75.890625 54.304688 76.210938 53.734375 76.371094 C 35.824219 75.898438 17.800781 75.738281 -0.34375 75.894531 C -0.34375 75.578125 -0.34375 75.261719 -0.34375 74.945312 Z M -0.34375 74.945312 "/>
</g>
</svg>
