<svg xmlns="http://www.w3.org/2000/svg" viewBox="0 0 128 128"><path fill="#1389fd" d="M14.9941 50.623 0 66.871h8.209l-3.588 9.9981.838.5079 14.998-16.2461h-8.211l3.586-10zm-.9336 2.4864-3.2363 9.0215h7.3477L6.3945 74.8906l3.2364-9.0195H2.2832Zm86.4141 2.4101V72.047h3.7422V55.5195Zm7.1133.2325c-1.2012 0-2.1797 1.0095-2.1797 2.203 0 1.1936.9865 2.1808 2.1797 2.1798 1.2081 0 2.2031-.9857 2.2031-2.1797 0-1.1941-.9868-2.2031-2.2031-2.2031zm-70.1973.1074c-1.382 0-2.716.434-3.7226 1.2754-1.0067.8413-1.668 2.106-1.668 3.6484 0 1.5447.645 2.675 1.5762 3.4258.9312.7508 2.1115 1.1642 3.2695 1.5h.002c1.0976.3166 1.8756.5843 2.3125.8535.437.2692.5371.4317.5371.834 0 .2909-.08.5064-.334.7031-.254.1967-.735.373-1.5468.373-1.691 0-2.478-.7094-2.957-1.955l-.211-.5489-3.379 1.9747.1427.3925c.8746 2.395 3.1178 4.0086 6.3203 4.0079 1.6739 0 3.1395-.4498 4.203-1.3126 1.0637-.8627 1.6974-2.1493 1.6974-3.6757 0-1.6579-.738-2.8129-1.7559-3.5528-1.018-.7399-2.2826-1.1257-3.4629-1.498l-.002-.002h-.0039c-1.1074-.3342-1.7742-.6262-2.1035-.875-.3293-.2489-.3711-.3779-.3711-.7305 0-.2832.1005-.4928.3262-.6719.2256-.179.5999-.3164 1.1308-.3164 1.3366 0 1.9118.595 2.3985 1.627l.2304.4922 3.3399-1.9278-.2012-.418c-1.071-2.232-3.1505-3.623-5.7676-3.623zm39.0469.2988v15.8887h3.7441v-3.9043l3.129 3.9023h11.2382c2.8015 0 5.1347-1.997 5.1347-4.8183 0-1.4984-.7481-2.6475-1.8008-3.4395.7364-.7628 1.25-1.7331 1.25-2.9394 0-2.7587-2.2942-4.6895-5.0293-4.6895h-6.371v15.8086l-4.75-5.8027 4.6816-5.754h-4.5684l-2.914 3.7286v-7.9805zm25.0371.3613h1.7422V71.047h-1.7422zm6.1133.2325c.655 0 1.2031.5679 1.2031 1.203 0 .6352-.5397 1.1798-1.2031 1.1798-.6343.0005-1.1797-.5442-1.1797-1.1797 0-.6357.5532-1.2031 1.1797-1.2031zm-70.1973.1074c2.0947 0 3.6012 1.0362 4.5625 2.6972l-1.5996.9239c-.6105-.9845-1.5108-1.7715-2.9629-1.7715-.7033 0-1.3076.1805-1.752.5332a1.8596 1.8596 0 0 0-.705 1.455c0 .5621.2456 1.135.7676 1.5294.522.3944 1.2697.6867 2.418 1.0332 1.1784.3717 2.3453.7522 3.1699 1.3515.826.6004 1.3437 1.3611 1.3437 2.7442 0 1.2594-.4836 2.2153-1.3281 2.9004-.8445.685-2.0775 1.0879-3.5723 1.0879-2.6924.0006-4.3682-1.1827-5.1855-2.9903l1.7304-1.0097c.6666 1.224 1.778 2.1289 3.5391 2.1289.9527 0 1.6628-.1985 2.1582-.582.4954-.3836.7227-.9556.7227-1.4942 0-.7033-.398-1.3062-1.0137-1.6856-.6158-.3793-1.4427-.641-2.5586-.9629-1.1172-.3239-2.1786-.719-2.9219-1.3183-.7432-.5992-1.205-1.3623-1.205-2.6465 0-1.2646.5096-2.2115 1.3105-2.8809.801-.6694 1.9113-1.043 3.082-1.043zm40.0469.2988h1.7441v13.8887h-1.7441zm11.295 0h5.371c2.283 0 4.0293 1.472 4.0293 3.6895 0 1.1366-.4502 1.9692-1.2187 2.5878l-.5704.459.6368.3633c1.057.604 1.703 1.5803 1.703 2.9688 0 2.2826-1.7903 3.8183-4.1347 3.8183h-5.8164zm-39.9493.1035-.6445.1934-3.0996.9375v2.0176h-1.8516v3.6386h1.8516v3.9219c0 1.5108.3637 2.7184 1.3359 3.4277.9722.7093 2.3884.863 4.3672.6446l.4453-.0489v-3.4648l-.5273.0293c-.7795.0425-1.3538.031-1.6036-.0547-.1249-.0428-.1613-.076-.1972-.1328-.036-.0569-.0762-.1738-.0762-.4004v-3.9219h2.4023v-3.6386h-2.4023zm66.879 0-.6446.1934-3.0996.9375v2.0176h-1.8496v3.6386h1.8496v3.9219c0 1.5108.3637 2.7184 1.3359 3.4277.9722.7093 2.3884.863 4.3672.6446l.4453-.0489v-3.4648l-.5273.0293c-.7795.0425-1.3538.031-1.6035-.0547-.125-.0428-.1614-.076-.1973-.1328-.036-.0569-.0762-.1738-.0762-.4004v-3.9219h2.4023v-3.6386h-2.4023zm-67.879 1.3457v2.8028h2.4023v1.6386h-2.4023v4.9219c0 .3472.0614.666.2305.9336.169.2677.4392.4491.7187.545.4103.1406.932.0972 1.4551.078v1.5254c-1.5672.117-2.647-.0394-3.2246-.4609-.6395-.4665-.9238-1.261-.9238-2.621v-4.922h-1.8516v-1.6386h1.8516v-2.2754Zm66.879 0v2.8028h2.4022v1.6386h-2.4023v4.9219c0 .3472.0614.666.2305.9336.169.2677.4392.4491.7187.545.4103.1406.932.0972 1.4551.078v1.5254c-1.5662.1168-2.6452-.0396-3.2226-.4609-.6395-.4665-.9258-1.261-.9258-2.621v-4.922h-1.8496v-1.6386h1.8496v-2.2754Zm-23.9962.295v4.2753h3.4356c1.1708 0 2.0957-.9601 2.0957-2.1386 0-1.171-.9103-2.1368-2.0957-2.1368zm1 .998h2.4356c.6858 0 1.0957.4384 1.0957 1.1387 0 .6927-.4374 1.1386-1.0957 1.1386H91.666zm-35.248.211v.1073c-2.8734.2833-5.166 2.789-5.166 6.0098 0 3.4147 2.5491 6.1153 5.666 6.1153 1.2179 0 2.1668-.4401 2.9668-1.041v.744h3.7441V60.4083h-3.7441v.7461c-.8-.6018-1.7484-1.043-2.9668-1.043zm14.2636 0c-3.485 0-6.1132 2.698-6.1132 6.1171 0 3.419 2.629 6.1153 6.1132 6.1153 2.261 0 4.2411-1.2024 5.2442-3.0235l.2363-.4316-3.2715-1.873-.2344.4804c-.3369.6907-1.0498 1.123-1.996 1.123-1.3916 0-2.3497-.9534-2.3497-2.3925 0-1.465.958-2.4141 2.3497-2.4141.9146 0 1.639.4523 1.9765 1.1445l.2363.4844 3.2383-1.8965-.2246-.4238c-.9619-1.8084-2.9441-3.0098-5.205-3.0098zm35.047.2988v11.6367h3.7421V60.4102Zm13.082 0v3.5742h3.7988l-4.0098 5.5703v2.4922H128v-3.5742h-4.2441l4.0312-5.5704v-2.4921zm-61.8926.7011c1.424 0 2.4003.522 3.0761 1.3672l.8907 1.1133v-2.1836h1.7441v9.6387h-1.7441v-2.1797l-.8907 1.1113c-.6765.8453-1.6515 1.3653-3.0761 1.3653-2.5405 0-4.668-2.1926-4.668-5.1153 0-2.9228 2.1276-5.1172 4.668-5.1172zm13.7636 0c1.7187 0 3.1284.8894 3.9786 2.125l-1.502.879c-.5813-.7672-1.447-1.3028-2.498-1.3028-1.8846 0-3.3497 1.4747-3.3497 3.414 0 1.92 1.4647 3.3926 3.3497 3.3926 1.0625 0 1.9354-.5216 2.5195-1.287l1.5137.8671c-.8835 1.2554-2.2947 2.1445-4.0118 2.1445-2.9797 0-5.1132-2.1969-5.1132-5.1152 0-2.9185 2.133-5.1172 5.1132-5.1172zm12.9004.2989h1.9805l-3.8691 4.7558 3.9941 4.879H83.791l-3.918-4.8888Zm23.1465 0h1.7422v9.6367h-1.7422zm13.082 0h6.9766v1.168l-4.9883 6.8945H127v1.5742h-7.4024v-1.17l4.963-6.8925h-4.75zm-62.3808 1.3203c-1.9206 0-3.4356 1.4777-3.4356 3.498s1.515 3.498 3.4356 3.498c1.939.001 3.455-1.4776 3.455-3.498 0-2.0204-1.5163-3.498-3.455-3.498zm0 1c1.464 0 2.455.9456 2.455 2.498 0 1.5523-.9913 2.4988-2.455 2.498-1.4399 0-2.4356-.9457-2.4356-2.498 0-1.5523.9957-2.498 2.4356-2.498zM90.666 64.793v4.5097h3.8828c1.2483-.001 2.2207-1.0094 2.2207-2.2656 0-1.2404-.9733-2.2441-2.2207-2.2441zm1 1h2.8828c.7517 0 1.2207.4852 1.2207 1.2441 0 .785-.4682 1.265-1.2207 1.2656H91.666z"/></svg>
