<svg xmlns="http://www.w3.org/2000/svg" viewBox="0 0 128 128"><path fill="#1389fd" d="M14.4063 50.793 0 66.4023h7.8809L4.0019 77.207l14.4083-15.6074h-7.8809l3.877-10.8066zm86.7246 5.123v15.7285h2.7773V55.916h-2.7773zm6.6992.2363c-.9257 0-1.7012.7982-1.7012 1.7247 0 .9264.7755 1.7019 1.7012 1.7011.9478 0 1.7246-.7747 1.7246-1.7011 0-.9265-.7768-1.7247-1.7246-1.7247zm-71.1094.1075c-2.5859 0-4.955 1.639-4.955 4.4824 0 2.8655 2.24 3.8338 4.5448 4.502 2.2423.6468 3.254 1.0772 3.254 2.1972 0 .8404-.6247 1.5957-2.4122 1.5957-1.8758 0-2.93-.9043-3.4687-2.3047l-2.543 1.4864c.8183 2.2407 2.8447 3.7273 5.9258 3.7265 3.21 0 5.4707-1.7248 5.4707-4.5469 0-3.0803-2.54-3.8785-4.9316-4.6328-2.285-.6895-2.8672-1.1848-2.8672-2.1113 0-.861.7321-1.5078 1.9824-1.5078 1.53 0 2.348.7973 2.8867 1.9394l2.5-1.4433c-1.0125-2.1105-2.909-3.3828-5.3867-3.3828zm40.0605.3027v15.082h2.7793V66.754l3.92 4.8887h3.2324l-4.461-5.4492 4.3301-5.3223h-3.3164l-3.705 4.7402v-9.0488h-2.7793zm11.4415 0v15.08h6.3984c2.6065 0 4.6953-1.7878 4.6953-4.373 0-1.5725-.7736-2.7577-1.9805-3.4472.883-.7109 1.422-1.7235 1.422-3.0157 0-2.5203-2.0463-4.2441-4.588-4.2441h-5.9472zm-40.4688 1.293-2.7793.8398v2.1758h-1.875v2.6719h1.875v4.4804c0 2.9082 1.3154 4.0516 5.2149 3.6211V69.123c-1.594.0869-2.4356.0631-2.4356-1.0996V63.543h2.4336v-2.672h-2.4336v-3.0155zm67.748 0-2.7792.8398v2.1758h-1.873v2.6719h1.873v4.4804c0 2.9082 1.3154 4.0516 5.2148 3.6211V69.123c-1.5939.0869-2.4356.0631-2.4356-1.0996V63.543h2.4337v-2.672h-2.4337v-3.0155zm-24.3066 1.4863h2.9727c.9478 0 1.6172.7104 1.6172 1.6582 0 .9478-.6908 1.6602-1.6172 1.6602h-2.9727v-3.3184zM56.502 60.5684c-2.8656 0-5.2344 2.4795-5.2344 5.6894 0 3.21 2.3688 5.6875 5.2344 5.6875 1.5725 0 2.736-.6031 3.5117-1.5723v1.2715h2.7793V60.8691h-2.7793v1.2735c-.7749-.9692-1.9392-1.5742-3.5117-1.5742zm13.9414 0c-3.2747 0-5.6856 2.4795-5.6856 5.6894 0 3.21 2.4117 5.6875 5.6856 5.6875 2.1112 0 3.9434-1.12 4.8691-2.8008l-2.4121-1.3808c-.4312.8838-1.3578 1.4218-2.4785 1.4218-1.6595 0-2.8867-1.2283-2.8867-2.9296 0-1.7242 1.2272-2.9512 2.8867-2.9512 1.0986 0 2.0265.5603 2.457 1.4433l2.3906-1.4003c-.8823-1.6587-2.7149-2.7793-4.8261-2.7793zm36.0097.3027v10.7734h2.7774V60.8711h-2.7774zm13.252 0v2.6074h4.33l-4.5449 6.3125v1.8535H128v-2.6074h-4.7832l4.5684-6.3125v-1.8535h-8.0801zm-62.6856 2.3496c1.7235 0 2.9942 1.2276 2.9942 3.0371s-1.2707 3.0379-2.9942 3.0371c-1.702 0-2.9726-1.2276-2.9726-3.037 0-1.8096 1.2705-3.0372 2.9726-3.0372zm34.1758 2.0898h3.4258c1.0126 0 1.7441.7531 1.7441 1.7657 0 1.0339-.7308 1.7883-1.7441 1.789h-3.4258v-3.5547z"/></svg>
