<svg xmlns="http://www.w3.org/2000/svg" viewBox="0 0 128 121.51">
  <path fill="#764abc" d="M88.69 84.87c-9 18.4-24.76 30.78-45.61 34.85a39.75 39.75 0 0 1-9.77 1.14c-12 0-23-5-28.34-13.19C-2.2 96.76-4.64 73.63 19 56.52c.48 2.61 1.46 6.19 2.11 8.31A38.32 38.32 0 0 0 10 77.86c-4.4 8.64-3.91 17.27 1.3 25.25 3.6 5.38 9.3 8.65 16.63 9.65a44.05 44.05 0 0 0 26.55-5c12.71-6.68 21.18-14.66 26.72-25.57a9.35 9.35 0 0 1-2.61-6 9.12 9.12 0 0 1 8.8-9.45h.32a9.15 9.15 0 0 1 1 18.25zm28.67-20.2c12.21 13.84 12.54 30.13 7.82 39.58-4.4 8.63-16 17.27-31.6 17.27a50.46 50.46 0 0 1-21-5.05c2.29-1.63 5.54-4.24 7.33-5.87a41.62 41.62 0 0 0 16 3.42c10.1 0 17.75-4.72 22.31-13.35 2.93-5.7 3.1-12.38.33-19.22a43.6 43.6 0 0 0-17.27-20.85 62 62 0 0 0-34.74-10.59h-2.93a9.21 9.21 0 0 1-8 5.54h-.31A9.13 9.13 0 0 1 55 37.3h.33a9 9 0 0 1 8 4.89h2.61c20.8 0 39.06 7.98 51.42 22.48zm-82.75 23a7.37 7.37 0 0 1 1.14-4.73c-9.12-15.8-14-35.83-6.51-56.68C34.61 10.59 48.13 0 62.79 0c15.64 0 31.93 13.69 33.88 40.07-2.44-.81-6-2-8.14-2.44C88 29 80.71 7.5 63.44 7.82c-6.19.17-15.31 3.1-20 9.12a43.72 43.72 0 0 0-9.64 25.25 59.64 59.64 0 0 0 8.47 36.16 2.79 2.79 0 0 1 1.14-.16h.32a9.121 9.121 0 0 1 .33 18.24h-.33a9.16 9.16 0 0 1-9.12-8.79z"/>
</svg>
