<svg xmlns="http://www.w3.org/2000/svg" viewBox="0 0 128 128"><g fill="#00c4cc"><path d="M59.39.152c-.484.051-1.995.23-3.328.387-5.374.613-11.468 2.227-16.816 4.48C19.891 13.106 5.324 30.849 1.305 51.2.359 56.04.129 58.418.129 64c0 7.195.715 12.16 2.61 18.434 6.195 20.53 22.323 36.632 42.906 42.851 6.195 1.871 11.187 2.586 18.355 2.586 7.195 0 12.16-.715 18.434-2.61 20.53-6.195 36.632-22.323 42.851-42.906 1.871-6.195 2.586-11.187 2.586-18.355 0-3.047-.152-6.527-.332-7.809-2.074-14.796-8.168-27.238-18.328-37.402C99.07 8.703 86.68 2.586 72.19.512c-1.996-.282-11.238-.54-12.8-.36zm-20.863 40.32c1.36.41 1.996.794 2.918 1.715 1.793 1.82 2.203 2.817 2.203 5.555 0 2.051-.078 2.434-.691 3.508-1.18 1.996-3.918 3.84-5.812 3.89-1.333.028-1.278-.562.18-2.097 1.945-2.023 2.226-2.79 2.226-5.813-.024-2.917-.383-3.914-1.739-4.734-1.128-.691-2.355-.64-4.148.203-4.66 2.23-9.703 9.653-11.672 17.258-2.613 10.137 2.02 18.25 9.649 16.867 2.226-.41 6.425-2.558 8.246-4.25 1.508-1.379 1.508-1.406 1.66-3.12.336-3.587 2.867-7.169 6.25-8.833 1.558-.77 1.945-.844 4.043-.844 1.996 0 2.457.102 3.43.637 3.097 1.77 2.457 5.89-.895 5.89-1.945 0-2.945-1-1.535-1.534 1.383-.512.867-2.434-.742-2.868-1.895-.488-4.047.793-5.403 3.25-1.64 2.97-1.715 6.504-.156 8.114 1.512 1.613 3.406.336 4.867-3.329.766-1.867 1.867-2.867 3.149-2.867 1.125 0 1.332.692.843 2.793-.718 3.25-.23 4.094 1.793 3.098.664-.309 1.766-1.023 2.43-1.535l1.254-1 .848-4.43c.922-4.965 1.277-5.633 3.172-5.988 1.82-.336 2.23.562 1.562 3.402l-.36 1.59 1.333-1.36c3.148-3.226 7.015-4.812 8.347-3.48.715.715.637 1.613-.386 4.785-.485 1.512-1.153 3.895-1.457 5.25-.461 2.047-.489 2.535-.23 2.868.82.972 3.327-.028 5.554-2.204l1.305-1.277.156-2.844c.152-3.277.457-4.453 1.328-5.504.82-.972 2.305-1.687 3.098-1.484.793.207.793.973.078 3.227-1 3.097-.895 10.238.129 10.238.41 0 2.507-2.2 3.84-4.043l.996-1.36-.793-.816c-1.383-1.46-1.715-2.406-1.715-4.789 0-1.738.129-2.379.562-3.227.719-1.328 1.844-2.3 3.176-2.687 1.406-.434 3.148.281 3.863 1.562.719 1.305.54 4.223-.383 6.223l-.664 1.457h.895c1.23 0 1.715-.305 3.918-2.379 1.152-1.101 2.484-2.05 3.48-2.511 3.918-1.84 8.528-.895 9.293 1.921.64 2.254-.765 3.84-3.226 3.66-1.766-.128-2.098-.59-1.074-1.456 1.843-1.54 0-3.508-2.637-2.793-1.434.386-3.047 1.996-3.89 3.867-1.692 3.738-.794 8.14 1.636 8.14.973 0 2.691-1.921 3.355-3.789.793-2.152 2.457-3.507 3.711-3.02.692.255.743.946.309 3.122-.488 2.383-.563 4.61-.18 5.633.153.382.614 1.101 1.051 1.586.816.921.844 1.254.152 1.691-.332.23-.77.129-1.843-.46-1.485-.77-2.766-2.153-3.227-3.458l-.281-.766-1.024.766c-.59.41-1.511.871-2.047 1.023-2.125.563-4.738-.894-5.964-3.351-.489-.95-.641-3.738-.282-4.813.204-.59.204-.59-.617-.18-.433.231-1.355.485-2.07.563-1.18.13-1.36.258-2.535 1.742-1.664 2.07-4.61 4.864-5.813 5.454-2.558 1.277-3.402.918-4.07-1.72l-.461-1.765-1.102.973c-1.406 1.23-4.222 2.715-5.836 3.074-1.535.332-3.175-.156-3.84-1.18-.995-1.535-.663-4.785.922-9.164 1.176-3.25.333-3.3-2.636-.203-2.203 2.328-3.149 3.992-3.762 6.578-.64 2.688-1.41 3.66-3.148 4.07-1.051.231-1.54-.41-1.332-1.816l.152-1.129-.973.668c-1.383.946-3.125 1.817-4.328 2.149-1.203.332-2.789-.024-3.172-.692-.691-1.175-.691-1.175-1.765-.332-2.332 1.895-5.66 1.356-7.348-1.152l-.54-.793-1.687 1.562c-4.867 4.454-10.957 6.45-15.464 5.067-5.735-1.738-8.907-6.656-8.856-13.746.024-7.117 3.172-14.617 8.473-20.172 2.996-3.125 5.812-4.969 8.68-5.66 2.07-.512 3.328-.485 5.296.129zm0 0"/><path d="M90.418 58.676c-.563.562-.356 2.816.36 4.25.359.742.742 1.332.87 1.332.102 0 .332-.59.512-1.309.64-2.66-.512-5.504-1.742-4.273zm0 0"/></g></svg>
