<?xml version="1.0" encoding="UTF-8" standalone="no"?>
<svg
   xmlns:dc="http://purl.org/dc/elements/1.1/"
   xmlns:cc="http://creativecommons.org/ns#"
   xmlns:rdf="http://www.w3.org/1999/02/22-rdf-syntax-ns#"
   xmlns:svg="http://www.w3.org/2000/svg"
   xmlns="http://www.w3.org/2000/svg"
   xmlns:sodipodi="http://sodipodi.sourceforge.net/DTD/sodipodi-0.dtd"
   xmlns:inkscape="http://www.inkscape.org/namespaces/inkscape"
   version="1.1"
   id="Layer_1"
   x="0px"
   y="0px"
   viewBox="0 0 128 128"
   style="enable-background:new 0 0 128 128;"
   xml:space="preserve"
   sodipodi:docname="modx-original-wordmark.svg"
   inkscape:version="1.0.2-2 (e86c870879, 2021-01-15)"><metadata
   id="metadata63"><rdf:RDF><cc:Work
       rdf:about=""><dc:format>image/svg+xml</dc:format><dc:type
         rdf:resource="http://purl.org/dc/dcmitype/StillImage" /></cc:Work></rdf:RDF></metadata><defs
   id="defs61">
	
	

		
			<linearGradient
   id="SVGID_1_"
   gradientUnits="userSpaceOnUse"
   x1="102.9177"
   y1="-275.3316"
   x2="70.278198"
   y2="-254.078"
   gradientTransform="matrix(1,0,0,-1,0,-247.4922)">
			<stop
   offset="0"
   style="stop-color:#80C3E6"
   id="stop4" />
			<stop
   offset="1"
   style="stop-color:#3380C2"
   id="stop6" />
		</linearGradient>
		
		
		
			<linearGradient
   id="SVGID_2_"
   gradientUnits="userSpaceOnUse"
   x1="108.6724"
   y1="-324.37109"
   x2="84.274498"
   y2="-308.25931"
   gradientTransform="matrix(1,0,0,-1,0,-247.4922)">
			<stop
   offset="0"
   style="stop-color:#F38649"
   id="stop13" />
			<stop
   offset="0.1849"
   style="stop-color:#F28147"
   id="stop15" />
			<stop
   offset="0.4091"
   style="stop-color:#EF7242"
   id="stop17" />
			<stop
   offset="0.6537"
   style="stop-color:#EA5A3A"
   id="stop19" />
			<stop
   offset="0.911"
   style="stop-color:#E4382E"
   id="stop21" />
			<stop
   offset="1"
   style="stop-color:#E12A29"
   id="stop23" />
		</linearGradient>
		
		
		
			<linearGradient
   id="SVGID_3_"
   gradientUnits="userSpaceOnUse"
   x1="28.2805"
   y1="-290.00009"
   x2="74.946098"
   y2="-260.84009"
   gradientTransform="matrix(1,0,0,-1,0,-247.4922)">
			<stop
   offset="0"
   style="stop-color:#42AB4A"
   id="stop30" />
			<stop
   offset="1"
   style="stop-color:#ADD155"
   id="stop32" />
		</linearGradient>
		
		
			<linearGradient
   id="SVGID_4_"
   gradientUnits="userSpaceOnUse"
   x1="38.4734"
   y1="-342.211"
   x2="76.426598"
   y2="-281.47339"
   gradientTransform="matrix(1,0,0,-1,0,-247.4922)">
			<stop
   offset="0"
   style="stop-color:#42AB4A"
   id="stop37" />
			<stop
   offset="1"
   style="stop-color:#ADD155"
   id="stop39" />
		</linearGradient>
		
	</defs><sodipodi:namedview
   pagecolor="#ffffff"
   bordercolor="#666666"
   borderopacity="1"
   objecttolerance="10"
   gridtolerance="10"
   guidetolerance="10"
   inkscape:pageopacity="0"
   inkscape:pageshadow="2"
   inkscape:window-width="1440"
   inkscape:window-height="748"
   id="namedview59"
   showgrid="false"
   inkscape:zoom="3.2040776"
   inkscape:cx="82.490418"
   inkscape:cy="60.556111"
   inkscape:window-x="-6"
   inkscape:window-y="-6"
   inkscape:window-maximized="1"
   inkscape:current-layer="Layer_1"
   inkscape:document-rotation="0" />
<style
   type="text/css"
   id="style2">
	.st0{fill:url(#SVGID_1_);}
	.st1{opacity:0.15;enable-background:new    ;}
	.st2{fill:url(#SVGID_2_);}
	.st3{fill:url(#SVGID_3_);}
	.st4{fill:url(#SVGID_4_);}
</style>

<g
   id="g865"><polygon
     class="st0"
     points="92.1,40.8 110.4,11.5 66.4,11.5 60.3,21.3 "
     id="polygon9"
     style="fill:#00b5de;fill-opacity:1" /><polygon
     class="st2"
     points="101.8,93.8 101.8,49.8 92.3,43.9 72.3,75.4 "
     id="polygon26"
     style="fill:#ff5529;fill-opacity:1" /><polygon
     class="st3"
     points="30.9,2.7 30.9,46.7 41.1,52.6 92.1,40.8 "
     id="polygon35"
     style="fill:#00decc;fill-opacity:1" /><polygon
     class="st4"
     points="40.9,56 22.6,84.8 66.6,84.8 92.3,43.9 "
     id="polygon42"
     style="fill:#ff9640;fill-opacity:1" /><g
     id="g54"
     style="fill:#102c53;fill-opacity:1">
		<path
   d="m 16.2,122.1 h 2.6 l 1.3,-15.6 h -2.6 v -3 h 7 l 4.8,12.2 c 0.4,1.1 0.5,1.8 0.5,1.8 h 0.1 c 0,0 0.2,-0.7 0.5,-1.8 l 4.8,-12.2 h 7 v 3 h -2.6 l 1.2,15.6 h 2.6 v 3 h -8.9 v -3 h 2.4 l -0.7,-11 c -0.1,-0.8 0.1,-2 0.1,-2 h -0.1 c 0,0 -0.2,1.2 -0.5,1.9 l -4.1,10 h -3.4 l -4.1,-10 c -0.3,-0.7 -0.5,-1.9 -0.5,-1.9 h -0.1 c 0,0 0.2,1.2 0.1,2 L 22.8,122 h 2.4 v 3 h -9 v -2.9 z"
   id="path46"
   style="fill:#102c53;fill-opacity:1" />
		<path
   d="m 56.1,103 c 6.4,0 11.2,4.8 11.2,11 0,6.4 -4.8,11.3 -11.2,11.3 -6.4,0 -11.2,-5 -11.2,-11.3 0,-6.1 4.8,-11 11.2,-11 z m 0,18.9 c 3.9,0 7.1,-3.4 7.1,-7.8 0,-4.3 -3.2,-7.5 -7.1,-7.5 -3.9,0 -7.1,3.3 -7.1,7.5 0,4.4 3.2,7.8 7.1,7.8 z"
   id="path48"
   style="fill:#102c53;fill-opacity:1" />
		<path
   d="m 69.3,122.1 h 2.6 v -15.6 h -2.6 v -3 h 9.4 c 1.7,0 3.1,0.1 4.5,0.5 4.2,1.2 7,5 7,10.3 0,5.1 -2.6,8.8 -6.7,10.2 -1.5,0.5 -3,0.6 -4.8,0.6 h -9.4 z m 9.2,-0.3 c 1.4,0 2.5,-0.1 3.5,-0.6 2.5,-1 4,-3.5 4,-7.1 0,-3.7 -1.6,-6.2 -4.2,-7.1 -1.1,-0.4 -2.1,-0.5 -3.4,-0.5 h -2.6 v 15.2 z"
   id="path50"
   style="fill:#102c53;fill-opacity:1" />
		<path
   d="m 92.5,122.1 h 1.9 l 5.5,-8 -5.3,-7.6 h -1.9 v -3 h 8.2 v 3 h -2.1 l 3,4.5 c 0.4,0.5 0.6,0.9 0.6,0.9 h 0.1 c 0,0 0.2,-0.4 0.6,-0.9 l 2.9,-4.5 h -2.1 v -3 h 7.9 v 3 h -1.9 l -5.5,7.9 5.4,7.7 h 1.9 v 3 h -8.2 v -3 h 2.1 l -3,-4.5 c -0.4,-0.5 -0.6,-0.9 -0.6,-0.9 h -0.1 c -0.1,0 -0.2,0.4 -0.6,0.9 l -2.9,4.5 h 2.1 v 3 h -7.9 z"
   id="path52"
   style="fill:#102c53;fill-opacity:1" />
	</g></g></svg>
