<svg xmlns="http://www.w3.org/2000/svg" viewBox="0 0 128 128"><g fill="#00decc"><path d="M110.5 11.4h-44l-4.8 7.8L93.4 39zM92.2 40.7l-61-38.1v44.1l9.5 5.9zM73.4 77.4l27.4 17.2V50.5l-7.6-4.8zM39.8 56.5L21.5 85.8h44l25.8-41.2z"/><g><path d="M16.3 122.1h2.6l1.3-15.6h-2.6v-3h7l4.8 12.2c.4 1.1.5 1.8.5 1.8h.1s.2-.7.5-1.8l4.8-12.2h7v3h-2.6l1.2 15.6h2.6v3h-8.9v-3H37l-.8-10.9c-.1-.8.1-2 .1-2h-.1s-.2 1.2-.5 1.9l-4.1 10h-3.4l-4.1-10c-.3-.7-.5-1.9-.5-1.9h-.1s.2 1.2.1 2l-.8 10.9h2.4v3h-8.9v-3zM56.2 103c6.4 0 11.2 4.8 11.2 11 0 6.4-4.8 11.3-11.2 11.3-6.4 0-11.2-5-11.2-11.3 0-6.1 4.8-11 11.2-11zm0 18.9c3.9 0 7.1-3.4 7.1-7.8 0-4.3-3.2-7.5-7.1-7.5s-7.1 3.3-7.1 7.5c0 4.4 3.2 7.8 7.1 7.8zM69.4 122.1H72v-15.6h-2.6v-3h9.4c1.7 0 3.1.1 4.5.5 4.2 1.2 7 5 7 10.3 0 5.1-2.6 8.8-6.7 10.2-1.5.5-3 .6-4.8.6h-9.4v-3zm9.2-.3c1.4 0 2.5-.1 3.5-.5 2.5-1 4-3.5 4-7.1 0-3.7-1.6-6.2-4.2-7.1-1.1-.4-2.1-.5-3.4-.5H76v15.2h2.6zM92.6 122.1h1.9l5.5-8-5.3-7.6h-1.9v-3h8.2v3h-2.1l3 4.5c.4.5.6.9.6.9h.1s.2-.4.6-.9l2.9-4.5H104v-3h7.9v3H110l-5.5 8 5.4 7.7h1.9v3h-8.2v-3h2.1l-3-4.5c-.4-.5-.6-.9-.6-.9h-.1c-.1 0-.2.4-.6.9l-2.9 4.5h2.1v3h-7.9l-.1-3.1z"/></g></g></svg>