<svg xmlns="http://www.w3.org/2000/svg" viewBox="0 0 128 128"><g fill="#205081"><path d="M89.976 82.353c-1.57-3.094-3.43-6.223-5.606-9.405a106.98 106.98 0 0 0-4.974-6.672c-.71-.884-.412-1.984.13-2.53.536-.55 1.075-1.098 1.617-1.653 7.46-7.61 15.175-15.475 21.09-23.974 6.293-9.042 9.78-17.618 10.66-26.44a2.723 2.723 0 0 0-1.03-2.375 2.663 2.663 0 0 0-2.56-.368c-5.738 2.194-11.563 3.86-16.88 5.098a3.318 3.318 0 0 0-2.324 2.026C86.223 26.674 76.33 36.778 65.953 47.363c-.417.395-1 .917-1.95.917-.948 0-1.526-.506-1.95-.918-10.38-10.586-20.27-20.654-24.146-31.268a3.323 3.323 0 0 0-2.323-2.025c-5.32-1.24-11.15-3.047-16.878-5.24a2.655 2.655 0 0 0-3.592 2.742c.88 8.824 4.365 17.506 10.66 26.547 5.914 8.498 13.63 16.365 21.09 23.973C60.607 76.106 73.59 89.347 74.73 104.7a2.654 2.654 0 0 0 2.647 2.46h16.148a2.658 2.658 0 0 0 2.653-2.788 48.635 48.635 0 0 0-1.242-8.69l.006-.007a1.06 1.06 0 0 1 1.02-1.337c.05 0 .1.01.15.017h.002c13.183 1.93 21.52 5.013 21.533 8.41v.007c0 3.2-7.495 8.03-19.677 11.565l-.005.005c-1.083.31-1.873 1.288-1.873 2.45 0 1.408 1.163 2.554 2.6 2.554.2 0 .39-.023.577-.065 16.375-3.787 27.23-10.152 27.23-17.338-.002-8.533-14.676-16.154-36.526-19.59zM46.675 74.03a2.66 2.66 0 0 0-1.886-.808c-1.206 0-1.92.778-2.19 1.19a82.094 82.094 0 0 0-4.632 7.95C16.148 85.803 1.5 93.418 1.5 101.943c0 7.194 10.777 13.546 27.182 17.332.002 0 .018 0 .024-.002.193.046.392.075.6.075 1.436 0 2.6-1.145 2.6-2.554 0-1.16-.792-2.126-1.87-2.438l-.007-.017c-12.183-3.536-19.678-8.367-19.678-11.565v-.008c.012-3.39 8.327-6.47 21.477-8.4a.833.833 0 0 1 .14-.016A1.07 1.07 0 0 1 33 95.7l.01.01a48.544 48.544 0 0 0-1.23 8.653c-.036.723.23 1.44.732 1.97.5.525 1.205.827 1.93.827h16.15a2.676 2.676 0 0 0 2.657-2.468c.35-4.725 1.827-9.46 4.505-14.438.928-1.722.207-3.34-.328-4.03-2.658-3.457-5.912-7.142-10.752-12.194z"/><path d="M62.138 34.137c.64.62 1.362.738 1.86.738h.005c.5 0 1.223-.116 1.862-.738C71.56 28.6 74.62 22.144 75.29 20.35a2.64 2.64 0 0 0 .197-.98c0-1.434-1.194-2.457-2.443-2.457-1.03 0-3.967.304-9.026.304h-.033c-5.06 0-7.993-.304-9.024-.304-1.248 0-2.443 1.024-2.443 2.456 0 .417.1.716.198.98.67 1.794 3.73 8.25 9.423 13.787z"/></g></svg>