<svg xmlns="http://www.w3.org/2000/svg" viewBox="0 0 128 128"><path fill-rule="evenodd" clip-rule="evenodd" fill="#FCAA1A" d="M99.463 67.214c2.884-1.667 5.873-3.317 8.326-5.522 4.079-3.666 3.524-9.022-.812-12.363-.806-.621-1.819-1.421-2.018-2.301-.791-3.506-1.48-7.054.918-10.367.775-1.071 1.238-2.429 1.608-3.722 1.142-3.996-.69-7.363-4.627-8.655-.699-.229-1.438-.359-2.169-.462-.987-.139-1.479-.581-1.621-1.647-.529-3.935.484-6.088 4.154-7.741 1.914-.863 4.004-1.339 6.02-1.992-2.868-4.881-10.88-7.668-17.574-5.86-5.391 1.456-9.173 4.982-12.712 8.978-.375.423-1.193.682-1.783.646-1.718-.108-1.66-1.471-1.402-2.61.537-2.369 1.254-4.697 1.922-7.13-3.092.091-5.437 1.778-7.755 3.621-.156-.246-.269.048-.334-.107-1.154-2.755-.888-4.98-.396-7.98h-.374c-4.228 2-8.137 4.022-9.008 9.325l-.666-.298c-.447-2.097-.894-4.3-1.394-6.646-3.825 2.593-5.93 5.898-6.509 10.261-.08.602-.422 1.142-.643 1.725-.581-.321-1.314-.525-1.721-.998-3.981-4.624-8.483-8.275-14.807-9.244-5.611-.859-12.538 1.875-15.157 6.224 2.312.878 4.752 1.567 6.961 2.707 2.652 1.367 3.539 3.618 3.256 6.147-.205 1.826-.936 2.551-2.827 2.793-4.16.533-6.585 3.811-5.987 7.938.208 1.434.631 3.056 1.517 4.127 2.058 2.49 1.834 5.3 1.775 8.145-.046 2.224-.838 3.976-2.76 5.362-4.147 2.991-4.646 8.477-.841 11.913 2.493 2.252 5.512 3.97 8.434 5.69 2.169 1.278 3.614 3.05 3.725 5.419.185 3.895-.035 7.812-.158 11.717-.049 1.568-.293 3.129-.481 5.039-3.361-3.034-5.168-6.46-6.1-10.629-3.57 3.551-5.095 7.632-5.296 12.354-.359 8.446 3.257 14.474 10.865 18.001.646.299 1.22.979 1.586 1.62 3.185 5.572 7.736 9.282 14.109 10.595.717.148 1.566.168 2.109.575 3.49 2.61 7.465 3.875 11.725 4.254 6.436.573 12.634-.111 18.158-3.898.537-.369 1.188-.672 1.825-.78 6.636-1.126 11.396-4.819 14.789-10.525.52-.874 1.416-1.688 2.331-2.133 3.818-1.856 6.849-4.447 8.563-8.411 1.724-3.987 2.175-8.163 1.368-12.388-.666-3.49-2.11-6.672-5.042-9.184-.904 4.169-2.732 7.581-6.13 10.238-.4-5.594-.714-11.163-.549-16.717.063-2.136 1.536-3.906 3.609-5.104zm2.375-55.835c-1.145.206-2.293.603-3.436.586-5.39-.076-9.292 2.495-12.346 6.684l-.414.608-.312.246-2.513-1.206c4.123-7.552 12.398-10.635 19.021-6.918zm-5.637 3.601c-.411 2.377-.815 4.661-1.2 6.948-.18 1.074-.391 2.033-1.703 2.358-1.244.309-2.011.09-3.008-.896-1.309-1.293-1.188-2.304-.448-3.694 1.424-2.681 3.403-4.486 6.359-4.716zm-69.937-3.771c6.471-3.493 14.449-.654 18.997 7.038l-2.614 1.318.671-.883c-1.767-1.362-3.526-2.733-5.303-4.083-2.461-1.871-5.26-2.621-8.333-2.634-1.151-.006-2.301-.37-3.418-.756zm12.482 10.104c.057 1.044-1.286 2.557-2.371 3.121-.619.321-2.339-.59-2.958-1.404-.636-.836-.548-2.23-.749-3.384-.138-.788-.173-1.599-.359-2.374-.172-.711-.484-1.389-.776-2.194 3.367.093 7.038 3.048 7.213 6.235zm-12.737 79.205c-2.985-4.447-2.82-9.4-1.544-14.463 3.479 7.964 10.443 9.898 18.374 10.765-2.665 3.06-4.972 6.085-3.13 10.437-5.7-.399-10.547-2.046-13.7-6.739zm17.283 16.335l-6.696-5.745c5.157-1.342 5.696 2.506 7.227 5.174l-.531.571zm25.729 5.445c-12.604 2.429-22.489-3.302-26.225-16.771-.957-3.448 1.104-5.704 5.04-5.753 5.407-.068 10.816-.018 16.225-.018 5.223-.005 10.444-.011 15.666.003.614.002 1.245.044 1.839.188 3.272.797 4.56 2.502 3.616 5.701-2.453 8.324-7.009 14.886-16.161 16.65zm14.983-5.561c.94-1.895 1.623-3.453 2.487-4.903.255-.427 1-.67 1.562-.78.953-.187 1.938-.199 3.059-.298-1.705 2.69-3.936 4.559-7.108 5.981zm19.418-30.904c3.518 11.796-3.013 21.066-14.996 21.238 1.633-4.114-.439-7.15-3.293-10.222 7.9-.92 14.908-2.786 18.289-11.016zm-11.378-12.398c-.021 4.968.287 9.944.62 14.905.216 3.229.294 3.438-2.859 4.12-1.862.401-3.81.527-5.717.524-.514-.001-1.243-.833-1.503-1.442-2.021-4.726-3.948-9.493-5.918-14.242-.231-.557-.552-1.078-.832-1.615l-.607.468c1.852 6.914 3.704 14.847 5.508 20.847h-33.437c1.787-6 3.631-13.86 5.476-20.757l-.732-.378c-1.112 2.525-2.269 4.962-3.326 7.51-1.163 2.804-2.261 5.603-3.333 8.443-.352.932-.816 1.428-1.898 1.259-2.135-.332-4.278-.614-6.42-.898-1.678-.222-1.912-1.217-1.816-2.751.33-5.273.622-10.556.696-15.836.058-4.232-1.791-7.491-5.647-9.558-2.181-1.169-4.374-2.403-6.299-3.938-3.1-2.468-2.86-6.584.41-8.424l-.225 2.447c3.302-3.982 4.966-12.18 2.594-20.011l-.263 2.237-.592.191c-.734-1.899-1.732-3.746-2.129-5.712-.384-1.906 1.753-3.435 4.381-3.534 4.766-.18 9.266.961 13.369 3.252 4.208 2.348 8.206 5.076 12.071 7.498-.749-2.69-4.043-5.871-12.692-12.001 9.517-9.921 36.784-9.839 46.259.101-5.492 2.805-9.952 6.699-12.869 12.274 1.41-1.026 2.809-2.067 4.232-3.074 5.3-3.745 10.839-7.033 17.424-7.856 1.928-.241 3.981-.131 5.884.268 2.032.425 2.846 2.191 2.169 4.181-.524 1.543-1.313 2.997-1.985 4.491l-.484-.099-.386-2.18c-1.855 7.283-1.321 13.866 2.72 19.985l-.334-2.389c2.547 1.089 3.512 4.281 1.844 6.67-.927 1.327-2.331 2.372-3.664 3.346-1.243.909-2.649 1.613-4.033 2.311-3.863 1.944-5.638 5.261-5.657 9.367zM88.793 43.596c-4.658 1.279-8.351 4.032-11.526 7.555-1.478 1.641-3.223 2.767-5.451 2.872-1.065.05-2.146-.217-3.264-.345.42 3.023 2.548 4.013 4.534 4.46l3.228 7.507.578-.262c-.578-2.428-1.066-4.849.391-7.238 3.571 2.535 7.157 1.919 10.762.158 3.869-1.892 5.085-5.479 6.059-9.305l.713 2.763c1.514-2.543 1.789-4.91-.241-7.29l2.597-1.045c-3.02-.766-5.702-.566-8.38.17zm-1.061 11.592c-2.3 2.281-6.079 2.619-9.523.704 2.825-3.905 6.66-6.374 10.587-8.772 1.199 2.268.615 6.402-1.064 8.068zM50.473 50.881c-2.795-3.169-6.138-5.617-10.183-6.973-3.015-1.011-6.084-1.389-9.49-.439l2.636.951c-1.929 2.339-1.698 4.7-.3 7.388l.839-2.896c.786 3.987 2.061 7.446 5.853 9.365 3.606 1.825 6.172 2.419 11.172-.472v7.405c0 .054.544.109.758.163.973-2.33 2.002-4.659 3.07-7.218 3.344-1.101 4.405-2.113 4.421-4.591-3.559 1.142-6.365.052-8.776-2.683zm-9.843 4.603c-1.923-1.555-2.678-5.512-1.505-8.43 4.054 2.515 7.918 4.937 10.604 8.822-2.941 1.865-6.535 1.681-9.099-.392zM70.443 42.805c-4.4 2.294-8.485 2.271-12.874.004 4.786 5.328 7.965 5.511 12.874-.004zM79.344 103.504c-1.364-.063-3.344-.013-4.344-.013v.509h-3.475l-.252-.25c-1.813.127-2.5 1.035-1.657 2.562.832 1.508 1.793 2.992 3.031 4.143.779.723 2.265 1.102 3.348.978 2.932-.335 4.181-2.731 5.347-5.079.793-1.593-.157-2.767-1.998-2.85zM56.822 103.516c-1.421-.092-2.853-.019-4.279-.019s-2.856-.062-4.279.019c-1.273.072-2.11.665-1.914 2.137.262 1.961 3.176 5.208 5.119 5.72 1.651.435 3.115.14 4.178-1.225.983-1.264 1.926-2.583 2.696-3.983.813-1.476.17-2.54-1.521-2.649z"/></svg>