<svg xmlns="http://www.w3.org/2000/svg" xmlns:xlink="http://www.w3.org/1999/xlink" viewBox="0 0 128 128"><g fill="#FF664A"><path d="M53.635 90.29c9.072 0 12.84 4.92 12.52 10.99-.19 7.282-7.35 11.686-14.06 11.69-4.146 0-5.784-1.68-6.203-2.957-.24-.73-1.056-.486-1.074.145-.104 3.742 1.98 8.304 8.433 8.304 4.92 0 8.88-2.81 8.88-2.81 1.343 1.34 1.853 2.81 1.79 4.47-.255 3.514-4.92 6.582-12.457 6.582-11.946 0-16.418-8.242-15.907-16.994.64-11.37 7.73-19.42 18.08-19.42M49.8 106.518c3.705 0 7.09-1.405 7.155-4.792.064-2.108-1.47-3.577-4.09-3.577-4.28 0-6.643 3.45-7.218 6.39-.065.51-.193 1.212-.193 1.212.32.128 1.79.767 4.345.767M85.577 90.29c9.072 0 12.84 4.92 12.52 10.99-.19 7.282-7.35 11.686-14.06 11.69-4.146 0-5.784-1.68-6.203-2.957-.24-.73-1.056-.486-1.074.145-.104 3.742 1.98 8.304 8.433 8.304 4.92 0 8.88-2.81 8.88-2.81 1.342 1.34 1.852 2.81 1.79 4.47-.256 3.514-4.92 6.582-12.458 6.582-11.946 0-16.418-8.242-15.907-16.994.64-11.37 7.73-19.42 18.08-19.42m-3.834 16.227c3.705 0 7.09-1.405 7.155-4.792.063-2.108-1.47-3.577-4.09-3.577-4.28 0-6.644 3.45-7.22 6.39-.063.51-.19 1.212-.19 1.212.32.128 1.79.767 4.344.767M103.393 99.042c-4.518 0-4.09-2.457-4.124-3.87-.036-1.467 1.46-3.348 2.89-3.623 4.14-.796 4.274-4.136 4.85-5.988.382-1.15.957-1.597 2.043-1.597h3.194c1.342 0 2.3.895 2.045 2.62a76.994 76.994 0 0 1-.64 4.343c1.343.063 1.006 0 3.18 0 3.22 0 4.47 1.697 4.46 4.32-.005 1.48-1.458 3.73-4.6 3.73h-4.06c-.767 5.174-1.725 12.01-2.172 15.906-.255 2.683.932 3.302 2.784 3.302 1.342.064 3.365-.996 4.083-1.574 2.826 3.317 2.094 10.09-7.046 10.09-6.643 0-9.845-5.093-9.08-11.673.448-3.578 2.193-15.988 2.193-15.988M32.91 82.624H22.414c-1.277 0-5.06.37-5.32 4.265-.23 3.47 1.528 5.08 5.462 5.08 2.022 0 4.147-1.476 5.084-2.012 1.08-.617 1.688.21.926.865-1.42 1.223-2.732 2.61-3.537 7.002l-2.132 13.034c-.64 4.407-2.555 6.515-5.75 6.515-2.874 0-4.896-1.613-6.593-3.85-3.393 1.08-5.167 5.786-2.687 8.91 1.13 1.422 3.467 4.268 9.408 4.268 6.16 0 13.178-2.996 14.913-14.885.847-5.81 3.21-21.018 3.593-23.7.32-2.427.704-5.494-2.873-5.494"/></g><defs><path id="a" d="M74.773 38.578a14.728 14.728 0 0 1-.47 2.37c-.094 5.356-4.308 9.706-9.61 10.016a14.71 14.71 0 0 1-2.956.65l-5.86 5.86 17.22 17.222 5.46-5.46c.422-7.52 6.444-13.54 13.963-13.962l4.582-4.582-17.222-17.22-5.107 5.106z"/></defs><clipPath id="b"><use xlink:href="#a" overflow="visible"/></clipPath><linearGradient id="c" gradientUnits="userSpaceOnUse" x1="-284.432" y1="-141.754" x2="-284.009" y2="-141.754" gradientTransform="rotate(130.9 -7705.164 -218.84) scale(44.3)"><stop offset="0" stop-color="#09e09c"/><stop offset="1" stop-color="#00bfff"/></linearGradient><path clip-path="url(#b)" fill="url(#c)" d="M117.5 51.13L79.443 95.096 35.477 57.037l38.06-43.965z"/><defs><path id="d" d="M31.353 50.173l5.107 5.107c6.835.778 12.258 6.2 13.037 13.036l5.86 5.86 17.222-17.22-5.462-5.46a14.743 14.743 0 0 1-3.116-.516c-5.395-.046-9.79-4.272-10.11-9.598a14.805 14.805 0 0 1-.736-3.848l-4.582-4.582-17.22 17.22z"/></defs><clipPath id="e"><use xlink:href="#d" overflow="visible"/></clipPath><linearGradient id="f" gradientUnits="userSpaceOnUse" x1="-279.176" y1="-131.559" x2="-278.753" y2="-131.559" gradientTransform="matrix(29.5 31 -31 29.5 4203.172 12582.555)"><stop offset="0" stop-color="#ffc800"/><stop offset="1" stop-color="#00bfff"/></linearGradient><path clip-path="url(#e)" fill="url(#f)" d="M52.987 12.365l40.178 42.22-42.22 40.18-40.18-42.222z"/><g><defs><path id="g" d="M49.63 12.604c-.42 7.518-6.442 13.54-13.96 13.962l-4.584 4.582 17.22 17.22 5.108-5.106c.09-.8.248-1.582.462-2.338 0-.053-.004-.105-.004-.158 0-5.643 4.574-10.217 10.218-10.217.166 0 .33.004.495.01.608-.15 1.23-.262 1.866-.334l5.862-5.86-17.22-17.223-5.46 5.46z"/></defs><clipPath id="h"><use xlink:href="#g" overflow="visible"/></clipPath><linearGradient id="i" gradientUnits="userSpaceOnUse" x1="-291.496" y1="-124.258" x2="-291.073" y2="-124.258" gradientTransform="matrix(29 -29.5 29.5 29 12164.318 -4961.38)"><stop offset="0" stop-color="#ffc800"/><stop offset="1" stop-color="#ff664a"/></linearGradient><path clip-path="url(#h)" fill="url(#i)" d="M10.477 28.108l40.87-41.574 41.575 40.87-40.87 41.574z"/></g><g><defs><path id="j" d="M55.315 24.888l5.46 5.46c.72.04 1.425.133 2.114.272.393-.046.794-.073 1.2-.073 5.643 0 10.218 4.574 10.218 10.217 0 .22-.01.44-.023.657.24.93.397 1.897.453 2.89l4.582 4.58 17.22-17.22-5.107-5.106c-6.835-.778-12.258-6.2-13.037-13.037l-5.86-5.86-17.22 17.22z"/></defs><clipPath id="k"><use xlink:href="#j" overflow="visible"/></clipPath><linearGradient id="l" gradientUnits="userSpaceOnUse" x1="-295.916" y1="-137.458" x2="-295.493" y2="-137.458" gradientTransform="rotate(-135.8 -5725.665 -6191.177) scale(48.1)"><stop offset="0" stop-color="#09e09c"/><stop offset="1" stop-color="#ff664a"/></linearGradient><path clip-path="url(#k)" fill="url(#l)" d="M76.533 69.495l-41.82-40.61 40.608-41.82 41.824 40.608z"/></g><path fill="#FFC800" d="M38.69 55.596c-8.19 0-14.83-6.64-14.83-14.83 0-8.192 6.64-14.832 14.83-14.832s14.83 6.64 14.83 14.83c0 8.192-6.64 14.832-14.83 14.832"/><path fill="#FF664A" d="M63.702 30.584c-8.19 0-14.83-6.64-14.83-14.83 0-8.19 6.64-14.83 14.83-14.83 8.19 0 14.83 6.64 14.83 14.83 0 8.19-6.64 14.83-14.83 14.83"/><path fill="#00BFFF" d="M64.09 80.896c-8.19 0-14.83-6.64-14.83-14.83 0-8.19 6.64-14.83 14.83-14.83s14.83 6.64 14.83 14.83c0 8.19-6.64 14.83-14.83 14.83"/><path fill="#09E09C" d="M89.31 56.093c-8.19 0-14.83-6.64-14.83-14.83 0-8.19 6.64-14.83 14.83-14.83s14.83 6.64 14.83 14.83c0 8.19-6.64 14.83-14.83 14.83"/><g><defs><path id="m" d="M81.048-87.69a23.305 23.305 0 0 1-.744 3.75c-.15 8.476-6.817 15.36-15.206 15.85a23.25 23.25 0 0 1-4.68 1.03l-9.274 9.273 27.25 27.252 8.642-8.64c.667-11.898 10.196-21.428 22.093-22.094l7.25-7.25-27.25-27.25-8.082 8.08z"/></defs><clipPath id="n"><use xlink:href="#m" overflow="visible"/></clipPath><linearGradient id="o" gradientUnits="userSpaceOnUse" x1="-286.663" y1="-140.146" x2="-285.993" y2="-140.146" gradientTransform="rotate(130.9 -7705.164 -218.84) scale(44.3)"><stop offset="0" stop-color="#09e09c"/><stop offset="1" stop-color="#00bfff"/></linearGradient><path clip-path="url(#n)" fill="url(#o)" d="M148.662-67.825L88.436 1.745 18.864-58.48l60.227-69.572z"/><g><defs><path id="p" d="M12.338-69.342l8.08 8.08c10.818 1.232 19.4 9.814 20.63 20.63l9.275 9.274L77.575-58.61l-8.64-8.642a23.367 23.367 0 0 1-4.932-.815c-8.537-.072-15.494-6.76-15.996-15.19a23.41 23.41 0 0 1-1.166-6.088l-7.25-7.25L12.34-69.342z"/></defs><clipPath id="q"><use xlink:href="#p" overflow="visible"/></clipPath><linearGradient id="r" gradientUnits="userSpaceOnUse" x1="-281.399" y1="-133.334" x2="-280.73" y2="-133.334" gradientTransform="matrix(29.5 31 -31 29.5 4203.172 12582.555)"><stop offset="0" stop-color="#ffc800"/><stop offset="1" stop-color="#00bfff"/></linearGradient><path clip-path="url(#q)" fill="url(#r)" d="M46.572-129.17l63.58 66.812L43.34 1.222-20.24-65.59z"/></g></g></svg>