<?xml version="1.0" encoding="UTF-8" standalone="no"?>
<!-- Created with Inkscape (http://www.inkscape.org/) -->
<svg xmlns:rdf="http://www.w3.org/1999/02/22-rdf-syntax-ns#" xmlns="http://www.w3.org/2000/svg" version="1.1" xmlns:cc="http://creativecommons.org/ns#" xmlns:dc="http://purl.org/dc/elements/1.1/" viewBox="0 0 100 100">
 <metadata>
  <rdf:RDF>
   <cc:Work rdf:about="">
    <dc:format>image/svg+xml</dc:format>
    <dc:type rdf:resource="http://purl.org/dc/dcmitype/StillImage"/>
    <dc:title/>
   </cc:Work>
  </rdf:RDF>
 </metadata>
 <g transform="translate(-355.41008,-647.41903)">
  <g transform="matrix(1.0009962,0,0,1.0009962,102.21138,334.94024)">
   <path fill-rule="evenodd" fill="#002b64" d="m350.66,325.76c-1.5439,0.0493-1.0692,0.49714-4.4053,1.3181-3.3688,0.82903-7.4722,0.57715-11.1,2.0986-10.829,4.5416-13.014,20.056-22.859,25.616-7.3588,4.1566-14.779,4.4989-21.454,6.5906-4.3866,1.3755-9.1894,4.1889-13.164,7.6138-3.085,2.6594-3.1591,5.0068-6.3824,8.3422-3.4477,3.5677-13.702,0.0548-18.349,5.5152,1.4972,1.5139,2.1485,1.9364,5.099,1.5436-0.61086,1.1578-4.2083,2.1297-3.5034,3.8329,0.74169,1.7922,9.4472,3.0088,17.361-1.769,3.6855-2.2251,6.626-5.4261,12.366-6.1916,7.4277-0.98999,15.977,0.63313,24.576,1.8731-1.275,3.8016-3.8289,6.3204-5.8795,9.3482-0.63499,0.68389,1.272,0.7602,3.4514,0.34688,3.9205-0.96943,6.7536-1.7465,9.7124-3.4687,3.6349-2.1161,4.1772-7.5326,8.6371-8.7065,2.485,3.8194,9.2474,4.7199,13.441,1.665-3.68-1.0416-4.6936-8.8797-3.4514-12.331,1.1766-3.2672,2.3358-8.4981,3.5207-12.817,1.2722-4.6383,1.7383-10.472,3.2779-12.834,2.3164-3.5547,4.8714-4.7769,7.0935-6.7813,2.2222-2.0044,4.2639-3.9638,4.1971-8.5504-0.0215-1.4773-0.78012-2.2996-2.1853-2.2547zm-0.43359,0.84984c0.12236-0.0151,0.22885,0.00004,0.34687,0,0.11774-0.00004,0.24649,0.004,0.36421,0.0173,0.10085,0.0106,0.18235,0.0231,0.26016,0.0521,0.15908,0.1123,0.36796,0.19718,0.48562,0.38155,0.0446,0.0575,0.0985,0.17094,0.12141,0.24282,0.0781,0.32694,0.1519,0.63304,0.13874,1.0059-0.00055,0.0664,0.00041,0.1236,0,0.19078-0.018,0.17393-0.0411,0.36788-0.0694,0.55499-0.0445,0.0517-0.0188,0.0842-0.0694,0.13875-0.0603,0.0623-0.13077,0.16015-0.20813,0.20812-0.0886,0.009-0.15514,0.0773-0.27749,0.0694-0.24365-0.0188-0.55797-0.0287-0.79781-0.0521-0.22277-0.0259-0.42737-0.0654-0.46827-0.0694-0.29144-0.0542-0.64954-0.0953-0.91921-0.2775-0.061-0.0424-0.11251-0.0806-0.22547-0.15609-0.0973-0.11526-0.2158-0.22755-0.29484-0.36421-0.0524-0.11484-0.11758-0.21558-0.17344-0.32953-0.0675-0.13975-0.21499-0.33851-0.10406-0.50296,0.30084-0.18347,0.6476-0.40206,0.93656-0.58968,0.0645-0.0516,0.16085-0.12619,0.2428-0.19078,0.0634-0.0437,0.14672-0.0868,0.24282-0.15609,0.13254-0.0553,0.18552-0.15904,0.46827-0.17344zm-3.2086,2.6882c0.12482,0.004,0.0977,0.20202-0.0867,0.41625-0.75555,0.79832-3.2113,3.4404-3.989,5.8448-0.13778,0.41111-0.54854,0.58686-0.34688-0.052,0.78444-2.3422,2.9477-4.8636,4.0411-5.9835,0.18103-0.16813,0.30666-0.22816,0.38155-0.22547zm0.32953,0.55499c0.12418-0.0132,0.13506,0.17841-0.0173,0.41625-0.6361,0.89665-2.7064,2.9727-3.1392,5.4632-0.0778,0.42611-0.45631,0.66055-0.34687,0,0.44777-2.4294,2.2315-4.3392,3.1565-5.602,0.15541-0.19187,0.27236-0.26959,0.34687-0.2775zm0.3989,0.48562c0.12262-0.0234,0.15001,0.1666,0.0173,0.41625-0.55832,0.94721-1.911,2.6853-2.1333,5.2031-0.0411,0.43166-0.38286,0.68456-0.32953,0.0173,0.24222-2.4577,1.3177-3.9873,2.1333-5.3245,0.13875-0.20396,0.23861-0.29811,0.31219-0.31219zm0.45094,0.38156c0.12033-0.0343,0.1444,0.15583,0.0347,0.41625-0.47332,0.99276-1.3701,2.277-1.3701,4.8042-0.004,0.43388-0.34131,0.7209-0.34687,0.0521,0.0244-2.47,0.69305-3.5396,1.3875-4.9429,0.12104-0.21562,0.22264-0.30897,0.29484-0.32953zm-8.4984,1.1967c0.30935-0.008,0.62562,0.006,0.97124,0.0347,0.66722,3.0738-3.0594,4.32-4.8388,2.775,0.41951-1.802,1.7022-2.7552,3.8676-2.8097zm-7.4057,40.913c0.14999,2.4011,1.5444,7.1672,2.775,8.3249-2.41,0.5861-6.5488-0.38126-7.6138-2.0812,0.54721-2.4544,3.3817-4.7015,4.8389-6.2437z"/>
  </g>
 </g>
</svg>
