<svg xmlns="http://www.w3.org/2000/svg" viewBox="0 0 128 128"><path fill="#F7931E" d="M34.395 65.632c-1.44-1.104-3.464-1.632-5.96-1.632-2.736 0-4.635.624-5.644 1.92-.462-.499-1.033-.896-1.686-1.199-.693-.704-1.411-1.132-2.146-1.338 1.632-1.048 3.546-2.463 5.968-4.375-9.84 1.008-14.595 1.968-23.043 7.057l1.006.005c-.202 1.581-.097 3.938-.059 4.635-1.132 2.893-.115 5.244.731 7.36 0-2.547.125-4.608-.598-7.25l5.744-4.553c-.092.858-.079 1.859.086 3.065l.018.005-.066.331.256.045c-.063.429-.002.873-.002 1.349v11.943h5v-11.32c0-.563.241-1.055.355-1.48.784-.132 1.628-.356 2.345-.663l.066.127.153-.188c.577-.258 1.15-.571 1.671-.94.925.479 1.41 1.519 1.41 3.144v11.32h6v-11.32c0-2.304.628-3.456 2.5-3.456s2.5 1.152 2.5 3.456v11.32h6v-11.943c0-2.401-.925-4.177-2.605-5.425zM47.39 63.904c-2.832 0-5.184.912-7.008 2.688-1.872 1.776-2.784 4.08-2.784 6.913 0 2.832.96 5.136 2.784 6.912 1.872 1.776 4.176 2.689 7.008 2.689 2.784 0 5.137-.913 7.009-2.689 1.872-1.776 2.783-4.08 2.783-6.912 0-2.833-.911-5.136-2.783-6.913-1.825-1.776-4.176-2.688-7.009-2.688zm3.12 13.2c-.768 1.104-1.824 1.632-3.168 1.632s-2.4-.528-3.168-1.632c-.672-.96-1.008-2.16-1.008-3.552 0-1.44.384-2.64 1.104-3.648.72-1.008 1.776-1.536 3.12-1.536s2.448.528 3.169 1.632c.672.96 1.008 2.161 1.008 3.552-.001 1.393-.337 2.593-1.057 3.552zM67.551 63.904c-2.832 0-5.184.912-7.008 2.688-1.873 1.776-2.785 4.08-2.785 6.913 0 2.832.961 5.136 2.785 6.912 1.871 1.776 4.176 2.689 7.008 2.689 2.784 0 5.137-.913 7.008-2.689 1.873-1.776 2.785-4.08 2.785-6.912 0-2.833-.912-5.136-2.785-6.913-1.824-1.776-4.176-2.688-7.008-2.688zm3.121 13.2c-.769 1.104-1.824 1.632-3.169 1.632-1.344 0-2.399-.528-3.169-1.632-.672-.96-1.008-2.16-1.008-3.552 0-1.44.385-2.64 1.104-3.648.72-1.008 1.776-1.536 3.12-1.536s2.448.528 3.168 1.632c.672.96 1.008 2.161 1.008 3.552.001 1.393-.335 2.593-1.054 3.552zM92 66.4c0-1.584-2.528-2.4-5.505-2.4-2.592 0-4.599.912-6.183 2.688-1.584 1.776-2.302 4.032-2.302 6.672 0 2.688.795 4.944 2.426 6.769 1.584 1.824 3.758 2.736 6.398 2.736.961 0 1.767-.144 2.821-.528 1.202-.384 2.345-.912 2.345-1.584v2.247h6v-32h-6v15.4zm0 8.881c0 .864-.319 1.68-1.327 2.496-1.057.816-1.864 1.2-2.728 1.2-1.441 0-2.542-.576-3.356-1.776-.721-1.056-1.08-2.304-1.08-3.745 0-1.488.398-2.784 1.119-3.792.863-1.152 1.973-1.728 3.414-1.728 1.008 0 1.763.48 2.724 1.392.959.912 1.234 1.872 1.234 2.88v3.073zM100 51h5v32h-5zM119.201 78.785c-.912.384-1.729.576-2.496.576-1.104 0-2.063-.524-2.977-1.34-.863-.816-1.439-2.021-1.68-3.021h14.641c0-3-.863-5.956-2.543-7.924-1.824-2.161-4.369-3.171-7.633-3.171-2.977 0-5.426.888-7.297 2.616-1.871 1.776-2.832 4.091-2.832 7.067 0 2.88.961 5.19 2.832 6.967 1.871 1.728 4.271 2.643 7.105 2.643 2.254 0 4.271-.527 6.145-1.535 1.967-1.056 3.408-2.591 4.223-4.56l-5.855.048c0 .625-.527 1.154-1.633 1.634zm-5.424-9.897c.816-.815 1.775-1.268 2.928-1.268 1.105 0 2.111.534 2.977 1.35.768.768 1.248 2.03 1.488 3.03h-8.977c.287-1 .817-2.296 1.584-3.112z"/></svg>