<?xml version="1.0" encoding="UTF-8" standalone="no"?>
<!-- Created with Inkscape (http://www.inkscape.org/) -->
<svg xmlns:rdf="http://www.w3.org/1999/02/22-rdf-syntax-ns#" xmlns="http://www.w3.org/2000/svg" version="1.1" xmlns:cc="http://creativecommons.org/ns#" xmlns:dc="http://purl.org/dc/elements/1.1/" viewBox="0 0 82.24 100">
 <defs></defs>
 <metadata>
  <rdf:RDF>
   <cc:Work rdf:about="">
    <dc:format>image/svg+xml</dc:format>
    <dc:type rdf:resource="http://purl.org/dc/dcmitype/StillImage"/>
    <dc:title/>
   </cc:Work>
  </rdf:RDF>
 </metadata>
 <g transform="translate(7.9473495,-674.03648)">
  <g transform="matrix(0.13623478,0,0,0.13623478,-19.931262,653.12566)">
   <path fill="#000" d="M388.91,4.6562c-1.26-0.1471-21.48,7.1278-34.47,12.406-17.61,7.152-31.29,14.019-39.72,19.938-2.7462,1.9277-6.0965,5.1929-7.2812,7-0.009-0.03209-0.0228-0.06137-0.0312-0.09375,0,0-0.16445,0.24891-0.3125,0.6875-0.008,0.01819-0.0246,0.04496-0.0312,0.0625-0.0562,0.17536-0.11229,0.3639-0.15625,0.59375-0.0992,0.42525-0.15311,0.87581-0.15625,1.3438l0.0937,0.09375c0.0375,0.633,0.18319,1.3643,0.5,2.1562,0.73005,1.8249,2.8965,4.0216,5.3125,6.3438,0,0,25.306,24.672,28.406,28.25,14.022,16.183,20.125,32.13,20.688,54.125,0.36094,14.115-2.3574,26.517-8.9688,40.938-11.85,25.846-36.813,54.336-75.375,86.031l0.4687-0.15625c-0.23232,0.1865-0.49398,0.41459-0.71875,0.59375-4.6021,3.6681-11.44,10.459-14.938,14.812-5.2035,6.4772-9.2817,13.376-11.031,18.688-3.1476,9.5566-1.6018,19.223,4.4688,28.156,7.7545,11.411,23.171,23.014,41.125,30.906,9.158,4.0259,24.631,9.1987,36.219,12.125,19.312,4.8767,56.632,10.181,77.188,10.969,4.1688,0.15961,9.7137,0.16848,9.9688,0,0.45113-0.29796,3.6622-6.3844,7.375-13.969,12.633-25.806,21.769-49.994,26.688-70.656,2.9781-12.511,5.2772-29.188,6.7812-48.969,0.42127-5.5409,0.57377-24.031,0.25-30.312-0.52681-10.221-1.3992-18.543-2.8438-26.719-0.10189-0.57607-0.18491-1.1124-0.21875-1.5312,45.749-13.595,96.319-25.927,129.84-31.062l5.2188-0.78125-0.8125-1.25c-4.5588-7.086-7.6615-11.463-11.406-16.094-10.94-13.53-24.19-24.58-40.42-33.67-22.28-12.474-51.2-22.166-87.74-29.432-6.892-1.3703-21.954-3.9264-34.25-5.8438l-1.2188-2.1875c-6.716-11.851-14.13-26.514-18.438-36.438-3.3363-7.6852-6.5352-16.526-8.3125-22.938-1.0555-3.8079-1.1638-4.0566-1.75-4.125zm-0.97,2.9063c0.0503-0.00905,0.0859-0.00939,0.0937,0,0.0399,0.047764,0.26906,1.6414,0.5,3.5312,0.97258,7.9592,2.744,15.692,5.5312,24,2.1003,6.2607,2.1248,5.8852-0.375,5.1875-5.8106-1.6217-31.823-6.0795-50.656-8.6875-3.0345-0.42022-5.5848-0.80355-5.625-0.84375-0.23912-0.23912,13.592-7.4931,19.719-10.344,7.8581-3.6561,29.255-12.564,30.812-12.844zm-54.875,25.5,2.2188,0.75c12.091,4.1158,42.404,9.9214,59.156,11.312,1.8899,0.15694,3.4518,0.29968,3.5,0.34375,0.0482,0.04406-1.557,0.90162-3.5625,1.9062-8.0813,4.0482-16.972,8.9927-23.125,12.844-1.4576,0.91232-2.758,1.6518-3.3438,1.9062-1.8488-0.31417-3.7108-0.65-5.5625-0.96875l-5.4062-5.25c-10.05-9.717-17.92-17.219-20.95-20.061l-2.9375-2.7812zm-2.2188,1.7812,8,10c4.408,5.4988,8.8316,10.951,9.8125,12.125,0.91446,1.0948,1.5701,1.9746,1.625,2.125-5.6852-0.98706-11.751-2.0805-16.438-3.0938-0.32107-0.06942-0.78493-0.1671-1.1562-0.25-0.26362-0.06045-0.43667-0.09839-0.6875-0.15625-0.75131-0.1709-1.5295-0.35057-2.4062-0.5625-0.98637-0.23438-1.8742-0.4506-2.6875-0.65625-1.3284-0.34351-2.7026-0.72956-4.0625-1.125-0.0212-0.0063-0.0412-0.02497-0.0625-0.03125-0.78083-0.22755-1.5572-0.44754-2.3125-0.6875-0.11792-0.03743-0.22348-0.05529-0.34375-0.09375-0.46097-0.14866-0.90181-0.31662-1.3438-0.46875-0.55-0.217-1.18-0.462-1.78-0.686v-0.625c0.0397-3.8403,4.8785-9.5174,13.094-15.312l0.75-0.5zm68.188,13.625c0.24018,0.01856,0.47782,0.50778,1.1875,2.0625,1.9422,4.2547,8.0072,15.801,9.4688,18.031,0.12033,0.18365,0.23616,0.31859,0.25,0.40625-12.356-1.9414-22.878-3.6461-32.531-5.25,0.0506-0.09635,0.57451-0.43685,1.25-0.8125,5.9721-3.3211,12.012-7.5095,17.375-12.031,1.2824-1.0811,2.4928-2.0927,2.7188-2.2812,0.0929-0.07755,0.20119-0.13118,0.28125-0.125zm-76.97,9.657c0.0355-0.03205,0.99743,0.26286,2.1562,0.65625,2.1357,0.72498,4.9388,1.5833,8.2188,2.5,2.2978,0.6422,4.8485,1.3141,7.5312,2,3.4241,0.8754,6.2451,1.6468,6.2812,1.6875,0.37906,0.42622,6.1327,18.771,8.0938,25.812,0.74851,2.6878,1.3036,4.9151,1.25,4.9688-0.0536,0.05363-0.69176-0.93098-1.4062-2.1875-6.653-11.7-17.191-23.58-29.375-33.156-1.5186-1.1936-2.75-2.2361-2.75-2.2812zm28.031,7.75c0.29307-0.02021,1.5565,0.19822,3.0625,0.53125,9.702,2.1455,27.047,5.5011,38.188,7.375,1.8561,0.31222,3.375,0.64774,3.375,0.75,0,0.10223-0.68757,0.54439-1.5312,0.96875-1.8692,0.94026-9.4381,5.4625-11.969,7.1562-6.3175,4.2283-11.988,8.7601-16.125,12.875-1.6623,1.6536-3.0491,3-3.0938,3s-0.34812-0.97508-0.65625-2.1562c-2.068-7.9271-6.3553-19.637-10.188-27.875-0.61668-1.3257-1.125-2.491-1.125-2.5938,0-0.01298,0.0205-0.02857,0.0625-0.03125zm49.344,9.375c0.32468,0.10821,0.91263,2.0397,2,6.3438,2.0821,8.2416,3.0728,17.5,2.75,26.062-0.0898,2.3829-0.25064,4.5808-0.34375,4.9062l-0.1875,0.59375-2.9375-0.9375c-6.06-1.94-15.97-4.87-24.46-7.22-4.8259-1.3356-8.7812-2.5076-8.7812-2.625,0-0.35278,7.0355-7.4177,10.062-10.094,5.7821-5.1116,21.355-17.215,21.906-17.031zm3.9062,0.5625c0.17559-0.16339,23.557,3.9026,34.188,5.9375,7.9236,1.5168,19.403,3.8989,20.094,4.1875,0.33352,0.13937-0.84998,0.8148-4.6562,2.5312-15.056,6.7894-26.225,12.83-37.312,20.25-2.9205,1.9544-5.3246,3.5625-5.375,3.5625-0.0505,0-0.0922-1.6339-0.0937-3.625-0.008-10.812-2.1665-21.717-6.125-30.938-0.42604-0.99224-0.76142-1.8665-0.71875-1.9062zm60.5,11.969c0.18112,0.18116-0.58501,4.8064-1.25,7.5312-2.0698,8.4807-7.5755,21.075-14.344,32.906-1.1927,2.0849-2.2513,3.8062-2.375,3.8438-0.12377,0.0377-1.6514-0.75481-3.4062-1.7812-6.6184-3.8711-14.114-7.5439-22.344-10.938-2.2948-0.94629-4.2751-1.7812-4.375-1.875-0.37532-0.35214,17.929-12.463,27.625-18.281,7.7552-4.6538,20.251-11.624,20.469-11.406zm4.3125,0.6875c0.52665,0,10.886,2.8332,16.25,4.4375,13.362,3.9962,28.782,9.6152,38.781,14.156l4.1562,1.875-2.9062,0.6875c-24.466,5.6205-45.459,12.114-65.656,20.312-1.6782,0.6812-3.1163,1.25-3.2188,1.25-0.10249,0,0.40973-1.3201,1.1562-2.9062,6.0711-12.899,10.013-26.413,11.031-37.906,0.0927-1.0461,0.27069-1.9062,0.40625-1.9062zm-103.12,23.688c0.16568-0.16366,8.0682,1.6971,12.375,2.9062,6.4734,1.8174,20.241,6.4279,20.25,6.7812,0,0.0687-1.5209,1.3864-3.375,2.9375-7.4472,6.2305-14.614,12.752-23.219,21.062-2.551,2.4636-4.7366,4.4688-4.8438,4.4688-0.10715,0-0.1532-0.37377-0.0937-0.8125,1.2959-9.5661,1.0227-21.84-0.78125-34.344-0.22867-1.585-0.36993-2.9433-0.3125-3zm166.28,0.15625c0.11843,0.11843-3.6772,6.0341-6.0312,9.4062-3.4348,4.9203-8.4071,11.393-19.75,25.656-5.9581,7.492-12.674,15.975-14.938,18.844-2.2638,2.8686-4.1642,5.2188-4.2188,5.2188-0.0545,0-0.78916-1.0326-1.625-2.2812-6.3942-9.5523-13.98-17.936-23.031-25.469-1.6892-1.4057-3.5835-2.965-4.2188-3.4375-0.63522-0.47247-1.1536-0.90126-1.1562-0.96875-0.006-0.15573,9.6527-4.3099,17.031-7.3125,12.845-5.2272,30.393-11.472,43.531-15.5,6.9283-2.1241,14.301-4.2615,14.406-4.1562zm4.3438,1.1562c0.20747-0.0423,1.5952,0.61461,3.25,1.5625,13.837,7.9264,27.4,18.125,38.062,28.594,3.033,2.9778,10.454,10.686,10.344,10.75-0.0282,0.0164-2.5827,0.20402-5.6875,0.4375-23.978,1.8034-54.641,6.9032-84.156,14-2.0046,0.48197-3.7324,0.90625-3.8438,0.90625-0.11141,0,2.0841-2.2232,4.875-4.9062,17.333-16.663,25.228-27.171,34.531-45.969,1.3856-2.7997,2.576-5.2278,2.625-5.375zm-126.72,13c0.79174,0.17768,8.1711,3.6128,13.75,6.4062,5.1019,2.5546,12.833,6.6696,13.219,7.0312,0.0484,0.0454-2.683,1.4654-6.0625,3.1562-10.699,5.3529-19.838,10.405-29.406,16.25-2.7286,1.6668-5.0212,3.0312-5.0938,3.0312-0.2387,0-0.15187-0.20358,1.375-3,5.0954-9.3322,9.1979-20.487,11.562-31.375,0.21105-0.97183,0.4778-1.54,0.65625-1.5zm-7.4375,1.3125c0.15431,0.15431-1.7849,7.2061-3,10.969-2.3305,7.2166-6.2764,16.297-10.062,23.125-0.88917,1.6036-2.2268,3.9506-3,5.2188l-1.4062,2.2812-3.2188-3.0625c-3.7108-3.5975-6.7341-5.8584-10.594-7.8438-1.517-0.7803-2.7481-1.4876-2.75-1.5938-0.007-0.46931,9.7206-9.3155,17.219-15.656,5.3672-4.5388,16.675-13.575,16.812-13.438zm45.25,18.625,2.7812,1.7812c6.3692,4.1353,13.906,9.7086,19.656,14.5,3.2224,2.6851,9.4631,8.2974,10.75,9.6562l0.71875,0.71875-4.625,1.2812c-26.082,7.2364-46.239,13.704-69.75,22.344-2.6093,0.95887-4.8457,1.75-5,1.75-0.32434,0-0.64707,0.27311,5.2188-5.125,15.038-13.839,28.323-29.072,38.25-43.906l2-3zm-11.906,2.9688c0.13624,0.13624-7.7138,11.14-12.375,17.344-5.5765,7.4221-15.51,19.829-22.344,27.906-2.8551,3.3748-5.2738,6.1738-5.4062,6.2188-0.14531,0.0494-0.24733-0.78583-0.25-2.0938-0.0133-6.8921-1.7629-14.263-4.8438-20.5-1.3013-2.6344-1.5181-3.2569-1.25-3.5,1.0722-0.9721,17.666-10.456,28.125-16.062,7.184-3.8513,18.207-9.4492,18.344-9.3125zm-71.89,17.61c0.1425,0,1.4557,0.67913,2.9375,1.5,3.631,2.0115,6.9034,4.2244,9.7812,6.625,0.11104,0.0926-1.3791,1.2926-3.3125,2.6875-5.3967,3.8936-13.615,10.12-18.375,13.906-5.0217,3.9945-5.1899,4.114-4.625,3.25,3.7607-5.7516,5.6504-9.0285,7.625-13.188,1.7553-3.6972,3.5003-8.0884,4.75-11.906,0.51915-1.5861,1.0763-2.875,1.2188-2.875zm19.156,15.031c0.25925-0.032,0.61577,0.44817,2.1562,2.75,3.2466,4.8511,5.7328,11.327,6.375,16.594l0.125,1.125-7.7812,3.0312c-13.967,5.4202-26.815,10.773-35.5,14.75-2.4298,1.1126-6.7302,3.1609-9.5312,4.5625-2.801,1.4015-5.0625,2.4978-5.0625,2.4375s1.7569-1.3772,3.9062-2.9375c17.045-12.374,31.741-25.925,42.812-39.469,1.1842-1.4485,2.2396-2.7288,2.375-2.8125,0.0359-0.0222,0.088-0.0266,0.125-0.0312zm-8.8438,2.1875c0.22547,0.22547-6.3001,7.6158-10.688,12.094-10.981,11.208-21.857,19.976-35.344,28.531-1.6874,1.0704-3.235,2.0378-3.4375,2.1562-0.37021,0.21654,0.10964-0.32944,6.0312-6.7812,3.7316-4.0657,6.601-7.4434,9.8438-11.656,2.1355-2.7743,2.5278-3.1481,5.6562-5.4062,8.4272-6.0827,27.713-19.162,27.938-18.938zm76.344,6.8125c0.80813,3.2742,2.2998,18.04,2.7188,27.844,0.10059,2.3538,0.0773,3.875-0.0625,3.875-0.44971,0-9.6666-5.405-16.188-9.5-5.6294-3.5352-16.191-10.567-18.094-12.031,9.9539-3.3848,20.603-6.8271,31.625-10.188zm-37.656,12.25c0.78128,0.38394,1.9644,1.1077,3.9375,2.3438,11.752,7.3618,27.681,16.21,34.5,19.188,2.1144,0.92324,2.37,0.56785-2.5,3.875-10.381,7.0493-23.311,13.992-39.156,21.031-2.7616,1.2268-5.0932,2.2188-5.1875,2.2188s0.22223-1.4039,0.6875-3.125c3.8384-14.199,6.0018-28.537,6.0625-40.031,0.0149-2.8165,0.0239-4.2278,0.0937-4.9688,0.51156-0.17974,1.0466-0.35122,1.5625-0.53125zm-8.8125,3.125c0.20942,2.2768-0.0305,12.955-0.40625,16.094-0.99696,8.327-2.6139,16.025-5.2188,24.781-0.62244,2.0924-1.2196,3.8923-1.3125,4-0.22627,0.26232-8.0044-7.3088-10.594-10.312-4.4242-5.1322-7.919-10.228-10.469-15.25-1.0928-2.1524-2.7219-6.052-3.0938-7.3125,8.0633-3.279,16.458-6.5398,25.25-9.8438,1.8761-0.70506,3.8855-1.4434,5.8438-2.1562zm-37.04,14.48c0.15904,0.28419,0.45931,1.0006,0.78125,1.875,1.8144,4.9281,5.8945,12.223,9.4375,16.906,3.8681,5.1131,8.9051,10.569,13.125,14.188,1.355,1.162,2.6314,2.2457,2.8125,2.4062,0.36133,0.32029,0.47611,0.25801-8.8125,3.7812-10.765,4.0833-22.508,8.1799-35.969,12.531-5.1297,1.6582-9.4563,3.0624-9.625,3.125-0.51274,0.19012-0.34316-0.12781,1.1562-2.4688,6.6884-10.442,16.804-30.865,22.469-45.312,0.98255-2.5058,1.926-5.0014,2.0938-5.5625,0.0584-0.19531,0.12242-0.35761,0.1875-0.5,0.77581-0.32492,1.5615-0.64392,2.3438-0.96875zm-11.84,5.03c-0.64941,1.6223-3.0415,6.5744-5.4062,11.188-5.5097,10.748-11.591,21.341-19.656,34.25-1.3915,2.2273-2.6698,4.2475-2.8438,4.5-0.28643,0.41579-0.39818,0.28758-1.2812-1.4688-1.9307-3.84-3.5383-8.6817-4.375-13.188-0.82808-4.4594-0.68454-12.18,0.3125-16.969,0.39889-1.9158,0.5997-2.7602,0.9375-3.2812,10.194-5.0899,20.904-10.079,32.312-15.031zm98.406,3.4062,0,2.4062c-0.0122,12.705-1.3756,30.121-3.3438,42.812-0.34535,2.2271-0.63338,4.0712-0.65625,4.0938-0.0227,0.0225-1.6278-0.46186-3.5625-1.0625-8.5489-2.654-17.826-6.6054-26.188-11.188-5.5374-3.0344-13.537-7.963-13.312-8.1875,0.061-0.061,2.3957-1.3159,5.2188-2.7812,11.181-5.8037,21.871-12.044,31.156-18.25,3.484-2.3285,8.6863-6.1087,9.8438-7.125l0.84375-0.71875zm-141.12,16.938c0.0643,0.21748-0.0396,0.86492-0.3125,2.4375-0.25296,1.4582-0.52049,4.1938-0.625,6.0938-0.45803,8.3278,0.8953,14.468,5.0312,22.875,1.1499,2.3373,2.0476,4.3039,2,4.3438-0.4141,0.34663-38.066,11.352-49.906,14.594-3.5098,0.96089-6.5933,1.8309-6.8438,1.9062-0.41085,0.12367-0.43079,0.0261-0.28125-0.9375,1.2969-8.355,7.6578-19.326,16.562-28.531,5.0157-5.1852,9.192-8.5982,15.25-12.312,2.8541-1.6475,6.2316-3.5226,10.875-6.0625,2.7081-1.4813,5.471-2.9473,8.25-4.4062zm88.71,15.8c0.0358-0.0428,1.4267,0.69215,3.0938,1.6562,12.165,7.0351,29.153,13.627,43.625,16.938l1.3125,0.3125-1.8125,1c-7.5601,4.1951-32.445,14.554-57.875,24.094-3.7122,1.3926-7.3226,2.7507-8.0312,3.0312-0.70869,0.28053-1.3125,0.49334-1.3125,0.4375,0-0.0559,1.0572-2.0942,2.3438-4.5,7.1388-13.348,14.281-29.558,17.938-40.812,0.3728-1.1474,0.68291-2.1134,0.71875-2.1562zm-9.0625,2.9688c0.039,0.039-0.38539,1.2145-0.96875,2.625-4.9628,12.001-11.459,25.106-19.75,39.812-2.11,3.7426-3.9013,6.7874-3.9688,6.7812-0.0675-0.006-1.7831-1.0076-3.8125-2.25-12.077-7.3934-22.765-16.493-29.781-25.344l-1-1.25,5.2188-1.4375c18.574-5.0882,34.307-10.533,49.969-17.281,2.2177-0.95556,4.0547-1.6953,4.0938-1.6562zm56.281,19.625c0.0267,0.006,0.0312,0.0391,0.0312,0.0625,0,1.266-2.8875,12.959-5.2812,21.438-2.008,7.1125-3.6902,12.705-6.8125,22.562-1.379,4.3535-2.5544,7.8934-2.625,7.875s-0.41255-0.0952-0.75-0.15625c-16.919-3.0619-32.054-7.3272-46.25-13.031-3.9715-1.5958-9.7285-4.141-10.031-4.4375-0.10257-0.10046,3.3377-1.6919,7.625-3.5625,25.927-11.312,52.784-24.195,61.969-29.719,1.1046-0.66438,1.9384-1.0697,2.125-1.0312zm-129.88,4.4375c0.13902,0.1317-7.1211,10.543-17.25,24.719-3.5205,4.9272-7.6564,10.705-9.1875,12.875-1.5311,2.1702-3.8438,5.6234-5.1562,7.6562l-2.375,3.6875-2.5625-2.1562c-2.9921-2.5122-8.2181-7.8198-10.594-10.781-4.8889-6.0942-8.2239-12.516-9.5312-18.406-0.60353-2.7193-0.6049-4.1085-0.0312-4.2812,0.82907-0.24968,16.018-3.8177,30.281-7.125,7.923-1.8371,17.094-3.9906,20.375-4.7812,3.2813-0.79063,5.9992-1.4366,6.0312-1.4062zm7.2812,2.8125,1.8438,2.0312c8.204,9.1391,16.539,15.961,26.719,21.844,1.7973,1.0386,3.1792,1.9591,3.0625,2.0312-0.42371,0.26188-35.197,12.615-51.281,18.219-9.0707,3.1604-16.521,5.7246-16.562,5.7188-0.0412-0.006-0.54797-0.34134-1.125-0.75l-1.0625-0.75,1.6562-2.3438c5.34-7.73,12.05-16.25,26.72-33.91l10.04-12.09zm45.469,32.469c0.0403-0.0502,2.5792,0.84941,5.6562,2,7.4171,2.7734,13.248,4.591,21.125,6.5625,9.6743,2.4214,23.627,4.8333,31.906,5.5312,1.271,0.10714,1.9227,0.24588,1.7188,0.375-0.38435,0.2434-8.7431,3.0626-14.906,5-9.7832,3.0754-39.684,11.892-64.062,18.906-4.5222,1.3012-8.3913,2.3954-8.5938,2.4375-0.54603,0.11356-2.4688-0.36893-2.4688-0.625,0-0.12171,1.3716-1.8585,3.0312-3.8438,8.194-9.8012,16.33-20.742,23.125-31.094,1.8584-2.8314,3.4286-5.1998,3.4688-5.25zm-10.062,0.28125c0.0733,0.0733-3.9898,6.5602-11.094,17.75-2.9995,4.7247-6.3968,10.089-7.5625,11.938-1.1657,1.8487-2.8658,4.6522-3.7812,6.25l-1.6562,2.9062-0.875-0.21875c-2.0414-0.55268-16.415-5.6464-20.219-7.1562-4.7145-1.8713-9.6272-4.1359-13.25-6.0938-4.5271-2.4466-10.294-6.0759-9.8438-6.2188,0.12961-0.0411,7.9307-2.1614,17.312-4.7188,24.958-6.8031,38.758-10.706,47.812-13.531,1.6919-0.52784,3.1238-0.93862,3.1562-0.90625zm70.875,16.625c0.0537-0.0117,0.089-0.0119,0.0937,0,0.23607,0.5903-9.0291,26.2-12.406,34.312-0.75636,1.8171-1.0126,2.2359-1.4062,2.2188-0.9559-0.0417-14.36-1.8941-22.469-3.125-14.19-2.15-37.96-6.31-43.96-7.68l-1.4062-0.3125,8.5312-1.9062c18.236-4.1087,26.99-6.3114,35.875-9.0312,11.205-3.4303,22.293-7.7279,33.5-12.938,1.7717-0.82361,3.28-1.4495,3.6562-1.5312z" transform="matrix(1.7565403,0,0,1.7565403,-350.46362,145.31607)"/>
  </g>
 </g>
</svg>
