<!-- Created with Inkscape (http://www.inkscape.org/) -->
<svg id="svg701" xmlns:rdf="http://www.w3.org/1999/02/22-rdf-syntax-ns#" xmlns="http://www.w3.org/2000/svg" viewBox="0 0 93.65 100" version="1.0" xmlns:cc="http://creativecommons.org/ns#" xmlns:xlink="http://www.w3.org/1999/xlink" xmlns:dc="http://purl.org/dc/elements/1.1/">
 <metadata id="metadata18">
  <rdf:RDF>
   <cc:Work rdf:about="">
    <dc:format>image/svg+xml</dc:format>
    <dc:type rdf:resource="http://purl.org/dc/dcmitype/StillImage"/>
    <dc:title/>
   </cc:Work>
  </rdf:RDF>
 </metadata>
 <defs id="defs2426"></defs>
 <path id="path2518" fill-rule="evenodd" fill="#000" d="M62.586,0.013121c-0.669,0.019743-1.39,0.071379-2.148,0.10633-2.243,0.40957-4.333,1.322-6.484,1.9858-3.329,1.1425-6.529,3.0956-7.903,6.0639-0.34434,0.65789-1.8528,2.7912-2.6343,3.7589-1.4633,1.4946-3.3207,2.7205-5.1875,3.7944-2.3177,1.2063-4.2087,2.7986-6.4843,5.4611-2.2996,2.7663-2.5001,5.1703-3.6474,8.298-1.7685,1.6365-3.1653-0.6209-2.7153-2.1986,1.0823-3.8178,3.0271-7.2611,2.7558-11.312-0.672-5.334-3.184-12.456-10.417-12.872-1.617,0.0045-2.076,0.2279-3.891,1.6667-1.215,0.9633-2.024,1.2911-4.012,1.7376-2.3741,0.5105-4.9059,0.157-7.1328,1.0639-1.0652,0.5462-2.3511,2.2106-2.6343,3.4046-0.23631,0.99597,0.33059,1.9825,1.459,2.5178,2.2755,0.93596,6.1551,0.23808,6.6464,3.0142-0.77364,2.9405-2.8783,4.9725-2.7558,7.9079-0.14975,3.211,0.31744,5.8647,0.56738,9.0072,0.33022,3.8516,3.5096,5.8946,5.7143,9.1136,3.3191,3.7063,9.2097,7.5775,14.873,6.0639,1.9659-0.55608,2.7529-0.45768,3.4853,0.461,0.49983,0.62693,0.56927,1.2044,0.28369,2.5887-0.34845,1.6891-0.3451,4.8986,0,6.7022,0.25564,1.3361,0.44604,3.3681,0.4458,4.5036-0.000209,0.92851,0.21027,2.0898,0.48632,3.0497,0.18007,0.62596,0.2112,1.2814,0.28369,3.4043,0.04902,1.4333,0.13494,2.834,0.20264,3.1206,0.22954,0.97184,0.17884,1.7632-0.32422,4.7873-0.21289,1.2798-0.95155,3.6189-1.459,4.61-0.2739,0.53497-1.1002,1.7851-1.7021,2.8015l0.12152,0.03538c1.002-0.07885,2.5586-0.14858,4.7822-0.2837,0.28028-1.2294,0.50822-2.5258,0.56738-3.4398,0.05784-0.89278,0.19731-1.9176,0.36474-2.6242,0.15151-0.63933,0.30301-1.7078,0.36474-2.3759,0.14491-1.5699,0.28508-2.0256,1.1348-3.6171,0.38648-0.72388,0.82425-1.6796,0.97265-2.1277,0.2595-0.78351,0.26676-0.93558,0.24316-3.227-0.0214-2.0838,0.03294-2.5116,0.24316-3.6171,0.4174-2.1954,0.6101-2.8493,1.4184-4.2908,1.0988-1.9595,1.1917-2.259,1.2969-4.0426,0.12268-2.0799,0.5122-3.1578,1.3374-3.9008,0.46433-0.41809,0.86584-0.63831,1.6211-0.70923,0.25175-0.0236,0.55209,0.000773,0.8916,0,1.4301-0.0034,2.0707,0.16669,2.5127,0.67377,0.41438,0.47546,0.46002,1.0609,0.12152,2.3405-0.15166,0.57333-0.34146,1.6125-0.40527,2.305-0.13982,1.5175-0.44224,2.3805-1.2158,3.5816-0.98594,1.531-1.0119,1.6657-1.0132,4.2199-0.0013,2.0513,0.0188,2.2614,0.24316,2.8724,0.13395,0.36485,0.40074,0.85412,0.6079,1.0993,0.45943,0.54378,1.8299,1.5714,3.2827,2.4823,1.4072,0.88229,3.0068,2.2393,3.9717,3.3688,1.0245,1.1885,2.4908,2.3632,2.6748,3.9008,0.0025,1.1236-0.74509,2.5424-1.8237,3.4752-0.55314,0.47835-0.93241,0.70281-2.0264,1.1702-1.5057,0.64339-2.0739,1.0615-2.1885,1.5958-0.02581,0.12025-0.03165,0.21771,0,0.31915,2.661-0.02392,5.3584-0.0091,8.0649,0.07093,0.31168-0.26037,0.58605-0.58136,0.81054-0.99292,0.41062-0.75281,0.72689-1.1298,1.1348-1.0993,0.40786,0.03055,0.87458,0.4818,1.4995,1.3121,0.30278,0.40229,0.59975,0.73336,0.8916,0.99293,1.0948,0.06175,2.1693,0.13327,3.2422,0.21276,0.39696-0.42727,0.65787-1.0722,0.81054-1.9858,0.10504-0.62842,0.10116-0.91314-0.04047-1.6312-0.32488-1.6473-0.77184-2.2877-2.1074-3.2625-0.451-0.32917-0.94291-0.75754-1.0942-0.95746-0.40209-0.53114-0.52816-1.2349-0.36474-1.9149,0.19912-0.82862,1.1243-2.2977,2.1885-3.5461,0.95324-1.1183,1.4541-1.8167,2.229-3.1206,0.29038-0.48864,0.72188-0.96793,1.3779-1.5603,0.52545-0.47443,1.1013-1.1386,1.2969-1.4539l0.32422-0.56738v-3.227c-0.01297-2.3003,0.13883-4.5309,0.48632-6.8086,0.28784-2.7317,1.3948-4.8874,2.9179-7.2341,0.87095-1.5741,1.28-2.0213,2.0264-2.0213,1.001,0,1.6099,0.96997,1.9048,3.0142,0.33726,2.0066,1.4529,3.7235,2.1479,5.6384,0.4238,1.3638,0.72644,1.9773,1.7021,3.688,0.92577,1.6232,1.7058,3.4338,1.9453,4.5391,0.12683,0.58499,0.16146,1.3961,0.16211,3.0851,0.000925,2.4882,0.09531,3.4796,0.4458,4.7518,0.26644,0.96682,0.39678,3.7386,0.28369,5.6029-0.06614,1.0902-0.09078,1.2323-0.77002,2.9788-0.9962,2.5616-1.2246,3.3101-1.4184,4.61-0.18674,1.2522-0.31283,1.5553-0.97265,2.8015-0.04007,0.07584-0.04629,0.13919-0.08106,0.21277,3.439,0.49111,5.4766,0.85512,6.6464,1.0638,0.14521-0.91306-0.14142-1.8481-0.08106-2.766,0.15975-0.22619-0.21761-1.8349-0.85107-3.5462-1.0074-2.7214-1.0845-3.1558-0.56738-5.0001,0.08987-0.32038,0.22935-1.3856,0.28369-2.3759,0.10427-1.9021,0.20222-2.3808,0.77001-3.6171,0.50912-1.1086,0.65894-1.5973,0.72949-2.7305,0.08197-1.317-0.09558-2.0903-0.64843-3.227-0.54688-1.1243-0.61812-1.6377-0.36474-2.8369,0.27431-1.2984,0.27344-4.3465,0-5.3192-0.27189-0.96724-0.41091-4.4756-0.36474-8.9718l0.56738-5.4965c0.87393-2.974,1.4067-4.0426,2.1074-4.0426,0.64221,0,1.2461,0.91888,1.6616,2.5887,0.25429,1.5484,0.12593,3.1383,0.4458,4.6809,0.41434,2.1298-0.24892,4.2612-1.4995,6.0994-0.7422,1.139-0.99825,1.9584-0.81054,2.5532,0.14976,0.47448,0.70291,1.0044,1.1348,1.0993,0.18758,0.04119,0.4221-0.0245,0.68896-0.14185,0.33072-0.14541,0.66667-0.50771,1.8237-2.0213,0.78432-1.026,1.5316-2.1102,1.6616-2.4114,1.0791-4.1408,1.1231-7.1972,0.52686-11.277,0-2.6497-0.41906-3.6421-2.5127-5.6384-3.922-4.27-6.184-8.018-8.434-13.051-0.776-1.128-1.906-2.496-2.756-3.333-1.323-1.303-2.113-2.594-2.837-4.539-1.043-2.3163-1.936-5.0522-3.485-7.057-1.459-1.4296-2.819-2.9999-4.945-3.7235-2.019-0.8283-3.708-0.94566-5.714-0.88654zm-2.229,49.185c0.15975,0.0091,0.31008,0.09146,0.48632,0.21277,0.49782,0.34264,0.61644,0.72828,0.8916,3.3334,0.14362,1.3597,0.32986,3.0647,0.4458,3.7944,0.51181,3.2204,0.59285,4.2289,0.4458,5.3192-0.07561,0.56133-0.15297,1.719-0.20264,2.5532-0.13978,2.3504-0.52029,3.3921-1.9858,5.6029-0.44729,0.67477-0.99576,1.5455-1.2158,1.9504-0.43793,0.80567-0.90818,1.3478-1.3779,1.5603-0.46089,0.2086-1.064,0.17069-1.6616-0.10633-0.822-0.38-2.318-1.395-3.039-2.055-0.77-0.707-1.098-1.088-1.985-2.483-1.01-1.585-1.135-1.917-1.135-2.624-0.000804-0.92411,0.38523-1.6093,1.4184-2.4823,0.45118-0.38125,1.4276-1.2279,2.1479-1.8795,1.4912-1.3487,1.5311-1.4167,1.9048-3.3334,0.3387-1.737,0.34613-1.7664,1.7427-3.5461,0.50019-0.63747,0.73779-1.2165,1.3374-3.1915,0.5542-1.8255,0.80404-2.2776,1.2563-2.4823,0.21648-0.09793,0.3671-0.15092,0.52685-0.14185z"/>
</svg>
