<svg xmlns="http://www.w3.org/2000/svg" viewBox="0 0 128 128"><g fill="#5058A6"><path d="M3.68 98.837c1.197-.2 2.767-.37 4.764-.37 2.453 0 4.25.57 5.392 1.597 1.056.913 1.684 2.31 1.684 4.023 0 1.74-.514 3.11-1.483 4.11-1.313 1.397-3.453 2.11-5.878 2.11-.743 0-1.427-.03-1.998-.17v7.703H3.68V98.837zm2.48 9.273c.543.143 1.228.2 2.056.2 2.996 0 4.822-1.456 4.822-4.11 0-2.538-1.798-3.765-4.537-3.765-1.084 0-1.91.086-2.34.2v7.475zM18.626 97.58h2.51v8.618h.058a4.666 4.666 0 0 1 1.797-1.77c.743-.427 1.628-.713 2.57-.713 1.855 0 4.822 1.14 4.822 5.907v8.217H27.87v-7.933c0-2.226-.827-4.11-3.195-4.11-1.627 0-2.91 1.142-3.367 2.512-.143.342-.17.713-.17 1.198v8.332h-2.512V97.58zM34.457 108.538c0-1.77-.057-3.195-.114-4.508h2.255l.114 2.37h.057c1.026-1.685 2.652-2.684 4.906-2.684 3.34 0 5.85 2.825 5.85 7.02 0 4.963-3.025 7.418-6.277 7.418-1.827 0-3.425-.8-4.254-2.17h-.056v7.505h-2.482v-14.952zm2.483 3.68c0 .372.057.714.114 1.028.457 1.74 1.97 2.94 3.766 2.94 2.653 0 4.195-2.17 4.195-5.336 0-2.768-1.456-5.136-4.11-5.136-1.71 0-3.308 1.227-3.795 3.11-.085.314-.17.685-.17 1.027v2.37zM50.632 113.36c1.17.6 2.968 1.2 4.822 1.2 1.997 0 3.053-.828 3.053-2.084 0-1.2-.912-1.883-3.225-2.71-3.195-1.114-5.278-2.883-5.278-5.68 0-3.28 2.738-5.79 7.275-5.79 2.168 0 3.765.456 4.908.97l-.97 3.51a9.133 9.133 0 0 0-4.024-.915c-1.883 0-2.797.858-2.797 1.856 0 1.227 1.085 1.77 3.567 2.71 3.396 1.256 4.994 3.025 4.994 5.736 0 3.225-2.482 5.964-7.76 5.964-2.198 0-4.366-.57-5.45-1.17l.884-3.596zM70.46 99.893v3.994h3.11v3.196h-3.11v5.05c0 1.683.4 2.454 1.712 2.454.542 0 .97-.057 1.284-.114l.028 3.28c-.57.23-1.598.372-2.825.372-1.398 0-2.568-.485-3.253-1.2-.798-.826-1.198-2.168-1.198-4.136v-5.708h-1.856v-3.196h1.855v-3.024l4.25-.97zM89.716 110.707c0 5.107-3.623 7.447-7.36 7.447-4.08 0-7.22-2.682-7.22-7.19 0-4.51 2.968-7.39 7.447-7.39 4.28 0 7.133 2.938 7.133 7.133zm-10.1.142c0 2.395 1 4.193 2.853 4.193 1.683 0 2.767-1.683 2.767-4.194 0-2.084-.798-4.196-2.768-4.196-2.083 0-2.854 2.14-2.854 4.195zM92.396 108.48c0-2.053-.057-3.394-.114-4.593h3.737l.14 2.568h.115c.715-2.025 2.426-2.88 3.766-2.88.4 0 .6 0 .915.056v4.08a6.22 6.22 0 0 0-1.17-.113c-1.598 0-2.683.856-2.967 2.197a5.125 5.125 0 0 0-.086.97v7.076h-4.336v-9.36zM103.236 108.338c0-1.74-.057-3.224-.114-4.45h3.652l.2 1.882h.084c.6-.884 1.826-2.197 4.223-2.197 1.8 0 3.226.913 3.824 2.368h.057a6.238 6.238 0 0 1 1.8-1.682c.77-.457 1.625-.685 2.652-.685 2.68 0 4.708 1.883 4.708 6.05v8.216h-4.223v-7.59c0-2.026-.656-3.196-2.055-3.196-1 0-1.712.685-1.997 1.512-.114.314-.17.77-.17 1.113v8.16h-4.224v-7.82c0-1.768-.626-2.967-1.995-2.967-1.113 0-1.77.856-2.027 1.57-.142.342-.17.74-.17 1.083v8.132h-4.223v-9.5z"/></g><path fill="#5058A6" d="M66.257 69.99c1.415 1.838 2.833 2.626 4.538 2.626 2.962 0 5.543-2.54 5.543-6.38V55.99c0-4.542-2.29-7.04-5.543-7.04-1.83 0-3.83 1.04-5.168 3.286V49.57h-5.704v34.44H30.16V69.99c1.414 1.838 2.834 2.626 4.54 2.626 2.96 0 5.543-2.54 5.543-6.38V55.99c0-4.542-2.287-7.04-5.542-7.04-1.832 0-3.833 1.04-5.167 3.286V49.57h-5.706v34.44H19.24V33.53h22.624v38.462h6.333V56.197c0-1.293.536-2.083 1.75-2.083 1.086 0 1.664.666 1.664 2.083v15.795h6.338V54.03c0-3.5-2.335-5.082-5.046-5.082-1.67 0-3.46.54-4.706 2.12V33.532h24.39c-.003.087-.01.154-.01.24l.07 2.147c0 3.138 1.513 6.986 2.26 8.693 0 0 2.148 4.405 3.81 6.135 1.66 1.725 2.883 3.018 4.293 4.378 1.304 1.25 2.53 2.438 3.192 3.254 1.1 1.358 1.168 2.518 1.267 4.204.194 3.286-1.014 5.194-2.88 7.734-1.897 2.59-2.94 3.71-4.144 5.007-.604.655-1.236 1.334-1.992 2.208l-.608.704c-1.215 1.4-2.242 2.59-3.11 3.682l-1.947 2.093h-6.534V69.99zm3.746-5.043V56.86c0-1.79-.624-2.746-1.87-2.746-1.254 0-1.876.956-1.876 2.747v8.087c0 1.793.622 2.627 1.875 2.627 1.247 0 1.87-.833 1.87-2.627zm-36.097 0V56.86c0-1.79-.622-2.746-1.87-2.746-1.25 0-1.877.956-1.877 2.747v8.087c0 1.793.625 2.627 1.876 2.627 1.248 0 1.87-.833 1.87-2.627z"/><path fill="#F58A1F" d="M103.69 16.55c1.454-1.684 2.654-3.048 3.64-4.288H85.257c-1.312 1.677-3.98 4.908-5.502 7.775-2.01 3.794-3.666 6.642-3.828 13.628l.07 2.253c0 3.33 2.387 8.22 2.387 8.22.372.87 1.63 2.7 2.436 3.82h-.018c.267.354.44.58.44.58 2.38 2.725 5.98 5.77 7.568 7.727 1.858 2.297 1.906 4.445 2.003 6.116.273 4.522-1.56 7.25-3.518 9.92-2.957 4.036-4.025 4.785-6.3 7.425-1.455 1.68-2.65 3.044-3.635 4.285h22.8c1.338-1.723 3.238-4.89 4.77-7.775 2.01-3.794 3.668-6.644 3.83-13.624l-.073-2.252c0-3.33-2.38-8.225-2.38-8.225-.375-.868-1.634-2.692-2.445-3.82h.017c-.26-.348-.44-.58-.44-.58-2.373-2.723-5.978-5.768-7.562-7.725-1.86-2.293-1.91-4.44-2.01-6.118-.27-4.52 1.56-7.25 3.517-9.92 2.962-4.032 4.03-4.786 6.304-7.42z"/></svg>