<!-- Created with Inkscape (http://www.inkscape.org/) -->
<svg id="svg31446" xmlns:rdf="http://www.w3.org/1999/02/22-rdf-syntax-ns#" xmlns="http://www.w3.org/2000/svg" viewBox="0 0 100 100" version="1.1" xmlns:cc="http://creativecommons.org/ns#" xmlns:dc="http://purl.org/dc/elements/1.1/">
 <metadata id="metadata23">
  <rdf:RDF>
   <cc:Work rdf:about="">
    <dc:format>image/svg+xml</dc:format>
    <dc:type rdf:resource="http://purl.org/dc/dcmitype/StillImage"/>
    <dc:title/>
   </cc:Work>
  </rdf:RDF>
 </metadata>
 <path id="path212" d="m69.451,41.759c0.09507-0.51951,1.3531-3.6444,1.3531-3.6444,1.5586-3.5107,0.56799-6.0269,0.56799-6.0269-0.91887-3.4099-3.5572-6.0754-3.5572-6.0754,0.12794,0.09507,0.9305,2.2293,0.9305,2.2293,1.8494,5.1081-3.1094,8.0392-3.1094,8.0392-1.2775,0.84325-3.3634,2.8535-3.3634,2.8535-2.9253,2.8594-2.0413,6.3642-2.0413,6.3642l0.11631,0.05226c3.4797,0.85491,6.7481,2.241,9.7179,4.0613-1.9676-3.8286-0.61452-7.8531-0.61452-7.8531" fill-rule="nonzero" fill="#000"/>
 <path id="path214" d="m79.622,58.316c-0.32568-4.2105,2.3689-7.3684,2.3689-7.3684,0.27721-0.44971,2.6054-2.8748,2.6054-2.8748,2.7585-2.6791,2.7837-5.3834,2.7837-5.3834,0.4226-3.5068-1.0332-6.9632-1.0332-6.9632,0.07956,0.13384,0.02916,2.4155,0.02916,2.4174-0.18804,5.426-5.8815,6.2983-5.8815,6.2983-1.5043,0.3082-4.1911,1.3958-4.1911,1.3958-3.5029,1.45-4.1756,4.6312-4.2512,5.0867,2.8865,2.0626,5.4376,4.5575,7.57,7.3917" fill-rule="nonzero" fill="#000"/>
 <path id="path216" d="m99.999,51.34c0.02714,0.15896-0.87622,2.2603-0.87622,2.2603-2.1886,4.9666-7.7949,3.6561-7.7949,3.6561-1.5101-0.26752-4.4082-0.25978-4.4082-0.25784-4.0903,0.04653-5.8718,3.1889-5.8718,3.1889l0.21518,0.52147c1.7796,2.8477,3.1521,5.9688,4.0399,9.2914,1.2097-4.1504,4.9976-6.1452,5.0014-6.1452,0.42454-0.30437,3.4855-1.704,3.4855-1.704,3.5553-1.4597,4.5808-3.9566,4.5808-3.9566,1.6904-3.1036,1.6284-6.8547,1.6284-6.8547" fill-rule="nonzero" fill="#000"/>
 <path id="path218" d="m57.642,45.007c-3.1017-2.8283-3.3285-6.9439-3.3285-6.9439-0.11631-0.51565-0.10266-3.8771-0.09894-3.8771,0.14531-3.8383-1.7079-5.8118-1.7079-5.8118-2.1091-2.8322-5.5539-4.3307-5.5539-4.3307,0.15702,0.04265,1.6962,1.7331,1.6962,1.7331,3.6038,4.0516,0.08716,8.6149,0.08716,8.6149-0.87428,1.2601-2.0665,3.8984-2.0665,3.8984-1.5644,3.532,0.24038,6.3371,0.44005,6.6395,1.7563-0.25976,3.563-0.38383,5.3911-0.36445,1.7544,0.01752,3.47,0.16671,5.141,0.44199" fill-rule="nonzero" fill="#000"/>
 <path id="path220" d="m38.869,40.165c-0.28497-0.43811-1.5373-3.5592-1.5373-3.5592-1.2891-3.6193-3.7395-4.7611-3.7395-4.7611-3.0222-1.8377-6.7694-1.9521-6.7694-1.9521,0.1609-0.01551,2.2158,0.97898,2.2158,0.97898,4.8619,2.4212,3.2936,7.9635,3.2936,7.9635-0.34118,1.4927-0.46719,4.3908-0.46719,4.3908-0.14919,4.0806,2.9117,6.0133,2.9117,6.0133l0.14531-0.0504c2.9718-1.7311,6.2363-3.028,9.6908-3.7957-3.9798-1.4539-5.7439-5.2282-5.7439-5.2282" fill-rule="nonzero" fill="#000"/>
 <path id="path222" d="m32.708,50.589c-4.2163,0.10856-7.2366-2.7295-7.2366-2.7295-0.43036-0.30048-2.7411-2.7411-2.7411-2.7411-2.5376-2.8846-5.2457-3.0358-5.2457-3.0358-3.4816-0.5932-6.9981,0.69012-6.9981,0.69012,0.13958-0.0718,2.4135,0.08731,2.4174,0.08731,5.4085,0.45362,5.9998,6.1801,5.9998,6.1801,0.23262,1.5159,1.1922,4.2532,1.1922,4.2532,1.3744,3.848,4.9278,4.5091,4.9278,4.5091l0.07165-0.06002c2.1634-2.7547,4.732-5.1701,7.6127-7.1532" fill-rule="nonzero" fill="#000"/>
 <path id="path224" d="M15.813,60.093c-0.514-0.118-3.567-1.527-3.567-1.527-3.4237-1.751-5.9923-0.89-5.9923-0.89-3.4544,0.735-6.2537,3.233-6.2537,3.233,0.10468-0.12205,2.2817-0.81419,2.2817-0.81419,5.1953-1.5799,7.8608,3.5262,7.8608,3.5262,0.77348,1.3201,2.6791,3.5107,2.6791,3.5068,2.6965,3.0687,6.2499,2.3728,6.2499,2.3728l0.08917-0.17641c0.96733-3.3556,2.4406-6.4922,4.321-9.3438-3.8558,1.6226-7.6689,0.11244-7.6689,0.11244" fill-rule="nonzero" fill="#000"/>
</svg>
