<svg xmlns="http://www.w3.org/2000/svg" viewBox="0 0 128 128">
    <path fill="#e54537" d="M35.82 35.477c.543 0 1.082-.118 1.578-.348L93.516 9.035a3.758 3.758 0 0 0 1.824-4.988 3.756 3.756 0 0 0-4.988-1.82L34.234 28.32a3.752 3.752 0 0 0 1.586 7.157ZM90.352 18.18 34.234 44.273a3.75 3.75 0 0 0-1.82 4.985 3.753 3.753 0 0 0 4.984 1.82L93.52 24.984A3.755 3.755 0 0 0 95.34 20a3.756 3.756 0 0 0-4.988-1.82Zm0 16.086-56.118 26.09a3.756 3.756 0 0 0 1.586 7.16c.528 0 1.067-.114 1.578-.352L93.52 41.07a3.755 3.755 0 0 0-3.168-6.808ZM35.82 19.57a3.74 3.74 0 0 0 1.582-.351L63.273 7.156A3.754 3.754 0 0 0 60.102.352L34.23 12.414a3.753 3.753 0 0 0 1.59 7.156Zm54.52 30.653L70.5 59.547a3.75 3.75 0 0 0-2.156 3.398v18.73h-8.668V67.692c0-2.07-1.68-3.754-3.754-3.754a3.758 3.758 0 0 0-3.754 3.754v13.985h-5.379a2.563 2.563 0 0 0-2.52 3.02l1.266 7.027a2.564 2.564 0 0 0 2.524 2.109h13.168l-13.95 2.531a1.876 1.876 0 1 0 .672 3.692l31.989-5.809a1.86 1.86 0 0 0 1.187-.75 2.555 2.555 0 0 0 1.27-1.836l1.085-7.027a2.563 2.563 0 0 0-2.53-2.957h-5.098V65.328l17.68-8.312a3.756 3.756 0 0 0 1.8-4.996 3.751 3.751 0 0 0-4.992-1.797Zm-11.07 49.894-31.993 5.809a1.876 1.876 0 1 0 .668 3.691l31.992-5.808a1.873 1.873 0 0 0 1.512-2.18 1.873 1.873 0 0 0-2.18-1.512Zm0 9.918-31.993 5.809a1.876 1.876 0 1 0 .668 3.691l31.992-5.808a1.873 1.873 0 0 0 1.512-2.18 1.873 1.873 0 0 0-2.18-1.512Zm-3.83 10.005-23.859 4.113a1.877 1.877 0 0 0 .637 3.7l23.86-4.114a1.874 1.874 0 0 0 1.53-2.168 1.88 1.88 0 0 0-2.168-1.53Zm0 0"/>
</svg>
