<svg version="1.1" viewBox="0 0 128 128" xmlns="http://www.w3.org/2000/svg"><path fill="#5a90b6" d="m95.15 24.64-0.5547 0.2969c-1.141 0.617-2.375 1.492-2.992 2.125-0.941 0.961-1.727 2.035-2.145 2.918-0.312 0.664-0.3357 0.6252 0.3203 0.6172l0.5703-0.007812 0.1406-0.3203c0.168-0.379 0.7266-1.297 1.102-1.805 0.57-0.773 1.238-1.52 2.375-2.648l1.184-1.176zm-62 0.09766c-0.004141 5.63e-4 -0.005813 0.001907-0.007813 0.003907-0.02 0.02 0.1935 0.2544 0.4785 0.5234 0.69 0.658 1.36 1.338 2.006 2.039 0.617 0.68 1.5 1.938 1.836 2.617l0.3359 0.6914 0.5391-0.02734c0.297-0.016 0.5534-0.03869 0.5684-0.05469h0.001953c0.02-0.016-0.133-0.3502-0.332-0.7402-0.906-1.789-2.516-3.424-4.488-4.561l-0.4785-0.2773c-0.146-0.078-0.2805-0.1452-0.3965-0.2012-0.02775-9e-3 -0.05008-0.01536-0.0625-0.01367zm28.49 1.354c-0.2725 0.00228-0.545 0.02412-0.8145 0.06445-0.512 0.0885-1.02 0.1931-1.525 0.3145-1.018 0.259-2.019 0.5824-2.996 0.9668-1.114 0.464-2.201 0.9912-3.254 1.58-0.266 0.161-0.516 0.3243-0.748 0.4863l-0.007812 0.009766c-0.102 0.086-0.2065 0.17-0.3125 0.25-0.773 0.582-1.391 1.383-1.512 1.965-0.086 0.41 0.007563 0.8522 0.2266 1.074 0.363 0.363 1.328 0.5657 1.66 0.3438l-0.001953-0.001954c0.1194-0.0832 0.2328-0.1749 0.3398-0.2734 0.316-0.297 0.9115-0.6154 1.436-0.7754 0.816-0.25 1.326-0.672 2.197-1.832 1.445-1.926 3.426-3.537 4.941-4.018 0.246-0.078 0.3601-0.1273 0.3711-0.1543zm-1.166 0.7539c-0.094-4e-3 -0.8215 0.4796-1.479 0.9766-0.738 0.559-1.797 1.65-2.414 2.479-0.566 0.758-1.234 1.461-1.625 1.711-0.266 0.172-0.2994 0.2226-0.4004 0.6016-0.211 0.781-0.77 1.117-1.582 0.957-0.197-0.0408-0.3967-0.06576-0.5977-0.07422l-0.5957 0.01562c-0.328 8e-3 -0.4835-0.02034-0.7695-0.1523-0.363-0.164-0.4727-0.1677-0.4727-0.01172 0 0.047-0.1946 0.2664-0.4336 0.4844-0.66 0.613-1.383 0.9221-2.453 1.039l-0.03711 0.003906c-0.105 0.022-0.2151 0.04245-0.3301 0.06445-0.141 0.027-0.2894 0.07681-0.4004 0.1328-0.23 0.152-0.28 0.4062-0.248 0.8652 0.043 0.66 0.2404 1.063 0.7324 1.512 0.602 0.543 1.027 0.5862 2.086 0.1992 0.395-0.145 2.385-1.234 2.756-1.512 0.27-0.203 1.492-0.7774 2-0.9414 0.239-0.07419 0.4815-0.1315 0.7285-0.1719 0.316-0.039 0.3241-0.03538 0.3711 0.1406 0.027 0.098 0.05078 0.5158 0.05078 0.9258l-0.003906 0.7461-0.332 0.6523c-0.668 1.32-1.195 1.922-2.723 3.082-0.582 0.445-0.8008 0.6453-0.7578 0.6953 0.086 0.105 0.949 0.457 1.125 0.457 0.316 0 0.9448-0.5125 2.133-1.73 1.195-1.227 1.652-1.598 2.457-2.004 1.473-0.742 1.93-1.457 1.855-2.91-0.031-0.613-0.1759-0.98-0.4609-1.168-0.129-0.086-0.148-0.1212-0.08203-0.1562 0.344-0.191 2.309-0.7498 4.137-1.176 1.395-0.328 4.551-0.3907 4.844-0.09766 0.047 0.043 0.2928 0.1636 0.5508 0.2656 1.004 0.387 1.816 1.004 2.348 1.781 0.207 0.305 0.5664 1.102 0.5664 1.262 0 0.063 0.07406 0.4341 0.1641 0.8281 0.207 0.91 0.2335 2.066 0.0625 2.828-0.059 0.273-0.1369 0.5313-0.1719 0.5703s-0.203 1.035-0.375 2.211c-0.242 1.668-0.3358 2.168-0.4258 2.266-0.266 0.293-0.4799 2.262-0.3789 3.492 0.0265 0.3436 0.06571 0.6865 0.1172 1.027 0.031 0.156 0.03091 0.3279 0.003906 0.3789s-0.01184 0.3833 0.03516 0.7383c0.23 1.785 0.25 2.137 0.25 4.145 0 2.039 2.81e-4 2.066-0.1367 2.211-0.113 0.125-0.1484 0.2814-0.2344 1.109-0.18 1.727-0.32 2.566-0.625 3.672-0.082 0.289-0.2186 0.8948-0.3086 1.34-0.207 1.027-0.2031 1.023-0.3711 1.086-0.121 0.047-0.1597 0.1558-0.3047 0.8828-0.238 1.203-0.3401 2.09-0.4141 3.594-0.051 1.039-0.08625 1.348-0.1562 1.402-0.078 0.055-0.08234 0.1795-0.02734 0.8125 0.031 0.41 0.08609 0.9731 0.1211 1.246 0.195 1.609 0.2576 2.484 0.1836 2.621-0.109 0.203-0.04545 0.816 0.3105 3.168 0.406 2.645 0.4045 2.633 0.3145 2.734-0.055 0.07-0.05491 0.2072-0.003907 0.5742 0.184 1.289 0.2774 1.777 0.4414 2.324 0.398 1.32 0.4797 1.648 0.4297 1.746-0.074 0.145 0.1214 0.7621 0.7344 2.289 0.293 0.734 0.5388 1.449 0.5508 1.59 0.0156 0.173 0.05645 0.3427 0.1211 0.5039 0.456 1.004 0.9445 1.993 1.465 2.965 0.168 0.297 0.3086 0.5741 0.3086 0.6211 0 0.262 1.332 2.211 1.992 2.918 3.426 3.688 4.689 4.691 7.314 5.809 1.457 0.621 4.635 1.051 6.736 0.9102 1.559-0.105 2.84-0.4182 4.027-0.9922 1.512-0.73 2.367-1.426 3.328-2.703 1.336-1.777 1.805-3.301 1.727-5.574-0.035-0.918-0.06839-1.195-0.2754-1.992-0.181-0.578-0.3966-1.145-0.6426-1.699-0.176-0.379-0.2539-0.5079-0.7969-1.297-0.281-0.402-1.582-1.734-1.699-1.734-0.035 0-0.05106 0.02483-0.03906 0.04883 1.152 2.25 1.359 3.713 0.8242 5.822-0.2116 0.888-0.6084 1.721-1.164 2.445-0.715 0.949-1.551 1.617-2.828 2.258-1.289 0.648-2.273 0.8749-4.008 0.9219-1.348 0.039-2.093-0.02262-3.229-0.2656l-1.199-0.25c-0.617-0.117-1.758-0.5123-2.512-0.8633-0.512-0.238-2.211-1.301-2.457-1.539l-0.6465-0.543c-1.781-1.488-3.52-3.715-4.59-5.883-0.848-1.723-1.039-2.437-2.047-7.691l-0.4961-2.551c-0.48-2.242-0.6249-3.971-0.6289-7.404 0-2.34 0.05538-3.6 0.2344-5.17 0.0836-0.854 0.2485-1.697 0.4922-2.52 0.371-1.328 1.086-4.328 1.305-5.477 0.1495-0.818 0.2838-1.638 0.4023-2.461l0.2227-1.422c0.016-0.047-0.06569-0.2151-0.1797-0.3711-0.437-0.602-0.8872-1.695-1.031-2.527-0.0894-0.684-0.08307-1.377 0.01953-2.059 0.052-0.233 0.1238-0.4597 0.2148-0.6797 0.106-0.264 0.1966-0.5336 0.2676-0.8086 0.215-0.848 0.742-2.732 0.832-2.967 0.117-0.309 0.4955-1.744 0.6875-2.607 0.414-1.891 0.5898-3.238 0.5898-4.621 1e-6 -1.211-0.05122-1.633-0.3242-2.758-0.246-1.008-0.5229-1.623-1.047-2.311-0.524-0.688-0.6638-0.8157-1.469-1.348-0.881-0.58-1.662-0.861-3.498-1.252-0.342-0.013-0.8115-0.06067-1.564-0.1387l-0.2949-0.03125-0.8242 0.02344c-0.773 0.02-1.551 0.07781-1.836 0.1328l-1.186 0.2227c-0.84 0.164-2.605 0.6134-3.363 0.8594-0.309 0.102-0.5642 0.176-0.5762 0.168-0.043-0.035 0.316-0.8786 0.543-1.266 0.328-0.559 1.197-1.582 1.658-1.949 0.535-0.422 0.8765-0.7344 0.8105-0.7344zm6.582 0.3711c-0.339 0.00886-0.6759 0.03622-1.012 0.08398-0.884 0.138-2.004 0.4167-2.57 0.6797-0.449 0.207-1.191 0.7663-1.598 1.195l-0.2148 0.2305 0.3086-0.03906c0.2491-0.03056 0.4979-0.06412 0.7461-0.1016h0.001953c0.325-0.048 0.6496-0.08719 0.9766-0.1172 0.492-0.047 0.5633-0.07025 0.8203-0.2812 0.32-0.266 1.32-0.8276 2.094-1.184 0.2199-0.1 0.4365-0.2082 0.6484-0.3242 0.109-0.074 0.1035-0.082-0.06055-0.125-0.038-9e-3 -0.08462-0.01458-0.1406-0.01758zm42.5 0.9961c-0.953-7.9e-4 -1.907 0.01971-2.859 0.0625-1.386 0.0822-2.769 0.2172-4.146 0.4023-1.991 0.263-1.804 0.2614-2.201 0.06836-0.038-0.013-0.07629-0.02792-0.1133-0.04492-0.187-0.082-0.2736-0.1125-0.4316-0.1035l-0.8164 0.1699c-0.756 0.1639-1.508 0.3412-2.258 0.5312l-5.586 1.508-0.2656 0.1016 0.2422 0.2578c0.1362 0.1488 0.2449 0.3207 0.3203 0.5078 0.02942 0.1037 0.0714 0.2033 0.125 0.2969 0.047 0.051 0.6837-0.1212 1.848-0.4922 0.246-0.078 0.9997-0.2726 1.68-0.4336l2.352-0.5625c2.543-0.613 6.224-1.297 8.189-1.52 2.539-0.289 3.619-0.3398 7.029-0.3438 1.797 0 3.145-0.02288 2.988-0.04688-0.261-0.043-0.6641-0.09358-1.121-0.1426-1.424-0.14-3.151-0.2168-4.975-0.2168zm-90.91 0.009765c-0.333 6.08e-4 -0.667 0.003966-1 0.009766-2.398 0.039-3.256 0.09002-4.902 0.291l-0.3555 0.04883c-0.156 0.027 1.176 0.04688 2.957 0.04688 3.629 4e-3 5.473 0.1087 8.09 0.4727 2.169 0.3501 4.328 0.7632 6.473 1.238l2.242 0.5273c1.547 0.363 2.184 0.5352 3.527 0.9492l0.793 0.2461 0.1328-0.3281c0.0872-0.2065 0.2028-0.3999 0.3438-0.5742l0.2109-0.25-0.6133-0.1914c-0.508-0.16-1.6-0.4554-4.264-1.15-0.922-0.235-1.816-0.4589-2.521-0.6289l-0.5781-0.1309-0.9023-0.1914c-0.119-0.011-0.2097-0.01014-0.3027 0.005859l-0.6738 0.3047-1.312-0.168-1.715-0.2285c-0.439-0.063-1.568-0.1614-2.633-0.2344-0.9982-0.04489-1.997-0.06627-2.996-0.06445zm-0.8145 0.6816-0.4336 0.293c-0.238 0.16-0.4689 0.3205-0.5039 0.3555s-0.2725 0.1991-0.5195 0.3711l-0.1758 0.1211-0.2871 0.2188c-0.593 0.442-1.178 0.8941-1.754 1.357-0.146 0.1426-0.3025 0.2755-0.4668 0.3965-0.223 0.168-0.781 0.6716-1.918 1.727-0.603 0.562-1.645 1.652-2.428 2.521-0.318 0.36-0.6287 0.7228-0.9297 1.09-0.143 0.189-0.2913 0.3737-0.4453 0.5527-0.179 0.225-0.3553 0.4536-0.5273 0.6816-0.171 0.242-0.3435 0.4798-0.5215 0.7168-0.2432 0.325-0.4758 0.6572-0.6992 0.9961l-0.03125 0.04687-0.6133 0.9473c-0.204 0.327-0.3999 0.6506-0.5879 0.9746-0.424 0.747-0.8774 1.62-1.193 2.314l-0.3574 0.7637c-0.261 0.598-0.5137 1.226-0.7637 1.893-0.17 0.479-0.3106 0.8953-0.3086 0.9473 0 0.02 0.1926-0.2619 0.4316-0.6289s0.4571-0.6801 0.4961-0.7031 0.188-0.2034 0.332-0.3984c0.48-0.652 2.508-2.578 3.191-3.035 0.1749-0.1209 0.3419-0.2524 0.5-0.3945 0.1871-0.1647 0.3854-0.3162 0.5938-0.4531 0.184-0.121 0.5392-0.3707 0.7852-0.5547 0.738-0.543 2.113-1.441 3.629-2.363 1.352-0.824 4.496-2.273 6.535-3.012l1.152-0.4297c0.242-0.109 1.336-0.4612 2.426-0.7812l0.9961-0.3125c0.352-0.145 0.6635-0.2337 2.895-0.8047l1.434-0.3789c0.309-0.094 1.66-0.395 3.359-0.75l1.898-0.3984c0.566-0.115 1.134-0.2195 1.703-0.3125l1.293-0.2383c0.02-0.02-1.533-0.4799-2.686-0.7969-0.242-0.066-1.135-0.2768-1.99-0.4688l-1.932-0.4375c-1.703-0.41-4.685-0.9526-6.939-1.266-0.656-0.09-2.441-0.2416-3.578-0.3086l-1.061-0.05859zm92.14 0.02344c-0.1768-0.003875-0.4391 0.00775-0.8496 0.03125-1.246 0.074-3.055 0.2295-3.605 0.3125l-1.027 0.1523c-1.398 0.2049-2.789 0.4513-4.172 0.7383-1.57 0.328-5.055 1.117-5.664 1.285l-2.686 0.7852c0.4912 0.0948 0.9832 0.1831 1.477 0.2656l1.711 0.3164c0.631 0.1419 1.264 0.2774 1.898 0.4062 2.371 0.488 6.141 1.434 7.328 1.832l1.809 0.5625c1.152 0.348 1.488 0.4611 1.848 0.6211 0.455 0.173 0.9121 0.34 1.371 0.5 0.684 0.246 1.344 0.4995 1.461 0.5625s0.6953 0.3155 1.277 0.5625 1.086 0.4691 1.121 0.4961c0.3484 0.1912 0.7011 0.3734 1.059 0.5469 0.551 0.274 1.094 0.5645 1.211 0.6465s0.4295 0.2699 0.6875 0.4219c0.559 0.328 2.754 1.773 2.871 1.887 0.1564 0.1258 0.3196 0.2429 0.4883 0.3516 0.621 0.418 2.262 1.711 2.949 2.324 1.117 1 1.938 1.934 2.828 3.215 0.08659 0.1278 0.1761 0.2541 0.2695 0.377-0.85-2.449-1.737-4.371-2.855-6.229-2.656-4.404-6.03-8.08-10.64-11.58l0.00195-0.001953c-0.327-0.248-0.5955-0.4559-0.8125-0.6309-0.492-0.355-0.8885-0.6292-1.021-0.6992-0.0665-0.035-0.1572-0.05472-0.334-0.05859zm-38.97 0.03516c-1.054 0-1.662 0.08384-2.473 0.3398-0.184 0.063-0.3008 0.1183-0.3008 0.1543 0 0.023 0.2032 0.1047 0.4492 0.1797s0.6192 0.2032 0.8262 0.2852l0.375 0.1445 0.6523-0.2383 1.422-0.5156c0.312-0.109 0.5623-0.2135 0.6523-0.2695-0.309-0.044-0.9945-0.08308-1.604-0.08008zm18.73 1.879c-1.099 0.0149-2.003 1.144-1.559 2.189 0.387 0.8001 1.334 1.155 2.15 0.8027v-0.001954c0.66-0.32 1.017-0.8365 1.021-1.48 4e-3 -0.73-0.3848-1.227-1.135-1.445-0.1616-0.04688-0.3215-0.06658-0.4785-0.06445zm-51.39 0.01758c-0.4071 0.01448-0.8013 0.1589-1.072 0.4336-0.2828 0.27-0.4363 0.6484-0.4219 1.039 4e-3 0.625 0.3444 1.164 0.9414 1.48 0.375 0.195 0.7931 0.2231 1.246 0.07812 0.609-0.195 1.117-0.8706 1.117-1.477-5e-3 -0.053-0.01244-0.1052-0.02344-0.1582-0.046-0.174-0.1467-0.4075-0.2617-0.6055-0.064-0.103-0.1386-0.2074-0.2246-0.3164-0.00749-0.00849-0.0169-0.0179-0.02539-0.02539-0.3363-0.3156-0.814-0.4656-1.275-0.4492zm34.01 1.107c-0.002994 2.43e-4 -0.004734 9.53e-4 -0.005859 0.001953-0.016 0.02 0.04291 0.1253 0.1289 0.2383 0.1322 0.1888 0.2495 0.3872 0.3516 0.5938 0.105 0.215 0.2113 0.3905 0.2383 0.3945l1.07 0.1484c1.324 0.184 1.277 0.1804 1.184 0.06641-0.065-0.079-0.3799-0.2911-0.7129-0.4941-0.435-0.242-0.9776-0.5033-1.477-0.6953l-0.1797-0.06836c-0.3028-0.1088-0.5527-0.1892-0.5977-0.1855zm-18.04 0.3613c-0.02048 0.001658-0.04502 0.005844-0.07227 0.01172-0.273 0.066-1.023 0.4571-1.258 0.6641-0.18 0.152-0.203 0.1951-0.125 0.2461 0.152 0.098 0.8011 0.07003 1.039-0.04297 0.16-0.078 0.2622-0.1909 0.3672-0.4219 0.1706-0.3657 0.1922-0.4686 0.04883-0.457zm-17.89 0.1758c-0.102 0-1.922 0.3131-2.41 0.4141l-2.432 0.4922c-1.875 0.379-5.495 1.25-6.811 1.637-1.945 0.574-3.461 1.047-4.203 1.316l-1.727 0.6211c-0.484 0.172-1.059 0.3981-1.273 0.4961s-0.6869 0.2974-1.047 0.4414c-0.711 0.281-3.029 1.396-3.436 1.654-0.141 0.09-0.5226 0.3159-0.8516 0.5039-1.098 0.633-3.512 2.273-4.957 3.375-2.703 2.063-4.602 4.367-5.477 6.664-0.332 0.867-0.7458 2.354-0.9258 3.307-0.297 1.563-0.5621 4.043-0.6641 6.121-0.148 3.171 0.285 8.299 1 11.89l0.4375 2.211c0.207 1.043 0.4964 2.359 0.6484 2.926l0.5625 2.113c0.293 1.109 0.8437 2.82 0.8867 2.777 0.016-0.016-0.06188-0.4412-0.1719-0.9492l-0.2852-1.328c-0.887-3.927-1.703-9.309-2.059-13.54-0.141-1.656-0.1602-6.723-0.03125-7.902 0.215-2 0.4896-3.293 1.018-4.855 0.406-1.191 0.6932-1.895 0.9902-2.418 0.102-0.176 0.2699-0.4883 0.3789-0.6953 0.445-0.859 1.445-2.217 2.324-3.15 1.457-1.551 3.017-2.732 6.146-4.643 0.953-0.586 2.992-1.594 4.188-2.074l1.152-0.4785c0.512-0.23 2.625-1.016 4.449-1.648l3.516-1.176 1.617-0.5c0.953-0.309 4.148-1.168 5.531-1.488 1.464-0.312 2.932-0.5918 4.408-0.8398l0.1992-0.03125-0.2109-0.2773c-0.117-0.156-0.2623-0.4341-0.3203-0.6211s-0.1311-0.3438-0.1621-0.3438zm55.23 0.009766c-0.043 0-0.1132 0.1435-0.1562 0.3145s-0.1682 0.4426-0.2852 0.5996-0.1948 0.3049-0.1758 0.3359 0.1329 0.05859 0.2539 0.05859c0.1605 0.00507 0.3197 0.02441 0.4766 0.05859 0.4495 0.0908 0.8998 0.1754 1.352 0.2539 1.176 0.211 2.762 0.5513 3.457 0.7383l1.398 0.375c2.188 0.582 1.871 0.4884 5.445 1.609 2.202 0.704 4.381 1.475 6.535 2.312 2.105 0.82 4.879 2.082 5.496 2.504 0.2693 0.1758 0.543 0.345 0.8203 0.5078 1.086 0.652 2.146 1.348 3.176 2.086 1.238 0.922 2.738 2.313 3.266 3.031 0.1321 0.1728 0.2703 0.3408 0.4141 0.5039 0.262 0.293 1.047 1.473 1.402 2.109 0.4724 0.891 0.885 1.812 1.234 2.758 0.406 1.199 0.8131 2.957 0.9961 4.305 0.336 2.499 0.285 6.828-0.125 10.64-0.156 1.445-0.6293 4.828-0.9023 6.484-0.219 1.297-1.137 5.977-1.309 6.66-0.152 0.598-0.152 0.8948 0 0.4258 0.06299-0.187 0.3125-1.016 0.5625-1.836h0.00195c0.729-2.53 1.33-5.097 1.801-7.688 0.176-1 0.4959-3.07 0.6289-4.047 0.1881-1.398 0.317-2.804 0.3848-4.213 0.033-1.394 0.02538-3.324-0.01562-4.742-0.115-2.039-0.3715-4.013-0.7715-5.893-0.11-0.463-0.2349-0.9317-0.3789-1.43l-0.1582-0.5371c-0.524-1.536-1.33-2.961-2.377-4.201-1.105-1.312-2.918-2.906-4.648-4.094-0.301-0.207-0.6408-0.449-0.7578-0.543-0.285-0.23-1.695-1.148-2.422-1.578l-0.9102-0.5586c-0.465-0.301-2.684-1.402-3.645-1.809l-1.018-0.4336c-0.705-0.301-1.42-0.5762-2.145-0.8242l-1.434-0.5078c-0.524-0.184-1.053-0.3548-1.586-0.5098l-1.727-0.5254c-0.371-0.117-1.406-0.3952-2.305-0.6172l-1.82-0.4609c-0.828-0.258-7.574-1.625-8.031-1.625zm-25.81 0.05664c-0.1159 4.9e-4 -0.2354 0.001531-0.3574 0.003906l-0.9609 0.01953 0.003906 0.1875c0.02595 0.3473 0.06268 0.6939 0.1094 1.039 0.058 0.469 0.1016 0.9627 0.1016 1.096v0.2363l0.668 0.07812c0.371 0.043 0.8522 0.1465 1.074 0.2285 0.375 0.133 0.5594 0.1796 0.5664 0.1406v-0.001953c0.215-1.301 0.4017-2.887 0.3477-2.922-0.1059-0.06825-0.7416-0.1089-1.553-0.1055zm-1.67 0.05859-0.293 0.03906c-0.855 0.109-2.129 0.41-2.129 0.5 0.03273 0.2358 0.07442 0.4704 0.125 0.7031 0.064 0.337 0.1172 0.6756 0.1602 1.016 0.051 0.508 0.07022 0.5546 0.1992 0.5156 0.059-0.02 0.4567-0.07791 0.8867-0.1289 0.426-0.051 0.9102-0.09375 1.074-0.09375h0.3047l-0.03516-0.2656c-0.02-0.145-0.06166-0.5742-0.09766-0.9492s-0.09781-0.8317-0.1328-1.012l-0.0625-0.3242zm3.58 0.3027c-0.01464 0.001812-0.02352 0.00725-0.02539 0.01562-0.003999 0.012-0.09794 0.6519-0.2109 1.422l-0.2031 1.402 0.3594 0.375c0.383 0.402 0.5023 0.5977 0.6113 1.012 0.039 0.145 0.08752 0.2617 0.1035 0.2617 0.1764-0.1016 0.347-0.2124 0.5117-0.332l-0.001954-0.001953c0.266-0.18 0.6637-0.4412 0.8867-0.5742 0.2476-0.1532 0.4897-0.315 0.7266-0.4844 0.367-0.266 0.3666-0.1975 0.01562-0.9395-0.305-0.656-1.148-1.48-1.863-1.828-0.4139-0.1986-0.8077-0.3408-0.9102-0.3281zm-6.283 0.2871-0.1914 0.01172c-0.172 0.016-2.078 0.5594-2.129 0.6094-0.012 0.012 0.03938 0.1325 0.1094 0.2695 0.164 0.324 0.2698 1.056 0.2148 1.521-0.027 0.258-0.01984 0.3574 0.03516 0.3574 0.039 0 0.3978-0.08159 0.8008-0.1836l1.121-0.2578 0.3906-0.07422-0.03906-0.3906c-0.023-0.215-0.1018-0.723-0.1758-1.125l-0.1367-0.7383zm29.24 0.7773c-0.117 0.036-0.2318 0.077-0.3438 0.125-0.172 0.066-0.4408 0.125-0.5938 0.125s-0.2773 0.007531-0.2773 0.01953 0.1253 0.2894 0.2773 0.6094c0.25 0.527 1.066 2.84 1.395 3.945 0.414 1.398 1.19 4.547 1.562 6.348l0.3555 1.695 0.09375 0.4531 0.6641 0.457c0.367 0.254 0.703 0.5035 0.75 0.5625 0.09 0.109 0.1678 0.1288 0.2148 0.05078 0.031-0.051-0.4057-2.251-0.6367-3.188l-0.4688-2.059c-0.437-1.961-0.5662-2.465-0.9922-3.793-0.676-2.133-1.883-5.352-2-5.352zm-53.3 0.03906c-0.007777 0.001389-0.0142 0.004438-0.01758 0.007813-0.074 0.078-0.9534 2.352-1.316 3.406-0.711 2.063-0.855 2.52-1.125 3.609l-0.4727 1.896c-0.109 0.43-0.3482 1.508-0.5312 2.398l-0.4648 2.191c-0.125 0.563-0.1598 0.8906-0.09375 0.8906 0.1457-0.0912 0.2853-0.1916 0.418-0.3008v0.001953c0.215-0.164 0.5415-0.3947 0.7285-0.5117s0.3648-0.2375 0.3848-0.2695 0.113-0.4373 0.207-0.9023 0.1878-0.9179 0.2188-1.004 0.1086-0.4221 0.1836-0.7461c0.395-1.793 0.8358-3.66 0.9648-4.09 0.184-0.617 0.3622-1.235 0.5352-1.855 0.379-1.355 0.9963-3.117 1.406-4.008 0.0758-0.1589 0.1462-0.3207 0.2109-0.4844 0-0.012-0.113-0.01953-0.25-0.01953s-0.4105-0.059-0.6055-0.125c-0.1706-0.05775-0.3264-0.09566-0.3809-0.08594zm-0.5527 0.0918c-0.375 0-3.176 0.5041-4.164 0.7461l-4.074 1.059c-1.289 0.371-4.117 1.238-4.328 1.328-0.525 0.1902-1.054 0.37-1.586 0.5391l-1.555 0.5312c-0.538 0.2103-1.078 0.4137-1.621 0.6094-1.523 0.563-3.758 1.457-4.168 1.668-0.137 0.074-0.6716 0.3244-1.184 0.5664-0.512 0.242-1.074 0.5227-1.246 0.6367s-0.6598 0.414-1.09 0.668c-1.02 0.605-2.344 1.453-2.469 1.578-0.055 0.055-0.2155 0.1718-0.3555 0.2578-0.746 0.465-2.34 1.875-3.137 2.777-1.805 2.039-2.949 4.184-3.75 7.043l-0.1484 0.5469c-0.164 0.586-0.3948 2.059-0.5078 3.25-0.301 3.124 0.004344 9.21 0.6523 13.1 0.035 0.188 0.1449 0.9142 0.2539 1.617 0.336 2.215 0.7381 4.473 0.8281 4.656 0.063 0.125 0.09242 0.008155 0.2324-0.8398l0.04883-0.2637c0.0508-0.3055 0.1087-0.611 0.1719-0.9141l0.1426-0.7539c0.453-2.187 1.25-4.766 1.992-6.453 0.398-0.906 0.8197-1.785 0.8867-1.836 0.02-0.02 0.1993-0.3085 0.4023-0.6445 0.527-0.874 1.195-1.656 1.977-2.312 0.486-0.4029 1.044-0.7094 1.645-0.9023 1.168-0.387 2.434-0.3049 3.777 0.2461 0.586 0.238 0.7068 0.3005 1.508 0.8125l0.3867 0.2422 0.03125-0.1992c0.02-0.109 0.04731-0.4802 0.07031-0.8242 0.07-1.187 0.348-2.877 0.625-3.822 0.418-1.414 0.8631-2.699 1.121-3.207 0.469-0.934 0.9615-1.809 1.105-1.965 0.074-0.086 0.2808-0.3536 0.4648-0.5996 0.395-0.539 1.363-1.477 1.895-1.836 0.215-0.145 0.4019-0.2768 0.4219-0.3008 0.117-0.148 0.9728-0.605 2.176-1.168 0.758-0.355 2.363-0.8548 3.766-1.176 1.339-0.289 2.71-0.4006 4.078-0.332 0.426 0.027 0.7888 0.03934 0.8008 0.02734 0.039-0.039 0.3008-1.18 0.6328-2.766l0.8438-3.734c0.391-1.504 0.844-3.074 1-3.488 0.1777-0.4751 0.3526-0.9514 0.5215-1.43 0.355-1.02 0.6718-1.852 0.8398-2.211 0.215-0.469 0.2229-0.5273 0.08594-0.5273zm54.51 0.02148c-0.1173-0.009911-0.1836-0.008766-0.1836 0.005859 0 0.055 0.3403 0.9689 0.7773 2.086 0.609 1.559 1.391 4.051 1.715 5.457l0.4062 1.73c0.2872 1.176 0.5478 2.359 0.7812 3.547l0.2695 1.32c0.262-0.00454 0.524-0.01761 0.7852-0.03906 1.957-0.141 4.18 0.2107 6.719 1.055 0.656 0.219 0.7029 0.2379 1.797 0.7539 1.875 0.891 3.329 2.137 4.439 3.82 0.4654 0.66 0.8493 1.373 1.145 2.125l0.3398 0.8086c0.512 1.121 1.293 4.945 1.305 6.375 0 0.227 0.02006 0.4263 0.03906 0.4453s0.2658-0.109 0.5508-0.293c2.121-1.371 4.152-1.578 5.941-0.6133 0.289 0.152 0.6373 0.3865 0.7773 0.5195 0.1542 0.1435 0.3128 0.2817 0.4766 0.4141 0.273 0.215 0.4796 0.4532 1.016 1.16s0.8088 1.152 1.34 2.207c0.477 0.941 0.5745 1.172 0.9805 2.316 0.1019 0.3033 0.2114 0.6044 0.3281 0.9023 0.133 0.316 0.1909 0.4863 0.3789 1.154 0.473 1.66 1.02 4.047 1.215 5.316 0.07 0.438 0.1332 0.6843 0.1602 0.6133 0.088-0.399 0.1673-0.8001 0.2383-1.203h-0.00196l0.2539-1.367c0.297-1.41 0.7272-4.465 0.9922-7.035l0.1875-1.68c0.207-1.535 0.2808-5.97 0.1328-7.688-0.176-2.012-0.7699-4.822-1.254-5.939l-0.4336-1.031c-0.25-0.598-0.6521-1.387-0.8711-1.711-0.059-0.086-0.2621-0.4021-0.4531-0.7031-1.16-1.867-3.266-3.867-5.738-5.453l-1.121-0.7227c-0.273-0.18-0.5978-0.3765-0.7148-0.4355s-0.4342-0.25-0.6992-0.418c-0.555-0.355-3.028-1.539-3.938-1.887-0.506-0.188-1.005-0.3951-1.496-0.6211-0.4428-0.1721-0.8881-0.3376-1.336-0.4961l-1.559-0.5742c-0.664-0.266-3.207-1.103-5.133-1.697l-2.117-0.6523c-1.209-0.334-2.423-0.6502-3.641-0.9492-0.097-0.016-0.1912-0.04403-0.2812-0.08203-0.3859-0.1706-3.695-0.7724-4.516-0.8418zm-24.85 1.633 0.1328 0.1914c0.0975 0.1427 0.1813 0.2945 0.25 0.4531 0.086 0.203 0.2192 0.3398 0.5742 0.5898 0.487 0.347 0.5586 0.3823 0.5586 0.2773 0-0.146-0.2032-0.5352-0.4102-0.7852-0.254-0.309-0.6717-0.6166-0.9297-0.6836l-0.1758-0.04297zm-13.51 0.2754c-0.06012 0.002375-0.1483 0.0445-0.2793 0.125-0.254 0.152-0.2148 0.207 0.2422 0.332 0.414 0.109 0.4336 0.1129 0.4336 0.04688v-0.001953c0-0.031-0.05509-0.1051-0.1211-0.1641-0.06923-0.0643-0.122-0.1413-0.1582-0.2285-0.0235-0.074-0.05706-0.1118-0.1172-0.1094zm17.81 0.1621c-0.08326 0.01672-0.618 0.3405-1.248 0.7539l-1.215 0.8047-0.01172 0.3887c-0.054 0.662-0.1707 1.315-0.3477 1.955-0.187 0.566-0.2697 0.9062-0.2227 0.9062 0.1843-0.0538 0.3656-0.116 0.543-0.1895v-0.001953c0.27-0.105 0.6023-0.2417 0.7383-0.3047 0.347-0.141 0.6959-0.2762 1.047-0.4062 0.91-0.344 0.8546-0.2772 1.016-1.199 0.087-0.404 0.09734-0.8196 0.02734-1.227-0.078-0.637-0.2384-1.395-0.3164-1.48-0.001437-0.001687-0.004214-0.001115-0.009766 0zm2.998 0.2539 0.03906 1.156 0.8086 0.2891c0.445 0.16 0.82 0.2814 0.832 0.2734s-0.02031-0.08606-0.07031-0.1641c-0.042-0.064-0.09992-0.1387-0.1699-0.2227-0.112-0.124-0.2519-0.2742-0.4199-0.4512-0.179-0.176-0.3736-0.352-0.5586-0.502l-0.4609-0.3789zm-22.22 0.4551c-0.06312 0.003828-0.1777 0.05239-0.3711 0.1504-0.168 0.086-0.3086 0.1913-0.3086 0.2383 0 0.109 0.3868 0.2848 0.8398 0.3828l0.3906 0.08984c8e-3 0-0.09838-0.1603-0.2344-0.3633-0.107-0.156-0.2013-0.3107-0.2363-0.3887-0.024-0.042-0.04364-0.07742-0.05664-0.1074-7e-3 -0.00125-0.01442-0.0025-0.02344-0.001953zm15.5 0.1699v0.6445c0 0.371-0.04256 0.8404-0.1016 1.109l-0.1367 0.6328c-0.02 0.117 0.05944 0.3285 0.2734 0.7305 0.168 0.309 0.3198 0.5634 0.3438 0.5664s0.05131-0.06162 0.07031-0.1406c0.057-0.225 0.1214-0.447 0.1914-0.668 0.188-0.633 0.3517-1.523 0.3477-1.926 0-0.309 0.06259-0.2459-0.8164-0.8359l-0.1719-0.1133zm-17.04 0.6484c-0.01563 5.38e-4 -0.03547 0.005937-0.05859 0.01562-0.059 0.023-0.2621 0.1019-0.4531 0.1719-0.125 0.0439-0.2478 0.09496-0.3672 0.1523-0.09 0.066 0.6409 0.4408 1.086 0.5508 0.371 0.094 0.4023 0.09759 0.4023 0.05859 0-0.016-0.1253-0.2032-0.2773-0.4102s-0.2812-0.4256-0.2812-0.4766c0-0.04262-0.0164-0.06368-0.05078-0.0625zm16.57 2.285c-0.02152-2.81e-4 -0.03416 0.02447-0.03516 0.07422 0 0.129-0.5904 1.32-0.8164 1.652-0.17 0.24-0.3492 0.4751-0.5352 0.7031-0.184 0.223-0.3462 0.4651-0.3652 0.5391-0.031 0.129 0.09356 0.3812 0.8516 1.701 0.449 0.785 0.4261 0.7539 0.5781 0.7109l0.8809-0.2793h0.001953c0.6094-0.1931 1.22-0.3794 1.834-0.5586 0.598-0.176 1.105-0.3364 1.129-0.3594 0.031-0.031 0.6133-3.844 0.6133-4.012 0-0.031-0.4454 0.1326-2.273 0.8516l-0.8711 0.3398-0.3945 1.004c-0.219 0.551-0.4021 0.9964-0.4141 0.9844s0.1086-0.4961 0.2656-1.078l0.2852-1.055-0.3047-0.5898c-0.2138-0.4072-0.3651-0.6281-0.4297-0.6289zm6.816 0.75c-0.086 0-0.1825 0.7108-0.1035 0.7578 0.1495 0.0945 0.2963 0.1909 0.4434 0.2891 0.207 0.137 0.3806 0.2385 0.3926 0.2305s-0.03938-0.1476-0.1094-0.3086h-0.001953c-0.031-0.074-0.07595-0.1629-0.127-0.2559l-0.06641-0.1191c-0.171-0.295-0.3797-0.5938-0.4277-0.5938zm-8.855 2.613c-0.02197 0.004125-0.04402 0.02162-0.07227 0.04688-0.121 0.109-1.766 2.574-2.152 3.23-0.371 0.625-0.9355 1.766-0.9355 1.887 0 0.102 3.336 3.797 3.426 3.797 0.01996 0 0.3904-0.2285 0.8223-0.5098l0.001953-0.001953 1.826-1.166c2.012-1.262 2.332-1.49 2.297-1.604-0.07-0.234-0.1602-1.262-0.1602-1.871 0.0022-0.732 0.07274-1.461 0.2109-2.18l0.08203-0.3945-0.1914 0.03516c-0.18 0.035-0.7616 0.2108-2.809 0.8438-0.445 0.137-0.8401 0.25-0.8711 0.25s-0.1603-0.1717-0.2773-0.3867c-0.119-0.217-0.244-0.4306-0.375-0.6406-0.094-0.137-0.3047-0.5043-0.4727-0.8203-0.2198-0.4162-0.2837-0.528-0.3496-0.5156zm-1.314 1.199c-0.01255-7.81e-4 -0.03912 0.01377-0.07812 0.04102-0.105 0.074-0.2503 0.2107-0.3203 0.3047s-0.879 0.9342-1.793 1.867l-1.656 1.699-0.003907 1.383c-8e-3 1.242-0.02044 1.426-0.1484 1.84-0.246 0.813-0.676 1.555-1.332 2.281l-0.2812 0.3125-0.07226 1.277c-0.082 1.375-0.05531 4.395 0.05469 5.723l0.1602 2.238c0.34 5.113 0.8667 9.062 1.598 11.98 0.359 1.426 2.41 7.762 2.754 8.504 0.1621 0.3982 0.3169 0.7994 0.4648 1.203 0.2271 0.617 0.4679 1.229 0.7227 1.836l0.5781 1.371c0.535 1.289 1.988 4.109 2.109 4.109 0.016 0-0.08956-0.2296-0.2266-0.5156l-0.001953 0.00586c-0.555-1.121-0.887-1.758-1-1.898-0.062-0.082-0.2301-0.4495-0.3711-0.8125l-0.3398-0.8516c-0.113-0.258-0.2889-0.8164-0.6289-2.023-0.156-0.562-0.3242-1.07-0.3672-1.121-0.125-0.145-0.2376-0.5273-0.7266-2.488-0.25-1.012-0.4693-1.844-0.4883-1.852-0.164-0.09-0.2226-0.2148-0.3516-0.8008-0.082-0.375-0.2623-1.266-0.4023-1.984s-0.3316-1.629-0.4336-2.02-0.1797-0.7623-0.1797-0.8203-0.055-0.1483-0.125-0.1953c-0.152-0.109-0.2663-0.9727-0.4023-3.098-0.133-2.016-0.1598-2.289-0.2578-2.367-0.047-0.039-0.09819-0.1596-0.1172-0.2656-0.066-0.387-0.1601-1.977-0.2461-4.043-0.07-1.754-0.09759-2.121-0.1836-2.215-0.121-0.133-0.1872-0.7381-0.3242-2.996-0.109-1.816-0.08969-2.832 0.07031-3.844 0.082-0.52 0.08209-0.5936-0.003907-0.7266-0.086-0.133-0.0865-0.1953 0.0625-0.7773 0.09-0.348 0.2541-0.8911 0.3711-1.203l0.707-1.945c0.2003-0.564 0.4124-1.124 0.6367-1.68 0.332-0.762 0.4413-1.141 0.3633-1.266-0.062-0.102-0.01641-0.2356 0.3086-0.8926 0.464-0.941 0.9903-1.851 1.574-2.723 0.2752-0.4042 0.3658-0.5504 0.3281-0.5527zm29.52 2.879-0.1348 0.1523c-0.223 0.27-0.6908 1.32-0.7188 1.625-0.023 0.242-0.003812 0.3087 0.1172 0.4297 0.445 0.426 2.047 0.8131 3.293 0.7891 0.43-8e-3 0.4653-0.01981 0.4453-0.1328-0.105-0.664-1.469-2.027-2.691-2.695l-0.3105-0.168zm-57.48 0.0332c-0.043 0-0.3668 0.1879-0.7188 0.4219-1.133 0.746-2.09 1.777-2.211 2.379l-0.03906 0.207 0.707-0.04297c0.391-0.02 0.9568-0.08172 1.258-0.1367v-0.001954c0.586-0.102 1.281-0.3014 1.555-0.4414 0.191-0.098 0.3594-0.3795 0.3594-0.6055 0-0.122-0.1342-0.5237-0.2852-0.8887-0.12-0.261-0.2624-0.5225-0.4004-0.7285-0.086-0.101-0.1676-0.1621-0.2246-0.1621zm36.35 0.2676c-0.06941-3.83e-4 -0.1218 0.07131-0.2031 0.2734-0.066 0.164-0.1535 0.3443-0.1855 0.4023-0.098 0.168-0.25 1.098-0.25 1.516 0 1.625 0.941 3.672 1.918 4.164 0.816 0.414 2.488 0.4302 3.867 0.03516 0.121-0.031 0.8358-0.1991 1.59-0.3711 1.867-0.422 2.016-0.465 2.5-0.707 0.396-0.19 0.7971-0.3701 1.203-0.5391 0.426-0.18 1.027-0.4448 1.336-0.5898s0.6185-0.2807 0.6895-0.3047 0.3358-0.2498 0.5898-0.5078l0.4648-0.4688-0.2344-0.4355c-0.05-0.092-0.09205-0.177-0.123-0.248-0.162-0.122-0.4637-0.1965-1.014-0.2715l-0.01758-0.001953-0.04297-0.003906c-1.946-0.218-3.887-0.4848-5.82-0.8008l-2.801-0.5-3.438-0.6367c-0.01075-0.002875-0.01938-0.003852-0.0293-0.003906zm-12.65 0.4043c-0.039-0.039-2.656 0.3976-3.59 0.6016-0.492 0.105-2.559 0.4405-4.23 0.6875l-2.117 0.3125c-0.759 0.1103-1.517 0.2067-2.279 0.2891l-1.092 0.1211c-0.094 0.017-0.1631 0.03002-0.2031 0.04102l-0.1855 0.4141-0.1914 0.4375 0.4492 0.4531c0.43 0.43 0.4925 0.473 1.355 0.832l1.434 0.6289c0.953 0.449 1.652 0.7274 2.184 0.8594l1.27 0.3438c2.02 0.574 3.219 0.7145 4.449 0.5195l-0.001953-0.001953c0.664-0.102 0.9796-0.2866 1.477-0.8496 1.18-1.34 1.582-2.48 1.492-4.25-0.035-0.687-0.1368-1.35-0.2188-1.439zm-27.74 0.332c-1.483 0.02145-3.759 0.4382-5.547 1.033-0.829 0.295-1.64 0.6363-2.43 1.025-0.672 0.352-1.73 1.121-2.328 1.691-0.609 0.586-1.422 1.625-1.852 2.367-1.059 1.824-1.93 4.637-2.23 7.191-0.094 0.809-0.1949 3.48-0.1289 3.328 0.01597-0.03494 0.08638-0.37 0.1562-0.7441v-0.001953c0.4179-2.269 0.9104-4.21 1.449-5.693 0.531-1.465 0.7146-1.875 1.266-2.84 0.957-1.68 1.734-2.418 3.824-3.637 0.348-0.205 0.7006-0.4018 1.059-0.5898 0.5-0.254 2.184-0.8845 2.832-1.061 1.184-0.32 2.754-0.5254 4.004-0.5254 0.398-4e-3 0.7579-0.02288 0.7969-0.04688s0.133-0.1722 0.207-0.3242 0.2773-0.4177 0.4453-0.5977 0.3047-0.3537 0.3047-0.3887c1e-6 -0.062-0.1951-0.08988-1.246-0.1719-0.1758-0.01362-0.3702-0.01869-0.582-0.01562zm65.61 0.02344c-0.8472-0.004125-1.833 0.04955-1.906 0.123-0.016 0.02 0.1254 0.1907 0.3164 0.3867 0.2007 0.2027 0.379 0.4267 0.5312 0.668l0.1797 0.3125 1.055 0.03906c1.996 0.074 3.355 0.34 5.129 1 1.508 0.556 2.924 1.337 4.199 2.314 0.641 0.484 0.8439 0.6932 1.379 1.408 0.586 0.789 0.8088 1.172 1.301 2.238 0.871 1.902 1.592 4.359 2.061 7.047 0.227 1.297 0.3089 1.242 0.2539-0.1602h-0.00196c-0.023-0.551-0.06956-1.2-0.1016-1.438l-0.1602-1.184c-0.414-3.094-1.453-5.895-2.918-7.844-0.73-0.973-1.82-1.926-3.07-2.68-0.473-0.289-2.078-1.008-2.691-1.207-1.586-0.52-3.398-0.898-4.793-1-0.213-0.0155-0.4793-0.02402-0.7617-0.02539zm-35.45 0.5859c-0.023 0-0.1094 0.188-0.1914 0.418-0.072 0.218-0.156 0.4336-0.25 0.6426-0.059 0.117-0.2698 0.6639-0.4648 1.211l-0.6562 1.777c-0.1852 0.496-0.3488 0.9988-0.4941 1.508l-0.1953 0.7285 4.654 4.607c0.007999 0 0.3706-0.2231 0.8086-0.4961l1.453-0.9023 2.93-1.809c0.363-0.219 0.7465-0.4771 0.8555-0.5781l0.1973-0.1836v-1.703c0-0.937-0.02945-2.012-0.06445-2.387-0.09-0.941-0.2503-2.297-0.2773-2.324-0.012-0.012-0.2266 0.1085-0.4766 0.2695l-2.605 1.648-1.156 0.7422-0.6914 0.4453-0.4023-0.4219c-0.5-0.523-1.859-2-2.473-2.68-0.25-0.281-0.477-0.5137-0.5-0.5137zm30.2 0.7285c-0.0405 0.003407-0.08703 0.009532-0.1445 0.01953-0.156 0.031-1.57 0.2541-3.145 0.4961l-2.863 0.4453-0.5 0.4961c-0.547 0.543-0.6213 0.582-2.363 1.332l-1.586 0.7031c-0.391 0.18-0.9344 0.3445-2.023 0.6055-3.035 0.727-3.082 0.7343-4.109 0.7383-1.125 8e-3 -1.637-0.08209-2.121-0.3711-0.191-0.117-0.3705-0.2109-0.3945-0.2109-0.039 0-0.2545 1.297-0.3555 2.16-0.035 0.281-0.02259 0.3281 0.06641 0.3281 0.059 0 0.5043-0.09784 0.9883-0.2148l0.001954 0.001953 1.352-0.3105c1.156-0.238 3.105-0.6705 3.656-0.8145 0.772-0.191 1.543-0.3776 2.318-0.5566 1.797-0.418 6.016-1.48 6.441-1.625 0.137-0.047 0.9222-0.2701 1.742-0.4961s2.266-0.6636 3.207-0.9766l1.82-0.5938c0.313-0.09-0.04672-0.4181-0.6367-0.5781-0.488-0.137-0.8948-0.3201-1.094-0.4961-0.0765-0.0705-0.1363-0.09225-0.2578-0.08203zm-55.15 0.0293c-0.1342 0.001125-0.2138 0.03802-0.3398 0.1348-0.199 0.148-1.059 0.4766-1.258 0.4766-0.121 0-0.4766 0.3012-0.4766 0.4062 0 0.051 0.5117 0.2463 1.387 0.5273l1.621 0.5352c0.609 0.1887 1.221 0.3661 1.836 0.5312l1.785 0.4961c0.504 0.152 4.809 1.23 6.32 1.586l2.895 0.6797c1.076 0.2509 2.154 0.4917 3.234 0.7227l2.832 0.6172c0.43 0.098 0.8201 0.1681 0.8711 0.1641 0.07-8e-3 0.1048-0.1286 0.1328-0.4766 0.02-0.258 0.04288-0.7269 0.04688-1.047 8e-3 -0.535 4.37e-4 -0.5781-0.1016-0.5391-0.391 0.164-0.9411 0.2935-1.496 0.3555-0.812 0.09-1.512 0.01169-2.969-0.3203-2.039-0.465-3.602-0.98-4.793-1.582-0.401-0.188-0.8058-0.3662-1.215-0.5352-0.875-0.371-0.9137-0.3934-1.43-0.9004-0.527-0.516-0.5308-0.5219-0.9648-0.5879l-0.7773-0.1367c-2.325-0.383-4.653-0.7487-6.984-1.098-0.0605-0.00675-0.1115-0.01014-0.1562-0.009766zm-4.457 0.4121-0.8398 0.04297c-1.645 0.082-2.887 0.2735-3.926 0.6055l-0.9355 0.2969c-0.422 0.137-1.637 0.6286-1.68 0.6836-0.02 0.02-0.242 0.1483-0.5 0.2773-1.312 0.676-2.531 1.551-3.16 2.277-1.074 1.234-1.809 2.695-2.645 5.262-0.334 1.061-0.6111 2.139-0.8281 3.23l-0.04297 0.2461 0.207-0.2461c0.117-0.133 0.4218-0.4692 0.6758-0.7422h0.001953c1.094-1.168 2.68-2.395 3.699-2.863 0.605-0.27 1.234-0.4837 1.879-0.6367 0.523-0.117 1.902-0.1758 2.207-0.08984 0.121 0.035 0.5085 0.1375 0.8555 0.2305 0.4273 0.1225 0.8441 0.2792 1.246 0.4688l0.6055 0.3008 0.04297-1.008c0.043-1.074 0.1838-2.266 0.3398-2.875 0.371-1.449 1.328-3.191 2.586-4.711 0.199-0.238 0.2376-0.3355 0.2266-0.5195l-0.01562-0.2305zm64.09 0.001953-0.02734 0.2266c-0.023 0.207 0.012 0.277 0.375 0.707 1.063 1.273 2.086 3.195 2.457 4.621 0.172 0.648 0.289 1.633 0.332 2.746l0.03906 1.039 0.418-0.2109c0.565-0.2828 1.158-0.5055 1.77-0.6641 0.578-0.152 1.98-0.2232 2.34-0.1172 0.2372 0.0658 0.4754 0.1267 0.7148 0.1836 0.961 0.234 1.682 0.5592 2.643 1.199 1.07 0.721 2.042 1.576 2.896 2.543 0.305 0.348 0.5662 0.609 0.5742 0.582s-0.03352-0.289-0.1035-0.582l-0.00195-0.001953c-0.336-1.453-0.9801-3.652-1.246-4.262-0.062-0.137-0.2149-0.4959-0.3359-0.7969-0.242-0.586-0.691-1.504-0.793-1.621-0.031-0.039-0.2268-0.3238-0.4258-0.6328-0.247-0.365-0.5241-0.7093-0.8281-1.027-0.941-0.953-3.191-2.309-4.746-2.859-1.93-0.68-3.211-0.9353-5.203-1.029l-0.8477-0.04297zm-2.035 0.3789c-0.06488 0.001875-0.1035 0.009391-0.1035 0.02539 0 0.032 0.2296 0.2986 0.5156 0.5996 0.684 0.723 1.426 1.551 1.535 1.711 0.144 0.191 0.2914 0.3785 0.4414 0.5645 0.871 1.074 1.328 2.016 1.676 3.465 0.199 0.816 0.6875 3.41 0.6875 3.648 0 0.074 0.03131 0.1367 0.07031 0.1367 0.051 0 0.06316-0.4531 0.03516-1.664-0.02-1.059-0.06591-1.883-0.1289-2.27-0.172-1.074-0.5982-2.348-1.074-3.219-0.498-0.855-1.058-1.673-1.676-2.445l-0.4141-0.4844-0.4766-0.003906c-0.278-5e-3 -0.556-0.02178-0.832-0.05078-0.0995-0.0115-0.191-0.01555-0.2559-0.01367zm-60.24 0.03125c-0.1485 0.002375-0.3499 0.009531-0.5684 0.01953l-0.793 0.03906-0.3711 0.4023c-0.203 0.223-0.4726 0.5629-0.6016 0.7539-0.159 0.24-0.3232 0.4769-0.4922 0.7109-0.379 0.516-1.242 2.285-1.418 2.91-0.211 0.746-0.3443 1.742-0.4023 2.965-0.043 0.902-0.02656 2.367 0.02344 2.309 8e-3 -8e-3 0.0763-0.3954 0.1543-0.8594v-0.001953c0.156-0.953 0.5979-2.937 0.8359-3.75 0.215-0.742 0.4336-1.26 0.6406-1.529 0.094-0.125 0.2725-0.3794 0.3945-0.5664 0.297-0.461 1.023-1.332 2.035-2.449 0.461-0.504 0.8295-0.9303 0.8145-0.9453-0.0075-0.0075-0.1035-0.01019-0.252-0.007813zm60.1 0.4883-1.52 0.5156c-0.917 0.3101-1.842 0.6006-2.771 0.8711l-1.686 0.4922c-0.733 0.2107-1.47 0.4072-2.211 0.5898l-2.148 0.5664c-0.203 0.066-1.043 0.2728-1.867 0.4648l-2.023 0.4727-3.594 0.8379c-0.625 0.133-1.137 0.2563-1.137 0.2793s0.1206 0.07809 0.2656 0.1211c0.1136 0.03303 0.2236 0.07741 0.3281 0.1328 0.125 0.09 1.316 0.2973 2.102 0.3633 0.441 0.035 1.379 0.06641 2.086 0.06641l1.289 0.003906-0.4062 0.375c-0.367 0.34-0.7055 0.6047-1.771 1.387-0.832 0.609-2.494 1.469-3.381 1.754-0.316 0.098-0.5723 0.1987-0.5723 0.2227 0 0.156 2.342 0.8594 3.822 1.148l0.5566 0.1094-0.1523 0.1211c-0.195 0.156-0.8091 0.4652-1.578 0.7852l-0.8906 0.3828c-0.875 0.398-2.829 0.8594-4.021 0.9414l-0.2363 0.01953 0.3438 0.2031c0.184 0.113 0.824 0.4016 1.418 0.6406l1.27 0.5312c0.2375 0.1168 0.5421 0.08279 0.9668-0.1191l0.001953-0.001953c0.3802-0.1706 0.7623-0.3364 1.146-0.498 1.254-0.535 4.91-2.418 5.758-2.965 0.238-0.156 1.762-0.9961 1.805-0.9961 0.027 0 0.05931-0.02474 0.07031-0.05274 0.027-0.07 1.168-0.7015 2.355-1.311 0.922-0.473 2.758-1.18 3.578-1.379 1.984-0.488 3.773-0.4842 5.262 0.007813 0.395 0.133 0.695 0.266 0.832 0.375 0.1921 0.1344 0.3862 0.2656 0.582 0.3945l0.5078 0.3398-0.03516-0.1992c-0.148-0.812-0.4686-2.309-0.5156-2.395-0.027-0.059-0.08981-0.2297-0.1328-0.3867-0.176-0.621-0.4649-1.297-0.7109-1.68-0.293-0.461-1.266-1.711-1.617-2.086-0.129-0.137-0.3749-0.4181-0.5469-0.6211-0.177-0.211-0.3664-0.4135-0.5664-0.6035l-0.2539-0.2227zm-59.76 0.01758c-0.09663 0.02573-0.3113 0.2307-0.7383 0.6953-0.341 0.371-0.6731 0.7497-0.9961 1.137l-0.4922 0.5938c-0.156 0.172-0.5825 0.7966-0.9805 1.434-0.203 0.32-0.4407 0.9878-0.6367 1.758-0.187 0.746-0.5514 2.508-0.5234 2.535 0.012 0.012 0.2028-0.1172 0.4258-0.2852 0.607-0.449 1.294-0.7788 2.023-0.9727 0.57-0.148 0.7272-0.164 1.867-0.168 1.32-4e-3 1.824 0.05919 2.996 0.3672 0.844 0.223 2.805 1 3.57 1.418l0.5898 0.3125c0.649 0.3459 1.287 0.7124 1.914 1.096 0.23 0.141 0.4341 0.2578 0.4531 0.2578 0.039 0 0.8132 0.4338 1.492 0.8398 0.3578 0.208 0.7211 0.4059 1.09 0.5938 0.359 0.184 0.6676 0.352 0.6836 0.375 0.063 0.086 3.168 1.613 3.828 1.883l1.059 0.4414c0.207 0.086 0.4263 0.1602 0.4883 0.1602 0.062-1e-6 0.6051-0.1955 1.203-0.4375l-0.001953-0.001954c1.121-0.453 1.828-0.7771 2.082-0.9531 0.145-0.102 0.1412-0.1016-0.1328-0.1016-0.969-4e-3 -3.168-0.5267-4.23-1.012-0.227-0.103-0.4565-0.2019-0.6875-0.2969-0.605-0.242-1.605-0.7559-1.641-0.8379-0.023-0.066 0.03122-0.1018 0.1992-0.1328 0.391-0.066 1.57-0.336 2.191-0.5 0.637-0.168 0.8279-0.2285 1.211-0.3965 0.1591-0.067 0.321-0.1299 0.4844-0.1855 0.129-0.043 0.2324-0.09409 0.2324-0.1211s-0.1369-0.07809-0.2969-0.1211c-1.035-0.27-2.643-1.117-4.107-2.168l-0.9492-0.6934c-0.016-0.023-0.2031-0.1994-0.4141-0.3984l-0.3867-0.3594h1.266c1.355 0 2.543-0.07394 3.336-0.2109 0.484-0.086 1.645-0.4606 1.59-0.5156-0.016-0.016-0.6682-0.1641-1.449-0.3281-1.336-0.285-2.238-0.4918-3.102-0.7148-0.203-0.051-1.059-0.2504-1.898-0.4414l-1.99-0.4727c-0.786-0.209-1.574-0.4133-2.363-0.6133l-2.18-0.582c-0.516-0.1571-1.036-0.3058-1.557-0.4453-0.992-0.273-3.846-1.184-4.486-1.43-0.00925-0.003375-0.02135-0.003675-0.03516 0zm25.14 4.852c-0.005424 0.001887-0.007578 0.005844-0.009765 0.01172-0.023 0.063-0.07809 0.4569-0.1211 0.8789-0.094 0.875-0.05925 2.496 0.09375 4.621l0.09375 1.336 0.2969 0.2812c0.66 0.598 1.324 1.192 1.992 1.781l1.695 1.504 0.3867-0.2461c0.215-0.137 0.629-0.3895 0.918-0.5605v-0.001953l1.371-0.8359 1.719-1.047 0.875-0.5234 0.07812-0.3945c0.1084-0.4964 0.2241-0.9916 0.3477-1.484 0.149-0.601 0.3284-1.43 0.3984-1.836 0.129-0.773 0.3164-2.367 0.3164-2.707v-0.1914l-0.1719 0.1172c-0.282 0.185-0.5675 0.3641-0.8555 0.5391l-1.617 1.004-1.465 0.9062-1.203 0.7539-0.6719 0.4336-2.219-2.223c-1.692-1.699-2.167-2.145-2.248-2.117zm-5.365 0.2754-0.4785 0.1836c-1.277 0.488-2.141 0.6484-3.957 0.7344-0.883 0.039-0.9145 0.047-0.6875 0.125 0.656 0.23 2.566 0.5506 3.82 0.6406 1.031 0.074 1.012 0.06991 1.934 0.003907l-0.001953-0.001954c0.906-0.062 1.852-0.27 2.305-0.5 0.371-0.184 0.4216-0.2304 0.3906-0.3594-0.023-0.086-0.2418-0.1465-1.051-0.3105-0.551-0.112-1.101-0.2321-1.648-0.3594l-0.625-0.1562zm20.36 0.05273-1.043 0.2305c-1.406 0.316-1.34 0.2885-1.387 0.5195-0.035 0.176-0.01603 0.2113 0.168 0.3203 0.297 0.172 1.121 0.4382 1.688 0.5352 0.719 0.129 2.758 0.07806 3.699-0.08594 0.734-0.133 1.941-0.4407 2.137-0.5547 0.074-0.039-0.1949-0.06956-0.8789-0.1016-1.875-0.082-2.605-0.2033-3.711-0.6133l-0.6719-0.25zm-26.09 1.15c-0.078 0.027 0.3875 0.3885 1.355 1.061 1.238 0.848 3.301 1.797 4.16 1.906 0.03096 0.003996 0.4085-0.1958 0.8418-0.4414h0.001953c0.4302-0.2501 1.201-0.6679 1.713-0.9297l0.9355-0.4766 0.01953-0.5039 0.01562-0.5-0.3281 0.1523c-0.676 0.309-2.031 0.5254-3.246 0.5254-1.461-4e-3 -3.527-0.2968-5.039-0.7148-0.199-0.055-0.3947-0.09012-0.4297-0.07813zm31.6 0.04883c-0.176 0.042-0.3495 0.09425-0.5195 0.1562-0.5 0.172-1.637 0.4142-2.496 0.5312-0.773 0.109-2.402 0.09756-3.117-0.02344-0.578-0.098-1.621-0.4217-1.785-0.5547-0.043-0.035-0.08956-0.05497-0.1016-0.04297-0.062 0.066-0.2285 1.074-0.1855 1.109 0.765 0.5157 1.539 1.018 2.32 1.508 0.457 0.27 0.4608 0.2701 1.426-0.04688h0.001953c0.68-0.223 2.078-0.9018 2.758-1.344 1.152-0.746 1.871-1.293 1.699-1.293zm-22.56 1.373-0.7539 0.3789c-0.57 0.291-1.134 0.5946-1.691 0.9102-0.515 0.293-1.258 0.6679-1.648 0.8359-0.641 0.277-2.102 0.727-2.703 0.832-0.25 0.047-0.2405 0.1209 0.02148 0.1719 0.406 0.07 2.469 0.03531 3.098-0.05469l-0.001953-0.001953c1.41-0.199 2.516-0.5644 3.332-1.107l0.4805-0.3164-0.03516-0.5c-0.016-0.275-0.03841-0.5502-0.06641-0.8242l-0.03125-0.3242zm14.29 0.1641c-0.01241 0.002215-0.02147 0.008328-0.02734 0.01758-0.055 0.09-0.4528 1.688-0.4258 1.711 0.012 0.012 0.1601 0.1049 0.3281 0.2109 0.617 0.391 1.906 0.7927 3.105 0.9727 0.645 0.098 3.125 0.1039 3.273 0.00586 0.066-0.039-0.1448-0.1186-0.7148-0.2676-1.672-0.43-2.738-0.8826-3.949-1.684-1.207-0.7962-1.503-0.9823-1.59-0.9668zm-14.23 1.885c-0.031 0-0.1478 0.06644-0.2578 0.1484-0.426 0.324-1.172 0.6252-2.211 0.9062-1.059 0.285-1.637 0.3438-3.23 0.3398-0.797-4e-3 -1.445-0.004094-1.445 0.003906 0.3028 0.1326 0.6089 0.2577 0.918 0.375l1.105 0.4414c0.313 0.133 1.582 0.4528 2.207 0.5508 1.23 0.199 1.762 0.2073 2.051 0.02734 0.2237-0.148 0.4385-0.3087 0.6445-0.4805l0.4297-0.3516-0.03906-0.6211c-0.059-0.961-0.1089-1.34-0.1719-1.34zm13.72 0.1875c-0.031 0-0.1408 0.3807-0.2578 0.8457l-0.207 0.8438 0.1484 0.1602c0.082 0.09 0.3705 0.3262 0.6445 0.5332l0.5 0.3711 0.6641-0.03906c0.367-0.023 0.9138-0.08172 1.215-0.1367 0.996-0.172 1.57-0.3316 2.723-0.7656 1.734-0.656 1.734-0.6134 0.03125-0.6094-1.598 4e-3 -2.113-0.05094-3.211-0.3359-0.785-0.203-1.137-0.3305-1.762-0.6465-0.242-0.121-0.4573-0.2207-0.4883-0.2207zm-0.541 2.084c-0.01498 0.002062-0.02641 0.01089-0.03516 0.02539-0.133 0.46-0.2449 0.9245-0.3359 1.395-0.027 0.16 1.91 0.7299 2.977 0.8789 1.082 0.152 1.844 0.1994 1.742 0.1094h-0.001953c-0.035-0.027-0.4782-0.2273-0.9902-0.4453s-1.09-0.4731-1.277-0.5781c-0.508-0.273-1.547-0.9727-1.824-1.223-0.132-0.117-0.209-0.1683-0.2539-0.1621zm-13 0.0957c-0.031 0-0.2029 0.1214-0.3789 0.2734-0.625 0.531-1.961 1.258-3.262 1.777-0.863 0.34-0.785 0.3668 0.625 0.2188 0.863-0.09 1.609-0.2505 2.641-0.5625l0.5156-0.1562v-0.2617c0-0.535-0.08162-1.289-0.1406-1.289zm2.166 0.2578c-0.035 0.039 0.07397 3.027 0.168 4.457l0.07422 1.199 0.9883 0.6367 1.453 0.9492c0.711 0.473 1.176 0.7704 1.211 0.7734 0.02 0 0.3276-0.1756 0.6836-0.3906l1.93-1.164 1.074-0.6445 0.418-0.2539v-0.625c0-1.059 0.1804-2.684 0.4414-4.004 0.07-0.355 0.1127-0.6558 0.09766-0.6758-0.031-0.027-0.9097 0.4571-0.9727 0.5391-0.02 0.023-0.4528 0.2926-0.9648 0.6016l-2.41 1.473c-0.508 0.324-0.5081 0.3241-0.8281 0.03906l-1.121-0.9922-1.398-1.246c-0.574-0.516-0.8088-0.7029-0.8438-0.6719zm10.42 1.471c-0.00423 5.34e-4 -0.006313 0.002406-0.007813 0.003906-0.107 0.565-0.1854 1.134-0.2344 1.707 0 0.082 1.25 0.05112 2-0.04688v-0.001953c0.691-0.09 2.824-0.5938 3.031-0.7148 0.074-0.043-0.01578-0.0595-0.3008-0.0625-1.059-4e-3 -2.523-0.2684-3.652-0.6504-0.4097-0.1425-0.7725-0.2424-0.8359-0.2344zm-12.41 0.08789-0.6523 0.2148c-0.984 0.316-2.527 0.578-3.422 0.582-0.219 0-0.3163 0.02155-0.2773 0.06055 0.09 0.094 1.836 0.5375 2.547 0.6465 0.844 0.137 0.9224 0.1452 1.484 0.1562l0.4844 0.007812-0.04297-0.543c-0.022-0.278-0.04903-0.555-0.08203-0.832l-0.03906-0.293zm12.88 4.229c-0.07416-3.77e-4 -0.1483 0.001107-0.2227 0.005859l-0.5742 0.01562-0.01953 1.496c-0.027 2.094 0.1368 5.023 0.3008 5.43 0.031 0.078 0.08228 0.1426 0.1133 0.1426s0.2189-0.2734 0.4219-0.6094v-0.001953c0.523-0.867 1.313-1.652 2-1.992 0.281-0.141 0.6446-0.2729 0.8086-0.2969 0.1351-0.01501 0.2695-0.03745 0.4023-0.06641 0.12-0.034 0.1712-0.3052 0.1602-0.6582-0.05-0.465-0.1254-0.862-0.2324-1.207-0.014-0.038-0.02892-0.07533-0.04492-0.1113-0.324-0.734-0.9771-1.445-1.621-1.773-0.4611-0.2433-0.9731-0.3704-1.492-0.373zm-12.52 0.1777c-0.051 0-0.2805 0.1016-0.5195 0.2266-0.621 0.324-1.281 1.043-1.543 1.668-0.223 0.535-0.3521 1.316-0.2891 1.738 0.035 0.246 0.06594 0.2932 0.2109 0.3242 1.051 0.215 1.57 0.4997 2.293 1.262 0.3101 0.3334 0.5909 0.6929 0.8398 1.074 0.184 0.297 0.3396 0.5314 0.3516 0.5234s-0.05072-0.2928-0.1367-0.6328c-0.152-0.59-0.5083-2.324-0.7773-3.785-0.091-0.512-0.1694-1.027-0.2344-1.543-0.082-0.645-0.1293-0.8555-0.1953-0.8555zm9.416 0.0625c-0.2062 0.1104-0.4086 0.2293-0.6055 0.3555l-1.305 0.7969-1.336 0.8008-0.6055 0.3672-0.3125-0.1758c-0.176-0.094-0.4796-0.2888-0.6836-0.4258s-0.6053-0.4078-0.9023-0.5918l-0.9922-0.6406c-0.254-0.172-0.4732-0.2933-0.4922-0.2773-0.039 0.043 0.2166 3.77 0.3066 4.484l0.06836 0.5391 0.3848 0.1914c0.1848 0.0922 0.3649 0.1937 0.5391 0.3047 0.09 0.063 0.6433 0.3667 1.236 0.6797 0.4075 0.209 0.81 0.428 1.207 0.6562 0.07 0.051 0.1603 0.08231 0.1953 0.07031s0.3008-0.2029 0.5938-0.4219v0.001953l1.73-1.27c0.335-0.242 0.6662-0.4892 0.9922-0.7422 0.438-0.344 0.4382-0.3323 0.3242-1.281-0.156-1.289-0.3086-2.855-0.3086-3.125-0.003999-0.164-0.01616-0.2969-0.03516-0.2969zm15.77 1.152c-0.2988 8.74e-4 -0.6258 0.01231-0.9883 0.03125-1.461 0.078-2.039 0.1715-2.609 0.4375-0.746 0.344-0.9063 0.6374-0.9023 1.648 0 0.52 0.02734 0.6758 0.1523 0.9648l0.1523 0.3398 0.04297-0.3594c0.0268-0.2008 0.0782-0.3974 0.1523-0.5859 0.18-0.375 0.4609-0.6094 0.8359-0.6914 0.91-0.203 2.589-0.3397 4.229-0.3477 1.629-4e-3 2.004 0.03119 2.508 0.2422 0.109 0.047 0.1092 0.03469-0.007812-0.1953-0.164-0.312-0.4325-0.5855-0.8965-0.8945-0.6256-0.4192-1.373-0.5936-2.668-0.5898zm-36.61 0.001953c-0.8023-0.004318-1.553 0.05024-2.023 0.1777-0.691 0.188-1.543 0.8107-1.781 1.303-0.051 0.109-0.09003 0.2029-0.08203 0.2109s0.141-0.02703 0.293-0.08203c0.484-0.168 1.34-0.2275 2.676-0.1875 1.793 0.055 3.516 0.2423 4.078 0.4453 0.379 0.141 0.6561 0.5777 0.7461 1.18 0.023 0.156 0.05531 0.2812 0.07031 0.2812s0.09016-0.133 0.1602-0.293v-0.001953c0.113-0.246 0.1367-0.4142 0.1367-0.9492 0-0.977-0.1475-1.242-0.8945-1.621-0.5612-0.2831-2.042-0.4557-3.379-0.4629zm31.76 1.459-0.2402 0.2734c-0.133 0.152-0.4262 0.508-0.6562 0.793s-0.4569 0.5634-0.5039 0.6094-0.2435 0.2853-0.4355 0.5273c-0.186 0.237-0.38 0.4674-0.582 0.6914-0.177 0.193-0.3449 0.3936-0.5039 0.6016-0.148 0.195-0.5429 0.6762-0.8789 1.074-0.477 0.563-0.68 0.8613-0.918 1.361-0.348 0.727-0.5547 1.471-0.5547 1.975 0 0.379 0.1677 0.8198 0.3477 0.9258 0.211 0.121 0.6332 0.07762 1.035-0.1094 0.809-0.371 1.75-1.156 3.387-2.816 1.383-1.402 1.986-2.055 1.971-2.133-4e-3 -0.039-0.08774-0.2659-0.1777-0.5039-0.089-0.289-0.264-0.5454-0.5-0.7344-0.224-0.201-0.4071-0.4438-0.5391-0.7148-0.187-0.383-0.2066-0.4732-0.2266-1.117l-0.02344-0.7031zm-27.24 0.003906c-0.02 0-0.02272 0.2296-0.01172 0.5156 0.035 0.902-0.2189 1.551-0.7969 2.039-0.234 0.195-0.3321 0.3361-0.4141 0.5781-0.055 0.176-0.1414 0.3981-0.1914 0.4961-0.086 0.172-0.08172 0.1843 0.2383 0.5273 0.793 0.859 2.766 2.844 3.211 3.227l0.5703 0.5039c0.176 0.172 1.027 0.7194 1.336 0.8594 0.398 0.18 0.8284 0.1912 1.023 0.03125 0.484-0.406 0.4284-1.238-0.1816-2.68-0.266-0.629-0.3964-0.8551-0.7324-1.246l-1.277-1.531-1.152-1.387-0.625-0.7539c-0.637-0.785-0.9651-1.176-0.9961-1.18zm33.26 0.2402c-1.828 0-3.994 0.1991-4.514 0.4141-0.355 0.145-0.6639 0.9687-0.5039 1.348l0.08203 0.2031 0.04297-0.3008c0.0219-0.1582 0.0724-0.3116 0.1465-0.4531l0.001953 0.001953c0.145-0.219 0.5702-0.5118 0.8672-0.5898 0.3963-0.117 0.823-0.03716 1.15 0.2148l0.3164 0.2266 0.2305-0.2539c0.574-0.637 1.359-0.7026 2.148-0.1836l0.2891 0.1953 0.2852-0.2207c0.352-0.27 0.6371-0.3265 1.121-0.2285 0.414 0.086 0.6796 0.2055 0.8906 0.3965 0.188 0.172 0.2502 0.08203 0.1172-0.168-0.258-0.477-0.8239-0.6046-2.672-0.6016zm-39.16 0.00586c-1.891 0-2.414 0.1128-2.707 0.5938-0.078 0.121-0.1254 0.234-0.1094 0.25s0.1877-0.06559 0.3867-0.1836c0.352-0.215 0.8013-0.3477 1.152-0.3477 0.246 0 0.477 0.0935 0.75 0.3125l0.2344 0.1836 0.3535-0.2148c0.477-0.289 0.9412-0.3911 1.285-0.2891 0.3404 0.1048 0.6455 0.3009 0.8828 0.5664l0.168 0.1953 0.2383-0.1875c0.43-0.344 0.8361-0.4058 1.328-0.2148 0.582 0.227 0.9219 0.6288 0.9219 1.094 0 0.152 0.01745 0.1804 0.06445 0.1094 0.03088-0.0508 0.05838-0.2271 0.05859-0.3945v-0.001953c0.003221-0.4177-0.2461-0.9319-0.5117-1.053-0.473-0.215-2.656-0.418-4.496-0.418zm38.08 0.5352c-0.3124-0.005019-0.6037 0.1311-0.8789 0.4062l-0.2988 0.2969 0.1855 0.293c0.219 0.344 0.4017 0.8833 0.5117 1.488 0.063 0.363 0.1251 0.5002 0.3711 0.8242 0.406 0.535 0.8438 1.445 0.9648 2.008 0.06327 0.3443 0.1001 0.693 0.1094 1.043 7e-3 0.316 0.02297 0.5742 0.04297 0.5742s0.1985-0.1843 0.3945-0.4062c0.695-0.789 1.004-1.742 0.9531-2.953-0.055-1.285-0.3868-2.18-1.051-2.855-0.468-0.4725-0.903-0.7123-1.305-0.7188zm-37.06 0.007812c-0.645 0.012-1.492 0.6523-1.863 1.406-0.121 0.246-0.2929 0.7273-0.3789 1.07-0.145 0.555-0.1559 0.7067-0.1289 1.43 0.031 0.867 0.1088 1.211 0.4258 1.883 0.164 0.344 0.8011 1.137 0.9141 1.137 0.02 0 0.04288-0.2715 0.04688-0.6035v-0.001953c0.016-0.914 0.203-1.617 0.625-2.328 0.1664-0.2866 0.3476-0.5643 0.543-0.832 0.164-0.207 0.2114-0.3363 0.2734-0.7773 0.07-0.504 0.3398-1.195 0.5898-1.523 0.086-0.109 0.0815-0.1411-0.0625-0.3281-0.234-0.309-0.6564-0.5352-0.9844-0.5312zm39.36 0.04102c-0.1191-0.003965-0.1996 0.03023-0.3652 0.1152-0.441 0.219-0.4572 0.2929-0.1562 0.6719 0.297 0.371 0.5983 1.105 0.7383 1.793 0.086 0.43 0.1252 0.5081 0.3672 0.7461 0.2003 0.2129 0.3766 0.4461 0.5293 0.6953 0.246 0.418 0.6172 1.426 0.6172 1.68 0.00813 0.1003 0.03076 0.1989 0.06641 0.293l0.06445 0.166 0.01367-0.01172 0.1133-0.166c0.0978-0.1537 0.1893-0.3131 0.2734-0.4746l0.001953 0.001953c0.22-0.427 0.3655-1.009 0.3965-1.588-1e-3 -0.114-0.003765-0.2416-0.009765-0.3906-7e-3 -0.192-0.02006-0.3682-0.03906-0.5332-0.028-0.134-0.06891-0.2741-0.1289-0.4531-0.285-0.875-0.5895-1.422-1.02-1.836-0.437-0.426-0.6837-0.5621-1.18-0.6641-0.126-0.02625-0.2117-0.04254-0.2832-0.04492zm-41.69 0.005859c-0.2583-2.81e-4 -0.6041 0.0818-0.8711 0.2168-0.367 0.188-1 0.8481-1.191 1.246-0.457 0.945-0.5435 1.191-0.6055 1.758-0.1132 0.894 0.08575 1.8 0.5605 2.566 0.215 0.355 0.3047 0.3875 0.3047 0.1055l-0.001953 0.001954c0-0.242 0.2029-0.9116 0.4219-1.393 0.2093-0.462 0.4887-0.8886 0.8281-1.266 0.1538-0.165 0.259-0.3689 0.3047-0.5898 0.195-0.891 0.4883-1.582 0.8203-1.965l0.1953-0.2227-0.1758-0.1797c-0.105-0.107-0.2292-0.192-0.3672-0.25-0.0605-0.0195-0.1366-0.0292-0.2227-0.0293zm4.752 0.2168c-0.453 0-1.102 0.5757-1.418 1.264-0.465 1.012-0.4487 2.361 0.03125 3.4 0.355 0.758 0.6716 1.178 1.141 1.506 0.238 0.168 0.4412 0.2991 0.4492 0.2871s-0.02712-0.2093-0.07812-0.4473c-0.113-0.539-0.07769-1.711 0.07031-2.211 0.059-0.187 0.2584-0.6483 0.4414-1.027 0.516-1.035 0.645-1.7 0.418-2.146-0.078-0.16-0.2149-0.2729-0.5039-0.4219-0.215-0.109-0.4648-0.2031-0.5508-0.2031zm32.2 0.01758c-0.1852-0.001324-0.3755 0.06774-0.6113 0.2012-0.398 0.223-0.4883 0.3476-0.5312 0.7266-0.047 0.465 0.1018 0.9843 0.5508 1.945 0.207 0.441 0.4139 0.9879 0.4609 1.211 0.137 0.648 0.1048 1.617-0.07422 2.242l-0.04297 0.1484 0.2031-0.1172c0.2028-0.1372 0.3937-0.2913 0.5703-0.4609h0.001953c0.461-0.43 0.7442-0.914 0.9902-1.668 0.172-0.527 0.1914-0.6677 0.1914-1.348 0-0.672-0.01959-0.8198-0.1836-1.301-0.203-0.605-0.422-0.9568-0.75-1.219-0.3077-0.2419-0.5372-0.3596-0.7754-0.3613zm-25.08 0.4922c-0.05168 5.73e-4 -0.08664 0.009906-0.1035 0.02734-0.09 0.093-1.062 1.992-1.062 2.078 0 0.043 0.2658 0.3981 0.5938 0.7891 0.363 0.43 0.6635 0.8587 0.7695 1.098l0.3125 0.6875c0.172 0.375 0.3789 1.172 0.3789 1.461 0 0.121 0.01244 0.2074 0.02344 0.1914s0.1878-0.2504 0.3828-0.5234l0.9258-1.328 0.8438-1.234 0.2773-0.4023-0.1797-0.3398c-0.441-0.848-1.367-1.824-2.055-2.168-0.3778-0.1934-0.8835-0.3384-1.107-0.3359zm17.96 0c-0.2209-0.003107-0.729 0.1411-1.113 0.332-0.719 0.352-1.695 1.41-2.113 2.289l-0.1094 0.2305 0.3477 0.5117 1.836 2.66 0.2344 0.3359 0.04297-0.3477c0.0351-0.2497 0.08307-0.4976 0.1445-0.7422 0.188-0.734 0.648-1.59 1.25-2.316l0.6133-0.7578c0.047-0.062-0.07794-0.3587-0.4609-1.098-0.285-0.559-0.5433-1.039-0.5703-1.07-0.01538-0.01762-0.05059-0.02663-0.1016-0.02734zm-6.09 0.7383c-0.015 0-0.2192 0.1385-0.4492 0.3105l-2.478 1.82c-0.312 0.23-0.6093 0.4219-0.6523 0.4219-0.043 1e-6 -0.1798-0.06644-0.3008-0.1484-0.295-0.179-0.5953-0.3469-0.9023-0.5039-0.914-0.48-1.176-0.6247-1.605-0.8867-0.199-0.117-0.3793-0.1988-0.4023-0.1758s0.03491 0.3381 0.1289 0.7051c0.1866 0.8 0.357 1.604 0.5117 2.41l0.4023 1.932c0.059 0.168 0.1682 0.2338 1.074 0.6328l2.48 1.07c0.01997 0.003994 0.3263-0.212 0.6816-0.4805h0.001953l1.084-0.8086c1.172-0.879 1.211-0.9103 1.211-1.07 0-0.086-0.1091-0.8672-0.2461-1.742l-0.4727-3.223c-0.02-0.145-0.05141-0.2637-0.06641-0.2637zm0.6953 5.859c-0.031-0.027-1.039 0.6842-1.348 0.9492-0.458 0.3656-0.9272 0.7171-1.406 1.055-0.094 0.055-1.321-0.4341-2.812-1.121-0.254-0.117-0.4733-0.1987-0.4883-0.1797-0.031 0.031 0.6335 2.77 0.8555 3.52l0.1211 0.4062 0.4219 0.1797c0.23 0.102 0.6725 0.3012 0.9805 0.4492 1.035 0.488 1.68 0.7517 1.773 0.7207 0.055-0.016 0.445-0.2621 0.875-0.5391 0.426-0.281 1.023-0.6617 1.328-0.8457s0.5659-0.3749 0.5859-0.4219c0.027-0.074-0.2189-1.004-0.4609-1.75-0.051-0.152-0.164-0.7538-0.25-1.34l-0.1758-1.082zm14.84 2.828c-1.446 0.022-2.889 0.1368-3.99 0.3398-2.516 0.465-3.793 0.7889-5.254 1.336-1.055 0.391-1.93 0.7774-2.051 0.8984-0.059 0.059 0.254 1.096 0.457 1.525l0.3613 0.793 0.25 0.543 0.7676-0.3613c1.305-0.617 2.602-0.9667 4.723-1.264 0.918-0.129 1.266-0.1406 3.297-0.1406 2.395 0 3.02 0.05075 4.297 0.3438 1.387 0.32 2.523 0.8712 3.418 1.66 1.199 1.059 2.008 2.992 1.719 4.133-0.121 0.477-0.2966 0.8322-0.7656 1.531-0.316 0.469-0.6563 0.82-1.445 1.5-0.715 0.613-2.762 1.359-3.797 1.383-0.309 4e-3 -0.1719 0.04738 0.3711 0.1094 0.664 0.078 1.805 0.08181 2.461 0.007813l-0.001953 0.001953c0.679-0.0683 1.35-0.2071 2-0.4141 0.764-0.285 1.498-0.6452 2.191-1.074 0.492-0.336 1.336-1.141 1.602-1.52l0.4023-0.5703c0.227-0.312 0.6325-1.348 0.7695-1.961 0.051-0.237 0.107-0.473 0.168-0.707 0.035-0.133 0.0625-0.6248 0.0625-1.094 0-0.773-0.01622-0.9185-0.1992-1.562-0.113-0.395-0.3075-0.9645-0.4395-1.27-0.262-0.609-0.8325-1.504-1.105-1.734-0.195-0.164-1.852-1.02-2.371-1.227-0.828-0.328-2.73-0.8123-3.891-0.9883-1.111-0.17-2.56-0.2408-4.006-0.2188zm-13.99 1.777c-0.07514 0.007533-0.3401 0.1691-1.26 0.7676l-1.16 0.7305-0.3789 0.2305-0.7695-0.332c-0.344-0.147-0.6864-0.3018-1.023-0.4648-0.453-0.238-1.086-0.5041-1.086-0.4531 0 0.059 0.5818 2.086 0.7188 2.496 0.1388 0.3814 0.2874 0.7589 0.4453 1.133 0.285 0.703 0.3787 0.8671 0.5117 0.9141 0.863 0.2814 1.736 0.5316 2.617 0.75 0.05086 0 0.3042-0.183 0.5645-0.4121l0.001953-0.001953c0.2586-0.2304 0.7876-0.6854 1.174-1.01l0.8535-0.7148 0.1445-0.125-0.207-0.5605c-0.117-0.309-0.285-0.723-0.375-0.918s-0.2854-0.7268-0.4414-1.176c-0.156-0.449-0.2886-0.8277-0.3086-0.8477-0.004375-0.004375-0.01075-0.006935-0.02148-0.005859zm12.68 2.105-0.4473 0.003906c-0.25 0-0.6412 0.01606-0.8672 0.03906l-0.4102 0.03906-0.04297 0.3633c-0.023 0.203-0.02672 0.3871-0.01172 0.4141s0.3965 0.03062 0.8535 0.01562l0.832-0.03125 0.04297-0.25c0.0252-0.1394 0.04078-0.2803 0.04688-0.4219l0.003907-0.1719zm0.4668 0.03516c-0.0936 0.002156-0.1531 7e-3 -0.1621 0.01562-0.024 0.023-0.05541 0.211-0.06641 0.418l-0.01953 0.375 0.3711 0.03516c0.7225 0.06956 1.274 0.06396 1.309-0.01758v-0.001953c0.02607-0.1387 0.04189-0.279 0.04688-0.4199l0.01562-0.3457-0.8086-0.04297c-0.2781-0.01438-0.5295-0.01922-0.6855-0.01562zm-2.439 0.02539-0.4297 0.03711c-0.594 0.051-1.277 0.1429-1.305 0.1699-0.012 0.012-0.03941 0.2093-0.06641 0.4473l-0.04297 0.4277 0.2422-0.03516c0.2935-0.04363 0.5877-0.08158 0.8828-0.1133v-0.001953l0.6367-0.07812v-0.1914c0.00628-0.144 0.02061-0.2873 0.04297-0.4297l0.03906-0.2324zm4.275 0.06445c-0.0121 5.12e-4 -0.01955 0.001718-0.02148 0.003906-0.016 0.016-0.03478 0.2107-0.05078 0.4297-0.023 0.473-0.07044 0.441 0.8516 0.582l0.5996 0.09766c0.023 4e-3 0.05903-0.1906 0.08203-0.4336h-0.001953c0.023-0.242 0.03072-0.4567 0.01172-0.4727-0.04031-0.04406-1.289-0.2147-1.471-0.207zm-6.434 0.1914c-0.1289-0.0015-0.3771 0.041-0.8301 0.125l-0.6934 0.1328-0.03906 0.2891-0.06055 0.4922c-0.016 0.109-0.01591 0.2012-0.003906 0.2012 0.233-0.049 0.4643-0.1012 0.6953-0.1582l0.8125-0.1836c0.109-0.023 0.1409-0.09012 0.1719-0.3281l0.06641-0.4336c0.0195-0.09 0.009734-0.1352-0.1191-0.1367zm8.205 0.07226c-0.02 0.149-0.03306 0.2992-0.03906 0.4492l-0.01953 0.4355 0.5547 0.1406c0.305 0.078 0.5699 0.1558 0.5859 0.1758s0.09778 0.03125 0.1758 0.03125c0.137 0 0.1465-0.02325 0.1465-0.4062h-0.001953c0-0.387-0.007875-0.4097-0.1719-0.4727-0.25-0.098-1.215-0.3725-1.23-0.3535zm-10.04 0.2832-0.2109 0.04688c-0.117 0.027-0.4492 0.137-0.7422 0.25l-0.5254 0.207-0.02148 0.5c-0.012 0.313 0.007875 0.5039 0.04688 0.5039s0.2381-0.07778 0.4531-0.1758c0.204-0.095 0.4126-0.1797 0.625-0.2539 0.125-0.043 0.2418-0.09809 0.2578-0.1211s0.04731-0.25 0.07031-0.5l0.04688-0.457zm11.76 0.2812-0.03906 0.1836c-0.02 0.105-0.03516 0.2814-0.03516 0.3984-1e-6 0.203 0.01997 0.2189 0.668 0.5469 0.367 0.188 0.688 0.3438 0.707 0.3438s0.05522-0.129 0.07422-0.293c0.047-0.355-0.01594-0.4219-0.8359-0.8789l-0.5391-0.3008zm-13.56 0.377c-0.1519 0.002007-0.959 0.4296-0.959 0.5215 0 0.125 0.3665 0.7656 0.4375 0.7656 0.09436-0.02376 0.1855-0.06 0.2715-0.1055h0.001953c0.2093-0.1012 0.213-0.1064 0.2559-0.625 0.023-0.285 0.03072-0.5348 0.01172-0.5508-0.003875-0.003875-0.009402-0.005993-0.01953-0.005859zm-3.584 0.4961c-0.007045 1.53e-4 -0.01423 0.00286-0.02148 0.00586-0.047 0.016-0.6366 0.5041-1.309 1.078-0.672 0.574-1.254 1.05-1.293 1.062s-0.6212-0.1371-1.281-0.3281l-1.254-0.3438c-0.062 0 1.207 2.531 1.668 3.316 0.328 0.559 0.3715 0.6089 0.6055 0.6719 0.244 0.067 0.4866 0.1417 0.7266 0.2227 0.492 0.16 1.969 0.5701 2.082 0.5781 0.039 0 0.3437-0.3673 0.6797-0.8203h0.001953l0.8672-1.168c0.104-0.146 0.2141-0.2897 0.3281-0.4277 0.109-0.109 0.1094-0.1115-0.1016-0.4395-0.227-0.352-1.455-2.875-1.561-3.199-0.04462-0.14-0.08936-0.2101-0.1387-0.209zm18.81 0.291c-0.02615 0.01293-0.05727 0.1217-0.07227 0.2539-0.02 0.238-0.007937 0.2622 0.2891 0.4922 0.1845 0.1433 0.3608 0.2971 0.5273 0.4609 0.215 0.223 0.3444 0.2458 0.2734 0.05078-0.129-0.348-0.8587-1.258-1.012-1.258-0.001687 0-0.004116-8.62e-4 -0.005859 0zm-25.34 0.1875c-0.09 0-3.348 1.556-4.488 2.146-4.797 2.465-6.207 3.103-8.59 3.896-2.687 0.891-3.43 1.094-5.402 1.48l-1.664 0.3242c-0.687 0.137-2.871 0.1015-4.168-0.0625-1.371-0.176-2.742-0.4566-3.57-0.7266-1.02-0.336-2.27-1.055-2.621-1.516-0.168-0.219-0.7381-0.6604-0.7891-0.6094s0.1066 0.5553 0.3066 0.9453c0.625 1.242 1.379 1.961 2.852 2.73 1.003 0.521 2.382 0.9408 3.959 1.219 0.982 0.16 1.971 0.2677 2.965 0.3223 0.2198 0.01291 0.4401 0.02159 0.6602 0.02734 0.611 7e-3 1.294-0.006109 1.918-0.03711 0.705-0.044 1.433-0.1233 2.191-0.2363 1.807-0.305 4.4-0.9093 5.617-1.322 1.598-0.543 2.977-1.174 7.891-3.615 3.168-1.574 4.355-2.192 4.355-2.271-0.033-0.074-0.075-0.143-0.125-0.207-0.07-0.098-0.3786-0.699-0.6836-1.332s-0.5863-1.156-0.6133-1.156zm1.588 2.986c-0.016 0-0.1089 0.04275-0.2109 0.09375-0.172 0.09-0.1836 0.1225-0.1836 0.4395 0 0.395 0.04312 0.414 0.4531 0.207l0.2773-0.1465c0.023-0.02-0.3009-0.5938-0.3359-0.5938zm-0.6758 0.3711c-0.1686 0.0709-0.3342 0.1493-0.4961 0.2344l-0.4688 0.2305v0.332c0 0.387 0.003719 0.3874 0.6367 0.06641v0.001953l0.3594-0.1816v-0.3398c0-0.187-0.01225-0.3438-0.03125-0.3438zm7.604 0.291c-0.04728 0.007095-0.161 0.1211-0.2773 0.2812-1.254 1.707-1.617 2.168-1.699 2.168-0.051 0-0.5816-0.1414-1.184-0.3164-1.469-0.426-1.555-0.4492-1.594-0.4102-0.074 0.074 1.5 1.941 2.383 2.824 0.492 0.492 0.5201 0.5077 0.8711 0.5547 0.3395 0.0452 0.6778 0.09622 1.016 0.1523l0.7305 0.1172c0.039 4e-3 0.1625-0.1291 0.2715-0.2891 0.1043-0.1576 0.2177-0.3089 0.3398-0.4531 0.1699-0.2092 0.3306-0.4271 0.4785-0.6523l0.543-0.7891 0.207-0.2891-0.3359-0.4023c-0.477-0.57-1.164-1.531-1.445-2.023-0.129-0.23-0.2581-0.4408-0.2891-0.4688-0.003875-0.0035-0.008871-0.00492-0.01562-0.003906zm-8.863 0.3359c-0.04222 0.01166-0.2357 0.1094-0.4551 0.2266-0.41 0.223-0.4224 0.234-0.4414 0.5-0.027 0.324 6.3e-5 0.3319 0.5391 0.08594l0.4023-0.1855v-0.3145c0-0.172-0.01606-0.3125-0.03906-0.3125-0.001438 0-0.003045-7.77e-4 -0.00586 0zm-1.197 0.6328-0.4453 0.1953c-0.441 0.195-0.5508 0.3185-0.5508 0.6035 0 0.108 0.04584 0.1399 0.2148 0.08594 0.148-0.061 0.2955-0.1226 0.4395-0.1836l0.3418-0.1582v-0.543zm-1.287 0.6094c-0.08704 0.02594-0.8562 0.443-0.9434 0.5156-0.07 0.055-0.1128 0.3555-0.05078 0.3555 0.012 0 0.2321-0.08164 0.4961-0.1816l0.03125-0.01172h0.001953l0.502-0.207v-0.2246c1e-6 -0.137-0.01225-0.2461-0.03125-0.2461-0.001343 0-0.003051-8.37e-4 -0.005859 0zm-1.363 0.7109c-0.08471 0.007541-0.2457 0.08297-0.5469 0.2344-0.293 0.145-0.3574 0.2069-0.3574 0.3359 0 0.063 0.004531 0.09828 0.01953 0.1133l0.375-0.1484c0.1626-0.0723 0.3268-0.1413 0.4922-0.207 0.066-0.023 0.1094-0.1022 0.1094-0.1992 0-0.08953-0.01706-0.1356-0.0918-0.1289zm-1.254 0.5977c-0.1156 0.02386-0.8301 0.4076-0.8301 0.4492 0 0.074 0.05547 0.06306 0.4805-0.08594 0.285-0.102 0.3906-0.168 0.3906-0.25 0-0.062-0.01625-0.1133-0.03125-0.1133-0.002437 0-0.006036-7.69e-4 -0.009765 0zm16.27 0.2617c-0.027-8e-3 -0.195 0.1949-0.375 0.4609-0.454 0.654-0.9223 1.299-1.402 1.934l-0.1074 0.1367-0.9355-0.1445c-0.516-0.078-0.9449-0.1331-0.9609-0.1211s0.05525 0.08606 0.1562 0.1641c0.18 0.1457 0.3549 0.2981 0.5234 0.457 0.187 0.176 0.7425 0.6023 1.23 0.9453l0.8867 0.625 0.6055 0.03907c0.2438 0.015 0.4857 0.0355 0.7285 0.0625 0.324 0.051 0.3444 0.03853 0.5234-0.3555h0.001953c0.197-0.453 0.3864-0.9101 0.5664-1.371l0.3867-0.9805-0.8906-0.918c-0.488-0.504-0.9105-0.9256-0.9375-0.9336zm-17.51 0.3359c-0.03575 0.003855-0.08934 0.02334-0.1523 0.05859-0.09 0.051-0.1135 0.08594-0.0625 0.08594 0.0661-0.00333 0.13-0.02187 0.1875-0.05469 0.095-0.06125 0.08693-0.09627 0.02734-0.08984zm19.54 1.777c-0.1597 0.3671-0.3132 0.7373-0.4609 1.109-0.695 1.73-0.6682 1.684-0.8672 1.652-0.094-0.016-0.3787-0.04259-0.6367-0.05859-0.453-0.031-0.4613-0.03059-0.2773 0.06641 0.2039 0.109 0.4042 0.2234 0.6016 0.3438 0.227 0.137 0.8908 0.4408 1.465 0.6758 0.824 0.336 1.105 0.4261 1.324 0.4141l0.2773-0.01172 0.418-1.09c0.23-0.598 0.418-1.117 0.418-1.152s-0.2268-0.2343-0.5078-0.4453-0.7851-0.641-1.121-0.957c-0.336-0.316-0.6208-0.5619-0.6328-0.5469zm2.6 2.109c-0.09331 0.01163-0.2324 0.3559-0.6387 1.455-0.176 0.477-0.2965 0.8872-0.2695 0.9102 0.03698 0.02176 0.07584 0.0374 0.1172 0.04883 0.138 0.042 0.276 0.08305 0.416 0.123 0.739 0.202 2.002 0.4988 2.229 0.5078 0.156 4e-3 0.1598-0.00434 0.3008-0.9023v-0.00196c0.078-0.5 0.1292-0.9177 0.1172-0.9297-0.232-0.118-0.468-0.229-0.707-0.332-0.711-0.32-1.426-0.7153-1.492-0.8203-0.02384-0.03937-0.04614-0.06185-0.07227-0.05859zm13.26 1.318c-0.005373 0.00109-0.01103 0.00298-0.01953 0.00586-0.055 0.02-0.3284 0.109-0.6094 0.207-0.387 0.129-0.5117 0.1992-0.5117 0.2852 0 0.152 0.07038 0.1408 0.4844-0.07422l0.03125-0.01563c0.185-0.105 0.3669-0.2122 0.5469-0.3242 0.07962-0.056 0.1157-0.09162 0.07812-0.08398zm-10.71 0.05859c-0.062 0.063-0.2697 1.707-0.2227 1.754 0.053 0.053 0.2928 0.1096 0.7598 0.1816l0.08398 0.01367h0.003906c0.303 0.04 0.8581 0.06903 1.494 0.08203 0.024-0.063 0.03473-0.1739 0.05273-0.3789l0.05078-0.7891 0.01172-0.3418-0.2773-0.05078c-0.371-0.082-0.7375-0.1715-1.104-0.2715l-0.8535-0.1992zm9.174 0.4766c-0.103 1e-3 -0.3028 0.04296-0.7148 0.127-0.26 0.06-0.5221 0.1038-0.7871 0.1328-0.086 0-0.1725 0.02288-0.1875 0.04688-0.055 0.09 0.1046 0.6367 0.1836 0.6367 0.02345-0.00262 0.04594-0.00632 0.06836-0.01367 0.528-0.182 1.047-0.3985 1.553-0.6445 0.056-0.048 0.05439-0.09001 0.02539-0.166-0.031-0.08-0.03762-0.1201-0.1406-0.1192zm-6.588 0.1426c-0.01301 4.7e-4 -0.01961 0.00191-0.02148 0.00391-0.015 0.016-0.05112 0.3445-0.07812 0.7305-0.03 0.417-0.03481 0.5976-0.007813 0.6836 0.832 0.011 1.742 7.5e-4 2.389-0.03125 0.024-0.066 0.01914-0.2017-0.005859-0.5117-0.023-0.297-0.06956-0.5742-0.1016-0.6172-0.032-0.043-0.1642-0.07813-0.2852-0.07813s-0.5978-0.04656-1.051-0.1016c-0.3964-0.04813-0.7468-0.08139-0.8379-0.07813zm4.512 0.1895c-0.02734-1e-3 -0.06142 0.00687-0.1074 0.01562-0.102 0.023-0.5737 0.03906-1.055 0.03906h-0.8672l0.04297 0.5117c0.01221 0.1889 0.0359 0.3764 0.07031 0.5625 0.013 0.021 0.05142 0.03307 0.1074 0.03906 0.102-0.00799 0.1917-0.01634 0.2617-0.02734 0.0939-0.01395 0.1859-0.03016 0.2793-0.04687 0.157-0.041 0.4467-0.1118 0.7227-0.1738 0.347-0.078 0.6681-0.1596 0.7031-0.1836 0.043-0.027 0.03919-0.1524-0.007812-0.3984-0.0525-0.2662-0.06836-0.3349-0.1504-0.3379z"/></svg>
