<svg version="1.1" viewBox="0 0 128 128" xmlns="http://www.w3.org/2000/svg"><path fill="#5a90b6" d="m96.04 24.03c-0.009398-0.003088-0.02716 7.72e-4 -0.05323 0.01124-0.07038 0.02827-0.2028 0.07396-0.2942 0.1015-0.09145 0.02754-0.5439 0.2421-1.005 0.4767-2.475 1.258-4.146 2.863-5.514 5.294-0.1526 0.2711-0.4885 0.7748-0.7465 1.119-0.9091 1.214-0.8729 1.916 0.1458 2.814 0.7722 0.6812 1.013 1.128 1.665 3.09 0.7265 2.187 1.308 4.344 2.129 7.905 0.543 2.354 0.5278 2.142 0.1795 2.514-0.3169 0.3388-0.5409 0.7406-0.7174 1.287-0.2471 0.7654-0.3404 0.8648-0.9594 1.017-0.6535 0.1603-4.719 0.7744-5.129 0.7746-0.3847 2.56e-4 -0.4567-0.0443-0.6315-0.3891-0.1353-0.267-0.1943-0.3191-0.4291-0.3792-0.1496-0.03831-0.3083-0.0816-0.3528-0.09654-0.04445-0.01493-0.9226-0.1441-1.951-0.287-3.299-0.4581-8.318-1.315-9.979-1.704-0.5348-0.1252-0.6877-0.1849-0.6877-0.2678 1.35e-4 -0.1768 0.2819-1.282 0.8341-3.273 0.2879-1.038 0.5382-1.953 0.5561-2.032 0.01788-0.07969 0.05934-0.1614 0.09191-0.1815 0.03258-0.02014 0.2572 0.08101 0.4992 0.2248 0.2421 0.1438 0.4863 0.2615 0.5429 0.2615 0.2799 0 0.1571-0.3786-0.4655-1.435l-0.3405-0.5776 0.1015-0.8011c0.1438-1.134 0.2296-1.537 0.327-1.537 0.04557 0 0.4581 0.1152 0.9165 0.2559 0.9436 0.2897 1.031 0.3018 1.031 0.1405 0-0.1681-0.1893-0.402-1.202-1.485-0.6549-0.7004-0.9254-1.036-0.9704-1.205-0.1331-0.4986-0.3227-1.591-0.3227-1.858v-0.2807l0.5915 0.041c1.829 0.126 1.84 0.126 1.84 0.03835 0-0.17-0.6235-0.68-1.188-0.9713-0.3178-0.1641-0.9726-0.4698-1.455-0.6794-0.9176-0.3988-1.561-0.7681-2.193-1.259-0.4428-0.3438-0.5228-0.4584-0.401-0.5743 0.04782-0.04548 0.5232-0.2422 1.056-0.4374 1.487-0.5445 1.662-0.6503 1.354-0.8166-0.2188-0.1178-2.406-0.1583-3.143-0.05819-0.3231 0.04393-0.8754 0.1638-1.227 0.2665-0.3519 0.1027-0.827 0.2035-1.056 0.2238-0.3966 0.03518-2.287-0.125-2.663-0.2255l-0.1782-0.04761 0.2857-0.1964c0.1571-0.1081 0.8321-0.4785 1.5-0.8229 1.59-0.8196 1.52-0.769 1.229-0.8907-0.6618-0.2765-3.043 0.08074-4.247 0.6371-0.5272 0.2436-0.9404 0.5281-1.523 1.048-0.5523 0.4928-0.8372 0.6741-1.344 0.8553-0.4687 0.1675-1.846 0.5195-2.328 0.5948l-0.2804 0.04364 0.04463-0.1782c0.08049-0.3207 0.5033-0.8782 1.252-1.651 0.8291-0.8555 1.389-1.324 2.347-1.967 0.3628-0.2434 0.6596-0.4676 0.6596-0.4982 0-0.2711-1.431-0.1388-3.071 0.284-4.086 1.054-7.895 3.151-8.703 4.791-0.2172 0.4413-0.2586 0.8413-0.1673 1.618l0.05422 0.4622-0.3627 0.3802c-0.4544 0.4764-1.06 0.786-1.963 1.003-1.069 0.2575-1.137 0.2815-1.352 0.4738-0.2044 0.1829-0.2051 0.1854-0.1947 0.7707 0.00909 0.5143 0.03478 0.6365 0.207 0.9862 0.2229 0.4528 0.6134 0.9253 0.9237 1.117 0.1155 0.07138 0.4529 0.187 0.7498 0.2569 0.2969 0.06992 0.8497 0.2444 1.228 0.3878 0.77 0.2917 1.291 0.4113 1.437 0.33 0.07802-0.04366 0.02249-0.1363-0.2863-0.4771-0.3753-0.4142-0.493-0.6589-0.3941-0.8189 0.05543-0.08968 0.2094-0.05913 1.147 0.2285 0.3173 0.09736 0.656 0.1596 0.8133 0.1491l0.2695-0.01818-0.3819-0.4784c-0.4237-0.5309-0.5017-0.6937-0.3719-0.776 0.1394-0.0883 0.735-0.06541 1.345 0.05158 0.7395 0.1418 0.8041 0.08511 0.41-0.3587-0.3979-0.448-0.3854-0.5308 0.1104-0.7293 0.544-0.2178 1.104-0.3593 1.261-0.3184 0.1732 0.04528 0.2149 0.2532 0.1746 0.8728-0.0411 0.6316-0.206 1.091-0.6169 1.721-0.4976 0.7623-1.04 1.341-2.085 2.224-0.5412 0.4576-1.001 0.885-1.022 0.9499-0.02059 0.06487-0.01881 0.1668 0.003967 0.2261 0.04779 0.1245 0.4825 0.3547 0.9723 0.5151l0.3386 0.1108 0.3352-0.1696c0.3933-0.199 0.7388-0.4855 2.122-1.761 1.367-1.261 1.457-1.334 2.509-2.027 0.8129-0.5358 0.9522-0.6551 1.304-1.117 0.4682-0.615 0.5651-0.6659 1.8-0.9459 1.425-0.3232 2.001-0.3877 3.474-0.3881 1.269-3.58e-4 1.362 0.008114 1.631 0.1438 0.3211 0.1619 0.6531 0.6021 0.7763 1.03 0.1301 0.4512 0.09655 1.782-0.06084 2.418-0.2739 1.108-0.88 2.258-1.684 3.192-0.9416 1.094-4.037 4.31-4.925 5.118l-0.6192 0.5627-0.3752-0.03108c-0.2673-0.02216-0.8069 0.04398-1.878 0.2304-3.718 0.6472-5.92 0.9865-10.36 1.598-1.112 0.1529-1.392 0.2115-1.46 0.3052-0.04654 0.06372-0.1768 0.2598-0.2896 0.4357-0.2453 0.3824-0.09412 0.3777-2.093 0.0615-4.33-0.6849-6.312-1.032-6.433-1.127-0.03959-0.03109-0.0911-0.1757-0.1144-0.3214-0.06965-0.4356-0.4143-1.181-0.7849-1.697l-0.3478-0.485 0.167-0.8064c0.9718-4.686 2.661-10.45 3.405-11.62 0.08954-0.1407 0.3753-0.4266 0.6351-0.6351 0.344-0.2761 0.5163-0.4686 0.6338-0.7088 0.3527-0.7208 0.2626-1.165-0.4298-2.117-0.2535-0.3485-0.6861-1.014-0.9611-1.478-0.7895-1.334-1.399-2.089-2.451-3.036-0.9971-0.8983-2.594-1.91-3.511-2.226l-0.3633-0.125 0.1101 0.1861c0.06053 0.1025 0.7407 0.8428 1.511 1.645 1.597 1.662 2.118 2.26 2.631 3.015 0.3442 0.5071 0.8057 1.35 0.8057 1.472 0 0.08393-0.4681-0.01392-2.264-0.4741-3.456-0.8856-6.168-1.559-6.582-1.635-0.3834-0.06965-0.4752-0.06493-0.7998 0.03934-0.4753 0.1527-0.9093 0.1428-2.446-0.05521-1.658-0.2137-2.424-0.2799-4.254-0.3667-2.863-0.1357-7.343 0.05265-9.222 0.3875-0.8384 0.1494-1.41 0.2702-1.526 0.3223-0.07037 0.03174-0.2933 0.09009-0.4956 0.1296s-0.368 0.08567-0.368 0.1025 0.4246 0.01437 0.9436-0.00562c5.634-0.217 6.903-0.217 6.819 9.91e-4 -0.01755 0.04573-0.6703 0.573-1.45 1.171-2.258 1.732-3.368 2.7-4.972 4.337-4.001 4.083-6.611 8.18-8.422 13.22-1.127 3.136-1.659 5.154-2.036 7.722l-0.1455 0.9915c-0.2564 3.16-0.2123 5.043-0.1402 7.517 0.191 1.814 0.06086 0.8095 0.1723 2.015 0.1853 2.076 0.9847 6.719 1.658 9.628 0.6958 3.008 1.779 6.51 2.305 7.45 0.179 0.3202 0.236 0.3656 0.1835 0.1465-0.01897-0.07917-0.04617-0.2593-0.0605-0.4s-0.1406-0.7596-0.2804-1.375c-0.4808-2.119-0.5832-3.061-0.4635-4.26 0.1998-2.002 1.119-5.633 2.032-8.023 1.482-3.884 3.312-6.103 5.522-6.697 0.6593-0.1773 1.795-0.1462 2.527 0.0691 0.6595 0.1939 1.804 0.7487 2.367 1.147 0.4523 0.3203 0.4659 0.3681 0.4771 1.642 0.004626 0.5278 0.03558 0.8511 0.09092 0.9508 0.08361 0.1508 0.08416 0.1506 0.1865-0.1051 0.09685-0.2421 0.3102-1.289 0.3957-1.943 0.04771-0.3642 0.2424-0.6617 0.975-1.491 1.588-1.798 3.738-3.322 5.302-3.712 1.109-0.2765 2.642-0.1666 3.402 0.004626 0.7863 0.1772 1.757 0.6583 1.935 0.9909 0.05842 0.1092 0.1671 0.8039 0.2982 1.907 0.03427 0.2883 0.1441 0.2575 0.1461-0.041 5.38e-4 -0.07965 0.02855-0.1948 0.06216-0.2559s0.1067-0.399 0.1623-0.7508c0.1356-0.857 0.3149-1.215 0.7832-1.562 0.7069-0.5242 1.925-1.036 2.749-1.155 1.487-0.215 3.803 0.142 5.676 0.8745 0.8727 0.3413 2.601 1.201 4.034 2.007 5.802 3.262 9.266 4.921 11.4 5.461 0.7657 0.1938 1.859 0.3917 2.816 0.5091 0.3961 0.04864 0.7609 0.1221 0.811 0.1636 0.1255 0.1041 0.2154 0.5675 0.2625 1.354l0.04 0.6645-0.5511 0.3419c-0.7708 0.4781-1.313 1.044-1.656 1.731-0.2574 0.5141-0.2837 0.6157-0.3881 1.505-0.06472 0.5508-0.166 1.091-0.24 1.279-0.1456 0.3698-0.5859 1.223-0.7267 1.409-0.09182 0.1209-0.09729 0.1202-0.2615-0.03206-0.09228-0.08554-0.6892-0.7601-1.326-1.499-0.6372-0.7389-1.445-1.639-1.796-2.001-0.7248-0.7482-1.097-0.9689-1.91-1.132-1.172-0.2348-3.694-0.2682-4.549-0.06017-0.6171 0.1501-1.212 0.5041-1.658 0.9859-0.3634 0.3927-0.4241 0.5021-0.7148 1.286-0.1748 0.4713-0.4301 1.087-0.5673 1.369-0.5433 1.115-0.7388 2.044-0.6235 2.964 0.1111 0.8859 0.4091 1.547 0.9244 2.051l0.2873 0.2807 0.03571-0.2169c0.1383-0.8389 0.1836-1.05 0.2952-1.374 0.1593-0.4631 0.5151-1.101 0.7221-1.295 0.1908-0.1788 0.1728-0.216 0.3647 0.7449 0.07245 0.3628 0.1901 0.8089 0.2615 0.9915 0.3051 0.7795 1.118 1.81 1.388 1.759 0.1224-0.02341 0.1899-0.3828 0.1994-1.062 0.003083-0.2218 0.05117-0.6103 0.1071-0.8636 0.1277-0.578 0.5451-1.462 0.776-1.643 0.2046-0.1609 0.1688-0.2139 0.4328 0.6391 0.2998 0.9689 0.5694 1.454 1.078 1.938 0.4697 0.447 1.203 0.8831 1.249 0.7432 0.01374-0.04122-0.01467-0.2368-0.06315-0.4344-0.1111-0.4528-0.1087-1.944 0.003967-2.47 0.09055-0.4225 0.229-0.7356 0.325-0.7356 0.0341 0 0.8179 0.7375 1.742 1.639 0.9238 0.9013 1.917 1.83 2.208 2.063 0.6873 0.5516 1.551 1.074 1.983 1.2 0.6169 0.1793 0.7425 0.06719 2.067-1.847 1.012-1.464 1.656-2.341 1.829-2.494 0.1239-0.1094 0.1396-0.07374 0.9032 2.047 0.4274 1.187 1.027 2.864 1.332 3.726 0.3052 0.862 0.8418 2.316 1.192 3.231 0.3504 0.9148 0.7421 1.96 0.8705 2.323l0.2334 0.6602-0.1736 0.1395c-0.5487 0.4412-7.426 3.904-10.09 5.083-2.139 0.9449-5.474 1.974-8.38 2.586 0 0-0.6985 0.1064-1.054 0.1732-0.3279 0.06162-0.8653 0.09943-1.687 0.1048-1.556 0.01019-3.428-0.1224-5.19-0.5548-1.446-0.3548-2.125-0.6793-3.392-1.621-0.8982-0.6671-1.058-0.7634-1.189-0.7135-0.2813 0.108 0.1843 1.339 0.8298 2.194 1.388 1.838 4.119 2.905 8.479 3.313 3.886 0.3637 7.866-0.2934 13.69-2.26 2.569-0.8669 5.857-2.177 8.748-3.486 0.744-0.3368 1.423-0.6299 1.508-0.6513 0.1706-0.04283 0.07439-0.1463 1.967 2.114 1.253 1.496 3.517 3.749 4.514 4.491 2.318 1.725 4.627 2.774 7.86 3.571 1.496 0.3684 2.096 0.4699 3.263 0.5521 1.163 0.08196 3.518 0.02704 4.222-0.09852 1.605-0.2865 3.13-0.8542 4.62-1.721 2.826-1.643 5.01-4.324 5.483-6.731 0.2415-1.23 0.2439-2.934 0.00595-3.966-0.6568-2.85-2.532-5.18-5.279-6.558-1.838-0.9223-4.253-1.607-6.301-1.786-0.9839-0.08612-4.021-0.0875-5.182-0.002316-2.571 0.1887-5.475 0.8816-8.211 1.959-0.8182 0.3222-1.064 0.3954-1.104 0.33-0.1762-0.2842-1.704-8.118-1.642-8.419 0.02535-0.1231 0.801 0.8914 2.131 2.789 0.9695 1.383 1.133 1.548 1.535 1.548 0.8582 0 1.914-0.7647 4.384-3.174 1.389-1.355 1.765-1.688 1.907-1.688 0.03714 0 0.1296 0.1943 0.2056 0.4318 0.1918 0.5991 0.2434 1.974 0.0972 2.597-0.05652 0.2405-0.08666 0.4634-0.06679 0.4956 0.1859 0.3007 1.491-0.7624 1.879-1.53 0.2432-0.4818 0.5809-1.47 0.5809-1.699 0-0.2199 0.1516-0.2169 0.3594 0.007268 0.4027 0.4345 0.7922 1.617 0.7922 2.404 0 0.4707 0.1289 1.073 0.2384 1.115 0.2052 0.07876 0.9592-0.864 1.325-1.656 0.2213-0.4794 0.4202-1.275 0.4202-1.682 0-0.2934 0.1189-0.2948 0.3743-0.003966 0.396 0.451 0.7131 1.271 0.9122 2.358l0.06844 0.3736 0.1594-0.1498c0.2916-0.2736 0.6617-0.911 0.8222-1.416 0.1331-0.4191 0.1582-0.6242 0.1574-1.279-0.001196-0.9906-0.1013-1.416-0.5521-2.348-0.1959-0.4046-0.4498-1.014-0.5644-1.355-0.2474-0.7353-0.4434-1.087-0.8236-1.478-0.6512-0.67-1.266-0.9083-2.618-1.014-1.851-0.1451-3.918 0.1133-4.647 0.5812-0.4011 0.2574-1.098 0.986-2.45 2.562-0.6186 0.7213-1.239 1.422-1.379 1.557l-0.2546 0.245-0.1279-0.1808c-0.2142-0.3031-0.6394-1.192-0.7462-1.561-0.05542-0.1912-0.1444-0.6643-0.198-1.051-0.3298-2.38-1.492-3.474-3.884-3.659l-0.5091-0.03935 0.04298-0.7419c0.03596-0.6196 0.1241-1.221 0.1789-1.222 0.007441-8.3e-5 0.4449-0.04348 0.972-0.09654 2.251-0.2266 3.565-0.5415 5.279-1.265 2.307-0.9735 4.737-2.203 8.156-4.127 3.742-2.106 5.571-2.908 7.535-3.306 0.6765-0.137 0.9712-0.1613 1.945-0.1613 0.6312 0 1.319 0.03013 1.527 0.06711 1.121 0.1985 2.289 0.7833 2.857 1.43 0.2131 0.2426 0.3307 0.5882 0.4695 1.382 0.1836 1.05 0.3369 1.004 0.4966-0.1481 0.0596-0.4299 0.1535-0.8394 0.2179-0.9499 0.1143-0.1962 0.5146-0.4296 1.363-0.7951 0.4052-0.1745 0.4432-0.3 1.891-0.3352 0.6238-0.0152 0.993-0.0492 1.551 0.1012 1.581 0.4264 2.728 1.09 3.753 1.945 0.8961 0.7473 2.546 2.403 2.705 2.713 0.1557 0.3051 0.2872 0.7988 0.4252 1.595 0.05485 0.3167 0.1524 0.7483 0.2169 0.9594l0.1174 0.3838 0.07142-0.3197c0.0392-0.1759 0.08856-0.6796 0.1098-1.119 0.05027-1.043 0.08971-1.156 0.5006-1.428 0.4548-0.3009 1.513-0.8235 2.079-1.027 1.306-0.4693 2.885-0.3311 4.015 0.3514 1.247 0.7529 2.523 2.339 3.514 4.367 1.027 2.101 1.962 5.191 2.682 8.86 0.4262 2.172 0.4384 1.77-0.1286 4.294-0.2727 1.214-0.5025 2.282-0.5105 2.374-0.00794 0.09204-0.03297 0.2648-0.05554 0.3838l-0.041 0.2162 0.1061-0.1918c0.05833-0.1056 0.1438-0.2357 0.1901-0.289 0.2461-0.2831 1.038-2.654 1.655-4.957 1.029-3.838 1.78-7.373 2.271-11.61 0.05572-0.4257 0.1479-1.636 0.1461-2.5 0.08274-2.551 0.06127-3.345-0.09456-7.035-0.00888 0-0.0675-0.4218-0.1306-0.9373-0.3145-2.569-0.9639-5.113-2.133-8.355-1.632-4.525-3.919-8.229-7.496-12.14-1.578-1.724-3.338-3.284-6.589-5.841-0.3938-0.3096-0.7161-0.5865-0.7161-0.6156s0.09007-0.07091 0.2-0.0929c0.2953-0.05907 2.315-0.04656 3.958 0.02446 2.367 0.1023 3.563 0.1258 3.39 0.06678-1.735-0.5925-4.012-0.8659-7.837-0.9406-2.829-0.05526-5.629 0.09169-8.045 0.4222-1.635 0.2237-1.591 0.2224-2.12 0.06513-0.4786-0.1421-0.49-0.1425-1.045-0.03405-0.6607 0.1292-2.202 0.5095-5.583 1.378-1.355 0.348-2.589 0.6521-2.744 0.6761l-0.2813 0.04364 0.04132-0.206c0.1661-0.8303 2.2-3.331 4.236-5.209 0.7932-0.7315 1.138-1.088 1.073-1.11zm-62.68 0.8811c0.03503 0 0.3236 0.1534 0.6414 0.3412 2.006 1.185 3.213 2.382 4.381 4.341l0.5078 0.8517-0.2417 0.0443c-0.1328 0.02436-0.3864 0.04591-0.5634 0.04794l-0.3217 0.003968-0.245-0.4959c-0.6186-1.253-1.432-2.308-3.006-3.902-0.6689-0.6773-1.188-1.232-1.153-1.232zm61.29 0.02414c0.07618-0.002707-0.1631 0.2451-1.036 1.135-0.6688 0.6817-1.4 1.47-1.626 1.751-0.5478 0.6837-1.244 1.746-1.496 2.282l-0.2043 0.4348-0.5171 0.001322c-0.5558 0.001362-0.6148-0.0182-0.5541-0.1812 0.08219-0.2207 0.9118-1.552 1.263-2.027 0.9611-1.3 2.472-2.555 4.001-3.325 0.08361-0.04209 0.1442-0.07084 0.1696-0.07174zm-33.41 1.215c0.0112 6.05e-4 0.01822 0.0021 0.02083 0.004628 0.009635 0.009341-0.1507 0.07842-0.3564 0.1534-1.392 0.5076-3.279 2.127-4.783 4.104-0.4216 0.5544-0.9755 1.102-1.317 1.301-0.1531 0.08941-0.4942 0.2391-0.7581 0.3326-0.5731 0.2032-0.9548 0.4109-1.344 0.7313-0.1583 0.1305-0.3506 0.2706-0.4275 0.3114-0.3249 0.1727-1.306-0.0321-1.61-0.3362-0.217-0.217-0.1998-1.128 0.03042-1.613 0.1542-0.3249 0.7742-0.9747 1.327-1.391 1.698-1.278 4.652-2.593 7.281-3.241 0.6779-0.1672 1.768-0.3665 1.936-0.3574zm-0.7928 0.6655c0.005944-5.94e-4 0.007025 0.00226 0.003308 0.008596-0.01487 0.02534-0.1086 0.1087-0.2946 0.2724-1.216 1.071-2.168 2.252-2.479 3.074-0.09647 0.2558-0.1756 0.485-0.1759 0.5095s0.1364 0.004419 0.3035-0.04496c0.1671-0.04938 0.6522-0.1632 1.078-0.2529 0.4259-0.08969 1.088-0.262 1.472-0.3829 1.671-0.527 3.64-0.7564 4.981-0.5806 0.4194 0.05498 1.11 0.1176 1.534 0.1395 1.414 0.0731 2.914 0.5874 3.871 1.327 0.2626 0.2029 0.558 0.4106 0.6566 0.4615 0.2566 0.1327 0.911 0.9825 1.196 1.553 0.3105 0.6218 0.4143 0.9545 0.5792 1.862 0.07353 0.4046 0.1599 0.8511 0.1921 0.9918 0.1598 0.6987 0.1154 2.127-0.121 3.902-0.168 1.262-0.3375 2.071-0.7112 3.39-0.1693 0.5981-0.525 1.894-0.7902 2.879-0.2652 0.9852-0.575 2.036-0.6887 2.335-0.2017 0.5308-0.2065 0.5692-0.2103 1.6-0.002988 0.8249 0.0209 1.146 0.1101 1.469 0.1753 0.6353 0.5199 1.435 0.8394 1.947l0.2893 0.4639-0.3134 1.946c-0.1723 1.07-0.3851 2.277-0.4731 2.682-0.284 1.306-0.74 3.2-1.069 4.438-0.3973 1.497-0.532 2.301-0.692 4.135-0.2005 2.299-0.1563 6.557 0.09026 8.676 0.148 1.271 0.8806 5.33 1.471 8.149 0.2139 1.022 0.6179 2.527 0.8715 3.246 1.037 2.941 3.864 6.576 6.468 8.319 0.7166 0.4795 1.538 0.961 1.99 1.166 1.259 0.571 3.608 1.149 5.247 1.291 0.9337 0.08089 2.759-0.009174 3.516-0.1732 1.015-0.2198 2.107-0.6972 3.105-1.358 1.809-1.197 2.841-2.951 3.15-5.357 0.1553-1.208-0.1452-2.687-0.8173-4.022-0.1214-0.2411-0.204-0.4549-0.1838-0.4751 0.02015-0.02015 0.3475 0.2778 0.7277 0.6622 1.469 1.485 2.334 3.28 2.574 5.339 0.1306 1.124-0.02885 2.64-0.3931 3.738-0.3885 1.172-1.216 2.46-2.265 3.526-1.405 1.427-3.174 2.241-5.553 2.551-0.8083 0.1056-2.424 0.1187-3.403 0.02777-1.605-0.1491-3.317-0.5183-4.243-0.9155-1.981-0.8497-3.286-1.78-5.25-3.745-2.596-2.596-3.11-3.3-4.608-6.304-0.8138-1.632-1.116-2.303-1.209-2.689-0.06874-0.2824-0.3557-1.117-0.6374-1.855-0.582-1.524-0.6518-1.75-0.6523-2.114-1.98e-4 -0.1431-0.128-0.6967-0.2843-1.231-0.3772-1.288-0.5745-2.427-0.562-3.243 0.006827-0.4472-0.05618-1.073-0.2089-2.079-0.4153-2.735-0.4817-3.346-0.4407-4.048 0.02777-0.475-0.001126-1.004-0.1061-1.933-0.1624-1.438-0.1844-2.352-0.07704-3.199 0.04017-0.3167 0.1052-1.065 0.1445-1.663 0.07128-1.086 0.3012-2.658 0.4771-3.263 0.0512-0.1759 0.1482-0.354 0.2159-0.3957 0.08473-0.0523 0.1567-0.2317 0.2308-0.5759 0.05913-0.2749 0.2341-1.032 0.3891-1.683 0.3437-1.443 0.43-1.935 0.6054-3.455 0.09546-0.8271 0.1738-1.256 0.2602-1.425 0.1151-0.2252 0.1235-0.3906 0.1217-2.399-0.001407-1.52-0.03036-2.384-0.09786-2.925-0.2507-2.009-0.3304-4.845-0.1627-5.79 0.04683-0.2639 0.1518-0.6395 0.2334-0.8351 0.1019-0.2442 0.2412-0.9561 0.444-2.271 0.1625-1.053 0.3507-2.102 0.4186-2.331 0.3114-1.05 0.3215-2.103 0.03372-3.55-0.3626-1.824-1.056-2.692-2.843-3.559-0.8091-0.3926-0.9872-0.4546-1.472-0.5118-0.6271-0.07407-2.112-0.02414-3.189 0.1071-1.029 0.1253-4.645 1.07-5.006 1.308-0.08089 0.05331-0.06857 0.08588 0.07869 0.208 0.09608 0.07965 0.2167 0.2479 0.2681 0.3739 0.1402 0.3433 0.1896 1.114 0.1022 1.594-0.1569 0.8608-0.5529 1.316-1.767 2.032-1.001 0.5902-1.205 0.756-2.613 2.125-0.6492 0.631-1.34 1.253-1.534 1.382-0.4147 0.2754-0.6229 0.2753-1.224 0-0.3652-0.1672-0.3651-0.1673-0.244-0.3028 0.06668-0.07459 0.4378-0.402 0.8249-0.7277 1.412-1.188 2.076-1.971 2.569-3.026 0.2656-0.5691 0.278-0.6233 0.278-1.191 0-0.3269-0.01867-0.7316-0.04166-0.8993l-0.04166-0.3048-0.3739 0.03901c-0.645 0.06742-1.839 0.5831-3.069 1.325-0.8829 0.533-2.147 1.189-2.577 1.337-0.5075 0.1746-0.9197 0.2196-1.233 0.1352-0.3782-0.1018-0.871-0.5694-1.109-1.053-0.1816-0.3689-0.1951-0.4425-0.1779-0.9694l0.01884-0.5703 0.288-0.1094c0.1583-0.06027 0.6033-0.1846 0.9889-0.2761 0.9195-0.218 1.526-0.514 2.004-0.9783 0.2081-0.2021 0.4247-0.4367 0.481-0.5214l0.1025-0.1541 0.3604 0.1382c0.2684 0.1027 0.5012 0.1379 0.9112 0.1379 0.3029 0 0.7864 0.03411 1.074 0.07571 0.4624 0.06686 0.5573 0.06247 0.8169-0.0367 0.3738-0.1428 0.5604-0.3666 0.7766-0.9323 0.1065-0.2787 0.2257-0.4799 0.3108-0.525 0.2707-0.1434 1.093-0.9929 1.692-1.748 1.085-1.368 2.695-2.834 3.679-3.352 0.09756-0.05132 0.1581-0.08285 0.1759-0.08464zm6.32 0.4682c0.04876 6.9e-5 0.09312 0.001675 0.1326 0.004629l0.2827 0.02116-0.9224 0.4605c-0.5073 0.2534-1.191 0.6381-1.52 0.8546l-0.5978 0.3938-1.194 0.1524c-0.6564 0.0838-1.205 0.1527-1.219 0.1531-0.06771 0.001956 0.2644-0.3121 0.6976-0.6596 0.6066-0.4865 1.35-0.8375 2.261-1.067 0.7308-0.1841 1.608-0.3144 2.079-0.3138zm42.72 0.9674c1.164 0.001031 2.272 0.04007 3.225 0.1197 1.576 0.1317 1.398 0.1609-1.247 0.206-3.743 0.06379-5.404 0.2016-8.285 0.6877-3.258 0.5498-7.71 1.551-10.36 2.329-0.5431 0.1595-1.052 0.2899-1.13 0.2899-0.107 0-0.1621-0.05676-0.2175-0.2248-0.0408-0.1236-0.1837-0.3631-0.3174-0.5323l-0.243-0.3075 1.704-0.4354c7.329-1.873 7.127-1.829 7.585-1.659 0.4202 0.156 1.052 0.1473 2.291-0.03141 1.854-0.2673 4.249-0.4212 6.493-0.4397 0.1683-0.001391 0.3359-0.002131 0.5022-0.001984zm-90.96 0.002645c0.1743-4.02e-4 0.3483-1.14e-4 0.522 9.92e-4 2.317 0.01474 4.577 0.1631 6.53 0.4374 1.334 0.1873 1.684 0.194 2.175 0.04166 0.3759-0.1164 0.4556-0.1208 0.8285-0.04728 0.4836 0.09536 8.49 2.106 8.566 2.152 0.01233 0.00732-0.06576 0.1233-0.1732 0.2575-0.1075 0.1343-0.2557 0.3807-0.3293 0.5478-0.08772 0.1991-0.1713 0.3018-0.2427 0.2976-0.05993-0.003576-0.368-0.09112-0.6847-0.1944-2.256-0.7358-7.473-1.92-11.2-2.542-2.9-0.4839-4.117-0.5792-8.025-0.6295-1.671-0.02149-2.963-0.05985-2.87-0.0853 0.0929-0.02544 0.6542-0.07772 1.247-0.116 1.204-0.07779 2.434-0.1175 3.654-0.1203zm-0.3703 0.5978c0.04893 6.64e-4 0.1023 0.003002 0.1613 0.006282 3.121 0.1733 5.298 0.4501 8.765 1.115 1.032 0.1979 4.63 0.9965 5.83 1.294 0.7613 0.1888 2.897 0.8033 3.016 0.8679 0.04525 0.0245-0.1851 0.0935-0.5118 0.1534s-0.9972 0.1819-1.49 0.2711c-1.903 0.3446-5.724 1.203-7.773 1.745-4.878 1.291-8.386 2.556-11.93 4.302-2.124 1.046-5.137 2.988-7.4 4.769-1.454 1.145-3.164 2.892-3.858 3.942-0.4116 0.6228-0.401 0.5743 0.198-0.9337 1.607-4.046 3.782-7.407 7.139-11.03 1.609-1.737 3.257-3.205 5.617-5.005 0.699-0.5329 1.342-1.035 1.429-1.115 0.29-0.2687 0.4249-0.3601 0.6735-0.3779 0.04143-0.00296 0.08596-0.00397 0.1349-0.003306zm91.59 0.02546c0.5727-1.4e-5 0.5349-0.01798 1.272 0.6083 0.2111 0.1794 0.8258 0.6685 1.366 1.087 4.1 3.178 7.005 6.251 9.494 10.04 1.359 2.071 2.28 3.871 3.156 6.17 0.1535 0.4026 0.2708 0.7406 0.2605 0.7508-0.01027 0.01027-0.1608-0.1753-0.3342-0.4123-0.4975-0.6797-1.386-1.684-1.995-2.257-2.115-1.986-6.215-4.822-8.955-6.194-1.426-0.7141-3.32-1.532-4.943-2.135-1.491-0.554-4.832-1.624-6.358-2.038-2.395-0.6486-6.448-1.556-9.151-2.049-0.8288-0.1512-1.471-0.2941-1.428-0.3174 0.1693-0.09023 2.817-0.8293 3.758-1.049 4.448-1.038 7.889-1.693 10.24-1.947 1.067-0.1155 3.085-0.2605 3.622-0.2605zm-38.34 0.1276c0.4435 4.52e-4 0.8017 0.01751 0.8596 0.05422 0.05225 0.03316-0.3466 0.2071-1.097 0.4787-0.6484 0.2347-1.232 0.4229-1.297 0.4182-0.1431-0.0102-1.402-0.4529-1.463-0.5148-0.05851-0.05873 0.5196-0.2269 1.177-0.3422 0.2881-0.05055 0.9227-0.08325 1.503-0.09191 0.1088-0.001624 0.2157-0.002419 0.3181-0.002314zm-33.1 1.798c0.04391-7.9e-4 0.08824 1.51e-4 0.1332 0.002645 0.16 0.008868 0.3267 0.03867 0.4982 0.0896 0.2754 0.08179 0.3731 0.1545 0.5799 0.4318 0.385 0.5162 0.4809 0.7423 0.4807 1.133-3.77e-4 0.6363-0.4285 1.184-1.076 1.377-0.6163 0.1839-1.117 0.0468-1.599-0.4381-0.3638-0.366-0.485-0.6614-0.485-1.182 0-0.4245 0.06948-0.5921 0.3901-0.9399 0.2817-0.3056 0.6534-0.4665 1.078-0.4741zm51.28 0c0.06546-4.93e-4 0.138 0.002507 0.2228 0.008597 0.9599 0.06891 1.537 0.7006 1.456 1.594-0.05549 0.6118-0.4414 1.126-1.022 1.361-0.9077 0.3673-1.96-0.1346-2.168-1.034-0.152-0.6586 0.3131-1.52 0.9743-1.804 0.2073-0.08916 0.3399-0.1238 0.5363-0.1253zm-17.15 1.168c0.1678-0.01413 2.381 1.057 2.725 1.322l0.16 0.1236-0.16-0.006943c-0.08796-0.003813-0.589-0.06792-1.113-0.1425l-0.9528-0.1356-0.1395-0.2238c-0.3444-0.5526-0.5483-0.9137-0.5277-0.9343 0.001619-0.001615 0.004575-0.002637 0.008599-0.002975zm-18.16 0.2995c0.01622-3.94e-4 0.03015 9.81e-4 0.04199 0.003968 0.03156 0.007964 0.04728 0.02807 0.04728 0.06017 0 0.03636-0.07346 0.2111-0.1633 0.3885-0.118 0.2329-0.2242 0.3477-0.3819 0.4136-0.2365 0.09881-0.9615 0.1256-1.016 0.03736-0.05891-0.09533 0.303-0.3834 0.815-0.6483 0.3225-0.1669 0.5434-0.2525 0.6569-0.2552zm-17.94 0.1898c0.07669 0 0.1842 0.1482 0.3362 0.4639 0.1228 0.2551 0.2702 0.5274 0.3276 0.605 0.1225 0.1655 0.1673 0.1483-0.8031 0.3101-3.77 0.6285-7.484 1.602-12.54 3.286-4.622 1.54-7.153 2.523-9.564 3.716-2.277 1.127-4.885 2.803-6.592 4.237-1.228 1.032-2.7 2.696-3.51 3.969-0.4533 0.7122-1.18 2.197-1.503 3.071-0.7444 2.013-1.14 3.876-1.293 6.092-0.1096 1.588-0.03102 6.51 0.1303 8.157 0.3599 3.676 0.9303 7.516 1.663 11.2 0.2067 1.038 0.4243 2.142 0.4834 2.453 0.05903 0.3113 0.09506 0.5784 0.08001 0.5935-0.03047 0.03047-0.5583-1.731-0.9036-3.015-0.9606-3.572-1.929-8.927-2.215-12.25-0.1115-1.296-0.1539-5.933-0.06745-7.389 0.162-2.728 0.6317-5.276 1.408-7.638 0.5595-1.703 1.592-3.257 3.298-4.969 1.251-1.255 2.49-2.228 5.023-3.944 1.716-1.162 2.979-1.902 4.574-2.678 2.83-1.377 5.648-2.426 9.852-3.666 1.541-0.4545 4.854-1.25 7.48-1.796 1.72-0.3578 4.121-0.8024 4.334-0.8024zm55.45 0c0.297 0 4.797 0.8822 6.819 1.337 1.39 0.3125 4.929 1.254 6.365 1.693 6.284 1.922 10.21 3.813 14.68 7.078 3.877 2.829 5.755 5.075 6.648 7.952 0.9317 3.001 1.29 5.273 1.381 8.744 0.1107 4.258-0.08968 7.1-0.7988 11.32-0.4493 2.676-1.226 6.085-1.975 8.668-0.56 1.931-0.6397 2.018-0.2321 0.2503 0.1415-0.6133 0.2685-1.223 0.2824-1.355 0.0138-0.1316 0.1859-1.074 0.3825-2.094 0.5172-2.684 1.135-6.893 1.346-9.18 0.3516-3.799 0.375-7.731 0.05951-10.01-0.4355-3.148-1.388-5.814-2.896-8.103-1.084-1.646-2.286-2.921-4.038-4.283-1.346-1.047-4.078-2.778-5.501-3.485-3.721-1.849-10.38-4.226-16.31-5.822-1.878-0.5052-5.642-1.318-6.543-1.413-0.2034-0.02136-0.3821-0.05848-0.3971-0.08265-0.01494-0.02418 0.0444-0.1493 0.1319-0.278 0.08752-0.1288 0.2198-0.3928 0.2939-0.5865 0.1163-0.304 0.1579-0.3524 0.3035-0.3524zm-26.07 0.06414c0.6817 0 1.333 0.01875 1.448 0.04166l0.2083 0.04166-0.041 0.4543c-0.02241 0.2498-0.1021 0.9075-0.1772 1.462-0.1506 1.111-0.1283 1.077-0.5901 0.9075-0.2407-0.08825-0.9723-0.2333-1.591-0.3154l-0.3042-0.04034-3.33e-4 -0.364c-3.07e-4 -0.2002-0.04338-0.7236-0.09555-1.163-0.05216-0.4398-0.0949-0.8499-0.09521-0.9115-5.12e-4 -0.1028 0.1008-0.1121 1.239-0.1121zm-1.794 0.06976c0.2428-0.003351 0.2386 0.1249 0.2942 0.49 0.111 0.7284 0.2387 1.999 0.2043 2.033-0.01636 0.01636-0.2193 0.03039-0.451 0.03108-0.2316 6.84e-4 -0.7377 0.04375-1.125 0.09555-0.387 0.0518-0.7228 0.09426-0.7459 0.09456-0.02309 2.95e-4 -0.06059-0.1505-0.08365-0.3352s-0.09776-0.6585-0.166-1.053c-0.0682-0.3942-0.124-0.7572-0.124-0.807 0-0.1064 0.4333-0.2351 1.427-0.4238 0.3899-0.07407 0.6243-0.1236 0.77-0.1256zm3.785 0.2638c0.03634-0.001826 0.2519 0.0693 0.5009 0.166 0.9492 0.3686 1.878 1.212 2.309 2.095 0.1292 0.2651 0.2195 0.5309 0.2004 0.5908-0.01917 0.05995-0.5288 0.4356-1.132 0.8345-1.22 0.8062-1.259 0.8273-1.295 0.7045-0.1469-0.4994-0.2901-0.752-0.6341-1.12l-0.3878-0.4146 0.2056-1.416c0.1131-0.7789 0.2159-1.427 0.2285-1.439 7.87e-4 -7.85e-4 0.002533-0.0012 0.004958-0.001323zm-6.392 0.3171c0.00245 1.6e-5 0.004446 4e-5 0.005956 3.31e-4 0.06752 0.013 0.1298 0.1091 0.1594 0.245 0.08219 0.3784 0.3072 1.941 0.283 1.966-0.01256 0.01257-0.4655 0.1237-1.006 0.247-0.5409 0.1232-1.062 0.2408-1.159 0.2612l-0.1759 0.03703-9.92e-4 -0.5997c-7.42e-4 -0.5851-0.09282-1.096-0.2509-1.392-0.04311-0.08056-0.06808-0.1567-0.05554-0.1693 0.06008-0.06008 2.046-0.5961 2.201-0.5951zm29.37 0.7574c0.1417-0.008995 1.919 4.989 2.388 6.716 0.2855 1.051 1.188 4.983 1.476 6.429 0.105 0.5278 0.1825 1.036 0.1722 1.13l-0.01852 0.1713-0.16-0.1309c-0.08796-0.07199-0.4394-0.3295-0.7809-0.572-0.5553-0.3942-0.6255-0.4661-0.6622-0.6797-0.1699-0.9894-1.442-6.362-1.856-7.838-0.2964-1.057-1.343-4.032-1.588-4.513-0.04767-0.09376-0.1065-0.2352-0.1309-0.3144-0.03917-0.127-0.02196-0.1438 0.1461-0.1438 0.1048 0 0.3731-0.05737 0.5961-0.1273 0.223-0.06992 0.4114-0.1275 0.4186-0.1279zm-53.21 0.07538c0.02604 0.001302 0.05617 0.007289 0.09323 0.01488 0.1093 0.02237 0.3911 0.07586 0.6265 0.119l0.4281 0.07869-0.2245 0.5115c-0.4799 1.094-0.9247 2.405-1.648 4.861-0.3704 1.257-1.22 4.694-1.543 6.237-0.2479 1.187-0.3242 1.456-0.4354 1.535-0.07417 0.05278-0.4077 0.2905-0.7412 0.528s-0.6312 0.4318-0.6612 0.4318c-0.06801 0-0.05052-0.09908 0.3759-2.143 0.4774-2.288 0.9366-4.259 1.303-5.593 0.4467-1.627 1.437-4.497 2.094-6.065 0.1695-0.4048 0.2132-0.5072 0.3078-0.5161 0.007881-7.42e-4 0.01612-7.65e-4 0.0248-3.3e-4zm-0.6328 0.05852c0.09796 3.39e-4 0.125 0.021 0.125 0.05786 0 0.03551-0.1127 0.3308-0.2506 0.6559-0.3173 0.7484-1.273 3.395-1.529 4.237-0.5104 1.674-0.7307 2.583-1.976 8.15l-0.2347 1.049-0.85-0.03571c-0.9643-0.04043-2.303 0.03401-3.212 0.1785-1.686 0.2681-3.847 0.9544-5.354 1.7-2.954 1.462-4.783 3.673-5.948 7.191-0.6537 1.975-0.9127 3.21-1.084 5.175-0.05196 0.5945-0.1045 1.091-0.1167 1.103-0.01222 0.01222-0.3279-0.1615-0.7019-0.3862-2.309-1.387-4.326-1.48-6.169-0.2837-0.2745 0.1782-0.7875 0.6149-1.142 0.972-1.978 1.995-3.571 5.722-4.733 11.08-0.09163 0.4222-0.2178 1.128-0.2804 1.567-0.1098 0.7725-0.116 0.7911-0.1828 0.5439-0.1485-0.5495-0.4079-2.042-0.9065-5.214-0.4172-2.654-0.6044-4.325-0.7816-6.973-0.1087-1.625-0.1101-6.088-0.001984-7.037 0.3386-2.973 0.8438-4.837 1.905-7.03 1.411-2.915 3.618-5.284 6.871-7.376 3.255-2.092 4.966-2.915 9.788-4.709 3.575-1.33 7.264-2.489 10.91-3.427 2.211-0.5694 2.74-0.685 4.574-1 0.6074-0.1043 0.9591-0.161 1.159-0.1792 0.05-0.004543 0.09067-0.006725 0.1233-0.006612zm54.36 0.01289c0.1251-0.01168 0.5392 0.05413 1.849 0.2734 1.469 0.2458 1.958 0.3553 4.24 0.9495 2.528 0.658 4.095 1.126 7.229 2.159 1.642 0.5413 4.485 1.561 5.428 1.948 0.3043 0.1247 0.9131 0.3717 1.353 0.5488 1.087 0.4377 3.579 1.658 4.478 2.193 1.316 0.783 3.296 2.122 4.135 2.796 0.9552 0.7675 2.194 1.976 2.774 2.707 0.6537 0.8235 1.519 2.179 1.918 3.007 0.9689 2.007 1.4 3.486 1.837 6.301 0.1496 0.9632 0.1666 1.277 0.1941 3.587 0.03509 2.954-0.02268 4.154-0.3356 6.957-0.3956 3.545-0.613 5.049-1.131 7.833-0.1818 0.9764-0.3483 1.775-0.37 1.775s-0.1063-0.3663-0.1881-0.814c-0.4623-2.529-1.407-5.949-2.18-7.886-0.674-1.691-1.906-3.692-2.859-4.645-0.3734-0.3735-1.148-0.9648-1.572-1.2-0.7377-0.4093-1.233-0.5204-2.286-0.5134-0.831 0.005457-0.9844 0.02446-1.472 0.1835-0.5782 0.1888-1.73 0.7416-2.287 1.097l-0.3359 0.2146-0.00199-0.3028c-0.00898-1.365-0.7683-5.123-1.309-6.476-1.144-2.867-2.504-4.655-4.563-6.004-2.52-1.65-6.629-2.74-9.771-2.593l-0.8993 0.04199-0.3025-1.494c-0.3865-1.908-1.189-5.332-1.521-6.489-0.4035-1.406-0.9208-2.943-1.536-4.564-0.3119-0.8213-0.5673-1.521-0.5673-1.555 0-0.01826 0.009872-0.03082 0.05158-0.03472zm-42.78 1.386c-0.02009 2.44e-4 -0.04052 0.001265-0.06083 0.003307-0.05417 0.005444-0.1083 0.01762-0.158 0.0367-0.1505 0.05775-0.3433 0.4067-0.4215 0.7634-0.03834 0.1748-0.08448 0.3753-0.1028 0.4457-0.02222 0.08526 0.04794 0.03922 0.2103-0.1382 0.134-0.1465 0.3672-0.3422 0.5184-0.4348 0.2989-0.1829 0.4155-0.3861 0.323-0.5627-0.0386-0.07367-0.1679-0.1151-0.3085-0.1134zm-0.0648 0.2575c0.001056-5.5e-5 0.00194 0 0.002975 0 0.03311 0 0.06017 0.02862 0.06017 0.06381s-0.04499 0.06414-0.09984 0.06414-0.08192-0.02895-0.06017-0.06414c0.02107-0.03409 0.06411-0.0621 0.09687-0.06381zm18.21 0.01256c0.1094-1.38e-4 0.5584 0.268 0.7965 0.483 0.2534 0.229 0.629 0.8009 0.6302 0.9598 3.32e-4 0.04398-0.02122 0.07983-0.04761 0.07968-0.05409-3.07e-4 -0.4859-0.2845-0.7313-0.4814-0.1666-0.1337-0.7167-0.9863-0.6678-1.035 0.004063-0.004062 0.0109-0.00594 0.02017-0.005951zm-13.66 0.2853c0.01223-2.48e-4 0.02349 0.00203 0.03471 0.006943 0.0449 0.01965 0.08717 0.08288 0.1706 0.2089 0.1812 0.2737 0.1581 0.2897-0.2443 0.1683-0.317-0.09564-0.3532-0.1998-0.1124-0.3243 0.07035-0.03638 0.1147-0.0591 0.1514-0.05984zm17.84 0.1696c0.01092-8.08e-4 0.02017 2.62e-4 0.0281 0.002644 0.01208 0.003631 0.02136 0.01082 0.03008 0.01984 0.103 0.1066 0.2614 1.027 0.2956 1.717 0.03914 0.7904-0.08605 1.578-0.281 1.769-0.0619 0.06057-0.6737 0.3308-1.36 0.6004-1.726 0.6783-1.727 0.6787-1.727 0.5868 2.18e-4 -0.04242 0.08503-0.3713 0.1888-0.731 0.1884-0.6531 0.3865-1.786 0.3865-2.21 0-0.22 0.02212-0.2389 1.072-0.9261 0.9886-0.6474 1.262-0.8204 1.367-0.8282zm3.039 0.2427c0.04108-0.00723 1.223 1.217 1.438 1.49 0.07213 0.0917 0.1073 0.1652 0.07835 0.1633-0.02894-0.0019-0.3729-0.1189-0.7644-0.2599l-0.7118-0.2562-0.03108-0.5558c-0.01702-0.3058-0.02107-0.5675-0.009258-0.5812 1.86e-4 -2.11e-4 3.39e-4 -2.73e-4 6.65e-4 -3.3e-4zm-22.31 0.4358 0.07703 0.1468c0.04232 0.08068 0.1617 0.2545 0.2652 0.3865 0.1879 0.2398 0.1879 0.2399 0.03868 0.2361-0.2606-0.006634-0.9171-0.2778-0.9171-0.3789 0-0.05194 0.1206-0.161 0.2681-0.2423zm15.6 0.1974c0.07368 0 0.8582 0.5596 0.9191 0.6556 0.1212 0.1908-0.03122 1.239-0.3343 2.299-0.1014 0.3549-0.196 0.6569-0.2099 0.6708-0.06985 0.06986-0.6186-1.002-0.6186-1.208 0-0.08018 0.04272-0.3472 0.09489-0.5935s0.0956-0.7574 0.09621-1.136c6.14e-4 -0.3782 0.02425-0.6877 0.05256-0.6877zm-17.15 0.6668c0.04346-1.76e-4 0.06727 0.01545 0.08596 0.04496 0.03066 0.0484 0.05633 0.1213 0.05687 0.162 5.38e-4 0.04065 0.1017 0.1945 0.2248 0.3419s0.2242 0.2797 0.2242 0.2939c0 0.03587 0.01501 0.04014-0.448-0.1256-0.6138-0.2198-0.8956-0.3474-0.8956-0.4053 0-0.02836 0.176-0.1199 0.3911-0.2033 0.1614-0.06259 0.2617-0.09645 0.3273-0.1058 0.0123-0.001751 0.02336-0.002604 0.03339-0.002645zm16.69 2.312c0.0235 4.65e-4 0.05058 0.02639 0.09258 0.06943 0.06354 0.06512 0.23 0.3313 0.37 0.5911 0.2516 0.4671 0.2537 0.4759 0.1686 0.7677-0.2171 0.7444-0.4691 1.747-0.4288 1.707 0.02454-0.02453 0.2062-0.4492 0.4037-0.9439 0.3305-0.828 0.3763-0.9065 0.5753-0.9902 0.5844-0.2457 2.889-1.116 2.907-1.098 0.03244 0.03245-0.4652 3.369-0.5776 3.872-0.02602 0.1165-0.1541 0.1779-0.7508 0.361-0.3956 0.1214-1.244 0.3827-1.885 0.5806-0.6411 0.1978-1.207 0.3759-1.258 0.3954-0.06453 0.02476-0.1935-0.1355-0.4265-0.5293-0.5321-0.8994-0.9561-1.717-0.9561-1.844 0-0.06435 0.2005-0.384 0.4457-0.7102 0.4906-0.6527 1.005-1.513 1.183-1.978 0.0555-0.1453 0.08508-0.2193 0.1147-0.2427 0.007408-0.005845 0.01498-0.00842 0.02281-0.008265zm6.753 0.8064c0.003538-1.22e-4 0.007389 4.17e-4 0.01124 0.001322 0.06159 0.01449 0.1629 0.1604 0.3227 0.4424 0.1644 0.2901 0.291 0.5477 0.2813 0.572-0.009673 0.02431-0.1687-0.05706-0.3534-0.1805-0.3147-0.2103-0.3358-0.2408-0.3349-0.487 8.57e-4 -0.2289 0.01992-0.3463 0.07307-0.3481zm-8.82 2.485c0.05316-5.82e-4 0.06867 0.02392 0.9006 1.439 0.4575 0.7781 0.5457 0.8927 0.6728 0.8745 0.08049-0.01151 0.8853-0.2449 1.788-0.5187 2.081-0.631 2.013-0.6146 1.968-0.4701-0.2306 0.7469-0.3323 3.074-0.1742 3.985 0.07175 0.4135 0.07112 0.4168-0.1041 0.562-0.09693 0.0803-1.184 0.7882-2.415 1.573-1.231 0.7849-2.272 1.446-2.313 1.469-0.04315 0.02467-0.3758-0.2815-0.805-0.7412-0.933-0.9993-2.465-2.722-2.595-2.916-0.09464-0.1424-0.07897-0.19 0.3253-0.9915 0.5586-1.108 2.594-4.262 2.75-4.264zm-1.314 1.241c0.01287 0.01286-0.1675 0.319-0.401 0.6801-0.5174 0.7999-1.172 1.946-1.508 2.641-0.186 0.3846-0.2493 0.5958-0.2493 0.8295 0 0.2196-0.07906 0.5084-0.2635 0.9631-0.4037 0.9953-1.558 4.169-1.726 4.744-0.1133 0.3888-0.1506 0.6808-0.1551 1.215-0.003263 0.387-0.04199 1.102-0.08629 1.589-0.06205 0.6814-0.06464 1.196-0.01124 2.239 0.1243 2.428 0.2096 3.3 0.3571 3.653 0.05528 0.1323 0.1185 0.9416 0.1855 2.373 0.1281 2.739 0.2161 3.851 0.3214 4.058 0.1309 0.2565 0.1531 0.4363 0.2906 2.369 0.1585 2.227 0.2266 2.77 0.3898 3.112 0.1637 0.3429 0.3661 1.186 0.7974 3.317 0.3947 1.951 0.5098 2.401 0.6384 2.501 0.0494 0.03835 0.3196 0.9656 0.6007 2.061 0.2811 1.095 0.5666 2.1 0.6344 2.233 0.06785 0.1332 0.3122 0.8757 0.5429 1.65 0.4596 1.542 0.9254 2.745 1.351 3.486 0.1513 0.2639 0.4532 0.8355 0.6708 1.27 0.2177 0.4347 0.3821 0.8042 0.3653 0.8209-0.07185 0.07185-1.557-2.844-2.076-4.074-1.179-2.797-3.209-8.52-4.203-11.84-0.7633-2.554-1.35-6.235-1.723-10.8-0.3659-4.484-0.386-4.894-0.3868-7.837-4.35e-4 -1.583 0.02252-3.041 0.05092-3.24 0.04458-0.3116 0.09959-0.4165 0.4043-0.7677 0.484-0.5577 0.8834-1.216 1.125-1.854 0.2019-0.5331 0.2031-0.5445 0.2384-2.045l0.03537-1.509 1.884-1.928c1.036-1.061 1.894-1.918 1.907-1.905zm29.55 2.828 0.4972 0.3098c1.156 0.7203 2.288 1.874 2.435 2.482l0.04265 0.1759-0.7267-0.006942c-0.7426-0.007165-0.9657-0.03578-1.75-0.2225-0.4977-0.1185-1.087-0.3606-1.261-0.5187-0.1581-0.1431-0.1434-0.4387 0.04728-0.9452 0.1989-0.5283 0.3603-0.8403 0.5617-1.086zm-57.51 0.01951 0.2235 0.3703c0.2673 0.4427 0.5281 1.05 0.5882 1.37 0.06775 0.3611-0.0875 0.5956-0.4946 0.7465-0.5444 0.2018-1.435 0.3847-2.224 0.4569-1.025 0.09377-1.024 0.09402-1.023-0.07604 9.35e-4 -0.224 0.3444-0.7697 0.7733-1.228 0.4053-0.4333 1.342-1.174 1.859-1.469zm36.36 0.2949c0.07502-0.001284 0.3229 0.04038 0.5984 0.1018 2.008 0.4479 6.228 1.171 9.824 1.684 2.363 0.337 2.808 0.4383 2.808 0.6401 0 0.04917 0.0715 0.1744 0.159 0.2784l0.159 0.1891-0.4953 0.4715c-0.4711 0.4484-0.5518 0.4963-1.646 0.9766-0.6331 0.2778-1.461 0.6454-1.839 0.8166-0.3783 0.1712-0.9396 0.3808-1.247 0.4655-1.069 0.2942-3.889 0.9245-4.302 0.9618-1.206 0.1087-1.849 0.06638-2.46-0.1623-0.4847-0.1813-0.8601-0.5316-1.251-1.167-0.75-1.219-1.044-2.688-0.8024-4.01 0.07996-0.4379 0.3605-1.171 0.4751-1.242 0.003244-2e-3 0.01045-0.003122 0.02116-0.003305zm-12.8 0.4781c0.1533-2.3e-4 0.1738 0.03088 0.238 0.3673 0.1155 0.6046 0.1547 1.613 0.08398 2.16-0.1498 1.158-0.6285 2.144-1.489 3.065-0.5314 0.569-0.7801 0.714-1.443 0.8408-0.5892 0.1127-1.526 0.1088-2.292-0.009584-1.246-0.1925-3.837-0.9185-4.847-1.359-3.194-1.391-2.981-1.283-3.512-1.79l-0.4906-0.4685 0.1078-0.2407c0.05928-0.1324 0.1506-0.3039 0.203-0.3812 0.1047-0.1543-0.0951-0.12 4.35-0.7469 2.055-0.2899 3.932-0.5882 7.229-1.149 0.9324-0.1587 1.771-0.2885 1.863-0.2886zm-27.59 0.2698c0.1162-0.00112 0.2341-7.12e-4 0.3508 9.92e-4 0.7002 0.01022 1.364 0.06767 1.434 0.1379 0.02162 0.02162-0.05319 0.1473-0.1663 0.279-0.1131 0.1318-0.3247 0.4193-0.4701 0.6387-0.3081 0.4651-0.2339 0.4423-1.617 0.4926-1.682 0.06118-2.974 0.3039-4.51 0.847-0.5454 0.1928-1.257 0.4753-1.581 0.6278-1.359 0.6402-2.958 1.692-3.697 2.432-1.596 1.598-2.825 4.49-3.808 8.955-0.1006 0.4574-0.2121 0.9466-0.2476 1.087-0.0355 0.1407-0.09374 0.4-0.1293 0.5759-0.08357 0.4138-0.02892-1.898 0.06579-2.783 0.2482-2.32 1.167-5.342 2.145-7.053 0.9473-1.657 2.531-3.246 4.117-4.132 0.4862-0.2714 1.759-0.8147 2.527-1.079 1.601-0.5507 3.721-0.9634 5.246-1.021 0.1105-0.004169 0.225-0.006816 0.3412-0.007935zm65.39 0.02248c1.459 0.002009 2.117 0.08065 3.732 0.4453 3.908 0.8822 6.707 2.654 8.34 5.28 1.395 2.243 2.336 5.539 2.564 8.984 0.05057 0.7634 0.01009 1.623-0.06778 1.439-0.02242-0.05278-0.13-0.5673-0.239-1.143-0.7212-3.809-1.901-6.973-3.284-8.805-0.6158-0.8158-1.082-1.23-2.279-2.026-2.584-1.717-5.704-2.676-8.707-2.676-0.6635-5.7e-5 -0.7151-0.02077-0.9571-0.3838-0.08208-0.1231-0.3041-0.4028-0.4933-0.6216l-0.3442-0.3977 0.1795-0.0486c0.09872-0.02675 0.7984-0.04798 1.555-0.04695zm-35.24 0.603c0.02659 0 0.5602 0.5542 1.186 1.232 1.415 1.531 2.143 2.287 2.203 2.287 0.02555 0 0.9203-0.5555 1.988-1.235 2.444-1.554 2.893-1.833 2.914-1.812 0.009437 0.009437 0.07834 0.5043 0.1531 1.1 0.1039 0.8285 0.1434 1.58 0.168 3.199l0.0324 2.117-0.2268 0.1865c-0.1247 0.1026-1.498 0.9732-3.052 1.934-1.554 0.9612-2.868 1.764-2.921 1.784-0.06429 0.02467-0.8412-0.7087-2.401-2.267l-2.306-2.303 0.207-0.7274c0.3346-1.175 1.95-5.495 2.055-5.495zm-24.97 0.6887 0.9191 0.1643c0.9 0.1611 5.908 0.9806 6.946 1.137l0.5253 0.07869 0.525 0.4774c0.3465 0.315 0.6789 0.5491 0.978 0.6883 1.117 0.5201 2.547 1.149 3.052 1.342 1.12 0.4287 3.237 0.9945 4.561 1.218 0.8909 0.1507 2.111 0.1005 2.838-0.1164l0.529-0.1577 0.03207 0.1346c0.01768 0.07406 0.00663 0.5181-0.0248 0.9869s-0.08256 0.8733-0.1134 0.8989c-0.07711 0.06401-0.02627 0.07385-3.255-0.6318-5.343-1.168-10.8-2.492-14.39-3.494-1.636-0.456-4.881-1.491-5.089-1.623-0.1579-0.1002 0.225-0.4078 0.6715-0.5392 0.2111-0.06214 0.5892-0.2144 0.8401-0.3386zm55.11 0.03537c0.2186-1.35e-4 0.3333 0.06371 0.5693 0.1911 0.2266 0.1223 0.608 0.2858 0.8477 0.3637 0.4711 0.153 0.8232 0.3987 0.7158 0.4996-0.09888 0.09288-3.492 1.162-5.63 1.773-3.021 0.864-9.183 2.378-13.79 3.387-1.073 0.2353-2.013 0.4424-2.088 0.4602-0.07533 0.01782-0.1533 0.006078-0.1732-0.02612-0.03093-0.05005 0.1467-1.492 0.2394-1.944 0.01702-0.08304 0.04726-0.2293 0.06744-0.325l0.03703-0.1739 0.4308 0.2232c0.5959 0.3082 1.006 0.3674 2.287 0.3309 1.056-0.0301 1.135-0.04215 2.72-0.4172 0.8978-0.2124 1.895-0.4603 2.215-0.5505 0.584-0.1642 3.703-1.496 4.245-1.813 0.1583-0.09252 0.504-0.374 0.7683-0.6255l0.4807-0.4572 0.5108-0.03935c0.6348-0.04897 3.235-0.4466 4.35-0.6652 0.6526-0.1279 0.9752-0.192 1.194-0.1921zm-59.51 0.4076v0.1739c0 0.2251-0.07706 0.3641-0.4827 0.8695-0.8328 1.038-1.761 2.661-2.139 3.742-0.3083 0.8817-0.5773 2.81-0.5773 4.139 0 0.2041-0.01738 0.3709-0.03835 0.3709s-0.2728-0.1264-0.5597-0.2807c-0.5575-0.2999-0.9888-0.4624-1.49-0.5478-0.5109-0.08709-1.082-0.1011-1.343-0.1101-0.5722-0.01974-1.806 0.04164-2.423 0.2542-0.941 0.3246-1.994 0.95-3.109 1.847-0.3378 0.2717-1.018 0.9126-1.513 1.424l-0.8983 0.9307 0.1458-0.6873c0.4888-2.306 1.461-5.041 2.303-6.477 0.9257-1.579 1.906-2.464 4.067-3.669 0.9426-0.5259 1.906-0.9268 3.081-1.282 1.331-0.4028 2.407-0.5744 4.114-0.6563zm64.44 0.0205c1.047 0.001759 2.712 0.2148 3.784 0.4844 2.432 0.6116 5.166 2.029 6.526 3.384 1.487 1.481 2.613 3.977 3.591 7.955 0.124 0.5042 0.2143 0.9279 0.2007 0.9416-0.01366 0.01365-0.3978-0.3558-0.8536-0.8209-2.118-2.162-3.871-3.219-5.658-3.575-0.5524-0.1101-0.6706-0.08968-1.727-0.05356-0.5466 0.01869-1.107 0.1028-1.248 0.1379-0.3386 0.0844-1.282 0.4857-1.582 0.6728-0.1312 0.08187-0.2535 0.1488-0.2718 0.1488s-0.03342-0.2519-0.03372-0.5597c-6.98e-4 -0.7158-0.1012-1.87-0.2268-2.607-0.2491-1.462-1.113-3.267-2.358-4.926-0.6498-0.8659-0.6258-0.8233-0.5763-1.021 0.03827-0.1525 0.0659-0.1626 0.4338-0.162zm-62.78 0.3905c0.04115-1.28e-4 0.07869 1.28e-4 0.1124 9.92e-4 0.1349 0.003468 0.2086 0.01488 0.2086 0.03406 0 0.03388-0.3202 0.4197-0.7115 0.8573-1.615 1.807-2.534 3.02-2.813 3.714-0.3125 0.779-0.7655 2.6-1.111 4.465-0.08682 0.4692-0.1737 0.8686-0.1927 0.8877-0.06007 0.06007-0.03747-1.978 0.03141-2.84 0.1305-1.633 0.319-2.378 0.9257-3.654 0.5318-1.119 1.3-2.3 1.999-3.072l0.3038-0.3362 0.7839-0.04132c0.1831-0.009693 0.3391-0.01448 0.4625-0.01488zm60.85 0.003641c0.2166 0.001177 0.4807 0.01442 0.6652 0.03504l0.447 0.04993 0.4387 0.5439c0.5611 0.6955 1.429 2.005 1.739 2.623 0.3182 0.635 0.7594 1.995 0.8927 2.751 0.0721 0.4093 0.1188 1.153 0.1435 2.278 0.02397 1.093 0.01446 1.684-0.02777 1.71-0.03881 0.02398-0.08112-0.1012-0.1061-0.3141-0.06355-0.5407-0.4735-2.669-0.6473-3.361-0.4968-1.978-1.139-3.022-3.299-5.366l-0.8553-0.9274 0.4139-0.01818c0.05691-0.002476 0.1239-0.003372 0.1961-0.002975zm-60.41 0.486 1.078 0.3551c4.158 1.37 10.49 3.031 16.9 4.429 0.6082 0.1328 1.083 0.2627 1.056 0.2886-0.09323 0.08734-1.262 0.429-1.714 0.5009-0.6534 0.1041-2.216 0.1961-3.39 0.1997l-1.024 0.002975 0.4159 0.3815c1.277 1.172 3.526 2.549 5.054 3.094 0.321 0.1146 0.5777 0.235 0.5703 0.2675-0.03767 0.1667-1.879 0.7319-3.509 1.077-0.3672 0.07777-0.6771 0.1696-0.6887 0.2043-0.0478 0.1434 2.219 1.185 3.372 1.548 0.8322 0.2627 1.952 0.5064 2.738 0.5958l0.6559 0.07472-0.2096 0.1283c-0.2812 0.1724-1.329 0.6374-2.193 0.9733-0.387 0.1504-0.7611 0.2901-0.8315 0.3105-0.08037 0.02322-0.473-0.1137-1.056-0.368-2.075-0.9053-4.223-2.005-7.549-3.864-4.057-2.268-5.703-2.968-7.869-3.348-0.9172-0.1608-2.373-0.2244-2.975-0.1299-0.8803 0.1381-2.106 0.647-2.782 1.155-0.1897 0.1425-0.3537 0.25-0.3647 0.239-0.03458-0.03458 0.358-1.898 0.5544-2.632 0.2758-1.03 0.4482-1.419 0.9842-2.222 0.4761-0.7132 1.839-2.35 2.459-2.952zm59.78 0 0.3514 0.3432c0.9069 0.8856 2.41 2.771 2.796 3.508 0.3446 0.6571 0.713 1.813 0.967 3.035 0.1285 0.6178 0.2235 1.153 0.2113 1.19-0.01225 0.03675-0.2091-0.06591-0.4374-0.2281-1.331-0.9456-2.813-1.291-4.848-1.129-2.203 0.1751-4.3 0.9953-8.343 3.263-3.679 2.064-5.658 3.082-7.84 4.035-0.5718 0.25-1.047 0.4536-1.055 0.4523-0.2081-0.03034-2.614-1.051-2.991-1.269l-0.2876-0.1666 0.3518-0.04992c1.946-0.2756 3.065-0.5805 4.599-1.253 1.088-0.4767 1.892-0.8966 1.833-0.9561-0.01406-0.01406-0.3659-0.09734-0.7819-0.1851-1.366-0.2883-3.487-0.9416-3.484-1.073 6.21e-4 -0.03118 0.2567-0.1481 0.569-0.2595 0.6558-0.2341 1.813-0.7889 2.521-1.208 0.5662-0.3355 2.099-1.474 2.61-1.939l0.3495-0.3177-1.693-0.04132c-2.06-0.05057-3.095-0.1821-3.99-0.5065-0.3064-0.1111-0.3548-0.1467-0.2559-0.1888 0.06706-0.02855 1.734-0.4263 3.705-0.8837 6.021-1.398 10-2.471 13.68-3.689zm-34.58 4.894c0.04137-0.01379 1.055 0.9439 2.253 2.128l2.178 2.153 2.033-1.265c1.118-0.6959 2.462-1.534 2.986-1.863l0.9532-0.5978-0.04397 0.6252c-0.02407 0.3439-0.09871 1.016-0.166 1.495-0.1155 0.8213-0.2017 1.243-0.7231 3.534l-0.2159 0.9489-2.522 1.534c-1.387 0.8439-2.549 1.561-2.583 1.594-0.03343 0.0328-0.09106 0.05951-0.1283 0.05951-0.06855 0-3.133-2.697-3.703-3.258l-0.3098-0.3052-0.09654-1.305c-0.1083-1.461-0.1372-4.655-0.04662-5.138 0.03246-0.173 0.09286-0.3258 0.1342-0.3395zm-5.404 0.239 0.4893 0.123c0.269 0.06765 0.921 0.213 1.449 0.323 1.176 0.2451 1.375 0.3058 1.375 0.4202 0 0.2023-0.6797 0.4896-1.6 0.6761-0.8197 0.1662-2.579 0.21-3.623 0.08993-1.374-0.1581-3.368-0.5489-3.275-0.6417 0.01304-0.01304 0.498-0.05472 1.078-0.09258 1.606-0.1049 2.471-0.2775 3.668-0.7316zm20.33 0.05488 0.7204 0.2519c1.165 0.4075 1.764 0.5058 3.813 0.6245 0.4559 0.02643 0.7026 0.06476 0.6645 0.1028-0.1258 0.1258-2.092 0.5618-2.822 0.6258-0.7172 0.06293-2.396 0.07523-2.79 0.0205-0.4209-0.05855-1.226-0.2919-1.614-0.4678-0.3748-0.17-0.4085-0.2012-0.3898-0.3633 0.02744-0.2383 0.1478-0.2875 1.38-0.5627zm-25.98 1.176c0.06825-0.003723 0.366 0.0552 0.6913 0.1375 3.021 0.7646 6.283 0.8055 7.93 0.09951 0.165-0.07073 0.3137-0.1148 0.3306-0.09786 0.0169 0.0169 0.01075 0.2429-0.01356 0.5022l-0.04397 0.4715-0.3637 0.1765c-0.1999 0.09711-0.7664 0.396-1.259 0.6639s-1.097 0.5959-1.343 0.7287c-0.2463 0.1328-0.5056 0.2418-0.5759 0.2423-0.4926 0.003998-2.863-1.089-3.977-1.834-0.8518-0.5694-1.475-1.059-1.386-1.089 0.00245-8.19e-4 0.00603-0.001407 0.01058-0.001657zm31.41 0.07505c0.08747-0.003954-0.002687 0.06286-0.1475 0.1947-0.8103 0.738-3.064 1.999-4.273 2.39-0.8333 0.2698-0.8795 0.2754-1.167 0.1422-0.3562-0.1651-2.416-1.506-2.488-1.62-0.09273-0.147 0.09676-1.042 0.2169-1.025 0.05278 0.007793 0.3407 0.09931 0.6397 0.2033 0.9401 0.327 1.42 0.3938 2.805 0.3921 1.39-0.001715 2.22-0.1081 3.497-0.449 0.5651-0.1509 0.83-0.2255 0.9175-0.2294zm-22.46 1.321 0.0453 0.6854c0.02498 0.3769 0.04919 0.7516 0.05389 0.8328 0.006967 0.1203-0.09542 0.2111-0.5528 0.4903-0.6758 0.4126-1.425 0.696-2.413 0.9128-0.6492 0.1424-0.9282 0.1649-2.375 0.1911-1.157 0.02098-1.653 0.008828-1.683-0.041-0.04931-0.07978-0.04219-0.08263 0.5723-0.2285 0.7058-0.1675 1.972-0.5951 2.546-0.8596 0.2884-0.133 0.9263-0.4648 1.417-0.7373 0.491-0.2725 1.229-0.6645 1.641-0.8708zm14.28 0.1888c0.1085 1.92e-4 0.4349 0.1893 1.216 0.6973 1.477 0.9602 2.269 1.335 3.678 1.742 0.3519 0.1015 0.792 0.2282 0.978 0.2817 0.186 0.05348 0.3211 0.1248 0.3002 0.1587-0.02271 0.03674-0.6229 0.0593-1.49 0.05588-1.49-0.005899-1.935-0.05359-2.98-0.3204-0.9765-0.2493-2.15-0.7842-2.15-0.9799 0-0.1222 0.3715-1.582 0.4133-1.624 0.0073-0.0073 0.01823-0.01127 0.03372-0.01124zm-14.3 1.932c0.005429-3.27e-4 0.01081-3.65e-4 0.01587 0 0.135 0.009814 0.1439 0.272 0.2046 1.019l0.06943 0.8536-0.1772 0.1458c-0.5528 0.4552-0.874 0.6778-1.088 0.7541-0.2932 0.1046-0.5045 0.1032-1.326-0.008599-1.377-0.1874-2.183-0.4055-3.678-0.9961l-1.031-0.407 1.618-0.04099c1.293-0.03257 1.752-0.06851 2.29-0.1795 0.9688-0.2003 2.165-0.6145 2.701-0.9356 0.1969-0.1178 0.3203-0.1997 0.4017-0.2047zm13.83 0.1693c0.08736 0.001522 0.2561 0.07009 0.6103 0.2367 1.334 0.6277 2.485 0.8592 4.561 0.9175l1.535 0.04298-0.3521 0.1637c-1.126 0.5232-2.923 1.059-4.03 1.202-0.2639 0.03402-0.7245 0.07978-1.024 0.1015l-0.5439 0.03935-0.5118-0.41c-0.8245-0.6608-0.7809-0.5518-0.5673-1.428 0.1003-0.4111 0.2114-0.7864 0.247-0.8341 0.01312-0.01761 0.03116-0.02849 0.05852-0.03107 0.005131-4.87e-4 0.0107-7.62e-4 0.01653-6.59e-4zm-0.5551 2.055c0.03196 0 0.2539 0.1484 0.4933 0.33 0.921 0.6984 1.496 1.023 2.882 1.626 0.4486 0.1953 0.843 0.382 0.8765 0.4149 0.1355 0.1332-1.381-0.02592-2.472-0.2595-0.6329-0.1355-1.931-0.5285-2.092-0.6335-0.0746-0.04848-0.07681-0.1228-0.01322-0.446 0.1107-0.5628 0.2588-1.032 0.3257-1.032zm-13.03 0.07604c0.005739-8.76e-4 0.009697-2.24e-4 0.0119 0.001983 0.058 0.058 0.1605 1.479 0.1101 1.526-0.06496 0.06064-1.328 0.4127-1.936 0.5396-0.2638 0.05504-0.8394 0.1423-1.279 0.1937-1.375 0.1609-1.384 0.1397-0.1597-0.3878 1.267-0.5461 2.241-1.1 2.96-1.682 0.1316-0.1067 0.2534-0.1853 0.2936-0.1914zm2.204 0.2784c0.004235-4.35e-4 0.008695 1.6e-4 0.01355 0.001324 0.0111 0.002662 0.02383 0.00888 0.03835 0.01686 0.066 0.03626 0.8399 0.7053 1.72 1.487 0.8796 0.7815 1.662 1.462 1.738 1.512 0.1758 0.1154 0.07739 0.1663 2.205-1.142 2.599-1.599 2.691-1.653 2.741-1.622 0.02566 0.01585-0.01864 0.3967-0.09853 0.8464-0.2056 1.157-0.346 2.39-0.3987 3.502l-0.04529 0.9571-2.007 1.202c-1.104 0.6611-2.039 1.2-2.079 1.197-0.03969-0.002899-0.8351-0.5078-1.767-1.122-0.9324-0.614-1.733-1.139-1.778-1.166-0.08794-0.05316-0.216-1.923-0.3045-4.446-0.03537-1.009-0.0401-1.216 0.02347-1.222zm10.44 1.481c0.1113-3.39e-4 0.3634 0.06361 0.8289 0.207 1.069 0.3291 1.949 0.5049 3.026 0.6044l0.8447 0.07803-0.522 0.1425c-0.7484 0.2045-1.553 0.3728-2.325 0.4863-0.3696 0.05432-1.012 0.1181-1.428 0.1418l-0.7564 0.04331 0.03505-0.2179c0.01918-0.1199 0.06803-0.4815 0.1088-0.8034 0.04073-0.3219 0.09526-0.6192 0.121-0.6609 0.008554-0.01384 0.03001-0.02104 0.06711-0.02116zm-12.51 0.08398c0.04577 0 0.09715 0.3393 0.1527 1.007l0.04926 0.5918-0.3224-0.007933c-0.9312-0.02337-3.648-0.5273-4.047-0.7508-0.06109-0.03418 0.1358-0.07097 0.5346-0.09984 0.8187-0.05927 2.123-0.3009 2.948-0.5462 0.3595-0.1069 0.6676-0.1944 0.6847-0.1944zm12.15 4.222h0.4417c0.9922 0 1.943 0.3535 2.571 0.9568 0.4566 0.4385 0.6895 0.8599 0.8735 1.579 0.1544 0.6039 0.233 1.46 0.1392 1.518-0.03711 0.02294-0.2209 0.07006-0.4083 0.1048-0.9436 0.1749-1.972 0.9901-2.772 2.198-0.2463 0.3718-0.47 0.6767-0.4972 0.6778-0.09295 0.003724-0.1632-0.2957-0.2328-0.9948-0.1148-1.153-0.2044-4.023-0.1584-5.065zm-11.75 0.1613c0.0217 2.24e-4 0.03703 0.00634 0.04496 0.01917 0.01629 0.02635 0.1053 0.5631 0.1977 1.193 0.1592 1.084 0.8236 4.476 1.019 5.2 0.04978 0.1847 0.07979 0.3359 0.06645 0.3359-0.01333 0-0.1679-0.2128-0.3435-0.4731-0.8955-1.327-1.684-1.968-2.763-2.248-0.5876-0.152-0.591-0.1569-0.5406-0.7789 0.08203-1.011 0.3234-1.616 0.894-2.242 0.3992-0.4375 1.161-0.9702 1.401-1.005 0.008602-0.001235 0.01657-0.001728 0.0238-0.001651zm9.392 0.04397 0.04331 0.4252c0.02384 0.2338 0.1228 1.192 0.2199 2.129 0.1611 1.557 0.1679 1.717 0.07704 1.855-0.05471 0.08293-0.8821 0.7265-1.838 1.43-0.9562 0.7037-1.759 1.285-1.783 1.293-0.03862 0.0114-0.9408-0.4715-3.093-1.656l-0.4886-0.2691-0.04066-0.4195c-0.09675-0.9995-0.2297-2.793-0.2701-3.645-0.0378-0.797-0.03097-0.9176 0.05026-0.8864 0.0517 0.01984 0.7451 0.456 1.541 0.9694 0.7956 0.5133 1.519 0.9665 1.607 1.007 0.1477 0.06732 0.3131-0.01942 2.068-1.08zm15.5 1.222c0.7397 0.003103 1.459 0.05255 1.878 0.1385 0.7537 0.1548 1.509 0.6584 1.847 1.231l0.1329 0.2248-0.1782-0.04794c-0.487-0.1309-0.8024-0.1535-2.168-0.156-1.586-0.002994-2.726 0.06481-3.8 0.2261-0.7577 0.1139-1.128 0.2858-1.333 0.6182-0.07071 0.1147-0.1692 0.41-0.2189 0.6563l-0.09025 0.4476-0.1385-0.3703c-0.157-0.4194-0.1881-1.2-0.06711-1.68 0.1864-0.7404 1.094-1.12 2.997-1.253 0.2607-0.01828 0.5397-0.02914 0.8216-0.03306 0.1057-0.001471 0.2117-0.002092 0.3174-0.00165zm-36.42 0.03174c0.08219-4.67e-4 0.1644-3.65e-4 0.2463 0 0.9825 0.004363 1.925 0.06716 2.404 0.1693 0.5962 0.1271 0.9578 0.2866 1.317 0.5806 0.3479 0.2851 0.449 0.6454 0.4053 1.446-0.02016 0.3691-0.07001 0.614-0.1603 0.7882l-0.1313 0.2526-0.07174-0.3346c-0.1507-0.7025-0.4393-1.056-0.9763-1.196-1.004-0.2613-4.264-0.4748-5.484-0.359-0.4154 0.03944-0.846 0.1035-0.9568 0.1422-0.3251 0.1133-0.3457 0.0463-0.08993-0.2919 0.3106-0.4108 0.7714-0.7563 1.293-0.9704 0.3717-0.1524 0.5277-0.1749 1.471-0.2109 0.2406-0.009181 0.4874-0.01448 0.734-0.01587zm31.86 1.465 0.04232 0.3134c0.02331 0.1724 0.04516 0.4572 0.04827 0.6331 0.007786 0.4404 0.282 0.9906 0.7512 1.507 0.262 0.2883 0.4271 0.5433 0.529 0.8156l0.1481 0.3961-0.1828 0.24c-0.2372 0.3112-2.352 2.408-3.243 3.217-0.8034 0.7285-1.518 1.24-2.023 1.448-0.1959 0.0806-0.4771 0.1473-0.6249 0.1481-0.2343 0.001325-0.2909-0.02809-0.445-0.2301-0.2458-0.3222-0.2765-0.8484-0.08894-1.532 0.1573-0.5732 0.5373-1.419 0.8216-1.83 0.2698-0.3896 3.079-3.787 3.847-4.653zm-27.15 0.0734c0.0118 0.001459 0.02555 0.0102 0.04199 0.0238 0.1828 0.1513 1.324 1.477 2.82 3.275 1.589 1.911 1.734 2.137 2.125 3.303 0.1058 0.3157 0.2098 0.7604 0.2311 0.9882 0.03572 0.3825 0.02487 0.4341-0.1422 0.6751-0.0995 0.1436-0.2607 0.3024-0.3581 0.3528-0.09733 0.05032-0.1855 0.08857-0.1961 0.08497-0.01054-0.003602-0.1054-0.02768-0.2109-0.05356-0.5217-0.1279-1.361-0.6677-2.295-1.476-0.7891-0.6826-3.495-3.417-3.495-3.532-7e-6 -0.04544 0.06464-0.2683 0.1438-0.4953 0.1099-0.3151 0.2324-0.5042 0.5181-0.7998 0.5474-0.5663 0.7029-0.9359 0.7346-1.748 0.0171-0.4378 0.0291-0.5835 0.07108-0.5984 0.003499-0.001248 0.007308-0.001485 0.01124-9.92e-4zm33.16 0.08133c0.9319-0.002246 1.727 0.04137 2.052 0.1438 0.3389 0.1067 0.5595 0.2936 0.6331 0.5363 0.04867 0.1605-0.03751 0.1917-0.1511 0.05489-0.1621-0.1953-0.7331-0.3801-1.191-0.3855-0.4159-0.0049-0.4731 0.01139-0.7677 0.2209l-0.3184 0.2265-0.3445-0.2076c-0.7649-0.461-1.461-0.413-2.013 0.1392-0.1581 0.1581-0.3033 0.2873-0.3227 0.2873-0.01935 0-0.1653-0.09158-0.3243-0.2037-0.5635-0.3972-1.318-0.299-1.859 0.2417-0.159 0.159-0.2256 0.2956-0.2675 0.5505l-0.05554 0.3392-0.0767-0.2142c-0.1546-0.4329 0.143-1.164 0.5415-1.33 0.5407-0.2259 2.589-0.383 4.276-0.3977 0.06324-5.56e-4 0.126-8.44e-4 0.1881-9.91e-4zm-39.47 0.001983c0.2848-7.23e-4 0.6025 0.003628 0.9571 0.01256 2.433 0.06129 3.693 0.2289 4.011 0.5333 0.184 0.1763 0.3721 0.6718 0.3703 0.9753-0.001803 0.3025-0.1058 0.3546-0.1504 0.07538-0.08419-0.5265-0.7682-1.029-1.403-1.03-0.306-6.21e-4 -0.5619 0.09661-0.8887 0.3382l-0.1722 0.1276-0.3253-0.2926c-0.6301-0.5665-1.09-0.6131-1.926-0.1947l-0.4549 0.2278-0.1699-0.1256c-0.5721-0.423-1.037-0.4376-1.836-0.05819-0.2624 0.1246-0.4771 0.2107-0.4771 0.1914s0.04772-0.1157 0.1061-0.2146c0.2141-0.3625 0.6963-0.5248 1.881-0.5591 0.1481-0.004281 0.3072-0.006507 0.4781-0.006942zm38.42 0.5379c0.4184-0.003877 0.8615 0.2605 1.359 0.7984 0.6146 0.6639 0.9078 1.442 0.975 2.588 0.05601 0.9553-0.1663 1.831-0.6797 2.678-0.1131 0.1867-0.3008 0.452-0.4169 0.5898-0.2099 0.2491-0.2112 0.2496-0.2447 0.09059-0.0185-0.08796-0.04883-0.4334-0.06744-0.7677-0.05075-0.9114-0.2995-1.574-0.9707-2.586-0.2738-0.413-0.3683-0.627-0.4701-1.067-0.1482-0.64-0.3391-1.152-0.5306-1.421l-0.1356-0.1901 0.3204-0.3058c0.2552-0.2434 0.5119-0.3783 0.7776-0.4037 0.02768-0.002642 0.05542-0.004037 0.08331-0.004293zm-37.03 0.01983c0.1333-0.002124 0.2594 0.01844 0.3739 0.06315 0.2098 0.08191 0.6913 0.5069 0.6913 0.6103 0 0.04104-0.09886 0.2608-0.2195 0.4883-0.1207 0.2276-0.2663 0.6153-0.3233 0.8616-0.1956 0.8437-0.2308 0.9292-0.6381 1.534-0.5941 0.8824-0.8039 1.521-0.8983 2.736-0.02391 0.3079-0.06995 0.5597-0.1022 0.5597-0.1146 0-0.6992-0.8712-0.8897-1.325-0.4608-1.099-0.5096-2.364-0.1339-3.472 0.2375-0.7008 0.4741-1.1 0.8675-1.463 0.4079-0.376 0.8722-0.5864 1.272-0.5928zm39.31 0.01818c0.008592-2.05e-4 0.01722-1.09e-4 0.02612 0 0.04746 6.07e-4 0.09991 0.005706 0.162 0.01422 0.7391 0.1013 1.445 0.6605 1.851 1.468 0.4163 0.8265 0.4809 1.083 0.5167 2.043 0.03576 0.9587-0.005304 1.21-0.3058 1.871-0.09599 0.2111-0.219 0.4414-0.2734 0.5118-0.1123 0.1453-0.09396 0.1804-0.2579-0.5012-0.184-0.7651-0.5574-1.454-1.171-2.163-0.1372-0.1584-0.2272-0.3541-0.2794-0.6077-0.121-0.5877-0.4219-1.351-0.7019-1.781-0.1411-0.2165-0.2562-0.4265-0.2562-0.4665 0-0.04004 0.131-0.1497 0.2913-0.2437 0.1725-0.1011 0.2699-0.1414 0.3987-0.1445zm-41.69 0.01223c0.03231-4.22e-4 0.06333 9.47e-4 0.09356 0.003967 0.1612 0.01612 0.2974 0.0818 0.4546 0.2017 0.2482 0.1893 0.2641 0.282 0.07802 0.45-0.256 0.2311-0.5766 0.9662-0.849 1.946-0.06578 0.2366-0.226 0.5208-0.4867 0.8636-0.2137 0.2811-0.4891 0.7125-0.6116 0.9588-0.1226 0.2463-0.2891 0.7188-0.37 1.05l-0.1468 0.6021-0.1316-0.1861c-1.018-1.444-0.7419-3.904 0.5878-5.234 0.366-0.366 0.4788-0.4381 0.8695-0.5568 0.2097-0.0637 0.3721-0.09768 0.5121-0.09952zm4.786 0.2404c0.202 0.004453 0.415 0.08909 0.6702 0.2509 0.5159 0.3272 0.5997 0.7347 0.3247 1.578-0.1523 0.4672-0.2233 0.622-0.5885 1.286-0.2249 0.4092-0.356 1.321-0.319 2.219 0.01738 0.4222 0.05254 0.8182 0.07802 0.8798 0.07516 0.1816-0.03721 0.1316-0.5052-0.2242-0.5122-0.3894-0.8102-0.8365-1.132-1.699-0.1755-0.4707-0.2114-0.6645-0.2351-1.266-0.01624-0.413 0.003485-0.8616 0.04728-1.073 0.1183-0.5698 0.4684-1.202 0.8672-1.567 0.2583-0.2361 0.4782-0.3627 0.7062-0.3838 0.0285-0.002648 0.0571-0.003608 0.08596-0.002975zm32.23 0.01058c0.1209 0.001497 0.2337 0.02432 0.3273 0.07274 0.5242 0.2711 0.8517 0.6903 1.131 1.447 0.1521 0.4119 0.1774 0.5791 0.1835 1.213 0.006225 0.6499-0.01428 0.7991-0.1752 1.279-0.2648 0.7903-0.5985 1.394-0.9723 1.759-0.1802 0.1759-0.419 0.3724-0.531 0.4364l-0.2037 0.1164 0.04959-0.2764c0.0272-0.152 0.0487-0.6505 0.04794-1.108-0.001516-0.9163-0.08741-1.288-0.4787-2.072-0.5065-1.015-0.6808-1.807-0.4949-2.251 0.1426-0.3408 0.6424-0.6011 1.064-0.6166 0.01757-6.46e-4 0.03497-8.76e-4 0.05224-6.59e-4zm-7.05 0.483 0.492 0.9813c0.2706 0.5398 0.5009 1.028 0.5118 1.086 0.01092 0.05741-0.1903 0.365-0.4473 0.6834-0.5862 0.7262-1.037 1.472-1.253 2.074-0.09194 0.2559-0.2041 0.6904-0.2493 0.9654-0.07677 0.4673-0.08891 0.4923-0.1848 0.3838-0.2073-0.2345-2.292-3.302-2.292-3.373 0-0.1443 0.4881-0.8958 0.8817-1.358 0.7066-0.8294 1.51-1.341 2.216-1.411zm-17.98 0.01157c0.9592 0 2.33 1.12 3.112 2.543l0.1494 0.2721-0.1997 0.2718c-0.1098 0.1494-0.6502 0.9122-1.201 1.695-0.5509 0.7829-1.014 1.423-1.028 1.423-0.01435 0-0.02612-0.06645-0.02612-0.1478 0-0.3365-0.2831-1.208-0.6067-1.867-0.2393-0.4874-0.5178-0.9176-0.9056-1.4l-0.5597-0.6963 0.5277-1.047c0.5212-1.035 0.5298-1.047 0.7379-1.047zm11.79 0.724c0.01582 0.01583 0.4137 2.67 0.7551 5.039 0.01926 0.1336 1.09e-4 0.2719-0.04596 0.3319-0.04344 0.05657-0.6948 0.5652-1.447 1.13-0.7526 0.5651-1.415 1.027-1.471 1.026-0.09903-0.001753-2.763-1.141-3.189-1.364-0.114-0.05964-0.2472-0.1728-0.2959-0.2513-0.04868-0.07844-0.2103-0.7472-0.359-1.486-0.1488-0.7389-0.3819-1.845-0.5181-2.459-0.1361-0.6138-0.2358-1.128-0.2215-1.142 0.02345-0.02345 1.394 0.7133 2.682 1.442 0.4297 0.2431 0.524 0.2743 0.6397 0.2119 0.07467-0.04024 0.8818-0.619 1.794-1.286 0.9118-0.6671 1.667-1.203 1.678-1.192zm0.6493 5.908c0.00753-1.79e-4 0.0128 0.001446 0.01587 0.004959 0.02339 0.0267 0.1059 0.4513 0.1832 0.9439 0.07731 0.4926 0.2684 1.359 0.4248 1.925 0.1565 0.5664 0.2838 1.085 0.2827 1.152-0.002424 0.1467 0.01975 0.1306-1.517 1.103-0.6768 0.4282-1.267 0.7776-1.311 0.7766-0.1161-0.002552-0.8188-0.2982-2.032-0.855-0.8715-0.3999-1.069-0.515-1.131-0.6612-0.124-0.292-0.9401-3.661-0.8973-3.704 0.04486-0.04486 0.1532-0.002047 1.467 0.5766 0.5186 0.2283 1.129 0.4779 1.357 0.5548l0.4136 0.1398 0.3389-0.2443c0.1864-0.1343 0.5981-0.4464 0.9148-0.6936 0.7741-0.6045 1.377-1.015 1.49-1.018zm15.62 2.844c0.3123-7.94e-4 0.6021 0.001049 0.8738 0.005617 1.63 0.02743 2.61 0.1577 3.927 0.4695 2.147 0.5083 4.527 1.587 5.061 2.293 0.3767 0.4985 0.8076 1.377 1.091 2.224 0.2518 0.7532 0.2654 0.8338 0.2939 1.749 0.02732 0.8778 0.01543 1.019-0.1395 1.662-0.4054 1.68-0.7653 2.361-1.823 3.445-0.7108 0.7289-1.183 1.062-2.19 1.543-1.119 0.5347-1.883 0.7432-3.169 0.8652-0.8466 0.08029-1.546 0.06901-2.451-0.03967l-0.3521-0.04232 0.5396-0.08695c0.6757-0.109 1.896-0.5136 2.598-0.8616 0.6424-0.3183 1.583-1.119 2.07-1.763 0.1815-0.2397 0.4633-0.7017 0.6262-1.027 0.2586-0.5158 0.2998-0.6536 0.324-1.087 0.04748-0.8517-0.2929-1.873-0.9442-2.832-1.132-1.667-3.348-2.679-6.324-2.887-1.377-0.09641-4.693-0.03586-5.575 0.1018-2.059 0.3215-3.299 0.6565-4.596 1.242-0.399 0.1802-0.7478 0.3276-0.7753 0.3276-0.02745 0-0.2232-0.3815-0.4351-0.8477-0.3919-0.8623-0.6915-1.78-0.6318-1.936 0.03729-0.09718 0.3138-0.2279 1.416-0.6688 1.869-0.7477 3.862-1.263 6.365-1.646 0.9204-0.141 1.332-0.1659 3.21-0.1937 0.3621-0.005374 0.697-0.008797 1.009-0.00959zm-14.74 1.743c0.01397 8.9e-4 0.02358 0.005976 0.03107 0.01356 0.03208 0.03242 0.1869 0.4188 0.3442 0.8586 0.1572 0.4398 0.4478 1.2 0.6457 1.689l0.3597 0.89-0.241 0.1977c-0.1325 0.1087-0.6444 0.5434-1.138 0.9661-0.4932 0.4226-0.9999 0.8472-1.126 0.9436-0.1265 0.09633-0.2416 0.173-0.2559 0.1706-0.1153-0.01954-1.678-0.471-2.133-0.6163-0.6576-0.2098-0.6225-0.1646-1.151-1.479-0.2763-0.6874-1.021-3.142-0.9694-3.194 0.02709-0.0271 0.4102 0.1373 1.885 0.8093 0.4711 0.2146 0.8976 0.3901 0.9479 0.3901 0.05025 0 0.4853-0.2495 0.9667-0.5544 1.417-0.8977 1.736-1.092 1.834-1.085zm12.72 2.077-0.04629 0.3729c-0.02552 0.2052-0.05989 0.3948-0.07604 0.4212-0.01615 0.02639-0.4055 0.04794-0.8652 0.04794h-0.8358l0.02942-0.3518c0.01605-0.1935 0.05071-0.3733 0.07704-0.3997 0.02633-0.02644 0.4234-0.05775 0.8824-0.06943zm0.7793 0.01058c0.2036 1.92e-4 0.4574 0.01338 0.7399 0.04l0.4159 0.03901-0.02282 0.3604c-0.01247 0.1981-0.05558 0.3811-0.09588 0.407-0.07253 0.04652-0.6538 0.04754-1.307 0.001984l-0.3376-0.0238 0.03901-0.3323c0.02139-0.1828 0.05016-0.3686 0.06381-0.4126 0.01376-0.04435 0.1509-0.07062 0.3716-0.0777 0.04138-0.001331 0.0856-0.002028 0.1326-0.001983zm-2.869 0.03339c0.007108-1.73e-4 0.01378 3.2e-5 0.01984 3.33e-4 0.07277 0.003602 0.07128 0.04295 0.04463 0.1762-0.02087 0.1043-0.03802 0.2974-0.03802 0.4291v0.2397l-0.5915 0.07405c-0.3255 0.04074-0.7247 0.09087-0.887 0.1114l-0.2952 0.03736 0.03141-0.3432c0.05391-0.5875-0.06558-0.5346 1.637-0.7184 0.03194-0.003455 0.05802-0.006097 0.07934-0.006615zm4.512 0.08067c0.1299-0.001357 0.3554 0.03447 0.7492 0.08629 0.3462 0.04556 0.5446 0.1014 0.567 0.1597 0.01894 0.04934 0.01485 0.2474-0.009258 0.4404-0.04118 0.3295-0.05429 0.3504-0.2152 0.3432-0.3676-0.01642-1.168-0.1641-1.231-0.2271-0.03653-0.03653-0.05765-0.2362-0.04695-0.4437 0.01117-0.2165-0.006986-0.3178 0.09819-0.3485 0.02301-0.006705 0.05189-0.009866 0.08827-0.01025zm-6.623 0.1637c0.05653 1.47e-4 0.1069 0.01694 0.124 0.04463 0.04812 0.07786-0.01894 0.6381-0.09026 0.7535-0.02657 0.04299-0.3485 0.1492-0.7155 0.2364-0.3669 0.08716-0.7213 0.1713-0.7872 0.1868-0.1117 0.02631-0.1166-0.002911-0.07505-0.4315 0.02451-0.2529 0.0638-0.4778 0.08761-0.4996 0.02381-0.02178 0.3171-0.08846 0.6513-0.1481 0.3343-0.05965 0.6705-0.1211 0.7475-0.1365 0.01926-0.003858 0.03869-0.005668 0.05753-0.005617zm8.38 0.1127c0.01112 9.6e-5 0.02303 7.67e-4 0.03571 0.001983 0.1217 0.01167 0.3169 0.07423 0.6308 0.1739l0.5439 0.1726 0.01885 0.4301c0.02122 0.4823-2.88e-4 0.4987-0.4407 0.3366-0.1264-0.04654-0.3924-0.1211-0.5915-0.1656l-0.362-0.081v-0.4377c0-0.3061-0.001881-0.4323 0.165-0.4308zm-10.21 0.249c0.06186 0 0.01338 0.6557-0.06414 0.8662-0.03311 0.08993-0.2239 0.1969-0.6146 0.3448-0.3116 0.1179-0.6023 0.2277-0.646 0.244-0.04368 0.01633-0.09778-0.01823-0.1203-0.07704-0.05274-0.1374 0.01496-0.8028 0.08927-0.8771 0.05874-0.05874 1.256-0.5009 1.356-0.5009zm11.83 0.32c0.08322 0 1.06 0.5811 1.204 0.7161 0.1432 0.1345 0.1881 0.3807 0.1078 0.5901-0.02136 0.05565-0.05739 0.09966-0.08001 0.09787-0.1458-0.01159-1.28-0.65-1.315-0.7399-0.04837-0.126 0.01889-0.6642 0.08299-0.6642zm-5.885 0.1904c1.104-4.79e-4 2.176 0.02048 2.579 0.06282 2.214 0.2322 4.312 1.08 5.461 2.208 1.319 1.294 1.39 2.506 0.2298 3.946-0.934 1.159-2.318 2.085-3.626 2.426-0.43 0.1121-0.7521 0.1376-2.015 0.1584-1.613 0.02652-1.72 0.01458-2.632-0.2886-2.256-0.7503-4.725-2.533-6.597-4.763-0.629-0.7495-1.335-1.669-1.458-1.897-0.1192-0.2227 0.3944-0.5472 1.538-0.9713 1.222-0.4532 2.383-0.7057 3.743-0.8143 0.5349-0.04275 1.672-0.06465 2.776-0.06514zm-7.702 0.121 0.02149 0.2123c0.01171 0.1167 0.003045 0.3578-0.01918 0.5359-0.03329 0.2668-0.07267 0.3429-0.2232 0.4318-0.1005 0.05935-0.2149 0.1078-0.2542 0.1078-0.09231 0-0.4523-0.5666-0.4523-0.7118 0-0.07375 0.1557-0.189 0.4639-0.3435zm-3.553 0.5627c0.001919-3.2e-5 0.003141 4.29e-4 0.003966 0.001325 0.02648 0.02871 0.3256 0.6422 0.6645 1.363 0.339 0.7213 0.7473 1.538 0.9075 1.814l0.2913 0.5025-0.9482 1.252c-0.5216 0.6889-0.9772 1.26-1.012 1.269-0.06496 0.01658-1.298-0.3199-2.393-0.653-0.5582-0.1699-0.6169-0.2041-0.8136-0.4728-0.213-0.2909-1.911-3.574-1.87-3.615 0.01213-0.01212 0.5375 0.1193 1.167 0.2923 0.6299 0.173 1.207 0.3147 1.283 0.3147 0.08474 0 0.6276-0.4091 1.406-1.06 0.6757-0.5647 1.253-1.008 1.312-1.009zm18.8 0.2774c0.1331 0 0.8761 0.9272 0.9869 1.232 0.07947 0.2184-0.1183 0.1041-0.6189-0.3577-0.476-0.4391-0.501-0.4758-0.4586-0.6692 0.02471-0.1125 0.06553-0.2046 0.09059-0.2046zm-25.37 0.1927c0.04247 5.25e-4 0.3838 0.607 0.7588 1.348l0.6817 1.347-0.2017 0.1253c-0.3269 0.2028-6.143 3.114-7.837 3.922-2.75 1.313-3.386 1.546-6.12 2.246-2.119 0.5424-3.785 0.8382-5.566 0.9882-2.606 0.2195-6.163-0.164-8.38-0.9036-1.865-0.6221-3.094-1.461-3.859-2.633-0.3066-0.4697-0.7062-1.355-0.6411-1.42 0.0398-0.0398 0.6096 0.384 0.9151 0.6807 0.5734 0.557 1.935 1.209 3.173 1.518 1.935 0.4831 3.593 0.6706 5.607 0.6344 1.384-0.02484 1.404-0.0275 2.993-0.3551 1.945-0.4011 2.96-0.677 5.086-1.382 2.295-0.7607 3.303-1.197 6.941-3.006 3.724-1.851 6.339-3.113 6.448-3.111zm1.52 2.987c0.004946-5.1e-5 0.009942 2.24e-4 0.01488 6.59e-4 0.07891 0.007056 0.1557 0.0773 0.2308 0.2109 0.07441 0.1324 0.1352 0.2571 0.1352 0.2771 0 0.01994-0.1331 0.09527-0.2959 0.1673-0.1628 0.07201-0.3022 0.1309-0.3095 0.1309-0.1266 0-0.1296-0.4387-0.004293-0.6176 0.07843-0.112 0.1545-0.1685 0.2288-0.1693zm-0.6404 0.3729c0.05943-0.00396 0.0615 0.05922 0.0615 0.2777v0.3088l-0.4281 0.1855c-0.2356 0.102-0.4514 0.1952-0.4797 0.207-0.0283 0.01173-0.05158-0.1101-0.05158-0.2708 0-0.2868 0.006078-0.2951 0.324-0.4563 0.1781-0.09025 0.394-0.1909 0.4797-0.2235 0.03798-0.01444 0.06653-0.02495 0.08827-0.02777 0.002041-2.62e-4 0.004037-5.31e-4 0.00595-6.59e-4zm7.641 0.286c0.0388 0 0.1742 0.1798 0.3009 0.3997 0.2604 0.4521 0.9655 1.456 1.359 1.935 0.1446 0.1759 0.301 0.3693 0.3478 0.4298 0.07452 0.09624 0.03095 0.1882-0.3495 0.736-0.239 0.3442-0.6338 0.8919-0.8774 1.217-0.3981 0.5318-0.4632 0.5914-0.643 0.5868-0.1101-0.002783-0.229-0.01498-0.2642-0.02711-0.03519-0.01213-0.4096-0.07199-0.8318-0.1329l-0.7677-0.1108-0.5015-0.486c-0.5302-0.5136-2.077-2.235-2.339-2.603-0.08526-0.1198-0.141-0.2319-0.124-0.249 0.01704-0.01704 0.3839 0.07052 0.8153 0.1947 0.4314 0.1242 1.042 0.2947 1.356 0.3789l0.5716 0.1531 0.1623-0.1716c0.08913-0.09442 0.5112-0.6396 0.938-1.211 0.4268-0.5718 0.8076-1.039 0.8464-1.039zm-8.828 0.3197c0.0186 0 0.03372 0.1148 0.03372 0.2552 0 0.2527-0.004056 0.2573-0.4245 0.448-0.2336 0.1059-0.4497 0.1924-0.4801 0.1924-0.07611 0-0.06923-0.2378 0.01124-0.3881 0.05454-0.1019 0.7415-0.5075 0.8596-0.5075zm-1.305 0.6731c0.05432-0.004312 0.05885 0.04276 0.05885 0.1851 0 0.1889-0.02967 0.2274-0.24 0.3131-0.1319 0.05375-0.3478 0.1436-0.4797 0.1997-0.2182 0.09276-0.2397 0.09287-0.2397 9.91e-4 0-0.2502 0.251-0.4598 0.8017-0.6692 0.03708-0.0141 0.06554-0.0242 0.08728-0.0281 0.004075-7.3e-4 0.007946-0.001369 0.01157-0.001657zm-1.156 0.5359v0.1885c0 0.1727-0.03615 0.2026-0.4321 0.362-0.2375 0.09564-0.4675 0.1882-0.5115 0.2056-0.04784 0.01896-0.08001-0.01949-0.08001-0.09588 0-0.09473 0.132-0.1965 0.5118-0.3941zm-1.382 0.7102c0.1052 0 0.02051 0.2022-0.1051 0.2509-0.07917 0.03073-0.2939 0.1156-0.4771 0.1885-0.2643 0.1051-0.3255 0.1129-0.2969 0.03835 0.03058-0.07968 0.7631-0.4777 0.8791-0.4777zm-1.307 0.6559c0.009373-2.37e-4 0.017 5.89e-4 0.02282 0.002642 0.04159 0.0147-0.03568 0.0741-0.1719 0.1319-0.268 0.1137-0.2962 0.1208-0.2962 0.07472 0-0.05454 0.3347-0.2065 0.4453-0.2093zm16.31 0.2076 0.329 0.32c0.181 0.1759 0.5893 0.6003 0.9069 0.9432l0.5773 0.6235-0.4553 1.136c-0.2503 0.6246-0.512 1.229-0.5816 1.344-0.1394 0.2291-0.195 0.2362-1.159 0.1498-0.3869-0.0347-0.4765-0.07386-1.056-0.4605-0.8171-0.5456-2.2-1.641-2.2-1.742 0-0.01215 0.2663 0.01552 0.5918 0.0615 0.3255 0.04597 0.7237 0.1021 0.8847 0.1246l0.2926 0.041 0.7948-1.104c0.4371-0.6073 0.8577-1.179 0.9346-1.27zm2.029 2.15c0.02674-0.001695 0.2525 0.1809 0.5134 0.4159 0.2694 0.2425 0.7568 0.6623 1.083 0.933 0.3263 0.2707 0.6102 0.5199 0.6311 0.5538 0.02093 0.03388-0.146 0.5466-0.371 1.139l-0.409 1.077-0.2149 0.01719c-0.2636 0.02116-1.545-0.4941-2.646-1.064l-0.7677-0.3974 0.4863 0.03637c0.3569 0.02654 0.505 0.01387 0.5554-0.04694 0.03784-0.0456 0.3033-0.6577 0.5898-1.36 0.2866-0.7028 0.5327-1.289 0.5468-1.304 4.42e-4 -4.41e-4 0.00112-6.07e-4 0.001984-6.59e-4zm2.566 2.104c0.01767 0 0.1146 0.05873 0.2156 0.1306 0.1009 0.07186 0.6146 0.3448 1.142 0.6064l0.9585 0.4754-0.03438 0.2413c-0.01876 0.1328-0.0764 0.4994-0.1283 0.8146s-0.1142 0.608-0.1382 0.6506c-0.03248 0.05769-0.3639-0.00453-1.291-0.2423-0.6861-0.176-1.312-0.3356-1.392-0.3544-0.07919-0.01888-0.1438-0.08281-0.1438-0.1425 0-0.2256 0.7276-2.18 0.8117-2.18zm2.588 1.38c0.04321-0.00595 0.5386 0.1001 1.126 0.2417l1.103 0.2658 3.27e-4 0.2946c1.53e-4 0.162-0.01839 0.4714-0.041 0.6877l-0.041 0.3931-0.5825-0.00595c-0.5636-0.00599-1.683-0.146-1.757-0.2195-0.03694-0.03694 0.1425-1.612 0.1888-1.656 4.41e-4 -4.3e-4 0.001254-8e-4 0.002648-9.9e-4zm10.15 0.1144c0.007895-1.4e-4 0.01224 0.0016 0.01224 0.00529 0 0.01371-0.1293 0.09731-0.2876 0.1858s-0.288 0.1353-0.288 0.1038c0-0.03147 0.05565-0.08692 0.1236-0.1233 0.1539-0.08235 0.3845-0.1706 0.4397-0.1716zm-1.03 0.3819c0.05139-9.7e-4 0.08953 0.00193 0.1147 0.0086 0.1008 0.02666-0.00753 0.1144-0.3204 0.2642-0.2463 0.1179-0.6427 0.2872-0.8811 0.3762l-0.4334 0.162-0.06249-0.164c-0.1392-0.3662-0.1253-0.376 0.764-0.5362 0.392-0.07065 0.6644-0.1079 0.8186-0.1108zm-6.483 0.119c0.3561-0.00307 2.054 0.1868 2.113 0.2446 0.03155 0.0312 0.07123 0.2741 0.08828 0.5399l0.03108 0.483h-2.403l0.0367-0.6136c0.02014-0.3375 0.05132-0.6282 0.06943-0.6464 0.004804-0.0048 0.0273-0.00728 0.06414-0.0076zm4.122 0.2106c0.02617-2e-5 0.05123 1.8e-4 0.07538 3.3e-4 0.1932 0.00122 0.3189 0.00818 0.3303 0.0205 0.02276 0.02463 0.0604 0.162 0.08364 0.3052l0.04199 0.2602-0.3964 0.1104c-0.2181 0.06064-0.5958 0.1521-0.8394 0.2033-0.2436 0.05125-0.5406 0.09323-0.6599 0.09323-0.2357 0-0.2555-0.04468-0.3012-0.6784l-0.01885-0.2625 1.024-0.03835c0.2465-0.00916 0.4771-0.01373 0.6602-0.01389z"/></svg>
