<?xml version="1.0" encoding="utf-8"?>
<!-- Generator: Adobe Illustrator 16.0.0, SVG Export Plug-In . SVG Version: 6.00 Build 0)  -->
<!DOCTYPE svg PUBLIC "-//W3C//DTD SVG 1.1//EN" "http://www.w3.org/Graphics/SVG/1.1/DTD/svg11.dtd">
<svg version="1.1" id="Layer_1" xmlns="http://www.w3.org/2000/svg" xmlns:xlink="http://www.w3.org/1999/xlink" x="0px" y="0px"
	 width="128px" height="128px" viewBox="0 0 128 128" enable-background="new 0 0 128 128" xml:space="preserve">
<path fill="#010101" d="M38.921,107.423c-4.748-3.736-9.814-7.316-13.275-12.359c-7.286-8.895-12.894-19.189-16.728-30.01
	c-2.319-7.035-3.11-14.58-6.1-21.343c-3.125-4.915,0.537-10.281,5.919-11.844c2.393-0.46,6.606-2.723,1.521-1.104
	c-4.561,3.346-4.999-3.038-0.324-3.444c3.19-0.421,4.365-3.032,3.273-5.38c-3.425-2.239,8.306-4.691,2.401-8.024
	c-6.146-6.633,8.6-7.91,4.961-0.374c-0.87,5.791,10.308-1.066,7.712,5.626c2.637,3.213,9.872,0.733,9.69,5.238
	c3.841,0.264,5.158,3.491,8.761,3.742c3.737,1.686,10.508,3.013,11.778,7.225c-3.706,2.934-12.284-6.062-12.699,2.061
	c1.12,11.997,0.836,24.355,5.223,35.781c2.075,6.916,7.111,12.359,11.654,17.748c4.349,5.277,10.241,8.996,16.247,12.121
	c5.268,2.482,10.943,4.131,16.686,5.164c2.326-1.779,6.438-8.4,10.068-5.609c0.174,3.137-7.204,6.559-0.346,6.211
	c4.029-1.217,6.822,3.117,10.141-0.791c3.057,3.617,12.706-2.314,10.531,5.086c-2.942,1.898-7.232,0.754-10.178,3.361
	c-4.855-2.424-8.722,2.17-14.102,1.59c-5.967,1.07-12.046,1.5-18.098,1.512c-9.934-0.785-20.073-1.115-29.523-4.574
	C48.793,113.485,43.6,110.454,38.921,107.423L38.921,107.423z M47.308,111.058c5.198,2.242,10.28,4.615,15.977,5.33
	c9.038,1.256,18.369,3.191,27.438,1.428c-4.104-1.857-8.349,0.719-12.439-1.324c-4.9,1.053-10.166-0.271-15.154-0.928
	c-5.667-2.523-11.786-4.258-17.095-7.537c-6.635-2.426,3.431,3.107,5.223,3.555c4.146,2.355-4.561-1.205-5.79-2.182
	c-3.473-1.949-3.916-1.541-0.343,0.436C45.843,110.255,46.555,110.696,47.308,111.058L47.308,111.058z M37.418,104.067
	c5.038,1.869-0.023-3.539-2.328-3.227c-1.023-1.775-3.907-2.898-1.873-3.848c-3.658,1.271-3.834-4.834-5.553-3.957
	c-3.873-1.225-1.506-5.555-6.121-8.217c-0.421-2.803-4.583-5.232-5.907-9.457c-0.585-2.166-4.703-8.377-2.173-2.598
	c2.15,5.568,5.937,10.338,9.09,15.1c2.447,4.533,5.337,9.275,9.793,12.102C33.85,101.409,35.297,103.618,37.418,104.067
	L37.418,104.067z M22.913,88.138C23.086,87.376,23.831,89.782,22.913,88.138L22.913,88.138z M43.453,106.306
	C44.567,105.804,41.849,105.673,43.453,106.306L43.453,106.306z M46.184,107.298C45.902,105.925,44.938,108.071,46.184,107.298
	L46.184,107.298z M49.608,108.728C51.236,107.175,47.096,107.749,49.608,108.728L49.608,108.728z M55.474,111.997
	C56.464,110.534,52.305,111.446,55.474,111.997L55.474,111.997z M44.211,104.147C46.74,102.507,40.939,104.124,44.211,104.147
	L44.211,104.147z M46.777,105.423C46.704,104.56,45.862,105.813,46.777,105.423L46.777,105.423z M59.605,113.433
	c2.063,1.303,12.048,2.854,5.797,0.533C64.354,114.19,53.811,110.985,59.605,113.433L59.605,113.433z M39.24,97.567
	C39.039,96.704,36.038,96.61,39.24,97.567L39.24,97.567z M45.21,101.054C46.766,99.966,41.984,100.216,45.21,101.054L45.21,101.054z
	 M50.237,104.132C52.465,103.292,46.619,103.288,50.237,104.132L50.237,104.132z M36.806,94.925
	c2.422,1.854,9.765,0.238,3.707-1.107c-2.754-1.471-8.962-2.477-4.731,0.885L36.806,94.925L36.806,94.925L36.806,94.925z
	 M53.638,105.194C54.649,103.478,49.409,104.216,53.638,105.194L53.638,105.194z M48.525,101.128
	c5.917,1.676-4.977-3.74-1.461-0.611l0.78,0.352L48.525,101.128L48.525,101.128L48.525,101.128z M58.779,107.058
	C64.383,107.112,53.715,106.286,58.779,107.058L58.779,107.058L58.779,107.058z M34.651,91.679
	C34.431,90.636,33.27,91.769,34.651,91.679L34.651,91.679z M68.258,112.374C68.408,110.491,66.43,113.78,68.258,112.374
	L68.258,112.374z M44.216,97.536C43.875,96.544,42.465,97.493,44.216,97.536L44.216,97.536z M35.182,91.024
	C38.4,90.831,30.776,89.608,35.182,91.024L35.182,91.024z M24.48,84.108C24.08,82.563,20.979,81.337,24.48,84.108L24.48,84.108z
	 M52.575,101.938C51.988,101.265,52.298,102.085,52.575,101.938L52.575,101.938z M70.061,112.669
	C70.006,111.64,69.107,113.058,70.061,112.669L70.061,112.669z M51.027,100.341C51.344,99.017,48.284,99.938,51.027,100.341
	L51.027,100.341z M38,92.081C40.396,91.827,34.164,90.464,38,92.081L38,92.081z M60.037,105.778
	C63.77,104.298,56.401,105.056,60.037,105.778L60.037,105.778z M48.576,97.997c4.297,0.555-5.117-2.928-0.945-0.313L48.576,97.997
	L48.576,97.997L48.576,97.997z M63.517,107.183c4.015-2.396,2.69,5.621,6.811,0.68c4.063-2.971-3.508,3.668,1.498,0.525
	c3.622-2.424,8.971,1.15,12.35,2.313c2.429-0.117,4.795,2.102,7.285,0.752c4.797-1.293-9.379-1.916-5.662-4.207
	c-4.391,1.275-7.63-1.521-9.791-4.334c-4.922-1.135-10.613-3.648-13.07-8.012c-1.002-1.633,1.446,0.232-0.865-2.441
	c-2.965-2.635-4.446-5.633-6.437-8.84c-2.378-1.268-2.659-5.002-2.898-0.121c0.02-3.08-2.873-5.154-3.578-4.295
	c-0.012-2.965,3.094-1.48,0.92-3.672c-0.468-3.074-2.01-6.277-2.472-9.744c-0.719-1.675-0.102-5.257-2.458-1.47
	c-0.856,4.003-0.284-4.915,1.052-1.978c1.75-3-0.632-2.646-0.727-2.232c1.141-2.53,0.723-6.123-0.299-4.754
	c0.61-2.684,0.962-9.878-0.907-8.601c1.132-2.812,2.15-12.846-2.774-9.018c-1.993,0.027-5.447,0.721-7.078,1.533
	c5.116,2.823-0.517,1.021-2.603,0.569c-0.271,2.611-2.335,1.485-4.913,1.51c4.121,0.51-2.005,4.214-4.365,2.773
	c-3.071,1.464,2.646,5.127,0.061,6.262c0.318,1.704-4.701-0.617-4.309,3.324c-2.979-1.255-0.408,4.675,1.082,2.669
	c5.067,1.371,3.567,4.496,3.695,7.467c-0.825,1.728-4.077-4.066-0.724-3.802c-2.645-4.291-2.925-1.552-5.122,0.443
	c-0.51,0.146,5.604,2.843,1.767,4.175c3.375,0.519,3.474,3.476,4.162,5.343c2.028,2.115,1.611-2.334,4.041,0.207
	c-1.537-2.262-8.139-6.377-2.824-5.059c-0.03-2.276-0.962-4.114,0.668-4.069c1.613-2.921-1.691,7.202,1.945,3.489
	c1.006-0.438,1.257-2.922,3.066,0.236c2.627,2.583,0.95,4.457-2.757,2.089c0.662,2.25,4.958,3.051,4.15,6.57
	c0.854,3.096,2.054,1.957,3.097,1.779c0.819,3.008,1.284,0.799,1.323-0.637c3.748,0.801,2.869,3.018,4.042,4.566
	c2.583,1.166-3.695-7.902,0.737-2.725c4.664,4.211,1.751,5.969-2.436,5.293c2.649-0.211,3.502,3.586,6.817,3.449
	c3.022,1.438,5.07,6.959-0.141,4.662c-1.805-1.629-8.203-3.639-2.977-0.539c4.822,2.232,8.655,3.566,13.308,6.371
	c3.328,2.377,4.766,5.098,6.026,5.637c-2.798,1.338-8.429-1.066-4.247-1.801c-2.61-0.475-5.546-1.797-3.047,1.453
	c2.126,1.777,7.531,1.59,8.502,1.791c-0.822,1.809-2.231,1.951,0.032,2.092C59.949,106.204,63.285,106.415,63.517,107.183
	L63.517,107.183z M58.353,92.595c-1.539-1.609-1.936-4.613-0.274-1.996C58.932,90.938,60.806,95.515,58.353,92.595L58.353,92.595
	L58.353,92.595z M75.174,103.282C76.133,103.22,75.203,104.013,75.174,103.282L75.174,103.282z M55.926,88.655
	C55.865,86.224,56.478,90.53,55.926,88.655L55.926,88.655z M54.253,86.405C52.317,82.671,56.691,87.464,54.253,86.405L54.253,86.405
	z M33.987,72.421C35.126,72.118,34.549,74.36,33.987,72.421L33.987,72.421z M50.118,81.161
	C50.815,78.538,50.936,83.356,50.118,81.161L50.118,81.161z M38.724,73.239C37.921,71.79,40.403,74.595,38.724,73.239L38.724,73.239
	z M48.5,76.37c-1.831-4.102,1.3-2.242,0.408,0.672L48.5,76.37L48.5,76.37L48.5,76.37z M31.64,65.128
	c-0.819-1.348-2.171-5.295-1.736-6.502c0.391,1.964,4.175,8.452,1.853,2.688c-2.563-4.829,3.067,1.568,3.646,2.774
	c0.271,1.195-1.584-0.327-0.329,2.482C32.786,63.371,33.725,68.335,31.64,65.128L31.64,65.128z M26.43,61.535
	C26.643,58.407,27.621,63.681,26.43,61.535L26.43,61.535z M28.773,62.345C29.893,59.983,30.667,65.636,28.773,62.345L28.773,62.345z
	 M23.134,57.984c-1.939-1.932-3.345-3.707,0.091-1.197c1.321,0.049-2.941-4.041,0.32-1.299
	C26.971,56.111,25.236,61.105,23.134,57.984L23.134,57.984z M26.094,57.908C27.222,56.789,26.693,59.006,26.094,57.908
	L26.094,57.908z M27.92,58.488C26.208,55.29,29.993,59.833,27.92,58.488L27.92,58.488z M24.295,55.028
	c-5.639-5.021,7.085,2.623,0.921,0.929L24.295,55.028L24.295,55.028L24.295,55.028z M40.456,64.414
	c-2.442-1.462-0.649-10.301,0.186-4.257c2.372-0.768-0.133,3.124,1.635,3.086C42.001,65.696,41.208,66.579,40.456,64.414
	L40.456,64.414z M46.434,67.946C46.672,65.282,46.935,69.771,46.434,67.946L46.434,67.946z M45.396,66.921
	C45.664,65.786,45.42,68.261,45.396,66.921L45.396,66.921z M25.4,53.377c-3.623-5,10.532,5.056,2.322,1.267
	C26.865,54.421,25.832,54.34,25.4,53.377L25.4,53.377z M36.911,59.479C36.568,55.27,37.676,60.178,36.911,59.479L36.911,59.479
	L36.911,59.479z M45.652,65.089C46.325,62.689,45.702,66.671,45.652,65.089L45.652,65.089z M25.958,51.47
	c2.153-0.462,8.922,3.777,2.707,1.209C27.974,51.917,26.5,52.262,25.958,51.47L25.958,51.47z M44.449,60.685
	c0.229-4.304,1.286-2.568,0.009,0.617L44.449,60.685L44.449,60.685L44.449,60.685z M27.561,49.971
	c0.879-1.286-2.333-5.816,0.462-1.624c1.206,0.959,3.492,1.605,1.474,2.01C32.67,53.155,28.722,51.116,27.561,49.971L27.561,49.971z
	 M43.535,59.343C44.14,54.439,44.07,62.213,43.535,59.343L43.535,59.343z M25.726,45.443C26.398,45.158,26.082,46.335,25.726,45.443
	L25.726,45.443z M29.894,47.923C30.966,45.672,31.871,50.433,29.894,47.923L29.894,47.923z M41.647,54.46
	C41.637,53.599,41.869,55.717,41.647,54.46L41.647,54.46z M40.966,52.954C39.335,48.93,42.484,55.085,40.966,52.954L40.966,52.954z
	 M39.964,50.313C39.691,48.651,40.897,52.404,39.964,50.313L39.964,50.313L39.964,50.313z M41.596,47.667
	c-1.122-1.97,1.414-8.694,1.697-4.525c-1.182,3.248-0.341,5.063,0.48,0.705C45.296,40.42,43.446,50.616,41.596,47.667L41.596,47.667
	L41.596,47.667z M43.272,37.67C43.758,37.069,43.379,38.391,43.272,37.67L43.272,37.67z M40.472,92.8
	C39.811,92.22,40.559,93.165,40.472,92.8L40.472,92.8z M46.236,95.712c3.206,0.826,3.19-0.496,0.292-0.891
	c-1.556-1.449-6.475-2.986-2.073-0.18C44.746,95.382,45.666,95.362,46.236,95.712L46.236,95.712z M34.855,88.151
	c1.764,1.32,6.652,3.732,2.516,0.504c1.395-1.621-2.67-2.486-1.322-3.568c-3.43-2.098-2.708-1.912-0.302-1.844
	c-4.121-1.844,0.596-1.705,0.373-2.65c-1.589-0.313-7.894-2.805-4.186,0.205c-3.769-1.922-0.898,0.713-2.037,0.436
	c-3.856-1.051,3.433,2.938-0.611,1.947c2.21,1.752,5.951,4.49,0.933,1.854C29.56,85.987,33.813,87.431,34.855,88.151L34.855,88.151z
	 M40.881,91.618C48.209,93.978,37.286,88.728,40.881,91.618L40.881,91.618z M71.738,110.31
	C71.834,108.854,70.736,111.552,71.738,110.31L71.738,110.31z M74.91,111.644c1.69-1.637,0.071,2.613,2.802-0.4
	c0.029-2.156-0.081-3.43-3.138-0.809C73.728,110.903,73.354,112.886,74.91,111.644L74.91,111.644z M24.567,80.028
	C24.048,77.983,20.926,77.997,24.567,80.028L24.567,80.028z M27.952,82.245C26.693,80.157,23.463,80.358,27.952,82.245
	L27.952,82.245z M47.219,93.864c1.882,1.674,8.64,1.229,2.285,0.207C48.561,92.681,43.53,93.013,47.219,93.864L47.219,93.864z
	 M73.702,110.224C76.597,107.794,70.898,111.306,73.702,110.224L73.702,110.224z M79.725,114.36
	C79.744,113.577,78.478,114.7,79.725,114.36L79.725,114.36z M79.735,113.269C82.941,109.874,76.629,113.468,79.735,113.269
	L79.735,113.269L79.735,113.269z M16.237,73.054c-2.732-3.896-1.698-5.65-4.333-8.832c-0.502-2.437-4.522-7.959-2.08-2.111
	C12.06,65.534,12.721,70.833,16.237,73.054L16.237,73.054z M78.729,112.188C84.63,108.374,76.31,110.532,78.729,112.188
	L78.729,112.188z M83.232,113.952C86.186,111.417,81.362,113.421,83.232,113.952L83.232,113.952z M23.562,75.72
	C24.408,74.462,21.38,75.554,23.562,75.72L23.562,75.72z M82.29,112.747c2.862-1.842-0.657-1.557-0.518,0.17L82.29,112.747
	L82.29,112.747L82.29,112.747z M43.481,88.288C43.381,87.038,41.969,88.392,43.481,88.288L43.481,88.288z M45.879,89.665
	C45.116,88.124,44.708,89.909,45.879,89.665L45.879,89.665z M86.88,113.995c3.665-2.645-2.22-0.508-0.768,0.5L86.88,113.995
	L86.88,113.995L86.88,113.995z M85.478,113.317C88.463,110.815,82.326,114.425,85.478,113.317L85.478,113.317z M92.645,118.089
	C94.65,116.749,90.211,117.655,92.645,118.089L92.645,118.089z M25.4,74.812c2.685,0.6,10.736,6.611,5.986,0.418
	c-2.431-0.721-0.974-6.666-3.455-5.617c1.666,2.783,1.369,3.965-2.127,2.215c-4.391-2.146-2.467,1.061-1.607,1.945
	C23.026,74.042,25.745,74.79,25.4,74.812L25.4,74.812z M13.165,65.146c0.479-1.988-4.43-10.938-2.319-4.485
	C11.606,62.013,11.527,64.578,13.165,65.146L13.165,65.146z M35.625,78.995C34.243,77.839,35.558,78.831,35.625,78.995
	L35.625,78.995z M39.03,79.786C39.03,77.679,35.265,78.931,39.03,79.786L39.03,79.786z M68.548,98.394
	C67.984,96.954,66.322,98.362,68.548,98.394L68.548,98.394L68.548,98.394z M69.965,99.429
	C69.754,98.622,69.145,99.583,69.965,99.429L69.965,99.429z M81.664,106.8C82.789,105.97,80.26,106.692,81.664,106.8L81.664,106.8z
	 M19.275,66.706C22.494,65.462,15.826,65.817,19.275,66.706L19.275,66.706z M65.949,96.11C65.912,94.026,63.896,96.628,65.949,96.11
	L65.949,96.11z M18.004,63.746C20.07,63.048,16.09,63.286,18.004,63.746L18.004,63.746z M24.001,66.649
	C23.967,65.966,23.37,66.909,24.001,66.649L24.001,66.649z M97.195,111.534c2.656-0.541,8.719,1.352,9.694-0.705
	c-3.229-0.08-11.167-2.281-11.544,0.521l0.708,0.113L97.195,111.534L97.195,111.534L97.195,111.534z M25.91,67.13
	C25.958,65.021,24.265,67.05,25.91,67.13L25.91,67.13z M10.135,56.186C9.418,52.167,7.41,55.579,10.135,56.186L10.135,56.186z
	 M13.896,57.133C13.944,55.839,10.452,55.97,13.896,57.133L13.896,57.133z M16.045,58.193
	C15.424,57.685,15.561,58.822,16.045,58.193L16.045,58.193z M29.574,66.864C30.212,66.278,28.066,66.435,29.574,66.864
	L29.574,66.864z M14.615,55.807C14.25,52.769,10.257,55.352,14.615,55.807L14.615,55.807z M6.899,50.805
	C6.793,49.4,6.149,51.332,6.899,50.805L6.899,50.805z M8.051,49.938C7.861,48.274,7.063,50.146,8.051,49.938L8.051,49.938z
	 M14.387,53.718c2.681-1.05-4.881-2.177-0.548-0.198L14.387,53.718L14.387,53.718z M99.23,106.126
	C100.945,104.554,97.051,105.638,99.23,106.126L99.23,106.126z M109.479,111.437C110.168,109.405,107.746,111.704,109.479,111.437
	L109.479,111.437z M15.035,50.397C15.32,48.43,12.909,50.789,15.035,50.397L15.035,50.397z M6.015,44.354
	c-0.484-2.776-0.417-7.653,4.216-6.006c-6.183,1.23,4.284,7.691,2.962,2.588c2.602,0.129,5.089-1.536,3.722,0.988
	c5.127-0.563,8.678-5.01,13.629-4.384c3.855-0.514,8.073-0.898,12.228-2.452c3.417-0.245,6.705-3.927,4.835-6.105
	c-4.658-0.395-9.539,0.188-14.687,1.214c-5.705,1.184-10.89,3.438-16.647,4.406c-5.614,0.756,1.127,2.077-0.48,2.372
	c-2.927,1.017,3.492,1.702-0.38,2.773c-2.391-0.455-4.881-1.277-3.859-3.799c-5.375,0.701-10.103,2.931-5.854,8.4L6.015,44.354
	L6.015,44.354L6.015,44.354z M18.972,37.756c1.258-4.642,6.75,3.821,2.064,0.617C20.478,37.952,19.553,37.611,18.972,37.756
	L18.972,37.756z M19.216,35.503C21.035,34.151,20.181,36.267,19.216,35.503L19.216,35.503z M21.525,35.542
	c0.166-2.136,5.289,1.133,0.844,0.77L21.525,35.542L21.525,35.542L21.525,35.542z M24.682,34.271
	C25.839,32.921,25.018,35.47,24.682,34.271L24.682,34.271z M25.494,33.733c1.922-2.311,10.88-1.477,4.324-0.229
	C28.06,32.179,26.713,34.284,25.494,33.733L25.494,33.733z M37.185,31.929C36.896,25.62,42.998,34.167,37.185,31.929L37.185,31.929z
	 M40.505,31.909c1.213-3.177,4.709-1.276,0.563-0.638C41.156,31.61,40.944,32.913,40.505,31.909L40.505,31.909z M13.728,48.767
	C17.35,46.546,9.881,46.838,13.728,48.767L13.728,48.767L13.728,48.767z M16.408,49.509C17.68,48.16,13.644,48.961,16.408,49.509
	L16.408,49.509z M8.511,43.909C10.582,42.316,6.06,43.302,8.511,43.909L8.511,43.909z M115.529,110.858
	C115.592,109.011,113.946,111.688,115.529,110.858L115.529,110.858z M104.656,103.437
	C104.964,101.312,103.258,103.618,104.656,103.437L104.656,103.437z M118.52,111.573c2.895,0.01,8.772-0.9,2.474-0.898
	C120.004,110.829,115.233,110.8,118.52,111.573L118.52,111.573L118.52,111.573z M18.765,48.207c2.344-0.16,3.665-2.583-0.455-2.447
	c-6.385-0.657,5.632,2.189-0.819,1.376C16.625,47.706,18.714,48.366,18.765,48.207L18.765,48.207z M20.828,49.25
	C20.584,47.747,20.101,50.05,20.828,49.25L20.828,49.25z M23.277,42.724C24.292,41.46,21.869,42.385,23.277,42.724L23.277,42.724z
	 M15.479,29.696c4.186-1.421,9.906-3.019,11.879,0.701c-2.009-2.416-0.813-4.799,1.086-1.262c2.684,3.577,4.028-1.627,2.282-2.829
	c1.991,2.472,4.252,3.642,1.333,0.156c3.173-3.815-6.355,0.5-8.519,0.457C22.5,27.387,12.785,29.396,15.479,29.696L15.479,29.696z
	 M17.934,25.004c2.385-1.801,8.25,1.069,4.486-1.793C22.052,22.889,14.181,25.385,17.934,25.004L17.934,25.004z M26.63,25.364
	c2.79,0.068-1.203-3.752,2.12-2.021c-0.544-1.783-3.872-2.117-5.499-2.831C22.331,22.143,25.123,25.385,26.63,25.364L26.63,25.364z
	 M19.459,17.467C20.424,16.162,17.765,18.134,19.459,17.467L19.459,17.467z M23.013,18.318c4.5-0.594-1.147-1.936-0.908-0.047
	L23.013,18.318L23.013,18.318L23.013,18.318z M16.375,13.126c-3.168-4.133,5.959,0.696,2.738-3.636
	C16.406,7.335,13.804,11.922,16.375,13.126L16.375,13.126z M57.024,35.021c1.452-2.574-5.997-3.471-0.978-0.912
	C56.509,34.263,56.403,35.199,57.024,35.021L57.024,35.021z"/>
</svg>
