<svg xmlns="http://www.w3.org/2000/svg" viewBox="0 0 128 128"><path fill="#6de1fa" d="M17.207 86.656c-5.888-1.544-10.483-4.987-13.9-10.418-1.256-1.996-1.276-2.7-.126-4.107.871-1.065.923-1.076 2.922-.614 1.603.37 2.194.727 2.792 1.7 1.166 1.886 4.713 5.065 6.845 6.134 6.594 3.304 14.623 1.943 19.794-3.353 1.126-1.153 2.272-2.647 2.55-3.32.28-.669.633-1.22.79-1.22.156 0 .61.72 1.005 1.604l.724 1.603 1.904-.227c2.226-.262 2.226-.2.04 3.094-2.82 4.252-8.226 7.955-13.58 9.308-3.14.798-8.33.716-11.76-.183zm0 0"/><path fill="#fe405f" d="M17.468 70.245c-3.019-3.668-5.85-7.372-6.288-8.236l-.803-1.565 6.485-6.516h12.496l3.266 3.278 3.262 3.281-.881 1.494c-1.059 1.796-11.392 14.883-11.775 14.908-.15.014-2.738-2.98-5.762-6.644Zm0 0"/><path fill="#97f0ff" d="M40.525 71.65c-.763-1.577-.814-1.98-.423-3.524.238-.959.363-3.297.273-5.195-.14-2.881-.367-3.864-1.387-5.937-2.383-4.837-6.321-8.185-11.171-9.499l-2.523-.685 1.013-1.33c1.001-1.314 1.01-1.353.352-2.722-.363-.767-.566-1.486-.453-1.6.422-.422 4.776.806 7.571 2.136 4.001 1.901 8.346 6.219 10.314 10.243 2.59 5.3 3.196 10.74 1.807 16.173-.43 1.674-.825 3.081-.876 3.129-.055.043-.891.19-1.865.332l-1.768.258zm0 0"/><path fill="#40daf4" d="M1.148 71.775c-1.506-3.959-1.534-10.78-.06-15.12C4.1 47.78 12.266 41.392 21.356 40.802l2.921-.192.896 1.603.896 1.608-1.072 1.49c-.997 1.389-1.271 1.522-3.935 1.936-3.958.614-6.844 2.077-9.668 4.9-4.768 4.769-6.132 10.537-4.193 17.71.23.853.16.91-.78.685a270.572 270.572 0 0 0-1.93-.47c-.711-.175-1.11.078-1.933 1.237l-1.035 1.454zm0 0"/><path d="M76.867 54.252c-1.995 0-3.559.465-4.693 1.393-1.127.919-1.69 2.185-1.69 3.8 0 1.389.408 2.472 1.221 3.254.822.774 2.15 1.342 3.988 1.705l1.502.3c1.252.25 2.148.624 2.692 1.124.551.5.828 1.2.828 2.096 0 1.025-.382 1.812-1.14 2.363-.764.556-1.847.83-3.255.83a10.002 10.002 0 0 1-2.832-.424 14.54 14.54 0 0 1-2.926-1.265v2.533a20.913 20.913 0 0 0 3.004.861 14 14 0 0 0 2.754.297c2.283 0 4.01-.454 5.192-1.361 1.177-.915 1.77-2.257 1.77-4.022 0-1.47-.44-2.643-1.315-3.52-.867-.883-2.219-1.504-4.053-1.86l-1.484-.297c-1.347-.25-2.267-.58-2.754-.987-.482-.414-.72-1.024-.72-1.83 0-.958.358-1.693 1.077-2.207.728-.52 1.77-.78 3.115-.78a9.319 9.319 0 0 1 2.393.329 15.514 15.514 0 0 1 2.644.984v-2.392a20.39 20.39 0 0 0-2.722-.69 14.786 14.786 0 0 0-2.596-.234zm-22.908.328v18.18h2.47v-7.682h2.676c.97 0 1.738.198 2.301.594.563.398 1.147 1.205 1.752 2.426l2.332 4.662h2.643l-2.504-4.975c-.5-1.02-1.001-1.823-1.502-2.41-.5-.583-1.017-.963-1.549-1.143 1.02-.289 1.8-.813 2.332-1.564.532-.76.797-1.707.797-2.846 0-1.752-.51-3.06-1.531-3.928-1.026-.876-2.58-1.314-4.664-1.314h-5.553zm2.473 2.018h3.08c1.19 0 2.084.273 2.691.814.602.544.908 1.347.908 2.41 0 1.064-.306 1.873-.908 2.424-.607.544-1.502.813-2.691.813h-3.08v-6.461zm37.103 2.191c-.993 0-1.845.198-2.566.594-.72.398-1.313 1.001-1.781 1.814v-2.08h-2.255v18.836h2.254V70.71c.47.814 1.064 1.42 1.784 1.816.72.395 1.57.595 2.564.594 1.66 0 3.004-.657 4.037-1.97 1.04-1.323 1.565-3.056 1.565-5.196 0-2.146-.524-3.88-1.565-5.193-1.033-1.315-2.378-1.97-4.037-1.97zm15.014 0c-2.046 0-3.673.658-4.881 1.973-1.2 1.314-1.799 3.09-1.799 5.32 0 2.158.634 3.873 1.908 5.145 1.27 1.261 2.99 1.893 5.16 1.892.865 0 1.722-.093 2.567-.281a13.597 13.597 0 0 0 2.473-.766v-2.129a10.473 10.473 0 0 1-2.409.955 9.768 9.768 0 0 1-2.488.313c-1.494 0-2.656-.4-3.49-1.205-.824-.814-1.289-1.99-1.39-3.535h10.308v-1.096c0-2.022-.54-3.62-1.61-4.8-1.064-1.19-2.515-1.786-4.35-1.786zm15.51 0c-2.129 0-3.803.641-5.024 1.924-1.22 1.276-1.83 3.018-1.83 5.24 0 2.19.604 3.935 1.817 5.227 1.208 1.294 2.836 1.94 4.894 1.94a10.032 10.032 0 0 0 2.129-.22 9.061 9.061 0 0 0 1.955-.658v-2.08a8.697 8.697 0 0 1-1.908.799 7.563 7.563 0 0 1-1.94.25c-1.451 0-2.578-.458-3.379-1.377-.806-.926-1.205-2.223-1.205-3.88 0-1.667.4-2.96 1.205-3.88.801-.915 1.927-1.377 3.377-1.377a7.252 7.252 0 0 1 1.942.266 8.438 8.438 0 0 1 1.908.783v-2.098a10.068 10.068 0 0 0-1.924-.64 9.316 9.316 0 0 0-2.017-.219zm-31.07 1.877c1.188 0 2.117.47 2.798 1.408.677.94 1.018 2.233 1.018 3.88 0 1.65-.341 2.942-1.018 3.88-.68.94-1.61 1.408-2.799 1.408-1.181 0-2.108-.469-2.785-1.408-.68-.938-1.016-2.23-1.016-3.88 0-1.648.335-2.94 1.016-3.88.677-.938 1.604-1.408 2.785-1.408zm15.59.031c1.102 0 1.99.368 2.66 1.096.664.73 1.008 1.705 1.032 2.926l-7.994.015c.114-1.282.546-2.272 1.297-2.972.751-.708 1.753-1.065 3.004-1.065z"/></svg>
