<svg xmlns="http://www.w3.org/2000/svg" viewBox="0 0 128 128">
  <path
    d="M107.95,23.09C99.69,8.73,76.66-4.4,50.65,3.11c-4.59,1.33-13.29,5.61-19.9,12.55-6.61,6.94-14.61,18.74-17.01,33.61-2.39,14.86-2.06,30.3,5.04,45.74,7.1,15.44,17.5,23.61,27.33,28.4s23.2,4.13,29.89,2.23c6.69-1.9,9.99-4.13,13.29-6.44,3.3-2.31,3.22-4.38,2.72-5.37-.5-.99-1.57-1.57-4.21-1.24s-5.04,.66-7.93,.5-11.23-2.15-17.75-8.5-11.89-17.17-13.13-26.09-1.32-24.61,4.54-32.7c5.86-8.09,12.14-8.17,15.85-8.01,3.72,.17,11.64,2.56,13.79,9.99,2.15,7.43,1.49,12.32-1.4,16.28-2.89,3.95-7.1,5.11-10.73,6.76-3.63,1.65-9.41,4.46-10.98,9.83-1.57,5.37-1.16,11.81,4.38,16.6s11.81,5.45,16.43,4.95c4.62-.5,9.17-2.64,14.37-6.85,5.2-4.21,15.28-14.94,18.58-27.58,3.3-12.63,2.39-30.3-5.86-44.67Z"
    fill="#77bf43" />
  <path
    d="M104.48,104.18s-5.45,3.3-4.21,6.52c1.24,3.22,3.3,2.89,5.28,2.81s4.05-2.06,4.79-3.39c.74-1.32,.5-3.47-.91-4.95-1.4-1.49-3.79-1.8-4.95-.99Z"
    fill="#77bf43" />
</svg>
