<svg xmlns="http://www.w3.org/2000/svg" viewBox="0 0 218 218"><g fill="#19191c" fill-rule="evenodd"><path d="M173.053 20.805 174.2 43.94c18.754 20.72 26.16 50.066 16.821 77.647-13.935 41.168-59.895 62.813-102.648 48.339C45.62 155.453 22.26 110.344 36.196 69.175c9.37-27.675 33.2-46.523 60.805-51.514L111.916.039C65.386-1.219 21.488 27.663 5.784 74.057c-19.297 57.006 11.271 118.861 68.276 138.16 57.005 19.296 118.86-11.273 138.157-68.278 15.68-46.32-1.562-95.846-39.164-123.134"/><path d="m146.331 89.07-.789-32.342-.632-18.61-.43-16.126s.09-7.772-.183-9.6a2.907 2.907 0 0 0-.32-.972c-.02-.035-.036-.074-.055-.113-.02-.036-.043-.067-.063-.102a2.525 2.525 0 0 0-1.375-1.136 2.524 2.524 0 0 0-1.816.085c-.015.004-.023.008-.035.012a4.55 4.55 0 0 0-.195.098 3.036 3.036 0 0 0-.793.55c-1.328 1.29-5.98 7.519-5.98 7.519L123.532 30.88l-11.806 14.396L91.45 70.491s-9.303 11.612-7.248 25.906c2.054 14.29 12.68 21.254 20.925 24.043 8.24 2.792 20.91 3.714 31.229-6.39 10.314-10.104 9.974-24.98 9.974-24.98"/></g></svg>
