<svg xmlns="http://www.w3.org/2000/svg" viewBox="0 0 128 128"><path fill="#19191c" d="M63.156.006C36.797.355 12.328 17.094 3.396 43.483c-11.33 33.471 6.618 69.79 40.089 81.121 33.47 11.33 69.789-6.618 81.12-40.089 9.206-27.197-.918-56.277-22.996-72.3l.673 13.584c11.012 12.166 15.36 29.398 9.877 45.592-8.182 24.172-35.168 36.88-60.27 28.382-25.103-8.498-38.82-34.983-30.637-59.156C26.754 24.367 40.747 13.3 56.955 10.37L65.712.023a63.484 63.484 0 0 0-2.556-.017Zm19.967 5.831a1.482 1.482 0 0 0-.53.125l-.02.007a2.672 2.672 0 0 0-.114.058 1.783 1.783 0 0 0-.466.323c-.78.757-3.511 4.414-3.511 4.414l-5.95 7.368-6.931 8.452-11.906 14.805s-5.462 6.818-4.256 15.21c1.206 8.391 7.446 12.48 12.287 14.118 4.838 1.64 12.277 2.181 18.336-3.751 6.056-5.933 5.856-14.668 5.856-14.668l-.462-18.99-.371-10.927-.253-9.468s.053-4.563-.107-5.636a1.707 1.707 0 0 0-.188-.572c-.012-.02-.021-.043-.033-.066-.011-.021-.024-.04-.036-.06a1.483 1.483 0 0 0-.808-.667 1.482 1.482 0 0 0-.537-.075z"/></svg>
