<svg xmlns="http://www.w3.org/2000/svg" viewBox="0 0 128 128"><g fill="#205081"><path d="M8.153 114.608c-3.36-.818-3.36-.818-3.36-2.98 0-1.63.348-2.07 2.794-2.07 1.53 0 3.358.193 5.014.532a.523.523 0 00.624-.443l.344-2.608a.522.522 0 00-.408-.58 28.066 28.066 0 00-5.632-.61c-4.96 0-6.984 1.648-6.984 5.687 0 2.1.163 3.504.993 4.473.75.876 2.026 1.424 4.706 2.023 3.505.76 3.505.843 3.505 2.98 0 1.822-.35 2.28-2.975 2.28-1.71 0-3.347-.256-5.304-.833a.524.524 0 00-.66.388l-.54 2.437a.523.523 0 00.305.594c1.27.538 3.73 1.12 6.137 1.12 6.125 0 7.286-2.104 7.286-5.988 0-2.002-.042-3.28-.866-4.257-.845-1.002-2.402-1.528-4.98-2.147zm14.27-3.358c-4.332 0-6.622 2.082-6.622 6.02v3.712c0 3.937 2.29 6.018 6.623 6.018 4.332 0 6.622-2.08 6.622-6.018v-3.712c0-3.938-2.29-6.02-6.622-6.02zm-2.493 5.9c0-1.62.746-2.312 2.492-2.312 1.747 0 2.492.69 2.492 2.31v3.954c0 1.62-.745 2.31-2.492 2.31-1.747 0-2.492-.69-2.492-2.31v-3.953zm23.39-5.597h-3.084a.522.522 0 00-.522.522v9.766c-1.11.566-2.673 1.15-3.608 1.15-.695 0-.953-.257-.953-.952v-9.962a.522.522 0 00-.522-.522h-3.084a.522.522 0 00-.522.522v10.355c0 3.033 1.192 4.57 3.544 4.57 1.635 0 3.862-.563 5.744-1.446l.225.77c.065.222.27.375.5.375h2.285c.29 0 .522-.235.522-.523v-14.1a.524.524 0 00-.523-.524zm10.79.26a.522.522 0 00-.688-.438c-1.135.39-2.473 1.153-3.264 1.655l-.153-1.03a.523.523 0 00-.517-.447h-2.553a.522.522 0 00-.522.522v14.1c0 .29.234.522.522.522h3.085c.29 0 .522-.234.522-.522v-9.055c1.172-.743 2.237-1.366 3.566-1.973a.522.522 0 00.302-.53l-.3-2.804zm11.375 11.691a.524.524 0 00-.633-.43 12.2 12.2 0 01-2.684.31c-1.957 0-2.523-.5-2.523-2.22v-4.075c0-1.724.566-2.222 2.523-2.222.464 0 1.622.064 2.685.308a.52.52 0 00.633-.43l.366-2.44a.523.523 0 00-.37-.58c-1.187-.35-2.576-.474-3.405-.474-4.66 0-6.562 1.7-6.562 5.868v4.014c0 4.167 1.9 5.867 6.562 5.867 1.134 0 2.44-.18 3.41-.472a.524.524 0 00.365-.578l-.367-2.446zm7.982-12.254c-4.135 0-6.32 2.06-6.32 5.96v3.892c0 4.024 2.047 5.898 6.44 5.898 1.792 0 3.7-.313 5.234-.86a.522.522 0 00.337-.597l-.456-2.208a.522.522 0 00-.653-.397c-1.415.4-2.765.595-4.128.595-2.25 0-2.644-.726-2.644-2.25v-.53h7.656c.29 0 .522-.235.522-.523v-2.84c0-4.188-1.9-6.14-5.987-6.14zm-2.19 6.097v-.5c0-1.453.706-2.13 2.22-2.13 1.674 0 2.01.815 2.01 2.13v.5h-4.23zm22.093-7.921v-2.753a.522.522 0 00-.522-.522H78.415a.522.522 0 00-.522.523v2.753c0 .29.234.522.522.522h5.09v16.227c0 .29.235.522.523.522h3.206c.29 0 .522-.234.522-.522v-16.227h5.09a.52.52 0 00.524-.522z"/><path d="M99.715 111.813a.522.522 0 00-.69-.438c-1.134.39-2.472 1.153-3.263 1.655L95.61 112a.523.523 0 00-.518-.447H92.54a.522.522 0 00-.523.522v14.1c0 .29.234.522.522.522h3.084c.29 0 .522-.234.522-.522v-9.055c1.172-.743 2.237-1.366 3.566-1.973a.522.522 0 00.302-.53l-.3-2.804zm7.802-.563c-4.135 0-6.32 2.06-6.32 5.96v3.892c0 4.024 2.047 5.898 6.44 5.898 1.792 0 3.7-.313 5.234-.86a.522.522 0 00.337-.597l-.456-2.208a.524.524 0 00-.653-.397c-1.415.4-2.765.595-4.128.595-2.25 0-2.644-.726-2.644-2.25v-.53h7.656c.29 0 .522-.235.522-.523v-2.84c0-4.188-1.9-6.14-5.987-6.14zm-2.19 6.097v-.5c0-1.453.706-2.13 2.22-2.13 1.674 0 2.01.815 2.01 2.13v.5h-4.23zm16.429-6.097c-4.135 0-6.32 2.06-6.32 5.96v3.892c0 4.024 2.047 5.898 6.44 5.898 1.792 0 3.7-.313 5.234-.86a.522.522 0 00.336-.597l-.456-2.208a.522.522 0 00-.654-.397c-1.415.4-2.765.595-4.128.595-2.248 0-2.643-.726-2.643-2.25v-.53h7.656c.29 0 .523-.235.523-.523v-2.84c0-4.188-1.902-6.14-5.987-6.14zm-2.19 6.097v-.5c0-1.453.705-2.13 2.22-2.13 1.673 0 2.01.815 2.01 2.13v.5h-4.23zM64 5C37.77 5 16.428 26.342 16.428 52.574S37.767 100.146 64 100.147c26.232 0 47.572-21.342 47.572-47.573S90.232 5 64.002 5zm2.507 90.36v-8.263l20.633-10.45a1.47 1.47 0 00.806-1.314v-4.73a4.495 4.495 0 003-4.705 4.495 4.495 0 10-8.94.922 4.488 4.488 0 003 3.783v3.826l-18.498 9.368v-7.685l8.154-3.772c.52-.238.852-.76.854-1.332l.016-12.802 15.09-8.477c.464-.26.75-.752.75-1.284v-3.57a4.493 4.493 0 00-1.932-8.715 4.494 4.494 0 00-4.01 4.933 4.49 4.49 0 003 3.782v2.71l-15.09 8.476a1.47 1.47 0 00-.75 1.283l-.017 12.722-6.066 2.804V45.204l12.695-6.208c.504-.244.825-.758.825-1.32v-4.73a4.493 4.493 0 00-1.932-8.714 4.494 4.494 0 00-4.01 4.934 4.486 4.486 0 003 3.78v3.813l-10.578 5.17V25.954a4.495 4.495 0 10-5.94-3.783 4.487 4.487 0 003 3.78v26.05l-7.478-3.93v-11.83c0-.458-.214-.89-.577-1.168L50.4 31.16a4.496 4.496 0 10-1.962 2.2l4.71 3.61v11.994c0 .547.304 1.05.788 1.303l9.632 5.06v9.568l-16.07-7.432.22-5.822a1.47 1.47 0 00-.8-1.364l-7.365-3.778c.11-.474.15-.972.097-1.482a4.496 4.496 0 00-8.942.923 4.495 4.495 0 004.932 4.01 4.452 4.452 0 002.33-.955l6.77 3.472-.22 5.866a1.472 1.472 0 00.852 1.39l18.195 8.416v6.83a1.482 1.482 0 000 .388v20.07a43.294 43.294 0 01-4.582-.29V77.88a1.47 1.47 0 00-.857-1.336L46.71 71.293a4.49 4.49 0 00-4.935-4.908 4.494 4.494 0 103.702 7.58l10.562 4.86v15.86c-19.844-3.743-34.905-21.197-34.905-42.11 0-23.636 19.23-42.867 42.865-42.867 23.636 0 42.864 19.23 42.864 42.866 0 22.794-17.885 41.483-40.357 42.785z"/></g></svg>