<svg
   width="128"
   height="128"
   viewBox="0 0 33.866667 33.866666"
   xmlns="http://www.w3.org/2000/svg">
   <g transform="translate(-67.509037,-155.79029)">
      <path
         style="stroke-width:0.266219"
         d="M 63.992188,0 37.039062,12.775391 c -14.82415,7.026935 -26.989423,12.815595 -27.035156,12.861328 -0.10377,0.103823 2.608322,55.721311 2.753906,56.474609 0.07005,0.362457 3.450641,2.968165 9.960938,7.673828 l 9.855469,7.123047 0.002,1.380859 c 0.0041,3.633898 1.281912,8.879528 2.996094,12.298828 4.533694,9.04335 13.974364,15.56623 24.820312,17.14649 0.875229,0.12734 3.045569,0.24477 4.824219,0.26367 9.562851,0.096 18.458243,-3.56993 24.865234,-10.24805 2.446228,-2.54974 3.933983,-4.71359 5.451172,-7.92773 1.335406,-2.82903 1.956848,-4.84563 2.265625,-7.77149 -2.022199,12.8362 -12.486796,22.98575 -26.28125,25.34961 -3.091718,0.52981 -9.169205,0.53377 -12.158203,0.008 -13.547822,-2.38465 -23.981563,-12.20559 -26.15625,-24.62304 -0.384915,-2.19787 -0.533917,-5.634769 -0.244141,-5.634769 0.08122,0 0.53288,0.29717 1.001954,0.660156 0.469066,0.363212 7.405458,5.384103 15.414062,11.158203 l 14.560547,10.49805 16.341797,-11.80469 c 8.988691,-6.4921 16.574981,-12.012007 16.857422,-12.267579 0.282444,-0.255496 0.576296,-0.40214 0.652343,-0.326172 0.161285,0.161357 0.263391,1.030424 0.298829,2.128907 l 0.09375,-2.292969 8.517585,-6.158203 8.51757,-6.158203 1.38086,-27.40625 c 0.76005,-15.074117 1.38855,-27.896787 1.39649,-28.494141 l 0.0156,-1.085938 L 91,12.800781 Z m 0.02344,8.34375 17.605469,8.318359 c 9.6831,4.574892 17.60921,8.377812 17.613281,8.451172 0.0072,0.120945 -22.252649,13.078867 -22.449219,13.06836 -0.04619,-0.002 -0.474259,-0.255086 -0.951172,-0.560547 -0.476908,-0.305386 -0.867187,-0.641842 -0.867187,-0.748047 0,-0.106205 1.440793,-3.296861 3.201172,-7.089844 1.760379,-3.79302 3.145106,-6.950605 3.078125,-7.017578 -0.06701,-0.0669 -2.893641,0.854358 -6.28125,2.046875 -3.387632,1.192517 -6.264769,2.167969 -6.394532,2.167969 -0.12975,0 0.734273,-2.222275 1.919922,-4.939453 1.185661,-2.717178 2.10336,-4.994304 2.039063,-5.058594 -0.06429,-0.06425 -4.314974,1.255597 -9.445313,2.933594 -5.130342,1.677996 -9.420565,3.022901 -9.533203,2.988281 -0.112667,-0.03402 0.992571,-1.681978 2.455078,-3.662109 l 2.658203,-3.601563 -2.199218,-1.066406 c -1.209521,-0.586961 -2.253351,-1.15617 -2.320313,-1.265625 -0.06701,-0.109607 2.12708,-1.271556 4.875,-2.582032 z m -13.244141,6.289062 1.97461,0.976563 1.972656,0.976563 -0.527344,0.728515 c -0.289663,0.400743 -2.147987,2.947665 -4.130859,5.660156 -1.98285,2.712492 -3.576706,4.960415 -3.541016,4.996094 0.03553,0.03402 4.852836,-1.491955 10.703125,-3.394531 5.850282,-1.902577 10.668303,-3.427412 10.707032,-3.388672 0.0387,0.03855 -0.934448,2.378331 -2.16211,5.199219 -1.227647,2.82085 -2.182707,5.128906 -2.123047,5.128906 0.05968,0 2.878764,-0.973108 6.265625,-2.162109 3.38685,-1.188964 6.213177,-2.105179 6.28125,-2.03711 0.169436,0.169323 -0.05887,0.716462 -2.519531,6.003906 l -2.144531,4.605469 1.335937,0.898438 1.335938,0.90039 -5.107422,2.966797 c -2.80958,1.631358 -5.127955,2.954484 -5.152344,2.941406 -0.02457,-0.01134 -7.937092,-4.605292 -17.583984,-10.205078 -9.64687,-5.599823 -17.537013,-10.241092 -17.533203,-10.314453 0.0038,-0.07332 4.944072,-2.461185 10.978515,-5.30664 z m 60.548823,25.453126 c 0.0511,-0.0081 0.0623,0.0095 0.0801,0.02734 0.13414,0.134173 -1.65509,36.77415 -1.80078,36.876953 -0.0447,0.03024 -8.24617,5.939968 -18.224607,13.13086 -9.978421,7.190891 -18.293148,13.162709 -18.476562,13.269529 -0.265626,0.15459 -0.331124,-4.003506 -0.326172,-20.431639 l 0.0059,-20.626953 15.923828,-9.205078 C 108.65381,41.478931 110.96268,40.142624 111.32031,40.085938 Z m -94.597651,0.0332 c 0.07292,-0.0069 0.167621,0.01146 0.28125,0.05469 0.256781,0.09751 9.019942,5.123522 19.472656,11.167969 l 19.003907,10.990234 0.0059,20.609375 c 0.003,11.335786 -0.08518,20.599924 -0.195312,20.585934 C 55.180956,103.51223 46.985143,97.62276 37.080078,90.4375 27.175014,83.25224 18.915445,77.283031 18.724609,77.171875 18.46008,77.01767 18.160434,72.663845 17.460938,58.845703 16.956321,48.877237 16.540627,40.558481 16.539062,40.359375 c -0.0011,-0.146929 0.06207,-0.228781 0.183594,-0.240234 z m 90.796871,15.419921 c -0.25039,0.01739 -0.61819,0.43501 -0.83008,0.992188 -0.19468,0.51205 -0.33712,0.608198 -0.56445,0.380859 -0.65073,-0.650721 -0.98202,0.168474 -0.82617,2.03711 0.1096,1.313764 0.0335,2.052991 -0.28516,2.814453 -0.54182,1.29411 -0.5512,1.798375 -0.0332,1.599609 0.21876,-0.08391 0.53651,-0.618341 0.70703,-1.1875 0.2688,-0.897222 0.35271,-0.97615 0.63086,-0.595703 0.20077,0.274772 0.49735,0.37082 0.79102,0.257813 0.36202,-0.138709 0.42537,-0.346667 0.27929,-0.910157 -0.43421,-1.674859 -0.44414,-3.191028 -0.0254,-4.193359 0.23452,-0.56126 0.37411,-1.07505 0.3086,-1.140625 -0.0419,-0.04188 -0.0946,-0.0587 -0.15235,-0.05469 z m -86.224605,0.574219 c -0.0251,-10e-4 -0.04734,9.02e-4 -0.06836,0.0039 -0.458895,0.06538 -0.568921,0.298839 -0.636718,1.359374 -0.130961,2.048618 0.5906,4.043719 1.955078,5.408204 2.224573,2.224592 3.920108,2.857546 4.240234,1.582031 0.29314,-1.167912 -0.342427,-4.174341 -1.089844,-5.154297 -0.938252,-1.23009 -3.622186,-3.166826 -4.40039,-3.199219 z m 0.519531,1.134766 c 0.276755,-0.0069 0.667753,0.215417 1.466797,0.769531 0.766163,0.531402 1.677372,1.388543 2.025391,1.904297 0.748195,1.1088 1.059954,3.152203 0.570312,3.742187 -0.432287,0.520895 -0.473464,0.515051 -1.759765,-0.255859 -2.255573,-1.352126 -3.85612,-5.007525 -2.636719,-6.019531 0.106346,-0.08823 0.208186,-0.137477 0.333984,-0.140625 z m 82.042964,1.03125 c -0.45605,0.02054 -1.39308,0.724655 -1.98633,1.535156 -0.66971,0.914986 -1.19701,4.326046 -0.80273,5.191406 0.39628,0.869745 1.11156,0.835825 2.00195,-0.09375 0.39696,-0.414781 0.83869,-1.162885 0.98242,-1.664062 0.35709,-1.245128 0.33522,-4.709002 -0.0312,-4.935547 -0.0431,-0.02665 -0.0989,-0.03614 -0.16406,-0.0332 z m -4.113276,0.966797 c -0.38052,-0.01494 -0.883178,0.245537 -1.439453,0.826172 -0.650291,0.678765 -0.80444,1.115452 -0.966797,2.734375 -0.106281,1.059779 -0.199914,2.920958 -0.208985,4.136718 -0.0155,2.096202 0.0088,2.19636 0.492188,1.9375 0.280554,-0.150047 0.942993,-0.779691 1.472656,-1.398437 1.255397,-1.466684 1.654317,-2.764768 1.236327,-4.03125 -0.23392,-0.708813 -0.238,-1.230409 -0.0176,-2.048828 0.36156,-1.342725 0.0658,-2.131343 -0.568356,-2.15625 z M 27.3418,59.982419 27.25391,60.722653 c -0.135345,1.145273 0.465854,6.095396 0.777344,6.404297 0.191698,0.19011 0.21807,-0.587222 0.08594,-2.517578 l -0.191407,-2.791016 1.308594,0.966797 c 1.248514,0.92092 2.022925,2.123564 1.623047,2.523438 -0.102539,0.102425 -0.604854,-0.01517 -1.117188,-0.257813 l -0.93164,-0.443359 1.097656,2.197266 c 1.088799,2.179577 1.811914,3.246679 2.044922,3.013671 0.06663,-0.06652 -0.192493,-0.682702 -0.576172,-1.36914 -0.383671,-0.686476 -0.697266,-1.285404 -0.697266,-1.330078 0,-0.0446 0.269426,-0.11915 0.59961,-0.166016 0.473786,-0.06728 0.616072,-0.28241 0.675781,-1.019531 0.12189,-1.504706 -0.897263,-3.148871 -2.876953,-4.642578 z m 75.62109,0.136719 c 0.0285,-6.68e-4 0.0569,0.0039 0.0859,0.01367 0.22254,0.07521 0.3005,0.540539 0.23633,1.414063 -0.18788,2.557039 -1.10352,3.55573 -1.10352,1.203125 0,-1.460197 0.35375,-2.620845 0.78125,-2.630859 z m -3.804684,0.757812 c 0.355476,-0.028 0.372787,0.324298 0.09375,1.169922 -0.401639,1.216952 -0.806177,1.222563 -0.806641,0.0098 v -0.002 c 3.33e-4,-0.601956 0.148894,-0.99663 0.41211,-1.097657 0.11853,-0.0455 0.218748,-0.07362 0.300781,-0.08008 z m -3.154297,0.505859 c -0.241774,0.0063 -0.61044,0.28048 -0.792968,0.748047 -0.157493,0.403541 -0.351345,2.5055 -0.431641,4.669922 -0.144378,3.891666 -0.140226,3.935547 0.425781,3.935547 0.314797,0 0.579738,-0.09119 0.587891,-0.201172 0.0079,-0.109984 0.06463,-1.987598 0.126953,-4.173828 0.06221,-2.186268 0.183282,-4.19704 0.269531,-4.46875 0.113202,-0.356669 0.0025,-0.514674 -0.185547,-0.509766 z m 2.84375,2.986329 c 0.704932,0.0034 0.676303,1.497213 -0.164062,2.257812 -0.489381,0.442847 -0.503906,0.417349 -0.503906,-0.792969 h -0.002 c 0,-0.900321 0.120161,-1.296027 0.427735,-1.414062 0.08853,-0.03398 0.169263,-0.05113 0.242187,-0.05078 z m -64.248047,0.898437 c -0.279793,-0.01739 -0.65865,0.867048 -1.505859,3.417969 -0.332069,0.999874 -0.537203,1.884668 -0.455078,1.966797 0.403521,0.403502 0.905949,-0.298734 1.474609,-2.064453 0.69594,-2.160794 0.752189,-2.145319 1.634766,0.419921 0.529561,1.539213 0.399714,1.737228 -0.677735,1.03125 -1.164351,-0.762897 -0.80754,0.285434 0.4375,1.285157 0.602491,0.483817 1.326475,1.328645 1.607422,1.878906 0.454039,0.889323 1.037823,1.342766 1.03125,0.800781 -0.0049,-0.404712 -3.175029,-8.419189 -3.43164,-8.675781 -0.03702,-0.03704 -0.07526,-0.05806 -0.115235,-0.06055 z m 58.681641,0.666016 c -0.623293,0 -2.306641,1.57787 -2.306641,2.162109 0,0.623395 0.213374,0.638033 0.853516,0.05859 0.368013,-0.332977 0.569942,-0.369413 0.794922,-0.144531 0.224995,0.224882 0.05885,0.571973 -0.654297,1.361328 -1.151388,1.274456 -1.902826,3.567884 -1.349609,4.121094 0.34473,0.34469 0.777697,0.171695 1.435547,-0.578126 0.365629,-0.41669 0.840588,-0.817314 1.054687,-0.888671 0.301644,-0.100536 0.411163,-0.801319 0.490234,-3.111329 0.08822,-2.579072 0.04531,-2.980468 -0.318359,-2.980468 z m -54.765625,2.564453 c -0.495604,0.02275 -0.634766,0.606808 -0.634766,1.830078 0,2.454539 0.920921,4.264589 3.080079,6.048828 1.271754,1.050936 1.589733,1.192621 1.822265,0.816406 0.196309,-0.31748 -0.08172,-0.61038 -1.763672,-1.861328 -0.841617,-0.625965 -1.707717,-1.484568 -1.925781,-1.90625 -0.595646,-1.151849 -0.809363,-2.879135 -0.414062,-3.355469 0.459518,-0.553662 0.56175,-0.526415 1.93164,0.519532 1.147091,0.875905 1.539063,0.953392 1.539063,0.300781 0,-0.160252 -0.776957,-0.818973 -1.726563,-1.462891 -0.921419,-0.624857 -1.522734,-0.947383 -1.908203,-0.929687 z m 50.966797,0.150391 c -0.02175,0.0013 -0.04579,0.0051 -0.07031,0.0098 -0.476628,0.09184 -0.78361,1.506349 -0.818359,3.763672 -0.02116,1.363427 -0.421771,2.429906 -0.820312,2.183594 -0.132208,-0.08164 -0.16799,-1.164575 -0.08008,-2.410157 0.163843,-2.321459 0.0086,-2.682419 -0.804687,-1.86914 -0.525831,0.525846 -0.886136,4.93131 -0.466797,5.714844 0.400029,0.747477 0.928825,0.713795 1.570313,-0.101563 0.288564,-0.366992 0.653405,-0.667969 0.810546,-0.667969 0.543557,0 0.768433,-0.946195 0.908204,-3.816406 0.117635,-2.415295 0.09779,-2.826702 -0.228516,-2.80664 z m 3.003906,1.585937 c 0.06946,-0.01078 0.07583,0.120608 0.08008,0.382813 0.0091,0.548672 -0.444401,1.185546 -0.84375,1.185546 -0.117392,0 -0.214844,-0.105556 -0.214844,-0.236328 0,-0.130393 0.236805,-0.520756 0.525391,-0.867187 0.25149,-0.301871 0.38366,-0.454068 0.453125,-0.464844 z m -7.648437,0.02539 c -0.192352,-0.0079 -0.436422,0.361529 -0.546875,1.041015 -0.08228,0.506533 -0.260555,1.09737 -0.394532,1.3125 -0.239622,0.384756 -0.198907,5.526184 0.04687,5.923828 0.230854,0.373418 0.562023,0.209441 1.033203,-0.509765 0.366577,-0.559446 0.401784,-0.81663 0.164063,-1.197266 -0.523699,-0.838564 -0.3755,-3.261931 0.248047,-4.054687 0.521949,-0.663572 0.497852,-1.423098 -0.03516,-1.09375 -0.136593,0.08428 -0.248047,-0.224407 -0.248047,-0.685547 0,-0.496427 -0.117972,-0.730147 -0.267578,-0.736328 z m -41.802735,1.097656 c -0.07957,0.0011 -0.05957,0.249813 0.01758,0.845703 0.07601,0.586998 0.219399,2.116939 0.320313,3.400391 0.100913,1.283489 0.317182,2.50087 0.480469,2.705078 0.573479,0.717127 3.69154,2.828725 3.945312,2.671875 0.145777,-0.08995 0.04667,-0.391464 -0.228516,-0.697266 -0.266343,-0.295937 -1.006233,-0.897613 -1.644531,-1.337891 -1.425411,-0.983206 -1.839583,-1.922956 -2.072265,-4.71289 -0.10201,-1.22332 -0.345942,-2.368031 -0.560547,-2.63086 -0.127304,-0.155891 -0.21007,-0.244811 -0.257813,-0.24414 z m 36.511719,2.115234 c -0.38347,-0.02209 -0.845703,0.538896 -0.845703,1.164063 0,0.852245 0.635878,0.808402 1.037109,-0.07227 0.216114,-0.474293 0.234555,-0.796732 0.05469,-0.976562 -0.07356,-0.07356 -0.157601,-0.110137 -0.246094,-0.115235 z m 3.175781,0.199219 c -0.136856,0 -0.324828,0.239609 -0.417968,0.533203 -0.0932,0.293669 -0.400852,0.533203 -0.681641,0.533203 -0.622439,0 -0.71502,0.40116 -0.882813,3.802735 -0.123552,2.504541 -0.0038,2.98274 0.5625,2.267578 0.145285,-0.183307 0.34721,-1.293266 0.449219,-2.464844 0.119358,-1.370457 0.368679,-2.42679 0.701172,-2.964844 0.550273,-0.890343 0.680014,-1.707031 0.269531,-1.707031 z m -5.173828,1.611328 c -0.113287,0.02169 -0.257775,0.167886 -0.410156,0.455078 -0.136252,0.25663 -0.513444,1.883833 -0.839844,3.615235 -0.3264,1.731401 -0.639663,3.102509 -0.695312,3.046875 -0.05571,-0.05556 -0.208215,-1.148629 -0.337891,-2.427735 -0.129676,-1.279143 -0.31186,-2.401681 -0.40625,-2.496094 -0.09441,-0.09449 -0.363164,0.01951 -0.595703,0.251954 -0.372737,0.372661 -0.385311,0.765326 -0.117188,3.318359 0.491501,4.680302 0.491719,4.682246 1.113282,4.349609 0.29382,-0.157228 0.643454,-0.547994 0.777343,-0.86914 0.203263,-0.487522 1.134314,-5.072288 1.703125,-8.388672 0.09973,-0.581457 -0.0026,-0.891614 -0.191406,-0.855469 z m -29.011719,0.367188 c -0.482331,0.02565 -0.664397,0.563554 -0.730468,1.673828 -0.104996,1.764283 0.724076,3.932572 2.009765,5.261719 1.572601,1.625801 3.00586,2.348304 3.00586,1.513671 0,-0.116787 -0.72222,-0.720265 -1.605469,-1.339843 -1.455421,-1.020926 -2.960443,-3.012221 -2.570313,-3.402344 0.07219,-0.07219 0.797155,0.358757 1.609375,0.958984 1.67325,1.236095 1.7674,1.270581 1.761719,0.625 -0.002,-0.270236 -0.731449,-0.973027 -1.730469,-1.667968 -1.25009,-0.869556 -1.727501,-1.365985 -1.730468,-1.800782 -0.006,-0.829001 0.557326,-0.759273 1.986328,0.248047 1.16335,0.820006 1.688298,0.881833 1.412109,0.164063 -0.07298,-0.189733 -0.818985,-0.816982 -1.658203,-1.394532 -0.826977,-0.569149 -1.384619,-0.859792 -1.759766,-0.839843 z m 30.738282,0.582031 c -0.04337,0.0089 -0.09484,0.0408 -0.15625,0.0918 -0.368769,0.306141 -0.472174,0.910899 -0.833985,4.908203 -0.151597,1.674784 -0.124121,1.816415 0.326172,1.730469 0.378127,-0.07219 0.530211,-0.428074 0.664063,-1.556641 0.09558,-0.805531 0.18666,-2.349789 0.201171,-3.431641 0.01843,-1.366197 -0.01325,-1.780783 -0.201171,-1.742187 z m 16.1875,27.716802 c -0.09721,-0.0971 -26.922056,19.07072 -27.677735,19.77734 -0.237694,0.22224 1.327403,0.0838 3.732422,-0.32812 8.80026,-1.50807 16.583901,-6.38285 21.050781,-13.18555 1.456181,-2.21764 3.189573,-5.9686 2.894532,-6.26367 z m -58.988282,2.65234 c -0.245923,-0.0283 0.122158,0.76108 1.203125,2.60547 3.822955,6.52297 10.853432,11.53165 19.22461,13.69531 2.911623,0.75255 3.089407,0.77275 2.580078,0.29297 -0.3648,-0.34356 -22.142327,-16.09032 -22.865234,-16.5332 -0.0599,-0.0367 -0.107447,-0.0565 -0.142579,-0.0605 z"
         transform="matrix(0.26458333,0,0,0.26458333,67.509037,155.79029)" />
   </g>
</svg>