<svg width="128" height="128" viewBox="0 0 33.867 33.867" xmlns="http://www.w3.org/2000/svg">
  <path style="stroke-width:.266219"
    d="M63.992 0 37.04 12.775c-14.824 7.027-26.99 12.816-27.035 12.862-.104.104 2.608 55.721 2.754 56.474.07.363 3.45 2.968 9.96 7.674l9.856 7.123.002 1.381c.004 3.634 1.282 8.88 2.996 12.299 4.534 9.043 13.975 15.566 24.82 17.146.876.128 3.046.245 4.825.264 9.563.096 18.458-3.57 24.865-10.248 2.446-2.55 3.934-4.714 5.451-7.928 1.336-2.829 1.957-4.845 2.266-7.771-2.022 12.836-12.487 22.986-26.281 25.35-3.092.53-9.17.533-12.159.007-13.547-2.384-23.981-12.205-26.156-24.623-.385-2.198-.534-5.634-.244-5.634.081 0 .533.297 1.002.66.47.363 7.405 5.384 15.414 11.158l14.56 10.498 16.342-11.805c8.99-6.492 16.575-12.012 16.858-12.267.282-.256.576-.402.652-.326.161.16.264 1.03.299 2.128l.094-2.293 8.517-6.158 8.518-6.158 1.38-27.406c.76-15.074 1.39-27.897 1.397-28.494l.016-1.086L91 12.8zm.024 8.344 17.605 8.318c9.683 4.575 17.61 8.378 17.613 8.451.008.121-22.252 13.08-22.449 13.069-.046-.002-.474-.255-.951-.56-.477-.306-.867-.643-.867-.749 0-.106 1.44-3.297 3.201-7.09 1.76-3.793 3.145-6.95 3.078-7.017-.067-.067-2.894.854-6.281 2.047-3.388 1.192-6.265 2.167-6.395 2.167-.13 0 .735-2.222 1.92-4.939 1.186-2.717 2.104-4.994 2.04-5.059-.065-.064-4.316 1.256-9.446 2.934-5.13 1.678-9.42 3.023-9.533 2.988-.113-.034.992-1.682 2.455-3.662l2.658-3.601-2.2-1.067c-1.209-.587-2.253-1.156-2.32-1.265-.066-.11 2.128-1.272 4.876-2.582zM50.77 14.633l1.975.976 1.973.977-.528.728c-.29.401-2.148 2.948-4.13 5.66-1.983 2.713-3.577 4.961-3.541 4.997.035.034 4.852-1.492 10.703-3.395 5.85-1.902 10.668-3.427 10.707-3.388.038.038-.935 2.378-2.162 5.199-1.228 2.82-2.183 5.129-2.123 5.129.06 0 2.878-.973 6.265-2.162 3.387-1.19 6.213-2.106 6.281-2.038.17.17-.058.717-2.52 6.004l-2.144 4.606 1.336.898 1.336.9-5.107 2.967c-2.81 1.632-5.128 2.955-5.153 2.942-.024-.012-7.937-4.605-17.584-10.205-9.646-5.6-17.537-10.241-17.533-10.315.004-.073 4.944-2.46 10.979-5.306zm60.55 25.453c.05-.008.062.01.08.027.134.134-1.656 36.774-1.801 36.877-.045.03-8.247 5.94-18.225 13.131-9.978 7.191-18.293 13.163-18.477 13.27-.265.154-.33-4.004-.326-20.432l.006-20.627 15.924-9.205c20.152-11.648 22.46-12.984 22.818-13.041zm-94.598.033a.657.657 0 0 1 .28.055c.258.097 9.02 5.123 19.474 11.168l19.003 10.99.006 20.61c.003 11.335-.085 20.6-.195 20.585-.11-.015-8.306-5.904-18.21-13.09-9.906-7.185-18.166-13.154-18.356-13.265-.265-.154-.565-4.508-1.264-18.326-.505-9.969-.92-18.288-.922-18.487-.001-.147.062-.228.184-.24zm90.797 15.42c-.25.017-.619.435-.83.992-.195.512-.338.608-.565.381-.65-.65-.982.169-.826 2.037.11 1.314.033 2.053-.285 2.815-.542 1.294-.552 1.798-.034 1.6.22-.085.537-.62.707-1.188.27-.897.353-.976.631-.596.201.275.498.37.791.258.362-.139.426-.347.28-.91-.435-1.675-.444-3.191-.026-4.194.235-.56.374-1.075.309-1.14a.189.189 0 0 0-.152-.055zm-86.225.574a.37.37 0 0 0-.068.004c-.46.066-.57.299-.637 1.36-.131 2.048.59 4.043 1.955 5.408 2.224 2.224 3.92 2.857 4.24 1.582.293-1.168-.342-4.175-1.09-5.155-.938-1.23-3.622-3.166-4.4-3.199zm.52 1.135c.276-.007.667.215 1.466.77.766.531 1.678 1.388 2.026 1.904.748 1.109 1.06 3.152.57 3.742-.432.521-.474.515-1.76-.256-2.255-1.352-3.856-5.007-2.637-6.02a.525.525 0 0 1 .334-.14zm82.042 1.031c-.456.02-1.393.725-1.986 1.535-.67.915-1.197 4.326-.803 5.192.397.87 1.112.836 2.002-.094.397-.415.839-1.163.983-1.664.357-1.245.335-4.709-.031-4.936a.285.285 0 0 0-.165-.033zm-4.113.967c-.38-.015-.883.246-1.44.826-.65.679-.804 1.116-.966 2.735-.106 1.06-.2 2.92-.21 4.136-.015 2.097.01 2.197.493 1.938.28-.15.943-.78 1.473-1.399 1.255-1.466 1.654-2.764 1.236-4.03-.234-.71-.238-1.231-.018-2.05.362-1.342.066-2.131-.568-2.156zm-72.402.736-.088.74c-.135 1.146.466 6.096.777 6.405.192.19.218-.587.086-2.518l-.191-2.79 1.308.966c1.249.921 2.023 2.124 1.623 2.524-.102.102-.604-.016-1.117-.258l-.931-.444 1.097 2.198c1.09 2.18 1.812 3.246 2.045 3.013.067-.066-.192-.682-.576-1.369-.384-.686-.697-1.285-.697-1.33 0-.044.27-.119.6-.166.473-.067.615-.282.675-1.02.122-1.504-.897-3.148-2.877-4.642zm75.62.137c.03 0 .058.004.087.014.222.075.3.54.236 1.414-.188 2.557-1.103 3.556-1.103 1.203 0-1.46.353-2.62.78-2.63zm-3.804.758c.356-.028.373.324.094 1.17-.402 1.217-.806 1.222-.807.01v-.002c0-.602.15-.997.412-1.098.119-.045.22-.074.301-.08zm-3.154.506c-.242.006-.61.28-.793.748-.158.403-.351 2.505-.432 4.67-.144 3.891-.14 3.935.426 3.935.315 0 .58-.09.588-.2.008-.11.065-1.988.127-4.175.062-2.186.183-4.197.27-4.468.113-.357.002-.515-.186-.51zm2.844 2.986c.705.004.676 1.497-.164 2.258-.49.443-.504.417-.504-.793h-.002c0-.9.12-1.296.427-1.414a.674.674 0 0 1 .243-.05zm-64.248.899c-.28-.018-.659.867-1.506 3.418-.332 1-.537 1.884-.455 1.966.403.404.906-.298 1.474-2.064.696-2.16.752-2.145 1.635.42.53 1.539.4 1.737-.678 1.031-1.164-.763-.807.285.438 1.285.602.484 1.326 1.329 1.607 1.88.454.888 1.038 1.342 1.031.8-.004-.405-3.175-8.42-3.431-8.676a.182.182 0 0 0-.115-.06zm58.681.666c-.623 0-2.306 1.577-2.306 2.162 0 .623.213.638.853.058.368-.333.57-.37.795-.144.225.225.059.572-.654 1.361-1.152 1.275-1.903 3.568-1.35 4.121.345.345.778.172 1.436-.578.365-.417.84-.817 1.054-.889.302-.1.412-.8.49-3.11.089-2.58.046-2.981-.318-2.981zm-54.765 2.564c-.496.023-.635.607-.635 1.83 0 2.455.92 4.265 3.08 6.049 1.272 1.05 1.59 1.193 1.822.816.197-.317-.082-.61-1.763-1.861-.842-.626-1.708-1.485-1.926-1.906-.596-1.152-.81-2.88-.414-3.356.46-.553.561-.526 1.931.52 1.147.876 1.54.953 1.54.3 0-.16-.778-.818-1.727-1.462-.922-.625-1.523-.948-1.908-.93zm50.966.15a.563.563 0 0 0-.07.01c-.477.092-.783 1.507-.818 3.764-.021 1.363-.422 2.43-.82 2.184-.133-.082-.169-1.165-.08-2.41.163-2.322.008-2.683-.805-1.87-.526.526-.886 4.932-.467 5.715.4.748.929.714 1.57-.102.289-.367.654-.667.81-.667.544 0 .77-.947.909-3.817.118-2.415.098-2.827-.229-2.807zm3.004 1.586c.07-.01.076.121.08.383.01.549-.444 1.186-.843 1.186-.118 0-.215-.106-.215-.237 0-.13.237-.52.525-.867.252-.302.384-.454.453-.465zm-7.648.026c-.192-.008-.437.361-.547 1.04-.082.507-.26 1.098-.395 1.313-.24.385-.198 5.526.047 5.924.231.374.562.21 1.034-.51.366-.56.401-.816.164-1.197-.524-.838-.376-3.262.248-4.055.522-.663.498-1.423-.035-1.093-.137.084-.249-.225-.249-.686 0-.496-.118-.73-.267-.736zm-41.803 1.097c-.08.002-.06.25.018.846.076.587.22 2.117.32 3.4.101 1.284.317 2.501.48 2.706.574.717 3.692 2.828 3.946 2.671.146-.09.047-.391-.229-.697-.266-.296-1.006-.897-1.644-1.338-1.426-.983-1.84-1.923-2.072-4.713-.102-1.223-.346-2.368-.561-2.63-.127-.156-.21-.245-.258-.245zm36.512 2.116c-.384-.022-.846.539-.846 1.164 0 .852.636.808 1.037-.073.216-.474.235-.796.055-.976a.372.372 0 0 0-.246-.115zm3.176.199c-.137 0-.325.24-.418.533-.094.294-.401.533-.682.533-.622 0-.715.401-.883 3.803-.123 2.505-.004 2.983.563 2.268.145-.184.347-1.294.449-2.465.12-1.37.369-2.427.701-2.965.55-.89.68-1.707.27-1.707zm-5.174 1.611c-.113.022-.258.168-.41.455-.137.257-.514 1.884-.84 3.616-.327 1.73-.64 3.102-.695 3.046-.056-.055-.209-1.148-.338-2.427-.13-1.28-.312-2.402-.407-2.496-.094-.095-.363.02-.595.252-.373.372-.386.765-.118 3.318.492 4.68.492 4.682 1.114 4.35.294-.158.643-.549.777-.87.203-.487 1.134-5.072 1.703-8.388.1-.582-.002-.892-.191-.856zm-29.012.367c-.482.026-.664.564-.73 1.674-.105 1.764.724 3.933 2.01 5.262 1.572 1.626 3.005 2.348 3.005 1.514 0-.117-.722-.72-1.605-1.34-1.456-1.021-2.96-3.012-2.57-3.403.072-.072.797.36 1.609.96 1.673 1.235 1.767 1.27 1.762.624-.002-.27-.732-.973-1.73-1.668-1.251-.87-1.728-1.366-1.731-1.8-.006-.83.557-.76 1.986.248 1.163.82 1.688.882 1.412.164-.073-.19-.819-.817-1.658-1.395-.827-.569-1.385-.86-1.76-.84zm30.738.582a.399.399 0 0 0-.156.092c-.369.306-.472.911-.834 4.908-.151 1.675-.124 1.817.326 1.73.378-.071.53-.427.664-1.556.096-.805.187-2.35.202-3.431.018-1.367-.014-1.781-.202-1.743zm16.188 27.717c-.097-.097-26.922 19.07-27.678 19.778-.238.222 1.328.083 3.733-.329 8.8-1.508 16.583-6.382 21.05-13.185 1.457-2.218 3.19-5.969 2.895-6.264zm-58.988 2.653c-.246-.029.122.76 1.203 2.605 3.823 6.523 10.853 11.532 19.224 13.695 2.912.753 3.09.773 2.58.293-.364-.343-22.142-16.09-22.865-16.533a.384.384 0 0 0-.142-.06z"
    transform="scale(.26458)" />
</svg>
