<svg xmlns="http://www.w3.org/2000/svg" viewBox="0 0 128 128"><path fill="#EF5734" d="M114.438 46.444c-1.13-.454-2.26-.97-3.44-1.226-6.697-1.449-13.388-2.96-20.126-4.19-4.928-.9-9.929-1.403-14.896-2.084.506-3.458.967-3.889 4.677-4.464 1.892 3.269 1.892 3.269 5.797 2.811 8.009-.938 13.13-5.553 14.583-13.769 1.076-6.09 2.336-11.974 6.948-16.522.056-.054-.037-.258-.059-.387-8.48-2.603-19.382 3.244-26.171 14.104-3.104-.412-5.083-1.412-6.466-4.675C71.582 7.299 64.754 2.03 55.049 1.671c-17.564-.649-33.537 9.542-40.413 25.758-6.821 16.09-4.64 31.756 3.094 46.925 3.143 6.165 7.156 11.728 13.104 15.558 5.095 3.281 9.794 2.241 13.206-2.77.142-.208.402-.335.715-.587l1.522 3.988c.515 1.35.978 2.723 1.554 4.046 1.173 2.69 4.312 3.976 7.041 3.062.702-.235 1.606-.26 2.31-.038 3.04.956 5.825.984 8.263-1.48.388-.393 1.211-.519 1.823-.498 4.184.132 6.499-1.241 8.296-4.999.151-.318.383-.636.657-.853 2.803-2.21 3.491-4.511 2.083-7.74-.85-1.947-1.911-3.805-2.909-5.685-.717-1.352-1.486-2.673-2.436-4.371 4.636 1.53 8.773 3.11 12.594-.37.786.406 1.444.794 2.14 1.097 3.83 1.667 8.946 1.117 11.127-1.442.902-1.061 1.715-1.135 2.923-1.041 4.771.365 10.347-1.146 11.13-6.816 5.07-1.029 7.385-3.273 7.801-7.564.45-4.661-1.397-7.462-6.236-9.407zM84.892 34.415c-.505.009-1.215-.906-1.495-1.543-.375-.851-.423-1.846-.769-3.563l4.022 1.556c1.836-1.362 3.702.739 6.352.971-2.794 1.93-5.4 2.531-8.11 2.579zm17.064-25.106l-6.081 20.86c-2.499-2.09-4.295-3.592-6.513-5.444l7.403-11.42c-4.114 2.514-6.505 6.371-8.764 10.603l-3.315-1.849c2.462-6.599 10.894-12.653 17.27-12.75zM74.032 21.991c5.603.313 10.389 2.691 14.749 6.052.29.224.337.76.741 1.755-5.086-1.738-9.416-1.123-13.745.506-1.267.478-2.808.227-4.224.31l.024.654 7.976-.492.073.573c-2.765 1.269-5.53 2.538-8.293 3.808-2.146-2.944-1.29-10.052.97-12.424.404-.425 1.16-.773 1.729-.742zM86.543 50.7l-.089.596 25.909 5.1c-1.015 2.749-3.085 3.601-8.134 3.513-.193 4.702-2.376 5.948-9.479 5.413-1.442 4.273-5.277 5.201-11.832 2.824-3.508 3.815-7.485 2.437-11.585.833-.811 6.34-3.74 11.29-9.306 14.445-5.174 2.936-10.724 2.613-16.249 1.408-22.28-4.857-35.102-26.561-29.174-49.269C21.042 18.568 34.906 7.01 51.985 6.066c8.255-.457 15.595 3.843 19.044 11.285.33.712.358 2.019-.079 2.563-4.607 5.735-4.691 11.885-1.7 18.232.688 1.46.465 2.316-.411 3.421-3.946 4.975-9.221 7.857-15.14 9.755l-.8.24c6.852-.144 13.413-1.241 18.207-6.677 1.258-1.426 2.449-1.808 4.137-1.539 9.246 1.475 18.501 2.887 27.734 4.427 2.377.396 4.706 1.116 7.024 1.8 1.789.527 3.002 1.683 3.329 3.888L86.543 50.7zM58.722 26.294c-.004-3.122-2.643-5.694-5.734-5.59-2.889.097-5.539 2.899-5.433 5.746.111 3.032 2.666 5.471 5.682 5.424a5.563 5.563 0 005.485-5.58zm-8.865-2.55c.004-1.973 1.926-2.236 3.568-2.162 1.467.065 3.233.43 3.141 2.204-.104 2.005-2.035 2.089-4.104 2.684-.919-.908-2.606-1.819-2.605-2.726zm-30.922 91.861c.49-.42.898-.938 1.223-1.551s.486-1.218.486-1.814c0-.254-.021-.51-.065-.769s-.132-.548-.263-.867a4.422 4.422 0 00-.507-.907 4.281 4.281 0 00-.841-.842 5.57 5.57 0 00-1.217-.709c-.455-.197-1.015-.598-1.676-.721S14.684 107 13.888 107H7v19h6.375c1.042 0 1.999.001 2.872-.157.871-.157 1.605-.322 2.201-.571.596-.25 1.122-.53 1.577-.88.456-.351.817-.692 1.084-1.048a5.22 5.22 0 00.651-1.119c.167-.395.277-.739.336-1.042a4.818 4.818 0 00-.803-3.692 5.219 5.219 0 00-2.358-1.886zM10 110h3.138c.789 0 1.455.208 1.998.359.544.148.939.417 1.189.67.25.255.423.536.52.777s.145.519.145.8l-.013.296c-.123 1.183-1.133 1.945-2.955 2.279-.756.131-2.021.223-4.021.267V110zm8.626 11.422c-.163.285-.359.52-.592.704-.232.184-.537.341-.914.473-.377.131-.723.23-1.038.296s-.692.116-1.13.151c-.438.035-.783-.001-1.032.003l-.9-.049H10v-5.305c2-.096 3.24-.145 3.311-.145 1.691 0 3.053.259 4.047.776.995.517 1.502 1.227 1.502 2.129-.001.36-.073.683-.234.967zm22.971-13.02c-1.481-.745-3.173-1.117-5.074-1.117-1.919 0-3.624.388-5.113 1.163a8.484 8.484 0 00-3.497 3.352c-.841 1.46-1.262 3.148-1.262 5.067 0 1.542.27 2.927.809 4.154.538 1.227 1.266 2.224 2.182 2.99s1.952 1.35 3.109 1.748c1.156.399 2.379.599 3.667.599 1.954 0 3.685-.408 5.192-1.223a8.696 8.696 0 003.51-3.438c.832-1.477 1.248-3.17 1.248-5.08 0-1.884-.425-3.538-1.274-4.963a8.405 8.405 0 00-3.497-3.252zm.814 11.37c-.377.859-.876 1.538-1.499 2.038a6.78 6.78 0 01-2.031 1.13 6.856 6.856 0 01-2.267.381c-1.875 0-3.439-.613-4.692-1.84-1.254-1.227-1.88-2.853-1.88-4.877 0-.85.122-1.627.368-2.333.245-.705.573-1.299.985-1.781a5.86 5.86 0 011.439-1.216 6.477 6.477 0 011.716-.723c.596-.153 1.209-.23 1.84-.23s1.251.077 1.86.23c.608.153 1.2.4 1.774.742.573.342 1.078.758 1.512 1.249s.782 1.106 1.045 1.847.395 1.558.395 2.451c.001 1.097-.188 2.074-.565 2.932zm28.261 1.582L66.229 107H63.18l-5.403 14.354L53.479 107h-3.497l6.165 19h3.168l5.285-14.288L69.095 126h3.168l7.164-19h-3.496zM84 126h13v-3H87v-5h9v-3h-9v-4h10v-4H84zm30.963-8.542a4.87 4.87 0 001.275-1.354c.311-.5.539-1.025.684-1.564a6.535 6.535 0 00.217-1.705c0-.691-.084-1.317-.25-1.874s-.379-1.018-.637-1.381a3.93 3.93 0 00-.974-.954 5.428 5.428 0 00-1.13-.618c-.364-.14-.78-.252-1.249-.335s-.867-.376-1.196-.398c-.328-.021-.689-.275-1.084-.275H103v19h3v-7h3.146l5.232 7h4.311l-5.639-7.728c.737-.218 1.375-.42 1.913-.814zm-3.293-1.858c-.429.109-.845.247-1.248.283-.403.034-.868.118-1.394.118H106v-5h3.646c2.689 0 4.035.632 4.035 2.375 0 .465-.09.748-.27 1.089s-.407.53-.684.722c-.275.192-.627.302-1.057.413z"/></svg>