<svg xmlns="http://www.w3.org/2000/svg" viewBox="0 0 128 128"><path fill-rule="evenodd" clip-rule="evenodd" fill="#EF5734" d="M124.797 65.636c-.559-2.396-1.734-4.17-3.956-5.316-4.161-2.147-8.577-3.302-13.091-4.333-9.566-2.186-19.235-3.564-28.973-4.706-1.127-.132-2.237-.282-3.363-.424.376-3.143 1.495-4.192 5.271-4.975.391.905.749 1.851 1.214 2.739.172.328.603.738.919.743 5.632.079 10.951-.888 15.265-4.908 3.371-3.144 4.867-7.224 5.693-11.619.3-1.598.588-3.199.825-4.808.739-5.002 3.353-9.002 6.685-12.626.163-.177.308-.369.549-.661-2.649-.822-5.265-.913-7.849-.44-9.892 1.81-17.349 7.015-21.982 16.055l-.16.17c-1.686-.426-3.384-.81-5.046-1.311-.304-.092-.543-.636-.678-1.018-2.718-7.715-7.416-13.725-15.075-16.983-2.281-.972-4.83-.826-7.254-1.465-.132-.035-.241.25-.36.25h-7.332c-1.609 0-3.225.096-4.826.432-19.176 4.013-34.168 18.824-37.677 38.182-3.749 20.675 1.924 38.738 15.541 54.548 2.047 2.377 4.519 4.271 7.37 5.685 5.264 2.608 10.975.695 13.666-4.549l.225-.389c1.151 3.009 2.388 5.919 3.38 8.917.966 2.917 4.453 4.246 6.582 4.105.401-.026.895.338 1.182.12 1.907-1.445 3.41.949 5.067.949h2.688c1.898-1 3.701-1.653 4.943-3.361.152-.211.827-.269 1.252-.225 2.432.253 4.688-.314 6.73-1.679 1.708-1.143 2.779-2.746 2.999-4.811 2.161-.632 3.501-2.286 3.573-4.827.04-1.377-.084-2.93-.674-4.135-1.797-3.678-3.856-7.232-5.813-10.832l-.16-.348.383.15c2.876 1.401 5.9 2.024 9.1 1.758 2.039-.169 3.262-.823 4.288-2.391 2.525 1.783 5.364 2.628 8.458 2.409 3.079-.217 5.973-.876 7.631-3.946 2.188 0 4.432.203 6.615-.069 1.522-.189 3.054-.866 4.421-1.619 2.189-1.205 3.674-2.974 3.206-5.775 2.242-.194 4.304-.748 6.045-2.146 1.409-1.132 2.035-2.607 2.513-4.346.111-.407.193-.793.193-1.188v-3.421c0-.521-.08-1.034-.203-1.562zm-75.322-22.892c-3.582-.006-6.441-2.887-6.408-6.457.032-3.575 2.942-6.479 6.463-6.452 3.576.029 6.392 2.895 6.389 6.502-.005 3.602-2.831 6.414-6.444 6.407zm19.638 5.175c-.817-1.956-1.452-4.001-1.161-6.234-.151-3.359 1.012-6.303 2.974-8.939.256-.342 1.092-.392 1.643-.353 6.281.439 11.744 2.982 16.758 6.634 1.041.759 2.032 1.588 2.924 2.563-1.964-.421-3.92-.882-5.893-1.255-2.969-.562-5.908-.449-8.703.799-3.019 1.348-6.17 1.301-9.355 1.08 1.735 1.558 3.833 1.472 5.901 1.16 1.749-.262 3.461-.77 5.265-1.187l.097 1.022-10.45 4.71z"/></svg>