<?xml version="1.0" encoding="utf-8"?>
<!-- Generator: Adobe Illustrator 16.0.0, SVG Export Plug-In . SVG Version: 6.00 Build 0)  -->
<!DOCTYPE svg PUBLIC "-//W3C//DTD SVG 1.1//EN" "http://www.w3.org/Graphics/SVG/1.1/DTD/svg11.dtd">
<svg version="1.1" id="Layer_1" xmlns="http://www.w3.org/2000/svg" xmlns:xlink="http://www.w3.org/1999/xlink" x="0px" y="0px"
	 width="500px" height="500px" viewBox="0 0 500 500" enable-background="new 0 0 500 500" xml:space="preserve">
<g>
	<path fill="#EF5734" d="M447.555,181.426c-4.414-1.774-8.829-3.789-13.44-4.787c-26.163-5.664-52.294-11.562-78.615-16.371
		c-19.25-3.516-38.784-5.482-58.187-8.141c1.976-13.508,3.777-15.189,18.268-17.438c7.391,12.771,7.391,12.771,22.645,10.98
		c31.283-3.668,51.288-21.689,56.963-53.783c4.207-23.79,9.126-46.773,27.142-64.541c0.218-0.211-0.143-1.008-0.227-1.512
		c-33.128-10.169-75.714,12.673-102.233,55.092c-12.13-1.609-19.857-5.514-25.258-18.26c-14.465-34.154-41.14-54.734-79.047-56.138
		C146.952,3.99,84.557,43.801,57.697,107.146c-26.645,62.849-18.121,124.046,12.088,183.299
		c12.275,24.081,27.952,45.811,51.189,60.772c19.9,12.817,38.258,8.755,51.586-10.819c0.551-0.812,1.572-1.311,2.793-2.292
		c2.143,5.617,4.045,10.597,5.947,15.578c2.01,5.272,3.818,10.636,6.068,15.803c4.58,10.511,16.84,15.532,27.503,11.962
		c2.743-0.92,6.274-1.015,9.022-0.148c11.875,3.733,22.754,3.845,32.275-5.786c1.516-1.532,4.729-2.022,7.121-1.945
		c16.345,0.518,25.389-4.847,32.405-19.526c0.595-1.242,1.497-2.483,2.569-3.328c10.949-8.633,13.639-17.623,8.135-30.236
		c-3.318-7.608-7.463-14.863-11.363-22.207c-2.8-5.277-5.807-10.44-9.515-17.073c18.108,5.979,34.273,12.148,49.196-1.444
		c3.069,1.585,5.642,3.101,8.357,4.281c14.961,6.512,34.948,4.363,43.464-5.635c3.526-4.143,6.7-4.43,11.417-4.066
		c18.635,1.428,40.418-4.474,43.479-26.625c19.806-4.02,28.847-12.789,30.47-29.549C473.669,199.965,466.455,189.02,447.555,181.426
		z M332.135,134.436c-1.972,0.034-4.743-3.541-5.838-6.027c-1.465-3.324-1.651-7.211-3.002-13.917
		c6.623,2.562,10.614,4.106,15.713,6.077c7.172-5.322,14.459,2.887,24.809,3.793C352.904,131.896,342.722,134.25,332.135,134.436z
		 M398.794,36.363c-7.66,26.275-15.415,52.877-23.756,81.485c-9.761-8.162-16.776-14.03-25.438-21.269
		c9.405-14.51,18.976-29.272,28.917-44.607c-16.07,9.817-25.41,24.886-34.232,41.416c-4.495-2.508-8.754-4.882-12.951-7.223
		C340.953,60.394,373.889,36.743,398.794,36.363z M289.715,85.906c21.885,1.218,40.584,10.512,57.616,23.64
		c1.132,0.87,1.313,2.968,2.895,6.854c-19.866-6.791-36.783-4.389-53.692,1.977c-4.948,1.863-10.969,0.883-16.498,1.207
		c0.033,0.852,0.064,1.703,0.096,2.555c10.386-0.641,20.77-1.279,31.153-1.92c0.096,0.744,0.192,1.49,0.288,2.236
		c-10.801,4.959-21.603,9.918-32.396,14.877c-8.385-11.502-5.04-39.268,3.787-48.533C284.541,87.141,287.492,85.781,289.715,85.906z
		 M338.586,198.049c-0.115,0.775-0.231,1.553-0.348,2.327c33.697,6.632,67.395,13.263,101.209,19.919
		c-3.963,10.738-12.051,14.066-31.771,13.724c-0.755,18.367-9.281,23.236-37.028,21.143c-5.632,16.696-20.612,20.319-46.218,11.032
		c-13.703,14.904-29.24,9.518-45.252,3.256c-3.168,24.764-14.613,44.1-36.35,56.428c-20.214,11.465-41.89,10.207-63.475,5.5
		C92.32,312.402,42.238,227.626,65.395,138.922C82.725,72.535,136.88,27.383,203.598,23.697
		c32.243-1.785,60.915,15.011,74.389,44.078c1.29,2.782,1.4,7.887-0.311,10.014c-17.998,22.406-18.324,46.426-6.639,71.223
		c2.686,5.702,1.814,9.048-1.607,13.363c-15.413,19.432-36.019,30.691-59.139,38.104c-1.033,0.33-2.082,0.625-3.124,0.938
		c26.765-0.561,52.393-4.846,71.12-26.078c4.914-5.569,9.566-7.062,16.16-6.012c36.115,5.758,72.268,11.274,108.338,17.291
		c9.283,1.549,18.383,4.358,27.439,7.029c6.985,2.061,11.725,6.574,13.002,15.188C407.937,205.195,373.262,201.622,338.586,198.049z
		"/>
	<path fill="#EF5734" d="M229.91,102.711c-0.016-12.195-10.322-22.243-22.399-21.836c-11.283,0.379-21.638,11.326-21.224,22.446
		c0.437,11.845,10.414,21.37,22.194,21.189C220.402,124.328,229.924,114.643,229.91,102.711z M195.285,92.75
		c0.016-7.703,7.521-8.734,13.938-8.443c5.729,0.256,12.629,1.678,12.268,8.607c-0.408,7.834-7.949,8.163-16.027,10.484
		C201.867,99.85,195.281,96.294,195.285,92.75z"/>
	<path fill="#EF5734" d="M74.492,451.587c1.915-1.644,3.508-3.664,4.775-6.061c1.266-2.396,1.898-4.757,1.898-7.085
		c0-0.993-0.084-1.994-0.256-3.004s-0.514-2.139-1.026-3.389c-0.515-1.249-1.175-2.43-1.979-3.543
		c-0.804-1.111-1.899-2.207-3.286-3.287c-1.385-1.077-2.971-2.002-4.75-2.771s-3.963-0.821-6.546-1.301
		c-2.585-0.481-5.436-0.146-8.548-0.146H28v73h24.773c4.072,0,7.811-0.9,11.219-1.517c3.404-0.616,6.271-1.708,8.6-2.683
		c2.328-0.977,4.382-2.296,6.162-3.667c1.779-1.368,3.19-2.819,4.234-4.206c1.045-1.386,1.892-2.887,2.543-4.427
		c0.65-1.541,1.084-2.917,1.311-4.101c0.22-1.18,0.332-2.345,0.332-3.475c0-3.971-1.154-7.631-3.465-10.967
		C81.396,455.621,78.324,453.16,74.492,451.587z M40,432h11.848c3.081,0,5.682-0.339,7.805,0.243
		c2.123,0.581,3.671,1.054,4.646,2.046c0.977,0.994,1.651,1.802,2.029,2.744c0.377,0.94,0.564,1.88,0.564,2.977
		c0,0.375-0.018,0.713-0.051,1.089c-0.481,4.621-4.223,7.563-11.342,8.864c-2.945,0.514-7.5,0.836-15.5,1.008V432z M73.285,474.307
		c-0.635,1.113-1.404,2.027-2.311,2.748c-0.908,0.718-2.098,1.334-3.569,1.848c-1.473,0.513-2.823,0.899-4.056,1.155
		c-1.232,0.257-2.705,0.454-4.415,0.591c-1.712,0.137-3.058,0.762-4.032,0.778S52.754,482,51.385,482H40v-22.25
		c9-0.376,12.452-0.564,12.727-0.564c6.607,0,11.823,1.01,15.708,3.029c3.885,2.021,5.813,4.793,5.813,8.318
		C74.248,471.938,73.916,473.195,73.285,474.307z"/>
	<path fill="#EF5734" d="M163.014,423.449c-5.785-2.91-12.393-4.365-19.821-4.365c-7.495,0-14.153,1.514-19.972,4.545
		c-5.82,3.028-10.373,7.394-13.66,13.092c-3.285,5.701-4.929,12.297-4.929,19.795c0,6.023,1.053,11.433,3.159,16.227
		c2.103,4.791,4.944,8.685,8.521,11.68c3.576,2.996,7.625,5.272,12.145,6.828c4.518,1.56,9.294,2.337,14.324,2.337
		c7.635,0,14.395-1.591,20.283-4.774c5.888-3.184,10.456-7.659,13.709-13.428c3.252-5.768,4.878-12.381,4.878-19.845
		c0-7.359-1.66-13.821-4.981-19.384C173.35,430.594,168.796,426.357,163.014,423.449z M166.195,467.863
		c-1.473,3.355-3.422,6.006-5.853,7.959c-2.431,1.95-5.075,3.422-7.935,4.414c-2.857,0.994-5.809,1.49-8.855,1.49
		c-7.326,0-13.436-2.396-18.33-7.189c-4.897-4.791-7.342-11.142-7.342-19.048c0-3.321,0.477-6.358,1.437-9.114
		c0.958-2.756,2.241-5.075,3.851-6.958c1.609-1.882,3.483-3.466,5.621-4.749c2.141-1.284,4.374-2.226,6.702-2.824
		c2.327-0.6,4.724-0.899,7.188-0.899s4.887,0.3,7.265,0.899c2.38,0.599,4.688,1.564,6.933,2.901c2.24,1.333,4.21,2.96,5.905,4.878
		c1.694,1.917,3.055,4.32,4.081,7.214c1.027,2.892,1.542,6.084,1.542,9.575C168.405,460.691,167.668,464.509,166.195,467.863z"/>
	<polygon fill="#EF5734" points="276.592,477.07 259.235,421 247.322,421 226.221,477.07 209.43,421 195.771,421 219.854,494 
		232.229,494 252.869,438.188 270.43,494 282.803,494 310.787,421 297.131,421 	"/>
	<polygon fill="#EF5734" points="328,494 378,494 378,482 341,482 341,462 376,462 376,451 341,451 341,433 378,433 378,421 
		328,421 	"/>
	<path fill="#EF5734" d="M449.602,458.82c2.106-1.541,3.768-3.336,4.982-5.286c1.215-1.952,2.105-4.004,2.669-6.109
		c0.565-2.104,0.849-4.332,0.849-6.661c0-2.703-0.327-5.147-0.976-7.322c-0.651-2.173-1.481-3.975-2.49-5.395
		c-1.011-1.42-2.277-2.663-3.802-3.725c-1.521-1.061-2.994-1.865-4.414-2.414c-1.421-0.547-3.049-0.984-4.877-1.311
		c-1.834-0.324-3.391,0.045-4.675-0.042c-1.282-0.084-2.694,0.444-4.235,0.444H402v73h13v-29h11.883l20.437,29h16.841
		l-22.027-31.092C445.008,462.055,447.499,460.359,449.602,458.82z M436.74,451.561c-1.678,0.428-3.303,1.402-4.877,1.541
		c-1.576,0.137-3.391,0.898-5.443,0.898H415v-21h13.835c10.507,0,15.763,2.765,15.763,9.576c0,1.813-0.353,3.066-1.054,4.402
		c-0.702,1.334-1.591,2.143-2.67,2.895C439.796,450.627,438.418,451.133,436.74,451.561z"/>
</g>
</svg>
