<svg version="1.1" xmlns="http://www.w3.org/2000/svg" xmlns:xlink="http://www.w3.org/1999/xlink" viewBox="0 0 128 128">
	<path d="M97.905,67.885c0.174,18.8,16.494,25.057,16.674,25.137c-0.138,0.44-2.607,8.916-8.597,17.669
		c-5.178,7.568-10.553,15.108-19.018,15.266c-8.318,0.152-10.993-4.934-20.504-4.934c-9.508,0-12.479,4.776-20.354,5.086
		c-8.172,0.31-14.395-8.185-19.616-15.724C15.822,94.961,7.669,66.8,18.616,47.791c5.438-9.44,15.158-15.417,25.707-15.571
		c8.024-0.153,15.598,5.398,20.503,5.398c4.902,0,14.106-6.676,23.782-5.696c4.051,0.169,15.421,1.636,22.722,12.324
		C110.743,44.611,97.764,52.167,97.905,67.885 M82.272,21.719c4.338-5.251,7.258-12.563,6.462-19.836
		C82.48,2.134,74.918,6.05,70.433,11.299c-4.02,4.647-7.54,12.087-6.591,19.216C70.813,31.055,77.933,26.973,82.272,21.719"/>
</svg>
