<svg xmlns="http://www.w3.org/2000/svg" viewBox="0 0 128 128">
    <path fill="#fbbd16" d="M66.586 90.879V69.168l4.164 23.45 6.777 3.374L81.883 76.5v21.328l7.648 3.762V65.598l-11.617-5.5-3.68 17.175-3.71-20.714-11.551-5.532v36.024Zm0 0"/>
    <path fill="#452e7f" d="m90.594 65.59 12.133-6.305v26.117l16.78-8.683.063 9.84-28.941 15.214Zm0 0"/>
    <path fill="#962444" d="m85.703 27.637-8.582 7.586s16.742 8.605 18.774 9.62c2.035 1.016 4.93 2.973 1.8 5.868-3.129 2.894-6.57 2.504-8.918 1.328-2.347-1.172-19.71-9.934-19.71-9.934l-8.84 7.508s17.05 8.684 19.867 10.172c2.816 1.485 13.3 5.16 23.234-2.582 9.934-7.746 8.527-10.562 8.527-11.11 0-.546-.234-3.44-1.957-5.238-1.722-1.8-6.726-4.382-8.84-5.476-2.109-1.098-15.355-7.742-15.355-7.742Zm0 0"/>
    <path fill="#4a2469" d="M21.66 52.86v5.324c0 .605-.015 1.027-.047 1.273a1.92 1.92 0 0 1-.285.75c-.16.258-.367.457-.629.586-.258.137-.562.2-.914.2-.39 0-.734-.079-1.031-.235a1.634 1.634 0 0 1-.672-.613 1.996 1.996 0 0 1-.262-.801c-.023-.282-.039-.871-.039-1.77V52.86h1.7v5.973c0 .348.015.57.046.668.028.098.09.145.184.145.105 0 .176-.055.207-.16.031-.106.047-.36.047-.755v-5.87Zm5.61 0v7.964h-1.493l-.882-3.62v3.62H23.48V52.86h1.422l.95 3.586V52.86Zm3.539 0v7.964h-1.7V52.86Zm1.296 0h3.418v1.597h-1.402v1.504h1.25v1.52h-1.25v3.343h-2.016Zm6.684 0v7.964h-1.7V52.86Zm1.84 0h2.828v1.597h-1.133v1.504h1.059v1.52h-1.059v1.75h1.242v1.593H40.63Zm4.586 0h1.273c.82 0 1.375.046 1.664.136.29.094.512.242.66.453.153.211.247.446.286.703.035.254.054.762.054 1.516v2.789c0 .719-.027 1.195-.082 1.438-.054.238-.152.43-.289.562a1.132 1.132 0 0 1-.508.29c-.203.05-.507.077-.914.077h-2.144Zm1.7 1.359v5.246c.245 0 .398-.059.456-.18.055-.12.082-.445.082-.976v-3.102c0-.36-.008-.59-.027-.691a.355.355 0 0 0-.13-.227c-.066-.047-.194-.07-.382-.07ZM13.362 65.984v7.97H11.88l-.004-5.38-.586 5.38h-1.06l-.62-5.263-.005 5.262H8.121v-7.969h2.2c.066.48.132 1.047.202 1.696l.239 2.023.386-3.719Zm5.805 4.668c0 .801-.016 1.368-.047 1.7-.027.32-.125.632-.289.914-.156.27-.383.488-.66.632a2.015 2.015 0 0 1-.969.223 2.06 2.06 0 0 1-.941-.21 1.638 1.638 0 0 1-.672-.626 2.164 2.164 0 0 1-.3-.91c-.032-.328-.052-.902-.052-1.723V69.29c0-.8.016-1.367.047-1.7.027-.32.13-.632.293-.913a1.67 1.67 0 0 1 .656-.633c.278-.148.602-.223.97-.223.35 0 .663.07.94.211.282.14.504.348.672.625a2.1 2.1 0 0 1 .305.91c.031.329.047.903.047 1.723Zm-1.695-2.617c0-.37-.02-.605-.051-.71-.035-.102-.106-.153-.211-.153a.22.22 0 0 0-.203.125c-.047.082-.07.328-.07.738v3.719c0 .46.015.746.046.855.032.106.102.16.215.16.117 0 .192-.062.223-.187.031-.121.05-.418.05-.887Zm3.566-2.05h1.27c.82 0 1.375.046 1.664.136.289.094.511.242.66.453.152.207.246.45.285.703.035.258.055.762.055 1.516v2.793c0 .715-.028 1.191-.082 1.434a1.13 1.13 0 0 1-.29.566 1.12 1.12 0 0 1-.507.285c-.203.055-.508.082-.914.082h-2.14Zm1.695 1.359v5.246c.246 0 .399-.059.457-.18.055-.117.082-.445.082-.976v-3.098c0-.363-.007-.594-.027-.695a.336.336 0 0 0-.129-.223c-.07-.05-.195-.074-.383-.074Zm4.11-1.36h3.433v1.598h-1.37v1.504h1.28v1.52h-1.28v1.75h1.507v1.597h-3.57Zm6.87 0v6.371h1.345v1.598h-3.543v-7.969Zm3.88 0v7.97h-1.696v-7.97Zm5.71 0v7.97h-1.488l-.882-3.626v3.625h-1.418v-7.969h1.422l.953 3.586v-3.586Zm5.821 2.934h-1.7v-.723c0-.453-.015-.738-.046-.851-.031-.117-.11-.172-.23-.172a.21.21 0 0 0-.212.144c-.039.102-.054.352-.054.758v3.82c0 .36.015.594.054.708.04.113.114.168.223.168.125 0 .207-.063.25-.192.047-.129.067-.375.067-.746v-.945h-.336V69.68h1.984v4.273h-1.07l-.16-.574c-.114.246-.258.433-.434.555a1.056 1.056 0 0 1-.625.187 1.4 1.4 0 0 1-.797-.254 1.675 1.675 0 0 1-.566-.629 2.357 2.357 0 0 1-.243-.785 11.814 11.814 0 0 1-.046-1.23v-2.368c0-.757.03-1.312.101-1.656.067-.344.258-.66.578-.949.317-.285.73-.43 1.235-.43.496 0 .91.125 1.238.375.324.25.539.547.64.887.098.344.149.84.149 1.492Zm-38.57 9.879v6.371h1.375v1.598H8.3v-7.97Zm5.824-.09.973 7.969h-1.735l-.09-1.434h-.605l-.102 1.434h-1.758l.868-7.969Zm-.899 5.121c-.082-.898-.168-2.016-.257-3.348a86.597 86.597 0 0 0-.32 3.348Zm7.04-5.031v7.969h-1.704L19.81 83.14v3.625h-1.622v-7.97h1.625l1.086 3.587v-3.586Zm5.753 2.933H26.34v-.718c0-.457-.016-.742-.055-.856-.035-.117-.12-.172-.258-.172-.117 0-.199.047-.242.149-.043.097-.062.347-.062.754v3.82c0 .36.02.594.062.707.043.113.125.168.254.168.14 0 .234-.062.285-.191.051-.125.074-.375.074-.746v-.946h-.382v-1.207h2.257v4.274h-1.218l-.18-.57a1.406 1.406 0 0 1-.496.55c-.2.125-.438.188-.707.188a1.74 1.74 0 0 1-.91-.254 1.768 1.768 0 0 1-.64-.63 2.013 2.013 0 0 1-.274-.78c-.04-.278-.055-.688-.055-1.235v-2.367c0-.758.035-1.313.113-1.656.074-.344.293-.66.657-.946.363-.289.832-.433 1.406-.433.562 0 1.031.125 1.406.375.371.25.613.543.727.887.113.343.171.84.171 1.492Zm5.508-2.933v5.324c0 .606-.02 1.031-.054 1.274a1.84 1.84 0 0 1-.313.753 1.658 1.658 0 0 1-.684.586c-.285.133-.617.2-1 .2-.425 0-.804-.079-1.128-.239-.325-.156-.57-.36-.73-.613a1.818 1.818 0 0 1-.286-.8c-.031-.282-.047-.872-.047-1.77v-4.715h1.856v5.973c0 .347.02.57.05.668.035.097.102.144.203.144.118 0 .192-.05.227-.16.031-.106.05-.356.05-.754v-5.871Zm4.403 0 .972 7.969h-1.734l-.094-1.434h-.605l-.098 1.434h-1.758l.867-7.97Zm-.899 5.121c-.082-.898-.168-2.016-.258-3.344a85.845 85.845 0 0 0-.32 3.344Zm7.235-2.188h-1.891v-.718c0-.457-.02-.742-.055-.856-.035-.117-.12-.172-.254-.172-.117 0-.195.047-.238.149-.043.097-.062.347-.062.754v3.82c0 .36.02.594.062.707.043.113.125.168.25.168.137 0 .23-.062.277-.191.051-.125.075-.375.075-.746v-.946h-.375v-1.207h2.21v4.274h-1.19l-.177-.57a1.39 1.39 0 0 1-.488.55 1.255 1.255 0 0 1-.691.188c-.317 0-.625-.09-.891-.254a1.775 1.775 0 0 1-.633-.63 2.062 2.062 0 0 1-.265-.78 10.54 10.54 0 0 1-.055-1.235v-2.367c0-.758.039-1.313.113-1.656.074-.344.29-.66.645-.946.351-.289.812-.433 1.375-.433.554 0 1.011.125 1.379.375.363.25.601.543.714.887.11.343.165.84.165 1.492Zm1.199-2.933h3.433v1.598h-1.37v1.507h1.284v1.516H47.78v1.75h1.508v1.598h-3.57Zm0 0"/>
    <path fill="#6d6e71" d="M119.21 71.7c0 1.269-.995 2.269-2.296 2.269-1.285 0-2.309-1-2.309-2.27 0-1.246 1.024-2.242 2.31-2.242 1.3 0 2.296.996 2.296 2.242Zm-4.03 0c0 .995.738 1.788 1.75 1.788.984 0 1.707-.793 1.707-1.777 0-.996-.723-1.805-1.723-1.805-.996 0-1.734.809-1.734 1.793Zm1.379 1.175h-.52v-2.242a4.38 4.38 0 0 1 .863-.07c.422 0 .614.07.778.164a.619.619 0 0 1 .218.492c0 .246-.191.437-.464.52v.027c.218.082.343.246.41.546.07.344.11.481.164.563h-.559c-.07-.082-.11-.29-.18-.547-.039-.246-.175-.355-.464-.355h-.246Zm.015-1.273h.246c.285 0 .52-.094.52-.329 0-.203-.153-.34-.48-.34-.137 0-.231.012-.286.028Zm0 0"/>
    <path fill="#4a2469" d="M51.84 84.145h-.93v-.336h2.266v.336h-.938v2.722h-.398Zm4.254 1.378a22.53 22.53 0 0 1-.043-1.32h-.016c-.113.39-.242.777-.383 1.16l-.543 1.485h-.3l-.493-1.457a12.52 12.52 0 0 1-.355-1.188h-.008a38.96 38.96 0 0 1-.058 1.352l-.083 1.312h-.378l.214-3.058h.504l.524 1.48c.125.375.23.711.308 1.027h.012c.078-.308.188-.644.324-1.027l.543-1.48h.504l.192 3.058h-.387Zm0 0"/>
</svg>
