<svg xmlns="http://www.w3.org/2000/svg" viewBox="0 0 128 128">
    <path fill="#e13eaf" d="M77.994 4.232a3.645 3.645 0 0 0-.803.143c-.1.043-.207.063-.289.105L50.105 16.043c-1.093.473-1.734 1.465-1.714 2.621l.683 28.57c.02 1.157.723 2.293 1.836 2.996l27.457 17.012c1.012.617 2.211.805 3.242.473.106-.04.207-.063.313-.121l26.797-11.543c1.094-.473 1.735-1.465 1.71-2.621l-.679-28.575c-.02-1.132-.723-2.27-1.836-2.972L80.454 4.852a4.204 4.204 0 0 0-2.46-.62zm.83 6.998 23.864 14.782.578 24.836L80 60.883 56.133 46.102l-.598-24.836 23.29-10.036zM58.777 22.668l-.597.27.144 5.902 15.567 9.642.37 15.793 5.966 3.698.332-.147-.496-20.334c-.02-1.012-.64-2.005-1.61-2.62L58.777 22.667zm-12.82 2.066L33.031 30.31c-.949.41-1.525 1.277-1.482 2.289l.533 22.297c.02 1.01.641 2.003 1.611 2.601l21.43 13.277c.89.536 1.94.7 2.85.41a1.48 1.48 0 0 0 .265-.101l12.658-5.45-6.335-3.902-8.059 3.47-18.268-11.317-.453-19.012 8.32-3.594-.144-6.543zM29.09 37.637l-10.57 4.562c-.805.352-1.3 1.094-1.282 1.961l.395 16.848c.02.867.555 1.71 1.383 2.25l16.203 10.031c.765.477 1.676.602 2.437.352.082-.02.164-.063.227-.082l9.953-4.293-5.39-3.344-6.028 2.621-13.5-8.383-.332-14.058 6.629-2.852-.125-5.613zm11.355.183.121 5.617 5.907 3.653-.125-5.613-5.903-3.657zm8.875 14.473.125 5.512 5.41 3.324-.125-5.488-5.183-3.203c-.082-.04-.145-.102-.227-.145zm-29.832 39.66c-1.59 0-3.035.289-4.375.848a10.746 10.746 0 0 0-3.468 2.351c-.974.992-1.715 2.168-2.274 3.532-.554 1.363-.824 2.828-.824 4.398 0 1.566.247 3.035.765 4.398.516 1.36 1.238 2.54 2.168 3.528a9.665 9.665 0 0 0 3.446 2.355c1.363.558 2.87.848 4.543.848 4.004 0 7.144-1.446 9.37-4.336l-3.034-2.313c-.762.95-1.61 1.71-2.54 2.29-.925.577-2 .867-3.261.867a8.403 8.403 0 0 1-2.684-.453 7.57 7.57 0 0 1-2.27-1.258 6.07 6.07 0 0 1-1.59-1.942 5.42 5.42 0 0 1-.597-2.52h16.95v-1.425a14.88 14.88 0 0 0-.56-4.047 10.3 10.3 0 0 0-1.816-3.57c-.847-1.051-1.898-1.899-3.199-2.559-1.28-.66-2.87-.992-4.75-.992zm66.727 0c-1.57 0-3.055.29-4.418.867a11.202 11.202 0 0 0-5.969 5.926c-.578 1.34-.867 2.786-.867 4.336a11.017 11.017 0 0 0 .867 4.356 11.077 11.077 0 0 0 2.395 3.53c1.01 1.012 2.21 1.798 3.574 2.376 1.363.577 2.848.867 4.418.867 1.57 0 3.055-.29 4.418-.867 1.363-.602 2.558-1.386 3.57-2.375a10.804 10.804 0 0 0 2.395-3.531c.577-1.365.867-2.809.867-4.356 0-1.551-.29-2.996-.867-4.336a11.231 11.231 0 0 0-5.965-5.926c-1.363-.577-2.848-.867-4.418-.867zm-41.828.02c-1.653 0-3.073.351-4.336 1.054-1.257.703-2.145 1.61-2.64 2.746h-.083v-3.261H33.28v21.18h4.026v-10.899c0-1.238.167-2.293.457-3.18.308-.886.722-1.633 1.258-2.21a4.817 4.817 0 0 1 1.878-1.278 6.904 6.904 0 0 1 2.313-.395 5.934 5.934 0 0 1 1.816.29 3.858 3.858 0 0 1 1.547.93c.457.433.804.99 1.074 1.695.27.699.395 1.527.395 2.515v12.512h4.023v-13.625c0-1.382-.207-2.603-.617-3.633-.414-1.036-.972-1.86-1.672-2.52a6.862 6.862 0 0 0-2.457-1.445 9.456 9.456 0 0 0-2.933-.476zm8.96.539 8.63 21.16h4.418l8.3-21.16h-4.297l-6.066 16.207-6.34-16.207h-4.644zm44.43 0 8.75 21.324-1.3 3.348a14.92 14.92 0 0 1-.618 1.421 4.203 4.203 0 0 1-.785 1.094 2.85 2.85 0 0 1-1.113.723c-.434.168-.95.25-1.57.25-.805 0-1.59-.168-2.395-.496l-.496 3.652a6.422 6.422 0 0 0 1.754.477 17.5 17.5 0 0 0 1.797.101c1.118 0 2.023-.163 2.789-.453a5.732 5.732 0 0 0 1.937-1.258c.54-.539.993-1.18 1.387-1.941.391-.766.762-1.59 1.113-2.52l10.055-25.722h-4.297l-6.004 16.515h-.086l-6.273-16.515h-4.645zm-78.37 2.664c1.011 0 1.898.162 2.663.472a5.175 5.175 0 0 1 1.899 1.301 5.585 5.585 0 0 1 1.136 1.942 7.914 7.914 0 0 1 .43 2.437H12.82c0-.723.164-1.445.477-2.168.308-.723.762-1.383 1.32-1.984a6.59 6.59 0 0 1 2.086-1.446c.824-.37 1.711-.554 2.703-.554zm66.827.535c1.074 0 2.043.187 2.91.559.868.39 1.59.887 2.192 1.527.598.64 1.05 1.402 1.383 2.312.328.907.496 1.899.496 2.973a8.697 8.697 0 0 1-.496 2.973c-.333.906-.785 1.672-1.383 2.312a6.444 6.444 0 0 1-2.191 1.528c-.867.37-1.836.558-2.91.558-1.075 0-2.044-.188-2.91-.558a6.39 6.39 0 0 1-2.188-1.528c-.602-.64-1.055-1.406-1.383-2.312-.332-.91-.496-1.899-.496-2.973 0-1.074.144-2.066.496-2.973.328-.89.78-1.672 1.383-2.312a6.39 6.39 0 0 1 2.187-1.527c.866-.372 1.835-.56 2.91-.56z"/>
</svg>
