<svg xmlns="http://www.w3.org/2000/svg" viewBox="0 0 128 128">
    <path fill="#4a0d66" d="M12.863 104.547c0 .93.207 1.754.598 2.52a6.07 6.07 0 0 0 1.59 1.94 7.57 7.57 0 0 0 2.27 1.259 8.403 8.403 0 0 0 2.683.453c1.262 0 2.336-.29 3.262-.867.93-.579 1.777-1.34 2.539-2.29l3.035 2.313c-2.227 2.89-5.367 4.336-9.371 4.336-1.672 0-3.18-.29-4.543-.848a9.665 9.665 0 0 1-3.446-2.355c-.93-.988-1.652-2.168-2.168-3.528-.519-1.363-.765-2.832-.765-4.398 0-1.57.27-3.035.824-4.398.559-1.364 1.3-2.54 2.274-3.532a10.746 10.746 0 0 1 3.468-2.351c1.34-.559 2.785-.848 4.375-.848 1.88 0 3.469.332 4.75.992 1.301.66 2.352 1.508 3.2 2.559a10.3 10.3 0 0 1 1.816 3.57 14.88 14.88 0 0 1 .558 4.047v1.426Zm12.676-3.2a7.914 7.914 0 0 0-.434-2.456 5.585 5.585 0 0 0-1.136-1.942 5.175 5.175 0 0 0-1.899-1.3c-.765-.31-1.652-.473-2.664-.473-.992 0-1.879.183-2.703.554a6.59 6.59 0 0 0-2.086 1.446c-.558.601-1.012 1.261-1.32 1.984-.313.723-.477 1.445-.477 2.168h12.72Zm7.762-8.835h4.027v3.261h.082c.496-1.136 1.383-2.043 2.64-2.746 1.263-.703 2.684-1.054 4.337-1.054 1.011 0 1.98.168 2.933.476a6.862 6.862 0 0 1 2.457 1.446c.7.66 1.258 1.484 1.672 2.52.41 1.03.617 2.25.617 3.632v13.625h-4.023V101.16c0-.988-.125-1.816-.395-2.515-.27-.704-.617-1.262-1.074-1.696a3.858 3.858 0 0 0-1.547-.93 5.934 5.934 0 0 0-1.816-.289c-.828 0-1.61.145-2.313.395-.722.266-1.343.7-1.878 1.277-.536.578-.95 1.325-1.258 2.211-.29.887-.457 1.942-.457 3.18v10.898H33.28v-21.18Zm20.047 0h4.644l6.34 16.207 6.066-16.207h4.297l-8.3 21.16h-4.418Zm21.613 10.57c0-1.55.289-2.996.867-4.336a11.202 11.202 0 0 1 5.969-5.926c1.363-.578 2.848-.867 4.418-.867 1.57 0 3.055.29 4.418.867a11.231 11.231 0 0 1 5.965 5.926c.578 1.34.867 2.785.867 4.336 0 1.547-.29 2.992-.867 4.356a10.804 10.804 0 0 1-2.395 3.53c-1.012.989-2.207 1.774-3.57 2.376-1.363.578-2.848.867-4.418.867-1.57 0-3.055-.29-4.418-.867-1.363-.578-2.563-1.364-3.574-2.375a11.077 11.077 0 0 1-2.395-3.531 11.017 11.017 0 0 1-.867-4.356Zm4.297 0c0 1.074.164 2.063.496 2.973.328.906.781 1.672 1.383 2.312a6.39 6.39 0 0 0 2.187 1.528c.867.37 1.836.558 2.91.558 1.075 0 2.043-.187 2.91-.558a6.444 6.444 0 0 0 2.192-1.528c.598-.64 1.05-1.406 1.383-2.312.328-.91.496-1.899.496-2.973 0-1.074-.168-2.066-.496-2.973-.332-.91-.785-1.671-1.383-2.312-.602-.64-1.324-1.137-2.191-1.527-.868-.372-1.836-.56-2.91-.56-1.075 0-2.044.188-2.91.56a6.39 6.39 0 0 0-2.188 1.527c-.602.64-1.055 1.422-1.383 2.312-.352.907-.496 1.899-.496 2.973Zm18.52-10.57h4.644l6.273 16.515h.086l6.004-16.515h4.297l-10.055 25.722c-.351.93-.722 1.754-1.113 2.52-.394.762-.848 1.402-1.387 1.941a5.732 5.732 0 0 1-1.937 1.258c-.766.29-1.672.453-2.79.453a17.5 17.5 0 0 1-1.796-.101 6.422 6.422 0 0 1-1.754-.477l.496-3.652c.805.328 1.59.496 2.395.496.62 0 1.136-.082 1.57-.25a2.85 2.85 0 0 0 1.113-.723c.309-.308.578-.68.785-1.094.207-.41.414-.886.618-1.421l1.3-3.348Zm0 0"/>
    <path fill="#b31aab" d="m40.445 37.82.121 5.617 5.907 3.653-.125-5.613Zm14.41 23.309-.125-5.488-5.183-3.203c-.082-.04-.145-.102-.227-.145l.125 5.512Zm-18.437 7.414-13.5-8.383-.332-14.058 6.629-2.852-.125-5.613-10.57 4.562c-.805.352-1.301 1.094-1.282 1.961l.395 16.848c.02.867.555 1.71 1.383 2.25l16.203 10.031c.765.477 1.676.602 2.437.352.082-.02.164-.063.227-.082l9.953-4.293-5.39-3.344Zm0 0"/>
    <path fill="#d163ce" d="M80.063 37.492c-.02-1.012-.641-2.004-1.61-2.62L58.777 22.667l-.597.27.144 5.902 15.567 9.644.37 15.793 5.966 3.696.332-.145ZM56.502 65.2 38.235 53.883l-.453-19.012 8.32-3.594-.144-6.543-12.926 5.575c-.949.41-1.527 1.277-1.484 2.289l.535 22.297c.02 1.011.64 2.003 1.61 2.601l21.43 13.277c.89.536 1.94.7 2.85.41a1.48 1.48 0 0 0 .266-.101l12.657-5.45-6.336-3.902Zm0 0"/>
    <path fill="#e13eaf" d="M107.914 21.883 80.454 4.852c-1.013-.622-2.231-.786-3.263-.477-.101.043-.207.063-.289.105L50.105 16.043c-1.093.473-1.734 1.465-1.714 2.621l.683 28.57c.02 1.157.723 2.293 1.836 2.996l27.457 17.012c1.012.617 2.211.805 3.242.473.106-.04.207-.063.313-.121l26.797-11.543c1.094-.473 1.734-1.465 1.71-2.621l-.679-28.575c-.02-1.132-.723-2.27-1.836-2.972ZM80 60.883 56.133 46.102l-.598-24.836 23.29-10.036 23.862 14.782.579 24.836Zm0 0"/>
</svg>
