<svg version="1.1" xmlns="http://www.w3.org/2000/svg" xmlns:xlink="http://www.w3.org/1999/xlink" viewBox="0 0 128 128">
  <path fill="#0868AC" d="M27.758,20.421c-7.352,10.565-6.437,24.312-0.82,35.54c0.133,0.269,0.273,0.534,0.411,0.798c0.088,0.168,0.171,0.341,0.263,0.506c0.052,0.1,0.109,0.197,0.164,0.291c0.096,0.18,0.194,0.349,0.293,0.524c0.174,0.307,0.353,0.612,0.536,0.919c0.101,0.168,0.201,0.335,0.306,0.504c0.203,0.326,0.41,0.65,0.622,0.973c0.088,0.138,0.174,0.275,0.265,0.409c0.293,0.437,0.592,0.872,0.901,1.301c0.008,0.011,0.016,0.022,0.026,0.033c0.048,0.069,0.103,0.137,0.152,0.205c0.267,0.368,0.542,0.732,0.821,1.093c0.102,0.131,0.205,0.262,0.309,0.393c0.249,0.313,0.502,0.623,0.759,0.934c0.096,0.115,0.193,0.232,0.29,0.346c0.345,0.406,0.698,0.812,1.057,1.208c0.006,0.007,0.015,0.016,0.021,0.022c0.015,0.017,0.028,0.027,0.041,0.045c0.351,0.383,0.71,0.758,1.075,1.133c0.113,0.115,0.228,0.232,0.344,0.347c0.282,0.284,0.569,0.563,0.858,0.841c0.118,0.112,0.234,0.227,0.351,0.334c0.387,0.364,0.777,0.722,1.176,1.07c0.007,0.006,0.012,0.011,0.018,0.016c0.068,0.06,0.138,0.116,0.205,0.174c0.351,0.305,0.708,0.605,1.068,0.902c0.146,0.119,0.295,0.235,0.442,0.353c0.294,0.235,0.591,0.468,0.89,0.696c0.158,0.12,0.317,0.241,0.477,0.361c0.33,0.243,0.663,0.482,0.999,0.717c0.123,0.089,0.241,0.175,0.363,0.258c0.035,0.025,0.066,0.049,0.101,0.072c0.318,0.22,0.645,0.431,0.97,0.642c0.14,0.093,0.279,0.189,0.42,0.28c0.5,0.315,1.007,0.628,1.519,0.93c0.139,0.08,0.28,0.158,0.42,0.237c0.377,0.217,0.756,0.431,1.14,0.639c0.208,0.112,0.421,0.218,0.631,0.326c0.271,0.142,0.541,0.286,0.816,0.424c0.062,0.03,0.127,0.06,0.188,0.091c0.111,0.054,0.223,0.105,0.334,0.161c0.427,0.204,0.858,0.405,1.293,0.599c0.092,0.041,0.182,0.082,0.273,0.122c0.498,0.218,1.001,0.427,1.508,0.628c0.122,0.049,0.245,0.096,0.368,0.144c0.469,0.182,0.945,0.359,1.423,0.527c0.061,0.021,0.118,0.042,0.179,0.062c0.524,0.184,1.054,0.353,1.587,0.52c0.127,0.036,0.255,0.077,0.383,0.114c0.542,0.164,1.079,0.358,1.638,0.462c35.553,6.483,45.88-21.364,45.88-21.364c-8.674,11.3-24.069,14.28-38.656,10.962c-0.553-0.125-1.089-0.298-1.628-0.456c-0.137-0.041-0.271-0.082-0.406-0.124c-0.526-0.161-1.049-0.33-1.568-0.51c-0.071-0.026-0.143-0.052-0.215-0.077c-0.465-0.164-0.924-0.336-1.382-0.513c-0.129-0.052-0.258-0.101-0.388-0.152c-0.501-0.198-1-0.405-1.492-0.62c-0.101-0.043-0.198-0.089-0.298-0.133c-0.423-0.191-0.842-0.384-1.259-0.585c-0.121-0.058-0.241-0.114-0.364-0.175c-0.327-0.159-0.65-0.328-0.974-0.495c-0.216-0.114-0.436-0.222-0.649-0.341c-0.395-0.21-0.782-0.43-1.167-0.654c-0.13-0.073-0.263-0.144-0.394-0.219c-0.513-0.303-1.019-0.615-1.52-0.932c-0.139-0.088-0.273-0.183-0.41-0.273c-0.363-0.234-0.725-0.473-1.081-0.719c-0.118-0.079-0.232-0.165-0.349-0.245c-0.344-0.242-0.685-0.489-1.022-0.738c-0.153-0.114-0.304-0.229-0.453-0.343c-0.31-0.237-0.618-0.476-0.922-0.721c-0.138-0.109-0.276-0.221-0.411-0.33c-0.388-0.318-0.771-0.64-1.149-0.969c-0.04-0.034-0.083-0.068-0.126-0.105c-0.409-0.359-0.811-0.728-1.208-1.098c-0.115-0.111-0.228-0.218-0.34-0.328c-0.294-0.279-0.584-0.561-0.868-0.851c-0.114-0.114-0.229-0.226-0.34-0.34c-0.362-0.37-0.717-0.745-1.065-1.126c-0.017-0.02-0.035-0.036-0.053-0.057c-0.368-0.402-0.728-0.813-1.08-1.229c-0.096-0.114-0.188-0.225-0.283-0.336c-0.263-0.316-0.523-0.638-0.777-0.961c-0.095-0.115-0.191-0.235-0.285-0.355c-0.307-0.397-0.605-0.793-0.898-1.195c-8.098-11.047-11.008-26.283-4.535-38.795"
  />
  <path fill="#0868AC" d="M50.578,11.519c-5.316,7.65-5.028,17.893-0.88,25.983c0.695,1.356,1.477,2.673,2.351,3.925c0.796,1.143,1.68,2.501,2.737,3.418c0.383,0.422,0.784,0.834,1.193,1.238c0.103,0.105,0.208,0.207,0.314,0.311c0.397,0.385,0.801,0.764,1.218,1.132c0.018,0.014,0.033,0.031,0.05,0.043c0.004,0.005,0.009,0.007,0.012,0.012c0.462,0.405,0.939,0.794,1.423,1.178c0.108,0.081,0.214,0.168,0.323,0.252c0.486,0.372,0.981,0.738,1.489,1.087c0.016,0.011,0.029,0.021,0.043,0.033c0.224,0.155,0.452,0.299,0.68,0.447c0.108,0.07,0.212,0.146,0.322,0.213c0.363,0.233,0.73,0.459,1.104,0.676c0.053,0.033,0.104,0.062,0.156,0.092c0.322,0.185,0.648,0.367,0.975,0.545c0.114,0.063,0.23,0.12,0.347,0.18c0.226,0.119,0.452,0.239,0.682,0.354c0.034,0.018,0.07,0.032,0.103,0.047c0.469,0.23,0.941,0.453,1.424,0.663c0.103,0.046,0.21,0.087,0.314,0.13c0.386,0.163,0.775,0.323,1.167,0.473c0.166,0.063,0.334,0.123,0.5,0.184c0.356,0.132,0.712,0.253,1.072,0.373c0.162,0.053,0.321,0.105,0.484,0.155c0.511,0.158,1.017,0.359,1.549,0.448c27.45,4.547,33.787-16.588,33.787-16.588c-5.712,8.228-16.775,12.153-28.58,9.089c-0.524-0.138-1.042-0.288-1.555-0.449c-0.157-0.048-0.312-0.1-0.467-0.151c-0.365-0.117-0.728-0.243-1.087-0.374c-0.165-0.061-0.33-0.121-0.491-0.183c-0.394-0.152-0.784-0.309-1.171-0.473c-0.105-0.045-0.212-0.086-0.315-0.133c-0.485-0.211-0.962-0.434-1.432-0.666c-0.242-0.118-0.48-0.243-0.718-0.365c-0.138-0.071-0.276-0.143-0.414-0.213c-0.306-0.166-0.61-0.338-0.909-0.514c-0.071-0.04-0.146-0.08-0.217-0.123c-0.372-0.217-0.738-0.44-1.1-0.672c-0.112-0.07-0.22-0.147-0.332-0.221c-0.239-0.155-0.478-0.312-0.712-0.472c-0.506-0.349-0.999-0.714-1.484-1.085c-0.112-0.089-0.224-0.175-0.334-0.264c-5.167-4.079-9.263-9.655-11.21-15.977c-2.041-6.557-1.601-13.917,1.935-19.891"
  />
  <path fill="#0868AC" d="M69.771,4.868c-3.134,4.612-3.442,10.341-1.267,15.435c2.293,5.407,6.992,9.648,12.477,11.66c0.226,0.084,0.452,0.159,0.682,0.235c0.1,0.032,0.199,0.066,0.3,0.096c0.323,0.102,0.644,0.22,0.978,0.282c15.157,2.929,19.268-7.777,20.362-9.354c-3.601,5.185-9.653,6.43-17.079,4.627c-0.586-0.142-1.231-0.354-1.796-0.555c-0.725-0.259-1.439-0.553-2.134-0.886c-1.318-0.634-2.575-1.402-3.741-2.282c-6.645-5.042-10.772-14.659-6.436-22.492"
  />
  <path fill="#131B28" d="M66.359,96.295h-4.226c-0.234,0-0.467,0.188-0.517,0.417l-1.5,6.94l-1.5,6.94c-0.049,0.229-0.282,0.417-0.516,0.417h-2.564h-0.427c-2.959,0-2.617-2.047-2.011-4.851c0.006-0.029,0.012-0.057,0.018-0.085l0.066-0.354c0.004-0.022,0.009-0.046,0.012-0.066l0.135-0.72l0.145-0.771c0.044-0.232,0.11-0.572,0.154-0.785l0.682-3.332l0.683-3.332c0.047-0.23-0.107-0.419-0.341-0.419h-4.337c-0.234,0-0.466,0.188-0.514,0.418l-0.933,4.424l-0.932,4.425c-0.001,0.002-0.001,0.004-0.002,0.006l-0.086,0.412c-1.074,4.903-0.79,9.58,5.048,9.727c0.096,0.003,0.17,0.003,0.17,0.003h9.163c0.234,0,0.467-0.188,0.516-0.417l1.976-9.289l1.976-9.29C66.746,96.483,66.594,96.296,66.359,96.295L66.359,96.295z"
  />
  <path fill="#131B28" d="M21.103,96.246h-4.64c-0.235,0-0.469,0.188-0.521,0.416l-0.44,1.942l-0.44,1.942c-0.051,0.229,0.098,0.416,0.333,0.416h4.676c0.235,0,0.468-0.188,0.518-0.417l0.425-1.941l0.425-1.941l0,0C21.488,96.434,21.338,96.246,21.103,96.246L21.103,96.246z"
  />
  <path fill="#131B28" d="M19.757,102.29H15.08c-0.234,0-0.469,0.188-0.521,0.416l-0.657,2.91l-0.656,2.909c-0.052,0.229-0.134,0.604-0.183,0.834l-0.631,2.97l-0.63,2.971c-0.049,0.229-0.15,0.599-0.225,0.821c0,0-0.874,2.6-2.343,2.57c-0.062-0.001-0.123-0.003-0.184-0.004c-0.711-0.013-1.271-0.023-1.271-0.023H7.778c-0.234-0.003-0.469,0.18-0.524,0.407l-0.485,2.039l-0.484,2.038c-0.055,0.228,0.093,0.416,0.326,0.42c0.833,0.01,2.699,0.031,3.828,0.031c3.669,0,5.604-2.033,6.843-7.883l1.451-6.714l1.361-6.297C20.143,102.478,19.991,102.29,19.757,102.29L19.757,102.29z"
  />
  <path fill="#131B28" d="M105.874,100.716l-0.194-0.801l-0.191-0.82l-0.097-0.414c-0.38-1.477-1.495-2.328-3.917-2.328l-3.77-0.004l-3.472-0.005h-0.298h-3.609c-0.234,0-0.466,0.188-0.515,0.417l0,0l-0.173,0.816l-0.204,0.964l-0.057,0.271l-1.759,8.24l-1.67,7.822c-0.05,0.23-0.066,0.512-0.038,0.626c0.028,0.115,0.479,0.209,0.713,0.209h3.524c0.235,0,0.532-0.042,0.66-0.094c0.128-0.052,0.317-0.513,0.364-0.742l0.626-3.099l0.627-3.1c0,0,0-0.003,0.001-0.005l0.084-0.413l0.76-3.56l0.671-3.144c0.05-0.229,0.281-0.416,0.515-0.417l11.089-0.005C105.779,101.132,105.927,100.945,105.874,100.716L105.874,100.716z"
  />
  <path fill="#131B28" d="M120.149,93.476c-0.234,0.002-0.619,0.003-0.854,0.003h-3.549c-0.235,0-0.536,0.159-0.667,0.353l-7.849,11.498c-0.132,0.194-0.283,0.166-0.335-0.062l-0.578-2.533c-0.052-0.229-0.287-0.416-0.522-0.416h-5.045c-0.235,0-0.374,0.184-0.31,0.409l2.261,7.921c0.064,0.226,0.069,0.596,0.011,0.824l-0.985,3.833c-0.059,0.228,0.085,0.413,0.32,0.413h4.987c0.234,0,0.474-0.186,0.532-0.413l0.986-3.833c0.058-0.229,0.221-0.567,0.363-0.755l12.742-16.911c0.142-0.188,0.065-0.341-0.169-0.339L120.149,93.476L120.149,93.476z"
  />
  <path fill="#131B28" d="M80.063,103.395l0-0.004c-0.029,0.254-0.264,0.441-0.499,0.441h-6.397c-0.222,0-0.334-0.15-0.301-0.336c0.002-0.005,0.003-0.011,0.006-0.015c0,0-0.002,0-0.004,0.002c0.001-0.008,0.001-0.014,0.003-0.021c0,0,0.012-0.045,0.029-0.109c0.611-1.624,1.855-2.69,4.194-2.69C79.728,100.662,80.242,101.948,80.063,103.395L80.063,103.395z M78.186,96.011c-8.211,0-10.157,4.984-11.249,10.015c-1.091,5.128-0.998,9.921,7.5,9.921h0.302c0.027,0,0.054,0,0.081,0h0.238h0.087h0.223c0.033,0,0.065,0,0.099,0c0.085,0,0.17-0.001,0.256-0.001h0.06c0.337-0.001,0.678-0.002,1.02-0.003h0.018c2.244-0.009,4.495-0.026,5.406-0.033c0.233-0.004,0.461-0.191,0.509-0.42l0.344-1.681l0.067-0.327l0.41-2.006c0.047-0.229-0.106-0.418-0.341-0.418h-7.639c-3.039,0-3.941-0.807-3.608-3.181H84.18l-0.001,0.001c0.003,0,0.006-0.001,0.008-0.001c0.194-0.003,0.374-0.137,0.445-0.315c0.013-0.034,0.025-0.069,0.029-0.106l-0.001,0.001C86.473,100.618,85.953,96.012,78.186,96.011L78.186,96.011z"
  />
  <path fill="#131B28" d="M39.376,103.369l-0.116,0.409c0,0.001,0,0.001,0,0.001l-0.922,3.268l-0.922,3.267c-0.063,0.227-0.308,0.411-0.543,0.411h-4.88c-3.702,0-4.604-2.896-3.702-7.166c0.901-4.368,2.668-7.083,6.312-7.358C39.583,95.825,40.579,99.327,39.376,103.369L39.376,103.369z M42.724,110.474c0,0,2.301-5.588,2.823-8.814c0.713-4.319-1.45-10.585-9.804-10.585c-8.306,0-11.914,5.981-13.29,12.484c-1.376,6.55,0.427,12.293,8.686,12.246l6.516-0.024l6.089-0.022c0.234-0.002,0.474-0.188,0.534-0.414l1.061-4.046c0.059-0.228-0.084-0.414-0.319-0.416l-1.017-0.006l-1.017-0.006c-0.199-0.001-0.313-0.131-0.289-0.302C42.702,110.538,42.709,110.506,42.724,110.474L42.724,110.474z"
  />
  <path fill="#131B28" d="M83.844,106.733c0,0.155-0.125,0.281-0.28,0.281c-0.154,0-0.28-0.126-0.28-0.281c0-0.154,0.125-0.279,0.28-0.279C83.719,106.454,83.844,106.579,83.844,106.733z" />
</svg>
