<svg xmlns="http://www.w3.org/2000/svg" viewBox="0 0 128 128"><path fill="#0868AC" d="M65.283 106.928c-.828-.187-1.633-.446-2.441-.685l-.609-.185a72.498 72.498 0 01-2.352-.765l-.323-.117a71.149 71.149 0 01-2.074-.769l-.582-.229c-.752-.297-1.5-.607-2.238-.931l-.447-.198a92.857 92.857 0 01-1.889-.879l-.546-.262c-.491-.239-.977-.493-1.461-.743-.324-.171-.654-.332-.975-.51a57.368 57.368 0 01-1.751-.982l-.591-.33a79.8 79.8 0 01-2.28-1.397l-.615-.41a57.785 57.785 0 01-1.623-1.079l-.523-.367a93.376 93.376 0 01-1.534-1.109l-.679-.514a67.061 67.061 0 01-1.384-1.082l-.617-.495a85.378 85.378 0 01-1.724-1.453l-.188-.159a81.186 81.186 0 01-1.812-1.647l-.51-.491c-.441-.42-.875-.843-1.302-1.277l-.51-.509a72.65 72.65 0 01-1.599-1.69l-.078-.084a65.735 65.735 0 01-1.621-1.844l-.424-.504a67.378 67.378 0 01-1.167-1.442l-.427-.532a78.406 78.406 0 01-1.347-1.794C12.89 62.89 8.524 40.032 18.236 21.26L9.625 32.181C-1.404 48.032-.031 68.657 8.394 85.501c.2.404.411.801.617 1.198l.395.759.245.437.439.786c.262.461.53.92.805 1.379l.458.756c.304.491.615.976.934 1.46l.398.614c.438.655.888 1.309 1.352 1.951l.039.05.228.308c.4.553.814 1.099 1.232 1.639l.463.59c.373.469.752.935 1.139 1.399l.435.52a75.27 75.27 0 001.586 1.812l.032.033.062.068a77.952 77.952 0 001.612 1.699l.517.521c.423.426.853.845 1.287 1.262l.526.5c.58.547 1.166 1.083 1.764 1.607l.028.022.307.262c.526.456 1.062.909 1.603 1.353l.664.529c.441.354.887.702 1.336 1.044l.714.543c.495.365.995.724 1.499 1.075l.546.387.15.107c.478.329.967.646 1.456.963l.63.42c.749.474 1.51.943 2.278 1.396l.63.355a74.53 74.53 0 001.711.959c.312.168.632.327.946.488.407.213.811.429 1.225.636l.283.137.501.242c.641.306 1.287.607 1.94.897l.41.184a66.92 66.92 0 002.263.941l.551.217c.704.271 1.418.539 2.135.791l.268.093c.786.275 1.581.53 2.381.779l.575.172c.814.245 1.618.538 2.458.693 53.339 9.727 68.833-32.053 68.833-32.053-13.014 16.954-36.112 21.426-57.997 16.447zM46.069 63.697c1.195 1.713 2.52 3.751 4.105 5.127a48.111 48.111 0 001.79 1.858l.472.465a52.581 52.581 0 001.828 1.698l.074.064.018.018a55.268 55.268 0 002.135 1.767l.484.378a54.08 54.08 0 002.233 1.631l.065.049c.336.232.679.448 1.02.672l.482.319c.544.349 1.096.689 1.656 1.015l.234.136c.483.278.973.552 1.463.818l.521.271c.339.177.678.358 1.024.53l.155.07c.702.346 1.411.68 2.136.995l.472.194a50.02 50.02 0 001.75.71l.75.275c.533.198 1.068.378 1.608.559l.727.233c.767.238 1.525.539 2.324.672 41.183 6.823 50.69-24.886 50.69-24.886-8.57 12.343-25.168 18.233-42.879 13.635a50.376 50.376 0 01-2.333-.674l-.7-.227a46.162 46.162 0 01-1.632-.562l-.736-.274a57.432 57.432 0 01-1.756-.708l-.473-.2a47.728 47.728 0 01-2.148-.999c-.364-.177-.721-.364-1.078-.548l-.622-.32a44.502 44.502 0 01-1.363-.77l-.326-.185a47.802 47.802 0 01-1.65-1.008l-.498-.332a65.856 65.856 0 01-1.069-.707 58.235 58.235 0 01-2.226-1.628l-.501-.395c-7.752-6.12-13.897-14.486-16.819-23.971-3.062-9.836-2.401-20.878 2.903-29.84l-6.517 9.2c-7.977 11.478-7.543 26.844-1.321 38.983a50.37 50.37 0 003.528 5.892zm43.407-14.199c.339.125.678.237 1.022.354l.451.143c.484.152.966.329 1.467.424 22.739 4.394 28.908-11.669 30.549-14.034-5.403 7.779-14.482 9.646-25.623 6.942-.88-.213-1.848-.531-2.696-.832a33.242 33.242 0 01-3.201-1.329 33.175 33.175 0 01-5.612-3.424c-9.969-7.565-16.162-21.994-9.657-33.745l-3.52 4.851c-4.702 6.92-5.164 15.514-1.901 23.156 3.441 8.112 10.492 14.475 18.721 17.494z"/></svg>