<svg version="1.1" xmlns="http://www.w3.org/2000/svg" xmlns:xlink="http://www.w3.org/1999/xlink" viewBox="0 0 128 128">
  <path fill="#0868AC" d="M9.625,32.181C-1.404,48.032-0.031,68.657,8.394,85.501c0.2,0.404,0.41,0.801,0.617,1.198c0.132,0.252,0.256,0.511,0.394,0.759c0.078,0.149,0.165,0.295,0.246,0.437c0.144,0.269,0.291,0.523,0.439,0.786c0.262,0.461,0.53,0.92,0.804,1.379c0.152,0.252,0.302,0.504,0.459,0.756c0.304,0.491,0.615,0.976,0.933,1.46c0.133,0.207,0.262,0.414,0.398,0.614c0.439,0.655,0.888,1.309,1.352,1.951c0.012,0.017,0.024,0.035,0.039,0.05c0.073,0.104,0.154,0.205,0.228,0.308c0.401,0.553,0.814,1.099,1.232,1.639c0.154,0.196,0.309,0.393,0.464,0.59c0.373,0.469,0.752,0.935,1.138,1.399c0.145,0.173,0.29,0.349,0.435,0.52c0.518,0.61,1.047,1.217,1.586,1.812c0.01,0.01,0.023,0.023,0.033,0.033c0.022,0.026,0.042,0.042,0.061,0.068c0.527,0.575,1.066,1.137,1.612,1.699c0.169,0.174,0.342,0.348,0.517,0.521c0.423,0.426,0.853,0.845,1.287,1.262c0.177,0.168,0.351,0.34,0.527,0.5c0.58,0.547,1.166,1.083,1.764,1.607c0.01,0.009,0.018,0.017,0.028,0.022c0.101,0.09,0.207,0.175,0.307,0.262c0.527,0.456,1.063,0.909,1.603,1.353c0.22,0.178,0.443,0.353,0.664,0.529c0.441,0.354,0.887,0.702,1.336,1.044c0.237,0.182,0.475,0.362,0.714,0.543c0.496,0.365,0.995,0.724,1.499,1.075c0.185,0.133,0.362,0.262,0.546,0.387c0.051,0.036,0.098,0.073,0.15,0.107c0.478,0.329,0.967,0.646,1.456,0.963c0.21,0.14,0.418,0.284,0.63,0.42c0.75,0.474,1.51,0.943,2.279,1.396c0.209,0.12,0.42,0.236,0.63,0.355c0.565,0.326,1.134,0.646,1.71,0.959c0.312,0.168,0.632,0.327,0.946,0.488c0.407,0.213,0.811,0.429,1.225,0.636c0.094,0.047,0.191,0.09,0.283,0.137c0.167,0.08,0.334,0.157,0.501,0.242c0.641,0.306,1.287,0.607,1.94,0.897c0.139,0.062,0.272,0.123,0.41,0.184c0.748,0.327,1.502,0.641,2.263,0.941c0.183,0.075,0.367,0.145,0.551,0.217c0.704,0.271,1.418,0.539,2.135,0.791c0.09,0.032,0.178,0.062,0.268,0.093c0.787,0.275,1.581,0.53,2.381,0.779c0.191,0.055,0.383,0.116,0.575,0.172c0.814,0.245,1.619,0.538,2.458,0.693c53.339,9.727,68.833-32.053,68.833-32.053c-13.013,16.953-36.111,21.425-57.996,16.446c-0.829-0.187-1.633-0.446-2.442-0.685c-0.206-0.061-0.407-0.123-0.609-0.185c-0.79-0.242-1.573-0.497-2.352-0.765c-0.106-0.039-0.214-0.078-0.323-0.117c-0.698-0.245-1.387-0.504-2.074-0.769c-0.194-0.077-0.388-0.151-0.582-0.229c-0.752-0.297-1.5-0.607-2.239-0.931c-0.152-0.064-0.297-0.133-0.447-0.198c-0.635-0.288-1.263-0.578-1.889-0.879c-0.181-0.086-0.362-0.171-0.546-0.262c-0.491-0.239-0.977-0.493-1.461-0.743c-0.324-0.171-0.654-0.332-0.975-0.51c-0.592-0.317-1.172-0.646-1.751-0.982c-0.196-0.11-0.394-0.216-0.591-0.33c-0.769-0.452-1.528-0.921-2.28-1.397c-0.207-0.132-0.41-0.273-0.615-0.41c-0.545-0.351-1.088-0.709-1.623-1.079c-0.177-0.119-0.348-0.249-0.522-0.367c-0.516-0.365-1.027-0.734-1.534-1.109c-0.23-0.17-0.456-0.343-0.679-0.514c-0.465-0.355-0.927-0.713-1.384-1.082c-0.207-0.164-0.413-0.33-0.617-0.495c-0.582-0.479-1.156-0.959-1.724-1.453c-0.06-0.052-0.125-0.103-0.189-0.159c-0.614-0.539-1.216-1.092-1.812-1.647c-0.173-0.166-0.341-0.326-0.511-0.491c-0.441-0.42-0.875-0.843-1.302-1.277c-0.171-0.17-0.342-0.338-0.51-0.509c-0.543-0.556-1.076-1.119-1.598-1.69c-0.025-0.028-0.053-0.054-0.079-0.084c-0.552-0.604-1.092-1.221-1.621-1.844c-0.143-0.172-0.282-0.336-0.424-0.504c-0.394-0.475-0.785-0.956-1.167-1.442c-0.143-0.173-0.286-0.353-0.427-0.532c-0.459-0.596-0.908-1.189-1.347-1.794c-12.15-16.574-16.516-39.432-6.805-58.204"
  />
  <path fill="#0868AC" d="M43.862,18.825c-7.977,11.478-7.543,26.844-1.321,38.983c1.043,2.035,2.216,4.01,3.528,5.889c1.195,1.713,2.52,3.751,4.106,5.127c0.575,0.633,1.176,1.251,1.79,1.858c0.155,0.158,0.313,0.311,0.472,0.465c0.596,0.578,1.201,1.146,1.828,1.698c0.026,0.021,0.048,0.047,0.074,0.064c0.006,0.008,0.013,0.011,0.018,0.018c0.693,0.608,1.408,1.191,2.135,1.767c0.162,0.123,0.322,0.252,0.485,0.378c0.729,0.559,1.472,1.107,2.233,1.631c0.023,0.016,0.042,0.032,0.065,0.049c0.336,0.232,0.678,0.448,1.019,0.672c0.163,0.106,0.318,0.22,0.483,0.319c0.544,0.349,1.095,0.689,1.655,1.015c0.08,0.049,0.157,0.091,0.235,0.136c0.483,0.278,0.972,0.552,1.463,0.818c0.171,0.095,0.346,0.181,0.521,0.271c0.339,0.177,0.678,0.358,1.023,0.53c0.051,0.026,0.105,0.048,0.155,0.07c0.703,0.346,1.412,0.68,2.136,0.995c0.155,0.068,0.315,0.129,0.472,0.194c0.579,0.246,1.164,0.486,1.75,0.71c0.249,0.094,0.5,0.185,0.75,0.275c0.533,0.198,1.068,0.378,1.607,0.559c0.244,0.078,0.483,0.158,0.727,0.233c0.767,0.238,1.525,0.539,2.324,0.672c41.183,6.823,50.691-24.886,50.691-24.886c-8.57,12.343-25.168,18.233-42.879,13.635c-0.787-0.207-1.562-0.431-2.333-0.674c-0.235-0.071-0.467-0.149-0.701-0.227c-0.548-0.177-1.092-0.365-1.631-0.562c-0.248-0.09-0.494-0.181-0.736-0.274c-0.592-0.228-1.176-0.462-1.756-0.708c-0.159-0.067-0.318-0.129-0.473-0.2c-0.727-0.316-1.443-0.65-2.148-0.999c-0.363-0.177-0.72-0.364-1.078-0.548c-0.207-0.107-0.415-0.215-0.622-0.32c-0.458-0.248-0.914-0.506-1.363-0.77c-0.106-0.06-0.218-0.12-0.326-0.185c-0.558-0.325-1.107-0.661-1.651-1.008c-0.168-0.105-0.33-0.222-0.498-0.332c-0.359-0.232-0.717-0.469-1.069-0.707c-0.759-0.524-1.498-1.072-2.226-1.628c-0.168-0.133-0.336-0.262-0.501-0.395c-7.752-6.12-13.898-14.486-16.819-23.971c-3.062-9.836-2.402-20.878,2.903-29.84"
  />
  <path fill="#0868AC" d="M72.657,8.847c-4.702,6.92-5.164,15.514-1.901,23.156c3.441,8.113,10.491,14.476,18.72,17.495c0.339,0.125,0.679,0.237,1.022,0.354c0.15,0.047,0.299,0.099,0.451,0.143c0.485,0.152,0.966,0.329,1.467,0.424c22.74,4.394,28.908-11.669,30.549-14.034c-5.402,7.779-14.482,9.646-25.623,6.942c-0.88-0.213-1.847-0.531-2.695-0.832c-1.088-0.388-2.16-0.83-3.201-1.329c-1.978-0.951-3.864-2.104-5.612-3.424c-9.969-7.565-16.162-21.994-9.657-33.745"
  />
</svg>
