<svg xmlns="http://www.w3.org/2000/svg" viewBox="0 0 128 82"><g fill="#73ba25"><path d="M109.434 13.29a4.61 4.61 0 00-3.329 1.226c-.898.84-1.433 1.972-1.468 3.203-.086 2.539 1.922 4.672 4.48 4.765a4.676 4.676 0 003.336-1.234 4.532 4.532 0 001.465-3.2c.09-2.538-1.918-4.671-4.484-4.76zm.761 5.026c-1.14 0-2.062-.609-2.062-1.355 0-.758.922-1.363 2.062-1.363 1.137 0 2.063.605 2.063 1.363 0 .746-.926 1.355-2.063 1.355zm10.825 5.485c.035-.028.113-.094.101-.156-.258-1.594-2.652-9.317-4.469-11.176-.5-.504-.898-1.004-1.707-1.473-6.562-3.785-22.132-6.07-22.86-6.176 0 0-.073-.015-.124.035-.04.04-.047.114-.047.114l-.07 3.547c-1.59-.528-13.149-4.223-23.98-4.594-9.192-.32-22.571-1.496-40.305 9.297l-.524.324c-8.344 5.148-14.101 11.504-17.113 18.883-.945 2.324-2.215 7.566-.957 12.496.543 2.156 1.555 4.324 2.918 6.262 3.078 4.379 8.25 7.289 13.816 7.777 7.86.695 13.809-2.797 15.926-9.34 1.453-4.516 0-11.14-5.578-14.52-4.54-2.753-9.418-2.128-12.25-.273-2.453 1.613-3.844 4.117-3.82 6.867.054 4.88 4.3 7.473 7.355 7.48.887 0 1.777-.152 2.781-.476.36-.105.696-.238 1.067-.469l.113-.066.074-.047-.023.016c.695-.473 1.113-1.235 1.113-2.055 0-.223-.031-.45-.098-.676a2.507 2.507 0 00-2.87-1.754l-.173.043-.234.07-.34.114c-.699.172-1.226.188-1.34.191-.359-.023-2.113-.543-2.113-2.449v-.027c0-.7.281-1.192.438-1.457.546-.852 2.043-1.684 4.066-1.508 2.652.227 4.566 1.574 5.836 4.117 1.176 2.363.867 5.27-.793 7.399-1.652 2.109-4.59 3.007-8.496 2.59-3.942-.43-7.274-2.676-9.137-6.172-1.828-3.414-1.926-7.465-.258-10.579 3.989-7.453 11.52-7.375 15.653-6.667 6.113 1.046 13.066 6.632 15.535 13.078.398 1.027.601 1.843.777 2.586l.266 1.113 6.906 3.34c.148.07.2.097.258.05.074-.05.031-.195.031-.195-.043-.152-.144-.293-.3-2.207-.133-1.7-.4-6.348 1.964-8.652.918-.899 2.317-1.703 3.422-1.961 4.523-1.094 9.832-.34 14.852 5.414 2.597 2.969 3.863 4.324 4.5 4.93 0 0 .144.136.222.199.082.066.137.125.262.191.207.117 8.629 3.953 8.629 3.953s.098.051.172-.039c.074-.09.004-.18.004-.18-.055-.062-5.336-6.82-4.399-12.386.742-4.434 4.305-4.031 9.235-3.48 1.609.187 3.441.394 5.336.437 5.296.031 11-.938 14.515-2.457 2.274-.98 3.723-1.633 4.633-2.45.328-.269.496-.702.672-1.171l.125-.309c.148-.383.363-1.183.457-1.62.039-.192.086-.384-.078-.505-.145-.113-.485.086-.485.086-1.543.922-5.402 2.664-9.011 2.738-4.477.09-13.555-4.488-14.493-4.972-.632-1.485-1.257-2.969-1.898-4.45 6.492 4.239 11.879 6.579 16 6.938 4.59.406 8.168-2.074 9.719-3.105.203-.133.406-.282.594-.426zm-18.418-6.094a6.55 6.55 0 012.109-4.594c1.3-1.203 3-1.824 4.781-1.765 3.668.129 6.551 3.195 6.426 6.824a6.549 6.549 0 01-2.11 4.59 6.644 6.644 0 01-4.785 1.773c-3.664-.137-6.543-3.195-6.421-6.828zm0 0" fill-rule="evenodd"/><path d="M54.219 55.836c-2.926 0-4.535 2.45-4.535 4.144v2.172c0 2.496 2.054 4.04 3.964 4.04h6.7c.843 0 1.02.546 1.02 1.007v1.406c0 .149-.032 1.497-1.02 1.497H51.21c-.91 0-1.566.625-1.566 1.48v.387c0 .851.656 1.472 1.566 1.472h9.633c2.52 0 4.144-1.734 4.144-4.418v-2.347c0-2.524-1.832-3.653-3.648-3.653h-6.594c-.992 0-1.441-.734-1.441-1.257v-1.293c0-.817.55-1.29 1.511-1.29h7.297c.895 0 1.57-.636 1.57-1.476v-.387c0-.847-.687-1.484-1.601-1.484zm0 0M81.61 55.836c-.864 0-1.563.695-1.563 1.555v11.105c0 .89-.73 1.606-1.621 1.606h-5.09c-.89 0-1.621-.715-1.621-1.606V57.391c0-.86-.703-1.555-1.567-1.555h-.492a1.55 1.55 0 00-1.57 1.555v11.523c0 2.688 2.133 4.633 5.07 4.633h5.45c2.933 0 5.062-1.945 5.062-4.633V57.391c0-.868-.688-1.555-1.563-1.555zm0 0M91.36 55.836c-2.926 0-4.54 2.45-4.54 4.144v2.172c0 2.496 2.063 4.04 3.97 4.04h6.698c.844 0 1.024.546 1.024 1.007v1.406c0 .149-.032 1.497-1.024 1.497h-9.14c-.907 0-1.567.625-1.567 1.48v.387c0 .851.66 1.472 1.567 1.472h9.636c2.52 0 4.153-1.734 4.153-4.418v-2.347c0-2.524-1.84-3.653-3.657-3.653h-6.59c-.995 0-1.445-.734-1.445-1.257v-1.293c0-.817.551-1.29 1.512-1.29h7.3c.895 0 1.567-.636 1.567-1.476v-.387c0-.847-.683-1.484-1.601-1.484zm0 0M105.238 57.316V71.97c0 .84.64 1.472 1.492 1.472h11.79c.91 0 1.566-.62 1.566-1.472v-.387c0-.86-.656-1.484-1.566-1.484h-9.657V66.37h7.078c.903 0 1.563-.633 1.563-1.484V64.5c0-.855-.66-1.477-1.563-1.477h-7.078V59.18h9.168c.903 0 1.563-.617 1.563-1.477v-.387c0-.855-.66-1.484-1.563-1.484l-11.27.004c-.866 0-1.523.637-1.523 1.48zm0 0M6.531 62.809c-1.476 0-2.68 1.14-2.68 2.543v5.523a2.596 2.596 0 002.59 2.59h3.61a2.596 2.596 0 002.59-2.59v-5.523c0-1.403-1.204-2.543-2.68-2.543zm-.781 7.847v-5.043c0-.593.492-1.074 1.094-1.074h2.808c.59 0 1.09.492 1.09 1.074v5.043c0 .594-.488 1.078-1.09 1.078H6.82c-.601 0-1.07-.472-1.07-1.078zm0 0M20.816 62.746c-1.043 0-1.828.367-2.457.668-.382.184-.714.34-.972.34-.117 0-.219-.05-.27-.137l-.242-.457a.741.741 0 00-.598-.351h-.355c-.344 0-.617.304-.617.675v14.012c0 .442.351.785.793.785h.308a.788.788 0 00.797-.785v-4.648c0-.137.09-.285.184-.285.258 0 .59.148.972.32.63.289 1.414.64 2.457.64h.332c1.84 0 2.989-1.043 2.989-2.714V65.46c0-1.652-1.172-2.715-2.989-2.715zm-3.613 7.8v-4.823a1.18 1.18 0 011.2-1.188h2.636c.672 0 1.2.524 1.2 1.188v4.824c0 .656-.54 1.187-1.2 1.187h-2.637c-.66 0-1.199-.53-1.199-1.187zm0 0M26.797 65.348v5.484c0 1.422 1.164 2.629 2.539 2.629h3.723c.46 0 .796-.316.796-.746v-.242c0-.43-.335-.743-.796-.743H30c-.855 0-1.309-.414-1.309-1.207v-1.605h5.52c.887 0 1.41-.535 1.41-1.445v-2.125c0-1.403-1.2-2.543-2.672-2.543l-3.476.004c-1.477 0-2.676 1.136-2.676 2.539zm1.894.242c0-.59.473-1.055 1.07-1.055h2.9c.597 0 1.062.465 1.062 1.055v1.715H28.69V65.59zm0 0M43.293 62.746c-1.035 0-1.82.367-2.45.664-.394.184-.73.344-1.003.344-.121 0-.172-.016-.266-.176l-.215-.394c-.129-.25-.34-.375-.629-.375h-.304c-.371 0-.64.285-.64.675v9.192c0 .433.347.785.792.785h.309a.795.795 0 00.797-.785v-6.953c0-.653.539-1.188 1.195-1.188h2.637c.66 0 1.199.535 1.199 1.188v6.953c0 .433.347.785.793.785h.308a.793.793 0 00.797-.785v-7.219c0-1.648-1.168-2.71-2.988-2.71zm0 0M122.723 69.898c.804 0 1.445.649 1.445 1.457 0 .82-.64 1.461-1.45 1.461a1.45 1.45 0 01-1.456-1.46c0-.81.652-1.458 1.457-1.458zm-.004.227c-.649 0-1.176.55-1.176 1.23 0 .692.527 1.235 1.18 1.235.652.008 1.175-.543 1.175-1.23 0-.684-.523-1.235-1.175-1.235zm-.278 2.074h-.257v-1.62c.136-.02.265-.04.46-.04.25 0 .415.05.512.125.098.07.149.18.149.336 0 .21-.145.34-.32.395v.011c.144.028.242.156.277.395.039.254.074.347.101.402h-.273c-.04-.055-.078-.203-.11-.414-.039-.207-.144-.285-.355-.285h-.18v.695zm0-.898h.192c.215 0 .398-.074.398-.278 0-.14-.105-.285-.398-.285-.086 0-.145.008-.192.016zm0 0"/></g></svg>
