<?xml version="1.0" encoding="UTF-8" standalone="no"?>
<svg
   viewBox="0 0 128 128"
   version="1.1"
   id="svg1182"
   sodipodi:docname="opensuse-original.svg"
   inkscape:version="1.1.2 (b8e25be8, 2022-02-05)"
   xmlns:inkscape="http://www.inkscape.org/namespaces/inkscape"
   xmlns:sodipodi="http://sodipodi.sourceforge.net/DTD/sodipodi-0.dtd"
   xmlns="http://www.w3.org/2000/svg"
   xmlns:svg="http://www.w3.org/2000/svg">
  <defs
     id="defs1186" />
  <sodipodi:namedview
     id="namedview1184"
     pagecolor="#ffffff"
     bordercolor="#666666"
     borderopacity="1.0"
     inkscape:pageshadow="2"
     inkscape:pageopacity="0.0"
     inkscape:pagecheckerboard="0"
     showgrid="false"
     inkscape:zoom="6.8203125"
     inkscape:cx="64"
     inkscape:cy="65.75945"
     inkscape:window-width="1296"
     inkscape:window-height="1081"
     inkscape:window-x="0"
     inkscape:window-y="25"
     inkscape:window-maximized="0"
     inkscape:current-layer="svg1182" />
  <g
     fill="#73ba25"
     id="g1180"
     transform="translate(0,24.000045)">
    <path
       d="m 109.434,22.902 a 4.614,4.614 0 0 0 -3.329,1.23 4.53,4.53 0 0 0 -1.468,3.2 c -0.086,2.54 1.922,4.676 4.48,4.77 a 4.68,4.68 0 0 0 3.336,-1.239 4.532,4.532 0 0 0 1.465,-3.199 c 0.09,-2.539 -1.918,-4.672 -4.484,-4.762 z m 0.761,5.032 c -1.14,0 -2.062,-0.614 -2.062,-1.36 0,-0.758 0.922,-1.363 2.062,-1.363 1.137,0 2.063,0.605 2.063,1.363 0,0.746 -0.926,1.36 -2.063,1.36 z m 10.825,5.48 c 0.035,-0.023 0.113,-0.094 0.101,-0.156 -0.258,-1.594 -2.652,-9.317 -4.469,-11.172 -0.5,-0.508 -0.898,-1.004 -1.707,-1.477 -6.562,-3.785 -22.132,-6.07 -22.86,-6.172 0,0 -0.073,-0.015 -0.124,0.032 -0.04,0.039 -0.047,0.113 -0.047,0.113 l -0.07,3.55 c -1.59,-0.53 -13.149,-4.226 -23.98,-4.597 -9.192,-0.32 -22.571,-1.496 -40.305,9.297 l -0.524,0.324 C 18.691,28.31 12.934,34.66 9.922,42.043 c -0.945,2.32 -2.215,7.562 -0.957,12.492 0.543,2.156 1.555,4.324 2.918,6.262 3.078,4.383 8.25,7.289 13.816,7.781 7.86,0.695 13.809,-2.8 15.926,-9.344 1.453,-4.515 0,-11.14 -5.578,-14.52 -4.54,-2.75 -9.418,-2.124 -12.25,-0.273 -2.453,1.614 -3.844,4.118 -3.82,6.871 0.054,4.88 4.3,7.473 7.355,7.481 0.887,0 1.777,-0.152 2.781,-0.477 0.36,-0.109 0.696,-0.242 1.067,-0.468 l 0.113,-0.067 0.074,-0.05 -0.023,0.015 a 2.482,2.482 0 0 0 1.113,-2.05 c 0,-0.223 -0.031,-0.45 -0.098,-0.68 -0.359,-1.235 -1.593,-1.98 -2.87,-1.75 l -0.173,0.039 -0.234,0.07 -0.34,0.117 c -0.699,0.168 -1.226,0.184 -1.34,0.188 -0.359,-0.024 -2.113,-0.543 -2.113,-2.45 v -0.023 c 0,-0.703 0.281,-1.191 0.438,-1.46 0.546,-0.849 2.043,-1.68 4.066,-1.509 2.652,0.227 4.566,1.575 5.836,4.117 1.176,2.364 0.867,5.27 -0.793,7.399 -1.652,2.11 -4.59,3.008 -8.496,2.59 -3.942,-0.43 -7.274,-2.676 -9.137,-6.168 -1.828,-3.418 -1.926,-7.469 -0.258,-10.578 3.989,-7.457 11.52,-7.38 15.653,-6.672 6.113,1.05 13.066,6.633 15.535,13.078 0.398,1.027 0.601,1.844 0.777,2.59 l 0.266,1.113 6.906,3.336 c 0.148,0.074 0.2,0.098 0.258,0.055 0.074,-0.055 0.031,-0.2 0.031,-0.2 -0.043,-0.152 -0.144,-0.293 -0.3,-2.207 -0.133,-1.699 -0.4,-6.347 1.964,-8.648 0.918,-0.902 2.317,-1.707 3.422,-1.961 4.523,-1.098 9.832,-0.34 14.852,5.41 2.597,2.969 3.863,4.324 4.5,4.93 0,0 0.144,0.137 0.222,0.2 0.082,0.07 0.137,0.124 0.262,0.194 0.207,0.114 8.629,3.954 8.629,3.954 0,0 0.098,0.046 0.172,-0.043 0.074,-0.09 0.004,-0.18 0.004,-0.18 -0.055,-0.063 -5.336,-6.82 -4.399,-12.387 0.742,-4.43 4.305,-4.031 9.235,-3.48 1.609,0.187 3.441,0.394 5.336,0.437 5.296,0.035 11,-0.933 14.515,-2.457 2.274,-0.976 3.723,-1.629 4.633,-2.45 0.328,-0.265 0.496,-0.702 0.672,-1.17 l 0.125,-0.31 c 0.148,-0.378 0.363,-1.18 0.457,-1.62 0.039,-0.192 0.086,-0.383 -0.078,-0.505 -0.145,-0.113 -0.485,0.09 -0.485,0.09 -1.543,0.918 -5.402,2.66 -9.011,2.735 -4.477,0.09 -13.555,-4.489 -14.493,-4.973 -0.632,-1.484 -1.257,-2.969 -1.898,-4.445 6.492,4.234 11.879,6.574 16,6.937 4.59,0.403 8.168,-2.074 9.719,-3.105 0.203,-0.137 0.406,-0.285 0.594,-0.43 z M 102.602,27.32 a 6.556,6.556 0 0 1 2.109,-4.593 6.7,6.7 0 0 1 4.781,-1.766 c 3.668,0.129 6.551,3.195 6.426,6.824 a 6.549,6.549 0 0 1 -2.11,4.59 6.644,6.644 0 0 1 -4.785,1.773 c -3.664,-0.132 -6.543,-3.195 -6.421,-6.828 z m 0,0"
       fill-rule="evenodd"
       id="path1176" />
    <path
       d="m 92.496,57.863 c 0.805,0 1.445,0.645 1.445,1.453 0,0.82 -0.64,1.461 -1.449,1.461 a 1.45,1.45 0 0 1 -1.457,-1.46 c 0,-0.81 0.653,-1.454 1.457,-1.454 z m -0.004,0.227 c -0.648,0 -1.176,0.547 -1.176,1.226 0,0.692 0.528,1.235 1.18,1.235 0.652,0.008 1.176,-0.543 1.176,-1.227 0,-0.687 -0.524,-1.234 -1.176,-1.234 z m -0.277,2.074 h -0.262 v -1.621 c 0.14,-0.02 0.27,-0.04 0.465,-0.04 0.25,0 0.41,0.052 0.508,0.122 0.101,0.07 0.152,0.18 0.152,0.336 0,0.21 -0.144,0.344 -0.32,0.394 v 0.012 c 0.144,0.028 0.242,0.156 0.273,0.395 0.043,0.254 0.078,0.351 0.106,0.402 h -0.274 c -0.039,-0.05 -0.078,-0.2 -0.11,-0.414 -0.042,-0.207 -0.144,-0.285 -0.355,-0.285 h -0.183 z m 0,-0.898 h 0.191 c 0.215,0 0.399,-0.078 0.399,-0.278 0,-0.144 -0.106,-0.285 -0.399,-0.285 -0.086,0 -0.144,0.004 -0.191,0.012 z m 0,0"
       id="path1178" />
  </g>
</svg>
