<svg viewBox="0 0 128 128" fill="none" xmlns="http://www.w3.org/2000/svg">
<path fill="#000" d="M21.5893 60.0747L21.8514 60.1052L22.1074 60.1539L22.3451 60.2088L22.5707 60.2819L22.7901 60.3673L22.9851 60.4648L23.1741 60.5745L23.3448 60.7025L23.5093 60.8366L23.6556 60.9829L23.7897 61.1474L23.9116 61.3181L24.0213 61.5071L24.1189 61.7082L24.1981 61.9215L24.2712 62.1471L24.3261 62.3848L24.3749 62.6347L24.4053 62.9029L24.4236 63.1772L24.4297 63.4636V63.6038L24.4236 63.6648L24.3992 63.7867L24.3749 63.8964L24.3566 63.9452L24.3139 64.0366L24.2895 64.0732L24.259 64.1097L24.2347 64.1463L24.1981 64.1768L24.1676 64.2073L24.131 64.2255L24.0945 64.2499L24.0518 64.2682L24.003 64.2804L23.9604 64.2926L23.8629 64.3048H18.4381V64.2621H18.4259V65.3836L18.432 65.5299L18.4503 65.6762L18.4686 65.8164L18.5051 65.9505L18.5478 66.0724L18.6027 66.1943L18.6636 66.2979L18.7368 66.4076L18.816 66.4991L18.9074 66.5966L19.011 66.6758L19.1208 66.7551L19.2427 66.8221L19.3707 66.8892L19.5109 66.944L19.6571 66.9989L19.8217 67.0354L19.9863 67.0781L20.1691 67.1086L20.3581 67.1269L20.5531 67.1452L20.7604 67.1573L20.9798 67.1634H21.059L21.1383 67.1573H21.2175L21.2907 67.1513H21.3699L21.5162 67.1391L21.6564 67.1269L21.7234 67.1208L21.7905 67.1086L21.9185 67.0903L21.9794 67.0842L22.0404 67.072L22.2171 67.0354L22.272 67.0172L22.3269 67.005L22.3756 66.9867L22.4305 66.9684L22.4792 66.9501L22.5097 66.944L22.6011 66.9074L22.6377 66.8892L22.6743 66.877L22.7474 66.8404L22.8754 66.7733L22.9242 66.749L22.9669 66.7185L23.0705 66.6636L23.1192 66.6332L23.1741 66.6027L23.229 66.5661L23.3448 66.4869L23.4057 66.4503L23.4667 66.4076L23.5337 66.365L23.6069 66.2918L23.6861 66.2309L23.7227 66.2004L23.7531 66.176L23.7897 66.1516L23.8202 66.1212L23.875 66.0785L23.936 66.0419L23.9604 66.0236L23.9848 66.0114L24.0091 65.9932L24.0518 65.9749L24.0701 65.9688L24.0945 65.9627L24.1067 65.9566L24.1371 65.9505H24.192L24.253 65.9566L24.3444 65.9749L24.3688 65.9871L24.4114 66.0114L24.4358 66.0297L24.4907 66.0846L24.509 66.109L24.5333 66.1577L24.5394 66.1882L24.5516 66.2187L24.5577 66.2553L24.5699 66.3162V66.4381L24.5638 66.4808L24.5577 66.5173L24.5516 66.56L24.515 66.6819L24.4968 66.7185L24.4724 66.7612L24.4541 66.8038L24.4297 66.8465L24.3992 66.8892L24.3688 66.9257L24.3078 67.0111L24.2286 67.0903L24.1493 67.1756L24.0518 67.261L23.997 67.2975L23.9482 67.3463L23.8568 67.4073L23.7653 67.4743L23.5703 67.5962L23.4667 67.6511L23.357 67.7059L23.2472 67.7547L23.1314 67.7973L23.0156 67.8461L22.8876 67.8888L22.6316 67.9619L22.4975 67.9924L22.3573 68.0229L22.0709 68.0777L21.7661 68.1143L21.4491 68.1387L21.2846 68.1448L21.1139 68.1509H20.6507L20.3642 68.1326L20.0899 68.1082L19.8339 68.0655L19.584 68.0229L19.3524 67.968L19.133 67.901L18.9257 67.8217L18.7368 67.7303L18.5539 67.6328L18.3893 67.5231L18.2309 67.4012L18.0968 67.2732L17.9688 67.133L17.853 66.9806L17.7554 66.8221L17.6701 66.6453L17.5909 66.4686L17.5299 66.2735L17.4872 66.0663L17.4507 65.853L17.4324 65.6274L17.4263 65.3897V62.5189L17.4324 62.4335L17.4385 62.3604L17.4446 62.2812L17.469 62.1227L17.4933 62.0434L17.5116 61.9703L17.5604 61.824L17.6213 61.6777L17.6945 61.5375L17.731 61.4705L17.7737 61.3973L17.8225 61.3364L17.8712 61.2693L17.92 61.2084L17.9749 61.1413L18.0907 61.0194L18.2309 60.8793L18.4137 60.733L18.5051 60.6659L18.6088 60.5989L18.7124 60.5379L18.816 60.4831L18.9257 60.4282L19.1573 60.3307L19.2792 60.288L19.5352 60.2149L19.6693 60.1844L19.8095 60.1539L19.9436 60.1295L20.0899 60.1113L20.2362 60.0869L20.3825 60.0747L20.5349 60.0625L20.8518 60.0503H21.0164L21.3029 60.0564L21.5893 60.0747V60.0747ZM20.3459 61.0499L20.096 61.0926L19.8583 61.1535L19.6267 61.2328L19.4011 61.3242L19.1878 61.4339L18.9928 61.5863L18.8282 61.7448L18.688 61.9154L18.5722 62.0983L18.493 62.2873L18.4442 62.4823L18.4259 62.6956V63.2808H23.4179L23.363 62.6834L23.2107 62.1775L22.9486 61.757L22.5829 61.4339L22.1196 61.2023L21.5406 61.0621L20.864 61.0194L20.6019 61.0255L20.3459 61.0499V61.0499ZM65.347 60.0747L65.6091 60.1052L65.8651 60.1539L66.1029 60.2088L66.3284 60.2819L66.5417 60.3673L66.7429 60.4648L66.9318 60.5745L67.1086 60.7025L67.2671 60.8366L67.4133 60.9829L67.5474 61.1474L67.6754 61.3181L67.779 61.5071L67.8766 61.7082L67.9619 61.9215L68.029 62.1471L68.0899 62.3848L68.1326 62.6347L68.1631 62.9029L68.1813 63.1772L68.1874 63.4636V63.5368L68.1813 63.6038L68.1691 63.7257L68.157 63.7867L68.1448 63.8415L68.1265 63.8964L68.1143 63.9452L68.096 63.9878L68.0716 64.0366L68.0472 64.0732L67.9863 64.1463L67.9253 64.2073L67.8461 64.2499L67.7669 64.2804L67.7181 64.2926L67.6206 64.3048L62.1836 64.3109V65.3836L62.1897 65.5299L62.2019 65.6762L62.2263 65.8164L62.2629 65.9505L62.3055 66.0724L62.3543 66.1943L62.4213 66.2979L62.4884 66.4076L62.5737 66.4991L62.6651 66.5966L62.7688 66.6758L62.8785 66.7551L62.9943 66.8221L63.1284 66.8892L63.2686 66.944L63.4149 66.9989L63.5733 67.0354L63.744 67.0781L63.9269 67.1086L64.1158 67.1269L64.3109 67.1452L64.5181 67.1573L64.7375 67.1634H64.8168L64.896 67.1573H64.9752L65.1276 67.1513L65.2739 67.1391L65.408 67.1269L65.4811 67.1208L65.5482 67.1086L65.7371 67.0842L65.8591 67.0598L65.9749 67.0354L66.0297 67.0172L66.0846 67.005L66.1394 66.9867L66.1882 66.9684L66.2674 66.944L66.2918 66.9318L66.3284 66.9196L66.3589 66.9074L66.3954 66.8892L66.4259 66.877L66.4686 66.8587L66.5905 66.7977L66.6758 66.749L66.7246 66.7185L66.7733 66.6941L66.8221 66.6636L66.9318 66.6027L67.0415 66.5295L67.1634 66.4503L67.2244 66.4076L67.2914 66.365L67.328 66.3284L67.3707 66.2918L67.4011 66.2613L67.4438 66.2309L67.4743 66.2004L67.5109 66.176L67.5779 66.1212L67.6084 66.1029L67.6389 66.0785L67.6632 66.0602L67.6937 66.0419L67.7181 66.0236L67.7425 66.0114L67.7669 65.9932L67.8095 65.9749L67.8827 65.9505H67.9802L68.0168 65.9566L68.0716 65.9688L68.1021 65.9749L68.1752 66.0114L68.2484 66.0846L68.2667 66.109L68.2911 66.1577L68.2971 66.1882L68.3093 66.2187L68.3215 66.2857L68.3276 66.3162V66.4381L68.3215 66.4808L68.3154 66.5173L68.3093 66.56L68.285 66.6453L68.2728 66.6819L68.2545 66.7185L68.2301 66.7612L68.2118 66.8038L68.157 66.8892L68.1265 66.9257L68.096 66.9684L68.029 67.0537L67.901 67.1756L67.7608 67.2975L67.7059 67.3463L67.523 67.4743L67.4316 67.5353L67.328 67.5962L67.2244 67.6511L67.1147 67.7059L67.005 67.7547L66.8891 67.7973L66.7672 67.8461L66.6453 67.8888L66.3893 67.9619L66.2552 67.9924L66.1151 68.0229L65.9749 68.0473L65.8286 68.0777L65.5238 68.1143L65.2069 68.1387L64.8716 68.1509H64.4023L64.1219 68.1326L63.8476 68.1082L63.5855 68.0655L63.3478 68.0229L63.1101 67.968L62.8907 67.901L62.6895 67.8217L62.4884 67.7303L62.3116 67.6328L62.147 67.5231L61.9947 67.4012L61.8545 67.2732L61.7204 67.133L61.6107 66.9806L61.5071 66.8221L61.4217 66.6453L61.3486 66.4686L61.2876 66.2735L61.2389 66.0663L61.2084 65.853L61.184 65.6274L61.1779 65.3897V62.5981L61.184 62.5189V62.4335L61.1962 62.3604L61.2023 62.2812L61.2145 62.2019L61.245 62.0434L61.3181 61.824L61.379 61.6777L61.4461 61.5375L61.4888 61.4705L61.5314 61.3973L61.5741 61.3364L61.629 61.2693L61.6777 61.2084L61.7326 61.1413L61.8484 61.0194L61.9093 60.9585L61.9947 60.8793L62.08 60.8061L62.1714 60.733L62.2629 60.6659L62.3665 60.5989L62.4701 60.5379L62.5737 60.4831L62.6895 60.4282L62.7992 60.3794L62.9151 60.3307L63.037 60.288L63.293 60.2149L63.5611 60.1539L63.7013 60.1295L63.8415 60.1113L63.9939 60.0869L64.1402 60.0747L64.2926 60.0625L64.6095 60.0503H64.7741L65.0667 60.0564L65.347 60.0747V60.0747ZM64.1036 61.0499L63.8537 61.0926L63.616 61.1535L63.3844 61.2328L63.1589 61.3242L62.9516 61.4339L62.7444 61.5863L62.5676 61.7448L62.4274 61.9154L62.3238 62.0983L62.2446 62.2873L62.2019 62.4823L62.1836 62.6956V63.2808H67.1756L67.1208 62.6834L66.9684 62.1775L66.7063 61.757L66.3406 61.4339L65.8773 61.2023L65.2983 61.0621L64.6217 61.0194L64.3596 61.0255L64.1036 61.0499V61.0499ZM124.081 56.7893C124.008 56.8625 123.934 56.9661 123.934 57.0636C123.934 57.2404 124.142 57.4842 124.526 57.8743C126.129 59.4164 126.933 61.2998 126.927 63.5733C126.921 66.0907 126.074 68.1143 124.428 69.6747C124.081 69.9855 123.941 70.2293 123.941 70.4366C123.941 70.5402 124.014 70.6438 124.081 70.7474C124.148 70.8206 124.288 70.8876 124.392 70.8876C124.77 70.8876 125.306 70.4427 126.001 69.565C127.354 67.9071 127.963 66.0724 128 63.5794C128.03 61.0804 127.25 59.3859 125.714 57.6366C125.166 57.0088 124.702 56.6857 124.392 56.6857C124.288 56.6857 124.178 56.7223 124.081 56.7893V56.7893ZM76.0381 57.7585C76.733 58.2827 77.0926 59.0202 77.0926 59.9223C77.0926 60.3368 76.9158 60.544 76.5684 60.544C76.3307 60.544 76.1539 60.3368 76.0503 59.9223C75.9832 59.5749 75.8431 59.264 75.6724 58.9349C75.3554 58.3863 74.6911 58.1303 73.6488 58.1303C72.7406 58.1303 72.1128 58.3375 71.7349 58.7886C71.3874 59.2031 71.1802 59.837 71.1802 60.7756V64.4023C71.1802 65.3471 71.3874 66.0053 71.7714 66.4198C72.1859 66.8709 72.8198 67.1086 73.7219 67.1086C75.0811 67.1086 75.8796 66.6271 76.0503 65.6823C76.1234 65.3349 76.1539 65.1581 76.1539 65.1276C76.2271 64.9204 76.3672 64.8168 76.5684 64.8168C76.9158 64.8168 77.0926 65.024 77.0926 65.4385C77.0926 66.3162 76.7451 66.9745 76.0076 67.4987C75.4164 67.8766 74.6789 68.0838 73.7097 68.0838C72.5882 68.0838 71.7227 67.84 71.0888 67.3219C70.3817 66.8343 70.0343 66.0053 70.0343 64.9204V60.5562C70.0343 58.2583 71.2229 57.1368 73.661 57.1368C74.6423 57.1368 75.4042 57.344 76.0381 57.7585V57.7585ZM8.66133 60.6903C8.66133 60.349 8.86857 60.2088 9.28305 60.2088H11.3067C11.6541 60.2088 11.8248 60.5196 11.8248 61.0865C12.4465 60.4282 13.117 60.032 13.8118 60.032C14.397 60.032 14.8602 60.2088 15.171 60.5562C15.5185 60.9036 15.6587 61.3973 15.6587 61.952C15.6587 62.336 15.4819 62.5433 15.171 62.5433C14.9638 62.5433 14.8236 62.4031 14.7566 62.1593C14.6164 61.6716 14.5493 61.4339 14.5128 61.3973C14.3787 61.1596 14.0983 61.0194 13.7509 61.0194C13.373 61.0194 12.989 61.1596 12.6659 61.4339C12.4587 61.5741 12.1783 61.885 11.8248 62.3421V67.0172H13.7021C14.1166 67.0172 14.3299 67.1939 14.3299 67.5048C14.3299 67.8522 14.1166 68.029 13.7021 68.029H9.23429C8.81981 68.029 8.61257 67.8522 8.61257 67.5413C8.61257 67.1939 8.81981 67.0537 9.23429 67.0537H10.7703V67.0111H10.7825V61.1779H9.28305C8.86857 61.1779 8.66133 61.0073 8.66133 60.6903V60.6903ZM58.9288 56.7101L58.9653 56.7223L59.0019 56.7406L59.0324 56.7589L59.069 56.7833L59.1482 56.8625L59.1665 56.8991L59.1909 56.9356L59.2091 56.9783L59.2213 57.021L59.2457 57.1185L59.2701 57.2282L59.2762 57.3501V67.7242L59.2701 67.7669V67.8095L59.2457 67.8888L59.2396 67.9193L59.2213 67.9558L59.2091 67.9863L59.1726 68.0412L59.1299 68.0899L59.0994 68.1082L59.075 68.1265L59.0446 68.1448L58.9836 68.1692L58.947 68.1813L58.8739 68.1935L58.8312 68.1996H58.7642L58.685 68.1874L58.6606 68.1813L58.6362 68.1692L58.6118 68.1631L58.5935 68.1509L58.5752 68.1448L58.557 68.1265L58.5387 68.1143L58.5021 68.0838L58.4899 68.0655L58.4472 67.9924L58.4411 67.968L58.429 67.9375L58.4229 67.9132L58.4107 67.8827V67.7547L58.4046 67.7303V67.7059L58.3985 67.6815V67.6328L58.3924 67.6023V67.5474L58.3863 67.4926V67.456L58.3802 67.4316V67.328L58.3741 67.2914V67.2122L58.2949 67.2671L58.2156 67.3158L58.1364 67.3707L57.9901 67.456L57.923 67.5048L57.8499 67.5474L57.7219 67.6206L57.661 67.6572L57.6061 67.6937L57.5451 67.7242L57.3928 67.8095L57.3074 67.8583L57.2221 67.8949L57.149 67.9253L57.1185 67.9375L57.0636 67.9619L57.0088 67.9802L56.9539 67.9924L56.8381 68.029L56.5943 68.0777L56.4663 68.096L56.3322 68.1143L56.2651 68.1265L56.125 68.1387H56.0518L55.9787 68.1448H55.9116L55.8385 68.1509H55.5581L55.4301 68.1448L55.3082 68.1387L55.1863 68.1265L55.0705 68.1204L54.9486 68.1021L54.8389 68.0899L54.6133 68.0473L54.4061 67.9985L54.2964 67.968L54.1013 67.9071L53.9063 67.8339L53.8149 67.7913L53.7234 67.7547L53.4674 67.6084L53.3882 67.5596L53.3029 67.4987L53.1322 67.3646L53.0591 67.2975L52.9859 67.2183L52.9189 67.1452L52.8518 67.0659L52.7909 66.9806L52.736 66.8953L52.6324 66.7185L52.5897 66.6271L52.547 66.5295L52.5105 66.432L52.48 66.3345L52.4495 66.2248L52.4251 66.1151L52.4069 66.0114L52.3947 65.8956L52.3764 65.7798L52.3703 65.664V62.4884L52.3764 62.3726L52.3947 62.2629L52.4069 62.1532L52.4251 62.0434L52.4739 61.8362L52.5044 61.7387L52.541 61.6412L52.5775 61.5497L52.6263 61.4583L52.669 61.3669L52.7787 61.1962L52.9006 61.0377L52.9615 60.9646L53.1078 60.8183L53.2663 60.6842L53.3516 60.6233L53.5893 60.477L53.6808 60.4343L53.8514 60.349L54.0404 60.2758L54.1318 60.2453L54.333 60.1844L54.5341 60.1356L54.973 60.0625L55.1985 60.0442L55.4301 60.032H55.7044L55.8568 60.0442H56.0091L56.0823 60.0564L56.1554 60.0625L56.2895 60.0747L56.4236 60.0991L56.4907 60.1052L56.6187 60.1295L56.6796 60.1417L56.7345 60.1539L56.9051 60.2027L56.96 60.221L57.0149 60.2453L57.0636 60.2636L57.1185 60.2819L57.1672 60.3063L57.2221 60.3246L57.277 60.349L57.3379 60.3794L57.4415 60.4343L57.6183 60.5318L57.6731 60.5623L57.8499 60.6781L57.9718 60.7634L58.0267 60.8061L58.2705 61.0012V57.4111L58.2766 57.3501V57.2282L58.301 57.1185L58.3071 57.0697L58.3253 57.021L58.3375 56.9783L58.3558 56.9356L58.3741 56.8991L58.3985 56.8625L58.4229 56.8381L58.4472 56.8076L58.4716 56.7833L58.5021 56.7589L58.5631 56.7223L58.5996 56.7101L58.6789 56.6918L58.7154 56.6857H58.8008L58.8434 56.6918L58.9288 56.7101V56.7101ZM55.4545 61.0926L55.296 61.1109L55.1375 61.1231L54.9851 61.1535L54.8389 61.184L54.6987 61.2145L54.4427 61.312L54.3269 61.3669L54.2171 61.4278L54.0952 61.5193L53.9733 61.6168L53.8697 61.7204L53.7783 61.824L53.693 61.9398L53.6259 62.0617L53.565 62.1836L53.5162 62.3238L53.4857 62.464L53.4613 62.6042L53.4552 62.7627V65.5177L53.4613 65.6762L53.4796 65.8286L53.5101 65.9688L53.5528 66.109L53.6076 66.237L53.6808 66.3589L53.76 66.4747L53.8575 66.5783L53.9611 66.6758L54.0831 66.7612L54.2171 66.8465L54.333 66.9013L54.589 66.9989L54.723 67.0415L54.8571 67.0781L55.0034 67.1147L55.1558 67.1391L55.3143 67.1634L55.4789 67.1817L55.8202 67.1939L56.1067 67.1878L56.3749 67.1634L56.637 67.1269L56.765 67.1025L56.8869 67.0659L57.1185 66.9928L57.2221 66.9501L57.3074 66.8892L57.405 66.8221L57.4964 66.7551L57.5939 66.6819L57.6975 66.6088L57.795 66.5295L57.9048 66.4503L58.0084 66.3589L58.1181 66.2674L58.3375 66.0724V62.0556L58.2095 61.9581L58.0815 61.8728L57.9596 61.7874L57.8377 61.7082L57.7219 61.6351L57.6122 61.568L57.5086 61.501L57.4111 61.4461L57.2282 61.3608L57.149 61.3242L57.0331 61.2815L56.8015 61.2084L56.6796 61.1779L56.4358 61.1292L56.3078 61.1109L56.1798 61.0987L56.0518 61.0926L55.7897 61.0865H55.619L55.4545 61.0926ZM119.259 64.0244C118.656 63.872 121.125 60.9585 116.742 57.472C116.742 57.472 117.315 59.3006 114.42 63.3783C111.518 67.4499 115.706 69.8758 115.706 69.8758C115.706 69.8758 113.743 68.8274 116.029 65.0972C116.437 64.4206 116.974 63.8111 117.638 62.4274C117.638 62.4274 118.223 63.2625 117.918 65.0606C117.461 67.7852 119.912 67.005 119.948 67.0415C120.808 68.0473 119.241 69.821 119.144 69.8758C119.046 69.9307 123.618 67.133 120.369 62.9151C120.149 63.1345 119.863 64.1829 119.259 64.0244V64.0244ZM82.4442 59.9589L82.56 59.965L82.6697 59.9772L82.7794 59.9833L82.8891 59.9954L83.0964 60.0198L83.1939 60.032L83.2914 60.0564L83.3829 60.0686L83.4682 60.093L83.5596 60.1113L83.7303 60.16L83.8888 60.2088L84.1082 60.3002L84.1813 60.3368L84.2484 60.3673L84.3093 60.4038L84.3764 60.4404L84.4495 60.4892L84.5105 60.544L84.5775 60.5989L84.6994 60.7208L84.8091 60.8549L84.9067 61.0012L84.9493 61.0743L85.0347 61.2328L85.1078 61.4095L85.1383 61.4949L85.1627 61.5863L85.1931 61.6838L85.2175 61.7753L85.2358 61.8789L85.248 61.9764L85.2724 62.1958L85.2785 62.3055L85.2907 62.4153V66.2309L85.3029 66.4015L85.309 66.4442L85.3211 66.5173L85.3333 66.5539L85.3394 66.5905L85.3577 66.6575L85.3699 66.688L85.4065 66.7733L85.4248 66.7977L85.437 66.8221L85.4552 66.8465L85.4918 66.8892L85.5406 66.9379L85.5528 66.944V66.9501H85.5711L85.5771 66.9623L85.6076 66.9745L85.6198 66.9806L85.6503 66.9928L85.6686 67.005L85.693 67.0111L85.76 67.0354L85.8332 67.0659L85.8941 67.0903L85.9185 67.0964L85.949 67.1086L85.9794 67.1269L86.0343 67.1452L86.077 67.1634L86.0891 67.1756L86.1074 67.1878L86.1379 67.2122L86.1501 67.2244L86.1623 67.2427L86.1745 67.2549L86.1989 67.2914L86.2171 67.328L86.2232 67.3524L86.2293 67.3707L86.2415 67.4194V67.4438L86.2476 67.4682L86.2537 67.4987V67.5292L86.2598 67.5596V67.6876L86.2476 67.7181V67.7425L86.2415 67.773L86.2354 67.7973L86.2232 67.8217L86.2171 67.8461L86.205 67.8644L86.1867 67.8888L86.1562 67.9253L86.144 67.9436L86.1196 67.9558L86.0526 67.9924L86.0038 68.0168L85.9429 68.029L85.8819 68.0351H85.76L85.7417 68.029H85.7173L85.6564 68.0168L85.6381 68.0046H85.6198L85.5832 67.9924L85.5162 67.9741L85.443 67.9558L85.4126 67.9497L85.3882 67.9436L85.3577 67.9314L85.2297 67.8888L85.187 67.8766L85.1444 67.8583L84.9981 67.8095L84.9371 67.7852L84.9067 67.7791L84.8823 67.7669L84.8518 67.7608L84.8274 67.7547L84.8031 67.7425L84.7848 67.7364L84.7421 67.7242L84.6994 67.7059L84.6811 67.6998L84.675 67.6937L84.6629 67.6876H84.6202L84.6019 67.6754L84.5836 67.6693L84.5592 67.6633L84.5471 67.6511L84.5105 67.6267L84.4922 67.6084L84.48 67.5901L84.4617 67.5718L84.4495 67.5535L84.4373 67.5292L84.4191 67.5048L84.4069 67.4804L84.4008 67.456L84.3825 67.4316L84.3703 67.4012L84.352 67.3463L84.3154 67.2183L84.3032 67.1817L84.1631 67.2793L84.029 67.3707L83.968 67.4133L83.8461 67.4865L83.7852 67.5292L83.5779 67.6633L83.5291 67.6876L83.4865 67.7181L83.3585 67.7913L83.3219 67.8156L83.2244 67.8644L83.1939 67.8766L83.139 67.901L83.1147 67.9071L83.0781 67.9314L83.0354 67.9436L82.944 67.9741L82.7002 68.0351L82.6514 68.0412L82.5417 68.0594L82.4869 68.0655L82.432 68.0777L82.2613 68.096L82.1394 68.1082H82.0785L82.0114 68.1143H81.5543L81.4568 68.1082L81.2678 68.096L81.085 68.0777L80.9935 68.0655L80.9021 68.0473L80.7314 68.0168L80.5669 67.9802L80.4815 67.9558L80.4023 67.9314L80.3291 67.9071L80.2499 67.8766L80.1036 67.8217L80.0305 67.7852L79.9634 67.7547L79.8964 67.7181L79.8293 67.6754L79.7623 67.6389L79.7013 67.5962L79.5551 67.4987L79.421 67.3829L79.36 67.3219L79.3051 67.261L79.2442 67.2L79.0979 66.9989L79.0126 66.8526L78.976 66.7794L78.9394 66.7002L78.909 66.6271L78.8785 66.5478L78.8297 66.3833L78.7931 66.2126L78.7688 66.0297L78.7566 65.8469V65.6518L78.7627 65.5604L78.7688 65.4629L78.781 65.3775L78.8114 65.1947L78.8541 65.024L78.8846 64.9387L78.9516 64.7802L79.0248 64.6217L79.1162 64.4754L79.2137 64.3413L79.2686 64.2743L79.3295 64.2073L79.4514 64.0853L79.5185 64.0305L79.6587 63.9208L79.7379 63.872L79.939 63.7257L80.0853 63.6465L80.2438 63.5673L80.323 63.5368L80.4815 63.4697L80.5669 63.4393L80.8229 63.3661L80.9143 63.3478L80.9996 63.3234L81.091 63.3113L81.1825 63.293L81.28 63.2808L81.3714 63.2747L81.469 63.2625L81.7615 63.2442H81.9444L82.0236 63.2503H82.109L82.2857 63.2625L82.3711 63.2747L82.4625 63.2869L82.5478 63.2991L82.6453 63.3113L82.7307 63.3234L82.8221 63.3478L82.9196 63.36L83.0111 63.3783L83.2061 63.4271L83.5048 63.5002L83.6023 63.5307L83.9131 63.6221L84.1326 63.6953L84.2362 63.7318V62.4335L84.2301 62.3665L84.224 62.3055L84.2179 62.2324L84.2057 62.1775L84.1935 62.1105L84.1691 62.0495L84.1509 61.9886L84.1326 61.9337L84.1021 61.8789L84.0777 61.824L84.0107 61.7265L83.9741 61.6716L83.9375 61.629L83.8949 61.5802L83.8034 61.4949L83.7547 61.4522L83.645 61.3791L83.584 61.3425L83.4621 61.2815L83.3951 61.245L83.3524 61.2267L83.2549 61.1901L83.0476 61.1231L82.8891 61.0865L82.8282 61.0743L82.7733 61.0682L82.7124 61.056L82.6575 61.0499L82.4747 61.0316L82.4137 61.0194H82.3528L82.2857 61.0133L82.2248 61.0073H81.8103L81.6579 61.0133L81.5116 61.0194L81.3714 61.0316L81.1154 61.0682L80.9935 61.0865L80.8777 61.1109L80.7741 61.1413L80.6705 61.1779L80.573 61.2084L80.4815 61.2511L80.3962 61.2937L80.317 61.3364L80.2438 61.3913L80.1707 61.44L80.1097 61.501L80.0549 61.5619L80 61.629L79.9512 61.696L79.9147 61.7631L79.8781 61.8423L79.8476 61.9215L79.8232 62.0069L79.805 62.0922L79.7989 62.1349L79.7867 62.1714L79.7623 62.3055L79.7501 62.3604L79.744 62.3909L79.7379 62.4153L79.7318 62.4335V62.4579L79.7196 62.4945L79.7135 62.5311L79.7074 62.5554V62.5676L79.7013 62.5798V62.6103L79.6891 62.6286L79.6709 62.6713L79.6648 62.6834L79.6343 62.72L79.6282 62.7322L79.6099 62.7444L79.5794 62.7749L79.5672 62.781L79.5551 62.7932L79.5368 62.7993L79.5185 62.8114L79.4636 62.8297L79.4392 62.8358L79.4027 62.848H79.3539L79.3356 62.8541H79.2442L79.2076 62.848L79.1284 62.8358L79.0918 62.8297L79.0004 62.7932L78.9394 62.7566L78.9151 62.7322L78.8907 62.7139L78.8419 62.6652L78.8236 62.6347L78.7931 62.5798L78.7749 62.5433L78.7688 62.5067L78.7444 62.4335L78.7383 62.397V62.3543L78.7322 62.3055V62.2019L78.7383 62.141V62.08L78.7505 62.0191L78.7566 61.9581L78.781 61.8362L78.8114 61.7143L78.8297 61.6533L78.848 61.5985L78.8968 61.4766L78.9272 61.4156L78.9821 61.2998L79.0918 61.1292L79.1284 61.0743L79.1711 61.0194L79.3051 60.8549L79.3539 60.8L79.4149 60.733L79.549 60.6111L79.6221 60.5562L79.7806 60.4465L79.8659 60.3977L79.9573 60.349L80.0549 60.3002L80.1463 60.2636L80.2499 60.221L80.3596 60.1844L80.4693 60.1539L80.701 60.093L80.8229 60.0686L81.0789 60.0198L81.3471 59.9893L81.6274 59.965L81.7737 59.9589H81.9261L82.0785 59.9528H82.2004L82.3223 59.9589H82.4442V59.9589ZM80.9752 64.4145L80.5608 64.5608L80.2316 64.7741L80 65.0423L79.8598 65.3714L79.8171 65.7615L79.8293 65.9688L79.8659 66.1577L79.933 66.3406L80.0244 66.5052L80.1463 66.6575L80.2987 66.7794L80.4754 66.8831L80.6278 66.9623L80.7985 67.0354L80.9813 67.0903L81.1764 67.1391L81.3836 67.1695L81.6031 67.1878L81.8347 67.1939L82.0419 67.1878L82.237 67.1756L82.432 67.1513L82.621 67.1086L82.8038 67.0659L82.9867 66.9989L83.1634 66.9196L83.2853 66.8465L83.4194 66.7551L83.5718 66.6575L83.7303 66.5478L83.901 66.4198L84.0838 66.2857L84.2728 66.1455V64.6766L83.9436 64.5791L83.6206 64.4937L83.2975 64.4267L82.9806 64.3718L82.6697 64.3292L82.3711 64.3048L82.0785 64.2987L81.4811 64.3292L80.9752 64.4145V64.4145ZM0.591238 60.221H1.71276V59.2396C1.71276 57.533 2.59048 56.6857 4.29714 56.6857C4.992 56.6857 5.58933 56.8259 6.04038 57.0697C6.62552 57.4172 6.95467 57.984 6.95467 58.6423C6.95467 59.0873 6.7779 59.264 6.46705 59.264C6.25981 59.264 6.05257 59.1238 5.94286 58.88C5.80876 58.4351 5.66857 58.1913 5.60152 58.0754C5.39429 57.8316 4.97371 57.6914 4.37638 57.6914C3.328 57.6914 2.8099 58.2095 2.8099 59.264V60.2088H4.82743C5.27848 60.2088 5.48571 60.3855 5.48571 60.6903C5.48571 61.0377 5.27848 61.1779 4.82743 61.1779H2.8099V67.5657C2.8099 67.9436 2.63314 68.1509 2.32229 68.1509C1.97486 68.1509 1.83467 67.9436 1.83467 67.5657V61.1901H0.591238C0.207238 61.1901 0 61.0194 0 60.7086C0 60.3551 0.207238 60.221 0.591238 60.221ZM48.0305 60.0686L48.4023 60.1173L48.7436 60.1905L49.0606 60.2819L49.3531 60.3916L49.6152 60.5257L49.8469 60.6781L50.0541 60.8549L50.2309 61.0499L50.3832 61.2633L50.5112 61.501L50.6088 61.757L50.6758 62.0313L50.7185 62.3299L50.7307 62.6408V65.5116L50.7185 65.8286L50.6758 66.1212L50.6088 66.4015L50.5173 66.6575L50.3954 66.8892L50.2491 67.1025L50.0724 67.2975L49.8712 67.4743L49.6396 67.6267L49.3836 67.7608L49.0971 67.8766L48.7863 67.968L48.451 68.0351L48.0853 68.0899L47.6952 68.1204L47.2808 68.1326L46.8419 68.1265L46.4274 68.1021L46.0434 68.0533L45.6899 67.9863L45.3669 67.8949L45.0743 67.7852L44.8122 67.6511L44.5745 67.4987L44.3672 67.3219L44.1844 67.1269L44.032 66.9074L43.904 66.6758L43.8126 66.4137L43.7455 66.1333L43.7029 65.8347L43.6907 65.5116V62.6408L43.7029 62.3299L43.7455 62.0313L43.8126 61.757L43.9101 61.501L44.032 61.2633L44.1905 61.0499L44.3672 60.8549L44.5745 60.6781L44.8122 60.5257L45.0743 60.3916L45.3608 60.2819L45.6777 60.1905L46.019 60.1173L46.3909 60.0686L46.7871 60.032L47.2137 60.0259L47.6343 60.032L48.0305 60.0686V60.0686ZM46.403 61.0499L46.08 61.1109L45.7935 61.1901L45.5375 61.2937L45.312 61.4217L45.123 61.568L44.9707 61.7387L44.8488 61.9337L44.7634 62.1471L44.7086 62.3848L44.6964 62.6408V65.5116L44.7086 65.7676L44.7634 66.0053L44.8488 66.2248L44.9768 66.4137L45.1352 66.5844L45.3242 66.7307L45.5497 66.8526L45.8118 66.9562L46.1105 67.0293L46.4457 67.0842L46.8114 67.1086H47.6038L47.9634 67.0842L48.2926 67.0354L48.5851 66.9623L48.8411 66.8648L49.0667 66.7429L49.2556 66.6027L49.4141 66.432L49.536 66.237L49.6213 66.0175L49.6762 65.7737L49.6945 65.5116V62.6408L49.6762 62.3848L49.6213 62.1471L49.536 61.9337L49.4141 61.7387L49.2495 61.568L49.0606 61.4217L48.829 61.2937L48.5608 61.1901L48.2621 61.1109L47.9269 61.0499L47.549 61.0194L47.1406 61.0073L46.7566 61.0194L46.403 61.0499V61.0499ZM110.86 56.7954C110.933 56.8625 111 56.9661 111 57.0697C111 57.2465 110.793 57.4842 110.409 57.8743C108.812 59.4164 108.008 61.2998 108.014 63.5794C108.02 66.0907 108.867 68.1143 110.513 69.6808C110.854 69.9855 111 70.2293 111 70.4366C111 70.5402 110.927 70.6499 110.86 70.7474C110.793 70.8206 110.653 70.8937 110.549 70.8937C110.165 70.8937 109.635 70.4427 108.94 69.565C107.587 67.9071 106.978 66.0785 106.941 63.5794C106.91 61.0804 107.691 59.3859 109.227 57.6366C109.775 57.0149 110.238 56.6857 110.549 56.6857C110.653 56.6857 110.757 56.7223 110.86 56.7954V56.7954ZM91.1787 60.9158C91.453 60.5684 91.6968 60.3551 91.9406 60.2575C92.1783 60.1173 92.5257 60.0503 92.9158 60.0503C94.1105 60.0503 94.7322 60.6354 94.7322 61.7874V67.4499C94.7322 67.9314 94.5615 68.1448 94.2141 68.1448C93.8667 68.1448 93.7265 67.9314 93.7265 67.4499V62.1471C93.7265 61.4217 93.4156 61.0316 92.8183 61.0316C92.3672 61.0316 91.904 61.3059 91.5261 61.8362V67.4987C91.5261 67.9802 91.3493 68.1874 91.0385 68.1874C90.7276 68.1874 90.5509 67.9802 90.5509 67.4987V62.2629C90.5509 61.4522 90.2095 61.0743 89.5695 61.0743C89.155 61.0743 88.765 61.3547 88.3505 61.885V67.5048C88.3505 67.9924 88.1737 68.1996 87.8263 68.1996C87.4789 68.1996 87.3448 67.9924 87.3448 67.5048V60.5684C87.3448 60.221 87.4789 60.0808 87.7592 60.0808C87.8994 60.0808 88.0335 60.1844 88.1067 60.3916C88.1737 60.4831 88.2103 60.6598 88.2103 60.8671C88.5333 60.5196 88.7406 60.3124 88.832 60.2393C89.0392 60.1052 89.3196 60.032 89.7097 60.032C90.2644 60.032 90.7581 60.3124 91.1787 60.9158V60.9158ZM30.3482 60.0747L30.6164 60.1052L30.8663 60.1539L31.1101 60.2088L31.3356 60.2819L31.549 60.3673L31.7501 60.4648L31.939 60.5745L32.1097 60.7025L32.2743 60.8366L32.4206 60.9829L32.5547 61.1474L32.6766 61.3181L32.7863 61.5071L32.8838 61.7082L32.963 61.9215L33.0301 62.1471L33.091 62.3848L33.1337 62.6347L33.1703 62.9029L33.1886 63.1772L33.1947 63.4636V63.5368L33.1886 63.6038L33.1825 63.6648L33.1642 63.7867L33.152 63.8415L33.1337 63.8964L33.1215 63.9452L33.0728 64.0366L33.0545 64.0732L32.9935 64.1463L32.963 64.1768L32.9265 64.2073L32.896 64.2255L32.8533 64.2499L32.8107 64.2682L32.7253 64.2926L32.6766 64.2987L32.6217 64.3048H27.203V64.2621H27.1909V65.3836L27.197 65.5299L27.2091 65.6762L27.2335 65.8164L27.2701 65.9505L27.3067 66.0724L27.3615 66.1943L27.4225 66.2979L27.4956 66.4076L27.581 66.4991L27.6724 66.5966L27.7699 66.6758L27.8796 66.7551L28.0015 66.8221L28.1356 66.8892L28.2697 66.944L28.4221 66.9989L28.5806 67.0354L28.7512 67.0781L28.928 67.1086L29.117 67.1269L29.3181 67.1452L29.5253 67.1573L29.7448 67.1634H29.824L29.9032 67.1573H29.9764L30.0556 67.1513H30.1288L30.275 67.1391L30.4152 67.1269L30.4823 67.1208L30.5554 67.1086L30.7444 67.0842L30.8053 67.072L30.8602 67.0598L30.9211 67.0476L30.976 67.0354L31.037 67.0172L31.0918 67.005L31.1893 66.9684L31.2442 66.9501L31.2686 66.944L31.299 66.9318L31.3356 66.9196L31.3661 66.9074L31.3966 66.8892L31.4331 66.877L31.4697 66.8587L31.5124 66.8404L31.5977 66.7977L31.683 66.749L31.7318 66.7185L31.7806 66.6941L31.8293 66.6636L31.939 66.6027L31.9878 66.5661L32.1036 66.4869L32.1646 66.4503L32.2316 66.4076L32.2926 66.365L32.3718 66.2918L32.451 66.2309L32.4815 66.2004L32.5181 66.176L32.5486 66.1516L32.5851 66.1212L32.64 66.0785L32.6949 66.0419L32.7253 66.0236L32.7497 66.0114L32.7741 65.9932L32.8168 65.9749L32.8716 65.9566L32.9021 65.9505H32.957L33.0179 65.9566L33.1093 65.9749L33.1337 65.9871L33.1764 66.0114L33.2008 66.0297L33.2556 66.0846L33.2739 66.109L33.2983 66.1577L33.3105 66.2187L33.3227 66.2553V66.2857L33.3288 66.3162V66.3589L33.3349 66.4015L33.3288 66.4381V66.4808L33.3227 66.5173L33.3166 66.56L33.2739 66.6819L33.2556 66.7185L33.219 66.8038L33.1642 66.8892L33.1337 66.9257L33.0667 67.0111L32.9935 67.0903L32.9082 67.1756L32.8107 67.261L32.7619 67.2975L32.7131 67.3463L32.6217 67.4073L32.5303 67.4743L32.3352 67.5962L32.2316 67.6511L32.1219 67.7059L32.0122 67.7547L31.8964 67.7973L31.7745 67.8461L31.6526 67.8888L31.5246 67.9253L31.3905 67.9619L31.1223 68.0229L30.8358 68.0777L30.531 68.1143L30.2141 68.1387L29.8789 68.1509H29.4095L29.123 68.1326L28.8549 68.1082L28.5928 68.0655L28.349 68.0229L28.1173 67.968L27.8979 67.901L27.6907 67.8217L27.4956 67.7303L27.3189 67.6328L27.1543 67.5231L26.9958 67.4012L26.8556 67.2732L26.7276 67.133L26.6118 66.9806L26.5143 66.8221L26.429 66.6453L26.3558 66.4686L26.2949 66.2735L26.2461 66.0663L26.2095 65.853L26.1912 65.6274L26.1851 65.3897V62.5189L26.1912 62.4335L26.1973 62.3604L26.2339 62.1227L26.2522 62.0434L26.2705 61.9703L26.301 61.8972L26.3497 61.7509L26.3863 61.6777L26.4533 61.5375L26.496 61.4705L26.5387 61.3973L26.5813 61.3364L26.6301 61.2693L26.685 61.2084L26.7398 61.1413L26.8495 61.0194L26.9105 60.9585L26.9958 60.8793L27.1726 60.733L27.3676 60.5989L27.4712 60.5379L27.6907 60.4282L27.9223 60.3307L28.0442 60.288L28.3002 60.2149L28.5684 60.1539L28.7086 60.1295L28.8488 60.1113L28.995 60.0869L29.1413 60.0747L29.2998 60.0625L29.6168 60.0503H29.7752L30.0678 60.0564L30.3482 60.0747V60.0747ZM29.1048 61.0499L28.861 61.0926L28.6171 61.1535L28.3855 61.2328L28.1661 61.3242L27.9528 61.4339L27.7455 61.5863L27.5749 61.7448L27.4347 61.9154L27.331 62.0983L27.2518 62.2873L27.203 62.4823L27.1909 62.6956V63.2808H32.1768L32.128 62.6834L31.9695 62.1775L31.7135 61.757L31.3478 61.4339L30.8785 61.2023L30.3055 61.0621L29.629 61.0194L29.3608 61.0255L29.1048 61.0499V61.0499ZM41.0453 57.7585C41.7402 58.2827 42.0998 59.0202 42.0998 59.9223C42.0998 60.3368 41.923 60.544 41.5756 60.544C41.3318 60.544 41.1611 60.3368 41.0575 59.9223C40.9844 59.5749 40.8503 59.264 40.6796 58.9349C40.3627 58.3863 39.6983 58.1303 38.656 58.1303C37.7417 58.1303 37.12 58.3375 36.7421 58.7886C36.3947 59.2031 36.1813 59.837 36.1813 60.7756V64.4023C36.1813 65.3471 36.3947 66.0053 36.7726 66.4198C37.1871 66.8709 37.827 67.1086 38.7291 67.1086C40.0884 67.1086 40.8869 66.6271 41.0575 65.6823C41.1246 65.3349 41.1611 65.1581 41.1611 65.1276C41.2282 64.9204 41.3684 64.8168 41.5756 64.8168C41.923 64.8168 42.0998 65.024 42.0998 65.4385C42.0998 66.3162 41.7463 66.9745 41.0088 67.4987C40.4236 67.8766 39.68 68.0838 38.7109 68.0838C37.5954 68.0838 36.7299 67.84 36.0899 67.3219C35.3524 66.8343 35.0415 66.0053 35.0415 64.9204V60.5562C35.0415 58.2583 36.2179 57.1368 38.6682 57.1368C39.6495 57.1368 40.4114 57.344 41.0453 57.7585V57.7585ZM96.7863 59.9954L96.8594 60.0198L96.8777 60.032L96.896 60.0381L96.9143 60.0564L96.9509 60.0808L96.9691 60.0991L96.9874 60.1113L97.0484 60.1966L97.085 60.2453L97.0971 60.2758L97.1093 60.3002L97.1154 60.3246L97.1276 60.3794L97.1337 60.4038L97.1459 60.4282L97.152 60.4587L97.1581 60.4831L97.1703 60.5074L97.1764 60.5379L97.2069 60.6111L97.2191 60.6415L97.2373 60.6903L97.2434 60.7208L97.2617 60.7939L97.2739 60.8183L97.2861 60.8671L97.4385 60.7939L97.7372 60.6537L97.8834 60.5867L98.0236 60.5257L98.304 60.416L98.4381 60.3673L98.5661 60.3185L98.6941 60.2758L98.816 60.2393L98.9379 60.1966L99.0598 60.1661L99.2914 60.1113L99.4072 60.0869L99.6145 60.0503L99.7181 60.0381L99.9131 60.0259H100.011L100.291 60.032L100.559 60.0503L100.821 60.0747L101.059 60.1113L101.291 60.1661L101.51 60.2271L101.711 60.3002L101.9 60.3855L102.077 60.477L102.242 60.5806L102.394 60.7025L102.528 60.8244L102.656 60.9646L102.766 61.1109L102.863 61.2693L102.949 61.44L103.022 61.6229L103.077 61.8118L103.125 62.013L103.162 62.2263L103.18 62.4457L103.186 62.6773V65.5787L103.18 65.6945L103.174 65.8042L103.168 65.9078L103.15 66.0175L103.138 66.1212L103.089 66.3162L103.058 66.4137L103.028 66.5052L102.955 66.688L102.906 66.7733L102.863 66.8587L102.808 66.944L102.754 67.0233L102.699 67.0964L102.638 67.1756L102.571 67.2488L102.498 67.3219L102.43 67.3951L102.272 67.5292L102.126 67.6389L101.967 67.7364L101.882 67.7791L101.803 67.8217L101.711 67.8644L101.62 67.901L101.528 67.9314L101.333 67.9985L101.132 68.0473L101.029 68.0716L100.809 68.1082L100.59 68.1326L100.474 68.1448L100.352 68.1509H99.968L99.8217 68.1448L99.6754 68.1326L99.5352 68.1265L99.2549 68.0899L99.1208 68.0655L98.8526 68.0107L98.7246 67.9741L98.5966 67.9436L98.4686 67.901L98.3406 67.8522L98.0968 67.7547L97.9749 67.6937L97.8591 67.6328L97.7372 67.5718L97.6213 67.5048L97.5055 67.4316L97.2861 67.2732V70.6194L97.2739 70.7413L97.2678 70.7962L97.2556 70.8511L97.2191 70.9973L97.2008 71.04L97.1764 71.0827L97.1581 71.1132L97.1337 71.1497L97.085 71.2107L97.024 71.2594L96.9874 71.2716L96.957 71.2899L96.9204 71.3021L96.8838 71.3082L96.8411 71.3143H96.7192L96.6766 71.3021L96.6461 71.2899L96.6095 71.2777L96.5425 71.2412L96.5181 71.2168L96.4876 71.1924L96.4389 71.1314L96.4145 71.0949L96.3962 71.0583L96.384 71.0156L96.3657 70.9669L96.3413 70.8693L96.3291 70.8084L96.3231 70.7535L96.317 70.6865V60.6233L96.3231 60.5684L96.3291 60.5074L96.3352 60.4526L96.3413 60.4038L96.3535 60.3551L96.3718 60.3124L96.384 60.2636L96.4145 60.1905L96.4389 60.1539L96.4571 60.1234L96.4815 60.093L96.5059 60.0747L96.5364 60.0503L96.5608 60.032L96.5912 60.0137L96.6583 59.9954L96.6949 59.9893H96.7497L96.768 59.9954H96.7863V59.9954ZM99.5231 61.056L99.2427 61.0804L99.1086 61.0987L98.9806 61.117L98.8526 61.1474L98.621 61.2084L98.4015 61.2937L98.3101 61.3364L98.2126 61.3852L98.1211 61.4461L98.0175 61.5132L97.92 61.5863L97.8164 61.6716L97.7128 61.7631L97.6031 61.8606L97.4933 61.9703L97.3714 62.0861L97.2495 62.208V66.1943H97.2861V66.176L97.5726 66.3467L97.8469 66.4991L98.1211 66.6453L98.3771 66.7612L98.627 66.8709L98.8709 66.9562L99.1025 67.0293L99.3219 67.0842L99.5352 67.1269L99.7425 67.1513L99.9375 67.1634L100.108 67.1573L100.273 67.1513L100.431 67.133L100.578 67.1147L100.73 67.0903L100.87 67.0598L101.004 67.0233L101.132 66.9806L101.254 66.9318L101.37 66.877L101.474 66.816L101.602 66.7368L101.711 66.6453L101.815 66.5539L101.9 66.4564L101.973 66.3528L102.034 66.237L102.083 66.1212L102.12 65.9993L102.15 65.8652L102.162 65.7311L102.168 65.5909V62.6956L102.162 62.525L102.144 62.3665L102.114 62.2263L102.071 62.0861L102.016 61.9581L101.949 61.8362L101.864 61.7265L101.772 61.6229L101.662 61.5314L101.541 61.44L101.406 61.3669L101.297 61.312L101.181 61.2572L101.059 61.2206L100.931 61.1779L100.797 61.1474L100.651 61.117L100.504 61.0926L100.346 61.0743L100.181 61.0621L100.011 61.056L99.8339 61.0499L99.6815 61.056H99.5231V61.056Z"/>
</svg>
