<svg xmlns="http://www.w3.org/2000/svg" fill="none" viewBox="0 0 128 128">
  <defs/>
  <path fill="#000" d="M21.485 108.239c-2.22-.53-5.435-3.319-8.999-7.808C5.251 91.319 1.323 81.098.166 68.378c-.223-2.448-.22-8.642.004-10.91 1.057-10.686 4.797-19.89 11.66-28.694 2.1-2.696 5.583-6.228 7.251-7.354 2.36-1.595 3.846-1.723 5.271-.458.582.516.715.756.79 1.418.14 1.246-.499 2.22-3.468 5.287-4.15 4.286-6.064 6.672-8.185 10.2-4.815 8.013-6.876 16.44-6.58 26.911.157 5.58.754 9.691 2.07 14.265 1.186 4.12 2.609 7.44 4.74 11.063 2.14 3.636 3.938 5.937 7.534 9.64 3.154 3.248 3.938 4.376 3.938 5.669 0 1.287-.909 2.451-2.191 2.808-.708.196-.757.197-1.515.016zm83.271.049c-.672-.143-1.872-1.434-2.008-2.159-.218-1.169.477-2.209 3.718-5.566 1.594-1.651 3.556-3.822 4.36-4.824 5.878-7.33 9.144-15.486 10.016-25.013.268-2.936.13-10.503-.245-13.34-.785-5.944-2.233-10.806-4.741-15.92-2.4-4.891-4.884-8.361-9.078-12.683-2.816-2.902-3.646-3.962-3.929-5.016-.278-1.034-.078-1.801.697-2.681 1.063-1.208 2.277-1.316 4.177-.371 2.301 1.143 5.282 4.13 8.742 8.758 6.962 9.31 10.553 19.552 11.416 32.563.733 11.054-1.949 22.244-7.552 31.511-3.868 6.397-9.769 12.951-12.911 14.341-.821.364-1.999.54-2.662.4zm-69.493-6.741c-1.88-.57-2.97-2.45-2.517-4.34.28-1.17 1.454-2.372 2.596-2.66 1.15-.29 60.652-.29 61.802 0 1.177.297 2.333 1.503 2.59 2.702.338 1.572-.369 3.18-1.74 3.966l-.726.416-30.768.029c-16.922.016-30.979-.035-31.237-.113zm23.438-14.464c-5.714-2.078-10.468-6.129-12.902-10.992-1.353-2.703-2.138-5.978-2.137-8.913 0-3.968 1.552-7.75 6.28-15.302 3.52-5.627 4.12-6.652 5.155-8.812 1.378-2.876 1.832-4.584 1.861-6.996.028-2.306-.318-3.674-1.38-5.464-.754-1.27-2.45-3.182-3.138-3.538-1.123-.58-1.356-1.369-.558-1.891 1.26-.826 4.705-.302 7.87 1.197 3.58 1.696 6.22 4.132 7.938 7.326 1.325 2.462 1.859 4.349 2.757 9.74.997 5.983 1.986 7.881 3.984 7.651 1.059-.121 1.72-.523 2.166-1.317.71-1.264.406-2.994-1.031-5.857-1.174-2.339-1.101-3.045.276-2.681.713.188 3.027 2.078 4.629 3.78 4.008 4.26 6.003 8.13 6.963 13.508.503 2.82.545 7.497.089 9.942-.576 3.083-1.742 5.994-3.399 8.483-1.848 2.775-5.703 6.287-8.505 7.748-1.266.66-1.705.7-2.325.211-.772-.607-.609-1.029 1.097-2.84 2.563-2.723 3.871-4.658 4.63-6.849 1.171-3.38.588-8.093-1.373-11.097-.812-1.244-2.002-2.341-2.54-2.341-.294 0-.246.388.3 2.388.192.7.348 1.557.348 1.903 0 1.83-2.583 3.156-4.858 2.495-1.849-.538-2.664-2.215-2.419-4.977.076-.854.144-2.405.15-3.447.013-1.838-.005-1.931-.586-3.078-1.134-2.237-3.757-4.54-5.17-4.54-.608 0-.658.036-.658.484 0 .3.169.642.445.9 1.463 1.365 1.738 4.163.653 6.633-.671 1.527-1.428 2.392-4.011 4.585-3.4 2.885-4.495 4.26-5.174 6.49-.314 1.032-.347 1.452-.258 3.342.148 3.175.795 5.279 2.307 7.505 1.161 1.71 2.52 2.794 4.367 3.484.887.332.985.418.985.864 0 .518-.394.859-.974.843-.171-.005-1.006-.261-1.854-.57z"/>
</svg>
