<?xml version="1.0" encoding="UTF-8"?>
<svg width="128px" height="128px" viewBox="0 0 128 128" version="1.1" xmlns="http://www.w3.org/2000/svg" xmlns:xlink="http://www.w3.org/1999/xlink">
    <!-- Generator: Sketch 43.2 (39069) - http://www.bohemiancoding.com/sketch -->
    <title>handlebars-original-wordmark</title>
    <desc>Created with Sketch.</desc>
    <defs></defs>
    <g id="Page-1" stroke="none" stroke-width="1" fill="none" fill-rule="evenodd">
        <g id="handlebars-original-wordmark">
            <text id="handlebars" font-family="ArialRoundedMTBold, Arial Rounded MT Bold" font-size="22" font-weight="normal" fill="#FFFFFF">
                <tspan x="4.01025391" y="55">handlebars</tspan>
            </text>
            <g id="moustache" transform="translate(18.000000, 64.000000)">
                <g id="border" fill-opacity="0.879999995" fill="#FFFFFF">
                    <path d="M19.7600098,7.82788086 C19.7600098,7.82788086 27.935791,0.00244140625 34.6730957,0.00610351562 C41.4104004,0.009765625 46.4985352,4.37036133 46.4985352,4.37036133 L46.4985352,21.8468094 C46.4985352,21.8468094 42.9782715,21.5380859 36.8598633,24.3347168 C30.7414551,27.1313477 24.7392578,30.2912598 17.9516602,30.3210449 C11.1640625,30.3508301 0.773681641,28.7041016 0.512207031,16.2858887 C0.250732422,3.86767578 9.32714844,3.18383789 12.887207,3.18383789 C16.4472656,3.18383789 19.7600098,7.82788086 19.7600098,7.82788086 Z" id="Path-3"></path>
                    <path d="M65.7600098,7.82788086 C65.7600098,7.82788086 73.935791,0.00244140625 80.6730957,0.00610351562 C87.4104004,0.009765625 92.4985352,4.37036133 92.4985352,4.37036133 L92.4985352,21.8468094 C92.4985352,21.8468094 88.9782715,21.5380859 82.8598633,24.3347168 C76.7414551,27.1313477 70.7392578,30.2912598 63.9516602,30.3210449 C57.1640625,30.3508301 46.7736816,28.7041016 46.512207,16.2858887 C46.2507324,3.86767578 55.3271484,3.18383789 58.887207,3.18383789 C62.4472656,3.18383789 65.7600098,7.82788086 65.7600098,7.82788086 Z" id="Path-3-Copy" transform="translate(69.502605, 15.163769) scale(-1, 1) translate(-69.502605, -15.163769) "></path>
                </g>
                <path d="M14.0166016,14.6008301 C14.0166016,14.6008301 15.2336331,13.6402428 15.5360107,12.3115234 C15.8383884,10.9828041 15.7757293,9.71683989 14.0166016,8.82470703 C9.56604004,6.56762695 6.68896484,10.5812988 6.24230957,11.5289307 C5.7956543,12.4765625 5.09533691,13.9511719 5.55419922,17.3481445 C6.01306152,20.7451172 7.65234375,23.862793 12.7661133,25.065918 C17.8798828,26.269043 22.7993164,25.5224609 27.3041992,23.375 C31.809082,21.2275391 40.2714844,17.4559326 42.4049072,17.0719604 C44.5383301,16.6879883 43.9749756,16.6610107 46.6762695,16.5405884 C46.6762695,16.5405884 46.6762695,11.3691406 46.6762695,11.3691406 C46.6762695,11.3691406 43.3933105,4.71154785 35.2363281,5.34960938 C27.0793457,5.9876709 23.8369141,10.2056885 21.8520508,11.9864502 C19.8671875,13.7672119 16.1854248,18.0248413 13.7094727,17.2827148 C11.2335205,16.5405884 10.5423584,13.4892578 11.4182129,12.5483398 C12.2317479,11.6743708 12.9801064,11.7721901 13.5135498,12.5483398 C14.0469932,13.3244896 14.0166016,14.6008301 14.0166016,14.6008301 Z" id="Path-2" fill="#000000"></path>
                <path d="M55.0166016,14.6008301 C55.0166016,14.6008301 56.2336331,13.6402428 56.5360107,12.3115234 C56.8383884,10.9828041 56.7757293,9.71683989 55.0166016,8.82470703 C50.56604,6.56762695 47.6889648,10.5812988 47.2423096,11.5289307 C46.7956543,12.4765625 46.0953369,13.9511719 46.5541992,17.3481445 C47.0130615,20.7451172 48.6523437,23.862793 53.7661133,25.065918 C58.8798828,26.269043 63.7993164,25.5224609 68.3041992,23.375 C72.809082,21.2275391 81.2714844,17.4559326 83.4049072,17.0719604 C85.5383301,16.6879883 84.9749756,16.6610107 87.6762695,16.5405884 C87.6762695,16.5405884 87.6762695,11.3691406 87.6762695,11.3691406 C87.6762695,11.3691406 84.3933105,4.71154785 76.2363281,5.34960938 C68.0793457,5.9876709 64.8369141,10.2056885 62.8520508,11.9864502 C60.8671875,13.7672119 57.1854248,18.0248413 54.7094727,17.2827148 C52.2335205,16.5405884 51.5423584,13.4892578 52.4182129,12.5483398 C53.2317479,11.6743708 53.9801064,11.7721901 54.5135498,12.5483398 C55.0469932,13.3244896 55.0166016,14.6008301 55.0166016,14.6008301 Z" id="Path-2-Copy" fill="#000000" transform="translate(67.040313, 15.473259) scale(-1, 1) translate(-67.040313, -15.473259) "></path>
            </g>
        </g>
    </g>
</svg>