<svg id="Swift" xmlns="http://www.w3.org/2000/svg" viewBox="0 0 128 128"><defs><style>.cls-1{fill:#f05138;}.cls-2{fill:#fefefe;}</style></defs><title>Artboard 1</title><g id="orignal"><path class="cls-1" d="M126.33,34.06a39.32,39.32,0,0,0-.79-7.83,28.78,28.78,0,0,0-2.65-7.58,28.84,28.84,0,0,0-4.76-6.32,23.42,23.42,0,0,0-6.62-4.55,27.27,27.27,0,0,0-7.68-2.53c-2.65-.51-5.56-.51-8.21-.76H30.25A45.46,45.46,0,0,0,24.16,5a21.82,21.82,0,0,0-5.82,1.52c-.53.25-1.32.51-1.85.76a33.82,33.82,0,0,0-5,3.28c-.53.51-1.06.76-1.59,1.26a22.41,22.41,0,0,0-4.76,6.32,23.61,23.61,0,0,0-2.65,7.58,78.5,78.5,0,0,0-.79,7.83V93.94a39.32,39.32,0,0,0,.79,7.83,28.78,28.78,0,0,0,2.65,7.58,28.84,28.84,0,0,0,4.76,6.32,23.42,23.42,0,0,0,6.62,4.55,27.27,27.27,0,0,0,7.68,2.53c2.65.51,5.56.51,8.21.76H95.63a45.08,45.08,0,0,0,8.21-.76,27.27,27.27,0,0,0,7.68-2.53,30.13,30.13,0,0,0,6.62-4.55,22.41,22.41,0,0,0,4.76-6.32,23.61,23.61,0,0,0,2.65-7.58,78.49,78.49,0,0,0,.79-7.83V34.06Z"/><path class="cls-2" d="M85,96.5c-11.11,6.13-26.38,6.76-41.75.47A64.53,64.53,0,0,1,13.84,73a50,50,0,0,0,10.85,6.32c15.87,7.1,31.73,6.61,42.9,0l0,0C51.69,67.66,38.19,52.5,28.13,40.12a43.47,43.47,0,0,1-5.29-6.82C35,43.91,54.34,57.3,61.22,61.09a271.77,271.77,0,0,1-27-32.34A266.8,266.8,0,0,0,78.69,63.62c.71.38,1.26.7,1.7,1a32.7,32.7,0,0,0,1.21-3.51c3.71-12.89-.53-27.54-9.79-39.67C93.25,33.81,106,57.05,100.66,76.51c-.14.53-.29,1-.45,1.55l.19.22c10.59,12.63,7.68,26,6.35,23.5C101,91,90.37,94.33,85,96.5Z"/></g></svg>