<?xml version="1.0" encoding="UTF-8" standalone="no"?>
<svg
   width="128"
   height="128"
   version="1.1"
   id="svg14314"
   xmlns="http://www.w3.org/2000/svg"
   xmlns:svg="http://www.w3.org/2000/svg">
  <defs
     id="defs14318">
    <clipPath
       clipPathUnits="userSpaceOnUse"
       id="clipPath26817">
      <path
         d="m 82.686776,56.031634 -5.783571,18.119843 c 0,-1.387734 -3.988669,-31.442092 -3.988669,-31.442092 -9.173939,0 -14.040115,6.462877 -16.592863,13.322249 l -7.059945,18.159493 c 0,-1.308435 -0.997166,-18.000895 -0.997166,-18.000895 A 14.917623,14.828932 0 0 0 33.785692,42.749035 l 7.498697,45.517681 c 9.572807,0 14.758076,-6.462876 17.430484,-13.322248 l 5.983006,-15.463324 c 0,0.634394 3.988669,28.785572 3.988669,28.785572 A 18.427652,18.318092 0 0 0 86.236691,75.459913 L 99.798167,42.709385 c -9.572806,0 -14.59853,6.462877 -17.151278,13.322249 z"
         fill="#ffffff"
         id="path26819"
         style="display:none;stroke-width:3.9768" />
      <path
         id="lpe_path-effect26821"
         style="display:inline;stroke-width:3.9768"
         class="powerclip"
         d="M -5,-5 H 133.00002 V 133.00001 H -5 Z m 87.686776,61.031634 -5.783571,18.119843 c 0,-1.387734 -3.988669,-31.442092 -3.988669,-31.442092 -9.173939,0 -14.040115,6.462877 -16.592863,13.322249 l -7.059945,18.159493 c 0,-1.308435 -0.997166,-18.000895 -0.997166,-18.000895 A 14.917623,14.828932 0 0 0 33.785692,42.749035 l 7.498697,45.517681 c 9.572807,0 14.758076,-6.462876 17.430484,-13.322248 l 5.983006,-15.463324 c 0,0.634394 3.988669,28.785572 3.988669,28.785572 A 18.427652,18.318092 0 0 0 86.236691,75.459913 L 99.798167,42.709385 c -9.572806,0 -14.59853,6.462877 -17.151278,13.322249 z" />
    </clipPath>
  </defs>
  <g
     id="layer3"
     style="display:inline">
    <path
       style="fill:#4353ff;fill-opacity:1;stroke:#4353ff;stroke-width:1.98644;stroke-opacity:1"
       id="rect25140"
       width="126.01358"
       height="126.01357"
       x="0.99321997"
       y="0.99321997"
       ry="0"
       d="M 0.99321997,0.99321997 H 127.0068 V 127.00679 H 0.99321997 Z" />
    <path
       d="m 82.686776,56.031634 -5.783571,18.119843 c 0,-1.387734 -3.988669,-31.442092 -3.988669,-31.442092 -9.173939,0 -14.040115,6.462877 -16.592863,13.322249 l -7.059945,18.159493 c 0,-1.308435 -0.997166,-18.000895 -0.997166,-18.000895 A 14.917623,14.828932 0 0 0 33.785692,42.749035 l 7.498697,45.517681 c 9.572807,0 14.758076,-6.462876 17.430484,-13.322248 l 5.983006,-15.463324 c 0,0.634394 3.988669,28.785572 3.988669,28.785572 A 18.427652,18.318092 0 0 0 86.236691,75.459913 L 99.798167,42.709385 c -9.572806,0 -14.59853,6.462877 -17.151278,13.322249 z"
       fill="#ffffff"
       id="path14310-6"
       style="display:inline;stroke-width:3.9768" />
  </g>
  <g
     transform="matrix(2,0,0,2,0,-64)"
     id="g14312" />
</svg>
