<svg xmlns="http://www.w3.org/2000/svg" width="128" height="128" viewBox="0 0 128 128" xmlns:v="https://vecta.io/nano"><path d="M80.426 114.348v3.414h20.48v-3.414h-20.48m-3.414-6.828h-3.41v3.414h3.41v-3.414m3.414 6.828v-3.414h-3.414v3.414h3.414m-6.824-10.242h-3.414v3.414h3.414v-3.414m6.824-13.652v3.414h3.414v-3.414h-3.414m10.242 3.414v-3.414h-3.414v3.414H83.84v3.414h13.652v-3.414h-6.824m6.824-3.414v3.414h3.414v-3.414h-3.414m10.242 20.48h3.414v-3.414h-3.414v3.414m0 3.414v-3.414h-6.828v3.414h6.828m-40.961 0H53.121v3.414h23.891v-3.414H66.773m-20.48 3.414v-3.414H15.574v3.414h30.719m10.242-13.656v-3.414h-6.828v10.242h-3.414v3.414h6.828v-10.242h3.414M32.641 46.078h3.414v-6.824h-3.414v6.824m6.824 27.309v-6.828h-3.41v3.414H25.813v27.309h20.48v-3.414h-3.414v-3.414h-3.414v3.414H29.227v-20.48h6.828v17.066h3.41V73.387m10.242-3.414v17.066h-3.414v6.828h3.414v-3.414h3.414V66.559h-3.414v3.414m0-13.652v-3.414h-3.414v3.414h3.414m-6.828 0v3.414h3.414V56.32h-3.414m0 6.828v-3.414h-3.414v6.824h3.414v-3.41M29.227 11.945v6.828h3.414v-6.828h-3.414m-10.238 0h10.238v-3.41H15.574v40.957H12.16v64.855h3.414V52.906h30.719v-6.828h-3.414v3.414h-3.414v-3.414h-3.41v3.414h-6.828V39.254h3.414v-6.828h-3.414v-3.414h-3.414v20.48h-6.824V11.945m17.066 13.656v-6.828h-3.414v6.828h3.414m6.824 6.824h3.414v-6.824h-3.414v6.824m6.828 6.828h-3.414v6.824h3.414v-6.824m-10.242-6.828v6.828h3.414v-6.828h-3.414m-3.41-6.824v6.824h3.41v-6.824h-3.41m13.652-6.828h-3.414v6.828h3.414v-6.828m3.414 0v-6.828h-3.414v6.828h3.414m61.438 64.852h-3.41v23.895h3.41V83.625m-6.824-3.41v3.41h3.414v-3.41h-3.414m0-20.48h3.414V56.32h-3.414v3.414m3.414 0v10.238h3.41V59.734h-3.41M100.907 76.8v3.414h6.828V76.8h-6.828m-3.414-6.828h3.414v-3.414h-3.414v3.414m3.414 0v3.414h10.242v-3.414h-10.242M70.188 76.8V59.734h-3.414v10.238H63.36v-6.824H53.121v3.41h6.824v27.309h-3.41v6.824h3.41v-3.41h6.828v6.824h3.414V90.453h-3.414v3.414h-3.414v-20.48h3.414v3.414h3.414m3.414 3.414v-3.414h-3.414v3.414h3.414m6.824-13.656h10.242v23.895h6.824V87.04h-3.414V76.801h6.828v-3.414h-6.828v-6.828h3.414v-3.41H80.426v3.41m0 6.828v-6.828h-3.414v13.656h-3.41v3.41h3.41v3.414h-6.824v3.414h10.238V73.387m-10.238-20.48h3.414v-3.414h-6.828V8.535H53.121v3.41h10.238v37.547h-6.824v-20.48h-3.414v3.414h-3.414v6.828h3.414v10.238h-3.414v3.414h20.48m3.414 3.414h-3.414v3.414h3.414V56.32m0 0h3.41v-3.414h-3.41v3.414m3.41-10.242h-3.41v3.414h3.41v-3.414m23.895 6.828v3.414h6.828v-3.414h-6.828m0-3.414H77.012v3.414h23.895v-3.414m0-3.414v3.414h3.414v-3.414h-3.414m-3.414-6.824h-3.414v3.414h3.414v-3.414m0-6.828h3.414v-3.414h-6.828v3.414h3.414m-6.824 6.828h3.41V35.84h-3.41v3.414m-10.242 0V35.84H70.188v10.238h3.414v-6.824h6.824m3.414 0h-3.414v6.824h13.652v-3.41H83.84v-3.414m-3.414-6.828v3.414h10.242v-3.414H80.426m-3.414-3.414h-3.41v3.414h6.824v-3.414h-3.414m6.828-3.41v3.41h10.238v-3.41H83.84m0-6.828h-3.414v6.828h3.414v-6.828M73.602 15.36h-3.414v13.652h3.414V15.359m0-3.414v3.414h6.824v-3.414h-6.824m20.477 0h3.414v-3.41H80.426v3.41h13.652m0 6.828v-3.414H83.84v3.414h10.238M104.32 35.84v-3.414h-3.414v3.414h3.414m3.414 0h-3.414v10.238h3.414V35.84m-3.414-20.48v-3.414h-6.828v3.414h6.828m3.414 0h-3.414v6.828h-6.828v-3.414h-3.414v6.828h13.656zm0 0" fill="rgb(0%,0%,0%)"/><path d="M73.616 78.424v-1.655h-1.655-1.655v-8.512-8.512h1.655 1.655V58.09v-1.655h1.734 1.734V54.7v-1.734h11.901 11.901V54.7v1.734h3.389 3.389v1.655 1.655h1.734 1.734v5.044 5.044h-5.044-5.044v-1.655-1.655H99.31h-1.734v-1.734-1.734h-8.591-8.591v1.734 1.734H78.66h-1.734V73.3v6.778h-1.655-1.655zm6.936 34.128v-1.734h-1.734-1.734v-1.655-1.655H75.35h-1.734v-1.734-1.734h-1.655-1.655v-6.778-6.778h5.044 5.044v1.734 1.734h1.655 1.655v1.734 1.734h6.936 6.936v-1.734-1.734h1.734 1.734v-1.813-1.813H99.31h-1.734V88.67v-1.655h-1.734-1.734V81.97v-5.044h3.389 3.389v1.655 1.655h3.389 3.389v1.734 1.734h1.734 1.734v11.901 11.901h-1.734-1.734v1.655 1.655h-3.389-3.389v1.734 1.734H90.719 80.552zm3.31-20.493v-1.734h-1.655-1.655V78.502 66.68h5.044 5.044v11.823 11.823h-1.734-1.734v1.734 1.734h-1.655-1.655zm-30.739 17.182v-5.044h1.734 1.734v-1.734-1.734h1.734 1.734v-1.655-1.655h3.31 3.31v3.389 3.389h1.734 1.734v1.734 1.734h1.655 1.655v1.655 1.655h1.734 1.734v1.655 1.655h-11.9-11.902zM15.606 83.626v-30.66h15.291 15.291v1.655 1.655h-1.655-1.655v1.655 1.655h-1.734-1.734v3.468 3.468h-1.734-1.734v1.655 1.655h-5.123-5.123v13.793 13.793H36.02h10.325v-1.734-1.734h1.734 1.734v-1.734-1.734h1.655 1.655V78.581 66.68h3.389 3.389v13.557 13.557h-1.734-1.734v3.389 3.389h-3.389-3.389v5.123 5.123h-1.734-1.734v1.734 1.734h-15.29-15.291zM43 92.099l-.045-1.695-1.695-.045-1.695-.045V78.502 66.69l1.695-.045 1.695-.045.042-3.429.042-3.429h1.652 1.652v-1.655-1.655h1.734 1.734V54.7v-1.734h11.823 11.823v1.655 1.655h-1.655-1.655v1.655 1.655h-1.734-1.734v5.123 5.123h-1.655-1.655v-3.391-3.391l-5.163.042-5.163.042L53 64.828l-.045 1.695h-1.65-1.65v10.246 10.246h-1.734-1.734v3.389 3.389h-1.571-1.571zM19.074 30.66V11.98h5.044 5.044v3.468 3.468h1.734 1.734v3.389 3.389h1.655 1.655v3.389 3.389h1.734 1.734v3.389 3.389h1.813 1.813v-3.389-3.389h1.655 1.655v-3.389-3.389h1.734 1.734v-3.389-3.389h1.655 1.655v-3.468-3.468h5.044 5.044v18.68 18.68H59.9h-3.31V39.172 29.005h-1.813-1.813v1.655 1.655H51.31h-1.655v3.468 3.468h-1.734-1.734v3.389 3.389h-1.655-1.655v1.655 1.655h-1.655-1.655v-1.655-1.655h-1.734-1.734V42.64v-3.389h-1.655-1.655v-3.468-3.468h-1.734-1.734V30.66v-1.655h-1.813-1.813v10.167V49.34h-3.31-3.31zm58.01 17.025V46.03H75.35h-1.734v-3.39-3.389h3.389 3.389v3.468 3.468h6.857 6.857v-1.734-1.734h1.734 1.734v-1.734-1.734h-1.734-1.734v-1.734-1.734h-1.655-1.655v-1.734-1.734h-5.123-5.123V30.66v-1.655h-3.468-3.468v-6.778-6.778h3.468 3.468v-1.734-1.734h8.433 8.433v1.734 1.734h3.389 3.389v3.31 3.31h-3.31-3.31v-1.655-1.655h-1.734-1.734v-1.734-1.734h-5.202-5.202v1.734 1.734h-1.655-1.655v3.468 3.468h1.655 1.655v1.734 1.734h5.123 5.123v1.655 1.655h3.468 3.468v1.734 1.734h1.655 1.655v5.044 5.044h-1.655-1.655v1.655 1.655H88.985 77.084z" fill="#ccc"/></svg>
