<svg xmlns="http://www.w3.org/2000/svg" viewBox="0 0 128 128"><path d="M80.426 114.348v3.414h20.48v-3.414h-20.48m-3.414-6.828h-3.41v3.414h3.41v-3.414m3.414 6.828v-3.414h-3.414v3.414h3.414m-6.824-10.242h-3.414v3.414h3.414v-3.414m6.824-13.652v3.414h3.414v-3.414h-3.414m10.242 3.414v-3.414h-3.414v3.414H83.84v3.414h13.652v-3.414h-6.824m6.824-3.414v3.414h3.414v-3.414h-3.414m10.242 20.48h3.414v-3.414h-3.414v3.414m0 3.414v-3.414h-6.828v3.414h6.828m-40.961 0H53.121v3.414h23.891v-3.414H66.773m-20.48 3.414v-3.414H15.574v3.414h30.719m10.242-13.656v-3.414h-6.828v10.242h-3.414v3.414h6.828v-10.242h3.414M32.641 46.078h3.414v-6.824h-3.414v6.824m6.824 27.309v-6.828h-3.41v3.414H25.813v27.309h20.48v-3.414h-3.414v-3.414h-3.414v3.414H29.227v-20.48h6.828v17.066h3.41V73.387m10.242-3.414v17.066h-3.414v6.828h3.414v-3.414h3.414V66.559h-3.414v3.414m0-13.652v-3.414h-3.414v3.414h3.414m-6.828 0v3.414h3.414V56.32h-3.414m0 6.828v-3.414h-3.414v6.824h3.414v-3.41M29.227 11.945v6.828h3.414v-6.828h-3.414m-10.238 0h10.238v-3.41H15.574v40.957H12.16v64.855h3.414V52.906h30.719v-6.828h-3.414v3.414h-3.414v-3.414h-3.41v3.414h-6.828V39.254h3.414v-6.828h-3.414v-3.414h-3.414v20.48h-6.824V11.945m17.066 13.656v-6.828h-3.414v6.828h3.414m6.824 6.824h3.414v-6.824h-3.414v6.824m6.828 6.828h-3.414v6.824h3.414v-6.824m-10.242-6.828v6.828h3.414v-6.828h-3.414m-3.41-6.824v6.824h3.41v-6.824h-3.41m13.652-6.828h-3.414v6.828h3.414v-6.828m3.414 0v-6.828h-3.414v6.828h3.414m61.438 64.852h-3.41v23.895h3.41V83.625m-6.824-3.41v3.41h3.414v-3.41h-3.414m0-20.48h3.414V56.32h-3.414v3.414m3.414 0v10.238h3.41V59.734h-3.41M100.907 76.8v3.414h6.828V76.8h-6.828m-3.414-6.828h3.414v-3.414h-3.414v3.414m3.414 0v3.414h10.242v-3.414h-10.242M70.188 76.8V59.734h-3.414v10.238H63.36v-6.824H53.121v3.41h6.824v27.309h-3.41v6.824h3.41v-3.41h6.828v6.824h3.414V90.453h-3.414v3.414h-3.414v-20.48h3.414v3.414h3.414m3.414 3.414v-3.414h-3.414v3.414h3.414m6.824-13.656h10.242v23.895h6.824V87.04h-3.414V76.801h6.828v-3.414h-6.828v-6.828h3.414v-3.41H80.426v3.41m0 6.828v-6.828h-3.414v13.656h-3.41v3.41h3.41v3.414h-6.824v3.414h10.238V73.387m-10.238-20.48h3.414v-3.414h-6.828V8.535H53.121v3.41h10.238v37.547h-6.824v-20.48h-3.414v3.414h-3.414v6.828h3.414v10.238h-3.414v3.414h20.48m3.414 3.414h-3.414v3.414h3.414V56.32m0 0h3.41v-3.414h-3.41v3.414m3.41-10.242h-3.41v3.414h3.41v-3.414m23.895 6.828v3.414h6.828v-3.414h-6.828m0-3.414H77.012v3.414h23.895v-3.414m0-3.414v3.414h3.414v-3.414h-3.414m-3.414-6.824h-3.414v3.414h3.414v-3.414m0-6.828h3.414v-3.414h-6.828v3.414h3.414m-6.824 6.828h3.41V35.84h-3.41v3.414m-10.242 0V35.84H70.188v10.238h3.414v-6.824h6.824m3.414 0h-3.414v6.824h13.652v-3.41H83.84v-3.414m-3.414-6.828v3.414h10.242v-3.414H80.426m-3.414-3.414h-3.41v3.414h6.824v-3.414h-3.414m6.828-3.41v3.41h10.238v-3.41H83.84m0-6.828h-3.414v6.828h3.414v-6.828M73.602 15.36h-3.414v13.652h3.414V15.359m0-3.414v3.414h6.824v-3.414h-6.824m20.477 0h3.414v-3.41H80.426v3.41h13.652m0 6.828v-3.414H83.84v3.414h10.238M104.32 35.84v-3.414h-3.414v3.414h3.414m3.414 0h-3.414v10.238h3.414V35.84m-3.414-20.48v-3.414h-6.828v3.414h6.828m3.414 0h-3.414v6.828h-6.828v-3.414h-3.414v6.828h13.656zm0 0"/><path d="M70.188 107.52v3.414h3.414v-3.414h-3.414m3.414 6.828h3.41v-3.414h-3.41v3.414m6.824-23.895h3.414v-3.414h-3.414v3.414m-27.305 20.48v3.414h3.414v-3.414h-3.414m6.824-3.414h-3.41v3.414h3.41v-3.414m3.414 3.414h3.414v-3.414h-3.414v3.414m3.414 0v3.414h3.414v-3.414h-3.414m-3.414 3.414v-3.414h-3.414v3.414h3.414m0-44.375h3.414v-3.414h-3.414v3.414M46.293 80.215h3.414v-3.414h-3.414v3.414m3.414 3.41h-3.414v3.414h3.414v-3.414m-3.414-13.652v3.414h3.414v-3.414h-3.414m34.133 10.242v3.41h3.414v-3.41h-3.414m0-10.242h3.414v-3.414h-3.414v3.414m3.414 3.414h-3.414v3.414h3.414v-3.414M70.188 59.734V56.32h-3.414v3.414h3.414m3.414-3.414v-3.414h-3.414v3.414zm0 0" fill="navy"/><path d="M70.188 110.934v3.414h3.414v-3.414h-3.414m-17.066-3.414v3.414h3.414v-3.414h-3.414m3.414 6.828h3.41v-3.414h-3.41v3.414m10.238-6.828v3.414h3.414v-3.414h-3.414m-3.414 3.414v-3.414h-3.414v3.414h3.414m0 0v3.414h3.414v-3.414H63.36M49.707 66.559h3.414v-3.41h-3.414v3.41m-3.414 13.656v3.41h3.414v-3.41h-3.414m0-10.242h3.414v-3.414h-3.414v3.414m3.414 3.414h-3.414v3.414h3.414v-3.414m17.066-10.238h-3.414v3.41h3.414v-3.41m13.652 17.066h3.414v-3.414h-3.414v3.414m3.414 3.41h-3.414v3.414h3.414v-3.414m-3.414-13.652v3.414h3.414v-3.414zm0 0" fill="purple"/><path d="M87.254 90.453v-3.414H83.84v3.414h3.414m-44.375-3.414h-3.414v3.414h3.414v-3.414m3.414 6.828v-3.414h-3.414v3.414h3.414m17.066 6.824h3.414v-3.41h-3.414v3.41m3.414 3.414h-3.414v3.414h3.414v-3.414m-6.828-3.414v3.414h3.414v-3.414h-3.414m0 3.414h-3.41v3.414h3.41v-3.414m-13.652-20.48h-3.414v3.414h3.414v-3.414m-3.414-6.824v3.414h3.414v-3.414h-3.414m-3.414 6.824h3.414v-3.41h-3.414v3.41m3.414-10.238h-3.414v3.414h3.414v-3.414m0-6.828h-3.414v3.414h3.414v-3.414m3.414 6.828v-3.414h-3.414v3.414h3.414m0-10.238h-3.414v3.41h3.414v-3.41m0-3.414v3.414h3.414v-3.414h-3.414m20.48-3.414h-3.414v3.414h3.414V56.32m-13.652 3.414V56.32h-3.414v3.414h3.414m6.824 0v3.414h3.414v-3.414h-3.414m-6.824 0v3.414h3.414v-3.414h-3.414m3.414-3.414v-3.414h-3.414v3.414h3.414m3.41-3.414v3.414h3.414v-3.414h-3.414m0 3.414h-3.41v3.414h3.41V56.32m30.723 27.305h-3.414v3.414h3.414v-3.414m0-6.824h-3.414v3.414h3.414v-3.414m-3.414-3.414h3.414v-3.414h-3.414v3.414m-3.414 0v3.414h3.414v-3.414H83.84m0 6.828v3.41h3.414v-3.41H83.84m0-13.656v3.414h3.414v-3.414H83.84M70.188 56.32v-3.414h-3.414v3.414zm0 0" fill="#F0F"/><path d="M87.254 93.867v-3.414H83.84v3.414h3.414m3.414-6.828h-3.414v3.414h3.414v-3.414m-23.895 17.066v3.414h3.414v-3.414h-3.414m-20.48-13.652v-3.414h-3.414v3.414h3.414m17.066 13.652h-3.414v3.414h3.414v-3.414m0-3.414v3.414h3.414v-3.414h-3.414m-3.414-3.41v3.41h3.414v-3.41h-3.414m-3.41 6.824h-3.414v3.414h3.414v-3.414m0 0h3.41v-3.414h-3.41v3.414M42.879 76.801h3.414v-3.414h-3.414v3.414m0 3.414v3.41h3.414v-3.41h-3.414m0 3.41h-3.414v3.414h3.414v-3.414m0-6.824h-3.414v3.414h3.414v-3.414m-3.414-3.414h3.414v-3.414h-3.414v3.414m6.828-3.414v-3.414h-3.414v3.414h3.414m3.414-6.824h-3.414v3.41h3.414v-3.41m0-6.828h-3.414v3.414h3.414V56.32m-6.828 3.414v3.414h3.414v-3.414h-3.414m20.48 0v3.414h3.414v-3.414h-3.414m3.414-3.414v-3.414h-3.414v3.414h3.414m-6.828 0v3.414h3.414V56.32h-3.414m-3.41 3.414V56.32h-3.414v3.414h3.414m0 0v3.414h3.41v-3.414h-3.41m-3.414 3.414v-3.414h-3.414v3.414h3.414m0-6.828v-3.414h-3.414v3.414h3.414m3.414 0h3.41v-3.414h-3.41v3.414m30.719 27.305H83.84v3.414h3.414v-3.414m0 0h3.414v-3.41h-3.414v3.41m3.414-10.238h-3.414v3.414h3.414v-3.414m0-6.828h-3.414v3.414h3.414v-3.414M83.84 76.801v3.414h3.414v-3.414H83.84m0-6.828v3.414h3.414v-3.414zm0 0" fill="#00F"/><path d="M97.492 90.453h3.414v-3.414h-3.414v3.414m6.828 10.238v3.414h-3.414v3.414H83.84v-3.414h-6.828v-3.414h-3.41v-6.824h-3.414v10.238h3.414v3.414h3.41v3.414h3.414v3.414h20.48v-3.414h6.828v-3.414h3.414V97.281h-3.414v3.41h-3.414m-6.828-17.066h-3.414v3.414h3.414v-3.414m3.414-17.066v3.414h10.242v-6.824h-3.414v3.41h-6.828M77.012 76.801h-3.41v3.414h3.41v-3.414m-3.41-3.414h-3.414v3.414h3.414v-3.414m27.305-10.238h-3.414v3.41h3.414zm0 0" fill="olive"/><path d="M49.707 104.105h-3.414v3.414H18.988v3.414h-3.414v3.414h30.719v-3.414h3.414v-6.828m6.828-10.238h-3.414v6.824h3.414v-6.824m0 0h3.41v-3.414h-3.41v3.414M42.879 52.906v3.414h3.414v-3.414h-3.414m0 3.414h-3.414v3.414h3.414V56.32m-17.066 6.828v6.824h10.242v-3.414h3.41v-3.41zm0 0" fill="maroon"/><path d="M25.813 69.973v-6.824h13.652V56.32h3.414v-3.414H15.574v58.027h3.414v-3.414h27.305v-3.414h3.414v-3.414h3.414v-6.824h3.414v-3.414h3.41V66.559h-6.824v23.895h-3.414v3.414h-3.414v3.414h-20.48zm0 0" fill="red"/><path d="M29.227 29.012v-3.41h-3.414v-3.414h-3.414v27.305h3.414v-20.48h3.414m3.414-10.238h-3.414v3.414h3.414v-3.414m-6.828-6.828v3.414h3.414v-3.414h-3.414m30.723 17.066v-3.41h-3.414v3.41h3.414M42.879 39.254h-3.414v3.414h3.414v-3.414m-3.414-3.414v-3.414h-3.41v3.414h3.41m-3.41-6.828v-3.41h-3.414v3.41h3.414M63.36 11.946h-3.414v37.547h3.414V11.945m40.961 34.133V35.84h-3.414v10.238h3.414m-3.414 3.414v-3.414h-3.414v3.414h3.414m0-13.652v-3.414h-3.414v3.414h3.414m-6.828-6.828h-3.41v3.414h3.41v-3.414M80.426 18.773h-3.414v10.238h6.828v-3.41h-3.414v-6.828m0 0h3.414v-3.414h-3.414v3.414m13.652-6.828v3.414h3.414v-3.414h-3.414m10.242 10.242v-6.828h-3.414v6.828zm0 0" fill="gray"/><path d="M53.121 11.945v6.828h-3.414v6.828h-3.414v6.824h-3.414v10.242h-3.414V35.84h-3.41v-6.828h-3.414v-6.824h-3.414V15.36h-3.414v-3.414h-6.824v37.547h3.41V22.188h3.414v3.414h3.414v6.824h3.414v6.828h3.414v6.824h3.41v3.414h3.414v-3.414h3.414v-6.824h3.414v-6.828h3.414v-6.824h3.414v23.891h3.41V11.945h-6.824m27.305 27.309h-6.824v6.824h3.41v3.414h20.48v-3.414h3.414V35.84h-3.414v-3.414h-6.824v3.414h3.41v3.414h3.414v3.414h-3.414v3.41H80.426v-6.824m3.414-10.242h-3.414v3.414h10.242v-3.414H83.84m-3.414-10.238V15.36h-6.824v13.652h3.41V18.773h3.414m13.652-3.414v3.414h3.414v3.414h3.414v-6.828h-6.828m0 0v-3.414H80.426v3.414zm0 0" fill="silver"/><path d="M94.078 76.801v6.824h3.414v3.414h3.414v6.828h-3.414v3.414H83.84v-3.414h-3.414v-3.414H70.188v3.414h3.414v6.824h3.41v3.414h6.828v3.414h17.066v-3.414h3.414v-3.414h3.414v-3.41h3.414V83.625h-3.414v-3.41h-6.828v-3.414h-6.828m6.828-20.48v-3.414H77.012v3.414h-3.41v3.414h-3.414v13.652h3.414v3.414h3.41V66.559h3.414v-3.41h20.48v3.41h6.828v-3.41h3.414v-3.414h-3.414V56.32zm0 0" fill="#FF0"/></svg>
