<?xml version="1.0" encoding="UTF-8" standalone="no"?>
<svg
   width="128"
   height="128"
   viewBox="0 0 128 128"
   version="1.1"
   id="svg4"
   sodipodi:docname="msdos-line - kopie.svg"
   inkscape:version="1.1 (c68e22c387, 2021-05-23)"
   xmlns:inkscape="http://www.inkscape.org/namespaces/inkscape"
   xmlns:sodipodi="http://sodipodi.sourceforge.net/DTD/sodipodi-0.dtd"
   xmlns="http://www.w3.org/2000/svg"
   xmlns:svg="http://www.w3.org/2000/svg">
  <defs
     id="defs8" />
  <sodipodi:namedview
     id="namedview6"
     pagecolor="#ffffff"
     bordercolor="#666666"
     borderopacity="1.0"
     inkscape:pageshadow="2"
     inkscape:pageopacity="0.0"
     inkscape:pagecheckerboard="0"
     showgrid="false"
     inkscape:zoom="4.4857086"
     inkscape:cx="74.124297"
     inkscape:cy="59.856763"
     inkscape:window-width="1920"
     inkscape:window-height="1001"
     inkscape:window-x="-9"
     inkscape:window-y="-9"
     inkscape:window-maximized="1"
     inkscape:current-layer="svg4" />
  <path
     d="M80.426 114.348v3.414h20.48v-3.414h-20.48m-3.414-6.828h-3.41v3.414h3.41v-3.414m3.414 6.828v-3.414h-3.414v3.414h3.414m-6.824-10.242h-3.414v3.414h3.414v-3.414m6.824-13.652v3.414h3.414v-3.414h-3.414m10.242 3.414v-3.414h-3.414v3.414H83.84v3.414h13.652v-3.414h-6.824m6.824-3.414v3.414h3.414v-3.414h-3.414m10.242 20.48h3.414v-3.414h-3.414v3.414m0 3.414v-3.414h-6.828v3.414h6.828m-40.961 0H53.121v3.414h23.891v-3.414H66.773m-20.48 3.414v-3.414H15.574v3.414h30.719m10.242-13.656v-3.414h-6.828v10.242h-3.414v3.414h6.828v-10.242h3.414M32.641 46.078h3.414v-6.824h-3.414v6.824m6.824 27.309v-6.828h-3.41v3.414H25.813v27.309h20.48v-3.414h-3.414v-3.414h-3.414v3.414H29.227v-20.48h6.828v17.066h3.41V73.387m10.242-3.414v17.066h-3.414v6.828h3.414v-3.414h3.414V66.559h-3.414v3.414m0-13.652v-3.414h-3.414v3.414h3.414m-6.828 0v3.414h3.414V56.32h-3.414m0 6.828v-3.414h-3.414v6.824h3.414v-3.41M29.227 11.945v6.828h3.414v-6.828h-3.414m-10.238 0h10.238v-3.41H15.574v40.957H12.16v64.855h3.414V52.906h30.719v-6.828h-3.414v3.414h-3.414v-3.414h-3.41v3.414h-6.828V39.254h3.414v-6.828h-3.414v-3.414h-3.414v20.48h-6.824V11.945m17.066 13.656v-6.828h-3.414v6.828h3.414m6.824 6.824h3.414v-6.824h-3.414v6.824m6.828 6.828h-3.414v6.824h3.414v-6.824m-10.242-6.828v6.828h3.414v-6.828h-3.414m-3.41-6.824v6.824h3.41v-6.824h-3.41m13.652-6.828h-3.414v6.828h3.414v-6.828m3.414 0v-6.828h-3.414v6.828h3.414m61.438 64.852h-3.41v23.895h3.41V83.625m-6.824-3.41v3.41h3.414v-3.41h-3.414m0-20.48h3.414V56.32h-3.414v3.414m3.414 0v10.238h3.41V59.734h-3.41M100.907 76.8v3.414h6.828V76.8h-6.828m-3.414-6.828h3.414v-3.414h-3.414v3.414m3.414 0v3.414h10.242v-3.414h-10.242M70.188 76.8V59.734h-3.414v10.238H63.36v-6.824H53.121v3.41h6.824v27.309h-3.41v6.824h3.41v-3.41h6.828v6.824h3.414V90.453h-3.414v3.414h-3.414v-20.48h3.414v3.414h3.414m3.414 3.414v-3.414h-3.414v3.414h3.414m6.824-13.656h10.242v23.895h6.824V87.04h-3.414V76.801h6.828v-3.414h-6.828v-6.828h3.414v-3.41H80.426v3.41m0 6.828v-6.828h-3.414v13.656h-3.41v3.41h3.41v3.414h-6.824v3.414h10.238V73.387m-10.238-20.48h3.414v-3.414h-6.828V8.535H53.121v3.41h10.238v37.547h-6.824v-20.48h-3.414v3.414h-3.414v6.828h3.414v10.238h-3.414v3.414h20.48m3.414 3.414h-3.414v3.414h3.414V56.32m0 0h3.41v-3.414h-3.41v3.414m3.41-10.242h-3.41v3.414h3.41v-3.414m23.895 6.828v3.414h6.828v-3.414h-6.828m0-3.414H77.012v3.414h23.895v-3.414m0-3.414v3.414h3.414v-3.414h-3.414m-3.414-6.824h-3.414v3.414h3.414v-3.414m0-6.828h3.414v-3.414h-6.828v3.414h3.414m-6.824 6.828h3.41V35.84h-3.41v3.414m-10.242 0V35.84H70.188v10.238h3.414v-6.824h6.824m3.414 0h-3.414v6.824h13.652v-3.41H83.84v-3.414m-3.414-6.828v3.414h10.242v-3.414H80.426m-3.414-3.414h-3.41v3.414h6.824v-3.414h-3.414m6.828-3.41v3.41h10.238v-3.41H83.84m0-6.828h-3.414v6.828h3.414v-6.828M73.602 15.36h-3.414v13.652h3.414V15.359m0-3.414v3.414h6.824v-3.414h-6.824m20.477 0h3.414v-3.41H80.426v3.41h13.652m0 6.828v-3.414H83.84v3.414h10.238M104.32 35.84v-3.414h-3.414v3.414h3.414m3.414 0h-3.414v10.238h3.414V35.84m-3.414-20.48v-3.414h-6.828v3.414h6.828m3.414 0h-3.414v6.828h-6.828v-3.414h-3.414v6.828h13.656zm0 0"
     fill="rgb(0%,0%,0%)"
     id="path2" />
  <path
     style="fill:#cccccc;stroke-width:0.157635"
     d="m 73.615764,78.423645 v -1.655172 h -1.655173 -1.655172 v -8.512315 -8.512316 h 1.655172 1.655173 V 58.08867 56.433498 h 1.73399 1.73399 v -1.733991 -1.73399 H 88.985222 100.8867 v 1.73399 1.733991 h 3.38916 3.38916 v 1.655172 1.655172 h 1.73399 1.73399 v 5.044335 5.044335 h -5.04433 -5.04434 V 68.17734 66.522167 h -1.733985 -1.73399 v -1.73399 -1.73399 h -8.591133 -8.591133 v 1.73399 1.73399 h -1.73399 -1.733991 v 6.778326 6.778325 h -1.655172 -1.655172 z"
     id="path862" />
  <path
     style="fill:#cccccc;stroke-width:0.157635"
     d="m 80.551724,112.55172 v -1.73399 h -1.73399 -1.73399 v -1.65517 -1.65517 h -1.73399 -1.73399 v -1.73399 -1.73399 h -1.655173 -1.655172 v -6.778326 -6.778325 h 5.044335 5.044335 v 1.73399 1.73399 h 1.655172 1.655172 v 1.73399 1.73399 h 6.935961 6.935961 v -1.73399 -1.73399 h 1.73399 1.733985 v -1.812808 -1.812808 h -1.733985 -1.73399 v -1.655172 -1.655173 h -1.73399 -1.733991 v -5.044335 -5.044335 h 3.389163 3.389163 v 1.655173 1.655172 h 3.38916 3.38916 v 1.73399 1.73399 h 1.73399 1.73399 v 11.901478 11.901479 h -1.73399 -1.73399 v 1.65517 1.65517 h -3.38916 -3.38916 v 1.73399 1.73399 H 90.719212 80.551724 Z"
     id="path901" />
  <path
     style="fill:#cccccc;stroke-width:0.157635"
     d="m 83.862069,92.059113 v -1.73399 h -1.655172 -1.655173 v -11.82266 -11.82266 h 5.044335 5.044335 v 11.82266 11.82266 h -1.73399 -1.73399 v 1.73399 1.73399 h -1.655173 -1.655172 z"
     id="path940" />
  <path
     style="fill:#cccccc;stroke-width:0.157635"
     d="m 53.123153,109.24138 v -5.04434 h 1.73399 1.73399 v -1.73399 -1.73399 h 1.73399 1.73399 v -1.655168 -1.655173 h 3.310345 3.310345 v 3.389161 3.38916 h 1.73399 1.73399 v 1.73399 1.73399 h 1.655173 1.655172 v 1.65518 1.65517 h 1.73399 1.73399 v 1.65517 1.65517 H 65.024631 53.123153 Z"
     id="path979" />
  <path
     style="fill:#cccccc;stroke-width:0.157635"
     d="M 15.605911,83.625616 V 52.965517 h 15.290641 15.29064 v 1.655173 1.655172 H 44.53202 42.876847 v 1.655172 1.655173 h -1.73399 -1.73399 v 3.46798 3.46798 h -1.73399 -1.73399 v 1.655173 1.655172 h -5.123153 -5.123153 v 13.793104 13.793103 h 10.325123 10.325124 v -1.73399 -1.73399 h 1.73399 1.73399 v -1.73399 -1.73399 h 1.655172 1.655173 V 78.581281 66.679803 h 3.389162 3.389163 v 13.55665 13.55665 h -1.73399 -1.73399 v 3.389163 3.389164 h -3.389163 -3.389163 v 5.12315 5.12315 h -1.73399 -1.73399 v 1.73399 1.73399 H 30.896552 15.605911 Z"
     id="path1018" />
  <path
     style="fill:#cccccc;stroke-width:0.157635"
     d="m 43.000407,92.098522 -0.04474,-1.694581 -1.694581,-0.04474 -1.694582,-0.04474 V 78.502463 66.690469 l 1.694582,-0.04474 1.694581,-0.04474 0.04248,-3.428571 0.04248,-3.428572 h 1.652098 1.652099 V 58.08867 56.433498 h 1.73399 1.73399 v -1.733991 -1.73399 h 11.82266 11.82266 v 1.655173 1.655172 h -1.655172 -1.655173 v 1.655172 1.655173 h -1.73399 -1.73399 v 5.123153 5.123152 h -1.655172 -1.655173 v -3.391316 -3.391317 l -5.162561,0.04156 -5.162562,0.04156 -0.04474,1.694581 -0.04474,1.694581 h -1.649839 -1.64984 v 10.246306 10.246305 h -1.73399 -1.73399 v 3.389163 3.389162 h -1.571021 -1.571022 z"
     id="path1057" />
  <path
     style="fill:#cccccc;stroke-width:0.157635"
     d="M 19.073892,30.660099 V 11.980296 h 5.044335 5.044335 v 3.46798 3.46798 h 1.73399 1.73399 v 3.389163 3.389162 h 1.655172 1.655173 v 3.389163 3.389162 h 1.73399 1.73399 v 3.389163 3.389163 h 1.812808 1.812808 v -3.389163 -3.389163 h 1.655172 1.655173 v -3.389162 -3.389163 h 1.73399 1.73399 v -3.389162 -3.389163 h 1.655172 1.655173 v -3.46798 -3.46798 h 5.044335 5.044335 V 30.660099 49.339901 H 59.901478 56.591133 V 39.172414 29.004926 h -1.812808 -1.812808 v 1.655173 1.655172 h -1.655172 -1.655173 v 3.46798 3.467981 h -1.73399 -1.73399 v 3.389162 3.389163 H 44.53202 42.876847 v 1.655172 1.655172 h -1.655172 -1.655173 v -1.655172 -1.655172 h -1.73399 -1.73399 V 42.640394 39.251232 H 34.44335 32.788177 v -3.467981 -3.46798 h -1.73399 -1.73399 v -1.655172 -1.655173 h -1.812808 -1.812808 v 10.167488 10.167487 h -3.310345 -3.310344 z"
     id="path1096" />
  <path
     style="fill:#cccccc;stroke-width:0.157635"
     d="m 77.083744,47.684729 v -1.655172 h -1.73399 -1.73399 v -3.389163 -3.389162 h 3.389162 3.389163 v 3.46798 3.46798 h 6.857143 6.857142 v -1.73399 -1.73399 h 1.733991 1.73399 v -1.73399 -1.73399 h -1.73399 -1.733991 v -1.733991 -1.73399 H 92.453202 90.79803 v -1.73399 -1.73399 h -5.123153 -5.123153 v -1.655172 -1.655173 h -3.46798 -3.46798 v -6.778325 -6.778325 h 3.46798 3.46798 v -1.73399 -1.73399 h 8.433498 8.433497 v 1.73399 1.73399 h 3.389161 3.38916 v 3.310345 3.310345 h -3.31034 -3.310345 v -1.655173 -1.655172 h -1.73399 -1.733991 v -1.73399 -1.733991 h -5.20197 -5.201971 v 1.733991 1.73399 h -1.655172 -1.655172 v 3.46798 3.46798 h 1.655172 1.655172 v 1.73399 1.733991 h 5.123153 5.123153 v 1.655172 1.655172 h 3.46798 3.467981 v 1.733991 1.73399 h 1.65517 1.65517 v 5.044335 5.044335 h -1.65517 -1.65517 v 1.655172 1.655172 H 88.985222 77.083744 Z"
     id="path1135" />
</svg>
