<?xml version="1.0" encoding="UTF-8" standalone="no"?>
<svg
   width="128"
   height="128"
   viewBox="0 0 128 128"
   version="1.1"
   id="svg39"
   sodipodi:docname="Pug.svg"
   inkscape:version="1.3.2 (091e20e, 2023-11-25, custom)"
   xmlns:inkscape="http://www.inkscape.org/namespaces/inkscape"
   xmlns:sodipodi="http://sodipodi.sourceforge.net/DTD/sodipodi-0.dtd"
   xmlns="http://www.w3.org/2000/svg"
   xmlns:svg="http://www.w3.org/2000/svg"
   xmlns:rdf="http://www.w3.org/1999/02/22-rdf-syntax-ns#"
   xmlns:cc="http://creativecommons.org/ns#"
   xmlns:dc="http://purl.org/dc/elements/1.1/">
  <defs
     id="defs39" />
  <sodipodi:namedview
     id="namedview39"
     pagecolor="#ffffff"
     bordercolor="#111111"
     borderopacity="1"
     inkscape:showpageshadow="0"
     inkscape:pageopacity="0"
     inkscape:pagecheckerboard="1"
     inkscape:deskcolor="#d1d1d1"
     inkscape:zoom="4.2592135"
     inkscape:cx="70.552932"
     inkscape:cy="69.613791"
     inkscape:window-width="1920"
     inkscape:window-height="1009"
     inkscape:window-x="-8"
     inkscape:window-y="-8"
     inkscape:window-maximized="1"
     inkscape:current-layer="svg39" />
  <title
     id="title1">file_type_pug</title>
  <path
     d="m 107.49126,49.535656 c -0.23771,-4.287871 0.9554,-8.342606 -0.9554,-11.675077 C 101.768,29.517973 89.855222,24.754687 66.02051,24.754687 v -0.242278 0 0.237707 c -26.216354,0 -37.416017,4.767857 -42.179302,13.105891 a 25.59923,25.59923 0 0 0 -2.143935,11.675078 43.637544,43.637544 0 0 0 -1.193107,11.199663 c 0.713121,5.24327 1.193107,10.486541 1.906228,15.249826 0.713122,4.050164 6.436378,7.149499 7.149499,10.971099 1.430814,10.248834 10.486542,15.012117 36.698324,15.012117 v 1.19311 h -0.457129 v -1.19311 c 23.83014,0 33.827553,-4.767854 35.272082,-15.012117 0.45713,-3.812457 5.24327,-6.911792 5.94268,-10.971099 0.71312,-4.767856 0.9554,-10.011127 1.66852,-15.249826 a 53.82238,53.82238 0 0 0 -1.19311,-11.195092 z"
     style="fill:#efcca3;stroke-width:4.57129"
     id="path1" />
  <path
     d="m 64.831975,53.348113 a 14.815554,14.815554 0 0 1 10.011127,5.24327 c 3.337042,2.861629 8.81802,4.767857 11.199663,7.387207 a 21.553637,21.553637 0 0 1 6.436378,9.055727 40.68449,40.68449 0 0 1 1.430814,10.248835 c 0,1.193106 0.713121,0.955399 2.619349,0 a 41.233045,41.233045 0 0 0 10.011124,-8.580314 c -0.71312,4.050164 -5.71868,7.624914 -6.1941,11.428228 C 98.915521,98.3799 88.918107,103.38089 64.361132,103.38089 h 1.430814"
     style="fill:#ccac8d;stroke-width:4.57129"
     id="path2" />
  <path
     d="m 80.086373,45.247785 c 0.9554,3.099335 4.050164,13.823584 -2.143936,10.248834 a 11.688791,11.688791 0 0 1 4.287871,7.149499 8.3700338,8.3700338 0 0 0 5.942678,6.436378 15.903521,15.903521 0 0 0 11.675075,-2.861628 13.512736,13.512736 0 0 0 3.099339,-15.01212 11.108237,11.108237 0 0 0 -9.76885,-7.387206 C 88.684971,42.623864 79.130973,41.673035 80.086373,45.247785 Z"
     style="fill:#ccac8d;stroke-width:4.57129"
     id="path3" />
  <circle
     cx="92.241432"
     cy="56.685154"
     r="8.8180208"
     id="circle3"
     style="stroke-width:4.57129" />
  <circle
     cx="89.855217"
     cy="52.634991"
     r="2.3816428"
     style="fill:#ffffff;stroke-width:4.57129"
     id="circle4" />
  <path
     d="m 78.655559,56.209741 a 80.820425,80.820425 0 0 1 12.392769,10.724248 c 4.287871,5.48555 4.287871,6.436378 4.287871,6.436378 l -3.099335,1.430814 A 32.456166,32.456166 0 0 0 82.468015,63.372954 c -5.485549,-3.099336 -6.194099,-5.718685 -6.194099,-5.718685 z"
     style="fill:#efcca3;stroke-width:4.57129"
     id="path4" />
  <path
     d="m 65.074253,53.348113 a 16.479504,16.479504 0 0 0 -10.724249,5.24327 C 51.012962,61.453012 45.05657,63.35924 42.921777,65.97859 a 21.969625,21.969625 0 0 0 -6.674085,9.055727 40.68449,40.68449 0 0 0 -1.430814,10.248835 c 0,1.193106 0.237707,1.430814 -2.861628,0 A 36.442332,36.442332 0 0 1 21.944122,76.702838 c 0.713122,4.050164 5.718686,7.624914 6.1941,11.428228 1.430814,10.011127 11.428227,15.012124 35.985203,15.012124 h 1.668521"
     style="fill:#ccac8d;stroke-width:4.57129"
     id="path5" />
  <path
     d="M 87.948993,69.791046 A 29.951099,29.951099 0 0 0 64.594267,57.873691 v 0 A 30.34423,30.34423 0 0 0 41.239542,69.791046 17.649755,17.649755 0 0 0 36.471685,84.327752 c 0,21.210788 7.387207,14.774412 12.39277,17.398338 a 34.129259,34.129259 0 0 0 15.492105,1.43081 v 0 a 33.827553,33.827553 0 0 0 15.492106,-1.43081 c 5.005563,-2.619355 12.392769,3.81245 12.392769,-17.398338 A 15.478391,15.478391 0 0 0 87.948993,69.791046 Z"
     style="fill:#56332b;stroke-width:4.57129"
     id="path6" />
  <path
     d="M 64.118853,63.834654 A 43.651258,43.651258 0 0 1 61.974918,75.509731 L 64.594267,74.79661 Z"
     style="fill:#442823;stroke-width:4.57129"
     id="path7" />
  <path
     d="M 64.831975,63.834654 A 43.651258,43.651258 0 0 0 66.97591,75.509731 L 64.35656,74.79661 Z"
     style="fill:#442823;stroke-width:4.57129"
     id="path8" />
  <path
     d="m 56.49394,61.453012 c -0.9554,-2.381643 2.61935,-6.1941 8.342606,-6.1941 5.723256,0 9.293435,3.812457 8.342606,6.1941 -0.950829,2.381642 -4.767857,3.099335 -8.342606,3.099335 -3.817028,-0.0046 -7.391778,-0.717693 -8.342606,-3.099335 z"
     style="fill:#56332b;stroke-width:4.57129"
     id="path9" />
  <path
     d="m 64.831975,63.834654 c 0,-0.457129 3.337042,-0.457129 5.24327,-1.668521 0,0 -3.812456,1.193107 -4.530149,0.713121 a 2.9987669,2.9987669 0 0 1 -0.9554,-1.668521 2.9987669,2.9987669 0 0 1 -0.9554,1.668521 c -0.713121,0.457129 -5.005563,-0.713121 -5.005563,-0.713121 a 36.835463,36.835463 0 0 1 5.485549,1.668521 v 1.906229 a 47.961985,47.961985 0 0 0 0.457129,9.293434 c 0.713121,0.9554 0.457129,-6.674085 0.457129,-9.293434 a 5.9426783,5.9426783 0 0 1 -0.196565,-1.906229 z"
     id="path10"
     style="stroke-width:4.57129" />
  <path
     d="m 64.831975,77.41596 a 15.313825,15.313825 0 0 1 7.387206,3.099335 14.266999,14.266999 0 0 0 -7.387206,-5.005564 13.878439,13.878439 0 0 0 -8.342606,5.48555 15.140116,15.140116 0 0 1 8.342606,-3.579321 z"
     style="fill:#7f4a41;stroke-width:4.57129"
     id="path11" />
  <path
     d="M 64.35656,95.038287 A 40.68449,40.68449 0 0 1 53.385462,92.894351 c -0.713121,-0.237707 -1.430814,0.237707 -2.143936,0 A 28.214008,28.214008 0 0 1 36.704821,83.125502 v 0.9554 c 0,21.210788 7.387206,14.774412 12.39277,17.398338 a 34.129259,34.129259 0 0 0 15.492105,1.43081 v 0 a 33.827553,33.827553 0 0 0 15.492105,-1.43081 c 5.005564,-2.619354 12.39277,3.81245 12.39277,-17.398338 V 81.936967 A 27.034615,27.034615 0 0 1 77.713873,92.670358 c -0.713122,0.237707 -1.906229,-0.237707 -2.61935,-0.237707 A 32.204745,32.204745 0 0 1 64.35656,95.038287 Z"
     style="fill:#442823;stroke-width:4.57129"
     id="path12" />
  <path
     d="m 54.587712,83.610059 c 0,0 -2.61935,7.624913 -0.713122,10.971098 l -2.381643,-0.955399 a 70.548734,70.548734 0 0 1 3.094765,-10.015699 z"
     style="fill:#442823;stroke-width:4.57129"
     id="path13" />
  <path
     d="m 74.605395,83.610059 c 0,0 2.61935,7.624913 0.713121,10.971098 l 2.395357,-0.955399 A 48.588252,48.588252 0 0 0 74.605395,83.610059 Z"
     style="fill:#442823;stroke-width:4.57129"
     id="path14" />
  <path
     d="m 48.389041,45.247785 c -0.9554,3.099335 -4.050164,13.823584 2.143935,10.248834 a 11.688791,11.688791 0 0 0 -4.287871,7.149499 8.3700338,8.3700338 0 0 1 -5.942678,6.436378 15.903521,15.903521 0 0 1 -11.693362,-2.843343 13.512736,13.512736 0 0 1 -3.099336,-15.012119 11.108237,11.108237 0 0 1 9.768849,-7.387207 c 4.534721,-1.215963 14.065863,-2.166792 13.110463,1.407958 z"
     style="fill:#ccac8d;stroke-width:4.57129"
     id="path15" />
  <path
     d="M 64.594267,75.509731 A 15.51039,15.51039 0 0 1 75.79393,88.615623 V 88.158494 A 13.947009,13.947009 0 0 0 64.594267,74.814895 13.713873,13.713873 0 0 0 53.394605,88.158494 v 0.457129 A 15.830381,15.830381 0 0 1 64.594267,75.509731 Z"
     id="path16"
     style="stroke-width:4.57129" />
  <ellipse
     cx="49.403603"
     cy="74.715508"
     rx="0.71312141"
     ry="1.430814"
     transform="rotate(-14.46)"
     style="fill:#331712;stroke-width:4.57129"
     id="ellipse16" />
  <ellipse
     cx="-38.922794"
     cy="77.210808"
     rx="1.430814"
     ry="0.71312141"
     transform="rotate(-72.765)"
     style="fill:#331712;stroke-width:4.57129"
     id="ellipse17" />
  <circle
     cx="36.713963"
     cy="56.685154"
     r="8.8180208"
     id="circle17"
     style="stroke-width:4.57129" />
  <circle
     cx="39.095604"
     cy="52.634991"
     r="2.3816428"
     style="fill:#ffffff;stroke-width:4.57129"
     id="circle18" />
  <path
     d="m 67.199903,56.685155 c 0,0 -2.381642,0.9554 -2.861628,1.193107 a 11.391657,11.391657 0 0 1 -2.861628,-1.193107 z"
     style="fill:#7f4a41;stroke-width:4.57129"
     id="path18" />
  <path
     d="m 49.828998,56.209741 a 80.820425,80.820425 0 0 0 -12.39277,10.724248 c -4.287871,5.48555 -4.287871,6.436378 -4.287871,6.436378 l 3.099335,1.430814 a 32.456166,32.456166 0 0 1 9.768849,-11.428227 c 5.485549,-3.099336 6.194099,-5.718685 6.194099,-5.718685 z"
     style="fill:#efcca3;stroke-width:4.57129"
     id="path19" />
  <path
     d="m 32.421521,40.242221 a 20.657664,20.657664 0 0 1 -8.81802,10.486542 10.011127,10.011127 0 0 0 8.81802,-10.486542 z"
     style="fill:#ccac8d;stroke-width:4.57129"
     id="path20" />
  <path
     d="M 95.578478,40.242221 A 20.657664,20.657664 0 0 0 104.3965,50.728763 10.011127,10.011127 0 0 1 95.578478,40.242221 Z"
     style="fill:#ccac8d;stroke-width:4.57129"
     id="path21" />
  <path
     d="M 79.130973,54.061234 A 23.587862,23.587862 0 0 0 65.069682,47.624856 h 0.713121 a 17.608613,17.608613 0 0 0 -13.823584,6.436378 22.088478,22.088478 0 0 1 13.823584,-4.767857 v 0 a 26.444918,26.444918 0 0 1 13.34817,4.767857 z"
     style="fill:#ccac8d;stroke-width:4.57129"
     id="path22" />
  <path
     d="m 71.981474,40.955343 a 11.222519,11.222519 0 0 0 -7.149499,-4.287871 h 0.713121 a 8.1643257,8.1643257 0 0 0 -6.911792,4.287871 9.9974134,9.9974134 0 0 1 6.911792,-3.099336 v 0 a 8.6580251,8.6580251 0 0 1 6.436378,3.099336 z"
     style="fill:#ccac8d;stroke-width:4.57129"
     id="path23" />
  <path
     d="m 36.713964,71.934982 a 11.633936,11.633936 0 0 1 -8.104899,0.9554 h -0.950829 a 16.822351,16.822351 0 0 1 -4.050164,-6.911792 10.376831,10.376831 0 0 0 13.105892,5.956392 z"
     style="fill:#ccac8d;stroke-width:4.57129"
     id="path24" />
  <path
     d="m 92.003728,71.934982 a 11.633936,11.633936 0 0 0 8.104902,0.9554 h -0.955399 a 7.995188,7.995188 0 0 0 5.005559,-6.911792 9.2340078,9.2340078 0 0 1 -12.155062,5.956392 z"
     style="fill:#ccac8d;stroke-width:4.57129"
     id="path25" />
  <path
     d="m 42.194942,39.766807 a 21.713632,21.713632 0 0 1 10.248834,0.457129 c 4.287871,1.430814 0.9554,7.149499 1.668521,7.387206 A 13.096749,13.096749 0 0 1 64.361132,44.2741 c 8.104899,0.457129 9.055727,4.050164 10.248834,3.337042 1.193107,-0.457129 -1.193107,-10.011127 11.199663,-7.86262 0,0 -12.630477,-3.337043 -12.155063,5.718685 a 16.799494,16.799494 0 0 0 -17.63604,-0.457129 c 0,0 2.619349,-8.818021 -13.823584,-5.243271 z"
     style="fill:#ccac8d;stroke-width:4.57129"
     id="path26" />
  <path
     d="m 38.857899,27.38318 c 0,0 -10.971098,13.585877 -12.39277,18.824576 -1.668521,5.243271 -2.861628,27.167182 -4.287871,30.266518 l -5.005563,-21.45764 9.293434,-22.399326 z"
     style="fill:#ccac8d;stroke-width:4.57129"
     id="path27" />
  <path
     d="m 89.855222,27.38318 c 0,0 10.971098,13.585877 12.392768,18.824576 1.66852,5.243271 2.86163,27.167182 4.28787,30.266518 l 5.00557,-21.45764 -9.29344,-22.399326 z"
     style="fill:#ccac8d;stroke-width:4.57129"
     id="path28" />
  <path
     d="m 89.1421,27.38318 a 53.104688,53.104688 0 0 1 15.01212,20.973083 c 3.33704,11.199663 1.90623,25.023247 4.53015,26.691768 3.81245,2.381643 7.86262,-11.917356 9.29343,-13.343598 2.14394,-2.381643 9.53114,-8.580314 10.01113,-9.768849 0.47999,-1.188536 -14.77441,-17.873748 -21.6862,-21.210791 C 98.673241,26.894052 88.684971,26.418637 89.1421,27.38318 Z"
     style="fill:#56332b;stroke-width:4.57129"
     id="path29" />
  <path
     d="M 99.153231,33.325858 A 70.301884,70.301884 0 0 1 112.7391,72.88581 l 5.48555,-11.199663 A 75.718864,75.718864 0 0 0 99.153231,33.325858 Z"
     style="fill:#442823;stroke-width:4.57129"
     id="path30" />
  <path
     d="M 38.857899,27.38318 A 53.104688,53.104688 0 0 0 23.84578,48.356263 C 20.508737,59.555926 21.939551,73.37951 19.31563,75.048031 15.503173,77.429674 11.45301,63.130675 10.022196,61.704433 7.8782604,59.32279 0.49105405,53.124119 0.01106855,51.935584 -0.46891705,50.747048 14.785481,34.061836 21.697273,30.724793 29.326757,26.894052 39.315028,26.418637 38.857899,27.38318 Z"
     style="fill:#56332b;stroke-width:4.57129"
     id="path31" />
  <path
     d="M 28.846772,33.325858 A 70.301884,70.301884 0 0 0 15.260895,72.88581 L 9.7844883,61.667862 A 75.718864,75.718864 0 0 1 28.846772,33.325858 Z"
     style="fill:#442823;stroke-width:4.57129"
     id="path32" />
  <path
     d="m 21.221859,73.128089 a 18.824576,18.824576 0 0 0 2.619349,7.149499 c 1.668521,1.668521 0.457129,-1.430814 0.457129,-1.430814 0,0 -1.668521,-0.9554 -1.430814,-7.862621 0.237707,-6.90722 -1.645664,2.143936 -1.645664,2.143936 z"
     style="fill:#ccac8d;stroke-width:4.57129"
     id="path33" />
  <path
     d="m 107.01585,73.128089 a 18.824576,18.824576 0 0 1 -2.61935,7.149499 c -1.66852,1.668521 -0.45713,-1.430814 -0.45713,-1.430814 0,0 1.66852,-0.9554 1.43081,-7.862621 -0.26056,-6.674085 1.64567,2.143936 1.64567,2.143936 z"
     style="fill:#ccac8d;stroke-width:4.57129"
     id="path34" />
  <circle
     cx="54.350002"
     cy="69.077927"
     r="0.71312141"
     style="fill:#442823;stroke-width:4.57129"
     id="circle34" />
  <circle
     cx="49.582146"
     cy="74.083488"
     r="0.71312141"
     style="fill:#442823;stroke-width:4.57129"
     id="circle35" />
  <circle
     cx="48.151333"
     cy="69.077927"
     r="0.71312141"
     style="fill:#442823;stroke-width:4.57129"
     id="circle36" />
  <circle
     cx="73.892273"
     cy="69.077927"
     r="0.71312141"
     style="fill:#442823;stroke-width:4.57129"
     id="circle37" />
  <circle
     cx="78.417847"
     cy="74.083488"
     r="0.71312141"
     style="fill:#442823;stroke-width:4.57129"
     id="circle38" />
  <circle
     cx="79.848663"
     cy="69.077927"
     r="0.71312141"
     style="fill:#442823;stroke-width:4.57129"
     id="circle39" />
  <metadata
     id="metadata39">
    <rdf:RDF>
      <cc:Work
         rdf:about="">
        <dc:title>file_type_pug</dc:title>
      </cc:Work>
    </rdf:RDF>
  </metadata>
</svg>
