<svg xmlns="http://www.w3.org/2000/svg" xml:space="preserve" viewBox="0 0 128 128"><path fill="#1b1b1b" d="M119.05 96.784c22.807-37.924-4.818-99.431-55.33-93.182-45.64 5.641-46.374 53.68-6.153 65.09 34.807 9.886 7.19 31.964 7.997 46.666.812 14.7 30.26 20.032 53.485-18.574"/><path fill="#1b1b1b" d="M55.387 101.748a19.805 19.805 0 0 1-19.804 19.805 19.805 19.805 0 0 1-19.805-19.805 19.805 19.805 0 0 1 19.805-19.804 19.805 19.805 0 0 1 19.804 19.804zM25.917 59.88a12.958 12.958 0 0 1-12.959 12.958A12.958 12.958 0 0 1 0 59.879a12.958 12.958 0 0 1 12.958-12.958 12.958 12.958 0 0 1 12.959 12.958z"/><path fill="#bfbfbf" d="M119.912 95.246c22.808-37.924-4.818-99.431-55.33-93.182-45.64 5.641-46.374 53.68-6.153 65.09 34.807 9.886 7.19 31.964 7.998 46.666.811 14.7 30.26 20.032 53.485-18.574"/><path fill="#bfbfbf" d="M56.25 100.21a19.805 19.805 0 0 1-19.805 19.805 19.805 19.805 0 0 1-19.804-19.805 19.805 19.805 0 0 1 19.804-19.804A19.805 19.805 0 0 1 56.25 100.21zM26.779 58.341A12.958 12.958 0 0 1 13.82 71.3 12.958 12.958 0 0 1 .862 58.34a12.958 12.958 0 0 1 12.959-12.958 12.958 12.958 0 0 1 12.958 12.958z"/><path d="M72.28 119.625c-1.383-2.243.73-4.733 2.904-4.543 3.459.302 10.988-.042 16.93-3.41 14.844-8.415 37.69-48.905 26.2-74.443-5.144-11.431-7.649-14.705-12.946-20.297-1.08-1.14-.46-1.078.271-.693 2.865 1.503 7.899 7.326 13.062 16.804 8.723 16.013 8.271 35.05 5.027 46.991-2.26 8.307-10.045 27.101-21.446 35.226-11.425 8.144-24.795 12.815-30.003 4.365M61.936 67.077c-7.777-2.307-17.802-5.522-23.601-13.108-4.276-5.593-6.445-11.696-7-15.158-.197-1.235-.365-2.264-.008-2.55.163-.13 3.191 6.712 7.717 12.448 4.525 5.737 10.85 9.092 16.12 10.311 4.686 1.083 14.394 3.465 17.678 6.262 3.377 2.877 3.66 9.09 2.523 9.792-1.147.705-3.47-5.041-13.43-7.997M24.659 114.64c15.4 14.27 38.58-5.332 28.374-22.646-1.147-1.944-2.635-3.423-2.146-1.935 3.263 9.956.248 17.832-5.376 21.889-5.515 3.98-13.094 4.645-19.163 1.5-1.782-.925-2.52.422-1.69 1.192M6.693 68.193c.08.916 1.333 2.091 3.303 2.631 1.692.465 6.055 1.65 11.66-1.888 5.602-3.536 6.248-12.997 3.702-15.78-.789-1.41-1.815-2.435-.999-.186 2.061 5.68-1.943 10.993-5.397 13.453-3.451 2.46-7.83 1.296-9.619.751-1.786-.546-2.73.073-2.65 1.019"/><path fill="#fff" d="M77.972 120.72c-.15 1.78 1.894 2.129 4.646 1.717 3.528-.53 6.512-.926 10.572-2.96 5.503-2.759 11.072-6.703 15.149-12.025 12.17-15.877 16.478-34.662 15.815-37.363-.222 2.23-3.16 13.945-9.878 24.505-8.63 13.566-14.886 20.79-29.316 24.293-4.017.975-6.79-.51-6.988 1.833M45.966 58.983c1.643 1.395 5.01 3.252 11.637 5.426 8.003 2.624 11.9 4.899 13.532 5.988 1.729 1.159 2.824 3.743 2.932 1.447.114-2.297-1.302-4.271-4.461-5.32-2.138-.71-5.734-2.4-9.182-3.08a100.243 100.243 0 0 1-8.909-2.252c-1.694-.52-3.42-1.431-5.549-2.209m-9.225 58.587c1.961-.412 13.366-3.366 16.044-12.746.834-2.924.984-2.337.748-.752-1.203 8.088-8.847 14.053-15.352 14.275-1.32.136-3.053-.44-1.44-.777M13.924 69.464c.514-.463 3.115-.273 5.462-1.537 2.347-1.262 5.134-4.028 5.633-7.96.293-2.31.38-1.73.498-.472-.364 6.536-6.376 10.148-9.813 10.624-.928.128-2.56.05-1.78-.655"/><path fill="#999" d="M116.752 70.608C126.463 42.617 106.142.344 65.03 5.43c-37.147 4.592-37.747 43.69-5.01 52.98C97.105 64.025 74.775 92 71.608 106.107c-2.84 12.645 29.967 14.726 45.145-35.498M23.86 110.616c2.325.04 3.732.367 6.087 2.019 4.656 1.934 13.215.71 17.166-4.494 3.952-5.202 4.081-12.37 2.576-16.702-3.683-10.6-19.331-10.413-26.32-1.612-7.563 9.828-1.835 20.75.491 20.788M3.088 61.491c.463 1.461 1.648 3.592 4.15 3.946 3.34.474 4.023 1.984 7.968 1.2 3.944-.783 6.934-4.015 8.13-7.59 1.37-4.948-.68-7.501-3.767-9.783-3.087-2.28-9.877-2.034-13.93 1.659-2.88 2.624-3.68 7.014-2.55 10.568"/><path fill="#f3f3f3" d="M91.342 92.472c-10.046-1.241-24.502 21.44-10.871 18.784 13.63-2.655-13.631 2.656 0 0 6.551-.972 11.98-3.286 16.838-8.832 6.336-7.23 15.8-22.847 18.538-32.937 2.305-8.508 1.146-21.69-1.231-9.305-2.438 12.711-13.227 33.534-23.274 32.29m-52.38 18.9c2.588-.678 10.51-3.9 9.02-15.418-.752-5.833-3.933 7.24-9.826 9.196-8.926 2.962-7.923 8.508.807 6.221M16.206 64.763c3.03-.793 7.039-4.922 5.049-8.075-2.455-3.885-9.295-.56-9.526 3.765-.232 4.327 1.265 5.151 4.477 4.31"/></svg>
