<svg xmlns="http://www.w3.org/2000/svg" xml:space="preserve" viewBox="0 0 128 128"><path fill="#999" d="M14.223 111.205a12.955 12.955 0 0 1 5.192-1.113c1.649 0 2.701.404 3.297 1.247 1.262-.843 2.982-1.247 4.315-1.247 3.999 0 4.138 1.618 4.138 6.374v10.523c0 .472.07.472-1.929.472v-11.198c0-3.44-.07-4.485-2.349-4.485-1.017 0-2.07.235-3.192.977v14.234c0 .472.071.472-1.93.472v-11.198c0-3.305 0-4.519-2.385-4.519-1.017 0-2.034.202-3.227.776v14.469c0 .472.07.472-1.928.472v-16.256m26.369-1.113c-2.981 0-6.278.843-6.278 9.849 0 6.947 2.419 8.025 5.753 8.025 2.559 0 4.769-.843 4.769-1.247 0-.506-.07-1.282-.245-1.721-1.088.742-2.631 1.147-4.35 1.147-2.35 0-3.928-.674-3.964-5.902 1.544 0 5.474-.033 8.383-.608.247-1.113.351-2.732.351-4.148 0-3.372-1.368-5.395-4.42-5.395m-.175 1.686c2.106 0 2.666 1.382 2.701 4.08 0 .708-.035 1.55-.14 2.36-1.965.474-5.298.474-6.7.474.246-6.138 2.35-6.914 4.14-6.914m7.647-.202c1.648-1.08 3.156-1.484 4.7-1.484 1.718 0 2.525.472 2.525 1.046 0 .337-.106.91-.281 1.247-.491-.27-1.051-.505-1.965-.505-1.122 0-2.174.302-3.016 1.045v14.064c0 .473.035.473-1.963.473v-15.886m17.708-.371c0-.44-1.473-1.113-2.946-1.113-2.843 0-6.315.977-6.315 9.308 0 7.891 2.106 8.6 5.788 8.6 1.823 0 3.473-.978 3.473-1.517a3.2 3.2 0 0 0-.246-1.181c-.738.539-1.86 1.046-3.052 1.046-2.524 0-3.998-.708-3.998-6.847 0-6.78 2.42-7.723 4.524-7.723 1.192 0 1.859.337 2.526.776.176-.405.246-.978.246-1.35m13.436 15.684c-1.545.776-3.578 1.08-5.331 1.08-4.49 0-5.157-1.888-5.157-6.375v-10.556c0-.439-.035-.439 1.965-.439v11.198c0 3.373.491 4.52 3.121 4.52 1.017 0 2.42-.203 3.473-.81v-14.468c0-.438-.07-.438 1.929-.438v16.288m4-15.312c1.648-1.08 3.156-1.484 4.7-1.484 1.718 0 2.525.472 2.525 1.046 0 .337-.106.91-.281 1.247-.491-.27-1.052-.505-1.965-.505-1.121 0-2.173.302-3.015 1.045v14.064c0 .473.035.473-1.964.473v-15.886m11.729-.979c-1.545 0-2 0-2 .912v15.952c1.965 0 2 0 2-.472v-16.392m-2.07-5.935c0 1.113.351 1.517 1.051 1.55.807 0 1.194-.572 1.194-1.585.035-1.044-.246-1.516-1.053-1.516-.771 0-1.157.572-1.192 1.551m5.397 6.914c0-.371.07-.574.21-.675.667-.371 3.229-.81 6.14-.81 2.21 0 3.612 1.047 3.612 4.081v2.192c0 6.004-.175 10.49-.175 10.49-.807.437-2.316 1.112-4.772 1.112-2.525.034-5.05-.201-5.05-5.194 0-4.754 2.596-5.496 5.19-5.496.983 0 2.141.1 2.913.404v-3.136c0-2.192-1.121-2.665-2.456-2.665-1.788 0-4.277.337-5.365.843-.212-.37-.247-.944-.247-1.146m8.067 7.488c-.667-.237-1.613-.338-2.28-.338-1.999 0-3.823.405-3.823 4.115 0 3.473 1.508 3.508 3.296 3.508 1.123 0 2.246-.304 2.632-.709 0 0 .175-4.047.175-6.576m7.443 7.925c0 .472.035.472-1.93.472v-23.878c0-.912.386-.912 1.93-.912v24.318M57.966 76.75A15.418 15.418 0 0 1 42.55 92.168 15.418 15.418 0 0 1 27.13 76.75a15.418 15.418 0 0 1 15.42-15.418A15.418 15.418 0 0 1 57.966 76.75zM35.024 44.155a10.088 10.088 0 0 1-10.088 10.088 10.088 10.088 0 0 1-10.088-10.088 10.088 10.088 0 0 1 10.088-10.088 10.088 10.088 0 0 1 10.088 10.088zm72.503 28.73C125.283 43.361 103.777-4.52 64.453.344c-35.53 4.392-36.102 41.789-4.79 50.672C86.76 58.712 65.261 75.9 65.89 87.345c.632 11.443 23.558 15.595 41.638-14.46"/></svg>
