<svg xmlns="http://www.w3.org/2000/svg" xml:space="preserve" viewBox="0 0 128 128"><path fill="#1b1b1b" d="M106.855 74.083c17.756-29.524-3.75-77.407-43.074-72.542-35.53 4.392-36.101 41.79-4.789 50.673 27.097 7.695 5.598 24.883 6.226 36.328.631 11.444 23.557 15.595 41.637-14.46"/><path fill="#1b1b1b" d="M57.295 77.947a15.418 15.418 0 0 1-15.418 15.418A15.418 15.418 0 0 1 26.46 77.947 15.418 15.418 0 0 1 41.877 62.53a15.418 15.418 0 0 1 15.418 15.417zM34.352 45.353A10.088 10.088 0 0 1 24.265 55.44a10.088 10.088 0 0 1-10.088-10.088 10.088 10.088 0 0 1 10.087-10.088 10.088 10.088 0 0 1 10.088 10.088z"/><path fill="#bfbfbf" d="M107.527 72.885C125.283 43.361 103.777-4.52 64.453.344c-35.53 4.392-36.102 41.789-4.79 50.672C86.76 58.712 65.261 75.9 65.89 87.345c.632 11.443 23.558 15.595 41.638-14.46"/><path fill="#bfbfbf" d="M57.966 76.75A15.418 15.418 0 0 1 42.55 92.168 15.418 15.418 0 0 1 27.13 76.75 15.418 15.418 0 0 1 42.55 61.332 15.418 15.418 0 0 1 57.966 76.75zM35.024 44.155a10.088 10.088 0 0 1-10.088 10.088 10.088 10.088 0 0 1-10.088-10.088 10.088 10.088 0 0 1 10.088-10.088 10.088 10.088 0 0 1 10.088 10.088z"/><path d="M70.445 91.864c-1.076-1.746.57-3.685 2.262-3.537 2.692.235 8.554-.032 13.18-2.654 11.555-6.551 29.34-38.072 20.396-57.954-4.004-8.899-5.955-11.447-10.079-15.8-.84-.888-.358-.84.212-.54 2.23 1.17 6.148 5.704 10.168 13.082 6.791 12.466 6.44 27.285 3.914 36.582-1.76 6.467-7.82 21.098-16.696 27.423-8.894 6.34-19.302 9.976-23.357 3.398m-8.052-40.908c-6.054-1.796-13.859-4.3-18.373-10.204-3.33-4.355-5.018-9.106-5.45-11.8-.152-.963-.283-1.764-.006-1.986.127-.102 2.485 5.226 6.008 9.69 3.523 4.467 8.447 7.079 12.549 8.028 3.648.843 11.206 2.697 13.763 4.874 2.629 2.24 2.848 7.077 1.963 7.624-.892.549-2.7-3.925-10.454-6.226m-29.02 37.026c11.988 11.109 30.034-4.15 22.088-17.63-.892-1.513-2.05-2.664-1.67-1.505 2.54 7.75.193 13.881-4.186 17.04-4.293 3.098-10.193 3.616-14.918 1.167-1.387-.72-1.962.33-1.315.928M19.386 51.824c.063.714 1.038 1.629 2.571 2.05 1.318.36 4.714 1.283 9.077-1.47 4.362-2.753 4.865-10.119 2.882-12.285-.613-1.098-1.412-1.896-.777-.145 1.605 4.421-1.513 8.558-4.202 10.473-2.686 1.915-6.096 1.009-7.488.585-1.39-.425-2.125.056-2.063.792"/><path fill="#fff" d="M74.877 92.716c-.117 1.386 1.475 1.658 3.617 1.337 2.747-.412 5.07-.72 8.23-2.305 4.284-2.147 8.62-5.218 11.793-9.36 9.475-12.36 12.829-26.985 12.312-29.088-.173 1.737-2.46 10.857-7.69 19.077-6.717 10.561-11.588 16.185-22.822 18.913-3.127.759-5.286-.398-5.44 1.426M49.96 44.655c1.279 1.086 3.9 2.531 9.059 4.224 6.23 2.042 9.264 3.814 10.534 4.662 1.347.902 2.2 2.913 2.283 1.126.09-1.788-1.013-3.325-3.473-4.142-1.664-.552-4.464-1.867-7.148-2.397a78.039 78.039 0 0 1-6.935-1.753c-1.319-.405-2.663-1.115-4.32-1.72m-7.182 45.61c1.527-.322 10.405-2.621 12.49-9.923.65-2.277.766-1.82.583-.586-.937 6.296-6.888 10.94-11.952 11.113-1.028.106-2.377-.342-1.12-.605m-17.764-37.45c.4-.36 2.425-.213 4.253-1.196 1.826-.982 3.997-3.136 4.384-6.197.229-1.798.297-1.346.388-.367-.283 5.088-4.963 7.9-7.639 8.27-.723.1-1.993.039-1.386-.51"/><path fill="#999" d="M105.067 53.705c7.56-21.79-8.26-54.7-40.266-50.74-28.919 3.574-29.386 34.012-3.9 41.244 28.87 4.37 11.486 26.148 9.02 37.13-2.21 9.845 23.33 11.465 35.146-27.634M32.752 84.85c1.81.032 2.905.286 4.738 1.572 3.625 1.506 10.288.553 13.363-3.498 3.077-4.05 3.178-9.63 2.006-13.003-2.867-8.251-15.05-8.106-20.49-1.255-5.888 7.652-1.429 16.154.383 16.184M16.58 46.608c.36 1.137 1.282 2.795 3.23 3.072 2.6.368 3.132 1.544 6.203.934s5.398-3.126 6.33-5.91c1.066-3.851-.53-5.839-2.934-7.615-2.403-1.775-7.688-1.584-10.843 1.291-2.242 2.043-2.865 5.46-1.986 8.228"/><path fill="#f3f3f3" d="M85.285 70.726c-7.82-.967-19.074 16.69-8.463 14.623 10.61-2.067-10.611 2.068 0 0 5.1-.757 9.327-2.558 13.109-6.876 4.932-5.628 12.3-17.786 14.431-25.64 1.794-6.624.893-16.886-.958-7.245-1.898 9.896-10.297 26.106-18.119 25.138M44.51 85.439c2.014-.527 8.18-3.036 7.022-12.002-.586-4.541-3.063 5.636-7.65 7.158-6.949 2.306-6.168 6.624.628 4.844M26.792 49.155c2.36-.617 5.48-3.832 3.931-6.287-1.91-3.024-7.236-.436-7.416 2.931-.18 3.369.985 4.01 3.485 3.356"/><path fill="#010101" d="M14.223 111.205a12.955 12.955 0 0 1 5.192-1.113c1.649 0 2.701.404 3.297 1.247 1.262-.843 2.982-1.247 4.315-1.247 3.999 0 4.138 1.618 4.138 6.374v10.523c0 .472.07.472-1.929.472v-11.198c0-3.44-.07-4.485-2.349-4.485-1.017 0-2.07.235-3.192.977v14.234c0 .472.071.472-1.93.472v-11.198c0-3.305 0-4.519-2.385-4.519-1.017 0-2.034.202-3.227.776v14.469c0 .472.07.472-1.928.472v-16.256m26.369-1.113c-2.981 0-6.278.843-6.278 9.849 0 6.947 2.419 8.025 5.753 8.025 2.559 0 4.769-.843 4.769-1.247 0-.506-.07-1.282-.245-1.721-1.088.742-2.631 1.147-4.35 1.147-2.35 0-3.928-.674-3.964-5.902 1.544 0 5.474-.033 8.383-.608.247-1.113.351-2.732.351-4.148 0-3.372-1.368-5.395-4.42-5.395m-.175 1.686c2.106 0 2.666 1.382 2.701 4.08 0 .708-.035 1.55-.14 2.36-1.965.474-5.298.474-6.7.474.246-6.138 2.35-6.914 4.14-6.914m7.647-.202c1.648-1.08 3.156-1.484 4.7-1.484 1.718 0 2.525.472 2.525 1.046 0 .337-.106.91-.281 1.247-.491-.27-1.051-.505-1.965-.505-1.122 0-2.174.302-3.016 1.045v14.064c0 .473.035.473-1.963.473v-15.886m17.708-.371c0-.44-1.473-1.113-2.946-1.113-2.843 0-6.315.977-6.315 9.308 0 7.891 2.106 8.6 5.788 8.6 1.823 0 3.473-.978 3.473-1.517 0-.304-.07-.777-.246-1.181-.738.539-1.86 1.046-3.052 1.046-2.524 0-3.998-.708-3.998-6.847 0-6.78 2.42-7.723 4.524-7.723 1.192 0 1.859.337 2.526.776.176-.405.246-.978.246-1.35m13.436 15.684c-1.545.776-3.578 1.08-5.331 1.08-4.49 0-5.157-1.888-5.157-6.375v-10.556c0-.439-.035-.439 1.965-.439v11.198c0 3.373.491 4.52 3.121 4.52 1.017 0 2.42-.203 3.473-.81v-14.468c0-.438-.07-.438 1.929-.438v16.288m4-15.312c1.648-1.08 3.156-1.484 4.7-1.484 1.718 0 2.525.472 2.525 1.046 0 .337-.106.91-.281 1.247-.491-.27-1.052-.505-1.965-.505-1.121 0-2.173.302-3.015 1.045v14.064c0 .473.035.473-1.964.473v-15.886m11.729-.979c-1.545 0-2 0-2 .912v15.952c1.965 0 2 0 2-.472v-16.392m-2.07-5.935c0 1.113.351 1.517 1.051 1.55.807 0 1.194-.572 1.194-1.585.035-1.044-.246-1.516-1.053-1.516-.771 0-1.157.572-1.192 1.551m5.397 6.914c0-.371.07-.574.21-.675.667-.371 3.229-.81 6.14-.81 2.21 0 3.612 1.047 3.612 4.081v2.192c0 6.004-.175 10.49-.175 10.49-.807.437-2.316 1.112-4.772 1.112-2.525.034-5.05-.201-5.05-5.194 0-4.754 2.596-5.496 5.19-5.496.983 0 2.141.1 2.913.404v-3.136c0-2.192-1.121-2.665-2.456-2.665-1.788 0-4.277.337-5.365.843-.212-.37-.247-.944-.247-1.146m8.067 7.488c-.667-.237-1.613-.338-2.28-.338-1.999 0-3.823.405-3.823 4.115 0 3.473 1.508 3.508 3.296 3.508 1.123 0 2.246-.304 2.632-.709 0 0 .175-4.047.175-6.576m7.443 7.925c0 .472.035.472-1.93.472v-23.878c0-.912.386-.912 1.93-.912v24.318"/></svg>
