<svg xmlns="http://www.w3.org/2000/svg" viewBox="0 0 128 128"><path fill="#251b3f" d="M21.305 80.8c0 4.25-2.23 6.063-6.82 6.063h-6.82c-4.59 0-6.821-1.77-6.821-6.062V64.547c0-4.254 2.23-6.063 6.82-6.063h6.863c4.547 0 6.82 1.809 6.82 6.063v1.18a.72.72 0 0 1-.503.671l-2.824.758c-.418.13-.883-.207-.883-.672v-1.18c0-2.062-.672-2.945-3.157-2.945H8.21c-2.483 0-3.198.883-3.198 2.946v14.738c0 2.062.715 2.945 3.199 2.945h5.726c2.485 0 3.157-.883 3.157-2.945v-1.39c0-.462.465-.801.886-.673l2.82.84a.685.685 0 0 1 .505.676Zm5.98 2.15h7.2V62.315h-6.696a.665.665 0 0 1-.672-.675v-2.485c0-.379.293-.672.672-.672h17.602c.379 0 .672.293.672.672v2.485a.665.665 0 0 1-.672.675h-6.739V82.95h7.2c.378 0 .675.293.675.672v2.527a.665.665 0 0 1-.675.672H27.285a.665.665 0 0 1-.676-.672v-2.527c-.039-.336.297-.672.676-.672Zm74.106-2.15c0 4.25-2.235 6.063-6.82 6.063h-6.864c-4.55 0-6.824-1.77-6.824-6.062V64.547c0-4.254 2.234-6.063 6.824-6.063h6.863c4.547 0 6.82 1.809 6.82 6.063v1.18c0 .293-.21.59-.507.671l-2.82.758c-.422.13-.883-.207-.883-.672v-1.18c0-2.062-.676-2.945-3.16-2.945h-5.727c-2.484 0-3.2.883-3.2 2.946v14.738c0 2.062.716 2.945 3.2 2.945h5.727c2.484 0 3.16-.883 3.16-2.945v-1.39c0-.462.46-.801.882-.673l2.82.84a.684.684 0 0 1 .509.676Zm25.765 0c0 4.25-2.105 6.063-6.691 6.063h-13.18a.665.665 0 0 1-.676-.672V59.2c0-.379.297-.672.676-.672h13.18c4.547 0 6.691 1.766 6.691 6.063Zm-4.207-15.495c0-2.063-.676-2.946-3.16-2.946h-9.012v20.63h9.012c2.484 0 3.16-.884 3.16-2.946Zm0 0"/><path fill="#d72d20" d="M69.473 42.191c-.25-.086-.504 0-.63.207L55.41 66.906c-.46.883-.336 1.938.336 2.653l6.445 6.82 7.579-33.64c.082-.212-.086-.466-.297-.548Zm0 0"/><path fill="#f8911e" d="m71.117 72.254-6.445-6.824-7.578 33.644c-.043.254.086.504.297.59.039.043.125.043.168.043a.469.469 0 0 0 .421-.254L71.41 74.95c.547-.886.422-1.98-.293-2.695Zm0 0"/><path fill="#251b3f" d="M41.094 35.578c.297 0 .508-.043.715-.082.21-.043.421-.129.59-.168V34.02h-.84a.605.605 0 0 1-.297-.083c-.082-.085-.125-.167-.125-.253V32.59h3.074v3.62c-.211.169-.465.294-.676.423a5.31 5.31 0 0 1-.758.293c-.25.086-.547.125-.84.168-.296.043-.632.043-.968.043a4.884 4.884 0 0 1-1.77-.336 4.074 4.074 0 0 1-1.39-.926 4.036 4.036 0 0 1-.926-1.39 4.884 4.884 0 0 1-.336-1.77c0-.63.125-1.219.336-1.766.21-.55.508-1.012.926-1.39.382-.38.886-.676 1.433-.926a5.237 5.237 0 0 1 1.895-.34c.379 0 .672.043 1.011.086.293.043.59.125.883.254.254.082.504.21.715.379.211.125.422.293.59.46l-.59.887a.5.5 0 0 1-.21.211c-.083.04-.169.082-.25.082a.684.684 0 0 1-.38-.125c-.168-.086-.297-.168-.465-.254-.125-.082-.293-.125-.421-.168a1.467 1.467 0 0 0-.461-.085c-.168 0-.336-.04-.547-.04a2.5 2.5 0 0 0-1.012.211 1.937 1.937 0 0 0-.758.547c-.21.25-.379.547-.504.883-.129.336-.168.715-.168 1.137 0 .465.04.844.168 1.222.125.336.293.672.504.883.211.254.504.422.801.547.336.125.672.168 1.05.168Zm8.8 1.434h-2.019v-8.59h2.02Zm9.895-8.59v1.598h-2.398v7.03h-1.98v-7.03h-2.442v-1.598Zm4.969 7.031h3.199v1.598h-5.18v-8.63h1.98Zm14.61 1.559h-1.56c-.167 0-.335-.043-.417-.13-.086-.081-.211-.167-.254-.292l-.504-1.516h-3.285l-.504 1.516a.775.775 0 0 1-.211.293.71.71 0 0 1-.422.129h-1.559l3.328-8.59h2.063Zm-5.516-3.285h2.359l-.8-2.36c-.044-.168-.126-.336-.169-.547-.086-.21-.125-.422-.21-.672-.044.25-.126.461-.212.672-.082.211-.125.38-.168.547Zm8.421 3.285v-8.59h3.157c.59 0 1.097.043 1.52.168.417.125.757.254 1.007.46.254.212.465.466.59.72.125.25.168.59.168.968 0 .211-.043.38-.082.547a1.459 1.459 0 0 1-.254.504 1.48 1.48 0 0 1-.465.422c-.207.125-.418.254-.672.336.547.125.969.379 1.262.676.254.293.422.715.422 1.175a2.5 2.5 0 0 1-.211 1.012 2.32 2.32 0 0 1-.63.844c-.253.25-.632.418-1.01.547-.38.125-.845.21-1.391.21Zm1.98-4.969h1.052c.21 0 .422 0 .59-.043.168-.043.335-.086.464-.168a.781.781 0 0 0 .293-.336c.086-.168.086-.297.086-.508 0-.21-.043-.379-.086-.504a.643.643 0 0 0-.254-.336 1.146 1.146 0 0 0-.418-.168c-.171-.043-.34-.043-.59-.043h-1.18v2.106Zm0 1.348v2.144h1.388c.254 0 .464-.039.632-.082.168-.086.297-.168.38-.254.085-.125.167-.21.21-.379.043-.125.043-.25.043-.422 0-.168 0-.293-.043-.418a.912.912 0 0 0-.21-.34 1.148 1.148 0 0 0-.38-.21 2.711 2.711 0 0 0-.632-.082h-1.387Zm0 0"/></svg>
