<?xml version="1.0" encoding="UTF-8" standalone="no"?>
<svg
   width="32"
   height="32"
   viewBox="0 0 32 32"
   fill="none"
   version="1.1"
   id="svg13"
   sodipodi:docname="bitbucket-original-wordmark.svg"
   inkscape:version="1.1.2 (b8e25be8, 2022-02-05)"
   xmlns:inkscape="http://www.inkscape.org/namespaces/inkscape"
   xmlns:sodipodi="http://sodipodi.sourceforge.net/DTD/sodipodi-0.dtd"
   xmlns="http://www.w3.org/2000/svg"
   xmlns:svg="http://www.w3.org/2000/svg">
  <sodipodi:namedview
     id="namedview15"
     pagecolor="#ffffff"
     bordercolor="#666666"
     borderopacity="1.0"
     inkscape:pageshadow="2"
     inkscape:pageopacity="0.0"
     inkscape:pagecheckerboard="0"
     showgrid="false"
     inkscape:zoom="15.674954"
     inkscape:cx="15.980908"
     inkscape:cy="16.459378"
     inkscape:window-width="2560"
     inkscape:window-height="1302"
     inkscape:window-x="0"
     inkscape:window-y="25"
     inkscape:window-maximized="1"
     inkscape:current-layer="svg13" />
  <path
     d="m 4.834236,2.8309347 c -0.47955,0 -0.83921,0.43959 -0.75929,0.87918 l 3.23699,19.8215203 c 0.07992,0.5196 0.51952,0.8792 1.03903,0.8792 h 15.66543 c 0.3597,0 0.6794,-0.2797 0.7593,-0.6394 l 3.2769,-20.0213503 c 0.08,-0.47956 -0.2797,-0.87918 -0.7592,-0.87918 z m 13.74726,14.3067003 h -4.9954 l -1.3188,-7.0734 h 7.553 z"
     fill="#2684ff"
     id="path2" />
  <path
     d="m 26.973596,10.064235 h -7.1933 l -1.1989,7.0734 h -4.9954 l -5.87449,6.9935 c 0,0 0.27973,0.2398 0.67936,0.2398 h 15.66543 c 0.3597,0 0.6794,-0.2798 0.7593,-0.6395 z"
     fill="url(#paint0_linear)"
     id="path4"
     style="fill:url(#paint0_linear)" />
  <defs
     id="defs11">
    <linearGradient
       id="paint0_linear"
       x1="28.5925"
       y1="14.2265"
       x2="16.672"
       y2="23.5316"
       gradientUnits="userSpaceOnUse"
       gradientTransform="translate(0.06379604,-2.1690653)">
      <stop
         offset="0.176"
         stop-color="#0052CC"
         id="stop6" />
      <stop
         offset="1"
         stop-color="#2684FF"
         id="stop8" />
    </linearGradient>
  </defs>
  <g
     id="Bitbucket"
     transform="matrix(0.24042269,0,0,0.24042269,-7.2753116,24.30169)">
    <path
       d="m 33.9263,5.59874 h 8.6972 c 4.2408,0 6.2893,2.01579 6.2893,5.24806 0,2.4328 -1.1501,3.9273 -3.4861,4.4486 3.0548,0.4866 4.6002,2.1201 4.6002,4.97 0,3.1975 -2.2282,5.4218 -6.9003,5.4218 h -9.2003 z m 2.8751,8.58456 h 5.4627 c 2.6954,0 3.8095,-1.1817 3.8095,-3.128 0,-1.9463 -1.186,-2.88468 -3.8095,-2.88468 h -5.4627 z m 0,2.4676 v 6.2559 h 6.469 c 2.7313,0 3.9533,-0.9384 3.9533,-2.9542 0,-2.1548 -1.186,-3.3017 -4.0252,-3.3017 z"
       fill="#253858"
       id="path107" />
    <path
       d="m 54.699,4.52133 c 1.1141,0 1.9047,0.66034 1.9047,1.84202 0,1.14692 -0.7906,1.84202 -1.9047,1.84202 -1.1142,0 -1.9048,-0.66035 -1.9048,-1.84202 0,-1.18168 0.7906,-1.84202 1.9048,-1.84202 z m -1.4017,5.87357 h 2.7314 v 15.2923 h -2.7314 z"
       fill="#253858"
       id="path109" />
    <path
       d="m 66.3792,23.2196 c 0.6469,0 1.2219,-0.139 1.725,-0.2085 v 2.5371 c -0.4672,0.139 -1.0063,0.2433 -1.8329,0.2433 -3.3782,0 -5.0314,-1.9116 -5.0314,-4.7615 v -8.2022 h -2.5517 v -2.4329 h 2.5517 V 7.16272 h 2.6595 v 3.23218 h 4.2048 v 2.4329 h -4.2048 v 8.098 c 0,1.3554 0.8266,2.2938 2.4798,2.2938 z"
       fill="#253858"
       id="path111" />
    <path
       d="m 74.2855,22.9763 v 2.6761 H 71.5542 V 4 h 2.7313 v 9.1406 c 1.0063,-2.0158 2.9111,-3.0585 5.3549,-3.0585 4.2049,0 6.3253,3.4408 6.3253,7.959 0,4.3096 -2.2282,7.9589 -6.6487,7.9589 -2.3001,0 -4.0611,-1.0079 -5.0315,-3.0237 z m 4.6362,-10.4265 c -2.4439,0 -4.6002,1.4944 -4.6002,4.9004 v 1.2165 c 0,3.406 1.9766,4.9004 4.3126,4.9004 3.0548,0 4.6362,-1.9462 4.6362,-5.4913 -0.036,-3.7188 -1.5454,-5.526 -4.3486,-5.526 z"
       fill="#253858"
       id="path113" />
    <path
       d="m 88.8049,10.3949 h 2.7313 v 9.2449 c 0,2.7457 1.1501,3.9621 3.7377,3.9621 2.5157,0 4.2767,-1.6335 4.2767,-4.7267 v -8.4803 h 2.7314 V 25.6872 H 99.5506 V 23.1848 C 98.5443,24.9921 96.6755,26 94.5551,26 90.9253,26 88.8408,23.5671 88.8408,19.3618 v -8.9669 z"
       fill="#253858"
       id="path115" />
    <path
       d="m 117.52,25.2701 c -0.934,0.4866 -2.408,0.6951 -3.845,0.6951 -5.643,0 -8.266,-3.3017 -8.266,-7.9936 0,-4.6225 2.623,-7.9242 8.266,-7.9242 1.437,0 2.515,0.1738 3.773,0.7298 v 2.4329 c -1.006,-0.4518 -2.084,-0.7298 -3.558,-0.7298 -4.097,0 -5.786,2.5023 -5.786,5.4913 0,2.9889 1.725,5.4913 5.858,5.4913 1.618,0 2.624,-0.2086 3.594,-0.5561 v 2.3633 z"
       fill="#253858"
       id="path117" />
    <path
       d="M 120.611,25.6872 V 4 h 2.731 v 13.5545 l 6.793,-7.1596 h 3.558 l -7.44,7.5072 7.763,7.7851 h -3.702 l -6.972,-7.1596 v 7.1596 z"
       fill="#253858"
       id="path119" />
    <path
       d="m 143.001,26 c -5.93,0 -8.518,-3.3017 -8.518,-7.9937 0,-4.6224 2.66,-7.9242 7.476,-7.9242 4.887,0 6.828,3.267 6.828,7.9242 v 1.1817 h -11.536 c 0.395,2.6066 2.12,4.2749 5.858,4.2749 1.833,0 3.378,-0.3476 4.816,-0.8341 v 2.4328 C 146.631,25.7567 144.618,26 143.001,26 Z m -5.786,-9.0711 h 8.841 c -0.144,-2.8499 -1.474,-4.4486 -4.205,-4.4486 -2.875,0 -4.349,1.8072 -4.636,4.4486 z"
       fill="#253858"
       id="path121" />
    <path
       d="m 158.275,23.2196 c 0.647,0 1.222,-0.139 1.725,-0.2085 v 2.5371 c -0.467,0.139 -1.006,0.2433 -1.833,0.2433 -3.378,0 -5.031,-1.9116 -5.031,-4.7615 v -8.2022 h -2.552 v -2.4329 h 2.552 V 7.16272 h 2.659 V 10.3949 H 160 v 2.4329 h -4.205 v 8.098 c 0,1.3554 0.827,2.2938 2.48,2.2938 z"
       fill="#253858"
       id="path123" />
  </g>
</svg>
