<?xml version="1.0" encoding="UTF-8"?>
<svg xmlns="http://www.w3.org/2000/svg" xmlns:xlink="http://www.w3.org/1999/xlink" width="128px" height="128px" viewBox="0 0 128 128" version="1.1">
<defs>
<linearGradient id="linear0" gradientUnits="userSpaceOnUse" x1="28.5925" y1="14.2265" x2="16.672" y2="23.5316" gradientTransform="matrix(2.235254,0,0,2.235254,28.396679,11.573501)">
<stop offset="0.176" style="stop-color:rgb(0%,32.156863%,80%);stop-opacity:1;"/>
<stop offset="1" style="stop-color:rgb(14.901961%,51.764706%,100%);stop-opacity:1;"/>
</linearGradient>
<clipPath id="clip1">
  <path d="M 0 70.898438 L 121.875 70.898438 L 121.875 100.144531 L 0 100.144531 Z M 0 70.898438 "/>
</clipPath>
<clipPath id="clip2">
  <path d="M 113 77 L 121.875 77 L 121.875 95 L 113 95 Z M 113 77 "/>
</clipPath>
</defs>
<g id="surface1">
<path style=" stroke:none;fill-rule:nonzero;fill:rgb(14.901961%,51.764706%,100%);fill-opacity:1;" d="M 39.058594 22.75 C 37.988281 22.75 37.183594 23.730469 37.363281 24.714844 L 44.597656 69.019531 C 44.777344 70.183594 45.757812 70.984375 46.921875 70.984375 L 81.9375 70.984375 C 82.742188 70.984375 83.457031 70.359375 83.632812 69.558594 L 90.957031 24.804688 C 91.136719 23.730469 90.332031 22.839844 89.261719 22.839844 Z M 69.789062 54.726562 L 58.621094 54.726562 L 55.675781 38.917969 L 72.558594 38.917969 Z M 69.789062 54.726562 "/>
<path style=" stroke:none;fill-rule:nonzero;fill:url(#linear0);" d="M 88.546875 38.917969 L 72.46875 38.917969 L 69.789062 54.726562 L 58.621094 54.726562 L 45.492188 70.359375 C 45.492188 70.359375 46.117188 70.898438 47.007812 70.898438 L 82.027344 70.898438 C 82.828125 70.898438 83.542969 70.269531 83.722656 69.46875 Z M 88.546875 38.917969 "/>
<g clip-path="url(#clip1)" clip-rule="nonzero">
<path style=" stroke:none;fill-rule:nonzero;fill:rgb(100%,100%,100%);fill-opacity:0.0117647;" d="M -24.363281 70.898438 L 121.875 70.898438 L 121.875 100.144531 L -24.363281 100.144531 Z M -24.363281 70.898438 "/>
</g>
<path style=" stroke:none;fill-rule:nonzero;fill:rgb(14.509804%,21.960784%,34.509804%);fill-opacity:1;" d="M 6.644531 76.015625 L 14.59375 76.015625 C 18.46875 76.015625 20.34375 77.855469 20.34375 80.808594 C 20.34375 83.035156 19.292969 84.398438 17.15625 84.875 C 19.949219 85.320312 21.359375 86.8125 21.359375 89.417969 C 21.359375 92.339844 19.324219 94.375 15.054688 94.375 L 6.644531 94.375 Z M 9.273438 83.859375 L 14.265625 83.859375 C 16.730469 83.859375 17.746094 82.78125 17.746094 81 C 17.746094 79.222656 16.664062 78.363281 14.265625 78.363281 L 9.273438 78.363281 Z M 9.273438 86.117188 L 9.273438 91.832031 L 15.183594 91.832031 C 17.679688 91.832031 18.796875 90.976562 18.796875 89.132812 C 18.796875 87.164062 17.714844 86.117188 15.121094 86.117188 Z M 9.273438 86.117188 "/>
<path style=" stroke:none;fill-rule:nonzero;fill:rgb(14.509804%,21.960784%,34.509804%);fill-opacity:1;" d="M 25.628906 75.027344 C 26.648438 75.027344 27.371094 75.632812 27.371094 76.710938 C 27.371094 77.761719 26.648438 78.394531 25.628906 78.394531 C 24.613281 78.394531 23.890625 77.792969 23.890625 76.710938 C 23.890625 75.632812 24.613281 75.027344 25.628906 75.027344 Z M 24.351562 80.398438 L 26.847656 80.398438 L 26.847656 94.375 L 24.351562 94.375 Z M 24.351562 80.398438 "/>
<path style=" stroke:none;fill-rule:nonzero;fill:rgb(14.509804%,21.960784%,34.509804%);fill-opacity:1;" d="M 36.304688 92.117188 C 36.898438 92.117188 37.421875 91.992188 37.882812 91.929688 L 37.882812 94.246094 C 37.457031 94.375 36.964844 94.46875 36.207031 94.46875 C 33.121094 94.46875 31.609375 92.722656 31.609375 90.117188 L 31.609375 82.621094 L 29.277344 82.621094 L 29.277344 80.398438 L 31.609375 80.398438 L 31.609375 77.441406 L 34.039062 77.441406 L 34.039062 80.398438 L 37.882812 80.398438 L 37.882812 82.621094 L 34.039062 82.621094 L 34.039062 90.023438 C 34.039062 91.261719 34.796875 92.117188 36.304688 92.117188 Z M 36.304688 92.117188 "/>
<path style=" stroke:none;fill-rule:nonzero;fill:rgb(14.509804%,21.960784%,34.509804%);fill-opacity:1;" d="M 43.53125 91.898438 L 43.53125 94.34375 L 41.035156 94.34375 L 41.035156 74.550781 L 43.53125 74.550781 L 43.53125 82.90625 C 44.453125 81.066406 46.191406 80.113281 48.425781 80.113281 C 52.269531 80.113281 54.207031 83.257812 54.207031 87.386719 C 54.207031 91.324219 52.171875 94.660156 48.132812 94.660156 C 46.027344 94.660156 44.417969 93.738281 43.53125 91.898438 Z M 47.769531 82.367188 C 45.535156 82.367188 43.566406 83.734375 43.566406 86.847656 L 43.566406 87.957031 C 43.566406 91.070312 45.371094 92.4375 47.507812 92.4375 C 50.300781 92.4375 51.746094 90.65625 51.746094 87.417969 C 51.710938 84.019531 50.332031 82.367188 47.769531 82.367188 Z M 47.769531 82.367188 "/>
<path style=" stroke:none;fill-rule:nonzero;fill:rgb(14.509804%,21.960784%,34.509804%);fill-opacity:1;" d="M 56.804688 80.398438 L 59.300781 80.398438 L 59.300781 88.847656 C 59.300781 91.355469 60.351562 92.46875 62.714844 92.46875 C 65.015625 92.46875 66.625 90.976562 66.625 88.148438 L 66.625 80.398438 L 69.121094 80.398438 L 69.121094 94.375 L 66.625 94.375 L 66.625 92.085938 C 65.703125 93.738281 63.996094 94.660156 62.058594 94.660156 C 58.742188 94.660156 56.835938 92.4375 56.835938 88.59375 L 56.835938 80.398438 Z M 56.804688 80.398438 "/>
<path style=" stroke:none;fill-rule:nonzero;fill:rgb(14.509804%,21.960784%,34.509804%);fill-opacity:1;" d="M 83.046875 93.992188 C 82.195312 94.4375 80.847656 94.628906 79.535156 94.628906 C 74.375 94.628906 71.980469 91.609375 71.980469 87.324219 C 71.980469 83.097656 74.375 80.078125 79.535156 80.078125 C 80.847656 80.078125 81.832031 80.238281 82.984375 80.746094 L 82.984375 82.96875 C 82.0625 82.558594 81.078125 82.304688 79.730469 82.304688 C 75.984375 82.304688 74.441406 84.589844 74.441406 87.324219 C 74.441406 90.054688 76.019531 92.339844 79.796875 92.339844 C 81.273438 92.339844 82.195312 92.152344 83.082031 91.832031 L 83.082031 93.992188 Z M 83.046875 93.992188 "/>
<path style=" stroke:none;fill-rule:nonzero;fill:rgb(14.509804%,21.960784%,34.509804%);fill-opacity:1;" d="M 85.875 94.375 L 85.875 74.550781 L 88.371094 74.550781 L 88.371094 86.941406 L 94.578125 80.398438 L 97.832031 80.398438 L 91.03125 87.257812 L 98.125 94.375 L 94.742188 94.375 L 88.371094 87.832031 L 88.371094 94.375 Z M 85.875 94.375 "/>
<path style=" stroke:none;fill-rule:nonzero;fill:rgb(14.509804%,21.960784%,34.509804%);fill-opacity:1;" d="M 106.335938 94.660156 C 100.917969 94.660156 98.550781 91.640625 98.550781 87.355469 C 98.550781 83.128906 100.984375 80.113281 105.386719 80.113281 C 109.851562 80.113281 111.625 83.097656 111.625 87.355469 L 111.625 88.433594 L 101.082031 88.433594 C 101.441406 90.816406 103.019531 92.339844 106.4375 92.339844 C 108.113281 92.339844 109.523438 92.023438 110.839844 91.578125 L 110.839844 93.800781 C 109.65625 94.4375 107.816406 94.660156 106.335938 94.660156 Z M 101.050781 86.371094 L 109.128906 86.371094 C 109 83.765625 107.78125 82.304688 105.285156 82.304688 C 102.660156 82.304688 101.3125 83.957031 101.050781 86.371094 Z M 101.050781 86.371094 "/>
<g clip-path="url(#clip2)" clip-rule="nonzero">
<path style=" stroke:none;fill-rule:nonzero;fill:rgb(14.509804%,21.960784%,34.509804%);fill-opacity:1;" d="M 120.296875 92.117188 C 120.890625 92.117188 121.414062 91.992188 121.875 91.929688 L 121.875 94.246094 C 121.449219 94.375 120.957031 94.46875 120.199219 94.46875 C 117.113281 94.46875 115.601562 92.722656 115.601562 90.117188 L 115.601562 82.621094 L 113.269531 82.621094 L 113.269531 80.398438 L 115.601562 80.398438 L 115.601562 77.441406 L 118.03125 77.441406 L 118.03125 80.398438 L 121.875 80.398438 L 121.875 82.621094 L 118.03125 82.621094 L 118.03125 90.023438 C 118.03125 91.261719 118.789062 92.117188 120.296875 92.117188 Z M 120.296875 92.117188 "/>
</g>
</g>
</svg>
