<?xml version="1.0" encoding="UTF-8"?>
<svg xmlns="http://www.w3.org/2000/svg" xmlns:xlink="http://www.w3.org/1999/xlink" width="128px" height="128px" viewBox="0 0 128 128" version="1.1">
<defs>
<linearGradient id="linear0" gradientUnits="userSpaceOnUse" x1="28.5925" y1="14.2265" x2="16.672" y2="23.5316" gradientTransform="matrix(3.914912,0,0,3.914912,-0.461816,3.175648)">
<stop offset="0.176" style="stop-color:rgb(0%,32.156863%,80%);stop-opacity:1;"/>
<stop offset="1" style="stop-color:rgb(14.901961%,51.764706%,100%);stop-opacity:1;"/>
</linearGradient>
</defs>
<g id="surface1">
<path style=" stroke:none;fill-rule:nonzero;fill:rgb(14.901961%,51.764706%,100%);fill-opacity:1;" d="M 18.214844 22.75 C 16.339844 22.75 14.925781 24.46875 15.242188 26.191406 L 27.914062 103.792969 C 28.226562 105.824219 29.949219 107.234375 31.980469 107.234375 L 93.3125 107.234375 C 94.71875 107.234375 95.972656 106.136719 96.28125 104.730469 L 109.113281 26.347656 C 109.425781 24.46875 108.015625 22.90625 106.136719 22.90625 Z M 72.03125 78.757812 L 52.476562 78.757812 L 47.316406 51.066406 L 76.882812 51.066406 Z M 72.03125 78.757812 "/>
<path style=" stroke:none;fill-rule:nonzero;fill:url(#linear0);" d="M 104.890625 51.066406 L 76.726562 51.066406 L 72.03125 78.757812 L 52.476562 78.757812 L 29.476562 106.136719 C 29.476562 106.136719 30.574219 107.078125 32.136719 107.078125 L 93.46875 107.078125 C 94.875 107.078125 96.125 105.980469 96.4375 104.574219 Z M 104.890625 51.066406 "/>
</g>
</svg>
