<svg viewBox="0 0 128 128" xmlns="http://www.w3.org/2000/svg"><path d="M12.061 28.416a.139.139 0 00-.125.139v2.744c0 .147.01.333.027.56.008.096.014.15.022.229-.11-.125-.208-.257-.344-.361-.22-.174-.48-.31-.777-.41a3.256 3.256 0 00-1.041-.151c-.933 0-1.703.32-2.272.953-.573.634-.85 1.561-.85 2.762 0 1.188.27 2.105.83 2.73.561.621 1.331.934 2.272.934.401 0 .752-.049 1.055-.15a.139.139 0 00.002 0c.301-.105.563-.247.783-.424.153-.122.264-.267.38-.409l.126.743a.139.139 0 00.137.115h.879a.139.139 0 00.138-.139v-9.726a.139.139 0 00-.138-.14h-1.09a.139.139 0 00-.014 0zm4.129.313a.835.835 0 00-.565.203c-.16.14-.232.36-.232.617 0 .254.073.47.23.615.153.135.35.205.567.205.208 0 .4-.07.55-.203.167-.143.245-.362.245-.617 0-.259-.078-.48-.246-.62a.818.818 0 00-.55-.2zm21.768 2.296c-.593 0-1.104.094-1.533.288-.43.193-.765.48-.994.853-.23.371-.342.818-.342 1.33 0 .486.121.921.369 1.295a.139.139 0 00.002.002c.203.297.472.508.775.668-.215.144-.4.294-.527.457a1.197 1.197 0 00-.246.742c0 .245.077.47.226.66a.139.139 0 00.002.002c.08.097.17.18.266.252-.384.12-.723.288-.969.547a1.705 1.705 0 00-.465 1.195c0 .644.288 1.168.832 1.522v.002c.545.359 1.302.527 2.264.527 1.241 0 2.203-.202 2.885-.627.681-.425 1.037-1.063 1.037-1.861 0-.632-.231-1.143-.686-1.48h-.002c-.449-.338-1.08-.497-1.882-.497h-1.268a2.82 2.82 0 01-.555-.047.696.696 0 01-.308-.142c-.054-.052-.08-.113-.08-.217a.59.59 0 01.133-.387 1.46 1.46 0 01.423-.32c.196.028.39.047.578.047.872 0 1.576-.208 2.092-.633.516-.429.78-1.022.78-1.738 0-.294-.047-.566-.141-.813-.062-.163-.153-.29-.238-.423l1.123-.133a.139.139 0 00.123-.137v-.67a.139.139 0 00-.139-.139h-2.457a2.446 2.446 0 00-.299-.06 3.57 3.57 0 00-.388-.045 4.004 4.004 0 00-.39-.02h-.001zm-15.918.026a5.24 5.24 0 00-1.361.174 6.337 6.337 0 00-1.143.416.139.139 0 00-.066.177l.334.79a.139.139 0 00.187.07c.3-.14.617-.26.953-.362.328-.1.674-.15 1.037-.15.464 0 .802.11 1.037.32.225.2.354.57.354 1.14v.286l-1.107.045c-1.178.034-2.067.234-2.67.623-.603.388-.918.97-.918 1.691 0 .474.102.878.312 1.202a.139.139 0 000 .002c.212.317.502.557.861.713a.139.139 0 00.002 0c.362.154.77.23 1.223.23.425 0 .788-.042 1.09-.13a.139.139 0 00.002 0c.303-.093.572-.228.805-.405a.139.139 0 00.002-.002 4 4 0 00.503-.504l.168.805a.139.139 0 00.135.111h.795a.139.139 0 00.139-.139v-4.658c0-.828-.216-1.461-.67-1.861-.452-.398-1.126-.584-2.004-.584zm8.375.115a3.36 3.36 0 00-.965.137 2.745 2.745 0 00-.836.394c-.181.125-.333.28-.469.45l-.123-.739a.139.139 0 00-.136-.117h-.881a.139.139 0 00-.139.139v6.851a.139.139 0 00.139.139h1.092a.139.139 0 00.138-.139v-3.588c0-.798.159-1.39.457-1.785.291-.385.799-.59 1.57-.59.542 0 .917.135 1.155.383a.139.139 0 00.002 0c.243.25.373.637.373 1.186v4.394a.139.139 0 00.14.139h1.077a.139.139 0 00.138-.139v-4.463c0-.902-.225-1.585-.7-2.015-.472-.43-1.157-.637-2.032-.637zm15.529.014c-.706 0-1.325.143-1.848.435a2.918 2.918 0 00-1.199 1.266c-.28.549-.416 1.208-.416 1.974 0 .576.08 1.096.244 1.555.168.457.404.849.707 1.168.307.318.67.563 1.086.733a.139.139 0 00.002 0c.42.165.88.248 1.377.248.53 0 1.012-.083 1.438-.248a3.03 3.03 0 001.1-.733c.303-.32.536-.712.694-1.17.16-.459.237-.977.237-1.552 0-.764-.141-1.422-.43-1.971a2.994 2.994 0 00-1.203-1.27c-.514-.292-1.113-.435-1.79-.435zm-30.326.111a.139.139 0 00-.125.139v7.959c0 .396-.09.636-.229.756-.155.134-.357.205-.63.205-.17 0-.32-.012-.45-.036a.139.139 0 00-.004-.001 2.667 2.667 0 01-.392-.088.139.139 0 00-.18.132v.844a.139.139 0 00.094.131c.13.045.282.081.453.111.178.036.38.053.61.053.462 0 .854-.08 1.17-.254.312-.171.55-.425.702-.75v-.002c.151-.318.223-.694.223-1.127V31.43a.139.139 0 00-.139-.139h-1.09a.139.139 0 00-.013 0zm22.3.781c.499 0 .852.12 1.087.348a.139.139 0 00.002.002c.233.222.357.56.357 1.049 0 .454-.12.774-.351.994-.23.218-.582.336-1.08.336-.481 0-.829-.117-1.069-.338-.24-.221-.363-.533-.363-.973 0-.484.124-.827.36-1.058.24-.237.583-.36 1.058-.36zm-27.944.235c.774 0 1.267.217 1.539.636.285.434.437 1.077.437 1.932v.187c0 .803-.158 1.39-.45 1.772-.287.374-.78.57-1.526.57-.643 0-1.092-.207-1.398-.629-.305-.425-.467-1.045-.467-1.869 0-.828.165-1.465.476-1.922a.139.139 0 000-.002c.309-.456.753-.675 1.389-.675zm35.943.025c.488 0 .873.103 1.164.3.295.201.513.482.658.86a.139.139 0 000 .002c.146.376.22.829.22 1.361 0 .538-.076.999-.222 1.383-.144.382-.362.669-.662.873a.139.139 0 00-.002 0c-.292.202-.67.307-1.148.307-.483 0-.865-.105-1.156-.307-.296-.204-.514-.49-.659-.873-.145-.384-.22-.845-.22-1.383 0-.813.168-1.433.49-1.873l.002-.001c.322-.433.816-.649 1.535-.649zm-22.557 2.59v.486c0 .647-.188 1.104-.56 1.412-.38.315-.868.475-1.483.475-.39 0-.688-.087-.908-.252-.213-.16-.319-.396-.319-.758 0-.412.155-.705.49-.93.327-.218.941-.361 1.827-.394l.953-.04zm13.988 3.226h1.248c.361 0 .663.025.904.073a.139.139 0 00.004 0c.234.042.394.124.5.234.1.109.16.277.16.53a.931.931 0 01-.258.667.139.139 0 00-.001.004c-.17.19-.44.344-.817.451a.139.139 0 000 .002c-.371.112-.853.168-1.44.168-.593 0-1.037-.097-1.333-.273a.139.139 0 000-.002c-.295-.172-.424-.393-.424-.723 0-.257.057-.462.166-.623.115-.163.274-.285.494-.373.22-.088.486-.135.797-.135zm43.719 6.963c-.1 0-.199 0-.297.002-1.515.024-4.762.018-7.67 1.334-2.907 1.316-5.463 4.042-5.463 9.246 0 2.2.735 4.102 1.887 5.73H46.313V50.913H61.55v-5.35H40.186v5.35h.002v10.512h-.002v5.352h.002V79.23l-3.58-.022-4.955.023-7.754-12.047c1.817-.75 3.595-1.829 4.965-3.34 1.489-1.643 2.486-3.79 2.486-6.447v-.763c0-3.888-1.48-6.675-3.899-8.453-2.417-1.778-5.726-2.565-9.402-2.649H6.25v5.412h.03v12.707h-.03v5.051h.03v15.855h6.127v-15.87l6.16-.018 8.457 13.76.011.015c.717.949 2.206 3.056 4.612 4.572l.203.127 4.861-2.562 3.895-.024h20.943v-5.56H46.313V66.775h30.129l.031.014c1.866.853 4.133 1.625 5.896 2.738 1.764 1.112 2.997 2.49 2.997 4.676 0 2.353-1.062 3.586-2.559 4.334s-3.454.933-5.065.933h-.002c-3.087.02-6.717-1.292-9.818-2.328l-.549-.183v5.882l.244.112c3.044 1.387 7.552 1.93 10.135 1.832 1.854-.001 5.237-.364 8.225-1.86 2.992-1.497 5.584-4.21 5.584-8.722 0-3.492-1.313-5.996-3.152-7.787-1.84-1.792-4.183-2.892-6.276-3.707h-.002c-.793-.307-2.298-.908-3.795-1.723-1.494-.814-2.972-1.853-3.71-2.944-.46-.746-.744-1.576-.793-2.36.004-2.38 1.114-3.664 2.55-4.42 1.44-.76 3.23-.921 4.4-.837 2.356.17 6.414 1.5 7.712 2.055l.414.176.601-1.766h16.242v33.668h6.127V50.89h11.01v-5.303h-11.01v-.023h-6.127v.023H84.586c-1.175-.283-2.358-.466-3.52-.476zm-.283.834h.275c1.1.01 2.242.182 3.39.463l.05.012h22.088v-.023h4.459v.023h11.012v3.639h-11.012v33.666h-4.46V50.059H88.914l-.51 1.496c-1.638-.65-5.155-1.786-7.559-1.96-1.3-.093-3.207.063-4.85.928-1.642.866-2.996 2.51-2.996 5.17v.014l.002.012c.058.953.393 1.915.922 2.771l.004.006.004.008c.883 1.307 2.457 2.37 4.008 3.215 1.551.844 3.088 1.457 3.893 1.767 2.05.8 4.29 1.863 5.996 3.526 1.706 1.663 2.902 3.905 2.902 7.191 0 4.2-2.313 6.57-5.125 7.977s-6.122 1.771-7.861 1.771h-.016c-2.357.091-6.681-.44-9.522-1.658v-4.176c2.97 1.002 6.408 2.205 9.541 2.186 1.67 0 3.732-.17 5.434-1.02s3.02-2.46 3.02-5.08c0-2.51-1.5-4.19-3.387-5.38-1.887-1.19-4.187-1.966-5.992-2.792l-.112-.05-.082-.04H45.48v13.89h15.236v3.894H40.602l-4.1.025-4.605 2.428c-2.117-1.397-3.468-3.269-4.185-4.219l-8.68-14.123-7.459.022v15.867H7.114V67.87h-.031v-3.385h.031V50.11h-.031v-3.744h10.949c3.568.081 6.707.853 8.926 2.484 2.218 1.632 3.56 4.103 3.56 7.783v.764c0 2.45-.898 4.374-2.271 5.889-1.373 1.515-3.231 2.61-5.12 3.324l-.48.182c2.863 4.417 5.704 8.849 8.553 13.275l5.406-.026 4.414.026V65.94h-.002v-3.684h.002V50.079h-.002v-3.686h19.7v3.686H45.478v12.178h25.727l-.558-.682c-1.35-1.643-2.178-3.578-2.178-5.882 0-4.94 2.282-7.27 4.974-8.489 2.693-1.218 5.809-1.235 7.34-1.26zm-69.211 4.166V64.487h5.056c2.127 0 4.362-.313 6.114-1.368s2.972-2.901 2.972-5.72v-.764c0-2.855-1.603-4.554-3.336-5.451-1.732-.898-3.576-1.073-4.337-1.073h-6.47zm.834.834h5.634c.62 0 2.404.175 3.956.979 1.55.804 2.886 2.158 2.886 4.71v.764c0 2.589-1.029 4.078-2.57 5.006s-3.642 1.248-5.684 1.248h-4.222V50.945zm43.06 38.566c-.506 0-.945.087-1.31.27a1.866 1.866 0 00-.844.863c-.192.385-.283.872-.283 1.461v.352l-1.172.316a.139.139 0 00-.101.133v.5a.139.139 0 00.138.138h1.135v5.9a.139.139 0 00.139.14h1.09a.139.139 0 00.138-.14v-5.9h1.655a.139.139 0 00.138-.138v-.813a.139.139 0 00-.138-.138h-1.655v-.362c0-.529.1-.899.268-1.115.173-.221.43-.334.816-.334.183 0 .36.02.534.059a.139.139 0 00.003.002c.185.036.35.077.493.12a.139.139 0 00.172-.087l.283-.818a.139.139 0 00-.088-.178 5.17 5.17 0 00-.627-.16 3.98 3.98 0 00-.783-.07zm61.095.069a.139.139 0 00-.125.138v9.727a.139.139 0 00.138.139h1.084a.139.139 0 00.139-.14v-2.417l.715-.625 2.451 3.129a.139.139 0 00.11.053h1.314a.139.139 0 00.11-.225l-3.032-3.83 2.81-2.838a.139.139 0 00-.099-.236h-1.281a.139.139 0 00-.098.04l-2.39 2.426a.139.139 0 00-.002.002c-.126.133-.279.306-.46.52a.139.139 0 00-.001 0l-.182.219.014-.272a.139.139 0 000-.002c.013-.243.021-.448.021-.619v-5.05a.139.139 0 00-.138-.14h-1.084a.139.139 0 00-.014 0zM86.658 92.2c-.665 0-1.253.154-1.754.46a3.077 3.077 0 00-1.156 1.308c-.27.56-.4 1.22-.4 1.973 0 .772.144 1.435.443 1.98a3.01 3.01 0 001.252 1.245.139.139 0 00.002 0c.539.278 1.167.416 1.877.416.492 0 .92-.036 1.287-.11.369-.073.74-.188 1.11-.345a.139.139 0 00.085-.13v-.911a.139.139 0 00-.192-.13c-.37.152-.726.267-1.068.344-.338.077-.73.116-1.178.116-.713 0-1.243-.2-1.62-.59-.353-.365-.546-.896-.58-1.602h4.821a.139.139 0 00.14-.138v-.645c0-.638-.12-1.203-.364-1.687a2.697 2.697 0 00-1.059-1.145c-.462-.273-1.014-.406-1.646-.406V92.2zm18.799 0c-.707 0-1.325.146-1.848.438a2.918 2.918 0 00-1.2 1.266c-.278.549-.415 1.208-.415 1.974 0 .576.082 1.096.246 1.555.168.457.402.847.705 1.166a.139.139 0 00.002.002c.306.318.668.563 1.084.733a.139.139 0 00.002 0c.42.165.882.248 1.379.248.53 0 1.01-.083 1.435-.248.429-.17.799-.416 1.102-.735.304-.32.534-.71.693-1.168.16-.459.238-.977.238-1.553 0-.763-.14-1.421-.43-1.97a2.998 2.998 0 00-1.204-1.27c-.514-.292-1.113-.435-1.79-.435V92.2zm-39.098.014a5.24 5.24 0 00-1.362.174 6.337 6.337 0 00-1.142.416.139.139 0 00-.067.178l.336.79a.139.139 0 00.186.07c.3-.14.617-.26.953-.362.328-.1.673-.15 1.037-.15.463 0 .801.11 1.037.32.224.2.356.57.356 1.14v.286l-1.11.045c-1.177.034-2.066.234-2.67.623-.602.388-.918.97-.918 1.691 0 .474.103.878.313 1.201a.139.139 0 000 .002c.211.318.502.558.861.713a.139.139 0 00.002 0c.361.154.77.23 1.223.23.425 0 .788-.042 1.09-.13a.139.139 0 00.002 0c.303-.092.571-.227.804-.405a.139.139 0 00.002-.001c.177-.138.34-.32.504-.504l.168.804a.139.139 0 00.135.112h.795a.139.139 0 00.138-.139V94.66c0-.829-.216-1.462-.67-1.862-.45-.398-1.125-.584-2.003-.584zm-5.162.116a2.4 2.4 0 00-.989.199c-.29.131-.547.311-.77.535-.146.145-.258.317-.376.484l-.09-.966a.139.139 0 00-.139-.127h-.906a.139.139 0 00-.139.138v6.852a.139.139 0 00.14.139h1.095a.139.139 0 00.138-.139v-3.676c0-.34.054-.642.157-.912a.139.139 0 000-.002c.103-.277.244-.507.424-.697a.139.139 0 00.001-.002c.18-.195.386-.34.622-.442a.139.139 0 00.002 0 1.89 1.89 0 01.765-.156 3.408 3.408 0 01.768.09.139.139 0 00.17-.115l.138-.963a.139.139 0 00-.11-.156 3.663 3.663 0 00-.437-.059 4.467 4.467 0 00-.464-.025zm13.273 0c-.32 0-.623.043-.909.13a2.551 2.551 0 00-.777.391 2.212 2.212 0 00-.428.434l-.12-.715a.139.139 0 00-.137-.115h-.881a.139.139 0 00-.139.138v6.852a.139.139 0 00.139.139h1.09a.139.139 0 00.138-.14V95.82c0-.526.064-.964.184-1.31v-.003c.123-.347.312-.595.574-.765.26-.169.615-.26 1.074-.26.32 0 .574.06.766.17a.139.139 0 00.002.002c.197.107.34.263.44.484a.139.139 0 000 .002c.102.222.157.51.157.867v4.438a.139.139 0 00.139.139h1.084a.139.139 0 00.139-.139v-3.832c0-.726.154-1.256.441-1.606.283-.344.74-.525 1.41-.525.469 0 .793.128 1.012.373a.139.139 0 00.002.002c.222.241.346.617.346 1.15v4.438a.139.139 0 00.138.139h1.077a.139.139 0 00.138-.139v-4.488c0-.892-.205-1.567-.644-1.994h-.002c-.436-.428-1.073-.633-1.889-.633-.508 0-.981.102-1.412.306h-.002a2.32 2.32 0 00-.932.815c-.18-.347-.434-.633-.783-.813-.393-.208-.872-.308-1.435-.308zm39.352 0c-.359 0-.691.065-.99.199-.29.131-.548.311-.77.535-.147.145-.257.318-.375.484l-.092-.966a.139.139 0 00-.139-.127h-.906a.139.139 0 00-.139.138v6.852a.139.139 0 00.14.139h1.097a.139.139 0 00.138-.139v-3.676c0-.34.052-.642.155-.912a.139.139 0 000-.002c.103-.277.246-.507.425-.697a.139.139 0 000-.002 1.89 1.89 0 011.389-.598 3.408 3.408 0 01.768.09.139.139 0 00.172-.115l.138-.963a.139.139 0 00-.111-.156 3.627 3.627 0 00-.436-.059h-.002a4.43 4.43 0 00-.462-.025zm-22.947.125a.139.139 0 00-.133.177l1.984 6.852a.139.139 0 00.133.1h1.228a.139.139 0 00.131-.094l1.34-3.967v-.002a8.55 8.55 0 00.166-.514c.048-.17.093-.333.133-.488v-.004c.03-.104.052-.194.076-.287.025.093.048.182.074.287a.139.139 0 00.002.006l.139.475a.139.139 0 000 .004l.166.502 1.28 3.986a.139.139 0 00.132.096h1.268a.139.139 0 00.133-.1l1.99-6.852a.139.139 0 00-.133-.177h-1.111a.139.139 0 00-.133.101l-1.051 3.783c-.07.26-.14.514-.205.764a.139.139 0 000 .002c-.06.243-.111.464-.158.668a15.685 15.685 0 00-.178-.629v-.002a15.821 15.821 0 00-.191-.627v-.002l-1.282-3.963a.139.139 0 00-.13-.095h-1.176a.139.139 0 00-.133.095l-1.326 3.97a16.63 16.63 0 00-.285.973l-.079.321-.007-.037a10.87 10.87 0 00-.164-.691v-.002a26.794 26.794 0 00-.198-.745l-1.039-3.783a.139.139 0 00-.133-.101h-1.13zm-4.23.875c.391 0 .7.083.935.24.239.155.415.37.533.66a.139.139 0 000 .004 2.6 2.6 0 01.18.88h-3.485c.08-.544.254-.98.545-1.284.32-.335.738-.5 1.291-.5zm18.786.025c.488 0 .87.103 1.162.3.295.201.514.482.658.86a.139.139 0 000 .002c.146.376.221.829.221 1.361 0 .538-.075.999-.22 1.383a1.774 1.774 0 01-.665.871.139.139 0 00-.002.002c-.291.202-.67.307-1.148.307-.483 0-.865-.105-1.156-.307-.296-.204-.514-.49-.658-.873-.146-.384-.221-.845-.221-1.383 0-.813.17-1.433.492-1.873v-.001c.322-.433.818-.649 1.537-.649zm-37.752 2.73v.487c0 .647-.188 1.103-.56 1.412-.38.315-.868.475-1.483.475-.39 0-.686-.087-.906-.252-.213-.16-.32-.396-.32-.758 0-.412.155-.706.49-.93.327-.218.94-.361 1.826-.394l.953-.04z"/></svg>
