<svg viewBox="0 0 128 128" xmlns="http://www.w3.org/2000/svg">
<path d="m64.347 41.62v4.2915h-19.475l-0.02875-0.02794-0.02794 0.02794h-38.119a0.069444 0.069444 0 0 0-0.069437 0.06944v18.955h-6.127v0.41662h6.127v18.717a0.069444 0.069444 0 0 0 0.069437 0.06944h18.837v8.5399h0.41662v-8.5399h18.685v0.06971h0.11039l0.0971 0.09737 0.10063-0.09737h0.1085v-0.06971h19.295v3.0463h0.41662v-3.0463h19.377v0.06971h0.1085l0.10063 0.09737 0.0971-0.09737h0.11039v-0.06971h18.674v4.1551h0.41662v-4.1551h18.849a0.069444 0.069444 0 0 0 0.0694-0.06944v-18.717h4.9341v-0.41662h-4.9341v-18.955a0.069444 0.069444 0 0 0-0.0694-0.06944h-18.849v-0.01302h-0.41662v0.01302h-18.853l-0.02794-0.02794-0.02875 0.02794h-19.557v-4.2915zm-57.484 4.4304h18.67v18.709zm19.087 0h18.685v0.04042l-18.685 18.656zm19.102 0h19.295v18.706l-19.295-18.671zm19.712 0h19.377v0.03553l-19.377 18.75zm19.793 0h18.674v18.685l-18.674-18.645zm19.09 0h18.682l-18.682 18.721zm-96.882 0.09846 18.747 18.787h-18.747zm115.66 0v18.787h-18.747zm-77.375 0.13019 19.28 18.657h-19.28zm39.088 0v18.657h-19.28zm-39.505 0.0081v18.648h-18.677zm39.922 0 18.674 18.645v0.0035h-18.674zm-77.791 19.065h18.578l-18.578 18.55zm19.359 0h18.51v18.549zm18.927 0h19.178l-19.178 18.558zm19.911 0h19.178v18.558zm19.595 0h18.51l-18.51 18.549zm19.09 0h4e-3l18.676 18.648h-18.681zm0.20099 0h18.578v18.55zm-39.085 0.0011 19.27 18.647h-19.27zm-39.23 0.0062v18.64h-18.669zm0.41662 0.01383 18.588 18.626h-18.588zm77.281 0.01139v18.615h-18.576zm-38.884 0.04774v18.567h-19.188z" fill="#cecece"/>
<path d="m64.556 51.493c-0.36077 0-0.72168 0.13743-0.99653 0.41228-0.52992 0.52992-0.54737 1.3783-0.0556 1.9312l-33.827 19.228 0.03608 0.06076c2.157 3.643 4.7912 6.9835 8.055 9.9235l0.05208 0.04692 0.04638-0.05235 25.746-29.097c0.55266 0.50018 1.4076 0.48539 1.9404-0.04747 0.54971-0.54971 0.54971-1.4431 0-1.9928-0.27485-0.27486-0.63549-0.41228-0.99626-0.41228zm0 0.13806c0.32494 0 0.64975 0.12409 0.89807 0.37241 0.49664 0.49664 0.49664 1.2998 0 1.7964-0.49664 0.49664-1.2998 0.49664-1.7964 0-0.49664-0.49664-0.49664-1.2998 0-1.7964 0.24832-0.24832 0.5734-0.37241 0.89834-0.37241zm48.339 0.42639v0.13887h1.5501v30.911h-1.5501v0.13887h3.2389v-0.13887h-1.5498v-30.911h1.5498v-0.13887zm-93.671 0.51291-0.06944 3e-3h-3e-3c-0.0235 1e-3 -0.04704 0.0022-0.07052 0.0035l-0.06537 0.0038v4.1144l0.07676-0.0081c0.02056-0.0022 0.04144-0.0036 0.06211-0.0038h2.77e-4c0.35722 1.66e-4 0.64528 0.28829 0.64528 0.64555 7e-6 0.35726-0.28805 0.64541-0.64528 0.64555-0.02094-4.4e-5 -0.04209-0.0012-0.06293-0.0033l-0.07622-0.0076v4.1152l0.06645 3e-3c0.02348 9.73e-4 0.04703 0.0018 0.07052 0.0024h0.0019c2.6255 5e-5 4.7554-2.1298 4.7554-4.7553 4.8e-5 -2.6017-2.0932-4.7102-4.6859-4.7483zm-0.06835 0.14186c2.5499 5.53e-4 4.6154 2.0664 4.6154 4.6165 4.7e-5 2.5503-2.0657 4.6162-4.6159 4.6165-1.66e-4 -4e-6 -4.43e-4 6e-6 -5.53e-4 0v-3.8321c0.43241 1.1e-5 0.78443-0.35202 0.78442-0.78442 7e-6 -0.43241-0.35202-0.78443-0.78442-0.78442v-3.8318c4.42e-4 -1.7e-5 6.91e-4 -2.77e-4 0.0011-2.77e-4zm59.98 0.19149v0.0035c-1.3819 0.03719-2.493 1.1678-2.493 2.5586 0 1.3908 1.1111 2.5214 2.493 2.5586v13.596c-2e-3 -6e-6 -4e-3 -2.76e-4 -6e-3 -2.76e-4 -1.4143-3e-6 -2.5621 1.1479-2.5621 2.5621 0 1.4143 1.1479 2.5624 2.5621 2.5624 1.4143 0 2.5624-1.1481 2.5624-2.5624 0-1.3653-1.071-2.4792-2.4175-2.5548v-13.603c1.3819-0.03719 2.4927-1.1678 2.4927-2.5586 0-1.3908-1.1108-2.5214-2.4927-2.5586v-0.0035zm0 0.1424v4.8394c-1.3067-0.03704-2.3541-1.104-2.3541-2.4197 0-1.3158 1.0473-2.3827 2.3541-2.4197zm0.13887 0c1.3067 0.03704 2.3538 1.104 2.3538 2.4197 0 1.3158-1.0471 2.3827-2.3538 2.4197zm-16.016 1.0896-25.448 28.76c-3.21-2.902-5.8079-6.1934-7.9402-9.7825zm-31.086 0.85332v3.2389h0.13887v-1.5499h6.5648v1.5499h0.13887v-3.2389h-0.13887v1.5501h-6.5648v-1.5501zm24.894 12.705v0.13887h1.5501v10.069h-1.5501v0.13887h3.2389v-0.13887h-1.5499v-10.069h1.5499v-0.13887zm22.063 4.0645c2e-3 -1e-6 4e-3 2.76e-4 6e-3 2.76e-4v4.8462c-2e-3 5e-6 -4e-3 2.76e-4 -6e-3 2.76e-4 -1.3392 0-2.4232-1.0843-2.4232-2.4235s1.084-2.4232 2.4232-2.4232zm0.14484 0.0073c1.2713 0.07521 2.2787 1.1256 2.2787 2.4159 0 1.2903-1.0074 2.341-2.2787 2.4162zm13.243 0.43561v3.2389h0.13887v-1.5501h12.023v1.5501h0.13887v-3.2389h-0.13887v1.5499h-12.023v-1.5499z" fill="#6c6c6c"/>
<path d="m81.067 45.113c-0.09946-8.91e-4 -0.19843-4.43e-4 -0.29674 0.0011-1.5153 0.02396-4.7619 0.01795-7.6695 1.334-2.9076 1.316-5.4641 4.0435-5.4641 9.2476 0 2.1998 0.73464 4.101 1.8867 5.7299h-23.211v-10.511h15.238v-5.3507h-21.365v5.3507h0.0016v10.511h-0.0016v5.351h0.0016v12.456l-3.5798-0.02143-4.9539 0.02278-7.755-12.048c1.8177-0.74956 3.5966-1.8279 4.9658-3.3387 1.4892-1.6432 2.4864-3.7902 2.4864-6.4468v-0.76408c0-3.8875-1.4825-6.6762-3.9001-8.4542-2.4176-1.778-5.7247-2.5638-9.4006-2.6476h-11.8v5.4112h0.030159v12.708h-0.030108v5.0513h0.030108v15.854h6.1256v-15.87l6.1604-0.01736 8.4575 13.759 0.01193 0.016c0.71617 0.94845 2.2048 3.0543 4.6105 4.5709l0.2037 0.12857 4.8617-2.564 3.8936-0.02333h20.944v-5.5609h-15.237v-12.222h30.129c0.01106 0.0052 0.01931 0.0092 0.03119 0.01465 1.8665 0.85339 4.132 1.6256 5.8956 2.7382 1.7636 1.1125 2.9969 2.4888 2.9969 4.6753 0 2.3534-1.0619 3.5857-2.5589 4.3336-1.497 0.7479-3.4534 0.93306-5.064 0.93306h-0.0028c-3.087 0.01916-6.7181-1.2924-9.8188-2.3278l-0.54844-0.18309v5.8834l0.24384 0.11121c3.0434 1.3874 7.5514 1.9289 10.135 1.8306 1.8531-9.74e-4 5.2375-0.36382 8.225-1.8591 2.9915-1.4972 5.5845-4.2095 5.5845-8.7219 0-3.492-1.3144-5.9958-3.1534-7.7878-1.839-1.7919-4.1825-2.8912-6.2751-3.7065l-8.29e-4 -2.77e-4 -5.54e-4 -2.76e-4c-0.7937-0.30608-2.299-0.9071-3.7957-1.7218-1.4944-0.81348-2.9719-1.8536-3.7103-2.944-0.4595-0.74598-0.74286-1.5768-0.79256-2.3617 0.0044-2.3794 1.1134-3.6626 2.5496-4.4196 1.4391-0.75844 3.2316-0.91934 4.4019-0.83487 2.3554 0.17001 6.4131 1.4988 7.711 2.053l0.4131 0.1763 0.60079-1.7649h16.244v33.667h6.1256v-33.667h11.011v-5.3038h-11.011v-0.0236h-6.1256v0.0236h-21.167c-1.1756-0.28384-2.3573-0.46504-3.5188-0.47548zm-0.0076 0.83324c1.0998 0.0099 2.2408 0.18255 3.3897 0.46355l0.04882 0.01194h22.089v-0.0236h4.4592v0.0236h11.011v3.6373h-11.011v33.667h-4.4592v-33.667h-17.674l-0.50938 1.497c-1.6373-0.6495-5.1548-1.7857-7.5586-1.9592-1.3007-0.09389-3.2078 0.06293-4.8506 0.92872-1.6427 0.86579-2.9953 2.5105-2.9953 5.1701v0.01248l8.3e-4 0.01275c0.05757 0.9537 0.39266 1.914 0.92221 2.7704l0.0043 0.0071 0.0046 0.0068c0.88251 1.3074 2.4554 2.3702 4.0067 3.2147 1.5514 0.84447 3.0889 1.4569 3.8939 1.7674 2.0511 0.79916 4.2887 1.8638 5.9949 3.5264 1.7066 1.6629 2.9017 3.9047 2.9017 7.1911 0 4.1997-2.3126 6.5696-5.1242 7.9768-2.8117 1.4072-6.1217 1.7715-7.8608 1.7715h-0.0081l-0.0079 2.76e-4c-2.3569 0.09074-6.6803-0.44192-9.5207-1.6597v-4.1757c2.9689 1.0013 6.4059 2.2062 9.5395 2.1867 1.6703-1.1e-4 3.7322-0.17082 5.4337-1.0209 1.7024-0.85056 3.0197-2.4597 3.0197-5.0789 0-2.5097-1.4992-4.1903-3.3856-5.3803-1.8864-1.19-4.1886-1.9658-5.9936-2.791-0.0316-0.01445-0.06825-0.03215-0.11012-0.05153l-0.08327-0.03852h-31.147v13.888h15.237v3.8944h-20.114l-4.0998 0.02441-4.6062 2.4292c-2.1169-1.3966-3.4676-3.2698-4.1844-4.2199l-8.681-14.122-7.4585 0.02061v15.868h-4.4592v-15.854h-0.030108v-3.3848h0.030108v-14.375h-0.030108v-3.7447h10.948c3.5677 0.08126 6.7076 0.85422 8.9259 2.4856 2.2183 1.6314 3.5605 4.1028 3.5605 7.7829v0.76408c0 2.4505-0.89759 4.3723-2.2705 5.8872-1.3729 1.5149-3.2316 2.6104-5.1196 3.3248l-0.4798 0.18161c2.8628 4.4171 5.7035 8.8487 8.5524 13.275l5.4069-0.02495 4.4136 0.02631v-14.127h-0.0016v-3.6845h0.0016v-12.178h-0.0016v-3.6842h19.699v3.6842h-15.238v12.178h25.726l-0.55902-0.68108c-1.3488-1.6431-2.1767-3.5777-2.1767-5.8821 0-4.9391 2.2818-7.2701 4.9742-8.4887 2.6924-1.2186 5.8075-1.2354 7.3392-1.2596 0.09212-0.0015 0.18424-0.0019 0.27612-0.0011zm-69.487 4.1665v14.375h5.0564c2.1262 0 4.3615-0.31202 6.1129-1.3668 1.7514-1.0547 2.9736-2.9004 2.9736-5.7199v-0.76408c0-2.8548-1.6037-4.5536-3.3362-5.4513-1.7325-0.89779-3.5777-1.0725-4.3387-1.0725zm0.83324 0.83324h5.6347c0.62035 0 2.4042 0.17503 3.9555 0.9789 1.5513 0.80387 2.8862 2.1587 2.8862 4.7117v0.76408c0 2.5883-1.0288 4.0777-2.5703 5.006s-3.6409 1.2474-5.683 1.2474h-4.2232z" fill="#7f2d2d"/>
<path d="m12.074 28.066v0c-0.26581 3.8e-5 -0.48878 0.22311-0.48882 0.48892v2.7219c-0.18878-0.11449-0.3884-0.21625-0.60961-0.29076-0.34695-0.11686-0.73259-0.16932-1.1544-0.16932-1.0126 0-1.8959 0.3625-2.53 1.0677-0.6495 0.71812-0.94057 1.7423-0.94057 2.9968 0 1.0693 0.16307 2.0039 0.6755 2.6524 0.16061 0.20326 0.27193 0.37454 0.66967 0.7031 0.55865 0.46149 1.2996 0.65897 2.1059 0.65897 0.42966 0 0.81907-0.05213 1.1674-0.16942l-0.02658 0.0043c0.01023-0.0013 0.0204-3e-3 0.03047-0.0052 0.30516-0.10563 0.5769-0.25255 0.81707-0.43382l0.01221 0.07218c0.03924 0.23299 0.24586 0.40765 0.48212 0.40767h0.88028c0.26581-3.8e-5 0.48878-0.223 0.48882-0.48881v-9.7274c-3.1e-5 -0.26581-0.223-0.48878-0.48882-0.48881l-1.0904-5.53e-4zm4.1147 0.31291c-0.29004 0-0.57647 0.09673-0.79643 0.2914-0.25482 0.22522-0.34911 0.5566-0.34911 0.87877 0 0.31961 0.09552 0.64585 0.34187 0.87228 0.0022 0.0021 0.0044 0.0041 0.0066 0.0062 0.22001 0.19497 0.50668 0.29206 0.79708 0.29206 0.28529 0 0.56443-0.09996 0.77979-0.28903 0.25786-0.22241 0.36607-0.55445 0.36607-0.88147 0-0.3283-0.10678-0.66372-0.37029-0.88449-0.21476-0.18685-0.49203-0.28573-0.77559-0.28572zm-3.9035 0.38735h0.66818v9.3052h-0.49044l-0.09541-0.56607c-0.04988-0.29606-0.41836-0.39051-0.61556-0.16413-0.25396 0.29155-0.4439 0.4509-0.56884 0.52002-0.43023 0.23804-0.91782 0.33213-1.3815 0.33433-0.86332 0-1.5178-0.27187-2.0107-0.81794h-3.299e-4c-0.48328-0.54058-0.74003-1.3625-0.74003-2.4965 0-1.1468 0.26283-1.9779 0.75959-2.5272 2.766e-4 -5.53e-4 5.753e-4 -6.08e-4 8.63e-4 -8.85e-4 0.5027-0.55959 1.157-0.83652 2.01-0.83652 0.36328 0 0.67314 0.04597 0.93095 0.13279 0.2645 0.08908 0.48702 0.20738 0.67142 0.35289 0.0011 8.85e-4 0.0022 0.0017 0.0032 0.0026 0.08812 0.06786 0.17364 0.17689 0.29498 0.31486 0.22408 0.25457 0.643 0.07358 0.61124-0.26408-0.0081-0.08626-0.01518-0.13494-0.02204-0.22258-0.01722-0.22181-0.02572-0.40083-0.02572-0.53366zm3.9035 0.31259c0.12939 0 0.23177 0.03898 0.31821 0.11496 0.0025 0.0022 0.0049 0.0043 0.0075 0.0064 0.07014 0.05824 0.12015 0.16105 0.12015 0.34889 0 0.18328-0.04965 0.28864-0.12328 0.35192-0.0012 9.96e-4 -0.0024 2e-3 -0.0036 3e-3 -0.08648 0.07634-0.18925 0.1155-0.31896 0.1155-0.14038 0-0.24602-0.04041-0.33052-0.11443-0.06733-0.0623-0.11496-0.16866-0.11496-0.35602 0-0.19323 0.04816-0.29735 0.11259-0.35429h2.21e-4c0.0848-0.0751 0.19107-0.11572 0.33268-0.11572zm-0.81653 1.3302c0.0019 0.0019 0.0037 0.0038 0.0056 0.0056 0.0016 0.0015 0.0032 3e-3 0.0049 0.0045zm22.585 0.26623v7.74e-4h-4.43e-4c-0.62943 0-1.1921 0.09971-1.6778 0.31842-0.48428 0.21808-0.88053 0.55357-1.1478 0.98887-0.26924 0.43438-0.3948 0.95052-0.39481 1.5135 0 0.54508 0.14187 1.0555 0.42928 1.489 5.7e-4 8.85e-4 0.0012 0.0018 0.0017 0.0027 6.97e-4 0.0011 0.0015 2e-3 0.0022 3e-3 0.13453 0.19682 0.2954 0.35879 0.46937 0.49724-0.07221 0.06704-0.14449 0.1339-0.20529 0.21134h-1.1e-4c-9.3e-4 0.0012-0.0022 2e-3 -0.0031 0.0033h-1.1e-4c-4.43e-4 5.53e-4 -9.41e-4 0.0011-0.0014 0.0016-0.21029 0.27294-0.31821 0.60841-0.31821 0.95494 0 0.27969 0.08528 0.5497 0.23846 0.7813-0.22677 0.11205-0.4383 0.25105-0.61631 0.43847-9.07e-4 9.4e-4 -0.0018 0.0019-0.0027 0.0028-0.36476 0.3899-0.55872 0.89428-0.55872 1.4341 0 0.74578 0.35937 1.4029 0.98617 1.8131 3.32e-4 2.22e-4 5.54e-4 5.54e-4 8.63e-4 7.58e-4l1.11e-4 1.11e-4 5.53e-4 3.32e-4 1.11e-4 1.11e-4c3.32e-4 2.21e-4 1.11e-4 -9e-6 4.42e-4 2.21e-4 0.0493 0.03237 0.06764 0.03497 0.06289 0.03306-3.32e-4 -1.11e-4 -0.0033-0.0015-0.0039-0.0017 0.61993 0.38761 1.4231 0.55581 2.3973 0.55581 1.2793 0 2.3051-0.20316 3.0698-0.68017 0.76838-0.47933 1.2019-1.2569 1.2019-2.159 0-0.71195-0.27912-1.3454-0.81437-1.7504-0.0038-0.0035-0.0077-0.0069-0.01167-0.01016-1.65e-4 0-4.42e-4 1.1e-5 -6.47e-4 -5.53e-4 -0.53303-0.40001-1.2442-0.56618-2.0922-0.56618h-1.2679c-0.2006 0-0.36211-0.01571-0.47931-0.03933-0.0731-0.01788-0.09299-0.03268-0.11205-0.0443 3e-3 -0.05618 0.01401-0.0891 0.05186-0.13744 0.03956-0.04686 0.12805-0.11472 0.24095-0.18455 0.16173 0.01962 0.32387 0.03944 0.48925 0.03944 0.92661 0 1.7197-0.22282 2.3137-0.71183 0.0026-0.0022 0.0051-0.0045 0.0076-0.0068 0.58863-0.49261 0.89984-1.2028 0.89984-2.0024 0-0.33043-0.05232-0.646-0.16359-0.93722-0.0019-0.0049-0.0044-0.0079-0.0063-0.01275l0.60508-0.07131h1.11e-4c0.24312-0.02871 0.4313-0.24022 0.43155-0.48504v-0.66938c-4.2e-5 -0.26581-0.22301-0.48878-0.48882-0.48881h-2.4253c-0.08602-0.02129-0.17457-0.04151-0.27574-0.05608-0.13413-0.02333-0.27265-0.03917-0.41534-0.04841h-1.11e-4c-0.0016 0-0.0031-5.53e-4 -0.0048-5.53e-4 -0.0069-5.54e-4 -0.01382-7.19e-4 -0.02075-7.75e-4 -4.98e-4 -4.4e-5 -1e-3 5e-5 -0.0015 0h-5.53e-4c-0.12923-0.01161-0.25899-0.01923-0.38952-0.01923zm-2.7386 10.487c-0.01659-0.01038-0.0364-0.01696-0.05273-0.02766 0.0069 0.0042 0.02066 0.0127 0.02777 0.01632 0.01556 0.0079 0.0214 0.01 0.02496 0.01135zm-0.05273-0.02766c-0.0016-9.51e-4 -6e-3 -0.0035-0.0063-0.0037 5.53e-4 3.32e-4 9.74e-4 8.35e-4 0.0015 0.0012 0.0015 9.68e-4 0.0033 0.0015 0.0048 0.0025zm0.26775-5.4349 0.02626-0.02971c-6.53e-4 6.64e-4 -0.0013 0.0013-0.0019 0.0019-0.0086 0.0088-0.01667 0.01812-0.02431 0.02777zm-13.394-4.9998v5.53e-4c-2.76e-4 0-4.98e-4 5.53e-4 -7.58e-4 5.53e-4 -0.50356 3.4e-5 -0.98885 0.06142-1.4524 0.18552-0.4454 0.11923-0.84708 0.26455-1.2049 0.43944h-2.21e-4c-0.23014 0.11276-0.33508 0.39426-0.2349 0.63014l0.33463 0.78747h1.11e-4c0.10606 0.24973 0.40851 0.36655 0.65489 0.25284h1.1e-4c0.28521-0.13185 0.58821-0.24697 0.90956-0.345 0.29364-0.08958 0.60294-0.13506 0.93452-0.13506 0.40732 0 0.64732 0.09242 0.80497 0.23263 0.10957 0.09743 0.22479 0.34769 0.23339 0.82809l-0.76499 0.03099c-7.24e-4 2.2e-5 -0.0013 0-0.0021 0h-0.0019c-1.21 0.03522-2.1573 0.23378-2.8458 0.67747-0.68946 0.44422-1.078 1.1626-1.078 1.9866 0 0.52351 0.11284 0.99982 0.36802 1.3918h1.1e-4c9.24e-4 0.0014 0.0019 0.0029 0.0028 0.0043 0.2485 0.37317 0.59763 0.66 1.0144 0.8403 0.01602 0.0045 0.03234 0.0079 0.04884 0.01016l-0.04678-0.0095c0.41112 0.17557 0.86886 0.25791 1.361 0.25791 0.44826 0 0.84231-0.04326 1.1882-0.14457 0.0062-0.0022 0.01224-0.0046 0.01826-0.0071 0.0059-0.0022 0.0118-0.0045 0.01761-0.0069 0.0073-0.0026 0.01443-0.0054 0.0215-0.0084 2.76e-4 0 5.75e-4 -5.53e-4 8.63e-4 -5.53e-4 0.31674-0.10222 0.6086-0.2457 0.86234-0.4389 0.0011-8.86e-4 0.0022-0.0017 0.0032-0.0026 7.86e-4 -6.08e-4 0.0016-0.0012 0.0024-0.0018 0.02818-0.02202 0.05117-0.04803 0.07812-0.0711l0.03479 0.16737c0.04665 0.2247 0.24885 0.38935 0.47833 0.38952h0.79504c0.26581-3.8e-5 0.48878-0.22311 0.48882-0.48892v-4.6574c0-0.88941-0.23988-1.6388-0.7893-2.1233-0.54031-0.47639-1.3071-0.6725-2.2348-0.6725zm8.3736 0.11637v0c-0.36729 0-0.72307 0.05031-1.0626 0.15127-0.34008 0.09698-0.65514 0.24462-0.93668 0.44257h-1.11e-4c-8.85e-4 6.09e-4 -0.0019 9.96e-4 -0.0028 0.0016-6.86e-4 7.75e-4 -0.0014 0.0016-0.0021 0.0024-0.01013 7e-3 -0.01771 0.01574-0.02766 0.0229l-0.01437-0.08654c-0.03884-0.23339-0.24563-0.4086-0.48222-0.40865h-0.88028c-0.26581 3.9e-5 -0.48878 0.22301-0.48882 0.48882v6.8514c4.3e-5 0.26581 0.22301 0.48878 0.48882 0.48882h1.0905c0.2658-3.9e-5 0.48877-0.22301 0.48882-0.48882v-3.5884c0-0.75194 0.15368-1.2652 0.38714-1.5745h1.1e-4c0.20882-0.27665 0.58056-0.4497 1.2911-0.4497 0.48408 0 0.74659 0.11276 0.90135 0.27433 9.29e-4 9.41e-4 0.0019 0.0019 0.0028 0.0028 0.16157 0.16599 0.27542 0.44788 0.27542 0.94068v4.3949c4.3e-5 0.26581 0.22301 0.48878 0.48882 0.48881h1.0771c0.26581-3.8e-5 0.48877-0.223 0.48882-0.48881v-4.4635c0-0.95936-0.24546-1.756-0.81491-2.2729-4.43e-4 -5.53e-4 -8.63e-4 -0.0011-0.0013-0.0016-0.55464-0.5066-1.3368-0.72793-2.267-0.72793zm15.51 0.02074h-5.53e-4c-0.72589 0-1.3897 0.15663-1.9617 0.48233l-0.0012 0.0012c-0.57522 0.32524-1.0298 0.80734-1.3401 1.4112-0.31967 0.60922-0.46915 1.3267-0.46915 2.1324 0 0.60689 0.08227 1.1644 0.25662 1.667 0.17316 0.49912 0.43035 0.93675 0.77104 1.2954 0.33898 0.35688 0.75311 0.63155 1.2256 0.81815 0.01607 0.0043 0.03243 0.0075 0.04895 0.0094l-0.04668-0.0088c0.44678 0.17376 0.94037 0.26022 1.4721 0.26915v2e-3c0.01756-6e-6 0.03471-7.74e-4 0.05219-9.96e-4 0.01243 0 0.02459 7.75e-4 0.03706 7.75e-4v-0.0015c0.5317-0.0089 1.0253-0.09529 1.4721-0.26904l-0.04668 0.0088c0.01652-0.0019 0.03288-0.0051 0.04895-0.0094 0.4725-0.1866 0.88663-0.46127 1.2256-0.81815 0.34069-0.35866 0.59789-0.79629 0.77104-1.2954 0.17435-0.50259 0.25662-1.0601 0.25662-1.667 0-0.80562-0.14948-1.5231-0.46915-2.1324-0.31038-0.6039-0.76491-1.086-1.3401-1.4112l-0.0013-0.0013c-0.56027-0.31897-1.2088-0.47473-1.9171-0.48115-0.01496 0-0.02961-0.0011-0.04463-0.0011zm-30.293 0.10459c-0.2658 3.9e-5 -0.48877 0.22301-0.48882 0.48881v7.9578c0 0.34376-0.08883 0.47738-0.106 0.49216-0.08733 0.07521-0.19007 0.11918-0.40356 0.11918-0.15163 0-0.28113-0.01102-0.38617-0.02971-9.84e-4 -1.66e-4 -0.0019-4.42e-4 -0.0029-6.47e-4 -0.0039-7.19e-4 -0.0079-0.0014-0.01188-0.0019-0.11633-0.0173-0.23034-0.04295-0.34241-0.07736l-2.22e-4 -1.11e-4c-0.30482-0.09335-0.63163 0.1482-0.63198 0.46699v0.84497c2.77e-4 0.20772 0.13465 0.39517 0.33128 0.46213h1.1e-4c0.15187 0.05162 0.31888 0.0917 0.50221 0.12404 0.20567 0.04062 0.42881 0.05846 0.67347 0.05846 0.50425 0 0.95663-0.08861 1.3383-0.29778 0.37462-0.2053 0.66917-0.5198 0.85067-0.9074 2.21e-4 -4.42e-4 5.53e-4 -8.46e-4 7.57e-4 -0.0013 1.11e-4 -4.43e-4 2.22e-4 -9.35e-4 3.32e-4 -0.0014 0.17708-0.37528 0.25608-0.80482 0.25608-1.2752v-7.9329c-4.2e-5 -0.26581-0.22301-0.48878-0.48882-0.48881h-1.11e-4zm22.328 0.43403c0.11767 3.9e-5 0.23574 6e-3 0.35451 0.0175 0.01088 0.0011 0.02181 0.0016 0.03274 0.0016l-0.02064-6.63e-4c0.12362 0.0079 0.24024 0.0214 0.34911 0.04052 0.0038 6.64e-4 0.0076 0.0012 0.01134 0.0017 0.09857 0.01399 0.18169 0.03164 0.25716 0.05208 0.0298 0.0081 0.06054 0.0122 0.09141 0.01221h2.2455v0.2698l-0.93592 0.11043c-0.25638 0.03024-0.39293 0.31814-0.25413 0.53581 0.0911 0.14285 0.16176 0.24579 0.20573 0.36089 0.07731 0.20237 0.11745 0.4304 0.11745 0.68741 0 0.63046-0.21431 1.1044-0.65294 1.4693h-1.11e-4c-0.43916 0.36119-1.0525 0.55159-1.868 0.55159-0.16603 0-0.34305-0.01667-0.52804-0.04333-0.07487-0.01078-0.15122 3e-3 -0.21761 0.03922-0.20949 0.11428-0.38854 0.23906-0.52588 0.40454-0.0017 2e-3 -0.0034 0.0041-0.0051 0.0062-0.13297 0.16783-0.20886 0.38804-0.20886 0.60475 0 0.1641 0.07799 0.3628 0.18876 0.46915 0.0029 0.0028 0.0059 0.0056 9e-3 0.0083 0.12376 0.1108 0.27818 0.17833 0.46288 0.22139 0.0031 7.19e-4 0.0062 0.0014 0.0093 2e-3 0.18094 0.03704 0.38738 0.05403 0.62485 0.05403h1.2679c0.75578 0 1.3067 0.15159 1.6725 0.42626 6.08e-4 5.53e-4 0.0012 8.85e-4 0.0018 0.0014 0.3646 0.27125 0.54457 0.65236 0.54457 1.1992 0 0.694-0.2786 1.1946-0.8725 1.5651v1.11e-4c-0.59815 0.37314-1.496 0.57396-2.6993 0.57396-0.91977 0-1.6058-0.16568-2.069-0.47012l-4.42e-4 -2.21e-4c-1.3e-5 -9e-6 -7.19e-4 -3.87e-4 -7.58e-4 -4.43e-4 -5.5e-5 -4.2e-5 -1.66e-4 -5.2e-5 -2.21e-4 -1.1e-4l-5.54e-4 -3.32e-4c-5.75e-4 -3.88e-4 -0.0012-7.97e-4 -0.0017-0.0012-0.45861-0.29884-0.67185-0.69017-0.67185-1.2293 0-0.37954 0.12072-0.68892 0.36899-0.95483h1.1e-4c0.1879-0.19776 0.46712-0.34403 0.81718-0.45273 0.27298-0.08482 0.3347-0.44338 0.10578-0.61458-0.07604-0.05685-0.14313-0.11978-0.20194-0.19179-0.10109-0.12893-0.15084-0.27233-0.15084-0.44268 0-0.2068 0.05755-0.37782 0.17245-0.52717h1.11e-4c0.08874-0.11422 0.24545-0.2465 0.44441-0.37969 0.22024-0.14749 0.20299-0.47675-0.03144-0.60043-0.26503-0.13979-0.48232-0.31365-0.64754-0.55472-0.20748-0.31337-0.31226-0.67524-0.31226-1.1013 9e-6 -0.46068 0.09931-0.83766 0.29-1.1451 3.32e-4 -5.54e-4 6.53e-4 -9.96e-4 9.74e-4 -0.0015 0.19147-0.31216 0.4662-0.54952 0.83911-0.71745 0.37331-0.16812 0.83538-0.25662 1.391-0.25662h9.73e-4zm-15.918 0.02463c0.828 0 1.4087 0.17796 1.7714 0.49768 0.35806 0.31573 0.55224 0.83103 0.55224 1.5982v4.4462h-0.41178l-0.13247-0.63695c-0.05871-0.28188-0.41368-0.37627-0.60464-0.16078-0.16185 0.1828-0.31553 0.34946-0.45683 0.45997-0.49808 0.3736-1.1215 0.4605-1.6838 0.46267-0.70762-0.01379-1.3994-0.20782-1.7936-0.78509h-1.11e-4c-0.16547-0.25421-0.25456-0.58568-0.25456-1.0097 0-0.62018 0.2421-1.0663 0.7571-1.3982 0.51767-0.33358 1.3475-0.53339 2.4909-0.56629 0.0013 6e-6 0.0027 6e-6 4e-3 0l1.108-0.04473c0.18764-0.0076 0.33582-0.16196 0.33582-0.34976v-0.28536c0-0.62391-0.13653-1.1041-0.47131-1.4018-0.31403-0.2793-0.75062-0.40962-1.2701-0.40962-0.39602 0-0.7767 0.05506-1.1388 0.16553-0.27798 0.0848-0.54193 0.18544-0.79816 0.29487l-0.16985-0.4c0.26754-0.1174 0.55975-0.22484 0.894-0.31431 0.40157-0.10751 0.82485-0.16164 1.2718-0.16164 2.76e-4 0 5.75e-4 -5.53e-4 8.63e-4 -5.53e-4zm8.3729 0.11594v0h3.32e-4c0.64417 0 1.1436 0.11914 1.5173 0.33951 0.19857 0.1171 0.34358 0.26268 0.43852 0.3772 0.28549 0.34439 0.42739 0.86904 0.42739 1.5857v4.2524h-0.6549v-4.1838c0-0.60409-0.14861-1.0943-0.47336-1.4283-0.3216-0.3353-0.80744-0.48947-1.4062-0.48947-0.83341 0-1.4765 0.23341-1.8498 0.72793-0.36349 0.48152-0.52858 1.1511-0.52858 1.9962v3.3773h-0.66807v-6.4292h0.49l0.09357 0.56337c0.04958 0.29854 0.41542 0.38612 0.61837 0.16164 0.28733-0.31783 0.46511-0.53433 1.1263-0.72674 0.0014-5.53e-4 0.0028-8.3e-4 0.0042-0.0013 0.27291-0.0814 0.56034-0.12262 0.86483-0.12264zm15.508 0.02161 4.42e-4 5.54e-4c0.62668 0 1.1612 0.13172 1.6159 0.3906 5.53e-4 5.53e-4 9.63e-4 7.74e-4 0.0014 0.0012 0.4583 0.25868 0.81031 0.62905 1.0645 1.1241 5.53e-4 9.96e-4 1e-3 2e-3 0.0015 3e-3 0.25671 0.48868 0.38952 1.0884 0.38952 1.8083 0 0.54354-0.07392 1.022-0.21804 1.4375-0.1446 0.4168-0.35059 0.76213-0.61718 1.0428-0.61487 0.61818-1.4175 0.85662-2.2287 0.87066-0.86082-0.01735-1.6651-0.27039-2.2453-0.87099-0.26659-0.28066-0.47258-0.62598-0.61718-1.0428-0.14413-0.41548-0.21804-0.89395-0.21804-1.4375 0-0.71992 0.1328-1.3196 0.38952-1.8083 5.53e-4 -9.96e-4 9.57e-4 -2e-3 0.0015-3e-3 0.25419-0.49509 0.6062-0.86547 1.0645-1.1241 5.53e-4 -5.54e-4 8.52e-4 -7.75e-4 0.0014-0.0012 0.45432-0.25865 0.98829-0.39037 1.6143-0.3906zm-30.08 0.10384h0.66807v7.7218c0 0.3029-0.03689 0.5656-0.11392 0.78862-0.05624 0.16284-0.20161 0.40647-0.28236 0.50848-0.09043 0.11424-0.21198 0.1999-0.34786 0.27437h-1.11e-4c-0.24914 0.13654-0.58005 0.21156-1.0018 0.21156-0.21227 0-0.39292-0.01583-0.54154-0.04549-0.0026-5.53e-4 -0.0053-1e-3 -0.0079-0.0015-0.10123-0.01779-0.17617-0.04114-0.2577-0.0631v-0.41534c0.05678 0.0118 0.11242 0.0298 0.16975 0.03836 0.15431 0.02727 0.32213 0.0403 0.50589 0.0403 0.33277 0 0.63604-0.09559 0.86029-0.28871 0.25941-0.2234 0.34922-0.57369 0.34922-1.0226zm22.077 0.08082v0c-0.53502 0-0.98773 0.14983-1.3039 0.46051-0.31442 0.30914-0.46375 0.7633-0.46375 1.3072 0 0.50488 0.15814 0.93853 0.4752 1.2306 0.31863 0.2935 0.76814 0.43079 1.3056 0.43079 0.55422 0 1.0081-0.13546 1.3211-0.43338 0.30956-0.29464 0.45964-0.73102 0.45964-1.2468 0-0.54754-0.14882-1.0007-0.4658-1.3028-0.31578-0.30502-0.77347-0.44624-1.328-0.44624zm-27.946 0.23415c-0.71657 0-1.3118 0.28834-1.6784 0.82972-5.53e-5 0-1.66e-4 0-2.213e-4 5.53e-4 -5.53e-5 0-1.66e-4 -1.1e-5 -2.213e-4 5.54e-4 -0.36484 0.53494-0.53539 1.2455-0.53539 2.119 0 0.86791 0.16707 1.5616 0.5302 2.0703 4.426e-4 6.64e-4 7.192e-4 0.0015 0.00119 0.0022 6.804e-4 0.0011 0.00136 0.0022 0.00205 0.0033 0.36998 0.50901 0.96303 0.77342 1.6808 0.77342 0.80712 0 1.4345-0.227 1.8031-0.70762 0.36135-0.47115 0.52274-1.1361 0.52274-1.985v-0.18746c0-0.89594-0.15385-1.6038-0.49389-2.1221-1.11e-4 0-2.21e-4 -5.53e-4 -3.32e-4 -5.53e-4 -0.34643-0.5345-0.99137-0.79482-1.8294-0.79535-7.579e-4 0-0.00151-5.54e-4 -0.00227-5.54e-4zm35.976 0.03328c-9.4e-4 0-2e-3 5.53e-4 -0.0029 5.53e-4 -0.0098 5e-6 -0.01903 7.74e-4 -0.02874 8.85e-4 -0.0059-3.3e-5 -0.01149-5.53e-4 -0.0174-5.53e-4 -9.4e-4 0-0.0021-5.53e-4 -3e-3 -5.53e-4 -0.0062 0-0.01226 5.53e-4 -0.01848 5.53e-4v0.0016c-0.50706 0.0099-0.94315 0.12448-1.2896 0.35937-0.35547 0.24101-0.62187 0.5914-0.78768 1.024v5.53e-4c-0.16496 0.42642-0.24387 0.92266-0.24387 1.4882 0 0.56987 0.07923 1.0725 0.24376 1.5065 0.16561 0.43684 0.43386 0.79159 0.79319 1.0368 0.34683 0.23962 0.78192 0.35728 1.2842 0.36661v0.0014c0.0085 5.6e-5 0.01663 7.75e-4 0.02518 7.75e-4 0.0085 0 0.0166-7.19e-4 0.02507-7.75e-4 0.0046 2.3e-5 0.0091 5.54e-4 0.01372 5.54e-4 0.0085 0 0.01667-7.2e-4 0.02517-7.75e-4v-8.85e-4c0.50223-0.0093 0.93735-0.127 1.2842-0.36661 0.35933-0.24525 0.62758-0.6 0.79319-1.0368 0.16452-0.43401 0.24376-0.93666 0.24376-1.5065 0-0.56551-0.0789-1.0617-0.24387-1.4882v-5.53e-4c-0.1658-0.43259-0.43221-0.78297-0.78768-1.024-0.34643-0.23489-0.78252-0.34951-1.2896-0.35937v-0.0023c-0.0062 0-0.01224-5.53e-4 -0.01848-5.53e-4zm-8.03 0.43263c0.44115 0 0.68853 0.10154 0.84214 0.25014 9.69e-4 9.41e-4 0.0019 0.0019 0.0029 0.0028 0.14939 0.14219 0.24873 0.3669 0.24873 0.79611 0 0.39201-0.09059 0.59549-0.24225 0.73981-0.14603 0.139-0.39503 0.24042-0.83846 0.24042-0.42365 0-0.66997-0.09707-0.83133-0.24571-0.16252-0.14969-0.24949-0.34088-0.24949-0.71572 0-0.42434 0.09874-0.65489 0.25456-0.8081 0.16602-0.16305 0.39955-0.25975 0.81318-0.25975zm-27.946 0.23371v5.54e-4h3.32e-4c0.70898 0 1.048 0.17287 1.2447 0.47682 6.08e-4 9.96e-4 0.0012 0.0019 0.0018 0.0029 1.66e-4 0 2.77e-4 5.53e-4 4.43e-4 7.75e-4 0.22883 0.34902 0.37904 0.92504 0.37904 1.7376v0.18747c0 0.75718-0.15399 1.2665-0.37828 1.5589-0.20502 0.26731-0.56366 0.43371-1.2476 0.43371-0.56623 0-0.87042-0.15019-1.1134-0.48374-5.53e-5 0-1.106e-4 1.1e-5 -2.213e-4 -5.53e-4 -0.24509-0.34253-0.40054-0.88759-0.40054-1.6651 0-0.7818 0.1557-1.3466 0.41394-1.725 3.872e-4 -5.53e-4 7.192e-4 -0.0012 0.00108-0.0017 0.25037-0.36999 0.54403-0.52244 1.0988-0.52253zm35.944 0.03469c0.42778 0.0028 0.73065 0.09342 0.94727 0.2403 0.23498 0.15932 0.40344 0.37284 0.52706 0.69562 0 5.53e-4 5.54e-4 0.0011 6.48e-4 0.0016 0.12592 0.3253 0.19697 0.73603 0.19697 1.2361 0 0.50454-0.07121 0.92299-0.19838 1.2584-0.12371 0.32634-0.29396 0.54363-0.53387 0.70718-8.85e-4 6.09e-4 -0.0017 0.0011-0.0026 0.0017-0.21744 0.15026-0.51132 0.24014-0.92512 0.24376-0.42019-0.0019-0.71734-0.09236-0.9369-0.24408-8.85e-4 -6.09e-4 -0.0017-0.0011-0.0026-0.0017-0.23992-0.16355-0.41016-0.38084-0.53387-0.70718-0.12717-0.33546-0.19838-0.75392-0.19838-1.2585 6e-6 -0.50006 0.07106-0.91079 0.19698-1.2361 0-5.53e-4 6.47e-4 -0.0011 6.47e-4 -0.0016 0.12363-0.32278 0.29209-0.5363 0.52706-0.69562 0.2145-0.14544 0.51389-0.23548 0.93506-0.23998zm-22.572 1.8818-0.94565 0.03792h0.0068c-0.0043 0-0.0086 5.53e-4 -0.01297 5.53e-4 -0.91758 0.03408-1.5716 0.1628-2.0076 0.45424-0.41063 0.27451-0.6456 0.71952-0.6456 1.2194 0 0.4309 0.1586 0.81245 0.45867 1.0379 0.29373 0.22072 0.67561 0.32361 1.1186 0.32361 0.67545 0 1.2564-0.18354 1.7044-0.55494h1.11e-4c0.45799-0.37974 0.68719-0.9664 0.68719-1.6816v-0.48719c-5.5e-5 -0.19876-0.16542-0.35759-0.36402-0.34965zm-0.33592 0.71399v0.12285c0 0.57927-0.14764 0.90517-0.43404 1.1426-0.31142 0.25814-0.70339 0.39384-1.2577 0.39384-0.33803 0-0.5514-0.0729-0.69811-0.18315-0.12481-0.09378-0.17925-0.18457-0.17925-0.47822 0-0.32462 0.07487-0.46376 0.33474-0.63749 0.21765-0.14551 0.79061-0.30497 1.6444-0.33669h-0.01178c0.0044 0 0.0088-5.53e-4 0.01318-5.53e-4zm17.223 0.16348-0.01361 0.01254c4e-3 -0.0034 0.0079-7e-3 0.01167-0.01059 6.53e-4 -6.64e-4 0.0013-0.0013 0.0019-0.0019zm-31.97 1.4811 2.212e-4 5.53e-4 3.32e-4 5.54e-4c0.00495 9e-3 0.010279 0.01774 0.015992 0.02625zm27.69 0.15915c7.13e-4 8.3e-4 0.0015 0.0015 0.0022 0.0024l0.0031 0.0039c-0.0017-0.0021-0.0035-0.0042-0.0053-0.0063zm-13.194 0.51508c-0.0012 8.85e-4 -0.0023 0.0018-0.0035 0.0027 7.08e-4 -5.54e-4 0.0013-0.0012 0.0021-0.0017zm-4.0704 0.04689c9.68e-4 0.0016 0.0019 0.0033 0.0029 0.0049 0.0012 0.0019 0.0024 0.0038 0.0037 0.0057zm18.66 0.14576v5.53e-4c-0.34494 0-0.65433 0.05089-0.92555 0.15883-0.27051 0.10767-0.49664 0.27752-0.65197 0.49865-0.0012 0.0017-0.0024 0.0034-0.0036 0.0052-0.15316 0.22676-0.22604 0.50796-0.22604 0.81761 0 0.42062 0.2273 0.80941 0.596 1.0253l1.11e-4 1.11e-4c0.37951 0.22616 0.88139 0.32361 1.5132 0.32361 0.60871 0 1.1183-0.05861 1.5365-0.18358 1.66e-4 -4.3e-5 2.76e-4 -5.3e-5 4.42e-4 -1.11e-4 0.4188-0.11979 0.7493-0.29858 0.97785-0.55527 0.22605-0.24504 0.34954-0.56687 0.34954-0.90405 0-0.30671-0.07584-0.57591-0.25197-0.76682-0.0015-0.0016-3e-3 -0.0032-0.0045-0.0048-0.16923-0.17662-0.40716-0.28379-0.68882-0.33517-5.5e-5 -1.1e-5 -1.66e-4 1.7e-5 -2.21e-4 0-0.0011 0-0.0019-7.74e-4 -3e-3 -9.95e-4 -0.0038-5.54e-4 -0.0076-8.3e-4 -0.01145-0.0011-0.2701-0.05196-0.58712-0.07725-0.95862-0.07725h-1.2466c-4.42e-4 0-8.63e-4 -5.54e-4 -0.0013-5.54e-4zm1.8391 2.6459c3.87e-4 -1.11e-4 8.85e-4 -2.21e-4 0.0013-3.32e-4 0.0022-6.64e-4 0.0043-0.0013 0.0065-0.0021zm-3.0501-0.13992c3.87e-4 2.22e-4 6.75e-4 6.25e-4 0.0011 8.63e-4 0.0049 0.0028 0.0099 0.0055 0.01502 8e-3zm3.364-2.4327c0.0075 5.54e-4 0.01501 0.0011 0.02248 0.0019l-0.01913-0.0019c-0.0011-1.1e-5 -0.0022-1.1e-5 -0.0034 0zm-2.1534 0.62692v0h1.2483c0.34526 0 0.62804 0.02476 0.83814 0.06613 7e-3 9.4e-4 0.01396 0.0017 0.02096 0.0022l-0.0134-0.0012c0.1815 0.03277 0.26551 0.08632 0.30783 0.12945 0.02487 0.02772 0.06515 0.09472 0.06515 0.28946 0 0.19201-0.04205 0.29807-0.16488 0.43058-0.0024 0.0025-0.0048 0.0051-0.0071 0.0077-0.10984 0.12355-0.3146 0.25295-0.64905 0.34846-4e-3 0.0012-8e-3 0.0024-0.01199 0.0038l0.0061-0.0021c-0.3237 0.09693-0.77408 0.15462-1.3373 0.15462-0.5552 0-0.94285-0.09847-1.1553-0.22518-0.0013-7.3e-4 -0.0026-0.0014-0.0039-0.0022-0.21992-0.12839-0.25013-0.18298-0.25013-0.42172 0-0.20434 0.04142-0.32832 0.10481-0.42312 0.07397-0.10424 0.16866-0.18153 0.3356-0.24797 0.17056-0.06789 0.39076-0.10908 0.66623-0.10913zm2.8168 1.3911-0.0082 0.0089c0.0023-0.0023 0.0046-0.0047 0.0068-7e-3 5.53e-4 -5.7e-4 8.79e-4 -0.0013 0.0014-0.0018zm-26.046 0.76845c0.0018 3.88e-4 0.0036 7.36e-4 0.0054 0.0011 7.91e-4 1.66e-4 0.0018 5e-5 0.0026 2.21e-4zm21.043 0.47369c2.22e-4 1.66e-4 4.43e-4 3.87e-4 6.48e-4 5.53e-4 2.21e-4 1.11e-4 4.42e-4 1.66e-4 6.47e-4 3.32e-4zm20.306 48.029c-0.54703 4e-5 -1.0412 0.09525-1.4663 0.30794-0.3546 0.17741-0.65314 0.44288-0.86107 0.78274-0.14817 0.24218-0.18644 0.31401-0.27795 0.58668-0.12522 0.37311-0.18199 0.79588-0.18199 1.2682v0.08212l-0.91237 0.24614c-0.2119 0.05714-0.36186 0.25301-0.36164 0.4725v0.49962c3.8e-5 0.26581 0.22301 0.48878 0.48882 0.48882h0.7852v5.5501c3.8e-5 0.26581 0.22301 0.48878 0.48882 0.48882h1.0905c0.26581-3.9e-5 0.48878-0.22301 0.48882-0.48882v-5.5501h1.3039c0.26581-3.2e-5 0.48878-0.223 0.48881-0.48882v-0.81275c-3.8e-5 -0.26581-0.223-0.48878-0.48881-0.48882h-1.3039v-0.01135c0-0.48479 0.10256-0.78359 0.19233-0.90005 0.1048-0.13432 0.22096-0.19892 0.54046-0.19892 0.15776 0 0.30894 0.01675 0.45672 0.05024 0.0013 2.93e-4 0.0025 5.79e-4 0.0038 8.65e-4 0.0029 6.48e-4 0.0058 0.0013 0.0086 0.0018 0.1746 0.03478 0.32754 0.07311 0.45716 0.11302 0.24837 0.07668 0.52136-0.06183 0.60627-0.30751v-2.16e-4l0.28233-0.81912v-4.32e-4c0.08685-0.25285-0.05394-0.53775-0.30751-0.62247l-5.53e-4 -1.1e-4c-0.19958-0.066447-0.4223-0.12304-0.6699-0.17197v-1.11e-4c-0.26482-0.05321-0.54813-0.07799-0.85024-0.07801h-1.11e-4zm61.107 0.06861c-0.26576 1.05e-4 -0.48867 0.22305-0.48871 0.48882v9.7272c4e-5 0.2658 0.22301 0.48877 0.48882 0.48882h1.0838c0.26581-3.2e-5 0.48888-0.223 0.48892-0.48882v-2.2597l0.31767-0.27747 2.2236 2.8387v2.16e-4c0.0925 0.11795 0.23485 0.18718 0.38476 0.18714h1.3134c0.38546 1.49e-4 0.62285-0.49006 0.38358-0.79233v-1.1e-4l-2.8378-3.5861 2.5917-2.6179v-2.16e-4c0.14224-0.14392 0.17247-0.36641 0.1034-0.53193-0.0691-0.16552-0.24855-0.30047-0.45088-0.30059h-1.2808c-0.1308 2.5e-5 -0.25648 0.05268-0.34825 0.14587l-2.3875 2.4221-3e-3 0.0032c-2e-3 0.0022-4e-3 0.0044-7e-3 0.0066-1e-3 0.0011-3e-3 0.0029-4e-3 4e-3v-4.9687c-4e-5 -0.26581-0.22301-0.48878-0.48882-0.48882l-1.0835-1.11e-4zm-61.107 0.63133 2.22e-4 1.1e-4c0.2643 0 0.50222 0.02183 0.71366 0.0644 5.53e-4 7.2e-5 7.74e-4 1.44e-4 0.0012 2.16e-4 0.14514 0.02868 0.25711 0.0633 0.3772 0.09649l-0.145 0.42064c-0.10579-0.02766-0.20578-0.05686-0.32588-0.08082-0.19849-0.04471-0.40155-0.06688-0.60789-0.06688-0.45435 0-0.85095 0.15933-1.0919 0.46785-1.11e-4 1.6e-4 -3.32e-4 2.71e-4 -4.43e-4 4.31e-4 -3.87e-4 4.32e-4 -7.19e-4 8.64e-4 -0.0011 0.0013-0.24491 0.31631-0.33938 0.75673-0.33938 1.3293v0.36132c3.3e-5 0.19327 0.1567 0.34994 0.34997 0.34997h1.4429v0.39038h-1.4429c-0.19327 3.4e-5 -0.34994 0.1567-0.34997 0.34997v5.6889h-0.66806v-5.6889c-3.4e-5 -0.19331-0.15677-0.35-0.35008-0.34997h-0.92393v-0.12717l1.0151-0.27391c0.15272-0.04119 0.25885-0.17969 0.25889-0.33787v-0.35019c0-0.34938 0.05634-0.64638 0.10056-0.90605 0.04488-0.26356 0.16218-0.50932 0.32972-0.69452 0.16754-0.1852 0.30377-0.3109 0.5038-0.41098 0.30541-0.1528 0.68751-0.23401 1.1533-0.23404zm61.318 0.06872 0.66127 1.11e-4v4.8398c0 0.16095-7e-3 0.36176-0.0196 0.60108v0.0013c-6e-3 0.10465-9e-3 0.18322-0.014 0.27196-0.018 0.3364 0.4031 0.50151 0.61859 0.24257 0.0613-0.07366 0.10212-0.12164 0.18304-0.21988 0-3.26e-4 5.5e-4 -6.48e-4 7.7e-4 -9.73e-4 0.17543-0.2076 0.32265-0.3739 0.43998-0.49768v-1.11e-4l2.3286-2.3625h0.68632l-2.4536 2.4784c-0.12448 0.12577-0.13552 0.32466-0.0257 0.46342l2.7596 3.4873h-0.77471l-2.3879-3.0483c-0.12372-0.15797-0.35463-0.17982-0.50578-0.04787l-0.71562 0.62496c-0.0761 0.06648-0.11973 0.1626-0.11971 0.26364v2.2074h-0.66159zm-60.696 0.43252 0.0052 0.0011c-9.95e-4 -2.55e-4 -2e-3 -5.09e-4 -3e-3 -7.57e-4 -7.2e-4 -1.6e-4 -0.0014-1.66e-4 -0.0022-3.26e-4zm49.334 1.4567c-0.72589 5.5e-5 -1.3897 0.15664-1.9618 0.48233-5.5e-4 4.42e-4 -6.1e-4 7.43e-4 -1e-3 0.0013-0.57523 0.32524-1.0298 0.80734-1.3401 1.4112-0.31967 0.60921-0.46915 1.3267-0.46915 2.1324 0 0.60689 0.0823 1.1644 0.25662 1.667 0.17315 0.49912 0.43035 0.93675 0.77104 1.2954 0.33897 0.35688 0.7531 0.63155 1.2256 0.81815 0.0161 0.0043 0.0324 0.0075 0.0489 0.0094l-0.0467-0.0088c0.44677 0.17376 0.94037 0.26022 1.4721 0.26915v0.0021c0.0176-6e-6 0.0347-9.09e-4 0.0522-0.0011 0.0124 1.11e-4 0.0246 7.51e-4 0.0371 7.57e-4v-0.0015c0.5317-0.0089 1.0253-0.09529 1.4721-0.26904l-0.0467 0.0088c0.0165-0.0019 0.0329-0.0051 0.049-0.0094 0.4725-0.1866 0.88663-0.46127 1.2256-0.81815 0.34069-0.35866 0.59789-0.79629 0.77104-1.2954 0.17435-0.50259 0.25662-1.0601 0.25662-1.667 0-0.80562-0.14948-1.5231-0.46915-2.1324-0.31039-0.6039-0.76491-1.086-1.3401-1.4112-5.5e-4 -5.53e-4 -7.7e-4 -8.54e-4 -1e-3 -0.0013-0.56027-0.31897-1.2089-0.47472-1.9172-0.48114-0.015-1.1e-4 -0.0295-0.0012-0.0445-0.0012l5.5e-4 -3.26e-4zm-18.767 0.03328c-0.71741 0-1.3743 0.16637-1.9351 0.5088-5.53e-4 2.38e-4 -7.75e-4 4.15e-4 -0.0012 6.48e-4v1.11e-4c-5.53e-4 3.21e-4 -0.0012 6.47e-4 -0.0017 9.73e-4 -0.5541 0.34183-0.98844 0.83814-1.2867 1.453-0.0087 0.02462-0.01453 0.05014-0.01751 0.07607l0.01697-0.07466c-0.2961 0.6162-0.43598 1.3297-0.43598 2.1246 0 0.8159 0.15466 1.5393 0.48687 2.1474 0.327 0.59855 0.80138 1.0714 1.3958 1.3857 0.0014 7.29e-4 0.0028 0.0014 0.0042 0.0022 0.59585 0.30761 1.2822 0.45456 2.0369 0.45456 0.50918 0 0.9594-0.03627 1.3559-0.1154 0.39452-0.07785 0.78807-0.20101 1.1799-0.36726 0.1799-0.07635 0.29812-0.25524 0.29789-0.45068v-0.91205c-1.7e-5 -0.33532-0.36366-0.57941-0.67401-0.4524-0.35446 0.14515-0.69246 0.2532-1.013 0.32566-0.30572 0.06911-0.6735 0.10664-1.1005 0.10664-0.64877 0-1.0637-0.1666-1.3693-0.48255-0.22169-0.22917-0.3717-0.55845-0.44139-1.0091h4.4311c0.2658-4.2e-5 0.48878-0.22301 0.48881-0.48882v-0.64398c0-0.68191-0.12828-1.3035-0.39978-1.8446-5.53e-4 -2.16e-4 -6.08e-4 -4.31e-4 -8.85e-4 -6.48e-4 -0.27097-0.54388-0.67657-0.98406-1.1926-1.2886-0.52351-0.30894-1.1414-0.45502-1.8226-0.45532-6.64e-4 -1.11e-4 -0.0014-2.22e-4 -2e-3 -3.27e-4zm-1.9351 0.5088 0.02539-0.01405c-6.63e-4 3.2e-4 -0.0013 6.46e-4 -0.0019 9.72e-4 -8e-3 0.0041-0.0158 0.0084-0.02344 0.01307zm-18.363-0.49627c-0.50361 2.7e-5 -0.98928 0.0613-1.4529 0.18541-0.44526 0.11919-0.84683 0.26425-1.2047 0.43922v1.1e-4c-0.2306 0.11279-0.33557 0.39491-0.2348 0.63101l0.33474 0.78725v3.24e-4c0.10635 0.24955 0.40879 0.36595 0.655 0.25208 0.28531-0.1319 0.58785-0.247 0.90913-0.345 0.29356-0.08955 0.60324-0.13506 0.93473-0.13506 0.40718 0 0.64722 0.09265 0.80497 0.23296 0.10958 0.09745 0.22478 0.34766 0.23339 0.82798l-0.76326 0.0309-5.53e-4 -2.16e-4c-2e-3 5.8e-5 -0.0037 3.73e-4 -0.0057 4.32e-4 -1.2101 0.03521-2.1573 0.23387-2.8458 0.67747-0.68939 0.44418-1.078 1.1622-1.078 1.9862 0 0.52307 0.11307 0.99875 0.36748 1.3903v1.11e-4c0 3.26e-4 0 7.57e-4 5.54e-4 0.0011 0 1.44e-4 5.53e-4 2.88e-4 5.53e-4 4.32e-4v1.1e-4c9.4e-4 0.0015 0.0019 3e-3 0.0028 0.0044 0.24839 0.37302 0.59722 0.65996 1.014 0.8403 6.63e-4 3.27e-4 0.0014 6.51e-4 2e-3 9.73e-4 0.41098 0.17552 0.86882 0.25813 1.3611 0.25813 0.4482 0 0.84206-0.04362 1.1877-0.14479 0.0015-4.21e-4 0.0031-8.54e-4 0.0046-0.0013 0.33805-0.10238 0.64623-0.25529 0.91453-0.45921l0.0066-0.0045c0.02857-0.0223 0.05191-0.04859 0.0792-0.07196l0.03469 0.16715c0.04663 0.22472 0.24884 0.38935 0.47834 0.38952h0.7947c0.2658-4.3e-5 0.48878-0.22301 0.48882-0.48882v-4.6574c0-0.88942-0.23988-1.6388-0.7893-2.1233-0.54023-0.47631-1.3068-0.67224-2.2342-0.67228v0zm-3.3464 6.9613-0.0078-0.01253c9.4e-4 0.0016 0.0019 0.0032 0.0029 0.0049 0.0016 0.0026 0.0032 0.0051 0.0049 0.0077zm-1.8158-6.8458c-0.40136 2.7e-5 -0.7836 0.07481-1.1315 0.23004-8.3e-4 3.6e-4 -0.0017 7.17e-4 -0.0025 0.0011 0 1.11e-4 -5.54e-4 3.27e-4 -6.64e-4 4.32e-4 -0.26969 0.12232-0.50978 0.29081-0.72901 0.48525l-0.01394-0.14846v-3.26e-4c-0.0234-0.24812-0.23776-0.44298-0.48698-0.4429h-0.90599c-0.2658 4.3e-5 -0.48878 0.22301-0.48882 0.48882v6.8515c3.9e-5 0.2658 0.22302 0.48877 0.48882 0.48882h1.0966c0.26581-4.3e-5 0.48878-0.22301 0.48882-0.48882v-3.6758c0-0.21506 0.01996-0.40885 0.06757-0.58229 0.06068-0.22102 0.05744-0.20499 0.12561-0.35247 0.07972-0.17246 0.17676-0.31532 0.29109-0.4365 0.0012-0.0012 0.0024-0.0024 0.0034-0.0037 0.14906-0.16123 0.31115-0.27555 0.50254-0.35721 0.0011-4.26e-4 0.0023-8.58e-4 0.0034-0.0013 0.19753-0.08604 0.40009-0.12826 0.62593-0.12826 0.10541 0 0.2229 7e-3 0.35127 0.02183 0.12725 0.01468 0.23836 0.03453 0.33268 0.05781v-1.07e-4c0.27549 0.06818 0.56121-0.12442 0.6014-0.40529v-2.16e-4l0.13809-0.96207v-2.16e-4c0.03641-0.25306-0.13613-0.49794-0.38671-0.54878-0.14507-0.02957-0.30235-0.05001-0.47283-0.06375-0.0019-1.55e-4 -0.0034-6.01e-4 -0.0054-7.56e-4 -0.0092-7.28e-4 -0.0185-0.0011-0.02777-0.0011h-9.96e-4c-0.15873-0.01551-0.31411-0.02528-0.46385-0.02528zm13.271 0c-0.35048 7.2e-5 -0.68898 0.04789-1.0098 0.14641-0.31642 0.09714-0.60864 0.24359-0.87012 0.43544l-0.0084-0.0496v-4.31e-4c-0.03965-0.23259-0.24609-0.40681-0.48201-0.40681h-0.87996c-0.26581 3.2e-5 -0.48878 0.22311-0.48881 0.48892v6.8515c3.8e-5 0.26581 0.223 0.48878 0.48881 0.48882h1.0901c0.2658-4.3e-5 0.48878-0.22301 0.48882-0.48882v-3.6259c0-0.41217 0.0417-0.75698 0.11408-1.0317 0.04032-0.1585 0.10787-0.33204 0.19392-0.4649 0.07977-0.1217 0.1749-0.21275 0.29015-0.28755 0.18544-0.12034 0.46979-0.20238 0.88309-0.20238 0.27665 0 0.46738 0.05206 0.5919 0.12318 0.0032 0.0018 0.0063 0.0036 0.0095 0.0053v2.17e-4c0.13309 0.07209 0.21251 0.15602 0.28493 0.31864v1.07e-4c5.53e-4 6.79e-4 5.53e-4 0.0014 8.85e-4 0.0021 6.64e-4 0.0015 0.0013 3e-3 2e-3 0.0045 0.07424 0.16034 0.12577 0.39943 0.12577 0.71983v4.4386c3.8e-5 0.2658 0.22301 0.48877 0.48881 0.48882h1.0836c0.26581-3.2e-5 0.48888-0.223 0.48892-0.48882v-3.8323c0-0.67704 0.14556-1.1211 0.36132-1.3835 0.20427-0.24844 0.53154-0.39654 1.1398-0.39654 0.40536 0 0.60718 0.09372 0.75192 0.25564 0.0018 2e-3 0.0037 0.0039 0.0055 0.0058 0.1425 0.15442 0.25121 0.43259 0.25121 0.91226v4.4386c3.8e-5 0.26581 0.223 0.48878 0.48881 0.48882h1.077c0.2658-4.3e-5 0.48878-0.22301 0.48881-0.48882v-4.4886c0-0.94523-0.21972-1.725-0.7504-2.2426v-6.49e-4c-5.53e-4 -3.26e-4 -7.74e-4 -5.42e-4 -0.0011-8.64e-4 -0.5174-0.50769-1.2604-0.73279-2.1342-0.73279-0.45953 0-0.89906 0.0786-1.3088 0.23486-0.3008 0.13401-0.32104 0.11349-0.62 0.32261-0.14028 0.09873-0.2687 0.21071-0.38646 0.33275-0.17642-0.21643-0.38875-0.40556-0.65046-0.54079-0.45556-0.24166-0.99453-0.3494-1.5985-0.34943v0zm39.353 0c-0.40143 0-0.78385 0.07479-1.1318 0.23004-8.3e-4 3.6e-4 -2e-3 7.17e-4 -2e-3 0.0011 0 1.11e-4 -5.5e-4 3.27e-4 -6.6e-4 4.32e-4 -0.2695 0.12223-0.50945 0.29056-0.72858 0.48482l-0.0138-0.14803v-3.26e-4c-0.0234-0.24809-0.23768-0.44294-0.48687-0.4429h-0.90642c-0.26583 2.2e-5 -0.48889 0.223-0.48893 0.48882v6.8515c4e-5 0.26582 0.2231 0.48879 0.48893 0.48882h1.0969c0.26582-2.2e-5 0.48878-0.223 0.48882-0.48882v-3.6758c0-0.30372 0.0467-0.56319 0.13258-0.78876 3e-3 -0.01275 5e-3 -0.02566 7e-3 -0.03868l-7e-3 0.03663c0.0897-0.23904 0.20626-0.4272 0.35083-0.58044 1e-3 -0.0012 2e-3 -0.0024 3e-3 -0.0037v-2.16e-4c0.14885-0.16093 0.31126-0.27534 0.50265-0.357 1e-3 -4.26e-4 2e-3 -8.59e-4 3e-3 -0.0013 0.19753-0.08604 0.40009-0.12826 0.62594-0.12826 0.10541 0 0.2226 7e-3 0.35105 0.02183 0.12731 0.01468 0.23878 0.03458 0.33289 0.05781v-1.07e-4c0.27565 0.06823 0.56157-0.12459 0.60152-0.40573v4.31e-4l0.13798-0.96229v-2.16e-4c0.0364-0.25306-0.13613-0.49795-0.38671-0.54878-0.14505-0.02956-0.30239-0.05001-0.47283-0.06375-2e-3 -1.55e-4 -3e-3 -6.04e-4 -5e-3 -7.56e-4 -9e-3 -7.28e-4 -0.0185-0.0011-0.0278-0.0011h-1e-3c-0.15877-0.01551-0.31429-0.02528-0.46407-0.02528zm-22.946 0.12534c-0.31607-1e-5 -0.55731 0.32073-0.46969 0.62442v3.26e-4l1.9837 6.8514c0.06005 0.20757 0.25349 0.35308 0.46958 0.35311h1.2282c0.2083-3e-5 0.39626-0.13494 0.463-0.33225v-2.16e-4l1.3391-3.9671c0-8.63e-4 5.53e-4 -0.0017 5.53e-4 -0.0026 0.01802-0.05038 0.03157-0.09963 0.04852-0.14976 0.01439 0.04358 0.02764 0.08496 0.04235 0.12912l1.2793 3.9836v3.26e-4c0.06463 0.20054 0.25424 0.33878 0.46494 0.33895h1.2678c0.21596 1.43e-4 0.40947-0.14499 0.4698-0.35235v-1.1e-4l1.9901-6.8514v-1.11e-4c0.0883-0.30392-0.15319-0.62547-0.4697-0.62528h-1.1102c-0.21784 1.6e-4 -0.41235 0.14819-0.47066 0.35808-0.33548 1.2257-0.81795 2.9179-1.1029 3.9774-0.0034-0.01028-0.0064-0.02164-0.0097-0.03187 0-7.93e-4 -5.53e-4 -0.0016-5.53e-4 -0.0024l-1.2805-3.9628v-3.27e-4c-0.06496-0.20018-0.25447-0.33795-0.46494-0.33798h-1.1753c-0.20904-1.1e-5 -0.39769 0.13578-0.46385 0.33409l-1.3265 3.9694c-0.0037 0.01565-0.0063 0.03154-0.0078 0.04754l0.0074-0.04603c-0.0035 0.01068-7e-3 0.02337-0.01048 0.03414-0.33495-1.0613-0.71633-2.6166-1.0903-3.9798v-4.31e-4c-0.05802-0.21053-0.25306-0.35898-0.47142-0.35894zm-30.816 0.10751c-0.0024 0.0011-0.0048 0.0022-0.0071 0.0033-6.63e-4 3.21e-4 -0.0013 7.55e-4 -0.0019 0.0011zm52.624 0c-2e-3 0.0011-5e-3 0.0022-7e-3 0.0033-6.6e-4 3.21e-4 -1e-3 7.55e-4 -2e-3 0.0011zm-7.2602 0.30621v0l5.5e-4 3.27e-4c0.62668 0 1.1612 0.13172 1.6159 0.3906 5.5e-4 3.87e-4 9.4e-4 8.07e-4 1e-3 0.0012 0.4583 0.25868 0.81031 0.62905 1.0645 1.1241 5.5e-4 9.96e-4 1e-3 0.0021 1e-3 0.0031 0.25672 0.48868 0.38952 1.0884 0.38952 1.8083 0 0.54354-0.0739 1.022-0.21804 1.4375-0.1446 0.4168-0.3506 0.76213-0.61718 1.0428-0.61487 0.61818-1.4174 0.85662-2.2286 0.87066-0.86083-0.01735-1.6651-0.27039-2.2453-0.87099-0.26659-0.28065-0.47258-0.62598-0.61718-1.0428-0.14413-0.41548-0.21804-0.89396-0.21804-1.4375 0-0.71992 0.1328-1.3196 0.38952-1.8083 5.5e-4 -9.96e-4 8.3e-4 -0.0021 1e-3 -0.0031 0.25419-0.49509 0.6062-0.86547 1.0645-1.1241 5.6e-4 -3.88e-4 8.3e-4 -8.01e-4 1e-3 -0.0012 0.45428-0.25863 0.98822-0.39035 1.6141-0.3906zm-18.766 0.03296h5.54e-4v1.11e-4c0.58304 0 1.0683 0.12195 1.4688 0.35829 0.40327 0.23797 0.708 0.5672 0.92306 0.99978 0 2.16e-4 5.53e-4 4.32e-4 7.74e-4 6.48e-4 0.215 0.42849 0.32556 0.93602 0.32556 1.5306v0.43274h-4.61c-0.20004-1.9e-5 -0.35943 0.16734-0.34965 0.36715 0.03738 0.76069 0.25116 1.3876 0.6779 1.8287 0.45035 0.46551 1.094 0.69573 1.8725 0.69573 0.46763 0 0.88527-0.04027 1.2549-0.12382 0.2705-0.06115 0.5495-0.15072 0.83274-0.25413v0.46386c-0.30717 0.12188-0.61195 0.21798-0.91345 0.27747 0 7.2e-5 -5.53e-4 1.44e-4 -7.74e-4 2.16e-4 -0.33654 0.06721-0.74375 0.10189-1.2196 0.10189-0.66391 0-1.2324-0.12728-1.7145-0.3759-0.4761-0.25195-0.84217-0.61526-1.1082-1.1021-0.26407-0.48334-0.40119-1.0841-0.40119-1.8118 0-0.71293 0.1249-1.3177 0.36694-1.8214v-4.32e-4c0.2471-0.50894 0.58611-0.89135 1.0229-1.161v-1.11e-4c0.4407-0.26936 0.95971-0.40656 1.5708-0.40659zm-20.298 0.01243v1.11e-4c0.82836 0 1.4089 0.17748 1.7716 0.49724 0.35806 0.31573 0.55224 0.83113 0.55224 1.5983v4.4462h-0.41167l-0.13215-0.63706c-0.05859-0.28204-0.41376-0.37652-0.60475-0.16089-0.16168 0.18266-0.31516 0.34917-0.45619 0.45964v1.11e-4c-0.19702 0.14998-0.42718 0.26581-0.6939 0.34673-0.25835 0.07557-0.58893 0.11648-0.9906 0.11648-0.41381 0-0.77364-0.06867-1.0849-0.2014v-1.11e-4c-0.30157-0.13048-0.53388-0.32303-0.70827-0.58422-4.5e-5 -6.7e-5 0-1.5e-4 0-2.16e-4 -0.16552-0.25428-0.25489-0.58588-0.25489-1.0098 0-0.62015 0.24215-1.0659 0.75721-1.3977 0.51814-0.33382 1.3483-0.53386 2.4925-0.56661v-0.0012c8.85e-4 4.38e-4 0.0017 8.68e-4 0.0026 0.0013l1.1083-0.04473c0.18747-0.0078 0.33545-0.16202 0.33549-0.34965v-0.28536c0-0.62392-0.13664-1.1041-0.47142-1.4018-0.31392-0.27919-0.75049-0.40994-1.2701-0.40994-0.39595 0-0.77677 0.05505-1.1389 0.16553-0.27802 0.08481-0.54191 0.18544-0.79805 0.29487l-0.17007-0.39989c0.26748-0.11732 0.55972-0.22459 0.89411-0.3141 0.40153-0.10748 0.82503-0.16173 1.272-0.16175zm-5.1623 0.11561c0.13529 8e-6 0.27793 0.0077 0.42734 0.02334 0.01116 0.0011 0.02238 0.0017 0.0336 0.0017l-0.02399-9.72e-4c0.0754 6e-3 0.13158 0.01754 0.19741 0.02636l-0.07715 0.53744c-0.06429-0.01086-0.12225-0.02561-0.19157-0.0336-0.15148-0.01747-0.29516-0.02636-0.43144-0.02636-0.3153 0-0.61969 0.06243-0.90351 0.18574l0.01826-0.0071c-0.0062 0.0022-0.01239 0.0045-0.01848 7e-3 0 8.2e-5 -5.53e-4 2.15e-4 -5.53e-4 3.26e-4 0 6.1e-5 -5.53e-4 4.8e-5 -5.53e-4 1.11e-4v1.1e-4c-0.28004 0.11966-0.52933 0.29674-0.74024 0.52469-0.20264 0.21498-0.36265 0.47348-0.47923 0.76865-0.04836 0.12679-0.09368 0.27369-0.12063 0.39029-0.04978 0.21782-0.07449 0.44879-0.07449 0.69184v3.4647h-0.67433v-6.4293h0.50286l0.07261 0.77655c0.03036 0.32353 0.44682 0.43468 0.63436 0.16931 0.12344-0.17471 0.22514-0.32739 0.33658-0.43792l-0.0017 9.72e-4c8.85e-4 -1e-3 4e-3 -0.0047 0.0058-0.0069l-0.0013 0.0031c0.1917-0.19365 0.41235-0.34677 0.66483-0.46126 0.25055-0.11163 0.53039-0.16885 0.84538-0.16888zm13.272 0h5.53e-4c0.52149 0 0.94269 0.09336 1.2722 0.2685 0.0013 6.93e-4 0.0027 0.0014 4e-3 0.0021 0.27696 0.14273 0.47816 0.36383 0.63328 0.66159 0.12198 0.23415 0.44262 0.2493 0.59892 0.03652 0.39288-0.53485 1.3803-0.962 2.0564-0.96866 0.60722-6e-3 1.0717 0.1175 1.414 0.34582 0.21659 0.15612 0.21948 0.16634 0.37677 0.35512 0.25538 0.34624 0.39508 0.86281 0.39508 1.5759v4.2774h-0.65478v-4.2274c0-0.58533-0.13449-1.0579-0.43566-1.3853-0.29367-0.32805-0.74148-0.48849-1.273-0.48849-0.73326 0-1.318 0.21111-1.6805 0.65197-0.35861 0.43604-0.52069 1.0522-0.52069 1.8281v3.6212h-0.66137v-4.2274c0-0.39234-0.05928-0.72965-0.18995-1.0125-0.12445-0.27875-0.32937-0.50598-0.58833-0.64689-0.25953-0.14769-0.57458-0.21437-0.93712-0.21437-0.505 0-0.93024 0.09836-1.2642 0.31507-0.23122 0.15005-0.42361 0.35429-0.56109 0.60668-0.10321 0.18949-0.15315 0.27527-0.25723 0.71094-0.07419 0.31051-0.09925 0.66284-0.09925 1.0537v3.4148h-0.66787v-6.4293h0.49054l0.09109 0.53863c0.05089 0.30099 0.43578 0.39716 0.62226 0.15548 0.11287-0.14624 0.22936-0.2706 0.35926-0.36704 0.19913-0.14783 0.42205-0.25991 0.67174-0.33657 0.25-0.07677 0.51769-0.1155 0.80507-0.1155zm39.352 0v0c0.13533 4e-6 0.278 0.0077 0.42744 0.02334 0.0112 0.0011 0.0224 0.0017 0.0336 0.0017l-0.024-9.72e-4c0.0754 6e-3 0.13158 0.01754 0.19741 0.02636l-0.077 0.53744c-0.0644-0.01087-0.12252-0.0256-0.1919-0.0336-0.15144-0.01747-0.29492-0.02636-0.43123-0.02636-0.3156 0-0.62022 0.06241-0.90426 0.18595 0 7.7e-5 -5.6e-4 4.1e-5 -5.6e-4 1.1e-4v2.22e-4c-0.27978 0.11958-0.52904 0.29654-0.73992 0.52436-0.18003 0.19094-0.32606 0.41626-0.43811 0.67095-0.053 0.11952-0.10097 0.25731-0.13415 0.37787-0.0683 0.24968-0.10208 0.51766-0.10208 0.80217v3.4647h-0.67468v-6.4293h0.50319l0.0726 0.77623c0.0303 0.32346 0.4466 0.43473 0.63425 0.16953 0.0789-0.11157 0.14017-0.22188 0.21831-0.3026 0.17983-0.18575 0.17462-0.18474 0.35458-0.34343 0.12431-0.10963 0.27544-0.18536 0.43089-0.25585 0.25061-0.11165 0.53057-0.16887 0.84559-0.16888zm-0.96985 0.71388 0.0203-0.0078c-7e-3 0.0023-0.0133 0.0048-0.0199 0.0075 0 7.2e-5 -5.5e-4 2.26e-4 -5.5e-4 3.26e-4zm-21.695-0.58865 0.68773 1.11e-4c0.48303 2.0461 1.0135 3.3779 1.3526 5.0414 5.54e-4 0.0026 9.41e-4 0.0053 0.0015 0.0079-0.0012-0.0051-5.53e-4 0.0035 7e-3 0.03641 0.08142 0.36144 0.59511 0.36518 0.68179 5e-3 0.42714-1.7077 1.0156-3.243 1.6331-5.0906h0.8699c0.5441 1.8367 1.1623 3.3796 1.5957 5.0552 0.09141 0.35469 0.59725 0.3485 0.67995-0.0083 0.37997-1.6268 0.89352-3.341 1.3675-5.0469h0.66828l-1.8669 6.4292h-0.95504c-0.48919-1.6866-1.1783-3.4751-1.6089-5.0962-0.09253-0.34892-0.58861-0.34638-0.67758 0.0035-0.46883 1.7068-1.1041 3.4524-1.6571 5.0926h-0.91797zm14.294 0.16606c-9.4e-4 0-2e-3 6.49e-4 -3e-3 6.49e-4 -0.01 7e-6 -0.019 7.81e-4 -0.0287 8.64e-4 -6e-3 -3.2e-5 -0.0115-6.48e-4 -0.0174-6.48e-4 -9.4e-4 0-2e-3 -5.42e-4 -3e-3 -5.42e-4v1.1e-4c-6e-3 0-0.0123 3.77e-4 -0.0185 4.32e-4v0.0016c-0.50706 0.0099-0.94315 0.12448-1.2896 0.35937-0.35547 0.24101-0.62187 0.59139-0.78768 1.024v6.48e-4c-0.16496 0.42642-0.24387 0.92266-0.24387 1.4882 0 0.56987 0.0792 1.0725 0.24376 1.5065 0.16561 0.43685 0.43386 0.79159 0.79319 1.0368 0.34683 0.23962 0.78192 0.35728 1.2842 0.36661v0.0014c9e-3 5.5e-5 0.0166 7.56e-4 0.0252 7.56e-4 8e-3 0 0.0166-6.95e-4 0.0251-7.56e-4 5e-3 1.8e-5 9e-3 4.31e-4 0.0137 4.31e-4 9e-3 0 0.0167-7e-4 0.0252-7.56e-4v-7.56e-4c0.50223-0.0093 0.93735-0.12699 1.2842-0.36661 0.35933-0.24525 0.62758-0.6 0.79319-1.0368 0.16452-0.43401 0.24376-0.93667 0.24376-1.5065 0-0.56551-0.0789-1.0617-0.24387-1.4882v-6.48e-4c-0.1658-0.43259-0.43221-0.78298-0.78768-1.024-0.34643-0.23489-0.78252-0.34951-1.2896-0.35937v-0.0023c-6e-3 -5.5e-5 -0.0122-4.31e-4 -0.0185-4.31e-4v-1.11e-4zm-18.806 0.0084-5.53e-4 1.11e-4c-0.6235 7.2e-5 -1.1601 0.20585-1.5448 0.60908-0.35766 0.37491-0.55043 0.88536-0.63685 1.4754-0.03094 0.21124 0.1328 0.40073 0.3463 0.40076h3.4834c0.20042-1.3e-5 0.3599-0.16798 0.34954-0.36812-0.01863-0.35892-0.07734-0.69627-0.20649-0.99989-0.14036-0.34425-0.36674-0.62642-0.66288-0.81945 0-7.2e-5 1.1e-5 -1.44e-4 -5.54e-4 -2.16e-4 -0.30445-0.20255-0.68644-0.29761-1.1272-0.29768zm1.1168 0.29076 0.01091 0.0069c-5.53e-4 -2.26e-4 -6.08e-4 -5.31e-4 -9.95e-4 -7.56e-4 -0.0033-0.0021-0.0066-0.0042-0.0099-0.0062zm-12.553 0.07261 0.0066 0.0036c-5.53e-4 -2.49e-4 -8.3e-4 -6.15e-4 -0.0013-8.65e-4 -0.0018-9.15e-4 -0.0035-0.0018-0.0053-0.0027zm4.9138 0.27002 0.0072 0.0078c-5.53e-4 -3.82e-4 -5.53e-4 -9.17e-4 -8.85e-4 -0.0013-0.0021-0.0022-0.0042-0.0044-0.0064-0.0065zm25.296 0.05921c0.42778 0.0028 0.73065 0.09342 0.94727 0.2403 0.23498 0.15932 0.40344 0.37285 0.52706 0.69562 0 5.53e-4 5.5e-4 0.0011 6.7e-4 0.0016 0.12591 0.3253 0.19696 0.73603 0.19697 1.2361 0 0.50453-0.0712 0.923-0.19838 1.2585-0.12371 0.32634-0.29396 0.54363-0.53387 0.70718-8.9e-4 6.08e-4 -2e-3 0.0012-3e-3 0.0018-0.21744 0.15026-0.51133 0.24014-0.92512 0.24376-0.42019-0.0019-0.71735-0.09236-0.9369-0.24408-8.8e-4 -6.08e-4 -2e-3 -0.0012-3e-3 -0.0018-0.23992-0.16355-0.41016-0.38085-0.53387-0.70718-0.12717-0.33546-0.19838-0.75392-0.19838-1.2585 1e-5 -0.50006 0.0711-0.91079 0.19698-1.2361 0-5.53e-4 6.6e-4 -0.0011 6.6e-4 -0.0016 0.12363-0.32278 0.29209-0.5363 0.52706-0.69562 0.2145-0.14544 0.5139-0.23548 0.93507-0.23998zm-18.773 0.0075c0.34247 0 0.57532 0.07081 0.74036 0.18077 0.0016 0.0011 0.0032 0.0021 0.0049 0.0031 0.1801 0.1172 0.30329 0.26566 0.39816 0.49919 9.96e-4 0.0025 2e-3 0.0051 0.0032 0.0076 0.04781 0.11226 0.08197 0.24739 0.10805 0.3947h-2.6567c0.08448-0.29555 0.20555-0.52736 0.36359-0.69303 0.25331-0.26552 0.55514-0.39233 1.0386-0.39233zm1.7914 0.41848 3e-3 0.0076c-8.3e-4 -0.0022-0.0017-0.0043-0.0025-0.0065 0-3.8e-4 -5.54e-4 -7.02e-4 -5.54e-4 -0.0011zm30.215 1.0742-2e-3 0.0023c-1e-3 9.72e-4 -2e-3 0.0019-3e-3 0.0028 2e-3 -0.0017 3e-3 -0.0034 5e-3 -0.0051zm-0.41944 0.4725c-5.6e-4 7.13e-4 -1e-3 0.0015-2e-3 0.0022l-5e-3 0.0058c2e-3 -0.0026 4e-3 -0.0053 6e-3 -8e-3zm-50.566 0.09141-0.71017 0.02828c-0.27183 0.01018-0.5666 0.02331-0.80973 0.04686-0.62677 0.06156-1.0994 0.18968-1.4394 0.41703-0.41072 0.27458-0.6457 0.71974-0.6457 1.2197 0 0.43099 0.15913 0.81238 0.45899 1.0377 0.29364 0.22066 0.67542 0.3235 1.1184 0.3235 0.67545 0 1.2564-0.18354 1.7044-0.55494 0.45799-0.37974 0.68731-0.96641 0.68731-1.6816v-0.48687c0-0.19876-0.16542-0.35759-0.36402-0.34965zm-0.33603 0.71399v0.12253c0 0.57924-0.14769 0.90517-0.43403 1.1426-0.31142 0.25816-0.70328 0.39395-1.2576 0.39395-0.33805 0-0.55103-0.07279-0.69789-0.18314-0.12509-0.094-0.17947-0.18469-0.17947-0.47812 0-0.32461 0.07488-0.46406 0.33463-0.63771 0.21754-0.14544 0.79064-0.30475 1.6445-0.33647 0.01311-0.0025 0.02606-0.0058 0.03879-0.0098l-0.03727 0.0096zm0.1637 2.8808-0.02367 0.0161c0.0017-9.68e-4 0.0033-2e-3 0.0049-3e-3 0.0064-0.0042 0.01268-0.0085 0.0188-0.01307z"/>
</svg>
