<svg viewBox="0 0 128 128" xmlns="http://www.w3.org/2000/svg">
<path d="m12.061 28.416a0.13889 0.13889 0 0 0-0.125 0.13867v2.7441c0 0.14744 0.009694 0.33326 0.027344 0.56055 0.0075 0.09593 0.014024 0.14948 0.021484 0.22852-0.10936-0.12435-0.20793-0.25674-0.34375-0.36133-0.21961-0.17329-0.48012-0.31005-0.77734-0.41016-0.30238-0.10184-0.64843-0.15039-1.041-0.15039-0.93303 0-1.703 0.32041-2.2715 0.95312-0.57313 0.63368-0.84961 1.5611-0.84961 2.7617 0 1.1879 0.27 2.1049 0.83008 2.7305 0.5605 0.62095 1.3307 0.93359 2.2715 0.93359 0.40109 0 0.75192-0.048421 1.0547-0.15039a0.13889 0.13889 0 0 0 0.001953 0c0.30145-0.10434 0.5635-0.24608 0.7832-0.42383 0.15299-0.12138 0.26419-0.26631 0.38086-0.4082l0.125 0.74219a0.13889 0.13889 0 0 0 0.13672 0.11523h0.87891a0.13889 0.13889 0 0 0 0.13867-0.13867v-9.7266a0.13889 0.13889 0 0 0-0.13867-0.13867h-1.0898a0.13889 0.13889 0 0 0-0.013672 0zm4.1289 0.3125c-0.21589 0-0.41205 0.068155-0.56445 0.20312-0.15962 0.14108-0.23242 0.35949-0.23242 0.61719 0 0.25398 0.073223 0.47092 0.23047 0.61523 0.15243 0.13508 0.35043 0.20508 0.56641 0.20508 0.20801 0 0.39969-0.069768 0.55078-0.20312 0.16622-0.14284 0.24414-0.36176 0.24414-0.61719 0-0.25872-0.078127-0.47964-0.24609-0.61914-0.1509-0.13266-0.34138-0.20117-0.54883-0.20117zm21.768 2.2969c-0.59268 0-1.1036 0.093646-1.5332 0.28711-0.42877 0.19308-0.76477 0.47956-0.99414 0.85352-0.2301 0.37098-0.34179 0.81813-0.3418 1.3301 0 0.4858 0.1215 0.92134 0.36914 1.2949a0.13889 0.13889 0 0 0 0.001953 0.001953c0.2028 0.29669 0.47237 0.50814 0.77539 0.66797-0.2149 0.14386-0.40085 0.29414-0.52734 0.45703-0.16273 0.21121-0.24609 0.46539-0.24609 0.74219 0 0.24472 0.077108 0.47048 0.22656 0.66016a0.13889 0.13889 0 0 0 0.001953 0.001954c0.07898 0.097 0.16905 0.17976 0.26562 0.25195-0.38353 0.1191-0.72273 0.28787-0.96875 0.54688-0.30688 0.32804-0.46484 0.73536-0.46484 1.1953 0 0.6432 0.28814 1.1672 0.83203 1.5215v0.001953c0.54504 0.35884 1.3018 0.52734 2.2637 0.52734 1.2413 0 2.2033-0.20187 2.8848-0.62695 0.68114-0.42491 1.0371-1.0633 1.0371-1.8613 0-0.63231-0.23135-1.1425-0.68555-1.4805h-0.001954c-0.44943-0.3375-1.0809-0.49609-1.8828-0.49609h-1.2676c-0.22012 0-0.40548-0.016325-0.55469-0.046875-0.14441-0.03366-0.2447-0.085383-0.30859-0.14258-0.05428-0.05211-0.080079-0.11295-0.080079-0.2168 0-0.1504 0.042375-0.27257 0.13281-0.38672 0.09282-0.11184 0.2384-0.21916 0.42383-0.32031 0.19554 0.02818 0.38898 0.046876 0.57812 0.046876 0.87126 0 1.5751-0.20751 2.0918-0.63281 0.5156-0.42886 0.7793-1.0219 0.7793-1.7383 0-0.29372-0.046335-0.5657-0.14062-0.8125-0.06238-0.16329-0.15306-0.29021-0.23828-0.42383l1.123-0.13281a0.13889 0.13889 0 0 0 0.12305-0.13672v-0.66992a0.13889 0.13889 0 0 0-0.13867-0.13867h-2.457c-0.08928-0.02418-0.18662-0.044627-0.29883-0.060547-0.1231-0.02161-0.2537-0.036332-0.38867-0.044922-0.12977-0.01262-0.25869-0.019531-0.38867-0.019531h-0.001953zm-15.918 0.02539c-0.47536 0-0.92867 0.058006-1.3613 0.17383-0.42747 0.11443-0.80895 0.25295-1.1426 0.41602a0.13889 0.13889 0 0 0-0.066406 0.17773l0.33398 0.78906a0.13889 0.13889 0 0 0 0.1875 0.070312c0.30045-0.1389 0.61733-0.25889 0.95312-0.36133 0.32789-0.10003 0.67334-0.15039 1.0371-0.15039 0.46341 0 0.80128 0.11057 1.0371 0.32031 0.22429 0.19948 0.35352 0.56972 0.35352 1.1406v0.28516l-1.1074 0.044922c-1.1777 0.03389-2.0663 0.23416-2.6699 0.62305-0.60223 0.38802-0.91797 0.96936-0.91797 1.6914 0 0.47388 0.10209 0.87801 0.3125 1.2012a0.13889 0.13889 0 0 0 0 0.001953c0.21148 0.31758 0.50182 0.55735 0.86133 0.71289a0.13889 0.13889 0 0 0 0.001953 0c0.36127 0.1543 0.76941 0.23047 1.2227 0.23047 0.42523 0 0.78771-0.042375 1.0898-0.13086a0.13889 0.13889 0 0 0 0.001954 0c0.30308-0.09179 0.57163-0.22684 0.80469-0.4043a0.13889 0.13889 0 0 0 0.001953-0.001953c0.17647-0.13774 0.34025-0.31905 0.50391-0.50391l0.16797 0.80469a0.13889 0.13889 0 0 0 0.13477 0.11133h0.79492a0.13889 0.13889 0 0 0 0.13867-0.13867v-4.6582c0-0.82827-0.21618-1.4613-0.66992-1.8613-0.45151-0.39809-1.1259-0.58398-2.0039-0.58398zm8.375 0.11524c-0.33637 0-0.65825 0.045312-0.96484 0.13672-0.30676 0.08729-0.5867 0.21886-0.83594 0.39453-0.18132 0.12485-0.33303 0.28-0.46875 0.44922l-0.12305-0.73828a0.13889 0.13889 0 0 0-0.13672-0.11719h-0.88086a0.13889 0.13889 0 0 0-0.13867 0.13867v6.8516a0.13889 0.13889 0 0 0 0.13867 0.13867h1.0918a0.13889 0.13889 0 0 0 0.13867-0.13867v-3.5879c0-0.79851 0.15855-1.3897 0.45703-1.7852 0.29105-0.38558 0.79837-0.58984 1.5703-0.58984 0.5416 0 0.9161 0.13415 1.1543 0.38281a0.13889 0.13889 0 0 0 0.001953 0c0.24335 0.25001 0.37305 0.63697 0.37305 1.1855v4.3945a0.13889 0.13889 0 0 0 0.14062 0.13867h1.0762a0.13889 0.13889 0 0 0 0.13867-0.13867v-4.4629c0-0.90204-0.22574-1.5854-0.70117-2.0156-0.47104-0.43024-1.1559-0.63672-2.0312-0.63672zm15.529 0.013672c-0.70623 0-1.3248 0.14305-1.8477 0.43555-0.51843 0.2883-0.92102 0.71433-1.1992 1.2656-0.2791 0.54887-0.41602 1.2081-0.41602 1.9746 0 0.57556 0.080225 1.0953 0.24414 1.5547 0.16765 0.45715 0.40386 0.8488 0.70703 1.168 0.30657 0.31793 0.67042 0.56292 1.0859 0.73242a0.13889 0.13889 0 0 0 0.001953 0c0.42039 0.16527 0.88009 0.24805 1.377 0.24805 0.53086 0 1.0118-0.082489 1.4375-0.24805 0.42884-0.16935 0.79649-0.41331 1.0996-0.73242 0.30364-0.31966 0.53643-0.71192 0.69531-1.1699 0.15924-0.45904 0.23633-0.97752 0.23633-1.5527 0-0.7631-0.14124-1.4216-0.42969-1.9707-0.2825-0.55023-0.68565-0.97741-1.2031-1.2695-0.51348-0.29233-1.1127-0.43555-1.7891-0.43555zm-30.326 0.11133a0.13889 0.13889 0 0 0-0.125 0.13867v7.959c0 0.39633-0.090226 0.63677-0.22852 0.75586-0.15579 0.13416-0.35772 0.20508-0.63086 0.20508-0.16857 0-0.31899-0.011916-0.44922-0.035156a0.13889 0.13889 0 0 0-0.003906-0.001953c-0.13329-0.01982-0.26351-0.048261-0.39258-0.087891a0.13889 0.13889 0 0 0-0.17969 0.13281v0.84375a0.13889 0.13889 0 0 0 0.09375 0.13086c0.13091 0.0445 0.28209 0.081269 0.45312 0.11133 0.17782 0.03548 0.37995 0.052735 0.60938 0.052735 0.46302 0 0.85449-0.081043 1.1699-0.25391 0.3129-0.17147 0.55147-0.42551 0.70312-0.75v-0.001954c0.15084-0.31864 0.22266-0.69472 0.22266-1.127v-7.9336a0.13889 0.13889 0 0 0-0.13867-0.13867h-1.0898a0.13889 0.13889 0 0 0-0.013671 0zm22.301 0.78125c0.49807 0 0.85123 0.1206 1.0859 0.34766a0.13889 0.13889 0 0 0 0.001953 0.001953c0.23334 0.2221 0.35742 0.56033 0.35742 1.0488 0 0.45389-0.12095 0.77464-0.35156 0.99414-0.22952 0.21846-0.58125 0.33594-1.0801 0.33594-0.48054 0-0.82836-0.11682-1.0684-0.33789-0.23979-0.22087-0.36328-0.53279-0.36328-0.97266 0-0.48413 0.12425-0.82746 0.35938-1.0586 0.24112-0.2369 0.58418-0.35938 1.0586-0.35938zm-27.945 0.23438c0.77432 0 1.2674 0.21696 1.5391 0.63672 0.28475 0.43364 0.4375 1.0769 0.4375 1.9316v0.1875c0 0.80301-0.15836 1.3897-0.45117 1.7715-0.28682 0.37396-0.77978 0.57031-1.5254 0.57031-0.64244 0-1.0919-0.2071-1.3984-0.62891-0.3046-0.4257-0.4668-1.0458-0.4668-1.8691 0-0.82782 0.16488-1.4652 0.47656-1.9219a0.13889 0.13889 0 0 0 0-0.001953c0.30853-0.45595 0.75271-0.67578 1.3887-0.67578zm35.943 0.02539c0.48817 0 0.87272 0.10325 1.1641 0.30078 0.2953 0.20021 0.51349 0.48157 0.6582 0.85938a0.13889 0.13889 0 0 0 0 0.001953c0.14551 0.37592 0.2207 0.82839 0.2207 1.3613 0 0.5372-0.076807 0.99807-0.22266 1.3828-0.14473 0.38178-0.36226 0.66864-0.66211 0.87305a0.13889 0.13889 0 0 0-0.001953 0c-0.29181 0.20165-0.66974 0.30664-1.1484 0.30664-0.48325 0-0.86471-0.10517-1.1562-0.30664-0.29558-0.20426-0.51332-0.49087-0.6582-0.87305-0.14583-0.38469-0.2207-0.84556-0.2207-1.3828 0-0.81383 0.16783-1.4337 0.49023-1.873l0.001953-0.001953c0.32204-0.43241 0.81596-0.64844 1.5352-0.64844zm-22.557 2.5898v0.48633c0 0.64723-0.18835 1.1036-0.56055 1.4121-0.37972 0.31478-0.86758 0.47461-1.4824 0.47461-0.39053 0-0.68799-0.086476-0.9082-0.25195-0.21244-0.15963-0.31836-0.39554-0.31836-0.75781 0-0.41227 0.15499-0.70556 0.49023-0.92969 0.3268-0.21848 0.9405-0.36163 1.8262-0.39453l0.95312-0.039063zm13.988 3.2266h1.248c0.36148 0 0.66276 0.024705 0.9043 0.072265a0.13889 0.13889 0 0 0 0.003906 0c0.23377 0.0422 0.39421 0.12397 0.5 0.23438 0.10044 0.10887 0.16016 0.27694 0.16016 0.5293 0 0.26513-0.082682 0.47905-0.25781 0.66797a0.13889 0.13889 0 0 0-0.001953 0.003906c-0.16934 0.19048-0.43922 0.34347-0.81641 0.45117a0.13889 0.13889 0 0 0 0 0.001953c-0.37108 0.11112-0.85304 0.16797-1.4395 0.16797-0.59369 0-1.038-0.096875-1.334-0.27344a0.13889 0.13889 0 0 0 0-0.001953c-0.29471-0.17205-0.42383-0.39272-0.42383-0.72266 0-0.25778 0.057328-0.46214 0.16602-0.62305 0.1148-0.16343 0.27463-0.28567 0.49414-0.37305 0.22094-0.08794 0.48656-0.13477 0.79688-0.13476zm27 3.4707v4.291h-2.7969v-0.34766h-21.365v0.34766h-18.363c-1.1957-0.22248-2.4598-0.34703-3.7734-0.37695h-0.003906-11.795v5.4121h0.029297v12.707h-0.029297v1.2832h-5.75v0.41602h5.75v3.3516h0.029297v15.855h6.127v-0.41992h13.127v8.5391h0.41797v-8.5391h2.4355c0.80694 0.9364 1.8621 1.9978 3.2598 2.8789l0.20312 0.12695 4.8613-2.5625 3.8945-0.023437h5.291 15.652v-0.41992h2.7988v3.0449h0.41602v-3.0449h6.5938c2.3286 0.50836 4.7511 0.70901 6.3945 0.64648 1.1803-6.19e-4 2.9816-0.15308 4.9062-0.64648h1.4824v0.068359h0.10938l0.099609 0.097657 0.097657-0.097657h0.10938v-0.068359h18.674v4.1543h0.41797v-4.1543h2.1035v0.41992h6.127v-0.41992h10.617a0.069444 0.069444 0 0 0 0.07032-0.070313v-18.717h4.9336v-0.41602h-4.9336v-14.045h0.32226v-5.3027h-11.01v-0.023438h-6.127v0.023438h-21.166c-1.1756-0.28384-2.3581-0.46611-3.5195-0.47656-0.09946-8.89e-4 -0.19857 3.95e-4 -0.29688 0.001953-1.2668 0.020032-3.7434 0.028668-6.2207 0.79688h-9.7852v-4.291h-0.41602zm-41.875 4.4297h3.0605v1.0098c-0.94039-0.43772-1.9698-0.76632-3.0605-1.0098zm3.4785 0h14.234v4.4844l-6.0156 6.0059h-1.8594v-1.5508h-0.13867v3.2383h0.13867v-1.5488h1.7207l-2.9355 2.9316c0.16011-0.69419 0.25391-1.4285 0.25391-2.2109v-0.76367c0-3.8875-1.4808-6.6751-3.8984-8.4531-0.46475-0.3418-0.97321-0.63572-1.5-0.90625v-1.2266zm35.6 0h2.7969v5.4629c-0.28843 0.04288-0.56737 0.17089-0.78906 0.39258-0.52992 0.52992-0.54646 1.3787-0.054688 1.9316l-6.5781 3.7383-6.8848-6.6621h11.51v-4.8633zm3.2129 0h9.3457c-0.33833 0.11795-0.67721 0.24792-1.0098 0.39844-2.9076 1.316-5.4629 4.042-5.4629 9.2461 0 1.8779 0.53871 3.537 1.4121 4.9961l-0.75977 0.73438h-3.5254v-7.1523c0.28751-0.042882 0.56789-0.15382 0.78906-0.375 0.54971-0.54971 0.54971-1.4425 0-1.9922-0.22158-0.22158-0.50086-0.34963-0.78906-0.39258v-5.4629zm13.77 0h3.9688c0.46707 0.057916 0.94018 0.15412 1.4141 0.25586l-3.3984 3.2871c-1.2824-0.049151-3.0054 0.13157-4.5234 0.93164-1.6427 0.86579-2.9961 2.5104-2.9961 5.1699v0.013672l0.001953 0.011719c0.019916 0.32994 0.08311 0.65938 0.16602 0.98633l-3.5234 3.4102c-0.74073-1.3028-1.1738-2.7664-1.1738-4.4219 0-4.9391 2.2822-7.2697 4.9746-8.4883 1.7102-0.77406 3.5527-1.0421 5.0898-1.1562zm5.5469 0.28711c0.020262 0.004541 0.040278 0.007106 0.060547 0.011718v3.8613c-1.1495-0.29333-2.315-0.54241-3.2969-0.61328-0.039613-0.002859-0.090146 4.28e-4 -0.13086-0.001953l3.3672-3.2578zm-76.898 0.03125h10.85c2.8656 0.065268 5.4442 0.58669 7.502 1.6309v7.1328c-0.4531-1.96-1.7538-3.2215-3.1543-3.9473-1.7325-0.89779-3.5769-1.0723-4.3379-1.0723h-6.4688v0.41602 0.24023l-4.3906-4.4004zm33.836 0.027343h3.3125l-3.3125 3.3066v-3.3066zm3.5098 0h0.10742v18.166l-0.66016 0.375h-2.957v-2.6777h0.001953v-12.178h-0.001953v-0.18164l3.5098-3.5039zm0.52539 0h0.12109l3.8086 3.6855h-3.5039v12.178h3.207l-3.6328 2.0645v-17.928zm0.31836 0h15.346v3.6855h-11.537l-3.8086-3.6855zm61.215 0.001953h4.459v0.023438h10.914l-3.6309 3.6387h-7.2832v7.2988l-4.459 4.4688v-11.768h-2.9375v-3.6387h2.9375v-0.023438zm-22.029 0.023438h0.13281l4.0762 4.0684-0.36328 1.0664c-0.88749-0.35206-2.3302-0.83693-3.8457-1.2441v-3.8906zm0.33008 0h18.344v3.6387h-14.318l-0.095703 0.2832-3.9297-3.9219zm-77.805 0.044922 4.4902 4.5v13.521h5.0566c2.1262 0 4.3619-0.31244 6.1133-1.3672 0.19723-0.11878 0.38554-0.25152 0.56836-0.39062l2.2031 2.207h-18.432v-0.44922h0.03125v-14.375h-0.03125v-3.6465zm114.97 0.054687v3.5391h-3.5312l3.5312-3.5391zm-96.105 1.6934c0.35119 0.1977 0.69051 0.40675 1.0059 0.63867 2.2183 1.6314 3.5605 4.1031 3.5605 7.7832v0.76367c0 1.3155-0.26673 2.4743-0.71875 3.5039l-3.8477 3.8438v-16.533zm53.914 2.2012c0.33034-0.011725 0.64349-0.008092 0.91797 0.011719 0.9419 0.067986 2.1564 0.33934 3.3574 0.6543v12.502c-0.67877-0.32205-1.355-0.6187-2.0078-0.87305h-0.001953c-0.62636-0.24154-1.6987-0.67321-2.8574-1.2422v-3.4434c1.3819-0.037191 2.4922-1.1678 2.4922-2.5586s-1.1103-2.5214-2.4922-2.5586v-0.003906h-0.13867v0.003906c-1.3819 0.03719-2.4922 1.1678-2.4922 2.5586s1.1103 2.5214 2.4922 2.5586v3.373c-0.26536-0.13214-0.52984-0.26374-0.79883-0.41016-1.4944-0.81348-2.9726-1.853-3.7109-2.9434-0.36162-0.58708-0.60921-1.227-0.72461-1.8555l5.9648-5.7734zm-0.21289 0.015626-5.7754 5.5879c-0.016213-0.11247-0.037893-0.22494-0.044922-0.33594 0.0044-2.3794 1.1146-3.663 2.5508-4.4199 1.0304-0.54306 2.2349-0.7724 3.2695-0.83203zm-39.467 0.30078v0.18164h0.001953v10.512h-0.001953v3.5117h-12.467c0.40432-0.33581 0.78898-0.69754 1.1445-1.0898 0.99502-1.0979 1.7629-2.4251 2.168-3.9746l3.1973-3.1934h4.6465v1.5488h0.13867v-3.2383h-0.13867v1.5508h-4.5078l5.8184-5.8086zm49.324 0.16016h13.721v13.844l-13.758-13.736 0.03711-0.10742zm14.139 0h2.1035v11.771l-2.1035 2.1074v-13.879zm8.2305 0h5.6191l-2.9141 2.9199v-1.6152h1.5488v-0.13867h-3.2383v0.13867h1.5508v1.7539l-2.5664 2.5723v-5.6309zm5.8164 0h4.7324v14.045h-7.8438v-10.928l3.1113-3.1172zm-71.383 0.021484h3.5293l6.959 6.7344-6.6465 3.7773h-3.8418v-10.512zm-33.906 0.033203h5.6348c0.62035 0 2.4038 0.17465 3.9551 0.97852 1.5513 0.80387 2.8867 2.158 2.8867 4.7109v0.76367c0 2.2839-0.80329 3.7102-2.0508 4.6523l-0.88672-0.88867c1.1853-0.86496 1.9649-2.2549 1.9648-3.834 4.8e-5 -2.6017-2.0948-4.71-4.6875-4.748v-0.009766l-0.068359 0.001954h-0.003906c-0.0235 1e-3 -0.046833 0.002606-0.070313 0.003906l-0.064453 0.003906v4.1133l0.076172-0.007812c0.02056-0.0022 0.04183-0.003706 0.0625-0.003906 0.35722 1.39e-4 0.64454 0.28922 0.64453 0.64648 7e-6 0.35726-0.28731 0.64439-0.64453 0.64453-0.02094-4.4e-5 -0.04166 1.47e-4 -0.0625-0.001953l-0.076172-0.007812v0.26367l-6.6094-6.623v-0.6582zm77.018 0.20117 13.807 13.785v0.003906h-16.67c-0.64975-0.43724-1.3247-0.80515-2.0039-1.1445v-12.604c1.6528 0.45354 3.2191 0.98623 3.9375 1.293l0.41406 0.17578 0.51562-1.5098zm-25.076 0.52344v2.4609c-0.25151-0.04223-0.49509-0.13766-0.68945-0.33203-0.49664-0.49664-0.49664-1.3002 0-1.7969 0.19442-0.19442 0.43783-0.28985 0.68945-0.33203zm0.41602 0.001953c0.25103 0.042391 0.4954 0.13603 0.68945 0.33008 0.49664 0.49664 0.49664 1.3002 0 1.7969-0.19409 0.19409-0.43833 0.28964-0.68945 0.33203v-2.459zm-52.357 0.12891 6.6094 6.623v3.6543l0.066406 0.001953c0.02348 9.72e-4 0.046823 0.001353 0.070313 0.001953h0.001953c0.99608 1.9e-5 1.9194-0.3062 2.6836-0.83008l0.87695 0.87891c-0.13145 0.09422-0.26201 0.18892-0.40234 0.27344-1.5415 0.92832-3.6415 1.248-5.6836 1.248h-4.2227v-11.852zm6.748 0.91016c2.5499 5.56e-4 4.6172 2.0671 4.6172 4.6172 2.9e-5 1.542-0.76289 2.898-1.9238 3.7363l-2.6934-2.6992v-0.25391c0.43241 1e-5 0.78516-0.3508 0.78516-0.7832 8e-6 -0.43241-0.35275-0.78517-0.78516-0.78516v-3.832zm59.98 0.33398v4.8398c-1.3067-0.03704-2.3535-1.1042-2.3535-2.4199 0-1.3158 1.0468-2.3829 2.3535-2.4199zm0.13867 0c1.3067 0.03704 2.3535 1.1042 2.3535 2.4199 0 1.3158-1.0468 2.3829-2.3535 2.4199v-4.8398zm-15.662 0.90039c0.21164 0.19155 0.47109 0.28194 0.73633 0.32227v7.1562h-3.4434l-2.1074-2.0391 4.8145-5.4395zm-0.35352 0.18945-4.5605 5.1543-1.668-1.6152 6.2285-3.5391zm51.187 0.013672v10.787h-2.5664v-8.2168l2.5664-2.5703zm-41.238 2.709c0.15977 0.56495 0.39703 1.1188 0.71484 1.6328l0.003906 0.00586 0.003907 0.007812c0.88251 1.3074 2.4564 2.3704 4.0078 3.2148 0.40554 0.22075 0.80645 0.42353 1.1973 0.61133v2.6055h-14.273l2.7676-2.6777h3.5762l-0.55859-0.68164c-0.3487-0.42478-0.66178-0.86888-0.93555-1.334l3.4961-3.3848zm37.838 0.69727v7.3809h-4.459v-2.9121l4.459-4.4688zm-54.141 0.19141 1.7012 1.6465-1.7969 2.0312h-6.375l6.4707-3.6777zm-37.75 0.81641 2.5859 2.5918c-0.73738 0.49914-1.6281 0.78897-2.5859 0.78906v-3.3809zm6.3789 0.5625v5.6328l-2.1113-2.1152c1.0252-0.81794 1.785-1.9772 2.1113-3.5176zm33.172 0.36523 1.998 1.9336h-3.709l1.7109-1.9336zm10.414 1.3242c0.1279 0.20753 0.26331 0.41004 0.4043 0.60938h-1.0332l0.62891-0.60938zm-39.488 0.45508c-0.36951 0.74111-0.83735 1.4136-1.3848 2.0176-0.56752 0.62619-1.2304 1.1629-1.9316 1.6484h-0.35547l3.6719-3.666zm19.336 0.98828h7.1035l-2.3691 2.6777h-8.6484v-0.45312l3.9141-2.2246zm7.2891 0h5.3086l2.7676 2.6777h-10.445l2.3691-2.6777zm5.5098 0h2.582v2.498l-2.582-2.498zm2.998 0h2.6641l-2.6641 2.5781v-2.5781zm14.51 0.13477c1.0467 0.4962 1.9879 0.87441 2.5566 1.0938 0.7579 0.2953 1.5379 0.64473 2.3105 1.0293v0.41992h-4.8672v-2.543zm26.479 0.4668v2.0762h-2.0723l2.0723-2.0762zm-61.117 1.8613v0.21484h-0.37891l0.37891-0.21484zm39.922 0.003906c0.13833 0.072844 0.27902 0.13436 0.41602 0.21094h-0.41602v-0.21094zm-77.475 0.62695h18.262l-0.45117 0.45117c-0.57786 0.30414-1.1673 0.5822-1.7656 0.80859l-0.48047 0.18164c0.16421 0.25337 0.32616 0.50826 0.49024 0.76172l-2.6504 2.6484-1.4551-2.3672-7.459 0.021484v11.244l-4.459 4.4512v-15.682h-0.03125v-2.5195zm20.074 0h13.029v1.4238h0.001953v0.3125l-7.8672 4.4727-5.7578-5.7695c0.20556-0.13498 0.39557-0.29295 0.59375-0.43945zm13.861 0h2.2246l-2.2227 1.2637v-0.67383h-0.001953v-0.58984zm2.5059 0h1.1113v9.8301l-3.6152 4.0859v-12.492l2.5039-1.4238zm1.5293 0h8.2793l-0.52148 0.58984h-7.332v8.2871l-0.42578 0.48047v-9.3574zm8.4648 0h10.713l-0.60938 0.58984h-10.625l0.52148-0.58984zm11.445 0h14.172v1.6641c-0.80184-0.33467-1.6098-0.66221-2.3145-0.98438-0.031599-0.01445-0.069455-0.031401-0.11133-0.050781l-0.082031-0.039063h-11.055l-0.60938-0.58984zm14.311 0h4.8672v4.4629c-0.40637-0.36485-0.85572-0.69419-1.3281-0.99219-1.1059-0.69763-2.3313-1.2417-3.5391-1.748v-1.7227zm5.2832 0h1.1211c0.76692 0.47916 1.4966 1.025 2.1484 1.6602 1.7066 1.6629 2.9023 3.9051 2.9023 7.1914 0 2.085-0.57212 3.7167-1.4902 5.0059l-1.8848 1.8887c-0.54925 0.41011-1.1337 0.77357-1.75 1.082-0.34258 0.17146-0.69325 0.32703-1.0469 0.46875v-4.3359c0.9811-0.93051 1.6426-2.2648 1.6426-4.1094 0-1.6539-0.65864-2.942-1.6426-3.9727v-4.8789zm2.5898 0h15.922l-8.3809 8.3984h-2.0312v-1.5488h-0.13867v3.2383h0.13867v-1.5508h1.8926l-3.4824 3.4883c0.31434-0.94299 0.49414-1.9959 0.49414-3.1738 0-3.492-1.3133-5.9952-3.1523-7.7871-0.398-0.38781-0.82412-0.73738-1.2617-1.0645zm16.502 0h0.0039l2.0996 2.0957v16.553h-2.1055l0.00196-10.111h1.0293v1.5508h0.14063v-3.2383h-0.14063v1.5488h-1.0293v-8.3984zm0.19922 0h1.9043v1.9004l-1.9043-1.9004zm2.7383 0h4.459v7.1855l-4.459-4.4512v-2.7344zm5.293 0h2.5664v10.58l-2.5664-2.5625v-8.0176zm2.7051 0h7.8438v18.549l-7.8438-7.8301v-10.719zm-49.82 0.001954 0.60742 0.58789h-0.60742v-0.58789zm-39.23 0.005859v0.083984c-0.063796 0.037856-0.129 0.072544-0.19336 0.10938l0.19336-0.19336zm77.697 0.025391v8.3652h-8.3477l8.3477-8.3652zm-38.883 0.046875v0.50976h-0.52734l0.52734-0.50976zm-37.906 0.43164 5.7539 5.7676-2.5195 1.4316 0.03711 0.060547c1.2699 2.1448 2.71 4.1825 4.3418 6.0977l-2.4023 0.011719-5.7012-8.8574v-4.2266c0.1632-0.095899 0.33057-0.18263 0.49023-0.28516zm-0.9082 0.5293v3.332l-1.6348-2.5391c0.55402-0.22846 1.0984-0.50048 1.6348-0.79297zm20.779 0.38281h5.7598l-5.7598 6.5098v-6.5098zm5.9453 0h10.502l-4.0039 3.875v-2.8184h1.5488v-0.13867h-3.2383v0.13867h1.5508v2.9512l-8.4883 8.2148h-3.8164v-5.5039l5.9453-6.7188zm10.701 0h1.3887v17.225h-2.7988v-5.002h-11.221l8.2891-8.0215v6.9238h-1.5508v0.13867h3.2383v-0.13867h-1.5488v-7.0566l4.2031-4.0684zm1.8047 0h1.4688l13.047 12.623c-0.52867 0.04442-1.0495 0.072265-1.5371 0.072265h-0.001954c-3.087 0.01916-6.7176-1.2928-9.8184-2.3281l-0.54883-0.18359v5.8828l0.24414 0.11133c0.94641 0.43146 2.0383 0.77284 3.166 1.0469h-6.0195v-17.225zm1.6699 0h10.008c0.01106 0.0052 0.01937 0.008222 0.03125 0.013671 0.83188 0.38035 1.7515 0.74935 2.6621 1.1348v3.6953c-2e-3 -6e-6 -0.00386 0-0.00586 0-1.4143-3e-6 -2.5625 1.1482-2.5625 2.5625-1e-6 1.4143 1.1482 2.5605 2.5625 2.5605 1.4143 0 2.5625-1.1463 2.5625-2.5605 0-1.3653-1.0714-2.481-2.418-2.5566v-3.6426c1.0849 0.46205 2.159 0.95404 3.0957 1.5449 0.68596 0.43271 1.2874 0.90846 1.7715 1.4531v6.6035c-0.38164 0.38636-0.82957 0.70111-1.334 0.95312-0.99262 0.49593-2.1858 0.73065-3.3477 0.8418l-13.025-12.604zm-26.246 0.47266v11.982l-0.21484-0.001953-7.5508-7.5664 7.7656-4.4141zm-16.973 0.42578c0.77542 1.1981 1.5453 2.4 2.3184 3.5996v7.1426l-4.9727-8.0918 2.6543-2.6504zm83.371 0.60742 4.459 4.4512v10.992h-4.459v-15.443zm-88.02 0.38867 1.3125 2.1367-7.4727 7.4629v-9.582l6.1602-0.017578zm1.3887 2.2598 5.5781 9.0762v3.9941h-13.127v-5.5332l7.5488-7.5371zm64.602 0.58008c0.50987 0.7468 0.80859 1.6216 0.80859 2.6934 0 1.2489-0.30415 2.1761-0.80859 2.8887v-5.582zm-52.26 0.22266 7.4785 7.4961-3.168-0.019532-2.3691 0.011719c-1.6431-1.9168-3.0917-3.9573-4.3691-6.1074l2.4277-1.3809zm46.832 0.02539c2e-3 0 0.00386 1e-6 0.00586 0v4.8457c-2e-3 5e-6 -0.00386 0-0.00586 0-1.3392 0-2.4238-1.0827-2.4238-2.4219 0-1.3392 1.0846-2.4238 2.4238-2.4238zm0.14453 0.007813c1.2713 0.07521 2.2793 1.1257 2.2793 2.416 0 1.2903-1.008 2.3408-2.2793 2.416v-4.832zm-53.322 0.15625c1.749 2.7156 3.4998 5.4304 5.248 8.1465l3.5859-0.017578c0.9335 1.0375 1.921 2.0399 2.9824 2.9961l0.050781 0.046875 0.046875-0.052734 2.6328-2.9766h0.11328l3.6504 3.6602h-3.6602l-4.0996 0.025391-0.47461 0.25h-6.6484c-0.73702-0.79877-1.2943-1.5457-1.668-2.041l-1.7598-2.8633v-7.1738zm85.928 1.6445 2.5664 2.5625v6.9766h-1.5508v0.13867h3.2383v-0.13867h-1.5488v-6.8379l7.7441 7.7324h-10.449v-10.434zm-17.135 0.32227h8.4863v10.111h-18.576l0.86914-0.87109c0.1509-0.069105 0.30396-0.12847 0.45312-0.20312 2.1232-1.0626 4.0394-2.7424 4.9766-5.2383l3.791-3.7988zm-49.266 0.54883v5.3926h3.791l-4.0254 3.8945h-0.19141v-8.8066l0.42578-0.48047zm-0.84375 0.95312v8.334h-0.17578l-3.6504-3.6582 0.21094 0.001953v-0.5918l3.6152-4.0859zm23.57 2.7266c2.9689 1.0013 6.4075 2.205 9.541 2.1855 0.71726-5.9e-5 1.5104-0.045181 2.3125-0.14844l3.0801 2.9805c-2.0972 0.62316-4.1508 0.81641-5.3965 0.81641h-0.007813-0.007813c-2.3569 0.09074-6.6811-0.44042-9.5215-1.6582v-4.1758zm15.936 0.55273v4.1289c-0.2825 0.10381-0.56426 0.20395-0.84766 0.29102l-3.0547-2.9551c1.0074-0.14324 2.0255-0.39396 2.9414-0.85156 0.34058-0.17016 0.65865-0.38039 0.96094-0.61328zm-72.568 0.63086v4.4238h-4.4316l4.4316-4.4238zm37.896 0.5293h11.246v3.8945h-14.818-0.45117l4.0234-3.8945zm-12.863 0.21289 3.709 0.021484-2.5039 2.8301c-1.0059-0.90938-1.9457-1.8607-2.8359-2.8438l1.6309-0.007812zm-10.654 0.64258 1.0723 1.7441 0.011718 0.015624c0.27886 0.3693 0.71276 0.93755 1.2344 1.5547h-2.3184v-3.3145zm59.217 2.6016-0.61133 0.61328v-0.36524c0.20506-0.077672 0.40771-0.16108 0.61133-0.24805zm-1.0273 0.39844v0.22461l-0.16992-0.16406c0.056628-0.019097 0.11329-0.04079 0.16992-0.060547zm-0.31641 0.11328 0.20898 0.20117h-0.88476c0.22503-0.064091 0.44935-0.12703 0.67578-0.20117zm-54.305 0.33984h6.2441l-3.8672 2.0391c-0.94993-0.62672-1.7236-1.3469-2.377-2.0391zm25.947 5.373c-0.50654 0-0.94523 0.086754-1.3105 0.26953-0.36779 0.18401-0.65255 0.47738-0.84375 0.86328-0.19266 0.38491-0.2832 0.87161-0.2832 1.4609v0.35156l-1.1719 0.31641a0.13889 0.13889 0 0 0-0.10156 0.13281v0.5a0.13889 0.13889 0 0 0 0.13867 0.13867h1.1348v5.9004a0.13889 0.13889 0 0 0 0.13867 0.13867h1.0898a0.13889 0.13889 0 0 0 0.13867-0.13867v-5.9004h1.6543a0.13889 0.13889 0 0 0 0.13867-0.13867v-0.8125a0.13889 0.13889 0 0 0-0.13867-0.13867h-1.6543v-0.36133c0-0.52908 0.10019-0.89909 0.26758-1.1152 0.17288-0.22158 0.42936-0.33398 0.81641-0.33398 0.18266 0 0.3595 0.019224 0.5332 0.058594a0.13889 0.13889 0 0 0 0.003906 0.001953c0.18445 0.03674 0.34879 0.076938 0.49219 0.12109a0.13889 0.13889 0 0 0 0.17188-0.087891l0.2832-0.81836a0.13889 0.13889 0 0 0-0.087891-0.17773c-0.182-0.060631-0.39062-0.11345-0.62695-0.16016-0.23837-0.04799-0.49969-0.070312-0.7832-0.070312zm61.094 0.068359a0.13889 0.13889 0 0 0-0.125 0.13867v9.7266a0.13889 0.13889 0 0 0 0.13867 0.13867h1.084a0.13889 0.13889 0 0 0 0.13868-0.13867v-2.418l0.71484-0.625 2.4512 3.1289a0.13889 0.13889 0 0 0 0.10938 0.052734h1.3144a0.13889 0.13889 0 0 0 0.10937-0.22461l-3.0312-3.8301 2.8106-2.8379a0.13889 0.13889 0 0 0-0.09961-0.23633h-1.2812a0.13889 0.13889 0 0 0-0.09765 0.041016l-2.3906 2.4258a0.13889 0.13889 0 0 0-0.00195 0.001953c-0.12549 0.13224-0.27836 0.30568-0.45899 0.51953a0.13889 0.13889 0 0 0-0.00195 0c-0.0797 0.09676-0.11925 0.14374-0.18164 0.21875 5e-3 -0.09255 0.00757-0.16878 0.01367-0.27148a0.13889 0.13889 0 0 0 0-0.001953c0.0132-0.24341 0.02148-0.44874 0.02149-0.61914v-5.0508a0.13889 0.13889 0 0 0-0.13868-0.13867h-1.084a0.13889 0.13889 0 0 0-0.01367 0zm-29.904 2.6211c-0.66463 0-1.2529 0.15276-1.7539 0.45898-0.49581 0.30587-0.88353 0.74618-1.1562 1.3086-0.26907 0.55994-0.40039 1.2188-0.40039 1.9727 0 0.7718 0.14523 1.4348 0.44336 1.9805 0.29656 0.54282 0.71652 0.96101 1.252 1.2441a0.13889 0.13889 0 0 0 0.001953 0c0.53914 0.27833 1.1673 0.41602 1.877 0.41602 0.49264 0 0.92049-0.036159 1.2871-0.10938 0.36912-0.07284 0.73984-0.18808 1.1113-0.3457a0.13889 0.13889 0 0 0 0.083985-0.12891v-0.91211a0.13889 0.13889 0 0 0-0.19141-0.12891c-0.37029 0.15163-0.72654 0.26648-1.0684 0.34375-0.33767 0.07633-0.73041 0.11524-1.1777 0.11524-0.71364 0-1.2431-0.19912-1.6211-0.58984-0.3527-0.36458-0.54539-0.89569-0.58008-1.6016h4.8223a0.13889 0.13889 0 0 0 0.13867-0.13867v-0.64453c0-0.63826-0.12004-1.2026-0.36328-1.6875-0.24302-0.48881-0.59848-0.873-1.0586-1.1445-0.46229-0.2728-1.014-0.40625-1.6465-0.40625v-0.001953zm18.799 0c-0.70623 0-1.3248 0.145-1.8477 0.4375-0.51846 0.28828-0.92098 0.71426-1.1992 1.2656-0.27911 0.54889-0.41601 1.2081-0.41601 1.9746 0 0.57561 0.08223 1.0954 0.24609 1.5547 0.16765 0.45715 0.40191 0.84685 0.70508 1.166a0.13889 0.13889 0 0 0 0.00195 0.001953c0.3066 0.31796 0.66852 0.56294 1.084 0.73242a0.13889 0.13889 0 0 0 0.00195 0c0.42037 0.16527 0.88205 0.24805 1.3789 0.24805 0.53085 0 1.0098-0.082479 1.4355-0.24805 0.42877-0.16933 0.7984-0.4152 1.1016-0.73438 0.30367-0.31969 0.53449-0.71002 0.69335-1.168 0.15923-0.45899 0.23829-0.97748 0.23829-1.5527 0-0.76313-0.14126-1.4216-0.42969-1.9707-0.28248-0.5502-0.68759-0.9774-1.2051-1.2695-0.51351-0.29231-1.1127-0.43555-1.7891-0.43555v-0.001953zm-39.098 0.013672c-0.47536 0-0.92865 0.058005-1.3613 0.17383-0.42747 0.11443-0.80895 0.25295-1.1426 0.41602a0.13889 0.13889 0 0 0-0.066407 0.17773l0.33594 0.78906a0.13889 0.13889 0 0 0 0.18555 0.070313c0.30048-0.13891 0.61734-0.25889 0.95312-0.36133 0.32787-0.10002 0.67333-0.15039 1.0371-0.15039 0.46341 0 0.80128 0.11057 1.0371 0.32031 0.22429 0.19948 0.35547 0.56972 0.35547 1.1406v0.28516l-1.1094 0.044922c-1.1776 0.033914-2.0664 0.2342-2.6699 0.62305-0.60223 0.38802-0.91797 0.96936-0.91797 1.6914 0 0.47393 0.10212 0.87806 0.3125 1.2012a0.13889 0.13889 0 0 0 0 0.001953c0.21145 0.31754 0.5018 0.55734 0.86133 0.71289a0.13889 0.13889 0 0 0 0.001953 0c0.36127 0.15429 0.7694 0.23047 1.2227 0.23047 0.42523 0 0.78771-0.042371 1.0898-0.13086a0.13889 0.13889 0 0 0 0.001953 0c0.30308-0.09179 0.57164-0.22684 0.80469-0.4043a0.13889 0.13889 0 0 0 0.001954-0.001953c0.17658-0.13782 0.34016-0.31891 0.50391-0.50391l0.16797 0.80469a0.13889 0.13889 0 0 0 0.13476 0.11133h0.79492a0.13889 0.13889 0 0 0 0.13867-0.13867v-4.6582c0-0.82828-0.21618-1.4613-0.66992-1.8613-0.45149-0.39807-1.1259-0.58398-2.0039-0.58398zm-5.1621 0.11523c-0.35845 0-0.68887 0.065628-0.98828 0.19922-0.29022 0.13154-0.5478 0.31118-0.76953 0.53516-0.14654 0.14535-0.25899 0.31741-0.37695 0.48438l-0.089844-0.9668a0.13889 0.13889 0 0 0-0.13867-0.12695h-0.90625a0.13889 0.13889 0 0 0-0.13867 0.13867v6.8516a0.13889 0.13889 0 0 0 0.13867 0.13867h1.0957a0.13889 0.13889 0 0 0 0.13867-0.13867v-3.6758c0-0.3399 0.05351-0.64222 0.15625-0.91211a0.13889 0.13889 0 0 0 0-0.001953c0.10379-0.27662 0.24482-0.50752 0.42383-0.69727a0.13889 0.13889 0 0 0 0.001954-0.001953c0.18018-0.19489 0.38504-0.34069 0.62109-0.44141a0.13889 0.13889 0 0 0 0.001953 0c0.24096-0.10496 0.49468-0.15625 0.76562-0.15625 0.12086 0 0.2507 0.007297 0.39062 0.023437 0.13965 0.01611 0.26556 0.038917 0.37695 0.066407a0.13889 0.13889 0 0 0 0.16992-0.11524l0.13867-0.96289a0.13889 0.13889 0 0 0-0.10938-0.15625c-0.12934-0.02638-0.27578-0.045733-0.4375-0.058593-0.16076-0.01687-0.31636-0.025391-0.46484-0.025391zm13.273 0c-0.31907 0-0.62267 0.043182-0.9082 0.13086-0.28562 0.087689-0.54544 0.21846-0.77734 0.39062-0.16471 0.12229-0.3026 0.27146-0.42773 0.43359l-0.12109-0.71484a0.13889 0.13889 0 0 0-0.13672-0.11523h-0.88086a0.13889 0.13889 0 0 0-0.13867 0.13867v6.8516a0.13889 0.13889 0 0 0 0.13867 0.13867h1.0898a0.13889 0.13889 0 0 0 0.13867-0.13867v-3.625c0-0.52632 0.063651-0.96374 0.18359-1.3105v-0.001954c0.12312-0.34718 0.31246-0.59575 0.57422-0.76562 0.25969-0.16853 0.61511-0.25977 1.0742-0.25977 0.32002 0 0.57342 0.06015 0.76562 0.16992a0.13889 0.13889 0 0 0 0.001953 0.001953c0.19697 0.1066 0.34081 0.26279 0.43945 0.48438a0.13889 0.13889 0 0 0 0 0.001953c0.10267 0.22175 0.1582 0.51051 0.1582 0.86719v4.4375a0.13889 0.13889 0 0 0 0.13867 0.13867h1.084a0.13889 0.13889 0 0 0 0.13867-0.13867v-3.832c0-0.72645 0.15422-1.2562 0.44141-1.6055 0.28338-0.34465 0.73943-0.52539 1.4102-0.52539 0.46867 0 0.79252 0.12781 1.0117 0.37305a0.13889 0.13889 0 0 0 0.001953 0.001953c0.22243 0.24091 0.3457 0.61733 0.3457 1.1504v4.4375a0.13889 0.13889 0 0 0 0.13867 0.13867h1.0762a0.13889 0.13889 0 0 0 0.13867-0.13867v-4.4883c0-0.89208-0.2052-1.5665-0.64453-1.9941h-0.001953c-0.43529-0.42765-1.0732-0.63281-1.8887-0.63281-0.50846 0-0.98149 0.10191-1.4121 0.30664h-0.001953c-0.38647 0.18024-0.6908 0.46388-0.93164 0.81445-0.1809-0.34724-0.43425-0.63267-0.7832-0.8125-0.39277-0.20879-0.87236-0.30859-1.4355-0.30859zm39.352 0c-0.35845 0-0.69081 0.065628-0.99023 0.19922-0.29022 0.13154-0.54779 0.31118-0.76953 0.53516-0.14644 0.14524-0.257 0.3175-0.375 0.48438l-0.0918-0.9668a0.13889 0.13889 0 0 0-0.13867-0.12695h-0.90625a0.13889 0.13889 0 0 0-0.13867 0.13867v6.8516a0.13889 0.13889 0 0 0 0.13867 0.13867h1.0976a0.13889 0.13889 0 0 0 0.13868-0.13867v-3.6758c0-0.3399 0.05157-0.64222 0.15429-0.91211a0.13889 0.13889 0 0 0 0-0.001953c0.10382-0.27669 0.24682-0.50757 0.42578-0.69727a0.13889 0.13889 0 0 0 0-0.001953c0.18014-0.19484 0.38696-0.34068 0.62305-0.44141 0.24096-0.10496 0.49469-0.15625 0.76563-0.15625 0.12087 0 0.25068 0.007297 0.39062 0.023437 0.13968 0.01611 0.26561 0.038927 0.37695 0.066407a0.13889 0.13889 0 0 0 0.17188-0.11524l0.13867-0.96289a0.13889 0.13889 0 0 0-0.11133-0.15625c-0.12934-0.02638-0.27382-0.045733-0.43554-0.058593h-0.00196c-0.16075-0.01687-0.31441-0.025391-0.46289-0.025391zm-22.947 0.125a0.13889 0.13889 0 0 0-0.13281 0.17773l1.9844 6.8516a0.13889 0.13889 0 0 0 0.13281 0.099609h1.2285a0.13889 0.13889 0 0 0 0.13086-0.09375l1.3398-3.9668v-0.001954c0.06215-0.17329 0.1171-0.34437 0.16602-0.51367 0.0481-0.17064 0.093324-0.33386 0.13281-0.48828v-0.003906c0.02952-0.10408 0.052452-0.19385 0.076172-0.28711 0.02464 0.093 0.047438 0.18232 0.074218 0.28711a0.13889 0.13889 0 0 0 0.001953 0.005859c0.04377 0.14999 0.090562 0.30809 0.13867 0.47461a0.13889 0.13889 0 0 0 0 0.003906c0.05266 0.16291 0.10896 0.33067 0.16602 0.50195l1.2793 3.9863a0.13889 0.13889 0 0 0 0.13281 0.095703h1.2676a0.13889 0.13889 0 0 0 0.13281-0.099609l1.9902-6.8516a0.13889 0.13889 0 0 0-0.13281-0.17773h-1.1113a0.13889 0.13889 0 0 0-0.13281 0.10156l-1.0508 3.7832c-0.07014 0.2587-0.1393 0.51321-0.20508 0.76367a0.13889 0.13889 0 0 0 0 0.001953c-0.05947 0.24259-0.11102 0.46428-0.1582 0.66797-0.05247-0.20356-0.11249-0.4135-0.17774-0.62891v-0.001953c-0.06148-0.21724-0.12543-0.42597-0.19141-0.62695v-0.001953l-1.2812-3.9629a0.13889 0.13889 0 0 0-0.13086-0.095703h-1.1758a0.13889 0.13889 0 0 0-0.13281 0.095703l-1.3262 3.9688c-0.04877 0.14769-0.097876 0.30638-0.14648 0.47461-0.04847 0.16362-0.094578 0.33018-0.13867 0.49805a0.13889 0.13889 0 0 0 0 0.001953c-0.02731 0.11264-0.052985 0.21574-0.078125 0.32031-0.0031-0.01378-0.004613-0.023109-0.007813-0.037109-0.04421-0.21845-0.098319-0.44925-0.16406-0.69141v-0.001954c-0.06138-0.2461-0.12717-0.49392-0.19727-0.74414l-1.0391-3.7832a0.13889 0.13889 0 0 0-0.13281-0.10156h-1.1309zm-4.2305 0.875c0.3919 0 0.70068 0.083751 0.93555 0.24023 0.23887 0.15536 0.41549 0.37041 0.5332 0.66016a0.13889 0.13889 0 0 0 0 0.003906c0.10722 0.25173 0.16248 0.54917 0.17969 0.88086h-3.4844c0.07975-0.54457 0.25419-0.98041 0.54492-1.2852 0.31904-0.33441 0.73746-0.5 1.291-0.5zm18.787 0.025391c0.48817 0 0.87074 0.10323 1.1621 0.30078 0.2953 0.20021 0.51349 0.48157 0.6582 0.85938a0.13889 0.13889 0 0 0 0 0.001953c0.14551 0.37591 0.2207 0.82839 0.2207 1.3613 0 0.53721-0.07484 0.99806-0.2207 1.3828-0.14473 0.38178-0.36422 0.66669-0.66406 0.87109a0.13889 0.13889 0 0 0-0.00196 0.001954c-0.29185 0.20168-0.66978 0.30664-1.1484 0.30664-0.4832 0-0.86464-0.10512-1.1562-0.30664-0.29561-0.20428-0.51334-0.49092-0.65821-0.87305-0.14584-0.38471-0.2207-0.84556-0.2207-1.3828 0-0.81383 0.16978-1.4337 0.49219-1.873v-0.001953c0.32201-0.43239 0.81792-0.64844 1.5371-0.64844zm-37.752 2.7305v0.48633c0 0.64723-0.18835 1.1036-0.56055 1.4121-0.37972 0.31478-0.86758 0.47461-1.4824 0.47461-0.39053 0-0.686-0.086447-0.90625-0.25195-0.21248-0.15966-0.32031-0.3956-0.32031-0.75781 0-0.41227 0.15499-0.70556 0.49024-0.92969 0.3268-0.21848 0.9405-0.36163 1.8262-0.39453l0.95312-0.039062z"/>
</svg>
