<svg viewBox="0 0 128 128" xmlns="http://www.w3.org/2000/svg">
<path d="m12.074 28.064v0.001953c-0.26581 3.8e-5 -0.48825 0.22247-0.48828 0.48828v2.7207c-0.18878-0.11449-0.38816-0.21456-0.60938-0.28906-0.34695-0.11686-0.73444-0.16992-1.1562-0.16992-1.0126 0-1.8953 0.36311-2.5293 1.0684-0.6495 0.71812-0.93945 1.7417-0.93945 2.9961 0 1.0693 0.16139 2.0039 0.67383 2.6523 0.16061 0.20326 0.27219 0.37457 0.66992 0.70312 0.55865 0.46149 1.3011 0.6582 2.1074 0.6582 0.42966 0 0.81772-0.050677 1.166-0.16797 0.001424-2.9e-4 0.002486-0.001642 0.003906-0.001953 0.30516-0.10563 0.57819-0.25233 0.81836-0.43359l0.011718 0.072265c0.03924 0.23299 0.24616 0.40818 0.48242 0.4082h0.87891c0.26581-3.8e-5 0.4902-0.22442 0.49024-0.49023v-9.7266c-3.1e-5 -0.26581-0.22442-0.48824-0.49024-0.48828l-1.0898-0.001953zm4.1152 0.31445c-0.29004 0-0.57692 0.096341-0.79688 0.29102-0.25482 0.22522-0.34961 0.55674-0.34961 0.87891 0 0.31871 0.096991 0.64474 0.3418 0.87109 0.0022 0.0021 0.005612 0.005712 0.007812 0.007812 0.22001 0.19497 0.50648 0.29102 0.79688 0.29102 0.28529 0 0.56393-0.099991 0.7793-0.28906 0.25786-0.22241 0.36523-0.55384 0.36523-0.88086 0-0.3283-0.10563-0.66399-0.36914-0.88477-0.21476-0.18685-0.49183-0.28516-0.77539-0.28516zm-3.9043 0.38672h0.66797v9.3047h-0.49023l-0.095703-0.56445c-0.04988-0.29606-0.41804-0.3924-0.61524-0.16602-0.25396 0.29155-0.44342 0.45236-0.56836 0.52148-0.43023 0.23804-0.91917 0.33179-1.3828 0.33398-0.86332 0-1.5169-0.27229-2.0098-0.81836-0.48328-0.54058-0.74023-1.3621-0.74023-2.4961 0-1.1468 0.26301-1.9781 0.75977-2.5273 0.5027-0.55959 1.1567-0.83789 2.0098-0.83789 0.36328 0 0.67383 0.04599 0.93164 0.13281 0.2645 0.089079 0.48747 0.20801 0.67188 0.35352 0.0011 8.85e-4 0.002906 0.001053 0.003906 0.001953 0.08812 0.06786 0.17359 0.17649 0.29492 0.31445 0.22408 0.25457 0.64114 0.073984 0.60938-0.26367-0.0081-0.08626-0.014624-0.13502-0.021484-0.22266-0.01722-0.22181-0.025391-0.40038-0.025391-0.5332v-2.5332zm3.9043 0.3125c0.12939 0 0.23193 0.03925 0.31836 0.11523 0.0025 0.0022 0.00326 0.00376 0.00586 0.00586 0.07014 0.05824 0.12109 0.16176 0.12109 0.34961 0 0.18328-0.049413 0.28829-0.12305 0.35156-0.0012 9.96e-4 -0.002707 0.002906-0.003907 0.003906-0.086479 0.07634-0.18864 0.11523-0.31836 0.11523-0.14038 0-0.24753-0.041218-0.33203-0.11523-0.06733-0.0623-0.11328-0.16811-0.11328-0.35547 0-0.19323 0.046901-0.29853 0.11133-0.35547 0.0848-0.0751 0.19237-0.11523 0.33398-0.11523zm21.768 1.5957v0.001953c-0.62943 0-1.192 0.099651-1.6777 0.31836-0.48428 0.21808-0.88116 0.55299-1.1484 0.98828-0.26924 0.43438-0.39452 0.95074-0.39453 1.5137 0 0.54507 0.14228 1.0547 0.42969 1.4883 5.7e-4 8.85e-4 0.001453 0.003006 0.001953 0.003906l0.001953 0.001953c0.13453 0.19682 0.29478 0.35959 0.46875 0.49805-0.062376 0.05791-0.1227 0.11706-0.17773 0.18164l-0.001954 0.001953-0.02539 0.027344c-9.3e-4 0.0012-0.001053 0.002606-0.001953 0.003906l-0.001953 0.001953c-0.21029 0.27294-0.31836 0.60854-0.31836 0.95508 0 0.27969 0.085097 0.54964 0.23828 0.78125-0.22677 0.11205-0.43917 0.25009-0.61719 0.4375-9.07e-4 9.4e-4 -0.001053 0.003007-0.001953 0.003906-0.36476 0.3899-0.55859 0.89373-0.55859 1.4336 0 0.74578 0.35953 1.4024 0.98633 1.8125v0.001953h0.001953v0.001953h0.001953c0.001498 8.76e-4 0.002922 0.001368 0.003907 0.001954 0.036296 0.022428 0.054304 0.028399 0.052734 0.027343 0.61993 0.38761 1.4242 0.55664 2.3984 0.55664 1.2793 0 2.3037-0.20463 3.0684-0.68164 0.76838-0.47933 1.2031-1.256 1.2031-2.1582 0-0.71195-0.27921-1.345-0.81445-1.75-0.0038-0.0035-0.007749-0.006505-0.011719-0.009765l-0.001953-0.001953c-0.53303-0.40001-1.2439-0.5664-2.0918-0.56641h-1.2676c-0.2006 0-0.36132-0.015442-0.47852-0.039062-0.0731-0.01788-0.094224-0.031349-0.11328-0.042969 3e-3 -0.05618 0.014884-0.090332 0.052734-0.13867 0.03956-0.04686 0.12734-0.11377 0.24024-0.18359 0.16173 0.01962 0.32486 0.039063 0.49023 0.039063 0.9266 0 1.7185-0.22388 2.3125-0.71289 0.0026-0.0022 0.005313-0.003559 0.007813-0.005859 0.58863-0.49261 0.90039-1.2024 0.90039-2.002 0-0.33043-0.052795-0.64628-0.16406-0.9375-0.0019-0.0049-0.00396-0.008822-0.00586-0.013672l0.60547-0.070313c0.24312-0.02871 0.43139-0.24151 0.43164-0.48633v-0.66797c-4.2e-5 -0.26581-0.22248-0.4902-0.48828-0.49023h-0.001954-2.4238c-0.08602-0.02129-0.17422-0.040117-0.27539-0.054687-0.13413-0.02333-0.27332-0.039589-0.41602-0.048829h-0.005859c-0.0069-5.53e-4 -0.012602-0.001897-0.019532-0.001953h-0.001953c-0.12923-0.01161-0.2601-0.019531-0.39062-0.019531zm-15.916 0.025391v0.001953h-0.001954c-0.50356 3.4e-5 -0.98762 0.061446-1.4512 0.18555-0.4454 0.11923-0.8473 0.26456-1.2051 0.43945-0.23014 0.11276-0.33651 0.39498-0.23633 0.63086l0.33594 0.78711c0.10606 0.24973 0.40792 0.36567 0.6543 0.25195 0.28521-0.13185 0.5888-0.24572 0.91016-0.34375 0.29364-0.08958 0.60202-0.13672 0.93359-0.13672 0.40732 0 0.64704 0.09221 0.80469 0.23242 0.10957 0.09743 0.22578 0.34773 0.23438 0.82812l-0.76562 0.03125h-0.001953-0.001953c-1.21 0.03522-2.1572 0.23405-2.8457 0.67773-0.68945 0.44422-1.0781 1.1623-1.0781 1.9863 0 0.52255 0.11495 1.001 0.36914 1.3926 9.24e-4 0.0014 0.001054 0.002507 0.001954 0.003907 0.2485 0.37317 0.59693 0.65954 1.0137 0.83984 0.016019 0.0045 0.032328 0.009459 0.048828 0.011719l-0.046875-0.009765c0.41112 0.17557 0.8692 0.25781 1.3613 0.25781 0.44826 0 0.84355-0.04322 1.1895-0.14453 0.0062-0.0022 0.011558-0.005313 0.017578-0.007813 0.0059-0.0022 0.011768-0.003459 0.017578-0.005859 0.0073-0.0026 0.014415-0.006766 0.021484-0.009766 0.31674-0.10222 0.60954-0.24626 0.86328-0.43945 0.0011-8.86e-4 0.002906-0.001053 0.003906-0.001953l0.001953-0.001953c0.02818-0.02202 0.051175-0.047243 0.078125-0.070312l0.035156 0.16602c0.04665 0.2247 0.24903 0.39046 0.47852 0.39062h0.79492c0.26581-3.8e-5 0.48825-0.22442 0.48828-0.49023v-4.6562c0-0.88941-0.23964-1.6386-0.78906-2.123-0.54031-0.47639-1.3067-0.67383-2.2344-0.67383zm8.373 0.11719c-0.36729 0-0.72301 0.04943-1.0625 0.15039-0.34008 0.09698-0.65596 0.24541-0.9375 0.44336l-0.003906 0.003906c-0.01013 7e-3 -0.019347 0.016278-0.029297 0.023438l-0.013671-0.087891c-0.03884-0.23339-0.24582-0.40816-0.48242-0.4082h-0.87891c-0.26581 3.9e-5 -0.4902 0.22247-0.49023 0.48828v6.8516c4.3e-5 0.26581 0.22443 0.4902 0.49023 0.49023h1.0898c0.2658-3.9e-5 0.48824-0.22443 0.48828-0.49023v-3.5879c0-0.75194 0.15325-1.2649 0.38672-1.5742 0.20882-0.27665 0.58049-0.44922 1.291-0.44922 0.48408 0 0.74759 0.11186 0.90234 0.27344 9.29e-4 9.41e-4 0.001054 0.003007 0.001954 0.003907 0.16157 0.16599 0.27539 0.44666 0.27539 0.93945v4.3945c4.3e-5 0.26581 0.22443 0.4902 0.49024 0.49023h1.0762c0.26581-3.8e-5 0.48824-0.22443 0.48828-0.49023v-4.4629c0-0.95936-0.24501-1.7565-0.81445-2.2734-0.55464-0.5066-1.3373-0.72852-2.2676-0.72852zm15.508 0.021485c-0.72589 0-1.3888 0.15477-1.9609 0.48047l-0.001954 0.001953c-0.57522 0.32524-1.0295 0.80822-1.3398 1.4121-0.31967 0.60921-0.46875 1.3252-0.46875 2.1309 0 0.60689 0.081512 1.1654 0.25586 1.668 0.17316 0.49912 0.4308 0.93627 0.77148 1.2949 0.33898 0.35688 0.75406 0.63176 1.2266 0.81836h0.001953c0.001362 3.57e-4 0.002541 0.001613 0.003906 0.001953 0.44574 0.17274 0.93861 0.25867 1.4688 0.26758v0.001954c0.01756-6e-6 0.033302 2.22e-4 0.050782 0h0.037109v-0.001954c0.5317-0.008899 1.0259-0.093824 1.4727-0.26758l-0.046875 0.007813c0.01652-0.0019 0.032758-0.005466 0.048828-0.009766 0.4725-0.1866 0.88759-0.46148 1.2266-0.81836 0.34069-0.35866 0.59638-0.79581 0.76953-1.2949 0.17435-0.50259 0.25781-1.0591 0.25781-1.666 0-0.80562-0.14908-1.5236-0.46875-2.1328-0.31038-0.6039-0.76657-1.0869-1.3418-1.4121-0.56027-0.31896-1.2096-0.476-1.918-0.48242-0.01431 0-0.028631 8.7e-5 -0.042969 0h-0.001953zm-30.291 0.10352c-0.2658 3.9e-5 -0.48824 0.22248-0.48828 0.48828v7.959c0 0.34376-0.090256 0.47741-0.10742 0.49219-0.08733 0.07521-0.18885 0.11914-0.40234 0.11914-0.15163 0-0.28168-0.010607-0.38672-0.029297l-0.001953-0.001953c-0.0039-7.19e-4 -0.009692-0.001453-0.013672-0.001953-0.11633-0.0173-0.22973-0.041762-0.3418-0.076172-0.30482-0.09335-0.63246 0.148-0.63281 0.4668v0.84375c2.77e-4 0.20772 0.1354 0.39594 0.33203 0.46289 0.15187 0.05162 0.31862 0.090707 0.50195 0.12305 0.20567 0.04062 0.42917 0.058594 0.67383 0.058594 0.50425 0 0.95622-0.087701 1.3379-0.29688 0.37462-0.2053 0.67006-0.5206 0.85156-0.9082v-0.001953c0.17708-0.37528 0.25781-0.80501 0.25781-1.2754v-7.9336c-4.2e-5 -0.26581-0.22443-0.48824-0.49024-0.48828h-1.0898zm22.326 0.43359h0.001953c0.11767 3.9e-5 0.23475 0.006078 0.35352 0.017578 0.01088 0.0011 0.022273 0.001953 0.033203 0.001953h-0.019531c0.12362 0.0079 0.23879 0.019943 0.34766 0.039063 0.0038 6.64e-4 0.007979 0.001453 0.011719 0.001953 0.09857 0.01399 0.18234 0.032294 0.25781 0.052734 0.0298 0.0081 0.060927 0.011709 0.091797 0.011719h2.2441v0.26953l-0.93555 0.11133c-0.25638 0.03024-0.3927 0.31748-0.25391 0.53516 0.0911 0.14285 0.16111 0.24623 0.20508 0.36133 0.07731 0.20237 0.11719 0.43049 0.11719 0.6875 0 0.63046-0.21371 1.1039-0.65234 1.4688-0.43916 0.36119-1.0517 0.55273-1.8672 0.55273-0.16603 0-0.34431-0.016309-0.5293-0.042969-0.07487-0.01078-0.1504 0.002843-0.2168 0.039063-0.20949 0.11428-0.38806 0.23882-0.52539 0.4043-0.0017 2e-3 -0.00416 0.003759-0.00586 0.005859-0.13297 0.16783-0.20898 0.38876-0.20898 0.60547 0 0.1641 0.07868 0.3624 0.18945 0.46875 0.0029 0.0028 0.004713 0.005112 0.007813 0.007812 0.12376 0.1108 0.27819 0.17765 0.46289 0.2207 0.0031 7.19e-4 0.006666 0.001354 0.009766 0.001954 0.18094 0.03704 0.38753 0.054687 0.625 0.054687h1.2676c0.75577 0 1.3081 0.15111 1.6738 0.42578v0.001954c0.3646 0.27124 0.54492 0.65234 0.54492 1.1992 0 0.694-0.2772 1.194-0.87109 1.5645-0.59815 0.37314-1.4959 0.57422-2.6992 0.57422-0.91977 0-1.6071-0.1643-2.0703-0.46875v-0.001953h-0.001953l-0.001953-0.001953c-0.45861-0.29884-0.67188-0.6894-0.67188-1.2285 0-0.37954 0.12087-0.68916 0.36914-0.95508 0.1879-0.19776 0.4683-0.34442 0.81836-0.45312 0.27298-0.08482 0.33439-0.44208 0.10547-0.61328-0.076039-0.05685-0.14431-0.12135-0.20312-0.19336-0.10109-0.12893-0.15039-0.27106-0.15039-0.44141 0-0.2068 0.058931-0.37799 0.17383-0.52734 0.08874-0.11422 0.2444-0.24767 0.44336-0.38086 0.22024-0.14749 0.20318-0.47593-0.03125-0.59961-0.26503-0.13979-0.48321-0.31362-0.64844-0.55469-0.20748-0.31337-0.31055-0.67546-0.31055-1.1016 9e-6 -0.46068 0.098369-0.83708 0.28906-1.1445l0.001954-0.001953c0.19147-0.31216 0.46498-0.54887 0.83789-0.7168 0.37331-0.16812 0.83498-0.25781 1.3906-0.25781zm-15.918 0.025391h0.001954c0.828 0 1.4089 0.17833 1.7715 0.49805 0.35806 0.31573 0.55078 0.83052 0.55078 1.5977v4.4453h-0.41016l-0.13281-0.63672c-0.058709-0.28188-0.4145-0.37564-0.60547-0.16016-0.16185 0.1828-0.31573 0.35043-0.45703 0.46094l-0.001953 0.001953h-0.001953c-0.49748 0.37133-1.1187 0.45682-1.6797 0.45898-0.70762-0.01379-1.3987-0.20788-1.793-0.78516-0.16547-0.25421-0.25586-0.58572-0.25586-1.0098 0-0.62018 0.24281-1.0647 0.75781-1.3965 0.51767-0.33358 1.3469-0.5335 2.4902-0.56641 0.001299 6e-6 0.004559 6e-6 0.005859 0l1.1074-0.044922c0.18764-0.0076 0.33594-0.16182 0.33594-0.34961v-0.28516c0-0.62391-0.13787-1.1046-0.47266-1.4023-0.31403-0.27929-0.75003-0.41016-1.2695-0.41016-0.39602 0-0.77653 0.055543-1.1387 0.16602-0.27798 0.0848-0.5426 0.1855-0.79883 0.29492l-0.16992-0.40039c0.26754-0.1174 0.56028-0.22498 0.89453-0.31445 0.40157-0.10751 0.82448-0.16211 1.2715-0.16211zm8.375 0.11523c0.64417 0 1.1439 0.11948 1.5176 0.33984 0.19857 0.1171 0.34256 0.26243 0.4375 0.37695 0.28549 0.34439 0.42773 0.86927 0.42773 1.5859v4.252h-0.6543v-4.1836c0-0.60409-0.14986-1.0937-0.47461-1.4277-0.3216-0.3353-0.80753-0.49023-1.4062-0.49023-0.83341 0-1.4763 0.234-1.8496 0.72852-0.36349 0.48152-0.52734 1.151-0.52734 1.9961v3.377h-0.66797v-6.4277h0.49023l0.091797 0.5625c0.04958 0.29854 0.4162 0.38658 0.61914 0.16211 0.28733-0.31783 0.46576-0.53414 1.127-0.72656 0.0014-5.53e-4 0.002506-0.001483 0.003906-0.001953 0.27291-0.0814 0.56074-0.12303 0.86523-0.12305zm15.508 0.021484v0.001953c0.62668 0 1.1625 0.13176 1.6172 0.39063 0.4583 0.25868 0.81026 0.62991 1.0645 1.125l0.001953 0.001953c0.25671 0.48868 0.39062 1.0887 0.39062 1.8086 0 0.54354-0.074626 1.022-0.21875 1.4375-0.1446 0.4168-0.3506 0.76231-0.61719 1.043-0.61487 0.61818-1.4173 0.85705-2.2285 0.87109-0.86082-0.01735-1.6659-0.2705-2.2461-0.87109-0.26659-0.28066-0.47259-0.62617-0.61719-1.043-0.14413-0.41548-0.2168-0.89397-0.2168-1.4375 0-0.71992 0.13196-1.3199 0.38867-1.8086l0.001954-0.001953c0.25419-0.49509 0.60615-0.86632 1.0645-1.125l0.001953-0.001954c0.45431-0.25865 0.98731-0.39039 1.6133-0.39062zm-30.08 0.10547h0.66797v7.7207c0 0.3029-0.036257 0.56604-0.11328 0.78906-0.05624 0.16284-0.20245 0.4058-0.2832 0.50781-0.09043 0.11424-0.21178 0.20093-0.34766 0.27539-0.24914 0.13654-0.58017 0.21094-1.002 0.21094-0.21227 0-0.39239-0.015262-0.54102-0.044922-0.0026-5.52e-4 -0.005212-0.001453-0.007812-0.001953-0.10123-0.01779-0.17628-0.04054-0.25781-0.0625v-0.41602c0.053538 0.011126 0.10628 0.02807 0.16016 0.037109h0.001953l0.005859 0.001953h0.001953c0.15431 0.02727 0.32211 0.039063 0.50586 0.039063 0.33277 0 0.63512-0.095945 0.85938-0.28906 0.25941-0.2234 0.34961-0.5726 0.34961-1.0215v-7.7461zm22.076 0.080078c-0.53502 0-0.98652 0.15026-1.3027 0.46094-0.31441 0.30914-0.46484 0.76276-0.46484 1.3066 0 0.50488 0.1595 0.93842 0.47656 1.2305 0.31863 0.2935 0.76726 0.43164 1.3047 0.43164 0.55422 0 1.0073-0.13567 1.3203-0.43359 0.30956-0.29464 0.46094-0.73228 0.46094-1.248 0-0.54754-0.14981-1.0007-0.4668-1.3027-0.31578-0.30502-0.77356-0.44531-1.3281-0.44531zm-27.945 0.23438c-0.71657 0-1.3111 0.2887-1.6777 0.83008h-0.0019531c-0.36484 0.53494-0.53516 1.2457-0.53516 2.1191 0 0.86791 0.16812 1.5616 0.53125 2.0703v0.001954c6.804e-4 0.0011 0.0012631 0.002806 0.0019531 0.003906 0.36998 0.509 0.96385 0.77344 1.6816 0.77344 0.80712 0 1.4341-0.22642 1.8027-0.70703 0.36135-0.47115 0.52344-1.1375 0.52344-1.9863v-0.1875c0-0.89594-0.1541-1.6028-0.49414-2.1211v-0.001953c-0.34643-0.5345-0.99207-0.7944-1.8301-0.79492h-0.0019532zm35.906 0.033203v0.001954c-0.50706 0.009899-0.94459 0.12448-1.291 0.35937-0.35547 0.24101-0.6213 0.59085-0.78711 1.0234v0.001953c-0.16496 0.42642-0.24414 0.92278-0.24414 1.4883 0 0.56987 0.079611 1.0718 0.24414 1.5059 0.16561 0.43684 0.43364 0.79186 0.79297 1.0371 0.34683 0.23962 0.78291 0.35786 1.2852 0.36719 0.0085 5.6e-5 0.016841 0.001953 0.025391 0.001953 0.0085 0 0.014967-0.001897 0.023437-0.001953 0.0046 2.3e-5 0.009052 0.001953 0.013672 0.001953 0.0085 0 0.016891-0.001898 0.025391-0.001953 0.50223-0.0093 0.93834-0.12757 1.2852-0.36719 0.35933-0.24525 0.62736-0.60026 0.79297-1.0371 0.16452-0.43401 0.24414-0.93599 0.24414-1.5059 0-0.5655-0.079173-1.0619-0.24414-1.4883-0.1658-0.43259-0.43164-0.78438-0.78711-1.0254-0.34643-0.23489-0.78396-0.34952-1.291-0.35937v-0.001954h-0.017578-0.003907c-0.009799 5e-6 -0.017633 0.001843-0.027343 0.001954-0.0059-3.3e-5 -0.011668-0.001954-0.017578-0.001954h-0.003907-0.017578zm-7.9609 0.43164c0.44115 0 0.69014 0.1014 0.84375 0.25 9.69e-4 9.41e-4 9.53e-4 0.003006 0.001953 0.003906 0.14939 0.14219 0.24805 0.36571 0.24805 0.79492 0 0.39201-0.090531 0.59591-0.24219 0.74024-0.14603 0.13899-0.39446 0.24023-0.83789 0.24023-0.42365 0-0.67067-0.095502-0.83203-0.24414-0.16252-0.14969-0.24805-0.34196-0.24805-0.7168 0-0.42434 0.098082-0.65539 0.25391-0.80859 0.16602-0.16305 0.39887-0.25977 0.8125-0.25977zm-27.945 0.23438c0.70897 0 1.0474 0.17261 1.2441 0.47656 6.08e-4 9.96e-4 0.001353 0.002907 0.001953 0.003907 0.22883 0.34902 0.38086 0.92568 0.38086 1.7383v0.1875c0 0.75718-0.15462 1.2661-0.37891 1.5586-0.20502 0.26731-0.56406 0.43359-1.248 0.43359-0.56623 0-0.87025-0.15083-1.1133-0.48438-0.24509-0.34253-0.40039-0.8865-0.40039-1.6641 0-0.7818 0.15582-1.3482 0.41406-1.7266 0.25037-0.36999 0.54488-0.52335 1.0996-0.52344zm35.943 0.035156c0.42778 0.0028 0.73065 0.093356 0.94726 0.24024 0.23498 0.15932 0.40372 0.37253 0.52734 0.69531l0.001953 0.001953c0.12592 0.3253 0.19531 0.73627 0.19531 1.2363 0 0.50454-0.070098 0.92236-0.19727 1.2578-0.12371 0.32634-0.29524 0.54348-0.53516 0.70703l-0.001953 0.001953c-0.21744 0.15026-0.51198 0.24052-0.92578 0.24414-0.42019-0.0019-0.71599-0.092418-0.93555-0.24414-8.85e-4 -6.09e-4 -0.003007-0.001353-0.003907-0.001953-0.23992-0.16355-0.40949-0.38069-0.5332-0.70703-0.12717-0.33546-0.19727-0.75523-0.19727-1.2598 6e-6 -0.50006 0.069398-0.90908 0.19531-1.2344l0.001953-0.001953c0.12363-0.32278 0.29237-0.53599 0.52734-0.69531 0.2145-0.14544 0.51243-0.23573 0.93359-0.24024zm-22.572 1.8809-0.94531 0.039062c-0.001853 1.16e-4 -0.003987 0-0.00586 0-0.91757 0.03408-1.5719 0.16168-2.0078 0.45312-0.41063 0.27451-0.64453 0.72078-0.64453 1.2207 0 0.4309 0.15892 0.81164 0.45898 1.0371 0.29373 0.22072 0.67416 0.32422 1.1172 0.32422 0.67545 0 1.2571-0.18329 1.7051-0.55469 0.45799-0.37974 0.6875-0.96647 0.6875-1.6816v-0.48828c-5.5e-5 -0.19876-0.16663-0.35755-0.36523-0.34961zm-0.33594 0.71484v0.12305c0 0.57927-0.1472 0.90512-0.43359 1.1426-0.31142 0.25814-0.70351 0.39258-1.2578 0.39258-0.33803 0-0.55056-0.071393-0.69726-0.18164-0.12481-0.09378-0.17969-0.18486-0.17969-0.47852 0-0.32461 0.074118-0.46494 0.33398-0.63867 0.21765-0.14551 0.79074-0.30422 1.6445-0.33594h0.001953l0.58789-0.023438zm-14.746 1.6445c0.0049499 9e-3 0.009912 0.018833 0.015625 0.027343l-0.015625-0.027343zm29.086 0.86719c-0.34494 0-0.65456 0.05026-0.92578 0.1582-0.27051 0.10767-0.49702 0.27888-0.65234 0.5-0.0012 0.0017-0.002706 0.002107-0.003906 0.003907-0.15316 0.22676-0.22656 0.50871-0.22656 0.81836 0 0.42062 0.227 0.80952 0.5957 1.0254h0.001953c0.37951 0.22616 0.87988 0.32422 1.5117 0.32422 0.60871 0 1.119-0.058628 1.5371-0.18359v-0.001953h0.001953l0.005859-0.001953c0.4138-0.11946 0.74179-0.29685 0.96875-0.55078l0.001953-0.001953c0.22605-0.24504 0.34961-0.56711 0.34961-0.9043 0-0.30671-0.075822-0.57471-0.25195-0.76562l-0.00586-0.005859c-0.16923-0.17662-0.40584-0.2826-0.6875-0.33398-0.0011 0-0.002806-0.001732-0.003906-0.001953-0.0038-5.54e-4 -0.007869 2.7e-4 -0.011719 0-0.2701-0.05196-0.58748-0.078125-0.95898-0.078125h-1.2461zm-0.001953 0.69922h0.001953 1.2461c0.34526 0 0.62975 0.025036 0.83984 0.066406 7e-3 9.4e-4 0.012531 0.001453 0.019531 0.001953h-0.013672c0.1815 0.03277 0.26627 0.08578 0.30859 0.12891 0.02487 0.02772 0.064453 0.09432 0.064453 0.28906 0 0.19201-0.041229 0.29718-0.16406 0.42969-0.0024 0.0025-0.005513 0.005213-0.007813 0.007813-0.10984 0.12355-0.31399 0.2541-0.64844 0.34961-4e-3 0.0012-0.007729 0.002507-0.011719 0.003907-0.32333 0.096019-0.77171 0.15234-1.332 0.15234-0.5552 0-0.94188-0.097904-1.1543-0.22461-0.0013-7.3e-4 -0.002607-0.003106-0.003907-0.003906-0.21992-0.12839-0.25-0.18118-0.25-0.41992 0-0.20434 0.040129-0.32903 0.10352-0.42383 0.07397-0.10424 0.16899-0.1816 0.33594-0.24805 0.17056-0.06789 0.39054-0.10932 0.66602-0.10938zm43.721 6.6133v0.001953c-0.09946-8.91e-4 -0.19856-0.001543-0.29688 0-1.5153 0.02396-4.7604 0.017936-7.668 1.334-2.9076 1.316-5.4648 4.044-5.4648 9.248 0 2.1998 0.73466 4.1016 1.8867 5.7305h-23.211v-10.512h15.238v-5.3496h-21.365v5.3496h0.001953v10.512h-0.001953v5.3496h0.001953v12.457l-3.5801-0.021484-4.9531 0.023437-7.7559-12.049c1.8177-0.74956 3.5956-1.8271 4.9648-3.3379 1.4892-1.6432 2.4863-3.7907 2.4863-6.4473v-0.76367c0-3.8875-1.4808-6.6771-3.8984-8.4551-2.4176-1.778-5.7245-2.5627-9.4004-2.6465h-11.801v5.4102h0.029297v12.709h-0.029297v5.0508h0.029297v15.854h6.127v-15.869l6.1602-0.017578 8.457 13.758 0.011718 0.017578c0.71617 0.94845 2.2056 3.0537 4.6113 4.5703l0.20312 0.12891 4.8613-2.5645 3.8945-0.023437h20.943v-5.5605h-15.236v-12.223h30.129c0.01106 0.0052 0.01937 0.010175 0.03125 0.015625 1.8665 0.85339 4.1309 1.6257 5.8945 2.7383 1.7636 1.1125 2.998 2.4873 2.998 4.6738 0 2.3534-1.0616 3.5861-2.5586 4.334-1.497 0.7479-3.4539 0.93359-5.0645 0.93359h-0.003907c-3.087 0.01916-6.7177-1.2927-9.8184-2.3281l-0.54883-0.18359v5.8848l0.24414 0.11133c3.0434 1.3874 7.5512 1.9284 10.135 1.8301 1.8531-9.74e-4 5.2371-0.3641 8.2246-1.8594 2.9915-1.4972 5.5859-4.2103 5.5859-8.7227 0-3.492-1.3153-5.9951-3.1543-7.7871-1.839-1.7919-4.1828-2.8917-6.2754-3.707-0.7937-0.30608-2.3002-0.90796-3.7969-1.7227-1.4944-0.81348-2.9706-1.853-3.709-2.9434-0.4595-0.74598-0.74327-1.5764-0.79297-2.3613 0.0044-2.3794 1.1126-3.6629 2.5488-4.4199 1.4391-0.75844 3.232-0.91846 4.4023-0.83398 2.3554 0.17001 6.413 1.4985 7.7109 2.0527l0.41211 0.17578 0.60156-1.7656h16.244v33.668h6.125v-33.668h11.012v-5.3027h-11.012v-0.023438h-6.125v0.023438h-21.166c-1.1756-0.28384-2.358-0.46612-3.5195-0.47656zm-0.007812 0.83398h0.001953c1.0992 0.010083 2.2404 0.18401 3.3887 0.46484l0.048828 0.011719h22.09v-0.023437h4.459v0.023437h11.01v3.6367h-11.01v33.668h-4.459v-33.668h-17.676l-0.50781 1.498c-1.6373-0.6495-5.1548-1.7874-7.5586-1.9609-1.3007-0.09389-3.2088 0.063899-4.8516 0.92969-1.6427 0.86579-2.9941 2.5103-2.9941 5.1699v0.011719 0.013672c0.05757 0.9537 0.39232 1.9131 0.92188 2.7695l0.003906 0.007813 0.00586 0.005859c0.88251 1.3074 2.4546 2.3703 4.0059 3.2148 1.5514 0.84447 3.0895 1.4571 3.8945 1.7676 2.0511 0.79916 4.2879 1.8647 5.9941 3.5273 1.7066 1.6629 2.9023 3.905 2.9023 7.1914 0 4.1997-2.3134 6.5694-5.125 7.9766-2.8117 1.4072-6.1203 1.7715-7.8594 1.7715h-0.009766-0.007813c-2.3569 0.09074-6.6791-0.44238-9.5195-1.6602v-4.1758c2.9689 1.0013 6.4055 2.207 9.5391 2.1875 1.6703-1.1e-4 3.7321-0.17141 5.4336-1.0215 1.7024-0.85056 3.0195-2.4589 3.0195-5.0781 0-2.5097-1.4984-4.1909-3.3848-5.3809-1.8864-1.19-4.1891-1.9658-5.9941-2.791-0.031599-0.01445-0.067503-0.031401-0.10937-0.050781l-0.083985-0.039063h-31.146v13.889h15.236v3.8926h-20.113l-4.0996 0.025391-4.6074 2.4297c-2.1169-1.3966-3.4668-3.2706-4.1836-4.2207l-8.6816-14.121-7.459 0.019531v15.869h-4.459v-15.855h-0.029297v-3.3848h0.029297v-14.375h-0.029297v-3.7441h10.947c3.5677 0.081259 6.7075 0.85495 8.9258 2.4863 2.2183 1.6314 3.5605 4.1031 3.5605 7.7832v0.76367c0 2.4505-0.89662 4.3718-2.2695 5.8867-1.3729 1.5149-3.2311 2.6098-5.1191 3.3242l-0.48047 0.18164c2.8628 4.4171 5.7038 8.8491 8.5527 13.275l5.4062-0.02539 4.4141 0.027343v-14.127h-0.001953v-3.6855h0.001953v-12.178h-0.001953v-3.6836h19.699v3.6836h-15.238v12.178h25.727l-0.56055-0.67969c-1.3488-1.6431-2.1758-3.5784-2.1758-5.8828 0-4.9391 2.2822-7.2697 4.9746-8.4883 2.6924-1.2186 5.8062-1.2356 7.3379-1.2598 0.091471-0.00149 0.18416-0.002731 0.27539-0.001954zm-69.486 4.168v14.375h5.0566c2.1262 0 4.3619-0.31241 6.1133-1.3672 1.7514-1.0547 2.9727-2.9012 2.9727-5.7207v-0.76367c0-2.8548-1.6034-4.5535-3.3359-5.4512-1.7325-0.89779-3.5769-1.0723-4.3379-1.0723h-6.4688zm0.83398 0.83203h5.6348c0.62035 0 2.4038 0.17465 3.9551 0.97852 1.5513 0.80387 2.8867 2.1599 2.8867 4.7129v0.76367c0 2.5883-1.0288 4.0776-2.5703 5.0059s-3.6415 1.248-5.6836 1.248h-4.2227v-12.709zm43.061 38.215c-0.54703 4e-5 -1.0417 0.095903-1.4668 0.30859-0.3546 0.17741-0.6534 0.44334-0.86133 0.7832-0.14817 0.24218-0.18583 0.31326-0.27734 0.58594-0.12522 0.3731-0.18164 0.79528-0.18164 1.2676v0.082031l-0.91211 0.24805c-0.2119 0.05714-0.3635 0.25121-0.36328 0.4707v0.5c3.8e-5 0.26581 0.22443 0.4902 0.49023 0.49023h0.78516v5.5488c3.7e-5 0.26581 0.22247 0.48824 0.48828 0.48828h1.0898c0.26581-3.9e-5 0.4902-0.22247 0.49024-0.48828v-5.5488h1.3027c0.26581-3.2e-5 0.48824-0.22442 0.48828-0.49023v-0.8125c-3.7e-5 -0.26581-0.22247-0.48825-0.48828-0.48828h-1.3027v-0.011719c0-0.48479 0.10164-0.78393 0.19141-0.90039 0.1048-0.13432 0.22151-0.19922 0.54102-0.19922 0.15776 0 0.30925 0.017291 0.45703 0.050781 0.0013 2.93e-4 0.002606 0.001667 0.003906 0.001953 0.0029 6.48e-4 0.005013-5e-4 0.007813 0 0.1746 0.03478 0.32741 0.073372 0.45703 0.11328 0.24837 0.07668 0.52056-0.060963 0.60547-0.30664l0.2832-0.82031c0.08685-0.25285-0.053072-0.53832-0.30664-0.62305h-0.001953c-0.19958-0.066447-0.42232-0.12294-0.66992-0.17188-0.26482-0.05321-0.5475-0.078105-0.84961-0.078125zm61.105 0.06836c-0.26489 0.001202-0.48825 0.22512-0.48829 0.49023v9.7266c4e-5 0.2658 0.22443 0.48824 0.49024 0.48828h1.084c0.26581-3.2e-5 0.48824-0.22247 0.48828-0.48828v-2.2598l0.31836-0.27734 2.2227 2.8379v0.001953c0.0925 0.11795 0.23486 0.18558 0.38477 0.18555h1.3144c0.38546 1.49e-4 0.62208-0.48875 0.38281-0.79102l-2.8379-3.5859 2.5918-2.6191c0.14224-0.14392 0.17258-0.36573 0.10351-0.53125-0.0691-0.16552-0.24884-0.30065-0.45117-0.30078h-1.2812c-0.1308 2.5e-5 -0.25589 0.053297-0.34765 0.14648l-2.3867 2.4219-0.00391 0.001953c-2e-3 0.0022-0.00481 0.005613-0.00781 0.007813-1e-3 0.0011-0.00291 0.002806-0.00391 0.003906v-4.9688c-4e-5 -0.26581-0.22247-0.4902-0.48828-0.49023h-1.082-0.00195zm-61.105 0.63281c0.2643 0 0.50144 0.021883 0.71289 0.064453h0.001953c0.14513 0.02868 0.25686 0.062513 0.37695 0.095703l-0.14453 0.42188c-0.10385-0.027153-0.20509-0.05637-0.32226-0.080078l-0.001953-0.001953h-0.001953c-0.19849-0.04471-0.40109-0.066406-0.60742-0.066406-0.45435 0-0.8508 0.16023-1.0918 0.46875h-0.001953c-0.24491 0.31631-0.33984 0.75747-0.33984 1.3301v0.36133c3.3e-5 0.19327 0.15634 0.34958 0.34961 0.34961h1.4434v0.39062h-1.4434c-0.19327 3.4e-5 -0.34958 0.15634-0.34961 0.34961v5.6895h-0.66797v-5.6895c-3.4e-5 -0.19331-0.1563-0.34964-0.34961-0.34961h-0.92383v-0.12695l1.0156-0.27344c0.15272-0.04119 0.25777-0.17971 0.25781-0.33789v-0.35156c0-0.34938 0.057341-0.64462 0.10156-0.9043 0.04488-0.26356 0.16058-0.51011 0.32812-0.69531s0.30387-0.31008 0.50391-0.41016c0.30541-0.1528 0.68849-0.23435 1.1543-0.23438zm61.318 0.06836h0.66015v4.8398c0 0.16095-0.00693 0.36224-0.01953 0.60156-6e-3 0.10465-0.00867 0.1847-0.01367 0.27344-0.018 0.3364 0.40365 0.50112 0.61914 0.24219 0.0613-0.07366 0.10267-0.12246 0.18359-0.2207 0.17179-0.20329 0.31358-0.36535 0.42969-0.48828l0.00195-0.001953h0.00196l0.00195-0.001953v-0.001953c9.8e-4 -0.001033 0.00293-0.002879 0.00391-0.003906l2.3301-2.3633h0.68554l-2.4531 2.4785c-0.12448 0.12577-0.13521 0.32412-0.02539 0.46289l2.7578 3.4883h-0.77344l-2.3887-3.0488c-0.12372-0.15797-0.35471-0.17883-0.50586-0.046875l-0.71484 0.625c-0.0761 0.06648-0.11916 0.16263-0.11914 0.26367v2.207h-0.66211v-9.3047zm-11.361 1.8887c-0.72589 5.5e-5 -1.3908 0.15673-1.9629 0.48242v0.001953c-0.57523 0.32524-1.0295 0.80626-1.3398 1.4102-0.31967 0.60921-0.4707 1.3272-0.4707 2.1328 0 0.60689 0.08349 1.1654 0.25781 1.668 0.17315 0.49912 0.4308 0.93626 0.77149 1.2949 0.33897 0.35688 0.75211 0.63176 1.2246 0.81836h0.00195c0.00198 5.19e-4 0.00387 0.001468 0.00586 0.001953 0.44528 0.17229 0.93735 0.25869 1.4668 0.26758v0.001954c0.0176-6e-6 0.03523-0.001763 0.05273-0.001954 0.0124 1.11e-4 0.02461 0.001948 0.03711 0.001954v-0.001954c0.52877-0.008851 1.0181-0.09574 1.4629-0.26758l0.00781-0.001953c0.0012-3.07e-4 0.00272 3.19e-4 0.00391 0 0.4725-0.1866 0.88564-0.46148 1.2246-0.81836 0.34069-0.35866 0.59833-0.7958 0.77148-1.2949 0.17435-0.50259 0.25586-1.0611 0.25586-1.668 0-0.80562-0.14908-1.5216-0.46875-2.1309-0.31039-0.6039-0.76461-1.0869-1.3398-1.4121l-0.00195-0.001953c-0.56027-0.31897-1.2077-0.47405-1.916-0.48047-0.015-1.09e-4 -0.02992-0.001953-0.04492-0.001953zm-18.768 0.033203c-0.70693 0-1.3549 0.16373-1.9102 0.49609-0.003358 0.001721-0.006476 0.004056-0.009766 0.00586l-0.015625 0.007812-0.001953 0.001953c-0.5541 0.34183-0.9889 0.83822-1.2871 1.4531-0.2961 0.6162-0.43555 1.3301-0.43555 2.125 0 0.8159 0.15412 1.5404 0.48633 2.1484 0.327 0.59855 0.80208 1.0704 1.3965 1.3848 0.0014 7.29e-4 0.002507 0.001154 0.003906 0.001953 0.59585 0.30761 1.2824 0.45508 2.0371 0.45508 0.50918 0 0.95896-0.036108 1.3555-0.11524 0.39452-0.07785 0.78785-0.20094 1.1797-0.36719 0.1799-0.07635 0.29906-0.25574 0.29883-0.45117v-0.91211c-1.7e-5 -0.33532-0.36542-0.58014-0.67578-0.45313-0.35446 0.14515-0.69122 0.25371-1.0117 0.32617-0.30572 0.06911-0.67458 0.10742-1.1016 0.10742-0.64877 0-1.0635-0.16648-1.3691-0.48242-0.22169-0.22917-0.37172-0.55914-0.44141-1.0098h4.4316c0.2658-4.2e-5 0.48824-0.22248 0.48828-0.48828v-0.64453c0-0.68191-0.12694-1.3026-0.39844-1.8438l-0.001953-0.001953c-0.27097-0.54388-0.67533-0.98257-1.1914-1.2871-0.52351-0.30894-1.1431-0.45673-1.8242-0.45703h-0.001953zm-20.297 0.013672c-0.5036 2.7e-5 -0.98947 0.061434-1.4531 0.18555-0.44526 0.11919-0.84716 0.26253-1.2051 0.4375v0.001953c-0.2306 0.11279-0.33515 0.39476-0.23438 0.63086l0.33398 0.78711c0.10635 0.24955 0.40809 0.36582 0.6543 0.25195 0.28531-0.1319 0.58888-0.2477 0.91016-0.3457 0.29356-0.08955 0.60211-0.13476 0.93359-0.13476 0.40718 0 0.64693 0.092117 0.80469 0.23242 0.10958 0.09745 0.22576 0.3478 0.23438 0.82812l-0.76367 0.03125c-2e-3 5.8e-5 -0.00386-5.9e-5 -0.00586 0-1.2101 0.03521-2.1572 0.23414-2.8457 0.67774-0.68939 0.44418-1.0781 1.1624-1.0781 1.9863 0 0.51983 0.11219 0.99268 0.36328 1.3828l0.003907 0.007813 0.001953 0.001953c9.4e-4 0.0015 0.001053 0.002506 0.001953 0.003906 0.24839 0.37302 0.59684 0.6595 1.0137 0.83984l0.001953 0.001953c0.41098 0.17552 0.86905 0.25781 1.3613 0.25781 0.4482 0 0.84189-0.043366 1.1875-0.14453 0.0015-4.21e-4 0.00436-0.001507 0.00586-0.001953 0.33805-0.10238 0.64576-0.25506 0.91406-0.45898l0.005859-0.003906c0.02857-0.0223 0.052789-0.048896 0.080079-0.072266l0.035156 0.16602c0.04663 0.22471 0.24902 0.39046 0.47852 0.39062h0.79297c0.2658-4.3e-5 0.4902-0.22248 0.49023-0.48828v-4.6582c0-0.88941-0.23964-1.6386-0.78906-2.123-0.54023-0.47631-1.3069-0.67183-2.2344-0.67188zm-5.1641 0.11524c-0.40136 2.7e-5 -0.78296 0.075242-1.1309 0.23047h-0.001953c-0.001332 6.04e-4 -0.002576 0.001346-0.003906 0.001953l-0.007813 0.003906c-0.26483 0.12185-0.50276 0.28891-0.71875 0.48047l-0.013672-0.14844c-0.0234-0.24812-0.2371-0.44345-0.48633-0.44336h-0.90625c-0.2658 4.3e-5 -0.48824 0.22248-0.48828 0.48828v6.8516c3.9e-5 0.2658 0.22248 0.48824 0.48828 0.48828h1.0957c0.26581-4.3e-5 0.4902-0.22248 0.49024-0.48828v-3.6758c0-0.21506 0.018796-0.40859 0.066406-0.58203 0.06068-0.22102 0.058781-0.20604 0.12695-0.35352 0.07972-0.17246 0.17668-0.31436 0.29102-0.43555 0.0012-0.0012 9.53e-4 -0.002607 0.001953-0.003907 0.14906-0.16123 0.31252-0.27576 0.50391-0.35742h0.001953c0.19753-0.08604 0.40111-0.12891 0.62695-0.12891 0.10541 0 0.2232 0.006655 0.35156 0.021485 0.12725 0.014679 0.23771 0.035313 0.33203 0.058593 0.27549 0.06818 0.56137-0.12537 0.60156-0.40625l0.13867-0.96289c0.036409-0.25306-0.13614-0.49798-0.38672-0.54883-0.14507-0.029569-0.30218-0.04876-0.47266-0.0625-0.001899-1.54e-4 -0.003859-0.001798-0.005859-0.001953-0.0092-7.28e-4 -0.018074 0-0.027344 0h-0.001953c-0.15873-0.01551-0.31315-0.02539-0.46289-0.02539h-0.001954zm13.271 0c-0.35048 7.2e-5 -0.68892 0.047967-1.0098 0.14648-0.31642 0.09714-0.60766 0.2437-0.86914 0.43555l-0.007813-0.050781c-0.03965-0.23259-0.2465-0.40626-0.48242-0.40625h-0.88086c-0.26581 3.2e-5 -0.48824 0.22247-0.48828 0.48828v6.8516c3.8e-5 0.26581 0.22247 0.48825 0.48828 0.48828h1.0898c0.2658-4.3e-5 0.4902-0.22248 0.49023-0.48828v-3.625c0-0.41217 0.040898-0.75852 0.11328-1.0332 0.04032-0.1585 0.1073-0.33199 0.19336-0.46484 0.07977-0.1217 0.17577-0.21232 0.29102-0.28711 0.18544-0.12034 0.46952-0.20117 0.88281-0.20117 0.27665 0 0.46728 0.051931 0.5918 0.12305 0.0032 0.0018 0.006565 0.002207 0.009765 0.003907 0.13309 0.072089 0.21274 0.15769 0.28516 0.32031v0.001953c6.64e-4 0.0015 0.001254 0.002406 0.001954 0.003906 0.07424 0.16034 0.12695 0.40031 0.12695 0.7207v4.4375c3.8e-5 0.2658 0.22248 0.48824 0.48828 0.48828h1.084c0.26581-3.2e-5 0.48824-0.22247 0.48828-0.48828v-3.832c0-0.67703 0.14556-1.1205 0.36133-1.3828 0.20427-0.24844 0.53236-0.39648 1.1406-0.39648 0.40536 0 0.60722 0.091982 0.75195 0.25391 0.0018 2e-3 0.004059 0.003959 0.005859 0.005859 0.1425 0.15442 0.25 0.43439 0.25 0.91406v4.4375c3.8e-5 0.26581 0.22247 0.48825 0.48828 0.48828h1.0781c0.2658-4.3e-5 0.48824-0.22248 0.48828-0.48828v-4.4883c0-0.94523-0.21932-1.7247-0.75-2.2422v-0.001953h-0.001953c-0.5174-0.50769-1.259-0.73242-2.1328-0.73242-0.45952 0-0.89887 0.078113-1.3086 0.23438-0.3008 0.13401-0.32214 0.11315-0.62109 0.32226-0.14028 0.09873-0.26895 0.21195-0.38672 0.33398-0.17642-0.21643-0.38868-0.40578-0.65039-0.54102-0.45556-0.24166-0.99371-0.34958-1.5977-0.34961h-0.001953zm39.354 0c-0.40143 0-0.78289 0.075222-1.1309 0.23047h-0.00195-0.00195c-0.00134 6.05e-4 -0.00257 0.001344-0.00391 0.001953l-0.00195 0.001953-0.00586 0.001953c-0.26463 0.12176-0.50093 0.2891-0.7168 0.48047l-0.01367-0.14844c-0.0234-0.24809-0.23714-0.4434-0.48633-0.44336h-0.90625c-0.26583 2.2e-5 -0.49019 0.22246-0.49023 0.48828v6.8516c4e-5 0.26582 0.2244 0.48826 0.49023 0.48828h1.0957c0.26582-2.2e-5 0.4902-0.22246 0.49024-0.48828v-3.6758c0-0.30372 0.04693-0.56349 0.13281-0.78906v-0.001953c0.0897-0.23904 0.20504-0.42684 0.34961-0.58008 1e-3 -0.0012 0.00291-0.002607 0.00391-0.003907 0.14885-0.16093 0.31056-0.27576 0.50195-0.35742 1e-3 -4.26e-4 0.00291 4.41e-4 0.00391 0 0.19753-0.08604 0.39915-0.12891 0.625-0.12891 0.10541 0 0.22311 0.006655 0.35156 0.021485 0.12731 0.014679 0.23792 0.035363 0.33203 0.058593 0.27565 0.06823 0.56161-0.12511 0.60156-0.40625l0.13867-0.96289c0.0364-0.25306-0.13613-0.49799-0.38671-0.54883-0.14505-0.029559-0.30222-0.04876-0.47266-0.0625-2e-3 -1.54e-4 -0.00386-0.001801-0.00586-0.001953-9e-3 -7.28e-4 -0.01804 0-0.02734 0-0.15877-0.01551-0.31507-0.02539-0.46485-0.02539zm-22.945 0.125c-0.31607-1e-5 -0.55832 0.32131-0.4707 0.625l1.9844 6.8516c0.06005 0.20757 0.25266 0.35349 0.46875 0.35352h1.2285c0.20829-3e-5 0.39616-0.13667 0.46289-0.33398l1.3398-3.9668v-0.001954c0.01802-0.050379 0.031878-0.10026 0.048828-0.15039 0.01439 0.04358 0.028259 0.084747 0.042969 0.12891l1.2793 3.9844c0.06463 0.20054 0.25415 0.33968 0.46484 0.33984h1.2676c0.21596 1.43e-4 0.40842-0.14615 0.46875-0.35352l1.9902-6.8516c0.0883-0.30392-0.15224-0.62519-0.46875-0.625h-1.1094-0.001953c-0.21784 1.6e-4 -0.41239 0.14753-0.4707 0.35742-0.33548 1.2257-0.81664 2.919-1.1016 3.9785-0.0034-0.01028-0.006466-0.022973-0.009766-0.033203l-0.001953-0.001953-1.2793-3.9629c-0.064959-0.20018-0.25438-0.33786-0.46484-0.33789h-1.1758c-0.20904-1.1e-5 -0.39673 0.13568-0.46289 0.33398l-1.3281 3.9688v0.001953 0.001953c-0.00332 0.010316-0.006465 0.022989-0.009766 0.033203-0.33495-1.0613-0.71585-2.6173-1.0898-3.9805-0.058019-0.21053-0.2543-0.35942-0.47266-0.35938h-1.1289zm14.545 0.41406h0.00196 0.00195c0.62668 0 1.1605 0.13175 1.6152 0.39062v0.001953c0.4583 0.25868 0.81027 0.62796 1.0645 1.123 5.5e-4 9.96e-4 0.00195 0.002907 0.00195 0.003906 0.25672 0.48868 0.38867 1.0887 0.38867 1.8086 0 0.54354-0.07266 1.022-0.2168 1.4375-0.1446 0.4168-0.3506 0.76036-0.61718 1.041-0.61487 0.61818-1.4173 0.85705-2.2285 0.87109-0.86083-0.01735-1.6659-0.2705-2.2461-0.87109-0.26659-0.28065-0.47259-0.62617-0.61719-1.043-0.14413-0.41548-0.21875-0.89396-0.21875-1.4375 0-0.71992 0.1339-1.318 0.39062-1.8066 5.5e-4 -9.95e-4 -1.7e-4 -0.002906 0-0.003906 0.25419-0.49509 0.60616-0.86632 1.0645-1.125h0.00195c0.45428-0.25863 0.98736-0.39038 1.6133-0.39062zm-18.764 0.033203c0.58304 0 1.0682 0.12108 1.4688 0.35742 0.40327 0.23797 0.70876 0.56742 0.92383 1 0.215 0.42849 0.32617 0.93664 0.32617 1.5312v0.43359h-4.6094c-0.20004-1.9e-5 -0.3594 0.16737-0.34961 0.36719 0.03738 0.76069 0.25099 1.387 0.67773 1.8281 0.45035 0.46551 1.0926 0.69531 1.8711 0.69531 0.46762 0 0.88624-0.039492 1.2559-0.12305 0.2705-0.06115 0.54879-0.15049 0.83203-0.25391v0.46289c-0.30716 0.12188-0.61061 0.21785-0.91211 0.27734h-0.001953c-0.33654 0.06721-0.74295 0.10156-1.2188 0.10156-0.66391 0-1.2327-0.12638-1.7148-0.375-0.47609-0.25195-0.84144-0.61471-1.1074-1.1016-0.26407-0.48334-0.40234-1.0848-0.40234-1.8125 0-0.71293 0.12516-1.3166 0.36719-1.8203v-0.001953c0.2471-0.50894 0.58664-0.89052 1.0234-1.1602 0.4407-0.26936 0.95921-0.40622 1.5703-0.40625zm-20.297 0.011719c0.82836 0 1.4088 0.17828 1.7715 0.49805 0.35806 0.31573 0.55078 0.83052 0.55078 1.5977v4.4453h-0.41016l-0.13281-0.63672c-0.05859-0.28204-0.41448-0.3758-0.60547-0.16016-0.16168 0.18266-0.31405 0.34851-0.45508 0.45898-0.19702 0.14998-0.4286 0.26673-0.69531 0.34766-0.25835 0.07557-0.58857 0.11524-0.99023 0.11524-0.41381 0-0.7727-0.068438-1.084-0.20117-0.30157-0.13048-0.5346-0.32279-0.70898-0.58398-0.16552-0.25428-0.25391-0.58581-0.25391-1.0098 0-0.62015 0.2408-1.0666 0.75586-1.3984 0.51814-0.33382 1.348-0.53365 2.4922-0.56641 8.85e-4 4.38e-4 0.003006-4.32e-4 0.003906 0l1.1074-0.044922c0.18747-0.0078 0.33589-0.16198 0.33594-0.34961v-0.28516c0-0.62392-0.13592-1.1026-0.4707-1.4004-0.31392-0.27919-0.75185-0.41016-1.2715-0.41016-0.39595 0-0.7765 0.05358-1.1387 0.16406-0.27802 0.08481-0.54073 0.1855-0.79688 0.29492l-0.16992-0.39844c0.26748-0.11732 0.55819-0.22494 0.89258-0.31445 0.40153-0.10748 0.82651-0.16209 1.2734-0.16211zm-5.1641 0.11524c0.13529 7e-6 0.27833 0.007797 0.42774 0.023437 0.01116 0.0011 0.021983 0.001953 0.033203 0.001953h-0.023438c0.0754 6e-3 0.13144 0.016571 0.19727 0.025391l-0.076172 0.53711c-0.06429-0.01086-0.12208-0.025213-0.19141-0.033203-0.15148-0.01747-0.29536-0.027344-0.43164-0.027344-0.3153 0-0.62048 0.064193-0.9043 0.1875-0.28004 0.11966-0.53127 0.29549-0.74219 0.52344-0.20264 0.21498-0.36194 0.47436-0.47852 0.76953-0.04836 0.12679-0.094139 0.27403-0.12109 0.39062-0.04978 0.21782-0.074219 0.44835-0.074219 0.69141v3.4648h-0.67383v-6.4297h0.50195l0.074219 0.77734c0.03036 0.32353 0.44527 0.43334 0.63281 0.16797 0.12283-0.17385 0.22515-0.32515 0.33594-0.43555l0.003906-0.003906c0.1917-0.19365 0.41354-0.34644 0.66602-0.46094 0.25055-0.11163 0.52877-0.1699 0.84375-0.16992zm13.273 0c0.52149 0 0.942 0.094388 1.2715 0.26953 0.0013 6.93e-4 0.002607 0.001253 0.003907 0.001953 0.27696 0.14273 0.47964 0.3624 0.63476 0.66016 0.12198 0.23415 0.44136 0.24989 0.59766 0.03711 0.39288-0.53485 1.3805-0.9621 2.0566-0.96875 0.60722-6e-3 1.0718 0.11738 1.4141 0.3457 0.21659 0.15612 0.21966 0.1667 0.37695 0.35547 0.25538 0.34624 0.39453 0.86311 0.39453 1.5762v4.2773h-0.6543v-4.2266c0-0.58533-0.13438-1.0594-0.43555-1.3867l-0.001953-0.001953c-0.0021-0.0022-0.003659-0.00376-0.005859-0.00586-0.29377-0.3225-0.73853-0.48047-1.2656-0.48047-0.73326 0-1.3172 0.21149-1.6797 0.65234-0.35861 0.43604-0.52148 1.0523-0.52148 1.8281v3.6211h-0.66016v-4.2266c0-0.39234-0.060736-0.73079-0.19141-1.0137-0.12445-0.27875-0.32893-0.50557-0.58789-0.64648l-0.001953-0.001953c-0.0018-9.15e-4 -0.00406-0.001053-0.00586-0.001953-0.25811-0.14478-0.57058-0.21094-0.92969-0.21094-0.505 0-0.92973 0.097741-1.2637 0.31445-0.23122 0.15005-0.42307 0.35503-0.56055 0.60742-0.10321 0.18949-0.15373 0.27526-0.25781 0.71094-0.074189 0.31051-0.099609 0.66379-0.099609 1.0547v3.4141h-0.66797v-6.4297h0.49219l0.089844 0.53906c0.05089 0.30099 0.43656 0.39792 0.62305 0.15625 0.11287-0.14624 0.22947-0.27075 0.35938-0.36719 0.19913-0.14783 0.42218-0.26123 0.67187-0.33789 0.25-0.07677 0.5173-0.11523 0.80469-0.11523zm39.352 0c0.13533 3e-6 0.2783 0.007797 0.42774 0.023437 0.0112 0.0011 0.022 0.001953 0.0332 0.001953h-0.02344c0.0754 6e-3 0.13144 0.016571 0.19727 0.025391l-0.07617 0.53711c-0.0644-0.01087-0.12398-0.025203-0.19336-0.033203-0.15144-0.01747-0.29533-0.027344-0.43164-0.027344-0.3156 0-0.61831 0.063957-0.90235 0.1875h-0.00195c-0.27978 0.11958-0.52936 0.29562-0.74023 0.52344-0.18003 0.19094-0.32546 0.41718-0.4375 0.67188-0.053 0.11952-0.10159 0.25639-0.13477 0.37695-0.0683 0.24968-0.10156 0.51823-0.10156 0.80273v3.4648h-0.67383v-6.4297h0.50195l0.07227 0.77734c0.0303 0.32346 0.44711 0.43317 0.63476 0.16797 0.0789-0.11157 0.14061-0.22201 0.21875-0.30273 0.17983-0.18575 0.17551-0.1831 0.35547-0.3418 0.12431-0.10963 0.27424-0.18536 0.42969-0.25586 0.25061-0.11165 0.53068-0.16991 0.8457-0.16992zm-22.664 0.125h0.6875c0.48303 2.0461 1.0124 3.3795 1.3516 5.043 5.54e-4 0.0026 0.001395 0.005213 0.001954 0.007813-0.0012-0.0051 2.59e-4 0.002246 0.007812 0.035156 0.08142 0.36144 0.59496 0.36604 0.68164 0.005859 0.42714-1.7077 1.0153-3.2441 1.6328-5.0918h0.86914c0.5441 1.8367 1.1623 3.381 1.5957 5.0566 0.09141 0.35469 0.59699 0.34703 0.67969-0.009766 0.37997-1.6268 0.89323-3.341 1.3672-5.0469h0.66992l-1.8672 6.4297h-0.95508c-0.48919-1.6866-1.1787-3.4746-1.6094-5.0957-0.09253-0.34892-0.58877-0.34598-0.67773 0.003906-0.46883 1.7068-1.1033 3.4516-1.6562 5.0918h-0.91797l-1.8613-6.4297zm14.293 0.16602-0.00195 0.001953c-0.01 7e-6 -0.0196-8.3e-5 -0.0293 0-6e-3 -3.2e-5 -0.01168 0-0.01758 0h-0.00391c-6e-3 0-0.01137-5.5e-5 -0.01757 0v0.001953c-0.50706 0.0099-0.94265 0.12448-1.2891 0.35938-0.35547 0.24101-0.62325 0.59085-0.78906 1.0234-0.16496 0.42642-0.24414 0.92277-0.24414 1.4883 0 0.56987 0.07958 1.0738 0.24414 1.5078 0.16561 0.43685 0.43364 0.7899 0.79297 1.0352 0.34683 0.23962 0.78291 0.35785 1.2852 0.36719v0.001953c9e-3 5.5e-5 0.01679 0 0.02539 0 8e-3 0 0.01689 6.1e-5 0.02539 0 5e-3 1.8e-5 0.00897 1e-6 0.01367 0 9e-3 0 0.01689 5.6e-5 0.02539 0v-0.001953c0.50223-0.0093 0.93638-0.12562 1.2832-0.36523 0.35933-0.24525 0.62736-0.60026 0.79297-1.0371 0.16452-0.43401 0.24414-0.93794 0.24414-1.5078 0-0.56551-0.07917-1.0619-0.24414-1.4883-0.1658-0.43259-0.43164-0.78243-0.78711-1.0234-0.34643-0.23489-0.78201-0.34952-1.2891-0.35938v-0.001953c-6e-3 -5.5e-5 -0.01323-0.001953-0.01953-0.001953zm-18.807 0.009766c-0.6235 7.2e-5 -1.1602 0.20615-1.5449 0.60938-0.35766 0.37491-0.5503 0.88455-0.63672 1.4746-0.03094 0.21124 0.13416 0.40037 0.34766 0.40039h3.4824c0.20042-1.3e-5 0.35996-0.16704 0.34961-0.36719-0.01863-0.35892-0.077884-0.69638-0.20703-1-0.14036-0.34425-0.36597-0.62729-0.66211-0.82031h-0.001953l-0.001953-0.001953h-0.001953c-0.001811-0.001146-0.004048-0.002798-0.005859-0.003907-0.30268-0.19771-0.67965-0.29095-1.1152-0.29102h-0.001953zm18.773 0.69141h0.00195c0.42778 0.0028 0.73064 0.093353 0.94726 0.24023 0.23498 0.15932 0.40178 0.37254 0.52539 0.69531l0.00196 0.001953c0.12591 0.3253 0.19725 0.73627 0.19726 1.2363 0 0.50453-0.07204 0.92236-0.19922 1.2578-0.1237 0.32634-0.29329 0.54543-0.5332 0.70898-8.9e-4 6.08e-4 -0.0029-6e-4 -0.0039 0-0.21744 0.15026-0.51004 0.24052-0.92383 0.24414-0.42019-0.0019-0.71795-0.092417-0.9375-0.24414-8.8e-4 -6.08e-4 -0.00291-0.001353-0.00391-0.001953-0.23992-0.16355-0.40949-0.38069-0.5332-0.70703-0.12717-0.33546-0.19922-0.75328-0.19922-1.2578 1e-5 -0.50006 0.07139-0.91103 0.19726-1.2363l0.00196-0.001953c0.12363-0.32278 0.29042-0.53599 0.52539-0.69531 0.2145-0.14544 0.51438-0.23573 0.93555-0.24023zm-18.771 0.007813c0.34247 0 0.5752 0.071684 0.74024 0.18164 0.0016 0.0011 0.002206 9.53e-4 0.003906 0.001953 0.1801 0.1172 0.30357 0.26647 0.39844 0.5 9.96e-4 0.0025 0.002707 0.005313 0.003907 0.007813 0.04781 0.11226 0.081344 0.24722 0.10742 0.39453h-2.6562c0.084479-0.29555 0.20524-0.52769 0.36328-0.69336 0.25331-0.26552 0.55563-0.39258 1.0391-0.39258zm-18.98 2.0566-0.70898 0.029297c-0.27183 0.01018-0.56742 0.023325-0.81055 0.046875-0.62677 0.06156-1.0994 0.18867-1.4395 0.41602-0.41072 0.27458-0.64453 0.72078-0.64453 1.2207 0 0.43099 0.15912 0.81178 0.45898 1.0371 0.29364 0.22066 0.67419 0.32227 1.1172 0.32227 0.67545 0 1.2571-0.18329 1.7051-0.55469 0.45799-0.37974 0.6875-0.96647 0.6875-1.6816v-0.48633c0-0.19876-0.16663-0.35755-0.36524-0.34961zm-0.33594 0.71484v0.12109c0 0.57924-0.14725 0.90512-0.43359 1.1426-0.31142 0.25816-0.7035 0.39453-1.2578 0.39453-0.33805 0-0.55041-0.07324-0.69727-0.18359-0.12509-0.094-0.17969-0.18313-0.17969-0.47656 0-0.32461 0.074236-0.46502 0.33398-0.63867 0.21754-0.14544 0.79066-0.30422 1.6445-0.33594h0.001953l0.58789-0.023437z"/>
</svg>
