<svg xmlns="http://www.w3.org/2000/svg" viewBox="0 0 128 128"><path d="M42.652 2.04C18.863 2.04-.5 22.195-.5 46.963c0 16.14 8.26 30.275 20.582 38.193.023 24.748 19.37 44.882 43.145 44.882 23.656 0 42.91-19.943 43.123-44.513 12.635-7.844 21.15-22.17 21.15-38.562 0-24.763-19.36-44.925-43.152-44.925-7.566 0-14.663 2.079-20.85 5.651-6.185-3.573-13.28-5.65-20.846-5.65Zm0 1.032c7.487 0 14.503 2.066 20.602 5.64l.244.144.244-.143c6.1-3.574 13.12-5.641 20.606-5.641 23.254 0 42.16 19.69 42.16 43.892 0 15.973-8.276 29.923-20.563 37.601l-.556-.579-.002 1.243c-.057 24.148-18.945 43.777-42.16 43.777-23.251 0-42.157-19.684-42.157-43.892 0-.013.012-.09.012-.222v-.29l-.238-.152C8.664 76.745.492 62.847.492 46.964c0-24.208 18.91-43.892 42.16-43.892Zm0 6.803c-19.64 0-35.629 16.639-35.629 37.089 0 12.044 5.57 22.736 14.142 29.515l.626.495.161-.801c2.456-12.3 9.896-22.694 19.995-28.88l.242-.15.002-.294c.036-13.218 5.722-25.053 14.654-33.084l.599-.54-.725-.326c-4.44-2-9.228-3.03-14.067-3.024Zm41.696 0a34.115 34.115 0 0 0-14.063 3.024l-.725.327.6.539c8.958 8.052 14.66 19.93 14.66 33.195 0 .004-.015.07-.015.222v.29l.238.152c9.924 6.285 17.191 16.67 19.528 28.908l.151.795.628-.478c8.847-6.756 14.627-17.623 14.627-29.885-.005-20.446-15.988-37.09-35.63-37.09Zm-41.696 1.033c4.457-.005 8.849.96 12.972 2.71-8.716 8.146-14.3 19.856-14.41 32.959-9.967 6.198-17.348 16.41-20.014 28.518A36.426 36.426 0 0 1 8.016 46.964c0-19.89 15.533-36.056 34.636-36.056Zm41.696 0c19.103 0 34.632 16.17 34.636 36.056 0 11.654-5.413 21.945-13.688 28.541-2.54-12.045-9.701-22.266-19.485-28.565-.006-13.253-5.632-25.102-14.43-33.323 4.12-1.749 8.511-2.714 12.967-2.71zm-20.85 6.048-.295.226C55.375 23.216 49.978 32.48 48.92 43.09l-.08.805.735-.264c4.288-1.536 8.874-2.409 13.654-2.409 4.993 0 9.764.953 14.211 2.625l.739.276-.078-.813c-1.006-10.701-6.427-20.05-14.306-26.126Zm0 1.338c7.296 5.76 12.315 14.425 13.464 24.35-4.321-1.53-8.915-2.455-13.733-2.455-4.604 0-9.01.847-13.167 2.248 1.192-9.841 6.188-18.423 13.436-24.143zm-.27 29.735c-4.781-.005-9.514 1-13.913 2.952l-.343.151.045.385c1.223 10.32 6.535 19.325 14.186 25.229l.295.228.297-.228c7.593-5.86 12.873-14.757 14.151-24.974l.047-.382-.338-.157a34.188 34.188 0 0 0-14.426-3.204zm-.001 1.033h.002c4.698 0 9.33 1.044 13.64 2.986-1.314 9.61-6.261 17.972-13.369 23.588-7.164-5.66-12.143-14.122-13.407-23.83 4.168-1.79 8.622-2.748 13.134-2.744zm-20.375 5.681-.628.48c-7.66 5.858-12.993 14.801-14.283 25.084l-.049.38.338.158a34.28 34.28 0 0 0 14.422 3.2 34.18 34.18 0 0 0 14.067-3.024l.727-.327-.6-.539C49.87 73.88 44.87 65.3 43.007 55.538Zm41.242.36-.161.802C82.01 65.52 77.045 73.961 70.155 80.16l-.599.539.727.327a34.19 34.19 0 0 0 14.063 3.024c4.931 0 9.634-1.052 13.915-2.952l.343-.15-.045-.386c-1.202-10.17-6.376-19.047-13.84-24.962Zm-41.831 1.466c1.97 9.344 6.735 17.565 13.341 23.742-4.009 1.698-8.362 2.7-12.95 2.701-4.696-.003-9.329-1.044-13.638-2.982 1.31-9.552 6.22-17.845 13.247-23.46zm42.402.381c6.837 5.663 11.59 13.888 12.817 23.324-4.061 1.743-8.483 2.742-13.136 2.742h-.002c-4.447.003-8.83-.96-12.945-2.701C77.915 74.22 82.644 66.14 84.665 56.95zM63.498 85.07l-.244.143c-6.284 3.7-13.382 5.643-20.602 5.639-4.993 0-9.76-.953-14.211-2.62l-.739-.277.078.813c1.773 18.74 16.993 33.435 35.449 33.435 18.387 0 33.567-14.584 35.435-33.217l.081-.805-.734.262c-4.295 1.535-8.874 2.409-13.662 2.409-7.22.003-14.32-1.94-20.607-5.639zm0 1.166c6.376 3.697 13.55 5.651 20.851 5.649 4.615 0 9.018-.848 13.183-2.25-2.154 17.741-16.676 31.535-34.303 31.535-17.692 0-32.252-13.898-34.32-31.74 4.327 1.529 8.92 2.455 13.743 2.455 7.3.003 14.472-1.952 20.846-5.65zm42.384-1.005c-.057 24.428-19.17 44.292-42.655 44.292-23.52 0-42.653-19.92-42.653-44.409 0-.072.012-.144.012-.222C8.264 77.097-.004 63.032-.004 46.964c0-24.488 19.136-44.407 42.656-44.407 7.574 0 14.676 2.09 20.846 5.705 6.17-3.615 13.276-5.705 20.85-5.705 23.524 0 42.656 19.925 42.656 44.408 0 16.302-8.508 30.544-21.12 38.267zM63.5 17.598C55.778 23.55 50.456 32.68 49.414 43.143c4.336-1.554 8.977-2.438 13.814-2.438 5.054 0 9.883.965 14.38 2.656-.992-10.552-6.338-19.77-14.109-25.763ZM28.432 80.373a34.967 36.4 0 0 0 14.221 3.156c4.923 0 9.613-1.066 13.87-2.982-7.059-6.348-12.117-15.03-14.005-24.908-7.555 5.778-12.814 14.595-14.086 24.734Zm34.796-31.828a34.898 36.329 0 0 0-13.718 2.91c1.205 10.175 6.443 19.053 13.989 24.875 7.489-5.778 12.694-14.55 13.954-24.625a34.875 36.304 0 0 0-14.225-3.16zm7.252 32.006a34.885 36.314 0 0 0 13.865 2.982c4.864 0 9.5-1.037 13.721-2.91-1.186-10.027-6.287-18.779-13.648-24.613-1.945 9.728-6.969 18.27-13.938 24.54Zm-7.252 41.136c18.136 0 33.101-14.38 34.943-32.755-4.342 1.553-8.977 2.437-13.822 2.437a42.338 44.073 0 0 1-20.85-5.706 42.3 44.034 0 0 1-20.846 5.706c-5.053 0-9.88-.965-14.38-2.652 1.748 18.48 16.753 32.97 34.955 32.97zM42.652 10.39C23.28 10.391 7.52 26.793 7.52 46.964c0 11.879 5.492 22.418 13.946 29.104 2.485-12.447 10.012-22.962 20.229-29.221.035-13.371 5.79-25.348 14.826-33.474a34.836 36.263 0 0 0-13.869-2.982Zm41.696 0a34.81 36.236 0 0 0-13.865 2.982C79.545 21.52 85.317 33.54 85.317 46.96c0 .077-.016.15-.016.222 10.04 6.358 17.392 16.866 19.757 29.25 8.725-6.663 14.422-17.375 14.422-29.468-.004-20.166-15.76-36.573-35.132-36.573zm0 0" color="#000" style="-inkscape-stroke:none"/></svg>