<svg xmlns="http://www.w3.org/2000/svg" viewBox="0 0 128 128"><path d="M125.744 61.399c.815-.421 1.594-1.353 1.594-2.614 0-2.162-1.711-3.369-4.12-3.369h-5.109v13.168h5.29c2.767 0 4.601-1.442 4.601-3.909 0-1.745-1.02-2.824-2.256-3.276zm-5.169-4.001h2.433c1.354 0 2.015.568 2.015 1.593s-.661 1.565-1.985 1.565h-2.468v-3.158zm2.556 9.018h-2.556V62.66h2.556c1.681 0 2.496.691 2.496 1.893 0 1.207-.815 1.864-2.496 1.864zm-13.736-11h-4.266v13.168h4.266c3.668 0 6.763-2.192 6.763-6.581.005-4.394-3.095-6.586-6.763-6.586zm-.177 11h-1.593V57.55h1.593c2.256 0 4.418 1.17 4.418 4.448 0 3.276-2.167 4.418-4.418 4.418zm-8.116-.991c-.24.903-1.02 1.383-2.226 1.383-1.441 0-2.437-.96-2.614-2.491h7.003c.04-.26.06-.52.06-.78 0-2.285-1.442-4.6-4.63-4.6-3.188 0-4.659 2.374-4.659 4.87s1.742 4.929 4.84 4.929c2.344 0 4.119-1.29 4.477-3.306h-2.25zm-2.407-4.746c1.382 0 2.192.901 2.314 2.104h-4.688c.24-1.413 1.084-2.104 2.374-2.104zm-5.439.357v-1.952h-2.613v-2.858h-2.315v2.853h-1.864v1.952h1.864v4.238c0 2.104 1.353 3.305 3.428 3.305h1.505v-1.952h-1.26c-.844 0-1.354-.48-1.354-1.441v-4.15h2.61zm-9.68-1.952-2.162 6.523-2.222-6.523h-2.344l3.457 9.499-1.324 3.845h2.192l1.471-4.3 3.306-9.049h-2.374zm-11.48-.152c-1.231 0-2.255.54-2.795 1.324v-4.834h-2.315v13.162h2.315v-1.172c.54.813 1.594 1.324 2.737 1.324 2.853 0 4.54-1.982 4.54-4.9-.004-2.922-1.687-4.904-4.482-4.904zm-.392 7.817c-1.535 0-2.555-1.171-2.555-2.918 0-1.745 1.02-2.882 2.555-2.882 1.535 0 2.555 1.14 2.555 2.882 0 1.746-1.02 2.918-2.555 2.918zm-10.882-7.817c-2.466 0-4.055 1.471-4.178 3.37h2.075c.029-.844.78-1.623 2.015-1.623 1.23 0 1.921.661 1.921 1.593 0 .363-.21.633-.69.633h-1.746c-2.133 0-3.575 1.143-3.575 3.005 0 1.624 1.29 2.826 3.153 2.826 1.383 0 2.462-.633 2.854-1.565v1.412h2.285v-6.1c.005-2.138-1.706-3.55-4.113-3.55zm1.834 5.655c0 1.411-.838 2.432-2.285 2.432-.872 0-1.471-.48-1.471-1.23 0-.81.662-1.354 1.623-1.354h2.132zm-21.459-5.503v5.199c0 1.383-.931 2.402-2.227 2.402-1.294 0-1.981-.9-1.981-2.192v-5.409h-2.284v5.89c0 2.222 1.323 3.757 3.516 3.757 1.353 0 2.432-.57 2.976-1.624v1.472h2.314v-9.495zm-10.073 0-2.191 6.523-2.192-6.523h-2.344l3.457 9.499-1.325 3.845h2.192l1.472-4.3 3.305-9.049h-2.374zm21.312 0v1.084c-.54-.72-1.564-1.23-2.765-1.23-2.825 0-4.477 2.015-4.477 4.898 0 2.883 1.651 4.9 4.506 4.9 1.383 0 2.286-.48 2.766-1.201v.15c0 1.776-.57 2.977-2.432 2.977-1.172 0-1.775-.48-2.163-1.41h-2.315c.51 2.313 2.075 3.332 4.477 3.332 3.007 0 4.63-1.803 4.63-4.898l.088-8.597zm-2.402 7.665c-1.535 0-2.555-1.171-2.555-2.918 0-1.745 1.02-2.882 2.554-2.882 1.536 0 2.585 1.14 2.585 2.882 0 1.742-1.02 2.918-2.585 2.918zM5.036 55.416c.43 0 .642 0 .81.084a.77.77 0 0 1 .332.333c.084.163.084.378.084.81v5.389c0 .637 0 .96-.133 1.157a.766.766 0 0 1-.505.324c-.235.04-.524-.097-1.103-.367l-1.511-.707c-1.088-.51-1.632-.765-2.034-1.158a3.293 3.293 0 0 1-.79-1.235C0 59.521 0 58.923 0 57.716v-1.074c0-.43 0-.641.083-.809a.782.782 0 0 1 .333-.333c.168-.084.384-.084.81-.084Zm12.53 0c.43 0 .642 0 .808.084a.77.77 0 0 1 .334.333c.084.163.084.378.084.81v1.073c0 1.201 0 1.805-.188 2.335a3.293 3.293 0 0 1-.788 1.235c-.398.393-.947.648-2.036 1.158l-3.256 1.515v-7.317c0-.43 0-.641.083-.809a.782.782 0 0 1 .333-.333c.168-.084.384-.084.815-.084zm-5.042 8.543v7.316c0 .432 0 .643-.083.81a.782.782 0 0 1-.333.333c-.162.083-.379.083-.81.083h-3.81c-.43 0-.642 0-.808-.083a.782.782 0 0 1-.333-.333c-.084-.162-.084-.378-.084-.809v-1.079c0-1.201 0-1.805.186-2.334a3.293 3.293 0 0 1 .79-1.236c.397-.392.946-.648 2.035-1.153z"/></svg>
