<svg xmlns="http://www.w3.org/2000/svg" viewBox="0 0 128 128"><path d="M34.343 5.968c2.939 0 4.375 0 5.51.568a5.324 5.324 0 0 1 2.272 2.271c.568 1.102.568 2.572.568 5.511v36.706c0 4.342 0 6.546-.902 7.882a5.214 5.214 0 0 1-3.44 2.205c-1.604.267-3.574-.668-7.515-2.505l-10.287-4.81c-7.415-3.473-11.122-5.21-13.861-7.882a22.433 22.433 0 0 1-5.377-8.417C.04 33.924.04 29.85.04 21.633v-7.315c0-2.94 0-4.375.568-5.51A5.324 5.324 0 0 1 2.88 6.535c1.136-.568 2.606-.568 5.511-.568ZM119.678 5.968c2.94 0 4.376 0 5.511.568a5.324 5.324 0 0 1 2.271 2.271c.568 1.102.568 2.572.568 5.511v7.315c0 8.182 0 12.29-1.27 15.898a22.433 22.433 0 0 1-5.376 8.416c-2.706 2.672-6.447 4.409-13.861 7.883L85.344 64.15V14.318c0-2.94 0-4.375.567-5.51a5.324 5.324 0 0 1 2.272-2.272c1.135-.568 2.605-.568 5.544-.568ZM85.344 64.15v49.832c0 2.94 0 4.375-.568 5.51a5.324 5.324 0 0 1-2.271 2.272c-1.103.568-2.572.568-5.511.568H51.042c-2.939 0-4.375 0-5.51-.568a5.324 5.324 0 0 1-2.272-2.271c-.567-1.102-.567-2.572-.567-5.511v-7.348c0-8.183 0-12.29 1.269-15.898a22.433 22.433 0 0 1 5.377-8.417c2.705-2.672 6.446-4.408 13.86-7.849z"/></svg>
