<svg xmlns="http://www.w3.org/2000/svg" viewBox="0 0 128 128"><path fill="#CF0A2C" d="M83.1 80.5c-4.7-.1-8.8 3.4-9.3 8.1 0 .2.1.3.3.3h18c.2 0 .3-.1.3-.3-.4-4.8-4.5-8.4-9.3-8.1z"/><path fill="#CF0A2C" d="M121.7 19.9l-38.4 43c-.4.5-1.2.5-1.7.1l-.1-.1-19.4-20.1c-.4-.4-.4-1-.1-1.5l6.5-8.3c.4-.5 1.1-.7 1.6-.3.1.1.2.1.2.2l11 12.1c.4.5 1.2.5 1.7.1l.1-.1 30.7-41.7c.3-.4.2-.9-.2-1.2-.1-.1-.3-.1-.5-.2H5.7c-.5.1-.9.5-.9 1v122.2c0 .5.4.9.9.9h116.6c.5 0 .9-.4.9-.9V20.5c0-.5-.4-.8-.8-.8-.3-.1-.5 0-.7.2zm-83.8 92.5c-7.7.3-15.2-2.3-20.9-7.4-.4-.4-.5-1-.1-1.5l4.5-6.4c.4-.5 1.1-.6 1.6-.3l.1.1c4.2 3.9 9.6 6 15.3 6 6 0 8.9-2.8 8.9-5.7 0-9.1-29.5-2.8-29.5-22.1 0-8.5 7.4-15.6 19.4-15.6 6.9-.2 13.7 2.1 19.1 6.5.4.4.5 1.1.1 1.5l-4.7 6.2c-.4.5-1.1.6-1.6.2-4-3.2-8.9-4.9-14-4.8-4.7 0-7.3 2.1-7.3 5.1 0 8.1 29.4 2.7 29.4 21.8.1 9.3-6.6 16.4-20.3 16.4zm64.3-17.8c0 .6-.5 1-1 1H74.3c-.2 0-.3.1-.3.3.9 5.2 5.6 8.8 10.9 8.5 3.4-.1 6.6-1.1 9.3-3.1.4-.3 1.1-.3 1.4.2l.1.1 3.3 4.8c.3.4.2 1-.2 1.4-4.3 3.2-9.6 4.8-14.9 4.6-11.6 0-20.3-7.8-20.3-20-.3-10.7 8.1-19.6 18.8-19.9h.9c11.3 0 19.1 8.5 19.1 20.9l-.2 1.2z"/></svg>
