<svg xmlns="http://www.w3.org/2000/svg" viewBox="0 0 128 128"><path fill="#ccc" d="M33.427 71.28V58.318h1.677l7.932 10.442V58.318h1.585V71.28h-1.677l-7.93-10.533V71.28zm24.064-.508c-1.045.399-2.172.599-3.381.599-4.694 0-7.042-2.251-7.042-6.753 0-4.26 2.266-6.391 6.797-6.391 1.301 0 2.509.182 3.626.545v1.45a9.653 9.653 0 00-3.444-.635c-3.534 0-5.301 1.678-5.301 5.03 0 3.595 1.738 5.394 5.22 5.394.556 0 1.172-.073 1.85-.219v-4.404h1.676v5.384h-.001zm2.675-4.495v-7.958h1.676v7.958c0 2.489 1.239 3.735 3.717 3.735 2.477 0 3.716-1.246 3.716-3.735v-7.958h1.677v7.958c0 3.396-1.798 5.095-5.393 5.095s-5.393-1.698-5.393-5.095zm15.453-7.959v11.603H82.4v1.359h-8.457V58.318zm9.2 12.962h-1.74l6.444-14.671 6.445 14.671H94.11l-1.677-4.079h-4.287l.462-1.358h3.264l-2.421-5.874zm12.916 0V58.318h5.529c2.466 0 3.698 1.037 3.698 3.109 0 1.687-1.205 2.935-3.616 3.743l4.45 6.109h-2.212l-4.123-5.828v-1.096c2.477-.394 3.715-1.346 3.715-2.855 0-1.196-.688-1.795-2.065-1.795h-3.699V71.28h-1.677zm16.343-12.962v9.228c0 2.489-1.465 3.734-4.396 3.734v-1.359c1.813 0 2.72-.793 2.72-2.375v-9.228h1.676zm2.991 12.509v-1.541c1.36.483 2.828.726 4.405.726 2.23 0 3.346-.815 3.346-2.449 0-1.387-.823-2.084-2.467-2.084h-1.668c-2.713 0-4.07-1.177-4.07-3.534 0-2.478 1.738-3.717 5.214-3.717 1.51 0 2.915.183 4.214.545v1.541c-1.3-.484-2.704-.727-4.214-.727-2.357 0-3.535.786-3.535 2.357 0 1.39.797 2.084 2.392 2.084h1.668c2.761 0 4.143 1.18 4.143 3.534 0 2.539-1.674 3.809-5.021 3.809-1.579 0-3.046-.182-4.407-.544z"/><path d="M33.852 70.856v-12.96h1.676l7.931 10.441V57.896h1.587v12.96h-1.677l-7.931-10.533v10.533zm24.064-.507c-1.045.399-2.172.599-3.381.599-4.694 0-7.043-2.25-7.043-6.752 0-4.261 2.267-6.392 6.799-6.392 1.299 0 2.508.183 3.625.545v1.45a9.653 9.653 0 00-3.444-.635c-3.534 0-5.302 1.678-5.302 5.03 0 3.596 1.74 5.394 5.221 5.394.556 0 1.173-.072 1.85-.218v-4.405h1.676v5.384h-.001zm2.674-4.495v-7.959h1.676v7.958c0 2.489 1.239 3.735 3.717 3.735s3.717-1.246 3.717-3.735v-7.958h1.676v7.958c0 3.397-1.797 5.095-5.393 5.095s-5.393-1.698-5.393-5.094zm15.453-7.959v11.602h6.78v1.359h-8.456V57.895zm9.201 12.961h-1.741l6.445-14.671 6.445 14.671h-1.86l-1.677-4.079H88.57l.463-1.359h3.262l-2.42-5.874zm12.915 0v-12.96h5.529c2.466 0 3.697 1.036 3.697 3.108 0 1.686-1.204 2.935-3.615 3.743l4.45 6.109h-2.212l-4.123-5.827v-1.098c2.477-.394 3.716-1.345 3.716-2.855 0-1.196-.689-1.794-2.067-1.794h-3.698v11.574h-1.677z"/><path fill="#A6120D" d="M114.502 57.895v9.228c0 2.49-1.465 3.734-4.396 3.734v-1.359c1.813 0 2.72-.793 2.72-2.375v-9.228h1.676zm2.991 12.508v-1.541c1.36.482 2.827.726 4.405.726 2.229 0 3.345-.816 3.345-2.448 0-1.389-.822-2.084-2.466-2.084h-1.668c-2.713 0-4.07-1.179-4.07-3.535 0-2.478 1.737-3.717 5.213-3.717 1.511 0 2.915.183 4.215.544v1.542c-1.3-.484-2.704-.727-4.215-.727-2.356 0-3.535.786-3.535 2.357 0 1.389.797 2.084 2.393 2.084h1.668c2.761 0 4.143 1.179 4.143 3.535 0 2.538-1.674 3.808-5.022 3.808-1.578 0-3.046-.182-4.406-.544z"/><path fill="#B3B3B3" d="M16.218 47.913L1.08 53.24l2.392 19.833 12.762 7.014 12.828-7.108 2.391-19.833z"/><path fill="#A6120D" d="M29.942 54.292L16.183 49.6v28.811l11.531-6.382z"/><path fill="#DD1B16" d="M2.778 54.377l2.051 17.737 11.354 6.297V49.6z"/><path fill="#F2F2F2" d="M19.971 64.938l-3.788 1.771H12.19l-1.877 4.694-3.49.064 9.359-20.821 3.789 14.292zm-.367-.892l-3.396-6.724-2.786 6.608h2.761l3.421.116z"/><path fill="#B3B3B3" d="M16.183 50.646l.024 6.676 3.162 6.614h-3.18l-.006 2.769 4.395.004 2.055 4.759 3.34.062z"/></svg>