<?xml version="1.0" encoding="utf-8"?>
<!-- Generator: Adobe Illustrator 16.0.0, SVG Export Plug-In . SVG Version: 6.00 Build 0)  -->
<!DOCTYPE svg PUBLIC "-//W3C//DTD SVG 1.1//EN" "http://www.w3.org/Graphics/SVG/1.1/DTD/svg11.dtd">
<svg version="1.1" id="Layer_1" xmlns="http://www.w3.org/2000/svg" xmlns:xlink="http://www.w3.org/1999/xlink" x="0px" y="0px"
	 width="500px" height="500px" viewBox="0 0 500 500" enable-background="new 0 0 500 500" xml:space="preserve">
<g>
	<g>
		<polygon fill="#CCCCCC" points="130.575,278.066 130.575,227.436 137.126,227.436 168.108,268.223 168.108,227.436 
			174.302,227.436 174.302,278.066 167.753,278.066 136.772,236.922 136.772,278.066 		"/>
		<path fill="#CCCCCC" d="M224.577,276.084c-4.082,1.561-8.486,2.337-13.207,2.337c-18.337,0-27.51-8.791-27.51-26.377
			c0-16.642,8.852-24.964,26.553-24.964c5.078,0,9.8,0.711,14.163,2.129v5.664c-4.364-1.652-8.852-2.48-13.456-2.48
			c-13.806,0-20.707,6.554-20.707,19.651c0,14.043,6.793,21.068,20.393,21.068c2.17,0,4.576-0.285,7.223-0.854v-17.205h6.549
			V276.084L224.577,276.084z"/>
		<path fill="#CCCCCC" d="M235.023,258.522v-31.084h6.545v31.084c0,9.725,4.841,14.592,14.52,14.592
			c9.676,0,14.517-4.868,14.517-14.592v-31.084h6.55v31.084c0,13.271-7.022,19.901-21.066,19.901
			C242.045,278.424,235.023,271.793,235.023,258.522z"/>
		<polygon fill="#CCCCCC" points="295.387,227.436 295.387,272.758 321.875,272.758 321.875,278.066 288.841,278.066 
			288.841,227.436 		"/>
		<polygon fill="#CCCCCC" points="331.326,278.068 324.529,278.068 349.702,220.758 374.875,278.068 367.618,278.068 
			361.065,262.133 344.323,262.133 346.128,256.828 358.874,256.828 349.42,233.882 		"/>
		<path fill="#CCCCCC" d="M381.779,278.066v-50.631h21.599c9.632,0,14.446,4.05,14.446,12.144c0,6.588-4.706,11.463-14.127,14.622
			l17.384,23.865h-8.639l-16.107-22.765v-4.28c9.675-1.539,14.513-5.256,14.513-11.154c0-4.672-2.69-7.013-8.068-7.013H388.33
			v45.215h-6.55L381.779,278.066L381.779,278.066z"/>
		<path fill="#CCCCCC" d="M445.619,227.436v36.045c0,9.725-5.725,14.586-17.176,14.586v-5.311c7.083,0,10.625-3.095,10.625-9.276
			v-36.044H445.619z"/>
		<path fill="#CCCCCC" d="M457.303,276.297v-6.021c5.313,1.888,11.048,2.835,17.208,2.835c8.711,0,13.067-3.187,13.067-9.565
			c0-5.42-3.213-8.141-9.633-8.141h-6.517c-10.597,0-15.899-4.6-15.899-13.807c0-9.677,6.789-14.52,20.366-14.52
			c5.898,0,11.385,0.714,16.462,2.128v6.02c-5.078-1.89-10.563-2.835-16.462-2.835c-9.207,0-13.811,3.07-13.811,9.207
			c0,5.427,3.114,8.142,9.344,8.142h6.517c10.784,0,16.182,4.606,16.182,13.806c0,9.918-6.538,14.875-19.618,14.875
			C468.351,278.421,462.616,277.711,457.303,276.297z"/>
		<polygon points="132.232,276.413 132.232,225.782 138.782,225.782 169.762,266.569 169.762,225.782 175.959,225.782 
			175.959,276.413 169.409,276.413 138.427,235.268 138.427,276.413 		"/>
		<path d="M226.234,274.43c-4.082,1.56-8.484,2.337-13.206,2.337c-18.339,0-27.511-8.791-27.511-26.377
			c0-16.642,8.853-24.964,26.556-24.964c5.075,0,9.798,0.711,14.161,2.128v5.664c-4.364-1.653-8.852-2.48-13.453-2.48
			c-13.808,0-20.71,6.553-20.71,19.651c0,14.044,6.796,21.068,20.393,21.068c2.17,0,4.58-0.282,7.225-0.853v-17.206h6.547
			L226.234,274.43L226.234,274.43z"/>
		<path d="M236.68,256.867v-31.088h6.545v31.087c0,9.724,4.841,14.59,14.521,14.59c9.676,0,14.517-4.866,14.517-14.59v-31.087h6.549
			v31.087c0,13.27-7.022,19.898-21.065,19.898C243.7,276.765,236.68,270.138,236.68,256.867z"/>
		<polygon points="297.045,225.779 297.045,271.101 323.53,271.101 323.53,276.41 290.498,276.41 290.498,225.779 		"/>
		<polygon points="332.983,276.412 326.186,276.412 351.359,219.099 376.532,276.412 369.271,276.412 362.722,260.478 
			345.977,260.478 347.785,255.169 360.527,255.169 351.076,232.223 		"/>
		<path d="M383.437,276.413v-50.631h21.598c9.633,0,14.442,4.047,14.442,12.144c0,6.584-4.704,11.463-14.123,14.621l17.385,23.866
			h-8.643l-16.105-22.766v-4.285c9.676-1.538,14.516-5.252,14.516-11.154c0-4.672-2.692-7.009-8.074-7.009h-14.446v45.214H383.437z"
			/>
		<path fill="#A6120D" d="M447.275,225.779v36.045c0,9.727-5.724,14.586-17.174,14.586v-5.31c7.082,0,10.624-3.096,10.624-9.277
			v-36.044H447.275z"/>
		<path fill="#A6120D" d="M458.957,274.64v-6.019c5.314,1.887,11.046,2.835,17.209,2.835c8.709,0,13.065-3.188,13.065-9.563
			c0-5.423-3.212-8.142-9.633-8.142h-6.517c-10.596,0-15.898-4.602-15.898-13.809c0-9.677,6.787-14.52,20.365-14.52
			c5.898,0,11.387,0.714,16.464,2.128v6.021c-5.08-1.891-10.565-2.836-16.464-2.836c-9.207,0-13.81,3.07-13.81,9.208
			c0,5.426,3.111,8.141,9.343,8.141h6.517c10.783,0,16.182,4.604,16.182,13.809c0,9.915-6.536,14.872-19.616,14.872
			C470.004,276.765,464.27,276.054,458.957,274.64z"/>
		<path d="M398.46,303.438l-2.406-7.312h-1.709l3.318,9.239c-0.076,0.201-0.204,0.507-0.376,0.92
			c-0.172,0.414-0.273,0.641-0.3,0.687c-0.089,0.134-0.199,0.247-0.332,0.339c-0.132,0.093-0.336,0.139-0.613,0.139
			c-0.09,0-0.194-0.01-0.312-0.025c-0.116-0.017-0.307-0.062-0.568-0.135v1.375c0.167,0.046,0.31,0.075,0.423,0.092
			c0.114,0.017,0.278,0.024,0.491,0.024c0.871,0,1.484-0.25,1.842-0.753s0.971-1.898,1.842-4.188
			c0.369-0.972,0.825-2.23,1.374-3.771c0.73-2.052,1.204-3.366,1.415-3.942h-1.668L398.46,303.438z M389.529,304.054
			c-1.087,0-1.83-0.494-2.228-1.483c-0.213-0.524-0.318-1.209-0.318-2.053c0-1.167,0.258-2.005,0.777-2.515
			c0.519-0.507,1.123-0.762,1.812-0.762c0.789,0,1.389,0.311,1.796,0.931c0.407,0.619,0.61,1.402,0.61,2.346
			c0,1.063-0.202,1.917-0.61,2.564C390.961,303.729,390.348,304.054,389.529,304.054z M385.599,305.102h1.391v-1.147
			c0.319,0.431,0.62,0.743,0.9,0.938c0.471,0.33,1.049,0.495,1.732,0.495c1.224,0,2.179-0.47,2.871-1.409
			c0.689-0.938,1.033-2.117,1.033-3.535c0-1.498-0.348-2.631-1.048-3.398c-0.698-0.769-1.607-1.152-2.729-1.152
			c-0.538,0-1.036,0.113-1.498,0.34c-0.46,0.227-0.854,0.555-1.186,0.984v-4.467h-1.467V305.102L385.599,305.102z"/>
	</g>
	<g>
		<polygon fill="#B3B3B3" points="63.352,186.789 4.22,207.599 13.563,285.071 63.414,312.47 113.521,284.7 122.862,207.23 		"/>
		<polygon fill="#A6120D" points="116.964,211.708 63.214,193.378 63.214,305.924 108.259,280.994 		"/>
		<polygon fill="#DD1B16" points="10.854,212.038 18.862,281.325 63.213,305.924 63.213,193.376 		"/>
		<path fill="#F2F2F2" d="M78.01,253.292l-14.796,6.919H47.619l-7.331,18.335l-13.635,0.253l36.561-81.334L78.01,253.292z
			 M76.579,249.809l-13.268-26.266l-10.883,25.813h10.784L76.579,249.809z"/>
		<polygon fill="#B3B3B3" points="63.213,197.465 63.311,223.543 75.659,249.376 63.24,249.376 63.213,260.194 80.385,260.211 
			88.41,278.801 101.457,279.043 		"/>
	</g>
	<path d="M470.917,292.601c0.652,0.541,2.015,1.675,2.015,3.833c0,2.101-1.192,3.095-2.386,4.031
		c-0.368,0.368-0.794,0.767-0.794,1.392c0,0.623,0.426,0.965,0.737,1.221l1.023,0.794c1.249,1.05,2.384,2.016,2.384,3.976
		c0,2.668-2.584,5.364-7.467,5.364c-4.116,0-6.104-1.958-6.104-4.061c0-1.022,0.51-2.468,2.188-3.463
		c1.759-1.079,4.145-1.219,5.422-1.307c-0.399-0.51-0.854-1.05-0.854-1.929c0-0.482,0.144-0.768,0.285-1.108
		c-0.313,0.028-0.624,0.056-0.909,0.056c-3.008,0-4.712-2.243-4.712-4.456c0-1.306,0.598-2.755,1.816-3.805
		c1.619-1.334,3.549-1.562,5.082-1.562h5.849l-1.817,1.022L470.917,292.601 M468.899,305.206c-0.227-0.029-0.368-0.029-0.651-0.029
		c-0.256,0-1.79,0.058-2.982,0.455c-0.624,0.227-2.441,0.907-2.441,2.924c0,2.016,1.96,3.464,4.998,3.464
		c2.724,0,4.173-1.309,4.173-3.065C471.996,307.504,471.059,306.74,468.899,305.206z M469.724,299.811
		c0.653-0.654,0.709-1.561,0.709-2.071c0-2.045-1.221-5.224-3.576-5.224c-0.738,0-1.533,0.368-1.988,0.937
		c-0.481,0.597-0.624,1.362-0.624,2.101c0,1.902,1.107,5.054,3.55,5.054C468.504,300.606,469.268,300.266,469.724,299.811z
		 M453.044,304.751c-4.506,0-6.915-3.514-6.915-6.689c0-3.713,3.033-6.887,7.342-6.887c4.166,0,6.774,3.258,6.774,6.689
		C460.243,301.208,457.665,304.751,453.044,304.751 M456.586,302.456c0.683-0.908,0.853-2.041,0.853-3.146
		c0-2.495-1.191-7.257-4.706-7.257c-0.936,0-1.87,0.369-2.55,0.966c-1.106,0.991-1.306,2.238-1.306,3.457
		c0,2.806,1.39,7.425,4.819,7.425C454.802,303.9,455.936,303.362,456.586,302.456z M437.681,304.751
		c-4.506,0-6.915-3.514-6.915-6.689c0-3.713,3.033-6.887,7.342-6.887c4.165,0,6.773,3.258,6.773,6.689
		C444.881,301.208,442.301,304.751,437.681,304.751 M441.224,302.456c0.681-0.908,0.852-2.041,0.852-3.146
		c0-2.495-1.19-7.257-4.705-7.257c-0.936,0-1.871,0.369-2.552,0.966c-1.105,0.991-1.304,2.238-1.304,3.457
		c0,2.806,1.389,7.425,4.818,7.425C439.439,303.9,440.574,303.362,441.224,302.456z M428.6,304.307v-3.477
		c0-0.284,0.027-1.111,0.057-1.367c0.058-0.227,0.084-0.286,0.285-0.456l0.741-0.712h-6.042l-2.278,1.225l4.302-0.227v4.586
		c-0.854,0.344-1.794,0.713-3.619,0.713c-6.211,0-10.087-5.044-10.087-10.398c0-4.987,3.392-8.408,7.894-8.408
		c3.361,0,5.129,1.738,6.097,2.677l-0.711,1.142l0.996-0.228l2.366-2.25c-0.628-0.429-1.624-1.17-3.763-1.768
		c-1.339-0.371-2.819-0.599-4.358-0.599c-7.267,0-11.513,5.128-11.513,10.655c0,4.532,2.991,10.317,10.856,10.317
		c1.567,0,3.048-0.228,4.702-0.484L428.6,304.307 M479.924,303.486c-0.942-0.085-1.139-0.256-1.139-1.367V285.99
		c0.005-0.062,0.01-0.124,0.017-0.184c0.114-0.997,0.399-1.168,1.282-1.681h-4.075l-2.138,1.025h2.179v0.013l-0.002-0.01v17.592
		c0,0.57-0.113,0.655-0.769,1.509h5.044l1.055-0.626C480.894,303.572,480.408,303.544,479.924,303.486 M491.519,303.749
		c-0.311,0.17-0.622,0.369-0.933,0.51c-0.936,0.425-1.898,0.538-2.746,0.538c-0.905,0-2.32-0.058-3.765-1.104
		c-2.008-1.416-2.887-3.85-2.887-5.972c0-4.387,3.566-6.537,6.48-6.537c1.019,0,2.067,0.255,2.917,0.793
		c1.413,0.934,1.781,2.149,1.979,2.8l-6.648,2.689l-2.181,0.17c0.707,3.595,3.142,5.688,5.829,5.688
		c1.444,0,2.491-0.509,3.452-0.989L491.519,303.749 M488.859,295.314c0.537-0.198,0.819-0.367,0.819-0.764
		c0-1.131-1.271-2.435-2.801-2.435c-1.134,0-3.254,0.878-3.254,3.935c0,0.481,0.057,0.99,0.085,1.5L488.859,295.314z"/>
</g>
</svg>
