<svg version="1.1" xmlns="http://www.w3.org/2000/svg" xmlns:xlink="http://www.w3.org/1999/xlink" viewBox="0 0 128 128">
	<polygon fill="#B3B3B3" points="63.81,1.026 4.553,21.88 13.916,99.517 63.873,126.974 114.087,99.146 123.447,21.511 	"/>
	<polygon fill="#A6120D" points="117.536,25.998 63.672,7.629 63.672,120.414 108.813,95.431 	"/>
	<polygon fill="#DD1B16" points="11.201,26.329 19.227,95.763 63.671,120.414 63.671,7.627 	"/>
	<path fill="#F2F2F2" d="M78.499,67.67l-14.827,6.934H48.044l-7.347,18.374l-13.663,0.254l36.638-81.508L78.499,67.67z
		 M77.065,64.179L63.77,37.858L52.864,63.726h10.807L77.065,64.179z"/>
	<polygon fill="#B3B3B3" points="63.671,11.724 63.769,37.858 76.144,63.746 63.698,63.746 63.671,74.587 80.88,74.604
		88.922,93.234 101.996,93.476 	"/>
</svg>
