<svg width="128" height="128" viewBox="0 0 128 128" xmlns="http://www.w3.org/2000/svg">
  <path style="fill:#850000;fill-opacity:1;fill-rule:nonzero;stroke:none" d="M14.66 99.516c-.844.222-2.05.918-2.62 1.52l-.56.566-.156-1.993H9.258l-.047 7.223-.035 7.238h2.351l.067-4.707c.078-5.312.172-5.816 1.176-6.843.73-.743 1.875-1.157 2.875-1.043.843.093 1.43.472 1.875 1.23.3.508.316.871.367 5.945l.047 5.418h2.351l.047-5.023c.047-4.82.063-5.043.398-5.676 1.223-2.258 4.45-2.605 5.512-.598.32.598.336.93.383 5.957l.062 5.34h2.211l-.05-5.894-.047-5.88-.446-.835c-.984-1.867-3.703-2.594-5.957-1.613-.367.16-1.066.68-1.558 1.136-.824.778-.906.825-1.078.54-.414-.711-1.098-1.344-1.782-1.676-.812-.364-2.527-.551-3.32-.332zm0 0" transform="translate(-7.287 -32.362) scale(1.10979)"/>
  <path style="fill:#850000;fill-opacity:1;fill-rule:nonzero;stroke:none" d="M34.457 99.531c-1.922.41-3.781 1.785-4.512 3.367-1.129 2.387-1.082 5.817.11 8.137 1.21 2.371 4.34 3.73 7.183 3.145 3.88-.82 5.688-3.524 5.418-8.09-.047-.79-.191-1.785-.332-2.242-.539-1.723-2.097-3.336-3.847-3.985-1.032-.394-2.97-.55-4.02-.332zm3.258 2.278c1.7.789 2.527 2.418 2.512 4.992-.016 2.61-.778 4.234-2.368 5.043-1.066.55-2.843.566-3.832.062-.68-.363-1.492-1.187-1.875-1.914-.715-1.375-.746-4.582-.062-6.05.762-1.66 2.02-2.481 3.781-2.497.766-.015 1.242.078 1.844.364zm10.711-2.231c-1.13.332-1.813.711-2.465 1.375-.348.348-.684.633-.746.633-.063 0-.125-.457-.125-1.027v-1.043l-.988.046-1 .047-.047 7.223-.032 7.238h2.383v-4.55c.016-4.805.094-5.594.73-6.543.446-.696 1.637-1.36 2.688-1.5 1.508-.207 3.051.664 3.399 1.925.113.399.175 2.465.175 5.645v5.023h2.399l-.047-5.656-.047-5.64-.414-.887c-.477-.996-1.191-1.645-2.32-2.086-.985-.38-2.621-.489-3.543-.223Zm11.597-.062c-2.398.523-4.097 2.34-4.765 5.074-.301 1.215-.254 3.523.078 4.66.973 3.352 3.133 5.012 6.262 4.79 1.207-.095 2.257-.505 3.066-1.216.54-.476.59-.492.684-.191.16.52-.094 2.558-.399 3.254-.601 1.36-1.793 1.976-3.797 1.976-1.793-.015-3.004-.68-3.289-1.832-.078-.3-.238-.379-.824-.46a11.7 11.7 0 0 1-1.098-.173c-.332-.062-.367-.015-.367.602.016 1.516 1.16 2.844 3.004 3.477.813.285 1.399.363 2.637.363 2.863 0 4.832-1.012 5.785-2.957.715-1.438.828-3.113.777-10.793l-.047-6.48h-2.066l-.047.824c-.031.457-.094.836-.14.836-.051 0-.336-.22-.653-.489-1.207-1.058-3.273-1.597-4.8-1.265zm3.133 2.308c.446.238 1.016.664 1.254.98 1.781 2.321 1.445 7.11-.62 8.594-2.017 1.457-4.83.664-5.83-1.625-.51-1.171-.636-3.824-.237-5.261.3-1.157 1.156-2.262 2.129-2.766.855-.46 2.285-.43 3.304.078zm9.977-2.23c-1.317.379-1.715.57-2.59 1.234-1.7 1.266-2.492 3.207-2.477 6.05 0 2.071.317 3.321 1.176 4.65 1.145 1.753 3.098 2.734 5.48 2.75 2.75.015 4.926-1.204 6.024-3.368l.555-1.105.492 1.011c1.797 3.778 7.422 4.692 10.617 1.754.508-.46 1.063-1.105 1.223-1.406.176-.316.347-.57.394-.57.051 0 .223.332.383.758.797 1.898 2.766 2.941 5.578 2.925 1.637 0 2.844-.3 3.942-.996.652-.41 1.699-1.582 1.699-1.914 0-.062.078-.316.176-.55l.156-.446.46.793c1.99 3.477 7.536 4.25 10.552 1.484.78-.726 1.843-2.605 1.59-2.843-.079-.078-.618-.207-1.208-.27l-1.046-.14-.258.535c-.715 1.484-1.73 2.23-3.27 2.355-2.433.223-4.261-1.281-4.738-3.855-.078-.457-.11-.871-.063-.918.047-.047 2.512-.078 5.465-.078h5.371v-.852c0-1.094-.207-2.168-.648-3.336-.512-1.36-2.066-2.875-3.48-3.398-1.528-.57-3.641-.535-5.149.078-2.527 1.027-4.055 3.59-4.07 6.765v1.09l-.633-.554c-.684-.567-2.05-1.121-4.211-1.688-2.418-.633-3.227-.95-3.656-1.441-.461-.551-.492-.914-.16-1.547.367-.727 1.382-1.121 2.894-1.121 1.73 0 2.508.394 3.067 1.531.316.648.46.805.714.758.176-.031.653-.11 1.078-.156.891-.11.958-.348.368-1.598-.778-1.66-2.575-2.512-5.258-2.496-1.258.015-1.781.078-2.527.379-1.622.617-2.543 1.707-2.782 3.304l-.113.727-.492-.95c-2.477-4.742-9.852-4.644-12.059.157l-.398.871-.555-1.105c-.7-1.391-1.797-2.372-3.289-2.942-1.32-.504-3.164-.633-4.324-.316zm3.543 2.246c1.636.805 2.449 2.45 2.449 4.96-.016 3.477-1.621 5.532-4.324 5.532-1.653 0-3.035-.918-3.781-2.48-.395-.852-.43-1.059-.43-3.051 0-2.324.176-2.985 1.097-4.063 1.098-1.293 3.352-1.703 4.989-.898zm12.648-.176c.766.316 1.797 1.266 2.164 1.977.7 1.359.809 4.203.239 5.863-.32.933-1.192 1.96-2.036 2.371-1.43.727-3.496.488-4.671-.54-1.938-1.69-2.176-6.429-.415-8.468 1.098-1.297 3.211-1.816 4.72-1.203zm24.598.066c1.258.536 2.195 1.817 2.242 3.063l.031.664h-8.101l.047-.473c.109-1.328 1.03-2.574 2.336-3.222.855-.43 2.492-.446 3.445-.031zm-18.367 4.47c.636.585 1.527.933 4.355 1.69 1.348.364 2.637.794 2.86.95 1.367.98.652 2.875-1.274 3.336-1.144.265-2.7.125-3.621-.348-.637-.316-.828-.539-1.223-1.375l-.476-.98-1.875.187.11-.742c.046-.41.097-1.5.097-2.418v-1.676l.3.477c.157.254.493.664.747.898zM69.434 51.906c-1.45.059-3.891.446-3.891.61 0 .07 1.723.93 1.852.93.125 0 2.125 1 2.566 1.277.582.37.996.707.875.707-.078 0-2.133-.793-2.91-1.13-.633-.269-3.266-1.05-4.551-1.355-.691-.16-.984-.222-2.164-.437-1.742-.32-3.785-.336-4.68-.043-1.273.414-1.558.922-1.558 2.8 0 1.032.05 1.473.277 2.403.094.406.371 1.293.504 1.594.035.093.156.386.258.648.105.258.418.922.695 1.465 1.55 3.074 3.871 5.64 7.145 7.898 1.03.707 3.84 2.051 4.964 2.372.286.078.383.242.149.242-.262 0-2.633-.657-3.121-.864a8.928 8.928 0 0 0-.563-.222c-1.687-.684-3.844-2.086-5.629-3.68a18.454 18.454 0 0 1-4.586-6.266c-.683-1.542-1.148-3.343-1.261-4.91-.07-.894-.14-1.113-.375-1.101-.078 0-.813-.028-1.63-.07-2.206-.094-5.23.148-8.218.664-5.719.972-11.887 3.222-18.238 6.652a80.015 80.015 0 0 0-3.13 1.781c-.12.07-.5.3-.847.52-.347.214-.754.457-.902.55-.328.188-3.957 2.653-4.39 2.98-.165.122-.618.458-.997.731-1.723 1.278-5.476 4.336-5.691 4.645-.106.156.058.234.285.156.113-.043.406-.101.64-.137.243-.035.868-.199 1.387-.37.528-.165 1.09-.337 1.258-.38 1.281-.3 1.8-.406 2.555-.515.336-.047.84-.121 1.125-.164 3.52-.52 5.199-.649 6.765-.528 3.407.278 6.664.852 8.528 1.516 1.394.5 4.234 2.035 5.484 2.957.719.543 3.04 2.852 3.55 3.55.4.552.84 1.032.946 1.032.031 0 .078-1.758.086-3.902l.024-3.895 4.558-.027c3.586-.016 4.582.012 4.645.09.086.11.293.48.976 1.746.653 1.215.973 1.8 1.172 2.156.102.188.344.637.547.988.187.356.543 1.008.785 1.457.242.45.442.828.442.844 0 .078.355.543.418.543.035 0 .12-.129.18-.273.07-.157.253-.5.398-.758.156-.262.433-.77.625-1.121.191-.356.453-.844.59-1.078.382-.68.78-1.422 1.109-2.024.164-.312.426-.793.578-1.078.156-.285.383-.687.504-.906a4.42 4.42 0 0 1 .297-.496c.066-.078 1.09-.106 4.781-.09l4.688.027.023 7.61c.02 5.996.043 7.597.133 7.597.05-.008.398-.207.754-.457.5-.351.718-.566.949-.965.531-.902 2.027-2.324 3.035-2.875a14.3 14.3 0 0 1 3.898-1.464c1.387-.293 1.793-.336 4.938-.45 5.742-.199 6.594-.234 6.637-.277.023-.024-.055-.25-.164-.508-.121-.25-.332-.715-.477-1.023-.547-1.184-.547-1.578.024-2.157.39-.402 1.394-.757 3.12-1.101.286-.063.641-.137.79-.192.144-.042.328-.074.406-.074.215 0 1.941-.426 2.305-.562.25-.102 1.601-.395 3.214-.707.7-.137 2.52-.5 4.028-.801.953-.188 1.949-.387 2.207-.438.262-.054.633-.128.824-.164.191-.043.441-.093.563-.113.12-.027.73-.144 1.343-.273.625-.133 1.246-.25 1.395-.27.433-.043 3.699-.828 4.453-1.066 1.195-.39 1.55-.543 2.305-1.051.816-.555 1.039-.856 1.843-2.457.895-1.785 1.024-2.086 1.274-2.836.39-1.195.367-1.652-.13-2.152-.343-.344-1.089-.7-1.636-.778-.406-.05-.457-.035-.66.184-.121.129-.223.281-.223.336 0 .074-.14.457-.527 1.387-.035.093-.113.328-.176.515a5.6 5.6 0 0 1-.215.602c-.113.242-.12.199-.078-.473.043-.664.157-1.223.407-2.066.043-.164.105-.442.128-.614l.043-.308-.898-.363a116.8 116.8 0 0 1-2.21-.93 61.05 61.05 0 0 0-.868-.336 14.41 14.41 0 0 1-.89-.356 28.364 28.364 0 0 0-.91-.378c-.583-.223-2.61-.91-4.333-1.454-.469-.148-3.195-.964-3.465-1.043-.554-.148-.96-.257-1.21-.336-.141-.035-.477-.128-.739-.199-1.523-.422-1.922-.527-2.469-.68a15.923 15.923 0 0 0-.91-.242c-.164-.043-.613-.148-.996-.242-.668-.164-3.465-.808-4.98-1.152a95.78 95.78 0 0 0-1.086-.25 19.394 19.394 0 0 0-.778-.156 36.951 36.951 0 0 1-1.082-.215 76.028 76.028 0 0 0-1.691-.313 173.51 173.51 0 0 0-1.516-.265c-2.39-.43-2.555-.457-6.844-.93-2.644-.3-6.195-.55-7.062-.508-.137 0-.906.035-1.695.078zm-10.016 4.246c2.285.743 4.512 1.75 6.039 2.73 1.211.786 2.719 2.036 3.125 2.595l.176.234-.332-.129c-.18-.078-.563-.242-.848-.379-1.523-.707-1.687-.77-1.687-.613 0 .043.355.613.777 1.25.434.644.781 1.215.781 1.265 0 .043-.164-.027-.363-.164-.781-.535-2.61-1.3-2.715-1.144-.023.043.54.758 1.258 1.594.71.836 1.3 1.55 1.3 1.601 0 .13-.14.113-.796-.129-.676-.242-.852-.265-.852-.105 0 .113 1.465 2.086 2.047 2.77.164.187.293.367.293.41 0 .207-2.027-1.11-3.465-2.247-2.054-1.636-4.039-3.836-5.086-5.652-.855-1.484-1.152-2.285-1.152-3.164 0-.516.027-.621.219-.8.11-.122.25-.216.3-.216.055 0 .485.13.981.293zM86.77 59.22c.832.148 1.964.343 2.511.441.547.094 1.211.207 1.473.25.258.05.633.121.824.164.188.043.563.117.82.18.86.187 1.067.23 2.47.559 1.507.355 1.835.421 2.296.519.39.074.781.223.781.293 0 .023-.289.188-.632.367-.711.356-.86.38-3.786.492-1.996.086-3.058.063-4.03-.093-1.958-.301-2.97-.852-3.759-2.043-.277-.407-.46-.524-1.093-.688-.235-.07-.59-.164-.778-.226-.191-.059-.52-.153-.73-.215-.621-.164-.266-.258.988-.258.867 0 1.473.059 2.645.258zm10.42 12.038a.516.516 0 0 1-.218 0c-.059-.028-.016-.043.105-.043s.164.015.113.043zm-.375.101c0 .043-.101.106-.234.13-.266.07-1.324.37-1.672.484-.12.043-.508.164-.863.265-.895.258-3.059.965-3.64 1.188-1.09.414-3.657 1.777-4.02 2.136-.535.528-.703 1.098-.625 2.184.027.453.09 1.031.14 1.281.102.543.043.692-.164.422-.21-.265-.652-1.23-.781-1.703-.07-.219-.148-.5-.191-.64-.157-.489-.094-1.067.148-1.422.328-.5 1.508-1.301 2.895-1.965.656-.317 2.57-.973 4.332-1.489.355-.105.742-.226.863-.257 1.25-.422 3.812-.828 3.812-.614zm-27.402.579c-.023.023-.102.035-.164.007-.07-.027-.043-.05.05-.05.098-.008.15.015.114.042zm0 0" transform="translate(-7.287 -32.362) scale(1.10979)"/>
  <path style="fill:#850000;fill-opacity:1;fill-rule:nonzero;stroke:none" d="M51.246 88.602v6.03h4.316c3.239 0 4.34-.027 4.418-.105.13-.129.157-11.957.028-11.957-.043 0-.106.067-.133.145-.031.078-.977 1.55-2.105 3.273-1.782 2.723-2.278 3.387-2.278 3.051 0-.059-2.953-4.668-3.707-5.781a3.122 3.122 0 0 1-.27-.457c-.07-.13-.156-.23-.199-.23-.035 0-.07 2.714-.07 6.03zm0 0" transform="translate(-7.287 -32.362) scale(1.10979)"/>
</svg>
