<svg xmlns="http://www.w3.org/2000/svg" viewBox="0 0 128 128"><path fill="#850000" d="M8.983 78.08c-.937.246-2.276 1.019-2.908 1.687l-.622.628-.173-2.212H2.987L2.935 86.2l-.039 8.033h2.61l.074-5.224c.086-5.895.19-6.455 1.305-7.594.81-.825 2.08-1.284 3.19-1.158.936.103 1.588.524 2.082 1.365.332.564.35.967.407 6.598l.052 6.013h2.61l.051-5.575c.052-5.349.07-5.596.442-6.299 1.357-2.506 4.939-2.89 6.117-.664.355.664.373 1.033.425 6.611l.069 5.927h2.454l-.056-6.541-.052-6.526-.495-.927c-1.092-2.072-4.11-2.878-6.61-1.79-.408.178-1.184.755-1.73 1.261-.914.863-1.005.916-1.196.6-.46-.79-1.219-1.492-1.978-1.86-.901-.405-2.804-.612-3.684-.37zm0 0"/><path fill="#850000" d="M30.953 78.097c-2.133.455-4.196 1.98-5.007 3.736-1.253 2.65-1.201 6.456.122 9.03 1.343 2.632 4.816 4.14 7.971 3.49 4.306-.91 6.313-3.91 6.013-8.977-.052-.877-.212-1.981-.368-2.489-.598-1.912-2.327-3.702-4.27-4.422-1.145-.437-3.296-.61-4.461-.368zm3.616 2.528c1.886.875 2.804 2.683 2.788 5.54-.018 2.896-.864 4.699-2.628 5.596-1.183.61-3.156.628-4.253.07-.755-.404-1.656-1.318-2.081-2.125-.794-1.526-.828-5.085-.069-6.714.846-1.842 2.242-2.754 4.196-2.771.85-.017 1.379.086 2.047.404zm11.887-2.476c-1.254.368-2.012.789-2.736 1.526-.386.386-.759.702-.828.702-.07 0-.139-.507-.139-1.14V78.08l-1.096.05-1.11.053-.052 8.016-.036 8.033h2.645v-5.05c.018-5.332.104-6.208.81-7.261.495-.773 1.817-1.51 2.983-1.665 1.674-.23 3.386.737 3.773 2.137.125.442.194 2.735.194 6.264v5.575h2.662l-.052-6.277-.052-6.26-.46-.984c-.529-1.105-1.321-1.825-2.574-2.315-1.093-.422-2.91-.543-3.932-.247Zm12.87-.07c-2.661.581-4.547 2.598-5.288 5.632-.334 1.348-.282 3.91.086 5.172 1.08 3.72 3.477 5.562 6.95 5.315 1.34-.105 2.505-.56 3.402-1.35.6-.527.655-.545.76-.211.177.577-.105 2.839-.443 3.611-.667 1.51-1.99 2.193-4.214 2.193-1.99-.016-3.334-.754-3.65-2.033-.087-.333-.264-.42-.915-.51a12.985 12.985 0 0 1-1.218-.192c-.369-.07-.408-.017-.408.668.018 1.682 1.288 3.156 3.334 3.858.903.317 1.553.403 2.927.403 3.177 0 5.362-1.123 6.42-3.281.793-1.596.919-3.455.862-11.978l-.052-7.192h-2.293l-.052.915c-.034.507-.104.927-.155.927-.057 0-.373-.244-.725-.542-1.34-1.174-3.632-1.773-5.327-1.404zm3.477 2.562c.495.264 1.127.737 1.392 1.088 1.976 2.576 1.603 7.89-.688 9.537-2.239 1.617-5.36.737-6.47-1.803-.567-1.3-.706-4.244-.264-5.839.333-1.284 1.283-2.51 2.363-3.07.949-.51 2.536-.477 3.667.087zm11.072-2.475c-1.461.421-1.903.633-2.874 1.37-1.887 1.405-2.766 3.559-2.749 6.714 0 2.299.352 3.686 1.305 5.16 1.27 1.946 3.438 3.035 6.082 3.053 3.052.016 5.467-1.337 6.685-3.738l.616-1.227.546 1.122c1.994 4.193 8.237 5.208 11.783 1.947.563-.51 1.18-1.226 1.357-1.56.195-.351.385-.633.437-.633.057 0 .248.369.425.841.885 2.107 3.07 3.264 6.19 3.246 1.817 0 3.157-.332 4.375-1.105.724-.455 1.886-1.756 1.886-2.124 0-.069.087-.35.195-.61l.173-.495.511.88c2.208 3.858 8.363 4.716 11.71 1.647.866-.806 2.046-2.891 1.765-3.156-.088-.086-.686-.23-1.34-.3l-1.161-.155-.287.594c-.793 1.647-1.92 2.475-3.629 2.614-2.7.247-4.729-1.422-5.258-4.278-.087-.508-.122-.967-.07-1.02.052-.051 2.788-.086 6.065-.086h5.96v-.945c0-1.214-.229-2.406-.718-3.703-.569-1.509-2.293-3.19-3.862-3.77-1.696-.633-4.041-.594-5.715.086-2.804 1.14-4.5 3.984-4.517 7.508v1.21l-.702-.616c-.76-.629-2.275-1.244-4.673-1.873-2.684-.702-3.582-1.054-4.058-1.6-.511-.61-.546-1.013-.177-1.716.407-.807 1.533-1.244 3.211-1.244 1.92 0 2.784.437 3.404 1.7.35.718.51.892.793.84a20.47 20.47 0 0 1 1.196-.173c.989-.122 1.063-.386.408-1.773-.863-1.843-2.857-2.788-5.835-2.77-1.396.016-1.977.086-2.804.42-1.8.685-2.823 1.895-3.088 3.667l-.125.807-.546-1.054c-2.75-5.263-10.934-5.154-13.383.174l-.442.966-.616-1.226c-.777-1.544-1.994-2.632-3.65-3.265-1.465-.56-3.511-.702-4.799-.35zm3.932 2.493c1.816.893 2.718 2.719 2.718 5.505-.018 3.858-1.799 6.139-4.799 6.139-1.834 0-3.368-1.019-4.196-2.752-.438-.946-.477-1.176-.477-3.386 0-2.58.195-3.313 1.218-4.51 1.218-1.434 3.72-1.89 5.536-.996zm14.037-.195c.85.35 1.994 1.405 2.401 2.194.777 1.508.898 4.664.266 6.506-.355 1.036-1.323 2.176-2.26 2.632-1.587.807-3.88.541-5.184-.6-2.15-1.875-2.415-7.134-.46-9.397 1.218-1.44 3.563-2.016 5.238-1.335zm27.298.073c1.397.595 2.436 2.016 2.489 3.4l.034.736h-8.99l.052-.525c.12-1.474 1.143-2.856 2.592-3.576.95-.477 2.766-.495 3.823-.034zm-20.383 4.96c.706.65 1.695 1.036 4.833 1.876 1.496.404 2.927.881 3.174 1.055 1.517 1.087.724 3.19-1.414 3.702-1.27.294-2.996.139-4.018-.386-.707-.351-.92-.599-1.358-1.526l-.528-1.088-2.08.208.121-.824c.051-.455.108-1.665.108-2.683v-1.86l.333.529c.174.282.547.737.829.997zM69.77 25.244c-1.609.065-4.318.495-4.318.677 0 .077 1.912 1.032 2.055 1.032.139 0 2.359 1.11 2.848 1.417.646.41 1.105.785.971.785-.086 0-2.367-.88-3.23-1.254-.702-.299-3.624-1.166-5.05-1.504-.767-.178-1.092-.247-2.402-.485-1.933-.355-4.2-.373-5.193-.048-1.413.46-1.73 1.023-1.73 3.108 0 1.145.056 1.634.308 2.666.104.45.412 1.435.56 1.77.038.103.172.428.286.719.116.286.463 1.023.77 1.625 1.721 3.412 4.297 6.26 7.93 8.765 1.143.785 4.262 2.277 5.51 2.633.317.086.424.268.165.268-.291 0-2.922-.729-3.464-.958a9.908 9.908 0 0 0-.625-.247c-1.872-.759-4.266-2.315-6.247-4.084a20.48 20.48 0 0 1-5.09-6.954c-.757-1.711-1.273-3.71-1.399-5.449-.077-.992-.155-1.235-.416-1.222-.086 0-.902-.03-1.809-.077-2.448-.105-5.804.164-9.12.737-6.347 1.078-13.192 3.575-20.24 7.382a88.8 88.8 0 0 0-3.474 1.976c-.133.078-.555.333-.94.577-.385.238-.837.508-1.001.61-.364.21-4.392 2.945-4.872 3.308-.183.135-.686.508-1.107.811-1.912 1.419-6.077 4.812-6.315 5.155-.118.173.064.26.316.173.125-.047.45-.112.71-.152.27-.038.963-.22 1.54-.41a47.98 47.98 0 0 1 1.396-.422c1.421-.333 1.997-.45 2.835-.572.373-.052.932-.134 1.249-.182 3.906-.577 5.77-.72 7.507-.585 3.781.308 7.396.945 9.465 1.682 1.547.555 4.698 2.258 6.086 3.282.798.602 3.373 3.165 3.94 3.94.443.612.932 1.145 1.05 1.145.034 0 .086-1.951.095-4.33l.026-4.323 5.059-.03c3.98-.018 5.085.013 5.155.1.095.122.325.532 1.083 1.937.725 1.349 1.08 1.998 1.3 2.393.114.209.382.707.608 1.096.207.395.602 1.12.87 1.617.27.5.491.92.491.937 0 .087.394.603.464.603.04 0 .133-.144.2-.303.078-.175.28-.555.442-.842.173-.29.48-.854.693-1.244.212-.395.503-.936.655-1.196.424-.755.866-1.578 1.23-2.246.183-.346.474-.88.642-1.197.173-.316.425-.762.56-1.005a4.905 4.905 0 0 1 .33-.55c.073-.087 1.209-.118 5.305-.1l5.203.03.025 8.445c.023 6.654.048 8.431.148 8.431.055-.009.442-.23.837-.507.555-.39.797-.628 1.053-1.07.59-1.002 2.25-2.58 3.368-3.192a15.87 15.87 0 0 1 4.326-1.624c1.54-.325 1.99-.373 5.48-.5 6.373-.22 7.318-.26 7.366-.307.025-.027-.061-.278-.182-.564-.134-.277-.368-.793-.53-1.135-.606-1.314-.606-1.751.027-2.394.433-.446 1.547-.84 3.463-1.222.317-.07.711-.152.877-.213.16-.047.364-.082.45-.082.239 0 2.154-.473 2.558-.624.278-.113 1.777-.438 3.567-.784.777-.152 2.797-.555 4.47-.89 1.058-.208 2.163-.429 2.45-.485.29-.06.702-.143.914-.182.212-.048.49-.104.625-.126.133-.03.81-.16 1.49-.303a34.027 34.027 0 0 1 1.548-.3c.481-.047 4.106-.918 4.942-1.183 1.327-.432 1.72-.602 2.558-1.166.906-.616 1.153-.95 2.046-2.727.993-1.98 1.136-2.315 1.414-3.147.432-1.326.407-1.833-.145-2.388-.38-.382-1.208-.777-1.815-.864-.45-.055-.507-.039-.733.204-.134.144-.247.312-.247.373 0 .082-.156.508-.585 1.54-.039.103-.125.364-.195.571a6.215 6.215 0 0 1-.239.668c-.125.269-.133.221-.087-.525.048-.737.175-1.357.452-2.292.048-.182.117-.491.142-.682l.048-.342-.997-.403a129.623 129.623 0 0 1-2.452-1.032 67.753 67.753 0 0 0-.964-.373 15.992 15.992 0 0 1-.987-.395 31.478 31.478 0 0 0-1.01-.42c-.647-.247-2.897-1.009-4.809-1.613-.52-.164-3.546-1.07-3.845-1.157a37.918 37.918 0 0 1-1.343-.373c-.157-.039-.53-.142-.82-.221-1.69-.468-2.133-.585-2.74-.755a17.671 17.671 0 0 0-1.01-.268c-.182-.048-.68-.164-1.106-.269-.741-.182-3.845-.897-5.526-1.278a106.296 106.296 0 0 0-1.206-.278 21.523 21.523 0 0 0-.863-.173 41.008 41.008 0 0 1-1.2-.238 84.375 84.375 0 0 0-1.878-.348 192.56 192.56 0 0 0-1.682-.294c-2.652-.477-2.836-.507-7.595-1.032-2.935-.333-6.876-.61-7.838-.564a75.2 75.2 0 0 0-1.88.087zm-11.115 4.712c2.535.825 5.007 1.942 6.702 3.03 1.343.872 3.017 2.26 3.468 2.88l.195.26-.369-.144c-.2-.086-.624-.268-.94-.42-1.69-.785-1.873-.855-1.873-.68 0 .047.394.68.862 1.386.482.715.867 1.349.867 1.404 0 .048-.182-.03-.403-.182-.866-.593-2.896-1.442-3.013-1.27-.025.048.6.842 1.396 1.77.788.927 1.443 1.72 1.443 1.776 0 .145-.155.126-.883-.143-.75-.268-.946-.294-.946-.116 0 .125 1.626 2.315 2.272 3.074.182.207.325.407.325.455 0 .23-2.25-1.232-3.845-2.494-2.28-1.815-4.483-4.257-5.645-6.272-.949-1.647-1.278-2.536-1.278-3.512 0-.572.03-.689.243-.888.122-.135.277-.24.333-.24.06 0 .538.145 1.089.326zm30.354 3.405c.924.164 2.18.38 2.787.49.607.104 1.344.229 1.635.277.286.055.702.134.914.182.209.047.625.13.91.2.955.207 1.185.255 2.742.62 1.672.394 2.036.467 2.548.576.432.082.866.247.866.325 0 .025-.32.209-.701.407-.79.395-.954.422-4.202.546-2.215.096-3.393.07-4.472-.103-2.173-.334-3.296-.946-4.172-2.267-.307-.452-.51-.582-1.213-.764-.26-.078-.655-.182-.863-.25-.212-.066-.577-.17-.81-.24-.69-.181-.296-.286 1.096-.286.962 0 1.635.066 2.935.287zm11.564 13.36a.573.573 0 0 1-.241 0c-.066-.032-.018-.048.116-.048s.182.016.125.047zm-.416.112c0 .047-.112.117-.26.144a57.5 57.5 0 0 0-1.855.537c-.133.048-.564.182-.958.294-.993.286-3.395 1.071-4.04 1.318-1.209.46-4.058 1.973-4.46 2.371-.594.586-.78 1.219-.694 2.424.03.502.1 1.144.155 1.421.113.603.048.768-.182.469-.233-.294-.724-1.365-.867-1.89-.077-.243-.164-.555-.212-.71-.174-.543-.104-1.185.165-1.579.364-.555 1.673-1.443 3.212-2.18.728-.352 2.853-1.08 4.808-1.653.394-.116.824-.25.958-.285 1.387-.468 4.23-.919 4.23-.681zm-30.41.642c-.026.026-.113.039-.182.008-.078-.03-.048-.056.055-.056.11-.009.167.017.127.047zm0 0"/><path fill="#850000" d="M49.585 65.968v6.692h4.79c3.595 0 4.817-.03 4.903-.117.144-.143.174-13.27.031-13.27-.047 0-.117.075-.147.161-.035.087-1.085 1.72-2.336 3.633-1.978 3.022-2.529 3.758-2.529 3.386 0-.066-3.277-5.18-4.114-6.416a3.465 3.465 0 0 1-.3-.507c-.077-.145-.172-.256-.22-.256-.039 0-.078 3.012-.078 6.693zm0 0"/></svg>
