<?xml version="1.0" encoding="utf-8"?>
<!-- Generator: Adobe Illustrator 16.0.0, SVG Export Plug-In . SVG Version: 6.00 Build 0)  -->
<!DOCTYPE svg PUBLIC "-//W3C//DTD SVG 1.1//EN" "http://www.w3.org/Graphics/SVG/1.1/DTD/svg11.dtd">
<svg version="1.1" id="Layer_1" xmlns="http://www.w3.org/2000/svg" xmlns:xlink="http://www.w3.org/1999/xlink" x="0px" y="0px"
	 width="500px" height="500px" viewBox="0 0 500 500" enable-background="new 0 0 500 500" xml:space="preserve">
<g>
	<g>
		<path fill-rule="evenodd" clip-rule="evenodd" fill="#337BA2" d="M168.971,473.568c0.31,3.976,0.113,8.091,1.168,11.861
			c0.447,1.597,3.518,2.457,5.396,3.651c0.817,0.521,1.63,1.045,2.444,1.567c-0.92,0.536-1.833,1.519-2.762,1.532
			c-7.287,0.128-14.578,0.126-21.865,0.006c-0.966-0.016-1.916-0.926-2.873-1.423c0.775-0.557,1.517-1.526,2.333-1.595
			c4.887-0.413,6.377-3.379,6.354-7.77c-0.042-8.073-0.023-16.148,0.013-24.227c0.021-4.503-1.259-7.787-6.557-7.989
			c-0.735-0.029-1.429-1.154-2.142-1.769c0.713-0.436,1.429-1.255,2.136-1.245c9.336,0.115,18.709-0.095,27.995,0.689
			c7.315,0.623,12.139,5.685,12.632,11.522c0.54,6.4-2.744,10.795-10.174,13.619c-0.589,0.221-1.184,0.438-2.849,1.062
			c4.786,4.523,9.023,8.947,13.735,12.785c2.09,1.705,5.053,2.724,7.77,3.191c5.44,0.932,8.396-1.413,8.543-6.805
			c0.236-8.707,0.125-17.426,0.043-26.139c-0.038-3.994-1.753-6.631-6.206-6.848c-0.842-0.038-1.641-0.987-2.46-1.515
			c0.933-0.544,1.868-1.564,2.795-1.559c9.498,0.074,19.042-0.215,28.48,0.626c16.106,1.431,25.08,14.832,20.369,29.644
			c-2.872,9.028-9.746,14.135-18.592,14.739c-15.458,1.054-31.008,0.838-46.52,0.948c-1.237,0.009-2.756-1.33-3.687-2.433
			c-3.571-4.238-6.938-8.643-10.422-12.956c-1.053-1.303-2.232-2.502-3.354-3.752C170.135,473.185,169.553,473.374,168.971,473.568z
			 M220.219,450.643c0,10.88-0.135,21.422,0.139,31.949c0.042,1.619,1.6,4.06,3.046,4.637c5.69,2.271,14.889-1.438,17.46-7.193
			c3.44-7.707,3.86-15.821-0.792-23.134C235.481,449.688,227.84,450.406,220.219,450.643z M169.354,468.454
			c4.931,0.129,10.364,1.224,12.471-4.192c1.18-3.036,0.915-7.74-0.713-10.506c-2.473-4.206-7.444-3.469-11.758-2.94
			C169.354,456.901,169.354,462.507,169.354,468.454z"/>
		<path fill-rule="evenodd" clip-rule="evenodd" fill="#515151" d="M378.007,466.209c3.258-0.701,6.487-0.604,8.587-2.099
			c1.76-1.25,2.2-4.358,3.546-7.364c0.778,1.396,1.509,2.104,1.521,2.825c0.1,5.391,0.119,10.785-0.002,16.173
			c-0.019,0.845-0.882,1.669-1.354,2.503c-0.532-0.445-1.323-0.781-1.558-1.35c-2.866-6.915-2.846-6.923-11.106-6.183
			c1.205,5.396-2.98,12.301,3.476,15.851c3.293,1.809,8.607,1.448,12.459,0.268c3.285-1.002,5.782-4.577,8.642-7.024
			c0,3.441,0,7.614,0,12.094c-1.581,0.139-2.784,0.334-3.987,0.336c-16.176,0.02-32.351-0.047-48.524,0.07
			c-2.788,0.022-4.677-0.678-6.378-3.021c-3.35-4.615-7.029-8.991-10.646-13.404c-0.905-1.105-2.086-1.984-3.985-3.757
			c0,4.506-0.165,7.737,0.046,10.944c0.219,3.352,1.834,5.571,5.541,5.993c1.092,0.123,2.068,1.271,3.097,1.953
			c-1.058,0.412-2.107,1.163-3.17,1.18c-7.136,0.105-14.271,0.1-21.406,0.005c-1.095-0.014-2.178-0.676-3.384-1.077
			c0.46-0.912,0.499-1.141,0.608-1.182c8.765-3.538,8.789-3.538,8.779-13.701c-0.007-6.339-0.056-12.682-0.15-19.023
			c-0.065-4.38-1.254-7.852-6.601-8.037c-0.77-0.027-1.501-1.123-2.251-1.727c0.883-0.442,1.77-1.271,2.646-1.264
			c9.028,0.089,18.104-0.206,27.071,0.628c9.811,0.915,15.879,9.096,12.236,16.628c-1.991,4.113-6.595,6.965-10.646,11.011
			c3.844,3.517,8.269,8.568,13.636,12.245c7.584,5.192,12.766,2.229,12.956-6.83c0.159-7.607-0.028-15.221-0.057-22.83
			c-0.018-4.515-1.411-7.792-6.709-7.863c-0.721-0.012-1.432-0.782-2.29-1.289c2.755-2.029,29.292-2.768,40.813-1.298
			c0.245,4.124,0.494,8.338,0.743,12.554c-0.434,0.176-0.865,0.354-1.299,0.533c-2.68-2.802-2.348-8.591-7.888-8.612
			c-4.236-0.019-8.471-0.466-13.015-0.74C378.007,455.636,378.007,460.457,378.007,466.209z M328.604,468.422
			c10.195,0.412,14.244-2.353,14.001-9.236c-0.235-6.633-4.669-9.308-14.001-8.284C328.604,456.619,328.604,462.36,328.604,468.422z
			"/>
		<path fill-rule="evenodd" clip-rule="evenodd" fill="#3179A1" d="M45.136,471.411c3.891-11.511,7.73-23.035,11.732-34.505
			c0.55-1.582,1.898-2.881,2.879-4.311c0.969,1.475,2.295,2.828,2.849,4.448c3.636,10.62,7.101,21.297,10.632,31.951
			c0.282,0.852,0.645,1.678,1.463,3.782c3.625-10.984,6.98-20.732,10.019-30.581c1.054-3.411-0.317-5.876-4.287-6.322
			c-1.31-0.15-2.577-0.662-4.104-1.073c2.639-2.926,23.27-3.139,26.668-0.421c-0.924,0.437-1.656,1.062-2.413,1.092
			c-6.444,0.252-9.429,4.281-11.267,9.85c-4.913,14.881-9.921,29.731-14.912,44.587c-0.518,1.541-1.173,3.04-1.766,4.557
			c-0.549,0.038-1.098,0.078-1.646,0.118c-4.538-13.727-9.076-27.447-13.979-42.27c-4.985,14.856-9.562,28.497-14.138,42.14
			c-0.461,0.031-0.923,0.058-1.385,0.088c-0.721-1.568-1.606-3.085-2.138-4.717c-4.56-13.988-9.061-27.993-13.568-41.995
			c-1.934-6.013-3.867-11.987-11.767-12.369c-0.515-0.024-0.989-0.894-1.483-1.365c0.618-0.511,1.233-1.46,1.856-1.467
			c8.878-0.095,17.758-0.095,26.635,0.003c0.617,0.006,1.225,0.967,1.835,1.482c-0.659,0.49-1.246,1.206-1.984,1.433
			c-7.107,2.146-7.62,2.972-5.383,9.87c2.822,8.722,5.734,17.411,8.607,26.113C44.439,471.49,44.789,471.45,45.136,471.411z"/>
		<path fill-rule="evenodd" clip-rule="evenodd" fill="#4D4D4D" d="M255.797,434.569c1.089-0.943,1.7-1.929,2.296-1.92
			c11.551,0.172,23.196-0.36,34.623,0.966c10.812,1.257,16.802,11.403,13.541,20.938c-2.921,8.553-10.13,11.227-18.282,11.97
			c-3.443,0.314-6.938,0.05-11.031,0.05c0.363,5.675,0.548,10.858,1.074,16.005c0.443,4.353,3.372,6.092,7.513,6.446
			c0.935,0.081,1.784,1.126,2.674,1.728c-0.978,0.494-1.946,1.409-2.929,1.422c-8.56,0.115-17.123,0.111-25.682,0.007
			c-1.026-0.013-2.043-0.854-3.064-1.312c0.853-0.644,1.687-1.809,2.562-1.844c5.716-0.218,7.858-3.763,7.931-8.731
			c0.173-12.034,0.156-24.069,0.01-36.105c-0.062-5.114-2.537-8.394-8.095-8.618C258.1,435.536,257.281,435.058,255.797,434.569z
			 M277.371,460.767c10.476,1.087,14.465,0.088,16.989-4.56c2.53-4.657,2.54-9.528-0.452-13.933
			c-4.138-6.087-10.464-4.288-16.537-4.507C277.371,445.687,277.371,453.059,277.371,460.767z"/>
		<path fill-rule="evenodd" clip-rule="evenodd" fill="#3279A1" d="M121.388,493.996c-9.361-0.41-16.984-3.348-22.633-10.343
			c-8.021-9.928-6.801-23.414,2.776-32c10.331-9.26,27.415-9.657,38.021-0.67c7.181,6.089,10.581,13.803,8.245,23.256
			c-2.636,10.667-10.159,16.376-20.385,18.971C125.286,493.749,123.034,493.792,121.388,493.996z M139.141,469.585
			c-0.291-0.19-0.583-0.385-0.875-0.577c-0.582-2.77-0.922-5.622-1.792-8.299c-2.507-7.7-7.76-11.507-15.482-11.521
			c-7.696-0.017-12.87,3.806-15.387,11.588c-2.235,6.919-1.945,13.776,1.498,20.234c5.139,9.64,18.864,11.448,25.583,2.877
			C135.82,479.893,137.048,474.4,139.141,469.585z"/>
		<path fill-rule="evenodd" clip-rule="evenodd" fill="#505050" d="M479.484,446.554c0.335-0.291,1.489-1.303,3.485-3.058
			c0,6.541,0,11.817,0,17.093c-0.337,0.255-0.674,0.512-1.012,0.766c-0.818-1.152-1.945-2.195-2.402-3.481
			c-2.309-6.466-7.284-9.973-12.965-8.269c-1.948,0.583-4.292,2.534-4.815,4.337c-0.427,1.469,1.112,4.375,2.621,5.368
			c3.938,2.593,8.324,4.516,12.557,6.653c9.204,4.656,12.492,11.11,9.378,18.501c-3.158,7.502-12.747,11.386-21.336,8.484
			c-2.368-0.803-4.561-2.122-6.749-3.163c-1.128,1.479-2.239,2.939-3.351,4.396c-0.495-0.146-0.988-0.302-1.481-0.452
			c0-5.769-0.037-11.539,0.058-17.308c0.01-0.557,0.838-1.103,1.286-1.652c0.705,0.852,1.752,1.602,2.06,2.579
			c2.043,6.47,5.975,10.765,12.988,11.487c3.996,0.411,7.904-0.08,9.29-4.637c1.266-4.168-1.64-6.517-4.763-8.295
			c-3.433-1.953-7.062-3.551-10.579-5.354c-1.541-0.794-3.116-1.577-4.504-2.598c-4.91-3.619-6.848-8.837-5.396-14.132
			c1.298-4.729,5.949-8.738,11.708-8.907C469.837,444.781,474.147,445.875,479.484,446.554z"/>
		<path fill-rule="evenodd" clip-rule="evenodd" fill="#505050" d="M415.936,489.623c-0.648,1.289-1.009,2.372-1.675,3.208
			c-0.401,0.502-1.391,0.979-1.913,0.812c-0.497-0.156-1.025-1.148-1.036-1.782c-0.083-5.073-0.084-10.149,0.005-15.22
			c0.01-0.62,0.695-1.228,1.07-1.839c0.72,0.458,1.741,0.756,2.096,1.415c0.661,1.228,0.812,2.72,1.392,4.003
			c2.609,5.791,7.895,9.41,13.957,8.53c2.535-0.365,5.663-2.29,6.924-4.446c1.694-2.895-0.338-5.873-3.182-7.518
			c-3.824-2.211-7.783-4.199-11.755-6.138c-8.972-4.378-12.757-11.607-9.542-18.433c3.194-6.785,13.008-9.608,21.205-6.077
			c1.002,0.431,1.949,0.978,2.735,1.38c1.389-1.141,2.652-2.179,4.212-3.457c0.441,1.239,0.723,1.661,0.726,2.09
			c0.03,4.748,0.021,9.492,0.021,14.243c-0.413,0.271-0.825,0.55-1.237,0.826c-0.824-1.052-1.972-1.986-2.419-3.181
			c-2.239-5.985-5.782-9.3-10.975-8.668c-2.438,0.297-5.546,1.971-6.743,3.977c-1.758,2.95,0.779,5.318,3.459,6.754
			c3.762,2.023,7.613,3.872,11.431,5.791c9.444,4.741,12.767,11.322,9.508,18.847c-3.174,7.329-13.071,11.119-21.549,8.114
			C420.438,492.072,418.395,490.821,415.936,489.623z"/>
	</g>
	<g>
		<path fill-rule="evenodd" clip-rule="evenodd" fill="#494949" d="M254.924,5.447C150.313,3.582,62.899,88.468,62.873,191.404
			c-0.031,105.899,83.354,190.384,187.801,190.23c103.477-0.154,187.236-84.326,187.233-188.153
			C437.906,91.345,354.532,7.225,254.924,5.447z M250.442,372.196c-98.932,0.021-178.494-80.191-178.488-179.949
			c0.005-97.189,80.8-177.657,178.413-177.69c99.344-0.033,178.497,80.679,178.465,181.98
			C428.802,292.171,347.552,372.177,250.442,372.196z"/>
		<path fill-rule="evenodd" clip-rule="evenodd" fill="#494949" d="M345.734,140.37c-3.883-6.397-8.654-12.604-10.852-19.581
			c-2.502-7.937-4.577-16.973-3.251-24.932c2.249-13.492,12.598-20.193,26.608-21.473c-76.655-71.145-197.115-45.676-241.501,31.624
			c17.084-0.791,33.399-1.826,49.725-2.046c3.088-0.042,8.201,2.565,8.928,4.988c1.624,5.41-2.923,7.296-7.759,7.67
			c-5.084,0.396-10.171,0.776-16.075,1.228c19.49,58.066,38.69,115.27,58.339,173.806c1.402-2.291,1.98-2.937,2.233-3.692
			c10.789-32.246,21.641-64.475,32.157-96.812c0.96-2.949,0.482-6.855-0.57-9.887c-5.564-16.059-12.229-31.771-17.106-48.024
			c-3.34-11.129-7.765-18.327-20.917-17.038c-2.241,0.219-4.975-4.602-7.482-7.092c3.036-1.81,6.047-5.143,9.108-5.189
			c26.783-0.408,53.578-0.406,80.359,0.024c3.068,0.049,6.082,3.471,9.121,5.329c-2.658,2.427-4.949,6.069-8.057,7.007
			c-4.985,1.503-10.512,1.219-16.477,1.75c19.511,58.038,38.621,114.89,58.412,173.768c8.849-29.392,17.083-56.381,25.084-83.438
			C362.908,184.202,358.651,161.645,345.734,140.37z"/>
		<path fill-rule="evenodd" clip-rule="evenodd" fill="#494949" d="M205.935,344.335c-0.359,1.038-0.379,2.201-0.657,3.93
			c33.038,9.158,65.433,8.497,98.594-2.674c-16.93-46.371-33.481-91.704-50.657-138.749
			C236.999,253.965,221.451,299.144,205.935,344.335z"/>
		<path fill-rule="evenodd" clip-rule="evenodd" fill="#494949" d="M180.403,338.058c-25.603-70.23-50.868-139.546-76.318-209.358
			C69.655,195.952,95.847,298.564,180.403,338.058z"/>
		<path fill-rule="evenodd" clip-rule="evenodd" fill="#494949" d="M393.11,121.641c-1.054,11.697-0.322,24.713-3.677,36.571
			c-7.901,27.94-17.561,55.395-26.864,82.926c-10.111,29.922-20.625,59.71-30.966,89.558c48.58-28.798,75.277-71.3,79.529-127.167
			C413.554,171.73,402.585,127.698,393.11,121.641z"/>
	</g>
</g>
</svg>
