<?xml version="1.0" encoding="UTF-8" standalone="no"?>
<svg
   width="128"
   height="128"
   viewBox="0 0 128 128"
   version="1.1"
   id="svg1"
   sodipodi:docname="q.svg"
   inkscape:version="1.3.2 (091e20e, 2023-11-25, custom)"
   xmlns:inkscape="http://www.inkscape.org/namespaces/inkscape"
   xmlns:sodipodi="http://sodipodi.sourceforge.net/DTD/sodipodi-0.dtd"
   xmlns="http://www.w3.org/2000/svg"
   xmlns:svg="http://www.w3.org/2000/svg"
   xmlns:rdf="http://www.w3.org/1999/02/22-rdf-syntax-ns#"
   xmlns:cc="http://creativecommons.org/ns#"
   xmlns:dc="http://purl.org/dc/elements/1.1/">
  <defs
     id="defs1" />
  <sodipodi:namedview
     id="namedview1"
     pagecolor="#ffffff"
     bordercolor="#111111"
     borderopacity="1"
     inkscape:showpageshadow="0"
     inkscape:pageopacity="0"
     inkscape:pagecheckerboard="1"
     inkscape:deskcolor="#d1d1d1"
     inkscape:zoom="4.2592135"
     inkscape:cx="73.135568"
     inkscape:cy="62.570237"
     inkscape:window-width="1920"
     inkscape:window-height="1009"
     inkscape:window-x="-8"
     inkscape:window-y="-8"
     inkscape:window-maximized="1"
     inkscape:current-layer="svg1" />
  <title
     id="title1">file_type_q</title>
  <path
     d="M 84.188482,128 V 82.130356 A 34.227476,34.227476 0 0 1 72.413404,91.7936 33.193711,33.193711 0 0 1 57.207209,95.357629 32.27809,32.27809 0 0 1 31.619057,83.695772 54.548347,54.548347 0 0 1 19.740602,46.652516 49.389366,49.389366 0 0 1 30.885576,12.316741 35.694438,35.694438 0 0 1 58.501877,0.01001217 30.845587,30.845587 0 0 1 74.25449,3.8743253 36.078408,36.078408 0 0 1 86.068951,15.555873 V 2.0726201 H 108.34905 V 128 Z m 0.772863,-81.431169 a 31.958115,31.958115 0 0 0 -5.710322,-20.832832 17.889062,17.889062 0 0 0 -14.30042,-6.827773 18.420713,18.420713 0 0 0 -14.645008,6.955763 33.873042,33.873042 0 0 0 -5.90723,22.078273 33.311855,33.311855 0 0 0 5.670941,21.68938 17.687231,17.687231 0 0 0 14.019826,6.680092 18.637311,18.637311 0 0 0 14.600704,-7.472646 33.912423,33.912423 0 0 0 6.271509,-22.270257 z"
     style="fill:#1e78b3;stroke-width:4.92269"
     id="path1" />
  <metadata
     id="metadata1">
    <rdf:RDF>
      <cc:Work
         rdf:about="">
        <dc:title>file_type_q</dc:title>
      </cc:Work>
    </rdf:RDF>
  </metadata>
</svg>
