<svg viewBox="0 0 128 128" xmlns="http://www.w3.org/2000/svg"><path d="M0 0v128h128V0H0zm56.746 21.266c10.052 0 18.894 1.998 24.014 5.12h-9.371a61.44 61.44 0 00-14.643-1.706c-14.643 0-25.601 4.488-25.601 8.533 0 4.045 10.958 8.533 25.601 8.533h2.186l-1.809 3.414h-.377c-9.967 0-20.38-2.084-25.601-6.078v7.885c.034 1.16 1.06 2.492 2.886 3.67 4.028 2.577 11.314 4.316 19.387 4.709l-.086 3.414c-8.209-.376-15.442-2.033-20.152-4.678a4.403 4.403 0 00-2.035 3.074c0 4.045 10.958 8.533 25.601 8.533 1.69 0 3.276-.05 4.983-.17l-.97 3.415c-1.313.12-2.665.119-4.013.119-9.967 0-20.38-2.083-25.601-6.076v7.902c.017 1.143 1.043 2.456 2.886 3.668 4.625 2.935 13.328 4.795 22.715 4.795h1.143l-.953 3.414h-.19c-9.523 0-18.207-1.773-23.566-4.76a4.403 4.403 0 00-2.035 3.07c0 3.857 10.104 8.21 23.894 8.534h1.707a72.073 72.073 0 009.149-.647c9.83-1.382 16.45-4.781 16.45-7.904a4.403 4.403 0 00-2.029-3.072 27.7 27.7 0 01-5.837 2.373l11.28-11.264v1.637a6.93 6.93 0 01-2.577 5.119 6.827 6.827 0 012.578 5.12v13.653a1.28 1.28 0 010 .362c-.461 7.526-15.139 11.552-29.014 11.552s-28.553-4.027-29.014-11.52a2.133 2.133 0 010-.357V81a6.946 6.946 0 012.577-5.121 6.93 6.93 0 01-2.577-5.12V57.106a6.946 6.946 0 012.577-5.119 6.93 6.93 0 01-2.577-5.037V33.213c0-7.782 14.951-11.947 29.014-11.947zm12.799 8.517h22.187a1.707 1.707 0 011.707 2.233l-4.367 13.127h9.573a1.707 1.707 0 011.23 2.882L62.328 87.28a1.707 1.707 0 01-1.316.58 1.707 1.707 0 01-.854-.24 1.707 1.707 0 01-.783-1.963l9.59-31.93h-9.66a1.707 1.707 0 01-1.516-2.527l10.24-20.48a1.707 1.707 0 011.516-.936zm.957 3.43l-8.43 17.1h9.18a1.707 1.707 0 011.367.683 1.707 1.707 0 01.274 1.5l-8.211 27.307 29.884-31.23h-7.955a1.707 1.707 0 01-1.705-2.253l4.37-13.107H70.501zM36.266 44.832a2.133 2.133 0 012.132 2.135 2.133 2.133 0 01-2.132 2.133 2.133 2.133 0 01-2.133-2.133 2.133 2.133 0 012.133-2.135zm0 23.895a2.133 2.133 0 012.132 2.132 2.133 2.133 0 01-2.132 2.133 2.133 2.133 0 01-2.133-2.133 2.133 2.133 0 012.133-2.132zm-5.121 18.109v7.85c0 4.078 10.958 8.533 25.601 8.533 14.643 0 25.6-4.506 25.6-8.533v-7.85c-5.223 3.96-15.633 6.041-25.6 6.041-9.967 0-20.38-2.082-25.601-6.041zm5.12 5.783a2.133 2.133 0 012.133 2.133 2.133 2.133 0 01-2.132 2.135 2.133 2.133 0 01-2.133-2.135 2.133 2.133 0 012.133-2.133z"/></svg>
