<svg viewBox="0 0 128 128" xmlns="http://www.w3.org/2000/svg"><path fill="#5294cf" d="M80.686 128.083h1.558l25.429-12.713.423-.598V13.302l-.423-.6L82.243 0h-1.576l.02 128.083z"/><path fill="#1f5b98" d="M47.594 128.083h-1.58L20.607 115.37l-.515-.886L19.83 13.82l.777-1.118L46.014 0h1.6z"/><path fill="#2d72b8" d="M46.06 0h36.16v128.083H46.06z"/><path fill="#1a476f" d="M120.983 61.164l-.859-.19-12.269-1.144-.183.09-25.451-1.017H46.059L20.607 59.92V40.517l-.027.015.027-.057 25.452-5.896h36.162l25.451 5.896 9.357 4.972V42.25l3.954-.432-.409-.798-12.52-8.95-.382.124-25.451-7.885H46.059l-25.452 7.885V12.702L7.297 28.29v13.615l.103-.075 3.851.42v3.262l-3.954 2.116v13.546l.103-.01 3.851.057v5.685l-3.323.05-.631-.06v13.552l3.954 2.125v3.3l-3.788.418-.166-.124v13.612l13.31 15.591V95.88l25.452 7.884h36.162l25.527-7.907.339.149 12.355-8.818.541-.879-3.954-.436V82.64l-.518-.206-8.457 4.557-.306.639-25.527 5.862v.007H46.059v-.007l-25.452-5.887V68.13l25.452 1.014v.025h36.162l25.451-1.039.58.267 11.892-1.024.839-.41-3.954-.057v-5.685z"/><path fill="#2d72b8" d="M107.673 95.88v19.49l13.31-15.59V86.255l-13.233 9.6-.077.024zm0-8.233l.077-.018 13.233-7.116V66.906l-13.31 1.224zm.077-47.154l-.077-.018V59.92l13.31 1.244v-13.6zm0-8.223l13.233 9.548V28.294l-13.31-15.592v19.492l.077.026z"/></svg>
