<svg xmlns="http://www.w3.org/2000/svg" viewBox="0 0 128 128"><path fill="#343741" d="M21.9 56.8c-2.1-2.5-5.2-4.1-8.7-4.1-4.4 0-8.2 2.6-10 6.3h14.7c1.1 0 2.1-.4 2.9-1 .4-.4.8-.8 1.1-1.2"/><path fill="#343741" d="M2 64c0 1 .1 2 .4 2.9h13.8c1.6 0 2.9-1.3 2.9-2.9s-1.3-2.9-2.9-2.9H2.4C2.1 62 2 63 2 64"/><path fill="#343741" d="M21.9 71.2c-2.1 2.5-5.2 4.1-8.7 4.1-4.4 0-8.2-2.6-10-6.3h14.7c1.1 0 2.1.4 2.9 1 .4.4.8.8 1.1 1.2"/><path fill="#343741" d="M38.3 70v-2h-5.7v-2.9h4.3v-2h-4.3v-2.8h5.7v-2h-7.9V70h7.9zm4 0V58.2h-2.1V70h2.1zm4.4.2c1 0 1.9-.4 2.3-1h.1v.8h2v-5.1c0-2.1-1.2-3.2-3.3-3.2-1.8 0-3.1.8-3.6 2.3l2.1.2c.2-.4.6-.8 1.4-.8.9 0 1.4.5 1.4 1.4v.6c-.3-.2-1-.3-1.6-.3-2.1 0-3.4 1-3.4 2.7-.2 1.4 1 2.4 2.6 2.4zm.6-1.6c-.8 0-1.3-.4-1.3-1s.6-1 1.5-1c.6 0 1.2.2 1.4.4v.5c.1.5-.7 1.1-1.6 1.1zm8.5 1.7c2 0 3.3-1.1 3.3-2.7 0-3.3-4.3-1.9-4.3-3.5 0-.5.4-.8 1-.8s1.1.4 1.2.9l2-.4c-.3-1.2-1.6-2.1-3.2-2.1-1.8 0-3.1 1-3.1 2.6 0 3.3 4.3 1.9 4.3 3.5 0 .6-.4 1-1.1 1-.7 0-1.4-.4-1.5-1l-2 .2c.4 1.4 1.7 2.3 3.4 2.3zm8.1-.1c.6 0 1.1-.1 1.4-.2l-.2-1.7c-.2.1-.4.2-.7.2-.8 0-1.2-.3-1.2-1.4v-3.3h2.1V62h-2.1v-2.6l-2.1.4v2.1h-1.4v1.8h1.4v3.6c0 2.2 1.2 2.9 2.8 2.9zm4.7-10v-2h-2.1v2h2.1zm0 9.8v-8.1h-2.1V70h2.1zm5.5.3c1.8 0 3.1-.9 3.6-2.6l-2-.5c-.2.8-.8 1.3-1.7 1.3-1.3 0-2-1-2-2.4s.7-2.4 2-2.4c.9 0 1.5.5 1.7 1.2l2-.3c-.5-1.8-1.8-2.8-3.8-2.8-2.2 0-4 1.6-4 4.3.1 2.4 1.8 4.2 4.2 4.2zm7.9 0c2 0 3.3-1.1 3.3-2.7 0-3.3-4.3-1.9-4.3-3.5 0-.5.4-.8 1-.8s1.1.4 1.2.9l2-.4c-.3-1.2-1.6-2.1-3.2-2.1-1.8 0-3.1 1-3.1 2.6 0 3.3 4.3 1.9 4.3 3.5 0 .6-.4 1-1.1 1-.7 0-1.4-.4-1.5-1l-2 .2c.4 1.4 1.7 2.3 3.4 2.3zm8.5 0c1.6 0 2.8-.8 3.5-2.3l-1.8-.5c-.3.6-.9 1-1.7 1-1.1 0-1.9-.8-2.1-1.9h5.9v-.5c0-2.8-1.8-4.4-4-4.4-2.3 0-4 1.9-4 4.3-.1 2.5 1.7 4.3 4.2 4.3zm1.6-5.2h-3.7c.2-1.2.9-1.8 1.9-1.8.9 0 1.7.6 1.8 1.8zm6.1 5.1c1 0 1.9-.4 2.3-1h.1v.8h2v-5.1c0-2.1-1.2-3.2-3.3-3.2-1.8 0-3.1.8-3.6 2.3l2.1.2c.2-.4.6-.8 1.4-.8.9 0 1.4.5 1.4 1.4v.6c-.3-.2-1-.3-1.6-.3-2.1 0-3.4 1-3.4 2.7-.2 1.4 1 2.4 2.6 2.4zm.6-1.6c-.8 0-1.3-.4-1.3-1s.6-1 1.5-1c.6 0 1.2.2 1.4.4v.5c.1.5-.7 1.1-1.6 1.1zm7.7 1.4v-3.6c0-1.9.9-2.5 2-2.5.2 0 .4 0 .6.1v-2c-.1-.1-.3-.1-.6-.1-.9 0-1.7.5-2.1 1.4V62h-2v8h2.1zm7.4.3c1.8 0 3.1-.9 3.6-2.6l-2-.5c-.2.8-.8 1.3-1.7 1.3-1.3 0-2-1-2-2.4s.7-2.4 2-2.4c.9 0 1.5.5 1.7 1.2l2-.3c-.5-1.8-1.8-2.8-3.8-2.8-2.2 0-4 1.6-4 4.3 0 2.4 1.7 4.2 4.2 4.2zm7-.3v-4.6c0-1.1.8-1.8 1.7-1.8.9 0 1.3.6 1.3 1.7V70h2.1v-5.2c0-2-1.1-3.2-2.8-3.2-1 0-1.9.5-2.3 1.2v-4.7h-2.1V70h2.1z"/></svg>
