<svg xmlns="http://www.w3.org/2000/svg" viewBox="0 0 128 128"><path fill="#ffbe00" d="m85.658 85.266-17.346.422-6.55 15.01-17.02 4.443-10.667 9.726h85.82c4.441 0 8.073-3.631 8.073-8.073V64.16l-30.444 7.587Zm-62.541 1.265L8.689 98.916c-.13-.876-.486-1.783-1.102-2.53L0 102.775c1.621 1.913 4.312 2.27 6.387 1.005l14.103-6.387Zm83.809-43.542 1.75 4.604c2.692-.681 6.874-3.664 9.792-5.966-.097.81-.065 1.621.227 2.4L128 40.588a4.983 4.983 0 0 0-6.387-2.917c-.065.032-.162.064-.227.13l.032-.033zm16.049 7.78h-.065l-17.054-1.458-3.89-10.213V28.27c.778.422 1.62.681 2.56.681 2.822 0 5.123-2.172 5.383-4.895l4.085-2.691-.195-5.48c-.032-.55-.454-1.005-1.005-1.005l-5.09-.065c-1.07-1.491-3.047-2.14-4.798-1.329L91.72 18.737c.033.033.033.065.033.098a4.33 4.33 0 0 0 1.62 1.783c-13.649 7.035-19.42 16.567-19.42 16.567L21.82 65.262c-3.048 1.621-6.874.487-8.527-2.561-1.621-3.048-.487-6.873 2.561-8.527l14.784-7.943c3.761-2.01 5.933-5.771 6.225-9.694l-8.85 4.766-14.785 7.943C7.457 52.358 5.285 59.588 8.365 65.36c2.14 3.987 6.257 6.257 10.504 6.257 1.913 0 3.826-.454 5.61-1.427l6.678-3.598a14.88 14.88 0 0 0 .778 8.105c.357.908.584 1.459.584 1.459 2.367 5.122-.746 9.143-4.831 9.143H26.39l-4.701 20.425a4.813 4.813 0 0 0-2.367-1.361l-2.334 9.629c2.367.55 4.701-.649 5.641-2.789L33.264 92.14c13.455-1.297 20.523-10.408 20.199-23.247 13.941.843 32.486-7.91 40.754-19.874 6.257 7.943 18.123 6.841 23.376 4.83l1.005-.356c-.39.681-.584 1.492-.584 2.367l9.921-.097c-.032-2.853-2.237-5.026-4.96-4.993zM30.573 32.712c.487.908.714 1.88.746 2.853l5.22-2.82a10.975 10.975 0 0 0-1.037-2.691l-.26-.52-4.928 2.66zm-1.912-3.534 4.928-2.658-.649-1.168c-.713-1.361-2.431-1.88-3.793-1.167-1.362.714-1.88 2.432-1.167 3.794z"/><path fill="#0f2647" d="M104.267 16.111c-.875 0-1.588.714-1.588 1.621 0 .876.713 1.621 1.588 1.621.876 0 1.622-.713 1.622-1.62 0-.908-.746-1.622-1.622-1.622zM94.93 28.075c-.389.227-.616.519-.616.519s.68.778 1.491.778 1.492-.778 1.492-.778-.227-.292-.616-.52a3.546 3.546 0 0 0 1.005-.615s-.39-.39-1.005-.616c.389-.227.616-.519.616-.519s-.681-.778-1.492-.778c-.81 0-1.49.778-1.49.778s.226.292.615.519c-.583.227-1.005.616-1.005.616s.422.421 1.005.616zm-5.414 1.978s-.681-.779-1.492-.779c-.843 0-1.491.779-1.491.779s.227.291.616.518c-.584.227-1.005.616-1.005.616s.389.39 1.005.616c-.39.227-.616.519-.616.519s.68.778 1.491.778c.843 0 1.492-.778 1.492-.778s-.227-.292-.616-.519c.583-.227 1.005-.616 1.005-.616s-.39-.389-1.005-.616c.389-.26.616-.518.616-.518zm7.132 7.586s-.227-.292-.616-.519a3.546 3.546 0 0 0 1.005-.616s-.389-.389-1.005-.616c.39-.227.616-.518.616-.518s-.68-.778-1.491-.778c-.81 0-1.491.778-1.491.778s.227.291.616.518c-.584.227-1.005.616-1.005.616s.389.39 1.005.616c-.39.227-.616.52-.616.52s.68.777 1.491.777c.81 0 1.491-.778 1.491-.778zm-8.105 2.691c.39-.227.616-.519.616-.519s-.68-.778-1.491-.778c-.81 0-1.492.778-1.492.778s.227.292.616.52a3.546 3.546 0 0 0-1.005.615s.39.39 1.005.616c-.389.227-.616.519-.616.519s.681.778 1.492.778c.81 0 1.491-.778 1.491-.778s-.227-.292-.616-.519c.584-.227 1.005-.616 1.005-.616s-.389-.356-1.005-.616zm-7.684-2.334c.39-.227.616-.519.616-.519s-.68-.778-1.491-.778c-.843 0-1.492.778-1.492.778s.227.292.616.519c-.583.227-1.005.616-1.005.616s.39.389 1.005.616c-.389.227-.616.519-.616.519s.681.778 1.492.778c.843 0 1.491-.778 1.491-.778s-.227-.292-.616-.52c.584-.226 1.005-.615 1.005-.615s-.389-.357-1.005-.616zm-2.95 9.11s-.227-.292-.616-.519c.583-.226 1.005-.616 1.005-.616s-.39-.389-1.005-.616c.389-.226.616-.518.616-.518s-.681-.778-1.492-.778c-.843 0-1.491.778-1.491.778s.227.292.616.518c-.584.227-1.005.616-1.005.616s.389.39 1.005.616c-.389.227-.616.52-.616.52s.68.777 1.491.777 1.492-.778 1.492-.778zm-13.163 1.33s.68.778 1.491.778c.81 0 1.491-.779 1.491-.779s-.226-.291-.616-.518c.584-.227 1.006-.616 1.006-.616s-.39-.39-1.006-.616c.39-.227.616-.519.616-.519s-.68-.778-1.49-.778c-.811 0-1.492.778-1.492.778s.227.292.616.519c-.584.227-1.005.616-1.005.616s.389.389 1.005.616a3.38 3.38 0 0 0-.616.518zm7.23 4.636c.389-.227.616-.519.616-.519s-.681-.778-1.492-.778c-.843 0-1.491.778-1.491.778s.227.292.616.519a3.546 3.546 0 0 0-1.005.616s.389.389 1.005.616c-.39.227-.616.519-.616.519s.68.778 1.491.778c.843 0 1.492-.778 1.492-.778s-.227-.292-.616-.52a3.546 3.546 0 0 0 1.005-.615s-.422-.422-1.005-.616zm7.943 1.718c.389-.227.616-.519.616-.519s-.68-.778-1.491-.778c-.843 0-1.492.778-1.492.778s.227.292.616.52a3.545 3.545 0 0 0-1.005.615s.39.39 1.005.616c-.389.227-.616.519-.616.519s.681.778 1.492.778c.843 0 1.491-.778 1.491-.778s-.227-.292-.616-.519c.584-.227 1.005-.616 1.005-.616s-.421-.357-1.005-.616zm6.484-6.257c.39-.227.616-.519.616-.519s-.68-.778-1.491-.778c-.843 0-1.492.778-1.492.778s.227.292.616.519c-.583.227-1.005.616-1.005.616s.39.389 1.005.616c-.389.227-.616.519-.616.519s.681.778 1.492.778c.843 0 1.491-.778 1.491-.778s-.227-.292-.616-.52c.584-.226 1.005-.615 1.005-.615s-.421-.39-1.005-.616zm11.607-5.22c.39-.227.616-.519.616-.519s-.68-.778-1.491-.778c-.81 0-1.492.778-1.492.778s.227.292.616.519c-.583.227-1.005.616-1.005.616s.39.389 1.005.616c-.389.227-.616.519-.616.519s.681.778 1.492.778c.81 0 1.491-.778 1.491-.778s-.227-.292-.616-.52c.584-.226 1.005-.615 1.005-.615s-.421-.422-1.005-.616zm-38.128 9.856c.39-.227.616-.519.616-.519s-.68-.778-1.49-.778c-.811 0-1.492.778-1.492.778s.227.292.616.519c-.584.227-1.005.616-1.005.616s.389.39 1.005.616c-.39.227-.616.519-.616.519s.68.778 1.491.778c.81 0 1.491-.778 1.491-.778s-.226-.292-.616-.519c.584-.227 1.006-.616 1.006-.616s-.422-.389-1.006-.616zm7.717 7.62c.389-.228.616-.52.616-.52s-.681-.778-1.492-.778c-.81 0-1.491.778-1.491.778s.227.292.616.52a3.546 3.546 0 0 0-1.005.615s.389.39 1.005.616c-.389.227-.616.519-.616.519s.68.778 1.491.778c.81 0 1.492-.778 1.492-.778s-.227-.292-.616-.519c.583-.227 1.005-.616 1.005-.616s-.39-.389-1.005-.616zm-9.856 1.393c.389-.227.616-.519.616-.519s-.681-.778-1.492-.778c-.843 0-1.491.778-1.491.778s.227.292.616.52c-.584.226-1.005.615-1.005.615s.389.39 1.005.616c-.39.227-.616.519-.616.519s.68.778 1.491.778c.843 0 1.492-.778 1.492-.778s-.227-.292-.616-.519c.583-.227 1.005-.616 1.005-.616s-.39-.389-1.005-.616zm-8.04-5.674c.388-.227.615-.518.615-.518s-.68-.778-1.491-.778c-.843 0-1.492.778-1.492.778s.227.291.616.518a3.546 3.546 0 0 0-1.005.616s.39.39 1.005.616c-.389.227-.616.52-.616.52s.681.777 1.492.777c.843 0 1.491-.778 1.491-.778s-.227-.292-.616-.519c.584-.226 1.005-.616 1.005-.616s-.389-.389-1.005-.616zm-11.413 7.36c-.39.227-.616.519-.616.519s.68.778 1.491.778c.81 0 1.492-.778 1.492-.778s-.227-.292-.616-.519c.583-.227 1.005-.616 1.005-.616s-.39-.389-1.005-.616c.389-.227.616-.519.616-.519s-.681-.778-1.492-.778c-.81 0-1.491.778-1.491.778s.227.292.616.52c-.584.226-1.005.615-1.005.615s.421.357 1.005.616zm10.277 2.724c.39-.227.616-.52.616-.52s-.68-.777-1.491-.777c-.843 0-1.491.778-1.491.778s.227.292.616.519c-.584.226-1.005.616-1.005.616s.389.389 1.005.616c-.39.226-.616.518-.616.518s.68.778 1.491.778c.843 0 1.491-.778 1.491-.778s-.227-.292-.616-.518c.584-.227 1.005-.616 1.005-.616s-.421-.422-1.005-.616zm-1.686 8.364c.39-.227.616-.518.616-.518s-.68-.779-1.49-.779c-.844 0-1.492.779-1.492.779s.227.291.616.518c-.584.227-1.005.616-1.005.616s.389.39 1.005.616c-.39.227-.616.519-.616.519s.68.778 1.491.778c.843 0 1.491-.778 1.491-.778s-.226-.292-.616-.519a3.546 3.546 0 0 0 1.006-.616s-.422-.389-1.006-.616zm-7.813-1.232s-.227-.292-.616-.518c.583-.227 1.005-.616 1.005-.616s-.39-.39-1.005-.617c.389-.226.616-.518.616-.518s-.681-.778-1.492-.778c-.842 0-1.49.778-1.49.778s.226.292.615.518c-.583.227-1.005.617-1.005.617s.39.389 1.005.616c-.389.226-.616.518-.616.518s.681.778 1.491.778c.779.033 1.492-.778 1.492-.778zm2.01 7.911c.39-.227.616-.519.616-.519s-.68-.778-1.491-.778c-.843 0-1.492.778-1.492.778s.227.292.616.52c-.583.226-1.005.615-1.005.615s.39.39 1.005.616c-.389.227-.616.519-.616.519s.681.778 1.492.778c.843 0 1.491-.778 1.491-.778s-.227-.292-.616-.519c.584-.227 1.005-.616 1.005-.616s-.389-.389-1.005-.616z"/></svg>
