<svg xmlns="http://www.w3.org/2000/svg" viewBox="0 0 128 128"><defs><radialGradient id="poetry-original-a" cx="438.3" cy="639.01" fx="438.3" fy="639.01" r="569.94" gradientTransform="translate(4.213 5.333) scale(.21333)"><stop offset="0" stop-color="#6877ec"/><stop offset=".6" stop-color="#5362cf"/><stop offset="1" stop-color="#4352b9"/></radialGradient><radialGradient id="poetry-original-b" cx="65.64" cy="-16.21" fx="65.64" fy="-16.21" r="746.46" gradientTransform="translate(4.213 5.333) scale(.21333)"><stop offset="0" stop-color="#00d5ff"/><stop offset=".38" stop-color="#00b8eb"/><stop offset="1" stop-color="#0080c5"/></radialGradient><radialGradient id="poetry-original-f" cx="259.68" cy="-34.71" fx="259.68" fy="-34.71" r="431.37" gradientTransform="translate(4.213 5.333) scale(.21333)"><stop offset="0" stop-color="#fff"/><stop offset="1"/></radialGradient><linearGradient id="poetry-original-c" gradientUnits="userSpaceOnUse" x1="74.77" y1="67.3" x2="277.23" y2="512.72" gradientTransform="translate(4.213 5.333) scale(.21333)"><stop offset="0" stop-color="#294ca7"/><stop offset=".48" stop-color="#96a7d4"/><stop offset=".84" stop-color="#e1e6f3"/><stop offset="1" stop-color="#fff"/></linearGradient><linearGradient id="poetry-original-d" gradientUnits="userSpaceOnUse" x1="-228.74" y1="-144.29" x2="451" y2="651.89" gradientTransform="translate(4.213 5.333) scale(.21333)"><stop offset="0" stop-color="#6877ec"/><stop offset=".29" stop-color="#97a1f2"/><stop offset=".77" stop-color="#e2e4fb"/><stop offset="1" stop-color="#fff"/></linearGradient><linearGradient id="poetry-original-e" gradientUnits="userSpaceOnUse" x1="-151.22" y1="-285.9" x2="450.08" y2="430.63" gradientTransform="translate(4.213 5.333) scale(.21333)"><stop offset="0" stop-color="#8397cc"/><stop offset=".15" stop-color="#97a8d4"/><stop offset=".73" stop-color="#e2e6f3"/><stop offset="1" stop-color="#fff"/></linearGradient></defs><path fill="url(#poetry-original-a)" d="M40.07 124.8a121.72 121.72 0 0062.242-33.366L16.216 5.332v95.61zm0 0"/><path fill="url(#poetry-original-b)" d="M16.215 100.941c52.805 0 95.61-42.804 95.61-95.609h-95.61zm0 0"/><path fill="url(#poetry-original-c)" style="mix-blend-mode:multiply" d="M16.215 100.941l3.68 3.68c25.933-.95 49.363-11.875 66.558-29.062l-2.621-2.618a95.294 95.294 0 01-67.617 28zm0 0"/><path fill="url(#poetry-original-d)" style="mix-blend-mode:multiply" d="M40.07 124.8a121.72 121.72 0 0062.242-33.366L16.216 5.332v95.61zm0 0"/><path fill="url(#poetry-original-e)" style="mix-blend-mode:multiply" d="M102.313 91.434L16.215 5.332l78.27 93.254a122.174 122.174 0 007.828-7.152zm0 0"/><path fill="url(#poetry-original-f)" style="mix-blend-mode:screen" d="M16.215 5.332l67.605 67.61a98.72 98.72 0 001.782-1.837zm0 0"/></svg>
