<svg viewBox="0 0 128 128" xmlns="http://www.w3.org/2000/svg"><g clip-path="url(#a)"><path d="M106.794 107.72c3.632 0 4.382-3.749 4.382-5.766 0-2.018-.75-5.766-4.382-5.766-3.633 0-4.382 3.748-4.382 5.766 0 2.017.749 5.766 4.382 5.766Zm0-13.723c4.814 0 7.006 4.065 7.006 7.957 0 3.892-2.192 7.957-7.006 7.957-4.815 0-7.006-4.065-7.006-7.957 0-3.892 2.191-7.957 7.006-7.957Zm14.704 13.752c1.614 0 4.122-1.066 4.122-5.074 0-2.451-.403-6.4-4.065-6.4-3.92 0-4.122 3.719-4.122 5.651 0 3.315 1.297 5.823 4.065 5.823Zm6.545.518c0 2.164-.03 7.583-7.007 7.583-1.787 0-5.275-.49-5.766-4.497h2.538c.46 2.393 2.796 2.393 3.401 2.393 4.383 0 4.296-3.518 4.296-5.305v-.634c-.721 1.21-2.047 2.133-4.065 2.133-5.132 0-6.63-4.814-6.63-8.418 0-4.239 2.277-7.525 6.285-7.525 2.738 0 3.92 1.73 4.554 2.652v-2.22h2.394v13.838ZM96.04 88.807h2.537v20.701H96.04v-20.7Zm-8.217 18.913c3.633 0 4.382-3.749 4.382-5.766 0-2.018-.75-5.766-4.382-5.766-3.633 0-4.383 3.748-4.383 5.766 0 2.017.75 5.766 4.383 5.766Zm0-13.723c4.814 0 7.005 4.065 7.005 7.957 0 3.892-2.191 7.957-7.005 7.957-4.816 0-7.007-4.065-7.007-7.957 0-3.892 2.191-7.957 7.007-7.957Zm-11.706 15.511H73.58V94.429h2.393v2.51h.058c1.009-1.76 2.335-2.942 4.238-2.942.317 0 .46.029.663.087v2.623h-.952c-2.364 0-3.863 1.845-3.863 4.037v8.764ZM59.711 98.379h5.565c2.508 0 4.209-.922 4.209-3.719 0-2.624-1.788-3.46-4.094-3.46h-5.68v7.18Zm0 11.129h-2.796v-20.7h9.312c3.834 0 6.141 2.478 6.141 5.823 0 2.883-1.643 6.141-6.14 6.141h-6.516v8.736Zm-15.425-20.7h4.324v20.7h-4.324v-20.7Zm-27.448 0h4.612c2.653 11.329 2.913 12.77 3.287 15.135h.058c.374-2.162.692-4.267 2.883-15.135h4.584c2.422 11.358 2.624 12.454 3.085 15.135h.058c.345-1.96.691-3.748 3.373-15.135h4.382l-5.824 20.7h-4.152c-2.133-10.148-2.508-12.167-3.2-16.145h-.057c-.635 3.978-.98 5.477-3.2 16.145H22.69l-5.852-20.7ZM4.152 103.136c.028 1.153.605 3.344 4.382 3.344 2.047 0 4.324-.49 4.324-2.681 0-1.614-1.556-2.047-3.748-2.566l-2.22-.519C3.547 99.936.318 99.186.318 94.631c0-2.306 1.24-6.37 7.958-6.37 6.342 0 8.043 4.15 8.072 6.687h-4.152c-.115-.922-.46-3.113-4.238-3.113-1.643 0-3.604.605-3.604 2.478 0 1.615 1.327 1.962 2.191 2.163l5.046 1.24c2.825.692 5.42 1.845 5.42 5.564 0 6.228-6.343 6.775-8.16 6.775-7.552 0-8.85-4.353-8.85-6.919h4.152Z" fill="#231F20"/><g clip-path="url(#b)"><path d="M86.752 71.011c13.678-12.43 14.689-33.595 2.259-47.273C76.58 10.06 55.415 9.049 41.737 21.48 28.06 33.91 27.05 55.075 39.48 68.753 51.91 82.43 73.075 83.442 86.752 71.01Z" fill="url(#c)"/><path d="M73.66 23.08a23.39 23.39 0 0 0-15.538-5.59c-11.651 0-23.101 8.916-23.983 26.273-.956 18.645 11.354 30.745 28.685 30.745 25.655 0 39.852-23.378 23.968-48.736 11.165 25.338-1.26 41.304-17.297 41.304-13.006 0-22.971-8.727-22.971-24.729-.01-23.09 17.299-24.692 27.135-19.266Z" fill="url(#d)"/><path d="M80.262 32.896c-.7-2.247-1.542-6.665 1.515-9.227a8.914 8.914 0 0 0-9.188 3.667 21.907 21.907 0 0 0-17.904.026 8.914 8.914 0 0 0-9.199-3.693c3.13 2.63 2.176 7.183 1.468 9.377a25.14 25.14 0 0 0-6.373 16.843c0 5.197 3.347 11.103 4.004 19.015l4.226-3.661a28.07 28.07 0 0 0 14.85 3.425 28.067 28.067 0 0 0 14.849-3.426l4.228 3.662c.67-7.912 4.004-13.818 4.004-19.015a25.128 25.128 0 0 0-6.48-16.993Z" fill="url(#e)"/><path d="M51.63 74.613a3.874 3.874 0 0 1 1.084-2.828 3.875 3.875 0 0 1 6.66 2.828v.126a5.34 5.34 0 0 0 .823-5.825 5.34 5.34 0 0 0-5.033-3.046 5.34 5.34 0 0 0-4.78 3.43 5.34 5.34 0 0 0 1.274 5.743 2.826 2.826 0 0 1-.029-.428Z" fill="url(#f)"/><path d="M75.311 74.613a3.876 3.876 0 0 0-1.084-2.828 3.875 3.875 0 0 0-6.66 2.828v.126a5.34 5.34 0 0 1-.823-5.825 5.34 5.34 0 0 1 5.033-3.046 5.34 5.34 0 0 1 3.506 9.173 4 4 0 0 0 .028-.428Z" fill="url(#g)"/><path d="M45.95 51.983c-.315 1.594-2.32 2.096-2.32 2.096a3.25 3.25 0 0 1-1.354-2.813 7.002 7.002 0 0 0 1.06 4.286 6.997 6.997 0 0 0 2.615-3.569Zm3.973.806c-.315 1.594-2.323 2.096-2.323 2.096a3.251 3.251 0 0 1-1.353-2.826 7.001 7.001 0 0 0 1.061 4.286 6.994 6.994 0 0 0 2.615-3.556Zm-2.808 3.614c-.316 1.594-2.321 2.096-2.321 2.096a3.248 3.248 0 0 1-1.344-2.825 7.001 7.001 0 0 0 1.06 4.286 6.992 6.992 0 0 0 2.605-3.557Zm3.985.798c-.316 1.595-2.321 2.097-2.321 2.097a3.252 3.252 0 0 1-1.353-2.826 7.002 7.002 0 0 0 1.044 4.288 6.996 6.996 0 0 0 2.63-3.559Zm-2.802 3.677c-.315 1.594-2.323 2.096-2.323 2.096a3.252 3.252 0 0 1-1.35-2.825 7.002 7.002 0 0 0 1.058 4.285 6.994 6.994 0 0 0 2.615-3.556Zm5.584-7.293c-.316 1.594-2.323 2.096-2.323 2.096a3.248 3.248 0 0 1-1.35-2.826 7.004 7.004 0 0 0 1.058 4.286 6.997 6.997 0 0 0 2.615-3.556Zm27.471-1.602c.316 1.594 2.322 2.096 2.322 2.096a3.248 3.248 0 0 0 1.353-2.825 7.004 7.004 0 0 1-1.06 4.286 6.997 6.997 0 0 1-2.614-3.557Zm-3.972.806c.315 1.594 2.323 2.096 2.323 2.096a3.252 3.252 0 0 0 1.35-2.825 7.006 7.006 0 0 1-1.06 4.285 6.994 6.994 0 0 1-2.613-3.556Zm2.806 3.614c.316 1.594 2.322 2.096 2.322 2.096a3.25 3.25 0 0 0 1.353-2.825 7.002 7.002 0 0 1-1.06 4.286 6.994 6.994 0 0 1-2.614-3.557Zm-3.97.798c.315 1.595 2.32 2.097 2.32 2.097a3.249 3.249 0 0 0 1.351-2.826 6.999 6.999 0 0 1-1.059 4.286 6.997 6.997 0 0 1-2.612-3.557Zm2.789 3.677c.315 1.594 2.323 2.096 2.323 2.096a3.25 3.25 0 0 0 1.35-2.825 6.999 6.999 0 0 1-1.06 4.285 6.996 6.996 0 0 1-2.613-3.556Zm-5.586-7.293c.316 1.594 2.323 2.096 2.323 2.096a3.249 3.249 0 0 0 1.35-2.826 6.999 6.999 0 0 1-1.058 4.286 7 7 0 0 1-2.615-3.556Z" opacity=".53" fill="#231F20"/><path d="M53.104 50.764a9.122 9.122 0 1 0 0-18.243 9.122 9.122 0 0 0 0 18.243Z" fill="#fff"/><path d="M54.995 46.98a4.448 4.448 0 1 0 0-8.897 4.448 4.448 0 0 0 0 8.897Z" fill="#BDBFC1"/><path d="M54.995 45.378a2.847 2.847 0 1 0 0-5.693 2.847 2.847 0 0 0 0 5.693Z" fill="#231F20"/><path d="M53.735 42.383a.853.853 0 1 0 0-1.707.853.853 0 0 0 0 1.707Zm20.34 8.38a9.122 9.122 0 1 0 0-18.242 9.122 9.122 0 0 0 0 18.243Z" fill="#fff"/><path d="M75.966 46.98a4.448 4.448 0 1 0 0-8.897 4.448 4.448 0 0 0 0 8.897Z" fill="#BDBFC1"/><path d="M75.966 45.378a2.847 2.847 0 1 0 0-5.693 2.847 2.847 0 0 0 0 5.693Z" fill="#231F20"/><path d="M74.704 42.383a.853.853 0 0 0 .853-.853.853.853 0 1 0-1.706 0c0 .471.382.853.853.853Z" fill="#fff"/><path d="M63.543 59.441c0-3.375 5.156-8.158 5.156-11.682a5.156 5.156 0 0 0-8.76-3.574 5.156 5.156 0 0 0-1.55 3.574c0 3.524 5.154 8.307 5.154 11.682Z" fill="url(#h)"/></g></g><defs><radialGradient id="c" cx="0" cy="0" r="1" gradientUnits="userSpaceOnUse" gradientTransform="rotate(-42.27 72.697 -46.051) scale(43.7416)"><stop stop-color="#fff"/><stop offset=".181" stop-color="#FBFBFB"/><stop offset=".365" stop-color="#EFEFF0"/><stop offset=".552" stop-color="#DADBDC"/><stop offset=".738" stop-color="#BEBFC2"/><stop offset=".824" stop-color="#AEB0B3"/></radialGradient><radialGradient id="d" cx="0" cy="0" r="1" gradientUnits="userSpaceOnUse" gradientTransform="matrix(39.857 0 0 43.3519 38.609 38.245)"><stop stop-color="#FAFDFF"/><stop offset=".079" stop-color="#EEF5FA"/><stop offset=".22" stop-color="#CFDFEC"/><stop offset=".407" stop-color="#9DBBD5"/><stop offset=".631" stop-color="#588AB5"/><stop offset=".745" stop-color="#326FA4"/><stop offset=".799" stop-color="#2B6698"/><stop offset=".897" stop-color="#174E78"/><stop offset=".994" stop-color="#003152"/></radialGradient><radialGradient id="e" cx="0" cy="0" r="1" gradientUnits="userSpaceOnUse" gradientTransform="matrix(39.666 0 0 42.1253 52.87 36.972)"><stop stop-color="#FFD540"/><stop offset=".667" stop-color="#EC1C24"/><stop offset=".994" stop-color="#760000"/></radialGradient><radialGradient id="f" cx="0" cy="0" r="1" gradientUnits="userSpaceOnUse" gradientTransform="translate(55.368 70.454) scale(4.9792)"><stop stop-color="#DDDFE0"/><stop offset=".174" stop-color="#D9DBDC"/><stop offset=".351" stop-color="#CDCFD0"/><stop offset=".531" stop-color="#B8BABB"/><stop offset=".711" stop-color="#9C9E9F"/><stop offset=".891" stop-color="#78797B"/><stop offset="1" stop-color="#5E5F61"/></radialGradient><radialGradient id="g" cx="0" cy="0" r="1" gradientUnits="userSpaceOnUse" gradientTransform="translate(71.57 70.454) scale(4.9792)"><stop stop-color="#DDDFE0"/><stop offset=".174" stop-color="#D9DBDC"/><stop offset=".351" stop-color="#CDCFD0"/><stop offset=".531" stop-color="#B8BABB"/><stop offset=".711" stop-color="#9C9E9F"/><stop offset=".891" stop-color="#78797B"/><stop offset="1" stop-color="#5E5F61"/></radialGradient><radialGradient id="h" cx="0" cy="0" r="1" gradientUnits="userSpaceOnUse" gradientTransform="translate(62.893 47.805) scale(6.423)"><stop stop-color="#DDDFE0"/><stop offset=".174" stop-color="#D9DBDC"/><stop offset=".351" stop-color="#CDCFD0"/><stop offset=".531" stop-color="#B8BABB"/><stop offset=".711" stop-color="#9C9E9F"/><stop offset=".891" stop-color="#78797B"/><stop offset="1" stop-color="#5E5F61"/></radialGradient><clipPath id="a"><path fill="#fff" d="M0 0h128v128H0z"/></clipPath><clipPath id="b"><path fill="#fff" d="M26 8h76.492v76.492H26z"/></clipPath></defs></svg>