<svg xmlns="http://www.w3.org/2000/svg" viewBox="0 0 128 128"><path fill="#231f20" d="M106.758 107.39c3.63 0 4.38-3.747 4.38-5.763 0-2.018-.75-5.764-4.38-5.764-3.632 0-4.38 3.746-4.38 5.764 0 2.016.748 5.764 4.38 5.764zm0-13.718c4.812 0 7.004 4.064 7.004 7.955 0 3.89-2.192 7.954-7.004 7.954-4.813 0-7.004-4.064-7.004-7.954 0-3.891 2.19-7.955 7.004-7.955zm14.7 13.748c1.613 0 4.12-1.066 4.12-5.072 0-2.45-.403-6.398-4.064-6.398-3.919 0-4.12 3.717-4.12 5.649 0 3.314 1.296 5.82 4.063 5.82zm6.542.518c0 2.163-.03 7.58-7.005 7.58-1.786 0-5.273-.49-5.764-4.495h2.537c.46 2.392 2.795 2.392 3.4 2.392 4.382 0 4.295-3.517 4.295-5.303v-.634c-.72 1.21-2.046 2.132-4.064 2.132-5.13 0-6.628-4.812-6.628-8.415 0-4.238 2.277-7.523 6.283-7.523 2.737 0 3.919 1.73 4.553 2.652v-2.22H128zM96.007 88.484h2.537v20.694h-2.537V88.485zm-8.214 18.907c3.632 0 4.38-3.748 4.38-5.764 0-2.018-.749-5.764-4.38-5.764-3.632 0-4.381 3.746-4.381 5.764 0 2.016.75 5.764 4.381 5.764zm0-13.719c4.813 0 7.003 4.064 7.003 7.955 0 3.89-2.19 7.954-7.003 7.954-4.814 0-7.005-4.064-7.005-7.954 0-3.891 2.19-7.955 7.005-7.955zm-11.702 15.506h-2.536V94.104h2.392v2.51h.058c1.009-1.76 2.334-2.942 4.237-2.942.317 0 .46.03.662.087v2.622h-.951c-2.363 0-3.862 1.845-3.862 4.036zm-16.4-11.125h5.563c2.507 0 4.207-.922 4.207-3.718 0-2.623-1.787-3.459-4.092-3.459H59.69v7.178zm0 11.125h-2.796V88.485h9.31c3.832 0 6.138 2.477 6.138 5.821 0 2.882-1.642 6.14-6.138 6.14h-6.514v8.732zM44.27 88.485h4.322v20.693H44.27zm-27.44 0h4.611c2.652 11.325 2.912 12.766 3.286 15.13h.058c.374-2.161.692-4.265 2.882-15.13h4.582c2.422 11.354 2.624 12.45 3.084 15.13h.058c.345-1.96.691-3.747 3.372-15.13h4.38l-5.821 20.693h-4.15c-2.133-10.144-2.508-12.163-3.2-16.14h-.057c-.635 3.977-.98 5.476-3.199 16.14h-4.035zM4.15 102.808c.028 1.153.604 3.343 4.38 3.343 2.047 0 4.323-.49 4.323-2.68 0-1.613-1.556-2.046-3.747-2.565l-2.22-.519c-3.341-.778-6.57-1.527-6.57-6.08 0-2.306 1.24-6.369 7.956-6.369 6.34 0 8.04 4.149 8.07 6.685H12.19c-.115-.922-.46-3.112-4.237-3.112-1.642 0-3.602.605-3.602 2.477 0 1.615 1.326 1.962 2.19 2.163l5.044 1.24c2.824.69 5.418 1.844 5.418 5.561 0 6.226-6.34 6.773-8.157 6.773-7.55 0-8.847-4.351-8.847-6.917h4.15z"/><path fill="url(#a)" d="M86.723 70.694c13.673-12.426 14.684-33.584 2.258-47.258C76.554 9.763 55.396 8.752 41.722 21.18 28.05 33.605 27.04 54.763 39.466 68.437 51.892 82.109 73.05 83.12 86.723 70.693z"/><path fill="url(#b)" d="M73.635 22.779a23.382 23.382 0 0 0-15.533-5.589c-11.647 0-23.093 8.914-23.975 26.265-.956 18.639 11.35 30.735 28.675 30.735 25.647 0 39.84-23.37 23.96-48.72 11.162 25.33-1.26 41.29-17.29 41.29-13.003 0-22.964-8.724-22.964-24.72-.01-23.083 17.293-24.685 27.126-19.26z"/><path fill="url(#c)" d="M80.235 32.591c-.7-2.246-1.542-6.662 1.514-9.224a8.911 8.911 0 0 0-9.185 3.666 21.9 21.9 0 0 0-17.898.026 8.911 8.911 0 0 0-9.196-3.692c3.13 2.63 2.175 7.181 1.468 9.374a25.132 25.132 0 0 0-6.371 16.838c0 5.195 3.346 11.1 4.002 19.009l4.225-3.66a28.06 28.06 0 0 0 14.845 3.424 28.058 28.058 0 0 0 14.844-3.425l4.227 3.66c.67-7.909 4.003-13.813 4.003-19.008a25.12 25.12 0 0 0-6.478-16.988z"/><path fill="url(#d)" d="M51.612 74.295a3.873 3.873 0 0 1 1.084-2.827 3.874 3.874 0 0 1 6.658 2.827v.126a5.338 5.338 0 0 0 .822-5.823 5.338 5.338 0 0 0-5.031-3.045 5.338 5.338 0 0 0-4.779 3.428 5.338 5.338 0 0 0 1.274 5.742 2.825 2.825 0 0 1-.029-.428z"/><path fill="url(#e)" d="M75.285 74.295a3.875 3.875 0 0 0-1.083-2.827 3.874 3.874 0 0 0-6.658 2.827v.126a5.338 5.338 0 0 1-.823-5.823 5.338 5.338 0 0 1 5.031-3.045 5.338 5.338 0 0 1 3.505 9.17 3.999 3.999 0 0 0 .028-.428z"/><path fill="#231f20" d="M45.934 51.672c-.315 1.594-2.32 2.095-2.32 2.095a3.249 3.249 0 0 1-1.353-2.812 7 7 0 0 0 1.06 4.285 6.995 6.995 0 0 0 2.614-3.568zm3.972.806c-.315 1.593-2.323 2.095-2.323 2.095a3.25 3.25 0 0 1-1.352-2.825 6.999 6.999 0 0 0 1.06 4.285 6.992 6.992 0 0 0 2.615-3.555zm-2.807 3.613c-.316 1.593-2.32 2.095-2.32 2.095a3.247 3.247 0 0 1-1.344-2.824 6.999 6.999 0 0 0 1.06 4.285 6.99 6.99 0 0 0 2.604-3.556zm3.983.797c-.316 1.595-2.32 2.097-2.32 2.097a3.25 3.25 0 0 1-1.353-2.825 7 7 0 0 0 1.044 4.286 6.994 6.994 0 0 0 2.63-3.558zm-2.8 3.676c-.316 1.594-2.323 2.096-2.323 2.096a3.25 3.25 0 0 1-1.35-2.825 7 7 0 0 0 1.058 4.284 6.992 6.992 0 0 0 2.614-3.555zm5.581-7.29c-.316 1.593-2.322 2.095-2.322 2.095a3.247 3.247 0 0 1-1.35-2.825 7.002 7.002 0 0 0 1.058 4.284 6.995 6.995 0 0 0 2.614-3.554zm27.462-1.602c.316 1.594 2.322 2.095 2.322 2.095a3.247 3.247 0 0 0 1.352-2.824 7.002 7.002 0 0 1-1.06 4.285 6.995 6.995 0 0 1-2.613-3.556zm-3.97.806c.315 1.593 2.322 2.095 2.322 2.095a3.25 3.25 0 0 0 1.35-2.824 7.004 7.004 0 0 1-1.06 4.284 6.992 6.992 0 0 1-2.612-3.555zm2.805 3.613c.316 1.593 2.32 2.095 2.32 2.095a3.249 3.249 0 0 0 1.353-2.824 7 7 0 0 1-1.06 4.285 6.992 6.992 0 0 1-2.612-3.556zm-3.969.797c.315 1.595 2.32 2.097 2.32 2.097a3.248 3.248 0 0 0 1.35-2.825 6.997 6.997 0 0 1-1.059 4.284 6.995 6.995 0 0 1-2.611-3.556zm2.788 3.676c.315 1.594 2.322 2.096 2.322 2.096a3.249 3.249 0 0 0 1.35-2.825 6.997 6.997 0 0 1-1.06 4.284 6.994 6.994 0 0 1-2.612-3.555zm-5.584-7.29c.316 1.593 2.322 2.095 2.322 2.095a3.248 3.248 0 0 0 1.35-2.825 6.997 6.997 0 0 1-1.058 4.284 6.998 6.998 0 0 1-2.614-3.554z" opacity=".53"/><path fill="#fff" d="M53.086 50.454a9.119 9.119 0 1 0 0-18.237 9.119 9.119 0 0 0 0 18.237z"/><path fill="#bdbfc1" d="M54.976 46.67a4.447 4.447 0 1 0 0-8.893 4.447 4.447 0 0 0 0 8.894z"/><path fill="#231f20" d="M54.976 45.07a2.846 2.846 0 1 0 0-5.692 2.846 2.846 0 0 0 0 5.691z"/><path fill="#fff" d="M53.716 42.075a.853.853 0 1 0 0-1.706.853.853 0 0 0 0 1.706zm20.334 8.378a9.119 9.119 0 1 0 0-18.236 9.119 9.119 0 0 0 0 18.237z"/><path fill="#bdbfc1" d="M75.94 46.67a4.447 4.447 0 1 0 0-8.893 4.447 4.447 0 0 0 0 8.894z"/><path fill="#231f20" d="M75.94 45.07a2.846 2.846 0 1 0 0-5.692 2.846 2.846 0 0 0 0 5.691z"/><path fill="#fff" d="M74.678 42.075a.853.853 0 0 0 .853-.852.853.853 0 1 0-1.705 0c0 .47.382.852.852.852z"/><path fill="url(#f)" d="M63.521 59.128c0-3.374 5.154-8.156 5.154-11.678a5.154 5.154 0 0 0-8.757-3.573 5.154 5.154 0 0 0-1.55 3.573c0 3.522 5.153 8.304 5.153 11.678z"/><defs><radialGradient id="a" cx="0" cy="0" r="1" gradientTransform="rotate(-42.27 72.293 -46.182) scale(43.72725)" gradientUnits="userSpaceOnUse"><stop stop-color="#fff"/><stop offset=".181" stop-color="#FBFBFB"/><stop offset=".365" stop-color="#EFEFF0"/><stop offset=".552" stop-color="#DADBDC"/><stop offset=".738" stop-color="#BEBFC2"/><stop offset=".824" stop-color="#AEB0B3"/></radialGradient><radialGradient id="b" cx="0" cy="0" r="1" gradientTransform="matrix(39.84393 0 0 43.33768 38.595 37.939)" gradientUnits="userSpaceOnUse"><stop stop-color="#FAFDFF"/><stop offset=".079" stop-color="#EEF5FA"/><stop offset=".22" stop-color="#CFDFEC"/><stop offset=".407" stop-color="#9DBBD5"/><stop offset=".631" stop-color="#588AB5"/><stop offset=".745" stop-color="#326FA4"/><stop offset=".799" stop-color="#2B6698"/><stop offset=".897" stop-color="#174E78"/><stop offset=".994" stop-color="#003152"/></radialGradient><radialGradient id="c" cx="0" cy="0" r="1" gradientTransform="matrix(39.65299 0 0 42.11148 52.852 36.666)" gradientUnits="userSpaceOnUse"><stop stop-color="#FFD540"/><stop offset=".667" stop-color="#EC1C24"/><stop offset=".994" stop-color="#760000"/></radialGradient><radialGradient id="d" cx="0" cy="0" r="1" gradientTransform="translate(55.349 70.137) scale(4.97757)" gradientUnits="userSpaceOnUse"><stop stop-color="#DDDFE0"/><stop offset=".174" stop-color="#D9DBDC"/><stop offset=".351" stop-color="#CDCFD0"/><stop offset=".531" stop-color="#B8BABB"/><stop offset=".711" stop-color="#9C9E9F"/><stop offset=".891" stop-color="#78797B"/><stop offset="1" stop-color="#5E5F61"/></radialGradient><radialGradient id="e" cx="0" cy="0" r="1" gradientTransform="translate(71.546 70.137) scale(4.97757)" gradientUnits="userSpaceOnUse"><stop stop-color="#DDDFE0"/><stop offset=".174" stop-color="#D9DBDC"/><stop offset=".351" stop-color="#CDCFD0"/><stop offset=".531" stop-color="#B8BABB"/><stop offset=".711" stop-color="#9C9E9F"/><stop offset=".891" stop-color="#78797B"/><stop offset="1" stop-color="#5E5F61"/></radialGradient><radialGradient id="f" cx="0" cy="0" r="1" gradientTransform="translate(62.871 47.496) scale(6.4209)" gradientUnits="userSpaceOnUse"><stop stop-color="#DDDFE0"/><stop offset=".174" stop-color="#D9DBDC"/><stop offset=".351" stop-color="#CDCFD0"/><stop offset=".531" stop-color="#B8BABB"/><stop offset=".711" stop-color="#9C9E9F"/><stop offset=".891" stop-color="#78797B"/><stop offset="1" stop-color="#5E5F61"/></radialGradient></defs></svg>
