<svg viewBox="0 0 128 128" xmlns="http://www.w3.org/2000/svg"><path d="M46.2117 49.168c0 .848-.688 1.532-1.532 1.532-.844 0-1.532-.688-1.532-1.532 0-.848.688-1.532 1.532-1.532.844 0 1.532.688 1.532 1.532Zm.72-7.304c-4.98 0-9.02 4.036-9.02 9.02s4.04 9.02 9.02 9.02c4.98 0 9.02-4.036 9.02-9.02s-4.04-9.02-9.02-9.02Zm.224 14.7c-3.012 0-5.456-2.444-5.456-5.456 0-3.012 2.444-5.456 5.456-5.456 3.012 0 5.456 2.444 5.456 5.456 0 3.012-2.444 5.456-5.456 5.456Zm38.828-5.86c.848 0 1.532-.684 1.532-1.532s-.688-1.532-1.532-1.532c-.848 0-1.532.688-1.532 1.532 0 .844.688 1.532 1.532 1.532Zm2.796 9.56c4.98 0 9.02-4.04 9.02-9.02 0-4.98-4.036-9.02-9.02-9.02-4.98 0-9.02 4.036-9.02 9.02s4.04 9.02 9.02 9.02Zm-.316-14.52c3.012 0 5.456 2.444 5.456 5.456 0 3.012-2.444 5.456-5.456 5.456-3.012 0-5.456-2.444-5.456-5.456 0-3.012 2.444-5.456 5.456-5.456ZM109.32 63.092c0-12.368-4.96-23.572-12.9883-31.748-1.492-4.552-1.32-10.844.572-13.708.66-1 1.364-1.968 2.12-3.056-6.716-1.144-12.428.78-16.256 5.572-.464.584-.896.928-1.348 1.096-5.364-2.236-11.248-3.476-17.42-3.476-6.196 0-12.1 1.248-17.48 3.5-.476-.16-.928-.508-1.416-1.12-3.824-4.788-9.536-6.716-16.256-5.572.756 1.088 1.46 2.056 2.12 3.056 1.92 2.908 2.068 9.344.508 13.908-7.916 8.16-12.796 19.28-12.796 31.548 0 5.772 1.084 11.292 3.052 16.368.492 1.392.944 2.8 1.404 4.204.42 1.284.824 2.556 1.196 3.832 1.096 3.76 1.768 7.644 1.876 11.56.032 1.072.012 2.144-.016 3.212l-.036 1.104 9.18-8.4c1.664 1.536 3.928 2.92 6.656 4.1-2.764 1.932-4.576 5.136-4.576 8.764 0 3.096 1.324 5.876 3.428 7.828-.204-.68-.316-1.4-.316-2.148 0-4.112 3.332-7.44 7.44-7.44 4.108 0 7.44 3.332 7.44 7.44 0 .88-.16 1.72-.44 2.504 2.336-1.96 3.824-4.9 3.824-8.188 0-1.8-.448-3.492-1.232-4.98 2.456.256 5.012.392 7.644.392 1.792 0 3.548-.064 5.264-.184-.72 1.436-1.124 3.056-1.124 4.772 0 3.096 1.324 5.876 3.428 7.828-.204-.68-.316-1.4-.316-2.148 0-4.112 3.332-7.44 7.44-7.44 4.108 0 7.44 3.332 7.44 7.44 0 .88-.16 1.72-.44 2.504 2.336-1.96 3.824-4.9 3.824-8.188 0-3.272-1.472-6.2-3.792-8.16 2.824-1.08 5.228-2.368 7.084-3.808l7.9363 7.26c-.016-.368-.028-.736-.036-1.104-.028-1.068-.048-2.14-.016-3.212.112-3.916.784-7.8 1.876-11.56.372-1.276.776-2.552 1.196-3.836.484-1.476.956-2.964 1.48-4.428 1.856-4.948 2.876-10.304 2.876-15.9l-.004.012ZM23.9477 76.608l-1.7-5.088 2.256 2.076 3.5-1.236-4.056 4.248Zm.872 3.64 2.256 2.076 3.5-1.236-4.056 4.248-1.7-5.088Zm5.544-7.576 2.096 2.24 3.58-.972-4.364 3.932-1.312-5.2Zm-1.68 21.524-1.7-5.088 2.256 2.076 3.5-1.236-4.056 4.248Zm5.616-7.236-1.7-5.088 2.256 2.076 3.5-1.236-4.056 4.248Zm3.844-12.732 2.096 2.24 3.58-.972-4.364 3.932-1.312-5.2Zm25.992 7.444c-.9-1.34-1.652-2.848-2.352-4.208-.804-1.556-1.612-3.112-2.424-4.664-1.552-2.968-3.856-5.988-4.628-9.34-3.088 2.512-7.024 4.016-11.316 4.016-9.912 0-17.948-8.036-17.948-17.948s8.036-17.948 17.948-17.948c2.636 0 5.136.572 7.392 1.592 1.02.432 1.996.956 2.92 1.564 4.656 3.224 7.704 8.6 7.704 14.688 0 .876-.068 1.732-.192 2.572a9.6365 9.6365 0 0 1 2.896-.444c1.164 0 2.276.216 3.312.596-.156-.948-.244-1.916-.244-2.904 0-1.552.208-3.056.58-4.492.02-.072.04-.14.06-.212.1-.36.208-.72.328-1.072.084-.248.172-.492.264-.732.04-.1.076-.2.116-.296 2.672-6.556 9.108-11.176 16.62-11.176 9.912 0 17.9483 8.036 17.9483 17.948S95.0837 67.16 85.1717 67.16c-3.728 0-7.192-1.136-10.06-3.084-.516-.348-1.012-.728-1.488-1.124-.376 1.788-1.284 3.308-2.188 5.008-1.232 2.324-2.452 4.656-3.668 6.988l-3.632 6.724Zm33.732-8.392-1.312 5.2-4.364-3.932 3.58.968 2.096-2.236Zm-13.456 2.824 3.58.972 2.096-2.24-1.312 5.2-4.364-3.932Zm9.524 11.464-4.056-4.248 3.5 1.236 2.256-2.076-1.7 5.088Zm5.612 7.236-4.056-4.248 3.5 1.236 2.2563-2.076-1.7003 5.088Zm2.1643-8.86-4.0563-4.248 3.5003 1.236 2.256-2.076-1.7 5.088Zm2.572-8.724-4.056-4.248 3.5 1.236 2.256-2.076-1.7 5.088ZM64.1117 53.348c-4.644 0-8.408 3.764-8.408 8.412 0 3.708 2.616 6.916 4.256 10.056.704 1.352 1.408 2.704 2.108 4.056.608 1.18 1.264 2.492 2.048 3.656l3.156-5.844c1.06-2.028 2.116-4.056 3.188-6.076 1.024-1.928 2.064-3.588 2.064-5.852 0-4.644-3.764-8.408-8.412-8.408Z" fill="#231F20"/></svg>