<svg width="128" height="128" viewBox="0 0 128 128" fill="none" xmlns="http://www.w3.org/2000/svg"><g clip-path="url(#a)"><path d="M107.09 111.37c26.035-23.6612 27.959-63.9474 4.298-89.9821C87.7276-4.6469 47.4415-6.5714 21.4067 17.0894-4.6281 40.7501-6.5526 81.0363 17.1082 107.071c23.6607 26.035 63.9469 27.959 89.9818 4.299Z" fill="url(#b)"/><path d="M81.9619 20.5951c-8.0877-6.9904-18.4115-10.7552-29.0401-10.5899-21.7756 0-43.1759 16.8876-44.8245 49.7619C6.3103 95.0817 29.319 118 61.7098 118c47.9522 0 74.4852-44.2791 44.7972-92.3069 20.869 47.9916-2.354 78.2309-32.3279 78.2309-24.3087 0-42.9346-16.53-42.9346-46.8372-.0179-43.7357 32.3328-46.7692 50.7174-36.4917Z" fill="url(#c)"/><path d="M93.9261 38.8329c-1.3048-4.2536-2.8724-12.6161 2.8235-17.4671-3.2091-.6902-6.5475-.3993-9.5941.8361-3.0466 1.2353-5.6649 3.3599-7.5246 6.1055-5.2498-2.3788-10.9349-3.6041-16.6831-3.5955-5.7481.0086-11.4296 1.2508-16.6725 3.6453-1.8547-2.758-4.4731-4.8946-7.5238-6.1392-3.0506-1.2446-6.3961-1.5412-9.6127-.8522 5.8294 4.9777 4.0525 13.5981 2.7343 17.7522-7.6964 8.7738-11.9255 20.1311-11.8726 31.8843 0 9.8377 6.2347 21.0194 7.4594 35.9977l7.8735-6.933c8.4565 4.713 18.0308 6.957 27.6642 6.485 9.6335.472 19.2079-1.772 27.6642-6.485l7.878 6.933c1.2469-14.9783 7.4592-26.16 7.4592-35.9977.07-11.8787-4.237-23.3542-12.0729-32.1694Z" fill="url(#d)"/><path d="M41.1406 118.207c-.036-.963.1344-1.923.5009-2.823.3664-.9.9215-1.721 1.6321-2.414.7106-.694 1.5621-1.245 2.5038-1.622s1.9543-.571 2.9773-.571c1.0231 0 2.0356.194 2.9773.571.9417.377 1.7933.928 2.5038 1.622.7106.693 1.2657 1.514 1.6322 2.414.3664.9.5368 1.86.5009 2.823v.235c1.3615-1.452 2.2405-3.248 2.528-5.167.2875-1.918-.0293-3.874-.9109-5.624-.8816-1.75-2.2894-3.218-4.0485-4.221-1.7592-1.003-3.7923-1.498-5.847-1.422-2.0548.075-4.0408.717-5.7116 1.847-1.6708 1.129-2.9528 2.696-3.6869 4.506-.7342 1.809-.8881 3.782-.4428 5.674.4453 1.891 1.4703 3.618 2.9478 4.965-.0423-.261-.0564-.527-.0564-.793Z" fill="url(#e)"/><path d="M84.8594 118.207c.036-.963-.1344-1.923-.5009-2.823-.3664-.9-.9215-1.721-1.6321-2.414-.7106-.694-1.5621-1.245-2.5038-1.622s-1.9543-.571-2.9773-.571c-1.0231 0-2.0356.194-2.9773.571-.9417.377-1.7933.928-2.5038 1.622-.7106.693-1.2657 1.514-1.6322 2.414-.3664.9-.5368 1.86-.5009 2.823v.235c-1.3615-1.452-2.2405-3.248-2.528-5.167-.2875-1.918.0293-3.874.9109-5.624.8816-1.75 2.2894-3.218 4.0485-4.221 1.7592-1.003 3.7923-1.498 5.847-1.422 2.0548.075 4.0408.717 5.7116 1.847 1.6708 1.129 2.9528 2.696 3.6869 4.506.7342 1.809.8881 3.782.4428 5.674-.4453 1.891-1.4703 3.618-2.9478 4.965.0338-.263.0526-.528.0564-.793Z" fill="url(#f)"/><g opacity=".53" fill="#231F20"><path d="M29.8639 74.863c-.5974 3.0186-4.3944 3.969-4.3944 3.969a6.1503 6.1503 0 0 1-2.5614-5.3267 13.2551 13.2551 0 0 0 2.0048 8.1144 13.2464 13.2464 0 0 0 4.951-6.7567ZM37.3865 76.3882c-.5974 3.0186-4.3989 3.9689-4.3989 3.9689a6.1542 6.1542 0 0 1-2.5615-5.3492 13.2557 13.2557 0 0 0 2.0094 8.1144 13.243 13.243 0 0 0 4.951-6.7341ZM32.0675 83.2309c-.5974 3.0185-4.3944 3.9689-4.3944 3.9689a6.1502 6.1502 0 0 1-2.5434-5.3492 13.2556 13.2556 0 0 0 2.0049 8.1144 13.2383 13.2383 0 0 0 4.9329-6.7341ZM39.6124 84.7424c-.5974 3.0186-4.3943 3.969-4.3943 3.969a6.1545 6.1545 0 0 1-2.5615-5.3493 13.255 13.255 0 0 0 1.9777 8.119 13.2462 13.2462 0 0 0 4.9781-6.7387ZM34.3092 91.7028c-.5974 3.0186-4.3989 3.9689-4.3989 3.9689a6.155 6.155 0 0 1-2.5569-5.3492 13.2553 13.2553 0 0 0 2.0048 8.1144 13.2418 13.2418 0 0 0 4.951-6.7341ZM44.8794 77.8952c-.5974 3.0186-4.3989 3.969-4.3989 3.969a6.151 6.151 0 0 1-2.5569-5.3493 13.2595 13.2595 0 0 0 2.0048 8.1144 13.2464 13.2464 0 0 0 4.951-6.7341Z"/></g><g opacity=".53" fill="#231F20"><path d="M96.8916 74.863c.5974 3.0186 4.3944 3.969 4.3944 3.969a6.1541 6.1541 0 0 0 1.968-2.3455 6.1435 6.1435 0 0 0 .593-3.0038 13.263 13.263 0 0 1-2.004 8.1144 13.2454 13.2454 0 0 1-4.9514-6.7341ZM89.3711 76.3881c.5974 3.0186 4.3989 3.969 4.3989 3.969a6.1546 6.1546 0 0 0 2.5569-5.3493 13.2648 13.2648 0 0 1-2.0093 8.1144 13.2419 13.2419 0 0 1-4.9465-6.7341ZM94.6836 83.2308c.5974 3.0186 4.3943 3.9689 4.3943 3.9689a6.1572 6.1572 0 0 0 1.9681-2.3457 6.1539 6.1539 0 0 0 .593-3.0035 13.2537 13.2537 0 0 1-2.0044 8.1144 13.242 13.242 0 0 1-4.951-6.7341ZM87.166 84.7424c.5974 3.0185 4.3944 3.9689 4.3944 3.9689a6.1496 6.1496 0 0 0 2.5569-5.3492 13.2504 13.2504 0 0 1-2.0048 8.1144 13.2473 13.2473 0 0 1-4.9465-6.7341ZM92.4473 91.7028c.5973 3.0185 4.3988 3.9689 4.3988 3.9689a6.1544 6.1544 0 0 0 2.557-5.3493 13.2505 13.2505 0 0 1-2.0094 8.1144 13.246 13.246 0 0 1-4.9464-6.734ZM81.8711 77.8952c.5974 3.0185 4.3989 3.9689 4.3989 3.9689a6.15 6.15 0 0 0 2.5569-5.3492 13.2504 13.2504 0 0 1-2.0048 8.1144 13.2509 13.2509 0 0 1-4.951-6.7341Z"/></g><path d="M43.5 72C53.165 72 61 64.3888 61 55s-7.835-17-17.5-17S26 45.6112 26 55s7.835 17 17.5 17Z" fill="#fff"/><path d="M48 65c4.9706 0 9-3.5817 9-8s-4.0294-8-9-8-9 3.5817-9 8 4.0294 8 9 8Z" fill="#BDBFC1"/><path d="M48 63c2.7614 0 5-2.4624 5-5.5S50.7614 52 48 52s-5 2.4624-5 5.5 2.2386 5.5 5 5.5Z" fill="#231F20"/><path d="M45.5 57c.8284 0 1.5-.8954 1.5-2s-.6716-2-1.5-2-1.5.8954-1.5 2 .6716 2 1.5 2ZM82.5 72c9.665 0 17.5-7.6112 17.5-17s-7.835-17-17.5-17S65 45.6112 65 55s7.835 17 17.5 17Z" fill="#fff"/><path d="M86.5 65c4.6944 0 8.5-3.5817 8.5-8s-3.8056-8-8.5-8-8.5 3.5817-8.5 8 3.8056 8 8.5 8Z" fill="#BDBFC1"/><path d="M87 63c3.3137 0 6-2.4624 6-5.5S90.3137 52 87 52s-6 2.4624-6 5.5 2.6863 5.5 6 5.5Z" fill="#231F20"/><path d="M83.5 57c.8284 0 1.5-.8954 1.5-2s-.6716-2-1.5-2-1.5.8954-1.5 2 .6716 2 1.5 2Z" fill="#fff"/><path d="M63.4978 89C63.4978 82.7447 73 73.88 73 67.35c-.0535-2.4981-1.0779-4.8758-2.8537-6.6235C68.3706 58.9787 65.9847 58 63.5 58s-4.8706.9787-6.6463 2.7265C55.0779 62.4742 54.0535 64.8519 54 67.35c0 6.53 9.4978 15.3947 9.4978 21.65Z" fill="url(#g)"/></g><defs><radialGradient id="b" cx="0" cy="0" r="1" gradientUnits="userSpaceOnUse" gradientTransform="rotate(-42.27 78.5731 -24.4754) scale(83.2594)"><stop stop-color="#fff"/><stop offset=".181" stop-color="#FBFBFB"/><stop offset=".365" stop-color="#EFEFF0"/><stop offset=".552" stop-color="#DADBDC"/><stop offset=".738" stop-color="#BEBFC2"/><stop offset=".824" stop-color="#AEB0B3"/></radialGradient><radialGradient id="c" cx="0" cy="0" r="1" gradientUnits="userSpaceOnUse" gradientTransform="matrix(74.494 0 0 82.1108 16.4511 49.3169)"><stop stop-color="#FAFDFF"/><stop offset=".079" stop-color="#EEF5FA"/><stop offset=".22" stop-color="#CFDFEC"/><stop offset=".407" stop-color="#9DBBD5"/><stop offset=".631" stop-color="#588AB5"/><stop offset=".745" stop-color="#326FA4"/><stop offset=".799" stop-color="#2B6698"/><stop offset=".897" stop-color="#174E78"/><stop offset=".994" stop-color="#003152"/></radialGradient><radialGradient id="d" cx="0" cy="0" r="1" gradientUnits="userSpaceOnUse" gradientTransform="matrix(73.8989 0 0 79.7462 42.8952 46.5501)"><stop stop-color="#FFD540"/><stop offset=".667" stop-color="#EC1C24"/><stop offset=".994" stop-color="#760000"/></radialGradient><radialGradient id="e" cx="0" cy="0" r="1" gradientUnits="userSpaceOnUse" gradientTransform="matrix(9.7903 0 0 9.2237 48.4915 110.503)"><stop stop-color="#DDDFE0"/><stop offset=".174" stop-color="#D9DBDC"/><stop offset=".351" stop-color="#CDCFD0"/><stop offset=".531" stop-color="#B8BABB"/><stop offset=".711" stop-color="#9C9E9F"/><stop offset=".891" stop-color="#78797B"/><stop offset="1" stop-color="#5E5F61"/></radialGradient><radialGradient id="f" cx="0" cy="0" r="1" gradientUnits="userSpaceOnUse" gradientTransform="matrix(9.7903 0 0 9.2237 77.5038 110.503)"><stop stop-color="#DDDFE0"/><stop offset=".174" stop-color="#D9DBDC"/><stop offset=".351" stop-color="#CDCFD0"/><stop offset=".531" stop-color="#B8BABB"/><stop offset=".711" stop-color="#9C9E9F"/><stop offset=".891" stop-color="#78797B"/><stop offset="1" stop-color="#5E5F61"/></radialGradient><radialGradient id="g" cx="0" cy="0" r="1" gradientUnits="userSpaceOnUse" gradientTransform="matrix(11.837 0 0 11.9037 62.2996 67.4342)"><stop stop-color="#DDDFE0"/><stop offset=".174" stop-color="#D9DBDC"/><stop offset=".351" stop-color="#CDCFD0"/><stop offset=".531" stop-color="#B8BABB"/><stop offset=".711" stop-color="#9C9E9F"/><stop offset=".891" stop-color="#78797B"/><stop offset="1" stop-color="#5E5F61"/></radialGradient><clipPath id="a"><path fill="#fff" d="M0 0h128v128H0z"/></clipPath></defs></svg>
