<svg xmlns="http://www.w3.org/2000/svg" viewBox="0 0 128 128"><path fill="#0080ff" d="M63.098 60.117h-9.926V50.23h9.926Zm-9.926 7.758h-7.516v-7.758h7.52v7.758Zm-7.52-7.758H39.34V53.73h6.312ZM10.996 89.473c-1.57-1.102-3.637-1.696-5.953-1.696H0v16.508h5.043c2.316 0 4.3-.594 5.953-1.777.91-.68 1.57-1.524 2.066-2.625.497-1.102.747-2.453.747-3.895 0-1.437-.25-2.793-.746-3.808-.497-1.27-1.157-2.114-2.067-2.707Zm-8.02 1.097h1.57c1.74 0 3.227.34 4.384 1.102 1.238.762 1.82 2.2 1.82 4.316 0 2.117-.664 3.64-1.82 4.485-1.075.68-2.48 1.101-4.301 1.101H2.977Zm14.387-3.047c-.496 0-.91.172-1.242.508-.414.34-.578.762-.578 1.27s.164.933.496 1.27c.332.34.746.511 1.242.511s.91-.172 1.239-.512c.332-.336.496-.761.496-1.27 0-.507-.164-.929-.496-1.265-.247-.34-.66-.512-1.157-.512Zm-1.488 5.079h2.895v11.601h-2.895Zm13.23 1.015c-.828-.762-1.82-1.27-2.894-1.27-1.57 0-2.895.594-3.887 1.696-.992 1.098-1.57 2.453-1.57 4.144 0 1.61.496 3.047 1.488 4.149.992 1.102 2.317 1.61 3.887 1.61 1.074 0 2.066-.34 2.808-.93v.254c0 .93-.246 1.69-.742 2.199-.496.508-1.156.761-2.066.761-1.324 0-2.152-.507-3.14-1.949l-1.985 1.95.082.085c.414.59 1.074 1.184 1.902 1.778.825.59 1.899.844 3.14.844 1.735 0 3.06-.508 4.052-1.61.992-1.098 1.57-2.453 1.57-4.23V92.602h-2.813v1.015Zm-.746 6.856c-.496.593-1.156.847-1.984.847-.824 0-1.488-.254-1.984-.847-.496-.59-.743-1.352-.743-2.285 0-.93.247-1.692.743-2.286.496-.59 1.16-.843 1.984-.843.828 0 1.488.254 1.984.843.496.594.746 1.356.746 2.285 0 .934-.25 1.696-.746 2.286Zm6.036-7.871h2.894v11.601h-2.894Zm1.406-5.079c-.496 0-.91.172-1.239.508-.332.34-.496.762-.496 1.27s.164.93.496 1.27c.329.34.743.507 1.239.507.496 0 .91-.168 1.242-.508.328-.34.496-.761.496-1.27 0-.507-.168-.929-.496-1.269a1.665 1.665 0 0 0-1.242-.508Zm7.691 1.946H40.68v3.133h-1.657v2.625h1.657v4.824c0 1.523.332 2.625.91 3.219.578.59 1.652.93 3.058.93.497 0 .91 0 1.407-.087h.164v-2.625l-.992.086c-.66 0-1.157-.086-1.325-.34-.246-.254-.328-.761-.328-1.523v-4.398h2.645v-2.626H43.57V89.47h-.082Zm16.04-1.692h2.894v16.504H59.53Zm31.745 12.36c-.422.496-.89.949-1.402 1.351-.45.278-.965.426-1.488.426-.828 0-1.489-.34-2.067-.934-.578-.675-.828-1.437-.828-2.453 0-1.015.25-1.777.828-2.453.575-.68 1.239-.933 2.067-.933.91 0 1.902.593 2.726 1.609l1.903-1.863c-1.243-1.606-2.813-2.367-4.711-2.367-1.575 0-2.895.59-4.055 1.777-1.074 1.183-1.652 2.621-1.652 4.312 0 1.696.578 3.22 1.652 4.32 1.078 1.184 2.48 1.778 4.055 1.778 2.066 0 3.718-.934 4.875-2.625l-1.903-1.95Zm11.66-5.84c-.414-.594-.992-1.016-1.656-1.356-.66-.34-1.488-.507-2.394-.507-1.57 0-2.895.593-3.887 1.777-.91 1.184-1.406 2.625-1.406 4.316 0 1.778.496 3.22 1.57 4.317 1.074 1.101 2.398 1.695 4.137 1.695 1.898 0 3.472-.766 4.71-2.371l.083-.086-1.903-1.86c-.164.25-.414.423-.66.676-.25.254-.578.508-.828.59-.414.258-.91.34-1.402.34-.828 0-1.406-.254-1.985-.676-.496-.425-.746-1.015-.828-1.777h7.606v-1.102c0-.761-.082-1.523-.328-2.199-.086-.594-.414-1.27-.829-1.781Zm-6.203 2.707c.168-.594.414-1.016.746-1.356.415-.421.91-.59 1.489-.59.66 0 1.238.169 1.57.59.332.34.496.848.578 1.356Zm17.2-3.473c-.829-.758-2.067-1.097-3.555-1.097-.91 0-1.82.254-2.649.593-.742.422-1.484 1.016-1.898 1.86l1.816 1.781c.747-1.273 1.57-1.695 2.73-1.695.579 0 1.075.172 1.49.507.413.34.577.762.577 1.27v.594a6.197 6.197 0 0 0-2.066-.34c-1.406 0-2.563.34-3.473 1.016-.91.68-1.324 1.69-1.324 2.878 0 1.102.332 1.946 1.074 2.625.746.676 1.656.93 2.73.93 1.075 0 2.067-.426 3.06-1.183v.93h2.812v-7.45c0-1.355-.414-2.453-1.324-3.219Zm-5.043 6.266c.328-.254.742-.34 1.32-.34.664 0 1.406.172 2.152.426v1.097c-.664.594-1.488.934-2.48.934-.496 0-.91-.086-1.16-.34-.246-.254-.41-.508-.41-.847.082-.422.246-.676.578-.93Zm17.363-6.094c-.828-.93-1.902-1.355-3.309-1.355-1.156 0-2.066.34-2.726 1.015v-.675h-2.813v11.593h2.895v-6.43c0-.847.164-1.609.578-2.117.414-.507.992-.761 1.652-.761.664 0 1.16.254 1.489.675.332.426.578 1.102.578 1.864v6.77h2.894v-6.77c-.082-1.61-.496-2.88-1.238-3.809Zm-70.277-.172c-.829-.758-2.067-1.097-3.555-1.097-.91 0-1.82.254-2.649.593-.742.422-1.488 1.016-1.898 1.86l1.816 1.781c.743-1.273 1.57-1.695 2.73-1.695.579 0 1.075.172 1.49.507.41.34.573.762.573 1.27v.594a6.19 6.19 0 0 0-2.062-.34c-1.406 0-2.567.34-3.477 1.016-.906.68-1.32 1.69-1.32 2.878 0 1.102.332 1.946 1.074 2.625.742.676 1.656.93 2.727.93 1.078 0 2.07-.426 3.058-1.183v.93h2.813v-7.45c0-1.355-.496-2.453-1.32-3.219Zm-5.13 6.266c.333-.254.747-.34 1.325-.34.66 0 1.406.172 2.148.426v1.097c-.66.594-1.488.934-2.48.934-.496 0-.91-.086-1.156-.34-.25-.254-.414-.508-.414-.847.164-.422.332-.676.578-.93Zm21.91 4.742c-4.546 0-8.265-3.812-8.265-8.465 0-4.656 3.719-8.465 8.266-8.465 4.547 0 8.27 3.809 8.27 8.465 0 4.653-3.723 8.465-8.27 8.465Zm0-14.055c-2.976 0-5.374 2.457-5.374 5.504 0 3.047 2.398 5.5 5.375 5.5 2.976 0 5.375-2.453 5.375-5.5s-2.399-5.504-5.375-5.504ZM62.95 70.156V60.117c10.528 0 18.649-10.496 14.586-21.597-1.504-4.11-4.66-7.454-8.87-8.977-10.83-3.953-21.208 4.258-21.208 14.754h-9.922c0-16.73 16.09-29.965 33.684-24.488 7.672 2.433 13.687 8.52 16.094 16.277 5.414 17.797-7.672 34.07-24.364 34.07Zm0 0"/></svg>
