<?xml version="1.0" encoding="utf-8"?>
<!-- Generator: Adobe Illustrator 16.0.0, SVG Export Plug-In . SVG Version: 6.00 Build 0)  -->
<!DOCTYPE svg PUBLIC "-//W3C//DTD SVG 1.1//EN" "http://www.w3.org/Graphics/SVG/1.1/DTD/svg11.dtd">
<svg version="1.1" id="Layer_1" xmlns="http://www.w3.org/2000/svg" xmlns:xlink="http://www.w3.org/1999/xlink" x="0px" y="0px"
	 width="500px" height="500px" viewBox="0 0 500 500" enable-background="new 0 0 500 500" xml:space="preserve">
<g>
	<path fill="#0073BB" d="M377.549,5.577c-42.15,1.58-93.387,54.515-75.856,103.888c18.559,48.987,30.45,83.83,32.934,138.486
		c44.542-44.816,85.468-93.473,88.769-149.931C424.481,52.203,402.793,18.44,377.549,5.577z"/>
	<path fill="#0073BB" d="M328.205,257.199c-17.706-26.718-49.834-43.168-61.796-48.214c-6.327,11.308-14.63,23.594-25.45,37.047
		c-22.744,28.667-45.68,75.688-38.623,130.806C296.292,366.47,325.632,295.951,328.205,257.199z"/>
	<path fill="#0073BB" d="M166.828,167.503c31.489,9.324,53.55,15.067,77.435,23.741c34.92,12.688,62.332,28.884,84.046,56.84
		c-4.03-48.099-23.837-103.215-55.471-146.206c-45.13-61.331-123.282-90.773-195.902-62.036
		C73.6,82.967,92.048,147.093,166.828,167.503z"/>
	<path fill="#0073BB" d="M198.177,422.43c-4.801-1.179-11.118-2.083-16.55-2.083c-13.584,0-19.627,8.785-19.627,22.369v6.339
		c0,13.585,6.17,22.386,19.666,22.386c5.525,0,11.748-0.921,16.549-2.099c1.627-0.362,1.785-0.907,1.785-2.084v-42.745
		C200,423.244,199.804,422.793,198.177,422.43z M192,463.817c-2,0.455-6.609,0.905-10.41,0.905c-8.969,0-11.59-6.157-11.59-15.668
		v-6.339c0-9.601,2.621-15.667,11.59-15.667c3.801,0,8.41,0.452,10.41,0.904V463.817z"/>
	<path fill="#0073BB" d="M130.038,402.597c-1.723-0.272-4.862-0.544-8.12-0.544c-8.512,0-13.918,2.898-13.918,12.589v54.338
		c0,0.996,0.604,2.021,1.6,2.021h4.348c0.994,0,2.053-1.024,2.053-2.021V427h13.887c0.996,0,2.113-0.405,2.113-1.311v-3.078
		c0-0.997-1.117-1.611-2.113-1.611H116v-6.358c0-5.344,0.752-6.642,5.736-6.642h8.059c1.27,0,2.205,0.029,2.205-0.785v-3.079
		C132,403.32,131.396,402.777,130.038,402.597z"/>
	<path fill="#0073BB" d="M159.003,420.347c-7.518,0-13.987,0.271-19.149,2.535c-0.998,0.454-1.854,1.086-1.854,2.084v44.014
		c0,0.996,1.072,2.021,1.98,2.021h4.709c0.996,0,1.311-1.115,1.311-2.021v-40.754c4-0.725,6.683-0.906,12.843-0.906
		c1.719,0,2.157-0.452,2.157-1.448v-4.166C161,420.438,160.179,420.347,159.003,420.347z"/>
	<path fill="#0073BB" d="M374.795,421h-4.256c-0.996,0-1.539,0.796-1.539,1.793v28.344c0,9.872-4.021,13.495-11.449,13.495
		c-2.264,0-4.551-0.543-7.551-1.177v-40.662c0-0.997-0.473-1.793-1.471-1.793h-4.436c-0.996,0-2.094,0.796-2.094,1.793v40.662
		c-2,0.634-4.791,1.177-7.053,1.177c-7.607,0-10.947-3.623-10.947-13.495v-28.344c0-0.997-0.918-1.793-1.912-1.793h-4.26
		c-0.994,0-1.828,0.796-1.828,1.793v28.344c0,16.031,8.975,20.304,18.305,20.304c4.527,0,8.244-0.831,12.049-2.192
		c3.803,1.361,7.628,2.192,12.153,2.192c9.33,0,18.493-4.272,18.493-20.304v-28.344C377,421.796,375.791,421,374.795,421z"/>
	<path fill="#0073BB" d="M250.006,420h-2.084c-5.434,0-9.057,0.904-11.771,3.261c-2.809-2.536-6.34-3.261-11.775-3.261h-2.08
		C211.426,420,206,426.867,206,436.195v32.784c0,0.996,0.809,2.021,1.803,2.021h4.711c0.994,0,1.486-1.024,1.486-2.021v-32.784
		c0-7.788,3.584-9.195,8.295-9.195h2.08c5.797,0,7.625,1.316,7.625,6.479v35.501c0,0.996,0.797,2.021,1.793,2.021h4.711
		c0.996,0,1.496-1.024,1.496-2.021v-35.501c0-5.162,2.127-6.479,7.922-6.479h2.084c4.801,0,7.994,1.407,7.994,9.195v32.784
		c0,0.996,0.789,2.021,1.787,2.021h4.709c0.996,0,1.504-1.024,1.504-2.021v-32.784C266,426.867,260.873,420,250.006,420z"/>
	<path fill="#0073BB" d="M472.09,444.527l19.926-21.555c0.273-0.271,0.453-0.623,0.453-0.986c0-0.545-0.453-0.986-1.359-0.986h-6.34
		c-0.904,0-1.19,0.172-1.733,0.805L465,442.172v-37.673c0-0.997-0.969-1.499-1.965-1.499h-4.346c-0.996,0-1.689,0.502-1.689,1.499
		v64.48c0,0.996,0.693,2.021,1.689,2.021h4.346c0.996,0,1.965-1.024,1.965-2.021v-21.644l17.946,22.38
		c0.725,0.908,1.009,1.284,2.003,1.284h6.521c0.635,0,0.998-0.649,0.998-1.284c0-0.27-0.09-0.685-0.271-0.866L472.09,444.527z"/>
	<path fill="#0073BB" d="M449.979,420.347c-7.514,0-13.974,0.271-19.138,2.535c-0.996,0.454-1.842,1.086-1.842,2.084v44.014
		c0,0.996,1.027,2.021,1.936,2.021h4.709c0.996,0,1.355-1.115,1.355-2.021v-40.754c4-0.725,6.684-0.906,12.842-0.906
		c1.723,0,2.158-0.452,2.158-1.448v-4.166C452,420.438,451.157,420.347,449.979,420.347z"/>
	<path fill="#0073BB" d="M291.089,420.347c-12.949,0-20.089,8.241-20.089,21.19v8.154c0,16.84,9.9,21.749,20.314,21.749
		c6.068,0,10.88-0.545,16.042-1.556c1.449-0.273,1.644-0.905,1.644-2.082v-3.08c0-0.905-0.631-1.723-1.354-1.723
		c-0.182,0-0.271,0-0.453,0c-4.168,1-11.109,1.225-16.363,1.225c-8.332,0-12.83-3.758-12.83-14.533V448h30.822
		c1.086,0,2.178-0.393,2.178-1.569v-4.894C311,428.679,304.312,420.347,291.089,420.347z M302,442h-24v-0.463
		c0-9.78,4.346-14.218,12.135-14.218c7.969,0,11.865,3.985,11.865,14.218V442z"/>
	<path fill="#0073BB" d="M402.955,420.347c-13.313,0-19.955,8.785-19.955,22.099v6.883c0,13.312,6.643,22.112,19.955,22.112
		S423,462.64,423,449.328v-6.883C423,429.132,416.268,420.347,402.955,420.347z M415,449.328c0,9.327-3.623,15.124-12.045,15.124
		c-8.516,0-11.955-5.887-11.955-15.124v-6.883c0-9.33,3.531-15.126,11.955-15.126c8.512,0,12.045,5.889,12.045,15.126V449.328z"/>
	<path fill="#0073BB" d="M92.861,410h-8.334c-0.998,0-1.527,0.315-1.527,1.311v57.579c0,0.995,0.529,2.11,1.527,2.11h8.334
		c0.996,0,2.139-1.115,2.139-2.11v-57.579C95,410.315,93.857,410,92.861,410z"/>
	<path fill="#0073BB" d="M70.719,410h-8.332c-0.996,0-1.387,0.315-1.387,1.311v57.579c0,0.995,0.391,2.11,1.387,2.11h8.332
		c0.998,0,2.281-1.115,2.281-2.11v-57.579C73,410.315,71.717,410,70.719,410z"/>
	<circle fill="#0073BB" cx="88.75" cy="399.5" r="6.229"/>
	<circle fill="#0073BB" cx="66.553" cy="399.5" r="6.229"/>
	<path fill="#0073BB" d="M39,419.42v41.589c-3,0.363-6.83,0.727-9.002,0.727c-7.789,0-9.998-5.524-9.998-12.952V419.09
		c0-7.25-8-9.357-12-9.14v38.833c0,14.129,7.395,22.747,21.977,22.747c2.172,0,7.023-0.635,9.023-1.011v0.739
		c2,11.91-12.746,7.414-20.576,6.604c-5.766,0.003-9.78,4.754-10.819,10.108c3.35,1.086,14.528,2.483,22.196,3.09
		c13.857,0,21.199-7.574,21.199-20.449v-60.739C46,409.971,39,413.024,39,419.42z"/>
</g>
</svg>
