<svg xmlns="http://www.w3.org/2000/svg" xmlns:xlink="http://www.w3.org/1999/xlink" viewBox="0 0 128 128"><path fill="#0073BB" d="M96.644 1.858c-10.79.404-23.907 13.955-19.419 26.595 4.751 12.541 7.795 21.461 8.431 35.452 11.403-11.473 21.88-23.929 22.725-38.382.277-11.729-5.275-20.372-11.737-23.665zM84.012 66.273c-4.532-6.84-12.758-11.051-15.819-12.343-1.62 2.895-3.746 6.04-6.516 9.483-5.823 7.34-11.695 19.377-9.888 33.487 24.053-2.654 31.564-20.707 32.223-30.627zM42.699 43.311c8.062 2.388 13.709 3.857 19.823 6.078 8.939 3.248 15.957 7.395 21.516 14.551-1.031-12.313-6.103-26.423-14.2-37.429-11.554-15.7-31.561-23.238-50.151-15.881-.854 11.04 3.869 27.456 23.012 32.681z"/><defs><path id="a" d="M28.528 119.856v-13.829c0-.24-.195-.436-.435-.436h-2.002c-.238 0-.434.196-.434.436v13.829c0 .239.195.457.434.457h2.002c.24 0 .435-.218.435-.457zm-10.57.415v-14.588c-1.123.023-2.849.756-2.87 2.293v9.989c-.609.087-1.567.175-2.089.175-1.87 0-2.327-1.327-2.327-3.112v-7.132c-.117-1.74-2.079-2.247-2.871-2.195v9.327c0 3.394 1.696 5.465 5.198 5.465.521 0 1.632-.153 2.089-.245v.178c.443 2.86-3.027 1.781-4.907 1.587-1.385 0-2.331 1.141-2.582 2.427.805.261 3.459.597 5.3.742 3.329-.001 5.059-1.821 5.059-4.911zm5.253-.415v-13.829c0-.24-.195-.436-.435-.436h-2.001c-.24 0-.436.196-.436.436v13.829c0 .239.195.457.436.457h2.001c.24 0 .435-.218.435-.457zm-1.436-18.163c.826 0 1.496.671 1.496 1.497 0 .827-.67 1.496-1.496 1.496s-1.496-.669-1.496-1.496c0-.825.67-1.497 1.496-1.497zm5.331 0c.826 0 1.496.671 1.496 1.497 0 .827-.67 1.496-1.496 1.496s-1.497-.669-1.497-1.496c0-.825.671-1.497 1.497-1.497z"/></defs><use xlink:href="#a" overflow="visible" fill="#0073BB"/><clipPath><use xlink:href="#a" overflow="visible"/></clipPath><path fill="#0073BB" d="M37.489 105.079v-.745c0-.197-.109-.329-.438-.372-.416-.066-1.183-.131-1.973-.131-2.06 0-3.374.7-3.374 3.046v13.145c0 .242.197.438.439.438h1.051c.241 0 .438-.196.438-.438v-10.078h3.418c.24 0 .416-.176.416-.394v-.746c0-.241-.176-.394-.416-.394h-3.418v-1.533c0-1.294.24-1.491 1.445-1.491h1.95c.309-.001.462-.11.462-.307zM44.486 109.591v-1.007c0-.306-.175-.328-.459-.328-1.819 0-3.331.065-4.58.613-.241.109-.395.263-.395.503v10.648c0 .242.175.438.395.438h1.14c.24 0 .394-.219.394-.438v-9.859c.833-.175 1.557-.219 3.047-.219.414.001.458-.109.458-.351zM53.959 119.604v-10.341c0-.307-.065-.416-.46-.503-1.161-.285-2.717-.503-4.031-.503-3.287 0-4.776 2.124-4.776 5.411v1.533c0 3.286 1.513 5.415 4.776 5.415 1.336 0 2.87-.223 4.031-.507.395-.088.46-.22.46-.505zm-1.929-.832c-.612.109-1.643.219-2.563.219-2.169 0-2.849-1.49-2.849-3.791v-1.533c0-2.323.68-3.791 2.849-3.791.92 0 1.972.11 2.563.219v8.677zM69.873 120.021v-7.931c0-2.257-1.271-3.834-3.899-3.834h-.504c-1.314 0-2.191.219-2.848.788-.68-.613-1.534-.788-2.849-.788h-.503c-2.63 0-3.9 1.577-3.9 3.834v7.931c0 .242.152.438.395.438h1.14c.24 0 .394-.196.394-.438v-7.931c0-1.885.833-2.147 1.973-2.147h.504c1.401 0 1.884.241 1.884 1.49v8.588c0 .242.153.438.395.438h1.139c.241 0 .395-.196.395-.438v-8.588c0-1.249.482-1.49 1.885-1.49h.504c1.16 0 1.972.263 1.972 2.147v7.931c0 .242.153.438.395.438h1.14c.235 0 .388-.196.388-.438zM80.573 114.566v-1.183c0-3.112-1.621-5.126-4.82-5.126-3.133 0-4.864 1.993-4.864 5.126v1.971c0 4.076 2.454 5.262 4.974 5.262 1.468 0 2.673-.131 3.922-.375.351-.066.438-.219.438-.504v-.745c0-.219-.176-.307-.351-.307h-.109c-1.008.153-2.629.241-3.9.241-2.016 0-3.046-.964-3.046-3.571v-.306h7.34c.263-.001.416-.198.416-.483zm-1.95-.986h-5.807v-.197c0-2.366 1.053-3.44 2.937-3.44 1.928 0 2.87.964 2.87 3.44v.197zM96.51 115.704v-6.857c0-.241-.198-.438-.439-.438h-1.029c-.241 0-.438.197-.438.438v6.857c0 2.39-.898 3.265-2.695 3.265-.549 0-1.117-.131-1.753-.285v-9.837c0-.241-.197-.438-.438-.438h-1.073c-.241 0-.438.197-.438.438v9.837c-.635.153-1.205.285-1.753.285-1.84 0-2.694-.875-2.694-3.265v-6.857c0-.241-.197-.438-.438-.438h-1.032c-.241 0-.438.197-.438.438v6.857c0 3.879 2.169 4.912 4.425 4.912 1.097 0 1.994-.199 2.915-.529.92.33 1.796.529 2.892.529 2.256 0 4.426-1.033 4.426-4.912zM107.713 115.267v-1.665c0-3.221-1.666-5.345-4.887-5.345-3.22 0-4.863 2.124-4.863 5.345v1.665c0 3.22 1.644 5.349 4.863 5.349 3.221 0 4.887-2.13 4.887-5.349zm-1.929 0c0 2.257-.92 3.659-2.958 3.659-2.059 0-2.935-1.424-2.935-3.659v-1.665c0-2.257.897-3.659 2.935-3.659 2.061 0 2.958 1.424 2.958 3.659v1.665zM114.6 109.591v-1.007c0-.306-.175-.328-.459-.328-1.819 0-3.331.065-4.58.613-.241.109-.395.263-.395.503v10.648c0 .242.176.438.395.438h1.14c.241 0 .395-.219.395-.438v-9.859c.833-.175 1.556-.219 3.046-.219.415.001.458-.109.458-.351zM124.401 120.174c0-.065-.022-.153-.066-.197l-4.863-5.872 4.82-5.214c.065-.066.109-.153.109-.241 0-.131-.109-.241-.328-.241h-1.534c-.219 0-.307.044-.438.197l-4.382 4.93v-9.115c0-.241-.197-.438-.438-.438h-1.053c-.24 0-.438.197-.438.438v15.6c0 .242.197.438.438.438h1.053c.24 0 .438-.196.438-.438v-5.236l4.36 5.389c.175.219.263.285.504.285h1.577c.154 0 .241-.131.241-.285z"/></svg>