<?xml version="1.0" encoding="UTF-8" standalone="no"?>
<svg
   width="128"
   height="128"
   viewBox="0 0 128 128"
   version="1.1"
   id="svg2"
   sodipodi:docname="Q#.svg"
   inkscape:version="1.3.2 (091e20e, 2023-11-25, custom)"
   xmlns:inkscape="http://www.inkscape.org/namespaces/inkscape"
   xmlns:sodipodi="http://sodipodi.sourceforge.net/DTD/sodipodi-0.dtd"
   xmlns="http://www.w3.org/2000/svg"
   xmlns:svg="http://www.w3.org/2000/svg"
   xmlns:rdf="http://www.w3.org/1999/02/22-rdf-syntax-ns#"
   xmlns:cc="http://creativecommons.org/ns#"
   xmlns:dc="http://purl.org/dc/elements/1.1/">
  <defs
     id="defs2" />
  <sodipodi:namedview
     id="namedview2"
     pagecolor="#ffffff"
     bordercolor="#111111"
     borderopacity="1"
     inkscape:showpageshadow="0"
     inkscape:pageopacity="0"
     inkscape:pagecheckerboard="1"
     inkscape:deskcolor="#d1d1d1"
     inkscape:zoom="4.2592135"
     inkscape:cx="75.95299"
     inkscape:cy="67.970295"
     inkscape:window-width="1920"
     inkscape:window-height="1009"
     inkscape:window-x="-8"
     inkscape:window-y="-8"
     inkscape:window-maximized="1"
     inkscape:current-layer="svg2" />
  <title
     id="title1">file_type_qsharp</title>
  <path
     d="M 79.795707,19.301104 H 91.850208 V 31.355606 H 103.90014 V 19.301104 h 12.04993 V 31.355606 H 128 V 43.437524 H 115.95464 V 55.482886 H 128 V 67.519109 H 115.95464 V 79.56904 H 103.90471 V 67.514539 H 91.859347 V 79.564471 H 79.804846 V 67.50997 H 67.750345 V 55.44176 H 79.804846 V 43.437524 H 67.750345 V 31.341897 H 79.809416 Z M 91.850208,55.464608 H 103.90014 V 43.437524 H 91.850208 Z"
     style="fill:#3333cc;stroke-width:4.56956"
     id="path1" />
  <path
     d="M 54.969284,89.2428 A 52.257496,52.257496 0 0 0 62.152633,60.948081 49.703111,49.703111 0 0 0 53.662389,30.78898 26.910143,26.910143 0 0 0 31.161873,19.004083 27.056369,27.056369 0 0 0 8.5882428,30.798119 49.543177,49.543177 0 0 0 0.05230339,60.95265 49.593442,49.593442 0 0 0 8.5882428,91.075194 27.04266,27.04266 0 0 0 31.166442,102.90122 26.242987,26.242987 0 0 0 46.06321,98.391061 l 10.537407,10.605949 7.206197,-10.966945 z m -23.624629,-5.565725 5.104199,5.122478 a 14.755111,14.755111 0 0 1 -5.364664,0.991594 15.239485,15.239485 0 0 1 -12.963843,-7.27931 37.12768,37.12768 0 0 1 -5.392082,-21.563756 37.013441,37.013441 0 0 1 5.41036,-21.586605 15.408559,15.408559 0 0 1 13.114639,-7.256462 15.125246,15.125246 0 0 1 12.881591,7.242753 37.369867,37.369867 0 0 1 5.355526,21.595744 41.642406,41.642406 0 0 1 -3.806445,18.963677 l -7.128514,-7.17878 z"
     style="fill:#3333cc;stroke-width:4.56956"
     id="path2" />
  <metadata
     id="metadata2">
    <rdf:RDF>
      <cc:Work
         rdf:about="">
        <dc:title>file_type_qsharp</dc:title>
      </cc:Work>
    </rdf:RDF>
  </metadata>
</svg>
