<?xml version="1.0" encoding="UTF-8" standalone="no"?>
<svg
   width="128"
   height="128"
   viewBox="0 0 128 128"
   version="1.1"
   id="svg2"
   sodipodi:docname="XQuery.svg"
   inkscape:version="1.3.2 (091e20e, 2023-11-25, custom)"
   xmlns:inkscape="http://www.inkscape.org/namespaces/inkscape"
   xmlns:sodipodi="http://sodipodi.sourceforge.net/DTD/sodipodi-0.dtd"
   xmlns="http://www.w3.org/2000/svg"
   xmlns:svg="http://www.w3.org/2000/svg"
   xmlns:rdf="http://www.w3.org/1999/02/22-rdf-syntax-ns#"
   xmlns:cc="http://creativecommons.org/ns#"
   xmlns:dc="http://purl.org/dc/elements/1.1/">
  <defs
     id="defs2" />
  <sodipodi:namedview
     id="namedview2"
     pagecolor="#ffffff"
     bordercolor="#111111"
     borderopacity="1"
     inkscape:showpageshadow="0"
     inkscape:pageopacity="0"
     inkscape:pagecheckerboard="1"
     inkscape:deskcolor="#d1d1d1"
     inkscape:zoom="4.2592135"
     inkscape:cx="73.370353"
     inkscape:cy="61.396312"
     inkscape:window-width="1920"
     inkscape:window-height="1009"
     inkscape:window-x="-8"
     inkscape:window-y="-8"
     inkscape:window-maximized="1"
     inkscape:current-layer="svg2" />
  <title
     id="title1">file_type_xquery</title>
  <path
     d="M 84.196698,74.597723 94.303044,84.704069 127.98629,51.02539 94.303044,17.342141 84.196698,27.453058 107.78274,51.02539 Z M 43.789597,27.453058 33.683251,17.342141 1.2696741e-6,51.02539 33.683251,84.70864 43.789597,74.602294 20.203551,51.02539 Z m 26.653145,-14.471593 7.313503,1.9975 -20.203551,74.090351 -7.313502,-1.9975 z"
     style="fill:#f1662a;stroke-width:4.57094"
     id="path1" />
  <path
     d="m 83.794455,62.279042 a 15.330929,15.330929 0 0 1 4.456666,-6.504446 18.347749,18.347749 0 0 1 7.391208,-3.656751 41.677822,41.677822 0 0 1 10.120061,-1.092455 25.012178,25.012178 0 0 1 16.82562,4.749206 15.998287,15.998287 0 0 1 5.39828,12.65693 20.432097,20.432097 0 0 1 -1.09702,6.81527 14.279613,14.279613 0 0 1 -3.83045,5.663394 l -7.65632,7.313502 a 6.9112598,6.9112598 0 0 0 -1.93808,3.606471 24.257973,24.257973 0 0 0 -0.45709,5.028033 H 95.98972 v -2.468307 a 28.888335,28.888335 0 0 1 0.946185,-8.12713 13.19173,13.19173 0 0 1 3.565335,-5.667964 l 6.17991,-5.89194 a 8.4105278,8.4105278 0 0 0 2.57343,-4.08642 16.830197,16.830197 0 0 0 0.4571,-3.656751 6.8564085,6.8564085 0 0 0 -1.15188,-4.113845 4.1138451,4.1138451 0 0 0 -3.56076,-1.581545 5.7365285,5.7365285 0 0 0 -2.20776,0.393101 3.3093598,3.3093598 0 0 0 -1.57241,1.540406 10.727994,10.727994 0 0 0 -0.99189,3.295647 34.80313,34.80313 0 0 0 -0.370249,5.667964 H 82.276903 a 28.13413,28.13413 0 0 1 1.517552,-9.88237 z m 29.514555,38.852978 v 13.88652 H 95.69718 v -13.88652 z"
     style="fill:#fcba00;stroke-width:4.57094"
     id="path2" />
  <metadata
     id="metadata2">
    <rdf:RDF>
      <cc:Work
         rdf:about="">
        <dc:title>file_type_xquery</dc:title>
      </cc:Work>
    </rdf:RDF>
  </metadata>
</svg>
