<svg xmlns="http://www.w3.org/2000/svg" viewBox="0 0 128 128">
    <path fill="#005ba1" d="M64 8.25c-3.465.008-6.93.164-10.383.477a99.14 99.14 0 0 0-6.27.773c-1.874.305-3.738.68-5.585 1.125-1.602.39-3.188.86-4.75 1.398-.676.25-1.348.52-2.012.813-.871.383-1.715.824-2.531 1.316-.242.145-.477.301-.711.461a8.93 8.93 0 0 0-2.035 1.969 4.713 4.713 0 0 0-.532 1.047 3.53 3.53 0 0 0-.148 1.535c.047.32.133.629.262.926.14.312.316.61.527.879.36.472.77.902 1.223 1.281a12.48 12.48 0 0 0 2.418 1.602 23.158 23.158 0 0 0 3.218 1.421c-.117.036-.234.075-.355.114a81.115 81.115 0 0 0 6.758 1.847c2.281.524 4.586.946 6.906 1.266 2.316.324 4.648.547 6.988.668a78.84 78.84 0 0 0 7.012.05c2.273.063 4.55.028 6.82-.105a80.66 80.66 0 0 0 6.778-.71c.468-.06.922-.13 1.37-.192.61-.09 1.216-.184 1.821-.285a57.39 57.39 0 0 0 3.89-.746 55.06 55.06 0 0 0 6.63-1.899c.89-.34 1.77-.715 2.629-1.133a19.913 19.913 0 0 0 2.148-1.242 11.382 11.382 0 0 0 1.578-1.324c.39-.418.727-.89.988-1.402.211-.461.325-.961.336-1.47a3.26 3.26 0 0 0-.406-1.585 4.68 4.68 0 0 0-.71-1.027 9.27 9.27 0 0 0-1.024-.973 10.43 10.43 0 0 0-.614-.484 14.733 14.733 0 0 0-1.484-.903 22.605 22.605 0 0 0-3.77-1.683 53.427 53.427 0 0 0-7.453-2.016 78.118 78.118 0 0 0-5.93-.973 97.165 97.165 0 0 0-6.558-.609c-2.344-.145-4.691-.21-7.039-.207ZM18.418 20.055v87.89c0 9.032 20.055 16.356 44.941 16.5H64c25.172 0 45.582-7.113 45.582-16.5v-87.89c0 9.172-20.41 16.496-45.582 16.496s-45.582-7.11-45.582-16.496Zm22.117 36.48c2.422-.097 4.836.29 7.11 1.137v6.113a11.533 11.533 0 0 0-7.11-2.062 4.847 4.847 0 0 0-2.988.855 2.418 2.418 0 0 0-1.067 2.133 3.13 3.13 0 0 0 .852 2.277 13.064 13.064 0 0 0 3.629 2.203 17.225 17.225 0 0 1 5.902 4.055 7.458 7.458 0 0 1 1.778 4.977 7.681 7.681 0 0 1-2.348 6.468 13.364 13.364 0 0 1-8.39 2.348 15.411 15.411 0 0 1-7.61-1.707v-6.613a11.801 11.801 0 0 0 7.75 2.988 5.786 5.786 0 0 0 3.203-.781 2.712 2.712 0 0 0 1.137-2.207 2.982 2.982 0 0 0-1.067-2.274 20.558 20.558 0 0 0-4.41-2.562c-4.836-2.133-7.11-4.977-7.11-8.602a7.68 7.68 0 0 1 2.985-6.332 11.67 11.67 0 0 1 7.754-2.414Zm25.598.281a14.228 14.228 0 0 1 7.113 1.852A12.87 12.87 0 0 1 78.223 64a16.509 16.509 0 0 1 2.347 7.54 16.634 16.634 0 0 1-2.347 8.956 12.736 12.736 0 0 1-7.114 5.406l8.75 7.82h-8.605l-6.117-7.109a14.679 14.679 0 0 1-7.11-2.133 12.526 12.526 0 0 1-4.906-5.261 16.06 16.06 0 0 1-1.707-7.114A17.48 17.48 0 0 1 53.262 64a13.217 13.217 0 0 1 5.191-5.262 15.015 15.015 0 0 1 7.68-1.922Zm19.199.075h6.402v24.175h11.094v5.192H85.332Zm-19.484 4.906a7.104 7.104 0 0 0-5.547 2.629 10.903 10.903 0 0 0-2.063 7.113 10.842 10.842 0 0 0 2.063 7.11 6.538 6.538 0 0 0 5.406 2.558 6.673 6.673 0 0 0 5.402-2.488 10.355 10.355 0 0 0 1.993-7.18c.156-2.52-.52-5.016-1.918-7.113a6.181 6.181 0 0 0-5.336-2.63Zm0 0"/>
</svg>
