<svg viewBox="0 0 128 128" xmlns="http://www.w3.org/2000/svg">
  <path fill="#087cfa" d="M29.816 5.816 25.33 23.197 5.816 29.332l10.75 27.807L6.91 94.547l26.785 27.637h30.91l4.676-22.23H28.047V28.046h71.906V92.84l22.23-8.356v-51.03L80.606 5.815l-32.37 10.179-18.42-10.178zm-.77 23.23v69.907h69.907V29.047H29.047zm45.352 7.893c3.903 0 7.211 1.18 9.93 3.424l-3.074 4.375c-2.363-1.656-4.727-2.6-6.973-2.6-2.246 0-3.426 1.063-3.426 2.364v.115c0 1.774 1.18 2.363 5.79 3.547 5.437 1.418 8.507 3.31 8.507 8.035v.121c0 5.317-4.015 8.272-9.808 8.272-4.016-.117-8.153-1.535-11.344-4.371l3.426-4.139c2.367 2.008 4.965 3.191 7.918 3.191 2.367 0 3.902-.943 3.902-2.478v-.121c0-1.535-.945-2.248-5.32-3.428-5.434-1.3-8.864-2.834-8.864-8.154v-.117c0-4.844 3.903-8.036 9.336-8.036zm-37.671.698h10.367c8.41 0 14.086 5.672 14.086 13.105 0 7.434-5.672 13.301-14.086 13.301l-10.367.195V37.637zm5.867 5.476v15.844h4.5c4.695 0 8.02-3.13 8.02-7.824 0-4.696-3.13-8.02-8.02-8.02h-4.5zm-6.168 44.13h26.39v4.331h-26.39v-4.332z"/>
</svg>
