<svg xmlns="http://www.w3.org/2000/svg" viewBox="0 0 128 128">
    <path d="M20.113 56.688H5.484v14.624h14.63Zm0 0"/>
    <path fill="#fff" d="M12.8 68.559H7.313v.925h5.489ZM7.313 58.516h2.149c1.73 0 2.898 1.168 2.898 2.73v.024c0 1.535-1.191 2.73-2.898 2.73h-2.15Zm1.223 1.097v3.29h.926c.973 0 1.656-.657 1.656-1.633v-.024c0-.976-.656-1.66-1.656-1.66h-.926Zm4.266 3.606.707-.852c.488.414 1.023.656 1.656.656.488 0 .805-.195.805-.511v-.024c0-.316-.196-.465-1.121-.707-1.121-.293-1.828-.586-1.828-1.683v-.024c0-1 .804-1.656 1.925-1.656.805 0 1.489.242 2.047.707l-.633.926c-.488-.344-.976-.535-1.437-.535-.465 0-.707.218-.707.484v.027c0 .364.242.485 1.195.73 1.121.294 1.754.684 1.754 1.657v.027c0 1.094-.828 1.704-2.023 1.704-.829-.047-1.684-.34-2.34-.926Zm0 0"/>
    <path d="M25.648 56.734h5.657c4.558 0 7.703 3.121 7.703 7.22V64c0 4.098-3.145 7.266-7.703 7.266h-5.657Zm3.196 2.903v8.75h2.46c2.61 0 4.364-1.754 4.364-4.34V64c0-2.559-1.754-4.363-4.363-4.363Zm11.191 8.433v-.047c0-2.414 1.852-3.535 4.485-3.535 1.12 0 1.925.196 2.707.461v-.195c0-1.317-.805-2.024-2.391-2.024-1.195 0-2.047.223-3.07.61l-.782-2.41c1.22-.54 2.414-.903 4.317-.903 1.73 0 2.972.461 3.754 1.243.828.828 1.195 2.046 1.195 3.535v6.437h-3.047v-1.195c-.758.851-1.832 1.414-3.367 1.414-2.07 0-3.8-1.195-3.8-3.39Zm7.238-.73v-.559a4.894 4.894 0 0 0-2-.418c-1.34 0-2.168.54-2.168 1.54v.046c0 .856.708 1.34 1.73 1.34 1.438 0 2.438-.805 2.438-1.95Zm5.293.758v-5.27H51.25v-2.68h1.316v-2.851h3.145v2.851h2.61v2.707h-2.61v4.754c0 .73.316 1.07 1.023 1.07.586 0 1.098-.144 1.559-.386v2.535c-.656.387-1.438.633-2.484.633-1.926-.023-3.243-.781-3.243-3.363Zm6.582-.028v-.047c0-2.414 1.852-3.535 4.485-3.535 1.12 0 1.926.196 2.707.461v-.195c0-1.317-.805-2.024-2.387-2.024-1.195 0-2.05.223-3.074.61l-.781-2.41c1.218-.54 2.414-.903 4.316-.903 1.73 0 2.977.461 3.754 1.243.832.828 1.195 2.046 1.195 3.535v6.437h-3.047v-1.195c-.757.851-1.828 1.414-3.363 1.414-2.074 0-3.805-1.195-3.805-3.39Zm7.243-.73v-.559a4.922 4.922 0 0 0-2-.418c-1.34 0-2.172.54-2.172 1.54v.046c0 .856.707 1.34 1.734 1.34 1.438 0 2.438-.805 2.438-1.95Zm4.214 1.805 1.88-2.27c1.316 1.074 2.683 1.758 4.34 1.758 1.316 0 2.097-.512 2.097-1.367v-.047c0-.805-.488-1.219-2.926-1.852-2.926-.758-4.805-1.562-4.805-4.437v-.051c0-2.633 2.121-4.363 5.07-4.363 2.122 0 3.927.656 5.391 1.851l-1.66 2.414c-1.289-.902-2.558-1.437-3.777-1.437-1.219 0-1.88.558-1.88 1.265v.051c0 .95.638 1.266 3.122 1.903 2.953.753 4.61 1.828 4.61 4.363v.047c0 2.879-2.196 4.511-5.34 4.511-2.168-.023-4.387-.78-6.122-2.34ZM83.7 60.148h3.145v1.586c.758-1.05 1.828-1.804 3.465-1.804 2.582 0 5.046 2.023 5.046 5.754v.046c0 3.707-2.414 5.754-5.046 5.754-1.684 0-2.707-.754-3.465-1.656v4.777H83.7Zm8.535 5.582v-.046c0-1.856-1.246-3.075-2.707-3.075-1.465 0-2.707 1.22-2.707 3.075v.046c0 1.856 1.22 3.075 2.707 3.075 1.461-.028 2.707-1.22 2.707-3.075Zm4.094.024v-.047c0-3.168 2.27-5.777 5.488-5.777 3.704 0 5.41 2.875 5.41 6.02 0 .245-.023.538-.046.831h-7.707c.32 1.438 1.316 2.168 2.707 2.168 1.05 0 1.828-.34 2.707-1.144l1.804 1.582c-1.046 1.293-2.535 2.074-4.535 2.074-3.363.047-5.828-2.293-5.828-5.707Zm7.852-.926c-.196-1.414-1.024-2.363-2.34-2.363-1.317 0-2.145.926-2.414 2.363Zm4.73-8.703h3.145v15.14h-3.145Zm5.41 0h3.149v15.14h-3.149Zm0 0"/>
</svg>
