<?xml version="1.0" encoding="UTF-8" standalone="no"?>
<svg
   width="128"
   height="128"
   viewBox="0 0 128 128"
   version="1.1"
   id="svg1"
   sodipodi:docname="EJS.svg"
   inkscape:version="1.3.2 (091e20e, 2023-11-25, custom)"
   xmlns:inkscape="http://www.inkscape.org/namespaces/inkscape"
   xmlns:sodipodi="http://sodipodi.sourceforge.net/DTD/sodipodi-0.dtd"
   xmlns="http://www.w3.org/2000/svg"
   xmlns:svg="http://www.w3.org/2000/svg"
   xmlns:rdf="http://www.w3.org/1999/02/22-rdf-syntax-ns#"
   xmlns:cc="http://creativecommons.org/ns#"
   xmlns:dc="http://purl.org/dc/elements/1.1/">
  <defs
     id="defs1" />
  <sodipodi:namedview
     id="namedview1"
     pagecolor="#ffffff"
     bordercolor="#111111"
     borderopacity="1"
     inkscape:showpageshadow="0"
     inkscape:pageopacity="0"
     inkscape:pagecheckerboard="1"
     inkscape:deskcolor="#d1d1d1"
     inkscape:zoom="4.2592135"
     inkscape:cx="65.857229"
     inkscape:cy="55.761469"
     inkscape:window-width="1920"
     inkscape:window-height="1009"
     inkscape:window-x="-8"
     inkscape:window-y="-8"
     inkscape:window-maximized="1"
     inkscape:current-layer="svg1" />
  <title
     id="title1">file_type_ejs</title>
  <path
     d="M 1.0166889e-6,71.63872 V 56.352138 L 54.216166,28.009792 V 42.052967 L 14.171174,63.716577 54.225309,85.819035 V 99.990208 Z M 127.14742,31.045166 79.838561,97.04169 H 63.596569 L 110.99686,31.040594 Z m -13.10605,58.092667 a 3.6296488,3.6296488 0 0 0 2.82967,-1.270835 4.8501983,4.8501983 0 0 0 1.13369,-3.346225 5.215906,5.215906 0 0 0 -1.13369,-3.442224 3.5107938,3.5107938 0 0 0 -5.56333,0 5.215906,5.215906 0 0 0 -1.1337,3.442224 4.9827673,4.9827673 0 0 0 1.08341,3.346225 3.4879371,3.4879371 0 0 0 2.78395,1.270835 z m 9.99297,4.763342 a 14.797447,14.797447 0 0 1 -19.8945,-0.04571 13.092335,13.092335 0 0 1 0,-18.742519 14.733449,14.733449 0 0 1 19.8945,0 12.676343,12.676343 0 0 1 3.96335,9.389545 12.525488,12.525488 0 0 1 -3.95878,9.380402 z M 76.894615,50.560243 a 3.6296488,3.6296488 0 0 0 2.829663,-1.270835 4.8501983,4.8501983 0 0 0 1.133694,-3.346225 5.215906,5.215906 0 0 0 -1.133694,-3.442224 3.5153652,3.5153652 0 0 0 -5.563328,0 5.215906,5.215906 0 0 0 -1.133694,3.442224 4.9827673,4.9827673 0 0 0 1.083409,3.346225 3.4879371,3.4879371 0 0 0 2.78395,1.270835 z m 9.992962,4.749628 a 14.797447,14.797447 0 0 1 -19.894498,-0.04571 13.092335,13.092335 0 0 1 0,-18.742519 14.733449,14.733449 0 0 1 19.894498,0 12.676343,12.676343 0 0 1 3.958786,9.430687 12.525488,12.525488 0 0 1 -3.958786,9.357545 z"
     style="fill:#90a93a;stroke-width:4.57135"
     id="path1" />
  <metadata
     id="metadata1">
    <rdf:RDF>
      <cc:Work
         rdf:about="">
        <dc:title>file_type_ejs</dc:title>
      </cc:Work>
    </rdf:RDF>
  </metadata>
</svg>
