<?xml version="1.0" encoding="UTF-8" standalone="no"?>
<svg
   width="128"
   height="128"
   viewBox="0 0 128 128"
   version="1.1"
   id="svg4"
   sodipodi:docname="codeql-original.svg"
   inkscape:version="1.3.2 (091e20e, 2023-11-25, custom)"
   xmlns:inkscape="http://www.inkscape.org/namespaces/inkscape"
   xmlns:sodipodi="http://sodipodi.sourceforge.net/DTD/sodipodi-0.dtd"
   xmlns="http://www.w3.org/2000/svg"
   xmlns:svg="http://www.w3.org/2000/svg"
   xmlns:rdf="http://www.w3.org/1999/02/22-rdf-syntax-ns#"
   xmlns:cc="http://creativecommons.org/ns#"
   xmlns:dc="http://purl.org/dc/elements/1.1/">
  <defs
     id="defs4" />
  <sodipodi:namedview
     id="namedview4"
     pagecolor="#ffffff"
     bordercolor="#111111"
     borderopacity="1"
     inkscape:showpageshadow="0"
     inkscape:pageopacity="0"
     inkscape:pagecheckerboard="1"
     inkscape:deskcolor="#d1d1d1"
     inkscape:zoom="4.2592135"
     inkscape:cx="85.10961"
     inkscape:cy="43.083071"
     inkscape:window-width="1920"
     inkscape:window-height="1009"
     inkscape:window-x="-8"
     inkscape:window-y="-8"
     inkscape:window-maximized="1"
     inkscape:current-layer="svg4" />
  <title
     id="title1">file_type_codeql</title>
  <path
     d="M 113.77829,100.57143 H 14.221714 A 13.993143,13.993143 0 0 1 0,86.857143 V 41.142857 A 13.993143,13.993143 0 0 1 14.221714,27.428571 H 113.77829 A 13.993143,13.993143 0 0 1 128,41.142857 V 86.857143 A 13.993143,13.993143 0 0 1 113.77829,100.57143 Z M 14.221714,36.571429 a 4.6628571,4.6628571 0 0 0 -4.740571,4.571428 v 45.714286 a 4.6628571,4.6628571 0 0 0 4.740571,4.571429 h 99.556576 a 4.6628571,4.6628571 0 0 0 4.74057,-4.571429 V 41.142857 a 4.6628571,4.6628571 0 0 0 -4.74057,-4.571428 z"
     style="fill:#2088ff;stroke-width:4.57143"
     id="path1" />
  <path
     d="m 94.816,59.428572 h -9.481143 a 4.5714286,4.5714286 0 1 1 0,-9.142857 H 94.816 a 4.5714286,4.5714286 0 1 1 0,9.142857 z"
     style="fill:#2088ff;stroke-width:4.57143"
     id="path2" />
  <path
     d="M 104.29714,77.714286 H 85.334857 a 4.5714286,4.5714286 0 1 1 0,-9.142857 h 18.962283 a 4.5714286,4.5714286 0 1 1 0,9.142857 z"
     style="fill:#2088ff;stroke-width:4.57143"
     id="path3" />
  <path
     d="m 46.706286,64 a 15.597714,15.597714 0 0 1 -1.170286,6.258286 12.164571,12.164571 0 0 1 -3.2,4.443429 l 3.945143,4.777142 h -5.44 L 38.614857,76.845715 A 14.057143,14.057143 0 0 1 33.782857,77.664 13.444571,13.444571 0 0 1 27.181714,76.050286 11.606857,11.606857 0 0 1 22.564571,71.382857 14.976,14.976 0 0 1 20.873143,64 a 14.998857,14.998857 0 0 1 1.700571,-7.401143 11.611429,11.611429 0 0 1 4.617143,-4.658285 14.345143,14.345143 0 0 1 13.184,0 11.634286,11.634286 0 0 1 4.626286,4.658285 A 14.953143,14.953143 0 0 1 46.706286,64 Z m -14.934857,4.050286 h 4.955428 l 2.048,2.532571 A 7.7714286,7.7714286 0 0 0 40.260571,67.84 12.425143,12.425143 0 0 0 40.795429,64 9.6411429,9.6411429 0 0 0 38.88,57.540572 6.368,6.368 0 0 0 33.792,55.314286 6.4,6.4 0 0 0 28.699429,57.545143 9.6411429,9.6411429 0 0 0 26.788571,64 9.6548571,9.6548571 0 0 0 28.699429,70.454857 6.3634286,6.3634286 0 0 0 33.792,72.690286 7.6068571,7.6068571 0 0 0 35.300571,72.544 Z m 21.257142,9.664 V 50.285715 h 5.833143 V 73.078857 H 70.688 v 4.635429 z"
     style="fill:#2088ff;stroke-width:4.57143"
     id="path4" />
  <metadata
     id="metadata4">
    <rdf:RDF>
      <cc:Work
         rdf:about="">
        <dc:title>file_type_codeql</dc:title>
      </cc:Work>
    </rdf:RDF>
  </metadata>
</svg>
