<svg xmlns="http://www.w3.org/2000/svg" viewBox="0 0 128 128"><path fill="#02228e" d="M100.288 40.2065v36.5158h8.7361v-8.1992l7.8097 8.1973H128v-1.1182l-11.013-11.17 10.3774-9.5694v-1.0871H116.454l-7.4299 7.238V40.2085h-.496c-2.582-.0013-5.1634.0033-7.744 0zm.9923.9942c2.2513.0022 4.5014-.0007 6.7516 0v22.1656l8.8252-8.5984h9.145l-10.4434 9.6313 11.172 11.329h-9.4705l-9.2283-9.6837v9.6856h-6.7516zM85.2829 52.9676c-1.9663 0-3.7901.3046-5.459.9243-1.665.6169-3.1073 1.4759-4.3293 2.5523h-.002a11.7637 11.7637 0 0 0-2.8642 3.8428l-.002.002c-.6854 1.482-1.0251 3.0796-1.0251 4.7692 0 1.8587.3372 3.5674 1.0232 5.1024a11.7946 11.7946 0 0 0 2.8429 3.9495c1.2059 1.1003 2.639 1.9546 4.2963 2.5444 1.6586.59 3.4575.8857 5.3912.8857 1.9608 0 3.7936-.297 5.4959-.8857 1.6931-.5879 3.16-1.4255 4.3796-2.5192l.002-.002a11.8132 11.8132 0 0 0 2.8817-3.8836v-.002c.702-1.5096 1.0542-3.1719 1.0542-4.9842 0-1.7991-.3433-3.4685-1.0251-4.9746v-.004a11.7071 11.7071 0 0 0-2.8952-3.8853c-1.2324-1.0825-2.6888-1.923-4.3525-2.527-1.6709-.6067-3.4773-.905-5.4126-.905Zm-48.4551.2034v.0524c-1.4715.0592-2.865.3364-4.1394.9166a11.3356 11.3356 0 0 0-3.6703 2.6375l-.002.002c-1.026 1.1191-1.8343 2.4233-2.4243 3.9242-.598 1.5006-.8915 3.1253-.8915 4.866 0 1.7078.2727 3.2767.8236 4.7033v.002h.002c.5526 1.4078 1.3254 2.6323 2.3274 3.651h.002v.002a10.7744 10.7744 0 0 0 3.5696 2.3798c1.3779.5682 2.8874.8527 4.5115.8527.732 0 1.4186-.0523 2.0483-.159a8.4043 8.4043 0 0 0 1.8197-.5232l.004-.002.002-.002a10.413 10.413 0 0 0 1.6878-.9186l.004-.002.0038-.0039c.3062-.2128.5764-.4707.8643-.7073v4.211h-.0039v.5582h-6.9783l-5.7227 6.4435v1.7383H52.11V53.7757h-8.7399v1.839c-1.7072-1.5144-3.7035-2.4437-6.0462-2.4437zm-25.429.5775v.3101l-2.6589 3.0309v-3.2557H0v22.9544h8.74V61.969h6.7845l.1027-.002v14.8152h8.74V62.5504c0-1.2027-.115-2.284-.3508-3.246v-.002a6.5792 6.5792 0 0 0-1.3895-2.6878 8.8542 8.8542 0 0 0-1.4534-1.3507h-.002a8.8465 8.8465 0 0 0-1.5155-.8914l-.002-.002-.002-.002a7.0452 7.0452 0 0 0-.8333-.312h-.002a9.2524 9.2524 0 0 0-1.3234-.3022l-.0368-.0059zm42.9398.0272V76.728h8.7593l.0077-14.695h5.3641l6.426-7.2652v-.9922h-9.1662l-2.6433 2.9766v-2.9766h-8.2496zm30.9443.184c1.8332 0 3.5197.2809 5.0735.845 1.5609.5667 2.9036 1.3458 4.0366 2.341a10.7123 10.7123 0 0 1 2.6491 3.556c.6188 1.3683.934 2.8898.934 4.5618 0 1.6855-.3222 3.1943-.9611 4.5676h-.002a10.8238 10.8238 0 0 1-2.6414 3.5619l-.002.002c-1.1135.999-2.4582 1.7728-4.0444 2.3235v-.002c-1.5918.5504-3.3091.8314-5.1703.8314-1.832 0-3.5142-.2807-5.0579-.8294h-.002c-1.5427-.5493-2.8536-1.3323-3.9591-2.341a10.8018 10.8018 0 0 1-2.6045-3.62v-.002c-.6238-1.3959-.938-2.9584-.938-4.6975 0-1.5569.3098-3.0028.934-4.3525a10.7767 10.7767 0 0 1 2.624-3.5192c1.1272-.9925 2.4585-1.7868 4.0173-2.3642 1.5478-.5749 3.2505-.8624 5.114-.8624zm-47.959.2055h.0097c2.4633.0026 4.4863.9045 6.1644 2.7499l.8643.9495V54.768h6.7555v32.0334H31.6575v-.3682l5.1761-5.8292h7.5249v-.5581h.0039v-7.4163l-.8392.808a12.9108 12.9108 0 0 1-1.5833 1.2985 9.4214 9.4214 0 0 1-1.5212.8274 7.4242 7.4242 0 0 1-1.6007.4593c-.565.0957-1.1969.1454-1.8817.1454-1.5093 0-2.8821-.2619-4.1316-.7771h-.002a9.7887 9.7887 0 0 1-3.2421-2.1608l-.002-.002c-.9015-.917-1.5998-2.0188-2.1084-3.3138-.5028-1.3019-.7577-2.7425-.7577-4.3448 0-1.63.273-3.1254.8216-4.5017v-.002c.549-1.3963 1.292-2.5881 2.2344-3.6161a10.3437 10.3437 0 0 1 3.3487-2.4069h.002c1.286-.5855 2.6876-.8778 4.2246-.8778zm-25.2024.5755h5.2479c.392.061.7796.149 1.1588.2655.2445.0744.484.1648.717.2694l-.0039-.0039a7.856 7.856 0 0 1 1.345.7926c.473.3498.9053.7515 1.2886 1.1976a5.5781 5.5781 0 0 1 1.1764 2.279c.2126.8677.3236 1.8707.3236 3.0095v13.2398h-6.7555V60.9556l-1.1046.0213h-7.767v14.819H.9921V54.826h6.7555v4.899zm43.2093.0272h6.7633v4.5928l4.0812-4.5928h7.395l-5.5482 6.273h-5.9086l-.0077 14.695h-6.775Zm-16.5806 4.9145v.1085c-.5562.052-1.117.1113-1.6279.343a6.0151 6.0151 0 0 0-1.7247 1.1608 5.488 5.488 0 0 0-1.2034 1.715c-.3012.663-.4474 1.3793-.4477 2.1279v.002a5.5697 5.5697 0 0 0 .4206 2.182v.002a5.68 5.68 0 0 0 1.151 1.7577l.002.002.002.002a5.285 5.285 0 0 0 1.75 1.1802 5.5495 5.5495 0 0 0 2.182.4205 5.4357 5.4357 0 0 0 2.1376-.4205l.002-.002c.6634-.2831 1.2493-.6742 1.7421-1.1802l.002-.002.004-.0039a6.0955 6.0955 0 0 0 1.1588-1.7441v-.002a5.323 5.323 0 0 0 .4573-2.1433v-.002c0-.7787-.1483-1.512-.4515-2.1782l-.002-.002v-.002c-.3004-.6435-.692-1.2192-1.1957-1.7228a5.4007 5.4007 0 0 0-1.7673-1.1724c-.6712-.2811-1.369-.4236-2.0891-.4244-.0021 0-.0038-.002-.0059-.002zm46.5327 0-.4922.0039v.0969c-.5607.0495-1.1245.1084-1.6453.3275-.6717.277-1.2533.6727-1.744 1.1744l-.002.002v.002a6.0539 6.0539 0 0 0-1.1647 1.7208c-.3014.6635-.4477 1.3805-.4477 2.1298 0 .8028.1444 1.5514.4457 2.2324.2925.6585.6778 1.2467 1.1666 1.748.0004.0004.0016-.0004.002 0 .0004.0004-.0003.0016 0 .002a5.136 5.136 0 0 0 1.7441 1.1821c.0006.0003.0014-.0002.002 0a5.4623 5.4623 0 0 0 2.1414.4244c.7467-.0002 1.46-.1405 2.1356-.4244a5.2313 5.2313 0 0 0 1.744-1.1802l.004-.0039.002-.002a6.1301 6.1301 0 0 0 1.1627-1.746l.002-.002a5.351 5.351 0 0 0 .4438-2.186c-.0002-.7485-.1461-1.4714-.4457-2.1452l-.002-.002c-.2956-.6561-.6759-1.2417-1.1647-1.748a5.0709 5.0709 0 0 0-1.744-1.1782c-.0007-.0003-.0015.0002-.002 0a5.4138 5.4138 0 0 0-2.1337-.4264c-.0027 0-.0051-.002-.0077-.002zm-46.0405.9941h.0136c.5903.0013 1.1484.1151 1.7053.3488h.004a4.411 4.411 0 0 1 1.4418.9593c.4186.4188.741.8892.998 1.4399.2394.5274.3605 1.109.3605 1.7615a4.3334 4.3334 0 0 1-.3721 1.746l-.002.002a5.0992 5.0992 0 0 1-.9709 1.4612c-.3971.4064-.8639.7196-1.4166.9554a4.4416 4.4416 0 0 1-1.746.343h-.0098a4.556 4.556 0 0 1-1.7965-.345 4.29 4.29 0 0 1-1.4166-.9553l-.002-.002-.002-.002a4.6953 4.6953 0 0 1-.9476-1.4457v-.002a4.5787 4.5787 0 0 1-.3449-1.7963v-.006c0-.6219.1182-1.1917.3585-1.7208l.002-.002a4.4942 4.4942 0 0 1 .9864-1.4069 5.0202 5.0202 0 0 1 1.4399-.969l.002-.002h.002a4.0456 4.0456 0 0 1 1.713-.3623zm46.0405 0h.0175a4.4086 4.4086 0 0 1 1.7383.347l.0039.0019.0039.002a4.082 4.082 0 0 1 1.4108.9496c.4015.4158.717.8979.9728 1.465.2419.544.3604 1.1222.3604 1.7441v.006a4.3535 4.3535 0 0 1-.3623 1.7809 5.136 5.136 0 0 1-.9729 1.4611 4.2471 4.2471 0 0 1-1.4127.9535l-.002.002c-.5562.2337-1.13.3469-1.7538.3469h-.002a4.4774 4.4774 0 0 1-1.7557-.347l-.002-.002h-.002a4.1485 4.1485 0 0 1-1.4128-.9572h-.002v-.002c-.4008-.4108-.72-.893-.9708-1.4574v-.002c-.24-.543-.3605-1.1446-.3605-1.8294 0-.622.1182-1.1917.3585-1.7208v-.002a5.0575 5.0575 0 0 1 .9748-1.4399c.4011-.4095.862-.7248 1.4127-.9515h.002l.002-.002a4.4464 4.4464 0 0 1 1.7538-.3469z"/></svg>
