<svg viewBox="0 0 128 128" xmlns="http://www.w3.org/2000/svg"><g fill="#02228e"><path d="m43.711 56.523c-1.7773-1.9531-3.9805-2.9375-6.5938-2.9375-1.6133 0-3.1016 0.30859-4.4648 0.92969-1.3633 0.62109-2.543 1.4648-3.5391 2.543-0.99219 1.082-1.7734 2.3398-2.3477 3.8008-0.57812 1.4492-0.86328 3.0234-0.86328 4.7227 0 1.668 0.26562 3.1836 0.79688 4.5586 0.53516 1.3633 1.2773 2.5352 2.2383 3.5117 0.96484 0.97656 2.1094 1.7383 3.4336 2.2891 1.3242 0.54688 2.7773 0.82031 4.3555 0.82031 0.71484 0 1.3789-0.050781 1.9805-0.15234 0.60156-0.10156 1.1797-0.26953 1.7266-0.49609 0.55078-0.23438 1.0859-0.52734 1.6211-0.88281 0.52734-0.35938 1.082-0.81641 1.6562-1.3594v5.8008h-0.003907v0.5625h-7.3086l-5.4922 6.1836v1.0625h20.613v-33.285h-7.8086zm-0.019532 10.633c-0.27344 0.61328-0.63281 1.1562-1.0742 1.6172-0.44922 0.46094-0.98047 0.81641-1.5938 1.0781-0.61719 0.26172-1.2734 0.38672-1.9609 0.38672-0.72266 0-1.3906-0.125-2.0078-0.38672-0.61328-0.26172-1.1523-0.61719-1.5977-1.0781-0.44922-0.46094-0.79688-1.0039-1.0586-1.6172-0.26172-0.61719-0.38672-1.293-0.38672-2.0078 0-0.69141 0.13281-1.3398 0.40625-1.9414 0.27344-0.60156 0.63672-1.125 1.1055-1.5742 0.46094-0.44531 0.98828-0.80078 1.5938-1.0742 0.60156-0.27734 1.25-0.41016 1.9375-0.41016 0.66406 0 1.3008 0.12891 1.9219 0.39062 0.61328 0.25391 1.1562 0.61328 1.6172 1.0742 0.46484 0.46484 0.82422 0.99219 1.1055 1.5938 0.27344 0.60156 0.41016 1.2656 0.41016 1.9883-0.007813 0.6875-0.14062 1.3438-0.41797 1.9609z" /><path d="m21.926 56.883c-0.41406-0.48828-0.88281-0.91016-1.3828-1.2852-0.44922-0.32422-0.92578-0.61328-1.4414-0.84766-0.24609-0.11328-0.50781-0.20703-0.78125-0.29297-0.39453-0.12891-0.82422-0.21484-1.2656-0.28906h-5.5664l-3.6797 4.1953v-4.1094h-7.8086v22.133h7.8086v-14.934h7.332l0.60938-0.011719v14.941h7.8086v-13.844c0-1.1797-0.11328-2.2305-0.33984-3.1523-0.22656-0.91797-0.65625-1.7461-1.293-2.5039z" /><path d="m74.484 54.195h-5.7891-2.7266l-3.3867 3.8125v-3.8125h-7.8164v22.133h7.8281l0.007812-14.812h5.6797l6.2031-7.0117z" /><path d="m108.88 67.309 8.5859 9.0117h10.539v-0.42187l-11.32-11.48 10.68-9.8477v-0.375h-10.293l-8.1914 7.9805v-21.656h-7.8047v35.801h7.8047z" /><path d="m94.965 56.715c-1.1914-1.0469-2.6016-1.8633-4.2266-2.4531-1.625-0.58984-3.3867-0.88281-5.2852-0.88281-1.9297 0-3.707 0.30078-5.3281 0.90234-1.625 0.60156-3.0234 1.4336-4.207 2.4766-1.1797 1.0508-2.1016 2.2891-2.7656 3.7109-0.66016 1.4258-0.98828 2.9609-0.98828 4.5977 0 1.8125 0.32813 3.4609 0.98828 4.9375 0.66406 1.4805 1.5742 2.75 2.7461 3.8164 1.1641 1.0625 2.5469 1.8867 4.1602 2.4609 1.6133 0.57422 3.3672 0.86328 5.2656 0.86328 1.9258 0 3.7148-0.28906 5.375-0.86328 1.6523-0.57422 3.0703-1.3867 4.2461-2.4414 1.1797-1.0508 2.1094-2.3008 2.7852-3.7539 0.67578-1.4531 1.0156-3.0508 1.0156-4.8125 0-1.75-0.33203-3.3594-0.98828-4.8086-0.67187-1.4453-1.6016-2.6992-2.793-3.75zm-4.875 10.48c-0.27734 0.61719-0.63672 1.1562-1.0781 1.6172-0.44922 0.46484-0.97656 0.81641-1.5938 1.0781-0.62109 0.26172-1.2695 0.39062-1.9609 0.39062-0.6875 0-1.3438-0.12891-1.9648-0.39062-0.61719-0.26172-1.1523-0.61328-1.5938-1.0781-0.44922-0.46094-0.80469-1-1.0781-1.6172-0.27344-0.61719-0.40625-1.2969-0.40625-2.0469 0-0.69141 0.13281-1.3398 0.40625-1.9414 0.27344-0.60156 0.62891-1.1289 1.0781-1.5938 0.44922-0.46094 0.97656-0.82031 1.5938-1.0742 0.62109-0.26172 1.2695-0.39062 1.9648-0.39062 0.69141 0 1.3477 0.12891 1.9609 0.39062 0.61719 0.25391 1.1523 0.61328 1.5938 1.0742 0.44922 0.46484 0.80078 1.0039 1.0781 1.6211 0.27344 0.61328 0.40625 1.2695 0.40625 1.9609 0 0.71484-0.13281 1.3828-0.40625 2z" /></g></svg>
