<svg viewBox="0 0 128 128" xmlns="http://www.w3.org/2000/svg"><path fill="#f16822" d="M109.043 26.03c-4.368-2.524-8.284-3.752-11.62-4.247-.87-1.903-3.003-4.138-7.337-6.612-14.222-8.122-28.436-.085-28.436-.085L42.684 26.03l9.479 5.469L71.12 20.555s4.743-2.74 9.478 0c4.744 2.738 0 5.477 0 5.477L61.642 36.978l9.479 5.469L90.094 31.49c.282-.162 4.872-2.645 9.462.01 4.743 2.739 0 5.469 0 5.469L80.599 47.917l9.478 5.477 23.701-13.684s9.479-5.47-4.735-13.677z"/><path fill="#808285" d="M42.684 26.03s-4.744 2.74-4.744 8.209v27.335s0 5.478-4.743 2.739c-4.744-2.74-4.744-8.207-4.744-8.207V28.77c0-.341.017-.674.051-.998.52-4.812 4.684-7.218 4.684-7.218l-9.479-5.468s-.01 0-.017.01c-.281.162-4.726 2.9-4.726 8.198V50.63s0 5.477-4.744 2.739C9.48 50.628 9.48 45.16 9.48 45.16V17.827c0-5.47 4.743-8.208 4.743-8.208L4.744 4.14S0 6.88 0 12.348v27.336s0 16.423 14.222 24.63c4.36 2.517 7.38 2.714 9.479 1.784 2.099 3.353 5.119 6.646 9.479 9.163 14.222 8.207 14.222-8.208 14.222-8.208V39.718c0-5.477 4.743-8.208 4.743-8.208z"/><path d="M80.6 47.924s-4.745 2.738-4.745 8.207v27.336s0 5.476-4.744 2.738c-4.743-2.74-4.744-8.207-4.744-8.207L56.89 72.52s0 16.424 14.222 24.63c14.223 8.21 14.223-8.207 14.223-8.207V61.61c0-5.47 4.742-8.209 4.742-8.209L80.6 47.924zm-23.694 2.799v10.945l9.479 5.469V56.19l-9.479-5.468zm45.026 11.64c-3.556.026-7.112 2.079-7.112 10.184 0 16.21 14.223 24.629 14.223 24.629l4.744 2.74s4.742 2.738 4.742 8.207c0 5.477-4.742 2.738-4.742 2.738L94.82 99.914v10.947l18.957 10.948S128 130.015 128 113.599c0-16.414-9.479-21.892-9.479-21.892l-9.478-5.469s-4.744-2.738-4.744-8.207c0-5.486 4.744-2.746 4.744-2.746v-.002L128 86.23V75.285L109.043 64.34s-3.556-2.002-7.111-1.977z" fill="#bcbec0"/></svg>
