<?xml version="1.0" encoding="UTF-8"?>
<svg xmlns="http://www.w3.org/2000/svg" xmlns:xlink="http://www.w3.org/1999/xlink" width="128px" height="128px" viewBox="0 0 128 128" version="1.1">
<g id="surface1">
<path style=" stroke:none;fill-rule:nonzero;fill:rgb(0%,0%,0%);fill-opacity:1;" d="M 18.046875 20.914062 L 16.851562 22.722656 L 16.726562 35.960938 C 16.640625 46.695312 16.726562 49.804688 17.28125 52.3125 C 18.261719 56.976562 19.96875 60.640625 22.484375 63.597656 C 25.046875 66.660156 29.695312 69.46875 31.445312 69.066406 C 32.339844 68.863281 32.980469 69.367188 35.199219 72.023438 C 39.296875 76.941406 43.945312 78.996094 46.421875 76.941406 C 48.683594 75.085938 48.851562 74.03125 49.066406 58.933594 C 49.238281 48.953125 49.449219 44.589844 49.835938 43.785156 C 50.601562 42.183594 52.351562 40.777344 59.648438 35.863281 C 66.816406 31.046875 68.820312 30.34375 71.167969 31.800781 C 73.046875 32.953125 73.558594 34.257812 72.617188 35.511719 C 72.234375 36.011719 68.949219 38.46875 65.40625 40.878906 C 61.824219 43.285156 58.878906 45.292969 58.878906 45.390625 C 58.878906 45.492188 60.332031 46.496094 62.078125 47.597656 L 65.238281 49.65625 L 72.277344 44.890625 C 78.507812 40.675781 79.53125 40.125 81.367188 40.125 C 83.542969 40.125 86.1875 41.578125 86.1875 42.785156 C 86.1875 44.085938 84.992188 45.140625 78.335938 49.605469 C 71.296875 54.320312 70.230469 55.222656 69.417969 56.929688 C 69.078125 57.578125 68.820312 62.496094 68.691406 71.121094 C 68.480469 83.109375 68.394531 84.414062 67.710938 85.015625 C 67.285156 85.367188 66.558594 85.566406 66.089844 85.417969 C 64.726562 84.964844 62.847656 82.457031 62.207031 80.152344 C 61.652344 78.292969 61.183594 77.742188 58.496094 75.886719 L 55.425781 73.730469 L 55.722656 76.136719 C 56.105469 79.246094 57.34375 83.410156 58.625 86.019531 C 60.886719 90.53125 66.601562 95.296875 69.761719 95.296875 C 71.894531 95.296875 72.789062 94.59375 73.8125 92.289062 C 74.582031 90.484375 74.667969 89.328125 74.667969 77.894531 C 74.667969 64.703125 74.921875 62.246094 76.332031 60.488281 C 77.441406 59.085938 77.484375 58.484375 76.375 59.183594 C 75.902344 59.484375 75.179688 60.4375 74.792969 61.339844 C 74.113281 62.746094 74.027344 64.652344 73.898438 76.390625 C 73.769531 90.785156 73.644531 91.835938 71.59375 93.492188 C 70.316406 94.546875 69.035156 94.496094 66.859375 93.292969 C 63.574219 91.484375 60.332031 87.574219 58.710938 83.609375 C 56.234375 77.441406 56.320312 76.039062 59.007812 77.542969 C 60.074219 78.144531 60.800781 79.097656 61.652344 81.203125 C 63.445312 85.617188 66.21875 87.324219 68.265625 85.367188 L 69.332031 84.363281 L 69.460938 71.675781 C 69.589844 58.734375 69.675781 58.132812 71.425781 55.523438 C 72.191406 54.371094 72.875 54.621094 75.820312 56.878906 L 77.996094 58.582031 L 86.441406 52.816406 C 91.136719 49.707031 95.273438 46.644531 95.703125 46.09375 C 98.261719 42.433594 93.566406 36.613281 85.84375 33.90625 C 84.265625 33.355469 83.03125 32.5 81.835938 31.046875 C 80.894531 29.894531 78.71875 28.1875 76.886719 27.183594 C 73.726562 25.378906 73.429688 25.328125 68.90625 25.328125 C 62.761719 25.328125 61.3125 25.929688 52.054688 32.25 C 46.71875 35.914062 44.332031 37.867188 43.648438 39.070312 C 42.710938 40.726562 42.667969 41.078125 42.667969 53.265625 C 42.667969 60.941406 42.496094 66.15625 42.238281 66.757812 C 41.300781 68.765625 38.316406 67.308594 36.777344 64.050781 C 36.179688 62.695312 36.054688 60.691406 35.925781 50.859375 C 35.753906 37.917969 36.011719 35.8125 38.058594 33.40625 C 38.785156 32.601562 39.167969 31.800781 38.953125 31.75 C 38.742188 31.648438 37.246094 30.695312 35.667969 29.59375 C 32.8125 27.636719 32.683594 27.585938 31.871094 28.4375 C 31.402344 28.941406 30.675781 30.246094 30.25 31.347656 C 29.566406 33.101562 29.441406 34.808594 29.441406 45.691406 C 29.441406 56.425781 29.355469 58.132812 28.757812 58.734375 C 27.648438 59.785156 25.171875 57.929688 24.019531 55.171875 C 23.082031 53.066406 23.039062 52.414062 23.039062 40.726562 C 23.039062 29.542969 23.125 28.390625 23.894531 26.582031 C 24.363281 25.480469 25.171875 24.375 25.644531 24.023438 C 26.496094 23.523438 26.324219 23.324219 23.425781 21.265625 C 21.675781 20.0625 20.054688 19.109375 19.753906 19.058594 C 19.457031 19.058594 18.6875 19.914062 18.046875 20.914062 Z M 22.527344 22.46875 C 23.125 22.921875 23.425781 23.574219 23.296875 24.023438 C 23.210938 24.476562 22.785156 25.832031 22.398438 27.085938 C 21.800781 28.992188 21.71875 31.199219 21.84375 41.882812 C 21.972656 53.96875 22.015625 54.46875 22.953125 56.277344 C 24.617188 59.386719 26.835938 60.839844 28.84375 60.039062 C 30.761719 59.234375 30.761719 59.136719 31.105469 36.816406 C 31.1875 30.144531 32.597656 28.589844 35.796875 31.5 L 36.777344 32.453125 L 35.882812 34.507812 C 35.03125 36.414062 34.988281 37.46875 34.859375 49.503906 L 34.773438 62.445312 L 35.839844 64.703125 C 36.992188 67.109375 39.253906 69.214844 40.746094 69.214844 C 41.257812 69.214844 42.113281 68.613281 42.710938 67.914062 C 43.734375 66.660156 43.734375 66.558594 43.945312 53.71875 C 44.203125 39.371094 44.203125 39.324219 47.359375 37.167969 C 62.207031 27.136719 62.890625 26.785156 68.480469 26.632812 C 73.34375 26.484375 77.484375 28.339844 80.894531 32.199219 C 82.089844 33.554688 83.667969 34.558594 86.058594 35.5625 C 90.878906 37.566406 95.148438 41.230469 95.148438 43.4375 C 95.148438 44.238281 92.757812 47.097656 91.5625 47.699219 C 91.050781 47.949219 89.769531 48.753906 88.660156 49.554688 C 81.664062 54.371094 79.0625 56.074219 78.292969 56.375 C 77.441406 56.675781 74.667969 55.070312 74.667969 54.269531 C 74.667969 53.917969 77.695312 51.609375 80.214844 50.054688 C 85.929688 46.546875 87.851562 44.1875 86.910156 41.78125 C 86.1875 39.925781 84.011719 38.621094 81.578125 38.621094 C 79.273438 38.621094 76.5 40.125 68.90625 45.339844 C 65.492188 47.75 64.894531 47.847656 62.804688 46.292969 C 61.953125 45.691406 61.910156 45.441406 62.335938 44.789062 C 62.632812 44.390625 63.273438 43.835938 63.785156 43.585938 C 64.257812 43.335938 65.324219 42.632812 66.21875 42.03125 C 67.070312 41.378906 68.820312 40.175781 70.101562 39.273438 C 74.496094 36.261719 75.265625 34.15625 72.917969 31.546875 C 71.339844 29.84375 69.121094 29.242188 66.773438 29.992188 C 65.792969 30.292969 62.632812 32.152344 59.691406 34.15625 C 56.789062 36.113281 53.71875 38.167969 52.90625 38.722656 C 50.945312 40.023438 49.578125 41.53125 48.726562 43.386719 C 48.128906 44.640625 47.957031 47.148438 47.785156 58.683594 C 47.617188 68.765625 47.402344 72.828125 46.976562 73.78125 C 46.378906 75.136719 44.886719 76.238281 43.605469 76.238281 C 41.984375 76.238281 38.230469 73.628906 36.136719 71.070312 C 33.878906 68.261719 32.257812 66.960938 31.617188 67.410156 C 30.632812 68.164062 25.515625 65.203125 23.425781 62.746094 C 21.589844 60.488281 19.925781 57.128906 18.988281 53.566406 C 17.960938 49.753906 17.921875 49.054688 17.921875 36.964844 C 17.921875 25.179688 17.960938 24.226562 18.773438 22.671875 C 19.710938 20.863281 20.4375 20.863281 22.527344 22.46875 Z M 22.527344 22.46875 "/>
<path style=" stroke:none;fill-rule:nonzero;fill:rgb(0%,0%,0%);fill-opacity:1;" d="M 55.464844 60.691406 L 55.464844 65.101562 L 58.367188 67.058594 C 59.945312 68.113281 61.355469 69.015625 61.566406 69.117188 C 61.738281 69.214844 61.867188 67.359375 61.867188 65.054688 L 61.867188 60.789062 L 58.667969 58.53125 L 55.464844 56.277344 Z M 59.347656 60.339844 C 60.628906 61.339844 60.800781 61.742188 60.929688 64.101562 C 61.054688 66.257812 60.929688 66.707031 60.332031 66.707031 C 59.777344 66.707031 56.789062 64.902344 56.746094 64.550781 C 56.703125 64.5 56.617188 63.597656 56.492188 62.546875 C 56.0625 58.984375 56.875 58.382812 59.347656 60.339844 Z M 59.347656 60.339844 "/>
<path style=" stroke:none;fill-rule:nonzero;fill:rgb(0%,0%,0%);fill-opacity:1;" d="M 84.179688 66.207031 C 82.6875 66.910156 81.835938 68.964844 81.621094 72.375 C 81.152344 78.898438 83.113281 84.765625 87.425781 89.78125 C 88.960938 91.636719 91.308594 93.792969 92.628906 94.644531 C 95.488281 96.550781 97.152344 98.707031 97.535156 101.117188 C 97.878906 103.273438 97.152344 105.328125 96.085938 105.328125 C 95.660156 105.328125 92.203125 103.222656 88.40625 100.613281 L 81.492188 95.898438 L 81.492188 104.726562 L 88.832031 109.644531 C 95.316406 113.957031 96.511719 114.609375 98.644531 114.757812 C 100.777344 114.960938 101.207031 114.808594 102.101562 113.707031 C 105.515625 109.742188 104.277344 98.007812 99.882812 91.738281 C 99.15625 90.683594 96.726562 88.675781 94.335938 87.070312 C 89.515625 83.863281 88.277344 82.257812 87.980469 78.746094 C 87.808594 76.691406 87.9375 76.238281 88.660156 75.785156 C 89.769531 75.085938 89.941406 75.183594 96.8125 79.898438 C 100.011719 82.054688 102.953125 84.0625 103.382812 84.3125 C 104.0625 84.765625 104.105469 84.464844 104.105469 80.402344 L 104.0625 75.988281 L 97.109375 71.324219 C 88.660156 65.707031 86.828125 64.953125 84.179688 66.207031 Z M 91.519531 68.914062 C 102.699219 76.136719 103.253906 76.589844 103.253906 79.75 C 103.253906 82.558594 102.699219 82.609375 98.902344 80 C 92.375 75.535156 90.964844 74.734375 89.683594 74.734375 C 88.105469 74.734375 87.039062 76.289062 87.039062 78.59375 C 87.039062 82.207031 88.574219 84.3125 93.910156 88.023438 C 97.707031 90.632812 99.925781 93.089844 101.164062 95.898438 C 102.742188 99.511719 103.550781 106.632812 102.742188 109.945312 C 101.460938 115.058594 98.945312 115.109375 91.734375 110.292969 C 89.089844 108.539062 86.398438 106.734375 85.761719 106.28125 C 82.476562 104.125 82.347656 103.925781 82.347656 101.316406 C 82.347656 99.960938 82.558594 98.707031 82.816406 98.558594 C 83.03125 98.355469 84.011719 98.808594 84.90625 99.511719 C 85.84375 100.214844 86.699219 100.816406 86.785156 100.816406 C 86.871094 100.816406 88.492188 101.867188 90.324219 103.121094 C 92.332031 104.527344 94.378906 105.578125 95.402344 105.730469 C 96.980469 105.929688 97.28125 105.78125 97.921875 104.675781 C 99.070312 102.570312 98.390625 99.109375 96.257812 96.402344 C 95.785156 95.75 94.078125 94.34375 92.542969 93.292969 C 86.742188 89.277344 83.03125 82.707031 82.476562 75.4375 C 82.175781 71.722656 82.859375 69.117188 84.394531 67.660156 C 85.886719 66.308594 88.019531 66.660156 91.519531 68.914062 Z M 91.519531 68.914062 "/>
</g>
</svg>
