<svg xmlns="http://www.w3.org/2000/svg" viewBox="0 0 128 128"><g fill="#34495e"><path d="M40.42 90.46a15.35 15.35 0 01-2.8-1c-2.05 3.22-6.8 11.37-7.48 18.75h12.3a62.21 62.21 0 01-2.02-17.75zM80.28 83.92a91.7 91.7 0 00-5.71 17.18c-.53 2.38 1.08 4.75.78 7.11h15.47c-4.08-11.26-5-27.64-7.11-34.19-.05-.09-3.37 9.98-3.43 9.9z"/><path d="M124.32 45.19c-3.52-5-11.55-9.2-13.42-14.91-.48-1.46-.56-4.46.36-5.86s-.54-1-.54-1c-2 .77-2.86-1.43-2.86-1.43-.3-.77.11-3.12-1.61-1.84-3.1 2.33-2.08 8-1.5 10.28a23.76 23.76 0 005.9 10.34c1 .93 7.3 7.86 6.44 11.41a2.85 2.85 0 01-2.15 2.62c-4.59.92-6.08-4.71-6.08-4.71-3.44-14.69-9-19.83-9-19.83A109.06 109.06 0 0073 32.62c-34.37-1.29-60.23 9.27-60.23 9.27-7.56 10.85-12 31-12 31s0 .1.07.11a.27.27 0 00.26-.13 63.4 63.4 0 019.57-9.66c-.72 28 5.62 45 5.62 45h12C29.14 98.12 37.06 87 37.06 87c4.46 3.38 14.54 2.38 14.54 2.38 1.78 6.74 5.4 18.82 5.4 18.82h14.46a91.43 91.43 0 017.87-26.64S82.91 73.44 83 71c.23-4.25 4.25-5.51 6.43-5.51s12.1 5.54 19.51 5.17c12.91-.65 18-6.62 18.25-13.43.2-4.68-.9-9.23-2.87-12.04zM82.83 59.62a2.23 2.23 0 01-.27.54 1.48 1.48 0 01-.51.47 1.39 1.39 0 01-.73.16 2.16 2.16 0 01-.66-.15 6.29 6.29 0 01-1.88-1.32c-.27-.25-.52-.51-.76-.76l-.7-.73a4.47 4.47 0 00-1.48-.83c-.59-.21-1.23-.38-1.9-.54s-1.34-.33-2.07-.57a4.96 4.96 0 01-.58-.23l-.29-.11a2.44 2.44 0 01-.38-.27 2.49 2.49 0 01-.56-.7 3.05 3.05 0 01-.28-.74 4.93 4.93 0 01-.1-1.32 8.71 8.71 0 01.13-1.16 17 17 0 01.55-2.13q.33-1 .73-2c.13-.33.26-.65.41-1a10.66 10.66 0 01.52-1A11.25 11.25 0 0174.94 42a12.89 12.89 0 011.81-1.14 10.3 10.3 0 012-.8 18.29 18.29 0 00-3.08 2.71A12.3 12.3 0 0073.48 46a8.65 8.65 0 00-.34.89l-.31 1c-.2.65-.4 1.3-.56 1.95a18 18 0 00-.41 1.91 7.8 7.8 0 00-.09.9 2.84 2.84 0 00.06.75.65.65 0 00.16.34l.14.08.39.16c.58.22 1.25.39 1.92.6a17.92 17.92 0 012.05.75 5.53 5.53 0 012 1.4c.25.31.43.58.64.86l.61.81c.2.26.41.51.63.74a3.66 3.66 0 00.67.58.81.81 0 00.61.17 1.12 1.12 0 00.59-.51 4.75 4.75 0 00.44-.89c.13-.32.23-.65.34-1a5.93 5.93 0 01-.19 2.13zm12.78-8.92a2.19 2.19 0 11-.88-2.52 1.92 1.92 0 01.88 2.52z"/></g></svg>