<svg xmlns="http://www.w3.org/2000/svg" viewBox="0 0 128 128"><path fill="#1D7044" d="M128,108.2c0,0,0-84.7,0-90s-5.2-5-5.2-5H75.7V0L0,13.2v101.7L75.7,128v-14.6c0,0,41.9,0,47.2,0C128.1,113.4,128,108.2,128,108.2z M42.9,87.2l-7.3-17.9l-6.9,16.9L19,85.8l11.3-22.1L20.1,41.6l9.3-0.5l6.4,17l7.3-17.9l9.8-0.5L41.3,63.5l12,24.3L42.9,87.2z M123.6,109H76v-8.7h11.2V90.3H76v-6h11.2v-10H76v-5.8h11.2V58.1H76v-5.8h11.2V42.2H76v-5.7h11.2V26.4H76v-9.1h47.6L123.6,109L123.6,109z"/><rect x="93.1" y="26.4" fill="#1D7044" width="20.3" height="10.1"/><rect x="93.1" y="58.1" fill="#1D7044" width="20.3" height="10.4"/><rect x="93.1" y="42.2" fill="#1D7044" width="20.3" height="10.1"/><rect x="93.1" y="90.3" fill="#1D7044" width="20.3" height="10.1"/><rect x="93.1" y="74.3" fill="#1D7044" width="20.3" height="10"/></svg>