<svg xmlns="http://www.w3.org/2000/svg" viewBox="0 0 128 128"><path fill-rule="evenodd" clip-rule="evenodd" fill="#1384C8" d="M82.108 78.432c.479-1.232 1.022-2.445 1.427-3.701 2.288-7.097 4.554-14.2 6.805-21.309.865-2.731 1.813-5.42 3.515-7.767 2.692-3.709 6.442-5.652 10.88-6.331 1.741-.266 3.518-.389 5.28-.406 5.267-.05 10.536-.015 15.804-.01.28 0 .56.029.957.052-.129.304-.199.525-.311.724-1.955 3.494-3.872 7.009-5.885 10.468-3.505 6.022-7.016 12.042-10.631 17.998-2.319 3.819-4.834 7.52-7.687 10.974-2.105 2.548-4.321 4.984-7.146 6.77-1.925 1.217-3.981 1.929-6.315 1.917-8.278-.045-16.556-.012-24.834-.024-2.461-.004-4.568-.941-6.356-2.603-2.563-2.381-4.093-5.412-5.345-8.608-2.284-5.835-3.563-11.951-5.031-18.014-.688-2.838-1.47-5.654-2.215-8.478-.048-.183-.142-.354-.25-.617l-.577.542c-3.228 3.207-6.071 6.741-8.615 10.498-.693 1.024-.926 2.374-1.313 3.591-1.424 4.47-2.722 8.983-4.264 13.411-1.477 4.242-4.125 7.616-8.264 9.61-2.42 1.165-5.004 1.795-7.689 1.855-3.98.088-7.962.098-11.943.134-.952.009-.996-.069-.748-.99 1.707-6.338 3.87-12.514 6.58-18.492 2.794-6.167 6.085-12.048 10.231-17.419 2.823-3.657 5.941-7.031 9.843-9.582 1.979-1.293 4.083-2.315 6.477-2.584.394-.045.793-.073 1.189-.073 8.478-.004 16.956.082 25.433-.039 4.547-.065 7.839 1.855 10.304 5.515 1.533 2.276 2.63 4.761 3.553 7.328 1.861 5.178 3.018 10.547 4.325 15.878.748 3.051 1.581 6.081 2.379 9.12.06.228.157.446.238.668l.199-.006z"/></svg>