<svg xmlns="http://www.w3.org/2000/svg" viewBox="0 0 128 128">
    <path fill="#fbbd16" d="M26.242 107.832v-36.5l7.004 39.418 11.402 5.676 7.329-32.766v35.852l12.859 6.324V65.328l-19.54-9.246-6.187 28.875-6.246-34.824-19.43-9.297v60.562Zm0 0"/>
    <path fill="#452e7f" d="m66.633 65.313 20.406-10.594V98.62l28.23-14.598.11 16.547-48.695 25.578Zm0 0"/>
    <path fill="#962444" d="m58.398 1.508-14.43 12.754s28.16 14.465 31.583 16.175c3.418 1.711 8.285 4.997 3.023 9.864-5.261 4.863-11.05 4.207-15 2.238-3.949-1.977-33.16-16.703-33.16-16.703L15.543 38.46S44.23 53.055 48.969 55.555c4.738 2.5 22.367 8.68 39.082-4.34 16.71-13.02 14.344-17.754 14.344-18.676 0-.918-.395-5.781-3.293-8.809-2.891-3.023-11.313-7.363-14.868-9.207-3.554-1.84-25.836-13.015-25.836-13.015Zm0 0"/>
    <path fill="#6d6e71" d="M114.773 75.586c0 2.14-1.683 3.812-3.867 3.812-2.164 0-3.886-1.675-3.886-3.812 0-2.094 1.722-3.77 3.886-3.77 2.188 0 3.867 1.676 3.867 3.77Zm-6.785 0c0 1.676 1.239 3.012 2.946 3.012 1.656 0 2.87-1.336 2.87-2.989 0-1.68-1.218-3.035-2.898-3.035-1.68 0-2.918 1.356-2.918 3.012Zm2.32 1.977h-.874v-3.77c.347-.07.828-.113 1.449-.113.715 0 1.035.113 1.312.273.207.164.368.461.368.828 0 .414-.32.735-.782.871v.047c.367.137.574.414.692.918.113.578.183.809.273.945h-.941c-.118-.136-.184-.484-.301-.917-.07-.418-.297-.602-.781-.602h-.414Zm.024-2.137h.414c.48 0 .875-.16.875-.551 0-.348-.254-.574-.805-.574-.23 0-.39.02-.484.043Zm0 0"/>
</svg>
