<svg version="1.1" xmlns="http://www.w3.org/2000/svg" xmlns:xlink="http://www.w3.org/1999/xlink" viewBox="0 0 128 128">
	<circle id="circle47_3_" fill="#FFFFFF" cx="64.149" cy="64.236" r="60.999"/>
	<path id="path49_3_" fill-opacity="0.1" d="M102.966,75.327c0-21.439-17.379-38.819-38.817-38.819
		c-21.438,0-38.818,17.38-38.818,38.819h11.09c0-15.314,12.415-27.727,27.727-27.727c15.313,0,27.727,12.413,27.727,27.727"/>
	<circle id="circle51_3_" fill-opacity="0.1" cx="66.922" cy="71.999" r="21.072"/>

		<linearGradient id="circle53_1_" gradientUnits="userSpaceOnUse" x1="395.1909" y1="484.1685" x2="395.1909" y2="484.7227" gradientTransform="matrix(82 0 0 82 -32341.5 -39660.3125)">
		<stop  offset="0" style="stop-color:#81B4E0"/>
		<stop  offset="1" style="stop-color:#0C5A94"/>
	</linearGradient>
	<circle id="circle53_3_" fill="url(#circle53_1_)" cx="64.149" cy="64.235" r="22.736"/>

		<linearGradient id="path55_1_" gradientUnits="userSpaceOnUse" x1="-608.9102" y1="-597.6484" x2="-608.9102" y2="-547.1853" gradientTransform="matrix(1 0 0 1 675 599.7754)">
		<stop  offset="0" style="stop-color:#F06B59"/>
		<stop  offset="1" style="stop-color:#DF2227"/>
	</linearGradient>
	<path id="path55_3_" fill="url(#path55_1_)" d="M119.602,36.508C104.336,5.792,67.06-6.732,36.343,8.534
		C26.765,13.295,18.579,20.447,12.578,29.3l24.955,43.253c-4.597-14.606,3.521-30.174,18.127-34.77
		c2.567-0.808,5.243-1.238,7.935-1.274"/>

		<linearGradient id="path57_1_" gradientUnits="userSpaceOnUse" x1="-657.8354" y1="-491.3931" x2="-632.3275" y2="-533.5367" gradientTransform="matrix(1 0 0 1 675 599.7754)">
		<stop  offset="0" style="stop-color:#388B41"/>
		<stop  offset="1" style="stop-color:#4CB749"/>
	</linearGradient>
	<path id="path57_3_" fill="url(#path57_1_)" d="M12.578,29.3c-19.1,28.492-11.486,67.071,17.005,86.171
		c8.814,5.909,18.997,9.461,29.575,10.319l26.063-44.363c-9.745,11.811-27.22,13.486-39.032,3.74
		c-4.011-3.309-7.012-7.679-8.657-12.613"/>

		<linearGradient id="path59_1_" gradientUnits="userSpaceOnUse" x1="-572.3848" y1="-486.9102" x2="-599.5568" y2="-552.3447" gradientTransform="matrix(1 0 0 1 675 599.7754)">
		<stop  offset="0" style="stop-color:#E4B022"/>
		<stop  offset="0.3" style="stop-color:#FCD209"/>
	</linearGradient>
	<path id="path59_3_" fill="url(#path59_1_)" d="M59.158,125.791c34.204,2.585,64.027-23.047,66.613-57.25
		c0.834-11.037-1.295-22.093-6.17-32.031H63.595c15.312,0.07,27.67,12.541,27.598,27.854c-0.028,6.195-2.131,12.204-5.972,17.064"/>

		<linearGradient id="path61_1_" gradientUnits="userSpaceOnUse" x1="-649.3911" y1="-528.8848" x2="-649.3911" y2="-573.247" gradientTransform="matrix(1 0 0 1 675 599.7754)">
		<stop  offset="0" style="stop-color:#000000;stop-opacity:0.15"/>
		<stop  offset="0.3" style="stop-color:#000000;stop-opacity:0.06"/>
		<stop  offset="1" style="stop-color:#000000;stop-opacity:0.03"/>
	</linearGradient>
	<path id="path61_3_" fill="url(#path61_1_)" d="M12.578,29.3l24.955,43.253c-1.849-6.221-1.457-12.893,1.107-18.854L13.686,27.636"
		/>

		<linearGradient id="path63_1_" gradientUnits="userSpaceOnUse" x1="-588.1577" y1="-514.5586" x2="-618.6567" y2="-483.505" gradientTransform="matrix(1 0 0 1 675 599.7754)">
		<stop  offset="0" style="stop-color:#000000;stop-opacity:0.15"/>
		<stop  offset="0.3" style="stop-color:#000000;stop-opacity:0.06"/>
		<stop  offset="1" style="stop-color:#000000;stop-opacity:0.03"/>
	</linearGradient>
	<path id="path63_3_" fill="url(#path63_1_)" d="M59.158,125.791l26.063-44.363c-4.112,4.904-9.794,8.233-16.082,9.426
		l-11.091,34.937"/>

		<linearGradient id="path65_1_" gradientUnits="userSpaceOnUse" x1="-588.5996" y1="-505.6211" x2="-584.1631" y2="-549.4309" gradientTransform="matrix(1 0 0 1 675 599.7754)">
		<stop  offset="0" style="stop-color:#000000;stop-opacity:0.15"/>
		<stop  offset="0.3" style="stop-color:#000000;stop-opacity:0.06"/>
		<stop  offset="1" style="stop-color:#000000;stop-opacity:0.03"/>
	</linearGradient>
	<path id="path65_3_" fill="url(#path65_1_)" d="M119.602,36.508H63.595c8.436,0.039,16.396,3.918,21.626,10.537l35.491-8.873"/>
</svg>
