<svg xmlns="http://www.w3.org/2000/svg" viewBox="0 0 128 128"><path fill="#77787A" d="M23.649 125.01c-.782.374-2.52.953-4.732.953-4.972 0-8.206-3.371-8.206-8.41 0-5.074 3.473-8.786 8.853-8.786 1.771 0 3.337.443 4.154.886l-.681 2.281c-.715-.374-1.839-.784-3.474-.784-3.78 0-5.823 2.828-5.823 6.232 0 3.813 2.452 6.162 5.721 6.162 1.702 0 2.826-.408 3.678-.783l.51 2.249zM27.157 101.413h2.996v10.317h.068c.477-.852 1.226-1.634 2.146-2.146.885-.511 1.94-.817 3.064-.817 2.213 0 5.754 1.362 5.754 7.015v9.806h-2.996v-9.466c0-2.655-.987-4.868-3.814-4.868-1.94 0-3.438 1.361-4.018 2.961-.17.443-.204.886-.204 1.431v9.942h-2.996v-24.175zM46.055 114.249c0-1.941-.034-3.61-.136-5.142h2.622l.136 3.269h.102c.75-2.212 2.589-3.61 4.598-3.61.307 0 .544.035.816.069v2.827c-.307-.068-.612-.068-1.021-.068-2.111 0-3.609 1.566-4.019 3.813-.067.41-.102.919-.102 1.396v8.784h-2.997v-11.338zM71.764 117.212c0 6.094-4.257 8.751-8.207 8.751-4.426 0-7.899-3.269-7.899-8.479 0-5.482 3.644-8.717 8.173-8.717 4.732 0 7.933 3.439 7.933 8.445zm-13.041.171c0 3.608 2.043 6.332 4.971 6.332 2.86 0 5.005-2.689 5.005-6.401 0-2.792-1.396-6.3-4.937-6.3-3.508.001-5.039 3.269-5.039 6.369zM75.543 113.568c0-1.737-.067-3.099-.136-4.461h2.621l.137 2.69h.103c.92-1.566 2.452-3.031 5.21-3.031 2.212 0 3.915 1.362 4.63 3.303h.068c.511-.954 1.192-1.635 1.873-2.145.987-.75 2.043-1.159 3.609-1.159 2.213 0 5.447 1.431 5.447 7.151v9.67h-2.927v-9.296c0-3.2-1.193-5.073-3.576-5.073-1.736 0-3.03 1.26-3.575 2.689-.137.443-.238.954-.238 1.499v10.181h-2.929v-9.875c0-2.622-1.158-4.495-3.438-4.495-1.839 0-3.235 1.498-3.712 2.996-.17.409-.238.954-.238 1.465v9.908h-2.929v-12.017zM105.609 117.892c.068 4.052 2.622 5.721 5.652 5.721 2.146 0 3.473-.375 4.563-.851l.545 2.146c-1.055.476-2.894 1.055-5.516 1.055-5.073 0-8.104-3.371-8.104-8.342 0-4.972 2.928-8.853 7.729-8.853 5.415 0 6.811 4.699 6.811 7.729 0 .614-.034 1.056-.103 1.396h-11.577v-.001zm8.786-2.144c.034-1.872-.783-4.836-4.154-4.836-3.064 0-4.358 2.759-4.597 4.836h8.751z"/><circle fill="#fff" cx="64.114" cy="49.495" r="46.537"/><path fill-opacity=".1" d="M93.729 57.956c0-16.356-13.26-29.615-29.614-29.615-16.356 0-29.615 13.259-29.615 29.615h8.461c0-11.683 9.471-21.153 21.152-21.153 11.683 0 21.153 9.47 21.153 21.153"/><circle fill-opacity=".1" cx="66.229" cy="55.417" r="16.077"/><linearGradient id="a" gradientUnits="userSpaceOnUse" x1="395.19" y1="337.859" x2="395.19" y2="338.282" gradientTransform="matrix(82 0 0 82 -32341.5 -27672.313)"><stop offset="0" stop-color="#81B4E0"/><stop offset="1" stop-color="#0C5A94"/></linearGradient><circle fill="url(#a)" cx="64.114" cy="49.494" r="17.346"/><linearGradient id="b" gradientUnits="userSpaceOnUse" x1="-609.405" y1="-597.665" x2="-609.405" y2="-559.165" gradientTransform="translate(675 599.775)"><stop offset="0" stop-color="#F06B59"/><stop offset="1" stop-color="#DF2227"/></linearGradient><path fill="url(#b)" d="M106.421 28.341c-11.648-23.433-40.087-32.989-63.521-21.342-7.308 3.632-13.553 9.089-18.131 15.843l19.038 33c-3.507-11.144 2.686-23.021 13.83-26.527 1.959-.617 3.999-.944 6.053-.973"/><linearGradient id="c" gradientUnits="userSpaceOnUse" x1="-646.731" y1="-516.6" x2="-627.271" y2="-548.753" gradientTransform="translate(675 599.775)"><stop offset="0" stop-color="#388B41"/><stop offset="1" stop-color="#4CB749"/></linearGradient><path fill="url(#c)" d="M24.77 22.841c-14.572 21.737-8.764 51.171 12.974 65.743 6.725 4.508 14.493 7.217 22.563 7.871l19.883-33.845c-7.435 9.012-20.767 10.29-29.778 2.854-3.061-2.525-5.35-5.86-6.604-9.623"/><linearGradient id="d" gradientUnits="userSpaceOnUse" x1="-581.539" y1="-513.181" x2="-602.269" y2="-563.102" gradientTransform="translate(675 599.775)"><stop offset="0" stop-color="#E4B022"/><stop offset=".3" stop-color="#FCD209"/></linearGradient><path fill="url(#d)" d="M60.307 96.455c26.094 1.973 48.847-17.582 50.819-43.676.637-8.419-.987-16.855-4.706-24.438h-42.73c11.683.054 21.11 9.567 21.056 21.251-.021 4.726-1.625 9.31-4.556 13.018"/><linearGradient id="e" gradientUnits="userSpaceOnUse" x1="-640.289" y1="-545.204" x2="-640.289" y2="-579.049" gradientTransform="translate(675 599.775)"><stop offset="0" stop-opacity=".15"/><stop offset=".3" stop-opacity=".06"/><stop offset="1" stop-opacity=".03"/></linearGradient><path fill="url(#e)" d="M24.77 22.841l19.038 33c-1.411-4.747-1.111-9.837.845-14.385l-19.038-19.884"/><linearGradient id="f" gradientUnits="userSpaceOnUse" x1="-593.573" y1="-534.274" x2="-616.841" y2="-510.583" gradientTransform="translate(675 599.775)"><stop offset="0" stop-opacity=".15"/><stop offset=".3" stop-opacity=".06"/><stop offset="1" stop-opacity=".03"/></linearGradient><path fill="url(#f)" d="M60.307 96.455l19.883-33.845c-3.137 3.742-7.473 6.281-12.269 7.192l-8.461 26.653"/><linearGradient id="g" gradientUnits="userSpaceOnUse" x1="-593.91" y1="-527.459" x2="-590.526" y2="-560.879" gradientTransform="translate(675 599.775)"><stop offset="0" stop-opacity=".15"/><stop offset=".3" stop-opacity=".06"/><stop offset="1" stop-opacity=".03"/></linearGradient><path fill="url(#g)" d="M106.421 28.341h-42.731c6.437.03 12.51 2.988 16.5 8.038l27.076-6.769"/></svg>