<svg xmlns="http://www.w3.org/2000/svg" viewBox="0 0 128 128"><circle fill="#CE4E4E" cx="63.624" cy="64.474" r="22.634"/><path fill="#CE4E4E" d="M64 37h54.186c-9.944-20-30.64-33.633-54.562-33.633-19.367 0-36.619 9.173-47.764 23.271l21.123 35.748C38.015 48.48 48 37.07 64 37zm56.126 4H78.294c7.403 6 12.299 13.884 12.299 23.369 0 4.663-1.183 8.631-3.268 13.631h.015l-27.757 47.511c1.335.087 2.682-.022 4.04-.022 33.609 0 60.855-27.746 60.855-61.355.001-8-1.546-15.134-4.352-23.134zM63.624 91.445c-11.672 0-21.611-7.414-25.368-17.789L13.07 30.585C6.565 40.271 2.767 51.93 2.767 64.474c0 30.632 22.634 55.972 52.089 60.224l20.996-36.179a26.853 26.853 0 01-12.228 2.926z"/></svg>