<?xml version="1.0" encoding="UTF-8" standalone="no"?>
<svg
   viewBox="0 0 128 128"
   fill="none"
   version="1.1"
   id="svg381"
   sodipodi:docname="jira-original-wordmark.svg"
   inkscape:version="1.1.2 (b8e25be8, 2022-02-05)"
   xmlns:inkscape="http://www.inkscape.org/namespaces/inkscape"
   xmlns:sodipodi="http://sodipodi.sourceforge.net/DTD/sodipodi-0.dtd"
   xmlns="http://www.w3.org/2000/svg"
   xmlns:svg="http://www.w3.org/2000/svg">
  <sodipodi:namedview
     id="namedview383"
     pagecolor="#ffffff"
     bordercolor="#666666"
     borderopacity="1.0"
     inkscape:pageshadow="2"
     inkscape:pageopacity="0.0"
     inkscape:pagecheckerboard="0"
     showgrid="false"
     inkscape:zoom="18.007537"
     inkscape:cx="16.02107"
     inkscape:cy="16.437562"
     inkscape:window-width="2560"
     inkscape:window-height="1302"
     inkscape:window-x="0"
     inkscape:window-y="25"
     inkscape:window-maximized="1"
     inkscape:current-layer="svg381" />
  <g
     id="g417"
     transform="matrix(0.88901886,0,0,0.88901886,2.0227314,-1.9104285)">
    <path
       d="M 27.0055,4 H 15.4512 c 0,2.88 2.3314,5.21143 5.2114,5.21143 h 2.1257 v 2.05717 c 0,2.88 2.3314,5.2114 5.2114,5.2114 V 4.99429 C 27.9997,4.44571 27.554,4 27.0055,4 Z"
       fill="#2684ff"
       id="path363" />
    <path
       d="M 21.2799,9.76001 H 9.72559 c 0,2.87999 2.33141,5.21139 5.21141,5.21139 h 2.1257 v 2.0572 c 0,2.88 2.3315,5.2114 5.2115,5.2114 V 10.7543 c 0,-0.5486 -0.4458,-0.99429 -0.9943,-0.99429 z"
       fill="url(#paint0_linear)"
       id="path365"
       style="fill:url(#paint0_linear)" />
    <path
       d="M 15.5543,15.52 H 4 c 0,2.88 2.33143,5.2114 5.21143,5.2114 h 2.12567 v 2.0572 c 0,2.88 2.3315,5.2114 5.2115,5.2114 V 16.5143 c 0,-0.5486 -0.4457,-0.9943 -0.9943,-0.9943 z"
       fill="url(#paint1_linear)"
       id="path367"
       style="fill:url(#paint1_linear)" />
  </g>
  <defs
     id="defs379">
    <linearGradient
       id="paint0_linear"
       x1="22.0343"
       y1="9.77256"
       x2="17.1181"
       y2="14.8424"
       gradientUnits="userSpaceOnUse">
      <stop
         offset="0.176"
         stop-color="#0052CC"
         id="stop369" />
      <stop
         offset="1"
         stop-color="#2684FF"
         id="stop371" />
    </linearGradient>
    <linearGradient
       id="paint1_linear"
       x1="16.6411"
       y1="15.5637"
       x2="10.9568"
       y2="21.0943"
       gradientUnits="userSpaceOnUse">
      <stop
         offset="0.176"
         stop-color="#0052CC"
         id="stop374" />
      <stop
         offset="1"
         stop-color="#2684FF"
         id="stop376" />
    </linearGradient>
  </defs>
  <g
     id="Jira"
     transform="matrix(0.3782367,0,0,0.3782367,-4.1219095,21.565199)">
    <path
       d="m 38.8963,6.13371 h 2.832 V 20.1309 c 0,3.6908 -1.6849,6.2674 -5.5924,6.2674 -1.4698,0 -2.617,-0.2437 -3.4057,-0.5223 v -2.681 c 0.8604,0.3482 1.9,0.5223 2.9396,0.5223 2.4019,0 3.2265,-1.3928 3.2265,-3.4123 z"
       fill="#253858"
       id="path121" />
    <path
       d="m 46.9266,5.05432 c 1.1113,0 1.9,0.66156 1.9,1.8454 0,1.14903 -0.7887,1.84541 -1.9,1.84541 -1.1114,0 -1.9,-0.66156 -1.9,-1.84541 0,-1.14902 0.7886,-1.8454 1.9,-1.8454 z m -1.3981,5.88438 h 2.7245 v 15.3204 h -2.7245 z"
       fill="#253858"
       id="path123" />
    <path
       d="M 54.9924,26.2591 H 52.3395 V 10.9387 h 2.6529 v 2.6811 c 0.932,-1.8106 2.5094,-3.0989 5.5924,-2.9248 v 2.5766 c -3.4773,-0.3482 -5.5924,0.6615 -5.5924,3.9345 z"
       fill="#253858"
       id="path125" />
    <path
       d="m 73.3112,23.5084 c -1.0037,2.0195 -2.9037,3.064 -5.3415,3.064 -4.1943,0 -6.3094,-3.447 -6.3094,-7.9735 0,-4.3176 2.2226,-7.9735 6.6321,-7.9735 2.2943,0 4.0868,1.0097 5.0188,2.9944 v -2.6811 h 2.7246 v 15.3204 h -2.7246 z m -4.6245,0.6267 c 2.4378,0 4.5887,-1.4972 4.5887,-4.9095 V 18.007 c 0,-3.4123 -1.9717,-4.9095 -4.3019,-4.9095 -3.0472,0 -4.6245,1.9499 -4.6245,5.5014 0.0358,3.6908 1.5415,5.5362 4.3377,5.5362 z"
       fill="#253858"
       id="path127" />
  </g>
</svg>
