<svg viewBox="0 0 128 128" xmlns="http://www.w3.org/2000/svg"><path d="M106.695 2.387H61.531c0 11.258 9.114 20.37 20.371 20.37h8.309v8.04c0 11.258 9.113 20.371 20.367 20.371V6.273a3.886 3.886 0 00-3.883-3.886zm0 0" fill="#788599"/><path d="M84.313 24.902h-45.16c0 11.258 9.113 20.371 20.367 20.371h8.308v8.04c0 11.257 9.113 20.37 20.371 20.37V28.79a3.89 3.89 0 00-3.886-3.887zm0 0" fill="#253858"/><path d="M61.934 47.414h-45.16c0 11.258 9.113 20.371 20.367 20.371h8.308v8.043c0 11.254 9.114 20.367 20.371 20.367V51.301a3.89 3.89 0 00-3.886-3.887zm0 0M45.996 101.242h3.438v16.98c0 4.481-2.043 7.606-6.786 7.606-1.785 0-3.175-.297-4.132-.633v-3.254c1.043.422 2.304.633 3.566.633 2.914 0 3.914-1.687 3.914-4.137zm0 0M55.742 99.934c1.348 0 2.305.8 2.305 2.238 0 1.394-.957 2.238-2.305 2.238-1.351 0-2.308-.805-2.308-2.238 0-1.395.957-2.238 2.308-2.238zm-1.699 7.136h3.309v18.59h-3.309zm0 0M65.527 125.66H62.31v-18.59h3.218v3.254c1.133-2.195 3.043-3.758 6.785-3.547v3.125c-4.218-.422-6.785.801-6.785 4.774zm0 0M87.754 122.324c-1.219 2.45-3.524 3.715-6.48 3.715-5.09 0-7.657-4.18-7.657-9.672 0-5.238 2.7-9.676 8.047-9.676 2.785 0 4.961 1.227 6.09 3.633v-3.254h3.305v18.59h-3.305zm-5.61.758c2.958 0 5.567-1.816 5.567-5.957v-1.477c0-4.14-2.39-5.957-5.219-5.957-3.699 0-5.613 2.368-5.613 6.676.043 4.477 1.871 6.715 5.266 6.715zm0 0M108.862 51.008a20.378 20.378 0 01-18.324-17.042c-.155-.953-.21-2.576-.21-6.247V22.76l-3.817-.002c-7.534-.004-10.136-.438-13.793-2.302C66.41 17.242 62.14 10.852 61.696 3.96l-.094-1.463 22.96.003c22.782.003 22.966.006 23.603.294a3.908 3.908 0 011.942 1.915l.338.714.001 22.867c.001 18.21-.035 22.863-.177 22.847-.098-.01-.731-.069-1.408-.13zM75.773 38.66c-6.75-6.551-12.69-12.33-13.2-12.84l-.928-.93 1.017.041 1.017.041 12.218 11.844L88.116 48.66v.963c0 .53-.016.96-.036.956-.02-.004-5.558-5.368-12.307-11.919z" fill="#253858"/><path d="M84.977 73.35c-8.101-1.367-14.61-7.394-16.486-15.263-.506-2.122-.638-3.917-.638-8.646v-4.254l-5.672-.062c-5.12-.056-5.793-.091-6.904-.358-4.013-.966-7.292-2.77-10.042-5.526-3.625-3.634-5.553-7.897-5.987-13.234l-.09-1.106H48.446l19.833 19.228L88.11 63.358l.003 5.101.002 5.102-1.035-.015a16.716 16.716 0 01-2.104-.195zM84.05 29.454a949.478 949.478 0 01-4.353-4.218l-.357-.36 2.854.056c3.177.062 3.768.205 4.757 1.153.953.914 1.084 1.352 1.138 3.81.027 1.217.028 2.483.002 2.815l-.046.602zM83.477 35.693c-2.513-2.443-6.043-5.87-7.846-7.617L72.354 24.9l.996.004.996.004 4.28 4.16 6.892 6.699 2.611 2.537-.042.915-.042.915zM82.8 30.109c-2.884-2.798-5.244-5.114-5.244-5.148 0-.033.377-.06.837-.06h.837l3.052 2.95 4.449 4.307 1.397 1.356-.042.84-.041.842z" fill="#253858"/><path d="M82.264 30.58c-5.698-5.528-5.774-5.609-5.294-5.653.463-.044.653.118 3.855 3.282 1.852 1.83 4.253 4.192 5.336 5.248 1.718 1.677 1.963 1.973 1.926 2.326-.04.375-.468-.008-5.823-5.203z" fill="#253858"/></svg>
