<svg fill="none" xmlns="http://www.w3.org/2000/svg" viewBox="0 0 560 300"><path fill-rule="evenodd" clip-rule="evenodd" d="M443.316 173.315 360.471 291.63c-56.427-19.731-97.468-72.23-100.313-134.688l8.522 18.533 13.5-30.42 13.68 30.42 20.61-44.82h-10.98l-9.18 21.87-9-21.87h-9.09l-9.27 21.87-7.97-19.763c3.355-29.323 15.165-56.077 32.932-77.762h232.176l.039.049-79.771 113.926-16.126-18.16 18.72-20.16H435l-15.3 16.83v-42.21h-10.8v68.04h10.8v-18.63l16.29 18.63h7.326Zm-101.196-43.74c-3.18 0-6.15.57-8.91 1.71-2.76 1.14-5.175 2.73-7.245 4.77-2.07 2.04-3.69 4.425-4.86 7.155-1.17 2.73-1.755 5.655-1.755 8.775s.585 6.045 1.755 8.775c1.17 2.73 2.79 5.1 4.86 7.11 2.07 2.01 4.485 3.6 7.245 4.77 2.76 1.17 5.73 1.755 8.91 1.755 3.18 0 6.15-.585 8.91-1.755s5.175-2.76 7.245-4.77c2.07-2.01 3.69-4.38 4.86-7.11 1.17-2.73 1.755-5.655 1.755-8.775s-.585-6.045-1.755-8.775c-1.17-2.73-2.79-5.115-4.86-7.155-2.07-2.04-4.485-3.63-7.245-4.77-2.76-1.14-5.73-1.71-8.91-1.71Zm0 34.74c-1.8 0-3.435-.33-4.905-.99-1.47-.66-2.715-1.545-3.735-2.655-1.02-1.11-1.8-2.415-2.34-3.915-.54-1.5-.81-3.09-.81-4.77 0-1.68.27-3.255.81-4.725.54-1.47 1.32-2.775 2.34-3.915 1.02-1.14 2.265-2.04 3.735-2.7 1.47-.66 3.105-.99 4.905-.99 1.8 0 3.435.33 4.905.99 1.47.66 2.715 1.56 3.735 2.7 1.02 1.14 1.8 2.445 2.34 3.915.54 1.47.81 3.045.81 4.725 0 1.68-.27 3.27-.81 4.77-.54 1.5-1.32 2.805-2.34 3.915-1.02 1.11-2.265 1.995-3.735 2.655-1.47.66-3.105.99-4.905.99Zm52.74-34.74c-2.88 0-5.31.75-7.29 2.25-1.98 1.5-3.48 3.18-4.5 5.04v-6.21h-10.26v42.66h10.8v-27.9c.84-1.38 2.04-2.685 3.6-3.915s3.6-1.845 6.12-1.845c.96 0 1.875.09 2.745.27.87.18 1.605.42 2.205.72l3.78-9.72c-1.26-.48-2.52-.825-3.78-1.035-1.26-.21-2.4-.315-3.42-.315Z" fill="#EE350F"/><path d="M11.46 135.965h24.75v10.26H11.46v27.09H.66v-63h37.35v10.26H11.46v15.39ZM68.88 129.575c1.02 0 2.16.105 3.42.315 1.26.21 2.52.555 3.78 1.035l-3.78 9.72c-.6-.3-1.335-.54-2.205-.72-.87-.18-1.785-.27-2.745-.27-2.52 0-4.56.615-6.12 1.845-1.56 1.23-2.76 2.535-3.6 3.915v27.9h-10.8v-42.66h10.26v6.21c1.02-1.86 2.52-3.54 4.5-5.04s4.41-2.25 7.29-2.25Zm31.05 0c5.94 0 10.62 1.44 14.04 4.32 3.42 2.88 5.13 6.75 5.13 11.61v27.81h-9.99v-5.4c-1.38 1.86-3.285 3.405-5.715 4.635-2.43 1.23-5.145 1.845-8.145 1.845-2.04 0-4.005-.315-5.895-.945-1.89-.63-3.555-1.56-4.995-2.79a13.516 13.516 0 0 1-3.42-4.455c-.84-1.74-1.26-3.69-1.26-5.85 0-2.16.435-4.125 1.305-5.895.87-1.77 2.07-3.285 3.6-4.545 1.53-1.26 3.33-2.235 5.4-2.925 2.07-.69 4.305-1.035 6.705-1.035 1.98 0 4.02.255 6.12.765 2.1.51 3.93 1.275 5.49 2.295v-2.43c0-1.38-.3-2.55-.9-3.51-.6-.96-1.35-1.725-2.25-2.295a9.228 9.228 0 0 0-3.015-1.215c-1.11-.24-2.175-.36-3.195-.36-1.44 0-3.27.24-5.49.72s-4.59 1.29-7.11 2.43l-3.51-8.91c2.16-1.02 4.725-1.92 7.695-2.7 2.97-.78 6.105-1.17 9.405-1.17Zm-1.71 35.82c2.52 0 4.59-.525 6.21-1.575 1.62-1.05 2.91-2.175 3.87-3.375v-4.41c-1.38-.72-2.94-1.26-4.68-1.62-1.74-.36-3.3-.54-4.68-.54-.96 0-1.92.105-2.88.315-.96.21-1.845.54-2.655.99a5.558 5.558 0 0 0-1.98 1.845c-.51.78-.765 1.74-.765 2.88s.24 2.07.72 2.79a4.914 4.914 0 0 0 1.845 1.665c.75.39 1.575.66 2.475.81.9.15 1.74.225 2.52.225Zm81.09-35.82c2.16 0 4.17.375 6.03 1.125 1.86.75 3.45 1.815 4.77 3.195 1.32 1.38 2.355 3.075 3.105 5.085s1.125 4.305 1.125 6.885v27.45h-10.8v-24.66c0-6-2.43-9-7.29-9-2.4 0-4.275.6-5.625 1.8-1.35 1.2-2.385 2.43-3.105 3.69v28.17h-10.8v-24.66c0-6-2.43-9-7.29-9-2.4 0-4.275.6-5.625 1.8-1.35 1.2-2.385 2.43-3.105 3.69v28.17h-10.8v-42.66h10.08v6.21c1.08-1.8 2.67-3.465 4.77-4.995 2.1-1.53 4.8-2.295 8.1-2.295 2.82 0 5.4.645 7.74 1.935s4.08 3.135 5.22 5.535c.48-.9 1.125-1.8 1.935-2.7.81-.9 1.785-1.695 2.925-2.385 1.14-.69 2.43-1.26 3.87-1.71 1.44-.45 3.03-.675 4.77-.675Zm44.37 0c2.94 0 5.715.54 8.325 1.62 2.61 1.08 4.89 2.595 6.84 4.545 1.95 1.95 3.495 4.29 4.635 7.02 1.14 2.73 1.71 5.745 1.71 9.045v1.71c0 .72-.03 1.5-.09 2.34h-31.86c.24 1.02.675 2.04 1.305 3.06.63 1.02 1.47 1.935 2.52 2.745s2.265 1.485 3.645 2.025c1.38.54 2.94.81 4.68.81 1.8 0 3.75-.33 5.85-.99 2.1-.66 3.99-1.77 5.67-3.33l5.4 8.1c-1.74 1.44-4.08 2.82-7.02 4.14-2.94 1.32-6.3 1.98-10.08 1.98-3.24 0-6.255-.57-9.045-1.71-2.79-1.14-5.22-2.73-7.29-4.77-2.07-2.04-3.69-4.44-4.86-7.2-1.17-2.76-1.755-5.73-1.755-8.91 0-3.06.54-5.94 1.62-8.64s2.565-5.055 4.455-7.065c1.89-2.01 4.155-3.6 6.795-4.77 2.64-1.17 5.49-1.755 8.55-1.755Zm10.71 18.45c-.06-.9-.315-1.86-.765-2.88-.45-1.02-1.11-1.965-1.98-2.835-.87-.87-1.965-1.575-3.285-2.115-1.32-.54-2.88-.81-4.68-.81-1.74 0-3.24.27-4.5.81-1.26.54-2.325 1.23-3.195 2.07-.87.84-1.53 1.77-1.98 2.79-.45 1.02-.705 2.01-.765 2.97h21.15Z" fill="#EE350F"/><path fill-rule="evenodd" clip-rule="evenodd" d="M380.989 297.197 538.393 72.4C552.106 95.04 560 121.598 560 150c0 82.843-67.157 150-150 150-9.925 0-19.625-.964-29.011-2.803ZM313.688 35C339.745 13.154 373.336 0 410 0c36.664 0 70.255 13.154 96.312 35H313.688Z" fill="#EE350F"/></svg>