<svg xmlns="http://www.w3.org/2000/svg" viewBox="0 0 128 128" fill="#333">
    <path d="M 64 4.550781 C 96.832031 4.550781 123.449219 31.167969 123.449219 64 C 123.449219 96.832031 96.832031 123.449219 64 123.449219 C 31.167969 123.449219 4.550781 96.832031 4.550781 64 C 4.550781 31.167969 31.167969 4.550781 64 4.550781 M 64 0 C 28.710938 0 0 28.710938 0 64 C 0 99.289062 28.710938 128 64 128 C 99.289062 128 128 99.289062 128 64 C 128 28.710938 99.289062 0 64 0 M 74.414062 12.761719 C 69.199219 11.8125 56.589844 30.964844 52.417969 42.628906 C 52.101562 43.511719 51.375 46.753906 51.375 47.605469 C 51.375 47.605469 54.640625 54.632812 55.546875 56.28125 C 54.03125 55.492188 50.886719 49.402344 50.886719 49.402344 C 49.367188 52.296875 47.914062 65.574219 48.386719 68.039062 C 48.386719 68.039062 51.769531 73.070312 53.082031 74.328125 C 51.28125 73.726562 48.246094 69.652344 48.246094 69.652344 C 47.675781 71.40625 47.789062 75.054688 48.054688 76.289062 C 50.332031 79.605469 53.367188 79.984375 53.367188 79.984375 C 53.367188 79.984375 50.046875 113.078125 55.074219 115.542969 C 58.203125 114.878906 58.960938 78.5625 58.960938 78.5625 C 58.960938 78.5625 62.753906 78.847656 63.605469 77.898438 C 65.535156 76.574219 70.019531 62.789062 70.085938 60.800781 C 70.085938 60.800781 64.878906 61.773438 62.339844 62.761719 C 64.253906 60.859375 70.367188 59.585938 70.367188 59.585938 C 72.023438 57.59375 75.511719 44.0625 75.863281 39.890625 C 75.949219 38.84375 76.15625 37.5625 75.996094 35.691406 C 75.996094 35.691406 71.027344 36.777344 69.988281 36.402344 C 71.042969 36.285156 76.121094 34.332031 76.121094 34.332031 C 77.023438 26.226562 77.300781 13.285156 74.414062 12.761719 Z M 56.226562 98.609375 C 55.828125 108.355469 55.578125 111.109375 55.167969 113.40625 C 54.976562 113.835938 54.789062 113.90625 54.597656 113.359375 C 52.859375 105.363281 52.988281 45.140625 72.804688 17.738281 C 61.277344 38.785156 56.035156 79.171875 56.226562 98.609375 Z M 56.226562 98.609375 "/>
</svg>
