<?xml version="1.0" encoding="UTF-8" standalone="no"?>
<svg
   width="128"
   height="128"
   viewBox="0 0 128 128"
   version="1.1"
   id="svg14"
   sodipodi:docname="Apex.svg"
   inkscape:version="1.1.1 (3bf5ae0d25, 2021-09-20)"
   xmlns:inkscape="http://www.inkscape.org/namespaces/inkscape"
   xmlns:sodipodi="http://sodipodi.sourceforge.net/DTD/sodipodi-0.dtd"
   xmlns="http://www.w3.org/2000/svg"
   xmlns:svg="http://www.w3.org/2000/svg"
   xmlns:rdf="http://www.w3.org/1999/02/22-rdf-syntax-ns#"
   xmlns:cc="http://creativecommons.org/ns#"
   xmlns:dc="http://purl.org/dc/elements/1.1/">
  <defs
     id="defs18" />
  <sodipodi:namedview
     id="namedview16"
     pagecolor="#505050"
     bordercolor="#ffffff"
     borderopacity="1"
     inkscape:pageshadow="0"
     inkscape:pageopacity="0"
     inkscape:pagecheckerboard="1"
     showgrid="false"
     inkscape:zoom="4.5519999"
     inkscape:cx="64.257471"
     inkscape:cy="60.522848"
     inkscape:window-width="1920"
     inkscape:window-height="1009"
     inkscape:window-x="-8"
     inkscape:window-y="-8"
     inkscape:window-maximized="1"
     inkscape:current-layer="svg14" />
  <title
     id="title2">file_type_apex</title>
  <path
     d="M 51.523731,18.687891 A 21.696211,21.696211 0 0 1 67.214346,11.94818 21.921752,21.921752 0 0 1 86.31904,23.26948 26.410471,26.410471 0 0 1 97.118499,20.974263 26.92789,26.92789 0 1 1 91.860286,74.308201 19.511553,19.511553 0 0 1 66.290068,82.339248 22.262276,22.262276 0 0 1 24.909831,81.317678 20.546391,20.546391 0 0 1 20.664343,81.759916 20.926716,20.926716 0 0 1 10.329234,42.789878 24.048918,24.048918 0 0 1 51.523731,18.674624"
     style="fill:#0f9bd7;stroke-width:4.42238"
     id="path4" />
  <path
     d="m 103.37175,118.75757 h -2.48096 a 20.59946,20.59946 0 0 1 -5.678338,-0.60587 8.4025276,8.4025276 0 0 1 -3.617509,-2.13159 7.6330329,7.6330329 0 0 1 -2.012184,-3.72807 29.939532,29.939532 0 0 1 -0.468773,-6.24882 26.043413,26.043413 0 0 0 -0.37148,-5.88177 4.4223829,4.4223829 0 0 0 -1.326715,-2.405775 5.4085743,5.4085743 0 0 0 -2.918773,-0.791606 l -1.043682,-0.06191 v -8.309657 l 1.043682,-0.06191 a 6.5539715,6.5539715 0 0 0 2.427889,-0.442238 3.1222023,3.1222023 0 0 0 1.20731,-1.167509 6.1648018,6.1648018 0 0 0 0.800451,-2.33944 29.554785,29.554785 0 0 0 0.194585,-4.152618 35.962818,35.962818 0 0 1 0.495307,-7.265975 7.518051,7.518051 0 0 1 1.981228,-3.719224 9.481589,9.481589 0 0 1 4.006679,-2.175813 19.962637,19.962637 0 0 1 5.306863,-0.512996 h 2.48095 v 8.402527 h -1.10559 a 11.449549,11.449549 0 0 0 -3.285829,0.247654 1.2559568,1.2559568 0 0 0 -0.65452,0.517419 3.7103793,3.7103793 0 0 0 -0.23881,1.70704 q 0,1.645126 -0.234382,6.248827 a 16.539712,16.539712 0 0 1 -0.734115,4.462184 8.6015348,8.6015348 0 0 1 -3.064712,4.422383 8.8889897,8.8889897 0 0 1 3.095668,4.616968 20.462366,20.462366 0 0 1 0.720849,4.771749 c 0.119402,2.9055 0.181322,4.74964 0.181322,5.55451 a 3.8518955,3.8518955 0 0 0 0.25207,1.80433 1.5168773,1.5168773 0 0 0 0.72527,0.5528 10.534116,10.534116 0 0 0 3.219499,0.26534 h 1.10559 z"
     style="fill:#ffffff;stroke-width:4.42238"
     id="path6" />
  <path
     d="m 84.541242,95.858473 v -6.21787 a 7.7480149,7.7480149 0 0 0 2.852437,-0.570488 4.1393504,4.1393504 0 0 0 1.658394,-1.565523 7.1686827,7.1686827 0 0 0 0.959657,-2.759567 30.425995,30.425995 0 0 0 0.199007,-4.311824 35.379063,35.379063 0 0 1 0.46435,-7.009477 6.4389895,6.4389895 0 0 1 1.684928,-3.188538 8.4025276,8.4025276 0 0 1 3.537907,-1.906047 19.175452,19.175452 0 0 1 4.975178,-0.46435 h 1.37536 v 6.191336 a 12.718773,12.718773 0 0 0 -3.692689,0.322834 2.343863,2.343863 0 0 0 -1.202885,0.986191 4.7717512,4.7717512 0 0 0 -0.38917,2.268683 q 0,1.631859 -0.234386,6.191336 a 15.615434,15.615434 0 0 1 -0.672203,4.15704 8.4821305,8.4821305 0 0 1 -1.384206,2.631318 10.923286,10.923286 0 0 1 -2.578249,2.149278 9.0437731,9.0437731 0 0 1 2.498647,2.06083 8.2654337,8.2654337 0 0 1 1.490343,2.861282 19.502709,19.502709 0 0 1 0.672202,4.510833 q 0.181318,4.30297 0.181318,5.49259 a 4.8646212,4.8646212 0 0 0 0.415704,2.38367 2.5826716,2.5826716 0 0 0 1.255955,1.02157 11.714892,11.714892 0 0 0 3.639619,0.34937 v 6.21787 h -1.37536 a 19.785741,19.785741 0 0 1 -5.355503,-0.56607 7.2703975,7.2703975 0 0 1 -3.148737,-1.85298 6.536282,6.536282 0 0 1 -1.724729,-3.2018 29.280597,29.280597 0 0 1 -0.442239,-5.99675 28.188269,28.188269 0 0 0 -0.415704,-6.191335 5.4483758,5.4483758 0 0 0 -1.724729,-2.967419 6.32843,6.32843 0 0 0 -3.520217,-1.025993 z"
     style="fill:#0072a0;stroke-width:4.42238"
     id="path8" />
  <path
     d="m 110.60234,118.75757 h -2.48095 v -8.43349 h 1.10559 a 10.29973,10.29973 0 0 0 3.21065,-0.26092 1.4284297,1.4284297 0 0 0 0.7297,-0.56164 3.5909749,3.5909749 0 0 0 0.25649,-1.67608 q 0,-1.59206 0.22112,-6.08078 a 16.473376,16.473376 0 0 1 0.76508,-4.63023 9.8309572,9.8309572 0 0 1 1.71146,-3.095668 9.4860114,9.4860114 0 0 1 1.32671,-1.291336 9.4683218,9.4683218 0 0 1 -1.76895,-1.768953 11.551264,11.551264 0 0 1 -1.86182,-4.829242 77.502261,77.502261 0 0 1 -0.44224,-8.141607 6.0011736,6.0011736 0 0 0 -0.23439,-2.118322 c -0.0354,-0.07076 -0.13709,-0.274188 -0.60144,-0.468772 a 11.162095,11.162095 0 0 0 -3.34775,-0.265343 h -1.10559 v -8.411373 h 2.48095 a 21.196481,21.196481 0 0 1 5.67392,0.588177 8.141607,8.141607 0 0 1 3.61751,2.144856 7.876264,7.876264 0 0 1 2.00334,3.728069 29.187727,29.187727 0 0 1 0.48204,6.253249 28.121933,28.121933 0 0 0 0.34937,5.908304 4.3870039,4.3870039 0 0 0 1.32671,2.374819 5.4218415,5.4218415 0 0 0 2.93647,0.796029 L 128,88.579227 v 8.309657 l -1.04368,0.06191 a 6.5539715,6.5539715 0 0 0 -2.42789,0.442238 3.0337547,3.0337547 0 0 0 -1.19405,1.158664 6.5628163,6.5628163 0 0 0 -0.82256,2.361554 29.820128,29.820128 0 0 0 -0.19016,4.11723 37.072836,37.072836 0 0 1 -0.47762,7.2704 7.4915167,7.4915167 0 0 1 -1.97238,3.74133 9.4771666,9.4771666 0 0 1 -4.03764,2.17582 19.900723,19.900723 0 0 1 -5.23168,0.53953 z"
     style="fill:#ffffff;stroke-width:4.42238"
     id="path10" />
  <path
     d="m 126.95189,95.858473 a 7.7480149,7.7480149 0 0 0 -2.85243,0.570487 4.0597475,4.0597475 0 0 0 -1.64513,1.565524 7.6286106,7.6286106 0 0 0 -0.97292,2.759566 30.160652,30.160652 0 0 0 -0.20786,4.30297 36.573107,36.573107 0 0 1 -0.44223,7.02275 6.363809,6.363809 0 0 1 -1.67167,3.2018 8.4025276,8.4025276 0 0 1 -3.5777,1.90605 19.175452,19.175452 0 0 1 -4.97518,0.46435 h -1.37979 v -6.21787 a 11.72816,11.72816 0 0 0 3.62636,-0.34937 2.529603,2.529603 0 0 0 1.23826,-1.02157 4.6435021,4.6435021 0 0 0 0.44224,-2.21119 q 0,-1.57879 0.22112,-6.03655 a 15.611012,15.611012 0 0 1 0.69874,-4.316243 8.7386287,8.7386287 0 0 1 1.51688,-2.7463 9.0128164,9.0128164 0 0 1 2.42788,-2.003339 10.684477,10.684477 0 0 1 -2.79936,-2.436733 10.343954,10.343954 0 0 1 -1.6584,-4.351625 77.674734,77.674734 0 0 1 -0.4157,-7.960289 6.9475636,6.9475636 0 0 0 -0.34937,-2.591517 2.1537005,2.1537005 0 0 0 -1.16751,-0.999458 12.382672,12.382672 0 0 0 -3.77229,-0.349368 v -6.191337 h 1.37536 a 20.236824,20.236824 0 0 1 5.36435,0.543954 7.0183217,7.0183217 0 0 1 3.13547,1.852978 6.7618235,6.7618235 0 0 1 1.72473,3.215072 28.462457,28.462457 0 0 1 0.44224,5.996752 30.257944,30.257944 0 0 0 0.38917,6.191336 5.4085743,5.4085743 0 0 0 1.73799,2.967419 6.3991881,6.3991881 0 0 0 3.53791,1.02157 z"
     style="fill:#0072a0;stroke-width:4.42238"
     id="path12" />
  <metadata
     id="metadata20">
    <rdf:RDF>
      <cc:Work
         rdf:about="">
        <dc:title>file_type_apex</dc:title>
      </cc:Work>
    </rdf:RDF>
  </metadata>
</svg>
