<?xml version="1.0" encoding="utf-8"?>
<!-- Generator: Adobe Illustrator 16.0.0, SVG Export Plug-In . SVG Version: 6.00 Build 0)  -->
<!DOCTYPE svg PUBLIC "-//W3C//DTD SVG 1.1//EN" "http://www.w3.org/Graphics/SVG/1.1/DTD/svg11.dtd">
<svg version="1.1" id="Layer_1" xmlns="http://www.w3.org/2000/svg" xmlns:xlink="http://www.w3.org/1999/xlink" x="0px" y="0px"
	 width="500px" height="500px" viewBox="0 0 500 500" enable-background="new 0 0 500 500" xml:space="preserve">
<path fill="#F34F29" d="M487.254,228.039L271.955,12.751c-12.391-12.401-32.5-12.401-44.908,0l-44.704,44.711l56.709,56.711
	c13.184-4.45,28.294-1.464,38.799,9.041c10.558,10.569,13.521,25.809,8.959,39.037l54.658,54.658
	c13.224-4.557,28.481-1.612,39.04,8.967c14.764,14.754,14.764,38.67,0,53.433c-14.765,14.766-38.678,14.766-53.449,0
	c-11.1-11.111-13.846-27.418-8.224-41.096l-50.97-50.974l-0.009,134.145c3.601,1.774,6.996,4.15,9.996,7.141
	c14.759,14.754,14.759,38.666,0,53.446c-14.763,14.757-38.688,14.757-53.435,0c-14.757-14.78-14.757-38.692,0-53.446
	c3.648-3.644,7.868-6.397,12.371-8.243V184.895c-4.503-1.841-8.717-4.579-12.371-8.246c-11.179-11.172-13.872-27.579-8.138-41.311
	l-55.903-55.914L12.749,227.042c-12.404,12.41-12.404,32.521,0,44.921l215.3,215.288c12.396,12.397,32.5,12.397,44.916,0
	l214.29-214.291C499.654,260.558,499.654,240.437,487.254,228.039L487.254,228.039z"/>
</svg>
