<svg xmlns="http://www.w3.org/2000/svg" viewBox="0 0 128 128"><path fill="#F34F29" d="M76.004 50.588c-7.655 0-11.459 3.996-11.459 9.75 0 3.704 1.852 6.328 4.304 7.529-1.201 1.101-2.201 2.064-3.102 3.014-.902.952-1.452 1.957-1.452 3.059 0 1.352.55 2.605 2.202 3.303-1.751 1.654-2.753 2.854-2.753 5.107 0 3.953 3.453 6.256 12.511 6.256 8.708 0 13.761-3.251 13.761-9.007 0-6.653-5.103-6.904-13.761-7.456l-4.904-.3 1.652-2.652c.899.25 2.352.45 3.955.45 6.304 0 10.658-3.252 10.658-8.808 0-2.302-1.137-3.903-2.037-5.055l4.421-.35V51h-9.391c-1.15 0-2.453-.412-4.605-.412zm2.252 28.511c2.404.15 4.306.25 4.306 1.854 0 2.699-3.955 2.902-6.856 2.902-3.504 0-6.056-.602-6.056-2.603 0-1.002.65-1.852 1.302-2.652l7.304.499zm-1.949-14.712c-3.304 0-4.655-1.703-4.655-4.154 0-3.253 2.051-4.605 4.804-4.605 2.852 0 4.554 1.552 4.554 4.504 0 2.604-1.902 4.255-4.703 4.255zm22.866-17.702c2.902 0 4.554-1.652 4.554-4.506 0-2.85-1.652-4.403-4.554-4.403-2.853 0-4.505 1.553-4.505 4.403 0 2.853 1.652 4.506 4.505 4.506zM103 71.455V51h-9.733l-.55 3.896 2.667.874c.502.149.616.423.616.973v14.712c0 .752-.422.902-1.123 1.003l-2.877.35V77h15v-4.192l-2.876-.35c-.753-.101-1.124-.2-1.124-1.003zm22.418-1.04c-1.202.45-2.632.799-4.035.799-2.701 0-3.383-1.15-3.383-4.103V55h7v-5h-6.638c-.401 0-.362-.003-.362-.353V43h-4.793c-.55 5-3.207 7.196-7.207 7.698V55h4.003c.401 0-.003.353-.003.652v13.111c0 5.657 2.454 8.058 8.408 8.058 2.854 0 6.107-.951 8.26-2.001l-1.25-4.405zm-95.68-31.609a3.375 3.375 0 00-4.773 0l-4.751 4.751 6.027 6.027a4.007 4.007 0 015.076 5.11l5.809 5.809a4.012 4.012 0 014.149 6.632 4.014 4.014 0 01-5.68 0c-1.18-1.181-1.624-2.914-1.025-4.368L29 57.35v14.257c0 .189.895.441 1.214.759 1.568 1.568 1.644 4.11.075 5.681a3.972 3.972 0 01-5.642 0c-1.568-1.571-1.549-4.112.02-5.681.388-.387.333-.68 1.333-.876V57.101c-1-.196-.927-.487-1.314-.876a4.016 4.016 0 01-.865-4.39l-5.942-5.943L2.19 61.581a3.374 3.374 0 000 4.774l22.882 22.881a3.377 3.377 0 004.773 0L52.62 66.46a3.378 3.378 0 000-4.774l-22.882-22.88z"/></svg>