<?xml version="1.0" encoding="utf-8"?>
<!-- Generator: Adobe Illustrator 16.0.0, SVG Export Plug-In . SVG Version: 6.00 Build 0)  -->
<!DOCTYPE svg PUBLIC "-//W3C//DTD SVG 1.1//EN" "http://www.w3.org/Graphics/SVG/1.1/DTD/svg11.dtd">
<svg version="1.1" id="Layer_1" xmlns="http://www.w3.org/2000/svg" xmlns:xlink="http://www.w3.org/1999/xlink" x="0px" y="0px"
	 width="500px" height="500px" viewBox="0 0 500 500" enable-background="new 0 0 500 500" xml:space="preserve">
<g>
	<path fill="#31251C" d="M298.429,217.486c-10.692,0-18.654,5.25-18.654,17.885c0,9.52,5.247,16.131,18.079,16.131
		c10.875,0,18.262-6.41,18.262-16.524C316.115,223.516,309.505,217.486,298.429,217.486L298.429,217.486z M277.053,306.701
		c-2.532,3.106-5.053,6.407-5.053,10.301c0,7.768,9.907,10.105,23.516,10.105c11.272,0,26.627-0.789,26.627-11.271
		c0-6.23-7.389-6.614-16.723-7.199L277.053,306.701L277.053,306.701z M334.578,218.072c3.494,4.473,7.192,10.692,7.192,19.631
		c0,21.573-16.91,34.205-41.391,34.205c-6.226,0-11.864-0.775-15.357-1.748l-6.416,10.301l19.044,1.162
		c33.626,2.144,53.442,3.118,53.442,28.956c0,22.354-19.625,34.981-53.442,34.981c-35.178,0-48.586-8.941-48.586-24.291
		c0-8.75,3.888-13.402,10.691-19.828c-6.417-2.711-8.552-7.566-8.552-12.816c0-4.279,2.135-8.164,5.639-11.861
		c3.498-3.688,7.384-7.385,12.046-11.658c-9.521-4.665-16.713-14.771-16.713-29.156c0-22.348,14.772-37.695,44.501-37.695
		c8.359,0,13.417,0.77,17.887,1.943h37.9v16.514L334.578,218.072L334.578,218.072z"/>
	<path fill="#31251C" d="M386.654,182.756c-11.082,0-17.494-6.418-17.494-17.5c0-11.068,6.412-17.098,17.494-17.098
		c11.271,0,17.686,6.029,17.686,17.098C404.34,176.338,397.925,182.756,386.654,182.756L386.654,182.756z M361.578,299.553v-15.348
		l9.916-1.357c2.722-0.393,3.107-0.973,3.107-3.895v-57.137c0-2.133-0.582-3.5-2.532-4.078l-10.492-3.696l2.137-15.736h40.234
		v80.647c0,3.117,0.188,3.502,3.11,3.895l9.914,1.357v15.348H361.578L361.578,299.553z"/>
	<path fill="#31251C" d="M493.827,292.017c-8.361,4.077-20.602,7.772-31.687,7.772c-23.125,0-31.868-9.321-31.868-31.293V217.58
		c0-1.163,0-1.943-1.56-1.943h-13.604V198.34c17.108-1.949,23.906-10.502,26.043-31.686h18.467v27.607c0,1.355,0,1.943,1.555,1.943
		h27.402v19.432H459.62v46.446c0,11.466,2.724,15.933,13.211,15.933c5.45,0,11.079-1.356,15.746-3.105L493.827,292.017
		L493.827,292.017z"/>
	<path fill="#F34F29" d="M205.862,241.016l-88.863-88.858c-5.114-5.118-13.414-5.118-18.535,0l-18.451,18.454l23.406,23.407
		c5.441-1.837,11.678-0.604,16.014,3.731c4.358,4.362,5.581,10.652,3.698,16.112l22.56,22.56c5.458-1.881,11.755-0.665,16.113,3.701
		c6.094,6.09,6.094,15.961,0,22.054c-6.094,6.095-15.964,6.095-22.061,0c-4.582-4.586-5.715-11.316-3.395-16.962l-21.038-21.039
		l-0.004,55.367c1.486,0.732,2.888,1.713,4.125,2.947c6.092,6.09,6.092,15.959,0,22.06c-6.093,6.091-15.968,6.091-22.055,0
		c-6.091-6.101-6.091-15.97,0-22.06c1.506-1.504,3.248-2.641,5.106-3.402v-55.88c-1.858-0.76-3.598-1.89-5.106-3.403
		c-4.614-4.611-5.726-11.383-3.359-17.051l-23.074-23.078l-60.932,60.929c-5.12,5.122-5.12,13.423,0,18.541l88.863,88.858
		c5.117,5.117,13.414,5.117,18.539,0l88.447-88.447C210.98,254.438,210.98,246.133,205.862,241.016L205.862,241.016z"/>
	<rect x="6.173" y="148.158" fill="none" width="487.654" height="203.684"/>
</g>
</svg>
