<svg xmlns="http://www.w3.org/2000/svg" viewBox="0 0 128 128"><path fill="#31251C" d="M76.397 55.676c-2.737 0-4.775 1.344-4.775 4.579 0 2.437 1.343 4.129 4.628 4.129 2.784 0 4.676-1.641 4.676-4.23 0-2.934-1.693-4.478-4.529-4.478zm-5.471 22.84c-.648.795-1.294 1.64-1.294 2.637 0 1.989 2.536 2.587 6.021 2.587 2.885 0 6.816-.202 6.816-2.885 0-1.595-1.892-1.693-4.281-1.843l-7.262-.496zm14.725-22.69c.895 1.145 1.842 2.737 1.842 5.026 0 5.522-4.329 8.756-10.597 8.756-1.594 0-3.037-.198-3.932-.447l-1.642 2.637 4.875.297c8.608.549 13.682.798 13.682 7.413 0 5.723-5.024 8.955-13.682 8.955-9.006 0-12.438-2.289-12.438-6.218 0-2.24.996-3.431 2.737-5.076-1.643-.694-2.189-1.937-2.189-3.281 0-1.095.547-2.09 1.443-3.036.896-.944 1.891-1.891 3.084-2.985-2.438-1.194-4.278-3.781-4.278-7.464 0-5.721 3.781-9.65 11.393-9.65 2.14 0 3.435.197 4.578.498h9.703v4.228l-4.579.347zm13.332-9.04c-2.837 0-4.479-1.643-4.479-4.48 0-2.833 1.642-4.377 4.479-4.377 2.886 0 4.527 1.543 4.527 4.377.001 2.837-1.641 4.48-4.527 4.48zm-6.42 29.9v-3.929l2.539-.348c.696-.1.795-.249.795-.997V56.785c0-.546-.148-.896-.647-1.044l-2.687-.946.547-4.028h10.301v20.646c0 .798.048.896.796.997l2.538.348v3.929H92.563v-.001zm33.857-1.93c-2.141 1.043-5.274 1.99-8.112 1.99-5.92 0-8.158-2.386-8.158-8.011V55.7c0-.297 0-.497-.399-.497h-3.482v-4.428c4.38-.499 6.12-2.688 6.667-8.111h4.728v7.067c0 .347 0 .498.398.498h7.015v4.975h-7.413v11.89c0 2.935.697 4.079 3.383 4.079 1.395 0 2.836-.347 4.03-.795l1.343 4.378z"/><path fill="#F34F29" d="M52.7 61.7L29.951 38.952a3.355 3.355 0 00-4.744 0l-4.724 4.724 5.991 5.992a3.983 3.983 0 014.1.956 3.988 3.988 0 01.947 4.125l5.775 5.775a3.988 3.988 0 014.125 6.593 3.992 3.992 0 01-6.516-4.342l-5.386-5.386-.001 14.174a3.992 3.992 0 011.056 6.401 3.993 3.993 0 11-4.339-6.518V57.141a3.99 3.99 0 01-2.167-5.236l-5.906-5.908L2.563 61.595a3.356 3.356 0 000 4.747L25.312 89.09a3.357 3.357 0 004.746 0L52.7 66.446a3.355 3.355 0 000-4.746z"/><path fill="none" d="M1.58 37.928h124.84v52.143H1.58z"/></svg>