<svg viewBox="0 0 128 128" xmlns="http://www.w3.org/2000/svg">
  <path fill="#24a1c1" d="M64.188 9.672c-5.38 0-9.354 2.81-11.05 7.85l-.001.005-.053.174a3.035 3.035 0 0 1-1.356 1.623L5.078 45.85l-.195.119-.002.002c-3.68 2.286-3.594 7.777.228 9.925l18.995 10.66a1.245 1.245 0 0 1-.034 2.215l-18.765 9.79C1.28 80.657 1.17 86.438 5.11 88.687l56.057 31.997a5.784 5.784 0 0 0 5.72 0l56.378-32.13c3.934-2.24 3.838-8.01-.176-10.118l-18.559-9.764-.002-.002a1.261 1.261 0 0 1-.027-2.21l18.75-10.419.195-.115.002-.002c3.714-2.257 3.668-7.776-.156-9.946l-28.025-15.91-.225-.115a5.77 5.77 0 0 0-5.416.094l-20.064 11.13v-.001a3.02 3.02 0 0 1-1.868.35h-.004l-.498-.061-.459-.049h-.01a11.08 11.08 0 0 0-.779-.035c-6.042 0-11.039 4.11-11.039 9.283 0 5.176 4.998 9.285 11.04 9.285 6.046 0 11.042-4.109 11.042-9.283l.002-.076a.708.708 0 0 1 .358-.535L90.91 42.53a3.014 3.014 0 0 1 2.951.018l12.854 7.293.002.002a1.235 1.235 0 0 1-.012 2.187l-.002.002-41.187 22.899v-.002a3.016 3.016 0 0 1-2.94-.01L21.61 51.924a1.244 1.244 0 0 1-.006-2.192l37.792-21.494h.002a3.007 3.007 0 0 1 2.09-.334c1.09.222 1.981.338 2.7.338 6.047 0 11.044-4.112 11.044-9.285 0-5.189-5.226-9.285-11.043-9.285zm0 1c5.346 0 10.042 3.778 10.042 8.285 0 4.523-4.447 8.285-10.043 8.285-.608 0-1.45-.104-2.501-.318a4.01 4.01 0 0 0-2.786.445L21.107 48.863c-1.503.858-1.497 3.082.01 3.932l40.97 22.998v-.002a4.017 4.017 0 0 0 3.913.014l41.186-22.897.002-.002c1.523-.838 1.534-3.08.02-3.933L94.354 41.68a4.018 4.018 0 0 0-3.93-.024L76.86 49.182a1.71 1.71 0 0 0-.865 1.297l-.004.021-.004.158v.008c0 4.525-4.447 8.283-10.043 8.283-5.59 0-10.039-3.757-10.039-8.285 0-4.523 4.448-8.283 10.04-8.283.192 0 .431.014.71.033h.002l.422.045.483.057a4.023 4.023 0 0 0 2.484-.465l20.066-11.13a4.763 4.763 0 0 1 4.475-.077l.205.103 28.006 15.903c3.2 1.814 3.227 6.333.13 8.216v.002l-.175.104-18.74 10.414-.002.002a2.264 2.264 0 0 0-1.155 2v.004a2.272 2.272 0 0 0 1.205 1.963l18.563 9.767c3.362 1.766 3.438 6.49.144 8.366l-56.375 32.129a4.782 4.782 0 0 1-4.732 0L5.607 87.82c-3.3-1.884-3.208-6.617.16-8.373l18.766-9.79h.002c1.562-.82 1.595-3.104.059-3.971L5.6 55.026c-3.2-1.798-3.262-6.298-.192-8.206l.178-.11 46.639-26.519a4.033 4.033 0 0 0 1.802-2.156l.002-.01.057-.185v-.002c1.585-4.709 5.06-7.166 10.102-7.166zM91.885 73.92a4.01 4.01 0 0 0-1.92.533h-.002l-1.621.934-21.403 12.306-.199.108a4.749 4.749 0 0 1-4.506-.084L39.275 74.77a4.005 4.005 0 0 0-3.82-.056L22.221 81.63c-1.558.816-1.6 3.091-.073 3.963l40.436 23.136v.002c1.23.7 2.74.7 3.97 0l.003-.002 40.777-23.298a2.26 2.26 0 0 0 1.145-1.998v-.002a2.26 2.26 0 0 0-1.207-1.961v.002l-13.446-7.096h-.002a4.002 4.002 0 0 0-1.94-.457zm.02 1c.498-.01 1 .104 1.456.344l13.446 7.091v.002a1.254 1.254 0 0 1 .035 2.206l-40.781 23.3a3.013 3.013 0 0 1-2.98 0h-.003L22.645 84.727a1.244 1.244 0 0 1 .039-2.21L35.918 75.6h.002a3 3 0 0 1 2.865.043l22.96 12.945a5.75 5.75 0 0 0 5.452.103l.006-.003.225-.124L90.463 75.32h.002a3.01 3.01 0 0 1 1.44-.4z"/>
</svg>

