<svg xmlns="http://www.w3.org/2000/svg" viewBox="0 0 128 128"><path fill="#24a1c1" d="m103.977 39.819-.27.003h-.005c-1.397.052-2.577.51-3.435 1.375-.956.95-1.367 2.466-1.367 4.464v1.244h-1.87c-.41.018-.775.202-1.006.47a1.418 1.418 0 0 0-.338.931c0 .33.105.662.338.931.23.27.596.452 1.006.47h1.87v12.776l.008.175.002.003c.036.496.222.966.58 1.296l.006.004.004.005a2.01 2.01 0 0 0 1.366.497 2.02 2.02 0 0 0 1.395-.524l.004-.003.113-.11.01-.01c.332-.357.497-.842.497-1.347V49.703h2.166a1.404 1.404 0 0 0 1.337-1.398 1.407 1.407 0 0 0-1.337-1.4h-2.17v-.445l.004-.283v-.003a15.287 15.287 0 0 1 .088-1.722v-.002c.077-.514.2-1 .246-1.062.164-.226.322-.339.407-.361l.014-.004.013-.006c.168-.058.483-.104.905-.104h1.548a1.554 1.554 0 0 0 1.507-1.484 1.55 1.55 0 0 0-1.383-1.6l.391.023v-.034zm5.975.001c-.583.021-1.12.208-1.526.566l-.002.003-.002.002a2.003 2.003 0 0 0-.652 1.495 1.962 1.962 0 0 0 .654 1.51l.002.002.002.002c.43.373 1.002.548 1.625.548s1.197-.172 1.628-.548v-.002l.002-.002c.427-.38.657-.927.657-1.504 0-.582-.231-1.131-.662-1.503-.425-.385-.995-.568-1.61-.568-.022 0-.06-.002-.116 0zm6.038 0a2.106 2.106 0 0 0-1.402.518l-.002.002-.002.002c-.407.362-.61.898-.61 1.464v20.668l.004.175.002.01c.036.5.228.966.578 1.295l.005.007.006.006a2.024 2.024 0 0 0 1.37.493 2.011 2.011 0 0 0 1.386-.52c.412-.366.63-.904.63-1.472v-5.73l6.808 7.122.117.12.007.006a1.815 1.815 0 0 0 2.532-.076c.358-.343.58-.799.58-1.28a1.72 1.72 0 0 0-.506-1.19l-.002-.001-6.118-6.343 5.553-4.889.127-.13.008-.006c.259-.292.417-.668.417-1.057 0-.469-.212-.915-.558-1.258a1.798 1.798 0 0 0-1.28-.556c-.399 0-.787.162-1.103.429l-.005.004-6.578 5.928V41.797l-.004-.175-.002-.015a1.892 1.892 0 0 0-.607-1.264 2.01 2.01 0 0 0-1.351-.524zm-12.004 1.026h2.03l.109.006a.51.51 0 0 1 .462.534.515.515 0 0 1-.509.5h-1.52c-.482 0-.877.043-1.219.158-.42.123-.718.421-.953.745h-.002v.002c-.339.472-.352 1.012-.427 1.52l-.002.004v.007a15.926 15.926 0 0 0-.097 1.848l-.004.282v1.48h3.153a.368.368 0 0 1 .354.375.363.363 0 0 1-.354.37h-3.149v13.792c0 .302-.076.488-.224.647v.003l-.067.062a.986.986 0 0 1-.688.259h-.024a.986.986 0 0 1-.667-.243c-.144-.133-.23-.305-.252-.604l-.008-.138V48.68h-2.856c-.16-.006-.218-.052-.27-.113a.41.41 0 0 1-.088-.26c0-.104.035-.2.088-.261.052-.062.113-.106.269-.113h2.857v-2.27c0-1.857.4-3.077 1.066-3.74l.001-.001c.658-.666 1.54-1.028 2.743-1.072l.247-.004zm11.996 0h.006a.9.9 0 0 1 .665.259l.004.002.002.002c.161.144.24.305.264.584l.004.118v20.658c0 .343-.086.534-.283.706l-.004.004-.004.002a.986.986 0 0 1-.686.259h-.022a.995.995 0 0 1-.673-.245c-.141-.135-.228-.308-.25-.602l-.004-.13V41.805c0-.349.084-.534.263-.694a1.079 1.079 0 0 1 .719-.265zm-5.994.002h.082c.431 0 .709.105.924.303l.006.006.008.006c.214.183.304.38.304.729 0 .335-.092.536-.31.733-.213.186-.505.296-.95.296-.443 0-.729-.107-.948-.296a.935.935 0 0 1-.312-.719v-.014c0-.334.094-.536.314-.735.215-.189.483-.295.883-.308zm-55.057 1.339a1.864 1.864 0 0 0-1.274.46l-.003.003-.002.002c-.376.342-.55.85-.55 1.379l-.2 2.874h-1.667l-.134.01-.01.003a1.402 1.402 0 0 0-1.24 1.393v.007l.007.135.002.02a1.405 1.405 0 0 0 1.398 1.23h1.548v8.928l.004.304v.002c.043 1.84.46 3.253 1.362 4.151.858.868 2.036 1.323 3.438 1.375h.004l.27.004h2.136l.116-.004.158-.028.012-.002a1.558 1.558 0 0 0 1.2-1.659v-.004a1.563 1.563 0 0 0-1.49-1.397h-1.552l-.179-.002h-.006a2.705 2.705 0 0 1-.728-.1l-.005-.002-.007-.002c-.096-.029-.254-.143-.416-.368-.046-.065-.165-.543-.242-1.061v-.002a15.072 15.072 0 0 1-.09-1.72v-.003l-.005-.284v-8.126h2.747l.133-.007.02-.002a1.4 1.4 0 0 0 1.239-1.387v-.01l-.007-.135-.002-.02a1.405 1.405 0 0 0-1.389-1.237h-2.74v-2.874a1.84 1.84 0 0 0-.575-1.364l-.004-.004h-.004a1.933 1.933 0 0 0-1.272-.476zm-.018 1.025h.014a.822.822 0 0 1 .592.219c.168.154.24.306.24.6v3.902h3.768c.197 0 .345.14.368.327l.002.049a.363.363 0 0 1-.325.364l-.058.002H55.76v9.162l.004.29c.004.75.038 1.36.099 1.84v.005l.002.004c.075.514.085 1.048.425 1.521.24.336.54.627.954.751.285.093.62.14 1.019.15h.004l.196.002h1.515a.524.524 0 0 1 .504.473.517.517 0 0 1-.404.557l-.05.01h-2.135l-.247-.004c-1.208-.044-2.085-.404-2.743-1.069l-.002-.003v-.002c-.627-.624-1.022-1.75-1.063-3.443v-.006l-.004-.29v-9.948H51.25a.365.365 0 0 1-.37-.324l-.002-.044c0-.193.139-.349.329-.37l.067-.004h2.586l.269-3.884v-.018c0-.329.075-.49.21-.615a.842.842 0 0 1 .572-.205zM21 44.987c-1.91 0-3.406 1.055-4.013 2.85l-.006.013-.01.042a.653.653 0 0 1-.288.352h-.003L1.137 57.085l-.073.041-.01.006c-1.439.893-1.4 3.068.092 3.906l6.325 3.55c.075.042.074.092-.002.133L1.22 67.977c-1.568.816-1.617 3.11-.078 3.985l18.678 10.66a2.264 2.264 0 0 0 2.25 0L40.857 71.92c1.532-.876 1.496-3.159-.066-3.982l-6.185-3.253c-.073-.04-.074-.087-.002-.129l6.253-3.472.069-.043c1.45-.882 1.428-3.067-.062-3.91l-9.347-5.308-.081-.04a2.272 2.272 0 0 0-2.127.036l-6.686 3.708a.706.706 0 0 1-.413.076l-.168-.02-.156-.018h-.007a3.337 3.337 0 0 0-.295-.015c-2.171 0-4.025 1.494-4.025 3.444 0 1.947 1.855 3.44 4.025 3.44 2.144 0 3.96-1.457 4.011-3.364l4.477-2.484a.66.66 0 0 1 .644.002l4.282 2.432a.074.074 0 0 1 .038.065c0 .025-.016.045-.038.058L21.27 66.77a.656.656 0 0 1-.64 0L6.98 59.107v-.002a.072.072 0 0 1-.037-.061c0-.025.01-.049.034-.061l12.596-7.16a.655.655 0 0 1 .455-.076c.376.076.688.12.969.12 2.17 0 4.025-1.49 4.025-3.44 0-1.798-1.627-3.13-3.511-3.351v-.089H21zm0 1.028c1.617 0 2.998 1.15 2.998 2.412 0 1.284-1.29 2.412-2.998 2.412a4.22 4.22 0 0 1-.768-.098 1.682 1.682 0 0 0-1.17.19L6.474 58.09a1.1 1.1 0 0 0-.558.955v.004a1.103 1.103 0 0 0 .563.952h.002v.002l13.648 7.664a1.688 1.688 0 0 0 1.645 0l13.725-7.627v-.002a1.1 1.1 0 0 0 .563-.947v-.004a1.103 1.103 0 0 0-.555-.962l-4.284-2.434h-.003a1.695 1.695 0 0 0-1.647-.006l-4.518 2.509a.915.915 0 0 0-.466.692l-.004.031v.075c0 1.28-1.29 2.412-3.001 2.412-1.708 0-2.998-1.133-2.998-2.412 0-1.284 1.289-2.416 2.998-2.416.05 0 .122.003.202.01l.134.015.16.02c.356.042.72-.02 1.038-.195v-.002l6.689-3.71a1.24 1.24 0 0 1 1.163-.019l.002.003.06.03 9.325 5.295c.85.481.852 1.642.034 2.14l-.052.031-6.243 3.468-.002.002c-.729.417-.711 1.533.03 1.926v.002l6.186 3.253c.894.47.912 1.678.036 2.18L21.561 81.733a1.238 1.238 0 0 1-1.233 0L1.653 71.068H1.65a1.227 1.227 0 0 1 .044-2.18l6.254-3.259.002-.002c.744-.393.763-1.513.032-1.93l-.004-.002-6.328-3.552a1.23 1.23 0 0 1-.054-2.137l.045-.026 15.54-8.84a1.685 1.685 0 0 0 .76-.906l.006-.018.013-.05c.493-1.456 1.474-2.151 3.041-2.151zm42.983.888a2.075 2.075 0 0 0-1.413.543v.002l-.002.002c-.402.375-.602.917-.602 1.495v13.532c.01.57.204 1.091.576 1.455l.007.006.004.003c.375.347.871.532 1.382.522a2.001 2.001 0 0 0 1.393-.54c.407-.38.62-.927.62-1.51v-8.291c.016-1.135.394-1.97 1.123-2.633.77-.687 1.67-1.028 3.134-1.028.471 0 .938-.168 1.24-.527l.005-.006.004-.004a1.89 1.89 0 0 0 .405-1.18c0-.463-.16-.9-.442-1.248-.175-.223-.483-.25-.75-.35v-.243h-.514c-1.318 0-2.37.406-3.313 1.156-.353.28-.624.617-.893.956v-.143c-.015-.553-.22-1.066-.604-1.422a1.985 1.985 0 0 0-1.36-.547zm24.671.002c-2.155 0-4.01.815-5.243 2.204-.164-.2-.319-.41-.487-.562h-.002v-.002c-.815-.713-1.88-1.167-3.213-1.418v.001a11.319 11.319 0 0 0-2.27-.206h-.001c-.843 0-1.228.035-1.876.166-1.08.22-2.113.71-2.796 1.355l-.002.001c-.298.283-.492.678-.492 1.063 0 .213.05.446.134.617a1.5 1.5 0 0 0 1.236.837l.005.002h.004c.113.005.265.005.419-.033.154-.039.296-.095.574-.202.938-.357 1.284-.449 2.02-.534a10.972 10.972 0 0 1 1.855.016c1.505.203 2.291.668 2.61 1.323.147.31.174.407.216.812v.002c.026.33.014.586-.118 1.505-.01.072-.013.078-.021.135l-.282-.05h-.002c-1.633-.288-2.738-.398-4.03-.398-1.819 0-3.028.226-4.2.813-1.562.785-2.492 2.21-2.707 4.07-.188 1.638.308 3.121 1.44 4.213 1.106 1.066 2.623 1.659 4.516 1.822.434.04 1.291 0 1.703-.053h.006c1.1-.155 2.176-.524 2.975-1.055h.002c.446-.298.821-.682 1.177-1.08.421.506.906.956 1.561 1.287.946.48 1.993.74 3.422.865h.003c.554.045 1.53.043 2.06-.018 1.334-.15 2.487-.588 3.396-1.325h.002c.399-.322.647-.776.65-1.239a1.374 1.374 0 0 0-.774-1.28c-.288-.149-.508-.208-.863-.149-.148.02-.191.046-.301.082a8.948 8.948 0 0 0-.39.139h-.002l-.004.002c-1.03.38-1.305.455-2.069.537a7.182 7.182 0 0 1-1.035.031h-.012c-1.133-.023-1.808-.173-2.476-.508-.663-.333-.934-.657-1.089-1.268v-.004l-.003-.002c-.041-.156-.041-.168-.046-.426v-.248c0-.483.007-.568.098-1.171l.028-.191c.02.003.033.003.053.007.295.049.634.11.766.136l-.004-.002c.421.09 1.251.193 1.961.255a18.133 18.133 0 0 0 2.85.016h.001c1.421-.137 2.558-.488 3.478-1.113 1.14-.774 1.825-1.925 2.095-3.442l.002-.01.002-.01c.029-.207.036-.5.036-.961 0-.734-.041-1.04-.209-1.562-.32-1.003-1.068-1.952-2.013-2.588-1.172-.787-2.694-1.204-4.323-1.204Zm21.424 0v.003a2.055 2.055 0 0 0-1.407.538v.002h-.004c-.405.375-.606.92-.606 1.497v13.474l.004.179.002.01c.036.517.226.991.58 1.328v.002l.003.001c.374.35.871.534 1.382.524a2.003 2.003 0 0 0 1.39-.54c.409-.38.62-.928.62-1.51V48.938l-.004-.17v-.015a1.944 1.944 0 0 0-.6-1.304 1.974 1.974 0 0 0-1.36-.544zm-46.101 1.026h.004a.873.873 0 0 1 .658.267l.003.002.002.002c.179.165.267.354.277.699v2.12l1.007.14c.261-.924.763-1.675 1.551-2.296v-.002c.802-.637 1.547-.928 2.662-.93h.013c.246 0 .338.051.459.203l.002.002.002.004a.883.883 0 0 1 .216.601.801.801 0 0 1-.18.53c-.09.105-.191.16-.447.16-1.64 0-2.865.438-3.82 1.291v.002h-.005c-.93.846-1.442 2.017-1.46 3.39v8.296c0 .364-.093.572-.296.76a.984.984 0 0 1-.686.268h-.017a.951.951 0 0 1-.663-.25c-.16-.158-.257-.366-.265-.73V48.946c0-.368.09-.57.271-.74a1.036 1.036 0 0 1 .712-.274zm24.677.002c1.453 0 2.784.378 3.75 1.027.75.505 1.376 1.323 1.608 2.05.154.48.16.54.16 1.249 0 .436-.017.73-.028.812-.237 1.315-.74 2.139-1.658 2.76-.74.504-1.69.814-2.997.941-.627.059-1.894.057-2.657-.016h-.004c-.675-.058-1.541-.172-1.84-.234l-.002-.002h-.002a30.163 30.163 0 0 0-.799-.143 25.824 25.824 0 0 0-.397-.066 7.874 7.874 0 0 0-.134-.02l-.052-.007c-.01 0-.019-.003-.038-.004a.466.466 0 0 0-.107.006l-.058.013-.109.044-.065.034-.055.054-.09.122-.024.052-.016.047c-.007.02-.007.027-.009.034l-.008.03-.008.052-.024.158a47.553 47.553 0 0 0-.074.494c-.093.616-.11.827-.11 1.325v.257c.004.296.028.477.082.68v.002c.22.853.78 1.505 1.622 1.928.817.41 1.696.59 2.915.617h.002a8.29 8.29 0 0 0 1.174-.035h.002c.816-.088 1.267-.208 2.324-.6l.002-.002h.004a6.533 6.533 0 0 1 .346-.124c.1-.034.233-.056.127-.043l.012-.002.012-.002c-.086.015.216.047.223.051.046.024.22.31.22.357v.006c0 .24.02.208-.27.442h-.002c-.736.597-1.685.975-2.863 1.106h-.002c-.36.041-1.424.05-1.859.015-1.35-.12-2.239-.346-3.048-.756-.632-.32-1.079-.695-1.422-1.166l-.53-.73-.425.416a1.665 1.665 0 0 0-.211.252l.021-.031a5.238 5.238 0 0 1-1.205 1.112c-.62.41-1.592.754-2.553.888a25.294 25.294 0 0 1-1.472.052h-.004c-1.729-.151-2.98-.665-3.889-1.54-.914-.884-1.294-1.978-1.136-3.357.185-1.602.87-2.624 2.15-3.267 1.02-.512 2-.705 3.738-.705 1.235 0 2.249.101 3.849.383a37.737 37.737 0 0 0 .708.12l.058.008c.016.003-.029.007.092.007a.586.586 0 0 0 .388-.168.517.517 0 0 0 .112-.173c.036-.084.044-.134.056-.196.027-.126.051-.288.088-.548v-.002c.136-.945.16-1.33.124-1.746v-.008a3.24 3.24 0 0 0-.306-1.15l-.002-.001-.002-.004c-.525-1.083-1.729-1.675-3.408-1.899h-.01l-.01-.002a12.012 12.012 0 0 0-2.056-.016h-.007l-.01.002c-.8.092-1.305.226-2.275.596a6.976 6.976 0 0 1-.462.167c-.041.01-.018.005-.11 0-.236-.015-.273-.038-.381-.261-.053-.109-.029 0-.029-.168 0-.206-.04-.113.175-.319.48-.455 1.396-.91 2.29-1.092.614-.125.854-.147 1.671-.147.845.004 1.343.046 2.08.187v.002c1.213.23 2.084.619 2.728 1.182a5.24 5.24 0 0 1 .582.664l.004.005.004.007c.03.047.062.088.096.13a.684.684 0 0 0 .143.13c.021.014.044.031.086.049a.935.935 0 0 0 .08.026l.123.014.194-.038s.058-.028.074-.038a.535.535 0 0 0 .062-.042c.027-.02.038-.033.05-.044.022-.023.036-.041.055-.062.038-.044.08-.092.124-.149l.002-.002h.002c.99-1.281 2.682-2.037 4.73-2.037zm21.416 0h.006a.863.863 0 0 1 .657.263l.003.004.004.002c.163.149.249.33.27.623l.005.126v13.462c0 .362-.093.57-.295.76a.984.984 0 0 1-.687.267h-.02a.932.932 0 0 1-.662-.25c-.149-.145-.236-.325-.259-.647l-.004-.137V48.945c0-.368.09-.57.278-.743a1.027 1.027 0 0 1 .703-.27zm15.57.298c.218 0 .366.06.547.246l.002.002.004.005c.197.195.257.345.257.534 0 .133-.035.229-.16.372l-.075.079-6.327 5.57 6.867 7.117.002.002c.164.167.215.3.215.476 0 .205-.06.35-.265.545l-.008.008-.008.008a.787.787 0 0 1-.572.245h-.006a.703.703 0 0 1-.532-.21l-.084-.085-7.701-8.059 7.406-6.673c.167-.141.293-.183.438-.183zm-37.537.762a4.956 4.956 0 0 0-.808.058 4.42 4.42 0 0 0-1.752.715c-.934.647-1.571 1.633-1.91 2.884-.128.465-.175.689-.286 1.482h-.003l-.17 1.247.655.077h.002l.777.093.47.057h.001c.227.027.45.062.638.084.342.046.742.093.956.11.474.04 1.203.04 1.736.006h-.006l.21-.01h.01c.716-.069 1.231-.2 1.794-.47l.001-.002h.002c.475-.235.835-.535 1.112-.954h.002v-.002c.392-.596.567-1.243.562-2.05 0-.552-.073-.924-.268-1.341-.488-1.04-1.585-1.713-2.924-1.942a4.65 4.65 0 0 0-.802-.042zm.011 1.027c.263-.003.544.014.618.026 1.1.188 1.86.716 2.165 1.369.158.337.173.41.173.904v.005c.005.678-.096 1.03-.393 1.482-.195.292-.334.408-.705.592h-.002l-.002.002c-.47.226-.79.308-1.434.37l-.004.002-.183.007-.004.002c-.462.031-1.202.027-1.585-.005h-.006a28.766 28.766 0 0 1-.901-.105c-.175-.022-.401-.055-.647-.084h-.002l-.467-.058h-.002c-.157-.02-.261-.031-.397-.047l.028-.208-.002.002c.11-.78.138-.904.26-1.354.293-1.079.79-1.814 1.508-2.312h.002v-.004c.38-.267.814-.442 1.352-.544a5.178 5.178 0 0 1 .63-.041zm-10.75 5.672a4.13 4.13 0 0 0-.266.01l-.483.032v.077c-.742.076-1.357.15-1.918.425h-.003c-.384.19-.698.421-.935.725a3.358 3.358 0 0 0-.633 1.336c-.062.259-.076.554-.08.867-.001.314-.002.583.072.857.138.523.365.92.737 1.31l.002.002c.542.56 1.257.932 2.097 1.11l.002.001c.386.08.49.094 1.14.083.477-.005.715-.03.944-.083a4.49 4.49 0 0 0 2.343-1.333l.002-.004.004-.002c.558-.624.978-1.492 1.213-2.446.071-.294.15-.76.212-1.184a12.7 12.7 0 0 0 .072-.562 2.841 2.841 0 0 0 .015-.207c0-.033.004-.064 0-.114-.004-.025-.005-.053-.021-.108a.484.484 0 0 0-.113-.206l-.123-.103-.057-.03-.065-.021a1.671 1.671 0 0 0-.347-.06h.017a17.99 17.99 0 0 1-.704-.083c-1.48-.195-2.46-.29-3.123-.286zm.005 1.028c.552-.003 1.52.088 2.982.283.16.021.32.036.481.054-.01.09-.018.163-.034.267-.059.403-.145.884-.196 1.089-.2.812-.572 1.547-.977 2.001a3.462 3.462 0 0 1-1.806 1.032h-.004l-.002.002c-.155.035-.272.047-.729.05h-.004c-.65.013-.522.02-.914-.058-.674-.144-1.18-.416-1.568-.817l-.002-.004c-.298-.315-.377-.45-.487-.865v-.002a5.066 5.066 0 0 1-.035-.578 4.07 4.07 0 0 1 .051-.64v-.004l.001-.004a2.33 2.33 0 0 1 .44-.929h.002c.132-.168.282-.289.577-.436.613-.299.935-.37 2.011-.429l.099-.008c.038-.001.073-.004.114-.004zm-47.148 9.676a1.686 1.686 0 0 0-.807.223l-7.675 4.41-.05.03h-.003a1.238 1.238 0 0 1-1.168-.024l-7.65-4.315a1.687 1.687 0 0 0-1.605-.023L6.85 69.002a1.11 1.11 0 0 0-.584.951v.002a1.104 1.104 0 0 0 .56.98l13.47 7.707v.002a1.685 1.685 0 0 0 1.664-.002l13.592-7.766a1.1 1.1 0 0 0-.036-1.926l-4.48-2.363a1.686 1.686 0 0 0-.813-.191zm.015 1.025a.654.654 0 0 1 .32.074l4.48 2.364a.067.067 0 0 1 .038.06v.005a.068.068 0 0 1-.034.061l-13.59 7.766a.66.66 0 0 1-.648-.002L7.33 70.042l-.002-.003a.07.07 0 0 1-.04-.064.077.077 0 0 1 .043-.066l4.41-2.301a.655.655 0 0 1 .623.008l7.647 4.314a2.26 2.26 0 0 0 2.145.04l.012-.004.08-.046 7.675-4.411a.654.654 0 0 1 .313-.088zm28.035 4.674c-.96 0-1.787.209-2.469.627a3.81 3.81 0 0 0-1.44 1.574l-.11.232v-1.865a.544.544 0 0 0-.132-.377.466.466 0 0 0-.364-.145.466.466 0 0 0-.365.144.483.483 0 0 0-.125.285l-.008.093V87.64c0 .359.169.54.498.54a.486.486 0 0 0 .37-.14.558.558 0 0 0 .123-.304l.004-.096v-6.144c.345.801.863 1.415 1.55 1.84.681.425 1.508.639 2.468.639 1.007 0 1.897-.24 2.672-.73.77-.49 1.369-1.181 1.798-2.067.421-.89.634-1.926.634-3.106 0-1.196-.213-2.243-.634-3.142-.43-.9-1.027-1.593-1.798-2.09-.775-.495-1.665-.744-2.672-.744zm20.378 0c-1.011 0-1.897.243-2.672.732-.77.49-1.368 1.181-1.798 2.078-.422.9-.638 1.939-.638 3.118 0 1.197.213 2.243.637 3.144.427.897 1.027 1.587 1.798 2.077.77.491 1.662.73 2.673.73 1.008 0 1.898-.238 2.669-.729.773-.49 1.371-1.181 1.798-2.079.424-.9.638-1.946.638-3.143 0-1.18-.214-2.219-.637-3.118-.427-.894-1.025-1.588-1.798-2.078-.77-.49-1.663-.73-2.67-.73zm19.311.021a.565.565 0 0 0-.377.145.451.451 0 0 0-.14.501l.02.065 4.964 10.96-1.701 3.732-.044.188a.396.396 0 0 0 .128.31.466.466 0 0 0 .32.116.442.442 0 0 0 .382-.209l.04-.072 6.787-15.025a.962.962 0 0 0 .048-.213.431.431 0 0 0-.144-.34.454.454 0 0 0-.33-.13.442.442 0 0 0-.406.241l-.044.089-4.49 10.085-.049.12-4.562-10.277c-.093-.19-.23-.282-.4-.282v-.004zm-30.849.026c-.297 0-.46.148-.49.441l-.003.103v10.698c0 .172.04.308.129.4.087.1.208.145.364.145.157 0 .28-.045.365-.141a.47.47 0 0 0 .126-.301l.007-.103v-6.447a4 4 0 0 1 .875-2.548c.542-.691 1.336-1.11 2.372-1.254l.228-.025.707-.07c.333-.047.497-.204.497-.473 0-.14-.036-.247-.104-.319a.473.473 0 0 0-.285-.102h-.108v-.004h-.164l-.329.021c-1.703.121-2.897.806-3.593 2.042l-.096.178v-1.695c0-.175-.047-.31-.14-.402a.49.49 0 0 0-.357-.145Zm19.34.002a.45.45 0 0 0-.333.143.473.473 0 0 0-.144.35.595.595 0 0 0 .108.329l.06.077 4.18 4.91-4.32 5.035a.596.596 0 0 0-.169.396.47.47 0 0 0 .144.358.447.447 0 0 0 .329.143.545.545 0 0 0 .342-.135l.084-.076 4.23-4.985 4.257 4.985c.123.14.261.212.402.212a.458.458 0 0 0 .329-.14.49.49 0 0 0 .143-.362.59.59 0 0 0-.102-.32l-.065-.076-4.322-5.033 4.206-4.914a.581.581 0 0 0 .164-.401.451.451 0 0 0-.153-.353.487.487 0 0 0-.34-.141.458.458 0 0 0-.326.132l-.076.078-4.113 4.864-4.114-4.864c-.127-.14-.262-.212-.4-.212Zm-28.181.918c1.262 0 2.248.443 2.955 1.326.709.879 1.063 2.107 1.063 3.682 0 1.572-.354 2.79-1.063 3.649-.707.859-1.703 1.288-2.979 1.288s-2.259-.434-2.953-1.3c-.695-.863-1.04-2.094-1.04-3.684 0-1.588.345-2.814 1.04-3.673.694-.858 1.685-1.288 2.978-1.288zm20.379 0c1.26 0 2.248.44 2.966 1.315.719.87 1.075 2.085 1.075 3.646 0 1.606-.349 2.837-1.05 3.696-.703.859-1.707 1.288-3.015 1.288-1.276 0-2.267-.43-2.966-1.288-.702-.86-1.05-2.09-1.05-3.696 0-1.561.356-2.776 1.075-3.647.715-.874 1.705-1.314 2.965-1.314z"/></svg>
