<svg xmlns="http://www.w3.org/2000/svg" viewBox="0 0 128 128"><path fill="#24a1c1" d="M63.999 6.32c-5.553 0-9.654 2.901-11.405 8.103v.005l-.055.18a3.132 3.132 0 0 1-1.4 1.675L2.99 43.66l-.202.123-.002.002c-3.798 2.36-3.71 8.026.236 10.243l19.605 11.003a1.285 1.285 0 0 1-.035 2.286L3.225 77.422c-4.155 2.164-4.268 8.13-.202 10.452l57.858 33.024a5.97 5.97 0 0 0 5.904 0l58.189-33.162c4.06-2.312 3.96-8.267-.182-10.443l-19.155-10.077-.002-.002a1.302 1.302 0 0 1-.028-2.281l19.352-10.754.201-.119.002-.002c3.834-2.33 3.786-8.025-.16-10.265L96.075 27.372l-.232-.119a5.955 5.955 0 0 0-5.59.097L69.546 38.838v-.001a3.117 3.117 0 0 1-1.928.36h-.004l-.514-.062-.474-.05h-.01a11.436 11.436 0 0 0-.804-.037c-6.236 0-11.394 4.242-11.394 9.581 0 5.343 5.159 9.584 11.395 9.584 6.24 0 11.396-4.241 11.396-9.582l.002-.078a.73.73 0 0 1 .37-.552l13.998-7.767a3.11 3.11 0 0 1 3.046.019l13.267 7.527.002.002a1.275 1.275 0 0 1-.012 2.257l-.002.002-42.51 23.635v-.002a3.113 3.113 0 0 1-3.035-.01L20.053 49.93a1.284 1.284 0 0 1-.006-2.262l39.006-22.185h.002a3.104 3.104 0 0 1 2.157-.345c1.125.23 2.045.35 2.787.35 6.241 0 11.399-4.245 11.399-9.584 0-5.356-5.394-9.583-11.398-9.583zm0 1.033c5.518 0 10.365 3.9 10.365 8.551 0 4.668-4.59 8.551-10.366 8.551-.627 0-1.496-.107-2.581-.328a4.139 4.139 0 0 0-2.876.46L19.534 46.77c-1.55.886-1.545 3.181.01 4.059l42.287 23.736v-.001a4.146 4.146 0 0 0 4.038.014l42.51-23.633.001-.002c1.572-.865 1.583-3.179.02-4.059l-13.266-7.527a4.147 4.147 0 0 0-4.056-.025l-14 7.768a1.765 1.765 0 0 0-.893 1.338l-.004.022-.004.163v.008c0 4.67-4.59 8.55-10.365 8.55-5.77 0-10.362-3.878-10.362-8.552 0-4.668 4.591-8.549 10.363-8.549.198 0 .444.015.732.034h.002l.436.047.498.059a4.152 4.152 0 0 0 2.564-.48l20.71-11.488a4.916 4.916 0 0 1 4.62-.08l.211.107 28.906 16.414c3.302 1.872 3.33 6.536.134 8.48v.002l-.18.107-19.343 10.749-.002.002a2.337 2.337 0 0 0-1.192 2.064v.004a2.345 2.345 0 0 0 1.244 2.026l19.159 10.08c3.47 1.824 3.549 6.7.149 8.636l-58.186 33.16a4.936 4.936 0 0 1-4.884 0L3.537 86.98c-3.406-1.945-3.311-6.83.165-8.642L23.07 68.232h.003c1.612-.846 1.646-3.203.06-4.098L3.53 53.132c-3.303-1.856-3.367-6.5-.198-8.47l.184-.114 48.137-27.37a4.162 4.162 0 0 0 1.86-2.226l.002-.01.058-.19v-.003C55.209 9.89 58.795 7.353 64 7.353Zm28.587 65.28a4.139 4.139 0 0 0-1.982.55h-.002l-1.673.963-22.09 12.702-.206.111a4.902 4.902 0 0 1-4.65-.086L38.285 73.51a4.134 4.134 0 0 0-3.943-.058L20.684 80.59c-1.608.842-1.651 3.19-.075 4.09l41.735 23.88v.001a4.144 4.144 0 0 0 4.097 0l.003-.002 42.087-24.046a2.333 2.333 0 0 0 1.182-2.062v-.002a2.333 2.333 0 0 0-1.246-2.024v.002l-13.878-7.324h-.002a4.13 4.13 0 0 0-2.002-.472zm.02 1.032a3.093 3.093 0 0 1 1.503.354l13.878 7.32v.001a1.294 1.294 0 0 1 .036 2.277l-42.09 24.049a3.11 3.11 0 0 1-3.077 0h-.003l-41.731-23.88a1.284 1.284 0 0 1 .04-2.28l13.659-7.14h.002a3.096 3.096 0 0 1 2.957.045l23.698 13.36a5.935 5.935 0 0 0 5.627.107l.006-.003.232-.128 23.775-13.67h.002a3.107 3.107 0 0 1 1.486-.413z"/></svg>
