<?xml version="1.0" encoding="utf-8"?>
<svg version="1.1" xmlns="http://www.w3.org/2000/svg" xmlns:xlink="http://www.w3.org/1999/xlink" 
	 viewBox="0 0 128 128" xml:space="preserve">
<g id="layer1" transform="translate(-6.3260942,-174.7524)">
	<g>
		<path fill="#486bb3" d="M62.81,229.85c0.37,0.27,0.82,0.43,1.31,0.43c1.2,0,2.18-0.95,2.23-2.13l0.05-0.03l0.75-13.26
			c-0.9,0.11-1.8,0.26-2.7,0.46c-4.93,1.12-9.2,3.55-12.54,6.83l10.87,7.71L62.81,229.85z"/>
		<path fill="#486bb3" d="M61.36,249.28c-0.23-1.02-1.13-1.72-2.14-1.73c-0.14,0-0.29,0.01-0.44,0.04l-0.02-0.03l-13.05,2.21
			c2.01,5.57,5.78,10.12,10.51,13.15l5.06-12.22l-0.04-0.05C61.41,250.23,61.47,249.76,61.36,249.28z"/>
		<path fill="#486bb3" d="M57.02,239.87c0.44-0.12,0.85-0.38,1.16-0.76c0.75-0.94,0.62-2.29-0.28-3.07l0.01-0.05l-9.93-8.88
			c-2.95,4.8-4.34,10.56-3.7,16.48l12.73-3.67L57.02,239.87z"/>
		<polygon fill="#486bb3" points="66.66,243.77 70.32,245.53 73.98,243.78 74.88,239.83 72.35,236.67 68.29,236.67 65.75,239.83 		"/>
		<path fill="#486bb3" d="M74.26,228.1c0.02,0.46,0.18,0.91,0.49,1.29c0.75,0.94,2.1,1.11,3.06,0.41l0.04,0.02l10.8-7.66
			c-4.08-3.99-9.4-6.6-15.15-7.3l0.75,13.24L74.26,228.1z"/>
		<path fill="#486bb3" d="M81.84,247.53c-0.17-0.03-0.34-0.05-0.51-0.04c-0.29,0.01-0.58,0.09-0.85,0.22c-1.08,0.52-1.55,1.8-1.08,2.89
			l-0.02,0.02l5.11,12.34c4.93-3.14,8.61-7.83,10.54-13.24l-13.16-2.23L81.84,247.53z"/>
		<path fill="#486bb3" d="M72.28,254.07c-0.22-0.4-0.56-0.74-1-0.95c-0.34-0.16-0.69-0.23-1.04-0.22c-0.77,0.03-1.5,0.46-1.89,1.18
			h-0.01l-6.42,11.6c4.44,1.51,9.35,1.85,14.27,0.73c0.88-0.2,1.74-0.44,2.57-0.72l-6.43-11.63H72.28z"/>
		<path fill="#486bb3" d="M130.87,251.54l-10.44-45.33c-0.55-2.38-2.16-4.38-4.37-5.43L73.82,180.6c-1.22-0.58-2.57-0.85-3.92-0.78
			c-1.07,0.05-2.13,0.32-3.1,0.78l-42.24,20.18c-2.21,1.06-3.82,3.06-4.37,5.43L9.78,251.55c-0.49,2.11-0.09,4.33,1.1,6.14
			c0.14,0.22,0.3,0.43,0.46,0.64l29.24,36.35c1.53,1.91,3.86,3.01,6.32,3.01l46.89-0.01c2.46,0,4.78-1.11,6.32-3.01l29.23-36.36
			C130.85,256.42,131.42,253.92,130.87,251.54z M114.8,250.99c-0.31,1.35-1.76,2.17-3.26,1.85c-0.01,0-0.03,0-0.04-0.01
			c-0.02,0-0.03-0.01-0.05-0.02c-0.21-0.05-0.47-0.09-0.65-0.14c-0.86-0.23-1.49-0.58-2.27-0.88c-1.67-0.6-3.06-1.1-4.41-1.3
			c-0.69-0.05-1.04,0.27-1.42,0.52c-0.18-0.04-0.75-0.14-1.08-0.19c-2.42,7.61-7.58,14.21-14.57,18.33
			c0.12,0.29,0.33,0.91,0.42,1.02c-0.16,0.43-0.4,0.83-0.19,1.49c0.49,1.27,1.28,2.52,2.24,4.01c0.46,0.69,0.94,1.22,1.36,2.02
			c0.1,0.19,0.23,0.48,0.33,0.68c0.65,1.39,0.17,2.99-1.08,3.59c-1.26,0.61-2.82-0.03-3.5-1.43c-0.1-0.2-0.23-0.46-0.31-0.65
			c-0.36-0.82-0.48-1.52-0.73-2.32c-0.57-1.68-1.05-3.07-1.73-4.25c-0.39-0.57-0.86-0.64-1.29-0.78c-0.08-0.14-0.38-0.69-0.54-0.97
			c-1.4,0.53-2.84,0.97-4.34,1.31c-6.56,1.49-13.13,0.89-18.99-1.37l-0.57,1.04c-0.43,0.11-0.84,0.23-1.09,0.53
			c-0.92,1.1-1.29,2.86-1.96,4.54c-0.25,0.79-0.37,1.5-0.73,2.32c-0.08,0.19-0.22,0.45-0.31,0.64c0,0,0,0,0,0.01c0,0,0,0-0.01,0.01
			c-0.67,1.39-2.23,2.03-3.49,1.43c-1.25-0.6-1.72-2.2-1.08-3.59c0.1-0.2,0.22-0.49,0.32-0.68c0.42-0.79,0.89-1.33,1.36-2.02
			c0.96-1.5,1.8-2.84,2.29-4.11c0.12-0.42-0.06-1-0.22-1.43l0.46-1.1c-6.73-3.99-12.04-10.34-14.58-18.21l-1.1,0.19
			c-0.3-0.17-0.89-0.56-1.45-0.51c-1.35,0.2-2.74,0.7-4.41,1.3c-0.78,0.3-1.4,0.64-2.27,0.87c-0.18,0.05-0.44,0.1-0.65,0.15
			c-0.02,0-0.03,0.01-0.05,0.02c-0.01,0-0.03,0-0.04,0.01c-1.5,0.32-2.95-0.5-3.26-1.85c-0.31-1.35,0.65-2.72,2.14-3.08
			c0.01,0,0.03-0.01,0.04-0.01c0.01,0,0.01,0,0.02-0.01c0.21-0.05,0.48-0.12,0.68-0.16c0.88-0.17,1.6-0.13,2.43-0.19
			c1.77-0.19,3.23-0.34,4.53-0.75c0.41-0.17,0.81-0.74,1.09-1.1l1.06-0.31c-1.19-8.22,0.82-16.28,5.16-22.81l-0.81-0.72
			c-0.05-0.32-0.12-1.04-0.51-1.46c-0.99-0.93-2.25-1.71-3.76-2.64c-0.72-0.42-1.38-0.69-2.1-1.23c-0.15-0.11-0.36-0.29-0.52-0.42
			c-0.01-0.01-0.03-0.02-0.04-0.03c-1.21-0.97-1.49-2.64-0.62-3.73c0.49-0.61,1.24-0.92,2.01-0.89c0.6,0.02,1.23,0.24,1.76,0.66
			c0.17,0.14,0.41,0.32,0.56,0.45c0.68,0.58,1.09,1.16,1.66,1.77c1.25,1.27,2.28,2.32,3.41,3.08c0.59,0.35,1.05,0.21,1.5,0.15
			c0.15,0.11,0.63,0.46,0.91,0.65c4.3-4.57,9.96-7.95,16.52-9.44c1.53-0.35,3.05-0.58,4.57-0.7l0.06-1.07
			c0.34-0.33,0.71-0.79,0.82-1.31c0.11-1.36-0.07-2.82-0.28-4.59c-0.12-0.82-0.31-1.51-0.35-2.4c-0.01-0.18,0-0.44,0.01-0.65
			c0-0.02-0.01-0.05-0.01-0.07c0-1.55,1.13-2.81,2.53-2.81h0c1.4,0,2.53,1.26,2.53,2.81c0,0.22,0.01,0.52,0.01,0.72
			c-0.03,0.89-0.23,1.58-0.35,2.4c-0.21,1.76-0.4,3.23-0.29,4.59c0.1,0.68,0.5,0.95,0.83,1.26c0.01,0.18,0.04,0.79,0.06,1.13
			c8.04,0.71,15.5,4.39,20.99,10.14l0.96-0.69c0.33,0.02,1.04,0.12,1.53-0.17c1.13-0.76,2.16-1.82,3.41-3.08
			c0.57-0.61,0.99-1.18,1.67-1.77c0.15-0.13,0.39-0.31,0.56-0.45c1.21-0.97,2.9-0.86,3.77,0.23s0.59,2.76-0.62,3.73
			c-0.17,0.14-0.39,0.33-0.56,0.45c-0.72,0.53-1.38,0.8-2.1,1.23c-1.51,0.93-2.77,1.71-3.76,2.64c-0.47,0.5-0.43,0.98-0.48,1.43
			c-0.14,0.13-0.63,0.57-0.9,0.8c2.18,3.24,3.81,6.92,4.74,10.95c0.92,3.99,1.06,7.97,0.53,11.8l1.02,0.3
			c0.18,0.26,0.56,0.89,1.09,1.1c1.3,0.41,2.76,0.56,4.53,0.75c0.83,0.07,1.55,0.03,2.43,0.19c0.21,0.04,0.52,0.12,0.73,0.17
			C114.16,248.27,115.11,249.64,114.8,250.99z"/>
		<path fill="#486bb3" d="M92.6,227.11l-9.88,8.84l0.01,0.03c-0.34,0.3-0.6,0.7-0.71,1.18c-0.27,1.17,0.44,2.33,1.58,2.65l0.01,0.05
			l12.79,3.68c0.27-2.76,0.11-5.62-0.55-8.48C95.19,232.17,94.08,229.5,92.6,227.11z"/>
	</g>
</g>
</svg>
