<svg xmlns="http://www.w3.org/2000/svg" viewBox="0 0 128 128"><path fill="#326ce5" d="M63.778 16.157a5.449 5.449 0 0 0-2.074.523L35.99 28.967a5.384 5.384 0 0 0-2.93 3.646l-6.343 27.599a5.339 5.339 0 0 0 .734 4.122c.096.147.2.29.31.428l17.8 22.133a5.43 5.43 0 0 0 4.232 2.017l28.54-.006a5.43 5.43 0 0 0 4.233-2.015l17.793-22.134a5.345 5.345 0 0 0 1.046-4.55l-6.353-27.6a5.383 5.383 0 0 0-2.93-3.648l-25.72-12.28a5.453 5.453 0 0 0-2.622-.521zm.05.99a4.458 4.458 0 0 1 2.145.428l25.72 12.282v-.002a4.39 4.39 0 0 1 2.392 2.975l6.352 27.599c.3 1.3-.013 2.662-.852 3.705L81.792 86.27a4.433 4.433 0 0 1-3.458 1.645h-.002l-28.542.006a4.434 4.434 0 0 1-3.458-1.647l-17.8-22.134a4.355 4.355 0 0 1-.25-.347v-.002a4.344 4.344 0 0 1-.6-3.356l6.344-27.6a4.39 4.39 0 0 1 2.39-2.973l25.716-12.287a4.449 4.449 0 0 1 1.696-.428zm.23 8.4c-1.149 0-2.035 1.022-2.036 2.207 0 .09.005.106.004.056v.002c-.002.112-.008.255-.002.397.022.603.146 1.046.213 1.506.127 1.058.222 1.902.166 2.65-.037.143-.187.367-.348.523l-.14.133-.025.444c-.804.084-1.61.19-2.417.374-3.94.895-7.317 2.926-9.96 5.613-.096-.068-.217-.152-.25-.177l-.161-.12-.2.027c-.325.044-.381.093-.59-.027-.62-.42-1.222-1.025-1.97-1.785l-.004-.006c-.001 0-.003 0-.004-.002-.32-.34-.588-.711-1.044-1.104-.116-.1-.26-.208-.357-.285h-.002a2.321 2.321 0 0 0-1.362-.512 1.988 1.988 0 0 0-1.632.729c-.716.898-.47 2.228.457 2.967h.002l.025.02c.096.079.217.179.33.263.486.359.91.535 1.31.77h.002c.003 0 .005.004.008.005.907.56 1.63 1.017 2.18 1.53.058.067.14.38.18.62l.027.172.336.299a20.363 20.363 0 0 0-3.033 13.407l-.427.124-.1.128c-.181.235-.441.493-.446.502-.716.22-1.563.317-2.622.428-.466.039-.93.013-1.528.126-.148.028-.312.07-.432.099a1.144 1.144 0 0 0-.015.004c-.008.002-.04.01-.014.004l-.004.002-.006.002c-1.14.275-1.922 1.355-1.668 2.465.253 1.11 1.426 1.749 2.573 1.502h.002l.002-.002c-.026.006-.007.003.016-.002.07-.015.053-.013.035-.01.119-.026.28-.057.42-.095.586-.157.992-.376 1.43-.544 1.004-.36 1.81-.644 2.553-.754.093-.004.374.122.595.246l.153.085.46-.078a20.488 20.488 0 0 0 8.569 10.7l-.207.493.074.186c.089.23.124.516.122.54-.275.7-.76 1.49-1.334 2.388-.26.386-.565.733-.847 1.266-.076.144-.153.32-.205.428l-.002.004-.002.002c-.497 1.063-.136 2.35.89 2.845 1.032.497 2.27-.035 2.787-1.1l.013-.022.006-.016c.052-.105.125-.242.184-.378.238-.545.314-.99.45-1.426l.004-.012c.424-1.07.676-2.102 1.108-2.618.023-.027.154-.092.41-.16l.204-.055.274-.496c3.552 1.277 7.476 1.648 11.414.754a20.27 20.27 0 0 0 2.29-.69l.142.252.095.164.18.058c.312.102.383.082.52.28.377.65.66 1.46 1.005 2.474.14.445.222.898.464 1.45.061.14.143.3.197.41.515 1.069 1.755 1.6 2.79 1.104 1.025-.494 1.386-1.782.89-2.845v-.002l-.003-.004c-.055-.113-.133-.288-.208-.43-.282-.533-.588-.875-.847-1.26l-.004-.006c0-.001 0-.003-.002-.004-.573-.897-1.029-1.625-1.302-2.324-.07-.23-.01-.27.107-.58l.104-.276-.196-.223c.08.09.042.058.028.025a3.065 3.065 0 0 1-.059-.142 20.482 20.482 0 0 0 8.578-10.785l.258.045.2.04.17-.112c.275-.181.304-.25.543-.232.742.11 1.547.393 2.552.754.437.167.842.39 1.43.548.152.04.31.067.42.09-.007 0-.026-.003.026.009h.002l.004.002c.062.013.072.014.02.002l.001.002h.003c1.146.247 2.322-.392 2.575-1.502.253-1.11-.53-2.19-1.67-2.465l-.002-.002h-.004c-.114-.026-.3-.078-.465-.11-.6-.112-1.062-.086-1.528-.125-1.06-.111-1.913-.206-2.63-.428-.08-.037-.289-.282-.432-.485l-.099-.141-.414-.12c.263-2.258.186-4.592-.35-6.93-.544-2.362-1.505-4.515-2.745-6.45l.26-.231.14-.13.016-.19c.03-.328-.005-.394.155-.57.55-.512 1.274-.968 2.18-1.53l.01-.005c.4-.233.825-.41 1.312-.77.126-.092.261-.207.355-.282.927-.74 1.171-2.07.455-2.967-.715-.897-2.063-.957-2.99-.217-.098.077-.242.184-.358.285-.46.395-.73.77-1.053 1.112-.748.76-1.353 1.368-1.973 1.789-.08.04-.397.052-.647.037l-.174-.01-.41.29a20.627 20.627 0 0 0-12.333-5.957l-.016-.292-.007-.2-.146-.138c-.238-.227-.31-.241-.347-.476-.057-.75.043-1.604.171-2.67.067-.46.19-.901.211-1.503.006-.162-.003-.338-.004-.455v-.002c0-1.185-.887-2.206-2.035-2.206zm-9.476 52.68-.015.026a.343.343 0 0 1 .01-.012zm9.476-51.688c.55 0 1.041.513 1.041 1.217v.002c.002.15.01.33.007.414-.018.483-.128.872-.205 1.41v.007l-.002.006c-.13 1.073-.25 1.99-.177 2.892l.002.015.001.018c.068.45.318.637.505.817.006.157.018.417.03.6l.03.424.423.037c4.77.423 9.205 2.607 12.46 6.02l.297.313.855-.608c.228.027.555.109.976-.136l.014-.008.013-.01c.75-.504 1.395-1.171 2.154-1.941l.003-.004.004-.004c.373-.396.61-.723.977-1.04.072-.061.215-.172.328-.261h.002c.55-.438 1.252-.374 1.597.058.344.432.251 1.134-.299 1.572l-.002.002c-.115.092-.252.21-.324.262-.386.285-.762.44-1.234.717l-.006.002-.004.004c-.92.568-1.71 1.05-2.368 1.668l-.012.012-.01.012c-.312.333-.302.644-.327.903-.107.096-.335.297-.48.43l-.317.289.24.355a19.429 19.429 0 0 1 2.811 6.502c.544 2.368.628 4.732.314 7.006l-.06.426.938.27c.12.195.261.505.72.683l.016.006.014.006c.86.27 1.783.36 2.858.473h.004l.006.002c.545.045.954.02 1.427.11.09.018.274.065.422.1.675.162 1.058.75.936 1.282-.122.534-.72.896-1.399.75-.029-.006-.028-.005-.016-.002l-.006-.002c.017.004.037.008-.015-.006l-.008-.002-.007-.002c-.145-.031-.303-.06-.374-.08-.466-.123-.824-.321-1.334-.516l-.006-.002h-.004c-1.017-.365-1.886-.685-2.779-.814l-.015-.002-.018-.002c-.45-.036-.687.166-.905.308a22.24 22.241 0 0 0-.575-.1l-.42-.067-.13.407a19.537 19.537 0 0 1-8.654 10.886l-.37.22.165.396c.027.066.077.208.127.34.026.065.05.13.078.19l.014.025c-.089.243-.23.508-.097.934l.006.015.005.016c.325.84.83 1.62 1.411 2.53l.002.007.004.004c.304.453.574.756.8 1.182.045.088.124.26.187.39.294.63.073 1.294-.42 1.532-.499.24-1.16-.007-1.466-.641-.063-.13-.144-.29-.182-.376-.194-.443-.266-.844-.43-1.363v-.006l-.002-.003c-.35-1.024-.644-1.902-1.1-2.68l-.007-.014-.01-.014c-.254-.376-.557-.437-.804-.52l-.289-.515-.21-.372-.397.15a19.48 19.48 0 0 1-2.575.778 19.385 19.385 0 0 1-11.275-.812l-.403-.153-.496.9c-.224.066-.462.104-.67.352-.687.82-.886 1.93-1.272 2.902l-.008.015-.005.018c-.166.52-.232.92-.425 1.362-.033.076-.112.226-.176.357l-.008.015-.004.01-.002.002c-.306.63-.964.874-1.461.635-.493-.237-.713-.9-.42-1.53v-.001c.064-.134.143-.306.187-.391.226-.427.496-.734.799-1.186l.004-.004.002-.006c.584-.914 1.113-1.748 1.438-2.591l.008-.02.005-.02c.113-.387-.02-.655-.116-.916l.409-.97-.372-.221c-3.997-2.37-7.154-6.14-8.66-10.81l-.131-.408-.996.169c-.198-.125-.457-.338-.938-.3h-.016l-.015.003c-.893.13-1.764.45-2.781.814h-.006l-.004.002c-.508.195-.866.389-1.334.514-.081.022-.24.054-.376.083l-.004.002-.005.002c-.084.02-.092.022-.018.006h-.002a.185.185 0 0 0-.021.004c-.68.146-1.275-.218-1.397-.752-.122-.533.258-1.118.934-1.28.002-.002.03-.008.007-.003l.008-.002.006-.002a.264.264 0 0 1 .012-.002c.138-.032.3-.074.39-.09.472-.09.88-.066 1.426-.111l.004-.002h.005c1.076-.113 1.996-.202 2.857-.473l.02-.008.02-.008c.422-.173.569-.466.716-.682l.955-.277-.062-.426A19.417 19.417 0 0 1 47.828 43l.237-.358-.74-.66c-.025-.23-.02-.57-.353-.925l-.01-.012-.012-.01c-.657-.617-1.447-1.1-2.368-1.668l-.004-.004-.006-.002c-.47-.277-.845-.431-1.232-.717-.07-.052-.194-.156-.3-.242l-.007-.004-.003-.004-.018-.014c-.55-.438-.642-1.14-.298-1.572a.977.977 0 0 1 .82-.356c.26.009.54.106.78.298h.002c.113.089.255.2.326.262.367.315.603.643.977 1.039l.004.004.004.003c.758.77 1.4 1.435 2.149 1.938l.014.01.015.008c.392.228.693.149.952.116.129.094.334.242.488.347l.35.238.29-.308a19.299 19.299 0 0 1 9.808-5.6 19.504 19.504 0 0 1 2.71-.417l.43-.037.058-.992c.197-.22.418-.44.496-.812l.006-.031.004-.031c.072-.9-.043-1.816-.173-2.89l-.002-.006v-.006c-.077-.54-.19-.93-.207-1.413-.003-.074.002-.227.004-.37v-.02c-.003-.085-.004-.093-.004-.028 0-.703.49-1.215 1.042-1.215zm1.4 10.878.036.593.473 8.349.124.062c.063.25.1.509.269.72.53.664 1.41.76 2.157.44l.18.074 7.284-5.164-.424-.415a16.486 16.486 0 0 0-9.508-4.588zm-2.798.002-.587.07c-.56.068-1.126.164-1.692.292a16.362 16.362 0 0 0-7.876 4.29l-.422.416 7.384 5.234.122-.081c.226.097.439.227.697.227.844 0 1.46-.623 1.68-1.4l.187-.087zm-1.058 1.157-.407 7.159-.037.017-.011.3a.853.853 0 0 1-.86.822.852.852 0 0 1-.51-.162l-.278-.206-.015.012-5.793-4.105c1.9-1.726 4.214-3.053 6.91-3.665.333-.075.667-.12 1-.172zm4.92.075c2.945.486 5.65 1.8 7.835 3.776l-5.787 4.102-.027-.011-.227.165a.858.858 0 0 1-1.18-.16.839.839 0 0 1-.188-.495l-.01-.293-.013-.006zm-16.18 6.024-.312.508a16.35 16.35 0 0 0-2.32 10.347l.064.587 8.6-2.483.034-.153c.23-.116.474-.21.644-.422.526-.66.42-1.53-.05-2.186l.046-.198zm27.09.273-.142.128-6.23 5.574.032.14c-.156.206-.333.397-.394.662-.187.822.282 1.563.99 1.952l.047.2 8.64 2.488.058-.595c.17-1.733.067-3.524-.345-5.318a16.554 16.554 0 0 0-2.045-4.995l-.145-.236zm-26.79 1.328 5.305 4.746-.008.037.225.197a.85.85 0 0 1 .11 1.184.863.863 0 0 1-.447.295l-.29.08-.01.03-6.795 1.964a15.264 15.264 0 0 1 1.91-8.533zm26.791.002c.718 1.273 1.343 2.622 1.688 4.124.34 1.479.368 2.94.285 4.376l-6.838-1.967-.007-.037-.285-.078a.858.858 0 0 1-.61-1.025.83.83 0 0 1 .27-.453l.224-.194-.004-.023zM62.58 50.77l-.15.186-1.692 2.109.663 2.868 2.657 1.279 2.652-1.277.66-2.868-1.838-2.297zm.478.992h1.997l1.24 1.55-.445 1.935-1.793.862-1.798-.864-.447-1.934zm7.834 5.56-.037.043c-.042-.001-.08-.012-.124-.01a1.85 1.85 0 0 0-.71.184c-.752.363-1.032 1.18-.906 1.97l-.132.13 3.467 8.37.498-.318a16.368 16.368 0 0 0 6.62-8.312l.196-.556zm-13.684.033-8.806 1.493.203.558a16.44 16.44 0 0 0 6.596 8.256l.5.32 3.416-8.258-.102-.128c.051-.252.127-.501.067-.766a1.857 1.857 0 0 0-1.78-1.442c-.02 0-.04.006-.06.006zm13.574.99a.859.859 0 0 1 .197.016l.277.053.018-.02 7.058 1.192a15.28 15.28 0 0 1-5.457 6.857l-2.72-6.568.014-.016-.132-.31a.855.855 0 0 1 .415-1.116.858.858 0 0 1 .33-.087zm-13.493.034a.858.858 0 0 1 .827.67.84.84 0 0 1-.05.53l-.117.273.027.032-2.7 6.53a15.352 15.352 0 0 1-5.434-6.803l6.985-1.184.015.02.28-.053a.878.878 0 0 1 .168-.015zm6.703 2.269c-.522.02-.98.305-1.32.715h-.11l-4.336 7.84.562.19c2.788.95 5.87 1.163 8.956.463a16.752 16.752 0 0 0 1.613-.452l.564-.19-4.349-7.855h-.16c-.166-.196-.313-.412-.555-.53a1.84 1.84 0 0 0-.866-.181zm.037.99a.83.83 0 0 1 .398.086.851.851 0 0 1 .388.366l.14.262h.033l3.475 6.275c-.312.09-.619.189-.939.26-2.692.613-5.352.416-7.815-.316l3.437-6.216h.011l.14-.261a.865.865 0 0 1 .73-.456zM54.634 77.99l-.013.132-.01.025zM4.55 91.85l-.573.09L0 92.57v18.84h4.55v-4.77c.091.102.202.182.287.288l.012.016.011.01c.411.445.787.92 1.126 1.42l.01.014.01.01c.364.47.7.963 1.008 1.472l.004.004.001.006c.311.49.614.922.863 1.336l.145.24h5.16l-.357-.717c-.276-.552-.628-1.122-1.016-1.768l-.002-.002a19.006 19.006 0 0 0-1.333-1.96l-.002-.001v-.002a55.264 55.264 0 0 0-1.485-1.83l-.004-.006a18.05 18.051 0 0 0-1.17-1.238 72.487 72.488 0 0 0 2.28-2.393l.01-.01c.833-.877 1.658-1.834 2.48-2.785l.709-.822H7.77l-.148.18c-.21.253-.512.597-.816.944-.302.346-.656.743-1.013 1.19-.354.399-.71.796-1.066 1.192-.065.065-.114.128-.177.192zm27.64 0-.573.09-3.977.63v18.292l.314.124a5.985 5.985 0 0 0 1.17.328c.435.087.885.178 1.35.225h.005c.475.043.908.086 1.388.13.47.042.917.088 1.382.089 1.002.022 2-.134 2.948-.462l.015-.004.016-.008a7.164 7.164 0 0 0 2.19-1.443l.007-.008.006-.008a6.08 6.08 0 0 0 1.369-2.265 8.363 8.363 0 0 0 .46-2.901 12.82 12.82 0 0 0-.313-2.75v-.004l-.002-.004a5.732 5.732 0 0 0-1.142-2.28v-.001H38.8a5.192 5.192 0 0 0-1.913-1.438 5.993 5.993 0 0 0-2.554-.52 7.669 7.669 0 0 0-1.475.138c-.23.045-.445.139-.668.208zM3.559 93.01v11.178l.868-.973c.333-.374.659-.743 1.02-1.105l.01-.008.009-.01a245.456 245.458 0 0 0 1.087-1.218l.008-.01.008-.01c.336-.421.678-.806.984-1.155.248-.283.474-.544.679-.785h2.876c-.578.664-1.156 1.339-1.727 1.94l-.006.006-.004.004a71.547 71.548 0 0 1-2.585 2.713l-.363.363.374.35c.509.477.988.985 1.435 1.52l.002.004v.002c.513.597.985 1.197 1.463 1.804a18.057 18.057 0 0 1 1.263 1.857v.002h.002c.227.378.382.665.566.984H8.576c-.23-.366-.47-.727-.712-1.106l-.007-.01a16.303 16.303 0 0 0-1.05-1.53l-.001-.001a12.97 12.97 0 0 0-1.194-1.506l-.007-.008a7.958 7.958 0 0 0-1.24-1.242l-.807-.643v6.002H.992v-17Zm27.64 0v6.426l.694-.303a5.564 5.564 0 0 1 1.155-.356 6.678 6.678 0 0 1 1.293-.122h.012a5.003 5.003 0 0 1 2.13.434l.003.002h.002a4.206 4.206 0 0 1 1.553 1.165 4.735 4.735 0 0 1 .94 1.88h.002c.187.833.282 1.682.287 2.534v.008a7.35 7.35 0 0 1-.405 2.56l-.002.004v.002a5.095 5.095 0 0 1-1.142 1.888 6.181 6.181 0 0 1-1.864 1.23 7.45 7.45 0 0 1-2.588.406l-.006-.002h-.006c-.4 0-.82-.04-1.3-.084-.473-.042-.904-.086-1.382-.13h-.005c-.4-.04-.817-.124-1.25-.21h-.007l-.006-.003c-.23-.04-.452-.118-.675-.19v-16.73Zm67.251 1.14-.574.09-3.977.63v10.924c0 .776.076 1.552.227 2.312l.002.004v.006a4.8 4.8 0 0 0 .92 1.936l.007.01.007.01a4.512 4.512 0 0 0 1.708 1.217l.01.004.007.002a7.13 7.13 0 0 0 2.6.419 8.842 8.842 0 0 0 2.05-.18h.003a7.404 7.404 0 0 0 1.526-.465l.366-.157-.702-3.74-.548.199a6.557 6.557 0 0 1-1.037.277 10.146 10.146 0 0 1-1.105.083l.01-.002c-.684 0-1.035-.181-1.172-.405a2.988 2.988 0 0 1-.328-1.504v-3.953h4.252v-3.944H98.45zm-.992 1.16v3.604h4.252v1.96h-4.252v4.92l.002-.023a3.988 3.988 0 0 0 .444 2.033l.007.014.008.01c.386.644 1.158.893 2.03.893h.01a11.13 11.13 0 0 0 1.226-.091h.013l.012-.004c.222-.04.434-.115.651-.175l.341 1.818c-.314.112-.627.229-.955.29h-.006l-.004.003a7.846 7.846 0 0 1-1.837.163l-.014-.002-.013.002a6.143 6.143 0 0 1-2.237-.36 3.518 3.518 0 0 1-1.316-.94 3.81 3.81 0 0 1-.72-1.522l-.003-.002a10.737 10.737 0 0 1-.205-2.105V95.718Zm25.576 2.265c-1.59 0-2.922.367-3.903 1.148a3.796 3.796 0 0 0-1.494 3.18 4.707 4.707 0 0 0 .288 1.723l.002.004.002.006c.192.483.48.922.845 1.292l.006.006.004.004a4.837 4.837 0 0 0 1.252.866l.006.002.002.002c.456.228.984.448 1.553.667l.01.004.01.004a7.734 7.734 0 0 1 1.503.69c.143.089.22.163.252.207.032.044.035.05.035.107v.025l.004.023c.009.095-.048.174-.124.229a3.07 3.07 0 0 1-1.126.14l-.018-.003h-.025l-.004.002a7.493 7.493 0 0 1-1.666-.162 12.765 12.765 0 0 1-1.791-.541l-.545-.21-.81 3.875.372.16a8.413 8.413 0 0 0 1.607.506c.945.238 1.919.344 2.893.314 1.787 0 3.192-.306 4.223-1.04l.002-.002a3.729 3.729 0 0 0 1.597-3.237 4.998 4.998 0 0 0-.188-1.502 2.765 2.765 0 0 0-.723-1.293 3.735 3.735 0 0 0-1.325-1.03 14.815 14.815 0 0 0-1.96-.871c-.416-.185-.72-.276-.92-.374-.21-.126-.42-.254-.525-.323l-.012-.008-.012-.006a.234.234 0 0 1-.097-.113.77.77 0 0 1-.046-.21c0-.147.004-.162.145-.241.146-.082.485-.165 1.004-.165h.014a5.57 5.57 0 0 1 1.463.16h.004c.468.128.897.256 1.33.387l.512.153.814-3.717-.4-.153a8.527 8.527 0 0 0-1.732-.458h-.004a12.842 12.842 0 0 0-2.3-.226h-.001zm-75.121.047a6.299 6.299 0 0 0-2.428.467 5.55 5.55 0 0 0-2.086 1.376 7.134 7.134 0 0 0-1.445 2.238v.002l-.002.002c-.327.824-.426 1.71-.464 2.593h-.095l.002.498.002.012c.005.919.126 1.834.365 2.72l.006.018.006.016a6.764 6.764 0 0 0 1.308 2.248l.013.014.014.015a6.885 6.885 0 0 0 2.246 1.448l.002.002a8.126 8.126 0 0 0 3.138.554h.004c.464 0 .95-.045 1.383-.09.425-.03.846-.09 1.264-.173a4.866 4.866 0 0 0 1.19-.24l.008-.003.007-.004c.337-.126.594-.205.83-.323l.327-.163-.64-3.874-.571.225a7.278 7.278 0 0 1-1.461.407h-.014a8.703 8.703 0 0 1-1.806.166L49 107.77l-.015.002a3.63 3.63 0 0 1-2.132-.572c-.28-.187-.351-.527-.494-.823h7.746v-.496c0-.135.03-.34.039-.578l.004-.073a4.45 4.45 0 0 0 .042-.698c0-2.163-.546-3.912-1.7-5.113l-.001-.002-.002-.002a6.05 6.05 0 0 0-4.574-1.794zm38.052 0a6.298 6.298 0 0 0-2.426.467 5.55 5.55 0 0 0-2.085 1.376 7.134 7.134 0 0 0-1.446 2.238v.002l-.002.002a7.895 7.895 0 0 0-.556 3.097c.003.92.126 1.838.364 2.727l.004.017.007.018a6.755 6.755 0 0 0 1.31 2.246l.014.014.014.015a6.884 6.884 0 0 0 2.246 1.448l.002.002a8.126 8.126 0 0 0 3.137.554h.004c.464 0 .95-.045 1.384-.09.425-.03.846-.09 1.264-.173a4.864 4.864 0 0 0 1.188-.24l.007-.003.008-.004c.338-.126.594-.205.83-.323l.325-.163-.633-3.874-.574.225a7.287 7.287 0 0 1-1.46.407l-.009.002h-.006a8.704 8.704 0 0 1-1.806.164l-.016-.002-.015.002a3.63 3.63 0 0 1-2.132-.571c-.279-.19-.35-.528-.494-.824h7.744v-.496c0-.15.045-.367.045-.651.03-.232.048-.464.042-.698 0-2.163-.547-3.912-1.7-5.113v-.002l-.003-.002a6.05 6.05 0 0 0-4.576-1.794zm24.082 0a6.298 6.298 0 0 0-2.426.467 5.55 5.55 0 0 0-2.086 1.376 7.134 7.134 0 0 0-1.445 2.238v.002l-.002.002a7.895 7.895 0 0 0-.555 3.09 9.078 9.078 0 0 0 .37 2.746l.003.01.004.01a6.764 6.764 0 0 0 1.308 2.249l.013.014.014.015a6.885 6.885 0 0 0 2.246 1.448l.002.002a8.126 8.126 0 0 0 3.138.554c.465 0 .952-.045 1.388-.09.425-.03.845-.09 1.263-.173a4.864 4.864 0 0 0 1.188-.24l.008-.003.008-.004c.338-.126.595-.205.832-.323l.327-.163-.64-3.874-.571.225a7.28 7.28 0 0 1-1.461.407l-.008.002h-.006a8.704 8.704 0 0 1-1.807.164l-.015-.002-.016.002a3.63 3.63 0 0 1-2.132-.571c-.278-.19-.35-.528-.494-.824h7.745v-.496c0-.15.044-.367.044-.651.031-.232.049-.464.043-.698 0-2.163-.547-3.912-1.7-5.113l-.002-.002-.002-.002a6.05 6.05 0 0 0-4.575-1.794zm-48.497.042a12.702 12.702 0 0 0-3.006.312l-.012.002a18.97 18.97 0 0 0-2.308.622l-.337.115v12.783h4.55v-9.673c.09-.015.177-.038.266-.05h.008l.006-.002a7.137 7.137 0 0 1 .757-.08 6.699 6.699 0 0 1 1.283.12l.022.005.02.002c.353.036.703.104 1.044.2l.515.146.81-3.942-.463-.114c-.137-.034-.42-.128-.73-.18h-.007l-.005-.002a32.314 32.314 0 0 1-.81-.128h-.004a6.435 6.435 0 0 0-.876-.091 4.715 4.715 0 0 0-.723-.045zm10.262 0a21.47 21.47 0 0 0-5.316.692h-.498v13.187h4.508v-9.731c.098-.01.195-.031.294-.033h.027l.027-.004a5.04 5.04 0 0 1 .75-.04h.01c.737 0 1.082.165 1.274.466.2.313.356 1.073.356 2.163v7.134h4.55v-7.57a10.161 10.161 0 0 0-.273-2.455v-.006a5.567 5.567 0 0 0-.953-2l-.006-.008-.006-.008a4.216 4.216 0 0 0-1.913-1.325 7.11 7.11 0 0 0-2.83-.461zm-58.361.258v7.48c-.004.822.09 1.64.273 2.44a4.483 4.483 0 0 0 2.828 3.408h.002a7.493 7.493 0 0 0 2.872.463 17.27 17.271 0 0 0 3.05-.22l.006-.001a17.365 17.365 0 0 0 2.405-.49l.363-.1.044-12.98h-4.552v9.73c-.116.01-.2.018-.355.04a5.04 5.04 0 0 1-.742.038l-.006-.002h-.006c-.72 0-1.058-.182-1.263-.534-.22-.378-.367-1.133-.367-2.223v-7.05zm109.579.645h.004c.712.006 1.423.077 2.122.21l.008.002.01.002c.388.059.762.18 1.136.298l-.392 1.797c-.275-.082-.542-.164-.845-.246h-.004l-.006-.002a6.57 6.57 0 0 0-1.736-.188h-.002c-.602 0-1.085.07-1.48.29a1.309 1.309 0 0 0-.654 1.115v.015l.002.016c.012.187.05.37.12.544l.002.004.002.004a1.223 1.223 0 0 0 .512.585c.15.1.352.22.56.346l.015.01.018.007c.32.16.616.24.975.4l.017.007.018.006a13.81 13.81 0 0 1 1.884.839l.013.007.016.007c.386.176.725.44.992.77l.018.022.019.02a1.766 1.766 0 0 1 .473.846l.004.012.002.012a4.018 4.018 0 0 1 .155 1.236v.02l.002.019a2.738 2.738 0 0 1-1.177 2.39l-.004.002-.002.002c-.788.563-1.983.86-3.66.86h-.01l-.007.002a9.534 9.534 0 0 1-2.64-.29l-.01-.001-.01-.002c-.358-.074-.7-.203-1.043-.33l.407-1.941c.456.154.913.313 1.383.418l.002.002h.002c.613.13 1.238.188 1.865.18a4.055 4.055 0 0 0 1.562-.195l.042-.014.04-.021c.433-.237.678-.714.639-1.205a1.194 1.194 0 0 0-.215-.661 1.83 1.83 0 0 0-.53-.465l-.003-.002-.004-.002a8.727 8.727 0 0 0-1.685-.776l-.02-.007a17.118 17.118 0 0 1-1.452-.624l-.004-.002-.004-.002a3.849 3.849 0 0 1-.993-.686 2.9 2.9 0 0 1-.624-.956 3.699 3.699 0 0 1-.23-1.37v-.035a2.805 2.805 0 0 1 1.106-2.36l.006-.004.004-.004c.754-.603 1.848-.932 3.29-.932zm-75.11.043.014.002.014-.002a5.056 5.056 0 0 1 3.83 1.5c.927.968 1.42 2.428 1.42 4.427v.013a3.456 3.456 0 0 1-.037.607l-.006.037v.036c0 .037-.006.112-.01.155h-8.157l.057.547a2.877 2.877 0 0 0 1.257 2.097l.004.002.004.004a4.624 4.624 0 0 0 2.715.727 9.671 9.671 0 0 0 1.975-.177l.004-.002c.368-.062.72-.187 1.076-.298l.323 1.969c-.125.047-.2.078-.385.147a3.87 3.87 0 0 1-.962.194l-.033.002-.03.008a9.28 9.28 0 0 1-1.196.163h-.008l-.006.002c-.43.043-.895.083-1.296.083h-.006l-.004.002a7.135 7.135 0 0 1-2.758-.488 5.901 5.901 0 0 1-1.901-1.23 5.76 5.76 0 0 1-1.1-1.881 9.702 9.702 0 0 1-.33-2.44v-.03a6.904 6.904 0 0 1 .486-2.708 6.146 6.146 0 0 1 1.244-1.93 4.557 4.557 0 0 1 1.72-1.132l.009-.004.01-.004a5.3 5.3 0 0 1 2.064-.397zm38.053 0 .014.002.013-.002a5.057 5.057 0 0 1 3.832 1.5c.927.968 1.42 2.428 1.42 4.427v.013a3.456 3.456 0 0 1-.037.607l-.006.037v.036c0 .036-.005.112-.01.155h-8.156l.056.547a2.877 2.877 0 0 0 1.258 2.097l.004.002.003.004a4.624 4.624 0 0 0 2.716.727 9.67 9.67 0 0 0 1.974-.177l.004-.002c.368-.062.72-.187 1.076-.298l.322 1.969c-.126.047-.2.078-.386.147a3.87 3.87 0 0 1-.96.194l-.032.002-.03.008a9.3 9.3 0 0 1-1.197.163h-.008l-.006.002c-.43.043-.896.083-1.296.083h-.006l-.004.002a7.135 7.135 0 0 1-2.758-.488 5.9 5.9 0 0 1-1.905-1.231 5.764 5.764 0 0 1-1.097-1.882 9.686 9.686 0 0 1-.33-2.457v-.01a6.913 6.913 0 0 1 .487-2.71 6.146 6.146 0 0 1 1.244-1.928 4.557 4.557 0 0 1 1.721-1.134l.008-.003.01-.004a5.3 5.3 0 0 1 2.062-.398zm24.082 0 .014.002.013-.002a5.057 5.057 0 0 1 3.832 1.5c.928.968 1.42 2.428 1.42 4.427v.013c.005.203-.007.406-.037.607l-.006.037v.036c0 .036-.006.112-.01.155h-8.157l.056.547a2.877 2.877 0 0 0 1.258 2.097l.004.002.004.004a4.624 4.624 0 0 0 2.715.727 9.67 9.67 0 0 0 1.975-.177l.004-.002c.368-.062.72-.187 1.076-.298l.324 1.967c-.126.047-.2.08-.388.15a3.87 3.87 0 0 1-.96.193l-.032.002-.031.008a9.28 9.28 0 0 1-1.196.163h-.008l-.006.002c-.43.043-.895.083-1.297.083h-.006l-.004.002a7.135 7.135 0 0 1-2.758-.488 5.901 5.901 0 0 1-1.9-1.23 5.76 5.76 0 0 1-1.103-1.885 8.081 8.081 0 0 1-.328-2.444v-.02a6.913 6.913 0 0 1 .486-2.71 6.146 6.146 0 0 1 1.245-1.93 4.557 4.557 0 0 1 1.72-1.132l.01-.004.01-.004a5.3 5.3 0 0 1 2.061-.398zm-48.515.045.01.002.01-.002a3.728 3.728 0 0 1 .612.038l.025.004h.027c.254.01.507.038.756.082h.004c.26.043.522.086.826.13h.002l.01.002c.058.01.122.03.184.046l-.413 2.008c-.225-.046-.447-.104-.675-.128-.48-.091-.97-.14-1.46-.138l-.01.002h-.012a8.13 8.13 0 0 0-.863.09 7.343 7.343 0 0 0-.748.14l-.38.092v9.483H56.88V99.449c.613-.194 1.23-.374 1.86-.502h.007l.006-.002a11.716 11.716 0 0 1 2.788-.29zm10.293 0h.02a6.127 6.127 0 0 1 2.45.4l.01.003.01.004a3.216 3.216 0 0 1 1.458 1.01 4.571 4.571 0 0 1 .775 1.629 9.183 9.183 0 0 1 .246 2.22v6.585h-2.566v-6.142c0-1.166-.103-2.054-.512-2.696-.414-.65-1.192-.922-2.098-.924a6.014 6.014 0 0 0-.863.046 4.775 4.775 0 0 0-.853.095l-.397.082v9.583H66.99V99.284c1.587-.388 3.208-.628 4.843-.63zm-57.39.26h2.568v6.056c0 1.166.115 2.058.502 2.723.402.688 1.19 1.026 2.118 1.027h.002a6.04 6.04 0 0 0 .888-.047h.008c.27-.04.488-.038.792-.09l.413-.07v-9.6h2.564l-.04 11.206a16.38 16.38 0 0 1-1.912.392h-.015c-.96.159-1.933.23-2.907.213l-.014-.002-.013.002a6.49 6.49 0 0 1-2.494-.403H16.9a3.49 3.49 0 0 1-2.204-2.66l-.002-.013-.002-.011a9.706 9.706 0 0 1-.25-2.231v-.002zm33.505 1.57a3.121 3.121 0 0 0-1.215.255 2.22 2.22 0 0 0-.884.665 2.76 2.76 0 0 0-.523.942 6.843 6.843 0 0 0-.235.932l-.102.58h5.796l-.027-.52a3.298 3.298 0 0 0-.194-.95 3.136 3.136 0 0 0-.46-.92l-.005-.008-.006-.01a2.57 2.57 0 0 0-2.145-.965zm38.054 0a3.121 3.121 0 0 0-1.215.255 2.22 2.22 0 0 0-.884.665 2.76 2.76 0 0 0-.523.942 6.84 6.84 0 0 0-.235.932l-.102.58h5.792l-.025-.52a3.299 3.299 0 0 0-.194-.954 3.134 3.134 0 0 0-.459-.918l-.006-.008-.006-.008a2.57 2.57 0 0 0-2.143-.965zm24.04 0a3.121 3.121 0 0 0-1.216.255 2.22 2.22 0 0 0-.883.665 2.76 2.76 0 0 0-.524.942 6.84 6.84 0 0 0-.234.932l-.103.58h5.797l-.027-.52a3.306 3.306 0 0 0-.2-.956 3.14 3.14 0 0 0-.455-.914l-.006-.008-.006-.01a2.57 2.57 0 0 0-2.144-.965zm-76.395.17a5.135 5.135 0 0 0-1.2.147 3.777 3.777 0 0 0-1 .4l-.247.143v7.137l.375.095c.267.067.47.06.688.095l.04.006h.04c.204 0 .513.04.855.043a3.184 3.184 0 0 0 2.618-1.182l.013-.018.014-.02a4.943 4.943 0 0 0 .816-2.931c-.002-1.204-.207-2.163-.717-2.86-.512-.697-1.34-1.053-2.295-1.053zm14.32.819h.027c.51-.028.998.195 1.316.593.135.19.243.397.31.619l.004.013.004.014c.019.05.016.104.03.155h-3.443c.02-.071.032-.145.055-.215v-.002a1.787 1.787 0 0 1 .339-.613l.006-.006.006-.005a1.23 1.23 0 0 1 .494-.372l.004-.002.003-.002a2.132 2.132 0 0 1 .845-.177zm38.054 0h.026a1.58 1.58 0 0 1 1.316.593c.136.19.243.398.312.62l.003.012.004.012c.02.05.016.106.031.157H84.27c.02-.071.032-.145.055-.215v-.002a1.786 1.786 0 0 1 .34-.613l.005-.005.006-.006a1.23 1.23 0 0 1 .494-.372l.004-.002.004-.002a2.132 2.132 0 0 1 .845-.177zm24.04 0h.025a1.58 1.58 0 0 1 1.316.593c.135.19.242.397.31.619l.004.013.004.014c.018.05.018.104.033.155h-3.444c.02-.071.031-.145.054-.215v-.002a1.786 1.786 0 0 1 .34-.613l.005-.006.006-.005a1.23 1.23 0 0 1 .495-.372l.004-.002.004-.002a2.132 2.132 0 0 1 .845-.177zm-76.414.175h.002c.735 0 1.17.21 1.492.65.324.44.528 1.19.528 2.28v.012l.002.01a3.954 3.954 0 0 1-.648 2.323 2.186 2.186 0 0 1-1.785.806l-.011-.002h-.012c-.247 0-.535-.037-.835-.04a3.641 3.641 0 0 0-.188-.025v-5.703c.16-.073.317-.154.488-.196h.002a4.136 4.136 0 0 1 .965-.116z"/></svg>
