<svg xmlns="http://www.w3.org/2000/svg" viewBox="0 0 128 128"><path fill-rule="evenodd" d="M64 96.44c-34.352 0-62.2-14.65-62.2-32.72S29.648 31 64 31c34.352 0 62.2 14.65 62.2 32.72S98.351 96.44 64 96.44ZM35.594 68.15h-4.345l2.667-13.723h4.894c2.714 0 4.522.5 5.427 1.503.903 1.001 1.118 2.721.646 5.158-.494 2.538-1.445 4.35-2.855 5.435s-3.554 1.627-6.434 1.627Zm14.962-15.644c-1.895-2.17-4.909-3.254-9.041-3.254H27.779l-6.373 32.79h7.143l1.695-8.718h6.118c2.7 0 4.92-.282 6.664-.85 1.743-.567 3.328-1.518 4.754-2.853 1.197-1.1 2.165-2.314 2.907-3.64.74-1.327 1.267-2.79 1.578-4.392.756-3.887.186-6.914-1.709-9.083Zm14.718-11.971-1.695 8.717h6.313c3.973 0 6.713.694 8.22 2.079 1.509 1.386 1.96 3.631 1.358 6.735l-2.966 15.258h-7.199l2.82-14.508c.32-1.65.202-2.776-.355-3.376-.557-.6-1.742-.9-3.555-.9H62.55L58.9 73.323h-7.087l6.373-32.79h7.087ZM91.344 68.15h-4.344l2.667-13.723h4.894c2.713 0 4.522.5 5.426 1.503.904 1.001 1.119 2.721.646 5.158-.494 2.538-1.445 4.35-2.854 5.435-1.41 1.085-3.555 1.627-6.435 1.627Zm14.963-15.644c-1.895-2.17-4.91-3.254-9.042-3.254H83.531l-6.373 32.79h7.143l1.694-8.718h6.118c2.7 0 4.92-.282 6.664-.85 1.744-.567 3.328-1.518 4.754-2.853 1.197-1.1 2.166-2.314 2.908-3.64.74-1.327 1.267-2.79 1.578-4.392.756-3.887.185-6.914-1.709-9.083Z" clip-rule="evenodd"/></svg>
