<svg xmlns="http://www.w3.org/2000/svg" viewBox="0 0 128 128"><path fill="#777BB3" d="M64 30.332C28.654 30.332 0 45.407 0 64s28.654 33.668 64 33.668c35.345 0 64-15.075 64-33.668S99.346 30.332 64 30.332m-5.982 9.81h7.293v.003l-1.745 8.968h6.496q6.132 0 8.458 2.139 2.328 2.14 1.398 6.93l-3.053 15.7h-7.408l2.902-14.929q.495-2.546-.365-3.473-.86-.925-3.658-.925h-5.828L58.752 73.88h-7.291zM26.73 49.114h14.133q6.379 0 9.305 3.348 2.925 3.347 1.758 9.346-.481 2.472-1.625 4.52t-2.99 3.745q-2.202 2.06-4.891 2.936-2.691.876-6.858.875h-6.294l-1.745 8.97h-7.35zm57.366 0h14.13q6.378 0 9.303 3.348h.002q2.926 3.347 1.76 9.346-.48 2.472-1.623 4.52t-2.992 3.745q-2.2 2.06-4.893 2.936-2.69.876-6.855.875h-6.295l-1.744 8.97h-7.35zm-51.051 5.325-2.742 14.12h4.468q4.446.001 6.622-1.673 2.174-1.675 2.937-5.592.728-3.762-.666-5.309t-5.584-1.547zm57.363 0-2.744 14.12h4.47q4.446.001 6.622-1.673 2.173-1.675 2.935-5.592.73-3.762-.664-5.309t-5.584-1.547z"/></svg>
