<svg xmlns="http://www.w3.org/2000/svg" viewBox="0 0 128 128"><path fill="url(#a)" d="M0 64c0 18.593 28.654 33.667 64 33.667 35.346 0 64-15.074 64-33.667 0-18.593-28.655-33.667-64-33.667C28.654 30.333 0 45.407 0 64Z"/><path fill="#777bb3" d="M64 95.167c33.965 0 61.5-13.955 61.5-31.167 0-17.214-27.535-31.167-61.5-31.167S2.5 46.786 2.5 64c0 17.212 27.535 31.167 61.5 31.167Z"/><path d="M34.772 67.864c2.793 0 4.877-.515 6.196-1.53 1.306-1.006 2.207-2.747 2.68-5.175.44-2.27.272-3.854-.5-4.71-.788-.874-2.493-1.317-5.067-1.317h-4.464l-2.473 12.732zM20.173 83.547a.694.694 0 0 1-.68-.828l6.557-33.738a.695.695 0 0 1 .68-.561h14.134c4.442 0 7.748 1.206 9.827 3.585 2.088 2.39 2.734 5.734 1.917 9.935-.333 1.711-.905 3.3-1.7 4.724a15.818 15.818 0 0 1-3.128 3.92c-1.531 1.432-3.264 2.472-5.147 3.083-1.852.604-4.232.91-7.07.91h-5.724l-1.634 8.408a.695.695 0 0 1-.682.562z"/><path fill="#fff" d="M34.19 55.826h3.891c3.107 0 4.186.682 4.553 1.089.607.674.723 2.097.331 4.112-.439 2.257-1.253 3.858-2.42 4.756-1.194.92-3.138 1.386-5.773 1.386h-2.786l2.205-11.342zm6.674-8.1H26.731a1.39 1.39 0 0 0-1.364 1.123L18.81 82.588a1.39 1.39 0 0 0 1.363 1.653h7.35a1.39 1.39 0 0 0 1.363-1.124l1.525-7.846h5.151c2.912 0 5.364-.318 7.287-.944 1.977-.642 3.796-1.731 5.406-3.237a16.522 16.522 0 0 0 3.259-4.087c.831-1.487 1.429-3.147 1.775-4.931.86-4.423.161-7.964-2.076-10.524-2.216-2.537-5.698-3.823-10.349-3.823zM30.301 68.557h4.471c2.963 0 5.17-.557 6.62-1.675 1.451-1.116 2.428-2.98 2.938-5.591.485-2.508.264-4.277-.665-5.308-.931-1.03-2.791-1.546-5.584-1.546h-5.036l-2.743 14.12m10.563-19.445c4.252 0 7.353 1.117 9.303 3.348 1.95 2.232 2.536 5.347 1.76 9.346-.322 1.648-.863 3.154-1.625 4.518-.764 1.366-1.76 2.614-2.991 3.747-1.468 1.373-3.097 2.352-4.892 2.935-1.794.584-4.08.875-6.857.875h-6.296l-1.743 8.97h-7.35l6.558-33.739h14.133"/><path d="M69.459 74.577a.694.694 0 0 1-.682-.827l2.9-14.928c.277-1.42.209-2.438-.19-2.87-.245-.263-.979-.704-3.15-.704h-5.256l-3.646 18.768a.695.695 0 0 1-.683.56h-7.29a.695.695 0 0 1-.683-.826l6.558-33.739a.695.695 0 0 1 .682-.561h7.29a.695.695 0 0 1 .683.826L64.41 48.42h5.653c4.307 0 7.227.758 8.928 2.321 1.733 1.593 2.275 4.14 1.608 7.573l-3.051 15.702a.695.695 0 0 1-.682.56h-7.407z"/><path fill="#fff" d="M65.31 38.755h-7.291a1.39 1.39 0 0 0-1.364 1.124l-6.557 33.738a1.39 1.39 0 0 0 1.363 1.654h7.291a1.39 1.39 0 0 0 1.364-1.124l3.537-18.205h4.682c2.168 0 2.624.463 2.641.484.132.14.305.795.019 2.264l-2.9 14.927a1.39 1.39 0 0 0 1.364 1.654h7.408a1.39 1.39 0 0 0 1.363-1.124l3.051-15.7c.715-3.686.103-6.45-1.82-8.217-1.836-1.686-4.91-2.505-9.398-2.505h-4.81l1.421-7.315a1.39 1.39 0 0 0-1.364-1.655zm0 1.39-1.743 8.968h6.496c4.087 0 6.907.714 8.457 2.14 1.553 1.426 2.017 3.735 1.398 6.93l-3.052 15.699h-7.407l2.901-14.928c.33-1.698.208-2.856-.365-3.474-.573-.617-1.793-.926-3.658-.926h-5.829l-3.756 19.327H51.46l6.558-33.739h7.292z"/><path d="M92.136 67.864c2.793 0 4.878-.515 6.198-1.53 1.304-1.006 2.206-2.747 2.679-5.175.44-2.27.273-3.854-.5-4.71-.788-.874-2.493-1.317-5.067-1.317h-4.463l-2.475 12.732zM77.54 83.547a.694.694 0 0 1-.682-.828l6.557-33.738a.695.695 0 0 1 .682-.561H98.23c4.442 0 7.748 1.206 9.826 3.585 2.089 2.39 2.734 5.734 1.917 9.935a15.878 15.878 0 0 1-1.699 4.724 15.838 15.838 0 0 1-3.128 3.92c-1.53 1.432-3.265 2.472-5.147 3.083-1.852.604-4.232.91-7.071.91h-5.723l-1.633 8.408a.695.695 0 0 1-.683.562z"/><path fill="#fff" d="M91.555 55.826h3.891c3.107 0 4.186.682 4.552 1.089.61.674.724 2.097.333 4.112-.44 2.257-1.254 3.858-2.421 4.756-1.195.92-3.139 1.386-5.773 1.386h-2.786l2.204-11.342zm6.674-8.1H84.096a1.39 1.39 0 0 0-1.363 1.123l-6.558 33.739a1.39 1.39 0 0 0 1.364 1.653h7.35a1.39 1.39 0 0 0 1.363-1.124l1.525-7.846h5.15c2.911 0 5.364-.318 7.286-.944 1.978-.642 3.797-1.731 5.408-3.238a16.52 16.52 0 0 0 3.258-4.086c.832-1.487 1.428-3.147 1.775-4.931.86-4.423.162-7.964-2.076-10.524-2.216-2.537-5.697-3.823-10.35-3.823zM87.666 68.557h4.47c2.964 0 5.17-.557 6.622-1.675 1.45-1.116 2.428-2.98 2.936-5.591.487-2.508.266-4.277-.665-5.308-.93-1.03-2.791-1.546-5.583-1.546h-5.035Zm10.563-19.445c4.251 0 7.354 1.117 9.303 3.348 1.95 2.232 2.537 5.347 1.759 9.346-.32 1.648-.862 3.154-1.624 4.518-.763 1.366-1.76 2.614-2.992 3.747-1.467 1.373-3.097 2.352-4.892 2.935-1.793.584-4.078.875-6.856.875h-6.295l-1.745 8.97h-7.35l6.558-33.739h14.133"/><defs><radialGradient id="a" cx="0" cy="0" r="1" gradientTransform="matrix(84.04136 0 0 84.04136 38.426 42.169)" gradientUnits="userSpaceOnUse"><stop stop-color="#AEB2D5"/><stop offset=".3" stop-color="#AEB2D5"/><stop offset=".75" stop-color="#484C89"/><stop offset="1" stop-color="#484C89"/></radialGradient></defs></svg>

