<svg xmlns="http://www.w3.org/2000/svg" viewBox="0 0 128 128"><path d="M64 30.332C28.654 30.332 0 45.407 0 64s28.654 33.668 64 33.668c35.345 0 64-15.075 64-33.668S99.346 30.332 64 30.332zm-5.982 9.81h7.293v.003l-1.745 8.968h6.496c4.087 0 6.908.714 8.458 2.139 1.553 1.427 2.017 3.737 1.398 6.93l-3.053 15.7h-7.408l2.902-14.929c.33-1.698.208-2.855-.365-3.473-.573-.617-1.793-.925-3.658-.925h-5.828L58.752 73.88h-7.291l6.557-33.738zM26.73 49.114h14.133c4.252 0 7.355 1.116 9.305 3.348 1.95 2.232 2.536 5.346 1.758 9.346-.32 1.649-.863 3.154-1.625 4.52-.763 1.364-1.76 2.613-2.99 3.745-1.468 1.373-3.098 2.353-4.891 2.936-1.794.585-4.08.875-6.858.875h-6.294l-1.745 8.97h-7.35l6.557-33.74zm57.366 0h14.13c4.252 0 7.353 1.116 9.303 3.348h.002c1.95 2.232 2.538 5.346 1.76 9.346-.32 1.649-.861 3.154-1.623 4.52-.763 1.364-1.76 2.613-2.992 3.745-1.467 1.373-3.098 2.353-4.893 2.936-1.794.585-4.077.875-6.855.875h-6.295l-1.744 8.97h-7.35l6.557-33.74zm-51.051 5.325-2.742 14.12h4.468c2.963 0 5.172-.556 6.622-1.673 1.45-1.116 2.428-2.981 2.937-5.592.485-2.507.264-4.279-.666-5.309-.93-1.032-2.79-1.547-5.584-1.547h-5.035zm57.363 0-2.744 14.12h4.47c2.965 0 5.17-.556 6.622-1.673 1.449-1.116 2.427-2.981 2.935-5.592.487-2.507.266-4.279-.664-5.309-.93-1.032-2.792-1.547-5.584-1.547h-5.035z"/></svg>
