<svg xmlns="http://www.w3.org/2000/svg" viewBox="0 0 128 128"><path fill-rule="evenodd" d="M64 97.667C28.654 97.667 0 82.593 0 64c0-18.593 28.654-33.667 64-33.667 35.346 0 64 15.074 64 33.667 0 18.593-28.655 33.667-64 33.667zM34.772 68.558h-4.47l2.743-14.12h5.036c2.793 0 4.653.515 5.584 1.547.93 1.03 1.15 2.8.665 5.307-.509 2.611-1.487 4.476-2.938 5.592-1.45 1.117-3.657 1.674-6.62 1.674zm15.395-16.097c-1.95-2.232-5.051-3.348-9.303-3.348H26.731l-6.558 33.74h7.35l1.744-8.971h6.295c2.778 0 5.063-.29 6.857-.875 1.793-.583 3.424-1.562 4.892-2.935 1.231-1.132 2.227-2.381 2.99-3.746.762-1.365 1.304-2.87 1.624-4.519.778-4 .192-7.114-1.758-9.346zM65.31 40.144l-1.744 8.97h6.496c4.087 0 6.907.713 8.457 2.138 1.553 1.427 2.017 3.737 1.398 6.93l-3.052 15.7h-7.407l2.901-14.928c.33-1.698.208-2.856-.365-3.474-.573-.617-1.793-.926-3.658-.926h-5.829l-3.756 19.327H51.46l6.558-33.739h7.292zm26.824 28.414h-4.47l2.745-14.12h5.035c2.792 0 4.653.515 5.583 1.547.93 1.03 1.152 2.8.665 5.307-.508 2.611-1.487 4.476-2.936 5.592-1.451 1.117-3.658 1.674-6.622 1.674zm15.396-16.097c-1.95-2.232-5.052-3.348-9.303-3.348H84.096l-6.557 33.74h7.35l1.743-8.971h6.295c2.778 0 5.062-.29 6.856-.875 1.795-.583 3.425-1.562 4.892-2.935 1.232-1.132 2.229-2.381 2.992-3.746.762-1.365 1.304-2.87 1.624-4.519.778-4 .19-7.114-1.759-9.346z" clip-rule="evenodd"/></svg>
