<svg xmlns="http://www.w3.org/2000/svg" viewBox="0 0 128 128"><defs><linearGradient id="a" x1="63.635" x2="39.318" y1="54.045" y2="1.596" gradientTransform="matrix(.53942 0 0 .53942 0 42.898)" gradientUnits="userSpaceOnUse"><stop offset=".24" stop-color="#00D886"/><stop offset=".51" stop-color="#007DFE"/></linearGradient><linearGradient id="b" x1="59.379" x2=".674" y1="4.381" y2="63.085" gradientTransform="matrix(.53942 0 0 .53942 0 42.898)" gradientUnits="userSpaceOnUse"><stop offset=".27" stop-color="#007DFE"/><stop offset=".7" stop-color="#D249FC"/></linearGradient></defs><path fill="#000" fill-rule="evenodd" d="M57.923 62.069h-3.878v-2.314h6.694V61c0 1.418-.334 2.697-1.014 3.835a7.26 7.26 0 0 1-2.8 2.692c-1.186.653-2.432.982-3.975.982-1.543 0-2.935-.362-4.175-1.09a7.8 7.8 0 0 1-2.935-3c-.712-1.272-1.068-2.696-1.068-4.266 0-1.57.356-2.994 1.068-4.267a7.876 7.876 0 0 1 2.935-3c1.246-.727 2.638-1.089 4.175-1.089 1.224 0 2.352.216 3.393.653a7.354 7.354 0 0 1 2.643 1.829 6.677 6.677 0 0 1 1.537 2.734h-3.08a4.563 4.563 0 0 0-1.052-1.397 4.636 4.636 0 0 0-1.532-.9 5.525 5.525 0 0 0-1.888-.313c-.992 0-1.893.248-2.697.744a5.15 5.15 0 0 0-1.888 2.055c-.453.874-.68 1.856-.68 2.95 0 1.096.227 2.078.68 2.952a5.15 5.15 0 0 0 1.888 2.055c.804.496 1.705.744 2.697.744.923 0 1.754-.172 2.498-.518.744-.35 1.338-.83 1.775-1.45a3.806 3.806 0 0 0 .68-1.867zm10.54-5.934c1.16 0 2.218.27 3.162.81a5.928 5.928 0 0 1 2.233 2.222c.545.938.815 1.996.815 3.155 0 1.16-.27 2.212-.815 3.156a5.89 5.89 0 0 1-2.233 2.222c-.95.54-2.018.81-3.177.81-1.16 0-2.217-.27-3.161-.81a5.928 5.928 0 0 1-2.234-2.222c-.545-.939-.814-1.996-.814-3.156 0-1.16.27-2.211.809-3.155a5.853 5.853 0 0 1 2.233-2.223c.955-.54 2.023-.809 3.183-.809zm1.754 9.467a3.133 3.133 0 0 0 1.192-1.327c.28-.572.42-1.214.42-1.953 0-.739-.14-1.391-.425-1.958a3.198 3.198 0 0 0-1.193-1.327 3.27 3.27 0 0 0-1.758-.48c-.658 0-1.246.162-1.759.475a3.122 3.122 0 0 0-1.186 1.327c-.28.572-.421 1.23-.421 1.963 0 .734.14 1.381.42 1.953.281.567.675 1.014 1.187 1.327.507.318 1.1.475 1.759.475.658 0 1.251-.162 1.764-.475zm9.564-13.529h.005l-.005-.005zm0 0h-2.86v16.161h10.655v-2.6H79.78zm16.652 4.71a4.46 4.46 0 0 1 1.473 1.418v-1.785h2.675V68.24h-2.675v-1.786a4.407 4.407 0 0 1-1.473 1.42c-.734.43-1.591.646-2.568.646-1.046 0-1.985-.264-2.816-.793-.83-.528-1.483-1.262-1.952-2.206-.47-.944-.702-2.006-.702-3.193 0-1.187.232-2.25.702-3.194.469-.944 1.122-1.677 1.947-2.206.825-.528 1.77-.793 2.821-.793.977 0 1.834.216 2.568.648zm-.157 8.824c.508-.318.901-.76 1.187-1.326.286-.567.426-1.22.426-1.959 0-.739-.14-1.391-.426-1.958a3.222 3.222 0 0 0-1.187-1.327c-.507-.318-1.105-.48-1.753-.48a3.19 3.19 0 0 0-1.731.48c-.507.319-.901.76-1.182 1.327-.28.567-.42 1.22-.42 1.958 0 .74.14 1.392.42 1.964.28.572.675 1.014 1.182 1.327.507.318 1.073.475 1.731.475.658 0 1.246-.162 1.753-.48zm13.335-9.472c.847 0 1.591.184 2.228.556l.005.016a3.759 3.759 0 0 1 1.489 1.602c.35.696.528 1.532.528 2.503v7.433h-2.713v-7.018c0-.571-.097-1.057-.291-1.456-.194-.4-.47-.707-.831-.917-.361-.21-.793-.318-1.295-.318-.534 0-1.014.118-1.43.361a2.466 2.466 0 0 0-.965 1.014c-.226.437-.34.928-.34 1.484v6.845h-2.724V56.416h2.644v1.731a3.989 3.989 0 0 1 1.321-1.375c.674-.426 1.467-.637 2.374-.637zm15.665 2.045v-6.096H128v16.161h-2.724v-1.769a4.467 4.467 0 0 1-1.462 1.397c-.734.432-1.591.647-2.568.647-1.046 0-1.985-.264-2.815-.793-.831-.528-1.484-1.262-1.953-2.206-.47-.944-.707-2.006-.707-3.193 0-1.187.238-2.25.707-3.194.47-.944 1.122-1.677 1.947-2.206.826-.528 1.764-.793 2.821-.793.977 0 1.834.216 2.568.648.593.345 1.079.82 1.462 1.397zm-1.624 7.427c.513-.318.906-.76 1.192-1.326.286-.567.427-1.22.427-1.959 0-.739-.14-1.391-.427-1.958a3.272 3.272 0 0 0-1.192-1.327c-.507-.318-1.106-.48-1.753-.48a3.19 3.19 0 0 0-1.731.48c-.508.319-.901.76-1.182 1.327-.28.567-.42 1.22-.42 1.958 0 .74.14 1.392.42 1.964.28.572.674 1.014 1.182 1.327.507.318 1.073.475 1.731.475.658 0 1.246-.162 1.753-.48zM47.31 82.917c.091-.167.134-.355.134-.566h.006v-4.936h1.672v5.055c0 .475-.108.9-.33 1.284-.22.383-.522.68-.905.895-.383.216-.82.324-1.3.324h-1.279v-1.538h1.052c.216 0 .405-.043.567-.134a.936.936 0 0 0 .383-.383zm8.231-1.024h-3.506v1.629h3.981v1.456h-5.61v-7.563h5.502v1.462h-3.873v1.602h3.506zm3.323-2.978H56.62v-1.5h6.144v1.5h-2.228v6.058h-1.672zm9.278 2.104c.157.043.302.097.437.167h.006c.307.167.55.394.722.69.173.297.26.632.26 1.004 0 .404-.109.766-.33 1.084a2.175 2.175 0 0 1-.928.744c-.399.179-.852.27-1.359.27h-3.425v-7.563h3.36c.48 0 .912.087 1.29.254.377.167.668.405.879.707.21.302.313.647.313 1.03 0 .334-.081.631-.238.89a1.604 1.604 0 0 1-.652.604c-.097.051-.209.083-.316.113zm-1.51-2.336h-1.484v1.861h1.484c.205 0 .388-.043.545-.119a.85.85 0 0 0 .372-.329.933.933 0 0 0 .135-.501.878.878 0 0 0-.135-.48.893.893 0 0 0-.372-.319 1.245 1.245 0 0 0-.545-.113zm.669 4.909a.955.955 0 0 0 .404-.335v.011a.871.871 0 0 0 .146-.501.937.937 0 0 0-.146-.518.966.966 0 0 0-.41-.35 1.432 1.432 0 0 0-.598-.125h-1.549v1.937h1.549c.226 0 .431-.038.604-.12zm8.933-2.52a2.31 2.31 0 0 1-.977.848h-.005c-.076.037-.162.07-.248.102l1.726 2.956h-1.91l-1.532-2.756h-1.09v2.756h-1.672v-7.563h3.313c.544 0 1.024.098 1.44.297.415.2.733.48.96.842.227.361.34.771.34 1.251 0 .48-.113.906-.345 1.268zm-1.92-.328a.94.94 0 0 0 .398-.367v.005c.092-.156.14-.34.14-.555 0-.216-.048-.4-.14-.556a.929.929 0 0 0-.399-.361 1.43 1.43 0 0 0-.61-.124H72.2v2.087h1.505c.232 0 .437-.043.61-.13zm2.971 4.234 2.703-7.563H81.8l2.762 7.563h-1.667l-.571-1.667h-2.805l-.534 1.667zm3.485-5.604-.868 2.67h2.001l-.928-2.67-.102-.486zm6.166 5.604H85.21v-7.563h1.726zm2.934-7.563 3.248 5.114h.005v-5.114h1.527v7.563h-1.646l-3.236-5.114v5.114H88.24v-7.563zm9.591 3.054c.383.07.718.215 1.014.426v-.011c.297.216.524.475.69.793.168.318.249.663.249 1.036 0 .458-.124.868-.367 1.23a2.469 2.469 0 0 1-1.014.852c-.437.205-.939.307-1.494.307a3.503 3.503 0 0 1-1.484-.302 2.497 2.497 0 0 1-1.02-.841 2.184 2.184 0 0 1-.382-1.246h1.672c0 .194.054.366.157.517a.972.972 0 0 0 .436.346c.19.08.405.124.637.124.232 0 .432-.038.604-.108a.887.887 0 0 0 .4-.308.757.757 0 0 0 .145-.453.74.74 0 0 0-.194-.523 1.033 1.033 0 0 0-.529-.291l-1.36-.28a2.458 2.458 0 0 1-.938-.405 1.998 1.998 0 0 1-.626-.734 2.211 2.211 0 0 1-.22-.987c0-.453.118-.852.345-1.203.231-.35.55-.626.96-.825.41-.2.874-.297 1.402-.297.529 0 1.004.097 1.413.286.41.189.734.453.966.793.232.334.356.728.367 1.165h-1.672a.775.775 0 0 0-.135-.437.886.886 0 0 0-.372-.297 1.269 1.269 0 0 0-.55-.107c-.206 0-.389.037-.545.102a.847.847 0 0 0-.367.28.724.724 0 0 0-.13.427c0 .183.06.329.178.453.119.124.28.205.48.253zm7.757 4.51h-1.726v-7.564h1.726zm4.25-7.564a3.87 3.87 0 0 1 1.937.491 3.535 3.535 0 0 1 1.349 1.354c.329.572.49 1.225.49 1.937a3.9 3.9 0 0 1-.49 1.936 3.498 3.498 0 0 1-1.349 1.354c-.577.33-1.219.491-1.936.491h-2.95v-7.563zm1.085 5.859c.313-.19.556-.459.723-.81v-.005c.167-.35.253-.777.253-1.268 0-.49-.086-.917-.253-1.267-.167-.35-.41-.62-.723-.81-.313-.188-.68-.28-1.106-.28h-1.251v4.72h1.251c.426 0 .793-.092 1.106-.28zm5.286-1.381v1.629h3.981v1.456h-5.61v-7.563h5.502v1.462h-3.873v1.602h3.507v1.414z" clip-rule="evenodd"/><path fill="#00d886" d="m25.92 74.284 6.406-.001a2.197 2.197 0 0 0 2.197-2.197v-6.207c0-.641-.28-1.25-.767-1.668L13.171 46.566a2.198 2.198 0 0 0-1.43-.529H5.335a2.197 2.197 0 0 0-2.197 2.197v6.208c0 .641.28 1.25.767 1.668L24.49 73.754c.398.342.905.53 1.43.53z"/><path fill="url(#a)" d="M26.691 74.282h5.635a2.197 2.197 0 0 0 2.197-2.197v-7.062c0-.104-.007-.208-.022-.31l-2.847-19.93a2.197 2.197 0 0 0-2.174-1.885h-8.455a2.197 2.197 0 0 0-2.197 2.197l.003 10c0 .236.038.47.112.695l5.664 16.99a2.197 2.197 0 0 0 2.084 1.502z"/><path fill="url(#b)" d="M2.197 77.42H20.52c.879 0 1.673-.523 2.02-1.33l8.667-20.224a2.2 2.2 0 0 0 .178-.865v-9.906a2.197 2.197 0 0 0-2.197-2.197h-9.692c-.434 0-.858.128-1.22.37L.979 54.812a2.197 2.197 0 0 0-.977 1.827L0 75.224c0 1.213.984 2.197 2.197 2.197z"/><path fill="#000" d="M28.05 49.37H6.473v21.578H28.05Z"/><path fill="#fff" d="M12.781 52.068c-.78 0-1.486.184-2.119.553a3.938 3.938 0 0 0-1.492 1.516 4.297 4.297 0 0 0-.543 2.148c0 .793.182 1.512.543 2.156.361.641.86 1.147 1.492 1.516a4.164 4.164 0 0 0 2.12.547c.749 0 1.426-.166 2.029-.5a3.725 3.725 0 0 0 1.951-3.322v-.641h-3.455v1.254h1.896c-.039.302-.15.577-.33.826a2.143 2.143 0 0 1-.867.693 2.86 2.86 0 0 1-1.213.25c-.482 0-.916-.118-1.305-.359a2.531 2.531 0 0 1-.914-.992 3.069 3.069 0 0 1-.326-1.426c0-.528.109-1.002.326-1.422.222-.423.526-.755.914-.996a2.424 2.424 0 0 1 1.305-.361c.326 0 .633.051.916.156.284.101.53.247.74.438.214.186.382.407.506.664h1.701a3.445 3.445 0 0 0-.773-1.41 3.722 3.722 0 0 0-1.354-.95 4.443 4.443 0 0 0-1.748-.338zm8.864 0c-.781 0-1.49.184-2.127.553a3.978 3.978 0 0 0-1.497 1.516 4.297 4.297 0 0 0-.542 2.148c0 .793.181 1.512.542 2.156.365.641.864 1.147 1.497 1.516a4.203 4.203 0 0 0 2.127.547c.784 0 1.493-.182 2.126-.547a3.978 3.978 0 0 0 1.497-1.516 4.337 4.337 0 0 0 .543-2.156c0-.792-.182-1.507-.543-2.148a3.922 3.922 0 0 0-1.497-1.516c-.633-.37-1.346-.553-2.126-.553zm.005 1.399c.482 0 .915.122 1.3.367.384.24.686.577.904 1.008.217.427.326.91.326 1.445 0 .536-.109 1.018-.326 1.45-.218.427-.52.762-.905 1.007a2.394 2.394 0 0 1-1.299.361c-.481 0-.916-.12-1.304-.36a2.567 2.567 0 0 1-.91-1.009 3.168 3.168 0 0 1-.327-1.449c0-.536.109-1.018.327-1.445a2.52 2.52 0 0 1 .91-1.008 2.396 2.396 0 0 1 1.304-.367zM9.168 66.633v1.617h8.629v-1.617H9.168z"/></svg>
