<svg xmlns="http://www.w3.org/2000/svg" viewBox="0 0 128 128"><path fill="#000000" d="M19.918 42.732c-.53 0-1.048.156-1.49.45l-4.7 3.139.214.185a2.691 2.691 0 0 0-1.75-.648H5.814a2.694 2.694 0 0 0-2.687 2.687v4.85l-1.93 1.288A2.69 2.69 0 0 0 0 56.918V75.43a2.693 2.693 0 0 0 2.687 2.685h18.25c1.074 0 2.047-.64 2.47-1.627l.984-2.297.177.151a2.689 2.689 0 0 0 1.75.648h6.38a2.712 2.712 0 0 0 .798-.12v-.002a2.694 2.694 0 0 0 .483-.203 2.7 2.7 0 0 0 .428-.288v-.001a2.696 2.696 0 0 0 .978-2.072v-7.035a2.72 2.72 0 0 0-.025-.378l-.002-.002-2.837-19.852a2.69 2.69 0 0 0-2.657-2.305h-8.422zm0 .996h9.946c.845 0 1.554.613 1.673 1.449l2.837 19.852-.002-.002c.01.08.017.16.017.242v7.035a1.728 1.728 0 0 1-.035.34 1.68 1.68 0 0 1-.582.965v-.002a1.705 1.705 0 0 1-.572.311v-.002a1.692 1.692 0 0 1-.501.078H26.317c-.404 0-.792-.143-1.099-.406l-1.208-1.035-1.518 3.542a1.688 1.688 0 0 1-1.554 1.024H2.687c-.94 0-1.69-.75-1.69-1.689V56.918c0-.565.282-1.092.752-1.406l2.374-1.584v-5.383c0-.94.75-1.69 1.69-1.69h6.38c.403 0 .792.143 1.099.406l.358.309 5.33-3.558c.279-.186.604-.284.938-.284zM6.946 49.677v21.492H28.44V49.677Zm46.295 2.418c-1.531 0-2.916.36-4.157 1.086a7.845 7.845 0 0 0-2.924 2.986c-.71 1.268-1.065 2.688-1.065 4.251 0 1.564.355 2.981 1.065 4.25a7.775 7.775 0 0 0 2.924 2.988c1.236.725 2.62 1.085 4.157 1.085s2.78-.328 3.961-.978a7.23 7.23 0 0 0 2.788-2.681c.677-1.134 1.01-2.408 1.01-3.821v-1.242h-6.667v2.306h3.863a3.794 3.794 0 0 1-.677 1.86c-.435.618-1.027 1.096-1.768 1.445-.742.344-1.57.516-2.488.516-.989 0-1.887-.247-2.687-.741a5.125 5.125 0 0 1-1.88-2.047c-.45-.87-.677-1.849-.677-2.94 0-1.09.226-2.069.677-2.94a5.125 5.125 0 0 1 1.88-2.046c.8-.494 1.698-.741 2.687-.741.671 0 1.3.101 1.881.31.58.21 1.085.506 1.525.898.435.392.786.854 1.049 1.39h3.068a6.649 6.649 0 0 0-1.531-2.723 7.322 7.322 0 0 0-2.632-1.82c-1.037-.436-2.162-.65-3.382-.65zm-40.011.269c.63 0 1.21.112 1.74.336.535.225.985.54 1.35.946.367.406.622.874.77 1.405h-1.695a2.062 2.062 0 0 0-.504-.662 2.17 2.17 0 0 0-.737-.436 2.611 2.611 0 0 0-.913-.155c-.48 0-.913.12-1.3.36-.386.24-.69.57-.91.992-.217.418-.325.89-.325 1.416 0 .526.108 1 .325 1.42.22.418.524.749.91.989.388.24.82.358 1.3.358.445 0 .848-.083 1.208-.25.364-.165.652-.396.864-.69.18-.248.29-.522.329-.823h-1.89v-1.249h3.443v.638a3.71 3.71 0 0 1-1.944 3.31c-.6.333-1.275.498-2.021.498-.778 0-1.48-.182-2.111-.545a3.983 3.983 0 0 1-1.487-1.51 4.32 4.32 0 0 1-.54-2.148c0-.79.18-1.502.54-2.14a3.922 3.922 0 0 1 1.487-1.51 4.108 4.108 0 0 1 2.11-.55zm8.828 0c.778 0 1.488.183 2.119.55.635.364 1.13.868 1.49 1.51.36.638.541 1.35.541 2.14a4.32 4.32 0 0 1-.54 2.148 3.962 3.962 0 0 1-1.491 1.51c-.63.363-1.337.545-2.119.545a4.187 4.187 0 0 1-2.118-.545 4.018 4.018 0 0 1-1.49-1.51 4.32 4.32 0 0 1-.541-2.148c0-.79.18-1.502.54-2.14a3.963 3.963 0 0 1 1.49-1.51 4.148 4.148 0 0 1 2.12-.55zm57.91 0v.006h.007zm0 .006h-2.847v16.097h10.612v-2.59H79.97zm45.318.01v6.071a4.39 4.39 0 0 0-1.455-1.39c-.731-.43-1.586-.647-2.559-.647-1.053 0-1.987.264-2.809.79-.822.527-1.472 1.258-1.94 2.199-.467.94-.704 1.998-.704 3.18 0 1.183.237 2.241.704 3.182.468.94 1.116 1.67 1.944 2.196.827.527 1.763.79 2.805.79.973 0 1.828-.214 2.559-.644a4.445 4.445 0 0 0 1.455-1.391v1.763H128v-16.1ZM22.064 53.756c-.48 0-.913.122-1.3.366a2.51 2.51 0 0 0-.906 1.003 3.13 3.13 0 0 0-.325 1.44c0 .534.108 1.014.325 1.444.22.426.524.76.907 1.004.386.24.82.36 1.3.36.479 0 .91-.12 1.293-.36.383-.244.684-.579.9-1.004.217-.43.326-.91.326-1.444 0-.534-.109-1.014-.325-1.44a2.47 2.47 0 0 0-.901-1.003 2.358 2.358 0 0 0-1.294-.366zm46.63 2.657c-1.155 0-2.218.269-3.169.806a5.829 5.829 0 0 0-2.223 2.214c-.538.94-.808 1.989-.808 3.144s.269 2.209.811 3.144a5.909 5.909 0 0 0 2.226 2.214c.94.537 1.993.805 3.148.805s2.22-.268 3.165-.805a5.866 5.866 0 0 0 2.224-2.214c.543-.94.811-1.989.811-3.144s-.268-2.21-.81-3.144a5.904 5.904 0 0 0-2.225-2.214c-.94-.537-1.994-.806-3.15-.806zm25.304 0c-1.048 0-1.987.264-2.81.79-.821.527-1.472 1.258-1.939 2.199-.467.94-.7 1.999-.7 3.18 0 1.183.233 2.241.7 3.182.467.94 1.116 1.67 1.944 2.196.827.527 1.763.79 2.805.79.973 0 1.828-.214 2.558-.644a4.388 4.388 0 0 0 1.467-1.412v1.778h2.666V56.695h-2.666v1.778a4.44 4.44 0 0 0-1.467-1.413c-.73-.43-1.585-.646-2.558-.646zm15.685 0c-.903 0-1.694.21-2.366.635-.543.338-.977.8-1.315 1.37v-1.724h-2.634v11.778h2.714v-6.82c0-.553.113-1.04.338-1.476.226-.435.55-.77.963-1.012.414-.241.89-.36 1.422-.36.5 0 .93.108 1.29.318.36.21.636.516.83.914.193.398.289.88.289 1.45v6.992h2.702v-7.405c0-.967-.178-1.801-.527-2.494a3.742 3.742 0 0 0-1.482-1.596l-.006-.015c-.634-.37-1.375-.555-2.218-.555zm-40.998 2.413c.655 0 1.24.161 1.75.478.511.317.91.76 1.19 1.323.284.565.424 1.214.424 1.95s-.141 1.376-.42 1.945c-.28.57-.677 1.01-1.187 1.321a3.32 3.32 0 0 1-1.757.473c-.656 0-1.246-.156-1.751-.473a3.14 3.14 0 0 1-1.183-1.32c-.28-.57-.418-1.215-.418-1.946 0-.73.139-1.386.418-1.955.28-.57.672-1.012 1.183-1.323a3.299 3.299 0 0 1 1.75-.473zm25.969 0c.644 0 1.242.161 1.747.478a3.21 3.21 0 0 1 1.18 1.323c.285.565.425 1.214.425 1.95s-.14 1.387-.424 1.951A3.242 3.242 0 0 1 96.4 65.85c-.505.317-1.092.479-1.747.479-.656 0-1.22-.156-1.726-.473a3.132 3.132 0 0 1-1.175-1.323c-.28-.57-.42-1.219-.42-1.955s.14-1.385.42-1.95c.28-.564.67-1.006 1.175-1.323a3.181 3.181 0 0 1 1.726-.478zm27.268 0c.645 0 1.242.161 1.747.478a3.26 3.26 0 0 1 1.187 1.323c.285.565.426 1.214.426 1.95s-.141 1.387-.426 1.951a3.218 3.218 0 0 1-1.187 1.321c-.505.317-1.091.479-1.747.479-.655 0-1.218-.156-1.724-.473a3.137 3.137 0 0 1-1.177-1.323c-.279-.57-.418-1.219-.418-1.955s.139-1.385.418-1.95a3.202 3.202 0 0 1 1.177-1.323 3.175 3.175 0 0 1 1.724-.478zM9.63 66.872h8.596v1.61H9.63Zm89.03 10.61c-.527 0-.989.097-1.397.296a2.355 2.355 0 0 0-.958.823 2.16 2.16 0 0 0-.344 1.199c0 .36.075.687.22.982.145.29.356.538.624.732.27.193.58.327.934.402l1.354.28c.22.054.399.15.528.29.129.14.192.312.192.522a.753.753 0 0 1-.144.451.885.885 0 0 1-.399.306 1.58 1.58 0 0 1-.6.107c-.232 0-.447-.042-.635-.123a.965.965 0 0 1-.434-.344.9.9 0 0 1-.157-.516h-1.666c.006.468.134.887.382 1.241.247.355.585.64 1.015.839.43.199.925.3 1.479.3.553 0 1.053-.102 1.488-.306.43-.204.768-.488 1.01-.848s.366-.77.366-1.226c0-.37-.081-.714-.248-1.031a2.259 2.259 0 0 0-.688-.79v.01a2.496 2.496 0 0 0-1.01-.424l-1.278-.263a.955.955 0 0 1-.479-.253.62.62 0 0 1-.177-.451c0-.161.043-.3.129-.424a.846.846 0 0 1 .365-.28c.156-.065.339-.102.543-.102.204 0 .393.032.549.107a.88.88 0 0 1 .37.296.767.767 0 0 1 .134.434h1.665a2.089 2.089 0 0 0-.364-1.16 2.302 2.302 0 0 0-.963-.79 3.338 3.338 0 0 0-1.406-.286zm-50.897.13v4.917h-.004c0 .21-.045.398-.136.564a.931.931 0 0 1-.382.382c-.161.091-.349.134-.564.134H45.63v1.531h1.273c.478 0 .914-.108 1.295-.323.382-.215.683-.51.903-.89.22-.382.327-.806.327-1.28v-5.034zm2.945 0v7.534h5.588v-1.451H52.33v-1.623h3.492v-1.409h-3.492v-1.595h3.858v-1.455zm6.19 0v1.495h2.234v6.033H60.8v-6.033h2.218v-1.494zm6.878 0v7.534h3.41c.506 0 .957-.091 1.355-.269.397-.177.704-.424.924-.74.22-.318.329-.68.329-1.083 0-.37-.087-.702-.259-.998a1.813 1.813 0 0 0-.72-.688h-.004a2.217 2.217 0 0 0-.436-.166l.018-.005c.107-.031.218-.063.315-.113.274-.14.494-.344.65-.601.156-.258.237-.554.237-.888 0-.381-.101-.726-.311-1.027-.21-.3-.501-.536-.877-.702a3.147 3.147 0 0 0-1.284-.253zm6.975 0v7.534h1.665V82.4h1.086l1.525 2.745h1.903L75.21 82.2c.086-.032.172-.063.247-.1h.006c.42-.2.742-.485.973-.845.23-.36.342-.785.342-1.263 0-.478-.113-.887-.338-1.247a2.237 2.237 0 0 0-.956-.836c-.413-.2-.893-.296-1.435-.296zm9.424 0-2.693 7.534h1.693l.533-1.662h2.794l.568 1.662h1.662l-2.751-7.533zm5.2 0v7.534h1.72v-7.533zm3.02 0v7.534h1.521v-5.093l3.224 5.093h1.64v-7.533H93.26v5.093h-.006l-3.234-5.093zm17.185 0v7.534h1.72v-7.533zm3.013 0v7.534h2.94c.715 0 1.355-.16 1.93-.488a3.486 3.486 0 0 0 1.342-1.35 3.88 3.88 0 0 0 .489-1.929c0-.709-.16-1.36-.489-1.93a3.518 3.518 0 0 0-1.342-1.348 3.858 3.858 0 0 0-1.93-.488zm7.664 0v7.534h5.587v-1.451h-3.965v-1.623h3.493v-1.409h-3.493v-1.595h3.858v-1.455zm-50.864 1.263h1.479c.204 0 .385.038.54.113.156.076.28.178.372.317a.876.876 0 0 1 .134.479.923.923 0 0 1-.134.498.85.85 0 0 1-.372.329 1.233 1.233 0 0 1-.54.119h-1.479zm7.023.102h1.498c.231 0 .435.044.607.124a.928.928 0 0 1 .4.36c.09.156.14.338.14.553 0 .215-.05.398-.14.554v-.006a.94.94 0 0 1-.4.366 1.347 1.347 0 0 1-.607.128h-1.498zm37.849.048h1.247c.424 0 .79.092 1.1.28.312.189.554.457.72.806.167.35.254.774.254 1.263 0 .489-.087.913-.253 1.262v.006c-.167.35-.409.617-.72.805-.312.189-.677.28-1.101.28h-1.247zm-29.209.055.102.482.924 2.66h-1.993l.864-2.66zm-15.663 2.873h1.543c.22 0 .418.044.595.125.172.08.312.198.409.348.096.15.146.322.146.516a.87.87 0 0 1-.146.5v-.01a.95.95 0 0 1-.403.333c-.172.08-.376.118-.601.118h-1.543z"/></svg>
