<svg xmlns="http://www.w3.org/2000/svg" viewBox="0 0 128 128"><path d="M108.7 64.4c-1.6-1.2-3.8-1.9-6-1.9-.1-3.6-.2-7.2-.2-10.7-.1-9.5-.1-19.3-2.6-28.6 6.5-2.5 6.2-7.6 5.9-9.2-.7-3.8-4-7.9-9-7.9-1.9 0-3.9.6-5.8 1.9C83.4 1.6 73 .5 62.5.5 53 1.3 46.4 2.8 41 5.4c-2.3 1.1-4.2 2.4-6 3.9-1.8-1.1-3.7-1.7-5.5-1.7-5.1 0-8.8 4.1-9.4 8.1-.6 4 1.6 7.3 6 8.9-2.2 8.9-1.5 18.1-.7 27 .3 3.7.6 7.6.7 11.4h-.5c-2.3 0-4.6.7-6.3 1.9-.7.5-2.1 2-2 3.3 0 .4.2.9.9 1.3.2 2.1 1.5 2.4 2.3 2.4 1.6 0 3.4-1.1 3.9-1.5.5-.3.9-.5 1.2-.6l.5-.2c-.1 2.2-.3 4.5-.5 7-.9 11.7-2 25 3.9 34.6 1.2 1.9 2.6 3.6 4.3 5.1l-.9.6c-2.7 1.9-6.7 4.7-4.3 8.5v.1c.4.4.6.5.9.5h.1c.3.5.9 1.6 2.4 1.6.6 0 1.3-.2 2-.6 1.1-.6 2.1-1.4 3-2.2 1.5-1.3 3-2.6 5-2.9l.6-.1.7.3c6.4 2.6 12.9 3.3 17.3 3.4h2.6c7.7 0 14.8-1.2 20.5-3.5 1.2-.5 2.4-1.1 3.5-1.7 1.2.5 2.3 1.7 3.4 3 1.4 1.6 2.8 3.2 4.5 3.2.8 0 1.6-.4 2.4-1.1 1.2-.7 1.8-1.7 1.8-2.9 0-2.6-2.9-5.7-5.2-7.2 2-2 3.6-4.2 4.9-6.7 5.9-11.8 5-26.2 4.2-39l.5.3c.5.4 2.3 1.5 3.9 1.5.8 0 2.1-.3 2.3-2.4.7-.4.8-.9.9-1.3 0-1.3-1.4-2.8-2.1-3.3zm-17.1-56c1.7-1.1 3.4-1.7 5.2-1.7 4.4 0 7.7 3.7 8.3 7.3.6 3.7-1.4 6.8-5.4 8.4 0-.2-.1-.3-.2-.5l-.6-2.1-.3-.8-.9-2.4c0-.1 0-.1-.1-.2 0 0 0-.1-.1-.1-.4-.7-.7-1.4-1.1-2l-.2-.3-1.2-1.8c-.1-.1-.2-.2-.3-.4-.4-.5-.8-1-1.3-1.5-.1-.2-.3-.3-.5-.5l-1.2-1.2c.1.1 0-.1-.1-.2zM26.3 23.9c-4-1.5-6.1-4.5-5.5-8.1.6-3.7 4-7.5 8.7-7.5 1.7 0 3.3.5 4.9 1.4l-.1.1-.3.3c-.5.5-1 1-1.4 1.5l-.3.3c-.5.6-1 1.2-1.5 1.9l-.2.3c-.5.7-.9 1.3-1.3 2 0 0 0 .1-.1.1-.4.7-.8 1.5-1.1 2.3 0 .2-.1.4-.1.5-.3.8-.7 1.6-.9 2.4 0 .1 0 .1-.1.2l-.6 2-.1.3zm-.9 45.2c-.3.1-.8.3-1.4.7-1 .7-2.4 1.4-3.5 1.4-.6 0-1.4-.2-1.6-1.7.5-.2 1-.4 1.4-.9.1-.2.1-.4-.1-.5-.2-.1-.4-.1-.5.1-.3.3-.6.5-1.1.6h-.1c-.3-.2-.5-.4-.6-.7.1-.9 1.1-2.1 1.8-2.7 1.6-1.2 3.7-1.8 5.9-1.8h.6v2.9l-.1 1c-.1 1.4-.2 1.4-.7 1.6zm15.8 52l.1.1c-1.9.5-3.4 1.7-4.8 2.9-.9.8-1.8 1.6-2.9 2.1-.6.4-1.1.5-1.6.5-1 0-1.5-.8-1.7-1.2.1-.8.5-1.5 1-2.2.3-.4.6-.9.8-1.4.1-.2 0-.4-.2-.5-.2-.1-.4 0-.5.2-.2.4-.5.8-.7 1.3-.4.7-.9 1.4-1.1 2.2h-.1c-.1 0-.2-.1-.4-.3-2-3.2 1.4-5.5 4.2-7.5l.9-.6h.2l.2.1 1.2.9.4.3c.4.3.8.6 1.3.9l.5.3 1.3.8.6.3c.4.3.8.5 1.3.8zm52.3-5.3c2.1 1.4 5 4.4 5 6.7 0 .8-.4 1.5-1.1 2-.1-.3-.2-.6-.4-.9-.3-.9-.7-1.9-1.5-2.6-.1-.1-.4-.1-.5 0-.1.1-.1.4 0 .5.7.6 1 1.5 1.3 2.4l.4 1.1c-.6.5-1.2.8-1.8.8-1.4 0-2.6-1.5-3.9-3-1-1.1-2-2.3-3.1-3l.3-.2c.3-.1.5-.3.7-.5l1.3-.9.8-.6 1.4-1.1c.2-.2.4-.4.7-.6.2.1.3 0 .4-.1zm4.7-7.5c-1.2 2.5-3.4 5.7-7.1 8.5l-.2.1c-.3.3-.7.5-1.1.8l-1.1.7-.2.1-1.6.9-.7.4c-5.4 2.8-12.8 4.8-23.2 4.8h-2.6c-8.1-.3-14.3-2-18.9-4.2h-.1c-1.1-.5-2.1-1.1-3.1-1.7-4.6-2.9-7.1-6.1-8.3-8-5.8-9.4-4.8-22.5-3.8-34.1.2-3 .5-5.7.6-8.4l.1-1.8.1-.1v-.1l-.1-.5V63c-.1-4-.4-7.7-.7-11.5-.8-9-1.5-18.4.9-27.4.2-.8.4-1.6.7-2.3v-.1l.1-.3c.1-.4.3-.8.5-1.2.1-.3.2-.5.3-.7l.3-.8.4-.8.3-.6c.1-.3.3-.6.4-.8.1-.2.2-.4.3-.5.2-.4.5-.8.7-1.1.2-.3.4-.6.6-.8.1-.2.2-.3.4-.5l.6-.8c.1-.1.2-.2.3-.4l.9-1 .1-.1 1.2-1.2.2-.2c7-6 17-7.8 27.1-8.6 5.9 0 13.5.3 20 2.7 3.2 1.2 6 2.8 8.4 4.9.3.3.6.6.9.8l.9.9 1 1.2.6.7 1 1.4.5.7.9 1.5.4.8c.3.6.5 1.3.7 2 0 .1.1.2.1.4.2.6.4 1.2.6 1.7l.1.3c3 9.9 3.1 20.2 3.1 30.4 0 3.5 0 7.4.2 10.4v.6c0 .9.1 1.8.1 2.5v.1l.1 1.9c0 .6.1 1.3.1 2v.3c.9 12.6 1.9 27.1-4 38.8zm11.2-40c-.5-.2-.9-.3-1.2-.7-.1-.2-.3-.2-.5-.1s-.2.3-.1.5c.4.5.9.7 1.4.9-.2 1.5-1 1.7-1.6 1.7-1.1 0-2.5-.7-3.5-1.4-.4-.3-.7-.4-1-.5l-.2-2.4c0-.4 0-.8-.1-1.1 0-.6-.1-1.3-.1-2 2.1.1 4.1.7 5.6 1.8.7.5 1.8 1.8 1.7 2.6.1.3-.1.6-.4.7zM77.7 7.2c-3.8 0-7.5 1.6-9.9 4.1-2.2 2.4-3.3 5.4-3.1 8.8v.1C66 27.4 72 30 76.8 30c4.2 0 8.1-1.8 10.4-4.7 2-2.5 2.7-5.8 1.8-9.3-1.5-6.4-6.8-8.8-11.3-8.8zm8.9 17.5c-2.1 2.7-5.9 4.3-9.9 4.3-2.7 0-5.2-.7-7.2-2.1-2.2-1.6-3.6-3.9-4.1-6.9-.2-3.2.8-6 2.9-8.2 2.3-2.5 5.8-3.9 9.4-3.9 4.2 0 9.2 2.1 10.6 8.1.8 3.4.2 6.4-1.7 8.7zm-27-5.5c-.4-7.3-6.2-10.6-11.8-10.6-4.1 0-7.9 1.7-10.3 4.5-2.1 2.6-2.8 5.9-2.1 9.6 1.6 6.3 7 8.5 11.5 8.5 3.8 0 7.4-1.5 9.8-4 2.1-2.2 3.1-5 2.9-8zM47 30.5c-4.2 0-9.3-2.1-10.8-8-.7-3.5 0-6.6 2-9 2.2-2.7 5.8-4.3 9.7-4.3 7.7 0 10.8 5.4 11.1 10 .2 2.9-.7 5.5-2.6 7.5-2.3 2.4-5.8 3.8-9.4 3.8zm-5.4-13.9c-1.9 0-3.5 1.7-3.5 3.8 0 2.1 1.6 3.8 3.5 3.8s3.5-1.7 3.5-3.8c0-2.1-1.6-3.8-3.5-3.8zm1.6 5.7c-.5 0-.8-.4-.8-1 0-.5.4-1 .8-1 .5 0 .8.4.8 1 0 .5-.4 1-.8 1zm27.9-6.6c-1.9 0-3.5 1.7-3.5 3.8 0 2.1 1.6 3.8 3.5 3.8s3.5-1.7 3.5-3.8c0-2.1-1.5-3.8-3.5-3.8zm1.6 5.6c-.5 0-.8-.4-.8-1 0-.5.4-1 .8-1 .5 0 .8.4.8 1s-.3 1-.8 1zm-4.2 9c.1-.3.1-.7 0-1.1-1.1-4.1-10.4-3.5-10.4 1.3 0-.4-.1-.6-.1-.8 0 .3.1.6.1.8-1.5.2-2.8 1.2-3.6 2.7-.7 1.4-.8 2.9-.1 4.2.6 1.1 1.6 1.7 2.8 1.7-.4 2.1 0 4.6 1 6 .5.7 1.2 1.1 1.8 1.1.9 0 1.9-.7 2.8-1.8.6 1 1.5 1.7 2.7 1.9h.2c.2-.1.4-.2.6-.2.7-.2 1.4-.5 1.9-1.3v-.1c.3-1.4.1-2.9 0-4.3l-.1-1.2c.5.2 1 .3 1.5.3 1 0 1.8-.4 2.5-1.2.9-1 1.2-2 1-3-.1-2.3-2.4-4-4.6-5zm-5.9 13.2c-.9 1.1-1.7 1.7-2.4 1.7-.5 0-.9-.3-1.3-.7-.9-1.2-1.3-3.7-.9-5.6l.5-.1h.2l.6-.1h.1l1.2-.4.6-.2c.1 0 .1 0 .2-.1.2-.1.3-.1.5-.1.2-.1.4-.1.7-.2h.2l-.1 1.3c-.1 1.3-.2 2.9-.1 4.5zm5.2-3.3c.1 1.3.2 2.7 0 4-.3.6-.8.7-1.5 1l-.6.2c-1-.2-1.8-.8-2.2-1.8-.2-1.5-.1-3 .1-4.6l.1-1.5h.1c1.1 0 2.1.5 3.1.9l.7.3c.1.4.2.9.2 1.5zm4.1-2.7c-.6.7-1.3 1-2 1-.6 0-1.1-.2-1.7-.4-.3-.1-.6-.2-.9-.4-1.1-.4-2.2-.9-3.4-.9h-1.3l-.4.1c-.1 0-.2 0-.3.1-.2 0-.3.1-.5.2-.1 0-.2 0-.2.1l-.8.3c-.1.1-.3.1-.4.1l-.3.1-.3.1c-.2.1-.3.1-.5.1-.1 0-.2 0-.3.1l-.5.1h-.2l-.6.1c-1 0-1.7-.4-2.2-1.3-.6-1-.6-2.3.1-3.5.7-1.2 1.9-2.1 3.1-2.3 1.2 2.5 8.1 2.2 9.9-.2 2 .9 4.2 2.5 4.5 4.2.2.7-.1 1.5-.8 2.3zM58 29.4z"/></svg>
