<svg xmlns="http://www.w3.org/2000/svg" viewBox="0 0 128 128" xml:space="preserve"><g fill="#F33"><path d="M35.53 70.579c28.597-52.577 32.745-59.293 48.454-59.293 7.413 0 14.663 2.894 19.798 8.09C96.491 9.114 84.546 2 71.055 2H21.452C20.409 2 20 3.163 20 4.205l-.25 98.581c3.162-7.912 7.798-17.528 15.78-32.207z"/><path d="M18.792 123.31a7.306 7.306 0 0 1-.152-.576 10.852 10.852 0 0 1-.12-.62c-.014-.087-.025-.178-.037-.269a11.457 11.457 0 0 1-.049-.399c-.007-.071-.01-.146-.016-.219a14.762 14.762 0 0 1-.021-1.887c.002-.043.002-.084.005-.127.011-.205.03-.421.049-.638.007-.084.013-.165.022-.251.021-.211.048-.431.076-.653l.039-.3c.031-.225.068-.457.107-.693l.055-.324a34.246 34.246 0 0 1 .391-1.898l.076-.312c.073-.302.147-.606.23-.924l.034-.125c.295-1.111.657-2.32 1.092-3.631l.098-.299c.117-.349.244-.712.372-1.076.061-.174.12-.346.184-.524a118.53 118.53 0 0 1 1.046-2.792c.091-.232.183-.468.278-.706.147-.371.297-.747.454-1.131.104-.257.214-.52.323-.783.16-.387.321-.774.49-1.173.115-.272.237-.553.357-.831.177-.411.352-.819.538-1.244.119-.272.248-.556.371-.834.365-.821.749-1.667 1.15-2.539.152-.331.298-.653.456-.99.19-.407.392-.831.589-1.249.189-.4.375-.796.572-1.206.202-.423.415-.859.625-1.293.206-.425.412-.85.626-1.286a327.98 327.98 0 0 1 1.355-2.727c.228-.453.459-.912.695-1.377.249-.491.504-.99.762-1.494.24-.468.481-.938.729-1.417.271-.524.551-1.06.831-1.597.252-.483.502-.963.763-1.457.3-.57.613-1.157.924-1.742.258-.484.509-.961.774-1.455.39-.728.797-1.479 1.203-2.23.191-.352.371-.69.565-1.047 17.873-32.86 26.239-47.807 33.835-54.395.57-.494 1.135-.941 1.7-1.345.377-.269.753-.52 1.13-.752.377-.232.755-.447 1.135-.645s.761-.379 1.146-.544c2.885-1.242 5.937-1.611 9.619-1.611.526 0 1.052.021 1.577.052.147.009.293.02.44.031.421.032.841.073 1.26.124.116.014.232.025.348.041a27.41 27.41 0 0 1 1.535.251c.129.025.256.054.385.08a30.378 30.378 0 0 1 3.134.827c.057.019.113.041.171.06.443.148.881.309 1.316.478.152.059.303.121.454.182.382.157.761.321 1.136.494.11.051.222.098.331.15.463.221.919.455 1.37.7.043.023.087.043.13.066-4.59-3.302-10.251-5.179-15.977-5.179-14.681 0-18.262 4.404-47.904 58.901-24.071 44.273-19.794 49.665-17.066 52.726-.012-.033-.021-.069-.033-.103-.032-.076-.057-.16-.083-.244z"/><path d="M86.264 14.425c-14.682 0-18.263 4.404-47.905 58.901-20.795 38.227-20.599 47.662-18.027 51.532 2.771 1.703 6.715 1.219 9.039-.109.904-.517 3.968-5.578 7.848-11.986 8.445-13.95 22.579-37.299 36.401-50.533 4.519-4.325 8.103-7.325 10.982-9.734 8.014-6.705 9.164-7.667 4.448-16.995 1.084 3.38 1.784 7.107.674 9.342-.539 1.084-1.455 1.748-2.722 1.971-2.956.529-7.634-2.289-11.115-6.681-2.107-2.661-6.661-9.667-3.417-17.236 1.712-4.002 5.273-6.611 10.3-7.543 6.109-1.134 13.343.45 18.93 3.869-4.5-3.068-9.98-4.798-15.436-4.798z"/><path d="M90.001 81.078a1.898 1.898 0 0 1 .739-2.499c12.254-7.04 20.51-20.25 20.51-35.415 0-6.851-1.701-13.29-4.692-18.961l-.834-.854c-5.482-5.642-15.076-8.692-22.816-7.258-3.324.617-7.715 2.349-9.747 7.101-3.085 7.198 1.291 13.919 3.315 16.475.105.133.215.26.323.39 5.103-7.324 8.475-12.054 8.508-12.102l.353-.494.298.562.009-.005.884 1.665c7.982 15.026 7.966 15.245-1.766 23.388-2.871 2.403-6.445 5.393-10.944 9.701-13.753 13.166-27.855 36.292-36.281 50.21C33.226 120.636 30.897 124 29.829 125h79.422c1.412 0 2.325-1.353 1.695-2.613L90.001 81.078z"/><path d="M77.302 40.646c3.168 3.58 7.163 5.852 9.569 5.43 1.025-.181 1.735-.686 2.17-1.543 1.561-3.078-.877-10.294-3.481-15.641-1.003 1.412-4.05 5.712-8.258 11.754z"/></g></svg>