<svg xmlns="http://www.w3.org/2000/svg" viewBox="0 0 128 128" xml:space="preserve"><path d="M47.883 59.542a5.675 5.675 0 0 0-1.018-.088c-.938 0-1.732.262-2.38.785-.649.523-1.112 1.283-1.388 2.28v9.334h-1.495V58.261h1.47l.025 2.161c.796-1.608 2.073-2.412 3.832-2.412.419 0 .749.055.992.163l-.038 1.369zM49.177 64.856c0-1.307.253-2.483.76-3.53.507-1.047 1.223-1.861 2.149-2.443.925-.582 1.974-.873 3.147-.873 1.809 0 3.275.634 4.397 1.904 1.122 1.268 1.683 2.95 1.683 5.044v.314c0 1.315-.253 2.498-.76 3.549-.507 1.051-1.221 1.862-2.142 2.431s-1.972.854-3.153.854c-1.801 0-3.264-.634-4.391-1.904-1.126-1.268-1.69-2.95-1.69-5.044v-.302zm1.507.415c0 1.625.421 2.959 1.262 4.001.842 1.043 1.946 1.564 3.311 1.564 1.357 0 2.456-.521 3.298-1.564.842-1.042 1.263-2.418 1.263-4.127v-.289c0-1.038-.193-1.989-.578-2.852-.385-.863-.925-1.531-1.621-2.004-.695-.473-1.491-.71-2.387-.71-1.34 0-2.433.525-3.279 1.577-.846 1.051-1.269 2.426-1.269 4.127v.277zM66.099 71.854h-1.508V52.557h1.508v19.297zM71.866 71.854h-1.508V52.557h1.508v19.297zM84.693 70.133c-.905 1.315-2.349 1.972-4.334 1.972-1.449 0-2.55-.421-3.304-1.262-.754-.842-1.139-2.088-1.156-3.738v-8.844h1.495v8.656c0 2.588 1.047 3.882 3.141 3.882 2.178 0 3.555-.9 4.133-2.701v-9.837h1.508v13.593h-1.457l-.026-1.721zM101.012 65.196c0 2.119-.469 3.8-1.407 5.044-.938 1.243-2.194 1.865-3.769 1.865-1.859 0-3.283-.653-4.271-1.96v6.935H90.07V58.261h1.395l.075 1.922c.98-1.449 2.4-2.173 4.259-2.173 1.625 0 2.9.616 3.826 1.847.925 1.231 1.388 2.94 1.388 5.126v.213zm-1.508-.264c0-1.734-.356-3.103-1.068-4.108-.712-1.005-1.704-1.508-2.977-1.508-.921 0-1.713.222-2.374.666-.662.444-1.168 1.089-1.52 1.935v6.52c.36.779.875 1.374 1.545 1.784.67.41 1.462.616 2.374.616 1.265 0 2.251-.505 2.959-1.514.708-1.009 1.061-2.473 1.061-4.391zM104.203 70.95c0-.293.094-.542.283-.748.188-.205.45-.308.785-.308s.599.103.791.308c.193.205.289.454.289.748s-.096.534-.289.723c-.193.188-.457.282-.791.282s-.597-.094-.785-.282a.98.98 0 0 1-.283-.723zM112.105 58.261v15.214c0 1.256-.302 2.215-.905 2.877s-1.491.992-2.663.992c-.452 0-.892-.079-1.319-.237l.025-1.233c.369.109.746.163 1.131.163 1.491 0 2.236-.859 2.236-2.577v-15.2h1.495zm-.741-4.937c.327 0 .582.098.766.293.184.196.276.435.276.718s-.092.52-.276.711c-.184.191-.44.287-.766.287-.318 0-.568-.096-.748-.287a.997.997 0 0 1-.27-.711c0-.283.09-.522.27-.718.181-.196.43-.293.748-.293zM124.492 68.399c0-.746-.299-1.344-.898-1.797-.599-.452-1.501-.806-2.707-1.061-1.206-.256-2.142-.549-2.808-.879-.666-.331-1.16-.735-1.482-1.213-.323-.477-.484-1.055-.484-1.734 0-1.072.448-1.958 1.344-2.657.896-.7 2.043-1.049 3.442-1.049 1.516 0 2.733.375 3.649 1.125.918.749 1.376 1.727 1.376 2.933h-1.508c0-.796-.333-1.457-.999-1.985-.665-.528-1.505-.791-2.519-.791-.988 0-1.782.22-2.381.659-.599.44-.898 1.012-.898 1.715 0 .678.249 1.204.747 1.576.499.373 1.407.714 2.727 1.024 1.319.31 2.307.641 2.965.992.657.352 1.145.775 1.463 1.269.318.494.477 1.093.477 1.797 0 1.148-.463 2.065-1.388 2.751-.926.687-2.134 1.03-3.625 1.03-1.583 0-2.867-.383-3.851-1.15-.984-.766-1.476-1.735-1.476-2.908h1.508c.058.879.429 1.564 1.112 2.054.682.49 1.585.735 2.707.735 1.047 0 1.893-.23 2.538-.691.647-.459.969-1.041.969-1.745z"/><linearGradient id="a" gradientUnits="userSpaceOnUse" x1="11.303" y1="64.919" x2="20.247" y2="62.828" gradientTransform="matrix(1 0 0 -1 0 130)"><stop offset="0" style="stop-color:#ff6533"/><stop offset=".157" style="stop-color:#ff5633"/><stop offset=".434" style="stop-color:#ff4333"/><stop offset=".714" style="stop-color:#ff3733"/><stop offset="1" style="stop-color:#f33"/></linearGradient><path fill="url(#a)" d="M27.364 58.34c0-1.951-.511-3.781-1.411-5.367-2.387-2.457-7.579-3.026-8.869-.012-1.324 3.09 2.224 6.528 3.775 6.255 1.975-.348-.348-4.879-.348-4.879 3.02 5.692 2.323 3.949-3.136 9.176S6.339 79.771 5.526 80.235a.676.676 0 0 1-.11.058H26.83a.51.51 0 0 0 .453-.738l-5.599-11.081a.507.507 0 0 1 .197-.668 10.9 10.9 0 0 0 5.483-9.466z"/><linearGradient id="b" gradientUnits="userSpaceOnUse" x1="9.903" y1="67.884" x2="25.933" y2="55.455" gradientTransform="matrix(1 0 0 -1 0 130)"><stop offset="0" style="stop-color:#bf3338"/><stop offset="1" style="stop-color:#f33"/></linearGradient><path fill="url(#b)" d="M27.364 58.34c0-1.951-.511-3.781-1.411-5.367-2.387-2.457-7.579-3.026-8.869-.012-1.324 3.09 2.224 6.528 3.775 6.255 1.975-.348-.348-4.879-.348-4.879 3.02 5.692 2.323 3.949-3.136 9.176S6.339 79.771 5.526 80.235a.676.676 0 0 1-.11.058H26.83a.51.51 0 0 0 .453-.738l-5.599-11.081a.507.507 0 0 1 .197-.668 10.9 10.9 0 0 0 5.483-9.466z"/><linearGradient id="c" gradientUnits="userSpaceOnUse" x1="10.427" y1="65.437" x2="12.75" y2="62.998" gradientTransform="matrix(1 0 0 -1 0 130)"><stop offset="0" style="stop-color:#ff6533"/><stop offset=".157" style="stop-color:#ff5633"/><stop offset=".434" style="stop-color:#ff4333"/><stop offset=".714" style="stop-color:#ff3733"/><stop offset="1" style="stop-color:#f33"/></linearGradient><path fill="url(#c)" d="M5.526 80.235c.813-.465 6.389-11.5 11.848-16.727s6.156-3.485 3.136-9.176c0 0-11.558 16.204-15.739 24.219"/><linearGradient id="d" gradientUnits="userSpaceOnUse" x1="14.651" y1="61.238" x2="13.954" y2="71.227" gradientTransform="matrix(1 0 0 -1 0 130)"><stop offset="0" style="stop-color:#ff6533"/><stop offset=".157" style="stop-color:#ff5633"/><stop offset=".434" style="stop-color:#ff4333"/><stop offset=".714" style="stop-color:#ff3733"/><stop offset="1" style="stop-color:#f33"/></linearGradient><path fill="url(#d)" d="M7.152 65.716c7.806-14.351 8.828-15.797 12.894-15.797 2.137 0 4.292.964 5.686 2.677a10.902 10.902 0 0 0-9.113-5.169H3.36a.506.506 0 0 0-.505.505V74.66c.789-2.039 2.131-4.954 4.297-8.944z"/><linearGradient id="e" gradientUnits="userSpaceOnUse" x1="11.631" y1="65.608" x2="14.931" y2="63.364" gradientTransform="matrix(1 0 0 -1 0 130)"><stop offset="0" style="stop-color:#fbb040"/><stop offset="1" style="stop-color:#fb8840"/></linearGradient><path fill="url(#e)" d="M17.374 63.509C11.915 68.736 6.339 79.771 5.526 80.235s-2.178.523-2.904-.29C1.85 79.08.647 77.68 7.152 65.716c7.806-14.351 8.828-15.797 12.894-15.797 2.137 0 4.292.964 5.686 2.677.076.122.151.25.227.378-2.387-2.457-7.579-3.026-8.869-.012-1.324 3.09 2.224 6.528 3.775 6.255 1.975-.348-.348-4.879-.348-4.879 3.013 5.686 2.316 3.944-3.143 9.171z"/><linearGradient id="f" gradientUnits="userSpaceOnUse" x1="15.012" y1="78.295" x2="11.644" y2="41.241" gradientTransform="matrix(1 0 0 -1 0 130)"><stop offset="0" style="stop-color:#fff"/><stop offset="1" style="stop-color:#fff;stop-opacity:0"/></linearGradient><path opacity=".3" fill="url(#f)" d="M7.791 66.355c7.806-14.351 8.828-15.797 12.894-15.797 1.76 0 3.531.656 4.879 1.841-1.394-1.591-3.462-2.48-5.518-2.48-4.066 0-5.088 1.446-12.894 15.797C.647 77.68 1.849 79.08 2.622 79.945c.11.122.238.227.372.314-.68-.988-.982-3.282 4.797-13.904z"/></svg>
