<svg xmlns="http://www.w3.org/2000/svg" xmlns:xlink="http://www.w3.org/1999/xlink" width="128" height="128" xmlns:v="https://vecta.io/nano"><style><![CDATA[.B{stroke:none}.C{filter:url(#A)}.D{fill:rgb(0%,0%,0%)}.E{fill-rule:nonzero}.F{fill-opacity:1}.G{fill-opacity:.4}.H{fill:rgb(0%,17.647059%,30.980392%)}.I{fill:rgb(0%,28.627451%,44.705882%)}.J{fill-opacity:.2}.K{fill:rgb(100%,100%,100%)}.L{fill:rgb(100%,77.647059%,0%)}.M{fill-opacity:.349}.N{fill-opacity:.302}.O{fill:rgb(80.392157%,49.803922%,12.156863%)}.P{fill:rgb(100%,100%,0%)}.Q{fill:rgb(85.882353%,60%,15.294118%)}]]></style><defs><filter id="A" x="0%" y="0%" width="100%" height="100%"><feColorMatrix in="SourceGraphic" values="0 0 0 0 1 0 0 0 0 1 0 0 0 0 1 0 0 0 1 0"/></filter><mask id="B"><g class="C"><path d="M0 0h128v128H0z" fill-opacity=".6" class="B D"/></g></mask><linearGradient id="C" x1="44.579" y1="37.314" x2="83.607" y2="37.314" xlink:href="#AN"><stop offset=".408" stop-color="rgb(100%,100%,100%)" stop-opacity="0"/><stop offset=".999" stop-color="rgb(100%,100%,100%)"/></linearGradient><clipPath id="D"><path d="M0 0h128v128H0z"/></clipPath><g id="E" clip-path="url(#D)"><path d="M44.574 29.512h39.039v15.602H44.574zm0 0" fill="url(#C)" class="B E"/></g><mask id="F"><g class="C"><path d="M0 0h128v128H0z" class="B D J"/></g></mask><clipPath id="G"><path d="M0 0h128v128H0z"/></clipPath><g id="H" clip-path="url(#G)"><path d="M77.961 43.813h5.652v-5.648zm0 0" class="B E F K"/></g><mask id="I"><g class="C"><path d="M0 0h128v128H0z" class="B D M"/></g></mask><clipPath id="J"><path d="M0 0h128v128H0z"/></clipPath><g id="K" clip-path="url(#J)"><path d="M67.477 43.813l14.297-14.301H61.477L47.176 43.813zm0 0" class="B E F K"/></g><mask id="L"><g class="C"><path d="M0 0h128v128H0z" class="B D G"/></g></mask><clipPath id="M"><path d="M0 0h128v128H0z"/></clipPath><g id="N" clip-path="url(#M)"><path d="M44.574 29.512h39.027v1.563H44.574zm0 0" class="B E F I"/></g><mask id="O"><g class="C"><path d="M0 0h128v128H0z" class="B D J"/></g></mask><clipPath id="P"><path d="M0 0h128v128H0z"/></clipPath><g id="Q" clip-path="url(#P)"><path d="M54.688 29.512H44.574v10.102zm0 0" class="B E F K"/></g><linearGradient id="R" x1="55.637" y1="43.812" x2="55.637" y2="30.032" xlink:href="#AN"><stop offset=".096" stop-color="rgb(0%,79.215686%,95.686275%)" stop-opacity="0"/><stop offset=".568" stop-color="rgb(0%,79.215686%,95.686275%)" stop-opacity=".282"/><stop offset=".6" stop-color="rgb(0%,79.215686%,95.686275%)" stop-opacity=".302"/><stop offset=".797" stop-color="rgb(0%,79.215686%,95.686275%)" stop-opacity=".302"/><stop offset="1" stop-color="rgb(0%,79.215686%,95.686275%)" stop-opacity=".102"/></linearGradient><linearGradient id="S" x1="72.548" y1="43.812" x2="72.548" y2="30.032" xlink:href="#AN"><stop offset=".096" stop-color="rgb(0%,79.215686%,95.686275%)" stop-opacity="0"/><stop offset=".568" stop-color="rgb(0%,79.215686%,95.686275%)" stop-opacity=".282"/><stop offset=".6" stop-color="rgb(0%,79.215686%,95.686275%)" stop-opacity=".302"/><stop offset=".797" stop-color="rgb(0%,79.215686%,95.686275%)" stop-opacity=".302"/><stop offset="1" stop-color="rgb(0%,79.215686%,95.686275%)" stop-opacity=".102"/></linearGradient><mask id="T"><g class="C"><path d="M0 0h128v128H0z" class="B D N"/></g></mask><clipPath id="U"><path d="M0 0h128v128H0z"/></clipPath><g id="V" clip-path="url(#U)"><path d="M56.574 30.039h.352v13.773h-.352zm0 0" class="B E F I"/></g><mask id="W"><g class="C"><path d="M0 0h128v128H0z" class="B D N"/></g></mask><clipPath id="X"><path d="M0 0h128v128H0z"/></clipPath><g id="Y" clip-path="url(#X)"><path d="M71.25 30.039h.352v13.773h-.352zm0 0" class="B E F I"/></g><linearGradient id="Z" x1="35.114" y1="52.737" x2="93.071" y2="52.737" xlink:href="#AN"><stop offset=".096" stop-color="rgb(0%,79.215686%,95.686275%)" stop-opacity="0"/><stop offset=".568" stop-color="rgb(0%,79.215686%,95.686275%)" stop-opacity=".282"/><stop offset=".6" stop-color="rgb(0%,79.215686%,95.686275%)" stop-opacity=".302"/><stop offset=".797" stop-color="rgb(0%,79.215686%,95.686275%)" stop-opacity=".302"/><stop offset="1" stop-color="rgb(0%,79.215686%,95.686275%)" stop-opacity=".102"/></linearGradient><linearGradient id="a" x1="64.078" y1="80.597" x2="64.078" y2="107.541" xlink:href="#AN"><stop offset="0" stop-color="rgb(0%,37.254902%,55.686275%)"/><stop offset=".724" stop-color="rgb(0%,28.627451%,44.705882%)"/></linearGradient><linearGradient id="b" x1="37.714" y1="19.119" x2="90.502" y2="19.119" xlink:href="#AN"><stop offset=".204" stop-color="rgb(100%,84.705882%,7.45098%)" stop-opacity="0"/><stop offset=".782" stop-color="rgb(100%,84.705882%,7.45098%)"/></linearGradient><mask id="c"><g class="C"><path d="M0 0h128v128H0z" class="B D G"/></g></mask><clipPath id="d"><path d="M0 0h128v128H0z"/></clipPath><g id="e" clip-path="url(#d)"><path d="M37.711 20.625H90.5l-.199-.773H37.887zm0 0" fill="rgb(70.588235%,49.019608%,30.980392%)" class="B E F"/></g><linearGradient id="f" x1="42.679" y1="47.019" x2="85.507" y2="47.019" xlink:href="#AN"><stop offset=".204" stop-color="rgb(100%,84.705882%,7.45098%)" stop-opacity="0"/><stop offset=".782" stop-color="rgb(100%,84.705882%,7.45098%)"/></linearGradient><mask id="g"><g class="C"><path d="M0 0h128v128H0z" class="B D M"/></g></mask><clipPath id="h"><path d="M0 0h128v128H0z"/></clipPath><g id="i" clip-path="url(#h)"><path d="M93.074 56.676l-.324-1.824H35.438l-.324 1.824zm0 0" class="B E F H"/></g><mask id="j"><g class="C"><path d="M0 0h128v128H0z" class="B D J"/></g></mask><clipPath id="k"><path d="M0 0h128v128H0z"/></clipPath><g id="l" clip-path="url(#k)"><path d="M47.688 107.539h32.488v.523H47.688zm0 0" class="B E F I"/></g><mask id="m"><g class="C"><path d="M0 0h128v128H0z" class="B D G"/></g></mask><clipPath id="n"><path d="M0 0h128v128H0z"/></clipPath><g id="o" clip-path="url(#n)"><path d="M54.887 80.602h-9.473v26.063a.87.87 0 0 0 .875.875h8.586V80.602zm0 0" class="B E F H"/></g><linearGradient id="p" x1="78" y1="80.597" x2="78" y2="107.541" xlink:href="#AN"><stop offset="0" stop-color="rgb(0%,55.294118%,76.862745%)"/><stop offset=".541" stop-color="rgb(0%,44.705882%,65.490196%)"/></linearGradient><mask id="q"><g class="C"><path d="M0 0h128v128H0z" class="B D G"/></g></mask><linearGradient id="r" x1="50.251" y1="85.46" x2="74.121" y2="44.116" xlink:href="#AN"><stop offset=".204" stop-color="rgb(100%,84.705882%,7.45098%)" stop-opacity="0"/><stop offset=".782" stop-color="rgb(100%,84.705882%,7.45098%)"/></linearGradient><clipPath id="s"><path d="M0 0h128v128H0z"/></clipPath><g id="t" clip-path="url(#s)"><path d="M97.836 63.125l-1.461-5.898c-.074-.328-.375-.551-.699-.551H32.477a.71.71 0 0 0-.703.551l-1.449 5.898c-.023.102-.012.199.051.289l11.086 16.887a.68.68 0 0 0 .563.301h44.141a.68.68 0 0 0 .563-.301l11.086-16.887c.023-.09.051-.187.023-.289zm0 0" fill="url(#r)" class="B E"/></g><mask id="u"><g class="C"><path d="M0 0h128v128H0z" fill-opacity=".42" class="B D"/></g></mask><clipPath id="v"><path d="M0 0h128v128H0z"/></clipPath><g id="w" clip-path="url(#v)"><path d="M45.426 80.602h37.313v2.16H45.426zm0 0" class="B E F H"/></g><mask id="x"><g class="C"><path d="M0 0h128v128H0z" class="B D G"/></g></mask><clipPath id="y"><path d="M0 0h128v128H0z"/></clipPath><g id="z" clip-path="url(#y)"><path d="M43.512 63.074l1.527-6.176a.36.36 0 0 1 .348-.273H32.648a.71.71 0 0 0-.699.551L30.5 63.074zm0 0" class="B E F O"/></g><mask id="AA"><g class="C"><path d="M0 0h128v128H0z" class="B D G"/></g></mask><clipPath id="AB"><path d="M0 0h128v128H0z"/></clipPath><g id="AC" clip-path="url(#AB)"><path d="M73.711 80.262l11.164-16.949h12.988c-.012.051-.027.086-.051.137L86.727 80.336a.68.68 0 0 1-.562.301H73.086a.76.76 0 0 0 .625-.375zm0 0" fill="rgb(100%,90.588235%,0%)" class="B E F"/></g><mask id="AD"><g class="C"><path d="M0 0h128v128H0z" class="B D G"/></g></mask><clipPath id="AE"><path d="M0 0h128v128H0z"/></clipPath><g id="AF" clip-path="url(#AE)"><path d="M84.824 63.125l-1.523-6.176c-.039-.16-.187-.273-.352-.273h12.738c.336 0 .625.223.699.551l1.449 5.898zm0 0" class="B E F P"/></g><mask id="AG"><g class="C"><path d="M0 0h128v128H0z" class="B D G"/></g></mask><clipPath id="AH"><path d="M0 0h128v128H0z"/></clipPath><g id="AI" clip-path="url(#AH)"><path d="M30.289 63.273h67.586l-.164-.637H30.438zm0 0" class="B E F P"/></g><linearGradient id="AJ" x1="33.905" y1="25.067" x2="94.312" y2="25.067" xlink:href="#AN"><stop offset=".096" stop-color="rgb(0%,79.215686%,95.686275%)" stop-opacity="0"/><stop offset=".568" stop-color="rgb(0%,79.215686%,95.686275%)" stop-opacity=".282"/><stop offset=".6" stop-color="rgb(0%,79.215686%,95.686275%)" stop-opacity=".302"/><stop offset=".797" stop-color="rgb(0%,79.215686%,95.686275%)" stop-opacity=".302"/><stop offset="1" stop-color="rgb(0%,79.215686%,95.686275%)" stop-opacity=".102"/></linearGradient><path id="AK" d="M85.512 48.801l-.586-3.277c-.027-.172-.176-.297-.352-.297H43.613c-.176 0-.324.125-.352.297l-.586 3.277zm0 0"/><path id="AL" d="M93.074 56.676l-1.363-7.574c-.023-.176-.172-.301-.348-.301H36.824c-.176 0-.324.125-.348.301l-1.363 7.574zm0 0"/><path id="AM" d="M37.711 20.625H90.5l-.727-2.699a.41.41 0 0 0-.398-.301H38.727a.43.43 0 0 0-.402.313zm0 0"/><linearGradient id="AN" gradientUnits="userSpaceOnUse"/></defs><path d="M47.688 107.539v2.348c0 .199.164.363.363.363h31.773c.199 0 .363-.164.363-.363v-2.348zm35.921-62.426H44.586V29.504h39.023zm0 0" fill="rgb(0%,79.215686%,95.686275%)"/><use xlink:href="#E" mask="url(#B)"/><use xlink:href="#H" mask="url(#F)"/><use xlink:href="#K" mask="url(#I)"/><use xlink:href="#N" mask="url(#L)"/><use xlink:href="#Q" mask="url(#O)"/><path d="M83.609 45.23H44.586v-1.422h39.023zM71.613 30.039h1.523v13.773h-1.523zm-16.562 0h1.523v13.773h-1.523zm0 0" class="H"/><path d="M55.051 30.039h1.176v13.773h-1.176zm0 0" fill="url(#R)"/><path d="M71.961 30.039h1.176v13.773h-1.176zm0 0" fill="url(#S)"/><use xlink:href="#V" mask="url(#T)"/><use xlink:href="#Y" mask="url(#W)"/><use xlink:href="#AK" class="L"/><use xlink:href="#AL" class="H"/><use xlink:href="#AL" fill="url(#Z)"/><path d="M45.426 80.602v26.063a.87.87 0 0 0 .875.875h35.551c.484 0 .875-.391.875-.875V80.602zm0 0" fill="url(#a)"/><path d="M36.824 48.801c-.176 0-.324.125-.348.301l-.016.074h55.266l-.016-.074c-.023-.176-.172-.301-.348-.301zm0 0" class="H"/><use xlink:href="#AM" class="L"/><use xlink:href="#AM" fill="url(#b)"/><use xlink:href="#e" mask="url(#c)"/><path d="M35.563 30.039h57.086c.141 0 .25-.102.277-.227l1.398-9.187H33.898l1.391 9.188a.28.28 0 0 0 .273.227zm0 0" class="H"/><path d="M33.988 21.188h60.238l.086-.562H33.898zm0 0" fill="rgb(0%,35.294118%,50.980392%)"/><use xlink:href="#AK" fill="url(#f)"/><path d="M85.512 48.801l-.199-1.09H42.875l-.199 1.09zm0 0" class="Q"/><use xlink:href="#i" mask="url(#g)"/><use xlink:href="#l" mask="url(#j)"/><use xlink:href="#o" mask="url(#m)"/><path d="M82.738 106.664V80.602h-9.477v26.949h8.602a.9.9 0 0 0 .875-.887zm0 0" fill="url(#p)"/><path d="M97.836 63.125l-1.461-5.898c-.074-.328-.375-.551-.699-.551H32.477a.71.71 0 0 0-.703.551l-1.449 5.898c-.023.102-.012.199.051.289l11.086 16.887a.68.68 0 0 0 .563.301h44.141a.68.68 0 0 0 .563-.301l11.086-16.887c.023-.09.051-.187.023-.289zm0 0" class="L"/><use xlink:href="#t" mask="url(#q)"/><path d="M30.313 63.273a.51.51 0 0 0 .051.141l11.086 16.887a.68.68 0 0 0 .563.301h44.137c.227 0 .438-.113.563-.301l11.09-16.887c.023-.039.051-.09.051-.141zm0 0" class="Q"/><use xlink:href="#w" mask="url(#u)"/><path d="M54.461 80.262l-11.16-16.949H30.313c.012.051.023.086.051.137l11.086 16.887a.68.68 0 0 0 .563.301h13.09c-.266-.012-.5-.148-.641-.375zm0 0" class="O"/><use xlink:href="#z" mask="url(#x)"/><use xlink:href="#AC" mask="url(#AA)"/><use xlink:href="#AF" mask="url(#AD)"/><use xlink:href="#AI" mask="url(#AG)"/><path d="M92.961 29.512l1.352-8.887H33.898l1.352 8.887zm0 0" fill="url(#AJ)"/><path d="M43.613 45.238c-.176 0-.324.125-.352.301l-.023.125h41.699l-.023-.125c-.027-.176-.176-.301-.352-.301zm0 0" fill="rgb(100%,94.901961%,1.176471%)"/></svg>