<svg xmlns="http://www.w3.org/2000/svg" xmlns:xlink="http://www.w3.org/1999/xlink" width="128" height="128" version="1.1" viewBox="0 0 128 128"><defs><clipPath id="f"><path d="M0 0h128v50H0z"/></clipPath><clipPath id="g"><path d="M0 0h128v50H0z"/></clipPath><clipPath id="B"><path d="M0 0h128v50H0z"/></clipPath><clipPath id="A"><path d="M0 0h128v50H0z"/></clipPath><clipPath id="z"><path d="M0 0h128v50H0z"/></clipPath><clipPath id="y"><path d="M0 0h128v50H0z"/></clipPath><clipPath id="x"><path d="M0 0h128v50H0z"/></clipPath><clipPath id="v"><path d="M0 0h128v50H0z"/></clipPath><clipPath id="t"><path d="M0 0h128v50H0z"/></clipPath><clipPath id="s"><path d="M0 0h128v50H0z"/></clipPath><clipPath id="p"><path d="M0 0h128v50H0z"/></clipPath><clipPath id="l"><path d="M0 0h128v50H0z"/></clipPath><clipPath id="k"><path d="M0 0h128v50H0z"/></clipPath><clipPath id="h"><path d="M0 0h128v50H0z"/></clipPath><clipPath id="r"><path d="M0 0h128v50H0z"/></clipPath><clipPath id="e"><path d="M0 0h128v50H0z"/></clipPath><clipPath id="c"><path d="M0 0h128v50H0z"/></clipPath><linearGradient id="C" x1="44.303" x2="116.064" y1="48.852" y2="48.852" gradientTransform="scale(.26667 .26316)" gradientUnits="userSpaceOnUse"><stop offset=".096" stop-color="#00caf4" stop-opacity="0"/><stop offset=".568" stop-color="#00caf4" stop-opacity=".282"/><stop offset=".6" stop-color="#00caf4" stop-opacity=".302"/><stop offset=".797" stop-color="#00caf4" stop-opacity=".302"/><stop offset="1" stop-color="#00caf4" stop-opacity=".102"/></linearGradient><linearGradient id="m" x1="45.74" x2="114.59" y1="81.723" y2="81.723" gradientTransform="scale(.26667 .26316)" gradientUnits="userSpaceOnUse"><stop offset=".096" stop-color="#00caf4" stop-opacity="0"/><stop offset=".568" stop-color="#00caf4" stop-opacity=".282"/><stop offset=".6" stop-color="#00caf4" stop-opacity=".302"/><stop offset=".797" stop-color="#00caf4" stop-opacity=".302"/><stop offset="1" stop-color="#00caf4" stop-opacity=".102"/></linearGradient><linearGradient id="b" x1="63.721" x2="92.078" y1="120.596" y2="71.481" gradientTransform="scale(.26667 .26316)" gradientUnits="userSpaceOnUse"><stop offset=".204" stop-color="#ffd813" stop-opacity="0"/><stop offset=".781" stop-color="#ffd813" stop-opacity="1"/></linearGradient><linearGradient id="a" x1="56.983" x2="103.347" y1="63.4" y2="63.4" gradientTransform="scale(.26667 .26316)" gradientUnits="userSpaceOnUse"><stop offset=".408" stop-color="#fff" stop-opacity="0"/><stop offset=".999" stop-color="#fff" stop-opacity="1"/></linearGradient><linearGradient id="d" x1="56.983" x2="103.347" y1="63.4" y2="63.4" gradientTransform="scale(.26667 .26316)" gradientUnits="userSpaceOnUse" xlink:href="#a"/><linearGradient id="u" x1="96.686" x2="96.686" y1="114.82" y2="146.828" gradientTransform="scale(.26667 .26316)" gradientUnits="userSpaceOnUse"><stop offset="0" stop-color="#008dc4" stop-opacity="1"/><stop offset=".541" stop-color="#0072a7" stop-opacity="1"/></linearGradient><linearGradient id="n" x1="80.148" x2="80.148" y1="114.819" y2="146.828" gradientTransform="scale(.26667 .26316)" gradientUnits="userSpaceOnUse"><stop offset="0" stop-color="#005f8e" stop-opacity="1"/><stop offset=".724" stop-color="#004972" stop-opacity="1"/><stop offset=".74" stop-color="#004972" stop-opacity="1"/></linearGradient><linearGradient id="w" x1="63.721" x2="92.078" y1="120.596" y2="71.481" gradientTransform="scale(.26667 .26316)" gradientUnits="userSpaceOnUse" xlink:href="#b"/><linearGradient id="o" x1="48.828" x2="111.539" y1="41.785" y2="41.785" gradientTransform="scale(.26667 .26316)" gradientUnits="userSpaceOnUse"><stop offset=".204" stop-color="#ffd813" stop-opacity="0"/><stop offset=".781" stop-color="#ffd813" stop-opacity="1"/></linearGradient><linearGradient id="q" x1="54.726" x2="105.604" y1="74.93" y2="74.93" gradientTransform="scale(.26667 .26316)" gradientUnits="userSpaceOnUse"><stop offset=".204" stop-color="#ffd813" stop-opacity="0"/><stop offset=".781" stop-color="#ffd813" stop-opacity="1"/></linearGradient><linearGradient id="i" x1="70.12" x2="70.12" y1="71.12" y2="54.75" gradientTransform="scale(.26667 .26316)" gradientUnits="userSpaceOnUse"><stop offset=".096" stop-color="#00caf4" stop-opacity="0"/><stop offset=".568" stop-color="#00caf4" stop-opacity=".282"/><stop offset=".6" stop-color="#00caf4" stop-opacity=".302"/><stop offset=".797" stop-color="#00caf4" stop-opacity=".302"/><stop offset="1" stop-color="#00caf4" stop-opacity=".102"/></linearGradient><linearGradient id="j" x1="-14909.275" x2="-14909.275" y1="71.12" y2="54.75" gradientTransform="matrix(-.26667 0 0 .26316 -3951.75 0)" gradientUnits="userSpaceOnUse"><stop offset=".096" stop-color="#00caf4" stop-opacity="0"/><stop offset=".568" stop-color="#00caf4" stop-opacity=".282"/><stop offset=".6" stop-color="#00caf4" stop-opacity=".302"/><stop offset=".797" stop-color="#00caf4" stop-opacity=".302"/><stop offset="1" stop-color="#00caf4" stop-opacity=".102"/></linearGradient></defs><path d="m123.642 74.037-3.646-5.253c2.18-.792 3.677-2.534 3.677-5.274v-.061c0-3.51-2.45-5.603-6.487-5.603h-7.348a.532.532 0 0 0-.538.53v15.953c0 .294.24.53.538.53h2.717a.532.532 0 0 0 .538-.53v-4.923h2.99l3.523 5.217a.534.534 0 0 0 .452.236h3.134c.42 0 .687-.473.45-.822zm-3.795-10.321c0 1.444-1.045 2.385-2.897 2.385h-3.826v-4.863h3.765c1.851 0 2.99.823 2.99 2.416v.062zm-27.938-5.84h-2.841a.512.512 0 0 0-.508.382l-3.466 11.148L81.361 58.2a.521.521 0 0 0-.509-.355h-2.48c-.237 0-.418.148-.51.355L74.13 69.406l-3.466-11.15a.54.54 0 0 0-.507-.38h-2.898c-.359 0-.626.355-.509.679l5.529 16.068c.056.206.266.355.507.355h2.54a.547.547 0 0 0 .507-.355l3.765-10.763 3.768 10.763c.056.206.267.355.508.355h2.538c.236 0 .416-.149.508-.355l5.528-16.068c.056-.324-.18-.678-.538-.678zm14.82 13.652h-8.815v-3.567h7.59a.533.533 0 0 0 .537-.53v-2.27a.531.531 0 0 0-.538-.53h-7.589v-3.423h8.698a.533.533 0 0 0 .538-.53v-2.271a.533.533 0 0 0-.538-.53H94.689a.532.532 0 0 0-.539.53v15.922c0 .294.24.53.538.53h12.041a.532.532 0 0 0 .538-.53v-2.271a.533.533 0 0 0-.538-.53zm-49.092-13.95c-5.318 0-9.175 3.954-9.175 8.79v.056c0 4.837 3.826 8.733 9.113 8.733 5.318 0 9.174-3.953 9.174-8.789v-.056c0-4.812-3.794-8.733-9.112-8.733zm5.17 8.847c0 2.92-2.124 5.278-5.17 5.278-3.051 0-5.23-2.416-5.23-5.335v-.056c0-2.92 2.122-5.28 5.168-5.28 3.047 0 5.231 2.417 5.231 5.336zm-14.97-8.548h-13.21a.533.533 0 0 0-.539.53v2.389c0 .263.18.473.45.5h4.811v13.033c0 .294.237.53.538.53h2.72a.533.533 0 0 0 .537-.53V61.295h4.81a.527.527 0 0 0 .447-.5v-2.388c-.056-.294-.267-.53-.564-.53zm0 0" fill="#142e4a" fill-opacity="1" fill-rule="nonzero"/><path d="M10.396 81.644v.823c0 .061.056.118.118.118H21.78c.056 0 .118-.057.118-.118v-.823zm12.737-21.85H9.266v-5.458h13.867zm0 0" fill="#00caf3" fill-opacity="1" fill-rule="nonzero"/><g clip-path="url(#c)" transform="translate(-7.743 38.355) scale(1.12052)"><path d="M15.2 14.238h12.347v4.895H15.199zm0 0" fill="url(#d)" fill-rule="nonzero"/></g><g clip-path="url(#e)" transform="translate(-7.743 38.355) scale(1.12052)"><path d="M25.762 18.71h1.785v-1.76zm0 0" fill="#fff" fill-opacity="1" fill-rule="nonzero"/></g><g clip-path="url(#f)" transform="translate(-7.743 38.355) scale(1.12052)"><path d="m22.453 18.71 4.535-4.472h-6.43l-4.53 4.473zm0 0" fill="#fff" fill-opacity="1" fill-rule="nonzero"/></g><g clip-path="url(#g)" transform="translate(-7.743 38.355) scale(1.12052)"><path d="M15.2 14.238h12.374v.5H15.2zm0 0" fill="#004770" fill-opacity="1" fill-rule="nonzero"/></g><g clip-path="url(#h)" transform="translate(-7.743 38.355) scale(1.12052)"><path d="M18.398 14.238H15.2v3.157zm0 0" fill="#fff" fill-opacity="1" fill-rule="nonzero"/></g><path d="M23.133 59.829H9.266v-.499h13.867zm0 0" fill="#002b4c" fill-opacity="1" fill-rule="nonzero"/><path d="M18.883 54.515h.533v4.836h-.533zm-5.887 0h.537v4.836h-.537zm0 0" fill="#002b4c" fill-opacity="1" fill-rule="nonzero"/><path d="M18.508 14.422h.37v4.316h-.37zm0 0" fill="url(#i)" fill-rule="nonzero" transform="translate(-7.743 38.355) scale(1.12052)"/><path d="M23.867 14.422h.371v4.316h-.37zm0 0" fill="url(#j)" fill-rule="nonzero" transform="translate(-7.743 38.355) scale(1.12052)"/><g clip-path="url(#k)" transform="translate(-7.743 38.355) scale(1.12052)"><path d="M18.988 14.422h.106v4.316h-.106zm0 0" fill="#004770" fill-opacity="1" fill-rule="nonzero"/></g><g clip-path="url(#l)" transform="translate(-7.743 38.355) scale(1.12052)"><path d="M23.652 14.422h.11v4.316h-.11zm0 0" fill="#004770" fill-opacity="1" fill-rule="nonzero"/></g><path d="m23.81 61.059-.209-1.147c0-.06-.057-.092-.118-.092H8.93c-.056 0-.118.031-.118.092l-.21 1.147zm0 0" fill="#ffc500" fill-opacity="1" fill-rule="nonzero"/><path d="m26.499 63.833-.477-2.655c0-.059-.062-.089-.12-.089H6.54c-.062 0-.119.03-.119.088l-.477 2.656zm0 0" fill="#002b4c" fill-opacity="1" fill-rule="nonzero"/><path d="m30.559 22.738-.426-2.37c0-.052-.055-.079-.106-.079h-17.28c-.056 0-.106.027-.106.078l-.426 2.371zm0 0" fill="url(#m)" fill-rule="nonzero" transform="translate(-7.743 38.355) scale(1.12052)"/><path d="M15.465 30.21v8.157c0 .16.137.266.27.266h11.253c.16 0 .266-.133.266-.266v-8.156zm0 0" fill="url(#n)" fill-rule="nonzero" transform="translate(-7.743 38.355) scale(1.12052)"/><path d="M6.54 61.059c-.062 0-.119.03-.119.092v.026h19.6v-.026c0-.062-.061-.092-.118-.092zm0 0" fill="#002b4c" fill-opacity="1" fill-rule="nonzero"/><path d="M6.837 51.21h18.738l-.272-.94c-.03-.062-.056-.12-.149-.12H7.196c-.056 0-.118.058-.15.12zm0 0" fill="#ffc500" fill-opacity="1" fill-rule="nonzero"/><path d="M13.012 11.473h16.722l-.242-.84c-.027-.055-.05-.106-.133-.106H13.332c-.05 0-.105.051-.133.106zm0 0" fill="url(#o)" fill-rule="nonzero" transform="translate(-7.743 38.355) scale(1.12052)"/><g clip-path="url(#p)" transform="translate(-7.743 38.355) scale(1.12052)"><path d="M13.012 11.473h16.722l-.054-.235H13.066zm0 0" fill="#b37d4c" fill-opacity="1" fill-rule="nonzero"/></g><path d="M6.093 54.515H26.35c.06 0 .092-.03.092-.087l.507-3.217H5.494L6 54.427c0 .027.03.088.092.088zm0 0" fill="#002b4c" fill-opacity="1" fill-rule="nonzero"/><path d="M5.524 51.39h21.395l.03-.18H5.494zm0 0" fill="#00597f" fill-opacity="1" fill-rule="nonzero"/><path d="m28.16 20.262-.187-1.024c0-.054-.051-.082-.106-.082H14.88c-.05 0-.106.028-.106.082l-.187 1.024zm0 0" fill="url(#q)" fill-rule="nonzero" transform="translate(-7.743 38.355) scale(1.12052)"/><path d="m23.81 61.059-.06-.381H8.692l-.092.381zm0 0" fill="#d99926" fill-opacity="1" fill-rule="nonzero"/><g clip-path="url(#r)" transform="translate(-7.743 38.355) scale(1.12052)"><path d="m30.559 22.738-.106-.582h-18.16l-.105.582zm0 0" fill="#002b4c" fill-opacity="1" fill-rule="nonzero"/></g><g clip-path="url(#s)" transform="translate(-7.743 38.355) scale(1.12052)"><path d="M16.188 38.633H26.48v.156H16.187zm0 0" fill="#004770" fill-opacity="1" fill-rule="nonzero"/></g><g clip-path="url(#t)" transform="translate(-7.743 38.355) scale(1.12052)"><path d="M18.453 30.21h-2.988v8.157c0 .16.137.266.27.266h2.718zm0 0" fill="#002b4c" fill-opacity="1" fill-rule="nonzero"/></g><path d="M27.281 38.367v-8.156h-2.988v8.422h2.719c.136 0 .27-.106.27-.266zm0 0" fill="url(#u)" fill-rule="nonzero" transform="translate(-7.743 38.355) scale(1.12052)"/><path d="m28.201 66.101-.508-2.061c-.025-.12-.117-.207-.235-.207H4.984c-.118 0-.21.088-.235.207l-.514 2.06c0 .03 0 .06.032.092L8.21 72.12c.03.056.122.117.21.117h15.655c.092 0 .154-.03.211-.117l3.944-5.928c-.031-.03-.031-.06-.031-.09zm0 0" fill="#ffc500" fill-opacity="1" fill-rule="nonzero"/><g clip-path="url(#v)" transform="translate(-7.743 38.355) scale(1.12052)"><path d="m32.078 24.762-.453-1.84c-.023-.106-.105-.184-.21-.184H11.358c-.105 0-.187.078-.21.184l-.458 1.84c0 .027 0 .054.028.082l3.52 5.289c.027.05.109.105.187.105h13.972c.082 0 .137-.027.188-.105l3.52-5.29c-.028-.027-.028-.054-.028-.081zm0 0" fill="url(#w)" fill-rule="nonzero"/></g><path d="M4.21 66.133c0 .029 0 .029.026.06l3.95 5.927c.025.056.117.117.204.117h15.662c.087 0 .149-.03.206-.117l3.944-5.928s.03-.03.03-.06zm0 0" fill="#d99926" fill-opacity="1" fill-rule="nonzero"/><g clip-path="url(#x)" transform="translate(-7.743 38.355) scale(1.12052)"><path d="M15.465 30.21H27.28v.685H15.465zm0 0" fill="#002b4c" fill-opacity="1" fill-rule="nonzero"/></g><path d="M12.785 72.088 8.84 66.162H4.21c0 .031 0 .031.025.057l3.95 5.928c.025.06.117.117.204.117h4.636a.45.45 0 0 1-.241-.176zm0 0" fill="#cc7d1e" fill-opacity="1" fill-rule="nonzero"/><g clip-path="url(#y)" transform="translate(-7.743 38.355) scale(1.12052)"><path d="m14.852 24.738.48-1.922c0-.054.055-.078.11-.078h-4.028c-.105 0-.187.078-.215.184l-.453 1.84h4.106zm0 0" fill="#cc7d1e" fill-opacity="1" fill-rule="nonzero"/></g><g clip-path="url(#z)" transform="translate(-7.743 38.355) scale(1.12052)"><path d="m24.426 30.105 3.547-5.289h4.105c0 .028 0 .028-.023.051l-3.52 5.29c-.027.054-.11.105-.187.105h-4.133a.314.314 0 0 0 .21-.157zm0 0" fill="#ffe600" fill-opacity="1" fill-rule="nonzero"/></g><g clip-path="url(#A)" transform="translate(-7.743 38.355) scale(1.12052)"><path d="m27.945 24.762-.48-1.918c0-.055-.05-.082-.106-.082h4.028c.105 0 .187.082.215.187l.453 1.84h-4.11zm0 0" fill="#ff0" fill-opacity="1" fill-rule="nonzero"/></g><g clip-path="url(#B)" transform="translate(-7.743 38.355) scale(1.12052)"><path d="M10.668 24.79h21.41l-.05-.185h-21.31zm0 0" fill="#ff0" fill-opacity="1" fill-rule="nonzero"/></g><path d="m30.535 14.238.426-2.765H11.813l.425 2.765zm0 0" fill="url(#C)" fill-rule="nonzero" transform="translate(-7.743 38.355) scale(1.12052)"/><path d="M8.93 59.82c-.057 0-.12.031-.12.092v.026h14.791v-.026c0-.06-.057-.092-.118-.092zm0 0" fill="#fff002" fill-opacity="1" fill-rule="nonzero"/></svg>
