<svg viewBox="0 0 128 128" xmlns="http://www.w3.org/2000/svg"><defs><clipPath id="towergit-plain-wordmark-a"><path d="M0 0h128v50H0z"/></clipPath></defs><path d="M123.642 74.037l-3.646-5.253c2.18-.792 3.677-2.534 3.677-5.274v-.061c0-3.51-2.45-5.603-6.487-5.603h-7.348a.532.532 0 00-.538.53v15.953c0 .294.24.53.538.53h2.717a.532.532 0 00.538-.53v-4.923h2.99l3.523 5.217a.534.534 0 00.452.236h3.134c.42 0 .687-.473.45-.822zm-3.795-10.321c0 1.444-1.045 2.385-2.897 2.385h-3.826v-4.863h3.765c1.851 0 2.99.823 2.99 2.416v.062zm-27.938-5.84h-2.841a.512.512 0 00-.508.382l-3.466 11.148L81.361 58.2a.521.521 0 00-.509-.355h-2.48c-.237 0-.418.148-.51.355L74.13 69.406l-3.466-11.15a.54.54 0 00-.507-.38h-2.898c-.359 0-.626.355-.509.679l5.529 16.068c.056.206.266.355.507.355h2.54a.547.547 0 00.507-.355l3.765-10.763 3.768 10.763c.056.206.267.355.508.355h2.538c.236 0 .416-.149.508-.355l5.528-16.068c.056-.324-.18-.678-.538-.678zm14.82 13.652h-8.815v-3.567h7.59a.533.533 0 00.537-.53v-2.27a.531.531 0 00-.538-.53h-7.589v-3.423h8.698a.533.533 0 00.538-.53v-2.271a.533.533 0 00-.538-.53H94.689a.532.532 0 00-.539.53v15.922c0 .294.24.53.538.53h12.041a.532.532 0 00.538-.53v-2.271a.533.533 0 00-.538-.53zm-49.092-13.95c-5.318 0-9.175 3.954-9.175 8.79v.056c0 4.837 3.826 8.733 9.113 8.733 5.318 0 9.174-3.953 9.174-8.789v-.056c0-4.812-3.794-8.733-9.112-8.733zm5.17 8.847c0 2.92-2.124 5.278-5.17 5.278-3.051 0-5.23-2.416-5.23-5.335v-.056c0-2.92 2.122-5.28 5.168-5.28 3.047 0 5.231 2.417 5.231 5.336zm-14.97-8.548h-13.21a.533.533 0 00-.539.53v2.389c0 .263.18.473.45.5h4.811v13.033c0 .294.237.53.538.53h2.72a.533.533 0 00.537-.53V61.295h4.81a.527.527 0 00.447-.5v-2.388c-.056-.294-.267-.53-.564-.53zm0 0M10.396 81.644v.823c0 .061.056.118.118.118H21.78c.056 0 .118-.057.118-.118v-.823zM23.133 59.829H9.266v-.499h13.867zm0 0" fill="#ffc600"/><path d="M12.996 54.515h.537v4.836h-.537zm5.887 0h.533v4.836h-.533zm3.717-.021h.533v4.836H22.6z" fill="#ffc600"/><path d="M19 54.515h.416v4.836h-.414zm0 0M23.81 61.059l-.209-1.147c0-.06-.057-.092-.118-.092H8.93c-.056 0-.118.031-.118.092l-.21 1.147zm0 0M26.499 63.833l-.477-2.655c0-.059-.062-.089-.12-.089H6.54c-.062 0-.119.03-.119.088l-.477 2.656zm0 0M9.586 72.206v9.14c0 .18.153.298.302.298h12.61c.179 0 .298-.149.298-.298v-9.139zm0 0M6.837 51.21h18.738l-.272-.94c-.03-.062-.056-.12-.149-.12H7.196c-.056 0-.118.058-.15.12zm0 0" fill="#ffc600"/><g clip-path="url(#towergit-plain-wordmark-a)" transform="translate(-7.743 38.355) scale(1.12052)" fill="#ffc600"><path d="M13.012 11.473h16.722l-.054-.235H13.066zm0 0"/></g><path d="M6.093 54.515H26.35c.06 0 .092-.03.092-.087l.507-3.217H5.494L6 54.427c0 .027.03.088.092.088zm0 0M28.201 66.101l-.508-2.061c-.025-.12-.117-.207-.235-.207H4.984c-.118 0-.21.088-.235.207l-.514 2.06c0 .03 0 .06.032.092L8.21 72.12c.03.056.122.117.21.117h15.655c.092 0 .154-.03.211-.117l3.944-5.928c-.031-.03-.031-.06-.031-.09zm0 0" fill="#ffc600"/><path d="M9.266 54.494h.533v4.836h-.533z" fill="#ffc600"/><path d="M6.028 54.457a57.5 57.5 0 01-.27-1.64l-.252-1.595 10.708-.005c5.89-.003 10.712-.002 10.716.002.01.01-.5 3.239-.516 3.264-.009.014-3.165.02-10.19.019l-10.176-.001-.02-.044zm.836-3.309l.024-.118.013-.074h18.611l.013.074c.006.04.017.093.024.118l.012.044H6.853zm15.737 5.778v-2.404h.532v4.808h-.532zm-3.704.01v-2.414h.512v4.828h-.512zm-5.892 0v-2.414h.512v4.828h-.512zm-3.725-.02v-2.414h.513v4.828h-.512z" fill="#ffc600"/><path d="M9.28 59.567v-.237h1.852c1.213 0 1.855.007 1.863.02.016.026.542.026.542 0 0-.028 5.333-.028 5.35 0 .016.026.516.026.532 0 .008-.013.65-.02 1.863-.02h1.851v.473H9.281zm-3.316 4.211l.242-1.342c.155-.866.242-1.303.26-1.315.015-.01 4.288-.017 9.763-.017 7.849 0 9.74.004 9.757.024.016.019.497 2.619.497 2.683 0 .007-4.619.012-10.264.012H5.956zM9.716 81.563a.359.359 0 01-.101-.16c-.02-.069-.029-1.612-.029-4.624v-4.522h13.209v4.522c0 3.012-.01 4.555-.03 4.624a.359.359 0 01-.1.16l-.073.057H9.789zm.741.987c-.026-.011-.035-.13-.035-.458v-.444h11.453v.427c0 .294-.01.436-.033.46-.026.025-1.326.032-5.692.03a585.332 585.332 0 01-5.693-.016z" fill="#ffc600"/></svg>
