<svg xmlns="http://www.w3.org/2000/svg" viewBox="0 0 128 128"><path d="M13.074 23.154C5.88 23.154 0 29.034 0 36.228v55.504c0 7.195 5.88 13.075 13.074 13.075H42.91a2.199 2.199 0 0 0 2.2-2.198 2.199 2.199 0 0 0-2.2-2.199H13.074a8.643 8.643 0 0 1-8.676-8.678V42.685h78.086V89.16a.49.49 0 0 1-.09.127.482.482 0 0 1-.341.143H79.36a.487.487 0 0 1-.486-.487v-8.13a2.177 2.177 0 0 0-2.176-2.178 2.178 2.178 0 0 0-1.539.638 2.178 2.178 0 0 0-.639 1.54l.002.023-.002.025v21.809c0 .577.231 1.131.64 1.539a2.176 2.176 0 0 0 1.538.637 2.175 2.175 0 0 0 1.54-.637 2.176 2.176 0 0 0 .636-1.539v-8.645a.483.483 0 0 1 .143-.342.487.487 0 0 1 .343-.142h2.692a.483.483 0 0 1 .431.267v8.801a2.199 2.199 0 0 0 .022.082 2.169 2.169 0 0 0 .07.537 2.167 2.167 0 0 0 .434.836 2.174 2.174 0 0 0 1.67.774h.017c.284 0 .564-.056.826-.164a2.165 2.165 0 0 0 .702-.469 2.153 2.153 0 0 0 .466-.7l.018-.044a2.199 2.199 0 0 0 .016-.047 2.144 2.144 0 0 0 .066-.217 2.199 2.199 0 0 0 .09-.588V36.23c0-7.195-5.88-13.075-13.074-13.075H13.074zm0 4.397h60.733a8.645 8.645 0 0 1 8.677 8.678v2.06H4.398v-2.06a8.643 8.643 0 0 1 8.676-8.678zm10.54 19.355a.773.773 0 0 0-.526.272L8.74 64.268a.773.773 0 0 0 .094 1.09.773.773 0 0 0 1.088-.096l14.35-17.09a.773.773 0 0 0-.094-1.088.773.773 0 0 0-.565-.178zm-10.643.434c-2.288 0-4.168 1.88-4.168 4.168 0 2.288 1.88 4.168 4.168 4.168 2.288 0 4.17-1.88 4.17-4.168 0-2.288-1.882-4.168-4.17-4.168zm0 2.412c.983 0 1.756.772 1.756 1.756s-.773 1.754-1.756 1.754c-.984 0-1.754-.77-1.754-1.754s.77-1.756 1.754-1.756zm7.021 7.021c-2.288 0-4.17 1.88-4.17 4.168 0 2.288 1.882 4.168 4.17 4.168 2.288 0 4.168-1.88 4.168-4.168 0-2.288-1.88-4.168-4.168-4.168zm0 2.412c.984 0 1.754.773 1.754 1.757 0 .983-.77 1.755-1.754 1.755a1.738 1.738 0 0 1-1.756-1.756c0-.983.772-1.755 1.756-1.755zm9.625 4.38a.773.773 0 0 0-.773.773.773.773 0 0 0 .773.771h10.246a.773.773 0 0 0 .774-.771.773.773 0 0 0-.774-.773H29.617zm20.295 15.058a2.214 2.214 0 0 0-1.56.647 2.21 2.21 0 0 0-.647 1.56v.002a2.193 2.193 0 0 0 .645 1.56 2.207 2.207 0 0 0 .716.48c.268.11.556.165.846.165.035 0 .067-.002.102-.004h4.066a.271.271 0 0 1 .127.031.278.278 0 0 1 .1.088.277.277 0 0 1 .044.125.276.276 0 0 1-.02.131l-6.452 16.12a2.427 2.427 0 0 0-.174.902v1.976c0 .644.256 1.262.71 1.717a2.424 2.424 0 0 0 1.716.711h7.566a2.259 2.259 0 0 0 .865-.172 2.257 2.257 0 0 0 1.225-1.224 2.27 2.27 0 0 0 .174-.868 2.267 2.267 0 0 0-2.266-2.265l-.05.002h-5.09a.26.26 0 0 1-.123-.03.262.262 0 0 1-.094-.086.262.262 0 0 1-.043-.119.26.26 0 0 1 .017-.125l7.444-18.558a2.01 2.01 0 0 0-.201-1.875 2.01 2.01 0 0 0-.723-.649 2.005 2.005 0 0 0-.941-.234h-7.846c-.045-.003-.088-.008-.133-.008zm39.285 0a.842.842 0 0 0-.842.842v24.474c0 .464.377.84.84.84h8.123a2.263 2.263 0 0 0 0-4.527h-4.191a.521.521 0 0 1-.521-.521v-5.735a.515.515 0 0 1 .515-.516h4.334a2.056 2.056 0 1 0 0-4.111h-4.334a.515.515 0 0 1-.515-.516v-5.386a.523.523 0 0 1 .523-.524h4.326a2.16 2.16 0 0 0 0-4.32h-8.258zm14.026 0a2.125 2.125 0 0 0-2.125 2.125v23.414c0 .34.275.617.615.617h9.826a2.264 2.264 0 0 0 0-4.527h-5.781a.41.41 0 0 1-.41-.41V80.748a2.125 2.125 0 0 0-2.125-2.125zm14.197 0a2.125 2.125 0 0 0-2.125 2.125v23.414c0 .34.275.617.615.617h9.826a2.264 2.264 0 0 0 0-4.527h-5.78a.41.41 0 0 1-.411-.41V80.748a2.125 2.125 0 0 0-2.125-2.125zm-49.73.123c-1.034 0-2.216.1-2.928.299a3.428 3.428 0 0 0-1.69.967c-.413.466-.71 1.099-.894 1.898-.184.778-.276 1.767-.276 2.967 0 1.155.01 2.086.033 2.797a13.003 13.003 0 0 0 .207 1.732c.087.379.238.74.448 1.067a4.284 4.284 0 0 0 .69.767 7.026 7.026 0 0 0 1.171.832c.46.267.93.522 1.412.766.482.245.943.5 1.38.768.41.23.792.51 1.136.832a4.7 4.7 0 0 1 .379.466c.083.099.148.213.191.334.04.109.073.22.1.332a2.35 2.35 0 0 1 .053.534c.023.266.035.633.035 1.1a13.69 13.69 0 0 1-.104 1.898 2.705 2.705 0 0 1-.275 1.033.947.947 0 0 1-.551.433c-.23.067-1.025.1-1.37.1a3.008 3.008 0 0 1-.825-.1 1.141 1.141 0 0 1-.518-.466 3.87 3.87 0 0 1-.275-1 15.986 15.986 0 0 1-.069-1.663 1.867 1.867 0 0 0-.01-.185h-.013a1.851 1.851 0 0 0-.623-1.139 1.872 1.872 0 0 0-1.223-.453c-.448 0-.881.16-1.22.453a1.851 1.851 0 0 0-.623 1.139h-.01a1.784 1.784 0 0 0-.012.205l.002.047-.002.013.002.022c.005.438.012.83.012 1.027 0 1.31.091 2.378.275 3.2.207.799.529 1.434.965 1.9a3.317 3.317 0 0 0 1.654.898 9.63 9.63 0 0 0 2.446.268c1.102 0 2.526-.1 3.261-.3a3.25 3.25 0 0 0 1.758-1.134c.46-.555.781-1.321.965-2.298.207-1 .308-2.278.308-3.832 0-1.133-.034-2.042-.103-2.73a5.994 5.994 0 0 0-.309-1.702 2.76 2.76 0 0 0-.654-1.065 5.444 5.444 0 0 0-1-.8 9.809 9.809 0 0 0-1.033-.567 15.916 15.916 0 0 0-1.24-.633 30.6 30.6 0 0 1-1.24-.666 10.361 10.361 0 0 1-.999-.699 3.416 3.416 0 0 1-.414-.4 1.444 1.444 0 0 1-.207-.5 5.266 5.266 0 0 1-.103-.766v-1.265a11.743 11.743 0 0 1 .07-1.434 2.287 2.287 0 0 1 .24-.834.828.828 0 0 1 .516-.365c.207-.067.782-.1 1.104-.1.735 0 1.195.21 1.378.633.146.267.228.562.24.865.009.243.011.558.012.889h.014l-.002.013c0 .493.197.965.547 1.313a1.868 1.868 0 0 0 1.318.545c.495 0 .97-.197 1.32-.545a1.85 1.85 0 0 0 .546-1.313v-.013l.002-.889a11.516 11.516 0 0 0-.243-2.564c-.138-.711-.413-1.277-.826-1.7-.39-.444-.94-.755-1.652-.933-.69-.2-1.575-.299-2.654-.299z"/></svg>
