<svg xmlns="http://www.w3.org/2000/svg" viewBox="0 0 128 128"><path fill="#f15a24" d="M33.921 38.816a1.138 1.138 0 0 0-.773.402l-21.14 25.177a1.138 1.138 0 0 0 .14 1.604 1.138 1.138 0 0 0 1.603-.14l21.14-25.177a1.138 1.138 0 0 0-.14-1.604 1.138 1.138 0 0 0-.83-.262zm-15.68.638c-3.37 0-6.14 2.77-6.14 6.141 0 3.37 2.77 6.142 6.14 6.142 3.372 0 6.142-2.771 6.142-6.142 0-3.37-2.77-6.141-6.141-6.141zm0 3.556c1.45 0 2.587 1.136 2.587 2.585s-1.137 2.586-2.586 2.586a2.56 2.56 0 0 1-2.586-2.586 2.56 2.56 0 0 1 2.586-2.585zm10.344 10.343c-3.37 0-6.141 2.77-6.141 6.141 0 3.37 2.77 6.141 6.141 6.141 3.37 0 6.142-2.77 6.142-6.14 0-3.372-2.771-6.142-6.142-6.142zm0 3.555a2.56 2.56 0 0 1 2.586 2.586 2.56 2.56 0 0 1-2.586 2.586A2.559 2.559 0 0 1 26 59.494a2.559 2.559 0 0 1 2.585-2.586zm14.18 6.45a1.138 1.138 0 0 0-1.138 1.139 1.138 1.138 0 0 0 1.138 1.138h15.096A1.138 1.138 0 0 0 59 64.497a1.138 1.138 0 0 0-1.138-1.138z" color="#000" style="-inkscape-stroke:none"/><path d="M19.263 3.822C8.663 3.822 0 12.485 0 23.085v81.772c0 10.6 8.663 19.263 19.263 19.263h43.956a3.24 3.24 0 0 0 3.24-3.24 3.24 3.24 0 0 0-3.24-3.239H19.263a12.735 12.735 0 0 1-12.784-12.784V32.598H121.52v68.47a.712.712 0 0 1-.13.186.715.715 0 0 1-.506.21h-3.965a.713.713 0 0 1-.506-.21.716.716 0 0 1-.21-.506v-11.98a3.207 3.207 0 0 0-.938-2.267 3.208 3.208 0 0 0-2.268-.94 3.205 3.205 0 0 0-2.267.94 3.207 3.207 0 0 0-.94 2.267l.002.036-.002.037v32.13c0 .85.338 1.666.94 2.267a3.205 3.205 0 0 0 2.267.94 3.208 3.208 0 0 0 2.268-.94 3.207 3.207 0 0 0 .938-2.267v-12.735c0-.19.076-.371.21-.505a.715.715 0 0 1 .506-.21h3.965c.19 0 .372.076.506.21a.713.713 0 0 1 .13.186v12.964a3.24 3.24 0 0 0 .033.122c.003.266.034.533.103.792.12.452.338.872.64 1.231a3.199 3.199 0 0 0 1.103.844c.425.197.888.298 1.356.296l.013-.001h.013c.417 0 .831-.081 1.217-.241a3.184 3.184 0 0 0 1.032-.69 3.178 3.178 0 0 0 .69-1.032l.022-.062a3.24 3.24 0 0 0 .028-.08 3.183 3.183 0 0 0 .096-.313 3.24 3.24 0 0 0 .133-.866V23.085c0-10.6-8.662-19.263-19.262-19.263Zm0 6.48h89.475a12.735 12.735 0 0 1 12.783 12.783v3.034H6.48v-3.034a12.735 12.735 0 0 1 12.784-12.784zm54.27 75.243a3.253 3.253 0 0 0-2.3.952 3.256 3.256 0 0 0-.704 1.055 3.25 3.25 0 0 0-.248 1.245v.001a3.248 3.248 0 0 0 .952 2.3 3.24 3.24 0 0 0 1.055.703 3.243 3.243 0 0 0 1.245.247c.051 0 .1-.005.15-.008h5.99a.407.407 0 0 1 .19.047.41.41 0 0 1 .144.13.406.406 0 0 1 .067.183.406.406 0 0 1-.027.193l-9.51 23.75a3.573 3.573 0 0 0-.256 1.328v2.913c0 .948.377 1.858 1.047 2.528a3.576 3.576 0 0 0 2.529 1.047h11.147a3.335 3.335 0 0 0 3.08-2.058 3.328 3.328 0 0 0 .254-1.275v-.002a3.337 3.337 0 0 0-.977-2.36 3.337 3.337 0 0 0-2.359-.976c-.026 0-.05.003-.076.004h-7.498a.384.384 0 0 1-.181-.045.384.384 0 0 1-.138-.125.386.386 0 0 1-.065-.175.385.385 0 0 1 .026-.184l10.966-27.344a2.962 2.962 0 0 0 .196-1.418 2.956 2.956 0 0 0-.49-1.343 2.96 2.96 0 0 0-2.454-1.303H73.729c-.065-.004-.13-.01-.196-.01zm26.193.179c-1.523 0-3.266.147-4.315.441a5.043 5.043 0 0 0-2.487 1.424c-.609.687-1.05 1.62-1.32 2.798-.27 1.146-.405 2.602-.405 4.37 0 1.7.016 3.075.05 4.122.044.856.146 1.71.304 2.552a4.959 4.959 0 0 0 .66 1.571 6.296 6.296 0 0 0 1.015 1.129 10.337 10.337 0 0 0 1.726 1.227 41.656 41.656 0 0 0 2.08 1.13c.711.36 1.388.735 2.031 1.128a8.632 8.632 0 0 1 1.674 1.227 6.937 6.937 0 0 1 .559.688c.123.145.219.311.283.49.058.16.108.324.147.49.055.259.082.522.078.786.034.393.05.934.05 1.62a20.163 20.163 0 0 1-.152 2.798 3.992 3.992 0 0 1-.406 1.522 1.395 1.395 0 0 1-.812.639c-.338.098-1.508.146-2.016.146a4.41 4.41 0 0 1-1.217-.146 1.68 1.68 0 0 1-.762-.688 5.714 5.714 0 0 1-.406-1.473 23.676 23.676 0 0 1-.102-2.45c0-.09-.004-.182-.014-.273h-.02a2.727 2.727 0 0 0-.919-1.677 2.754 2.754 0 0 0-1.799-.669 2.75 2.75 0 0 0-1.798.67 2.727 2.727 0 0 0-.918 1.676h-.017a2.601 2.601 0 0 0-.015.301l.001.069v.02l.001.034c.008.645.018 1.223.018 1.514 0 1.93.135 3.502.406 4.713.304 1.177.778 2.11 1.42 2.797a4.888 4.888 0 0 0 2.437 1.325 14.193 14.193 0 0 0 3.603.393c1.625 0 3.724-.147 4.807-.442a4.782 4.782 0 0 0 2.588-1.668c.677-.818 1.15-1.947 1.421-3.387.305-1.473.457-3.355.457-5.645 0-1.67-.05-3.01-.152-4.025a8.814 8.814 0 0 0-.457-2.504 4.072 4.072 0 0 0-.965-1.57 7.973 7.973 0 0 0-1.471-1.178 14.42 14.42 0 0 0-1.522-.835 23.44 23.44 0 0 0-1.827-.933 44.852 44.852 0 0 1-1.828-.982 15.286 15.286 0 0 1-1.471-1.03 4.987 4.987 0 0 1-.61-.59 2.126 2.126 0 0 1-.304-.736 7.718 7.718 0 0 1-.152-1.128v-1.866c-.01-.705.024-1.41.1-2.111a3.369 3.369 0 0 1 .357-1.227 1.225 1.225 0 0 1 .76-.54c.305-.098 1.152-.147 1.626-.147 1.082 0 1.76.31 2.03.933a2.917 2.917 0 0 1 .354 1.276c.01.358.016.822.017 1.31h.02l-.001.019c0 .726.289 1.421.804 1.934a2.755 2.755 0 0 0 1.944.802 2.754 2.754 0 0 0 1.943-.802 2.729 2.729 0 0 0 .805-1.934v-1.329a16.985 16.985 0 0 0-.355-3.78c-.203-1.047-.609-1.881-1.218-2.503-.575-.655-1.387-1.113-2.435-1.375-1.016-.294-2.319-.441-3.909-.441z"/></svg>
