<svg xmlns="http://www.w3.org/2000/svg" viewBox="0 0 128 128"><path fill="#000080" d="m66.825 0-.033.488-.135 1.988.502.029c1.767.098 3.544.294 5.329.492l.451.05.494-2.466-.54-.058C71.01.325 69.214.125 67.312.025ZM61.73.025c-1.919 0-3.82.203-5.608.401l-.505.054.333 2.472.48-.054c1.786-.198 3.552-.393 5.401-.393h.531l-.169-2.48Zm50.883.794c-8.1 0-14.779 6.475-14.779 14.679 0 8.199 6.584 14.68 14.779 14.68 8.2 0 14.68-6.581 14.68-14.68 0-8.104-6.577-14.678-14.68-14.678zM61.27 1.05l.034.502c-1.55.03-3.037.166-4.498.327l-.068-.505c1.482-.162 3.006-.298 4.531-.324Zm6.475.01c1.509.093 2.98.242 4.5.403l-.102.507a99.016 99.016 0 0 0-4.43-.41Zm-16.644.257-.488.109c-1.802.4-3.596.899-5.381 1.395l-.481.133.672 2.348.479-.14c1.68-.494 3.458-.986 5.226-1.379l.48-.106zm26.615.297-.104.49-.4 1.87.48.106c1.784.396 3.55.79 5.198 1.371l.487.173.691-2.247-.459-.153c-1.8-.6-3.602-1.101-5.405-1.502Zm34.897.197c7.568 0 13.688 6.119 13.688 13.687 0 7.572-6.018 13.688-13.688 13.688-7.675 0-13.787-6.018-13.787-13.688 0-7.666 6.215-13.687 13.787-13.687zm-62.267.71.09.42a81.744 81.744 0 0 0-4.33 1.14l-.125-.43c1.46-.404 2.916-.795 4.365-1.13zm28.124.304a53.437 53.437 0 0 1 4.358 1.21l-.108.35c-1.42-.465-2.877-.822-4.337-1.148ZM40.36 4.543l-.44.18c-1.701.7-3.395 1.498-5.08 2.292l-.473.222 1.168 2.176.43-.215a75.02 75.02 0 0 1 4.926-2.267l.479-.197Zm48.056.28-.174.49-.651 1.826.422.185c1.579.691 3.26 1.48 4.84 2.269l.457.229 1-2.168-.398-.225a46.073 46.073 0 0 0-5.015-2.408ZM39.865 5.838l.182.391A76.034 76.034 0 0 0 35.96 8.11l-.22-.41c1.38-.65 2.755-1.285 4.125-1.862zm49.128.327c1.37.58 2.725 1.222 4.023 1.931l-.182.394a107.373 107.373 0 0 0-4.002-1.877Zm-58.558 3.3-.409.256c-1.607 1.005-3.103 2.105-4.59 3.196l-.406.297 1.498 1.995.399-.314c1.368-1.075 2.847-2.06 4.438-3.154l.403-.277zm-.277 1.372.246.37c-1.284.879-2.508 1.724-3.675 2.615l-.296-.393c1.222-.895 2.45-1.773 3.725-2.592zm33.855 4.165c-27.048 0-49.097 21.949-49.097 49.096 0 27.146 21.95 49.096 49.097 49.096 27.146 0 49.096-21.95 49.096-49.096 0-27.147-22.049-49.096-49.096-49.096zm0 .991c26.511 0 48.104 21.494 48.104 48.105 0 26.611-21.493 48.104-48.104 48.104-26.612 0-48.105-21.493-48.105-48.104 0-26.61 21.593-48.105 48.105-48.105zm-42.508.204-.366.314c-1.408 1.206-2.711 2.51-4.008 3.907l-.341.366 1.826 1.66.334-.36c1.18-1.28 2.458-2.557 3.827-3.731l.388-.331zm-.064 1.402.325.357a46.91 46.91 0 0 0-3.192 3.111l-.357-.324a47.962 47.962 0 0 1 3.224-3.144zm-7.608 6.732-.298.382c-1.098 1.397-2.2 2.898-3.204 4.506l-.256.408 2.003 1.337.275-.413c.992-1.488 1.972-2.957 3.137-4.316l.345-.403zm.2 1.39.393.295c-.955 1.165-1.797 2.374-2.605 3.584l-.37-.248a50.61 50.61 0 0 1 2.582-3.632zm70.115 3.465c-8.104 0-14.68 6.574-14.68 14.678 0 8.103 6.576 14.68 14.68 14.68 8.103 0 14.678-6.577 14.678-14.68 0-8.104-6.575-14.678-14.678-14.678zm0 .992c7.567 0 13.686 6.118 13.686 13.686s-6.119 13.688-13.686 13.688c-7.568 0-13.689-6.12-13.689-13.688 0-7.568 6.121-13.686 13.689-13.686zM7.68 33.674l-.238.424a46.043 46.043 0 0 0-2.408 5.016l-.198.48 2.315.825.186-.422A69.664 69.664 0 0 1 9.6 35.27l.232-.434zm113.093.779-.46.248-1.736.932.248.441c.873 1.552 1.56 3.217 2.254 4.903l.198.479 2.191-1.01-.18-.44c-.7-1.7-1.498-3.394-2.292-5.08zm-112.678.573.416.223a70.716 70.716 0 0 0-1.885 3.93l-.45-.16a44.927 44.927 0 0 1 1.919-3.993Zm112.217.798c.65 1.381 1.284 2.756 1.862 4.127l-.391.182c-.569-1.377-1.17-2.754-1.883-4.088zm-117.014 8-.16.48c-.601 1.8-1.102 3.6-1.502 5.403l-.109.488 2.36.507.107-.48c.392-1.765.88-3.431 1.47-5.1l.164-.466zm121.758 1.014-.48.138-1.895.538.177.498c.581 1.648.972 3.416 1.37 5.202l.106.48 2.36-.508-.11-.488c-.4-1.802-.898-3.594-1.394-5.38zm-121.113.268.45.16a44.499 44.499 0 0 0-1.233 4.266l-.422-.09c.336-1.446.738-2.89 1.205-4.336Zm120.416.962c.405 1.46.795 2.914 1.131 4.363l-.42.09c-.325-1.456-.68-2.911-1.145-4.329zM.595 54.578l-.058.54C.338 57.003.139 58.799.039 60.7l-.025.486 2.475.169.03-.502c.097-1.767.293-3.544.491-5.33l.05-.45zm126.936 1.124-.504.068-1.968.265.055.48c.196 1.768.294 3.545.393 5.33l.027.469h2.452v-.496c0-1.92-.202-3.823-.4-5.61zm-126.055.064.507.103a98.855 98.855 0 0 0-.41 4.43l-.5-.033c.093-1.508.242-2.98.403-4.5zm125.162 1.058c.16 1.47.294 2.983.322 4.498h-.496a97.597 97.597 0 0 0-.33-4.43zM2.489 65.65l-.5.035-1.976.134.026.486c.099 1.886.199 3.691.501 5.606l.082.518 2.34-.502-.05-.446c-.197-1.767-.294-3.544-.394-5.329Zm-.926 1.056c.083 1.473.18 2.952.331 4.436l-.42.09c-.21-1.502-.319-2.97-.4-4.493Zm123.874.037-.029.502c-.098 1.767-.294 3.542-.492 5.327l-.054.48 2.444.33.08-.475c.3-1.806.502-3.714.502-5.536v-.465zm.916 1.056.5.033a33.305 33.305 0 0 1-.403 4.434l-.505-.068c.161-1.46.312-2.926.408-4.4zM3.69 76.403l-.482.104-1.877.403.108.489c.4 1.802.9 3.596 1.395 5.381l.134.48 2.365-.675-.163-.493c-.586-1.758-.977-3.427-1.373-5.209Zm120.472.899-.126.45c-.5 1.8-.894 3.578-1.476 5.226l-.164.465 2.33.833.16-.48a49.559 49.559 0 0 0 1.504-5.51l.1-.485zm-121.208.273c.326 1.45.68 2.867 1.143 4.331l-.432.124c-.405-1.46-.795-2.915-1.131-4.364Zm121.912.893.422.089a48.511 48.511 0 0 1-1.209 4.434l-.45-.16c.473-1.433.843-2.9 1.237-4.363zM6.76 86.67l-.453.174-1.765.678.193.47c.701 1.7 1.499 3.395 2.292 5.08l.211.446 2.213-1.02-.246-.464c-.883-1.666-1.57-3.235-2.261-4.914Zm114.238 1.006-.201.402c-.805 1.61-1.495 3.286-2.368 4.838l-.248.441 2.195 1.18 2.83-6.013zm-114.769.26a55.949 55.949 0 0 0 1.881 4.088l-.385.179a113.708 113.708 0 0 1-1.862-4.125Zm115.257.989.368.141-1.931 4.103-.407-.219c.721-1.347 1.336-2.719 1.97-4.025zM11.484 96.24l-.413.275-1.592 1.061.255.41c1.005 1.607 2.106 3.103 3.197 4.59l.308.423 1.86-1.523-.28-.378c-1.082-1.476-2.068-2.958-3.06-4.446zm104.463.893-.275.412a69.574 69.574 0 0 1-3.15 4.334l-.314.399 1.984 1.488.298-.382c1.105-1.407 2.202-3.002 3.196-4.494l.275-.413zm-104.733.478c.817 1.225 1.65 2.452 2.54 3.685l-.324.265c-.89-1.216-1.765-2.438-2.58-3.708zm104.99.885.37.249a71.83 71.83 0 0 1-2.582 3.632l-.393-.297a70.504 70.504 0 0 0 2.605-3.583zm-98.182 6.364-.365.331-1.447 1.316.314.366c1.207 1.408 2.51 2.71 3.907 4.008l.367.341 1.66-1.827-.36-.333c-1.27-1.172-2.554-2.553-3.743-3.842zm91.387.792-.334.36c-1.171 1.27-2.552 2.554-3.84 3.743l-.361.334 1.671 1.84.369-.368c1.28-1.28 2.669-2.57 3.967-3.869l.368-.368zm-91.44.595c.991 1.071 2.041 2.175 3.111 3.19l-.323.357a47.937 47.937 0 0 1-3.144-3.223zm91.482.783.357.323c-1.056 1.042-2.156 2.09-3.224 3.144l-.323-.356c1.07-.99 2.174-2.04 3.19-3.111zm-83.619 5.164-.304.405-1.183 1.58.381.297c1.398 1.099 2.899 2.2 4.506 3.205l.409.255 1.337-2.003-.413-.275a69.612 69.612 0 0 1-4.334-3.15zm75.675.707-.395.291c-1.476 1.083-2.958 2.069-4.446 3.06l-.413.276 1.345 2.017.412-.275c1.48-.987 3.072-1.985 4.58-3.09l.405-.297zm-75.477.684a70.49 70.49 0 0 0 3.584 2.606l-.248.37a50.654 50.654 0 0 1-3.632-2.582zm75.262.684.296.393c-1.216.869-2.483 1.69-3.717 2.505l-.246-.37c1.218-.813 2.44-1.643 3.667-2.528zm-66.539 3.9-.238.445-.926 1.717.424.238a46.044 46.044 0 0 0 5.016 2.408l.44.18.993-2.158-.43-.215c-1.61-.805-3.286-1.495-4.837-2.367zm57.632.407-.436.23c-1.667.882-3.235 1.57-4.915 2.26l-.467.193.986 2.301.452-.186a58.62 58.62 0 0 0 5.102-2.402l.44-.233zm-57.225.928c1.338.716 2.7 1.326 3.998 1.956l-.18.393a45.018 45.018 0 0 1-4.039-1.939zm56.806.383.225.422a57.489 57.489 0 0 1-4.12 1.94l-.204-.475a55.609 55.609 0 0 0 4.1-1.887zm-47.397 2.495-.167.465-.666 1.866.48.16c1.801.6 3.603 1.101 5.405 1.502l.457.1.663-2.318-.48-.134c-1.802-.5-3.58-.895-5.227-1.476zm37.93.296-.492.163c-1.759.586-3.427.978-5.209 1.374l-.48.106.501 2.33.463-.073c1.921-.303 3.734-.81 5.442-1.412l.44-.155zm-37.318.938c1.423.47 2.88.838 4.332 1.228l-.124.438a53.402 53.402 0 0 1-4.37-1.215zm36.64.298.124.434a29.743 29.743 0 0 1-4.364 1.132l-.091-.423c1.449-.326 2.867-.68 4.331-1.143zm-26.863 1.033-.066.48-.267 1.994.507.054c1.883.198 3.679.398 5.581.498l.522.027v-2.48l-.47-.027c-1.766-.098-3.541-.293-5.327-.492zm17.018.099-.48.054c-1.767.196-3.544.294-5.33.393l-.501.03.168 2.477.489-.027c1.784-.1 3.677-.2 5.482-.401l.505-.054zm-16.164.984a97.55 97.55 0 0 0 4.43.412v.492a104.949 104.949 0 0 1-4.495-.402zm15.308.09.068.504c-1.457.147-2.962.24-4.432.322l-.035-.498a97.23 97.23 0 0 0 4.4-.327z"/></svg>
