<svg xmlns="http://www.w3.org/2000/svg" viewBox="0 0 128 128"><path d="M9.211 0H118.79a9.084 9.084 0 019.103 9.104v109.792A9.084 9.084 0 01118.79 128H9.21a9.084 9.084 0 01-9.103-9.104V9.104A9.084 9.084 0 019.21 0z" fill="#005f0f"/><path d="M109.017 17.453C93.28 36.737 74.06 52.889 53.564 66.89c-6.663 4.77-14.018 9.015-19.141 15.546-1.957 3.437-2.429 8.278.916 11.067 5.571 5.25 14.248 6.392 21.227 3.453 9.77-3.721 16.519-12.193 22.191-20.59 12.658-18.236 20.335-39.211 30.26-58.914z" fill="#fff"/><path d="M99.991 24.121C80.397 39.646 64.725 48.036 44.686 55.254c-6.048 2.588-12.53 5.872-15.339 12.222-2.892 6.007-1.944 14.385 1.374 19.948-.248-2.342 1.003-6.125 2.864-7.901 6.176-6.878 14.22-11.384 21.296-16.607l.017-.014.017-.012C71.29 51.644 86.643 38.793 99.99 24.121z" fill="#aea99f"/></svg>
