<svg xmlns="http://www.w3.org/2000/svg" viewBox="0 0 128 128">
  <rect width="128" height="128" rx="9.42" ry="9.42" fill="#005f0f" />
  <path
    d="M109.16,17.34s-14.2,30.06-19.27,40.62-13.76,23.45-19.38,29.17-12.22,10.35-18.61,11.23-13.21-1.1-16.29-4.51-3.08-5.06-2.64-7.93,2.53-5.28,5.5-8.04,11.34-8.48,17.83-12.99,19.93-14.42,26.97-20.92,14.53-13.32,25.87-26.64Z"
    fill="#fff" />
  <path
    d="M100.35,23.84s-12.55,13.43-21.69,21.03c-9.14,7.6-17.17,13.72-25.21,19.13s-11.34,7.84-13.98,9.93-6.17,5.61-7.38,7.49-1.43,3.63-1.43,5.94c0,0-2.09-3.63-2.86-7.93s-.22-8.81,1.43-12.22,3.52-5.17,6.39-7.16,5.06-3.19,8.15-4.46,8.04-2.92,12.22-4.68,10.02-4.51,13.1-6.17,16.07-8.48,31.27-20.92Z"
    fill="#aea99f" />
</svg>
