<svg xmlns="http://www.w3.org/2000/svg" viewBox="0 0 128 128"><path fill="#000000" d="M43.324 20.502C19.41 20.502 0 39.992 0 64s19.41 43.498 43.324 43.498c6.916 0 13.438-1.66 19.23-4.56 1.972-.987 2.316-3.67.784-5.21L30.723 64.987a1.384 1.384 0 0 1 0-1.972L63.338 30.27c1.532-1.538 1.187-4.224-.783-5.21a42.816 42.816 0 0 0-19.23-4.559zm42.344.98c-.863 0-1.725.328-2.377.983L44.313 61.6a3.39 3.39 0 0 0 0 4.763l38.974 39.131a3.37 3.37 0 0 0 4.756 0l38.978-39.133a3.393 3.393 0 0 0 0-4.765L88.047 22.465a3.348 3.348 0 0 0-2.379-.983zm-42.344.989a40.831 40.831 0 0 1 18.35 4.351c.806.404.928 1.397.27 2.059L29.327 61.625a3.38 3.38 0 0 0 0 4.75l32.613 32.742c.66.662.538 1.656-.267 2.059a40.833 40.833 0 0 1-18.35 4.353C20.48 105.53 1.97 86.95 1.97 64c0-22.948 18.51-41.53 41.355-41.53zm42.344.968c.353 0 .708.14.984.416l38.975 39.131c.553.555.553 1.43 0 1.985l-38.979 39.134a1.37 1.37 0 0 1-1.966 0l-38.975-39.13a1.397 1.397 0 0 1 0-1.987l38.979-39.133c.276-.277.629-.416.982-.416z"/></svg>
