<svg xmlns="http://www.w3.org/2000/svg" viewBox="0 0 128 128"><g fill="#000000"><path d="M84.297 22.523a2.407 2.407 0 0 1 3.413 0l39.583 39.741a2.43 2.43 0 0 1 0 3.428l-39.586 39.744a2.407 2.407 0 0 1-3.414 0l-39.582-39.74a2.43 2.43 0 0 1 0-3.428z"/><path d="M29.494 65.707a2.419 2.419 0 0 1 0-3.414L62.616 29.04c1.113-1.117.876-2.986-.533-3.692a42.478 42.478 0 0 0-19.084-4.524C19.255 20.824 0 40.156 0 64s19.255 43.176 42.999 43.176a42.479 42.479 0 0 0 19.083-4.526c1.41-.705 1.647-2.574.534-3.691z"/></g></svg>
