<svg xmlns="http://www.w3.org/2000/svg" viewBox="0 0 128 128"><path fill="#2a004e" d="M23.248 52.56a.664.664 0 0 1 .942 0l10.917 10.961a.67.67 0 0 1 0 .946L24.189 75.428a.664.664 0 0 1-.941 0L12.33 64.468a.67.67 0 0 1 0-.946z"/><path fill="#f14a00" d="M8.134 64.47a.667.667 0 0 1 0-.94l9.135-9.172c.307-.308.241-.824-.147-1.018a11.716 11.716 0 0 0-5.264-1.248C5.31 52.092 0 57.424 0 64s5.31 11.908 11.86 11.908c1.892 0 3.677-.454 5.263-1.248.388-.195.454-.71.147-1.018z"/><path fill="#000" d="M47.78 70.335c-.171 0-.257-.085-.257-.256V58.936h-3.415c-.171 0-.256-.085-.256-.256v-2.07c0-.172.085-.257.256-.257h9.777c.17 0 .256.085.256.256v2.07c0 .172-.085.257-.256.257H50.49v11.143c0 .171-.093.256-.278.256zm9.262 3.95c-.1 0-.171-.036-.214-.107a.226.226 0 0 1 0-.192l1.303-3.693-3.65-10.204c-.072-.214 0-.32.213-.32h2.561c.171 0 .27.078.3.234l1.195 3.928c.128.441.249.918.362 1.43.129.513.242 1.025.342 1.538h.064c.114-.513.228-1.018.342-1.516l.363-1.452 1.216-3.928c.029-.156.128-.234.3-.234h2.518c.214 0 .285.106.214.32L59.625 74.07c-.057.143-.157.214-.299.214zm14.346-3.715c-.442 0-.94-.064-1.495-.192a5.259 5.259 0 0 1-1.43-.534l-.043-2.198c.342.185.69.327 1.046.427.356.085.683.128.982.128.541 0 .94-.164 1.196-.491.256-.342.384-.84.384-1.495v-2.583c0-.54-.092-.939-.277-1.195-.186-.27-.499-.406-.94-.406-.384 0-.775.121-1.174.363a6.723 6.723 0 0 0-1.238 1.004l-.235-1.858c.37-.37.747-.704 1.132-1.003a5.43 5.43 0 0 1 1.238-.726 3.934 3.934 0 0 1 1.494-.277c.968 0 1.686.284 2.156.854.484.569.726 1.458.726 2.668v3.373c0 1.423-.299 2.47-.897 3.138-.597.669-1.473 1.003-2.625 1.003zm-5.21 3.715c-.17 0-.255-.086-.255-.256V62.416c0-.413-.015-.819-.043-1.217a25.739 25.739 0 0 0-.064-1.132c-.028-.199.057-.298.256-.298h2.05c.156 0 .249.078.277.234l.107.79c.042.3.064.562.064.79l.235 1.132v11.314c0 .17-.086.256-.257.256zM81.39 70.57c-1.58 0-2.747-.341-3.501-1.024s-1.131-1.708-1.131-3.074v-2.605c0-1.409.377-2.483 1.13-3.223.77-.74 1.915-1.11 3.438-1.11 1.523 0 2.668.356 3.437 1.067.782.712 1.174 1.765 1.174 3.16v1.686c0 .17-.093.256-.278.256h-6.062v.811c0 .627.135 1.096.405 1.41.285.298.74.448 1.367.448.498 0 .882-.086 1.152-.257.27-.185.406-.448.406-.79 0-.156.092-.234.277-.234h2.263c.157 0 .242.078.256.235.015 1.081-.341 1.892-1.067 2.433-.712.54-1.8.811-3.266.811zm-1.793-6.575h3.5v-.277c0-.683-.142-1.181-.426-1.494-.27-.314-.705-.47-1.302-.47-.612 0-1.06.156-1.345.47-.285.313-.427.81-.427 1.494zm13.912 6.575c-1.85 0-3.252-.448-4.206-1.345-.939-.91-1.409-2.227-1.409-3.949v-3.842c0-1.737.47-3.053 1.41-3.95.953-.91 2.355-1.366 4.205-1.366 1.836 0 3.223.456 4.162 1.366.954.897 1.43 2.213 1.43 3.95v3.842c0 1.722-.476 3.039-1.43 3.95-.939.896-2.326 1.344-4.162 1.344zm0-2.604c.882 0 1.544-.242 1.985-.726.441-.484.662-1.202.662-2.156v-3.48c0-.967-.22-1.686-.662-2.156-.441-.483-1.103-.725-1.985-.725-.883 0-1.544.242-1.986.725-.44.47-.661 1.189-.661 2.156v3.48c0 .954.22 1.672.661 2.156.442.484 1.103.726 1.986.726zm8.282 2.37c-.185 0-.278-.086-.278-.257V56.61c0-.17.093-.256.278-.256h4.482c1.836 0 3.174.363 4.014 1.089.84.726 1.26 1.8 1.26 3.223 0 .968-.2 1.786-.599 2.455-.398.669-1.024 1.132-1.878 1.388l-.021.042 3.223 5.465c.057.086.064.164.021.235-.028.057-.092.085-.192.085h-2.754a.335.335 0 0 1-.299-.17l-2.903-5.209h-1.665v5.123c0 .171-.085.256-.256.256zm2.69-7.707h1.75c.811 0 1.402-.15 1.772-.448.384-.313.576-.797.576-1.452 0-.654-.178-1.124-.534-1.409-.356-.299-.932-.448-1.729-.448h-1.836zm9.666 7.706c-.185 0-.278-.085-.278-.256l.278-13.47c0-.17.085-.256.256-.256h2.946c.142 0 .242.064.299.192l3.287 7.386 3.266-7.386a.302.302 0 0 1 .299-.192h2.967c.157 0 .235.085.235.256l.299 13.47c0 .171-.085.256-.256.256h-2.391c-.185 0-.278-.085-.278-.256l-.106-5.849a39.564 39.564 0 0 1 0-1.836c.028-.612.057-1.195.085-1.75h-.064a47.546 47.546 0 0 1-.704 1.644 42.828 42.828 0 0 1-.748 1.622l-2.262 4.782c-.057.114-.157.17-.3.17h-.106a.289.289 0 0 1-.277-.17l-2.285-4.803a33.629 33.629 0 0 1-.747-1.601 64.448 64.448 0 0 0-.683-1.644h-.064c.029.555.057 1.138.085 1.75.029.612.036 1.217.022 1.815l-.128 5.87c0 .171-.093.256-.278.256z"/></svg>
