<?xml version="1.0" standalone="no"?>
<!DOCTYPE svg PUBLIC "-//W3C//DTD SVG 1.0//EN" "http://www.w3.org/TR/2001/REC-SVG-20010904/DTD/svg10.dtd">
<svg xmlns="http://www.w3.org/2000/svg" xmlns:xlink="http://www.w3.org/1999/xlink" id="body_1" width="128" height="128">

<g transform="matrix(0.58715594 0 0 0.58715594 0 0)">
    <path d="M0 65.514C 0 75.133 6.24 83.257 14.884 86.182L14.884 86.182L15.0789995 86.247L15.664 86.442L91.381004 109.515C 91.901 109.71 92.48601 109.84 93.07101 109.84C 94.50299 109.84373 95.877396 109.27653 96.88996 108.263954C 97.902534 107.25139 98.469734 105.87698 98.466 104.445C 98.466 102.495 97.426 100.805 95.866005 99.83L95.866005 99.83L35.876003 48.875C 32.106003 45.625 27.167004 43.675 21.773003 43.675C 9.749 43.676 0 53.49 0 65.515L0 65.515L0 65.514z" stroke="none" fill="#FFFFFF" fill-rule="nonzero" />
    <path d="M83.582 2.535L10.204002 47.055C 4.094 50.89 0 57.716 0 65.514C 0 77.538 9.75 87.352 21.773 87.352C 27.297 87.352 32.302002 85.271996 36.137 81.892L36.137 81.892L101.845 28.336998C 102.04 28.206999 102.17 28.076998 102.365 27.881998C 105.744995 24.957998 107.89 20.667997 107.89 15.857998C 107.89 7.085 100.805 0 92.031 0C 88.977 0 86.050995 0.975 83.582 2.535z" stroke="none" fill="#FFFFFF" fill-rule="nonzero" />
    <path d="M76.303 15.858C 76.303 20.668 78.448 25.022999 81.827 27.882L81.827 27.882L82.022 28.077L200.181 127.647995C 202.066 129.208 204.406 130.118 207.07 130.118C 212.985 130.118 217.729 125.308 217.729 119.394C 217.729 116.404 216.494 113.673996 214.545 111.724L214.545 111.724L103.34 4.68C 100.48 1.82 96.516 0 92.161 0C 87.953575 -0.005317688 83.91694 1.663722 80.94183 4.6388283C 77.96673 7.6139336 76.29768 11.650568 76.303 15.858z" stroke="none" fill="#FFFFFF" fill-rule="nonzero" />
    <path d="M200.831 110.815L66.229 176.523C 59.143997 180.09799 54.334995 187.442 54.334995 195.957C 54.334995 207.98 64.08399 217.73 76.107994 217.73C 80.852 217.73 85.20699 216.17 88.782 213.635L88.782 213.635L213.245 128.233C 216.039 126.283005 217.859 123.098 217.859 119.459C 217.859 113.544 213.04999 108.735 207.2 108.735C 204.731 108.735 202.586 109.515 200.831 110.815z" stroke="none" fill="#FFFFFF" fill-rule="nonzero" />
    <path d="M152.411 65.319L65.319 65.319L65.319 152.41101L152.41101 152.41101L152.41101 65.319L152.411 65.319z" stroke="none" fill="#010101" fill-rule="nonzero" />
    <path d="M107.5 136.097L74.808 136.097L74.808 141.557L107.5 141.557L107.5 136.097zM73.443 87.807L75.848 85.532C 76.498 86.312 77.148 86.767 77.993 86.767C 78.903 86.767 79.55299 86.117 79.55299 84.881996L79.55299 84.881996L79.55299 76.301994L83.32299 76.301994L83.32299 84.94699C 83.32299 86.63699 82.86699 87.871994 81.95699 88.78099C 81.04699 89.690994 79.812 90.14599 78.25299 90.14599C 75.84799 90.080986 74.41799 89.10599 73.44299 87.80599zM84.947 76.237L95.93 76.237L95.93 79.423L88.716 79.423L88.716 81.503L95.215004 81.503L95.215004 84.492L88.715004 84.492L88.715004 86.63699L95.995 86.63699L95.995 89.82099L84.945 89.82099L84.945 76.239zM101.259995 79.553L97.16599 79.553L97.16599 76.238L109.05999 76.238L109.05999 79.552L105.02999 79.552L105.02999 89.82201L101.259995 89.82201L101.259995 79.552zM74.938 95.215L81.372 95.215C 83.062004 95.215 84.297005 95.67 85.077 96.45C 85.597 97.034996 85.922005 97.75 85.922005 98.659996L85.922005 98.659996L85.922005 98.725C 85.922005 100.284996 85.012 101.258995 83.842 101.779C 85.467 102.298996 86.57201 103.274 86.57201 105.094L86.57201 105.094L86.57201 105.159004C 86.57201 107.499 84.687004 108.929 81.437004 108.929L81.437004 108.929L75.003006 108.929L75.003006 95.216L74.938 95.216zM82.218 99.375C 82.218 98.595 81.632 98.205 80.528 98.205L80.528 98.205L78.642 98.205L78.642 100.61L80.462 100.61C 81.567 100.61 82.216995 100.22 82.216995 99.375zM80.918 103.274L78.578 103.274L78.578 105.809006L80.918 105.809006C 82.088 105.809006 82.738 105.354004 82.738 104.574005L82.738 104.574005L82.738 104.509C 82.802 103.729004 82.218 103.274 80.918 103.274zM87.742 95.215004L93.785995 95.215004C 95.866 95.215004 97.296 95.735 98.20599 96.645004C 98.98599 97.425 99.440994 98.465004 99.440994 99.83L99.440994 99.83L99.440994 99.895004C 99.440994 101.97401 98.33599 103.339005 96.645996 104.119L96.645996 104.119L99.895996 108.864006L95.54 108.864006L92.81 104.769005L91.575 104.769005L91.575 108.864006L87.805 108.864006L87.805 95.216L87.741 95.216zM93.656 101.714005C 94.891 101.714005 95.671 101.065 95.671 100.090004L95.671 100.090004L95.671 100.025C 95.671 98.92 94.891 98.4 93.656 98.4L93.656 98.4L91.576 98.4L91.576 101.714005L93.656 101.714005z" stroke="none" fill="#FFFFFF" fill-rule="nonzero" />
    <path d="M104.64 95.086L108.28 95.086L114.063995 108.799995L110.034996 108.799995L109.06 106.329994L103.795 106.329994L102.82 108.799995L98.92 108.799995L104.64 95.086zM107.955 103.405L106.46 99.57L104.9 103.405L107.955 103.405zM118.419 95.151L114.649 95.151L114.649 108.735L118.419 108.735L118.419 95.151zM119.849 95.151L123.358 95.151L128.298 102.365L128.298 95.151L132.002 95.151L132.002 108.735L128.688 108.735L123.618004 101.325L123.618004 108.735L119.84901 108.735L119.84901 95.151zM132.652 106.72L134.732 104.185C 136.097 105.225 137.592 105.81 139.152 105.81C 140.19199 105.81 140.71199 105.485 140.71199 104.899994L140.71199 104.899994L140.71199 104.83499C 140.71199 104.24999 140.25699 103.98999 138.372 103.53499C 135.44699 102.88499 133.237 102.039986 133.237 99.31099L133.237 99.31099L133.237 99.24599C 133.237 96.71098 135.252 94.89098 138.502 94.89098C 140.842 94.89098 142.596 95.540985 144.091 96.71098L144.091 96.71098L142.20601 99.375984C 140.97202 98.46598 139.60701 98.01099 138.37201 98.01099C 137.462 98.01099 137.007 98.400986 137.007 98.85599L137.007 98.85599L137.007 98.92099C 137.007 99.57099 137.462 99.83099 139.347 100.22099C 142.466 100.870995 144.416 101.909996 144.416 104.44499L144.416 104.44499L144.416 104.509995C 144.416 107.30499 142.206 108.92999 138.892 108.92999C 136.617 108.994995 134.342 108.215 132.652 106.71999z" stroke="none" fill="#FFFFFF" fill-rule="nonzero" />
</g>
</svg>