<svg xmlns="http://www.w3.org/2000/svg" viewBox="0 0 128 128"><path fill="#0a094d" d="M114.33 75.056c.136-.547-.375-1.063-.715-.723-.418.422-.703.25-.582-.347.07-.36.035-.563-.102-.563-.36 0-.23-.527.207-.836.23-.16.801-.293 1.27-.297.469 0 .98-.09 1.133-.203.218-.152.168-.176-.22-.09-.276.063-.734.024-1.01-.082-.38-.144-.645-.12-1.075.094-.715.355-.703.36-.703-.078 0-.25-.153-.383-.485-.422l-.48-.063.41-.437c.438-.469.914-.48 2.2-.066.84.27.769.004-.133-.504-.852-.477-1.434-1.137-3.598-4.07-2.305-3.118-2.469-3.52-2.57-6.153l-.086-2.203-1.196-1.402c-.656-.77-1.28-1.454-1.386-1.52-.106-.062-.618-.168-1.137-.23-1.067-.125-1.133-.278-.547-1.27.46-.789 1.07-.879 1.953-.293.313.207.692.367.848.363.176-.007.12-.09-.14-.218-.235-.11-.423-.262-.423-.336 0-.211 2.477-.375 3.2-.207 1.5.343 1.98.87 2.234 2.445.172 1.066.285 1.281 1.058 2.008.473.449 1.344 1.047 1.934 1.328s1.414.789 1.836 1.125c.992.789 2.547 3.062 3.078 4.492.23.621.512 1.238.625 1.379.309.371-.187.625-.988.5a13.79 13.79 0 0 0-1.598-.117c-.52-.008-1.055-.106-1.191-.215-.348-.281-1.266-2.363-1.434-3.242-.293-1.563-.855-2.14-2.832-2.91-1.418-.551-1.523-.637-2.285-1.825-.7-1.09-.832-1.91-.3-1.87.546.042.398-.688-.192-.97-.403-.195-.668-.203-1.153-.042-.418.136-.886.148-1.406.03-.426-.097-.777-.132-.777-.077 0 .05.437.57.973 1.152 1.562 1.711 1.687 1.988 1.546 3.461-.082.852-.05 1.352.098 1.531.121.145.203.336.184.422-.02.09.105.477.273.863.172.383.313.828.313.985 0 .16.132.289.296.289.22 0 .258.11.16.422-.113.351-.09.386.133.199.22-.18.313-.11.512.379.133.328.324.797.422 1.043.098.242.34.484.54.535.202.05.41.324.476.613.062.285.27.688.457.89.187.204.402.552.472.774.176.551 1.024 1.117 1.805 1.207.492.059.652.164.652.442 0 .199.098.343.215.32.121-.023.32.086.45.234.124.153.316.278.425.278.11 0 0-.211-.242-.469s-.39-.523-.324-.59c.066-.062.344.149.617.477.547.648 1.176 1.054 1.36.87.066-.062-.262-.44-.723-.843-.461-.398-.774-.789-.7-.867.079-.078.352.062.61.312 1.242 1.203 2.25 1.864 2.855 1.864.285 0 .282-.035-.02-.368-.179-.199-.277-.445-.214-.55a.217.217 0 0 0-.07-.301c-.102-.063-.578-.875-1.059-1.805-.48-.93-1.031-1.773-1.227-1.879-.699-.375-.324-.492 1.458-.457l1.816.04 1.562 1.663c.86.918 1.532 1.696 1.493 1.735-.036.039-.239-.02-.45-.133-.52-.281-.57-.262-.457.172.11.418-.129.496-.468.152-.125-.12-.29-.156-.368-.078-.078.082.36.606.977 1.164.66.602 1.047 1.082.938 1.176-.247.21-4.247-.055-4.739-.32-.219-.118-.742-.211-1.164-.211-.637 0-.765.062-.765.37 0 .755-.614 1.872-1.434 2.622-.465.422-.887.77-.934.77s-.035-.2.028-.438zm.902-1.223c-.082-.25-.062-.261.082-.054.152.207.242.171.477-.192.156-.246.312-.617.347-.82.051-.32-.027-.367-.504-.313-.671.078-1.199.336-1.644.797-.403.422-.414.547-.043.547.156 0 .426.168.598.371.367.426.855.188.687-.336zm-.656-.605c.469-.39.777-.473.777-.211 0 .152-.828.601-1.09.59-.07-.004.067-.176.313-.38zm6.515-2.625c-.066-.106-.203-.188-.304-.188-.106 0-.137.082-.07.188.062.101.199.187.3.187.106 0 .137-.086.074-.187zm-.582-2.371c.512-.196.329-.45-.242-.332-.308.058-.597.015-.668-.102-.176-.281-.535-.262-.437.023.043.13.281.29.531.36.254.07.473.137.488.144.02.012.168-.03.328-.093zm-1.77-.996c0-.09-.132-.22-.296-.282-.461-.175-.523-.136-.266.168.258.313.563.375.563.114zm-2.41-2.317c-.136-.137-.222-.148-.222-.027 0 .25.223.472.348.347.054-.054-.004-.199-.125-.32zm.508-.61c-.324-.32-1.546-1.042-1.628-.956-.059.054-.07.129-.028.16.043.031.324.246.621.473.446.335 1.325.613 1.035.324zm1.34-.476c0-.226-.691-.672-1.32-.847-.422-.122-.402-.079.191.441.66.582 1.13.75 1.13.406zm-1.847-3.05c-.137-.137-.223-.149-.223-.032 0 .254.223.473.348.348.054-.05-.004-.195-.125-.317zm-1.352-.985c0-.047-.086-.137-.187-.2-.106-.062-.188-.026-.188.083 0 .11.082.2.188.2.101 0 .187-.036.187-.083zm-2.527-.77c-.387-.289-.602-.242-.395.086.067.114.266.2.442.196.277-.004.273-.04-.047-.281zm-4.242-4.976a.196.196 0 0 0-.2-.191c-.109 0-.148.085-.086.191.067.102.157.187.2.187.047 0 .086-.085.086-.187zm-3.575-.191c0-.102-.191-.184-.425-.184-.34.004-.368.039-.141.184.367.238.566.238.566 0zm10.657 15.3c-.067-.07-.125-.25-.125-.402 0-.219.054-.227.28-.04.157.13.286.31.286.4 0 .195-.262.218-.441.042zm-2.579-2.867c-.355-.3-.578-.617-.496-.703.086-.086.243-.008.348.18.102.187.39.414.64.511.25.094.458.258.458.364 0 .32-.262.222-.95-.352zm-10.66-11.93-.605-.218.476-.614c.352-.449.633-.609 1.047-.609.313 0 .532.063.493.14-.04.079-.215.458-.395.844-.176.391-.34.7-.367.692a84.463 84.463 0 0 1-.649-.235zM20.498 34.126h.922c1.03 0 1.355.164 1.675.84.422.918.422.918.68.918h.371v-2.691c-.422.16-.758.207-1.277.207h-6.29c-.695 0-.968-.047-1.324-.207v2.691h.5c.16 0 .258-.129.34-.465.242-.984.676-1.293 1.805-1.293h1.016v8.762c0 .469-.11.613-.5.68l-.16.015c-.192.031-.29.13-.29.305v.277h3.485v-.277c0-.176-.098-.274-.258-.305l-.18-.015c-.386-.051-.515-.211-.515-.68zm6.281 4.133c.39-.535 1.164-.906 1.89-.906.45 0 .872.148 1.16.437.29.274.387.563.387 1.211v3.758c0 .582-.03.645-.468.758l-.078.035c-.165.047-.227.129-.227.32v.293h3.016v-.293c0-.191-.063-.304-.207-.32l-.13-.035c-.406-.113-.452-.176-.452-.758v-3.953c0-.711-.196-1.195-.645-1.547-.469-.371-1.18-.598-1.922-.598-.789 0-1.469.227-2.324.758v-4.066l-2.242.047v.293c0 .191.066.304.195.32l.145.035c.402.11.453.176.453.758v7.953c0 .582-.051.645-.453.758l-.145.035c-.129.016-.195.129-.195.32v.293h3.035v-.293c0-.191-.067-.289-.227-.32l-.113-.035c-.402-.113-.453-.176-.453-.758zm12.867 2.031v-.144c-.031-2.13-1.293-3.485-3.226-3.485-2.114 0-3.649 1.614-3.649 3.825 0 2.289 1.664 3.953 3.938 3.953 1.308 0 2.195-.47 3.066-1.614l-.516-.386c-.777.949-1.406 1.304-2.261 1.304-1.532 0-2.645-1.324-2.645-3.164v-.289zm-1.629-.726H34.42c.128-1.387.835-2.211 1.902-2.211 1.098 0 1.695.726 1.695 2.035zM7.572 69.614h2.34c1.008 0 1.84-.19 2.515-.562 1.18-.676 1.856-1.758 1.856-2.996 0-1.082-.5-1.953-1.586-2.707-.656-.465-1.235-.602-2.434-.602h-5.61v.328c0 .215.056.293.31.372l.117.035c.289.156.441.254.46.254.098.097.137.289.137.597v9.79c0 .577-.078.675-.597.812l-.098.02c-.234.058-.328.171-.328.367v.328h3.945v-.328c0-.235-.039-.29-.293-.368l-.094-.02c-.562-.136-.64-.234-.64-.812zm0-.87v-5.126h2.285c1.43 0 2.398 1.043 2.398 2.594 0 1.606-1.027 2.531-2.804 2.531zm9.493-1.915-2.712.059v.348c0 .23.04.347.156.367l.407.117c.347.117.386.191.386.852v5.394c0 .64-.02.695-.347.852l-.25.097c-.274.078-.352.153-.352.387v.348h3.832v-.348c0-.234-.117-.367-.308-.387l-.313-.039c-.48-.137-.539-.215-.52-.91v-.89c0-1.313.192-2.36.618-3.383.328-.774.773-1.317 1.101-1.317.078 0 .137.02.332.117.23.098.442.153.657.153.578 0 1.023-.407 1.023-.946 0-.601-.48-1.046-1.16-1.046-.559 0-1.043.292-1.567.93-.425.523-.656 1.007-.984 2.05zm7.726-.23c-1.352 0-2.418.441-3.344 1.41-.813.852-1.258 1.992-1.258 3.21 0 2.708 1.973 4.68 4.68 4.68 2.554 0 4.527-2.05 4.527-4.699 0-2.648-1.953-4.601-4.605-4.601zm.02.676c1.663 0 2.593 1.41 2.593 3.945 0 2.574-.91 4.004-2.555 4.004-1.738 0-2.668-1.488-2.668-4.215 0-2.324.989-3.734 2.63-3.734zm7.014 5.394c.485.176.95.254 1.548.254 2.05 0 3.695-1.488 3.695-3.328 0-.637-.254-1.297-.695-1.836-.332-.387-.332-.387-.332-.523 0-.176.117-.329.234-.329.04 0 .078.02.152.133a.831.831 0 0 0 .641.293c.484 0 .812-.328.812-.793 0-.504-.464-.89-1.046-.89-.715 0-1.18.425-1.41 1.316-.813-.406-1.376-.562-2.07-.562-2.165 0-3.829 1.449-3.829 3.328 0 1.101.52 1.972 1.547 2.59l-1.625 3.386v.02c-.02.078.039.133.117.133.04 0 .133-.02.309-.055 1.004-.195 1.992-.313 2.765-.313 2.11 0 3.348.621 3.348 1.645 0 .969-1.2 1.723-2.73 1.723-1.22 0-2.032-.29-2.032-.735 0-.039 0-.078.02-.117.039-.309.058-.406.058-.504 0-.48-.425-.851-1.004-.851-.62 0-1.066.406-1.066.988 0 1.101 1.625 1.894 3.89 1.894 2.59 0 4.43-1.199 4.43-2.902 0-1.621-1.664-2.668-4.238-2.668-.734 0-1.625.117-2.242.27zm1.509-5.59c1.12 0 1.879.989 1.879 2.516 0 1.625-.758 2.648-1.938 2.648-1.16 0-1.914-.984-1.914-2.53 0-1.587.773-2.634 1.973-2.634zm6.584-.249-2.707.059v.348c0 .23.04.347.153.367l.406.117c.348.117.387.191.387.852v5.394c0 .64-.02.695-.348.852l-.25.097c-.273.078-.348.153-.348.387v.348h3.829v-.348c0-.234-.118-.367-.31-.387l-.308-.039c-.484-.137-.543-.215-.523-.91v-.89c0-1.313.191-2.36.617-3.383.332-.774.774-1.317 1.106-1.317.074 0 .132.02.328.117.23.098.445.153.656.153.582 0 1.027-.407 1.027-.946 0-.601-.484-1.046-1.164-1.046-.558 0-1.043.292-1.566.93-.426.523-.656 1.007-.985 2.05zm11.676 7.93c-.215.176-.328.234-.504.234-.562 0-.812-.543-.812-1.761v-2.399c0-1.18-.192-2.242-.504-2.765-.52-.832-1.797-1.414-3.133-1.414-1.527 0-2.785.738-2.785 1.605 0 .504.406.871.969.871.558 0 .984-.406 1.043-1.004.058-.582.25-.793.793-.793.523 0 .988.25 1.336.735.308.425.386.832.464 2.129-3.597.367-5.457 1.449-5.457 3.19 0 1.509 1.278 2.59 3.059 2.59 1.082 0 1.66-.288 2.648-1.277.387.91.871 1.278 1.684 1.278.637 0 1.39-.446 1.39-.852a.352.352 0 0 0-.038-.133zm-3.058-3.54v.446c0 1.18-.075 1.817-.25 2.242-.348.754-1.043 1.239-1.817 1.239-.87 0-1.472-.676-1.472-1.684 0-1.45 1.238-2.36 3.539-2.629zm5.429-4.39-2.574.059v.348c0 .23.078.367.254.386l.152.04c.485.136.543.21.543.91v5.394c0 .695-.058.773-.543.91l-.152.04c-.176.019-.254.152-.254.386v.348h3.715v-.348c0-.234-.098-.367-.27-.387l-.214-.039c-.48-.137-.54-.215-.54-.91v-5.3c.54-.716 1.372-1.18 2.051-1.18.348 0 .715.136 1.024.386.425.332.562.7.562 1.567v4.527c0 .695-.058.773-.543.91l-.136.04c-.192.038-.27.152-.27.386v.348h3.656v-.348c0-.234-.097-.367-.273-.387L60 74.877c-.484-.137-.542-.215-.542-.91v-5.32c.484-.637 1.277-1.063 1.972-1.063.426 0 .91.176 1.18.446.293.289.406.675.406 1.41v4.527c0 .695-.059.773-.52.91l-.156.04c-.175.038-.25.152-.25.386v.348h3.617v-.348c0-.234-.078-.367-.234-.387l-.172-.039c-.484-.137-.543-.215-.543-.91v-4.602c0-.91-.136-1.375-.523-1.84-.445-.519-1.352-.87-2.262-.87-1.043 0-1.723.292-2.785 1.257-.523-.87-1.297-1.257-2.516-1.257-1.004 0-1.836.37-2.707 1.218zm14.559 0-2.574.059v.348c0 .23.078.367.25.386l.156.04c.484.136.543.21.543.91v5.394c0 .695-.059.773-.543.91l-.156.04c-.172.019-.25.152-.25.386v.348h3.715v-.348c0-.234-.098-.367-.27-.387l-.215-.039c-.484-.137-.543-.215-.543-.91v-5.3c.543-.716 1.375-1.18 2.051-1.18.348 0 .715.136 1.027.386.426.332.559.7.559 1.567v4.527c0 .695-.059.773-.54.91l-.136.04c-.195.038-.27.152-.27.386v.348h3.657v-.348c0-.234-.098-.367-.274-.387l-.152-.039c-.484-.137-.543-.215-.543-.91v-5.32c.484-.637 1.277-1.063 1.973-1.063.426 0 .91.176 1.18.446.288.289.406.675.406 1.41v4.527c0 .695-.059.773-.524.91l-.152.04c-.176.038-.254.152-.254.386v.348h3.617v-.348c0-.234-.074-.367-.23-.387l-.176-.039c-.48-.137-.54-.215-.54-.91v-4.602c0-.91-.136-1.375-.523-1.84-.445-.519-1.355-.87-2.261-.87-1.047 0-1.723.292-2.785 1.257-.524-.87-1.297-1.257-2.516-1.257-1.008 0-1.836.37-2.707 1.218zm14.672 0-2.688.059v.348c.078.289.098.328.29.386l.117.04c.503.136.539.21.539.91v5.394c0 .695-.055.773-.54.91l-.117.04c-.191.058-.21.097-.289.386v.348h3.637v-.348l-.059-.156c-.02-.059-.039-.098-.039-.114a.447.447 0 0 0-.21-.117l-.098-.039c-.485-.137-.543-.215-.543-.91zm-1.18-3.578c-.617 0-1.14.504-1.14 1.102 0 .64.503 1.16 1.14 1.16.621 0 1.121-.5 1.121-1.14 0-.618-.5-1.122-1.12-1.122zm4.945 3.578-2.574.059v.348c0 .23.078.328.309.386l.097.04c.504.136.543.21.543.91v5.394c0 .695-.058.773-.543.91l-.097.04c-.23.058-.309.152-.309.386v.348h3.676v-.348c0-.234-.098-.367-.27-.387l-.175-.039c-.485-.137-.54-.215-.54-.91v-5.375c.422-.66 1.294-1.105 2.067-1.105.563 0 1.105.195 1.434.503.308.31.406.735.406 1.684v4.293c0 .695-.059.773-.563.91l-.21.04c-.176.019-.274.152-.274.386v.348h3.734v-.348c0-.234-.078-.367-.23-.387l-.176-.039c-.484-.137-.543-.215-.543-.91v-4.758c0-.89-.133-1.336-.578-1.777-.523-.524-1.238-.777-2.281-.777-1.219 0-1.82.214-2.903 1.085zm9.199 5.84c.485.176.95.254 1.547.254 2.051 0 3.696-1.488 3.696-3.328 0-.637-.254-1.297-.695-1.836-.333-.387-.333-.387-.333-.523 0-.176.118-.329.235-.329.039 0 .078.02.152.133a.831.831 0 0 0 .64.293c.485 0 .813-.328.813-.793 0-.504-.465-.89-1.047-.89-.714 0-1.18.425-1.41 1.316-.812-.406-1.375-.562-2.07-.562-2.164 0-3.828 1.449-3.828 3.328 0 1.101.52 1.972 1.547 2.59l-1.625 3.386v.02c-.02.078.039.133.117.133.039 0 .133-.02.308-.055 1.004-.195 1.993-.313 2.766-.313 2.11 0 3.348.621 3.348 1.645 0 .969-1.2 1.723-2.73 1.723-1.22 0-2.032-.29-2.032-.735 0-.039 0-.078.02-.117.039-.309.058-.406.058-.504 0-.48-.426-.851-1.004-.851-.62 0-1.066.406-1.066.988 0 1.101 1.625 1.894 3.89 1.894 2.59 0 4.43-1.199 4.43-2.902 0-1.621-1.664-2.668-4.238-2.668-.734 0-1.625.117-2.242.27zm1.508-5.59c1.122 0 1.875.989 1.875 2.516 0 1.625-.753 2.648-1.933 2.648-1.16 0-1.914-.984-1.914-2.53 0-1.587.773-2.634 1.972-2.634zM55.782 90.05V79.544c0-.578.078-.676.597-.812l.098-.02c.234-.055.309-.152.309-.367v-.328H52.86v.328c0 .195.097.312.308.367l.118.02c.523.136.601.234.601.812v9.809c0 .52-.137.715-.601.851l-.118.02c-.25.074-.308.152-.308.367v.328h9.246v-3.25h-.484c-.25 0-.368.098-.446.426-.21.93-.347 1.18-.754 1.469-.425.308-1.199.484-2.183.484zm14.808-.02c-.21.175-.328.23-.504.23-.558 0-.812-.54-.812-1.758v-2.398c0-1.18-.192-2.242-.5-2.766-.524-.832-1.8-1.414-3.137-1.414-1.527 0-2.785.738-2.785 1.606 0 .503.406.87.969.87.562 0 .984-.406 1.043-1.003.058-.582.254-.793.793-.793.523 0 .988.25 1.336.734.308.426.386.832.465 2.125C63.86 85.834 62 86.916 62 88.658c0 1.508 1.278 2.59 3.06 2.59 1.081 0 1.663-.289 2.647-1.277.387.91.872 1.277 1.684 1.277.637 0 1.39-.445 1.39-.851a.354.354 0 0 0-.034-.137zm-3.054-3.54v.446c0 1.18-.079 1.816-.254 2.242-.348.754-1.043 1.238-1.817 1.238-.87 0-1.472-.676-1.472-1.683 0-1.45 1.238-2.36 3.543-2.63zm5.425-4.39-2.57.058v.348c0 .23.074.328.309.387l.097.039c.5.133.54.21.54.91v5.395c0 .695-.06.773-.54.91l-.097.039c-.235.058-.309.152-.309.386v.348h3.672v-.347c0-.235-.094-.368-.27-.387l-.171-.04c-.485-.136-.543-.214-.543-.91v-5.374c.425-.66 1.296-1.106 2.07-1.106.558 0 1.101.195 1.43.504.308.309.406.734.406 1.684v4.293c0 .695-.059.773-.559.91l-.215.039c-.175.02-.27.152-.27.386v.348h3.731v-.347c0-.235-.074-.368-.23-.387l-.176-.04c-.48-.136-.539-.214-.539-.91V84.48c0-.89-.137-1.336-.582-1.782-.52-.519-1.238-.773-2.281-.773-1.219 0-1.82.215-2.903 1.086zm9.199 5.84c.485.175.95.254 1.547.254 2.051 0 3.696-1.493 3.696-3.329 0-.636-.25-1.296-.695-1.835-.329-.387-.329-.387-.329-.524 0-.176.114-.328.23-.328.04 0 .079.02.157.133.133.176.387.293.637.293.484 0 .812-.332.812-.793 0-.504-.465-.89-1.043-.89-.715 0-1.18.425-1.414 1.316-.812-.407-1.37-.563-2.07-.563-2.164 0-3.828 1.45-3.828 3.328 0 1.102.523 1.973 1.547 2.59l-1.625 3.387v.02c-.02.074.039.132.117.132.039 0 .137-.02.308-.059 1.008-.19 1.993-.308 2.766-.308 2.11 0 3.348.621 3.348 1.644 0 .97-1.2 1.723-2.727 1.723-1.219 0-2.031-.289-2.031-.734 0-.04 0-.078.02-.117.039-.31.058-.407.058-.504 0-.485-.426-.852-1.008-.852-.617 0-1.062.406-1.062.988 0 1.102 1.625 1.895 3.886 1.895 2.594 0 4.43-1.2 4.43-2.902 0-1.625-1.664-2.668-4.234-2.668-.738 0-1.625.117-2.246.27zm1.512-5.59c1.121 0 1.875.988 1.875 2.515 0 1.625-.754 2.649-1.933 2.649-1.16 0-1.918-.984-1.918-2.531 0-1.586.777-2.633 1.976-2.633zm10.571 8.57h2.726v-.347c0-.235-.074-.348-.27-.387l-.136-.04c-.48-.136-.54-.214-.54-.91V82.1l-2.784.058v.348c0 .23.094.367.27.387l.175.039c.48.133.54.21.54.91v5.414c-.946.715-1.372.89-2.071.89-.637 0-1.235-.214-1.547-.542-.29-.328-.367-.617-.367-1.547V82.1l-2.688.058v.348c0 .23.098.367.25.387l.156.039c.485.133.543.21.543.91v4.602c0 1.683 1.141 2.726 2.938 2.726.988 0 2.07-.406 2.805-1.062zm11.177-.89c-.211.175-.329.23-.5.23-.563 0-.813-.54-.813-1.758v-2.398c0-1.18-.195-2.242-.504-2.766-.523-.832-1.8-1.414-3.133-1.414-1.527 0-2.785.738-2.785 1.606 0 .503.406.87.965.87.563 0 .988-.406 1.047-1.003.058-.582.25-.793.793-.793.52 0 .984.25 1.332.734.312.426.387.832.465 2.125-3.598.371-5.453 1.453-5.453 3.195 0 1.508 1.277 2.59 3.054 2.59 1.086 0 1.664-.289 2.653-1.277.386.91.867 1.277 1.68 1.277.64 0 1.394-.445 1.394-.851 0-.04-.02-.098-.04-.137zm-3.055-3.54v.446c0 1.18-.078 1.816-.25 2.242-.348.754-1.047 1.238-1.82 1.238-.872 0-1.47-.676-1.47-1.683 0-1.45 1.24-2.36 3.54-2.63zm5.385 1.45c.48.175.946.254 1.547.254 2.051 0 3.696-1.493 3.696-3.329 0-.636-.254-1.296-.7-1.835-.328-.387-.328-.387-.328-.524 0-.176.118-.328.235-.328.035 0 .074.02.152.133a.831.831 0 0 0 .64.293c.481 0 .813-.332.813-.793 0-.504-.465-.89-1.047-.89-.715 0-1.18.425-1.41 1.316-.812-.407-1.375-.563-2.07-.563-2.168 0-3.832 1.45-3.832 3.328 0 1.102.523 1.973 1.55 2.59l-1.624 3.387v.02c-.02.074.039.132.113.132.039 0 .137-.02.312-.059 1.004-.19 1.993-.308 2.766-.308 2.105 0 3.344.621 3.344 1.644 0 .97-1.2 1.723-2.727 1.723-1.219 0-2.031-.289-2.031-.734 0-.04 0-.078.02-.117.038-.31.058-.407.058-.504 0-.485-.426-.852-1.008-.852-.617 0-1.062.406-1.062.988 0 1.102 1.625 1.895 3.886 1.895 2.594 0 4.43-1.2 4.43-2.902 0-1.625-1.664-2.668-4.234-2.668-.735 0-1.625.117-2.242.27zm1.508-5.59c1.121 0 1.875.988 1.875 2.515 0 1.625-.754 2.649-1.933 2.649-1.16 0-1.914-.984-1.914-2.531 0-1.586.773-2.633 1.972-2.633zm12.002 3.926v-.172c-.039-2.555-1.547-4.18-3.867-4.18-2.535 0-4.371 1.938-4.371 4.586 0 2.746 1.992 4.738 4.719 4.738 1.566 0 2.629-.562 3.675-1.933l-.62-.465c-.93 1.14-1.684 1.566-2.708 1.566-1.836 0-3.172-1.586-3.172-3.789v-.351zm-1.953-.868h-4.312c.152-1.664 1.003-2.652 2.28-2.652 1.317 0 2.032.871 2.032 2.438zM45.856 40.626 39.418 56.38c-.675 1.457-1.117 1.965-1.863 2.137-.574.168-.746.336-.746.71v.645h5.727v-.644c0-.34-.133-.477-.543-.61-.844-.273-1.118-.507-1.118-1.086 0-.304.102-.71.407-1.492l.949-2.472h8.91l1.152 2.812c.239.578.375 1.086.375 1.39 0 .407-.238.61-1.015.848-.512.133-.68.27-.68.61v.644h7.219v-.644c0-.305-.102-.442-.375-.543-.98-.305-1.082-.406-1.66-1.594l-8.438-20.293c-.066-.203-.101-.238-.168-.238-.066 0-.066 0-.34.168l-1.726 1.05c-.305.204-.477.407-.477.579 0 .066.035.168.07.304zm4.61 11.418h-7.59l3.792-9.387zm18.511-6.742 4.95 14.906h1.32l6.335-19.515c.711-1.864.747-1.93 1.829-2.305.238-.031.34-.168.34-.406v-.711h-5.254v.71c0 .274.207.477.543.544.812.136 1.085.34 1.085.78 0 .372-.171 1.118-.44 1.997l-4.306 13.316-4.707-14.164c-.203-.64-.203-.64-.203-.879 0-.543.168-.68 1.219-.984.406-.133.574-.305.574-.61v-.71h-6.808v.71c0 .305.203.477.543.544.812.136 1.015.34 1.285 1.289l.847 2.675-3.93 11.79-4.472-13.586-.168-.543c-.137-.371-.172-.508-.172-.676 0-.508.309-.848.817-.914.777-.137.945-.239.945-.578v-.711h-6.774v.71c0 .239.102.376.336.477.883.27 1.086.473 1.426 1.59l6.606 20.16h1.289zm17.191 1.828v-7.184c0-1.015.137-1.183 1.016-1.421l.137-.036c.441-.132.543-.27.543-.64v-.578H81.05v.578s.035.066.274.437c.03.07.132.137.336.203l.203.036c.847.238.984.441.984 1.421v17.247c0 1.02-.137 1.187-1.05 1.425l-.169.032c-.406.101-.578.304-.578.644v.578h6.813v-.578c0-.37-.102-.508-.543-.644l-.137-.032c-.879-.238-1.016-.406-1.016-1.425v-9.079l8.266 9.012c.238.305.375.543.375.746 0 .407-.305.61-1.117.778-.406.07-.543.238-.543.644v.578h8.133v-.578c0-.473-.07-.574-.614-.71-.742-.204-.878-.27-1.93-1.458l-9.554-10.469 6.945-6.37c.442-.372.883-.747 1.32-1.083.204-.172.848-.476 1.051-.543 1.223-.34 1.223-.34 1.223-.644v-.746h-7.219v.746c0 .304.168.472.711.574.813.172 1.086.34 1.086.645 0 .238-.375.812-.68 1.117z"/></svg>
