<svg xmlns="http://www.w3.org/2000/svg" viewBox="0 0 128 128"><g fill="#205081"><path d="M20.795 111.42c-4.277 0-6.538 2.054-6.538 5.94v3.665c0 3.887 2.26 5.942 6.538 5.942 4.277 0 6.538-2.055 6.538-5.942v-3.664c0-3.886-2.26-5.94-6.538-5.94zm-2.46 5.822c0-1.6.736-2.282 2.46-2.282 1.725 0 2.46.682 2.46 2.282v3.903c0 1.6-.735 2.282-2.46 2.282s-2.46-.682-2.46-2.282v-3.903zm20.058-5.822c-1.614 0-3.813.556-5.67 1.428l-.223-.76a.516.516 0 00-.495-.37H29.75a.516.516 0 00-.516.515v13.92c0 .285.23.516.516.516h3.046a.517.517 0 00.516-.517v-9.64c1.097-.56 2.64-1.136 3.563-1.136.686 0 .94.255.94.94v9.836c0 .285.232.516.517.516h3.046a.517.517 0 00.516-.517V115.93c-.002-2.993-1.18-4.51-3.5-4.51zm14.483-5.478c-.82-.21-1.766-.325-2.66-.325-3.256 0-4.84 1.544-4.84 4.72v1.805h-1.69a.516.516 0 00-.516.516v2.3c0 .286.23.516.516.516h1.69v10.68c0 .284.232.515.517.515h3.046a.517.517 0 00.515-.517v-10.68h2.99c.27 0 .496-.208.515-.477v-2.3a.516.516 0 00-.514-.554h-2.992v-1.596c0-1.112.214-1.507 1.418-1.507.372 0 .94.057 1.48.15a.514.514 0 00.598-.438l.31-2.24a.514.514 0 00-.384-.57zm5.506.075h-3.046a.516.516 0 00-.516.516v19.62c0 .286.23.517.516.517h3.046c.285 0 .516-.23.516-.516v-19.62a.515.515 0 00-.516-.517zm14.918 5.7h-3.045a.516.516 0 00-.516.516v9.64c-1.098.56-2.64 1.136-3.564 1.136-.686 0-.94-.256-.94-.942v-9.835a.516.516 0 00-.517-.516h-3.047a.516.516 0 00-.516.516v10.222c0 2.994 1.177 4.51 3.5 4.51 1.613 0 3.812-.556 5.67-1.428l.223.76c.064.22.266.37.495.37H73.3c.285 0 .516-.23.516-.515v-13.92a.516.516 0 00-.515-.515zm8.528-.297c-4.082 0-6.24 2.033-6.24 5.88v3.844c0 3.972 2.02 5.822 6.36 5.822 1.767 0 3.65-.31 5.165-.848a.515.515 0 00.332-.59l-.45-2.18a.516.516 0 00-.645-.39c-1.398.395-2.73.587-4.075.587-2.22 0-2.61-.717-2.61-2.222v-.524h7.56a.517.517 0 00.515-.517v-2.803c0-4.135-1.88-6.06-5.912-6.06zm-2.163 6.018v-.494c0-1.435.696-2.103 2.192-2.103 1.652 0 1.984.805 1.984 2.104v.494h-4.175zm19.079-6.018c-1.614 0-3.813.556-5.67 1.428l-.224-.76a.515.515 0 00-.495-.37H90.1a.516.516 0 00-.517.515v13.92c0 .285.23.516.516.516h3.045a.517.517 0 00.516-.517v-9.64c1.098-.56 2.64-1.136 3.564-1.136.686 0 .94.255.94.94v9.836c0 .285.232.516.517.516h3.047a.517.517 0 00.516-.517V115.93c0-2.993-1.177-4.51-3.5-4.51zm15.229 12.096a.515.515 0 00-.626-.427c-.874.2-1.79.305-2.65.305-1.932 0-2.49-.492-2.49-2.192v-4.022c0-1.7.56-2.19 2.49-2.19.532 0 1.677.08 2.65.303a.52.52 0 00.626-.426l.362-2.41a.515.515 0 00-.364-.57c-1.172-.347-2.543-.47-3.362-.47-4.6 0-6.478 1.68-6.478 5.794v3.963c0 4.114 1.877 5.793 6.478 5.793 1.12 0 2.41-.18 3.366-.467a.516.516 0 00.36-.57l-.36-2.414zm7.717-12.096c-4.082 0-6.24 2.033-6.24 5.88v3.844c0 3.972 2.02 5.822 6.36 5.822 1.767 0 3.65-.31 5.165-.848a.515.515 0 00.332-.59l-.45-2.18a.516.516 0 00-.645-.39c-1.398.395-2.73.587-4.075.587-2.22 0-2.61-.717-2.61-2.222v-.524h7.56a.517.517 0 00.516-.517v-2.803c0-4.135-1.88-6.06-5.913-6.06zm-2.163 6.018v-.494c0-1.435.697-2.103 2.192-2.103 1.65 0 1.983.805 1.983 2.104v.494h-4.176zM7.8 109.958c1.22 0 2.908.168 4.515.448a.516.516 0 00.6-.442l.345-2.68a.515.515 0 00-.39-.567 22.957 22.957 0 00-5.188-.598C2.85 106.12.4 108.127.4 112.09v8.938c0 3.962 2.45 5.97 7.282 5.97 1.732 0 3.574-.212 5.187-.597a.516.516 0 00.39-.567l-.344-2.68a.514.514 0 00-.6-.442c-1.607.282-3.295.45-4.515.45-2.396 0-3.204-.704-3.204-2.788v-7.627c0-2.083.807-2.787 3.204-2.787zM86.21 66.063c-1.343-2.646-2.934-5.32-4.794-8.04a91.415 91.415 0 00-4.253-5.705c-.607-.756-.352-1.696.11-2.164l1.383-1.412c6.378-6.505 12.975-13.23 18.032-20.497 5.38-7.73 8.36-15.062 9.112-22.606a2.33 2.33 0 00-.88-2.03 2.278 2.278 0 00-2.19-.317c-4.905 1.876-9.885 3.3-14.432 4.36a2.837 2.837 0 00-1.986 1.73C83 18.458 74.542 27.097 65.668 36.146c-.356.338-.856.784-1.667.784-.81 0-1.304-.433-1.666-.785-8.873-9.05-17.33-17.658-20.644-26.732a2.84 2.84 0 00-1.986-1.73c-4.55-1.06-9.533-2.606-14.43-4.48a2.266 2.266 0 00-3.07 2.345c.752 7.544 3.732 14.967 9.113 22.697 5.057 7.267 11.653 13.993 18.03 20.497 11.753 11.98 22.854 23.3 23.828 36.428a2.27 2.27 0 002.263 2.103h13.807a2.273 2.273 0 002.268-2.383 41.576 41.576 0 00-1.062-7.43l.006-.005a.905.905 0 01.872-1.143c.044 0 .086.008.13.014 11.27 1.65 18.4 4.286 18.41 7.19v.005c0 2.736-6.408 6.866-16.823 9.89l-.004.003c-.925.264-1.6 1.1-1.6 2.095 0 1.204.994 2.183 2.224 2.183.17 0 .334-.02.492-.054 14-3.24 23.28-8.68 23.28-14.824 0-7.296-12.546-13.812-31.227-16.75zm-37.023-7.116a2.272 2.272 0 00-1.612-.69c-1.03 0-1.642.664-1.873 1.017a70.313 70.313 0 00-3.96 6.797c-18.654 2.942-31.178 9.452-31.178 16.742 0 6.15 9.215 11.58 23.24 14.817l.02-.002c.166.04.336.064.513.064 1.23 0 2.223-.98 2.223-2.183 0-.992-.676-1.82-1.598-2.085l-.007-.014c-10.415-3.02-16.823-7.15-16.823-9.886v-.006c.01-2.9 7.12-5.53 18.363-7.183a.69.69 0 01.12-.013.915.915 0 01.88 1.155l.01.01a41.57 41.57 0 00-1.053 7.398c-.03.618.197 1.232.626 1.684.428.45 1.03.707 1.65.707h13.808a2.288 2.288 0 002.272-2.11c.3-4.04 1.563-8.09 3.852-12.345.793-1.473.177-2.856-.28-3.447-2.272-2.955-5.054-6.106-9.193-10.426z"/><path d="M62.408 24.84a2.22 2.22 0 001.59.63h.005c.427 0 1.046-.098 1.592-.63 4.87-4.734 7.484-10.254 8.058-11.788a2.25 2.25 0 00.168-.84c0-1.224-1.02-2.1-2.087-2.1-.882 0-3.39.26-7.717.26h-.03c-4.324 0-6.833-.26-7.714-.26-1.068 0-2.09.876-2.09 2.1 0 .36.084.614.17.84.57 1.534 3.188 7.054 8.056 11.788z"/></g></svg>