<?xml version="1.0" encoding="UTF-8" standalone="no"?>
<svg
   viewBox="0 0 128 128"
   fill="none"
   version="1.1"
   id="svg1065"
   sodipodi:docname="confluence-original-wordmark.svg"
   inkscape:version="1.1.2 (b8e25be8, 2022-02-05)"
   xmlns:inkscape="http://www.inkscape.org/namespaces/inkscape"
   xmlns:sodipodi="http://sodipodi.sourceforge.net/DTD/sodipodi-0.dtd"
   xmlns="http://www.w3.org/2000/svg"
   xmlns:svg="http://www.w3.org/2000/svg">
  <sodipodi:namedview
     id="namedview1067"
     pagecolor="#ffffff"
     bordercolor="#666666"
     borderopacity="1.0"
     inkscape:pageshadow="2"
     inkscape:pageopacity="0.0"
     inkscape:pagecheckerboard="0"
     showgrid="false"
     inkscape:zoom="15.219183"
     inkscape:cx="41.559392"
     inkscape:cy="30.356425"
     inkscape:window-width="2560"
     inkscape:window-height="1302"
     inkscape:window-x="0"
     inkscape:window-y="25"
     inkscape:window-maximized="1"
     inkscape:current-layer="svg1065" />
  <g
     id="g2255"
     transform="matrix(0.90572558,0,0,0.90572558,1.494109,-0.80562038)">
    <path
       d="m 4.87273,21.5569 c -0.25371,0.399 -0.54368,0.8705 -0.76115,1.2332 -0.21747,0.3627 -0.10873,0.8342 0.25372,1.0518 l 4.96558,3.0465 c 0.36245,0.2176 0.83362,0.1088 1.05112,-0.2539 0.1812,-0.3264 0.4349,-0.7616 0.7249,-1.2331 1.9572,-3.2279 3.9507,-2.8652 7.5027,-1.1606 l 4.9294,2.3212 c 0.3987,0.1814 0.8336,0 1.0148,-0.3627 l 2.356,-5.3315 c 0.1812,-0.3626 0,-0.8341 -0.3625,-1.0155 C 25.4962,19.3808 23.4302,18.4016 21.618,17.4949 14.9126,14.267 9.22215,14.4846 4.87273,21.5569 Z"
       fill="url(#paint0_linear)"
       id="path1045"
       style="fill:url(#paint0_linear)" />
    <path
       d="M 27.1274,9.44314 C 27.3812,9.04419 27.6711,8.57269 27.8886,8.21001 28.1061,7.84732 27.9973,7.37583 27.6349,7.15822 L 22.6693,4.11165 C 22.3068,3.89404 21.8356,4.00285 21.6182,4.36553 21.437,4.69195 21.1832,5.12718 20.8933,5.59867 18.936,8.82657 16.9426,8.46389 13.3905,6.75926 L 8.46118,4.43807 c -0.3987,-0.18134 -0.83364,0 -1.01486,0.36269 L 5.09038,10.1322 c -0.18122,0.3627 0,0.8342 0.36245,1.0156 1.05111,0.4715 3.11709,1.4507 4.92937,2.3574 6.7053,3.1917 12.3958,3.0103 16.7452,-4.06206 z"
       fill="url(#paint1_linear)"
       id="path1047"
       style="fill:url(#paint1_linear)" />
  </g>
  <defs
     id="defs1063">
    <linearGradient
       id="paint0_linear"
       x1="26.7906"
       y1="28.4674"
       x2="11.7924"
       y2="19.8546"
       gradientUnits="userSpaceOnUse">
      <stop
         stop-color="#0052CC"
         id="stop1049" />
      <stop
         offset="0.9182"
         stop-color="#2380FB"
         id="stop1051" />
      <stop
         offset="1"
         stop-color="#2684FF"
         id="stop1053" />
    </linearGradient>
    <linearGradient
       id="paint1_linear"
       x1="5.20945"
       y1="2.52323"
       x2="20.2079"
       y2="11.1361"
       gradientUnits="userSpaceOnUse">
      <stop
         stop-color="#0052CC"
         id="stop1056" />
      <stop
         offset="0.9182"
         stop-color="#2380FB"
         id="stop1058" />
      <stop
         offset="1"
         stop-color="#2684FF"
         id="stop1060" />
    </linearGradient>
  </defs>
  <g
     id="g2251"
     transform="matrix(0.2089354,0,0,0.2089354,-1.7945098,24.610061)">
    <path
       d="m 26.4831,23.194583 c -1.291,0.8586 -3.3351,1.2163 -5.4868,1.2163 -6.8136,0 -10.6508,-4.0781 -10.6508,-10.6245 0,-6.2960497 3.8372,-10.6961097 10.6149,-10.6961097 2.0083,0 4.0524,0.3935 5.5227,1.43091 v 2.75451 c -1.4703,-0.93009 -3.12,-1.43091 -5.5227,-1.43091 -4.8771,0 -7.746,3.2196 -7.746,7.9772997 0,4.7578 3.0123,7.9059 7.9253,7.9059 2.1876,0 3.8731,-0.5009 5.3792,-1.2521 v 2.7187 z"
       fill="#253858"
       id="path1553" />
    <path
       d="m 28.4554,16.218883 c 0,-4.722 2.7614,-8.1561997 7.495,-8.1561997 4.6979,0 7.4592,3.4341997 7.4592,8.1561997 0,4.7221 -2.7613,8.2278 -7.4592,8.2278 -4.6978,-0.0358 -7.495,-3.5057 -7.495,-8.2278 z m 2.6538,0 c 0,3.005 1.4703,5.6879 4.8771,5.6879 3.3351,0 4.8054,-2.7187 4.8054,-5.6879 0,-2.9691 -1.4344,-5.6521 -4.8054,-5.6521 -3.4068,0 -4.8771,2.6472 -4.8771,5.6521 z"
       fill="#253858"
       id="path1555" />
    <path
       d="m 59.9775,24.124683 h -2.7254 v -9.5155 c 0,-2.8261 -1.1476,-4.0782 -3.7296,-4.0782 -2.5103,0 -4.2675,1.6814 -4.2675,4.8652 v 8.7643 H 46.5296 V 8.4203833 h 2.7254 v 2.5756997 c 1.0041,-1.8601997 2.8689,-2.8975997 4.9847,-2.8975997 3.622,0 5.702,2.5040997 5.702,6.8325997 v 9.1936 z"
       fill="#253858"
       id="path1557" />
    <path
       d="m 71.6324,8.3846833 v 2.5040997 h -4.0882 v 13.2359 h -2.6537 v -13.2359 H 62.3443 V 8.3846833 h 2.5462 v -1.71712 c 0,-2.93337 1.6496,-4.90088 5.0206,-4.90088 0.8248,0 1.3627,0.14309 1.8289,0.25041 v 2.5041 c -0.4662,-0.10732 -1.0759,-0.14309 -1.7214,-0.14309 -1.6854,0 -2.5102,0.96587 -2.5102,2.39678 v 1.6098 z"
       fill="#253858"
       id="path1559" />
    <path
       d="m 78.7688,24.196283 c -2.582,0 -4.2316,-1.2163 -4.2316,-4.1139 V 1.8024533 h 2.7254 V 19.760483 c 0,1.4309 0.9324,1.9317 2.1162,1.9317 0.287,0 0.466,0 0.789,-0.0358 v 2.4326 c -0.251,0.0715 -0.718,0.1073 -1.399,0.1073 z"
       fill="#253858"
       id="path1561" />
    <path
       d="m 82.4628,8.3846833 h 2.725 v 9.5155997 c 0,2.826 1.148,4.0781 3.73,4.0781 2.51,0 4.267,-1.6814 4.267,-4.8651 V 8.3846833 h 2.726 V 24.124683 h -2.726 v -2.5756 c -1.004,1.8602 -2.869,2.8976 -4.985,2.8976 -3.622,0 -5.701,-2.5041 -5.701,-6.8326 V 8.3846833 Z"
       fill="#253858"
       id="path1563" />
    <path
       d="m 107.5298,24.410883 c -5.917,0 -8.499,-3.3984 -8.499,-8.2277 0,-4.7578 2.653,-8.1561997 7.459,-8.1561997 4.877,0 6.813,3.3625997 6.813,8.1561997 v 1.2162 h -11.511 c 0.394,2.683 2.116,4.4001 5.845,4.4001 1.829,0 3.371,-0.3577 4.806,-0.8585 v 2.5041 c -1.327,0.7154 -3.335,0.9658 -4.913,0.9658 z m -5.81,-9.3009 h 8.822 c -0.143,-2.9334 -1.47,-4.5789 -4.196,-4.5789 -2.869,0 -4.339,1.8244 -4.626,4.5789 z"
       fill="#253858"
       id="path1565" />
    <path
       d="m 129.9068,24.124683 h -2.725 v -9.5155 c 0,-2.8261 -1.148,-4.0782 -3.73,-4.0782 -2.51,0 -4.267,1.6814 -4.267,4.8652 v 8.7643 h -2.726 V 8.4203833 h 2.726 v 2.5756997 c 1.004,-1.8601997 2.869,-2.8975997 4.984,-2.8975997 3.622,0 5.702,2.5040997 5.702,6.8325997 v 9.1936 z"
       fill="#253858"
       id="path1567" />
    <path
       d="m 144.8608,23.695483 c -0.932,0.5008 -2.402,0.7154 -3.837,0.7154 -5.63,0 -8.248,-3.3984 -8.248,-8.2277 0,-4.7578 2.618,-8.1561997 8.248,-8.1561997 1.435,0 2.51,0.1788 3.766,0.7512 v 2.5040997 c -1.005,-0.4651 -2.08,-0.7512 -3.551,-0.7512 -4.088,0 -5.773,2.5756 -5.773,5.6521 0,3.0764 1.721,5.6521 5.845,5.6521 1.614,0 2.618,-0.2147 3.586,-0.5724 v 2.4326 z"
       fill="#253858"
       id="path1569" />
    <path
       d="m 155.4758,24.410883 c -5.917,0 -8.499,-3.3984 -8.499,-8.2277 0,-4.7578 2.654,-8.1561997 7.459,-8.1561997 4.877,0 6.814,3.3625997 6.814,8.1561997 v 1.2162 h -11.512 c 0.395,2.683 2.116,4.4001 5.846,4.4001 1.829,0 3.371,-0.3577 4.805,-0.8585 v 2.5041 c -1.327,0.7154 -3.299,0.9658 -4.913,0.9658 z m -5.773,-9.3009 h 8.821 c -0.143,-2.9334 -1.47,-4.5789 -4.195,-4.5789 -2.905,0 -4.34,1.8244 -4.626,4.5789 z"
       fill="#253858"
       id="path1571" />
  </g>
</svg>
