<svg xmlns="http://www.w3.org/2000/svg" viewBox="0 0 128 128"><defs><linearGradient id="a" x1="26.791" x2="11.792" y1="28.467" y2="19.855" gradientTransform="translate(4.574 -5.311) scale(3.677)" gradientUnits="userSpaceOnUse"><stop offset="0" stop-color="#0052cc"/><stop offset=".918" stop-color="#2380fb"/><stop offset="1" stop-color="#2684ff"/></linearGradient><linearGradient id="b" x1="5.209" x2="20.208" y1="2.523" y2="11.136" gradientTransform="translate(4.574 -5.311) scale(3.677)" gradientUnits="userSpaceOnUse"><stop offset="0" stop-color="#0052cc"/><stop offset=".918" stop-color="#2380fb"/><stop offset="1" stop-color="#2684ff"/></linearGradient></defs><path fill="url(#a)" d="M22.49 73.952a233.377 233.377 0 0 0-2.798 4.535c-.797 1.332-.4 3.068.935 3.87l18.257 11.199c1.333.802 3.065.4 3.866-.932a119.995 119.995 0 0 1 2.664-4.534c7.196-11.871 14.526-10.535 27.589-4.27l18.127 8.535c1.462.67 3.065 0 3.73-1.332l8.663-19.605c.666-1.332 0-3.065-1.333-3.735-3.865-1.732-11.461-5.332-18.126-8.666-24.655-11.87-45.58-11.069-61.573 14.935Zm0 0"/><path fill="url(#b)" d="M104.324 29.41a233.495 233.495 0 0 0 2.799-4.532c.797-1.336.396-3.068-.936-3.87L87.93 9.804c-1.332-.796-3.066-.396-3.865.937a123.233 123.233 0 0 1-2.665 4.535c-7.2 11.865-14.526 10.533-27.59 4.266l-18.126-8.535c-1.462-.667-3.064 0-3.73 1.335l-8.662 19.6c-.666 1.337 0 3.07 1.331 3.736 3.867 1.736 11.462 5.336 18.127 8.67 24.656 11.737 45.58 11.07 61.574-14.938Zm0 0"/><path fill="#253858" d="M13.685 117.542c-1.094.73-2.826 1.031-4.65 1.031-5.78 0-9.035-3.457-9.035-9.013 0-5.338 3.255-9.07 9.002-9.07 1.706 0 3.439.334 4.683 1.214v2.334c-1.244-.788-2.644-1.213-4.682-1.213-4.138 0-6.57 2.733-6.57 6.768 0 4.036 2.554 6.705 6.72 6.705 1.856 0 3.288-.425 4.564-1.059v2.304zm1.674-5.915c0-4.01 2.342-6.918 6.358-6.918 3.985 0 6.329 2.91 6.329 6.918 0 4.004-2.344 6.978-6.329 6.978-3.984-.032-6.358-2.974-6.358-6.978zm2.251 0c0 2.55 1.248 4.825 4.139 4.825 2.828 0 4.076-2.307 4.076-4.825 0-2.521-1.218-4.797-4.076-4.797-2.89 0-4.139 2.247-4.139 4.797zm24.49 6.704h-2.312v-8.072c0-2.394-.975-3.457-3.163-3.457-2.134 0-3.62 1.427-3.62 4.128v7.433h-2.316V105.01h2.316v2.184c.848-1.579 2.43-2.459 4.226-2.459 3.073 0 4.837 2.126 4.837 5.797v7.798zm9.884-13.348v2.121h-3.47v11.227h-2.247v-11.228h-2.162v-2.12h2.162v-1.46c0-2.486 1.4-4.154 4.257-4.154.699 0 1.154.118 1.55.21v2.125c-.396-.091-.911-.123-1.458-.123-1.431 0-2.13.82-2.13 2.034v1.367zm6.053 13.407c-2.188 0-3.588-1.03-3.588-3.488V99.396h2.312v15.232c0 1.218.789 1.641 1.796 1.641.241 0 .392 0 .665-.03v2.064c-.21.06-.606.087-1.185.087zm3.132-13.407h2.312v8.067c0 2.4.974 3.46 3.163 3.46 2.129 0 3.62-1.426 3.62-4.126v-7.402h2.315v13.35h-2.314v-2.186c-.853 1.579-2.436 2.459-4.228 2.459-3.072 0-4.836-2.126-4.836-5.796v-7.827zm21.263 13.59c-5.02 0-7.208-2.882-7.208-6.978 0-4.036 2.252-6.918 6.327-6.918 4.136 0 5.78 2.855 5.78 6.918v1.03h-9.764c.333 2.277 1.791 3.735 4.955 3.735 1.555 0 2.862-.304 4.08-.73v2.126c-1.127.607-2.832.817-4.171.817zm-4.929-7.89h7.485c-.123-2.486-1.248-3.881-3.56-3.881-2.434 0-3.68 1.547-3.925 3.881zm23.91 7.648h-2.311v-8.072c0-2.394-.974-3.457-3.164-3.457-2.129 0-3.619 1.427-3.619 4.128v7.433h-2.312V105.01h2.312v2.184c.853-1.579 2.434-2.459 4.226-2.459 3.072 0 4.836 2.126 4.836 5.797v7.798zm12.683-.365c-.79.424-2.038.607-3.254.607-4.774 0-6.993-2.882-6.993-6.978 0-4.036 2.22-6.918 6.993-6.918 1.216 0 2.128.15 3.195.639v2.124c-.853-.396-1.764-.638-3.014-.638-3.465 0-4.896 2.185-4.896 4.793 0 2.609 1.464 4.793 4.96 4.793 1.368 0 2.22-.183 3.04-.483v2.061zm9.004.607c-5.016 0-7.208-2.882-7.208-6.978 0-4.036 2.252-6.918 6.328-6.918 4.135 0 5.78 2.855 5.78 6.918v1.03h-9.765c.333 2.277 1.797 3.735 4.96 3.735 1.55 0 2.858-.304 4.075-.73v2.126c-1.126.607-2.799.817-4.171.817zm-4.896-7.89h7.485c-.123-2.486-1.248-3.881-3.56-3.881-2.463 0-3.68 1.547-3.925 3.881zm0 0"/></svg>
