<?xml version="1.0" encoding="UTF-8"?>
<svg xmlns="http://www.w3.org/2000/svg" xmlns:xlink="http://www.w3.org/1999/xlink" width="128px" height="128px" viewBox="0 0 128 128" version="1.1">
<defs>
<clipPath id="clip1">
  <path d="M 3 72.855469 L 124.089844 72.855469 L 124.089844 98.496094 L 3 98.496094 Z M 3 72.855469 "/>
</clipPath>
<clipPath id="clip2">
  <path d="M 112 81 L 124.089844 81 L 124.089844 95 L 112 95 Z M 112 81 "/>
</clipPath>
<linearGradient id="linear0" gradientUnits="userSpaceOnUse" x1="26.7906" y1="28.4674" x2="11.7924" y2="19.8546" gradientTransform="matrix(1.727911,0,0,1.727911,35.542442,17.328294)">
<stop offset="0" style="stop-color:rgb(0%,32.156863%,80%);stop-opacity:1;"/>
<stop offset="0.9182" style="stop-color:rgb(13.72549%,50.196078%,98.431373%);stop-opacity:1;"/>
<stop offset="1" style="stop-color:rgb(14.901961%,51.764706%,100%);stop-opacity:1;"/>
</linearGradient>
<linearGradient id="linear1" gradientUnits="userSpaceOnUse" x1="5.20945" y1="2.52323" x2="20.2079" y2="11.1361" gradientTransform="matrix(1.727911,0,0,1.727911,35.542442,17.328294)">
<stop offset="0" style="stop-color:rgb(0%,32.156863%,80%);stop-opacity:1;"/>
<stop offset="0.9182" style="stop-color:rgb(13.72549%,50.196078%,98.431373%);stop-opacity:1;"/>
<stop offset="1" style="stop-color:rgb(14.901961%,51.764706%,100%);stop-opacity:1;"/>
</linearGradient>
</defs>
<g id="surface1">
<g clip-path="url(#clip1)" clip-rule="nonzero">
<path style=" stroke:none;fill-rule:nonzero;fill:rgb(100%,100%,100%);fill-opacity:0.0117647;" d="M 3.167969 72.855469 L 124.089844 72.855469 L 124.089844 98.496094 L 3.167969 94.234375 C 8.546875 94.722656 27.1875 75.039062 3.167969 72.855469 Z M 3.167969 72.855469 "/>
</g>
<path style=" stroke:none;fill-rule:nonzero;fill:rgb(14.509804%,21.960784%,34.509804%);fill-opacity:1;" d="M 16.097656 93.230469 C 15.0625 93.917969 13.425781 94.203125 11.703125 94.203125 C 6.242188 94.203125 3.167969 90.9375 3.167969 85.691406 C 3.167969 80.644531 6.242188 77.121094 11.671875 77.121094 C 13.28125 77.121094 14.921875 77.4375 16.097656 78.265625 L 16.097656 80.472656 C 14.921875 79.730469 13.597656 79.328125 11.671875 79.328125 C 7.765625 79.328125 5.464844 81.90625 5.464844 85.71875 C 5.464844 89.53125 7.878906 92.054688 11.816406 92.054688 C 13.570312 92.054688 14.921875 91.652344 16.128906 91.050781 L 16.128906 93.230469 Z M 16.097656 93.230469 "/>
<path style=" stroke:none;fill-rule:nonzero;fill:rgb(14.509804%,21.960784%,34.509804%);fill-opacity:1;" d="M 17.679688 87.640625 C 17.679688 83.855469 19.890625 81.105469 23.683594 81.105469 C 27.449219 81.105469 29.660156 83.855469 29.660156 87.640625 C 29.660156 91.425781 27.449219 94.234375 23.683594 94.234375 C 19.921875 94.203125 17.679688 91.425781 17.679688 87.640625 Z M 19.804688 87.640625 C 19.804688 90.046875 20.984375 92.199219 23.714844 92.199219 C 26.386719 92.199219 27.5625 90.019531 27.5625 87.640625 C 27.5625 85.261719 26.414062 83.113281 23.714844 83.113281 C 20.984375 83.113281 19.804688 85.234375 19.804688 87.640625 Z M 19.804688 87.640625 "/>
<path style=" stroke:none;fill-rule:nonzero;fill:rgb(14.509804%,21.960784%,34.509804%);fill-opacity:1;" d="M 42.9375 93.976562 L 40.753906 93.976562 L 40.753906 86.351562 C 40.753906 84.085938 39.835938 83.082031 37.765625 83.082031 C 35.753906 83.082031 34.34375 84.429688 34.34375 86.980469 L 34.34375 94.003906 L 32.160156 94.003906 L 32.160156 81.390625 L 34.34375 81.390625 L 34.34375 83.457031 C 35.148438 81.964844 36.644531 81.132812 38.339844 81.132812 C 41.242188 81.132812 42.910156 83.140625 42.910156 86.609375 L 42.910156 93.976562 Z M 42.9375 93.976562 "/>
<path style=" stroke:none;fill-rule:nonzero;fill:rgb(14.509804%,21.960784%,34.509804%);fill-opacity:1;" d="M 52.277344 81.363281 L 52.277344 83.371094 L 49 83.371094 L 49 93.976562 L 46.875 93.976562 L 46.875 83.371094 L 44.835938 83.371094 L 44.835938 81.363281 L 46.875 81.363281 L 46.875 79.988281 C 46.875 77.636719 48.195312 76.058594 50.898438 76.058594 C 51.558594 76.058594 51.988281 76.175781 52.363281 76.261719 L 52.363281 78.265625 C 51.988281 78.179688 51.5 78.152344 50.984375 78.152344 C 49.632812 78.152344 48.972656 78.925781 48.972656 80.074219 L 48.972656 81.363281 Z M 52.277344 81.363281 "/>
<path style=" stroke:none;fill-rule:nonzero;fill:rgb(14.509804%,21.960784%,34.509804%);fill-opacity:1;" d="M 57.996094 94.03125 C 55.925781 94.03125 54.605469 93.058594 54.605469 90.738281 L 54.605469 76.089844 L 56.789062 76.089844 L 56.789062 90.480469 C 56.789062 91.625 57.535156 92.027344 58.484375 92.027344 C 58.714844 92.027344 58.859375 92.027344 59.117188 91.996094 L 59.117188 93.945312 C 58.914062 94.003906 58.539062 94.03125 57.996094 94.03125 Z M 57.996094 94.03125 "/>
<path style=" stroke:none;fill-rule:nonzero;fill:rgb(14.509804%,21.960784%,34.509804%);fill-opacity:1;" d="M 60.957031 81.363281 L 63.140625 81.363281 L 63.140625 88.988281 C 63.140625 91.253906 64.058594 92.253906 66.128906 92.253906 C 68.140625 92.253906 69.546875 90.910156 69.546875 88.355469 L 69.546875 81.363281 L 71.730469 81.363281 L 71.730469 93.976562 L 69.546875 93.976562 L 69.546875 91.910156 C 68.742188 93.402344 67.246094 94.234375 65.550781 94.234375 C 62.648438 94.234375 60.984375 92.226562 60.984375 88.757812 L 60.984375 81.363281 Z M 60.957031 81.363281 "/>
<path style=" stroke:none;fill-rule:nonzero;fill:rgb(14.509804%,21.960784%,34.509804%);fill-opacity:1;" d="M 81.042969 94.203125 C 76.300781 94.203125 74.230469 91.480469 74.230469 87.613281 C 74.230469 83.800781 76.355469 81.078125 80.207031 81.078125 C 84.117188 81.078125 85.667969 83.769531 85.667969 87.613281 L 85.667969 88.585938 L 76.445312 88.585938 C 76.757812 90.738281 78.140625 92.113281 81.128906 92.113281 C 82.59375 92.113281 83.828125 91.824219 84.980469 91.425781 L 84.980469 93.429688 C 83.914062 94.003906 82.304688 94.203125 81.042969 94.203125 Z M 76.386719 86.753906 L 83.457031 86.753906 C 83.339844 84.402344 82.277344 83.082031 80.09375 83.082031 C 77.792969 83.082031 76.617188 84.542969 76.386719 86.753906 Z M 76.386719 86.753906 "/>
<path style=" stroke:none;fill-rule:nonzero;fill:rgb(14.509804%,21.960784%,34.509804%);fill-opacity:1;" d="M 98.972656 93.976562 L 96.789062 93.976562 L 96.789062 86.351562 C 96.789062 84.085938 95.871094 83.082031 93.800781 83.082031 C 91.789062 83.082031 90.382812 84.429688 90.382812 86.980469 L 90.382812 94.003906 L 88.195312 94.003906 L 88.195312 81.390625 L 90.382812 81.390625 L 90.382812 83.457031 C 91.183594 81.964844 92.679688 81.132812 94.375 81.132812 C 97.277344 81.132812 98.945312 83.140625 98.945312 86.609375 L 98.945312 93.976562 Z M 98.972656 93.976562 "/>
<path style=" stroke:none;fill-rule:nonzero;fill:rgb(14.509804%,21.960784%,34.509804%);fill-opacity:1;" d="M 110.957031 93.632812 C 110.207031 94.03125 109.03125 94.203125 107.878906 94.203125 C 103.371094 94.203125 101.273438 91.480469 101.273438 87.613281 C 101.273438 83.800781 103.371094 81.078125 107.878906 81.078125 C 109.03125 81.078125 109.890625 81.21875 110.898438 81.679688 L 110.898438 83.683594 C 110.09375 83.3125 109.230469 83.082031 108.054688 83.082031 C 104.777344 83.082031 103.425781 85.148438 103.425781 87.613281 C 103.425781 90.078125 104.804688 92.140625 108.109375 92.140625 C 109.402344 92.140625 110.207031 91.96875 110.984375 91.683594 L 110.984375 93.632812 Z M 110.957031 93.632812 "/>
<g clip-path="url(#clip2)" clip-rule="nonzero">
<path style=" stroke:none;fill-rule:nonzero;fill:rgb(14.509804%,21.960784%,34.509804%);fill-opacity:1;" d="M 119.460938 94.203125 C 114.71875 94.203125 112.652344 91.480469 112.652344 87.613281 C 112.652344 83.800781 114.777344 81.078125 118.628906 81.078125 C 122.535156 81.078125 124.089844 83.769531 124.089844 87.613281 L 124.089844 88.585938 L 114.863281 88.585938 C 115.179688 90.738281 116.558594 92.113281 119.546875 92.113281 C 121.011719 92.113281 122.25 91.824219 123.398438 91.425781 L 123.398438 93.429688 C 122.335938 94.003906 120.753906 94.203125 119.460938 94.203125 Z M 114.835938 86.753906 L 121.902344 86.753906 C 121.789062 84.402344 120.726562 83.082031 118.542969 83.082031 C 116.214844 83.082031 115.066406 84.542969 114.835938 86.753906 Z M 114.835938 86.753906 "/>
</g>
<path style=" stroke:none;fill-rule:nonzero;fill:url(#linear0);" d="M 43.960938 54.578125 C 43.523438 55.265625 43.023438 56.082031 42.648438 56.707031 C 42.269531 57.335938 42.460938 58.148438 43.085938 58.523438 L 51.664062 63.789062 C 52.289062 64.164062 53.105469 63.976562 53.480469 63.351562 C 53.792969 62.785156 54.234375 62.035156 54.734375 61.21875 C 58.117188 55.640625 61.5625 56.269531 67.699219 59.214844 L 76.214844 63.222656 C 76.90625 63.539062 77.65625 63.222656 77.96875 62.597656 L 82.039062 53.386719 C 82.351562 52.761719 82.039062 51.945312 81.414062 51.632812 C 79.597656 50.816406 76.027344 49.125 72.894531 47.558594 C 61.3125 41.980469 51.476562 42.355469 43.960938 54.578125 Z M 43.960938 54.578125 "/>
<path style=" stroke:none;fill-rule:nonzero;fill:url(#linear1);" d="M 82.417969 33.644531 C 82.855469 32.957031 83.355469 32.140625 83.730469 31.511719 C 84.105469 30.886719 83.917969 30.074219 83.292969 29.699219 L 74.710938 24.433594 C 74.085938 24.054688 73.273438 24.246094 72.894531 24.871094 C 72.582031 25.433594 72.144531 26.1875 71.644531 27.003906 C 68.261719 32.578125 64.816406 31.953125 58.679688 29.007812 L 50.160156 24.996094 C 49.472656 24.683594 48.722656 24.996094 48.410156 25.625 L 44.339844 34.835938 C 44.023438 35.460938 44.339844 36.277344 44.964844 36.589844 C 46.78125 37.40625 50.351562 39.097656 53.480469 40.664062 C 65.070312 46.179688 74.898438 45.867188 82.417969 33.644531 Z M 82.417969 33.644531 "/>
</g>
</svg>
