<?xml version="1.0" encoding="utf-8"?>
<!-- Generator: Adobe Illustrator 16.0.0, SVG Export Plug-In . SVG Version: 6.00 Build 0)  -->
<!DOCTYPE svg PUBLIC "-//W3C//DTD SVG 1.1//EN" "http://www.w3.org/Graphics/SVG/1.1/DTD/svg11.dtd">
<svg version="1.1" id="Layer_1" xmlns="http://www.w3.org/2000/svg" xmlns:xlink="http://www.w3.org/1999/xlink" x="0px" y="0px"
	 width="500px" height="500px" viewBox="0 0 500 500" enable-background="new 0 0 500 500" xml:space="preserve">
<g>
	<g id="Page_1" transform="matrix(0.17893165,0,0,0.17893165,-129.37356,1149.0013)">
		<g id="BackBone.JS">
			<path id="Path" fill="#002A41" stroke="#848484" d="M1355.103-6256.082v1027.909l765.097,436.127v-296.464l-511.842-291.77
				v-458.296l511.842,291.781v-273.159L1355.103-6256.082z"/>
			<path id="path2996" fill="#0071B5" stroke="#848484" d="M2885.313-6256.082v1027.909L2120.2-4792.046v-296.464l511.848-291.77
				v-458.296L2120.2-5546.796v-273.159L2885.313-6256.082z"/>
			<path id="path2998" fill="#0071B5" stroke="#848484" d="M1355.103-4355.439v-1027.909l765.097-436.138v296.475l-511.842,291.759
				v434.97l511.842-291.759v296.464L1355.103-4355.439z"/>
			<path id="path3000" fill="#002A41" stroke="#848484" d="M2885.313-4355.439v-1027.909L2120.2-5819.485v296.475l511.848,291.759
				v434.97L2120.2-5088.041v296.464L2885.313-4355.439z"/>
		</g>
	</g>
	<g id="text3023">
		<path id="path3014" fill="#002A41" d="M59.93,403.155h12.459c5.613,0,9.736,0.953,12.367,2.859
			c2.629,1.904,3.945,4.783,3.945,8.637c0,2.631-0.803,4.82-2.408,6.57c-1.605,1.752-3.951,2.875-7.037,3.371v0.188
			c3.625,0.537,6.291,1.682,8,3.434c1.709,1.748,2.562,4.189,2.562,7.316c0,4.184-1.387,7.404-4.162,9.662
			c-2.775,2.26-6.711,3.387-11.807,3.387H59.93V403.155z M63.1,423.381h10.004c4.268,0,7.369-0.709,9.305-2.129
			c1.938-1.418,2.906-3.639,2.906-6.664c0-3.023-1.094-5.219-3.279-6.586c-2.184-1.367-5.441-2.051-9.771-2.051H63.1V423.381z
			 M63.1,426.176v19.607h10.688c8.41,0,12.613-3.418,12.613-10.254c0-6.234-4.432-9.354-13.297-9.354H63.1z"/>
		<path id="path3016" fill="#002A41" d="M121.697,432.547H103.24l-6.338,16.031h-3.51l18.27-45.609h2.02l17.895,45.609h-3.572
			L121.697,432.547z M104.391,429.688h16.25l-6.184-16.373c-0.518-1.285-1.139-3.066-1.863-5.344
			c-0.559,1.988-1.17,3.789-1.834,5.406L104.391,429.688z"/>
		<path id="path3018" fill="#002A41" d="M157.365,405.36c-5.697,0-10.182,1.824-13.453,5.469c-3.273,3.646-4.91,8.637-4.91,14.977
			c0,6.482,1.545,11.516,4.631,15.1s7.498,5.375,13.234,5.375c3.812,0,7.312-0.486,10.502-1.461v2.797
			c-3.004,1.057-6.752,1.584-11.246,1.584c-6.381,0-11.404-2.061-15.07-6.182c-3.666-4.123-5.498-9.881-5.498-17.275
			c0-4.619,0.875-8.689,2.625-12.211s4.268-6.24,7.549-8.156c3.283-1.914,7.1-2.873,11.451-2.873c4.432,0,8.398,0.828,11.898,2.486
			l-1.273,2.857C164.49,406.19,161.01,405.36,157.365,405.36L157.365,405.36z"/>
		<path id="path3020" fill="#002A41" d="M208.039,448.578h-3.883l-17.43-23.986l-6.059,5.346v18.641h-3.17v-45.424h3.17v23.613
			l5.033-5.033l17.803-18.58h4.039l-18.611,19.201L208.039,448.578z"/>
		<path id="path3022" fill="#002A41" d="M214.533,403.155h12.459c5.613,0,9.734,0.953,12.365,2.859
			c2.631,1.904,3.947,4.783,3.947,8.637c0,2.631-0.803,4.82-2.408,6.57c-1.605,1.752-3.951,2.875-7.037,3.371v0.188
			c3.625,0.537,6.291,1.682,8,3.434c1.709,1.748,2.562,4.189,2.562,7.316c0,4.184-1.387,7.404-4.162,9.662
			c-2.775,2.26-6.711,3.387-11.807,3.387h-13.92V403.155z M217.703,423.381h10.004c4.268,0,7.369-0.709,9.307-2.129
			c1.936-1.418,2.904-3.639,2.904-6.664c0-3.023-1.094-5.219-3.279-6.586c-2.184-1.367-5.441-2.051-9.77-2.051h-9.166V423.381z
			 M217.703,426.176v19.607h10.688c8.41,0,12.615-3.418,12.615-10.254c0-6.234-4.434-9.354-13.299-9.354H217.703z"/>
		<path id="path3024" fill="#002A41" d="M292.611,425.805c0,7.207-1.801,12.91-5.406,17.104c-3.604,4.195-8.574,6.291-14.912,6.291
			c-6.318,0-11.279-2.096-14.883-6.291c-3.605-4.193-5.406-9.916-5.406-17.166c0-7.229,1.816-12.92,5.453-17.072
			c3.635-4.154,8.6-6.23,14.898-6.23c6.338,0,11.299,2.088,14.881,6.262C290.82,412.875,292.611,418.576,292.611,425.805
			L292.611,425.805z M255.453,425.805c0,6.504,1.449,11.531,4.35,15.084c2.898,3.553,7.062,5.328,12.49,5.328
			c5.469,0,9.646-1.76,12.535-5.281c2.891-3.521,4.336-8.564,4.336-15.131c0-6.545-1.445-11.564-4.336-15.055
			c-2.889-3.488-7.047-5.234-12.473-5.234c-5.406,0-9.576,1.76-12.506,5.281C256.918,414.319,255.453,419.321,255.453,425.805z"/>
		<path id="path3026" fill="#002A41" d="M336.047,448.578h-3.199l-26.906-40.328h-0.248c0.248,4.805,0.373,8.43,0.373,10.875v29.453
			h-3.047v-45.424h3.17l26.877,40.266h0.186c-0.186-3.727-0.279-7.27-0.279-10.625v-29.641h3.074V448.578z"/>
		<path id="path3028" fill="#002A41" d="M373.705,448.578h-24.826v-45.424h24.826v2.92h-21.656v17.182h20.443v2.92h-20.443v19.482
			h21.656V448.578z"/>
		<path id="path3030" fill="#002A41" d="M382.652,446.156c0-2.031,0.83-3.047,2.486-3.047c1.697,0,2.547,1.016,2.547,3.047
			c0,2.027-0.85,3.043-2.547,3.043C383.482,449.199,382.652,448.184,382.652,446.156z"/>
		<path id="path3032" fill="#002A41" d="M391.756,460.043c-1.906,0-3.469-0.279-4.691-0.838v-2.734
			c1.615,0.414,3.158,0.621,4.629,0.621c5.014,0,7.52-2.734,7.52-8.203v-45.734h3.168v45.424
			C402.381,456.223,398.84,460.043,391.756,460.043L391.756,460.043z"/>
		<path id="path3034" fill="#002A41" d="M440.07,436.865c0,3.791-1.395,6.795-4.18,9.01c-2.785,2.217-6.488,3.324-11.107,3.324
			c-5.551,0-9.809-0.609-12.77-1.832v-3.17c3.273,1.389,7.445,2.082,12.521,2.082c3.729,0,6.684-0.855,8.869-2.562
			c2.186-1.709,3.279-3.951,3.279-6.727c0-1.721-0.363-3.145-1.088-4.271c-0.725-1.131-1.906-2.16-3.541-3.092
			c-1.637-0.934-4.041-1.938-7.209-3.016c-4.641-1.594-7.846-3.318-9.617-5.172c-1.77-1.855-2.656-4.324-2.656-7.41
			c0-3.398,1.332-6.168,3.992-8.311c2.662-2.145,6.086-3.217,10.27-3.217c4.266,0,8.273,0.809,12.023,2.424l-1.15,2.734
			c-3.77-1.574-7.373-2.361-10.811-2.361c-3.355,0-6.029,0.775-8.016,2.33c-1.99,1.553-2.982,3.666-2.982,6.338
			c0,1.678,0.305,3.055,0.914,4.133c0.613,1.076,1.611,2.045,3,2.904c1.387,0.859,3.77,1.891,7.146,3.092
			c3.541,1.223,6.203,2.408,7.984,3.557c1.781,1.15,3.082,2.455,3.898,3.916C439.66,433.028,440.07,434.793,440.07,436.865
			L440.07,436.865z"/>
	</g>
</g>
</svg>
