<svg viewBox="0 0 128 128" xmlns="http://www.w3.org/2000/svg">
  <path fill="#9d0fb0" d="m102.791 40.855-.228.004h-.004c-1.348.043-2.49.48-3.319 1.315-.914.914-1.306 2.365-1.306 4.28v1.179h-1.74a1.354 1.354 0 0 0-1.044.416 1.37 1.37 0 0 0-.35.93c0 .328.109.665.35.93.242.264.625.43 1.043.415h1.74v12.211l.004.147.002.005c.028.497.22.952.559 1.268l.004.004.006.004c.357.319.824.483 1.312.484a1.96 1.96 0 0 0 1.334-.502l.006-.004.102-.097.008-.01c.325-.347.488-.816.488-1.307V50.324l2.05.004h.01c.397-.013.75-.19.975-.45a1.36 1.36 0 0 0 .326-.898c0-.317-.102-.639-.326-.898a1.355 1.355 0 0 0-.975-.45h-2.06v-.417l.004-.248v-.004c-.003-.557.027-1.114.088-1.668.07-.491.185-.95.228-1.012l.002-.002v-.002c.15-.214.3-.32.393-.347l.006-.002.005-.002c.157-.052.46-.096.868-.096h1.486l.127-.012.014-.002c.814-.113 1.295-.83 1.285-1.498-.01-.667-.515-1.371-1.332-1.459h-.006l-.072-.006h-2.064zm5.826 0c-.601 0-1.157.172-1.576.54l-.002.001-.002.002a1.927 1.927 0 0 0-.627 1.44 1.88 1.88 0 0 0 .63 1.455l.001.002.004.002c.41.355.957.523 1.557.523.597 0 1.145-.164 1.558-.525l.004-.002.002-.002c.407-.365.63-.891.63-1.447 0-.564-.227-1.09-.634-1.448-.41-.367-.955-.54-1.545-.54zm5.653.002a2.058 2.058 0 0 0-1.336.493l-.006.004-.004.003c-.386.347-.584.86-.584 1.405v19.773l.004.147.002.007c.028.492.213.947.554 1.266l.006.006.006.004c.364.319.833.49 1.317.482.49.004.966-.174 1.332-.502h.001c.391-.354.602-.87.602-1.418v-5.459l6.49 6.797.096.096.002.002a1.7 1.7 0 0 0 1.197.486c.476.002.93-.196 1.262-.537.338-.329.555-.765.555-1.228 0-.423-.18-.835-.485-1.149l-5.847-6.056 5.304-4.672.106-.112.004-.004c.255-.281.418-.647.418-1.03 0-.453-.208-.878-.534-1.204a1.684 1.684 0 0 0-1.236-.543h-.002a1.65 1.65 0 0 0-1.055.412l-.005.004-6.27 5.656v-11.24l-.01-.144a1.802 1.802 0 0 0-.578-1.239 1.883 1.883 0 0 0-1.306-.506zm-11.47.998h2.012l.017.002c.34.038.432.236.436.479.004.244-.08.445-.422.492l-.047.004h-1.443c-.466 0-.846.038-1.172.145-.397.12-.686.404-.914.728h-.002c-.322.454-.337.967-.407 1.455l-.002.008v.008a15.667 15.667 0 0 0-.093 1.79l-.004.241v1.426h3.025c.15.005.205.047.254.103a.383.383 0 0 1 .082.244.383.383 0 0 1-.082.245c-.049.056-.104.098-.254.103l-3.025-.006v13.205c0 .29-.074.468-.217.621v.002l-.057.053a.958.958 0 0 1-.654.246h-.006c-.28 0-.466-.073-.644-.23-.143-.135-.226-.295-.243-.586l-.003-.113V49.324h-2.776c-.165.006-.22-.035-.27-.09a.394.394 0 0 1-.087-.255c0-.105.037-.201.088-.256.05-.055.104-.096.27-.09h2.775v-2.18c0-1.774.38-2.939 1.013-3.572l.002-.002c.632-.639 1.482-.983 2.64-1.02l.212-.004zm5.817 0c.409 0 .673.1.881.288l.002.002.004.001c.209.183.293.363.293.698 0 .317-.088.51-.297.699-.204.177-.474.277-.898.277-.42 0-.696-.103-.9-.279a.877.877 0 0 1-.296-.682v-.015c0-.318.088-.51.297-.698.215-.187.492-.29.914-.29zm5.656 0h.008a.883.883 0 0 1 .62.239l.003.006.004.004c.153.136.232.288.248.558l.008.115v19.75c0 .32-.085.505-.271.674h-.002v.002a.97.97 0 0 1-.659.246h-.015a.945.945 0 0 1-.635-.23c-.14-.133-.221-.293-.238-.588l-.004-.111V42.762c0-.328.083-.5.25-.653a.976.976 0 0 1 .683-.254zm-58.369 1.256-.494.008v.176c-.248.073-.52.092-.715.26l-.008.008-.007.005c-.35.33-.52.811-.52 1.323l-.193 2.742h-1.58l-.112.006-.015.002a1.353 1.353 0 0 0-1.21 1.338v.023l.01.111v.002a1.348 1.348 0 0 0 1.342 1.21h1.473l.004 8.523v.246c.031 1.789.429 3.16 1.3 4.031h.003v.002c.828.838 1.97 1.273 3.322 1.318h.004l.23.004h2.535v-.191c.574-.246.997-.768.948-1.412a1.49 1.49 0 0 0-1.455-1.373h-.002l-1.471-.004h-.162a2.526 2.526 0 0 1-.717-.102c-.091-.028-.233-.133-.393-.344v-.002c-.042-.06-.162-.524-.232-1.015a14.652 14.652 0 0 1-.086-1.668v-.004l-.004-.244v-7.766l2.633.004.111-.01h.002a1.354 1.354 0 0 0 1.211-1.336v-.013l-.006-.112-.002-.013a1.356 1.356 0 0 0-1.337-1.211h-2.612V44.89c0-.505-.193-.988-.554-1.315h-.002v-.002a1.827 1.827 0 0 0-1.233-.46l-.006-.003zm.006 1.002h.012a.826.826 0 0 1 .555.207c.156.143.222.287.222.57v3.743h3.61a.345.345 0 0 1 .345.314v.033a.34.34 0 0 1-.31.342l-.059.006-3.586-.004v8.774l.004.246c-.003.595.029 1.19.094 1.781v.008l.002.008c.07.49.083 1.005.406 1.46l.004.006.002.004c.23.31.513.593.914.715l.002.002h.004a3.5 3.5 0 0 0 1.002.14h.16l1.457.005a.477.477 0 0 1 .475.447v.002a.483.483 0 0 1-.403.52l-.033.003h-.516v.004h-1.527l-.209-.004c-1.164-.039-2.013-.382-2.646-1.023l-.002-.002c-.602-.601-.98-1.691-1.01-3.334v-.238l-.004-9.524h-2.479a.334.334 0 0 1-.34-.306l-.003-.04a.341.341 0 0 1 .31-.343l.047-.002h2.49l.26-3.725v-.017c0-.312.071-.459.201-.584a.782.782 0 0 1 .55-.194zm14.555 3.52c-1.26 0-2.267.387-3.17 1.103-.332.263-.584.582-.838.899v-.065l-.004-.043c-.009-.53-.208-1.025-.576-1.369a1.863 1.863 0 0 0-1.313-.523 1.983 1.983 0 0 0-1.351.515v.002h-.002c-.39.36-.578.884-.578 1.438v12.945c.01.546.194 1.049.554 1.399l.004.004.004.003c.36.334.836.514 1.326.506.498.004.977-.183 1.34-.523.39-.365.596-.89.596-1.451v-7.934c.016-1.078.374-1.876 1.07-2.508.734-.658 1.587-.98 2.989-.98.454 0 .903-.169 1.191-.51l.002-.004.004-.004c.26-.321.398-.725.39-1.138a1.88 1.88 0 0 0-.425-1.192 1.537 1.537 0 0 0-1.213-.57zm17.683 0c-2.06-.004-3.824.777-5.005 2.101-.148-.179-.288-.365-.46-.523l-.005-.004-.004-.006c-.779-.68-1.798-1.114-3.07-1.355-.757-.146-1.336-.193-2.176-.198h-.002c-.803 0-1.172.03-1.797.159-1.025.21-2.018.672-2.674 1.3h-.002c-.283.272-.473.652-.473 1.018 0 .207.05.432.127.594.22.46.696.779 1.202.806.107.008.258.013.406-.025.15-.038.283-.094.549-.197.89-.341 1.223-.424 1.927-.508a11.06 11.06 0 0 1 1.774.016c1.438.187 2.182.634 2.486 1.26.14.291.163.38.2.769v.004c.03.308.011.556-.112 1.443l-.018.115a30.005 30.005 0 0 1-.257-.047h-.004c-1.56-.276-2.62-.378-3.854-.378-1.739 0-2.896.215-4.013.779-1.495.752-2.394 2.114-2.596 3.896-.183 1.569.299 2.99 1.379 4.035 1.061 1.022 2.511 1.594 4.32 1.752l.016.002h.015a13.05 13.05 0 0 0 1.582-.056l.012-.002h.01c1.05-.146 2.08-.496 2.848-1.004v-.002h.001c.426-.283.781-.651 1.122-1.031.402.48.864.916 1.488 1.23.91.46 1.908.704 3.277.824h.01c.648.043 1.3.04 1.947-.011h.018c1.274-.146 2.375-.569 3.244-1.272l.002-.002c.382-.309.625-.745.63-1.191v-.006c0-.542-.27-.973-.743-1.223l-.002-.002-.002-.002c-.272-.14-.486-.208-.84-.144l-.026.004-.023.008a6.78 6.78 0 0 0-.611.205c-.984.364-1.246.432-1.975.511a6.602 6.602 0 0 1-.986.03h-.012c-1.083-.023-1.726-.164-2.365-.483-.631-.318-.886-.63-1.035-1.213v-.002l-.002-.002c-.053-.198-.05-.173-.045-.64v-.004c0-.453.01-.54.095-1.117v-.004l.026-.17.088.016.203.033.492.093h.006c.614.103 1.231.183 1.852.24h.003c.818.07 2.005.081 2.723.012 1.36-.13 2.449-.467 3.328-1.064 1.094-.744 1.75-1.847 2.004-3.3v-.003c.039-.224.043-.497.043-.94 0-.698-.04-.998-.2-1.495-.307-.963-1.024-1.867-1.925-2.477h-.002c-1.12-.755-2.58-1.152-4.139-1.152zm20.477.002a1.98 1.98 0 0 0-1.354.515l-.001.002-.002.004c-.382.359-.577.877-.577 1.434v12.89l.004.155v.008c.03.499.21.961.551 1.29l.006.006.006.004c.358.327.826.503 1.316.504.499.005.98-.18 1.344-.521l.002-.002c.39-.365.596-.89.596-1.451V49.574l-.008-.148a1.885 1.885 0 0 0-.57-1.266 1.859 1.859 0 0 0-1.313-.525zm-44.064.998h.011a.86.86 0 0 1 .614.244l.003.006.006.004c.168.156.253.338.258.656v.014l.004.05v1.971l.982.135c.246-.882.727-1.597 1.477-2.192.77-.61 1.48-.888 2.549-.888.231 0 .324.048.428.183l.005.008.006.008a.8.8 0 0 1 .201.566v.012a.758.758 0 0 1-.168.488c-.087.103-.174.153-.421.153-1.568 0-2.744.415-3.659 1.236l-.002.002c-.894.811-1.38 1.935-1.398 3.244v7.94c0 .344-.091.545-.28.72v.002a.938.938 0 0 1-.652.254h-.015a.907.907 0 0 1-.63-.24c-.152-.15-.24-.34-.247-.691V49.59c0-.352.085-.543.258-.703a.978.978 0 0 1 .67-.254zm23.585 0h.002c1.388 0 2.662.361 3.58.98.716.485 1.312 1.26 1.534 1.953.146.457.152.515.152 1.192 0 .424-.02.727-.027.77-.222 1.265-.7 2.044-1.582 2.644-.709.48-1.613.777-2.862.896-.593.057-1.8.051-2.539-.011H86.4a24.576 24.576 0 0 1-1.763-.229l-.012-.002-.486-.092-.213-.035c-.154-.025-.301-.05-.412-.066l-.139-.02-.05-.008-.034-.001c-.008-.001-.019-.003-.039-.002l-.045.002-.129.03-.101.038-.077.076-.086.117-.025.051-.016.045c-.005.019-.006.028-.007.035a.157.157 0 0 0-.006.03l-.01.05-.023.149c-.02.123-.045.29-.07.474l.001-.002c-.086.583-.107.788-.107 1.26v.004c-.004.471.016.662.078.896.21.822.746 1.451 1.557 1.86h.001c.783.39 1.622.563 2.788.588h.002c.375.016.753.004 1.127-.035h.001c.777-.085 1.207-.195 2.221-.57l.004-.003.004-.002a5.79 5.79 0 0 1 .482-.162c-.057.016.169.039.194.047v.002c.043.024.205.295.207.334-.003.226.016.201-.258.422-.7.567-1.604.926-2.727 1.055-.594.045-1.191.049-1.787.01-1.289-.115-2.128-.328-2.904-.72v-.001c-.601-.303-1.03-.662-1.355-1.11l-.514-.709-.414.41a1.606 1.606 0 0 0-.176.21 5.032 5.032 0 0 1-1.156 1.062c-.59.39-1.511.715-2.424.844-.476.045-.954.064-1.432.052-1.643-.146-2.83-.637-3.699-1.472-.872-.844-1.235-1.888-1.082-3.2v-.001c.173-1.529.83-2.502 2.053-3.118.968-.488 1.903-.673 3.564-.673 1.178 0 2.15.093 3.674.363a32.089 32.089 0 0 0 .68.117l.056.01c.018.002-.006.006.09.006a.569.569 0 0 0 .375-.162c.07-.074.092-.129.11-.17.035-.083.044-.131.056-.192.025-.12.047-.275.082-.523v-.002c.125-.9.157-1.272.116-1.682a3.012 3.012 0 0 0-.291-1.101v-.004c-.503-1.037-1.655-1.612-3.266-1.82h-.01l-.01-.003a12.157 12.157 0 0 0-1.963-.017l-.011.002h-.012c-.76.09-1.248.216-2.174.57h-.002a7.288 7.288 0 0 1-.44.162c-.036.01.015.006-.093-.002l-.006-.002h-.004c-.228-.012-.253-.026-.353-.238v-.002l-.002-.002c-.055-.111-.028.007-.028-.16 0-.18-.038-.098.166-.295.456-.435 1.33-.868 2.184-1.043.586-.12.813-.139 1.594-.139.807.004 1.284.042 1.99.178v.002c1.155.219 1.987.591 2.6 1.127h.002c.213.198.403.418.57.656l-.012-.02c.03.049.06.09.096.134a.651.651 0 0 0 .148.132.491.491 0 0 0 .272.08h.191l.14-.126a1.45 1.45 0 0 0 .227-.256l-.013.021c.945-1.225 2.554-1.947 4.511-1.943zm20.473 0h.012a.86.86 0 0 1 .613.244l.004.004.004.004c.156.146.24.315.258.603l.006.117v12.868c0 .344-.091.545-.28.72v.002a.94.94 0 0 1-.652.254h-.006a.866.866 0 0 1-.639-.242c-.14-.137-.225-.314-.244-.62l-.004-.12V49.59c0-.349.089-.542.26-.703a.981.981 0 0 1 .668-.254zm14.877.281h.002c.194 0 .377.08.508.223l.008.01.01.01c.185.182.242.326.242.503 0 .123-.035.221-.16.36l-.061.064-6.057 5.336 6.575 6.81c.157.163.203.286.203.454 0 .191-.056.331-.252.52l-.008.005-.008.008a.753.753 0 0 1-.547.232h-.006a.7.7 0 0 1-.494-.201l-.082-.082-7.353-7.701 7.072-6.377c.158-.134.277-.174.408-.174zm-35.873.713a4.373 4.373 0 0 0-.775.059 4.22 4.22 0 0 0-1.676.677h-.002c-.894.624-1.504 1.571-1.832 2.766v.004c-.12.446-.161.659-.272 1.418l-.168 1.197.641.076c.392.047 1.288.157 1.799.227l.113.015.235.028c.188.023.378.044.568.06h.002c.466.04 1.174.039 1.681.01l.01-.002.176-.016c.683-.06 1.178-.185 1.717-.445V55.7h.002a2.586 2.586 0 0 0 1.066-.914v-.002h.002c.379-.574.543-1.196.54-1.965-.001-.531-.074-.885-.257-1.28l-.002-.003v-.002c-.467-.995-1.515-1.649-2.796-1.865a4.436 4.436 0 0 0-.772-.041zm.012 1c.25-.003.522.014.59.025h.002c1.044.176 1.765.684 2.058 1.305.148.322.164.39.164.863v.002c.004.646-.09.978-.375 1.41-.187.281-.315.394-.67.567-.449.216-.755.296-1.37.351h-.003l-.148.014c-.452.025-1.17.025-1.543-.006h-.002a15.225 15.225 0 0 1-.53-.056l-.228-.028-.105-.013h-.002a92.636 92.636 0 0 0-1.442-.182l.026-.186v-.002c.108-.748.132-.873.246-1.296.281-1.026.757-1.733 1.441-2.211a3.175 3.175 0 0 1 1.287-.516h.004l.004-.002c.07-.014.344-.036.596-.039zm-57.578.38a2.252 2.252 0 0 0-1.358.335l-4.978 2.8a.62.62 0 0 1-.62 0l-5.04-2.843-.069-.035-.006-.004a2.203 2.203 0 0 0-2.922.922 2.197 2.197 0 0 0 .844 2.943h.002l2.93 1.656.004.002c.019.01.027.027.027.049a.069.069 0 0 1-.035.06l-7.879 4.43a.612.612 0 0 1-.611.002l-.002-.002-4.6-2.592-.07-.037h-.002c-.6-.298-1.228-.315-1.744-.119a2.24 2.24 0 0 0-1.166 1.045 2.24 2.24 0 0 0-.229 1.549c.121.538.48 1.052 1.06 1.389l.003.002 2.476 1.396c.067.039.067.082 0 .121L3.59 65.47l-.063.037c-.594.35-.954.883-1.062 1.435a2.244 2.244 0 0 0 .285 1.569c.271.46.699.837 1.234 1.01.536.172 1.176.115 1.77-.235l4.586-2.576.002-.002a.62.62 0 0 1 .615 0v.002l7.795 4.39c.066.04.066.083 0 .122l-3.295 1.86-.072.042-.01.006c-.556.362-.888.888-.984 1.428-.096.54.028 1.078.293 1.527.265.449.678.818 1.197.994.519.177 1.138.14 1.724-.172l.006-.002 5.409-3.05a.624.624 0 0 1 .617 0l5.367 3.029.066.031a2.198 2.198 0 0 0 2.92-.918 2.198 2.198 0 0 0-.84-2.945l-.002-.002-3.246-1.828c-.066-.04-.066-.083 0-.121l7.864-4.43v-.002a.624.624 0 0 1 .617 0v.002l4.824 2.717.063.037.01.004a2.202 2.202 0 0 0 2.968-.893 2.199 2.199 0 0 0-.89-2.972l-2.717-1.536-.002-.002a.05.05 0 0 1-.03-.048v-.004c0-.022.01-.04.03-.051h.002l2.714-1.531.073-.043.01-.006c.556-.363.886-.89.982-1.43a2.238 2.238 0 0 0-.291-1.527 2.242 2.242 0 0 0-1.197-.994c-.52-.177-1.14-.14-1.727.172l-.004.003-4.814 2.715a.648.648 0 0 1-.623 0l-7.782-4.383c-.068-.039-.068-.082 0-.12l2.887-1.624.059-.037c.6-.347.967-.88 1.078-1.433a2.242 2.242 0 0 0-.285-1.577 2.249 2.249 0 0 0-1.242-1.015 1.95 1.95 0 0 0-.422-.084zm-.094.993c.073.008.144.023.213.045.274.087.524.297.683.568.16.271.223.59.166.873-.056.283-.214.546-.6.768l-.003.004-.059.033-2.877 1.617-.002.002c-.696.4-.696 1.457 0 1.856l.002.002 7.79 4.386.001.002a1.64 1.64 0 0 0 1.594 0h.002l4.805-2.71c.368-.196.665-.199.931-.108.267.09.505.294.659.555.153.26.217.566.168.843-.05.277-.195.538-.543.766l-.002.002-.036.02-2.697 1.52a1.06 1.06 0 0 0-.547.935c.001.382.21.74.55.925l2.718 1.537.006.004c.586.314.8 1.029.484 1.614v.002c-.315.585-1.031.8-1.617.486l-.045-.027-4.83-2.721a1.627 1.627 0 0 0-1.604 0h-.002l-7.87 4.435-.005.002c-.686.402-.686 1.447 0 1.848l.004.002 3.256 1.834c.565.325.765 1.026.455 1.6v.001h-.002a1.181 1.181 0 0 1-1.586.5l-.005-.001-.053-.026-5.334-3.012a1.627 1.627 0 0 0-1.604 0h-.002l-5.388 3.041h-.002c-.368.196-.668.198-.934.108a1.257 1.257 0 0 1-.658-.555 1.256 1.256 0 0 1-.168-.844c.05-.277.195-.537.545-.765l.037-.022 3.297-1.86.002-.001c.686-.401.686-1.446 0-1.848l-.002-.002-7.803-4.396a1.623 1.623 0 0 0-1.601 0h-.002L5.25 68.422l-.004.002c-.379.223-.682.232-.955.144a1.268 1.268 0 0 1-.68-.566 1.263 1.263 0 0 1-.166-.867c.056-.282.212-.545.59-.768l.055-.031 2.482-1.395.004-.002c.688-.4.688-1.446 0-1.847l-.004-.002-2.476-1.397v-.002c-.365-.212-.526-.466-.588-.742a1.262 1.262 0 0 1 .135-.857 1.25 1.25 0 0 1 .64-.582c.265-.1.564-.11.944.078l.044.023 4.58 2.582c.495.281 1.101.28 1.596 0l7.881-4.43c.332-.188.539-.54.543-.921v-.002a1.06 1.06 0 0 0-.55-.936l-2.917-1.648a1.186 1.186 0 0 1-.46-1.602 1.19 1.19 0 0 1 1.593-.5l.043.022 5.03 2.838a1.63 1.63 0 0 0 1.599 0l5-2.813.006-.004c.285-.172.528-.22.748-.197zm47.67 4.012-.53.031c-1.072.063-1.627.183-2.302.516v.002c-.37.182-.669.407-.897.693v.002l-.002.002a3.22 3.22 0 0 0-.603 1.275l-.002.002c-.06.251-.074.532-.076.832-.003.298-.004.547.068.81.113.483.364.923.719 1.268.517.543 1.203.896 2 1.067.368.078.476.09 1.096.078.458-.01.672-.02.9-.07a4.31 4.31 0 0 0 2.246-1.29l.002-.003.002-.002c.534-.595.935-1.424 1.158-2.34.072-.284.148-.73.207-1.135.03-.202.053-.391.069-.54.007-.073.013-.134.015-.194a.802.802 0 0 0-.002-.104c-.002-.023-.002-.05-.015-.101a.463.463 0 0 0-.041-.108 1.312 1.312 0 0 0-.057-.088l-.12-.105-.066-.043-.076-.02a1.845 1.845 0 0 0-.312-.054c-.219-.022-.442-.051-.668-.08h-.002c-1.284-.17-2.082-.236-2.711-.249v-.052zm-.27 1.027c.528-.004 1.452.082 2.852.266.146.019.296.035.445.052-.01.085-.017.152-.031.248a13.74 13.74 0 0 1-.186 1.036v.002l-.002.002c-.188.777-.545 1.48-.93 1.91a3.303 3.303 0 0 1-1.722.988c-.137.03-.257.038-.705.047-.619.012-.497.022-.865-.057h-.002c-.645-.138-1.127-.396-1.49-.78l-.008-.007-.01-.008a1.601 1.601 0 0 1-.45-.793l-.001-.011-.004-.012c.001.004-.035-.289-.033-.547.002-.258.033-.547.049-.61l.001-.005v-.004c.073-.32.215-.62.416-.879l.002-.002c.132-.165.278-.282.553-.418.577-.284.898-.348 1.895-.408l.027-.002c.066-.004.133-.008.2-.008zm-53.955 1.408c-.276 0-.553.071-.8.211h-.003l-7.873 4.43h-.002c-.7.395-.7 1.46 0 1.855l7.795 4.393a1.63 1.63 0 0 0 1.604.002l7.865-4.438c.7-.393.7-1.458 0-1.851l-7.787-4.39a1.616 1.616 0 0 0-.799-.212zm-.002 1c.106 0 .211.028.307.082h.002l7.789 4.39.002.003c.064.036.064.071 0 .107h-.002l-7.867 4.438a.61.61 0 0 1-.616 0h-.001l-7.797-4.395c-.066-.037-.066-.076 0-.113l7.875-4.43h.002a.621.621 0 0 1 .306-.082zm72.824 7.381a.45.45 0 0 0-.347.137.503.503 0 0 0-.121.289l-.004.094V82.46a.525.525 0 0 0 .137.375.441.441 0 0 0 .335.146.453.453 0 0 0 .352-.134.474.474 0 0 0 .117-.291l.008-.096V76.5c0-1.191.35-2.144 1.05-2.86.7-.713 1.63-1.074 2.79-1.074 1.039 0 1.794.27 2.258.801.442.504.672 1.285.699 2.352l.004.215v6.527c0 .167.04.297.12.387a.465.465 0 0 0 .352.136.453.453 0 0 0 .352-.136.474.474 0 0 0 .117-.29l.008-.093V75.82c0-1.37-.337-2.405-1.008-3.105-.669-.702-1.659-1.05-2.969-1.05-.859 0-1.62.187-2.285.562a3.563 3.563 0 0 0-1.402 1.453l-.086.175v-6.507a.55.55 0 0 0-.125-.383.451.451 0 0 0-.352-.137zm-37.527 4.836c-.813 0-1.516.188-2.113.563a3.482 3.482 0 0 0-1.266 1.453l-.078.175v-1.628a.59.59 0 0 0-.113-.383c-.074-.09-.188-.137-.34-.137-.289 0-.445.148-.469.438l-.004.082V82.46a.565.565 0 0 0 .125.375.432.432 0 0 0 .348.146.435.435 0 0 0 .352-.146.549.549 0 0 0 .12-.285l.005-.09V76.5c0-1.207.308-2.164.925-2.871.618-.707 1.462-1.063 2.532-1.063.918 0 1.59.27 2.011.801.395.504.605 1.285.63 2.352v6.742a.587.587 0 0 0 .124.375.44.44 0 0 0 .352.148.435.435 0 0 0 .351-.148.514.514 0 0 0 .117-.285l.004-.09V76.5c0-1.207.312-2.164.942-2.871.625-.707 1.465-1.063 2.515-1.063.922 0 1.59.27 2.012.801.395.504.606 1.285.633 2.352v6.742a.565.565 0 0 0 .125.375.435.435 0 0 0 .352.148.432.432 0 0 0 .347-.148.519.519 0 0 0 .121-.285l.004-.086V75.82c0-2.773-1.203-4.156-3.613-4.156-.844 0-1.59.196-2.238.586a3.504 3.504 0 0 0-1.422 1.605c-.5-1.46-1.63-2.19-3.39-2.19zm18.774 0c-.992 0-1.875.238-2.641.711-.77.477-1.363 1.14-1.785 2-.423.859-.633 1.85-.633 2.98 0 1.761.47 3.15 1.41 4.16.942 1.009 2.235 1.512 3.875 1.512 1.16 0 2.281-.324 3.367-.972.285-.18.485-.34.598-.485a.708.708 0 0 0 .172-.441.41.41 0 0 0-.113-.281.365.365 0 0 0-.27-.125c-.093 0-.297.106-.613.316a7.13 7.13 0 0 1-1.387.77c-.477.195-1.074.293-1.797.293-1.328 0-2.356-.399-3.086-1.196-.687-.758-1.058-1.812-1.113-3.172l-.004-.242h7.773c.27 0 .457-.06.563-.18.105-.12.16-.315.16-.59 0-1.565-.4-2.8-1.2-3.702-.795-.906-1.89-1.356-3.273-1.356h-.003zm11.164 0c-1.161 0-2.106.293-2.836.879-.731.59-1.094 1.352-1.094 2.285 0 .766.285 1.382.855 1.852.575.465 1.524.852 2.848 1.152.797.18 1.414.363 1.84.555.43.187.738.41.93.664.187.258.28.582.28.972 0 .665-.265 1.176-.788 1.536-.532.363-1.282.543-2.262.543-.723 0-1.32-.101-1.797-.305a7.155 7.155 0 0 1-1.367-.781l-.258-.168c-.129-.082-.23-.125-.305-.125a.368.368 0 0 0-.273.125.408.408 0 0 0-.113.28.667.667 0 0 0 .16.442c.106.13.31.289.61.485a6.09 6.09 0 0 0 1.581.715 6.245 6.245 0 0 0 1.762.257c1.234 0 2.227-.274 2.973-.824.746-.55 1.117-1.277 1.117-2.18 0-.57-.117-1.044-.352-1.414-.234-.368-.63-.683-1.183-.949-.56-.262-1.355-.52-2.395-.777-.738-.164-1.308-.34-1.707-.52-.398-.179-.683-.394-.847-.644-.165-.25-.25-.566-.25-.961 0-.644.26-1.171.78-1.57.52-.398 1.2-.598 2.044-.598.648 0 1.187.098 1.617.293a6.459 6.459 0 0 1 1.23.746c.274.226.47.34.59.34a.36.36 0 0 0 .27-.125.406.406 0 0 0 .113-.281.78.78 0 0 0-.191-.489 3.428 3.428 0 0 0-.621-.55 4.61 4.61 0 0 0-1.356-.633 5.588 5.588 0 0 0-1.605-.227zm-11.16.879c1.112 0 1.98.35 2.597 1.05.617.705.942 1.708.969 3.016H73.48c.122-1.277.534-2.277 1.23-2.992.7-.714 1.622-1.074 2.77-1.074z"/>
</svg>
