<svg xmlns="http://www.w3.org/2000/svg" viewBox="0 0 128 128"><path d="M77.994 73.913c1.448 0 2.592.47 3.426 1.419.838.944 1.256 2.235 1.256 3.875 0 .286-.058.49-.168.617-.111.126-.307.189-.59.189h-8.133l.004.252c.057 1.423.445 2.526 1.164 3.32.764.833 1.84 1.25 3.23 1.25.756 0 1.381-.102 1.88-.306a7.461 7.461 0 0 0 1.452-.806c.33-.22.544-.33.641-.33.107 0 .2.045.283.13a.429.429 0 0 1 .118.293.74.74 0 0 1-.18.463c-.118.152-.328.32-.626.508-1.136.678-2.31 1.017-3.523 1.017-1.716 0-3.07-.528-4.055-1.581-.985-1.06-1.476-2.51-1.476-4.354 0-1.182.22-2.22.663-3.12.441-.9 1.062-1.593 1.868-2.092.801-.495 1.724-.743 2.762-.743zm11.679 0c.586 0 1.14.077 1.68.237a4.826 4.826 0 0 1 1.42.662c.298.216.514.413.648.576.132.168.201.335.201.512a.425.425 0 0 1-.118.293.377.377 0 0 1-.283.132c-.125 0-.33-.12-.617-.356a6.759 6.759 0 0 0-1.287-.78c-.45-.204-1.014-.307-1.692-.307-.884 0-1.595.21-2.138.625-.544.417-.818.969-.818 1.643 0 .413.09.745.262 1.006.172.262.47.487.886.674.418.189 1.014.373 1.787.544 1.088.27 1.921.54 2.506.814.58.278.993.608 1.238.993.246.388.368.883.368 1.48 0 .944-.388 1.705-1.169 2.28-.78.576-1.82.863-3.11.863a6.535 6.535 0 0 1-1.845-.27 6.373 6.373 0 0 1-1.655-.747c-.314-.205-.528-.373-.638-.508a.698.698 0 0 1-.168-.461c0-.111.042-.21.12-.294a.385.385 0 0 1 .285-.131c.079 0 .184.045.32.13l.27.176c.458.331.936.605 1.43.817.499.213 1.124.32 1.88.32 1.026 0 1.81-.189 2.367-.568.548-.377.826-.912.826-1.608 0-.408-.098-.747-.294-1.017-.201-.266-.523-.5-.973-.695-.446-.2-1.092-.392-1.926-.58-1.385-.314-2.378-.72-2.98-1.206-.597-.492-.895-1.137-.895-1.938 0-.976.38-1.774 1.145-2.391.764-.613 1.753-.92 2.968-.92zm7.942-5.06c.16 0 .283.049.369.143a.576.576 0 0 1 .13.4v6.81l.09-.183a3.728 3.728 0 0 1 1.467-1.52c.695-.393 1.493-.59 2.392-.59 1.37 0 2.407.364 3.108 1.099.702.732 1.053 1.815 1.053 3.25v6.954l-.008.098a.496.496 0 0 1-.122.302.474.474 0 0 1-.368.143.487.487 0 0 1-.368-.143c-.086-.094-.126-.23-.126-.405v-6.83l-.004-.225c-.029-1.116-.27-1.934-.733-2.46-.485-.557-1.274-.838-2.362-.838-1.214 0-2.187.376-2.92 1.124-.734.747-1.098 1.745-1.098 2.992v6.236l-.008.104a.496.496 0 0 1-.123.302.474.474 0 0 1-.368.143.462.462 0 0 1-.35-.155.55.55 0 0 1-.144-.392V69.397l.004-.099a.526.526 0 0 1 .126-.303.47.47 0 0 1 .364-.143zm-31.891 5.06c2.522 0 3.78 1.447 3.78 4.349v6.954l-.004.09a.543.543 0 0 1-.125.298.452.452 0 0 1-.364.155.455.455 0 0 1-.369-.155.591.591 0 0 1-.13-.393v-7.055c-.029-1.116-.25-1.934-.663-2.46-.441-.557-1.14-.838-2.105-.838-1.1 0-1.978.371-2.632 1.111-.66.74-.986 1.742-.986 3.005v6.236l-.004.095a.538.538 0 0 1-.122.299.455.455 0 0 1-.368.155.46.46 0 0 1-.368-.155.614.614 0 0 1-.131-.393v-7.055c-.024-1.116-.245-1.934-.658-2.46-.442-.557-1.144-.838-2.105-.838-1.12 0-2.002.371-2.65 1.111-.645.74-.967 1.742-.967 3.005v6.236l-.004.095a.575.575 0 0 1-.127.299.455.455 0 0 1-.368.155.452.452 0 0 1-.364-.155.591.591 0 0 1-.131-.393V74.502l.004-.086c.025-.303.188-.458.49-.458.16 0 .279.05.357.143a.617.617 0 0 1 .118.401v1.704l.081-.183a3.644 3.644 0 0 1 1.325-1.52c.625-.393 1.36-.59 2.211-.59 1.844 0 3.025.764 3.548 2.293a3.667 3.667 0 0 1 1.489-1.68c.678-.408 1.459-.613 2.342-.613zm12.27.92c-1.2 0-2.166.376-2.898 1.124-.73.748-1.16 1.794-1.287 3.13h7.918c-.028-1.368-.368-2.419-1.014-3.154-.646-.733-1.553-1.1-2.719-1.1zm38.502-32.637c.393 0 .729.131 1.015.393.262.233.408.548.432.945l.008.135v12.92l7.428-6.7c.24-.203.498-.306.768-.306.352 0 .658.135.92.405.27.266.408.568.408.9 0 .265-.101.506-.301.726l-.09.094-5.944 5.237 6.498 6.733c.242.249.361.527.361.837 0 .344-.143.65-.425.92a1.312 1.312 0 0 1-.953.405 1.256 1.256 0 0 1-.886-.36l-.094-.095-7.69-8.052v7.018c0 .455-.154.822-.457 1.096a1.54 1.54 0 0 1-1.046.393 1.517 1.517 0 0 1-1.031-.377c-.253-.237-.392-.559-.417-.972l-.004-.14V43.668c0-.458.147-.818.438-1.08a1.584 1.584 0 0 1 1.062-.392zm-5.91 7.093c.392 0 .727.135 1.014.405.262.245.408.571.433.98l.008.14v13.481c0 .474-.156.854-.458 1.136a1.505 1.505 0 0 1-1.047.409c-.4 0-.743-.131-1.03-.393-.253-.245-.392-.58-.417-1.004l-.004-.148V50.814c0-.474.148-.847.438-1.12a1.549 1.549 0 0 1 1.063-.405zm-3.97-7.093.05.004a1.036 1.036 0 0 1 .032 2.057l-.098.008h-1.532c-.458 0-.818.042-1.072.127-.257.077-.486.282-.686.565-.193.269-.262.78-.335 1.294a15.9 15.9 0 0 0-.094 1.816l-.004.257v.965h2.661a.887.887 0 1 1 0 1.774l-2.661-.004v13.293c0 .409-.123.748-.368 1.01l-.09.085a1.53 1.53 0 0 1-1.043.393c-.404 0-.748-.126-1.03-.377-.253-.236-.397-.559-.421-.972l-.003-.14V51.06h-2.363a.885.885 0 1 1 0-1.77h2.363v-1.758c0-1.93.404-3.298 1.214-4.108.764-.773 1.806-1.182 3.118-1.223l.238-.004zM89.159 49.29c1.541 0 2.972.397 4.04 1.116.845.572 1.532 1.451 1.81 2.317.16.5.184.687.184 1.407 0 .453-.013.755-.037.895-.249 1.423-.842 2.407-1.876 3.11-.83.565-1.873.895-3.238 1.026-.686.066-1.941.058-2.755-.011a26.253 26.253 0 0 1-1.9-.246l-.515-.098-.217-.037c-.32-.053-.609-.098-.617-.094-.005.004-.053.319-.107.7-.09.609-.106.76-.106 1.245-.004.496.004.582.065.81.188.735.602 1.226 1.357 1.607.744.372 1.52.535 2.698.56a7.43 7.43 0 0 0 1.112-.033c.79-.086 1.148-.18 2.199-.569a6.593 6.593 0 0 1 .593-.199c.14-.025.397.025.548.102.27.142.499.515.499.817-.004.356-.123.569-.467.847-.821.665-1.872 1.075-3.127 1.218-.45.05-1.471.057-1.962.012-1.394-.123-2.354-.364-3.238-.81-.69-.347-1.213-.78-1.606-1.32l-.18-.25a1.151 1.151 0 0 0-.142.173 5.783 5.783 0 0 1-1.33 1.222c-.71.47-1.732.825-2.762.969a13.238 13.238 0 0 1-1.595.056c-1.81-.159-3.191-.714-4.202-1.688-1.021-.989-1.463-2.277-1.287-3.785.195-1.732 1.01-2.955 2.432-3.67 1.091-.552 2.187-.76 3.966-.76 1.262 0 2.325.101 3.94.387.4.074.743.132.768.132.036 0 .061-.131.136-.647.13-.936.155-1.259.117-1.635-.04-.433-.094-.641-.257-.981-.421-.87-1.414-1.405-3.013-1.614a12.196 12.196 0 0 0-1.97-.016c-.769.09-1.198.2-2.15.564-.56.216-.56.216-.785.2-.384-.022-.646-.196-.813-.548-.07-.143-.083-.2-.083-.396 0-.286.079-.442.335-.687.581-.557 1.56-1.025 2.543-1.226.634-.131.945-.156 1.775-.156.862.004 1.414.049 2.179.196 1.271.241 2.239.663 2.967 1.3.217.193.544.565.683.78.041.067.085.12.098.12a.993.993 0 0 0 .155-.176c1.104-1.431 2.96-2.24 5.138-2.236zm-18.504 0c.367 0 .658.13.862.397.22.265.33.572.33.927 0 .331-.097.617-.292.858-.197.233-.48.348-.848.348-1.553 0-2.616.388-3.479 1.162-.832.755-1.274 1.761-1.29 3.012v8.302c0 .474-.156.854-.458 1.136a1.507 1.507 0 0 1-1.047.409 1.476 1.476 0 0 1-1.03-.393c-.27-.261-.413-.625-.42-1.095V50.814c0-.474.142-.847.436-1.12a1.549 1.549 0 0 1 1.063-.405c.392 0 .728.135 1.015.405.281.262.429.617.436 1.062l.004.058v2.08c.286-1.025.862-1.88 1.725-2.564.875-.694 1.774-1.04 2.993-1.04zm-15.231-4.73c.36 0 .675.12.94.352.273.246.408.572.408.985v3.393h3.255a.89.89 0 0 1 .882.797l.004.09a.886.886 0 0 1-.796.878l-.09.009-3.255-.004v8.654l.005.253c.004.752.036 1.357.094 1.814.073.515.143 1.031.335 1.3.205.278.429.483.687.561.224.073.523.118.903.126h.168l1.533.005a1.03 1.03 0 0 1 1.01.952 1.036 1.036 0 0 1-.851 1.099l-.094.012h-.05v.005h-2.124l-.233-.005c-1.317-.044-2.359-.453-3.124-1.226-.772-.772-1.177-2.06-1.21-3.858v-.25l-.004-9.442h-2.069a.879.879 0 0 1-.879-.794l-.007-.09c0-.457.348-.837.796-.882l.09-.004h2.131l.237-3.393c0-.433.126-.763.38-1.001.254-.22.565-.335.928-.335zM77.63 58.09c-1.1.066-1.548.164-2.208.487-.339.168-.571.348-.76.584a2.846 2.846 0 0 0-.535 1.13c-.082.33-.09 1.2-.013 1.479a2.197 2.197 0 0 0 .618 1.087c.462.487 1.075.806 1.83.968.39.083.378.083 1.026.07.475-.008.651-.02.843-.061.818-.189 1.549-.605 2.077-1.193.481-.536.879-1.342 1.096-2.23.125-.497.326-1.887.282-1.915a1.389 1.389 0 0 0-.237-.042 21.632 21.632 0 0 1-.724-.085c-1.685-.22-2.715-.31-3.295-.274zm10.264-6.662c-.6.11-1.107.314-1.553.625-.826.576-1.394 1.444-1.713 2.604-.123.458-.155.633-.27 1.423l-.102.722.14.017c.412.05 1.348.163 1.892.238l.115.015.24.03c.238.028.463.052.576.06.438.037 1.186.037 1.689.009l.176-.017c.679-.06 1.098-.167 1.614-.416.43-.21.675-.421.912-.777.347-.527.482-1.025.478-1.766 0-.528-.045-.748-.22-1.124-.397-.847-1.325-1.455-2.543-1.66-.303-.052-1.12-.045-1.431.017zm22.683-9.23c.523 0 .948.143 1.271.433.323.283.487.654.487 1.124 0 .458-.164.834-.487 1.124-.323.283-.752.421-1.287.421-.536 0-.965-.142-1.287-.42a1.445 1.445 0 0 1-.488-1.125c0-.458.163-.834.487-1.124.331-.29.768-.434 1.304-.434zm0 0"/><path fill="#9d0fb0" d="m15.503 53.029.06.033 5.27 2.972c.36.204.797.204 1.16 0l5.225-2.939a1.772 1.772 0 1 1 1.799 3.053l-.062.037-3.017 1.695a.597.597 0 0 0 0 1.035l8.148 4.591a1.198 1.198 0 0 0 1.16 0l5.036-2.841a1.775 1.775 0 0 1 1.803 3.054l-.062.036-2.833 1.598a.582.582 0 0 0-.302.516.58.58 0 0 0 .303.51l2.849 1.611a1.768 1.768 0 0 1 .72 2.4 1.773 1.773 0 0 1-2.4.723l-.062-.037-5.052-2.845a1.175 1.175 0 0 0-1.162 0l-8.235 4.64a.597.597 0 0 0 0 1.03l3.404 1.917a1.77 1.77 0 0 1 .68 2.38 1.768 1.768 0 0 1-2.36.742l-.065-.031-5.6-3.16a1.175 1.175 0 0 0-1.162 0l-5.652 3.188a1.775 1.775 0 0 1-1.803-3.054l.061-.036 3.45-1.947a.597.597 0 0 0 0-1.03L8.64 68.273a1.175 1.175 0 0 0-1.161 0L2.67 70.974A1.772 1.772 0 0 1 .872 67.92l.062-.037 2.6-1.458a.597.597 0 0 0 0-1.031L.937 63.93a1.774 1.774 0 0 1 1.68-3.123l.062.032 4.803 2.707c.359.204.796.204 1.156 0l8.245-4.636a.6.6 0 0 0 .304-.515.582.582 0 0 0-.304-.515l-3.062-1.73a1.77 1.77 0 0 1-.682-2.378 1.776 1.776 0 0 1 2.363-.744zm5.326 7.73-8.24 4.636a.591.591 0 0 0 0 1.03l8.157 4.598c.36.205.798.205 1.162 0l8.232-4.643a.588.588 0 0 0 0-1.026l-8.15-4.594a1.175 1.175 0 0 0-1.16 0zm0 0"/></svg>
