<svg xmlns="http://www.w3.org/2000/svg" viewBox="0 0 128 128"><path fill="#716955" d="M36.806 36.255c-1.083 0-2.167-.65-2.708-1.624l-.867-1.517-.108 1.733-.108.758c0 3.25 2.6 5.85 5.849 5.85s5.849-2.6 5.849-5.85c0-3.14-2.383-5.632-5.524-5.849l-1.733-.108 1.3 1.083c.758.542 1.19 1.408 1.19 2.383 0 1.842-1.407 3.141-3.14 3.141zm-.542-13.106c4.983 0 9.099 3.358 10.507 7.799.758-2.166 2.058-4.008 3.79-5.524-16.138-1.083-23.07-15.381-23.07-15.381l-.434 18.089c1.95-3.033 5.416-4.983 9.207-4.983zm25.563 20.58c3.683 0 6.607-3.033 6.607-6.607 0-3.575-2.816-6.5-6.282-6.607l-1.517-.109 1.192.975c.866.758 1.408 1.842 1.408 2.925 0 2.058-1.733 3.79-3.791 3.79-1.408 0-2.6-.757-3.358-1.949l-.65-1.408-.217 1.516-.108.867c.108 3.683 3.033 6.607 6.716 6.607zM125.3 90.414l-1.192-4.116c-2.491-8.882-4.44-15.814-12.131-15.164-1.192.108-2.167.433-3.033 1.083l-7.799-4.875h-.217l-.65-1.841-1.191.758a61.006 61.006 0 0 0-7.907-4.224c8.882-10.615 13.756-29.246 10.29-59.791-.325-2.708-1.733-3.141-2.708-.325-.867 2.6-6.066 18.089-33.037 22.53 3.575 2.274 5.958 6.282 5.958 10.832 0 7.04-5.741 12.78-12.782 12.78-6.066 0-11.156-4.223-12.456-9.856-1.625 4.008-5.524 6.716-10.074 6.716-4.549 0-8.448-2.816-10.073-6.716l-.325.542-.433-.65c-5.308-7.366-13.757-10.182-19.064-6.5-5.2 3.792-5.2 12.782.108 20.148 4.441 6.174 11.048 9.098 16.14 7.799 15.055 11.048 42.46 20.688 60.982 8.882 3.683 2.058 7.799 4.116 11.59 5.416v.108l.325 1.191 1.625-.65.216.217 8.666 3.141c.108 2.708 1.733 5.741 5.307 7.15 6.607 2.49 12.89 5.74 12.998 5.848l.975.542zM15.359 38.964c0 3.14-2.166 5.74-4.766 5.74s-4.766-2.6-4.766-5.74 2.166-5.742 4.766-5.742 4.766 2.6 4.766 5.741zm65.207 18.738c-3.141-1.083-5.524-1.841-6.066-1.95-1.95-.866-3.791-.325-4.441 1.192-.433 1.083 0 2.383.867 3.358-6.174 2.708-16.248 1.516-29.138-3.033 18.09 3.574 27.296.216 32.712-3.9-1.408-1.84-3.9-3.899-3.9-3.899s6.283 1.733 8.558 4.658c1.191 1.408 1.408 2.383 1.408 3.574zM29.548 88.031l-5.199 30.112 9.749-.216-.758 2.707-9.749.434-.975 6.715 17.006-.541 6.716-39.32zm5.741 22.747-3.358.108 2.708-15.49 3.25-.108zm12.782-16.14-4.766 29.03h6.39l5.2-29.138zm11.048-6.715-6.282 35.094 7.04.109 4.766-27.73 3.033.217-4.874 28.054h6.824l4.982-27.837 3.142-.108-4.983 27.404 6.716-.109 6.065-34.77zM81.974 128h6.716l.758-4.441 9.965-.217 6.39-34.661-16.789-.217zm12.565-32.603 3.033-.109-3.683 21.339-3.25.108zM56.303 84.672h-6.5l-1.082 6.5h6.824z"/></svg>
