<svg xmlns="http://www.w3.org/2000/svg" viewBox="0 0 128 128"><radialGradient id="a" cx="359.596" cy="-303.644" r="45.158" gradientTransform="matrix(1.06683 0 0 -.46407 -321.297 -79.128)" gradientUnits="userSpaceOnUse"><stop offset="0"/><stop offset="1" stop-opacity="0"/></radialGradient><radialGradient id="b" cx="202.968" cy="-16.74" r="47.581" gradientTransform="matrix(1.8915 0 0 -1.38368 -338.863 13.165)" gradientUnits="userSpaceOnUse"><stop offset="0" stop-color="#857C63"/><stop offset="1" stop-color="#221F19"/></radialGradient><linearGradient id="c" x1="377.399" x2="349.841" y1="-70.445" y2="-75.913" gradientTransform="matrix(1.06683 0 0 -1.06683 -325.524 -19.92)" gradientUnits="userSpaceOnUse"><stop offset="0"/><stop offset="1" stop-opacity="0"/></linearGradient><linearGradient id="d" x1="349.459" x2="407.97" y1="-38.103" y2="-104.522" gradientTransform="matrix(1.06683 0 0 -1.06683 -321.43 -20.29)" gradientUnits="userSpaceOnUse"><stop offset="0" stop-color="#fff"/><stop offset="1" stop-color="#fff" stop-opacity="0"/></linearGradient><radialGradient id="e" cx="260.968" cy="17.46" r="8.698" gradientTransform="matrix(1.79761 0 0 -1.79761 -431.74 57.763)" gradientUnits="userSpaceOnUse"><stop offset="0" stop-color="#fff"/><stop offset="1" stop-color="#B9B9B0"/></radialGradient><radialGradient id="f" cx="209.674" cy="-170.214" r="11.954" gradientTransform="matrix(.85027 -.49074 -.57289 -.99322 -262.886 -26.976)" gradientUnits="userSpaceOnUse"><stop offset="0" stop-color="#5B676B"/><stop offset="1" stop-color="#141718"/></radialGradient><linearGradient id="g" x1="157.619" x2="156.868" y1="-207.564" y2="-226.784" gradientTransform="matrix(.852 -.64203 -.64203 -.852 -256.764 -39.57)" gradientUnits="userSpaceOnUse"><stop offset="0" stop-color="#fff"/><stop offset="1" stop-color="#fff" stop-opacity="0"/></linearGradient><radialGradient id="h" cx="238.858" cy="30.974" r="8.698" gradientTransform="matrix(2.1102 0 0 -2.1102 -444.498 91.588)" gradientUnits="userSpaceOnUse"><stop offset="0" stop-color="#fff"/><stop offset="1" stop-color="#B9B9B0"/></radialGradient><linearGradient id="m" x1="367.057" x2="362.519" y1="-72.712" y2="-73.805" gradientTransform="matrix(1.06683 0 0 -1.06683 -321.43 -20.29)" gradientUnits="userSpaceOnUse"><stop offset="0"/><stop offset="1" stop-opacity="0"/></linearGradient><path fill="url(#a)" d="M110.53 61.75c0 11.521-21.55 20.91-48.221 20.91-26.671 0-48.221-9.388-48.221-20.91s21.55-20.91 48.22-20.91c26.672 0 48.222 9.388 48.222 20.91z"/><path fill="url(#b)" stroke="#2e3436" stroke-miterlimit="10" stroke-width="1.067" d="M28.704 10.328s7.574 15.683 25.39 15.256c37.233-.96 43.74-20.376 44.7-23.15.96-2.774 2.348-2.347 2.668.213 12.162 110.097-84.173 62.837-87.587 44.167 19.096-5.548 14.509-16.323 14.509-16.323Z"/><path fill="url(#c)" d="M42.786 56.842c17.816 3.52 26.884.214 32.111-3.84-1.386-1.814-3.84-3.84-3.84-3.84s6.188 1.706 8.428 4.586c2.134 2.774.853 4.588.213 8.108-1.28-3.2-3.627-4.374-3.947-5.654-4.694 6.721-16.536 6.401-32.965.64z"/><path fill="none" stroke="url(#d)" stroke-miterlimit="10" stroke-width="1.067" d="M98.901 8.728c-1.493 2.454-3.734 5.334-7.04 8.215-6.935 5.76-18.564 10.988-37.66 11.415-11.202.32-18.35-5.12-22.724-9.922l-.32 11.842c.32 1.067 1.067 3.627-.213 7.148-1.387 3.734-5.654 7.681-13.122 10.562.64 1.387 1.28 2.773 3.307 4.694 2.667 2.667 6.508 5.547 10.989 8.108 8.96 5.12 20.59 9.174 31.471 9.388 10.882.213 20.697-3.307 27.524-13.229 6.081-9.175 9.602-24.644 7.788-48.22z" opacity=".185"/><path fill="url(#e)" stroke="#888a85" stroke-miterlimit="10" stroke-width=".835" d="M48.013 33.905c0 5.975-4.8 10.775-10.775 10.775s-10.775-4.8-10.775-10.775S31.264 23.13 37.238 23.13s10.775 4.908 10.775 10.775z"/><path fill="url(#f)" stroke="#000" stroke-miterlimit="10" stroke-width="1.067" d="M26.677 37.96c5.227 7.254 5.227 16.002.106 19.736-5.12 3.734-13.442.853-18.67-6.401-5.227-7.255-5.227-16.003-.106-19.737 5.12-3.627 13.442-.746 18.67 6.401Z"/><path fill="#2e3436" stroke="#000" stroke-miterlimit="10" stroke-width="1.252" d="M45.026 35.506c0 2.88-2.347 5.12-5.12 5.12-2.881 0-5.121-2.347-5.121-5.12 0-2.774 2.347-5.121 5.12-5.121 2.774 0 5.121 2.24 5.121 5.12z"/><path fill="none" stroke="url(#g)" stroke-miterlimit="10" stroke-width="1.067" d="M8.86 34.012c-1.6 1.174-2.56 3.307-2.453 6.294.106 2.88 1.173 6.401 3.627 9.602 2.347 3.094 5.44 5.227 8.215 6.08 2.773.854 5.014.64 6.72-.64 1.708-1.28 2.561-3.52 2.561-6.4 0-2.88-1.173-6.401-3.52-9.495-2.347-3.094-5.335-5.228-8.108-6.081-2.88-.853-5.335-.64-7.041.64z" opacity=".281"/><path fill="#fff" d="M16.648 38.813c0 3.094-2.133 5.547-4.694 5.547S7.26 41.907 7.26 38.813s2.134-5.548 4.694-5.548c2.667 0 4.694 2.454 4.694 5.548zm24.75-5.654c0 2.027-1.6 3.627-3.626 3.627s-3.628-1.6-3.628-3.627 1.6-3.628 3.628-3.628 3.627 1.6 3.627 3.628z"/><path fill="url(#h)" stroke="#888a85" stroke-miterlimit="10" stroke-width=".712" d="M72.124 35.079c0 6.934-5.654 12.588-12.589 12.588-6.934 0-12.588-5.654-12.588-12.588 0-6.934 5.547-12.589 12.481-12.589 6.935 0 12.696 5.655 12.696 12.589z"/><path fill="#2e3436" stroke="#000" stroke-miterlimit="10" stroke-width="1.067" d="M68.496 37c0 3.306-2.667 6.08-6.08 6.08-3.308 0-6.082-2.667-6.082-6.08 0-3.415 2.668-6.082 6.081-6.082 3.308 0 6.081 2.667 6.081 6.081z"/><path fill="#fff" d="M64.336 34.119c0 2.347-1.92 4.16-4.16 4.16-2.241 0-4.161-1.92-4.161-4.16 0-2.347 1.92-4.16 4.16-4.16s4.16 1.92 4.16 4.16z"/><g transform="rotate(-106.43 22.195 6.416) scale(.43377)"><linearGradient id="i" x1="1915.16" x2="1892.237" y1="-1061.496" y2="-1081.433" gradientTransform="matrix(-.115 .39 .39 .115 524.484 -501.144)" gradientUnits="userSpaceOnUse"><stop offset="0" stop-color="#6E3D09"/><stop offset=".242" stop-color="#EA8113"/><stop offset=".621" stop-color="#5C3307"/><stop offset="1" stop-color="#E07C12"/></linearGradient><path fill="url(#i)" stroke="#673907" stroke-linecap="round" stroke-width="2.461" d="m-144.8 139 9.2 8.6c20.7-15.8 42.3-49.7 42.3-49.7 4.9-5.5-.3-9.3-5.4-5.9 0-.1-32.1 24.9-46.1 47z"/><linearGradient id="j" x1="2014.528" x2="2023.719" y1="-1149.438" y2="-1140.932" gradientTransform="matrix(-.115 .39 .39 .115 527.382 -504.824)" gradientUnits="userSpaceOnUse"><stop offset="0" stop-color="#BDBDBD"/><stop offset=".333" stop-color="#E2E2E2"/><stop offset=".667" stop-color="#A3A3A3"/><stop offset="1" stop-color="#ddd"/></linearGradient><path fill="url(#j)" stroke="#888a85" stroke-linecap="round" stroke-width="2.461" d="m-162.4 161.9 5.6 4.8 21-18.2.7-1.7h2.7c-1.1-3.9-7.3-10.8-11.9-10.8l.2 2.7-1.7.9z"/><path fill="none" stroke="#fff" stroke-linecap="round" stroke-linejoin="round" stroke-width="2.461" d="m-145.9 150.9-10.8 13"/><radialGradient id="k" cx="1284.155" cy="-757.829" r="18.754" gradientTransform="matrix(-.181 .598 .613 .176 532.577 -472.016)" gradientUnits="userSpaceOnUse"><stop offset="0" stop-color="#696969"/><stop offset="1"/></radialGradient><path fill="url(#k)" d="M-199.2 186.5c25.8 0 45.5 3.1 49.2-15.7 3-15.2-17.8-22.4-28.2-8.9-10 13-21 24.6-21 24.6z"/><path fill="#fff" d="M-152.3 171.3c0 3.5-2.9 6.4-6.4 6.4-3.5 0-6.4-2.9-6.4-6.4 0-3.5 2.9-6.4 6.4-6.4 3.5 0 6.4 2.9 6.4 6.4z" opacity=".528"/><path fill="#fff" d="M-135.7 147.1c0 2.4-1.9 4.3-4.3 4.3s-4.3-1.9-4.3-4.3 1.9-4.3 4.3-4.3 4.3 1.9 4.3 4.3z"/><linearGradient id="l" x1="2769.363" x2="2755.794" y1="1.109" y2="12.318" gradientTransform="matrix(-.241 .249 .249 .241 502.979 -510.793)" gradientUnits="userSpaceOnUse"><stop offset="0" stop-color="#fff"/><stop offset="1" stop-color="#fff" stop-opacity="0"/></linearGradient><path fill="url(#l)" d="M-182.4 181.9s9.2.2 15.1-3.5c2.1-1.3 3.8 1.6 1.2 2.7-5.4 2.3-16.3.8-16.3.8z" opacity=".428"/></g><path fill="url(#m)" d="M61.989 61.216c3.947.427 7.574-.747 8.961-1.28.214-1.494 1.387-4.267 5.441-4.48l-1.387-2.454s-5.227 3.52-10.775 4.587z"/><path fill="#1a1a1a" d="m30.41 88.634-5.12 29.658 9.601-.214-.746 2.668-9.602.426-.96 6.615 16.75-.534 6.613-38.726zm5.655 22.403-3.307.107 2.667-15.256 3.2-.106zm12.588-15.895 6.615-.107-5.014 28.698h-6.295zm4.694 27.95 6.188-34.565 26.03.32-5.974 34.246-6.614.106 4.8-26.99-2.986.106-4.908 27.418h-6.72l4.8-27.631-2.987-.214-4.694 27.311zm35.633-34.03L82.045 128h6.615l.746-4.374 9.815-.213 6.295-34.139zm4.8 27.737-3.2.107 3.84-21.017 2.988-.106zM50.36 85.327h6.401l-.746 6.4h-6.721z"/></svg>
