<svg xmlns="http://www.w3.org/2000/svg" viewBox="0 0 128 128"><path fill="#716955" d="M35.685 54.134c-1.13 0-2.261-.616-2.775-1.644l-.823-1.645-.308 1.85-.103.823c0 3.392 2.673 6.065 6.065 6.065s6.066-2.673 6.066-6.065c0-3.187-2.57-5.86-5.757-6.066l-1.748-.103 1.44 1.131c.719.617 1.233 1.542 1.233 2.468-.103 1.747-1.542 3.186-3.29 3.186zm-.514-13.775c5.14 0 9.56 3.495 10.897 8.121a14.012 14.012 0 0 1 3.907-5.757C33.218 41.695 26.022 26.79 26.022 26.79l-.411 18.813a11.284 11.284 0 0 1 9.56-5.243zm26.523 21.588a6.888 6.888 0 0 0 6.887-6.888c0-3.7-2.878-6.784-6.579-6.887l-1.542-.103 1.234.925c.925.72 1.439 1.85 1.439 3.084a3.905 3.905 0 0 1-3.906 3.907c-1.44 0-2.776-.823-3.496-2.056l-.72-1.337-.205 1.542-.103.926c.103 3.7 3.187 6.887 6.99 6.887zm66.1 48.522a213.11 213.11 0 0 0-1.233-4.215c-2.57-9.252-4.523-16.448-12.645-15.728-1.233.102-2.261.514-3.186 1.13l-8.122-5.14h-.308l-.617-1.953-1.233.822c-2.57-1.644-5.449-3.084-8.327-4.42 9.252-11 14.289-30.429 10.794-62.194-.309-2.776-1.85-3.187-2.879-.206-.822 2.57-6.27 18.813-34.335 23.336 3.7 2.364 6.168 6.476 6.168 11.205A13.337 13.337 0 0 1 58.507 66.47c-6.27 0-11.616-4.42-12.953-10.28-1.747 4.112-5.756 6.99-10.485 6.99-4.73 0-8.738-2.878-10.486-6.99-.103.206-.206.411-.308.514-.103-.205-.309-.41-.412-.72-5.55-7.607-14.392-10.69-19.84-6.784-5.448 4.01-5.346 13.364.206 20.971 4.626 6.374 11.513 9.56 16.859 8.121 15.523 11.514 44.204 21.486 63.428 9.252 3.803 2.16 8.12 4.215 12.13 5.654v.103l.411 1.234 1.645-.617.206.206 9.046 3.29c.103 2.878 1.85 6.064 5.551 7.504 6.888 2.672 13.467 5.962 13.467 6.065l1.028.514zM3.406 56.909c0-3.289 2.262-5.962 4.934-5.962 2.776 0 4.935 2.673 4.935 5.963s-2.262 5.962-4.935 5.962c-2.775 0-4.934-2.672-4.934-5.962zm37.625 19.122c18.812 3.803 28.476.308 34.027-4.112-1.44-1.953-4.01-4.01-4.01-4.01s6.58 1.85 8.944 4.832c1.028 1.337 1.337 2.467 1.234 3.598-3.29-1.13-5.757-1.85-6.27-2.056-2.057-.925-4.01-.308-4.524 1.234-.411 1.13-.103 2.467.925 3.495-6.476 2.981-17.065 1.747-30.326-2.981z"/></svg>
