<?xml version="1.0" encoding="UTF-8" standalone="no"?>
<svg
   width="128"
   height="128"
   viewBox="0 0 128 128"
   version="1.1"
   id="svg2"
   sodipodi:docname="Stan.svg"
   inkscape:version="1.3.2 (091e20e, 2023-11-25, custom)"
   xmlns:inkscape="http://www.inkscape.org/namespaces/inkscape"
   xmlns:sodipodi="http://sodipodi.sourceforge.net/DTD/sodipodi-0.dtd"
   xmlns="http://www.w3.org/2000/svg"
   xmlns:svg="http://www.w3.org/2000/svg"
   xmlns:rdf="http://www.w3.org/1999/02/22-rdf-syntax-ns#"
   xmlns:cc="http://creativecommons.org/ns#"
   xmlns:dc="http://purl.org/dc/elements/1.1/">
  <defs
     id="defs2" />
  <sodipodi:namedview
     id="namedview2"
     pagecolor="#ffffff"
     bordercolor="#111111"
     borderopacity="1"
     inkscape:showpageshadow="0"
     inkscape:pageopacity="0"
     inkscape:pagecheckerboard="1"
     inkscape:deskcolor="#d1d1d1"
     inkscape:zoom="4.2592135"
     inkscape:cx="61.631097"
     inkscape:cy="67.73551"
     inkscape:window-width="1920"
     inkscape:window-height="1009"
     inkscape:window-x="-8"
     inkscape:window-y="-8"
     inkscape:window-maximized="1"
     inkscape:current-layer="svg2" />
  <title
     id="title1">file_type_stan</title>
  <path
     d="M 63.998988,0.00417035 A 63.99914,63.99914 0 0 0 16.85905,107.28958 c 7.771324,-2.34968 15.592933,-4.53479 21.96999,-6.20334 18.45461,-4.81822 50.047328,-12.964396 54.609552,-23.231687 -1.279982,3.565667 -5.567925,13.119824 -5.567925,13.119824 -5.846778,5.700495 -32.410993,12.027263 -49.905615,15.391793 -5.577068,1.07427 -11.949554,2.31768 -18.404324,3.68452 A 63.99914,63.99914 0 0 0 120.99022,34.874559 C 109.44295,36.739677 72.990867,43.349874 63.669849,45.457274 53.361417,47.7841 32.634838,52.008043 28.497751,59.139376 31.085144,52.574893 38.819898,35.404838 38.819898,35.404838 44.37868,26.262104 68.990921,19.747905 86.170119,15.002826 90.174636,13.896555 94.956286,12.538859 99.989358,11.080593 A 63.69743,63.69743 0 0 0 63.998988,0.00417035 Z"
     style="fill:#b2001d;stroke-width:4.57137"
     id="path1" />
  <path
     d="m 28.447465,59.372516 c -1.151984,5.371356 16.091213,10.573572 31.638433,15.492363 a 120.51038,120.51038 0 0 1 25.905937,10.020437 14.102668,14.102668 0 0 0 7.597613,-7.378187 C 95.312853,70.700364 79.815918,61.996481 69.480057,58.174818 A 152.39567,152.39567 0 0 1 49.334042,48.840086 C 29.604021,54.065159 28.447465,59.35423 28.447465,59.35423 Z"
     style="fill:#590815;stroke-width:4.57137"
     id="path2" />
  <metadata
     id="metadata2">
    <rdf:RDF>
      <cc:Work
         rdf:about="">
        <dc:title>file_type_stan</dc:title>
      </cc:Work>
    </rdf:RDF>
  </metadata>
</svg>
