<?xml version="1.0" encoding="UTF-8" standalone="no"?>
<svg
   width="128"
   height="128"
   viewBox="0 0 128 128"
   version="1.1"
   id="svg3"
   sodipodi:docname="Textile.svg"
   inkscape:version="1.3.2 (091e20e, 2023-11-25, custom)"
   xmlns:inkscape="http://www.inkscape.org/namespaces/inkscape"
   xmlns:sodipodi="http://sodipodi.sourceforge.net/DTD/sodipodi-0.dtd"
   xmlns="http://www.w3.org/2000/svg"
   xmlns:svg="http://www.w3.org/2000/svg"
   xmlns:rdf="http://www.w3.org/1999/02/22-rdf-syntax-ns#"
   xmlns:cc="http://creativecommons.org/ns#"
   xmlns:dc="http://purl.org/dc/elements/1.1/">
  <defs
     id="defs3" />
  <sodipodi:namedview
     id="namedview3"
     pagecolor="#ffffff"
     bordercolor="#111111"
     borderopacity="1"
     inkscape:showpageshadow="0"
     inkscape:pageopacity="0"
     inkscape:pagecheckerboard="1"
     inkscape:deskcolor="#d1d1d1"
     inkscape:zoom="3.0117188"
     inkscape:cx="101.76913"
     inkscape:cy="46.983139"
     inkscape:window-width="1920"
     inkscape:window-height="1009"
     inkscape:window-x="-8"
     inkscape:window-y="-8"
     inkscape:window-maximized="1"
     inkscape:current-layer="svg3" />
  <title
     id="title1">file_type_textile</title>
  <path
     d="M 121.97028,110.05713 H 6.0297214 A 6.0205708,6.0205708 0 0 1 7.7000043e-6,104.02742 V 23.972571 A 6.0205708,6.0205708 0 0 1 6.0297214,17.942858 H 121.97028 a 6.0205708,6.0205708 0 0 1 6.02971,6.029713 v 80.073139 a 6.0159993,6.0159993 0 0 1 -6.02971,6.01142 z"
     style="fill:#ffe7ac;stroke-width:4.57143"
     id="path1" />
  <path
     d="m 18.587434,49.590854 a 22.797712,22.797712 0 0 1 6.893714,-3.012571 v -6.971428 a 16.914284,16.914284 0 0 1 3.396571,-1.508571 35.972568,35.972568 0 0 1 6.066285,-1.586286 h 2.934856 v 10.930285 h 11.355428 v 5.586285 H 37.87886 v 22.162283 a 14.50057,14.50057 0 0 0 1.325715,7.355428 4.891428,4.891428 0 0 0 4.438856,2.048 32.580568,32.580568 0 0 0 3.474286,-0.219429 15.259427,15.259427 0 0 0 3.574856,-0.822857 l 0.603429,2.834286 a 10.91657,10.91657 0 0 1 -2.285714,1.627428 24.946283,24.946283 0 0 1 -3.437714,1.627428 26.683426,26.683426 0 0 1 -4.219428,1.284572 21.80114,21.80114 0 0 1 -4.781714,0.502857 10.902856,10.902856 0 0 1 -8.338285,-2.912 13.471999,13.471999 0 0 1 -2.742857,-9.426285 V 52.987425 h -6.902856 z"
     id="path2"
     style="stroke-width:4.57143" />
  <path
     d="m 57.632001,84.356565 a 6.6148564,6.6148564 0 0 1 1.970286,-4.982857 7.2731421,7.2731421 0 0 1 5.243428,-1.888 7.5382849,7.5382849 0 0 1 5.325713,1.888 6.5005707,6.5005707 0 0 1 2.070857,4.982857 6.258285,6.258285 0 0 1 -2.070857,4.941713 7.7348563,7.7348563 0 0 1 -5.325713,1.828571 7.3599992,7.3599992 0 0 1 -5.243428,-1.828571 6.5234279,6.5234279 0 0 1 -1.970286,-4.941713 z"
     id="path3"
     style="stroke-width:4.57143" />
  <metadata
     id="metadata3">
    <rdf:RDF>
      <cc:Work
         rdf:about="">
        <dc:title>file_type_textile</dc:title>
      </cc:Work>
    </rdf:RDF>
  </metadata>
</svg>
