<svg version="1.1" xmlns="http://www.w3.org/2000/svg" xmlns:xlink="http://www.w3.org/1999/xlink" viewBox="0 0 128 128">
	<path fill="#F7A80D" d="M44.634,57.361c-2.599,0-5.499,1.001-6.107,4.296c-0.064,0.351,0.167,0.517,0.391,0.567
		l2.663,0.32c0.246-0.014,0.414-0.28,0.461-0.533c0.228-1.134,1.16-1.669,2.201-1.669c0.563,0,1.193,0.193,1.527,0.71
		c0.381,0.576,0.354,1.359,0.354,2.024v0.391c-1.582,0.182-3.666,0.292-5.147,0.958c-1.709,0.76-2.912,2.307-2.912,4.58
		c0,2.913,1.785,4.366,4.083,4.366c1.94,0,3.013-0.456,4.509-2.022c0.497,0.738,0.656,1.073,1.562,1.846
		c0.202,0.108,0.458,0.098,0.64-0.071v0.035c0.545-0.497,1.535-1.401,2.094-1.881c0.222-0.187,0.174-0.493,0-0.746
		c-0.5-0.707-1.029-1.276-1.029-2.592v-4.366c0-1.85,0.156-3.556-1.172-4.828C47.706,57.715,45.961,57.361,44.634,57.361z
		 M80.42,57.361c-2.6,0-5.498,1.001-6.106,4.296c-0.064,0.351,0.166,0.517,0.39,0.567l2.664,0.32
		c0.246-0.014,0.415-0.28,0.461-0.533c0.229-1.134,1.161-1.669,2.201-1.669c0.564,0,1.193,0.193,1.526,0.71
		c0.381,0.576,0.319,1.359,0.319,2.024v0.391c-1.582,0.182-3.63,0.292-5.112,0.958c-1.711,0.76-2.91,2.307-2.91,4.58
		c0,2.913,1.785,4.366,4.082,4.366c1.938,0,3.011-0.456,4.509-2.022c0.495,0.738,0.656,1.073,1.563,1.846
		c0.203,0.108,0.458,0.098,0.639-0.071v0.035c0.546-0.497,1.537-1.401,2.095-1.881c0.222-0.187,0.171-0.493,0-0.746
		c-0.5-0.707-1.03-1.276-1.03-2.592v-4.366c0-1.85,0.12-3.556-1.206-4.828C83.455,57.715,81.746,57.361,80.42,57.361z M60.29,57.503
		c-1.68,0-2.924,0.848-3.585,2.663h-0.036v-1.882c-0.018-0.262-0.23-0.483-0.496-0.497h-2.557c-0.29,0-0.533,0.245-0.533,0.533
		v14.378c0.022,0.255,0.238,0.479,0.498,0.497h2.733c0.292,0,0.531-0.243,0.532-0.533v-7.633c0-1.664-0.08-3.94,1.882-3.94
		c1.937,0,1.668,2.339,1.668,3.94v7.633c0,0.271,0.222,0.515,0.498,0.533h2.733c0.29,0,0.532-0.243,0.532-0.533v-7.633
		c0-0.816-0.033-2.006,0.248-2.733s0.971-1.207,1.634-1.207c0.789,0,1.394,0.275,1.598,1.242c0.126,0.575,0.071,2.094,0.071,2.698
		v7.633c0,0.271,0.222,0.515,0.496,0.533h2.734c0.29,0,0.532-0.243,0.532-0.533v-9.088c0-1.545,0.154-3.298-0.71-4.509
		c-0.765-1.088-2.015-1.563-3.16-1.563c-1.605,0-3.101,0.848-3.763,2.663C63.075,58.351,61.997,57.503,60.29,57.503z
		 M106.762,57.503c-3.949,0-6.142,3.473-6.142,7.953c0,4.448,2.167,8.022,6.142,8.022c3.823,0,6.249-3.492,6.249-7.881
		C113.011,61.06,110.813,57.503,106.762,57.503z M122.347,57.503c-1.887,0-2.966,0.943-3.728,2.911h-0.035v-2.201
		c-0.049-0.222-0.258-0.377-0.497-0.39h-2.521c-0.275,0-0.508,0.199-0.533,0.461v14.378c0,0.271,0.225,0.515,0.497,0.533h2.699
		c0.289,0,0.527-0.242,0.531-0.533v-7.739c0-0.97,0.083-1.855,0.463-2.733c0.306-0.697,0.899-1.137,1.562-1.137
		c1.883,0,1.703,2.295,1.703,3.87v7.811c0.028,0.244,0.249,0.445,0.498,0.462h2.733c0.269,0,0.501-0.204,0.532-0.462v-9.053
		c0-1.392,0.003-3.324-0.71-4.474C124.777,57.966,123.566,57.503,122.347,57.503L122.347,57.503z M89.544,57.752
		c-0.278,0-0.497,0.22-0.498,0.532v2.059c0.001,0.31,0.213,0.531,0.498,0.533h4.686l-5.361,7.916
		c-0.326,0.511-0.354,1.089-0.354,1.421v2.095c0,0.302,0.328,0.63,0.639,0.461c3.056-1.668,6.717-1.52,9.479-0.035
		c0.336,0.183,0.675-0.16,0.675-0.462V70.07c-0.026-0.294-0.142-0.576-0.497-0.781c-1.568-0.901-3.388-1.178-5.111-1.136l4.65-6.815
		c0.43-0.613,0.67-0.981,0.674-1.279v-1.774c0-0.306-0.209-0.532-0.496-0.532H89.544z M106.762,60.45
		c0.865,0,1.504,0.386,1.811,1.384c0.354,1.152,0.391,2.588,0.391,3.799c0,1.846-0.086,4.899-2.201,4.899
		c-2.139,0-2.13-3.78-2.13-5.538C104.632,63.241,104.75,60.45,106.762,60.45z M46.089,65.704v0.604c0,1.092,0.04,2.01-0.497,2.981
		c-0.434,0.79-1.116,1.279-1.881,1.279c-1.045,0-1.668-0.849-1.668-2.06C42.042,66.121,44.117,65.704,46.089,65.704z M81.875,65.704
		v0.604c0,1.092,0.04,2.01-0.496,2.981c-0.435,0.79-1.112,1.279-1.882,1.279c-1.047,0-1.669-0.849-1.669-2.06
		C77.828,66.121,79.901,65.704,81.875,65.704z"/>
	<path fill="#F7A80D" d="M99.59,73.656v2.06h1.386v-2.06H99.59z M59.438,74.012v14.662h1.278V87.36
		c0.272,0.521,0.582,0.91,0.958,1.171c0.376,0.262,0.806,0.391,1.277,0.391c0.939,0,1.75-0.479,2.45-1.455
		c0.701-0.977,1.065-2.392,1.065-4.189c0-1.178-0.151-2.154-0.462-2.981c-0.311-0.826-0.725-1.441-1.242-1.847
		c-0.519-0.406-1.107-0.639-1.739-0.639c-0.452,0-0.874,0.118-1.244,0.354c-0.368,0.236-0.666,0.622-0.958,1.101v-5.254H59.438z
		 M72.573,77.455c-0.962,0-1.728,0.285-2.271,0.852s-0.815,1.296-0.815,2.202c0,0.525,0.115,0.972,0.318,1.384
		c0.202,0.413,0.49,0.748,0.852,0.994c0.364,0.246,1.09,0.57,2.166,0.923c0.745,0.24,1.19,0.444,1.385,0.604
		c0.281,0.233,0.427,0.538,0.427,0.959c0,0.486-0.17,0.892-0.498,1.207c-0.328,0.317-0.786,0.461-1.385,0.461
		c-0.6,0-1.094-0.168-1.455-0.532c-0.362-0.364-0.557-0.918-0.64-1.668l-1.384,0.283c0.313,2.278,1.449,3.41,3.408,3.408
		c1.045,0,1.844-0.295,2.449-0.923c0.604-0.628,0.924-1.471,0.924-2.485c0-0.548-0.098-1.022-0.284-1.419
		c-0.188-0.397-0.445-0.693-0.782-0.924c-0.336-0.229-1.089-0.536-2.236-0.923c-0.834-0.292-1.321-0.506-1.49-0.64
		c-0.284-0.224-0.427-0.53-0.427-0.922c0-0.4,0.133-0.739,0.427-0.995c0.294-0.255,0.747-0.39,1.349-0.39
		c1.058,0,1.65,0.581,1.774,1.739l1.35-0.213c-0.094-0.732-0.253-1.312-0.496-1.705c-0.245-0.392-0.605-0.724-1.065-0.958
		C73.709,77.542,73.182,77.455,72.573,77.455z M81.059,77.455c-1.109,0-2.046,0.457-2.77,1.42c-0.723,0.963-1.063,2.358-1.063,4.189
		c0,1.764,0.348,3.146,1.063,4.083c0.718,0.934,1.646,1.384,2.806,1.384c0.921,0,1.685-0.276,2.307-0.852
		c0.624-0.575,1.077-1.423,1.313-2.557l-1.42-0.248c-0.407,1.451-1.16,2.163-2.2,2.165c-0.664,0-1.206-0.281-1.669-0.887
		c-0.464-0.607-0.726-1.507-0.78-2.698h6.105v-0.497c0-1.792-0.357-3.137-1.065-4.083C82.977,77.929,82.117,77.455,81.059,77.455z
		 M89.473,77.455c-0.331,0-0.621,0.112-0.888,0.355c-0.267,0.242-0.567,0.744-0.888,1.49v-1.633h-1.243v10.615h1.385v-5.538
		c0-0.772,0.074-1.516,0.249-2.201c0.1-0.394,0.289-0.703,0.532-0.923c0.244-0.221,0.523-0.32,0.816-0.32
		c0.326,0,0.65,0.131,0.994,0.391l0.462-1.668C90.41,77.637,89.937,77.455,89.473,77.455z M106.442,77.455
		c-1.096,0-1.999,0.462-2.699,1.385c-0.696,0.923-1.063,2.309-1.063,4.153c0,1.831,0.372,3.218,1.063,4.154
		c0.693,0.934,1.559,1.384,2.628,1.384c0.884,0,1.642-0.328,2.272-0.994c0.63-0.665,1.014-1.646,1.172-2.911l-1.35-0.213
		c-0.101,0.905-0.336,1.557-0.71,1.988c-0.373,0.43-0.823,0.639-1.349,0.639c-0.67,0-1.241-0.313-1.67-0.958
		c-0.427-0.646-0.638-1.68-0.638-3.124c0-1.4,0.227-2.41,0.674-3.053c0.448-0.644,1.021-0.994,1.704-0.994
		c0.457,0,0.847,0.177,1.172,0.531c0.327,0.356,0.543,0.918,0.674,1.634l1.351-0.283c-0.162-1.119-0.521-1.962-1.102-2.521
		C107.991,77.712,107.287,77.455,106.442,77.455z M114.359,77.455c-1.11,0-2.046,0.457-2.77,1.42
		c-0.723,0.963-1.065,2.358-1.065,4.189c0,1.764,0.349,3.146,1.065,4.083c0.719,0.934,1.646,1.384,2.805,1.384
		c0.918,0,1.685-0.276,2.308-0.852c0.622-0.575,1.075-1.423,1.314-2.557l-1.42-0.248c-0.41,1.451-1.128,2.163-2.166,2.165
		c-0.664,0-1.241-0.281-1.704-0.887c-0.463-0.607-0.725-1.507-0.781-2.698h6.106v-0.497c0-1.792-0.357-3.137-1.065-4.083
		C116.28,77.929,115.418,77.455,114.359,77.455z M122.561,77.455c-0.966,0-1.729,0.285-2.272,0.852
		c-0.545,0.566-0.817,1.296-0.817,2.202c0,0.525,0.082,0.972,0.284,1.384c0.2,0.413,0.489,0.748,0.853,0.994
		c0.361,0.246,1.09,0.57,2.166,0.923c0.743,0.24,1.226,0.444,1.42,0.604c0.281,0.233,0.426,0.538,0.426,0.959
		c0,0.486-0.168,0.892-0.497,1.207c-0.326,0.317-0.785,0.461-1.384,0.461c-0.602,0-1.094-0.168-1.456-0.532
		c-0.361-0.364-0.595-0.918-0.675-1.668l-1.384,0.283c0.313,2.278,1.446,3.41,3.407,3.408c1.047,0,1.881-0.295,2.485-0.923
		s0.922-1.471,0.922-2.485c0-0.548-0.096-1.022-0.282-1.419c-0.188-0.397-0.479-0.693-0.817-0.924
		c-0.336-0.229-1.054-0.536-2.2-0.923c-0.835-0.292-1.357-0.506-1.527-0.64c-0.283-0.224-0.426-0.53-0.426-0.922
		c0-0.4,0.167-0.739,0.462-0.995c0.294-0.255,0.75-0.39,1.35-0.39c1.058,0,1.649,0.581,1.774,1.739l1.349-0.213
		c-0.094-0.732-0.252-1.312-0.497-1.705c-0.244-0.392-0.605-0.724-1.064-0.958C123.698,77.542,123.167,77.455,122.561,77.455z
		 M90.893,77.668l3.09,10.615h1.313l3.089-10.615h-1.42l-1.811,6.497c-0.219,0.785-0.413,1.464-0.533,2.023
		c-0.15-0.705-0.296-1.446-0.496-2.166l-1.775-6.354H90.893z M99.59,77.668v10.615h1.386V77.668H99.59z M54.077,77.811
		c-1.098,0-1.981,0.492-2.697,1.455c-0.717,0.963-1.102,2.358-1.102,4.189c0,1.765,0.355,3.113,1.065,4.047
		c0.709,0.935,1.657,1.42,2.806,1.42c0.911,0,1.655-0.312,2.271-0.888c0.616-0.575,1.042-1.423,1.279-2.556l-1.385-0.213
		c-0.404,1.451-1.136,2.163-2.165,2.165c-0.659,0-1.21-0.281-1.669-0.888c-0.46-0.606-0.727-1.506-0.781-2.697h6.035l0.036-0.497
		c0-1.792-0.364-3.172-1.065-4.119C56.004,78.284,55.124,77.811,54.077,77.811z M38.493,78.059l2.485,10.615h1.455l1.634-8.165
		l0.284,1.81l1.313,6.355h1.42l2.521-10.615h-1.313L46.906,84.2l-0.462,2.06l-0.426-2.06l-1.207-6.142h-1.42l-1.278,6.213
		l-0.426,2.201L41.191,84.2l-1.279-6.142H38.493z M81.023,78.911c0.69,0,1.258,0.333,1.704,0.994
		c0.306,0.452,0.506,1.14,0.567,2.059h-4.58c0.044-0.932,0.307-1.65,0.747-2.201C79.901,79.213,80.404,78.911,81.023,78.911z
		 M114.323,78.911c0.688,0,1.258,0.333,1.704,0.994c0.308,0.452,0.506,1.14,0.569,2.059h-4.581c0.044-0.932,0.308-1.65,0.746-2.201
		C113.198,79.213,113.704,78.911,114.323,78.911z M54.077,79.301c0.682,0,1.23,0.334,1.67,0.995c0.304,0.452,0.505,1.14,0.567,2.059
		h-4.51c0.043-0.932,0.275-1.687,0.711-2.236C52.949,79.567,53.463,79.301,54.077,79.301z M62.882,79.301
		c0.615,0,1.14,0.342,1.563,0.995c0.423,0.652,0.604,1.659,0.604,3.053c0,1.357-0.2,2.37-0.64,3.053
		c-0.439,0.684-0.96,1.029-1.526,1.029c-0.416,0-0.794-0.14-1.136-0.426c-0.344-0.286-0.595-0.696-0.782-1.242
		c-0.186-0.546-0.283-1.387-0.283-2.485c0-1.294,0.231-2.263,0.674-2.947C61.799,79.647,62.316,79.301,62.882,79.301z"/>
	<path fill="#F7A80D" d="M18.594,68.048l-5.29,2.271l4.899,2.095l5.681-2.095L18.594,68.048z M10.642,70.887
		l-0.178,10.226l7.74,3.408V73.905L10.642,70.887z M26.546,70.887l-6.994,2.663v10.012l6.994-2.84V70.887z"/>
	<path fill="#F7A80D" d="M34.889,39.078l-5.326,2.271l4.935,2.095l5.681-2.095L34.889,39.078z M27.504,42.096
		V52.32l6.604,1.917l0.213-9.302L27.504,42.096z M42.273,42.663l-6.249,2.663v10.047l6.249-2.84V42.663z"/>
	<path fill="#F7A80D" d="M9.877,53.468l-5.29,2.272l4.899,2.095l5.68-2.095L9.877,53.468z M1.926,56.309
		L1.748,66.533l7.739,3.408V59.326L1.926,56.309z M17.83,56.309l-6.994,2.662v10.012l6.994-2.84V56.309z"/>
	<path fill="#F7A80D" d="M26.918,53.091l-5.29,2.271l4.899,2.094l5.68-2.094L26.918,53.091z M18.966,55.93
		l-0.177,10.225l7.739,3.408V58.948L18.966,55.93z M34.871,55.93l-6.994,2.663v10.012l6.994-2.841V55.93z"/>
	<path fill="#F7A80D" d="M51.533,39.078l-5.289,2.271l4.899,2.095l5.681-2.095L51.533,39.078z M43.581,41.918
		l-0.178,10.225l7.74,3.407V44.936L43.581,41.918z M59.485,41.918l-6.994,2.663v10.011l6.994-2.84V41.918z"/>
</svg>
