<svg version="1.1" xmlns="http://www.w3.org/2000/svg" xmlns:xlink="http://www.w3.org/1999/xlink" viewBox="0 0 128 128">
	<path fill="#A4C439" d="M21.005,43.003c-4.053-0.002-7.338,3.291-7.339,7.341l0.005,30.736c0.001,4.064,3.288,7.344,7.342,7.343
		c4.056,0,7.342-3.28,7.338-7.342V50.34C28.349,46.291,25.06,43.001,21.005,43.003 M80.198,15.401l5.123-9.355
		c0.273-0.489,0.094-1.111-0.401-1.388c-0.5-0.265-1.117-0.085-1.382,0.407l-5.175,9.453c-4.354-1.938-9.227-3.024-14.383-3.019
		c-5.142-0.005-10.013,1.078-14.349,3.005l-5.181-9.429c-0.269-0.497-0.889-0.677-1.378-0.406c-0.498,0.269-0.681,0.892-0.404,1.38
		l5.125,9.349c-10.07,5.193-16.874,15.083-16.868,26.438l66.118-0.008C97.045,30.477,90.253,20.607,80.198,15.401 M48.942,29.858
		c-1.521-0.003-2.763-1.241-2.763-2.771c0-1.523,1.238-2.775,2.766-2.774c1.533-0.001,2.773,1.251,2.775,2.774
		C51.72,28.615,50.477,29.857,48.942,29.858 M79.048,29.853c-1.528,0.002-2.772-1.237-2.772-2.771
		c0.006-1.52,1.242-2.772,2.773-2.778c1.521,0.005,2.768,1.258,2.767,2.779C81.819,28.613,80.576,29.854,79.048,29.853
		 M31.195,44.39l0.011,47.635c-0.003,4.333,3.502,7.831,7.832,7.831l5.333,0.002l0.006,16.264c-0.001,4.05,3.291,7.342,7.335,7.342
		c4.056,0,7.342-3.295,7.343-7.347l-0.004-16.26l9.909-0.003l0.004,16.263c0,4.047,3.293,7.346,7.338,7.338
		c4.056,0.003,7.344-3.292,7.343-7.344l-0.005-16.259l5.352-0.004c4.32,0.002,7.834-3.5,7.836-7.834l-0.009-47.635L31.195,44.39z
		 M114.329,50.333c-0.001-4.055-3.286-7.341-7.341-7.339c-4.053-0.004-7.337,3.287-7.337,7.342l0.006,30.738
		c-0.001,4.058,3.283,7.338,7.339,7.339c4.054-0.001,7.337-3.281,7.338-7.343L114.329,50.333z"/>
</svg>
