<svg version="1.1" xmlns="http://www.w3.org/2000/svg" xmlns:xlink="http://www.w3.org/1999/xlink" viewBox="0 0 128 128">
		<polygon fill="#C4473A" points="33.852,70.856 33.852,57.896 35.528,57.896 43.459,68.337 43.459,57.896 45.046,57.896
			45.046,70.856 43.369,70.856 35.438,60.323 35.438,70.856 		"/>
		<path fill="#C4473A" d="M57.916,70.349c-1.045,0.399-2.172,0.599-3.381,0.599c-4.694,0-7.043-2.25-7.043-6.752
			c0-4.261,2.267-6.392,6.799-6.392c1.299,0,2.508,0.183,3.625,0.545v1.45c-1.117-0.423-2.266-0.635-3.444-0.635
			c-3.534,0-5.302,1.678-5.302,5.03c0,3.596,1.74,5.394,5.221,5.394c0.556,0,1.173-0.072,1.85-0.218v-4.405h1.676V70.349
			L57.916,70.349z"/>
		<path fill="#C4473A" d="M60.59,65.854v-7.959h1.676v7.958c0,2.489,1.239,3.735,3.717,3.735s3.717-1.246,3.717-3.735v-7.958h1.676
			v7.958c0,3.397-1.797,5.095-5.393,5.095S60.59,69.25,60.59,65.854z"/>
		<polygon fill="#C4473A" points="76.043,57.895 76.043,69.497 82.823,69.497 82.823,70.856 74.367,70.856 74.367,57.895 		"/>
		<polygon fill="#C4473A" points="85.244,70.856 83.503,70.856 89.948,56.185 96.393,70.856 94.533,70.856 92.856,66.777
			88.57,66.777 89.033,65.418 92.295,65.418 89.875,59.544 		"/>
		<path fill="#C4473A" d="M98.159,70.856V57.896h5.529c2.466,0,3.697,1.036,3.697,3.108c0,1.686-1.204,2.935-3.615,3.743l4.45,6.109
			h-2.212l-4.123-5.827v-1.098c2.477-0.394,3.716-1.345,3.716-2.855c0-1.196-0.689-1.794-2.067-1.794h-3.698v11.574H98.159z"/>
		<path fill="#C4473A" d="M114.502,57.895v9.228c0,2.49-1.465,3.734-4.396,3.734v-1.359c1.813,0,2.72-0.793,2.72-2.375v-9.228
			H114.502z"/>
		<path fill="#C4473A" d="M117.493,70.403v-1.541c1.36,0.482,2.827,0.726,4.405,0.726c2.229,0,3.345-0.816,3.345-2.448
			c0-1.389-0.822-2.084-2.466-2.084h-1.668c-2.713,0-4.07-1.179-4.07-3.535c0-2.478,1.737-3.717,5.213-3.717
			c1.511,0,2.915,0.183,4.215,0.544v1.542c-1.3-0.484-2.704-0.727-4.215-0.727c-2.356,0-3.535,0.786-3.535,2.357
			c0,1.389,0.797,2.084,2.393,2.084h1.668c2.761,0,4.143,1.179,4.143,3.535c0,2.538-1.674,3.808-5.022,3.808
			C120.321,70.947,118.853,70.765,117.493,70.403z"/>
		<polygon fill="#C4473A" points="16.183,64 16.328,64 19.369,64 16.208,57.39 13.422,64 		"/>
		<path fill="#C4473A" d="M16.218,47.913L1.08,53.24l2.392,19.833l12.763,7.014l12.827-7.108l2.392-19.832L16.218,47.913z M12.19,67
			l-1.877,4.549l-3.49-0.081l9.359-20.821l9.79,20.902l-3.34-0.044l-2.055-4.722l-4.387,0.069"/>
</svg>
