<svg version="1.1" xmlns="http://www.w3.org/2000/svg" xmlns:xlink="http://www.w3.org/1999/xlink" viewBox="0 0 128 128">
	<path fill-rule="evenodd" clip-rule="evenodd" fill="#EF5734" d="M21.199,114.812c0.479-0.41,0.876-0.915,1.193-1.514
		c0.315-0.599,0.474-1.189,0.474-1.771c0-0.248-0.021-0.498-0.063-0.75s-0.129-0.535-0.257-0.846
		c-0.129-0.313-0.294-0.607-0.494-0.886c-0.2-0.277-0.476-0.552-0.821-0.822c-0.346-0.269-0.742-0.5-1.187-0.692
		c-0.445-0.193-0.99-0.79-1.636-0.91C17.762,106.5,17.05,106,16.271,106H9v19h6.771c1.018,0,1.952-0.02,2.804-0.174
		c0.851-0.154,1.566-0.324,2.149-0.567c0.581-0.244,1.094-0.522,1.539-0.865c0.444-0.342,0.797-0.68,1.059-1.027
		c0.261-0.346,0.473-0.708,0.636-1.092c0.162-0.385,0.271-0.722,0.327-1.018c0.055-0.295,0.082-0.584,0.082-0.866
		c0-0.993-0.287-1.907-0.865-2.74C22.925,115.818,22.156,115.205,21.199,114.812z M12,109h3.541c0.769,0,1.419,0.374,1.95,0.52
		c0.529,0.146,0.917,0.492,1.161,0.74c0.244,0.249,0.411,0.565,0.507,0.801c0.094,0.236,0.141,0.526,0.141,0.801
		c0,0.094-0.004,0.207-0.013,0.301c-0.12,1.154-1.345,1.904-3.124,2.23C15.427,114.52,14,114.615,12,114.658V109z M20.896,120.489
		c-0.158,0.279-0.351,0.507-0.576,0.688c-0.227,0.179-0.524,0.333-0.893,0.461c-0.368,0.128-0.705,0.225-1.013,0.289
		c-0.309,0.064-0.676,0.114-1.104,0.148c-0.427,0.034-0.764-0.016-1.007-0.011c-0.243,0.004-0.537-0.063-0.879-0.063H12v-5.148
		c3-0.094,3.403-0.141,3.469-0.141c1.653,0,3.1,0.252,4.071,0.758c0.97,0.504,1.524,1.197,1.524,2.078
		C21.064,119.897,21.055,120.211,20.896,120.489z"/>
	<path fill-rule="evenodd" clip-rule="evenodd" fill="#EF5734" d="M43.319,107.78c-1.445-0.727-3.098-1.09-4.953-1.09
		c-1.873,0-3.537,0.378-4.99,1.135c-1.455,0.757-2.593,1.848-3.414,3.271c-0.821,1.425-1.231,3.073-1.231,4.946
		c0,1.505,0.264,2.857,0.789,4.055c0.525,1.197,1.235,2.17,2.13,2.919c0.894,0.748,1.904,1.317,3.034,1.706
		c1.13,0.39,2.323,0.584,3.579,0.584c1.909,0,3.598-0.398,5.068-1.193c1.472-0.796,2.613-1.914,3.427-3.355
		c0.813-1.441,1.219-3.094,1.219-4.959c0-1.838-0.415-3.454-1.245-4.844C45.902,109.566,44.764,108.508,43.319,107.78z
		 M44.114,118.879c-0.368,0.839-0.855,1.501-1.463,1.989c-0.606,0.487-1.269,0.855-1.982,1.103
		c-0.714,0.248-1.452,0.372-2.212,0.372c-1.832,0-3.358-0.599-4.582-1.796c-1.223-1.197-1.834-2.785-1.834-4.761
		c0-0.829,0.119-1.588,0.358-2.277c0.239-0.688,0.561-1.268,0.963-1.739c0.402-0.47,0.87-0.865,1.404-1.187
		c0.535-0.32,1.094-0.556,1.675-0.706c0.581-0.149,1.18-0.225,1.797-0.225c0.616,0,1.221,0.076,1.814,0.225
		c0.596,0.15,1.172,0.391,1.732,0.725s1.053,0.74,1.476,1.219c0.425,0.479,0.764,1.08,1.021,1.802
		c0.257,0.723,0.385,1.521,0.385,2.393C44.666,117.087,44.482,118.041,44.114,118.879z"/>
	<polygon fill-rule="evenodd" clip-rule="evenodd" fill="#EF5734" points="71.701,120.012 67.363,106 64.387,106 59.113,120.012
		54.918,106 51.505,106 57.522,125 60.614,125 65.772,111.053 70.161,125 73.253,125 80.246,106 76.833,106 	"/>
	<polygon fill-rule="evenodd" clip-rule="evenodd" fill="#EF5734" points="84,125 97,125 97,122 87,122 87,117 96,117 96,114
		87,114 87,110 97,110 97,106 84,106 	"/>
	<path fill-rule="evenodd" clip-rule="evenodd" fill="#EF5734" d="M113.066,117.436c0.719-0.213,1.342-0.534,1.866-0.918
		c0.527-0.386,0.942-0.783,1.245-1.27c0.305-0.488,0.526-0.976,0.668-1.502c0.141-0.525,0.212-1.069,0.212-1.651
		c0-0.675-0.082-1.28-0.244-1.823c-0.163-0.543-0.369-0.99-0.622-1.345c-0.253-0.355-0.569-0.666-0.95-0.931
		c-0.38-0.265-0.748-0.465-1.104-0.602c-0.354-0.137-0.762-0.245-1.218-0.326c-0.459-0.081-0.848-0.573-1.169-0.594
		c-0.32-0.021-0.673-0.474-1.058-0.474H103v19h3v-7h3.257l5.106,7h4.208L113.066,117.436z M111.72,114.806
		c-0.42,0.107-0.825,0.142-1.219,0.178c-0.395,0.033-0.847,0.016-1.36,0.016H106v-5h3.744c2.626,0,3.939,0.775,3.939,2.476
		c0,0.454-0.089,0.81-0.265,1.143c-0.175,0.334-0.397,0.557-0.666,0.745C112.483,114.552,112.139,114.698,111.72,114.806z"/>
	<path fill-rule="evenodd" clip-rule="evenodd" fill="#EF5734" d="M107.465,69.194c1.934-1.064,3.245-2.627,2.833-5.102
		c1.979-0.171,3.801-0.661,5.339-1.896c1.246-1,1.784-2.303,2.207-3.837c0.099-0.36,0.157-0.701,0.157-1.051
		c0-1.006,0-2.014,0-3.021c0-0.459-0.058-0.914-0.167-1.379c-0.493-2.115-1.524-3.684-3.488-4.697
		c-3.674-1.896-7.571-2.916-11.56-3.826c-8.449-1.93-16.987-3.148-25.588-4.157c-0.996-0.116-1.976-0.25-2.97-0.374
		c0.332-2.776,1.32-3.703,4.655-4.395c0.346,0.799,0.662,1.635,1.073,2.419c0.151,0.29,0.532,0.652,0.813,0.657
		c4.974,0.07,9.672-0.785,13.482-4.336c2.978-2.776,4.298-6.38,5.029-10.262c0.265-1.412,0.52-2.827,0.729-4.247
		c0.653-4.418,2.961-7.952,5.904-11.153c0.145-0.156,0.272-0.326,0.485-0.583c-2.34-0.726-4.65-0.806-6.933-0.39
		c-8.737,1.6-15.324,6.196-19.418,14.181c-0.029,0.059-0.092,0.101-0.141,0.151c-1.489-0.376-2.989-0.715-4.457-1.158
		c-0.27-0.081-0.479-0.562-0.599-0.899c-2.401-6.815-6.55-12.124-13.316-15.001c-2.015-0.858-4.267-1.113-6.407-1.678
		C55.012,3.129,54.915,3,54.81,3c-2.159,0-4.317,0-6.477,0c-1.422,0-2.848,0.467-4.263,0.762
		c-16.938,3.546-30.18,16.821-33.28,33.919c-3.312,18.262,1.7,34.313,13.728,48.277c1.808,2.1,3.991,3.821,6.511,5.069
		c4.649,2.304,9.693,0.638,12.07-3.994c0.049-0.094,0.108-0.182,0.198-0.331c1.018,2.658,2.109,5.233,2.985,7.882
		c0.854,2.576,3.934,3.752,5.814,3.629c0.354-0.024,0.79,0.221,1.045,0.028C54.824,96.965,56.152,99,57.615,99
		c0.793,0,1.585,0,2.376,0c1.677-1,3.27-1.38,4.367-2.889c0.134-0.186,0.729-0.196,1.105-0.156c2.147,0.223,4.142-0.26,5.945-1.465
		c1.508-1.008,2.454-2.416,2.649-4.239c1.908-0.559,3.092-2.014,3.155-4.258c0.035-1.216-0.075-2.585-0.596-3.65
		c-1.587-3.248-3.405-6.387-5.135-9.566c-0.047-0.102-0.094-0.206-0.141-0.308c0.112,0.045,0.225,0.087,0.337,0.131
		c2.54,1.239,5.213,1.791,8.039,1.554c1.801-0.148,2.881-0.727,3.786-2.111c2.231,1.576,4.739,2.321,7.472,2.128
		c2.72-0.192,5.275-0.774,6.741-3.486c1.932,0,3.914,0.179,5.843-0.062C104.906,70.456,106.259,69.859,107.465,69.194z
		 M51.315,32.687c-3.163-0.005-5.69-2.55-5.661-5.704c0.029-3.157,2.6-5.722,5.709-5.699c3.159,0.027,5.646,2.557,5.644,5.744
		C57.004,30.209,54.506,32.693,51.315,32.687z M68.662,37.258c-0.722-1.727-1.283-3.535-1.026-5.507
		c-0.133-2.966,0.894-5.567,2.628-7.896c0.226-0.303,0.964-0.346,1.45-0.312c5.548,0.388,10.373,2.634,14.802,5.86
		c0.92,0.67,1.795,1.403,2.583,2.264c-1.734-0.373-3.462-0.78-5.205-1.108c-2.622-0.496-5.219-0.397-7.687,0.705
		c-2.666,1.191-5.451,1.149-8.264,0.955c1.531,1.375,3.385,1.3,5.211,1.024c1.546-0.231,3.059-0.681,4.651-1.048
		c0.036,0.377,0.067,0.709,0.086,0.903C74.779,34.5,71.755,35.864,68.662,37.258z"/>
</svg>
