<svg version="1.1" xmlns="http://www.w3.org/2000/svg" xmlns:xlink="http://www.w3.org/1999/xlink" viewBox="0 0 128 128">
	<path fill="#EF5734" d="M118.852,60.078c-1.272-0.512-2.545-1.092-3.874-1.38c-7.542-1.633-15.074-3.333-22.661-4.719
		c-5.55-1.014-11.181-1.581-16.773-2.347c0.57-3.894,1.089-4.379,5.266-5.026c2.131,3.681,2.131,3.681,6.528,3.165
		c9.018-1.058,14.784-6.252,16.419-15.504c1.214-6.857,2.631-13.482,7.824-18.604c0.063-0.061-0.041-0.29-0.065-0.436
		c-9.549-2.931-21.825,3.653-29.47,15.881c-3.496-0.464-5.724-1.59-7.28-5.264c-4.17-9.846-11.858-15.777-22.786-16.182
		C32.2,8.93,14.215,20.407,6.473,38.667c-7.681,18.116-5.224,35.757,3.483,52.837c3.539,6.941,8.059,13.205,14.757,17.519
		c5.736,3.694,11.028,2.523,14.87-3.119c0.158-0.234,0.453-0.378,0.805-0.66c0.617,1.618,1.166,3.054,1.714,4.49
		c0.58,1.52,1.102,3.065,1.75,4.555c1.319,3.03,4.854,4.478,7.928,3.448c0.79-0.265,1.809-0.292,2.601-0.043
		c3.423,1.076,6.56,1.108,9.304-1.668c0.437-0.441,1.363-0.583,2.053-0.561c4.712,0.149,7.318-1.396,9.341-5.628
		c0.172-0.358,0.432-0.716,0.741-0.96c3.156-2.488,3.932-5.08,2.345-8.716c-0.957-2.193-2.151-4.284-3.275-6.401
		c-0.808-1.521-1.674-3.01-2.743-4.921c5.22,1.723,9.88,3.501,14.182-0.417c0.885,0.457,1.626,0.894,2.409,1.234
		c4.313,1.877,10.073,1.258,12.528-1.624c1.017-1.194,1.932-1.277,3.291-1.173c5.372,0.412,11.65-1.289,12.533-7.675
		c5.709-1.158,8.315-3.687,8.783-8.518C126.379,65.421,124.3,62.267,118.852,60.078z M85.581,46.533
		c-0.568,0.01-1.367-1.021-1.683-1.737c-0.423-0.959-0.477-2.079-0.865-4.012c1.909,0.738,3.06,1.184,4.529,1.751
		c2.067-1.533,4.168,0.833,7.15,1.094C91.567,45.8,88.633,46.479,85.581,46.533z M104.796,18.262
		c-2.208,7.574-4.443,15.242-6.848,23.489c-2.813-2.354-4.836-4.045-7.332-6.131c2.711-4.183,5.47-8.438,8.335-12.858
		c-4.633,2.829-7.324,7.173-9.868,11.938c-1.295-0.724-2.523-1.407-3.732-2.082C88.123,25.189,97.617,18.372,104.796,18.262z
		 M73.354,32.543c6.308,0.351,11.698,3.03,16.608,6.814c0.326,0.251,0.378,0.855,0.834,1.976c-5.727-1.957-10.604-1.265-15.478,0.57
		c-1.426,0.537-3.161,0.254-4.755,0.348c0.009,0.245,0.019,0.491,0.027,0.736c2.993-0.185,5.986-0.369,8.979-0.554
		c0.028,0.215,0.056,0.43,0.083,0.645c-3.113,1.43-6.227,2.859-9.338,4.289c-2.417-3.315-1.453-11.319,1.092-13.99
		C71.861,32.899,72.712,32.507,73.354,32.543z M87.44,64.87c-0.033,0.224-0.066,0.447-0.1,0.671
		c9.713,1.911,19.427,3.823,29.174,5.741c-1.143,3.096-3.474,4.055-9.158,3.956c-0.218,5.295-2.676,6.698-10.674,6.095
		c-1.623,4.813-5.941,5.857-13.322,3.18c-3.95,4.297-8.429,2.744-13.045,0.939c-0.913,7.138-4.212,12.712-10.478,16.265
		c-5.827,3.306-12.075,2.943-18.297,1.586c-25.088-5.47-39.524-29.907-32.85-55.477c4.995-19.137,20.605-32.152,39.838-33.215
		c9.294-0.514,17.56,4.327,21.443,12.706c0.372,0.802,0.403,2.273-0.09,2.887c-5.188,6.459-5.282,13.383-1.914,20.53
		c0.774,1.644,0.523,2.608-0.463,3.853c-4.442,5.602-10.383,8.847-17.047,10.983c-0.298,0.095-0.601,0.181-0.901,0.271
		c7.716-0.162,15.104-1.397,20.501-7.518c1.417-1.605,2.758-2.035,4.659-1.733c10.41,1.66,20.831,3.25,31.229,4.985
		c2.676,0.446,5.3,1.256,7.91,2.025c2.014,0.594,3.379,1.896,3.748,4.378C107.432,66.929,97.437,65.9,87.44,64.87z"/>
	<path fill="#EF5734" d="M56.114,37.387c-0.005-3.515-2.976-6.411-6.457-6.294c-3.252,0.109-6.237,3.265-6.118,6.471
		c0.126,3.414,3.002,6.159,6.397,6.107C53.373,43.619,56.118,40.827,56.114,37.387z M46.133,34.516
		c0.005-2.221,2.169-2.518,4.018-2.434c1.652,0.074,3.641,0.483,3.537,2.481c-0.118,2.258-2.292,2.353-4.621,3.021
		C48.03,36.563,46.132,35.538,46.133,34.516z"/>
</svg>
