<svg version="1.1" xmlns="http://www.w3.org/2000/svg" xmlns:xlink="http://www.w3.org/1999/xlink" viewBox="0 0 128 128">
<path fill="#1572B6" d="M8.76,1l10.055,112.883l45.118,12.58l45.244-12.626L119.24,1H8.76z M98.351,26.862l-3.347,37.605
	l0,0l0.01,0.203L95,65.137v-0.004l-2.378,26.294l-0.262,2.336L64,101.607v0.001l-0.022,0.019l-28.311-7.888L33.75,72h6.399h7.484
	l0.985,11.054l15.386,4.17L64,87.232V87.23l15.443-4.229L81.075,65H64l0,0H48.836h-0.044l-0.277-3.043l-0.631-7.129L47.553,51H64
	l0,0h18.302l1.264-14H64.048H64H30.684H30.64l-0.277-3.041l-0.63-7.131L29.401,23H64h0.048h34.634L98.351,26.862z"/>
</svg>
