<svg version="1.1" xmlns="http://www.w3.org/2000/svg" xmlns:xlink="http://www.w3.org/1999/xlink" viewBox="0 0 128 128">
	<path fill-rule="evenodd" clip-rule="evenodd" fill="#1384C8" d="M82.108,78.432c0.479-1.232,1.022-2.445,1.427-3.701
		c2.288-7.097,4.554-14.2,6.805-21.309c0.865-2.731,1.813-5.42,3.515-7.767c2.692-3.709,6.442-5.652,10.88-6.331
		c1.741-0.266,3.518-0.389,5.28-0.406c5.267-0.05,10.536-0.015,15.804-0.01c0.28,0,0.56,0.029,0.957,0.052
		c-0.129,0.304-0.199,0.525-0.311,0.724c-1.955,3.494-3.872,7.009-5.885,10.468c-3.505,6.022-7.016,12.042-10.631,17.998
		c-2.319,3.819-4.834,7.52-7.687,10.974c-2.105,2.548-4.321,4.984-7.146,6.77c-1.925,1.217-3.981,1.929-6.315,1.917
		c-8.278-0.045-16.556-0.012-24.834-0.024c-2.461-0.004-4.568-0.941-6.356-2.603c-2.563-2.381-4.093-5.412-5.345-8.608
		c-2.284-5.835-3.563-11.951-5.031-18.014c-0.688-2.838-1.47-5.654-2.215-8.478c-0.048-0.183-0.142-0.354-0.25-0.617
		c-0.234,0.22-0.41,0.376-0.577,0.542c-3.228,3.207-6.071,6.741-8.615,10.498c-0.693,1.024-0.926,2.374-1.313,3.591
		c-1.424,4.47-2.722,8.983-4.264,13.411c-1.477,4.242-4.125,7.616-8.264,9.61c-2.42,1.165-5.004,1.795-7.689,1.855
		c-3.98,0.088-7.962,0.098-11.943,0.134c-0.952,0.009-0.996-0.069-0.748-0.99c1.707-6.338,3.87-12.514,6.58-18.492
		c2.794-6.167,6.085-12.048,10.231-17.419c2.823-3.657,5.941-7.031,9.843-9.582c1.979-1.293,4.083-2.315,6.477-2.584
		c0.394-0.045,0.793-0.073,1.189-0.073c8.478-0.004,16.956,0.082,25.433-0.039c4.547-0.065,7.839,1.855,10.304,5.515
		c1.533,2.276,2.63,4.761,3.553,7.328c1.861,5.178,3.018,10.547,4.325,15.878c0.748,3.051,1.581,6.081,2.379,9.12
		c0.06,0.228,0.157,0.446,0.238,0.668C81.973,78.436,82.041,78.433,82.108,78.432z"/>
</svg>
