<svg version="1.1" xmlns="http://www.w3.org/2000/svg" xmlns:xlink="http://www.w3.org/1999/xlink" viewBox="0 0 128 128">
		<path fill="#1384C8" d="M40.335,78.188H38.65v-9.65c0-0.762,0.05-1.69,0.14-2.785h-0.038
			c-0.158,0.64-0.303,1.104-0.43,1.391L33.42,78.188h-0.821l-4.911-10.964c-0.138-0.306-0.283-0.799-0.43-1.471h-0.036
			c0.052,0.576,0.081,1.509,0.081,2.804v9.631h-1.626V63.817h2.225l4.409,10.021c0.332,0.754,0.547,1.328,0.651,1.72h0.069
			c0.288-0.785,0.517-1.375,0.688-1.762l4.505-9.979h2.11V78.188L40.335,78.188z"/>
		<path fill="#1384C8" d="M45.523,78.188h-1.639V67.925h1.639V78.188z M45.806,64.246
			c0,0.303-0.106,0.555-0.317,0.763c-0.207,0.208-0.464,0.312-0.764,0.312c-0.293,0-0.548-0.101-0.757-0.301
			c-0.209-0.201-0.313-0.458-0.313-0.774c0-0.296,0.104-0.549,0.313-0.754s0.464-0.305,0.757-0.305c0.3,0,0.557,0.099,0.764,0.305
			C45.7,63.697,45.806,63.95,45.806,64.246"/>
		<path fill="#1384C8" d="M55.764,77.713c-0.786,0.483-1.726,0.722-2.812,0.722c-1.472,0-2.655-0.488-3.561-1.464
			c-0.879-0.947-1.321-2.169-1.321-3.667c0-1.681,0.48-3.042,1.45-4.077c0.964-1.036,2.261-1.553,3.892-1.553
			c0.892,0,1.683,0.174,2.375,0.521v1.687c-0.766-0.538-1.576-0.805-2.445-0.805c-1.045,0-1.896,0.365-2.555,1.093
			c-0.687,0.745-1.034,1.742-1.034,2.985c0,1.194,0.317,2.14,0.948,2.837c0.633,0.694,1.476,1.042,2.538,1.042
			c0.897,0,1.738-0.295,2.524-0.882V77.713L55.764,77.713z"/>
		<path fill="#1384C8" d="M63.604,69.59c-0.289-0.223-0.706-0.331-1.255-0.331c-0.668,0-1.229,0.298-1.683,0.901
			c-0.516,0.673-0.771,1.604-0.771,2.795v5.232h-1.644V67.925h1.644v2.116h0.039c0.241-0.749,0.614-1.325,1.112-1.733
			c0.466-0.373,0.992-0.561,1.572-0.561c0.438,0,0.762,0.047,0.984,0.14L63.604,69.59L63.604,69.59z"/>
		<path fill="#1384C8" d="M72.758,73.075c0-1.313-0.296-2.317-0.89-3.006c-0.575-0.662-1.38-0.992-2.416-0.992
			c-1.021,0-1.841,0.334-2.453,1.003c-0.647,0.715-0.971,1.725-0.971,3.035c0,1.228,0.308,2.192,0.93,2.879
			c0.618,0.692,1.45,1.039,2.494,1.039c1.08,0,1.907-0.352,2.474-1.051C72.481,75.298,72.758,74.33,72.758,73.075 M74.443,73.018
			c0,1.635-0.462,2.949-1.382,3.934c-0.924,0.989-2.167,1.483-3.73,1.483c-1.54,0-2.767-0.494-3.665-1.483
			c-0.881-0.953-1.323-2.211-1.323-3.776c0-1.786,0.5-3.162,1.503-4.139c0.929-0.906,2.17-1.363,3.726-1.363
			c1.53,0,2.726,0.477,3.587,1.422C74.012,70.046,74.443,71.354,74.443,73.018"/>
		<path fill="#1384C8" d="M82.589,75.442c0,0.84-0.313,1.536-0.942,2.091c-0.687,0.601-1.63,0.901-2.816,0.901
			c-0.971,0-1.822-0.203-2.545-0.618v-1.766c0.804,0.654,1.692,0.983,2.667,0.983c1.301,0,1.952-0.479,1.952-1.434
			c0-0.401-0.143-0.734-0.431-0.991c-0.289-0.262-0.851-0.576-1.685-0.943c-0.859-0.376-1.472-0.762-1.833-1.163
			c-0.434-0.476-0.652-1.093-0.652-1.854c0-0.852,0.341-1.561,1.014-2.125c0.675-0.567,1.542-0.85,2.606-0.85
			c0.815,0,1.546,0.159,2.194,0.481v1.654c-0.677-0.488-1.451-0.732-2.329-0.732c-0.544,0-0.981,0.136-1.307,0.399
			c-0.329,0.27-0.494,0.614-0.494,1.034c0,0.455,0.138,0.808,0.412,1.061c0.244,0.233,0.761,0.519,1.541,0.852
			c0.876,0.367,1.509,0.748,1.895,1.137C82.336,74.053,82.589,74.68,82.589,75.442"/>
		<path fill="#1384C8" d="M92.629,73.075c0-1.313-0.297-2.317-0.892-3.006c-0.575-0.662-1.381-0.992-2.415-0.992
			c-1.021,0-1.841,0.334-2.456,1.003c-0.646,0.715-0.969,1.725-0.969,3.035c0,1.228,0.309,2.192,0.924,2.879
			c0.626,0.692,1.459,1.039,2.501,1.039c1.082,0,1.906-0.352,2.474-1.051C92.351,75.298,92.629,74.33,92.629,73.075 M94.317,73.018
			c0,1.635-0.466,2.949-1.388,3.934c-0.92,0.989-2.163,1.483-3.727,1.483c-1.542,0-2.768-0.494-3.667-1.483
			c-0.881-0.953-1.323-2.211-1.323-3.776c0-1.786,0.504-3.162,1.502-4.139c0.928-0.906,2.171-1.363,3.728-1.363
			c1.531,0,2.725,0.477,3.584,1.422C93.881,70.046,94.317,71.354,94.317,73.018"/>
		<path fill="#1384C8" d="M101.555,64.438c-0.323-0.179-0.682-0.27-1.091-0.27c-1.15,0-1.721,0.724-1.721,2.175
			v1.582h2.405v1.392h-2.405v8.871h-1.645v-8.871h-1.745v-1.392h1.745v-1.664c0-1.129,0.346-2.016,1.05-2.654
			c0.603-0.555,1.34-0.831,2.217-0.831c0.508,0,0.902,0.061,1.189,0.178V64.438z"/>
		<path fill="#1384C8" d="M108.039,78.085c-0.388,0.222-0.904,0.333-1.543,0.333c-1.791,0-2.687-1.01-2.687-3.029
			v-6.07h-1.761v-1.394h1.761v-2.504c0.524-0.166,1.07-0.346,1.646-0.533v3.037h2.583v1.394h-2.583v5.791
			c0,0.688,0.112,1.18,0.348,1.465c0.237,0.295,0.625,0.439,1.173,0.439c0.409,0,0.763-0.109,1.063-0.331V78.085L108.039,78.085z"/>
		<path fill="#1384C8" d="M19.237,118.242c0,0.805-0.286,1.5-0.867,2.087c-0.577,0.585-1.278,0.88-2.102,0.88
			c-0.805,0-1.489-0.295-2.05-0.88c-0.562-0.587-0.841-1.283-0.841-2.087c0-0.827,0.279-1.525,0.841-2.103
			c0.561-0.58,1.245-0.867,2.05-0.867c0.823,0,1.524,0.292,2.102,0.878C18.951,116.738,19.237,117.436,19.237,118.242"/>
		<path fill="#1384C8" d="M56.018,120.606H50.66L31.212,90.572c-0.454-0.723-0.847-1.508-1.179-2.365h-0.16
			c0.139,0.804,0.209,2.531,0.209,5.175v27.224h-4.416v-37.68h5.732l18.865,29.56c0.751,1.173,1.265,2.013,1.525,2.519h0.104
			c-0.175-1.083-0.266-2.932-0.266-5.54V82.926h4.39V120.606L56.018,120.606z"/>
		<path fill="#1384C8" d="M84.332,120.606H64.361v-37.68h19.104v3.993h-14.69v12.534h13.612v3.995H68.774v13.164
			h15.558V120.606z"/>
		<path fill="#1384C8" d="M114.623,86.919h-10.854v33.688h-4.415V86.919H88.479v-3.995h26.144V86.919
			L114.623,86.919z"/>
		<path fill-rule="evenodd" clip-rule="evenodd" fill="#1384C8" d="M82.108,46.33c0.479-1.232,1.022-2.445,1.427-3.701
			c2.288-7.097,4.554-14.2,6.805-21.309c0.865-2.731,1.813-5.42,3.515-7.767c2.692-3.709,6.442-5.652,10.88-6.331
			c1.741-0.266,3.518-0.389,5.28-0.406c5.267-0.05,10.536-0.015,15.804-0.01c0.28,0,0.56,0.029,0.957,0.052
			c-0.129,0.304-0.199,0.525-0.311,0.724c-1.955,3.494-3.872,7.009-5.885,10.468c-3.505,6.022-7.016,12.042-10.631,17.998
			c-2.319,3.819-4.834,7.52-7.687,10.974c-2.105,2.548-4.321,4.984-7.146,6.77c-1.925,1.217-3.981,1.929-6.315,1.917
			c-8.278-0.045-16.556-0.012-24.834-0.024c-2.461-0.004-4.568-0.941-6.356-2.603c-2.563-2.381-4.093-5.412-5.345-8.608
			c-2.284-5.835-3.563-11.951-5.031-18.014c-0.688-2.838-1.47-5.654-2.215-8.478c-0.048-0.183-0.142-0.354-0.25-0.617
			c-0.234,0.22-0.41,0.376-0.577,0.542c-3.228,3.207-6.071,6.741-8.615,10.498c-0.693,1.024-0.926,2.374-1.313,3.591
			c-1.424,4.47-2.722,8.983-4.264,13.411c-1.477,4.242-4.125,7.616-8.264,9.61c-2.42,1.165-5.004,1.795-7.689,1.855
			c-3.98,0.088-7.962,0.098-11.943,0.134c-0.952,0.009-0.996-0.069-0.748-0.99c1.707-6.338,3.87-12.514,6.58-18.492
			c2.794-6.167,6.085-12.048,10.231-17.419c2.823-3.657,5.941-7.031,9.843-9.582c1.979-1.293,4.083-2.315,6.477-2.584
			c0.394-0.045,0.793-0.073,1.189-0.073c8.478-0.004,16.956,0.082,25.433-0.039c4.547-0.065,7.839,1.855,10.304,5.515
			c1.533,2.276,2.63,4.761,3.553,7.328c1.861,5.178,3.018,10.547,4.325,15.878c0.748,3.051,1.581,6.081,2.379,9.12
			c0.06,0.228,0.157,0.446,0.238,0.668C81.973,46.333,82.041,46.331,82.108,46.33z"/>
</svg>
