<svg version="1.1" xmlns="http://www.w3.org/2000/svg" xmlns:xlink="http://www.w3.org/1999/xlink" viewBox="0 0 128 128">
			<path fill="#0073BA" d="M66.835,101.194h-5.009l0.009,9.371c0,2.739-1.175,4.955-3.913,4.955c-2.739,0-3.924-2.216-3.924-4.955
				v-9.362h-4.996l-0.001,9.362c0,5.412,3.479,9.798,8.892,9.798c5.41,0,8.94-4.386,8.94-9.798L66.835,101.194z"/>
			<rect x="111.994" y="95.484" fill="#0073BA" width="4.984" height="24.395"/>
			<path fill="#0073BA" d="M44.929,100.991c-4.296-0.992-7.006,3.276-7.118,3.505c-0.056,0.112-0.058,0.178-0.249,0.173
				c-0.156-0.004-0.175-0.173-0.175-0.173l-0.533-3.266h-4.463v18.632h5.004v-10.085c0-0.822,2.219-4.774,6.519-3.757
				c2.175,0.514,3.097,1.436,3.097,1.436s0-3.596,0-5.676C46.206,101.361,45.654,101.158,44.929,100.991z"/>
			<path fill="#0073BA" d="M73.626,126v-6.704c0.001,0,0.001,0.001,0.002,0.001v-2.51c0,0,0.009-0.201,0.189-0.204
				c0.161-0.002,0.197,0.106,0.237,0.204c0.379,0.943,2.465,4.541,7.097,3.412c4.146-1.168,7.187-4.975,7.187-9.495
				c0-5.446-4.418-9.864-9.865-9.864c-5.448,0-9.865,4.418-9.865,9.864c0,0,0,13.485,0,15.295L73.626,126L73.626,126z
				 M78.477,105.713c2.758,0,4.994,2.235,4.994,4.991c0,2.759-2.236,4.995-4.994,4.995s-4.992-2.235-4.992-4.995
				C73.484,107.948,75.719,105.713,78.477,105.713z"/>
			<path fill="#0073BA" d="M104.954,119.872h5.018v-9.168c0-5.446-4.415-9.863-9.864-9.863c-5.448,0-9.865,4.417-9.865,9.863
				c0,4.521,3.041,8.327,7.187,9.495c4.632,1.129,6.717-2.468,7.097-3.412c0.04-0.098,0.075-0.205,0.237-0.203
				c0.182,0.002,0.188,0.203,0.188,0.203 M105.096,110.704c0,2.759-2.235,4.995-4.992,4.995c-2.758,0-4.994-2.235-4.994-4.995
				c0-2.756,2.236-4.991,4.994-4.991C102.86,105.713,105.096,107.948,105.096,110.704z"/>
				<path fill="#0073BA" d="M16.713,119.833h-5.692V95.475h6.108c7.396,0,13.006,1.357,13.006,12.178
					C30.135,118.372,24.192,119.833,16.713,119.833z M18.073,99.697h-2.012v15.909l2.066,0.053c4.238,0,6.967-0.386,6.967-8.007
					C25.094,100.346,22.685,99.697,18.073,99.697z"/>
	<path fill="#0073BA" d="M83.757,18.877c-4.632-2.887-9.004-4.022-13.374-6.907c-2.711-1.835-6.469-6.207-9.618-9.966
		c-0.611,6.031-2.447,8.479-4.545,10.228c-4.459,3.497-7.257,4.547-11.103,6.646C41.882,20.538,24.31,31.028,24.31,53.582
		c0,22.557,18.971,39.166,40.039,39.166c21.071,0,39.342-15.299,39.342-38.466S86.556,20.625,83.757,18.877z M84.264,84.521
		c-0.438,0.438-4.46,3.234-9.18,3.672c-4.722,0.438-11.103,0.7-14.95-2.797c-0.611-0.612-0.436-1.486,0-1.835
		c0.438-0.351,0.788-0.613,1.312-0.613c0.524,0,0.438,0,0.7,0.175c1.747,1.398,4.37,2.535,9.965,2.535
		c5.597,0,9.53-1.574,11.277-2.885c0.789-0.612,1.137-0.087,1.224,0.263C84.7,83.385,84.875,83.909,84.264,84.521z M68.963,76.565
		c0.963-0.874,2.537-2.272,4.022-2.885c1.485-0.611,2.274-0.524,3.672-0.524c1.398,0,2.884,0.086,3.935,0.787
		c1.049,0.698,1.661,2.272,2.01,3.147c0.35,0.874,0,1.397-0.698,1.747c-0.612,0.351-0.7,0.175-1.312-0.96
		c-0.612-1.138-1.138-2.274-4.197-2.274c-3.061,0-4.021,1.05-5.508,2.274c-1.486,1.224-2.01,1.661-2.534,0.96
		C67.828,78.139,68.002,77.439,68.963,76.565z M92.132,77.265c-3.147-0.262-9.443-10.054-13.465-10.229
		c-5.069-0.175-16.086,10.578-24.74,10.578c-5.244,0-6.819-0.786-8.567-1.923c-2.623-1.836-3.934-4.634-3.847-8.48
		c0.089-6.819,6.47-13.201,14.512-13.289c10.229-0.085,17.31,10.143,22.469,10.055c4.371-0.087,12.764-8.654,16.872-8.654
		c4.371,0,5.597,4.546,5.597,7.256s-0.876,7.605-2.974,10.664C95.89,76.303,94.579,77.439,92.132,77.265z"/>
</svg>
