<svg version="1.1" xmlns="http://www.w3.org/2000/svg" xmlns:xlink="http://www.w3.org/1999/xlink" viewBox="0 0 128 128">
	<path fill="#008CBA" d="M108.009,54.298c0.481,0.154,0.859,0.276,1.237,0.397c0.024-0.044,0.049-0.089,0.073-0.134
		c-0.675-0.891-1.33-1.849-2.56-2.021c-0.894-0.125-1.811-0.091-2.719-0.127c0.03-0.43-0.129-0.583-0.556-0.407
		c-0.405,0.166-0.822,0.301-1.23,0.454c-0.981,0.369-1.958,0.75-2.945,1.101c-0.172,0.062-0.389-0.001-0.584-0.006
		c0.014-0.184,0-0.376,0.048-0.551c0.181-0.657,0.386-1.307,0.572-1.961c0.062-0.219,0.093-0.447,0.138-0.668
		c0.319,0.254,0.591,0.47,0.932,0.741c0.19-2.312-0.275-4.332-1.48-6.283c0.451,0.025,0.799,0.045,1.209,0.068
		c-0.542-1.256-1.351-2.208-2.484-2.878c-1.429-0.847-3.04-0.832-4.62-0.96c-0.249-0.021-0.501-0.003-0.807-0.003
		c1.201,2.001,1.703,5.365,0.975,6.504c-0.161-0.27-0.308-0.518-0.405-0.68c-0.904,1.465-1.762,3.002-2.767,4.438
		c-1.008,1.441-2.254,2.67-3.978,3.472c0.08-0.396,0.136-0.672,0.208-1.032c-0.256,0.068-0.417,0.126-0.582,0.151
		c-0.429,0.065-0.875,0.213-1.287,0.15c-0.771-0.118-1.526-0.353-2.283-0.556c-0.52-0.14-1.032-0.307-1.547-0.462l0.001,0.003
		c-0.037-0.039-0.073-0.078-0.11-0.117c-0.601-0.42-0.504-0.923-0.207-1.483c0.203-0.383,0.348-0.798,0.506-1.204
		c0.361-0.922,0.715-1.847,1.071-2.771c0.356-0.398,0.76-0.765,1.055-1.203c0.328-0.49,0.578-1.036,0.824-1.574
		c0.177-0.386,0.416-0.652,0.82-0.822c0.233-0.098,0.47-0.321,0.583-0.548c0.207-0.418,0.336-0.877,0.474-1.327
		c0.109-0.358-0.026-0.614-0.391-0.733c-0.149-0.049-0.298-0.098-0.447-0.147c0.04-0.151,0.057-0.313,0.122-0.453
		c1.104-2.36,2.174-4.737,3.333-7.07c1.183-2.381,2.441-4.725,3.691-7.071c0.265-0.498,0.635-0.941,0.956-1.409
		c0.559,0.038,1.118,0.097,1.677,0.109c2.511,0.052,4.791-0.583,6.641-2.366c1.94-1.869,3.276-4.127,4.168-6.658
		c0.046-0.117,0.093-0.234,0.181-0.457c-0.183,0.115-0.269,0.165-0.35,0.221c-2.473,1.692-5.144,2.626-8.186,2.135
		c0.035-0.098,0.049-0.211,0.108-0.292c1.066-1.443,2.132-2.886,3.212-4.319c0.382-0.507,0.802-0.984,1.242-1.519
		c-0.273-0.104-0.464-0.188-0.662-0.25c-1.014-0.319-2.026-0.647-3.047-0.942c-0.434-0.125-0.525-0.34-0.342-0.731
		c0.43-0.918,0.849-1.841,1.276-2.761c0.123-0.265-0.103-0.523,0.06-0.854C96.326,5.957,94,5.904,91,6.217c0-0.496,0-0.956,0-1.498
		c-1,0.153-1.623,0.243-2.549,0.447c-0.921,0.203-1.639,0.521-2.545,0.789c-0.04-0.029,0.01-0.057-0.03-0.085
		c0.695-1.201,1.437-2.402,2.179-3.684c-1.102,0.126-2.105,0.189-3.112,0.369c-2.019,0.361-4.199,0.768-6.205,1.193
		C77.872,3.931,77,4.208,76,4.442c0-0.501,0-1.001,0-1.587c-2,0.228-2.438,0.889-3.882,1.427c0.295-0.886,0.639-1.623,0.871-2.366
		c0.051-0.163,0.063-0.35,0.069-0.526c-0.076-0.028-0.134-0.089-0.204-0.079c-0.619,0.089-1.227,0.174-1.839,0.293
		c-3.188,0.625-6.215,1.68-9.065,3.25c-0.324,0.178-0.651,0.347-1.11,0.59c-0.078-1.216-0.147-2.304-0.218-3.405
		c-1.716,0.605-3.362,1.4-4.549,2.923c-0.226-0.875-0.451-1.751-0.677-2.626c-0.002-0.069-0.004-0.137-0.006-0.206
		c-0.011-0.032-0.021-0.064-0.031-0.097c-0.018,0.02-0.034,0.039-0.052,0.058c-0.147,0.17-0.31,0.33-0.44,0.513
		c-1.352,1.905-2.063,4.032-2.195,6.358c-0.356-0.78-0.711-1.561-1.088-2.387c-0.511,2.42-1.011,4.784-1.532,7.252
		c-0.9-1.147-1.716-2.187-2.585-3.293c-0.89,2.409-1.471,4.819-1.746,7.394c-0.645-0.727-1.207-1.36-1.816-2.047
		c-1.211,3.707-2.24,7.349-2.621,11.197c-0.913-0.556-1.471-1.288-1.854-2.178c-0.551-1.283-0.685-2.626-0.632-4.003
		c0.008-0.208-0.021-0.419-0.031-0.629c-0.051,0-0.102,0.001-0.154,0.002c-1.801,6.279-2.27,12.7-2.026,19.221
		c-0.745-1.417-1.489-2.834-2.233-4.251c-0.051,0.004-0.1,0.009-0.15,0.013c-0.151,1.643-0.331,3.285-0.441,4.931
		c-0.067,1.017,0.103,0.836-0.87,1.079c-3.061,0.763-5.969,1.861-8.512,3.789c-0.161,0.121-0.358,0.193-0.539,0.289
		c0.062,0.057,0.123,0.115,0.184,0.172c0.889,0.333,1.779,0.665,2.604,0.973c-1.122,1.248-2.233,2.422-3.273,3.657
		c-1.054,1.25-1.864,2.655-2.475,4.258c0.583-0.243,1.057-0.461,1.545-0.637c0.465-0.167,0.946-0.291,1.42-0.434
		c-0.928,0.954-1.625,1.998-2.201,3.116c-2.047,3.977-2.773,8.289-3.018,12.684c-0.159,2.842-0.078,5.697,0.4,8.521
		c0.082,0.482,0.186,0.96,0.28,1.44c0.07,0.012,0.14,0.025,0.21,0.037c0.423-1,0.847-2,1.27-3.001
		c0.576,3.217,0.686,6.431,0.652,9.654c0.046,0.028,0.092,0.056,0.138,0.083c0.36-0.439,0.72-0.878,1.147-1.399
		c0.158,0.326,0.248,0.457,0.288,0.602c0.603,2.178,0.763,4.408,0.603,6.645c-0.083,1.166-0.065,2.298,0.199,3.426
		c0.649,2.77,2.021,5.159,3.915,7.252c0.377,0.417,0.902,0.704,1.369,1.037c0.22,0.157,0.358,0.099,0.339-0.196
		c-0.015-0.008-0.029-0.016-0.044-0.023c0.015,0.008,0.03,0.016,0.045,0.022c0.296,0.097,0.594,0.189,0.889,0.29
		c0.48,0.164,0.958,0.334,1.436,0.501c0.022-0.045,0.044-0.09,0.066-0.135c-0.307-0.64-0.613-1.278-0.919-1.917
		c-0.026-0.038-0.052-0.075-0.079-0.112c0.014-0.009,0.027-0.018,0.041-0.027c0.013,0.046,0.027,0.092,0.041,0.138
		c0.066,0.02,0.152,0.019,0.195,0.062c0.897,0.877,2.037,1.331,3.152,1.831c0.311,0.74,0.82,1.317,1.414,1.822
		c0.36-0.25,0.672-0.466,1.004-0.696c0.138,0.172,0.254,0.299,0.352,0.44c0.83,1.188,1.967,1.745,3.416,1.688
		c0.91-0.036,1.821-0.055,2.731-0.075c3.135-0.074,6.271-0.134,9.407-0.222c2.171-0.062,4.342-0.15,6.512-0.244
		c1.01-0.044,2.018-0.132,3.123-0.205c-1.626-4.288-5.012-6.553-8.766-8.159c1.007-0.274,2.113-0.576,3.218-0.877
		c4.659,2.584,9.797,4.283,14,7.708c0.066-0.034,0.131-0.068,0.198-0.102c-0.124-1.258-0.248-2.517-0.373-3.793
		c0.26,0.177,0.537,0.353,0.8,0.547c1.03,0.763,2.057,1.529,3.084,2.295c0.064,0.028,0.127,0.058,0.19,0.088
		c0.023,0.044,0.036,0.102,0.071,0.132c1.543,1.327,3.188,2.345,5.357,2.299c2.995-0.063,5.992,0.002,8.989-0.017
		c0.229-0.001,0.551-0.162,0.668-0.35c0.675-1.085,1.339-2.179,1.937-3.307c1.499-2.832,2.959-5.684,4.436-8.527
		c0.138-0.267,0.282-0.531,0.423-0.797c-0.666,0.199-1.241,0.484-1.813,0.776c-0.62,0.316-1.236,0.64-1.854,0.959
		c-0.019,0.016-0.037,0.031-0.056,0.047c0.014-0.02,0.028-0.04,0.041-0.061c0.065-0.196,0.096-0.414,0.201-0.586
		c1.347-2.227,2.651-4.483,4.075-6.66c1.415-2.163,3.063-4.185,3.933-6.662c0.397-1.132,0.712-2.293,1.063-3.44l-0.016-0.014
		c-0.035-0.009-0.069-0.007-0.103,0.005c-0.632,0.444-1.234,0.942-1.904,1.32c-0.806,0.456-1.67,0.809-2.509,1.207l-0.024,0.044
		l-0.019-0.02l0.043-0.024c0.047-0.166,0.097-0.331,0.141-0.498c0.216-0.824,0.431-1.647,0.646-2.471
		c-0.259-0.014-0.367,0.035-0.474,0.088c-1.81,0.916-3.589,1.898-5.437,2.733c-2.53,1.144-4.898,2.531-7.052,4.28
		c-0.729,0.591-1.424,1.222-2.149,1.847c-0.054-0.037-0.115-0.07-0.165-0.114c-0.714-0.642-1.425-1.287-2.141-1.927
		c-0.448-0.401-0.903-0.794-1.356-1.191c1.56-1.999,2.812-4.178,3.568-6.597c0.487-1.559,0.792-3.175,1.178-4.765
		c0.149-0.044,0.3-0.083,0.446-0.135c1.214-0.435,2.449-0.795,3.754-0.708c0.563,0.038,1.118,0.199,1.676,0.305
		c-0.141-0.315-0.281-0.631-0.422-0.946c-0.014-0.017-0.028-0.033-0.043-0.049c0.011,0.002,0.025,0.001,0.03,0.008
		c0.008,0.011,0.01,0.025,0.015,0.039c0.101,0.021,0.21,0.023,0.302,0.065c0.97,0.438,1.917,0.933,2.907,1.314
		c1.627,0.626,3.323,0.923,5.076,0.835c0.236-0.012,0.403-0.032,0.221-0.317c0.167,0.044,0.338,0.075,0.499,0.136
		c1.294,0.488,2.641,0.729,4.008,0.579c1.26-0.139,2.277-0.765,2.839-2c0.159,0.074,0.274,0.128,0.401,0.188
		c0.346-0.972,0.042-1.88-0.136-2.799c-0.031-0.159-0.031-0.394,0.063-0.494c0.34-0.365,0.725-0.688,1.11-1.044
		c0.076,0.175,0.148,0.342,0.237,0.543c0.542-0.9,0.556-1.89,0.621-2.99c0.243,0.298,0.382,0.47,0.521,0.641
		c0.068-0.027,0.136-0.054,0.204-0.081c-0.163-0.8-0.177-1.673-0.525-2.383c-0.486-0.992-0.514-1.79,0.138-2.708
		c0.386-0.543,0.548-1.246,0.889-2.063c0.063,0.168,0.079,0.263,0.13,0.332c0.041,0.054,0.125,0.075,0.22,0.127
		C109.401,56.729,108.743,55.552,108.009,54.298z"/>
		<path fill="#008CBA" d="M14.044,126h-1.66v-14.277h7.959v1.475h-6.299v5.225h5.918v1.475h-5.918V126z"/>
		<path fill="#008CBA" d="M31.7,120.639c0,1.745-0.439,3.107-1.318,4.087s-2.093,1.47-3.643,1.47c-0.957,0-1.807-0.225-2.549-0.674
			s-1.315-1.094-1.719-1.934s-0.605-1.823-0.605-2.949c0-1.745,0.436-3.104,1.309-4.077s2.083-1.46,3.633-1.46
			c1.498,0,2.687,0.498,3.569,1.494S31.7,118.939,31.7,120.639z M23.546,120.639c0,1.367,0.273,2.409,0.82,3.125
			s1.351,1.074,2.412,1.074s1.867-0.356,2.417-1.069s0.825-1.756,0.825-3.13c0-1.361-0.275-2.394-0.825-3.101
			s-1.362-1.06-2.437-1.06c-1.061,0-1.862,0.348-2.402,1.045S23.546,119.258,23.546,120.639z"/>
		<path fill="#008CBA" d="M36.065,115.297v6.943c0,0.873,0.199,1.523,0.596,1.953s1.019,0.645,1.865,0.645
			c1.12,0,1.938-0.306,2.456-0.918s0.776-1.611,0.776-2.998v-5.625h1.621V126h-1.338l-0.234-1.436H41.72
			c-0.332,0.527-0.792,0.931-1.382,1.211s-1.261,0.42-2.017,0.42c-1.302,0-2.277-0.309-2.925-0.928s-0.972-1.608-0.972-2.969v-7.002
			H36.065z"/>
		<path fill="#008CBA" d="M54.142,126v-6.924c0-0.873-0.199-1.523-0.596-1.953s-1.019-0.645-1.865-0.645
			c-1.12,0-1.94,0.303-2.461,0.908s-0.781,1.605-0.781,2.998V126h-1.621v-10.703h1.318l0.264,1.465h0.078
			c0.332-0.527,0.797-0.936,1.396-1.226s1.266-0.435,2.002-0.435c1.289,0,2.259,0.311,2.91,0.933s0.977,1.616,0.977,2.983V126
			H54.142z"/>
		<path fill="#008CBA" d="M66.378,124.564H66.29c-0.749,1.087-1.869,1.631-3.359,1.631c-1.4,0-2.489-0.479-3.267-1.436
			s-1.167-2.318-1.167-4.082s0.391-3.135,1.172-4.111s1.869-1.465,3.262-1.465c1.452,0,2.565,0.527,3.34,1.582h0.127l-0.068-0.771
			l-0.039-0.752v-4.355h1.621V126h-1.318L66.378,124.564z M63.136,124.838c1.107,0,1.909-0.301,2.407-0.903s0.747-1.574,0.747-2.915
			v-0.342c0-1.517-0.252-2.599-0.757-3.247s-1.31-0.972-2.417-0.972c-0.951,0-1.678,0.37-2.183,1.108s-0.757,1.782-0.757,3.13
			c0,1.367,0.25,2.399,0.752,3.096S62.166,124.838,63.136,124.838z"/>
		<path fill="#008CBA" d="M77.931,126l-0.322-1.523H77.53c-0.534,0.67-1.066,1.125-1.597,1.362s-1.193,0.356-1.987,0.356
			c-1.061,0-1.893-0.273-2.495-0.82s-0.903-1.325-0.903-2.334c0-2.162,1.729-3.294,5.186-3.398l1.816-0.059v-0.664
			c0-0.84-0.181-1.46-0.542-1.86s-0.939-0.601-1.733-0.601c-0.892,0-1.901,0.273-3.027,0.82l-0.498-1.24
			c0.527-0.287,1.105-0.511,1.733-0.674s1.258-0.244,1.89-0.244c1.276,0,2.222,0.283,2.837,0.85s0.923,1.475,0.923,2.725V126H77.931
			z M74.269,124.857c1.009,0,1.802-0.277,2.378-0.83s0.864-1.328,0.864-2.324v-0.967l-1.621,0.068
			c-1.289,0.045-2.218,0.246-2.788,0.601s-0.854,0.907-0.854,1.655c0,0.586,0.177,1.032,0.532,1.338S73.63,124.857,74.269,124.857z"
			/>
		<path fill="#008CBA" d="M85.929,124.857c0.287,0,0.563-0.021,0.83-0.063s0.479-0.086,0.635-0.132v1.24
			c-0.176,0.084-0.435,0.155-0.776,0.21s-0.649,0.083-0.923,0.083c-2.07,0-3.105-1.09-3.105-3.271v-6.367h-1.533v-0.781l1.533-0.674
			l0.684-2.285h0.938v2.48h3.105v1.26H84.21v6.299c0,0.645,0.153,1.139,0.459,1.484S85.395,124.857,85.929,124.857z"/>
		<path fill="#008CBA" d="M89.396,112.396c0-0.371,0.091-0.643,0.273-0.815s0.41-0.259,0.684-0.259c0.26,0,0.485,0.088,0.674,0.264
			s0.283,0.446,0.283,0.811s-0.094,0.636-0.283,0.815s-0.414,0.269-0.674,0.269c-0.273,0-0.501-0.089-0.684-0.269
			S89.396,112.761,89.396,112.396z M91.153,126h-1.621v-10.703h1.621V126z"/>
		<path fill="#008CBA" d="M103.829,120.639c0,1.745-0.439,3.107-1.318,4.087s-2.093,1.47-3.643,1.47
			c-0.957,0-1.807-0.225-2.549-0.674s-1.315-1.094-1.719-1.934s-0.605-1.823-0.605-2.949c0-1.745,0.436-3.104,1.309-4.077
			s2.083-1.46,3.633-1.46c1.498,0,2.687,0.498,3.569,1.494S103.829,118.939,103.829,120.639z M95.675,120.639
			c0,1.367,0.273,2.409,0.82,3.125s1.351,1.074,2.412,1.074s1.867-0.356,2.417-1.069s0.825-1.756,0.825-3.13
			c0-1.361-0.275-2.394-0.825-3.101s-1.362-1.06-2.437-1.06c-1.061,0-1.862,0.348-2.402,1.045S95.675,119.258,95.675,120.639z"/>
		<path fill="#008CBA" d="M113.995,126v-6.924c0-0.873-0.199-1.523-0.596-1.953s-1.019-0.645-1.865-0.645
			c-1.12,0-1.94,0.303-2.461,0.908s-0.781,1.605-0.781,2.998V126h-1.621v-10.703h1.318l0.264,1.465h0.078
			c0.332-0.527,0.797-0.936,1.396-1.226s1.266-0.435,2.002-0.435c1.289,0,2.259,0.311,2.91,0.933s0.977,1.616,0.977,2.983V126
			H113.995z"/>
</svg>
