<svg version="1.1" xmlns="http://www.w3.org/2000/svg" xmlns:xlink="http://www.w3.org/1999/xlink" viewBox="0 0 128 128">
	<path fill-rule="evenodd" clip-rule="evenodd" fill="#008CBA" d="M116.173,64.1c0.57,0.183,1.018,0.328,1.466,0.472
		c0.029-0.053,0.058-0.106,0.087-0.159c-0.8-1.056-1.576-2.191-3.034-2.396c-1.061-0.149-2.147-0.108-3.223-0.151
		c0.035-0.51-0.153-0.69-0.66-0.482c-0.479,0.196-0.973,0.356-1.458,0.539c-1.163,0.437-2.321,0.889-3.491,1.305
		c-0.205,0.073-0.461-0.001-0.693-0.007c0.017-0.218,0-0.446,0.057-0.653c0.214-0.779,0.458-1.549,0.678-2.326
		c0.073-0.259,0.11-0.529,0.164-0.792c0.378,0.301,0.7,0.557,1.105,0.878c0.225-2.741-0.326-5.136-1.755-7.449
		c0.533,0.03,0.947,0.053,1.433,0.08c-0.644-1.489-1.602-2.617-2.945-3.412c-1.694-1.004-3.604-0.986-5.477-1.138
		c-0.295-0.024-0.594-0.003-0.956-0.003c1.423,2.374,2.019,6.36,1.156,7.71c-0.19-0.32-0.365-0.613-0.479-0.807
		c-1.073,1.737-2.09,3.56-3.281,5.262c-1.195,1.708-2.672,3.167-4.715,4.116c0.095-0.47,0.162-0.797,0.248-1.223
		c-0.304,0.08-0.494,0.149-0.69,0.179c-0.509,0.077-1.037,0.252-1.526,0.178c-0.915-0.14-1.809-0.418-2.707-0.659
		c-0.616-0.166-1.223-0.364-1.834-0.547l0.001,0.003c-0.043-0.046-0.086-0.092-0.129-0.138c-0.713-0.499-0.598-1.094-0.246-1.758
		c0.241-0.455,0.412-0.947,0.601-1.428c0.428-1.093,0.847-2.19,1.27-3.285c0.422-0.473,0.9-0.907,1.25-1.427
		c0.39-0.58,0.686-1.228,0.978-1.866c0.209-0.458,0.493-0.773,0.972-0.975c0.277-0.116,0.557-0.38,0.69-0.65
		c0.246-0.496,0.398-1.041,0.562-1.574c0.129-0.424-0.031-0.728-0.463-0.869c-0.177-0.058-0.353-0.116-0.53-0.174
		c0.046-0.18,0.068-0.371,0.145-0.537c1.309-2.798,2.578-5.615,3.952-8.382c1.401-2.823,2.894-5.601,4.375-8.383
		c0.314-0.591,0.752-1.116,1.133-1.67c0.663,0.044,1.325,0.115,1.988,0.129c2.977,0.062,5.679-0.691,7.873-2.805
		c2.3-2.215,3.884-4.893,4.941-7.893c0.055-0.139,0.11-0.278,0.214-0.543c-0.217,0.137-0.319,0.196-0.416,0.262
		c-2.932,2.006-6.098,3.113-9.705,2.532c0.042-0.116,0.058-0.251,0.128-0.346c1.264-1.711,2.527-3.422,3.808-5.121
		c0.453-0.601,0.951-1.167,1.472-1.801c-0.324-0.123-0.55-0.222-0.784-0.296c-1.202-0.378-2.401-0.768-3.612-1.117
		c-0.515-0.148-0.623-0.403-0.406-0.867c0.51-1.088,1.007-2.183,1.514-3.272c0.146-0.313,0.374-0.621,0.567-1.013
		C102.818,6.79,100,6.727,97,7.099c0-0.588,0-1.134,0-1.776c-2,0.182-2.419,0.288-3.519,0.531c-1.092,0.24-2.189,0.617-3.265,0.934
		c-0.047-0.034-0.112-0.067-0.159-0.101c0.824-1.424,1.641-2.848,2.521-4.368c-1.306,0.149-2.527,0.224-3.72,0.438
		c-2.393,0.428-5.106,0.91-7.484,1.414C80.347,4.388,79,4.716,78,4.994c0-0.594,0-1.188,0-1.882c-1,0.271-2.777,1.055-4.489,1.692
		c0.35-1.05,0.814-1.924,1.088-2.805c0.06-0.192,0.104-0.415,0.111-0.624c-0.09-0.033-0.145-0.106-0.229-0.094
		c-0.733,0.106-1.447,0.207-2.173,0.349c-3.778,0.741-7.366,1.992-10.744,3.853c-0.384,0.212-0.77,0.411-1.314,0.7
		c-0.093-1.442-0.172-2.731-0.256-4.037c-2.035,0.718-3.987,1.66-5.394,3.466c-0.267-1.038-0.534-2.076-0.801-3.114
		c-0.002-0.081-0.004-0.162-0.007-0.243c-0.012-0.039-0.024-0.077-0.037-0.116c-0.021,0.023-0.041,0.046-0.061,0.069
		c-0.175,0.202-0.368,0.391-0.522,0.608c-1.603,2.258-2.446,4.78-2.602,7.539c-0.422-0.926-0.844-1.851-1.29-2.83
		c-0.606,2.869-1.199,5.671-1.817,8.597c-1.068-1.36-2.035-2.592-3.064-3.904c-1.055,2.856-1.744,5.714-2.071,8.766
		c-0.764-0.862-1.43-1.614-2.152-2.427c-1.436,4.394-2.656,8.712-3.108,13.274c-1.082-0.659-1.744-1.526-2.197-2.582
		c-0.654-1.521-0.813-3.113-0.75-4.745c0.009-0.248-0.024-0.497-0.037-0.746c-0.061,0.001-0.122,0.001-0.182,0.002
		c-2.136,7.443-2.69,15.056-2.403,22.787c-0.883-1.681-1.765-3.361-2.648-5.041c-0.06,0.005-0.119,0.01-0.178,0.015
		c-0.179,1.949-0.392,3.895-0.522,5.847c-0.081,1.206,0.121,0.992-1.032,1.279c-3.628,0.905-7.076,2.207-10.091,4.492
		c-0.19,0.144-0.424,0.229-0.638,0.342c0.073,0.068,0.145,0.136,0.218,0.205c1.055,0.394,2.11,0.789,3.087,1.154
		c-1.331,1.479-2.647,2.872-3.88,4.335c-1.249,1.482-2.21,3.148-2.933,5.048c0.691-0.288,1.252-0.547,1.832-0.755
		c0.551-0.199,1.122-0.345,1.683-0.514c-1.1,1.13-1.926,2.368-2.609,3.694c-2.427,4.715-3.288,9.827-3.577,15.037
		c-0.188,3.369-0.093,6.754,0.475,10.102c0.097,0.571,0.221,1.138,0.332,1.707c0.083,0.015,0.167,0.029,0.25,0.044
		c0.502-1.186,1.003-2.372,1.505-3.558c0.684,3.814,0.814,7.624,0.773,11.445c0.054,0.033,0.109,0.066,0.163,0.099
		c0.427-0.521,0.854-1.041,1.361-1.659c0.188,0.386,0.294,0.542,0.341,0.714c0.714,2.582,0.905,5.227,0.714,7.877
		c-0.099,1.382-0.077,2.723,0.236,4.062c0.77,3.284,2.396,6.116,4.642,8.597c0.447,0.495,1.069,0.835,1.622,1.23
		c0.262,0.186,0.426,0.116,0.403-0.233c-0.018-0.01-0.035-0.019-0.053-0.029c0.018,0.01,0.036,0.019,0.054,0.028
		c0.351,0.114,0.704,0.224,1.053,0.343c0.569,0.195,1.136,0.396,1.703,0.594c0.026-0.054,0.052-0.107,0.078-0.16
		c-0.364-0.757-0.727-1.515-1.09-2.272c-0.031-0.045-0.062-0.089-0.093-0.133c0.016-0.011,0.032-0.021,0.048-0.032
		c0.016,0.054,0.032,0.108,0.048,0.163c0.078,0.023,0.18,0.022,0.231,0.072c1.063,1.04,2.415,1.579,3.737,2.171
		c0.368,0.877,0.972,1.561,1.676,2.161c0.427-0.296,0.797-0.553,1.19-0.826c0.164,0.203,0.301,0.355,0.417,0.521
		c0.984,1.409,2.332,2.07,4.049,2.001c1.079-0.043,2.159-0.065,3.239-0.09c3.717-0.087,7.435-0.158,11.151-0.262
		c2.574-0.072,5.147-0.178,7.72-0.29c1.197-0.053,2.392-0.156,3.703-0.243c-1.928-5.083-5.942-7.769-10.392-9.673
		c1.194-0.325,2.504-0.682,3.814-1.039c5.522,3.064,11.615,5.078,16.597,9.138c0.078-0.04,0.157-0.081,0.234-0.121
		c-0.146-1.491-0.293-2.982-0.442-4.497c0.308,0.21,0.636,0.418,0.948,0.649c1.221,0.903,2.438,1.813,3.656,2.72
		c0.076,0.034,0.151,0.069,0.226,0.104c0.027,0.053,0.042,0.121,0.084,0.157c1.831,1.573,3.78,2.779,6.351,2.725
		c3.55-0.075,7.104,0.002,10.657-0.02c0.271-0.001,0.654-0.192,0.792-0.415c0.8-1.285,1.588-2.582,2.296-3.92
		c1.776-3.357,3.507-6.738,5.258-10.109c0.164-0.316,0.334-0.63,0.501-0.945c-0.789,0.236-1.471,0.574-2.148,0.92
		c-0.735,0.375-1.466,0.758-2.199,1.137c-0.022,0.019-0.043,0.037-0.065,0.055c0.017-0.024,0.033-0.047,0.049-0.072
		c0.077-0.233,0.114-0.49,0.238-0.695c1.597-2.64,3.143-5.314,4.832-7.895c1.677-2.564,3.631-4.961,4.663-7.897
		c0.471-1.342,0.843-2.718,1.26-4.079l-0.019-0.016c-0.041-0.01-0.082-0.008-0.122,0.006c-0.75,0.527-1.463,1.117-2.257,1.565
		c-0.956,0.54-1.98,0.959-2.975,1.431l-0.029,0.052l-0.023-0.023l0.052-0.028c0.056-0.197,0.115-0.393,0.167-0.59
		c0.257-0.977,0.511-1.953,0.767-2.929c-0.307-0.018-0.436,0.041-0.562,0.104c-2.146,1.086-4.256,2.251-6.445,3.24
		c-3,1.356-5.807,3-8.361,5.074c-0.863,0.701-1.688,1.448-2.548,2.189c-0.064-0.044-0.136-0.083-0.195-0.136
		c-0.847-0.76-1.69-1.525-2.539-2.283c-0.532-0.476-1.072-0.941-1.608-1.413c1.849-2.37,3.333-4.953,4.229-7.822
		c0.577-1.848,0.939-3.763,1.397-5.649c0.176-0.053,0.355-0.097,0.528-0.159c1.439-0.516,2.903-0.943,4.451-0.839
		c0.667,0.045,1.325,0.236,1.987,0.361c-0.167-0.374-0.333-0.748-0.5-1.121c-0.017-0.02-0.033-0.039-0.05-0.059
		c0.012,0.003,0.029,0.002,0.035,0.01c0.01,0.013,0.013,0.03,0.018,0.046c0.12,0.024,0.249,0.028,0.357,0.077
		c1.15,0.52,2.272,1.106,3.447,1.559c1.929,0.742,3.939,1.094,6.018,0.99c0.279-0.014,0.478-0.039,0.262-0.376
		c0.198,0.052,0.401,0.088,0.592,0.16c1.534,0.579,3.131,0.865,4.752,0.686c1.493-0.165,2.698-0.907,3.365-2.371
		c0.188,0.088,0.325,0.152,0.475,0.222c0.411-1.152,0.049-2.229-0.161-3.319c-0.036-0.188-0.036-0.467,0.075-0.585
		c0.402-0.433,0.858-0.816,1.316-1.238c0.09,0.208,0.176,0.405,0.281,0.645c0.642-1.068,0.658-2.241,0.735-3.546
		c0.288,0.354,0.453,0.557,0.618,0.76c0.08-0.032,0.161-0.064,0.241-0.096c-0.193-0.949-0.209-1.983-0.622-2.825
		c-0.576-1.176-0.609-2.122,0.164-3.21c0.458-0.644,0.65-1.477,1.054-2.446c0.074,0.199,0.093,0.312,0.154,0.394
		c0.048,0.064,0.148,0.089,0.261,0.151C117.824,66.981,117.043,65.585,116.173,64.1z"/>
</svg>
