<svg version="1.1" xmlns="http://www.w3.org/2000/svg" xmlns:xlink="http://www.w3.org/1999/xlink" viewBox="0 0 128 128">
	<path fill="#F34F29" d="M76.004,50.588c-7.655,0-11.459,3.996-11.459,9.75c0,3.704,1.852,6.328,4.304,7.529
		c-1.201,1.101-2.201,2.064-3.102,3.014c-0.902,0.952-1.452,1.957-1.452,3.059c0,1.352,0.55,2.605,2.202,3.303
		c-1.751,1.654-2.753,2.854-2.753,5.107c0,3.953,3.453,6.256,12.511,6.256c8.708,0,13.761-3.251,13.761-9.007
		c0-6.653-5.103-6.904-13.761-7.456l-4.904-0.3l1.652-2.652c0.899,0.25,2.352,0.45,3.955,0.45c6.304,0,10.658-3.252,10.658-8.808
		c0-2.302-1.137-3.903-2.037-5.055L90,55.428V51h-9.391C79.459,51,78.156,50.588,76.004,50.588z M78.256,79.099
		c2.404,0.15,4.306,0.25,4.306,1.854c0,2.699-3.955,2.902-6.856,2.902c-3.504,0-6.056-0.602-6.056-2.603
		c0-1.002,0.65-1.852,1.302-2.652L78.256,79.099z M76.307,64.387c-3.304,0-4.655-1.703-4.655-4.154c0-3.253,2.051-4.605,4.804-4.605
		c2.852,0,4.554,1.552,4.554,4.504C81.01,62.736,79.108,64.387,76.307,64.387z"/>
	<path fill="#F34F29" d="M99.173,46.685c2.902,0,4.554-1.652,4.554-4.506c0-2.85-1.652-4.403-4.554-4.403
		c-2.853,0-4.505,1.553-4.505,4.403C94.668,45.032,96.32,46.685,99.173,46.685z"/>
	<path fill="#F34F29" d="M103,71.455V51h-9.733l-0.55,3.896l2.667,0.874C95.886,55.919,96,56.193,96,56.743v14.712
		c0,0.752-0.422,0.902-1.123,1.003L92,72.808V77h15v-4.192l-2.876-0.35C103.371,72.357,103,72.258,103,71.455z"/>
	<path fill="#F34F29" d="M125.418,70.415c-1.202,0.45-2.632,0.799-4.035,0.799c-2.701,0-3.383-1.15-3.383-4.103V55h7v-5h-6.638
		c-0.401,0-0.362-0.003-0.362-0.353V43h-4.793c-0.55,5-3.207,7.196-7.207,7.698V55h4.003c0.401,0-0.003,0.353-0.003,0.652v13.111
		c0,5.657,2.454,8.058,8.408,8.058c2.854,0,6.107-0.951,8.26-2.001L125.418,70.415z"/>
	<path fill="#F34F29" d="M29.738,38.806c-1.317-1.318-3.455-1.318-4.773,0l-4.751,4.751l6.027,6.027
		c1.401-0.473,3.007-0.156,4.124,0.961c1.122,1.123,1.437,2.743,0.952,4.149l5.809,5.809c1.406-0.484,3.027-0.171,4.149,0.953
		c1.57,1.568,1.57,4.11,0,5.679c-1.569,1.57-4.11,1.57-5.68,0c-1.18-1.181-1.624-2.914-1.025-4.368L29,57.35v14.257
		c0,0.189,0.895,0.441,1.214,0.759c1.568,1.568,1.644,4.11,0.075,5.681c-1.569,1.568-4.074,1.568-5.642,0
		c-1.568-1.571-1.549-4.112,0.02-5.681C25.055,71.979,25,71.686,26,71.49V57.101c-1-0.196-0.927-0.487-1.314-0.876
		c-1.188-1.188-1.474-2.931-0.865-4.39l-5.942-5.943L2.19,61.581c-1.319,1.319-1.319,3.457,0,4.774l22.882,22.881
		c1.317,1.317,3.454,1.317,4.773,0L52.62,66.46c1.317-1.318,1.317-3.456,0-4.774L29.738,38.806z"/>
</svg>
