<svg version="1.1" xmlns="http://www.w3.org/2000/svg" xmlns:xlink="http://www.w3.org/1999/xlink" viewBox="0 0 128 128">
		<path fill-rule="evenodd" clip-rule="evenodd" fill="#FCAA1A" d="M92.462,53.242c2.167-1.232,4.408-2.46,6.257-4.097
			c3.323-2.942,2.99-7.149-0.471-9.907c-0.566-0.451-1.363-0.928-1.516-1.529c-0.684-2.708-1.304-5.447,0.366-8.104
			c0.645-1.025,1.168-2.175,1.5-3.337c0.938-3.282-0.63-6.001-3.912-6.968c-0.563-0.166-1.177-0.171-1.723-0.371
			c-0.344-0.126-0.815-0.439-0.871-0.735c-0.615-3.287-0.203-4.671,2.367-6.136c1.213-0.692,2.628-1.035,3.964-1.503
			c0.517-0.181,1.065-0.271,1.647-0.414c-3.067-4.287-8.487-6.093-13.872-4.758c-4.222,1.046-7.255,3.767-9.992,6.947
			c-0.322,0.375-0.895,0.737-1.359,0.747c-1.271,0.026-1.546-0.92-1.325-1.918c0.43-1.945,0.991-3.861,1.509-5.829
			C72.63,5.267,70.796,6.792,68.69,8.26c-0.252-1.301-0.576-2.385-0.642-3.484c-0.068-1.147,0.112-2.309,0.19-3.549
			c-3.702,1.331-6.53,3.443-7.321,7.587c-0.16,0.001-0.32,0.004-0.479,0.005c-0.357-1.674-0.716-3.349-1.105-5.172
			c-0.447,0.286-0.934,0.514-1.317,0.856c-2.251,2.009-3.631,4.474-3.892,7.528c-0.032,0.37-0.3,1-0.498,1.016
			c-0.383,0.031-0.877-0.202-1.177-0.484c-0.606-0.57-1.089-1.268-1.665-1.873c-3.469-3.641-7.546-6.016-12.748-5.701
			c-3.934,0.237-7.291,1.715-9.548,4.959c1.933,0.729,3.883,1.261,5.633,2.177c2.198,1.15,2.71,2.788,2.465,5.174
			c-0.137,1.339-0.762,1.637-1.913,1.817c-3.989,0.625-5.883,3.694-4.707,7.545c0.242,0.792,0.496,1.655,1.001,2.276
			c1.821,2.243,1.422,4.779,1.185,7.322c-0.113,1.207-0.685,2.06-1.649,2.807c-4.017,3.112-4.117,7.45-0.144,10.667
			c1.626,1.316,3.491,2.381,5.358,3.344c2.552,1.314,3.562,3.417,3.554,6.118c-0.007,2.213-0.104,4.428-0.23,6.637
			c-0.091,1.569-0.299,3.132-0.454,4.698c-0.15,0.041-0.301,0.082-0.451,0.123c-0.92-1.25-1.97-2.427-2.723-3.77
			c-0.746-1.332-1.193-2.831-1.771-4.257c-5.922,4.88-6.083,18.888,3.384,23.208c1.324,0.605,2.176,1.436,2.909,2.672
			c2.521,4.246,6.248,6.833,11.152,7.681c0.508,0.088,1.033,0.302,1.461,0.59c6.521,4.391,16.831,4.408,23.317,0.03
			c0.395-0.266,0.85-0.526,1.307-0.599c5.455-0.863,9.326-3.879,11.957-8.647c0.242-0.438,0.639-0.917,1.078-1.099
			c5.614-2.318,8.333-6.632,8.705-12.552c0.274-4.365-0.897-8.229-4.221-11.517c-0.683,3.34-2.151,6.039-5.018,8.172
			c-0.142-4.121-0.395-8.242-0.381-12.362C89.301,56.025,90.471,54.373,92.462,53.242z M38.756,12.128
			c2.479-0.014,5.788,2.787,5.559,5.126c-0.085,0.864-1.193,2.008-2.076,2.304c-0.84,0.281-2.187-0.088-2.454-1.488
			c-0.127-0.672-0.22-1.349-0.337-2.022C39.224,14.766,38.996,13.485,38.756,12.128z M44.938,85.083
			c-1.354-0.233-2.682-0.352-3.947-0.698c-5.503-1.509-8.581-5.403-8.678-11.104c-0.028-1.633,0.353-3.273,0.562-4.909
			c0.004-0.031,0.209-0.061,0.31-0.041c0.035,0.007,0.036,0.173,0.053,0.266c2.778,5.933,8.079,7.539,13.915,8.086
			c-0.912,1.697-1.813,3.37-2.713,5.043C44.589,82.74,44.74,83.753,44.938,85.083z M44,40.94c0-1.144,0-2.288,0-3.696
			c3,1.812,5.879,3.595,8.008,6.061c0.193,0.215,0.458,0.42,0.635,0.647c0.113,0.145,0.093,0.322,0.178,0.477
			C50.01,46.604,44,45.24,44,40.94z M59.755,84.335c-0.597,0.838-1.162,1.7-1.795,2.509c-1.48,1.894-3.584,2.012-5.352,0.328
			c-0.563-0.537-1.111-1.089-1.667-1.634c0,0,0.005,0.007,0.004,0.007c-0.102-0.102-0.204-0.204-0.306-0.305
			c-0.649-3.142-0.585-3.224,2.789-3.25c1.572-0.013,3.146-0.037,4.716,0.01C59.903,82.053,60.259,82.605,59.755,84.335z
			 M77.789,84.965c-0.105,0.191-0.213,0.383-0.319,0.574c0.001-0.001,0.003-0.003,0.004-0.004l-0.008,0.012
			c0.001-0.003,0.003-0.005,0.004-0.008c-0.424,0.459-0.836,0.93-1.274,1.375c-1.997,2.027-4.187,1.896-5.915-0.367
			c-0.558-0.73-1.061-1.501-1.59-2.253c-0.471-1.69-0.078-2.26,1.688-2.299c1.819-0.041,3.64-0.025,5.459-0.005
			C78.286,82.019,78.69,82.648,77.789,84.965z M75.329,44.395c0.295-0.356,0.533-0.708,0.825-1.061C78.284,40.86,80,39.08,84,37.248
			c0,1.416,0,2.557,0,3.699C84,45.157,78.301,46.623,75.329,44.395z M94.956,69.047c0.13-0.293,0.26-0.586,0.39-0.879
			c1.232,3.987,1.334,7.904-0.986,11.445c-2.493,3.804-6.367,5.128-10.783,5.402c0.146-1.185,0.277-2.236,0.408-3.288
			c-0.871-1.661-1.741-3.321-2.63-5.017C86.865,76.082,92.162,74.774,94.956,69.047z M88.772,17.61
			c-0.149,0.896-0.433,1.517-1.506,1.88c-1.6,0.541-2.164-0.604-2.808-1.439c-0.311-0.402-0.183-1.348,0.05-1.926
			c0.761-1.892,2.022-3.35,4.093-3.903c0.4-0.106,0.821-0.136,1.067-0.175C89.345,14.068,89.067,15.841,88.772,17.61z"/>
		<path fill-rule="evenodd" clip-rule="evenodd" fill="#FCAA1A" d="M91.564,105.906c1.853,0,3.457,0,5.162,0
			c0,6.892,0,13.723,0,20.628c-2.364,0.339-4.352,0.308-6.016-1.937c-2.459-3.316-5.282-6.362-8.213-9.836c0,4.16,0,7.953,0,11.826
			c-1.79,0-3.388,0-5.067,0c0-6.903,0-13.735,0-20.65c2.329-0.285,4.325-0.296,5.985,1.956c2.447,3.318,5.268,6.361,8.149,9.782
			C91.564,113.609,91.564,109.854,91.564,105.906z"/>
		<path fill-rule="evenodd" clip-rule="evenodd" fill="#FCAA1A" d="M34.496,106.059c3.491,0,6.893-0.204,10.257,0.062
			c2.858,0.227,5.174,1.617,5.862,4.746c0.61,2.771-0.526,5.05-3.401,6.985c1.847,2.817,3.693,5.633,5.718,8.722
			c-2.235,0-4.13,0.097-6.004-0.063c-0.534-0.045-1.123-0.755-1.484-1.296c-1.038-1.553-2.013-3.152-2.93-4.78
			c-0.529-0.939-1.164-1.438-2.405-1.076c0,2.343,0,4.736,0,7.218c-1.936,0-3.729,0-5.613,0
			C34.496,119.705,34.496,112.879,34.496,106.059z M40.146,115.231c1.735,0.076,3.522,0.382,4.491-1.235
			c0.428-0.716,0.438-2.17-0.021-2.83c-1.051-1.511-2.825-1.116-4.469-1.058C40.146,111.844,40.146,113.45,40.146,115.231z"/>
		<path fill-rule="evenodd" clip-rule="evenodd" fill="#FCAA1A" d="M25.202,119.68c-0.889,0-1.804,0-2.819,0
			c0-1.402,0-2.657,0-4.053c2.692,0,5.411,0,8.245,0c0,2.804,0.028,5.562-0.033,8.317c-0.008,0.384-0.372,0.936-0.721,1.111
			c-4.789,2.405-9.647,2.788-14.375-0.041c-3.7-2.214-5.383-6.531-4.545-10.892c0.824-4.286,3.886-7.355,8.268-8.209
			c3.599-0.702,7.069-0.408,10.259,1.578c0.487,0.304,0.907,0.717,1.429,1.136c-0.862,1.266-1.657,2.431-2.51,3.682
			c-0.979-0.515-1.824-1.002-2.704-1.415c-3.872-1.819-7.87-0.248-8.856,3.462c-1.247,4.685,1.605,8.368,6.296,8.134
			C25.444,122.375,25.576,122.206,25.202,119.68z"/>
		<path fill-rule="evenodd" clip-rule="evenodd" fill="#FCAA1A" d="M67.632,105.886c1.989,0,3.752,0,5.489,0
			c0.088,0.109,0.2,0.184,0.2,0.257c-0.017,4.529,0.161,9.071-0.131,13.583c-0.246,3.798-3.31,6.437-7.597,7.061
			c-2.539,0.37-5.017,0.065-7.291-1.243c-2.398-1.379-3.826-3.515-3.962-6.215c-0.199-3.935-0.082-7.886-0.098-11.829
			c-0.002-0.485,0-0.972,0-1.564c1.891,0,3.686,0,5.63,0c0.021,0.45,0.062,0.923,0.063,1.396c0.007,3.55-0.024,7.1,0.018,10.648
			c0.03,2.592,1.263,4.057,3.406,4.202c2.672,0.181,4.229-1.195,4.261-3.879c0.043-3.599,0.012-7.198,0.013-10.798
			C67.633,107.021,67.632,106.539,67.632,105.886z"/>
		<path fill-rule="evenodd" clip-rule="evenodd" fill="#FCAA1A" d="M117.257,105.938c0,1.475,0,2.832,0,4.338
			c-1.977,0-3.874,0-5.901,0c0,4.226,0.013,8.302-0.007,12.378c-0.007,1.269,0.381,3.088-0.277,3.663
			c-0.778,0.679-2.495,0.284-3.805,0.354c-0.049,0.003-0.1-0.006-0.147,0.001c-1.196,0.189-1.609-0.248-1.589-1.518
			c0.075-4.877,0.03-9.757,0.03-14.832c-1.963,0-3.9,0-5.911,0c0-1.554,0-2.911,0-4.384
			C105.486,105.938,111.317,105.938,117.257,105.938z"/>
</svg>
