<svg version="1.1" xmlns="http://www.w3.org/2000/svg" xmlns:xlink="http://www.w3.org/1999/xlink" viewBox="0 0 128 128">
	<path fill-rule="evenodd" clip-rule="evenodd" fill="#EB4A4B" d="M36.965,35.459c0.877,9.232,1.747,18.412,2.637,27.798
		c1.451-2.495,2.501-4.888,4.085-6.848c1.475-1.826,3.334-3.511,5.357-4.678c2.641-1.524,6.104-0.089,6.96,2.614
		c0.23,0.725-0.319,1.697-0.511,2.556c-0.646-0.341-1.479-0.529-1.901-1.051c-1.793-2.217-2.873-2.479-4.856-0.563
		c-3.699,3.576-5.779,8.056-6.573,13.091c-0.153,0.974,0.456,2.067,0.713,3.105c1.011-0.348,2.185-0.476,3.002-1.084
		c2.656-1.977,4.302-4.666,5.21-7.88c0.197-0.696,1.265-1.145,1.933-1.708c0.32,0.658,1.05,1.433,0.897,1.954
		c-1.407,4.84-2.934,9.649-4.536,14.429c-0.162,0.484-1.051,0.725-1.604,1.079c-0.223-0.636-0.692-1.302-0.617-1.901
		c0.168-1.358,0.605-2.683,0.91-3.927c-2.39,1.1-4.628,2.131-7.24,3.333c0.405,4.622,0.825,9.807,1.323,14.985
		c0.382,3.954,1.029,4.978,4.923,5.728c4.544,0.875,9.173,1.434,13.792,1.774c6.825,0.503,13.59-0.119,20.23-1.904
		c2.472-0.664,3.458-2.29,3.635-4.717c0.162-2.235,0.524-4.456,0.775-6.685c0.493-4.391,0.972-8.783,1.476-13.358
		c-1.667,1.056-2.978,2.238-4.511,2.739c-1.116,0.365-2.524-0.169-3.803-0.303c0.245-1.174,0.23-2.497,0.796-3.487
		c0.922-1.618,2.224-3.021,3.364-4.515c-0.163-0.197-0.326-0.394-0.491-0.591c-0.817,0.483-1.832,0.8-2.413,1.485
		c-1.182,1.394-2.339,2.886-3.13,4.52c-1.324,2.735-2.333,5.622-3.518,8.426c-0.515,1.216-0.959,3.076-2.684,2.366
		c-1.845-0.761-0.547-2.386-0.114-3.542c0.689-1.844,1.599-3.606,2.215-4.962c-1.746,0.208-3.516,0.459-5.294,0.614
		c-0.752,0.064-1.646-0.348-2.261-0.07c-2.045,0.924-3.341,0.553-3.766-1.711c-0.947,0.615-1.749,1.448-2.694,1.672
		c-1.147,0.273-2.703,0.452-3.543-0.121c-0.673-0.459-0.918-2.184-0.688-3.196c0.457-2.012,1.311-3.946,2.122-5.859
		c0.502-1.185,1.007-3.077,2.701-2.253c1.674,0.813,0.154,2.185-0.232,3.286c-0.599,1.702-1.209,3.401-1.813,5.101
		c0.319,0.193,0.64,0.386,0.96,0.58c0.914-0.794,2.053-1.441,2.693-2.415c1.048-1.592,1.681-3.452,2.673-5.086
		c0.411-0.677,1.296-1.065,1.967-1.584c0.136,0.862,0.462,1.748,0.354,2.58c-0.107,0.841-0.698,1.61-0.981,2.442
		c-0.425,1.246-0.768,2.52-1.2,3.969c2.043,0.078,2.918-0.782,3.495-2.299c1.826-4.793,3.672-9.581,5.679-14.3
		c0.343-0.808,1.509-1.264,2.296-1.884c0.091,0.974,0.525,2.078,0.216,2.899c-1.645,4.349-3.492,8.62-5.228,12.935
		c-0.293,0.727-0.387,1.534-0.572,2.304c3.059-1.375,5.612-2.895,6.544-6.146c0.228-0.79,1.162-1.377,1.771-2.058
		c0.478,0.506,0.955,1.011,1.416,1.5c0.43-0.362,0.824-0.774,1.291-1.075c1.47-0.947,3.053-1.782,4.603-0.315
		c1.604,1.517,0.39,2.995-0.448,4.307c-0.912,1.431-2.029,2.73-3.057,4.086c2.312-1.49,5.469-2.158,5.889-5.378
		c1.024-7.865,1.924-15.746,2.837-23.625c0.271-2.332,0.416-4.679,0.627-7.109C72.843,39.937,55.024,39.964,36.965,35.459z"/>
	<path fill-rule="evenodd" clip-rule="evenodd" fill="#EB4A4B" d="M44.781,96.828c0.877,2.317,2.209,4.593,2.558,7.011
		c0.737,5.147,0.924,10.372,1.446,15.554c0.076,0.755,0.565,1.792,1.175,2.124c8.98,4.88,18.047,5.726,27.209,0.389
		c1.367-0.796,1.62-1.847,1.797-3.325c0.857-7.181-1.051-14.798,3.54-21.56C69.65,100.21,57.103,100.309,44.781,96.828z"/>
	<path fill-rule="evenodd" clip-rule="evenodd" fill="#EB4A4B" d="M75.772,36.748c4.362-0.421,8.671-1.445,12.985-2.291
		c0.813-0.159,1.535-0.778,2.299-1.185c-1.007-0.885-1.878-1.311-2.788-1.418c-4.53-0.535-9.076-0.947-13.603-1.508
		c-0.684-0.085-1.905-0.929-1.854-1.083c1.321-3.98,1.256-8.485,4.254-11.839c3.789-4.24,7.617-8.443,11.416-12.648
		c-2.826-3.04-2.864-3.044-5.425-0.383c-1.448,1.504-2.771,3.15-4.342,4.512c-5.813,5.038-9.896,11.005-10.692,18.872
		c-0.183,1.805-1.174,2.457-3.069,2.485c-6.256,0.091-12.519,0.263-18.761,0.674c-3.093,0.203-6.148,0.997-9.221,1.523
		c-0.01,0.383-0.02,0.766-0.028,1.149c1.923,0.593,3.809,1.372,5.773,1.749C53.66,37.455,64.707,37.815,75.772,36.748z M72.276,34
		c-2.477,2-4.524,2-6.501,0C67.866,34,69.946,34,72.276,34z"/>
</svg>
