<svg version="1.1" xmlns="http://www.w3.org/2000/svg" xmlns:xlink="http://www.w3.org/1999/xlink" viewBox="0 0 128 128">
  <path fill="#EA2D2E" d="M47.617,98.12c-19.192,5.362,11.677,16.439,36.115,5.969c-4.003-1.556-6.874-3.351-6.874-3.351c-10.897,2.06-15.952,2.222-25.844,1.092C42.85,100.895,47.617,98.12,47.617,98.12z" />
  <path fill="#EA2D2E" d="M80.806,87.66c-14.444,2.779-22.787,2.69-33.354,1.6c-8.171-0.845-2.822-4.805-2.822-4.805c-21.137,7.016,11.767,14.977,41.309,6.336C82.799,89.685,80.806,87.66,80.806,87.66z" />
  <path fill="#EA2D2E" d="M92.125,27.085c0.001,0-42.731,10.669-22.323,34.187c6.024,6.935-1.58,13.17-1.58,13.17s15.289-7.891,8.269-17.777C69.932,47.45,64.904,42.872,92.125,27.085z" />
  <path fill="#EA2D2E" d="M102.123,108.229c0,0,3.529,2.91-3.888,5.159c-14.102,4.272-58.706,5.56-71.095,0.171c-4.45-1.938,3.899-4.625,6.526-5.192c2.739-0.593,4.303-0.485,4.303-0.485c-4.952-3.487-32.013,6.85-13.742,9.815C74.048,125.773,115.044,114.06,102.123,108.229z"
  />
  <path fill="#EA2D2E" d="M85,77.896c2.395-1.634,5.703-3.053,5.703-3.053s-9.424,1.685-18.813,2.474c-11.494,0.964-23.823,1.154-30.012,0.326c-14.652-1.959,8.033-7.348,8.033-7.348s-8.812-0.596-19.644,4.644C17.455,81.134,61.958,83.958,85,77.896z" />
  <path fill="#EA2D2E" d="M90.609,93.041c-0.108,0.29-0.468,0.616-0.468,0.616c31.273-8.221,19.775-28.979,4.822-23.725c-1.312,0.464-2,1.543-2,1.543s0.829-0.334,2.678-0.72C103.2,69.18,114.03,80.874,90.609,93.041z" />
  <path fill="#EA2D2E" d="M64.181,70.069c-4.614-10.429-20.26-19.553,0.007-35.559C89.459,14.563,76.492,1.587,76.492,1.587c5.23,20.608-18.451,26.833-26.999,39.667C43.672,49.999,52.35,59.396,64.181,70.069z" />
  <path fill="#EA2D2E" d="M91.455,121.817c-19.187,3.612-42.854,3.191-56.887,0.874c0,0,2.874,2.38,17.646,3.331c22.476,1.437,57-0.8,57.816-11.436C110.031,114.586,108.46,118.618,91.455,121.817z" />
</svg>
