<svg version="1.1" xmlns="http://www.w3.org/2000/svg" xmlns:xlink="http://www.w3.org/1999/xlink" viewBox="0 0 128 128">
  <path fill="#0081C2" d="M109.689,24.573c-4.11-2.039-8.154-4.111-12.31-6.064c-8.096-3.804-15.92-8.12-24.062-11.843c-2.642-1.208-5.185-2.604-7.766-3.943c-0.863-0.448-1.64-0.451-2.515-0.004c-3.361,1.717-6.771,3.33-10.169,4.97c-8.057,3.889-16.169,8.078-24.263,11.9C25.086,21.25,22,23.025,18,24.713c0,17.797,0,35.538,0,53.267c1,0.035,0.503,0.035,0.606,0.085c2.554,1.258,5.221,2.491,7.752,3.793c2.582,1.329,5.271,2.539,7.891,3.788c8.129,3.875,16.171,7.987,24.236,11.998c1.559,0.776,3.178,1.459,4.709,2.285c0.777,0.419,1.375,0.381,2.166,0.004c2.409-1.148,4.831-2.289,7.226-3.458c9.292-4.537,18.398-9.263,27.744-13.693c3.254-1.543,6.67-3.218,9.67-4.882c0-17.772,0-35.514,0-53.243C110,24.623,109.791,24.624,109.689,24.573z M97.769,73.802c-1.935,2.021-4.201,3.551-6.69,4.776c-0.623,0.306-1.262,0.669-1.93,0.774c-1.027,0.16-1.384,0.971-1.862,1.644c-0.818,1.153-2.786,2.32-4.15,2.338c-0.377,0.005-0.755-0.025-1.129,0.005c-1.477,0.119-2.82-0.246-4.145-0.912c-1.816-0.912-3.786-1.064-5.808-1.009c-1.064,0.03-1.995,0.275-2.887,0.788c-1.186,0.682-1.823,2.242-1.567,3.526c0.062,0.314-0.243,0.702-0.446,1.231c-0.44-0.371-0.92-0.579-0.939-0.823c-0.134-1.636-0.232-3.336,0.924-4.676c1.583-1.835,3.644-2.845,6.079-3.02c0.625-0.044,1.256,0.01,1.883-0.01c1.518-0.048,2.953,0.235,4.431,0.645c1.225,0.339,2.668,0.41,3.902-0.38c0.433-1.626-0.426-2.804-1.613-3.568c-1.253-0.807-2.513-1.659-4.059-2.015c-1.104-0.253-2.077-1.031-3.16-1.438c-1.086-0.406-2.172-0.847-3.257-1.241c-1.036-0.377-2.215-0.361-3.142-1.039c-1.721,0.081-3.39-0.688-5.114-0.367c-2.25,0.419-4.521,0.787-6.656,1.653c-1.611,0.654-3.242,1.26-4.788,2.083c-0.915,0.487-1.96,0.723-2.902,1.166c-0.739,0.347-1.46,0.776-2.101,1.28c-1.104,0.867-1.842,1.948-1.495,3.479c1.362,0.634,2.732,0.717,4.189,0.228c1.577-0.53,3.241-0.418,4.882-0.518c2.08-0.125,3.9,0.525,5.574,1.569c1.591,0.992,2.684,2.416,2.624,4.451c-0.013,0.439,0.065,0.893-0.022,1.313c-0.077,0.372-0.326,0.708-0.586,1.239c-0.522-0.543-1.364-0.672-0.597-1.496c-0.492-0.905-0.204-2.154-1.191-2.83c-0.873-0.597-1.727-1.265-2.891-1.204c-0.688,0.036-1.385,0.061-2.069-0.004c-1.617-0.15-3.072,0.396-4.442,1.103c-1.892,0.978-3.895,0.763-5.888,0.791c-1.124-0.633-2.465-0.924-3.309-1.992c-0.427-0.541-0.613-1.509-1.121-1.692c-0.663-0.239-1.269-0.694-1.924-0.798c-1.655-0.263-2.816-1.425-4.188-2.167c-1.154-0.625-2.079-1.695-3.061-2.615c-1.077-1.008-1.633-2.272-1.881-3.741c-0.368-2.178,0.479-4.201,1.648-5.433c1.539-1.621,3.455-2.458,5.521-3.22c-0.505-1.002-0.895-2.125-1.577-3.026c-0.654-0.863-0.719-1.878-0.982-2.797c-0.3-1.044-0.274-2.29-0.012-3.355c0.257-1.042,0.899-2.031,1.542-2.92c0.581-0.803,1.368-1.467,2.117-2.133c0.239-0.213,0.646-0.237,0.952-0.34c0.412,0.574,0.284,0.966-0.122,1.379c-0.422,0.431-0.772,0.932-1.158,1.398c-1.09,1.322-0.746,2.9-0.729,4.395c0.011,0.961,0.582,1.762,1.134,2.535c1.056,1.481,2.135,2.875,3.934,3.611c0.964,0.394,1.871,0.729,2.915,0.696c0.932-0.03,1.865-0.006,3.256-0.006c-0.816-0.365-1.229-0.543-1.635-0.733c-2.861-1.331-4.351-3.593-4.354-6.604c-0.001-1.067,0.106-2.148-0.032-3.196c-0.12-0.908,0.405-1.631,0.432-2.483c0.022-0.767-0.353-1.624,0.354-2.293c-0.192-1.458,0.357-2.954-0.291-4.398c-0.342-0.761-0.058-1.609-0.398-2.469c-0.657-1.656-1.128-3.268-3.271-3.469c-0.229-0.021-0.425-0.398-0.628-0.6c0.374-0.811,0.756-0.973,1.606-0.704c2.172,0.686,3.472,2.152,4.517,4.087c1.122,2.078,1.499,4.291,1.911,6.567c0.414,2.287,0.182,4.552,0.338,6.819c0.052,0.756,0.257,1.514,0.488,2.24c0.224,0.706,0.755,1.125,1.479,1.195C49.25,55.175,50,55.102,51,54.135c0-0.574,0-1.196,0-1.912c-1-0.39-0.851-1.368-1.969-1.331c-0.424,0.014-0.61-0.615-0.593-1.185c0.045-1.63,0.14-3.272-0.003-4.892c-0.155-1.748,0.25-3.442,0.51-5.103c0.229-1.468,0.4-3.013,0.998-4.458c0.554-1.34,0.661-2.863,1.198-4.212c0.989-2.484,2.1-4.912,3.485-7.225c0.791-1.321,1.85-2.454,2.516-3.845c0.051-0.105,0.115-0.208,0.193-0.296c0.974-1.104,1.896-2.261,2.94-3.293c1.26-1.242,2.625-2.377,3.997-3.606c1.436,1.274,2.93,2.378,4.151,3.729c3.314,3.668,6.225,7.658,8.098,12.26c0.873,2.143,1.703,4.326,2.144,6.656c0.397,2.103,0.81,4.192,1.159,6.306c0.452,2.735,0.087,5.437,0.305,8.141c0.043,0.536-0.547,1.047-0.831,1.024C78.173,50.807,78,51.821,77,52.222c0,0.694,0,1.318,0,1.932c1,0.723,1.721,0.981,2.699,0.95c1.179-0.038,1.896-0.672,2.218-1.892c0.352-1.337,0.486-2.668,0.37-3.995c-0.168-1.929,0.235-3.812,0.498-5.674c0.307-2.175,1.063-4.298,2.211-6.228c0.766-1.286,3.056-3.045,4.399-3.312c0.59-0.117,1.091,0.087,1.308,0.903c-0.225,0.174-0.477,0.539-0.764,0.567c-1.898,0.186-2.462,1.664-3.026,3.093c-0.305,0.773-0.235,1.699-0.464,2.451c-0.396,1.292-0.279,2.55-0.284,3.819c-0.002,0.764,0.217,1.529,0.357,2.291c0.129,0.701-0.309,1.475,0.339,2.131c0.158,0.16,0.033,0.602,0.033,0.914c0.001,1.192-0.024,2.386,0.006,3.577c0.074,2.987-1.998,6.306-5.616,7.212c2.248,0.191,4.437,0.372,6.557-0.928c2.065-1.267,3.169-3.209,4.328-5.167c0.028-2.252,0.336-4.59-1.757-6.232c-0.454-0.356-0.583-0.764-0.436-1.496c0.389,0.055,0.8-0.013,0.957,0.155c1.152,1.241,2.675,2.181,3.224,3.927c0.155,0.495,0.631,0.96,0.61,1.423c-0.052,1.217,0.2,2.42-0.17,3.673c-0.284,0.958-0.583,1.899-1.009,2.789c-0.403,0.842-0.939,1.62-1.446,2.475c0.71,0.346,1.389,0.796,2.136,1.017c1.591,0.47,2.682,1.573,3.779,2.702c1.092,1.125,1.227,2.632,1.647,4.026C99.117,70.842,98.987,72.53,97.769,73.802z"
  />
  <path fill="#0081C2" d="M39.167,67.507c-0.622,0.055-1.256-0.028-1.88,0.017c-1.012,0.072-1.953,0.437-2.781,0.993c-0.835,0.56-0.897,1.079-0.502,2.047c0.392,0.962,0.976,1.759,1.719,2.495c1.324,1.313,2.703,2.535,4.33,3.447c0.579-3.218,2.38-5.551,5.124-7.266c-0.479-0.235-0.855-0.396-1.208-0.597C42.479,67.788,40.9,67.352,39.167,67.507z"
  />
  <path fill="#0081C2" d="M94.229,68.634c-0.461-0.41-2.231-1.103-2.923-1.115c-0.878-0.016-1.761,0.056-2.633-0.018c-1.312-0.111-2.443,0.403-3.588,0.892c-0.533,0.228-1.036,0.526-1.663,0.849c2.738,1.711,4.539,4.044,5.129,7.328c0.721-0.517,1.47-0.966,2.114-1.534c1.163-1.026,2.294-2.092,3.368-3.209c0.343-0.355,0.486-0.917,0.678-1.401C94.985,69.737,94.811,69.151,94.229,68.634z"
  />
  <path fill="#0081C2" d="M58.578,50.566c-0.853,0.024-1.104,0.381-1.062,1.511c0.032,0.861,0.4,1.19,1.26,1.126c0.699-0.052,1.451-0.827,1.376-1.417C60.076,51.174,59.265,50.547,58.578,50.566z" />
  <path fill="#0081C2" d="M70.049,50.566c-0.807-0.038-1.65,0.681-1.609,1.371c0.037,0.623,0.816,1.269,1.527,1.266c0.828-0.004,1.1-0.317,1.109-1.277C71.085,50.923,70.843,50.603,70.049,50.566z" />
  <path fill="#0081C2" d="M25.454,114.115h0.048c0.292-0.413,0.681-0.947,1.021-1.337l3.476-4.06h2.553l-4.546,4.838l5.178,6.929h-2.601l-4.036-5.665l-1.094,1.24v4.425h-2.139v-17.261h2.139V114.115z" />
  <path fill="#0081C2" d="M35.154,112.389c0-1.386-0.024-2.577-0.097-3.671h1.872l0.097,2.31h0.073c0.535-1.58,1.848-2.577,3.282-2.577c0.219,0,0.389,0.024,0.583,0.073v1.993c-0.243-0.024-0.462-0.048-0.753-0.048c-1.507,0-2.577,1.143-2.869,2.723c-0.049,0.316-0.073,0.657-0.073,1.021v6.272H35.13L35.154,112.389z"
  />
  <path fill="#0081C2" d="M51.224,117.665c0,1.021,0.049,2.018,0.17,2.82h-1.92l-0.195-1.483h-0.072c-0.632,0.924-1.921,1.75-3.599,1.75c-2.382,0-3.598-1.677-3.598-3.379c0-2.844,2.528-4.4,7.074-4.376v-0.242c0-0.973-0.267-2.748-2.674-2.724c-1.118,0-2.261,0.316-3.087,0.875l-0.486-1.434c0.972-0.608,2.407-1.021,3.89-1.021c3.623,0,4.498,2.455,4.498,4.814V117.665z M49.133,114.48c-2.334-0.049-4.984,0.364-4.984,2.649c0,1.41,0.924,2.043,1.994,2.043c1.556,0,2.553-0.973,2.893-1.97c0.073-0.219,0.097-0.462,0.097-0.681V114.48z"
  />
  <path fill="#0081C2" d="M56.792,114.115h0.049c0.292-0.413,0.681-0.947,1.021-1.337l3.477-4.06h2.552l-4.546,4.838l5.178,6.929h-2.601l-4.036-5.665l-1.094,1.24v4.425h-2.139v-17.261h2.139V114.115z" />
  <path fill="#0081C2" d="M67.44,114.966c0.049,2.893,1.872,4.084,4.011,4.084c1.531,0,2.479-0.268,3.257-0.583l0.389,1.507c-0.753,0.34-2.066,0.754-3.938,0.754c-3.598,0-5.786-2.407-5.786-5.932c0-3.574,2.115-6.37,5.543-6.37c3.841,0,4.838,3.38,4.838,5.543c0,0.438-0.024,0.778-0.073,1.021L67.44,114.966z M73.688,113.435c0.024-1.337-0.56-3.477-2.942-3.477c-2.188,0-3.112,1.994-3.282,3.477H73.688z"
  />
  <path fill="#0081C2" d="M78.404,111.903c0-1.239-0.024-2.212-0.097-3.185h1.896l0.121,1.921h0.049c0.583-1.094,1.945-2.188,3.89-2.188c1.629,0,4.157,0.973,4.157,5.008v7.026h-2.139v-6.783c0-1.896-0.706-3.5-2.723-3.5c-1.386,0-2.479,0.997-2.869,2.188c-0.097,0.268-0.146,0.656-0.146,0.997v7.099h-2.139V111.903z"
  />
  <path fill="#0081C2" d="M89.004,123.937c0.997-0.073,1.823-0.341,2.334-0.9c0.583-0.656,0.826-1.604,0.826-4.424v-9.895h2.14v10.721c0,2.286-0.365,3.769-1.41,4.838c-0.948,0.948-2.504,1.337-3.646,1.337L89.004,123.937z M93.186,106.554c-0.802,0-1.337-0.632-1.337-1.385s0.559-1.361,1.386-1.361s1.361,0.608,1.361,1.361s-0.51,1.385-1.386,1.385H93.186z"
  />
  <path fill="#0081C2" d="M97.513,118.321c0.656,0.389,1.774,0.827,2.844,0.827c1.532,0,2.261-0.753,2.261-1.75c0-1.021-0.607-1.58-2.164-2.163c-2.139-0.778-3.136-1.921-3.136-3.331c0-1.896,1.556-3.452,4.06-3.452c1.191,0,2.237,0.316,2.869,0.729l-0.51,1.531c-0.462-0.267-1.313-0.681-2.407-0.681c-1.264,0-1.945,0.729-1.945,1.604c0,0.997,0.681,1.435,2.212,2.018c2.018,0.753,3.088,1.775,3.088,3.549c0,2.091-1.629,3.549-4.376,3.549c-1.289,0-2.48-0.34-3.307-0.826L97.513,118.321z"
  />
</svg>
