<svg version="1.1" xmlns="http://www.w3.org/2000/svg" xmlns:xlink="http://www.w3.org/1999/xlink" viewBox="0 0 128 128">
  <path fill-rule="evenodd" clip-rule="evenodd" fill="#0081C2" d="M120.559,30.631c-5.13-2.544-10.203-5.131-15.391-7.569C95.062,18.314,85.284,12.926,75.122,8.281c-3.297-1.507-6.479-3.25-9.7-4.923c-1.077-0.559-2.051-0.562-3.143-0.004c-4.195,2.143-8.454,4.156-12.694,6.203C39.529,14.411,29.371,19.639,19.269,24.41C14.877,26.484,10,28.698,6,30.806c0,22.213,0,44.357,0,66.486c0,0.043,0.66,0.043,0.788,0.106c3.187,1.571,6.533,3.109,9.692,4.735c3.224,1.66,6.586,3.169,9.856,4.729c10.146,4.837,20.188,9.969,30.255,14.975c1.946,0.968,3.969,1.821,5.881,2.852c0.97,0.522,1.718,0.475,2.704,0.005c3.007-1.433,6.03-2.857,9.019-4.316c11.598-5.663,23.018-11.561,34.682-17.091C112.938,101.36,116,99.27,121,97.193c0-22.183,0-44.327,0-66.456C120,30.693,120.687,30.694,120.559,30.631z M105.627,92.078c-2.415,2.523-5.244,4.431-8.351,5.96c-0.777,0.382-1.575,0.835-2.409,0.966c-1.281,0.2-1.728,1.212-2.324,2.052c-1.021,1.439-3.477,2.896-5.181,2.918c-0.47,0.007-0.942-0.031-1.409,0.007c-1.844,0.148-3.52-0.307-5.173-1.138c-2.266-1.139-4.725-1.328-7.25-1.26c-1.328,0.037-2.49,0.343-3.603,0.983c-1.479,0.852-2.276,2.798-1.956,4.401c0.078,0.393-0.303,0.876-0.558,1.537c-0.549-0.463-1.148-0.722-1.173-1.027c-0.167-2.042-0.289-4.164,1.154-5.836c1.977-2.292,4.549-3.552,7.588-3.77c0.779-0.055,1.567,0.012,2.35-0.012c1.895-0.06,3.686,0.293,5.531,0.804c1.528,0.423,3.33,0.512,4.869-0.474c0.541-2.03-0.531-3.5-2.014-4.454c-1.564-1.007-3.137-2.071-5.066-2.515c-1.378-0.316-2.592-1.287-3.944-1.793c-1.355-0.508-2.711-1.057-4.065-1.55c-1.293-0.471-2.764-0.452-3.921-1.297c-2.147,0.101-4.23-0.858-6.383-0.458c-2.809,0.522-5.644,0.981-8.308,2.063c-2.011,0.816-4.047,1.573-5.976,2.6c-1.142,0.608-2.446,0.903-3.623,1.456c-0.923,0.433-1.822,0.969-2.623,1.597c-1.378,1.083-2.299,2.431-1.866,4.343c1.699,0.79,3.41,0.895,5.229,0.284c1.968-0.662,4.046-0.522,6.094-0.646c2.596-0.157,4.868,0.655,6.958,1.958c1.985,1.238,3.349,3.015,3.274,5.555c-0.016,0.548,0.081,1.114-0.027,1.64c-0.096,0.464-0.406,0.884-0.732,1.546c-0.652-0.678-1.703-0.839-0.744-1.868c-0.614-1.13-0.254-2.689-1.487-3.532c-1.09-0.746-2.156-1.579-3.609-1.503c-0.859,0.045-1.729,0.075-2.583-0.005c-2.019-0.188-3.834,0.494-5.544,1.377c-2.362,1.221-4.862,0.952-7.349,0.987c-1.402-0.79-3.078-1.154-4.13-2.487c-0.533-0.675-0.765-1.884-1.398-2.112c-0.827-0.298-1.584-0.867-2.401-0.997c-2.066-0.328-3.515-1.778-5.228-2.705c-1.441-0.78-2.595-2.116-3.821-3.265c-1.343-1.257-2.037-2.836-2.347-4.669c-0.46-2.718,0.598-5.242,2.057-6.78c1.921-2.023,4.312-3.068,6.893-4.019c-0.631-1.25-1.117-2.652-1.969-3.777c-0.816-1.077-0.897-2.344-1.227-3.492c-0.374-1.303-0.341-2.858-0.014-4.188c0.321-1.299,1.122-2.535,1.925-3.645c0.725-1.002,1.708-1.832,2.642-2.663c0.299-0.266,0.807-0.296,1.188-0.424c0.515,0.717,0.354,1.207-0.151,1.722c-0.527,0.538-0.964,1.162-1.445,1.745c-1.361,1.65-0.931,3.62-0.911,5.485c0.013,1.199,0.727,2.199,1.414,3.163c1.318,1.849,2.665,3.59,4.911,4.507c1.203,0.491,2.335,0.91,3.638,0.869c1.162-0.037,2.328-0.008,4.064-0.008c-1.018-0.455-1.533-0.678-2.042-0.915c-3.571-1.661-5.43-4.484-5.433-8.242c-0.001-1.332,0.132-2.681-0.04-3.99c-0.15-1.133,0.506-2.035,0.538-3.1c0.029-0.957-0.439-2.027,0.443-2.861c-0.24-1.82,0.446-3.688-0.362-5.49c-0.427-0.95-0.072-2.009-0.497-3.082c-0.819-2.067-1.407-4.078-4.083-4.33c-0.287-0.026-0.531-0.497-0.784-0.749c0.466-1.011,0.944-1.214,2.005-0.879c2.711,0.856,4.333,2.687,5.637,5.101c1.4,2.593,1.871,5.356,2.386,8.198c0.518,2.854,0.228,5.681,0.421,8.511c0.065,0.943,0.321,1.89,0.609,2.797c0.279,0.88,0.816,1.404,1.721,1.492C44.942,68.827,46,68.735,47,67.529c0-0.716,0-1.493,0-2.386c-1-0.487-0.938-1.707-2.332-1.662c-0.529,0.017-0.698-0.769-0.678-1.478c0.056-2.035,0.207-4.085,0.028-6.106c-0.193-2.182,0.329-4.297,0.653-6.37c0.286-1.832,0.506-3.76,1.253-5.564c0.691-1.672,0.828-3.573,1.499-5.257c1.234-3.1,2.624-6.13,4.353-9.018c0.987-1.648,2.309-3.063,3.141-4.799c0.063-0.131,0.144-0.26,0.241-0.37c1.216-1.378,2.366-2.822,3.671-4.109c1.573-1.551,3.276-2.968,4.989-4.502c1.791,1.591,3.657,2.969,5.181,4.655c4.136,4.579,7.77,9.559,10.108,15.302c1.089,2.674,2.125,5.4,2.675,8.308c0.496,2.624,1.011,5.232,1.446,7.871c0.564,3.414,0.109,6.786,0.381,10.161c0.053,0.669-0.534,1.307-0.89,1.279C81.316,63.375,81,64.641,80,65.142c0,0.866,0,1.646,0,2.41c1,0.902,2,1.225,3.221,1.186c1.472-0.047,2.294-0.839,2.695-2.362c0.439-1.669,0.57-3.33,0.425-4.985c-0.21-2.408,0.274-4.758,0.602-7.082c0.383-2.715,1.317-5.365,2.751-7.772c0.956-1.605,3.81-3.801,5.486-4.133c0.737-0.146,1.36,0.107,1.631,1.126c-0.28,0.217-0.597,0.673-0.956,0.708c-2.37,0.231-3.073,2.076-3.776,3.86c-0.381,0.965-0.293,2.121-0.581,3.06c-0.493,1.611-0.349,3.182-0.354,4.767c-0.003,0.953,0.271,1.909,0.445,2.859c0.162,0.875-0.386,1.841,0.424,2.66c0.197,0.2,0.041,0.751,0.042,1.141c0.001,1.488-0.03,2.978,0.006,4.464c0.092,3.729-2.494,7.871-7.01,9.002c2.807,0.238,5.539,0.464,8.185-1.158c2.579-1.581,3.956-4.006,5.401-6.45c0.035-2.811,0.42-5.729-2.193-7.779c-0.566-0.445-0.729-0.954-0.544-1.868c0.486,0.069,0.999-0.016,1.193,0.194c1.438,1.549,3.339,2.722,4.024,4.902c0.194,0.617,0.788,1.197,0.762,1.776c-0.065,1.519,0.25,3.021-0.213,4.584c-0.354,1.196-0.729,2.371-1.26,3.481c-0.503,1.051-1.173,2.022-1.805,3.089c0.886,0.432,1.734,0.994,2.666,1.269c1.986,0.587,3.348,1.963,4.718,3.373c1.363,1.403,1.531,3.285,2.055,5.025C107.31,88.382,107.147,90.489,105.627,92.078z"
  />
  <path fill-rule="evenodd" clip-rule="evenodd" fill="#0081C2" d="M32.481,84.219c-0.776,0.069-1.567-0.034-2.346,0.021c-1.263,0.089-2.437,0.545-3.471,1.238c-1.043,0.699-1.12,1.347-0.627,2.555c0.489,1.2,1.219,2.195,2.146,3.114c1.653,1.639,3.375,3.165,5.405,4.302c0.722-4.017,2.971-6.929,6.395-9.069c-0.598-0.294-1.068-0.494-1.507-0.746C36.616,84.57,34.645,84.026,32.481,84.219z"
  />
  <path fill-rule="evenodd" clip-rule="evenodd" fill="#0081C2" d="M101.208,85.626c-0.576-0.511-2.785-1.376-3.648-1.392c-1.095-0.02-2.198,0.07-3.286-0.022c-1.637-0.138-3.05,0.503-4.479,1.114c-0.666,0.284-1.293,0.656-2.077,1.059c3.417,2.136,5.666,5.048,6.403,9.147c0.9-0.645,1.835-1.205,2.638-1.915c1.451-1.28,2.863-2.611,4.204-4.005c0.428-0.444,0.606-1.145,0.847-1.75C102.153,87.003,101.936,86.272,101.208,85.626z"
  />
  <path fill-rule="evenodd" clip-rule="evenodd" fill="#0081C2" d="M56.711,63.075c-1.065,0.029-1.378,0.476-1.326,1.886c0.04,1.074,0.5,1.485,1.574,1.405c0.872-0.065,1.81-1.032,1.717-1.769C58.58,63.833,57.568,63.05,56.711,63.075z" />
  <path fill-rule="evenodd" clip-rule="evenodd" fill="#0081C2" d="M71.027,63.075c-1.007-0.047-2.06,0.85-2.009,1.711c0.047,0.777,1.019,1.583,1.907,1.58c1.033-0.004,1.373-0.396,1.384-1.594C72.321,63.521,72.019,63.121,71.027,63.075z" />
</svg>
