<svg version="1.1" xmlns="http://www.w3.org/2000/svg" xmlns:xlink="http://www.w3.org/1999/xlink" viewBox="0 0 128 128">
  <path fill-rule="evenodd" clip-rule="evenodd" d="M113.823,104.595c-1.795-1.478-3.629-2.921-5.308-4.525c-1.87-1.785-3.045-3.944-2.789-6.678c0.147-1.573-0.216-2.926-2.113-3.452c0.446-1.154,0.864-1.928,1.033-2.753c0.188-0.92,0.178-1.887,0.204-2.834c0.264-9.96-3.334-18.691-8.663-26.835c-2.454-3.748-5.017-7.429-7.633-11.066c-4.092-5.688-5.559-12.078-5.633-18.981c-0.036-3.166-0.41-6.38-1.081-9.475C80.527,11.956,77.291,7.233,71.422,4.7c-4.497-1.942-9.152-2.327-13.901-1.084C50.62,5.421,46.447,10.55,46.525,17.704c0.074,6.885,0.417,13.779,0.922,20.648c0.288,3.893-0.312,7.252-2.895,10.34c-2.484,2.969-4.706,6.172-6.858,9.397c-1.229,1.844-2.317,3.853-3.077,5.931c-2.07,5.663-3.973,11.373-7.276,16.5c-1.224,1.9-1.363,4.026-0.494,6.199c0.225,0.563,0.363,1.429,0.089,1.882c-2.354,3.907-5.011,7.345-10.066,8.095c-3.976,0.591-4.172,1.314-4.051,5.413c0.1,3.337,0.061,6.705-0.28,10.021c-0.363,3.555,0.008,4.521,3.442,5.373c7.924,1.968,15.913,3.647,23.492,6.854c3.227,1.365,6.465,0.891,9.064-1.763c2.713-2.771,6.141-3.855,9.844-3.859c6.285-0.005,12.572,0.298,18.86,0.369c1.702,0.02,2.679,0.653,3.364,2.199c0.84,1.893,2.26,3.284,4.445,3.526c4.193,0.462,8.013-0.16,11.19-3.359c3.918-3.948,8.436-7.066,13.615-9.227c1.482-0.619,2.878-1.592,4.103-2.648C116.189,107.673,116.071,106.449,113.823,104.595z M62.426,24.12c0.758-2.601,2.537-4.289,5.243-4.801c2.276-0.43,4.203,0.688,5.639,3.246c1.546,2.758,2.054,5.64,0.734,8.658c-1.083,2.474-1.591,2.707-4.123,1.868c-0.474-0.157-0.937-0.343-1.777-0.652c0.708-0.594,1.154-1.035,1.664-1.382c1.134-0.772,1.452-1.858,1.346-3.148c-0.139-1.694-1.471-3.194-2.837-3.175c-1.225,0.017-2.262,1.167-2.4,2.915c-0.086,1.089,0.095,2.199,0.173,3.589C62.642,30.215,61.377,27.713,62.426,24.12z M49.676,21.869c1.274-1.928,3.197-2.314,5.101-1.024c2.029,1.376,3.547,5.256,2.763,7.576c-0.285,0.844-1.127,1.5-1.716,2.241c-0.203-0.125-0.403-0.249-0.604-0.374c-0.23-1.253-0.276-2.585-0.757-3.733c-0.304-0.728-1.257-1.184-1.919-1.762c-0.622,0.739-1.693,1.443-1.757,2.228c-0.088,1.084,0.477,2.28,0.969,3.331c0.311,0.661,1.001,1.145,1.713,1.916c-0.68,0.535-1.312,1.032-1.922,1.51C48.529,31.078,47.632,24.958,49.676,21.869z M87.34,86.075c-0.203,2.604-0.5,2.713-3.118,3.098c-1.859,0.272-2.359,0.756-2.453,2.964c-0.108,2.581-0.101,5.171-0.012,7.753c0.061,1.77-0.537,3.158-1.755,4.393c-6.764,6.856-14.845,10.105-24.512,8.926c-4.17-0.509-6.896-3.047-9.097-6.639c0.98-0.363,1.705-0.607,2.412-0.894c3.122-1.27,3.706-3.955,1.213-6.277c-1.884-1.757-3.986-3.283-6.007-4.892c-1.954-1.555-3.934-3.078-5.891-4.629c-1.668-1.323-2.305-3.028-2.345-5.188c-0.094-5.182,0.972-10.03,3.138-14.747c1.932-4.209,3.429-8.617,5.239-12.885c0.935-2.202,1.906-4.455,3.278-6.388c1.319-1.854,2.134-3.669,1.988-5.94c-0.084-1.276-0.016-2.562-0.016-3.843c0.235-0.117,0.471-0.234,0.707-0.352c1.141,0.985,2.302,1.949,3.423,2.959c4.045,3.646,7.892,3.813,12.319,0.67c1.888-1.341,3.93-2.47,5.927-3.652c0.497-0.294,1.092-0.423,1.934-0.738c2.151,5.066,4.262,10.033,6.375,15c1.072,2.524,1.932,5.167,3.264,7.547c2.671,4.775,4.092,9.813,4.07,15.272C87.409,80.423,87.558,83.263,87.34,86.075z"
  />
</svg>
