<svg version="1.1" xmlns="http://www.w3.org/2000/svg" xmlns:xlink="http://www.w3.org/1999/xlink" viewBox="0 0 128 128">
  <path fill="#83CD29" d="M112.678,30.334L68.535,4.729c-2.781-1.584-6.424-1.584-9.227,0L14.82,30.334C11.951,31.985,10,35.088,10,38.407v51.142c0,3.319,1.992,6.423,4.862,8.083l11.729,6.688c5.627,2.772,7.186,2.772,9.746,2.772c8.334,0,12.662-5.039,12.662-13.828v-50.49C49,42.061,49.445,41,48.744,41h-5.622C42.41,41,41,42.061,41,42.773v50.49c0,3.896-3.616,7.773-10.202,4.48l-12.122-7.013C18.254,90.5,18,90.037,18,89.549V38.407c0-0.482,0.463-0.966,0.891-1.213l44.378-25.561c0.415-0.235,1.002-0.235,1.415,0l43.963,25.555c0.421,0.253,0.354,0.722,0.354,1.219v51.142c0,0.488,0.092,0.963-0.323,1.198l-44.133,25.576c-0.378,0.227-0.87,0.227-1.285,0l-11.317-6.749c-0.341-0.198-0.752-0.269-1.08-0.086c-3.145,1.783-3.729,2.02-6.679,3.043c-0.727,0.253-1.799,0.692,0.408,1.929l14.798,8.754c1.416,0.82,3.027,1.246,4.647,1.246c1.642,0,3.249-0.426,4.666-1.246l43.976-25.582c2.871-1.672,4.322-4.764,4.322-8.083V38.407C117,35.088,115.549,31.993,112.678,30.334z"
  />
  <path fill="#83CD29" d="M77.727,81.445c-11.727,0-14.309-3.235-15.17-9.066C62.455,71.751,61.923,71,61.283,71h-5.73c-0.709,0-1.28,0.86-1.28,1.566c0,7.466,4.06,16.512,23.454,16.512c14.038,0,22.088-5.455,22.088-15.109c0-9.572-6.467-12.084-20.082-13.886c-13.762-1.819-15.16-2.738-15.16-5.962c0-2.658,1.184-6.203,11.374-6.203c9.104,0,12.46,1.954,13.841,8.091C89.907,56.586,90.434,57,91.029,57h5.754c0.354,0,0.691-0.143,0.939-0.396c0.241-0.272,0.367-0.613,0.336-0.979c-0.893-10.569-7.913-15.494-22.112-15.494c-12.632,0-20.166,5.334-20.166,14.275c0,9.698,7.497,12.378,19.622,13.577c14.505,1.422,15.633,3.542,15.633,6.395C91.035,79.334,87.057,81.445,77.727,81.445z"
  />
</svg>
