<svg version="1.1" xmlns="http://www.w3.org/2000/svg" xmlns:xlink="http://www.w3.org/1999/xlink" viewBox="0 0 128 128">
  <path fill="#83CD29" d="M114.325,80.749c-0.29,0-0.578-0.076-0.832-0.224l-2.65-1.568c-0.396-0.221-0.203-0.3-0.072-0.345c0.528-0.184,0.635-0.227,1.198-0.545c0.059-0.033,0.136-0.021,0.197,0.015l2.035,1.209c0.074,0.041,0.179,0.041,0.246,0l7.937-4.581c0.075-0.042,0.122-0.127,0.122-0.215v-9.16c0-0.09-0.047-0.173-0.123-0.219l-7.934-4.577c-0.074-0.042-0.171-0.042-0.245,0l-7.933,4.578c-0.076,0.045-0.125,0.131-0.125,0.218v9.16c0,0.088,0.049,0.171,0.125,0.212l2.174,1.257c1.18,0.589,1.903-0.105,1.903-0.803v-9.045c0-0.127,0.103-0.228,0.23-0.228h1.007c0.125,0,0.229,0.101,0.229,0.228v9.045c0,1.574-0.857,2.477-2.35,2.477c-0.459,0-0.82,0-1.828-0.496l-2.081-1.198c-0.515-0.298-0.832-0.854-0.832-1.448v-9.16c0-0.595,0.317-1.15,0.832-1.446l7.937-4.587c0.502-0.283,1.169-0.283,1.667,0l7.937,4.587c0.514,0.297,0.833,0.852,0.833,1.446v9.16c0,0.595-0.319,1.148-0.833,1.448l-7.937,4.582C114.907,80.673,114.62,80.749,114.325,80.749"
  />
  <path fill="#83CD29" d="M116.778,74.438c-3.475,0-4.202-1.595-4.202-2.932c0-0.126,0.103-0.229,0.23-0.229h1.026c0.115,0,0.21,0.082,0.228,0.194c0.154,1.045,0.617,1.572,2.718,1.572c1.671,0,2.383-0.378,2.383-1.266c0-0.512-0.202-0.891-2.8-1.146c-2.172-0.215-3.515-0.694-3.515-2.433c0-1.601,1.35-2.557,3.612-2.557c2.543,0,3.801,0.883,3.96,2.777c0.006,0.064-0.017,0.127-0.06,0.176c-0.044,0.045-0.104,0.073-0.168,0.073h-1.031c-0.107,0-0.201-0.075-0.223-0.179c-0.248-1.1-0.848-1.451-2.479-1.451c-1.825,0-2.037,0.637-2.037,1.112c0,0.577,0.25,0.745,2.715,1.071c2.439,0.323,3.598,0.779,3.598,2.494C120.734,73.447,119.292,74.438,116.778,74.438"
  />
  <path fill="#83CD29" d="M97.982,68.43c0.313-0.183,0.506-0.517,0.506-0.88v-2.354c0-0.362-0.192-0.696-0.506-0.879l-8.364-4.856c-0.315-0.183-0.703-0.184-1.019-0.002l-8.416,4.859c-0.314,0.182-0.508,0.517-0.508,0.88v9.716c0,0.365,0.196,0.703,0.514,0.884l8.363,4.765c0.308,0.177,0.686,0.178,0.997,0.006l5.058-2.812c0.161-0.09,0.261-0.258,0.262-0.44c0.001-0.184-0.097-0.354-0.256-0.445l-8.468-4.86c-0.159-0.091-0.256-0.259-0.256-0.44v-3.046c0-0.182,0.097-0.349,0.254-0.439l2.637-1.52c0.156-0.091,0.35-0.091,0.507,0l2.637,1.52c0.158,0.091,0.255,0.258,0.255,0.439v2.396c0,0.183,0.097,0.351,0.254,0.441c0.158,0.091,0.352,0.091,0.51-0.001L97.982,68.43"
  />
  <path fill="#83CD29" d="M88.984,67.974c0.061-0.034,0.135-0.034,0.195,0l1.615,0.933c0.06,0.035,0.097,0.1,0.097,0.169v1.865c0,0.07-0.037,0.134-0.097,0.169l-1.615,0.932c-0.06,0.035-0.135,0.035-0.195,0l-1.614-0.932c-0.061-0.035-0.098-0.099-0.098-0.169v-1.865c0-0.069,0.037-0.134,0.098-0.169L88.984,67.974"
  />
  <path fill="#83CD29" d="M67.083,71.854c0,0.09-0.048,0.174-0.127,0.22l-2.89,1.666c-0.079,0.046-0.176,0.046-0.254,0l-2.89-1.666c-0.079-0.046-0.127-0.13-0.127-0.22v-3.338c0-0.09,0.049-0.175,0.127-0.221l2.89-1.668c0.079-0.047,0.176-0.047,0.255,0l2.891,1.668c0.078,0.046,0.126,0.131,0.126,0.221V71.854z M67.864,47.138c-0.157-0.087-0.349-0.085-0.505,0.006c-0.155,0.092-0.251,0.258-0.251,0.438v12.915c0,0.126-0.068,0.244-0.177,0.308c-0.11,0.063-0.246,0.063-0.356,0l-2.108-1.215c-0.314-0.181-0.701-0.181-1.015,0l-8.418,4.858c-0.315,0.182-0.509,0.518-0.509,0.881v9.719c0,0.363,0.194,0.698,0.508,0.881l8.418,4.861c0.314,0.182,0.702,0.182,1.017,0l8.42-4.861c0.314-0.183,0.508-0.518,0.508-0.881V50.821c0-0.368-0.2-0.708-0.521-0.888L67.864,47.138"
  />
  <path fill="#83CD29" d="M38.238,59.407c0.314-0.182,0.702-0.182,1.016,0l8.418,4.857c0.314,0.182,0.508,0.518,0.508,0.881v9.722c0,0.363-0.194,0.699-0.508,0.881l-8.417,4.861c-0.314,0.181-0.702,0.181-1.017,0l-8.415-4.861c-0.314-0.182-0.508-0.518-0.508-0.881v-9.723c0-0.362,0.194-0.698,0.508-0.88L38.238,59.407"
  />
  <path fill="#83CD29" d="M22.93,65.064c0-0.366-0.192-0.702-0.508-0.883l-8.415-4.843c-0.144-0.084-0.303-0.127-0.464-0.133c-0.014,0-0.075,0-0.087,0c-0.16,0.006-0.32,0.049-0.464,0.133l-8.416,4.843c-0.313,0.181-0.509,0.517-0.509,0.883l0.018,13.04c0,0.182,0.095,0.351,0.254,0.439c0.156,0.094,0.349,0.094,0.505,0l5-2.864c0.316-0.188,0.509-0.519,0.509-0.882v-6.092c0-0.364,0.192-0.699,0.507-0.881l2.13-1.226c0.158-0.093,0.332-0.137,0.508-0.137c0.174,0,0.352,0.044,0.507,0.137l2.128,1.226c0.315,0.182,0.509,0.517,0.509,0.881v6.092c0,0.363,0.195,0.696,0.509,0.882l5,2.864c0.157,0.094,0.353,0.094,0.508,0c0.155-0.089,0.252-0.258,0.252-0.439L22.93,65.064"
  />
</svg>
