<svg version="1.1" xmlns="http://www.w3.org/2000/svg" xmlns:xlink="http://www.w3.org/1999/xlink" viewBox="0 0 128 128">
  <path fill-rule="evenodd" clip-rule="evenodd" fill="#336791" d="M123.258,76.784c-0.45-2.918-2.901-4.829-5.752-4.958c-1.032-0.047-2.08,0.061-3.109,0.192c-1.243,0.158-2.471,0.438-3.711,0.623c-0.857,0.128-1.726,0.187-2.582,0.275c-0.016-0.08-0.027-0.1-0.021-0.111c1.598-3.018,3.263-6.003,4.775-9.064c1.159-2.348,2.151-4.781,3.176-7.194c1.696-3.998,3.051-8.12,4.173-12.309c1.075-4.011,1.995-8.066,2.284-12.227c0.116-1.662,0.196-3.331,0.187-4.995c-0.008-1.327-0.151-2.656-0.284-3.979c-0.15-1.516-0.608-2.953-1.242-4.336c-0.836-1.822-2.132-3.317-3.496-4.737c-1.092-1.137-2.293-2.173-3.484-3.208c-1.698-1.477-3.607-2.656-5.59-3.703c-2.253-1.19-4.621-2.121-7.09-2.75c-1.493-0.381-3.02-0.664-4.532-0.966C96.416,3.227,95.871,3,95.327,3C91.913,3,88.5,3,85.086,3c-0.37,0-0.737,0.191-1.11,0.233c-2.452,0.273-4.875,0.735-7.228,1.464c-0.88,0.273-1.684,0.101-2.52,0.024c-0.641-0.059-1.271-0.231-1.912-0.263c-2.442-0.122-4.887-0.301-7.328-0.275c-2.339,0.024-4.654,0.409-6.918,1.052c-1.895,0.538-3.749,1.195-5.447,2.191c-0.727,0.426-1.303,0.346-2.055,0.129c-2.527-0.729-5.072-1.414-7.639-1.989c-1.6-0.358-3.245-0.536-4.879-0.707c-1.566-0.163-3.144-0.261-4.718-0.294c-1.538-0.033-3.087-0.032-4.618,0.104c-2.439,0.217-4.832,0.713-7.158,1.513c-2.583,0.888-4.951,2.175-7.086,3.865c-2.167,1.715-3.905,3.809-5.303,6.2c-1.473,2.523-2.483,5.224-3.111,8.061c-0.34,1.537-0.555,3.117-0.788,4.678C5.195,29.472,6,29.958,5,30.442c0,2.265,0,4.53,0,6.794c1,0.452,0.208,0.903,0.266,1.356c0.139,1.089,0.262,2.187,0.446,3.268c0.291,1.711,0.636,3.417,0.988,5.117c0.491,2.375,1.002,4.748,1.546,7.111c0.396,1.72,0.847,3.43,1.319,5.131c0.721,2.598,1.431,5.201,2.246,7.77c0.757,2.387,1.624,4.74,2.484,7.093c1.191,3.255,2.617,6.405,4.327,9.424c1.479,2.614,3.169,5.062,5.436,7.076c1.494,1.327,3.157,2.347,5.093,2.857c1.521,0.4,3.067,0.448,4.624,0.129c1.805-0.37,3.403-1.147,4.824-2.311c0.163-0.134,0.342-0.236,0.535,0.01c0.735,0.931,1.719,1.552,2.748,2.089c2.777,1.448,5.803,1.882,8.877,2.059c0.744,0.043,1.496-0.064,2.246-0.085c1.461-0.04,2.881-0.325,4.278-0.729c0.732-0.212,1.447-0.481,2.192-0.732c0.039,0.793,0.089,1.557,0.112,2.321c0.042,1.389,0.062,2.777,0.104,4.166c0.019,0.634,0.044,1.27,0.103,1.901c0.151,1.627,0.299,3.255,0.493,4.877c0.135,1.118,0.275,2.245,0.538,3.336c0.529,2.203,1.246,4.348,2.158,6.428c0.895,2.041,2.182,3.764,3.9,5.185c2.22,1.836,4.822,2.619,7.632,2.764c1.162,0.061,2.357,0.004,3.501-0.204c1.813-0.329,3.622-0.743,5.387-1.275c3.591-1.084,6.695-2.956,9.014-5.981c1.32-1.724,2.404-3.589,3.1-5.648c0.574-1.701,1.115-3.419,1.545-5.16c0.34-1.372,0.508-2.787,0.715-4.188c0.137-0.927,0.219-1.863,0.305-2.797c0.14-1.517,0.283-3.033,0.384-4.553c0.07-1.058,0.067-2.121,0.109-3.181c0.013-0.323,0.065-0.644,0.095-0.966c0.028-0.298,0.178-0.401,0.482-0.396c1.071,0.016,2.144,0.044,3.212-0.004c1.197-0.054,2.405-0.105,3.583-0.303c1.677-0.281,3.346-0.636,4.99-1.067c1.943-0.508,3.725-1.418,5.44-2.455c1.998-1.207,3.819-2.623,5.297-4.447C122.959,80.631,123.568,78.792,123.258,76.784z M119.846,77.766c-0.066,0.915-0.485,1.699-1.093,2.369c-2.869,3.163-6.468,5.082-10.585,6.027c-1.564,0.358-3.178,0.544-4.779,0.692c-1.363,0.126-2.746,0.147-4.114,0.097c-1.006-0.038-2.004-0.268-3.032-0.416c-0.103,0.94-0.201,1.919-0.32,2.896c-0.151,1.25-0.328,2.496-0.479,3.745c-0.145,1.187-0.258,2.378-0.407,3.564c-0.146,1.151-0.328,2.298-0.481,3.449c-0.143,1.072-0.248,2.149-0.407,3.219c-0.245,1.64-0.479,3.284-0.799,4.911c-0.384,1.945-0.973,3.829-1.934,5.583c-1.172,2.141-2.834,3.772-4.949,4.98c-2.18,1.246-4.563,1.894-6.979,2.436c-1.71,0.384-3.472,0.447-5.204,0.291c-3.004-0.272-5.568-1.557-7.506-3.886c-1.85-2.223-3.102-4.771-3.55-7.655c-0.214-1.371-0.368-2.754-0.491-4.136c-0.136-1.537-0.229-3.079-0.299-4.62c-0.089-1.957-0.154-3.914-0.197-5.871c-0.053-2.406-0.07-4.812-0.104-7.218c-0.001-0.06-0.009-0.121-0.006-0.092c-1.224,0.734-2.427,1.538-3.703,2.2c-1.494,0.776-3.117,1.226-4.798,1.353c-1.318,0.1-2.653,0.191-3.965,0.086c-2.151-0.173-4.3-0.51-6.226-1.569c-0.781-0.43-1.596-0.953-2.134-1.64c-1.29-1.646-0.672-3.726,1.273-4.727c1.344-0.693,2.811-0.982,4.268-1.319c1.266-0.293,2.526-0.626,3.761-1.029c1.222-0.4,1.993-1.391,2.754-2.363c0.396-0.506,0.788-1.013,1.206-1.551c-0.503-0.053-0.977-0.107-1.451-0.151c-1.439-0.136-2.812-0.532-4.125-1.114c-1.124-0.497-1.141-0.551-1.965,0.343c-1.376,1.494-2.714,3.023-4.062,4.542c-0.992,1.117-1.978,2.241-2.965,3.361c-0.978,1.108-1.894,2.279-2.947,3.31c-1.564,1.531-3.449,2.452-5.698,2.348c-1.443-0.066-2.764-0.572-3.952-1.399c-2.452-1.708-4.104-4.097-5.608-6.606c-1.927-3.215-3.406-6.64-4.672-10.159c-0.876-2.432-1.756-4.866-2.521-7.333c-0.831-2.681-1.56-5.396-2.277-8.11c-0.542-2.048-1.023-4.113-1.482-6.182c-0.521-2.353-1.022-4.71-1.464-7.079c-0.298-1.599-0.471-3.221-0.712-4.831c-0.325-2.17-0.385-4.36-0.267-6.539c0.105-1.963,0.387-3.921,0.667-5.871c0.388-2.698,1.277-5.244,2.556-7.648c0.783-1.473,1.755-2.812,2.879-4.056c1.845-2.042,4.078-3.518,6.562-4.626c1.736-0.774,3.57-1.24,5.439-1.604c2.774-0.54,5.573-0.519,8.373-0.461c1.224,0.025,2.443,0.248,3.666,0.369c2.633,0.262,5.214,0.816,7.762,1.5c1.857,0.498,3.676,1.143,5.518,1.703c0.185,0.056,0.456,0.051,0.607-0.048c2.496-1.629,5.224-2.704,8.125-3.319c1.101-0.233,2.237-0.335,3.363-0.407c1.369-0.087,2.749-0.167,4.115-0.088c1.642,0.094,3.276,0.336,4.908,0.56c0.792,0.108,1.565,0.383,2.359,0.458c0.38,0.036,0.783-0.242,1.185-0.335c2.049-0.473,4.089-1,6.156-1.374c1.539-0.278,3.111-0.409,4.676-0.499c1.745-0.1,3.503-0.173,5.247-0.089c2.205,0.106,4.394,0.42,6.555,0.923c2.677,0.623,5.245,1.528,7.686,2.784c1.824,0.938,3.558,2.026,5.119,3.364c1.023,0.878,2.07,1.745,2.994,2.723c1.14,1.206,2.303,2.413,3.018,3.958c0.538,1.165,0.922,2.371,1.028,3.647c0.132,1.586,0.292,3.178,0.277,4.766c-0.014,1.519-0.221,3.037-0.368,4.552c-0.334,3.454-1.085,6.833-1.997,10.167c-0.754,2.754-1.635,5.478-2.589,8.17c-0.879,2.481-1.893,4.917-2.918,7.343c-0.757,1.794-1.572,3.569-2.458,5.303c-1.677,3.286-3.421,6.538-5.438,9.633c-0.348,0.535-0.678,1.083-1.018,1.629c0.88,0.594,1.877,0.803,2.881,0.911c0.955,0.104,1.929,0.166,2.883,0.095c1.527-0.113,3.049-0.331,4.567-0.544c1.504-0.21,2.978-0.638,4.522-0.525C118.848,75.149,119.951,76.321,119.846,77.766z"
  />
  <path fill-rule="evenodd" clip-rule="evenodd" fill="#336791" d="M97.833,74.413c-0.655-0.846-1.323-1.682-1.964-2.538c-1.006-1.344-1.729-2.845-2.455-4.353c-0.688-1.429-1.532-2.782-2.257-4.195c-1.265-2.465-2.553-4.922-3.718-7.435c-1.465-3.157-2.62-6.426-2.984-9.923c-0.154-1.48-0.193-2.958,0.106-4.424c0.479-2.341,1.702-4.172,3.758-5.428c1.907-1.165,4.032-1.541,6.209-1.659c1.351-0.073,2.708-0.013,4.11-0.013c-0.01-0.052-0.008-0.154-0.047-0.237c-0.872-1.823-1.687-3.677-2.641-5.457c-1.346-2.512-3.068-4.777-4.986-6.877c-1.421-1.555-2.96-2.998-4.646-4.273c-1.658-1.255-3.405-2.376-5.269-3.293c-2.223-1.093-4.538-1.938-6.967-2.477c-2.334-0.518-4.683-0.835-7.077-0.861c-2.042-0.022-4.071,0.07-6.06,0.531c-3.002,0.695-5.748,1.931-8.137,3.933c-1.334,1.118-2.498,2.373-3.517,3.77c-1.196,1.643-2.161,3.417-2.986,5.277c-1.132,2.552-1.909,5.208-2.44,7.938c-0.266,1.361-0.474,2.734-0.686,4.106c-0.074,0.48-0.08,0.971-0.123,1.521c0.369-0.192,0.635-0.34,0.907-0.472c0.291-0.14,0.591-0.263,0.885-0.397c2.993-1.369,6.094-2.25,9.427-2.149c1.416,0.043,2.771,0.323,4.03,0.943c2.415,1.191,3.828,3.216,4.442,5.779c0.424,1.769,0.714,3.573,0.996,5.372c0.221,1.405,0.447,2.825,0.473,4.242c0.037,2.071-0.068,4.146-0.181,6.216c-0.096,1.764-0.464,3.5-1.08,5.146c-1.12,2.993-2.368,5.937-3.534,8.913c-0.385,0.983-0.681,2.001-1.045,3.082c0.562,0,1.018-0.004,1.474,0.002c0.178,0.003,0.36,0.008,0.532,0.049c1.34,0.316,2.502,0.923,3.455,1.954c1.271,1.372,1.938,2.973,1.972,4.826c0.019,1.027-0.089,2.057-0.084,3.084c0.021,4.786,0.057,9.572,0.097,14.357c0.007,0.782,0.046,1.565,0.102,2.346c0.117,1.635,0.235,3.271,0.395,4.902c0.112,1.157,0.268,2.312,0.451,3.461c0.259,1.628,1,3.077,1.841,4.462c0.724,1.191,1.665,2.203,2.905,2.901c2.107,1.186,4.376,1.285,6.663,0.848c1.545-0.295,3.062-0.769,4.562-1.258c1.479-0.481,2.815-1.269,3.937-2.354c1.051-1.019,1.797-2.261,2.3-3.632c0.976-2.659,1.28-5.459,1.684-8.237c0.151-1.04,0.282-2.083,0.42-3.125c0.157-1.186,0.316-2.371,0.468-3.556c0.112-0.883,0.214-1.768,0.322-2.651c0.154-1.268,0.317-2.535,0.464-3.804c0.113-0.981,0.209-1.966,0.309-2.949c0.129-1.256,0.268-2.512,0.379-3.77c0.086-0.955,0.051-1.927,0.22-2.864c0.311-1.718,1.123-3.18,2.646-4.125c0.637-0.395,1.356-0.655,2.063-0.989C97.917,74.541,97.88,74.473,97.833,74.413z"
  />
  <path fill-rule="evenodd" clip-rule="evenodd" fill="#336791" d="M40.236,67.361c-0.761-1.802-1.218-3.68-1.354-5.622c-0.128-1.825,0.089-3.643,0.276-5.46c0.182-1.76,0.333-3.528,0.386-5.296c0.088-2.906-0.108-5.808-0.247-8.712c-0.084-1.729,0.117-3.479,0.271-5.212c0.139-1.561,0.312-3.126,0.607-4.664c0.495-2.581,1.152-5.125,2.086-7.591c0.887-2.338,1.906-4.615,3.345-6.665c0.986-1.406,2.105-2.72,3.18-4.094c-0.051-0.018-0.185-0.07-0.319-0.113c-3.498-1.111-7.053-1.979-10.709-2.358c-1.729-0.179-3.464-0.284-5.198-0.387c-0.532-0.032-1.072,0.04-1.606,0.091c-1.322,0.126-2.66,0.176-3.961,0.424c-2.214,0.421-4.338,1.129-6.305,2.282c-1.766,1.035-3.249,2.373-4.491,3.978c-1.372,1.772-2.295,3.776-2.958,5.913c-0.783,2.521-1.156,5.115-1.257,7.733c-0.088,2.295-0.132,4.603,0.264,6.889c0.295,1.702,0.492,3.422,0.817,5.117c0.443,2.311,0.918,4.617,1.467,6.904c0.785,3.274,1.569,6.553,2.499,9.787c0.89,3.099,1.894,6.17,2.982,9.204c0.89,2.476,1.919,4.906,3.003,7.304c0.706,1.562,1.561,3.065,2.457,4.528c0.953,1.553,2.037,3.027,3.508,4.154c1.856,1.423,3.293,1.644,5.179,0.083c0.808-0.669,1.491-1.495,2.194-2.282c1.117-1.25,2.195-2.534,3.307-3.788c1.416-1.598,2.85-3.179,4.273-4.769c0.301-0.336,0.59-0.682,0.883-1.022c-0.172-0.15-0.335-0.281-0.484-0.425C42.562,71.593,41.192,69.623,40.236,67.361z"
  />
  <path fill-rule="evenodd" clip-rule="evenodd" fill="#336791" d="M93.924,19.792c1.156,1.356,2.275,2.752,3.309,4.204c2,2.809,3.598,5.842,4.775,9.087c0.521,1.43,0.937,2.874,0.751,4.439c-0.129,1.096-0.118,2.208-0.215,3.31c-0.081,0.917-0.226,1.829-0.345,2.743c-0.178,1.378-0.436,2.752-0.513,4.136c-0.073,1.317,0.003,2.648,0.086,3.968c0.084,1.341,0.265,2.676,0.388,4.015c0.139,1.518,0.326,3.036,0.369,4.557c0.035,1.249-0.076,2.506-0.185,3.753c-0.13,1.502-0.511,2.956-1.079,4.351c-0.399,0.982-0.876,1.934-1.327,2.917c0.046,0.05,0.108,0.126,0.181,0.192c0.079,0.071,0.168,0.131,0.275,0.213c0.104-0.188,0.184-0.347,0.277-0.496c2.339-3.688,4.42-7.518,6.222-11.493c1.159-2.56,2.245-5.156,3.287-7.766c1.624-4.064,2.909-8.242,3.903-12.503c0.446-1.913,0.787-3.855,1.09-5.797c0.236-1.518,0.433-3.054,0.477-4.586c0.047-1.625-0.043-3.263-0.193-4.884c-0.112-1.224-0.414-2.456-1.181-3.451c-1.233-1.602-2.564-3.134-4.201-4.346c-1.378-1.021-2.751-2.068-4.23-2.927c-2.345-1.36-4.883-2.266-7.535-2.883c-2.588-0.603-5.21-0.863-7.849-0.918c-1.556-0.033-3.119,0.134-4.672,0.28c-1.407,0.132-2.805,0.357-4.222,0.543c1.52,0.855,3.019,1.615,4.433,2.511C88.973,14.844,91.637,17.11,93.924,19.792z"
  />
  <path fill-rule="evenodd" clip-rule="evenodd" fill="#336791" d="M55.299,72.514c0.961-3.073,2.27-6.007,3.538-8.959c1.028-2.394,1.59-4.916,1.777-7.506c0.093-1.277,0.067-2.57,0.004-3.851c-0.071-1.423-0.185-2.85-0.392-4.259c-0.266-1.801-0.569-3.603-0.995-5.371c-0.462-1.913-1.627-3.245-3.623-3.736c-1.216-0.299-2.424-0.287-3.653-0.093c-3.002,0.473-5.75,1.579-8.31,3.199c-0.515,0.326-0.798,0.589-0.709,1.328c0.188,1.565,0.229,3.155,0.222,4.735c-0.01,2.236-0.105,4.472-0.19,6.707c-0.028,0.728-0.133,1.452-0.211,2.177c-0.12,1.11-0.351,2.219-0.344,3.327c0.007,1.142,0.124,2.311,0.401,3.417c0.88,3.507,2.744,6.377,5.799,8.402c1.879,1.245,3.958,1.873,6.24,1.992C55.008,73.499,55.146,73.004,55.299,72.514z M51.713,42.427c-0.402-0.844-0.172-1.543,0.76-1.867c0.227-0.08,0.461-0.165,0.697-0.188c0.324-0.032,0.654-0.008,0.982-0.008c1.182,0.006,2.319,0.171,3.295,0.923c0.626,0.482,0.794,1.122,0.389,1.779c-0.575,0.932-1.452,1.4-2.529,1.49C53.61,44.697,52.419,43.906,51.713,42.427z"
  />
  <path fill-rule="evenodd" clip-rule="evenodd" fill="#336791" d="M98.753,42.119c0.136-1.124,0.245-2.251,0.384-3.375c0.056-0.452-0.182-0.574-0.561-0.585c-1.192-0.033-2.384-0.075-3.576-0.097c-1.344-0.024-2.652,0.192-3.896,0.703c-1.38,0.568-2.431,1.478-2.86,2.98c-0.32,1.12-0.406,2.239-0.293,3.41c0.172,1.785,0.568,3.517,1.193,5.176c0.834,2.221,1.707,4.441,2.75,6.569c1.413,2.881,3.012,5.67,4.513,8.507c0.401,0.757,0.738,1.547,1.156,2.431c0.875-1.853,1.302-3.708,1.351-5.622c0.041-1.61-0.088-3.227-0.182-4.838c-0.059-0.986-0.198-1.966-0.294-2.95c-0.134-1.371-0.337-2.741-0.368-4.115c-0.031-1.397,0.068-2.802,0.188-4.197C98.371,44.778,98.592,43.451,98.753,42.119z M96.064,41.037c-0.443,1.223-1.39,1.913-2.618,2.116c-1.145,0.188-2.148-0.235-2.894-1.148c-0.531-0.65-0.328-1.42,0.468-1.859c0.914-0.506,1.919-0.634,3.104-0.711c0.322,0.059,0.807,0.108,1.268,0.24C96.061,39.864,96.308,40.367,96.064,41.037z"
  />
  <path fill-rule="evenodd" clip-rule="evenodd" fill="#336791" d="M60.642,78.697c-0.655-0.535-1.521-0.566-2.144,0.021c-0.773,0.73-1.453,1.565-2.133,2.388c-0.785,0.951-1.521,1.94-2.534,2.677c-1.474,1.071-3.192,1.515-4.919,1.935c-1.373,0.334-2.752,0.644-4.129,0.965c-0.005,0.06-0.011,0.119-0.017,0.178c0.409,0.189,0.805,0.425,1.231,0.56c2.1,0.665,4.236,0.996,6.455,0.808c1.602-0.136,3.128-0.485,4.574-1.171c1.99-0.943,3.521-2.437,4.823-4.175c0.218-0.29,0.317-0.719,0.343-1.093C62.281,80.469,61.61,79.487,60.642,78.697z"
  />
  <path fill-rule="evenodd" clip-rule="evenodd" fill="#336791" d="M112.393,79.223c-1.69,0.181-3.382,0.373-5.077,0.47c-0.818,0.047-1.648-0.109-2.474-0.176c-1.385-0.112-2.737-0.42-3.908-1.16c-0.678-0.427-1.241-0.475-1.961-0.233c-1.028,0.346-1.867,0.872-2.115,1.986c-0.169,0.753-0.23,1.533-0.298,2.304c-0.013,0.136,0.157,0.386,0.287,0.42c0.793,0.209,1.59,0.456,2.401,0.529c0.996,0.09,2.01,0.061,3.013,0.011c1.083-0.054,2.173-0.124,3.24-0.304c2.515-0.422,4.948-1.11,7.109-2.536c0.779-0.515,1.551-1.041,2.325-1.562c-0.021-0.037-0.043-0.074-0.064-0.11C114.045,78.985,113.223,79.135,112.393,79.223z"
  />
</svg>
