<svg version="1.1" xmlns="http://www.w3.org/2000/svg" xmlns:xlink="http://www.w3.org/1999/xlink" viewBox="0 0 128 128">
  <path fill-rule="evenodd" clip-rule="evenodd" fill="#336791" d="M63.409,100.219c1.792,1.482,3.893,2.114,6.161,2.231c0.938,0.049,1.903,0.003,2.826-0.165c1.464-0.266,2.924-0.6,4.348-1.029c2.9-0.875,5.406-2.387,7.277-4.829c1.066-1.392,1.941-2.897,2.503-4.561c0.464-1.373,0.9-2.76,1.247-4.165c0.274-1.107,0.41-2.25,0.576-3.381c0.111-0.748,0.178-1.504,0.247-2.259c0.112-1.225,0.229-2.448,0.31-3.676c0.057-0.854,0.055-1.712,0.088-2.567c0.011-0.261,0.053-0.52,0.078-0.779c0.021-0.241,0.143-0.324,0.389-0.32c0.864,0.013,1.73,0.035,2.593-0.004c0.967-0.043,1.941-0.085,2.893-0.244c1.354-0.227,2.701-0.514,4.028-0.86c1.568-0.411,3.007-1.146,4.393-1.982c1.612-0.975,3.084-2.118,4.275-3.591c1.039-1.282,1.531-2.768,1.28-4.389c-0.364-2.355-2.343-3.898-4.644-4.003c-0.834-0.038-1.68,0.05-2.51,0.155c-1.005,0.128-1.995,0.354-2.997,0.503c-0.692,0.104-1.393,0.15-2.083,0.222c-0.014-0.063-0.023-0.08-0.019-0.09c1.29-2.437,2.634-4.846,3.854-7.316c0.937-1.896,1.737-3.859,2.564-5.809c1.37-3.228,2.463-6.555,3.369-9.938c0.867-3.238,1.609-6.511,1.844-9.871c0.094-1.341,0.159-2.688,0.15-4.031c-0.006-1.072-0.122-2.145-0.229-3.213c-0.122-1.224-0.492-2.384-1.004-3.5c-0.674-1.472-1.721-2.679-2.822-3.825c-0.881-0.918-1.851-1.754-2.812-2.59c-1.371-1.192-2.913-2.145-4.513-2.99c-1.819-0.96-3.73-1.712-5.724-2.22c-1.206-0.307-2.438-0.578-3.658-0.821C87.251,4.224,86.811,4,86.372,4c-2.756,0-5.512,0-8.268,0c-0.299,0-0.595,0.196-0.896,0.229c-1.979,0.221-3.935,0.615-5.835,1.205c-0.71,0.219-1.358,0.091-2.033,0.028c-0.518-0.048-1.027-0.181-1.545-0.207c-1.971-0.098-3.944-0.24-5.916-0.219c-1.888,0.02-3.757,0.332-5.584,0.85c-1.529,0.436-3.026,0.965-4.398,1.77C51.311,8,50.845,7.935,50.238,7.761c-2.041-0.589-4.095-1.141-6.166-1.604c-1.291-0.289-2.62-0.435-3.939-0.571c-1.265-0.132-2.537-0.21-3.809-0.237c-1.242-0.027-2.492-0.026-3.729,0.084c-1.969,0.175-3.9,0.575-5.778,1.221c-2.085,0.718-3.997,1.757-5.72,3.121c-1.75,1.385-3.154,3.074-4.281,5.005c-1.189,2.037-2.006,4.218-2.512,6.507c-0.275,1.241-0.174,2.517-0.363,3.777C13.883,25.454,14,25.846,14,26.238c0,1.828,0,3.656,0,5.485c0,0.364-0.107,0.729-0.061,1.095c0.113,0.879,0.074,1.765,0.223,2.638c0.234,1.382,0.445,2.759,0.729,4.131c0.397,1.917,0.776,3.832,1.216,5.74c0.32,1.389,0.667,2.77,1.048,4.143c0.58,2.098,1.146,4.199,1.803,6.272c0.611,1.927,1.307,3.826,2.002,5.726c0.962,2.628,2.11,5.171,3.49,7.607c1.195,2.111,2.558,4.088,4.388,5.713c1.207,1.072,2.548,1.895,4.109,2.307c1.228,0.322,2.478,0.361,3.733,0.104c1.457-0.298,2.748-0.926,3.895-1.865c0.132-0.107,0.275-0.19,0.432,0.008c0.594,0.752,1.388,1.254,2.219,1.687c2.242,1.17,4.685,1.521,7.166,1.663c0.602,0.034,1.208-0.052,1.813-0.068c1.181-0.033,2.327-0.263,3.454-0.589c0.592-0.171,1.169-0.389,1.771-0.591c0.031,0.641,0.071,1.257,0.091,1.874c0.033,1.12,0.051,2.241,0.083,3.363c0.016,0.512,0.036,1.024,0.083,1.534c0.122,1.314,0.241,2.628,0.398,3.938c0.108,0.903,0.222,1.812,0.434,2.694c0.428,1.778,1.006,3.509,1.742,5.188C60.982,97.681,62.021,99.072,63.409,100.219z M59.818,83.451c-0.071-1.579-0.124-3.159-0.159-4.739c-0.042-1.942-0.056-3.885-0.083-5.827c-0.001-0.049-0.007-0.097-0.005-0.074c-0.987,0.593-1.96,1.241-2.989,1.776c-1.207,0.627-2.517,0.99-3.874,1.093c-1.063,0.08-2.142,0.153-3.2,0.069c-1.736-0.141-3.472-0.412-5.026-1.268c-0.63-0.347-1.288-0.77-1.723-1.323c-1.041-1.329-0.542-3.008,1.028-3.816c1.085-0.56,2.269-0.793,3.445-1.065c1.021-0.236,2.039-0.505,3.036-0.83c0.986-0.323,1.608-1.123,2.223-1.908c0.319-0.408,0.637-0.817,0.974-1.252c-0.405-0.043-0.788-0.086-1.171-0.122c-1.162-0.108-2.271-0.429-3.331-0.899c-0.906-0.401-0.92-0.445-1.586,0.277c-1.11,1.205-2.19,2.44-3.279,3.666c-0.801,0.902-1.596,1.809-2.395,2.714c-0.788,0.895-1.528,1.84-2.379,2.672c-1.262,1.236-2.784,1.979-4.6,1.895c-1.165-0.054-2.231-0.462-3.191-1.129c-1.979-1.378-3.312-3.308-4.527-5.333c-1.555-2.596-2.75-5.361-3.771-8.201c-0.707-1.964-1.418-3.929-2.034-5.921c-0.671-2.165-1.26-4.355-1.839-6.547c-0.438-1.653-0.826-3.32-1.196-4.99c-0.421-1.899-0.825-3.803-1.182-5.715c-0.241-1.291-0.38-2.601-0.575-3.9c-0.263-1.753-0.311-3.52-0.215-5.279c0.085-1.585,0.312-3.165,0.538-4.739c0.313-2.178,1.031-4.233,2.063-6.174c0.633-1.189,1.416-2.27,2.323-3.274c1.49-1.649,3.293-2.84,5.299-3.735c1.401-0.625,2.882-1,4.391-1.295c2.24-0.436,4.5-0.418,6.76-0.372c0.988,0.021,1.973,0.2,2.96,0.299c2.126,0.211,4.209,0.659,6.266,1.21c1.5,0.402,2.969,0.924,4.455,1.376c0.148,0.045,0.367,0.041,0.49-0.038c2.015-1.316,4.216-2.184,6.559-2.681c0.889-0.188,1.807-0.271,2.716-0.329c1.104-0.069,2.219-0.135,3.321-0.07c1.325,0.076,2.646,0.271,3.963,0.451c0.64,0.088,1.264,0.309,1.904,0.369c0.308,0.029,0.633-0.194,0.957-0.27c1.654-0.383,3.301-0.808,4.97-1.109c1.242-0.224,2.512-0.33,3.774-0.402c1.41-0.081,2.828-0.14,4.236-0.072c1.78,0.086,3.547,0.339,5.291,0.745c2.162,0.503,4.234,1.233,6.205,2.247c1.473,0.759,2.872,1.637,4.133,2.717c0.826,0.709,1.672,1.408,2.417,2.198c0.92,0.974,1.858,1.947,2.436,3.194c0.435,0.941,0.745,1.915,0.831,2.944c0.106,1.281,0.235,2.566,0.224,3.849c-0.011,1.226-0.179,2.451-0.297,3.675c-0.271,2.788-0.876,5.516-1.613,8.208c-0.607,2.223-1.319,4.422-2.089,6.596c-0.709,2.003-1.528,3.969-2.355,5.928c-0.611,1.448-1.27,2.881-1.984,4.281c-1.354,2.652-2.762,5.277-4.391,7.777c-0.281,0.431-0.548,0.873-0.822,1.314c0.711,0.479,1.516,0.648,2.326,0.736c0.771,0.083,1.557,0.134,2.327,0.076c1.233-0.092,2.462-0.268,3.688-0.439c1.214-0.17,2.403-0.515,3.651-0.424c1.244,0.091,2.136,1.037,2.051,2.203c-0.054,0.738-0.393,1.371-0.883,1.912c-2.315,2.554-5.221,4.102-8.545,4.865c-1.263,0.29-2.565,0.439-3.858,0.56c-1.101,0.102-2.216,0.119-3.321,0.078c-0.812-0.03-1.617-0.216-2.447-0.336c-0.084,0.759-0.163,1.55-0.259,2.338c-0.123,1.01-0.265,2.015-0.387,3.023c-0.117,0.958-0.208,1.92-0.329,2.878c-0.118,0.93-0.265,1.855-0.389,2.784c-0.115,0.865-0.2,1.735-0.33,2.599c-0.197,1.324-0.386,2.651-0.645,3.965c-0.31,1.57-0.784,3.09-1.561,4.507c-0.946,1.729-2.287,3.046-3.995,4.021c-1.76,1.005-3.685,1.528-5.634,1.966c-1.382,0.311-2.803,0.361-4.202,0.234c-2.425-0.219-4.495-1.256-6.06-3.137c-1.493-1.795-2.504-3.851-2.865-6.18c-0.174-1.107-0.298-2.223-0.396-3.339C59.95,85.94,59.876,84.696,59.818,83.451z"
  />
  <path fill-rule="evenodd" clip-rule="evenodd" fill="#336791" d="M62.544,67.497c0.015,0.83-0.071,1.66-0.067,2.49c0.017,3.863,0.045,7.727,0.078,11.591c0.006,0.631,0.037,1.264,0.082,1.894c0.095,1.32,0.189,2.641,0.317,3.957c0.092,0.935,0.217,1.867,0.364,2.795c0.21,1.313,0.808,2.483,1.486,3.602c0.584,0.962,1.345,1.778,2.346,2.342c1.702,0.957,3.533,1.037,5.379,0.685c1.247-0.237,2.473-0.62,3.683-1.015c1.194-0.389,2.273-1.024,3.178-1.901c0.849-0.822,1.451-1.825,1.857-2.932c0.787-2.146,1.034-4.407,1.359-6.649c0.122-0.84,0.228-1.682,0.339-2.523c0.127-0.957,0.255-1.913,0.377-2.87c0.092-0.714,0.174-1.427,0.261-2.14c0.125-1.024,0.256-2.047,0.375-3.071c0.091-0.792,0.167-1.587,0.249-2.381c0.104-1.015,0.215-2.027,0.306-3.044c0.068-0.77,0.04-1.555,0.177-2.312c0.251-1.387,0.907-2.567,2.137-3.331c0.514-0.318,1.096-0.528,1.666-0.798c-0.029-0.046-0.06-0.101-0.098-0.149c-0.527-0.684-1.067-1.357-1.584-2.049c-0.812-1.086-1.396-2.297-1.983-3.514c-0.556-1.154-1.236-2.246-1.821-3.387c-1.021-1.99-2.061-3.975-3.002-6.002c-1.183-2.55-2.115-5.188-2.408-8.012c-0.125-1.194-0.157-2.388,0.086-3.571c0.387-1.89,1.373-3.368,3.033-4.382c1.54-0.94,3.255-1.244,5.012-1.339c1.09-0.059,2.187-0.011,3.318-0.011c-0.008-0.042-0.006-0.125-0.037-0.191c-0.704-1.472-1.361-2.969-2.132-4.405c-1.086-2.028-2.478-3.856-4.026-5.553c-1.146-1.255-2.389-2.419-3.75-3.45c-1.338-1.013-2.748-1.918-4.253-2.657c-1.794-0.883-3.664-1.565-5.624-2c-1.885-0.418-3.78-0.674-5.714-0.695c-1.648-0.018-3.286,0.058-4.892,0.429c-2.424,0.561-4.641,1.559-6.568,3.175c-1.077,0.903-2.018,1.916-2.839,3.044c-0.967,1.325-1.745,2.759-2.411,4.26c-0.914,2.061-1.541,4.204-1.971,6.408c-0.214,1.1-0.382,2.207-0.553,3.314c-0.06,0.389-0.064,0.784-0.1,1.229c0.298-0.155,0.512-0.275,0.732-0.381c0.235-0.113,0.477-0.213,0.714-0.32c2.417-1.105,4.92-1.816,7.61-1.735c1.144,0.034,2.236,0.261,3.254,0.762c1.95,0.962,3.09,2.597,3.586,4.665c0.342,1.428,0.577,2.884,0.805,4.337c0.178,1.134,0.361,2.28,0.381,3.424c0.029,1.672-0.055,3.348-0.146,5.019c-0.077,1.424-0.374,2.825-0.872,4.154c-0.904,2.416-1.912,4.793-2.853,7.195c-0.311,0.794-0.55,1.615-0.843,2.488c0.453,0,0.82-0.004,1.188,0.001c0.144,0.003,0.291,0.007,0.43,0.04c1.081,0.255,2.02,0.745,2.789,1.577C61.979,64.708,62.517,66,62.544,67.497z"
  />
  <path fill-rule="evenodd" clip-rule="evenodd" fill="#336791" d="M41.897,56.042c-0.614-1.454-0.983-2.971-1.094-4.538c-0.104-1.474,0.071-2.94,0.223-4.408c0.146-1.421,0.27-2.849,0.312-4.275c0.071-2.347-0.087-4.688-0.199-7.033c-0.067-1.396,0.095-2.809,0.219-4.208c0.112-1.26,0.252-2.523,0.491-3.765c0.399-2.084,0.93-4.138,1.685-6.129c0.715-1.888,1.539-3.725,2.699-5.38c0.797-1.136,1.699-2.195,2.566-3.305c-0.041-0.015-0.147-0.057-0.258-0.092c-2.823-0.896-5.693-1.598-8.646-1.903c-1.395-0.145-2.796-0.229-4.195-0.313c-0.43-0.025-0.866,0.033-1.297,0.074c-1.067,0.103-2.148,0.143-3.198,0.343c-1.787,0.34-3.502,0.912-5.089,1.843c-1.426,0.836-2.623,1.915-3.626,3.211c-1.107,1.431-1.854,3.049-2.389,4.773c-0.632,2.035-0.934,4.13-1.015,6.243c-0.071,1.853-0.106,3.716,0.214,5.562c0.237,1.373,0.396,2.762,0.658,4.131c0.358,1.865,0.742,3.727,1.186,5.573c0.633,2.644,1.267,5.29,2.018,7.902c0.718,2.501,1.527,4.98,2.407,7.43c0.718,1.999,1.549,3.961,2.424,5.896c0.57,1.261,1.26,2.475,1.984,3.655c0.769,1.254,1.645,2.444,2.831,3.354c1.499,1.148,2.658,1.327,4.182,0.066c0.652-0.539,1.203-1.207,1.771-1.842c0.901-1.008,1.771-2.046,2.669-3.059c1.143-1.289,2.3-2.565,3.449-3.85c0.243-0.271,0.478-0.551,0.714-0.825c-0.139-0.122-0.271-0.227-0.393-0.343C43.775,59.458,42.669,57.868,41.897,56.042z"
  />
  <path fill-rule="evenodd" clip-rule="evenodd" fill="#336791" d="M85.238,17.639c0.934,1.095,1.838,2.222,2.672,3.394c1.614,2.268,2.904,4.716,3.855,7.336c0.42,1.155,0.756,2.321,0.606,3.584c-0.104,0.885-0.097,1.782-0.174,2.672c-0.065,0.74-0.183,1.476-0.278,2.214c-0.144,1.112-0.352,2.222-0.414,3.339c-0.06,1.064,0.003,2.138,0.07,3.203c0.067,1.083,0.213,2.161,0.312,3.241c0.112,1.227,0.264,2.451,0.298,3.68c0.028,1.008-0.062,2.021-0.149,3.029c-0.105,1.213-0.412,2.387-0.87,3.512c-0.323,0.794-0.708,1.562-1.071,2.356c0.037,0.04,0.086,0.102,0.146,0.154c0.063,0.058,0.136,0.106,0.222,0.172c0.084-0.151,0.147-0.279,0.225-0.4c1.888-2.977,3.568-6.068,5.021-9.277c0.938-2.066,1.812-4.162,2.654-6.27c1.311-3.281,2.35-6.653,3.151-10.094c0.36-1.544,0.636-3.112,0.88-4.68c0.191-1.226,0.349-2.466,0.385-3.703c0.037-1.312-0.035-2.634-0.156-3.942c-0.091-0.988-0.335-1.982-0.953-2.787c-0.996-1.293-2.07-2.529-3.391-3.508c-1.113-0.823-2.223-1.67-3.416-2.362c-1.893-1.099-3.942-1.829-6.083-2.327c-2.091-0.487-4.207-0.697-6.337-0.742c-1.256-0.027-2.518,0.108-3.771,0.227c-1.136,0.106-2.265,0.288-3.408,0.438c1.227,0.69,2.438,1.304,3.578,2.027C81.242,13.645,83.394,15.474,85.238,17.639z"
  />
  <path fill-rule="evenodd" clip-rule="evenodd" fill="#336791" d="M54.058,60.202c0.775-2.48,1.832-4.85,2.855-7.232c0.831-1.933,1.284-3.968,1.435-6.06c0.075-1.031,0.055-2.075,0.004-3.109c-0.057-1.148-0.148-2.301-0.316-3.438c-0.215-1.454-0.459-2.909-0.803-4.336c-0.373-1.544-1.313-2.62-2.925-3.017c-0.981-0.241-1.957-0.231-2.95-0.074c-2.423,0.381-4.641,1.274-6.707,2.582c-0.416,0.263-0.646,0.476-0.573,1.071c0.152,1.264,0.185,2.548,0.179,3.823c-0.008,1.805-0.085,3.61-0.153,5.414c-0.022,0.587-0.107,1.173-0.171,1.758c-0.096,0.896-0.283,1.791-0.277,2.686c0.006,0.922,0.1,1.865,0.324,2.758c0.711,2.832,2.215,5.148,4.682,6.783c1.517,1.006,3.195,1.512,5.038,1.609C53.822,60.997,53.935,60.598,54.058,60.202z M51.162,35.913c-0.325-0.681-0.139-1.246,0.613-1.508c0.184-0.063,0.372-0.133,0.562-0.151c0.263-0.026,0.528-0.007,0.793-0.007c0.955,0.006,1.873,0.139,2.66,0.745c0.506,0.39,0.642,0.905,0.314,1.437c-0.465,0.753-1.172,1.131-2.042,1.203C52.693,37.745,51.732,37.107,51.162,35.913z"
  />
  <path fill-rule="evenodd" clip-rule="evenodd" fill="#336791" d="M89.137,35.664c0.111-0.907,0.199-1.817,0.311-2.725c0.045-0.364-0.146-0.464-0.452-0.473c-0.963-0.026-1.925-0.061-2.888-0.077c-1.084-0.02-2.141,0.154-3.145,0.566c-1.114,0.459-1.962,1.193-2.309,2.406c-0.259,0.904-0.328,1.807-0.236,2.752c0.139,1.441,0.459,2.839,0.963,4.18c0.674,1.793,1.378,3.585,2.221,5.303c1.141,2.325,2.431,4.577,3.643,6.867c0.323,0.611,0.597,1.25,0.934,1.963c0.707-1.496,1.051-2.994,1.09-4.538c0.033-1.301-0.07-2.605-0.146-3.906c-0.047-0.796-0.16-1.588-0.237-2.382c-0.107-1.106-0.271-2.213-0.297-3.322c-0.025-1.128,0.055-2.262,0.151-3.389C88.83,37.811,89.008,36.74,89.137,35.664z M86.968,34.79c-0.358,0.987-1.122,1.545-2.114,1.708c-0.924,0.153-1.734-0.188-2.336-0.926c-0.429-0.525-0.265-1.146,0.378-1.502c0.738-0.408,1.549-0.511,2.506-0.573c0.261,0.047,0.651,0.088,1.023,0.193C86.964,33.842,87.164,34.25,86.968,34.79z"
  />
  <path fill-rule="evenodd" clip-rule="evenodd" fill="#336791" d="M58.37,65.193c-0.528-0.432-1.228-0.457-1.73,0.017c-0.624,0.59-1.173,1.264-1.722,1.928c-0.633,0.768-1.229,1.566-2.045,2.161c-1.189,0.865-2.578,1.223-3.972,1.562c-1.108,0.27-2.222,0.521-3.333,0.779c-0.004,0.048-0.009,0.096-0.014,0.144c0.33,0.152,0.649,0.343,0.994,0.452c1.695,0.536,3.42,0.804,5.212,0.652c1.292-0.111,2.524-0.393,3.691-0.946c1.607-0.761,2.844-1.968,3.895-3.37c0.176-0.234,0.256-0.58,0.276-0.882C59.693,66.624,59.152,65.831,58.37,65.193z"
  />
  <path fill-rule="evenodd" clip-rule="evenodd" fill="#336791" d="M89.315,64.731c-0.831,0.279-1.507,0.704-1.708,1.603c-0.137,0.608-0.187,1.237-0.24,1.86c-0.01,0.11,0.127,0.312,0.231,0.34c0.64,0.169,1.284,0.368,1.938,0.427c0.805,0.073,1.623,0.05,2.433,0.01c0.874-0.044,1.754-0.101,2.616-0.245c2.029-0.342,3.994-0.896,5.738-2.048c0.63-0.415,1.252-0.839,1.878-1.261c-0.017-0.028-0.035-0.059-0.052-0.089c-0.667,0.099-1.332,0.22-2.002,0.291c-1.364,0.146-2.729,0.3-4.098,0.379c-0.661,0.038-1.331-0.089-1.997-0.143c-1.118-0.091-2.21-0.339-3.155-0.937C90.352,64.574,89.896,64.536,89.315,64.731z"
  />
  <path fill="#336791" d="M2.835,103.184c1.093-0.182,2.522-0.338,4.343-0.338c2.235,0,3.874,0.52,4.914,1.456c0.962,0.832,1.534,2.106,1.534,3.667c0,1.586-0.469,2.834-1.353,3.744c-1.196,1.274-3.146,1.924-5.356,1.924c-0.676,0-1.3-0.026-1.819-0.156v7.021H2.835V103.184z M5.098,111.634c0.494,0.13,1.118,0.182,1.872,0.182c2.729,0,4.394-1.326,4.394-3.744c0-2.314-1.638-3.432-4.134-3.432c-0.988,0-1.742,0.078-2.132,0.182V111.634z"
  />
  <path fill="#336791" d="M27.328,114.104c0,4.654-3.225,6.683-6.267,6.683c-3.406,0-6.032-2.496-6.032-6.475c0-4.212,2.756-6.682,6.24-6.682C24.884,107.629,27.328,110.256,27.328,114.104z M17.344,114.234c0,2.756,1.586,4.836,3.822,4.836c2.184,0,3.821-2.054,3.821-4.888c0-2.132-1.065-4.836-3.77-4.836S17.344,111.842,17.344,114.234z"
  />
  <path fill="#336791" d="M29.901,118.16c0.676,0.442,1.872,0.91,3.016,0.91c1.664,0,2.444-0.832,2.444-1.872c0-1.092-0.649-1.69-2.34-2.314c-2.262-0.806-3.328-2.054-3.328-3.562c0-2.028,1.638-3.692,4.342-3.692c1.274,0,2.393,0.364,3.095,0.78l-0.572,1.664c-0.494-0.312-1.404-0.728-2.574-0.728c-1.352,0-2.106,0.78-2.106,1.716c0,1.04,0.755,1.508,2.393,2.132c2.184,0.832,3.302,1.924,3.302,3.796c0,2.21-1.716,3.77-4.706,3.77c-1.378,0-2.652-0.338-3.536-0.858L29.901,118.16z"
  />
  <path fill="#336791" d="M43.266,104.301v3.614h3.275v1.742h-3.275v6.786c0,1.56,0.441,2.444,1.716,2.444c0.598,0,1.04-0.078,1.326-0.156l0.104,1.716c-0.441,0.182-1.144,0.312-2.027,0.312c-1.066,0-1.925-0.338-2.471-0.962c-0.649-0.676-0.884-1.794-0.884-3.276v-6.864h-1.95v-1.742h1.95v-3.016L43.266,104.301z"
  />
  <path fill="#336791" d="M59.802,107.916c-0.053,0.91-0.104,1.924-0.104,3.458v7.306c0,2.886-0.572,4.654-1.794,5.747c-1.222,1.144-2.99,1.508-4.576,1.508c-1.508,0-3.172-0.364-4.187-1.04l0.572-1.742c0.832,0.52,2.132,0.988,3.692,0.988c2.34,0,4.056-1.222,4.056-4.394v-1.404h-0.052c-0.702,1.17-2.054,2.106-4.004,2.106c-3.12,0-5.356-2.652-5.356-6.137c0-4.264,2.782-6.682,5.668-6.682c2.185,0,3.381,1.144,3.927,2.184h0.052l0.104-1.898H59.802z M57.436,112.882c0-0.39-0.026-0.728-0.13-1.04c-0.416-1.326-1.534-2.418-3.198-2.418c-2.185,0-3.744,1.846-3.744,4.758c0,2.47,1.248,4.524,3.718,4.524c1.404,0,2.678-0.884,3.172-2.34c0.13-0.39,0.183-0.832,0.183-1.222V112.882z"
  />
  <path fill="#336791" d="M63.337,111.842c0-1.482-0.026-2.756-0.104-3.926h2.003l0.077,2.47h0.104c0.572-1.69,1.95-2.756,3.484-2.756c0.26,0,0.441,0.026,0.649,0.078v2.158c-0.233-0.052-0.468-0.078-0.779-0.078c-1.612,0-2.757,1.222-3.068,2.938c-0.052,0.312-0.104,0.676-0.104,1.066v6.708h-2.262V111.842z"
  />
  <path fill="#336791" d="M72.854,114.624c0.052,3.094,2.027,4.368,4.315,4.368c1.639,0,2.626-0.286,3.484-0.65l0.39,1.638c-0.806,0.364-2.184,0.78-4.186,0.78c-3.874,0-6.188-2.548-6.188-6.344c0-3.796,2.236-6.787,5.902-6.787c4.108,0,5.2,3.614,5.2,5.928c0,0.468-0.052,0.832-0.078,1.066H72.854z M79.562,112.986c0.025-1.456-0.599-3.718-3.172-3.718c-2.314,0-3.328,2.132-3.511,3.718H79.562z"
  />
  <path fill="#336791" d="M84.371,117.744c1.014,0.624,2.496,1.144,4.056,1.144c2.314,0,3.666-1.222,3.666-2.99c0-1.638-0.936-2.574-3.302-3.484c-2.86-1.014-4.628-2.496-4.628-4.966c0-2.73,2.262-4.758,5.668-4.758c1.794,0,3.094,0.416,3.874,0.858l-0.624,1.846c-0.572-0.312-1.742-0.832-3.328-0.832c-2.392,0-3.302,1.43-3.302,2.626c0,1.638,1.065,2.444,3.484,3.38c2.964,1.145,4.472,2.574,4.472,5.148c0,2.704-2.002,5.044-6.136,5.044c-1.69,0-3.536-0.494-4.473-1.118L84.371,117.744z"
  />
  <path fill="#336791" d="M111.957,123.074c-2.366-0.624-4.68-1.326-6.708-2.028c-0.364-0.13-0.728-0.26-1.066-0.26c-4.16-0.156-7.722-3.224-7.722-8.866c0-5.616,3.432-9.23,8.164-9.23c4.758,0,7.853,3.692,7.853,8.866c0,4.498-2.08,7.384-4.992,8.398v0.104c1.742,0.442,3.64,0.858,5.122,1.118L111.957,123.074z M110.085,111.66c0-3.51-1.819-7.125-5.538-7.125c-3.822,0-5.694,3.536-5.668,7.333c-0.026,3.718,2.028,7.072,5.564,7.072C108.058,118.94,110.085,115.664,110.085,111.66z"
  />
  <path fill="#336791" d="M115.414,102.976h2.263v15.626h7.488v1.898h-9.751V102.976z" />
</svg>
