<svg version="1.1" xmlns="http://www.w3.org/2000/svg" xmlns:xlink="http://www.w3.org/1999/xlink" viewBox="0 0 128 128">
<path fill="#D91404" d="M82.518,54.655c-12.92,8.326-25.722,16.577-38.862,25.043c19.678,2.687,39.005,5.325,58.715,8.016
	C95.657,76.533,89.115,65.64,82.518,54.655z"/>
<path fill="#D91404" d="M107.927,17.812c-1.735,2.604-3.473,5.207-5.205,7.813c-5.95,8.951-11.898,17.901-17.841,26.855
	c-0.331,0.5-0.76,0.896-0.294,1.664c5.744,9.483,11.441,18.996,17.152,28.498c0.901,1.501,1.813,2.996,2.979,4.436
	c1.154-23.063,2.309-46.127,3.463-69.191C108.096,17.862,108.012,17.836,107.927,17.812z"/>
<path fill="#D91404" d="M29.529,47.38c0.269,0.255,0.94,0.402,1.251,0.249c5.509-2.708,11.053-5.355,16.442-8.286
	c1.756-0.954,3.106-2.667,4.621-4.055c5.013-4.597,10.017-9.204,15.021-13.812c0.307-0.283,0.668-0.556,0.852-0.913
	c1.797-3.513,3.562-7.042,5.391-10.675c-2.181-0.817-4.248-1.62-6.34-2.35c-0.284-0.099-0.73,0.098-1.04,0.27
	c-4.843,2.706-9.777,5.267-14.467,8.218c-2.347,1.476-4.259,3.651-6.337,5.547c-3.347,3.056-6.692,6.119-9.992,9.229
	c-0.876,0.825-1.674,1.768-2.355,2.76c-2.258,3.286-4.446,6.619-6.737,10.048C27.121,44.936,28.284,46.202,29.529,47.38z"/>
<path fill="#D91404" d="M49.662,42.887c-2.739,11.577-5.465,23.088-8.279,34.978C54.582,69.361,67.476,61.053,80.284,52.8
	C70.091,49.5,59.93,46.211,49.662,42.887z"/>
<path fill="#D91404" d="M71.499,23.446c3.755,9.135,7.436,18.087,11.22,27.292c7.324-11.001,14.502-21.785,21.843-32.815
	C93.411,19.786,82.526,21.604,71.499,23.446z"/>
<path fill="#D91404" d="M50.122,40.519c10.042,3.261,19.885,6.456,30.012,9.743c-3.761-9.163-7.393-18.005-11.101-27.035
	C62.717,29.002,56.498,34.689,50.122,40.519z"/>
<path fill="#D91404" d="M29.944,54.131c-3.562,8.514-7.001,16.736-10.504,25.109c6.731-0.199,13.257-0.392,20.005-0.591
	C36.277,70.473,33.171,62.457,29.944,54.131z"/>
<path fill="#D91404" d="M39.683,72.826c0.083-0.016,0.165-0.039,0.248-0.054c2.401-9.988,4.838-19.907,7.291-30.284
	c-5.47,2.842-10.688,5.554-16.05,8.341C33.907,57.941,36.825,65.441,39.683,72.826z"/>
<path fill="#D91404" d="M100.525,16.304c-3.195-0.846-6.387-1.696-9.585-2.536c-4.593-1.207-9.19-2.401-13.781-3.62
	c-0.573-0.152-0.989-0.251-1.326,0.44c-1.622,3.324-3.296,6.624-4.944,9.935c-0.051,0.103-0.041,0.237-0.08,0.492
	c9.948-1.507,19.83-3.005,29.71-4.502C100.521,16.443,100.523,16.373,100.525,16.304z"/>
<path fill="#D91404" d="M81.993,8.742c8.579,2.374,17.158,4.747,26.037,7.203c-1.493-4.255-2.878-8.2-4.302-12.258
	c-7.29,1.617-14.493,3.214-21.696,4.811C82.018,8.58,82.005,8.661,81.993,8.742z"/>
<path fill="#D91404" d="M89.875,88.1c-7.121-0.972-14.24-1.944-21.361-2.916c-8.873-1.211-17.73-2.544-26.623-3.569
	c-3.225-0.371-6.536-0.029-9.806,0.026c-2.687,0.046-5.374,0.148-8.06,0.233c-0.277,0.008-0.553,0.064-0.828,0.361
	c22.21,2.054,44.422,4.107,66.631,6.162C89.845,88.297,89.858,88.199,89.875,88.1z"/>
<path fill="#D91404" d="M19.878,71.576c2.864-6.641,5.712-13.287,8.586-19.922c0.288-0.667,0.267-1.118-0.296-1.653
	c-1.203-1.145-2.319-2.378-3.634-3.744c-1.776,8.769-3.509,17.32-5.241,25.871c0.063,0.032,0.128,0.061,0.193,0.092
	C19.619,72.006,19.78,71.806,19.878,71.576z"/>
<path fill="#D91404" d="M76.29,6.989c4.827-1.246,9.724-2.218,14.592-3.305c0.314-0.071,0.622-0.175,0.932-0.264
	c-0.016-0.079-0.031-0.159-0.047-0.238c-6.856,0.922-13.713,1.844-20.916,2.813C72.816,6.854,74.329,7.495,76.29,6.989z"/>
	<path fill="#D91404" d="M30.975,109.422v8.547h-4.724V95.692h6.491c3.026,0,5.266,0.551,6.719,1.653s2.18,2.776,2.18,5.02
		c0,1.311-0.361,2.477-1.083,3.497c-0.721,1.021-1.741,1.822-3.063,2.401l6.553,9.705h-5.242l-5.317-8.547H30.975z M30.975,105.582
		h1.524c1.492,0,2.595-0.25,3.306-0.747c0.71-0.498,1.066-1.28,1.066-2.346c0-1.057-0.363-1.808-1.09-2.255
		c-0.726-0.447-1.851-0.671-3.374-0.671h-1.433V105.582z"/>
	<path fill="#D91404" d="M58.553,117.969l-0.624-2.179h-0.244c-0.498,0.793-1.204,1.404-2.117,1.836
		c-0.915,0.432-1.957,0.647-3.124,0.647c-2.002,0-3.51-0.535-4.526-1.607c-1.016-1.072-1.523-2.613-1.523-4.624v-11.108h4.647v9.95
		c0,1.229,0.219,2.151,0.656,2.766c0.436,0.615,1.131,0.921,2.086,0.921c1.301,0,2.24-0.435,2.819-1.302
		c0.579-0.869,0.869-2.308,0.869-4.319v-8.015h4.647v17.035H58.553z"/>
	<path fill="#D91404" d="M76.472,100.613c2.011,0,3.586,0.786,4.725,2.355c1.137,1.569,1.705,3.72,1.705,6.453
		c0,2.813-0.587,4.992-1.759,6.535c-1.174,1.545-2.771,2.316-4.793,2.316c-2.001,0-3.57-0.727-4.708-2.18h-0.32l-0.776,1.875h-3.551
		V94.26h4.647v5.516c0,0.701-0.062,1.823-0.184,3.368h0.184C72.728,101.458,74.339,100.613,76.472,100.613z M74.978,104.332
		c-1.147,0-1.985,0.353-2.513,1.059c-0.528,0.707-0.804,1.872-0.823,3.498v0.502c0,1.829,0.271,3.139,0.814,3.932
		c0.544,0.792,1.405,1.188,2.584,1.188c0.954,0,1.713-0.44,2.277-1.318s0.846-2.156,0.846-3.832c0-1.676-0.285-2.934-0.854-3.772
		C76.741,104.751,75.964,104.332,74.978,104.332z"/>
	<path fill="#D91404" d="M83.999,100.934h5.089l3.215,9.584c0.274,0.833,0.463,1.818,0.563,2.956h0.092
		c0.111-1.046,0.329-2.032,0.654-2.956l3.154-9.584h4.982l-7.207,19.214c-0.66,1.777-1.602,3.108-2.825,3.992
		c-1.225,0.884-2.654,1.325-4.29,1.325c-0.803,0-1.59-0.086-2.361-0.259v-3.687c0.559,0.131,1.168,0.197,1.828,0.197
		c0.822,0,1.541-0.251,2.156-0.754c0.615-0.502,1.095-1.261,1.439-2.277l0.274-0.839L83.999,100.934z"/>
</svg>
