<svg version="1.1" xmlns="http://www.w3.org/2000/svg" xmlns:xlink="http://www.w3.org/1999/xlink" viewBox="0 0 128 128">
	<path fill-rule="evenodd" clip-rule="evenodd" fill="#D91404" d="M35.971,111.33c27.466,3.75,54.444,7.433,81.958,11.188
		c-9.374-15.606-18.507-30.813-27.713-46.144C72.181,87.996,54.31,99.512,35.971,111.33z"/>
	<path fill-rule="evenodd" clip-rule="evenodd" fill="#D91404" d="M125.681,24.947c-2.421,3.636-4.847,7.269-7.265,10.907
		c-8.304,12.493-16.607,24.986-24.903,37.485c-0.462,0.696-1.061,1.248-0.41,2.321c8.016,13.237,15.969,26.513,23.942,39.777
		c1.258,2.095,2.53,4.182,4.157,6.192c1.612-32.193,3.223-64.387,4.834-96.58C125.917,25.017,125.8,24.981,125.681,24.947z"/>
	<path fill-rule="evenodd" clip-rule="evenodd" fill="#D91404" d="M16.252,66.22c0.375,0.355,1.311,0.562,1.747,0.347
		c7.689-3.779,15.427-7.474,22.948-11.564c2.453-1.333,4.339-3.723,6.452-5.661c6.997-6.417,13.983-12.847,20.966-19.278
		c0.427-0.395,0.933-0.777,1.188-1.275c2.508-4.902,4.973-9.829,7.525-14.898c-3.043-1.144-5.928-2.263-8.849-3.281
		c-0.396-0.138-1.02,0.136-1.449,0.375c-6.761,3.777-13.649,7.353-20.195,11.472c-3.275,2.061-5.943,5.098-8.843,7.743
		c-4.674,4.266-9.342,8.542-13.948,12.882c-1.222,1.152-2.336,2.468-3.288,3.854c-3.15,4.587-6.206,9.24-9.402,14.025
		C12.89,62.808,14.514,64.574,16.252,66.22z"/>
	<path fill-rule="evenodd" clip-rule="evenodd" fill="#D91404" d="M44.354,59.949c-3.825,16.159-7.627,32.227-11.556,48.823
		c18.423-11.871,36.421-23.468,54.3-34.987C72.87,69.18,58.688,64.589,44.354,59.949z"/>
	<path fill-rule="evenodd" clip-rule="evenodd" fill="#D91404" d="M120.985,25.103c-15.566,2.601-30.76,5.139-46.15,7.71
		c5.242,12.751,10.379,25.246,15.662,38.096C100.718,55.55,110.737,40.499,120.985,25.103z"/>
	<path fill-rule="evenodd" clip-rule="evenodd" fill="#D91404" d="M44.996,56.644c14.017,4.55,27.755,9.01,41.892,13.6
		c-5.25-12.79-10.32-25.133-15.495-37.737C62.578,40.566,53.895,48.506,44.996,56.644z"/>
	<path fill-rule="evenodd" clip-rule="evenodd" fill="#D91404" d="M16.831,75.643C11.86,87.526,7.058,99.005,2.169,110.691
		c9.396-0.278,18.504-0.547,27.925-0.825C25.671,98.454,21.335,87.266,16.831,75.643z"/>
	<path fill-rule="evenodd" clip-rule="evenodd" fill="#D91404" d="M30.424,101.739c0.116-0.022,0.23-0.054,0.346-0.076
		c3.353-13.941,6.754-27.786,10.177-42.272c-7.636,3.969-14.92,7.754-22.403,11.644C22.363,80.961,26.435,91.432,30.424,101.739z"/>
	<path fill-rule="evenodd" clip-rule="evenodd" fill="#D91404" d="M115.351,22.842c-4.459-1.181-8.918-2.366-13.379-3.539
		c-6.412-1.686-12.829-3.351-19.237-5.052c-0.801-0.213-1.38-0.352-1.851,0.613c-2.265,4.64-4.6,9.245-6.901,13.868
		c-0.071,0.143-0.056,0.328-0.111,0.687c13.886-2.104,27.679-4.195,41.47-6.285C115.346,23.037,115.348,22.939,115.351,22.842z"/>
	<path fill-rule="evenodd" clip-rule="evenodd" fill="#D91404" d="M89.482,12.288c11.975,3.313,23.949,6.625,36.343,10.054
		c-2.084-5.939-4.017-11.446-6.005-17.11c-10.176,2.256-20.23,4.486-30.285,6.715C89.518,12.061,89.501,12.175,89.482,12.288z"/>
	<path fill-rule="evenodd" clip-rule="evenodd" fill="#D91404" d="M33.505,114.007c-4.501-0.519-9.122-0.042-13.687,0.037
		c-3.75,0.063-7.5,0.206-11.25,0.323c-0.386,0.012-0.771,0.09-1.156,0.506c31.003,2.866,62.005,5.732,93.007,8.6
		c0.021-0.138,0.042-0.276,0.063-0.414c-9.938-1.357-19.877-2.714-29.815-4.07C58.283,117.298,45.92,115.438,33.505,114.007z"/>
	<path fill-rule="evenodd" clip-rule="evenodd" fill="#D91404" d="M2.782,99.994c3.995-9.27,7.973-18.546,11.984-27.809
		c0.401-0.929,0.37-1.56-0.415-2.308c-1.678-1.597-3.237-3.318-5.071-5.226c-2.479,12.24-4.897,24.177-7.317,36.113
		c0.09,0.042,0.182,0.084,0.271,0.127C2.419,100.594,2.645,100.313,2.782,99.994z"/>
	<path fill-rule="evenodd" clip-rule="evenodd" fill="#D91404" d="M81.522,9.841c6.737-1.738,13.572-3.097,20.367-4.613
		c0.44-0.099,0.87-0.244,1.303-0.368c-0.022-0.11-0.044-0.222-0.067-0.332c-9.571,1.287-19.141,2.575-29.194,3.928
		C76.672,9.653,78.784,10.547,81.522,9.841z"/>
</svg>
