<svg version="1.1" xmlns="http://www.w3.org/2000/svg" xmlns:xlink="http://www.w3.org/1999/xlink" viewBox="0 0 128 128">
	<path fill="#DD4814" d="M64.02,1.596c-24.36,0-44.107,19.747-44.107,44.107c0,24.356,19.747,44.105,44.107,44.105
		c24.359,0,44.106-19.749,44.106-44.105C108.126,21.343,88.379,1.596,64.02,1.596z M73.916,16.786
		c1.627-2.818,5.227-3.783,8.043-2.158c2.817,1.627,3.78,5.227,2.154,8.043c-1.625,2.816-5.225,3.78-8.042,2.153
		C73.257,23.2,72.291,19.6,73.916,16.786z M64.02,20.121c2.368,0,4.658,0.328,6.834,0.929c0.383,2.367,1.788,4.546,4.027,5.839
		c2.235,1.289,4.821,1.418,7.06,0.572c4.354,4.282,7.188,10.105,7.602,16.592l-8.392,0.123c-0.774-8.786-8.146-15.675-17.131-15.675
		c-2.589,0-5.044,0.575-7.246,1.6l-4.092-7.333C56.1,21.076,59.948,20.121,64.02,20.121z M34.028,51.591
		c-3.253,0-5.89-2.637-5.89-5.888c0-3.254,2.636-5.891,5.89-5.891c3.252,0,5.889,2.636,5.889,5.891
		C39.917,48.954,37.281,51.591,34.028,51.591z M39.25,52.115c1.858-1.517,3.048-3.826,3.048-6.413c0-2.588-1.19-4.898-3.048-6.415
		c1.593-6.163,5.426-11.425,10.578-14.87l4.305,7.211c-4.423,3.112-7.313,8.254-7.313,14.074c0,5.818,2.89,10.959,7.313,14.07
		l-4.305,7.213C44.674,63.542,40.84,58.28,39.25,52.115z M81.959,76.773c-2.816,1.626-6.416,0.662-8.041-2.156
		c-1.627-2.814-0.661-6.414,2.155-8.04c2.814-1.626,6.416-0.66,8.041,2.154C85.741,71.549,84.775,75.147,81.959,76.773z
		 M81.941,63.942c-2.238-0.845-4.823-0.719-7.06,0.572c-2.239,1.296-3.643,3.473-4.027,5.839c-2.176,0.602-4.466,0.931-6.834,0.931
		c-4.071,0-7.919-0.957-11.337-2.649l4.092-7.332c2.201,1.024,4.657,1.6,7.246,1.6c8.985,0,16.357-6.888,17.13-15.676l8.393,0.123
		C89.13,53.837,86.296,59.66,81.941,63.942z"/>
	<path fill="#DD4814" d="M16,121.659c-1,0.055-0.509,0.103-0.823,0.144c-0.315,0.042-0.738,0.082-1.122,0.123
		c-0.384,0.042-0.832,0.076-1.271,0.103c-0.439,0.028-0.882,0.042-1.293,0.042c-1.947,0-3.383-0.562-4.206-1.687
		C6.462,119.26,6,117.394,6,114.789V104H3v11.612c0,1.454-0.22,2.777,0.082,3.969c0.302,1.192,0.61,2.228,1.295,3.105
		c0.685,0.878,1.498,1.556,2.623,2.037c1.123,0.478,2.462,0.719,4.107,0.719c1.893,0,3.269-0.123,4.708-0.37
		c1.439-0.246,2.184-0.48,3.184-0.699V104h-3V121.659z"/>
	<path fill="#DD4814" d="M41.376,106.233c-0.822-0.987-1.83-1.754-3.023-2.303c-1.193-0.548-2.557-0.823-4.093-0.823
		c-1.233,0-2.26,0.164-3.206,0.494C30.108,103.93,30,104.246,29,104.546V93.071l-4,0.659v30.644c0,0.247,2.025,0.494,3.396,0.74
		c1.372,0.247,2.96,0.37,4.742,0.37c1.646,0,3.133-0.262,4.449-0.782c1.316-0.521,2.442-1.261,3.375-2.221
		c0.932-0.96,1.653-2.132,2.161-3.516c0.507-1.386,0.762-2.943,0.762-4.67c0-1.645-0.213-3.153-0.638-4.524
		C42.822,108.4,42.199,107.221,41.376,106.233z M38.045,120.074c-1.234,1.358-2.879,2.037-4.937,2.037
		c-1.042,0-1.848-0.048-2.548-0.144c-0.699-0.096-0.561-0.199-1.561-0.309v-13.534c1-0.384,1.073-0.754,1.951-1.11
		c0.878-0.356,1.805-0.535,2.849-0.535c1.096,0,2.02,0.199,2.801,0.596c0.781,0.399,1.411,0.946,1.905,1.646
		c0.493,0.699,0.845,1.529,1.065,2.489c0.22,0.961,0.327,1.989,0.327,3.085C39.897,116.792,39.278,118.717,38.045,120.074z"/>
	<path fill="#DD4814" d="M61,121.659c0,0.055-0.161,0.103-0.476,0.144c-0.315,0.042-0.563,0.082-0.947,0.123
		c-0.384,0.042-0.745,0.076-1.183,0.103c-0.438,0.028-0.838,0.042-1.249,0.042c-1.948,0-3.209-0.562-4.032-1.687
		C52.29,119.26,52,117.394,52,114.789V104h-4v11.612c0,1.454,0.129,2.776,0.431,3.969c0.302,1.192,0.785,2.228,1.471,3.105
		c0.685,0.878,1.584,1.556,2.709,2.037c1.125,0.478,2.507,0.719,4.153,0.719c1.892,0,3.439-0.123,4.879-0.37
		c1.439-0.246,2.357-0.48,3.357-0.699V104h-4V121.659z"/>
	<path fill="#DD4814" d="M86.19,105.884c-0.673-0.864-1.57-1.535-2.694-2.015c-1.125-0.479-2.537-0.72-4.237-0.72
		c-1.892,0-3.937,0.123-5.39,0.37c-1.455,0.247-2.869,0.48-3.869,0.7V124h4v-17.067c0-0.026,0.648-0.068,0.964-0.123
		c0.314-0.055,0.813-0.103,1.211-0.145c0.397-0.041,0.887-0.076,1.326-0.103c0.438-0.027,0.899-0.041,1.311-0.041
		c1.014,0,1.882,0.13,2.567,0.391c0.687,0.26,1.244,0.679,1.655,1.254c0.412,0.575,0.613,1.329,0.792,2.262
		c0.177,0.932,0.174,2.057,0.174,3.372V124h4v-11.021c0-1.453-0.127-2.783-0.401-3.991C87.324,107.783,86.861,106.748,86.19,105.884
		z"/>
	<path fill="#DD4814" d="M103.609,121.679c-0.685,0.26-1.618,0.391-2.797,0.391c-0.658,0-1.234-0.083-1.727-0.247
		c-0.494-0.164-0.905-0.445-1.234-0.843c-0.329-0.398-1.008-0.945-1.172-1.646C96.514,118.635,96,117.75,96,116.682V107h9v-3h-9
		v-7.022l-3,0.659v19.085c0,1.427,0.135,2.681,0.368,3.764c0.233,1.084,0.647,1.995,1.223,2.736c0.576,0.74,1.341,1.295,2.288,1.665
		c0.946,0.371,2.148,0.556,3.603,0.556c1.234,0,2.338-0.151,3.312-0.453s1.652-0.547,2.037-0.74l-0.821-3.127
		C104.761,121.233,104.294,121.418,103.609,121.679z"/>
	<path fill="#DD4814" d="M122,104v17.659c0,0.055-0.387,0.103-0.701,0.144c-0.315,0.042-0.678,0.082-1.061,0.123
		c-0.384,0.042-0.801,0.076-1.239,0.103c-0.439,0.028-0.867,0.042-1.278,0.042c-1.947,0-3.498-0.562-4.32-1.687
		c-0.823-1.124-1.4-2.989-1.4-5.595V104h-3v11.612c0,1.454-0.098,2.776,0.205,3.969c0.301,1.192,0.67,2.228,1.356,3.105
		c0.686,0.878,1.528,1.556,2.652,2.037c1.125,0.478,2.479,0.719,4.124,0.719c1.893,0,3.153-0.123,4.593-0.37
		c1.439-0.246,2.05-0.48,3.07-0.699V104H122z"/>
</svg>
