<svg version="1.1" xmlns="http://www.w3.org/2000/svg" xmlns:xlink="http://www.w3.org/1999/xlink" viewBox="0 0 128 128">
	<g transform="translate(148.9622,-225.33682)">
		<g transform="translate(109.60155,-54.548234)">
				<path fill="#00ADEF" d="
					M-258.064,335.12l9.869-1.343l0.004,9.519l-9.863,0.055L-258.064,335.12z M-248.201,344.39l0.008,9.527l-9.863-1.357v-8.232
					L-248.201,344.39z M-247.005,333.601l13.082-1.91v11.481l-13.082,0.104V333.601z M-233.917,344.481l-0.006,11.43l-13.082-1.847
					l-0.018-9.605L-233.917,344.481z"/>
				<path fill="#00ADEF" d="
					M-207.382,336.602l-4.042,14.476l-2.399-0.023l-3.152-11.419c0.025-0.596,0.072-0.165,0.072-0.165l-3.186,11.572l-2.403,0.025
					l-4.169-14.46l2.249-0.006l3.202,12.061l-0.064-0.037l3.366-12.024l2.157,0.007l3.2,12.263l-0.055-0.175l3.024-12.082
					L-207.382,336.602z"/>
				<path fill="#00ADEF" d="M-205.372,338.32
					c-0.36,0-0.661-0.12-0.907-0.358c-0.245-0.238-0.369-0.537-0.369-0.899c0-0.354,0.124-0.655,0.371-0.898
					c0.248-0.244,0.551-0.366,0.905-0.366c0.357,0,0.662,0.123,0.916,0.367c0.252,0.244,0.378,0.543,0.378,0.897
					c0,0.344-0.126,0.639-0.376,0.885C-204.706,338.196-205.011,338.32-205.372,338.32z M-204.478,351.081l-1.953-0.014
					l-0.041-10.323l2.006-0.012L-204.478,351.081z"/>
				<path fill="#00ADEF" d="
					M-193.256,351.093h-1.988v-5.759c0-2.031-0.648-3.188-2.19-3.172c-0.742,0-1.43,0.301-1.924,0.871
					c-0.607,0.698-0.72,1.08-0.726,2.301l-0.025,5.759l-2.014-0.018l0.008-10.321l1.98-0.008l0.016,2.344l-0.287-0.268
					c0.759-1.329,1.783-2.34,3.597-2.34c1.182,0,2.054,0.321,2.683,1.086c0.625,0.765,0.854,1.949,0.854,3.349L-193.256,351.093z"/>
				<path fill="#00ADEF" d="
					M-181.649,351.262h-2.075v-1.729h0.317c-0.754,1.312-1.965,1.967-3.629,1.967c-1.354,0-2.431-0.478-3.231-1.43
					c-0.8-0.954-1.201-2.238-1.201-3.856c0-1.727,0.442-3.122,1.327-4.178c0.883-1.056,2.067-1.585,3.554-1.585
					c1.485,0,2.545,0.551,3.181,1.65h-0.317v-6.295h2.075V351.262z M-183.724,346.461v-1.498c0-0.767-0.251-1.416-0.755-1.943
					c-0.503-0.529-1.137-0.792-1.899-0.792c-0.917,0-1.643,0.34-2.176,1.022c-0.532,0.683-0.8,1.644-0.8,2.885
					c0,1.129,0.255,2.012,0.763,2.642c0.51,0.633,1.186,0.947,2.033,0.947c0.836,0,1.517-0.305,2.044-0.916
					C-183.987,348.199-183.724,347.415-183.724,346.461z"/>
				<path fill="#00ADEF" d="
					M-174.893,351.402c-1.571,0-2.824-0.491-3.761-1.477c-0.938-0.987-1.406-2.283-1.406-3.893c0-1.744,0.488-3.115,1.462-4.112
					c0.975-0.995,2.289-1.493,3.944-1.493c1.584,0,2.822,0.483,3.712,1.455c0.891,0.97,1.335,2.301,1.335,3.992
					c0,1.66-0.478,2.995-1.436,4.008C-172,350.895-173.283,351.402-174.893,351.402L-174.893,351.402z M-174.773,342.192
					c-0.974,0-1.747,0.331-2.317,0.993c-0.57,0.661-0.855,1.591-0.855,2.789c0,1.152,0.287,2.051,0.863,2.698
					c0.574,0.645,1.346,0.966,2.31,0.966c0.977,0,1.732-0.314,2.261-0.948c0.529-0.631,0.793-1.55,0.793-2.755
					c0-1.216-0.266-2.144-0.795-2.783C-173.042,342.511-173.796,342.192-174.773,342.192L-174.773,342.192z"/>
				<path fill="#00ADEF" d="
					M-154.224,340.715l-3.038,10.368l-2.146,0.014l-2.181-8.026l0.01,0.012l-2.432,8.008h-2.016l-3.199-10.376h2.147l2.204,8.427
					l-0.057,0.085l2.462-8.512h1.873l2.371,8.739l-0.068-0.259l2.018-8.48H-154.224z"/>

					<path fill="#00ADEF" d="
					M-153.484,350.81v-2.067c0.965,0.655,1.897,0.981,2.802,0.981c1.14,0,1.71-0.409,1.71-1.227c0-0.234-0.048-0.431-0.142-0.592
					c-0.093-0.162-0.225-0.31-0.392-0.439c-0.167-0.134-0.38-0.257-0.638-0.377c-0.258-0.118-0.515-0.234-0.772-0.349
					c-0.415-0.185-0.779-0.371-1.094-0.561c-0.314-0.188-0.58-0.404-0.799-0.65c-0.218-0.244-0.381-0.523-0.493-0.838
					c-0.11-0.315-0.167-0.681-0.167-1.098c0-0.515,0.104-0.967,0.313-1.359c0.208-0.393,0.483-0.722,0.83-0.987
					c0.344-0.264,0.737-0.464,1.176-0.596c0.438-0.134,0.885-0.201,1.342-0.201c0.81,0,1.577,0.179,2.299,0.537v1.973
					c-0.842-0.488-1.674-0.733-2.494-0.733c-0.248,0-0.472,0.031-0.666,0.094c-0.197,0.063-0.364,0.149-0.5,0.26
					c-0.138,0.11-0.24,0.238-0.311,0.383c-0.073,0.146-0.108,0.311-0.108,0.488c0,0.238,0.037,0.431,0.108,0.582
					c0.072,0.152,0.183,0.287,0.33,0.413c0.149,0.126,0.335,0.242,0.559,0.348c0.223,0.106,0.484,0.226,0.783,0.358
					c0.429,0.185,0.802,0.37,1.121,0.553c0.32,0.183,0.6,0.397,0.839,0.642c0.24,0.243,0.425,0.528,0.557,0.854
					c0.132,0.324,0.197,0.704,0.197,1.139c0,0.532-0.106,1.001-0.321,1.403c-0.214,0.403-0.497,0.734-0.845,0.993
					c-0.353,0.262-0.75,0.453-1.198,0.577c-0.444,0.123-0.914,0.187-1.408,0.187C-151.836,351.5-152.707,351.27-153.484,350.81z"/>

					<path fill="#00ADEF" d="
					M-140.718,347.087c0-0.403,0.063-0.799,0.187-1.194c0.122-0.393,0.299-0.763,0.533-1.111c0.231-0.346,0.521-0.663,0.865-0.948
					c0.346-0.287,0.694-0.462,1.046-0.531c-0.578-0.226-1.058-0.622-1.441-1.19c-0.382-0.566-0.572-1.2-0.572-1.896
					c0-0.551,0.104-1.06,0.318-1.528c0.213-0.468,0.506-0.871,0.884-1.213c0.377-0.342,0.823-0.61,1.347-0.803
					c0.521-0.193,1.08-0.291,1.674-0.291c0.598,0,1.158,0.099,1.682,0.295c0.521,0.198,0.972,0.468,1.347,0.808
					c0.376,0.342,0.669,0.748,0.879,1.217c0.211,0.47,0.315,0.976,0.315,1.515c0,0.694-0.191,1.325-0.574,1.894
					c-0.386,0.568-0.857,0.966-1.42,1.19c0.346,0.069,0.688,0.246,1.026,0.529c0.34,0.283,0.625,0.6,0.859,0.948
					c0.234,0.35,0.413,0.724,0.539,1.119c0.124,0.397,0.185,0.795,0.185,1.19c0,0.645-0.118,1.238-0.354,1.781
					c-0.236,0.543-0.57,1.009-1.002,1.398c-0.429,0.388-0.939,0.688-1.527,0.903c-0.592,0.212-1.243,0.32-1.955,0.32
					c-0.71,0-1.357-0.108-1.943-0.32c-0.586-0.215-1.096-0.516-1.53-0.903c-0.433-0.39-0.769-0.852-1.009-1.395
					C-140.598,348.334-140.718,347.738-140.718,347.087L-140.718,347.087z M-138.506,346.95c0,0.427,0.063,0.806,0.189,1.137
					c0.126,0.332,0.303,0.611,0.528,0.844c0.229,0.229,0.504,0.407,0.826,0.531c0.32,0.123,0.687,0.185,1.094,0.185
					c0.388,0,0.743-0.065,1.065-0.191c0.321-0.127,0.599-0.307,0.828-0.534c0.234-0.232,0.417-0.514,0.551-0.85
					c0.134-0.337,0.203-0.71,0.203-1.121c0-0.372-0.065-0.718-0.193-1.043c-0.126-0.326-0.307-0.611-0.539-0.857
					c-0.233-0.246-0.511-0.438-0.831-0.578c-0.321-0.14-0.683-0.21-1.084-0.21c-0.376,0-0.722,0.067-1.044,0.198
					c-0.321,0.132-0.599,0.315-0.832,0.549c-0.236,0.236-0.421,0.518-0.557,0.848C-138.439,346.184-138.506,346.55-138.506,346.95
					L-138.506,346.95z M-137.998,340.347c0,0.317,0.055,0.608,0.165,0.868c0.112,0.259,0.268,0.49,0.464,0.688
					c0.197,0.199,0.425,0.352,0.677,0.46c0.254,0.11,0.529,0.163,0.824,0.163c0.293,0,0.568-0.055,0.826-0.169
					c0.26-0.112,0.483-0.268,0.677-0.462c0.192-0.197,0.348-0.427,0.464-0.692c0.114-0.265,0.173-0.55,0.173-0.855
					c0-0.32-0.057-0.611-0.167-0.877c-0.112-0.266-0.266-0.494-0.46-0.688c-0.195-0.196-0.423-0.35-0.681-0.46
					c-0.26-0.11-0.537-0.165-0.832-0.165c-0.316,0-0.605,0.057-0.865,0.171c-0.262,0.114-0.486,0.268-0.673,0.462
					c-0.188,0.193-0.334,0.425-0.437,0.69C-137.948,339.747-137.998,340.036-137.998,340.347z"/>
			</g>
		</g>
</svg>
