<svg version="1.1" xmlns="http://www.w3.org/2000/svg" xmlns:xlink="http://www.w3.org/1999/xlink" viewBox="0 0 128 128">
	<path fill-rule="evenodd" clip-rule="evenodd" fill="#494949" d="M64.094,126.224c34.275-0.052,62.021-27.933,62.021-62.325
		c0-33.833-27.618-61.697-60.613-62.286C30.85,0.995,1.894,29.113,1.885,63.21C1.875,98.289,29.497,126.274,64.094,126.224z
		 M63.993,4.63c32.907-0.011,59.126,26.725,59.116,60.28c-0.011,31.679-26.925,58.18-59.092,58.187
		C31.246,123.104,4.892,96.534,4.893,63.489C4.895,31.296,31.659,4.641,63.993,4.63z"/>
	<path fill-rule="evenodd" clip-rule="evenodd" fill="#494949" d="M39.157,35.896c0.538,1.793-0.968,2.417-2.569,2.542
		c-1.685,0.13-3.369,0.257-5.325,0.406c6.456,19.234,12.815,38.183,19.325,57.573c0.464-0.759,0.655-0.973,0.739-1.223
		c3.574-10.682,7.168-21.357,10.651-32.069c0.318-0.977,0.16-2.271-0.188-3.275c-1.843-5.32-4.051-10.524-5.667-15.908
		c-1.105-3.686-2.571-6.071-6.928-5.644c-0.742,0.073-1.648-1.524-2.479-2.349c1.005-0.6,2.003-1.704,3.017-1.719
		c8.872-0.135,17.747-0.135,26.618,0.008c1.018,0.017,2.016,1.15,3.021,1.765c-0.88,0.804-1.639,2.01-2.668,2.321
		c-1.651,0.498-3.482,0.404-5.458,0.58c6.463,19.225,12.793,38.057,19.349,57.56c2.931-9.736,5.658-18.676,8.31-27.639
		c2.366-8.001,0.956-15.473-3.322-22.52c-1.286-2.119-2.866-4.175-3.595-6.486c-0.828-2.629-1.516-5.622-1.077-8.259
		c0.745-4.469,4.174-6.688,8.814-7.113C74.333,0.881,34.431,9.317,19.728,34.922c5.66-0.261,11.064-0.604,16.472-0.678
		C37.222,34.231,38.917,35.095,39.157,35.896z"/>
	<path fill-rule="evenodd" clip-rule="evenodd" fill="#494949" d="M49.274,113.867c-0.118,0.345-0.125,0.729-0.218,1.302
		c10.943,3.034,21.675,2.815,32.659-0.886c-5.607-15.359-11.091-30.376-16.78-45.96C59.565,83.934,54.415,98.898,49.274,113.867z"/>
	<path fill-rule="evenodd" clip-rule="evenodd" fill="#494949" d="M40.818,111.789c-8.481-23.265-16.851-46.225-25.281-69.35
		C4.132,64.717,12.808,98.707,40.818,111.789z"/>
	<path fill-rule="evenodd" clip-rule="evenodd" fill="#494949" d="M117.246,67.227c0.802-10.534-2.832-25.119-5.97-27.125
		c-0.35,3.875-0.106,8.186-1.218,12.114c-2.617,9.255-5.817,18.349-8.899,27.468c-3.35,9.912-6.832,19.779-10.257,29.666
		C106.994,99.811,115.837,85.732,117.246,67.227z"/>
</svg>
