<svg version="1.1" xmlns="http://www.w3.org/2000/svg" xmlns:xlink="http://www.w3.org/1999/xlink" viewBox="0 0 128 128">
	<path fill="#0073BB" d="M96.644,1.858c-10.79,0.404-23.907,13.955-19.419,26.595c4.751,12.541,7.795,21.461,8.431,35.452
		c11.403-11.473,21.88-23.929,22.725-38.382C108.658,13.794,103.106,5.151,96.644,1.858z"/>
	<path fill="#0073BB" d="M84.012,66.273c-4.532-6.84-12.758-11.051-15.819-12.343c-1.62,2.895-3.746,6.04-6.516,9.483
		C55.854,70.753,49.982,82.79,51.789,96.9C75.842,94.246,83.353,76.193,84.012,66.273z"/>
	<path fill="#0073BB" d="M42.699,43.311c8.062,2.388,13.709,3.857,19.823,6.078c8.939,3.248,15.957,7.395,21.516,14.551
		c-1.031-12.313-6.103-26.423-14.2-37.429C58.284,10.811,38.277,3.273,19.687,10.63C18.833,21.67,23.556,38.086,42.699,43.311z"/>
			<defs>
				<path id="SVGID_25_" d="M28.528,119.856v-13.829c0-0.24-0.195-0.436-0.435-0.436h-2.002c-0.238,0-0.434,0.196-0.434,0.436
					v13.829c0,0.239,0.195,0.457,0.434,0.457h2.002C28.333,120.313,28.528,120.095,28.528,119.856L28.528,119.856z M17.958,120.271
					v-14.588c-1.123,0.023-2.849,0.756-2.87,2.293v9.989c-0.609,0.087-1.567,0.175-2.089,0.175c-1.87,0-2.327-1.327-2.327-3.112
					v-7.132c-0.117-1.74-2.079-2.247-2.871-2.195v9.327c0,3.394,1.696,5.465,5.198,5.465c0.521,0,1.632-0.153,2.089-0.245v0.178
					c0.443,2.86-3.027,1.781-4.907,1.587c-1.385,0-2.331,1.141-2.582,2.427c0.805,0.261,3.459,0.597,5.3,0.742
					C16.228,125.181,17.958,123.361,17.958,120.271L17.958,120.271z M23.211,119.856v-13.829c0-0.24-0.195-0.436-0.435-0.436h-2.001
					c-0.24,0-0.436,0.196-0.436,0.436v13.829c0,0.239,0.195,0.457,0.436,0.457h2.001C23.016,120.313,23.211,120.095,23.211,119.856
					L23.211,119.856z M21.775,101.693c0.826,0,1.496,0.671,1.496,1.497c0,0.827-0.67,1.496-1.496,1.496s-1.496-0.669-1.496-1.496
					C20.279,102.365,20.949,101.693,21.775,101.693L21.775,101.693z M27.106,101.693c0.826,0,1.496,0.671,1.496,1.497
					c0,0.827-0.67,1.496-1.496,1.496s-1.497-0.669-1.497-1.496C25.609,102.365,26.28,101.693,27.106,101.693L27.106,101.693z"/>
			</defs>
			<use xlink:href="#SVGID_25_"  overflow="visible" fill="#0073BB"/>
			<clipPath id="SVGID_2_">
				<use xlink:href="#SVGID_25_"  overflow="visible"/>
			</clipPath>
		<path fill="#0073BB" d="M37.489,105.079v-0.745c0-0.197-0.109-0.329-0.438-0.372c-0.416-0.066-1.183-0.131-1.973-0.131
			c-2.06,0-3.374,0.7-3.374,3.046v13.145c0,0.242,0.197,0.438,0.439,0.438h1.051c0.241,0,0.438-0.196,0.438-0.438v-10.078h3.418
			c0.24,0,0.416-0.176,0.416-0.394v-0.746c0-0.241-0.176-0.394-0.416-0.394h-3.418v-1.533c0-1.294,0.24-1.491,1.445-1.491h1.95
			C37.336,105.385,37.489,105.276,37.489,105.079L37.489,105.079z"/>
		<path fill="#0073BB" d="M44.486,109.591v-1.007c0-0.306-0.175-0.328-0.459-0.328c-1.819,0-3.331,0.065-4.58,0.613
			c-0.241,0.109-0.395,0.263-0.395,0.503v10.648c0,0.242,0.175,0.438,0.395,0.438h1.14c0.24,0,0.394-0.219,0.394-0.438v-9.859
			c0.833-0.175,1.557-0.219,3.047-0.219C44.442,109.943,44.486,109.833,44.486,109.591L44.486,109.591z"/>
		<path fill="#0073BB" d="M53.959,119.604v-10.341c0-0.307-0.065-0.416-0.46-0.503c-1.161-0.285-2.717-0.503-4.031-0.503
			c-3.287,0-4.776,2.124-4.776,5.411v1.533c0,3.286,1.513,5.415,4.776,5.415c1.336,0,2.87-0.223,4.031-0.507
			C53.894,120.021,53.959,119.889,53.959,119.604L53.959,119.604z M52.03,118.772c-0.612,0.109-1.643,0.219-2.563,0.219
			c-2.169,0-2.849-1.49-2.849-3.791v-1.533c0-2.323,0.68-3.791,2.849-3.791c0.92,0,1.972,0.11,2.563,0.219V118.772L52.03,118.772z"
			/>
		<path fill="#0073BB" d="M69.873,120.021v-7.931c0-2.257-1.271-3.834-3.899-3.834H65.47c-1.314,0-2.191,0.219-2.848,0.788
			c-0.68-0.613-1.534-0.788-2.849-0.788H59.27c-2.63,0-3.9,1.577-3.9,3.834v7.931c0,0.242,0.152,0.438,0.395,0.438h1.14
			c0.24,0,0.394-0.196,0.394-0.438v-7.931c0-1.885,0.833-2.147,1.973-2.147h0.504c1.401,0,1.884,0.241,1.884,1.49v8.588
			c0,0.242,0.153,0.438,0.395,0.438h1.139c0.241,0,0.395-0.196,0.395-0.438v-8.588c0-1.249,0.482-1.49,1.885-1.49h0.504
			c1.16,0,1.972,0.263,1.972,2.147v7.931c0,0.242,0.153,0.438,0.395,0.438h1.14C69.72,120.459,69.873,120.263,69.873,120.021
			L69.873,120.021z"/>
		<path fill="#0073BB" d="M80.573,114.566v-1.183c0-3.112-1.621-5.126-4.82-5.126c-3.133,0-4.864,1.993-4.864,5.126v1.971
			c0,4.076,2.454,5.262,4.974,5.262c1.468,0,2.673-0.131,3.922-0.375c0.351-0.066,0.438-0.219,0.438-0.504v-0.745
			c0-0.219-0.176-0.307-0.351-0.307c-0.044,0-0.065,0-0.109,0c-1.008,0.153-2.629,0.241-3.9,0.241c-2.016,0-3.046-0.964-3.046-3.571
			v-0.306h7.34C80.42,115.048,80.573,114.851,80.573,114.566L80.573,114.566z M78.623,113.58h-5.807v-0.197
			c0-2.366,1.053-3.44,2.937-3.44c1.928,0,2.87,0.964,2.87,3.44V113.58L78.623,113.58z"/>
		<path fill="#0073BB" d="M96.51,115.704v-6.857c0-0.241-0.198-0.438-0.439-0.438h-1.029c-0.241,0-0.438,0.197-0.438,0.438v6.857
			c0,2.39-0.898,3.265-2.695,3.265c-0.549,0-1.117-0.131-1.753-0.285v-9.837c0-0.241-0.197-0.438-0.438-0.438h-1.073
			c-0.241,0-0.438,0.197-0.438,0.438v9.837c-0.635,0.153-1.205,0.285-1.753,0.285c-1.84,0-2.694-0.875-2.694-3.265v-6.857
			c0-0.241-0.197-0.438-0.438-0.438H82.29c-0.241,0-0.438,0.197-0.438,0.438v6.857c0,3.879,2.169,4.912,4.425,4.912
			c1.097,0,1.994-0.199,2.915-0.529c0.92,0.33,1.796,0.529,2.892,0.529C94.34,120.616,96.51,119.583,96.51,115.704L96.51,115.704z"
			/>
		<path fill="#0073BB" d="M107.713,115.267v-1.665c0-3.221-1.666-5.345-4.887-5.345c-3.22,0-4.863,2.124-4.863,5.345v1.665
			c0,3.22,1.644,5.349,4.863,5.349C106.047,120.616,107.713,118.486,107.713,115.267L107.713,115.267z M105.784,115.267
			c0,2.257-0.92,3.659-2.958,3.659c-2.059,0-2.935-1.424-2.935-3.659v-1.665c0-2.257,0.897-3.659,2.935-3.659
			c2.061,0,2.958,1.424,2.958,3.659V115.267L105.784,115.267z"/>
		<path fill="#0073BB" d="M114.6,109.591v-1.007c0-0.306-0.175-0.328-0.459-0.328c-1.819,0-3.331,0.065-4.58,0.613
			c-0.241,0.109-0.395,0.263-0.395,0.503v10.648c0,0.242,0.176,0.438,0.395,0.438h1.14c0.241,0,0.395-0.219,0.395-0.438v-9.859
			c0.833-0.175,1.556-0.219,3.046-0.219C114.557,109.943,114.6,109.833,114.6,109.591L114.6,109.591z"/>
		<path fill="#0073BB" d="M124.401,120.174c0-0.065-0.022-0.153-0.066-0.197l-4.863-5.872l4.82-5.214
			c0.065-0.066,0.109-0.153,0.109-0.241c0-0.131-0.109-0.241-0.328-0.241h-1.534c-0.219,0-0.307,0.044-0.438,0.197l-4.382,4.93
			v-9.115c0-0.241-0.197-0.438-0.438-0.438h-1.053c-0.24,0-0.438,0.197-0.438,0.438v15.6c0,0.242,0.197,0.438,0.438,0.438h1.053
			c0.24,0,0.438-0.196,0.438-0.438v-5.236l4.36,5.389c0.175,0.219,0.263,0.285,0.504,0.285h1.577
			C124.314,120.459,124.401,120.328,124.401,120.174L124.401,120.174z"/>
</svg>
