<svg version="1.1" xmlns="http://www.w3.org/2000/svg" xmlns:xlink="http://www.w3.org/1999/xlink" viewBox="0 0 128 128">
	<path fill-rule="evenodd" clip-rule="evenodd" fill="#0073BB" d="M107.131,1.228c-14.253,0.534-31.578,18.435-25.65,35.13
		c6.275,16.565,10.296,28.348,11.137,46.83c15.062-15.155,28.901-31.609,30.018-50.7C123.002,16.995,115.669,5.577,107.131,1.228z"
		/>
	<path fill-rule="evenodd" clip-rule="evenodd" fill="#0073BB" d="M69.549,70.012c-2.139,3.823-4.946,7.978-8.606,12.528
		c-7.691,9.693-15.446,25.593-13.061,44.232c31.771-3.506,41.693-27.353,42.563-40.457C84.458,77.281,73.595,71.719,69.549,70.012z"
		/>
	<path fill-rule="evenodd" clip-rule="evenodd" fill="#0073BB" d="M5.477,12.815c-1.128,14.583,5.11,36.267,30.397,43.169
		c10.648,3.153,18.109,5.096,26.186,8.028c11.809,4.291,21.078,9.768,28.422,19.221c-1.363-16.265-8.062-34.902-18.759-49.441
		C56.462,13.052,30.034,3.097,5.477,12.815z"/>
</svg>
