<svg version="1.1" xmlns="http://www.w3.org/2000/svg" xmlns:xlink="http://www.w3.org/1999/xlink" viewBox="0 0 128 128">
	<path fill-rule="evenodd" clip-rule="evenodd" fill="#68B604" d="M53.607,57.793C45.36,57.821,37.113,58,28.866,58
		c-0.316,0-0.631,0-1.186,0c11.396-16,22.632-31.211,33.949-46.722c-0.384-0.026-0.569-0.144-0.754-0.144
		c-17.851-0.002-35.701-0.046-53.552-0.06c-0.627,0-0.842,0.137-0.836,0.798c0.031,3.689,0.015,7.367,0.015,11.057
		c0,1.052,0.001,1.047,1.067,1.047c9.034,0.001,18.068-0.003,27.102,0.001c0.355,0,0.711,0.046,1.256,0.086
		C24.486,39.673,13.17,55.113,1.781,70.651c0.318,0.02,0.451,0.033,0.584,0.033c17.146,0.001,34.291-0.003,51.436,0.017
		c0.701,0.001,0.794-0.281,0.791-0.866c-0.018-3.744-0.03-7.393,0.009-11.136C54.608,57.92,54.395,57.791,53.607,57.793z"/>
	<path fill-rule="evenodd" clip-rule="evenodd" fill="#68B604" d="M60.364,27.487C60.391,28.197,60.806,28,61.233,28
		c8.276,0,16.552,0,24.828,0c4.178,0,8.357,0.116,12.536,0.091c4.555-0.027,9.12,0.124,13.662-0.146
		c4.703-0.279,8.459-2.475,11.051-6.493c1.743-2.702,2.514-5.711,2.896-8.863c0.104-0.861-0.447-0.742-0.963-0.742
		c-16.172,0.001-32.344-0.018-48.517,0.034c-1.793,0.006-3.633,0.191-5.37,0.638C65.114,14.121,60.12,21.01,60.364,27.487z"/>
	<path fill-rule="evenodd" clip-rule="evenodd" fill="#68B604" d="M76,32.988c-2.638,0.003-5.18,0.517-7.503,1.791
		c-5.405,2.962-7.481,7.921-8.119,13.723c-0.084,0.766,0.38,0.745,0.905,0.744c4.312-0.007,8.623-0.004,12.935-0.004
		c1.464,0,2.929,0.021,4.393-0.004c3.222-0.054,6.464,0.069,9.661-0.248c4.157-0.412,7.536-2.437,9.939-5.917
		c1.889-2.735,2.833-5.812,3.162-9.103c0.096-0.965,0.135-0.985-0.804-0.986C92.379,32.983,84.189,32.978,76,32.988z"/>
	<path fill-rule="evenodd" clip-rule="evenodd" fill="#68B604" d="M84.882,54.699c-0.004-0.574-0.228-0.675-0.722-0.672
		c-2.494,0.016-4.989-0.023-7.482,0.021c-1.157,0.021-2.323,0.12-3.466,0.299c-8.958,1.396-12.3,8.892-12.836,15.287
		c-0.048,0.573,0.158,0.762,0.729,0.75c1.491-0.03,2.982-0.011,4.473-0.011c0.001,0.027,0.002,0.055,0.003,0.083
		c2.027-0.09,4.073-0.036,6.079-0.295C79.191,69.19,84.94,62.397,84.882,54.699z"/>
	<path fill-rule="evenodd" clip-rule="evenodd" fill="#68B604" d="M33.72,103.333c-0.092-0.279-0.233-0.37-0.512-0.366
		c-0.938,0.012-1.875,0.018-2.813-0.003c-0.342-0.007-0.488,0.115-0.595,0.44c-1.208,3.696-2.433,7.387-3.655,11.077
		c-0.199,0.6-0.408,1.195-0.649,1.9c-1.469-1.895-2.866-3.696-4.28-5.52c0.135-0.092,0.216-0.154,0.303-0.206
		c1.25-0.733,2.08-1.759,2.238-3.243c0.197-1.842-0.329-3.343-2.345-4.108c-0.503-0.19-1.07-0.283-1.61-0.295
		c-2.008-0.042-4.018-0.025-6.026-0.043c-0.329-0.003-0.471,0.07-0.47,0.445c0.013,4.286,0.012,8.572,0.001,12.858
		c-0.001,0.349,0.125,0.426,0.444,0.418c0.788-0.019,1.578-0.025,2.366,0.003c0.399,0.014,0.542-0.085,0.534-0.514
		c-0.028-1.368-0.014-2.738-0.004-4.107c0.001-0.146,0.038-0.358,0.136-0.424c0.319-0.214,1.154,0.007,1.393,0.327
		c1.083,1.457,2.16,2.918,3.259,4.362c0.124,0.164,0.37,0.33,0.562,0.332c2.128,0.023,4.256,0.009,6.384,0.021
		c0.287,0.002,0.39-0.114,0.458-0.363c0.19-0.686,0.409-1.364,0.598-2.051c0.083-0.306,0.24-0.431,0.566-0.426
		c1.161,0.015,2.322,0.014,3.482,0c0.333-0.005,0.469,0.134,0.552,0.44c0.186,0.688,0.395,1.369,0.621,2.044
		c0.046,0.137,0.208,0.33,0.321,0.333c1.024,0.025,2.048,0.015,3.109,0.015c-0.025-0.136-0.031-0.236-0.062-0.329
		C36.588,112.014,35.148,107.675,33.72,103.333z M19.286,108.962c-0.771,0.211-1.606,0.199-2.415,0.254
		c-0.069,0.005-0.215-0.218-0.221-0.34c-0.024-0.535-0.01-1.07-0.01-1.606c0-0.505,0.006-1.012-0.003-1.517
		c-0.004-0.228,0.052-0.387,0.313-0.376c0.696,0.027,1.401,0.004,2.086,0.106c0.817,0.122,1.257,0.647,1.324,1.399
		C20.453,107.906,20.106,108.737,19.286,108.962z M30.304,111c0.467-1,0.915-2.811,1.362-4.287c0.045-0.002,0.091-0.105,0.137-0.106
		c0.449,1.477,0.898,3.394,1.368,4.394C32.19,111,31.287,111,30.304,111z"/>
	<path fill-rule="evenodd" clip-rule="evenodd" fill="#68B604" d="M84.599,102.97c-0.818,0.006-1.638,0.024-2.455-0.009
		c-0.39-0.016-0.512,0.152-0.582,0.491c-0.478,2.308-0.966,4.613-1.454,6.92c-0.12,0.566-0.25,1.131-0.376,1.695
		c-0.145-0.146-0.189-0.283-0.222-0.424c-0.648-2.757-1.301-5.513-1.933-8.273c-0.073-0.32-0.215-0.407-0.514-0.402
		c-0.803,0.012-1.608,0.023-2.411-0.006c-0.372-0.013-0.521,0.128-0.604,0.475c-0.533,2.235-1.081,4.468-1.628,6.7
		c-0.155,0.633-0.324,1.263-0.486,1.894c-0.043-0.002-0.087-0.004-0.131-0.006c-0.106-0.498-0.219-0.995-0.319-1.495
		c-0.482-2.397-0.957-4.796-1.45-7.191c-0.028-0.136-0.199-0.343-0.307-0.346c-1.037-0.027-2.075-0.016-3.142-0.016
		c0.021,0.17,0.022,0.287,0.049,0.398c1.07,4.317,2.144,8.635,3.212,12.954c0.063,0.253,0.174,0.366,0.457,0.36
		c0.937-0.018,1.875-0.027,2.812,0.004c0.373,0.012,0.515-0.11,0.6-0.464c0.528-2.206,1.076-4.408,1.62-6.61
		c0.109-0.441,0.233-0.878,0.351-1.317c0.037,0.006,0.074,0.011,0.111,0.016c0.04,0.126,0.084,0.249,0.117,0.377
		c0.647,2.513,1.3,5.024,1.929,7.543c0.084,0.338,0.208,0.463,0.562,0.453c0.922-0.023,1.846-0.021,2.768,0
		c0.324,0.008,0.467-0.091,0.547-0.413c1.057-4.307,2.124-8.61,3.2-12.912C85,103.037,84.884,102.968,84.599,102.97z"/>
	<path fill-rule="evenodd" clip-rule="evenodd" fill="#68B604" d="M53.288,103.43c0-0.347-0.108-0.472-0.461-0.465
		c-0.967,0.019-1.935,0.02-2.902-0.001c-0.347-0.007-0.528,0.101-0.669,0.432c-0.775,1.817-1.577,3.624-2.371,5.434
		c-0.124,0.282-0.259,0.56-0.428,0.924c-0.121-0.237-0.206-0.389-0.276-0.546c-0.857-1.944-1.718-3.887-2.562-5.837
		c-0.124-0.286-0.273-0.411-0.594-0.405c-0.997,0.018-1.994,0.015-2.991,0.002c-0.325-0.005-0.474,0.064-0.473,0.443
		c0.013,4.285,0.012,8.572,0.001,12.859c-0.001,0.347,0.122,0.428,0.442,0.419c0.729-0.019,1.459-0.026,2.188,0.003
		c0.401,0.017,0.677-0.09,0.674-0.516c-0.021-2.664,0.132-5.328,0.132-7.992c0-0.154,0-0.308,0-0.461
		c0,0.135,0.117,0.285,0.182,0.443c0.663,1.59,1.263,3.177,1.905,4.776c0.146,0.364,0.304,0.502,0.691,0.473
		c0.444-0.033,0.876-0.023,1.322-0.002c0.3,0.014,0.445-0.101,0.556-0.378c0.397-0.993,0.813-1.977,1.225-2.964
		c0.331-0.792,0.652-1.584,0.984-2.376c0.048,0.008,0.136,0.015,0.136,0.022c0,0.156,0,0.313,0,0.469c0,2.664,0.015,5.328,0,7.992
		c-0.002,0.376,0.078,0.531,0.492,0.514c0.772-0.033,1.549-0.025,2.323-0.002c0.343,0.01,0.474-0.083,0.473-0.445
		C53.278,111.974,53.279,107.701,53.288,103.43z"/>
	<path fill-rule="evenodd" clip-rule="evenodd" fill="#68B604" d="M109.094,110.783c0.033-0.029,0.07-0.055,0.108-0.076
		c1.376-0.771,2.22-1.893,2.347-3.505c0.12-1.526-0.316-2.795-1.744-3.623c-0.686-0.397-1.442-0.563-2.218-0.575
		c-2.008-0.03-4.017-0.02-6.025-0.037c-0.33-0.004-0.47,0.074-0.469,0.446c0.013,4.285,0.012,8.57,0.001,12.855
		c0,0.345,0.12,0.428,0.441,0.42c0.803-0.019,1.608-0.028,2.41,0.004c0.411,0.017,0.496-0.131,0.49-0.511
		c-0.021-1.384-0.011-2.768-0.002-4.151c0-0.133,0.033-0.325,0.122-0.387c0.291-0.202,1.149,0.008,1.366,0.299
		c1.083,1.456,2.169,2.909,3.243,4.372c0.192,0.262,0.391,0.387,0.735,0.378c1.026-0.026,2.053-0.009,3.08-0.01
		c0.138-0.001,0.277-0.016,0.494-0.027c-1.525-1.971-2.997-3.871-4.459-5.76C109.059,110.83,109.072,110.802,109.094,110.783z
		 M106.55,109.142c-0.572,0.069-1.154,0.062-1.73,0.102c-0.321,0.022-0.408-0.123-0.397-0.421c0.018-0.504,0.005-1.01,0.005-1.515
		c0-0.535-0.014-1.07,0.012-1.604c0.006-0.112,0.164-0.312,0.25-0.311c0.71,0.005,1.431-0.021,2.126,0.095
		c0.952,0.16,1.378,0.805,1.332,1.804C108.102,108.28,107.478,109.028,106.55,109.142z"/>
	<path fill-rule="evenodd" clip-rule="evenodd" fill="#68B604" d="M94.664,102.962c-1.035-0.308-2.092-0.373-3.171-0.242
		c-1.455,0.177-2.72,0.72-3.72,1.811c-1.37,1.495-1.763,3.321-1.828,5.281c0.081,0.691,0.109,1.394,0.252,2.071
		c0.457,2.169,1.59,3.823,3.725,4.659c0.972,0.381,1.99,0.436,3.022,0.416c2.535-0.047,4.646-1.5,5.506-3.882
		c0.757-2.096,0.762-4.235,0.064-6.338C97.89,104.848,96.609,103.538,94.664,102.962z M94.954,112.856
		c-0.523,0.982-1.298,1.563-2.442,1.574c-1.167,0.012-1.998-0.561-2.47-1.583c-0.275-0.596-0.476-1.255-0.555-1.904
		c-0.166-1.364-0.124-2.731,0.472-4.015c0.386-0.831,0.962-1.466,1.899-1.668c1.288-0.278,2.428,0.254,3.06,1.433
		c0.533,0.996,0.679,2.077,0.644,3.19C95.589,110.922,95.451,111.923,94.954,112.856z"/>
	<path fill-rule="evenodd" clip-rule="evenodd" fill="#68B604" d="M125.93,116.062c-1.438-2.115-2.871-4.234-4.323-6.34
		c-0.203-0.295-0.21-0.491,0.009-0.778c1.363-1.785,2.707-3.585,4.058-5.379c0.129-0.173,0.26-0.345,0.442-0.587
		c-1.285,0-2.472-0.01-3.658,0.015c-0.133,0.002-0.294,0.177-0.389,0.31c-1.003,1.404-1.995,2.816-2.991,4.225
		c-0.341,0.483-0.641,0.966-0.983,1.448c-0.046-0.013-0.096-0.025-0.096-0.039c0-0.157,0-0.314,0-0.473c0-1.667-0.055-3.334-0.033-5
		c0.005-0.403-0.149-0.512-0.532-0.499c-0.758,0.024-1.528,0.028-2.287-0.002c-0.418-0.016-0.565,0.098-0.563,0.542
		c0.017,4.226,0.012,8.452,0,12.679c-0.001,0.38,0.079,0.527,0.489,0.51c0.772-0.032,1.547-0.03,2.319-0.001
		c0.399,0.015,0.545-0.086,0.534-0.514c-0.03-1.146,0.032-2.294-0.026-3.437c-0.035-0.689,0.287-1.146,0.731-1.643
		c0.104,0.136,0.198,0.244,0.276,0.363c1.015,1.539,2.045,3.069,3.03,4.628c0.278,0.438,0.565,0.632,1.101,0.607
		c1.063-0.049,2.131-0.015,3.292-0.015C126.165,116.425,126.052,116.241,125.93,116.062z"/>
	<path fill-rule="evenodd" clip-rule="evenodd" fill="#68B604" d="M64.809,102.964c-2.708,0.014-5.416,0.016-8.124-0.002
		c-0.429-0.003-0.514,0.149-0.511,0.543c0.017,2.113,0.008,4.226,0.008,6.338c0,2.129,0.001,4.256-0.001,6.384
		c0,0.248-0.028,0.464,0.349,0.462c2.812-0.012,5.624-0.009,8.436-0.001c0.287,0,0.353-0.119,0.348-0.376
		c-0.012-0.565-0.027-1.132,0.004-1.695c0.021-0.387-0.128-0.474-0.486-0.47c-1.622,0.016-3.243-0.001-4.865,0.013
		c-0.344,0.003-0.475-0.099-0.465-0.458c0.022-0.893,0.025-1.786-0.001-2.679c-0.012-0.389,0.101-0.514,0.5-0.507
		c1.458,0.022,2.916-0.001,4.374,0.015c0.336,0.004,0.446-0.108,0.434-0.437c-0.02-0.55-0.022-1.102,0-1.651
		c0.015-0.354-0.115-0.456-0.465-0.451c-1.413,0.017-2.581,0.007-3.995,0.007c-0.594,0-0.349-0.001-0.349-0.573
		c0-0.446,0-0.893,0-1.339c0-0.624-0.245-0.626,0.402-0.626c1.562-0.001,3.001-0.011,4.563,0.006
		c0.375,0.005,0.434-0.119,0.414-0.487c-0.028-0.504-0.064-1.013-0.03-1.517C65.376,103.056,65.188,102.962,64.809,102.964z"/>
	<path fill-rule="evenodd" clip-rule="evenodd" fill="#68B604" d="M11.491,103.452c0.018-0.368-0.113-0.489-0.484-0.487
		c-2.679,0.012-5.357,0.013-8.036-0.001c-0.379-0.002-0.474,0.129-0.471,0.49c0.015,2.128,0.007,4.257,0.007,6.385
		c0,2.114,0.008,4.228-0.008,6.341c-0.003,0.376,0.074,0.53,0.488,0.513c0.787-0.032,1.578-0.032,2.366,0
		c0.413,0.018,0.493-0.135,0.489-0.513c-0.019-1.666,0.001-3.333-0.015-5c-0.003-0.365,0.101-0.49,0.476-0.485
		c1.429,0.02,2.857-0.004,4.286,0.017c0.362,0.005,0.469-0.12,0.456-0.462c-0.02-0.535-0.025-1.072,0.002-1.606
		c0.019-0.379-0.127-0.478-0.49-0.473c-1.414,0.018-2.828-0.003-4.241,0.014c-0.359,0.004-0.509-0.088-0.489-0.472
		c0.029-0.549,0.007-1.102,0.007-1.651c0-0.597,0.001-0.6,0.583-0.601c1.518-0.002,3.036-0.01,4.554,0.006
		c0.375,0.004,0.547-0.086,0.521-0.497C11.462,104.465,11.467,103.957,11.491,103.452z"/>
	<path fill-rule="evenodd" clip-rule="evenodd" fill="#68B604" d="M31.398,95.384c-0.038,0.005-0.077,0.009-0.116,0.014
		c-0.082-0.153-0.168-0.305-0.246-0.46c-1.646-3.299-3.293-6.596-4.928-9.899c-0.159-0.321-0.339-0.472-0.712-0.444
		c-0.489,0.036-0.983,0.033-1.473,0.001c-0.406-0.027-0.53,0.096-0.529,0.517c0.017,4.033,0.01,8.067,0.01,12.1
		c0,1.118,0,1.102,1.139,1.113c0.401,0.004,0.481-0.131,0.479-0.515C25.01,94.268,25,90.726,25,87.183c0-0.176,0-0.352,0-0.527
		c0-0.01,0.087-0.019,0.122-0.028c0.065,0.109,0.144,0.216,0.2,0.33c1.705,3.385,3.453,6.752,5.091,10.169
		c0.441,0.92,0.926,1.367,1.966,1.205C32.98,98.237,33,98.313,33,97.713c0-4.019,0-8.037,0-12.055c0-1.06-0.005-1.038-1.05-1.066
		c-0.422-0.011-0.525,0.126-0.523,0.528c0.015,3.26,0.008,6.519,0.006,9.778C31.433,95.061,31.41,95.223,31.398,95.384z"/>
	<path fill-rule="evenodd" clip-rule="evenodd" fill="#68B604" d="M35.876,97.841c0,0.286,0.027,0.488,0.399,0.478
		c1.59-0.047,3.187,0.001,4.768-0.133c1.909-0.161,3.384-1.133,4.374-2.791c1.032-1.729,1.209-3.604,0.878-5.549
		c-0.49-2.88-2.513-4.929-5.745-5.146c-1.378-0.094-2.765-0.055-4.146-0.106c-0.41-0.014-0.537,0.108-0.533,0.521
		c0.018,2.114,0.008,4.227,0.009,6.341C35.88,93.584,35.882,95.712,35.876,97.841z M37.629,86.359c0-0.056,0.019-0.112,0.038-0.212
		c1.355,0.009,2.706-0.135,4.011,0.36c1.698,0.646,2.592,1.922,2.877,3.664c0.187,1.141,0.147,2.281-0.172,3.399
		c-0.499,1.75-1.993,3.008-3.803,3.163c-0.857,0.073-1.721,0.065-2.582,0.102c-0.25,0.011-0.379-0.051-0.378-0.341
		C37.628,93.117,37.626,89.737,37.629,86.359z"/>
	<path fill-rule="evenodd" clip-rule="evenodd" fill="#68B604" d="M20.336,98.312c1.113-0.003,0.941,0.16,0.982-0.964
		c0.017-0.441-0.142-0.552-0.562-0.548c-1.86,0.02-3.72,0.001-5.58,0.015c-0.375,0.003-0.521-0.093-0.514-0.501
		c0.024-1.427,0.009-2.856,0.011-4.284c0-0.13,0.016-0.054,0.026-0.214C14.883,91.808,15.042,92,15.202,92c1.547,0,3.095,0,4.643,0
		c1.03,0,1.015-0.207,1.026-1.252c0.004-0.381-0.099-0.618-0.501-0.613c-1.755,0.021-3.511-0.049-5.267-0.038
		c-0.323,0.002-0.445-0.118-0.438-0.458c0.02-0.996,0.022-2.006-0.001-3.003c-0.008-0.373,0.114-0.489,0.481-0.486
		c1.696,0.017,3.393,0.003,5.089,0.003c1.094,0,1.079-0.001,1.083-1.08c0.001-0.375-0.122-0.479-0.488-0.476
		c-2.455,0.014-4.91,0.015-7.365-0.004c-0.408-0.003-0.529,0.106-0.527,0.521c0.015,4.226,0.014,8.451,0,12.678
		c-0.001,0.407,0.112,0.535,0.524,0.531C15.753,98.306,18.044,98.32,20.336,98.312z"/>
	<path fill-rule="evenodd" clip-rule="evenodd" fill="#68B604" d="M10.03,98.314c0.997,0,0.976-0.001,1-0.987
		c0.01-0.419-0.129-0.529-0.532-0.526c-2.114,0.017-4.227,0.009-6.341,0.005c-0.178,0-0.355-0.039-0.597-0.067
		c0.129-0.199,0.206-0.323,0.289-0.443c2.114-3.042,4.212-6.096,6.357-9.114c0.465-0.655,0.708-1.294,0.652-2.096
		c-0.028-0.397-0.134-0.493-0.518-0.491C7.9,84.61,5.459,84.603,3.018,84.603c-1.052,0-1.034,0-1.056,1.053
		c-0.008,0.394,0.105,0.433,0.5,0.429c1.95-0.02,3.9-0.084,5.85-0.084c0.169,0,0.339,0,0.62,0c-0.145,0-0.219,0.453-0.307,0.58
		c-2.101,3.033-4.188,6.112-6.315,9.126c-0.442,0.627-0.677,1.258-0.635,2.029c0.024,0.454,0.143,0.583,0.587,0.579
		C4.85,98.295,7.44,98.314,10.03,98.314z"/>
</svg>
