<!-- Created with Inkscape (http://www.inkscape.org/) -->
<svg id="svg3303" xmlns:rdf="http://www.w3.org/1999/02/22-rdf-syntax-ns#" xmlns="http://www.w3.org/2000/svg" viewBox="0 0 97.05 100" version="1.1" xmlns:cc="http://creativecommons.org/ns#" xmlns:dc="http://purl.org/dc/elements/1.1/">
 <defs id="defs3305"></defs>
 <metadata id="metadata3308">
  <rdf:RDF>
   <cc:Work rdf:about="">
    <dc:format>image/svg+xml</dc:format>
    <dc:type rdf:resource="http://purl.org/dc/dcmitype/StillImage"/>
    <dc:title/>
   </cc:Work>
  </rdf:RDF>
 </metadata>
 <g id="layer1" fill-rule="evenodd" transform="translate(-314.545,-346.23943)" fill="#000">
  <path id="path4130" style="enable-background:accumulate;" d="m368.71,368.4c-3.4098,0-6.4395,1.2659-8.8738,3.725-2.4331,2.4578-3.7106,5.5261-3.7106,8.9888v17.503h7.939v-17.503c0-1.3272,0.43306-2.365,1.3807-3.3222,0.95075-0.9603,1.9575-1.395,3.2648-1.395,1.3346,0,2.3263,0.43255,3.2791,1.395,0.94764,0.95726,1.3807,1.995,1.3807,3.3222v17.503h7.939v-17.503c0-1.3272,0.43307-2.365,1.3807-3.3222,0.9528-0.96249,1.9445-1.395,3.2792-1.395,1.3072,0,2.314,0.43474,3.2647,1.395,0.94764,0.95726,1.3807,1.995,1.3807,3.3222l0.0431,20.452c0,4.3627-4.1547,8.0396-9.4922,8.0396l-25.6-0.10065c-4.119,0-7.637-4.0092-7.637-9.1615v-38.513h-7.5075v39.995c0,4.2434,1.5528,7.9646,4.5735,10.974,2.5819,2.5485,5.687,4.2005,9.1758,4.5736l28.505-0.00006c4.3803,0,8.2286-1.6287,11.333-4.7894h0.0144c2.6404-2.7128,4.184-5.9633,4.5591-9.6216l-0.0287-21.847c0-3.4627-1.2775-6.531-3.7106-8.9888-2.4343-2.4591-5.464-3.725-8.8738-3.725-3.347,0-6.2756,1.2446-8.6437,3.5236-2.3612-2.2753-5.2693-3.5236-8.6149-3.5236z"/>
  <path id="path6141" style="enable-background:accumulate;" d="m359.71,433.24c-18.046,0-33.706-13.68-33.706-31.71l-0.0162-21.892v-5.5824h-11.441v-27.815l48.247,0.22721,15.092,0.0324c18.062,0,33.706,13.664,33.706,31.71v55.03h-51.882zm44.53-14.762v-40.268c0-13.453-11.798-24.359-26.355-24.359h-15.109v-0.0325l-40.863-0.17855v13.064h4.5774c3.1077,0,6.8472,2.9204,6.8472,7.2061l0.0325,27.604c0,13.453,11.798,24.359,26.339,24.359h35.901c4.6025,0,8.6299-2.9147,8.6299-7.3942z"/>
 </g>
</svg>
