<?xml version="1.0" encoding="UTF-8" standalone="no"?>
<svg
   width="128"
   height="128"
   viewBox="0 0 128 128"
   version="1.1"
   id="svg1"
   sodipodi:docname="Yacc.svg"
   inkscape:version="1.3.2 (091e20e, 2023-11-25, custom)"
   xmlns:inkscape="http://www.inkscape.org/namespaces/inkscape"
   xmlns:sodipodi="http://sodipodi.sourceforge.net/DTD/sodipodi-0.dtd"
   xmlns="http://www.w3.org/2000/svg"
   xmlns:svg="http://www.w3.org/2000/svg"
   xmlns:rdf="http://www.w3.org/1999/02/22-rdf-syntax-ns#"
   xmlns:cc="http://creativecommons.org/ns#"
   xmlns:dc="http://purl.org/dc/elements/1.1/">
  <defs
     id="defs1" />
  <sodipodi:namedview
     id="namedview1"
     pagecolor="#ffffff"
     bordercolor="#111111"
     borderopacity="1"
     inkscape:showpageshadow="0"
     inkscape:pageopacity="0"
     inkscape:pagecheckerboard="1"
     inkscape:deskcolor="#d1d1d1"
     inkscape:zoom="4.2592135"
     inkscape:cx="74.074709"
     inkscape:cy="64.683303"
     inkscape:window-width="1920"
     inkscape:window-height="1009"
     inkscape:window-x="-8"
     inkscape:window-y="-8"
     inkscape:window-maximized="1"
     inkscape:current-layer="svg1" />
  <title
     id="title1">file_type_yacc</title>
  <path
     d="m 121.13518,57.457753 c -3.36869,-1.284399 -6.85622,-2.225987 -10.30719,-3.199571 -0.96901,-0.274249 -2.58708,-0.127983 -2.74249,-0.914163 -0.1874,-0.914163 1.26612,-1.554077 2.02487,-2.285408 A 41.237902,41.237902 0 0 0 120.32615,37.076485 17.245689,17.245689 0 0 0 117.9676,18.89835 35.195283,35.195283 0 0 0 106.99765,10.003542 110.64117,110.64117 0 0 0 80.774879,0.11686616 c -0.315386,-0.086845 -0.685622,-0.2788198 -1.074141,0.2605365 0.457081,0.3153863 0.882167,0.63991434 1.334678,0.94615894 2.765344,1.8831762 5.585537,3.6840778 8.286889,5.6540995 a 55.416573,55.416573 0 0 1 13.680445,13.0313969 13.255366,13.255366 0 0 1 2.34026,5.484979 8.7211169,8.7211169 0 0 1 -3.65665,8.492576 42.883396,42.883396 0 0 1 -13.931845,6.444851 c -0.84103,0.27882 -1.23412,-0.196545 -1.613498,-0.790751 a 5.3707088,5.3707088 0 0 0 -4.666803,-2.545945 c -2.207704,-0.0777 -4.415408,-0.324528 -6.623112,-0.333669 q -11.42704,-0.06399 -22.85408,0.02285 c -2.203133,0 -4.410838,0.28339 -6.613971,0.457081 -0.991867,0.08685 -2.139142,0.319957 -2.568799,1.206696 -1.28897,2.646502 -3.14015,1.947167 -5.110172,1.115279 -0.612489,-0.260537 -1.266116,-0.429657 -1.892318,-0.662769 A 36.168867,36.168867 0 0 1 26.615281,34.265433 8.9816535,8.9816535 0 0 1 23.520838,22.660131 24.225325,24.225325 0 0 1 28.29277,15.886182 98.208553,98.208553 0 0 1 46.863995,1.3784114 3.6886485,3.6886485 0 0 0 48.436356,0.13057866 1.6820603,1.6820603 0 0 0 47.065111,0.16257436 136.10976,136.10976 0 0 0 31.615753,5.0350642 62.446488,62.446488 0 0 0 13.880987,14.880602 18.493522,18.493522 0 0 0 8.853089,39.563009 48.990006,48.990006 0 0 0 19.265408,52.28359 c 0.319958,0.301674 0.914164,0.493648 0.767897,1.033004 -0.127982,0.457082 -0.694764,0.361095 -1.083283,0.457082 A 112.99514,112.99514 0 0 0 7.139033,57.352625 c -2.1071462,0.781609 -2.2259874,1.293541 -0.4113734,2.52309 a 33.298395,33.298395 0 0 0 12.6931564,5.398134 22.822084,22.822084 0 0 0 9.383885,-1.206696 c 0.383949,-0.09142 0.804464,-0.457081 1.160988,-0.118841 0.356523,0.338241 0.05942,0.813605 -0.123412,1.128992 a 1.938026,1.938026 0 0 0 0.365665,2.513949 15.90644,15.90644 0 0 1 1.371245,1.869463 63.18239,63.18239 0 0 1 9.214765,24.522428 9.8272544,9.8272544 0 0 1 -2.18485,8.894806 4.8084984,4.8084984 0 0 0 -1.055859,4.18687 29.79715,29.79715 0 0 0 1.988305,6.15689 c 1.325537,3.32755 3.089872,6.19346 7.231031,6.37629 a 4.4519748,4.4519748 0 0 1 1.572361,0.60792 3.5378116,3.5378116 0 0 1 2.029442,2.39053 5.9694857,5.9694857 0 0 0 4.141159,4.20516 21.025754,21.025754 0 0 0 6.376289,1.02843 35.748352,35.748352 0 0 0 11.655581,-0.77704 5.7409449,5.7409449 0 0 0 4.621095,-3.45554 5.7089492,5.7089492 0 0 1 5.114743,-4.23714 5.7318033,5.7318033 0 0 0 4.703369,-3.26357 49.593354,49.593354 0 0 0 3.199572,-7.99892 5.3752796,5.3752796 0 0 0 -1.065001,-5.48498 8.7165461,8.7165461 0 0 1 -1.992875,-8.20462 c 0.324528,-1.371245 0.457081,-2.74249 0.740472,-4.113734 A 56.221037,56.221037 0 0 1 97.924581,67.29872 1.7551933,1.7551933 0 0 0 98.212543,65.324128 C 98.02971,64.8899 97.508637,64.409965 98.020568,63.952883 c 0.39309,-0.361094 0.877597,0.04571 1.307254,0.146266 a 23.553415,23.553415 0 0 0 8.492568,1.266116 31.575197,31.575197 0 0 0 13.57533,-5.60382 c 1.61349,-1.046717 1.52665,-1.62264 -0.26054,-2.303692 z M 49.208824,113.71993 a 4.9456229,4.9456229 0 1 1 4.941052,-4.95019 4.9501937,4.9501937 0 0 1 -4.941052,4.95019 z M 44.884832,66.453119 a 15.083693,15.083693 0 0 1 -8.035494,-6.796803 12.71601,12.71601 0 0 1 12.048671,-0.914163 c 6.179743,3.089871 6.485988,6.490558 6.485988,6.490558 A 15.655045,15.655045 0 0 1 44.884832,66.453119 Z M 32.543629,52.242452 c 0,0 18.534659,-8.030923 27.493458,9.886675 -0.01828,0.01828 -12.684014,-11.408756 -27.511741,-9.886675 z m 46.028117,61.477478 a 4.9456229,4.9456229 0 1 1 4.92734,-4.95019 4.9456229,4.9456229 0 0 1 -4.945623,4.95019 z M 81.241103,66.389128 A 15.668757,15.668757 0 0 1 70.728226,65.150437 c 0,0 0.306245,-3.396116 6.485988,-6.485988 a 12.702298,12.702298 0 0 1 12.048671,0.914163 15.083693,15.083693 0 0 1 -8.040066,6.810516 z M 66.107131,62.060565 C 75.06593,44.142966 93.600589,52.178461 93.600589,52.178461 78.754579,50.633525 66.088848,62.060565 66.088848,62.060565 Z"
     style="fill:#9c04a0;stroke-width:4.57082"
     id="path1" />
  <metadata
     id="metadata1">
    <rdf:RDF>
      <cc:Work
         rdf:about="">
        <dc:title>file_type_yacc</dc:title>
      </cc:Work>
    </rdf:RDF>
  </metadata>
</svg>
