<svg xmlns="http://www.w3.org/2000/svg" viewBox="0 0 128 128"><path fill="#172C36" d="M.1 80.1l18.4-15.6-1.6-17.7zm10.7-8L0 81.2h33.4zm6.9-24.7l2.5 27.7 14.3 5.8zm25.4 19.1c-.5 1.7-.2 3.6.8 5.1 1.1 1.4 2.7 2.1 4.5 2 .9 0 1.7-.1 2.6-.3.7-.1 1.3-.3 2-.6l-.5 3.3c-.8.2-1.5.4-2.3.5-.9.1-1.7.2-2.6.2-3.4 0-5.9-.9-7.4-2.7s-1.9-4.2-1.2-7.4c.6-3 2.1-5.7 4.5-7.7 2.4-1.9 5.4-3 8.5-2.9.9 0 1.8.1 2.7.3.6.1 1.3.3 1.9.6l-1.1 3.5c-.5-.4-1.2-.6-1.8-.8-.7-.2-1.5-.3-2.2-.3-2 0-3.9.7-5.3 2-1.7 1.4-2.7 3.2-3.1 5.2zm32.3-10.1h6.4l-4.2 19.9h-3.8l3.5-16.5-8.9 16.5h-3.8l-1.9-16.6-3.5 16.6h-3.8l4.2-19.9H66l1.5 15.1 7.9-15.1zM91.1 74c-.7.9-1.6 1.7-2.6 2.2-.8.4-1.7.6-2.6.6-1.3.1-2.5-.3-3.4-1.2-.7-.8-1-1.9-.8-3 .3-1.6 1.2-2.9 2.6-3.8 1.7-1 3.7-1.4 5.7-1.3h2.4l.1-.3c.2-1 .1-1.8-.4-2.2-.7-.5-1.5-.7-2.3-.7-.8 0-1.7.2-2.5.5-.8.2-1.6.6-2.3 1.2l.6-3.3c.8-.3 1.7-.6 2.6-.8.9-.2 1.9-.4 2.8-.4 2.2 0 3.7.5 4.5 1.5.8 1.1 1 2.7.5 4.9l-.9 3.9-.6 3.3c-.1 1-.2 1.4-.2 1.4h-3.4v-.7c-.1-.6 0-1.2.2-1.8zm.7-4.1l.1-.3h-1.7c-1.1 0-2.2.2-3.2.7-.7.3-1.2 1-1.3 1.7-.1.5 0 1 .3 1.4.5.4 1.1.5 1.7.5 1.1 0 2.1-.4 2.9-1.2.5-.9.9-1.8 1.2-2.8zM102.2 55h3.8l-2.7 12.7 5.9-6h4.6l-6.8 6.6 4.5 8.1h-4.9l-3.4-7.2-1.5 7.2h-3.8l4.3-21.4zm23.3 20.6c-.8.4-1.6.7-2.4.8-.9.2-1.8.3-2.8.3-2.6 0-4.4-.7-5.4-2s-1.3-3.2-.8-5.7c.4-2.1 1.4-4.1 3-5.5 1.5-1.4 3.4-2.1 5.4-2.1 2.5 0 4.1.8 4.8 2.3.8 1.5.9 3.7.2 6.6h-10.1c-.1.8.1 1.7.5 2.4.7 1 1.8 1.5 3 1.3 1 0 2-.2 3-.6.7-.2 1.4-.6 2.1-1l-.5 3.2zm-7.6-8h6.6c.3-.9.1-1.8-.4-2.6-.5-.6-1.3-.9-2.1-.9-1.1 0-2.1.4-2.8 1.2-.5.8-.9 1.5-1.3 2.3zM11.3 71.6l8.1 3.2-.8-9.4z"/></svg>
