<?xml version="1.0" encoding="UTF-8"?>
<svg xmlns="http://www.w3.org/2000/svg" xmlns:xlink="http://www.w3.org/1999/xlink" width="128px" height="128px" viewBox="0 0 128 128" version="1.1">
<g id="surface1">
<path fill="#E434AA" d="M 18.390625 96.851562 L 13.789062 94.195312 L 65.039062 5.433594 L 69.636719 8.089844 Z M 18.390625 96.851562 "/>
<path fill="#E434AA" d="M 12.734375 87.105469 L 115.230469 87.105469 L 115.230469 92.414062 L 12.734375 92.414062 Z M 12.734375 87.105469 "/>
<path fill="#E434AA" d="M 66.03125 119.6875 L 14.765625 90.089844 L 17.421875 85.488281 L 68.6875 115.089844 Z M 66.03125 119.6875 "/>
<path fill="#E434AA" d="M 110.566406 42.542969 L 59.300781 12.941406 L 61.957031 8.34375 L 113.222656 37.941406 Z M 110.566406 42.542969 "/>
<path fill="#E434AA" d="M 17.433594 42.523438 L 14.777344 37.921875 L 66.046875 8.324219 L 68.703125 12.921875 Z M 17.433594 42.523438 "/>
<path fill="#E434AA" d="M 109.621094 96.851562 L 58.375 8.089844 L 62.972656 5.433594 L 114.222656 94.195312 Z M 109.621094 96.851562 "/>
<path fill="#E434AA" d="M 16.800781 34.398438 L 22.113281 34.398438 L 22.113281 93.601562 L 16.800781 93.601562 Z M 16.800781 34.398438 "/>
<path fill="#E434AA" d="M 105.886719 34.398438 L 111.199219 34.398438 L 111.199219 93.601562 L 105.886719 93.601562 Z M 105.886719 34.398438 "/>
<path fill="#E434AA" d="M 65.128906 117.441406 L 62.808594 113.421875 L 107.394531 87.675781 L 109.714844 91.695312 Z M 65.128906 117.441406 "/>
<path fill="#E434AA" d="M 118.238281 95.328125 C 115.167969 100.671875 108.320312 102.496094 102.976562 99.425781 C 97.632812 96.351562 95.808594 89.503906 98.878906 84.160156 C 101.953125 78.816406 108.800781 76.992188 114.144531 80.0625 C 119.519531 83.167969 121.34375 89.984375 118.238281 95.328125 "/>
<path fill="#E434AA" d="M 29.089844 43.839844 C 26.015625 49.183594 19.167969 51.007812 13.824219 47.9375 C 8.480469 44.863281 6.65625 38.015625 9.726562 32.671875 C 12.800781 27.328125 19.648438 25.503906 24.992188 28.574219 C 30.335938 31.679688 32.160156 38.496094 29.089844 43.839844 "/>
<path fill="#E434AA" d="M 9.761719 95.328125 C 6.6875 89.984375 8.511719 83.167969 13.855469 80.0625 C 19.199219 76.992188 26.015625 78.816406 29.121094 84.160156 C 32.191406 89.503906 30.367188 96.320312 25.023438 99.425781 C 19.648438 102.496094 12.832031 100.671875 9.761719 95.328125 "/>
<path fill="#E434AA" d="M 98.910156 43.839844 C 95.839844 38.496094 97.664062 31.679688 103.007812 28.574219 C 108.351562 25.503906 115.167969 27.328125 118.273438 32.671875 C 121.34375 38.015625 119.519531 44.832031 114.175781 47.9375 C 108.832031 51.007812 101.984375 49.183594 98.910156 43.839844 "/>
<path fill="#E434AA" d="M 64 126.65625 C 57.824219 126.65625 52.832031 121.664062 52.832031 115.488281 C 52.832031 109.3125 57.824219 104.320312 64 104.320312 C 70.175781 104.320312 75.167969 109.3125 75.167969 115.488281 C 75.167969 121.632812 70.175781 126.65625 64 126.65625 "/>
<path fill="#E434AA" d="M 64 23.679688 C 57.824219 23.679688 52.832031 18.6875 52.832031 12.511719 C 52.832031 6.335938 57.824219 1.34375 64 1.34375 C 70.175781 1.34375 75.167969 6.335938 75.167969 12.511719 C 75.167969 18.6875 70.175781 23.679688 64 23.679688 "/>
</g>
</svg>
