<svg xmlns="http://www.w3.org/2000/svg" viewBox="0 0 128 128"><path fill="#fff" d="M63.975 125.09c-16.317 0-31.658-6.355-43.197-17.893S2.885 80.318 2.885 64 9.24 32.341 20.778 20.803 47.657 2.91 63.975 2.91s31.659 6.355 43.198 17.893S125.065 47.682 125.065 64s-6.355 31.659-17.893 43.198-26.879 17.892-43.197 17.892z"/><path fill="none" stroke="#858585" stroke-dasharray=".407,.8139" stroke-linecap="round" stroke-linejoin="round" stroke-miterlimit="7.976" stroke-width=".856" d="M63.974 63.784h61.09m-61.09 0 43.197-43.196M63.974 63.784V2.694m0 61.09L20.778 20.588m43.196 43.196H2.884m61.09 0-43.196 43.197m43.196-43.197v61.09m0-61.09 43.197 43.197" opacity=".9"/><g fill="none" stroke="#818181" stroke-dasharray=".407,.8139" stroke-linecap="square" stroke-linejoin="round" stroke-miterlimit="199.409" stroke-width=".856"><path d="m70.764 63.784-.202-1.643-.593-1.543-.949-1.355-1.25-1.085-1.474-.751-1.61-.373-1.654.03-1.599.429-1.447.801-1.209 1.128-.9 1.388-.539 1.565-.145 1.649.259 1.634.646 1.523.994 1.321 1.286 1.041 1.5.698 1.623.316 1.653-.086 1.582-.484 1.418-.852 1.17-1.17.851-1.417.484-1.582.105-1.182h0" opacity=".9"/><path d="m84.339 63.784-.198-2.833-.59-2.779-.973-2.669-1.333-2.509-1.67-2.299-1.973-2.044-2.238-1.75-2.461-1.42-2.633-1.064-2.758-.688-2.825-.297-2.84.099-2.797.494-2.702.877-2.554 1.246-2.356 1.588-2.111 1.901-1.826 2.177-1.506 2.408-1.155 2.596-.782 2.73-.396 2.814v2.842l.396 2.814.782 2.73 1.155 2.596 1.506 2.408 1.826 2.177 2.111 1.902 2.356 1.588 2.554 1.245 2.702.877 2.798.494 2.84.1 2.824-.298 2.758-.687 2.633-1.065 2.461-1.42 2.238-1.75 1.973-2.044 1.67-2.299 1.333-2.51.972-2.668.591-2.779.198-2.83h0" opacity=".9"/><path d="m97.914 63.784-.185-3.548-.555-3.509-.92-3.43-1.272-3.317-1.613-3.166-1.935-2.978-2.236-2.762-2.512-2.511-2.761-2.236-2.979-1.935-3.165-1.613-3.317-1.273-3.43-.919-3.51-.555-3.548-.185-3.548.185-3.508.555-3.43.92-3.318 1.272-3.165 1.613-2.979 1.935-2.761 2.236-2.512 2.511-2.236 2.762-1.935 2.978-1.613 3.166-1.273 3.317-.919 3.43-.555 3.509-.185 3.548.185 3.548.555 3.509.92 3.43 1.272 3.317 1.613 3.166 1.935 2.978 2.236 2.762 2.512 2.511 2.761 2.236 2.979 1.935 3.165 1.614 3.317 1.272 3.43.92 3.51.555 3.547.185 3.549-.185 3.508-.556 3.43-.919 3.318-1.272 3.165-1.614 2.979-1.935 2.761-2.236 2.512-2.511 2.236-2.762 1.935-2.978 1.613-3.166 1.272-3.317.92-3.43.555-3.509.185-3.548h0" opacity=".9"/><path d="m111.489 63.784-.26-4.966-.78-4.911-1.286-4.804-1.782-4.642-2.257-4.432-2.709-4.171-3.13-3.866-3.516-3.517-3.866-3.13-4.171-2.709L83.3 20.38l-4.642-1.781-4.804-1.287-4.912-.779-4.966-.26-4.966.26-4.91.779-4.805 1.287-4.642 1.781-4.432 2.257-4.17 2.71-3.867 3.13-3.517 3.516-3.13 3.866-2.708 4.17-2.257 4.433-1.782 4.642-1.287 4.804-.778 4.911-.261 4.966.26 4.966.779 4.911 1.287 4.805 1.782 4.642 2.257 4.431 2.709 4.171 3.13 3.866 3.516 3.517 3.866 3.13 4.171 2.709 4.432 2.257 4.642 1.781 4.804 1.288 4.911.778 4.966.26 4.966-.26 4.912-.778 4.804-1.288 4.642-1.781 4.432-2.257 4.17-2.71 3.867-3.129 3.516-3.517 3.13-3.866 2.71-4.17 2.256-4.432 1.782-4.642 1.287-4.805.778-4.91.261-4.967h0" opacity=".9"/></g><path fill="#11557c" d="M64 126c-16.56 0-32.13-6.449-43.84-18.159S2 80.561 2 64s6.449-32.13 18.159-43.841S47.439 2 64 2s32.131 6.449 43.841 18.159S126 47.439 126 64s-6.449 32.131-18.159 43.841S80.561 126 64 126zM64 3.82c-16.074 0-31.187 6.26-42.553 17.626C10.08 32.813 3.82 47.925 3.82 64c0 16.075 6.26 31.188 17.626 42.554S47.925 124.18 64 124.18c16.075 0 31.188-6.26 42.554-17.626S124.18 80.075 124.18 64c0-16.075-6.26-31.187-17.626-42.554C95.187 10.08 80.075 3.82 64 3.82z"/><path fill="#004cff" d="m63.975 63.784.129-.042.129-.042.129-.042.129-.042.129-.042.129-.042.129-.042.129-.042.129-.042.129-.042.129-.042.129-.042.129-.042.129-.042.129-.042.129-.042.129-.042.129-.042.129-.042.129-.042.129-.042.129-.042.129-.042.129-.042.129-.042.129-.042.129-.042.129-.042.129-.042.129-.042.129-.042.129-.042.129-.042.129-.042.129-.042.129-.042.129-.042.129-.042.129-.042.129-.042.129-.042.129-.042.129-.042.129-.042.129-.042.129-.042.129-.042.129-.042.129-.042.129-.042.129-.042.129-.042.129-.042.129-.042.129-.042.129-.042.129-.042.129-.042.129-.042.129-.042.129-.042.129-.042.129-.042.129-.042.129-.042.129-.042.129-.042.129-.042.129-.042.129-.042.129-.042.129-.042.129-.042.129-.042.129-.042.129-.042.129-.042.129-.042.129-.042.129-.042.129-.042.129-.042.129-.042.129-.042.129-.042.129-.042.129-.042.129-.042.129-.042.129-.042.129-.042.129-.042.129-.042.129-.042.129-.042.129-.042.129-.042.129-.042.129-.042.129-.042.025.046.013.041.013.041.013.041.013.041.013.041.012.041.012.041.011.039.012.041.012.041.012.041.012.041.011.041.011.041.011.041.011.041.011.041.011.041.011.041.011.041.01.041.01.041.01.041.01.041.01.041.01.042.01.042.009.042.009.042.009.042.009.042.009.042.009.042.009.042.009.042.009.042.008.042.008.042.008.042.008.042.008.042.008.042.007.042.007.042.007.042.007.042.007.042.007.042.007.042.007.042.007.042.006.042.006.042.006.042.006.042.006.042.006.042.006.042.005.042.005.042.005.042.005.042.005.042.005.042.005.042.005.042.004.042.004.042.004.042.004.042.004.042.004.042.004.043.003.043.003.043.003.043.003.043.003.043.003.043.003.043.003.043.002.043.002.043.002.043.002.043.002.043.002.043.002.043.001.043.001.043.001.043.001.043.001.043.001.043.001.043v.172H64.11l-.135-.004z" opacity=".6"/><path fill="#ceff29" d="m63.975 63.784.143-.381.143-.381.143-.381.143-.381.143-.381.143-.381.143-.381.143-.381.143-.381.143-.381.143-.381.143-.381.143-.381.143-.381.143-.381.143-.381.143-.381.143-.381.143-.381.143-.381.143-.381.143-.381.143-.381.143-.381.143-.381.143-.381.143-.381.143-.381.143-.381.143-.381.143-.381.143-.381.143-.381.143-.381.143-.381.143-.381.143-.381.143-.381.143-.381.143-.381.143-.381.143-.381.143-.381.143-.381.143-.381.143-.381.143-.381.143-.381.143-.381.143-.381.143-.381.143-.381.143-.381.143-.381.143-.381.143-.381.143-.381.143-.381.143-.381.143-.381.143-.381.143-.381.143-.381.143-.381.143-.381.143-.381.143-.381.143-.381.143-.381.143-.381.143-.381.143-.381.143-.381.143-.381.143-.381.143-.381.143-.381.143-.381.143-.381.143-.381.143-.381.143-.381.143-.381.143-.381.143-.381.143-.381.143-.381.143-.381.143-.381.143-.381.143-.381.143-.381.143-.381.143-.381.143-.381.143-.381.143-.381.154-.411.143-.381.143-.381.12.045.12.046.119.046.119.046.119.047.119.047.119.047.119.048.119.048.118.049.118.049.118.049.118.05.118.05.118.05.117.051.117.051.117.051.117.052.117.052.117.053.116.053.116.053.116.054.116.054.116.054.116.055.115.055.115.055.115.056.115.056.115.057.115.057.114.057.114.058.114.058.114.058.114.059.113.059.113.059.113.06.113.06.113.061.113.061.112.061.112.062.112.062.112.062.112.063.111.063.111.063.111.064.111.064.111.064.11.065.11.065.11.065.11.066.11.066.109.066.109.067.109.067.109.067.108.068.108.068.108.068.108.069.108.069.107.069.107.07.107.07.107.071.107.071.106.071.106.072.106.072.106.072.105.073.105.073.105.073.105.074.104.074.104.074.104.074.104.075.104.075.103.075.103.076.103.076.103.076.102.077.102.077.102.077.102.078.101.078.101.078.101.079.101.079.1.079.1.08-.254.318-.254.318-.254.318-.254.318-.254.318-.254.318-.254.318-.254.318-.254.318-.254.318-.254.318-.254.318-.254.318-.252.324-.254.318-.254.318-.254.318-.254.318-.254.318-.253.32-.254.318-.254.318-.254.318-.254.318-.254.318-.254.318-.254.318-.254.318-.254.318-.254.318-.254.318-.254.318-.254.318-.254.318-.254.318-.254.318-.254.318-.254.318-.254.318-.254.318-.254.318-.254.318-.254.318-.254.318-.254.318-.254.318-.254.318-.254.318-.254.318-.254.318-.254.318-.252.332-.254.318-.254.318-.254.318-.254.318-.254.318-.254.32-.254.318-.254.318-.254.318-.254.318-.254.318-.254.318-.254.318-.254.318-.254.318-.254.318-.254.318-.254.318-.254.318-.254.318-.254.318-.254.318-.254.318-.254.318-.254.318-.254.318-.254.318-.254.318-.252.328-.254.318-.254.318-.254.318-.254.318-.254.318-.254.318-.254.318-.254.318-.254.318-.254.318-.254.318-.254.318-.254.318-.254.318-.254.318-.254.318-.254.318-.254.318-.253.326z" opacity=".6"/><path fill="#ff6800" d="m63.975 63.784-.348-.417-.348-.417-.348-.417-.348-.417-.348-.417-.348-.417-.348-.417-.348-.417-.348-.417-.348-.417-.348-.417-.348-.417-.348-.417-.348-.417-.348-.417-.348-.417-.348-.417-.348-.417-.348-.417-.348-.417-.348-.417-.348-.417-.348-.417-.348-.417-.348-.417-.348-.417-.348-.417-.348-.417-.348-.417-.348-.417-.348-.417-.348-.417-.348-.417-.348-.417-.348-.417-.348-.417-.348-.417-.348-.417-.348-.417-.348-.417-.348-.417-.348-.417-.348-.417-.348-.417-.348-.417-.348-.417-.348-.417-.348-.417-.348-.417-.348-.417-.348-.417-.348-.417-.348-.417-.348-.417-.348-.417-.348-.417-.348-.417-.348-.417-.348-.417-.348-.417-.348-.417-.348-.417-.348-.417-.348-.417-.348-.417-.348-.417-.348-.417-.348-.417-.348-.417-.348-.417-.348-.417-.348-.417-.348-.417-.348-.417-.348-.417-.348-.417-.348-.417-.348-.417-.348-.417-.348-.417-.348-.417-.348-.417-.348-.417-.348-.417-.348-.417-.348-.417-.348-.417-.348-.417-.348-.417-.348-.417-.348-.417-.348-.417-.348-.417-.349-.403-.348-.417-.348-.417-.348-.417-.348-.417-.348-.417-.348-.417.197-.164.198-.163.198-.162.199-.161.2-.16.201-.159.201-.158.202-.157.203-.156.204-.155.204-.154.205-.153.206-.152.206-.151.207-.15.208-.149.209-.148.209-.147.21-.146.211-.145.211-.144.212-.143.213-.142.213-.141.214-.14.215-.139.215-.138.216-.137.217-.136.217-.135.218-.134.219-.133.219-.132.22-.131.22-.13.221-.129.222-.128.222-.127.223-.126.223-.125.224-.124.225-.123.225-.122.226-.121.226-.12.227-.118.227-.117.228-.116.228-.115.229-.114.23-.113.23-.112.231-.111.231-.11.232-.109.232-.108.233-.107.233-.105.234-.104.234-.103.235-.102.235-.101.236-.1.236-.099.237-.098.237-.097.237-.095.238-.094.238-.093.239-.092.239-.091.24-.09.24-.089.24-.088.241-.086.241-.085.242-.084.242-.083.242-.082.243-.081.243-.08.244-.078.244-.077.244-.076.245-.075.245-.074.245-.073.246-.072.246-.07.246-.069.247-.068.247-.067.247-.066.248-.065.248-.063.248-.062.249-.061.249-.06.249-.059.249-.058.121.529.121.529.121.529.121.529.121.529.121.529.121.529.121.529.121.529.121.529.121.529.121.529.121.529.121.529.121.529.121.529.121.529.121.529.121.529.121.529.121.529.121.529.121.529.121.529.121.529.121.529.121.529.121.529.121.529.121.529.121.529.121.529.121.529.113.543.121.529.121.529.121.529.121.529.121.529.121.529.121.529.121.529.121.529.121.529.121.529.121.529.121.529.121.529.121.529.121.529.121.529.121.529.121.529.121.529.121.529.121.529.121.529.121.529.121.529.121.529.121.529.121.529.121.529.121.529.121.529.121.529.121.529.121.529.121.529.121.529.121.529.121.529.121.529.121.529.121.529.121.529.121.529.121.529.121.529.121.529.121.529.121.529.121.529.121.529.121.529.121.529.121.529.121.529.121.529.121.529.121.529.121.529.121.529.121.529.121.529.121.529.121.529.121.529.121.529.11.556z" opacity=".6"/><path fill="#ffc400" d="m63.975 63.784-.468.085-.468.085-.468.085-.468.085-.468.085-.468.085-.468.085-.468.085-.468.085-.463.083-.468.085-.468.085-.468.085-.468.085-.468.085-.468.085-.468.085-.468.085-.468.085-.468.085-.468.085-.462.083-.468.085-.468.085-.468.085-.466.085-.468.085-.468.085-.468.085-.468.085-.468.085-.468.085-.468.085-.468.085-.468.085-.468.085-.468.085-.468.085-.468.085-.468.085-.468.085-.468.085-.468.085-.468.085-.468.085-.468.085-.468.085-.468.085-.468.085-.456.081-.468.085-.468.085-.468.085-.468.085-.468.085-.468.085-.468.085-.468.085-.468.085-.468.085-.468.085-.468.085-.468.085-.468.085-.468.085-.468.085-.468.085-.468.085-.468.085-.468.085-.468.085-.468.085-.468.085-.468.085-.468.085-.468.085-.468.085-.468.085-.468.085-.468.085-.468.085-.468.085-.468.085-.468.085-.468.085-.45.079-.468.085-.468.085-.468.085-.466.085-.468.085-.468.085-.468.085-.468.085-.468.085-.468.085-.468.085-.468.085-.468.085-.468.085-.052-.294-.051-.294-.049-.295-.047-.295-.045-.295-.038-.297-.041-.296-.039-.296-.038-.296-.036-.296-.034-.297-.032-.297-.03-.297-.028-.297-.026-.297-.024-.298-.023-.298-.021-.298-.019-.298-.017-.298-.015-.298-.013-.298-.011-.298-.009-.298-.008-.298-.006-.298-.004-.299-.002-.299v-.299l.002-.299.004-.299.005-.298.007-.298.009-.298.011-.298.013-.298.015-.298.017-.298.019-.298.02-.298.022-.298.024-.298.026-.297.028-.297.03-.297.032-.297.034-.297.035-.296.037-.296.039-.296.041-.296.043-.295.045-.295.047-.295.048-.295.05-.294.052-.294.054-.294.056-.293.058-.293.059-.293.061-.292.063-.292.065-.291.067-.291.069-.291.07-.29.072-.29.074-.289.076-.289.078-.288.08-.288.081-.287.083-.287.085-.286.087-.286.089-.285.09-.285.092-.284.094-.283.096-.283.097-.282.099-.282.101-.281.103-.28.105-.28.106-.279.108-.278.11-.278.112-.277.113-.276.115-.276.117-.275.118-.274.12-.273.122-.273.124-.272.125-.271.127-.27.129-.269.428.206.428.206.428.206.428.206.428.206.428.206.428.206.428.206.428.206.428.206.428.206.428.206.428.206.428.206.428.206.428.206.428.206.428.206.428.206.428.206.428.206.428.206.428.206.428.206.428.206.428.206.428.206.428.206.428.206.428.206.428.206.428.206.428.206.428.206.428.206.428.206.428.206.428.206.428.206.428.206.428.206.428.206.428.206.428.206.428.206.428.206.428.206.428.206.428.206.428.206.428.206.428.206.428.206.428.206.428.206.428.206.428.206.428.206.428.206.428.206.428.206.428.206.428.206.428.206.428.206.428.206.428.206.428.206.428.206.428.206.428.206.428.206.428.206.428.206.428.206.428.206.428.206.428.206.428.206.428.206.428.206.428.206.428.206.428.206.428.206.428.206.428.206.428.206.428.206.428.206.428.206.428.206.428.206.428.206.428.206.428.206.428.206.428.206.428.206.436.223z" opacity=".6"/><path fill="#29ffce" d="m63.975 63.784-.223.155-.223.155-.223.155-.223.155-.223.155-.223.155-.223.155-.224.151-.223.155-.223.155-.223.155-.223.155-.223.155-.223.155-.223.155-.223.155-.223.155-.223.155-.223.155-.223.155-.223.155-.223.155-.223.155-.223.155-.223.155-.223.155-.223.155-.223.155-.223.155-.223.155-.223.155-.223.155-.223.155-.223.155-.223.155-.223.155-.223.155-.223.155-.223.155-.223.155-.223.155-.223.155-.223.155-.223.155-.223.155-.223.155-.223.155-.223.155-.223.155-.223.155-.223.155-.223.155-.223.155-.223.155-.232.137-.223.155-.223.155-.223.155-.223.155-.223.155-.223.155-.223.155-.223.155-.223.155-.223.155-.223.155-.223.155-.223.155-.223.155-.223.155-.223.155-.223.155-.223.155-.223.155-.223.155-.223.155-.223.155-.223.155-.223.155-.223.155-.223.155-.223.155-.223.155-.223.155-.223.155-.223.155-.223.155-.223.155-.223.155-.223.155-.223.155-.223.155-.223.155-.223.155-.223.155-.223.155-.223.155-.223.155-.231.138-.223.155-.024-.035-.024-.035-.024-.035-.024-.035-.024-.035-.024-.035-.024-.035-.024-.035-.024-.035-.024-.035-.024-.035-.024-.035-.024-.036-.024-.036-.023-.036-.023-.036-.023-.036-.023-.036-.023-.036-.023-.036-.023-.036-.023-.036-.023-.036-.023-.036-.023-.036-.023-.036-.023-.036-.023-.036-.023-.036-.023-.036-.023-.036-.023-.036-.022-.036-.022-.036-.022-.036-.022-.036-.022-.036-.022-.036-.022-.036-.022-.036-.022-.037-.022-.037-.022-.037-.022-.037-.022-.037-.022-.037-.022-.037-.022-.037-.022-.037-.021-.037-.021-.037-.021-.037-.021-.037-.021-.037-.021-.037-.021-.037-.021-.037-.021-.037-.021-.037-.021-.037-.021-.037-.021-.037-.021-.037-.021-.037-.021-.037-.021-.037-.021-.037-.02-.037-.02-.037-.02-.037-.02-.038-.02-.038-.02-.038-.02-.038-.02-.038-.02-.038-.02-.038-.02-.038-.02-.038-.02-.038-.02-.038-.02-.038-.02-.038-.019-.038-.019-.038-.019-.038-.019-.038-.019-.038-.019-.038-.019-.038-.019-.038-.019-.038-.019-.038-.019-.038-.019-.038-.019-.038-.019-.038-.019-.041-.019-.038-.019-.038.245-.118.245-.118.245-.118.245-.118.245-.118.245-.118.245-.118.245-.118.245-.118.245-.118.245-.118.245-.118.245-.118.245-.118.245-.118.245-.118.245-.118.245-.118.245-.118.245-.118.245-.118.245-.118.245-.118.245-.118.245-.118.245-.118.245-.118.245-.118.245-.118.245-.118.245-.118.245-.118.245-.118.245-.118.245-.118.245-.118.245-.118.245-.118.245-.118.245-.118.245-.118.245-.118.245-.118.245-.118.245-.118.245-.118.245-.118.245-.118.245-.118.245-.118.245-.118.245-.118.245-.118.245-.118.245-.118.245-.118.245-.118.245-.118.245-.118.245-.118.245-.118.245-.118.245-.118.245-.118.245-.118.245-.118.245-.118.245-.118.245-.118.245-.118.245-.118.245-.118.245-.118.245-.118.245-.118.245-.118.245-.118.245-.118.245-.118.245-.118.245-.118.245-.118.245-.118.245-.118.245-.118.245-.118.245-.118.245-.118.245-.118.245-.118.245-.118.245-.118.245-.118.245-.118.245-.118.245-.118.245-.118.245-.118.245-.118.208-.098z" opacity=".6"/><path fill="#7dff7a" d="m63.975 63.784.057.335.057.335.057.335.057.335.057.335.057.335.057.335.057.335.057.335.057.335.057.335.057.335.057.335.057.335.057.335.057.335.057.335.057.335.057.335.057.335.057.335.057.335.057.335.057.335.057.335.057.335.057.335.057.335.057.335.057.335.057.335.057.335.057.335.057.335.057.335.057.335.057.335.057.335.057.335.057.335.057.335.057.335.057.335.057.335.057.335.057.335.057.335.057.335.057.335.057.335.057.335.057.335.057.335.057.335.057.335.057.335.057.335.057.335.057.335.057.335.057.335.057.335.057.335.057.335.057.335.057.335.057.335.057.335.057.335.057.335.057.335.057.335.057.335.057.335.057.335.057.335.057.335.057.335.057.335.057.335.057.335.057.335.057.335.057.335.057.335.057.335.057.335.057.335.057.335.057.335.057.335.057.335.057.335.057.335.057.335.057.335.057.335.057.335.057.335.057.335-.131.022-.132.022-.132.021-.132.021-.132.02-.132.019-.132.019-.132.018-.132.018-.132.017-.132.017-.132.016-.132.016-.132.015-.132.015-.132.014-.133.014-.133.013-.133.013-.133.012-.133.012-.133.011-.133.011-.133.01-.133.01-.133.009-.133.009-.133.008-.133.007-.133.007-.133.007-.133.006-.133.005-.133.005-.133.004-.133.004-.133.003-.133.003-.133.002-.133.002-.133.001-.133.001h-.266l-.133-.001-.133-.001-.133-.002-.133-.002-.133-.003-.133-.003-.133-.004-.153-.047-.133-.005-.133-.005-.133-.006-.133-.007-.134-.007-.133-.008-.133-.008-.133-.009-.133-.009-.133-.01-.133-.01-.133-.011-.133-.011-.133-.012-.133-.012-.133-.013-.133-.013-.133-.014-.132-.015-.13-.015-.132-.015-.132-.016-.132-.017-.132-.017-.132-.018-.132-.018-.132-.019-.132-.019-.132-.02-.132-.02-.132-.021-.132-.021-.131-.022-.131-.022-.131-.023-.131-.023-.131-.024-.131-.024-.131-.025-.131-.025-.131-.026-.131-.026-.131-.027-.13-.027-.13-.028-.13-.028-.13-.029-.13-.029.076-.331.076-.331.076-.331.076-.331.076-.331.076-.331.076-.331.076-.331.076-.331.076-.331.076-.331.076-.331.076-.331.076-.331.076-.331.076-.331.076-.331.076-.331.076-.331.076-.331.076-.331.076-.331.076-.331.076-.331.076-.331.076-.331.076-.331.076-.331.076-.331.076-.331.076-.331.076-.331.076-.331.076-.331.076-.331.076-.331.076-.331.076-.331.076-.331.076-.331.076-.331.076-.331.076-.331.076-.331.076-.331.076-.331.076-.331.076-.331.076-.331.076-.331.076-.331.076-.331.076-.331.076-.331.076-.331.076-.331.076-.331.076-.331.076-.331.076-.331.076-.331.076-.331.076-.331.076-.331.076-.331.076-.331.076-.331.076-.331.076-.331.076-.331.076-.331.076-.331.076-.331.076-.331.076-.331.076-.331.076-.331.076-.331.076-.331.076-.331.076-.331.076-.331.076-.331.076-.331.076-.331.076-.331.076-.331.076-.331.076-.331.076-.331.076-.331.076-.331.076-.331.076-.331.076-.331.076-.331.076-.331.076-.331.076-.331.027-.318z" opacity=".6"/><path fill="#ff6800" d="m63.975 63.784.428.334.428.334.428.334.428.334.428.334.428.334.428.334.428.334.428.334.428.334.428.334.428.334.428.334.428.334.433.33.428.334.428.334.428.334.428.334.428.334.428.334.428.334.428.334.428.334.428.334.428.334.428.334.428.334.428.334.428.334.428.334.428.334.428.334.428.334.428.334.428.334.428.334.428.334.428.334.428.334.428.334.428.334.428.334.428.334.428.334.428.334.428.334.428.334.428.334.428.334.428.334.428.334.428.334.428.334.428.334.428.334.428.334.428.334.428.334.428.334.428.334.428.334.428.334.428.334.428.334.428.334.428.334.428.334.428.334.428.334.428.334.428.334.428.334.428.334.428.334.428.334.428.334.428.334.428.334.428.334.428.334.428.334.428.334.428.334.428.334.428.334.428.334.428.334.428.334.428.334.428.334.428.334.428.334.428.334.428.334.428.334.428.334.428.334.428.334.428.334-.079.101-.079.101-.079.1-.079.1-.08.1-.08.1-.08.1-.08.1-.081.099-.081.099-.081.099-.081.099-.082.099-.082.098-.082.098-.082.098-.083.098-.083.098-.083.097-.083.097-.083.097-.084.097-.084.097-.084.096-.084.096-.085.096-.085.096-.085.096-.085.095-.085.095-.086.095-.086.095-.086.095-.086.094-.087.094-.087.094-.087.094-.087.094-.087.093-.088.093-.088.093-.088.093-.088.093-.089.092-.089.092-.089.092-.089.092-.089.092-.09.091-.09.091-.09.091-.09.091-.09.09-.091.09-.091.09-.091.09-.091.09-.092.089-.092.089-.092.089-.092.089-.092.089-.093.088-.093.088-.093.088-.093.088-.093.087-.094.087-.094.087-.094.087-.094.087-.094.086-.068.066-.095.086-.095.086-.095.085-.095.085-.096.085-.096.085-.096.084-.096.084-.096.084-.097.084-.097.084-.097.083-.097.083-.097.083-.098.083-.098.082-.098.082-.098.082-.098.082-.099.082-.099.081-.099.081-.099.081-.099.081-.1.08-.1.08-.1.08-.339-.425-.338-.424-.339-.425-.339-.425-.339-.425-.339-.425-.339-.425-.339-.425-.339-.425-.339-.425-.339-.425-.339-.425-.339-.425-.339-.425-.339-.425-.339-.425-.339-.425-.339-.425-.339-.425-.339-.425-.339-.425-.339-.425-.339-.425-.339-.425-.339-.425-.33-.414-.339-.425-.339-.425-.339-.425-.339-.425-.339-.425-.339-.425-.339-.425-.339-.425-.339-.425-.339-.425-.339-.425-.339-.425-.339-.425-.339-.425-.339-.425-.339-.425-.339-.425-.339-.425-.339-.425-.339-.425-.339-.425-.339-.425-.339-.425-.339-.425-.339-.425-.339-.425-.339-.425-.339-.425-.339-.425-.339-.425-.339-.425-.339-.425-.339-.425-.339-.425-.339-.425-.339-.425-.339-.425-.339-.425-.339-.425-.339-.425-.339-.425-.339-.425-.339-.425-.339-.425-.339-.425-.339-.425-.339-.425-.339-.425-.339-.425-.339-.425-.339-.425-.339-.425-.339-.425-.339-.425-.339-.425-.339-.425-.339-.425-.339-.425-.339-.425-.339-.425-.339-.425-.339-.425-.339-.425-.339-.425-.339-.425-.339-.425-.339-.425-.339-.425-.339-.425-.339-.425-.339-.425-.339-.425-.339-.425-.307-.391z" opacity=".6"/><path fill="#2c2c2c" d="m77.551 64.198-13.576-.001a.414.414 0 0 1-.128-.806l12.912-4.194a.413.413 0 0 1 .521.265c.455 1.398.685 2.853.684 4.323a.413.413 0 0 1-.413.413zm-10.965-.828h10.545a13.114 13.114 0 0 0-.516-3.258L66.586 63.37z"/><path fill="#2c2c2c" d="M63.975 64.197a.414.414 0 0 1-.387-.558L77.899 25.51a.412.412 0 0 1 .532-.242 41 41 0 0 1 11.196 6.351.414.414 0 0 1 .066.581L64.298 64.041a.415.415 0 0 1-.323.156zm14.552-38.008L65.28 61.484l23.507-29.475a40.163 40.163 0 0 0-10.26-5.82z"/><path fill="#2c2c2c" d="M63.975 64.197a.415.415 0 0 1-.317-.148L28.857 22.364a.412.412 0 0 1 .052-.582A54.784 54.784 0 0 1 51.801 10.44a.414.414 0 0 1 .495.312l12.083 52.941a.415.415 0 0 1-.22.463.444.444 0 0 1-.184.041zM29.757 22.152l33.431 40.044-11.607-50.857a53.967 53.967 0 0 0-21.824 10.813z"/><path fill="#2c2c2c" d="M17.224 72.681a.413.413 0 0 1-.406-.339c-1.813-9.884-.401-20.309 3.977-29.355a.414.414 0 0 1 .552-.193l42.808 20.615a.413.413 0 0 1-.106.78l-46.75 8.485a.318.318 0 0 1-.075.007zm4.136-28.96c-4.103 8.678-5.448 18.61-3.801 28.067l45.09-8.183L21.36 43.721z"/><path fill="#2c2c2c" d="M41.657 79.659a.42.42 0 0 1-.341-.178 27.673 27.673 0 0 1-2.177-3.738.413.413 0 0 1 .193-.552l24.462-11.78a.413.413 0 0 1 .415.713L41.893 79.586a.414.414 0 0 1-.236.073zm-1.59-3.904a27.058 27.058 0 0 0 1.697 2.913L59.42 66.436l-19.353 9.319z"/><path fill="#2c2c2c" d="M63.99 98.132c-2.58 0-5.165-.287-7.66-.857a.415.415 0 0 1-.311-.496l7.552-33.088c.044-.192.223-.354.415-.321a.412.412 0 0 1 .396.344l5.685 33.46a.414.414 0 0 1-.339.477 34.201 34.201 0 0 1-5.738.481zm-7.072-1.574c4 .86 8.22.98 12.264.344l-5.267-30.999-6.997 30.655z"/><path fill="#2c2c2c" d="M97.832 106.652a.413.413 0 0 1-.324-.156L63.651 64.041a.413.413 0 0 1 .577-.584l42.833 33.379a.414.414 0 0 1 .072.581 54.697 54.697 0 0 1-9.045 9.146.409.409 0 0 1-.256.089zM66.477 66.258l31.42 39.399a53.985 53.985 0 0 0 8.329-8.423L66.477 66.258z"/></svg>
