<svg xmlns="http://www.w3.org/2000/svg" viewBox="0 0 128 128"><path fill="#11557c" d="M22.155 70.824a.449.449 0 0 1-.104.256.733.733 0 0 1-.297.17c-.136.047-.318.08-.547.099a7.368 7.368 0 0 1-.87.043c-.36 0-.652-.014-.877-.043a2.373 2.373 0 0 1-.547-.099.6.6 0 0 1-.271-.17.449.449 0 0 1-.052-.256l.559-7.513a4.848 4.848 0 0 0-.041-1.165 2.308 2.308 0 0 0-.303-.895 1.43 1.43 0 0 0-.582-.582c-.236-.142-.529-.213-.879-.213-.426 0-.869.166-1.329.497-.46.331-.97.814-1.528 1.449l-.626 8.422a.449.449 0 0 1-.104.256.732.732 0 0 1-.311.17c-.136.047-.318.08-.547.099a7.211 7.211 0 0 1-.855.043c-.35 0-.638-.014-.863-.043a2.373 2.373 0 0 1-.547-.099.6.6 0 0 1-.271-.17.394.394 0 0 1-.066-.256l.559-7.513a4.848 4.848 0 0 0-.041-1.165 2.463 2.463 0 0 0-.289-.895 1.43 1.43 0 0 0-.582-.582 1.724 1.724 0 0 0-.879-.213c-.436 0-.883.166-1.344.497-.46.331-.965.814-1.514 1.449l-.627 8.422a.449.449 0 0 1-.104.256.732.732 0 0 1-.311.17c-.136.047-.318.08-.547.099a7.368 7.368 0 0 1-.87.043c-.35 0-.638-.014-.863-.043a2.373 2.373 0 0 1-.547-.099.6.6 0 0 1-.271-.17.394.394 0 0 1-.066-.256l.942-12.669a.43.43 0 0 1 .089-.241.558.558 0 0 1 .269-.185 1.94 1.94 0 0 1 .476-.099c.201-.028.448-.043.742-.043.303 0 .553.014.75.043.197.019.346.052.447.099.11.047.186.109.228.185.042.066.06.147.053.241l-.109 1.463c.757-.757 1.495-1.326 2.215-1.704.729-.379 1.472-.568 2.229-.568.521 0 .985.057 1.393.17.409.104.767.26 1.073.469.317.199.583.44.798.724.216.284.391.601.526.952.409-.407.804-.757 1.186-1.051.391-.294.768-.53 1.132-.71a5.013 5.013 0 0 1 1.096-.412 4.389 4.389 0 0 1 1.104-.142c.843 0 1.542.142 2.099.426s.992.672 1.305 1.165c.324.483.537 1.051.64 1.704a9.02 9.02 0 0 1 .073 2.074l-.602 8.109zm14.327.043a.41.41 0 0 1-.165.312c-.1.076-.256.128-.466.156a5.245 5.245 0 0 1-.899.057c-.426 0-.737-.019-.933-.057-.187-.028-.321-.08-.4-.156-.07-.076-.1-.18-.09-.312l.075-1.008a6.357 6.357 0 0 1-1.887 1.307 5.37 5.37 0 0 1-2.25.469c-.672 0-1.286-.09-1.84-.27a3.85 3.85 0 0 1-1.406-.767 3.26 3.26 0 0 1-.855-1.292c-.189-.511-.258-1.108-.208-1.79.055-.739.244-1.378.569-1.917a3.93 3.93 0 0 1 1.393-1.349c.604-.36 1.339-.625 2.204-.795.865-.17 1.861-.256 2.987-.256h1.236l.057-.767a3.63 3.63 0 0 0-.051-1.037 1.506 1.506 0 0 0-.342-.753c-.165-.199-.4-.346-.706-.44-.296-.095-.671-.142-1.126-.142-.597 0-1.136.066-1.62.199a9.959 9.959 0 0 0-1.268.44c-.372.161-.686.308-.942.44-.247.133-.446.199-.597.199a.426.426 0 0 1-.277-.099.757.757 0 0 1-.178-.284 2.18 2.18 0 0 1-.08-.454 3.845 3.845 0 0 1 .002-.597c.022-.294.063-.525.123-.696s.161-.322.304-.454c.143-.142.386-.294.73-.454.344-.17.744-.327 1.199-.469a10.67 10.67 0 0 1 1.474-.341 9.42 9.42 0 0 1 1.644-.142c.994 0 1.834.099 2.52.298.696.189 1.256.488 1.68.895.425.398.718.914.879 1.548.161.634.209 1.387.145 2.258l-.635 8.52zm-3.104-5.425h-1.363c-.578 0-1.073.043-1.487.128-.413.085-.754.213-1.023.383-.268.17-.473.379-.615.625a1.997 1.997 0 0 0-.232.824c-.039.53.095.947.404 1.25.318.303.776.454 1.372.454.502 0 .971-.128 1.406-.383.445-.256.904-.63 1.376-1.122l.162-2.159zm13.994 4.133c-.031.417-.083.739-.157.966-.064.218-.141.374-.234.469a1.401 1.401 0 0 1-.401.241 3.523 3.523 0 0 1-.595.17 5.238 5.238 0 0 1-.734.128 7.256 7.256 0 0 1-.784.043c-.71 0-1.319-.09-1.826-.27-.507-.18-.918-.454-1.231-.824-.313-.379-.528-.852-.647-1.42s-.149-1.24-.091-2.017l.483-6.491h-1.52c-.18 0-.309-.109-.388-.327-.078-.227-.097-.601-.059-1.122.02-.275.047-.507.08-.696.042-.189.091-.336.146-.44a.608.608 0 0 1 .188-.241.501.501 0 0 1 .261-.071h1.505l.21-2.826a.503.503 0 0 1 .09-.256.658.658 0 0 1 .298-.185c.146-.057.334-.095.562-.114.239-.028.529-.043.87-.043.35 0 .638.014.863.043.235.019.417.057.545.114a.532.532 0 0 1 .27.185.394.394 0 0 1 .066.256l-.21 2.826h2.755c.095 0 .173.024.236.071a.451.451 0 0 1 .167.241c.04.104.062.251.067.44.014.189.011.421-.009.696-.039.521-.114.895-.225 1.122-.111.218-.256.327-.436.327h-2.77l-.443 5.951c-.051.691.019 1.212.21 1.562.192.341.568.511 1.127.511.189 0 .361-.014.514-.043.154-.038.29-.076.406-.114l.307-.114a.597.597 0 0 1 .231-.057c.057 0 .107.019.152.057.055.028.092.095.113.199.021.095.035.227.041.398.019.172.017.389-.003.655zm15.759-5.27c-.084 1.127-.283 2.145-.596 3.054-.304.899-.711 1.666-1.222 2.301a5.225 5.225 0 0 1-1.842 1.463c-.717.341-1.52.511-2.41.511-.369 0-.707-.038-1.014-.114a3.746 3.746 0 0 1-.872-.312 5.537 5.537 0 0 1-.811-.554 9.158 9.158 0 0 1-.824-.767l-.444 5.965a.449.449 0 0 1-.104.256.659.659 0 0 1-.312.185c-.137.057-.32.099-.549.128s-.519.043-.87.043c-.35 0-.638-.014-.863-.043a2.137 2.137 0 0 1-.544-.128.532.532 0 0 1-.27-.185.394.394 0 0 1-.066-.256l1.316-17.697a.43.43 0 0 1 .089-.241.557.557 0 0 1 .255-.185 1.94 1.94 0 0 1 .476-.099c.201-.028.448-.043.742-.043.284 0 .52.014.707.043.197.019.351.052.461.099.12.047.2.109.242.185.042.066.06.147.053.241l-.111 1.491c.397-.379.782-.71 1.153-.994a6.876 6.876 0 0 1 1.147-.724 5.11 5.11 0 0 1 1.169-.44c.405-.095.83-.142 1.275-.142.928 0 1.705.185 2.331.554.627.36 1.12.857 1.48 1.491.369.634.618 1.373.744 2.216.128.843.155 1.742.084 2.698zm-3.74.256c.04-.54.036-1.056-.013-1.548a4.077 4.077 0 0 0-.313-1.335 2.136 2.136 0 0 0-.698-.923c-.295-.237-.679-.355-1.152-.355-.237 0-.476.038-.719.114-.232.066-.477.18-.735.341-.249.161-.51.369-.785.625a9.913 9.913 0 0 0-.88.952l-.31 4.176c.455.634.896 1.127 1.325 1.477.429.341.89.511 1.382.511.464 0 .866-.118 1.205-.355.349-.237.642-.544.878-.923.237-.388.421-.824.552-1.307.139-.484.227-.967.263-1.45zm8.926-.363c0-2.156.632-4.162 1.706-5.862l.46-6.188a.394.394 0 0 0-.066-.256c-.051-.076-.146-.137-.284-.185a1.963 1.963 0 0 0-.53-.128 7.203 7.203 0 0 0-.863-.043c-.35 0-.64.014-.87.043a2.367 2.367 0 0 0-.563.128c-.136.047-.235.109-.298.185s-.097.161-.104.256l-1.389 18.676a.394.394 0 0 0 .066.256.6.6 0 0 0 .271.17c.138.047.321.081.547.099.225.028.513.043.863.043s.64-.014.87-.043c.229-.019.411-.052.547-.099a.732.732 0 0 0 .311-.17.449.449 0 0 0 .104-.256l.163-2.191a10.93 10.93 0 0 1-.941-4.435zm28.358-5.773a1.378 1.378 0 0 0-.067-.44.442.442 0 0 0-.167-.241.383.383 0 0 0-.236-.071H93.45l.21-2.826a.394.394 0 0 0-.066-.256.538.538 0 0 0-.27-.185 1.73 1.73 0 0 0-.545-.114 7.203 7.203 0 0 0-.863-.043 7.39 7.39 0 0 0-.87.043 2.03 2.03 0 0 0-.562.114.655.655 0 0 0-.298.185.503.503 0 0 0-.09.256l-.21 2.826H88.38c-.06 0-.111.026-.165.045a10.939 10.939 0 0 1 2.128 6.48c0 1.695-.396 3.294-1.083 4.73.008.047.008.104.018.15.119.568.334 1.042.647 1.42.313.369.724.644 1.231.824.507.18 1.116.27 1.826.27.265 0 .527-.014.784-.043.267-.028.512-.071.734-.128.231-.047.429-.104.595-.17a1.41 1.41 0 0 0 .401-.241c.092-.095.17-.251.234-.469.074-.227.126-.549.157-.966.02-.265.022-.483.006-.653a2.32 2.32 0 0 0-.041-.398c-.021-.104-.058-.17-.113-.199a.226.226 0 0 0-.152-.057.597.597 0 0 0-.231.057l-.307.114a5.748 5.748 0 0 1-.406.114 2.877 2.877 0 0 1-.514.043c-.559 0-.934-.17-1.127-.511-.192-.35-.262-.871-.21-1.562l.443-5.951h2.77c.18 0 .325-.109.436-.327.112-.227.187-.601.225-1.122.02-.276.023-.508.009-.698zm5.313 12.399a.449.449 0 0 1-.104.256.732.732 0 0 1-.311.17c-.136.047-.318.08-.547.099a7.368 7.368 0 0 1-.87.043c-.35 0-.638-.014-.863-.043a2.373 2.373 0 0 1-.547-.099.594.594 0 0 1-.271-.17.394.394 0 0 1-.066-.256l1.389-18.676c.007-.095.042-.18.104-.256s.162-.137.298-.185c.146-.057.334-.099.563-.128.229-.028.519-.043.87-.043s.638.014.863.043c.225.028.402.071.53.128.139.047.233.109.285.185a.394.394 0 0 1 .066.256l-1.389 18.676zm7.158 0a.449.449 0 0 1-.104.256.732.732 0 0 1-.311.17c-.136.047-.318.08-.547.099a7.368 7.368 0 0 1-.87.043c-.35 0-.638-.014-.863-.043a2.373 2.373 0 0 1-.547-.099.6.6 0 0 1-.271-.17.394.394 0 0 1-.066-.256l.94-12.64a.381.381 0 0 1 .103-.241.658.658 0 0 1 .298-.185c.146-.057.334-.099.563-.128.229-.028.519-.043.87-.043.35 0 .638.014.863.043.225.028.402.071.53.128.139.047.233.109.285.185a.336.336 0 0 1 .067.241l-.94 12.64zm1.531-16.958c-.054.72-.237 1.217-.551 1.491s-.869.412-1.664.412c-.805 0-1.339-.133-1.604-.398-.255-.265-.357-.743-.305-1.434.054-.72.232-1.217.537-1.491.315-.284.874-.426 1.679-.426.795 0 1.325.137 1.588.412.265.265.371.743.32 1.434zm15.286 10.454c-.084 1.127-.282 2.14-.595 3.039s-.725 1.666-1.236 2.301-1.12 1.122-1.827 1.463c-.698.341-1.477.511-2.339.511a5.19 5.19 0 0 1-1.184-.128 3.754 3.754 0 0 1-1.037-.383 5.538 5.538 0 0 1-.943-.682 8.8 8.8 0 0 1-.92-.994l-.102 1.378a.474.474 0 0 1-.105.27.605.605 0 0 1-.268.17c-.117.047-.276.08-.476.099-.2.019-.442.028-.726.028-.294 0-.539-.009-.736-.028a1.761 1.761 0 0 1-.461-.099.496.496 0 0 1-.229-.17.472.472 0 0 1-.051-.27l1.389-18.676a.449.449 0 0 1 .104-.256.658.658 0 0 1 .298-.185c.146-.057.334-.099.563-.128.229-.028.519-.043.87-.043.35 0 .638.014.863.043.225.028.402.071.53.128.139.047.233.109.285.185a.394.394 0 0 1 .066.256l-.521 7.002c.346-.322.688-.597 1.027-.824s.674-.412 1.007-.554c.333-.151.673-.26 1.018-.327a5.79 5.79 0 0 1 1.087-.099c.937 0 1.719.189 2.344.568a4.023 4.023 0 0 1 1.479 1.505c.369.634.617 1.378.743 2.23.124.842.153 1.732.083 2.67zm-3.726.255c.04-.54.036-1.06-.012-1.562a4.077 4.077 0 0 0-.313-1.335 2.237 2.237 0 0 0-.713-.923c-.295-.237-.684-.355-1.167-.355-.237 0-.471.033-.703.099-.232.066-.477.18-.735.341-.249.161-.51.369-.785.625s-.568.573-.88.952l-.313 4.204c.454.644.895 1.136 1.325 1.477.439.331.91.497 1.412.497.464 0 .866-.118 1.205-.355.34-.237.628-.544.864-.923.246-.379.434-.81.565-1.292a7.74 7.74 0 0 0 .25-1.45z"/><path fill="#11557c" d="M79.3 74.538c-2.761 0-5.357-1.075-7.31-3.028s-3.028-4.549-3.028-7.31c0-2.761 1.075-5.357 3.028-7.31s4.549-3.028 7.31-3.028c2.761 0 5.357 1.075 7.31 3.028s3.028 4.549 3.028 7.31c0 2.761-1.075 5.357-3.028 7.31s-4.549 3.028-7.31 3.028zm0-20.372c-2.68 0-5.2 1.044-7.095 2.939a9.965 9.965 0 0 0-2.939 7.095c0 2.68 1.044 5.2 2.939 7.095a9.969 9.969 0 0 0 7.095 2.939c2.68 0 5.2-1.044 7.095-2.939a9.969 9.969 0 0 0 2.939-7.095c0-2.68-1.044-5.2-2.939-7.095a9.965 9.965 0 0 0-7.095-2.939z"/><circle cx="79.3" cy="64.2" r="8.004" fill="none" stroke="#11557c" stroke-linecap="square" stroke-linejoin="round" stroke-miterlimit="199.409" stroke-width=".117"/><circle cx="79.3" cy="64.2" r="5.669" fill="none" stroke="#11557c" stroke-linecap="square" stroke-linejoin="round" stroke-miterlimit="199.409" stroke-width=".117"/><circle cx="79.3" cy="64.2" r="3.335" fill="none" stroke="#11557c" stroke-linecap="square" stroke-linejoin="round" stroke-miterlimit="199.409" stroke-width=".117"/><circle cx="79.3" cy="64.2" r="1.167" fill="none" stroke="#11557c" stroke-linecap="square" stroke-linejoin="round" stroke-miterlimit="199.409" stroke-width=".117"/><path fill="#11557c" d="M81.559 64.233h-2.264a.069.069 0 0 1-.021-.134l2.153-.699a.07.07 0 0 1 .087.044c.076.233.114.476.114.721 0 .037-.03.068-.069.068z"/><path fill="#11557c" d="M79.296 64.233a.07.07 0 0 1-.065-.093l2.386-6.358a.068.068 0 0 1 .089-.04 6.834 6.834 0 0 1 1.867 1.059c.03.024.035.067.011.097l-4.234 5.309a.07.07 0 0 1-.054.026z"/><path fill="#11557c" d="M79.296 64.233a.07.07 0 0 1-.053-.025l-5.803-6.951a.068.068 0 0 1 .009-.097 9.142 9.142 0 0 1 3.817-1.891.07.07 0 0 1 .083.052l2.015 8.827a.069.069 0 0 1-.037.077.06.06 0 0 1-.031.008z"/><path fill="#11557c" d="M71.501 65.648a.069.069 0 0 1-.068-.056 8.006 8.006 0 0 1 .663-4.895.069.069 0 0 1 .092-.032l7.138 3.437a.069.069 0 0 1 .038.071.07.07 0 0 1-.056.059l-7.795 1.415-.012.001z"/><path fill="#11557c" d="m75.575 66.811-.012-.001a.067.067 0 0 1-.044-.029 4.558 4.558 0 0 1-.363-.623.07.07 0 0 1-.003-.053.07.07 0 0 1 .035-.039l4.079-1.964a.071.071 0 0 1 .09.027.069.069 0 0 1-.02.091l-3.721 2.578a.073.073 0 0 1-.041.013z"/><path fill="#11557c" d="M79.298 69.891c-.43 0-.861-.048-1.277-.143a.07.07 0 0 1-.052-.083l1.259-5.517c.007-.032.037-.059.069-.054a.069.069 0 0 1 .066.057l.948 5.579a.07.07 0 0 1-.056.08 5.654 5.654 0 0 1-.957.081z"/><path fill="#11557c" d="M84.941 71.312a.07.07 0 0 1-.054-.026l-5.645-7.079a.068.068 0 0 1 .005-.091.069.069 0 0 1 .091-.006l7.142 5.566a.07.07 0 0 1 .012.097 9.104 9.104 0 0 1-1.508 1.525.076.076 0 0 1-.043.014z"/><path fill="none" stroke="#11557c" stroke-linecap="square" stroke-linejoin="round" stroke-miterlimit="199.409" stroke-width=".117" d="M79.3 54.029v20.342m-7.192-2.979 14.384-14.384M69.129 64.2h20.342m-2.979 7.192L72.108 57.008"/></svg>
