<?xml version="1.0" encoding="UTF-8"?><svg width="300pt" height="300pt" version="1.0" viewBox="0 0 300 300" xmlns="http://www.w3.org/2000/svg"><metadata>Created by potrace 1.16, written by Peter Selinger 2001-2019</metadata><g transform="translate(0 300) scale(.1 -.1)"><path d="m1707 2373c-4-3-7-172-7-375v-368h55 55v375 375h-48c-27 0-52-3-55-7z" fill="#130754"/><path d="m1360 2205v-115h55 55v115 115h-55-55v-115z" fill="#130754"/><path d="m1190 1755v-375h55 55v375 375h-55-55v-375z" fill="#130754"/><path d="m1530 2020v-110h55 55v110 110h-55-55v-110z" fill="#130754"/><path d="m1364 1851c-2-2-4-53-4-113v-108h55 56l-3 111-3 112-48 1c-27 0-51-1-53-3z" fill="#130754"/><path d="m1532 1558 3-113 53-3 52-3v115 116h-55-56l3-112z" fill="#130754"/><path d="m1840 1175v-85l-37 20c-76 41-163 19-217-53-32-43-34-150-4-202 50-85 147-111 222-60 44 30 46 30 46 5 0-17 7-20 45-20h45v240 240h-50-50v-85zm-38-126c29-16 51-74 43-120-20-116-169-121-190-5-9 47 0 82 30 112 26 26 81 32 117 13z" fill="#130754"/><path d="m440 1123c-8-3-27-15-42-25-28-19-28-19-28 1 0 18-6 21-45 21h-45l2-247 3-248h45 45l6 194 37-25c31-22 45-25 90-22 99 8 156 83 150 195-4 70-23 103-78 141-32 21-102 29-140 15zm87-78c50-35 53-132 6-179-76-77-190 18-153 128 14 45 44 66 90 66 20 0 45-7 57-15z" fill="#130754"/><path d="m814 1121c-33-15-83-78-90-116-10-55 1-133 23-163 61-83 170-96 241-30l22 21v-26c0-25 3-27 43-27h42v170 170h-42c-36 0-43-3-43-20 0-26-8-25-37 2-26 24-121 35-159 19zm159-86c66-67 23-195-66-195-39 0-64 15-82 50-28 53-11 134 32 159 34 20 89 13 116-14z" fill="#130754"/><path d="m1330 1123c-8-3-27-17-42-31l-28-26v27c0 25-3 27-45 27h-45v-170-170h45 45v100c0 115 12 150 59 170 40 16 75 7 89-25 7-15 12-73 12-135v-110h45 45v130c0 140-9 174-52 204-22 15-96 20-128 9z" fill="#130754"/><path d="m2069 1107c-44-29-79-98-79-157 0-54 33-125 72-153 14-11 49-22 77-25 40-4 58 0 95 21 43 24 46 24 46 6 0-16 7-19 45-19h45v170 170h-45c-38 0-45-3-45-20 0-18-2-18-36 5-49 34-127 35-175 2zm162-57c25-14 49-62 49-100s-24-86-49-100c-37-19-85-12-113 18-67 70-30 192 58 192 19 0 44-5 55-10z" fill="#130754"/><path d="m2498 1114c-35-19-48-43-48-92 0-50 28-77 111-105 50-17 65-27 67-44 7-45-77-55-149-18-27 15-29 14-35-10-9-37 0-50 44-63 55-17 128-15 167 4 35 16 65 65 65 104 0 36-58 85-123 104-32 9-60 23-64 32-14 38 49 56 116 33 36-13 36-13 44 22 6 22 2 27-26 37-45 16-136 14-169-4z" fill="#130754"/><path d="m1363.5 1978.3v-49.783h110v99.565h-110z" fill="#ffca00" stroke-width=".65794"/><path d="m1532 1788v-49.783h110v99.565h-110z" fill="#e70488" stroke-width=".65794"/></g></svg>