<svg xmlns="http://www.w3.org/2000/svg" viewBox="0 0 128 128"><path style="color:#000000;fill:#130754;stroke-width:0.217695;-inkscape-stroke:none" d="m 16.249568,112.60879 c -2.237914,0 -4.512835,-0.92519 -5.940919,-2.73861 v 9.79632 H 5.8328228 V 95.484836 h 4.0491381 l 0.1589191,2.651536 c 1.388898,-2.044155 3.857575,-3.12393 6.210866,-3.121753 4.510657,0 7.83705,3.7792 7.83705,8.794911 0,5.0157 -3.328571,8.80144 -7.839228,8.79926 z M 14.862842,98.338833 c -2.61235,0 -4.74577,2.044167 -4.74577,5.477227 0,3.43308 2.12036,5.47724 4.743598,5.47724 2.623234,0 4.739235,-2.04416 4.739235,-5.47724 0,-3.43306 -2.116001,-5.477227 -4.737063,-5.477227 z" id="path119" /> <path style="color:#000000;fill:#130754;stroke-width:0.217695;-inkscape-stroke:none" d="m 40.958048,112.14947 -0.154564,-2.66027 c -1.388897,2.04418 -3.857574,3.12395 -6.208688,3.12395 -4.512835,0 -7.837048,-3.78139 -7.837048,-8.79491 0,-5.013545 3.317685,-8.794911 7.837048,-8.792734 2.351114,0 4.819791,1.088472 6.208688,3.12393 l 0.154564,-2.660235 h 4.049145 V 112.15165 Z M 35.983694,98.34101 c -2.612349,0 -4.74359,2.04417 -4.74359,5.47723 0,3.43306 2.120357,5.47723 4.74359,5.47723 2.62324,0 4.743598,-2.04417 4.743598,-5.47505 0,-3.43089 -2.120358,-5.466347 -4.743598,-5.47941 z" id="path121" /> <path style="color:#000000;fill:#130754;stroke-width:0.217695;-inkscape-stroke:none" d="m 60.661702,112.1538 v -9.22811 c 0,-3.239317 -1.118957,-4.319091 -3.163122,-4.319091 -2.120359,0 -4.434466,1.926611 -4.436643,4.240711 v 9.29562 H 48.590463 V 95.489201 h 4.099215 l 0.191571,3.086917 c 1.118958,-2.122525 3.626813,-3.548435 6.171681,-3.548435 4.434466,0 6.095495,3.086918 6.095495,7.214437 v 9.91168 z" id="path123" /> <path style="color:#000000;fill:#130754;stroke-width:0.217695;-inkscape-stroke:none" d="m 81.538748,112.15598 -0.154562,-2.6624 c -1.386741,2.04415 -3.855402,3.12392 -6.208691,3.12392 -4.512838,0 -7.837051,-3.78137 -7.837051,-8.79492 0,-5.01352 3.317671,-8.792719 7.837051,-8.792719 2.23573,0 4.512827,0.927378 5.938726,2.740781 v -8.755721 h 4.473658 V 112.15598 Z M 76.566569,98.354073 c -2.623233,0 -4.745769,2.044167 -4.745769,5.477227 0,3.43308 2.120349,5.47507 4.743581,5.47722 2.623244,9.4e-4 4.743602,-2.04414 4.743602,-5.47722 0,-3.43306 -2.120358,-5.477227 -4.741414,-5.477227 z" id="path125" /> <path style="color:#000000;fill:#130754;stroke-width:0.217695;-inkscape-stroke:none" d="m 102.40054,112.15818 -0.15456,-2.66025 c -1.38891,2.04417 -3.857579,3.12393 -6.208703,3.12177 -4.512827,0 -7.837051,-3.77922 -7.837051,-8.79275 0,-5.013547 3.317693,-8.794913 7.837051,-8.792736 2.351124,0 4.819793,1.088473 6.208703,3.12393 l 0.15456,-2.660245 h 4.06002 V 112.15818 Z M 97.426185,98.354073 c -2.623233,0 -4.743591,2.044167 -4.743591,5.477227 0,3.43308 2.120358,5.47722 4.743591,5.47722 2.623235,0 4.743585,-2.04414 4.743585,-5.47722 0,-3.43306 -2.12035,-5.477227 -4.743585,-5.477227 z" id="path127" /> <path style="color:#000000;fill:#130754;stroke-width:0.217695;-inkscape-stroke:none" d="m 116.36354,112.70024 a 13.094407,13.094407 0 0 1 -6.67237,-1.8896 l 0.73146,-3.09564 c 1.3497,0.80983 3.39389,1.85259 5.86256,1.85259 1.77422,0 3.00855,-0.53989 3.00855,-1.92879 0,-1.19514 -1.27135,-1.61966 -3.54844,-2.15954 -4.08616,-0.8882 -5.55343,-3.04774 -5.55125,-5.40104 0,-2.612336 2.04417,-5.089727 6.557,-5.089727 2.73861,0 5.12891,1.197323 5.6601,1.504279 l -0.72494,2.949784 a 9.6918198,9.6918198 0 0 0 -4.81978,-1.388897 c -1.81342,0 -2.70161,0.616068 -2.70161,1.619651 0,1.11678 1.15814,1.61965 2.93238,2.04417 4.39527,0.92521 6.1695,2.96938 6.1695,5.20728 0,3.57892 -2.62323,5.77548 -6.90316,5.77548 z" id="path129" /> <path style="color:#000000;fill:#130754;stroke-width:0.329904;-inkscape-stroke:none" d="m 53.94193,16.057216 h 7.94743 v 16.501877 h -7.94743 z" id="rect131" /> <path style="color:#000000;fill:#130754;stroke-width:0.329904;-inkscape-stroke:none" d="m 53.94193,49.955009 h 7.94743 v 16.501879 h -7.94743 z" id="rect133" /> <path style="color:#000000;fill:#ffca00;stroke-width:0.329904;-inkscape-stroke:none" d="m 53.94193,37.379009 h 7.94743 v 7.785771 h -7.94743 z" id="rect135" /> <path style="color:#000000;fill:#130754;stroke-width:0.329904;-inkscape-stroke:none" d="m 41.17459,29.626237 h 7.94743 v 54.853395 h -7.94743 z" id="rect137" /> <path style="color:#000000;fill:#130754;stroke-width:0.329904;-inkscape-stroke:none" d="m 66.44536,63.570219 h 7.94742 v 16.501867 h -7.94742 z" id="rect139" /> <path style="color:#000000;fill:#130754;stroke-width:0.329904;-inkscape-stroke:none" d="m 66.44536,29.64603 h 7.94742 v 16.501868 h -7.94742 z" id="rect141" /> <path style="color:#000000;fill:#e70488;stroke-width:0.329904;-inkscape-stroke:none" d="m 66.44536,50.964524 h 7.94742 v 7.785769 h -7.94742 z" id="rect143" /> <path style="color:#000000;fill:#130754;stroke-width:0.329904;-inkscape-stroke:none" d="m 78.94548,11.761847 h 7.94741 v 54.853394 h -7.94741 z" id="rect145" /> </svg>
