<?xml version="1.0" encoding="utf-8"?>
<!-- Generator: Adobe Illustrator 23.0.3, SVG Export Plug-In . SVG Version: 6.00 Build 0)  -->
<svg version="1.1" id="Layer_1" xmlns="http://www.w3.org/2000/svg" xmlns:xlink="http://www.w3.org/1999/xlink" x="0px" y="0px"
	 viewBox="0 0 128 128" style="enable-background:new 0 0 128 128;" xml:space="preserve">
<style type="text/css">
	.st0{fill:#010101;}
	.st1{clip-path:url(#SVGID_58_);fill:#2278B5;}
	.st2{clip-path:url(#SVGID_60_);fill:#2278B5;}
	.st3{clip-path:url(#SVGID_61_);fill:#2278B5;}
	.st4{clip-path:url(#SVGID_62_);fill:#2278B5;}
	.st5{clip-path:url(#SVGID_63_);fill:#2278B5;}
	.st6{clip-path:url(#SVGID_64_);fill:#2278B5;}
	.st7{clip-path:url(#SVGID_65_);fill:#2278B5;}
	.st8{clip-path:url(#SVGID_66_);fill:#2278B5;}
	.st9{fill:none;stroke:#010101;stroke-linecap:square;}
	.st10{clip-path:url(#SVGID_67_);fill:none;stroke:#2278B5;stroke-width:1.5;stroke-linecap:square;stroke-linejoin:round;}
	.st11{clip-path:url(#SVGID_68_);fill:none;stroke:#F57F20;stroke-width:1.5;stroke-linecap:square;stroke-linejoin:round;}
	.st12{clip-path:url(#SVGID_69_);fill:none;stroke:#2FA148;stroke-width:1.5;stroke-linecap:square;stroke-linejoin:round;}
	.st13{clip-path:url(#SVGID_70_);fill:none;stroke:#D62A28;stroke-width:1.5;stroke-linecap:square;stroke-linejoin:round;}
	.st14{clip-path:url(#SVGID_71_);}
	.st15{fill:#2278B5;}
	.st16{clip-path:url(#SVGID_72_);}
	.st17{fill:#F57F20;}
	.st18{clip-path:url(#SVGID_73_);}
	.st19{fill:#2FA148;}
	.st20{clip-path:url(#SVGID_74_);fill:#2278B5;}
	.st21{clip-path:url(#SVGID_75_);fill:#2278B5;}
	.st22{clip-path:url(#SVGID_76_);fill:#2278B5;}
	.st23{clip-path:url(#SVGID_77_);fill:#2278B5;}
	.st24{clip-path:url(#SVGID_78_);fill:#2278B5;}
	.st25{clip-path:url(#SVGID_79_);fill:#2278B5;}
	.st26{clip-path:url(#SVGID_80_);fill:#2278B5;}
	.st27{clip-path:url(#SVGID_81_);fill:#2278B5;}
	.st28{clip-path:url(#SVGID_82_);fill:none;stroke:#2278B5;stroke-width:1.5;stroke-linecap:square;stroke-linejoin:round;}
	.st29{clip-path:url(#SVGID_83_);fill:none;stroke:#F57F20;stroke-width:1.5;stroke-linecap:square;stroke-linejoin:round;}
	.st30{clip-path:url(#SVGID_84_);fill:none;stroke:#2FA148;stroke-width:1.5;stroke-linecap:square;stroke-linejoin:round;}
	.st31{clip-path:url(#SVGID_85_);fill:none;stroke:#D62A28;stroke-width:1.5;stroke-linecap:square;stroke-linejoin:round;}
	.st32{clip-path:url(#SVGID_86_);}
	.st33{clip-path:url(#SVGID_87_);}
	.st34{clip-path:url(#SVGID_88_);}
	.st35{clip-path:url(#SVGID_89_);fill:#010101;}
	.st36{clip-path:url(#SVGID_90_);fill:#010101;}
	.st37{clip-path:url(#SVGID_91_);fill:#010101;}
	.st38{clip-path:url(#SVGID_92_);fill:#010101;}
	.st39{clip-path:url(#SVGID_93_);fill:#010101;}
	.st40{clip-path:url(#SVGID_94_);fill:#010101;}
	.st41{clip-path:url(#SVGID_95_);fill:#010101;}
	.st42{clip-path:url(#SVGID_96_);fill:#010101;}
	.st43{clip-path:url(#SVGID_97_);fill:none;stroke:#000000;stroke-width:1.5;stroke-linecap:square;stroke-linejoin:round;}
	.st44{clip-path:url(#SVGID_98_);fill:none;stroke:#000000;stroke-width:1.5;stroke-linecap:square;stroke-linejoin:round;}
	.st45{clip-path:url(#SVGID_99_);fill:none;stroke:#000000;stroke-width:1.5;stroke-linecap:square;stroke-linejoin:round;}
	.st46{clip-path:url(#SVGID_100_);fill:none;stroke:#000000;stroke-width:1.5;stroke-linecap:square;stroke-linejoin:round;}
	.st47{clip-path:url(#SVGID_101_);}
	.st48{clip-path:url(#SVGID_102_);}
	.st49{clip-path:url(#SVGID_103_);fill:#010101;}
	.st50{clip-path:url(#SVGID_104_);fill:#010101;}
	.st51{clip-path:url(#SVGID_105_);fill:#010101;}
	.st52{clip-path:url(#SVGID_106_);fill:#010101;}
	.st53{clip-path:url(#SVGID_107_);fill:#010101;}
	.st54{clip-path:url(#SVGID_108_);fill:#010101;}
	.st55{clip-path:url(#SVGID_109_);fill:#010101;}
	.st56{clip-path:url(#SVGID_110_);fill:#010101;}
	.st57{clip-path:url(#SVGID_111_);fill:none;stroke:#000000;stroke-width:1.5;stroke-linecap:square;stroke-linejoin:round;}
	.st58{clip-path:url(#SVGID_112_);fill:none;stroke:#000000;stroke-width:1.5;stroke-linecap:square;stroke-linejoin:round;}
	.st59{clip-path:url(#SVGID_113_);fill:none;stroke:#000000;stroke-width:1.5;stroke-linecap:square;stroke-linejoin:round;}
	.st60{clip-path:url(#SVGID_114_);fill:none;stroke:#000000;stroke-width:1.5;stroke-linecap:square;stroke-linejoin:round;}
	.st61{clip-path:url(#SVGID_115_);}
	.st62{clip-path:url(#SVGID_116_);}
</style>
<g id="axes_1">
	<g id="patch_3">
		<g>
			<defs>
				<rect id="SVGID_31_" x="2.68" y="44.35" width="37.74" height="39.31"/>
			</defs>
			<clipPath id="SVGID_58_">
				<use xlink:href="#SVGID_31_"  style="overflow:visible;"/>
			</clipPath>
			<path class="st1" d="M4.39,64h3.52V50.24H4.39V64z"/>
		</g>
	</g>
	<g id="patch_4">
		<g>
			<defs>
				<rect id="SVGID_33_" x="2.68" y="44.35" width="37.74" height="39.31"/>
			</defs>
			<clipPath id="SVGID_60_">
				<use xlink:href="#SVGID_33_"  style="overflow:visible;"/>
			</clipPath>
			<path class="st2" d="M8.79,69.24h3.52V64H8.79V69.24z"/>
		</g>
	</g>
	<g id="patch_5">
		<g>
			<defs>
				<rect id="SVGID_35_" x="2.68" y="44.35" width="37.74" height="39.31"/>
			</defs>
			<clipPath id="SVGID_61_">
				<use xlink:href="#SVGID_35_"  style="overflow:visible;"/>
			</clipPath>
			<path class="st3" d="M13.19,64h3.52v-7.21h-3.52V64z"/>
		</g>
	</g>
	<g id="patch_6">
		<g>
			<defs>
				<rect id="SVGID_37_" x="2.68" y="44.35" width="37.74" height="39.31"/>
			</defs>
			<clipPath id="SVGID_62_">
				<use xlink:href="#SVGID_37_"  style="overflow:visible;"/>
			</clipPath>
			<path class="st4" d="M17.59,64h3.52V47.62h-3.52V64z"/>
		</g>
	</g>
	<g id="patch_7">
		<g>
			<defs>
				<rect id="SVGID_39_" x="2.68" y="44.35" width="37.74" height="39.31"/>
			</defs>
			<clipPath id="SVGID_63_">
				<use xlink:href="#SVGID_39_"  style="overflow:visible;"/>
			</clipPath>
			<path class="st5" d="M21.99,77.76h3.52V64h-3.52V77.76z"/>
		</g>
	</g>
	<g id="patch_8">
		<g>
			<defs>
				<rect id="SVGID_41_" x="2.68" y="44.35" width="37.74" height="39.31"/>
			</defs>
			<clipPath id="SVGID_64_">
				<use xlink:href="#SVGID_41_"  style="overflow:visible;"/>
			</clipPath>
			<path class="st6" d="M26.38,67.28h3.52V64h-3.52V67.28z"/>
		</g>
	</g>
	<g id="patch_9">
		<g>
			<defs>
				<rect id="SVGID_43_" x="2.68" y="44.35" width="37.74" height="39.31"/>
			</defs>
			<clipPath id="SVGID_65_">
				<use xlink:href="#SVGID_43_"  style="overflow:visible;"/>
			</clipPath>
			<path class="st7" d="M30.78,77.1h3.52V64h-3.52V77.1z"/>
		</g>
	</g>
	<g id="patch_10">
		<g>
			<defs>
				<rect id="SVGID_45_" x="2.68" y="44.35" width="37.74" height="39.31"/>
			</defs>
			<clipPath id="SVGID_66_">
				<use xlink:href="#SVGID_45_"  style="overflow:visible;"/>
			</clipPath>
			<path class="st8" d="M35.18,64h3.52v-9.83h-3.52V64z"/>
		</g>
	</g>
	<g id="patch_11">
		<path class="st9" d="M2.68,83.65V44.35"/>
	</g>
	<g id="patch_12">
		<path class="st9" d="M40.41,83.65V44.35"/>
	</g>
	<g id="patch_13">
		<path class="st9" d="M2.68,83.65h37.74"/>
	</g>
	<g id="patch_14">
		<path class="st9" d="M2.68,44.35h37.74"/>
	</g>
</g>
<g id="axes_2">
	<g id="line2d_1">
		<g>
			<defs>
				<rect id="SVGID_47_" x="45.13" y="44.35" width="37.74" height="39.31"/>
			</defs>
			<clipPath id="SVGID_67_">
				<use xlink:href="#SVGID_47_"  style="overflow:visible;"/>
			</clipPath>
			<path class="st10" d="M46.85,54.86l4.9-8.73l4.9,35.74l4.9-2.03l4.9,0.8l4.9-29.12l4.9,18.47l4.9,2.92"/>
		</g>
	</g>
	<g id="line2d_2">
		<g>
			<defs>
				<rect id="SVGID_49_" x="45.13" y="44.35" width="37.74" height="39.31"/>
			</defs>
			<clipPath id="SVGID_68_">
				<use xlink:href="#SVGID_49_"  style="overflow:visible;"/>
			</clipPath>
			<path class="st11" d="M46.85,73.06l4.9,1.79l4.9,4.33l4.9-15.13l4.9,4.08l4.9,8.88l4.9-26.27l4.9,6.92"/>
		</g>
	</g>
	<g id="line2d_3">
		<g>
			<defs>
				<rect id="SVGID_51_" x="45.13" y="44.35" width="37.74" height="39.31"/>
			</defs>
			<clipPath id="SVGID_69_">
				<use xlink:href="#SVGID_51_"  style="overflow:visible;"/>
			</clipPath>
			<path class="st12" d="M46.85,72.75l4.9-4.2l4.9,9.41l4.9-24.71l4.9,18.74l4.9-24.09l4.9,1.51l4.9-1.4"/>
		</g>
	</g>
	<g id="line2d_4">
		<g>
			<defs>
				<rect id="SVGID_53_" x="45.13" y="44.35" width="37.74" height="39.31"/>
			</defs>
			<clipPath id="SVGID_70_">
				<use xlink:href="#SVGID_53_"  style="overflow:visible;"/>
			</clipPath>
			<path class="st13" d="M46.85,52.9l4.9,0.04l4.9,16.17l4.9-17.26l4.9,11.13l4.9,7.46l4.9-11.16l4.9-7.6"/>
		</g>
	</g>
	<g id="patch_16">
		<path class="st9" d="M45.13,83.65V44.35"/>
	</g>
	<g id="patch_17">
		<path class="st9" d="M82.87,83.65V44.35"/>
	</g>
	<g id="patch_18">
		<path class="st9" d="M45.13,83.65h37.74"/>
	</g>
	<g id="patch_19">
		<path class="st9" d="M45.13,44.35h37.74"/>
	</g>
</g>
<g id="axes_3">
	<g id="PolyCollection_1">
		<g>
			<defs>
				<rect id="SVGID_55_" x="87.59" y="44.35" width="37.74" height="39.31"/>
			</defs>
			<clipPath id="SVGID_71_">
				<use xlink:href="#SVGID_55_"  style="overflow:visible;"/>
			</clipPath>
			<g class="st14">
				<g>
					<path id="m81de97919c" class="st15" d="M89.3,71.38v12.28h3.81h3.81h3.81h3.81h3.81h3.81h3.81h3.81h3.81v-7.19l0,0l-3.81-3.89
						l-3.81,7.79l-3.81-5.69l-3.81,3.29l-3.81-5.39l-3.81,2.4l-3.81-5.99l-3.81,9.88L89.3,71.38z"/>
				</g>
			</g>
		</g>
	</g>
	<g id="PolyCollection_2">
		<g>
			<defs>
				<rect id="SVGID_57_" x="87.59" y="44.35" width="37.74" height="39.31"/>
			</defs>
			<clipPath id="SVGID_72_">
				<use xlink:href="#SVGID_57_"  style="overflow:visible;"/>
			</clipPath>
			<g class="st16">
				<g>
					<path id="maaf380e772" class="st17" d="M89.3,57.6v13.78l3.81,7.49l3.81-9.88l3.81,5.99l3.81-2.4l3.81,5.39l3.81-3.29
						l3.81,5.69l3.81-7.79l3.81,3.89V65.98l0,0l-3.81-1.8l-3.81,4.19l-3.81,2.7l-3.81-0.3l-3.81-8.09l-3.81,5.39l-3.81-2.1
						l-3.81,3.59L89.3,57.6z"/>
				</g>
			</g>
		</g>
	</g>
	<g id="PolyCollection_3">
		<g>
			<defs>
				<rect id="SVGID_59_" x="87.59" y="44.35" width="37.74" height="39.31"/>
			</defs>
			<clipPath id="SVGID_73_">
				<use xlink:href="#SVGID_59_"  style="overflow:visible;"/>
			</clipPath>
			<g class="st18">
				<g>
					<path id="m31c02dcfcb" class="st19" d="M89.3,46.22V57.6l3.81,11.98l3.81-3.59l3.81,2.1l3.81-5.39l3.81,8.09l3.81,0.3l3.81-2.7
						l3.81-4.19l3.81,1.8V56.4l0,0l-3.81-2.99l-3.81,8.09l-3.81,4.79l-3.81,0.9l-3.81-6.29l-3.81,0.6L96.92,57l-3.81,0.9L89.3,46.22
						z"/>
				</g>
			</g>
		</g>
	</g>
	<g id="patch_21">
		<path class="st9" d="M87.59,83.65V44.35"/>
	</g>
	<g id="patch_22">
		<path class="st9" d="M125.32,83.65V44.35"/>
	</g>
	<g id="patch_23">
		<path class="st9" d="M87.59,83.65h37.74"/>
	</g>
	<g id="patch_24">
		<path class="st9" d="M87.59,44.35h37.74"/>
	</g>
</g>
</svg>
