<?xml version="1.0" encoding="utf-8"?>
<svg version="1.1" id="Layer_1" xmlns="http://www.w3.org/2000/svg" xmlns:xlink="http://www.w3.org/1999/xlink" x="0px" y="0px"
	 viewBox="0 0 128 128" style="enable-background:new 0 0 128 128;" xml:space="preserve">
<style type="text/css">
</style>
<g>
	<g>
		<g>
			<defs>
				<rect x="2.68" y="44.35" width="37.74" height="39.31"/>
			</defs>
			<clipPath>
				<use xlink:href="#SVGID_31_" overflow="visible"/>
			</clipPath>
			<path clip-path="url(#SVGID_58_)" fill="#2278B5" d="M4.39,64h3.52V50.24H4.39V64z"/>
		</g>
	</g>
	<g>
		<g>
			<defs>
				<rect x="2.68" y="44.35" width="37.74" height="39.31"/>
			</defs>
			<clipPath>
				<use xlink:href="#SVGID_33_" overflow="visible"/>
			</clipPath>
			<path clip-path="url(#SVGID_60_)" fill="#2278B5" d="M8.79,69.24h3.52V64H8.79V69.24z"/>
		</g>
	</g>
	<g>
		<g>
			<defs>
				<rect x="2.68" y="44.35" width="37.74" height="39.31"/>
			</defs>
			<clipPath>
				<use xlink:href="#SVGID_35_" overflow="visible"/>
			</clipPath>
			<path clip-path="url(#SVGID_61_)" fill="#2278B5" d="M13.19,64h3.52v-7.21h-3.52V64z"/>
		</g>
	</g>
	<g>
		<g>
			<defs>
				<rect x="2.68" y="44.35" width="37.74" height="39.31"/>
			</defs>
			<clipPath>
				<use xlink:href="#SVGID_37_" overflow="visible"/>
			</clipPath>
			<path clip-path="url(#SVGID_62_)" fill="#2278B5" d="M17.59,64h3.52V47.62h-3.52V64z"/>
		</g>
	</g>
	<g>
		<g>
			<defs>
				<rect x="2.68" y="44.35" width="37.74" height="39.31"/>
			</defs>
			<clipPath>
				<use xlink:href="#SVGID_39_" overflow="visible"/>
			</clipPath>
			<path clip-path="url(#SVGID_63_)" fill="#2278B5" d="M21.99,77.76h3.52V64h-3.52V77.76z"/>
		</g>
	</g>
	<g>
		<g>
			<defs>
				<rect x="2.68" y="44.35" width="37.74" height="39.31"/>
			</defs>
			<clipPath>
				<use xlink:href="#SVGID_41_" overflow="visible"/>
			</clipPath>
			<path clip-path="url(#SVGID_64_)" fill="#2278B5" d="M26.38,67.28h3.52V64h-3.52V67.28z"/>
		</g>
	</g>
	<g >
		<g>
			<defs>
				<rect  x="2.68" y="44.35" width="37.74" height="39.31"/>
			</defs>
			<clipPath >
				<use xlink:href="#SVGID_43_" overflow="visible"/>
			</clipPath>
			<path clip-path="url(#SVGID_65_)" fill="#2278B5" d="M30.78,77.1h3.52V64h-3.52V77.1z"/>
		</g>
	</g>
	<g>
		<g>
			<defs>
				<rect x="2.68" y="44.35" width="37.74" height="39.31"/>
			</defs>
			<clipPath >
				<use xlink:href="#SVGID_45_" overflow="visible"/>
			</clipPath>
			<path clip-path="url(#SVGID_66_)" fill="#2278B5" d="M35.18,64h3.52v-9.83h-3.52V64z"/>
		</g>
	</g>
	<g>
		<path fill="none" stroke="#010101" stroke-linecap="square" d="M2.68,83.65V44.35"/>
	</g>
	<g>
		<path fill="none" stroke="#010101" stroke-linecap="square" d="M40.41,83.65V44.35"/>
	</g>
	<g>
		<path fill="none" stroke="#010101" stroke-linecap="square" d="M2.68,83.65h37.74"/>
	</g>
	<g id="patch_14">
		<path fill="none" stroke="#010101" stroke-linecap="square" d="M2.68,44.35h37.74"/>
	</g>
</g>
<g>
	<g>
		<g>
			<defs>
				<rectx="45.13" y="44.35" width="37.74" height="39.31"/>
			</defs>
			<clipPath>
				<use xlink:href="#SVGID_47_" overflow="visible"/>
			</clipPath>
			<path clip-path="url(#SVGID_68_)" fill="none" stroke="#2278B5" stroke-width="1.5" stroke-linecap="square" stroke-linejoin="round" d="M46.85,54.86l4.9-8.73l4.9,35.74l4.9-2.03l4.9,0.8l4.9-29.12l4.9,18.47l4.9,2.92"/>
		</g>
	</g>
	<g>
		<g>
			<defs>
				<rect x="45.13" y="44.35" width="37.74" height="39.31"/>
			</defs>
			<clipPath>
				<use xlink:href="#SVGID_49_" overflow="visible"/>
			</clipPath>
			<path clip-path="url(#SVGID_68_)" fill="none" stroke="#F57F20" stroke-width="1.5" stroke-linecap="square" stroke-linejoin="round" d="M46.85,73.06l4.9,1.79l4.9,4.33l4.9-15.13l4.9,4.08l4.9,8.88l4.9-26.27l4.9,6.92"/>
		</g>
	</g>
	<g>
		<g>
			<defs>
				<rect x="45.13" y="44.35" width="37.74" height="39.31"/>
			</defs>
			<clipPath>
				<use xlink:href="#SVGID_51_" overflow="visible"/>
			</clipPath>
			<path clip-path="url(#SVGID_68_)" fill="none" stroke="#2FA148" stroke-width="1.5" stroke-linecap="square" stroke-linejoin="round" d="M46.85,72.75l4.9-4.2l4.9,9.41l4.9-24.71l4.9,18.74l4.9-24.09l4.9,1.51l4.9-1.4"/>
		</g>
	</g>
	<g>
		<g>
			<defs>
				<rect x="45.13" y="44.35" width="37.74" height="39.31"/>
			</defs>
			<clipPath>
				<use xlink:href="#SVGID_53_" overflow="visible"/>
			</clipPath>
			<path clip-path="url(#SVGID_68_)" fill="none" stroke="#D62A28" stroke-width="1.5" stroke-linecap="square" stroke-linejoin="round" d="M46.85,52.9l4.9,0.04l4.9,16.17l4.9-17.26l4.9,11.13l4.9,7.46l4.9-11.16l4.9-7.6"/>
		</g>
	</g>
	<g>
		<path fill="none" stroke="#010101" stroke-linecap="square" d="M45.13,83.65V44.35"/>
	</g>
	<g>
		<path fill="none" stroke="#010101" stroke-linecap="square" d="M82.87,83.65V44.35"/>
	</g>
	<g>
		<path fill="none" stroke="#010101" stroke-linecap="square" d="M45.13,83.65h37.74"/>
	</g>
	<g>
		<path fill="none" stroke="#010101" stroke-linecap="square" d="M45.13,44.35h37.74"/>
	</g>
</g>
<g>
	<g>
		<g>
			<defs>
				<rect x="87.59" y="44.35" width="37.74" height="39.31"/>
			</defs>
			<clipPath>
				<use xlink:href="#SVGID_55_" overflow="visible"/>
			</clipPath>
			<g clip-path="url(#SVGID_71_)">
				<g>
					<path fill="#2278B5" d="M89.3,71.38v12.28h3.81h3.81h3.81h3.81h3.81h3.81h3.81h3.81h3.81v-7.19l0,0l-3.81-3.89
						l-3.81,7.79l-3.81-5.69l-3.81,3.29l-3.81-5.39l-3.81,2.4l-3.81-5.99l-3.81,9.88L89.3,71.38z"/>
				</g>
			</g>
		</g>
	</g>
	<g>
		<g>
			<defs>
				<rect x="87.59" y="44.35" width="37.74" height="39.31"/>
			</defs>
			<clipPath>
				<use xlink:href="#SVGID_57_" overflow="visible"/>
			</clipPath>
			<g clip-path="url(#SVGID_72_)">
				<g>
					<path fill="#F57F20" d="M89.3,57.6v13.78l3.81,7.49l3.81-9.88l3.81,5.99l3.81-2.4l3.81,5.39l3.81-3.29
						l3.81,5.69l3.81-7.79l3.81,3.89V65.98l0,0l-3.81-1.8l-3.81,4.19l-3.81,2.7l-3.81-0.3l-3.81-8.09l-3.81,5.39l-3.81-2.1
						l-3.81,3.59L89.3,57.6z"/>
				</g>
			</g>
		</g>
	</g>
	<g>
		<g>
			<defs>
				<rect x="87.59" y="44.35" width="37.74" height="39.31"/>
			</defs>
			<clipPath>
				<use xlink:href="#SVGID_59_" overflow="visible"/>
			</clipPath>
			<g clip-path="url(#SVGID_73_)">
				<g>
					<path fill="#2FA148" d="M89.3,46.22V57.6l3.81,11.98l3.81-3.59l3.81,2.1l3.81-5.39l3.81,8.09l3.81,0.3l3.81-2.7
						l3.81-4.19l3.81,1.8V56.4l0,0l-3.81-2.99l-3.81,8.09l-3.81,4.79l-3.81,0.9l-3.81-6.29l-3.81,0.6L96.92,57l-3.81,0.9L89.3,46.22
						z"/>
				</g>
			</g>
		</g>
	</g>
	<g>
		<path fill="none" stroke="#010101" stroke-linecap="square" d="M87.59,83.65V44.35"/>
	</g>
	<g>
		<path fill="none" stroke="#010101" stroke-linecap="square" d="M125.32,83.65V44.35"/>
	</g>
	<g>
		<path fill="none" stroke="#010101" stroke-linecap="square" d="M87.59,83.65h37.74"/>
	</g>
	<g>
		<path fill="none" stroke="#010101" stroke-linecap="square" d="M87.59,44.35h37.74"/>
	</g>
</g>
</svg>
