<svg xmlns="http://www.w3.org/2000/svg" viewBox="0 0 128 128"><path fill="#130754" d="M79.072 5.153v60.318h9.589V5.153Zm.992.992h7.605V64.48h-7.605ZM52.03 9.798V28.64h9.587V9.799Zm.992.993h7.603v16.856h-7.603Zm-14.8 13.682v60.32h9.587v-60.32Zm27.331.023v18.84h9.587v-18.84Zm-26.339.97h7.603V83.8h-7.603zm27.331.022h7.603v16.855h-7.603zm-14.515 7.37v9.413h9.587V32.86zm.992.993h7.603v7.428h-7.603Zm-.992 12.608V65.3h9.587V46.46Zm.992.993h7.603v16.856h-7.603Zm12.531.1v9.413h9.587v-9.413zm.992.993h7.603v7.428h-7.603Zm-.992 12.641v18.84h9.587v-18.84Zm.992.992h7.603v16.855h-7.603zm14.872 26.526v8.976c-1.63-1.537-3.741-2.47-5.928-2.47-5.164 0-8.97 4.364-8.97 10.005 0 5.642 3.813 10.008 8.97 10.008 2.298 0 4.638-.942 6.289-2.67l.128 2.172h5.343V88.704Zm.993.992h3.847v24.037H82.84l-.227-3.873-.82 1.21c-1.392 2.051-3.91 3.16-6.304 3.16-4.602 0-7.978-3.811-7.978-9.015 0-5.204 3.367-9.014 7.978-9.014 2.281 0 4.6.95 6.035 2.774l.886 1.126zm38.046 5.469c-2.531 0-4.435.698-5.705 1.816a5.518 5.518 0 0 0-1.884 4.186c0 1.375.44 2.736 1.477 3.852 1.036 1.116 2.64 1.978 4.918 2.473 1.217.29 2.152.554 2.714.855.564.302.734.525.734.994 0 .605-.209.915-.66 1.178-.452.263-1.189.413-2.098.413-2.53 0-4.653-1.075-6.085-1.934l-.583-.349-1.03 4.363.31.186a14.655 14.655 0 0 0 7.47 2.114h.004c2.399 0 4.387-.615 5.787-1.787 1.4-1.171 2.174-2.899 2.174-4.955 0-1.342-.552-2.654-1.715-3.715-1.163-1.062-2.915-1.888-5.35-2.402l.013.002c-.94-.224-1.695-.474-2.16-.763-.464-.29-.633-.533-.633-.965 0-.396.127-.635.492-.863.365-.227 1.01-.392 1.93-.393a9.988 9.988 0 0 1 4.962 1.432l.577.349 1.031-4.205-.321-.188c-.649-.375-3.262-1.694-6.369-1.694zm-108.693.029c-2.298-.003-4.639.94-6.291 2.668l-.13-2.159H0v27.144h5.833v-10.103c1.631 1.538 3.74 2.471 5.929 2.471 5.156.002 8.974-4.368 8.974-10.012s-3.817-10.01-8.972-10.01zm19.839.011c-5.166-.003-8.971 4.366-8.971 10.006 0 5.642 3.813 10.008 8.97 10.008 2.296 0 4.636-.943 6.288-2.67l.126 2.168 5.345.002V95.705h-5.345l-.126 2.173c-1.652-1.724-3.992-2.673-6.287-2.673Zm26.451.002c-2.438 0-4.77 1.155-6.261 2.954l-.153-2.456h-5.398v19.004h5.83v-10.548c0-1.086.549-2.109 1.378-2.866.829-.758 1.928-1.225 2.924-1.225 1.017 0 1.678.24 2.15.835.47.594.774 1.646.774 3.341v10.477h5.845v-11.217c0-2.298-.457-4.358-1.599-5.874-1.141-1.516-2.977-2.425-5.49-2.425zm40 .008c-5.164-.002-8.973 4.364-8.973 10.006 0 5.64 3.815 10.006 8.973 10.006 2.296.002 4.635-.94 6.287-2.669l.126 2.169h5.357V95.715h-5.357l-.126 2.173c-1.652-1.724-3.99-2.673-6.287-2.673zm22.403.942c2.59 0 4.785 1.02 5.539 1.419l-.545 2.217c-1.507-.79-3.153-1.282-4.86-1.314h-.01c-1.037 0-1.854.167-2.46.544a1.999 1.999 0 0 0-.959 1.704c0 .775.459 1.408 1.101 1.808.642.4 1.473.652 2.452.886l.008.001.006.003c2.317.488 3.903 1.265 4.887 2.164.985.899 1.392 1.902 1.392 2.98 0 1.815-.644 3.21-1.82 4.195-1.175.983-2.918 1.555-5.145 1.556-2.339-.018-4.615-.676-6.644-1.832l.553-2.347c1.48.839 3.49 1.783 6.002 1.783 1.01 0 1.9-.141 2.596-.546a2.31 2.31 0 0 0 1.153-2.037c0-.822-.517-1.474-1.257-1.87-.74-.396-1.724-.652-2.963-.946l-.004-.002h-.006c-2.14-.465-3.54-1.252-4.402-2.18-.861-.928-1.212-2.007-1.21-3.176 0-1.284.492-2.511 1.548-3.44 1.056-.93 2.698-1.57 5.048-1.57zm-108.694.029c4.602 0 7.981 3.812 7.981 9.017s-3.381 9.022-7.982 9.02c-2.284 0-4.598-.948-6.035-2.773l-.886-1.126v11.53H.992V96.697H4.41l.229 3.854.82-1.205c1.394-2.052 3.913-3.162 6.306-3.159Zm19.84.012c2.388 0 4.913 1.118 6.306 3.16l.82 1.204.224-3.864h3.415v17.029l-3.415-.002-.224-3.868-.822 1.209c-1.393 2.05-3.914 3.16-6.304 3.16-4.604 0-7.979-3.811-7.979-9.015 0-5.203 3.367-9.017 7.979-9.013zm26.451.002c2.283 0 3.742.76 4.698 2.029.956 1.269 1.4 3.112 1.4 5.277v10.225H60.29v-9.485c0-1.81-.302-3.093-.989-3.96-.686-.865-1.736-1.209-2.928-1.209-1.297 0-2.597.575-3.593 1.485-.997.91-1.7 2.182-1.702 3.599v9.556h-3.845v-17.02h3.471l.29 4.638.823-1.564c1.111-2.106 3.67-3.571 6.236-3.571zm40 .007c2.39 0 4.912 1.118 6.306 3.161l.82 1.204.225-3.865h3.426v17.027h-3.426l-.225-3.868-.822 1.208c-1.394 2.051-3.914 3.163-6.304 3.16-4.604 0-7.98-3.81-7.98-9.013 0-5.204 3.37-9.016 7.98-9.014zM10.262 98.79c-3.085 0-5.628 2.5-5.628 6.418 0 3.917 2.53 6.42 5.626 6.42 3.094 0 5.622-2.503 5.622-6.42s-2.528-6.418-5.62-6.418zm22.843 0c-3.085 0-5.626 2.502-5.626 6.42 0 3.917 2.53 6.42 5.626 6.42 3.094 0 5.626-2.503 5.626-6.418 0-3.914-2.532-6.407-5.624-6.422zm43.891.015c-3.096 0-5.628 2.504-5.628 6.42 0 3.918 2.532 6.418 5.626 6.421 3.096 0 5.626-2.503 5.626-6.42s-2.531-6.42-5.624-6.42zm22.56 0c-3.095 0-5.626 2.504-5.626 6.42 0 3.918 2.531 6.421 5.626 6.421s5.626-2.503 5.626-6.42-2.53-6.42-5.626-6.42zm-89.294.977c2.577 0 4.628 1.917 4.628 5.426 0 3.51-2.051 5.429-4.63 5.429-2.58 0-4.634-1.92-4.634-5.429 0-3.507 2.068-5.426 4.636-5.426zm22.84 0h.003c2.58.014 4.633 1.926 4.633 5.43 0 3.506-2.054 5.427-4.633 5.427-2.58 0-4.634-1.92-4.634-5.429 0-3.507 2.066-5.427 4.632-5.428zm43.894.015c2.577 0 4.632 1.92 4.632 5.429 0 3.508-2.054 5.428-4.634 5.428-2.58-.003-4.634-1.92-4.634-5.428 0-3.509 2.056-5.429 4.636-5.429zm22.56 0c2.58 0 4.634 1.92 4.634 5.429 0 3.508-2.055 5.428-4.634 5.428s-4.634-1.92-4.634-5.428c0-3.509 2.055-5.429 4.634-5.429z"/></svg>
