<?xml version="1.0" encoding="UTF-8" standalone="no"?>
<svg
   width="128"
   height="128"
   viewBox="0 0 128 128"
   version="1.1"
   id="svg8"
   sodipodi:docname="AppleScript.svg"
   inkscape:version="1.1.1 (3bf5ae0d25, 2021-09-20)"
   xmlns:inkscape="http://www.inkscape.org/namespaces/inkscape"
   xmlns:sodipodi="http://sodipodi.sourceforge.net/DTD/sodipodi-0.dtd"
   xmlns="http://www.w3.org/2000/svg"
   xmlns:svg="http://www.w3.org/2000/svg"
   xmlns:rdf="http://www.w3.org/1999/02/22-rdf-syntax-ns#"
   xmlns:cc="http://creativecommons.org/ns#"
   xmlns:dc="http://purl.org/dc/elements/1.1/">
  <defs
     id="defs12" />
  <sodipodi:namedview
     id="namedview10"
     pagecolor="#505050"
     bordercolor="#ffffff"
     borderopacity="1"
     inkscape:pageshadow="0"
     inkscape:pageopacity="0"
     inkscape:pagecheckerboard="1"
     showgrid="false"
     inkscape:zoom="3.21875"
     inkscape:cx="68.194175"
     inkscape:cy="116.03883"
     inkscape:window-width="1920"
     inkscape:window-height="1009"
     inkscape:window-x="-8"
     inkscape:window-y="-8"
     inkscape:window-maximized="1"
     inkscape:current-layer="svg8" />
  <title
     id="title2">file_type_applescript</title>
  <path
     d="M 69.389716,11.140571 A 27.396571,27.396571 0 0 1 89.494859,0 27.332571,27.332571 0 0 1 82.880002,20.461714 21.618286,21.618286 0 0 1 63.817145,29.426286 23.771429,23.771429 0 0 1 69.389716,11.140571 Z"
     style="fill:#a8c2ab;stroke-width:4.57143"
     id="path4" />
  <path
     d="m 64.905145,36.726857 c 4.324571,0 12.342857,-5.942857 22.806857,-5.942857 a 28.566857,28.566857 0 0 1 25.069718,12.8 27.794286,27.794286 0 0 0 -13.842289,24.228571 28.502857,28.502857 0 0 0 17.243429,26.057143 c 0,0 -12.05486,33.929146 -28.342858,33.929146 -7.478857,0 -13.293714,-5.02857 -21.170286,-5.02857 -8.032,0 -16,5.22971 -21.188571,5.22971 -14.861714,0 -33.664,-32.187429 -33.664,-58.057143 0,-25.453714 15.899429,-38.806857 30.811429,-38.806857 9.696,0 17.216,5.590857 22.276571,5.590857 z"
     style="fill:#a8c2ab;stroke-width:4.57143"
     id="path6" />
  <metadata
     id="metadata14">
    <rdf:RDF>
      <cc:Work
         rdf:about="">
        <dc:title>file_type_applescript</dc:title>
      </cc:Work>
    </rdf:RDF>
  </metadata>
</svg>
