<svg xmlns="http://www.w3.org/2000/svg" viewBox="0 0 128 128">
    <path fill="#5a676d" d="M56.36 35.172 40.503 62.66 24.66 35.172l15.852-27.45Zm0 0"/>
    <path fill="#bcae79" d="M72.215 7.723H40.52l15.847 27.449h31.707Zm0 0"/>
    <path fill="#5a676d" d="m72.207 62.676 15.856-27.492 15.843 27.492-15.851 27.449Zm0 0"/>
    <path fill="#bcae79" d="M56.348 90.125h31.699L72.199 62.672l-31.707.004Zm0 0"/>
    <path fill="#5a676d" d="M15.66 121.512v-16.809h-2.687v6.95H5.027v-6.95h-2.71v16.809h2.71v-7.543h7.946v7.543Zm7.79 0v-16.809h-2.716v16.809Zm16.253-5.082c0-1.743-1.023-3.41-3.215-3.836v-.047c1.719-.598 2.864-2.117 2.864-3.836 0-2.59-1.891-4.082-5.551-4.082-2.043 0-3.961.047-5.278.07v16.809c1.868.027 3.559.074 4.582.074 5.153.004 6.598-2.96 6.598-5.152Zm-3.187-7.293c0 1.691-1.32 2.715-3.836 2.715-.57 0-.996 0-1.446-.028v-4.98a54.883 54.883 0 0 1 2.118-.051c2.39.004 3.164.973 3.164 2.344Zm.324 7.343c0 1.696-1.172 2.887-3.637 2.887-.871 0-1.543-.047-1.969-.125v-5.351c.375-.024 1.246-.024 1.52-.024 2.367 0 4.086.695 4.086 2.613Zm15.734 5.032v-2.317h-6.148v-5.226h5.851v-2.219h-5.851v-4.781h6.148v-2.266h-8.863v16.809Zm15.707 0-4.433-5.852c-.422-.55-.946-1.195-1.418-1.793 2.738-.3 4.758-2.02 4.758-4.707 0-3.34-2.391-4.558-5.88-4.558-1.89 0-3.285.027-4.503.097v16.813h2.71v-7.274h.126l5.23 7.274Zm-3.933-12.051c0 1.668-1.32 2.789-3.512 2.789-.441.004-.879-.016-1.32-.05v-5.329c.472-.031.945-.05 1.418-.05 2.265 0 3.414.796 3.414 2.64Zm0 0"/>
    <path fill="#bcae79" d="M85.254 121.512v-16.809h-2.637v4.98c0 2.465.07 6.075.172 7.993-.621-1.219-1.293-2.563-2.043-3.809l-5.55-9.164h-3.56v16.809h2.637v-5.653c0-2.39-.05-5.8-.148-7.445a35.632 35.632 0 0 0 1.867 3.535l5.75 9.563Zm17.95 0-6.102-16.809H94.09l-6.024 16.809h2.739l1.293-3.711h6.797l1.296 3.71Zm-5.032-5.88h-5.379l1.894-5.202c.325-.895.598-1.817.774-2.664h.047c.199.921.426 1.718.75 2.59Zm16.406-8.64v-2.289h-11.95v2.29h4.606v14.519h2.715v-14.52Zm11.672 14.52v-2.317h-6.148v-5.226h5.847v-2.219h-5.847v-4.781h6.148v-2.266h-8.863v16.809Zm0 0"/>
</svg>