<?xml version="1.0" encoding="UTF-8" standalone="no"?>
<!-- Generator: Adobe Illustrator 15.1.0, SVG Export Plug-In . SVG Version: 6.00 Build 0)  -->

<svg
   version="1.1"
   id="Layer_1"
   x="0px"
   y="0px"
   width="128.97072"
   height="128.97072"
   viewBox="0 0 128.97072 128.97072"
   enable-background="new 0 0 250 114"
   xml:space="preserve"
   sodipodi:docname="p5js-original-wordmark.svg"
   inkscape:version="1.2.1 (9c6d41e410, 2022-07-14)"
   xmlns:inkscape="http://www.inkscape.org/namespaces/inkscape"
   xmlns:sodipodi="http://sodipodi.sourceforge.net/DTD/sodipodi-0.dtd"
   xmlns="http://www.w3.org/2000/svg"
   xmlns:svg="http://www.w3.org/2000/svg"><defs
   id="defs39">

	
	
	
	
	

		
	
		
	</defs><sodipodi:namedview
   id="namedview37"
   pagecolor="#ffffff"
   bordercolor="#666666"
   borderopacity="1.0"
   inkscape:showpageshadow="2"
   inkscape:pageopacity="0.0"
   inkscape:pagecheckerboard="0"
   inkscape:deskcolor="#d1d1d1"
   showgrid="false"
   inkscape:zoom="1.31"
   inkscape:cx="-112.21374"
   inkscape:cy="186.25954"
   inkscape:window-width="1920"
   inkscape:window-height="947"
   inkscape:window-x="0"
   inkscape:window-y="27"
   inkscape:window-maximized="1"
   inkscape:current-layer="Layer_1" />

	<style
   id="style18">
  		path {fill:#ED225D;}
  		.svglink {border:none;}
  	</style>
<path
   id="path20"
   style="stroke-width:0.52256"
   d="M 38.085938 34.914062 L 37.337891 59.056641 C 38.002064 58.724816 38.762418 58.413204 39.615234 58.121094 C 40.46753 57.831074 41.339753 57.570156 42.234375 57.341797 C 43.128474 57.112916 44.044566 56.936484 44.980469 56.810547 C 45.916373 56.686178 46.798422 56.625 47.630859 56.625 C 48.836404 56.625 50.022715 56.759134 51.1875 57.029297 C 52.351763 57.299983 53.401987 57.779245 54.337891 58.464844 C 55.273795 59.150441 56.032058 60.055277 56.615234 61.177734 C 57.196843 62.300192 57.488281 63.714288 57.488281 65.419922 C 57.488281 66.750881 57.270844 67.94754 56.833984 69.007812 C 56.397648 70.067039 55.804423 70.952226 55.056641 71.658203 C 54.30729 72.366271 53.43468 72.90762 52.435547 73.28125 C 51.437458 73.656971 50.377408 73.84375 49.253906 73.84375 C 47.258251 73.84375 45.531499 73.312226 44.076172 72.251953 C 42.619798 71.19168 41.579537 69.788454 40.955078 68.041016 L 40.873047 68.070312 L 35.455078 73.148438 C 36.550885 74.935591 37.963636 76.429933 39.708984 77.617188 C 42.245487 79.342156 45.36355 80.207031 49.066406 80.207031 C 51.270561 80.207031 53.349792 79.852462 55.304688 79.146484 C 57.25906 78.439984 58.964071 77.419894 60.419922 76.087891 C 61.875249 74.757977 63.031426 73.125398 63.884766 71.191406 C 64.736538 69.257414 65.162109 67.06436 65.162109 64.609375 C 65.162632 62.363415 64.777542 60.379403 64.007812 58.652344 C 63.238082 56.927375 62.167685 55.470844 60.794922 54.285156 C 59.42268 53.099991 57.811321 52.193726 55.960938 51.570312 C 54.10951 50.946899 52.103234 50.634766 49.941406 50.634766 C 49.150774 50.634766 48.266249 50.678247 47.289062 50.759766 C 46.311353 50.844416 45.468742 50.988765 44.761719 51.197266 L 45.199219 41.650391 L 63.228516 41.650391 L 63.228516 34.914062 L 38.085938 34.914062 z M 90.617188 47.707031 L 90.617188 81.205078 C 90.617188 82.078798 90.574747 82.89824 90.492188 83.667969 C 90.408578 84.437699 90.221661 85.114612 89.931641 85.697266 C 89.63953 86.278874 89.221444 86.736397 88.681641 87.070312 C 88.140269 87.403183 87.433221 87.568359 86.560547 87.568359 C 86.268959 87.568359 85.937175 87.546619 85.5625 87.505859 C 85.187824 87.464054 84.836776 87.401969 84.503906 87.318359 L 83.878906 93.681641 C 84.253581 93.764728 84.751587 93.849984 85.375 93.933594 C 85.999458 94.016153 86.624633 94.056641 87.248047 94.056641 C 89.49453 94.056641 91.312844 93.703639 92.707031 92.996094 C 94.100175 92.288548 95.203183 91.344413 96.013672 90.158203 C 96.825207 88.971993 97.373905 87.579638 97.666016 85.978516 C 97.957081 84.377394 98.103516 82.680776 98.103516 80.892578 L 98.103516 47.707031 L 90.617188 47.707031 z M 18.203125 48.263672 C 16.830883 48.263672 15.593219 48.420977 14.492188 48.732422 C 13.389587 49.044913 12.40054 49.441394 11.527344 49.917969 C 10.653624 50.397156 9.9150109 50.936028 9.3125 51.539062 C 8.7089439 52.142096 8.2212862 52.736751 7.8476562 53.318359 L 7.6601562 53.318359 L 7.6601562 49.138672 L 0.48632812 49.138672 L 0.48632812 94.056641 L 7.9726562 94.056641 L 7.9726562 75.089844 L 8.0957031 75.089844 C 9.0519868 76.588543 10.414731 77.774718 12.183594 78.648438 C 13.95089 79.521112 15.894034 79.957031 18.015625 79.957031 C 20.302345 79.957031 22.352487 79.530029 24.162109 78.677734 C 25.971733 77.827007 27.51 76.682994 28.779297 75.248047 C 30.047026 73.813098 31.025339 72.127351 31.710938 70.193359 C 32.39758 68.259366 32.740234 66.190483 32.740234 63.986328 C 32.740234 61.782172 32.38671 59.724159 31.679688 57.810547 C 30.972141 55.897979 29.974179 54.232928 28.685547 52.818359 C 27.395871 51.404837 25.856558 50.293049 24.068359 49.480469 C 22.279639 48.66998 20.324716 48.263672 18.203125 48.263672 z M 117.25586 48.263672 C 115.75873 48.263672 114.30219 48.451497 112.88867 48.826172 C 111.4741 49.199802 110.20448 49.77233 109.08203 50.541016 C 107.95957 51.312836 107.05474 52.298225 106.36914 53.505859 C 105.68198 54.711926 105.33984 56.146718 105.33984 57.810547 C 105.33984 59.225115 105.58884 60.408951 106.08789 61.365234 C 106.58693 62.323608 107.25103 63.12274 108.08398 63.767578 C 108.91589 64.412415 109.86356 64.93307 110.92383 65.328125 C 111.98463 65.724226 113.07572 66.044616 114.19922 66.294922 C 116.48542 66.835248 118.20273 67.37712 119.34766 67.917969 C 120.4905 68.458818 121.06055 69.351215 121.06055 70.599609 C 121.06055 71.266395 120.91502 71.826872 120.625 72.285156 C 120.33289 72.743441 119.94832 73.106267 119.4707 73.376953 C 118.99203 73.647639 118.47334 73.844381 117.91211 73.96875 C 117.34983 74.094164 116.79761 74.15625 116.25781 74.15625 C 114.63474 74.15625 113.15908 73.803248 111.82812 73.095703 C 110.49612 72.389203 109.4159 71.49576 108.58398 70.414062 L 103.65625 75.03125 C 105.11158 76.610947 106.93985 77.828438 109.14453 78.679688 C 111.34921 79.531983 113.61521 79.957031 115.94531 79.957031 C 117.56838 79.957031 119.13769 79.780984 120.65625 79.427734 C 122.17429 79.074484 123.50404 78.503 124.64844 77.712891 C 125.79285 76.92278 126.70893 75.893774 127.39453 74.625 C 128.08065 73.35727 128.42383 71.807611 128.42383 69.976562 C 128.42383 68.520713 128.13239 67.283185 127.55078 66.263672 C 126.96812 65.244681 126.2083 64.390676 125.27344 63.705078 C 124.33754 63.018436 123.29871 62.468169 122.1543 62.052734 C 121.00989 61.6373 119.87637 61.304994 118.75391 61.054688 C 116.63284 60.555644 115.02004 60.066555 113.91797 59.587891 C 112.81589 59.111316 112.26562 58.287309 112.26562 57.123047 C 112.26562 55.958785 112.76453 55.126905 113.76367 54.628906 C 114.76175 54.129862 115.86177 53.878906 117.06836 53.878906 C 118.44112 53.878906 119.71022 54.202818 120.875 54.847656 C 122.03979 55.492494 122.95483 56.249328 123.62109 57.123047 L 128.48633 52.818359 C 127.2787 51.280467 125.64625 50.136069 123.58789 49.386719 C 121.52953 48.638936 119.41769 48.263672 117.25586 48.263672 z M 16.519531 54.378906 C 17.974859 54.378906 19.242521 54.659475 20.324219 55.220703 C 21.405917 55.782977 22.300267 56.522113 23.007812 57.435547 C 23.714835 58.351071 24.243362 59.380078 24.597656 60.523438 C 24.950907 61.667319 25.128906 62.821543 25.128906 63.986328 C 25.128906 65.15059 24.950907 66.315684 24.597656 67.480469 C 24.243362 68.645254 23.714835 69.685131 23.007812 70.599609 C 22.300267 71.515133 21.405395 72.26305 20.324219 72.845703 C 19.242521 73.428358 17.974859 73.71875 16.519531 73.71875 C 15.146768 73.71875 13.918544 73.439228 12.837891 72.876953 C 11.756193 72.31677 10.831708 71.576588 10.0625 70.662109 C 9.292248 69.746585 8.7095079 68.719146 8.3144531 67.574219 C 7.9183531 66.431381 7.7226562 65.276113 7.7226562 64.111328 C 7.7226562 62.947589 7.9183531 61.781972 8.3144531 60.617188 C 8.7095079 59.452403 9.292248 58.413571 10.0625 57.498047 C 10.831185 56.584613 11.756193 55.834607 12.837891 55.251953 C 13.918544 54.6693 15.146768 54.378906 16.519531 54.378906 z M 76.404297 68.101562 L 76.404297 72.75 L 71.910156 71.300781 L 71.033203 73.998047 L 75.507812 75.613281 L 72.751953 79.386719 L 75.007812 81.105469 L 77.833984 77.367188 L 80.736328 81.207031 L 83.060547 79.521484 L 80.304688 75.613281 L 84.744141 74.097656 L 83.869141 71.404297 L 79.410156 72.75 L 79.410156 68.101562 L 76.404297 68.101562 z " />
</svg>
